<svg xmlns="http://www.w3.org/2000/svg" id="Layer_1" data-name="Layer 1" viewBox="0 0 68.84 72.46"><defs><style>.cls-2{fill:#fff;stroke:#000;stroke-miterlimit:10;stroke-width:2px}</style></defs><path d="M35.88 14.38V1.96L1.7 26.79 35.88 51.8V39.21h17.1V14.38h-17.1z" class="cls-2"/><path fill="#fff" d="M57.21 67.15a3.8 3.8 0 0 1-3.47-2.25L49.75 56l-7.55 7.55V29.17l24.18 23.54h-9.77l4.08 9.09a3.77 3.77 0 0 1-1.91 5.03 3.8 3.8 0 0 1-1.56.33Z"/><path d="m43.2 31.54 20.72 20.17h-8.85l4.71 10.49a2.8 2.8 0 0 1-5.12 2.3l-4.59-10.23-6.87 6.87v-29.6m-2-4.74v39.17l3.41-3.41 4.82-4.82 3.4 7.58a4.81 4.81 0 0 0 8.77-3.93l-3.44-7.67h10.69l-3.53-3.43L44.6 30.12l-3.39-3.3Z"/><path d="M49.65 29.93v-5.67L66.86 7.05V1.79H49.65v5.26l17.21 17.21v5.67H49.65z" class="cls-2"/><path d="M49.65 1.79v5.26l17.21 17.21v5.67" class="cls-2"/><path d="M49.65 1.79v5.26l17.21 17.21v5.67" class="cls-2"/><path fill="none" stroke="#000" stroke-miterlimit="10" stroke-width="2" d="M49.65 26.89h17.21M49.65 4.6h17.21"/><path d="M19.59 63.33c0 .09-.02.18-.05.26a2.72 2.72 0 0 1-.34.62.86.86 0 0 1-.22.21.54.54 0 0 1-.24.09l-.3.02h-.42a.46.46 0 0 1-.19.04c-.07 0-.12-.03-.14-.09a.66.66 0 0 1-.03-.21v-.21c0-.07-.01-.12-.03-.17s-.07-.07-.14-.07a.4.4 0 0 0-.29.11l-.2.23c-.06.08-.13.16-.21.23s-.18.11-.32.11c-.17 0-.33-.03-.49-.08s-.33-.08-.49-.1a34.8 34.8 0 0 0-1.02-.05c-.34 0-.68-.02-1.01-.03-.34-.01-.67-.04-1.01-.07a8.33 8.33 0 0 1-1-.16l-.22-.04-.21-.01c-.34 0-.67.04-1 .11s-.69.11-1.1.11c-.27 0-.55.03-.82.09-.27.06-.55.09-.82.09-.13 0-.29-.03-.46-.08a2.45 2.45 0 0 1-.5-.22c-.16-.09-.3-.2-.41-.34a.64.64 0 0 1-.17-.42c0-.11.05-.22.15-.34s.23-.24.37-.35c.14-.11.28-.22.43-.31l.34-.23 1.52.22c.51.08 1.01.12 1.53.12.31 0 .57-.04.75-.12.19-.08.33-.19.42-.32s.16-.3.19-.48c.03-.19.04-.39.04-.6v-.77c0-1.29.04-2.58.11-3.86a70.76 70.76 0 0 0 .07-5.76c-.03-.63-.09-1.26-.18-1.89l-.33-.07c-.1-.03-.23-.04-.37-.04l-.06.01a.23.23 0 0 0-.12-.06h-.13c-.19 0-.37.03-.55.08-.17.05-.35.08-.53.08-.05 0-.09 0-.12-.02l-.09-.06-.1-.06c-.04-.02-.08-.02-.14-.02-.27 0-.55.03-.82.09-.27.06-.55.09-.83.09a1.96 1.96 0 0 1-1.12-.36 1 1 0 0 0 .09-.45c0-.13-.01-.26-.04-.39l-.05-.39a.4.4 0 0 0 .19.04c.12 0 .24-.03.35-.09l.33-.21.33-.21a.8.8 0 0 1 .36-.09c.25 0 .49.04.74.11.24.07.49.11.74.11a.8.8 0 0 0 .36-.08c.1-.05.19-.08.26-.08.08 0 .15.02.19.07s.11.07.21.07c.13 0 .27-.02.4-.07l.4-.16.41-.16c.14-.05.29-.07.43-.07.21 0 .41.02.61.07s.4.07.6.07c.11 0 .21-.01.31-.04h.01l-.02.2c0 .12.02.22.06.31a8.58 8.58 0 0 1 .24.65c.03.14.06.32.06.53 0 .37 0 .74.02 1.1.02.36.02.73.02 1.1 0 .19-.01.38-.04.55-.03.18-.08.35-.17.52.07.07.12.14.14.23s.03.18.03.28v.2l.03.29c.02.1.07.18.16.25v.14c.01.11 0 .2-.04.29l-.12.24-.12.22a.51.51 0 0 0-.06.25c0 .19.03.38.08.58.05.19.08.4.08.61 0 .27-.02.53-.05.79l-.11.78-.11.78c-.03.26-.05.52-.05.79 0 .07-.01.12-.03.16-.02.04-.05.06-.09.06l-.09-.02c0 .21.02.43.05.65l.11.64.11.64c.03.22.05.43.05.66v.35c-.01.44.13.76.42.97s.65.31 1.07.31c.28 0 .49-.03.64-.08a.87.87 0 0 0 .32-.18l.17-.18c.04-.05.1-.08.19-.08.24 0 .49.03.74.08l.74.12c.12.02.25.02.37.02l.36.03c.12.02.22.06.32.11s.19.14.27.26l.28.41c.1.15.16.3.16.46Z"/></svg>