<svg xmlns="http://www.w3.org/2000/svg" viewBox="0 0 65.02 69.5"><defs><style>.cls-3{fill:#ffff87}.cls-5{fill:#ffc73e}.cls-7{fill:#bcd2e6}.cls-8{fill:#e14d4d}</style></defs><g id="Layer_1" data-name="Layer 1"><path fill="#5d7ac6" d="m32.9 65.81-5.99-5.99V6.49L32.9.5h25.63l5.99 5.99v53.33l-5.99 5.99H32.9z"/><path d="m58.32 1 5.7 5.7v52.91l-5.7 5.7H33.1l-5.7-5.7V6.7L33.1 1h25.22m.41-1H32.69l-.29.29-5.7 5.7-.29.29v53.74l.29.29 3.63 3.63 2.07 2.07.29.29h26.04l.29-.29 2.07-2.07 3.63-3.63.29-.29V6.28l-.29-.29-5.69-5.7-.29-.29Z"/><path fill="#090b12" d="M35.3 63.21h20.81l5.7-5.7V12.76l-5.7-5.7H35.3l-5.7 5.7v44.75l5.7 5.7Z"/><path fill="#0f0" d="M34.61 2.75h22.21v2.16H34.61z"/><path fill="#eefcff" d="M35.69 5.99h8.71v2.16h-8.71zm11.33 0h8.71v2.16h-8.71z"/></g><g id="Layer_2" data-name="Layer 2"><path d="M32.05 14.18h11.71v41.91H32.05z" class="cls-8"/><path d="M44.54 56.09H31.29v-6.83l.69-.69h11.76l.81.81v6.72ZM31.28 13.31h13.25v12.03l-.69.69H32.08l-.81-.81V13.3Z" class="cls-5"/><path d="M44.54 56.09H31.29v-6.83l.69-.69h11.76l.81.81v6.72Z" class="cls-5"/><path d="M31.28 49.66h13.25v1.45H31.28zm0-36.35h13.25v1.45H31.28zm0 5.96h13.25v1.45H31.28z" class="cls-3"/><path d="M35.03 56.09h5.76v1.24c0 .76-.62 1.38-1.38 1.38H36.4c-.76 0-1.38-.62-1.38-1.38v-1.24Z" class="cls-7"/><path d="M47.66 14.18h11.71v41.91H47.66z" class="cls-8"/><path d="M60.14 56.09H46.89v-6.83l.69-.69h11.76l.81.81v6.72ZM46.89 13.31h13.25v12.03l-.69.69H47.69l-.81-.81V13.3Z" class="cls-5"/><path d="M60.14 56.09H46.89v-6.83l.69-.69h11.76l.81.81v6.72Z" class="cls-5"/><path d="M46.89 49.66h13.25v1.45H46.89zm0-36.35h13.25v1.45H46.89zm0 5.96h13.25v1.45H46.89z" class="cls-3"/><path d="M50.63 56.09h5.76v1.24c0 .76-.62 1.38-1.38 1.38H52c-.76 0-1.38-.62-1.38-1.38v-1.24Z" class="cls-7"/><path d="M16.98 21.76c.28.11.48.26.59.46.12.19.17.41.17.64a2.47 2.47 0 0 1-1.13 1.92c-.21.13-.41.19-.6.19-.15 0-.33-.05-.56-.15a6.94 6.94 0 0 1-1.36-.9 2.53 2.53 0 0 1-.48-.53h-.15c-.1 0-.19 0-.27.02s-.18.02-.27.02a.8.8 0 0 1-.58-.27 1.93 1.93 0 0 0-.98-.54l-.46-.11a2.17 2.17 0 0 1-.52-.22c-.3-.17-.59-.38-.86-.62s-.52-.49-.75-.73l-1.29-.52a13.49 13.49 0 0 1-2.11-1.06c-.34-.22-.72-.5-1.13-.84l.02-.27c0-.35-.05-.69-.16-1.02-.1-.33-.15-.66-.15-1 0-.18.03-.33.1-.43.07-.1.15-.19.26-.26.1-.07.22-.14.35-.19.13-.05.25-.12.37-.21h.51s.08-.11.08-.18a1.64 1.64 0 0 1 .06-.43.21.21 0 0 1 .14-.15c.12-.07.24-.12.36-.15a4.89 4.89 0 0 0 .76-.2c.13-.05.28-.13.44-.25l.41-.3.43-.34c.16-.12.33-.22.53-.3l.58-.22.57-.22c.19-.08.36-.19.52-.34.13-.12.25-.24.35-.36l.29-.33.32-.3c.12-.1.26-.19.45-.27l.73-.34a3.89 3.89 0 0 0 .53-.31l.08-.1.13-.16a5.32 5.32 0 0 1 1.69-1.22c.42-.18.79-.26 1.12-.26a1.62 1.62 0 0 1 1.19.5 1.5 1.5 0 0 1 .41 1.02c0 .24-.07.46-.2.65s-.34.3-.62.34a.85.85 0 0 0-.4.13.53.53 0 0 0-.18.19l-.08.19a.22.22 0 0 1-.12.13c-.13.06-.26.12-.39.16l-.39.16a1.7 1.7 0 0 0-.37.26l-.43.41-.42.4c-.13.12-.24.19-.33.2l-.05-.05-.08-.12-.09-.13c-.03-.04-.05-.05-.06-.05-.02 0-.04.04-.05.11l-.04.23-.02.24v.14l-.27.05c-.43.1-.81.25-1.16.46-.35.21-.68.43-1.01.67l-.98.69c-.32.22-.69.4-1.08.54l.04.22-.2.13-.43.24-.43.24a.75.75 0 0 0-.2.13v.4c0 .06-.02.09-.05.09-.01 0-.02 0-.04-.03-.01-.02-.03-.03-.05-.03s-.05.03-.06.09l-.06.36.36.21.76.43.76.43c.23.13.36.19.38.19l.29.02h.36c.29 0 .5.04.62.11s.23.16.33.26.22.2.36.3c.14.1.37.19.7.25.08.02.18.07.28.14l.3.24.28.28c.09.1.17.18.25.24.23.22.5.38.81.49a6.15 6.15 0 0 0 1.92.36c.31.02.59.05.85.1Zm4.7 34.9c-.1-.01-.19-.05-.27-.1s-.18-.08-.27-.08a.2.2 0 0 0-.14.05l-.08.13c-.05.07-.19.13-.43.18-.24.05-.5.09-.78.11-.29.02-.56.04-.82.04h-.56c-.26 0-.51-.02-.77-.07s-.5-.13-.73-.26c-.16.1-.36.15-.6.15h-.38a.86.86 0 0 0-.52.15.72.72 0 0 1-.43.15.81.81 0 0 1-.31-.06c-.1-.04-.19-.09-.27-.15l-.25-.16c-.08-.05-.15-.07-.23-.07s-.14.02-.19.07c-.06.05-.1.11-.15.18l-.11.22-.08.18a.29.29 0 0 0-.24-.17 3.52 3.52 0 0 0-.34-.04.96.96 0 0 1-.31-.05c-.09-.03-.14-.11-.16-.25h-.15s-.09 0-.16-.03c-.07-.02-.11-.06-.11-.12 0-.13.03-.25.1-.36a.59.59 0 0 0 .06-.54l-.18-.02c-.16 0-.28.04-.37.13-.09.08-.17.19-.25.3l-.21.36a.66.66 0 0 1-.28.27c-.21 0-.41.03-.6.1s-.4.1-.6.1c-.13 0-.27-.03-.41-.08a1.87 1.87 0 0 1-.39-.22c-.12-.09-.22-.2-.29-.33a.84.84 0 0 1-.11-.41c0-.18.04-.36.12-.53s.18-.32.3-.44c.27-.27.57-.44.89-.52s.66-.13 1-.15.67-.05.99-.09.61-.17.86-.38.45-.54.6-.99c.15-.45.23-1.1.23-1.95v-.62a11.1 11.1 0 0 1-2.71-.11c-.63-.11-1.27-.16-1.92-.16-.34 0-.67.04-1 .13-.33.08-.66.13-1 .13s-.68-.03-1.01-.08-.67-.08-1.01-.08a2 2 0 0 0-.49.06 5.76 5.76 0 0 0-.86.3c-.12.04-.23.06-.31.06a4.55 4.55 0 0 1-1.25-.19c-.2-.07-.38-.18-.53-.31s-.25-.32-.3-.55c-.05-.21-.12-.42-.2-.64s-.13-.44-.13-.66a.6.6 0 0 1 .07-.23l.16-.37a3 3 0 0 0 .22-1.02 2.33 2.33 0 0 1 .29-.92l.27-.46c.1-.15.19-.26.27-.35a.8.8 0 0 1 .24-.17l.27-.1.28-.09a.73.73 0 0 0 .25-.15c.1-.08.18-.19.25-.3l.2-.35.21-.34c.07-.11.16-.2.27-.27.07-.06.17-.12.28-.19.12-.07.17-.15.17-.26 0-.1-.02-.19-.05-.29s-.05-.19-.05-.29v-.16s0-.09.02-.15c.27-.07.49-.18.67-.33a3.17 3.17 0 0 0 .86-1.08l.39-.63c.27-.41.57-.79.92-1.13.35-.34.7-.67 1.07-.98.22-.18.39-.39.52-.62l.39-.67c.13-.21.29-.42.46-.61.17-.19.4-.33.69-.43a.84.84 0 0 1-.07-.31c0-.18.06-.33.18-.46l.38-.35c.23-.19.41-.38.54-.55l.38-.5a3.34 3.34 0 0 1 1.18-.95c.22-.11.35-.22.38-.35l.08-.34c.02-.1.06-.19.14-.26.07-.07.25-.1.53-.1s.57.04.85.12c.27.08.51.19.72.35a1.7 1.7 0 0 1 .69 1.41c0 .28-.04.56-.11.83-.07.27-.11.55-.11.83 0 .21.03.41.08.62.05.21.08.41.08.62 0 .39-.16.7-.47.93.06.07.14.28.23.61.09.33.18.7.26 1.08.08.39.16.76.22 1.12.06.36.09.59.09.7 0 .22-.05.43-.14.63-.09.2-.14.4-.14.61 0 .23.03.46.09.67s.09.44.09.67c0 .4-.02.8-.07 1.19-.05.39-.07.79-.07 1.19v.56c0 .2.04.38.09.57.05.18.14.34.25.48s.27.24.47.3c.33.1.69.17 1.08.23l1.17.14 1.08.12c.34.04.61.1.82.17.08.04.16.1.22.19s.11.2.15.32c.04.12.06.25.07.37l.02.32v.11l-.02.36c-.1-.02-.18-.04-.26-.04a.82.82 0 0 0-.37.07l-.28.17-.22.18c-.06.05-.12.08-.18.08a7.93 7.93 0 0 0-.49-.75c-.13.07-.21.17-.23.3l-.04.37c0 .12-.03.22-.07.31-.04.09-.14.13-.3.13-.23 0-.46-.01-.67-.05a4.87 4.87 0 0 0-.66-.04c-.57 0-1 .13-1.29.38-.29.25-.43.67-.43 1.26 0 .33.06.64.17.93.12.29.24.55.37.78s.26.41.36.56c.11.15.16.24.16.27.16-.1.35-.15.58-.15.17 0 .33.02.48.05.15.03.31.04.46.04.21 0 .39-.05.55-.16s.29-.16.38-.16c.21 0 .41.03.6.1s.39.12.58.17c0 .07.04.13.11.18l.25.16.26.18c.08.07.12.16.12.28 0 .1 0 .19-.02.27s-.02.18-.02.27c0 .16.03.3.1.44s.11.28.12.44l-.09.09Zm-7.22-19.35c0-.07-.05-.18-.15-.32l-.23-.32c-.1-.16-.17-.32-.23-.49a2.76 2.76 0 0 0-.19-.46 1 1 0 0 0-.3-.35.96.96 0 0 0-.56-.14l.04.2c-.24.15-.45.33-.62.54-.17.21-.33.42-.47.63s-.3.4-.46.58c-.16.18-.35.31-.57.38v.16c0 .23-.04.44-.12.62-.08.18-.19.35-.32.5a3.1 3.1 0 0 1-.46.42l-.51.36c-.15.1-.26.21-.34.33l-.22.36-.21.35a.75.75 0 0 1-.33.27 1 1 0 0 0-.31.21.32.32 0 0 0-.09.17l-.03.21c-.01.08-.03.18-.08.3-.08.17-.18.34-.29.5s-.2.33-.27.5a2.66 2.66 0 0 1-.7.93l-.42.36a2.4 2.4 0 0 0-.39.44l-.29.46-.4.71-.36.71c-.1.22-.16.37-.16.46 0 .12.05.22.14.29a1 1 0 0 0 .36.17 5.68 5.68 0 0 0 1.1.12 13.2 13.2 0 0 0 1.77-.08c.24 0 .49.02.74.06.25.04.45.16.61.36l.19.24a.32.32 0 0 0 .44.07l.21-.13.38-.13c.16-.04.4-.06.7-.06.08 0 .22-.03.39-.08.18-.05.36-.12.55-.19l.57-.22.46-.15.59-1.91a6.6 6.6 0 0 0 .24-2.88c-.04-.3-.06-.6-.06-.92 0-.17.02-.34.06-.5l.13-.49.13-.49c.04-.17.06-.33.06-.5s-.03-.33-.09-.49a1.37 1.37 0 0 1-.09-.49c0-.11.02-.22.06-.34.04-.12.09-.22.15-.33l.15-.28a.44.44 0 0 0 .07-.24Zm-8.41 6.22c0-.07-.03-.14-.08-.19s-.11-.08-.17-.08c-.13 0-.21.07-.24.2-.02.13-.04.25-.04.35.08 0 .19-.01.33-.04s.2-.1.2-.24Zm9.41 8.79a.47.47 0 0 0-.26-.2.95.95 0 0 0-.33-.05l-.2.11c.01.08.05.16.11.24.06.07.09.15.09.24.1 0 .22-.02.36-.07.15-.05.22-.13.22-.25Z"/></g></svg>