<svg xmlns="http://www.w3.org/2000/svg" id="Layer_1" data-name="Layer 1" viewBox="0 0 69.62 69.62"><defs><style>.cls-1{stroke:#000;stroke-miterlimit:10;stroke-width:2px;fill:none;stroke-linecap:round}</style></defs><path fill="#fff" stroke="#000" stroke-miterlimit="10" stroke-width="2" d="M39.13 13.52h4.3L34.84 1.7l-8.65 11.82h4.35v5.92h8.59v-5.92zm-8.65 42.57h-4.29l8.59 11.83 8.65-11.83h-4.36v-5.91h-8.59v5.91zm25.61-16.96v4.3l11.83-8.59-11.83-8.65v4.35h-5.91v8.59h5.91zm-42.57-8.65v-4.29L1.7 34.78l11.82 8.65v-4.36h5.92v-8.59h-5.92z"/><path d="M26.19 5.18A19.9 19.9 0 0 0 7.62 17.89" class="cls-1"/><path d="m3.18 15.4 3.09 9.69 6.85-7.52-9.94-2.17z"/><path d="M6.27 44.52a19.9 19.9 0 0 0 12.71 18.57" class="cls-1"/><path d="m16.5 67.53 9.69-3.1-7.53-6.84-2.16 9.94z"/><path d="M43.43 64.43A19.9 19.9 0 0 0 62 51.72" class="cls-1"/><path d="m66.44 54.21-3.1-9.69-6.84 7.53 9.94 2.16z"/><path d="M63.34 25.09A19.9 19.9 0 0 0 50.63 6.52" class="cls-1"/><path d="m53.12 2.09-9.69 3.09 7.52 6.84 2.17-9.93z"/></svg>