<svg xmlns="http://www.w3.org/2000/svg" id="Layer_1" data-name="Layer 1" viewBox="0 0 69.62 69.62"><defs><style>.cls-1{stroke:#000;stroke-miterlimit:10;stroke-width:2px;fill:none;stroke-linecap:round}</style></defs><path fill="#fff" stroke="#000" stroke-miterlimit="10" stroke-width="2" d="M39.13 13.52h4.3L34.84 1.7l-8.65 11.82h4.35v5.92h8.59v-5.92zm-8.65 42.57h-4.29l8.59 11.83 8.65-11.83h-4.36v-5.91h-8.59v5.91zm25.61-16.96v4.3l11.83-8.59-11.83-8.65v4.35h-5.91v8.59h5.91zm-42.57-8.65v-4.29L1.7 34.78l11.82 8.65v-4.36h5.92v-8.59h-5.92z"/><path d="M30.44 23.6v15.1" class="cls-1"/><path d="m25.36 37.21 5.08 8.81 5.09-8.81H25.36z"/><path d="M39.54 46.02v-15.1" class="cls-1"/><path d="m44.63 32.41-5.09-8.81-5.08 8.81h10.17z"/></svg>