<svg xmlns="http://www.w3.org/2000/svg" xml:space="preserve" id="Layer_1" x="0" y="0" version="1.1" viewBox="0 0 72 72"><style>.st0{fill:#fff}.st1{fill:#0f0}.st2{fill:none;stroke:#000;stroke-miterlimit:10}.st3{fill:#ffc42c}</style><path d="M4.9 69.1v-.5a31.1 31.1 0 0 1 62.2 0v.5H4.9z" class="st0"/><path d="M36 38a30.6 30.6 0 0 1 30.6 30.6H5.4A30.6 30.6 0 0 1 36 38m0-1A31.7 31.7 0 0 0 4.4 68.6v1h63.2v-1A31.7 31.7 0 0 0 36 37z"/><path d="M36 38v30.6l-23.1-20A30.4 30.4 0 0 1 36 38z" class="st1"/><path d="M56 68.6a20 20 0 1 0-40 0m20-15.8v-8.4m-4.4 9-2.4-8m-1.7 9.8-4.5-7m1.1 10-6.4-5.5m4 9.3-7.6-3.6m6.3 7.9-8.3-1.2m28.3-11.7 2.4-8m1.7 9.8 4.5-7m-1.1 10 6.4-5.5m-4 9.3 7.6-3.6m-6.3 7.9 8.3-1.2" class="st2"/><path d="m29.5 57.5 5.3 1v-1.7l7.7 3.5-5.1-1.3v2.1z" class="st3"/><path d="M4.9 2.8H67v31.6H4.9z" class="st0"/><path d="M66.6 3.3v30.6H5.4V3.3h61.2m1-1H4.4v32.6h63.2V2.3z"/><path d="M36 33.8H20.6V3.2H36z" class="st1"/><path d="M5.4 18.6h61.2m-5.3 9.3V9.2M10.7 27.9V9.2m4.9 15.7V12.3m5.2 12.6V12.3m5.3 12.6V12.3m5 12.6V12.3m9.8 12.6V12.3m5.2 12.6V12.3m5.3 12.6V12.3m5 12.6V12.3M36 27.9V9.2" class="st2"/><path d="m52.4 29.3 5.3 1v-1.7l7.6 3.5-5.1-1.3v2.1z" class="st3"/><path d="m12.3 6.3-.1.8-.3.7-.5.4-.6.1-.6-.1c-.3-.1-.4-.3-.5-.4l-.4-.7-.1-.8.1-.8.3-.6.5-.4.6-.1.6.1.5.4.3.6.2.8zm-.8 0-.2-.9c-.1-.2-.3-.3-.5-.3s-.4.1-.5.3l-.2.9.2.9c.1.2.3.3.5.3s.4-.1.5-.3.2-.4.2-.9zm23.5 1 .4.2.5.1h.3l.2-.1.1-.2v-.2l-.1-.4-.4-.1h-.3l-.3.1h-.5l-.1-.2.1-1.8.1-.2h2.1l.1.1v.6l-.1.1h-1.5V6l.3-.1h.3l.5.1c.1.1.3-.1.4 0l.2.4.1.5-.1.6-.3.4-.5.2-.6.1-.6-.1a.8.8 0 0 1-.5-.2l-.1-.1v-.3l.2-.2h.1zm24.3.3V5.3l-.6.2h-.2l-.1-.1-.1-.2v-.3l.1-.1 1.3-.5h.2l.1.2v2.9h1c.1 0 0 .1 0 .1V8h-2.7c-.1 0 0-.1 0-.1v-.5h1zm5-1.3-.1.8-.3.6-.5.4-.6.1-.6-.1-.5-.4-.3-.6-.1-.8.1-.8.3-.6.5-.4.6-.1.6.1.5.4.3.6.1.8zm-.9 0a2 2 0 0 0-.2-.9c-.1-.2-.3-.3-.5-.3s-.4.1-.5.3a2 2 0 0 0-.2.9l.2.9c.1.2.3.3.5.3s.4-.1.5-.3c.2-.1.2-.4.2-.9zm-2.1 59.6v-2l-.5.2h-.2l-.1-.1-.1-.1c0-.1-.1-.2 0-.2l.1-.1 1.1-.4h.2l.1.2V66h.9v.4h-2.5V66h1zm4.4-1.1-.1.7-.3.5-.4.4-.6.1-.6-.1a.8.8 0 0 1-.4-.4l-.3-.5v-.7l.1-.7.3-.5.4-.4.6-.1.6.1.4.4.3.5v.7zm-.8 0-.2-.8c-.1-.2-.3-.3-.4-.3l-.4.3-.2.8.2.8c.1.2.3.3.4.3l.4-.3.2-.8zm-54.1 0-.1.8-.3.6-.5.4-.6.1-.6-.1-.5-.4-.3-.6-.1-.8.1-.8.3-.6.5-.4.6-.1.6.1.5.4.3.6.1.8zm-.9 0-.2-.9c-.1-.2-.3-.3-.5-.3s-.4.1-.5.3l-.2.9.2.9c.1.2.3.3.5.3s.4-.1.5-.3l.2-.9zM35 42.3l.4.2.5.1h.3l.2-.1.1-.2v-.2l-.1-.4-.4-.1h-.3l-.3.1h-.5l-.1-.2.1-1.8.1-.2h2.1l.1.1v.6l-.1.1h-1.5v.7l.3-.1h.3l.5.1.4.3.2.4.1.5-.1.6-.3.4-.5.2-.6.1-.6-.1a.8.8 0 0 1-.5-.2l-.1-.1v-.3l.2-.2.1-.3z"/></svg>