<svg xmlns="http://www.w3.org/2000/svg" id="Layer_1" data-name="Layer 1" viewBox="0 0 67.67 67.79"><defs><style>.cls-2{fill:#fff;stroke:#000;stroke-miterlimit:10;stroke-width:2px}</style></defs><path d="M15.38 6.93V1.96L1.7 11.9l13.68 10.02v-5.05h6.85V6.93h-6.85zm44.44 0V1.96L46.14 11.9l13.68 10.02v-5.05h6.85V6.93h-6.85z" class="cls-2"/><path fill="#fff" d="M46.45 66.79c-1.5 0-2.87-.88-3.48-2.25l-4-8.92-7.56 7.56V28.75l24.22 23.57h-9.79l4.08 9.1a3.77 3.77 0 0 1-1.91 5.03 3.8 3.8 0 0 1-1.56.33Z"/><path d="m32.41 31.12 20.76 20.2H44.3l4.72 10.51a2.8 2.8 0 0 1-2.56 3.96c-1.07 0-2.1-.62-2.57-1.66l-4.6-10.24-6.88 6.88V31.12m-2-4.74V65.6l3.41-3.41 4.83-4.83 3.41 7.6a4.8 4.8 0 1 0 8.77-3.94l-3.45-7.69h10.7l-3.53-3.43-20.76-20.2-3.39-3.3Zm36.16 17.96c0 .09-.02.18-.05.26a2.72 2.72 0 0 1-.34.62.86.86 0 0 1-.22.21.54.54 0 0 1-.24.09l-.3.02H65a.46.46 0 0 1-.19.04c-.07 0-.12-.03-.14-.09a.66.66 0 0 1-.03-.21v-.21c0-.07-.01-.12-.03-.17s-.07-.07-.14-.07a.4.4 0 0 0-.29.11l-.2.23a1.5 1.5 0 0 1-.21.23.46.46 0 0 1-.32.11c-.17 0-.33-.03-.49-.08a2.84 2.84 0 0 0-.49-.1 34.8 34.8 0 0 0-1.02-.05c-.34 0-.68-.02-1.01-.03-.34-.01-.67-.04-1.01-.07a8.33 8.33 0 0 1-1.22-.2l-.21-.01c-.34 0-.67.04-1 .11s-.69.11-1.1.11c-.27 0-.55.03-.82.09-.27.06-.55.09-.82.09-.13 0-.29-.03-.46-.08a2.45 2.45 0 0 1-.5-.22c-.16-.09-.3-.2-.41-.34a.64.64 0 0 1-.17-.42c0-.11.05-.22.16-.34s.23-.24.37-.35c.14-.11.28-.22.43-.31l.34-.23 1.51.22c.51.08 1.01.12 1.53.12.31 0 .57-.04.75-.12a.94.94 0 0 0 .42-.32c.09-.14.16-.3.19-.48.03-.19.04-.39.04-.6v-.77c0-1.29.04-2.58.11-3.86a70.76 70.76 0 0 0 .07-5.76c-.03-.63-.09-1.26-.18-1.89l-.33-.07c-.1-.03-.23-.04-.37-.04l-.06.01a.23.23 0 0 0-.12-.06h-.13c-.19 0-.37.03-.55.08-.17.05-.35.08-.53.08-.05 0-.09 0-.12-.02l-.09-.06-.1-.06c-.04-.02-.08-.02-.14-.02-.27 0-.55.03-.82.09-.27.06-.55.09-.83.09a1.96 1.96 0 0 1-1.12-.36 1 1 0 0 0 .09-.45c0-.13-.01-.26-.04-.39s-.04-.26-.05-.39a.4.4 0 0 0 .19.04c.12 0 .24-.03.35-.09l.33-.21.33-.21a.8.8 0 0 1 .36-.09c.25 0 .5.04.74.11s.49.11.74.11a.8.8 0 0 0 .36-.08c.1-.05.19-.08.26-.08.08 0 .15.02.19.07.04.05.11.07.21.07.13 0 .27-.02.4-.07l.4-.16.41-.16c.14-.05.29-.07.43-.07.21 0 .41.02.62.07s.4.07.6.07c.11 0 .21-.01.31-.04h.01s-.03.11-.03.2c0 .12.02.22.06.31l.12.29c.04.1.09.22.12.36s.06.32.06.53c0 .37 0 .74.02 1.1.02.36.03.73.03 1.1 0 .19-.01.38-.04.55-.03.18-.08.35-.17.52.07.07.12.14.14.23s.03.18.03.28v.2c0 .09 0 .19.03.29.02.1.07.18.16.25v.14c.01.11 0 .2-.04.29l-.12.24-.12.22a.51.51 0 0 0-.06.25c0 .19.03.38.08.58.05.19.08.4.08.61 0 .27-.02.53-.05.79l-.11.78-.11.78c-.03.26-.05.52-.05.79 0 .07-.01.12-.03.16-.02.04-.05.06-.09.06l-.09-.02c0 .21.02.43.05.65l.11.64.11.64c.03.22.05.43.05.66v.35c-.01.44.13.76.42.97s.65.31 1.07.31c.28 0 .49-.03.64-.08a.87.87 0 0 0 .32-.18l.17-.18c.04-.05.1-.08.19-.08.24 0 .49.03.74.08l.74.12c.12.02.25.02.37.02l.36.03c.12.02.22.06.32.11s.19.14.27.26l.28.41c.1.15.16.3.16.46Z"/><path fill="none" stroke="#000" stroke-linecap="round" stroke-miterlimit="10" stroke-width="2" d="M26.99 11.94h7.59"/><path d="m33.09 17.02 8.81-5.08-8.81-5.09v10.17z"/><path d="M2.25 66.76v-7.98l24.22-24.21v-7.39H2.25v7.39l24.22 24.21v7.98H2.25z" class="cls-2"/><path d="M2.25 27.18v7.39l24.22 24.21v7.98" class="cls-2"/><path d="M2.25 27.18v7.39l24.22 24.21v7.98" class="cls-2"/><path fill="none" stroke="#000" stroke-miterlimit="10" stroke-width="2" d="M2.25 62.48h24.22M2.25 31.12h24.22"/></svg>