<svg xmlns="http://www.w3.org/2000/svg" width="383.867" height="324.747" viewBox="0 0 101.565 85.923"><g fill="none" stroke="#000" stroke-width="2"><path d="M10.071 11.06a4.536 4.536 0 0 1-4.524 4.536A4.536 4.536 0 0 1 1 11.082a4.536 4.536 0 0 1 4.502-4.557 4.536 4.536 0 0 1 4.57 4.49"/><path d="M16.616 1.241h83.94v83.94h-83.94z" stroke-width="1.98282"/><path d="M27.109 1.241v10.493H37.6v10.492H27.11V32.72H16.616M58.586 1.241v10.493H48.094v10.492H37.6" stroke-width="1.98282"/><path d="M27.109 32.719h20.985V43.21h10.492V22.226H48.094M58.586 11.734H69.08v10.492H79.57V32.72H58.586M79.571 1.241v10.493h10.493v10.492H79.57M90.064 22.226V32.72h10.492M79.571 32.719V43.21h10.493v10.493h10.492M79.571 43.211v20.985h10.493V74.69h10.492M79.571 64.196V74.69H69.08V85.18M58.586 43.211H69.08v20.985H79.57M69.079 64.196H58.586V74.69H48.094V85.18M48.094 43.211H37.6v10.493h20.985v10.492" stroke-width="1.98282"/><path d="M48.094 53.704v10.492H37.6v20.985M27.109 85.181V53.704H37.6M16.616 43.211H27.11v10.493" stroke-width="1.98282"/></g></svg>