<svg xmlns="http://www.w3.org/2000/svg" width="383.867" height="324.747" viewBox="0 0 101.565 85.923"><g stroke-width="2"><path d="M10.071 11.06a4.536 4.536 0 0 1-4.524 4.536A4.536 4.536 0 0 1 1 11.082a4.536 4.536 0 0 1 4.502-4.557 4.536 4.536 0 0 1 4.57 4.49" fill="none" stroke="#000"/><g transform="matrix(.98114 0 0 .98114 -97.689 -29.9)" fill="none" stroke="#000"><rect width="84.667" height="84.667" x="116.946" y="32.417" ry="0"/><path d="M116.417 95.917h21.166v21.166M127 106.5h10.583"/><path d="M127 95.917V85.333h21.167v10.584h10.583V106.5h-21.167M158.75 95.917h10.583v21.166M116.417 74.75H127V64.167h10.583v21.166M116.417 53.583h31.75v10.584h-10.584M137.583 32.417v21.166M127 43h10.583M148.167 32.417V43h10.583v21.167h-10.583M179.917 32.417V43h-10.584v10.583H158.75"/><path d="M179.917 43v10.583H190.5V74.75h-10.583V64.167h-10.584V53.583M148.167 64.167V74.75h31.75M158.75 74.75v21.167M190.5 53.583h10.583M179.917 43H190.5M169.333 95.917h10.584V106.5h21.166M169.333 95.917V85.333H190.5V74.75M190.5 85.333v10.584h10.583"/></g></g></svg>