<svg xmlns="http://www.w3.org/2000/svg" width="383.867" height="324.747" viewBox="0 0 101.565 85.923"><g fill="none" stroke="#000" stroke-width="2"><path d="M10.071 11.06a4.536 4.536 0 0 1-4.524 4.536A4.536 4.536 0 0 1 1 11.082a4.536 4.536 0 0 1 4.502-4.557 4.536 4.536 0 0 1 4.57 4.49"/><g transform="matrix(.99141 0 0 .99141 -97.97 -30.519)"><rect width="84.667" height="84.667" x="116.417" y="32.417" ry="0"/><path d="M148.167 32.417v21.166h21.166V32.417M158.75 32.417V43M116.417 43H127v21.167h10.583v-31.75M137.583 64.167h21.167V53.583M127 64.167v21.166h-10.583M169.333 53.583v10.584h10.584V43H190.5V32.417M201.083 53.583H190.5v10.584h-10.583M201.083 85.333H190.5V74.75h-10.583V64.167M148.167 64.167V74.75h31.75M127 85.333v10.584h10.583V74.75h10.584M137.583 95.917h10.584V106.5h-31.75M148.167 106.5h10.583v10.583M148.167 74.75v10.583h10.583V106.5M179.917 74.75v21.167H190.5V106.5h10.583M179.917 95.917h-10.584V106.5h10.584v10.583M158.75 85.333h10.583v10.584"/></g></g></svg>