<svg preserveAspectRatio="xMidYMid" version="1.0" viewBox="0 0 150 150" xmlns="http://www.w3.org/2000/svg">
	<circle cx="75" cy="75" r="60" fill="none" stroke="#488cca" stroke-opacity=".5" stroke-width="10"/>
	<path d="m69.9921 25.7162c-4.67112.310622-7.30338.98091-12.4614 3.2043-1.99322.850122-5.24932 2.1907-7.2121 2.94273-4.80807 1.86373-7.2121 2.84464-10.1182 4.10347-1.33896.588547-3.39303 1.43867-4.56462 1.88008-2.58662.98091-4.945 2.17435-5.81228 2.92638-.83685.735683-3.08873 3.79285-3.52997 4.82281-.1978.441409-.4869.964561-.62383 1.17709-.15216.196182-.47168 1.19344-.69991 2.20705l-.44125 1.83103v18.2286c0 14.6156.0609 19.5038.25866 24.6862.15216 3.54763.30431 7.30778.34996 8.35408.0609 1.50406.16737 2.1907.53254 3.38414.24344.81743.45646 1.6512.45646 1.84738 0 .6049.91292 2.2234 1.84106 3.23701 2.03886 2.25609 4.07773 3.43318 7.66856 4.41409 1.33896.35967 2.81485.75203 3.27131.85012 1.33896.29427 11.5181 2.87734 14.7589 3.74381 3.6517.98091 12.857 3.33509 13.9982 3.58032.45646.0981 2.48011.40871 4.48854.68664 4.57983.65394 8.50541.73568 10.9551.24522 2.0693-.40871 4.06251-1.12805 5.24932-1.88007.54775-.35967 1.15637-.68664 1.36938-.75204.42603-.13078 5.55362-3.00812 8.14024-4.57757 6.25353-3.77651 13.0092-8.01077 14.8198-9.2696 5.28708-3.77086 10.1144-9.9476 11.4876-13.7327.76078-1.78199 1.01943-3.15526 1.15637-6.26147.1978-4.02173.18259-18.2286-.0152-31.0621l-.16737-11.117-.51733-2.158c-.28909-1.19344-.74556-2.74655-1.03465-3.44953-1.62804-4.16887-4.45811-6.80098-8.45976-7.84728-3.31695-.882819-4.10815-1.06265-5.09715-1.19344-.57819-.08175-1.74978-.343319-2.58663-.555849-.83684-.228879-3.19523-.65394-5.24931-.98091-2.05408-.310622-5.23409-.817425-7.07516-1.1444-1.84108-.326969-5.29497-.915515-7.68379-1.30788-2.38881-.392365-4.57983-.801077-4.86892-.915516-.66948-.228879-9.75307-.343319-12.5831-.147137z" fill="#2859ae"/>
	<path d="m73.9025 31.1112c2.19102.245227 3.62127.506803 3.91036.735682.36517.294273.33474 1.30788-.0456 1.71659-.48689.539501-3.07351 1.1444-4.85371 1.1444-1.76499 0-2.78442-.163485-4.32118-.65394-1.17158-.392363-1.6889-.817424-1.6889-1.38962 0-1.30788 3.08872-1.97817 6.99908-1.55311zm45.1593 5.36231c.44125.310621 2.61705 3.41684 2.61705 3.7438 0 .539501-.53254.604895-1.5824.212531-1.12594-.408713-2.38882-.425061-3.4539-.01634-.45646.163485-2.22144.98091-3.94079 1.81468-1.71933.833772-4.00165 1.92912-5.09715 2.45227-1.0803.506804-2.76921 1.32423-3.72778 1.79833-.95857.474107-2.95179 1.43867-4.41247 2.158s-3.18001 1.56946-3.80384 1.88008-2.0693.899168-3.19524 1.29153c-1.12594.408713-2.44968.964562-2.92135 1.24249-1.24766.719334-2.49533 2.10896-3.59084 3.98903-2.13015 3.71111-2.26709 4.56123-2.46489 16.0052-.15215 7.92902-.0304 16.2341.30431 21.0896.0761 1.16074.21301 4.59393.30431 7.60205.0761 3.00812.22823 6.65384.31952 8.09251.15215 2.53402.13694 2.6648-.22823 4.2506-.33474 1.45502-.42603 1.66754-.92814 2.10896-.30431.26158-.71512.81742-.91292 1.22615-.80642 1.73293-3.49955 3.82554-5.44712 4.26694-.82163.17984-1.62804.0327-1.62804-.31062 0-.21253.53254-.70298 1.82584-1.6839 1.78021-1.35692 3.13438-3.38413 4.06251-6.09799.25867-.76837.27388-1.53675.22824-13.4058-.0609-15.8253-.25867-25.3892-.56297-27.1222-.12173-.702985-.22824-1.71659-.22824-2.27244-.0152-1.96182-.34995-3.33509-1.41503-5.67293-1.62804-3.58032-3.21044-5.59119-5.934-7.48761-2.4649-1.71659-3.34739-1.99452-10.453-3.36779-2.55619-.506804-5.32539-1.06265-6.16223-1.24249-2.57141-.572198-10.0726-2.09261-12.4766-2.51767-1.24766-.228879-2.79963-.572197-3.42346-.75203-2.28231-.686638-3.62127-.850122-5.70578-.76838-2.84527.114439-4.24509.621243-6.07094 2.14165-.50211.408713-1.03465.752031-1.17158.752031-.38039 0-.63905-.588546-.53254-1.20979.18258-.997259.85206-1.88008 1.84106-2.40323 1.88671-.997259 6.63391-1.76564 9.75307-1.56946.83684.04905 4.91457.686637 9.05316 1.40597 7.25774 1.27518 9.50962 1.6512 14.8959 2.55037 1.3846.21253 4.01687.702985 5.85793 1.079 4.03208.801077 5.50797.931865 10.5899.948213l3.87993.01635 2.20623-.572197c3.98644-1.0463 7.69899-2.48497 13.4352-5.21517 1.08029-.523151 3.33217-1.55311 5.02108-2.30514s4.22988-1.97817 5.64491-2.7302c1.43026-.75203 3.60606-1.83103 4.86893-2.41958 2.25188-1.0463 2.64748-1.32423 3.77342-2.7629.27388-.359666.65426-.441409.989-.21253zm-38.921 5.50944c1.74977.376015 2.49533 1.19344 1.91714 2.1253-.53254.86647-1.08029.98091-4.42768.964562-2.73877 0-3.25609-.04905-5.09715-.457758-2.31274-.523152-2.89093-.76838-2.89093-1.24249 0-.588546.92814-.98091 3.72777-1.55311 1.46068-.294273 5.02108-.212531 6.77085.163485zm-48.7501 1.30788c.57819.653941.83685 1.66755.50211 1.91278-.12172.08174-.62383.114439-1.11072.08174-.74555-.04905-.95857-.130788-1.26288-.506804-.45646-.572197-.44125-1.16074.0304-1.6512.54775-.604894 1.21723-.539501 1.84106.163485zm85.967 10.1361c1.30853 1.48771 2.02366 4.9209 1.43025 6.86637-.24344.850121-1.2933 2.7302-1.85628 3.38414-.42603.490455-.45645.506803-1.4911.425061-1.20202-.09809-1.65849-.359668-2.20624-1.24249-.92813-1.52041-1.12593-5.18247-.38038-7.30778.3956-1.12805 1.2933-2.20705 1.84106-2.20705.1978-.01635.57819-.11444.82164-.245227.79119-.392365 1.27808-.310622 1.84105.326969zm-78.4962 3.71111c2.2671.76838 2.70834 1.38962 2.69313 3.89094-.0152 1.50406-.30431 2.82829-.92814 4.16887-.85206 1.79834-1.55197 2.40323-2.78442 2.40323-.83684 0-1.41503-.294272-2.06929-1.0463-.63905-.719334-.86728-1.24249-1.36939-3.08986-.36517-1.38962-.3956-1.6185-.22823-2.45228.0913-.490455.16737-1.1117.16737-1.38962 0-.621243.60862-1.99452 1.12594-2.55037.68469-.719334 1.12594-.702985 3.39303.06539zm30.2634 5.73832c.66947.376015 1.56718 1.50406 1.978 2.50132 1.17158 2.84464.65426 6.39226-1.11073 7.5857-3.18001 2.17435-6.75563-.490455-6.78606-5.06803-.0152-1.78199.34995-3.15526 1.00421-3.8092.57819-.572198 2.02365-1.37327 2.81485-1.55311.66948-.163485 1.44547-.0327 2.09973.343318zm38.708 9.62926c1.43025 1.06265 2.1758 4.46314 1.61283 7.34047-.41081 2.01087-.86728 2.68115-2.5714 3.64572-1.3846.784728-1.76499.76838-2.63227-.09809-2.35839-2.33784-2.51054-7.1116-.30431-9.89084 1.04987-1.30788 2.84528-1.76564 3.89515-.997258zm-68.1802.752031c1.32374 1.14439 2.08451 3.56397 1.96279 6.26147-.15215 3.31874-1.47589 4.69202-3.956 4.07078-1.65848-.42506-2.38882-1.25883-2.78442-3.237-.47168-2.45227-.22823-5.03534.5934-6.22878 1.03465-1.50406 2.98222-1.91277 4.18423-.86647zm29.5787 6.89906c1.91714.637591 2.5714 1.92912 2.5714 5.08438 0 3.54762-.44125 4.51218-2.32796 5.19882-2.22145.801077-3.65169.179834-4.91457-2.14165-.94336-1.74929-1.12594-4.56123-.41082-6.17973.2891-.686637 1.41503-1.79834 2.14537-2.158.45647-.228879 1.97801-.11444 2.93658.196182zm-29.2896 10.3159c.51732.277925.83684.637592 1.39981 1.56946 1.01943 1.6512 1.12594 2.09261 1.01943 4.03808-.13693 2.68116-.989 4.88819-2.22144 5.77101-.66948.47411-1.06508.47411-2.0693-.049-1.91714-.96456-3.27131-3.62937-3.27131-6.44131 0-2.09261.73034-3.54762 2.38882-4.72472.86728-.621243 1.76499-.670289 2.75399-.163486zm56.4491 4.9536c1.55196.588546 2.08451 1.42232 2.40403 3.72745.22823 1.63485.22823 1.71659-.0913 3.02448-.63904 2.53401-1.7802 3.97268-3.14959 3.97268-.7912 0-1.32374-.26158-1.96278-1.01361-1.23245-1.38962-1.71934-3.72746-1.21724-5.85276.6847-2.92638.98901-3.62936 1.68891-3.93999.4869-.21253 1.65848-.163484 2.32796.08175zm-26.5813 3.38414c1.03465.245224 1.85628 1.02996 2.20623 2.14166.34996 1.14439.22823 3.76015-.22823 5.05168-.66948 1.88008-1.5824 2.8283-2.99743 3.10622-.83685.16348-.91293.14714-1.8715-.37602-.989-.52315-1.01943-.57219-1.71934-2.07626-.66947-1.38962-.73033-1.6185-.73033-2.6975 0-2.35419 1.39981-4.36505 3.57561-5.10074.77599-.261568.82164-.261568 1.76499-.04904zm18.5932 18.2122c.45647.42506 1.04986.81743 1.39982.91551.92814.24524.989.27793 1.09551.57221.24344.68663-1.15637 1.12804-2.19102.70298-.89771-.35967-1.71934-1.52041-1.71934-2.43593 0-.71933.47168-.63759 1.41503.24523z" fill="#fff"/>
</svg>
