<?xml version="1.0" encoding="UTF-8" standalone="no"?>
<!-- Created with Inkscape (http://www.inkscape.org/) -->

<svg
   width="399.99985mm"
   height="424.99985mm"
   viewBox="0 0 399.99985 424.99985"
   version="1.1"
   id="svg402"
   inkscape:version="1.1 (c68e22c387, 2021-05-23)"
   sodipodi:docname="time-mode-Assigned.svg"
   xmlns:inkscape="http://www.inkscape.org/namespaces/inkscape"
   xmlns:sodipodi="http://sodipodi.sourceforge.net/DTD/sodipodi-0.dtd"
   xmlns="http://www.w3.org/2000/svg"
   xmlns:svg="http://www.w3.org/2000/svg">
  <sodipodi:namedview
     id="namedview404"
     pagecolor="#ffffff"
     bordercolor="#666666"
     borderopacity="1.0"
     inkscape:pageshadow="2"
     inkscape:pageopacity="0.0"
     inkscape:pagecheckerboard="0"
     inkscape:document-units="mm"
     showgrid="false"
     inkscape:snap-page="true"
     inkscape:object-paths="true"
     inkscape:snap-intersection-paths="true"
     inkscape:zoom="0.37838683"
     inkscape:cx="297.31479"
     inkscape:cy="854.94519"
     inkscape:window-width="1920"
     inkscape:window-height="1017"
     inkscape:window-x="-8"
     inkscape:window-y="3"
     inkscape:window-maximized="1"
     inkscape:current-layer="layer1"
     inkscape:snap-bbox="true"
     inkscape:bbox-nodes="true"
     inkscape:bbox-paths="false"
     inkscape:snap-bbox-edge-midpoints="true"
     inkscape:snap-bbox-midpoints="true"
     inkscape:snap-object-midpoints="false"
     fit-margin-top="0"
     fit-margin-left="0"
     fit-margin-right="0"
     fit-margin-bottom="0" />
  <defs
     id="defs399" />
  <g
     inkscape:label="Layer 1"
     inkscape:groupmode="layer"
     id="layer1"
     transform="translate(0,25)">
    <path
       id="path598"
       style="fill:#2972bd;stroke-width:0.499997;fill-opacity:1"
       d="M 755.90625,0 A 755.90551,755.90551 0 0 0 0,755.90625 755.90551,755.90551 0 0 0 755.90625,1511.8105 755.90551,755.90551 0 0 0 1511.8105,755.90625 755.90551,755.90551 0 0 0 755.90625,0 Z m 0,188.97656 A 566.92913,566.92913 0 0 1 1322.834,755.90625 566.92913,566.92913 0 0 1 755.90625,1322.834 566.92913,566.92913 0 0 1 188.97656,755.90625 566.92913,566.92913 0 0 1 755.90625,188.97656 Z"
       transform="scale(0.26458333)" />
    <path
       id="path1513"
       style="fill:#2972bd;stroke-width:0.197799;fill-opacity:1"
       d="M 199.99972,99.999928 A 100.00011,100.00011 0 0 0 99.999928,199.99972 100.00011,100.00011 0 0 0 199.99972,299.99993 100.00011,100.00011 0 0 0 299.99993,199.99972 H 199.99972 Z" />
    <rect
       style="fill:#2972bd;stroke-width:0.264583;fill-opacity:1"
       id="rect2299"
       width="225"
       height="50"
       x="87.499931"
       y="-25" />
  </g>
</svg>
