<svg xmlns="http://www.w3.org/2000/svg" width="868.898" height="438.065" viewBox="0 0 229.896 115.905"><g transform="translate(10.245 -32.71)" fill="none" stroke="#000" stroke-dasharray="3.00000008,1.00000003"><rect ry="0" y="61.899" x="103.565" height="54.429" width="54.429"/><rect width="54.429" height="54.429" x="147.411" y="50.56" ry="0"/><rect width="54.429" height="54.429" x="86.179" y="89.869" ry="0"/><rect ry="0" y="78.53" x="130.024" height="54.429" width="54.429"/><path d="M86.179 89.869l17.386-27.97M140.607 89.869l17.387-27.97M140.607 144.298l17.387-27.97M103.565 116.327l-17.386 27.97M147.41 50.56l-43.845 11.339M157.994 61.899l43.845-11.34M86.179 89.869l43.845-11.34 17.387-27.97M184.452 78.53l17.387-27.97M184.452 132.958l17.387-27.97M147.41 104.988l-17.386 27.97M140.607 89.869l43.845-11.34M140.607 144.298l43.845-11.34M86.179 144.298l43.845-11.34M103.565 116.327l43.846-11.339M157.994 116.327l43.845-11.339"/></g><path d="M16.822 61.695H75.03" stroke="#000"/><path d="M45.548 89.665v-55.94" fill="none" stroke="#000"/><path d="M18.364 68.347l54.368-14.06" fill="none" stroke="#000" stroke-width="1.24"/><path d="M30.71 84.578l28.92-46.522" fill="none" stroke="#000" stroke-width="1.663"/><g aria-label="+X" style="line-height:1.25;-inkscape-font-specification:'Gill Sans Nova Medium'" font-weight="500" font-size="14.111" font-family="Gill Sans Nova" letter-spacing="0" word-spacing="0" stroke-width=".265"><path d="M76.777 63.784h1.24v2.625h2.626v1.247h-2.625v2.618h-1.24v-2.618h-2.626v-1.247h2.625zM86.313 65.947l3.005-3.672h1.667l-3.838 4.644 4.107 4.981h-1.668l-3.273-3.982L83 71.9h-1.681l4.148-4.981-3.852-4.644h1.682z"/></g><g aria-label="-X" style="line-height:1.25;-inkscape-font-specification:'Gill Sans Nova Medium'" font-weight="500" font-size="14.111" font-family="Gill Sans Nova" letter-spacing="0" word-spacing="0" stroke-width=".265"><path d="M2.192 58.562v-1.344h3.432v1.344zM11.225 55.061l3.004-3.672h1.668l-3.838 4.644 4.107 4.982h-1.668l-3.273-3.983-3.314 3.983H6.23l4.148-4.982-3.852-4.644h1.681z"/></g><g aria-label="+Z" style="line-height:1.25;-inkscape-font-specification:'Gill Sans Nova Medium'" font-weight="500" font-size="14.111" font-family="Gill Sans Nova" letter-spacing="0" word-spacing="0" stroke-width=".265"><path d="M29.757 29.69h1.24v2.625h2.626v1.247h-2.626v2.619h-1.24v-2.619h-2.625v-1.247h2.625zM43.131 36.594v1.213h-8.689l6.167-8.413h-5.774V28.18h8.296l-6.153 8.413z"/></g><g aria-label="-Z" style="line-height:1.25;-inkscape-font-specification:'Gill Sans Nova Medium'" font-weight="500" font-size="14.111" font-family="Gill Sans Nova" letter-spacing="0" word-spacing="0" stroke-width=".265"><path d="M47.474 92.806v-1.343h3.431v1.343zM60.345 94.047v1.212h-8.689l6.167-8.413h-5.774v-1.212h8.296l-6.153 8.413z"/></g><g aria-label="+V" style="line-height:1.25;-inkscape-font-specification:'Gill Sans Nova Medium'" font-weight="500" font-size="14.111" font-family="Gill Sans Nova" letter-spacing="0" word-spacing="0" stroke-width=".265"><path d="M51.075 29.841h1.24v2.626h2.625v1.247h-2.625v2.618h-1.24v-2.618H48.45v-1.247h2.625zM62.74 28.332h1.371l-4.065 9.681h-.31l-4.148-9.68h1.385l2.921 6.759z"/></g><g aria-label="-V" style="line-height:1.25;-inkscape-font-specification:'Gill Sans Nova Medium'" font-weight="500" font-size="14.111" font-family="Gill Sans Nova" letter-spacing="0" word-spacing="0" stroke-width=".265"><path d="M27.743 92.806v-1.343h3.432v1.343zM38.906 85.634h1.37l-4.065 9.68h-.31l-4.147-9.68h1.384l2.922 6.759z"/></g><g aria-label="+W" style="line-height:1.25;-inkscape-font-specification:'Gill Sans Nova Medium'" font-weight="500" font-size="14.111" font-family="Gill Sans Nova" letter-spacing="0" word-spacing="0" stroke-width=".265"><path d="M75.643 47.077h1.24v2.625h2.626v1.247h-2.625v2.619h-1.24v-2.619h-2.626v-1.247h2.625zM86.86 45.568h1.31l2.68 6.635 2.625-6.635h1.371l-3.893 9.68h-.296l-3.149-7.84-3.176 7.84h-.296l-3.88-9.68h1.385l2.653 6.635z"/></g><g aria-label="-W" style="line-height:1.25;-inkscape-font-specification:'Gill Sans Nova Medium'" font-weight="500" font-size="14.111" font-family="Gill Sans Nova" letter-spacing="0" word-spacing="0" stroke-width=".265"><path d="M0 75.268v-1.343h3.431v1.343zM10.714 68.096h1.31l2.68 6.635 2.625-6.635H18.7l-3.893 9.68h-.296l-3.15-7.84-3.175 7.84h-.297l-3.879-9.68h1.385l2.653 6.635z"/></g><path d="M118.044 29.226a3.78 3.78 0 01-3.77 3.78 3.78 3.78 0 01-3.79-3.761 3.78 3.78 0 013.752-3.798 3.78 3.78 0 013.808 3.742" fill="#ff0" stroke="#000"/><path d="M171.943 29.226a3.78 3.78 0 01-3.77 3.78 3.78 3.78 0 01-3.789-3.761 3.78 3.78 0 013.752-3.798 3.78 3.78 0 013.807 3.742" fill="red" stroke="#000"/><path d="M118.044 83.277a3.78 3.78 0 01-3.77 3.78 3.78 3.78 0 01-3.79-3.762 3.78 3.78 0 013.752-3.798 3.78 3.78 0 013.808 3.743" fill="#08a" stroke="#000"/><path d="M171.943 83.277a3.78 3.78 0 01-3.77 3.78 3.78 3.78 0 01-3.789-3.762 3.78 3.78 0 013.752-3.798 3.78 3.78 0 013.807 3.743" fill="olive" stroke="#000"/><path d="M161.89 17.887a3.78 3.78 0 01-3.771 3.78 3.78 3.78 0 01-3.79-3.761 3.78 3.78 0 013.753-3.799 3.78 3.78 0 013.807 3.743" fill="purple" stroke="#000"/><path d="M215.789 17.887a3.78 3.78 0 01-3.77 3.78 3.78 3.78 0 01-3.79-3.761 3.78 3.78 0 013.752-3.799 3.78 3.78 0 013.808 3.743" fill="#803300" stroke="#000"/><path d="M161.89 71.938a3.78 3.78 0 01-3.771 3.78 3.78 3.78 0 01-3.79-3.762 3.78 3.78 0 013.753-3.798 3.78 3.78 0 013.807 3.742" fill="teal" stroke="#000"/><path d="M215.789 71.938a3.78 3.78 0 01-3.77 3.78 3.78 3.78 0 01-3.79-3.762 3.78 3.78 0 013.752-3.798 3.78 3.78 0 013.808 3.742" fill="navy" stroke="#000"/><path d="M144.125 46.235a3.78 3.78 0 01-3.77 3.78 3.78 3.78 0 01-3.79-3.761 3.78 3.78 0 013.752-3.799 3.78 3.78 0 013.807 3.743" fill="#0ff" stroke="#000"/><path d="M198.553 46.235a3.78 3.78 0 01-3.77 3.78 3.78 3.78 0 01-3.79-3.761 3.78 3.78 0 013.752-3.799 3.78 3.78 0 013.808 3.743" fill="#005" stroke="#000"/><path d="M144.125 100.286a3.78 3.78 0 01-3.77 3.78 3.78 3.78 0 01-3.79-3.762 3.78 3.78 0 013.752-3.798 3.78 3.78 0 013.807 3.743" fill="#cf0" stroke="#000"/><path d="M198.553 100.286a3.78 3.78 0 01-3.77 3.78 3.78 3.78 0 01-3.79-3.762 3.78 3.78 0 013.752-3.798 3.78 3.78 0 013.808 3.743" fill="#b380ff" stroke="#000"/><path d="M100.28 57.574a3.78 3.78 0 01-3.771 3.78 3.78 3.78 0 01-3.79-3.761 3.78 3.78 0 013.753-3.798 3.78 3.78 0 013.807 3.742" fill="#fff" stroke="#000"/><path d="M154.708 57.574a3.78 3.78 0 01-3.77 3.78 3.78 3.78 0 01-3.79-3.761 3.78 3.78 0 013.752-3.798 3.78 3.78 0 013.808 3.742" fill="#f0f" stroke="#000"/><path d="M100.28 111.625a3.78 3.78 0 01-3.771 3.78 3.78 3.78 0 01-3.79-3.761 3.78 3.78 0 013.753-3.799 3.78 3.78 0 013.807 3.743" fill="maroon" stroke="#000"/><path d="M154.708 111.625a3.78 3.78 0 01-3.77 3.78 3.78 3.78 0 01-3.79-3.761 3.78 3.78 0 013.752-3.799 3.78 3.78 0 013.808 3.743" fill="#f06" stroke="#000"/><path d="M24.04 82.717l40.782-40.78" fill="none" stroke="#000" stroke-width="1.776"/><g aria-label="-U" style="line-height:1.25;-inkscape-font-specification:'Gill Sans Nova Medium'" font-weight="500" font-size="14.111" font-family="Gill Sans Nova" letter-spacing="0" word-spacing="0" stroke-width=".265"><path d="M8.427 87.75v-1.344h3.431v1.343zM17.515 89.1q1.399 0 2.067-.703.675-.71.675-2.26v-5.56h1.378v5.56q0 2.005-1.04 3.1-1.034 1.09-3.08 1.09-2.033 0-3.094-1.034-1.054-1.04-1.054-3.142v-5.574h1.385v5.574q0 1.57.675 2.26.676.689 2.088.689z"/></g><g aria-label="+U" style="line-height:1.25;-inkscape-font-specification:'Gill Sans Nova Medium'" font-weight="500" font-size="14.111" font-family="Gill Sans Nova" letter-spacing="0" word-spacing="0" stroke-width=".265"><path d="M66.305 34.839h1.24v2.625h2.626v1.247h-2.625v2.618h-1.24v-2.618H63.68v-1.247h2.625zM75.897 41.853q1.398 0 2.067-.703.675-.71.675-2.26v-5.56h1.378v5.56q0 2.005-1.04 3.1-1.034 1.09-3.08 1.09-2.033 0-3.094-1.034-1.054-1.04-1.054-3.142V33.33h1.385v5.574q0 1.57.675 2.26.675.689 2.088.689z"/></g><g transform="translate(23.852 -46.317)" fill="none" stroke="#000" stroke-dasharray="3.00000008,1.00000003"><rect width="54.429" height="54.429" x="103.565" y="61.899" ry="0"/><rect ry="0" y="50.56" x="147.411" height="54.429" width="54.429"/><rect ry="0" y="89.869" x="86.179" height="54.429" width="54.429"/><rect width="54.429" height="54.429" x="130.024" y="78.53" ry="0"/><path d="M86.179 89.869l17.386-27.97M140.607 89.869l17.387-27.97M140.607 144.298l17.387-27.97M103.565 116.327l-17.386 27.97M147.41 50.56l-43.845 11.339M157.994 61.899l43.845-11.34M86.179 89.869l43.845-11.34 17.387-27.97M184.452 78.53l17.387-27.97M184.452 132.958l17.387-27.97M147.41 104.988l-17.386 27.97M140.607 89.869l43.845-11.34M140.607 144.298l43.845-11.34M86.179 144.298l43.845-11.34M103.565 116.327l43.846-11.339M157.994 116.327l43.845-11.339"/></g><path d="M131.651 15.619a3.78 3.78 0 01-3.77 3.78 3.78 3.78 0 01-3.79-3.761 3.78 3.78 0 013.753-3.799 3.78 3.78 0 013.807 3.743" fill="#67536c" stroke="#000"/><path d="M185.55 15.619a3.78 3.78 0 01-3.77 3.78 3.78 3.78 0 01-3.789-3.761 3.78 3.78 0 013.752-3.799 3.78 3.78 0 013.807 3.743" fill="red" stroke="#000"/><path d="M131.651 69.67a3.78 3.78 0 01-3.77 3.78 3.78 3.78 0 01-3.79-3.762 3.78 3.78 0 013.753-3.798 3.78 3.78 0 013.807 3.742" fill="#00f" stroke="#000"/><path d="M185.55 69.67a3.78 3.78 0 01-3.77 3.78 3.78 3.78 0 01-3.789-3.762 3.78 3.78 0 013.752-3.798 3.78 3.78 0 013.807 3.742" fill="#06f" stroke="#000"/><path d="M175.497 4.28a3.78 3.78 0 01-3.77 3.78 3.78 3.78 0 01-3.79-3.762A3.78 3.78 0 01171.69.5a3.78 3.78 0 013.807 3.743" fill="#5aa02c" stroke="#000"/><path d="M229.396 4.28a3.78 3.78 0 01-3.77 3.78 3.78 3.78 0 01-3.79-3.762A3.78 3.78 0 01225.588.5a3.78 3.78 0 013.808 3.743" fill="#999" stroke="#000"/><path d="M175.497 58.33a3.78 3.78 0 01-3.77 3.78 3.78 3.78 0 01-3.79-3.761 3.78 3.78 0 013.752-3.798 3.78 3.78 0 013.807 3.742" stroke="#000"/><path d="M229.396 58.33a3.78 3.78 0 01-3.77 3.78 3.78 3.78 0 01-3.79-3.761 3.78 3.78 0 013.752-3.798 3.78 3.78 0 013.808 3.742" fill="#f55" stroke="#000"/><path d="M157.732 32.628a3.78 3.78 0 01-3.77 3.78 3.78 3.78 0 01-3.79-3.761 3.78 3.78 0 013.752-3.799 3.78 3.78 0 013.807 3.743" fill="#a08" stroke="#000"/><path d="M212.16 32.628a3.78 3.78 0 01-3.77 3.78 3.78 3.78 0 01-3.79-3.761 3.78 3.78 0 013.753-3.799 3.78 3.78 0 013.807 3.743" fill="#0f0" stroke="#000"/><path d="M157.732 86.679a3.78 3.78 0 01-3.77 3.78 3.78 3.78 0 01-3.79-3.762 3.78 3.78 0 013.752-3.798 3.78 3.78 0 013.807 3.742" fill="#7137c8" stroke="#000"/><path d="M212.16 86.679a3.78 3.78 0 01-3.77 3.78 3.78 3.78 0 01-3.79-3.762 3.78 3.78 0 013.753-3.798 3.78 3.78 0 013.807 3.742" fill="#f60" stroke="#000"/><path d="M113.886 43.967a3.78 3.78 0 01-3.77 3.78 3.78 3.78 0 01-3.79-3.761 3.78 3.78 0 013.753-3.798 3.78 3.78 0 013.807 3.742" fill="green" stroke="#000"/><path d="M168.315 43.967a3.78 3.78 0 01-3.77 3.78 3.78 3.78 0 01-3.79-3.761 3.78 3.78 0 013.752-3.798 3.78 3.78 0 013.808 3.742" fill="#fc0" stroke="#000"/><path d="M113.886 98.018a3.78 3.78 0 01-3.77 3.78 3.78 3.78 0 01-3.79-3.762 3.78 3.78 0 013.753-3.798 3.78 3.78 0 013.807 3.743" fill="#6f0" stroke="#000"/><path d="M168.315 98.018a3.78 3.78 0 01-3.77 3.78 3.78 3.78 0 01-3.79-3.762 3.78 3.78 0 013.752-3.798 3.78 3.78 0 013.808 3.743" fill="#0f6" stroke="#000"/><path d="M99.71 55.429l7.56-8.316M99.71 109.101l7.56-8.315M117.097 26.324l7.56-8.315M117.097 79.997l7.56-8.315M143.555 44.09l7.56-8.316M143.555 97.762l7.56-8.316M160.942 14.985l7.56-8.315M160.942 68.658l7.56-8.316M153.76 55.807l7.56-8.316M153.76 109.48l7.56-8.316M171.148 26.702l7.56-8.315M171.148 80.375l7.56-8.315M197.606 44.467l7.56-8.315M197.606 98.14l7.56-8.316M214.993 15.363l7.56-8.315M214.993 69.036l7.56-8.316" fill="none" stroke="#000" stroke-dasharray="3,1"/></svg>