<?xml version="1.0" encoding="UTF-8" standalone="no"?>
<!-- Created with Inkscape (http://www.inkscape.org/) -->
<svg
   xmlns:svg="http://www.w3.org/2000/svg"
   xmlns="http://www.w3.org/2000/svg"
   version="1.0"
   width="85"
   height="85"
   id="svg2">
  <defs
     id="defs4" />
  <g
     id="layer1">
    <rect
       width="7.999999"
       height="40.128311"
       x="341.81232"
       y="-28.205818"
       transform="matrix(0.9455186,0.3255682,-0.3255682,0.9455186,0,0)"
       id="rect3308"
       style="fill:#000000;stroke:none" />
    <rect
       width="8"
       height="40.128311"
       x="341.00226"
       y="85.530334"
       id="rect3312"
       style="fill:#000000;stroke:none" />
    <path
       d="M 42.5,5.5 C 26.49677,5.500001 13.5,17.155631 13.5,31.5 C 13.5,44.480269 24.14905,55.28612 38.03125,57.21875 L 38.03125,79.5 L 46.03125,79.5 L 46.03125,57.3125 C 60.37693,55.75174 71.5,44.776086 71.5,31.5 C 71.50001,17.155628 58.50324,5.5 42.5,5.5 z M 46.03125,13.78125 C 55.94526,15.220116 63.5,22.599771 63.5,31.5 C 63.50001,40.400612 55.94589,47.811589 46.03125,49.25 L 46.03125,13.78125 z M 38.03125,13.9375 L 38.03125,49.09375 C 28.59499,47.329255 21.5,40.109488 21.5,31.5 C 21.5,22.890746 28.59538,15.702244 38.03125,13.9375 z"
       id="path3352"
       style="fill:#000000;stroke:none" />
  </g>
</svg>
