<svg width="662.286" height="728.278" viewBox="0 0 175.23 192.69" xmlns="http://www.w3.org/2000/svg"><path style="color:#000;font-style:normal;font-variant:normal;font-weight:400;font-stretch:normal;font-size:medium;line-height:normal;font-family:sans-serif;font-variant-ligatures:normal;font-variant-position:normal;font-variant-caps:normal;font-variant-numeric:normal;font-variant-alternates:normal;font-feature-settings:normal;text-indent:0;text-align:start;text-decoration:none;text-decoration-line:none;text-decoration-style:solid;text-decoration-color:#000;letter-spacing:normal;word-spacing:normal;text-transform:none;writing-mode:lr-tb;direction:ltr;text-orientation:mixed;dominant-baseline:auto;baseline-shift:baseline;text-anchor:start;white-space:normal;shape-padding:0;clip-rule:nonzero;display:inline;overflow:visible;visibility:visible;isolation:auto;mix-blend-mode:normal;color-interpolation:sRGB;color-interpolation-filters:linearRGB;solid-color:#000;solid-opacity:1;vector-effect:none;fill:#0f0;fill-opacity:1;fill-rule:nonzero;stroke:none;stroke-width:2.2;stroke-linecap:butt;stroke-linejoin:miter;stroke-miterlimit:4;stroke-dasharray:none;stroke-dashoffset:0;stroke-opacity:1;color-rendering:auto;image-rendering:auto;shape-rendering:auto;text-rendering:auto;enable-background:accumulate" d="m46.996 121.166-1.125 1.89 99.043 58.94 1.125-1.89z" transform="translate(-9.903 -57.722)"/><path style="color:#000;font-style:normal;font-variant:normal;font-weight:400;font-stretch:normal;font-size:medium;line-height:normal;font-family:sans-serif;font-variant-ligatures:normal;font-variant-position:normal;font-variant-caps:normal;font-variant-numeric:normal;font-variant-alternates:normal;font-feature-settings:normal;text-indent:0;text-align:start;text-decoration:none;text-decoration-line:none;text-decoration-style:solid;text-decoration-color:#000;letter-spacing:normal;word-spacing:normal;text-transform:none;writing-mode:lr-tb;direction:ltr;text-orientation:mixed;dominant-baseline:auto;baseline-shift:baseline;text-anchor:start;white-space:normal;shape-padding:0;clip-rule:nonzero;display:inline;overflow:visible;visibility:visible;isolation:auto;mix-blend-mode:normal;color-interpolation:sRGB;color-interpolation-filters:linearRGB;solid-color:#000;solid-opacity:1;vector-effect:none;fill:red;fill-opacity:1;fill-rule:nonzero;stroke:none;stroke-width:2.2;stroke-linecap:butt;stroke-linejoin:miter;stroke-miterlimit:4;stroke-dasharray:none;stroke-dashoffset:0;stroke-opacity:1;color-rendering:auto;image-rendering:auto;shape-rendering:auto;text-rendering:auto;enable-background:accumulate" d="m147.355 125.025-98.033 54.27 1.067 1.926 98.03-54.27z" transform="translate(-9.903 -57.722)"/><path style="color:#000;font-style:normal;font-variant:normal;font-weight:400;font-stretch:normal;font-size:medium;line-height:normal;font-family:sans-serif;font-variant-ligatures:normal;font-variant-position:normal;font-variant-caps:normal;font-variant-numeric:normal;font-variant-alternates:normal;font-feature-settings:normal;text-indent:0;text-align:start;text-decoration:none;text-decoration-line:none;text-decoration-style:solid;text-decoration-color:#000;letter-spacing:normal;word-spacing:normal;text-transform:none;writing-mode:lr-tb;direction:ltr;text-orientation:mixed;dominant-baseline:auto;baseline-shift:baseline;text-anchor:start;white-space:normal;shape-padding:0;clip-rule:nonzero;display:inline;overflow:visible;visibility:visible;opacity:.98999999;isolation:auto;mix-blend-mode:normal;color-interpolation:sRGB;color-interpolation-filters:linearRGB;solid-color:#000;solid-opacity:1;vector-effect:none;fill:#000;fill-opacity:1;fill-rule:nonzero;stroke:none;stroke-width:.79400003;stroke-linecap:round;stroke-linejoin:miter;stroke-miterlimit:4;stroke-dasharray:none;stroke-dashoffset:0;stroke-opacity:1;color-rendering:auto;image-rendering:auto;shape-rendering:auto;text-rendering:auto;enable-background:accumulate" d="M99.03 205.773c-12.323 0-22.32 9.998-22.32 22.32 0 12.323 9.997 22.32 22.32 22.32 12.322 0 22.32-9.997 22.32-22.32 0-12.322-9.998-22.32-22.32-22.32zm0 .793c11.892 0 21.527 9.635 21.527 21.528 0 11.893-9.635 21.525-21.528 21.525-11.893 0-21.525-9.632-21.525-21.525 0-11.893 9.632-21.528 21.525-21.528zm0-148.843c-12.323 0-22.32 9.998-22.32 22.32 0 12.322 9.997 22.318 22.32 22.318 12.322 0 22.32-9.996 22.32-22.318 0-12.322-9.998-22.32-22.32-22.32zm0 .793c11.892 0 21.527 9.634 21.527 21.527s-9.635 21.525-21.528 21.525c-11.893 0-21.525-9.632-21.525-21.525 0-11.893 9.632-21.527 21.525-21.527zM30.71 95.707c-11.486 0-20.808 9.321-20.808 20.809 0 11.487 9.322 20.808 20.809 20.808 11.487 0 20.809-9.321 20.809-20.808 0-11.488-9.322-20.809-20.81-20.809zm0 .795c11.06 0 20.015 8.956 20.015 20.014s-8.956 20.013-20.014 20.013-20.014-8.955-20.014-20.013c0-11.058 8.956-20.014 20.014-20.014zm0 73.102c-11.486 0-20.808 9.319-20.808 20.806s9.322 20.809 20.809 20.809c11.487 0 20.809-9.322 20.809-20.809 0-11.487-9.322-20.806-20.81-20.806zm0 .792c11.06 0 20.015 8.956 20.015 20.014s-8.956 20.016-20.014 20.016-20.014-8.958-20.014-20.016c0-11.058 8.956-20.014 20.014-20.014zm133.614-74.689c-11.487 0-20.806 9.321-20.806 20.809 0 11.487 9.319 20.808 20.806 20.808s20.809-9.321 20.809-20.808c0-11.488-9.322-20.809-20.809-20.809zm0 .795c11.058 0 20.016 8.956 20.016 20.014s-8.958 20.013-20.016 20.013c-11.058 0-20.013-8.955-20.013-20.013 0-11.058 8.955-20.014 20.013-20.014zm0 73.102c-11.487 0-20.806 9.319-20.806 20.806s9.319 20.809 20.806 20.809 20.809-9.322 20.809-20.809c0-11.487-9.322-20.806-20.809-20.806zm0 .792c11.058 0 20.016 8.956 20.016 20.014s-8.958 20.016-20.016 20.016c-11.058 0-20.013-8.958-20.013-20.016 0-11.058 8.955-20.014 20.013-20.014z" transform="translate(-9.903 -57.722)"/><path style="color:#000;font-style:normal;font-variant:normal;font-weight:400;font-stretch:normal;font-size:medium;line-height:normal;font-family:sans-serif;font-variant-ligatures:normal;font-variant-position:normal;font-variant-caps:normal;font-variant-numeric:normal;font-variant-alternates:normal;font-feature-settings:normal;text-indent:0;text-align:start;text-decoration:none;text-decoration-line:none;text-decoration-style:solid;text-decoration-color:#000;letter-spacing:normal;word-spacing:normal;text-transform:none;writing-mode:lr-tb;direction:ltr;text-orientation:mixed;dominant-baseline:auto;baseline-shift:baseline;text-anchor:start;white-space:normal;shape-padding:0;clip-rule:nonzero;display:inline;overflow:visible;visibility:visible;isolation:auto;mix-blend-mode:normal;color-interpolation:sRGB;color-interpolation-filters:linearRGB;solid-color:#000;solid-opacity:1;vector-effect:none;fill:red;fill-opacity:1;fill-rule:nonzero;stroke:none;stroke-width:2.2;stroke-linecap:butt;stroke-linejoin:miter;stroke-miterlimit:4;stroke-dasharray:none;stroke-dashoffset:0;stroke-opacity:1;color-rendering:auto;image-rendering:auto;shape-rendering:auto;text-rendering:auto;enable-background:accumulate" d="m76.375 85.58-31.75 17.387 1.057 1.93 31.75-17.387z" transform="translate(-9.903 -57.722)"/><path d="m69.185 90.77-1.746 5.973 11.394-11.256-15.621 3.538ZM57.555 175.996l1.718-5.98-11.342 11.308 15.605-3.61z" style="fill:red;fill-rule:evenodd;stroke:red;stroke-width:1.17304" transform="translate(-9.903 -57.722)"/><path style="color:#000;font-style:normal;font-variant:normal;font-weight:400;font-stretch:normal;font-size:medium;line-height:normal;font-family:sans-serif;font-variant-ligatures:normal;font-variant-position:normal;font-variant-caps:normal;font-variant-numeric:normal;font-variant-alternates:normal;font-feature-settings:normal;text-indent:0;text-align:start;text-decoration:none;text-decoration-line:none;text-decoration-style:solid;text-decoration-color:#000;letter-spacing:normal;word-spacing:normal;text-transform:none;writing-mode:lr-tb;direction:ltr;text-orientation:mixed;dominant-baseline:auto;baseline-shift:baseline;text-anchor:start;white-space:normal;shape-padding:0;clip-rule:nonzero;display:inline;overflow:visible;visibility:visible;isolation:auto;mix-blend-mode:normal;color-interpolation:sRGB;color-interpolation-filters:linearRGB;solid-color:#000;solid-opacity:1;vector-effect:none;fill:red;fill-opacity:1;fill-rule:nonzero;stroke:none;stroke-width:2.2;stroke-linecap:butt;stroke-linejoin:miter;stroke-miterlimit:4;stroke-dasharray:none;stroke-dashoffset:0;stroke-opacity:1;color-rendering:auto;image-rendering:auto;shape-rendering:auto;text-rendering:auto;enable-background:accumulate" d="M94.826 99.555 93.354 206.31l2.199.029 1.474-106.754z" transform="translate(-9.903 -57.722)"/><path d="m94.574 197.526-4.338-4.46 4.187 15.459 4.612-15.338z" style="fill:red;fill-rule:evenodd;stroke:red;stroke-width:1.17304" transform="translate(-9.903 -57.722)"/><path style="color:#000;font-style:normal;font-variant:normal;font-weight:400;font-stretch:normal;font-size:medium;line-height:normal;font-family:sans-serif;font-variant-ligatures:normal;font-variant-position:normal;font-variant-caps:normal;font-variant-numeric:normal;font-variant-alternates:normal;font-feature-settings:normal;text-indent:0;text-align:start;text-decoration:none;text-decoration-line:none;text-decoration-style:solid;text-decoration-color:#000;letter-spacing:normal;word-spacing:normal;text-transform:none;writing-mode:lr-tb;direction:ltr;text-orientation:mixed;dominant-baseline:auto;baseline-shift:baseline;text-anchor:start;white-space:normal;shape-padding:0;clip-rule:nonzero;display:inline;overflow:visible;visibility:visible;isolation:auto;mix-blend-mode:normal;color-interpolation:sRGB;color-interpolation-filters:linearRGB;solid-color:#000;solid-opacity:1;vector-effect:none;fill:red;fill-opacity:1;fill-rule:nonzero;stroke:none;stroke-width:2.2;stroke-linecap:butt;stroke-linejoin:miter;stroke-miterlimit:4;stroke-dasharray:none;stroke-dashoffset:0;stroke-opacity:1;color-rendering:auto;image-rendering:auto;shape-rendering:auto;text-rendering:auto;enable-background:accumulate" d="m150.082 202.166-30.99 20.063 1.195 1.847 30.99-20.064z" transform="translate(-9.903 -57.722)"/><path d="m127.076 218.37 1.302-6.085-10.536 12.063 15.319-4.676z" style="fill:red;fill-rule:evenodd;stroke:red;stroke-width:1.17304" transform="translate(-9.903 -57.722)"/><path style="color:#000;font-style:normal;font-variant:normal;font-weight:400;font-stretch:normal;font-size:medium;line-height:normal;font-family:sans-serif;font-variant-ligatures:normal;font-variant-position:normal;font-variant-caps:normal;font-variant-numeric:normal;font-variant-alternates:normal;font-feature-settings:normal;text-indent:0;text-align:start;text-decoration:none;text-decoration-line:none;text-decoration-style:solid;text-decoration-color:#000;letter-spacing:normal;word-spacing:normal;text-transform:none;writing-mode:lr-tb;direction:ltr;text-orientation:mixed;dominant-baseline:auto;baseline-shift:baseline;text-anchor:start;white-space:normal;shape-padding:0;clip-rule:nonzero;display:inline;overflow:visible;visibility:visible;isolation:auto;mix-blend-mode:normal;color-interpolation:sRGB;color-interpolation-filters:linearRGB;solid-color:#000;solid-opacity:1;vector-effect:none;fill:red;fill-opacity:1;fill-rule:nonzero;stroke:none;stroke-width:2.2;stroke-linecap:butt;stroke-linejoin:miter;stroke-miterlimit:4;stroke-dasharray:none;stroke-dashoffset:0;stroke-opacity:1;color-rendering:auto;image-rendering:auto;shape-rendering:auto;text-rendering:auto;enable-background:accumulate" d="m48.65 198.854-1.33 1.751 28.836 21.881 1.33-1.752z" transform="translate(-9.903 -57.722)"/><path d="m69.81 216.29-6.164.846 14.928 5.804-9.609-12.814z" style="fill:red;fill-rule:evenodd;stroke:red;stroke-width:1.17304" transform="translate(-9.903 -57.722)"/><path style="color:#000;font-style:normal;font-variant:normal;font-weight:400;font-stretch:normal;font-size:medium;line-height:normal;font-family:sans-serif;font-variant-ligatures:normal;font-variant-position:normal;font-variant-caps:normal;font-variant-numeric:normal;font-variant-alternates:normal;font-feature-settings:normal;text-indent:0;text-align:start;text-decoration:none;text-decoration-line:none;text-decoration-style:solid;text-decoration-color:#000;letter-spacing:normal;word-spacing:normal;text-transform:none;writing-mode:lr-tb;direction:ltr;text-orientation:mixed;dominant-baseline:auto;baseline-shift:baseline;text-anchor:start;white-space:normal;shape-padding:0;clip-rule:nonzero;display:inline;overflow:visible;visibility:visible;isolation:auto;mix-blend-mode:normal;color-interpolation:sRGB;color-interpolation-filters:linearRGB;solid-color:#000;solid-opacity:1;vector-effect:none;fill:red;fill-opacity:1;fill-rule:nonzero;stroke:none;stroke-width:2.2;stroke-linecap:butt;stroke-linejoin:miter;stroke-miterlimit:4;stroke-dasharray:none;stroke-dashoffset:0;stroke-opacity:1;color-rendering:auto;image-rendering:auto;shape-rendering:auto;text-rendering:auto;enable-background:accumulate" d="m44.46 130.457-1.937 1.041 44.305 82.453 1.94-1.04z" transform="translate(-9.903 -57.722)"/><path d="m47.657 138.729 5.959 1.793-11.165-11.483 3.413 15.648z" style="fill:red;fill-rule:evenodd;stroke:red;stroke-width:1.17304" transform="translate(-9.903 -57.722)"/><path style="color:#000;font-style:normal;font-variant:normal;font-weight:400;font-stretch:normal;font-size:medium;line-height:normal;font-family:sans-serif;font-variant-ligatures:normal;font-variant-position:normal;font-variant-caps:normal;font-variant-numeric:normal;font-variant-alternates:normal;font-feature-settings:normal;text-indent:0;text-align:start;text-decoration:none;text-decoration-line:none;text-decoration-style:solid;text-decoration-color:#000;letter-spacing:normal;word-spacing:normal;text-transform:none;writing-mode:lr-tb;direction:ltr;text-orientation:mixed;dominant-baseline:auto;baseline-shift:baseline;text-anchor:start;white-space:normal;shape-padding:0;clip-rule:nonzero;display:inline;overflow:visible;visibility:visible;isolation:auto;mix-blend-mode:normal;color-interpolation:sRGB;color-interpolation-filters:linearRGB;solid-color:#000;solid-opacity:1;vector-effect:none;fill:#0f0;fill-opacity:1;fill-rule:nonzero;stroke:none;stroke-width:2.2;stroke-linecap:butt;stroke-linejoin:miter;stroke-miterlimit:4;stroke-dasharray:none;stroke-dashoffset:0;stroke-opacity:1;color-rendering:auto;image-rendering:auto;shape-rendering:auto;text-rendering:auto;enable-background:accumulate" d="m117.63 86.26-1.054 1.93 31.764 17.363 1.056-1.932z" transform="translate(-9.903 -57.722)"/><path d="m141.146 100.366-5.971 1.75 15.623 3.526-11.402-11.247z" style="fill:#0f0;fill-rule:evenodd;stroke:#0f0;stroke-width:1.17304" transform="translate(-9.903 -57.722)"/><path style="color:#000;font-style:normal;font-variant:normal;font-weight:400;font-stretch:normal;font-size:medium;line-height:normal;font-family:sans-serif;font-variant-ligatures:normal;font-variant-position:normal;font-variant-caps:normal;font-variant-numeric:normal;font-variant-alternates:normal;font-feature-settings:normal;text-indent:0;text-align:start;text-decoration:none;text-decoration-line:none;text-decoration-style:solid;text-decoration-color:#000;letter-spacing:normal;word-spacing:normal;text-transform:none;writing-mode:lr-tb;direction:ltr;text-orientation:mixed;dominant-baseline:auto;baseline-shift:baseline;text-anchor:start;white-space:normal;shape-padding:0;clip-rule:nonzero;display:inline;overflow:visible;visibility:visible;isolation:auto;mix-blend-mode:normal;color-interpolation:sRGB;color-interpolation-filters:linearRGB;solid-color:#000;solid-opacity:1;vector-effect:none;fill:#0f0;fill-opacity:1;fill-rule:nonzero;stroke:none;stroke-width:2.2;stroke-linecap:butt;stroke-linejoin:miter;stroke-miterlimit:4;stroke-dasharray:none;stroke-dashoffset:0;stroke-opacity:1;color-rendering:auto;image-rendering:auto;shape-rendering:auto;text-rendering:auto;enable-background:accumulate" d="m144.969 112.104-92.131.845.02 2.201 92.13-.847z" transform="translate(-9.903 -57.722)"/><path d="m61.648 113.97 4.359-4.441-15.359 4.541 15.44 4.258z" style="fill:#0f0;fill-rule:evenodd;stroke:#0f0;stroke-width:1.17304" transform="translate(-9.903 -57.722)"/><path style="color:#000;font-style:normal;font-variant:normal;font-weight:400;font-stretch:normal;font-size:medium;line-height:normal;font-family:sans-serif;font-variant-ligatures:normal;font-variant-position:normal;font-variant-caps:normal;font-variant-numeric:normal;font-variant-alternates:normal;font-feature-settings:normal;text-indent:0;text-align:start;text-decoration:none;text-decoration-line:none;text-decoration-style:solid;text-decoration-color:#000;letter-spacing:normal;word-spacing:normal;text-transform:none;writing-mode:lr-tb;direction:ltr;text-orientation:mixed;dominant-baseline:auto;baseline-shift:baseline;text-anchor:start;white-space:normal;shape-padding:0;clip-rule:nonzero;display:inline;overflow:visible;visibility:visible;isolation:auto;mix-blend-mode:normal;color-interpolation:sRGB;color-interpolation-filters:linearRGB;solid-color:#000;solid-opacity:1;vector-effect:none;fill:#0f0;fill-opacity:1;fill-rule:nonzero;stroke:none;stroke-width:2.2;stroke-linecap:butt;stroke-linejoin:miter;stroke-miterlimit:4;stroke-dasharray:none;stroke-dashoffset:0;stroke-opacity:1;color-rendering:auto;image-rendering:auto;shape-rendering:auto;text-rendering:auto;enable-background:accumulate" d="M100.066 99.629 98.645 206.31l2.2.029 1.423-106.682z" transform="translate(-9.903 -57.722)"/><path d="m101.05 108.443 4.34 4.458-4.194-15.457-4.605 15.34z" style="fill:#0f0;fill-rule:evenodd;stroke:#0f0;stroke-width:1.17304" transform="translate(-9.903 -57.722)"/><path style="color:#000;font-style:normal;font-variant:normal;font-weight:400;font-stretch:normal;font-size:medium;line-height:normal;font-family:sans-serif;font-variant-ligatures:normal;font-variant-position:normal;font-variant-caps:normal;font-variant-numeric:normal;font-variant-alternates:normal;font-feature-settings:normal;text-indent:0;text-align:start;text-decoration:none;text-decoration-line:none;text-decoration-style:solid;text-decoration-color:#000;letter-spacing:normal;word-spacing:normal;text-transform:none;writing-mode:lr-tb;direction:ltr;text-orientation:mixed;dominant-baseline:auto;baseline-shift:baseline;text-anchor:start;white-space:normal;shape-padding:0;clip-rule:nonzero;display:inline;overflow:visible;visibility:visible;isolation:auto;mix-blend-mode:normal;color-interpolation:sRGB;color-interpolation-filters:linearRGB;solid-color:#000;solid-opacity:1;vector-effect:none;fill:#0f0;fill-opacity:1;fill-rule:nonzero;stroke:none;stroke-width:2.2;stroke-linecap:butt;stroke-linejoin:miter;stroke-miterlimit:4;stroke-dasharray:none;stroke-dashoffset:0;stroke-opacity:1;color-rendering:auto;image-rendering:auto;shape-rendering:auto;text-rendering:auto;enable-background:accumulate" d="m32.84 135.715-2.2.053.844 36.189 2.202-.05z" transform="translate(-9.903 -57.722)"/><path d="m31.945 144.539 4.502 4.296-4.758-15.293-4.04 15.498z" style="fill:#0f0;fill-rule:evenodd;stroke:#0f0;stroke-width:1.17304" transform="translate(-9.903 -57.722)"/><path style="color:#000;font-style:normal;font-variant:normal;font-weight:400;font-stretch:normal;font-size:medium;line-height:normal;font-family:sans-serif;font-variant-ligatures:normal;font-variant-position:normal;font-variant-caps:normal;font-variant-numeric:normal;font-variant-alternates:normal;font-feature-settings:normal;text-indent:0;text-align:start;text-decoration:none;text-decoration-line:none;text-decoration-style:solid;text-decoration-color:#000;letter-spacing:normal;word-spacing:normal;text-transform:none;writing-mode:lr-tb;direction:ltr;text-orientation:mixed;dominant-baseline:auto;baseline-shift:baseline;text-anchor:start;white-space:normal;shape-padding:0;clip-rule:nonzero;display:inline;overflow:visible;visibility:visible;isolation:auto;mix-blend-mode:normal;color-interpolation:sRGB;color-interpolation-filters:linearRGB;solid-color:#000;solid-opacity:1;vector-effect:none;fill:#0f0;fill-opacity:1;fill-rule:nonzero;stroke:none;stroke-width:2.2;stroke-linecap:butt;stroke-linejoin:miter;stroke-miterlimit:4;stroke-dasharray:none;stroke-dashoffset:0;stroke-opacity:1;color-rendering:auto;image-rendering:auto;shape-rendering:auto;text-rendering:auto;enable-background:accumulate" d="m144.969 188.455-93.266.846.022 2.199 93.263-.846z" transform="translate(-9.903 -57.722)"/><path d="m60.514 190.32 4.36-4.44-15.36 4.54 15.44 4.26zM137.915 176.55l-6.032 1.532 15.485 4.094-10.984-11.656z" style="fill:#0f0;fill-rule:evenodd;stroke:#0f0;stroke-width:1.17304" transform="translate(-9.903 -57.722)"/><path style="color:#000;font-style:normal;font-variant:normal;font-weight:400;font-stretch:normal;font-size:medium;line-height:normal;font-family:sans-serif;font-variant-ligatures:normal;font-variant-position:normal;font-variant-caps:normal;font-variant-numeric:normal;font-variant-alternates:normal;font-feature-settings:normal;text-indent:0;text-align:start;text-decoration:none;text-decoration-line:none;text-decoration-style:solid;text-decoration-color:#000;letter-spacing:normal;word-spacing:normal;text-transform:none;writing-mode:lr-tb;direction:ltr;text-orientation:mixed;dominant-baseline:auto;baseline-shift:baseline;text-anchor:start;white-space:normal;shape-padding:0;clip-rule:nonzero;display:inline;overflow:visible;visibility:visible;isolation:auto;mix-blend-mode:normal;color-interpolation:sRGB;color-interpolation-filters:linearRGB;solid-color:#000;solid-opacity:1;vector-effect:none;fill:#00f;fill-opacity:1;fill-rule:nonzero;stroke:none;stroke-width:2.2;stroke-linecap:butt;stroke-linejoin:miter;stroke-miterlimit:4;stroke-dasharray:none;stroke-dashoffset:0;stroke-opacity:1;color-rendering:auto;image-rendering:auto;shape-rendering:auto;text-rendering:auto;enable-background:accumulate" d="m80.607 89.813-31.75 17.386 1.057 1.93 31.75-17.387z" transform="translate(-9.903 -57.722)"/><path d="m57.104 103.937 1.746-5.972-11.394 11.256 15.621-3.538Z" style="fill:#00f;fill-rule:evenodd;stroke:#00f;stroke-width:1.17304" transform="translate(-9.903 -57.722)"/><path style="color:#000;font-style:normal;font-variant:normal;font-weight:400;font-stretch:normal;font-size:medium;line-height:normal;font-family:sans-serif;font-variant-ligatures:normal;font-variant-position:normal;font-variant-caps:normal;font-variant-numeric:normal;font-variant-alternates:normal;font-feature-settings:normal;text-indent:0;text-align:start;text-decoration:none;text-decoration-line:none;text-decoration-style:solid;text-decoration-color:#000;letter-spacing:normal;word-spacing:normal;text-transform:none;writing-mode:lr-tb;direction:ltr;text-orientation:mixed;dominant-baseline:auto;baseline-shift:baseline;text-anchor:start;white-space:normal;shape-padding:0;clip-rule:nonzero;display:inline;overflow:visible;visibility:visible;isolation:auto;mix-blend-mode:normal;color-interpolation:sRGB;color-interpolation-filters:linearRGB;solid-color:#000;solid-opacity:1;vector-effect:none;fill:#00f;fill-opacity:1;fill-rule:nonzero;stroke:none;stroke-width:2.2;stroke-linecap:butt;stroke-linejoin:miter;stroke-miterlimit:4;stroke-dasharray:none;stroke-dashoffset:0;stroke-opacity:1;color-rendering:auto;image-rendering:auto;shape-rendering:auto;text-rendering:auto;enable-background:accumulate" d="m164.518 133.078-.817 36.19 2.2.048.816-36.19z" transform="translate(-9.903 -57.722)"/><path d="m164.754 160.984-4.3-4.498 4.052 15.495 4.746-15.297z" style="fill:#00f;fill-rule:evenodd;stroke:#00f;stroke-width:1.17304" transform="translate(-9.903 -57.722)"/><path style="color:#000;font-style:normal;font-variant:normal;font-weight:400;font-stretch:normal;font-size:medium;line-height:normal;font-family:sans-serif;font-variant-ligatures:normal;font-variant-position:normal;font-variant-caps:normal;font-variant-numeric:normal;font-variant-alternates:normal;font-feature-settings:normal;text-indent:0;text-align:start;text-decoration:none;text-decoration-line:none;text-decoration-style:solid;text-decoration-color:#000;letter-spacing:normal;word-spacing:normal;text-transform:none;writing-mode:lr-tb;direction:ltr;text-orientation:mixed;dominant-baseline:auto;baseline-shift:baseline;text-anchor:start;white-space:normal;shape-padding:0;clip-rule:nonzero;display:inline;overflow:visible;visibility:visible;isolation:auto;mix-blend-mode:normal;color-interpolation:sRGB;color-interpolation-filters:linearRGB;solid-color:#000;solid-opacity:1;vector-effect:none;fill:#00f;fill-opacity:1;fill-rule:nonzero;stroke:none;stroke-width:2.2;stroke-linecap:butt;stroke-linejoin:miter;stroke-miterlimit:4;stroke-dasharray:none;stroke-dashoffset:0;stroke-opacity:1;color-rendering:auto;image-rendering:auto;shape-rendering:auto;text-rendering:auto;enable-background:accumulate" d="m111.002 99.736-1.957 1.008 39.687 77.106 1.955-1.006z" transform="translate(-9.903 -57.722)"/><path d="m114.05 108.064 5.926 1.899-10.96-11.68 3.136 15.707z" style="fill:#00f;fill-rule:evenodd;stroke:#00f;stroke-width:1.17304" transform="translate(-9.903 -57.722)"/><path style="color:#000;font-style:normal;font-variant:normal;font-weight:400;font-stretch:normal;font-size:medium;line-height:normal;font-family:sans-serif;font-variant-ligatures:normal;font-variant-position:normal;font-variant-caps:normal;font-variant-numeric:normal;font-variant-alternates:normal;font-feature-settings:normal;text-indent:0;text-align:start;text-decoration:none;text-decoration-line:none;text-decoration-style:solid;text-decoration-color:#000;letter-spacing:normal;word-spacing:normal;text-transform:none;writing-mode:lr-tb;direction:ltr;text-orientation:mixed;dominant-baseline:auto;baseline-shift:baseline;text-anchor:start;white-space:normal;shape-padding:0;clip-rule:nonzero;display:inline;overflow:visible;visibility:visible;isolation:auto;mix-blend-mode:normal;color-interpolation:sRGB;color-interpolation-filters:linearRGB;solid-color:#000;solid-opacity:1;vector-effect:none;fill:#00f;fill-opacity:1;fill-rule:nonzero;stroke:none;stroke-width:2.2;stroke-linecap:butt;stroke-linejoin:miter;stroke-miterlimit:4;stroke-dasharray:none;stroke-dashoffset:0;stroke-opacity:1;color-rendering:auto;image-rendering:auto;shape-rendering:auto;text-rendering:auto;enable-background:accumulate" d="m145.145 195.41-30.32 18.979 1.167 1.865 30.32-18.98z" transform="translate(-9.903 -57.722)"/><path d="m138.269 201.011-1.395 6.064 10.719-11.9-15.388 4.441z" style="fill:#00f;fill-rule:evenodd;stroke:#00f;stroke-width:1.17304" transform="translate(-9.903 -57.722)"/><path style="color:#000;font-style:normal;font-variant:normal;font-weight:400;font-stretch:normal;font-size:medium;line-height:normal;font-family:sans-serif;font-variant-ligatures:normal;font-variant-position:normal;font-variant-caps:normal;font-variant-numeric:normal;font-variant-alternates:normal;font-feature-settings:normal;text-indent:0;text-align:start;text-decoration:none;text-decoration-line:none;text-decoration-style:solid;text-decoration-color:#000;letter-spacing:normal;word-spacing:normal;text-transform:none;writing-mode:lr-tb;direction:ltr;text-orientation:mixed;dominant-baseline:auto;baseline-shift:baseline;text-anchor:start;white-space:normal;shape-padding:0;clip-rule:nonzero;display:inline;overflow:visible;visibility:visible;isolation:auto;mix-blend-mode:normal;color-interpolation:sRGB;color-interpolation-filters:linearRGB;solid-color:#000;solid-opacity:1;vector-effect:none;fill:#00f;fill-opacity:1;fill-rule:nonzero;stroke:none;stroke-width:2.2;stroke-linecap:butt;stroke-linejoin:miter;stroke-miterlimit:4;stroke-dasharray:none;stroke-dashoffset:0;stroke-opacity:1;color-rendering:auto;image-rendering:auto;shape-rendering:auto;text-rendering:auto;enable-background:accumulate" d="m86.055 98.248-45.262 77.803 1.902 1.105 45.26-77.8z" transform="translate(-9.903 -57.722)"/><path d="m82.58 106.408 1.59 6.016L88.112 96.9 76.564 108z" style="fill:#00f;fill-rule:evenodd;stroke:#00f;stroke-width:1.17304" transform="translate(-9.903 -57.722)"/><path style="color:#000;font-style:normal;font-variant:normal;font-weight:400;font-stretch:normal;font-size:medium;line-height:normal;font-family:sans-serif;font-variant-ligatures:normal;font-variant-position:normal;font-variant-caps:normal;font-variant-numeric:normal;font-variant-alternates:normal;font-feature-settings:normal;text-indent:0;text-align:start;text-decoration:none;text-decoration-line:none;text-decoration-style:solid;text-decoration-color:#000;letter-spacing:normal;word-spacing:normal;text-transform:none;writing-mode:lr-tb;direction:ltr;text-orientation:mixed;dominant-baseline:auto;baseline-shift:baseline;text-anchor:start;white-space:normal;shape-padding:0;clip-rule:nonzero;display:inline;overflow:visible;visibility:visible;isolation:auto;mix-blend-mode:normal;color-interpolation:sRGB;color-interpolation-filters:linearRGB;solid-color:#000;solid-opacity:1;vector-effect:none;fill:#00f;fill-opacity:1;fill-rule:nonzero;stroke:none;stroke-width:2.2;stroke-linecap:butt;stroke-linejoin:miter;stroke-miterlimit:4;stroke-dasharray:none;stroke-dashoffset:0;stroke-opacity:1;color-rendering:auto;image-rendering:auto;shape-rendering:auto;text-rendering:auto;enable-background:accumulate" d="m50.742 117.713-.02 2.2 92.13.817.02-2.2z" transform="translate(-9.903 -57.722)"/><path d="m134.062 119.552-4.439 4.36 15.439-4.262-15.36-4.537z" style="fill:#00f;fill-rule:evenodd;stroke:#00f;stroke-width:1.17304" transform="translate(-9.903 -57.722)"/><path d="M100.22 34.761q0 .217-.118.433-.118.197-.295.374-.177.157-.393.275-.217.099-.413.099-.138 0-.276-.02-.137-.02-.275-.02-.177 0-.236.118-.059.099-.118.217-.04.118-.138.216-.098.118-.354.118-.157 0-.334-.04-.177-.039-.354-.039-.374 0-.728.138-.334.157-.728.157-.334 0-1.003-.118-.669-.098-1.357-.334-.669-.216-1.18-.531-.512-.334-.512-.767 0-.335.374-.669.393-.354.865-.767.472-.433.846-.964.394-.531.394-1.24 0-.412-.177-.806-.158-.393-.413-.727-.256-.354-.59-.65-.315-.295-.61-.55-.099-.04-.295-.04-.531 0-1.063.118-.53.099-1.062.099-.275 0-.57-.079-.276-.079-.374-.393-.511.255-1.023.491-.511.217-1.042.394-.335.118-.492.177-.138.059-.216.138-.06.078-.099.236-.02.157-.137.452-.08.197-.08.354v.354q0 .256-.097.413-.099.138-.217.276-.098.118-.197.255-.098.138-.098.354 0 .177.06.315l-.02.098q0 .295.157.473.157.157.374.255.236.079.491.158.256.078.453.196.196.118.373.394.197.255.335.57.157.295.256.61.098.295.098.511v.099h-.256q-.787 0-1.573.078-.768.06-1.535.138-.767.098-1.554.157-.767.079-1.553.079-.276 0-.807-.02-.511-.02-1.023-.118-.511-.078-.905-.275-.373-.216-.373-.61 0-.413.177-.688.196-.276.491-.453.315-.196.689-.314.393-.138.767-.256.393-.118.728-.236.354-.118.59-.315t.393-.63q.158-.452.256-.963.098-.512.177-1.003.079-.512.138-.807.02-.098.02-.236.02-.157.02-.314.019-.158.019-.296.02-.137.059-.196.196-.335.295-.394.118-.059.157-.098.06-.04.06-.197.019-.177.019-.708 0-.236.098-.354.099-.138.197-.236.118-.098.216-.177.099-.098.099-.256 0-.275-.158-.491-.157-.236-.157-.512 0-.157.079-.275.078-.118.177-.217.118-.098.196-.196.079-.118.079-.276 0-.216-.098-.432-.08-.217-.08-.433 0-.157.1-.216.117-.08.235-.118.138-.04.236-.06.118-.039.118-.098-.059-.118-.216-.118-.236 0-.236.256-.138-.099-.236-.217-.098-.137-.098-.295 0-.196.098-.354l.216-.393q.138-.216.236-.492.099-.275.099-.669 0-.413-.118-.786-.118-.394-.118-.787 0-.197.078-.394.099-.196.217-.373.137-.197.255-.374.138-.197.197-.413.118-.374.118-.787.02-.413.02-.826.02-.413.059-.806.059-.414.256-.768.177-.314.275-.511.098-.197.177-.374.079-.196.138-.413.059-.236.118-.61.098-.57.295-1.101.216-.531.295-1.102.04-.432.04-.727.019-.315.097-.551.099-.236.315-.413.236-.177.708-.354.512-.177 1.023-.236.512-.079 1.023-.079.59 0 1.22.059.058.334.255.61.197.255.413.511.236.256.433.531.216.256.295.59.098.453.118.866.04.393.334.787.138.216.138.511 0 .452-.118.866-.118.413-.118.845 0 .256.157.846.158.59.374 1.279.217.668.413 1.318.197.629.295.983.177.748.177 1.534.02.787.256 1.535.236.786.413 1.573.177.767.236 1.593.04.768.197 1.495.157.708.334 1.436.177.708.315 1.436.157.728.157 1.515 0 .295-.059.61-.039.314-.255.55.413.492.924 1.062.531.57 1.043.905.196.118.61.177.412.06.826.158.432.078.747.255.334.158.334.472zM91.98 24.16q0-.177-.138-.452-.138-.295-.315-.65-.157-.353-.295-.766-.138-.413-.138-.866 0-.53-.157-1.042-.157-.531-.216-1.062-.04-.433-.099-.945-.039-.53-.196-.983-.158-.472-.492-.767-.315-.315-.924-.315-.04.157-.138.236-.099.06-.236.118-.118.04-.256.079-.138.04-.216.137.02.06.02.178 0 .354-.158.668-.138.295-.256.61-.137.334-.196.708-.04.354-.04.708 0 .315.02.61t.02.59q0 .453-.08.787-.078.315-.176.59-.098.275-.177.531-.079.236-.079.512 0 .59.04 1.022.039.433.177.728.137.276.393.433.256.138.708.138.315 0 .905-.08.61-.078 1.2-.255.61-.196 1.042-.492.453-.295.453-.708zm73.04 40.536v.373q.02.217 0 .453 0 .216-.04.413-.02.177-.098.256-.177.177-.374.236-.197.039-.413.059-.197 0-.413.039-.197.02-.393.138.039.196.177.255l.314.079q.177.02.295.118.138.079.138.334 0 .413-.138.689-.118.256-.295.472-.177.197-.354.413-.177.216-.275.55-.118.355-.295.512-.177.158-.394.256-.196.079-.413.177-.216.098-.413.354-.216.236-.354.236-.059 0-.138-.02-.078-.02-.196-.02-.099 0-.197.08-.079.058-.079.157 0 .039.04.039.039 0 .02.02-.237.216-.846.511-.61.275-1.397.531-.787.236-1.652.413-.846.158-1.613.158-1.338 0-2.656-.08-1.298-.058-2.655-.058h-2.616q-.06 0-.177.118-.099.118-.236.118-.217 0-.57-.059-.335-.059-.67-.197-.334-.137-.59-.334-.236-.216-.236-.492 0-.098.02-.157.02-.079.04-.177.176-.551.491-.826.315-.295.669-.492l.747-.433q.394-.216.689-.61.315-.393.511-1.062.197-.669.197-1.79 0-1.023-.138-2.026-.118-1.003-.118-2.026.02-1.888.079-3.737.079-1.85.098-3.737l.02-3.089q0-.491-.04-1.14-.02-.65-.196-1.24-.157-.61-.531-1.022-.354-.433-1.023-.492-.334-.02-.767-.177-.433-.158-.826-.413-.374-.276-.65-.61-.275-.334-.275-.728 0-.334.197-.55.197-.237.472-.374.275-.158.59-.217.335-.078.61-.078.63 0 1.24.137.609.118 1.258.118.806 0 1.613-.078.826-.08 1.633-.177.806-.118 1.612-.197.827-.079 1.653-.079.688 0 1.377.06l1.377.078q.118.157.413.256.295.098.629.177.354.078.688.137.335.04.512.079.472.098.806.216.354.099.59.295.256.177.433.472.197.296.354.768.02.059.177.177.177.118.394.236.216.118.413.236.196.118.275.196.256.256.512.787.275.512.491 1.102.217.59.354 1.16.138.57.138.925 0 .728-.216 1.455-.197.728-.413 1.417-.138.413-.413.786-.256.374-.512.767-.256.374-.452.768-.177.393-.177.826 0 .61.255 1.22.256.61.59 1.12.138.237.315.453.197.216.374.433.197.196.354.432.157.217.275.492.256.63.335 1.318.078.669.078 1.338zm-3.718-12.019q0-.216-.06-.511-.058-.295-.137-.59-.079-.315-.157-.61-.079-.315-.118-.55-.06-.296-.177-.473-.118-.196-.276-.314-.157-.138-.354-.256-.196-.138-.393-.315-.492-.433-.944-.688-.453-.256-.945-.394-.491-.137-1.042-.177-.55-.059-1.22-.059-.432 0-.904.02-.453.02-.826.118-.08.04-.099.098-.02.06-.098.118-.06.06-.236.118-.177.04-.551.04-.57 0-.944.157-.354.157-.57.452-.197.276-.276.689-.079.393-.098.905l-.04 1.337q0 .689-.059 1.377-.059.669-.216 1.318-.138.65-.452 1.259 1.101.275 2.242.433 1.14.157 2.242.157.767 0 1.535-.059.786-.059 1.534-.197.275-.059.728-.216.472-.157.904-.393.453-.237.787-.532.354-.295.394-.61.039-.235.157-.432.138-.197.275-.374.158-.196.276-.393.118-.197.118-.453zm.649 13.14q0-.512-.138-1.023-.118-.511-.197-1.023-.059-.472-.118-.747-.039-.276-.157-.472-.098-.217-.295-.413-.197-.197-.57-.512-.099-.433-.217-.511-.098-.079-.216-.079-.098 0-.216.02h-.197l-.276-.551q-.373-.256-.668-.393-.276-.138-.728-.177-.394-.04-.787-.158-.374-.118-.787-.118-.177 0-.275.138-.098.138-.157.138-.118 0-.276-.04-.157-.059-.334-.098-.177-.059-.374-.098-.177-.06-.334-.06-.886 0-1.731.197-.826.177-1.672.394-.158.413-.315.904-.138.492-.256 1.004-.118.511-.196 1.022-.08.492-.08.925 0 .216.04.354.04.118.099.216.059.099.098.197.04.098.04.236 0 .787-.178 1.554-.157.748-.157 1.534 0 .512.138.984.137.472.472.865.393 0 .747.158.354.137.748.137.275 0 .53-.137.276-.138.433-.138.158 0 .236.138.099.137.315.137h.079q.059-.098.216-.157.158-.079.354-.098.217-.04.453-.04.236-.02.452-.02.413 0 .63.02.236.02.53.02.827-.177 1.574-.433.63-.216 1.279-.55.668-.335 1.042-.787.197-.197.433-.492.256-.295.452-.61.217-.334.354-.669.158-.354.158-.688zm2.218 70.196q0 .394-.04.807-.02.393-.118.787-.078.334-.216.629-.118.275-.158.61-.039.196-.078.432-.04.217-.295.217l-.158-.02q-.314 0-.472.256-.157.236-.255.59-.08.334-.138.688-.04.354-.098.57-.06.217-.08.394 0 .158-.019.295 0 .118-.079.256-.078.138-.275.295-.315.236-.61.452-.295.217-.53.512-.178.216-.237.374-.059.157-.118.295-.059.137-.197.255-.118.099-.413.197-.452.157-.865.354-.413.197-.846.354-.511.197-.964.453-.452.236-.924.452-.472.216-.984.354-.491.157-1.062.157-.511 0-1.023-.157-.492-.157-.924-.433-.413-.039-.63-.295-.216-.255-.354-.61-.118-.275-.236-.393-.098-.118-.236-.157-.118-.06-.275-.099-.158-.039-.374-.177-.885-.57-1.613-1.416-.728-.865-1.357-1.73-.138-.198-.216-.453-.06-.276-.118-.531-.06-.276-.138-.512-.06-.255-.197-.393-.256-.256-.452-.275-.197-.02-.335-.08-.118-.078-.196-.334-.06-.275-.06-1.003 0-.452-.078-.944-.079-.492-.197-1.003-.098-.531-.177-1.062-.078-.551-.078-1.082 0-.57.059-1.141.078-.57.177-1.14.098-.571.196-1.122.099-.57.138-1.14.04-.532.04-1.083l.039-1.101q.039-.551.118-1.082.078-.531.275-1.043.197-.55.492-1.042.314-.492.61-.984.295-.491.55-1.003.256-.511.394-1.101.078-.374.491-.689.413-.334 1.023-.61.61-.295 1.318-.51.728-.237 1.436-.394.708-.177 1.298-.256.61-.098.984-.098.983 0 1.849.255.865.236 1.75.63.394.177.846.295.472.098.885.098.413 0 .61-.137.216-.158.334-.355.118-.216.197-.393.079-.197.236-.295l-.059.02q.04-.04.138-.04.098-.02.216-.02.158.02.374.08.236.058.472.137.236.079.433.177.216.079.314.158.06.039.197.255.138.217.276.472.157.256.255.472.118.217.118.276 0 .491.138.924.157.433.157.925 0 .511-.157 1.003-.138.492-.138 1.003 0 .63.02 1.24.04.59.04 1.219 0 .57-.06 1.14-.039.551-.157 1.102-.04.158-.079.374-.04.216-.118.413-.059.197-.177.334-.098.138-.275.138-.177 0-.315-.059-.098.02-.177.04h-.177q-.177 0-.216-.06-.04-.059-.04-.137 0-.099-.039-.197-.02-.118-.197-.216-.118-.08-.314-.099l-.394-.04q-.177-.038-.315-.117-.137-.098-.137-.295 0-.217.079-.217.098-.02.216.06.138.078.295.157.157.059.295 0-.275-.315-.492-.65-.196-.353-.413-.707-.197-.354-.413-.709-.216-.354-.492-.649-.236-.255-.393-.59l-.315-.669q-.137-.354-.314-.649-.158-.314-.414-.511-.904-.688-2.006-1.2-1.082-.531-2.262-.531-.826 0-1.534.256-.689.236-1.377.649-.275.157-.531.275-.236.118-.472.276-.217.137-.394.354-.157.196-.236.55-.098.354-.098.728.02.374-.177.689-.098.157-.315.255-.197.099-.256.295-.157.453-.196.945l-.04 1.003q0 .511-.02 1.042-.019.512-.157.984-.118.393-.177.787-.039.393-.039.786 0 .748.04 1.476.058.708.058 1.435 0 .886.08 1.731.097.846.333 1.692.177.63.492 1.22.315.57.472 1.2.079.334.276.708.216.373.491.688.295.315.65.531.354.197.727.197.276 0 .531-.06.256-.078.531-.078.296 0 .59.06.296.038.59.038.532 0 1.102-.137.59-.138.984-.551.275-.295.63-.413.353-.118.707-.197.374-.079.708-.197.335-.137.59-.472.158-.216.315-.668.177-.453.354-.945.177-.491.354-.885.197-.413.394-.511.177-.099.216-.492.06-.413.06-.964v-.905q0-.393.019-.767.02-.373.078-.668.08-.295.217-.472.138-.178.374-.178.216 0 .334.158.138.138.334.138.197 0 .374-.118.197-.138.413-.138.295 0 .531.256.256.255.453.57.216.315.334.59.138.256.197.275.196.04.216.335.04.275.04.452zm-64.116 35.735q0 .59-.118 1.377-.118.767-.335 1.633-.196.846-.472 1.75-.255.905-.55 1.751-.295.826-.61 1.554-.295.708-.57 1.2-.119.196-.374.413-.236.197-.492.433-.256.216-.452.432-.197.217-.197.413-.158.02-.492.099-.334.059-.708.177-.354.098-.669.236-.295.118-.354.236-.216.413-.275.55-.04.138-.099.178-.059.02-.236.02-.157-.02-.63.078-.176.04-.452.118-.255.079-.55.157-.276.08-.531.118-.256.06-.413.06-.433 0-.846-.138-.394-.138-.826-.138-.276 0-.492.079-.728.275-1.397.393-.649.118-1.436.118l-2.773-.373q-.315.078-.63.098-.314.04-.629.04-.393 0-.787-.04-.373-.04-.767-.098-.059-.296-.197-.551l-.236-.551q-.118-.275-.216-.55-.098-.296-.098-.59 0-.512.255-.729.256-.236.65-.314.393-.099.826-.138.452-.06.845-.236.394-.177.65-.55.255-.375.255-1.122 0-.452-.078-.905-.06-.452-.158-.905-.078-.472-.157-.924-.06-.453-.06-.905 0-.334.06-.65.059-.333.059-.668 0-.61-.098-1.2-.08-.61-.08-1.22 0-.707.08-1.396.078-.708.078-1.416 0-.669-.137-1.298-.119-.65-.119-1.338 0-.374.02-.747.02-.374.02-.748 0-.432-.04-.826-.039-.413-.157-.826-.138-.492-.157-.964-.02-.472-.118-.846-.099-.393-.374-.668-.275-.295-.924-.433-.217-.04-.335-.118-.098-.098-.197-.177-.098-.099-.255-.177-.138-.079-.433-.118-.865-.118-.865-.964 0-.472.177-.826.177-.374.452-.669.275-.295.61-.531.354-.256.688-.512.512-.393.964-.472.452-.098.964-.098h.846q.57 0 1.12-.04.571-.058 1.142-.058.334 0 .668.04.355.038.689.137.177.059.334.137.177.06.354.06.276 0 .472-.158.197-.177.354-.177.04 0 .04.04 0 .039-.02.098v.078q0 .119.158.119.098 0 .137-.119.06-.118.236-.157.138.06.217.138.078.059.137.118.079.059.177.098.118.04.295.04.413 0 .827-.06.413-.078.826-.078.53 0 .983.177.453.177.846.452.413.256.787.59.373.335.747.65.276.236.551.373.295.118.55.256.256.118.492.315.237.177.414.55.196.413.452.807.275.374.531.747.275.354.531.748.256.373.453.806.491 1.121.688 2.36.216 1.22.433 2.42.098.511.216 1.043.118.511.118 1.022 0 .276-.098.531-.098.256-.098.532 0 .177.059.314.059.138.137.276.079.137.138.314.059.177.059.413zm-3.285-1.318q0-.767-.216-1.495-.217-.727-.67-1.357.217-.216.276-.511.06-.295.06-.57 0-.296-.04-.59-.02-.296-.02-.571 0-.158-.118-.276-.098-.118-.236-.216-.118-.118-.256-.216-.137-.118-.196-.276-.079-.196-.118-.334-.02-.157-.04-.295-.02-.138-.078-.295-.06-.158-.197-.374-.098-.157-.157-.295-.06-.157-.06-.374 0-.196.06-.413-.079-.157-.256-.255-.177-.118-.393-.177-.236-.08-.532-.118-.295 0-.629-.178-.315-.177-.669-.393-.354-.216-.728-.393-.354-.177-.727-.177-.57 0-1.121.098t-1.122.177q-.432.06-.944.079-.511 0-.964.098-.432.098-.727.374-.296.256-.296.826 0 .689.08 1.397.098.708.098 1.455 0 1.554-.138 3.108-.118 1.534-.118 3.108 0 .728.078 1.455.08.709.08 1.456 0 .964-.158 1.908-.138.944-.138 1.908v.846q0 .452.079.865.078.413.295.748.216.334.649.491.61.217 1.2.433.61.197 1.278.197.394 0 .768-.177.373-.197.767-.315.255-.079.57-.138.334-.078.65-.157.314-.098.59-.236.294-.157.491-.374.295-.334.57-.59.276-.255.768-.354.236-.04.295-.157.078-.138.098-.295.04-.177.098-.354.06-.197.256-.335.315-.236.472-.55.177-.315.256-.67.078-.353.118-.707.059-.374.157-.728.216-.787.492-1.593.295-.807.295-1.633 0-.216-.098-.374-.099-.177-.099-.393 0-.118.04-.138l.118-.078q.059-.06.098-.158.059-.098.059-.374zm-64.906-43.78q0 .08-.098.315-.098.236-.236.512-.118.275-.256.511t-.216.315l.04.02q-.04 0-.08.02h-.098q-.079.019-.177.019h-.177l.079-.02q-.453-.02-.826-.157-.354-.158-.59-.57-.04-.08-.119-.276-.078-.216-.157-.452-.079-.237-.138-.433-.039-.217-.039-.315 0-.157.02-.334.04-.177.04-.335 0-.61-.119-1.2-.118-.59-.118-1.2 0-.393.098-.767.099-.373.354-.688h-.098q-.236 0-.374-.138-.137-.157-.452-.157-.747 0-1.456.177-.708.177-1.495.177h-.629q-.315-.02-.65-.02-.609 0-1.199.138-.59.138-1.14.138-.06 0-.06-.02 0-.04.138-.098.138-.079.138-.118 0-.08-.138-.08h-.157q-.158 0-.276.158-.098.158-.315.217-.295.078-.629.078h-.65q-.196 0-.57-.02-.373-.019-.747-.078-.374-.079-.688-.216-.295-.158-.335-.433-.216.059-.295.216-.059.138-.118.295-.04.158-.138.295-.098.118-.393.138-.55.04-.708.354-.157.315-.157.708 0 .217.02.433.019.216.019.433 0 .786-.04 1.573-.02.767-.02 1.554v.905q.02.55.08 1.102.078.53.216.963.138.413.393.472.158.04.335.06h.354q.688 0 1.337-.158.67-.157 1.358-.157.275 0 .511.078.256.08.511.08.374 0 .57-.355.217-.374.296-.846.098-.492.118-.983.02-.492.02-.728 0-.492-.04-.964-.02-.492-.02-.983h.119q.491 0 .924.157.433.157.905.157.197 0 .295-.02 0 .394.138.787.137.394.137.807 0 .511-.55.649.157.275.255.55.099.276.099.571 0 .217-.04.433-.04.197-.04.413 0 .197.119.315.138.098.138.236 0 .236-.197.59-.177.354-.177.728 0 .432.079.904.078.473.177.984.098.511.177 1.042.078.512.078 1.043 0 .315-.039.65-.02.333-.138.648-.098.295-.295.551-.177.256-.472.433-.374-.04-.63-.217-.255-.196-.432-.452-.157-.275-.256-.59-.078-.335-.118-.669-.078-.511-.078-.944 0-.433-.197-.728-.177-.315-.708-.492-.512-.177-1.613-.177-.315 0-.905.06-.57.058-1.14.216-.571.137-1.004.413-.413.275-.413.688 0 .236.04.472.058.217.058.453 0 .196-.02.393t-.02.413q0 .531.06 1.062.059.512.059 1.043 0 .57-.157 1.121-.138.55-.138 1.121 0 .63.295 1.003.315.354.787.551.472.177 1.023.236.55.06 1.022.06.945 0 1.889-.119.944-.118 1.888-.118.59 0 1.18.06.59.058 1.18.058.453 0 1.004-.02.55-.039 1.042-.196.512-.158.866-.453.373-.314.472-.885.02-.157.098-.216.098-.079.197-.118.118-.06.196-.118.08-.06.08-.197 0-.157-.119-.354-.118-.216-.157-.393-.079-.374-.099-.748v-.767q0-.59.177-1.023.197-.452.197-.983 0-.158-.02-.295v-.295q0-.118.177-.236t.413-.197q.237-.098.473-.157.236-.06.354-.06.491 0 .806.355.315.334.472.826.177.491.236 1.023.06.53.06.904 0 .61-.1 1.377-.097.767-.275 1.574-.157.806-.373 1.573-.217.748-.433 1.318-.118.276-.236.413-.098.138-.236.236-.118.08-.275.177-.138.08-.315.276-.158.177-.61.236-.433.059-.924.059-.374 0-.709-.02-.334-.02-.51-.02-.65 0-1.063.158-.394.157-.748.157-.255 0-.334-.098-.079-.118-.236-.118-.138 0-.256.118t-.354.118h-.492q-.236-.02-.491-.02-1.476 0-2.931.079-1.456.098-2.93.138-1.004.039-1.988.236-.983.196-1.986.196-.354 0-.807-.078-.452-.06-.865-.236-.394-.178-.669-.473-.275-.314-.275-.767 0-.432.314-.826.315-.393.748-.728.452-.334.924-.61.472-.294.767-.55-.02-.157-.02-.295v-.866q.02-.295.119-.59.04-.177.197-.413.177-.256.177-.433 0-.137-.06-.255-.039-.118-.078-.256-.217-.531-.315-.944-.079-.413-.079-1.003v-.61q.02-.275.04-.512.04-.255.098-.51.079-.276.197-.61-.079-.138-.177-.414-.099-.275-.099-.432l.276-2.794q-.02-.059-.02-.196 0-.177.06-.354.058-.177.058-.374 0-.453-.157-.885-.158-.453-.158-.905 0-.157.08-.374.078-.216.157-.472.098-.256.177-.55.078-.315.078-.67 0-.275-.137-.471-.118-.197-.118-.453 0-.236.118-.472t.118-.511q0-.394-.158-.748-.137-.374-.295-.708-.236-.492-.374-.787-.118-.314-.295-.492-.177-.196-.491-.275-.295-.098-.866-.138-.275-.02-.53-.157-.237-.157-.434-.393-.177-.236-.295-.512-.118-.275-.118-.53 0-.355.315-.59.315-.257.806-.394.492-.158 1.102-.236.61-.099 1.18-.138.59-.06 1.062-.079.492-.02.748-.059.393-.059.767-.078.374-.02.767-.02.767 0 1.534.059.787.04 1.554.04.826 0 1.613-.158.807-.158 1.633-.158.747 0 1.475.177.728.158 1.436.158.688 0 1.357-.158.669-.177 1.357-.177.295 0 .59.06.433.471.787.786.374.315.63.65.275.314.432.747.177.433.236 1.14.02.256.02.63 0 .354.02.708.02.335.098.61.098.275.295.334 0 .276-.275.276.02.275.118.57.098.276.197.57.098.276.177.571.078.275.078.531zm-17.034 4.84q-.118 0-.216.039-.099.039-.138.177.747.432 1.18.826.453.373.689.61.255.235.373.275.118.02.236-.256.158-.354-.059-.669-.196-.314-.57-.53-.354-.217-.787-.335-.413-.138-.708-.138zm17.368-79q0 .846-.492 1.318-.472.472-1.298.472-.275 0-.531-.04-.256-.058-.512-.137-.334-.452-.491-1.082-.138-.649-.256-1.317-.098-.689-.236-1.338-.138-.669-.433-1.18-.275-.531-.787-.846-.491-.334-1.337-.334-.531 0-1.062.118-.512.098-1.062.098h-.65q-.373-.02-.767-.059-.373-.059-.727-.138-.355-.078-.59-.236-.06-.039-.197-.059-.118-.02-.276-.02-.137-.02-.295-.02h-.196q-.59 0-.945.06-.334.059-.61.157-.255.099-.55.236-.275.118-.787.256-.374.098-.55.236-.158.138-.217.334-.059.177-.059.433.02.256 0 .59l-.04.472v.453q0 .708.04 1.416t.04 1.436q0 .452-.099.885-.079.433-.079.885 0 .413.177.57.177.158.394.237.216.078.393.177.197.098.197.393.138.02.256.04h.275q.649 0 1.298-.178.65-.196 1.279-.354.393-.098.57-.57.177-.472.236-1.062.06-.61.06-1.2t.058-.905q.04-.256.177-.492.158-.236.374-.413t.472-.275q.256-.118.511-.118.276 0 .492.118.433.216.61.55.197.315.256.709.059.393.039.806 0 .413.04.807.058.53.058 1.042 0 .944-.098 1.85-.079.904-.079 1.848 0 .511.06 1.003.058.492.216.984.098.354.098.649 0 .334-.079.649-.059.315-.059.649 0 .197.02.374.04.157.04.354 0 .295-.158.63-.138.314-.354.59-.216.255-.511.432-.276.177-.532.177-.354 0-.668-.275-.295-.295-.531-.65-.236-.353-.374-.668-.118-.315-.118-.374 0-.098.078-.138.099-.059.197-.098.099-.059.177-.118.099-.079.099-.216 0-.099-.099-.138-.078-.059-.196-.098-.099-.06-.197-.138-.079-.098-.079-.275 0-.138.04-.197.039-.079.098-.118.059-.04.098-.079.04-.04.04-.098 0-.157-.138-.394-.138-.255-.354-.491-.197-.236-.453-.394-.236-.177-.432-.177-.295 0-.59.118-.276.099-.59.099-.256 0-.492-.099-.217-.098-.433-.098-.197 0-.433.177-.236.157-.472.393-.216.217-.433.453-.196.216-.314.354-.158.157-.177.472-.02.295-.02.511 0 .689.079 1.358.098.649.098 1.337 0 .295-.02.59v1.2q.02.374.099.748.078.373.236.668.157.295.432.374.414.138.925.099h.393q.512 0 .964.098.453.098.689.511.196.335.275.748.098.393.098.787 0 .236-.059.53-.039.296-.177.551-.118.236-.334.413-.197.158-.492.158-.57 0-1.22-.138-.629-.118-1.258-.118-.492 0-.964.118-.767.216-1.534.275-.767.06-1.594.06-.373 0-.885-.02-.511-.02-.983-.138-.453-.098-.787-.295-.315-.216-.315-.59 0-.413.06-.885.058-.472.235-.866.197-.393.531-.649.335-.256.886-.256.157 0 .334.02.177.02.354.02.374 0 .55-.118.178-.138.296-.295.118-.158.236-.295.118-.138.354-.177-.04-.63-.118-1.22-.06-.61-.06-1.239 0-.531.1-1.043.098-.51.353-.983-.196-.216-.295-.747-.098-.532-.137-1.082-.02-.551-.02-.944v-.394q0-.334.098-.649.118-.334.118-.669 0-.157-.04-.275-.019-.138-.019-.295 0-.236.04-.335.039-.098.098-.137.059-.04.098-.079.04-.059.04-.216 0-.492-.138-.964-.118-.492-.118-1.003 0-.453.079-.885.098-.453.098-.905 0-.885-.098-1.75-.08-.886-.08-1.79 0-.453-.078-1.004-.078-.57-.295-1.062-.216-.492-.59-.826-.374-.335-.944-.335-.275 0-.55.04-.257.02-.532.02-.256 0-.492-.04-.236-.059-.452-.216-.04-.374-.177-.728-.138-.354-.138-.728 0-.275.217-.452.236-.177.59-.276.354-.098.786-.137.453-.04.905-.04.57 0 1.062.04.512.02.768.02.275 0 .668-.02.413-.02.807-.08.413-.078.747-.235.335-.158.492-.453.236 0 .413.099.177.079.354.197l.354.196q.177.079.394.079.275 0 .511-.118.256-.138.531-.138.256 0 .453.118.196.099.452.099.531 0 1.042-.119l1.063-.236q.53-.137 1.042-.255.531-.118 1.062-.118.374 0 .689.118.334.098.61.373.806-.334 1.77-.334.118 0 .511.04.394.039.826.098.433.04.787.098.354.06.394.118.118.098.177.334.059.237.098.512l.118.511q.059.236.177.354.079.08.197.118.137.02.255.06.118.039.197.117.098.06.118.217.04.472.06.924.019.433.156.905.119.413.276.866.157.452.295.904.157.453.256.905.098.453.098.885zM11.444 71.472q0-.315-.137-.551-.119-.236-.453-.275 0 .078-.02.157v.138q0 .314.118.55.138.236.473.276v-.138q.02-.079.02-.157zm103.533 53.26q0 .504-.275 1.008-.275.458-.687.871-.413.367-.917.642-.504.229-.963.229-.32 0-.641-.046t-.642-.046q-.412 0-.55.275-.138.23-.275.504-.092.275-.32.505-.23.275-.826.275-.367 0-.779-.092-.413-.092-.825-.092-.87 0-1.696.321-.78.367-1.696.367-.779 0-2.337-.275-1.559-.23-3.163-.78-1.558-.504-2.75-1.237-1.192-.78-1.192-1.788 0-.779.871-1.558.917-.825 2.017-1.787 1.1-1.009 1.97-2.246.918-1.238.918-2.888 0-.962-.413-1.879-.367-.917-.962-1.696-.596-.825-1.376-1.512-.733-.688-1.42-1.284-.23-.091-.688-.091-1.237 0-2.475.275-1.237.229-2.475.229-.642 0-1.33-.184-.64-.183-.87-.916-1.192.596-2.383 1.146-1.192.504-2.43.916-.779.275-1.145.413-.321.137-.505.32-.137.184-.229.55-.046.367-.32 1.055-.184.458-.184.825v.825q0 .596-.23.962-.228.321-.503.642-.23.275-.459.596-.229.32-.229.825 0 .412.138.733l-.046.23q0 .687.367 1.1.366.366.87.595.55.184 1.146.367.596.183 1.054.458.459.275.871.917.459.596.78 1.33.366.687.595 1.42.23.687.23 1.192v.229h-.596q-1.834 0-3.667.183-1.788.138-3.575.321-1.788.23-3.621.367-1.788.183-3.62.183-.643 0-1.88-.046-1.192-.046-2.383-.275-1.192-.183-2.109-.642-.87-.504-.87-1.42 0-.963.412-1.605.458-.641 1.146-1.054.733-.458 1.604-.733.917-.32 1.787-.596.917-.275 1.696-.55.825-.275 1.375-.733.55-.459.917-1.467.367-1.054.596-2.246.229-1.192.412-2.337.184-1.192.321-1.88.046-.229.046-.55.046-.366.046-.733.046-.367.046-.687.045-.321.137-.459.458-.779.688-.916.275-.138.366-.23.138-.091.138-.458.046-.412.046-1.65 0-.55.229-.825.229-.32.458-.55.275-.23.504-.412.23-.23.23-.596 0-.642-.367-1.146-.367-.55-.367-1.192 0-.367.184-.642.183-.275.412-.504.275-.229.458-.458.184-.275.184-.642 0-.504-.23-1.008-.183-.504-.183-1.008 0-.367.23-.505.274-.183.55-.275.32-.091.55-.137.274-.092.274-.23-.137-.274-.504-.274-.55 0-.55.596-.32-.23-.55-.505-.229-.32-.229-.687 0-.458.23-.825.228-.413.503-.917.321-.504.55-1.146.23-.641.23-1.558 0-.963-.275-1.833-.275-.917-.275-1.834 0-.458.183-.916.229-.459.504-.871.32-.459.596-.871.32-.458.458-.963.275-.87.275-1.833.046-.962.046-1.925.046-.963.138-1.88.137-.962.595-1.787.413-.733.642-1.191.23-.459.413-.871.183-.459.32-.963.138-.55.275-1.42.23-1.33.688-2.567.504-1.238.687-2.567.092-1.008.092-1.696.046-.733.23-1.283.228-.55.733-.963.55-.412 1.65-.825 1.191-.412 2.383-.55 1.192-.183 2.383-.183 1.375 0 2.842.137.138.78.596 1.421.458.596.962 1.192.55.596 1.009 1.237.504.596.687 1.375.23 1.055.275 2.017.092.917.78 1.834.32.504.32 1.191 0 1.054-.275 2.017-.275.962-.275 1.97 0 .597.367 1.972t.87 2.979q.505 1.558.963 3.07.459 1.467.688 2.292.412 1.742.412 3.575.046 1.834.596 3.576.55 1.833.963 3.666.412 1.788.55 3.713.091 1.787.458 3.483.367 1.65.78 3.346.412 1.65.733 3.346.366 1.696.366 3.53 0 .687-.137 1.42-.092.733-.596 1.283.962 1.146 2.154 2.475 1.238 1.33 2.43 2.109.458.275 1.42.412.963.138 1.925.367 1.009.183 1.742.596.78.366.78 1.1zm-19.204-24.705q0-.412-.321-1.054-.321-.687-.734-1.512-.366-.825-.687-1.788-.32-.962-.32-2.017 0-1.237-.368-2.429-.366-1.237-.504-2.475-.091-1.008-.229-2.2-.092-1.237-.458-2.292-.367-1.1-1.146-1.787-.733-.734-2.154-.734-.092.367-.321.55-.23.138-.55.276-.275.091-.596.183-.32.092-.504.32.046.138.046.413 0 .825-.367 1.559-.32.687-.596 1.42-.32.78-.458 1.65-.092.825-.092 1.65 0 .734.046 1.421.046.688.046 1.375 0 1.055-.184 1.834-.183.733-.412 1.375-.23.641-.413 1.237-.183.55-.183 1.192 0 1.375.092 2.383.091 1.009.412 1.696.321.642.917 1.008.596.321 1.65.321.733 0 2.108-.183 1.421-.183 2.796-.596 1.421-.458 2.43-1.146 1.054-.687 1.054-1.65z"/></svg>