<svg xmlns="http://www.w3.org/2000/svg" fill="none" viewBox="0 0 348 348"><path stroke="#000" stroke-linejoin="round" stroke-width="2" d="M225 68h110v90H225zm-40 115h30v50h-30zm0-55h30v50h-30zm0-55h30v50h-30zm0-55h30v50h-30zM20 18h155v215H20zm205 160h110v90H225zm55 100h55v55h-55zm-65 0h55v55h-55zm-65 0h55v55h-55zm-65 0h55v55H85zm-65 0h55v55H20zM282.7 40.6c0-8.4 7-15.2 15.6-15.2 4.1 0 8 1.6 11 4.4a15 15 0 0 1 4.6 10.8c0 8.3-7 15.1-15.6 15.1s-15.6-6.8-15.6-15.2zM5.1 5.8H342v337.6H5z"/><path fill="#000" d="M28.7 298.4h8.4v1.6h-6.4v4.3h5.8v1.7h-5.8v7h-2zm15 3.4q2.4 0 3.7 1.5 1.3 1.5 1.3 4.2t-1.3 4.2q-1.3 1.5-3.7 1.5-2.3 0-3.7-1.5-1.3-1.5-1.3-4.2t1.3-4.2q1.4-1.5 3.7-1.5zm0 1.5q-1.4 0-2.3 1.1-.8 1.1-.8 3.1t.8 3q.9 1.2 2.3 1.2 1.5 0 2.3-1.1.8-1.1.8-3.1t-.8-3q-.8-1.2-2.3-1.2zm8-5.5h1.8V313h-1.8zm6.6 9.7q0 2 .8 3.1.9 1.1 2.3 1.1t2.2-1q.9-1.2.9-3.2t-.9-3.1q-.8-1.1-2.2-1.1-1.4 0-2.3 1-.8 1.2-.8 3.2zm6.2-3.8v-6h1.8V313h-1.8v-1.7q-.6 1-1.5 1.5-.8.4-2 .4-2 0-3.3-1.5-1.2-1.6-1.2-4.2t1.2-4.2q1.3-1.5 3.3-1.5 1.2 0 2 .4.9.5 1.5 1.5zm32.3-3.3v1.8q-.8-.8-1.8-1.2-1-.4-2-.4-2.1 0-3.3 1.3-1.1 1.3-1.1 3.8 0 2.4 1.1 3.7 1.2 1.3 3.3 1.3 1 0 2-.4t1.8-1.2v1.8q-.9.6-1.8.9-1 .3-2.1.3-2.8 0-4.5-1.7-1.6-1.8-1.6-4.7 0-3 1.6-4.8 1.7-1.7 4.5-1.7 1 0 2 .3t2 .9zm10.3 5.8v5.6h-1.5v-5.5q0-1.3-.5-2-.6-.7-1.6-.7-1.2 0-2 .8-.7.8-.7 2.2v5.2h-1.5V299h1.5v5q.6-.8 1.3-1.2.8-.4 1.7-.4 1.6 0 2.5 1 .8 1 .8 3zm9.5.2q0-1.3-.7-2-.7-.8-1.8-.8-1.3 0-2 .7-.8.8-1 2zm1.5.4v.8h-7q0 1.5 1 2.4.8.8 2.3.8.9 0 1.7-.2.8-.2 1.7-.7v1.5l-1.7.5-1.8.2q-2.2 0-3.5-1.3-1.3-1.3-1.3-3.5 0-2.3 1.2-3.6 1.3-1.4 3.3-1.4 2 0 3 1.2 1.1 1.2 1.1 3.3zm9.2-3.9v1.4l-1.3-.5q-.6-.2-1.3-.2-1.5 0-2.3 1-.8.9-.8 2.6 0 1.7.8 2.6.8 1 2.3 1 .7 0 1.3-.2l1.3-.5v1.4q-.6.3-1.3.4-.7.2-1.5.2-2 0-3.3-1.3-1.3-1.4-1.3-3.6 0-2.3 1.3-3.6 1.2-1.3 3.4-1.3l1.4.2q.7.1 1.3.4zm2.6-4h1.6v7.7l4.5-4h2l-5 4.3 5.2 5h-2l-4.7-4.6v4.5h-1.6zm158.8-.4h2.2l5.6 14.6h-2l-1.4-3.7h-6.5l-1.4 3.7h-2zm1.1 2l-2.7 7.2h5.4zm8.7-2.6h1.8v15.2h-1.8zm5.6 0h1.8v15.2H304zm4.6 9h5.3v1.5h-5.3zm8.2-8.4h2v14.6h-2zm15 8v6.6H330v-6.5q0-1.6-.6-2.4-.7-.7-1.9-.7-1.4 0-2.3.9-.8 1-.8 2.5v6.2h-1.8v-11h1.8v1.8q.6-1 1.5-1.5t2-.5q2 0 2.9 1.2 1 1.1 1 3.4zm-168.6-18.2h2.6l3.2 8.7 3.3-8.7h2.6v12.8h-1.7v-11.2l-3.3 8.7h-1.7L165 290v11h-1.7zm15-.5h1.6v2h-1.6zm0 3.7h1.6v9.6h-1.6zm12.8 3.8v5.8h-1.5v-5.7q0-1.4-.6-2-.5-.7-1.6-.7-1.2 0-2 .8-.7.8-.7 2.2v5.4h-1.6v-9.6h1.6v1.5q.6-.9 1.3-1.3.8-.4 1.8-.4 1.6 0 2.5 1 .8 1 .8 3zM157 311.6v4.6h2.2q1.2 0 1.9-.6.6-.6.6-1.7t-.6-1.7q-.7-.6-2-.6zm4.3 5.4q.6.2 1.1.8.5.6 1 1.7l1.8 3.5h-1.8l-1.7-3.3q-.6-1.3-1.2-1.7-.6-.4-1.6-.4H157v5.4h-1.7v-12.8h3.9q2.2 0 3.2 1 1.1.8 1.1 2.7 0 1.2-.5 2-.6.8-1.7 1zm13.2.5v5.5h-1.6v-1.5q-.5.9-1.3 1.3t-2 .4q-1.5 0-2.3-.8-.9-.8-.9-2.2 0-1.6 1-2.5 1.2-.8 3.3-.8h2.2v-.1q0-1.1-.7-1.7-.7-.6-2-.6l-1.6.2q-.8.2-1.5.6v-1.5l1.7-.5 1.6-.1q2 0 3 1 1.1 1.1 1.1 3.3zm-3.1.7q-2 0-2.7.4-.7.4-.7 1.5 0 .8.5 1.3.6.5 1.5.5 1.3 0 2.1-1 .8-.9.8-2.4v-.3zm6.3-8.5h1.6v2h-1.6zm0 3.7h1.6v9.6h-1.6zm11 .3v1.5l-1.4-.6-1.5-.1q-1.1 0-1.7.3-.6.4-.6 1.1 0 .6.4.9.4.3 1.7.6h.5q1.7.4 2.4 1.1.7.7.7 1.8 0 1.4-1 2.1-1.1.8-3 .8l-1.6-.1-1.7-.5V321l1.7.7 1.7.2q1.1 0 1.7-.4.6-.4.6-1 0-.7-.4-1-.5-.4-2-.7l-.5-.1q-1.4-.3-2-1-.7-.6-.7-1.7 0-1.4 1-2.1.9-.7 2.6-.7h1.7l1.4.5zm9.6 3.6q0-1.3-.7-2-.7-.8-1.9-.8-1.3 0-2 .7-.8.8-1 2.1zm1.6.5v.8h-7.2q0 1.6 1 2.4.8.9 2.4.9 1 0 1.8-.2l1.6-.7v1.5l-1.7.5-1.8.2q-2.3 0-3.6-1.3-1.4-1.4-1.4-3.6 0-2.4 1.3-3.8 1.3-1.3 3.4-1.3 2 0 3 1.2 1.2 1.2 1.2 3.4zm26-29.7h2.5l3.3 8.6 3.2-8.6h2.6v12.7h-1.7v-11.2l-3.3 8.8h-1.7l-3.3-8.8v11.2h-1.7zm22.5 7.3v5.4h-1.6v-1.4q-.6.8-1.4 1.3-.8.4-2 .4-1.4 0-2.3-.9-.8-.8-.8-2.2 0-1.6 1-2.4 1.1-.8 3.3-.8h2.2v-.2q0-1-.7-1.7-.7-.6-2-.6-.9 0-1.6.2-.8.2-1.5.6v-1.4q.8-.4 1.6-.5l1.6-.2q2.1 0 3.1 1 1 1.2 1 3.4zm-3.2.6q-1.9 0-2.6.4-.8.5-.8 1.5 0 .9.6 1.4.5.4 1.5.4 1.3 0 2-.9.9-.9.9-2.4v-.4zm14.4-4.8L256 296l3.6 5h-1.8l-2.8-4-2.8 3.7h-1.8l3.7-5-3.4-4.6h1.8l2.6 3.5 2.5-3.5zM222 311.4v4.5h2.2q1.2 0 1.9-.6.6-.6.6-1.7t-.6-1.7q-.7-.5-2-.5zm4.3 5.3q.6.2 1.1.8.5.6 1 1.7l1.8 3.5h-1.8l-1.7-3.3q-.6-1.3-1.2-1.7-.6-.4-1.6-.4H222v5.4h-1.7v-12.8h3.9q2.2 0 3.2 1 1.1.9 1.1 2.7 0 1.2-.5 2-.6.8-1.7 1.1zm13.2.5v5.5h-1.6v-1.5q-.5 1-1.3 1.3-.8.4-2 .4-1.5 0-2.3-.8-.9-.8-.9-2.2 0-1.6 1-2.4 1.2-.8 3.3-.8h2.2v-.2q0-1-.7-1.7-.7-.6-2-.6l-1.6.2q-.8.2-1.5.6v-1.4q.9-.4 1.7-.5l1.6-.2q2 0 3 1 1.1 1.1 1.1 3.3zm-3.1.7q-2 0-2.7.4-.7.5-.7 1.5 0 .8.5 1.3.6.5 1.5.5 1.3 0 2.1-.9.8-1 .8-2.5v-.3zm6.3-8.5h1.6v2h-1.6zm0 3.7h1.6v9.6h-1.6zm11 .3v1.5q-.7-.4-1.4-.5-.7-.2-1.5-.2-1.1 0-1.7.4-.6.3-.6 1 0 .6.4 1l1.7.5.5.1q1.7.4 2.4 1 .7.7.7 1.9 0 1.3-1 2-1.1.8-3 .8l-1.6-.1-1.7-.5v-1.6q.9.5 1.7.7l1.7.2q1.1 0 1.7-.4.6-.3.6-1t-.4-1q-.5-.4-2-.7l-.5-.1q-1.4-.3-2-1-.7-.6-.7-1.7 0-1.3 1-2 .9-.8 2.6-.8l1.7.1q.8.1 1.4.4zm9.6 3.7q0-1.3-.7-2.1t-1.9-.8q-1.3 0-2 .8-.8.7-1 2zm1.6.4v.8h-7.2q0 1.6 1 2.5.8.8 2.4.8 1 0 1.8-.2t1.6-.7v1.5q-.8.4-1.7.6l-1.8.1q-2.3 0-3.6-1.3-1.4-1.3-1.4-3.6t1.3-3.7q1.3-1.4 3.4-1.4 2 0 3 1.2 1.2 1.3 1.2 3.4zm64.3-92.8V238h-3.6v-13q0-3.2-1.2-4.7-1.2-1.6-3.6-1.6-3 0-4.6 1.9-1.7 1.8-1.7 5V238h-3.6v-30.4h3.6v12q1.3-2 3-3 1.8-1 4-1 3.9 0 5.8 2.4 2 2.3 2 6.8zm-30.3-14.9v6.2h7.4v2.8h-7.4v12q0 2.6.7 3.3.8.8 3 .8h3.7v3h-3.7q-4.2 0-5.7-1.5-1.6-1.6-1.6-5.7v-11.9h-2.7V216h2.7v-6.2zm-29.3 19.5V216h3.6v13.1q0 3.1 1.2 4.7t3.6 1.6q3 0 4.6-1.9 1.7-1.9 1.7-5V216h3.6v22h-3.6v-3.4q-1.3 2-3 3-1.8.9-4 .9-3.8 0-5.8-2.4-2-2.3-2-6.8zm9-13.8zm-12.5 3.9q-.6-.4-1.3-.5-.7-.2-1.6-.2-3 0-4.6 2-1.7 2-1.7 5.7v11.5h-3.6V216h3.6v3.4q1.2-2 3-3 1.8-.9 4.4-.9h.8l1 .2zM231 208.8h24.6v3.3h-10.3v25.8h-4v-25.8H231zm93.3-111.3v3h-3.5q-2 0-2.7.8-.7.8-.7 2.8v2h5.9v2.7h-6V128h-3.5v-19h-9.9v19h-3.6v-19h-3.5v-3h3.5v-1.5q0-3.6 1.7-5.3 1.7-1.7 5.4-1.7h3.4v3h-3.5q-1.9 0-2.7.8-.7.8-.7 2.8v2h9.9v-1.6q0-3.6 1.7-5.3 1.7-1.7 5.4-1.7zm-50.4 21.8V106h3.6v13.1q0 3.1 1.2 4.7 1.3 1.6 3.7 1.6 2.9 0 4.6-1.9 1.7-1.9 1.7-5V106h3.6v22h-3.6v-3.4q-1.3 2-3 3-1.8.9-4 .9-3.9 0-5.8-2.4-2-2.3-2-6.8zm9-13.8zm-19.7-8h3.6V128h-3.6zM239.8 114v10.7h6.3q3.2 0 4.7-1.3 1.6-1.4 1.6-4 0-2.8-1.6-4.1-1.5-1.3-4.7-1.3zm0-12v8.8h5.8q3 0 4.3-1 1.5-1.2 1.5-3.4t-1.5-3.3q-1.4-1.1-4.3-1.1zm-4-3.2H246q4.5 0 7 1.8 2.4 1.9 2.4 5.4 0 2.6-1.2 4.2-1.3 1.6-3.7 2 3 .6 4.5 2.6 1.6 2 1.6 5 0 3.9-2.6 6-2.7 2.1-7.6 2.1h-10.5zm-64.4 148.8l15.6 5.7v2l-15.6 5.7v-2.3l12.6-4.4-12.6-4.5zm-107.8 0v2.2L51 254.3l12.6 4.4v2.3L48 255.3v-2zm83.3-1.3l-3.4 9h6.7zm-33.2-.4v6.8h3c1.2 0 2-.2 2.7-.8.6-.6 1-1.5 1-2.6 0-1-.4-2-1-2.5-.6-.6-1.5-.9-2.6-.9zm-42.5 0v14.2h3c2.5 0 4.3-.6 5.5-1.7 1.1-1.2 1.7-3 1.7-5.4 0-2.5-.6-4.3-1.7-5.4-1.2-1.1-3-1.7-5.5-1.7zm82.2-2h2.7l5 7.5 5-7.5h2.7l-6.5 9.5v8.7H160v-8.7zm-8 0h2.9l7 18.2h-2.6l-1.7-4.7h-8.2l-1.7 4.7h-2.6zm-19.1 0h2.4V260h9v2.1h-11.4zm-15.1 0h5.6c2 0 3.5.4 4.6 1.4 1 .9 1.6 2.2 1.6 4 0 1.8-.6 3.2-1.6 4.1-1 1-2.6 1.4-4.6 1.4h-3.1v7.3h-2.5zm-23.3 0h2.5V262H88zm-19.2 0h5c3.6 0 6.2.7 7.9 2.2 1.6 1.4 2.4 3.7 2.4 6.9 0 3.1-.8 5.4-2.5 6.9-1.6 1.5-4.2 2.2-7.7 2.2h-5zm32.2-.4a15.2 15.2 0 0 1 5.3 1v2.4c-.9-.5-1.8-.8-2.6-1-.8-.2-1.6-.4-2.4-.4-1.4 0-2.4.3-3.1.8-.7.5-1.1 1.3-1.1 2.3 0 .8.2 1.4.7 1.8.5.4 1.4.7 2.8 1l1.5.3c1.8.3 3.2 1 4 1.8.9 1 1.3 2 1.3 3.6 0 1.7-.5 3-1.7 4-1.2.9-3 1.4-5.2 1.4a20.6 20.6 0 0 1-5.8-1.2v-2.5c1 .5 2 1 3 1.2.9.3 1.8.5 2.8.5 1.4 0 2.5-.3 3.2-.9.8-.5 1.2-1.3 1.2-2.3 0-1-.3-1.6-.9-2.1-.5-.6-1.4-1-2.7-1.2l-1.5-.3a8 8 0 0 1-4-1.7 4.3 4.3 0 0 1-1.2-3.3c0-1.6.6-2.8 1.7-3.8a7.5 7.5 0 0 1 4.7-1.4zM20 237.8V268l195 .2V238zm67-85q-8.2 8.4-15.3 12-6.9 3.5-15.9 3.5-12.5 0-21.2-8.5-8.7-8.7-8.7-23 0-7.7 2.4-14.3 2.3-6.6 11-17 8.8-10.3 27-26.2 19.4-17 26-31.8 1.4-2.8 3.6-2.8h3.3q2.2 0 3.6 2.8 6.6 14.8 26 31.8 18.2 15.9 27 26.3 8.7 10.3 10.9 16.9 2.4 6.6 2.4 14.3 0 14.3-8.8 23-8.6 8.5-21 8.5-9 0-16-3.5-7-3.6-15.2-12 3 32.6 16.3 53.5H70.7Q84 185.4 87 152.7z"/></svg>