<svg xmlns="http://www.w3.org/2000/svg" width="816" height="144" viewBox="0 0 215.9 38.1"><path fill="none" stroke="#000" stroke-width=".5" stroke-dasharray=".996096,.996096" d="M114.38 25.93H101.2V12.75h13.18z"/><path d="M194.66 34.01h-1.26V5.6h1.26zM150.37 5.03V17.4a6.75 6.75 0 0 1 1.35-1.43V5.03h-1.35zm1.35 10.94v2a5.27 5.27 0 0 1 .68-.75l4.83 9a5.27 5.27 0 0 1-2.8-.07 5.27 5.27 0 0 1-2.71-1.9v2.31a6.75 6.75 0 0 0 2.23 1.17 6.75 6.75 0 0 0 8.4-4.52 6.75 6.75 0 0 0-4.51-8.4 6.75 6.75 0 0 0-6.12 1.16zm0 10.6a6.75 6.75 0 0 1-1.35-1.44v8.44h1.35v-7zm-1.35-1.44V17.4a6.75 6.75 0 0 0-.94 1.92 6.75 6.75 0 0 0 0 .01 6.75 6.75 0 0 0 .94 5.8zm1.35-.88v-6.29a5.27 5.27 0 0 0-.82 1.63 5.27 5.27 0 0 0 0 .03 5.27 5.27 0 0 0 .82 4.63zm4.18-8.4a5.27 5.27 0 0 1 1.56.22 5.27 5.27 0 0 1 3.52 6.55 5.27 5.27 0 0 1-1.9 2.71l-4.93-9.17a5.27 5.27 0 0 1 1.75-.32zM107.01 5.4v7.08a6.75 6.75 0 0 1 .42-.03 6.75 6.75 0 0 1 .9.02V5.4H107zm1.32 7.07v1.33a5.27 5.27 0 0 1 4.63 5 5.27 5.27 0 0 1-.91 3.19l-3.72-3.43v2.78l2.25 2.08a5.27 5.27 0 0 1-2.25.83v1.65a6.75 6.75 0 0 0 6.11-6.99 6.75 6.75 0 0 0-6.11-6.44zm0 13.43a6.75 6.75 0 0 1-.35.03 6.75 6.75 0 0 1-.97-.03v7.3h1.32v-7.3zm-1.32 0v-1.66a5.27 5.27 0 0 1-4.57-4.97 5.27 5.27 0 0 1 0-.03 5.27 5.27 0 0 1 .63-2.74l3.94 3.63v-2.78l-2.62-2.42A5.27 5.27 0 0 1 107 13.8v-1.32a6.75 6.75 0 0 0-6.05 6.98 6.75 6.75 0 0 0 0 .01 6.75 6.75 0 0 0 6.05 6.43zm0-12.1v3.55l1.32 1.2V13.8a5.27 5.27 0 0 0-.85-.04 5.27 5.27 0 0 0-.47.04zm0 6.33v4.11a5.27 5.27 0 0 0 .9.04 5.27 5.27 0 0 0 .42-.03v-2.9L107 20.12z"/><path fill="none" stroke="#000" stroke-width=".47" stroke-dasharray=".949994,.949994" d="m200.58 37.78-6.28-10.89 10.88-6.28 6.29 10.89z"/><path d="M199.77 23.37a6.43 6.43 0 0 0-2.67 8.69 6.43 6.43 0 0 0 8.7 2.67 6.43 6.43 0 0 0 2.68-8.7 6.43 6.43 0 0 0-8.7-2.67zm.79 1.18a5.02 5.02 0 0 1 .02-.01 5.02 5.02 0 0 1 2.62-.58l-2.87 9.31a5.02 5.02 0 0 1-1.84-1.95 5.02 5.02 0 0 1 2.07-6.77zm4.53-.1a5.02 5.02 0 0 1 2.28 2.18 5.02 5.02 0 0 1-2.1 6.78 5.02 5.02 0 0 1-3.1.53z"/><path fill="none" stroke="#000" stroke-width=".5" stroke-dasharray=".996096,.996096" d="m159.93 29.87-12.39-4.5 4.51-12.4 12.39 4.52z"/><path d="M20.94 34.01h1.26V5.6h-1.26zM63.88 5.03v10.94a6.75 6.75 0 0 1 1.35 1.43V5.03h-1.35zm1.35 12.37v7.73a6.75 6.75 0 0 0 .69-6.5 6.75 6.75 0 0 0-.69-1.23zm0 7.73a6.75 6.75 0 0 1-1.35 1.43v7.01h1.35v-8.44zm-1.35 1.43v-2.33a5.27 5.27 0 0 1-2.18 1.73 5.27 5.27 0 0 1-6.9-2.77 5.27 5.27 0 0 1 0-.02 5.27 5.27 0 0 1-.37-2.79l9.45 3.83V22l-8.78-3.55a5.27 5.27 0 0 1 2.49-2.18 5.27 5.27 0 0 1 6.3 1.72v-2.02a6.75 6.75 0 0 0-6.82-.92 6.75 6.75 0 0 0-3.57 8.85 6.75 6.75 0 0 0 8.84 3.58 6.75 6.75 0 0 0 1.54-.92zm0-8.57V22l.88.35a5.27 5.27 0 0 0-.27-3.3 5.27 5.27 0 0 0-.6-1.06zm0 6.22v.02a5.27 5.27 0 0 0 .02-.01l-.02-.01z"/><path fill="none" stroke="#000" stroke-width=".47" stroke-dasharray=".949994,.949994" d="m15.02 37.78 6.29-10.88-10.89-6.29L4.14 31.5z"/><path d="M18.45 32.15A6.43 6.43 0 0 1 9.7 34.7a6.43 6.43 0 0 1-2.54-8.74 6.43 6.43 0 0 1 8.74-2.54 6.43 6.43 0 0 1 2.54 8.73 6.43 6.43 0 0 1 0 .01zm-1.18-.8a5.02 5.02 0 0 0 .02-.02 5.02 5.02 0 0 0 .61-2.61l-9.35 2.72a5.02 5.02 0 0 0 1.92 1.87 5.02 5.02 0 0 0 6.8-1.96zm.18-4.53a5.02 5.02 0 0 0-2.15-2.31 5.02 5.02 0 0 0-6.82 1.98 5.02 5.02 0 0 0-.57 3.1z"/><path fill="none" stroke="#000" stroke-width=".5" stroke-dasharray=".996096,.996096" d="m55.67 29.87 12.39-4.5-4.5-12.4-12.4 4.51z"/></svg>