<svg width="479" height="477" viewBox="0 0 126.7 126.2" xmlns="http://www.w3.org/2000/svg"><path fill="none" stroke="#000" d="M1 0h126v126H1z"/><g stroke="#999" fill="none" stroke-width="3.8"><path d="m38 8 4 7h-8zM90 8l4 7h-9zM38 118l4-7h-8zM90 118l4-7h-9z" stroke-width="1.005404"/></g><g stroke="#999" fill="none" stroke-width="3.8"><path d="m119 37-7 5v-9zM119 89l-7 4v-8zM9 37l7 5v-9zM9 89l7 4v-8z" stroke-width="1.005404"/></g><g fill="none" stroke="#000"><path d="M0 25h25V1M101 0v26h25"/></g><g fill="none" stroke="#000"><path d="M0 101h25v25M101 126v-25h25"/></g><path d="M0 49h25v28H0M126 77h-25V49h25" fill="none" stroke="#000"/><g fill="none" stroke="#000"><path d="M77 0v25H50V0M50 126v-25h27v25"/></g><path d="M50 49v28h27V49z" fill="none" stroke="#000"/><path d="m38 29 9 8-9 9-9-9zM89 29l9 8-9 9-8-9zM38 80l9 9-9 9-9-9zM89 80l9 9-9 9-8-9z" fill="none" stroke="#000" stroke-width="1.00808"/><path d="m25 25 8 9M94 94l7 7M101 26l-7 7" fill="#666" stroke="#000"/><path d="m33 93-8 8" fill="#666" stroke="#000" stroke-width="1.1"/></svg>