<svg width="479" height="477" viewBox="0 0 126.7 126.2" xmlns="http://www.w3.org/2000/svg"><g fill="none"><path stroke="#000" d="M1 0h126v126H1z"/><g stroke="#999" stroke-width="3.8"><path d="m38 8 4 7h-8zM90 8l4 7h-9zM38 118l4-7h-8zM90 118l4-7h-9z" stroke-width="1.005404"/></g><g stroke="#999" stroke-width="3.8"><path d="m119 37-7 5v-9zM119 89l-7 4v-8zM9 37l7 5v-9zM9 89l7 4v-8z" stroke-width="1.005404"/></g><path d="M64 0 45 19h38L64 0M21 43 1 63l20 20zM42 104l21 22 22-22H42M107 44l19 19-19 19zM0 0l35 35M35 35h21v21H35zM127 0 92 35M72 35h20v21H72zM71 70h21v21H71zM35 70h21v21H35zM92 91l35 35M35 91 0 126" stroke="#000"/></g></svg>