<svg width="479" height="477" viewBox="0 0 126.7 126.2" xmlns="http://www.w3.org/2000/svg"><g fill="none"><path stroke="#000" d="M1 0h126v126H1z"/><g stroke="#999" stroke-width="3.8"><path d="m38 8 4 7h-8zM90 8l4 7h-9zM38 118l4-7h-8zM90 118l4-7h-9z" stroke-width="1.005404"/></g><g stroke="#999" stroke-width="3.8"><path d="m119 37-7 5v-9zM119 89l-7 4v-8zM9 37l7 5v-9zM9 89l7 4v-8z" stroke-width="1.005404"/></g><path d="M78 0 52 26" stroke="#000"/><path d="M39 39 0 0" stroke="#000" stroke-width=".9"/><path d="m78 100-26 26M126 76l-25-26M26 76 0 50" stroke="#000"/><path d="m88 39 39-39M0 126l39-39M127 126 88 87" stroke="#000" stroke-width=".9"/><path d="M39 39 24 54M103 72 88 87M88 39 73 24M54 102 39 87" stroke="#000"/><path d="M52 26v24M78 75v25M52 76H26M101 50H76" stroke="#000" stroke-width=".9"/><path d="m64 55 8 8-8 7-7-7z" stroke="#000" stroke-width="1.005404"/><path d="M24 54V25M73 24h31M54 102H24M103 72v30M52 26V0M101 50h25M78 100v26M26 76H0" stroke="#000"/></g></svg>