<svg xmlns="http://www.w3.org/2000/svg" viewBox="0 0 348 348"><path fill="#ddd" d="M43 83h55v55H43zM142 223h55v55h-55z" /><path fill="none" stroke="#000" stroke-width="2" d="M5.08 5.78h336.91v337.67H5.08zM282.73 40.55c0-8.37 6.97-15.16 15.56-15.16 4.13 0 8.09 1.6 11 4.44a14.96 14.96 0 0 1 4.56 10.72c0 8.38-6.96 15.17-15.56 15.17-8.59 0-15.56-6.8-15.56-15.17zM43 278h55v55H43zm0-65h55v55H43zm0-65h55v55H43zm0-65h55v55H43zm0-65h55v55H43zM197 113h55v55h55v55h-55v55h-55v55h-55V223h55zM197 168h55v55h-55v55h-55"/><path fill="#999" d="M224.5 177.06a18.43 18.43 0 1 0 0 36.88 18.43 18.43 0 1 0 0-36.88zm.03 6.78c2.24 0 4.01.63 5.34 1.85a5.74 5.74 0 0 1 2 4.4c0 1-.21 1.94-.68 2.78a13.1 13.1 0 0 1-2.75 3.07 13.4 13.4 0 0 0-1.81 1.81c-.29.39-.5.81-.63 1.31-.14.5-.2 1.32-.22 2.44h-2.72v-.84c0-1.1.16-2.05.47-2.85a6.5 6.5 0 0 1 1.1-1.84 21.2 21.2 0 0 1 2.03-1.97 9.67 9.67 0 0 0 1.9-2.03c.3-.51.44-1.08.44-1.69 0-1.1-.43-2.05-1.28-2.87a4.38 4.38 0 0 0-3.16-1.25c-1.2 0-2.2.37-3 1.12-.8.75-1.31 1.94-1.56 3.53l-2.88-.34c.27-2.14 1.03-3.77 2.32-4.9a7.41 7.41 0 0 1 5.1-1.73zm-1.62 20.1h3.22v3.22h-3.22v-3.22zM70.5 287.06a18.43 18.43 0 1 0 0 36.88 18.43 18.43 0 1 0 0-36.88zm.03 6.78c2.24 0 4.01.63 5.34 1.85a5.74 5.74 0 0 1 2 4.4c0 1-.21 1.94-.68 2.79a13.1 13.1 0 0 1-2.75 3.06 13.4 13.4 0 0 0-1.81 1.81c-.29.39-.5.81-.63 1.31a11 11 0 0 0-.22 2.44h-2.72v-.84c0-1.1.16-2.05.47-2.85a6.5 6.5 0 0 1 1.1-1.84 21.2 21.2 0 0 1 2.03-1.97 9.67 9.67 0 0 0 1.9-2.03c.3-.51.44-1.08.44-1.69 0-1.1-.43-2.05-1.28-2.87a4.38 4.38 0 0 0-3.16-1.25c-1.2 0-2.2.37-3 1.12-.8.75-1.31 1.94-1.56 3.53l-2.88-.34c.27-2.14 1.03-3.77 2.32-4.9a7.41 7.41 0 0 1 5.1-1.73zm-1.62 20.1h3.22v3.22H68.9v-3.22zm1.59-91.88a18.43 18.43 0 1 0 0 36.88 18.43 18.43 0 1 0 0-36.88zm.03 6.78c2.24 0 4.01.63 5.34 1.85a5.74 5.74 0 0 1 2 4.4c0 1-.21 1.94-.68 2.78a13.1 13.1 0 0 1-2.75 3.07 13.4 13.4 0 0 0-1.81 1.81c-.29.39-.5.81-.63 1.31-.14.5-.2 1.32-.22 2.44h-2.72v-.84c0-1.1.16-2.05.47-2.85a6.5 6.5 0 0 1 1.1-1.84 21.2 21.2 0 0 1 2.03-1.97 9.67 9.67 0 0 0 1.9-2.03c.3-.51.44-1.08.44-1.69 0-1.1-.43-2.05-1.28-2.87a4.38 4.38 0 0 0-3.16-1.25c-1.2 0-2.2.37-3 1.12-.8.75-1.31 1.94-1.56 3.53l-2.88-.34c.27-2.14 1.03-3.77 2.32-4.9a7.41 7.41 0 0 1 5.1-1.73zm-1.62 20.1h3.22v3.22H68.9v-3.22zm1.59-91.88a18.43 18.43 0 1 0 0 36.88 18.43 18.43 0 1 0 0-36.88zm.03 6.78c2.24 0 4.01.63 5.34 1.85a5.74 5.74 0 0 1 2 4.4c0 1-.21 1.94-.68 2.78a13.1 13.1 0 0 1-2.75 3.07 13.4 13.4 0 0 0-1.81 1.81c-.29.39-.5.81-.63 1.31a11 11 0 0 0-.22 2.44h-2.72v-.84c0-1.1.16-2.05.47-2.85a6.5 6.5 0 0 1 1.1-1.84 21.2 21.2 0 0 1 2.03-1.97 9.67 9.67 0 0 0 1.9-2.03c.3-.51.44-1.08.44-1.69 0-1.1-.43-2.05-1.28-2.87a4.38 4.38 0 0 0-3.16-1.25c-1.2 0-2.2.37-3 1.12-.8.75-1.31 1.94-1.56 3.53l-2.88-.34c.27-2.14 1.03-3.77 2.32-4.9a7.41 7.41 0 0 1 5.1-1.73zm-1.62 20.1h3.22v3.22H68.9v-3.22zm1.59-91.88a18.43 18.43 0 1 0 0 36.88 18.43 18.43 0 1 0 0-36.88zm.03 6.78c2.24 0 4.01.63 5.34 1.85a5.74 5.74 0 0 1 2 4.4c0 1-.21 1.94-.68 2.78a13.1 13.1 0 0 1-2.75 3.07 13.4 13.4 0 0 0-1.81 1.81c-.29.39-.5.81-.63 1.31a11 11 0 0 0-.22 2.44h-2.72v-.84c0-1.1.16-2.05.47-2.85a6.5 6.5 0 0 1 1.1-1.84 21.2 21.2 0 0 1 2.03-1.97 9.67 9.67 0 0 0 1.9-2.03c.3-.51.44-1.08.44-1.69 0-1.1-.43-2.05-1.28-2.87a4.38 4.38 0 0 0-3.16-1.25c-1.2 0-2.2.37-3 1.12-.8.75-1.31 1.94-1.56 3.53l-2.88-.34c.27-2.14 1.03-3.77 2.32-4.9a7.41 7.41 0 0 1 5.1-1.73zm-1.62 20.1h3.22v3.22H68.9v-3.22zm1.59-91.88a18.43 18.43 0 1 0 0 36.88 18.43 18.43 0 1 0 0-36.88zm.03 6.78c2.24 0 4.01.63 5.34 1.85a5.74 5.74 0 0 1 2 4.4c0 1-.21 1.94-.68 2.78a13.1 13.1 0 0 1-2.75 3.07 13.4 13.4 0 0 0-1.81 1.81c-.29.39-.5.81-.63 1.31-.14.5-.2 1.32-.22 2.44h-2.72v-.84c0-1.1.16-2.05.47-2.85a6.5 6.5 0 0 1 1.1-1.84A21.2 21.2 0 0 1 72.66 44a9.67 9.67 0 0 0 1.9-2.03c.3-.51.44-1.08.44-1.69 0-1.1-.43-2.05-1.28-2.87a4.38 4.38 0 0 0-3.16-1.25c-1.2 0-2.2.37-3 1.12-.8.75-1.31 1.94-1.56 3.53l-2.88-.34c.27-2.14 1.03-3.77 2.32-4.9a7.41 7.41 0 0 1 5.1-1.73zm-1.62 20.1h3.22v3.22H68.9v-3.22z"/></svg>