<svg xmlns="http://www.w3.org/2000/svg" width="180" height="180" version="1.0"><path fill="#3c3624" fill-opacity=".749" d="M99.646 37.124C90.491 62.55 74.09 84.514 52.928 100.53v60.563a190.36 190.36 0 0 0 46.718-32.281 190.361 190.361 0 0 0 46.72 32.28V100.53c-21.163-16.016-37.564-37.98-46.72-63.406Z"/><path fill="#f4e6d9" d="M99.646 53.562c-9.802 19.788-24.029 37.022-41.375 50.375v12.812a155.303 155.303 0 0 0 41.375-42.406 155.304 155.304 0 0 0 41.375 42.406v-12.812C123.676 90.584 109.45 73.35 99.646 53.562z"/><path fill="#f4e6d9" d="M99.646 83.25a160.415 160.415 0 0 1-41.375 39.593v11.594c15.638-9.505 29.6-21.482 41.375-35.375 11.776 13.893 25.738 25.87 41.375 35.375v-11.594a160.416 160.416 0 0 1-41.375-39.594z"/><path fill="#f4e6d9" d="M99.646 107.124a175.284 175.284 0 0 1-41.375 33.5v11.25c15.222-8.257 29.12-18.617 41.375-30.656 12.256 12.039 26.154 22.399 41.375 30.656v-11.25a175.285 175.285 0 0 1-41.375-33.5z"/></svg>