<svg xmlns="http://www.w3.org/2000/svg" xml:space="preserve" viewBox="0 0 99.3 99.4"><path d="M77.1 60.8a38.6 38.6 0 0 1-38.5 38.6A38.6 38.6 0 0 1 0 60.8a38.6 38.6 0 0 1 38.6-38.6A38.6 38.6 0 0 1 77 60.8z"/><path fill="#fff" d="m35.6 38.6 3 6.9 3-6.9-3-7.1c-.9 1.8-2.1 5-3 7.1zM16.1 57.8l-6.8 3 6.8 3 7.2-3-7.2-3z"/><path fill="none" stroke="#fff" stroke-miterlimit="2" stroke-width="2" d="M60.9 60.8A22.3 22.3 0 0 1 38.6 83a22.3 22.3 0 0 1-22.3-22.3 22.3 22.3 0 0 1 22.3-22.3 22.3 22.3 0 0 1 22.3 22.3z"/><path fill="#fff" d="m35.6 83.2 3 6.9 3-6.9-3-7.1c-.9 1.8-2.1 5-3 7.1zM61 63.8l6.9-3-6.9-3-7.1 3c1.8.8 5 2 7.1 3z"/><path fill="none" stroke="#fff" stroke-miterlimit="2" stroke-width="2.2" d="m19.6 42.5 5.8 5.8m31.4-6.5-5.7 5.8M57.5 79l-5.7-5.7m-31.5 6.5 5.8-5.8"/><path fill="none" stroke="#fff" stroke-miterlimit="2" stroke-width="4.2" d="M48.9 60.8A10.3 10.3 0 0 1 38.6 71a10.3 10.3 0 0 1-10.3-10.3 10.3 10.3 0 0 1 10.3-10.3 10.3 10.3 0 0 1 10.3 10.3z"/><path fill="none" stroke="#fff" stroke-miterlimit="2" stroke-width="1.9" d="M43 60.8a4.4 4.4 0 0 1-4.4 4.4 4.4 4.4 0 0 1-4.5-4.4 4.4 4.4 0 0 1 4.5-4.4 4.4 4.4 0 0 1 4.4 4.4z"/><path fill="#fff" d="M45.5 56.9a3.2 3.2 0 0 1-3.1 3.1 3.2 3.2 0 0 1-3.2-3.1 3.2 3.2 0 0 1 3.2-3.2 3.2 3.2 0 0 1 3.1 3.2z"/><path d="m74 48.4 5.5-6.3-14.7-17.6-10 3z"/><path fill="none" stroke="#000" stroke-miterlimit="2" stroke-width="2.6" d="M70 33.5c4.4 0 8.1.7 12-1 1-.6 2.2-1.7 2.5-2.8.5-2-1-4.2-1.1-6 0-1.5 1.2-5.3 1.2-5.3"/><path d="m84.7 22.4 2.1.2 3.3 4.8-.7-3.3 8.3 4.3-6.4-6.2 8 .2L91 17l7.4-5.3-9.1 2.4L93.5 0s-8.1 12-8.1 11.8L82.9 4l-1.2 8a68 68 0 0 0-3.8-3.8l1.7 6-9.2-3 9.7 6.6 1.7 2.3v1.1l.3 2.7z"/></svg>