<svg xmlns="http://www.w3.org/2000/svg" viewBox="0 0 200 200"><path fill="#001cbf" d="m100.45-.01 47.4 47.4-47.4 47.4-47.4-47.4z"/><path fill="#bfbf00" d="m153.06 52.6 47.4 47.4-47.4 47.4-47.4-47.4z"/><path fill="#bf0000" d="m47.84 52.6 47.4 47.4-47.4 47.4L.44 100z"/><path fill="#39bf00" d="m100.45 105.2 47.4 47.41-47.4 47.4-47.4-47.4z"/><path fill="#000064" d="M85.07 20.05h12q10.48 0 15.08 4.13 4.6 4.09 4.6 10.44 0 6.85-6.7 11.02 7.6 3 7.6 11.41 0 6.74-4.72 10.87-4.72 4.13-12.43 4.13H85.07Zm11.8 9.97v11.22q7.92-.2 7.92-5.5 0-3.15-1.91-4.4-1.87-1.24-6-1.32zm0 20.64v11.27q4.49-.08 6.7-1.37 2.27-1.32 2.27-4.32 0-5.57-7.99-5.57z" aria-label="B"/><path fill="#646400" d="M133.53 76.5h13.25q4.4 11.21 6.39 17.3h.15q2-6.24 6.31-17.3h13.56l-13.94 28.47v23.53h-11.96v-23.53z" aria-label="Y"/><path fill="#006400" d="M119.77 149v8.73q0 10.13-4.91 15.94-4.87 5.76-13.37 5.76-9.5 0-14.68-7.13-5.18-7.16-5.18-20.4 0-13.37 5.14-20.27 5.18-6.93 15.11-6.93 11.15 0 16.13 11.88l-11.26 4.64q-1.4-2.5-2.6-3.63-1.22-1.17-3.32-1.17-3.58 0-5.1 3.78-1.48 3.74-1.48 12.16 0 7.83 1.67 11.53 1.72 3.66 5.42 3.66 5.92 0 6.11-8.45h-5.49V149z" aria-label="G"/><path fill="#640000" d="M31.28 72.98h13.75q8.34 0 13.17 4.28 4.83 4.29 4.83 11.65 0 3.78-1.83 7.33-1.83 3.5-5.34 5.3l9.43 23.45H52.82l-9.54-23.69h-.2v23.69h-11.8Zm11.8 10.05v12.35q7.83-.16 7.83-5.5 0-3.62-1.83-5.17-1.79-1.56-6-1.68z" aria-label="R"/><path d="m53.55 94.41 60.1-60.1" color="#000"/><path fill="#fff" d="M84.06 63a.9.9 0 0 0-.63.26L52.9 93.77a.9.9 0 0 0 0 1.28.9.9 0 0 0 1.28 0l30.5-30.52a.9.9 0 0 0 0-1.27.9.9 0 0 0-.63-.26z" color="#000"/><g fill="#fff" fill-rule="evenodd" color="#000"><path d="m47.67 100.29 3.72-13.9 10.18 10.18Z"/><path d="m50.89 84.54-4.58 17.1 1.6-.42 15.51-4.15Zm1 3.7 7.82 7.84-10.68 2.85z"/></g><path d="m106 53.32 60.1 60.1" color="#000"/><path fill="#fff" d="M106 52.42a.9.9 0 0 0-.64.26.9.9 0 0 0 0 1.28l30.52 30.5a.9.9 0 0 0 1.27 0 .9.9 0 0 0 0-1.26l-30.51-30.52a.9.9 0 0 0-.64-.26Z" color="#000"/><g fill="#fff" fill-rule="evenodd" color="#000"><path d="m100.12 47.44 13.9 3.72-10.18 10.18z"/><path d="m98.76 46.08.43 1.6 4.15 15.51 12.53-12.53zm2.72 2.72 10.68 2.85-7.83 7.83z"/></g><path d="m147.13 105.86-60.1 60.1" color="#000"/><path fill="#fff" d="m146.5 105.22-30.52 30.52a.9.9 0 0 0 0 1.27.9.9 0 0 0 1.27 0l30.52-30.51a.9.9 0 0 0 0-1.28.9.9 0 0 0-1.28 0z" color="#000"/><g fill="#fff" fill-rule="evenodd" color="#000"><path d="m153.01 99.98-3.72 13.9-10.18-10.18z"/><path d="m154.37 98.62-1.6.43-15.51 4.15 12.53 12.53zm-2.72 2.72-2.85 10.68-7.83-7.83z"/></g><path d="m94.68 146.94-60.1-60.1" color="#000"/><path fill="#fff" d="M64.17 115.53a.9.9 0 0 0-.64.26.9.9 0 0 0 0 1.27l30.51 30.52a.9.9 0 0 0 1.28 0 .9.9 0 0 0 0-1.28L64.8 115.8a.9.9 0 0 0-.63-.27z" color="#000"/><g fill="#fff" fill-rule="evenodd" color="#000"><path d="m100.56 152.82-13.9-3.72 10.18-10.18Z"/><path d="M97.34 137.07 84.81 149.6l17.1 4.58-.42-1.6zm-1 3.7 2.86 10.7-10.68-2.86z"/></g></svg>