<svg xmlns="http://www.w3.org/2000/svg" xml:space="preserve" viewBox="0 0 115.88 263.63">
  <path fill="#6ABD45" d="M48.57 10C38.2 21.95 30.72 35.57 24.53 50c-11.39 26.52-15.09 54.24-11.89 82.8a163.21 163.21 0 0 0 18.26 58.67c10.13 19.1 11.42 38.8 4.03 59.1-.43 1.17-1.36 2.73-.52 3.72 1.18 1.38 2.68.54 4.13.1 26.45-7.89 46.3-34.48 46.33-62.13.01-9.85.01-9.85 9.64-9.59h5.5c2.46-.01 5 .52 5.33-3.25.4-4.45 1.56-9.42-3.48-10.88a827.9 827.9 0 0 0-18.16-5.07c-2.66-.71-4.13-2.15-4.8-4.93a690.57 690.57 0 0 0-7.57-28.94c-1-3.5.33-4.4 3.23-5.1 7.72-1.88 15.38-3.99 23.1-5.9 8.02-1.98 7.9-1.92 7.88-10.15 0-3.76-1.14-5.37-5.15-5.34-10.65.08-21.3-.3-31.96-.27-3.04.01-4.86-.9-6.32-3.66-2.94-5.58-6.46-10.85-9.39-16.44-3.03-5.8-7.04-10.98-7.1-18.27a122.3 122.3 0 0 1 8.5-46.26c1.14-2.93.81-5.42-.68-8.04-1.64-2.87-2.6-2.8-4.87-.17zm15.55 166.46c1.83 11.04-.1 25.74-5.04 35.79l.57-3.44c3.92-20.84-3.4-40.55-6.2-60.71-.83-6.06-1.97-12.08-2.96-18.12-.33-1.96-.6-3.25-1.9-11.1 4.32 5.91 12.75 40.79 15.53 57.58zM37.62 66.39a2.04 2.04 0 1 1-4.08 0 2.04 2.04 0 0 1 4.08 0z"/>
  <path fill="#6ABD46" d="M100.58 76.09c3.28-.06 4.52 1.43 4.45 4.49-.04 1.5-.16 3.01.04 4.48.48 3.42-.85 5.13-4.25 5.95-10.28 2.5-20.5 5.22-30.73 7.9-2.4.62-4.13.07-5.4-2.22-3.22-5.8-6.56-11.54-9.85-17.3-1.56-2.75-.75-3.96 2.4-3.94l43.34.64z"/>
  <path fill="#6BBE46" d="M93.64 155.95c-11.85-.14-11.9-.13-14.75-11.47-.65-2.62-2.66-6.13-.5-7.85 2-1.61 9.43.8 12.34 1.81 5.13 1.78 5.64 1.97 10.67 3.59 4.25 1.36 5.17 4.22 3.67 11.45-.54 2.6-3.44 2.43-5.47 2.43-1.96 0-3.97.04-5.96.04z"/>
</svg>
