<svg xmlns="http://www.w3.org/2000/svg" fill="none" viewBox="0 0 348 348"><path stroke="#000" stroke-width="4" d="M263.7 44.8a31.1 31.1 0 0 1 31.7-30.4c8.4 0 16.5 3.2 22.5 9 6 5.6 9.3 13.4 9.3 21.4a31.1 31.1 0 0 1-31.8 30.5 31.1 31.1 0 0 1-31.7-30.5z"/><path stroke="#000" stroke-width="2" d="M5 5.7h337v337.6H5z"/><path stroke="#000" stroke-width="4" d="M31.6 106h279v129.9h-279z"/><path stroke="#000" stroke-width="3.1" d="M56.2 121.8h229.9v98.3H56.2z"/><path stroke="#000" stroke-width="1.4" d="M78.3 129.2h51v82.9h-51zm68.9.1h51v82.9h-51zm67.1-.1h51v82.9h-51z"/><g style="line-height:1.25;-inkscape-font-specification:'Calibri, Bold';font-variant-ligatures:normal;font-variant-caps:normal;font-variant-numeric:normal;font-feature-settings:normal;text-align:start"><path d="M118.38 196.89q.528 1.744.675 2.79.176 1.046-.176 1.594t-1.291.698q-.91.15-2.553.15-1.38 0-2.172-.1-.792-.1-1.261-.3-.44-.248-.646-.647-.205-.398-.352-.996l-7.13-23.263-7.102 23.263q-.176.598-.381.996-.205.399-.675.648-.44.199-1.262.299-.792.1-2.112.1-1.526 0-2.377-.15-.822-.15-1.115-.698-.294-.548-.118-1.594t.734-2.79l9.096-28.144-8.45-26.451q-.529-1.793-.734-2.84-.176-1.095.147-1.594.352-.548 1.261-.647.91-.15 2.583-.15 1.379 0 2.171.1.822.1 1.291.349.47.199.646.597.205.399.381.997l6.661 21.32 6.485-21.32q.176-.598.352-.997.206-.398.616-.597.44-.25 1.174-.349.763-.1 2.083-.1 1.468 0 2.319.15.85.1 1.173.647.323.548.147 1.594-.147 1.047-.646 2.84l-8.45 26.302z" aria-label="X" font-weight="700" font-size="78.3" font-family="Calibri" letter-spacing="0" word-spacing="0" fill="#000" stroke-width="2"/></g><g style="line-height:1.25;-inkscape-font-specification:'Calibri, Bold';font-variant-ligatures:normal;font-variant-caps:normal;font-variant-numeric:normal;font-feature-settings:normal;text-align:start"><path d="M187.609 196.63q.528 1.744.674 2.79.176 1.046-.176 1.594t-1.29.697q-.91.15-2.554.15-1.379 0-2.171-.1-.792-.1-1.262-.299-.44-.249-.645-.648-.206-.398-.352-.996l-7.13-23.263-7.102 23.263q-.176.598-.381.996-.206.399-.675.648-.44.2-1.262.299-.792.1-2.113.1-1.526 0-2.377-.15-.821-.15-1.115-.697-.293-.548-.117-1.594t.733-2.79l9.097-28.145-8.451-26.45q-.528-1.794-.734-2.84-.176-1.096.147-1.594.352-.548 1.262-.648.91-.15 2.582-.15 1.38 0 2.172.1.821.1 1.29.35.47.198.646.597.206.398.382.996l6.66 21.32 6.486-21.32q.176-.598.352-.996.205-.399.616-.598.44-.249 1.174-.349.763-.1 2.083-.1 1.467 0 2.318.15.851.1 1.174.648.323.548.147 1.594-.147 1.046-.646 2.84l-8.45 26.3z" aria-label="X" font-weight="700" font-size="78.3" font-family="Calibri" letter-spacing="0" word-spacing="0" fill="#000" stroke-width="2"/></g><g style="line-height:1.25;-inkscape-font-specification:'Calibri, Bold';font-variant-ligatures:normal;font-variant-caps:normal;font-variant-numeric:normal;font-feature-settings:normal;text-align:start"><path d="M254.842 195.718q.528 1.744.674 2.79.176 1.046-.176 1.594t-1.29.697q-.91.15-2.554.15-1.379 0-2.171-.1-.792-.1-1.262-.299-.44-.25-.645-.648-.206-.398-.352-.996l-7.13-23.263-7.102 23.263q-.176.598-.381.996-.206.399-.675.648-.44.2-1.262.299-.792.1-2.113.1-1.526 0-2.377-.15-.821-.15-1.115-.697-.293-.548-.117-1.594t.733-2.79l9.097-28.145-8.451-26.45q-.528-1.794-.734-2.84-.176-1.096.147-1.594.352-.548 1.262-.648.91-.15 2.582-.15 1.38 0 2.172.1.821.1 1.29.35.47.198.646.597.206.398.382.996l6.66 21.32 6.486-21.32q.176-.598.352-.996.205-.399.616-.598.44-.249 1.174-.349.763-.1 2.083-.1 1.467 0 2.318.15.851.1 1.174.648.323.548.147 1.594-.147 1.046-.646 2.84l-8.45 26.3z" aria-label="X" font-weight="700" font-size="78.3" font-family="Calibri" letter-spacing="0" word-spacing="0" fill="#000" stroke-width="2"/></g><path stroke="#000" stroke-width="3.4" d="M77.3 252.8h54.4v35H77.3zm68.6-.1h54.4v35h-54.4zm67.8-.2h54.4v35h-54.4zm-87.6 46.1h89.6v29.7h-89.6zM48.7 22.8H240v63.7H48.7z"/><g aria-label="A+B+C" style="line-height:1.25;-inkscape-font-specification:'Ostrich Sans, Heavy';font-variant-ligatures:normal;font-variant-caps:normal;font-variant-numeric:normal;font-feature-settings:normal;text-align:start" font-weight="900" font-size="71.1" font-family="Ostrich Sans" letter-spacing="0" word-spacing="0" fill="#000" stroke-width="1.8"><path d="M86.075 72.523c.326.93 1.63 1.737 2.852 1.737h2.363c1.955 0 3.259-1.303 2.851-2.73L82.897 34.18c-.244-.93-1.63-1.737-2.852-1.737h-1.792c-1.222 0-2.526.806-2.852 1.737l-7.414 24.259-3.911 13.153c-.408 1.427.896 2.668 2.851 2.668h2.363c1.222 0 2.526-.807 2.852-1.737l2.852-9.679h8.31zm-6.926-25.748c1.548 5.273 1.385 6.949 2.282 9.927h-4.563zM118.944 44.541c0-1.24-1.304-2.233-2.933-2.233h-2.363c-1.548 0-2.852.992-2.852 2.233v5.894h-7.74c-1.63 0-2.934.993-2.934 2.172v1.8c0 1.24 1.304 2.233 2.934 2.233h7.74v5.832c0 1.24 1.304 2.233 2.852 2.233h2.363c1.63 0 2.933-.992 2.933-2.233V56.64h7.74c1.549 0 2.852-.993 2.852-2.234v-1.8c0-1.178-1.303-2.17-2.851-2.17h-7.74zM146.695 74.26c9.533 0 13.77-3.97 13.77-11.974 0-3.785-1.385-6.95-3.503-8.935 0 0 3.503-3.164 3.503-8.934 0-8.003-4.237-11.974-13.77-11.974h-8.066c-1.63 0-2.933.992-2.933 2.233v37.35c0 1.241 1.303 2.234 2.933 2.234zm0-35.675c3.993 0 5.622 1.675 5.622 5.832s-1.63 5.832-5.622 5.832h-2.851V38.585zm0 17.806c3.993 0 5.622 1.676 5.622 5.895 0 4.157-1.63 5.832-5.622 5.832h-2.851V56.39zM185.782 44.541c0-1.24-1.303-2.233-2.933-2.233h-2.363c-1.548 0-2.851.992-2.851 2.233v5.894h-7.74c-1.63 0-2.934.993-2.934 2.172v1.8c0 1.24 1.303 2.233 2.933 2.233h7.74v5.832c0 1.24 1.304 2.233 2.852 2.233h2.363c1.63 0 2.933-.992 2.933-2.233V56.64h7.741c1.548 0 2.852-.993 2.852-2.234v-1.8c0-1.178-1.304-2.17-2.852-2.17h-7.74zM201.882 62.1c0 4.9 1.793 7.755 4.319 9.678 2.688 1.986 6.03 2.482 9.125 2.482 2.934 0 6.356-.496 9.045-2.482 2.525-1.923 4.236-4.777 4.236-9.679v-.868c0-1.241-1.303-2.234-2.851-2.234h-2.363c-1.63 0-2.933.993-2.933 2.234v.868c0 2.234-.408 3.91-1.386 4.902-.733.62-2.2 1.117-3.748 1.117-3.503 0-5.214-1.862-5.214-6.019V44.541c0-4.157 1.792-5.956 5.214-5.956 3.341 0 5.134 1.8 5.134 5.956v.869c0 1.24 1.303 2.233 2.933 2.233h2.363c1.548 0 2.851-.992 2.851-2.233v-.869c0-4.715-1.71-7.817-4.318-9.679-2.689-1.86-5.948-2.42-8.963-2.42-3.096 0-6.355.56-9.044 2.42-2.607 1.862-4.4 4.964-4.4 9.68z"/></g><g style="line-height:1.25;-inkscape-font-specification:'Ostrich Sans, Heavy';font-variant-ligatures:normal;font-variant-caps:normal;font-variant-numeric:normal;font-feature-settings:normal;text-align:start"><path d="M99.857 261.987c-.19-.393-.947-.733-1.658-.733h-1.326c-1.185 0-1.943.55-1.659 1.151l6.728 15.744c.142.418.9.732 1.658.732h.995c.71 0 1.469-.314 1.658-.732l6.728-15.744c.237-.601-.521-1.15-1.658-1.15h-1.374c-.71 0-1.516.34-1.658.732l-4.217 9.964z" aria-label="V" font-weight="900" font-size="35.2" font-family="Ostrich Sans" letter-spacing="0" word-spacing="0" fill="#000" stroke-width=".9"/></g><g style="line-height:1.25;-inkscape-font-specification:'Ostrich Sans, Heavy';font-variant-ligatures:normal;font-variant-caps:normal;font-variant-numeric:normal;font-feature-settings:normal;text-align:start"><path d="M169.04 261.02c-.19-.391-.948-.731-1.659-.731h-1.326c-1.185 0-1.943.549-1.658 1.15l6.727 15.744c.142.418.9.732 1.659.732h.994c.711 0 1.47-.314 1.659-.732l6.727-15.744c.237-.601-.52-1.15-1.658-1.15h-1.374c-.71 0-1.516.34-1.658.732l-4.217 9.964z" aria-label="V" font-weight="900" font-size="35.2" font-family="Ostrich Sans" letter-spacing="0" word-spacing="0" fill="#000" stroke-width=".9"/></g><g style="line-height:1.25;-inkscape-font-specification:'Ostrich Sans, Heavy';font-variant-ligatures:normal;font-variant-caps:normal;font-variant-numeric:normal;font-feature-settings:normal;text-align:start"><path d="M236.203 261.69c-.19-.393-.948-.733-1.658-.733h-1.327c-1.184 0-1.942.55-1.658 1.151l6.728 15.744c.142.418.9.732 1.658.732h.995c.71 0 1.469-.314 1.658-.732l6.728-15.744c.237-.602-.521-1.15-1.659-1.15h-1.373c-.711 0-1.517.34-1.659.732l-4.216 9.964z" aria-label="V" font-weight="900" font-size="35.2" font-family="Ostrich Sans" letter-spacing="0" word-spacing="0" fill="#000" stroke-width=".9"/></g><path d="M134 316.3c0 3.3 2 5 5.8 5s5.8-1.6 5.8-4.4c0-2.5-2.3-3.7-4.7-5-1.7-1-3.4-2-3.4-3.3 0-1.3.8-1.9 2.3-1.9 1.6 0 2.3.8 2.3 2.5v.3c0 .5.6 1 1.3 1h1c.7 0 1.2-.5 1.2-1v-.3c0-3.2-2-5-5.8-5-3.7 0-5.8 1.7-5.8 4.5 0 2.5 2.4 3.9 4.8 5.2 1.7 1 3.3 1.9 3.3 3 0 1.4-.8 1.8-2.3 1.8-.5 0-1 0-1.5-.3s-.8-.9-.8-2v-.4c0-.5-.6-1-1.3-1h-1c-.7 0-1.2.5-1.2 1zm13.8.3c0 2.7 1.6 4.6 5.8 4.6 4.1 0 5.8-1.8 5.8-4.6v-11.5c0-.5-.6-.9-1.3-.9h-1c-.6 0-1.2.4-1.2 1v11.4c0 1.2-.5 2.1-2.3 2.1-1.7 0-2.3-.8-2.3-2V305c0-.5-.6-.9-1.3-.9h-1c-.6 0-1.2.4-1.2 1zm19.7 4.7c4.1 0 6-1.7 6-5 0-1.5-.7-2.7-1.6-3.6 0 0 1.5-1.2 1.5-3.6 0-3.2-1.8-4.9-6-4.9H164c-.7 0-1.3.4-1.3 1v15.1c0 .6.6 1 1.3 1zm0-14.6c1.7 0 2.4.7 2.4 2.4s-.7 2.4-2.4 2.4h-1.3v-4.8zm0 7.3c1.7 0 2.4.7 2.4 2.4s-.7 2.4-2.4 2.4h-1.3V314zm15.3 7.3c.5 0 1-.4 1.2-.8l1.2-5.6v5.4c0 .6.6 1 1.3 1h1c.7 0 1.2-.4 1.2-1v-15.1c0-.6-.5-1-1.2-1h-1.1c-.5 0-1.1.4-1.2.8l-2.8 10.1-2.8-10.1c0-.4-.7-.8-1.2-.8h-1c-.8 0-1.3.4-1.3 1v15.1c0 .6.5 1 1.3 1h1c.6 0 1.2-.4 1.2-1V315l1.2 5.6c.1.4.7.8 1.2.8zm12.4-16.1c0-.6-.6-1-1.3-1h-1c-.7 0-1.2.4-1.2 1v15.1c0 .6.5 1 1.2 1h1c.7 0 1.3-.4 1.3-1zm2.3.6c0 .5.5 1 1.2 1h3v13.5c0 .5.5 1 1.2 1h1c.6 0 1.2-.5 1.2-1v-13.6h2.9c.7 0 1.3-.4 1.3-.9v-.7c0-.5-.6-.9-1.3-.9h-9.3c-.7 0-1.2.4-1.2 1z" fill="#000" stroke-width=".7" aria-label="Submit" font-family="Ostrich Sans" font-size="29.9" font-weight="900" letter-spacing="0" word-spacing="0"/></svg>