<svg xmlns="http://www.w3.org/2000/svg" fill="none" viewBox="0 0 348 348"><path stroke="#000" stroke-width="4" d="M263.7 44.8a31.1 31.1 0 0 1 31.7-30.4c8.4 0 16.5 3.2 22.5 9 6 5.6 9.3 13.4 9.3 21.4a31.1 31.1 0 0 1-31.8 30.5 31.1 31.1 0 0 1-31.7-30.5z"/><path stroke="#000" stroke-width="2" d="M5 5.7h337v337.6H5z"/><path stroke="#000" stroke-width="4" d="M31.6 106h279v129.9h-279z"/><path stroke="#000" stroke-width="3.1" d="M56.2 121.8h229.9v98.3H56.2z"/><path stroke="#000" stroke-width="1.4" d="M78.3 129.2h51v82.9h-51zM147.2 129.3h51v82.9h-51zM214.3 129.2h51v82.9h-51z"/><text x="113.6" y="154.9" fill="#000" stroke-width="2" font-family="Calibri" font-size="78.3" font-weight="700" letter-spacing="0" style="line-height:1.25;-inkscape-font-specification:'Calibri, Bold';font-variant-ligatures:normal;font-variant-caps:normal;font-variant-numeric:normal;font-feature-settings:normal;text-align:start" transform="scale(.7675 1.30292)" word-spacing="0"><tspan x="113.6" y="154.9">X</tspan></text><text x="203.8" y="154.7" fill="#000" stroke-width="2" font-family="Calibri" font-size="78.3" font-weight="700" letter-spacing="0" style="line-height:1.25;-inkscape-font-specification:'Calibri, Bold';font-variant-ligatures:normal;font-variant-caps:normal;font-variant-numeric:normal;font-feature-settings:normal;text-align:start" transform="scale(.7675 1.30292)" word-spacing="0"><tspan x="203.8" y="154.7">X</tspan></text><text x="291.4" y="154" fill="#000" stroke-width="2" font-family="Calibri" font-size="78.3" font-weight="700" letter-spacing="0" style="line-height:1.25;-inkscape-font-specification:'Calibri, Bold';font-variant-ligatures:normal;font-variant-caps:normal;font-variant-numeric:normal;font-feature-settings:normal;text-align:start" transform="scale(.7675 1.30292)" word-spacing="0"><tspan x="291.4" y="154">X</tspan></text><path stroke="#000" stroke-width="3.4" d="M77.3 252.8h54.4v35H77.3zM145.9 252.7h54.4v35h-54.4zM213.7 252.5h54.4v35h-54.4zM126.1 298.6h89.6v29.7h-89.6zM48.7 22.8H240v63.7H48.7z"/><text x="55.7" y="85.1" fill="#000" stroke-width="1.8" font-family="Ostrich Sans" font-size="71.1" font-weight="900" letter-spacing="0" style="line-height:1.25;-inkscape-font-specification:'Ostrich Sans, Heavy';font-variant-ligatures:normal;font-variant-caps:normal;font-variant-numeric:normal;font-feature-settings:normal;text-align:start" transform="scale(1.14598 .87262)" word-spacing="0"><tspan x="55.7" y="85.1">A+B+C</tspan></text><text x="70.6" y="375.4" fill="#000" stroke-width=".9" font-family="Ostrich Sans" font-size="35.2" font-weight="900" letter-spacing="0" style="line-height:1.25;-inkscape-font-specification:'Ostrich Sans, Heavy';font-variant-ligatures:normal;font-variant-caps:normal;font-variant-numeric:normal;font-feature-settings:normal;text-align:start" transform="scale(1.34596 .74296)" word-spacing="0"><tspan x="70.6" y="375.4">V</tspan></text><text x="122" y="374.1" fill="#000" stroke-width=".9" font-family="Ostrich Sans" font-size="35.2" font-weight="900" letter-spacing="0" style="line-height:1.25;-inkscape-font-specification:'Ostrich Sans, Heavy';font-variant-ligatures:normal;font-variant-caps:normal;font-variant-numeric:normal;font-feature-settings:normal;text-align:start" transform="scale(1.34596 .74296)" word-spacing="0"><tspan x="122" y="374.1">V</tspan></text><text x="171.9" y="375" fill="#000" stroke-width=".9" font-family="Ostrich Sans" font-size="35.2" font-weight="900" letter-spacing="0" style="line-height:1.25;-inkscape-font-specification:'Ostrich Sans, Heavy';font-variant-ligatures:normal;font-variant-caps:normal;font-variant-numeric:normal;font-feature-settings:normal;text-align:start" transform="scale(1.34596 .74296)" word-spacing="0"><tspan x="171.9" y="375">V</tspan></text><g fill="#000" stroke-width=".7" aria-label="Submit" font-family="Ostrich Sans" font-size="29.9" font-weight="900" letter-spacing="0" style="line-height:1.25;-inkscape-font-specification:'Ostrich Sans, Heavy';font-variant-ligatures:normal;font-variant-caps:normal;font-variant-numeric:normal;font-feature-settings:normal;text-align:start" word-spacing="0"><path d="M134 316.3c0 3.3 2 5 5.8 5s5.8-1.6 5.8-4.4c0-2.5-2.3-3.7-4.7-5-1.7-1-3.4-2-3.4-3.3 0-1.3.8-1.9 2.3-1.9 1.6 0 2.3.8 2.3 2.5v.3c0 .5.6 1 1.3 1h1c.7 0 1.2-.5 1.2-1v-.3c0-3.2-2-5-5.8-5-3.7 0-5.8 1.7-5.8 4.5 0 2.5 2.4 3.9 4.8 5.2 1.7 1 3.3 1.9 3.3 3 0 1.4-.8 1.8-2.3 1.8-.5 0-1 0-1.5-.3s-.8-.9-.8-2v-.4c0-.5-.6-1-1.3-1h-1c-.7 0-1.2.5-1.2 1zM147.8 316.6c0 2.7 1.6 4.6 5.8 4.6 4.1 0 5.8-1.8 5.8-4.6v-11.5c0-.5-.6-.9-1.3-.9h-1c-.6 0-1.2.4-1.2 1v11.4c0 1.2-.5 2.1-2.3 2.1-1.7 0-2.3-.8-2.3-2V305c0-.5-.6-.9-1.3-.9h-1c-.6 0-1.2.4-1.2 1zM167.5 321.3c4.1 0 6-1.7 6-5 0-1.5-.7-2.7-1.6-3.6 0 0 1.5-1.2 1.5-3.6 0-3.2-1.8-4.9-6-4.9H164c-.7 0-1.3.4-1.3 1v15.1c0 .6.6 1 1.3 1zm0-14.6c1.7 0 2.4.7 2.4 2.4s-.7 2.4-2.4 2.4h-1.3v-4.8zm0 7.3c1.7 0 2.4.7 2.4 2.4s-.7 2.4-2.4 2.4h-1.3V314zM182.8 321.3c.5 0 1-.4 1.2-.8l1.2-5.6v5.4c0 .6.6 1 1.3 1h1c.7 0 1.2-.4 1.2-1v-15.1c0-.6-.5-1-1.2-1h-1.1c-.5 0-1.1.4-1.2.8l-2.8 10.1-2.8-10.1c0-.4-.7-.8-1.2-.8h-1c-.8 0-1.3.4-1.3 1v15.1c0 .6.5 1 1.3 1h1c.6 0 1.2-.4 1.2-1V315l1.2 5.6c.1.4.7.8 1.2.8zM195.2 305.2c0-.6-.6-1-1.3-1h-1c-.7 0-1.2.4-1.2 1v15.1c0 .6.5 1 1.2 1h1c.7 0 1.3-.4 1.3-1zM197.5 305.8c0 .5.5 1 1.2 1h3v13.5c0 .5.5 1 1.2 1h1c.6 0 1.2-.5 1.2-1v-13.6h2.9c.7 0 1.3-.4 1.3-.9v-.7c0-.5-.6-.9-1.3-.9h-9.3c-.7 0-1.2.4-1.2 1z"/></g></svg>