<svg xmlns="http://www.w3.org/2000/svg" fill="none" viewBox="0 0 348 348"><path stroke="#000" stroke-width="3.5" d="M274 48.3c0-15 11.8-27 26.3-27a26 26 0 0 1 18.6 8c5 5 7.7 11.8 7.7 19 0 14.9-11.7 27-26.3 27-14.5 0-26.2-12.1-26.2-27z"/><path fill="#000" fill-rule="evenodd" d="M18.9 191.5h220.5v134H18.9z"/><g fill="#000" aria-label="Solves Order" font-family="Ostrich Sans" font-size="39.5" font-weight="900" letter-spacing="0" style="line-height:1.25;-inkscape-font-specification:'Ostrich Sans, Heavy';font-variant-ligatures:normal;font-variant-caps:normal;font-variant-numeric:normal;font-feature-settings:normal;text-align:center" text-anchor="middle" word-spacing="0"><path d="M42.4 175.2c0 5.6 2 8.3 6.1 8.3 4 0 6-2.6 6-7.3 0-4.1-2.4-6.3-4.8-8.4-1.8-1.6-3.6-3.3-3.6-5.4 0-2.2.8-3.2 2.4-3.2 1.6 0 2.4 1.3 2.4 4v.7c0 .8.6 1.5 1.3 1.5h1c.8 0 1.4-.7 1.4-1.5v-.6c0-5.4-2.1-8.3-6.1-8.3-4 0-6 2.7-6 7.5 0 4.2 2.5 6.5 4.9 8.7 1.8 1.5 3.5 3.1 3.5 5 0 2.3-.9 3-2.4 3-.5 0-1.1 0-1.6-.5s-.8-1.4-.8-3.5v-.5c0-.9-.6-1.5-1.3-1.5h-1c-.8 0-1.4.6-1.4 1.5zM57.1 175.2c0 3.4.8 5.3 2 6.6a5.3 5.3 0 0 0 4 1.7c1.4 0 3-.3 4.2-1.7 1.1-1.3 2-3.2 2-6.6v-12c0-5.3-2-8.2-6.1-8.2-4 0-6 3-6 8.3zm3.7-12c0-2.7.7-4 2.4-4 1.6 0 2.3 1.2 2.3 4v12c0 2.9-.8 4.1-2.3 4.1-1.6 0-2.4-1.3-2.4-4zM82.4 180.9c0-.9-.6-1.6-1.4-1.6h-5.5v-22.8c0-.8-.5-1.5-1.2-1.5h-1.1c-.8 0-1.3.7-1.3 1.5V182c0 .8.5 1.5 1.3 1.5H81c.8 0 1.4-.7 1.4-1.5zM88.2 156.2c-.1-.7-.7-1.2-1.2-1.2h-1c-1 0-1.6.9-1.4 1.8l5.3 25.5c0 .7.7 1.2 1.3 1.2h.7c.6 0 1.2-.5 1.3-1.2l5.3-25.5c.2-1-.4-1.8-1.3-1.8h-1c-.6 0-1.3.5-1.4 1.2l-3.3 16zM101.9 155c-.7 0-1.3.7-1.3 1.5V182c0 .8.6 1.5 1.3 1.5h8c.7 0 1.3-.7 1.3-1.5v-1.1c0-.9-.6-1.6-1.3-1.6h-5.7v-8h4.7c.7 0 1.3-.6 1.3-1.5v-1.1c0-.9-.6-1.5-1.3-1.5h-4.7v-8h5.7c.7 0 1.3-.7 1.3-1.5v-1.2c0-.8-.6-1.5-1.3-1.5zM112.5 175.2c0 5.6 2 8.3 6 8.3s6.2-2.6 6.2-7.3c0-4.1-2.5-6.3-5-8.4h.1c-1.8-1.6-3.6-3.3-3.6-5.4 0-2.2.8-3.2 2.4-3.2 1.6 0 2.4 1.3 2.4 4v.7c0 .8.6 1.5 1.3 1.5h1c.8 0 1.4-.7 1.4-1.5v-.6c0-5.4-2.1-8.3-6.1-8.3-4 0-6.1 2.7-6.1 7.5 0 4.2 2.5 6.5 5 8.7 1.8 1.5 3.5 3.1 3.5 5 0 2.3-.9 3-2.4 3-.5 0-1.2 0-1.6-.5-.5-.5-.8-1.4-.8-3.5v-.5c0-.9-.6-1.5-1.3-1.5h-1c-.8 0-1.4.6-1.4 1.5zM135 175.2c0 3.4.8 5.3 2 6.6a5.3 5.3 0 0 0 4 1.7c1.4 0 3-.3 4.2-1.7 1.1-1.3 1.9-3.2 1.9-6.6v-12c0-5.3-2-8.2-6-8.2s-6.1 3-6.1 8.3zm3.7-12c0-2.7.7-4 2.3-4 1.6 0 2.4 1.2 2.4 4v12c0 2.9-.8 4.1-2.4 4.1-1.5 0-2.3-1.3-2.3-4zM161.9 174.9a8 8 0 0 0-1.6-5.2l.3-.4c1.1-1.3 1.5-3.4 1.5-6 0-5.7-1.6-8.3-6-8.3h-4.7c-.8 0-1.4.7-1.4 1.5V182c0 .8.6 1.5 1.4 1.5h1c.7 0 1.3-.7 1.3-1.5v-10.4h1.6c1.9 0 2.9 1.2 2.9 3.3v7c0 .9.6 1.6 1.3 1.6h1c.8 0 1.4-.7 1.4-1.5zm-8.2-15.7h2.3c2 0 2.5 1.2 2.5 4 0 3-1 4.1-3.2 4.1h-1.6zM169.9 183.5c4.4 0 6.5-2.9 6.5-8.4v-11.7c0-5.5-2.1-8.4-6.5-8.4H166c-.7 0-1.3.7-1.3 1.5V182c0 .8.6 1.5 1.3 1.5zm0-24.3c2 0 2.7 1.4 2.7 4.2V175c0 2.9-.8 4.2-2.7 4.2h-1.5v-20zM180.7 155c-.7 0-1.3.7-1.3 1.5V182c0 .8.6 1.5 1.3 1.5h8c.7 0 1.3-.7 1.3-1.5v-1.1c0-.9-.6-1.6-1.3-1.6H183v-8h4.7c.7 0 1.3-.6 1.3-1.5v-1.1c0-.9-.6-1.5-1.3-1.5H183v-8h5.7c.7 0 1.3-.7 1.3-1.5v-1.2c0-.8-.6-1.5-1.3-1.5zM204.4 174.9a8 8 0 0 0-1.6-5.2c0-.2.1-.3.3-.4 1.1-1.3 1.5-3.4 1.5-6 0-5.7-1.6-8.3-6.1-8.3h-4.7c-.7 0-1.3.7-1.3 1.5V182c0 .8.6 1.5 1.3 1.5h1c.8 0 1.4-.7 1.4-1.5v-10.4h1.6c1.8 0 2.9 1.2 2.9 3.3v7c0 .9.5 1.6 1.3 1.6h1c.8 0 1.4-.7 1.4-1.5zm-8.2-15.7h2.3c1.9 0 2.5 1.2 2.5 4 0 3-1.1 4.1-3.2 4.1h-1.6z"/></g><g fill="#000" stroke-width=".8" aria-label="Modules left" font-family="Ostrich Sans" font-size="30.5" font-weight="900" letter-spacing="0" style="line-height:1.25;-inkscape-font-specification:'Ostrich Sans, Heavy';font-variant-ligatures:normal;font-variant-caps:normal;font-variant-numeric:normal;font-feature-settings:normal;text-align:center" text-anchor="middle" word-spacing="0"><path d="M29.3 38.1c.6 0 1.2-.3 1.3-.7l1.3-5.6v5.4c0 .5.5 1 1.3 1h1c.8 0 1.3-.5 1.3-1V22.1c0-.5-.5-1-1.3-1h-1c-.6 0-1.3.4-1.4.8L29 32 26 22c0-.4-.7-.7-1.2-.7h-1.1c-.8 0-1.4.4-1.4.9v15.1c0 .5.6 1 1.4 1h1c.7 0 1.3-.5 1.3-1v-5.4l1.3 5.6c0 .4.7.7 1.2.7zM38.8 33.2c0 2 .8 3.2 2 4 1.1.7 2.7 1 4 1 1.4 0 3-.3 4.2-1 1.1-.8 1.9-2 1.9-4v-7.1c0-3.2-2-5-6-5-4.1 0-6.1 1.8-6.1 5zm3.7-7.1c0-1.7.7-2.4 2.3-2.4 1.6 0 2.4.7 2.4 2.4v7.1c0 1.7-.8 2.5-2.4 2.5-1.6 0-2.3-.8-2.3-2.5zM59 38.1c4.4 0 6.4-1.7 6.4-5v-7c0-3.2-2-5-6.5-5h-3.7c-.8 0-1.4.5-1.4 1v15.1c0 .5.6 1 1.4 1zm0-14.4c1.9 0 2.7.8 2.7 2.5v7c0 1.6-.8 2.5-2.8 2.5h-1.4v-12zM68.2 33.5c0 2.7 1.6 4.6 6 4.6s6.1-1.8 6.1-4.6V22.1c0-.5-.6-1-1.3-1h-1c-.7 0-1.3.5-1.3 1v11.4c0 1.2-.5 2.1-2.4 2.1-1.8 0-2.4-.8-2.4-2V22c0-.5-.6-1-1.4-1h-1c-.7 0-1.3.5-1.3 1zM93.8 36.6c0-.5-.6-1-1.3-1H87V22.2c0-.5-.6-1-1.3-1h-1c-.8 0-1.4.5-1.4 1v15.1c0 .5.6 1 1.3 1h7.9c.7 0 1.3-.5 1.3-1zM97.2 21.2c-.7 0-1.3.4-1.3.9v15.1c0 .5.6 1 1.3 1h8c.8 0 1.4-.5 1.4-1v-.6c0-.5-.6-1-1.4-1h-5.6V31h4.6c.8 0 1.4-.4 1.4-1v-.6c0-.5-.6-.9-1.4-.9h-4.6v-4.7h5.6c.8 0 1.4-.4 1.4-1v-.6c0-.5-.6-1-1.4-1zM107.9 33.2c0 3.3 2 5 6 5s6.1-1.6 6.1-4.4c0-2.5-2.4-3.7-4.9-5-1.7-1-3.6-2-3.6-3.2 0-1.4.9-2 2.4-2 1.7 0 2.4.8 2.4 2.5v.3c0 .5.6 1 1.4 1h1c.7 0 1.3-.5 1.3-1v-.3c0-3.2-2-5-6-5s-6.1 1.7-6.1 4.5c0 2.5 2.5 3.9 5 5.2 1.7 1 3.4 1.9 3.4 3 0 1.4-.8 1.8-2.4 1.8-.5 0-1.1 0-1.5-.3-.5-.3-.9-.9-.9-2v-.4c0-.5-.6-1-1.3-1h-1c-.8 0-1.3.5-1.3 1zM56 68c0-.5-.6-.9-1.3-.9h-5.5V53.6c0-.5-.6-1-1.3-1h-1c-.8 0-1.4.5-1.4 1v15.1c0 .5.6 1 1.3 1h7.9c.7 0 1.3-.5 1.3-1zM59.5 52.7c-.8 0-1.4.4-1.4.9v15.1c0 .5.6 1 1.4 1h8c.7 0 1.3-.5 1.3-1V68c0-.5-.6-.9-1.4-.9h-5.6v-4.7h4.6c.8 0 1.4-.4 1.4-1v-.6c0-.5-.6-1-1.4-1h-4.6v-4.7h5.6c.8 0 1.4-.4 1.4-.9v-.6c0-.5-.6-1-1.4-1zM72.4 52.7c-.7 0-1.3.4-1.3.9v15.1c0 .5.6 1 1.3 1h1c.7 0 1.4-.5 1.4-1v-6.3h4.1c.7 0 1.3-.4 1.3-1v-.6c0-.5-.6-1-1.3-1h-4.1v-4.7h5.6c.7 0 1.3-.4 1.3-.9v-.6c0-.5-.6-1-1.3-1zM84.3 54.2c0 .5.6 1 1.3 1h3v13.5c0 .5.6.9 1.3.9h1c.8 0 1.3-.4 1.3-.9V55.1h3c.8 0 1.4-.4 1.4-.9v-.7c0-.5-.6-.9-1.3-.9h-9.7c-.7 0-1.3.4-1.3 1z"/></g><g fill="#000" stroke-width=".8" aria-label="Current strikes" font-family="Ostrich Sans" font-size="30.5" font-weight="900" letter-spacing="0" style="line-height:1.25;-inkscape-font-specification:'Ostrich Sans, Heavy';font-variant-ligatures:normal;font-variant-caps:normal;font-variant-numeric:normal;font-feature-settings:normal;text-align:center" text-anchor="middle" word-spacing="0"><path d="M153.6 30.4c0 2 .8 3.2 2 4 1.2.8 2.7 1 4 1 1.4 0 3-.2 4.2-1 1.1-.8 1.9-2 1.9-4v-.3c0-.5-.6-1-1.3-1h-1c-.8 0-1.4.5-1.4 1v.3c0 1-.2 1.6-.6 2a3 3 0 0 1-1.7.5c-1.6 0-2.4-.8-2.4-2.5v-7.1c0-1.7.8-2.4 2.4-2.4 1.5 0 2.3.7 2.3 2.4v.3c0 .5.6 1 1.3 1h1.1c.7 0 1.3-.5 1.3-1v-.3c0-2-.8-3.2-2-4-1.2-.7-2.7-1-4-1-1.4 0-2.9.3-4.1 1-1.2.8-2 2-2 4zM168 30.7c0 2.7 1.6 4.6 6 4.6 4.3 0 6-1.8 6-4.6V19.3c0-.5-.5-1-1.3-1h-1c-.7 0-1.3.5-1.3 1v11.4c0 1.2-.5 2.1-2.4 2.1-1.8 0-2.4-.7-2.4-2V19.2c0-.5-.6-1-1.3-1h-1c-.7 0-1.3.5-1.3 1zM195.2 30.2c0-1.3-.5-2.3-1.6-3.1l.3-.2c1.1-.8 1.5-2 1.5-3.6 0-3.4-1.5-5-6-5h-4.7c-.8 0-1.4.5-1.4 1v15.1c0 .5.6 1 1.4 1h1c.7 0 1.3-.5 1.3-1v-6.1h1.6c1.9 0 2.9.7 2.9 2v4.1c0 .5.6 1 1.3 1h1c.8 0 1.4-.5 1.4-1zM187 21h2.3c2 0 2.5.7 2.5 2.4s-1 2.4-3.2 2.4H187zM209.9 30.2c0-1.3-.5-2.3-1.6-3.1l.3-.2c1.1-.8 1.6-2 1.6-3.6 0-3.4-1.6-5-6.2-5h-4.6c-.8 0-1.4.5-1.4 1v15.1c0 .5.6 1 1.4 1h1c.7 0 1.3-.5 1.3-1v-6.1h1.7c1.8 0 2.8.7 2.8 2v4.1c0 .5.6 1 1.3 1h1c.8 0 1.4-.5 1.4-1zm-8.2-9.3h2.3c2 0 2.5.7 2.5 2.4s-1 2.4-3.1 2.4h-1.7zM214 18.4c-.7 0-1.3.4-1.3.9v15.1c0 .5.6 1 1.3 1h8c.7 0 1.3-.5 1.3-1v-.6c0-.5-.6-1-1.3-1h-5.7v-4.7h4.7c.7 0 1.3-.4 1.3-1v-.6c0-.5-.6-.9-1.3-.9h-4.7V21h5.7c.7 0 1.3-.4 1.3-1v-.6c0-.5-.6-1-1.3-1zM236.7 35.4c.7 0 1.3-.5 1.3-1V19.3c0-.5-.6-1-1.3-1h-1c-.8 0-1.4.5-1.4 1v8.3l-5.1-8.7c-.2-.2-.8-.5-1.3-.5h-.8c-.7 0-1.4.4-1.4.9v15.1c0 .5.7 1 1.4 1h1c.7 0 1.4-.5 1.4-1v-8.3l5 8.7c.2.3.9.6 1.3.6zM240.8 20c0 .5.6.9 1.3.9h3v13.5c0 .5.6 1 1.3 1h1c.7 0 1.3-.5 1.3-1V21h3c.8 0 1.4-.4 1.4-1v-.6c0-.5-.6-1-1.3-1H242c-.7 0-1.3.5-1.3 1zM159.2 61.9c0 3.3 2 5 6.1 5 4 0 6-1.6 6-4.4 0-2.5-2.4-3.8-4.8-5-1.8-1-3.6-2-3.6-3.3 0-1.3.9-1.8 2.4-1.8 1.6 0 2.4.7 2.4 2.4v.3c0 .5.6 1 1.3 1h1c.8 0 1.4-.5 1.4-1v-.3c0-3.2-2.1-5-6.1-5-4 0-6 1.7-6 4.5 0 2.5 2.5 3.9 4.9 5.2 1.8 1 3.5 1.8 3.5 3 0 1.4-.8 1.8-2.4 1.8-.5 0-1.1 0-1.5-.3-.6-.3-.9-.9-.9-2.1v-.3c0-.5-.6-1-1.3-1h-1c-.8 0-1.4.5-1.4 1zM172.7 51.4c0 .5.6 1 1.3 1h3v13.5c0 .5.6 1 1.3 1h1c.8 0 1.4-.5 1.4-1V52.4h3c.7 0 1.3-.5 1.3-1v-.7c0-.5-.6-.9-1.3-.9H174c-.7 0-1.3.4-1.3 1zM199.5 61.7c0-1.3-.5-2.3-1.6-3.1l.3-.2c1.2-.8 1.6-2 1.6-3.6 0-3.4-1.6-5-6.2-5H189c-.8 0-1.3.4-1.3 1v15.1c0 .5.5 1 1.3 1h1c.7 0 1.3-.5 1.3-1v-6.2h1.7c1.8 0 2.8.7 2.8 2v4.2c0 .5.6 1 1.3 1h1c.8 0 1.4-.5 1.4-1zm-8.2-9.3h2.3c2 0 2.5.7 2.5 2.4s-1 2.4-3.1 2.4h-1.7zM205.9 50.8c0-.5-.7-1-1.4-1h-1c-.7 0-1.3.5-1.3 1v15.1c0 .5.6 1 1.3 1h1c.7 0 1.4-.5 1.4-1zM212 56.2v-5.4c0-.5-.5-1-1.3-1h-1c-.8 0-1.3.5-1.3 1v15.1c0 .5.5 1 1.3 1h1c.8 0 1.3-.5 1.3-1v-5l.5-.4 5 5.9c.1.2.7.4 1 .4h1.3c1 0 1.7-.7 1.1-1.3l-6.2-7.5 6.2-6.8c.6-.6 0-1.3-1.1-1.3h-1.3c-.4 0-1 .2-1.1.4zM224.8 49.9c-.7 0-1.3.4-1.3.9v15.1c0 .5.6 1 1.3 1h8c.7 0 1.3-.5 1.3-1v-.7c0-.5-.6-.9-1.3-.9h-5.7v-4.7h4.7c.7 0 1.3-.4 1.3-1V58c0-.5-.6-1-1.3-1h-4.7v-4.6h5.7c.7 0 1.3-.5 1.3-1v-.6c0-.5-.6-1-1.3-1zM235.4 61.9c0 3.3 2 5 6.1 5 4 0 6.1-1.6 6.1-4.4 0-2.5-2.5-3.8-4.9-5-1.8-1-3.6-2-3.6-3.3 0-1.3.9-1.8 2.4-1.8 1.6 0 2.4.7 2.4 2.4v.3c0 .5.6 1 1.4 1h1c.7 0 1.3-.5 1.3-1v-.3c0-3.2-2-5-6-5s-6.2 1.7-6.2 4.5c0 2.5 2.6 3.9 5 5.2 1.8 1 3.5 1.8 3.5 3 0 1.4-.8 1.8-2.4 1.8-.5 0-1.1 0-1.5-.3-.5-.3-.9-.9-.9-2.1v-.3c0-.5-.6-1-1.3-1h-1c-.8 0-1.4.5-1.4 1z"/></g><path fill="#000" fill-rule="evenodd" d="M28.3 73.7h81.8v76.6H28.3zM162.6 72.1h81.8v76.6h-81.8z"/><path fill="#fff" stroke-width="1.7" style="stroke-width:1.74763012" d="M196.1 128h13.8l3.6 3.4-3.6 3.3H196l-3.5-3.3zm-.6-14.2v13.5l-3.4 3.5-3.5-3.5v-13.4l3.5-3.5zM217.3 92v13.4l-3.5 3.5-3.5-3.5V92l3.5-3.5zm-22 0v13.4L192 109l-3.4-3.4V92l3.4-3.4zm.8-7.4h13.7l3.6 3.4-3.5 3.3H196l-3.6-3.4zm21.2 29.2v13.5l-3.5 3.5-3.4-3.5v-13.4l3.4-3.5z" aria-label="0" font-family="DJB Get Digital" font-size="69.9" font-weight="400" letter-spacing="0" word-spacing="0"/><path fill="#fff" stroke-width="1.7" style="stroke-width:1.74763012" d="M81.3 90.8V108l-3.6 3.5-3.4-3.4V90.9l3.5-3.5zm-21.9 0V108l-3.5 3.5-3.5-3.5.1-17.1 3.5-3.5zm.5 17.9h13.8l3.6 3.4-3.6 3.3H60l-3.6-3.3zm21.4 7.7v17.2l-3.5 3.5-3.5-3.4v-17.3l3.5-3.5z" aria-label="4" font-family="DJB Get Digital" font-size="69.9" font-weight="400" letter-spacing="0" word-spacing="0"/><rect width="84.9" height="67.2" x="250.3" y="217.2" stroke="#000" stroke-width="3" ry="2.7"/><g fill="#000" stroke-width=".9" aria-label="Submit" font-family="Ostrich Sans" font-size="36.8" font-weight="900" letter-spacing="0" style="line-height:1.25;-inkscape-font-specification:'Ostrich Sans, Heavy';font-variant-ligatures:normal;font-variant-caps:normal;font-variant-numeric:normal;font-feature-settings:normal;text-align:start" word-spacing="0"><path d="M257.6 256.3c0 5.3 1.8 7.8 5.6 7.8 3.5 0 5.5-2.4 5.5-6.9 0-3.8-2.2-5.9-4.5-8-1.6-1.4-3.2-3-3.2-5 0-2.1.7-3 2.2-3 1.4 0 2.2 1.2 2.2 3.8v.6c0 .8.5 1.4 1.2 1.4h1c.6 0 1.1-.6 1.1-1.4v-.6c0-5-1.9-7.8-5.5-7.8s-5.6 2.6-5.6 7c0 4 2.3 6.2 4.5 8.3 1.7 1.5 3.3 3 3.3 4.8 0 2.1-.8 2.9-2.2 2.9-.5 0-1-.1-1.5-.6-.4-.4-.7-1.4-.7-3.3v-.5c0-.8-.6-1.4-1.3-1.4h-1c-.6 0-1.1.6-1.1 1.4zM270.8 256.8c0 4.2 1.5 7.3 5.6 7.3 4 0 5.6-2.8 5.6-7.3v-18.2c0-.8-.6-1.4-1.3-1.4h-1c-.6 0-1.1.6-1.1 1.4v18.2c0 2-.5 3.4-2.2 3.4-1.7 0-2.2-1.3-2.2-3.4v-18.2c0-.8-.6-1.4-1.2-1.4h-1c-.6 0-1.2.6-1.2 1.4zM289.7 264.2c4 0 5.7-2.6 5.7-7.8 0-2.4-.6-4.4-1.4-5.7 0 0 1.4-2 1.4-5.8 0-5.1-1.7-7.7-5.7-7.7h-3.4c-.6 0-1.2.6-1.2 1.4v24.1c0 .8.6 1.5 1.2 1.5zm0-23c1.6 0 2.3 1 2.3 3.7s-.7 3.8-2.3 3.8h-1.2v-7.5zm0 11.4c1.6 0 2.3 1.1 2.3 3.8 0 2.7-.7 3.8-2.3 3.8h-1.2v-7.6zM304.4 264.2c.5 0 1-.6 1.2-1.2l1-8.9v8.6c0 .8.6 1.5 1.3 1.5h1c.6 0 1.2-.7 1.2-1.5v-24c0-.9-.6-1.5-1.2-1.5h-1c-.6 0-1.1.5-1.2 1.1l-2.7 16.1-2.7-16c0-.7-.6-1.2-1.1-1.2h-1c-.7 0-1.3.6-1.3 1.4v24.1c0 .8.6 1.5 1.3 1.5h1c.6 0 1.1-.7 1.1-1.5V254l1.2 9c0 .6.6 1.2 1.1 1.2zM316.3 238.6c0-.8-.6-1.4-1.2-1.4h-1c-.6 0-1.2.6-1.2 1.4v24.1c0 .8.6 1.5 1.2 1.5h1c.6 0 1.2-.7 1.2-1.5zM318.5 239.7c0 .8.5 1.5 1.2 1.5h2.7v21.5c0 .8.6 1.4 1.3 1.4h.9c.7 0 1.2-.6 1.2-1.4v-21.5h2.8c.7 0 1.2-.7 1.2-1.5v-1.1c0-.8-.5-1.4-1.2-1.4h-9c-.6 0-1.1.6-1.1 1.4z"/></g><path stroke="#000" stroke-width="2" d="M5.5 5.2h337v337.6H5.5z"/></svg>