<svg xmlns="http://www.w3.org/2000/svg" viewBox="0 0 6.85 6.85">
  <path d="M3.45 1.68q-.38 0-.72.15-.34.14-.6.4-.25.25-.4.6-.14.33-.14.72v.02l.53-.51h.6l-1.35 1.3h-.01l-1.34-1.3h.6l.44.45q.02-.49.2-.92.2-.43.52-.75.33-.32.76-.5.43-.19.92-.19.5 0 .93.19.44.19.77.51.32.33.5.76.2.44.2.94 0 .49-.2.93-.18.44-.5.76-.33.33-.77.52-.43.18-.93.18-.3 0-.57-.07-.27-.06-.5-.18-.23-.12-.42-.28-.2-.16-.35-.34l.4-.33q.3.33.64.5.35.17.8.17.38 0 .73-.14.34-.15.6-.4.25-.25.4-.6.14-.34.14-.72 0-.4-.15-.73-.14-.34-.4-.59-.25-.25-.6-.4-.33-.15-.73-.15z"/>
</svg>