<svg xmlns="http://www.w3.org/2000/svg" viewBox="0 0 6.85 6.85">
  <path d="M3.41 1.77q-.4 0-.73.15-.34.15-.6.4-.25.25-.4.6-.15.34-.15.72 0 .39.15.73.15.34.4.6.26.24.6.4.34.14.73.14.45 0 .8-.17.34-.17.65-.51l.39.33q-.16.19-.35.34-.2.16-.42.28-.23.12-.5.19t-.58.07q-.5 0-.93-.19-.44-.19-.76-.52-.33-.32-.52-.76-.18-.43-.18-.93t.18-.93q.2-.44.52-.76.32-.33.76-.52.44-.18.93-.18.33 0 .63.08.3.09.57.24.26.15.48.37.22.2.38.47.16.26.24.57.1.3.1.62l.46-.45h.58l-1.33 1.3h-.02l-1.34-1.3h.6l.53.52v-.03q0-.39-.15-.72-.15-.35-.4-.6t-.6-.4q-.34-.15-.72-.15z"/>
</svg>