<svg xmlns="http://www.w3.org/2000/svg" viewBox="0 0 121.6 121.6"><path d="M24.1 94.5a3 3 0 0 0 .9 2.2 3 3 0 0 0 2.1.8h19.4a9.5 9.5 0 0 0 5.4-1.8 11.9 11.9 0 0 0 2.8-3c.2-.3.3-.5.3-.8a1.8 1.8 0 0 0-.4-1.4 2 2 0 0 0-.3-.3l-.6-.4-.6-.3a11.4 11.4 0 0 1-2.6-2.3 8.7 8.7 0 0 1-1.5-2.7 7 7 0 0 1 1.8-7 9.9 9.9 0 0 1 2.3-2 12.5 12.5 0 0 1 4.1-1.7 15.3 15.3 0 0 1 8.3.3 14 14 0 0 1 3.9 2 10.7 10.7 0 0 1 2 2 8.3 8.3 0 0 1 1.2 2.6 7 7 0 0 1-1.5 6.5 9.5 9.5 0 0 1-2.5 2.3l-.7.3-.5.4a2 2 0 0 0-.4.3 1.8 1.8 0 0 0-.4 1.4c0 .3.2.5.3.8l.6.8a13.5 13.5 0 0 0 3.2 2.8 10 10 0 0 0 4.4 1.2h19.4a3 3 0 0 0 2.5-1.3 3 3 0 0 0 .5-1.7V75.1a9.5 9.5 0 0 0-1.8-5.3 11.9 11.9 0 0 0-3-2.9l-.8-.3a1.8 1.8 0 0 0-1.4.4 2 2 0 0 0-.3.4l-.4.5-.3.7a11.4 11.4 0 0 1-2.3 2.5 8.7 8.7 0 0 1-2.7 1.5 7 7 0 0 1-7-1.8 9.9 9.9 0 0 1-2-2.3 12.5 12.5 0 0 1-1.7-4 15.3 15.3 0 0 1 .3-8.4 14 14 0 0 1 2-3.8 10.7 10.7 0 0 1 2-2 8.3 8.3 0 0 1 2.6-1.3 7 7 0 0 1 6.5 1.5 9.5 9.5 0 0 1 2.3 2.6 12.6 12.6 0 0 0 .7 1.2l.3.3.7.4h.7c.3 0 .5-.1.8-.3l.8-.5a13.5 13.5 0 0 0 2.8-3.2 10 10 0 0 0 1.2-4.5V27.1a3 3 0 0 0-1.3-2.5 3 3 0 0 0-1.7-.5H27.1a3 3 0 0 0-2.1.9 3 3 0 0 0-1 2v48z"/></svg>