<svg xmlns="http://www.w3.org/2000/svg" viewBox="0 0 121.6 121.6"><path d="M60.8 121.6a16.2 16.2 0 0 0 6.8-1.5 12.5 12.5 0 0 0 3.2-2.5 9 9 0 0 0 1.5-2.3 7.3 7.3 0 0 0 .5-3.7 7 7 0 0 0-1-2.9 8.7 8.7 0 0 0-2.3-2.4l-1-.7-.6-.4c-.2 0-.4-.2-.5-.3a2 2 0 0 1-.4-.4l-.3-.6c0-.3-.1-.5 0-.8 0-.2 0-.5.2-.7l.6-.9a13.5 13.5 0 0 1 3.2-2.7 10 10 0 0 1 4.4-1.3h19.4a3 3 0 0 0 2.2-.8 3 3 0 0 0 .8-2.2V27.1a3 3 0 0 0-1.3-2.5 3 3 0 0 0-1.7-.5H75.1a9.5 9.5 0 0 0-6.2 2.5l-1.4 1.5-.6.8-.3.8a1.8 1.8 0 0 0 .4 1.4l.4.4.5.3.7.4a11.4 11.4 0 0 1 2.5 2.2 8.7 8.7 0 0 1 1.5 2.8 7 7 0 0 1-1.8 7 9.9 9.9 0 0 1-2.3 2 12.5 12.5 0 0 1-4 1.6 15.3 15.3 0 0 1-13-2.9 9.9 9.9 0 0 1-1.8-2.2 7.7 7.7 0 0 1-.9-2.6 7 7 0 0 1 1-4.8 8.7 8.7 0 0 1 2.3-2.4l1-.7.6-.4.6-.3.3-.4.4-.7v-.7c0-.3-.1-.5-.3-.8l-.5-.8a13.5 13.5 0 0 0-3.2-2.7 10 10 0 0 0-4.5-1.3H27.1a3 3 0 0 0-2.5 1.3 3 3 0 0 0-.5 1.7v19.4A9.5 9.5 0 0 0 26 52a11.9 11.9 0 0 0 3 2.8c.2.2.4.3.7.3a1.8 1.8 0 0 0 1.4-.4l.4-.3.3-.6.4-.6a11.4 11.4 0 0 1 2.2-2.6 8.7 8.7 0 0 1 2.8-1.5 7 7 0 0 1 6.3 1.2 9 9 0 0 1 2 2 11.6 11.6 0 0 1 2 4 14.7 14.7 0 0 1 .7 5.9 15.7 15.7 0 0 1-1.5 5.5 12.5 12.5 0 0 1-2.5 3.2 9 9 0 0 1-2.4 1.5 7.3 7.3 0 0 1-3.7.5 7 7 0 0 1-2.8-1 8.7 8.7 0 0 1-2.4-2.3l-.7-1-.4-.6-.3-.5a2 2 0 0 0-.4-.4 1.8 1.8 0 0 0-1.4-.4c-.3 0-.5.2-.8.3l-.8.6a13.5 13.5 0 0 0-2.7 3.2A10 10 0 0 0 24 75v19.4a3 3 0 0 0 .9 2.2 3 3 0 0 0 2.1.8h19.4a9.5 9.5 0 0 1 5.4 1.9 11.9 11.9 0 0 1 2.8 3c.2.2.3.5.3.7a1.8 1.8 0 0 1-.4 1.4l-.3.4-.6.3-.6.4a11.4 11.4 0 0 0-2.6 2.3 8.7 8.7 0 0 0-1.5 2.7 7 7 0 0 0 1.2 6.3 9 9 0 0 0 2 2 11.6 11.6 0 0 0 4 2 14.7 14.7 0 0 0 4.6.7z"/></svg>