<svg xmlns="http://www.w3.org/2000/svg" viewBox="0 0 121.6 121.6"><path d="M60.8 121.6a16.2 16.2 0 0 0 6.8-1.5 12.5 12.5 0 0 0 3.2-2.5 9 9 0 0 0 1.5-2.3 7.3 7.3 0 0 0 .5-3.7 7 7 0 0 0-1-2.9 8.7 8.7 0 0 0-2.3-2.4l-1-.7-.6-.4c-.2 0-.4-.2-.5-.3a2 2 0 0 1-.4-.4l-.3-.6c0-.3-.1-.5 0-.8 0-.2 0-.5.2-.7l.6-.9a13.5 13.5 0 0 1 3.2-2.7 10 10 0 0 1 4.4-1.3h19.4a3 3 0 0 0 2.2-.8 3 3 0 0 0 .8-2.2V75.1a9.5 9.5 0 0 1 1.9-5.3 11.9 11.9 0 0 1 3-2.9l.7-.3a1.8 1.8 0 0 1 1.4.4l.4.4a7.2 7.2 0 0 1 .7 1.2A11.4 11.4 0 0 0 108 71a8.7 8.7 0 0 0 2.7 1.5 7 7 0 0 0 6.3-1.2 9 9 0 0 0 2-2 11.6 11.6 0 0 0 2-3.9 14.7 14.7 0 0 0 .7-6 15.8 15.8 0 0 0-1.5-5.4 12.5 12.5 0 0 0-2.5-3.3 9 9 0 0 0-2.3-1.5 7.3 7.3 0 0 0-3.7-.5 7 7 0 0 0-2.9 1 8.7 8.7 0 0 0-2.4 2.3l-.7 1-.4.6-.3.6a2 2 0 0 1-.4.3l-.6.4h-.8a1 1 0 0 1-.7-.3l-.9-.5a13.5 13.5 0 0 1-2.7-3.2 10 10 0 0 1-1.3-4.5V27.1a3 3 0 0 0-1.3-2.5 3 3 0 0 0-1.7-.5H75.1a9.5 9.5 0 0 0-5.3 1.9 11.9 11.9 0 0 0-2.9 3l-.3.7a1.8 1.8 0 0 0 .4 1.4l.4.4.5.3.7.4a11.4 11.4 0 0 1 2.5 2.2 8.7 8.7 0 0 1 1.5 2.8 7 7 0 0 1-1.2 6.3 9 9 0 0 1-2 2 11.6 11.6 0 0 1-3.9 2 14.7 14.7 0 0 1-6 .7 15.8 15.8 0 0 1-5.4-1.5 12.5 12.5 0 0 1-3.3-2.5 9 9 0 0 1-1.5-2.4 7.3 7.3 0 0 1-.5-3.7 7 7 0 0 1 1-2.8 8.7 8.7 0 0 1 2.3-2.4l1-.7.6-.4.6-.3.3-.4.4-.7v-.7c0-.3-.1-.5-.3-.8l-.5-.8a13.5 13.5 0 0 0-3.2-2.7 10 10 0 0 0-4.5-1.3H27.1a3 3 0 0 0-2.5 1.3 3 3 0 0 0-.5 1.7v19.4a9.5 9.5 0 0 1-1.9 5.4 11.9 11.9 0 0 1-3 2.8 1 1 0 0 1-.7.3 1.8 1.8 0 0 1-1.4-.4 2 2 0 0 1-.3-.3l-.4-.6-.4-.6a11.4 11.4 0 0 0-2.2-2.6A8.7 8.7 0 0 0 11 49a7 7 0 0 0-6.3 1.2 9 9 0 0 0-2.1 2 11.6 11.6 0 0 0-2 4A14.7 14.7 0 0 0 0 62a15.8 15.8 0 0 0 1.6 5.5A12.5 12.5 0 0 0 4 70.8a9 9 0 0 0 2.4 1.5 7.3 7.3 0 0 0 3.7.5 7 7 0 0 0 2.8-1 8.7 8.7 0 0 0 2.5-2.3l.6-1 .4-.6.4-.5c0-.2.2-.3.3-.4.2-.2.5-.3.7-.3h.7c.3 0 .5 0 .8.2l.8.6a13.5 13.5 0 0 1 2.7 3.2 10 10 0 0 1 1.3 4.4v19.4a3 3 0 0 0 .9 2.2 3 3 0 0 0 2.1.8h19.4a9.4 9.4 0 0 1 5.4 1.9 11.9 11.9 0 0 1 2.8 3c.2.2.3.5.3.7a1.8 1.8 0 0 1-.4 1.4l-.3.4a7.2 7.2 0 0 1-1.2.7 11.4 11.4 0 0 0-2.6 2.3 8.7 8.7 0 0 0-1.5 2.7 7 7 0 0 0 1.2 6.3 9 9 0 0 0 2 2 11.6 11.6 0 0 0 4 2 14.7 14.7 0 0 0 4.6.7z"/></svg>