<svg xmlns="http://www.w3.org/2000/svg" fill="none" stroke-linecap="square" stroke-miterlimit="10" viewBox="0 0 288 115"><clipPath id="a"><path d="M0 0h288v115H0V0z"/></clipPath><g clip-path="url(#a)"><path d="M0 0h288v115H0z"/><path fill="#fff" d="M12 8.504h264v98.992H12z"/><path stroke="#000" stroke-linecap="butt" stroke-linejoin="round" stroke-width="2" d="M12 8.504h264v98.992H12z"/><path fill="#000" d="M18.666 15.033h251.627v86.35H18.666z"/><path stroke="#000" stroke-linecap="butt" stroke-linejoin="round" stroke-width="3.332" d="M18.666 15.033h251.627v86.35H18.666z"/><g aria-label="000 000." style="line-height:125%;-inkscape-font-specification:'DSEG14 Classic, Normal';font-variant-ligatures:normal;font-variant-caps:normal;font-variant-numeric:normal;font-feature-settings:normal;text-align:start" font-weight="400" font-size="37.333" font-family="DSEG14 Classic" letter-spacing="0" word-spacing="0" fill="#fff" stroke-linecap="butt"><path d="M83.805 43.69h.97v5.265l-3.882 6.682h-.934v-5.301zm-8.848 22.251l-3.846 6.646h-.97v-5.264l3.882-6.683h.934zM67.602 40.63l1.157-1.157h17.398l1.157 1.157L85 42.944H69.917zM87.8 58.7l.187-.15h1.008v15.419l-1.157 1.157-2.315-2.314V60.976zm-.485 16.949l-1.157 1.157H68.759l-1.157-1.157 2.315-2.315H84.999zm.523-34.496l1.157 1.157v15.456h-1.008l-.187-.149-2.277-2.277V43.467zM67.079 57.579l-.149.186h-1.008V42.31l1.157-1.157 2.315 2.315V55.3zm0 17.546l-1.157-1.157V58.512h1.008l.15.187 2.314 2.277V72.811zM114.284 43.69h.97v5.265l-3.882 6.682h-.933v-5.301zm-8.848 22.251l-3.845 6.646h-.971v-5.264l3.883-6.683h.933zM98.081 40.63l1.158-1.157h17.397l1.157 1.157-2.314 2.315h-15.083zM118.28 58.7l.186-.15h1.008v15.419l-1.157 1.157-2.315-2.314V60.976zm-.486 16.949l-1.157 1.157H99.239l-1.158-1.157 2.315-2.315h15.083zm.523-34.496l1.157 1.157v15.456h-1.008l-.186-.149L116 55.339V43.467zM97.559 57.579l-.15.186h-1.008V42.31l1.158-1.157 2.314 2.315V55.3zm0 17.546L96.4 73.968V58.512h1.008l.15.187 2.314 2.277V72.811zM144.763 43.69h.97v5.265l-3.882 6.682h-.933v-5.301zm-8.848 22.251l-3.845 6.646h-.97v-5.264l3.882-6.683h.933zM128.56 40.63l1.158-1.157h17.397l1.157 1.157-2.314 2.315h-15.083zm20.198 18.07l.186-.15h1.008v15.419l-1.157 1.157-2.315-2.314V60.976zm-.486 16.949l-1.157 1.157h-17.397l-1.158-1.157 2.315-2.315h15.083zm.523-34.496l1.157 1.157v15.456h-1.008l-.186-.149-2.278-2.277V43.467zm-20.757 16.427l-.15.186h-1.008V42.31l1.158-1.157 2.314 2.315V55.3zm0 17.546l-1.158-1.157V58.512h1.008l.15.187 2.314 2.277V72.811zM182.68 43.69h.97v5.265l-3.882 6.682h-.934v-5.301zm-8.848 22.251l-3.846 6.646h-.97v-5.264l3.882-6.683h.934zm-7.355-25.312l1.157-1.157h17.398l1.157 1.157-2.315 2.315H168.792zm20.197 18.07l.187-.15h1.008v15.419l-1.157 1.157-2.315-2.314V60.976zm-.485 16.949l-1.157 1.157h-17.398l-1.157-1.157 2.315-2.315H183.874zm.523-34.496l1.157 1.157v15.456h-1.008l-.187-.149-2.277-2.277V43.467zm-20.758 16.427l-.149.186h-1.008V42.31l1.157-1.157 2.315 2.315V55.3zm0 17.546l-1.157-1.157V58.512h1.008l.15.187 2.314 2.277V72.811zM213.159 43.69h.97v5.265l-3.882 6.682h-.933v-5.301zm-8.848 22.251l-3.845 6.646h-.971v-5.264l3.883-6.683h.933zm-7.355-25.312l1.158-1.157h17.397l1.157 1.157-2.314 2.315H199.27zm20.198 18.07l.186-.15h1.008v15.419l-1.157 1.157-2.315-2.314V60.976zm-.486 16.949l-1.157 1.157h-17.397l-1.158-1.157 2.315-2.315h15.083zm.523-34.496l1.157 1.157v15.456h-1.008l-.186-.149-2.278-2.277V43.467zm-20.757 16.427l-.15.186h-1.008V42.31l1.158-1.157 2.314 2.315V55.3zm0 17.546l-1.158-1.157V58.512h1.008l.15.187 2.314 2.277V72.811zM243.638 43.69h.97v5.265l-3.882 6.682h-.933v-5.301zm-8.848 22.251l-3.845 6.646h-.97v-5.264l3.882-6.683h.933zm-7.355-25.312l1.158-1.157h17.397l1.157 1.157-2.314 2.315H229.75zm20.198 18.07l.186-.15h1.008v15.419l-1.157 1.157-2.315-2.314V60.976zm-.486 16.949l-1.157 1.157h-17.397l-1.158-1.157 2.315-2.315h15.083zm.523-34.496l1.157 1.157v15.456h-1.008l-.186-.149-2.278-2.277V43.467zm-20.757 16.427l-.15.186h-1.008V42.31l1.158-1.157 2.314 2.315V55.3zm0 17.546l-1.158-1.157V58.512h1.008l.15.187 2.314 2.277V72.811zM254.667 73.595q.186.448.186.896t-.186.896q-.187.448-.486.746-.298.299-.746.486-.448.186-.896.186t-.896-.186q-.448-.187-.747-.486-.299-.298-.485-.746-.187-.448-.187-.896t.187-.896q.186-.448.485-.747t.747-.485q.448-.187.896-.187t.896.187q.448.186.746.485.299.299.486.747z"/></g><g aria-label="█ █ █ █ █ █" style="line-height:1.25" font-weight="400" font-size="16.512" font-family="sans-serif" letter-spacing="0" word-spacing="0" fill="#fff" stroke-width=".413"><path d="M45.793 96.442H21.596v-9.988h24.197zM45.793 82.956H21.596V72.97h24.197zM45.793 69.47H21.596v-9.986h24.197zM45.793 55.985H21.596v-9.987h24.197zM45.793 42.5H21.596v-9.987h24.197zM45.793 29.015H21.596v-9.987h24.197z"/></g></g></svg>