<svg xmlns="http://www.w3.org/2000/svg" viewBox="0 0 19.23 21.44"><defs><radialGradient href="#a" id="b" cx="62.24" cy="17.38" r="6.63" fx="62.24" fy="17.38" gradientTransform="translate(830.54 -10.39)" gradientUnits="userSpaceOnUse"/><linearGradient id="a"><stop offset="0" stop-color="#fff"/><stop offset="1" stop-color="#fff" stop-opacity="0"/></linearGradient><filter id="c" width="1.77" height="1.77" x="-.38" y="-.38" color-interpolation-filters="sRGB"><feGaussianBlur stdDeviation="2.11"/></filter></defs><g transform="translate(-885.26 .14)"><path fill="#dfdfdf" d="m887.7-.14 7.17 7.16 7.18-7.16zm-2.44 2.42v6.13c0 6.33 5.07 10.62 7.9 12.12V10.16Zm19.23 0-7.9 7.88v10.37c4.5-2.4 7.9-7.17 7.9-12.12z"/><path fill="#676767" d="M887.7-.14h-2.44v2.42l7.9 7.88v10.37c.55.3 1.12.55 1.71.77a13.1 13.1 0 0 0 1.72-.77V10.16l7.9-7.88V-.14h-2.44l-7.18 7.16z"/><circle cx="892.78" cy="6.99" r="6.63" fill="url(#b)" filter="url(#c)" opacity=".62" style="mix-blend-mode:normal"/></g></svg>