<svg xmlns="http://www.w3.org/2000/svg" viewBox="0 0 72 20"><defs><clipPath id="a" clipPathUnits="userSpaceOnUse"><circle cx="5" cy="15" r="3" fill="none" stroke="#000" stroke-width=".3"/></clipPath><clipPath id="b" clipPathUnits="userSpaceOnUse"><path fill="none" stroke="#000" stroke-width=".3" d="M12 12h6v6h-6z"/></clipPath><clipPath id="c" clipPathUnits="userSpaceOnUse"><path fill="none" fill-rule="evenodd" stroke="#000" stroke-width=".3" d="M34 12h2v2h2v2h-2v2h-2v-2h-2v-2h2z"/></clipPath><clipPath id="d" clipPathUnits="userSpaceOnUse"><path fill="none" stroke="#000" stroke-width=".3" d="M65 11.5l3 1.8v3.4l-3 1.8-3-1.8v-3.4z"/></clipPath><clipPath id="e" clipPathUnits="userSpaceOnUse"><path fill="none" fill-rule="evenodd" stroke="#000" stroke-linejoin="round" stroke-width=".6" d="M45 2l3 3-3 3-3-3z"/></clipPath><clipPath id="f" clipPathUnits="userSpaceOnUse"><path fill="none" fill-rule="evenodd" stroke="#000" stroke-linejoin="round" stroke-width=".6" d="M3 14l1-1 1 1 1-1 1 1-1 1 1 1-1 1-1-1-1 1-1-1 1-1z"/></clipPath><clipPath id="g" clipPathUnits="userSpaceOnUse"><path fill="none" fill-rule="evenodd" stroke="#000" stroke-linejoin="round" stroke-width=".6" d="M33 13h4l-2 2 2 2h-4l2-2z"/></clipPath><clipPath id="h" clipPathUnits="userSpaceOnUse"><path fill="none" fill-rule="evenodd" stroke="#000" stroke-linejoin="round" stroke-width=".6" d="M13 27v-2l2-2 2 2v2z"/></clipPath><clipPath id="i" clipPathUnits="userSpaceOnUse"><path fill="none" fill-rule="evenodd" stroke="#000" stroke-linejoin="round" stroke-width=".6" d="M22 8l3-6 3 6z"/></clipPath><clipPath id="j" clipPathUnits="userSpaceOnUse"/><clipPath id="k" clipPathUnits="userSpaceOnUse"><path fill="none" fill-rule="evenodd" stroke="#000" stroke-linejoin="round" stroke-width=".6" d="M66 1h4l-1 2 2-1v4l-2-1 1 2h-4l1-2-2 1V2l2 1z"/></clipPath></defs><circle cx="5" cy="15" r="3" fill="none" stroke="#000" stroke-linejoin="round" stroke-width=".6" clip-path="url(#a)" transform="translate(-1 -11)"/><path fill="none" stroke="#000" stroke-linejoin="round" stroke-width=".6" d="M12 12h6v6h-6z" clip-path="url(#b)" transform="translate(-3 -11)"/><path fill="none" stroke="#000" stroke-linejoin="round" stroke-width=".6" d="M34 12h2v2h2v2h-2v2h-2v-2h-2v-2h2z" clip-path="url(#c)" transform="translate(1 -11)"/><path fill="none" stroke="#000" stroke-linejoin="round" stroke-width=".6" d="M65 11.5l3 1.8v3.4l-3 1.8-3-1.8v-3.4z" clip-path="url(#d)" transform="translate(-13 -11)"/><path fill="none" stroke="#000" stroke-dashoffset="1" stroke-linecap="round" stroke-width=".2" d="M6.8 18.8l.5.4m0-.4l-.5.4"/><path fill="none" stroke="#000" stroke-linejoin="round" stroke-width=".6" d="M45 2l3 3-3 3-3-3z" clip-path="url(#e)" transform="translate(-1 -1)"/><path fill="none" stroke="#000" stroke-linejoin="round" stroke-width=".6" d="M65 11.5l3 1.8v3.4l-3 1.8-3-1.8v-3.4z" clip-path="url(#d)" transform="rotate(90 68 7)"/><path fill="none" stroke="#000" stroke-linejoin="round" stroke-width=".6" d="M3 14l1-1 1 1 1-1 1 1-1 1 1 1-1 1-1-1-1 1-1-1 1-1z" clip-path="url(#f)" transform="translate(22)"/><path fill="none" stroke="#000" stroke-linejoin="round" stroke-width=".6" d="M33 13h4l-2 2 2 2h-4l2-2z" clip-path="url(#g)" transform="translate(-20)"/><path fill="none" stroke="#000" stroke-linejoin="round" stroke-width=".6" d="M33 13h4l-2 2 2 2h-4l2-2z" clip-path="url(#g)" transform="rotate(90 19 -1)"/><path fill="none" stroke="#000" stroke-linejoin="round" stroke-width=".6" d="M13 27v-2l2-2 2 2v2z" clip-path="url(#h)" transform="translate(24 -10)"/><path fill="none" stroke="#000" stroke-linejoin="round" stroke-width=".6" d="M13 27v-2l2-2 2 2v2z" clip-path="url(#h)" transform="matrix(1 0 0 -1 36 40)"/><path fill="none" stroke="#000" stroke-linejoin="round" stroke-width=".6" d="M22 8l3-6 3 6z" clip-path="url(#i)" transform="translate(-5 -1)"/><path fill="none" stroke="#000" stroke-linejoin="round" stroke-width=".6" d="M22 8l3-6 3 6z" clip-path="url(#i)" transform="matrix(1 0 0 -1 3 9)"/><circle cx="5" cy="15" r="3" fill="none" stroke="#000" stroke-linejoin="round" stroke-width="1.8" clip-path="url(#a)" transform="translate(.3 5) scale(.33333)"/><path fill="none" stroke="#000" stroke-linejoin="round" stroke-width="1.8" d="M12 12h6v6h-6z" clip-path="url(#b)" transform="translate(1 5) scale(.33333)"/><path fill="none" stroke="#000" stroke-linejoin="round" stroke-width="1.8" d="M34 12h2v2h2v2h-2v2h-2v-2h-2v-2h2z" clip-path="url(#c)" transform="translate(6.3 5) scale(.33333)"/><path fill="none" stroke="#000" stroke-linejoin="round" stroke-width="1.8" d="M65 11.5l3 1.8v3.4l-3 1.8-3-1.8v-3.4z" clip-path="url(#d)" transform="translate(4.3 5) scale(.33333)"/><path fill="none" stroke="#000" stroke-linejoin="round" stroke-width="1.8" d="M45 2l3 3-3 3-3-3z" clip-path="url(#e)" transform="translate(7 8.3) scale(.33333)"/><path fill="none" stroke="#000" stroke-linejoin="round" stroke-width="1.8" d="M65 11.5l3 1.8v3.4l-3 1.8-3-1.8v-3.4z" clip-path="url(#d)" transform="rotate(90 23.3 11.7) scale(.33333)"/><path fill="none" stroke="#000" stroke-linejoin="round" stroke-width="1.8" d="M22 8l3-6 3 6z" clip-path="url(#i)" transform="translate(1.7 8.3) scale(.33333)"/><path fill="none" stroke="#000" stroke-linejoin="round" stroke-width="1.8" d="M22 8l3-6 3 6z" clip-path="url(#i)" transform="matrix(.33333 0 0 -.33333 5.7 11.7)"/><path fill="#010400" fill-rule="evenodd" stroke="#000" stroke-linejoin="round" stroke-width=".6" d="M3 14l1-1 1 1 1-1 1 1-1 1 1 1-1 1-1-1-1 1-1-1 1-1z" clip-path="url(#f)" transform="translate(28)"/><path fill="#010400" fill-rule="evenodd" stroke="#000" stroke-linejoin="round" stroke-width=".6" d="M33 13h4l-2 2 2 2h-4l2-2z" clip-path="url(#g)" transform="translate(-14)"/><path fill="#010400" fill-rule="evenodd" stroke="#000" stroke-linejoin="round" stroke-width=".6" d="M33 13h4l-2 2 2 2h-4l2-2z" clip-path="url(#g)" transform="rotate(90 22 2)"/><path fill="#010400" fill-rule="evenodd" stroke="#000" stroke-linejoin="round" stroke-width=".6" d="M13 27v-2l2-2 2 2v2z" clip-path="url(#h)" transform="translate(30 -10)"/><path fill="#010400" fill-rule="evenodd" stroke="#000" stroke-linejoin="round" stroke-width=".6" d="M13 27v-2l2-2 2 2v2z" clip-path="url(#h)" transform="matrix(1 0 0 -1 42 40)"/><path fill="none" stroke="#000" stroke-dashoffset="1" stroke-linecap="round" stroke-width=".2" d="M3 19.3v-.6"/><circle cx="5" cy="19" r=".3" fill="none" stroke="#000" stroke-dashoffset="1" stroke-linecap="round" stroke-width=".2"/><path fill="none" stroke="#000" stroke-linejoin="round" stroke-width=".6" d="M65 2l2 1-1-2h4l-1 2 2-1v4l-2-1 1 2h-4l1-2-2 1z" clip-path="url(#j)"/><path fill="none" stroke="#000" stroke-linejoin="round" stroke-width="1.8" d="M65 2l2 1-1-2h4l-1 2 2-1v4l-2-1 1 2h-4l1-2-2 1z" clip-path="url(#j)" transform="translate(11.3 8.7) scale(.33333)"/><circle cx="1" cy="18.7" r=".1"/><circle cx="1" cy="19.2" r=".1"/><path fill="none" stroke="#000" stroke-linejoin="round" stroke-width=".6" d="M66 1h4l-1 2 2-1v4l-2-1 1 2h-4l1-2-2 1V2l2 1z" clip-path="url(#k)"/><path fill="none" stroke="#000" stroke-linejoin="round" stroke-width="1.8" d="M66 1h4l-1 2 2-1v4l-2-1 1 2h-4l1-2-2 1V2l2 1z" clip-path="url(#k)" transform="translate(11.3 8.7) scale(.33333)"/></svg>