<svg xmlns="http://www.w3.org/2000/svg" viewBox="0 0 39.7 52.9"><g stroke="#fff" stroke-width="3"><path fill="none" d="M33.8 29.2c0 8.6-6.1 17.6-13.8 17.6-7.6 0-13.8-9-13.8-17.6C6.2 20.6 12.4 16 20 16c7.7 0 13.8 4.8 13.8 13.3z"/><path d="M6.4 32.1c3.8-3.3 4.1-6.4 4-12.4-6.5 2.8-6.7 9.6-4 12.4zm27.2 0c-3.8-3.4-3.9-6.5-3.9-12.6 6.5 2.9 6.8 9.7 4 12.5zM23.9 36.4H16l-4 4.4 4.6-2.7 6.7-.1 4.6 2.7z"/></g><path fill="#fff" d="M19 46.5a12 12 0 0 1-7.5-4.2 20 20 0 0 1-4.7-9.8v-.3l.6-.6c.7-.8 1-1.1 1.4-1.8 1.4-2 2-4.6 2-9.3v-1.2l.2-.2 2.4-1.5c2-1 4-1.4 6.6-1.4a13.7 13.7 0 0 1 9.1 3l.3.2v1.1l.2 4.3a11 11 0 0 0 3 6.5l.8.8-.2.8a20.1 20.1 0 0 1-3.6 8.2c-3 3.9-6.8 5.8-10.7 5.4zm-4.7-7 2.3-1.3h6.6l2.3 1.3 2.4 1.2c.1 0 .2 0-2.1-2.5l-1.9-2h-3.7l-4 .1a38.3 38.3 0 0 0-4.2 4.6l2.3-1.3z"/><g stroke="#000"><path fill="none" d="M33.8 29.2c0 8.6-6.1 17.6-13.8 17.6-7.6 0-13.8-9-13.8-17.6C6.2 20.6 12.4 16 20 16c7.7 0 13.8 4.8 13.8 13.3z"/><path d="M6.4 32.1c3.8-3.3 4.1-6.4 4-12.4-6.5 2.8-6.7 9.6-4 12.4zm27.2 0c-3.8-3.4-3.9-6.5-3.9-12.6 6.5 2.9 6.8 9.7 4 12.5zM23.9 36.4H16l-4 4.4 4.6-2.7 6.7-.1 4.6 2.7z"/></g></svg>