<svg xmlns="http://www.w3.org/2000/svg" width="150" height="200" viewBox="0 0 39.687 52.917"><path d="M33.829 29.246c0 8.533-6.177 17.566-13.796 17.566-7.62 0-13.796-9.033-13.796-17.566s6.176-13.333 13.796-13.333c7.62 0 13.796 4.8 13.796 13.333z" fill="none" stroke="#000" stroke-width=".452"/><path d="M6.142 29.104l27.687.142" stroke="#000" stroke-width=".752"/><circle cx="13.947" cy="30.446" r="2.929" fill="#fff" stroke="#000" stroke-width=".452"/><circle cx="25.589" cy="30.446" r="2.929" fill="#fff" stroke="#000" stroke-width=".452"/><path fill="#fff" d="M6.142 14.647H34.49v7.843H6.142z"/><path d="M6.45 22.821c-2.703-1.23-3.212-5.274-1.377-7.14 1.269-1.268 2.108-1.317 4.903-.286 3.422 1.263 5.47 1.652 9.206 1.75 4.042.108 6.023-.202 10.09-1.574 3.789-1.279 4.599-1.267 6.045.086 1.717 1.683 1.377 4.05-.036 5.413-.886.837-1.211 1.604-2.703 1.918-.363.077-.397.058-.397-.218 0-.166-.179-.566-.397-.89-.722-1.068-3.638-1.754-6.61-2.214-2.003-.31-8.12-.31-10.15.001-3.515.538-6.634 1.445-7.04 2.958-.08.302-.176.547-.213.545-.036-.003-.74-.16-1.32-.349zm10.979-5.297c-1.667-.27-3.508-.743-5.57-1.429l-1.881-.626.066-1.785c.038-1.037.148-2.092.262-2.519.765-2.86 2.827-4.792 6.036-5.655 1.106-.298 1.372-.32 3.819-.323 2.456-.002 2.707.019 3.804.316 1.856.504 2.94 1.096 4.097 2.238.747.738 1.101 1.204 1.44 1.896.657 1.341.818 2.059.895 3.99l.07 1.727-1.27.49c-1.503.58-3.488 1.158-5.184 1.509-1.619.334-5.034.423-6.584.171z"/></svg>