<svg xmlns="http://www.w3.org/2000/svg" fill="none" stroke-linecap="square" stroke-miterlimit="10" viewBox="0 0 348 348"><path stroke="#000" stroke-linecap="butt" stroke-linejoin="round" stroke-width="2" d="M5.08 5.78h336.91v337.67H5.08z"/><path fill="#000" d="M133.84 15.67h74.33v56.88h-74.33z"/><path fill="#fff" d="M154.54 44.09c0-2.7.28-4.89.83-6.53a8.21 8.21 0 0 1 2.48-3.83 6.39 6.39 0 0 1 4.16-1.34c1.23 0 2.3.25 3.23.75.93.49 1.7 1.2 2.3 2.14.6.92 1.08 2.06 1.42 3.4.35 1.34.52 3.14.52 5.41 0 2.69-.28 4.86-.83 6.51a8.16 8.16 0 0 1-2.49 3.83 6.35 6.35 0 0 1-4.15 1.35c-2.21 0-3.95-.8-5.2-2.38-1.52-1.9-2.27-5-2.27-9.31zm2.89 0c0 3.76.44 6.26 1.31 7.51.89 1.25 1.98 1.87 3.27 1.87s2.37-.63 3.25-1.88c.88-1.25 1.33-3.75 1.33-7.5 0-3.77-.45-6.28-1.33-7.52-.88-1.24-1.97-1.86-3.28-1.86a3.6 3.6 0 0 0-3.1 1.65c-.97 1.4-1.45 3.97-1.45 7.73zm14.9 0c0-2.7.28-4.89.83-6.53a8.21 8.21 0 0 1 2.49-3.83 6.39 6.39 0 0 1 4.15-1.34c1.23 0 2.31.25 3.24.75.93.49 1.7 1.2 2.3 2.14.6.92 1.07 2.06 1.42 3.4.34 1.34.51 3.14.51 5.41 0 2.69-.27 4.86-.83 6.51a8.16 8.16 0 0 1-2.48 3.83 6.35 6.35 0 0 1-4.16 1.35 6.3 6.3 0 0 1-5.2-2.38c-1.5-1.9-2.26-5-2.26-9.31zm2.9 0c0 3.76.43 6.26 1.3 7.51.9 1.25 1.98 1.87 3.27 1.87 1.3 0 2.38-.63 3.25-1.88.89-1.25 1.33-3.75 1.33-7.5 0-3.77-.44-6.28-1.33-7.52-.87-1.24-1.97-1.86-3.28-1.86a3.6 3.6 0 0 0-3.09 1.65c-.97 1.4-1.45 3.97-1.45 7.73z"/><path stroke="#000" stroke-linecap="butt" stroke-linejoin="round" stroke-width="2" d="M15.26 17.7h109.9v54.84H15.25z"/><path d="m15.26 72.65 39.69-54.08"/><path stroke="#000" stroke-linecap="butt" stroke-linejoin="round" stroke-width="2" d="m15.26 72.65 39.69-54.08"/><path d="m37.57 72.65 39.68-54.08"/><path stroke="#000" stroke-linecap="butt" stroke-linejoin="round" stroke-width="2" d="m37.57 72.65 39.68-54.08"/><path d="m59.87 72.65 39.69-54.08"/><path stroke="#000" stroke-linecap="butt" stroke-linejoin="round" stroke-width="2" d="m59.87 72.65 39.69-54.08"/><path d="m82.17 72.65 39.69-54.08"/><path stroke="#000" stroke-linecap="butt" stroke-linejoin="round" stroke-width="2" d="m82.17 72.65 39.69-54.08m95-1.94h109.9v54.84h-109.9z"/><path d="m216.86 71.58 39.69-54.08"/><path stroke="#000" stroke-linecap="butt" stroke-linejoin="round" stroke-width="2" d="m216.86 71.58 39.69-54.08"/><path d="m239.17 71.58 39.68-54.08"/><path stroke="#000" stroke-linecap="butt" stroke-linejoin="round" stroke-width="2" d="m239.17 71.58 39.68-54.08"/><path d="m261.47 71.58 39.69-54.08"/><path stroke="#000" stroke-linecap="butt" stroke-linejoin="round" stroke-width="2" d="m261.47 71.58 39.69-54.08"/><path d="m283.78 71.58 39.68-54.08"/><path stroke="#000" stroke-linecap="butt" stroke-linejoin="round" stroke-width="2" d="m283.78 71.58 39.68-54.08"/><path stroke="#000" stroke-width="2.1" d="M14.76 95.34h312.49v94.5H14.76z"/><path stroke="#000" stroke-width="2.07" d="M16.61 257.48h84.91v69.12H16.61zm111.94 0h84.91v69.12h-84.91z"/><path fill="#000" d="M160.57 306.69h23.44v5.86h-29.3v-17.58h2.93v-2.93h2.93v-2.93h14.65v-2.93h2.93v-5.86h-2.93v-2.93H163.5v2.93h-2.93v2.93h-5.86v-5.86h2.93v-2.93h2.93v-2.93h17.58v2.93h2.93v2.93h2.93v11.72h-2.93v2.93h-2.93v2.93H163.5v2.93h-2.93z" aria-label="2"/><path stroke="#000" stroke-width="2.07" d="M237.21 257.48h84.91v69.12h-84.91z"/><path fill="#000" d="M62 306.69h5.85v5.86H50.27v-5.86h5.86v-23.44h-5.86v-5.86h2.93v-2.93h2.93v-2.93H62z" aria-label="1"/><path fill="#000" d="M267.94 306.69h-2.93v-5.86h5.86v2.93h2.93v2.93h11.72v-2.93h2.93v-5.86h-2.93v-2.93h-8.79v-5.86h8.79v-2.93h2.93v-5.86h-2.93v-2.93H273.8v2.93h-2.93v2.93h-5.86v-5.86h2.93v-2.93h2.93v-2.93h17.58v2.93h2.93v2.93h2.93v11.72h-2.93v5.86h2.93v11.72h-2.93v2.93h-2.93v2.93h-17.58v-2.93h-2.93z" aria-label="3"/><path fill="#000" d="M32.64 150.8h-1.82v-3.65h3.65v1.82h1.82v1.82h7.29v-1.82h1.82v-3.65h-1.82v-1.82h-5.47v-3.65h5.47v-1.82h1.82v-3.64h-1.82v-1.83h-7.3v1.83h-1.81v1.82h-3.65v-3.65h1.82v-1.82h1.83v-1.82H45.4v1.82h1.83v1.82h1.82v7.3h-1.82v3.64h1.82v7.3h-1.82v1.82H45.4v1.82H34.47v-1.82h-1.83zm49.22-10.95v-7.29h3.65v7.3h7.29v3.64h-7.3v7.3h-3.64v-7.3h-7.29v-3.65zm47.4 10.94h3.64v3.65h-10.93v-3.65h3.64v-14.58h-3.64v-3.65h1.82v-1.82h1.82v-1.82h3.65zm49.22-10.94v3.65h-14.59v-3.65zm30.99 10.94h14.58v3.65h-18.23V143.5h1.82v-1.82h1.83v-1.83h9.11v-1.82h1.82v-3.64h-1.82v-1.83h-7.3v1.83h-1.81v1.82h-3.65v-3.65h1.82v-1.82h1.83v-1.82h10.93v1.82h1.83v1.82h1.82v7.3h-1.82v1.82h-1.83v1.82h-9.11v1.82h-1.82zm47.4-10.94v-7.29h3.64v7.3h7.29v3.64h-7.3v7.3h-3.64v-7.3h-7.29v-3.65zm47.39 10.94h3.64v3.65h-10.93v-3.65h3.64v-14.58h-3.64v-3.65h1.82v-1.82h1.82v-1.82h3.65z" aria-label="3 + 1 - 2 + 1"/></svg>