<svg xmlns="http://www.w3.org/2000/svg" viewBox="0 0 348 348" fill="none" stroke-linecap="square" stroke-miterlimit="10"><clipPath id="a"><path d="M0 0h348v348H0V0z"/></clipPath><g clip-path="url(#a)"><path d="M0 0h348v348H0z"/><path d="M-6 0h354v348H-6z" fill="#fff"/><path d="M5 5.8h337v337.6H5z"/><path d="M5 5.8h337v337.6H5z" stroke-linejoin="round" stroke-linecap="butt" stroke-width="2" stroke="#000"/><path d="M133.8 15.7h74.4v56.8h-74.4z" fill="#000"/><path d="M154.5 44q0-4 .9-6.4.8-2.5 2.5-3.9 1.6-1.3 4.1-1.3 1.9 0 3.2.7 1.4.8 2.3 2.2 1 1.4 1.5 3.4t.5 5.4q0 4-.9 6.5-.8 2.5-2.4 3.8-1.7 1.4-4.2 1.4-3.3 0-5.2-2.4-2.3-2.9-2.3-9.3zm3 0q0 5.7 1.2 7.6 1.4 1.9 3.3 1.9 2 0 3.3-2 1.3-1.8 1.3-7.4 0-5.7-1.3-7.5-1.4-1.9-3.3-1.9-2 0-3.1 1.7-1.5 2-1.5 7.7zm14.8 0q0-4 .9-6.4.8-2.5 2.4-3.9 1.7-1.3 4.2-1.3 1.8 0 3.2.7 1.4.8 2.3 2.2 1 1.4 1.5 3.4t.5 5.4q0 4-.9 6.5-.8 2.5-2.4 3.8-1.7 1.4-4.2 1.4-3.3 0-5.2-2.4-2.3-2.9-2.3-9.3zm3 0q0 5.7 1.2 7.6 1.4 1.9 3.3 1.9 2 0 3.3-2 1.3-1.8 1.3-7.4 0-5.7-1.3-7.5-1.4-1.9-3.3-1.9-2 0-3.1 1.7-1.5 2-1.5 7.7zm-29.5 121a28 28 0 0127.7-28.5c7.4 0 14.4 3 19.6 8.4a28.8 28.8 0 018.2 20 28 28 0 01-27.8 28.5 28 28 0 01-27.7-28.4z" fill="#fff"/><path d="M145.8 165a28 28 0 0127.7-28.5c7.4 0 14.4 3 19.6 8.4a28.8 28.8 0 018.2 20 28 28 0 01-27.8 28.5 28 28 0 01-27.7-28.4z" stroke-linejoin="round" stroke-linecap="butt" stroke-width="2" stroke="#000"/><path d="M148.8 82.9h52.5v48h-52.5z"/><path d="M168.2 96.2h1.8v7.9q0 2-.4 3.2-.5 1.2-1.7 2-1.2.7-3.2.7-1.9 0-3.1-.6-1.2-.7-1.7-2t-.5-3.3v-7.9h1.7v7.9q0 1.7.4 2.6.3.8 1.1 1.3.8.4 2 .4 2 0 2.8-.9.8-.9.8-3.4v-7.9zm4.6 13.6V96.2h5.1l2 .1q1 .2 1.8.7.6.4 1 1.3.5.8.5 1.8 0 1.8-1.1 3t-4 1.2h-3.5v5.5h-1.8zm1.8-7.1h3.5q1.8 0 2.5-.7.7-.6.7-1.8 0-.9-.4-1.5-.5-.6-1.2-.8h-5.1v4.8z" fill="#000"/><path d="M39.8 202.4c0-8 6.8-14.5 15.1-14.5 4 0 8 1.5 10.8 4.3 2.8 2.7 4.4 6.4 4.4 10.2 0 8-6.8 14.6-15.2 14.6-8.3 0-15.1-6.5-15.1-14.6z" fill="#fff"/><path d="M39.8 202.4c0-8 6.8-14.5 15.1-14.5 4 0 8 1.5 10.8 4.3 2.8 2.7 4.4 6.4 4.4 10.2 0 8-6.8 14.6-15.2 14.6-8.3 0-15.1-6.5-15.1-14.6z" stroke-linejoin="round" stroke-linecap="butt" stroke-width="2" stroke="#000"/><path d="M85 242.1c0-8 6.8-14.5 15.2-14.5 4 0 7.9 1.5 10.7 4.3 2.9 2.7 4.5 6.4 4.5 10.2 0 8-6.8 14.6-15.2 14.6-8.4 0-15.2-6.5-15.2-14.6z" fill="#fff"/><path d="M85 242.1c0-8 6.8-14.5 15.2-14.5 4 0 7.9 1.5 10.7 4.3 2.9 2.7 4.5 6.4 4.5 10.2 0 8-6.8 14.6-15.2 14.6-8.4 0-15.2-6.5-15.2-14.6z" stroke-linejoin="round" stroke-linecap="butt" stroke-width="2" stroke="#000"/><path d="M132.7 280.2c0-8 6.8-14.5 15.2-14.5 4 0 7.8 1.5 10.7 4.3 2.8 2.7 4.4 6.4 4.4 10.2 0 8-6.8 14.6-15.1 14.6-8.4 0-15.2-6.6-15.2-14.6z" fill="#fff"/><path d="M132.7 280.2c0-8 6.8-14.5 15.2-14.5 4 0 7.8 1.5 10.7 4.3 2.8 2.7 4.4 6.4 4.4 10.2 0 8-6.8 14.6-15.1 14.6-8.4 0-15.2-6.6-15.2-14.6z" stroke-linejoin="round" stroke-linecap="butt" stroke-width="2" stroke="#000"/><path d="M41.6 247.7c0-8 6.8-14.5 15.2-14.5 4 0 7.8 1.5 10.7 4.2 2.8 2.8 4.4 6.5 4.4 10.3 0 8-6.8 14.5-15.1 14.5-8.4 0-15.2-6.5-15.2-14.5z" fill="#fff"/><path d="M41.6 247.7c0-8 6.8-14.5 15.2-14.5 4 0 7.8 1.5 10.7 4.2 2.8 2.8 4.4 6.5 4.4 10.3 0 8-6.8 14.5-15.1 14.5-8.4 0-15.2-6.5-15.2-14.5z" stroke-linejoin="round" stroke-linecap="butt" stroke-width="2" stroke="#000"/><path d="M86.9 287.4c0-8 6.7-14.5 15.1-14.5 4 0 7.9 1.5 10.7 4.3 2.9 2.7 4.5 6.4 4.5 10.2 0 8-6.8 14.5-15.2 14.5-8.4 0-15.1-6.5-15.1-14.5z" fill="#fff"/><path d="M86.9 287.4c0-8 6.7-14.5 15.1-14.5 4 0 7.9 1.5 10.7 4.3 2.9 2.7 4.5 6.4 4.5 10.2 0 8-6.8 14.5-15.2 14.5-8.4 0-15.1-6.5-15.1-14.5z" stroke-linejoin="round" stroke-linecap="butt" stroke-width="2" stroke="#000"/><path d="M134.5 325.5c0-8 6.8-14.5 15.2-14.5 4 0 7.9 1.5 10.7 4.2 2.9 2.8 4.5 6.5 4.5 10.3 0 8-6.8 14.5-15.2 14.5-8.4 0-15.2-6.5-15.2-14.5z" fill="#fff"/><path d="M134.5 325.5c0-8 6.8-14.5 15.2-14.5 4 0 7.9 1.5 10.7 4.2 2.9 2.8 4.5 6.5 4.5 10.3 0 8-6.8 14.5-15.2 14.5-8.4 0-15.2-6.5-15.2-14.5z" stroke-linejoin="round" stroke-linecap="butt" stroke-width="2" stroke="#000"/><path d="M182.2 280.2c0-8 6.8-14.5 15.2-14.5 4 0 7.9 1.5 10.7 4.3 2.8 2.7 4.4 6.4 4.4 10.2 0 8-6.7 14.6-15.1 14.6-8.4 0-15.2-6.6-15.2-14.6z" fill="#fff"/><path d="M182.2 280.2c0-8 6.8-14.5 15.2-14.5 4 0 7.9 1.5 10.7 4.3 2.8 2.7 4.4 6.4 4.4 10.2 0 8-6.7 14.6-15.1 14.6-8.4 0-15.2-6.6-15.2-14.6z" stroke-linejoin="round" stroke-linecap="butt" stroke-width="2" stroke="#000"/><path d="M184 325.5c0-8 6.8-14.5 15.2-14.5 4 0 7.9 1.5 10.7 4.2 2.9 2.8 4.5 6.5 4.5 10.3 0 8-6.8 14.5-15.2 14.5-8.4 0-15.2-6.5-15.2-14.5z" fill="#fff"/><path d="M184 325.5c0-8 6.8-14.5 15.2-14.5 4 0 7.9 1.5 10.7 4.2 2.9 2.8 4.5 6.5 4.5 10.3 0 8-6.8 14.5-15.2 14.5-8.4 0-15.2-6.5-15.2-14.5z" stroke-linejoin="round" stroke-linecap="butt" stroke-width="2" stroke="#000"/><path d="M226 242.1c0-8 6.8-14.5 15.2-14.5 4 0 7.9 1.5 10.7 4.3 2.9 2.7 4.5 6.4 4.5 10.2 0 8-6.8 14.6-15.2 14.6-8.4 0-15.2-6.5-15.2-14.6z" fill="#fff"/><path d="M226 242.1c0-8 6.8-14.5 15.2-14.5 4 0 7.9 1.5 10.7 4.3 2.9 2.7 4.5 6.4 4.5 10.2 0 8-6.8 14.6-15.2 14.6-8.4 0-15.2-6.5-15.2-14.6z" stroke-linejoin="round" stroke-linecap="butt" stroke-width="2" stroke="#000"/><path d="M227.9 287.4c0-8 6.8-14.5 15.1-14.5 4 0 8 1.5 10.8 4.3 2.8 2.7 4.4 6.4 4.4 10.2 0 8-6.8 14.5-15.2 14.5-8.3 0-15.1-6.5-15.1-14.5z" fill="#fff"/><path d="M227.9 287.4c0-8 6.8-14.5 15.1-14.5 4 0 8 1.5 10.8 4.3 2.8 2.7 4.4 6.4 4.4 10.2 0 8-6.8 14.5-15.2 14.5-8.3 0-15.1-6.5-15.1-14.5z" stroke-linejoin="round" stroke-linecap="butt" stroke-width="2" stroke="#000"/><path d="M272.4 202.4c0-8 6.8-14.5 15.2-14.5 4 0 7.9 1.5 10.7 4.3 2.8 2.7 4.4 6.4 4.4 10.2 0 8-6.7 14.6-15.1 14.6-8.4 0-15.2-6.5-15.2-14.6z" fill="#fff"/><path d="M272.4 202.4c0-8 6.8-14.5 15.2-14.5 4 0 7.9 1.5 10.7 4.3 2.8 2.7 4.4 6.4 4.4 10.2 0 8-6.7 14.6-15.1 14.6-8.4 0-15.2-6.5-15.2-14.6z" stroke-linejoin="round" stroke-linecap="butt" stroke-width="2" stroke="#000"/><path d="M274.2 247.7c0-8 6.8-14.5 15.2-14.5 4 0 7.9 1.5 10.7 4.2 2.9 2.8 4.5 6.5 4.5 10.3 0 8-6.8 14.5-15.2 14.5-8.4 0-15.2-6.5-15.2-14.5z" fill="#fff"/><path d="M274.2 247.7c0-8 6.8-14.5 15.2-14.5 4 0 7.9 1.5 10.7 4.2 2.9 2.8 4.5 6.5 4.5 10.3 0 8-6.8 14.5-15.2 14.5-8.4 0-15.2-6.5-15.2-14.5z" stroke-linejoin="round" stroke-linecap="butt" stroke-width="2" stroke="#000"/><path d="M196 149.8l31.9 15.2-32 15.1z" fill="#fff"/><path d="M196 149.8l31.9 15.2-32 15.1z" stroke-linejoin="round" stroke-linecap="butt" stroke-width="2" stroke="#000"/><path d="M101.4 159.4c0-40.8 33-73.8 73.7-73.8a73.6 73.6 0 0152 21.6 73.9 73.9 0 0121.7 52.2 73.8 73.8 0 11-147.4 0z"/><path d="M101.4 159.4c0-40.8 33-73.8 73.7-73.8a73.6 73.6 0 0152 21.6 73.9 73.9 0 0121.7 52.2 73.8 73.8 0 11-147.4 0z" stroke-linejoin="round" stroke-linecap="butt" stroke-width="2" stroke="#000"/><path d="M15.3 17.7h109.9v54.8h-110z" fill="#fff"/><path d="M15.3 17.7h109.9v54.8h-110z" stroke-linejoin="round" stroke-linecap="butt" stroke-width="2" stroke="#000"/><path d="M15.3 72.7l39.6-54.1"/><path d="M15.3 72.7l39.6-54.1" stroke-linejoin="round" stroke-linecap="butt" stroke-width="2" stroke="#000"/><path d="M37.6 72.7l39.7-54.1"/><path d="M37.6 72.7l39.7-54.1" stroke-linejoin="round" stroke-linecap="butt" stroke-width="2" stroke="#000"/><path d="M59.9 72.7l39.7-54.1"/><path d="M59.9 72.7l39.7-54.1" stroke-linejoin="round" stroke-linecap="butt" stroke-width="2" stroke="#000"/><path d="M82.2 72.7l39.7-54.1"/><path d="M82.2 72.7l39.7-54.1" stroke-linejoin="round" stroke-linecap="butt" stroke-width="2" stroke="#000"/><path d="M216.9 16.6h109.9v54.9h-110z" fill="#fff"/><path d="M216.9 16.6h109.9v54.9h-110z" stroke-linejoin="round" stroke-linecap="butt" stroke-width="2" stroke="#000"/><path d="M216.9 71.6l39.6-54.1"/><path d="M216.9 71.6l39.6-54.1" stroke-linejoin="round" stroke-linecap="butt" stroke-width="2" stroke="#000"/><path d="M239.2 71.6l39.7-54.1"/><path d="M239.2 71.6l39.7-54.1" stroke-linejoin="round" stroke-linecap="butt" stroke-width="2" stroke="#000"/><path d="M261.5 71.6l39.7-54.1"/><path d="M261.5 71.6l39.7-54.1" stroke-linejoin="round" stroke-linecap="butt" stroke-width="2" stroke="#000"/><path d="M283.8 71.6l39.7-54.1"/><path d="M283.8 71.6l39.7-54.1" stroke-linejoin="round" stroke-linecap="butt" stroke-width="2" stroke="#000"/></g><path d="M52.4 217.4c-8.2-1.3-14.2-8.7-13.2-16.5.8-7.6 6.8-13 14.8-13.6a15 15 0 0112.4 4.8c10.4 10.4.9 27.6-14 25.3zm8.8-2.6c2.4-1 5.5-4 6.8-6.4.4-.9 1-3.2 1-5 .4-4.5-1-8.1-4.4-11-7.6-6.8-20.2-3.6-23.4 6-3.7 11.2 8.6 21.4 20 16.4z" stroke="#000" stroke-miterlimit="4"/><path d="M51.2 217.5a16 16 0 01-10.6-8.5 15 15 0 018-20.7c6.4-2.4 13.3-1 17.8 3.5a15 15 0 01-4.3 24.4c-3 1.4-8 2-10.9 1.3zm10-3.2c3-1.5 6.3-4.9 7-7.2.8-3.2.6-7.9-.6-10.3-2.2-4.5-7-7.5-12.3-7.5-6 0-10.5 2.5-13 7.4-3.7 7.5.3 15.8 9.2 18.7 2.2.7 7.4.2 9.8-1z" stroke="#000" stroke-miterlimit="4"/><path d="M6.1 174.4V6.8h334.7V342H6.1zm148.6 166c2.8-.7 6.5-3.3 8.3-5.7 5.9-8.1 2.7-19.4-6.7-23.6a19.2 19.2 0 00-13.5.1c-3.8 1.7-7.7 6-8.8 9.8a15.5 15.5 0 008.3 18.5 17 17 0 0012.4 1zm49.5 0c2.8-.7 6.6-3.3 8.4-5.7 5.8-8.1 2.6-19.4-6.7-23.6a19.2 19.2 0 00-13.6.1c-3.8 1.7-7.6 6-8.7 9.8a15.5 15.5 0 008.2 18.5 17 17 0 0012.4 1zM108 302.1c3-1 6.7-4.2 8.6-7.4 1-1.8 1.4-3.2 1.6-6.4.2-3.9.1-4.4-1.4-7.5-1.8-3.6-4-5.8-7.9-7.7-1.8-.9-3.3-1.1-6.8-1.2-3.8 0-4.8.2-7.4 1.5a16.4 16.4 0 00-7.9 8.5c-1.2 3.7-1 8.8.4 12 1.5 3 5.8 7 8.8 8.2 3 1 9 1 12 0zm142.6-.6a15.7 15.7 0 007.3-20.7 17.4 17.4 0 00-8-7.7 19 19 0 00-13.7 0c-3.8 1.8-7.6 6-8.7 9.9-2.4 8.1 1.8 16.1 10.1 19.2 3 1.1 10.2.7 13-.7zm-95.5-7.1c3-1.4 6-4.4 7.7-7.4 1.6-3 1.6-10.5 0-13.6-3-5.6-8.4-8.7-14.9-8.8-3.5 0-4.3.2-7.5 1.8a15.1 15.1 0 00-7.4 20 14 14 0 006.6 7.3 17 17 0 0015.5.7zm49.2.1c2.8-1.2 6.5-4.6 8-7.5 1.7-3 1.6-10.5 0-13.6-3-5.6-8.4-8.7-14.8-8.8-3.5 0-4.4.2-7.6 1.8a15.2 15.2 0 00-5.5 23.2 17 17 0 0020 5zm-140-32.9a15.5 15.5 0 00-1.7-28.6c-2.3-.8-3.7-1-6.6-.9-6.5.5-11 3.4-13.8 8.9-4.2 8.5 0 18.1 9.3 21.6 3 1.2 9.7.6 12.8-1zm232.5.2c3.3-1.6 6-4.4 7.6-7.7 1.6-3.1 1.7-9.2.3-12.3a20.1 20.1 0 00-7.8-8.1c-2.3-1.2-3.3-1.4-7.3-1.4s-5.2.2-7.3 1.3a15.5 15.5 0 00-4.5 25c3.4 3.5 7 4.7 12.3 4.6 3.1-.1 4.8-.5 6.7-1.4zM107 256.3c3.7-1.7 6.2-4 8-7.5 2-4.1 2-9.5 0-13.4a18.2 18.2 0 00-8.2-7.7 18 18 0 00-13.7.3 17 17 0 00-8.5 9.5c-4.1 13 9.6 24.5 22.4 18.8zm137.5 1.2c3.6-.8 6-2 8.4-4.4 4.8-4.8 6-11.8 2.9-17.8-2.8-5.6-8-8.7-14.6-8.7-6.7 0-11.8 3-14.6 8.8-3 6-1.8 13 2.8 17.6a15 15 0 008 4.4c3.3.8 3.8.8 7 .1zM181 234.1a75 75 0 10-10.7.2c4.6.3 5.6.3 10.7-.2zM62.6 216.7c5.6-2.7 8.9-8 8.9-14.1 0-5-1.6-8.4-5.2-11.7-8.3-7.6-22-5.1-26.6 4.8a18.6 18.6 0 00-.5 12c1.5 4.3 5.5 8.3 10 10 3.3 1.2 9.8.8 13.4-1zm232-.2c12.4-5.9 12.3-22.3-.2-28.4-1.8-.9-3.3-1.1-6.8-1.1-3.8 0-4.8.1-7.4 1.4a15.6 15.6 0 001.5 28.7c1.1.4 3.8.8 6 .8 3.2 0 4.4-.2 7-1.4zM126.4 45V17H14.2L14 44.6v28.3c.3.5 11.8.6 56.3.5l55.9-.1zm82-.8V15.7h-74.5V73h74.6zm119.5-.2c0-25.3-.1-28.4-.8-28.6-1.1-.5-109.4-.5-110.5 0-.7.2-.8 3.3-.8 28.6v28.4h112z"/><path d="M6.6 174.4V7.4h333.7v334.1H204l2.3-1c3.7-1.7 6.6-4.5 8.2-7.7 1.2-2.6 1.4-3.7 1.4-7.2s-.2-4.6-1.4-7.1a17.4 17.4 0 00-8.1-8c-2-.8-3.4-1-7.4-1-4.5 0-5.2.1-7.7 1.5-3.5 1.9-6.1 4.8-7.8 8.5-1.1 2.4-1.3 3.4-1 6.8a15 15 0 008.8 13.6l3.2 1.6h-40l2.2-1c3.7-1.7 6.6-4.5 8.3-7.7 1.9-4 2-10 .3-13.8a17.3 17.3 0 00-8-8.1c-2.5-1.3-3.5-1.5-7.8-1.5-4.5 0-5.2.2-7.7 1.6-3.5 1.9-6.1 4.8-7.8 8.5-1.2 2.4-1.3 3.4-1 6.8a15 15 0 008.8 13.6l3.2 1.6H6.6zM108 303c2.7-.7 7-4.4 9-7.5 1.3-2.1 1.5-3.1 1.7-7 .2-4.1 0-5-1-7.5a17.5 17.5 0 00-8-8.3c-2.2-1-3.4-1.2-7.8-1.2-6 0-8.2.8-12 4.7-3.7 3.6-4.2 5-4.2 11.2 0 5.2.1 5.7 1.6 8a20 20 0 008.4 7.4c2.4.8 9.6 1 12.3.2zm143.1-1c3.4-1.7 5.7-4 7.3-7.2 1.2-2.6 1.4-3.6 1.4-7.4 0-3.6-.2-4.9-1.2-6.7a19 19 0 00-7.5-7.7c-2.5-1.4-3.1-1.5-8-1.5-4.7 0-5.4.1-8 1.5-3 1.7-6.2 5-7.7 8-1.4 3-1.3 10.6.3 13.5 1.8 3.5 4 5.7 7.5 7.5 3.1 1.6 3.5 1.6 8.5 1.4 4-.2 5.7-.5 7.4-1.3zm-96.1-6.7a21 21 0 008.3-7.6c1.6-3 1.6-11.5.2-14.5a18 18 0 00-21.3-8.3c-8.2 3.1-13 11.8-10.7 19.4a16 16 0 0011 11.5c3.3 1.3 9 1 12.5-.5zm49.4 0c3-1.3 6.4-4.3 8.2-7.3 1.2-2.2 1.4-3 1.4-7.7 0-6-.7-7.8-4.1-11.2a18 18 0 00-18.2-4.1c-4 1.4-8.2 5.4-9.8 9-4 9 1.4 19.7 11.3 22.2 3 .8 8.5.3 11.2-.9zM64 262.4c3.5-1.5 6.5-4.5 8.2-7.9 3-6 1.4-14-3.5-18.5-4-3.5-6-4.2-11.8-4.2-4.6 0-5.5.1-8.2 1.4a16.2 16.2 0 001.2 29.6 22.2 22.2 0 0014.1-.4zm231.6.6c3.1-1 7.8-5.2 9.2-8.2 1.6-3.3 2-8.3.9-12-.7-2.3-1.5-3.6-3.9-6-4.3-4.3-6-5-12.3-5-4.4 0-5.6.2-7.7 1.2a16.4 16.4 0 00-5.9 24.7c1.9 2.5 4.4 4.3 7.5 5.4 2.7 1 9.3.9 12.2-.1zm-188.2-6.1c3.8-1.8 6.3-4.1 8-7.6 1.3-2.5 1.5-3.6 1.5-7.4 0-4-.2-4.7-1.6-7.2-3.3-6-9-9.2-15.9-8.8-6.8.4-11.6 3.5-14.5 9.4-5.6 11.1 3.4 24 16.2 23a19 19 0 006.3-1.4zm141 .1c3.2-1.3 7-5.3 8.6-8.7.8-1.7 1-3.5 1-6.1.1-11-10.2-18.6-21.4-15.7-7.5 2-12.2 7.8-12.2 15.7-.1 7.4 4.3 13.2 11.9 15.7 2.9 1 8.8.6 12.1-.9zM190 233.6a74 74 0 0038.7-21 75.5 75.5 0 0020.5-38 92 92 0 00.3-29.1A76.8 76.8 0 00214.9 95c-6.4-4-16.7-8-25-9.9a114 114 0 00-30 0 72.7 72.7 0 00-34.4 17.3 75 75 0 00-4.9 109.3 76.2 76.2 0 0045 23c5.5.7 18.3.1 24.3-1.1zm-127.4-16a17 17 0 008.1-8c1.2-2.4 1.5-3.5 1.5-7s-.3-4.7-1.5-7.2a17.6 17.6 0 00-8.6-8.1 13.7 13.7 0 00-7.4-1.4 15 15 0 00-11.8 4.5c-3.5 3.3-4.5 5.6-4.8 11.2-.2 4 0 5 1 7.4 1.3 3 5.6 7.4 9 9 3 1.4 10.9 1.2 14.5-.4zm232.2-.4a16 16 0 009.5-17.6c-.6-3.6-2-6-4.6-8.6-3.6-3.6-6.1-4.6-12.2-4.6-4.4 0-5.6.2-7.4 1.2a16.6 16.6 0 00-4.5 26.4c3.5 3.5 5.9 4.4 12.1 4.4 3.7 0 5-.2 7.1-1.2zm-167.6-172v-29H13.4v28.6c0 22.4.2 28.7.7 29 .3 0 25.9.2 56.8.2H127zm81.8-.9V15.1h-75.6v58.4H209zm119.4.5c0-18.4-.2-28.5-.5-29.2-.6-1-1.7-1-56-1-42.4 0-55.5.2-56 .6-.5.5-.6 7.7-.6 29.2V73h113.1z"/><path d="M6.6 174.4V7.4h333.7v334.1H204l2.3-1c3.7-1.7 6.6-4.5 8.2-7.7 1.2-2.6 1.4-3.7 1.4-7.2s-.2-4.6-1.4-7.1a17.4 17.4 0 00-8.1-8c-2-.8-3.4-1-7.4-1-4.5 0-5.2.1-7.7 1.5-3.5 1.9-6.1 4.8-7.8 8.5-1.1 2.4-1.3 3.4-1 6.8a15 15 0 008.8 13.6l3.2 1.6h-40l2.2-1c3.7-1.7 6.6-4.5 8.3-7.7 1.9-4 2-10 .3-13.8a17.3 17.3 0 00-8-8.1c-2.5-1.3-3.5-1.5-7.8-1.5-4.5 0-5.2.2-7.7 1.6-3.5 1.9-6.1 4.8-7.8 8.5-1.2 2.4-1.3 3.4-1 6.8a15 15 0 008.8 13.6l3.2 1.6H6.6zM108 303c2.7-.7 7-4.4 9-7.5 1.3-2.1 1.5-3.1 1.7-7 .2-4.1 0-5-1-7.5a17.5 17.5 0 00-8-8.3c-2.2-1-3.4-1.2-7.8-1.2-6 0-8.2.8-12 4.7-3.7 3.6-4.2 5-4.2 11.2 0 5.2.1 5.7 1.6 8a20 20 0 008.4 7.4c2.4.8 9.6 1 12.3.2zm143.1-1c3.4-1.7 5.7-4 7.3-7.2 1.2-2.6 1.4-3.6 1.4-7.4 0-3.6-.2-4.9-1.2-6.7a19 19 0 00-7.5-7.7c-2.5-1.4-3.1-1.5-8-1.5-4.7 0-5.4.1-8 1.5-3 1.7-6.2 5-7.7 8-1.4 3-1.3 10.6.3 13.5 1.8 3.5 4 5.7 7.5 7.5 3.1 1.6 3.5 1.6 8.5 1.4 4-.2 5.7-.5 7.4-1.3zm-96.1-6.7a21 21 0 008.3-7.6c1.6-3 1.6-11.5.2-14.5a18 18 0 00-21.3-8.3c-8.2 3.1-13 11.8-10.7 19.4a16 16 0 0011 11.5c3.3 1.3 9 1 12.5-.5zm49.4 0c3-1.3 6.4-4.3 8.2-7.3 1.2-2.2 1.4-3 1.4-7.7 0-6-.7-7.8-4.1-11.2a18 18 0 00-18.2-4.1c-4 1.4-8.2 5.4-9.8 9-4 9 1.4 19.7 11.3 22.2 3 .8 8.5.3 11.2-.9zM64 262.4c3.5-1.5 6.5-4.5 8.2-7.9 3-6 1.4-14-3.5-18.5-4-3.5-6-4.2-11.8-4.2-4.6 0-5.5.1-8.2 1.4a16.2 16.2 0 001.2 29.6 22.2 22.2 0 0014.1-.4zm231.6.6c3.1-1 7.8-5.2 9.2-8.2 1.6-3.3 2-8.3.9-12-.7-2.3-1.5-3.6-3.9-6-4.3-4.3-6-5-12.3-5-4.4 0-5.6.2-7.7 1.2a16.4 16.4 0 00-5.9 24.7c1.9 2.5 4.4 4.3 7.5 5.4 2.7 1 9.3.9 12.2-.1zm-188.2-6.1c3.8-1.8 6.3-4.1 8-7.6 1.3-2.5 1.5-3.6 1.5-7.4 0-4-.2-4.7-1.6-7.2-3.3-6-9-9.2-15.9-8.8-6.8.4-11.6 3.5-14.5 9.4-5.6 11.1 3.4 24 16.2 23a19 19 0 006.3-1.4zm141 .1c3.2-1.3 7-5.3 8.6-8.7.8-1.7 1-3.5 1-6.1.1-11-10.2-18.6-21.4-15.7-7.5 2-12.2 7.8-12.2 15.7-.1 7.4 4.3 13.2 11.9 15.7 2.9 1 8.8.6 12.1-.9zM190 233.6a74 74 0 0038.7-21 75.5 75.5 0 0020.5-38 92 92 0 00.3-29.1A76.8 76.8 0 00214.9 95c-6.4-4-16.7-8-25-9.9a114 114 0 00-30 0 72.7 72.7 0 00-34.4 17.3 75 75 0 00-4.9 109.3 76.2 76.2 0 0045 23c5.5.7 18.3.1 24.3-1.1zm-127.4-16a17 17 0 008.1-8c1.2-2.4 1.5-3.5 1.5-7s-.3-4.7-1.5-7.2a17.6 17.6 0 00-8.6-8.1 13.7 13.7 0 00-7.4-1.4 15 15 0 00-11.8 4.5c-3.5 3.3-4.5 5.6-4.8 11.2-.2 4 0 5 1 7.4 1.3 3 5.6 7.4 9 9 3 1.4 10.9 1.2 14.5-.4zm232.2-.4a16 16 0 009.5-17.6c-.6-3.6-2-6-4.6-8.6-3.6-3.6-6.1-4.6-12.2-4.6-4.4 0-5.6.2-7.4 1.2a16.6 16.6 0 00-4.5 26.4c3.5 3.5 5.9 4.4 12.1 4.4 3.7 0 5-.2 7.1-1.2zm-167.6-172v-29H13.4v28.6c0 22.4.2 28.7.7 29 .3 0 25.9.2 56.8.2H127zm81.8-.9V15.1h-75.6v58.4H209zm119.4.5c0-18.4-.2-28.5-.5-29.2-.6-1-1.7-1-56-1-42.4 0-55.5.2-56 .6-.5.5-.6 7.7-.6 29.2V73h113.1z"/><path d="M48 217.4c-3.5-1.7-6.8-5-8.3-8a12.5 12.5 0 01-1.4-7c0-6.8 3-11.5 8.8-14.4 2.6-1.3 3.7-1.6 7.5-1.6 5.3 0 8.9 1.4 12.5 5 3.3 3.4 4.4 6.1 4.4 11.2a15 15 0 01-9 14.4 22 22 0 01-14.5.4zm11.5-2.8c2.8-.8 5.2-2.7 7.2-5.7 1.3-1.8 1.4-2.6 1.4-6 0-6-2-9.5-7-11.9-4.9-2.3-12.1-1.3-15.8 2a14 14 0 00-3.9 9.3c0 9 8.9 15 18 12.3z"/><path d="M48 217.4c-3.5-1.7-6.8-5-8.3-8a12.5 12.5 0 01-1.4-7c0-6.8 3-11.5 8.8-14.4 2.6-1.3 3.7-1.6 7.5-1.6 5.3 0 8.9 1.4 12.5 5 3.3 3.4 4.4 6.1 4.4 11.2a15 15 0 01-9 14.4 22 22 0 01-14.5.4zm11.5-2.8c2.8-.8 5.2-2.7 7.2-5.7 1.3-1.8 1.4-2.6 1.4-6 0-6-2-9.5-7-11.9-4.9-2.3-12.1-1.3-15.8 2a14 14 0 00-3.9 9.3c0 9 8.9 15 18 12.3z"/><path d="M49.6 213.7c-8.5-4.2-10.3-13.8-3.8-20.1 2.5-2.3 5-3.3 9-3.3 8 0 13 4.8 13 12.5 0 2.1-.4 4.2-.9 5.1a16.7 16.7 0 01-7.5 6.3 15 15 0 01-9.8-.5z"/><path d="M49.6 213.7c-8.5-4.2-10.3-13.8-3.8-20.1 2.5-2.3 5-3.3 9-3.3 8 0 13 4.8 13 12.5 0 2.1-.4 4.2-.9 5.1a16.7 16.7 0 01-7.5 6.3 15 15 0 01-9.8-.5z"/><path d="M49.6 213.7c-8.5-4.2-10.3-13.8-3.8-20.1 2.5-2.3 5-3.3 9-3.3 8 0 13 4.8 13 12.5 0 2.1-.4 4.2-.9 5.1a16.7 16.7 0 01-7.5 6.3 15 15 0 01-9.8-.5z"/><path d="M49.6 213.7c-8.5-4.2-10.3-13.8-3.8-20.1 2.5-2.3 5-3.3 9-3.3 8 0 13 4.8 13 12.5 0 2.1-.4 4.2-.9 5.1a16.7 16.7 0 01-7.5 6.3 15 15 0 01-9.8-.5z"/><path d="M49.6 213.7c-8.5-4.2-10.3-13.8-3.8-20.1 2.5-2.3 5-3.3 9-3.3 8 0 13 4.8 13 12.5 0 2.1-.4 4.2-.9 5.1a16.7 16.7 0 01-7.5 6.3 15 15 0 01-9.8-.5z"/><path d="M49.6 213.7c-8.5-4.2-10.3-13.8-3.8-20.1 2.5-2.3 5-3.3 9-3.3 8 0 13 4.8 13 12.5 0 2.1-.4 4.2-.9 5.1a16.7 16.7 0 01-7.5 6.3 15 15 0 01-9.8-.5z"/><path d="M48 217.4c-3.5-1.7-6.8-5-8.3-8a12.5 12.5 0 01-1.4-7c0-6.8 3-11.5 8.8-14.4 2.6-1.3 3.7-1.6 7.5-1.6 5.3 0 8.9 1.4 12.5 5 3.3 3.4 4.4 6.1 4.4 11.2a15 15 0 01-9 14.4 22 22 0 01-14.5.4zm11.5-2.8c2.8-.8 5.2-2.7 7.2-5.7 1.3-1.8 1.4-2.6 1.4-6 0-6-2-9.5-7-11.9-4.9-2.3-12.1-1.3-15.8 2a14 14 0 00-3.9 9.3c0 9 8.9 15 18 12.3z"/><path d="M6.6 174.4V7.4h333.7v334.1H204l2.3-1c3.7-1.7 6.6-4.5 8.2-7.7 1.2-2.6 1.4-3.7 1.4-7.2s-.2-4.6-1.4-7.1a17.4 17.4 0 00-8.1-8c-2-.8-3.4-1-7.4-1-4.5 0-5.2.1-7.7 1.5-3.5 1.9-6.1 4.8-7.8 8.5-1.1 2.4-1.3 3.4-1 6.8a15 15 0 008.8 13.6l3.2 1.6h-40l2.2-1c3.7-1.7 6.6-4.5 8.3-7.7 1.9-4 2-10 .3-13.8a17.3 17.3 0 00-8-8.1c-2.5-1.3-3.5-1.5-7.8-1.5-4.5 0-5.2.2-7.7 1.6-3.5 1.9-6.1 4.8-7.8 8.5-1.2 2.4-1.3 3.4-1 6.8a15 15 0 008.8 13.6l3.2 1.6H6.6zM108 303c2.7-.7 7-4.4 9-7.5 1.3-2.1 1.5-3.1 1.7-7 .2-4.1 0-5-1-7.5a17.5 17.5 0 00-8-8.3c-2.2-1-3.4-1.2-7.8-1.2-6 0-8.2.8-12 4.7-3.7 3.6-4.2 5-4.2 11.2 0 5.2.1 5.7 1.6 8a20 20 0 008.4 7.4c2.4.8 9.6 1 12.3.2zm143.1-1c3.4-1.7 5.7-4 7.3-7.2 1.2-2.6 1.4-3.6 1.4-7.4 0-3.6-.2-4.9-1.2-6.7a19 19 0 00-7.5-7.7c-2.5-1.4-3.1-1.5-8-1.5-4.7 0-5.4.1-8 1.5-3 1.7-6.2 5-7.7 8-1.4 3-1.3 10.6.3 13.5 1.8 3.5 4 5.7 7.5 7.5 3.1 1.6 3.5 1.6 8.5 1.4 4-.2 5.7-.5 7.4-1.3zm-96.1-6.7a21 21 0 008.3-7.6c1.6-3 1.6-11.5.2-14.5a18 18 0 00-21.3-8.3c-8.2 3.1-13 11.8-10.7 19.4a16 16 0 0011 11.5c3.3 1.3 9 1 12.5-.5zm49.4 0c3-1.3 6.4-4.3 8.2-7.3 1.2-2.2 1.4-3 1.4-7.7 0-6-.7-7.8-4.1-11.2a18 18 0 00-18.2-4.1c-4 1.4-8.2 5.4-9.8 9-4 9 1.4 19.7 11.3 22.2 3 .8 8.5.3 11.2-.9zM64 262.4c3.5-1.5 6.5-4.5 8.2-7.9 3-6 1.4-14-3.5-18.5-4-3.5-6-4.2-11.8-4.2-4.6 0-5.5.1-8.2 1.4a16.2 16.2 0 001.2 29.6 22.2 22.2 0 0014.1-.4zm231.6.6c3.1-1 7.8-5.2 9.2-8.2 1.6-3.3 2-8.3.9-12-.7-2.3-1.5-3.6-3.9-6-4.3-4.3-6-5-12.3-5-4.4 0-5.6.2-7.7 1.2a16.4 16.4 0 00-5.9 24.7c1.9 2.5 4.4 4.3 7.5 5.4 2.7 1 9.3.9 12.2-.1zm-196.2-5c-4.5-.5-8-2-10.8-4.8-6.5-6.1-6.5-16-.1-22.1 3.6-3.6 6.2-4.6 12-4.6 3.4 0 4.7-.1 4-.4a24 24 0 00-11.4 1 17.3 17.3 0 00-8.2 8.2c-3.7 7.3-1 16.4 6 20.5 3.2 1.9 6.2 2.7 9.3 2.7 2.5 0 2.4 0-.8-.4zm149-1c3.2-1.3 7-5.3 8.6-8.7.8-1.7 1-3.5 1-6.1.1-11-10.2-18.6-21.4-15.7-7.5 2-12.2 7.8-12.2 15.7-.1 7.4 4.3 13.2 11.9 15.7 2.9 1 8.8.6 12.1-.9zm-141.2 0c3.2-1.4 5.1-3 6.9-5.3 2-2.9 1.9-3.6-.2-.9a17.6 17.6 0 01-8.3 6.3c-1.5.5-2.3 1-1.7 1 .5 0 2-.5 3.3-1zm-5.8-1.4h-2c-.7.2-.3.3.8.3 1.2 0 1.7-.1 1.2-.3zm-5.7-1a16 16 0 01-8-6.8 21 21 0 01-1.4-5.4l-.3-3.3v3.3c.2 4 1.4 6.7 4 9.3 1.9 2 5.4 3.8 7 3.7.7 0 0-.3-1.3-.7zm10.8-.1c2.2-1 3.6-2.3 5-4 .4-.5-.4 0-1.9 1.2a17 17 0 01-5 3c-1.2.4-1.8.7-1.3.7.6 0 2-.4 3.2-1zm8-12c0-3.5-1.2-6.8-3.5-9.3-1.9-2-5.2-4.1-5.6-3.6-.2 0 .4.5 1.3.9 2.2.9 6 5.2 6.7 7.7.8 2.8.8 6-.2 8.2-1 2.7-.9 3 .3.5.6-1.2 1-3.2 1-4.5zm2 3.5c-.2-.4-.3-.3-.3.3s0 .9.2.7c.2-.2.2-.6 0-1zm.5-4.7c-.2-4-1.3-6.8-3.7-9.7a21.6 21.6 0 00-6.7-4.8c-.3 0 .9 1 2.6 2a15 15 0 017.4 13.3c0 1.6.2 3 .4 3 .1 0 .2-1.7 0-3.8zm-27-7.9c3.1-3.3 5.4-4.2 10.3-4.2 2.4 0 3.9-.2 3.4-.4-1.3-.5-5.3-.5-7.4 0-3 1-6.7 3.6-8.3 6.2-.9 1.3-1.6 2.8-1.6 3.3 0 .4.4 0 .8-1 .5-1 1.7-2.8 2.7-3.9zm80.5.4a2 2 0 00-1.3 0c-.4.1-.1.2.6.2s1 0 .7-.2zm7-1.6h-5c-1.3 0-.2.2 2.5.2 2.8 0 3.9-.1 2.5-.2zm-8.6-.5c-.6-.2-1.8-.2-2.6 0-.8 0-.3.2 1.2.2 1.4 0 2-.1 1.4-.2zm15.1 0c-.6-.2-1.8-.2-2.6 0-.8 0-.2.2 1.2.2s2-.1 1.4-.2zm-19.8-.5a3 3 0 00-1.5 0c-.6 0-.3.2.6.2.9 0 1.3-.1 1-.2zm23.5 0a3 3 0 00-1.6 0c-.5 0-.2.2.7.2.8 0 1.2-.1.9-.2zm-27.3-.7c-.7-.3-1.7-.5-2.3-.5-.8 0-.8.1.2.5l2.4.4c.8 0 .8-.1-.3-.4zm29.9.1a2 2 0 00-1.3 0c-.4.2 0 .3.6.3.7 0 1-.1.7-.3zm7-1.7a73.8 73.8 0 0047.6-48.6c0-.4-1 1.7-2 4.7a72.6 72.6 0 01-47.3 44c-2.6.7-4.3 1.4-3.8 1.4s3-.6 5.6-1.5zm-42.6.2c-1.2-.4-2.4-.6-2.5-.5-.3.3 3 1.2 4 1.2.5 0-.2-.3-1.5-.7zm-12.2-5c-18-9.2-31-24.6-36.9-44-.8-2.5-1.4-4.3-1.4-3.8a71 71 0 0019.4 34.6 69.9 69.9 0 0022.5 15.4c.3 0-1.3-1-3.6-2.1zm70.8.6c.2-.3.1-.5-.2-.5-.3 0-.5.2-.5.5s0 .5.2.5c.1 0 .4-.2.5-.5zm-77.4-1c0-.3-.2-.5-.5-.5s-.4.2-.3.5c.2.3.5.5.6.5.1 0 .2-.2.2-.5zm80-.5c.2-.3.1-.6-.2-.6s-.5.3-.5.6c0 .2 0 .5.2.5l.6-.5zm1.6-1c.2-.4 0-.6-.2-.6s-.6.2-.6.5.1.5.3.5l.5-.5zm1.9-1.4c.5-.7.5-.7-.2-.5-.5.2-.9.6-.9.8 0 .7.3.6 1-.3zm-88.2-.2c0-.2-.4-.6-.8-.8-.7-.3-.8-.2-.2.5.7.9 1 1 1 .3zm90.5-1.7c1-1.1 1-1.1-.1-.4-.7.4-1.2 1-1.2 1.1 0 .7.3.5 1.3-.7zm-92.6.1c0-.2-.3-.6-.8-.7-.7-.3-.8-.2-.2.4.7 1 1 1 1 .3zm-75.3-.5c-4.2-.3-5-.5-7.4-2a16 16 0 01-8-11c-.3-2.2-.4-2.3-.4-.6-.1 2.7 2 6.7 5 9.6 4 3.6 6.3 4.5 11.3 4.4h4.2zm9.6-1.4c2.5-1.2 6.8-5.4 6.8-6.6 0-.3-.6.3-1.4 1.3-1.9 2.5-5.3 5-8.1 6-1.2.3-1.7.6-1.1.6.6 0 2.3-.5 3.8-1.3zm231.3.1a16 16 0 009.5-17.6c-.6-3.6-2-6-4.6-8.6-3.6-3.6-6.1-4.6-12.2-4.6-4.4 0-5.6.2-7.4 1.2a16.6 16.6 0 00-4.5 26.4c3.5 3.5 5.9 4.4 12.1 4.4 3.7 0 5-.2 7.1-1.2zM122 212.5c-2.7-2.7-5.2-5-5.3-5-.2 0 2 2.4 4.9 5.2a52 52 0 005.3 5c.1 0-2-2.4-4.9-5.2zm105.7.8c0-.3-4.4 3.8-4.6 4.4-.2.3.8-.5 2.2-1.8s2.4-2.4 2.4-2.6zM56.3 215c-1-.2-2.5-.2-3.4 0-1 0-.2.2 1.7.2s2.6-.1 1.7-.2zm5-1c1-.4 1.6-1 1.5-1-.2-.3-.7-.2-1 .1-.4.3-1.4.8-2.3 1-.8.4-1.2.7-.8.7a9 9 0 002.5-.8zm-13-.7c0-.3-.2-.6-.5-.6s-.4.3-.2.6l.5.5.2-.5zm-1.8-1.6c-.2-.3-.6-.5-.9-.5-.3 0-.3.3.1.8.8.8 1.4.6.8-.3zm187-4c0-.6-1.1.3-3 2.4l-2 2.4 2.5-2.4c1.3-1.2 2.4-2.4 2.4-2.5zm-168.2 3.5c.2-.3 0-.6-.2-.6-.3 0-.7.3-.9.6-.1.3 0 .5.2.5.3 0 .7-.2.9-.5zm-20.6-1c0-.4-.3-.6-.6-.6s-.4.2-.2.5.4.5.6.5c0 0 .2-.2.2-.5zm26.5-2.2c-.2-.4-.4-.2-.6.5-.2.9-.1 1 .2.7.3-.3.5-.9.4-1.2zm-27.6.6c0-.3-.2-.6-.5-.6s-.4.3-.2.6l.5.5.2-.5zm24.4-2.7c-.2-.5-.3-.3-.3.3 0 .5 0 .8.2.7.2-.2.2-.7 0-1zm48.1 0c-.3-.5-.8-1-1.1-1-.3 0-.2.5.3 1 .6.6 1 1.1 1.2 1.1 0 0 0-.5-.4-1zm118.6 0c.5-.5.7-1 .5-1-.3 0-.8.5-1.1 1-.4.6-.6 1.1-.5 1.1a5 5 0 001.1-1zm-162.4-3.6c0-3.1-.3-2.5-.6 1.3-.2 1.9-.2 2.7.1 2 .3-.5.5-2 .5-3.3zm-30.4 2.5c-.1-.4-.3-.3-.3.3s.1.9.3.7c.1-.2.2-.6 0-1zm72.6-1c0-.2-.2-.5-.5-.5s-.4.3-.2.6c.1.3.4.5.5.5.1 0 .2-.2.2-.5zm122-.2c.4-.4.5-.8.2-.8s-.7.4-.9.8c-.1.4-.2.8 0 .8l.7-.8zm-195.1-1.4c-.2-.4-.3-.3-.3.3s0 .9.3.7v-1zm71.8-.2c-.2-.4-.6-.7-.9-.7-.3 0-.2.3.2.7.3.5.7.8.8.8l-.1-.8zm124.6-.2c.2-.3.1-.5-.2-.5-.3 0-.5.2-.5.5s0 .5.2.5c.1 0 .4-.2.5-.5zM38.3 199c-.1-.7-.3-.3-.3.9 0 1.1.1 1.6.3 1.1v-2zm29.7.2c-.1-.5-.3-.2-.3.7 0 .8.1 1.2.3.9.1-.4.1-1 0-1.6zm-24.7-2.5c.4-.8 1.4-2.1 2.1-2.8.8-.7 1.4-1.5 1.4-1.8 0-.3-.6 0-1.4.8a15.8 15.8 0 00-3.8 7c0 .7.2.6.4-.3l1.3-2.9zm195.6 3.4c.2-.3 0-.5-.2-.5s-.6.2-.6.5.1.5.2.5c.2 0 .4-.2.6-.5zm-168-4.3c-.6-1.3-2-3.3-3-4.5-2-2.2-7.5-5.3-9.3-5.2-.7 0-.3.3 1 .7 3.2 1 5 2.1 7.5 4.6 2.2 2.2 4 5.4 4.2 7.4 0 .9.1.9.3.2.2-.5-.2-2-.8-3.2zm39.5 1.7c0-.3-.3-.5-.6-.5s-.4.2-.2.5l.5.5c.2 0 .3-.2.3-.5zm130 0c.2-.3.1-.5-.2-.5s-.5.2-.5.5 0 .5.2.5c.1 0 .4-.2.6-.5zm-198.1-6a19 19 0 0111.4-5.4l3.8-.5-3.7.2c-4.5.2-7.8 1.6-11 4.5-2.3 2.1-4.4 5.4-4.4 6.8 0 .4.5-.3 1-1.5a20 20 0 012.9-4.2zm24.3 3.7c0-.1-.2-.4-.5-.6-.3-.1-.6 0-.6.3s.3.5.6.5.5 0 .5-.2zm113.9-1.6a32 32 0 0016.8-11.8c.7-1.1 4.2-3 15.9-8.6 8.3-4 15.3-7.5 15.6-7.9.4-.4.4-.9.1-1.1-.2-.3-7.2-3.7-15.6-7.6-14.8-7-15.1-7.2-16.9-9.8a29.5 29.5 0 00-15.1-10.5 37 37 0 00-14.4-.3c-10 2.4-18.6 11-21.3 21.4-1 3.7-1 11 0 14.9a30 30 0 0020.9 21.3c3.5 1 10.3 1 14 0zm-116.5-1l-.5-.6c-.3-.1-.6 0-.6.3s.3.5.6.5c.2 0 .5 0 .5-.2zm-3.4-1.9c-1.5-.7-3.1-1-6-1l-4 .2 4.5.3c2.5.2 5 .6 5.5 1a4 4 0 001.6.5c.2 0-.5-.4-1.6-1zm186-18a48.4 48.4 0 00-1.7 6.4c.1 1 1.5-4.2 1.8-6.5zm-142.7.7c-.1-.4-.2 0-.2.7s.1 1 .2.6c.2-.4.2-1 0-1.3zm-.5-2.9c0-.5-.2-.2-.2.7 0 .8 0 1.3.2 1 .2-.4.2-1.1 0-1.7zm144-3.9c-.2-.6-.3 0-.3 1.2 0 1.3.1 1.8.2 1.2.2-.7.2-1.7 0-2.4zm-144.5-.5c-.1-.6-.2-.1-.2 1.2s.1 1.8.2 1.1c.2-.6.2-1.7 0-2.3zm145-9.6c-.1-1.7-.2-.3-.2 3s0 4.6.2 3v-6zm-145.5.2c0-1.5-.2-.4-.2 2.5s.1 4.1.2 2.7v-5.2zm.5-6.5c0-.8-.2-.3-.2 1.2 0 1.4.1 2 .2 1.4.1-.6.2-1.8 0-2.6zm144.4-.3c0-.6-.2-.2-.2 1 0 1.1.1 1.6.2 1.1.2-.5.2-1.4 0-2zM107 134.5a70 70 0 0115.9-25.2c8-8.2 15.8-13.6 25.8-17.5 2.9-1.2 4.9-2 4.4-2-1.2 0-9.7 3.6-13.6 5.8a74.8 74.8 0 00-36.4 52.2c0 .6.6-1.3 1.3-4.1.6-3 1.8-7 2.6-9.2zm139.8 12.2c-.1-.5-.2-.3-.2.6 0 .9 0 1.3.2 1 .1-.4.1-1.1 0-1.6zm-.5-3c-.2-.3-.3 0-.3.7 0 .8.1 1 .3.7v-1.3zm-.5-2c-.2-.4-.3-.3-.4.3 0 .6.1.9.3.7.2-.1.2-.6 0-1zm-.7-2.7c-.2-.8-.4-1.3-.6-1.2 0 .2 0 .9.2 1.6.2.8.4 1.3.5 1.2.2-.1.1-.8 0-1.6zm-2-6c-1.4-4-6.2-12.7-9.3-17a71.4 71.4 0 00-37-26.4c-.4.1 1.6 1 4.4 2.1a72.5 72.5 0 0142.4 43.7c.2 0 0-1.2-.5-2.4zm-133.8-10c0-.2 0-.5-.2-.5-.1 0-.4.3-.5.6-.2.2-.1.5.2.5.3 0 .5-.3.5-.5zm132.5.4c0-.2-.3-.4-.6-.6-.3-.2-.5 0-.5.2 0 .3.2.6.5.6l.6-.2zm-130.4-4c0-.3 0-.5-.2-.5-.1 0-.4.2-.6.5-.1.3 0 .5.3.5s.5-.2.5-.5zm128.3.3l-.5-.5c-.3-.2-.6-.1-.6.2 0 .3.3.5.6.5.2 0 .5 0 .5-.2zm-127.2-1.9c0-.2-.1-.5-.3-.5l-.5.5c-.2.3 0 .6.2.6.3 0 .6-.3.6-.6zm126.1.3l-.5-.5c-.3-.2-.5 0-.5.2 0 .3.2.6.5.6s.5-.1.5-.3zm-125-1.8c0-.3-.2-.5-.3-.5-.1 0-.4.2-.6.5-.2.3 0 .5.3.5s.5-.2.5-.5zm124 .3c0-.2-.2-.4-.5-.6-.3-.2-.6 0-.6.3s.3.5.6.5.5-.1.5-.2zm-122.7-2.4l.5-1s-.6.4-1.1 1c-.5.6-.7 1-.5 1 .3 0 .8-.4 1.1-1zm121.6.8l-.8-.8c-.6-.6-.7-.5-.4.2.3.7 1.2 1.2 1.2.6zm-1.5-2l-1.1-1.2c-1.1-1-1.2-1-.4.2.6 1 1.5 1.6 1.5 1zm-117.2-2.2c1.9-2.3 1.6-2.3-.6 0-1 1-1.6 1.8-1.3 1.8.3 0 1.1-.8 2-1.8zm111-4.7a40.4 40.4 0 00-4.6-4.2c-.3.2 7.8 8.5 8.4 8.6.3 0-1.4-2-3.9-4.4zm-60.2 2.7c1.4-1.2 1.5-1.5 1.6-7 .2-5.5.2-5.8-.8-5.8s-1 .4-1.2 5.1c-.3 6-.7 6.8-3.6 6.8-2.9 0-3.1-.5-3.1-6.6 0-5-.1-5.3-1-5.3-1 0-1.1.3-1.1 5.7s0 5.8 1.3 7c1.8 1.9 5.8 1.9 8 0zm6.4-1.6v-3h3c2.3 0 3-.1 4-1.2a4 4 0 00.4-5.6c-1-1-1.5-1.2-5.5-1.4l-4.5-.2V110h1.3c1.3 0 1.3-.1 1.3-2.8zm-52.6-1c1.2-1.4 2.1-2.5 2-2.7-.2-.1-1.4 1-2.8 2.4s-2.3 2.6-2 2.6c.2 0 1.5-1 2.8-2.4zm6.2-6.2c0-.7-.2-.5-2 1.5l-1.9 2 2-1.6c1-.8 2-1.7 2-2zm94.1.6c-.5-.5-1-.9-1.2-.7-.1.1.2.6.7 1 1.5 1 1.6 1 .5-.3zm-92.4-2c.6-.7.6-.8-.2-.1-1 .7-1.2 1.1-.8 1.1.2 0 .6-.4 1-1zm90 .2c-.3-.4-.7-.7-.9-.5-.2.2 0 .5.5.8 1 .7 1.2.6.5-.3zm-87.5-2c0-.2-.3-.2-.8.2l-.8.8c0 .1.4 0 .8 0 .4-.3.8-.6.8-1zm85.5.4c-.4-.4-.8-.6-1-.4-.1.1 0 .5.5.7 1 .7 1.2.7.5-.3zm-84-1.2c0-.3 0-.6-.2-.6l-.5.6c-.2.2-.1.5.2.5s.6-.3.6-.5zm2.7-1.6c0-.3-.1-.5-.3-.5l-.5.5c-.2.3 0 .5.2.5.3 0 .6-.2.6-.5zm77.1.3c0-.1-.2-.4-.5-.6-.3-.1-.5 0-.5.3s.2.5.5.5.5 0 .5-.2zm-73.5-2.4c0-.3 0-.5-.2-.5-.1 0-.4.2-.6.5-.1.3 0 .5.3.5s.5-.2.5-.5zm18.3-3.7c2.1-.5 3-.9 1.8-.7-2.1.2-7.3 1.7-6.3 1.7.3 0 2.3-.4 4.5-1zm34.9.3c-1.3-.5-3.3-.9-4.4-1-1.3-.2-.8 0 1.5.7 4.3 1.1 6.3 1.3 2.9.3zm-28.3-1.6c-.5-.2-1.3-.2-1.8 0-.5 0-.1.2.9.2s1.4-.1 1-.2zm20.9 0c-.5-.2-1.4-.2-1.9 0s0 .2 1 .2 1.4-.1.9-.2zm-14.6-.6H168c-1 .1 0 .2 2 .2s2.7 0 1.7-.2zm10.1 0h-3.4c-.9.1-.1.2 1.7.2 1.9 0 2.7 0 1.7-.2zm-54.8-41.6v-29H13.4v28.7c0 22.4.1 28.7.7 29 .3 0 25.9.2 56.8.2H127zm81.8-.8V15.1h-75.6v58.4H209zm119.4.5c0-18.4-.2-28.5-.5-29.2-.6-1-1.7-1-56-1-42.4 0-55.5.2-56 .6-.5.5-.6 7.7-.6 29.2V73h113.1z"/><path d="M6.6 174.4V7.4h333.7v334.1H204l2.3-1c3.7-1.7 6.6-4.5 8.2-7.7 1.2-2.6 1.4-3.7 1.4-7.2s-.2-4.6-1.4-7.1a17.4 17.4 0 00-8.1-8c-2-.8-3.4-1-7.4-1-4.5 0-5.2.1-7.7 1.5-3.5 1.9-6.1 4.8-7.8 8.5-1.1 2.4-1.3 3.4-1 6.8a15 15 0 008.8 13.6l3.2 1.6h-40l2.2-1c3.7-1.7 6.6-4.5 8.3-7.7 1.9-4 2-10 .3-13.8a17.3 17.3 0 00-8-8.1c-2.5-1.3-3.5-1.5-7.8-1.5-4.5 0-5.2.2-7.7 1.6-3.5 1.9-6.1 4.8-7.8 8.5-1.2 2.4-1.3 3.4-1 6.8a15 15 0 008.8 13.6l3.2 1.6H6.6zM108 303c2.7-.7 7-4.4 9-7.5 1.3-2.1 1.5-3.1 1.7-7 .2-4.1 0-5-1-7.5a17.5 17.5 0 00-8-8.3c-2.2-1-3.4-1.2-7.8-1.2-6 0-8.2.8-12 4.7-3.7 3.6-4.2 5-4.2 11.2 0 5.2.1 5.7 1.6 8a20 20 0 008.4 7.4c2.4.8 9.6 1 12.3.2zm143.1-1c3.4-1.7 5.7-4 7.3-7.2 1.2-2.6 1.4-3.6 1.4-7.4 0-3.6-.2-4.9-1.2-6.7a19 19 0 00-7.5-7.7c-2.5-1.4-3.1-1.5-8-1.5-4.7 0-5.4.1-8 1.5-3 1.7-6.2 5-7.7 8-1.4 3-1.3 10.6.3 13.5 1.8 3.5 4 5.7 7.5 7.5 3.1 1.6 3.5 1.6 8.5 1.4 4-.2 5.7-.5 7.4-1.3zm-96.1-6.7a21 21 0 008.3-7.6c1.6-3 1.6-11.5.2-14.5a18 18 0 00-21.3-8.3c-8.2 3.1-13 11.8-10.7 19.4a16 16 0 0011 11.5c3.3 1.3 9 1 12.5-.5zm49.4 0c3-1.3 6.4-4.3 8.2-7.3 1.2-2.2 1.4-3 1.4-7.7 0-6-.7-7.8-4.1-11.2a18 18 0 00-18.2-4.1c-4 1.4-8.2 5.4-9.8 9-4 9 1.4 19.7 11.3 22.2 3 .8 8.5.3 11.2-.9zM64 262.4c3.5-1.5 6.5-4.5 8.2-7.9 3-6 1.4-14-3.5-18.5-4-3.5-6-4.2-11.8-4.2-4.6 0-5.5.1-8.2 1.4a16.2 16.2 0 001.2 29.6 22.2 22.2 0 0014.1-.4zm231.6.6c3.1-1 7.8-5.2 9.2-8.2 1.6-3.3 2-8.3.9-12-.7-2.3-1.5-3.6-3.9-6-4.3-4.3-6-5-12.3-5-4.4 0-5.6.2-7.7 1.2a16.4 16.4 0 00-5.9 24.7c1.9 2.5 4.4 4.3 7.5 5.4 2.7 1 9.3.9 12.2-.1zm-188.2-6.1c3.8-1.8 6.3-4.1 8-7.6 1.3-2.5 1.5-3.6 1.5-7.4 0-4-.2-4.7-1.6-7.2-3.3-6-9-9.2-15.9-8.8-6.8.4-11.6 3.5-14.5 9.4-5.6 11.1 3.4 24 16.2 23a19 19 0 006.3-1.4zm141 .1c3.2-1.3 7-5.3 8.6-8.7.8-1.7 1-3.5 1-6.1.1-11-10.2-18.6-21.4-15.7-7.5 2-12.2 7.8-12.2 15.7-.1 7.4 4.3 13.2 11.9 15.7 2.9 1 8.8.6 12.1-.9zM190 233.6a74 74 0 0038.7-21 75.5 75.5 0 0020.5-38 92 92 0 00.3-29.1A76.8 76.8 0 00214.9 95c-6.4-4-16.7-8-25-9.9a114 114 0 00-30 0 72.7 72.7 0 00-34.4 17.3 75 75 0 00-4.9 109.3 76.2 76.2 0 0045 23c5.5.7 18.3.1 24.3-1.1zM50.2 218.5c-.2-.3-.6-.6-1-.6s-1.5-.6-2.6-1.3c-1.1-.7-2.1-1.2-2.2-1.1-.3.3 2.6 2.2 4.5 3 1.6.6 1.6.6 1.3 0zm6 .1H53c-1 .1-.2.2 1.7.2s2.6 0 1.7-.2zm4-.4c-.2-.2-.6-.2-1 0-.4 0-.3.2.3.2s.9 0 .7-.2zm234.5-1a16 16 0 009.5-17.6c-.6-3.6-2-6-4.6-8.6-3.6-3.6-6.1-4.6-12.2-4.6-4.4 0-5.6.2-7.4 1.2a16.6 16.6 0 00-4.5 26.4c3.5 3.5 5.9 4.4 12.1 4.4 3.7 0 5-.2 7.1-1.2zm-230.2-.8c0-.3-.1-.5-.2-.5-.2 0-.4.2-.6.5-.2.3 0 .5.2.5.4 0 .6-.2.6-.5zm1.8-1c.6-1 0-1.2-.7-.3-.5.5-.5.8-.2.8.4 0 .8-.3 1-.6zm-6.8-.8c4.4-1.3 8.7-6.1 8.6-9.6 0-1.4-.2-1.5-.3-.6-.6 4 .7 3.6-12.7 3.8l-12 .1-.7-2.3c-.4-1.3-.8-2-.8-1.4 0 1.7 2 5.4 4 7.1 4 3.5 8.7 4.5 13.9 3zm9.7-2.4c0-.3-.1-.5-.2-.5-.2 0-.4.2-.6.5-.2.3 0 .5.2.5.3 0 .6-.2.6-.5zm-28.2-.7c0-.2-.2-.4-.5-.6-.3-.2-.5 0-.5.2 0 .3.2.6.5.6s.5-.1.5-.2zm30.6-6.2c-.1-.4-.2 0-.2.7s0 1 .2.6.2-1 0-1.3zM38.3 204c-.2-.5-.3 0-.3 1s.1 1.3.3.8V204zm33.9-2.3c-.2-.7-.3-.3-.3.9 0 1.1.1 1.6.3 1.1v-2zm-30.8.5c-.2-.4-.3-.3-.3.3s0 .9.3.7v-1zm-3.1-2.9c-.2-.5-.3 0-.3 1s.1 1.3.3.8v-1.8zm29.7 0c-.1-.5-.3 0-.3 1s.2 1.3.3.8v-1.8zm-24.8-2.5c2-3.6 5.3-5.9 9.5-6.5 2.6-.4 2.6-.4.6-.4-2.3 0-6.1 1.4-8 3.2a15 15 0 00-3.7 7.2c0 1 .1 1 .4-.3l1.2-3.2zm28.4 1.8c-.1-.5-.3-.3-.3.3 0 .5.1.8.3.7.2-.2.2-.7 0-1zm-4.7-2.4c-1.7-3.2-6.7-6.4-10-6.3-1.2 0-1.1 0 .7.5 3.4.6 6.8 2.8 8.4 5.4 1.5 2.5 2.1 2.8 1 .4zm-26.1-2.8c.2-.2 0-.5-.3-.5s-.5.3-.5.5l.2.6c.2 0 .4-.3.6-.6zm28.2-1c-.2-.3-.6-.5-1-.5-.3 0-.3.3.2.8.7.8 1.3.6.8-.3zm-2.7-2.6c-.1-.3-.5-.5-.9-.5-.3 0-.3.3.2.8.7.8 1.3.6.7-.3zm-19.8-1.6c.2-.3 0-.5-.2-.5s-.6.2-.6.5.1.5.3.5l.5-.5zm5.1-1.9a2 2 0 00-1.3 0c-.4.2 0 .3.6.3.8 0 1-.1.7-.3zm7.5 0h-1c-.4.2-.2.3.4.3.5 0 .8 0 .6-.2zm-3.3-.5h-2.4c-.7 0-.1.2 1.2.2s1.8-.1 1.2-.2zM127 45v-29H13.4v28.7c0 22.4.2 28.7.7 29 .3 0 25.9.2 56.8.2H127zm81.8-.8V15.1h-75.6v58.4H209zm119.4.5c0-18.4-.2-28.5-.5-29.2-.6-1-1.7-1-56-1-42.4 0-55.5.2-56 .6-.5.5-.6 7.7-.6 29.2V73h113.1z"/><rect width="319.6" height="261.7" x="9.5" y="78.6" ry="21.9" fill="#fff" fill-rule="evenodd" stroke="#fff"/><path stroke="#000" stroke-width="2.1" d="M26.8 224.7h82.3V307H26.8zm104.3 0h82.2V307h-82.2zm102.2 0h82.3V307h-82.3z"/><path d="M87.5 301.6h-32v-6h12.3v-39.7H55.5v-5.4a39 39 0 005.4-.3c1.9-.3 3.3-.7 4.3-1.3a8 8 0 002.9-2.5 8 8 0 001.2-4.1h6.2v53.2h12z" aria-label="1" font-weight="400" font-size="81.3" font-family="Digital-7" letter-spacing="0" word-spacing="0" fill="#000" stroke-width="2"/><path d="M194 300.8h-39v-8.1l8-7c2.8-2.3 5.3-4.6 7.7-7 5-4.7 8.3-8.5 10.2-11.3 1.8-2.9 2.7-6 2.7-9.2 0-3-1-5.3-3-7-2-1.7-4.7-2.6-8.2-2.6a31 31 0 00-15.6 5h-.4v-8a37.6 37.6 0 0116.2-3.6c5.9 0 10.5 1.4 13.9 4.2 3.3 2.9 5 6.7 5 11.6a21.5 21.5 0 01-3.3 11.5c-1 1.6-2.2 3.2-3.5 4.8l-5 5.1a191.3 191.3 0 01-16.8 15h31z" aria-label="2" font-weight="400" font-size="79.3" font-family="Digital-7" letter-spacing="0" word-spacing="0" fill="#000" stroke-width="2"/><path d="M290 272a13 13 0 014.2 10.6 17.1 17.1 0 01-12.3 17c-2.5.8-5.4 1.2-8.5 1.2a43.3 43.3 0 01-17-3.6v-8h.6a31.5 31.5 0 0016.3 5c1.6 0 3.3-.3 5.1-.9a11 11 0 004.5-2.3 11 11 0 003.5-9c0-2-.4-3.7-1-5a7.7 7.7 0 00-2.7-3.2c-1.2-.8-2.6-1.4-4.2-1.7-1.7-.3-3.5-.4-5.4-.4h-3.4v-6.4h2.7c3.9 0 7-.8 9.3-2.5 2.3-1.6 3.5-4 3.5-7.1a7.1 7.1 0 00-3.3-6.2 11 11 0 00-3.6-1.4 25.8 25.8 0 00-12 1c-2.8.8-5.4 2-7.8 3.6h-.4v-8c1.8-1 4.2-1.8 7.3-2.5a36.2 36.2 0 0116.2-.4c2.2.5 4 1.3 5.8 2.5 1.9 1.2 3.3 2.7 4.2 4.4 1 1.8 1.4 3.8 1.4 6.2 0 3.2-1 6-3.4 8.3a14.7 14.7 0 01-7.9 4.5v.5a19.5 19.5 0 018.3 3.8z" aria-label="3" font-weight="400" font-size="79" font-family="Digital-7" letter-spacing="0" word-spacing="0" fill="#000" stroke-width="2"/><rect width="25.5" height="9.3" x="55" y="229.9" ry="0" stroke="#000" stroke-width=".9"/><rect ry="0" y="229.9" x="161" height="9.3" width="25.5" stroke="#000" stroke-width=".9"/><rect width="25.5" height="9.3" x="262" y="229.9" ry="0" stroke="#000" stroke-width=".9"/></svg>