<svg xmlns="http://www.w3.org/2000/svg" viewBox="0 0 348 348" fill="none"><path d="M5.079 5.776h336.913v337.67H5.08z" stroke-width="2" stroke="#000"/><path d="M282.734 40.554c0-8.376 6.966-15.165 15.56-15.165 4.126 0 8.084 1.597 11.001 4.441 2.918 2.844 4.558 6.702 4.558 10.724 0 8.376-6.966 15.165-15.56 15.165-8.593 0-15.559-6.79-15.559-15.165z" stroke-width="2" stroke="#000"/><rect width="223.134" height="43.271" x="34.148" y="23.204" ry="3.361" fill="#fff" stroke="#000"/><rect width="62.04" height="239.296" x="271.619" y="85.765" ry="3.361" fill="#fff" stroke="#000"/><rect width="46.139" height="17.204" x="280.156" y="100.689" ry="3.361" fill="#fff" stroke="#000"/><rect width="46.139" height="17.204" x="280.091" y="124.605" ry="3.361" fill="#fff" stroke="#000"/><rect width="46.139" height="17.204" x="280.091" y="148.848" ry="3.361" fill="#fff" stroke="#000"/><rect width="46.139" height="17.204" x="280.156" y="173.285" ry="3.361" fill="#fff" stroke="#000"/><rect width="46.23" height="17.203" x="279.988" y="196.258" ry="3.361" fill="#fff" stroke="#000" stroke-width="1.001"/><rect width="46.139" height="17.204" x="280.424" y="220.897" ry="3.361" fill="#fff" stroke="#000"/><rect width="46.139" height="17.204" x="280.325" y="245.025" ry="3.361" fill="#fff" stroke="#000"/><rect width="46.139" height="17.204" x="280.14" y="270.093" ry="3.361" fill="#fff" stroke="#000"/><rect width="46.139" height="17.204" x="279.956" y="294.884" ry="3.361" fill="#fff" stroke="#000"/><rect width="230.954" height="242.163" x="29.456" y="84.462" ry="3.361" fill="#fff" stroke="#000"/></svg>