<svg xmlns="http://www.w3.org/2000/svg" xmlns:xlink="http://www.w3.org/1999/xlink" xml:space="preserve" fill="none" viewBox="0 0 512 512"><defs><path id="d" fill="#b2b9bd" stroke="#949ca2" stroke-linejoin="round" stroke-width="9.39" d="m256 240.54 10.93 4.53 4.53 10.93-4.53 10.93-10.93 4.53-10.93-4.53-4.53-10.93 4.53-10.93z" filter="url(#a)"/></defs><defs><radialGradient xlink:href="#b" id="t" cx="339.36" cy="-244.32" r="19" fx="339.36" fy="-244.32" gradientTransform="rotate(30 129.6 -455.99)" gradientUnits="userSpaceOnUse"/><radialGradient xlink:href="#b" id="m" cx="341.7" cy="-239.7" r="19" fx="341.7" fy="-239.7" gradientTransform="rotate(30 -14.62 116.68)" gradientUnits="userSpaceOnUse"/><radialGradient xlink:href="#b" id="j" cx="357.7" cy="-239.7" r="19" fx="357.7" fy="-239.7" gradientTransform="rotate(30 241.38 -838.73)" gradientUnits="userSpaceOnUse"/><radialGradient xlink:href="#b" id="p" cx="355.36" cy="-244.32" r="19" fx="355.36" fy="-244.32" gradientTransform="rotate(30 385.6 -1411.4)" gradientUnits="userSpaceOnUse"/><radialGradient xlink:href="#b" id="n" cx="338.77" cy="-244.77" r="19" fx="338.77" fy="-244.77" gradientTransform="rotate(30 -364.32 210.38)" gradientUnits="userSpaceOnUse"/><radialGradient xlink:href="#b" id="r" cx="336.43" cy="-249.39" r="19" fx="336.43" fy="-249.39" gradientTransform="rotate(30 -220.1 -362.29)" gradientUnits="userSpaceOnUse"/><radialGradient xlink:href="#b" id="k" cx="352.63" cy="-236.77" r="19" fx="352.63" fy="-236.77" gradientTransform="rotate(30 335.08 -489.03)" gradientUnits="userSpaceOnUse"/><radialGradient xlink:href="#b" id="q" cx="350.29" cy="-241.39" r="19" fx="350.29" fy="-241.39" gradientTransform="rotate(30 479.3 -1061.7)" gradientUnits="userSpaceOnUse"/><radialGradient xlink:href="#b" id="l" cx="346.77" cy="-236.77" r="19" fx="346.77" fy="-236.77" gradientTransform="rotate(30 241.38 -139.32)" gradientUnits="userSpaceOnUse"/><radialGradient xlink:href="#b" id="s" cx="344.43" cy="-241.39" r="19" fx="344.43" fy="-241.39" gradientTransform="rotate(30 385.6 -711.99)" gradientUnits="userSpaceOnUse"/><radialGradient xlink:href="#b" id="i" cx="360.63" cy="-244.77" r="19" fx="360.63" fy="-244.77" gradientTransform="rotate(30 -14.62 -1094.73)" gradientUnits="userSpaceOnUse"/><radialGradient xlink:href="#b" id="o" cx="358.29" cy="-249.39" r="19" fx="358.29" fy="-249.39" gradientTransform="rotate(30 129.6 -1667.4)" gradientUnits="userSpaceOnUse"/><radialGradient xlink:href="#c" id="h" cx="256" cy="256" r="100" fx="256" fy="256" gradientTransform="matrix(1.25 0 0 1.25 -64 -64)" gradientUnits="userSpaceOnUse"/><filter id="f" width="1.17" height="1.17" x="-.09" y="-.09" color-interpolation-filters="sRGB"><feGaussianBlur stdDeviation="2.87"/></filter><filter id="g" width="1.19" height="1.19" x="-.1" y="-.1" color-interpolation-filters="sRGB"><feGaussianBlur stdDeviation="1.56"/></filter><filter id="a" width="1.4" height="1.4" x="-.2" y="-.2" color-interpolation-filters="sRGB"><feGaussianBlur stdDeviation=".62"/></filter><filter id="e" width="2.05" height="2.05" x="-.52" y="-.52" color-interpolation-filters="sRGB"><feGaussianBlur stdDeviation=".62"/></filter><linearGradient id="c"><stop offset="0" stop-color="#fff" stop-opacity=".25"/><stop offset="1" stop-color="#fff" stop-opacity="0"/></linearGradient><linearGradient id="b"><stop offset="0" stop-color="#0a0a09"/><stop offset="1"/></linearGradient></defs><path fill="#171818" fill-rule="evenodd" stroke="#000" stroke-width="2" d="M18 18h478v478H18Z"/><g paint-order="markers stroke fill"><use xlink:href="#d" stroke-linejoin="round" stroke-width="9.39" filter="url(#a)" transform="matrix(.85 0 0 .85 37.86 37.86)"/><use xlink:href="#d" stroke-linejoin="round" stroke-width="29.35" filter="url(#e)" transform="matrix(.27 0 0 .27 186.22 186.22)"/><circle cx="256" cy="256" r="46" stroke="#fff" stroke-linejoin="round" stroke-width="2" filter="url(#f)"/><circle cx="256" cy="256" r="25" stroke="#fff" stroke-linejoin="round" stroke-width="2" filter="url(#g)"/><circle cx="256" cy="256" r="125" fill="url(#h)"/></g><g paint-order="markers stroke fill"><circle cx="-122.63" cy="-179" r="18" fill="url(#i)" stroke="#232526" stroke-linejoin="round" stroke-width="2" transform="scale(-1)"/><circle cx="39.67" cy="-272.7" r="18" fill="url(#j)" stroke="#232526" stroke-linejoin="round" stroke-width="2" transform="rotate(150)"/><circle cx="227.07" cy="-272.7" r="18" fill="url(#k)" stroke="#232526" stroke-linejoin="round" stroke-width="2" transform="rotate(120)"/><path fill="#d1d1d1" d="M183.14 285.67c3.1.64 5.16 3.69 7.78 5.48 2.63 1.8 5.24 3.64 7.95 5.3 2.45 1.51 4.98 2.9 7.52 4.25 2.1 1.11 4.28 2.03 6.36 3.18 2.38 1.32 4.52 3.08 6.98 4.24 2.66 1.26 5.5 2.08 8.31 2.92 2.45.73 5.02 1.01 7.43 1.85 2.01.7 4.06 1.46 5.83 2.66 1.21.81 2.72 1.62 3.18 3 .52 1.53.12 4.87-.54 6.34-.4.9-1.66 1.82-2.64 1.8-2.6-.06-4.28-.84-6.63-1.24-2.87-.5-5.54-1.83-8.3-2.74-4.96-1.63-10.02-2.94-14.86-4.87-3.14-1.25-6.5-2.27-9.19-4.33-.83-.63-1.75-1.43-2.12-1.64-.3-.17-1.36-.34-2.03-.57-2.73-.93-4.18-3.96-6.37-5.83-2.18-1.87-4.73-3.32-6.71-5.4-2-2.08-4.14-4.26-5.13-6.97-.45-1.22-1.06-1.94-.99-3.24.06-.98-.15-2.53.54-3.24.69-.7 2.66-1.15 3.63-.95zm2.4-46.57c-.56 4.5-.87 7.71-.39 12.2.08.7 1.03 2.61 1.4 3.2.4.59 1.31 1.41 2 1.53 5.85.97 11.41 1.46 17.02.34a6.42 6.42 0 0 0 3.5-1.87 6.3 6.3 0 0 0 1.68-4.25c-.21-5.3.3-8.27-1.17-13.05a3.92 3.92 0 0 0-1.44-2c-.97-.69-2.44-1.77-3.62-1.87a75.98 75.98 0 0 0-12.6-.1c-1.35.08-4.24.54-5.13 1.57-.97 1.13-1.06 2.82-1.25 4.3zm60.5-10.2c-.58-3.76-5.77-9.88-8.67-7.42-.85.72-3.1 4.6-4.5 6.98-1.36 2.3-2.91 4.55-3.8 7.07a32.13 32.13 0 0 0-1.95 10.6c.04 3.95 1 7.63 2.39 11.32 1 2.67 2.78 4.98 4.24 7.42 1.31 2.21 3 5.36 4.97 5.29 1.98-.08 6.7-7.5 6.64-9.01-.05-1.51-1.67-3.73-2.8-4.98a12.67 12.67 0 0 1-2.78-4.83 20.7 20.7 0 0 1-.6-9.87c.56-2.77 2.38-5.14 3.76-7.62.95-1.7 3.39-3.03 3.1-4.95z"/></g><g paint-order="markers stroke fill"><circle cx="389.37" cy="-179" r="18" fill="url(#l)" stroke="#232526" stroke-linejoin="round" stroke-width="2" transform="rotate(90)"/><circle cx="483.07" cy="-16.7" r="18" fill="url(#m)" stroke="#232526" stroke-linejoin="round" stroke-width="2" transform="rotate(60)"/><circle cx="483.07" cy="170.7" r="18" fill="url(#n)" stroke="#232526" stroke-linejoin="round" stroke-width="2" transform="rotate(30)"/><path fill="#d1d1d1" d="M257 242a8.52 8.52 0 0 0-2.5 2.8c-.64 1.04-.97 2.45-1.62 3.2-.5.57-1.58-.45-2.25-.13-1.16.56-1.57 2.04-2.25 3.13-.98 1.56-1.44 3.47-2.63 4.88-.61.72-1.61 1.04-2.25 1.75-.53.58-1.84 3.55-3.38 4.75-1.8 1.4-5.58 2.21-6.37 2.5-.77.27-2.46 1.85-3.63 2.87-1.26 1.1-2.77 2.05-3.62 3.5-1.54 2.6-.88 6.12-2.38 8.75-.91 1.61-2.93 2.4-3.87 4-1.4 2.4-1.99 4.48-2.64 6.83-.77 2.74-1.71 7.35-1.49 8.42.28 1.28 3.47 1.65 5.51 1.53 1.64-.1 3.83-.95 4.62-1.65.8-.72.72-3.23 1.31-4.77 1.14-2.96 1.77-6.53 4.25-8.53 1.3-1.06 4.5-.64 4.9-1.24.3-.47 2.4-4.87 3.39-4.66.43.1 1 3.2 1.8 4.66a15.5 15.5 0 0 0 3.22 4.4c1.38 1.19 3.2 1.76 4.84 2.56 1 .48 2.4.44 3.04 1.34.53.74.22 1.68-.45 2.07-.64.37-1.2 2.28-.5 2.55.95.37 7.38 1.1 7.62.37.6-1.88-.68-2.97.15-4 1.16-1.46 3.68-.7 5.38-1.43 1.56-.68 3.22-1.43 4.32-2.73 1.74-2.05 1.64-5.2 3.12-7.44.92-1.38 3.07-3.89 3.45-3.57.87.73 1.42 4.06 2.52 5.88.92 1.5 2.16 2.8 3.36 4.09a44.1 44.1 0 0 0 4.65 4.41c1.53 1.23 2.92 3.3 4.88 3.29 1.38-.02 2.62-1.23 3.38-2.38.7-1.07.96-2.5.75-3.75-.27-1.53-1.56-2.68-2.38-4-.73-1.18-1.49-2.34-2.25-3.5-.86-1.3-1.87-2.51-2.63-3.88-.64-1.15-.68-2.69-1.62-3.62-.87-.87-2.87-1.08-3.38-1.5-.49-.4-2.56-3.58-4-5.25a36.27 36.27 0 0 0-3-3.13c-.82-.76-1.85-1.3-2.62-2.12-1.29-1.38-2.04-3.18-3.25-4.63-.53-.63-1.26-1.09-1.75-1.75-.88-1.17-1.29-2.66-2.13-3.87-.65-.95-1.46-1.78-2.25-2.63-.92-.99-1.81-1.73-2.4-2.96a6.8 6.8 0 0 0-2.16-2.61c-1.84-1.36-2.36-3.01-2.81-2.8Zm-.38 11.84c.57-.02 1.2.14 1.76.22.69.1 1.4.27 2 .63.54.32 1.06.76 1.37 1.31.52.91.42 2.05.69 3.06.16.61.17 1.32.56 1.81.75.95 2.5.8 3.13 1.82.37.6-.22 1.5.12 2.12.27.5 1.28.44 1.38 1 .41 2.51-3.1 4.05-4.38 6.25-1.36 2.35-1.6 5.39-3.44 7.38-.86.93-2.04 1.97-3.31 1.87-1.32-.1-2.27-1.43-3.13-2.44-1.06-1.24-1.65-2.83-2.37-4.3-1.22-2.5-3.49-4.87-3.31-7.63.08-1.26 1.2-2.23 1.94-3.25.92-1.28 2.16-2.3 3.12-3.56.74-.98 1.48-1.97 2-3.07.44-.93.11-2.32.94-2.94.27-.2.59-.27.93-.28z"/></g><g paint-order="markers stroke fill"><circle cx="-389.37" cy="-333" r="18" fill="url(#o)" stroke="#232526" stroke-linejoin="round" stroke-width="2" transform="scale(-1)"/><circle cx="-227.07" cy="-426.7" r="18" fill="url(#p)" stroke="#232526" stroke-linejoin="round" stroke-width="2" transform="rotate(150)"/><circle cx="-39.67" cy="-426.7" r="18" fill="url(#q)" stroke="#232526" stroke-linejoin="round" stroke-width="2" transform="rotate(120)"/><path fill="#d1d1d1" d="M264.29 322.77c-.41-1.16 1.9-4.11 3.44-5.72a18.14 18.14 0 0 1 5.48-3.8c2.74-1.28 5.85-1.52 8.75-2.39 2.9-.87 5.76-1.93 8.66-2.83 2.73-.84 5.65-1.15 8.22-2.38a27.76 27.76 0 0 0 6.01-4.25 58.42 58.42 0 0 0 6.8-7.24c1.95-2.38 3.43-5.1 5.31-7.52 1.17-1.5 2.3-3.06 3.71-4.33 1.33-1.19 2.73-2.43 4.42-3 1-.34 2.2-.56 3.18-.18 1.17.45 2.02 1.57 2.66 2.65.77 1.32 1.03 2.9 1.23 4.42.04.23.03.47 0 .7-.26 2.15-.52 4.41-1.59 6.28-2.12 3.71-6.06 6.02-9.1 9.02-2.24 2.21-4.38 4.52-6.72 6.63-2.35 2.11-4.6 4.42-7.34 6-4.53 2.65-9.67 4.1-14.67 5.67-3.76 1.18-7.64 1.97-11.49 2.82-3.1.7-6.23 1.3-9.37 1.86-1.52.27-3.3.65-4.15.65-.85-.01-.98-.9-1.57-1.5-.62-.62-1.56-.67-1.87-1.56zm63.15-84.65c.56 4.5.04 9.07-.44 13.57-.07.7 0 1.47-.38 2.06-.38.6-1.08.95-1.75 1.19-5.37 1.94-11.45 2.8-17.06 1.68a6.42 6.42 0 0 1-3.5-1.87c-1.01-1.14-1.4-2.75-1.69-4.25-.9-4.85-1.4-10.12.13-14.81.25-.78.77-1.53 1.44-2 .97-.7 2.26-.81 3.43-1 4.9-.8 10.01-1.53 14.88-.57 1.33.27 2.8.67 3.69 1.7.98 1.13 1.06 2.82 1.25 4.3zm-58.12 23.07c.57 3.76 5.76 9.88 8.66 7.42.86-.72 3.1-4.6 4.5-6.98 1.37-2.3 2.92-4.55 3.81-7.07 1.17-3.3 1.97-7.1 1.94-10.6-.03-3.95-.99-7.64-2.38-11.32-1-2.67-2.78-4.98-4.24-7.43-1.32-2.2-3-5.35-4.98-5.28-1.97.08-6.7 7.5-6.64 9 .05 1.52 1.67 3.74 2.81 4.99a12.67 12.67 0 0 1 2.77 4.83 20.7 20.7 0 0 1 .6 9.87c-.55 2.77-2.38 5.14-3.76 7.62-.94 1.7-3.38 3.02-3.1 4.95z"/></g><g paint-order="markers stroke fill"><circle cx="216.34" cy="16.7" r="18" fill="url(#r)" stroke="#232526" stroke-linejoin="round" stroke-width="2" transform="rotate(30)"/><circle cx="122.63" cy="-333" r="18" fill="url(#s)" stroke="#232526" stroke-linejoin="round" stroke-width="2" transform="rotate(90)"/><circle cx="216.34" cy="-170.7" r="18" fill="url(#t)" stroke="#232526" stroke-linejoin="round" stroke-width="2" transform="rotate(60)"/><path fill="#d1d1d1" d="M216.08 186.5c-.9 0-1.79.18-2.58.5a8.91 8.91 0 0 0-4.5 4.25c-.51 1.04-.3 2.36-.43 3.55-.15 1.26-.64 2.39-.32 3.57a8.04 8.04 0 0 0 3.25 4.38c2.25 1.5 7.88 2 7.88 2s1.44 4.56 2.62 6.63c.6 1.05 1.86 2.77 2.25 2.87.4.1 1.78.05 2 .38.2.29-1.16 3.55-.88 3.87.43.47 3.06 1.87 4.13 3.25.95 1.22 1.15 2.88 1.88 4.25.77 1.47 1.44 3.07 2.62 4.25 1 1 2.49 1.4 3.63 2.25.98.75 1.77 1.74 2.75 2.5 1.3 1.02 2.79 1.77 4.12 2.75 1.3.94 2.63 1.86 3.75 3 1.1 1.13 1.9 2.51 2.88 3.75.82 1.05 1.98 3.26 3 4.13.69.6 2.57 4.79 2.87 4.75.43-.06 2.38-2.76 3.38-3.38.96-.6.33-1.83 1.25-2.5.74-.54 1.83-3.11 2.5-3.75 1.45-1.4 2.38-3.27 3.75-4.75 1.04-1.13 2.35-1.98 3.37-3.13a25.79 25.79 0 0 0 2.5-3.37c.99-1.56 1.71-3.27 2.63-4.88 1.08-1.9 2.07-3.86 3.37-5.62 1.1-1.5 2.57-2.69 3.75-4.13 1.25-1.52 2.29-3.2 3.5-4.75 1.37-1.74 3-3.29 4.25-5.12 1.35-1.97 2.73-4 3.5-6.25.55-1.6 1.35-3.42.75-5-.83-2.18-4.92-4.11-5.38-4.5-.42-.36-.05-2.68-1-3.38-2.04-1.5-7.19-.26-7.62.13-.74.67-.57 4.16-.75 6.25-.1 1.03 1.07-1.32 1 0-.07 1.5-1 6.17-1.37 6.63-.65.77-5.07 8.66-6.38 8.75-.84.05-1.26-2.96-3-6-1.17-2.06-1.54-4.76-3.38-6.25-1.58-1.3-3.86-1.4-5.87-1.75-2.88-.5-5.89-1.1-8.75-.5-2.74.56-5.49 1.8-7.5 3.75-2.63 2.53-3.65 9.85-5.25 9.62-1.92-.28-8.38-9.75-8.38-9.75s-.62-3.98-2-5.25c-1.72-1.6-4.84-1.64-6.1-2-1.18-.33-1.09-2.9-1.4-3.34-.37-.54-1.62-.87-2.03-1.13-.54-.35-1.13-.75-1.72-1.03a5.85 5.85 0 0 0-2.54-.5zm41.04 21.75c1.83-.1 2.84 2.34 4 3.75.85 1.03 1.46 2.23 2.13 3.38.57.98 1.36 1.89 1.63 3 .54 2.3-.18 4.74-.25 7.12-.05 1.58.45 3.27-.13 4.75-.64 1.65-2.77 2.39-3.5 4-.4.88-.01 1.98-.38 2.88-.75 1.87-2.88 4.87-3.62 4.87-.8 0-2.33-5.45-4-7.88-1.3-1.9-3.85-2.95-4.63-5.12-.88-2.47-.36-5.35.38-7.88.26-.87 1.12-1.49 1.38-2.37.36-1.28-.24-2.72.12-4 .48-1.7.94-4.09 2.63-4.63.65-.2 1.2 1.02 1.87.88 1.18-.25 1.17-2.69 2.38-2.75z"/></g><circle cx="448" cy="64" r="23" stroke="#232526" stroke-width="2"/></svg>