<svg xmlns="http://www.w3.org/2000/svg" viewBox="0 0 348 348" fill="none"><path d="M5.079 5.776h336.913v337.67H5.08z" stroke-width="2" stroke="#000"/><path d="M282.734 40.554c0-8.376 6.966-15.165 15.56-15.165 4.126 0 8.084 1.597 11.001 4.441 2.918 2.844 4.558 6.702 4.558 10.724 0 8.376-6.966 15.165-15.56 15.165-8.593 0-15.559-6.79-15.559-15.165z" stroke-width="2" stroke="#000"/><ellipse cx="58.913" cy="87.133" rx="22.19" ry="22.275" fill="#fff" stroke="#4d4d4d" stroke-width="2.052" stroke-linecap="round"/><ellipse cx="114.231" cy="87.135" rx="22.19" ry="22.275" fill="#fff" stroke="#4d4d4d" stroke-width="2.052" stroke-linecap="round"/><ellipse cx="58.471" cy="142.912" rx="22.19" ry="22.275" fill="#fff" stroke="#4d4d4d" stroke-width="2.052" stroke-linecap="round"/><ellipse cx="114.978" cy="142.302" rx="22.19" ry="22.275" fill="#fff" stroke="#4d4d4d" stroke-width="2.052" stroke-linecap="round"/><ellipse cx="169.565" cy="86.667" rx="22.19" ry="22.275" fill="#fff" stroke="#4d4d4d" stroke-width="2.052" stroke-linecap="round"/><ellipse cx="224.884" cy="86.669" rx="22.19" ry="22.275" fill="#fff" stroke="#4d4d4d" stroke-width="2.052" stroke-linecap="round"/><ellipse cx="169.124" cy="142.446" rx="22.19" ry="22.275" fill="#fff" stroke="#4d4d4d" stroke-width="2.052" stroke-linecap="round"/><ellipse cx="225.63" cy="141.836" rx="22.19" ry="22.275" fill="#fff" stroke="#4d4d4d" stroke-width="2.052" stroke-linecap="round"/><ellipse cx="57.765" cy="198.542" rx="22.19" ry="22.275" fill="#fff" stroke="#4d4d4d" stroke-width="2.052" stroke-linecap="round"/><ellipse cx="113.083" cy="198.544" rx="22.19" ry="22.275" fill="#fff" stroke="#4d4d4d" stroke-width="2.052" stroke-linecap="round"/><ellipse cx="57.323" cy="254.321" rx="22.19" ry="22.275" fill="#fff" stroke="#4d4d4d" stroke-width="2.052" stroke-linecap="round"/><ellipse cx="113.83" cy="253.711" rx="22.19" ry="22.275" fill="#fff" stroke="#4d4d4d" stroke-width="2.052" stroke-linecap="round"/><ellipse cx="168.417" cy="198.076" rx="22.19" ry="22.275" fill="#fff" stroke="#4d4d4d" stroke-width="2.052" stroke-linecap="round"/><ellipse cx="223.736" cy="198.078" rx="22.19" ry="22.275" fill="#fff" stroke="#4d4d4d" stroke-width="2.052" stroke-linecap="round"/><ellipse cx="167.976" cy="253.855" rx="22.19" ry="22.275" fill="#fff" stroke="#4d4d4d" stroke-width="2.052" stroke-linecap="round"/><ellipse cx="224.482" cy="253.245" rx="22.19" ry="22.275" fill="#fff" stroke="#4d4d4d" stroke-width="2.052" stroke-linecap="round"/></svg>