<svg xmlns="http://www.w3.org/2000/svg" viewBox="0 0 348 348" fill="none"><defs><filter id="b" color-interpolation-filters="sRGB"><feColorMatrix result="fbSourceGraphic" values="0.21 0.72 0.072 0 0 0.21 0.72 0.072 0 0 0.21 0.72 0.072 0 0 0 0 0 1 0"/><feColorMatrix values="0 0 0 -1 0 0 0 0 -1 0 0 0 0 -1 0 0 0 0 1 0" in="fbSourceGraphic" result="fbSourceGraphicAlpha"/><feColorMatrix in="fbSourceGraphic" values="0.21 0.72 0.072 0 0 0.21 0.72 0.072 0 0 0.21 0.72 0.072 0 0 0 0 0 1 0"/></filter><filter id="a" color-interpolation-filters="sRGB"><feColorMatrix values="0.21 0.72 0.072 0 0 0.21 0.72 0.072 0 0 0.21 0.72 0.072 0 0 0 0 0 1 0"/></filter></defs><path d="M5.079 5.776h336.913v337.67H5.08z" stroke-width="2" stroke="#000"/><rect ry="6.013" y="41.916" x="40.833" height="266" width="266" fill="#000"/><rect width="254.237" height="254.237" x="46.715" y="47.798" ry="5.747" fill="#bbada0" filter="url(#a)"/><path d="M292.734 40.554c0-8.376 6.966-15.165 15.56-15.165 4.126 0 8.084 1.597 11.001 4.441 2.918 2.844 4.558 6.702 4.558 10.724 0 8.376-6.966 15.165-15.56 15.165-8.593 0-15.559-6.79-15.559-15.165z" stroke-width="2" stroke="#000" fill="#fff"/><rect ry="5.747" y="56.166" x="116.583" height="53" width="53" fill="#eee4da" fill-opacity=".996" filter="url(#b)"/><g style="line-height:1.25;-inkscape-font-specification:'Clear Sans'" aria-label="2" font-size="32.022" font-family="Clear Sans" fill="#776e65" stroke-width=".801" filter="url(#b)"><path style="-inkscape-font-specification:'Clear Sans Bold'" d="M134.875 94.113v-3.69q2.548-2.142 4.644-4.096 2.095-1.955 3.236-3.237 1.142-1.298 1.767-2.47.641-1.189.641-2.486 0-1.017-.766-1.61-.766-.595-2.11-.595-1.455 0-2.377.672-.923.673-1.533 1.595l-3.565-2.502q1.33-1.985 3.143-2.83 1.83-.844 4.55-.844 3.346 0 5.27 1.564 1.938 1.563 1.938 4.393 0 2.08-.766 3.659-.75 1.564-2.158 3.049-1.391 1.47-3.487 3.252-2.08 1.783-2.564 2.142h9.679v4.034z" font-weight="700"/></g><rect width="53" height="53" x="239.583" y="179.166" ry="5.747" fill="#eee4da" fill-opacity=".996" filter="url(#b)"/><g style="line-height:1.25;-inkscape-font-specification:'Clear Sans'" aria-label="2" font-size="32.022" font-family="Clear Sans" fill="#776e65" stroke-width=".801" filter="url(#b)"><path style="-inkscape-font-specification:'Clear Sans Bold'" d="M257.875 217.113v-3.69q2.548-2.142 4.644-4.096 2.095-1.955 3.236-3.237 1.142-1.298 1.767-2.47.641-1.189.641-2.486 0-1.017-.766-1.61-.766-.595-2.11-.595-1.455 0-2.377.672-.923.673-1.533 1.595l-3.565-2.502q1.33-1.985 3.143-2.83 1.83-.844 4.55-.844 3.346 0 5.27 1.564 1.938 1.563 1.938 4.393 0 2.08-.766 3.659-.75 1.564-2.158 3.049-1.391 1.47-3.487 3.252-2.08 1.783-2.564 2.142h9.679v4.034z" font-weight="700"/></g><rect ry="5.747" y="240.666" x="116.583" height="53" width="53" fill="#eee4da" fill-opacity=".996" filter="url(#b)"/><g style="line-height:1.25;-inkscape-font-specification:'Clear Sans'" aria-label="2" font-size="32.022" font-family="Clear Sans" fill="#776e65" stroke-width=".801" filter="url(#b)"><path style="-inkscape-font-specification:'Clear Sans Bold'" d="M134.875 278.613v-3.69q2.548-2.142 4.644-4.096 2.095-1.955 3.236-3.237 1.142-1.298 1.767-2.47.641-1.189.641-2.486 0-1.017-.766-1.61-.766-.595-2.11-.595-1.455 0-2.377.672-.923.673-1.533 1.595l-3.565-2.502q1.33-1.985 3.143-2.83 1.83-.844 4.55-.844 3.346 0 5.27 1.564 1.938 1.563 1.938 4.393 0 2.08-.766 3.659-.75 1.564-2.158 3.049-1.391 1.47-3.487 3.252-2.08 1.783-2.564 2.142h9.679v4.034z" font-weight="700"/></g><rect width="53" height="53" x="55.083" y="240.666" ry="5.747" fill="#eee1c9" filter="url(#b)"/><g style="line-height:1.25;-inkscape-font-specification:'Clear Sans'" aria-label="4" font-size="32.022" font-family="Clear Sans" fill="#776e65" stroke-width=".801" filter="url(#b)"><path style="-inkscape-font-specification:'Clear Sans Bold'" d="M87.79 275.033v3.58h-4.22v-3.58H72.701v-4.066l10.57-13.994h4.519v14.276h2.658v3.784zm-4.22-12.274l-6.568 8.49h6.567z" font-weight="700"/></g><rect ry="5.747" y="56.166" x="55.083" height="53" width="53" fill="#eee1c9" filter="url(#b)"/><g style="line-height:1.25;-inkscape-font-specification:'Clear Sans'" aria-label="4" font-size="32.022" font-family="Clear Sans" fill="#776e65" stroke-width=".801" filter="url(#b)"><path style="-inkscape-font-specification:'Clear Sans Bold'" d="M87.79 90.533v3.58h-4.22v-3.58H72.701v-4.066l10.57-13.994h4.519V86.75h2.658v3.784zm-4.22-12.274l-6.568 8.49h6.567z" font-weight="700"/></g><rect width="53" height="53" x="239.583" y="240.666" ry="5.747" fill="#eee1c9" filter="url(#b)"/><g style="line-height:1.25;-inkscape-font-specification:'Clear Sans'" aria-label="4" font-size="32.022" font-family="Clear Sans" fill="#776e65" stroke-width=".801" filter="url(#b)"><path style="-inkscape-font-specification:'Clear Sans Bold'" d="M272.29 275.033v3.58h-4.22v-3.58h-10.868v-4.066l10.57-13.994h4.519v14.276h2.658v3.784zm-4.22-12.274l-6.568 8.49h6.567z" font-weight="700"/></g><rect ry="5.747" y="117.666" x="116.583" height="53" width="53" fill="#eee1c9" filter="url(#b)"/><g style="line-height:1.25;-inkscape-font-specification:'Clear Sans'" aria-label="4" font-size="32.022" font-family="Clear Sans" fill="#776e65" stroke-width=".801" filter="url(#b)"><path style="-inkscape-font-specification:'Clear Sans Bold'" d="M149.29 152.033v3.58h-4.22v-3.58h-10.868v-4.066l10.57-13.994h4.519v14.276h2.658v3.784zm-4.22-12.274l-6.568 8.49h6.567z" font-weight="700"/></g><rect width="53" height="53" x="55.083" y="117.666" ry="5.747" fill="#f3b27a" filter="url(#b)"/><g style="line-height:1.25;-inkscape-font-specification:'Clear Sans'" aria-label="8" font-size="32.022" font-family="Clear Sans" fill="#f9f6f2" stroke-width=".801" filter="url(#b)"><path style="-inkscape-font-specification:'Clear Sans Bold'" d="M89.198 149.75q0 3.002-2.095 4.66-2.08 1.657-5.973 1.657-3.846 0-5.973-1.58-2.126-1.594-2.126-4.737 0-1.923 1.079-3.362 1.094-1.438 2.924-2.267-1.752-.86-2.627-2.08-.86-1.235-.86-2.658 0-2.861 2.001-4.362 2.002-1.501 5.582-1.501 3.487 0 5.52 1.454 2.032 1.454 2.032 4.378 0 .97-.469 1.798-.453.829-1.188 1.501-.735.673-2.236 1.501 1.798.876 2.658 1.642.86.766 1.298 1.751.453.985.453 2.205zm-4.831-10.335q0-1.032-.75-1.736-.751-.704-2.487-.704-1.86 0-2.564.704t-.704 1.642q0 .703.313 1.188t1.032 1.032q.735.532 1.923 1 1.83-.797 2.533-1.563.704-.766.704-1.563zm.422 10.335q0-1.345-.907-2.236-.891-.891-2.752-1.767-1.986.876-2.83 1.767-.844.891-.844 2.267 0 1.22.875 2.001.876.782 2.8.782 1.922 0 2.782-.813.876-.813.876-2.001z" font-weight="700"/></g><rect ry="5.747" y="117.666" x="178.083" height="53" width="53" fill="#f3b27a" filter="url(#b)"/><g style="line-height:1.25;-inkscape-font-specification:'Clear Sans'" aria-label="8" font-size="32.022" font-family="Clear Sans" fill="#f9f6f2" stroke-width=".801" filter="url(#b)"><path style="-inkscape-font-specification:'Clear Sans Bold'" d="M212.198 149.75q0 3.002-2.095 4.66-2.08 1.657-5.973 1.657-3.846 0-5.973-1.58-2.126-1.594-2.126-4.737 0-1.923 1.079-3.362 1.094-1.438 2.924-2.267-1.752-.86-2.627-2.08-.86-1.235-.86-2.658 0-2.861 2.001-4.362 2.002-1.501 5.582-1.501 3.487 0 5.52 1.454 2.032 1.454 2.032 4.378 0 .97-.469 1.798-.453.829-1.188 1.501-.735.673-2.236 1.501 1.798.876 2.658 1.642.86.766 1.298 1.751.453.985.453 2.205zm-4.831-10.335q0-1.032-.75-1.736-.751-.704-2.487-.704-1.86 0-2.564.704t-.704 1.642q0 .703.313 1.188t1.032 1.032q.735.532 1.923 1 1.83-.797 2.533-1.563.704-.766.704-1.563zm.422 10.335q0-1.345-.907-2.236-.891-.891-2.752-1.767-1.986.876-2.83 1.767-.844.891-.844 2.267 0 1.22.875 2.001.876.782 2.8.782 1.922 0 2.782-.813.876-.813.876-2.001z" font-weight="700"/></g><rect width="53" height="53" x="55.083" y="179.166" ry="5.747" fill="#f69664" filter="url(#b)"/><g style="line-height:1.25;-inkscape-font-specification:'Clear Sans'" aria-label="16" font-size="32.022" font-family="Clear Sans" fill="#f9f6f2" stroke-width=".801" filter="url(#b)" font-weight="700"><path style="-inkscape-font-specification:'Clear Sans Bold'" d="M70.849 217.113v-14.51h-5.254v-2.97q2.252-.141 3.393-.532 1.157-.407 1.83-1.251.687-.844 1.078-2.377h3.362v21.64zM91.472 217.567q-3.909 0-6.05-2.58-2.127-2.596-2.127-7.38 0-6.13 2.298-9.35 2.299-3.237 6.708-3.237 4.175 0 6.176 1.767l-2.502 3.393q-.766-.673-1.626-1.017-.86-.36-2.048-.36-2.111 0-3.08 1.44-.954 1.438-1.22 4.096 1.25-.844 2.236-1.173 1-.328 2.377-.328 3.049 0 4.831 1.876 1.798 1.86 1.798 5.379 0 3.47-2.095 5.472-2.095 2.002-5.676 2.002zm.031-3.784q1.47 0 2.393-.782.938-.782.938-2.799 0-1.657-.923-2.642-.922-.985-2.47-.985-1.22 0-2.158.406-.922.391-1.407.782 0 2.392.36 3.518t1.141 1.814q.782.688 2.126.688z"/></g><rect ry="5.747" y="179.166" x="178.083" height="53" width="53" fill="#f69664" filter="url(#b)"/><g style="line-height:1.25;-inkscape-font-specification:'Clear Sans'" aria-label="16" font-size="32.022" font-family="Clear Sans" fill="#f9f6f2" stroke-width=".801" filter="url(#b)" font-weight="700"><path style="-inkscape-font-specification:'Clear Sans Bold'" d="M193.849 217.113v-14.51h-5.254v-2.97q2.252-.141 3.393-.532 1.157-.407 1.83-1.251.687-.844 1.078-2.377h3.362v21.64zM214.472 217.567q-3.909 0-6.05-2.58-2.127-2.596-2.127-7.38 0-6.13 2.298-9.35 2.299-3.237 6.708-3.237 4.175 0 6.176 1.767l-2.502 3.393q-.766-.673-1.626-1.017-.86-.36-2.048-.36-2.111 0-3.08 1.44-.954 1.438-1.22 4.096 1.25-.844 2.236-1.173 1-.328 2.377-.328 3.049 0 4.831 1.876 1.798 1.86 1.798 5.379 0 3.47-2.095 5.472-2.095 2.002-5.676 2.002zm.031-3.784q1.47 0 2.393-.782.938-.782.938-2.799 0-1.657-.923-2.642-.922-.985-2.47-.985-1.22 0-2.158.406-.922.391-1.407.782 0 2.392.36 3.518t1.141 1.814q.782.688 2.126.688z"/></g><rect width="53" height="53" x="116.583" y="179.166" ry="5.747" fill="#f77c5f" filter="url(#b)"/><g style="line-height:1.25;-inkscape-font-specification:'Clear Sans'" aria-label="32" font-size="32.022" font-family="Clear Sans" fill="#f9f6f2" stroke-width=".801" filter="url(#b)" font-weight="700"><path style="-inkscape-font-specification:'Clear Sans Bold'" d="M141.014 211.03q0 3.331-2.19 4.942-2.173 1.595-5.988 1.595-2.72 0-4.612-.985-1.877-1.001-2.674-2.518l3.55-2.423q.578.891 1.438 1.438.86.547 2.345.547 1.876 0 2.72-.719.86-.719.86-2.204 0-3.002-3.97-3.002h-1.924v-3.784h1.673q1.986 0 2.892-.782.907-.782.907-2.033 0-.922-.656-1.532-.657-.61-2.158-.61t-2.408.485q-.891.469-1.532 1.438l-3.518-2.47q1.282-1.736 3.096-2.564 1.829-.829 4.69-.829 2.174 0 3.784.688 1.626.672 2.455 1.876.829 1.204.829 2.752 0 4.237-4.378 5.316 2.142.141 3.455 1.626 1.314 1.47 1.314 3.753zM145 217.113v-3.69q2.55-2.142 4.644-4.096 2.096-1.955 3.237-3.237 1.141-1.298 1.767-2.47.64-1.189.64-2.486 0-1.017-.765-1.611-.766-.594-2.111-.594-1.454 0-2.377.672-.922.673-1.532 1.595l-3.565-2.502q1.33-1.985 3.143-2.83 1.83-.844 4.55-.844 3.346 0 5.27 1.564 1.938 1.563 1.938 4.393 0 2.08-.766 3.659-.75 1.563-2.158 3.049-1.392 1.47-3.487 3.252-2.08 1.783-2.564 2.142h9.678v4.034z"/></g><rect ry="5.747" y="240.666" x="178.083" height="53" width="53" fill="#f75f3b" filter="url(#b)"/><g style="line-height:1.25;-inkscape-font-specification:'Clear Sans'" aria-label="64" font-size="32.022" font-family="Clear Sans" fill="#f9f6f2" stroke-width=".801" filter="url(#b)" font-weight="700"><path style="-inkscape-font-specification:'Clear Sans Bold'" d="M195.759 279.067q-3.909 0-6.051-2.58-2.127-2.596-2.127-7.38 0-6.13 2.299-9.35 2.298-3.237 6.708-3.237 4.174 0 6.176 1.767l-2.502 3.393q-.766-.673-1.626-1.017-.86-.36-2.048-.36-2.111 0-3.08 1.44-.954 1.438-1.22 4.096 1.25-.844 2.236-1.173 1-.328 2.376-.328 3.05 0 4.832 1.876 1.798 1.86 1.798 5.379 0 3.47-2.095 5.472-2.096 2.002-5.676 2.002zm.031-3.784q1.47 0 2.392-.782.939-.782.939-2.799 0-1.657-.923-2.642-.922-.985-2.47-.985-1.22 0-2.158.406-.923.391-1.407.782 0 2.392.36 3.518.359 1.126 1.14 1.814.783.688 2.127.688zM220.917 275.033v3.58h-4.222v-3.58h-10.867v-4.066l10.57-13.994h4.519v14.276h2.658v3.784zm-4.222-12.274l-6.567 8.49h6.567z"/></g><rect width="53" height="53" x="178.083" y="56.166" ry="5.747" fill="#cdc1b4" filter="url(#b)"/><rect ry="5.747" y="56.166" x="239.583" height="53" width="53" fill="#cdc1b4" filter="url(#b)"/><rect width="53" height="53" x="239.583" y="117.666" ry="5.747" fill="#cdc1b4" filter="url(#b)"/><rect ry="6.03" width="95.333" height="48.4" x="12.874" y="12.548" fill="#000"/><g style="line-height:1.25;-inkscape-font-specification:'Clear Sans'" aria-label="SCORE" font-size="13.057" font-family="Clear Sans" fill="#fff" stroke-width=".326"><path d="M47.636 27.069q0 1.236-.816 1.919-.81.682-2.372.682-1.192 0-1.99-.42-.796-.422-1.3-1.308l.956-.638q.746 1.32 2.308 1.32.938 0 1.473-.389.542-.395.542-1.077 0-.39-.172-.657-.172-.268-.453-.446-.28-.185-.644-.293-.363-.115-.758-.217-.65-.16-1.212-.325-.56-.173-.975-.44-.408-.268-.644-.683-.236-.42-.236-1.077 0-1.173.752-1.855.759-.689 2.264-.689 1.198 0 1.912.446.714.44 1.129 1.135l-.937.663q-.345-.573-.842-.886-.49-.312-1.262-.312-.861 0-1.34.382-.477.376-.477 1.014 0 .338.14.567.147.23.414.39.268.152.663.267.402.109.912.236.6.16 1.141.338.542.172.944.459.408.287.644.74.236.452.236 1.154zM56.3 27.942q-.42.676-.86 1.027-.434.344-1.014.522-.58.179-1.364.179-1.983 0-2.927-1.141-.937-1.148-.937-3.456 0-2.302.93-3.45.938-1.147 2.883-1.147.771 0 1.377.191.605.192 1.02.53.42.331.765.937l-.97.637q-.28-.471-.567-.714-.287-.248-.688-.389-.402-.146-.937-.146-1.327 0-1.951.886-.619.88-.619 2.665 0 1.76.612 2.659.612.892 1.97.892.753 0 1.307-.293.555-.3.995-1.027zM64.73 25.073q0 2.378-.9 3.487-.892 1.11-2.69 1.11-1.824 0-2.71-1.129-.88-1.128-.88-3.468 0-2.32.874-3.456.873-1.14 2.716-1.14 1.817 0 2.703 1.115.886 1.116.886 3.481zm-1.238 0q0-1.83-.554-2.69-.549-.861-1.798-.861-1.25 0-1.805.86-.548.861-.548 2.691 0 1.843.555 2.697.56.854 1.798.854 1.23 0 1.791-.848.561-.848.561-2.703zM71.615 29.485l-2.25-3.602h-1.537v3.602h-1.18v-8.824h2.742q1.645 0 2.359.606.714.605.714 1.874 0 1.084-.44 1.715-.434.631-1.415.842l2.39 3.787zm-.37-6.255q0-.873-.446-1.198-.44-.332-1.422-.332h-1.55v3.137h1.474q.74 0 1.16-.153.427-.16.606-.497.178-.345.178-.957zM74.529 29.485v-8.824h5.394v1.065h-4.215v2.576h3.602v1.07h-3.602v3.042h4.215v1.071z"/></g><g style="line-height:1.25;-inkscape-font-specification:'Clear Sans'" aria-label="568" font-size="22.434" font-family="Clear Sans" fill="#fff" stroke-width=".561" font-weight="700"><path style="-inkscape-font-specification:'Clear Sans Bold'" d="M53.01 46.126q0 2.475-1.59 3.889-1.577 1.413-4.556 1.413-3.714 0-5.368-2.498l2.465-1.742q.843 1.48 2.859 1.48 3.023 0 3.023-2.608 0-1.095-.8-1.72-.788-.635-2.201-.635-1.512 0-2.29.81h-2.158l.899-8.566h8.862v2.826h-6.398l-.306 2.662q1.04-.427 2.311-.427 2.432 0 3.834 1.304 1.413 1.303 1.413 3.812zM60.973 51.428q-2.739 0-4.24-1.808-1.49-1.818-1.49-5.17 0-4.294 1.611-6.55 1.61-2.268 4.7-2.268 2.924 0 4.327 1.237l-1.753 2.377q-.537-.47-1.14-.712-.602-.252-1.434-.252-1.48 0-2.158 1.008-.669 1.008-.855 2.87.876-.591 1.567-.821.7-.23 1.665-.23 2.136 0 3.385 1.314 1.26 1.304 1.26 3.768 0 2.432-1.469 3.834-1.467 1.403-3.976 1.403zm.022-2.651q1.03 0 1.676-.548.657-.548.657-1.96 0-1.162-.646-1.852-.646-.69-1.73-.69-.855 0-1.513.285-.646.273-.986.547 0 1.676.252 2.465.252.789.8 1.27.548.483 1.49.483zM79.584 47.002q0 2.103-1.468 3.264-1.456 1.162-4.184 1.162-2.695 0-4.185-1.107-1.49-1.117-1.49-3.319 0-1.347.756-2.355.767-1.008 2.049-1.588-1.227-.603-1.84-1.457-.603-.866-.603-1.863 0-2.004 1.402-3.056 1.402-1.051 3.91-1.051 2.444 0 3.868 1.018 1.424 1.019 1.424 3.067 0 .68-.329 1.26-.317.58-.832 1.052-.515.47-1.567 1.051 1.26.614 1.862 1.15.603.537.91 1.228.317.69.317 1.544zm-3.385-7.24q0-.724-.525-1.217-.526-.493-1.742-.493-1.304 0-1.797.493-.493.493-.493 1.15 0 .494.22.833.219.34.723.723.514.373 1.347.701 1.282-.559 1.775-1.095.492-.537.492-1.096zm.296 7.24q0-.942-.635-1.566-.625-.625-1.928-1.238-1.391.613-1.983 1.238-.591.624-.591 1.588 0 .854.613 1.402.614.548 1.96.548 1.348 0 1.95-.57.614-.57.614-1.402z"/></g><path d="M148.295 32.703l51.17.49-25.748-24.771zM314.32 149.11l.489 51.333 24.281-25.096zM148.132 315.398l51.496.163-25.259 24.933zM32.488 149.273l-.163 51.333-23.792-25.911z" fill="#000"/><rect ry="6.03" y="284.655" x="20.123" height="44" width="44" fill="#000"/><g style="line-height:1.25;-inkscape-font-specification:'Clear Sans'"><path style="-inkscape-font-specification:'Clear Sans Bold'" d="M45.421 317.412l-4.66-6.917h-1.887v6.917H35.15v-18.269h6.64q3.525 0 5.148 1.267 1.637 1.268 1.637 4.158 0 2.337-.99 3.723-.977 1.386-2.785 1.769l4.884 7.352zm-.62-12.685q0-1.4-.713-1.875-.7-.475-2.323-.475h-2.891v4.871h2.732q1.254 0 1.928-.238.673-.237.963-.739.304-.501.304-1.544z" font-weight="700" aria-label="R" font-size="27.034" font-family="Clear Sans" fill="#fff" stroke-width=".676"/></g><rect width="44" height="44" x="284.311" y="285.256" ry="6.03" fill="#000"/><g style="line-height:1.25;-inkscape-font-specification:'Clear Sans'" aria-label="version" font-size="9.882" font-family="Clear Sans" fill="#fff" stroke-width=".247"><path d="M292.48 302.434h-.82l-1.772-5.061h.893l1.312 3.976 1.303-3.976h.86zM295.833 300.002q0 1.004.343 1.434.342.424 1.1.424.337 0 .593-.14.256-.144.492-.463l.686.425q-.29.434-.705.67-.415.232-1.124.232-1.13 0-1.689-.656-.555-.656-.555-1.983 0-1.39.54-2.051.546-.666 1.641-.666.984 0 1.477.57.492.564.492 1.741v.463zm2.48-.65q-.01-.681-.29-1.058-.274-.376-.897-.376-.593 0-.893.343-.294.337-.39 1.09zM303.177 298.193q-.135-.058-.386-.058-.372 0-.719.174-.343.169-.8.627v3.498h-.83v-5.061h.83v.82q.346-.352.728-.622.386-.275.854-.275.313 0 .502.1zM307.626 301.069q0 .71-.502 1.115-.502.4-1.428.4-.632 0-1.134-.236-.502-.242-.734-.676l.666-.405q.382.613 1.226.613.55 0 .82-.208.275-.212.275-.57 0-.212-.096-.342-.097-.135-.3-.232-.202-.1-.83-.27-.902-.207-1.273-.574-.367-.367-.367-.975 0-.67.483-1.076.482-.405 1.336-.405.661 0 1.11.26.449.261.656.628l-.66.405q-.396-.593-1.125-.593-.415 0-.705.183-.284.183-.284.57 0 .342.25.496.252.155.787.285.86.222 1.187.415.328.193.483.478.159.28.159.714zM309.913 296.09q0 .289-.13.395-.13.101-.415.101-.304 0-.42-.13-.116-.13-.116-.367 0-.256.126-.371.125-.121.41-.121.294 0 .42.116.125.11.125.376zm-.96 6.344v-5.061h.83v5.061zM315.622 299.916q0 1.317-.57 1.992-.564.676-1.65.676-1.086 0-1.66-.666-.574-.67-.574-2.002 0-1.356.574-2.022.579-.666 1.66-.666 1.09 0 1.655.68.565.676.565 2.008zm-.86 0q0-1.033-.342-1.501-.338-.468-1.018-.468-.7 0-1.038.473-.337.468-.337 1.496 0 .989.323 1.467.328.477 1.052.477.69 0 1.023-.473.338-.473.338-1.471zM320.181 302.434v-2.982q0-.723-.072-.965-.072-.24-.236-.347-.164-.111-.478-.111-.319 0-.743.241-.425.241-.82.589v3.575h-.83v-5.061h.83v.752q.352-.352.82-.622.468-.275.94-.275.734 0 1.077.42.342.415.342 1.409v3.377z"/></g><g style="line-height:1.25;-inkscape-font-specification:'Clear Sans Bold'" aria-label="-.-" font-weight="700" font-size="16.342" font-family="Clear Sans" fill="#fff" stroke-width=".409"><path d="M297.916 314.562v-2.027h4.972v2.027zM307.18 316.589q0 .686-.31.981-.312.287-.998.287-.75 0-1.022-.327-.27-.327-.27-.941 0-.655.286-.966.288-.311 1.006-.311.734 0 1.021.303.287.303.287.974zM308.864 314.562v-2.027h4.971v2.027z"/></g></svg>