<svg xmlns="http://www.w3.org/2000/svg" fill="none" viewBox="0 0 348 348"><path stroke="#000" stroke-width="2" d="M5.08 5.78h336.91v337.67H5.08z"/><path stroke="#000" stroke-width="2" d="M282.73 40.55c0-8.37 6.97-15.16 15.56-15.16 4.13 0 8.09 1.6 11 4.44a14.97 14.97 0 0 1 4.56 10.72c0 8.38-6.96 15.17-15.56 15.17-8.59 0-15.56-6.8-15.56-15.17z"/><path fill="#87a5c9" stroke="#000" stroke-width="2" d="M20.08 25.39h215.4V76.7H20.09z"/><path fill="#87a5c9" stroke="#000" stroke-width="1.85" d="M20 122.2h44v44H20zm44 44h44v44H64zm44-44h44v44h-44zm44 44h44v44h-44zm44-44h44v44h-44zm88 0h44v44h-44zm-44 44h44v44h-44z"/><path fill="#1a1a1a" d="M64.51 270.82h183.24v53.56H64.5Z"/><path fill="#000" d="M69.53 275.6h172.06v44H69.53Z"/><g stroke-width="5" color="#000"><path fill="#333" d="M153.67 275.6v44z"/><path fill="#1a1a1a" d="M151.78 275.6v44h3.78v-44z"/></g><g stroke-width="5" color="#000"><path fill="#333" d="M197.67 275.6v44z"/><path fill="#1a1a1a" d="M195.78 275.6v44h3.78v-44z"/></g><path fill="#87a5c9" stroke="#1a1a1a" stroke-width="1.78" d="m132.6 238.55 7.83 13.58 7.85 13.59H116.9l7.85-13.59z"/><g stroke-width="5" color="#000"><path fill="#333" d="M110.6 275.6v44z"/><path fill="#1a1a1a" d="M108.7 275.6v44h3.78v-44z"/></g><path fill="#87a5c9" stroke="#1a1a1a" stroke-width="1.76" d="m89.51 238.55 7.85 13.58 7.84 13.59H73.83l7.84-13.59z"/><path fill="#87a5c9" stroke="#1a1a1a" stroke-width="1.78" d="m176.6 238.55 7.83 13.58 7.85 13.59H160.9l7.85-13.59zm44 0 7.83 13.58 7.85 13.59H204.9l7.85-13.59zm62.36 59.05-13.59 7.85-13.58 7.84V281.9l13.58 7.85z"/></svg>