<svg xmlns="http://www.w3.org/2000/svg" viewBox="0 0 348 348" fill="none"><path d="M5.079 5.776h336.913v337.67H5.08z" stroke-width="4" stroke="#020000"/><path d="M282.734 40.554c0-8.376 6.966-15.165 15.56-15.165 4.126 0 8.084 1.597 11.001 4.441 2.918 2.844 4.558 6.702 4.558 10.724 0 8.376-6.966 15.165-15.56 15.165-8.593 0-15.559-6.79-15.559-15.165z" stroke-width="4" stroke="#020000"/><path stroke="#020000" stroke-width="4" stroke-linecap="round" stroke-linejoin="round" d="M78.887 35.764h103.186v34.053H78.887zM202.556 39.204h25.894v25.894h-25.894zM248.174 125.478h25.894v25.894h-25.894zM283.264 125.478h25.894v25.894h-25.894zM248.174 161.053h25.894v25.894h-25.894zM283.264 161.053h25.894v25.894h-25.894zM248.174 196.627h25.894v25.894h-25.894zM283.264 196.627h25.894v25.894h-25.894zM253.227 251.928h50.878v50.878h-50.878zM51.789 121.485h175.21v175.21H51.789z"/><g style="line-height:1.25;-inkscape-font-specification:'Ostrich Sans, Heavy';font-variant-ligatures:normal;font-variant-caps:normal;font-variant-numeric:normal;font-variant-east-asian:normal"><path d="M265.428 146.706c0-.604-.484-1.088-1.088-1.088h-4.503V129.33c0-.604-.484-1.088-1.058-1.088h-.877c-.604 0-1.088.484-1.088 1.088v18.193c0 .605.484 1.088 1.088 1.088h6.438c.604 0 1.088-.483 1.088-1.088z" style="-inkscape-font-specification:'Ostrich Sans, Heavy';font-variant-ligatures:normal;font-variant-caps:normal;font-variant-numeric:normal;font-variant-east-asian:normal" aria-label="L" font-weight="900" font-size="30.221" font-family="Ostrich Sans" fill="#000" stroke-width="4"/></g><g style="line-height:1.25;-inkscape-font-specification:'Ostrich Sans, Heavy';font-variant-ligatures:normal;font-variant-caps:normal;font-variant-numeric:normal;font-variant-east-asian:normal"><path d="M300.956 142.475c0-1.571-.423-2.81-1.3-3.747l.242-.242c.937-.937 1.27-2.448 1.27-4.322 0-4.05-1.3-5.923-5.017-5.923h-3.808c-.604 0-1.088.484-1.088 1.088v18.193c0 .605.484 1.088 1.088 1.088h.846c.574 0 1.058-.483 1.058-1.088v-7.404h1.36c1.48 0 2.327.846 2.327 2.357v5.047c0 .605.484 1.088 1.088 1.088h.846c.605 0 1.088-.483 1.088-1.088zm-6.709-11.212h1.904c1.571 0 2.025.846 2.025 2.901 0 2.055-.877 2.902-2.569 2.902h-1.36z" style="-inkscape-font-specification:'Ostrich Sans, Heavy';font-variant-ligatures:normal;font-variant-caps:normal;font-variant-numeric:normal;font-variant-east-asian:normal" aria-label="R" font-weight="900" font-size="30.221" font-family="Ostrich Sans" fill="#000" stroke-width="4"/></g><g style="line-height:1.25;-inkscape-font-specification:'Ostrich Sans, Heavy';font-variant-ligatures:normal;font-variant-caps:normal;font-variant-numeric:normal;font-variant-east-asian:normal"><path d="M256.165 178.654c0 3.204 1.33 5.53 4.956 5.53 3.506 0 4.956-2.145 4.956-5.53v-13.75c0-.605-.483-1.089-1.088-1.089h-.846c-.574 0-1.058.484-1.058 1.088v13.751c0 1.45-.423 2.539-1.964 2.539-1.48 0-1.964-.937-1.964-2.539v-13.75c0-.605-.484-1.089-1.088-1.089h-.847c-.574 0-1.057.484-1.057 1.088z" style="-inkscape-font-specification:'Ostrich Sans, Heavy';font-variant-ligatures:normal;font-variant-caps:normal;font-variant-numeric:normal;font-variant-east-asian:normal" aria-label="U" font-weight="900" font-size="30.221" font-family="Ostrich Sans" fill="#000" stroke-width="4"/></g><g style="line-height:1.25;-inkscape-font-specification:'Ostrich Sans, Heavy';font-variant-ligatures:normal;font-variant-caps:normal;font-variant-numeric:normal;font-variant-east-asian:normal"><path d="M298.795 183.338c.121.454.605.847 1.058.847h.876c.726 0 1.21-.635 1.058-1.33l-4.17-18.193c-.091-.454-.605-.847-1.058-.847h-.665c-.453 0-.937.393-1.058.847l-2.75 11.816-1.45 6.407c-.152.695.332 1.3 1.057 1.3h.877c.453 0 .937-.393 1.057-.847l1.058-4.714h3.083zm-2.568-12.541c.574 2.568.513 3.384.846 4.835h-1.693z" style="-inkscape-font-specification:'Ostrich Sans, Heavy';font-variant-ligatures:normal;font-variant-caps:normal;font-variant-numeric:normal;font-variant-east-asian:normal" aria-label="A" font-weight="900" font-size="30.221" font-family="Ostrich Sans" fill="#000" stroke-width="4"/></g><g style="line-height:1.25;-inkscape-font-specification:'Ostrich Sans, Heavy';font-variant-ligatures:normal;font-variant-caps:normal;font-variant-numeric:normal;font-variant-east-asian:normal"><path d="M260.547 219.759c3.626 0 5.319-2.055 5.319-5.984v-8.401c0-3.93-1.693-5.984-5.32-5.984h-3.082c-.604 0-1.088.483-1.088 1.088v18.193c0 .604.484 1.088 1.088 1.088zm0-17.377c1.602 0 2.266.967 2.266 2.992v8.401c0 2.025-.664 2.992-2.266 2.992h-1.179v-14.385z" style="-inkscape-font-specification:'Ostrich Sans, Heavy';font-variant-ligatures:normal;font-variant-caps:normal;font-variant-numeric:normal;font-variant-east-asian:normal" aria-label="D" font-weight="900" font-size="30.221" font-family="Ostrich Sans" fill="#000" stroke-width="4"/></g><g style="line-height:1.25;-inkscape-font-specification:'Ostrich Sans, Heavy';font-variant-ligatures:normal;font-variant-caps:normal;font-variant-numeric:normal;font-variant-east-asian:normal"><path d="M294 207.006v-6.528c0-.605-.483-1.088-1.087-1.088h-.846c-.605 0-1.088.483-1.088 1.088v18.193c0 .604.483 1.088 1.088 1.088h.846c.604 0 1.088-.484 1.088-1.088v-5.984l.362-.544 4.05 7.072c.151.272.635.544.937.544h.967c.907 0 1.39-.846.967-1.632l-5.077-8.945 5.047-8.13c.483-.786 0-1.662-.937-1.662h-1.027c-.303 0-.756.272-.907.514z" style="-inkscape-font-specification:'Ostrich Sans, Heavy';font-variant-ligatures:normal;font-variant-caps:normal;font-variant-numeric:normal;font-variant-east-asian:normal" aria-label="K" font-weight="900" font-size="30.221" font-family="Ostrich Sans" fill="#000" stroke-width="4"/></g><g style="line-height:1.25;-inkscape-font-specification:'Ostrich Sans, Heavy';font-variant-ligatures:normal;font-variant-caps:normal;font-variant-numeric:normal;font-variant-east-asian:normal"><path d="M272.222 257.257a2.14 2.14 0 00-2.149 2.148v35.923a2.14 2.14 0 002.149 2.148h1.67c1.134 0 2.149-.954 2.149-2.148v-15.037h6.683a2.14 2.14 0 002.148-2.148v-1.612a2.14 2.14 0 00-2.148-2.148h-6.683v-11.218h9.07a2.14 2.14 0 002.148-2.148v-1.612a2.14 2.14 0 00-2.148-2.148z" style="-inkscape-font-specification:'Ostrich Sans, Heavy';font-variant-ligatures:normal;font-variant-caps:normal;font-variant-numeric:normal;font-variant-east-asian:normal" aria-label="F" font-weight="900" font-size="59.672" font-family="Ostrich Sans" fill="#000" stroke-width="4"/></g><g aria-label="(2:4:3:5)" style="line-height:1.25;-inkscape-font-specification:'Ostrich Sans, Heavy';font-variant-ligatures:normal;font-variant-caps:normal;font-variant-numeric:normal;font-variant-east-asian:normal" font-weight="900" font-size="30.66" font-family="Ostrich Sans" fill="#000" stroke-width="4"><path d="M99.698 61.774c.306-.52.153-1.165-.368-1.471 0-.03-.061-.062-.092-.123-.153-.153-.337-.49-.583-.981-.46-1.042-1.011-3.035-1.011-6.347 0-3.403.552-5.365 1.042-6.438l-.03.03.337-.643c.184-.338.337-.491.52-.644.369-.338.491-.981.185-1.41l-.49-.736c-.4-.614-1.166-.675-1.687-.154l-.46.399c-.368.368-.797.98-1.104 1.747l.031-.03c-.705 1.502-1.38 3.986-1.38 7.88 0 3.25.43 5.855 1.38 7.756l-.03-.03c.367.828.797 1.44 1.226 1.809l.368.337c.552.552 1.349.46 1.747-.245zM104.634 60.088c.215-2.085.95-3.495 2.422-4.783 2.33-2.085 3.465-4.507 3.465-7.328 0-3.158-1.625-5.518-4.507-5.518-3.036 0-4.538 2.054-4.538 5.61v.184c0 .583.49 1.073 1.104 1.073h.889c.583 0 1.073-.49 1.073-1.073v-.184c0-1.778.49-2.575 1.472-2.575.92 0 1.44.981 1.44 2.483 0 1.81-.888 3.557-2.452 5.029-1.288 1.195-2.269 2.575-2.82 4.077l.03-.03c-.49 1.318-.736 2.79-.736 4.537v.43a1.1 1.1 0 001.104 1.103h6.837a1.1 1.1 0 001.104-1.103v-.828a1.1 1.1 0 00-1.104-1.104zM115.764 47.947c0-.613-.522-1.104-1.104-1.104h-.859a1.1 1.1 0 00-1.103 1.104v2.085c0 .582.49 1.073 1.103 1.073h.859c.582 0 1.104-.49 1.104-1.073zm-1.963 6.438a1.1 1.1 0 00-1.103 1.104v2.085c0 .583.49 1.073 1.103 1.073h.859c.582 0 1.104-.49 1.104-1.073v-2.085c0-.613-.522-1.104-1.104-1.104zM124.226 57.482v4.538a1.1 1.1 0 001.104 1.103h.858a1.1 1.1 0 001.104-1.103V43.562a1.1 1.1 0 00-1.104-1.103h-.828c-.306 0-.797.306-.95.582l-6.592 12.234v1.103a1.1 1.1 0 001.104 1.104zm0-3.035h-2.82l2.85-4.967zM132.228 47.947c0-.613-.521-1.104-1.104-1.104h-.858a1.1 1.1 0 00-1.104 1.104v2.085c0 .582.49 1.073 1.104 1.073h.858c.583 0 1.104-.49 1.104-1.073zm-1.962 6.438a1.1 1.1 0 00-1.104 1.104v2.085c0 .583.49 1.073 1.104 1.073h.858c.583 0 1.104-.49 1.104-1.073v-2.085c0-.613-.521-1.104-1.104-1.104zM134.22 57.145c0 3.771 1.534 5.978 4.539 5.978 2.728 0 4.507-2.238 4.507-5.856 0-2.3-.95-3.679-1.748-4.445.797-.797 1.748-2.208 1.748-4.477 0-1.625-.307-2.912-1.012-3.924l.03.03c-.827-1.348-1.992-1.992-3.525-1.992-3.005 0-4.538 2.207-4.538 6.009v.153a1.1 1.1 0 001.104 1.104h.889c.582 0 1.073-.49 1.073-1.104v-.153c0-1.993.521-2.974 1.472-2.974.367 0 .705.184.92.552.367.552.52 1.318.52 2.3 0 1.072-.337 1.808-.827 2.268h.03c-.429.46-.95.675-1.349.675h-.398a1.1 1.1 0 00-1.104 1.103v.828a1.1 1.1 0 001.104 1.104h.398c.307 0 .828.153 1.319.644.368.337.828 1.042.828 2.3 0 .49-.062.95-.123 1.348-.153.614-.49 1.472-1.318 1.472-.95 0-1.472-.889-1.472-2.943v-.154c0-.613-.49-1.103-1.073-1.103h-.89a1.1 1.1 0 00-1.103 1.103zM148.048 47.947c0-.613-.52-1.104-1.103-1.104h-.859a1.1 1.1 0 00-1.104 1.104v2.085c0 .582.491 1.073 1.104 1.073h.859c.582 0 1.103-.49 1.103-1.073zm-1.962 6.438a1.1 1.1 0 00-1.104 1.104v2.085c0 .583.491 1.073 1.104 1.073h.859c.582 0 1.103-.49 1.103-1.073v-2.085c0-.613-.52-1.104-1.103-1.104zM150.01 53.956a1.1 1.1 0 001.104 1.104h.89c.582 0 1.103-.49 1.103-1.104 0-1.012.583-1.472 1.441-1.472.981 0 1.441.828 1.441 2.76v1.962c0 .49-.061.92-.122 1.318-.154.614-.399 1.564-1.319 1.564-.827 0-1.44-.276-1.44-2.269v-.122c0-.583-.522-1.073-1.104-1.073h-.89c-.613 0-1.103.49-1.103 1.073v.122c0 3.71 1.533 5.304 4.537 5.304 1.533 0 2.668-.643 3.526-2.023.644-1.012.981-2.422.981-3.894v-1.962c0-1.717-.153-3.097-.858-4.109-.859-1.165-1.656-1.717-3.557-1.717-.582 0-1.44.46-1.533.736v-4.66h4.875c.583 0 1.073-.49 1.073-1.104v-.828c0-.613-.49-1.103-1.073-1.103h-6.868a1.1 1.1 0 00-1.103 1.103zM163.838 62.326v.031c.338-.337.736-.92 1.135-1.778.705-1.472 1.38-3.955 1.38-7.85 0-3.25-.43-5.855-1.35-7.756-.368-.797-.766-1.41-1.165-1.779l-.49-.429c-.552-.46-1.319-.306-1.687.338l-.429.735c-.214.368-.122.981.184 1.288l.184.153.184.154c.092.122.276.429.521.95v-.03c.215.46.46 1.257.644 2.238.184 1.011.337 2.422.337 4.139 0 3.434-.551 5.396-1.011 6.408l-.338.644c-.214.337-.398.551-.552.674-.306.307-.398.92-.183 1.288l.46.736c.398.705 1.195.797 1.747.245z" style="-inkscape-font-specification:'Ostrich Sans, Heavy';font-variant-ligatures:normal;font-variant-caps:normal;font-variant-numeric:normal;font-variant-east-asian:normal"/></g><g aria-label="4D Display" style="line-height:1.25;-inkscape-font-specification:'Ostrich Sans, Heavy';font-variant-ligatures:normal;font-variant-caps:normal;font-variant-numeric:normal;font-variant-east-asian:normal" font-weight="900" font-size="63.475" font-family="Ostrich Sans" fill="#000" stroke-width="4" text-anchor="middle"><path d="M130.063 179.13v9.394a2.276 2.276 0 002.285 2.286h1.777a2.276 2.276 0 002.285-2.286v-38.212a2.276 2.276 0 00-2.285-2.285h-1.714c-.634 0-1.65.635-1.967 1.206l-13.648 25.327v2.285a2.276 2.276 0 002.286 2.285zm0-6.284h-5.84l5.903-10.283zM149.36 190.81c7.616 0 11.17-4.317 11.17-12.569v-17.646c0-8.251-3.554-12.568-11.17-12.568h-6.475a2.276 2.276 0 00-2.285 2.285v38.212a2.276 2.276 0 002.285 2.286zm0-36.499c3.363 0 4.76 2.032 4.76 6.284v17.646c0 4.253-1.397 6.284-4.76 6.284h-2.476v-30.214zM73.22 270.154c7.618 0 11.172-4.317 11.172-12.569V239.94c0-8.251-3.554-12.568-11.171-12.568h-6.475a2.276 2.276 0 00-2.285 2.285v38.212a2.276 2.276 0 002.285 2.286zm0-36.499c3.365 0 4.761 2.032 4.761 6.284v17.646c0 4.253-1.396 6.285-4.76 6.285h-2.476v-30.215zM95.691 229.656c0-1.27-1.08-2.285-2.285-2.285h-1.777a2.276 2.276 0 00-2.286 2.285v38.212a2.276 2.276 0 002.286 2.286h1.777c1.206 0 2.285-1.016 2.285-2.286zM100.007 257.712c0 8.316 3.491 12.378 10.474 12.378 6.728 0 10.473-3.808 10.473-10.918 0-6.157-4.253-9.394-8.442-12.631h.063c-3.11-2.412-6.22-4.888-6.22-8.125 0-3.3 1.46-4.76 4.126-4.76 2.793 0 4.126 1.904 4.126 6.093v.889a2.276 2.276 0 002.285 2.285h1.777a2.276 2.276 0 002.285-2.285v-.89c0-8.06-3.618-12.44-10.473-12.44-6.729 0-10.474 4.126-10.474 11.298 0 6.284 4.38 9.712 8.57 13.013v-.064c3.11 2.412 6.03 4.76 6.03 7.744 0 3.364-1.46 4.507-4.126 4.507-.889 0-1.968-.127-2.666-.825-.889-.762-1.46-2.222-1.46-5.269v-.825c0-1.27-1.08-2.285-2.285-2.285h-1.778a2.276 2.276 0 00-2.285 2.285zM134.474 251.873c7.744 0 11.172-4.063 11.172-12.251 0-8.188-3.428-12.25-11.172-12.25h-6.855a2.276 2.276 0 00-2.285 2.284v38.212a2.276 2.276 0 002.285 2.286h1.777c1.206 0 2.222-1.016 2.222-2.286v-15.995zm0-18.218c3.428 0 4.824 1.714 4.824 5.967 0 4.126-1.396 5.967-4.824 5.967h-2.856v-11.934zM167.672 266.155a2.276 2.276 0 00-2.285-2.285h-9.458v-34.214c0-1.27-1.016-2.285-2.222-2.285h-1.84a2.276 2.276 0 00-2.286 2.285v38.212a2.276 2.276 0 002.285 2.286h13.52a2.276 2.276 0 002.286-2.286zM188.555 268.376c.254.952 1.27 1.778 2.222 1.778h1.84c1.524 0 2.54-1.333 2.222-2.793l-8.76-38.212c-.19-.953-1.269-1.778-2.221-1.778h-1.397c-.952 0-1.967.825-2.221 1.778l-5.776 24.818-3.047 13.457c-.318 1.46.698 2.73 2.221 2.73h1.841c.952 0 1.968-.826 2.222-1.778l2.221-9.902h6.475zm-5.395-26.342c1.206 5.395 1.079 7.11 1.777 10.156h-3.555zM197.632 228.704c-.254-.635-1.333-1.333-2.095-1.333h-2.031c-1.777 0-2.793 1.587-2.095 3.174 2.73 6.348 5.523 12.632 8.252 18.98v18.343c0 1.27 1.016 2.286 2.222 2.286h1.777a2.276 2.276 0 002.285-2.286v-18.28l8.188-19.043c.635-1.587-.38-3.174-2.094-3.174h-2.095c-.698 0-1.777.698-2.095 1.333l-5.078 11.68z" style="-inkscape-font-specification:'Ostrich Sans, Heavy';font-variant-ligatures:normal;font-variant-caps:normal;font-variant-numeric:normal;font-variant-east-asian:normal;text-align:center"/></g><path d="M215.503 48.533a3.584 3.584 0 011.01.162 1.79 1.79 0 00-.234.872 1.81 1.81 0 001.81 1.81 1.79 1.79 0 00.871-.235 3.61 3.61 0 11-3.457-2.609zm-9.192 3.147c1.752-3.419 5.22-5.731 9.192-5.731 3.972 0 7.442 2.314 9.193 5.731a1.045 1.045 0 010 .943c-1.752 3.419-5.22 5.732-9.193 5.732-3.971 0-7.44-2.315-9.192-5.732a1.045 1.045 0 010-.943zm9.192 5.124c3.188 0 6.11-1.777 7.687-4.652-1.577-2.876-4.499-4.653-7.687-4.653-3.187 0-6.109 1.777-7.686 4.653 1.577 2.875 4.499 4.652 7.686 4.652z" fill="#000" stroke-width="1.8" stroke="#020000"/></svg>