<svg xmlns="http://www.w3.org/2000/svg" width="512" height="512" fill="none"><defs/><path stroke="#000" stroke-width="4" d="M17.999975 17.999995H494.00002V494H17.999975z"/><circle cx="448.00003" cy="63.999996" r="22" stroke="#000" stroke-width="4"/><path stroke="#000" stroke-width="4.5" d="M38.249969 153.25h103.50016v103.5H38.249969zm108.000171 0H249.7503v103.5H146.25014zm108.00017 0h103.50016v103.5H254.25031zm-216.000333 108h103.50016v103.5H38.249977zm108.000163 0H249.7503v103.5H146.25014zm108.00017 0h103.50016v103.5H254.25031zm-216.000337 108h103.50016v103.5H38.249973zm108.000167 0H249.7503v103.5H146.25014zm108.00017 0h103.50016v103.5H254.25031z"/><path stroke="#000" stroke-width="4.87981" d="M109.44003 50.439903h177.12036v71.120193H109.44003z"/></svg>