<svg version="1.0" xmlns="http://www.w3.org/2000/svg" viewBox="0 0 500 500"><path d="M19 255v220h449V35H19v220zm446 0v217H22V38h443v217z"/><path d="M410 55c-10 3-20 11-23 20-4 12-1 26 8 35 7 6 12 8 22 8s15-2 22-9c10-9 12-24 7-36-4-7-10-13-17-16-5-2-14-3-19-2zm19 5c18 8 22 33 8 47-6 6-10 7-20 7-7 1-9 0-13-2-7-4-10-7-13-14-8-16 2-35 20-40 4-1 13 0 18 2zM67 75v17l1 15 139 1h140l1-17V74H208L67 75zM54 123l-1 159v156h311V121H210c-153 0-155 0-156 2zm305 157v154H57V126h302v154zM374 372c0 23 0 27 2 27l39 1h37v-54h-78v26zM401 406c-6 2-12 8-15 14-7 14-1 32 13 39 5 2 7 3 13 2 11 0 20-5 25-15 6-12 3-26-7-35-7-7-19-9-29-5zm21 5c9 4 13 12 13 22 0 21-23 31-40 17-12-10-10-30 4-38 8-4 16-5 23-1z"/></svg>