<svg xmlns="http://www.w3.org/2000/svg" viewBox="0 0 348 348" fill="none"><path d="M5.079 5.776h336.913v337.67H5.08z" stroke-width="2" stroke="#000"/><path d="M282.734 40.554c0-8.376 6.966-15.165 15.56-15.165 4.126 0 8.084 1.597 11.001 4.441 2.918 2.844 4.558 6.702 4.558 10.724 0 8.376-6.966 15.165-15.56 15.165-8.593 0-15.559-6.79-15.559-15.165z" stroke-width="2" stroke="#000"/><path fill="#000" stroke="#000" stroke-width="2.366" d="M131.183 129.183h87.634v87.634h-87.634z"/><path d="M213.96 68c0 21.517-17.443 38.96-38.96 38.96S136.04 89.518 136.04 68c0-10.759 5.331-20.06 9.37-25.359C168 13 169 10 175 10s7 3 29.59 32.641c4.016 5.27 9.37 14.6 9.37 25.359z" stroke="#000" stroke-width="2.078"/><path d="M148.875 76H145V60h3.875v1.175h-2.578v13.65h2.578zm16.058-14.004h-3.964V72.78h-1.476V61.996h-3.964V60.55h9.404zm8.815 10.784h-7.31V60.55h7.31v1.446h-5.834v3.351h5.834v1.446h-5.834v4.542h5.834zm10.812-12.23l-3.83 6.045 3.823 6.185h-1.707l-3.025-5.035-3.1 5.035h-1.61l3.868-6.11-3.778-6.12h1.7l2.987 4.97 3.055-4.97zm9.91 1.446h-3.963V72.78h-1.476V61.996h-3.964V60.55h9.404zM205 76h-3.875v-1.175h2.578v-13.65h-2.578V60H205zM148.875 286H145v-16h3.875v1.175h-2.578v13.65h2.578zm16.058-14.004h-3.964v10.784h-1.476v-10.784h-3.964v-1.446h9.404zm8.815 10.784h-7.31v-12.23h7.31v1.446h-5.834v3.351h5.834v1.446h-5.834v4.542h5.834zm10.812-12.23l-3.83 6.045 3.823 6.185h-1.707l-3.025-5.035-3.1 5.035h-1.61l3.868-6.11-3.778-6.12h1.7l2.987 4.97 3.055-4.97zm9.91 1.446h-3.963v10.784h-1.476v-10.784h-3.964v-1.446h9.404zM205 286h-3.875v-1.175h2.578v-13.65h-2.578V270H205zM258.875 181H255v-16h3.875v1.175h-2.578v13.65h2.578zm16.058-14.004h-3.964v10.784h-1.476v-10.784h-3.964v-1.446h9.404zm8.815 10.784h-7.31v-12.23h7.31v1.446h-5.834v3.351h5.834v1.446h-5.834v4.542h5.834zm10.812-12.23l-3.83 6.045 3.823 6.185h-1.707l-3.025-5.035-3.1 5.035h-1.61l3.868-6.11-3.778-6.12h1.7l2.987 4.97 3.055-4.97zm9.91 1.446h-3.963v10.784h-1.476v-10.784h-3.964v-1.446h9.404zM315 181h-3.875v-1.175h2.578v-13.65h-2.578V165H315zM38.875 181H35v-16h3.875v1.175h-2.578v13.65h2.578zm16.058-14.004h-3.964v10.784h-1.476v-10.784H45.53v-1.446h9.404zm8.815 10.784h-7.31v-12.23h7.31v1.446h-5.834v3.351h5.834v1.446h-5.834v4.542h5.834zm10.812-12.23l-3.83 6.045 3.823 6.185h-1.707l-3.025-5.035-3.1 5.035h-1.61l3.868-6.11-3.778-6.12h1.7l2.987 4.97 3.055-4.97zm9.91 1.446h-3.963v10.784H79.03v-10.784h-3.964v-1.446h9.404zM95 181h-3.875v-1.175h2.578v-13.65h-2.578V165H95z" aria-label="[ TEXT ]" font-weight="400" font-size="16.022" font-family="sans-serif" letter-spacing="0" word-spacing="0" fill="#000" stroke-width="1.001"/><path d="M150.081 208l5.703-5h30l4.297 5-5.703 5h-30zM155 173l5.703-5h30l4.297 5-5.703 5h-30zm4.919-35l5.703-5h30l4.297 5-5.703 5h-30zm-1.141 1l4.298 5-3.233 23-5.702 5-4.298-5 3.233-23zm-4.918 35l4.297 5-3.233 23-5.702 5-4.298-5 3.233-23zm46.918-35l4.298 5-3.233 23-5.702 5-4.298-5 3.233-23zm-4.918 35l4.297 5-3.233 23-5.702 5-4.298-5 3.233-23z" fill="#fff"/><circle cx="197.5" cy="211.5" r="1.5" fill="#fff"/><path d="M213.96 279c0-21.518-17.443-38.961-38.96-38.961s-38.96 17.443-38.96 38.96c0 10.76 5.331 20.06 9.37 25.36 22.59 29.64 23.59 32.64 29.59 32.64s7-3 29.59-32.64c4.016-5.27 9.37-14.6 9.37-25.36zM280 211.96c-21.517 0-38.96-17.443-38.96-38.96s17.443-38.96 38.96-38.96c10.759 0 20.06 5.331 25.359 9.37C335 166 338 167 338 173s-3 7-32.641 29.59c-5.27 4.016-14.6 9.37-25.359 9.37zM69 134.04c21.518 0 38.961 17.443 38.961 38.96s-17.443 38.96-38.96 38.96c-10.76 0-20.06-5.331-25.36-9.37C14.001 180 11.001 179 11.001 173s3-7 32.64-29.59c5.27-4.016 14.6-9.37 25.36-9.37z" stroke="#000" stroke-width="2.078"/></svg>