<svg xmlns="http://www.w3.org/2000/svg" fill="none" viewBox="0 0 348 348"><path stroke="#000" stroke-width="2" d="M5 5.8h337v337.6H5z"/><path fill="#000" stroke="#000" stroke-linecap="round" stroke-width="5.9" d="M19.7 109.8h305.2v102.1H19.7z"/><path stroke="#000" stroke-linecap="round" stroke-width="1.1" d="M26.6 232.9h41.1v40.4H26.6z"/><path fill="#000" d="M54 253.5l.8.7v10.2q-.4 1.5-1.9 1.8l-1-2.9v-7.6zm-1.8 12.7H41.3q-1.4-.3-1.8-1.8l2.9-1h8.7zm-12.7-2.5v-9.5l.7-.7 2.2 2.2v7zM51 243h-8.7l-2.9-1.1q.4-1.5 1.8-1.8h11zm-8.7.7v7l-2.2 2-.7-.6v-9.5zm9.5 7V243l1-3q1.5.4 1.9 1.9V252l-.8.7z"/><path stroke="#000" stroke-linecap="round" stroke-width="1.1" d="M90 232.9h41.1v40.4H90z"/><path fill="#000" d="M111.3 253.5l.7.7v10.2q-.3 1.5-1.8 1.8l-1-2.9v-7.6zm-2.2-2.9V243l1.1-3q1.5.4 1.8 1.9V252l-.7.7z"/><path stroke="#000" stroke-linecap="round" stroke-width="1.1" d="M153.5 232.9h41.1v40.4h-41.1z"/><path fill="#000" d="M178.7 251.7l1.5 1.5-1.5 1.4h-9.4l-1.5-1.4 1.5-1.5zm1.5 14.5h-12q-1.5-.3-1.8-1.8l2.9-1h9.8zm-13.8-2.5v-9.5l.7-.7 2.2 2.2v7zM178 243h-8.7l-2.9-1.1q.4-1.5 1.8-1.8h10.9zm.7 7.6V243l1.1-3q1.5.4 1.8 1.9V252l-.7.7z"/><path stroke="#000" stroke-linecap="round" stroke-width="1.1" d="M216.9 232.9H258v40.4h-41.1z"/><path fill="#000" d="M242.2 251.7l1.4 1.5-1.4 1.4h-9.5l-1.4-1.4 1.4-1.5zm2.1 1.8l.8.7v10.2q-.4 1.5-1.8 1.8l-1.1-2.9v-7.6zm-1.8 12.7h-10.9q-1.4-.3-1.8-1.8l3-1h8.6zm-1-23.2h-8.8l-2.9-1.1q.4-1.5 1.9-1.8h10.8zm.7 7.6V243l1-3q1.5.4 1.9 1.9V252l-.8.7z"/><path stroke="#000" stroke-linecap="round" stroke-width="1.1" d="M280.3 232.9h41.1v40.4h-41.1z"/><path fill="#000" d="M305.6 251.7l1.5 1.5-1.5 1.4h-9.5l-1.4-1.4 1.4-1.5zm2.2 1.8l.7.7v10.2q-.4 1.5-1.8 1.8l-1.1-2.9v-7.6zM296 242.6v8l-2.1 2.2-.8-.7v-10.6zm9.5 8V243l1-3q1.5.4 2 1.9V252l-.8.7z"/><path stroke="#000" stroke-linecap="round" stroke-width="1.1" d="M26.1 282.6h41.1V323H26.1z"/><path fill="#000" d="M51.4 301.4l1.4 1.4-1.4 1.5h-9.5l-1.4-1.5 1.4-1.4zm2.2 1.8l.7.7v10.2q-.4 1.5-1.8 1.8l-1.1-2.9v-7.6zm-1.9 12.7H40.8q-1.4-.3-1.8-1.8l3-1h8.7zm0-23.2H42l-3-1.1q.4-1.5 1.9-1.9h12zm-9.8.7v6.9l-2.2 2.2-.7-.8v-9.4z"/><path stroke="#000" stroke-linecap="round" stroke-width="1.1" d="M89.8 282.6h41.1V323H89.8z"/><path fill="#000" d="M115 301.4l1.5 1.4-1.4 1.5h-9.5l-1.5-1.5 1.5-1.4zm2.2 1.8l.8.7v10.2q-.4 1.5-1.9 1.8l-1-2.9v-7.6zm-1.8 12.7h-10.9q-1.4-.3-1.8-1.8l2.9-1h8.7zm-12.7-2.5v-9.5l.7-.7 2.2 2.2v6.9zm12.7-20.7h-9.8l-2.9-1.1q.4-1.5 1.8-1.9h12zm-9.8.7v6.9l-2.2 2.2-.7-.8v-9.4z"/><path stroke="#000" stroke-linecap="round" stroke-width="1.1" d="M153.5 282.6h41.1V323h-41.1z"/><path fill="#000" d="M181 303.2l.6.7v10.2q-.3 1.5-1.8 1.8l-1-2.9v-7.6zm-3-10.5h-8.7l-2.9-1.1q.4-1.5 1.8-1.9h10.9zm-8.7.7v6.9l-2.2 2.2-.7-.8v-9.4zm9.4 6.9v-7.6l1.1-3q1.5.4 1.8 1.9v10.1l-.7.8z"/><path stroke="#000" stroke-linecap="round" stroke-width="1.1" d="M217.1 282.6h41.1V323h-41.1z"/><path fill="#000" d="M242.4 301.4l1.5 1.4-1.5 1.5h-9.5l-1.4-1.5 1.4-1.4zm2.2 1.8l.7.7v10.2q-.4 1.5-1.8 1.8l-1.1-2.9v-7.6zm-1.8 12.7h-11q-1.4-.3-1.8-1.8l3-1h8.7zm-12.8-2.5v-9.5l.8-.7 2.1 2.2v6.9zm11.7-20.7H233l-3-1.1q.4-1.5 1.9-1.9h10.9zm-8.8.7v6.9l-2.1 2.2-.8-.8v-9.4zm9.5 6.9v-7.6l1-3q1.5.4 2 1.9v10.1l-.8.8z"/><path stroke="#000" stroke-linecap="round" stroke-width="1.1" d="M280.8 282.6h41.1V323h-41.1z"/><path fill="#000" d="M306 301.4l1.5 1.4-1.4 1.5h-9.5l-1.4-1.5 1.4-1.4zm2.3 1.8l.7.7v10.2q-.4 1.5-1.8 1.8L306 313v-7.6zm-1.9 12.7h-10.9q-1.4-.3-1.8-1.8l3-1h8.6zm-1-23.2h-8.7l-3-1.1q.4-1.5 1.9-1.9h10.8zm-8.8.7v6.9l-2.2 2.2-.7-.8v-9.4zm9.5 6.9v-7.6l1-3q1.5.4 1.9 1.9v10.1l-.7.8z"/><path stroke="#000" stroke-linecap="round" stroke-linejoin="round" stroke-miterlimit="8.4" stroke-width="3" d="M18 25.2h90v60H18zM48 25.2l-30 30m60-30l-60 60m90-60l-60 60m60-30l-30 30M236.8 25.2h90v60h-90zM266.8 25.2l-30 30m60-30l-60 60m90-60l-60 60m60-30l-30 30"/><path fill="#1a1a1a" stroke="#000" stroke-linecap="round" stroke-linejoin="round" stroke-miterlimit="1" stroke-width="2" d="M124.7 31.2h94.8v54.5h-94.8z"/><path fill="#fff" d="M48.2 204.5h-5.1v-5H43q-3.4 5.8-9.9 5.8-4.8 0-7.5-2.6-2.7-2.5-2.7-6.7 0-9 10.6-10.4l9.6-1.4q0-8.1-6.6-8.1-5.8 0-10.4 4v-5.3q4.7-3 10.8-3 11.3 0 11.3 11.9zm-5.1-16.2l-7.7 1q-3.6.6-5.4 1.9-1.8 1.2-1.8 4.4 0 2.4 1.6 3.9 1.7 1.5 4.5 1.5 3.8 0 6.3-2.7t2.5-6.8zm37.7 16.2h-5v-5h-.2q-3.3 5.8-9.8 5.8-4.8 0-7.5-2.6-2.7-2.5-2.7-6.7 0-9 10.5-10.4l9.6-1.4q0-8.1-6.6-8.1-5.8 0-10.4 4v-5.3q4.7-3 10.9-3 11.2 0 11.2 11.9zm-5-16.2l-7.8 1q-3.6.6-5.4 1.9-1.8 1.2-1.8 4.4 0 2.4 1.7 3.9t4.4 1.5q3.9 0 6.3-2.7 2.5-2.7 2.5-6.8z"/></svg>