<svg xmlns="http://www.w3.org/2000/svg" viewBox="0 0 348 348" fill="none"><path d="M5.08 5.776h336.91v337.67H5.08z" stroke-width="2" stroke="#000"/><path d="M20.436 152.552h305.176v102.116H20.436z" fill="#000" stroke="#000" stroke-width="5.933" stroke-linecap="round"/><path stroke-miterlimit="8.364" d="M17.978 25.187h90v60h-90z" color="#000" stroke="#000" stroke-width="3" stroke-linecap="round" stroke-linejoin="round"/><path d="M47.978 25.187l-30 30m60-30l-60 60m90-60l-60 60m60-30l-30 30" stroke-miterlimit="8.364" stroke="#000" stroke-width="3" stroke-linecap="round" stroke-linejoin="round"/><path stroke-miterlimit="8.364" d="M236.776 25.187h90v60h-90z" color="#000" stroke="#000" stroke-width="3" stroke-linecap="round" stroke-linejoin="round"/><path d="M266.776 25.187l-30 30m60-30l-60 60m90-60l-60 60m60-30l-30 30" stroke-miterlimit="8.364" stroke="#000" stroke-width="3" stroke-linecap="round" stroke-linejoin="round"/><path fill="#1a1a1a" stroke="#000" stroke-width="2" stroke-linecap="round" stroke-linejoin="round" stroke-miterlimit="1" d="M124.657 31.164h94.791v54.537h-94.791z"/><g aria-label="Y N R A S" style="line-height:1.25;-inkscape-font-specification:'Copperplate Gothic Bold, '" font-weight="400" font-size="67.639" font-family="Copperplate Gothic Bold" letter-spacing="0" word-spacing="0" fill="#fff" stroke-width="1.691"><path d="M54.375 206.54v17.613q0 1.171.404 1.776.433.605 1.472.983v1.209H43.87v-1.21q1.039-.377 1.472-.982.433-.605.433-1.776V206.54l-12.728-23.47q-1.645-3.024-2.598-4.044-.923-1.058-2.222-1.285v-1.21h15.556v1.21q-1.934.416-1.934 2.343 0 .68 1.184 2.986l7.1 13.832 7.301-13.832q1.184-2.23 1.184-3.024 0-.869-.52-1.474-.52-.642-1.414-.831v-1.21h15.239v1.21q-1.299.227-2.251 1.285-.924 1.02-2.569 4.044zM99.197 192.784v31.369q0 1.171.404 1.776t1.443.983v1.209H89.47v-1.21q1.04-.377 1.443-.982.405-.605.405-1.776v-43.69q0-1.134-.405-1.739-.404-.604-1.443-.982v-1.21h13.392v1.21q-1.241.416-1.241 1.738 0 .907.808 2.003l21.733 29.593v-30.613q0-1.134-.404-1.739-.405-.604-1.444-.982v-1.21h11.574v1.21q-1.04.378-1.443.982-.404.605-.404 1.739v43.69q0 1.171.404 1.776t1.443.983v1.209h-12.41v-1.21q1.212-.34 1.212-1.625 0-.755-1.415-2.645zM166.184 207.07v17.12q0 1.134.404 1.777.433.604 1.443.945v1.209h-12.295v-1.21q1.039-.377 1.443-.982.404-.605.404-1.739V180.5q0-1.17-.404-1.776-.404-.604-1.443-.982v-1.21h24.647q4.503 0 7.129.68 2.655.681 4.618 2.382 2.28 1.965 3.405 5.329 1.068 3.25 1.068 6.954 0 12.623-10.707 14.777l7.648 14.248q2.02 3.742 2.944 4.838.952 1.058 2.309 1.172v1.209h-14.258v-1.21q1.472-.302 1.472-1.36 0-.68-1.356-3.288l-7.966-15.193zm0-8.504h13.276q2.944 0 4.156-.227 1.212-.226 2.222-.944 2.193-1.55 2.193-5.594 0-4.044-2.193-5.593-1.039-.756-2.222-.945-1.155-.227-4.156-.227h-13.276zM247.168 214.969h-17.894l-2.655 7.256q-.548 1.512-.548 2.381 0 1.663 1.933 2.306v1.209H214.96v-1.21q1.154-.302 1.76-1.058.607-.755 1.386-2.948l14.488-39.645q.693-1.89.693-3.024 0-1.738-1.674-2.494v-1.21h13.969v1.21q-1.703.642-1.703 2.23 0 1.096.548 2.494l15.008 39.76q.953 2.531 1.674 3.476.722.907 1.934 1.21v1.209h-14.489v-1.21q1.905-.415 1.905-2.343 0-.793-.577-2.343zm-2.482-7.068l-6.378-18.368-6.465 18.368zM317.878 180.879l-4.704 12.132-.808-.605q.028-.378.028-.605 0-1.285-1.673-2.759-5.138-4.686-12.064-4.686-3.06 0-5.398.982-1.702.756-2.77 2.268-1.04 1.512-1.04 3.288 0 2.91 2.685 3.968 1.385.53 5.945 1.134l4.532.605q4.04.567 6.522 1.55 2.511.982 4.445 2.758 1.962 1.852 3.088 4.876 1.154 3.023 1.154 6.463 0 5.442-2.684 9.675-2.424 3.855-7.532 5.707-3.81 1.398-8.168 1.398-7.822 0-15.441-4.913-1.616-.983-1.934-.983-.375 0-1.183.832l-.837-.567 4.272-12.661.836.529v.491q0 1.701 1.242 3.137 1.875 2.192 5.8 3.78 3.926 1.587 7.447 1.587 3.838 0 6.551-1.7 1.501-.946 2.396-2.495.894-1.588.894-3.288 0-2.57-2.106-3.666-1.472-.756-5.946-1.399l-4.444-.604q-4.474-.605-6.321-1.134-1.847-.567-3.694-1.776-2.627-1.701-4.127-5.103-1.357-3.061-1.357-7.03 0-6.538 3.435-10.808 4.502-5.632 13.507-5.632 3.78 0 7.042 1.02 3.261.983 8.139 3.667 1.674.869 2.049.869.606 0 1.414-.87z"/></g><g aria-label="40" style="line-height:1.25;-inkscape-font-specification:'Copperplate Gothic Bold, '" font-weight="400" font-size="40" font-family="sans-serif" letter-spacing="0" word-spacing="0" fill="#fff"><path d="M170.216 63.333H165.9v8.184h-3.75v-8.184h-13.926v-4.492l14.082-16.406h3.594v17.773h4.316zm-8.066-3.125V47.083l-11.27 13.125zM194.982 56.966q0 7.832-2.46 11.504-2.442 3.652-7.599 3.652-5.234 0-7.656-3.71-2.402-3.711-2.402-11.407 0-7.754 2.441-11.445 2.442-3.711 7.617-3.711 5.235 0 7.637 3.77 2.422 3.75 2.422 11.347zm-5.137 8.867q.684-1.582.918-3.71.254-2.149.254-5.157 0-2.969-.254-5.156-.234-2.188-.937-3.711-.684-1.504-1.875-2.266-1.172-.761-3.028-.761-1.835 0-3.046.761-1.192.762-1.895 2.305-.664 1.445-.918 3.77-.234 2.324-.234 5.097 0 3.047.215 5.098.214 2.05.918 3.672.644 1.523 1.816 2.324 1.191.8 3.144.8 1.836 0 3.047-.761 1.211-.762 1.875-2.305z" style="-inkscape-font-specification:sans-serif"/></g></svg>