<svg width="348" height="348" xmlns="http://www.w3.org/2000/svg" fill="none"><path stroke="#000" stroke-width="2" d="M5.079 5.776h336.913v337.67H5.08L5.079 5.776z"/><path stroke="#000" stroke-width="2" d="M282.734 40.554c0-8.376 6.966-15.165 15.56-15.165 4.126 0 8.084 1.597 11.001 4.441 2.918 2.844 4.558 6.702 4.558 10.724 0 8.376-6.966 15.165-15.56 15.165-8.593 0-15.559-6.79-15.559-15.165z"/><g stroke="#000" fill="#fff"><path d="M62.116 282.158h224.635v52.105H62.116zM291.987 282.157l48.42 26.053-48.42 26.053v-52.106zM56.013 334.262 7.592 308.21l48.421-26.053v52.105z"/></g><path stroke="#000" fill="#fff" d="M76.368 55.842h195.263v195.263H76.368z"/></svg>
