<svg xmlns="http://www.w3.org/2000/svg" fill="none" viewBox="0 0 348 348"><path stroke="#000" stroke-width="2" d="M5.08 5.78h336.91v337.67H5.08z"/><path stroke="#000" stroke-width="2" d="M282.73 40.55c0-8.37 6.97-15.16 15.56-15.16 4.13 0 8.09 1.6 11 4.44a14.97 14.97 0 0 1 4.56 10.72c0 8.38-6.96 15.17-15.56 15.17-8.59 0-15.56-6.8-15.56-15.17z"/><path fill="#000" d="M17 18h101v101H17zm0 132h181v181H17z"/><path fill="#fff" d="M53 22h29v29H53zm32 0h29v29H85zm-64 0h29v29H21zm32 32h29v29H53zm32 0h29v29H85zm-64 0h29v29H21zm32 32h29v29H53zm32 0h29v29H85zm-64 0h29v29H21zm4 72h50v50H25zm58 0h50v50H83zm58 0h50v50h-50zM25 216h50v50H25zm58 0h50v50H83zm58 0h50v50h-50zM25 274h50v50H25zm58 0h50v50H83zm58 0h50v50h-50z"/><path fill="#00f" stroke="#000" stroke-width="2" d="M214 223h50v50h-50z"/><path fill="#ff0" stroke="#000" stroke-width="2" d="M214 165h50v50h-50z"/><path fill="red" stroke="#000" stroke-width="2" d="M214 107h50v50h-50z"/><path stroke="#000" stroke-width="2" d="M272 223h50v50h-50zm0-58h50v50h-50zm0-58h50v50h-50z"/><circle cx="297" cy="132" r="19.14" fill="#fff" stroke="#000" stroke-width="1.71"/><path fill="#fff" stroke="#000" stroke-width="2" d="M323.52 215H264l29.76-51.55z" transform="matrix(.64 0 0 .73 110.45 51.61)"/><path fill="#fff" stroke="#000" stroke-width=".96" d="m297.02 267.27-19.31-19.3 19.3-19.32 19.32 19.31z"/><path fill="#000" stroke="#000" stroke-width="2.32" d="M214.16 280.84H321.6v50H214.16z"/><path stroke="#000" stroke-width="1.35" d="M128.67 30.67h33.66v33.66h-33.66z"/><path fill="#000" stroke="#000" stroke-width="2" d="M323.52 215H264l29.76-51.55z" transform="matrix(.43 0 0 .5 19.94 -45.64)"/><path stroke="#000" stroke-width="1.35" d="M162.33 108.33h-33.66V74.67h33.66z"/><path fill="#000" stroke="#000" stroke-width="2" d="M323.52 215H264l29.76-51.55z" transform="matrix(-.43 0 0 -.5 270.96 184.78)"/></svg>