<svg xmlns="http://www.w3.org/2000/svg" fill="none" stroke="#000" stroke-width="3" viewBox="0 0 347 347"><path d="M5 5h337v337H5z"/><circle cx="298" cy="40" r="16"/><path d="M42.4 142.2h262.2v159.3H42.4z"/><path d="M106.3 39.2h134.4v74.4H106.3z"/><g stroke="none"><g fill="#bfbfbf"><g id="b" fill="#bfbfbf" transform="translate(0 -2.6)"><path id="a" d="m61 155.4-2.5 2.5 8.3 14.5h22.8l8.4-14.5-2.5-2.5zm-7.9 10-1.5 3.6v52.4L62 206.7v-29.1zm50.2 0-8.9 12.2v29l10.4 14.8V169zM64 215.9l-5.5 8.8 5.5 8.7h28.4l5.6-8.7-5.6-8.8zM51.6 228v52.4l1.5 3.6 8.9-12.2v-29.1zm53.2 0-10.4 14.7v29.1l8.9 12.2 1.5-3.6zm-38 48.5L58.5 291l2.5 2.5h34.5L98 291l-8.4-14.5z"/><use href="#a" transform="translate(62)"/></g><use href="#b" transform="matrix(-1 0 0 1 347 0)"/><circle cx="173.5" cy="202.8" r="4.7"/><circle cx="173.5" cy="241" r="4.7"/></g><path fill="#3f3f3f" d="M162.4 95a100 100 0 0 0-11.8-15.2L137.9 95H130l16-19.6-15.3-17.7h8.6l11.5 13 10.6-13h8l-14 17.3 15.5 20h-8.5zm46 0-11.7-15.2c-4.3 5-8.5 10.2-12.7 15.3h-8l16-19.6-15.3-17.7h8.5l11.6 13 10.6-13h8l-14 17.3 15.5 20h-8.5z"/></g><g stroke-width="6"><path d="M27.3 129.2h292.4v185.3H27.3z"/><path d="M114.7 48h117.5v56.9H114.7z"/></g></svg>