<svg xmlns="http://www.w3.org/2000/svg" xml:space="preserve" fill="none" viewBox="0 0 348 348"><defs><clipPath id="c" clipPathUnits="userSpaceOnUse"><path fill="#dc1300" stroke="#000" stroke-width=".5" d="M-909.61-783.27s-8.59.78-9.89-2.36c-2.31-5.57-1.4-15.59 1.09-16.87 1.87-.96 3.6-1.31 5.91-1.63 3.4-.46 5.67 1.15 8.5 1 4.42-.22 6.83-5.7 9.62-9.12 6.46-7.9 12.77-13.66 16.63-13.75 9-.21 22.39-1.04 27.07 1.57 3.36 1.88 4.44 10.56 8.3 14.43 2.55 2.55 6.44 6.66 8.38 6.63 3.37-.06 9.02-1.22 12.13 3.5 3.53 5.36 1.16 15.68-.56 18.5-.8 1.32-6.86.53-8.2.37.42-5.6-5.35-8.04-10-7.88-4.64.17-9.34 2.8-10.07 8.04l-38.3-.66c-1.63-3.17-6.26-7.03-12.12-8.5-3.56-.89-7.79 4.1-8.49 6.73z"/></clipPath><clipPath id="a" clipPathUnits="userSpaceOnUse"><path fill="#000" fill-rule="evenodd" d="M-930.12-901.78h208.24v151.55h-208.24z"/></clipPath><filter id="b" width="2.0666667" height="2.0666667" x="-.53333334" y="-.53333334" color-interpolation-filters="sRGB"><feGaussianBlur stdDeviation="1.12"/></filter></defs><path stroke="#000" stroke-width="2" d="M5.08 5.78h336.91v337.67H5.08z"/><path stroke="#000" stroke-width="2" d="M282.73 40.55c0-8.37 6.97-15.16 15.56-15.16 4.13 0 8.09 1.6 11 4.44a14.97 14.97 0 0 1 4.56 10.72c0 8.38-6.96 15.17-15.56 15.17-8.59 0-15.56-6.8-15.56-15.17z"/><path fill="#2a2d2f" fill-rule="evenodd" stroke="#17181a" stroke-width="2" d="M53.06 77.09h241.88v193.82H53.06z"/><g clip-path="url(#a)" transform="translate(1000 1000)"><path fill="#c2f9fe" fill-rule="evenodd" d="M-871.99-901.78h150.11v145h-150.11z" clip-path="none"/><path fill="#fefefe" fill-rule="evenodd" d="M-801.0185143-911.1290311a26.82 15.69-18 0 1-20.65885912 23.20991253 26.82 15.69-18 0 1-30.35581241-6.63424095 26.82 15.69-18 0 1 20.65885913-23.20991253 26.82 15.69-18 0 1 30.3558124 6.63424095z" clip-path="none" paint-order="markers fill stroke"/><path fill="#fefefe" fill-rule="evenodd" d="M-794.24524723-896.19141828a19.799999 11.58-7 0 1-18.2411668 13.90669744 19.799999 11.58-7 0 1-21.06365088-9.08067266 19.799999 11.58-7 0 1 18.24115689-13.90669621 19.799999 11.58-7 0 1 21.0636608 9.08067143z" clip-path="none" paint-order="markers fill stroke"/><path fill="#fefefe" fill-rule="evenodd" d="M-782.35999-906.419998a22.43 13.12 0 0 1-22.43 13.119998 22.43 13.12 0 0 1-22.43-13.119998 22.43 13.12 0 0 1 22.43-13.12 22.43 13.12 0 0 1 22.43 13.12z" clip-path="none" paint-order="markers fill stroke"/><path fill="#fefefe" fill-rule="evenodd" d="M-791.15747212-901.28250238A11.87 6.9400001-49 0 1-793.7072083-887.77105a11.87 6.9400001-49 0 1-13.0251045 4.4053523 11.87 6.9400001-49 0 1 2.54973552-13.51145162 11.87 6.9400001-49 0 1 13.02510516-4.40535306z" clip-path="none" paint-order="markers fill stroke"/><path fill="#fefefe" fill-rule="evenodd" d="M-798.79659227-878.09658341a22.43 8.0200005 57 0 1-18.94239319-14.4433747 22.43 8.0200005 57 0 1-5.49011392-23.17938698 22.43 8.0200005 57 0 1 18.9423915 14.44337578 22.43 8.0200005 57 0 1 5.4901156 23.1793859z" clip-path="none" paint-order="markers fill stroke"/><path fill="#605f61" fill-rule="evenodd" stroke="#000" stroke-linecap="round" stroke-linejoin="round" stroke-width=".5" d="M-838.52-857.03999a12.81 7.21 0 0 1-12.81 7.21 12.81 7.21 0 0 1-12.81-7.21 12.81 7.21 0 0 1 12.81-7.21 12.81 7.21 0 0 1 12.81 7.21z" clip-path="none" paint-order="markers fill stroke"/><path fill="#605f61" fill-rule="evenodd" stroke="#000" stroke-linecap="round" stroke-width=".5" d="M-814.67-863.23h18.12v9.98h-18.12z" clip-path="none" paint-order="markers fill stroke"/><path stroke="#000" stroke-linecap="round" stroke-linejoin="round" stroke-width=".5" d="m-828.47-878.73-8.28 22.65m9.2-19.26-3.61-1.2m3.96 4.24-6.23-2.4m3.61 5.24-4.17-1.49" clip-path="none" paint-order="markers"/><path fill="#46566b" stroke="#000" stroke-linecap="round" stroke-width=".5" d="M-879.65-917.88-895.8-776.3l23.92-9.77-.12-129.83Z" clip-path="none"/><path fill="#657999" stroke="#000" stroke-linecap="round" stroke-width=".5" d="M-879.65-917.88v190.28c-128.46-4.74-117.24-83.55-60.32-186.61Z" clip-path="none"/><path fill="#305d63" stroke="#000" stroke-linecap="round" stroke-width=".5" d="M-914.5-894.88h24.83v32.24l-27.63 5zm24.12 77.39h-26.25v-33.93l26.25-2.07z" clip-path="none"/><path fill="#b2aead" fill-rule="evenodd" stroke="#000" stroke-linejoin="round" stroke-width=".5" d="M-776.58-892.82h81.69v115.53h-81.69z" clip-path="none"/><path fill="#636363" fill-rule="evenodd" stroke="#000" stroke-linejoin="round" stroke-width=".5" d="m-776.58-892.82-8.44 3.36v115.53l8.44-3.36z" clip-path="none"/><path fill="#305d63" fill-rule="evenodd" stroke="#000" stroke-linecap="round" stroke-width=".5" d="M-763.38-881.56h21.22v23.93h-21.22z" clip-path="none"/><path fill="#b38804" fill-rule="evenodd" stroke="#000" stroke-linecap="round" stroke-width=".5" d="M-766.48-858.79h27.43v3.7h-27.43z" clip-path="none"/><path fill="#305d63" fill-rule="evenodd" stroke="#000" stroke-linecap="round" stroke-width=".5" d="M-760.83-831.73h12.38v28.25h-12.38z" clip-path="none"/><path stroke="#000" stroke-linecap="round" stroke-width=".5" d="M-764.09-835.69h22.78v42.19h-22.78z" clip-path="none"/><path stroke="#000" stroke-linecap="round" stroke-width=".5" d="M-746.32-821.46h3.6v12.32h-3.6z" clip-path="none"/><path fill="#e2d5bb" fill-rule="evenodd" stroke="#000" stroke-linecap="round" stroke-width=".5" d="m-779.65-860.17-1.94-1.11h-91.62l-1.95 1.1" clip-path="none"/><path fill="#fadb99" fill-rule="evenodd" stroke="#000" stroke-width=".5" d="M-875.16-859.94h95.51v76.19h-95.51z" clip-path="none"/><path fill="#ff2aff" d="M-861.16-850.88q0-2.13-1.26-3.61-1.27-1.48-3.13-1.48-2.01 0-3.35 1.56-1.18 1.4-1.18 3.16 0 2.28 1.27 3.67 1.3 1.4 3.28 1.4 1.97 0 3.25-1.6 1.12-1.4 1.12-3.1zm-2.8-.2q0 .41-.11.76-.12.34-.34.6-.22.24-.52.4-.3.13-.65.13-.37 0-.7-.14-.31-.14-.54-.38-.23-.27-.37-.61-.13-.36-.13-.8 0-.81.5-1.34.54-.52 1.24-.52.72 0 1.17.55.46.57.46 1.36zm11.48 4.76v-9.47h-2.54l-1.38 1.99-1.5-2h-2.62l-.57 2.9h.57v6.58h2.59v-5.13l1.56 1.89 1.48-2.04v5.28zm9.3-5.3-.03-.57h-3.88l-.55 2.45h1.33q-.4.66-1.13.66-.8 0-1.32-.51-.53-.53-.53-1.41 0-.85.48-1.4.5-.57 1.24-.57.44 0 .98.26l.45.25 1.85-2.24-1.81-1.1-.16.17q-.57-.37-1.38-.37-1.54 0-2.83 1.3-1.44 1.44-1.44 3.54 0 2.18 1.27 3.6 1.29 1.39 3.2 1.39 1.76 0 3.02-1.52 1.26-1.53 1.26-3.56v-.18l-.01-.2zm3.3 3.91q0-.33-.12-.6-.1-.28-.3-.5-.18-.2-.45-.3-.25-.12-.54-.12-.3 0-.55.11-.25.11-.45.32-.18.2-.29.48-.1.28-.1.61 0 .43.27.8.28.37.66.5-.03.21-.09.46l-.14.54.13.13q.77-.14 1.37-.85.6-.68.6-1.58zm14.18-3.4q0-2.01-1.08-3.35-1.08-1.33-2.83-1.33h-2.96l-.57 2.82h.57v6.65h2.44q1.93 0 3.16-1.28 1.27-1.33 1.27-3.51zm-2.64.05q0 .83-.46 1.3-.45.46-1.18.46v-3.66q.77 0 1.2.52.44.5.44 1.38zm11.86.18q0-2.13-1.26-3.61t-3.12-1.48q-2.02 0-3.35 1.56-1.19 1.4-1.19 3.16 0 2.28 1.28 3.67 1.3 1.4 3.28 1.4 1.96 0 3.25-1.6 1.11-1.4 1.11-3.1zm-2.79-.2q0 .41-.12.76-.12.34-.34.6-.21.24-.52.4-.29.13-.64.13-.37 0-.7-.14-.32-.14-.55-.38-.23-.27-.36-.61-.13-.36-.13-.8 0-.81.5-1.34.54-.52 1.24-.52.72 0 1.16.55.46.57.46 1.36zm10.45 4.76v-9.47h-2.58v3.24l-1.8-3.24h-2.64l-.57 2.54h.57v6.93h2.6v-4.23l2.34 4.23zm7.73-3.37v-6.1h-2.58v5.74q0 .94-.86.94-.33 0-.56-.2-.22-.21-.22-.57v-5.91h-2.59l-.57 2.8h.57v3.48q0 1.25.74 2.2.9 1.14 2.54 1.14 1.53 0 2.49-.86 1.04-.94 1.04-2.66zm6.57-6.48h-2.35l-.08.38h-3.32l-.55 2.8h1.51l.01 6.67h2.57v-6.64h1.53zm6.23 6.77q0-1.34-.88-2.12-.47-.41-1.58-.85-.86-.34-.86-.61 0-.45.58-.45.32 0 .97.25.57.22.93.46l.74-3-2.18-.49-.09.3-.35-.04-.2-.01h-.4q-1.23 0-2 .75-.8.79-.8 2.17 0 1.36.88 2.12.5.42 1.62.84.88.34.88.67 0 .44-.55.44-.47 0-1.13-.29l-1.07-.54-.66 2.74q1.46.92 2.9.92 1.38 0 2.28-.82.97-.9.97-2.44zm3.47-.43v-5.96h-2.45l-.61 2.54h.5v3.42zm.1 2.1q0-.71-.4-1.11-.39-.42-1.04-.42-.58 0-.96.45-.38.44-.38 1.1 0 .68.4 1.11.4.42.99.42.61 0 1-.42.39-.41.39-1.12z" aria-label="OMG, DONUTS!" clip-path="none"/><path fill="#856ea1" fill-rule="evenodd" stroke="#000" stroke-width=".5" d="M-871.31-836.75h51.8v29.61h-51.8z" clip-path="none"/><path fill="#b98703" fill-rule="evenodd" stroke="#000" stroke-width=".5" d="M-871.31-815.53h51.8v8.4h-51.8z" clip-path="none"/><path fill="#fffdff" fill-rule="evenodd" stroke="#000" stroke-width=".5" d="M-866.53-816.51h30.05v9.37h-30.05z" clip-path="none"/><path fill="#ff1a00" d="M-842.84261-813.60908h-2.51367l-.24209 1.00869h2.30742l-.198.825h-2.30742l-.29313 1.22139h2.62968l-.20496.854h-3.5997l1.14005-4.75019h3.48369zm1.07521-.84111h1.04092l1.09582 3.31611.79587-3.31611h.92491l-1.14005 4.75019h-.99258l-1.13025-3.37412-.80979 3.37412h-.9249zm1.96822-.01z" aria-label="EN" clip-path="none"/><path fill="#d89933" fill-rule="evenodd" stroke="#000" stroke-width=".5" d="M-813.85-837.98h25.72v42.87h-25.72z" clip-path="none"/><path fill="#9a9899" fill-rule="evenodd" stroke="#000" stroke-width=".5" d="M-811.11-837.98h20.77v42.87h-20.77z" clip-path="none"/><path fill="#856ea1" fill-rule="evenodd" stroke="#000" stroke-width=".5" d="M-808.55-834.42h9.52v29.06h-9.52z" clip-path="none"/><path fill="#cbcbcb" fill-rule="evenodd" stroke="#000" stroke-width=".5" d="M-795.43-823.55h3.77v10.81h-3.77z" clip-path="none"/><path fill="#665a2e" stroke="#000" stroke-width=".5" d="m-817-796.44 5.89-6.28 20.77.22 3.75 5.09z" clip-path="none"/><path fill="#efecdc" fill-rule="evenodd" stroke="#000" stroke-width=".5" d="M-934.77-799.27h227.69v60.37h-227.69Z" clip-path="none"/><path fill="#b9b611" fill-rule="evenodd" stroke="#000" stroke-width=".5" d="M-934.77-789.36h227.69v60.37h-227.69Z" clip-path="none"/><path fill="#a9a22d" fill-rule="evenodd" stroke="#000" stroke-width=".5" d="M-934.77-786.45h227.69v60.37h-227.69Z" clip-path="none"/><path fill="#656565" fill-rule="evenodd" stroke="#000" stroke-width=".5" d="M-934.77-782.76h227.69v60.37h-227.69Z" clip-path="none"/><path stroke="#000" stroke-width=".5" d="m-745.73-799.27 10.98 9.88m-35.38-9.88 6.64 9.88m-35.51-9.88 3.23 9.88m-117.97-9.88-10.14 9.88" clip-path="none"/><path fill="#5a5236" stroke="#000" stroke-width=".5" d="M-801.58-782.76s1.18 10.88 4.27 10.88c10.05 0 28.57-.18 33.56-.18 4.18 0-4.69-10.7-4.69-10.7z" clip-path="none"/><path stroke="#000" stroke-width=".5" d="m-795.91-780.93 2.74 7.6m2.3-6.98 2.07 5.48m3.45-5.35 2.56 6.28m3.14-6.41 2.17 5.13m3-5.31 2.7 6.1" clip-path="none"/></g><path fill="#004000" fill-rule="evenodd" d="M279.18 260.72a2.52 2.52 0 0 1-2.52 2.52 2.52 2.52 0 0 1-2.52-2.52 2.52 2.52 0 0 1 2.52-2.52 2.52 2.52 0 0 1 2.52 2.52z" paint-order="markers fill stroke"/><path fill="red" fill-rule="evenodd" d="M288.9 260.72a2.52 2.52 0 0 1-2.52 2.52 2.52 2.52 0 0 1-2.52-2.52 2.52 2.52 0 0 1 2.52-2.52 2.52 2.52 0 0 1 2.52 2.52z" filter="url(#b)" paint-order="markers fill stroke"/><path fill="red" fill-rule="evenodd" d="M288.9 260.72a2.52 2.52 0 0 1-2.52 2.52 2.52 2.52 0 0 1-2.52-2.52 2.52 2.52 0 0 1 2.52-2.52 2.52 2.52 0 0 1 2.52 2.52z" paint-order="markers fill stroke"/><path fill="#5f5f5f" fill-rule="evenodd" stroke="#000" stroke-width="2" d="M331.63 311.25a19.129999 19.129999 0 0 1-19.13 19.13 19.129999 19.129999 0 0 1-19.13-19.13 19.129999 19.129999 0 0 1 19.13-19.13 19.129999 19.129999 0 0 1 19.13 19.13z" paint-order="markers fill stroke"/><path fill="#c9cac5" stroke="#000" stroke-width=".5" d="M88.75 216.03c-.55 1.67-3.52 2.88-12.53 2.97-.3-1-.53-2.57.53-4.69a68.3 68.3 0 0 1 8.28.16z"/><path fill="#dc1300" stroke="#000" stroke-width=".5" d="M90.39 216.73s-8.59.78-9.89-2.36c-2.31-5.57-1.4-15.59 1.09-16.87 1.87-.96 3.6-1.31 5.91-1.63 3.4-.46 5.67 1.15 8.5 1 4.42-.22 6.83-5.7 9.62-9.12 6.46-7.9 12.77-13.66 16.63-13.75 9-.21 22.39-1.04 27.07 1.57 3.36 1.88 4.44 10.56 8.3 14.43 2.55 2.55 6.44 6.66 8.38 6.63 3.37-.06 9.02-1.22 12.13 3.5 3.53 5.36 1.16 15.68-.56 18.5-.8 1.32-6.86.53-8.2.37.42-5.6-5.35-8.04-10-7.88-4.64.17-9.34 2.8-10.07 8.04l-38.3-.66c-1.63-3.17-6.26-7.03-12.12-8.5-3.56-.89-7.79 4.1-8.49 6.73z"/><g stroke="#000" stroke-width=".5" clip-path="url(#c)" transform="translate(1000 1000)"><path fill="#ff9800" d="M-815.74-794.87c-7.22.28-12.44-4.63-11 3.68.7 3.97 4.1 3.26 13.5 1.25 1.8-.38-.65-5-2.5-4.93z" clip-path="none"/><path fill="#fefefb" d="M-818.19-799.81c-7.2.33-12.04.4-11 3.69 1.09 3.43 3.53 2.26 13.5 1.25 1.84-.2-.65-5.03-2.5-4.94z" clip-path="none"/><path fill="#a09692" d="M-861-798.6c4.48.92 7.55.7 7.15-1.2-.55-2.6-1.41.88-7.16 1.2z" clip-path="none"/><path fill="#000669" d="M-893.44-806.56c.76-5.47 3.8-11 12.69-16.63l12.13-.06-8.32 16.63zm40.44.25.75-16.56-13.44.12-7.5 16.13z" clip-path="none"/><path fill="#000669" fill-rule="evenodd" d="M-849.87-829h17.44v23.06h-17.44z" clip-path="none"/></g><path fill="#000" fill-rule="evenodd" d="M102.1418 221.54876a4.02 7.5599999 27 0 1-7.014 4.91097 4.02 7.5599999 27 0 1-.1497-8.56105 4.02 7.5599999 27 0 1 7.014-4.91097 4.02 7.5599999 27 0 1 .1497 8.56105zm58.6015.98154a4.02 7.5599999 27 0 1-7.014 4.91096 4.02 7.5599999 27 0 1-.1497-8.56105 4.02 7.5599999 27 0 1 7.0141-4.91096 4.02 7.5599999 27 0 1 .1496 8.56105z" paint-order="markers fill stroke"/><path fill="#fff" fill-rule="evenodd" d="M99.1 219.87a.86000001.86000001 0 0 1-.86.86.86000001.86000001 0 0 1-.86-.86.86000001.86000001 0 0 1 .86-.86.86000001.86000001 0 0 1 .86.86zm58.61 1.05999a.86000001.86000001 0 0 1-.86.86.86000001.86000001 0 0 1-.86-.86.86000001.86000001 0 0 1 .86-.86.86000001.86000001 0 0 1 .86.86z" paint-order="markers fill stroke"/><path stroke="#000" stroke-width=".5" d="m84.02 196.54-5.88-28.87m12.25 49.06s-8.59.78-9.89-2.36c-2.31-5.57-1.4-15.59 1.09-16.87 1.87-.96 3.6-1.31 5.91-1.63 3.4-.46 5.67 1.15 8.5 1 4.42-.22 6.83-5.7 9.62-9.12 6.46-7.9 12.77-13.66 16.63-13.75 9-.21 22.39-1.04 27.07 1.57 3.36 1.88 4.44 10.56 8.3 14.43 2.55 2.55 6.44 6.66 8.38 6.63 3.37-.06 9.02-1.22 12.13 3.5 3.53 5.36 1.16 15.68-.56 18.5-.8 1.32-6.86.53-8.2.37.42-5.6-5.35-8.04-10-7.88-4.64.17-9.34 2.8-10.07 8.04l-38.3-.66c-1.63-3.17-6.26-7.03-12.12-8.5-3.56-.89-7.79 4.1-8.49 6.73z"/><path fill="#d24144" fill-rule="evenodd" d="M327.88 311.25a15.38 15.38 0 0 1-15.38 15.38 15.38 15.38 0 0 1-15.38-15.38 15.38 15.38 0 0 1 15.38-15.38 15.38 15.38 0 0 1 15.38 15.38z" paint-order="markers fill stroke"/><path fill="#000" fill-rule="evenodd" d="M69.88 98.22h208.24v151.55H69.88Z" opacity=".35"/><path fill="#fff" d="m203.22 174-51.44 29.7v-59.4z" paint-order="markers"/></svg>