<svg xmlns="http://www.w3.org/2000/svg" fill="none" font-family="Arial" viewBox="0 0 348 348"><path stroke="#000" stroke-width="2" d="M5 5.8h337v337.6H5z"/><path stroke="#000" stroke-width="2" d="M282.7 40.6c0-8.4 7-15.2 15.6-15.2 4.1 0 8 1.6 11 4.4a15 15 0 014.6 10.8c0 8.3-7 15.1-15.6 15.1s-15.6-6.8-15.6-15.1z"/><path fill="#000" d="M16.4 55.3V22H261v66.7H16.4V55.3z"/><ellipse cx="309.5" cy="109.3" fill="#fff" stroke="#000" stroke-width="1.1" rx="24.9" ry="22.8"/><ellipse cx="308.5" cy="208.1" fill="#fff" stroke="#000" stroke-width="1.1" rx="24.9" ry="22.8"/><ellipse cx="307.9" cy="305.9" fill="#fff" stroke="#000" stroke-width="1.1" rx="24.9" ry="22.8"/><path fill="#000" d="M88.4 109V93.9h100.5V124H88.4v-15z"/><path stroke="#000" stroke-width="1.2" d="M14.6 241.7h58.8v42.1H14.6zm197.5 0h58.8v42.1h-58.8zm-65.6 0h58.8v42.1h-58.8zm-65.6 0h58.8v42.1H80.9zm-66.3-54h58.8v42.1H14.6zm197.5 0h58.8v42.1h-58.8zm-65.6 0h58.8v42.1h-58.8zm-65.6 0h58.8v42.1H80.9zm-66.3-54.1h58.8v42.1H14.6zm197.5 0h58.8v42.1h-58.8zm-65.6 0h58.8v42.1h-58.8zm-65.6 0h58.8v42.1H80.9z"/><path stroke="#000" stroke-width="1.7" d="M14.9 293.6h123.9v41.6H14.9zm131.9 0h123.9v41.6H146.8z"/><path fill="#000" d="M44.877 164.2H42.24v-16.802q-.952.908-2.505 1.817-1.538.908-2.768 1.362v-2.549q2.212-1.04 3.867-2.52 1.655-1.479 2.344-2.87h1.699z" aria-label="1" font-size="30"/><path fill="#000" d="M166.96 158.531l2.636-.352q.455 2.242 1.539 3.238 1.098.981 2.666.981 1.86 0 3.134-1.289 1.29-1.289 1.29-3.193 0-1.817-1.187-2.988-1.187-1.187-3.018-1.187-.747 0-1.86.293l.293-2.314q.264.029.425.029 1.684 0 3.032-.88 1.348-.878 1.348-2.709 0-1.45-.982-2.402-.981-.953-2.534-.953-1.538 0-2.563.967-1.026.967-1.319 2.9l-2.637-.468q.484-2.651 2.198-4.102 1.714-1.465 4.262-1.465 1.758 0 3.238.762 1.48.747 2.256 2.051.79 1.304.79 2.769 0 1.391-.747 2.534-.747 1.142-2.211 1.816 1.904.44 2.959 1.831 1.054 1.377 1.054 3.457 0 2.813-2.05 4.776-2.051 1.948-5.186 1.948-2.827 0-4.702-1.685-1.86-1.684-2.124-4.365z" aria-label="3" font-size="30"/><path fill="#000" d="M118.803 161.666v2.534h-14.195q-.03-.952.308-1.831.542-1.45 1.728-2.857 1.201-1.406 3.457-3.251 3.501-2.872 4.732-4.541 1.23-1.685 1.23-3.18 0-1.567-1.128-2.636-1.113-1.084-2.915-1.084-1.904 0-3.047 1.143-1.142 1.142-1.157 3.164l-2.71-.279q.279-3.032 2.095-4.614 1.816-1.596 4.878-1.596 3.09 0 4.892 1.713 1.802 1.714 1.802 4.248 0 1.29-.527 2.535t-1.758 2.622q-1.216 1.377-4.058 3.779-2.373 1.992-3.046 2.71-.674.703-1.114 1.42z" aria-label="2" font-size="30"/><path fill="#000" d="M229.215 160.728v-5.888h-5.845v-2.461h5.845v-5.845h2.49v5.845h5.845v2.46h-5.845v5.89zm10.005 3.838l6.225-22.207h2.11l-6.211 22.207zm9.272-6.811v-2.652h8.1v2.652z" aria-label="+/-" font-size="30"/><path fill="#000" d="M45.397 218.2v-5.142h-9.316v-2.417l9.8-13.916h2.153v13.916h2.9v2.417h-2.9v5.142zm0-7.559v-9.682l-6.723 9.682z" aria-label="4" font-size="30"/><path fill="#000" d="M184.627 201.984l-2.622.205q-.352-1.552-.996-2.256-1.07-1.128-2.637-1.128-1.26 0-2.212.704-1.245.908-1.963 2.651-.718 1.743-.747 4.966.952-1.45 2.33-2.154 1.376-.703 2.885-.703 2.637 0 4.482 1.949 1.86 1.933 1.86 5.01 0 2.02-.878 3.764-.865 1.729-2.388 2.651-1.523.923-3.457.923-3.296 0-5.376-2.417-2.08-2.431-2.08-7.998 0-6.225 2.3-9.053 2.007-2.46 5.405-2.46 2.534 0 4.146 1.42 1.625 1.421 1.948 3.926zm-10.767 9.258q0 1.362.571 2.607.586 1.246 1.626 1.905 1.04.644 2.183.644 1.67 0 2.871-1.347 1.201-1.348 1.201-3.663 0-2.226-1.186-3.5-1.187-1.29-2.989-1.29-1.787 0-3.032 1.29-1.245 1.274-1.245 3.354z" aria-label="6" font-size="30"/><path fill="#000" d="M104.945 212.575l2.769-.234q.307 2.021 1.42 3.046 1.128 1.011 2.71 1.011 1.905 0 3.223-1.435 1.319-1.436 1.319-3.809 0-2.256-1.275-3.56-1.26-1.303-3.31-1.303-1.275 0-2.3.586-1.026.571-1.612 1.494l-2.475-.322 2.08-11.03h10.679v2.519h-8.57l-1.157 5.771q1.934-1.347 4.058-1.347 2.812 0 4.746 1.948 1.933 1.948 1.933 5.01 0 2.915-1.699 5.039-2.065 2.607-5.64 2.607-2.93 0-4.79-1.64-1.845-1.641-2.109-4.351z" aria-label="5" font-size="30"/><path fill="#000" d="M236.425 218.2v-3.003h3.003v3.003z" aria-label="." font-size="30"/><path fill="#000" d="M37.12 253.538v-2.534h13.902v2.05q-2.05 2.183-4.072 5.801-2.007 3.618-3.105 7.442-.791 2.695-1.011 5.903h-2.71q.044-2.534.996-6.123.952-3.589 2.725-6.914 1.787-3.34 3.793-5.625z" aria-label="7" font-size="30"/><path fill="#000" d="M169.34 267.234l2.535-.234q.322 1.787 1.23 2.593.908.805 2.33.805 1.215 0 2.123-.556.923-.557 1.51-1.48.585-.937.98-2.52.396-1.581.396-3.222 0-.176-.015-.527-.79 1.26-2.168 2.05-1.362.777-2.959.777-2.666 0-4.511-1.934-1.846-1.933-1.846-5.098 0-3.266 1.919-5.258 1.934-1.992 4.834-1.992 2.095 0 3.823 1.127 1.743 1.128 2.637 3.223.908 2.08.908 6.035 0 4.116-.893 6.563-.894 2.431-2.666 3.706-1.758 1.274-4.131 1.274-2.52 0-4.116-1.391-1.597-1.407-1.92-3.94zm10.797-9.477q0-2.27-1.216-3.604-1.201-1.333-2.9-1.333-1.758 0-3.062 1.436-1.304 1.435-1.304 3.72 0 2.051 1.23 3.34 1.246 1.275 3.062 1.275 1.831 0 3.003-1.275 1.187-1.289 1.187-3.56z" aria-label="9" font-size="30"/><path fill="#000" d="M109.003 260.555q-1.64-.601-2.432-1.714-.79-1.114-.79-2.666 0-2.344 1.684-3.94 1.684-1.597 4.482-1.597 2.813 0 4.526 1.64 1.714 1.626 1.714 3.97 0 1.494-.79 2.607-.777 1.099-2.374 1.7 1.978.644 3.003 2.08 1.04 1.435 1.04 3.427 0 2.754-1.948 4.63-1.948 1.874-5.127 1.874t-5.127-1.875q-1.948-1.89-1.948-4.702 0-2.095 1.055-3.5 1.069-1.422 3.032-1.935zm-.528-4.468q0 1.523.982 2.49.981.967 2.549.967 1.523 0 2.49-.952.981-.967.981-2.359 0-1.45-1.01-2.431-.996-.997-2.49-.997-1.51 0-2.506.967-.996.967-.996 2.315zm-.85 9.917q0 1.128.528 2.182.542 1.055 1.597 1.641 1.054.571 2.27.571 1.89 0 3.12-1.216 1.23-1.215 1.23-3.09 0-1.905-1.274-3.15-1.26-1.245-3.164-1.245-1.86 0-3.09 1.23-1.216 1.231-1.216 3.077z" aria-label="8" font-size="30"/><path fill="#000" d="M236.945 261.61q0-3.81.776-6.124.791-2.329 2.33-3.589 1.552-1.26 3.896-1.26 1.729 0 3.032.704 1.304.688 2.154 2.006.85 1.304 1.333 3.194.483 1.875.483 5.068 0 3.78-.776 6.109-.777 2.314-2.33 3.588-1.538 1.26-3.896 1.26-3.105 0-4.878-2.226-2.124-2.681-2.124-8.73zm2.71 0q0 5.287 1.23 7.045 1.246 1.743 3.062 1.743 1.816 0 3.047-1.758 1.245-1.757 1.245-7.03 0-5.304-1.245-7.047-1.23-1.743-3.076-1.743-1.817 0-2.9 1.538-1.363 1.963-1.363 7.251z" aria-label="0" font-size="30"/><path fill="#000" d="M164.548 317.7l2.68-.234q.19 1.612.88 2.652.702 1.025 2.167 1.67 1.465.63 3.296.63 1.626 0 2.871-.484 1.245-.483 1.846-1.318.615-.85.615-1.846 0-1.01-.586-1.758-.586-.762-1.933-1.274-.865-.337-3.824-1.04-2.959-.718-4.145-1.348-1.538-.806-2.3-1.992-.747-1.201-.747-2.68 0-1.627.923-3.033.923-1.421 2.695-2.153 1.773-.733 3.94-.733 2.388 0 4.205.777 1.83.761 2.812 2.255.982 1.495 1.055 3.384l-2.725.205q-.22-2.036-1.494-3.076-1.26-1.04-3.735-1.04-2.578 0-3.765.952-1.172.938-1.172 2.27 0 1.158.835 1.905.82.747 4.278 1.538 3.471.776 4.76 1.362 1.875.865 2.769 2.198.893 1.318.893 3.047 0 1.713-.981 3.237-.982 1.509-2.827 2.358-1.831.835-4.131.835-2.915 0-4.893-.85-1.963-.849-3.09-2.548-1.114-1.714-1.172-3.867zm30.864 6.9v-2.285q-1.817 2.637-4.937 2.637-1.377 0-2.578-.528-1.186-.527-1.772-1.318-.571-.806-.806-1.963-.161-.776-.161-2.461v-9.639h2.637v8.628q0 2.066.16 2.783.25 1.04 1.056 1.641.805.586 1.992.586 1.186 0 2.226-.6 1.04-.616 1.465-1.656.44-1.054.44-3.047v-8.335h2.636V324.6zm8.935 0h-2.446v-21.475h2.637v7.662q1.67-2.095 4.263-2.095 1.435 0 2.71.586 1.289.571 2.109 1.626.835 1.04 1.304 2.52.468 1.479.468 3.163 0 4-1.977 6.182-1.978 2.183-4.746 2.183-2.754 0-4.322-2.3zm-.029-7.896q0 2.798.762 4.043 1.245 2.037 3.369 2.037 1.729 0 2.988-1.495 1.26-1.508 1.26-4.482 0-3.047-1.216-4.497-1.2-1.45-2.915-1.45-1.728 0-2.988 1.509-1.26 1.494-1.26 4.335zm14.297 7.896v-15.557h2.358v2.183q.733-1.143 1.949-1.831 1.216-.703 2.768-.703 1.729 0 2.827.718 1.114.717 1.568 2.006 1.845-2.724 4.804-2.724 2.315 0 3.56 1.289 1.245 1.274 1.245 3.94V324.6h-2.622v-9.8q0-1.582-.264-2.27-.249-.703-.922-1.128-.674-.425-1.582-.425-1.641 0-2.725 1.099-1.084 1.084-1.084 3.486v9.038h-2.637v-10.107q0-1.758-.644-2.637-.645-.879-2.11-.879-1.113 0-2.065.586-.938.586-1.362 1.714-.425 1.128-.425 3.252v8.071zm25.035-18.442v-3.033h2.636v3.033zm0 18.442v-15.557h2.636V324.6zm12.421-2.358l.381 2.329q-1.113.234-1.992.234-1.436 0-2.227-.454-.79-.454-1.113-1.187-.322-.747-.322-3.12v-8.95h-1.934v-2.05h1.934v-3.853l2.622-1.582v5.434h2.651v2.051h-2.651v9.097q0 1.128.132 1.45.146.322.454.513.322.19.908.19.44 0 1.157-.102z" aria-label="Submit" font-size="30"/><path fill="#000" d="M61.437 316.27l2.842.718q-.894 3.501-3.223 5.347-2.315 1.831-5.67 1.831-3.47 0-5.653-1.406-2.168-1.421-3.31-4.102-1.129-2.68-1.129-5.756 0-3.355 1.275-5.845 1.289-2.505 3.647-3.794 2.373-1.304 5.215-1.304 3.223 0 5.42 1.64 2.197 1.641 3.061 4.615l-2.798.66q-.747-2.345-2.168-3.414-1.42-1.07-3.574-1.07-2.475 0-4.145 1.187-1.656 1.187-2.33 3.194-.673 1.992-.673 4.116 0 2.74.79 4.79.807 2.036 2.491 3.047 1.685 1.01 3.648 1.01 2.387 0 4.043-1.376 1.655-1.377 2.24-4.087zm5.962 7.53v-21.475h2.636V323.8zm17.387-5.01l2.725.337q-.645 2.388-2.388 3.706-1.743 1.319-4.453 1.319-3.413 0-5.42-2.095-1.992-2.11-1.992-5.904 0-3.925 2.021-6.093 2.022-2.168 5.245-2.168 3.12 0 5.097 2.124 1.978 2.124 1.978 5.976 0 .235-.015.703H75.983q.146 2.564 1.45 3.926 1.304 1.363 3.252 1.363 1.45 0 2.475-.762 1.026-.762 1.626-2.432zm-8.657-4.262h8.687q-.176-1.963-.996-2.945-1.26-1.523-3.267-1.523-1.816 0-3.062 1.216-1.23 1.215-1.362 3.252zm24.858 7.353q-1.464 1.245-2.827 1.758-1.347.513-2.9.513-2.564 0-3.94-1.246-1.377-1.26-1.377-3.208 0-1.142.512-2.08.528-.952 1.363-1.523.85-.571 1.904-.864.776-.205 2.344-.396 3.193-.38 4.702-.908.014-.542.014-.689 0-1.61-.747-2.27-1.01-.894-3.003-.894-1.86 0-2.753.66-.88.644-1.304 2.3l-2.578-.352q.351-1.655 1.157-2.666.806-1.026 2.33-1.568 1.522-.556 3.53-.556 1.992 0 3.237.469 1.245.468 1.83 1.186.587.703.821 1.787.132.674.132 2.432v3.515q0 3.677.161 4.659.176.966.674 1.86h-2.754q-.41-.82-.527-1.919zm-.22-5.889q-1.435.586-4.306.996-1.626.235-2.3.528-.674.293-1.04.864-.366.557-.366 1.245 0 1.055.791 1.758.806.703 2.344.703 1.523 0 2.71-.66 1.186-.673 1.743-1.83.425-.894.425-2.637zm6.739 7.808v-15.557h2.373v2.359q.908-1.656 1.67-2.183.776-.527 1.7-.527 1.332 0 2.71.85l-.909 2.446q-.967-.572-1.934-.572-.864 0-1.552.528-.689.512-.982 1.435-.44 1.407-.44 3.076v8.145z" aria-label="Clear" font-size="30"/><g aria-label="&lt;EQUATION&gt;"><g fill="#fff" aria-label="[等式]" font-family="sans-serif" font-size="40" font-weight="400" style="line-height:1.25"><path d="M74.595 34.638H84.77v3.432h-5.76v36.96h5.76v3.432H74.595zM92.235 42.99q4.416-4.032 6.912-10.752l4.032 1.152q.768.768-.576.96l-1.152 2.496h12.289v3.072h-6.72l2.111 3.648-4.224.768-1.92-4.416h-2.88q-1.92 3.072-4.992 5.952zm20.929-1.728q2.688-4.032 4.032-9.216l4.032.768q.768.768-.576.96l-1.152 3.072h15.552v3.072h-9.024l2.496 3.264-4.224 1.152-2.496-4.416h-3.456q-.768 1.728-1.92 3.264zm-4.033 30.912q-1.728-2.496-4.992-5.376l2.496-2.304H95.691v-3.648h25.345v-3.264H93.003v-3.648h19.2v-3.84H98.572v-3.648h13.633v-3.072h3.648q1.536.192.192 1.152v1.92h14.208v3.648h-14.208v3.84h19.392v3.648h-10.56v3.264h8.256v3.648h-8.256v8.448q0 3.072-3.072 3.072h-4.608l-.768-3.648h3.84q.768 0 .768-.768v-7.104h-13.249q2.88 1.92 4.8 4.8zM174.413 64.878q2.496 4.608 4.416 4.608.768 0 .96-1.152l.384-3.264 4.224 1.92-.768 4.608q-.576 3.264-3.456 3.264-5.76 0-9.792-7.872-3.84-7.488-4.032-21.12h-23.617v-4.224h23.425v-8.832h4.224q1.92.384.192 1.536v7.296h13.44v4.224h-13.44q.768 13.44 3.84 19.008zm-7.488 3.456q-10.753 2.304-21.697 4.224-.384 1.728-1.344.384l-.96-4.8q4.8-.384 9.408-1.152V56.046h-7.68v-3.648h19.008v3.648h-7.488v10.368q4.416-.576 10.177-1.728zm8.832-34.56q2.688 1.344 5.184 3.648l-3.456 2.88q-1.92-1.92-4.992-3.648zM202.805 34.638v43.824H192.63V75.03h5.736V38.07h-5.736v-3.432z"/></g></g></svg>