<svg xmlns="http://www.w3.org/2000/svg" viewBox="0 0 348 348" fill="none"><path d="M5.079 5.776h336.913v337.67H5.08z" stroke-width="2" stroke="#000"/><path d="M282.734 40.554c0-8.376 6.966-15.165 15.56-15.165 4.126 0 8.084 1.597 11.001 4.441 2.918 2.844 4.558 6.702 4.558 10.724 0 8.376-6.966 15.165-15.56 15.165-8.593 0-15.559-6.79-15.559-15.165z" stroke-width="2" stroke="#000"/><path opacity=".99" fill="#000" d="M21.079 21.776h247.135V70.66H21.079zM65.864 104.255h215.343v215.343H65.864z"/><path opacity=".99" stroke="#000" stroke-width="2.305" stroke-linecap="round" d="M71.83 85.097h203.411v15.647H71.83zM300.364 110.22v203.411h-15.647V110.22zM275.241 338.754H71.83v-15.647h203.411zM46.707 313.631V110.22h15.647v203.411z"/><g fill="#fff"><path d="M120.262 136.865a21.726 21.726 0 0 1-20.26 21.737A21.726 21.726 0 0 1 77 139.792a21.726 21.726 0 0 1 17.283-24.172 21.726 21.726 0 0 1 25.24 15.683M170.262 136.865a21.726 21.726 0 0 1-20.26 21.737A21.726 21.726 0 0 1 127 139.792a21.726 21.726 0 0 1 17.283-24.172 21.726 21.726 0 0 1 25.24 15.683M220.262 136.865a21.726 21.726 0 0 1-20.26 21.737A21.726 21.726 0 0 1 177 139.792a21.726 21.726 0 0 1 17.283-24.172 21.726 21.726 0 0 1 25.24 15.683M270.262 136.865a21.726 21.726 0 0 1-20.26 21.737A21.726 21.726 0 0 1 227 139.792a21.726 21.726 0 0 1 17.283-24.172 21.726 21.726 0 0 1 25.24 15.683" opacity=".99"/><g><path d="M120.262 186.865a21.726 21.726 0 0 1-20.26 21.737A21.726 21.726 0 0 1 77 189.792a21.726 21.726 0 0 1 17.283-24.172 21.726 21.726 0 0 1 25.24 15.683M170.262 186.865a21.726 21.726 0 0 1-20.26 21.737A21.726 21.726 0 0 1 127 189.792a21.726 21.726 0 0 1 17.283-24.172 21.726 21.726 0 0 1 25.24 15.683M220.262 186.865a21.726 21.726 0 0 1-20.26 21.737A21.726 21.726 0 0 1 177 189.792a21.726 21.726 0 0 1 17.283-24.172 21.726 21.726 0 0 1 25.24 15.683M270.262 186.865a21.726 21.726 0 0 1-20.26 21.737A21.726 21.726 0 0 1 227 189.792a21.726 21.726 0 0 1 17.283-24.172 21.726 21.726 0 0 1 25.24 15.683" opacity=".99"/></g><g><path d="M120.262 236.865a21.726 21.726 0 0 1-20.26 21.737A21.726 21.726 0 0 1 77 239.792a21.726 21.726 0 0 1 17.283-24.172 21.726 21.726 0 0 1 25.24 15.683M170.262 236.865a21.726 21.726 0 0 1-20.26 21.737A21.726 21.726 0 0 1 127 239.792a21.726 21.726 0 0 1 17.283-24.172 21.726 21.726 0 0 1 25.24 15.683M220.262 236.865a21.726 21.726 0 0 1-20.26 21.737A21.726 21.726 0 0 1 177 239.792a21.726 21.726 0 0 1 17.283-24.172 21.726 21.726 0 0 1 25.24 15.683M270.262 236.865a21.726 21.726 0 0 1-20.26 21.737A21.726 21.726 0 0 1 227 239.792a21.726 21.726 0 0 1 17.283-24.172 21.726 21.726 0 0 1 25.24 15.683" opacity=".99"/></g><g><path d="M120.262 286.865a21.726 21.726 0 0 1-20.26 21.737A21.726 21.726 0 0 1 77 289.792a21.726 21.726 0 0 1 17.283-24.172 21.726 21.726 0 0 1 25.24 15.683M170.262 286.865a21.726 21.726 0 0 1-20.26 21.737A21.726 21.726 0 0 1 127 289.792a21.726 21.726 0 0 1 17.283-24.172 21.726 21.726 0 0 1 25.24 15.683M220.262 286.865a21.726 21.726 0 0 1-20.26 21.737A21.726 21.726 0 0 1 177 289.792a21.726 21.726 0 0 1 17.283-24.172 21.726 21.726 0 0 1 25.24 15.683M270.262 286.865a21.726 21.726 0 0 1-20.26 21.737A21.726 21.726 0 0 1 227 289.792a21.726 21.726 0 0 1 17.283-24.172 21.726 21.726 0 0 1 25.24 15.683" opacity=".99"/></g></g></svg>