<svg xmlns="http://www.w3.org/2000/svg" viewBox="0 0 348 348" fill="none"><path d="M5.08 5.78h336.91v337.67H5.08z" stroke-width="2" stroke="#000"/><path d="M282.73 40.55c0-8.37 6.97-15.16 15.56-15.16 4.13 0 8.09 1.6 11 4.44a14.97 14.97 0 014.56 10.72c0 8.38-6.96 15.17-15.56 15.17-8.59 0-15.56-6.8-15.56-15.17z" stroke-width="2" stroke="#000"/><path stroke="#000" stroke-width="2" fill="#000" d="M35 70h130v50H35zM35 130h130v50H35zM35 190h130v50H35zM35 250h130v50H35zM183 70h130v50H183zM183 130h130v50H183zM183 190h130v50H183zM183 250h130v50H183z"/></svg>