<svg xmlns="http://www.w3.org/2000/svg" version="1.0" width="618.667" height="617.333" viewBox="0 0 464 463"><path d="M1 231.5V463h463V0H1v231.5zm457 0V457H7V6h451v225.5z"/><path d="M414 16.9c-7.1 2.3-12.2 6.6-15.6 13.1-2.7 5.1-2.5 16.2.3 21.5 6.3 11.8 20.1 16.6 31.8 11.1 23.1-10.9 16.9-44.5-8.4-46.2-3.1-.2-6.7 0-8.1.5zm15 4.2c2.4 1.1 5.3 2.8 6.4 3.7 3 2.6 6.6 11.3 6.6 15.7 0 4.2-2.9 11.6-5.8 14.9-2.6 2.9-11.3 6.6-15.7 6.6-4.4 0-13.1-3.7-15.7-6.6-1-1.1-2.7-4.2-3.9-6.8-4.4-10-.1-21.5 10-26.8 6.4-3.4 11.8-3.6 18.1-.7zM25 49.5V82h274V17H25v32.5zm271 0V79H28V20h268v29.5zM126 165v27h54v-54h-54v27zm46 0v19h-38v-38h38v19zM311.5 142.7c-7 1.6-11.7 3.8-14 6.4l-2.5 3.1v48.6l3.1 3.1c5.9 6 7.5 6.1 68.4 6.1 60.9 0 62.5-.1 68.4-6.1l3.1-3.1v-48.6l-2.5-3c-1.4-1.7-4.7-3.8-7.3-4.8-4.3-1.7-9.2-1.9-59.7-2-30.2-.1-55.9 0-57 .3zm111.4 3.4c2.8.6 6.5 2 8.3 3.3l3.3 2.2.3 23.9c.2 23.2.2 23.9-1.9 26.1-4.9 5.2-6.8 5.4-66.4 5.4-59.6 0-61.5-.2-66.4-5.4-2.1-2.2-2.1-2.9-1.9-26.1l.3-23.8 2.7-2c5.7-4.3 9.6-4.6 64.5-4.6 33.7-.1 54 .3 57.2 1zM311.5 222.7c-7 1.6-11.7 3.8-14 6.4l-2.5 3.1v51.6l3.1 3.1c5.9 6 7.5 6.1 68.4 6.1 60.9 0 62.5-.1 68.4-6.1l3.1-3.1v-51.6l-2.5-3c-1.4-1.7-4.7-3.8-7.3-4.8-4.3-1.7-9.2-1.9-59.7-2-30.2-.1-55.9 0-57 .3zm111.4 3.4c2.8.6 6.5 2 8.3 3.3l3.3 2.2.3 25.4c.2 24.7.2 25.4-1.9 27.6-4.9 5.2-6.8 5.4-66.4 5.4-59.6 0-61.5-.2-66.4-5.4-2.1-2.2-2.1-2.9-1.9-27.6l.3-25.3 2.7-2c5.7-4.3 9.6-4.6 64.5-4.6 33.7-.1 54 .3 57.2 1zM59 307v27h54v-54H59v27zm45 0v19H66v-38h38v19z"/><path d="M76 290.5c0 .8-.7 1.5-1.5 1.5s-1.5.7-1.5 1.5-.7 1.5-1.5 1.5-1.5.7-1.5 1.5-.7 1.5-1.5 1.5c-1.2 0-1.5 1.7-1.5 9s.3 9 1.5 9c.8 0 1.5.7 1.5 1.5s.7 1.5 1.5 1.5 1.5.7 1.5 1.5.7 1.5 1.5 1.5 1.5.7 1.5 1.5c0 1.2 1.7 1.5 9 1.5s9-.3 9-1.5c0-.8.7-1.5 1.5-1.5s1.5-.7 1.5-1.5.7-1.5 1.5-1.5 1.5-.7 1.5-1.5.7-1.5 1.5-1.5c1.2 0 1.5-1.7 1.5-9s-.3-9-1.5-9c-.8 0-1.5-.7-1.5-1.5s-.7-1.5-1.5-1.5-1.5-.7-1.5-1.5-.7-1.5-1.5-1.5-1.5-.7-1.5-1.5c0-1.2-1.7-1.5-9-1.5s-9 .3-9 1.5zm15 6c0 .8-.7 1.5-1.5 1.5s-1.5.7-1.5 1.5-.7 1.5-1.5 1.5-1.5.7-1.5 1.5-.7 1.5-1.5 1.5-1.5.7-1.5 1.5-.7 1.5-1.5 1.5-1.5.7-1.5 1.5-.7 1.5-1.5 1.5-1.5.7-1.5 1.5-.7 1.5-1.5 1.5c-1.2 0-1.5-1.5-1.5-7.5s.3-7.5 1.5-7.5c.8 0 1.5-.7 1.5-1.5 0-1.2 1.5-1.5 7.5-1.5s7.5.3 7.5 1.5zm6 12c0 6-.3 7.5-1.5 7.5-.8 0-1.5.7-1.5 1.5 0 1.2-1.5 1.5-7.5 1.5s-7.5-.3-7.5-1.5c0-.8.7-1.5 1.5-1.5s1.5-.7 1.5-1.5.7-1.5 1.5-1.5 1.5-.7 1.5-1.5.7-1.5 1.5-1.5 1.5-.7 1.5-1.5.7-1.5 1.5-1.5 1.5-.7 1.5-1.5.7-1.5 1.5-1.5 1.5-.7 1.5-1.5.7-1.5 1.5-1.5c1.2 0 1.5 1.5 1.5 7.5zM193 307v27h54v-54h-54v27zm45 0v19h-38v-38h38v19z"/><path d="M216 296.5v7.5h-15v6h15v15h6v-15h15v-6h-15v-15h-6v7.5zM311.5 305.7c-7 1.6-11.7 3.8-14 6.4l-2.5 3.1v48.6l3.1 3.1c5.9 6 7.5 6.1 68.4 6.1 60.9 0 62.5-.1 68.4-6.1l3.1-3.1v-48.6l-2.5-3c-1.4-1.7-4.7-3.8-7.3-4.8-4.3-1.7-9.2-1.9-59.7-2-30.2-.1-55.9 0-57 .3zm111.4 3.4c2.8.6 6.5 2 8.3 3.3l3.3 2.2.3 23.9c.2 23.2.2 23.9-1.9 26.1-4.9 5.2-6.8 5.4-66.4 5.4-59.6 0-61.5-.2-66.4-5.4-2.1-2.2-2.1-2.9-1.9-26.1l.3-23.8 2.7-2c5.7-4.3 9.6-4.6 64.5-4.6 33.7-.1 54 .3 57.2 1zM331.3 395.3c-10.6 7.8-19.2 14.6-19.2 15.2 0 1.2 38.3 29.5 39.9 29.5 1.8 0 1.1-1.6-6.7-15.2-4.2-7.3-7.6-13.8-7.6-14.3 0-.6 3.4-7 7.6-14.3 4.3-7.4 7.7-13.8 7.7-14.3 0-2.2-3.6.1-21.7 13.4zm13.8-4.5c-.5.9-3.2 5.7-6 10.5-2.8 4.9-5.1 9-5.1 9.2 0 .2 2.3 4.3 5.1 9.2 8 13.8 7.7 13 4.5 11-4.3-2.9-26.2-19.1-26.6-19.9-.4-.6 27.5-21.8 28.7-21.8.2 0-.1.8-.6 1.8zM380 381.9c0 .5 3.4 6.9 7.7 14.3 4.2 7.3 7.6 13.7 7.6 14.3 0 .5-3.4 7-7.6 14.3-7.8 13.6-8.5 15.2-6.7 15.2 1.6 0 39.9-28.3 39.9-29.5 0-1.2-38.3-29.5-39.9-29.5-.5 0-1 .4-1 .9zm23.8 18.9c6.5 4.8 11.8 9.1 11.8 9.7 0 .9-18.6 15.2-26.2 20.2-3.2 2-3.5 2.8 4.5-11 2.8-4.9 5.1-9 5.1-9.2 0-.2-2.3-4.3-5.1-9.2-8-13.8-7.7-13-4.5-11 1.5 1 8 5.7 14.4 10.5zM104.8 416.1c-4.3 2.2-7.8 8.1-7.8 13.1.1 7.4 7.4 14.8 14.8 14.8 15.2 0 20.7-20.2 7.6-27.7-4.8-2.8-9.7-2.8-14.6-.2zm15.4 4.6c5.7 5.8 4.3 15.4-2.9 18.8-4.8 2.3-9.9 1.4-13.8-2.5-5.6-5.6-3.5-15.8 4-19.1 3.6-1.6 9.6-.3 12.7 2.8zM145.8 416.1c-4.3 2.2-7.8 8.1-7.8 13.1.1 7.5 7.4 14.8 15 14.8s14.9-7.3 15-14.8c0-5.1-3.5-10.9-8-13.2-4.9-2.5-9.4-2.5-14.2.1zm15.6 4.8c2.6 2.7 3.1 3.9 3.1 8.1 0 4.3-.5 5.4-3.3 8.2-4.7 4.8-11.7 4.8-16.4 0-2.8-2.8-3.3-3.9-3.3-8.1 0-5.2 2.5-9.2 7-11.2 3.7-1.6 9.6-.3 12.9 3zM186.6 416.3c-10.2 5.8-9.8 21.1.8 26.1 9.7 4.6 21.5-2.6 21.6-13.2 0-5.1-3.5-10.9-8-13.2-5.1-2.6-9.5-2.5-14.4.3zm15.8 4.6c2.6 2.7 3.1 3.9 3.1 8.1 0 4.2-.5 5.4-3 8-8.3 8.2-22 1.6-20.1-9.8.6-3.7 3.7-7.8 7.1-9.3 3.7-1.6 9.6-.3 12.9 3z"/><path d="M212.156 64.305l1.7-8.32h-3.301v-2.91h3.886l1.446-7.09h-5.332v-2.91h5.918l1.699-8.38h2.93l-1.7 8.38h6.153l1.699-8.38h2.95l-1.7 8.38h3.379v2.91h-3.965l-1.465 7.09h5.43v2.91h-6.016l-1.699 8.32h-2.93l1.68-8.32h-6.133l-1.7 8.32zm5.215-11.23h6.133l1.465-7.09h-6.153zm-42.91 10.741l10.996-28.632h4.082l11.719 28.632h-4.317l-3.34-8.671H181.63l-3.145 8.671zm8.262-11.757h9.707l-2.989-7.93q-1.367-3.613-2.03-5.938-.548 2.754-1.544 5.47zm-31.758 11.757V35.184h20.703v3.379h-16.914v8.769h15.84v3.36h-15.84v9.746h17.578v3.378zm-28.926 0V35.184h12.695q3.828 0 5.82.78 1.993.763 3.184 2.716 1.192 1.953 1.192 4.316 0 3.047-1.973 5.137-1.973 2.09-6.094 2.656 1.504.723 2.285 1.426 1.66 1.523 3.145 3.808l4.98 7.793h-4.765l-3.79-5.957q-1.66-2.578-2.734-3.945T134.051 52q-.84-.547-1.719-.762-.645-.136-2.11-.136h-4.394v12.714zm3.79-15.996h8.144q2.597 0 4.062-.527 1.465-.547 2.227-1.719.761-1.191.761-2.578 0-2.031-1.484-3.34-1.465-1.308-4.648-1.308h-9.063zM92.116 63.816l10.996-28.632h4.082l11.72 28.632h-4.317l-3.34-8.671H99.285l-3.144 8.671zm8.262-11.757h9.707l-2.988-7.93q-1.368-3.613-2.032-5.938-.546 2.754-1.543 5.47z" aria-label="AREA #" font-weight="400" font-size="400" font-family="Arial" letter-spacing="0" word-spacing="0" stroke-width="7.5"/><path d="M395.273 184.055v-15.748h2.084v7.81l7.82-7.81h2.825l-6.606 6.381 6.896 9.367h-2.75l-5.607-7.97-2.578 2.513v5.457zm-4.576-5.521l2.084.526q-.656 2.568-2.364 3.921-1.697 1.343-4.157 1.343-2.546 0-4.146-1.031-1.59-1.042-2.428-3.008-.827-1.966-.827-4.222 0-2.46.934-4.286.946-1.837 2.675-2.782 1.74-.956 3.824-.956 2.364 0 3.975 1.203 1.611 1.203 2.245 3.384l-2.052.483q-.547-1.719-1.59-2.503-1.041-.784-2.62-.784-1.816 0-3.04.87-1.214.87-1.709 2.342-.494 1.46-.494 3.018 0 2.01.58 3.513.591 1.493 1.827 2.234 1.235.742 2.674.742 1.751 0 2.965-1.01t1.644-2.997zm-27.661 5.521l6.048-15.748h2.245l6.445 15.748H375.4l-1.837-4.77h-6.585l-1.73 4.77zm4.544-6.467h5.338l-1.643-4.36q-.752-1.988-1.117-3.266-.301 1.514-.849 3.007zm-10.624 6.467v-13.89h-5.189v-1.858h12.483v1.859h-5.21v13.89zm-13.45 0v-13.89h-5.188v-1.858H350.8v1.859h-5.21v13.89zm-18.798 0l6.047-15.748H333l6.446 15.748h-2.374l-1.837-4.77h-6.585l-1.73 4.77zm4.543-6.467h5.34l-1.644-4.36q-.752-1.988-1.117-3.266-.301 1.514-.849 3.007z" aria-label="ATTACK" font-weight="400" font-size="220" font-family="Arial" letter-spacing="0" word-spacing="0" stroke-width="7.5"/><g style="line-height:1.25;-inkscape-font-specification:Arial"><path d="M146.884 166.274v-4.243h12.96v4.243z" aria-label="-" font-weight="400" font-size="480" font-family="Arial" letter-spacing="0" word-spacing="0" stroke-width="7.5"/></g><path d="M397.309 265.555v-15.748h5.424q1.837 0 2.804.226 1.354.311 2.31 1.128 1.246 1.052 1.858 2.696.623 1.633.623 3.738 0 1.794-.419 3.18-.419 1.386-1.074 2.299-.655.902-1.44 1.429-.773.515-1.88.784-1.095.268-2.524.268zm2.084-1.858h3.362q1.558 0 2.438-.29.892-.29 1.418-.817.742-.74 1.15-1.987.419-1.257.419-3.04 0-2.47-.817-3.792-.805-1.332-1.966-1.783-.837-.322-2.696-.322h-3.308zm-18.004 1.858v-15.748h2.137l8.272 12.364v-12.364h1.998v15.748h-2.138l-8.271-12.375v12.375zm-14.631 0v-15.748h11.387v1.859h-9.303v4.823h8.712v1.848h-8.712v5.36h9.668v1.858zm-13.385 0v-15.748h10.624v1.859h-8.54v4.877h7.39v1.858h-7.39v7.154zm-14.76 0v-15.748H350v1.859h-9.303v4.823h8.712v1.848h-8.712v5.36h9.668v1.858zm-15.941 0v-15.748h5.425q1.837 0 2.803.226 1.354.311 2.31 1.128 1.246 1.052 1.858 2.696.623 1.633.623 3.738 0 1.794-.419 3.18-.418 1.386-1.074 2.299-.655.902-1.44 1.429-.773.515-1.88.784-1.095.268-2.524.268zm2.084-1.858h3.362q1.558 0 2.439-.29.891-.29 1.418-.817.74-.74 1.149-1.987.419-1.257.419-3.04 0-2.47-.816-3.792-.806-1.332-1.966-1.783-.838-.322-2.697-.322h-3.308z" aria-label="DEFEND" font-weight="400" font-size="220" font-family="Arial" letter-spacing="0" word-spacing="0" stroke-width="7.5"/><path d="M381.104 341.996l1.966-.172q.14 1.181.644 1.944.516.752 1.59 1.225 1.074.462 2.417.462 1.193 0 2.106-.355.913-.354 1.353-.967.451-.623.451-1.353 0-.741-.43-1.29-.429-.558-1.417-.934-.634-.247-2.804-.762-2.17-.527-3.04-.989-1.128-.59-1.687-1.46-.547-.882-.547-1.966 0-1.193.676-2.224.677-1.042 1.977-1.58 1.3-.536 2.89-.536 1.75 0 3.083.569 1.342.559 2.062 1.654.72 1.096.773 2.482l-1.998.15q-.16-1.493-1.095-2.256-.924-.762-2.74-.762-1.89 0-2.76.698-.86.687-.86 1.665 0 .849.613 1.396.601.548 3.136 1.128 2.546.57 3.492 1 1.375.633 2.03 1.61.655.967.655 2.235 0 1.257-.72 2.374-.72 1.106-2.073 1.73-1.343.612-3.03.612-2.137 0-3.587-.623-1.44-.623-2.267-1.87-.816-1.256-.859-2.835zm-14.695 0l1.966-.172q.14 1.181.644 1.944.516.752 1.59 1.225 1.074.462 2.417.462 1.192 0 2.105-.355.913-.354 1.354-.967.451-.623.451-1.353 0-.741-.43-1.29-.43-.558-1.418-.934-.633-.247-2.803-.762-2.17-.527-3.04-.989-1.128-.59-1.687-1.46-.548-.882-.548-1.966 0-1.193.677-2.224.677-1.042 1.977-1.58 1.3-.536 2.89-.536 1.75 0 3.082.569 1.343.559 2.063 1.654.72 1.096.773 2.482l-1.998.15q-.161-1.493-1.096-2.256-.923-.762-2.739-.762-1.89 0-2.76.698-.86.687-.86 1.665 0 .849.612 1.396.602.548 3.137 1.128 2.546.57 3.491 1 1.375.633 2.03 1.61.656.967.656 2.235 0 1.257-.72 2.374-.72 1.106-2.073 1.73-1.343.612-3.03.612-2.137 0-3.587-.623-1.44-.623-2.267-1.87-.816-1.256-.86-2.835zm-15.716 5.06l6.048-15.749h2.245l6.445 15.748h-2.374l-1.837-4.77h-6.585l-1.73 4.77zm4.544-6.468h5.339l-1.644-4.36q-.752-1.988-1.117-3.266-.3 1.514-.849 3.007zm-15.877 6.467v-15.748h5.94q1.569 0 2.396.15 1.16.194 1.944.742.784.537 1.257 1.514.483.978.483 2.149 0 2.009-1.278 3.405-1.278 1.386-4.62 1.386h-4.038v6.402zm2.084-8.26h4.071q2.02 0 2.868-.752.849-.752.849-2.117 0-.988-.505-1.686-.494-.71-1.31-.935-.527-.14-1.945-.14h-4.028z" aria-label="PASS" font-weight="400" font-size="220" font-family="Arial" letter-spacing="0" word-spacing="0" stroke-width="7.5"/></svg>