<svg xmlns="http://www.w3.org/2000/svg" version="1.0" width="618.667" height="617.333" viewBox="0 0 464 463"><path d="M1 231.5V463h463V0H1v231.5zm457 0V457H7V6h451v225.5z"/><path d="M414 16.9c-7.1 2.3-12.2 6.6-15.6 13.1-2.7 5.1-2.5 16.2.3 21.5 6.3 11.8 20.1 16.6 31.8 11.1 23.1-10.9 16.9-44.5-8.4-46.2-3.1-.2-6.7 0-8.1.5zm15 4.2c2.4 1.1 5.3 2.8 6.4 3.7 3 2.6 6.6 11.3 6.6 15.7 0 4.2-2.9 11.6-5.8 14.9-2.6 2.9-11.3 6.6-15.7 6.6-4.4 0-13.1-3.7-15.7-6.6-1-1.1-2.7-4.2-3.9-6.8-4.4-10-.1-21.5 10-26.8 6.4-3.4 11.8-3.6 18.1-.7z"/><path d="M25 49.5V82h274V17H25v32.5zm271 0V79H28V20h268v29.5z"/><path d="M126 165v27h54v-54h-54v27zm46 0v19h-38v-38h38v19z"/><path d="M311.5 142.7c-7 1.6-11.7 3.8-14 6.4l-2.5 3.1v48.6l3.1 3.1c5.9 6 7.5 6.1 68.4 6.1 60.9 0 62.5-.1 68.4-6.1l3.1-3.1v-48.6l-2.5-3c-1.4-1.7-4.7-3.8-7.3-4.8-4.3-1.7-9.2-1.9-59.7-2-30.2-.1-55.9 0-57 .3zm111.4 3.4c2.8.6 6.5 2 8.3 3.3l3.3 2.2.3 23.9c.2 23.2.2 23.9-1.9 26.1-4.9 5.2-6.8 5.4-66.4 5.4-59.6 0-61.5-.2-66.4-5.4-2.1-2.2-2.1-2.9-1.9-26.1l.3-23.8 2.7-2c5.7-4.3 9.6-4.6 64.5-4.6 33.7-.1 54 .3 57.2 1z"/><path d="M311.5 222.7c-7 1.6-11.7 3.8-14 6.4l-2.5 3.1v51.6l3.1 3.1c5.9 6 7.5 6.1 68.4 6.1 60.9 0 62.5-.1 68.4-6.1l3.1-3.1v-51.6l-2.5-3c-1.4-1.7-4.7-3.8-7.3-4.8-4.3-1.7-9.2-1.9-59.7-2-30.2-.1-55.9 0-57 .3zm111.4 3.4c2.8.6 6.5 2 8.3 3.3l3.3 2.2.3 25.4c.2 24.7.2 25.4-1.9 27.6-4.9 5.2-6.8 5.4-66.4 5.4-59.6 0-61.5-.2-66.4-5.4-2.1-2.2-2.1-2.9-1.9-27.6l.3-25.3 2.7-2c5.7-4.3 9.6-4.6 64.5-4.6 33.7-.1 54 .3 57.2 1z"/><path d="M59 307v27h54v-54H59v27zm45 0v19H66v-38h38v19z"/><path d="M76 290.5c0 .8-.7 1.5-1.5 1.5s-1.5.7-1.5 1.5-.7 1.5-1.5 1.5-1.5.7-1.5 1.5-.7 1.5-1.5 1.5c-1.2 0-1.5 1.7-1.5 9s.3 9 1.5 9c.8 0 1.5.7 1.5 1.5s.7 1.5 1.5 1.5 1.5.7 1.5 1.5.7 1.5 1.5 1.5 1.5.7 1.5 1.5c0 1.2 1.7 1.5 9 1.5s9-.3 9-1.5c0-.8.7-1.5 1.5-1.5s1.5-.7 1.5-1.5.7-1.5 1.5-1.5 1.5-.7 1.5-1.5.7-1.5 1.5-1.5c1.2 0 1.5-1.7 1.5-9s-.3-9-1.5-9c-.8 0-1.5-.7-1.5-1.5s-.7-1.5-1.5-1.5-1.5-.7-1.5-1.5-.7-1.5-1.5-1.5-1.5-.7-1.5-1.5c0-1.2-1.7-1.5-9-1.5s-9 .3-9 1.5zm15 6c0 .8-.7 1.5-1.5 1.5s-1.5.7-1.5 1.5-.7 1.5-1.5 1.5-1.5.7-1.5 1.5-.7 1.5-1.5 1.5-1.5.7-1.5 1.5-.7 1.5-1.5 1.5-1.5.7-1.5 1.5-.7 1.5-1.5 1.5-1.5.7-1.5 1.5-.7 1.5-1.5 1.5c-1.2 0-1.5-1.5-1.5-7.5s.3-7.5 1.5-7.5c.8 0 1.5-.7 1.5-1.5 0-1.2 1.5-1.5 7.5-1.5s7.5.3 7.5 1.5zm6 12c0 6-.3 7.5-1.5 7.5-.8 0-1.5.7-1.5 1.5 0 1.2-1.5 1.5-7.5 1.5s-7.5-.3-7.5-1.5c0-.8.7-1.5 1.5-1.5s1.5-.7 1.5-1.5.7-1.5 1.5-1.5 1.5-.7 1.5-1.5.7-1.5 1.5-1.5 1.5-.7 1.5-1.5.7-1.5 1.5-1.5 1.5-.7 1.5-1.5.7-1.5 1.5-1.5 1.5-.7 1.5-1.5.7-1.5 1.5-1.5c1.2 0 1.5 1.5 1.5 7.5z"/><path d="M193 307v27h54v-54h-54v27zm45 0v19h-38v-38h38v19z"/><path d="M216 296.5v7.5h-15v6h15v15h6v-15h15v-6h-15v-15h-6v7.5z"/><path d="M311.5 305.7c-7 1.6-11.7 3.8-14 6.4l-2.5 3.1v48.6l3.1 3.1c5.9 6 7.5 6.1 68.4 6.1 60.9 0 62.5-.1 68.4-6.1l3.1-3.1v-48.6l-2.5-3c-1.4-1.7-4.7-3.8-7.3-4.8-4.3-1.7-9.2-1.9-59.7-2-30.2-.1-55.9 0-57 .3zm111.4 3.4c2.8.6 6.5 2 8.3 3.3l3.3 2.2.3 23.9c.2 23.2.2 23.9-1.9 26.1-4.9 5.2-6.8 5.4-66.4 5.4-59.6 0-61.5-.2-66.4-5.4-2.1-2.2-2.1-2.9-1.9-26.1l.3-23.8 2.7-2c5.7-4.3 9.6-4.6 64.5-4.6 33.7-.1 54 .3 57.2 1z"/><path d="M331.3 395.3c-10.6 7.8-19.2 14.6-19.2 15.2 0 1.2 38.3 29.5 39.9 29.5 1.8 0 1.1-1.6-6.7-15.2-4.2-7.3-7.6-13.8-7.6-14.3 0-.6 3.4-7 7.6-14.3 4.3-7.4 7.7-13.8 7.7-14.3 0-2.2-3.6.1-21.7 13.4zm13.8-4.5c-.5.9-3.2 5.7-6 10.5-2.8 4.9-5.1 9-5.1 9.2 0 .2 2.3 4.3 5.1 9.2 8 13.8 7.7 13 4.5 11-4.3-2.9-26.2-19.1-26.6-19.9-.4-.6 27.5-21.8 28.7-21.8.2 0-.1.8-.6 1.8z"/><path d="M380 381.9c0 .5 3.4 6.9 7.7 14.3 4.2 7.3 7.6 13.7 7.6 14.3 0 .5-3.4 7-7.6 14.3-7.8 13.6-8.5 15.2-6.7 15.2 1.6 0 39.9-28.3 39.9-29.5 0-1.2-38.3-29.5-39.9-29.5-.5 0-1 .4-1 .9zm23.8 18.9c6.5 4.8 11.8 9.1 11.8 9.7 0 .9-18.6 15.2-26.2 20.2-3.2 2-3.5 2.8 4.5-11 2.8-4.9 5.1-9 5.1-9.2 0-.2-2.3-4.3-5.1-9.2-8-13.8-7.7-13-4.5-11 1.5 1 8 5.7 14.4 10.5z"/><path d="M104.8 416.1c-4.3 2.2-7.8 8.1-7.8 13.1.1 7.4 7.4 14.8 14.8 14.8 15.2 0 20.7-20.2 7.6-27.7-4.8-2.8-9.7-2.8-14.6-.2zm15.4 4.6c5.7 5.8 4.3 15.4-2.9 18.8-4.8 2.3-9.9 1.4-13.8-2.5-5.6-5.6-3.5-15.8 4-19.1 3.6-1.6 9.6-.3 12.7 2.8z"/><path d="M145.8 416.1c-4.3 2.2-7.8 8.1-7.8 13.1.1 7.5 7.4 14.8 15 14.8s14.9-7.3 15-14.8c0-5.1-3.5-10.9-8-13.2-4.9-2.5-9.4-2.5-14.2.1zm15.6 4.8c2.6 2.7 3.1 3.9 3.1 8.1 0 4.3-.5 5.4-3.3 8.2-4.7 4.8-11.7 4.8-16.4 0-2.8-2.8-3.3-3.9-3.3-8.1 0-5.2 2.5-9.2 7-11.2 3.7-1.6 9.6-.3 12.9 3z"/><path d="M186.6 416.3c-10.2 5.8-9.8 21.1.8 26.1 9.7 4.6 21.5-2.6 21.6-13.2 0-5.1-3.5-10.9-8-13.2-5.1-2.6-9.5-2.5-14.4.3zm15.8 4.6c2.6 2.7 3.1 3.9 3.1 8.1 0 4.2-.5 5.4-3 8-8.3 8.2-22 1.6-20.1-9.8.6-3.7 3.7-7.8 7.1-9.3 3.7-1.6 9.6-.3 12.9 3z"/><text style="line-height:1.25;-inkscape-font-specification:TeamViewer12" x="737.57" y="-4150.849" transform="matrix(.1 0 0 .1 0 463)" font-weight="400" font-size="200" font-family="TeamViewer12" letter-spacing="0" word-spacing="0" stroke-width="7.5"/><text style="line-height:1.25;-inkscape-font-specification:Arial" x="576.058" y="-4140.082" transform="matrix(.1 0 0 .1 0 463)" font-weight="400" font-size="200" font-family="Arial" letter-spacing="0" word-spacing="0" stroke-width="7.5"/><text style="line-height:1.25;-inkscape-font-specification:Arial" x="904.465" y="-4010.872" transform="matrix(.1 0 0 .1 0 463)" font-weight="400" font-size="400" font-family="Arial" letter-spacing="0" word-spacing="0" stroke-width="7.5"><tspan x="904.465" y="-4010.872">AREA #</tspan></text><text style="line-height:1.25;-inkscape-font-specification:Arial" x="3257.151" y="-2794.151" transform="matrix(.1 0 0 .1 0 463)" font-weight="400" font-size="220" font-family="Arial" letter-spacing="0" word-spacing="0" stroke-width="7.5"><tspan x="3257.151" y="-2794.151">ATTACK</tspan></text><text style="line-height:1.25;-inkscape-font-specification:Arial" x="1453.605" y="-2864.14" transform="matrix(.1 0 0 .1 0 463)" font-weight="400" font-size="480" font-family="Arial" letter-spacing="0" word-spacing="0" stroke-width="7.5"><tspan x="1453.605" y="-2864.14">-</tspan></text><text style="line-height:1.25;-inkscape-font-specification:Arial" x="3231.383" y="-1967.256" transform="matrix(.1 0 0 .1 0 463)" font-weight="400" font-size="220" font-family="Arial" letter-spacing="0" word-spacing="0" stroke-width="7.5"><tspan x="3231.383" y="-1967.256">DEFEND</tspan></text><text style="line-height:1.25;-inkscape-font-specification:Arial" x="3391.744" y="-1168.267" transform="matrix(.1 0 0 .1 0 463)" font-weight="400" font-size="220" font-family="Arial" letter-spacing="0" word-spacing="0" stroke-width="7.5"><tspan x="3391.744" y="-1168.267">PASS</tspan></text></svg>