<svg xmlns="http://www.w3.org/2000/svg" fill="none" stroke="#000" stroke-width="2" viewBox="0 0 347 347"><path d="M5 5h337v337H5z"/><circle cx="298" cy="40" r="16"/><path stroke-linecap="round" stroke-width="3" d="M28.5 146h290v55h-290z"/><path fill="#000" fill-opacity=".85" stroke="none" stroke-width="6.29" d="m121.4 184.26-19.6-8.06v-4.13l19.6-8.06v4.5l-15.14 5.44v.37l15.14 5.44zm17.72 4.38-2.53-17.23h-.33l-1.78-4.46h3.97l2.56 18.42h.36l1.85-18.42h4.3l-3.08 21.7zm-10.84 0-2.46-21.69h4.1l1.63 18.42h.37l2.56-18.42h3.97l-1.82 4.46h-.29l-2.54 17.23zm32.94.41q-4.5 0-7-2.95-2.5-2.94-2.5-8.3 0-5.38 2.5-8.31 2.5-2.95 7-2.95 4.52 0 7 2.95 2.5 2.93 2.5 8.3 0 5.37-2.5 8.31-2.48 2.95-7 2.95zm0-3.89q2.4 0 3.69-1.92 1.3-1.92 1.3-5.44 0-3.54-1.3-5.45-1.3-1.92-3.69-1.92-2.4 0-3.7 1.92-1.29 1.9-1.29 5.45 0 3.52 1.29 5.44 1.3 1.92 3.7 1.92zm23.08-5.85-1.26-6.8h1.67q.37-5.97 5.98-5.97 3.35 0 4.87 1.93 1.51 1.92 1.51 6.22h-4.3q0-2.38-.71-3.42-.7-1.04-2.27-1.04-2.76 0-4.14 2.37-1.35 2.35-1.35 6.71zm-9.16 9.33v-3.56h14.48v3.56zm4.83 0v-21.69h3.52l.81 6.22v15.47zm-4.01-18.13v-3.56h7.24l.4 3.56zm32.71 18.54q-4.25 0-6.46-2.8-2.2-2.8-2.2-8.25 0-5.65 2.2-8.55 2.2-2.9 6.46-2.9 2.44 0 3.95 1.14 1.54 1.14 1.8 3.2h1.68l-1.27 6.17q0-3.36-1.33-5.1-1.3-1.73-3.86-1.73-2.62 0-3.97 1.96t-1.35 5.81q0 3.64 1.35 5.5 1.35 1.87 3.97 1.87 2.55 0 3.86-1.74 1.33-1.74 1.33-5.1l1.48 6.18h-1.89q-.2 2.05-1.74 3.2-1.51 1.14-4 1.14zm6.61-.2-.45-4.26v-26.64h4.34v30.7zm10.32-4.59v-4.5l14.32-5.44v-.37l-14.32-5.44V164l19.6 8.06v4.13z" aria-label="&lt;word&gt;"/><path stroke-linecap="round" stroke-width="3" d="M28.5 211h290v55h-290z"/><path fill="#000" fill-opacity=".85" stroke="none" stroke-width="6.29" d="m121.4 249.26-19.6-8.06v-4.13l19.6-8.06v4.5l-15.14 5.44v.37l15.14 5.44zm17.72 4.38-2.53-17.23h-.33l-1.78-4.46h3.97l2.56 18.42h.36l1.85-18.42h4.3l-3.08 21.7zm-10.84 0-2.46-21.69h4.1l1.63 18.42h.37l2.56-18.42h3.97l-1.82 4.46h-.29l-2.54 17.23zm32.94.41q-4.5 0-7-2.95-2.5-2.94-2.5-8.3 0-5.38 2.5-8.31 2.5-2.95 7-2.95 4.52 0 7 2.95 2.5 2.93 2.5 8.3 0 5.37-2.5 8.31-2.48 2.95-7 2.95zm0-3.89q2.4 0 3.69-1.92 1.3-1.92 1.3-5.44 0-3.54-1.3-5.45-1.3-1.92-3.69-1.92-2.4 0-3.7 1.92-1.29 1.9-1.29 5.45 0 3.52 1.29 5.44 1.3 1.92 3.7 1.92zm23.08-5.85-1.26-6.8h1.67q.37-5.97 5.98-5.97 3.35 0 4.87 1.93 1.51 1.92 1.51 6.22h-4.3q0-2.38-.71-3.42-.7-1.04-2.27-1.04-2.76 0-4.14 2.37-1.35 2.35-1.35 6.71zm-9.16 9.33v-3.56h14.48v3.56zm4.83 0v-21.69h3.52l.81 6.22v15.47zm-4.01-18.13v-3.56h7.24l.4 3.56zm32.71 18.54q-4.25 0-6.46-2.8-2.2-2.8-2.2-8.25 0-5.65 2.2-8.55 2.2-2.9 6.46-2.9 2.44 0 3.95 1.14 1.54 1.14 1.8 3.2h1.68l-1.27 6.17q0-3.36-1.33-5.1-1.3-1.73-3.86-1.73-2.62 0-3.97 1.96t-1.35 5.81q0 3.64 1.35 5.5 1.35 1.87 3.97 1.87 2.55 0 3.86-1.74 1.33-1.74 1.33-5.1l1.48 6.18h-1.89q-.2 2.05-1.74 3.2-1.51 1.14-4 1.14zm6.61-.2-.45-4.26v-26.64h4.34v30.7zm10.32-4.59v-4.5l14.32-5.44v-.37l-14.32-5.44V229l19.6 8.06v4.13z" aria-label="&lt;word&gt;"/><path stroke-linecap="round" stroke-width="3" d="M28.5 276h290v55h-290z"/><path fill="#000" fill-opacity=".85" stroke="none" stroke-width="6.29" d="m121.4 314.26-19.6-8.06v-4.13l19.6-8.06v4.5l-15.14 5.44v.37l15.14 5.44zm17.72 4.38-2.53-17.23h-.33l-1.78-4.46h3.97l2.56 18.42h.36l1.85-18.42h4.3l-3.08 21.7zm-10.84 0-2.46-21.69h4.1l1.63 18.42h.37l2.56-18.42h3.97l-1.82 4.46h-.29l-2.54 17.23zm32.94.41q-4.5 0-7-2.95-2.5-2.94-2.5-8.3 0-5.38 2.5-8.31 2.5-2.95 7-2.95 4.52 0 7 2.95 2.5 2.93 2.5 8.3 0 5.37-2.5 8.31-2.48 2.95-7 2.95zm0-3.89q2.4 0 3.69-1.92 1.3-1.92 1.3-5.44 0-3.54-1.3-5.45-1.3-1.92-3.69-1.92-2.4 0-3.7 1.92-1.29 1.9-1.29 5.45 0 3.52 1.29 5.44 1.3 1.92 3.7 1.92zm23.08-5.85-1.26-6.8h1.67q.37-5.97 5.98-5.97 3.35 0 4.87 1.93 1.51 1.92 1.51 6.22h-4.3q0-2.38-.71-3.42-.7-1.04-2.27-1.04-2.76 0-4.14 2.37-1.35 2.35-1.35 6.71zm-9.16 9.33v-3.56h14.48v3.56zm4.83 0v-21.69h3.52l.81 6.22v15.47zm-4.01-18.13v-3.56h7.24l.4 3.56zm32.71 18.54q-4.25 0-6.46-2.8-2.2-2.8-2.2-8.25 0-5.65 2.2-8.55 2.2-2.9 6.46-2.9 2.44 0 3.95 1.14 1.54 1.14 1.8 3.2h1.68l-1.27 6.17q0-3.36-1.33-5.1-1.3-1.73-3.86-1.73-2.62 0-3.97 1.96t-1.35 5.81q0 3.64 1.35 5.5 1.35 1.87 3.97 1.87 2.55 0 3.86-1.74 1.33-1.74 1.33-5.1l1.48 6.18h-1.89q-.2 2.05-1.74 3.2-1.51 1.14-4 1.14zm6.61-.2-.45-4.26v-26.64h4.34v30.7zm10.32-4.59v-4.5l14.32-5.44v-.37l-14.32-5.44V294l19.6 8.06v4.13z" aria-label="&lt;word&gt;"/><path stroke-linecap="round" stroke-width="3" d="M28.5 81h290v55h-290z"/><path fill="#000" fill-opacity=".85" stroke="none" stroke-width="6.29" d="m121.4 119.26-19.6-8.06v-4.13L121.4 99v4.5l-15.14 5.44v.37l15.14 5.44zm17.72 4.38-2.53-17.23h-.33l-1.78-4.46h3.97l2.56 18.42h.36l1.85-18.42h4.3l-3.08 21.7zm-10.84 0-2.46-21.69h4.1l1.63 18.42h.37l2.56-18.42h3.97l-1.82 4.46h-.29l-2.54 17.23zm32.94.41q-4.5 0-7-2.95-2.5-2.94-2.5-8.3 0-5.38 2.5-8.31 2.5-2.95 7-2.95 4.52 0 7 2.95 2.5 2.93 2.5 8.3 0 5.37-2.5 8.31-2.48 2.95-7 2.95zm0-3.89q2.4 0 3.69-1.92 1.3-1.92 1.3-5.44 0-3.54-1.3-5.45-1.3-1.92-3.69-1.92-2.4 0-3.7 1.92-1.29 1.9-1.29 5.45 0 3.52 1.29 5.44 1.3 1.92 3.7 1.92zm23.08-5.85-1.26-6.8h1.67q.37-5.97 5.98-5.97 3.35 0 4.87 1.93 1.51 1.92 1.51 6.22h-4.3q0-2.38-.71-3.42-.7-1.04-2.27-1.04-2.76 0-4.14 2.37-1.35 2.35-1.35 6.71zm-9.16 9.33v-3.56h14.48v3.56zm4.83 0v-21.69h3.52l.81 6.22v15.47zm-4.01-18.13v-3.56h7.24l.4 3.56zm32.71 18.54q-4.25 0-6.46-2.8-2.2-2.8-2.2-8.25 0-5.65 2.2-8.55 2.2-2.9 6.46-2.9 2.44 0 3.95 1.14 1.54 1.14 1.8 3.2h1.68l-1.27 6.17q0-3.36-1.33-5.1-1.3-1.73-3.86-1.73-2.62 0-3.97 1.96t-1.35 5.81q0 3.64 1.35 5.5 1.35 1.87 3.97 1.87 2.55 0 3.86-1.74 1.33-1.74 1.33-5.1l1.48 6.18h-1.89q-.2 2.05-1.74 3.2-1.51 1.14-4 1.14zm6.61-.2-.45-4.26V92.95h4.34v30.7zm10.32-4.59v-4.5l14.32-5.44v-.37l-14.32-5.44V99l19.6 8.06v4.13zM94.65 54.26l-19.6-8.06v-4.13L94.65 34v4.5l-15.14 5.44v.37l15.14 5.44zm17.72 4.38-2.53-17.23h-.33l-1.78-4.46h3.97l2.56 18.42h.36l1.85-18.42h4.3l-3.08 21.7zm-10.84 0-2.46-21.69h4.1l1.63 18.42h.37l2.56-18.42h3.97l-1.82 4.46h-.29l-2.54 17.23zm32.94.41q-4.5 0-7-2.95-2.5-2.94-2.5-8.3 0-5.38 2.5-8.31 2.5-2.95 7-2.95 4.52 0 7 2.95 2.5 2.93 2.5 8.3 0 5.37-2.5 8.31-2.48 2.95-7 2.95zm0-3.89q2.4 0 3.69-1.92 1.3-1.92 1.3-5.44 0-3.54-1.3-5.45-1.3-1.92-3.69-1.92-2.4 0-3.7 1.92-1.29 1.9-1.29 5.45 0 3.52 1.29 5.44 1.3 1.92 3.7 1.92zm23.08-5.85-1.26-6.8h1.67q.37-5.97 5.98-5.97 3.35 0 4.87 1.93 1.51 1.92 1.51 6.22h-4.3q0-2.38-.71-3.42-.7-1.04-2.27-1.04-2.76 0-4.14 2.37-1.35 2.35-1.35 6.71zm-9.16 9.33v-3.56h14.48v3.56zm4.83 0V36.95h3.52l.81 6.22v15.47zm-4.01-18.13v-3.56h7.24l.4 3.56zm32.71 18.54q-4.25 0-6.46-2.8-2.2-2.8-2.2-8.25 0-5.65 2.2-8.55 2.2-2.9 6.46-2.9 2.44 0 3.95 1.14 1.54 1.14 1.8 3.2h1.68l-1.27 6.17q0-3.36-1.33-5.1-1.3-1.73-3.86-1.73-2.62 0-3.97 1.96T177.57 48q0 3.64 1.35 5.5 1.35 1.87 3.97 1.87 2.55 0 3.86-1.74 1.33-1.74 1.33-5.1l1.48 6.18h-1.89q-.2 2.05-1.74 3.2-1.51 1.14-4 1.14zm6.61-.2-.45-4.26V27.95h4.34v30.7zm10.32-4.59v-4.5l14.32-5.44v-.37l-14.32-5.44V34l19.6 8.06v4.13z" aria-label="&lt;word&gt;"/><path stroke-linecap="round" stroke-width="2.71" d="M28.5 16H265v55H28.5z"/></svg>