<svg xmlns="http://www.w3.org/2000/svg" fill="none" viewBox="0 0 348 348"><path d="M5.08 5.776h336.91v337.67H5.08z" stroke-width="2" stroke="#000"/><path stroke="#000" stroke-width="2" d="M282.734 40.554c0-8.376 6.966-15.165 15.56-15.165 4.126 0 8.084 1.594 11 4.44 2.92 2.842 4.56 6.7 4.56 10.722 0 8.376-6.967 15.165-15.56 15.165-8.594 0-15.56-6.79-15.56-15.166z"/><path d="M81.165 252.16v-7.277l-6.621-9.902h2.765l3.387 5.18a52.04 52.04 0 011.746 2.906 62.57 62.57 0 011.875-3.035l3.328-5.051h2.649l-6.856 9.902v7.278zm11.238 0v-17.18h12.422v2.028H94.676v5.262h9.504v2.016h-9.504v5.847h10.547v2.028zm15.211-5.519l2.144-.187c.102.859.338 1.564.71 2.115.37.55.947.996 1.728 1.336.781.34 1.66.51 2.637.51.867 0 1.632-.13 2.296-.387.665-.258 1.159-.612 1.483-1.06.324-.45.486-.94.486-1.471 0-.54-.156-1.01-.469-1.413-.312-.402-.828-.74-1.546-1.013-.461-.18-1.48-.46-3.059-.838-1.578-.379-2.684-.736-3.316-1.072-.82-.43-1.432-.963-1.834-1.6a3.92 3.92 0 01-.604-2.139c0-.867.246-1.677.738-2.431.493-.754 1.211-1.326 2.157-1.717.945-.39 1.996-.586 3.152-.586 1.273 0 2.396.205 3.37.615.972.41 1.72 1.014 2.243 1.81.524.798.805 1.7.844 2.708l-2.18.164c-.117-1.086-.513-1.906-1.19-2.461-.675-.555-1.673-.832-2.993-.832-1.375 0-2.377.252-3.006.756s-.943 1.111-.943 1.822c0 .617.222 1.125.667 1.523.438.399 1.58.807 3.428 1.225 1.848.418 3.115.783 3.803 1.096 1 .46 1.738 1.045 2.215 1.752.476.707.715 1.521.715 2.443 0 .914-.262 1.775-.786 2.584-.523.809-1.275 1.438-2.255 1.887-.98.449-2.084.674-3.31.674-1.556 0-2.858-.227-3.91-.68-1.05-.453-1.874-1.135-2.472-2.045-.597-.91-.912-1.94-.943-3.088zm78.331 5.525v-17.18h2.332l9.023 13.489v-13.488h2.18v17.18h-2.332l-9.023-13.5v13.5zm16.675-8.366c0-2.852.766-5.085 2.298-6.698 1.53-1.613 3.507-2.42 5.93-2.42 1.585 0 3.015.379 4.288 1.137a7.412 7.412 0 012.912 3.17c.668 1.355 1.002 2.892 1.002 4.611 0 1.742-.351 3.3-1.054 4.676-.703 1.375-1.7 2.416-2.989 3.123a8.538 8.538 0 01-4.171 1.06c-1.618 0-3.063-.39-4.336-1.171a7.541 7.541 0 01-2.895-3.2 9.696 9.696 0 01-.984-4.289zm2.345.034c0 2.07.556 3.702 1.67 4.893 1.113 1.191 2.51 1.787 4.189 1.787 1.71 0 3.119-.601 4.224-1.805 1.106-1.203 1.659-2.91 1.659-5.12 0-1.4-.237-2.62-.71-3.663-.472-1.043-1.163-1.851-2.074-2.426-.91-.574-1.931-.86-3.064-.86-1.61 0-2.994.552-4.154 1.657-1.16 1.106-1.74 2.951-1.74 5.537z" fill="#fff"/><path fill="#fff" stroke="#000" stroke-width="1.113" stroke-linejoin="round" stroke-miterlimit="10" d="M257.684 236.71h72.581v92.08h-72.581z"/><path fill="#fff" stroke="#000" stroke-width="1.834" stroke-linejoin="round" stroke-miterlimit="10" d="M33.375 23.524h198.673v91.359H33.375z"/><path fill="#fff" stroke="#000" stroke-width="1.026" stroke-linejoin="round" stroke-miterlimit="10" d="M23.215 132.435h55.434v55.96H23.215zM102.728 131.698h55.434v55.96h-55.434zM182.775 131.698h55.434v55.96h-55.434zM23.003 206.007h55.434v55.96H23.003zM102.516 205.27h55.434v55.96h-55.434zM182.563 205.27h55.434v55.96h-55.434zM23.003 279.524h55.434v55.96H23.003zM102.516 278.787h55.434v55.96h-55.434zM182.563 278.787h55.434v55.96h-55.434z"/><path d="M280.423 297.625h-8.743v-8.435h10.893l2.915-11.82h-10.99v-8.434h13.044l4.492-17.979h5.78l-4.443 17.98h10.75l4.444-17.98h5.734l-4.396 17.98h8.744v8.434h-10.894l-2.867 11.82h10.942v8.434h-13.092l-4.587 18.423h-5.733l4.587-18.423h-10.846l-4.492 18.423h-5.829zM299.2 289.3l3.01-12.041h-11.084l-3.01 12.041z" aria-label="#" style="stroke-width:2.89636135" font-weight="700" font-size="115.854" font-family="Sitka Banner" letter-spacing="0" word-spacing="0" fill="#000" stroke-width="2.896"/><path d="M93.794 83.427H87.11v-8.434h8.328l2.228-11.82h-8.401V54.74h9.972l3.434-17.98h4.42l-3.397 17.98h8.219l3.397-17.98h4.383l-3.36 17.98h6.684v8.434h-8.328l-2.192 11.82h8.365v8.434h-10.009l-3.506 18.423h-4.384l3.507-18.423h-8.292l-3.434 18.423h-4.456zm14.356-8.323l2.302-12.042h-8.475l-2.301 12.042z" aria-label="#" style="stroke-width:2.53250384" font-weight="700" font-size="101.3" font-family="Sitka Banner" letter-spacing="0" word-spacing="0" fill="#000" stroke-width="2.533"/><g style="line-height:1.25;-inkscape-font-specification:'Sitka Banner Bold'"><path d="M165.797 101.89h-7.816l-2.028-13.3h-10.868l-2.027 13.3h-7.62l10.829-65.797h8.702zm-11.675-25.364l-3.603-23.597-3.603 23.597z" style="-inkscape-font-specification:'sans-serif Bold'" font-family="sans-serif" aria-label="A" font-weight="700" font-size="60.406" letter-spacing="0" word-spacing="0" fill="#000" stroke-width="1.51"/></g><path d="M44.2 171.702l3.54-.979q.437-.132.666-.529.23-.396.23-.978v-14.602l.041-3.57-5.249 1.533v-1.56l7.645-4.735h3.436q-.041.846-.083 1.93l-.042 2.196-.041 2.275v16.533q0 .608.229 1.005.25.37.666.502l3.291.98v1.56H44.2z" aria-label="1" style="stroke-width:1.4726913" font-weight="700" font-size="58.908" font-family="Sitka Banner" letter-spacing="0" word-spacing="0" fill="#000" stroke-width="1.473"/><path d="M123.573 169.6q2.63-2.855 4.515-4.983 1.902-2.154 3.111-3.932 1.227-1.804 1.796-3.474.569-1.697.569-3.636 0-.996-.16-1.912-.143-.916-.463-1.616-.32-.7-.8-1.131-.462-.431-1.102-.431-.586 0-1.173.215-.569.216-1.12.62-.551.377-1.102.889-.534.511-1.067 1.104-.516.592-1.031 1.239l-.978 1.266h-.64l-.747-5.387q.48-.404 1.263-.97.782-.592 1.777-1.104 1.014-.538 2.205-.915t2.507-.377q1.475 0 2.88.457 1.422.431 2.506 1.374 1.102.943 1.76 2.424.676 1.454.676 3.474 0 1.778-.32 3.232-.32 1.454-.96 2.693-.622 1.24-1.547 2.316-.924 1.05-2.133 2.074-1.191 1.024-2.667 2.047-1.475 1.024-3.2 2.182l2.613-.054h6.56q.605 0 .89-.458.302-.458.444-1.024l.729-2.908h1.209l-.463 10.369h-16.337z" aria-label="2" style="stroke-width:1.23082888" font-weight="700" font-size="49.233" font-family="Sitka Banner" letter-spacing="0" word-spacing="0" fill="#000" stroke-width="1.231"/><path d="M210.266 173.774q-1.369 0-2.525-.199-1.155-.198-2.115-.496-.942-.297-1.69-.655-.728-.357-1.28-.674l.748-4.088h.64q.284.238.782.595.498.377 1.102.774.605.397 1.298.794.693.397 1.369.714.675.318 1.298.516.622.199 1.102.199 1.138 0 1.955-.357.818-.358 1.334-1.072.515-.714.764-1.786.249-1.052.249-2.48 0-1.131-.302-2.084-.285-.972-.925-1.686-.64-.715-1.67-1.112-1.014-.396-2.472-.396h-2.258v-2.818h1.814q2.364 0 3.662-1.25 1.298-1.27 1.298-3.989 0-.932-.143-1.706-.142-.794-.48-1.35-.32-.575-.853-.892-.533-.318-1.315-.318-.73 0-1.618.417-.89.397-1.778.972-.871.575-1.653 1.19-.765.596-1.263.993h-.64l-.746-4.088q.409-.218 1.084-.555.676-.338 1.582-.655.907-.338 2.01-.556 1.12-.238 2.4-.238 1.76 0 3.324.417 1.564.397 2.738 1.19 1.173.794 1.848 1.945.694 1.15.694 2.639 0 .933-.302 1.964-.285 1.012-1.032 1.965-.728.952-2.008 1.786-1.28.813-3.254 1.35 1.014.059 1.956.277.96.198 1.778.575.835.377 1.51.933.676.556 1.156 1.31.498.734.765 1.666.266.933.266 2.064 0 1.23-.373 2.322-.373 1.091-1.049 2.004-.675.932-1.618 1.647-.942.734-2.08 1.23-1.12.516-2.417.774-1.298.278-2.667.278z" aria-label="3" style="stroke-width:1.05648911" font-weight="700" font-size="42.26" font-family="Sitka Banner" letter-spacing="0" word-spacing="0" fill="#000" stroke-width="1.056"/><path d="M49.155 246.55l1.92-.736q.391-.16.57-.438.195-.259.195-.697v-4.656H41.244v-2.966l12.196-16.975h3.235v16.995h4.071v2.946h-4.07v4.656q0 .458.195.717.195.259.569.418l1.706.736v1.174h-9.99zm-3.217-9.473h5.902v-7.82l.035-3.344-8.053 11.224z" aria-label="4" style="stroke-width:1.05803168" font-weight="700" font-size="42.321" font-family="Sitka Banner" letter-spacing="0" word-spacing="0" fill="#000" stroke-width="1.058"/><path d="M130.787 249.132q-1.511 0-2.685-.252-1.155-.23-2.044-.586-.89-.335-1.53-.692-.621-.356-1.066-.607l.711-4.316h.64q.41.398 1.156 1.048.764.65 1.671 1.257.924.628 1.902 1.068.996.461 1.902.461 1.067 0 1.867-.398t1.333-1.173q.534-.775.8-1.906.267-1.132.267-2.598 0-1.718-.48-2.954-.48-1.236-1.351-2.032-.853-.796-2.044-1.173-1.192-.377-2.596-.377-.516 0-1.013.084-.48.062-.925.188-.426.126-.818.293-.39.147-.675.294l-.658-.189 1.28-14.664h13.245v4.734H128.12l-.533 6.138q.497-.209 1.03-.335.534-.146 1.05-.21.515-.083.977-.104.463-.02.836-.02 1.724 0 3.396.523 1.67.503 2.968 1.613 1.298 1.09 2.098 2.807.8 1.697.8 4.106 0 2.179-.782 4.001-.764 1.844-2.116 3.164-1.333 1.32-3.164 2.053-1.813.754-3.893.754z" aria-label="5" style="stroke-width:1.0855304" font-weight="700" font-size="43.421" font-family="Sitka Banner" letter-spacing="0" word-spacing="0" fill="#000" stroke-width="1.086"/><path d="M210.582 248.036q-2.187 0-3.876-.964-1.67-.963-2.809-2.716-1.12-1.753-1.706-4.228-.587-2.498-.587-5.521 0-2.607.32-4.776.338-2.191.96-3.966.622-1.796 1.493-3.22.89-1.424 1.991-2.542.694-.723 1.476-1.336.8-.613 1.689-1.052.889-.46 1.867-.7.977-.264 2.044-.264.978 0 1.742.11.765.11 1.37.307.621.175 1.101.394.498.197.925.394l-.747 4.514h-.64q-.444-.307-1.084-.745-.64-.438-1.44-.833-.783-.416-1.671-.7-.89-.286-1.832-.286-.8 0-1.386.438-.587.439-1.031 1.14-.231.372-.48.986-.25.613-.516 1.665-.249 1.03-.48 2.563-.231 1.512-.444 3.702l-.054.395q-.017.263-.053.547l-.036.57q-.017.263-.035.394.764-1.27 1.546-2.059.8-.789 1.565-1.227.782-.438 1.529-.57.746-.153 1.44-.153 1.333 0 2.578.657 1.262.658 2.222 1.885.96 1.204 1.529 2.935.586 1.731.586 3.856 0 2.169-.71 4.075-.694 1.884-1.92 3.308-1.227 1.402-2.88 2.213-1.654.81-3.556.81zm.284-2.3q.89 0 1.565-.46.693-.482 1.155-1.38.462-.92.694-2.257.248-1.336.248-3.045 0-3.418-1.013-5.105-1.013-1.708-2.933-1.708-.445 0-.96.11-.498.087-1.014.328-.515.24-1.013.657-.48.416-.889 1.073-.035.57-.053 1.25-.018.678-.018 1.358 0 2.322.356 4.053.355 1.708.942 2.848.587 1.139 1.351 1.709.764.57 1.582.57z" aria-label="6" style="stroke-width:1.11010754" font-weight="700" font-size="44.404" font-family="Sitka Banner" letter-spacing="0" word-spacing="0" fill="#000" stroke-width="1.11"/><path d="M57.154 297.99l-2.097.061h-8.32q-.445 0-.765.286-.302.265-.444.836l-.907 3.672h-1.12v-9.363h16.924v2.305L49.35 322.182h-3.716z" aria-label="7" style="stroke-width:1.07115781" font-weight="700" font-size="42.846" font-family="Sitka Banner" letter-spacing="0" word-spacing="0" fill="#000" stroke-width="1.071"/><path d="M130.756 322.009q-2.098 0-3.751-.599-1.654-.599-2.81-1.625-1.137-1.048-1.741-2.416-.605-1.39-.605-2.972 0-1.347.391-2.46.391-1.111 1.12-2.009.747-.898 1.796-1.582 1.066-.706 2.4-1.24-1.191-.727-2.08-1.519-.89-.812-1.494-1.71-.586-.92-.888-1.946-.285-1.026-.285-2.245 0-1.69.64-3.186.64-1.518 1.796-2.651 1.155-1.133 2.737-1.796 1.6-.663 3.503-.663 1.83 0 3.324.534 1.493.535 2.542 1.476 1.05.94 1.618 2.224.569 1.261.569 2.736 0 1.198-.284 2.203-.285.983-.872 1.839-.586.855-1.457 1.56-.871.706-2.045 1.283 1.351.642 2.382 1.433 1.032.77 1.707 1.732.676.962 1.013 2.138.356 1.155.356 2.545 0 1.774-.693 3.4-.694 1.603-1.956 2.843-1.262 1.219-3.022 1.946-1.76.727-3.911.727zm2.738-17.47q.302-.577.515-1.132.213-.578.356-1.24.142-.663.195-1.476.071-.834.071-1.946 0-1.047-.213-1.967-.213-.94-.64-1.625-.427-.705-1.067-1.112-.64-.406-1.51-.406-.783 0-1.423.342-.64.32-1.102.92-.445.598-.711 1.454-.25.855-.25 1.903 0 1.111.303 1.945.302.834.978 1.54.675.705 1.778 1.368 1.12.663 2.72 1.433zm-2.365 15.225q1.013 0 1.796-.385.8-.385 1.35-1.07.57-.705.854-1.667.302-.984.302-2.181 0-1.219-.39-2.117-.374-.898-1.174-1.625-.8-.748-2.027-1.432-1.226-.685-2.898-1.476-1.03 1.176-1.582 2.63-.55 1.433-.55 3.378 0 1.348.301 2.438.303 1.09.871 1.882.57.77 1.352 1.197.8.428 1.795.428z" aria-label="8" style="stroke-width:1.09668982" font-weight="700" font-size="43.868" font-family="Sitka Banner" letter-spacing="0" word-spacing="0" fill="#000" stroke-width="1.097"/><path d="M208.55 321.231q-.995 0-1.76-.104-.764-.104-1.368-.292-.605-.167-1.102-.376-.48-.188-.907-.376l.747-4.3h.64l1.084.71q.64.417 1.422.793.8.397 1.69.668.888.271 1.83.271.8 0 1.387-.417.587-.418 1.031-1.086.231-.355.48-.94.267-.584.533-1.586.267-1.002.516-2.505t.462-3.674q0-.104.018-.313.036-.23.053-.48l.036-.48q.035-.23.035-.334-.764 1.231-1.546 1.983-.782.751-1.565 1.169-.782.397-1.529.543-.746.125-1.44.125-1.333 0-2.577-.626-1.245-.627-2.205-1.775-.96-1.169-1.529-2.797-.569-1.65-.569-3.695 0-2.067.694-3.862.71-1.816 1.938-3.152 1.226-1.357 2.88-2.13 1.653-.772 3.555-.772 2.187 0 3.858.919 1.671.918 2.791 2.588 1.138 1.67 1.707 4.05.586 2.359.586 5.24 0 2.505-.355 4.572-.338 2.066-.96 3.778-.622 1.691-1.511 3.048-.89 1.357-1.974 2.421-.693.69-1.493 1.274-.782.584-1.671 1.002-.889.438-1.867.668-.978.25-2.044.25zm2.899-14.32q.444 0 .942-.084.515-.104 1.03-.334.516-.23.996-.626.498-.397.907-1.023l.036-.564q.017-.313.017-.626.018-.313.018-.647v-.647q0-2.213-.355-3.841-.338-1.65-.925-2.735-.586-1.086-1.35-1.628-.748-.543-1.565-.543-1.778 0-2.72 1.753-.943 1.754-.943 5.052 0 3.257.996 4.885.996 1.608 2.916 1.608z" aria-label="9" style="stroke-width:1.08362997" font-weight="700" font-size="43.345" font-family="Sitka Banner" letter-spacing="0" word-spacing="0" fill="#000" stroke-width="1.084"/></svg>