<svg xmlns="http://www.w3.org/2000/svg" viewBox="0 0 348 348" fill="none"><path d="M5 6h337v337H5z" stroke-width="2" stroke="#000"/><path d="M283 41c0-9 7-16 15-16 4 0 8 2 11 5s5 7 5 11c0 8-7 15-16 15-8 0-15-7-15-15z" stroke-width="2" stroke="#000"/><path fill="#000" stroke="#000" stroke-width="1.5" d="M15 96h238v238H15z"/><path d="M155 242l-1 2v3l-1 3v1l2 2 1 1 1 6v7l2 7 3 5h2l1 2 1 2 1 3v2h3l8-3h3l2-10 1-9-1-4-3-4-3-3-1-4-1-2v-4l1-5v-2l-1-2-1-4-1-3v-8l3 3v-4l-1-7-2-6h-1l-1 1-1 1v-16h-3l-2-2-1-4-1-5-2-4-5-4 2-1 1-2-1-4-3-6-4-6-3-3h-6l-1-1-1-2-2-2-1-1h-4q-6 0-9 2l-5 6-2 9-2 8-1 1-1 2-1 2v12h-1l-1 1-1 1v1l-4 9-2 9-2 9-3 9h-1l-2 1-2 1h-1v2l-1 3-1 3v6l-1 3-2 4-2 4-1 3v1l-1 2-1 2-1 1v10l-1 6v4l7-1 4-2 2-4 1-4 2-5 2-4 2-5 2-6 2-4q2-2 5-2h19l3-1 3-2 3-2 3-1 2 1h5l4 1h4zm15 9l-1 2-2-2h1l1-1 1 1zm-14-5l2 1v4h-3l-1-2 1-2 1-1zm8-3l2 1 1 2-1 2-2 1-1-1-1-2 1-2 1-1zm-58-3l2 1v4l-2 1-1-1-1-2 1-2 1-1zm17 0l-1 2q-2 0-2-2l2-1 1 1zm18-5h1l-5 3 1-2 2-1h1zm23-6l2 2-2 1-1-1 1-1v-1zm-19-5l2 1v3l-2 1-2-1v-3l2-1zm-11-54l1 8 2 6 4 6 4 6-2 1-1 2 1 2 1 4 1 3v10l-3-3q-1 3-5 4l-8 3-8 1-6 1-1-1v-1l1-1 2-7 2-10 4-12 3-11 4-8q2-3 4-3zm33 48v2l-2 2-2 1-1 1v-1q0-2 2-3l2-2h1zm0 3l2 1v4l-2 1-1-1-1-2 1-2 1-1zm0-28l2 1v4l-2 1-1-1-1-2 1-2 1-1z" aria-label="A" font-weight="400" font-size="138.6" font-family="squeaky chalk sound" letter-spacing="0" word-spacing="0" fill="#fff"/></svg>