<svg xmlns="http://www.w3.org/2000/svg" fill="none" viewBox="0 0 348 348"><path stroke="#000" stroke-width="2" d="M5.079 5.776h336.913v337.67H5.08z"/><path stroke="#000" stroke-width="2" d="M282.734 40.554c0-8.376 6.966-15.165 15.56-15.165 4.126 0 8.084 1.597 11.001 4.441 2.918 2.844 4.558 6.702 4.558 10.724 0 8.376-6.966 15.165-15.56 15.165-8.593 0-15.559-6.79-15.559-15.165z"/><path d="M17.968 80.624h45.39v45.391h-45.39z" fill="#fff" stroke="#000" stroke-width="1.849"/><path d="M277.223 276.826h55.054v55.054h-55.054zM277.223 211.772h55.054v55.054h-55.054z" fill="#fff" stroke="#000" stroke-width="2.242"/><path d="M23.76 105.698h4.186v4.187H23.76zm4.934 0h4.187v4.187h-4.187zm-4.934 4.934h4.186v4.187H23.76zm4.934 0h4.187v4.187h-4.187zm-4.934 4.934h4.186v4.187H23.76zm4.934 0h4.187v4.187h-4.187zm4.934 0h4.187v4.187h-4.187zm4.935 0h4.186v4.187h-4.187zm5.009 0h4.186v4.187h-4.186zm4.934 0h4.186v4.187h-4.186zm4.934 0h4.187v4.187H53.44zm-29.68-29.68h4.186v4.187H23.76zm4.934 0h4.187v4.187h-4.187zm4.934 0h4.187v4.187h-4.187zm4.935 0h4.186v4.187h-4.187zm5.009 0h4.186v4.187h-4.186zm4.934 0h4.186v4.187h-4.186zm4.934 0h4.187v4.187H53.44zM23.76 90.82h4.186v4.187H23.76zm4.934 0h4.187v4.187h-4.187zm-4.934 4.935h4.186v4.186H23.76zm4.934 0h4.187v4.186h-4.187zm-4.934 4.934h4.186v4.187H23.76zm4.934 0h4.187v4.187h-4.187zm4.934 0h4.187v4.187h-4.187zm4.935 0h4.186v4.187h-4.187zm5.009 0h4.186v4.187h-4.186zm4.934 0h4.186v4.187h-4.186z" style="stroke-width:3.50445" aria-label="E" font-size="74.761" font-family="Arcade" letter-spacing="0" word-spacing="0" fill="#000" stroke-width="3.504"/><path d="M69.434 80.624h45.39v45.391h-45.39z" fill="#fff" stroke="#000" stroke-width="1.849"/><path d="M75.226 105.698h4.186v4.187h-4.186zm4.934 0h4.187v4.187H80.16zm9.869 0h4.186v4.187H90.03zm5.009 0h4.186v4.187h-4.186zm4.934 0h4.186v4.187h-4.186zm4.934 0h4.187v4.187h-4.187zm-29.68 4.934h4.186v4.187h-4.186zm4.934 0h4.187v4.187H80.16zm14.878 0h4.186v4.187h-4.186zm4.934 0h4.186v4.187h-4.186zm-19.812 4.934h4.187v4.187H80.16zm4.934 0h4.187v4.187h-4.187zm4.935 0h4.186v4.187H90.03zm9.943 0h4.186v4.187h-4.186zm4.934 0h4.187v4.187h-4.187zM80.16 85.886h4.187v4.187H80.16zm4.934 0h4.187v4.187h-4.187zm4.935 0h4.186v4.187H90.03zm5.009 0h4.186v4.187h-4.186zm4.934 0h4.186v4.187h-4.186zM75.226 90.82h4.186v4.187h-4.186zm4.934 0h4.187v4.187H80.16zm19.812 0h4.186v4.187h-4.186zm4.934 0h4.187v4.187h-4.187zm-29.68 4.935h4.186v4.186h-4.186zm4.934 0h4.187v4.186H80.16zm19.064 4.186zm.748-4.186h4.186v4.186h-4.186zm4.934 0h4.187v4.186h-4.187zm-29.68 4.934h4.186v4.187h-4.186zm4.934 0h4.187v4.187H80.16zm19.064 0zm.748 0h4.186v4.187h-4.186zm4.934 0h4.187v4.187h-4.187z" style="stroke-width:3.50445" aria-label="Q" font-size="74.761" font-family="Arcade" letter-spacing="0" word-spacing="0" fill="#000" stroke-width="3.504"/><path d="M120.9 80.624h45.39v45.391h-45.39z" fill="#fff" stroke="#000" stroke-width="1.849"/><path d="M126.692 105.698h4.186v4.187h-4.186zm4.934 0h4.187v4.187h-4.187zm4.934 0h4.187v4.187h-4.187zm4.935 0h4.186v4.187h-4.186zm5.009 0h4.186v4.187h-4.186zm4.934 0h4.187v4.187h-4.187zm4.934 0h4.187v4.187h-4.187zm-29.68 4.934h4.186v4.187h-4.186zm4.934 0h4.187v4.187h-4.187zm19.812 0h4.187v4.187h-4.187zm4.934 0h4.187v4.187h-4.187zm-29.68 4.934h4.186v4.187h-4.186zm4.934 0h4.187v4.187h-4.187zm19.812 0h4.187v4.187h-4.187zm4.934 0h4.187v4.187h-4.187zm-19.812-29.68h4.187v4.187h-4.187zm4.935 0h4.186v4.187h-4.186zm5.009 0h4.186v4.187h-4.186zm-14.878 4.934h4.187v4.187h-4.187zm4.934 0h4.187v4.187h-4.187zm9.944 0h4.186v4.187h-4.186zm4.934 0h4.187v4.187h-4.187zm-24.746 4.935h4.186v4.186h-4.186zm4.934 0h4.187v4.186h-4.187zm19.812 0h4.187v4.186h-4.187zm4.934 0h4.187v4.186h-4.187zm-29.68 4.934h4.186v4.187h-4.186zm4.934 0h4.187v4.187h-4.187zm19.812 0h4.187v4.187h-4.187zm4.934 0h4.187v4.187h-4.187z" style="stroke-width:3.50445" aria-label="A" font-size="74.761" font-family="Arcade" letter-spacing="0" word-spacing="0" fill="#000" stroke-width="3.504"/><path d="M172.366 80.624h45.391v45.391h-45.39z" fill="#fff" stroke="#000" stroke-width="1.849"/><path d="M202.904 105.698h4.187v4.187h-4.187zm4.934 0h4.187v4.187h-4.187zm-29.68 4.934h4.187v4.187h-4.187zm4.934 0h4.187v4.187h-4.187zm19.812 0h4.187v4.187h-4.187zm4.934 0h4.187v4.187h-4.187zm-24.746 4.934h4.187v4.187h-4.187zm4.934 0h4.187v4.187h-4.187zm4.935 0h4.186v4.187h-4.186zm5.009 0h4.186v4.187h-4.186zm4.934 0h4.187v4.187h-4.187zm-19.812-29.68h4.187v4.187h-4.187zm4.934 0h4.187v4.187h-4.187zm4.935 0h4.186v4.187h-4.186zm5.009 0h4.186v4.187h-4.186zm4.934 0h4.187v4.187h-4.187zm-24.746 4.934h4.187v4.187h-4.187zm4.934 0h4.187v4.187h-4.187zm19.812 0h4.187v4.187h-4.187zm4.934 0h4.187v4.187h-4.187zm-29.68 4.935h4.187v4.186h-4.187zm4.934 0h4.187v4.186h-4.187zm0 4.934h4.187v4.187h-4.187zm4.934 0h4.187v4.187h-4.187zm4.935 0h4.186v4.187h-4.186zm5.009 0h4.186v4.187h-4.186zm4.934 0h4.187v4.187h-4.187z" style="stroke-width:3.50445" aria-label="S" font-size="74.761" font-family="Arcade" letter-spacing="0" word-spacing="0" fill="#000" stroke-width="3.504"/><path d="M223.832 80.624h45.391v45.391h-45.39z" fill="#fff" stroke="#000" stroke-width="1.849"/><path d="M239.492 105.698h4.187v4.187h-4.187zm4.935 0h4.186v4.187h-4.186zm-4.935 4.934h4.187v4.187h-4.187zm4.935 0h4.186v4.187h-4.186zm-4.935 4.934h4.187v4.187h-4.187zm4.935 0h4.186v4.187h-4.186zm-14.803-29.68h4.187v4.187h-4.187zm4.934 0h4.187v4.187h-4.187zm4.934 0h4.187v4.187h-4.187zm4.935 0h4.186v4.187h-4.186zm5.009 0h4.186v4.187h-4.186zm4.934 0h4.187v4.187h-4.187zm-14.878 4.934h4.187v4.187h-4.187zm4.935 0h4.186v4.187h-4.186zm-4.935 4.935h4.187v4.186h-4.187zm4.935 0h4.186v4.186h-4.186zm-4.935 4.934h4.187v4.187h-4.187zm4.935 0h4.186v4.187h-4.186z" style="stroke-width:3.50445" aria-label="T" font-size="74.761" font-family="Arcade" letter-spacing="0" word-spacing="0" fill="#000" stroke-width="3.504"/><path d="M17.968 132.09h45.39v45.391h-45.39z" fill="#fff" stroke="#000" stroke-width="1.849"/><path d="M23.76 157.164h4.186v4.187H23.76zm4.934 0h4.187v4.187h-4.187zm19.812 0h4.186v4.187h-4.186zm4.934 0h4.187v4.187H53.44zm-29.68 4.934h4.186v4.187H23.76zm4.934 0h4.187v4.187h-4.187zm19.812 0h4.186v4.187h-4.186zm4.934 0h4.187v4.187H53.44zm-29.68 4.935h4.186v4.186H23.76zm4.934 0h4.187v4.186h-4.187zm4.934 0h4.187v4.186h-4.187zm4.935 0h4.186v4.186h-4.187zm5.009 0h4.186v4.186h-4.186zm4.934 0h4.186v4.186h-4.186zm-24.746-29.68h4.186v4.186H23.76zm4.934 0h4.187v4.186h-4.187zm4.934 0h4.187v4.186h-4.187zm4.935 0h4.186v4.186h-4.187zm5.009 0h4.186v4.186h-4.186zm4.934 0h4.186v4.186h-4.186zm-24.746 4.934h4.186v4.186H23.76zm4.934 0h4.187v4.186h-4.187zm19.812 0h4.186v4.186h-4.186zm4.934 0h4.187v4.186H53.44zm-29.68 4.934h4.186v4.186H23.76zm4.934 0h4.187v4.186h-4.187zm19.812 0h4.186v4.186h-4.186zm4.934 0h4.187v4.186H53.44zm-29.68 4.934h4.186v4.187H23.76zm4.934 0h4.187v4.187h-4.187zm19.812 0h4.186v4.187h-4.186zm4.934 0h4.187v4.187H53.44z" style="stroke-width:3.50445" aria-label="D" font-size="74.761" font-family="Arcade" letter-spacing="0" word-spacing="0" fill="#000" stroke-width="3.504"/><path d="M69.434 132.09h45.39v45.391h-45.39z" fill="#fff" stroke="#000" stroke-width="1.849"/><path d="M75.226 157.164h4.186v4.187h-4.186zm4.934 0h4.187v4.187H80.16zm9.869 0h4.186v4.187H90.03zm5.009 0h4.186v4.187h-4.186zm-19.812 4.934h4.186v4.187h-4.186zm4.934 0h4.187v4.187H80.16zm14.878 0h4.186v4.187h-4.186zm4.934 0h4.186v4.187h-4.186zm-24.746 4.935h4.186v4.186h-4.186zm4.934 0h4.187v4.186H80.16zm19.812 0h4.186v4.186h-4.186zm4.934 0h4.187v4.186h-4.187zm-29.68-29.68h4.186v4.186h-4.186zm4.934 0h4.187v4.186H80.16zm4.934 0h4.187v4.186h-4.187zm4.935 0h4.186v4.186H90.03zm5.009 0h4.186v4.186h-4.186zm4.934 0h4.186v4.186h-4.186zm-24.746 4.934h4.186v4.186h-4.186zm4.934 0h4.187v4.186H80.16zm19.812 0h4.186v4.186h-4.186zm4.934 0h4.187v4.186h-4.187zm-29.68 4.934h4.186v4.186h-4.186zm4.934 0h4.187v4.186H80.16zm19.812 0h4.186v4.186h-4.186zm4.934 0h4.187v4.186h-4.187zm-29.68 4.934h4.186v4.187h-4.186zm4.934 0h4.187v4.187H80.16zm4.934 0h4.187v4.187h-4.187zm4.935 0h4.186v4.187H90.03zm5.009 0h4.186v4.187h-4.186zm4.934 0h4.186v4.187h-4.186z" style="stroke-width:3.50445" aria-label="R" font-size="74.761" font-family="Arcade" letter-spacing="0" word-spacing="0" fill="#000" stroke-width="3.504"/><path d="M120.9 132.09h45.39v45.391h-45.39z" fill="#fff" stroke="#000" stroke-width="1.849"/><path d="M126.692 157.164h4.186v4.187h-4.186zm4.934 0h4.187v4.187h-4.187zm19.812 0h4.187v4.187h-4.187zm4.934 0h4.187v4.187h-4.187zm-29.68 4.934h4.186v4.187h-4.186zm4.934 0h4.187v4.187h-4.187zm19.812 0h4.187v4.187h-4.187zm4.934 0h4.187v4.187h-4.187zm-29.68 4.935h4.186v4.186h-4.186zm4.934 0h4.187v4.186h-4.187zm19.812 0h4.187v4.186h-4.187zm4.934 0h4.187v4.186h-4.187zm-29.68-29.68h4.186v4.186h-4.186zm4.934 0h4.187v4.186h-4.187zm19.812 0h4.187v4.186h-4.187zm4.934 0h4.187v4.186h-4.187zm-29.68 4.934h4.186v4.186h-4.186zm4.934 0h4.187v4.186h-4.187zm19.812 0h4.187v4.186h-4.187zm4.934 0h4.187v4.186h-4.187zm-29.68 4.934h4.186v4.186h-4.186zm4.934 0h4.187v4.186h-4.187zm19.812 0h4.187v4.186h-4.187zm4.934 0h4.187v4.186h-4.187zm-29.68 4.934h4.186v4.187h-4.186zm4.934 0h4.187v4.187h-4.187zm4.934 0h4.187v4.187h-4.187zm4.935 0h4.186v4.187h-4.186zm5.009 0h4.186v4.187h-4.186zm4.934 0h4.187v4.187h-4.187zm4.934 0h4.187v4.187h-4.187z" style="stroke-width:3.50445" aria-label="H" font-size="74.761" font-family="Arcade" letter-spacing="0" word-spacing="0" fill="#000" stroke-width="3.504"/><path d="M172.366 132.09h45.391v45.391h-45.39z" fill="#fff" stroke="#000" stroke-width="1.849"/><path d="M178.158 157.164h4.187v4.187h-4.187zm4.934 0h4.187v4.187h-4.187zm-4.934 4.934h4.187v4.187h-4.187zm4.934 0h4.187v4.187h-4.187zm-4.934 4.935h4.187v4.186h-4.187zm4.934 0h4.187v4.186h-4.187zm-4.934-29.68h4.187v4.186h-4.187zm4.934 0h4.187v4.186h-4.187zm4.934 0h4.187v4.186h-4.187zm4.935 0h4.186v4.186h-4.186zm5.009 0h4.186v4.186h-4.186zm4.934 0h4.187v4.186h-4.187zm-24.746 4.934h4.187v4.186h-4.187zm4.934 0h4.187v4.186h-4.187zm19.812 0h4.187v4.186h-4.187zm4.934 0h4.187v4.186h-4.187zm-29.68 4.934h4.187v4.186h-4.187zm4.934 0h4.187v4.186h-4.187zm19.812 0h4.187v4.186h-4.187zm4.934 0h4.187v4.186h-4.187zm-29.68 4.934h4.187v4.187h-4.187zm4.934 0h4.187v4.187h-4.187zm4.934 0h4.187v4.187h-4.187zm4.935 0h4.186v4.187h-4.186zm5.009 0h4.186v4.187h-4.186zm4.934 0h4.187v4.187h-4.187z" style="stroke-width:3.50445" aria-label="P" font-size="74.761" font-family="Arcade" letter-spacing="0" word-spacing="0" fill="#000" stroke-width="3.504"/><path d="M223.832 132.09h45.391v45.391h-45.39z" fill="#fff" stroke="#000" stroke-width="1.849"/><path d="M239.492 157.164h4.187v4.187h-4.187zm4.935 0h4.186v4.187h-4.186zm-4.935 4.934h4.187v4.187h-4.187zm4.935 0h4.186v4.187h-4.186zm-4.935 4.935h4.187v4.186h-4.187zm4.935 0h4.186v4.186h-4.186zm-14.803-29.68h4.187v4.186h-4.187zm4.934 0h4.187v4.186h-4.187zm14.878 0h4.186v4.186h-4.186zm4.934 0h4.187v4.186h-4.187zm-24.746 4.934h4.187v4.186h-4.187zm4.934 0h4.187v4.186h-4.187zm14.878 0h4.186v4.186h-4.186zm4.934 0h4.187v4.186h-4.187zm-24.746 4.934h4.187v4.186h-4.187zm4.934 0h4.187v4.186h-4.187zm14.878 0h4.186v4.186h-4.186zm4.934 0h4.187v4.186h-4.187zm-19.812 4.934h4.187v4.187h-4.187zm4.934 0h4.187v4.187h-4.187zm4.935 0h4.186v4.187h-4.186zm5.009 0h4.186v4.187h-4.186z" style="stroke-width:3.50445" aria-label="Y" font-size="74.761" font-family="Arcade" letter-spacing="0" word-spacing="0" fill="#000" stroke-width="3.504"/><path d="M17.968 183.557h45.39v45.39h-45.39z" fill="#fff" stroke="#000" stroke-width="1.849"/><path d="M23.76 208.63h4.186v4.187H23.76zm4.934 0h4.187v4.187h-4.187zm14.878 0h4.186v4.187h-4.186zm4.934 0h4.186v4.187h-4.186zm4.934 0h4.187v4.187H53.44zm-29.68 4.934h4.186v4.187H23.76zm4.934 0h4.187v4.187h-4.187zm19.812 0h4.186v4.187h-4.186zm4.934 0h4.187v4.187H53.44zM23.76 218.5h4.186v4.186H23.76zm4.934 0h4.187v4.186h-4.187zm19.812 0h4.186v4.186h-4.186zm4.934 0h4.187v4.186H53.44zm-29.68-29.68h4.186v4.186H23.76zm4.934 0h4.187v4.186h-4.187zm19.812 0h4.186v4.186h-4.186zm4.934 0h4.187v4.186H53.44zm-29.68 4.934h4.186v4.186H23.76zm4.934 0h4.187v4.186h-4.187zm4.934 0h4.187v4.186h-4.187zm14.878 0h4.186v4.186h-4.186zm4.934 0h4.187v4.186H53.44zm-29.68 4.934h4.186v4.186H23.76zm4.934 0h4.187v4.186h-4.187zm4.934 0h4.187v4.186h-4.187zm4.935 0h4.186v4.186h-4.187zm9.943 0h4.186v4.186h-4.186zm4.934 0h4.187v4.186H53.44zm-29.68 4.934h4.186v4.187H23.76zm4.934 0h4.187v4.187h-4.187zm9.869 0h4.186v4.187h-4.187zm5.009 0h4.186v4.187h-4.186zm4.934 0h4.186v4.187h-4.186zm4.934 0h4.187v4.187H53.44z" style="stroke-width:3.50445" aria-label="N" font-size="74.761" font-family="Arcade" letter-spacing="0" word-spacing="0" fill="#000" stroke-width="3.504"/><path d="M69.434 183.557h45.39v45.39h-45.39z" fill="#fff" stroke="#000" stroke-width="1.849"/><path d="M95.038 208.63h4.186v4.187h-4.186zm4.934 0h4.186v4.187h-4.186zm-24.746 4.934h4.186v4.187h-4.186zm4.934 0h4.187v4.187H80.16zm14.878 0h4.186v4.187h-4.186zm4.934 0h4.186v4.187h-4.186zM80.16 218.5h4.187v4.186H80.16zm4.934 0h4.187v4.186h-4.187zm4.935 0h4.186v4.186H90.03zm5.009 0h4.186v4.186h-4.186zm-9.944-29.68h4.187v4.186h-4.187zm4.935 0h4.186v4.186H90.03zm5.009 0h4.186v4.186h-4.186zm4.934 0h4.186v4.186h-4.186zm4.934 0h4.187v4.186h-4.187zm-9.868 4.934h4.186v4.186h-4.186zm4.934 0h4.186v4.186h-4.186zm-4.934 4.934h4.186v4.186h-4.186zm4.934 0h4.186v4.186h-4.186zm-4.934 4.934h4.186v4.187h-4.186zm4.934 0h4.186v4.187h-4.186z" style="stroke-width:3.50445" aria-label="J" font-size="74.761" font-family="Arcade" letter-spacing="0" word-spacing="0" fill="#000" stroke-width="3.504"/><path d="M120.9 183.557h45.39v45.39h-45.39z" fill="#fff" stroke="#000" stroke-width="1.849"/><path d="M126.692 208.63h4.186v4.187h-4.186zm4.934 0h4.187v4.187h-4.187zm19.812 0h4.187v4.187h-4.187zm4.934 0h4.187v4.187h-4.187zm-29.68 4.934h4.186v4.187h-4.186zm4.934 0h4.187v4.187h-4.187zm19.812 0h4.187v4.187h-4.187zm4.934 0h4.187v4.187h-4.187zm-24.746 4.935h4.187v4.186h-4.187zm4.934 0h4.187v4.186h-4.187zm4.935 0h4.186v4.186h-4.186zm5.009 0h4.186v4.186h-4.186zm4.934 0h4.187v4.186h-4.187zm-24.746-29.68h4.186v4.186h-4.186zm4.934 0h4.187v4.186h-4.187zm19.812 0h4.187v4.186h-4.187zm4.934 0h4.187v4.186h-4.187zm-29.68 4.934h4.186v4.186h-4.186zm4.934 0h4.187v4.186h-4.187zm19.812 0h4.187v4.186h-4.187zm4.934 0h4.187v4.186h-4.187zm-29.68 4.934h4.186v4.186h-4.186zm4.934 0h4.187v4.186h-4.187zm19.812 0h4.187v4.186h-4.187zm4.934 0h4.187v4.186h-4.187zm-29.68 4.934h4.186v4.187h-4.186zm4.934 0h4.187v4.187h-4.187zm19.812 0h4.187v4.187h-4.187zm4.934 0h4.187v4.187h-4.187z" style="stroke-width:3.50445" aria-label="U" font-size="74.761" font-family="Arcade" letter-spacing="0" word-spacing="0" fill="#000" stroke-width="3.504"/><path d="M172.366 183.557h45.391v45.39h-45.39z" fill="#fff" stroke="#000" stroke-width="1.849"/><path d="M178.158 208.63h4.187v4.187h-4.187zm4.934 0h4.187v4.187h-4.187zm19.812 0h4.187v4.187h-4.187zm4.934 0h4.187v4.187h-4.187zm-29.68 4.934h4.187v4.187h-4.187zm4.934 0h4.187v4.187h-4.187zm19.812 0h4.187v4.187h-4.187zm4.934 0h4.187v4.187h-4.187zm-24.746 4.935h4.187v4.186h-4.187zm4.934 0h4.187v4.186h-4.187zm4.935 0h4.186v4.186h-4.186zm5.009 0h4.186v4.186h-4.186zm4.934 0h4.187v4.186h-4.187zm-19.812-29.68h4.187v4.186h-4.187zm4.934 0h4.187v4.186h-4.187zm4.935 0h4.186v4.186h-4.186zm5.009 0h4.186v4.186h-4.186zm4.934 0h4.187v4.186h-4.187zm-24.746 4.934h4.187v4.186h-4.187zm4.934 0h4.187v4.186h-4.187zm19.812 0h4.187v4.186h-4.187zm4.934 0h4.187v4.186h-4.187zm-29.68 4.934h4.187v4.186h-4.187zm4.934 0h4.187v4.186h-4.187zm-4.934 4.934h4.187v4.187h-4.187zm4.934 0h4.187v4.187h-4.187zm14.878 0h4.186v4.187h-4.186zm4.934 0h4.187v4.187h-4.187zm4.934 0h4.187v4.187h-4.187z" style="stroke-width:3.50445" aria-label="G" font-size="74.761" font-family="Arcade" letter-spacing="0" word-spacing="0" fill="#000" stroke-width="3.504"/><path d="M223.832 183.557h45.391v45.39h-45.39z" fill="#fff" stroke="#000" stroke-width="1.849"/><path d="M239.492 208.63h4.187v4.187h-4.187zm4.935 0h4.186v4.187h-4.186zm-4.935 4.934h4.187v4.187h-4.187zm4.935 0h4.186v4.187h-4.186zm-14.803 4.935h4.187v4.186h-4.187zm4.934 0h4.187v4.186h-4.187zm4.934 0h4.187v4.186h-4.187zm4.935 0h4.186v4.186h-4.186zm5.009 0h4.186v4.186h-4.186zm4.934 0h4.187v4.186h-4.187zm-24.746-29.68h4.187v4.186h-4.187zm4.934 0h4.187v4.186h-4.187zm4.934 0h4.187v4.186h-4.187zm4.935 0h4.186v4.186h-4.186zm5.009 0h4.186v4.186h-4.186zm4.934 0h4.187v4.186h-4.187zm-14.878 4.934h4.187v4.186h-4.187zm4.935 0h4.186v4.186h-4.186zm-4.935 4.934h4.187v4.186h-4.187zm4.935 0h4.186v4.186h-4.186zm-4.935 4.934h4.187v4.187h-4.187zm4.935 0h4.186v4.187h-4.186z" style="stroke-width:3.50445" aria-label="I" font-size="74.761" font-family="Arcade" letter-spacing="0" word-spacing="0" fill="#000" stroke-width="3.504"/><path d="M17.968 235.023h45.39v45.39h-45.39z" fill="#fff" stroke="#000" stroke-width="1.849"/><path d="M23.76 260.096h4.186v4.187H23.76zm4.934 0h4.187v4.187h-4.187zm4.934 0h4.187v4.187h-4.187zm4.934 0h4.187v4.187h-4.187zm5.01 0h4.186v4.187h-4.186zM23.76 265.03h4.186v4.187H23.76zm4.934 0h4.187v4.187h-4.187zm9.868 0h4.187v4.187h-4.187zm5.01 0h4.186v4.187h-4.186zm4.934 0h4.186v4.187h-4.186zm-24.746 4.935h4.186v4.186H23.76zm4.934 0h4.187v4.186h-4.187zm19.812 0h4.186v4.186h-4.186zm4.934 0h4.187v4.186H53.44zm-29.68-29.68h4.186v4.186H23.76zm4.934 0h4.187v4.186h-4.187zm19.812 0h4.186v4.186h-4.186zm4.934 0h4.187v4.186H53.44zm-29.68 4.934h4.186v4.186H23.76zm4.934 0h4.187v4.186h-4.187zm14.878 0h4.186v4.186h-4.186zm4.934 0h4.186v4.186h-4.186zm-24.746 4.934h4.186v4.187H23.76zm4.934 0h4.187v4.187h-4.187zm9.868 0h4.187v4.187h-4.187zm5.01 0h4.186v4.187h-4.186zm-19.812 4.934h4.186v4.187H23.76zm4.934 0h4.187v4.187h-4.187zm4.934 0h4.187v4.187h-4.187zm4.934 0h4.187v4.187h-4.187z" style="stroke-width:3.50445" aria-label="K" font-size="74.761" font-family="Arcade" letter-spacing="0" word-spacing="0" fill="#000" stroke-width="3.504"/><path d="M69.434 235.023h45.39v45.39h-45.39z" fill="#fff" stroke="#000" stroke-width="1.849"/><path d="M75.226 260.096h4.186v4.187h-4.186zm4.934 0h4.187v4.187H80.16zm-4.934 4.934h4.186v4.187h-4.186zm4.934 0h4.187v4.187H80.16zm19.812 0h4.186v4.187h-4.186zm4.934 0h4.187v4.187h-4.187zm-24.746 4.935h4.187v4.186H80.16zm4.934 0h4.187v4.186h-4.187zm4.935 0h4.186v4.186H90.03zm5.009 0h4.186v4.186h-4.186zm4.934 0h4.186v4.186h-4.186zm-19.812-29.68h4.187v4.186H80.16zm4.934 0h4.187v4.186h-4.187zm4.935 0h4.186v4.186H90.03zm5.009 0h4.186v4.186h-4.186zm4.934 0h4.186v4.186h-4.186zm-24.746 4.934h4.186v4.186h-4.186zm4.934 0h4.187v4.186H80.16zm19.812 0h4.186v4.186h-4.186zm4.934 0h4.187v4.186h-4.187zm-29.68 4.934h4.186v4.186h-4.186zm4.934 0h4.187v4.186H80.16zm-4.934 4.934h4.186v4.187h-4.186zm4.934 0h4.187v4.187H80.16z" style="stroke-width:3.50445" aria-label="C" font-size="74.761" font-family="Arcade" letter-spacing="0" word-spacing="0" fill="#000" stroke-width="3.504"/><path d="M120.9 235.023h45.39v45.39h-45.39z" fill="#fff" stroke="#000" stroke-width="1.849"/><path d="M126.692 260.096h4.186v4.187h-4.186zm4.934 0h4.187v4.187h-4.187zm-4.934 4.934h4.186v4.187h-4.186zm4.934 0h4.187v4.187h-4.187zm-4.934 4.935h4.186v4.186h-4.186zm4.934 0h4.187v4.186h-4.187zm-4.934-29.68h4.186v4.186h-4.186zm4.934 0h4.187v4.186h-4.187zm4.934 0h4.187v4.186h-4.187zm4.935 0h4.186v4.186h-4.186zm5.009 0h4.186v4.186h-4.186zm4.934 0h4.187v4.186h-4.187zm4.934 0h4.187v4.186h-4.187zm-29.68 4.934h4.186v4.186h-4.186zm4.934 0h4.187v4.186h-4.187zm-4.934 4.934h4.186v4.187h-4.186zm4.934 0h4.187v4.187h-4.187zm-4.934 4.934h4.186v4.187h-4.186zm4.934 0h4.187v4.187h-4.187zm4.934 0h4.187v4.187h-4.187zm4.935 0h4.186v4.187h-4.186zm5.009 0h4.186v4.187h-4.186zm4.934 0h4.187v4.187h-4.187z" style="stroke-width:3.50445" aria-label="F" font-size="74.761" font-family="Arcade" letter-spacing="0" word-spacing="0" fill="#000" stroke-width="3.504"/><path d="M172.366 235.023h45.391v45.39h-45.39z" fill="#fff" stroke="#000" stroke-width="1.849"/><path d="M183.092 260.096h4.187v4.187h-4.187zm4.934 0h4.187v4.187h-4.187zm9.944 0h4.186v4.187h-4.186zm4.934 0h4.187v4.187h-4.187zm-24.746 4.934h4.187v4.187h-4.187zm4.934 0h4.187v4.187h-4.187zm19.812 0h4.187v4.187h-4.187zm4.934 0h4.187v4.187h-4.187zm-29.68 4.935h4.187v4.186h-4.187zm29.68 0h4.187v4.186h-4.187zm-29.68-29.68h4.187v4.186h-4.187zm4.934 0h4.187v4.186h-4.187zm23.999 4.186zm.747-4.187h4.187v4.187h-4.187zm-24.746 4.935h4.187v4.186h-4.187zm4.934 0h4.187v4.186h-4.187zm9.944 0h4.186v4.186h-4.186zm4.934 0h4.187v4.186h-4.187zm-14.878 4.934h4.187v4.186h-4.187zm4.935 0h4.186v4.186h-4.186zm5.009 0h4.186v4.186h-4.186zm-9.944 4.934h4.187v4.187h-4.187zm4.935 0h4.186v4.187h-4.186zm5.009 0h4.186v4.187h-4.186zm4.934-14.803h4.187v4.187h-4.187z" style="stroke-width:3.50445" aria-label="X" font-size="74.761" font-family="Arcade" letter-spacing="0" word-spacing="0" fill="#000" stroke-width="3.504"/><path d="M223.832 235.023h45.391v45.39h-45.39z" fill="#fff" stroke="#000" stroke-width="1.849"/><path d="M234.558 260.096h4.187v4.187h-4.187zm4.934 0h4.187v4.187h-4.187zm-9.868 4.934h4.187v4.187h-4.187zm4.934 0h4.187v4.187h-4.187zm-4.934 4.935h4.187v4.186h-4.187zm4.934 0h4.187v4.186h-4.187zm4.934 0h4.187v4.186h-4.187zm4.935 0h4.186v4.186h-4.186zm5.009 0h4.186v4.186h-4.186zm4.934 0h4.187v4.186h-4.187zm4.934 0h4.187v4.186h-4.187zm-29.68-29.68h4.187v4.186h-4.187zm4.934 0h4.187v4.186h-4.187zm4.934 0h4.187v4.186h-4.187zm4.935 0h4.186v4.186h-4.186zm5.009 0h4.186v4.186h-4.186zm4.934 0h4.187v4.186h-4.187zm4.934 0h4.187v4.186h-4.187zm-9.868 4.934h4.186v4.186h-4.186zm4.934 0h4.187v4.186h-4.187zm-9.943 4.934h4.186v4.186h-4.186zm5.009 0h4.186v4.186h-4.186zm-9.944 4.934h4.187v4.187h-4.187zm4.935 0h4.186v4.187h-4.186z" style="stroke-width:3.50445" aria-label="Z" font-size="74.761" font-family="Arcade" letter-spacing="0" word-spacing="0" fill="#000" stroke-width="3.504"/><path d="M17.968 286.489h45.39v45.39h-45.39z" fill="#fff" stroke="#000" stroke-width="1.849"/><path d="M23.76 311.562h4.186v4.187H23.76zm4.934 0h4.187v4.187h-4.187zm19.812 0h4.186v4.187h-4.186zm4.934 0h4.187v4.187H53.44zm-24.746 4.934h4.187v4.187h-4.187zm4.934 0h4.187v4.187h-4.187zm9.944 0h4.186v4.187h-4.186zm4.934 0h4.186v4.187h-4.186zm-14.878 4.935h4.187v4.186h-4.187zm4.934 0h4.187v4.186h-4.187zm5.01 0h4.186v4.186h-4.186zM23.76 291.75h4.186v4.186H23.76zm4.934 0h4.187v4.186h-4.187zm19.812 0h4.186v4.186h-4.186zm4.934 0h4.187v4.186H53.44zm-29.68 4.934h4.186v4.186H23.76zm4.934 0h4.187v4.186h-4.187zm19.812 0h4.186v4.186h-4.186zm4.934 0h4.187v4.186H53.44zm-29.68 4.934h4.186v4.187H23.76zm4.934 0h4.187v4.187h-4.187zm19.812 0h4.186v4.187h-4.186zm4.934 0h4.187v4.187H53.44zm-29.68 4.934h4.186v4.187H23.76zm4.934 0h4.187v4.187h-4.187zm19.812 0h4.186v4.187h-4.186zm4.934 0h4.187v4.187H53.44z" style="stroke-width:3.50445" aria-label="V" font-size="74.761" font-family="Arcade" letter-spacing="0" word-spacing="0" fill="#000" stroke-width="3.504"/><path d="M69.434 286.489h45.39v45.39h-45.39z" fill="#fff" stroke="#000" stroke-width="1.849"/><path d="M75.226 311.562h4.186v4.187h-4.186zm4.934 0h4.187v4.187H80.16zm-4.934 4.934h4.186v4.187h-4.186zm4.934 0h4.187v4.187H80.16zm-4.934 4.935h4.186v4.186h-4.186zm4.934 0h4.187v4.186H80.16zm4.934 0h4.187v4.186h-4.187zm4.935 0h4.186v4.186H90.03zm5.009 0h4.186v4.186h-4.186zm4.934 0h4.186v4.186h-4.186zm4.934 0h4.187v4.186h-4.187zm-29.68-29.68h4.186v4.186h-4.186zm4.934 0h4.187v4.186H80.16zm-4.934 4.934h4.186v4.186h-4.186zm4.934 0h4.187v4.186H80.16zm-4.934 4.934h4.186v4.187h-4.186zm4.934 0h4.187v4.187H80.16zm-4.934 4.934h4.186v4.187h-4.186zm4.934 0h4.187v4.187H80.16z" style="stroke-width:3.50445" aria-label="L" font-size="74.761" font-family="Arcade" letter-spacing="0" word-spacing="0" fill="#000" stroke-width="3.504"/><path d="M120.9 286.489h45.39v45.39h-45.39z" fill="#fff" stroke="#000" stroke-width="1.849"/><path d="M126.692 311.562h4.186v4.187h-4.186zm4.934 0h4.187v4.187h-4.187zm19.812 0h4.187v4.187h-4.187zm4.934 0h4.187v4.187h-4.187zm-29.68 4.934h4.186v4.187h-4.186zm4.934 0h4.187v4.187h-4.187zm19.812 0h4.187v4.187h-4.187zm4.934 0h4.187v4.187h-4.187zm-29.68 4.935h4.186v4.186h-4.186zm4.934 0h4.187v4.186h-4.187zm4.934 0h4.187v4.186h-4.187zm4.935 0h4.186v4.186h-4.186zm5.009 0h4.186v4.186h-4.186zm4.934 0h4.187v4.186h-4.187zm-24.746-29.68h4.186v4.186h-4.186zm4.934 0h4.187v4.186h-4.187zm4.934 0h4.187v4.186h-4.187zm4.935 0h4.186v4.186h-4.186zm5.009 0h4.186v4.186h-4.186zm4.934 0h4.187v4.186h-4.187zm-24.746 4.934h4.186v4.186h-4.186zm4.934 0h4.187v4.186h-4.187zm19.812 0h4.187v4.186h-4.187zm4.934 0h4.187v4.186h-4.187zm-29.68 4.934h4.186v4.187h-4.186zm4.934 0h4.187v4.187h-4.187zm19.812 0h4.187v4.187h-4.187zm4.934 0h4.187v4.187h-4.187zm-29.68 4.934h4.186v4.187h-4.186zm4.934 0h4.187v4.187h-4.187zm4.934 0h4.187v4.187h-4.187zm4.935 0h4.186v4.187h-4.186zm5.009 0h4.186v4.187h-4.186zm4.934 0h4.187v4.187h-4.187z" style="stroke-width:3.50445" aria-label="B" font-size="74.761" font-family="Arcade" letter-spacing="0" word-spacing="0" fill="#000" stroke-width="3.504"/><path d="M172.366 286.489h45.391v45.39h-45.39z" fill="#fff" stroke="#000" stroke-width="1.849"/><path d="M178.158 311.562h4.187v4.187h-4.187zm4.934 0h4.187v4.187h-4.187zm9.869 0h4.186v4.187h-4.186zm9.943 0h4.187v4.187h-4.187zm4.934 0h4.187v4.187h-4.187zm-29.68 4.934h4.187v4.187h-4.187zm4.934 0h4.187v4.187h-4.187zm19.812 0h4.187v4.187h-4.187zm4.934 0h4.187v4.187h-4.187zm-29.68 4.935h4.187v4.186h-4.187zm4.934 0h4.187v4.186h-4.187zm19.812 0h4.187v4.186h-4.187zm4.934 0h4.187v4.186h-4.187zm-29.68-29.68h4.187v4.186h-4.187zm29.68 0h4.187v4.186h-4.187zm-29.68 4.934h4.187v4.186h-4.187zm4.934 0h4.187v4.186h-4.187zm19.812 0h4.187v4.186h-4.187zm4.934 0h4.187v4.186h-4.187zm-29.68 4.934h4.187v4.187h-4.187zm4.934 0h4.187v4.187h-4.187zm4.934 0h4.187v4.187h-4.187zm9.944 0h4.186v4.187h-4.186zm4.934 0h4.187v4.187h-4.187zm4.934 0h4.187v4.187h-4.187zm-29.68 4.934h4.187v4.187h-4.187zm4.934 0h4.187v4.187h-4.187zm4.934 0h4.187v4.187h-4.187zm4.935 0h4.186v4.187h-4.186zm5.009 0h4.186v4.187h-4.186zm4.934 0h4.187v4.187h-4.187zm4.934 0h4.187v4.187h-4.187z" style="stroke-width:3.50445" aria-label="M" font-size="74.761" font-family="Arcade" letter-spacing="0" word-spacing="0" fill="#000" stroke-width="3.504"/><path d="M223.832 286.489h45.391v45.39h-45.39z" fill="#fff" stroke="#000" stroke-width="1.849"/><path d="M229.624 311.562h4.187v4.187h-4.187zm4.934 0h4.187v4.187h-4.187zm9.869 0h4.186v4.187h-4.186zm9.943 0h4.187v4.187h-4.187zm4.934 0h4.187v4.187h-4.187zm-29.68 4.934h4.187v4.187h-4.187zm4.934 0h4.187v4.187h-4.187zm4.934 0h4.187v4.187h-4.187zm4.935 0h4.186v4.187h-4.186zm5.009 0h4.186v4.187h-4.186zm4.934 0h4.187v4.187h-4.187zm4.934 0h4.187v4.187h-4.187zm-24.746 4.935h4.187v4.186h-4.187zm4.934 0h4.187v4.186h-4.187zm9.944 0h4.186v4.186h-4.186zm4.934 0h4.187v4.186h-4.187zm-24.746-29.68h4.187v4.186h-4.187zm4.934 0h4.187v4.186h-4.187zm19.812 0h4.187v4.186h-4.187zm4.934 0h4.187v4.186h-4.187zm-29.68 4.934h4.187v4.186h-4.187zm4.934 0h4.187v4.186h-4.187zm19.812 0h4.187v4.186h-4.187zm4.934 0h4.187v4.186h-4.187zm-29.68 4.934h4.187v4.187h-4.187zm4.934 0h4.187v4.187h-4.187zm19.812 0h4.187v4.187h-4.187zm4.934 0h4.187v4.187h-4.187zm-29.68 4.934h4.187v4.187h-4.187zm4.934 0h4.187v4.187h-4.187zm19.812 0h4.187v4.187h-4.187zm4.934 0h4.187v4.187h-4.187z" style="stroke-width:3.50445" aria-label="W" font-size="74.761" font-family="Arcade" letter-spacing="0" word-spacing="0" fill="#000" stroke-width="3.504"/><g style="line-height:1.25;-inkscape-font-specification:Arcade"><path style="-inkscape-font-specification:'Karma Future'" d="M317.851 216.305l.809 4.041v40.607h-8.511l-.951-4.613h-.143v-10.793h-7.037v15.406h-8.511l-.951-4.613h-.143V215.45h8.796v.856l.809 4.041v10.509h7.037v-15.406h8.796zm-2.377 1.521h-4.042v15.406h-12.6v-15.406h-4.042v36.137h4.042v-15.406h12.6v15.406h4.042z" font-weight="400" font-family="Karma Future" aria-label="H" font-size="47.548" letter-spacing="0" word-spacing="0" fill="#000" stroke-width="2.229"/></g><path d="M290.102 323.21l-.495-37.817 32.998 18.48z" fill="#000" stroke="#000" stroke-width="2.435"/></svg>