<svg xmlns="http://www.w3.org/2000/svg" viewBox="0 0 348 348" fill="none" stroke-linecap="square" stroke-miterlimit="10"><clipPath id="a"><path d="M0 0h348v348H0V0z"/></clipPath><g clip-path="url(#a)"><path d="M0 0h348v348H0z"/><path d="M5.08 5.78h336.91v337.67H5.08z"/><path d="M5.08 5.78h336.91v337.67H5.08z" stroke-linejoin="round" stroke-linecap="butt" stroke-width="2" stroke="#000"/><path d="M282.73 40.55c0-8.37 6.97-15.16 15.56-15.16 4.13 0 8.09 1.6 11 4.44a14.97 14.97 0 0 1 4.56 10.72c0 8.38-6.96 15.17-15.56 15.17-8.59 0-15.56-6.8-15.56-15.17z" fill="#fff"/><path d="M47.03 61.74h29.16v225.74H47.03zm210.54 44.85h29.16v178.2h-29.16z"/><path d="M61.6 94.06c10.85-2.33 19.53 12.06 30.57 13.16 24.5 2.45 49.26-2.85 73.83-1.41 11.7.69 20.14 12.75 31.51 15.52 25.01 6.1 50.7 9.06 76.19 12.7m-208.33-3.77c24.47-11.12 52.6 13.95 79.47 13.64 23.99-.28 49.31-7.9 71.96 0 18.92 6.6 43.66 30.64 57.84 16.46m-212.56 2.82c13.59-1.78 28.33-9.68 40.91-4.23 8.54 3.7 7.23 21.33 16.46 22.57 30.32 4.1 61.21-1.6 91.7-4.23 21.87-1.88 43.42 8 65.37 8m-215.39 5.17c14.41-.97 29.28-5.96 43.27-2.35 11.18 2.88 21.44 9.52 32.92 10.81 22.41 2.53 45.29 2.38 67.25 7.53 11.84 2.78 21.62 5.82 29.15 6.11 13.8.53 29.04-7.58 41.39-1.4M61.13 262.4c9.03 12.4 31.7 12.57 45.62 6.11 10.12-4.7 18-16.46 29.16-16.46 9.07 0 18.35 1.42 26.8 4.7 6.33 2.46 4.53 16.4 11.29 16.94 32.75 2.56 66.42.92 98.29-7.06M66.3 227.61c46.12-8.54 94.7 5.86 139.2 20.7 8.91 2.96 16.02-11.54 25.4-12.23 14.25-1.06 28.5 2.82 42.79 2.82"/><rect width="220.71" height="41.52" x="94" y="42.07" rx="1.03" fill="#000"/><rect width="220.71" height="41.52" x="94" y="92.01" rx="1.03" fill="#000"/><g aria-label="[Display]" style="line-height:125%;text-align:center" font-weight="400" font-size="35" font-family="sans-serif" letter-spacing="0" word-spacing="0" text-anchor="middle" fill="#fff" stroke-linecap="butt"><path d="M137.5 79.3h-8.89V46h8.89v2.45h-5.91v28.4h5.9zM165.37 59.9q0 3.47-1.52 6.3-1.5 2.81-4.01 4.37-1.75 1.07-3.9 1.55-2.14.48-5.64.48h-6.43V47.15h6.36q3.73 0 5.91.55 2.2.53 3.73 1.47 2.6 1.62 4.05 4.32 1.45 2.7 1.45 6.41zm-3.53-.05q0-2.99-1.05-5.04-1.04-2.05-3.1-3.23-1.51-.85-3.2-1.18-1.7-.34-4.05-.34h-3.18V69.7h3.18q2.44 0 4.25-.36 1.83-.36 3.35-1.34 1.9-1.21 2.84-3.2.96-1.97.96-4.95zM174.07 50.32h-3.62v-3.34h3.62zm-.2 22.28h-3.22V53.51h3.22zM193.9 67.1q0 2.61-2.17 4.29-2.16 1.67-5.9 1.67-2.12 0-3.9-.5-1.76-.5-2.95-1.1v-3.61h.17q1.52 1.15 3.38 1.83 1.86.67 3.57.67 2.12 0 3.32-.69 1.2-.68 1.2-2.15 0-1.13-.65-1.71-.65-.58-2.5-1-.68-.15-1.8-.35-1.09-.2-2-.45-2.5-.66-3.57-1.94-1.04-1.3-1.04-3.18 0-1.18.48-2.22.5-1.05 1.49-1.87.95-.8 2.42-1.26 1.5-.48 3.32-.48 1.7 0 3.45.43 1.76.4 2.92 1v3.44h-.17q-1.23-.9-2.99-1.52-1.76-.63-3.45-.63-1.76 0-2.97.68-1.22.67-1.22 2 0 1.18.74 1.78.72.6 2.32.97.9.2 1.98.41 1.12.2 1.85.38 2.24.51 3.45 1.76 1.22 1.26 1.22 3.35zM215.3 62.83q0 2.32-.66 4.25-.66 1.92-1.88 3.25-1.12 1.26-2.66 1.96-1.52.69-3.23.69-1.49 0-2.7-.33-1.2-.32-2.45-1v8h-3.21V53.5h3.21v2q1.28-1.08 2.87-1.8 1.61-.73 3.42-.73 3.45 0 5.37 2.62 1.93 2.6 1.93 7.23zm-3.3.08q0-3.45-1.19-5.16-1.17-1.7-3.62-1.7-1.38 0-2.78.59-1.4.6-2.69 1.57v10.82q1.37.61 2.34.84 1 .22 2.24.22 2.69 0 4.19-1.81 1.5-1.81 1.5-5.37zM223.56 72.6h-3.2V46h3.2zM244.79 72.6h-3.2v-2.03l-1.16.82q-.72.51-1.4.82-.8.4-1.85.65-1.04.27-2.44.27-2.58 0-4.37-1.7-1.8-1.72-1.8-4.37 0-2.17.92-3.5.94-1.35 2.67-2.12 1.74-.77 4.19-1.04 2.44-.27 5.24-.41v-.5q0-1.1-.39-1.8-.38-.73-1.1-1.14-.68-.39-1.63-.53-.96-.13-2-.13-1.27 0-2.82.34-1.56.32-3.22.96h-.17v-3.27q.94-.25 2.72-.56 1.78-.31 3.5-.31 2.02 0 3.5.34 1.51.33 2.6 1.13 1.08.79 1.65 2.03.56 1.25.56 3.1zm-3.2-4.7V62.6q-1.47.08-3.47.25-1.98.17-3.14.5-1.38.4-2.24 1.23-.85.82-.85 2.27 0 1.64.99 2.48.99.82 3.02.82 1.7 0 3.1-.65 1.4-.67 2.6-1.59zM267.25 53.51L256.1 79.64h-3.43l3.55-7.96-7.6-18.17h3.48l5.87 14.15 5.9-14.15zM280.1 79.3h-8.89v-2.44h5.91v-28.4h-5.91V46h8.89z"/></g><g aria-label="[Input]" style="line-height:125%;text-align:center" font-weight="400" font-size="35" font-family="sans-serif" letter-spacing="0" word-spacing="0" text-anchor="middle" fill="#fff" stroke-linecap="butt"><path d="M159.95 129.01h-8.89V95.72h8.89v2.45h-5.92v28.4h5.92zM175.3 122.31h-10.05v-2.6h3.33V99.48h-3.33v-2.6h10.04v2.6h-3.33v20.25h3.33zM196.8 122.31h-3.22v-10.86q0-1.32-.15-2.47-.16-1.16-.57-1.8-.42-.72-1.23-1.07-.8-.36-2.08-.36-1.32 0-2.75.65-1.44.65-2.76 1.66v14.25h-3.2v-19.08h3.2v2.11q1.5-1.24 3.11-1.94 1.61-.7 3.3-.7 3.1 0 4.72 1.86 1.62 1.86 1.62 5.36zM219.78 112.54q0 2.32-.67 4.25-.66 1.92-1.88 3.25-1.13 1.27-2.66 1.97-1.52.68-3.23.68-1.49 0-2.7-.32-1.2-.33-2.45-1.01v8h-3.21v-26.13h3.21v2q1.28-1.08 2.87-1.8 1.61-.73 3.42-.73 3.45 0 5.37 2.61 1.93 2.6 1.93 7.23zm-3.32.09q0-3.46-1.18-5.17-1.17-1.7-3.62-1.7-1.38 0-2.78.6t-2.69 1.57v10.81q1.37.62 2.34.84 1 .22 2.24.22 2.69 0 4.19-1.8 1.5-1.82 1.5-5.37zM240.61 122.31h-3.21v-2.11q-1.62 1.28-3.11 1.96-1.49.68-3.28.68-3.01 0-4.69-1.82-1.67-1.85-1.67-5.4v-12.4h3.21v10.87q0 1.46.14 2.5.14 1.03.58 1.76.46.75 1.2 1.1.73.34 2.13.34 1.25 0 2.72-.65 1.49-.65 2.77-1.66v-14.25h3.21zM256.85 122.14q-.9.24-1.99.4-1.05.15-1.9.15-2.91 0-4.44-1.57-1.52-1.57-1.52-5.04v-10.15h-2.17v-2.7H247v-5.49h3.22v5.49h6.63v2.7h-6.63v8.7q0 1.5.06 2.35.07.84.48 1.58.38.68 1.03 1 .66.31 2.02.31.78 0 1.64-.22.85-.24 1.23-.4h.17zM269.4 129.01h-8.9v-2.44h5.92v-28.4h-5.92v-2.45h8.9z"/></g><rect width="59.4" height="59.4" x="28.3" y="178.3" rx=".57" ry="0" stroke="#000" stroke-width=".6"/><rect ry="0" rx=".57" y="178.3" x="102.3" height="59.4" width="59.4" stroke="#000" stroke-width=".6"/><rect ry="0" rx=".57" y="178.3" x="180.3" height="59.4" width="59.4" stroke="#000" stroke-width=".6"/><rect width="59.4" height="59.4" x="254.3" y="178.3" rx=".57" ry="0" stroke="#000" stroke-width=".6"/><rect ry="0" rx=".57" y="256.3" x="28.3" height="59.4" width="59.4" stroke="#000" stroke-width=".6"/><rect width="59.4" height="59.4" x="104.3" y="256.3" rx=".57" ry="0" stroke="#000" stroke-width=".6"/><rect width="59.4" height="59.4" x="180.3" y="256.3" rx=".57" ry="0" stroke="#000" stroke-width=".6"/><rect ry="0" rx=".57" y="256.3" x="254.3" height="59.4" width="59.4" stroke="#000" stroke-width=".6"/><path d="M29.7 52.45c0-8.38 6.96-15.17 15.56-15.17 4.12 0 8.08 1.6 11 4.44a14.97 14.97 0 0 1 4.56 10.73c0 8.37-6.97 15.16-15.56 15.16-8.6 0-15.56-6.79-15.56-15.16z" stroke="#000" stroke-width="2" stroke-linecap="butt" stroke-linejoin="round"/></g></svg>