<svg xmlns="http://www.w3.org/2000/svg" version="1.0" viewBox="0 0 500 500"><path d="M19 255v220h449V35H19v220zm446 0v217H22V38h443v217z"/><rect id="a" width="77.31" height="76.3" x="38.22" y="52.42" fill="none" stroke="#000" stroke-linecap="round" stroke-width="2"/><use x="0" y="0" href="#a" transform="translate(0 82.22)"/><use x="0" y="0" href="#a" transform="translate(0 164.44)"/><use x="0" y="0" href="#a" transform="translate(0 246.66)"/><use x="0" y="0" href="#a" transform="translate(0 328.87)"/><use x="0" y="0" href="#a" transform="translate(83.31)"/><use x="0" y="0" href="#a" transform="translate(83.31 82.22)"/><use x="0" y="0" href="#a" transform="translate(83.31 164.44)"/><use x="0" y="0" href="#a" transform="translate(83.31 246.66)"/><use x="0" y="0" href="#a" transform="translate(83.31 328.87)"/><use x="0" y="0" href="#a" transform="translate(166.62)"/><use x="0" y="0" href="#a" transform="translate(166.62 82.22)"/><use x="0" y="0" href="#a" transform="translate(166.62 164.44)"/><use x="0" y="0" href="#a" transform="translate(166.62 246.66)"/><use x="0" y="0" href="#a" transform="translate(166.62 328.87)"/><use x="0" y="0" href="#a" transform="translate(249.93)"/><use x="0" y="0" href="#a" transform="translate(249.93 82.22)"/><use x="0" y="0" href="#a" transform="translate(249.93 164.44)"/><use x="0" y="0" href="#a" transform="translate(249.93 246.66)"/><use x="0" y="0" href="#a" transform="translate(249.93 328.87)"/><use x="0" y="0" href="#a" transform="translate(333.24)"/><use x="0" y="0" href="#a" transform="translate(333.24 82.22)"/><use x="0" y="0" href="#a" transform="translate(333.24 164.44)"/><use x="0" y="0" href="#a" transform="translate(333.24 246.66)"/><use x="0" y="0" href="#a" transform="translate(333.24 328.87)"/></svg>