<svg xmlns="http://www.w3.org/2000/svg" xmlns:xlink="http://www.w3.org/1999/xlink" width="640" height="640"><defs><path d="M0 0h640v640H0V0z" id="a"/><path d="M-11.03 0h651.06v639.94H-11.03V0z" id="b"/><path d="M9.34 10.62h619.61v621H9.34v-621z" id="c"/><path d="M9.34 10.62h619.61v621H9.34v-621z" id="d"/><path d="M246.15 28.81h136.7v104.61h-136.7V28.81z" id="e"/><path d="M285.73 69.07c1.55-4.57 4.12-6.33 4.57-7.04 3.05-2.47 6.88-2.22 7.65-2.47 3.39 0 5.35 1.24 5.94 1.38 2.56 1.35 3.81 3.54 4.23 3.94 1.66 2.55 2.35 5.64 2.61 6.26.95 3.68.86 8.95.95 9.95 0 7.41-1.37 10.78-1.52 11.98-1.53 4.54-4.11 6.33-4.57 7.04-3.02 2.47-6.88 2.22-7.64 2.47-6.1 0-8.62-3.93-9.57-4.37-2.78-3.51-4.17-9.21-4.17-17.12l1.52-12.02zm6.21 25.84c2.44 3.42 5.41 3.07 6.01 3.42 3.56 0 5.38-3.11 5.97-3.45 2.45-3.45 2.2-12.42 2.45-13.79 0-10.41-2.2-12.45-2.45-13.83-2.41-3.42-5.43-3.08-6.03-3.42-3.57 0-5.12 2.72-5.69 3.02-1.78 2.57-2.67 7.31-2.67 14.23l2.41 13.82zm26.52-25.84c1.55-4.57 4.11-6.33 4.57-7.04 3.05-2.47 6.88-2.22 7.65-2.47 3.39 0 5.35 1.24 5.94 1.38 2.56 1.35 3.81 3.54 4.23 3.94 1.66 2.55 2.35 5.64 2.61 6.26.95 3.68.86 8.95.95 9.95 0 7.41-1.37 10.78-1.52 11.98-1.53 4.54-4.11 6.33-4.57 7.04-3.02 2.47-6.88 2.22-7.64 2.47-6.1 0-8.62-3.93-9.57-4.37-2.78-3.51-4.17-9.21-4.17-17.12l1.52-12.02zm6.21 25.84c2.44 3.42 5.41 3.07 6.01 3.42 3.56 0 5.38-3.11 5.97-3.45 2.45-3.45 2.2-12.42 2.45-13.79 0-10.41-2.2-12.45-2.45-13.83-2.41-3.42-5.43-3.08-6.03-3.42-3.57 0-5.12 2.72-5.69 3.02-1.78 2.57-2.67 7.31-2.67 14.23l2.41 13.82zM28.07 32.56h202.09v100.85H28.07V32.56z" id="f"/><path d="M28.07 32.56h202.09v100.85H28.07V32.56z" id="g"/><path d="M28.07 133.62l72.98-99.46" id="h"/><path d="M28.07 133.62l72.98-99.46" id="i"/><path d="M69.09 133.62l72.98-99.46" id="j"/><path d="M69.09 133.62l72.98-99.46" id="k"/><path d="M110.11 133.62l72.98-99.46" id="l"/><path d="M110.11 133.62l72.98-99.46" id="m"/><path d="M151.13 133.62l72.98-99.46" id="n"/><path d="M151.13 133.62l72.98-99.46" id="o"/><path d="M60.65 152.7h518.7v445.73H60.65V152.7z" id="p"/><path d="M60.65 152.7h518.7v445.73H60.65V152.7z" id="q"/><path d="M398.83 30.59h202.1v100.85h-202.1V30.59z" id="r"/><path d="M398.83 30.59h202.1v100.85h-202.1V30.59z" id="s"/><path d="M398.83 131.64l72.98-99.45" id="t"/><path d="M398.83 131.64l72.98-99.45" id="u"/><path d="M439.85 131.64l72.98-99.45" id="v"/><path d="M439.85 131.64l72.98-99.45" id="w"/><path d="M480.87 131.64l72.98-99.45" id="x"/><path d="M480.87 131.64l72.98-99.45" id="y"/><path d="M521.89 131.64l72.98-99.45" id="z"/><path d="M521.89 131.64l72.98-99.45" id="A"/><path d="M81.82 162.06h476.31v301.49H81.82V162.06z" id="B"/><path d="M209.24 491.99h90.59v83.64h-90.59v-83.64z" id="C"/><path d="M209.24 491.99h90.59v83.64h-90.59v-83.64z" id="D"/><path d="M252.83 530.89l-9.63-14.4h4.03l4.91 7.53c1.38 2.13 2.3 3.8 2.56 4.23a95.57 95.57 0 012.73-4.43l4.83-7.33h3.88l-10 14.4v10.6h-3.31v-10.6z" id="E"/><path d="M336.17 491.99h90.6v83.64h-90.6v-83.64z" id="F"/><path d="M336.17 491.99h90.6v83.64h-90.6v-83.64z" id="G"/><path d="M371.76 516.49h3.39l13.13 19.63v-19.63h3.16v25h-3.39l-13.13-19.65v19.65h-3.17l.01-25z" id="H"/><path d="M478.31 497.91h67.54v47.15h-67.54v-47.15z" id="I"/><path d="M478.31 497.91h67.54v47.15h-67.54v-47.15z" id="J"/><path d="M488.21 561.85a7.86 7.86 0 107.85 7.85" id="K"/><path d="M488.21 561.85a7.86 7.86 0 107.85 7.85" id="L"/><path d="M520.11 561.85a7.85 7.85 0 107.85 7.85" id="M"/><path d="M520.11 561.85a7.85 7.85 0 107.85 7.85" id="N"/></defs><use xlink:href="#a" fill-opacity="0"/><use xlink:href="#a" fill-opacity="0" stroke="#000" stroke-opacity="0"/><use xlink:href="#b" fill-opacity="0" stroke="#000" stroke-opacity="0"/><use xlink:href="#c" fill-opacity="0"/><use xlink:href="#c" fill-opacity="0" stroke="#000" stroke-opacity="0"/><use xlink:href="#d" fill-opacity="0"/><use xlink:href="#d" fill-opacity="0" stroke="#000" stroke-width="2"/><use xlink:href="#e"/><use xlink:href="#e" fill-opacity="0" stroke="#000" stroke-opacity="0"/><use xlink:href="#f" fill="#fff"/><use xlink:href="#f" fill-opacity="0" stroke="#000" stroke-opacity="0"/><use xlink:href="#g" fill-opacity="0"/><use xlink:href="#g" fill-opacity="0" stroke="#000" stroke-width="2"/><use xlink:href="#h" fill-opacity="0"/><use xlink:href="#h" fill-opacity="0" stroke="#000" stroke-opacity="0"/><use xlink:href="#i" fill-opacity="0"/><use xlink:href="#i" fill-opacity="0" stroke="#000" stroke-width="2"/><use xlink:href="#j" fill-opacity="0"/><use xlink:href="#j" fill-opacity="0" stroke="#000" stroke-opacity="0"/><use xlink:href="#k" fill-opacity="0"/><use xlink:href="#k" fill-opacity="0" stroke="#000" stroke-width="2"/><use xlink:href="#l" fill-opacity="0"/><use xlink:href="#l" fill-opacity="0" stroke="#000" stroke-opacity="0"/><use xlink:href="#m" fill-opacity="0"/><use xlink:href="#m" fill-opacity="0" stroke="#000" stroke-width="2"/><use xlink:href="#n" fill-opacity="0"/><use xlink:href="#n" fill-opacity="0" stroke="#000" stroke-opacity="0"/><use xlink:href="#o" fill-opacity="0"/><use xlink:href="#o" fill-opacity="0" stroke="#000" stroke-width="2"/><use xlink:href="#p" fill="#fff"/><use xlink:href="#p" fill-opacity="0" stroke="#000" stroke-opacity="0"/><use xlink:href="#q" fill-opacity="0"/><use xlink:href="#q" fill-opacity="0" stroke="#000" stroke-width="2"/><use xlink:href="#r" fill="#fff"/><use xlink:href="#r" fill-opacity="0" stroke="#000" stroke-opacity="0"/><use xlink:href="#s" fill-opacity="0"/><use xlink:href="#s" fill-opacity="0" stroke="#000" stroke-width="2"/><use xlink:href="#t" fill-opacity="0"/><use xlink:href="#t" fill-opacity="0" stroke="#000" stroke-opacity="0"/><use xlink:href="#u" fill-opacity="0"/><use xlink:href="#u" fill-opacity="0" stroke="#000" stroke-width="2"/><g><use xlink:href="#v" fill-opacity="0"/><use xlink:href="#v" fill-opacity="0" stroke="#000" stroke-opacity="0"/></g><g><use xlink:href="#w" fill-opacity="0"/><use xlink:href="#w" fill-opacity="0" stroke="#000" stroke-width="2"/></g><g><use xlink:href="#x" fill-opacity="0"/><use xlink:href="#x" fill-opacity="0" stroke="#000" stroke-opacity="0"/></g><g><use xlink:href="#y" fill-opacity="0"/><use xlink:href="#y" fill-opacity="0" stroke="#000" stroke-width="2"/></g><g><use xlink:href="#z" fill-opacity="0"/><use xlink:href="#z" fill-opacity="0" stroke="#000" stroke-opacity="0"/></g><g><use xlink:href="#A" fill-opacity="0"/><use xlink:href="#A" fill-opacity="0" stroke="#000" stroke-width="2"/></g><g><use xlink:href="#B"/><use xlink:href="#B" fill-opacity="0" stroke="#000" stroke-opacity="0"/></g><g><use xlink:href="#C" fill-opacity="0"/><use xlink:href="#C" fill-opacity="0" stroke="#000" stroke-opacity="0"/></g><g><use xlink:href="#D" fill-opacity="0"/><use xlink:href="#D" fill-opacity="0" stroke="#000"/></g><g><use xlink:href="#E"/><use xlink:href="#E" fill-opacity="0" stroke="#000" stroke-opacity="0"/></g><g><use xlink:href="#F" fill-opacity="0"/><use xlink:href="#F" fill-opacity="0" stroke="#000" stroke-opacity="0"/></g><g><use xlink:href="#G" fill-opacity="0"/><use xlink:href="#G" fill-opacity="0" stroke="#000"/></g><g><use xlink:href="#H"/><use xlink:href="#H" fill-opacity="0" stroke="#000" stroke-opacity="0"/></g><g><use xlink:href="#I" fill="#fff"/><use xlink:href="#I" fill-opacity="0" stroke="#000" stroke-opacity="0"/></g><g><use xlink:href="#J" fill-opacity="0"/><use xlink:href="#J" fill-opacity="0" stroke="#000" stroke-width="2"/></g><g><use xlink:href="#K" fill="#fff"/><use xlink:href="#K" fill-opacity="0" stroke="#000" stroke-opacity="0"/></g><g><use xlink:href="#L" fill-opacity="0"/><use xlink:href="#L" fill-opacity="0" stroke="#000" stroke-width="2"/></g><g><use xlink:href="#M" fill="#fff"/><use xlink:href="#M" fill-opacity="0" stroke="#000" stroke-opacity="0"/></g><g><use xlink:href="#N" fill-opacity="0"/><use xlink:href="#N" fill-opacity="0" stroke="#000" stroke-width="2"/></g><g><g aria-label="[Texto]" style="line-height:100%" font-weight="400" font-size="76" font-family="Open Sans" letter-spacing="0" dominant-baseline="text-before-edge" fill="#fff"><path d="M206.76 243.73h-19.3v-72.29h19.3v5.31h-12.84v61.68h12.84zM260.01 180.46h-19.74v48.73h-7.35v-48.73h-19.74v-6.53H260zM293.48 209.18h-30.54q0 3.83 1.15 6.68 1.15 2.82 3.16 4.64 1.93 1.78 4.56 2.67 2.67.9 5.87.9 4.23 0 8.5-1.68 4.3-1.7 6.12-3.33h.37v7.6q-3.53 1.49-7.2 2.49-3.68 1-7.72 1-10.32 0-16.1-5.57-5.8-5.6-5.8-15.88 0-10.17 5.53-16.14 5.57-5.98 14.63-5.98 8.38 0 12.91 4.9 4.56 4.9 4.56 13.92zm-6.79-5.34q-.03-5.5-2.78-8.5-2.7-3-8.28-3-5.6 0-8.94 3.3-3.3 3.3-3.75 8.2zM339.94 229.19h-8.79l-11.76-15.92-11.84 15.92h-8.13l16.18-20.67-16.03-20.79h8.8l11.68 15.66 11.73-15.66h8.16l-16.29 20.41zM370.56 228.81q-1.97.52-4.3.86-2.3.33-4.12.33-6.35 0-9.65-3.41-3.3-3.42-3.3-10.95V193.6h-4.72v-5.87h4.72v-11.9h6.97v11.9h14.4v5.87h-14.4v18.89q0 3.26.15 5.12.15 1.82 1.04 3.41.82 1.49 2.23 2.2 1.44.66 4.37.66 1.71 0 3.57-.48 1.85-.52 2.67-.86h.37zM414.35 208.48q0 10.13-5.2 16-5.2 5.86-13.91 5.86-8.8 0-14-5.87-5.15-5.86-5.15-16 0-10.12 5.16-15.99 5.2-5.9 13.99-5.9 8.72 0 13.91 5.9 5.2 5.87 5.2 16zm-7.2 0q0-8.05-3.15-11.95-3.16-3.93-8.76-3.93-5.68 0-8.83 3.93-3.12 3.9-3.12 11.95 0 7.8 3.15 11.84 3.16 4 8.8 4 5.56 0 8.72-3.97 3.19-4 3.19-11.87zM443.96 243.73h-19.3v-5.3h12.85v-61.68h-12.84v-5.3h19.3z"/></g></g></svg>