<svg xmlns="http://www.w3.org/2000/svg" viewBox="0 0 348 348" fill="none"><path d="M5.079 5.776h336.913v337.67H5.08z" stroke-width="2" stroke="#000"/><path d="M282.734 40.554c0-8.376 6.966-15.165 15.56-15.165 4.126 0 8.084 1.597 11.001 4.441 2.918 2.844 4.558 6.702 4.558 10.724 0 8.376-6.966 15.165-15.56 15.165-8.593 0-15.559-6.79-15.559-15.165z" stroke-width="2" stroke="#000"/><path opacity=".99" fill="#fff" stroke="#000" stroke-width="1.59" stroke-miterlimit="10" d="M16.187 15.112h77.198V92.31H16.187z"/><text style="line-height:1.25;-inkscape-font-specification:sans-serif" x="39.267" y="75.079" font-weight="400" font-size="66.977" font-family="sans-serif" letter-spacing="0" word-spacing="0" fill="#000" stroke-width="1.674"><tspan x="39.267" y="75.079">?</tspan></text><path opacity=".99" fill="#000" stroke="#000" stroke-width=".95" stroke-miterlimit="10" d="M26.944 151.009H82.03v55.086H26.944z"/><text style="line-height:1.25;-inkscape-font-specification:sans-serif" x="31.135" y="191.126" font-weight="400" font-size="40" font-family="sans-serif" letter-spacing="0" word-spacing="0" fill="#fff"><tspan x="31.135" y="191.126">40</tspan></text><path opacity=".99" fill="#000" stroke="#000" stroke-width=".95" stroke-miterlimit="10" d="M138.944 151.009h55.086v55.086h-55.086z"/><text style="line-height:1.25;-inkscape-font-specification:sans-serif" x="143.135" y="191.126" font-weight="400" font-size="40" font-family="sans-serif" letter-spacing="0" word-spacing="0" fill="#fff"><tspan x="143.135" y="191.126">40</tspan></text><path opacity=".99" fill="#000" stroke="#000" stroke-width=".95" stroke-miterlimit="10" d="M252.944 151.009h55.086v55.086h-55.086z"/><text style="line-height:1.25;-inkscape-font-specification:sans-serif" x="257.135" y="191.126" font-weight="400" font-size="40" font-family="sans-serif" letter-spacing="0" word-spacing="0" fill="#fff"><tspan x="257.135" y="191.126">40</tspan></text><path opacity=".99" fill="#000" stroke="#000" stroke-width="2.688" stroke-miterlimit="10" d="M18.561 235.974h314.405v77.298H18.561z"/><g font-weight="400" font-family="sans-serif" letter-spacing="0" word-spacing="0" fill="#fff"><text style="line-height:1.25;-inkscape-font-specification:sans-serif" x="87.011" y="282.249" font-size="40"><tspan x="87.011" y="282.249">v</tspan></text><text style="line-height:1.25;-inkscape-font-specification:sans-serif" x="209.011" y="282.249" font-size="40"><tspan x="209.011" y="282.249">v</tspan></text><text style="line-height:1.25;-inkscape-font-specification:sans-serif" x="43.709" y="285.729" font-size="40"><tspan x="43.709" y="285.729">?</tspan></text><text style="line-height:1.25;-inkscape-font-specification:sans-serif" x="155.709" y="285.729" font-size="40"><tspan x="155.709" y="285.729">?</tspan></text><text style="line-height:1.25;-inkscape-font-specification:sans-serif" x="267.709" y="285.729" font-size="40"><tspan x="267.709" y="285.729">?</tspan></text><text style="line-height:1.25;-inkscape-font-specification:sans-serif" x="141.727" y="266.623" transform="scale(.93887 1.0651)" font-size="42.604" stroke-width="1.065"><tspan x="141.727" y="266.623">(</tspan></text><text style="line-height:1.25;-inkscape-font-specification:sans-serif" x="-328.009" y="268.057" transform="scale(-.9406 1.06315)" font-size="42.683" stroke-width="1.067"><tspan x="-328.009" y="268.057">(</tspan></text></g></svg>