<svg xmlns="http://www.w3.org/2000/svg" fill="none" viewBox="0 0 348 348"><path fill="#000" stroke="#000" stroke-miterlimit="10" stroke-width=".9" d="M253 151h55v55h-55zm-113 0h55v55h-55zm-113 0h55v55H27z"/><path stroke="#000" stroke-width="2" d="M5 5.8h337v337.6H5z"/><path stroke="#000" stroke-width="2" d="M282.7 40.6c0-8.4 7-15.2 15.6-15.2 4.1 0 8 1.6 11 4.4a15 15 0 0 1 4.6 10.8c0 8.3-7 15.1-15.6 15.1s-15.6-6.8-15.6-15.1z"/><path stroke="#000" stroke-miterlimit="10" stroke-width=".9" d="M34.3 250.2h46.1v46.1H34.3zm110 0h46.1v46.1h-46.1zm114 0h46.1v46.1h-46.1z"/><path fill="#000" d="M90.6 262.3h3.8l6.8 18.4 6.9-18.4h3.8l-8.2 21.9h-4.9zm123.1 0h3.8l6.9 18.4 6.8-18.4h3.8l-8.2 21.9H222zM54.4 283.1h4v5h-4zm3.8-2.8h-3.7v-3q0-2 .5-3.3.6-1.3 2.3-3l1.8-1.7q1-1 1.6-2 .5-.8.5-1.8 0-1.7-1.3-2.8-1.3-1-3.4-1-1.5 0-3.3.6-1.7.7-3.6 2v-3.7q1.8-1.1 3.7-1.6 1.9-.6 4-.6 3.5 0 5.7 1.9t2.2 5q0 1.5-.7 2.8-.8 1.4-2.5 3l-1.7 1.7q-1 1-1.3 1.5l-.6 1-.1 1-.1 1.6zm106.2 2.8h4v5h-4zm3.8-2.8h-3.7v-3q0-2 .5-3.3.6-1.3 2.3-3l1.8-1.7q1-1 1.6-2 .5-.8.5-1.8 0-1.7-1.3-2.8-1.3-1-3.4-1-1.5 0-3.3.6-1.7.7-3.6 2v-3.7q1.8-1.1 3.7-1.6 1.9-.6 4-.6 3.5 0 5.7 1.9t2.2 5q0 1.5-.7 2.8-.8 1.4-2.5 3l-1.7 1.7q-1 1-1.3 1.5l-.6 1-.1 1-.1 1.6zm110.2 2.8h4v5h-4zm3.8-2.8h-3.7v-3q0-2 .5-3.3.6-1.3 2.3-3l1.8-1.7q1-1 1.6-2 .5-.8.5-1.8 0-1.7-1.3-2.8-1.3-1-3.4-1-1.5 0-3.3.6-1.7.7-3.6 2v-3.7q1.8-1.1 3.7-1.6 1.9-.6 4-.6 3.5 0 5.7 1.9t2.2 5q0 1.5-.7 2.8-.8 1.4-2.5 3l-1.7 1.7q-1 1-1.3 1.5l-.6 1-.1 1-.1 1.6z"/><path stroke="#000" stroke-miterlimit="10" stroke-width="1.6" d="M16.2 15.1h77.2v77.2H16.2z"/><path fill="#000" d="M49.7 70.3h6.7v8.3h-6.7zm6.5-4.8h-6.3v-5q0-3.4 1-5.5.9-2.1 3.8-5l3-2.9q1.8-1.7 2.6-3.2.9-1.6.9-3.2 0-2.9-2.2-4.7-2.1-1.8-5.6-1.8-2.6 0-5.6 1.2-2.9 1.1-6 3.3v-6.1q3-2 6.2-2.8 3.1-1 6.5-1 6 0 9.7 3.2 3.6 3.2 3.6 8.4 0 2.5-1.2 4.7-1.1 2.3-4 5l-3 2.9q-1.5 1.5-2.1 2.4-.7.9-1 1.7l-.2 1.6-.1 2.7z"/><path fill="#fff" d="M293.6 166.6q-3 0-4.6 3-1.6 3-1.6 9t1.6 9q1.5 3 4.6 3 3 0 4.6-3 1.5-3 1.5-9t-1.5-9q-1.6-3-4.6-3zm0-3.2q4.9 0 7.4 4 2.6 3.8 2.6 11.2 0 7.3-2.6 11.2-2.5 3.9-7.4 3.9-5 0-7.5-3.9-2.6-3.9-2.6-11.2 0-7.4 2.6-11.3 2.6-3.9 7.5-3.9zm-23.1 4l-10 15.6h10zm-1-3.4h5v19h4v3.2h-4v7h-4v-7h-13.2v-3.8zm-89 2.6q-3 0-4.5 3-1.6 3-1.6 9t1.6 9q1.5 3 4.6 3 3 0 4.6-3 1.5-3 1.5-9t-1.5-9q-1.6-3-4.6-3zm0-3.2q5 0 7.5 4 2.6 3.8 2.6 11.2 0 7.3-2.6 11.2-2.5 3.9-7.4 3.9-5 0-7.5-3.9-2.6-3.9-2.6-11.2 0-7.4 2.6-11.3 2.6-3.9 7.5-3.9zm-23 4l-10 15.6h10zm-1-3.4h5v19h4v3.2h-4v7h-4v-7h-13.2v-3.8zm-89 2.6q-3 0-4.5 3-1.6 3-1.6 9t1.6 9q1.5 3 4.6 3 3 0 4.6-3 1.5-3 1.5-9t-1.5-9q-1.6-3-4.6-3zm0-3.2q5 0 7.5 4 2.6 3.8 2.6 11.2 0 7.3-2.6 11.2-2.5 3.9-7.4 3.9-5 0-7.5-3.9-2.6-3.9-2.6-11.2 0-7.4 2.6-11.3 2.6-3.9 7.5-3.9zm-23 4l-10 15.6h10zm-1-3.4h5v19h4v3.2h-4v7h-4v-7H31.3v-3.8z"/><path stroke="#000" stroke-width="2.3" d="M137.3 245.5c-33 29.3.5 55.4.5 55.4m177.8-55.4c34.8 29.3-.5 55.4-.5 55.4"/></svg>