<svg xmlns="http://www.w3.org/2000/svg" viewBox="0 0 348 348" fill="none"><path d="M5.079 5.776h336.913v337.67H5.08z" stroke-width="2" stroke="#000"/><path d="M282.734 40.554c0-8.376 6.966-15.165 15.56-15.165 4.126 0 8.084 1.597 11.001 4.441 2.918 2.844 4.558 6.702 4.558 10.724 0 8.376-6.966 15.165-15.56 15.165-8.593 0-15.559-6.79-15.559-15.165z" stroke-width="2" stroke="#000"/><path opacity=".99" fill="#fff" stroke="#000" stroke-width="1.59" stroke-miterlimit="10" d="M16.187 15.112h77.198V92.31H16.187z"/><path d="M68.603 41.3q0 3.205-1.144 5.723-1.145 2.486-3.01 4.415-1.83 1.864-4.218 3.5-2.387 1.635-5.069 3.172v7.358h-5.854v-9.975q2.126-1.21 4.579-2.649 2.485-1.439 4.055-2.91 1.897-1.7 2.943-3.5 1.047-1.831 1.047-4.643 0-3.696-2.518-5.495-2.486-1.831-6.443-1.831-3.532 0-6.704 1.112-3.14 1.112-4.971 2.256h-.327v-6.671q2.289-.883 5.788-1.57 3.532-.72 6.672-.72 7.031 0 11.086 3.434 4.088 3.402 4.088 8.994zM55.685 78.55h-6.671v-6.901h6.671z" aria-label="?" font-weight="400" font-size="66.977" font-family="sans-serif" letter-spacing="0" word-spacing="0" fill="#000" stroke-width="1.674"/><path opacity=".99" fill="#000" stroke="#000" stroke-width=".95" stroke-miterlimit="10" d="M26.944 151.009H82.03v55.086H26.944z"/><path d="M77.866 178.532q0 7.832-2.461 11.504-2.441 3.653-7.598 3.653-5.234 0-7.656-3.711-2.402-3.711-2.402-11.406 0-7.754 2.441-11.446 2.442-3.71 7.617-3.71 5.235 0 7.637 3.769 2.422 3.75 2.422 11.347zm-5.137 8.868q.684-1.582.918-3.711.254-2.149.254-5.157 0-2.968-.254-5.156-.234-2.187-.937-3.71-.684-1.505-1.875-2.266-1.172-.762-3.028-.762-1.836 0-3.047.762-1.191.761-1.894 2.304-.664 1.446-.918 3.77-.234 2.324-.234 5.098 0 3.046.214 5.097.215 2.051.918 3.672.645 1.523 1.817 2.324 1.191.801 3.144.801 1.836 0 3.047-.762 1.211-.761 1.875-2.304zM53.1 184.9h-4.316v8.183h-3.75V184.9H31.108v-4.493l14.082-16.406h3.594v17.774H53.1zm-8.066-3.125V168.65l-11.27 13.125z" aria-label="40" font-weight="400" font-size="40" font-family="sans-serif" letter-spacing="0" word-spacing="0" fill="#fff"/><path opacity=".99" fill="#000" stroke="#000" stroke-width=".95" stroke-miterlimit="10" d="M138.944 151.009h55.086v55.086h-55.086z"/><path d="M189.866 178.532q0 7.832-2.461 11.504-2.441 3.653-7.598 3.653-5.234 0-7.656-3.711-2.402-3.711-2.402-11.406 0-7.754 2.441-11.446 2.442-3.71 7.617-3.71 5.235 0 7.637 3.769 2.422 3.75 2.422 11.347zm-5.137 8.868q.684-1.582.918-3.711.254-2.149.254-5.157 0-2.968-.254-5.156-.234-2.187-.937-3.71-.684-1.505-1.875-2.266-1.172-.762-3.028-.762-1.836 0-3.047.762-1.191.761-1.894 2.304-.664 1.446-.918 3.77-.234 2.324-.234 5.098 0 3.046.214 5.097.215 2.051.918 3.672.645 1.523 1.817 2.324 1.191.801 3.144.801 1.836 0 3.047-.762 1.211-.761 1.875-2.304zm-19.629-2.5h-4.316v8.183h-3.75V184.9h-13.926v-4.493l14.082-16.406h3.594v17.774h4.316zm-8.066-3.125V168.65l-11.27 13.125z" aria-label="40" font-weight="400" font-size="40" font-family="sans-serif" letter-spacing="0" word-spacing="0" fill="#fff"/><path opacity=".99" fill="#000" stroke="#000" stroke-width=".95" stroke-miterlimit="10" d="M252.944 151.009h55.086v55.086h-55.086z"/><path d="M303.866 178.532q0 7.832-2.461 11.504-2.441 3.653-7.598 3.653-5.234 0-7.656-3.711-2.402-3.711-2.402-11.406 0-7.754 2.441-11.446 2.442-3.71 7.617-3.71 5.235 0 7.637 3.769 2.422 3.75 2.422 11.347zm-5.137 8.868q.684-1.582.918-3.711.254-2.149.254-5.157 0-2.968-.254-5.156-.234-2.187-.937-3.71-.684-1.505-1.875-2.266-1.172-.762-3.028-.762-1.836 0-3.047.762-1.191.761-1.894 2.304-.664 1.446-.918 3.77-.234 2.324-.234 5.098 0 3.046.214 5.097.215 2.051.918 3.672.645 1.523 1.817 2.324 1.191.801 3.144.801 1.836 0 3.047-.762 1.211-.761 1.875-2.304zm-19.629-2.5h-4.316v8.183h-3.75V184.9h-13.926v-4.493l14.082-16.406h3.594v17.774h4.316zm-8.066-3.125V168.65l-11.27 13.125z" aria-label="40" font-weight="400" font-size="40" font-family="sans-serif" letter-spacing="0" word-spacing="0" fill="#fff"/><path opacity=".99" fill="#000" stroke="#000" stroke-width="2.688" stroke-miterlimit="10" d="M18.561 235.974h314.405v77.298H18.561z"/><g font-weight="400" font-family="sans-serif" letter-spacing="0" word-spacing="0" fill="#fff"><path d="M293.034 296.928h4.489q3.47-4.498 5.39-9.816 1.922-5.318 1.922-11.987 0-6.67-1.921-11.987-1.921-5.318-5.391-9.816h-4.49v.222q1.589 1.617 3.04 3.744 1.43 2.105 2.665 4.92 1.177 2.725 1.922 6.004.725 3.28.725 6.913 0 3.789-.706 6.935-.725 3.147-1.94 5.983-1.177 2.725-2.686 4.919-1.51 2.215-3.02 3.744zm-144.82-1.005h-4.473q-3.457-4.498-5.37-9.815-1.915-5.318-1.915-11.987 0-6.67 1.914-11.987 1.914-5.318 5.371-9.816h4.473v.222q-1.582 1.617-3.027 3.744-1.426 2.105-2.657 4.919-1.171 2.725-1.914 6.005-.722 3.279-.722 6.913 0 3.788.703 6.935.723 3.146 1.933 5.982 1.172 2.725 2.676 4.919 1.504 2.216 3.008 3.744zm138.982-29.626q0 1.914-.684 3.418-.683 1.484-1.797 2.637-1.093 1.113-2.52 2.09-1.425.976-3.026 1.894v4.395h-3.497v-5.957q1.27-.723 2.735-1.582 1.484-.86 2.422-1.739 1.133-1.015 1.758-2.09.625-1.093.625-2.773 0-2.207-1.504-3.281-1.485-1.094-3.848-1.094-2.11 0-4.004.664-1.875.664-2.969 1.348h-.195v-3.985q1.367-.527 3.457-.937 2.11-.43 3.984-.43 4.2 0 6.621 2.051 2.442 2.031 2.442 5.371zm-7.715 22.246h-3.984v-4.12h3.984zm-104.285-22.246q0 1.914-.684 3.418-.683 1.484-1.797 2.637-1.093 1.113-2.52 2.09-1.425.976-3.026 1.894v4.395h-3.497v-5.957q1.27-.723 2.735-1.582 1.484-.86 2.422-1.739 1.133-1.015 1.758-2.09.625-1.093.625-2.773 0-2.207-1.504-3.281-1.485-1.094-3.848-1.094-2.11 0-4.004.664-1.875.664-2.969 1.348h-.195v-3.985q1.367-.527 3.457-.937 2.11-.43 3.984-.43 4.2 0 6.621 2.051 2.442 2.031 2.442 5.371zm-7.715 22.246h-3.984v-4.12h3.984zM63.196 266.297q0 1.914-.684 3.418-.683 1.484-1.797 2.637-1.093 1.113-2.52 2.09-1.425.976-3.026 1.894v4.395h-3.497v-5.957q1.27-.723 2.735-1.582 1.484-.86 2.422-1.739 1.132-1.015 1.757-2.09.625-1.093.625-2.773 0-2.207-1.503-3.281-1.485-1.094-3.848-1.094-2.11 0-4.004.664-1.875.664-2.969 1.348h-.195v-3.985q1.367-.527 3.457-.937 2.11-.43 3.984-.43 4.2 0 6.621 2.051 2.442 2.031 2.442 5.371zm-7.715 22.246h-3.984v-4.12h3.984zm175.868-25.296l-8.828 21.816h-3.691l-8.77-21.816h3.985l6.758 17.363 6.699-17.363zm-122 0l-8.828 21.816H96.83l-8.77-21.816h3.985l6.758 17.363 6.699-17.363z" aria-label="(" font-size="42.683" stroke-width="1.067"/></g></svg>