<svg xmlns="http://www.w3.org/2000/svg" viewBox="0 0 348 348" fill="none"><path d="M5.08 5.78h336.91v337.67H5.08z" stroke-width="2" stroke="#000"/><path d="M282.73 40.55c0-8.37 6.97-15.16 15.56-15.16 4.13 0 8.09 1.6 11 4.44a14.97 14.97 0 014.56 10.72c0 8.38-6.96 15.17-15.56 15.17-8.59 0-15.56-6.8-15.56-15.17z" stroke-width="2" stroke="#000"/><path d="M21.45 27.42h150.07V177.5H21.45z" fill="#fff" stroke="#000" stroke-width="1.85"/><path d="M198.52 36.8a9.02 9.02 0 01-9.02 9.01 9.02 9.02 0 01-9.02-9.02 9.02 9.02 0 019.02-9.01 9.02 9.02 0 019.02 9.01zm0 130.32a9.02 9.02 0 01-9.02 9.02 9.02 9.02 0 01-9.02-9.02 9.02 9.02 0 019.02-9.02 9.02 9.02 0 019.02 9.02zm0-68.39a9.02 9.02 0 01-9.02 9.02 9.02 9.02 0 01-9.02-9.02 9.02 9.02 0 019.02-9.01 9.02 9.02 0 019.02 9.02z" fill="#fff" stroke="#000" stroke-width="1.96"/><path d="M12.52 198.75h320.83v21.8H12.53z" fill="#fff" stroke="#000" stroke-width="2.29"/><path d="M13.32 334.07h319.24V228.28H13.32zm0-84.63h319.24M13.32 270.6h319.24M13.32 291.76h319.24M13.32 312.92h319.24M34.48 228.3v21.14m21.16-21.14v21.14m21.15-21.14v21.14m21.15-21.14v21.14m21.16-21.14v21.14m21.15-21.14v21.14m21.16-21.14v21.14m21.15-21.14v21.14m21.16-21.14v21.14m0-21.14v21.14m21.15-21.14v21.14m21.16-21.14v21.14m21.16-21.14v21.14m21.15-21.14v21.14m-244.26 0v21.16m21.16-21.16v21.16m21.15-21.16v21.16m21.15-21.16v21.16m21.16-21.16v21.16m21.15-21.16v21.16m21.16-21.16v21.16m21.15-21.16v21.16m21.16-21.16v21.16m21.15-21.16v21.16m21.16-21.16v21.16m21.16-21.16v21.16m21.15-21.16v21.16m-247.82 0v21.16m21.16-21.16v21.16m21.16-21.16v21.16m21.15-21.16v21.16m21.15-21.16v21.16m21.16-21.16v21.16m21.15-21.16v21.16m21.16-21.16v21.16m21.15-21.16v21.16m21.16-21.16v21.16m21.15-21.16v21.16m21.16-21.16v21.16m-223.11 0v21.16m21.16-21.16v21.16m21.16-21.16v21.16m21.15-21.16v21.16m21.15-21.16v21.16m21.16-21.16v21.16m21.15-21.16v21.16m21.16-21.16v21.16m21.15-21.16v21.16m21.16-21.16v21.16m21.15-21.16v21.16m-227.19 0v21.15m21.16-21.15v21.15m232.7-21.15v21.15m-42.31-21.15v21.15m21.16-21.15v21.15M97.24 312.92v21.15m126.39-21.15v21.15" stroke-width="2" fill="#fff" stroke="#000"/><path stroke="#000" stroke-width="2" d="M38.62 71.44h115.74v62.04H38.62z"/><path d="M106.11 93.8q0 2.24-.8 4-.8 1.73-2.1 3.07-1.27 1.3-2.93 2.44-1.66 1.14-3.53 2.21v5.13h-4.08v-6.95l3.19-1.85q1.73-1 2.82-2.03 1.33-1.18 2.05-2.43.73-1.28.73-3.24 0-2.57-1.75-3.83-1.73-1.27-4.49-1.27-2.46 0-4.67.77-2.19.78-3.46 1.57h-.23v-4.65q1.6-.61 4.03-1.09 2.46-.5 4.65-.5 4.9 0 7.72 2.4 2.85 2.36 2.85 6.26zm-9 25.96h-4.65v-4.8h4.65z" font-size="46.667" aria-label="?" font-weight="400" font-family="sans-serif" letter-spacing="0" word-spacing="0" fill="#000"/><path d="M270.439 69.637l-17.795 55.612 3.604 2.906 13.738-43.327 7.057 21.173 5.246-.151zm4.283 7.228l1.491 4.944c14.316 1.841 26.373 10.901 32.42 23.4l5.34.226c-6.581-15.737-21.505-27.1-39.25-28.57zm-8.34.038c-18.085 1.69-33.179 13.663-39.364 30.023h5.151c5.686-13.239 17.97-22.97 32.722-25.042zm57.253 29.853l-59.065.981-1.302 4.36 46.667-.53-19.57 14.418 1.209 4.604zm-67.33 1.132l-38.647.642 47.874 34.08 4.057-3.152-37.174-27.003 22.588-.265zm28.38 5.303l-5.189.15 14.625 43.931-18.229-13.247-4.321 2.887 31.495 22.437zm31.873.49l-4.321 2.906c.37 2.244.566 4.54.566 6.888 0 12.028-5.054 22.87-13.153 30.532l1.415 5.152c10.102-8.585 16.512-21.39 16.512-35.684 0-3.36-.346-6.635-1.019-9.794zm-91.824 1.623a47.073 47.073 0 00-.717 8.171c0 13.996 6.15 26.56 15.89 35.137l1.528-5.076c-7.815-7.632-12.662-18.28-12.662-30.061 0-1.833.111-3.645.34-5.416zm59.046 15.55l-37.043 27.324 6.982-22.04-3.755-2.567-11.737 36.665 46.855-34.835zm5.17 30.532a41.857 41.857 0 01-18.153 4.114 41.882 41.882 0 01-18.116-4.095l-4.472 3.057a46.547 46.547 0 0022.588 5.812c8.19 0 15.893-2.112 22.588-5.812z" fill="#000" stroke="#000" stroke-width=".60386"/></svg>