<svg xmlns="http://www.w3.org/2000/svg" viewBox="0 0 348 348" fill="none"><path d="M5.079 5.776h336.913v337.67H5.08z" stroke-width="2" stroke="#000"/><path d="M282.734 40.554c0-8.376 6.966-15.165 15.56-15.165 4.126 0 8.084 1.597 11.001 4.441 2.918 2.844 4.558 6.702 4.558 10.724 0 8.376-6.966 15.165-15.56 15.165-8.593 0-15.559-6.79-15.559-15.165z" stroke-width="2" stroke="#000"/><path fill="#fff" stroke="#000" stroke-width="2" stroke-linejoin="round" d="M66.018 57.093h215.035v215.035H66.018z"/><path fill="#fff" stroke="#000" stroke-width="2" stroke-linejoin="round" d="M76.912 67.988h193.246v193.246H76.912z"/><path fill="#000" stroke="#000" stroke-width="2" stroke-linejoin="round" d="M76.912 67.988h48.312V116.3H76.912zm48.312 0h48.312V116.3h-48.312z"/><path fill="#000" stroke="#000" stroke-width="2" stroke-linejoin="round" d="M173.535 67.988h48.312V116.3h-48.312z"/><path fill="#fff" stroke="#000" stroke-width="2" stroke-linejoin="round" d="M221.847 67.988h48.312V116.3h-48.312zM76.912 116.299h48.312v48.312H76.912z"/><path fill="#000" stroke="#000" stroke-width="2" stroke-linejoin="round" d="M125.224 116.299h48.312v48.312h-48.312z"/><path fill="#fff" stroke="#000" stroke-width="2" stroke-linejoin="round" d="M173.535 116.299h48.312v48.312h-48.312z"/><path fill="#000" stroke="#000" stroke-width="2" stroke-linejoin="round" d="M221.847 116.299h48.312v48.312h-48.312zM76.912 164.611h48.312v48.312H76.912z"/><path fill="#fff" stroke="#000" stroke-width="2" stroke-linejoin="round" d="M125.224 164.611h48.312v48.312h-48.312z"/><path fill="#000" stroke="#000" stroke-width="2" stroke-linejoin="round" d="M173.535 164.611h48.312v48.312h-48.312z"/><path fill="#fff" stroke="#000" stroke-width="2" stroke-linejoin="round" d="M221.847 164.611h48.312v48.312h-48.312z"/><path fill="#000" stroke="#000" stroke-width="2" stroke-linejoin="round" d="M76.912 212.923h48.312v48.312H76.912zm48.312 0h48.312v48.312h-48.312z"/><path fill="#fff" stroke="#000" stroke-width="2" stroke-linejoin="round" d="M173.536 212.923h48.312v48.312h-48.312z"/><path fill="#fff" stroke="#000" stroke-width="2" stroke-linejoin="round" d="M221.847 212.923h48.312v48.312h-48.312z"/><path fill="#fff" stroke="#000" stroke-width="2.708" stroke-linejoin="round" d="M45.251 65.76l82.155-22.012 10.595 39.543-82.154 22.013z"/><path d="M71.174 74.644q-5.234 2.71-7.487 3.313-1.509.405-1.775-.587-.133-.497.104-.937.236-.44.67-.556.166-.044.59-.114.28-.03.632-.125 1.26-.337 3.301-1.239 2.55-1.148 3.744-1.823.673-.38 1.149-.507 1.116-.299 1.437.9.216.806-.463 2.074-5.073 9.513-7.121 17.993-.495 2.038-.675 2.441-.336.732-.894.882-.31.083-.598-.083-.362-.192-.45-.522-.283-1.055.841-4.879 1.489-5.03 4.034-10.497 1.512-3.285 2.961-5.734zm11.238-2.878q-2.7 3.98-3.09 6.411 1.825-1.375 3.272-1.763 1.674-.448 2.89.289 1.139.692 1.538 2.18.914 3.411-1.401 7.754-2.28 4.31-5.38 5.141-1.799.482-3.213-.911-.94-.945-1.317-2.35-.382-1.427-.006-2.502.312-.904 1.118-1.12.745-.2.894.359.033.124.004.509-.047.654.225 1.667.238.89.829 1.44.807.78 1.758.526 1.86-.499 3.26-3.377 1.546-3.162.865-5.705-.283-1.054-.897-1.443-.619-.41-1.59-.15-.952.255-2.183 1.117-.282.186-1.31 1.148-.209.211-.416.267-.392.105-.918-.286-.563-.447-.685-.902-.233-.868.918-3.769.721-1.855 1.97-3.895-.622-.499-.71-.83-.128-.475.458-.853.282-.187 2.236-.998 2.211-.925 3.638-1.307 1.364-.366 2.014-.34.8.007 1.01.792.254.951-.697 1.206-.206.055-.838.18-.212.035-.48.107-.993.266-1.937.63-.928.337-1.83.778zm15.979 1.59q1.15.157 1.728.578.846.593 1.211 1.957.903 3.37-1.098 7.23-2.001 3.86-4.999 4.662-1.84.493-3.407-.726-1.12-.874-1.48-2.218-.587-2.191 1.108-2.645 1.013-.272 1.218.493.044.165.074.445.033.368.127.72.26.971.874 1.36.687.415 1.41.22 1.758-.47 3.124-3.473 1.291-2.871.72-5-.287-1.076-.97-1.557-.735-.512-1.728-.246-.392.105-.752.334-.437.272-.685.339-.6.16-.815-.646-.189-.703.165-1.285.197-.34 1.004-.8 1.6-.894 2.594-1.98.631-.702.865-1.65.11-.495-.017-.97-.16-.6-.569-.801-.387-.206-1.049-.03-1.116.3-2.16 1.2-.271.228-1.24 1.24-.255.29-.627.39-.703.189-.908-.576-.183-.682.651-1.703 1.96-2.364 4.274-2.985 1.385-.37 2.563.222 1.257.638 1.595 1.9.449 1.674-.605 3.529-.564 1.037-2.196 2.472zm18.451-4.568q-4.443 2.188-7.268 4.296-1.154 3.3-2.381 7.817l-.58 2.216q-.152.594-.491 1.727-.357 1.314-1.08 1.508-.393.105-.745-.133-.34-.197-.43-.528-.154-.578.67-3.702.455-1.695 1.45-4.842.385-1.21.6-1.977-1.146.683-2.057 1.415-.436.36-.766.449-.414.11-.74-.2-.227-.183-.31-.493-.189-.703.23-1.126.673-.712 2.59-1.912 1.417-.912 2.216-1.569.29-.654 1.426-3.772.48-1.347 3.025-6.571 1.815-3.81 3.912-7.23 1.212-2.008 2.08-2.241.538-.144 1.047.185.436.304.563.78.155.578-.036 2.18-.31 2.809-.445 5.947-.098 2.773-.002 4.21.372-.1.49-.154.595-.181.988-.286 1.199-.322 1.442.588.106.393-.058.857-.148.44-.457.61-.113.075-.671.224-1.178.316-1.718.616-.103 1.6.44 7.925.516 4.16.78 5.064.399 1.488-.49 1.726-.703.189-1.29-.43-.422-.418-.649-1.266-.764-2.852-1.047-7.961-.137-2.578-.238-3.947zm-.02-2.387q.026-.65.093-3.46.003-.731.225-2.962.205-2.293.322-3.676-1.105 1.25-2.097 3.088-3.471 6.558-4.585 10.423.715-.39 3.038-1.81.668-.401 3.004-1.603z" aria-label="753A" font-weight="400" font-size="43.829" font-family="Freestyle Script" letter-spacing="0" word-spacing="0" fill="#000" stroke-width="1.096"/><path fill="#fff" stroke="#000" stroke-width="2" stroke-linejoin="round" d="M116.97 283.601h113.131v45.357H116.97z"/><path opacity=".98" fill="#000" stroke="#000" stroke-width="1.766" stroke-linejoin="round" d="M121.323 287.131h104.425v38.295H121.323z"/><path d="M140.677 302.551l-1.02 1.768q.893 1.167 1.276 1.75.984 1.477.984 2.79 0 1.64-1.167 3.098-1.093 1.331-2.99 1.97-1.275.437-2.57.437-.291 0-.93-.037l-.491 1.003q-.31.638-.784.638-.219 0-.401-.128-.2-.164-.2-.383 0-.164.127-.474l.437-1.02q-2.479-.948-2.479-2.935 0-1.896 1.622-3.282 1.003-.856 1.842-.856.601 0 .601.565 0 .31-.528.692-.602.42-1.003 1.094-.365.62-.365 1.24 0 1.112 1.167 1.768l4.01-7.456q-.656-.948-.966-1.55-.656-1.239-.656-2.369 0-2.042 1.586-3.664 2.005-2.06 6.143-2.57l.748-1.13q.382-.566.838-.566.583 0 .583.492 0 .22-.145.51l-.365.694q2.716.419 2.716 2.57 0 2.333-3.208 3.974-2.096 1.075-4.412 1.367zm1.204-2.005q1.695-.31 3.007-1.076 1.787-1.039 1.787-2.169 0-1.094-1.531-1.094-.256 0-.602.019zm.856-3.992q-1.349.182-2.46.984-2.115 1.495-2.115 3.555 0 .93.656 2.005l.474-.82q-.237-.256-.237-.547 0-.875 1.167-1.021zm-7.656 16.096q.529.036.875.036 1.805 0 3.08-1.421 1.095-1.204 1.095-2.57 0-.84-.73-1.842-.164-.237-.692-.857zm19.305-14.346q-1.276.966-2.552 1.64-1.732.93-2.279.93-.583 0-.583-.93 0-.328.146-.565.145-.219.692-.419 1.64-.693 4.776-2.661 1.422-.894 2.006-.894.382 0 .692.383.2.255.2.547 0 .456-.71 1.55-5.268 8.53-7.292 13.398-.492 1.185-.71 1.476-.347.493-.694.493-.346 0-.656-.42-.182-.237-.182-.51 0-.984 2.807-6.49 2.625-5.177 4.339-7.528zm12.214-.657q-3.1 2.68-3.956 4.594 1.804-.729 3.08-.729 1.477 0 2.315.875.784.82.784 2.133 0 3.008-2.862 6.07-2.825 3.044-5.56 3.044-1.586 0-2.442-1.458-.565-.984-.565-2.224 0-1.258.546-2.06.456-.674 1.167-.674.656 0 .656.492 0 .11-.109.42-.182.528-.182 1.421 0 .784.364 1.367.492.82 1.331.82 1.64 0 3.427-2.06 1.969-2.26 1.969-4.502 0-.93-.42-1.385-.419-.474-1.275-.474-.839 0-2.042.437-.274.091-1.33.656-.22.128-.402.128-.346 0-.693-.437-.364-.493-.364-.894 0-.765 1.586-2.898 1.002-1.367 2.479-2.77-.401-.548-.401-.84 0-.419.565-.601.273-.091 2.06-.328 2.023-.274 3.281-.274 1.203 0 1.732.164.656.183.656.875 0 .839-.838.839-.183 0-.73-.036-.182-.019-.419-.019-.875 0-1.732.092-.838.072-1.677.236zm5.012 13.946q.857 0 .857 1.075 0 1.66-1.841 4.339-.747 1.094-1.768 2.005-.657.602-1.058.602-.382 0-.62-.347-.163-.219-.163-.51 0-.401.783-1.112 2.224-2.133 2.607-4.995.091-.529.492-.82.365-.237.711-.237zm17.518-15.003q.985.383 1.459 1.24.492.838.492 2.15 0 4.066-3.172 8.641-3.445 4.977-6.599 4.977-1.567 0-2.351-1.622-.51-1.058-.51-2.552 0-3.61 2.642-7.62 1.368-2.06 3.701-4.248 2.443-2.26 3.518-2.26.82 0 .82 1.294zm-2.37 1.313q-2.132 1.75-3.773 4.265-2.351 3.61-2.351 6.982 0 1.003.273 1.568.456.875 1.258.875 1.258 0 3.008-1.933 1.95-2.15 3.062-5.25.857-2.351.857-3.973 0-1.13-.693-1.933-.474-.565-1.257-.601h-.383zm15.131-1.313q.984.383 1.458 1.24.493.838.493 2.15 0 4.066-3.172 8.641-3.446 4.977-6.6 4.977-1.567 0-2.35-1.622-.511-1.058-.511-2.552 0-3.61 2.643-7.62 1.367-2.06 3.7-4.248 2.443-2.26 3.519-2.26.82 0 .82 1.294zm-2.37 1.313q-2.133 1.75-3.773 4.265-2.352 3.61-2.352 6.982 0 1.003.274 1.568.455.875 1.257.875 1.258 0 3.008-1.933 1.95-2.15 3.063-5.25.857-2.351.857-3.973 0-1.13-.693-1.933-.474-.565-1.258-.601h-.383zm15.13-1.313q.985.383 1.459 1.24.492.838.492 2.15 0 4.066-3.172 8.641-3.445 4.977-6.599 4.977-1.568 0-2.351-1.622-.51-1.058-.51-2.552 0-3.61 2.642-7.62 1.368-2.06 3.7-4.248 2.444-2.26 3.52-2.26.82 0 .82 1.294zm-2.37 1.313q-2.132 1.75-3.773 4.265-2.351 3.61-2.351 6.982 0 1.003.273 1.568.456.875 1.258.875 1.258 0 3.008-1.933 1.95-2.15 3.062-5.25.857-2.351.857-3.973 0-1.13-.693-1.933-.474-.565-1.258-.601h-.382z" aria-label="$15,000" font-weight="400" font-size="37.333" font-family="Freestyle Script" letter-spacing="0" word-spacing="0" fill="#fff"/><path d="M70.602 306.279l41.867-24.172v48.343zm205.867 0l-41.867 24.171v-48.342zm35.882-138.376l24.172 41.866H288.18zm0 87.732l-24.171-41.866h48.343z" opacity=".98" fill="#fff" stroke="#000" stroke-width="1.844" stroke-linejoin="round"/></svg>