<svg xmlns="http://www.w3.org/2000/svg" xml:space="preserve" fill="none" stroke="#000" stroke-width="2" viewBox="0 0 347 347"><path d="M5 5h337v337H5z"/><circle cx="298" cy="40" r="16"/><path fill="#000" stroke="none" d="m97.380321 159.63128 7.792449-5.04218v32.94601h10.77191v-47.27036h-5.09947l-13.464889 8.70921zm33.748179-5.72974s1.08865-5.84434 7.04758-5.84434c3.03676 0 5.84433 2.1773 5.84433 5.21406 0 3.43785-2.80757 5.95893-5.67244 5.95893h-2.34919v7.04758s.91675-.34378 2.0627-.34378c3.78163 0 6.81839 2.86487 6.81839 6.93299 0 4.01081-2.86487 6.24541-6.81839 6.24541-7.10488 0-7.73515-7.21947-7.73515-7.21947l-9.96974 4.87028s3.20865 11.63137 17.76219 11.63137c10.14164 0 17.533-6.4746 17.533-15.52759 0-4.98488-2.34919-8.59461-6.01622-10.82921 2.57838-2.00541 4.18271-4.98488 4.18271-8.8811 0-8.02164-6.53191-13.75138-15.5276-13.75138-13.2357 0-15.64219 10.37083-15.64219 10.37083zm36.3266 1.89081c-3.60973 0-6.5319 2.92217-6.5319 6.5892 0 3.60974 2.92217 6.53191 6.5319 6.53191 3.66704 0 6.5892-2.92217 6.5892-6.53191 0-3.66703-2.92216-6.5892-6.5892-6.5892zm0 19.48112c-3.60973 0-6.5319 2.92216-6.5319 6.5892 0 3.60973 2.92217 6.5319 6.5319 6.5319 3.66704 0 6.5892-2.92217 6.5892-6.5319 0-3.66704-2.92216-6.5892-6.5892-6.5892zm11.05845 2.86487c1.77622 4.81298 6.7611 10.25623 16.84544 10.25623 10.14164 0 17.533-6.4746 17.533-15.52759 0-13.12111-8.7092-16.55895-17.6476-16.61625-.45837 0-.91675.0573-1.31784.0573l1.03136-6.5892h14.89732v-9.45408h-24.1222l-3.95352 25.44005c1.43243-.63027 4.12541-1.48973 8.07893-1.48973 6.13082 0 12.26164 2.0627 12.26164 8.30812 0 4.01082-2.86487 6.87569-6.76109 6.87569-4.92758 0-7.44866-2.46379-8.30812-5.38596zm36.72768 0c1.77622 4.81298 6.76109 10.25623 16.84544 10.25623 10.14164 0 17.533-6.4746 17.533-15.52759 0-13.12111-8.7092-16.55895-17.6476-16.61625-.45838 0-.91676.0573-1.31784.0573l1.03135-6.5892h14.89733v-9.45408H222.4607l-3.95352 25.44005c1.43244-.63027 4.12541-1.48973 8.07894-1.48973 6.13082 0 12.26164 2.0627 12.26164 8.30812 0 4.01082-2.86487 6.87569-6.76109 6.87569-4.92758 0-7.44867-2.46379-8.30813-5.38596z" aria-label="13:55"/><path fill="#000" stroke="none" d="M143.07321 216.38893c.82414 2.23316 3.13705 4.75875 7.81605 4.75875 4.70558 0 8.13507-3.00413 8.13507-7.20459 0-6.08801-4.04095-7.68312-8.18824-7.70971-.21268 0-.42537.0266-.61146.0266l.47853-3.0573h6.91215v-4.38656h-11.19237l-1.83437 11.80383c.66463-.29244 1.91413-.69121 3.74851-.69121 2.84462 0 5.68923.95706 5.68923 3.85485 0 1.86096-1.32926 3.19022-3.13705 3.19022-2.28633 0-3.45608-1.14316-3.85486-2.49901zm21.18842-10.36823c-1.67486 0-3.03071 1.35585-3.03071 3.0573 0 1.67487 1.35585 3.03071 3.03071 3.03071 1.70146 0 3.0573-1.35584 3.0573-3.03071 0-1.70145-1.35584-3.0573-3.0573-3.0573zm0 9.03897c-1.67486 0-3.03071 1.35584-3.03071 3.0573 0 1.67486 1.35585 3.03071 3.03071 3.03071 1.70146 0 3.0573-1.35585 3.0573-3.03071 0-1.70146-1.35584-3.0573-3.0573-3.0573zm10.1024-9.91628s.50512-2.71169 3.26998-2.71169c1.40902 0 2.71169 1.01024 2.71169 2.41925 0 1.59511-1.30267 2.76486-2.63193 2.76486h-1.08999v3.26998s.42536-.15951.95706-.15951c1.75463 0 3.16364 1.32926 3.16364 3.21681 0 1.86096-1.32926 2.89779-3.16364 2.89779-3.29656 0-3.589-3.34974-3.589-3.34974l-4.62582 2.25974s1.48877 5.3968 8.24141 5.3968c4.70558 0 8.13507-3.00413 8.13507-7.20459 0-2.31291-1.08999-3.98778-2.79145-5.0246 1.19634-.93048 1.94072-2.31291 1.94072-4.12071 0-3.72193-3.03071-6.38045-7.20459-6.38045-6.14118 0-7.25776 4.81192-7.25776 4.81192zm28.52595-1.19633c0-3.2434-3.42949-5.52973-7.17801-5.52973-3.61558 0-7.25776 2.28633-7.25776 5.52973 0 2.41925 1.22292 4.01436 2.89779 4.97143-2.20657 1.01024-3.82827 2.92437-3.82827 5.9285 0 3.69534 3.9612 6.30069 8.21483 6.30069 4.1207 0 8.18824-2.60535 8.18824-6.30069 0-3.00413-1.64828-4.91826-3.85485-5.9285 1.64828-.95707 2.81803-2.55218 2.81803-4.97143zm-4.73217.7178c0 1.46218-1.01024 2.44583-2.41925 2.44583-1.35585 0-2.47243-.98365-2.47243-2.44583 0-1.40902 1.06341-2.47243 2.47243-2.47243 1.4356 0 2.41925 1.06341 2.41925 2.47243zm-5.2107 9.38457c0-1.64828 1.19634-2.79144 2.76486-2.79144 1.54194 0 2.79145 1.14316 2.79145 2.79144 0 1.6217-1.19634 2.79145-2.79145 2.79145-1.64828 0-2.76486-1.16975-2.76486-2.79145z" aria-label="5:38" opacity=".62"/></svg>