<svg xmlns="http://www.w3.org/2000/svg" viewBox="0 0 338.91 339.67"><defs><style>.cls-1,.cls-3{fill:none;}.cls-1,.cls-2,.cls-3{stroke:#000;stroke-width:2px;}.cls-2,.cls-3{stroke-miterlimit:10;}</style></defs><g id="Layer_1" data-name="Layer 1"><path class="cls-1" d="M5.08,5.78H342V343.45H5.08Z" transform="translate(-4.08 -4.78)"/><path class="cls-1" d="M282.73,40.55a15.37,15.37,0,0,1,15.56-15.16,15.8,15.8,0,0,1,11,4.44,15,15,0,0,1,4.55,10.72,15.57,15.57,0,0,1-31.12,0Z" transform="translate(-4.08 -4.78)"/></g><g id="Layer_2" data-name="Layer 2"><path id="path3776" class="cls-2" d="M173.1,51.37h-2.79c-1.16,0-2.15,0-2.81.07-13.47.66-26.25,3.42-36.83,8a69.48,69.48,0,0,0-16.47,9.73A77.52,77.52,0,0,0,107,76c-7.16,8.34-11.45,18-13.26,29.67a89.43,89.43,0,0,0-.37,23c.11,1.06.34,3.94.51,6.42.94,13.49,1.82,22.34,2.93,29.51.84,5.37,1.51,7.95,2.76,10.55a12.41,12.41,0,0,1,1.24,3.52c.08.65,0,.79-.59.88a4,4,0,0,0-3.11,3.19c-.7,2.65-.42,6.06.88,10.65.65,2.31.63,2.28,3.83,5.53,3.53,3.61,5.3,6,6.63,8.82a8.26,8.26,0,0,1,.5,1.27,1.43,1.43,0,0,0,.15.48,9.77,9.77,0,0,1,.68,3.88c0,1.12.16,2.54.25,3.16a38.78,38.78,0,0,0,2.82,9,41.58,41.58,0,0,1,2.87,8.46c1.83,7.91,2.52,17.89,1.67,24.25a11.86,11.86,0,0,0-.11,2c.13,1.88,1.35,4.24,3.6,6.95a78.33,78.33,0,0,0,6,6.48,279.1,279.1,0,0,0,24.43,17.66c6.38,4.08,8.28,4.91,12,5.28a83.1,83.1,0,0,0,9-.18c4.44-.27,9.4-.43,12.45-.39l2.56,0,.82-.37c3.63-1.67,10.84-6.85,30.75-22.1l4.45-3.39A31.51,31.51,0,0,0,228,266a19.62,19.62,0,0,0,3.92-7.52c.5-2,.56-2.88.57-8a86.55,86.55,0,0,1,.35-9.64,51,51,0,0,1,2.31-11.16,162.45,162.45,0,0,0,5.22-22.22,5.18,5.18,0,0,1,1.07-2.95c.17-.22,1.21-1.29,2.32-2.37a23.77,23.77,0,0,0,3.71-4.15c2.4-3.5,3.09-7.73,2.07-12.54a6.64,6.64,0,0,0-2.13-4.08c-.73-.7-.77-.76-.83-1.29-.18-1.44.95-6.12,2.81-11.71a89.64,89.64,0,0,0,3.58-14c.93-5.35,1.18-8.28,1.55-18,.11-3,.27-6.66.36-8.05s.2-3.25.25-4.14a95,95,0,0,0-.26-13c-1.06-10.81-4.25-20.2-9.59-28.26A59.56,59.56,0,0,0,228.08,66a87.84,87.84,0,0,0-27.47-11.42,120,120,0,0,0-20.24-3.08C179.1,51.44,176,51.38,173.1,51.37Zm.15,1.35c3,0,5.95.09,8,.25,13.83,1.08,26.32,4.16,37.15,9.16a66.6,66.6,0,0,1,21.54,15.49,3.15,3.15,0,0,1,.85,1.33c.24.83.36,1.09.58,1.28s.24.14,0-.49a2,2,0,0,1-.12-.52A39.16,39.16,0,0,1,244.16,83a59.07,59.07,0,0,1,10,27.57,60.91,60.91,0,0,1,.42,8.94c0,3.41-.05,5.33-.18,7.06-.23,3.15-.26,3.7-.38,6.76-.1,2.5-.28,3.86-.53,4a.31.31,0,0,0-.09.24c0,.13.06.17.21.13s.2,0,.2.86c0,2.46-.4,8.51-.72,11a92.37,92.37,0,0,1-4.25,18.19c-1.78,5.26-2.92,10.05-2.94,12.31,0,1.45.09,1.73.87,2.43a6.29,6.29,0,0,1,1.3,1.43s-.06.09-.14.09a3.54,3.54,0,0,0-.63,1,6.05,6.05,0,0,1-.68,1.2c-.17.15-.2.13-.45-.42-.64-1.37-1.18-4.05-1.89-9.27-1-7.56-1.23-9-1.7-11.49-.26-1.38-.26-1.42-.08-1.75s.14-.54-.11-.34-.15.27-.62-1.62a27.28,27.28,0,0,0-1.65-4.82,24.71,24.71,0,0,1-1.43-3.43,2.65,2.65,0,0,0-.2-.64,38.45,38.45,0,0,1-1.48-7,100.34,100.34,0,0,1-.63-15.29c.11-3.43.36-7.75.48-8.53.06-.33,0-.37-.22-.47a1.94,1.94,0,0,0-.7-.07c-.42,0-.42,0-.49.52a159.55,159.55,0,0,0-.4,17.57c.4,7.42,1.47,12.78,3.25,16.42a15.14,15.14,0,0,1,1.3,3.33.38.38,0,0,0,.1.32,22.83,22.83,0,0,1,1.19,4.27c.38,1.79.94,5.19,1.34,8.14.89,6.64,1.06,7.83,1.3,9.23.53,3.13,1.19,5.25,1.83,5.87a2.14,2.14,0,0,0,1.6.45c.42,0,1-.55,1.37-1.27a2.42,2.42,0,0,1,.36-.6,9.82,9.82,0,0,1,.53,2.17,17.34,17.34,0,0,1,0,4.61,13.9,13.9,0,0,1-2.67,5.53c-.47.61-1.76,2-3,3.19-2.05,2-3,3.1-3.18,3.56-.05.17-.12.2-.35.15s-.32,0-1.91,2.73c-.88,1.53-1.68,2.86-1.76,3a24,24,0,0,1-5,2.3c-1.18.4-1.33.42-1.24.14s0-.24-.35.1-.37.32-2.66.69c-4.28.7-6.14,1.25-7.67,2.25-2,1.29-2.6,3-2.13,5.7a7.85,7.85,0,0,1,0,3.13c-.24.68-.4.77-1.35.81-1.18,0-1.52.23-2,1.09a6.15,6.15,0,0,1-.84,1.13c-.44.42-.45.43-.74.28a5.36,5.36,0,0,0-.64-.28c-.35-.13-.35-.12-.72.31a3.18,3.18,0,0,1-2.83,1.53,9.06,9.06,0,0,0-1.69.25,4.76,4.76,0,0,0-2.61,1.82c-.11.18-.13.17-.58,0a1.35,1.35,0,0,0-1.37,0,4,4,0,0,0-1.57,1.71,2.57,2.57,0,0,1-.45.67,2.92,2.92,0,0,1-.56-.33,2.36,2.36,0,0,0-1.78-.64,2.07,2.07,0,0,0-1.72,1.18c-.21.32-.4.57-.44.55a8.81,8.81,0,0,1-.73-.82,5.48,5.48,0,0,0-2-1.62,2.83,2.83,0,0,0-1.68,0c-1.05.42-2.42,2.26-3.23,4.33-.1.26-.23.46-.3.43-1.94-.76-2.28-.83-3.07-.61a3.16,3.16,0,0,0-1.86,1.79,5.09,5.09,0,0,1-.41.73,6.83,6.83,0,0,1-.51-.68,12.57,12.57,0,0,0-1-1.2q-3.06-3.28-6.14,2.94c-.3.61-.56,1.12-.58,1.12s-.15-.39-.31-.87A10,10,0,0,0,172,237c-1.29-1.38-2.79-1.17-4.6.65a17,17,0,0,0-1.42,1.66l-.57.82-.28-1.14a6,6,0,0,0-1.26-2.71c-.9-.69-1.94-.36-3.33,1.07a15.92,15.92,0,0,0-1.17,1.36l-.4.58-.06-1.83a14.55,14.55,0,0,0-.17-2.13c-.33-1-.83-1.42-1.57-1.42-.91,0-1.81.47-3.31,1.73l-.87.73-.47-.78c-.83-1.39-1.53-1.87-2.7-1.88a4.39,4.39,0,0,0-1.43.26l-.78.26-.21-.29c-1-1.31-1.9-1.7-3.21-1.37l-.63.16-.52-.53a5.46,5.46,0,0,0-1-.82,2.33,2.33,0,0,0-1.43-.29h-.89l-.29-.58c-.54-1.11-1.14-1.53-2-1.39-.39.06-.4.06-.52-.31a2.16,2.16,0,0,0-2.18-1.57l-.64,0-.25-.43-.25-.44.29-.88c.88-2.68,0-5-2.74-7.61a24.58,24.58,0,0,0-6.33-4.17l-1.38-.65-1.74-.07a13.77,13.77,0,0,1-3.72-.47c0-.05-.11-.06-.21,0a16.23,16.23,0,0,1-7.18-3.61c-.55-.48-.7-.57-.85-.49s-.2.06-.25-.08c-1.36-3.73-3.35-6.54-7.87-11.09-2.09-2.11-2.56-2.7-2.87-3.65a37.7,37.7,0,0,1-1.39-6.07c-.29-2.48.12-4.51,1.12-5.61a3.42,3.42,0,0,1,1.59-.88c.27,0,.31,0,.38.32a2.06,2.06,0,0,1,0,.74,5,5,0,0,0,.09,2.27c.24.89.37,1.12.69,1.19.9.22,2.91-.85,3.42-1.83.16-.3.19-.73.24-3.11a118.83,118.83,0,0,1,1.36-14.16c.08-.55.15-1,.2-1.31a.84.84,0,0,1,0-.4,4.22,4.22,0,0,1,.2-.6c0,.08,0,.21-.14.24s0-.12,0-.18a3.9,3.9,0,0,1,.14-.59c0-.11.08-.18.11-.26h0c0-.16.09-.56.19-1.1a.87.87,0,0,1,.1-.54l0-.18c.67-3.5,1-4.56,1.81-6.23a25.42,25.42,0,0,0,2.86-12.48,41.18,41.18,0,0,0-2.32-13.43c-1-2.83-2.74-7-3-7a2.66,2.66,0,0,0-1,.54c-.12.13-.06.31.38,1.22a54.92,54.92,0,0,1,3.24,8.7c1.74,6.52,2,12.54.62,17.63a3.13,3.13,0,0,1-.41,1.06.25.25,0,0,0-.09.31,12.7,12.7,0,0,1-1.45,3.71,26.62,26.62,0,0,0-2.14,7.85c-.25,1.51-.25,1.53-.44,1.46s-.15,0-.07.18c.13.36.09,1-.2,2.95a111.64,111.64,0,0,0-1.26,14.66c.07,1.05-.06,1.42-.66,1.8s-.87.23-1.18-1.15a2.65,2.65,0,0,1-.06-1.38c.21-1,.11-1.85-.21-1.82-.14,0-.15-.08-.11-.65a10.58,10.58,0,0,0-1.4-5.43c-.33-.69-.72-1.6-.87-2-1.14-3.34-2.32-10.61-3.27-20.23-.35-3.54-.78-8.5-.94-10.81-.4-.22-.53-.45,0-.46a8.08,8.08,0,0,1,0-.82l0,0a1.46,1.46,0,0,1,0-.2,2.85,2.85,0,0,1,0-.59,39.44,39.44,0,0,1-.39-4.32c-.17-2.34-.39-5.16-.5-6.28a74.7,74.7,0,0,1-.47-10,64.47,64.47,0,0,1,.47-9.67,58.43,58.43,0,0,1,9.49-26.24c1.8-2.64,4.71-6.22,4.87-6s.4,0,.61-.57.49-.78,2.06-2.27c1-1,2.45-2.24,3.15-2.82a71.47,71.47,0,0,1,19.58-11.11,110.82,110.82,0,0,1,31.51-6.65C167.26,52.78,170.26,52.71,173.25,52.72Zm69.16,28.94a2.64,2.64,0,0,0,.53.59c.63.61.77.69.77.45A4.33,4.33,0,0,0,242.41,81.66Zm4.78,28.43M136.56,150.23c-7.72,0-14.86,2.79-18.77,7.25a17.44,17.44,0,0,0-3.22,5.34,3.93,3.93,0,0,1-.63,1.2c-.32.32-.35.42-.15.53s.1.28-.1,1.22a25.09,25.09,0,0,0-.52,6.56,26.52,26.52,0,0,0,1.31,8.56,14.46,14.46,0,0,0,11,9.91,22.06,22.06,0,0,0,5.87.57,35.77,35.77,0,0,0,9.2-1.07l.34-.09a2.5,2.5,0,0,1,.53-.25l.11-.08h.07l.14-.09a.73.73,0,0,1,.73.15h0l.24-.25L145,189c5.51-1.75,11.59-4.17,12.71-5.06a2.69,2.69,0,0,0,.63-.85c2.38-5.06,3.42-9.12,3.42-13.31a15.79,15.79,0,0,0-2.87-9.59,21.55,21.55,0,0,0-3.63-3.73c-3.7-2.85-8.77-4.87-14.87-5.93A16.41,16.41,0,0,0,136.56,150.23Zm5,39.64-.07,0C141.69,189.85,141.74,189.84,141.58,189.87Zm-.07,0-.11.05-.25.18.11,0A2.43,2.43,0,0,0,141.51,189.91Zm67.66-39.28a15.53,15.53,0,0,0-5.72.69,26,26,0,0,0-5.13,2.42,23.31,23.31,0,0,0-8.83,11.14,9.26,9.26,0,0,1-.57,1.28.7.7,0,0,0-.12.4,6.8,6.8,0,0,1-.27,1.13c-1,3.23-1.5,8.15-1.05,9.58,1.1,3.48,5.22,7,12.83,10.89a68.15,68.15,0,0,0,8,3.59c.7.22,1.43.46,1.61.53a7.74,7.74,0,0,0,1.48.2,7.51,7.51,0,0,1,1.21.11,35.57,35.57,0,0,0,4.77-.21c5.55-.84,10.79-3.49,13.86-7a17.68,17.68,0,0,0,4-7.66,33.84,33.84,0,0,0,.39-8.93A21.87,21.87,0,0,0,234.1,163a2.54,2.54,0,0,1-.25-.77.34.34,0,0,0-.14-.28,1.66,1.66,0,0,1-.41-.56,18.25,18.25,0,0,0-3.63-4.46C225,152.85,217.85,150.64,209.17,150.63Zm-73,.94h1A35.89,35.89,0,0,1,153,156.36c6.8,4.28,9.42,10.31,7.77,17.9-.67,3.13-2.49,7.75-3.3,8.39-1.67,1.34-14,5.77-18.68,6.71-.53.11-1.72.29-2.65.4a49.42,49.42,0,0,1-7.48.19,20.75,20.75,0,0,1-6.48-1.72c-4.64-2.25-7.32-6.41-8.25-12.79a41.13,41.13,0,0,1,0-7.85,17.17,17.17,0,0,1,8-12.12A28.89,28.89,0,0,1,136.17,151.57Zm72.61.3a43.55,43.55,0,0,1,10.71,1.4c9.33,2.59,14.51,8.3,15.41,17a36.65,36.65,0,0,1-.2,6.93,16.47,16.47,0,0,1-.57,2.37c-2.15,6.18-9.21,10.87-17.57,11.68a21.79,21.79,0,0,1-5.79-.25c-1.9-.38-3.44-1-7.65-3-5.92-2.86-9.78-5.33-12.3-7.89-1.73-1.76-2.63-3.37-2.74-4.92a29.92,29.92,0,0,1,1.45-8.83A21,21,0,0,1,202,153a14.05,14.05,0,0,1,5.28-1.06C207.79,151.88,208.28,151.87,208.78,151.87Zm-35.06,20.77a.65.65,0,0,1-.3.13,9.87,9.87,0,0,0-3.87,2.12,9.75,9.75,0,0,0-1.87,2.75c-.17.4-.5,1.38-.73,2.19-.47,1.64-.43,1.54-.89,2.08a16.87,16.87,0,0,0-2.6,5.73c-.23.81-.49,1.69-.58,2a6.29,6.29,0,0,0-.18,1.33,38.92,38.92,0,0,1-2.17,9.85,41.7,41.7,0,0,0-1.75,5.75,13.68,13.68,0,0,0-.28,3.52,9.61,9.61,0,0,0,.75,4.66,11.28,11.28,0,0,0,5.89,5.76,18.8,18.8,0,0,0,5.34,1.43l.72.07,1.37,1a14.67,14.67,0,0,0,1.46,1,6.45,6.45,0,0,0,.92-.74,9.88,9.88,0,0,1,1.35-1c.5-.26.57-.27,2.22-.28a6.21,6.21,0,0,0,2.52-.29,7.84,7.84,0,0,0,3.23-2,12.32,12.32,0,0,0,2.71-3.81,22.41,22.41,0,0,0,2.07-6.51,19.07,19.07,0,0,0,.19-3.36c0-2.72-.1-3.18-.86-4.25-1.38-1.91-1.79-3.54-2-7.75,0-1.38-.15-2.78-.21-3.11a4.71,4.71,0,0,1-.1-.79,3.86,3.86,0,0,0-.14-.59h-.27l.08.28c0,.17,0,.17-.24,0a7.54,7.54,0,0,1-2.5-3.26,10.93,10.93,0,0,1-1.43-4.5,7.19,7.19,0,0,0-.91-3.31,18.61,18.61,0,0,0-5.85-5.82l-.31-.21A1.87,1.87,0,0,1,173.72,172.64Zm-.3,1.25c.39,0,.7.25,1.46.8,3,2.17,5,4.61,5.6,6.74a3.49,3.49,0,0,1,0,2.19c-.17.23-.12.41.1.41s.21.26.31.6a23.16,23.16,0,0,0,1.6,3.72,2.59,2.59,0,0,1,.51,1.45,2.68,2.68,0,0,0,.06.69c.1.27.24.17.24-.17s.1-.5.49-.07a4.88,4.88,0,0,0,.84.7c.66.41.7.58.82,3.72.13,3.29.29,4.38.86,6a7,7,0,0,0,1.05,2c.39.51.43.66.2.75s-.21.43,0,.43a.46.46,0,0,0,.26-.13c.18-.17.28,0,.41.76a18,18,0,0,1-.3,6.6,13.9,13.9,0,0,1-1.18,3.73,1.41,1.41,0,0,0-.45,1,3.63,3.63,0,0,1-.38,1.07,8.46,8.46,0,0,1-4.45,3.62,6.09,6.09,0,0,1-2.55.3,10.25,10.25,0,0,0-2,.13,8.46,8.46,0,0,0-1.89,1.34,1.55,1.55,0,0,1-.46.35c-.13,0-.36-.17-1.67-1.14-.87-.66-1-.71-1.58-.77a19.13,19.13,0,0,1-5.82-1.64,10.63,10.63,0,0,1-4.93-4.47c-.52-.92-.52-1.1,0-.61l.42.39-.2-.4a5.71,5.71,0,0,0-.58-.83,2.4,2.4,0,0,1-.73-1.64,17.87,17.87,0,0,1,0-4.63,6.86,6.86,0,0,1,.67-2.52c.19,0,.25-.21.12-.41s0-.72.93-3.19a39.42,39.42,0,0,0,2-7.79,1.5,1.5,0,0,1,.15-.61,1,1,0,0,0,.09-.52,20.46,20.46,0,0,1,.61-4,11,11,0,0,1,.93-2.71c.06,0,.1-.12.1-.26a6.17,6.17,0,0,1,1.19-2.3,7,7,0,0,0,1.48-3.2,13.66,13.66,0,0,1,.78-2.22,6.2,6.2,0,0,1,3.57-2.88A4.17,4.17,0,0,1,173.42,173.89Zm66.38,33.39c.12.12-1,5.9-2,10-1.23,5.21-2.22,8.86-3.11,11.5A59.55,59.55,0,0,0,232,244.06c-.07.95-.11,3.83-.11,6.41,0,5,0,5.49-.52,7.31a19.56,19.56,0,0,1-7,10.1l-15.29,11.68c-10.81,8.2-18.07,13.3-20.85,14.63l-1,.46-5.55.06c-5.12.06-6.82.12-10.66.39-1.53.11-6.9.2-7.59.14a16.48,16.48,0,0,1-5.71-1.57c-4.46-2.21-16-10-25.23-17-4.9-3.73-6.08-4.77-8.55-7.51-3.69-4.09-5.07-6-5.81-7.86-.45-1.14-.48-1.6-.24-3.5a70,70,0,0,0,.2-9.77,83.85,83.85,0,0,0-2.84-18.17c-.25-.84-1-2.84-1.68-4.45-2.44-5.86-3.09-8.11-3.28-11.35-.06-1-.15-2.24-.2-2.76s-.08-.94-.07-1a4.74,4.74,0,0,1,.69.45,17.75,17.75,0,0,0,6.86,2.89,20.59,20.59,0,0,0,2.92.28l1.85.07.92.41.92.41,0,1.06c-.15,4.6,1.66,10.78,5.11,17.41.92,1.77,2.5,4.53,3.06,5.34.39.56.39.56.45,1.83.08,1.92.43,2.74,1.53,3.53a7.2,7.2,0,0,1,1.08,1,2.41,2.41,0,0,0,2,1H138l.11.42a10.18,10.18,0,0,0,.63,1.79,3.27,3.27,0,0,0,1.5,1.41,5.89,5.89,0,0,0,2.44.11l.51-.08.19.57a5,5,0,0,0,1.15,2A2.68,2.68,0,0,0,147,253l.9,0,.12.7A3.05,3.05,0,0,0,150,256.4a7,7,0,0,0,2.71-.15c1-.23,1.12-.21,1.52.32a7.89,7.89,0,0,0,2,1.82,4,4,0,0,0,2.32.17l.38-.12.36.44c.2.23.72.77,1.15,1.2a3.78,3.78,0,0,0,2.81,1.35,2.39,2.39,0,0,0,2-.82l.45-.44.73.58a4.72,4.72,0,0,0,2.76,1.25,3.07,3.07,0,0,0,2.2-.57,6.31,6.31,0,0,1,.66-.39,8.78,8.78,0,0,1,.87.77,3.65,3.65,0,0,0,2.85,1.35c1.18,0,1.6-.22,2.77-1.39l.94-.95.5.25a5.44,5.44,0,0,0,3.86.36,4.72,4.72,0,0,0,1.92-1.71l.33-.47.42.24a5,5,0,0,0,2.64.7,2.63,2.63,0,0,0,1.55-.27,4.93,4.93,0,0,0,2.08-2.26c.8-1.49.72-1.42,1.79-1.5a5,5,0,0,0,3.79-1.71l.64-.69.8-.06c1.41-.1,2.28-.51,2.68-1.27a5.4,5.4,0,0,0,.35-1.19,2.91,2.91,0,0,1,.28-.93,4.27,4.27,0,0,1,1.18-.27,7.37,7.37,0,0,0,2.86-.9,1.6,1.6,0,0,0,.75-1.53V247h1a2.64,2.64,0,0,0,1.42-.22,3.6,3.6,0,0,0,1.43-1.55,7.39,7.39,0,0,0,.56-1.84c0-.13.13-.18.56-.23a4.25,4.25,0,0,0,2-.74,5,5,0,0,0,.9-2.59l.17-1.15.57-.6c1.19-1.23,2.15-3.07,3.18-6.05A84.64,84.64,0,0,0,223,217.79a8.43,8.43,0,0,1,.53-2.53,31,31,0,0,1,5.06-1.07,23.61,23.61,0,0,0,8.17-2.68l.84-.44,1.11-1.91C239.26,208.11,239.78,207.27,239.8,207.28Zm-114.32,8.25a22.15,22.15,0,0,1,3.5,2.28c2.37,1.91,3.71,3.78,4.05,5.65a4.58,4.58,0,0,1-.26,2.5,5.61,5.61,0,0,0-.26,1,2.25,2.25,0,0,0,.53,1.17l.2.21L133,229c-.82,2.53-.8,4.59.05,6.21.35.68.36.72.21,1a4.27,4.27,0,0,0-.24,1L133,238l-.74-1.27c-4.4-7.49-6.89-14.66-6.89-19.84C125.34,215.77,125.36,215.53,125.48,215.53Zm96.63.18-.07.72c0,.4-.23,1.68-.43,2.84-1.32,8-3.07,14-4.94,17.07-.48.78-.74,1-.74.74,0-.1-.06-.65-.14-1.22s-.14-1-.13-1l.5-.23c.42-.19.53-.31.82-.88l.34-.66,0-1.78a21.19,21.19,0,0,0-.13-3.19,10.66,10.66,0,0,1-.12-1.47l.54-.36c1.19-.75,1.37-1.71.9-4.83a4.52,4.52,0,0,1,.34-3.07,5.91,5.91,0,0,1,2.87-2.49Zm-5.92,10.53.14.89c.07.5.14,1.85.15,3.1,0,2.56,0,3-.65,3.57-.37.38-.38.38-1.17.38s-.79,0-.72-.17a5.27,5.27,0,0,0,.13-1.07,6.78,6.78,0,0,0-.81-3.39l-.4-.82.5-.52a6,6,0,0,0,.82-1.05c.48-.82.64-.92,1.38-.92Zm-81.55,1.83a2.4,2.4,0,0,1,1.49.64c.35.46.33.85-.06,1.54a8.14,8.14,0,0,0-1.07,4.57,5,5,0,0,0,.41,2c.07.09.06.13,0,.13a1.71,1.71,0,0,1-.53-.43,4.76,4.76,0,0,1-1.57-3.87,10.27,10.27,0,0,1,.68-3.57l.33-1Zm76.87.41h0a10.5,10.5,0,0,1,1.46,2.84,4.62,4.62,0,0,1,.09,3.06,7.63,7.63,0,0,0-.43,1.14,1.9,1.9,0,0,1-1.25,1.43,3.66,3.66,0,0,1-.75.1c-.4,0-.4,0-.33-.32a9.73,9.73,0,0,0-.83-5.64,5.18,5.18,0,0,1-.32-.89l.49-.28a6.05,6.05,0,0,0,1.09-.87A2.36,2.36,0,0,1,211.51,228.48ZM137.3,230h.44c.53,0,.89.34,1.18,1.06l.18.46-.41.82a8.33,8.33,0,0,0-1,4.91,4.7,4.7,0,0,0,.86,2.38c.22.17.22.18,0,.17a3,3,0,0,1-1.65-.6,2.9,2.9,0,0,1-1-2.3c0-.27-.1-.87-.16-1.33a7.36,7.36,0,0,1,1-4.77Zm70.46.24c.38,0,.4,0,.69.64a11.9,11.9,0,0,1,1.21,5,2,2,0,0,1-.36,1.34c-.71,1.07-.82,1.16-1.68,1.37-.3.07-.77.15-1,.18l-.48.05v-.46a15.07,15.07,0,0,0-1.26-5.29l-.52-1.27.41-.36A5.29,5.29,0,0,1,207.76,230.23Zm-67.21,1.68a2.6,2.6,0,0,1,2.1,1l.23.3-.51.76a12.34,12.34,0,0,0-1.88,3.9,7.76,7.76,0,0,0-.1,3.15c.06.15.08.27,0,.26-.32-.05-.44-.13-.44-.3a1,1,0,0,0-.61-.87c-.22-.09-.31-.19-.31-.35a1.83,1.83,0,0,0-.16-.58,8.08,8.08,0,0,1,.77-6.8C140,231.92,140,231.91,140.55,231.91Zm61.91.2a1.94,1.94,0,0,1,1.49,1.11,15.34,15.34,0,0,1,1.33,5.24c0,.44-.05.57-.27.77a4.83,4.83,0,0,0-.62.75,3.85,3.85,0,0,1-1.36,1.4c-.5.25-.73.3-1,.22s-.25-.1-.23-.85a24.38,24.38,0,0,0-.9-5.22c-.45-1.73-.46-1.62.17-2.46A2.12,2.12,0,0,1,202.46,232.11Zm-10.68.71c.81,0,1.78.67,2.74,1.91.44.58.45.6.63,2,.29,2.17.58,4.92.65,6.23.07,1.14.06,1.23-.17,1.68a5.16,5.16,0,0,1-1.76,1.75,2.86,2.86,0,0,1-.72.21,5.49,5.49,0,0,1-1.83-.24c-.36-.13-.37-.15-.49-.88a28,28,0,0,0-2.12-6.57,11.19,11.19,0,0,1-.65-1.68,12.85,12.85,0,0,1,1.71-3.16,3.27,3.27,0,0,1,1.85-1.21Zm-46.84.5a2.41,2.41,0,0,1,.64.07c.47.15,1.28.91,1.28,1.19a4.58,4.58,0,0,1-.45,1.06,33,33,0,0,0-1.81,4.42,9.68,9.68,0,0,0-.27,1.64l-.06.85-.46.06a5.51,5.51,0,0,1-.68.06,4.63,4.63,0,0,1-2-1.18,7.81,7.81,0,0,1-.12-1.1,8.53,8.53,0,0,1,1.17-4.46,12.36,12.36,0,0,1,1.7-2.42A2.3,2.3,0,0,1,144.94,233.32Zm52.62.3a.78.78,0,0,1,.21,0,3.94,3.94,0,0,1,1.6.87c.36.3.42.43.69,1.46.64,2.42,1.06,5.18.83,5.44a5.45,5.45,0,0,0-.37.8,4.1,4.1,0,0,1-1.44,2,2,2,0,0,1-1.8,0l-.46-.18-.08-.87a68.37,68.37,0,0,0-.9-7.72c-.17-.4.41-1.28,1.11-1.67A1.06,1.06,0,0,1,197.56,233.62Zm-47.92.91a2.73,2.73,0,0,1,2.51,1.77l.28.54-.48,1c-.26.53-.64,1.43-.84,2a24.52,24.52,0,0,0-1,4.22c0,.18,0,.32-.12.32a4.66,4.66,0,0,0-.83.41,2.19,2.19,0,0,1-2,.35,9.17,9.17,0,0,1-1.85-1.79c-.27-.34-.28-.38-.23-1.26a16.74,16.74,0,0,1,2-5.82c.52-1.07.6-1.17,1-1.35a5.24,5.24,0,0,1,1.05-.31A2.49,2.49,0,0,1,149.64,234.53Zm7.54.19a.89.89,0,0,1,.54.2c.61.54.87,1.61.8,3.34A6.71,6.71,0,0,1,158,241a12.25,12.25,0,0,0-.84,4.3v.95l-.62.27a4.71,4.71,0,0,1-2.25.29,8.1,8.1,0,0,1-2.43-1.45c-.75-.62-.94-.83-.91-1s.1-.52.16-.91a19.06,19.06,0,0,1,1.78-5.37,4.07,4.07,0,0,1,1.57-2A4.82,4.82,0,0,1,157.18,234.72Zm57.11.06c.47,0,.46,0,.62,1.28a5.11,5.11,0,0,1,0,2.25c-.1.09-.1.15,0,.24s.15.69,0,1.62c-.32,1.59-.61,2.06-1.48,2.35s-.78.32-.79-1.15a24.66,24.66,0,0,0-.19-2.59l-.18-1.28.25-.15a2.41,2.41,0,0,0,1-1.44C213.83,234.77,213.83,234.78,214.29,234.78Zm-80.24,1.77a5.19,5.19,0,0,1,1.36,1.58c.24.54.24.56.1,1.58a20.24,20.24,0,0,0-.11,2.64c0,.89,0,1.61,0,1.61s-.3-.26-.63-.57a2.29,2.29,0,0,1-.77-1.11,14.47,14.47,0,0,1-.19-5.38C133.91,236.71,134,236.55,134.05,236.55Zm44.43.11a3.58,3.58,0,0,1,2.48,1.79c.77,1.09.82,1.21,1.25,3.31a31.58,31.58,0,0,1,.76,5.45v.93l-.61.42a9.64,9.64,0,0,1-2.89,1.33,6,6,0,0,1-4.9-.85l-.59-.36.07-2.14c0-1.18.13-2.83.2-3.68l.13-1.55.54-1.07C176.11,237.91,177.34,236.66,178.48,236.66Zm-15.65.09c.82,0,1.56,1.16,1.93,3l.18.92-.39,1.45a19.91,19.91,0,0,0-.86,4.82l-.05,1.4-.83.16a7,7,0,0,1-2.27.15,3.28,3.28,0,0,1-2.27-1.35c-.34-.45-.34-.46-.34-1.62a13.42,13.42,0,0,1,1.23-5.46C159.69,238.82,161.85,236.76,162.83,236.75Zm7.24.2c1.2,0,2.29,1.25,3.08,3.55l.29.84-.13,2c-.07,1.08-.15,2.73-.18,3.65-.07,1.89,0,1.82-1,2.41a5.63,5.63,0,0,1-3.1,1,5.6,5.6,0,0,1-3-1,.57.57,0,0,0-.36-.21,1.94,1.94,0,0,1-.66-.29c-.43-.26-.48-.34-.55-.75-.17-1.1.4-4.31,1.23-6.91a3.08,3.08,0,0,0,.16-.7,8.4,8.4,0,0,1,2-2.45A3.64,3.64,0,0,1,170.07,237Zm14.91.12a3.45,3.45,0,0,1,1.52.39c.8.38.85.46,1.86,2.89s1.82,5.32,1.59,5.62l-.59.83a7.76,7.76,0,0,1-2.22,2.09,3.64,3.64,0,0,1-1,.27,1.78,1.78,0,0,1-1.19-.26c-1.08-.54-1-.45-1.1-2.13,0-.81-.16-2.06-.28-2.76a43.6,43.6,0,0,0-.94-4.51c-.13-.25.31-1.16.83-1.7A2.12,2.12,0,0,1,185,237.07Zm26,.47c.41,0,.39.12.61,2a9.63,9.63,0,0,1,0,3.39c-.08.28-.22.81-.32,1.18a3.47,3.47,0,0,1-1.5,2.3,3,3,0,0,1-1,.13h-.68l.07-.32a17,17,0,0,0,.27-5c-.06-.78-.14-1.57-.17-1.74s0-.32.32-.43a2.47,2.47,0,0,0,1.25-1c.21-.41.3-.46.91-.46Zm-3.79,1.76c.1,0,.17,0,.18.07s.11.76.18,1.53c.21,2.37,0,5.19-.42,5.67-.09.11-.11.33-.07.75a1.35,1.35,0,0,1-.72,1.58,5.9,5.9,0,0,1-1.11.48c-.8.23-1.38.33-1.38.23s0-.5.1-1a24.7,24.7,0,0,0-.3-5.24l-.18-1.23.21-.15a6.14,6.14,0,0,0,1.48-1.52,3.49,3.49,0,0,1,.81-.87A2.82,2.82,0,0,1,207.18,239.3Zm-70.74.25a5.36,5.36,0,0,1,.72.32,4,4,0,0,0,.92.34,3.87,3.87,0,0,1,.62.1l.39.11-.06.5c0,.27-.19,1-.32,1.5a15.05,15.05,0,0,0-.43,2.85c0,.06-.12.14-.29.18l-.51.14a.72.72,0,0,1-.73-.51,5.28,5.28,0,0,0-.23-.73,8.69,8.69,0,0,1-.22-3.5C136.36,240.14,136.43,239.56,136.44,239.55Zm3.57,2.1a3.41,3.41,0,0,1,1.26.58,9.23,9.23,0,0,0,1.11.65l.49.23-.08,1a19.86,19.86,0,0,0,.1,4.52c.09.26.13.49.09.51l-.62.2a1.72,1.72,0,0,1-1.52-.05,2.69,2.69,0,0,1-1.27-1.42c-.39-.8-.69-1.91-.54-2a2.92,2.92,0,0,0,.18-1,16.25,16.25,0,0,1,.62-3.16S139.92,241.64,140,241.65Zm61.6.41.41.05a1.26,1.26,0,0,1,.5.14c.29.28.7,5.53.53,6.84-.07.57-.11.66-.36.77-.41.19-.56.47-.69,1.24a5.57,5.57,0,0,1-.25,1,2.22,2.22,0,0,1-1.26,1,3.32,3.32,0,0,1-1.26.16s.09-.41.2-.83a14.35,14.35,0,0,0,.1-6.19c-.11-.63-.2-1.19-.2-1.23s.16-.16.36-.25a3.79,3.79,0,0,0,1.5-1.86Zm-57.29,1.17c.2,0,.37.21,1.17,1.08a5,5,0,0,0,1.25,1l.63.35-.06,2.07a20.56,20.56,0,0,0,.23,4.46c.05.18,0,.23-.34.32h0a1.54,1.54,0,0,1-1.21,0c-.81-.4-1.22-1-1.87-2.88l-.49-1.36v-2c0-1.11,0-2.23.08-2.48.08-.42.11-.47.41-.51h.2Zm52.49,1.42c.06,0,.44.09.83.19l.72.18.24,1.07a12.3,12.3,0,0,1,.26,3.25,9.51,9.51,0,0,1-.23,3.09,2.77,2.77,0,0,1-.86,1.61,4.11,4.11,0,0,1-2.11,1.47,8.7,8.7,0,0,1-1.35.26l-.69.06,0-1.58a25.73,25.73,0,0,0-.44-5.55c-.14-.78-.25-1.43-.25-1.44l.54-.09a3.78,3.78,0,0,0,2.74-1.88A2.15,2.15,0,0,1,196.81,244.65Zm-46.46.37a.11.11,0,0,1,.08,0c.2,0,.48.24,1.14.76.43.33.88.66,1,.75s.24.15.11.93a20.3,20.3,0,0,0,.05,5,17,17,0,0,0,.93,3c.06.14,0,.18-.13.18a12.16,12.16,0,0,0-1.27.24c-1.26.3-1.44.3-2,.06-.74-.32-1.17-1.06-1.42-2.44a4.2,4.2,0,0,0-.3-1.05c-.32-.46-.49-3.73-.3-5.82l.06-.75.37-.07a4.07,4.07,0,0,0,1.43-.65A.53.53,0,0,1,150.35,245Zm40.26,1.6a3.46,3.46,0,0,1,1.33.49,12.19,12.19,0,0,1,.35,1.59,23.29,23.29,0,0,1,.49,6.43,3.94,3.94,0,0,1-.71,2.2,5,5,0,0,1-1.89,2.22,3,3,0,0,1-2.07,0,5.44,5.44,0,0,1-1.59-.89s.12-.45.26-.91a18.64,18.64,0,0,0,.67-6.73,10.17,10.17,0,0,0-.17-1.2c0-.09.16-.25.56-.45a7.15,7.15,0,0,0,2.28-2.14A4.26,4.26,0,0,1,190.61,246.62Zm-33.38.38.17.23a6.35,6.35,0,0,0,.5.59l.33.35,0,3a27.11,27.11,0,0,0,.53,6.06,3.3,3.3,0,0,1,.13.59l-.52.23a2.48,2.48,0,0,1-.77.22c-.85,0-2.51-1.54-3.14-2.9a12.29,12.29,0,0,1-1-5.93c0-.87.09-1.75.13-2s.08-.38.33-.32a10.55,10.55,0,0,0,1.25.12,3.7,3.7,0,0,0,1.52-.11Zm26.33,1.77.91.42a7.24,7.24,0,0,0,1.33.47,1.21,1.21,0,0,1,.51.16c.39.45.4,4.77,0,6.49a7.45,7.45,0,0,1-.86,2.55,9.55,9.55,0,0,0-.63.83,3.65,3.65,0,0,1-1.67,1.43,3.78,3.78,0,0,1-2.77-.52c-.42-.2-.53-.3-.48-.43a34.35,34.35,0,0,0,1.25-8.58l.06-1.53.37-.15a11.19,11.19,0,0,0,1.17-.64Zm-24.34,0a4.87,4.87,0,0,1,.65.2,7.24,7.24,0,0,0,3.41.12l.9-.19.51.29c.61.33.56-.08.4,3.74a36.7,36.7,0,0,0,.17,6.25c.06.21-.7,1.21-1.18,1.55-.91.64-2.25-.06-3.76-1.95-.37-.48-.55-.78-.51-.89a1.62,1.62,0,0,0-.09-.68,23.06,23.06,0,0,1-.53-5.56A20.91,20.91,0,0,1,159.22,248.8Zm14.63.49a8.14,8.14,0,0,1,1.21.49,12.54,12.54,0,0,0,1.72.66,8.89,8.89,0,0,0,3.12.05l.4-.11-.07,1.55a42.43,42.43,0,0,1-.83,6.89,3.53,3.53,0,0,1-.86,1.91l-1,1a4.2,4.2,0,0,1-1,.8,1.87,1.87,0,0,1-1.58-.08,8.92,8.92,0,0,1-2-1.73,1.3,1.3,0,0,0-.56-.38l-.29-.05.28-.81a42,42,0,0,0,1.32-9.61C173.71,249.44,173.75,249.29,173.85,249.29Zm-1,.69-.07,1.26c-.23,3.93-.86,7.57-1.56,9a3.17,3.17,0,0,0-.29.71c0,.08-.26.27-.56.42a1.47,1.47,0,0,1-1.5.1,6,6,0,0,1-2.58-2c-.33-.76-.43-5.82-.17-8.77l.06-.71.58.25a7.86,7.86,0,0,0,2.93.62,5.38,5.38,0,0,0,2.55-.61Z" transform="translate(-4.08 -4.78)"/></g><g id="Layer_3" data-name="Layer 3"><circle class="cls-2" cx="132.3" cy="166.02" r="14.52"/><circle class="cls-3" cx="207.17" cy="166.02" r="14.52"/></g></svg>
