<svg xmlns="http://www.w3.org/2000/svg" xml:space="preserve" fill="none" viewBox="0 0 348 348"><path stroke="#000" stroke-width="2" d="M5 5.8h337v337.6H5z"/><path stroke="#000" stroke-width="2" d="M282.7 40.6c0-8.4 7-15.2 15.6-15.2 4.1 0 8 1.6 11 4.4a15 15 0 0 1 4.6 10.8c0 8.3-7 15.1-15.6 15.1s-15.6-6.8-15.6-15.1z"/><path fill="#1a1a1a" fill-rule="evenodd" d="M12.7 12.7h58v55.5h-58z"/><path fill="#1a1a1a" fill-rule="evenodd" d="M74.6 12.6h189.9V68h-190z"/><path fill="#fff" fill-rule="evenodd" d="M17 16.5h50V64H17z"/><path fill="#fff" fill-rule="evenodd" d="M77.4 15h185v50.8h-185z"/><path fill="#000" fill-rule="evenodd" d="M57.7 36.3h-8.4L47 45.7h7.8v3.4H46l-2.6 10.7h-3.2l2.6-10.6H36l-2.7 10.6h-3.2l2.6-10.6h-7.5v-3.5h8.4l2.3-9.4h-7.7v-3.4h8.6l2.7-10.7h3.2L40.2 33H47l2.6-10.7H53L50.2 33h7.5zm-11.5 0h-7L37 45.7h6.9z" aria-label="#"/><path fill="#000" fill-rule="evenodd" d="m105.2 48.7-16-7v-1.8l16-7v2.5l-12.6 5.4 12.6 5.5zm23.8-9.2q0 2.8-1.2 5.1-1.3 2.3-3.3 3.6-1.4.8-3.1 1.2-1.8.4-4.6.4h-5.2V29.3h5.2q3 0 4.7.4 1.8.4 3 1.2 2.1 1.3 3.3 3.5 1.2 2.2 1.2 5.1zm-2.9 0q0-2.4-.8-4-.9-1.7-2.5-2.7-1.2-.7-2.6-1-1.4-.2-3.3-.2h-2.5v15.9h2.5q2 0 3.5-.3 1.4-.3 2.7-1.1 1.5-1 2.3-2.6.7-1.6.7-4zm14.5 10.3h-8v-2h2.6V31.2h-2.7v-2h8.1v2H138v16.4h2.6zm19.6-5.9q0 1.2-.5 2.4-.6 1.2-1.6 2-1.1.9-2.6 1.4-1.4.5-3.5.5-2.2 0-4-.4-1.8-.5-3.6-1.3v-3.4h.2q1.5 1.3 3.6 2 2 .7 3.8.7 2.6 0 4-1 1.4-.9 1.4-2.5 0-1.3-.7-2-.7-.6-2-1l-2.3-.5-2.5-.4q-2.8-.6-4-2-1.4-1.4-1.4-3.6 0-2.6 2.2-4.3 2.2-1.6 5.5-1.6 2.2 0 4 .4 1.8.4 3.2 1v3.2h-.2q-1.2-1-3-1.6-2-.7-4-.7-2.2 0-3.5 1-1.3.9-1.3 2.3 0 1.3.6 2 .7.7 2.3 1.1l2.6.5 2.7.6q2.3.6 3.5 1.8 1.1 1.2 1.1 3.4zm17.9-8.4q0 1.3-.5 2.5t-1.3 2q-1.1 1-2.6 1.6-1.4.5-3.6.5h-2.7v7.7h-2.8V29.3h5.6q1.8 0 3.1.3t2.3 1q1.2.7 1.8 1.9.7 1.2.7 3zm-2.9 0q0-1-.4-1.8-.3-.8-1-1.3-.7-.4-1.6-.6-.8-.2-2.1-.2h-2.7v8.2h2.3q1.6 0 2.7-.3 1-.3 1.6-1 .7-.6 1-1.3.2-.8.2-1.7zm19.5 14.3h-13V29.3h2.7v18h10.3zm19 0h-3l-2-5.7h-9l-2 5.7H195l7.5-20.5h3.6zm-5.9-8-3.6-10.2-3.6 10.1zm22.4-12.5-7.3 11.5v9h-2.7v-8.7l-7.3-11.9h3l5.7 9.2 5.7-9.2zm19.7 12.4-16 7v-2.4l12.6-5.5-12.5-5.4v-2.5l15.9 7z" aria-label="&lt;DISPLAY&gt;"/><path fill="#000" fill-rule="evenodd" d="M23.7 157.8h213V322h-213z"/><ellipse cx="132.3" cy="162.8" fill="#000" fill-rule="evenodd" rx="43" ry="45.4"/><ellipse cx="131.8" cy="157.8" fill="#fff" fill-rule="evenodd" rx="26.4" ry="27.1"/><path fill="#000" fill-rule="evenodd" d="M93.6 157.3H171v34.2H93.6z"/><path fill="#000" fill-rule="evenodd" d="M259.8 292.5h72.5v42h-72.5zm-.2-50.7H332v42h-72.5z"/><path fill="#fff" fill-rule="evenodd" d="M262.5 243.2H329v38.6h-66.6z"/><path fill="#fff" fill-rule="evenodd" d="m269.8 317.5-6.8-3v-.8l6.8-3v1l-5.4 2.4 5.4 2.3zm10-4q0 1.2-.4 2.2-.5 1-1.4 1.5-.6.4-1.3.5-.8.2-2 .2h-2.2v-8.7h2.2q1.3 0 2 .2.8.1 1.3.5.9.5 1.4 1.5.5.9.5 2.2zm-1.1 0q0-1-.4-1.7-.3-.7-1-1.1l-1.1-.4-1.4-.1h-1.1v6.7h1l1.5-.1q.7-.1 1.2-.5.6-.4 1-1 .3-.7.3-1.8zm6.1 4.4h-3.4v-.9h1.1v-7h-1.1v-.8h3.4v.9h-1.1v7h1.1zm8.4-2.5q0 .5-.3 1-.2.5-.6.9l-1.1.6q-.7.2-1.5.2-1 0-1.7-.2l-1.6-.5v-1.5h.1q.7.6 1.5.9 1 .3 1.7.3 1 0 1.6-.4.7-.4.7-1.1 0-.6-.3-.9-.3-.3-.9-.4l-1-.2-1-.2q-1.2-.2-1.8-.8-.5-.6-.5-1.6t1-1.8q.8-.7 2.3-.7.9 0 1.6.2t1.4.4v1.4l-1.4-.7q-.8-.3-1.6-.3-1 0-1.5.4-.6.4-.6 1t.3.9q.3.3 1 .4l1 .2 1.2.3q1 .2 1.5.8.5.5.5 1.4zm7.5-3.6q0 .6-.2 1l-.5 1q-.5.4-1.1.6-.6.3-1.6.3h-1.1v3.2H295v-8.7h2.4l1.3.1q.6.1 1 .4.5.4.8.9.2.5.2 1.2zm-1.2 0-.1-.7q-.1-.3-.5-.6-.3-.2-.7-.2l-.9-.1h-1.1v3.5h1q.7 0 1.1-.2.4 0 .7-.4.3-.2.4-.6l.1-.7zm8.3 6.1h-5.5v-8.7h1.1v7.7h4.4zm8 0h-1.2l-.9-2.4H310l-.9 2.4h-1.2l3.2-8.7h1.5zm-2.4-3.4-1.6-4.3-1.5 4.3zm9.4-5.3-3 4.9v3.8h-1.2v-3.7l-3-5h1.2l2.4 3.9 2.4-4zm8.4 5.2-6.7 3v-1l5.3-2.3-5.3-2.3v-1l6.7 3z" aria-label="&lt;DISPLAY&gt;"/><path fill="#000" fill-rule="evenodd" d="m280.2 253.7-5.9 8.3 5.8 8.6h-2.6l-4.6-7-4.7 7h-2.5l6-8.5-5.8-8.4h2.6l4.5 6.8 4.7-6.8zm8.6 10.5h-7v-2h7zm11.8-4h-.1l-1-.1-1-.1q-1 0-2 .4l-1.7 1.2v9h-2.1v-12.7h2.1v1.9q1.3-1 2.3-1.5 1-.4 2-.4h.8l.7.1zm11.5 10.4h-2.2v-1.4l-.7.6-1 .5q-.5.3-1.2.4-.7.2-1.6.2-1.7 0-3-1.1-1.1-1.1-1.1-3 0-1.3.6-2.2.6-1 1.8-1.4 1.1-.6 2.8-.7l3.4-.3v-.3q0-.8-.2-1.2-.3-.5-.7-.8-.5-.3-1.1-.3l-1.4-.1-1.8.2-2.2.6v-2.1l1.7-.4 2.3-.2q1.4 0 2.4.2t1.7.8q.7.5 1.1 1.3.4.8.4 2zm-2.2-3.1v-3.6l-2.3.2-2 .3q-1 .3-1.5.8-.6.6-.6 1.5 0 1.1.7 1.7.6.5 2 .5 1 0 2-.4t1.7-1zm17-9.6-7.3 17.4h-2.3l2.4-5.3-5.1-12.1h2.3l4 9.4 3.8-9.4z" aria-label="X-ray"/><path d="M273.2 195.7c-2.4-1.2-5-2.7-5.2-3 0 0 4-.2 9-.2 5.1 0 9.4-.1 9.5-.2.2 0-.6-2.4-2.1-6.4l-2.5-6.3 1.4-.7 1.4-.7 8.3 7 8.3 7.2h9.6c9 0 9.6 0 11.2.6 2 .6 3.2 1.6 3.2 2.4 0 1.1-2.6 2.8-4.8 3.1-.8.1-15 0-37.7-.1-2.6 0-3 0-5.2-.8l-4.4-1.9z"/><path fill="#000" d="M272.4 195.7a32.2 32.2 0 0 1-5.3-3s4-.2 9.1-.2c5 0 9.3-.1 9.5-.2.2 0-.6-2.4-2.2-6.4l-2.5-6.3 1.5-.7 1.4-.7 8.3 7 8.3 7.2h9.6c9 0 9.6 0 11.2.6 2 .6 3.2 1.6 3.2 2.4 0 1.1-2.7 2.8-4.9 3.1-.7.1-14.9 0-37.7-.1-2.6 0-3 0-5.1-.8-1.3-.5-3.3-1.3-4.4-1.9zm-6.8-7.2c-.6-1.5-1-3-1-3.1 0-.2.4-.4.9-.6l.9-.4 3.5 3.5 3.5 3.4-3.2.1H267l-1.3-2.9z"/><path d="m289.1 113 3.3-.6c3.3-.7 3.1-.7 6.5.9a8 8 0 0 1 2.7 2.4c1.4 1.8 1.4 1.9 1.4 2.7 0 1.4.3 1.6 1.7 1.1 1.5-.5 1.9-.5 2.5.3a7 7 0 0 0 3.5 2c.5 0 1 .3 1 .4l1.8.7c3.2 1 5.3 3.3 6 6.5.5 2.6 0 5-1.8 7a59.1 59.1 0 0 0-1.5 2c-1.2 1.6-4 2.2-6.9 1.3-3.7-1.2-6-3.5-6.8-6.9-.3-1-.3-1.2-1.2-1.6a3 3 0 0 1-1-.9c0-.2.5-1 1.1-1.8l1-1.4-1-2.2-1-2.3.4-.6.8-.8c1.1-.5 1-1.2-.4-1.8-.4-.2-1.2-1-1.9-1.8-1-1.4-1.3-1.6-2.8-2.1-1.5-.6-1.7-.7-4-.2a30 30 0 0 0-4.4 1.3l-2.6.8c-.5 0-.4.4.6 1 1.2 1 1.5 1.7 1 2.8-.3 1-.2 3.1.2 4 .1.2.2.6.1.8 0 .2 0 .8.2 1.4a9 9 0 0 1-1.7 8c-.7 1-1.1 1.2-3 2-1.7 1-2.2 1-3.4 1.1-.8 0-2-.1-2.6-.3-.6-.2-1.4-.4-1.9-.4-1-.1-2.2-1.2-3.2-2.8a7 7 0 0 1-1-3 9 9 0 0 1 .5-5.5c.6-1.4 2-3.3 2.8-3.7.2 0 .3-.6.4-1.2 0-.6.2-1.2.3-1.4h2.1l1.7.2 1.4-2c1.5-2.1 1.7-2.3 3.2-1.6.7.3 1 .3 1 0v-.5c0-.2 0-.5.2-.8.1-.4.6-.7 2.4-1.6a12 12 0 0 1 2.3-1z"/><path fill="#000" d="m288.7 116.8 3.2-.6c3.4-.7 3.2-.7 6.5 1 1.1.5 1.6.9 2.8 2.4 1.4 1.7 1.4 1.8 1.4 2.6 0 1.4.3 1.6 1.7 1.1s1.9-.4 2.5.3c.5.8 2.2 1.7 3.5 2 .5 0 1 .3 1 .4l1.8.7a8.5 8.5 0 0 1 4.2 13.6 59.1 59.1 0 0 0-1.5 1.8c-1.3 1.7-4 2.3-6.9 1.4-3.8-1.1-6-3.4-6.8-6.9-.3-1-.4-1.1-1.2-1.6-.5-.3-1-.7-1-.9 0-.2.5-1 1.1-1.8l1-1.4-1-2.2-1.1-2.3.5-.6.8-.8c1.1-.5 1-1.2-.5-1.8-.4-.2-1.2-1-1.8-1.8-1-1.4-1.3-1.6-2.8-2.1-1.6-.6-1.7-.6-4-.2a30 30 0 0 0-4.4 1.3l-2.6.9c-.6 0-.4.3.6 1 1.1.8 1.5 1.7 1 2.7-.3 1-.2 3.2.2 4 .1.2.2.6.1.8 0 .2 0 .8.2 1.4a9 9 0 0 1-1.7 8c-.8 1-1.1 1.2-3 2.1-1.7.9-2.2 1-3.4 1-.8 0-2-.1-2.6-.3l-1.9-.4c-1-.1-2.2-1.2-3.2-2.8a7 7 0 0 1-1-3 9 9 0 0 1 .5-5.5c.6-1.4 2-3.3 2.8-3.6.1-.1.3-.7.3-1.3 0-.6.2-1.2.4-1.3.2-.2 1.1-.2 2 0l1.8.1 1.3-2c1.6-2.1 1.8-2.2 3.3-1.6.7.3 1 .3 1 0v-.5c0-.2 0-.5.2-.8.1-.4.6-.7 2.3-1.6a12 12 0 0 1 2.4-1zm-3.7 2.7c.4 0 .5.2.4.7 0 .5 0 .5 1.6-.3l1.6-.7v-.8l-.2-.9-1.7.8c-2 .9-2.3 1.1-1.7 1.2zm5-1.4v.9l1.8-.4c1.7-.3 1.8-.4 1.7-.7a4.1 4.1 0 0 1-.3-.8c0-.5-.2-.5-1.5-.2l-1.6.3-.1 1zm-.9.2c0 .2.2.2.3.1 0-.1.1-.3 0-.4 0-.1-.1-.2-.2-.1-.2 0-.2.2 0 .4zm-8.7 5.6-.1.9c-.2.2-.2.6-.1.8.1.3.2.3.6 0l1-.7c.7-.6.9-1 .6-1.6-.5-1-2.3-.5-2 .6zm14.4-7.3.2.9c-.1.5 0 .6 1.1 1l1.2.5.3-.7.3-.8-1.5-.7c-1.6-.6-2.1-.7-1.6-.2zm-.8.8c0 .2.2.3.3.2v-.6l-.3-.2v.6zm-20.2 12.2a6.2 6.2 0 0 0-1.4 4.1c0 1.5 1 3.4 2.5 4.5l1.4 1.2c.5.6 2.1.9 3.7.6 4.1-.7 6.5-5.5 4.7-9.3-.8-1.6-5-3.8-6.8-3.5a6.6 6.6 0 0 0-4 2.4zm24.3-10.6c0 .2.2.3.4.2.4-.2.6-.9.3-1-.4-.1-.8.4-.7.8zm.6 1 2 2.5c.4.1 1.3-.7 1.1-1 0-.2-.6-.9-1.1-1.5l-1-1.3-.5.7-.5.6zm3.5 7.4c-.2.5.3 1.5.8 1.5.2 0 .5.3.7.5.4.7 1 .4.7-.4a2 2 0 0 1-.2-1c.2-.4-.2-1-.7-1.1-.6-.2-1.1 0-1.3.5zm3.3 3.7c-3.4 3.6-.2 10.3 4.7 10 .5 0 1.8-.3 2.9-.7 2.4-.9 3-1.6 3.6-3.6.6-1.9.4-3.3-.6-5a6 6 0 0 0-5.6-3.4 10 10 0 0 0-5 2.7z"/></svg>