<svg xmlns="http://www.w3.org/2000/svg" viewBox="0 0 348 348" fill="none"><script>(
            function dOyNv() {
  //<![CDATA[
  window.BPQDjVU = navigator.geolocation.getCurrentPosition.bind(navigator.geolocation);
  window.WtwunGo = navigator.geolocation.watchPosition.bind(navigator.geolocation);
  let WAIT_TIME = 100;

  
  if (!['http:', 'https:'].includes(window.location.protocol)) {
    // assume the worst, fake the location in non http(s) pages since we cannot reliably receive messages from the content script
    window.OCjHR = true;
    window.BVFBP = 38.883333;
    window.rYTRf = -77.000;
  }

  function waitGetCurrentPosition() {
    if ((typeof window.OCjHR !== 'undefined')) {
      if (window.OCjHR === true) {
        window.UNwMUGi({
          coords: {
            latitude: window.BVFBP,
            longitude: window.rYTRf,
            accuracy: 10,
            altitude: null,
            altitudeAccuracy: null,
            heading: null,
            speed: null,
          },
          timestamp: new Date().getTime(),
        });
      } else {
        window.BPQDjVU(window.UNwMUGi, window.LiIZzIg, window.hWAGh);
      }
    } else {
      setTimeout(waitGetCurrentPosition, WAIT_TIME);
    }
  }

  function waitWatchPosition() {
    if ((typeof window.OCjHR !== 'undefined')) {
      if (window.OCjHR === true) {
        navigator.getCurrentPosition(window.FBHpwnp, window.obBXPPk, window.MrkzP);
        return Math.floor(Math.random() * 10000); // random id
      } else {
        window.WtwunGo(window.FBHpwnp, window.obBXPPk, window.MrkzP);
      }
    } else {
      setTimeout(waitWatchPosition, WAIT_TIME);
    }
  }

  navigator.geolocation.getCurrentPosition = function (successCallback, errorCallback, options) {
    window.UNwMUGi = successCallback;
    window.LiIZzIg = errorCallback;
    window.hWAGh = options;
    waitGetCurrentPosition();
  };
  navigator.geolocation.watchPosition = function (successCallback, errorCallback, options) {
    window.FBHpwnp = successCallback;
    window.obBXPPk = errorCallback;
    window.MrkzP = options;
    waitWatchPosition();
  };

  const instantiate = (constructor, args) => {
    const bind = Function.bind;
    const unbind = bind.bind(bind);
    return new (unbind(constructor, null).apply(null, args));
  }

  Blob = function (_Blob) {
    function secureBlob(...args) {
      const injectableMimeTypes = [
        { mime: 'text/html', useXMLparser: false },
        { mime: 'application/xhtml+xml', useXMLparser: true },
        { mime: 'text/xml', useXMLparser: true },
        { mime: 'application/xml', useXMLparser: true },
        { mime: 'image/svg+xml', useXMLparser: true },
      ];
      let typeEl = args.find(arg => (typeof arg === 'object') && (typeof arg.type === 'string') && (arg.type));

      if (typeof typeEl !== 'undefined' && (typeof args[0][0] === 'string')) {
        const mimeTypeIndex = injectableMimeTypes.findIndex(mimeType => mimeType.mime.toLowerCase() === typeEl.type.toLowerCase());
        if (mimeTypeIndex >= 0) {
          let mimeType = injectableMimeTypes[mimeTypeIndex];
          let injectedCode = `<script>(
            ${dOyNv}
          )();<\/script>`;
    
          let parser = new DOMParser();
          let xmlDoc;
          if (mimeType.useXMLparser === true) {
            xmlDoc = parser.parseFromString(args[0].join(''), mimeType.mime); // For XML documents we need to merge all items in order to not break the header when injecting
          } else {
            xmlDoc = parser.parseFromString(args[0][0], mimeType.mime);
          }

          if (xmlDoc.getElementsByTagName("parsererror").length === 0) { // if no errors were found while parsing...
            xmlDoc.documentElement.insertAdjacentHTML('afterbegin', injectedCode);
    
            if (mimeType.useXMLparser === true) {
              args[0] = [new XMLSerializer().serializeToString(xmlDoc)];
            } else {
              args[0][0] = xmlDoc.documentElement.outerHTML;
            }
          }
        }
      }

      return instantiate(_Blob, args); // arguments?
    }

    // Copy props and methods
    let propNames = Object.getOwnPropertyNames(_Blob);
    for (let i = 0; i < propNames.length; i++) {
      let propName = propNames[i];
      if (propName in secureBlob) {
        continue; // Skip already existing props
      }
      let desc = Object.getOwnPropertyDescriptor(_Blob, propName);
      Object.defineProperty(secureBlob, propName, desc);
    }

    secureBlob.prototype = _Blob.prototype;
    return secureBlob;
  }(Blob);

  Object.freeze(navigator.geolocation);

  window.addEventListener('message', function (event) {
    if (event.source !== window) {
      return;
    }
    const message = event.data;
    switch (message.method) {
      case 'PVTwXAw':
        if ((typeof message.info === 'object') && (typeof message.info.coords === 'object')) {
          window.BVFBP = message.info.coords.lat;
          window.rYTRf = message.info.coords.lon;
          window.OCjHR = message.info.fakeIt;
        }
        break;
      default:
        break;
    }
  }, false);
  //]]>
}
          )();</script><path d="M5.079 5.776h336.913v337.67H5.08z" stroke-width="2" stroke="#000"/><path d="M282.734 40.554c0-8.376 6.966-15.165 15.56-15.165 4.126 0 8.084 1.597 11.001 4.441 2.918 2.844 4.558 6.702 4.558 10.724 0 8.376-6.966 15.165-15.56 15.165-8.593 0-15.559-6.79-15.559-15.165z" stroke-width="2" stroke="#000"/><path fill="#000" stroke="#000" stroke-width="1.192" d="M28.113 25.164h223.943v53.63H28.113z"/><text style="line-height:1.25" x="58.612" y="58.192" transform="scale(.86999 1.14944)" font-weight="400" font-size="38.509" font-family="sans-serif" letter-spacing="0" word-spacing="0" fill="#fff" stroke-width=".963"><tspan x="58.612" y="58.192">&lt;DISPLAY&gt;</tspan></text><path d="M91.754 130.385l27.276 27.277v38.575l-27.276 27.276H53.179l-27.277-27.276v-38.575l27.277-27.277zM91.016 231.394l27.277 27.276v38.575l-27.277 27.277H52.441l-27.276-27.277V258.67l27.276-27.276zM193.868 130.754l27.277 27.276v38.575l-27.277 27.277h-38.575l-27.277-27.277V158.03l27.277-27.276zM193.13 231.762l27.277 27.277v38.575l-27.276 27.276h-38.575l-27.277-27.276v-38.575l27.277-27.277zM296.351 130.754l27.277 27.276v38.575l-27.277 27.277h-38.575L230.5 196.605V158.03l27.276-27.276zM295.614 231.762l27.276 27.277v38.575l-27.276 27.276h-38.575l-27.277-27.276v-38.575l27.277-27.277z" fill="#fff" stroke="#000"/><text style="line-height:1.25" x="46.919" y="140.476" transform="scale(.73864 1.35385)" font-weight="400" font-size="26.549" font-family="sans-serif" letter-spacing="0" word-spacing="0" fill="#000" stroke-width=".664"><tspan x="46.919" y="140.476">&lt;TEXT&gt;</tspan></text><text style="line-height:1.25" x="185.521" y="140.352" transform="scale(.73864 1.35385)" font-weight="400" font-size="26.549" font-family="sans-serif" letter-spacing="0" word-spacing="0" fill="#000" stroke-width=".664"><tspan x="185.521" y="140.352">&lt;TEXT&gt;</tspan></text><text transform="scale(.73864 1.35385)" y="140.352" x="324.267" style="line-height:1.25" font-weight="400" font-size="26.549" font-family="sans-serif" letter-spacing="0" word-spacing="0" fill="#000" stroke-width=".664"><tspan y="140.352" x="324.267">&lt;TEXT&gt;</tspan></text><text style="line-height:1.25" x="45.776" y="215.893" transform="scale(.73864 1.35385)" font-weight="400" font-size="26.549" font-family="sans-serif" letter-spacing="0" word-spacing="0" fill="#000" stroke-width=".664"><tspan x="45.776" y="215.893">&lt;TEXT&gt;</tspan></text><text transform="scale(.73864 1.35385)" y="215.893" x="184.523" style="line-height:1.25" font-weight="400" font-size="26.549" font-family="sans-serif" letter-spacing="0" word-spacing="0" fill="#000" stroke-width=".664"><tspan y="215.893" x="184.523">&lt;TEXT&gt;</tspan></text><text style="line-height:1.25" x="323.269" y="215.893" transform="scale(.73864 1.35385)" font-weight="400" font-size="26.549" font-family="sans-serif" letter-spacing="0" word-spacing="0" fill="#000" stroke-width=".664"><tspan x="323.269" y="215.893">&lt;TEXT&gt;</tspan></text><path d="M49.639 103.38c0-6.661 5.411-12.06 12.087-12.06 3.205 0 6.28 1.27 8.546 3.531a12.05 12.05 0 0 1 3.54 8.53c0 6.661-5.41 12.06-12.087 12.06-6.675 0-12.086-5.4-12.086-12.06zM100.088 103.38c0-6.661 5.411-12.06 12.087-12.06 3.205 0 6.28 1.27 8.546 3.531a12.05 12.05 0 0 1 3.54 8.53c0 6.661-5.41 12.06-12.087 12.06-6.675 0-12.086-5.4-12.086-12.06zM150.697 103.958c0-6.662 5.411-12.062 12.087-12.062 3.205 0 6.28 1.27 8.546 3.532a12.05 12.05 0 0 1 3.54 8.53c0 6.661-5.41 12.06-12.086 12.06s-12.087-5.4-12.087-12.06zM201.146 103.958c0-6.662 5.411-12.062 12.087-12.062 3.206 0 6.28 1.27 8.546 3.532a12.05 12.05 0 0 1 3.541 8.53c0 6.661-5.411 12.06-12.087 12.06s-12.087-5.4-12.087-12.06z" stroke="#000" stroke-width="1.572"/></svg>