<svg xmlns="http://www.w3.org/2000/svg" viewBox="0 0 348 348" fill="none"><path stroke="#000" stroke-width="2" d="M6 6h336.913v337.67H6.001L6 6z"/><path stroke="#000" stroke-width="2" d="M282.734 40.554c0-8.376 6.966-15.165 15.56-15.165 4.126 0 8.084 1.597 11.001 4.441 2.918 2.844 4.558 6.702 4.558 10.724 0 8.376-6.966 15.165-15.56 15.165-8.593 0-15.559-6.79-15.559-15.165z"/><path fill="none" stroke="#000" stroke-width="2" d="M30 85h290v40H30zM30 140h290v40H30zM30 193h25v25H30zM63 193h25v25H63zM97 193h25v25H97zM130.5 193h25v25h-25zM164 193h25v25h-25zM229.5 193h25v25h-25zM197 193h25v25h-25zM262.5 193h25v25h-25zM295 193h25v25h-25zM30 227h25v25H30zM63 227h25v25H63zM97 227h25v25H97zM130.5 227h25v25h-25zM164 227h25v25h-25zM229.5 227h25v25h-25zM197 227h25v25h-25zM262.5 227h25v25h-25zM295 227h25v25h-25zM30 261h25v25H30zM63 261h25v25H63zM97 261h25v25H97zM130.5 261h25v25h-25zM164 261h25v25h-25zM229.5 261h25v25h-25zM197 261h25v25h-25zM262.5 261h25v25h-25zM295 261h25v25h-25zM30 295h25v25H30zM63 295h25v25H63zM97 295h25v25H97zM130.5 295h25v25h-25zM164 295h25v25h-25zM229.5 295h25v25h-25zM197 295h25v25h-25zM262.5 295h25v25h-25zM295 295h25v25h-25zM30 30h230v40H30z"/></svg>