<svg xmlns="http://www.w3.org/2000/svg" viewBox="0 0 348 348" fill="none"><path d="M5.079 343.446h336.913V5.776H5.08Z" stroke-width="2" stroke="#000" style="opacity:1;fill:#000;fill-opacity:.75294101"/><g style="font-size:247.36px;line-height:1.25;font-family:sans-serif;-inkscape-font-specification:sans-serif;fill:none;fill-opacity:1;stroke:#fff;stroke-width:2.35772097;stroke-opacity:1;stroke-miterlimit:4;stroke-dasharray:none"><path d="M149.388 171.824q-29.954 80.2-75.367 105.322l-13.528-21.258q47.346-28.021 69.57-98.557l22.224 9.662q3.865 3.865-2.899 4.831zm59.908-13.527q28.987 64.739 73.435 91.794l-12.562 23.19q-53.143-34.785-80.198-107.254zM182.24 72.3q11.595 1.932.966 7.73v37.683h93.726v21.258H68.223v-21.258h92.76V72.301Z" style="fill:none;stroke:#fff;stroke-width:2.35772097;stroke-opacity:1;stroke-miterlimit:4;stroke-dasharray:none" transform="matrix(1.27242 0 0 1.27242 -41.115 -45.782)" aria-label="六"/></g><path d="M282.734 40.554c0-8.376 6.966-15.165 15.56-15.165 4.126 0 8.084 1.597 11.001 4.441 2.918 2.844 4.558 6.702 4.558 10.724 0 8.376-6.966 15.165-15.56 15.165-8.593 0-15.559-6.79-15.559-15.165z" stroke-width="2" stroke="#000"/><text xml:space="preserve" style="font-size:8px;line-height:1.25;font-family:sans-serif;-inkscape-font-specification:sans-serif;fill:#000;fill-opacity:1" x="232" y="296"/><path style="fill:#000;fill-opacity:.752941;stroke-width:2.5;stroke-linejoin:round" d="M16 220h28v28H16zM48 220h28v28H48zM80 220h28v28H80zM112 220h28v28h-28zM144 220h28v28h-28zM176 220h28v28h-28zM208 220h28v28h-28zM240 220h28v28h-28zM272 220h28v28h-28zM304 220h28v28h-28zM24 252h28v28H24zM56 252h28v28H56zM88 252h28v28H88zM120 252h28v28h-28zM152 252h28v28h-28zM184 252h28v28h-28zM216 252h28v28h-28zM248 252h28v28h-28zM280 252h28v28h-28zM40 284h28v28H40zM72 284h28v28H72zM104 284h28v28h-28zM136 284h28v28h-28zM168 284h28v28h-28zM200 284h28v28h-28zM232 284h28v28h-28zM20 156h300v32H20zM20 112h300v32H20zM96 40h40v40H96z"/></svg>