<svg xmlns="http://www.w3.org/2000/svg" viewBox="0 0 348 348" fill="none"><path d="M5.079 5.776h336.913v337.67H5.08z" stroke-width="2" stroke="#000"/><path d="M282.734 40.554c0-8.376 6.966-15.165 15.56-15.165 4.126 0 8.084 1.597 11.001 4.441 2.918 2.844 4.558 6.702 4.558 10.724 0 8.376-6.966 15.165-15.56 15.165-8.593 0-15.559-6.79-15.559-15.165z" stroke-width="2" stroke="#000"/><circle cx="39.182" cy="49.32" r="17.81" stroke="#000" stroke-width="3.179"/><path d="M48.011 202.715h25.836L86.612 81.136H35.397zm40.156 0a27.165 27.165 0 0 0-27.165-27.165 27.165 27.165 0 0 0-27.165 27.165 27.165 27.165 0 0 0 27.165 27.165 27.165 27.165 0 0 0 27.165-27.165zM280.011 202.715h25.836l12.766-121.579h-51.215zm40.156 0a27.165 27.165 0 0 0-27.165-27.165 27.165 27.165 0 0 0-27.165 27.165 27.165 27.165 0 0 0 27.165 27.165 27.165 27.165 0 0 0 27.165-27.165zM126.098 274.008v25.835l121.579 12.766v-51.215zm0 40.155a27.165 27.165 0 0 0 27.165-27.165 27.165 27.165 0 0 0-27.165-27.165 27.165 27.165 0 0 0-27.165 27.165 27.165 27.165 0 0 0 27.165 27.165zM126.098 46.705V72.54l121.579 12.766V34.09Zm0 40.155a27.165 27.165 0 0 0 27.165-27.165 27.165 27.165 0 0 0-27.165-27.165 27.165 27.165 0 0 0-27.165 27.165 27.165 27.165 0 0 0 27.165 27.165Z" fill="#fff" stroke="#000" stroke-width="2.28"/><path stroke="#000" stroke-width="3.179" d="M113.761 119.218H154.9v41.139h-41.139zM154.9 119.218h41.139v41.139H154.9z"/><path stroke="#000" stroke-width="3.179" d="M196.039 119.218h41.139v41.139h-41.139zM196.039 160.357h41.139v41.139h-41.139z"/><path stroke="#000" stroke-width="3.179" d="M154.9 160.357h41.139v41.139H154.9zM113.761 160.357H154.9v41.139h-41.139zM113.761 201.496H154.9v41.139h-41.139zM154.9 201.496h41.139v41.139H154.9z"/><path stroke="#000" stroke-width="3.179" d="M196.039 201.496h41.139v41.139h-41.139zM175.364 126.145h.21v11.964h-.21zm15.024 13.643a14.92 14.92 0 0 1-14.919 14.919 14.92 14.92 0 0 1-14.919-14.92 14.92 14.92 0 0 1 14.92-14.918 14.92 14.92 0 0 1 14.918 14.919zM202.965 181.031v-.21h11.964v.21zm13.643-15.024a14.92 14.92 0 0 1 14.919 14.92 14.92 14.92 0 0 1-14.919 14.918 14.92 14.92 0 0 1-14.92-14.919 14.92 14.92 0 0 1 14.92-14.919zM147.973 221.96v.21H136.01v-.21zm-13.642 15.024a14.92 14.92 0 0 1-14.92-14.919 14.92 14.92 0 0 1 14.92-14.919 14.92 14.92 0 0 1 14.919 14.92 14.92 14.92 0 0 1-14.92 14.918z"/></svg>