<svg xmlns="http://www.w3.org/2000/svg" viewBox="0 0 348 348" fill="none"><path d="M5.08 5.78h336.91v337.67H5.08z" stroke-width="2" stroke="#000"/><path d="M282.73 40.55c0-8.37 6.97-15.16 15.56-15.16 4.13 0 8.09 1.6 11 4.44a14.97 14.97 0 0 1 4.56 10.72c0 8.38-6.96 15.17-15.56 15.17-8.59 0-15.56-6.8-15.56-15.17z" stroke-width="2" stroke="#000"/><path stroke="#000" d="M19.65 25.38h230.91V82.7H19.66z"/><g style="line-height:1;-inkscape-font-specification:'Baybayin Lopez, Normal';font-variant-ligatures:normal;font-variant-caps:normal;font-variant-numeric:normal;font-variant-east-asian:normal"><path aria-label="ᜑᜒᜈ᜔ᜆᜓ" font-weight="400" font-size="42.67" font-family="Baybayin Lopez" letter-spacing=".79" word-spacing=".79" fill="#000" style="-inkscape-font-specification:'Baybayin Lopez, Normal';font-variant-ligatures:normal;font-variant-caps:normal;font-variant-numeric:normal;font-variant-east-asian:normal" d="M103.31 49.23q-.31-1.28-.37-1.38-.56-.91-2.4-1.28-.4-.08-.87-.08-4.26 0-14.6 6.58-3.7 2.37-5.84 3.38-4.84 2.28-8.91 2.28-2.56 0-4.74-1.51-2.17-1.52-2.17-3.35 0-2.4 2.55-4.72 2.48-2.23 4.88-2.23.56 0 1.03.15-2.5 1.83-2.83 2.14-1.37 1.3-1.5 2.85-.16 2.26 1.56 3.46 1.49 1.07 4.01 1.07.77 0 1.57-.12 2.9-.42 8.03-3.78l9.1-5.94q5.44-3.07 9.45-3.07 2.71 0 4.72 1.6 2 1.6 2 3.82 0 1.55-1.84 3.23-1.75 1.6-3.72 2.04-.43.1-.78.1-.85 0-.85-.41 0-.54 1.44-1.35.81-.45 1.08-1.6.23-.98 0-1.88zM84 35.77q0-1.03.9-1.76t2.2-.73q1.28 0 2.2.73.9.73.9 1.76t-.9 1.77q-.92.73-2.2.73t-2.2-.73q-.9-.74-.9-1.77zM153.97 55q.04.95-.27 4.16-.29 3.28-.47 3.36-1.04.57-2.73.57-1.37 0-1.5-.6 1.12-2.43 1.25-7.72.1-5.24-4.63-9.33-4.58-3.96-10.12-3.96-.23.27-2.09 1.76-1.36 1.08-1.42 1.7.04.68 3.16 2.6 3.14 1.9 3.16 2.49-.1.53-1.98 1.32-2.26.93-3.31 2.04.29.65 1.65 1.25 1.58.68 2.11 1.3.33.71.33 1.54 0 2.05-1.71 3.73-1.8 1.75-4.14 1.75-.97 0-1.92-.35 1.8-1.57 2.35-2.28 1-1.28.96-2.8-.05-1.3-1.8-2.36-1.82-1.1-1.9-1.51.03-.25 2.08-1.3 2.07-1.05 2.38-1.73-.12-.42-2.98-2.3-2.7-1.78-2.64-2.68 1.22-.73 2.77-2.1 1.78-1.59 1.86-2.24-5.46.15-10.16 3.38-5.62 3.84-5.62 9.83 0 3.53.39 5.66t.4 2.06q0 .83-2.7.83-1.65 0-1.65-.53-.2-.65-.23-2.31-.02-1.1.04-3.1.09-2.06.09-2.5-.05-6.48 6.66-11.02 6.28-4.26 14.2-4.26 8.16 0 14.07 4.74 5.8 4.63 6.06 10.91zm-21.83 8.24h2.05v2.46h3.12v1.7h-3.1v2.51h-2.07v-2.53h-3.1v-1.66h3.1zm68.38-18.47q.04 1.93-1.98 3.41-1.62 1.18-5.42 2.62-.66.3-1.14.3-.66 0-.66-.5 0-.59.87-1.38 1.8-1 2.27-1.37 1.33-1.01 1.33-2.08 0-1.85-1.2-3-1.3-1.24-3.58-1.24-.41 0-.9.03-4.85.42-11.6 4.23-5.52 3.1-8.43 6-1.99 1.95-2.63 4.5-.19.71-.31 2.6-.1 1.69 1.2 3.02.76.65 1.53 1.28.14.18.14.37 0 .45-.7.75-.68.3-1.4.3-1.25 0-2.78-1.49-1.61-1.54-1.82-3.2-.16-1.49 1.78-4.8 1.74-2.98 3.13-4.24-2.8.61-4.47.61-.58 0-1.22-.03-1.39-.08-2.46-1.1Q159 49.4 159 48.3t1.9-2.63q1.51-1.23 2.86-1.78 1.18-.48 1.84-.48.62 0 .62.36 0 .75-1.63 1.37-1.95.73-1.95 2.2 0 .6.3 1.46.34 1.08 1.94 1.08 1.84 0 4.98-1.41 2.17-.97 7.55-3.96 4.47-2.5 7.38-3.51 4.29-1.52 8.94-1.52 2.5 0 4.61 1.62 2.13 1.61 2.17 3.67zM176.55 66.6q0-1.03.91-1.76t2.2-.73q1.28 0 2.19.73.9.73.9 1.76 0 1.05-.9 1.78t-2.2.73q-1.28 0-2.19-.73-.9-.73-.9-1.78z"/></g><path stroke="#000" stroke-width=".68" d="M19.5 118.54h138.7v44.13H19.5z"/><path aria-label="Welcome" font-weight="400" font-size="32" font-family="INTUITIVE FREE" letter-spacing="1" word-spacing="1" fill="#000" d="M42.08 152.28q-.07.41-.36.44-.35.1-.8.04-.1 0-.16-.1l-.12-.22q-.45-1.1-.93-2.15l-.9-2.17-1.34-3.27q-.67-1.66-1.31-3.3-.1-.22-.26-.5-.06.25-.13.44t-.13.36q-.06.12-.16.25-.06.1-.12.26-.2.25-.23.41-.06.87-.35 1.67l-.58 1.6q-.35.99-.6 1.98t-.45 2.02q-.16.77-.48 1.4-.32.64-.9 1.19-.1.06-.22.1t-.29.06q-.54.13-.96.1-.42-.04-.9-.23l-.48-2.3q-.16-.84-.28-1.7-.1-.86-.16-1.73-.04-.38-.16-.77t-.07-.8q.03-.5-.64-.41.45-.51.51-1.06.1-.57-.16-1.09-.28-.6-.32-1.18 0-.6-.06-1.22l-.2-2.33-.22-2.3q-.1-.8-.5-1.41-.4-.64-1-1.19-.13-.13-.32-.16-.16-.06-.35-.1-.29-.06-.61-.03-.29 0-.6-.03-.84 0-.87-.64-.03-1.05.83-1.21h.54l1.06.06q.51 0 1.06-.03.32 0 .67-.23.51-.35.9-.06.25.2.54.22.32.04.6.04l1.22.1q.61.02 1.25.09.32.03.51.38.23.35.13.64-.06.16-.32.23t-.51.1l-.48.02q-.67.04-1.06.42-.38.35-.38 1.06 0 .44.03.9.06.44 0 .92 0 .1.06.22.07.1.1.2l.1.41q.03.2-.13.42-.1.13-.13.35v2.08q-.2-.13-.35-.2l-.32-.18.13-.74.12-.74q-.06-.03-.1-.03l-.06-.03-.38.48.13-.8q.1-.38.16-.77-.58.23-.58 1v.63q.03.3.03.61-.03.13-.1.26-.02.13-.09.25.07.1.13.23.1.1.2.25.06-.06.15-.1l.2-.12q0 .16-.04.22-.19.32-.41.64-.2.3-.39.64-.03.07.03.2t.13.19q.07.06.2.1.12 0 .28.06l-.13.51q-.03.26-.1.51.14.1.23.23l.29.25q.26-.35.32-.7.1-.39.16-.77 0-.06-.13-.16-.1-.1-.19-.22l.06-.7q.04-.36.48-.62.13.55.16 1.1.04.5.23 1.05.19.51.22 1.05.07.55.2 1.1l.47 2.2.26 1.02q.16.52.29 1.03h.13l.1-.26.12-.29.51-2.08q.29-1.05.55-2.14.32-1.25.6-2.5l.61-2.52q.13-.52.45-1.16.16-.32.45-.41.32-.13.67-.16.64 0 1.02.35.39.32.61.86.35.93.67 1.86.36.9.7 1.82l.07.13q-.03.74.23 1.35.25.6.54 1.24v.23q-.22.06-.38-.03-.13-.13-.1-.3.06-.34-.13-.54-.19-.22-.35-.44-.1-.16-.13-.36-.03-.22-.29-.25l.39.9q.19.44.35.9.16.37.26.76t.22.8q.22-.1.13-.42-.07-.19-.03-.35.06-.16.35-.26l.57 1.22q.32.58.64 1.22l.23-.52.25-.5q.07-.14 0-.2-.25-.54-.12-1.06.12-.54.19-1.08l.57-4.04q.32-2.01.61-4.03.07-.35.07-.67l.06-.67v-.1q.03-.06 0-.13l-.45-.64q-.19-.32-.45-.6-.1-.16-.28-.2l-.36-.1q-.35-.06-.67-.02-.32 0-.64-.07t-.6-.22l-.58-.29q0-1.22 1.02-1.34.45-.07.9-.07h.93q.35 0 .64.03l.67.07h.25q.16-.03.26-.1.38-.22.74-.16.35.03.7.2.45.25 1.06.1.25-.07.5-.1l.55-.13q.42-.13.8-.07.42.03.8.2.35.15.42.35.06.16-.07.5-.1.3-.32.52-.19.2-.48.32t-.6.16q-.32 0-.58-.13-.2-.06-.42-.1-.19-.03-.38-.09-.03.06-.03.1l-.03.06q.28.1.54.22-1.28.2-1.5 1.48-.07.25-.1.48 0 .22-.06.44l-.1.32q-.03.13-.16.2-.26.16-.29.41-.03.23-.1.45l-.12.64q-.03.29-.1.6-.45 0-.48-.38-.29.16-.25.42.06.26.06.48 0 .1.13.2l.25.15-.32.1-.06 1.18v1.22q-.03 1.4-.03 2.81.03 1.38.03 2.79 0 .16-.03.32 0 .13-.26.16-.06.03-.13.2l-.06.28-.06 1.53q0 .74-.07 1.5-.03.36-.13.65-.06.29-.44.45-.16.1-.16.16zm1.5-19.4q-.03.2-.03.39 0 .16-.03.32.16-.29.16-.35.03-.1-.1-.36zm-.16 3.17q0 .32-.03.61 0 .29.03.58l.06.22.13.2.13-.74q.1-.39.16-.74l-.29-.06-.19-.07zm-4.13-4.13l.2-.19.25-.19q-.29-.06-.38.03-.07.1-.07.36zm-11.26 4.52q.35-.2.32-.42 0-.25-.03-.51-.2.2-.23.45l-.06.48zm.06-3.36q-.06 0-.13-.04.07.55.07 1.1 0 .5.06 1.05 0 .06.07.16.1.06.16.16l.1-.55q.06-.28.02-.57-.03-.35-.12-.64-.1-.32-.16-.67zm-3.74-.96q0-.1.03-.13-.16-.03-.29-.03-.13 0-.29-.04v.16q.16 0 .26.04h.29zm5.18 12.38q-.19-.26-.22-.51-.03-.29.16-.42.35-.22.25-.5-.06-.3-.06-.55l-.38.57-.32.55q-.2.28-.07.57.16.45.16.9 0 .41.03.86.04.16.04.32l.06.3q.06 0 .13-.04v-.1q.03-.03.03-.1l-.06-.67q0-.32.35-.6.13-.1.06-.26-.03-.16-.16-.32zm.32 7.68q.1 0 .13.1l.06.16q.07.1.13.12.1.04.23-.06l-.07-.74q0-.35-.03-.7-.03 0-.03.03h-.03q-.23.55-.39 1.1zm1.09-1.92q.22-.35.22-.6.04-.26-.03-.52l-.38-1.92-.13-.22q-.03-.13-.1-.26.1 1.73.42 3.52zm2.18-4.48q.19-.25.25-.51.1-.29-.1-.67-.31.54-.35.73 0 .2.2.45zm.41-3.17q.32-.1.23-.29-.07-.22 0-.38l-.13.35q-.03.16-.1.32zm.58-2.08q.13-.54.35-1.05.22-.52 0-1.16l-.26 1.1-.22 1.08q.03 0 .06.03h.07zm2.56-2.69q.03.3.06.39.03.06.23.22l-.1-.32q-.03-.1-.2-.29zm1.02 3.94q-.06.35.1.58.16.22.22.48.13-.55-.32-1.06zm.64 4.13l.07-.03q.03 0 .1-.04-.14-.28-.23-.57t-.23-.55q-.03 0-.06.04h-.06l.19.57q.13.3.22.58zm1.95 2.72l.16-.1q-.35-.8-.7-1.7-.06.07-.13.07zm2.4-15.59q-.06.45-.03.58.03.13.39.38-.1-.28-.2-.48-.06-.22-.16-.48zm.36 5.6q-.04-.1-.04-.19t-.03-.19h-.06v.38zm-.07 1.25q-.1.74-.22 1.47l-.2 1.44q.1-.03.23-.03l.29-.06v-2.82zm-.38 3.14q-.26-.03-.39.06-.12.07-.06.39.03.12-.03.25l-.07.3q.2-.07.39-.1l.35-.13q.1-.04.29-.04.03-.19.03-.35v-.38zm-.87 2.27q.32.16.48.22-.25.23-.32.32-.06.07-.16.39l.3-.13.31-.13-.1.48q-.03.18-.09.39-.06.19 0 .35.13.25.06.45l-.1.41q-.09.61-.15 1.22-.03.6.22 1.25.03-.13.03-.23 0-.13.07-.19.54-1.38.22-2.75-.06-.35 0-.7.1-.36.26-.7.22.15.19.31 0 .13-.03.26-.03.16 0 .32.03.12.29.25-.07-.73-.1-1.44 0-.7-.03-1.37h-.1l-.1.12-.06.07q-.16-.07-.29-.1l-.28-.13q-.07-.03-.1-.06-.03-.06-.1-.13l-.19.64-.13.61zm.23 6.05q-.26.22-.29.32-.03.1.13.48l.16-.39.13-.35q-.07-.06-.13-.06zm7.18-5.41q0-.77.06-1.54.1-.76.26-1.5.19-.9.6-1.66.42-.8 1.12-1.44.26-.26.48-.52.26-.28.52-.5.83-.71 1.79-1.13.99-.45 2.11-.48.13-.03.26-.1t.25-.09l.29.13q.13.06.29.06 2.14.23 3.68 1.86.51.57.73 1.31.23.7.61 1.31.13.23.2.48.06.23.15.48.26.55.1 1.06t-.22 1.09q-.13-.1-.2-.13l-.12-.13-.32.16q-.16.07-.32.1t-.32 0q-.16-.07-.32-.1l-.07.13.2.13q.09.03.19.1-.8.02-1.57.09t-1.54.32v.16q.32.06.48.06.83-.06 1.63-.16.84-.1 1.67-.16.1 0 .16.03h.22q-.16.2-.19.2-.45.06-.93.16-.48.1-.93.12-.73 0-1.47.07-.7.06-1.44.22-.22.07-.35.16-.13.07-.2.32-.12-.45-.6-.38l-1.73.13q-.86.03-1.73.1-.57.06-.9.12-.31.06-.66.29l.1.38.12.35q.22.42.45.8.22.39.48.77.73 1.15 2.05 1.6.35.1.7.23.38.1.77.16.29.06.57.06.32-.03.64-.03.32-.03.61-.03l.61-.1q1.82-.32 3.52-1.38.6-.32 1.22-.16 0 .87-.68 1.28-.73.42-1.47.77l-1.44.7q-.16.07-.32.07-.13 0-.29.06-.06.04-.1.13t-.09.2q-.41.1-.9.06-.47-.07-.83.35-.16-.06-.28-.16-.13-.06-.3-.1-.4-.06-.82-.03-.42 0-.77-.16-.9-.29-1.73-.6-.83-.36-1.57-1.06-.57-.58-.99-1.25-.42-.67-.74-1.38-.25-.57-.35-1.21l-.1-1.25zm12.8 4.03q-.07.03-.1.07l-.06.03q.03.03.03.06l.03.03.26-.1q.12-.02.28-.09 0-.03-.03-.03v-.06h-.22zm-4.39 2.24q-.19 0-.41.03-.2 0-.36.36.26-.07.45-.1.2-.06.35-.13 0-.03-.03-.06v-.1zm-.96.07l-.38.06q-.2 0-.48.03.45.16.54.16.13-.03.32-.25zm-.38-.3q-.64-.28-1.44-.06.35.32.7.23.39-.1.74-.16zm-2.02-.31l-.29-.23q-.12-.16-.38.07l.35.1q.16 0 .32.06zm-1.57-.39l-.06.07q0 .03-.03.06.13.07.25.16t.26.16q.06-.06.1-.13-.16-.06-.3-.16-.09-.1-.22-.16zm8.42-7.2q-.03-.03-.03-.16l-.2.07q-.06 0-.15.03v.06q.03.04.03.07.06-.03.16-.03t.19-.04zm-1.06-4.73q0 .03-.06.1l.38.28.1-.12-.22-.13-.2-.13zm-.25-.32q-.03-.07-.1-.1t-.22-.13l.1.3q.06.09.12.25.13-.29.1-.32zm-1.57-1.22q-.32-.13-.64-.22t-.7.06q.16.2.32.26.19.03.35 0l.35-.07q.16-.06.32-.03zm-5.95 2.4l-.07.2-.1.16q.04 0 .04.03h.06l.2-.32-.13-.07zm-.03.9q-.55.64-.84 1.4-.25.77-.1 1.7.33 0 .62-.03.28-.06.54-.03.96.16 1.92.03t1.89-.2q.83-.06 1.63-.15l1.6-.26q.35-.06.74-.1l.73-.12q-.06-.7-.38-1.35-.29-.67-.74-1.12-.19-.25-.48-.38-.25-.13-.41-.35-.32-.35-.68-.55-.35-.19-.73-.25-.35-.07-.77-.07-.38 0-.77.04-.22 0-.25.1-.2.34-.48.38-.3 0-.61-.04h-.23q-.1 0-.19.04-.6.16-1.12.5-.51.36-.9.8zm-.64 9.57h.28q.16-.04.26-.04l-1.92-2.4q-.03 0-.1.07l.64 1.25q.36.57.84 1.12zm-.04-1.32q.04-.25-.19-.54-.19-.29-.48-.45.16.67.67 1zm-1.53-2.72l-.23.13-.19.13q.16.16.29.32.13.16.29.32l.03-.03q.03 0 .06-.03l-.12-.39q-.07-.19-.13-.45zm20.16 2.76q.12-.2.12-.42.04-.25.04-.51v-4.1q0-.1.06-.16.29-.29.13-.45-.13-.16-.29-.25v-3.55l.06-3.46q0-.64-.03-1.25-.03-.64.03-1.28.1-.6.04-1.18-.04-.58 0-1.18 0-.16-.04-.36-.03-.19-.1-.41-.54 0-1.02.03-.48 0-.96-.03-.22 0-.35-.07-.25-.12-.32-.35-.06-.25.2-.45.25-.22.5-.41.3-.2.71-.16 1.18.1 2.18-.64.16.06.28.16l.32.16q.07-.1.2-.35l.12.1q.06.03.07.09.03.22.03.45v.48q0 .32-.03.64-.03.28.13.64.06.19.03.44l-.07.48q-.16.87-.12 1.76.03.87.03 1.76.03 1.19.03 2.37.03 1.18.03 2.37 0 1.6-.03 3.17v3.16q0 .16.03.32.03.13.1.2.32.25.25.5-.03.26-.1.55l-.12.93q-.03.48 0 .96.03.26.16.51l.26.48q.1.16.41.23l.87.12q.41.04.86.13.29.07.45.32.1.16-.03.26-.1.06-.2.16-.16.13-.28.29l-.2.19-1.6.06q-.76 0-1.53.07-.07 0-.13.06-.03.06-.1.13-.1-.26-.28-.26-.16-.03-.36-.03-.64 0-1.28.03-.6 0-1.24-.03-.32-.03-.64-.13-.3-.1-.58-.22t-.26-.35q.07-.26.1-.48.38-.32.83-.39.45-.1.9-.13.64-.06.9-.5.19-.33.41-.58.26-.3.42-.64zm-.16 2.81h-.55v.1h.55zm.12-1.21q.07-.13.07-.23l.06-.22q-.03-.03-.1-.03l-.19.41q.1 0 .16.07zm4.58.83q-.13.13-.16.2l.2.28q.09-.2.09-.29 0-.06-.13-.2zm-2.98-7.27q0-.28-.03-.44h-.06v.44zm.07-7.04h.06v-.5h-.06zm-.03 2.95q-.2.54-.2 1.09t.2.8zm-.36-3.75h.1q-.03-.16-.03-.25 0-.13-.03-.26h-.04zm12.19 1.38q.54-.32 1.15-.38.6-.1 1.24-.13 1.1-.03 2.09.29 1.02.28 1.98.8.16.06.29.16.12.1.28.16.36.12.55.32.2.19.06.6-.03.13.03.3.1.12.16.28.04-.13.1-.25.06-.07.13-.1l.16-.13.13.16q.06.07.06.13.03.25 0 .51v.51q.03.74-.29 1.35-.29.6-.64 1.21-.13.26-.38.2-.23-.07-.48-.04v-.35l.06-.32q.03.16.1.26t.29.06q.06-.32.06-.6l.06-.62q-.03-.03-.16-.03l-.19.48q-.06.23-.16.48-.22-.22-.25-.45 0-.22.1-.48.15-.35.25-.67l.22-.7q-.25-.16-.45-.32t-.35-.32q-.35-.35-.77-.55-.41-.22-.96-.22-.67-.03-1.34-.1t-1.34-.06q-.39 0-.77.13-.39.1-.58.54 0 .1-.16.1-.35-.16-.5.06-.14.2-.3.35-.16.16-.28.32-.13.13-.26.3l-.45.66q-.2.3-.35.64-.1.16-.16.3-.06.09-.22.18-.3.2-.36.52l-.06.67-.13.86q-.03.39-.2.83-.12.36-.09.77.07.39.42.74.16.16.26.35l.25.35.13.2q.06.1.16.15.2.1.26.26t.12.35q.07.26.2.48.12.23.48.2.1 0 .28.19.68.73 1.5.99t1.8.1q.26-.04.42-.1.16-.1.1-.35.12.03.25.1.13.02.22 0l.67-.26.7-.32q.36-.13.71-.23t.7-.22q.2-.07.39-.1.22-.03.45-.1.1.1.19.23l.29.29q-.26.35-.55.67-.25.29-.64.48l-1.63.83-1.63.87q-.1.03-.32.03l-.6.06q-.29.03-.62.03h-.35q-.13 0-.29-.06-.13-.03-.32-.13l-.5-.25q.12-.07.31-.13l-.1-.1q-.03 0-.06-.03 0-.03-.03 0-.74.1-1.35-.25-.57-.39-1.18-.64-.13-.07-.26-.1l-.22-.13q-.2-.25-.26-.38l-.1-.13q0-.06-.06-.1-.44-.16-.6-.5-.13-.4-.23-.78l-.13-.54-.1-.54.33.64q.2.32.35.67l.03-.03q.03 0 .07-.04l-.26-1.02-.22-1.06h-.1q-.06.13-.1.16l-.06.13-.1.16q-.12-.35-.25-.64-.1-.32-.16-.6-.16-1.13-.1-2.25t.61-2.14q.67-1.31 1.63-2.34.96-1.05 2.27-1.79zm6.36 12.22q-.41.3-.28.74.32-.29.73-.48.42-.22.51-.77-.25.1-.48.26-.22.13-.48.25zm-.28.74q-.36-.1-.64.03-.26.1-.58.3.42.09.67-.07.26-.2.55-.26zm-3.94 1.63v.1h.35v-.1zm-3.07-1.44q.16-.35.03-.5-.1-.17-.35-.27l.12.36q.1.16.2.41zm-.58-.1l-.38-.19-.32-.19q.19.3.25.35.1.04.45.04zM79.7 144l.13-.48.13-.45q.07-.26.16-.45.1-.22.16-.45.1-.19.26-.35.16-.19.19-.45-.64.55-.87 1.22-.19.67-.16 1.4zm.55.57q.16-.41.29-.8l.32-.86q-.04 0-.16-.06-.23.41-.36.83-.12.41-.1.9zm5.7-6.46q-.13-.13-.17-.13l-.25.07q-.13 0-.29.06zm12.49.67l-.54.7-.55.68q-.54.7-.73 1.73.48-1.12 1.3-1.92.87-.8 1.93-1.48-.2-.03-.35-.03h-.26l.06-.16q.48-.06.96-.19.52-.16 1-.26.48-.12.96-.16.5-.03 1.05.13l-.8.16-.86.13q.32.16.54.22.23.07.45.07h1.28l.2-.26.18-.32q1.35.23 2.34.93 1 .7 1.76 1.92-.16-.06-.26-.06l-.12-.07-.2-.1q-.16.33 0 .4.2.05.36.12.38.2.38-.29.64.77.96 1.6.32.8.45 1.7.13.92.16 1.82t-.23 1.8q-.44 1.43-1.21 2.58-.77 1.16-2.15 1.86l-.76.42q-.39.22-.8.25-1.19.1-2.37.16t-2.3-.38q-.84-.35-1.6-.8-.77-.48-1.38-1.15-.45-.48-.77-1.06-.32-.58-.42-1.25l-.12-.38q-.04-.2-.1-.39h-.1v1.83h-.1v-6.53h.07v.42l.07.38q.03 0 .06.03h.06q.07-.16.1-.29.03-.12.03-.28.1-1.92 1.38-3.46.35-.45 1-.77zm3.07 13.35q-.16 0-.41-.07-.04.03-.04.13.13 0 .23.03h.22zm-.13-.87q1.25.7 2.15 0zm1.48.8q.67.13 1.34-.13-.58-.16-.83-.12-.26 0-.51.25zm1.79-1.44l.38-.1.42-.12q0-.13-.03-.2-.45-.09-.77.42zm4.73-7.9v.6q0 .23.04.36.03.13.1.22t.22.23q-.1-.42-.2-.74t-.16-.67zm-1.02-.96q.03.16.03.29 0 .1.03.25h.04q.03-.03.1-.03l-.07-.26q0-.12-.03-.25zm-.03 7.23q-.2.22-.42.42-.22.19-.44.41-.2.2-.32.45t-.13.58l-.77.35q-.26.13-.42.25-.16.13-.25.3-.07.12-.16.34.06 0 .06.04h.07q.25-.07.38-.23t.25-.41q.07-.16.36-.16.28-.04.54-.1.03 0 .1-.1.22-.22.41-.44.2-.23.42-.45.57-.51.86-1.12.32-.64.58-1.35.06-.16.06-.32l.07-.35q-.36.23-.42.51-.1.42-.35.74-.23.29-.48.64zm-2.53-10.11q-.48-.48-1.25-.07l1.25.87 1.22.77q.03-.04.06-.04.03-.03.06-.1-.12-.15-.25-.28-.13-.13-.2-.29-.09-.32-.22-.57-.13-.26-.57-.16-.04 0-.07-.04 0-.06-.03-.1zm-7.55 3.1l-.16.35q-.1.2-.26.45.36-.16.52-.29.16-.16.1-.41zm-.51 4.26q0 .8.67 1.12.45.25.45.83l.35.35q.2.16.35.32.2.26.35.51.2.23.45.42.83.6 1.95.6 1.15 0 2.08-.57.13-.06.26-.06.16 0 .32-.07.35-.06.73-.1t.64-.22q.36-.25.61-.6.3-.36.51-.7.36-.71.42-1.45t-.03-1.47q-.03-.16-.03-.32.03-.16.1-.22.22-.23.18-.45 0-.23-.06-.42l-.2-.48q-.05-.29-.15-.54-.1-.26-.29-.45-.16-.22-.48-.35-.06-.03-.2-.23-.34-.7-.92-1.15-.54-.48-1.09-1.05l-.19.22q-.06.1-.16.2l-.1-.2q-.03-.13-.1-.13l-.5-.06q-.26-.03-.51.03l-.61.13q-.32.03-.48.45-.07.12-.3.22-.21.1-.47-.13.26-.06.26-.22v-.32l.32-.2.35-.15q-.45-.07-.8.13l-.67.32q-.58.25-.26.83-.67.28-1 .86-.28.54-.63 1.09-.2.32-.32.67-.1.32-.45.54v.16h-.1v-.12q-.03.03-.06.03-.06.03-.13.16l-.06.22zm1.08 1.95q-.12-.03-.25-.03l-.35-.07q.25.36.44.68l.45.54.03-.03q.04 0 .07-.03zm1.9 3.4q-.94-.52-1.77-1.13-.8-.64-1.44-1.57v.58q.03.2.07.32.06.13.16.22.12.1.32.23l1.05.67q.51.32 1.06.64.1.06.22.1l.26.06q.03-.03.03-.06t.03-.07zm-3.82-3.2l-.19-.71q-.06-.35-.16-.77-.16.45-.12.74.06.25.48.73zm41.17 2.94q.38.16.42.35.03.2-.23.54-.06.07-.1.16 0 .1-.06.2-.41.15-.83.19h-.83l-.8-.07q-.42-.03-.83.03-.8.13-1.6.04-.8-.13-1.64-.2-.06-.1-.16-.19t-.16-.22l-.06-.23q0-.15.06-.22l.42-.38q.2-.23.54-.3.52-.05.64-.18t.2-.64q.1-1.22.16-2.37.1-1.18.16-2.4.03-.9-.04-1.76l-.06-1.8q0-.15-.06-.47-.1-1.41-1.22-2.21-.26-.16-.48-.35l-.45-.42q-.25.13-.57.16l-.68.07q-.5.06-1.02.28-.48.2-.83.64-.51.7-.83 1.48-.3.73-.23 1.66.07 1.28.03 2.56 0 1.28.04 2.56v.6q.03.65.12 1.32.13.64-.19 1.28.29.16.58.2t.57.02q.3 0 .55.04.29 0 .57.1.07-.17.1-.3l.13-.35.22.7q.1.33.16.65.03.1-.03.22l-.06.29-.77.13q-.35.03-.7.12t-.71 0q-.32-.1-.58.2l-.35-.13q-.16-.07-.32-.07l-1.28-.06q-.6-.03-1.25 0-.44.03-.73-.16-.29-.22-.55-.54-.48-.64.36-.87.25-.06.48-.06.25 0 .5-.07.42-.06.71-.32.32-.28.35-.67.07-1 .23-1.95t0-1.98q-.13-.77-.16-1.54 0-.77-.07-1.57-.06-.51-.19-1t-.41-.92q-.26-.45-.48-.9-.2-.47-.45-.92-.26-.55-.67-.83-.42-.3-.96-.23l-.74.6-.67.59-.55.54-.5.58-.2.22q-.1.06-.26.2.07.25.13.57.1.29.16.54l-.19.48q-.06.23-.06.48l-.07 1.63q0 .8.03 1.64 0 .25.07.54.1.26.16.51.16.16.13.35v.32q0 .52-.04 1.03t.23.99q-.16.13-.29.26-.13.1-.06.35.06.16.16.29.12.12.41.06-.03-.2-.03-.38t-.03-.39q.16.29.38.55.23.22.58.32.19.06.22.16l.26.35q.13.19.13.38 0 .26-.26.29-.22.03-.38.1-.32.1-.64.1-.32-.04-.58.22-.03.03-.1 0-.03-.04-.1-.04l-.31-.06q-.16-.03-.32-.03l-1.22.06q-.6 0-1.21.03-.26 0-.52.04-.25 0-.5.03-.46.03-.78-.2-.28-.22-.32-.57 0-.45.36-.86t.76-.36q.45.07.7-.1.26-.18.52-.44.48-.45.67-1 .2-.57.26-1.2 0-.46.38-.9.13-.13.26-.3.13-.18.19-.4.03-.2.03-.4 0-.22-.1-.44l-.06.38q0 .2-.06.42-.39-.16-.48-.26-.1-.12-.1-.44l.07-.9q.03-.48.03-.93 0-.13-.1-.25l-.13-.32.2.06q.06 0 .22.06l-.1-.64q0-.32-.03-.7l.1-.16.19-.35-.26.1q-.1 0-.16.03l-.25-1.1q-.1-.54-.23-1.08-.06-.38-.25-.6-.16-.23-.61-.26l-.45-.1-.45-.13q.13-.48.55-.77.41-.32.93-.32h.48q.22-.03.48-.1.64-.15.92.04.32.16.45.83l.13.51q.35-.32.58-.41.25-.23.5-.42.3-.22.58-.38.2-.1.39-.13.22-.06.45.13.06.03.16.03.1-.03.16-.03.19-.03.38-.03.22 0 .42-.07.83-.13 1.47.13.67.22 1.28.74.06.06.13.1.06 0 .16.06.1-.16.25-.26l.35-.22.32-.26q.16-.16.26-.42l-.45.07q-.19 0-.41.03.03-.2.16-.26l.25-.12.23-.13.25-.13.26.13.29.13-.26.19-.2.13q.04.03.04.12.1 0 .2.04.12 0 .22-.04l.83-.22q.42-.12.86-.2.45-.06.87-.02.44.03.9.03h.7q.76 0 1.34.32.6.32 1.09.93.13.16.25.35l.3.35.06-.2.1-.25q.06.07.06.1l.06.06.1 2.02.1 1.98q.09 1.99.28 3.94l.1 1.34q.06.64.16 1.31l.06.48q.03.16.1.32l.22.39q.13.19.38.5-.35-.02-.48-.05-.1-.04-.38-.3-.13.07-.13.14-.03.12.03.38l1.12.06q.58 0 1.12.07l.3.06q.15.03.28.1zm-20.45-2.28l.07-.03h.03q0-.13-.07-.25-.06 0-.1.03 0 .06.07.25zm.16-.76q-.03-.16-.03-.26v-.26h-.06v.52zm1.19-.8q0 .16-.04.28 0 .1-.03.26h.07zm5.34 4.54q-.1-.03-.2-.03t-.22-.03v.16h.42zm.9-1q-.1-.09-.3-.22l-.09.1q.1.1.29.22zm.6-11.35q-.1-.1-.12-.26 0-.16-.3-.16l.17.3.13.18.12-.06zm-.16 11.33q.07-.58.1-1.16t.1-1.18q0-.03-.04-.03v-.07l-.06-.06h-.03q-.03 0-.07.03h-.03v2.44zm.2-7.68q0-.07-.04-.1v-.13q-.03 0-.06.03 0 .07.06.2zm.38 7.36q.26-.32.22-.87t-.22-1.09zm.16-9.48q.29-.73.22-1.5-.03-.77.04-1.6l-.58.23-.48.15q.26.42.45.77l.35.61zm.45-2.75l.13.07.38-.3q-.1-.31-.35-.12-.07.06-.1.16 0 .1-.06.2zm.54.67l.35-.38q.13-.13.26-.29-.2.03-.35.03-.16-.03-.26-.22zm5.73-.28q0-.36-.06-.68-.04-.35-.26-.64h-.13l-.03.1-.03.1q-.16-.07-.32-.07l-.42-.1q.35.49.61.9.29.39.54.77zm1.18 7.07q.26-1-.1-1.63.04.48.04.86l.06.77zm3.01 6.24q.16-.03.29-.03.13-.04.26-.04-.04-.06-.04-.19-.16-.06-.28 0-.1.03-.23.26zm4.14-6.21q0-.77.06-1.54.1-.76.26-1.5.2-.9.6-1.66.42-.8 1.13-1.44l.48-.52q.25-.28.5-.5.84-.71 1.8-1.13 1-.45 2.11-.48.13-.03.26-.1t.25-.09l.3.13q.12.06.28.06 2.14.23 3.68 1.86.51.57.74 1.31.22.7.6 1.31.13.23.2.48.06.23.16.48.25.55.1 1.06t-.23 1.09q-.13-.1-.2-.13l-.12-.13-.32.16q-.16.07-.32.1t-.32 0q-.16-.07-.32-.1l-.06.13.19.13q.1.03.19.1-.8.02-1.57.09t-1.53.32v.16q.32.06.48.06.83-.06 1.63-.16.83-.1 1.66-.16.1 0 .16.03h.23q-.16.2-.2.2-.45.06-.93.16-.48.1-.92.12-.74 0-1.47.07-.7.06-1.44.22-.23.07-.36.16-.13.07-.19.32-.13-.45-.6-.38l-1.74.13q-.86.03-1.72.1-.58.06-.9.12-.32.06-.67.29l.1.38.12.35.45.8q.22.39.48.77.74 1.15 2.05 1.6.35.1.7.23.39.1.77.16.29.06.58.06.32-.03.64-.03.32-.03.6-.03l.61-.1q1.83-.32 3.52-1.38.61-.32 1.22-.16 0 .87-.67 1.28-.74.42-1.48.77l-1.44.7q-.16.07-.32.07-.12 0-.28.06-.07.04-.1.13t-.1.2q-.41.1-.9.06-.47-.07-.82.35-.16-.06-.3-.16-.12-.06-.28-.1-.42-.06-.83-.03-.42 0-.77-.16-.9-.29-1.73-.6-.83-.36-1.57-1.06-.57-.58-.99-1.25-.41-.67-.73-1.38-.26-.57-.36-1.21l-.1-1.25zm12.8 4.03q-.07.03-.1.07l-.06.03q.03.03.03.06l.03.03.26-.1q.13-.02.29-.09 0-.03-.03-.03v-.06h-.23zm-4.39 2.24q-.19 0-.41.03-.2 0-.35.36.25-.07.44-.1.2-.06.36-.13 0-.03-.04-.06v-.1zm-.96.07l-.38.06q-.2 0-.48.03.45.16.54.16.13-.03.32-.25zm-.38-.3q-.64-.28-1.44-.06.35.32.7.23.39-.1.74-.16zm-2.02-.31l-.28-.23q-.13-.16-.39.07l.35.1q.16 0 .32.06zm-1.56-.39l-.07.07q0 .03-.03.06l.26.16q.13.1.25.16.07-.06.1-.13-.16-.06-.29-.16-.1-.1-.22-.16zm8.41-7.2q-.03-.03-.03-.16l-.2.07q-.06 0-.15.03v.06q.03.04.03.07.06-.03.16-.03t.2-.04zm-1.05-4.73q0 .03-.07.1l.39.28q.03-.06.1-.12l-.23-.13-.2-.13zm-.26-.32q-.03-.07-.1-.1t-.22-.13l.1.3q.06.09.12.25.13-.29.1-.32zm-1.57-1.22q-.32-.13-.64-.22t-.7.06q.16.2.32.26.2.03.35 0l.35-.07q.16-.06.32-.03zm-5.95 2.4l-.06.2-.1.16q.03 0 .03.03h.07l.19-.32-.13-.07zm-.03.9q-.55.64-.83 1.4-.26.77-.1 1.7.32 0 .6-.03.3-.06.55-.03.96.16 1.92.03t1.9-.2q.82-.06 1.62-.15l1.6-.26q.35-.06.74-.1l.73-.12q-.06-.7-.38-1.35-.29-.67-.74-1.12-.19-.25-.48-.38-.25-.13-.41-.35-.32-.35-.67-.55-.36-.19-.74-.25-.35-.07-.77-.07-.38 0-.77.04-.22 0-.25.1-.2.34-.48.38-.29 0-.6-.04h-.23q-.1 0-.2.04-.6.16-1.12.5-.5.36-.9.8zm-.64 9.57h.29q.16-.04.25-.04l-1.92-2.4q-.03 0-.1.07l.65 1.25q.35.57.83 1.12zm-.03-1.32q.03-.25-.2-.54-.19-.29-.48-.45.16.67.68 1zm-1.54-2.72l-.22.13-.2.13.3.32q.12.16.28.32l.03-.03q.03 0 .07-.03l-.13-.39q-.07-.19-.13-.45z"/><path stroke="#000" stroke-width=".68" d="M191.03 118.13h138.7v44.13h-138.7z"/><path aria-label="To" font-weight="400" font-size="32" font-family="INTUITIVE FREE" letter-spacing="1" word-spacing="1" fill="#000" d="M248.52 131.22l.22-.12.29-.2q.54.3 1.15.26.64-.03 1.25-.03.57 0 1.15-.07.58-.1 1.15-.16.16 0 .29-.03l.29-.06q.8-.26 1.53-.07.58.16 1.16.2t1.21-.1q.45-.1.96-.06t1 .03l.5.06q.26 0 .52.04.41.06.6.35.23.25.17.67 0 .1-.07.22-.13.32-.19.68l-.06.67-.07 1.66q-.03.8.03 1.63.04.26 0 .52 0 .25-.16.5-.1.17-.12.36 0 .16-.07.32-.13-.07-.25-.1l-.23-.12q-.1.03-.16.25-.06.2-.06.48t.03.64q.06.35.2.64l-.26.13q-.13.06-.2 0-.12-.07-.22-.2l-.13-.25q-.03 0-.03-.06l.1-4.13v-2.24q-.04-.6-.16-.7-.1-.1-.7-.07h-.84q-.42-.03-.83-.03h-1l-.12 1.5q-.03.7-.1 1.44-.03.3-.03.58t-.03.54v.67l.03.04h-.03v-.04q-.39-.19-.32-.5.06-.36.03-.71-.16.03-.45.03.03 1.09.03 2.14l.07 2.08h.06q.16-.38.26-.76l.29-.84q.35.3.32.64-.04.32-.04.61.04 1.25-.03 2.5-.03 1.25-.03 2.5 0 .76.06 1.56.1.77.16 1.54.04.32.04.64t.03.73q-.2-.16-.39-.22l-.32-.22q-.35.41-.28.8.06.38.28.76.3-.19.52-.41l-.16-.26-.16-.35q.41.06.64.26.22.19.38.44-.16-.03-.35-.03-.16-.03-.32-.03l-.1.58h1.22l-.23-.26-.19-.22.93.25q.48.1.96.23.45.1.58.22.12.1.35.48-.39.64-1 .77-.57.1-1.21.13-.42 0-.83-.04h-.83l-.45.07q-.2.06-.26.41-.06-.28-.22-.35-.16-.03-.35 0-.48.1-.93.03-.42-.06-.87-.22-.1 0-.19-.1v-.12l.7-.07.71-.06q-.51-.35-1.22-.2-.35.1-.64-.03l-.6-.32v-.16q.22-.03.44-.03.23-.03.45-.03.29 0 .48-.1.23-.1.32-.38l.16-.32.2-.32q-.17-.38-.04-.74.13-.38.2-.73.25-1.15.15-2.27-.06-.48-.03-.96t-.03-.96q-.1-.8-.1-1.57l.1-1.63.13-1.25q.07-.61.03-1.25 0-.54.03-1.02.07-.52.07-1.06 0-.51-.04-1 0-.5-.03-1.02l-.06-.41q-.03-.23-.03-.45t.03-.45l.06-.48-.16-.13q-.1-.07-.22-.1l-1.8-.06q-.89-.06-1.79.16-.16-.1-.32-.1t-.32-.02l-.32-.1q-.16-.1-.25-.35l-.23.83q-.06.35-.03.74.03.25 0 .5 0 .26.03.52l.1.26.16.35q.29-.39.45-.74.16-.35.41-.6.07 0 .07.03h.1l-.07.9q0 .4-.03.86 0 .12.03.19l.06.51q.04.22.04.48v.8q0 .38.06.8.1.48-.03.96-.1.48-.67.74-.1.06-.2.16l-.19.19-.22-.32-.23-.42h.42q-.06-.57-.16-1.12-.06-.57-.38-1.12v1.63q-.13-.44-.16-.83l-.07-.8q-.06-1.18.1-2.33.19-1.19.16-2.37 0-.29.03-.58.06-.32.06-.6-.03-.17-.12-.3-.1-.15-.16-.35zm1.47 7.2q-.93.48-.26 1.6.23-.38.16-.76t.1-.84zm5.66 8.42q-.03.03-.06.1 0 .06.03.1l.13.38q.1.16.16.35.06-.03.1-.03t.09-.04q.16-.5.1-1.02-.04-.51-.2-1.02l-.1.28-.06.3q-.03.15.04.34.1.2-.23.26zm5.15-9.22q0-.16.07-.35.1-.22-.2-.48 0 .26-.06.48-.03.2.2.35zm.07-1.4h-.07q0-.04-.03-.04-.03.1-.03.2t-.03.19h.16zm-.23-2.56q-.19.5.13.96.07-.45.03-.58 0-.13-.16-.38zm-4.99 1.6q.26-.26.1-.48-.13-.23-.13-.48-.32.41.03.96zm-.06-1.8q-.07.04-.16.04l.1.38.12.35q.16-.41-.06-.77zm-.83 3.81q0 .23-.07.45-.06.2-.06.42 0 .5.03 1.02l.06 1.06.16.06q.13 0 .3.06.06-.35.09-.67.03-.32.03-.6 0-.52-.03-1v-.99q.03-.48-.03-.93-.07-.48 0-.96.06-.54.03-1.09t-.03-1.08q0-.07-.07-.2-.25.3-.35.58-.06.29-.06.58v1.66q.03.8 0 1.63zm.06 6.53v.38h.1v-.38zm-.29 6.91q-.03-.16-.03-.29 0-.12-.03-.28-.16.03-.29.03-.13 0-.26.03l-.12.54q-.04.3-.1.58.45-.1.83-.16l.83-.2q-.12-.12-.12-.28v-.32q.03-.2-.04-.35-.03-.16-.22-.26.1-.16.22-.25.13-.13-.06-.36-.06-.06-.06-.12.03-.1.03-.2.06-.41.16-.8.1-.41-.23-.83-.1-.13-.03-.38l.13-.42q.06-.22.1-.45.06-.35-.04-.64-.06-.32-.38-.57 0 .57-.1 1.12-.1.51.07 1.05.06.16.03.36-.03.16-.03.32.06.48-.03.96t0 .99q.06.25.03.57-.03.32-.26.61zm-.99-19.17l-.03.1-.03.06.16.07q.1 0 .19.03v-.03q.03-.03.03-.1l-.16-.06q-.1-.03-.16-.07zm-3.97-.06q.26.06.55.1.28.03.54.12.35.16.6.07.3-.1.62-.35h-2.3zm18.85 6.88q-.25.35-.54.7l-.55.68q-.54.7-.73 1.72.48-1.12 1.31-1.92.86-.8 1.92-1.47-.2-.03-.35-.03h-.26l.07-.16q.48-.06.96-.2.5-.15.99-.25.48-.13.96-.16.51-.03 1.05.13-.38.06-.8.16l-.86.13q.32.16.54.22.23.07.45.07h1.28l.2-.26.19-.32q1.34.22 2.33.93 1 .7 1.76 1.92-.16-.07-.25-.07l-.13-.06-.2-.1q-.15.32 0 .39.2.06.36.13.38.19.38-.3.64.78.96 1.6.32.8.45 1.7.13.93.16 1.83t-.22 1.8q-.45 1.43-1.22 2.58-.77 1.15-2.14 1.86l-.77.41q-.39.23-.8.26-1.19.1-2.37.16t-2.3-.38q-.84-.36-1.6-.8-.77-.48-1.38-1.16-.45-.48-.77-1.05-.32-.58-.41-1.25l-.13-.38q-.03-.2-.1-.39h-.1v1.83h-.09v-6.53h.06v.41l.07.39q.03 0 .06.03h.07l.1-.29q.02-.13.02-.29.1-1.92 1.38-3.45.35-.45 1-.77zm3.07 13.34q-.16 0-.41-.06-.03.03-.03.13.12 0 .22.03h.22zm-.12-.86q1.24.7 2.14 0zm1.47.8q.67.13 1.34-.13-.57-.16-.83-.13-.26 0-.51.26zm1.79-1.44l.38-.1.42-.12q0-.13-.03-.2-.45-.1-.77.42zm4.74-7.9v.6q0 .23.03.36.03.12.1.22t.22.22q-.1-.41-.2-.73t-.15-.67zm-1.03-.96q.03.16.03.28 0 .1.04.26h.03q.03-.03.1-.03l-.07-.26q0-.13-.03-.25zm-.03 7.23q-.2.22-.42.41l-.44.42q-.2.2-.32.45t-.13.57l-.77.36q-.26.12-.42.25-.16.13-.25.3-.07.12-.16.34.06 0 .06.03h.07q.25-.06.38-.22t.26-.41q.06-.16.35-.16.29-.04.54-.1.03 0 .1-.1.22-.22.41-.45l.42-.44q.58-.52.86-1.12.32-.64.58-1.35.06-.16.06-.32l.07-.35q-.35.22-.42.51-.1.42-.35.74l-.48.64zm-2.53-10.11q-.48-.48-1.25-.07l1.25.87 1.22.76q.03-.03.06-.03l.07-.1-.26-.28q-.13-.13-.2-.29-.09-.32-.22-.58-.12-.25-.57-.16-.03 0-.07-.03 0-.06-.03-.1zm-7.55 3.1q-.06.16-.16.35-.1.2-.26.45.36-.16.52-.29.16-.16.1-.41zm-.51 4.26q0 .8.67 1.12.45.25.45.83l.35.35q.2.16.35.32.2.26.35.51.2.23.45.42.83.6 1.95.6 1.16 0 2.08-.57.13-.06.26-.06.16 0 .32-.07.35-.06.74-.1t.64-.22q.35-.25.6-.6.3-.36.52-.7.35-.71.41-1.45t-.03-1.47q-.03-.16-.03-.32.03-.16.1-.23.22-.22.19-.44 0-.23-.07-.42-.1-.22-.19-.48-.06-.29-.16-.54-.1-.26-.29-.45-.16-.23-.48-.35-.06-.04-.19-.23-.35-.7-.93-1.15-.54-.48-1.09-1.05l-.19.22q-.06.1-.16.2l-.1-.2q-.03-.13-.09-.13l-.51-.06q-.26-.03-.51.03l-.61.13q-.32.03-.48.45-.07.12-.29.22-.22.1-.48-.13.26-.06.26-.22v-.32l.32-.2q.19-.1.35-.15-.45-.07-.8.12l-.67.32q-.58.26-.26.84-.67.28-1 .86-.28.54-.63 1.09-.2.32-.32.67-.1.32-.45.54v.16h-.1v-.12q-.03.03-.06.03-.06.03-.13.16l-.06.22zm1.09 1.95q-.13-.03-.26-.03-.13-.04-.35-.07.25.35.45.67.22.3.44.55l.04-.03q.03 0 .06-.04zm1.88 3.4q-.92-.52-1.76-1.13-.8-.64-1.44-1.57v.58l.07.32q.06.13.16.22l.32.23 1.05.67 1.06.64q.1.06.22.1l.26.06q.03-.03.03-.07t.03-.06zm-3.8-3.2l-.2-.71q-.06-.36-.16-.77-.16.45-.12.73.06.26.48.74z"/><path stroke="#000" stroke-width=".68" d="M19.5 182.67h138.7v44.13H19.5z"/><path aria-label="The" font-weight="400" font-size="32" font-family="INTUITIVE FREE" letter-spacing="1" word-spacing="1" fill="#000" d="M58.97 195.76l.23-.12q.12-.1.28-.2.55.3 1.16.26.64-.03 1.24-.03.58 0 1.16-.07.57-.1 1.15-.16.16 0 .29-.03l.28-.06q.8-.26 1.54-.07.58.16 1.15.2t1.22-.1q.45-.1.96-.06t.99.03l.51.06q.26 0 .51.03.42.07.61.36.23.25.16.67 0 .1-.06.22-.13.32-.2.67l-.06.68-.06 1.66q-.03.8.03 1.63.03.26 0 .51 0 .26-.16.52-.1.16-.13.35 0 .16-.06.32-.13-.07-.26-.1l-.22-.13q-.1.04-.16.26-.07.2-.07.48t.04.64q.06.35.19.64l-.26.13q-.13.06-.19 0-.13-.07-.22-.2l-.13-.25q-.03 0-.03-.06l.1-4.13v-2.24q-.04-.61-.17-.7-.1-.1-.7-.07h-.83q-.42-.03-.84-.03h-.99l-.13 1.5q-.03.7-.1 1.44l-.02.58q0 .29-.04.54v.67l.04.04h-.04V202q-.38-.19-.32-.5.07-.36.04-.71-.16.03-.45.03.03 1.09.03 2.14l.06 2.08h.07q.16-.38.25-.76l.3-.84q.34.3.31.64-.03.32-.03.61.03 1.25-.03 2.5-.03 1.25-.03 2.5 0 .76.06 1.56.1.77.16 1.54.03.32.03.64t.03.73q-.19-.16-.38-.22l-.32-.22q-.35.41-.29.8.07.38.29.76.29-.19.51-.41-.06-.13-.16-.26-.06-.16-.16-.35.42.06.64.26.23.19.39.44-.16-.03-.36-.03-.16-.03-.32-.03l-.1.58h1.22q-.12-.16-.22-.26-.1-.13-.2-.22l.94.25q.48.1.96.23.44.1.57.22.13.1.35.48-.38.64-.99.77-.57.1-1.21.13-.42 0-.84-.04h-.83l-.45.07q-.19.06-.25.41-.07-.28-.23-.35-.16-.03-.35 0-.48.1-.93.03-.41-.06-.86-.22-.1 0-.2-.1v-.12l.71-.07.7-.06q-.5-.35-1.21-.2-.35.1-.64-.03l-.6-.32v-.16q.22-.03.44-.03.22-.03.45-.03.29 0 .48-.1.22-.1.32-.38.06-.16.16-.32l.19-.32q-.16-.38-.03-.74.13-.38.19-.73.26-1.15.16-2.27-.06-.48-.03-.96t-.03-.96q-.1-.8-.1-1.57.03-.8.1-1.63l.12-1.25q.06-.61.04-1.25 0-.54.03-1.02.06-.52.06-1.06 0-.51-.03-1 0-.5-.03-1.02l-.07-.41q-.03-.23-.03-.45t.03-.45l.07-.48-.16-.13q-.1-.07-.23-.1l-1.79-.06q-.9-.06-1.79.16-.16-.1-.32-.1t-.32-.02l-.32-.1q-.16-.1-.26-.35l-.22.83q-.06.35-.03.74.03.25 0 .5 0 .26.03.52.03.13.1.26t.16.35q.28-.39.44-.74.16-.35.42-.6.06 0 .06.03h.1l-.06.9q0 .4-.04.86 0 .12.04.19l.06.51q.03.22.03.48v.8q0 .38.07.8.1.48-.04.96-.1.48-.67.74-.1.06-.19.16l-.2.19q-.09-.16-.22-.32l-.22-.42h.42q-.07-.57-.16-1.12-.07-.57-.39-1.12v1.63q-.13-.44-.16-.83l-.06-.8q-.07-1.18.1-2.33.19-1.19.15-2.37 0-.29.04-.58.06-.32.06-.6-.03-.17-.13-.3-.1-.15-.16-.35zm1.47 7.2q-.92.48-.25 1.6.22-.38.16-.76t.1-.84zm5.67 8.42l-.07.1q0 .06.04.1l.12.38q.1.16.16.35l.1-.03q.03 0 .1-.04.16-.5.1-1.02-.04-.51-.2-1.02l-.1.28-.06.3q-.03.15.03.34.1.2-.22.26zm5.15-9.22q0-.16.06-.35.1-.22-.19-.48 0 .26-.06.48-.03.2.19.35zm.06-1.4h-.06q0-.04-.03-.04-.03.1-.03.2t-.04.19h.16zm-.22-2.56q-.2.5.13.96.06-.45.03-.58 0-.13-.16-.38zm-5 1.6q.26-.26.1-.48-.12-.23-.12-.48-.32.41.03.96zm-.06-1.8q-.06.04-.16.04.07.19.1.38l.13.35q.16-.41-.07-.77zm-.83 3.81q0 .23-.06.45-.07.2-.07.42 0 .5.04 1.02l.06 1.06.16.06q.13 0 .29.06l.1-.67q.03-.32.03-.6 0-.52-.04-1v-.99q.04-.48-.03-.93-.06-.48 0-.96.07-.54.03-1.09t-.03-1.08q0-.07-.06-.2-.26.3-.35.58-.07.29-.07.58v1.66q.03.8 0 1.63zm.07 6.53v.38h.1v-.38zm-.3 6.91l-.02-.29q0-.12-.04-.28-.16.03-.28.03-.13 0-.26.03l-.13.54q-.03.3-.1.58.45-.1.84-.16l.83-.2q-.13-.12-.13-.28v-.32q.03-.2-.03-.35-.03-.16-.22-.26.1-.16.22-.25.13-.13-.06-.36-.07-.06-.07-.12.03-.1.03-.2.07-.41.16-.8.1-.41-.22-.83-.1-.13-.03-.38.06-.23.13-.42.06-.22.1-.45.06-.35-.04-.64-.06-.32-.38-.57 0 .57-.1 1.12-.1.51.06 1.05.07.16.04.36-.04.16-.04.32.07.48-.03.96t0 .99q.07.25.03.57-.03.32-.25.61zM64 196.08q-.04.07-.04.1l-.03.06.16.07q.1 0 .2.03v-.03q.03-.03.03-.1l-.16-.06q-.1-.03-.16-.07zm-3.97-.06q.25.06.54.1.29.03.55.12.35.16.6.07.3-.1.61-.35h-2.3zm24.6 7.52q-.28.26-.6.45-.29.19-.51.51-.07.13-.29.13-.22-.03-.45.03.03.06.1.32-.29.35-.61.7-.29.32-.58.7-.22.3-.22.62-.03.41-.03.83.03.38 0 .8 0 .29-.03.57t-.04.55v1.31q.04.64.3 1.28.06.16.06.38.03.2.1.36l.12.73q.1.35.16.7.03.17 0 .33l-.06.28q.22.1.48.13.25 0 .5.03t.49.13q.25.07.45.26 0 .06-.04.06h-.12q.03.07.03.13t.03.1l.48.1q.13.31-.03.47-.16.13-.35.2l-1.19.22q-.58.1-1.15.22-.51-.16-1.02-.16-.48-.03-1 0l-1.02.07q-.48.03-1 0-.22-.04-.44 0-.2.03-.45.03-.13-.16-.29-.32-.12-.2-.28-.35l.12-.45q.06-.2.16-.45l.32-.06q.2-.07.36-.04.5.07.73-.22.26-.29.55-.54.06-.07.06-.16v-.58q0-.2.06-.35l.1.48q.32-.32.32-.64.03-.35.1-.7.03-.2.03-.39.03-.2.1-.38.15-.58.12-.96-.03-.42-.29-.77.07-.64.1-1.19.06-.57.1-1.15.03-.16-.07-.29-.06-.12-.13-.32.26-.22.32-.54.07-.32.04-.67-.04-.16.03-.32.06-.2.06-.35.03-.16-.03-.3-.06-.15-.35-.25.29-.77.25-1.53 0-.77-.03-1.5v-1.96q.03-1 .2-1.95 0-.13-.04-.2-.19-.38-.48-.86-.16-.03-.35 0-.16 0-.22.35-.07-.22-.26-.32l-.38-.25q-.2-.13-.36-.29-.16-.16-.16-.48 0-.03.04-.1l.1-.19q.25-.57.8-.54.15.03.28.03.16-.03.32-.03.35 0 .64-.1.29-.1.54-.35.42-.45 1.03-.22h.19l-.06-.16q0-.1-.04-.23.32.07.39.26.1.16.16.41.13.7.1 1.41 0 .7-.07 1.41-.03.42-.03.8v1.7q.03.44.03.9 0 .6-.03 1.18v1.18q0 .1.03.22l.1.36q.28-.36.54-.61.26-.26.45-.51.64-.87 1.47-1.38.86-.54 1.86-.86.7-.23 1.37-.16.7.06 1.38.32.29.1.54.28l.55.39q.1.06.12.22.07.13.13.29.29.86.39 1.73.1.86.06 1.76v.67q0 .32-.03.67l-.16-.45q-.1-.25-.16-.48-.07-.25-.03-.5t.19-.55q-.45-.07-.67-.35-.2-.3-.36-.7-.03.15-.03.25t-.03.25q-.42-.38-.74-.8-.28-.41-.54-.86-.26-.42-.54-.38h-.64q-.3.03-.52.16-.19.12-.16.57-.06-.16-.12-.22t-.13-.2q-.35.3-.67.61-.3.3-.61.58zm5-1.8q-.06.17-.16.36l-.2.32.14.48q.06.22.16.48.06.26.19.51.16.23.51.45-.06-.74-.26-1.34-.19-.61-.25-1.25zm-.48-.09q-.22-.48-.32-.54-.1-.07-.54.1.12.25.32.31.22.07.54.13zm-1.95-.7q-.48-.26-.61-.2-.13.04-.32.45l.45-.12q.22-.07.48-.13zM77.09 216.5q.64.26.9.2.28-.07.34-.46l-.6.13-.64.13zm6.33-.35q-.41-.13-.51-.07-.06.04-.2.39.23-.07.4-.07.18-.03.34-.1 0-.09-.03-.15zm-2.3-20.64q.1 0 .16-.03-.03-.07-.03-.13 0-.1-.04-.2-.03 0-.06.04h-.03zm-.8 6.72q-.16.25-.32.54l-.32.55q-.07.1-.03.25t.1.23q.18.16.15.32 0 .16-.06.35-.07.06-.07.16.04.1 0 .19.26-.1.26-.29.03-.38.1-.73.1-.36.25-.7.07-.17.07-.4l.06-.44h-.1q-.03-.03-.1-.03zm-.48-1.6q.03.03.06.03t.07.03q.35-.29.64-.64.32-.38.48-.83-.3 0-.39.13l-.45.64-.41.64zm.06 9.4q-.16.07-.25.17l.06.06q.03.03.03.1l.07.06.12-.1.13-.12-.16-.16zm-.22-.92q.06 0 .1.03h.09v-.13q.03-.1.03-.19-.06 0-.1-.03l-.06.16q0 .1-.06.16zm.06-3.07q-.03 0-.06.03h-.07q.07.19.07.32.13 0 .19-.03l-.06-.16q0-.1-.07-.16zm.03 4.92q-.12.2-.16.3.07.02.07.06l.1.03.09-.32-.06-.03q-.04 0-.04-.04zm-.03.68q-.06.32-.03.48.06.12.32.16l-.13-.3-.16-.34zm.35 3.16l-.12-.06-.13.26q-.03.1-.1.22l.07.03.1.03zm.23-1.47q.03-.06.03-.16l.06-.16h-.06q0-.03-.03-.03l-.07.2q0 .06-.03.15zm.25-3.49l.1-.41h-.1q-.03-.03-.1-.03 0 .28-.02.41.06 0 .06.03h.06zm.26-2.1l.2-.26q.09-.16-.17-.32-.32.28-.03.57zm.22-7.05q.16 0 .16-.1-.06-.12-.16-.25l-.19.1-.1.16.13.06q.1.03.16.03zm-.28-2.88l.22-.38q.13-.2.26-.35-.04-.04-.07-.04l-.06-.06-.26.38-.22.36.06.06q.03 0 .07.03zm-.77-.57q.35-.36.73-.61.42-.26.55-.87-.23.16-.39.36-.16.16-.35.32-.16.16-.38.25-.2.1-.48.1l.16.22.16.23zm1.47 17.21l-.06.29-.1.29q.22.1.51.13l-.19-.7zm.35-9.57l.13-.19q.06-.1.2-.25-.3 0-.4.1-.06.06-.02.22 0 .03.1.12zm.64-1.02l.1-.1q.03-.06.1-.12l-.07-.07-.22.2zm10.47 11.84q.44.2.41.86l-1.25.3-.41.06h-.39q-.28 0-.57.03t-.58-.23q-.13-.12-.38-.16-.26-.06-.45.23-.1.16-.35.16h-1.99q-.25 0-.5.06-.36.07-.65-.06-.29-.13-.38-.48-.1-.13.03-.39.2-.35.45-.57.25-.23.67-.32.96-.2 1.4-.74.46-.54.52-1.5.1-1.25.1-2.53 0-.35.19-.6l.35-.58q.03-.07.16-.04h.29q-.35.2-.42.3-.03.09.07.54.03.16 0 .35-.04.19.19.38.13-.25.16-.54.03-.29.38-.39.48-.1.64.07v.73q0 .36.03.7 0 .07.1.14l.22.12q-.25.64-.35 1.32-.06.64.1 1.34.1.45.29.67.19.2.64.32l1.28.45zm-4.32-.45q-.16-.25-.23-.29-.06-.03-.16.04-.06.03-.13.12-.03.07-.1.13zm1.53-3.9q.13-.32.07-.61-.04-.29-.13-.6l-.13.02q-.03 0-.1.04-.1.1-.12.16-.26.76-.32 1.56l-.1 1.6v.07q.03.03.03.06.35.35.26.7-.1.33-.39.68.45.1.52-.39.06-.7.22-1.4.2-.7.13-1.44 0-.2.06-.45zm2.18 4.38q.19.42.25.48.1.03.45-.13-.19-.1-.35-.16l-.35-.19zm-2.79-6.08q.04-.13.04-.22l.06-.23h-.03.03q0-.22.03-.28l.26.12.29.1q-.13.35-.23.42-.06.03-.45.1zm.87-2.17l.06-.04.1-.03q.1.29.22.55-.06 0-.19.06l-.1-.29q-.03-.13-.1-.25zm-.7-.3q.06.04.12.04.1 0 .16.03-.06.13-.06.16-.13-.03-.26-.13zm-.65 1.54q.04-.1.04-.28h.06q.03.1.03.28zm6.83 1.35q0-.77.06-1.54.1-.77.26-1.5.19-.9.6-1.67.42-.8 1.12-1.44.26-.25.48-.5.26-.3.52-.52.83-.7 1.79-1.12.99-.45 2.11-.48.13-.03.26-.1t.25-.1l.29.14q.13.06.29.06 2.14.22 3.68 1.86.51.57.73 1.3.23.71.61 1.32.13.22.2.48l.15.48q.26.54.1 1.06t-.22 1.08q-.13-.1-.2-.12l-.12-.13q-.16.06-.32.16l-.32.1q-.16.03-.32 0-.16-.07-.32-.1l-.07.13.2.12.19.1q-.8.03-1.57.1t-1.54.32v.16q.32.06.48.06.83-.06 1.63-.16.84-.1 1.67-.16.1 0 .16.03h.22q-.16.2-.19.2-.45.06-.93.15-.48.1-.93.13-.73 0-1.47.07-.7.06-1.44.22-.22.06-.35.16-.13.06-.2.32-.12-.45-.6-.38l-1.73.12-1.73.1q-.57.06-.9.13-.31.06-.66.29l.1.38.12.35q.22.42.45.8.22.39.48.77.73 1.15 2.05 1.6l.7.22q.38.1.77.16.29.07.57.07.32-.03.64-.03.32-.04.61-.04.29-.03.61-.1 1.82-.31 3.52-1.37.6-.32 1.22-.16 0 .87-.68 1.28-.73.42-1.47.77l-1.44.7q-.16.07-.32.07-.13 0-.29.06-.06.03-.1.13t-.09.2q-.41.09-.9.06-.47-.07-.83.35-.16-.07-.28-.16-.13-.07-.3-.1-.4-.06-.82-.03-.42 0-.77-.16-.9-.29-1.73-.6-.83-.36-1.57-1.06-.57-.58-.99-1.25-.42-.67-.74-1.38-.25-.57-.35-1.21l-.1-1.25zm12.8 4.03q-.07.03-.1.06l-.06.04q.03.03.03.06l.03.03.26-.1.28-.09q0-.03-.03-.03V214h-.22zm-4.39 2.24q-.19 0-.41.03-.2 0-.36.35l.45-.1.35-.12q0-.03-.03-.06v-.1zm-.96.06q-.16.04-.38.07-.2 0-.48.03.45.16.54.16.13-.03.32-.26zm-.38-.28q-.64-.3-1.44-.07.35.32.7.23.39-.1.74-.16zm-2.02-.32l-.29-.23q-.12-.16-.38.07l.35.1q.16 0 .32.06zm-1.57-.39l-.06.07q0 .03-.03.06.13.06.25.16t.26.16q.06-.06.1-.13-.16-.06-.3-.16-.09-.1-.22-.16zm8.42-7.2q-.03-.03-.03-.16l-.2.07q-.06 0-.15.03v.06q.03.03.03.07.06-.04.16-.04t.19-.03zm-1.06-4.73q0 .03-.06.1l.38.28.1-.13q-.13-.06-.22-.13l-.2-.12zm-.25-.32q-.03-.07-.1-.1t-.22-.13l.1.29q.06.1.12.26.13-.3.1-.32zm-1.57-1.22q-.32-.13-.64-.22t-.7.06q.16.2.32.26.19.03.35 0l.35-.07q.16-.06.32-.03zm-5.95 2.4l-.07.2-.1.15q.04 0 .04.03h.06l.2-.32-.13-.06zm-.03.9q-.55.64-.84 1.4-.25.77-.1 1.7.33 0 .62-.03.28-.07.54-.03.96.16 1.92.03t1.89-.2q.83-.06 1.63-.15l1.6-.26q.35-.06.74-.1l.73-.12q-.06-.7-.38-1.35-.29-.67-.74-1.12-.19-.25-.48-.38-.25-.13-.41-.35-.32-.36-.68-.55-.35-.19-.73-.25-.35-.07-.77-.07-.38 0-.77.03-.22 0-.25.1-.2.35-.48.38-.3 0-.61-.03h-.23q-.1 0-.19.03-.6.16-1.12.52-.51.35-.9.8zm-.64 9.56h.28q.16-.03.26-.03l-1.92-2.4q-.03 0-.1.07l.64 1.24q.36.58.84 1.12zm-.04-1.3q.04-.26-.19-.55-.19-.29-.48-.45.16.67.67 1zm-1.53-2.73l-.23.13-.19.13q.16.16.29.32.13.16.29.32l.03-.03q.03 0 .06-.04l-.12-.38q-.07-.2-.13-.45z"/><path stroke="#000" stroke-width=".68" d="M191.03 182.26h138.7v44.12h-138.7z"/><path aria-label="Baybayin" font-weight="400" font-size="28.31" font-family="INTUITIVE FREE" letter-spacing=".89" word-spacing=".89" fill="#000" d="M208.84 207.27q.05.03.1.03v4.51l-.05.03q0-.26-.03-.48v-.52h-.08q0-.03-.03-.03l-.3.52-.32.51q-.14.23-.28.37-.22.23-.47.46-.23.2-.4.46-.39.54-.92.74-.54.17-1.15.23l-.45.06q-.23 0-.45.08-.73.26-1.46.29-.73.05-1.46 0-.4-.03-.79-.09-.36-.08-.75 0-.4.09-.84.06-.43 0-.82.03-.53.03-1.06.03l-1.04.02q-.14 0-.25.06-.12.06-.26.09l-.25-.52.34-.43q.16-.2.33-.37.06-.08.17-.11.11-.03.2-.09l.42-.11.42-.17q.56-.26.79-.72.22-.45.2-1.05l-.06-1.66q-.03-.86-.03-1.69-.03-1.6-.03-3.17.03-1.57.03-3.17v-1.54q.03-.77 0-1.57-.06-.48-.26-.86-.28-.54-.92-.51-.3.03-.65.03-.33-.03-.7-.03l-.05.51v.43q-.06 0-.09.03v-.31q0-.17-.03-.32t-.02-.28q0-.15-.06-.26-.4-.71.14-1.34.3.23.62.2.3-.03.61-.09.93-.14 1.86-.2.92-.06 1.82-.06.14 0 .28.03.17 0 .25.06.23.2.45.23.23 0 .45-.03.6-.06 1.12.06.57.11 1.13.25.33.12.61.35.31.2.62.37.25.2.62.37l.5.34.65.4-.28.03h-.23q.85 1.71.56 3.23-.28 1.51-1.51 2.88l.76.43q.4.17.76.37 1.06.6 1.4 1.77.14.4.22.77l.23.78q0 .11.17.14zm-3.32-8.14q-.05 0-.08.03.06.09.06.2.02.09.08.17h.03q.03-.03.05-.03-.05-.08-.08-.17 0-.11-.06-.2zm-6.17 1.37h.03v-.28h-.03zm.4 1.12q-.12.05-.2.14l-.2.11.25.2q.12.06.17.18.06.11.06.25 0 .15.03.32l.67.05q.34 0 .67-.03.23 0 .45.1.26.05.48-.1.22.35.48.23.28-.11.53-.17.45-.08.76-.28.33-.23.59-.52.25-.31.45-.62l.44-.7q.06-.1-.05-.13-.09-.03-.23.03.06-1.03-.39-1.8t-1.32-1.2q-.33-.15-.7-.2-.34-.09-.7-.15-.53-.14-1.07-.11-.5.03-1.06 0l-.06 2.23-.06 2.17zm4.76 10.94q.26.03.31 0 .09-.03.23-.2-.17.05-.28.11-.12.03-.26.09zm2.14-2q.3-.52.3-1.12.03-.6-.02-1.2-.09-.68-.45-1.25-.34-.6-.73-1.15-.34-.45-.84-.68-.48-.23-1.04-.29-.81-.05-1.66-.08-.81-.06-1.62-.06-.28 0-.56.09-.29.08-.6.14.23.31.26.66l.05.65q.03.83 0 1.63-.02.8 0 1.63l.06 1.28.11 1.26q0 .37.31.46l.9.2q.45.08.92-.06.09-.08.14-.03.57.17 1.07 0 .5-.2 1.01-.45l.09-.03q.05 0 .1-.03.8-.06 1.3-.49.53-.45.9-1.08zm17.7 2.8l.15-.09q.08-.06.17-.09.05 0 .14.03h.28q-.14.15-.26.23l-.22.2.17.06q.11 0 .28.03l-.96.37-.87.34q.03.09.03.14 0 .09.03.18-.22-.06-.48-.09-.22 0-.45-.03-.44-.51-.73-1.11-.25-.63-.16-1.46-.57.6-1.15 1.03-.6.43-1.24.74-1.51.74-3.11.63-1.01-.09-1.86-.54-.8-.49-1.37-1.37-.11-.2-.17-.4l-.11-.46q-.23-.26-.25-.54 0-.32.05-.57.06-.52.2-1.03l.28-1.03q.17-.49.59-.89l.76-.6.78-.6q.6-.42 1.24-.6l1.32-.4q.42-.14.87-.22.44-.09.84-.23.3-.12.59-.29.3-.17.59-.37.53-.4.05-.97-.11-.14-.25-.23l-.28-.23-.2-.11-.17-.12q-.1-.08-.2-.2-.08-.11-.19-.14-.3-.06-.56-.26-.25-.22-.59-.17l-.67.06q-.31.03-.65.09l-.45.05q-.2.03-.42.03-.62.06-.9.52-.2.25-.36.62-.23.57-.93.66-.78.09-.87-.69-.05-.4-.08-.82 0-.43-.03-.86-.05-.46.4-.69l.61-.34q.34-.2.76.03.08.06.22.03.17-.06.34-.06v.29q.03.11.03.25l.25-.2.37-.28q-.03.2-.03.31 0 .12-.03.2.53-.34.59-.45.08-.12-.08-.35.7-.14 1.4-.08.73.03 1.46-.09.05.12.14.2.11.06.3 0 .32-.08.57.03.25.09.5.26.34.23.65.48.3.26.56.6.08.15.17.26.08.09.28.06.14 0 .2.11l.5.77q.28.34.22.86-.02.14.03.31.06.17.06.35l.05.6q.03.28-.05.57-.17.48-.09.97.12.48.12.97 0 .23-.06.48-.03.26-.03.52.03.71.03 1.43l.06 1.42q0 .15.05.26l.11.2q.06.2.09.43l.11.46q.14.08.34.23.14.05.17.17l.16.25q.06.03.26-.02zm-7.06-12.54l.28-.12.33-.14-.02-.06-.03-.08-.31.11q-.17.03-.34.09l.09.2zm2.69 1.85q.06-.05.08-.11-.05-.06-.14-.09-.08-.02-.14-.08l-.02.06.1.11.12.11zm.53-.71q-.11-.11-.2-.17l-.02.06-.06.05.17.17zm-.28-1.08l.11.25q.09.12.37.03l-.28-.17-.2-.12zm.11 4.34q-.28.03-.42.11-.14.09-.08.34l.22-.2q.14-.11.28-.25zm-.53.48q-.48.12-.62.23-.1.11-.14.4.26-.09.45-.2.23-.14.31-.43zm-2.44.29l-.45.23q-.2.08-.42.2.14.28.34.31.22.03.28-.06.22-.28.45-.34.22-.06.53-.06.08 0 .17-.03l.2-.11q.3-.11.2-.57-.32.09-.63.06-.3-.06-.5.31-.03.03-.09.03l-.08.03zm-4.46 3.34l-.09.54q-.02.23-.05.37l.34.2.3.15q.6-.4.79-.8.22-.43-.08-1.06l-.09-.11-.05-.12q0-.06-.03-.14 0-.09.05-.15.12-.14.2-.28.11-.17.25-.32.45-.37.9-.68.48-.34.95-.74-.1.03-.22.03-.09 0-.14.02l-.87.49q-.42.23-.81.48-.45.3-.82.72-.14.14-.2.34-.05.17-.13.34-.14.29 0 .52.14.23.16.48l-.05.15q-.06-.09-.14-.17-.06-.12-.17-.26zm2.08-.94q.25-.17.2-.37-.06-.2-.04-.43-.39.25-.64.54-.23.26-.17.71.34.15.42.15.08-.03.14-.35.03-.05.03-.14 0-.08.05-.11zm-2.53 3.31l.11.11q.06.03.17.12l-.08-.23q0-.09-.03-.23l-.09.14-.08.09zm.4-.8q-.26.17.08.54l.25-.2.25-.17-.03-.08-.02-.09q-.14 0-.28-.03t-.26.03zm4.7 2.86q-.05-.09-.19-.23.14-.12.25-.17l.26-.18q0-.05-.03-.11-.2 0-.4-.03-.2-.06-.39 0-.56.2-1.29.06-.22-.06-.45-.03-.22.03-.4.26-.05.05-.19.08-.11 0-.17-.05-.05-.03-.08-.12l-.06-.23v-.25l-.45.17-.42.11q.2.37.76.66.56.28 1.18.43.65.11 1.24.05.58-.08.84-.42zm3.68-3.83q.14-.2.09-.46l-.12-1.43-.1-1.45q-.57 0-1.05.03-.45 0-.92.22-.31.15-.65.2l-.64.12q0-.29.03-.4l-.73.2-.68.17q-.05-.14-.14-.23-.08-.11-.14-.23l-.05.06q-.03 0-.06.03l-.37.25-.33.26q.11.17.22.14.11-.02.23-.08.1-.06.22-.09.11-.05.23.06-.23.14-.42.31-.17.15-.4.3.06.1.09.2l.08.1q-.11.23-.22.4-.12.15-.17.32-.06.2-.23.28-.14.06-.22.2l-.28.55q-.11.25-.14.57-.03.26-.17.48-.14.2-.45.26-.17.06-.3.23-.15.14-.26.31-.06.09-.03.23.03.12.03.2l.3-.06.32-.05-.17.51q.05.06.11.09.17-.15.34-.26l.36-.29.31.18q.42.28.87.42.48.15 1.01.03l.4-.11q1.03-.06 1.76-.66.06-.06.11-.06.06-.02.12-.08l.5-.32q.28-.14.5-.34.31-.31.6-.63l.61-.68zm.26-6.83q.05-.06.1-.08l.12-.12q-.11-.11-.2-.17-.1.17-.17.23zm6.32 15.45h.06q.03.03.05.03l-.05.29v.34q.3.17.53.03.25-.14.5-.23 0-.06-.02-.11v-.12q.03 0 .03-.03.02-.02.05 0 .48.15.84-.02.37-.15.7-.43.23-.17.65-.75.42-.54.87-1.2.45-.62.82-1.22.39-.57.53-.8.25-.49.53-.95.28-.45.56-.94l.09-.2.1-.14-.55-1q-.26-.49-.48-.97-.4-.77-.73-1.54l-.7-1.55-1.12-2.17-1.13-2.2q-.05-.14-.2-.25l-.27-.29-.09.4-.05.29h-.06q0-.15-.03-.32l-.02-.37-.57-.11-.53-.12-.48-.08q-.22-.06-.45-.15-.47-.17-.25-.62.09-.18.09-.32 0-.17-.2-.37l.3-.03q.12-.03.26-.03.7 0 1.38-.03.7-.02 1.43 0l1.8.06q.92.03 1.82.09.39.03.5.2.14.14.28.77-.3.54-.81.6-.48.06-.95.14-.23.03-.45.03-.23-.03-.45-.03 0 .14-.03.23 0 .09.03.14.05.17.3.77l.68 1.37q.4.8.81 1.72l.84 1.71q.43.8.7 1.4.32.57.43.72.22-.26.3-.55.12-.28.15-.63l.02.12.06.14q.34-.23.42-.6.09-.4.31-.65.25-.32.36-.69.14-.37.34-.71.17-.32.31-.66.17-.34.3-.72.15-.37.34-.68.23-.34.28-.72.09-.4.31-.65.26-.29.26-.63l-.31-.54q-.11-.26-.23-.4-.39-.17-.73-.29l-.61-.28q-.14-.06-.26-.18-.1-.1-.05-.34.05-.2.2-.2l.28-.06 1.4-.1 1.4-.12q.14-.03.28-.03.17-.03.31-.09.2-.06.37-.08.2-.03.42.05.22.06.45.06.22-.03.44-.03.06-.14.06-.26l.08-.34.12.29.1.25.46.06h.48q.56.06.73.29.16.23.02.8l-.05.14q0 .09-.06.23h-.28q-.14-.03-.28 0h-.73q-.34 0-.7.03-.14.03-.28.11-.14.06-.25.14-.31.29-.54.6-.2.29-.33.69-.09.2-.2.37-.11.17-.2.37-.47.92-.92 1.86-.42.91-.87 1.83L238 209.7l-.9 1.74-.93 1.74-.05.12q0 .03-.03.08l-.42.46q-.2.23-.37.52-.25.4-.78 1.11-.5.74-1.1 1.51-.59.8-1.15 1.49-.56.68-.9 1.03-.41.42-.98.57-.56.14-1.17.2h-1.3l-.1.31-.23-.74-.2-.74q.09-.15.2-.29.11-.11.22-.26zm16.87-17.59l-.06-.06q0-.03-.03-.05-.2.05-.28.11-.05.03-.28.26l.37-.14.28-.12zm-.28-.6q-.23-.03-.34 0l-.45.23q.3.14.4.11.1-.03.39-.34zm-6.35.54q.2-.03.31-.03l.23-.02v-.15q-.14-.05-.28-.02-.12 0-.26.22zm2.16 3.72q-.05-.03-.08-.03 0-.03-.06-.06l-.28.49q-.14.26-.28.48.06.03.06.06.03 0 .08.03l.28-.49q.14-.26.28-.48zm-.39-3.09q-.08.03-.17.03-.08 0-.2.03.06.17.06.34l.09.37q.1-.48.22-.77zm-.5 2.06q-.06.11-.12.34 0 .03.06.03.06-.06.06-.14.02-.09.08-.18-.03 0-.08-.05zm-2.16 5.34q-.56.88-.76 1.34-.2.46-.06.83l.48-1.09.48-1.02-.09-.03-.05-.03zm-1.15 2.71q-.23.2-.34.37-.11.15-.06.43l.2-.08.14-.06q.03-.14.03-.29t.03-.37zm-3.46-10.9l.65.08q.34 0 .67.06v-.12q-.3-.03-.64-.03l-.68-.05zm.85.5q-.28-.14-.37-.14-.08-.02-.4.12.18 0 .35.03h.41zm-.54.43q-.2.03-.39 0-.17-.02-.3.26.38-.06.78-.08l.78-.06q-.02-.03-.02-.11zm-5.27-.28l.05-.11q-.08-.06-.17-.06-.05-.03-.1-.09-.04.03-.1.15.1.02.15.05l.17.06zm1.43-.14v-.03h-.79v.03zm4.26 7.48q.06 0 .12-.06l-.23-.45-.22-.52-.14.06q.14.26.25.51l.22.46zm1.01 2h.03q0-.03.03-.03l-.67-1.46q-.06.03-.12.09l.37.71q.17.35.36.69zm.6 3.63q.08-.18.22-.32.17-.14.03-.43-.14.06-.2.15-.06.08-.06.2v.22q.03.09 0 .18zm0-3.43q-.06 0-.1.03l.15.31h.03q.02-.03.08-.03-.11-.23-.17-.31zm-3.35 7.94q-.3.14-.56.23l-.47.2q.28-.03.53-.03.28 0 .5-.4zm17.03-23.9q-.2-.15-.31-.32-.11-.2 0-.46.11-.31.28-.54.17-.23.5-.26.4-.03.8 0l.8.06q.23 0 .4.06l.4.05q.5.03.52.52l-.02.68q0 .35-.03.72l-.11 1.68-.06 1.66q-.03.37.08.48.12.12.48.12h.6q.3-.03.6-.03.54 0 1.07.03h1.07q1.01 0 1.74.46.76.45 1.38 1.2.42.5.67 1.1.28.58.42 1.2.17.78.28 1.6.14.8 0 1.64-.06.48-.06.94 0 .45-.05.94l-.12 1.06q-.05.51-.16 1.03-.28 1.25-1.49 1.97l-.4.28-.41.26-.31-.17q0 .05-.03.08l.03.09q.08.14 0 .2l-.17.08q-.56.26-1.1.43-.39.12-.39.52 0 .31-.05.63-.03.34-.09.68l-.06-.77-.02-.83q-.28.09-.56.09-.28-.03-.57-.03-.25-.03-.5 0-.25 0-.5.14l-.09-.03-.08-.05q-.06-.06-.12-.03l-.2.11q-.02 0-.05.03h-.03l-.81.11-.79.06q-.87 0-.92-.88l-.06-2.6q-.03-1.32-.03-2.66 0-.46.06-.88.06-.46.06-.92 0-.8-.03-1.57v-4.83q0-1.6-.03-3.22 0-.4-.08-.8l-.12-.86h-.95q-.06-.06-.14-.11-.06-.09-.14-.15zm4.71 17.87q.14 0 .31.09.17.06.37-.14-.56-.15-1.07-.23-.48-.09-.98-.03 0 .06-.03.08v.09q.14.06.3.09l.32.02q.22.03.39.03h.4zm3.4-.91l.28-.26-.09-.08-.25.28zm.53-.6q.06-.12.14-.23.09-.11.14-.26-.03 0-.08-.05l-.17.25q-.08.09-.14.2l.06.06q.02 0 .05.03zm.84 1q.2-.09.34-.2.17-.14.11-.46l-.53.54.08.12zm1.18-1.83q-.05-.06-.11-.06-.09.17-.17.37-.06.18-.14.35.06.03.11.08l.17-.37q.09-.2.14-.37zm-.28-7.51q-.14-.2-.28-.34-.11-.18-.25-.32.05.49.14.57.08.09.4.09zm-.92-.06l-.23-.63q-.11-.31-.5-.43.2.26.36.55.2.25.36.51zm-1.8-1.83h.14l.14-.02v-.03q-.17 0-.28-.03zm-4.43-6.82q-.03-.03-.09-.03v.2q.03.08.03.17.03 0 .06-.03zm-.06 7.42l-.06 1.57q0 .78.03 1.58.03 1.45 0 2.88-.03 1.4.2 2.83.03.25.03.51v.52l.02.28v.29l.48.08.4.06q.64.11 1.28.14.68 0 1.32-.23l.28-.11q.17-.06.28-.14.57-.46.96-1.03.4-.57.73-1.14.64-1.09.73-2.26.08-1.17-.14-2.37l-.23-1.03q-.08-.54-.47-.97l-.28-.34q-.12-.17-.09-.43 0-.09-.11-.2-.09-.12-.17-.17l-.5-.32-.5-.31q-.26-.14-.54-.2t-.54-.14q-1.26-.35-2.55-.09-.42.09-.5.2-.06.09-.06.54zm-.59 1.49l-.06.2-.02.17q.08 0 .1.03.04-.12.04-.2l.02-.17h-.05q0-.03-.03-.03zm24.44 10.17l.14-.09q.08-.06.17-.08l.14.02h.28q-.14.15-.25.23-.12.09-.23.2l.17.06q.11 0 .28.03l-.95.37-.87.34q.03.09.03.14l.02.18q-.22-.06-.47-.09-.23 0-.45-.03-.45-.51-.73-1.11-.25-.63-.17-1.46-.56.6-1.15 1.03-.59.43-1.24.74-1.51.74-3.11.63-1.01-.09-1.85-.54-.82-.49-1.38-1.37-.1-.2-.17-.4l-.1-.46q-.23-.26-.26-.54 0-.32.06-.57.05-.52.2-1.03l.27-1.03q.17-.49.6-.89l.75-.6.79-.6q.58-.42 1.23-.6l1.32-.4q.42-.14.87-.22.45-.09.84-.23.3-.12.6-.29.3-.17.58-.37.53-.4.05-.97-.1-.14-.25-.23l-.28-.23-.2-.11-.16-.12q-.12-.08-.2-.2-.08-.11-.2-.14-.3-.06-.56-.26-.25-.22-.59-.17l-.67.06q-.3.03-.65.09l-.44.05q-.2.03-.42.03-.62.06-.9.52-.2.25-.37.62-.22.57-.92.66-.79.09-.87-.69-.06-.4-.09-.82 0-.43-.03-.86-.05-.46.4-.69l.61-.34q.34-.2.76.03.09.06.23.03.16-.06.33-.06v.29q.03.11.03.25l.25-.2.37-.28q-.03.2-.03.31 0 .12-.03.2.54-.34.6-.45.08-.12-.1-.35.71-.14 1.41-.08.73.03 1.46-.09.06.12.14.2.11.06.3 0 .32-.08.57.03.25.09.5.26.34.23.65.48t.56.6l.17.26q.08.09.28.06.14 0 .2.11l.5.77q.28.34.23.86-.03.14.02.31.06.17.06.35l.06.6q.02.28-.06.57-.17.48-.08.97.1.48.1.97 0 .23-.05.48-.03.26-.03.52.03.71.03 1.43l.06 1.42q0 .15.05.26l.12.2q.05.2.08.43.06.2.11.46.14.08.34.23.14.05.17.17.14.23.17.25.05.03.25-.02zm-7.07-12.54l.28-.12.34-.14q-.03-.03-.03-.06l-.03-.08-.3.11q-.18.03-.35.09l.09.2zm2.7 1.85q.05-.05.08-.11-.06-.06-.14-.09-.09-.02-.14-.08l-.03.06.11.11.11.11zm.53-.71l-.2-.17q0 .03-.03.06l-.06.05.17.17zm-.28-1.08l.1.25q.1.12.37.03l-.28-.17-.2-.11zm.1 4.34q-.27.03-.41.11-.14.09-.09.34l.23-.2q.14-.11.28-.25zm-.53.48q-.47.12-.61.23-.12.11-.14.4.25-.09.45-.2.22-.14.3-.43zm-2.44.29l-.45.23q-.2.08-.42.2.14.28.34.31.22.03.28-.06.22-.28.45-.34.22-.06.53-.06.09 0 .17-.03l.2-.11q.3-.11.2-.57-.32.09-.62.06-.31-.06-.5.31-.04.03-.1.03l-.08.03zm-4.46 3.34l-.08.54-.06.37.34.2.3.15q.6-.4.8-.8.22-.43-.1-1.06l-.08-.11-.05-.12q0-.06-.03-.14 0-.09.06-.14l.2-.3q.1-.16.25-.3.44-.38.9-.69.47-.34.95-.74-.11.03-.23.03-.08 0-.14.02l-.87.49q-.42.23-.81.49-.45.28-.81.7-.14.15-.2.35l-.14.35q-.14.28 0 .5.14.24.17.5l-.06.14q-.06-.09-.14-.17-.06-.12-.17-.26zm2.08-.94q.25-.17.2-.37-.06-.2-.03-.43-.4.25-.65.54-.22.26-.17.71.34.15.42.15.09-.03.14-.35.03-.05.03-.14 0-.08.06-.11zm-2.53 3.31l.12.11.16.12-.08-.23q0-.09-.03-.23l-.08.14-.09.09zm.4-.8q-.26.17.08.54l.25-.2.25-.17-.02-.08-.03-.09q-.14 0-.28-.03t-.26.03zm4.7 2.86q-.05-.09-.19-.23.14-.12.26-.17l.25-.18q0-.05-.03-.11-.2 0-.4-.03-.19-.05-.39 0-.56.2-1.29.06-.22-.06-.45-.03-.22.03-.39.26-.05.05-.2.08-.1 0-.16-.05-.06-.03-.09-.12l-.05-.23v-.25l-.45.17-.42.11q.2.37.75.66.56.28 1.18.43.65.11 1.24.05.59-.08.84-.42zm3.68-3.83q.14-.2.09-.46l-.11-1.43-.12-1.45q-.56 0-1.03.03-.45 0-.93.22-.3.15-.65.2l-.64.12q0-.29.03-.4l-.73.2-.68.17q-.05-.14-.14-.23-.08-.11-.14-.23l-.05.06q-.03 0-.06.03l-.36.25-.34.26q.11.17.22.14.12-.02.23-.08.11-.06.22-.09.12-.05.23.06-.23.14-.42.31-.17.15-.4.3.06.1.09.2l.08.1q-.1.23-.22.4-.11.15-.17.32-.06.2-.22.28-.14.06-.23.2l-.28.55q-.11.25-.14.57-.03.26-.17.48-.14.2-.45.26-.16.06-.3.23-.14.14-.26.31-.05.09-.03.23.03.12.03.2l.31-.06.3-.05-.16.51.11.09q.17-.15.34-.26l.37-.29q.08.06.3.18.42.28.87.42.48.15 1.01.03l.4-.11q1.03-.06 1.76-.66.06-.06.12-.06.05-.02.1-.08l.51-.32q.28-.14.5-.34.32-.31.6-.63l.62-.68zm.26-6.83q.05-.05.11-.08l.11-.12q-.11-.11-.2-.17-.1.17-.16.23zm6.32 15.45h.06q.03.03.06.03l-.06.29v.34q.31.17.53.03.26-.14.5-.23 0-.06-.02-.11v-.12q.03 0 .03-.03.03-.02.06 0 .47.15.84-.02.36-.15.7-.43.22-.17.64-.75.42-.54.87-1.2.45-.62.82-1.22.4-.57.53-.8.25-.49.53-.95l.57-.94.08-.2.11-.14-.56-1-.48-.97q-.39-.77-.73-1.54-.33-.77-.7-1.55l-1.12-2.17-1.12-2.2q-.06-.14-.2-.25l-.28-.29q-.06.23-.08.4l-.06.29h-.06l-.02-.32q0-.17-.03-.37l-.56-.11-.54-.12-.47-.08q-.23-.06-.45-.15-.48-.17-.25-.62.08-.18.08-.32 0-.17-.2-.37.2-.03.31-.03.11-.03.25-.03.7 0 1.38-.03.7-.02 1.43 0l1.8.06q.92.03 1.82.09.4.03.5.2.15.14.29.77-.31.54-.82.6l-.95.14q-.23.03-.45.03-.23-.03-.45-.03 0 .14-.03.23 0 .09.03.14l.3.77.68 1.37q.4.8.82 1.72l.84 1.71q.42.8.7 1.4.3.57.42.72.23-.26.3-.55.12-.28.15-.62.03.05.03.1l.05.15q.34-.23.42-.6.09-.4.31-.65.26-.32.37-.69.14-.37.33-.71.17-.32.31-.66.17-.34.31-.72.14-.37.34-.68.22-.34.28-.72.08-.4.3-.65.26-.29.26-.63l-.3-.54q-.12-.26-.23-.4-.4-.17-.73-.29l-.62-.28q-.14-.06-.25-.18-.11-.1-.06-.34.06-.2.2-.2l.28-.05 1.4-.12 1.4-.11q.15-.03.29-.03.16-.03.3-.09l.37-.08q.2-.03.42.05.22.06.45.06.22-.03.45-.03.05-.14.05-.26l.09-.34q.05.17.11.29.06.11.11.25l.45.06h.48q.56.06.73.29.17.23.03.8l-.06.14q0 .09-.06.23h-.28q-.14-.03-.28 0h-.73q-.33 0-.7.03-.14.03-.28.11-.14.06-.25.15-.31.28-.53.6-.2.28-.34.68-.09.2-.2.37-.11.17-.2.37-.47.92-.92 1.86-.42.91-.87 1.83l-1.18 2.31-.9 1.74-.92 1.75-.06.1q0 .04-.03.1l-.42.45q-.2.23-.36.52-.25.4-.79 1.11-.5.74-1.1 1.51-.58.8-1.14 1.49-.56.68-.9 1.03-.42.43-.98.57-.56.14-1.18.2h-1.3l-.1.31-.23-.74q-.08-.34-.2-.74.09-.15.2-.29l.23-.26zm16.87-17.59l-.06-.06q0-.02-.03-.05-.2.05-.28.11-.05.03-.28.26l.37-.14.28-.12zm-.28-.6q-.23-.03-.34 0l-.45.23q.31.14.4.11.1-.02.39-.34zm-6.34.54l.3-.02q.12 0 .23-.03v-.15q-.14-.05-.28-.02-.11 0-.25.22zm2.16 3.72l-.09-.03q0-.03-.05-.06l-.28.49-.28.48q.05.03.05.06l.09.03.28-.49q.14-.26.28-.48zm-.4-3.09q-.08.03-.16.03-.09 0-.2.03.06.17.06.34.02.14.08.37.11-.48.22-.77zm-.5 2.06q-.06.11-.11.34 0 .03.05.03.06-.06.06-.14.03-.09.08-.17-.02 0-.08-.06zm-2.16 5.34q-.56.88-.76 1.34-.2.46-.05.83l.47-1.09.48-1.02-.09-.03-.05-.03zm-1.15 2.71q-.23.2-.34.37-.11.15-.05.43l.2-.08.13-.06q.03-.14.03-.29t.03-.37zm-3.45-10.9l.64.08q.34 0 .68.06v-.12q-.31-.03-.65-.03l-.67-.05zm.84.5q-.28-.14-.37-.14-.08-.02-.39.12.17 0 .34.03h.42zm-.53.43q-.2.03-.4 0-.17-.02-.3.26.39-.06.78-.08l.79-.06q-.03-.03-.03-.11zm-5.28-.28l.06-.11q-.09-.06-.17-.06-.06-.03-.11-.09-.03.03-.09.15.09.02.14.05l.17.06zm1.43-.14v-.03h-.78v.03zm4.27 7.48q.05 0 .1-.06l-.21-.45-.23-.52q-.11.06-.14.06.14.26.25.51l.23.46zm1 2h.03q0-.03.03-.03l-.67-1.46q-.06.03-.11.09.2.37.36.71.17.35.37.69zm.6 3.63q.08-.18.22-.32.17-.14.03-.43-.14.06-.2.15-.05.08-.05.2v.22q.02.09 0 .18zm0-3.43q-.06 0-.09.03l.14.31h.03q.03-.03.08-.03-.1-.23-.16-.31zm-3.34 7.94q-.31.14-.56.23l-.48.2q.28-.03.53-.03.28 0 .5-.4zm24.51-6q.31.12.4.43.1.31-.12.48-.2.15-.45.26-.22.12-.44.14-.28.06-.6.03-.27-.05-.58-.05-.48.02-.93.08l-.92.06-1.18.06q-.6 0-1.2.05-.32.03-.63-.05-.3-.09-.61.02-.14.06-.28-.02-.14-.12-.12-.35-.1-.17-.2-.28.1-.12.23-.17.17-.06.31-.09.14-.06.23-.14.08-.12.05-.34.34-.1.67-.15l.65-.14q.59-.11.98-.54.4-.46.42-1.09 0-.37-.02-.71v-.75l.1-2.02.12-2.03q.03-.51.03-1.03.03-.51.03-1.03.02-.23 0-.48 0-.26.05-.49.03-.23-.08-.28-.09-.06-.25-.09-.14 0-.26.03l-.22.06q-.37.05-.7.14-.34.08-.7.14-.51.06-.76-.2t-.2-.77v-.23q0-.14-.06-.28-.02-.17.17-.26.4-.14.73-.11.45.05.87.14l.9.11q.2.03.37.03.2-.03.39-.2.4-.31.76.12l.16.14q.12.06.23.14l.11.77q.06.37.09.77 0 .23-.06.49-.03.23-.09.46l-.02.25q0 .12.05.17.26.23.23.52 0 .28.03.6l-.2-.14-.11-.12q-.03 0-.03.03v.46q.03.17.03.37 0 .14-.03.28v.26q0 .94-.03 1.91 0 .95.03 1.89.05.77.17 1.48.05.4.39.66.36.26.76.32l.67.1q.37.07.67.18zm-6.5-11.77q-.12.06-.2.15 0 .03.03.05l.1-.05.15-.06zm-.34.63q.08.57.67.52-.22-.35-.36-.66-.09.06-.17.08-.06 0-.14.06zm1.65.09l.42-.06q.17-.03.23-.09.08-.05.08-.14.03-.11.03-.31-.3.03-.42.11-.08.06-.34.49zm-2.44 12.2q.14.05.25.14.14.08.37-.12-.11-.08-.2-.17-.08-.11-.2-.17-.13-.03-.22.08-.05.09 0 .23zm1.01-.12q.14.11.28.17.14.03.31-.11-.14-.03-.3-.03-.15 0-.29-.03zm3.54-12.34q-.09-.31-.28-.31-.17-.03-.4-.03.17.34.26.4.08.03.42-.06zm-.28 1.26q.08-.09.08-.17 0-.12-.14-.29.03.17.03.29 0 .08.03.17zm-.37 9.6l.09-.35.1-.31q-.22.11-.27.25-.06.12.08.4zm.06-.92q.2-.23.2-.29.02-.08-.12-.31l-.05.31q0 .15-.03.29zm.17-7.31q.1-.32.14-.6l.1-.63q0-.03-.05-.06l-.05-.05q-.06.34-.09.68 0 .32-.05.66zm.5 3.37h-.08v1.03h.08zm.54 5.14q.16-.34-.12-.49-.2.26.11.49zm.98.89q.17-.03.33-.03l.37-.06q0-.03-.03-.06v-.05q-.17.02-.36 0-.17-.03-.34.05 0 .09.03.15zm-1.4-14.94q-.43.11-.82.03-.36-.12-.65-.37-.27-.26-.44-.6-.17-.38-.17-.8 0-.35.2-.55.19-.23.39-.4.2-.2.42-.34.14-.06.3-.06.18-.03.32 0 .16.03.33.09l.34.08q.03.23-.14.23-.14 0-.28.06l.11.14.11.12-.45.51q-.2.23-.36.46-.06.08 0 .23.05.14.05.28.12 0 .14.03.29-.46.54-.91l.5-.92q.06.23.09.46.05.2.03.43 0 .23.1.4.15.17.06.4-.08.23-.1.45l-.1.43q-.13.06-.27.06-.12 0-.26.06zm6.73 15.25q-.25-.17 0-.46.14-.23.37-.31.22-.09.45-.14 1.12-.2 1.31-1.32.03-.06.03-.11 0-.09.06-.12.42-.34.45-.8.03-.48-.06-.91-.11-.63-.03-1.23.09-.6.06-1.23-.03-.65-.03-1.25.03-.63.03-1.29v-.28q.03-.18 0-.32l-.11-.91q-.06-.46-.17-.92-.03-.17-.17-.25-.14-.09-.34-.12l-.45-.08q-.2-.09-.33-.32.17-.43.45-.71.28-.32.78-.37l-.2.28q.12.03.2.03.09 0 .2.03l-.25.09q-.12 0-.26.05 0 .09.03.12.2-.06.37-.06l.42-.06.42-.08q.4-.06.7.05.34.12.53.6l.85-.54.84-.54.84-.46q.42-.23.81-.51.14 0 .28.03.14.02.28 0 .87-.15 1.6.17.73.28 1.38.8.14.11.22.31.09.17.14.37.14.49.26 1.03.1.51.33 1 .14.4.14.77t-.03.77q0 1.34-.02 2.66 0 1.31.05 2.65 0 .43.11.89l.28.86q.14.48.45.74t.79.37q.2.06.36.14l.42.12q.03.14.03.26l.06.25-.06.06q-.03 0-.08.06-.65.45-1.52.4l-1.9.02-1.91.06h-.23q-.08-.03-.14-.17-.05-.09-.17-.11l-.2-.12q-.19-.11-.41-.11-.2-.03-.42.25v-1.08l.39-.09q.2-.02.4-.08.5-.12.78-.43.3-.34.45-.83.02-.08.08-.17.08-.11.14-.14.23-.06.25-.2.06-.17.06-.37.06-.92.08-1.77.03-.89.09-1.77v-.32q0-.17-.03-.31-.03-.66.08-1.37.12-.4.12-.83.02-.46-.2-.89-.06-.08-.06-.28.06-.75-.33-1.15-.4-.42-.99-.74-.47-.23-.92-.14-.42.06-.82.28-.47.23-.87.55-.39.28-.75.68-.23.29-.54.52-.3.23-.59.48-.25.26-.25.52l-.08 1.05q-.03.52-.09 1.06v.11q-.28.72-.28 1.46.03.74-.05 1.49-.03.31-.03.65.03.35.22.69.12.23.12.51 0 .29.05.55.09.4.25.77.09.22.23.37.17.14.45.11.28-.03.42.14.17.15.3.35h.54l-.22.45-.2.43-.34.06q-.17.03-.36.03-1.12.14-2.25.17-1.09.06-2.21-.09-.26-.03-.48-.2-.22-.17-.45-.31zm11.9-6.46q-.08.23-.08.29 0 .06.08.29zm-.6-2.48h.12q0-.09-.05-.26h-.06zm-3.61-4.86l-.36.2q-.14.06-.28.15.36 0 .42-.03.08-.06.22-.32zm-2.89 2q-.34.26-.08.86.22-.4.45-.74l.44-.72q-.02-.02-.05-.02l-.03-.03q-.36.37-.73.65zm-1.01-.65q-.25-.35-.34-.37-.08-.03-.36.1.08.24.28.27h.42zm-1.43.37q.06 0 .14-.09l.14-.17-.17-.11q-.08-.09-.14-.09-.3.03-.78.17.2.26.39.26.22 0 .42.03z"/><path stroke="#000" stroke-width=".68" d="M19.5 246.8h138.7v44.12H19.5z"/><path aria-label="Words" font-weight="400" font-size="32" font-family="INTUITIVE FREE" letter-spacing="1" word-spacing="1" fill="#000" d="M60.08 280.53q-.07.42-.36.45-.35.1-.8.03-.1 0-.16-.1l-.12-.22q-.45-1.09-.93-2.14l-.9-2.18-1.34-3.26-1.31-3.3q-.1-.22-.26-.51-.06.25-.13.45t-.13.35q-.06.13-.16.25-.06.1-.12.26-.2.26-.23.42-.06.86-.35 1.66l-.58 1.6q-.35 1-.6 1.98t-.45 2.02q-.16.77-.48 1.4-.32.65-.9 1.2-.1.06-.22.09t-.29.06q-.54.13-.96.1-.42-.03-.9-.23l-.48-2.3q-.16-.83-.28-1.7-.1-.86-.16-1.72-.04-.39-.16-.77t-.07-.8q.03-.51-.64-.42.45-.5.51-1.05.1-.58-.16-1.1-.28-.6-.32-1.18 0-.6-.06-1.21l-.2-2.34-.22-2.3q-.1-.8-.5-1.4-.4-.65-1-1.2-.13-.12-.32-.15-.16-.07-.35-.1-.29-.06-.61-.03-.29 0-.6-.03-.84 0-.87-.64-.03-1.06.83-1.22h.54l1.06.06q.51 0 1.06-.03.32 0 .67-.22.51-.35.9-.07.25.2.54.23.32.03.6.03l1.22.1q.61.03 1.25.1.32.02.51.38.23.35.13.64-.06.16-.32.22t-.51.1q-.23 0-.48.03-.67.03-1.06.41-.38.36-.38 1.06 0 .45.03.9.06.44 0 .92 0 .1.06.23.07.1.1.2l.1.4q.03.2-.13.42-.1.13-.13.35v2.08q-.2-.12-.35-.19l-.32-.19.13-.74.12-.73q-.06-.03-.1-.03l-.06-.04-.38.48.13-.8q.1-.38.16-.76-.58.22-.58.99v.64q.03.29.03.6-.03.13-.1.26-.02.13-.09.26l.13.22q.1.1.2.26.06-.07.15-.1l.2-.13q0 .16-.04.23-.19.32-.41.64-.2.29-.39.64-.03.06.03.2t.13.18q.07.07.2.1.12 0 .28.06l-.13.51q-.03.26-.1.52.14.1.23.22.13.1.29.26.26-.36.32-.7.1-.4.16-.78 0-.06-.13-.16-.1-.1-.19-.22l.06-.7q.04-.36.48-.61.13.54.16 1.09.04.5.23 1.05.19.51.22 1.06.07.54.2 1.09l.47 2.2.26 1.03q.16.51.29 1.02h.13l.1-.25.12-.3.51-2.07q.29-1.06.55-2.15.32-1.24.6-2.5l.61-2.52q.13-.51.45-1.15.16-.32.45-.42.32-.13.67-.16.64 0 1.02.35.39.32.61.87.35.93.67 1.85.36.9.7 1.83l.07.13q-.03.73.23 1.34l.54 1.25v.22q-.22.07-.38-.03-.13-.13-.1-.29.06-.35-.13-.54l-.35-.45q-.1-.16-.13-.35-.03-.23-.29-.26l.39.9q.19.45.35.9.16.38.26.76t.22.8q.22-.1.13-.41-.07-.2-.03-.36.06-.16.35-.25l.57 1.21q.32.58.64 1.22l.23-.51.25-.51q.07-.13 0-.2-.25-.54-.12-1.05.12-.55.19-1.09l.57-4.03q.32-2.02.61-4.03.07-.36.07-.68l.06-.67v-.1q.03-.06 0-.12l-.45-.64q-.19-.32-.45-.6-.1-.17-.28-.2-.2-.07-.36-.1-.35-.06-.67-.03-.32 0-.64-.06t-.6-.23l-.58-.29q0-1.21 1.02-1.34.45-.06.9-.06h.93q.35 0 .64.03l.67.06h.25q.16-.03.26-.1.38-.22.74-.15.35.03.7.19.45.25 1.06.1.25-.07.5-.1l.55-.13q.42-.13.8-.06.42.03.8.19.35.16.42.35.06.16-.07.51-.1.3-.32.51-.19.2-.48.32t-.6.16q-.32 0-.58-.12-.2-.07-.42-.1-.19-.03-.38-.1l-.03.1-.03.06q.28.1.54.23-1.28.2-1.5 1.47-.07.26-.1.48 0 .22-.06.45l-.1.32q-.03.13-.16.2-.26.15-.29.4-.03.23-.1.45l-.12.64q-.03.3-.1.61-.45 0-.48-.38-.29.16-.25.41.06.26.06.48 0 .1.13.2l.25.16-.32.1-.06 1.18v1.21q-.03 1.41-.03 2.82.03 1.37.03 2.78 0 .16-.03.32 0 .13-.26.16-.06.03-.13.2l-.06.28-.06 1.54q0 .73-.07 1.5-.03.35-.13.64-.06.3-.44.45-.16.1-.16.16zm1.5-19.4q-.03.2-.03.4 0 .15-.03.31.16-.29.16-.35.03-.1-.1-.35zm-.16 3.18q0 .32-.03.6 0 .3.03.58l.06.22.13.2.13-.74q.1-.38.16-.74l-.29-.06-.19-.06zm-4.13-4.13l.2-.2.25-.19q-.29-.06-.38.04-.07.1-.07.35zm-11.26 4.51q.35-.2.32-.42 0-.25-.03-.5-.2.18-.23.44l-.06.48zm.06-3.36q-.06 0-.13-.03.07.54.07 1.09 0 .5.06 1.05 0 .07.07.16.1.07.16.16l.1-.54q.06-.29.02-.58-.03-.35-.12-.64-.1-.32-.16-.67zm-3.74-.96q0-.1.03-.13-.16-.03-.29-.03-.13 0-.29-.03v.16q.16 0 .26.03h.29zm5.18 12.38q-.19-.25-.22-.5-.03-.3.16-.42.35-.23.25-.51-.06-.3-.06-.55l-.38.58q-.16.25-.32.54-.2.29-.07.58.16.45.16.9 0 .4.03.86.04.16.04.32l.06.29q.06 0 .13-.04v-.1q.03-.02.03-.09l-.06-.67q0-.32.35-.6.13-.1.06-.26-.03-.16-.16-.32zm.32 7.68q.1 0 .13.1l.06.16q.07.1.13.13.1.03.23-.06l-.07-.74q0-.35-.03-.7-.03 0-.03.03h-.03q-.23.54-.39 1.08zm1.09-1.92q.22-.35.22-.6.04-.26-.03-.52l-.38-1.92-.13-.22q-.03-.13-.1-.26.1 1.73.42 3.52zm2.18-4.48q.19-.25.25-.5.1-.3-.1-.68-.31.54-.35.74 0 .19.2.44zm.41-3.16q.32-.1.23-.3-.07-.22 0-.38-.07.16-.13.36-.03.16-.1.32zm.58-2.08q.13-.55.35-1.06.22-.51 0-1.15l-.26 1.09-.22 1.09q.03 0 .06.03h.07zm2.56-2.7q.03.3.06.4.03.06.23.22-.07-.26-.1-.32-.03-.1-.2-.3zm1.02 3.95q-.06.35.1.57.16.22.22.48.13-.54-.32-1.05zm.64 4.12l.07-.03.1-.03q-.14-.29-.23-.58t-.23-.54q-.03 0-.06.03h-.06l.19.58q.13.29.22.57zm1.95 2.72l.16-.1q-.35-.8-.7-1.69-.06.06-.13.06zm2.4-15.58q-.06.45-.03.57.03.13.39.39-.1-.29-.2-.48-.06-.22-.16-.48zm.36 5.6q-.04-.1-.04-.2t-.03-.18h-.06v.38zm-.07 1.25l-.22 1.47-.2 1.44q.1-.03.23-.03l.29-.07v-2.81zm-.38 3.13q-.26-.03-.39.07-.12.06-.06.38.03.13-.03.26l-.07.29q.2-.07.39-.1l.35-.13q.1-.03.29-.03.03-.2.03-.35v-.39zm-.87 2.28q.32.16.48.22-.25.22-.32.32-.06.06-.16.38l.3-.13.31-.12-.1.48q-.03.19-.09.38-.06.2 0 .35.13.26.06.45l-.1.42q-.09.6-.15 1.21-.03.61.22 1.25.03-.13.03-.22 0-.13.07-.2.54-1.37.22-2.75-.06-.35 0-.7.1-.35.26-.7.22.16.19.32 0 .12-.03.25-.03.16 0 .32.03.13.29.26-.07-.74-.1-1.44 0-.7-.03-1.38h-.1q-.06.06-.1.13l-.06.06-.29-.1-.28-.12q-.07-.03-.1-.07-.03-.06-.1-.12l-.19.64-.13.6zm.23 6.04q-.26.23-.29.32-.03.1.13.48l.16-.38q.06-.2.13-.35-.07-.07-.13-.07zm9.87-12.57q-.26.35-.55.7l-.54.67q-.55.7-.74 1.73.48-1.12 1.31-1.92.87-.8 1.92-1.47-.19-.03-.35-.03h-.25l.06-.16q.48-.07.96-.2.51-.16 1-.25.47-.13.95-.16.51-.03 1.06.13-.39.06-.8.16l-.87.13q.32.16.55.22.22.06.45.06h1.28l.19-.25.19-.32q1.34.22 2.34.93.99.7 1.76 1.92-.16-.07-.26-.07l-.13-.06-.19-.1q-.16.32 0 .39l.35.12q.39.2.39-.28.64.76.96 1.6.32.8.44 1.7.13.92.16 1.82t-.22 1.79q-.45 1.44-1.22 2.59-.76 1.15-2.14 1.86-.38.19-.77.41-.38.23-.8.26-1.18.1-2.37.16t-2.3-.39q-.83-.35-1.6-.8-.77-.48-1.38-1.15-.44-.48-.76-1.05-.32-.58-.42-1.25l-.13-.39q-.03-.19-.1-.38h-.09v1.82h-.1V271h.07v.41l.06.38q.03 0 .07.04h.06l.1-.3q.03-.12.03-.28.1-1.92 1.37-3.46.36-.44 1-.76zm3.07 13.34q-.16 0-.42-.06-.03.03-.03.12.13 0 .22.04h.23zm-.13-.86q1.25.7 2.14 0zm1.47.8q.67.13 1.35-.13-.58-.16-.84-.13-.25 0-.5.26zm1.8-1.44q.19-.07.38-.1l.41-.13q0-.12-.03-.19-.45-.1-.77.42zm4.73-7.9v.6q0 .23.03.35.03.13.1.23t.22.22l-.19-.74q-.09-.32-.16-.67zm-1.02-.97q.03.16.03.3 0 .09.03.25h.03q.03-.03.1-.03l-.07-.26q0-.13-.03-.26zm-.04 7.24q-.19.22-.41.41-.23.2-.45.42-.2.19-.32.45t-.13.57q-.48.23-.77.35-.25.13-.41.26-.16.13-.26.29l-.16.35q.07 0 .07.03h.06q.26-.06.38-.22t.26-.42q.06-.16.35-.16.29-.03.55-.1.03 0 .1-.1.22-.22.4-.44l.42-.45q.58-.5.87-1.12.32-.64.57-1.34.07-.16.07-.32l.06-.35q-.35.22-.41.5-.1.43-.36.75l-.48.64zm-2.52-10.12q-.48-.48-1.25-.06l1.25.86 1.21.77q.03-.03.07-.03.03-.03.06-.1-.13-.16-.26-.29-.12-.12-.19-.28-.1-.32-.22-.58-.13-.26-.58-.16-.03 0-.06-.03 0-.07-.03-.1zm-7.56 3.1q-.06.17-.16.36l-.25.45q.35-.16.51-.3.16-.15.1-.4zm-.5 4.26q0 .8.66 1.12.45.26.45.84l.35.35q.2.16.36.32.19.25.35.5.19.23.45.43.83.6 1.95.6 1.15 0 2.08-.57.13-.07.25-.07.16 0 .32-.06.36-.07.74-.1t.64-.22q.35-.26.6-.6.3-.36.52-.71.35-.7.42-1.44t-.04-1.48q-.03-.16-.03-.32.03-.16.1-.22.22-.22.19-.45 0-.22-.06-.41l-.2-.48q-.06-.3-.16-.55-.1-.25-.28-.44-.16-.23-.48-.36-.07-.03-.2-.22-.35-.7-.92-1.15-.55-.48-1.1-1.06l-.18.23q-.07.1-.16.19-.07-.1-.1-.2-.03-.12-.1-.12l-.5-.07q-.26-.03-.52.04l-.6.12q-.33.04-.49.45-.06.13-.29.23-.22.1-.48-.13.26-.07.26-.23v-.32l.32-.19.35-.16q-.45-.06-.8.13l-.67.32q-.58.26-.26.83-.67.29-.99.86-.29.55-.64 1.1-.19.31-.32.66-.1.32-.45.55v.16h-.1v-.13q-.02.03-.06.03-.06.04-.12.16l-.07.23zm1.08 1.96q-.13-.04-.26-.04l-.35-.06q.26.35.45.67.22.29.45.55l.03-.04q.03 0 .06-.03zm1.89 3.39q-.93-.51-1.76-1.12-.8-.64-1.44-1.57v.58l.06.32q.07.12.16.22l.32.22 1.06.68 1.05.64q.1.06.23.1l.25.06q.04-.04.04-.07t.03-.06zm-3.81-3.2l-.2-.7-.15-.77q-.16.44-.13.73.06.26.48.74zm28.58-7.65l-.1.1q-.02 0-.09.06-.29.16-.45.13-.16-.03-.32-.32-.16-.26-.32-.48l-.25-.51q-.16-.32-.42-.48-.22-.2-.51-.3l-.64-.22q-.29-.12-.64-.19-.13-.06-.29 0-.13.03-.29.1l-.5.19q-.23.1-.46.26-.67.44-1.3.96t-.97 1.34l-.1.25q-.03.12-.09.23-.1.16-.22.29-.13.1-.32.28v.64q0 .36-.2.7-.06.1 0 .26.1.16.13.3.2.6.16 1.18l-.1 1.82q0 .86.07 1.8.03.73.45 1.24.45.51 1.21.51.36-.03.55.23.19.22.41.41-.28 1.44-1.66 1.25-.26-.06-.32-.06l-1.86.06-1.82.06q-.32 0-.64-.06-.29-.1-.64-.16-.7-1.15.6-1.5l.4-.1q.22-.1.47-.06t.39-.23q.28-.54.32-1.09.06-.38.03-.76t0-.8l.06-.58q.03-.32.1-.6.03-.17.03-.36v-.35q.06-.51.03-.96-.03-.48.13-1 .13-.44.1-.89l-.07-.93q-.06-1.3-.19-2.56-.06-.48-.16-.57-.1-.1-.58-.23.07-.06.1-.16l.13-.22q-.16.03-.26.03-.1-.03-.16.03-.25.1-.48 0-.22-.13-.41-.22-.23-.1-.2-.32.04-.26.26-.42.32-.19.64-.32t.67-.13q.13 0 .23.04.12 0 .19-.07.48-.25.93-.1.44.13.9.3-.14.19-.14.35l.07.32.13.28q.06.16.03.36.45-.16.48-.48.03-.32.03-.74l.26.32.25.26.74-.48.77-.45q.25-.16.57-.16.42-.03.8 0h.83l.68-.07q.32-.03.67-.03.22 0 .41.03.23 0 .39.07.9.35 1.28 1.09.41.7.67 1.53.16.51.06.64t-.64.42zm-9.66 4.29h-.1q.04.06.04.16 0 .06.03.13h.03zm1.47 5.98q.26-.22.23-.29-.04-.1-.42-.35l.1.32.1.32zm-1.21-12.77q-.07.13-.07.16l.16.1q.1 0 .2.06.06-.12.06-.16-.1-.06-.2-.06-.09-.03-.15-.1zm0 12.58q.03-.16.03-.48-.07 0-.13-.03.03.13.03.25t.03.26zm.32-2.4q.03-.2.03-.38t.03-.39h-.22v.39q.03.19.03.38zm.06-4.83q-.32.32.03.7 0-.16-.03-.32v-.38zm0-.93l.06-1.09.07-1.12q0-.35-.39-.45l-.06.36q-.03.16-.03.32l.1 1.37q.03.67.09 1.38 0 .06.03.1.07 0 .13.06zm9.02-1.92q0-.06.04-.13.06-.06.1-.13t0-.12q0-.07-.14-.16l-.19.25-.22.29zm8-3.14q.2.16.17.3 0 .12-.1.25l-.13.25q-.03.1.1.23l.2-.23.21-.25.13.06-.1-.22-.06-.3q-.06-.21.03-.37t.32-.1q.48.1.87-.03.41-.16.83-.23 1.47-.35 2.85-.25.16 0 .29.03.12.03.28.1.48.16.48-.26.04-.64.04-1.22.03-.6.03-1.24 0-.77-.1-1.54-.06-.42-.19-.54-.13-.13-.58-.1-.28 0-.6.03h-.55l-.22-.38-.2-.35q.17-.68.97-.58.48.06.92-.06.45-.16.87-.39.32-.16.64-.25t.64.06q.35.93.41 1.89.1.96.1 1.89 0 1.56.03 3.1l.07 3.1v2.53q0 1.25.03 2.5 0 .93.03 1.85l.06 1.83v.8q0 .38-.03.77-.03.64.13.83.2.19.83.25.07 0 .07.03h.1q.28.58.02.93-.25.32-1.18.58v1.09h-.16q-.03-.26-.03-.48 0-.23-.03-.48-.26-.16-.58-.16l-.6-.07q-.46-.03-.55-.1-.1-.09-.2-.6l-2 .48q-.27.06-.52.16-.23.06-.48.06-.51.03-1.03.03l-.99-.06q-.13 0-.25-.03-.1-.07-.2-.1l-.38-.13q-.2-.1-.42-.12-.76-.07-1.28-.48l-1.02-.93-.1-.1q-.35-.77-.8-1.47-.41-.73-.57-1.63-.16-1.06-.13-2.11.06-1.1.16-2.15.06-.54.16-1.09t.45-1.02q.06-.06.03-.16 0-.13.03-.22l.13-.32q.1-.16.16-.32t.16-.3q.1-.15.13-.31.06-.35.29-.58.22-.22.41-.48 0-.06.07-.06.44-.16.76-.45.36-.29.68-.6zm8.33 6.3h-.04q0 .07-.03.17v.13h.07zm-.07-9.37q-.06.03-.13.16.07.03.07.07l.1.03q0-.03.03-.07t0-.06q0-.06-.07-.13zm-.22 16.77q.06-.26.16-.42.1-.19-.16-.44zm-3.3-19.55q.07-.07.1-.13l.13-.13q-.07-.06-.07-.1l-.13.13-.12.13zm1.57 19.84l.1-.13q.03-.1.1-.16-.07-.06-.07-.1-.45.16-.87.36-.38.19-.83.35.87.1 1.57-.32zm1.4-2.82q.07-.16.23-.35-.06-.03-.1-.03 0-.03-.06-.07l-.1.2q0 .1-.06.22.03 0 .03.03h.07zm-.63-11.74q-.07.35.06.7.13.32 0 .67 0 .07.1.13t.16.13q.16-.54.22-1.02t.2-.93q.12-.51.12-1.03.03-.5-.03-1.02-.03-.48-.13-.96-.1-.51-.19-1.09l-.2.9q-.09.38-.15.77 0 .06.06.16l.16.16-.06.48v.38q0 .32.03.64t-.32.58q-.06.03-.06.16.03.1.03.19zm-.77-5.31q.42.38.67-.16l-.35.1q-.13 0-.32.06zm-.86 5.79q-.48-.26-.64-.26-.16 0-.45.26zm-1.73.03l-.6.1q-.3 0-.59.06 0 .1.04.16l.32-.06q.16-.04.32-.04t.28.04q.13 0 .23-.26zm-2.6.29l-.19.13-.19.12q.04.07.13.16.1-.1.35-.29l-.06-.06q0-.03-.03-.06zm-.57 1.6q-.35.35-.67.6l-.6.52q-.68.5-.78 1.37-.03.74-.13 1.44-.1.67.23 1.41-.35.16-.51.2-.04.28-.04.54 0 .25-.1.5-.25.55-.02.94l.5.73.17.3q.1.12.1.28.03.42.15.77l.32.67q.13.32.36.58.22.22.57.35.03-.26.13-.51.16.25.42.32.25.03.32.35 0 .06.19.06t.25.07q.2.25.42.28.26 0 .51.04t.48.03q.23-.03.48-.03.07 0 .13.03.1 0 .13-.07.16-.25.35-.22h.48q.16-.03.29-.03.16-.03.29-.1.38-.16.73-.35l.83-.42v-2.72q0-1.09-.03-2.14v-2.18q.03-.86.03-1.7l.07-1.69q0-.38-.29-.58-.26-.22-.6-.16l-.26.07q-.13 0-.3.03l-.44.06h-.48l-.8.1q-.38.03-.67-.38-.35.1-.67.22l-.64.2q-.26.06-.42.12-.13.03-.22.13-.07.1-.1.25v.39q0-.03-.06.1-.04-.17-.04-.33t-.06-.44zm26.24 9.37q-.13 1.12-.77 1.92-.6.77-1.53 1.32-.16.1-.35.12l-.45.1.16-.42q.1-.19.16-.35-.26-.03-.42.07-.16.1-.32.25-.13.13-.29.26-.16.13-.35.16.16 0 .29.03h.29q-.26.35-.55.45-.25.06-.6 0-.26-.03-.48.03-.2.06-.26.41-.16-.38-.45-.38-.29-.03-.54-.03-.64 0-1.28.03-.64 0-1.28.03h-.77l-.74-.06-.44-.07q-.2-.03-.39-.22-.06-.06-.22-.1t-.32-.03q-.74-.03-.93-.77-.26-.73-.26-1.44 0-.73.3-1.47l.18-.35q.74-.83 1.32.1.19.32.32.67.12.32-.04.74-.06.16-.06.38 0 .2-.03.45l1.25.1q.64.02 1.28.09h.22q.13-.03.26.03 1.28.48 2.59-.06.16-.07.35-.03.22 0 .42.03.73.16 1.28-.16.57-.32 1.18-.58.1-.03.16-.2.26-.44.13-1.14-.13-.74-.51-1.1-.42-.38-.9-.6l-1-.45-.66-.25q-.32-.16-.64-.39-.26-.16-.58-.19-.29-.06-.6-.1l-1.74-.22q-.87-.1-1.7-.26-.4-.06-.8-.22-.38-.16-.73-.35-1.09-.6-1.09-1.82.04-.3 0-.58l-.06-.58q0-.1-.03-.19 0-.1.03-.2.26-1.05.93-1.78.16-.16.32-.23.19-.1.35-.22.45-.42.93-.67.48-.3 1.15-.13-.32.2-.64.45.51-.1 1-.13.47-.07 1.02 0-.07.13-.16.25l-.2.26q.45-.13.68-.38.22-.3.54-.55h-.51l-.9.07q-.41 0-.86.03.38-.1.77-.23t.73-.19q.55-.1 1.09-.16.54-.1 1.15-.16l.07-.16.12-.29q0 .36.13.42.16.06.42.1 1.02 0 2.01.25l2.02.48-.06.23v.22q.1 0 .19.03.13 0 .29.03 0 .9-.1 1.76-.1.84-.64 1.6-.26.1-.42 0-.12-.1-.28-.28-.42-.48-.42-1 .03-.5.03-1.05-.16-.03-.32-.03-.16-.04-.29-.1-1.37-.64-2.78-.35-.2.03-.38.03-.2-.03-.39 0-.48.06-.9.2-.7.25-1.11-.33-.23.13-.45.23-.2.06-.39.19-.64.35-.96 1-.28.6.2 1.24t1.3.8l.2.06q.13.03.29.1l-.39.16q-.16.03-.35.03-.16-.03-.38-.13l-.58-.32q-.03.45.26.74.29.25.9.45 0-.55.57-.52.35.07.67.16.35.07.64.32.55.48 1.15.74.64.22 1.41.06.07-.03.13-.03h.13l1.18.32q.61.13 1.15.39.7.32 1.1.92.38.61.54 1.35.12.67.1 1.34zm-4.99-10.69l.93.07q.48 0 .96.03v-.13q-.45-.06-.93-.1l-.96-.06zm-7.36 2.18l.67-.48q.35-.26.45-.74-.06-.03-.1-.03l-.06-.03q-.26.32-.48.64-.22.32-.48.64zm1.06 4.13q.8.45 1.63.6.86.17 1.79.17l-1.12-.35-1.09-.39q0-.06.03-.1l.7.07.78.06q0-.1.03-.16l-.83-.38q-.42-.2-.87-.38l-.16.28-.13.3q-.28-.17-.6-.3l-.64-.32q-.1.39-.04.55.07.13.52.35zm8.99 2.3q.06-.13.06-.22l.07-.23q-.04-.03-.13-.03l-.1.45q.07 0 .1.03zm1.12.45q.13-.03.25-.03.13-.03.3-.1l-.2-.48q-.06-.22-.35-.41zm.29.77q-.3.16-.36.35-.03.16.2.48.06-.26.06-.45.03-.19.1-.38zm-.64 2.5l-.3.47q-.09.23-.25.45.45-.32.51-.45.1-.12.04-.48zm-10.66-1.86q-.1 0-.13-.03l-.06.28q0 .1-.03.23h.12zm0 2.81q.03.45.13.52.13.03.77-.07-.23-.13-.45-.22l-.45-.23zm1.4.93q.42.16 1.06 0-.25-.06-.54-.06-.26-.03-.51-.1z"/><path stroke="#000" stroke-width=".68" d="M191.03 246.38h138.7v44.13h-138.7z"/><path aria-label="Module" font-weight="400" font-size="32" font-family="INTUITIVE FREE" letter-spacing="1" word-spacing="1" fill="#000" d="M235.36 279.64q.07.42-.41.51-.13.07-.2.07-.15.06-.31.16t-.3.03q-.34-.1-.73 0-.35.06-.73-.1-.26-.1-.61.03-.32.1-.67.16-.04.26-.04.48 0 .23-.03.45l-.06.03-.07-.54q-.03-.26-.1-.54-.6 0-1.18.03-.57 0-1.15-.03-.22-.04-.41-.13l-.39-.2q-.38-.22-.22-.73.13-.48.57-.48.45.03.8-.16.36-.2.68-.32.48-.74.48-1.5t.06-1.54q.06-1.02 0-2.02-.03-.99 0-1.98 0-.54.03-1.06t0-1.05q0-.42-.03-.8l-.06-.83q0-.26.03-.45.06-.23.06-.48.07-1.22 0-2.37 0-.1-.06-.2l-.1-.22q-.16.3-.19.58 0 .29-.29.48.07-.16.07-.35.03-.2.1-.35h-.07q0-.04-.07-.04l-.25.42q-.1.2-.26.45.42.32.13.73-.16.23-.2.48-.02.23-.09.48l-.19.68-.22.64q-.16.48-.36.99l-.35 1.02-.13-.06-.1-.07q-.09.1-.09.07-.32.86-.6 1.73l-.61 1.66q-.07.2-.07.26.03.06.2.25-.1.07-.23.1t-.16.1l-.26.5q-.1.26-.06.52.06.19-.03.35-.07.16-.03.35.03.16-.07.35-.1.2-.19.45l-.1-.2-.03-.15q-.22.1-.32.26t-.16.38q-.16.35-.29.73-.1.36-.48.61-.16.1-.19.42 0 .29-.06.54.29.03.51.1.03.16-.06.45-.07.25-.23.5-.13.23-.32.4-.16.15-.29.12-.5-.1-.83-.54-.19-.3-.35-.64l-.26-.7-.38-1.1-.32-1.08-.77-2.5-.13-.38q-.03-.2-.1-.39l.33.51.32.52q.1.16.16.32.06.12.22.19.2.06.26.16.06.06.03.29-.03.12.06.25.13.13.2.3 0 .02-.07.05-.03.04-.03.1-.06.35 0 .64.06.26.38.48l-.1-.48-.06-.48q.13-.03.2-.03l.22-.07-.32-.92-.26-.9.1-.2q.06-.12.06-.25 0-.16-.12-.19-.1-.06-.26 0v-.03q-.2-.07-.42-.07-.19-.03-.35-.16-.13-.06-.19-.22-.06-.2-.16-.35-.03 0-.06.03h-.04q-.03.13-.03.26t-.03.25l-.96-2.69q-.48-1.34-.93-2.68-.16-.45-.29-.93-.12-.48-.28-.96-.04-.13-.13-.23-.07-.12-.16-.22-.13.9-.07 1.76t-.1 1.76q-.25-.58-.22-1.15t.04-1.15v-2.44q-.23.2-.26.42-.03.2-.03.42 0 .19-.07.38-.03.16-.22.29l-.22-.23q-.13-.16-.32-.35-.07.42-.1.77-.03.35-.1.8-.19-.35-.22-.67 0-.35-.03-.67 0-.58-.03-1.16v-1.15q0-.41-.16-.77l-.32-.73q-.26-.6-.96-.7-.23-.04-.45-.04-.2-.03-.42-.1l-.32-.06q-.13-.03-.25-.1-.26-.15-.39-.47-.1-.36.13-.52l.51-.5q.29-.26.74-.23.9.03 1.76.03l1.79-.06q.54 0 .7.48.2.54.36 1.05.19.48.35 1.03.29 1.12.54 2.2l.58 2.21.06.26.1.25q.16.36.29.7.16.33.25.68l.87 2.62q.42 1.28.83 2.63.19.67.35 1.34l.38 1.35q.07.22.3.41l.02-.38.07-.42h.1l.06.39q.06.19.03.38-.1.67.51 1.09.16-.35.26-.67l.25-.64q-.41-.16-.54-.39-.1-.25.03-.64l.96-2.75q.48-1.4 1.03-2.75.28-.67.48-1.38.22-.7.48-1.37.64-1.63 1.21-3.27l1.22-3.33.1-.38q.06-.35.31-.57.26-.26.58-.26h4.1l.1 1.12-.62.29q-.25.13-.5.22-.17.07-.33.07h-.32l-.13.32-.12.32-.13.35q-.07.16-.1.35-.25 1.82-.29 3.61-.03 1.8-.1 3.62-.02 1.12.04 2.24.1 1.09.13 2.2 0 .62.03 1.2.06.57.22 1.14.07.26.04.52t-.04.5q.04.8.84 1.26.16.06.28.22.16.13.42.29.2.06.45.16.29.06.54.2.13.06.23.18.12.13.12.26zm-2.88-19.04q-.03.1-.03.22l.07.23q.1-.1.19-.16l.19-.2-.42-.1zm-19.2-.39q.3.04.52.1-.16-.45-.52-.1zm3.9-.16q-.02.58.17 1.28.19.68.51 1.1-.1-.62-.22-1.2l-.23-1.2h-.06q-.1 0-.16.02zm1.06 1.32q-.1.16-.12.32 0 .16.19.22.03-.03.06-.03t.1-.03l-.13-.23q-.03-.13-.1-.25zm1.19 7.9h.03q.03-.03.06-.03l-.38-1.28q-.16-.67-.35-1.34.29-.1.7-.13v.77q.16.12.58.35-.26-.74-.45-1.38l-.38-1.28q.06.7.03.87-.03.16-.2.35-.12-.16-.25-.3-.13-.12-.2-.28-.09-.35-.15-.74l-.07-.76-.12-.64q-.04-.32-.32-.55l.06.42.06.42q.07.25.1.54.06.26 0 .51-.13.51-.03 1t.25.92l.39 1.15.45 1.15.06.13.13.13zm.22.42q-.03 0-.06.03h-.07q.07.13.13.32.03-.03.1-.03l-.07-.16q0-.1-.03-.16zm1.41 3.42q.35-.1.42.16t.22.45q-.03-.23-.03-.45t-.13-.35q-.32-.32-.42-.7-.1-.39-.22-.74l-.32-.87-.29-.86h-.16q0 .13-.03.26v.25q-.16.03-.48.16l.1.23.12.19q.42-.16.52-.1.12.07.22.42.13.45.22.93l.26 1.02zm1.44 3.46l-.06.1q-.04 0-.07.02.13.07.23.16l.06-.12q-.03-.07-.06-.07l-.1-.1zm.16 1.7q.22-.4-.13-.68-.1-.06-.16-.13l-.13-.19q0 .29.07.54.1.26.35.45zm2.37-3.94v-.16q.03-.1.03-.2h-.1q0 .1-.03.2v.16zm.67-2.21l.58-1.12.6-1.12q.07-.1.07-.32 0-.07-.03-.1l-.1-.19q-.06.2-.13.32t-.13.29q-.06.1-.1.22 0 .13-.06.2-.44.35-.5.86-.04.48-.2.96zm.7-.87q.64-.25.68-.96l-.36.52-.32.45zm1.73-3.61l.29-.64.26-.67q-.07-.07-.13-.07l-.29.67-.26.64q.07.07.13.07zm2.79-4.67q-.2.73-.1 1.5t.1 1.5zm.6 1.76l.07-1.22q.03-.6-.2-1.18l.07 1.21.06 1.19zm3.24 15.48l.16-.28.19-.32q-.39.12-.45.22t.1.38zm-15.27-1.02l.39.1q.19.04.16.28 0 .16-.1.36-.1.16-.22.25-.68.58-1.64.58-1.76-.03-3.52.1-.54.06-.99-.07-.41-.1-.77-.51-.19-.23-.19-.42 0-.22.26-.38.25-.1.48-.16.25-.1.51-.13.67-.06 1.12-.48.45-.45.51-1.12.07-.67.1-1.31.03-.67.1-1.35 0-.16-.07-.32-.06-.19.29-.19v-.16q.03-.03.03-.1l-.06-.31-.07-.42q.61.03.61.54.03.39.03.77.03.35.03.74.04.35 0 .7v.7q.26 0 .32-.12.1-.13.1-.32 0-.32-.06-.64-.04-.35.06-.6.16-.46.1-.9t0-.87q.19-.83.19-1.63 0-.83.1-1.67l.06-.16q.03-.1.16-.22l.1.22q.03.1.03.23.06.93 0 1.89-.04.6-.1 1.18-.03.58-.03 1.18.03.55.1 1.12l.12 1.12q.03.26.03.52l.1.48q.13.7.54 1.02.45.32 1.1.48zm-4.93.8h.42l.45-.06q-.26-.1-.48-.13-.2-.07-.39.06zm.77-.8q.35-.03.2-.48l-.3.1q-.12.03-.09.25 0 .07.06.1t.13.03zm.61-.77h-.13q.03.16-.03.35-.03.16.16.39zm.1-.48l.1.13.09.13q.03-.07.06-.07l.07-.06-.1-.1q-.03-.06-.1-.12l-.06.06q-.03 0-.06.03zm.83 2.05v-.16q-.07.03-.16.03-.07 0-.16.03.03.04.03.1zm.51-1q.06-.34-.2-.5-.25-.2-.38-.58-.16.35-.25.6t-.23.55q.32-.03.55-.03.25 0 .51-.03zm.67 0q-.06-.06-.16-.12l-.13-.13-.1.1q.07.06.14.16l.12.13zm-1.7-7.42q.2-.25.13-.48-.03-.22-.16-.48h.04l.1-1.24.12-1.41.13-1.4h.16l.03.15q.03.06 0 .13-.06.45.03.9.1.41-.1.83-.03.06-.03.16.04.06.04.12.06.55.1 1.12l.06 1.16q0 .25-.07.54l-.13.64-.12-.48q-.04-.22-.32-.26zm-.28 1.54q-.13-.29-.2-1.02-.06-.77-.06-1.63 0-.87.07-1.64.06-.8.19-1.12v2.21q0 .13-.03.26 0 .1.06.22 0 .06.06.13.1.03.16.1-.06.15-.1.31-.02.13-.02.3-.04.09 0 .18l.12.16h.04-.04l-.12.74q-.07.35-.13.8zm7.84 3.17q.1.22.1.29 0 .06-.17.25.04-.13.04-.25t.03-.3zm-8.32-7q.03.06.03.22h-.03l-.03-.1q0-.06-.04-.13zm11.1 4.02q0-.06.07-.25 0 .03.03.03v.26q-.07 0-.1-.04zm13.98-6.69q-.25.36-.54.7l-.55.68q-.54.7-.73 1.73.48-1.12 1.31-1.92.86-.8 1.92-1.47-.2-.03-.35-.03h-.26l.07-.16q.48-.07.96-.2.5-.16.99-.25.48-.13.96-.16.51-.03 1.05.13-.38.06-.8.16l-.86.12q.32.16.54.23.23.06.45.06h1.28l.2-.25.19-.32q1.34.22 2.33.92 1 .7 1.76 1.92-.16-.06-.25-.06l-.13-.06-.2-.1q-.15.32 0 .38l.36.13q.38.2.38-.29.64.77.96 1.6.32.8.45 1.7.13.93.16 1.82t-.22 1.8q-.45 1.44-1.22 2.59t-2.14 1.85q-.39.2-.77.42-.39.22-.8.26-1.19.1-2.37.16t-2.3-.39q-.84-.35-1.6-.8-.77-.48-1.38-1.15-.45-.48-.77-1.06-.32-.57-.41-1.24l-.13-.39q-.03-.2-.1-.38h-.1v1.82h-.09v-6.53h.06v.42l.07.38q.03 0 .06.04h.07l.1-.3q.02-.12.02-.28.1-1.92 1.38-3.46.35-.45 1-.77zm3.07 13.35q-.16 0-.41-.06-.03.03-.03.12.12 0 .22.03h.22zm-.12-.86q1.24.7 2.14 0zm1.47.8q.67.12 1.34-.13-.57-.16-.83-.13-.26 0-.51.26zm1.79-1.44q.2-.07.38-.1.23-.06.42-.13 0-.13-.03-.2-.45-.09-.77.43zm4.74-7.9v.6q0 .22.03.35.03.13.1.23t.22.22q-.1-.42-.2-.74t-.15-.67zm-1.03-.97q.03.16.03.29 0 .1.04.26h.03q.03-.04.1-.04l-.07-.25q0-.13-.03-.26zm-.03 7.23q-.2.23-.42.42l-.44.42q-.2.19-.32.44t-.13.58l-.77.35q-.26.13-.42.26-.16.13-.25.29-.07.12-.16.35.06 0 .06.03h.07q.25-.06.38-.22t.26-.42q.06-.16.35-.16.29-.03.54-.1.03 0 .1-.1.22-.22.41-.44l.42-.45q.58-.51.86-1.12.32-.64.58-1.34.06-.16.06-.32l.07-.35q-.35.22-.42.5-.1.42-.35.74l-.48.64zm-2.53-10.1q-.48-.49-1.25-.07l1.25.86 1.22.77q.03-.03.06-.03l.07-.1q-.13-.16-.26-.29-.13-.13-.2-.29-.09-.32-.22-.57-.12-.26-.57-.16-.03 0-.07-.03 0-.07-.03-.1zm-7.55 3.1q-.06.16-.16.35l-.26.45q.36-.16.52-.3.16-.15.1-.4zm-.51 4.25q0 .8.67 1.12.45.26.45.83l.35.36q.2.16.35.32.2.25.35.5.2.23.45.42.83.61 1.95.61 1.16 0 2.08-.58.13-.06.26-.06.16 0 .32-.06.35-.07.74-.1t.64-.22q.35-.26.6-.61.3-.35.52-.7.35-.7.41-1.45t-.03-1.47q-.03-.16-.03-.32.03-.16.1-.22.22-.23.19-.45 0-.22-.07-.42-.1-.22-.19-.48-.06-.28-.16-.54t-.29-.45q-.16-.22-.48-.35-.06-.03-.19-.22-.35-.7-.93-1.15-.54-.48-1.09-1.06l-.19.22q-.06.1-.16.2l-.1-.2q-.03-.12-.09-.12l-.51-.07q-.26-.03-.51.03l-.61.13q-.32.03-.48.45-.07.13-.29.22-.22.1-.48-.13.26-.06.26-.22v-.32l.32-.2.35-.15q-.45-.07-.8.13l-.67.32q-.58.25-.26.83-.67.29-1 .86-.28.55-.63 1.1-.2.31-.32.66-.1.32-.45.55v.16h-.1v-.13q-.03.03-.06.03-.06.03-.13.16l-.06.23zm1.09 1.95q-.13-.03-.26-.03l-.35-.06q.25.35.45.67.22.29.44.54l.04-.03q.03 0 .06-.03zm1.88 3.4q-.92-.52-1.76-1.12-.8-.64-1.44-1.57v.57l.07.32q.06.13.16.23l.32.22 1.05.67 1.06.64q.1.07.22.1l.26.06q.03-.03.03-.06t.03-.06zm-3.8-3.2l-.2-.7q-.06-.36-.16-.78-.16.45-.12.74.06.26.48.74zm20.52-10.79q.2.16.16.29 0 .13-.1.26l-.12.25q-.03.1.1.22.09-.12.19-.22l.22-.26.13.07-.1-.22-.06-.3q-.07-.22.03-.38t.32-.1q.48.1.86-.02.42-.16.83-.23 1.48-.35 2.85-.25.16 0 .3.03.12.03.28.1.48.15.48-.26.03-.64.03-1.22.03-.6.03-1.25 0-.76-.1-1.53-.06-.42-.19-.55-.12-.12-.57-.1-.29 0-.6.04h-.55l-.23-.38q-.1-.16-.19-.36.16-.67.96-.57.48.06.93-.07.45-.16.86-.38.32-.16.64-.26t.64.07q.35.93.42 1.89.1.96.1 1.88 0 1.57.03 3.1l.06 3.11v2.53q0 1.25.03 2.5 0 .92.03 1.85l.07 1.83v.8q0 .38-.03.76-.04.64.12.83.2.2.84.26.06 0 .06.03h.1q.28.58.03.93-.26.32-1.19.58v1.08h-.16q-.03-.25-.03-.48 0-.22-.03-.48-.26-.16-.58-.16l-.6-.06q-.45-.03-.55-.1-.1-.1-.19-.6l-2.02.48q-.25.06-.5.16-.23.06-.49.06-.5.03-1.02.03l-1-.06q-.12 0-.25-.03-.1-.07-.2-.1l-.38-.13q-.19-.1-.41-.13-.77-.06-1.28-.48-.51-.44-1.03-.92l-.1-.1q-.34-.77-.8-1.47-.4-.74-.57-1.63-.16-1.06-.13-2.12.07-1.08.16-2.14l.16-1.09q.1-.55.45-1.02.07-.07.03-.16 0-.13.04-.23l.12-.32q.1-.16.16-.32t.16-.28q.1-.16.13-.32.07-.36.3-.58.21-.22.4-.48 0-.06.07-.06.45-.16.77-.45.35-.29.67-.6zm8.32 6.3h-.03q0 .07-.03.16v.13h.06zm-.06-9.37q-.07.03-.13.16.06.03.06.06.04 0 .1.04 0-.04.03-.07t0-.06q0-.07-.06-.13zm-.23 16.77q.07-.26.16-.42.1-.2-.16-.45zm-3.3-19.55q.07-.07.1-.13l.13-.13q-.06-.06-.06-.1l-.13.13-.13.13zm1.58 19.84l.1-.13q.02-.1.09-.16-.07-.07-.07-.1-.44.16-.86.35-.38.2-.83.35.86.1 1.57-.32zm1.4-2.82q.07-.16.23-.35l-.1-.03q0-.04-.06-.07-.07.1-.1.2 0 .09-.06.22.03 0 .03.03h.06zm-.64-11.74q-.06.35.07.7.13.32 0 .67 0 .07.1.13t.15.13q.16-.55.23-1.03t.19-.92q.13-.52.13-1.03.03-.51-.03-1.02-.04-.48-.13-.96l-.2-1.1-.19.9q-.1.39-.16.77 0 .07.07.16l.16.16-.07.48v.39q0 .32.04.64t-.32.57q-.07.04-.07.16.03.1.03.2zm-.76-5.32q.41.39.67-.16-.2.07-.35.1-.13 0-.32.06zm-.87 5.8q-.48-.26-.64-.26-.16 0-.45.26zm-1.73.03l-.6.1q-.3 0-.58.06 0 .1.03.16l.32-.07q.16-.03.32-.03t.29.03q.13 0 .22-.25zm-2.59.28l-.2.13-.18.13q.03.06.13.16.1-.1.35-.29l-.07-.06q0-.03-.03-.07zm-.57 1.6q-.36.36-.68.61-.28.26-.6.51-.68.52-.77 1.38-.03.74-.13 1.44-.1.67.22 1.4-.35.17-.5.2-.04.29-.04.54 0 .26-.1.52-.25.54-.03.92l.51.74q.1.16.16.29.1.13.1.29.03.41.16.77.16.31.32.67.13.32.35.57.23.23.58.35.03-.25.13-.5.16.25.41.31.26.03.32.35 0 .07.2.07t.25.06q.2.26.42.3l.5.02.49.03q.22-.03.48-.03.06 0 .13.03.1 0 .12-.06.16-.26.36-.22h.48q.16-.04.28-.04.16-.03.3-.1.38-.15.73-.34l.83-.42v-2.72q0-1.09-.03-2.14v-2.18q.03-.86.03-1.7l.06-1.7q0-.38-.28-.57-.26-.22-.61-.16l-.26.07q-.13 0-.29.03l-.44.06h-.48q-.39.03-.8.1-.39.03-.68-.39-.35.1-.67.23l-.64.2q-.25.05-.41.12-.13.03-.23.13-.06.1-.1.25v.39q0-.04-.06.1-.03-.17-.03-.33t-.06-.45zm22.84-2.17q.23.13.45.22.26.07.55 0 .48-.06.96.03.48.07.99.23l.06 1.09q.03.54-.16 1.09-.1.32-.06.67.06.32.06.67v.54q.03.26-.03.52-.03.28-.13.57-.1.26-.1.51 0 .36-.22.48-.2.1-.45.2 0 .16-.03.32 0 .16.26.22.1-.16.19-.35l.29-.45q.1.38.1.51.03.64.09 1.28t-.03 1.28q-.1.7-.07 1.4l.13 1.35q0 .2.03.39t.1.35q.2.8.93.9.8.06.8.9-.16.44-.77.38h-.67q-.32-.04-.67.03-.55.06-.8-.23-.26-.32-.45-.67l-.13-.35q-.03-.2-.26-.32-.03-.03 0-.16t.07-.32l-.7.48q-.33.22-.65.48.23.48-.28.74-.32.16-.64.28-.32.1-.7.07-.68-.03-1.38 0h-1.67l-.29-.07q-.8-.1-1.15-.7-.25-.45-.54-.86l-.55-.87-.1.2-.09-.1q-.13-.48-.22-.96-.07-.48 0-1.03.13-.9.1-1.79 0-.9-.23-1.8-.1-.34-.03-.73t.1-.73l.06-1.15q.03-.58.03-1.16.03-.25 0-.5t-.1-.52q-.1-.6-.67-.6l-.2.06q-.09.03-.18 0-.13 0-.26-.04l-.29-.12-.06-.26q-.03-.13-.03-.26v-.32q.03-.19.1-.32.12-.16.31-.25.2-.13.36-.2.73-.25 1.37 0 .67.23 1.31.36.26.06.36.29.1.22.12.48.07.64.1 1.24.03.58.03 1.22.03.93 0 1.86 0 .92-.06 1.85-.1 1.22-.03 2.43.1 1.22.16 2.44 0 .16.1.35l.25.32q.06-.35-.07-.64-.1-.32.07-.67.13.19.16.28l.1.45q.06.2.15.39.07.16.2.32.12.12.25.16.51.06.96.32.48.25 1.03.19l.48-.07.5-.06.07-.22q.03-.13.1-.3l.1.23.09.2.2-.13.15-.13q.35-.35.67-.7l.7-.71q.42-.45.36-1.15v-.58l.06-.6q0-.26.04-.45.03-.23-.16-.48-.1-.1-.1-.26t.03-.32q0-.42.03-.8l.07-.83q0-.16-.03-.3-.04-.15-.04-.31 0-.2.16-.35.04.06.04.16t.03.16q-.03-.35.03-.67.1-.36-.16-.7l-.1-.14q-.03-.1 0-.16.13-.19.1-.38 0-.22-.03-.45t-.07-.41q0-.23.1-.45.06-.2-.03-.45l-.13-.54-.7-.07q-.36-.03-.74-.1v-.35q0-.12.03-.25l.16-.3.35-.47zm.48 1.22q.04-.07.04-.1t.03-.1q-.2-.03-.39-.03l-.35-.06q0 .03-.03.06v.07l.35.1q.2.02.35.06zm-7.74 3.64q.03.04.1.04 0-.1-.04-.16v-.2h-.06zm.16-1.85h-.13q.03.06.03.16 0 .06.04.13h.06zm.58-.67q.03-.26.03-.48.03-.23-.2-.48l.07.48q.03.22.1.48zm.35-.23q.03-.03.13-.03l-.07-.48q0-.26-.03-.51-.06 0-.1.03h-.1q.07.26.07.51.03.23.1.48zm1.44 12.39q.19 0 .35-.04.2-.03.26-.35-.26-.06-.55-.06-.25-.03-.51-.1.03.51.45.55zm1.18.12l.6-.1.65-.06v-.03q.03-.03.03-.06-.35 0-.67.03-.29 0-.64.03 0 .13.03.2zm1.15.39l.2-.07.22-.06q-.06 0-.16-.06-.06-.07-.13-.07-.06-.03-.13.03-.03.03 0 .23zm5.25-.64q-.03.03-.03.16.06.03.16.03t.2.03v-.06q.02-.03.02-.1-.1-.03-.19-.03-.06-.03-.16-.03zm-.7-7.01l-.23.22-.25.26q.25-.06.41-.06l.39-.1q-.23-.2-.32-.32zm9.77 4.8q.13-.2.13-.42.03-.25.03-.5v-4.1q0-.1.07-.16.28-.3.12-.45-.12-.16-.28-.26v-3.55l.06-3.46q0-.64-.03-1.24-.03-.64.03-1.28.1-.61.03-1.19-.03-.57 0-1.18 0-.16-.03-.35-.03-.2-.1-.42-.54 0-1.02.03-.48 0-.96-.03-.22 0-.35-.06-.26-.13-.32-.36-.07-.25.19-.44.26-.23.51-.42.29-.2.7-.16 1.19.1 2.18-.64.16.06.29.16l.32.16.2-.35.12.1q.06.03.06.09.04.22.04.45v.48q0 .32-.04.64-.03.29.13.64.07.19.03.45l-.06.48q-.16.86-.13 1.76.03.86.03 1.76.04 1.18.04 2.36.03 1.19.03 2.37 0 1.6-.03 3.17v3.17q0 .16.03.32.03.13.1.19.31.26.25.51-.03.26-.1.55l-.12.92q-.04.48 0 .96.03.26.16.52l.25.48q.1.16.42.22l.86.13q.42.03.87.13.28.06.44.32.1.16-.03.25-.1.07-.19.16-.16.13-.29.29l-.19.2q-.83.02-1.6.06-.77 0-1.54.06-.06 0-.12.06-.04.07-.1.13-.1-.25-.29-.25-.16-.04-.35-.04-.64 0-1.28.04-.6 0-1.25-.04-.32-.03-.64-.12-.29-.1-.57-.23t-.26-.35l.1-.48q.38-.32.83-.38.45-.1.9-.13.63-.07.89-.51.2-.32.42-.58.25-.29.41-.64zm-.16 2.82h-.54v.1h.54zm.13-1.22q.06-.13.06-.22l.07-.23q-.03-.03-.1-.03-.13.26-.19.42.1 0 .16.06zm4.58.83q-.13.13-.16.2l.19.28q.1-.2.1-.29 0-.06-.13-.19zm-2.98-7.26q0-.3-.03-.45h-.07v.45zm.06-7.04h.07v-.51h-.07zm-.03 2.94q-.19.55-.19 1.09t.2.8zm-.35-3.74h.1q-.04-.16-.04-.26 0-.13-.03-.25h-.03zm7.64 9.21q0-.76.06-1.53.1-.77.26-1.5.19-.9.6-1.67.42-.8 1.13-1.44l.48-.51q.25-.3.5-.51.84-.7 1.8-1.12 1-.45 2.11-.48l.26-.1.25-.1.3.13q.12.06.28.06 2.14.23 3.68 1.86.51.58.74 1.31.22.7.6 1.31.13.23.2.48.06.23.16.48.25.55.1 1.06t-.23 1.09q-.13-.1-.2-.13l-.12-.13-.32.16q-.16.07-.32.1t-.32 0l-.32-.1-.07.13.2.13q.1.03.19.1-.8.03-1.57.1t-1.54.31v.16q.32.07.48.07.84-.07 1.64-.16.83-.1 1.66-.16.1 0 .16.03h.22q-.16.19-.19.19-.45.06-.93.16-.48.1-.92.13-.74 0-1.48.06-.7.07-1.44.23-.22.06-.35.16-.13.06-.2.32-.12-.45-.6-.39l-1.73.13q-.86.03-1.72.1-.58.06-.9.12-.32.07-.67.3.06.18.1.38l.12.35.45.8q.22.38.48.77.74 1.15 2.05 1.6l.7.22q.39.1.77.16.29.06.58.06.32-.03.64-.03.32-.03.6-.03.3-.03.61-.1 1.83-.32 3.52-1.37.6-.32 1.22-.16 0 .86-.67 1.28-.74.41-1.48.77l-1.44.7q-.16.06-.32.06-.12 0-.28.07-.07.03-.1.13t-.1.19q-.41.1-.9.06-.47-.06-.82.35-.16-.06-.3-.16-.12-.06-.28-.1-.42-.06-.83-.02-.42 0-.77-.16-.9-.3-1.73-.61-.83-.35-1.57-1.06-.57-.57-.99-1.25-.41-.67-.73-1.37-.26-.58-.36-1.22l-.1-1.25zm12.8 4.04q-.07.03-.1.06l-.06.03q.03.03.03.06l.03.04.26-.1q.13-.03.29-.1 0-.03-.04-.03v-.06h-.22zm-4.39 2.24q-.19 0-.41.03-.2 0-.35.35.25-.07.44-.1.2-.06.36-.13 0-.03-.04-.06v-.1zm-.96.06l-.38.06q-.2 0-.48.04.45.16.54.16.13-.04.32-.26zm-.38-.29q-.64-.29-1.44-.06.35.32.7.22.39-.1.74-.16zm-2.02-.32l-.28-.22q-.13-.16-.39.06l.35.1q.16 0 .32.06zm-1.56-.38l-.07.06q0 .03-.03.07.13.06.26.16t.25.16q.07-.07.1-.13-.16-.07-.3-.16-.09-.1-.21-.16zm8.41-7.2q-.03-.03-.03-.16l-.2.06q-.06 0-.15.03v.07q.03.03.03.06.06-.03.16-.03t.2-.03zm-1.05-4.74q0 .03-.07.1l.39.29q.03-.07.1-.13l-.23-.13-.2-.13zm-.26-.32q-.03-.06-.1-.1t-.22-.12l.1.29q.06.1.12.25.13-.29.1-.32zm-1.57-1.21q-.32-.13-.64-.23t-.7.07q.16.19.32.25.19.03.35 0l.35-.06q.16-.07.32-.03zm-5.95 2.4l-.06.19-.1.16q.03 0 .03.03h.07l.19-.32-.13-.06zm-.03.9q-.55.63-.83 1.4-.26.77-.1 1.7.32 0 .6-.04.3-.06.55-.03.96.16 1.92.03t1.89-.19q.83-.06 1.63-.16l1.6-.25q.35-.07.74-.1l.73-.13q-.06-.7-.38-1.34-.29-.67-.74-1.12-.19-.26-.48-.39-.25-.12-.41-.35-.32-.35-.67-.54-.36-.2-.74-.26-.35-.06-.77-.06-.38 0-.77.03-.22 0-.25.1-.2.35-.48.38-.3 0-.61-.03h-.22q-.1 0-.2.03-.6.16-1.12.51-.5.35-.9.8zm-.64 9.56h.29q.16-.03.25-.03l-1.92-2.4q-.03 0-.1.06l.65 1.25q.35.58.83 1.12zm-.03-1.31q.03-.26-.2-.55-.19-.29-.48-.45.16.68.68 1zm-1.54-2.72l-.22.12-.2.13.3.32q.12.16.28.32l.03-.03q.03 0 .07-.03l-.13-.39q-.07-.19-.13-.44z"/></svg>