<svg xmlns="http://www.w3.org/2000/svg" xmlns:osb="http://www.openswatchbook.org/uri/2009/osb" xmlns:xlink="http://www.w3.org/1999/xlink" fill="none" viewBox="0 0 348 348"><defs><linearGradient id="a" osb:paint="solid"><stop offset="0"/></linearGradient><linearGradient id="b" x1="13.359" x2="265.387" y1="180.493" y2="180.493" gradientTransform="matrix(.91988 0 0 1.00075 11.158 1.645)" gradientUnits="userSpaceOnUse" xlink:href="#a"/></defs><path stroke="#000" stroke-width="2" d="M5.079 5.776h336.913v337.67H5.08z"/><path stroke="#000" stroke-width="2" d="M282.734 40.554c0-8.376 6.966-15.165 15.56-15.165 4.126 0 8.084 1.597 11.001 4.441 2.918 2.844 4.558 6.702 4.558 10.724 0 8.376-6.966 15.165-15.56 15.165-8.593 0-15.559-6.79-15.559-15.165z"/><path d="M22.075 38.955h240.657v228.97H22.075z"/><path d="M16.448 39.821h250.179V286.97H16.448z"/><rect width="252.776" height="251.478" x="13.851" y="35.493" ry="0"/><path d="M16.448 39.821h95.224v62.328H16.448z"/><path fill="#f9f9f9" stroke="url(#b)" stroke-width="1.919" d="M23.899 65.32h230.93v233.908H23.899z"/><path stroke="#000" stroke-width=".958" d="M70.764 66.072v232.132z"/><path stroke="#000" stroke-width=".961" d="M116.663 65.796V299.11z"/><path stroke="#000" stroke-width=".957" d="M162.781 65.57v232.448z"/><path stroke="#000" stroke-width=".962" d="M208.684 64.567v234.529z"/><path stroke="#000" stroke-width=".928" d="M24.59 112.731h230.27zM23.7 159.58h230.762zM24.086 206.39h230.376zM23.7 253.27h230.762z"/><path fill="#f9f9f9" stroke="#000" stroke-width="2" d="M270.558 132.533h54.479v25.097h-54.479zM270.252 175.382h54.479v25.097h-54.479z"/><ellipse cx="298.44" cy="235.03" fill="#f9f9f9" stroke="#000" stroke-width="2" rx="8.007" ry="7.358"/><path fill="#f9f9f9" stroke="#000" stroke-width="2.444" d="M268.93 266.469h18.601v51.063H268.93zM306.131 266.469h18.601v51.063h-18.601z"/><path fill="#f9f9f9" stroke="#000" stroke-width="2.444" d="M287.531 266.469h18.601v51.063h-18.601z"/><path fill="#f9f9f9" stroke="#000" stroke-width="2.025" d="M23.819 51.304h46.507v9.93H23.819z"/><path fill="#f9f9f9" stroke="#000" stroke-width="2.025" d="M70.325 51.304h46.507v9.93H70.325zM209.845 51.304h46.507v9.93h-46.507z"/><path fill="#f9f9f9" stroke="#000" stroke-width="2.025" d="M163.339 51.304h46.507v9.93h-46.507zM116.832 51.304h46.507v9.93h-46.507z"/></svg>