<svg xmlns="http://www.w3.org/2000/svg" viewBox="0 0 600 600"><g fill="none" stroke="#000" stroke-width="5.5"><path d="M5 5h590v590H5Z"/><path d="M566 57a23 23 0 0 1-23 23 23 23 0 0 1-23-23 23 23 0 0 1 23-24 23 23 0 0 1 23 24Z"/></g><path d="M216 216h170v170H216Z"/><path id="a" d="m301 48 85 136H216Z"/><use href="#a" transform="rotate(90 301 301)"/><use href="#a" transform="rotate(180 301 301)"/><use href="#a" transform="rotate(-90 301 301)"/><path fill="#333" d="m260 324-42-18v-5l42-19v7l-33 14 33 15zm63-31h-12l-3 14h11v5h-12l-4 15h-5l4-15h-10l-4 15h-4l3-15h-10v-5h12l3-14h-11v-5h12l4-15h5l-4 15h10l4-15h4l-3 15h10zm-16 0h-10l-4 14h10zm75 13-42 18v-6l33-15-33-14v-7l42 19z"/></svg>