<svg xmlns="http://www.w3.org/2000/svg" width="600" height="600"><path fill="none" stroke="#000" stroke-width="5.429" d="M5.267 5.276h589.689v589.68H5.267z"/><ellipse cx="556.78" cy="47.017" rx="22.881" ry="23.473" fill="none" stroke="#000" stroke-width="5.571"/><path stroke="#000" stroke-width=".944" stroke-linejoin="round" stroke-miterlimit="10" d="M141.284 242.638l77.738 77.883-77.882 77.739L63.4 320.377zM246.156 346.24l77.74 77.883-77.884 77.739-77.738-77.883zM348.937 242.002l77.739 77.883-77.883 77.739-77.739-77.883zM448.869 346.612l77.738 77.883-77.882 77.739-77.739-77.883z"/><path transform="matrix(.72066 .69328 -.72195 .69195 0 0)" fill="#fff" stroke="#000" stroke-width=".76" stroke-linejoin="round" stroke-miterlimit="10" d="M284.631 88.445h88.614v88.62h-88.614zM432.369 91.689h88.614v88.62h-88.614zM429.239-55.818h88.614v88.62h-88.614zM572.302-50.35h88.614v88.62h-88.614z"/><path d="M139.513 345.282q-3.03 0-5.586-.356-2.558-.355-4.683-.89-2.085-.533-3.737-1.173-1.613-.64-2.833-1.21l1.652-7.33h1.417q.63.427 1.731 1.068 1.102.676 2.44 1.387 1.337.712 2.872 1.424 1.534.711 3.03 1.28 1.494.57 2.871.926 1.377.355 2.44.355 2.518 0 4.328-.64 1.81-.64 2.95-1.921 1.141-1.281 1.692-3.203.551-1.886.551-4.447 0-2.029-.669-3.737-.63-1.743-2.046-3.024-1.416-1.28-3.698-1.993-2.243-.711-5.47-.711h-4.996v-5.053h4.013q5.233 0 8.105-2.241 2.873-2.278 2.873-7.152 0-1.673-.315-3.06-.315-1.424-1.063-2.42-.708-1.032-1.888-1.601-1.18-.57-2.912-.57-1.613 0-3.58.748-1.967.712-3.934 1.743-1.928 1.032-3.66 2.135-1.691 1.068-2.793 1.78h-1.416l-1.653-7.33q.905-.392 2.4-.997 1.495-.605 3.502-1.174 2.006-.605 4.446-.996 2.478-.427 5.311-.427 3.895 0 7.358.747 3.462.712 6.059 2.135 2.597 1.423 4.092 3.487 1.534 2.064 1.534 4.732 0 1.673-.669 3.523-.63 1.815-2.282 3.522-1.613 1.708-4.446 3.203-2.832 1.459-7.2 2.42 2.243.106 4.328.497 2.125.356 3.935 1.032 1.849.676 3.344 1.673 1.495.996 2.557 2.348 1.102 1.317 1.692 2.989.59 1.672.59 3.7 0 2.206-.826 4.163-.826 1.957-2.321 3.594-1.495 1.672-3.58 2.953-2.086 1.317-4.604 2.206-2.479.926-5.35 1.388-2.873.498-5.903.498z" aria-label="3" style="stroke-width:2.10464311" font-weight="700" font-size="84.186" font-family="Sitka Banner" letter-spacing="0" word-spacing="0" stroke-width="2.105"/><path d="M227.731 439.522q5.823-4.93 9.994-8.604 4.21-3.72 6.885-6.79 2.715-3.116 3.974-6 1.259-2.93 1.259-6.279 0-1.72-.354-3.302-.315-1.581-1.023-2.79-.708-1.21-1.77-1.954-1.024-.744-2.44-.744-1.298 0-2.597.372-1.259.372-2.478 1.07-1.22.651-2.44 1.535-1.18.884-2.36 1.907-1.141 1.023-2.282 2.14-1.102 1.115-2.164 2.185h-1.417l-1.652-9.302q1.062-.697 2.793-1.674 1.731-1.023 3.935-1.907 2.242-.93 4.878-1.581 2.636-.651 5.548-.651 3.266 0 6.374.79 3.147.744 5.547 2.372 2.44 1.628 3.896 4.186 1.495 2.512 1.495 6 0 3.07-.708 5.58-.709 2.512-2.125 4.652-1.377 2.139-3.423 4-2.046 1.813-4.721 3.58-2.637 1.768-5.902 3.535-3.266 1.767-7.082 3.767l5.783-.093h14.519q1.337 0 1.967-.79.669-.791.984-1.768l1.613-5.023h2.675l-1.023 17.906h-36.158z" aria-label="2" style="stroke-width:2.40620685" font-weight="700" font-size="96.248" font-family="Sitka Banner" letter-spacing="0" word-spacing="0" stroke-width="2.406"/><path d="M337.625 341.318l6.688-1.778q.827-.24 1.26-.96.432-.722.432-1.779v-26.52l.079-6.486-9.915 2.787v-2.835l14.44-8.6h6.491q-.078 1.538-.157 3.507-.04 1.922-.079 3.988l-.078 4.132V336.8q0 1.105.432 1.826.473.673 1.26.913l6.216 1.778v2.834h-27.07z" aria-label="1" style="stroke-width:2.44560552" font-weight="700" font-size="97.824" font-family="Sitka Banner" letter-spacing="0" word-spacing="0" stroke-width="2.446"/></svg>