<svg xmlns="http://www.w3.org/2000/svg" fill="none" viewBox="0 0 348 348">
  <path stroke="#000" stroke-width="2" d="M5.08 5.78h336.91v337.67H5.08z"/>
  <path stroke="#000" stroke-width="2" d="M282.73 40.55c0-8.37 6.97-15.16 15.56-15.16 4.13 0 8.09 1.6 11 4.44a14.97 14.97 0 0 1 4.56 10.72c0 8.38-6.96 15.17-15.56 15.17-8.59 0-15.56-6.8-15.56-15.17z"/>
  <path stroke="#000" d="M32.9 119.9h32.85v32.85H32.9zm62.1 0h32.85v32.85H95.01zm62.11 0h32.85v32.85H157.1zm62.1 0h32.85v32.85h-32.84zm62.11 0h32.85v32.85h-32.85zM32.9 175.6h32.85v32.85H32.9zm62.1 0h32.85v32.85H95.01zm62.11 0h32.85v32.85H157.1zm62.1 0h32.85v32.85h-32.84zm62.11 0h32.85v32.85h-32.85zM32.9 231.3h32.85v32.85H32.9zm62.1 0h32.85v32.85H95.01zm62.11 0h32.85v32.85H157.1zm62.1 0h32.85v32.85h-32.84zm62.11 0h32.85v32.85h-32.85zM95.01 287h32.84v32.84H95.01zm124.2 0h32.85v32.84h-32.84z"/>
  <path fill="#000" d="M42.23 36.24h182.99v59.43h-183z"/>
  <path fill="#000" d="M243.66 313.12h-3.34l-6.49-7.71h-3.63v7.7h-2.58v-19.38h5.43q1.76 0 2.93.23 1.17.22 2.1.8 1.06.67 1.65 1.69.6 1 .6 2.55 0 2.1-1.06 3.52-1.05 1.4-2.9 2.12zm-6.03-13.94q0-.83-.3-1.47-.28-.65-.96-1.1-.56-.37-1.33-.51-.77-.16-1.8-.16h-3.04v7.32h2.6q1.23 0 2.14-.21.9-.22 1.55-.8.58-.56.86-1.26.28-.71.28-1.8z"/>
  <path fill="#000" d="M118.9 307.58q0 1.13-.53 2.24-.52 1.1-1.47 1.88-1.04.83-2.44 1.3-1.37.47-3.33.47-2.1 0-3.77-.4-1.67-.38-3.4-1.15v-3.23h.18q1.47 1.22 3.4 1.89 1.92.66 3.62.66 2.4 0 3.72-.9 1.34-.9 1.34-2.4 0-1.28-.64-1.9-.62-.6-1.91-.95-.98-.26-2.12-.43-1.13-.17-2.41-.43-2.58-.54-3.83-1.86-1.24-1.33-1.24-3.45 0-2.43 2.06-3.98 2.06-1.57 5.22-1.57 2.05 0 3.75.4 1.7.39 3.02.96v3.05h-.18q-1.1-.94-2.92-1.55-1.8-.63-3.68-.63-2.07 0-3.33.86-1.25.86-1.25 2.21 0 1.21.62 1.9t2.2 1.06q.83.18 2.37.44t2.6.54q2.17.57 3.26 1.73 1.1 1.16 1.1 3.24z"/>
  <path fill="#FFF" d="m72.4 74.44-15.03-6.68v-1.61l15.03-6.68v2.34l-11.85 5.15L72.4 72.1zm20.88 1H90.1L80.9 58.1v17.35h-2.41v-19.4h4l8.38 15.84V56.06h2.41zm19.75-7.78q0 2.11-.46 3.69-.46 1.56-1.51 2.6-1 .99-2.35 1.44-1.34.46-3.12.46-1.83 0-3.18-.48t-2.28-1.42q-1.05-1.07-1.52-2.58-.46-1.5-.46-3.71v-11.6h2.58v11.73q0 1.58.2 2.49.23.9.74 1.65.57.85 1.55 1.28.99.43 2.37.43 1.39 0 2.37-.42.97-.43 1.56-1.29.5-.74.71-1.7.23-.96.23-2.38v-11.8h2.57zm22.2 7.79h-2.57v-16.7l-5.4 11.36h-1.53l-5.35-11.37v16.7h-2.41V56.07h3.51l5.17 10.8 5-10.8h3.58zm19.86-5.97q0 1.45-.55 2.56-.54 1.1-1.47 1.82-1.1.86-2.4 1.22-1.3.37-3.33.37h-6.87v-19.4h5.74q2.12 0 3.18.17 1.05.15 2.02.64 1.06.56 1.55 1.45.48.87.48 2.1 0 1.38-.7 2.35-.7.97-1.88 1.55v.1q1.97.41 3.1 1.74 1.13 1.31 1.13 3.33zm-4.33-8.73q0-.7-.24-1.19-.23-.48-.75-.78-.62-.35-1.49-.43-.87-.1-2.16-.1h-3.07v5.6h3.33q1.21 0 1.93-.1.71-.14 1.33-.53.6-.39.85-1 .26-.63.26-1.47zm1.65 8.84q0-1.18-.35-1.87-.35-.68-1.28-1.17-.62-.32-1.52-.41-.89-.1-2.16-.1h-4.05v7.2h3.4q1.7 0 2.78-.16 1.08-.19 1.77-.65.73-.51 1.07-1.16.34-.65.34-1.68zm19.11 5.86h-12.77v-19.4h12.77v2.3h-10.2v5.31h10.2v2.3h-10.2v7.2h10.2zm20.15 0h-3.35l-6.48-7.71h-3.64v7.7h-2.58V56.07h5.43q1.76 0 2.93.23 1.18.22 2.11.81 1.06.66 1.64 1.68.6 1 .6 2.55 0 2.1-1.05 3.52-1.06 1.4-2.9 2.12zm-6.03-13.94q0-.83-.3-1.47-.29-.65-.97-1.1-.56-.37-1.32-.51-.77-.16-1.81-.16h-3.04v7.32h2.6q1.23 0 2.14-.2.91-.23 1.55-.82.59-.54.86-1.25.29-.71.29-1.8zm24.44 6.25-15.03 6.68V72.1l11.85-5.14-11.85-5.15v-2.34l15.03 6.68z"/>
</svg>