<svg xmlns="http://www.w3.org/2000/svg" fill="none" stroke-linecap="square" stroke-miterlimit="10" viewBox="0 0 348 348"><path stroke="#000" stroke-linecap="butt" stroke-linejoin="round" stroke-width="2" d="M5.5 5.2h337v337.6H5.5z"/><path fill="#000" d="M134.3 15h74.3v57h-74.3z"/><path fill="#fff" d="M155 43.5c0-2.7.3-5 .8-6.6a8.7 8.7 0 0 1 2.5-3.8 6.4 6.4 0 0 1 4.2-1.3c1.2 0 2.3.2 3.2.7 1 .5 1.7 1.2 2.3 2.2.6.9 1 2 1.4 3.4.4 1.3.5 3.1.5 5.4a21 21 0 0 1-.8 6.5c-.5 1.6-1.4 3-2.5 3.8-1 1-2.5 1.4-4.1 1.4-2.2 0-4-.8-5.2-2.4-1.5-2-2.3-5-2.3-9.3zm2.9 0c0 3.7.4 6.2 1.3 7.5.9 1.2 2 1.9 3.3 1.9 1.3 0 2.3-.7 3.2-2 1-1.2 1.4-3.7 1.4-7.4 0-3.8-.5-6.3-1.4-7.5-.9-1.3-2-1.9-3.3-1.9-1.3 0-2.3.5-3 1.6-1 1.4-1.5 4-1.5 7.8zm14.9 0c0-2.7.3-5 .8-6.6a8.7 8.7 0 0 1 2.5-3.8 6.4 6.4 0 0 1 4.2-1.3c1.2 0 2.3.2 3.2.7 1 .5 1.7 1.2 2.3 2.2.6.9 1 2 1.4 3.4.4 1.3.5 3.1.5 5.4 0 2.7-.2 4.8-.8 6.5-.5 1.6-1.4 3-2.5 3.8-1 1-2.5 1.4-4.1 1.4-2.2 0-4-.8-5.2-2.4-1.5-2-2.3-5-2.3-9.3zm2.9 0c0 3.7.4 6.2 1.3 7.5.9 1.2 2 1.9 3.3 1.9 1.3 0 2.3-.7 3.2-2 .9-1.2 1.3-3.7 1.3-7.4 0-3.8-.4-6.3-1.3-7.5-.9-1.3-2-1.9-3.3-1.9-1.3 0-2.3.5-3 1.6-1 1.4-1.5 4-1.5 7.8z"/><path stroke="#000" stroke-linecap="butt" stroke-linejoin="round" stroke-width="2" d="M15.7 17h110v55h-110z"/><path d="M15.7 72l39.7-54"/><path stroke="#000" stroke-linecap="butt" stroke-linejoin="round" stroke-width="2" d="M15.7 72l39.7-54"/><path d="M38 72l39.7-54"/><path stroke="#000" stroke-linecap="butt" stroke-linejoin="round" stroke-width="2" d="M38 72l39.7-54"/><path d="M60.3 72L100 18"/><path stroke="#000" stroke-linecap="butt" stroke-linejoin="round" stroke-width="2" d="M60.3 72L100 18"/><path d="M82.6 72l39.7-54"/><path stroke="#000" stroke-linecap="butt" stroke-linejoin="round" stroke-width="2" d="M82.6 72l39.7-54m95-2h110v55h-110z"/><path d="M217.3 71L257 16.9"/><path stroke="#000" stroke-linecap="butt" stroke-linejoin="round" stroke-width="2" d="M217.3 71L257 16.9"/><path d="M239.6 71l39.7-54.1"/><path stroke="#000" stroke-linecap="butt" stroke-linejoin="round" stroke-width="2" d="M239.6 71l39.7-54.1"/><path d="M262 71l39.6-54.1"/><path stroke="#000" stroke-linecap="butt" stroke-linejoin="round" stroke-width="2" d="M262 71l39.6-54.1"/><path d="M284.2 71L324 16.9"/><path stroke="#000" stroke-linecap="butt" stroke-linejoin="round" stroke-width="2" d="M284.2 71L324 16.9"/><path stroke="#fff" stroke-width="3" d="M242.5 230.5h30m15 0h30"/><path fill="#fff" stroke="#000" stroke-width="1.687" stroke-miterlimit="4" d="M125.487 85.087h92.069v48.798h-92.069z"/><g style="line-height:1.25;-inkscape-font-specification:Alsina"><path d="M169.453 124.187q-1.36-.16-3.08-.8-1.68-.64-2.64-2.44-.68-2.2-.68-3.36.04-1.2.04-3.52 1.68-.32 2.08-.2.44.08 1.24.08.24 3.08.96 5 .72 1.88 4.24.56 1.16-2.12 1.36-6.24.2-4.12-1.4-6.16-2.28-.36-3.36.08-1.04.4-1.52 2.48-.84-.24-1.76-.04-.88.2-1.72-.04.2-3.92.52-7.8t.88-7.76q2.76-.56 5.96-.64 3.24-.12 6.04.48v1.68q0 .68.04 1.64-1.68-.2-4.16-.28-2.44-.12-4.32.16-.4 2.16-.72 3.76-.28 1.6-.4 3.64 2.68-1.92 4.48-1.72 1.8.16 2.88 1.6 1.08 1.4 1.56 3.64t.52 4.36q-.24 1.84-.32 3.68-.08 1.8-.6 3.6-.44 1.92-2.08 3.36-1.64 1.4-4.04 1.2z" aria-label="5" font-weight="400" font-size="40" font-family="Alsina" letter-spacing="0" word-spacing="0" fill="#000"/></g><path fill="#fff" stroke="#000" stroke-width="1.977" stroke-miterlimit="4" d="M18.757 146.751h307.615v181.45H18.757z"/><path fill="#fff" stroke="#000" stroke-width="1.313" stroke-miterlimit="4" d="M35.629 221.492h22.584v22.584H35.629z"/><path fill="#fff" stroke="#000" stroke-width="2.564" stroke-miterlimit="4" d="M278.574 190.759h22.584v86.134h-22.584z"/><path fill="#fff" stroke="#000" stroke-width="2.224" stroke-miterlimit="4" d="M84.635 200.384h22.584v64.8H84.635z"/><path fill="#fff" stroke="#000" stroke-width="1.843" stroke-miterlimit="4" d="M134.162 211.052h22.584v44.506h-22.584z"/><path fill="#fff" stroke="#000" stroke-width="2.577" stroke-miterlimit="4" d="M186.818 190.318h22.584v87.016h-22.584z"/><path fill="#fff" stroke="#000" stroke-width="1.313" stroke-miterlimit="4" d="M235.303 222.534h22.584v22.584h-22.584z"/><g style="line-height:1.25;-inkscape-font-specification:Alsina"><path d="M46.445 239.25q.017-2.305.052-4.836.052-2.548-.087-4.853l-1.057-.035-1.04-.069q0-.693.052-1.404.901 0 1.594-.33.711-.329.832-1.42.382.034.607.069.225.017.641.034-.121 2.912-.104 6.084.035 3.172-.069 7.02-.572.052-.745-.052-.156-.104-.676-.208z" aria-label="1" font-weight="400" font-size="17.333" font-family="Alsina" letter-spacing="0" word-spacing="0" fill="#000"/></g><g style="line-height:1.25;-inkscape-font-specification:Alsina"><path d="M96.301 239.58q-1.23-.295-1.785-1.352-.537-1.058-.468-2.704.503-.052.78-.035.277.017.572 0 .052.572.121 1.023.087.433.4.953.26.433.762.607.502.173 1.178-.295.312-.884.364-2.097.07-1.214-.64-1.942h-1.596v-.78-.814l.624-.07q.312-.034.642-.086 1.057-.798.936-2.098-.122-1.317-.486-1.924-.606-.502-1.612.052-.329.382-.468 1.092-.138.694-.277 1.352-.347-.034-.693-.052-.347-.017-.694-.052.122-1.005.295-1.854.19-.85.659-1.751.988-.693 2.41-.485 1.438.19 1.854 1.092.554 1.005.398 2.842-.156 1.82-1.3 2.6 1.456.746 1.474 2.306.034 1.542-.26 3.085-.676 1.057-1.422 1.196-.745.139-1.768.19z" aria-label="3" font-weight="400" font-size="17.333" font-family="Alsina" letter-spacing="0" word-spacing="0" fill="#000"/></g><g style="line-height:1.25;-inkscape-font-specification:Alsina"><path d="M142.289 239.354q-.035-.398-.052-.797-.017-.399-.017-.797.138-.243.554-.902.416-.658.902-1.421.502-.78.97-1.543.468-.762.71-1.23.486-.884.78-2.479.296-1.612-.987-2.167-1.213 0-1.23 1.214-.018 1.213.017 2.062-.763.035-1.474.104 0-1.23.035-2.652.052-1.421 1.196-2.253 1.335-.485 2.201-.104.867.364 1.543 1.577.208 1.318.243 2.219.034.901-.364 2.15-.122.242-.607 1.091-.485.85-1.005 1.768-.52.919-.936 1.664-.416.746-.4.798l1.769.069 1.768.035q-.052.416-.07.832l-.034.814q-1.387.052-2.773.018l-2.74-.07z" aria-label="2" font-weight="400" font-size="17.333" font-family="Alsina" letter-spacing="0" word-spacing="0" fill="#000"/></g><g style="line-height:1.25;-inkscape-font-specification:Alsina"><path d="M198.794 239.614q-.07-.71-.035-1.386.052-.694 0-1.422-.797.018-1.699.018-.884-.018-1.664-.018-.26-.242-.225-.953.035-.71.052-1.092.624-1.75 1.439-4.195.814-2.444 1.49-4.194.52.052 1.092 0 .572-.052 1.11 0 .017 1.976.017 4.108 0 2.132-.035 4.437.295.017.642.07.364.051.676.069 0 .468.017.936t.052.936q-.277.052-.607 0-.33-.052-.59 0-.051.572-.034 1.248.035.676.017 1.248l-.866.104q-.434.052-.85.086zm-1.872-4.662q.364-.018.884-.035.52-.035.884-.07 0-1.109.104-2.877.121-1.768.156-2.894-.208.346-.555 1.23-.33.884-.659 1.855-.312.953-.554 1.768-.243.815-.26 1.023z" aria-label="4" font-weight="400" font-size="17.333" font-family="Alsina" letter-spacing="0" word-spacing="0" fill="#000"/></g><g style="line-height:1.25;-inkscape-font-specification:Alsina"><path d="M247.161 240.293q.017-2.305.052-4.836.052-2.548-.087-4.853l-1.057-.035-1.04-.07q0-.693.052-1.403.901 0 1.595-.33.71-.329.832-1.421.381.035.606.07.226.017.642.034-.122 2.912-.104 6.084.034 3.172-.07 7.02-.572.052-.745-.052-.156-.104-.676-.208z" aria-label="1" font-weight="400" font-size="17.333" font-family="Alsina" letter-spacing="0" word-spacing="0" fill="#000"/></g><g style="line-height:1.25;-inkscape-font-specification:Alsina"><path d="M290.028 241.178q-.069-.71-.034-1.386.052-.694 0-1.422-.798.018-1.699.018-.884-.018-1.664-.018-.26-.242-.225-.953l.052-1.092q.624-1.75 1.438-4.195.815-2.444 1.491-4.194.52.052 1.092 0 .572-.052 1.11 0 .017 1.976.017 4.108 0 2.132-.035 4.437.295.017.641.07.364.051.676.069 0 .468.018.936.017.468.052.936-.278.052-.607 0-.33-.052-.59 0-.051.572-.034 1.248.035.676.017 1.248l-.866.104q-.434.052-.85.086zm-1.872-4.662q.364-.018.884-.035.52-.035.884-.07 0-1.109.104-2.877.122-1.768.156-2.894-.208.346-.554 1.23-.33.884-.659 1.855-.312.953-.555 1.768-.242.815-.26 1.023z" aria-label="4" font-weight="400" font-size="17.333" font-family="Alsina" letter-spacing="0" word-spacing="0" fill="#000"/></g></svg>