<?xml version="1.0" encoding="UTF-8" standalone="no"?>
<svg
   xmlns:dc="http://purl.org/dc/elements/1.1/"
   xmlns:cc="http://creativecommons.org/ns#"
   xmlns:rdf="http://www.w3.org/1999/02/22-rdf-syntax-ns#"
   xmlns:svg="http://www.w3.org/2000/svg"
   xmlns="http://www.w3.org/2000/svg"
   xmlns:sodipodi="http://sodipodi.sourceforge.net/DTD/sodipodi-0.dtd"
   xmlns:inkscape="http://www.inkscape.org/namespaces/inkscape"
   fill="none"
   stroke-linecap="square"
   stroke-miterlimit="10"
   viewBox="0 0 348 348"
   version="1.1"
   id="svg4085"
   sodipodi:docname="Block Stacks.svg"
   inkscape:version="0.92.4 (5da689c313, 2019-01-14)">
  <metadata
     id="metadata4091">
    <rdf:RDF>
      <cc:Work
         rdf:about="">
        <dc:format>image/svg+xml</dc:format>
        <dc:type
           rdf:resource="http://purl.org/dc/dcmitype/StillImage" />
        <dc:title></dc:title>
      </cc:Work>
    </rdf:RDF>
  </metadata>
  <defs
     id="defs4089" />
  <sodipodi:namedview
     pagecolor="#ffffff"
     bordercolor="#666666"
     borderopacity="1"
     objecttolerance="10"
     gridtolerance="10"
     guidetolerance="10"
     inkscape:pageopacity="0"
     inkscape:pageshadow="2"
     inkscape:window-width="1280"
     inkscape:window-height="961"
     id="namedview4087"
     showgrid="false"
     inkscape:zoom="1.9181287"
     inkscape:cx="171.93942"
     inkscape:cy="165.35955"
     inkscape:window-x="-8"
     inkscape:window-y="-8"
     inkscape:window-maximized="1"
     inkscape:current-layer="svg4085" />
  <path
     stroke="#000"
     stroke-linecap="butt"
     stroke-linejoin="round"
     stroke-width="2"
     d="M5.5 5.2h337v337.6H5.5z"
     id="path4037" />
  <path
     fill="#000"
     d="M134.3 15h74.3v57h-74.3z"
     id="path4039" />
  <path
     fill="#fff"
     d="M155 43.5c0-2.7.3-5 .8-6.6a8.7 8.7 0 0 1 2.5-3.8 6.4 6.4 0 0 1 4.2-1.3c1.2 0 2.3.2 3.2.7 1 .5 1.7 1.2 2.3 2.2.6.9 1 2 1.4 3.4.4 1.3.5 3.1.5 5.4a21 21 0 0 1-.8 6.5c-.5 1.6-1.4 3-2.5 3.8-1 1-2.5 1.4-4.1 1.4-2.2 0-4-.8-5.2-2.4-1.5-2-2.3-5-2.3-9.3zm2.9 0c0 3.7.4 6.2 1.3 7.5.9 1.2 2 1.9 3.3 1.9 1.3 0 2.3-.7 3.2-2 1-1.2 1.4-3.7 1.4-7.4 0-3.8-.5-6.3-1.4-7.5-.9-1.3-2-1.9-3.3-1.9-1.3 0-2.3.5-3 1.6-1 1.4-1.5 4-1.5 7.8zm14.9 0c0-2.7.3-5 .8-6.6a8.7 8.7 0 0 1 2.5-3.8 6.4 6.4 0 0 1 4.2-1.3c1.2 0 2.3.2 3.2.7 1 .5 1.7 1.2 2.3 2.2.6.9 1 2 1.4 3.4.4 1.3.5 3.1.5 5.4 0 2.7-.2 4.8-.8 6.5-.5 1.6-1.4 3-2.5 3.8-1 1-2.5 1.4-4.1 1.4-2.2 0-4-.8-5.2-2.4-1.5-2-2.3-5-2.3-9.3zm2.9 0c0 3.7.4 6.2 1.3 7.5.9 1.2 2 1.9 3.3 1.9 1.3 0 2.3-.7 3.2-2 .9-1.2 1.3-3.7 1.3-7.4 0-3.8-.4-6.3-1.3-7.5-.9-1.3-2-1.9-3.3-1.9-1.3 0-2.3.5-3 1.6-1 1.4-1.5 4-1.5 7.8z"
     id="path4041" />
  <path
     stroke="#000"
     stroke-linecap="butt"
     stroke-linejoin="round"
     stroke-width="2"
     d="M15.7 17h110v55h-110z"
     id="path4043" />
  <path
     d="M15.7 72l39.7-54"
     id="path4045" />
  <path
     stroke="#000"
     stroke-linecap="butt"
     stroke-linejoin="round"
     stroke-width="2"
     d="M15.7 72l39.7-54"
     id="path4047" />
  <path
     d="M38 72l39.7-54"
     id="path4049" />
  <path
     stroke="#000"
     stroke-linecap="butt"
     stroke-linejoin="round"
     stroke-width="2"
     d="M38 72l39.7-54"
     id="path4051" />
  <path
     d="M60.3 72L100 18"
     id="path4053" />
  <path
     stroke="#000"
     stroke-linecap="butt"
     stroke-linejoin="round"
     stroke-width="2"
     d="M60.3 72L100 18"
     id="path4055" />
  <path
     d="M82.6 72l39.7-54"
     id="path4057" />
  <path
     stroke="#000"
     stroke-linecap="butt"
     stroke-linejoin="round"
     stroke-width="2"
     d="M82.6 72l39.7-54m95-2h110v55h-110z"
     id="path4059" />
  <path
     d="M217.3 71L257 16.9"
     id="path4061" />
  <path
     stroke="#000"
     stroke-linecap="butt"
     stroke-linejoin="round"
     stroke-width="2"
     d="M217.3 71L257 16.9"
     id="path4063" />
  <path
     d="M239.6 71l39.7-54.1"
     id="path4065" />
  <path
     stroke="#000"
     stroke-linecap="butt"
     stroke-linejoin="round"
     stroke-width="2"
     d="M239.6 71l39.7-54.1"
     id="path4067" />
  <path
     d="M262 71l39.6-54.1"
     id="path4069" />
  <path
     stroke="#000"
     stroke-linecap="butt"
     stroke-linejoin="round"
     stroke-width="2"
     d="M262 71l39.6-54.1"
     id="path4071" />
  <path
     d="M284.2 71L324 16.9"
     id="path4073" />
  <path
     stroke="#000"
     stroke-linecap="butt"
     stroke-linejoin="round"
     stroke-width="2"
     d="M284.2 71L324 16.9"
     id="path4075" />
  <path
     stroke="#fff"
     stroke-width="3"
     d="M242.5 230.5h30m15 0h30"
     id="path4077" />
  <rect
     style="opacity:1;fill:#ffffff;fill-opacity:1;stroke:#000000;stroke-width:1.68702352;stroke-miterlimit:4;stroke-dasharray:none;stroke-opacity:1"
     id="rect3738"
     width="92.069069"
     height="48.797729"
     x="125.4868"
     y="85.087425" />
  <text
     xml:space="preserve"
     style="font-style:normal;font-variant:normal;font-weight:normal;font-stretch:normal;font-size:40px;line-height:1.25;font-family:Alsina;-inkscape-font-specification:Alsina;letter-spacing:0px;word-spacing:0px;fill:#000000;fill-opacity:1;stroke:none"
     x="160.57317"
     y="125.38721"
     id="text3744"><tspan
       sodipodi:role="line"
       id="tspan3742"
       x="160.57317"
       y="125.38721">5</tspan></text>
  <rect
     style="opacity:1;fill:#ffffff;fill-opacity:1;stroke:#000000;stroke-width:1.97688544;stroke-miterlimit:4;stroke-dasharray:none;stroke-opacity:1"
     id="rect3746"
     width="307.61456"
     height="181.44994"
     x="18.756735"
     y="146.75066" />
  <rect
     style="opacity:1;fill:#ffffff;fill-opacity:1;stroke:#000000;stroke-width:1.31267798;stroke-miterlimit:4;stroke-dasharray:none;stroke-opacity:1"
     id="rect3748"
     width="22.583662"
     height="22.583662"
     x="35.628899"
     y="221.4917" />
  <rect
     style="opacity:1;fill:#ffffff;fill-opacity:1;stroke:#000000;stroke-width:2.56359339;stroke-miterlimit:4;stroke-dasharray:none;stroke-opacity:1"
     id="rect3748-7"
     width="22.583662"
     height="86.134323"
     x="278.57401"
     y="190.75906" />
  <rect
     style="opacity:1;fill:#ffffff;fill-opacity:1;stroke:#000000;stroke-width:2.2235589;stroke-miterlimit:4;stroke-dasharray:none;stroke-opacity:1"
     id="rect3748-8"
     width="22.583662"
     height="64.800034"
     x="84.634987"
     y="200.38351" />
  <rect
     style="opacity:1;fill:#ffffff;fill-opacity:1;stroke:#000000;stroke-width:1.84275973;stroke-miterlimit:4;stroke-dasharray:none;stroke-opacity:1"
     id="rect3748-2"
     width="22.583662"
     height="44.505676"
     x="134.16243"
     y="211.05205" />
  <rect
     style="opacity:1;fill:#ffffff;fill-opacity:1;stroke:#000000;stroke-width:2.57668281;stroke-miterlimit:4;stroke-dasharray:none;stroke-opacity:1"
     id="rect3748-86"
     width="22.583662"
     height="87.016151"
     x="186.81793"
     y="190.31815" />
  <rect
     style="opacity:1;fill:#ffffff;fill-opacity:1;stroke:#000000;stroke-width:1.31267798;stroke-miterlimit:4;stroke-dasharray:none;stroke-opacity:1"
     id="rect3748-4"
     width="22.583662"
     height="22.583662"
     x="235.30267"
     y="222.53439" />
  <text
     xml:space="preserve"
     style="font-style:normal;font-variant:normal;font-weight:normal;font-stretch:normal;font-size:17.33333397px;line-height:1.25;font-family:Alsina;-inkscape-font-specification:Alsina;letter-spacing:0px;word-spacing:0px;fill:#000000;fill-opacity:1;stroke:none"
     x="43.792683"
     y="240.08232"
     id="text3791"><tspan
       sodipodi:role="line"
       id="tspan3789"
       x="43.792683"
       y="240.08232">1</tspan></text>
  <text
     xml:space="preserve"
     style="font-style:normal;font-variant:normal;font-weight:normal;font-stretch:normal;font-size:17.33333397px;line-height:1.25;font-family:Alsina;-inkscape-font-specification:Alsina;letter-spacing:0px;word-spacing:0px;fill:#000000;fill-opacity:1;stroke:none"
     x="93.320122"
     y="240.08232"
     id="text3813"><tspan
       sodipodi:role="line"
       id="tspan3811"
       x="93.320122"
       y="240.08232">3</tspan></text>
  <text
     xml:space="preserve"
     style="font-style:normal;font-variant:normal;font-weight:normal;font-stretch:normal;font-size:17.33333397px;line-height:1.25;font-family:Alsina;-inkscape-font-specification:Alsina;letter-spacing:0px;word-spacing:0px;fill:#000000;fill-opacity:1;stroke:none"
     x="141.28352"
     y="240.08232"
     id="text3817"><tspan
       sodipodi:role="line"
       id="tspan3815"
       x="141.28352"
       y="240.08232">2</tspan></text>
  <text
     xml:space="preserve"
     style="font-style:normal;font-variant:normal;font-weight:normal;font-stretch:normal;font-size:17.33333397px;line-height:1.25;font-family:Alsina;-inkscape-font-specification:Alsina;letter-spacing:0px;word-spacing:0px;fill:#000000;fill-opacity:1;stroke:none"
     x="194.46036"
     y="240.08232"
     id="text3821"><tspan
       sodipodi:role="line"
       id="tspan3819"
       x="194.46036"
       y="240.08232">4</tspan></text>
  <text
     xml:space="preserve"
     style="font-style:normal;font-variant:normal;font-weight:normal;font-stretch:normal;font-size:17.33333397px;line-height:1.25;font-family:Alsina;-inkscape-font-specification:Alsina;letter-spacing:0px;word-spacing:0px;fill:#000000;fill-opacity:1;stroke:none"
     x="244.50914"
     y="241.125"
     id="text3825"><tspan
       sodipodi:role="line"
       id="tspan3823"
       x="244.50914"
       y="241.125">1</tspan></text>
  <text
     xml:space="preserve"
     style="font-style:normal;font-variant:normal;font-weight:normal;font-stretch:normal;font-size:17.33333397px;line-height:1.25;font-family:Alsina;-inkscape-font-specification:Alsina;letter-spacing:0px;word-spacing:0px;fill:#000000;fill-opacity:1;stroke:none"
     x="285.69513"
     y="241.64633"
     id="text3829"><tspan
       sodipodi:role="line"
       id="tspan3827"
       x="285.69513"
       y="241.64633">4</tspan></text>
</svg>
