<svg xmlns="http://www.w3.org/2000/svg" width="600" height="600"><path fill="none" stroke="#000" stroke-width="5.429" d="M5.267 5.276h589.689v589.68H5.267z"/><ellipse cx="556.78" cy="47.017" rx="22.881" ry="23.473" fill="none" stroke="#000" stroke-width="5.571"/><path stroke="#000" stroke-width="5.477" d="M226.185 209.174h162.884v156.119H226.185z"/><path d="M386.44 800.847l-74.01-.49-74.012-.489 37.43-63.851 37.43-63.851 36.581 64.34z" transform="matrix(1.06652 0 0 1.0236 -28.408 -645.086)" fill-opacity=".513" stroke="#000" stroke-width="5.5"/><path d="M386.44 800.847l-74.01-.49-74.012-.489 37.43-63.851 37.43-63.851 36.581 64.34z" transform="matrix(.01486 1.09398 -.99771 .01426 1224.45 -63.798)" fill-opacity=".513" stroke="#000" stroke-width="5.5"/><path d="M386.44 800.847l-74.01-.49-74.012-.489 37.43-63.851 37.43-63.851 36.581 64.34z" transform="matrix(.00243 -1.09409 .9978 .00233 -611.293 629.62)" fill-opacity=".513" stroke="#000" stroke-width="5.5"/><path d="M386.44 800.847l-74.01-.49-74.012-.489 37.43-63.851 37.43-63.851 36.581 64.34z" transform="matrix(-1.06648 .00905 -.00825 -1.02357 645.159 1218.25)" fill-opacity=".513" stroke="#000" stroke-width="5.5"/><g aria-label="&lt;COORD&gt;" style="line-height:1.25;-inkscape-font-specification:serif" font-weight="400" font-size="52.693" font-family="serif" letter-spacing="0" word-spacing="0" fill="#fff" stroke-width="1.317"><path d="M231.745 216.442l26.749 5.801-1.795 1.928-23.04-4.972 6.369 22.873-1.857 1.993-7.437-26.538zM283.248 236.603l-9.018 10.677-.493-.464q3.283-5.515 3.33-9.255.046-3.74-2.518-6.152-2.15-2.023-5.309-2.128-3.139-.127-7.237 2.252-4.082 2.394-8.683 7.334-3.796 4.077-5.642 7.952-1.846 3.875-1.452 7.238.41 3.379 2.83 5.657 2.102 1.978 4.865 2.251 2.785.25 8.178-1.658l.08.908q-5.358 2.481-9.257 2.304-3.898-.177-6.876-2.98-5.366-5.05-3.154-13.361 1.64-6.189 6.84-11.772 4.187-4.497 9.144-6.9 4.956-2.402 9.407-2.08 4.487.316 7.497 3.148 2.34 2.203 3.132 5.941.215 1.117.502 1.387.43.404 1.14.283.971-.208 2.137-1.107zM297.325 249.85q4.203 3.957 3.13 11.302-1.038 7.339-7.227 13.985-6.375 6.846-13.69 8.443-7.314 1.597-11.724-2.554-4.46-4.196-3.395-11.467 1.08-7.257 7.6-14.257 6.664-7.156 14.377-8.379 6.693-1.059 10.929 2.928zm-1.81 1.333q-2.897-2.727-7.434-1.385-5.648 1.669-12.333 8.847-6.85 7.355-8.281 13.449-1.07 4.646 1.78 7.329 3.041 2.862 8.09 1.42 5.064-1.428 11.687-8.54 7.18-7.71 8.527-13.551 1.054-4.661-2.035-7.569zM320.892 272.03q4.204 3.957 3.13 11.302-1.037 7.339-7.227 13.985-6.375 6.846-13.69 8.443-7.314 1.597-11.724-2.554-4.46-4.196-3.395-11.468 1.08-7.256 7.6-14.257 6.665-7.155 14.377-8.378 6.693-1.059 10.929 2.927zm-1.809 1.333q-2.898-2.728-7.435-1.385-5.648 1.669-12.333 8.847-6.85 7.355-8.281 13.449-1.07 4.646 1.78 7.329 3.041 2.862 8.09 1.42 5.064-1.428 11.687-8.54 7.18-7.71 8.527-13.551 1.054-4.662-2.035-7.569zM325.954 334.455l-5.765-5.425 5.772-20.925q-.853-.72-1.363-1.2l-.446-.419q-.218-.247-.452-.509l-8.13 8.729q-2.64 2.836-2.834 3.942-.303 1.544.908 2.683l.844.795-.764.82-9.252-8.708.764-.82.812.765q1.37 1.289 3.114.603.974-.373 3.367-2.942l18.074-19.408q2.64-2.836 2.835-3.942.286-1.56-.94-2.713l-.812-.764.764-.82 7.866 7.403q3.44 3.237 4.403 5.475 1 2.23.378 5.177-.587 2.94-3 5.532-2.58 2.77-5.784 3.579-3.188.824-6.695-.897l-3.567 12.815q-1.236 4.407-1.045 6.416.191 2.009 1.71 3.938zM325 304.58q.302.285.504.517l.367.345q3.089 2.907 6.382 2.515 3.31-.378 5.992-3.258 2.62-2.813 2.977-5.762.392-2.957-1.694-4.92-.923-.87-2.892-1.932zM326.256 334.74l.763-.82.813.764q1.369 1.29 3.077.61 1.031-.401 3.404-2.95l18.074-19.406q2.62-2.814 2.834-3.943.287-1.559-.94-2.713l-.811-.764.763-.82 8.79 8.273q4.84 4.556 5.933 8.452 1.108 3.912-.685 8.917-1.777 5.02-6.13 9.695-5.84 6.27-12.498 7.902-7.447 1.804-13.737-4.116zm8.184 3.628q1.445 2.524 2.815 3.813 3.694 3.476 9.493 2.158 5.8-1.318 11.556-7.5 5.798-6.225 6.704-12.106.906-5.882-2.916-9.48-1.433-1.348-3.863-2.429zM380.462 358.608l-26.749-5.801 1.775-1.906 23.055 4.987L372.158 333l1.878-2.016 7.437 26.538z"/></g></svg>