<svg xmlns="http://www.w3.org/2000/svg" fill="none" viewBox="0 0 348 348"><path stroke="#000" stroke-width="2" d="M5.079 5.776h336.913v337.67H5.08z"/><path d="M136.8 15.7h74.4v56.8h-74.4z" fill="#000"/><path d="M157.5 44c0-2.6.3-4.8.9-6.4.5-1.7 1.4-3 2.5-3.9a6.4 6.4 0 014.1-1.3c1.2 0 2.3.2 3.2.7 1 .5 1.7 1.2 2.3 2.2.6.9 1.1 2 1.5 3.4.3 1.3.5 3.1.5 5.4a21 21 0 01-.9 6.5 7 7 0 01-2.4 3.8 6 6 0 01-4.2 1.4c-2.2 0-4-.8-5.2-2.4-1.5-1.9-2.3-5-2.3-9.3zm3 0c0 3.9.4 6.4 1.2 7.6 1 1.2 2 1.9 3.3 1.9 1.3 0 2.4-.7 3.3-2 .8-1.2 1.3-3.7 1.3-7.4 0-3.8-.5-6.3-1.3-7.5-1-1.3-2-1.9-3.3-1.9-1.3 0-2.3.6-3.1 1.7-1 1.4-1.5 4-1.5 7.7zm14.8 0c0-2.6.3-4.8.9-6.4.5-1.7 1.4-3 2.4-3.9a6.4 6.4 0 014.2-1.3c1.2 0 2.3.2 3.2.7 1 .5 1.7 1.2 2.3 2.2.6.9 1.1 2 1.5 3.4.3 1.3.5 3.1.5 5.4 0 2.7-.3 4.8-.9 6.5a7 7 0 01-2.4 3.8 6 6 0 01-4.2 1.4c-2.2 0-4-.8-5.2-2.4-1.5-1.9-2.3-5-2.3-9.3zm3 0c0 3.9.4 6.4 1.2 7.6 1 1.2 2 1.9 3.3 1.9 1.3 0 2.4-.7 3.3-2 .8-1.2 1.3-3.7 1.3-7.4 0-3.8-.5-6.3-1.3-7.5-1-1.3-2-1.9-3.3-1.9-1.3 0-2.3.6-3.1 1.7-1 1.4-1.5 4-1.5 7.7z" fill="#fff"/><path d="M18.3 17.7h109.9v54.8h-110zM18.3 72.7l39.6-54.1M40.6 72.7l39.7-54.1M62.9 72.7l39.7-54.1M85.2 72.7l39.7-54.1m95-2h109.9v54.9h-110zM219.9 71.6l39.6-54.1M242.2 71.6l39.7-54.1M264.5 71.6l39.7-54.1M286.8 71.6l39.7-54.1" stroke-width="2" stroke-linejoin="round" stroke="#000"/><g style="line-height:.95;-inkscape-font-specification:'FFF Professional Bold, ';text-align:center" aria-label="SORT MODULE NAMES from a to z." font-size="19.94" font-family="FFF Professional Bold" text-anchor="middle" fill="#000" stroke-width=".935"><path d="M44.458 116.873v-2.512h2.492v-5.121h-2.492v-2.493H36.98v-2.356h9.97v-2.629H34.351v2.493H31.86v2.628h2.492v2.493h7.478v4.849h-9.97v2.648zM61.905 116.873v-2.512h2.493v-10.106h-2.493v-2.493H51.8v2.493h-2.493v10.106H51.8v2.512zm-7.477-2.648v-9.834h4.848v9.834zM71.875 116.873v-5.005h4.849v5.005h5.121v-5.141h-2.492v-2.356h2.492v-5.121h-2.492v-2.493h-12.6v15.11zm0-12.482h4.849v4.849h-4.849zM94.308 116.873V104.39h4.985v-2.629H84.2v2.629h4.985v12.482zM116.74 116.873v-7.497h2.357v2.492h2.628v-2.492h2.357v7.497h5.12v-15.111h-5.12v2.493h-2.493v2.492h-2.356v-2.492h-2.493v-2.493h-5.121v15.11zM144.158 116.873v-2.512h2.493v-10.106h-2.493v-2.493h-10.106v2.493h-2.493v10.106h2.493v2.512zm-7.478-2.648v-9.834h4.85v9.834zM161.606 116.873v-2.512h2.492v-10.106h-2.492v-2.493h-12.6v15.11zm-7.478-2.648v-9.834h4.849v9.834zM179.053 116.873v-2.512h2.493v-12.599h-5.122v12.463h-4.848v-12.463h-5.122v12.599h2.493v2.512zM198.993 116.873v-2.648h-9.97v-12.463h-5.121v15.11zM201.35 116.873h15.09v-2.648h-9.97v-4.85h7.478v-2.628h-7.477v-2.356h9.97v-2.629h-15.092zM233.888 116.873v-7.497h2.357v2.492h2.492v5.005h5.122v-15.111h-5.122v4.985h-2.356v-2.492h-2.493v-2.493h-5.12v15.11zM251.336 116.873v-5.005h4.849v5.005h5.121v-12.618h-2.492v-2.493h-10.107v2.493h-2.492v12.618zm0-12.482h4.849v4.849h-4.849zM268.784 116.873v-7.497h2.356v2.492h2.629v-2.492h2.356v7.497h5.121v-15.111h-5.121v2.493h-2.493v2.492h-2.356v-2.492h-2.492v-2.493h-5.122v15.11zM283.602 116.873h15.092v-2.648h-9.97v-4.85h7.477v-2.628h-7.477v-2.356h9.97v-2.629h-15.092zM313.649 116.873v-2.512h2.492v-5.121h-2.492v-2.493h-7.478v-2.356h9.97v-2.629h-12.599v2.493h-2.492v2.628h2.492v2.493h7.478v4.849h-9.97v2.648zM91.815 135.816v-7.497h7.478v-2.629h-7.478v-2.356h9.97v-2.629H86.694v15.11zM109.263 135.816v-5.005h4.849v5.005h5.12v-5.14h-2.492v-2.357h2.493v-5.121h-2.493v-2.493h-12.599v15.11zm0-12.482h4.849v4.849h-4.85zM134.188 135.816v-2.512h2.492v-10.106h-2.492v-2.493h-10.106v2.493h-2.493v10.106h2.493v2.512zm-7.478-2.648v-9.834h4.85v9.834zM144.158 135.816v-7.497h2.356v2.492h2.629v-2.492h2.356v7.497h5.122v-15.11h-5.122v2.492h-2.492v2.492h-2.356v-2.492h-2.493v-2.493h-5.121v15.11zM174.068 135.816v-5.005h4.849v5.005h5.121v-12.618h-2.492v-2.493h-10.107v2.493h-2.492v12.618zm0-12.482h4.849v4.849h-4.849zM206.47 135.816v-12.482h4.986v-2.629h-15.092v2.629h4.985v12.482zM226.41 135.816v-2.512h2.493v-10.106h-2.492v-2.493h-10.106v2.493h-2.493v10.106h2.493v2.512zm-7.477-2.648v-9.834h4.85v9.834zM241.23 135.816h12.599v-2.648h-7.478v-2.357h2.493v-2.492h2.492v-2.493h2.493v-5.12h-12.6v2.628h7.478v2.356h-2.492v2.493h-2.493v2.492h-2.492zM261.306 135.816v-2.648h-5.121v2.648z"/></g><path stroke="#000" stroke-width="1.7" stroke-linecap="round" stroke-linejoin="round" paint-order="markers stroke fill" d="M63.317 156.973h221.366v23.318H63.317z"/><g style="line-height:1.25;-inkscape-font-specification:'Mini 7 Condensed, ';text-align:center" aria-label="The Button" font-size="21.587" font-family="Mini 7 Condensed" text-anchor="middle" fill="#000" stroke-width="1.012"><path d="M122.75 165.026h2.151v-2.276h-8.727v2.276h2.15v8.643h4.427v-8.643zM133.439 173.67h4.427v-10.92h-4.427v4.321h-2.045v-4.321h-4.427v10.92h4.427v-4.322h2.045v4.321zM139.91 173.67h8.728v-2.277h-4.3v-2.045h2.15v-2.277h-2.15v-2.045h4.3v-2.276h-8.728v10.92zM165.818 169.348v2.045h-2.044v-2.045h2.044zm0-4.322v2.045h-2.044v-2.045h2.044zm2.256 6.472h2.171v-2.277h-2.17v-2.044h2.17v-2.256h-2.17v-2.171h-8.728v10.92h8.727v-2.172zM181.018 171.498h2.17v-8.748h-4.426v8.643h-2.045v-8.643h-4.427v8.748h2.15v2.171h6.578v-2.17zM191.81 165.026h2.151v-2.276h-8.727v2.276h2.15v8.643h4.427v-8.643zM202.604 165.026h2.15v-2.276h-8.727v2.276h2.15v8.643h4.427v-8.643zM213.292 165.026v6.367h-2.045v-6.367h2.045zm2.256 6.472h2.17v-6.577h-2.17v-2.171h-6.578v2.171h-2.15v6.577h2.15v2.171h6.578v-2.17zM226.235 173.67h4.427v-10.92h-4.427v2.171h-2.044v-2.171h-4.427v10.92h4.427v-4.322h2.044v4.321z"/></g><path stroke="#000" stroke-width="1.7" stroke-linecap="round" stroke-linejoin="round" paint-order="markers stroke fill" d="M63.317 186.683h221.366v23.318H63.317z"/><g style="line-height:1.25;-inkscape-font-specification:'Mini 7 Condensed, ';text-align:center" aria-label="MORSE CODE" font-size="21.587" font-family="Mini 7 Condensed" text-anchor="middle" fill="#000" stroke-width="1.012"><path d="M122.624 203.38h4.427v-10.92h-4.427v2.172h-4.195v-2.171h-4.427v10.92h4.427v-4.322h4.195v4.321zM135.61 194.737v6.367h-2.045v-6.367h2.045zm2.256 6.472h2.17v-6.577h-2.17v-2.171h-6.577v2.17h-2.15v6.578h2.15v2.171h6.577v-2.17zM148.596 196.845h-2.172v-2.15h2.172v2.15zm4.384 6.535v-4.448h-2.17v-2.044h2.17v-2.256h-2.17v-2.171h-8.728v10.92h4.427v-4.322h2.045v4.321h4.426zM161.602 201.21h2.15v-2.278h-2.15v-2.15h-2.15v-2.045h4.3v-2.276h-6.577v2.17h-2.15v2.257h2.15v2.17h2.15v2.046h-4.3v2.276h6.577v-2.17zM165.818 203.38h8.728v-2.276h-4.3v-2.045h2.15v-2.277h-2.15v-2.045h4.3v-2.276h-8.728v10.92zM193.982 201.21h2.171v-2.278h-4.426v2.172h-2.045v-6.367h2.045v2.15h4.426v-2.255h-2.17v-2.171h-6.578v2.17h-2.15v6.578h2.15v2.171h6.577v-2.17zM204.67 194.737v6.367h-2.045v-6.367h2.045zm2.256 6.472h2.17v-6.577h-2.17v-2.171h-6.578v2.17h-2.15v6.578h2.15v2.171h6.578v-2.17zM217.613 194.737v6.367h-2.044v-6.367h2.044zm2.256 6.472h2.171v-6.577h-2.171v-2.171h-8.727v10.92h8.727v-2.172zM224.085 203.38h8.728v-2.276h-4.3v-2.045h2.15v-2.277h-2.15v-2.045h4.3v-2.276h-8.728v10.92z"/></g><path stroke="#000" stroke-width="1.7" stroke-linecap="round" stroke-linejoin="round" paint-order="markers stroke fill" d="M63.317 216.394h221.366v23.318H63.317z"/><g style="line-height:1.25;-inkscape-font-specification:'Mini 7 Condensed, ';text-align:center" aria-label="MEMORY" font-size="21.587" font-family="Mini 7 Condensed" text-anchor="middle" fill="#000" stroke-width="1.012"><path d="M144.19 233.091h4.427v-10.92h-4.427v2.172h-4.195v-2.171h-4.427v10.92h4.427v-4.322h4.195v4.321zM150.704 233.091h8.727v-2.276h-4.3v-2.045h2.15v-2.277h-2.15v-2.045h4.3v-2.276h-8.727v10.92zM170.119 233.091h4.427v-10.92h-4.427v2.172h-4.195v-2.171h-4.427v10.92h4.427v-4.322h4.195v4.321zM183.105 224.448v6.367h-2.045v-6.367h2.045zm2.255 6.472h2.171v-6.577h-2.17v-2.171h-6.578v2.17h-2.15v6.578h2.15v2.171h6.577v-2.171zM196.09 226.556h-2.171v-2.15h2.171v2.15zm4.385 6.535v-4.448h-2.171V226.6h2.17v-2.256h-2.17v-2.171h-8.728v10.92h4.427v-4.322h2.045v4.321h4.427zM209.097 228.77h2.15v-6.598h-2.256v2.17h-4.216v-2.17h-2.255v6.598h2.15v4.321h4.427v-4.321z"/></g><path stroke="#000" stroke-width="1.7" stroke-linecap="round" stroke-linejoin="round" paint-order="markers stroke fill" d="M63.317 246.105h221.366v23.318H63.317z"/><g style="line-height:1.25;-inkscape-font-specification:'Mini 7 Condensed, ';text-align:center" aria-label="KEYPAD" font-size="21.587" font-family="Mini 7 Condensed" text-anchor="middle" fill="#000" stroke-width="1.012"><path d="M144.232 262.802h4.427v-2.276h-2.171v-2.172h-2.15v-2.044h2.15v-2.15h2.17v-2.277h-4.426v2.17h-2.045v-2.17h-4.427v10.92h4.427v-2.172h2.045v2.171zM150.704 262.802h8.727v-2.276h-4.3v-2.045h2.15v-2.277h-2.15v-2.045h4.3v-2.276h-8.727v10.92zM168.074 258.48h2.15v-6.597h-2.255v2.17h-4.216v-2.17h-2.256v6.598h2.15v4.321h4.427v-4.321zM178.762 254.16v2.044h-2.045v-2.045h2.045zm2.256 2.15h2.17v-2.256h-2.17v-2.171h-8.728v10.92h4.427v-4.322h4.3v-2.172zM191.705 254.16v2.044h-2.044v-2.045h2.044zm0 8.642h4.427v-8.748h-2.171v-2.171h-6.577v2.17h-2.15v8.75h4.427v-4.322h2.044v4.321zM204.649 254.16v6.366h-2.045v-6.367h2.045zm2.255 6.471h2.172v-6.577h-2.172v-2.171h-8.727v10.92h8.727v-2.172z"/></g><path stroke="#000" stroke-width="1.7" stroke-linecap="round" stroke-linejoin="round" paint-order="markers stroke fill" d="M63.317 275.816h221.366v23.318H63.317z"/><g style="line-height:1.25;-inkscape-font-specification:'Mini 7 Condensed, ';text-align:center" aria-label="NEEDY VENT GAS" font-size="21.587" font-family="Mini 7 Condensed" text-anchor="middle" fill="#000" stroke-width="1.012"><path d="M101.059 292.513h4.427v-10.92h-4.427v2.172h-2.045v-2.171h-4.427v10.92h4.427v-4.322h2.045v4.321zM107.53 292.513h8.728v-2.276h-4.3v-2.045h2.15v-2.277h-2.15v-2.045h4.3v-2.276h-8.727v10.92zM118.324 292.513h8.727v-2.276h-4.3v-2.045h2.15v-2.277h-2.15v-2.045h4.3v-2.276h-8.727v10.92zM135.589 283.87v6.367h-2.045v-6.367h2.045zm2.256 6.472h2.17v-6.577h-2.17v-2.171h-8.728v10.92h8.728v-2.172zM148.638 288.192h2.15v-6.598h-2.256v2.17h-4.216v-2.17h-2.255v6.598h2.15v4.321h4.427v-4.321zM163.647 292.513h6.577v-4.321h2.172v-6.577q-3.12-.021-4.427 0v8.622h-2.172v-8.622q-1.117-.043-4.3 0v6.577h2.15v4.321zM174.44 292.513h8.728v-2.276h-4.3v-2.045h2.15v-2.277h-2.15v-2.045h4.3v-2.276h-8.728v10.92zM191.705 292.513h4.427v-10.92h-4.427v2.172h-2.044v-2.171h-4.427v10.92h4.427v-4.322h2.044v4.321zM204.754 283.87h2.15v-2.276h-8.727v2.276h2.15v8.643h4.427v-8.643zM219.764 292.513h8.748v-6.598h-4.427v4.322h-2.045v-6.367h6.472v-2.276h-8.748v2.17h-2.15v6.578h2.15v2.171zM237.029 283.87v2.045h-2.045v-2.045h2.045zm0 8.643h4.427v-8.748h-2.172v-2.171h-6.577v2.17h-2.15v8.75h4.427v-4.322h2.045v4.321zM250.077 290.342h2.15v-2.277h-2.15v-2.15h-2.15v-2.045h4.3v-2.276h-6.576v2.17h-2.15v2.256h2.15v2.172h2.15v2.045h-4.3v2.276h6.576v-2.171z"/></g><path stroke="#000" stroke-width="1.7" stroke-linecap="round" stroke-linejoin="round" paint-order="markers stroke fill" d="M63.317 305.527h221.366v23.318H63.317z"/><g style="line-height:1.25;-inkscape-font-specification:'Mini 7 Condensed, ';text-align:center" aria-label="WIRES" font-size="21.587" font-family="Mini 7 Condensed" text-anchor="middle" fill="#000" stroke-width="1.012"><path d="M146.361 322.224h4.427v-2.171h4.216v2.171h4.427v-2.171h2.15v-8.748h-4.427v8.643h-2.044v-8.643h-4.427v8.643h-2.045v-8.643h-4.427v8.748h2.15v2.171zM163.647 322.224h4.427v-10.92h-4.427v10.92zM176.654 315.69h-2.171v-2.15h2.17v2.15zm4.385 6.534v-4.448h-2.172v-2.045h2.172v-2.255h-2.172v-2.171h-8.727v10.92h4.427v-4.322h2.045v4.321h4.427zM183.083 322.224h8.728v-2.276h-4.3v-2.045h2.15v-2.277h-2.15v-2.045h4.3v-2.276h-8.728v10.92zM200.454 320.053h2.15v-2.277h-2.15v-2.15h-2.15v-2.045h4.3v-2.276h-6.577v2.17h-2.15v2.256h2.15v2.172h2.15v2.045h-4.3v2.276h6.577v-2.171z"/></g></svg>