<svg viewBox="0 0 348 348" fill="none" xmlns="http://www.w3.org/2000/svg"><path d="M5 5.8h337v337.6H5z" stroke-width="2" stroke="#000"/><path d="M282.7 40.6c0-8.4 7-15.2 15.6-15.2 4.1 0 8 1.6 11 4.4a15 15 0 0 1 4.6 10.8c0 8.3-7 15.1-15.6 15.1s-15.6-6.8-15.6-15.2z" stroke-width="2" stroke="#000"/><path stroke="#000" stroke-width="3.8" d="M57 41h157v55.7H57z"/><path d="m125 53 23.4 15.5L125 82.8z" fill="#000" stroke="#000"/><path d="M272.2 201.7s-8.3-91.3-7.4-93.5c1-2.3 1.3-2.9 3.7-4 2.4-1.3 38.6-1.3 40.8 0 2 1 2.6 1.5 3.4 4 .8 2.5-11 95.5-11 95.5" fill="#6cb0ff" stroke="#000" stroke-width="1.9"/><ellipse cx="286.4" cy="208.8" rx="17" ry="11.7" fill="#b1b7bc" stroke="#000" stroke-width="3.8"/><path d="m250.7 257-120.6 33" stroke="#000" stroke-width="7.6"/><path transform="rotate(-14.8) skewX(-.1)" fill="#76ff7e" stroke="#000" stroke-width="2" d="M59.6 282.7h27.3v63.1H59.6z"/><path d="m89.7 132 10.3-18.3 14.4 8.4-10.1 18.1zM222.2 184l15 9-10.4 18-15.7-9z" fill="#c8ffff" stroke="#000"/><path d="m107.2 135.2 9.8 5.3 21.1 4 10.4 15 16.9 10.4 14.6 7 12.6 3.1 11 15.5 10 2.4 4.5-7.3-10.1-2.9-11-15.4-12.5-2.9-14.8-7.5-16-10.3-11.4-14.8-21.4-4.5-9.3-4.8z" fill="#ffff71" stroke="#000"/><circle cx="82" cy="213.1" r="43.6" fill="#ff4343" stroke="#bcdef5" stroke-width="8.1"/></svg>