<svg xmlns="http://www.w3.org/2000/svg" viewBox="0 0 348 348" fill="none"><path d="M5.079 5.776h336.913v337.67H5.08z" stroke-width="2" stroke="#000"/><path d="M282.734 40.554c0-8.376 6.966-15.165 15.56-15.165 4.126 0 8.084 1.597 11.001 4.441 2.918 2.844 4.558 6.702 4.558 10.724 0 8.376-6.966 15.165-15.56 15.165-8.593 0-15.559-6.79-15.559-15.165z" stroke-width="2" stroke="#000"/><rect width="232.666" height="150.294" x="24.168" y="30.69" ry="29.878" rx="14.152" fill="#1a1a1a" stroke="gray" stroke-width="1.373"/><rect width="147.523" height="40.665" x="182.217" y="265.628" rx="8.46" ry="13.195" fill="#ccc" stroke="#ccc" stroke-width=".973"/><rect width="147.523" height="40.665" x="23.46" y="265.628" rx="8.46" ry="13.195" fill="#ccc" stroke="#ccc" stroke-width=".973"/><rect width="147.523" height="40.665" x="23.46" y="203.588" rx="8.46" ry="13.195" fill="#ccc" stroke="#ccc" stroke-width=".973"/><rect width="147.523" height="40.665" x="181.696" y="203.588" rx="8.46" ry="13.195" fill="#ccc" stroke="#b3b3b3" stroke-width=".973"/></svg>