<svg id="Layer_1" xmlns="http://www.w3.org/2000/svg" xmlns:xlink="http://www.w3.org/1999/xlink" viewBox="0 0 348 348">
    <style>
        .st0{clip-path:url(#SVGID_2_)}.st1{fill-opacity:0}.st2{fill:#fff}.st3,.st4,.st5{stroke:#000;stroke-miterlimit:10}.st3{stroke-linejoin:round;fill:none;stroke-width:2}.st4,.st5{fill:#fff;stroke-width:3}.st5{fill:none}.st6{font-family:&apos;ArialMT&apos;}.st7{font-size:46px}.st8{fill:none;stroke:#231f20;stroke-width:3;stroke-miterlimit:10}
    </style>
    <defs>
        <path id="SVGID_1_" d="M0 0h348v348H0z"/>
    </defs>
    <clipPath id="SVGID_2_">
        <use xlink:href="#SVGID_1_" overflow="visible"/>
    </clipPath>
    <g class="st0">
        <path class="st1" d="M0 0h348v348H0V0z"/>
        <path class="st2" d="M-6 0h348v348H-6V0z"/>
        <path class="st1" d="M5.1 5.8H342v337.7H5.1V5.8z"/>
        <path class="st3" d="M5.1 5.8H342v337.7H5.1V5.8z"/>
        <path class="st2" d="M282.7 40.6c0-8.4 7-15.2 15.6-15.2 4.1 0 8.1 1.6 11 4.4s4.6 6.7 4.6 10.7c0 8.4-7 15.2-15.6 15.2s-15.6-6.8-15.6-15.1z"/>
        <path class="st3" d="M282.7 40.6c0-8.4 7-15.2 15.6-15.2 4.1 0 8.1 1.6 11 4.4s4.6 6.7 4.6 10.7c0 8.4-7 15.2-15.6 15.2s-15.6-6.8-15.6-15.1z"/>
    </g>
    <path class="st4" d="M133.5 250.3c0-.1-.1-.1-.1-.2l.1.2c0-.1 0-.1 0 0z"/>
    <path class="st5" d="M133.5 249.8l-.2.1M174 180.2h-.6c.1-.1.2-.1.3-.2.1.1.2.2.3.2zM214 249.8c-.1.1-.2.2-.3.2.1-.2.2-.3.3-.5v.3z"/>
    <path class="st5" d="M254 179.9c-11.8-6.8-25.5-10.6-40-10.6-14.7 0-28.4 3.9-40.2 10.8-11.8-6.9-25.6-10.8-40.2-10.8-14.8 0-28.6 4-40.5 10.9 0-44.4 36.1-80.5 80.5-80.5 44.3 0 80.3 35.9 80.4 80.2z"/>
    <path class="st5" d="M173.7 180.1c-.1.1-.2.1-.3.2-23.9 14-40 39.9-40 69.6v.3l-.1-.1c-24.1-13.9-40.3-40-40.3-69.8v-.1c11.9-6.9 25.7-10.9 40.5-10.9 14.6 0 28.4 3.9 40.2 10.8z"/>
    <path class="st5" d="M173.7 319.5c-11.8 6.9-25.6 10.8-40.2 10.8-44.5 0-80.5-36-80.5-80.5 0-29.7 16.1-55.7 40-69.6v.1c0 29.8 16.2 55.9 40.3 69.8 0 .1.1.1.1.2.2 29.6 16.4 55.4 40.3 69.2z"/>
    <path class="st5" d="M133.5 250.3c0-.1-.1-.1-.1-.2l.1.2c0-.1 0-.1 0 0zM174 180.2h-.6c.1-.1.2-.1.3-.2.1.1.2.2.3.2zM214 249.8c-.1.1-.2.2-.3.2.1-.2.2-.3.3-.5v.3z"/>
    <path class="st5" d="M254 180.2c0 29.7-16.1 55.7-40 69.6v-.1-.3c-.1-29.6-16.1-55.4-40-69.3-.1-.1-.2-.1-.3-.2 11.8-6.9 25.6-10.8 40.2-10.8 14.6 0 28.2 3.9 40 10.6.1.3.1.4.1.5zM214 249.9c0 29.8-16.2 55.8-40.2 69.7-23.9-13.8-40.1-39.7-40.2-69.3v-.1c11.8 6.8 25.5 10.6 40 10.6 14.6 0 28.4-3.9 40.2-10.7 0-.1.1-.2.2-.2z"/>
    <path class="st5" d="M214 249.5c-.1.2-.2.3-.3.5-11.8 6.8-25.5 10.7-40.2 10.7-14.6 0-28.2-3.9-40-10.6v-.3c0-29.7 16.1-55.6 40-69.6h.6c23.7 14 39.8 39.7 39.9 69.3zM174 180.2h-.6c.1-.1.2-.1.3-.2.1.1.2.2.3.2z"/>
    <path class="st5" d="M214 249.8c-.1.1-.2.2-.3.2.1-.2.2-.3.3-.5v.3z"/>
    <path class="st5" d="M294.5 249.8c0 44.5-36.1 80.5-80.5 80.5-14.7 0-28.4-3.9-40.2-10.8 24-13.9 40.2-39.9 40.2-69.7 24-14 40-39.9 40-69.6v-.3c24.2 13.9 40.5 40 40.5 69.9z"/>
    <text transform="translate(30 57.714)" class="st6 st7">
        (A→B) | C
    </text>
    <path class="st8" d="M17 13h237v65H17z"/>
    <circle class="st4" cx="294.5" cy="139.9" r="24"/>
</svg>
