<svg xmlns="http://www.w3.org/2000/svg" fill="none" viewBox="0 0 348 348"><path stroke="#000" stroke-width="2" d="M5.079 5.776h336.913v337.67H5.08z"/><path stroke="#000" stroke-width="2" d="M282.734 40.554c0-8.376 6.966-15.165 15.56-15.165 4.126 0 8.084 1.597 11.001 4.441 2.918 2.844 4.558 6.702 4.558 10.724 0 8.376-6.966 15.165-15.56 15.165-8.593 0-15.559-6.79-15.559-15.165z"/><g fill="#000" stroke-width=".483873" aria-label="bottom gear 2" style="line-height:1.25;"><path d="M105.47043 148.20151q0 1.10573-.24572 1.99409-.23626.8789-.7088 1.50265-.46308.62374-1.14352.95451-.68045.33077-1.55936.33077-.40637 0-.75605-.085-.34022-.0756-.67099-.25517-.33077-.17956-.661547-.45363-.330772-.27407-.699347-.66155v1.03957q0 .0756-.0378.13231-.0378.0567-.122858.0945-.08506.0283-.217364.0472-.122859.0189-.321322.0189-.189013 0-.321322-.0189t-.217364-.0472q-.08506-.0378-.113408-.0945-.02835-.0567-.02835-.13231v-12.62604q0-.0756.02835-.13231.0378-.0567.122858-.0945.09451-.0378.245717-.0567.15121-.0189.378025-.0189.236266 0 .387476.0189.15121.0189.236266.0567.08506.0378.122858.0945.0378.0567.0378.13231v5.09389q.378025-.38748.727699-.6521.359123-.26461.699343-.42527.34023-.17012.68045-.24572t.71825-.0756q.92616 0 1.57825.36858.66155.36857 1.06793.99232.41582.61429.60484 1.44594.18901.83166.18901 1.75782zm-1.64441.17956q0-.65209-.10396-1.26638-.0945-.61429-.34022-1.08682-.24572-.47254-.6521-.75606-.40637-.29297-1.01121-.29297-.30242 0-.59539.0851-.29297.0851-.59539.28352-.30242.19846-.633196.51033-.321321.31187-.689896.78441v3.39277q.642643.78441 1.228582 1.20023.58594.40638 1.21913.40638.58594 0 1.00177-.28352.41583-.28352.67099-.7466.26462-.47253.37803-1.04902.12286-.58594.12286-1.18133zM115.72437 148.22041q0 1.03957-.27407 1.91848-.27407.86946-.82221 1.50265-.53868.63319-1.36089.99232-.81275.34967-1.89012.34967-1.04902 0-1.83343-.31187-.77495-.31187-1.29473-.90726-.51979-.59539-.77496-1.44595-.25516-.85055-.25516-1.92793 0-1.03957.26461-1.90902.27407-.87891.81276-1.51211.54814-.63319 1.36089-.98286.81275-.34968 1.89958-.34968 1.04902 0 1.82397.31188.7844.31187 1.30419.90726.51978.59539.77495 1.44594.26462.85056.26462 1.91848zm-1.64441.10396q0-.6899-.13231-1.30419-.12286-.61429-.41583-1.07737-.29297-.46308-.79385-.7277-.50089-.27407-1.24749-.27407-.68989 0-1.19078.24572-.49143.24572-.81275.69935-.32132.44418-.48198 1.05847-.15121.61429-.15121 1.34199 0 .69934.12285 1.31364.13231.61429.42528 1.07737.30242.45363.80331.7277.50088.26461 1.24748.26461.68045 0 1.18133-.24571.50088-.24572.82221-.6899.32132-.44418.47253-1.05847t.15121-1.35144zM128.22756 151.94396q0 .27407-.0378.43473-.0378.15121-.12285.22682-.0756.0756-.21737.14176-.14176.0662-.34022.1134-.18901.0473-.41583.0756-.21736.0283-.42528.0283-.67099 0-1.14352-.17011-.47254-.17956-.77496-.52924-.29297-.35912-.43473-.89781-.14176-.54813-.14176-1.28528v-4.97104h-4.22443v4.74422q0 .87891.25517 1.33254.26462.44418.93561.44418.21737 0 .38748-.0378.17011-.0472.30242-.0945.13231-.0472.22681-.085.0945-.0473.17011-.0473.0473 0 .0851.0284.0473.0189.0662.0851.0284.0662.0473.17956.0189.11341.0189.28352 0 .16066-.009.25517-.009.0945-.0284.17956-.009.0756-.0473.14176-.0284.0567-.10395.12286-.0662.0567-.20792.12286-.14176.0567-.33077.0945-.18901.0473-.40638.0756-.21736.0283-.43473.0283-.66154 0-1.13407-.17011-.47253-.17956-.77495-.52924-.30243-.35912-.44418-.89781-.13231-.54813-.13231-1.28528v-4.97104h-1.19078q-.14176 0-.22682-.15121-.0851-.15121-.0851-.49143 0-.17956.0189-.30242.0284-.12286.0662-.19846.0378-.0851.0945-.11341.0661-.0378.14176-.0378h1.18133v-2.02244q0-.0661.0284-.12286.0378-.0567.12286-.0945.0945-.0473.24571-.0662.15121-.0189.37803-.0189.23626 0 .38747.0189.15121.0189.23627.0662.0851.0378.12286.0945.0378.0567.0378.12286v2.02244h4.22443v-2.42882q0-.0756.0378-.13231.0378-.0567.12286-.085.0945-.0378.24571-.0567.15121-.0283.37803-.0283.22681 0 .37802.0283.15121.0189.23627.0567.0945.0283.13231.085.0378.0567.0378.13231v2.42882h2.17365q.0756 0 .13231.0378.0567.0283.0945.11341.0472.0756.0662.19846.0189.12286.0189.30242 0 .34022-.0851.49143-.0851.15121-.21736.15121h-2.1831v4.74422q0 .87891.25517 1.33254.25516.44418.92616.44418.20791 0 .37803-.0378.17956-.0472.31187-.0945.1323-.0472.22681-.085.10396-.0473.17011-.0473.0567 0 .0945.0284.0378.0189.0567.0851.0284.0662.0473.17956.0189.11341.0189.28352zM138.02787 148.22041q0 1.03957-.27407 1.91848-.27407.86946-.82221 1.50265-.53868.63319-1.36089.99232-.81275.34967-1.89013.34967-1.04902 0-1.83342-.31187-.77495-.31187-1.29474-.90726-.51978-.59539-.77495-1.44595-.25517-.85055-.25517-1.92793 0-1.03957.26462-1.90902.27407-.87891.81276-1.51211.54813-.63319 1.36089-.98286.81275-.34968 1.89958-.34968 1.04902 0 1.82397.31188.7844.31187 1.30419.90726.51978.59539.77495 1.44594.26462.85056.26462 1.91848zm-1.64441.10396q0-.6899-.13231-1.30419-.12286-.61429-.41583-1.07737-.29297-.46308-.79385-.7277-.50089-.27407-1.24749-.27407-.68989 0-1.19078.24572-.49143.24572-.81275.69935-.32132.44418-.48199 1.05847-.15121.61429-.15121 1.34199 0 .69934.12286 1.31364.13231.61429.42528 1.07737.30242.45363.80331.7277.50088.26461 1.24748.26461.68044 0 1.18133-.24571.50088-.24572.8222-.6899.32133-.44418.47254-1.05847t.15121-1.35144zM152.94097 152.5677q0 .0756-.0378.13231-.0378.0473-.12286.0851-.0851.0378-.23627.0567-.15121.0189-.37802.0189-.23627 0-.38748-.0189-.15121-.0189-.24571-.0567-.0851-.0378-.12286-.0851-.0378-.0567-.0378-.13231v-5.16949q0-.53869-.0945-.98287t-.30242-.7655q-.20792-.32132-.52924-.49143-.32132-.17011-.75605-.17011-.53868 0-1.08682.41582-.53869.41583-1.19078 1.21914v5.94444q0 .0756-.0378.13231-.0378.0473-.13231.0851-.0851.0378-.23627.0567-.15121.0189-.37802.0189-.21737 0-.37803-.0189-.15121-.0189-.24572-.0567-.085-.0378-.12285-.0851-.0284-.0567-.0284-.13231v-5.16949q0-.53869-.10395-.98287-.10396-.44418-.31187-.7655-.20792-.32132-.52924-.49143-.31187-.17011-.7466-.17011-.53869 0-1.08682.41582-.54814.41583-1.19078 1.21914v5.94444q0 .0756-.0378.13231-.0378.0473-.12285.0851-.0851.0378-.23627.0567-.15121.0189-.38748.0189-.22681 0-.37802-.0189t-.24572-.0567q-.085-.0378-.12286-.0851-.0284-.0567-.0284-.13231v-8.50557q0-.0756.0284-.12286.0284-.0567.11341-.0945.0851-.0473.21737-.0567.13231-.0189.34967-.0189.20791 0 .34022.0189.14176.009.21737.0567.0756.0378.10395.0945.0378.0473.0378.12286v1.12463q.71825-.80331 1.38924-1.17188.68045-.37803 1.37034-.37803.52924 0 .94507.12286.42527.12286.7466.34968.32132.21736.54813.52923.22682.30242.37803.68045.42528-.46308.8033-.78441.38748-.32132.73715-.51978.35913-.19846.6899-.28352.34022-.0945.68044-.0945.82221 0 1.3798.29297.55758.28352.89781.76551.34967.48198.49143 1.13407.15121.64264.15121 1.36089zM167.27758 144.44961q0 .33077-.0945.48198-.0851.14176-.22682.14176h-1.21913q.33077.34022.46308.75605.13231.40638.13231.85056 0 .73715-.23627 1.30419-.23626.56703-.68044.96396-.43473.38748-1.03957.59539-.60484.20792-1.34199.20792-.51979 0-.99232-.13231-.46308-.14176-.71825-.34968-.17011.17011-.28352.38748-.10395.21736-.10395.50088 0 .33077.30242.54814.31187.21736.8222.23627l2.2209.0945q.63319.0189 1.16243.17956.52924.15121.91671.44418.38748.28352.60484.7088.21737.41583.21737.97342 0 .58594-.24572 1.11517-.24572.52924-.75605.92616-.50088.40638-1.28529.6332-.7844.23626-1.85232.23626-1.03012 0-1.75782-.17956-.71825-.17011-1.18133-.47253-.46308-.30242-.67099-.7277-.20792-.41583-.20792-.90726 0-.31187.0756-.60484.0756-.29297.22681-.55759.16066-.26462.38748-.50088.23626-.24572.53868-.48199-.46308-.23626-.68989-.59539-.21737-.35912-.21737-.77495 0-.57649.23627-1.03012t.58594-.81275q-.29297-.34968-.46308-.7844-.17011-.44418-.17011-1.06793 0-.72769.24571-1.30418.24572-.57649.68045-.97342t1.03957-.60484q.61429-.21736 1.33254-.21736.38747 0 .71825.0473.34022.0378.63319.11341h2.57057q.16066 0 .23627.16066.085.15121.085.47253zm-2.43826 2.2398q0-.86946-.48198-1.35144-.47254-.49143-1.35144-.49143-.45363 0-.79386.15121-.33077.15121-.55759.41582-.21736.26462-.33077.6143-.10395.34022-.10395.71824 0 .84111.47253 1.32309.48198.48198 1.34199.48198.46308 0 .8033-.14175.34022-.15122.55759-.40638.22681-.26462.33077-.60484.11341-.34023.11341-.7088zm.7844 6.7383q0-.54813-.45363-.8411-.44418-.30242-1.20968-.32133l-2.202-.0756q-.30242.23626-.50088.45363-.18901.20791-.30242.39693-.11341.19846-.16066.38747-.0378.18901-.0378.38748 0 .61429.62375.92616.62374.32132 1.73891.32132.7088 0 1.18133-.14176.48199-.13231.77495-.35912.29297-.22682.41583-.51979.13231-.29297.13231-.61429zM176.38799 147.94634q0 .36858-.18901.52924-.17956.15121-.41583.15121h-5.57587q0 .7088.14176 1.27584.14176.56703.47253.97341.33077.40638.86001.62374.52923.21737 1.29474.21737.60484 0 1.07737-.0945.47253-.10396.81275-.22681.34968-.12286.56704-.21737.22682-.10396.34022-.10396.0662 0 .11341.0378.0567.0283.0851.0945.0283.0662.0378.18902.0189.1134.0189.28351 0 .12286-.009.21737-.009.0851-.0283.16066-.009.0662-.0473.12286-.0284.0567-.0851.11341-.0472.0472-.30242.17011-.25517.11341-.66155.22681-.40637.11341-.94506.19847-.52923.0945-1.13408.0945-1.04902 0-1.84287-.29297-.7844-.29297-1.32309-.86946-.53868-.57648-.81275-1.44594-.27407-.86946-.27407-2.02244 0-1.09627.28352-1.96573.28352-.87891.81275-1.48375.53869-.61429 1.29474-.93561.75605-.33078 1.69166-.33078 1.00177 0 1.70112.32133.7088.32132 1.16243.86945.45363.53869.66154 1.27584.21736.7277.21736 1.55935zm-1.5688-.46308q.0284-1.22858-.54814-1.92793-.56704-.69934-1.69166-.69934-.57649 0-1.01122.21736-.43473.21737-.7277.57649-.29297.35912-.45363.84111-.16066.47253-.17956.99231zM185.17709 152.57716q0 .1134-.0756.17011-.0756.0567-.20791.0851-.13231.0283-.38748.0283-.24572 0-.39693-.0283-.14176-.0284-.20791-.0851-.0661-.0567-.0661-.17011v-.85056q-.55759.59539-1.24749.92616-.68044.33077-1.44595.33077-.67099 0-1.21913-.17956-.53868-.17011-.92616-.50088-.37802-.33078-.59539-.81276-.20791-.48198-.20791-1.09627 0-.71825.29297-1.24749.29297-.52923.8411-.8789.54814-.34968 1.34199-.51979.79386-.17956 1.78617-.17956h1.17188v-.66155q0-.49143-.10396-.86945-.10395-.37803-.34022-.62375-.22681-.25516-.59539-.37802-.36857-.13231-.90726-.13231-.57649 0-1.03957.14176-.45363.13231-.8033.30242-.34023.16066-.57649.30242-.22682.13231-.34022.13231-.0756 0-.13231-.0378-.0567-.0378-.10396-.11341-.0378-.0756-.0567-.18901-.0189-.12286-.0189-.26462 0-.23627.0284-.36858.0378-.14176.16066-.26461.13231-.12286.44418-.28352.31187-.17012.71825-.30242.40637-.14176.88836-.22682.48198-.0945.97341-.0945.91671 0 1.55936.20792.64264.20791 1.03957.61429.39692.39693.57648.99232.17957.59539.17957 1.38924zm-1.54991-3.88422h-1.33254q-.64264 0-1.11517.11341-.47253.10396-.78441.32132-.31187.20792-.46308.51034-.14176.29297-.14176.68044 0 .66155.41583 1.05847.42528.38748 1.18133.38748.61429 0 1.13408-.31187.52923-.31187 1.10572-.95451zM193.00221 144.61972q0 .20791-.009.34967-.009.14176-.0378.22682-.0284.0756-.0756.12286-.0378.0378-.11341.0378-.0756 0-.18901-.0378-.10396-.0473-.24572-.0851-.1323-.0473-.30242-.0851-.17011-.0378-.36857-.0378-.23627 0-.46308.0945-.22682.0945-.48198.31187-.24572.21737-.51979.57649-.27407.35912-.60484.87891v5.59477q0 .0756-.0378.13231-.0378.0473-.12286.0851-.0851.0378-.23627.0567-.15121.0189-.38747.0189-.22682 0-.37803-.0189-.15121-.0189-.24571-.0567-.0851-.0378-.12286-.0851-.0283-.0567-.0283-.13231v-8.50557q0-.0756.0283-.12286.0284-.0567.1134-.0945.0851-.0473.21737-.0567.13231-.0189.34967-.0189.20792 0 .34023.0189.14176.009.21736.0567.0756.0378.10396.0945.0378.0473.0378.12286v1.23804q.34967-.51034.65209-.83166.31187-.32132.58594-.50088.27407-.18902.53869-.25517.27407-.0756.54814-.0756.12285 0 .27406.0189.16067.009.33078.0473.17011.0378.30242.085.14176.0473.19846.0945.0567.0473.0756.0945.0189.0378.0283.10395.0189.0662.0189.19847.009.12286.009.34022zM206.46936 152.10462q0 .17011-.0283.30242-.0189.13231-.0661.22682-.0378.085-.11341.13231-.0662.0378-.15121.0378h-6.7572q-.13231 0-.23627-.0283-.0945-.0378-.17011-.11341-.0662-.0756-.10396-.21736-.0284-.14176-.0284-.34968 0-.18901.009-.33077.0189-.14176.0661-.24572.0473-.1134.11341-.21736.0756-.11341.18901-.23627l2.37211-2.51387q.82221-.86945 1.31364-1.55935.50089-.6899.7655-1.25693.27407-.56704.35913-1.03012.085-.46308.085-.86946t-.13231-.7655q-.1323-.36858-.38747-.64265-.24572-.27407-.62374-.43473-.37803-.16066-.86946-.16066-.57649 0-1.03957.16066-.45363.16066-.80331.34968-.34022.18901-.57648.34967-.22682.16066-.34023.16066-.0662 0-.12286-.0378-.0473-.0378-.0851-.12286-.0283-.085-.0472-.22681-.0189-.14176-.0189-.34023 0-.14176.009-.24571.009-.10396.0284-.17957.0283-.0756.0661-.14176.0378-.0661.15121-.16066.11341-.10395.38748-.27406.28352-.17012.69934-.33078.42528-.17011.92617-.28352.51033-.1134 1.06792-.1134.88836 0 1.5499.25516.671.24572 1.10573.68045.44418.43473.66154 1.01122.21737.57649.21737 1.22858 0 .58594-.10396 1.17188-.10396.57649-.44418 1.25693-.33077.671-.96397 1.50265-.63319.82221-1.68221 1.89958l-1.93738 2.02244h5.32071q.0756 0 .14176.0472.0756.0378.12286.12286.0567.085.0756.21736.0283.12286.0283.29297z" transform="scale(.77601 1.28864)"/></g></svg>