<svg xmlns="http://www.w3.org/2000/svg" fill="none" viewBox="0 0 348 348"><path stroke="#000" stroke-width="2" d="M5.079 5.776h336.913v337.67H5.08Z"/><path stroke="#000" stroke-width="2" d="M282.734 40.554c0-8.376 6.966-15.165 15.56-15.165 4.126 0 8.084 1.597 11.001 4.441 2.918 2.844 4.558 6.702 4.558 10.724 0 8.376-6.966 15.165-15.56 15.165-8.593 0-15.559-6.79-15.559-15.165z"/><g fill="#000" stroke-width="4.99999" aria-label="bottom gear 3" font-family="Calibri" font-size="29.4045" font-weight="400" letter-spacing="0" style="line-height:normal;-inkscape-font-specification:Calibri;text-align:center;text-decoration-line:none;text-decoration-color:#000" text-anchor="start"><path d="M39.474619 245.47744q0 1.67984-.373299 3.02946-.358942 1.33527-1.076825 2.28287-.703525.94761-1.737277 1.45013t-2.369015.50252q-.61738 0-1.148613-.12922-.516876-.11486-1.019395-.38766-.502518-.2728-1.005036-.68917-.502519-.41637-1.062467-1.00504v1.57935q0 .11486-.05743.20101-.05743.0861-.18665.14357-.129219.0431-.330226.0718-.18665.0287-.488161.0287-.287153 0-.48816-.0287-.201008-.0287-.330227-.0718-.129219-.0574-.172292-.14357-.04307-.0862-.04307-.20101v-19.18184q0-.11486.04307-.20101.05743-.0862.18665-.14358.143577-.0574.373299-.0861.229723-.0287.574307-.0287.358942 0 .588664.0287.229723.0287.358942.0861.129219.0574.18665.14358.05743.0861.05743.20101v7.73878q.574307-.58867 1.10554-.99068.545592-.40201 1.062468-.6461.516876-.25843 1.033752-.37329.516876-.11487 1.091182-.11487 1.407051 0 2.39773.55995 1.005037.55995 1.622417 1.50756.631737.93325.91889 2.19672.287153 1.26348.287153 2.67053zm-2.498233.27279q0-.99068-.157935-1.92392-.143576-.93325-.516876-1.65114-.373299-.71788-.990679-1.14861-.617379-.44509-1.53627-.44509-.459445 0-.904533.12922-.445087.12922-.904533.43073-.459445.30151-.961963.77532-.488161.4738-1.04811 1.19168v5.1544q.976321 1.19169 1.866497 1.82343.890175.61738 1.852139.61738.890175 0 1.521912-.43073.631737-.43073 1.019394-1.13426.402015-.71788.574307-1.5937.18665-.89017.18665-1.79471zM55.052686 245.50615q0 1.57935-.416372 2.91461-.416372 1.3209-1.249117 2.28287-.818387.96196-2.067504 1.50755-1.234759.53124-2.871533.53124-1.593701 0-2.785387-.47381-1.177329-.4738-1.967-1.37833-.789672-.90454-1.177329-2.19673-.387657-1.29219-.387657-2.92896 0-1.57934.402015-2.90025.416372-1.33526 1.234759-2.29722.832745-.96197 2.067504-1.4932 1.234759-.53124 2.885891-.53124 1.593701 0 2.771029.47381 1.191686.4738 1.981358 1.37833.789672.90454 1.177329 2.19673.402014 1.29219.402014 2.9146zm-2.498234.15794q0-1.04811-.201007-1.98136-.18665-.93325-.631737-1.63678-.445088-.70352-1.206044-1.10554-.760956-.41637-1.895212-.41637-1.04811 0-1.809066.3733-.746598.3733-1.234759 1.06247-.488161.67481-.732241 1.60806-.229723.93325-.229723 2.03879 0 1.06246.18665 1.99571.201007.93325.646095 1.63678.459445.68916 1.220402 1.10554.760956.40201 1.895211.40201 1.033752 0 1.794709-.3733.760956-.3733 1.249116-1.04811.488161-.67481.717884-1.60806.229722-.93325.229722-2.05314zM74.047879 251.16307q0 .41637-.05743.66045-.05743.22973-.186649.34459-.114862.11486-.330227.21536-.215365.10051-.516876.1723-.287153.0718-.631737.11486-.330226.0431-.646095.0431-1.019394 0-1.737277-.25844-.717884-.27279-1.177329-.80403-.445088-.54559-.660453-1.36398-.215365-.83274-.215365-1.95264v-7.55213h-6.417876v7.20755q0 1.33526.387657 2.02443.402014.67481 1.421409.67481.330226 0 .588664-.0574.258438-.0718.459445-.14358.201008-.0718.344584-.12922.143577-.0718.258438-.0718.07179 0 .129219.0431.07179.0287.100504.12922.04307.1005.07179.27279.02872.17229.02872.43073 0 .24408-.01436.38766t-.04307.27279q-.01436.11487-.07179.21537-.04307.0862-.157935.18665-.100503.0862-.315868.18665-.215365.0862-.502519.14358-.287153.0718-.617379.11486-.330227.0431-.660453.0431-1.005037 0-1.72292-.25844-.717883-.27279-1.177328-.80403-.459446-.54559-.674811-1.36398-.201007-.83274-.201007-1.95264v-7.55213h-1.809066q-.215365 0-.344584-.22972-.129219-.22973-.129219-.7466 0-.2728.02872-.45945.04307-.18665.100503-.30151.05743-.12922.143577-.17229.100504-.0574.215365-.0574h1.794708v-3.07254q0-.1005.04307-.18665.05743-.0862.18665-.14358.143576-.0718.373299-.1005.229723-.0287.574307-.0287.358941 0 .588664.0287.229723.0287.358942.1005.129219.0574.186649.14358.05743.0862.05743.18665v3.07254h6.417876v-3.68992q0-.11486.05743-.20101.05743-.0861.18665-.12922.143576-.0574.373299-.0861.229723-.0431.574307-.0431t.574306.0431q.229723.0287.358942.0861.143577.0431.201007.12922.05743.0862.05743.20101v3.68992h3.302263q.114861 0 .201007.0574.08615.0431.143577.17229.07179.11486.100504.30151.02871.18665.02871.45945 0 .51687-.129219.7466-.129219.22972-.330226.22972h-3.316621v7.20755q0 1.33526.387657 2.02443.387657.67481 1.407051.67481.315869 0 .574307-.0574.272795-.0718.473803-.14358.201007-.0718.344584-.12922.157934-.0718.258438-.0718.08615 0 .143576.0431.05743.0287.08615.12922.04307.1005.07179.27279.02871.17229.02871.43073zM88.936778 245.50615q0 1.57935-.416373 2.91461-.416372 1.3209-1.249117 2.28287-.818387.96196-2.067503 1.50755-1.23476.53124-2.871534.53124-1.5937 0-2.785387-.47381-1.177328-.4738-1.967-1.37833-.789671-.90454-1.177328-2.19673-.387657-1.29219-.387657-2.92896 0-1.57934.402014-2.90025.416373-1.33526 1.234759-2.29722.832745-.96197 2.067504-1.4932 1.23476-.53124 2.885891-.53124 1.593701 0 2.77103.47381 1.191686.4738 1.981357 1.37833.789672.90454 1.177329 2.19673.402015 1.29219.402015 2.9146zm-2.498234.15794q0-1.04811-.201008-1.98136-.186649-.93325-.631737-1.63678-.445087-.70352-1.206044-1.10554-.760956-.41637-1.895212-.41637-1.048109 0-1.809065.3733-.746599.3733-1.23476 1.06247-.48816.67481-.732241 1.60806-.229722.93325-.229722 2.03879 0 1.06246.186649 1.99571.201008.93325.646095 1.63678.459446.68916 1.220402 1.10554.760956.40201 1.895212.40201 1.033752 0 1.794708-.3733t1.249117-1.04811q.48816-.67481.717883-1.60806.229723-.93325.229723-2.05314zM111.59317 252.11068q0 .11486-.0574.20101-.0574.0718-.18665.12921-.12922.0574-.35894.0862-.22972.0287-.5743.0287-.35895 0-.58867-.0287-.22972-.0287-.3733-.0862-.12922-.0574-.18665-.12921-.0574-.0862-.0574-.20101v-7.85364q0-.81839-.14358-1.4932-.14357-.67481-.45944-1.16297-.31587-.48816-.80403-.7466-.48816-.25844-1.14861-.25844-.81839 0-1.65113.63174-.81839.63173-1.80907 1.85214v9.03097q0 .11486-.0574.20101-.0574.0718-.20101.12921-.12922.0574-.35894.0862-.22972.0287-.57431.0287-.33022 0-.5743-.0287-.22973-.0287-.3733-.0862-.12922-.0574-.18665-.12921-.0431-.0862-.0431-.20101v-7.85364q0-.81839-.15793-1.4932-.15793-.67481-.4738-1.16297-.315871-.48816-.804032-.7466-.473803-.25844-1.134255-.25844-.818387 0-1.651132.63174-.832744.63173-1.809066 1.85214v9.03097q0 .11486-.05743.20101-.05743.0718-.18665.12921-.129219.0574-.358942.0862-.229722.0287-.588664.0287-.344584 0-.574307-.0287-.229722-.0287-.373299-.0862-.129219-.0574-.18665-.12921-.04307-.0862-.04307-.20101v-12.9219q0-.11486.04307-.18665.04307-.0862.172292-.14358.129219-.0718.330227-.0861.201007-.0287.531233-.0287.315869 0 .516876.0287.215365.0143.330227.0861.114861.0574.157934.14358.05743.0718.05743.18665v1.70856q1.091182-1.2204 2.110577-1.78035 1.033751-.57431 2.081861-.57431.804029 0 1.435769.18665.64609.18665 1.13425.53124.48816.33022.83275.80403.34458.45944.5743 1.03375.6461-.70353 1.22041-1.19169.58866-.48816 1.11989-.78967.5456-.30151 1.04811-.43073.51688-.14358 1.03376-.14358 1.24911 0 2.09621.44509.84711.43073 1.36398 1.16297.53124.73224.7466 1.72292.22972.97632.22972 2.06751zM133.37376 239.77744q0 .50252-.14358.73224-.12922.21537-.34459.21537h-1.85213q.50251.51688.70352 1.14861.20101.61738.20101 1.29219 0 1.1199-.35894 1.98136-.35894.86146-1.03375 1.46448-.66046.58867-1.57935.90454-.91889.31586-2.03879.31586-.78967 0-1.50755-.201-.70353-.21537-1.09118-.53124-.25844.25844-.43073.58867-.15794.33022-.15794.76095 0 .50252.45945.83275.4738.33022 1.24911.35894l3.37406.14358q.96196.0287 1.76599.27279.80403.22972 1.39269.67481.58867.43073.91889 1.07683.33023.63173.33023 1.47884 0 .89017-.3733 1.6942-.3733.80403-1.14861 1.40705-.76096.61738-1.95265.96197-1.19168.35894-2.8141.35894-1.56498 0-2.67052-.2728-1.09119-.25844-1.79471-.71788-.70353-.45945-1.0194-1.10554-.31587-.63174-.31587-1.37834 0-.4738.11487-.91889.11486-.44509.34458-.8471.24408-.40201.58866-.76096.35895-.3733.81839-.73224-.70352-.35894-1.04811-.90453-.33023-.54559-.33023-1.17733 0-.87582.35895-1.56498.35894-.68917.89017-1.23476-.44509-.53124-.70352-1.19169-.25844-.67481-.25844-1.62242 0-1.10554.3733-1.98135.3733-.87582 1.03375-1.47884.66045-.60303 1.57934-.91889.93325-.33023 2.02443-.33023.58867 0 1.09119.0718.51687.0574.96196.17229h3.90528q.24408 0 .35895.24408.12922.22972.12922.71788zm-3.70428 3.40277q0-1.32091-.73224-2.05315-.71789-.74659-2.05315-.74659-.68917 0-1.20604.22972-.50252.22972-.84711.63174-.33022.40201-.50251.93324-.15794.51688-.15794 1.09119 0 1.27783.71788 2.01007.73225.73224 2.03879.73224.70353 0 1.2204-.21536.51688-.22973.84711-.61738.34458-.40202.50252-.91889.17229-.51688.17229-1.07683zm1.19168 10.23702q0-.83275-.68916-1.27784-.67481-.45944-1.83779-.48816l-3.34533-.11486q-.45945.35894-.76096.68917-.28715.31587-.45944.60302-.1723.30151-.24408.58867-.0574.28715-.0574.58866 0 .93325.9476 1.40705.94761.48816 2.64181.48816 1.07683 0 1.79471-.21536.73224-.20101 1.17733-.54559.44509-.34459.63174-.78968.201-.44508.201-.93324zM147.21454 245.08978q0 .55995-.28715.80403-.2728.22972-.63174.22972h-8.47102q0 1.07683.21536 1.93829.21537.86146.71788 1.47884.50252.61738 1.30655.9476.80403.33023 1.967.33023.91889 0 1.63678-.14358.71788-.15793 1.23475-.34458.53124-.18665.86146-.33023.34459-.15793.51688-.15793.1005 0 .17229.0574.0862.0431.12922.14357.0431.10051.0574.28716.0287.17229.0287.43073 0 .18665-.0144.33022-.0144.12922-.0431.24408-.0144.10051-.0718.18665-.0431.0862-.12922.1723-.0718.0718-.45945.25843-.38765.1723-1.00503.34459t-1.43577.30151q-.80403.14358-1.72292.14358-1.5937 0-2.79974-.44509-1.19169-.44509-2.01008-1.32091-.81838-.87582-1.23476-2.19672-.41637-1.32091-.41637-3.07254 0-1.66549.43073-2.9864.43073-1.33526 1.23476-2.25415.81839-.93325 1.967-1.42141 1.14861-.50252 2.57002-.50252 1.52192 0 2.58438.48816 1.07683.48817 1.766 1.32091.68916.81839 1.00503 1.93828.33023 1.10555.33023 2.36902zm-2.38337-.70353q.0431-1.86649-.83275-2.92896-.86146-1.06247-2.57002-1.06247-.87582 0-1.53627.33023t-1.10554.87582q-.44509.54559-.68917 1.27783-.24408.71788-.27279 1.50755zM160.56717 252.12504q0 .17229-.11486.25843-.11486.0862-.31587.12922-.20101.0431-.58866.0431-.3733 0-.60303-.0431-.21536-.0431-.31586-.12922-.10051-.0861-.10051-.25843v-1.29219q-.8471.90453-1.89521 1.40705-1.03375.50252-2.19672.50252-1.0194 0-1.85214-.2728-.81839-.25844-1.40705-.76096-.57431-.50251-.90454-1.23476-.31586-.73224-.31586-1.66548 0-1.09119.44508-1.89522.44509-.80403 1.27784-1.33526.83274-.53123 2.03878-.78967 1.20605-.2728 2.7136-.2728h1.78035v-1.00503q0-.7466-.15793-1.32091-.15794-.57431-.51688-.9476-.34458-.38766-.90453-.57431-.55995-.20101-1.37834-.20101-.87581 0-1.57934.21537-.68917.201-1.2204.45944-.51688.24408-.87582.45945-.34458.201-.51687.201-.11487 0-.20101-.0574-.0862-.0574-.15794-.17229-.0574-.11486-.0861-.28715-.0287-.18665-.0287-.40202 0-.35894.0431-.55995.0574-.21536.24408-.40201.201-.18665.67481-.43073.4738-.25844 1.09118-.45945.61738-.21536 1.34962-.34458.73224-.14358 1.47884-.14358 1.39269 0 2.36901.31587.97632.31587 1.57935.93325.60302.60302.87581 1.50756.2728.90453.2728 2.11057zm-2.35466-5.901h-2.02443q-.97632 0-1.6942.17229-.71789.15793-1.19169.48816-.4738.31587-.70352.77531-.21537.44509-.21537 1.03375 0 1.00504.63174 1.60806.64609.58867 1.79471.58867.93324 0 1.72292-.47381.80403-.4738 1.67984-1.45012zM172.45532 240.03588q0 .31587-.0144.53124-.0144.21536-.0574.34458-.0431.11486-.11486.18665-.0574.0574-.1723.0574-.11486 0-.28715-.0574-.15793-.0718-.3733-.12922-.20101-.0718-.45944-.12922-.25844-.0574-.55995-.0574-.35894 0-.70353.14358-.34458.14357-.73224.4738-.3733.33023-.78967.87582-.41637.54559-.91889 1.33526v8.49974q0 .11486-.0574.20101-.0574.0718-.18665.12921-.12922.0574-.35894.0862-.22973.0287-.58867.0287-.34458 0-.5743-.0287-.22973-.0287-.3733-.0862-.12922-.0574-.18665-.12921-.0431-.0862-.0431-.20101v-12.9219q0-.11486.0431-.18665.0431-.0862.17229-.14358.12922-.0718.33023-.0861.201-.0287.53123-.0287.31587 0 .51687.0287.21537.0143.33023.0861.11486.0574.15794.14358.0574.0718.0574.18665v1.88085q.53123-.77531.99067-1.26347.47381-.48816.89018-.76096.41637-.28715.81839-.38765.41637-.11487.83274-.11487.18665 0 .41637.0287.24408.0144.50252.0718.25844.0574.45945.12922.21536.0718.30151.14357.0861.0718.11486.14358.0287.0574.0431.15793.0287.10051.0287.30152.0144.18665.0144.51687zM192.77141 247.15728q0 1.27784-.44508 2.31159-.44509 1.01939-1.27784 1.75163-.83274.73224-2.05314 1.13426-1.2204.38766-2.75667.38766-.93325 0-1.75164-.15794-.80403-.14358-1.43577-.34458-.63173-.21537-1.0481-.43073-.41638-.22973-.53124-.33023-.1005-.1005-.15793-.20101-.0574-.1005-.10051-.24408-.0431-.14357-.0718-.34458-.0144-.21537-.0144-.51688 0-.51687.1005-.71788.1005-.20101.28715-.20101.12922 0 .50252.22973.38766.22972.97632.50251.60303.25844 1.3927.48816.80403.22973 1.78035.22973.9476 0 1.66549-.24408.71788-.24408 1.20604-.68917.48816-.44509.73224-1.04811.24408-.61738.24408-1.33526 0-.78968-.31587-1.42141-.30151-.63174-.90453-1.09119-.58866-.45944-1.46448-.70352-.86146-.24408-1.967-.24408h-1.76599q-.11487 0-.22973-.0431-.1005-.0574-.18665-.1723-.0718-.11486-.12922-.30151-.0431-.18665-.0431-.48816 0-.27279.0431-.44509.0431-.18665.11487-.28715.0861-.11486.18665-.15793.1005-.0574.22972-.0574h1.62241q.94761 0 1.69421-.24408.76096-.24408 1.27783-.70353.53124-.45944.80403-1.09118.28715-.6461.28715-1.43577 0-.57431-.18665-1.09118-.18665-.53124-.55994-.91889-.3733-.38766-.96197-.60302-.5743-.22973-1.33526-.22973-.83275 0-1.53627.25844-.68917.24408-1.23476.53123-.54559.28716-.90453.5456-.35895.24408-.50252.24408-.10051 0-.18665-.0287-.0718-.0431-.12922-.14358-.0431-.11486-.0718-.30151-.0144-.201-.0144-.51687 0-.21537.0144-.3733.0144-.17229.0574-.28715.0431-.12922.10051-.22973.0574-.1005.18665-.22972.14357-.14358.55994-.40201.41638-.25844 1.0194-.50252.61738-.25844 1.40705-.43073.80403-.1723 1.72292-.1723 1.29219 0 2.26851.33023.97632.33023 1.62242.93325.66045.60302.97632 1.45012.33022.83275.33022 1.85214 0 .87582-.22972 1.63678-.22972.7466-.67481 1.33526-.44509.57431-1.09118.99068-.6461.40201-1.4932.55995v.0287q.96197.10051 1.75164.48816.80403.3733 1.37833.94761.57431.57431.89018 1.34962.33022.76096.33022 1.63677z" style="-inkscape-font-specification:Calibri;text-align:start" transform="scale(.88523 1.12965)"/></g></svg>