<svg xmlns="http://www.w3.org/2000/svg" viewBox="0 0 348 348" fill="none"><path d="M5 5.8h337v337.6H5z" stroke-width="2" stroke="#000"/><path d="M282.7 40.6c0-8.4 7-15.2 15.6-15.2 4 0 8 1.6 11 4.4 3 3 4.6 6.7 4.6 10.8 0 8.3-7 15-15.7 15-8.6 0-15.6-6.7-15.6-15z" stroke-width="2" stroke="#000"/><path d="M58 202.5a10.5 10.5 0 1 1-21 0 10.5 10.5 0 1 1 21 0zM58 232.5a10.5 10.5 0 1 1-21 0 10.5 10.5 0 1 1 21 0zM133 202.5a10.5 10.5 0 1 1-21 0 10.5 10.5 0 1 1 21 0zM133 232.5a10.5 10.5 0 1 1-21 0 10.5 10.5 0 1 1 21 0zM133 262.5a10.5 10.5 0 1 1-21 0 10.5 10.5 0 1 1 21 0zM208 262.5a10.5 10.5 0 1 1-21 0 10.5 10.5 0 1 1 21 0zM238 232.5a10.5 10.5 0 1 1-21 0 10.5 10.5 0 1 1 21 0zM283 202.5a10.5 10.5 0 1 1-21 0 10.5 10.5 0 1 1 21 0zM313 202.5a10.5 10.5 0 1 1-21 0 10.5 10.5 0 1 1 21 0zM313 232.5a10.5 10.5 0 1 1-21 0 10.5 10.5 0 1 1 21 0z" fill="#000"/></svg>