<svg xmlns="http://www.w3.org/2000/svg" viewBox="0 0 348 348" fill="none"><path d="M5.08 5.78h336.91v337.67H5.08z" stroke-width="2" stroke="#000"/><path d="M282.73 40.55c0-8.37 6.97-15.16 15.56-15.16 4.13 0 8.09 1.6 11 4.44a14.97 14.97 0 014.56 10.72c0 8.38-6.96 15.17-15.56 15.17-8.59 0-15.56-6.8-15.56-15.17z" stroke-width="2" stroke="#000"/><path fill="#fff" stroke="#000" stroke-width="2.4" d="M42.76 61.97h154.83V216.8H42.76z"/><path d="M66.5 192.37v-17.09l87.36-37.25q-10.37-4.41-21.5-9.02-10.95-4.8-22.08-9.6L88 109.81q-11.14-4.8-21.5-9.22V83.51q13.82 5.95 27.06 11.7 13.25 5.77 26.3 11.53 13.06 5.57 26.31 11.33 13.25 5.56 26.88 11.32v16.9z" aria-label="&gt;" font-weight="400" font-size="192" font-family="Gugi" letter-spacing="0" word-spacing="0" fill="#000"/><path fill="#fff" stroke="#000" stroke-width="2.03" d="M239.39 78.15h65.33v36.61h-65.33z"/><path fill="#fff" stroke="#000" stroke-width="2.3" d="M230.03 129h84.05v36.61h-84.05zm0 51.24h84.05v36.6h-84.05z"/><path d="M266.4 83.45q.8 0 1.7.36.9.35 1.72.9h-.03q.83.6 1.28 1.6.45.95.45 2.23v15.2q0 1.35-.45 2.3-.45.93-1.28 1.57-.83.61-1.7.96-.86.32-1.7.32h-3.35q-.83 0-1.73-.32-.86-.35-1.7-.96-.83-.64-1.3-1.56-.45-.96-.45-2.3v-15.2q0-1.29.44-2.25.48-1 1.32-1.6h-.04q.84-.54 1.73-.9.9-.35 1.73-.35zm-.83 22.21q1.18 0 1.66-.67.51-.67.51-1.5V88.83q0-.8-.5-1.47-.49-.67-1.67-.67h-1.76q-1.19 0-1.7.67-.48.67-.48 1.47v14.66q0 .83.48 1.5.51.67 1.7.67zm11.56-16.38q-.77 0-.8-1.06-.03-1.09.8-1.09.51 0 1.22-.12.7-.13 1.57-.36.8-.28 1.4-.96.61-.7.87-1.63.19-.51.64-.83.45-.32 1.18-.29 1.5.07 1.5 1.57v23.36q0 1.5-1.88 1.5-1.89 0-1.89-1.5v-18.6z" aria-label="1" font-weight="400" font-size="32" font-family="Gugi" letter-spacing="0" word-spacing="0" fill="#000"/><path d="M258.85 155.76q0 3.02-2.02 4.51-.97.71-2.02 1.12-1 .38-1.98.38h-8.13q-.97 0-2.02-.38-1-.4-1.98-1.12-.97-.74-1.5-1.83-.51-1.12-.51-2.68v-17.74q0-1.5.52-2.61.52-1.16 1.5-1.87h-.05q.97-.63 2.02-1.04 1.05-.41 2.02-.41h8.13q.98 0 2.02.4 1.05.42 2.02 1.05h-.04q.97.71 1.5 1.87.52 1.12.52 2.61v2.58q0 1.79-2.24 1.79-2.2 0-2.2-1.8v-2.23q0-.94-.57-1.72-.56-.78-1.94-.78h-6.27q-1.38 0-1.94.78t-.56 1.72v17.1q0 .97.56 1.75.56.79 1.94.79h6.27q1.38 0 1.94-.79.56-.78.56-1.75v-2.17q0-1.75 2.2-1.75 2.25 0 2.25 1.75zm7.75 6.01q-1.39 0-1.87-.71-.49-.71-.49-1.57v-25.8q0-1.8 2.17-1.8 2.24 0 2.24 1.8V158h12.47q1.34 0 1.34 1.83.08 1.95-1.34 1.95zm29.87-12.32h-2.88q-.63 0-1-.49-.34-.52-.34-1.38 0-1.9 1.56-1.9h4.37q1.38 0 1.94-.79.56-.78.56-1.72v-4.81q0-.94-.56-1.72t-1.94-.78h-7.87v24.34q0 1.79-2.2 1.79-2.21 0-2.21-1.8v-25.86q0-1.35.67-1.8.71-.44 1.68-.44h10.87q.97 0 2.01.4 1.05.42 2.02 1.05h-.04q.97.71 1.5 1.87.52 1.12.52 2.61v5.45q0 3.03-2.02 4.52-.41.3-.9.56-.44.26-.93.52l5.97 9.86q.12.19.23.48.11.3.11.49 0 .9-1.27 1.72v-.04q-.86.52-1.45.52-.86 0-1.39-.86l.04.04z" aria-label="CLR" font-weight="400" font-size="37.33" font-family="Gugi" letter-spacing="0" word-spacing="0" fill="#000"/><path d="M298.43 213.34h-4.684l-10.736-12.085-2.698 2.88v9.205h-3.609V186.2h3.61v14.162l13.178-14.163h4.374l-12.121 12.76zm-30.968-24.024q1.658 1.823 2.533 4.466.893 2.643.893 5.997t-.91 6.015q-.894 2.643-2.516 4.41-1.677 1.842-3.974 2.771-2.278.93-5.213.93-2.862 0-5.213-.948-2.333-.948-3.974-2.752-1.64-1.805-2.533-4.43-.875-2.624-.875-5.996 0-3.318.875-5.942.875-2.643 2.552-4.52 1.604-1.787 3.973-2.735 2.388-.948 5.195-.948 2.916 0 5.231.966 2.333.948 3.956 2.716zm-.328 10.463q0-5.286-2.37-8.148-2.37-2.88-6.47-2.88-4.138 0-6.508 2.88-2.351 2.862-2.351 8.148 0 5.34 2.406 8.184 2.406 2.825 6.452 2.825 4.047 0 6.435-2.825 2.406-2.844 2.406-8.184z" aria-label="OK" font-weight="400" font-size="37.33" font-family="Gugi" letter-spacing="0" word-spacing="0" fill="#000"/><path fill="#fff" stroke="#000" stroke-width="2.4" d="M57.24 240.36h38.34v38.34H57.24z"/><path d="M70.04 250.47q-.9 0-.93-1.23-.04-1.27.93-1.27.6 0 1.42-.15t1.83-.4q.93-.34 1.64-1.13.71-.82 1.01-1.9.22-.6.75-.97.52-.38 1.38-.34 1.75.08 1.75 1.83v27.25q0 1.76-2.2 1.76t-2.2-1.76v-21.69z" aria-label="1" font-weight="400" font-size="37.33" font-family="Gugi" letter-spacing="0" word-spacing="0" fill="#000"/><path fill="#fff" stroke="#000" stroke-width="2.4" d="M107.24 240.36h38.34v38.34h-38.34z"/><path d="M128.63 243.68q.9 0 1.94.41 1.09.41 2.06 1.04h-.04q.97.71 1.5 1.87.52 1.12.52 2.61v3.66q0 1.94-1.5 3.66-1.49 1.68-4.25 2.99-2.84 1.3-4.33 2.72-1.46 1.42-1.46 2.88v4.07h10.64q1.42 0 1.46 1.83.07 1.94-1.46 1.94h-12.7q-1.41 0-1.86-.67-.45-.71-.45-1.6v-5.9q0-2.36 1.46-4.11 1.45-1.8 4.25-3.07 2.77-1.15 4.26-2.46 1.53-1.3 1.53-2.58v-3.02q0-.93-.6-1.72-.56-.78-1.94-.78h-2.05q-1.38 0-1.98.78-.56.79-.56 1.72v1.5q0 1.75-2.2 1.75-2.17 0-2.17-1.76v-1.83q0-1.49.53-2.6.52-1.17 1.45-1.88h-.04q.97-.63 2.02-1.04 1.08-.41 2.05-.41z" aria-label="2" font-weight="400" font-size="37.33" font-family="Gugi" letter-spacing="0" word-spacing="0" fill="#000"/><path fill="#fff" stroke="#000" stroke-width="2.4" d="M157.24 240.36h38.34v38.34h-38.34z"/><path d="M174.64 273.36q-.97 0-2.02-.37-1-.42-1.98-1.12-.97-.75-1.53-1.83-.52-1.12-.52-2.7v-2.53q0-1.76 2.2-1.76t2.2 1.76v2.24q0 .97.57 1.75.6.79 1.97.79h2.06q1.38 0 1.94-.79.6-.78.6-1.75v-4.52q0-.93-.56-1.72-.56-.82-1.98-.82h-2.65q-1.42 0-1.42-1.83 0-1.9 1.42-1.9h2.65q1.53 0 2.01-.75.53-.78.53-1.75v-3.8q0-.94-.6-1.73-.56-.78-1.94-.78h-2.06q-1.38 0-1.97.78-.56.79-.56 1.72v1.5q0 1.75-2.2 1.75t-2.2-1.76v-1.83q0-1.49.51-2.6.56-1.17 1.53-1.88h-.03q.97-.63 2.01-1.04 1.05-.41 2.02-.41h3.92q.93 0 1.98.41 1.04.41 2.01 1.04h-.03q.97.71 1.49 1.87.52 1.12.52 2.61v4.45q0 1.79-.67 2.87l-.45.64q-.22.33-.37.52l.52.9.37.4q.6.94.6 2.84v5.12q0 1.57-.52 2.69-.52 1.08-1.5 1.83-.96.7-1.97 1.12-1.01.37-1.98.37z" aria-label="3" font-weight="400" font-size="37.33" font-family="Gugi" letter-spacing="0" word-spacing="0" fill="#000"/><path fill="#fff" stroke="#000" stroke-width="2.4" d="M207.24 240.36h38.34v38.34h-38.34zm50 0h38.34v38.34h-38.34z"/><path d="M219.3 267.9q-1.27-.03-1.87-.51-.56-.53-.56-1.42v-.56q.04-.3.12-.49l5.37-19.41q.45-1.94 2.73-1.53 1.04.22 1.49.82.49.56.22 1.5l.04-.04-4.96 17.92h6.45v-18.9q0-1.79 2.17-1.79 2.24 0 2.24 1.8v18.89h1.68q1.5 0 1.46 1.86-.08 1.87-1.46 1.87h-1.68v4.25q0 1.76-2.24 1.76-2.17 0-2.17-1.76v-4.25z" aria-label="4" font-weight="400" font-size="37.33" font-family="Gugi" letter-spacing="0" word-spacing="0" fill="#000"/><path d="M274.41 273.36q-.97 0-2.01-.37-1-.42-1.98-1.12-1.98-1.46-1.98-4.52v-2.54q0-1.76 2.2-1.76 2.17 0 2.17 1.76v2.24q0 .97.56 1.75.6.79 1.98.79h2.42q1.39 0 1.95-.79.6-.78.6-1.75v-5.86q0-.94-.57-1.72-.56-.82-1.98-.82h-6.64q-1.12 0-1.76-.49-.6-.48-.6-1.68v-10.56q0-.3.08-.64.08-.33.23-.78v.08q.44-.9 2.05-.9h11.95q1.38 0 1.45 1.87.08 1.9-1.45 1.9h-9.86v7.47h5.53q1.94 0 3.95 1.45 2.02 1.35 2.02 4.52v6.46q0 1.57-.52 2.69-.53 1.08-1.5 1.83-.97.7-2.01 1.12-1.01.37-1.94.37z" aria-label="5" font-weight="400" font-size="37.33" font-family="Gugi" letter-spacing="0" word-spacing="0" fill="#000"/><path fill="#fff" stroke="#000" stroke-width="2.4" d="M107.24 290.36h38.34v38.34h-38.34zm-50 0h38.34v38.34H57.24zm150 0h38.34v38.34h-38.34zm50 0h38.34v38.34h-38.34zm-100 0h38.34v38.34h-38.34z"/><path d="M80.38 311.23q0-.94-.6-1.72-.55-.82-1.94-.82H75.8q-1.38 0-1.98.82-.56.78-.56 1.72v5.82q0 .97.56 1.75.6.79 1.98.79h2.05q1.39 0 1.95-.79.6-.78.6-1.75zm-7.13-5.8q.71-.21 1.23-.33.53-.15.75-.15h3.59q.97 0 1.97.41 1.05.42 2.02 1.09h-.04q.97.67 1.5 1.83.52 1.15.52 2.65v6.42q0 1.57-.52 2.69-.53 1.08-1.5 1.83-.97.7-1.98 1.12-1 .37-1.97.37H74.9q-1.95 0-4.04-1.46h.04q-2.05-1.42-2.05-4.55v-17.73q0-1.5.52-2.58.56-1.12 1.53-1.87h-.04q.97-.67 2.02-1.08 1.04-.41 2.02-.41h3.92q.93 0 1.97.41 1.05.41 2.02 1.05h-.04q.97.7 1.5 1.86.52 1.12.52 2.62v1.82q0 1.76-2.2 1.76t-2.2-1.76v-1.49q0-.93-.6-1.72-.56-.78-1.95-.78H75.8q-1.38 0-1.98.78-.56.79-.56 1.72z" aria-label="6" font-weight="400" font-size="37.33" font-family="Gugi" letter-spacing="0" word-spacing="0" fill="#000"/><path d="M135.32 297.34q-2.54 3.66-4.15 6.98-1.6 3.32-2.28 6.2-.63 2.76-1.08 5.78-.4 2.99-.6 5.86-.07 1.01-.74 1.46-.64.45-1.76.37-2.39-.15-2.2-1.83.19-2.72.6-5.48.4-2.8 1.04-5.6.71-2.7 2.32-6.13 1.64-3.47 4.22-7.5h-12.02q-1.35 0-1.42-1.9 0-1.87 1.42-1.87h14.56q2.38 0 2.57 1.34.08.6-.04 1.23-.1.64-.44 1.09z" aria-label="7" font-weight="400" font-size="37.33" font-family="Gugi" letter-spacing="0" word-spacing="0" fill="#000"/><path d="M168.25 312.23q.04-1 .3-1.68.3-.7.82-1.2l1.39-1.26-1.16-1.2q-.82-.93-.82-2.83v-4.45q.03-1.45.56-2.57.52-1.16 1.5-1.9h-.05q.97-.64 2.02-1.05 1.04-.41 2.02-.41h3.92q.93 0 1.97.41 1.05.41 2.02 1.04h-.04q.97.71 1.5 1.87.52 1.12.52 2.61v4.45q0 1.83-.82 2.83l-1.12 1.24 1.38 1.27q1.12.9 1.12 2.83v5.12q0 3.02-2.02 4.52-.97.7-2.01 1.12-1.01.37-1.98.37h-5.04q-.97 0-2.02-.37-1-.42-1.98-1.12-1.98-1.46-1.98-4.52zm4.93-8.47q0 .97.56 1.75.56.75 1.98.75h2.05q1.42 0 1.98-.75.56-.78.56-1.75v-3.8q0-.94-.6-1.73-.55-.78-1.94-.78h-2.05q-1.38 0-1.98.78-.56.79-.56 1.72zm-.52 13.29q0 .97.56 1.75.56.79 1.94.79h3.17q1.39 0 1.95-.79.56-.78.56-1.75v-4.52q0-.45-.12-.9-.1-.48-.4-.82-.27-.37-.75-.6-.49-.22-1.24-.22h-3.17q-.75 0-1.23.23-.49.22-.78.6-.27.33-.38.82-.11.44-.11.9z" aria-label="8" font-weight="400" font-size="37.33" font-family="Gugi" letter-spacing="0" word-spacing="0" fill="#000"/><path d="M234.68 317.35q0 1.57-.52 2.69-.52 1.08-1.5 1.79h.04q-.97.67-2.01 1.12-1.01.4-1.98.4h-3.92q-.97 0-2.02-.36-1-.42-1.98-1.12-.97-.75-1.53-1.83-.52-1.12-.52-2.7v-1.75q0-1.83 2.2-1.83t2.2 1.83v1.46q0 .97.57 1.75.6.79 1.97.79h2.06q1.38 0 1.94-.79.6-.78.6-1.75v-5.45q-1.42.45-1.98.45h-3.51q-.97 0-2.02-.38-1-.4-1.98-1.08-.97-.75-1.53-1.87-.52-1.12-.52-2.65v-6.46q0-1.49.52-2.6.56-1.17 1.53-1.88h-.03q.97-.63 2.01-1.04 1.05-.41 2.02-.41h3.92q1.94 0 4 1.42h-.04q2.01 1.42 2.01 4.51zm-4.4-17.4q0-.93-.6-1.72-.56-.78-1.94-.78h-2.06q-1.38 0-1.97.78-.56.79-.56 1.72v5.82q0 .94.56 1.72.6.79 1.97.79h2.06q1.38 0 1.94-.79.6-.78.6-1.72z" aria-label="9" font-weight="400" font-size="37.33" font-family="Gugi" letter-spacing="0" word-spacing="0" fill="#000"/><path d="M278.56 293.68q.93 0 1.98.41 1.04.41 2.01 1.04h-.03q.97.71 1.49 1.87.52 1.12.52 2.61v17.74q0 1.57-.52 2.69-.52 1.08-1.5 1.83-.96.7-1.97 1.12-1.01.37-1.98.37h-3.92q-.97 0-2.02-.37-1-.42-1.98-1.12-.97-.75-1.53-1.83-.52-1.12-.52-2.7v-17.73q0-1.49.52-2.6.56-1.17 1.53-1.88h-.03q.97-.63 2.01-1.04 1.05-.41 2.02-.41zm-.97 25.9q1.38 0 1.94-.78.6-.78.6-1.75v-17.1q0-.93-.6-1.72-.56-.78-1.94-.78h-2.06q-1.38 0-1.97.78-.56.79-.56 1.72v17.1q0 .97.56 1.75.6.79 1.97.79z" aria-label="0" font-weight="400" font-size="37.33" font-family="Gugi" letter-spacing="0" word-spacing="0" fill="#000"/></svg>