<svg xmlns="http://www.w3.org/2000/svg" viewBox="0 0 348 348" fill="none"><path d="M5.079 5.776h336.913v337.67H5.08z" stroke-width="2" stroke="#000"/><path d="M282.734 40.554c0-8.376 6.966-15.165 15.56-15.165 4.126 0 8.084 1.597 11.001 4.441 2.918 2.844 4.558 6.702 4.558 10.724 0 8.376-6.966 15.165-15.56 15.165-8.593 0-15.559-6.79-15.559-15.165z" stroke-width="2" stroke="#000"/><path fill="#fff" stroke="#000" stroke-width="1.69" stroke-linejoin="round" stroke-miterlimit="10" d="M33.4 37.102h133.396V264.03H33.4z"/><path fill="#fff" stroke="#000" stroke-width="1.6" stroke-linejoin="round" stroke-miterlimit="10" d="M32.845 284.585h135.027v37.537H32.845z"/><path fill="#fff" stroke="#000" stroke-width="1.512" stroke-linejoin="round" stroke-miterlimit="10" d="M243.946 83.244h65.209v33.428h-65.209zM243.946 127.987h65.209v33.428h-65.209zM243.946 174.616h65.209v33.428h-65.209zM243.946 221.246h65.209v33.428h-65.209z"/><path fill="#fff" stroke="#000" stroke-width="1.548" stroke-linejoin="round" stroke-miterlimit="10" d="M195.973 280.674h113.183v45.384H195.973z"/><g aria-label="Name" style="line-height:1.25;-inkscape-font-specification:'Hemi Head Italic'" font-style="italic" font-weight="400" font-size="19.45" font-family="Hemi Head" letter-spacing="0" word-spacing="0" fill="#000" stroke-width=".486"><path d="M257.467 105.576l-5.042-8.528-1.851 8.528h-2.777l2.816-13.004h2.817l4.372 7.76 1.674-7.76h2.796l-2.816 13.004zM263.299 105.576q-.749 0-1.083-.269-.335-.288-.335-.845 0-.269.098-.71l.493-2.305q.118-.538.275-.903.158-.365.394-.576.237-.212.571-.289.335-.096.808-.096h5.061l-.354 1.652h-3.624q-.276 0-.394.096t-.177.404l-.217 1.018q-.02.096-.04.153v.116q0 .25.375.25h4.608l1.044-4.764q.02-.077.02-.212 0-.153-.099-.23-.098-.096-.374-.096h-6.755l.453-2.113h8.154q.866 0 1.22.288.355.269.355.864 0 .27-.098.75l-1.694 7.817zM287.658 105.576l1.477-6.857q.02-.077.02-.134.02-.058.02-.116 0-.288-.493-.288h-2.954q-.315 0-.453.115-.138.096-.197.365l-1.497 6.915h-2.757l1.477-6.857q.02-.077.02-.134.02-.058.02-.116 0-.288-.473-.288h-2.974q-.295 0-.433.115-.138.096-.217.423l-1.477 6.857h-2.757l2.107-9.719h2.659l-.237 1.056q.71-1.056 1.95-1.056h3.328q.749 0 1.123.25t.394.806q.453-.557.906-.806.453-.25 1.083-.25h3.328q.788 0 1.162.288.374.269.374.903 0 .346-.078.71l-1.694 7.818zM294.187 105.576q-.847 0-1.22-.269-.355-.288-.355-.883 0-.27.098-.75l1.28-5.915q.217-.98.71-1.441.511-.461 1.594-.461h6.736q.748 0 1.063.288.335.269.335.826 0 .346-.079.71l-.827 3.823h-6.637l.335-1.613h4.018l.295-1.306q.02-.096.02-.25t-.099-.211q-.078-.058-.315-.058h-3.958q-.335 0-.453.115-.118.096-.197.423l-.926 4.187q-.02.096-.04.173v.115q0 .173.1.23.098.058.354.058h6.715l-.472 2.21z"/></g><g aria-label="Home" style="line-height:1.25;-inkscape-font-specification:'Hemi Head Italic'" font-style="italic" font-weight="400" font-size="20.037" font-family="Hemi Head" letter-spacing="0" word-spacing="0" fill="#000" stroke-width=".501"><path d="M259.186 151.454h-3.054l1.185-5.594h-5.325l-1.186 5.594h-3.054l2.874-13.525h3.054l-1.145 5.394h5.325l1.146-5.394h3.054zM263.239 151.454q-.844 0-1.226-.28-.362-.3-.362-.918 0-.28.1-.78l1.307-6.153q.22-1.019.723-1.498.523-.48 1.608-.48h6.913q.884 0 1.246.3.361.28.361.9 0 .279-.1.778l-1.306 6.153q-.221 1.02-.744 1.499-.502.48-1.607.48zm7.535-7.132q.04-.2.04-.24 0-.32-.542-.32h-3.979q-.321 0-.462.12-.12.1-.18.44l-.865 4.116q-.02.08-.04.14v.12q0 .279.442.279h3.979q.362 0 .522-.12.161-.12.221-.42zM288.013 151.454l1.507-7.132q.02-.08.02-.14.02-.06.02-.12 0-.3-.502-.3h-3.014q-.322 0-.463.12-.14.1-.2.38l-1.528 7.192h-2.813l1.507-7.132q.02-.08.02-.14.02-.06.02-.12 0-.3-.482-.3h-3.035q-.301 0-.442.12-.14.1-.221.44l-1.507 7.132h-2.814l2.15-10.109h2.714l-.242 1.1q.724-1.1 1.99-1.1h3.396q.764 0 1.146.26.381.26.402.84.462-.58.924-.84t1.105-.26h3.396q.804 0 1.186.3.382.28.382.939 0 .36-.08.74l-1.729 8.13zM294.676 151.454q-.864 0-1.246-.28-.362-.3-.362-.918 0-.28.1-.78l1.307-6.153q.22-1.019.723-1.498.523-.48 1.628-.48h6.873q.763 0 1.085.3.342.28.342.86 0 .359-.08.738l-.845 3.976h-6.772l.341-1.678h4.1l.301-1.359q.02-.1.02-.26t-.1-.22q-.08-.06-.321-.06h-4.04q-.341 0-.462.12-.12.1-.2.44l-.945 4.355q-.02.1-.04.18v.12q0 .18.1.24t.362.06h6.852l-.482 2.297z"/></g><g aria-label="Attribute" style="line-height:1.25;-inkscape-font-specification:'Hemi Head Italic'" font-style="italic" font-weight="400" font-size="15.81" font-family="Hemi Head" letter-spacing="0" word-spacing="0" fill="#000" stroke-width=".395"><path d="M254.215 197.332l-.093-1.989h-3.22l-.685 1.99h-1.94l4.645-12.825h2.625l.686 12.824zm-.436-10.248l-2.164 6.138h2.441zM258.394 197.332q-.555 0-.805-.265-.238-.284-.238-.871 0-.265.066-.739l1.53-10.38h1.848l-.396 2.67h1.61l-.304 2.084h-1.61l-.725 4.906q-.026.19-.026.246 0 .266.29.266h1.214l-.304 2.083zM262.903 197.332q-.554 0-.805-.265-.237-.284-.237-.871 0-.265.066-.739l1.53-10.38h1.848l-.396 2.67h1.61l-.304 2.084h-1.61l-.725 4.906q-.027.19-.027.246 0 .266.29.266h1.214l-.303 2.083zM266.16 197.332l1.411-9.585h1.795l-.158 1.042q.25-.55.554-.796.316-.246.752-.246h1.94l-.344 2.292h-2.665q-.198 0-.303.114-.093.095-.146.417l-.99 6.762zM272.179 197.332l1.411-9.585h1.848l-1.412 9.585zm1.583-10.721l.422-2.88h1.86l-.422 2.88zM275.476 197.332l2.005-13.6h1.848l-1.663 11.251h2.877q.197 0 .277-.113.092-.114.145-.417l.567-3.883q.026-.19.026-.247 0-.17-.079-.227-.066-.057-.21-.057h-2.218l.344-2.292h3.14q1.055 0 1.055 1.27 0 .132-.013.283-.013.152-.04.322l-.857 5.835q-.145.966-.501 1.42-.343.455-1.056.455zM289.04 197.332l.144-1.023q-.25.55-.567.796-.304.227-.726.227h-2.903q-.527 0-.791-.265-.251-.265-.251-.89 0-.284.066-.72l1.135-7.71h1.847l-1.003 6.763q-.026.19-.026.246 0 .303.316.303h2.652q.212 0 .304-.114.092-.113.145-.435l1.003-6.763h1.847l-1.412 9.585zM293.441 197.332q-.554 0-.805-.265-.237-.284-.237-.871 0-.265.066-.739l1.53-10.38h1.847l-.395 2.67h1.61l-.304 2.084h-1.61l-.726 4.906q-.026.19-.026.246 0 .266.29.266h1.214l-.303 2.083zM297.872 197.332q-.568 0-.818-.265-.238-.284-.238-.871 0-.265.066-.739l.858-5.835q.145-.966.475-1.42.343-.455 1.068-.455h4.513q.501 0 .712.284.225.265.225.815 0 .34-.053.7l-.554 3.77h-4.447l.225-1.59h2.691l.198-1.289q.013-.095.013-.246 0-.152-.066-.209-.052-.056-.21-.056h-2.653q-.224 0-.303.113-.08.095-.132.417l-.62 4.13-.027.17v.114q0 .17.066.227.066.057.238.057h4.499l-.317 2.178z"/></g><g aria-label="Faction" style="line-height:1.25;-inkscape-font-specification:'Hemi Head Italic'" font-style="italic" font-weight="400" font-size="17.376" font-family="Hemi Head" letter-spacing="0" word-spacing="0" fill="#000" stroke-width=".434"><path d="M251.163 238.115l-.909 5.095h-2.502l1.673-9.357h2.503l-.383 2.121h4.065l-.383 2.14zm-1.578-5.21l.446-2.52h7.986l-.447 2.52zM258.072 243.21q-.606 0-.877-.265-.271-.284-.271-.833 0-.266.08-.701l.398-2.273q.096-.53.223-.89.128-.36.32-.569.19-.208.461-.284.271-.095.654-.095h4.096l-.287 1.63h-2.933q-.223 0-.318.094-.096.095-.144.398l-.175 1.004q-.016.094-.032.151v.114q0 .246.303.246h3.73l.844-4.698q.016-.075.016-.208 0-.152-.08-.227-.08-.095-.302-.095h-5.467l.366-2.084h6.599q.701 0 .988.284.287.266.287.853 0 .265-.08.739l-1.37 7.71zM268.222 243.21q-.669 0-.972-.265-.287-.284-.287-.871 0-.265.08-.739l1.036-5.834q.175-.967.574-1.421.414-.455 1.275-.455h5.69l-.414 2.33h-4.543q-.27 0-.366.095-.096.095-.16.417l-.685 3.826q-.016.076-.032.133v.113q0 .285.366.285h4.543l-.414 2.386zM276.909 243.21q-.67 0-.973-.265-.287-.284-.287-.871 0-.265.08-.739l1.85-10.38h2.23l-.478 2.67h1.945l-.367 2.084h-1.944l-.877 4.906q-.032.19-.032.246 0 .266.35.266h1.467l-.366 2.083zM280.922 243.21l1.706-9.585h2.231l-1.706 9.585zm1.913-10.721l.51-2.88h2.247l-.51 2.88zM286.372 243.21q-.67 0-.973-.265-.287-.284-.287-.871 0-.265.08-.739l1.036-5.834q.176-.967.574-1.421.414-.455 1.275-.455h5.483q.701 0 .988.284.287.266.287.853 0 .265-.08.739l-1.035 5.834q-.176.966-.59 1.42-.399.455-1.275.455zm5.977-6.762q.032-.19.032-.228 0-.303-.43-.303h-3.157q-.255 0-.366.114-.096.095-.144.417l-.685 3.902q-.016.076-.032.133v.113q0 .265.35.265h3.157q.286 0 .414-.113.128-.114.175-.398zM301.431 243.21l1.195-6.762q.032-.19.032-.228 0-.303-.398-.303h-3.331q-.24 0-.351.114-.112.095-.175.417l-1.196 6.762h-2.231l1.705-9.585h2.152l-.191 1.042q.574-1.042 1.578-1.042h3.618q.653 0 .94.265.303.266.303.89 0 .36-.064.72l-1.37 7.71z"/></g><g aria-label="Restore" style="line-height:1.25;-inkscape-font-specification:'Hemi Head Italic'" font-style="italic" font-weight="400" font-size="26.674" font-family="Hemi Head" letter-spacing="0" word-spacing="0" fill="#000" stroke-width=".667"><path d="M214.318 311.506l1.12-6.457q.025-.146.025-.234.024-.117.024-.205 0-.467-.682-.467h-5.332l-1.291 7.363h-3.701l2.556-14.463h3.702l-.682 3.827h5.065q.536 0 .706-.204.195-.205.317-.818l.584-3.214q.025-.146.025-.263.024-.117.024-.205 0-.35-.17-.467-.171-.117-.585-.117h-8.742l.682-3.857h10.47q1.267 0 1.827.555.56.526.56 1.636 0 .263-.048.555-.025.293-.073.614l-.755 4.295q-.268 1.52-.974 2.162-.707.614-1.559.73.78.06 1.315.44.536.35.536 1.285v.321q0 .146-.049.322l-1.193 6.866zM222.673 311.506q-1.047 0-1.51-.409-.438-.438-.438-1.344 0-.41.122-1.14l1.583-8.999q.268-1.49.877-2.191.633-.702 1.972-.702h8.328q.925 0 1.315.439.414.409.414 1.256 0 .526-.097 1.081l-1.023 5.815h-8.206l.414-2.455h4.967l.365-1.987q.025-.146.025-.38 0-.233-.122-.32-.097-.088-.39-.088h-4.894q-.414 0-.56.175-.146.146-.244.643l-1.144 6.37q-.025.145-.049.262v.176q0 .263.122.35.122.088.438.088h8.304l-.584 3.36zM235.56 311.506l.584-3.39h8.45q.39 0 .511-.145.147-.146.22-.556l.267-1.46q.025-.088.025-.234 0-.38-.487-.38h-6.6q-.827 0-1.217-.38-.365-.409-.365-1.081 0-.292.073-.643l.682-3.944q.219-1.315.828-1.929.608-.643 1.899-.643h10.179l-.585 3.302h-8.4q-.39 0-.56.175-.171.176-.244.614l-.22 1.227q-.024.088-.024.263 0 .468.511.468h6.673q.852 0 1.217.409.39.409.39 1.08 0 .147-.024.293 0 .146-.025.292l-.73 4.09q-.244 1.316-.853 1.958-.608.614-1.9.614zM252.973 311.506q-1.023 0-1.485-.409-.439-.438-.439-1.344 0-.41.122-1.14l2.825-16.012h3.41l-.731 4.12h2.97l-.56 3.214h-2.97l-1.34 7.568q-.049.292-.049.38 0 .409.536.409h2.24l-.56 3.214zM261.248 311.506q-1.023 0-1.486-.409-.438-.438-.438-1.344 0-.41.122-1.14l1.582-8.999q.268-1.49.877-2.191.633-.702 1.948-.702h8.377q1.071 0 1.51.439.438.409.438 1.314 0 .41-.122 1.14l-1.583 9q-.267 1.49-.9 2.19-.61.702-1.949.702zm9.131-10.431q.049-.292.049-.35 0-.468-.657-.468h-4.822q-.39 0-.56.175-.146.146-.22.643l-1.046 6.019q-.025.117-.05.205v.175q0 .409.537.409h4.821q.439 0 .633-.175.195-.176.268-.614zM274.393 311.506l2.605-14.785h3.312l-.292 1.607q.462-.847 1.023-1.227.584-.38 1.388-.38h3.58l-.634 3.536h-4.919q-.365 0-.56.175-.17.146-.268.643l-1.826 10.431zM287.546 311.506q-1.047 0-1.51-.409-.438-.438-.438-1.344 0-.41.122-1.14l1.583-8.999q.268-1.49.877-2.191.633-.702 1.972-.702h8.328q.925 0 1.315.439.414.409.414 1.256 0 .526-.097 1.081l-1.023 5.815h-8.206l.414-2.455h4.967l.365-1.987q.025-.146.025-.38 0-.233-.122-.32-.097-.088-.39-.088h-4.894q-.414 0-.56.175-.146.146-.244.643l-1.144 6.37q-.025.145-.049.262v.176q0 .263.122.35.122.088.438.088h8.304l-.584 3.36z"/></g></svg>