<svg viewBox="0 0 1450 1450" xmlns="http://www.w3.org/2000/svg" fill-rule="evenodd" clip-rule="evenodd"><path d="M21.163 24.067H1424.97V1431.03H21.167L21.163 24.067z" fill="none" stroke="#000" stroke-width="8.33"/><path d="M1178.06 168.975c0-34.9 29.02-63.187 64.83-63.187 17.19 0 33.69 6.654 45.84 18.504 12.16 11.85 18.99 27.925 18.99 44.683 0 34.9-29.02 63.188-64.83 63.188s-64.83-28.292-64.83-63.188h0zm-351.593 613.78c0-34.9 29.025-63.188 64.833-63.188 17.192 0 33.684 6.654 45.838 18.504 12.158 11.85 18.992 27.925 18.992 44.684 0 34.9-29.026 63.187-64.834 63.187-35.804 0-64.83-28.291-64.83-63.187h.001z" fill="none" stroke="#000" stroke-width="8.33"/><path d="M81.863 234.267h350.269v350.268H81.862l.001-350.268zm0 785.523h350.269v350.27H81.862l.001-350.27z" fill="none" stroke="#000" stroke-width="10.42" stroke-miterlimit="1.5"/><path d="M133.054 341.001c-.958-2.396-5.031-5.031-7.906-5.031h-7.667c-6.708 0-10.542 5.99-7.906 11.98 10.302 23.957 20.844 47.676 31.146 71.634v69.24c0 4.792 3.833 8.625 8.385 8.625h6.708a8.59 8.59 0 008.625-8.625v-69l30.907-71.875c2.395-5.99-1.438-11.979-7.907-11.979h-7.906c-2.635 0-6.708 2.635-7.906 5.031l-19.167 44.084L133.054 341zM208.762 453.366c0 25.396 10.542 43.843 39.292 43.843 27.792 0 39.292-17.01 39.292-43.843v-109.01a8.59 8.59 0 00-8.625-8.626h-6.709c-4.552 0-8.385 3.834-8.385 8.625v109.01c0 11.5-3.354 20.126-15.573 20.126-11.74 0-15.573-7.427-15.573-20.125v-109.01a8.59 8.59 0 00-8.625-8.626h-6.708c-4.552 0-8.386 3.834-8.386 8.625v109.01zM353.47 497.449c3.594 0 7.427-3.115 8.386-6.948l7.906-53.187v51.51a8.59 8.59 0 008.625 8.625h6.708a8.59 8.59 0 008.625-8.625V344.595a8.59 8.59 0 00-8.625-8.625h-7.187c-3.594 0-7.667 3.115-8.386 6.708l-18.687 96.552-18.927-96.552c-.72-3.593-4.552-6.708-8.146-6.708h-7.188a8.59 8.59 0 00-8.625 8.625v144.229a8.59 8.59 0 008.625 8.625h6.709c4.552 0 8.625-3.833 8.625-8.625v-51.99l8.146 53.907c.718 3.593 4.552 6.708 8.145 6.708h5.271zM135.619 1126.362c-.958-2.396-5.031-5.031-7.906-5.031h-7.667c-6.708 0-10.542 5.99-7.906 11.98 10.302 23.957 20.844 47.676 31.146 71.634v69.24c0 4.792 3.833 8.625 8.385 8.625h6.708a8.59 8.59 0 008.625-8.625v-69l30.907-71.875c2.395-5.99-1.438-11.979-7.907-11.979h-7.906c-2.635 0-6.708 2.635-7.906 5.031l-19.167 44.084-19.406-44.084zM211.327 1238.727c0 25.396 10.542 43.843 39.292 43.843 27.792 0 39.292-17.01 39.292-43.843v-109.01a8.59 8.59 0 00-8.625-8.626h-6.709c-4.552 0-8.385 3.834-8.385 8.625v109.01c0 11.5-3.354 20.126-15.573 20.126-11.74 0-15.573-7.427-15.573-20.125v-109.01a8.59 8.59 0 00-8.625-8.626h-6.708c-4.552 0-8.386 3.834-8.386 8.625v109.01zM334.712 1181.706v-51.75a8.59 8.59 0 00-8.625-8.625h-6.708a8.59 8.59 0 00-8.625 8.625v144.229a8.59 8.59 0 008.625 8.625h6.708a8.59 8.59 0 008.625-8.625v-47.437l2.875-4.313 32.104 56.063c1.198 2.156 5.032 4.312 7.427 4.312h7.667c7.188 0 11.021-6.708 7.667-12.937l-40.25-70.917 40.01-64.448c3.834-6.23 0-13.177-7.427-13.177h-8.146c-2.396 0-5.99 2.156-7.187 4.073l-34.74 56.302z" fill-rule="nonzero"/><g transform="translate(102.415 -117.034) scale(4.16667)"><circle cx="189.332" cy="215.95" r="113.328" fill="none" stroke="#000" stroke-width="2.5" stroke-miterlimit="1.5"/></g><path d="M887.698 502.528c-10.973 5.242-20.984 12.087-31.553 17.964-9.873 5.49-20.254 10.125-32.616 11.365-13.074 1.31-28.462-.15-43.38.203-16.19.384-31.808 2.93-43.96 12.13-9.365 7.09-14.354 19.373-16.702 33.356-3.192 19.004-1.664 41.162-2.54 54.86-1.983 30.996-3.325 64.154-15.078 93.213-7.01 17.335-16.58 32.929-24.516 49.102-8.313 16.939-14.859 34.497-15.416 55.048-.916 33.792 11.492 52.86 27.318 69.726 14.67 15.634 32.575 29.157 44.255 52.382 9.519 18.93 11.8 39.84 14.53 60.633 2.897 22.06 6.28 43.99 17.853 63.67 10.89 18.53 29.69 30.92 51.434 38.17 31.726 10.58 69.679 10.23 96.908 3.11 27.678-7.23 55.51-22.17 79.584-37.42 64.941-41.13 126.071-119.457 126.891-200.003.15-15.096-4.04-29.267-8.41-43.333-4.07-13.081-8.31-26.064-8.56-39.774-.21-11.156 3.38-21.918 6.58-32.664 3.56-11.962 6.66-23.902 5.1-36.159-1.4-11.079-7.71-20.28-14.05-29.465-5.33-7.723-10.74-15.415-11.41-24.987-1.18-16.957 6.6-34.34 13.95-53.232 7.93-20.375 15.51-42.341 13.37-66.892-2.3-26.418-22.41-61.947-48.79-85.41-18.02-16.03-38.92-26.338-58.86-25.105-21.775 1.345-44.895 12.637-66.518 25.667-20.714 12.481-40.04 26.5-55.414 33.845zm4.49 9.399c15.612-7.459 35.267-21.648 56.3-34.322 20.124-12.127 41.52-22.94 61.792-24.193 17.44-1.077 35.51 8.46 51.29 22.491 24.31 21.63 43.21 54.179 45.33 78.532 1.99 22.851-5.32 43.246-12.7 62.21-7.96 20.447-15.91 39.38-14.63 57.733.8 11.483 6.83 20.917 13.23 30.183 5.39 7.801 11.1 15.445 12.29 24.856 1.37 10.818-1.61 21.32-4.75 31.878-3.51 11.773-7.24 23.605-7.02 35.83.28 14.696 4.67 28.647 9.03 42.67 4.05 13.039 8.08 26.145 7.94 40.137-.78 77.168-59.82 151.898-122.045 191.308-23.197 14.69-49.974 29.18-76.643 36.15-25.563 6.67-61.194 7.01-90.979-2.92-19.262-6.43-36.103-17.15-45.751-33.56-10.847-18.46-13.788-39.08-16.504-59.76-2.884-21.948-5.503-43.971-15.551-63.952-9.833-19.55-23.72-32.68-36.81-45.55-18.118-17.812-34.645-35.107-33.657-71.598.514-18.956 6.686-35.115 14.354-50.74 8.043-16.393 17.715-32.214 24.823-49.785 12.165-30.08 13.763-64.369 15.815-96.454.86-13.434-.71-35.165 2.418-53.8 1.865-11.112 5.275-21.142 12.717-26.777 10.451-7.91 23.996-9.691 37.919-10.02 15.19-.36 30.86 1.083 44.171-.253 13.873-1.39 25.563-6.464 36.64-12.624 10.383-5.774 20.202-12.52 30.982-17.67h-.001z"/></svg>