<svg xmlns="http://www.w3.org/2000/svg" viewBox="0 0 348 348"><g transform="translate(-183.286 -283.45)"><path d="M183.286 283.449h348v348h-348z" fill="none"/><path d="M188.364 289.224h336.914v337.67H188.364z" fill="none"/><path d="M188.364 289.224h336.914v337.67H188.364z" fill="#fff" stroke="#000" stroke-width="2" stroke-linejoin="round" stroke-miterlimit="10"/><path d="M466.02 324.002c0-8.375 6.966-15.165 15.56-15.165 4.126 0 8.083 1.598 11.001 4.442 2.918 2.844 4.557 6.701 4.557 10.723 0 8.376-6.966 15.166-15.559 15.166s-15.559-6.79-15.559-15.166z" fill="#fff"/><path d="M466.02 324.002c0-8.375 6.966-15.165 15.56-15.165 4.126 0 8.083 1.598 11.001 4.442 2.918 2.844 4.557 6.701 4.557 10.723 0 8.376-6.966 15.166-15.559 15.166s-15.559-6.79-15.559-15.166z" fill="none" stroke="#000" stroke-width="2" stroke-linejoin="round" stroke-miterlimit="10"/><path d="M203.013 307.047H324.94v37.586H203.013zm129.423.65h121.928v37.586H332.437z" fill="#fff" stroke="#000" stroke-width="1.669" stroke-linejoin="round" stroke-miterlimit="10"/><text transform="scale(1.01547 .98477)" style="line-height:125%;-inkscape-font-specification:Arial;text-align:center" x="259.655" y="341.365" font-size="29.296" font-family="Arial" letter-spacing="0" word-spacing="0" text-anchor="middle" stroke-miterlimit="10"><tspan x="259.655" y="341.365">SUBMIT</tspan></text><text y="342.026" x="387.107" style="line-height:125%;-inkscape-font-specification:Arial;text-align:center" transform="scale(1.01547 .98477)" font-size="29.296" font-family="Arial" letter-spacing="0" word-spacing="0" text-anchor="middle" stroke-miterlimit="10"><tspan y="342.026" x="387.107">SUBMIT</tspan></text><rect rx="1.028" y="405.244" x="194.461" height="208.118" width="312.828"/><path d="M205.574 417.393h90.287v37.815h-90.287z" fill="#fff" stroke="#000" stroke-width="1.44" stroke-linejoin="round" stroke-miterlimit="10"/><text transform="scale(.86806 1.152)" style="line-height:125%;-inkscape-font-specification:Arial;text-align:center" x="287.875" y="387.769" font-size="25.243" font-family="Arial" letter-spacing="0" word-spacing="0" text-anchor="middle" stroke-miterlimit="10"><tspan x="287.875" y="387.769">THIS</tspan></text><path d="M304.105 417.393h90.287v37.815h-90.287z" fill="#fff" stroke="#000" stroke-width="1.44" stroke-linejoin="round" stroke-miterlimit="10"/><text y="387.769" x="401.382" style="line-height:125%;-inkscape-font-specification:Arial;text-align:center" transform="scale(.86806 1.152)" font-size="25.243" font-family="Arial" letter-spacing="0" word-spacing="0" text-anchor="middle" stroke-miterlimit="10"><tspan y="387.769" x="401.382">ONE</tspan></text><path d="M404.262 417.393h90.287v37.815h-90.287z" fill="#fff" stroke="#000" stroke-width="1.44" stroke-linejoin="round" stroke-miterlimit="10"/><text y="387.769" x="516.763" style="line-height:125%;-inkscape-font-specification:'Arial, Normal';text-align:center" transform="scale(.86806 1.152)" font-size="25.242" font-family="Arial" letter-spacing="0" word-spacing="0" text-anchor="middle" stroke-miterlimit="10"><tspan x="516.763" y="387.769">BOMB</tspan></text><path d="M206.4 466.938h90.287v37.815h-90.288z" fill="#fff" stroke="#000" stroke-width="1.44" stroke-linejoin="round" stroke-miterlimit="10"/><text transform="scale(.86806 1.152)" style="line-height:125%;-inkscape-font-specification:'Arial, Normal';text-align:center" x="288.826" y="430.777" font-size="25.242" font-family="Arial" letter-spacing="0" word-spacing="0" text-anchor="middle" stroke-miterlimit="10"><tspan x="288.826" y="430.777">DVI-D</tspan></text><path d="M304.93 466.938h90.288v37.815H304.93zm100.157 0h90.288v37.815h-90.288z" fill="#fff" stroke="#000" stroke-width="1.44" stroke-linejoin="round" stroke-miterlimit="10"/><text y="430.777" x="517.714" style="line-height:125%;-inkscape-font-specification:'Arial, Normal';text-align:center" transform="scale(.86806 1.152)" font-size="25.242" font-family="Arial" letter-spacing="0" word-spacing="0" text-anchor="middle" stroke-miterlimit="10"><tspan x="517.714" y="430.777">SUBMIT</tspan></text><path d="M206.21 563.117h90.288v37.814h-90.287z" fill="#fff" stroke="#000" stroke-width="1.44" stroke-linejoin="round" stroke-miterlimit="10"/><text transform="scale(.86806 1.152)" style="line-height:125%;-inkscape-font-specification:'Arial, Normal';text-align:center" x="288.608" y="514.265" font-size="25.242" font-family="Arial" letter-spacing="0" word-spacing="0" text-anchor="middle" stroke-miterlimit="10"><tspan x="288.608" y="514.265">WIRE</tspan></text><path d="M304.742 563.117h90.287v37.814h-90.287z" fill="#fff" stroke="#000" stroke-width="1.44" stroke-linejoin="round" stroke-miterlimit="10"/><text y="514.265" x="402.116" style="line-height:125%;-inkscape-font-specification:'Arial, Normal';text-align:center" transform="scale(.86806 1.152)" font-size="25.242" font-family="Arial" letter-spacing="0" word-spacing="0" text-anchor="middle" stroke-miterlimit="10"><tspan x="402.116" y="514.265">THING</tspan></text><path d="M404.899 563.117h90.287v37.814H404.9z" fill="#fff" stroke="#000" stroke-width="1.44" stroke-linejoin="round" stroke-miterlimit="10"/><text y="514.265" x="517.497" style="line-height:125%;-inkscape-font-specification:Arial;text-align:center" transform="scale(.86806 1.152)" font-size="25.243" font-family="Arial" letter-spacing="0" word-spacing="0" text-anchor="middle" stroke-miterlimit="10"><tspan y="514.265" x="517.497">BOB</tspan></text><path d="M205.798 514.934h90.287v37.814h-90.287z" fill="#fff" stroke="#000" stroke-width="1.44" stroke-linejoin="round" stroke-miterlimit="10"/><text transform="scale(.86806 1.152)" style="line-height:125%;-inkscape-font-specification:'Arial, Normal';text-align:center" x="288.133" y="472.44" font-size="25.242" font-family="Arial" letter-spacing="0" word-spacing="0" text-anchor="middle" stroke-miterlimit="10"><tspan x="288.133" y="472.44">BOOM</tspan></text><path d="M304.329 514.934h90.288v37.814h-90.288z" fill="#fff" stroke="#000" stroke-width="1.44" stroke-linejoin="round" stroke-miterlimit="10"/><text y="472.44" x="401.641" style="line-height:125%;-inkscape-font-specification:'Arial, Normal';text-align:center" transform="scale(.86806 1.152)" font-size="25.242" font-family="Arial" letter-spacing="0" word-spacing="0" text-anchor="middle" stroke-miterlimit="10"><tspan x="401.641" y="472.44">SWITCH</tspan></text><path d="M404.486 514.934h90.288v37.814h-90.288z" fill="#fff" stroke="#000" stroke-width="1.44" stroke-linejoin="round" stroke-miterlimit="10"/><text y="472.44" x="517.021" style="line-height:125%;-inkscape-font-specification:'Arial, Normal';text-align:center" transform="scale(.86806 1.152)" font-size="25.242" font-family="Arial" letter-spacing="0" word-spacing="0" text-anchor="middle" stroke-miterlimit="10"><tspan x="517.021" y="472.44">SEA</tspan></text></g></svg>