<svg xmlns="http://www.w3.org/2000/svg" xml:space="preserve" viewBox="0 0 600 600"><path fill="none" stroke="#000" stroke-width="5.43" d="M5.27 5.28h589.69v589.68H5.26z"/><path fill="none" stroke="#000" stroke-linejoin="round" stroke-width="4" d="M396.65 34.86h175.18v87.6H396.65z"/><path d="M296.1 93.01h-8.52v16.16h-7.4V93.01h-27.5v-8.87l27.8-32.39h7.1v35.1h8.53zm-15.92-6.17V60.93l-22.25 25.91zm64.82-6.4q0 15.47-4.86 22.72-4.82 7.2-15 7.2-10.33 0-15.11-7.32-4.75-7.33-4.75-22.52 0-15.31 4.82-22.6 4.82-7.33 15.04-7.33 10.34 0 15.08 7.45 4.78 7.4 4.78 22.4zm-10.14 17.51q1.35-3.12 1.81-7.33.5-4.24.5-10.18 0-5.86-.5-10.18-.46-4.32-1.85-7.32-1.35-2.97-3.7-4.48-2.31-1.5-5.98-1.5-3.62 0-6.01 1.5-2.36 1.5-3.74 4.55-1.31 2.86-1.82 7.44-.46 4.6-.46 10.07 0 6.02.43 10.06.42 4.05 1.8 7.25 1.28 3.01 3.6 4.6 2.35 1.57 6.2 1.57 3.63 0 6.02-1.5 2.39-1.5 3.7-4.55z" aria-label="40" style="-inkscape-font-specification:sans-serif"/><path fill="none" stroke="#000" stroke-linecap="round" stroke-linejoin="round" stroke-width="4" d="m396.8 122.31 38.19-87.3m3.7 87.3 38.2-87.3m3.69 87.3 38.2-87.3m-291.09-.51h144.63v89.39H227.69zm295.21 87.81 38.19-87.3"/><path fill="none" stroke="#000" stroke-linejoin="round" stroke-width="4" d="M29.99 35.77h175.18v87.6H30z"/><path fill="none" stroke="#000" stroke-linecap="round" stroke-linejoin="round" stroke-width="4" d="m30.13 123.22 38.2-87.3m3.7 87.3 38.2-87.3m3.69 87.3 38.2-87.3m4.11 87.3 38.2-87.3"/><rect width="552.29" height="368.43" x="23.07" y="166.56" fill="none" stroke="#000" stroke-width="4" ry="26.26"/><rect width="196.87" height="78.24" x="192.73" y="183.27" fill="none" stroke="#000" stroke-miterlimit="3.2" stroke-width="4.34" ry="19.15"/><path d="M434.76 209.33q0 5.33-5.57 8.97-5.33 3.5-12.58 3.5-3.21 0-5.52-1.1-2.25-1.1-5.95-4.27l5.76-9.98q1.63 3.98 6.29 3.98 2.83 0 4.41-1.1 1.64-1.1 1.64-3.46 0-1.63-3.99-2.93-6.05-1.96-7.4-2.73-3.97-2.21-3.97-6 0-4.08 4.75-6.96 4.75-2.93 10.6-2.93 3.46 0 5.77.72 2.3.67 4.9 2.64l-5.43 7.97q-.43-1.68-1.54-2.7-1.1-1-2.88-1-1.92 0-3.31.82-1.34.77-1.34 2.35 0 1.3 3.98 2.54 5.23 1.64 7.4 3.27 3.98 2.97 3.98 8.4zm26.88 7.1q-2.21 2.16-4.47 3.12-2.25 1-5.13 1-6.58 0-11.1-5.03-4.46-5.09-4.46-12.43 0-7.73 3.65-12.96 3.89-5.57 10.03-5.57 2.5 0 3.56.2 1.05.14 3.02 1v13.44q-1.1-.72-2.78-.72-2.3 0-4.04 1.15-1.68 1.15-1.68 3.17 0 1.63 1.59 2.78 1.58 1.16 3.89 1.16 1.2 0 2.1-.34.97-.38 1.6-1.4zm30.24-14.54q0 2.45-.77 5.66-1.25 5.19-3.8 8.3-3.5 4.28-8.97 4.28-6.14 0-10.37-4.95-4.22-4.94-4.22-11.9 0-7.78 3.93-13.2 4.18-5.76 10.66-5.76 5.8 0 9.65 5.14 3.89 5.13 3.89 12.43zm-8.79-3.46q0-1.58-1.05-2.73-1.06-1.16-2.55-1.16-2.11 0-3.89 1.73-2.01 1.97-2.01 5.04 0 1.78 1 2.98 1.06 1.15 2.65 1.15 2.01 0 3.93-2.3 1.92-2.3 1.92-4.7zm43.3 11.19-10.13 11.32-11.8-13.05-2.74 11.66h-6.87l-1.05-32.97q1.92-1.2 4.75-1.88 2.88-.67 6-.67 6.53 0 10.6 2.5 4.37 2.69 4.37 7.39 0 2.83-1.77 5.23-1.78 2.35-5.04 4.18zm-17.81-13.16q0-1.44-1.25-2.5-1.25-1.05-2.83-1.05-.86 0-1.68.48l1.1 7.1q.58.1.82.1 1.54 0 2.69-1.2t1.15-2.93zM548.7 185l-.24 12.72-12.2.43v3.7l6.77-.24v4.37l-5.37.48v3.4l10.13.25.67 6.33-18.77 3.94-.96-33.65z" aria-label="score"/><path d="M446.53 248.25q0 4.02-2.78 7.07-2.42 2.7-7.97 5.27 2.57 1.87 4.23 5.06 1.66 3.12 1.66 6.31 0 5.97-4.92 9.64-5.4 4.02-15.94 4.02-4.93 0-8.32-1.1-3.4-1.05-7.56-4.17l7.49-13.59q2.28 3.12 5.13 4.86 2.9 1.66 5.75 1.66 2.22 0 3.47-1.25 1.31-1.31 1.31-2.91 0-2.22-2.56-4.3-2.57-2.15-6.73-3.81l4.72-2.64q2.56-1.66 2.56-3.25 0-1.8-1.04-3.2-1.31-1.73-3.74-1.73-2.7 0-5.96 1.46-2.5 1.1-6.45 3.6l-1.18-19.69q6.8-2.28 14.56-2.28 10.54 0 17.4 4.02 6.87 3.95 6.87 10.95z" aria-label="3"/><rect width="104.68" height="85.71" x="213.5" y="323.93" fill="none" stroke="#000" stroke-miterlimit="3.2" stroke-width="2.87" ry="11.46" transform="matrix(.98 .2 -.3 .95 0 0)"/><path fill="none" stroke="#000" stroke-miterlimit="3.2" stroke-width="2.01" d="M213.1 195.2v1.63h.63c2 .04 2.65.14 2.93.5.21.3.21.38.21 2.15v16.6c0 1.78 0 1.85-.2 2.16-.29.35-.95.5-2.94.5h-.62v1.63h12.65c6.03 0 9.66-2.55 9.66-6.83 0-3.5-2.2-5.48-6.97-6.32a7.52 7.52 0 0 0 3.34-1.32 5.77 5.77 0 0 0 2.3-4.53 5.9 5.9 0 0 0-3.41-5.34c-1.26-.56-3-.84-5.06-.84zm7.68 11.33v-7.95c0-1.36.45-1.71 2.3-1.75h1.4c1.6 0 2.92.28 3.65.74 1.26.76 1.92 2.23 1.92 4.18 0 3.45-1.67 4.78-6.17 4.78zm0 1.64h3.06c5.34 0 7.3 1.43 7.3 5.26 0 2.23-.77 3.84-2.13 4.5-1.09.56-2.55.8-4.75.8h-1.46c-1.74 0-2.1-.35-2.02-2.2zm25.03 0h2.02c3.53.14 4.92 1.56 5.3 5.4l.18 1.78c.42 3.94 1.7 5.54 4.46 5.54 2.86 0 4.22-1.92 4.33-6.1h-1.47c-.14 2.4-.56 3.45-1.5 3.45-.8 0-1.15-.59-1.74-3l-.56-2.2c-.77-3.2-2.13-4.67-4.85-5.36 5.02-.7 7.43-2.72 7.43-6.24 0-3.98-3.35-6.25-9.2-6.25h-12.07v1.64h.63c1.99.04 2.65.14 2.93.5.2.3.2.38.2 2.15v16.64c0 1.74 0 1.8-.2 2.16-.28.35-.94.45-2.93.45h-.63v1.64h11.44v-1.64h-.63c-1.99 0-2.65-.1-2.93-.45-.2-.35-.2-.42-.2-2.16zm0-1.64v-7.67c-.07-1.92.1-2.06 2.4-2.03h1.9c3.44 0 5.01 1.47 5.01 4.64 0 1.78-.45 3.14-1.36 3.87-.87.73-2.44 1.19-4.11 1.19zm30.1-11.86c-3.11 0-5.76.98-7.89 2.93a13.93 13.93 0 0 0-4.25 10.22c0 3.9 1.6 7.7 4.25 10.14a11.2 11.2 0 0 0 7.74 2.93c6.84 0 12-5.65 12-13.1 0-7.4-5.16-13.12-11.86-13.12zm-.04 1.64a6.43 6.43 0 0 1 5.54 3c1.3 2.06 1.75 4.18 1.75 8.47 0 4.26-.46 6.38-1.75 8.48a6.36 6.36 0 0 1-5.65 3 6.3 6.3 0 0 1-5.65-3c-1.32-2.1-1.74-4.22-1.74-8.55 0-4.22.45-6.3 1.74-8.4 1.3-2.02 3.14-3 5.76-3zm21.3-1.12H290v1.64h.87c1.99.07 2.65.32 3.2 1.15v14.82c0 4.75-.65 5.76-4.04 5.93v1.64h9.94v-1.64c-3.35-.17-4-1.18-4-5.93v-12.93l15.54 20.99h1.47v-18.1c0-4.74.66-5.75 4.04-5.93v-1.64h-9.93v1.64c3.34.18 4 1.15 4 5.93v10.95zm42.09-.24h-1.33l-1.4 2.06c-2.54-1.85-3.83-2.34-6.23-2.34-3.31 0-6.14 1.4-8.48 4.19a13.52 13.52 0 0 0-3.27 9.17c0 7.53 4.91 12.86 11.78 12.86 5.58 0 9.14-3.27 9.94-9.13l-1.64-.28c-.94 5.2-3.59 7.77-7.88 7.77-5.16 0-7.6-3.55-7.6-11.08 0-3.98.52-6.6 1.7-8.69a6.27 6.27 0 0 1 5.48-3.17c2.44 0 4.6 1.3 5.93 3.52.66 1.15 1.15 2.44 1.99 5.2h1.53zm16.46-.28c-3.1 0-5.76.98-7.88 2.93a13.93 13.93 0 0 0-4.26 10.22c0 3.9 1.6 7.7 4.26 10.14a11.2 11.2 0 0 0 7.74 2.93c6.83 0 12-5.65 12-13.1 0-7.4-5.17-13.12-11.86-13.12zm-.04 1.64a6.43 6.43 0 0 1 5.55 3c1.29 2.06 1.74 4.18 1.74 8.47 0 4.26-.45 6.38-1.74 8.48a6.36 6.36 0 0 1-5.65 3 6.3 6.3 0 0 1-5.65-3c-1.33-2.1-1.75-4.22-1.75-8.55 0-4.22.46-6.3 1.75-8.4 1.29-2.02 3.14-3 5.75-3zM226.5 226.58h-20.9l-.51 9.69h1.5c.24-1.74.52-3.07.94-4.18.9-2.58 2.58-3.87 4.95-3.87 1.15 0 1.64.38 1.64 1.25v18c0 1.77 0 1.84-.21 2.15-.28.35-.94.5-2.93.5h-.9v1.63h11.95v-1.64h-.9c-1.96 0-2.62-.14-2.9-.49-.2-.31-.2-.38-.2-2.16v-17.99c0-.87.48-1.26 1.63-1.26a4.96 4.96 0 0 1 4.7 3.28c.53 1.3.88 2.8 1.16 4.78h1.5zm10.32 12.97h2.02c3.52.14 4.91 1.57 5.3 5.4l.17 1.78c.42 3.94 1.71 5.54 4.47 5.54 2.85 0 4.21-1.91 4.32-6.1h-1.47c-.13 2.4-.55 3.45-1.5 3.45-.8 0-1.15-.59-1.74-3l-.56-2.2c-.76-3.2-2.12-4.66-4.84-5.36 5.02-.7 7.42-2.72 7.42-6.24 0-3.98-3.34-6.24-9.2-6.24h-12.07v1.63h.63c1.99.04 2.65.14 2.93.5.21.3.21.38.21 2.15v16.64c0 1.74 0 1.81-.2 2.16-.29.35-.95.45-2.94.45h-.63v1.64h11.44v-1.64h-.63c-1.98 0-2.65-.1-2.92-.45-.21-.35-.21-.42-.21-2.16zm0-1.64v-7.67c-.07-1.92.1-2.06 2.4-2.03h1.88c3.46 0 5.03 1.47 5.03 4.64 0 1.78-.46 3.14-1.36 3.87-.88.74-2.44 1.19-4.12 1.19zm30.09-11.86c-3.1 0-5.76.98-7.88 2.93a13.93 13.93 0 0 0-4.26 10.22c0 3.9 1.6 7.7 4.26 10.15a11.2 11.2 0 0 0 7.74 2.92c6.83 0 12-5.64 12-13.1 0-7.4-5.17-13.12-11.86-13.12zm-.04 1.64a6.43 6.43 0 0 1 5.55 3c1.29 2.06 1.74 4.18 1.74 8.47 0 4.26-.45 6.38-1.74 8.48a6.36 6.36 0 0 1-5.65 3 6.3 6.3 0 0 1-5.65-3c-1.33-2.1-1.74-4.22-1.74-8.55 0-4.22.45-6.3 1.74-8.4 1.29-2.02 3.14-3 5.75-3zm35.99 14.5h-1.54c-1.15 6.28-2.72 7.82-8.12 7.92h-1.47c-2.09-.07-2.61-.42-2.5-1.67v-17.58c0-1.74 0-1.84.2-2.16.28-.35.94-.45 2.93-.48h.63v-1.64h-11.44v1.63h.63c1.99.04 2.65.14 2.93.5.2.3.2.38.2 2.15v16.6c0 1.78 0 1.85-.2 2.16-.28.35-.94.5-2.93.5h-.63v1.63h20.57zm23.25 0h-1.53c-1.15 6.28-2.72 7.82-8.13 7.92H315c-2.1-.07-2.61-.42-2.51-1.67v-17.58c0-1.74 0-1.84.2-2.16.29-.35.95-.45 2.94-.48h.63v-1.64H304.8v1.63h.63c1.98.04 2.65.14 2.93.5.2.3.2.38.2 2.15v16.6c0 1.78 0 1.85-.2 2.16-.28.35-.95.5-2.93.5h-.63v1.63h20.57zm22.7-15.61h-20.95v1.63h.62c2 .04 2.65.14 2.93.5.21.3.21.38.21 2.15v16.6c0 1.78 0 1.85-.2 2.16-.29.35-.95.5-2.94.5h-.62v1.63h21.4l.7-9.3h-1.53c-1.33 6.2-2.76 7.52-8.09 7.66h-2.3c-2.1-.07-2.62-.42-2.51-1.67v-8.9h.7c3.59-.13 4.88 1.16 5.02 5.03h1.63v-11.44h-1.63c-.21 3.42-1.57 4.78-4.89 4.78h-.83v-7.95c-.04-1.47.31-1.71 2.2-1.74h1.8c5.73-.04 7.16 1.22 8.27 7.25h1.5zm16.98 12.72-5.85-9.45a1.84 1.84 0 0 1-.39-.97c0-.46.42-.66 1.36-.66h2.06v-1.64h-11.2v1.63h.77c1.57.04 2 .25 2.83 1.6l7.53 11.93v5.72c0 1.78 0 1.85-.21 2.16-.28.35-.94.5-2.93.5h-.9v1.63h11.95v-1.64h-.9c-1.99-.03-2.62-.14-2.9-.49-.2-.31-.2-.34-.2-2.16v-6.13l5.19-9.38c1.5-2.8 2.58-3.63 4.81-3.73h.28v-1.64h-9.9v1.63h.8c1.88 0 2.68.46 2.68 1.57 0 .53-.2 1.22-.55 1.82z" aria-label="BRONCO TROLLEY"/><g fill="none" stroke="#000" stroke-miterlimit="3.2"><rect width="57.69" height="38.62" x="772.09" y="496.47" stroke-width="1.43" ry="5.17" transform="matrix(1 .13 -.64 .77 0 0)"/><rect width="48.74" height="32.63" x="776.12" y="497.91" stroke-width="1.21" ry="4.36" transform="matrix(1 .13 -.64 .77 0 0)"/><ellipse cx="767.4" cy="244.31" stroke-width="1.24" rx="15.28" ry="17.49" transform="matrix(.88 .48 -.86 .52 0 0)"/></g><g fill="none" stroke="#000" stroke-miterlimit="3.2" transform="translate(0 -43.8)"><rect width="57.69" height="38.62" x="772.09" y="496.47" stroke-width="1.43" ry="5.17" transform="matrix(1 .13 -.64 .77 0 0)"/><rect width="48.74" height="32.63" x="776.12" y="497.91" stroke-width="1.21" ry="4.36" transform="matrix(1 .13 -.64 .77 0 0)"/><ellipse cx="767.4" cy="244.31" stroke-width="1.24" rx="15.28" ry="17.49" transform="matrix(.88 .48 -.86 .52 0 0)"/></g><g fill="none" stroke="#000" stroke-miterlimit="3.2" transform="translate(0 -84.26)"><rect width="57.69" height="38.62" x="772.09" y="496.47" stroke-width="1.43" ry="5.17" transform="matrix(1 .13 -.64 .77 0 0)"/><rect width="48.74" height="32.63" x="776.12" y="497.91" stroke-width="1.21" ry="4.36" transform="matrix(1 .13 -.64 .77 0 0)"/><ellipse cx="767.4" cy="244.31" stroke-width="1.24" rx="15.28" ry="17.49" transform="matrix(.88 .48 -.86 .52 0 0)"/></g></svg>