<svg xmlns="http://www.w3.org/2000/svg" fill="none" viewBox="0 0 348 348"><path stroke="#000" stroke-width="2" d="M5.08 5.776h336.91v337.67H5.08z"/><path d="M283.115 46.718c0-11.57 9.623-20.948 21.494-20.948 5.69 0 11.16 2.197 15.19 6.134 4.03 3.923 6.3 9.255 6.3 14.808 0 11.56-9.63 20.94-21.5 20.94s-21.5-9.38-21.5-20.954z" stroke="#000" stroke-width="2.763"/><path d="M82.874 183.938l6.703 25.947 129.822 36.966 12.794 34.412" stroke="#000" stroke-width="3.187"/><path d="M115.801 268.249l102.846-46.632v-38.919" stroke="#000" stroke-width="3.136"/><rect width="2.082" height=".048" x="-261.289" y="368.143" rx="5.692" ry="0" transform="matrix(.86921 -.49444 .92504 .37986 0 0)" fill="#fff" stroke="#000" stroke-width="2.724" paint-order="markers fill stroke"/><path d="M52.194 184.476l-.043 85M124.542 302.978h102.464M264.962 281.95l-23.7-98.721M91.932 177.348l90.524.179M142.362 73.46l-79.298 76.803M202.236 93.24l20.315 70.21" stroke="#000" stroke-width="3.175"/><path d="M84.122 269.18l46.136-51.82 35.627-124.655" stroke="#000" stroke-width="3.174"/><rect width=".263" height=".023" x="371.971" y="296.695" rx="3.597" ry="0" transform="matrix(.9333 .3591 -.88998 .456 0 0)" fill="#fff" stroke="#000" stroke-width="1.984" paint-order="markers fill stroke"/><rect width="70.473" height="33.535" x="227.166" y="281.448" rx="4.849" ry="0" fill="#fff" stroke="#000" stroke-width="1.505" stroke-linecap="round" stroke-linejoin="round" paint-order="markers fill stroke"/><rect width="85.644" height="37.973" x="38.693" y="269.413" rx="5.168" ry="0" fill="#fff" stroke="#000" stroke-width="1.675" stroke-linecap="round" stroke-linejoin="round" paint-order="markers fill stroke"/><rect width="77.367" height="19.909" x="182.314" y="163.381" rx="5.334" ry="0" fill="#fff" stroke="#000" stroke-width="1.764" stroke-linecap="round" stroke-linejoin="round" paint-order="markers fill stroke"/><rect width="95.674" height="38.557" x="142.523" y="54.324" rx="5.525" ry="0" fill="#fff" stroke="#000" stroke-width="1.89" stroke-linecap="round" stroke-linejoin="round" paint-order="markers fill stroke"/><rect width="74.159" height="33.337" x="17.183" y="150.791" rx="4.404" ry="0" fill="#fff" stroke="#000" stroke-width="1.387" stroke-linecap="round" stroke-linejoin="round" paint-order="markers fill stroke"/><g aria-label="Human Resources" style="line-height:1.25;-inkscape-font-specification:'Segoe Print';text-align:center" font-weight="400" font-size="14.112" font-family="Segoe Print" letter-spacing="0" word-spacing="0" text-anchor="middle" fill="#000" stroke-width=".353"><path d="M38.143 152.795q.262 0 .462.193.2.186.2.475 0 .49-.303 2.143-.372 2.026-.524 4.321-.152 2.288-.152 2.867 0 .317-.289.627-.282.31-.496.31-.227 0-.427-.186-.2-.18-.2-.455 0-.248.213-1.757.18-1.275.18-1.84 0-.33-.097-.455-.096-.124-.324-.124-.344 0-1.35.076-1.09.09-1.358.09-.282 0-1.44.09-1.15.089-1.275.158-.117.062-.248.91-.124.84-.151 1.398-.035.958-.221 1.585-.18.62-.469.62-.2 0-.496-.317-.29-.31-.29-.627 0-.276.166-.944.228-.917.545-3.273.323-2.357.558-4.9.014-.165.186-.337.172-.173.365-.173.675 0 .675.972 0 .572-.248 1.84-.22 1.144-.22 1.654 0 .213.138.31.137.096.654.096 1.13 0 3.04-.179 1.915-.186 2.06-.524.151-.344.303-1.55.158-1.213.158-2.529 0-.152.214-.358.213-.207.461-.207zM45.22 160.334q-.882 1.481-1.805 2.294-.923.813-1.716.813-.455 0-.93-.53-.469-.53-.469-1.633 0-.903.434-2.66.366-1.468.366-2.06.2-.414.627-.414.29 0 .461.207.173.2.173.42 0 .482-.338 1.371-.64 1.73-.64 2.97 0 1.13.523 1.13.668 0 1.702-1.137 1.034-1.137 1.77-3.17.29-.813.47-1.054.186-.248.496-.248.468 0 .468.62 0 .076-.13.503-.414 1.51-.414 2.853 0 1.613.53 2.088.276.255.276.414 0 .193-.283.351-.275.159-.503.159-.482 0-.778-.717-.297-.717-.297-2.116v-.227q0-.11.007-.227zM54.158 157.88q-.641.014-2.743 3.797-.71 1.275-.827 1.392-.117.11-.434.2-.31.09-.517.09-.461 0-.461-1.799 0-1.013.434-3.666.179-1.075.179-1.536 0-.455.407-.455.764 0 .764 1.102 0 .517-.254 2.026-.297 1.723-.304 2.095.428-.413 1.254-1.812 1.172-1.916 1.723-2.426.558-.517 1.15-.517.449 0 .71.6.27.6.325 2.86.013.565.103.84.09.276.13.276.325 0 1.407-2.205.578-1.165 1.123-1.771.551-.607 1.22-.607.558 0 .813.58.255.571.365 1.701.103 1.144.317 2.095.22.951.8 1.22.392.186.392.434 0 .241-.33.496-.332.255-.607.255-.551 0-.986-.675-.434-.676-.654-2.922-.097-.903-.186-1.282-.09-.379-.283-.379-.29 0-.689.552-.393.55-1.275 2.24-.689 1.315-1.047 1.756-.352.434-.682.434-.297 0-.53-.234-.235-.241-.297-.572-.062-.337-.131-1.647-.104-2.177-.38-2.536zM68.098 160.823q-.965 1.295-1.909 1.943-.944.648-1.73.648-.53 0-.916-.448t-.386-1.15q0-1.813 1.62-3.901 1.619-2.095 3.218-2.095.579 0 .861.662.09.22.283.22.55 0 .55.427 0 .214-.068.586-.372 2.033-.372 2.867 0 1.667.634 1.998.303.165.303.407 0 .213-.296.427-.297.22-.572.22-.53 0-.875-.73t-.345-2.081zm-.42-3.88q-.91 0-2.116 1.71-1.206 1.701-1.206 2.824 0 .793.524.793.758 0 2.102-1.53 1.343-1.53 1.343-2.811 0-.986-.647-.986zM76.443 158.032q-.358 0-.786.469-.42.468-1.288 2.101-1.144 2.192-1.482 2.495-.33.303-.551.303-.813 0-.813-.786 0-.33.11-.937.38-2.08.38-4.39 0-.261.22-.578.227-.324.427-.324.358 0 .51.22.151.221.151.89 0 .696-.413 2.866-.138.717-.138.91 0 .11.055.11.104 0 .958-1.647.861-1.674 1.51-2.357.647-.682 1.426-.682.62 0 1.006.565.392.565.572 2.06.192 1.703.344 2.123.159.413.496.413.214 0 .538-.151.055-.028.082-.028.297 0 .297.345 0 .303-.407.648-.406.337-.978.337-.586 0-.91-.461-.317-.469-.503-2.488-.193-2.026-.813-2.026zM23.232 171.235q2.026-.33 2.956-.33 1.454 0 2.322.688.868.69.868 1.73t-.923 1.964q-.917.916-2.309 1.44-.172.069-.172.145 0 .117 1.42 1.22 1.426 1.095 2.618 1.832.338.207.338.545 0 .22-.234.44-.228.214-.428.214-.406 0-1.302-.675-.889-.675-1.847-1.488-2.074-1.744-2.315-1.758-.469-.013-.662-.13-.193-.118-.193-.42 0-.263.249-.456.248-.2.585-.2.117 0 .372.035.255.041.38.041.55 0 1.88-.82 1.337-.82 1.337-1.93 0-.585-.6-1.005-.592-.42-1.515-.42-.69 0-1.378.096-.69.096-.882.165-.186.07-.304.359-.117.282-.392 1.819-.276 1.536-.434 2.9-.152 1.365-.152 2.006 0 .496.069.861.062.366.062.586 0 .207-.22.427-.214.22-.47.22-.723 0-.723-1.17 0-2.764.972-7.353.048-.241.048-.283 0-.04-.048-.124-.276-.434-.276-.579 0-.261.255-.454t.462-.193zM37.296 178.636q0 .703-1.247 1.695-1.24.992-2.564.992-1.11 0-1.716-.654-.6-.655-.6-1.827 0-1.97 1.33-3.748 1.33-1.778 2.909-1.778.517 0 .84.338.331.337.331.813 0 1.061-1.04 2.033-1.04.971-2.784 1.908-.359.186-.359.483 0 .572.331.916.331.345.979.345 1.481 0 3.025-1.64.227-.228.344-.228.22 0 .22.352zm-4.79-1.075q2.922-1.737 2.922-2.791 0-.413-.372-.413-.634 0-1.433.93-.792.93-1.116 2.274zM42.195 179.394q0-.448-1.102-1.02-1.4-.717-1.895-1.144-.49-.434-.49-.965 0-1.371 1.372-2.274 1.378-.902 2.246-.902.558 0 .806.193.255.192.255.668 0 .214-.186.365-.179.152-.282.152-.076 0-.296-.104-.221-.096-.29-.096-.344 0-1.399.503-1.054.503-1.054 1.137 0 .386.372.703.372.31 1.337.765.779.372 1.24.799.469.42.469.992 0 1.055-1.454 1.654-1.454.593-2.777.593-1.116 0-1.116-.758 0-.262.248-.386.255-.124.51-.124.103 0 .392.069.283.069.372.069.765 0 1.64-.255.876-.255 1.082-.634zM46.723 181.316q-.944 0-1.558-.716-.613-.717-.613-1.771 0-1.778 1.192-3.5 1.2-1.73 2.867-1.73 1.102 0 1.784.847.69.848.69 2.02 0 1.79-1.42 3.32-1.413 1.53-2.942 1.53zm-.958-2.666q0 .696.29 1.137.295.44.778.44 1.027 0 2.06-1.123 1.034-1.13 1.034-2.508 0-.848-.4-1.371-.393-.53-1.061-.53-1.11 0-1.909 1.364-.792 1.357-.792 2.59zM57.569 177.974q-.882 1.482-1.806 2.295-.923.813-1.715.813-.455 0-.93-.53-.47-.531-.47-1.634 0-.902.435-2.66.365-1.467.365-2.06.2-.413.627-.413.29 0 .462.206.172.2.172.42 0 .483-.338 1.372-.64 1.73-.64 2.97 0 1.13.523 1.13.669 0 1.702-1.137 1.034-1.137 1.771-3.17.29-.813.469-1.054.186-.248.496-.248.469 0 .469.62 0 .076-.131.503-.414 1.51-.414 2.853 0 1.612.53 2.088.276.255.276.413 0 .193-.282.352-.276.158-.503.158-.482 0-.779-.716-.296-.717-.296-2.116v-.227q0-.11.007-.228zM62.696 178.236q.069-.124.165-.344.469-1.075.861-1.682.393-.613.862-1.171.475-.558.861-.848.393-.29.71-.4.317-.117.613-.117.6 0 .979.366.379.358.379.84 0 .214-.138.386-.131.172-.407.172-.29 0-.53-.255-.248-.255-.517-.255-.717 0-1.985 1.737-1.268 1.736-1.543 3.824-.07.538-.262.71-.193.172-.545.172-.337 0-.489-.503-.151-.503-.151-1.695 0-.324.034-1.426.041-1.303.165-2.102.021-.13.07-.613.048-.53.117-.738.075-.206.296-.385.227-.18.49-.18.254 0 .378.166.131.158.131.344 0 .27-.138.758-.158.545-.186.751-.02.235-.076.49-.069.296-.137 1.557l-.007.255zM70.379 181.365q-1.034 0-1.592-.593-.551-.593-.551-1.66 0-1.8 1.426-3.79 1.427-2 2.653-2 .558 0 .958.607.407.6.407 1.275 0 .407-.18.703-.172.29-.35.29-.4 0-.566-.807-.186-.868-.537-.868-.717 0-1.696 1.702-.978 1.702-.978 2.873 0 1.172 1.33 1.172 1.013 0 2.384-.951.482-.338.71-.338.234 0 .234.269 0 .524-1.233 1.323-1.234.793-2.42.793zM81.563 178.636q0 .703-1.247 1.695-1.24.992-2.564.992-1.11 0-1.716-.654-.6-.655-.6-1.827 0-1.97 1.33-3.748 1.33-1.778 2.909-1.778.517 0 .84.338.331.337.331.813 0 1.061-1.04 2.033-1.04.971-2.784 1.908-.359.186-.359.483 0 .572.331.916.33.345.979.345 1.481 0 3.025-1.64.227-.228.344-.228.22 0 .22.352zm-4.79-1.075q2.922-1.737 2.922-2.791 0-.413-.372-.413-.634 0-1.433.93-.792.93-1.116 2.274zM86.462 179.394q0-.448-1.102-1.02-1.4-.717-1.895-1.144-.49-.434-.49-.965 0-1.371 1.372-2.274 1.378-.902 2.246-.902.558 0 .806.193.255.192.255.668 0 .214-.186.365-.179.152-.282.152-.076 0-.297-.104-.22-.096-.289-.096-.344 0-1.399.503-1.054.503-1.054 1.137 0 .386.372.703.372.31 1.337.765.778.372 1.24.799.469.42.469.992 0 1.055-1.454 1.654-1.454.593-2.777.593-1.117 0-1.117-.758 0-.262.249-.386.254-.124.51-.124.103 0 .392.069.283.069.372.069.765 0 1.64-.255.876-.255 1.082-.634z" style="text-align:center"/></g><g aria-label="Information Management" style="line-height:1.25;-inkscape-font-specification:'Segoe Print';text-align:center" font-weight="400" font-size="14.112" font-family="Segoe Print" letter-spacing="0" word-spacing="0" text-anchor="middle" fill="#000" stroke-width=".353"><path d="M150.946 59.63q-.041.268-.462 1.922-.2.779-.262 1.31-.04.358-.103.778-.276 1.764-.276 2.412 0 .971.118 1.909.068.544-.193.785-.262.241-.524.241-.372 0-.517-.413-.145-.42-.145-1.35 0-.972.276-2.688.097-.648.11-.779.014-.234.055-.482.035-.241.055-.483.042-.64.249-1.674.151-.779.22-1.371.048-.414.11-.558.062-.145.317-.317.262-.173.393-.173.29 0 .434.283.145.275.145.648zM157.313 63.46q-.358 0-.785.47-.42.468-1.29 2.101-1.143 2.191-1.48 2.495-.331.303-.552.303-.813 0-.813-.786 0-.33.11-.937.38-2.08.38-4.39 0-.261.22-.578.227-.324.427-.324.358 0 .51.22.152.221.152.89 0 .695-.414 2.866-.138.717-.138.91 0 .11.055.11.104 0 .958-1.647.862-1.675 1.51-2.357.647-.682 1.426-.682.62 0 1.006.565.393.565.572 2.06.193 1.703.344 2.123.159.413.496.413.214 0 .538-.151.055-.028.083-.028.296 0 .296.345 0 .303-.407.647-.406.338-.978.338-.586 0-.91-.462-.317-.468-.503-2.487-.193-2.026-.813-2.026zM163.363 69.077q-.048.172-.262.29-.213.116-.427.116-.703 0-.703-1.026 0-.49.324-2.77.2-1.4.2-2.123 0-.124-.29-.324-.296-.193-.296-.379 0-.296.448-.64.345-.27.42-.6.083-.33.187-.916.351-2.137 1.095-3.08.751-.945 1.909-.945.613 0 1.04.42.428.414.428 1.034 0 .503-.241 1.144-.235.634-.538.634-.227 0-.227-.227l.048-.669q0-1.33-.744-1.33-.807 0-1.337 1.585-.53 1.578-.53 2.57 0 .317.413.317 1.798 0 2.115-.013.324-.014.324.268 0 .283-.351.435-.345.144-1.516.261-1 .104-1.13.173-.462 2.563-.462 4.568 0 .6.055.89.048.268.048.337zM169.269 69.104q-.944 0-1.558-.716-.613-.717-.613-1.771 0-1.778 1.192-3.5 1.2-1.73 2.867-1.73 1.102 0 1.785.847.689.848.689 2.02 0 1.79-1.42 3.32-1.412 1.53-2.942 1.53zm-.958-2.666q0 .696.29 1.137.296.44.778.44 1.027 0 2.06-1.122 1.034-1.13 1.034-2.509 0-.847-.4-1.371-.392-.53-1.06-.53-1.11 0-1.91 1.364-.792 1.357-.792 2.59zM176.642 66.024q.069-.124.165-.344.469-1.075.862-1.682.393-.613.861-1.171.476-.558.861-.848.393-.29.71-.4.317-.116.613-.116.6 0 .979.365.379.358.379.84 0 .214-.138.386-.13.173-.406.173-.29 0-.531-.255-.248-.255-.517-.255-.716 0-1.984 1.736-1.268 1.737-1.544 3.825-.069.537-.262.71-.193.172-.544.172-.338 0-.49-.503-.151-.503-.151-1.696 0-.323.034-1.426.042-1.302.166-2.102.02-.13.069-.613.048-.53.117-.737.076-.207.296-.386.228-.18.49-.18.254 0 .378.166.131.159.131.345 0 .268-.137.758-.159.544-.186.75-.021.235-.076.49-.07.296-.138 1.557l-.007.255zM187.785 63.31q-.641.013-2.743 3.796-.71 1.275-.827 1.392-.117.11-.434.2-.31.09-.517.09-.462 0-.462-1.799 0-1.013.435-3.666.179-1.075.179-1.537 0-.454.406-.454.765 0 .765 1.102 0 .517-.255 2.026-.296 1.723-.303 2.095.427-.414 1.254-1.812 1.172-1.916 1.723-2.426.558-.517 1.15-.517.449 0 .71.6.27.6.324 2.86.014.564.104.84t.13.276q.324 0 1.406-2.205.58-1.165 1.123-1.771.552-.607 1.22-.607.558 0 .813.58.255.571.366 1.701.103 1.144.316 2.095.221.95.8 1.22.393.186.393.434 0 .241-.331.496-.33.255-.607.255-.55 0-.985-.675-.434-.676-.655-2.922-.096-.903-.186-1.282t-.282-.379q-.29 0-.69.551-.392.552-1.274 2.24-.69 1.316-1.047 1.757-.352.434-.683.434-.296 0-.53-.234-.235-.241-.297-.572-.062-.338-.13-1.647-.104-2.177-.38-2.536zM201.725 66.252q-.965 1.295-1.909 1.943-.944.648-1.73.648-.53 0-.916-.448t-.386-1.151q0-1.812 1.62-3.9 1.619-2.095 3.217-2.095.58 0 .862.661.09.22.282.22.552 0 .552.428 0 .214-.07.586-.371 2.033-.371 2.866 0 1.668.633 1.999.304.165.304.406 0 .214-.297.428-.296.22-.572.22-.53 0-.875-.73-.344-.73-.344-2.081zm-.42-3.88q-.91 0-2.116 1.709-1.206 1.702-1.206 2.825 0 .793.524.793.758 0 2.101-1.53 1.344-1.53 1.344-2.811 0-.986-.648-.986zM208.181 61.807q.71-.055 1.337-.13.62-.07 1.034-.07.524 0 .661.097.138.096.138.337 0 .559-.778.607-1 .062-1.84.172-.84.11-.91.186-.062.069-.413 1.64-.352 1.564-.352 2.033 0 .758.2 1.013.2.248.6.248.592 0 1.647-.889.406-.365.627-.365.296 0 .296.317 0 .496-.958 1.288-.95.786-1.95.786-1.668 0-1.668-1.964 0-.71.345-2.198.338-1.482.338-1.778 0-.103-.166-.103l-.716.062q-.882 0-.882-.703 0-.4.406-.4h1.42q.144 0 .255-.13.11-.132.323-.876.214-.751.38-1.481.165-.724.647-.724.296 0 .462.207.165.206.165.386 0 .096-.248.985zM214.211 59.533q-.145 0-.22-.31-.028-.096-.076-.214-.186-.448-.186-.778 0-.276.324-.558.33-.29.73-.29.2 0 .448.159.248.151.248.296 0 .227-.172.772-.166.544-.538.737-.365.186-.558.186zm-.903 7.697q0 .524.145 1.179.028.124.028.206 0 .124-.228.317-.227.2-.482.2-.669 0-.669-1.227 0-1.267.524-4.01.18-.958.18-1.178 0-.434.158-.738.158-.31.448-.31.351 0 .551.173.207.165.207.372 0 .206-.097.544-.517 1.82-.64 2.605-.125.785-.125 1.867zM218.084 69.104q-.944 0-1.558-.716-.613-.717-.613-1.771 0-1.778 1.192-3.5 1.2-1.73 2.867-1.73 1.102 0 1.785.847.689.848.689 2.02 0 1.79-1.42 3.32-1.413 1.53-2.942 1.53zm-.958-2.666q0 .696.29 1.137.296.44.778.44 1.027 0 2.06-1.122 1.034-1.13 1.034-2.509 0-.847-.4-1.371-.393-.53-1.06-.53-1.11 0-1.91 1.364-.792 1.357-.792 2.59zM228.758 63.46q-.359 0-.786.47-.42.468-1.289 2.101-1.143 2.191-1.481 2.495-.33.303-.551.303-.813 0-.813-.786 0-.33.11-.937.379-2.08.379-4.39 0-.261.22-.578.228-.324.428-.324.358 0 .51.22.151.221.151.89 0 .695-.413 2.866-.138.717-.138.91 0 .11.055.11.103 0 .958-1.647.861-1.675 1.509-2.357.648-.682 1.426-.682.62 0 1.006.565.393.565.572 2.06.193 1.703.345 2.123.158.413.496.413.214 0 .537-.151.056-.028.083-.028.296 0 .296.345 0 .303-.406.647-.407.338-.979.338-.585 0-.91-.462-.316-.468-.502-2.487-.193-2.026-.813-2.026zM154.577 78.276q-.682.758-2.108 2.708-1.427 1.944-2.005 2.502-.58.558-.951.558-.283 0-.552-.42-.268-.428-.696-1.716-.882-2.626-1.109-3.025-.083.234-.186.765-.22 1.116-.586 2.721-.71 3.08-.806 4.08-.014.124-.227.269-.207.144-.338.144-.248 0-.462-.248-.207-.248-.207-.482 0-.607.4-2.116l.6-2.26q.55-2.136.682-3.142.13-1.006.13-1.585 0-.6.945-.6.2 0 .42.352.22.344.29.606.09.262.213.586l.924 2.584q.544 1.585.668 1.792.13.2.214.2.351-.076 2.487-3.026 2.378-3.273 2.715-3.273.276 0 .607.22.337.214.337.373 0 .069-.4 3.025-.144 1.096-.268 2.632-.124 1.53-.124 1.723 0 .351.124.786.11.386.11.62 0 .186-.069.544-.069.352-.303.414-.227.062-.365.062-.724 0-.724-1.206 0-1.103.476-5.396.034-.344.034-.427 0-.055.083-.462.062-.344.062-.579 0-.227-.035-.303zM162.516 83.892q-.965 1.296-1.91 1.944-.943.647-1.729.647-.53 0-.916-.448t-.386-1.15q0-1.813 1.62-3.9 1.619-2.095 3.217-2.095.58 0 .862.661.09.22.282.22.551 0 .551.428 0 .213-.068.586-.373 2.032-.373 2.866 0 1.668.634 1.998.304.166.304.407 0 .214-.297.427-.296.22-.572.22-.53 0-.875-.73-.344-.73-.344-2.08zm-.42-3.88q-.91 0-2.116 1.71-1.206 1.702-1.206 2.825 0 .792.524.792.758 0 2.101-1.53 1.344-1.53 1.344-2.81 0-.986-.648-.986zM170.86 81.101q-.358 0-.785.47-.42.468-1.289 2.1-1.143 2.192-1.481 2.495-.33.303-.551.303-.814 0-.814-.785 0-.33.11-.937.38-2.081.38-4.39 0-.262.22-.579.228-.323.427-.323.359 0 .51.22.152.22.152.889 0 .696-.413 2.867-.138.716-.138.91 0 .11.055.11.103 0 .958-1.647.861-1.675 1.509-2.357.648-.682 1.426-.682.62 0 1.006.565.393.565.572 2.06.193 1.702.345 2.122.158.414.496.414.213 0 .537-.152.055-.027.083-.027.296 0 .296.344 0 .304-.406.648-.407.338-.979.338-.585 0-.91-.462-.316-.469-.502-2.488-.193-2.026-.813-2.026zM180.184 83.892q-.965 1.296-1.909 1.944-.944.647-1.73.647-.53 0-.916-.448t-.386-1.15q0-1.813 1.62-3.9 1.619-2.095 3.218-2.095.578 0 .86.661.09.22.283.22.552 0 .552.428 0 .213-.07.586-.371 2.032-.371 2.866 0 1.668.634 1.998.303.166.303.407 0 .214-.296.427-.297.22-.572.22-.531 0-.876-.73-.344-.73-.344-2.08zm-.42-3.88q-.91 0-2.116 1.71-1.206 1.702-1.206 2.825 0 .792.524.792.758 0 2.102-1.53 1.343-1.53 1.343-2.81 0-.986-.647-.986zM188.708 83.906q-.083-.062-.462.386-.627.737-1.605 1.31-.972.571-1.806.571-.62 0-.971-.386-.352-.392-.352-1.082 0-1.068.806-2.377.807-1.316 2.254-2.295 1.454-.978 2.542-.978.572 0 1.007.33.103.083.179.138.124.09.234.366.11.268.11.434 0 .103-.076.317-.42 1.144-.572 1.895-.151.75-.33 2.529-.166 1.598-.359 2.46-.193.861-.696 1.667-.503.807-1.205 1.206-.703.407-1.448.407-1.288 0-2.542-.89-1.254-.888-1.254-1.425 0-.338.255-.338.124 0 .737.406 1.62 1.082 2.915 1.082 1.13 0 1.716-1.206.592-1.206.806-3.604.048-.544.117-.923zm-.014-3.783q-.586 0-1.468.606-.875.607-1.702 1.778-.827 1.172-.827 1.964 0 .269.166.427.172.152.379.152.613 0 1.598-.634.993-.634 1.702-1.757.717-1.13.717-1.771 0-.765-.565-.765zM197.838 84.065q0 .702-1.247 1.695-1.24.992-2.563.992-1.11 0-1.716-.655-.6-.654-.6-1.826 0-1.97 1.33-3.748 1.33-1.778 2.908-1.778.517 0 .84.337.332.338.332.814 0 1.06-1.04 2.032-1.041.972-2.785 1.91-.358.185-.358.482 0 .571.33.916.331.345.98.345 1.48 0 3.024-1.64.228-.228.345-.228.22 0 .22.352zm-4.789-1.075q2.922-1.737 2.922-2.791 0-.414-.372-.414-.634 0-1.434.93-.792.93-1.116 2.275zM204.474 80.95q-.64.014-2.742 3.797-.71 1.275-.827 1.392-.117.11-.434.2-.31.09-.517.09-.462 0-.462-1.8 0-1.012.434-3.665.18-1.075.18-1.537 0-.455.406-.455.765 0 .765 1.103 0 .517-.255 2.026-.296 1.722-.303 2.094.427-.413 1.254-1.812 1.171-1.915 1.723-2.425.558-.517 1.15-.517.448 0 .71.6.269.599.324 2.859.014.565.103.84.09.276.131.276.324 0 1.406-2.205.579-1.164 1.123-1.77.551-.607 1.22-.607.558 0 .813.579.255.572.365 1.702.104 1.144.317 2.095.22.95.8 1.22.392.185.392.433 0 .242-.33.497-.331.255-.607.255-.551 0-.985-.676-.434-.675-.655-2.922-.096-.902-.186-1.281-.09-.38-.282-.38-.29 0-.69.552-.392.551-1.274 2.24-.69 1.316-1.048 1.757-.351.434-.682.434-.296 0-.53-.234-.235-.242-.297-.572-.062-.338-.13-1.647-.104-2.178-.38-2.536zM219.669 84.065q0 .702-1.248 1.695-1.24.992-2.563.992-1.11 0-1.716-.655-.6-.654-.6-1.826 0-1.97 1.33-3.748 1.33-1.778 2.908-1.778.517 0 .841.337.33.338.33.814 0 1.06-1.04 2.032t-2.784 1.91q-.358.185-.358.482 0 .571.33.916.332.345.98.345 1.481 0 3.025-1.64.227-.228.344-.228.22 0 .22.352zm-4.79-1.075q2.922-1.737 2.922-2.791 0-.414-.372-.414-.634 0-1.433.93-.793.93-1.117 2.275zM225.795 81.101q-.359 0-.786.47-.42.468-1.289 2.1-1.143 2.192-1.481 2.495-.33.303-.551.303-.814 0-.814-.785 0-.33.11-.937.38-2.081.38-4.39 0-.262.22-.579.228-.323.427-.323.359 0 .51.22.152.22.152.889 0 .696-.413 2.867-.138.716-.138.91 0 .11.055.11.103 0 .958-1.647.861-1.675 1.509-2.357.648-.682 1.426-.682.62 0 1.006.565.393.565.572 2.06.193 1.702.345 2.122.158.414.496.414.213 0 .537-.152.055-.027.083-.027.296 0 .296.344 0 .304-.406.648-.407.338-.979.338-.585 0-.91-.462-.316-.469-.502-2.488-.193-2.026-.813-2.026zM233.278 79.448q.71-.055 1.337-.131.62-.07 1.033-.07.524 0 .662.097t.138.338q0 .558-.779.606-.999.062-1.84.173-.84.11-.91.186-.061.069-.413 1.64-.351 1.564-.351 2.033 0 .758.2 1.012.2.249.6.249.592 0 1.646-.89.407-.365.627-.365.296 0 .296.317 0 .497-.957 1.289-.951.786-1.95.786-1.668 0-1.668-1.964 0-.71.344-2.199.338-1.481.338-1.777 0-.104-.165-.104l-.717.062q-.882 0-.882-.703 0-.4.407-.4h1.42q.144 0 .254-.13.11-.131.324-.875.214-.751.379-1.482.165-.723.648-.723.296 0 .461.206.166.207.166.386 0 .097-.248.986z" style="text-align:center"/></g><g aria-label="Marketing" style="line-height:1.25;-inkscape-font-specification:'Segoe Print'" font-weight="400" font-size="14.112" font-family="Segoe Print" letter-spacing="0" word-spacing="0" fill="#000" stroke-width=".353"><path d="M195.825 168.865q-.683.758-2.109 2.708-1.426 1.943-2.005 2.501-.579.559-.951.559-.283 0-.551-.42-.27-.428-.696-1.717-.882-2.625-1.11-3.025-.083.235-.186.765-.22 1.117-.586 2.722-.71 3.08-.806 4.08-.014.124-.227.268-.207.145-.338.145-.248 0-.462-.248-.206-.248-.206-.482 0-.607.4-2.116l.599-2.26q.551-2.136.682-3.142.131-1.006.131-1.585 0-.6.944-.6.2 0 .42.352.22.344.29.606.09.262.213.586l.924 2.584q.544 1.585.668 1.791.131.2.214.2.351-.075 2.487-3.025 2.378-3.273 2.715-3.273.276 0 .607.22.337.214.337.373 0 .069-.4 3.025-.144 1.095-.268 2.632-.124 1.53-.124 1.723 0 .351.124.785.11.386.11.62 0 .187-.069.545-.068.351-.303.413-.227.062-.365.062-.724 0-.724-1.206 0-1.102.476-5.395.034-.345.034-.427 0-.055.083-.462.062-.345.062-.579 0-.227-.034-.303zM203.763 174.481q-.965 1.296-1.909 1.943-.944.648-1.73.648-.53 0-.916-.448t-.386-1.15q0-1.813 1.62-3.9 1.619-2.096 3.218-2.096.578 0 .86.662.09.22.283.22.552 0 .552.428 0 .213-.07.585-.371 2.033-.371 2.867 0 1.667.634 1.998.303.166.303.407 0 .213-.296.427-.297.22-.572.22-.531 0-.876-.73-.344-.73-.344-2.081zm-.42-3.88q-.91 0-2.116 1.71-1.206 1.701-1.206 2.825 0 .792.524.792.758 0 2.102-1.53 1.343-1.53 1.343-2.811 0-.986-.647-.986zM208.807 174.254q.069-.124.165-.345.469-1.075.862-1.681.393-.614.861-1.172.476-.558.861-.847.393-.29.71-.4.317-.117.614-.117.599 0 .978.365.379.358.379.84 0 .214-.138.387-.13.172-.406.172-.29 0-.531-.255-.248-.255-.517-.255-.716 0-1.984 1.737-1.268 1.736-1.544 3.824-.069.537-.262.71-.193.172-.544.172-.338 0-.49-.503-.151-.503-.151-1.695 0-.324.035-1.427.04-1.302.165-2.101.02-.131.069-.614.048-.53.117-.737.076-.207.296-.386.228-.179.49-.179.254 0 .379.165.13.159.13.345 0 .269-.137.758-.159.544-.186.751-.021.234-.076.49-.07.296-.138 1.557l-.007.255zM216.166 173.771q.09-.117 1.234-1.11 1.082-.943 1.509-1.37 1.592-1.592 2.288-1.592.537 0 .537.517 0 .585-.53.86-.69.352-1.84 1.172-1.15.814-1.15 1.151 0 .138.812 1.034.813.889 1.406 1.316.593.42 1.15.42l.228-.007q.241-.013.241.214 0 .303-.379.613-.379.317-.999.317-.4 0-.813-.282-.407-.276-1.454-1.503-.834-1.012-1.04-1.205-.207-.2-.345-.2-.076 0-.482.358-.407.358-.448.544-.035.186-.035 1.42v.324q0 .255-.24.455-.242.2-.525.2-.289 0-.454-.173-.166-.165-.166-.344 0-.248.186-1.172.262-1.33.483-3.562.51-5.272.785-5.961.276-.696.786-.696.179 0 .296.193.124.193.124.496 0 .551-.475 2.929-.476 2.384-.69 4.644zM229.08 174.653q0 .703-1.247 1.695-1.24.993-2.564.993-1.11 0-1.716-.655-.599-.655-.599-1.826 0-1.97 1.33-3.749 1.33-1.777 2.908-1.777.517 0 .84.337.331.338.331.813 0 1.062-1.04 2.033-1.04.972-2.784 1.909-.358.186-.358.482 0 .572.33.917.331.344.979.344 1.481 0 3.025-1.64.227-.227.344-.227.221 0 .221.351zm-4.79-1.075q2.923-1.736 2.923-2.79 0-.414-.373-.414-.634 0-1.433.93-.792.93-1.116 2.274zM233.318 170.036q.71-.055 1.337-.13.62-.07 1.033-.07.524 0 .662.097t.138.338q0 .558-.779.606-1 .062-1.84.172-.84.11-.91.186-.061.07-.413 1.64-.351 1.565-.351 2.033 0 .758.2 1.013.2.248.599.248.593 0 1.647-.889.406-.365.627-.365.296 0 .296.317 0 .496-.958 1.289-.95.785-1.95.785-1.667 0-1.667-1.964 0-.71.344-2.198.338-1.481.338-1.778 0-.103-.165-.103l-.717.062q-.882 0-.882-.703 0-.4.406-.4h1.42q.145 0 .255-.13.11-.131.324-.876.213-.75.379-1.481.165-.724.648-.724.296 0 .461.207.166.207.166.386 0 .096-.248.985zM239.347 167.762q-.144 0-.22-.31-.028-.096-.076-.213-.186-.448-.186-.779 0-.276.324-.558.33-.29.73-.29.2 0 .448.159.248.152.248.296 0 .228-.172.772-.165.544-.537.737-.366.186-.559.186zm-.902 7.698q0 .523.144 1.178.028.124.028.207 0 .124-.227.317-.228.2-.483.2-.668 0-.668-1.227 0-1.268.523-4.01.18-.958.18-1.179 0-.434.158-.737.159-.31.448-.31.351 0 .551.172.207.165.207.372t-.096.544q-.517 1.82-.641 2.605-.124.786-.124 1.868zM245.9 171.69q-.358 0-.785.469-.42.468-1.289 2.102-1.143 2.19-1.481 2.494-.33.303-.551.303-.814 0-.814-.785 0-.331.11-.937.38-2.082.38-4.39 0-.262.22-.579.228-.324.427-.324.359 0 .51.22.152.221.152.89 0 .696-.413 2.866-.138.717-.138.91 0 .11.055.11.103 0 .958-1.647.861-1.674 1.509-2.356.648-.683 1.426-.683.62 0 1.006.565.393.566.572 2.06.193 1.703.345 2.123.158.414.496.414.213 0 .537-.152.055-.028.083-.028.296 0 .296.345 0 .303-.406.648-.407.337-.979.337-.585 0-.91-.461-.316-.469-.502-2.488-.193-2.026-.813-2.026zM255.451 174.495q-.082-.062-.461.386-.627.737-1.606 1.309-.972.572-1.805.572-.62 0-.972-.386-.351-.393-.351-1.082 0-1.068.806-2.377.806-1.316 2.253-2.295 1.454-.978 2.543-.978.572 0 1.006.33.103.083.18.138.123.09.233.365.11.27.11.435 0 .103-.075.317-.42 1.143-.572 1.895-.152.75-.33 2.528-.166 1.6-.36 2.46-.192.862-.695 1.668-.503.806-1.206 1.206-.703.407-1.447.407-1.289 0-2.543-.89-1.254-.888-1.254-1.426 0-.337.255-.337.124 0 .737.406 1.62 1.082 2.915 1.082 1.13 0 1.716-1.206.593-1.206.806-3.604.048-.544.117-.923zm-.013-3.783q-.586 0-1.468.606-.875.607-1.702 1.778t-.827 1.964q0 .269.165.427.172.152.38.152.612 0 1.598-.634.992-.634 1.702-1.757.717-1.13.717-1.771 0-.765-.565-.765z"/></g><g aria-label="Corporate Compliance" style="line-height:1.25;-inkscape-font-specification:'Segoe Print';text-align:center" font-weight="400" font-size="14.112" font-family="Segoe Print" letter-spacing="0" word-spacing="0" text-anchor="middle" fill="#000" stroke-width=".353"><path d="M53.6 280.5q.268 0 .268.33 0 .345-.765.986t-1.771 1.02q-1 .379-1.833.379-1.22 0-2.226-.806-.999-.806-.999-2.336 0-2.791 2.398-5.43 2.405-2.646 4.63-2.646.835 0 1.33.516.504.51.504 1.193 0 .634-.076.999-.069.365-.434.62-.365.248-.586.248-.158 0-.276-.138-.117-.138-.117-.372 0-.158.117-.661.118-.497.118-.738 0-.703-.614-.703-.95 0-2.356 1.096-1.4 1.089-2.378 2.77-.978 1.675-.978 3.087 0 .944.558 1.571.565.62 1.606.62.599 0 1.454-.296.86-.303 1.578-.806.716-.503.847-.503zM58.002 282.926q-.944 0-1.557-.717t-.613-1.771q0-1.778 1.192-3.5 1.199-1.73 2.866-1.73 1.103 0 1.785.847.69.848.69 2.02 0 1.791-1.42 3.32-1.413 1.53-2.943 1.53zm-.957-2.667q0 .696.289 1.137.296.44.779.44 1.026 0 2.06-1.122 1.034-1.13 1.034-2.509 0-.847-.4-1.371-.393-.53-1.061-.53-1.11 0-1.909 1.364-.792 1.357-.792 2.59zM65.376 279.845q.068-.124.165-.344.469-1.075.861-1.682.393-.613.862-1.171.475-.558.861-.848.393-.289.71-.4.317-.116.613-.116.6 0 .979.365.379.358.379.84 0 .214-.138.386-.131.173-.407.173-.29 0-.53-.255-.248-.255-.517-.255-.717 0-1.985 1.736-1.268 1.737-1.543 3.825-.07.537-.262.71-.193.172-.545.172-.337 0-.489-.503-.151-.503-.151-1.695 0-.324.034-1.427.041-1.302.165-2.102.021-.13.07-.613.048-.53.116-.737.076-.207.297-.386.227-.18.489-.18.255 0 .379.166.131.159.131.345 0 .268-.138.758-.158.544-.186.75-.02.235-.076.49-.069.296-.138 1.557l-.006.255zM72.783 281.782q-.337 1.24-.634 3.48l-.193 1.302q-.048.276-.255.544-.206.276-.379.276-.213 0-.489-.22-.269-.214-.269-.345 0-.38.173-1.047 1.26-5.093 1.26-8.945l-.006-.579q-.014-.744.262-1.082.275-.337.634-.337.165 0 .317.262.151.255.151.73 0 .669-.138 1.62-.179 1.198-.186 1.378 1.027-1.792 2.178-2.798 1.15-1.006 2.136-1.006.696 0 1.171.524.483.516.483 1.288 0 2.247-1.723 4.08-1.723 1.833-3.356 1.833-.406 0-.647-.207-.235-.207-.49-.751zm4.28-5.547q-.972 0-2.405 1.819-1.434 1.819-1.434 2.832 0 .248.283.482.282.235.716.235.986 0 2.268-1.454 1.281-1.461 1.281-2.867 0-.503-.206-.772-.2-.275-.504-.275zM82.589 282.926q-.944 0-1.557-.717-.614-.717-.614-1.771 0-1.778 1.192-3.5 1.2-1.73 2.867-1.73 1.103 0 1.785.847.689.848.689 2.02 0 1.791-1.42 3.32-1.412 1.53-2.942 1.53zm-.958-2.667q0 .696.29 1.137.296.44.778.44 1.027 0 2.06-1.122 1.034-1.13 1.034-2.509 0-.847-.4-1.371-.392-.53-1.06-.53-1.11 0-1.91 1.364-.792 1.357-.792 2.59zM89.962 279.845q.07-.124.166-.344.468-1.075.86-1.682.394-.613.862-1.171.476-.558.862-.848.392-.289.71-.4.316-.116.613-.116.6 0 .978.365.38.358.38.84 0 .214-.139.386-.13.173-.406.173-.29 0-.53-.255-.249-.255-.518-.255-.716 0-1.984 1.736-1.268 1.737-1.544 3.825-.069.537-.262.71-.193.172-.544.172-.338 0-.49-.503-.15-.503-.15-1.695 0-.324.034-1.427.041-1.302.165-2.102.02-.13.069-.613.048-.53.117-.737.076-.207.296-.386.228-.18.49-.18.255 0 .379.166.13.159.13.345 0 .268-.137.758-.159.544-.186.75-.021.235-.076.49-.069.296-.138 1.557l-.007.255zM100.409 280.073q-.965 1.295-1.909 1.943-.944.648-1.73.648-.53 0-.916-.448t-.386-1.151q0-1.812 1.62-3.9 1.619-2.095 3.217-2.095.58 0 .862.661.09.221.282.221.552 0 .552.427 0 .214-.07.586-.371 2.033-.371 2.867 0 1.667.633 1.998.304.165.304.406 0 .214-.297.428-.296.22-.572.22-.53 0-.875-.73-.344-.73-.344-2.081zm-.42-3.88q-.91 0-2.116 1.71-1.206 1.701-1.206 2.824 0 .793.524.793.758 0 2.101-1.53 1.344-1.53 1.344-2.811 0-.986-.648-.986zM106.865 275.628q.71-.055 1.337-.13.62-.07 1.034-.07.524 0 .661.097.138.096.138.337 0 .559-.778.607-1 .062-1.84.172-.84.11-.91.186-.062.07-.413 1.64-.352 1.564-.352 2.033 0 .758.2 1.013.2.248.6.248.592 0 1.647-.889.406-.365.627-.365.296 0 .296.317 0 .496-.958 1.288-.95.786-1.95.786-1.668 0-1.668-1.964 0-.71.345-2.198.338-1.482.338-1.778 0-.103-.166-.103l-.716.062q-.882 0-.882-.703 0-.4.406-.4h1.42q.144 0 .255-.13.11-.132.323-.876.214-.751.38-1.481.165-.724.647-.724.296 0 .462.207.165.207.165.386 0 .096-.248.985zM116.575 280.245q0 .703-1.248 1.695-1.24.992-2.563.992-1.11 0-1.716-.654-.6-.655-.6-1.826 0-1.971 1.33-3.749t2.909-1.778q.516 0 .84.338.331.338.331.813 0 1.061-1.04 2.033-1.041.971-2.784 1.909-.359.186-.359.482 0 .572.331.916.33.345.979.345 1.481 0 3.025-1.64.227-.227.344-.227.22 0 .22.351zm-4.79-1.075q2.922-1.736 2.922-2.79 0-.414-.372-.414-.634 0-1.433.93-.793.93-1.116 2.274zM48.651 298.14q.27 0 .27.331 0 .345-.766.986-.765.64-1.77 1.02-1 .379-1.834.379-1.22 0-2.225-.807-1-.806-1-2.336 0-2.79 2.398-5.43 2.405-2.646 4.631-2.646.834 0 1.33.517.503.51.503 1.192 0 .634-.076 1-.069.365-.434.62-.365.248-.586.248-.158 0-.275-.138-.117-.138-.117-.372 0-.159.117-.662.117-.496.117-.737 0-.703-.613-.703-.951 0-2.357 1.096-1.399 1.088-2.377 2.77-.979 1.674-.979 3.087 0 .944.558 1.571.565.62 1.606.62.6 0 1.454-.296.861-.303 1.578-.806.717-.503.847-.503zM53.055 300.566q-.944 0-1.558-.716-.613-.717-.613-1.771 0-1.778 1.192-3.501 1.2-1.73 2.867-1.73 1.102 0 1.785.848.689.848.689 2.019 0 1.792-1.42 3.321-1.413 1.53-2.942 1.53zm-.958-2.667q0 .696.29 1.137.296.441.778.441 1.027 0 2.06-1.123 1.034-1.13 1.034-2.508 0-.848-.4-1.371-.392-.53-1.06-.53-1.11 0-1.91 1.363-.792 1.358-.792 2.591zM64.239 294.771q-.641.014-2.743 3.797-.71 1.275-.827 1.392-.117.11-.434.2-.31.09-.517.09-.462 0-.462-1.8 0-1.012.435-3.665.179-1.075.179-1.537 0-.455.406-.455.765 0 .765 1.103 0 .517-.255 2.026-.296 1.722-.303 2.095.427-.414 1.254-1.813 1.172-1.915 1.723-2.425.558-.517 1.15-.517.449 0 .71.6.27.599.324 2.86.014.564.104.84.09.275.13.275.324 0 1.406-2.205.58-1.164 1.124-1.77.55-.607 1.22-.607.557 0 .812.579.255.572.366 1.702.103 1.144.317 2.095.22.95.799 1.22.393.185.393.434 0 .24-.331.496-.33.255-.606.255-.552 0-.986-.676-.434-.675-.654-2.921-.097-.903-.187-1.282-.09-.38-.282-.38-.29 0-.69.552-.392.551-1.274 2.24-.69 1.316-1.047 1.757-.352.434-.683.434-.296 0-.53-.234-.234-.241-.296-.572-.063-.338-.131-1.647-.104-2.178-.38-2.536zM74.864 299.422q-.337 1.24-.634 3.48l-.193 1.303q-.048.275-.255.544-.206.276-.379.276-.213 0-.489-.22-.269-.215-.269-.345 0-.38.173-1.048 1.26-5.092 1.26-8.944l-.006-.58q-.014-.743.262-1.08.275-.339.634-.339.165 0 .317.262.151.255.151.73 0 .67-.138 1.62-.179 1.2-.186 1.378 1.027-1.791 2.178-2.797 1.15-1.007 2.136-1.007.696 0 1.172.524.482.517.482 1.289 0 2.246-1.723 4.08-1.723 1.832-3.356 1.832-.406 0-.647-.207-.235-.206-.49-.75zm4.28-5.547q-.972 0-2.405 1.82-1.434 1.819-1.434 2.831 0 .249.283.483.282.234.717.234.985 0 2.267-1.454 1.281-1.46 1.281-2.866 0-.503-.206-.772-.2-.276-.503-.276zM85.07 288.555q.496 0 .496.634 0 .565-.6 2.688-.379 1.337-.585 2.95-.207 1.612-.207 2.528 0 1.137.145 2.26.027.214.027.31 0 .345-.234.593t-.496.248q-.366 0-.51-.455-.138-.455-.138-1.468 0-2.308.551-5.719.558-3.41.882-3.99.331-.579.669-.579zM88.929 290.995q-.145 0-.22-.31-.028-.097-.077-.214-.186-.448-.186-.779 0-.275.324-.558.33-.29.73-.29.2 0 .448.16.248.15.248.296 0 .227-.172.771-.165.545-.537.738-.365.186-.558.186zm-.903 7.697q0 .524.145 1.178.027.124.027.207 0 .124-.227.317-.228.2-.483.2-.668 0-.668-1.227 0-1.268.524-4.01.179-.958.179-1.179 0-.434.158-.737.159-.31.448-.31.352 0 .551.172.207.166.207.372 0 .207-.096.545-.517 1.819-.641 2.604-.124.786-.124 1.868zM95.434 297.713q-.965 1.296-1.91 1.944-.943.647-1.729.647-.53 0-.916-.448-.386-.447-.386-1.15 0-1.813 1.62-3.9 1.619-2.095 3.217-2.095.579 0 .862.661.09.22.282.22.551 0 .551.428 0 .213-.069.586-.372 2.032-.372 2.866 0 1.668.634 1.999.303.165.303.406 0 .214-.296.427-.296.22-.572.22-.53 0-.875-.73-.344-.73-.344-2.08zm-.42-3.88q-.91 0-2.116 1.71-1.206 1.702-1.206 2.825 0 .792.524.792.758 0 2.101-1.53 1.344-1.53 1.344-2.81 0-.986-.648-.986zM103.778 294.923q-.358 0-.785.468-.42.469-1.289 2.102-1.144 2.191-1.481 2.494-.331.304-.552.304-.813 0-.813-.786 0-.33.11-.937.38-2.081.38-4.39 0-.261.22-.578.227-.324.427-.324.359 0 .51.22.152.22.152.89 0 .695-.414 2.866-.137.716-.137.91 0 .11.055.11.103 0 .957-1.647.862-1.675 1.51-2.357.647-.682 1.426-.682.62 0 1.006.565.393.565.572 2.06.193 1.702.345 2.123.158.413.496.413.213 0 .537-.152.055-.027.083-.027.296 0 .296.344 0 .304-.406.648-.407.338-.979.338-.586 0-.91-.462-.316-.469-.503-2.488-.192-2.025-.813-2.025zM110.338 300.614q-1.033 0-1.591-.592-.552-.593-.552-1.66 0-1.8 1.427-3.79 1.426-2 2.653-2 .558 0 .958.607.406.6.406 1.275 0 .407-.179.703-.172.29-.351.29-.4 0-.565-.807-.186-.868-.538-.868-.717 0-1.695 1.702-.979 1.702-.979 2.873 0 1.172 1.33 1.172 1.013 0 2.385-.951.482-.338.71-.338.234 0 .234.269 0 .524-1.234 1.323-1.233.792-2.418.792zM121.522 297.886q0 .703-1.247 1.695-1.24.992-2.563.992-1.11 0-1.716-.655-.6-.654-.6-1.826 0-1.97 1.33-3.748 1.33-1.778 2.908-1.778.517 0 .841.338.33.337.33.813 0 1.06-1.04 2.032t-2.784 1.91q-.358.185-.358.482 0 .572.33.916.331.345.98.345 1.48 0 3.024-1.64.228-.228.345-.228.22 0 .22.352zm-4.789-1.075q2.922-1.737 2.922-2.791 0-.414-.372-.414-.634 0-1.433.93-.793.931-1.117 2.275z" style="text-align:center"/></g><g aria-label="Employee Benefits" style="line-height:1.25;-inkscape-font-specification:'Segoe Print';text-align:center" font-weight="400" font-size="14.112" font-family="Segoe Print" letter-spacing="0" word-spacing="0" text-anchor="middle" fill="#000" stroke-width=".353"><path d="M236.804 286.04q-.02.007-.379-.007-.351-.014-.723.07-.373.089-.662.11-.2.013-.434.055-.296.055-1.172.062-1.316.02-1.66.179-.338.158-.38.654-.034.38-.144.834-.338 1.358-.338 1.806l.104.007q.324.02 1.31-.09.984-.11 1.474-.22 1.006-.242 1.536-.242.862 0 .862.462 0 .565-.58.696-.571.124-2.397.324-2.233.248-2.384.448-.145.193-.31 1.26-.166 1.069-.166 1.365v.076q.035.344.441.393l.124.007q.38.02.903-.062l1.323-.193q.737-.104 1.495-.241.944-.2 1.2-.2.192 0 .427.165.24.159.24.51 0 .255-.123.351-.703.31-1.813.345-.957.034-2.99.324-1.027.151-1.35.151-.807 0-1.014-.13-.2-.124-.241-.62l-.028-.235v-.028q0-.11.124-.447.173-.49.4-1.861.234-1.371.303-2.17.035-.276.11-.669.304-1.647.304-2.605 0-.048-.138-.255-.035-.041-.048-.069-.048-.158-.09-.261-.048-.097-.048-.228v-.069q0-.151.186-.268.186-.118.358-.118h.021q.29 0 .662.042h.027q.159 0 1.53-.131t3.273-.455q.2-.034.241-.034l.104-.007q.537-.035.737.11.207.138.255.544 0 .193-.18.372-.178.18-.282.193zM243.66 289.479q-.64.014-2.742 3.797-.71 1.275-.827 1.392-.117.11-.434.2-.31.09-.517.09-.462 0-.462-1.8 0-1.012.435-3.665.179-1.075.179-1.537 0-.455.406-.455.765 0 .765 1.103 0 .517-.255 2.026-.296 1.722-.303 2.094.427-.413 1.254-1.812 1.172-1.916 1.723-2.425.558-.517 1.15-.517.449 0 .71.6.27.599.324 2.859.014.565.104.84.09.276.13.276.324 0 1.406-2.205.58-1.164 1.124-1.77.55-.607 1.22-.607.557 0 .812.579.255.572.366 1.702.103 1.144.317 2.095.22.95.799 1.22.393.185.393.433 0 .242-.331.497-.33.254-.607.254-.55 0-.985-.675-.434-.675-.655-2.922-.096-.902-.186-1.281-.09-.38-.282-.38-.29 0-.69.552-.392.551-1.274 2.24-.69 1.316-1.047 1.757-.352.434-.683.434-.296 0-.53-.234-.234-.242-.297-.572-.062-.338-.13-1.647-.104-2.178-.38-2.536zM254.286 294.13q-.337 1.24-.634 3.48l-.193 1.302q-.048.276-.255.545-.206.275-.379.275-.213 0-.489-.22-.269-.214-.269-.345 0-.379.173-1.047 1.26-5.092 1.26-8.944l-.006-.58q-.014-.743.262-1.081.275-.338.634-.338.165 0 .317.262.151.255.151.73 0 .669-.138 1.62-.179 1.199-.186 1.378 1.027-1.792 2.178-2.798 1.15-1.006 2.136-1.006.696 0 1.171.524.483.517.483 1.289 0 2.246-1.723 4.079-1.723 1.833-3.356 1.833-.406 0-.648-.207-.234-.206-.489-.75zm4.28-5.547q-.972 0-2.405 1.82-1.434 1.818-1.434 2.831 0 .248.283.483.282.234.716.234.986 0 2.268-1.454 1.281-1.46 1.281-2.867 0-.503-.206-.771-.2-.276-.504-.276zM264.492 283.263q.496 0 .496.634 0 .565-.6 2.688-.379 1.336-.585 2.949-.207 1.612-.207 2.529 0 1.137.145 2.26.027.214.027.31 0 .345-.234.593t-.496.248q-.366 0-.51-.455-.138-.455-.138-1.468 0-2.308.551-5.72.558-3.41.882-3.989.331-.579.669-.579zM268.144 295.274q-.944 0-1.558-.717-.613-.716-.613-1.77 0-1.778 1.192-3.501 1.2-1.73 2.867-1.73 1.102 0 1.785.848.689.847.689 2.019 0 1.791-1.42 3.321-1.412 1.53-2.942 1.53zm-.958-2.667q0 .696.29 1.137.296.441.778.441 1.027 0 2.06-1.123 1.034-1.13 1.034-2.508 0-.848-.4-1.371-.392-.531-1.06-.531-1.11 0-1.91 1.364-.792 1.358-.792 2.591zM279.217 292.497q-1.267 1.103-2.232 1.606-.958.496-1.468.496-.682 0-1.047-.565-.359-.572-.359-1.33 0-1.061.428-2.619.434-1.564.64-1.853.214-.297.676-.297.193 0 .317.228.124.227.124.516 0 .173-.159.448-.372.648-.393.717-.013.069-.261.834-.248.758-.248 1.426 0 .235.11.73.117.497.475.497.38 0 .93-.228.559-.234 1.255-.758.696-.523.937-.847.241-.324.337-.737.104-.414.145-1.792.042-1.378.669-1.378.372 0 .482.2.11.193.11.744 0 .455-.062 1.137-.076.861-.096 1.226-.097 1.895-.496 3.811-.393 1.909-1.151 3.19-.758 1.29-2.088 1.29-1.35 0-2.405-.71-1.047-.704-1.047-1.193 0-.227.103-.448.11-.22.276-.22.082 0 .179.13.902 1.386 2.839 1.386.999 0 1.674-1.757.682-1.75.751-3.287.014-.297.055-.593zM288.375 292.594q0 .702-1.247 1.695-1.24.992-2.563.992-1.11 0-1.716-.655-.6-.654-.6-1.826 0-1.97 1.33-3.748 1.33-1.778 2.908-1.778.517 0 .841.337.33.338.33.814 0 1.06-1.04 2.032t-2.784 1.91q-.358.185-.358.481 0 .572.33.917.332.344.98.344 1.48 0 3.024-1.64.228-.227.345-.227.22 0 .22.351zm-4.789-1.075q2.922-1.737 2.922-2.791 0-.414-.372-.414-.634 0-1.433.93-.793.93-1.117 2.275zM295.707 292.594q0 .702-1.247 1.695-1.24.992-2.563.992-1.11 0-1.716-.655-.6-.654-.6-1.826 0-1.97 1.33-3.748 1.33-1.778 2.908-1.778.517 0 .84.337.332.338.332.814 0 1.06-1.04 2.032-1.041.972-2.785 1.91-.358.185-.358.481 0 .572.33.917.331.344.98.344 1.48 0 3.024-1.64.228-.227.345-.227.22 0 .22.351zm-4.789-1.075q2.922-1.737 2.922-2.791 0-.414-.372-.414-.634 0-1.434.93-.792.93-1.116 2.275zM241.407 306.933q0 .11.138.145.744.214 1.316.834.572.613.572 1.46 0 1.303-1.667 2.681-1.668 1.378-3.508 1.378-.517 0-.813-.137-.29-.131-.29-.31 0-.869 1.227-.869.172 0 .53.014.366.014.835-.172.475-.193.923-.49.448-.303.765-.62.324-.323.517-.682.2-.358.2-.723 0-.593-.517-1.055-.51-.461-1.365-.461-.138 0-.654.22-.517.228-.676.228-.537 0-.675-.138-.13-.138-.13-.49 0-.213 1.164-.689.971-.385 1.88-1.26.917-.876.917-1.482 0-.42-.344-.669-.345-.248-.965-.248-1.027 0-2.04.255-1.013.248-1.116.469-.096.22-.558 3.342-.462 3.115-.462 3.604 0 .482.02.903.022.413-.15.71-.166.303-.573.303-.372 0-.578-.297-.2-.29-.2-.737 0-.117.062-.358.358-1.482.675-3.79.317-2.309.317-2.667 0-.29-.083-.427-.076-.138-.358-.138-.11 0-.22.007-.104.007-.214-.131-.104-.138-.104-.33 0-.607 1.95-1.193 1.95-.586 3.963-.586 1.033 0 1.688.558.662.552.662 1.296 0 .551-.565 1.302-.559.745-1.496 1.44zM251.068 310.234q0 .703-1.247 1.695-1.24.993-2.563.993-1.11 0-1.716-.655-.6-.655-.6-1.826 0-1.97 1.33-3.749 1.33-1.778 2.908-1.778.517 0 .84.338.332.338.332.813 0 1.061-1.04 2.033-1.041.972-2.785 1.909-.358.186-.358.482 0 .572.33.917.331.344.98.344 1.48 0 3.024-1.64.228-.227.345-.227.22 0 .22.351zm-4.789-1.075q2.922-1.736 2.922-2.79 0-.414-.372-.414-.634 0-1.434.93-.792.93-1.116 2.274zM257.194 307.271q-.358 0-.785.469-.42.468-1.289 2.101-1.144 2.192-1.481 2.495-.331.303-.552.303-.813 0-.813-.786 0-.33.11-.937.38-2.08.38-4.39 0-.261.22-.578.227-.324.427-.324.358 0 .51.22.152.221.152.89 0 .696-.414 2.866-.138.717-.138.91 0 .11.055.11.104 0 .958-1.647.862-1.674 1.51-2.357.647-.682 1.426-.682.62 0 1.006.565.393.565.572 2.06.193 1.703.344 2.123.159.413.497.413.213 0 .537-.151.055-.028.083-.028.296 0 .296.345 0 .303-.407.648-.406.337-.978.337-.586 0-.91-.461-.317-.47-.503-2.488-.193-2.026-.813-2.026zM267.772 310.234q0 .703-1.248 1.695-1.24.993-2.563.993-1.11 0-1.716-.655-.6-.655-.6-1.826 0-1.97 1.33-3.749 1.33-1.778 2.909-1.778.516 0 .84.338.331.338.331.813 0 1.061-1.04 2.033-1.041.972-2.784 1.909-.359.186-.359.482 0 .572.331.917.33.344.979.344 1.481 0 3.025-1.64.227-.227.344-.227.22 0 .22.351zm-4.79-1.075q2.922-1.736 2.922-2.79 0-.414-.372-.414-.634 0-1.433.93-.793.93-1.116 2.274zM270.576 312.887q-.048.172-.262.29-.213.117-.427.117-.703 0-.703-1.027 0-.49.324-2.77.2-1.4.2-2.123 0-.124-.29-.323-.296-.193-.296-.38 0-.296.448-.64.345-.27.42-.6.083-.33.187-.916.351-2.136 1.095-3.08.751-.945 1.909-.945.613 0 1.04.42.428.414.428 1.034 0 .503-.241 1.144-.235.634-.538.634-.227 0-.227-.227l.048-.669q0-1.33-.744-1.33-.807 0-1.337 1.585-.53 1.578-.53 2.57 0 .318.413.318 1.798 0 2.115-.014.324-.014.324.269 0 .282-.351.434-.345.144-1.516.262-1 .103-1.13.172-.462 2.563-.462 4.569 0 .599.055.888.048.27.048.338zM276.688 303.343q-.144 0-.22-.31-.028-.096-.076-.213-.186-.448-.186-.78 0-.275.324-.557.33-.29.73-.29.2 0 .448.159.248.151.248.296 0 .227-.172.772-.165.544-.537.737-.366.186-.559.186zm-.902 7.697q0 .524.144 1.179.028.124.028.206 0 .124-.227.317-.228.2-.483.2-.668 0-.668-1.226 0-1.268.524-4.01.179-.959.179-1.18 0-.433.158-.736.159-.31.448-.31.352 0 .551.172.207.165.207.372t-.096.544q-.517 1.82-.641 2.605-.124.785-.124 1.867zM281.354 305.617q.71-.055 1.336-.13.62-.07 1.034-.07.524 0 .662.097.137.096.137.338 0 .558-.778.606-1 .062-1.84.172-.84.11-.91.186-.062.07-.413 1.64-.352 1.565-.352 2.033 0 .758.2 1.013.2.248.6.248.592 0 1.647-.889.406-.365.627-.365.296 0 .296.317 0 .496-.958 1.289-.95.785-1.95.785-1.668 0-1.668-1.964 0-.71.345-2.198.338-1.481.338-1.778 0-.103-.166-.103l-.716.062q-.882 0-.882-.703 0-.4.406-.4h1.42q.144 0 .255-.13.11-.132.324-.876.213-.75.379-1.481.165-.724.647-.724.297 0 .462.207.165.207.165.386 0 .096-.248.985zM288.63 310.992q0-.448-1.102-1.02-1.399-.716-1.895-1.144-.49-.434-.49-.964 0-1.372 1.372-2.274 1.378-.903 2.246-.903.558 0 .807.193.254.193.254.668 0 .214-.186.366-.179.151-.282.151-.076 0-.296-.103-.22-.097-.29-.097-.344 0-1.399.503-1.054.503-1.054 1.137 0 .386.372.703.372.31 1.337.765.779.372 1.24.8.469.42.469.992 0 1.054-1.454 1.654-1.454.592-2.777.592-1.116 0-1.116-.758 0-.262.248-.386.255-.124.51-.124.103 0 .392.07.283.068.372.068.765 0 1.64-.255.876-.255 1.082-.634z" style="text-align:center"/></g><rect width="3.573" height="3.906" x="284.615" y="214.528" rx="3.781" ry="0" transform="matrix(.94567 .32514 -.96466 .26352 0 0)" fill="#000" stroke="#000" stroke-width=".266" stroke-linejoin="round" paint-order="markers fill stroke"/><rect width=".618" height=".613" x="156.476" y="-28.132" rx="5.334" ry="0" transform="rotate(37.081)" fill="#000" stroke="#000" stroke-width=".353" paint-order="markers fill stroke"/><path d="M290.266 281.772V71.5H239.3" stroke="#000" stroke-width="3.175"/></svg>