<svg xmlns="http://www.w3.org/2000/svg" fill="none" viewBox="0 0 348 348"><path stroke="#000" stroke-width="2" d="M5 5.8h337v337.6H5z"/><path stroke="#000" stroke-width="2" d="M282.7 40.6c0-8.4 7-15.2 15.6-15.2 4.1 0 8 1.6 11 4.4a15 15 0 0 1 4.6 10.8c0 8.3-7 15.1-15.6 15.1s-15.6-6.8-15.6-15.1z"/><path stroke="#000" d="M21.4 42.8h191.7v56.8H21.4z"/><circle cx="249.9" cy="70.8" r="25.8" stroke="#000"/><path stroke="#000" d="M140.1 114.3h61.2v39.8h-61.2zm.4 54.5h61.2v39.8h-61.2zm-.8 54.6h61.2v39.8h-61.2zm-.7 56.8h61.2V320H139zm77-165.6h61.2v39.8H216zm.4 54.6h61.2V209h-61.2zm-.7 54.6h61.2v39.8h-61.2zm-.8 56.7h61.2v39.8h-61.2zm-153-166.6h61.2v39.8H61.9zm.4 54.6h61.2v39.8H62.3zm-.7 54.5h61.2v39.8H61.6zm-.8 56.8H122v39.8H60.8z"/><path fill="#000" d="M103.6 311.6l-.2 1-.3.8q-.2.3-.6.4l-.8.2-.8.1h-.7l-2.3-.1-2.4-.2h-.8q-.4 0-.7-.2-.4-.2-.6-.5l-.1-.9q0-.8.2-1.3t.5-.7l.6-.5q.2-.2.2-.6 0-.4-.2-.7l-.4-.7-.5-1-.4-1.2q-.2-.5-.6-.9-.4-.3-1.1-.3l-.6.1-.1.4-.1.5q0 .2-.3.4-.4.2-.7.7l-.5 1q-.3.4-.4 1l-.1 1 .2.6.6.7.5.7q.3.4.3.8v.3q0 .2-.2.2h-.5v.2h.2v.2l-.1.4-.5.2H87l-2 .1h-3.8l-.5-.4q-.3-.2-.3-.6 0-.4.3-.8l.5-.6.8-.4.8-.3.8-.3.8-.5q.5-.4.9-1l.6-1 .6-1.3.7-1 .3-.5.2-.5.2-.6v-.5q0-.2.2-.3l.2-.2.6-.5.3-.7.5-1.2q.3-.6.3-1.2v-.7l-.4-.8-.3-.8-.4-.5-.3-.3-.2-.2-.2-.2v-.5l-.1-.5-.3-.5-.3-.4-.4-.5-.4-.8-.3-.8-.3-.9-.5-.7-.6-.7-.5-.4-.6-.2H83l-.6-.2-.8-.3-.6-.6q-.3-.3-.3-.6 0-.2.3-.4l.6-.2H83l1.1-.2h5.1l.5.4.2.5v.2l-.2.6-.6.5-.5.4q-.3.3-.3.5.4 1.3 1 2.4.6 1.2 1.4 2.3l.2.2.3.3.2.2h.5l.4-.4.4-.3.4-.2q.3-.2.5-.6l.3-1 .3-1 .3-.8.4-.5.2-.6q0-.3-.2-.4l-.5-.4-.4-.3q-.2-.3-.2-.7 0-.5.2-.8.2-.3.6-.4l1.4-.2h2l.6.1.7-.1q.3-.2.7-.2h.8l.7.2.4.2.5.3.3.4.2.4q0 .3-.4.5-.4.3-.9.4l-1 .3-.6.1q-.9.3-1.5.8l-1 1-.7 1.4-.6 1.4-.7 1.5-.7 1.5-.7 1.6q-.2.7-.2 1.6 0 .7.2 1.3l.4 1 .5.8.2.8.2.2.3.4.4.3.2.3.7 1.4.6 1.4q.3.7.8 1.3l1.2.9.7.3h.7l.7.1.8.2.5.1.3.3.2.3v.4zM236 301.3q.7 0 1.1 1.3.8 2.3 1.1 2.3.3 0 .5-.4 5.5-8.8 10.2-14.2 1.2-1.4 3.8-1.4l.9.1q.2.1.2.3 0 .3-.6 1-7.6 9.2-14 19.2-.5.7-1.9.7h-1.6q-.7-.4-1.6-3-1-3-1-3.8 0-.8 1.4-1.6.8-.5 1.4-.5zM56.3 67.7v.4l-.3.5-.5.3h-2.4q-.8 0-1.2.2-.4.1-.5.4l-.2.8q0 .4-.3 1l-.2.6-.2.5v.2l.4.2h1.5l.9-.1h.5l.7.2.5.4q.2.2.2.5t-.2.5q0 .2-.3.4l-.5.3H53l-.7-.2-1.1.1H50q-.5.4-.7.8l-.3 1v1q-.1.5-.4.8l-.2.4v.8l-.2.4-.2.4v.4l-.2.5-.3.8-.3.6v.8l-.4.6-.5.5q-.3.2-.8.2-.4 0-.6-.2l-.3-.3-.1-.5v-1.2l.2-.3q.2 0 .3-.2l.2-.6v-.5l.3-.5.2-.5.2-.5.1-1q.2-.3.2-.8v-.6l.3-.6.2-.6.2-.6-.5-.3H44l-.6-.2-.2.2-.2.2-.2.1-.1.4-.1.5-.1.6-.2.8-.4 1-.2.4v1.1l-.2.6-.3.5-.3.5-.2.5v.5l-.2.8-.4.6-.6.5-.8.1h-.5l-.4-.2-.2-.9-.1-.9q0-.4.3-1l.6-1.2.6-1.2.2-.9.2-.5.4-.8.3-.8.2-.8q0-.4-.4-.4l-.8-.1H38l-.6-.2-.5-.3-.1-.6q0-.5.2-.8l.8-.4.9-.1H40l.7.1q.3 0 .5-.2l.3-.7.2-.8.3-.7.2-.5.2-.5q0-.3-.2-.3h-2l-.7-.1-.6-.2-.5-.4-.1-.7.1-.5q.2-.3.5-.4l.5-.3h1.8l.7.2h.7q.3 0 .4-.2l.2-.4.2-.5.1-.4.1-.7.2-.5.2-.6.2-.9v-1.2l.2-.6q0-.3.2-.5l-.1-.6.2-1q.1-.6.4-1.1l.8-.8q.4-.4 1-.4.7 0 1 .4.4.5.4 1.1v.9l-.1.5-.5.7-.7 2.8-.3.5-.4 1.1-.4 1.1-.2.7.3.6q.3.3.7.3l.6-.1q.3-.2.7-.2h1.4l.6-.1.3-.5.1-.6.2-.6.3-.5.1-.2.1-.2v-.5l.2-.6.2-.6.2-.5.1-.7-.1-.2-.1-.4v-.7l.2-.8.1-.7.6-.8.6-.5.8-.2q.4 0 .7.3l.5.6v1.7l-.5.7q0 .4-.2.7v.7q0 .4-.2.6l-.1.4-.3.5-.4 1-.2.3-.3.9-.3.8-.1.4.1.2.4.2h2.4q.3 0 .4.2l.4.3.1.4zm-7.1 1.5L49 69h-1.1l-.6-.1-.5-.1-.8.1-.8.2-.5.8-.2 1v.4l-.2.3-.2.4v.4l.1.4h.4l1 .1h1.8l.6-.1.3-.7.3-.5.3-.6.1-.8.1-.5.2-.5zm29.3-1.5v.4l-.3.5-.5.3h-2.4q-.9 0-1.2.2-.4.1-.5.4-.2.3-.2.8 0 .4-.3 1l-.3.6-.1.5v.2l.4.2h1.5l.8-.1h.6l.7.2.5.4q.2.2.2.5t-.2.5l-.3.4-.5.3h-.5l-.7-.1-.8-.2-1 .1h-1.1q-.5.4-.7.8l-.3 1v1q-.1.5-.4.8l-.2.4v.8l-.2.4-.2.4v.4l-.2.5-.3.8-.3.6v.3l-.1.6q0 .3-.3.6l-.5.5q-.3.2-.8.2-.4 0-.6-.2l-.3-.3-.2-.5v-1.2l.3-.3.3-.2.2-.6v-.5l.3-.5.2-.5.2-.5.1-1q.2-.3.2-.8v-.6l.3-.6.2-.6.2-.6-.5-.3h-2.5l-.6-.2-.2.2-.2.2-.2.1-.1.4-.1.5-.2.6-.2.8q0 .4-.3 1l-.2.4v.6l-.1.5-.1.6-.3.5-.3.5-.2.5v.5l-.2.8-.4.6-.6.5-.8.1h-.5l-.4-.2-.2-.9-.1-.9q0-.4.3-1l.6-1.2.6-1.2.2-.9.2-.5.4-.8.3-.8.2-.8q0-.4-.4-.4l-.8-.1h-1.2l-.6-.2-.5-.3q-.2-.2-.2-.6 0-.5.3-.8l.8-.4.9-.1h1.5l.7.1q.3 0 .5-.2l.3-.7.2-.8.3-.7q0-.3.2-.5l.1-.5q0-.3-.2-.3h-1.9l-.7-.1-.6-.2-.5-.4-.1-.7.1-.5q.2-.3.5-.4l.5-.3h1.7l.8.2h.7l.4-.2.2-.4.2-.5v-.4l.2-.7.2-.5.2-.6.2-.9v-1.2l.1-.6.3-.5-.1-.6.1-1 .5-1.1q.3-.5.8-.8.4-.4 1-.4.7 0 1 .4.4.5.4 1.1v.9l-.1.5-.5.7-.7 2.8-.3.5-.4 1.1-.4 1.1-.2.7.3.6q.3.3.7.3l.6-.1q.3-.2.7-.2h1.3l.6-.1.3-.5.1-.6.2-.6.3-.5.1-.2.1-.2v-.5l.1-.6.3-.6.2-.5V61l-.2-.4.1-.7.2-.8.1-.7.5-.8.7-.5.8-.2q.4 0 .7.3l.5.6v.9l-.1.8q-.1.4-.5.7v.7l-.2.7v.6l-.3.4q0 .2-.3.5l-.3 1-.3.3-.3.9-.2.8-.2.4q0 .2.2.2l.3.2h2.5l.4.2.4.3.1.4zm-7.1 1.5L71 69h-1l-.6-.1-.5-.1-.8.1-.8.2-.5.8-.2 1v.4l-.2.3-.2.4v.4l.1.4h.4l1 .1h1.8l.6-.1.3-.7.3-.5.3-.6v-.8q0-.3.2-.5l.2-.5zm29.3-1.5v.4l-.3.5-.5.3h-2.4q-.9 0-1.2.2-.4.1-.5.4-.2.3-.2.8 0 .4-.3 1l-.3.6-.1.5v.2l.4.2h1.5l.8-.1h.6l.7.2.5.4q.2.2.2.5t-.2.5l-.3.4-.5.3H98l-.7-.1-.8-.2-1 .1h-1.1q-.5.4-.7.8l-.3 1v1l-.4.8-.2.4v.8l-.3.4-.1.4v.4l-.2.5-.3.8-.3.6v.3l-.1.6q0 .3-.3.6l-.5.5-.8.2q-.4 0-.6-.2l-.3-.3-.2-.5v-1.2l.3-.3.3-.2.2-.6v-.5l.3-.5.2-.5.1-.5.2-1q.2-.3.2-.8v-.6l.3-.6.2-.6.2-.6-.5-.3h-2.5l-.6-.2-.2.2-.2.2-.2.1-.1.4-.2.5v.6l-.3.8q0 .4-.3 1l-.2.4v.6l-.1.5-.1.6-.3.5-.3.5-.2.5v.5l-.2.8-.4.6-.6.5-.8.1h-.5l-.5-.2-.1-.9-.1-.9.2-1 .6-1.2.6-1.2q.3-.5.3-.9l.2-.5.3-.8.4-.8.2-.8q0-.4-.4-.4l-.8-.1h-1.2l-.6-.2-.5-.3q-.2-.2-.2-.6 0-.5.3-.8l.7-.4 1-.1h1.4l.7.1q.4 0 .6-.2l.3-.7.2-.8.3-.7q0-.3.2-.5l.1-.5q0-.3-.2-.3h-1.8L84 69q-.4 0-.7-.2l-.4-.4q-.2-.3-.2-.7 0-.3.2-.5l.4-.4.6-.3h1.7l.8.2h.7l.4-.2.2-.4.1-.5.2-.4.1-.7.2-.5.2-.6.2-.9v-1.2l.1-.6.3-.5-.1-.6.1-1 .5-1.1q.3-.5.8-.8.4-.4 1-.4.7 0 1 .4.4.5.4 1.1v.9l-.1.5-.5.7-.7 2.8-.3.5-.4 1.1-.4 1.1-.2.7q0 .3.3.6t.7.3l.6-.1q.2-.2.7-.2h1.3l.6-.1.3-.5.1-.6.2-.6.2-.5q.2 0 .2-.2l.1-.2v-.5l.1-.6.2-.6.3-.5V61l-.2-.4.1-.7.1-.8.2-.7.5-.8.7-.5.8-.2q.4 0 .7.3l.5.6v.9l-.1.8q-.1.4-.5.7v.7l-.2.7v.6l-.3.4q0 .2-.3.5l-.4 1-.2.3-.3.9-.3.8v.5l.4.2h2.5l.4.2.4.3.1.4zm-7.2 1.5q0-.2-.2-.2h-1l-.6-.1-.5-.1-.8.1-.8.2-.5.8-.2 1v.4l-.2.3-.2.4v.8h.5l1 .1h1.7l.6-.1.3-.7.3-.5.3-.6v-.8q0-.3.2-.5l.1-.5zm29.4-1.5l-.1.4q0 .3-.3.5-.1.2-.4.3h-2.4q-.9 0-1.3.2-.3.1-.4.4-.2.3-.2.8 0 .4-.3 1l-.3.6-.1.5v.2l.4.2h1.5l.8-.1h.6l.6.2.6.4q.2.2.2.5t-.2.5l-.4.4-.4.3h-.5l-.8-.1q-.3-.2-.7-.2l-1 .1h-1.2q-.5.4-.6.8l-.3 1-.1 1q0 .5-.3.8l-.2.4v.8l-.3.4-.1.4v.4l-.2.5-.3.8-.3.6v.3l-.1.6-.3.6-.5.5-.8.2q-.4 0-.6-.2l-.3-.3-.2-.5v-1.2l.3-.3.2-.2.3-.6v-.5l.3-.5.2-.5.1-.5.2-1q.2-.3.2-.8v-.6l.3-.6.2-.6.2-.6-.5-.3h-2.5l-.6-.2-.2.2q-.2 0-.3.2l-.1.1-.2.4v.5l-.2.6-.2.8-.4 1-.1.4v.6l-.1.5-.1.6-.3.5-.3.5-.2.5-.1.5-.2.8-.4.6q-.2.3-.6.5l-.7.1h-.5l-.5-.2-.2-.9v-.9l.2-1 .6-1.2.6-1.2q.3-.5.3-.9l.2-.5.3-.8.4-.8.2-.8q0-.4-.4-.4l-.8-.1h-1.2q-.4 0-.6-.2l-.5-.3q-.2-.2-.2-.6 0-.5.3-.8l.7-.4 1-.1h1.4l.7.1q.4 0 .6-.2l.3-.7.2-.8q0-.4.2-.7l.3-.5.1-.5q0-.3-.2-.3H107l-.7-.1q-.4 0-.7-.2l-.4-.4q-.2-.3-.2-.7 0-.3.2-.5l.4-.4.6-.3h1.7l.8.2h.7l.4-.2.2-.4.1-.5q0-.3.2-.4v-.7l.3-.5.2-.6.1-.9V62l.1-.7.1-.6.2-.5v-.6l.1-1 .5-1.1q.3-.5.7-.8.5-.4 1-.4.7 0 1.1.4.4.5.4 1.1v.9l-.1.5-.5.7-.7 2.8-.4.5-.3 1.1-.4 1.1-.2.7q0 .3.3.6.2.3.7.3l.6-.1q.2-.2.7-.2h1.2l.6-.1.3-.5.1-.6.2-.6.2-.5.2-.2V64l.1-.5.1-.6.2-.6.3-.5V61l-.2-.4.1-.7.1-.8.2-.7.5-.8.7-.5.8-.2q.4 0 .7.3l.5.6v.9l-.1.8q-.1.4-.5.7v.7l-.2.7v.6l-.3.4-.3.5-.4 1-.2.3-.3.9-.3.8v.5l.4.2h2.5l.4.2.4.3.1.4zm-7.2 1.5q0-.2-.2-.2h-1.1l-.5-.1-.5-.1-.8.1-.8.2-.5.8-.2 1v.4l-.3.3-.1.4v.8h.5l1 .1h1.7l.6-.1q.1-.5.3-.7l.3-.5.3-.6v-.8q0-.3.2-.5l.1-.5zm29.3-1.5v.4q0 .3-.3.5-.1.2-.4.3h-2.5q-.8 0-1.2.2-.3.1-.5.4l-.1.8q0 .4-.3 1l-.3.6-.2.5v.2l.5.2h1.4l.9-.1h.6l.6.2.5.4q.3.2.3.5t-.2.5l-.4.4-.4.3h-.5l-.8-.1q-.3-.2-.7-.2l-1 .1h-1.2q-.5.4-.6.8l-.3 1-.1 1q0 .5-.3.8l-.2.4v.3l-.1.5-.2.4-.1.4v.4l-.2.5-.3.8-.3.6v.3l-.1.6-.3.6q-.2.3-.6.5-.3.2-.8.2-.3 0-.5-.2l-.3-.3-.2-.5v-1.2l.3-.3.2-.2.3-.6v-.5l.3-.5.2-.5.1-.5.2-1 .1-.8.1-.6.2-.6.3-.6.2-.6-.5-.3h-2.5l-.6-.2-.3.2-.2.2-.1.1-.2.4v.5l-.2.6-.2.8-.4 1-.1.4v.6l-.1.5-.2.6q0 .3-.2.5l-.3.5-.2.5-.1.5-.2.8-.4.6q-.2.3-.6.5l-.7.1h-.5l-.5-.2-.2-.9v-.9l.2-1 .6-1.2.6-1.2q.3-.5.3-.9l.2-.5.3-.8.4-.8.2-.8q0-.4-.4-.4l-.8-.1h-1.3l-.6-.2-.4-.3q-.2-.2-.2-.6 0-.5.3-.8l.7-.4 1-.1h1.4l.7.1q.4 0 .5-.2l.4-.7.2-.8q0-.4.2-.7l.3-.5.1-.5q0-.3-.2-.3h-1.9l-.7-.1q-.4 0-.7-.2l-.4-.4q-.2-.3-.2-.7 0-.3.2-.5l.4-.4.6-.3h1.7l.8.2h.7q.2 0 .3-.2l.3-.4.1-.5q0-.3.2-.4v-.7l.3-.5.2-.6.1-.9V62l.1-.7.1-.6q0-.3.2-.5v-.6l.1-1 .5-1.1q.3-.5.7-.8.5-.4 1-.4.7 0 1 .4.5.5.5 1.1v.9l-.2.5-.4.7-.7 2.8-.4.5-.4 1.1-.3 1.1-.2.7q0 .3.3.6.2.3.7.3l.5-.1q.3-.2.7-.2h1.4l.6-.1.3-.5v-.6l.3-.6.2-.5.2-.2V64l.1-.5.1-.6.2-.6.3-.5V61l-.2-.4.1-.7.1-.8.2-.7.5-.8.7-.5.8-.2q.4 0 .6.3l.5.6v.9q.1.3 0 .8l-.5.7-.1.7-.1.7-.1.6-.2.4-.3.5-.4 1-.2.3-.3.9-.3.8-.1.4q0 .2.2.2l.3.2h2.5l.4.2.4.3v.4zm-7 1.5l-.3-.2h-1.1l-.5-.1-.5-.1-.8.1-.8.2-.5.8-.2 1v.4l-.3.3-.1.4-.1.4q0 .3.2.4h.4l1 .1h1.7l.6-.1q.1-.5.3-.7l.3-.5q.2-.2.2-.6l.1-.8q0-.3.2-.5l.1-.5zm29.3-1.5l-.1.4-.3.5-.4.3H164q-.8 0-1.2.2-.3.1-.5.4l-.2.8-.2 1-.3.6-.2.5v.2l.5.2h1.4l.9-.1h.6l.6.2.5.4q.2.2.2.5l-.1.5-.4.4-.5.3h-.4l-.8-.1q-.3-.2-.7-.2l-1.1.1h-1q-.6.4-.8.8l-.2 1-.1 1q0 .5-.3.8l-.2.4v.3l-.1.5-.2.4-.1.4-.1.4-.2.5-.3.8-.2.6v.3l-.1.6-.3.6q-.2.3-.6.5-.3.2-.8.2-.3 0-.5-.2l-.3-.3-.2-.5v-1.2l.3-.3.2-.2.3-.6v-.5l.3-.5q0-.3.2-.5l.1-.5.2-1 .1-.8.1-.6.2-.6.3-.6.2-.6-.5-.3H155l-.6-.2-.3.2-.2.2-.1.1-.2.4v.5l-.2.6-.2.8-.4 1-.1.4v.6l-.2.5v.6l-.3.5-.3.5-.3.5v.5l-.2.8-.4.6q-.2.3-.6.5l-.7.1h-.5l-.5-.2-.2-.9v-.9l.2-1 .6-1.2.6-1.2q.3-.5.3-.9l.1-.5.4-.8.4-.8.2-.8q0-.4-.4-.4l-.8-.1h-1.3l-.6-.2-.4-.3q-.2-.2-.2-.6 0-.5.3-.8l.7-.4.9-.1h1.5l.7.1q.4 0 .5-.2l.3-.7.3-.8q0-.4.2-.7l.3-.5v-.5l-.1-.3h-1.9l-.7-.1q-.4 0-.7-.2l-.4-.4q-.2-.3-.2-.7 0-.3.2-.5l.4-.4.6-.3h1.7l.8.2h.7q.2 0 .3-.2l.2-.4.2-.5.1-.4q0-.4.2-.7l.2-.5.2-.6.1-.9v-1.2l.2-.6q0-.3.2-.5v-1.6l.6-1.1q.3-.5.7-.8.5-.4 1-.4.7 0 1 .4.4.5.4 1.1v.5q.1.2 0 .4v.5l-.5.7-.7 2.8q-.2 0-.4.5l-.4 1.1-.3 1.1-.3.7.4.6q.2.3.7.3l.5-.1q.3-.2.7-.2h1.4l.6-.1q.2-.2.2-.5l.2-.6.2-.6.2-.5.2-.2V64l.1-.5.1-.6.2-.6.2-.5.1-.7V61l-.2-.4v-.7l.2-.8.2-.7.5-.8.7-.5.8-.2q.4 0 .6.3l.5.6v1.6l-.5.7-.1.7-.1.7-.1.6-.2.4-.3.5-.4 1-.2.3-.3.9-.3.8-.1.4.1.2.4.2h2.4q.3 0 .5.2l.3.3.2.4zm-7.2 1.5l-.2-.2h-1.1l-.5-.1-.6-.1-.7.1-.8.2-.5.8-.2 1-.1.4-.2.3-.1.4-.1.4.1.4h.5l1 .1h1.7l.6-.1q.1-.5.3-.7l.3-.5.2-.6.1-.8q0-.3.2-.5l.1-.5zm29.4-1.5l-.1.4-.3.5-.4.3h-2.5q-.8 0-1.2.2-.3.1-.5.4l-.2.8-.2 1-.3.6-.2.5v.2l.5.2h1.4l.9-.1h.6l.6.2.5.4q.2.2.2.5l-.1.5-.4.4-.5.3h-.5l-.7-.1q-.3-.2-.7-.2l-1.1.1h-1q-.6.4-.8.8l-.2 1-.1 1q-.1.5-.4.8l-.1.4v.3l-.1.5-.2.4-.2.4v.4l-.2.5-.3.8-.2.6v.3l-.2.6q0 .3-.3.6-.1.3-.5.5-.3.2-.8.2-.3 0-.5-.2l-.4-.3-.1-.5v-1.2l.2-.3q.2 0 .3-.2l.2-.6.1-.5.2-.5.3-.5v-.5l.2-1q.2-.3.2-.8l.1-.6.2-.6.3-.6.2-.6-.5-.3h-2.5q-.4 0-.6-.2l-.3.2-.2.2-.2.1v.4q-.2.2-.2.5l-.1.6-.2.8-.4 1-.1.4-.1.6v.5l-.2.6-.3.5q0 .3-.2.5l-.3.5v.5l-.2.8-.4.6q-.2.3-.6.5l-.8.1h-.4l-.5-.2-.2-.9v-.9l.2-1 .6-1.2.6-1.2q.3-.5.3-.9l.1-.5.4-.8.4-.8.1-.8q0-.4-.3-.4l-.8-.1H171l-.6-.2-.4-.3q-.2-.2-.2-.6 0-.5.3-.8l.7-.4.9-.1h1.5l.7.1q.3 0 .5-.2l.3-.7.3-.8q0-.4.2-.7l.2-.5.2-.5q0-.3-.2-.3h-2l-.7-.1-.6-.2-.5-.4-.1-.7q0-.3.2-.5.1-.3.4-.4l.6-.3h1.7l.8.2h.6q.3 0 .4-.2l.2-.4.2-.5.1-.4.1-.7.2-.5.3-.6.1-.9v-1.2l.2-.6q0-.3.2-.5v-1.6l.6-1.1q.3-.5.7-.8.5-.4 1-.4.7 0 1 .4.4.5.4 1.1v.5q.1.2 0 .4v.5l-.6.7-.6 2.8q-.2 0-.4.5l-.4 1.1-.4 1.1-.2.7.4.6q.2.3.7.3l.5-.1q.3-.2.7-.2h1.4l.6-.1.2-.5.2-.6.1-.6.3-.5.2-.2v-.7l.2-.6.2-.6.2-.5.1-.7-.1-.2-.1-.4v-.7l.2-.8.2-.7.5-.8.7-.5.7-.2q.5 0 .7.3l.5.6v1.7l-.5.7-.1.7-.1.7-.1.6-.2.4-.3.5-.4 1-.2.3-.3.9-.3.8-.1.4.1.2.4.2h2.4q.3 0 .5.2l.3.3.2.4zm-7.2 1.5l-.2-.2H181l-.5-.1-.6-.1-.8.1q-.3.2-.7.2l-.5.8-.2 1-.1.4-.2.3-.1.4-.1.4.1.4h.4l1 .1h1.9l.5-.1.4-.7.3-.5.2-.6.1-.8q0-.3.2-.5v-.5zM249.5 68.4v.4l-.3.5-.5.3h-2.4q-.8 0-1.2.2-.4.1-.5.4l-.2.8q0 .4-.3 1l-.2.6-.2.5v.2l.4.2h1.5l.9-.1h.5l.7.2.5.4q.2.2.2.5t-.2.5q0 .2-.3.4l-.5.3h-.5l-.7-.1-.7-.2-1.1.1h-1.1q-.5.4-.7.8l-.2 1-.2 1q0 .5-.3.8l-.2.4v.8l-.2.4-.2.4v.4l-.2.5-.3.8-.3.6v.9l-.4.6-.5.5q-.3.2-.8.2-.4 0-.6-.2l-.3-.3-.1-.5v-1.2l.2-.3q.2 0 .3-.2l.2-.6v-.5l.3-.5.2-.5.2-.5.1-1q.2-.3.2-.8V78l.3-.6.2-.6.2-.6-.5-.3h-2.5l-.6-.2-.2.2-.2.2-.2.1-.1.4-.1.5-.1.6-.2.8-.4 1-.2.4V81l-.2.6-.3.5-.3.5-.2.5v.5l-.2.8-.4.6-.6.5-.8.1h-.5l-.4-.2-.2-.9-.1-.9q0-.4.3-1l.6-1.2.6-1.2.2-.9.2-.5.4-.8.3-.8.2-.8q0-.4-.4-.4l-.8-.1h-1.2l-.6-.2-.5-.3q-.2-.2-.2-.6 0-.5.3-.8l.8-.4.9-.1h1.5l.7.1q.3 0 .5-.2l.3-.7.2-.8.3-.7.2-.5.2-.5q0-.3-.2-.3h-2l-.7-.1-.6-.2-.5-.4-.1-.7.1-.5q.2-.3.5-.4l.5-.3h1.8l.7.2h.7q.3 0 .4-.2l.2-.4.2-.5.1-.4.1-.7.2-.5.2-.6.2-.9v-1.2l.2-.6q0-.3.2-.5l-.1-.6.2-1q.1-.6.4-1.1l.8-.8q.4-.4 1-.4.7 0 1 .4.4.5.4 1.1v.9l-.1.5-.5.7-.7 2.8-.3.5-.4 1.1-.4 1.1-.2.7.3.6q.3.3.7.3l.6-.1q.3-.2.7-.2h1.3l.6-.1.3-.5.1-.6.2-.6.3-.5.1-.2.1-.2v-.5l.2-.6.2-.6.2-.5.1-.7-.1-.2-.1-.4v-.7l.2-.8.1-.7.6-.8.6-.5.8-.2q.4 0 .7.3l.5.6V60l-.5.7q0 .4-.2.7v.7q0 .4-.2.6l-.1.4-.3.5-.4 1-.2.3-.3.9-.3.8-.1.4.1.2.4.2h2.4q.3 0 .4.2l.4.3.1.4zm-7.1 1.5l-.2-.2H241l-.6-.1-.5-.1-.8.1-.8.2-.5.8-.2 1v.4l-.2.3-.2.4v.4l.1.4h.4l1 .1h1.9l.6-.1.3-.7.3-.5.3-.6.1-.8.1-.5.2-.5zm29.3-1.5v.4l-.3.5-.5.3h-2.4q-.9 0-1.2.2-.4.1-.5.4-.2.3-.2.8 0 .4-.3 1l-.3.6-.1.5v.2l.4.2h1.5l.8-.1h.6l.7.2.5.4q.2.2.2.5t-.2.5l-.3.4-.5.3h-.5l-.7-.1-.8-.2-1 .1h-1.1q-.5.4-.7.8l-.3 1v1q-.1.5-.4.8l-.2.4v.8l-.2.4-.2.4v.4l-.2.5-.3.8-.3.6v.3l-.1.6q0 .3-.3.6l-.5.5q-.3.2-.8.2-.4 0-.6-.2l-.3-.3-.2-.5v-1.2l.3-.3.3-.2.2-.6v-.5l.3-.5.2-.5.2-.5.1-1q.2-.3.2-.8V78l.3-.6.2-.6.2-.6-.5-.3h-2.5l-.6-.2-.2.2-.2.2-.2.1-.1.4-.1.5-.2.6-.2.8q0 .4-.3 1l-.2.4v.6l-.1.5-.1.6-.3.5-.3.5-.2.5v.5l-.2.8-.4.6-.6.5-.8.1h-.5l-.4-.2-.2-.9-.1-.9q0-.4.3-1l.6-1.2.6-1.2.2-.9.2-.5.4-.8.3-.8.2-.8q0-.4-.4-.4l-.8-.1h-1.2l-.6-.2-.5-.3q-.2-.2-.2-.6 0-.5.3-.8l.8-.4.9-.1h1.5l.7.1q.3 0 .5-.2l.3-.7.2-.8.3-.7q0-.3.2-.5l.1-.5q0-.3-.2-.3h-1.9l-.7-.1-.6-.2-.5-.4-.1-.7.1-.5q.2-.3.5-.4l.5-.3h1.7l.8.2h.7l.4-.2.2-.4.2-.5V66l.2-.7.2-.5.2-.6.2-.9v-1.2l.1-.6.3-.5-.1-.6.1-1 .5-1.1q.3-.5.8-.8.4-.4 1-.4.7 0 1 .4.4.5.4 1.1v.9l-.1.5-.5.7-.7 2.8-.3.5-.4 1.1-.4 1.1-.2.7.3.6q.3.3.7.3l.6-.1q.3-.2.7-.2h1.3l.6-.1.3-.5.1-.6.2-.6.3-.5.1-.2.1-.2v-.5l.1-.6.3-.6.2-.5V61.7l-.2-.4.1-.7.2-.8.1-.7.5-.8.7-.5.8-.2q.4 0 .7.3l.5.6v.9l-.1.8q-.1.4-.5.7v.7l-.2.7v.6l-.3.4q0 .2-.3.5l-.3 1-.3.3-.3.9-.2.8-.2.4q0 .2.2.2l.3.2h2.5l.4.2.4.3.1.4zm-7.1 1.5l-.3-.2h-1l-.6-.1-.5-.1-.8.1-.8.2-.5.8-.2 1v.4l-.2.3-.2.4v.4l.1.4h.4l1 .1h1.7l.6-.1.3-.7.3-.5.3-.6V71q0-.3.2-.5l.2-.5z"/></svg>