<svg xmlns="http://www.w3.org/2000/svg" fill="none" viewBox="0 0 348 348"><path fill="#000" d="M4.08 4.78v339.67h338.91V4.78zm2 2h334.91v335.67H6.08z" color="#000" font-family="sans-serif" font-weight="400" overflow="visible" style="line-height:normal;font-variant-ligatures:normal;font-variant-position:normal;font-variant-caps:normal;font-variant-numeric:normal;font-variant-alternates:normal;font-feature-settings:normal;text-indent:0;text-align:start;text-decoration-line:none;text-decoration-style:solid;text-decoration-color:#000;text-transform:none;text-orientation:mixed;white-space:normal;shape-padding:0;isolation:auto;mix-blend-mode:normal;solid-color:#000;solid-opacity:1"/><path fill="#000" d="M298.3 24.39c-9.13 0-16.57 7.23-16.57 16.16s7.44 16.17 16.56 16.17c9.12 0 16.56-7.23 16.56-16.17 0-4.29-1.75-8.4-4.86-11.44a16.76 16.76 0 00-11.7-4.72zm0 2c3.86 0 7.57 1.5 10.3 4.16a13.97 13.97 0 014.25 10c0 7.83-6.49 14.17-14.56 14.17-8.06 0-14.56-6.34-14.56-14.17 0-7.82 6.5-14.16 14.56-14.16z" color="#000" font-family="sans-serif" font-weight="400" overflow="visible" style="line-height:normal;font-variant-ligatures:normal;font-variant-position:normal;font-variant-caps:normal;font-variant-numeric:normal;font-variant-alternates:normal;font-feature-settings:normal;text-indent:0;text-align:start;text-decoration-line:none;text-decoration-style:solid;text-decoration-color:#000;text-transform:none;text-orientation:mixed;white-space:normal;shape-padding:0;isolation:auto;mix-blend-mode:normal;solid-color:#000;solid-opacity:1"/><path fill="#000" d="M16.63 20.6a.96.96 0 00-.96.96v217.81a.96.96 0 00.96.96H157.4a.96.96 0 00.96-.96V21.57a.96.96 0 00-.96-.96zm.95 1.92h138.86v215.9H17.58zM165.71 27.26a.96.96 0 00-.96.95v44.34a.96.96 0 00.96.96h107.52a.96.96 0 00.96-.96V28.21a.96.96 0 00-.96-.95zm.96 1.91h105.6V71.6h-105.6zM193.98 113.16a.96.96 0 00-.96.96v35.47a.96.96 0 00.96.96h108.07a.96.96 0 00.96-.96v-35.47a.96.96 0 00-.96-.96zm.96 1.92h106.15v33.55H194.94zM233.88 244.51a.96.96 0 00-.96.96v90.34a.96.96 0 00.96.96h98.1a.96.96 0 00.96-.96v-90.34a.96.96 0 00-.96-.96zm.96 1.92h96.18v88.42h-96.18zM37.69 276.66a23.14 23.14 0 00-23.13 23.12 23.14 23.14 0 0023.13 23.13 23.14 23.14 0 0023.12-23.13 23.14 23.14 0 00-23.12-23.12zm0 1.91a21.2 21.2 0 0121.2 21.21A21.2 21.2 0 0137.7 321a21.2 21.2 0 01-21.21-21.2 21.2 21.2 0 0121.2-21.22zM87.01 276.66a23.14 23.14 0 00-23.13 23.12 23.14 23.14 0 0023.13 23.13 23.14 23.14 0 0023.13-23.13A23.14 23.14 0 0087 276.66zm0 1.91a21.2 21.2 0 0121.21 21.21A21.2 21.2 0 0187.02 321a21.2 21.2 0 01-21.22-21.2 21.2 21.2 0 0121.21-21.22zM137.45 276.66a23.14 23.14 0 00-23.13 23.12 23.14 23.14 0 0023.13 23.13 23.14 23.14 0 0023.12-23.13 23.14 23.14 0 00-23.12-23.12zm0 1.91a21.2 21.2 0 0121.2 21.21 21.2 21.2 0 01-21.2 21.21 21.2 21.2 0 01-21.21-21.2 21.2 21.2 0 0121.2-21.22zM191.2 276.66a23.14 23.14 0 00-23.12 23.12 23.14 23.14 0 0023.13 23.13 23.14 23.14 0 0023.12-23.13 23.14 23.14 0 00-23.12-23.12zm0 1.91a21.2 21.2 0 0121.22 21.21A21.2 21.2 0 01191.2 321a21.2 21.2 0 01-21.22-21.2 21.2 21.2 0 0121.22-21.22z" color="#000" font-family="sans-serif" font-weight="400" overflow="visible" paint-order="stroke fill markers" style="line-height:normal;font-variant-ligatures:normal;font-variant-position:normal;font-variant-caps:normal;font-variant-numeric:normal;font-variant-alternates:normal;font-feature-settings:normal;text-indent:0;text-align:start;text-decoration-line:none;text-decoration-style:solid;text-decoration-color:#000;text-transform:none;text-orientation:mixed;white-space:normal;shape-padding:0;isolation:auto;mix-blend-mode:normal;solid-color:#000;solid-opacity:1"/><g fill="#000" aria-label="GO!" font-family="sans-serif" font-size="46.67" font-weight="400" letter-spacing="0" style="line-height:1.25;text-align:center" text-anchor="middle" word-spacing="0"><path d="M272.62 305.04q-2.78 1.27-6.09 2.23-3.28.93-6.35.93-3.97 0-7.27-1.1-3.3-1.08-5.63-3.27-2.35-2.21-3.62-5.52-1.28-3.32-1.28-7.77 0-8.13 4.74-12.83 4.76-4.71 13.06-4.71 2.89 0 5.9.7 3.03.69 6.51 2.35v5.36h-.4q-.71-.55-2.06-1.44-1.34-.89-2.64-1.48-1.57-.7-3.58-1.16-1.98-.48-4.5-.48-5.7 0-9.03 3.67-3.3 3.64-3.3 9.89 0 6.58 3.46 10.25 3.46 3.65 9.43 3.65 2.19 0 4.35-.44 2.19-.43 3.83-1.11v-8.32h-9.1v-3.97h13.57zM305.8 277.5q2.07 2.29 3.16 5.6 1.12 3.3 1.12 7.49 0 4.2-1.14 7.52-1.12 3.3-3.15 5.51-2.1 2.3-4.96 3.47-2.85 1.16-6.52 1.16-3.58 0-6.52-1.19-2.91-1.18-4.96-3.44-2.06-2.25-3.17-5.53-1.1-3.29-1.1-7.5 0-4.15 1.1-7.43 1.1-3.3 3.19-5.65 2-2.23 4.97-3.42 2.98-1.18 6.49-1.18 3.65 0 6.54 1.2 2.92 1.19 4.94 3.4zm-.42 13.09q0-6.6-2.96-10.19-2.96-3.6-8.09-3.6-5.17 0-8.13 3.6-2.94 3.58-2.94 10.19 0 6.68 3 10.23 3.01 3.53 8.07 3.53 5.06 0 8.05-3.53 3-3.55 3-10.23zM324.41 273.61l-.6 24.59h-3.87l-.63-24.59zm-.23 33.93h-4.65v-4.8h4.65z"/></g><path fill="#000" d="M193.98 170.8a.96.96 0 00-.96.96v35.47a.96.96 0 00.96.96h108.07a.96.96 0 00.96-.96v-35.47a.96.96 0 00-.96-.96zm.96 1.92h106.15v33.55H194.94zM308 173.51a.96.96 0 01.46.13l26.02 15.02a.96.96 0 010 1.66l-26.02 15.03a.96.96 0 01-1.44-.83v-30.05a.96.96 0 01.99-.96zm.94 2.62v26.73l23.15-13.37zM307.45 116.98a.96.96 0 01.45.13l26.03 15.02a.96.96 0 010 1.66l-26.03 15.03a.96.96 0 01-1.44-.83v-30.05a.96.96 0 011-.96zm.93 2.62v26.73l23.15-13.37zM188.21 172.96a.96.96 0 00-.45.12l-26.02 15.03a.96.96 0 000 1.66l26.02 15.02a.96.96 0 001.44-.83v-30.05a.96.96 0 00-.99-.95zm-.93 2.61v26.73l-23.15-13.36zM188.21 116.43a.96.96 0 00-.45.12l-26.02 15.03a.96.96 0 000 1.66l26.02 15.02a.96.96 0 001.44-.83v-30.05a.96.96 0 00-.99-.95zm-.93 2.61v26.74l-23.15-13.37z" color="#000" font-family="sans-serif" font-weight="400" overflow="visible" paint-order="stroke fill markers" style="line-height:normal;font-variant-ligatures:normal;font-variant-position:normal;font-variant-caps:normal;font-variant-numeric:normal;font-variant-alternates:normal;font-feature-settings:normal;text-indent:0;text-align:start;text-decoration-line:none;text-decoration-style:solid;text-decoration-color:#000;text-transform:none;text-orientation:mixed;white-space:normal;shape-padding:0;isolation:auto;mix-blend-mode:normal;solid-color:#000;solid-opacity:1"/></svg>