<svg xmlns="http://www.w3.org/2000/svg" height="512" width="512" fill="none"><path d="M18 18h476v476H18z" stroke="#000" stroke-width="4" style="fill:#4d4d4d"/><circle style="fill:#000;fill-opacity:1;stroke:gray;stroke-width:3.36210585;stroke-linecap:square;stroke-linejoin:miter;stroke-miterlimit:4;stroke-dasharray:none;stroke-opacity:1;paint-order:normal" cx="56.377" cy="56" r="24.53"/><circle style="fill:#fff;fill-opacity:1;stroke:#000;stroke-width:3.36210585;stroke-linecap:square;stroke-linejoin:miter;stroke-miterlimit:4;stroke-dasharray:none;stroke-opacity:1;paint-order:normal" cx="113.407" cy="56" r="24.53"/><circle style="fill:#000;fill-opacity:1;stroke:#000;stroke-width:3.36210585;stroke-linecap:square;stroke-linejoin:miter;stroke-miterlimit:4;stroke-dasharray:none;stroke-opacity:1;paint-order:normal" cx="170.437" cy="56" r="24.53"/><circle style="fill:#fff;fill-opacity:1;stroke:#000;stroke-width:3.36210585;stroke-linecap:square;stroke-linejoin:miter;stroke-miterlimit:4;stroke-dasharray:none;stroke-opacity:1;paint-order:normal" cx="227.467" cy="56" r="24.53"/><circle style="fill:#fff;fill-opacity:1;stroke:#fff;stroke-width:3.36210585;stroke-linecap:square;stroke-linejoin:miter;stroke-miterlimit:4;stroke-dasharray:none;stroke-opacity:1;paint-order:normal" cx="284.497" cy="56" r="24.53"/><circle style="fill:gray;fill-opacity:1;stroke:#000;stroke-width:3.36210585;stroke-linecap:square;stroke-linejoin:miter;stroke-miterlimit:4;stroke-dasharray:none;stroke-opacity:1;paint-order:normal" cx="341.528" cy="56" r="24.53"/><circle style="fill:#000;fill-opacity:1;stroke:#fff;stroke-width:3.36210585;stroke-linecap:square;stroke-linejoin:miter;stroke-miterlimit:4;stroke-dasharray:none;stroke-opacity:1;paint-order:normal" cx="398.558" cy="56" r="24.53"/><circle style="fill:#fff;fill-opacity:1;stroke:#000;stroke-width:3.36210585;stroke-linecap:square;stroke-linejoin:miter;stroke-miterlimit:4;stroke-dasharray:none;stroke-opacity:1;paint-order:normal" cx="455.588" cy="56" r="24.53"/><circle style="fill:#000;fill-opacity:1;stroke:#000;stroke-width:3.36210585;stroke-linecap:square;stroke-linejoin:miter;stroke-miterlimit:4;stroke-dasharray:none;stroke-opacity:1;paint-order:normal" cx="56.377" cy="112.948" r="24.53"/><circle style="fill:#000;fill-opacity:1;stroke:#fff;stroke-width:3.36210585;stroke-linecap:square;stroke-linejoin:miter;stroke-miterlimit:4;stroke-dasharray:none;stroke-opacity:1;paint-order:normal" cx="113.407" cy="112.948" r="24.53"/><circle style="fill:#fff;fill-opacity:1;stroke:#000;stroke-width:3.36210585;stroke-linecap:square;stroke-linejoin:miter;stroke-miterlimit:4;stroke-dasharray:none;stroke-opacity:1;paint-order:normal" cx="170.437" cy="112.948" r="24.53"/><circle style="fill:gray;fill-opacity:1;stroke:gray;stroke-width:3.36210585;stroke-linecap:square;stroke-linejoin:miter;stroke-miterlimit:4;stroke-dasharray:none;stroke-opacity:1;paint-order:normal" cx="227.467" cy="112.948" r="24.53"/><circle style="fill:gray;fill-opacity:1;stroke:#000;stroke-width:3.36210585;stroke-linecap:square;stroke-linejoin:miter;stroke-miterlimit:4;stroke-dasharray:none;stroke-opacity:1;paint-order:normal" cx="284.497" cy="112.948" r="24.53"/><circle style="fill:#fff;fill-opacity:1;stroke:#000;stroke-width:3.36210585;stroke-linecap:square;stroke-linejoin:miter;stroke-miterlimit:4;stroke-dasharray:none;stroke-opacity:1;paint-order:normal" cx="341.528" cy="112.948" r="24.53"/><circle style="fill:#fff;fill-opacity:1;stroke:#000;stroke-width:3.36210585;stroke-linecap:square;stroke-linejoin:miter;stroke-miterlimit:4;stroke-dasharray:none;stroke-opacity:1;paint-order:normal" cx="398.558" cy="112.948" r="24.53"/><circle style="fill:#1a1a1a;fill-opacity:1;stroke:#000;stroke-width:3.36210585;stroke-linecap:square;stroke-linejoin:miter;stroke-miterlimit:4;stroke-dasharray:none;stroke-opacity:1;paint-order:normal" cx="455.588" cy="112.948" r="24.53"/><circle style="fill:#fff;fill-opacity:1;stroke:#fff;stroke-width:3.36210585;stroke-linecap:square;stroke-linejoin:miter;stroke-miterlimit:4;stroke-dasharray:none;stroke-opacity:1;paint-order:normal" cx="56.377" cy="169.896" r="24.53"/><circle style="fill:#fff;fill-opacity:1;stroke:#000;stroke-width:3.36210585;stroke-linecap:square;stroke-linejoin:miter;stroke-miterlimit:4;stroke-dasharray:none;stroke-opacity:1;paint-order:normal" cx="113.407" cy="169.896" r="24.53"/><circle style="fill:gray;fill-opacity:1;stroke:#000;stroke-width:3.36210585;stroke-linecap:square;stroke-linejoin:miter;stroke-miterlimit:4;stroke-dasharray:none;stroke-opacity:1;paint-order:normal" cx="170.437" cy="169.896" r="24.53"/><circle style="fill:#fff;fill-opacity:1;stroke:#fff;stroke-width:3.36210585;stroke-linecap:square;stroke-linejoin:miter;stroke-miterlimit:4;stroke-dasharray:none;stroke-opacity:1;paint-order:normal" cx="227.467" cy="169.896" r="24.53"/><circle style="fill:#000;fill-opacity:1;stroke:#000;stroke-width:3.36210585;stroke-linecap:square;stroke-linejoin:miter;stroke-miterlimit:4;stroke-dasharray:none;stroke-opacity:1;paint-order:normal" cx="284.497" cy="169.896" r="24.53"/><circle style="fill:#fff;fill-opacity:1;stroke:gray;stroke-width:3.36210585;stroke-linecap:square;stroke-linejoin:miter;stroke-miterlimit:4;stroke-dasharray:none;stroke-opacity:1;paint-order:normal" cx="341.528" cy="169.896" r="24.53"/><circle style="fill:gray;fill-opacity:1;stroke:#fff;stroke-width:3.36210585;stroke-linecap:square;stroke-linejoin:miter;stroke-miterlimit:4;stroke-dasharray:none;stroke-opacity:1;paint-order:normal" cx="398.558" cy="169.896" r="24.53"/><circle style="fill:gray;fill-opacity:1;stroke:#000;stroke-width:3.36210585;stroke-linecap:square;stroke-linejoin:miter;stroke-miterlimit:4;stroke-dasharray:none;stroke-opacity:1;paint-order:normal" cx="455.588" cy="169.896" r="24.53"/><circle style="fill:#fff;fill-opacity:1;stroke:#000;stroke-width:3.36210585;stroke-linecap:square;stroke-linejoin:miter;stroke-miterlimit:4;stroke-dasharray:none;stroke-opacity:1;paint-order:normal" cx="56.377" cy="226.845" r="24.53"/><circle style="fill:#000;fill-opacity:1;stroke:#000;stroke-width:3.36210585;stroke-linecap:square;stroke-linejoin:miter;stroke-miterlimit:4;stroke-dasharray:none;stroke-opacity:1;paint-order:normal" cx="113.407" cy="226.845" r="24.53"/><circle style="fill:#000;fill-opacity:1;stroke:#000;stroke-width:3.36210585;stroke-linecap:square;stroke-linejoin:miter;stroke-miterlimit:4;stroke-dasharray:none;stroke-opacity:1;paint-order:normal" cx="170.437" cy="226.845" r="24.53"/><circle style="fill:#fff;fill-opacity:1;stroke:#000;stroke-width:3.36210585;stroke-linecap:square;stroke-linejoin:miter;stroke-miterlimit:4;stroke-dasharray:none;stroke-opacity:1;paint-order:normal" cx="227.467" cy="226.845" r="24.53"/><circle style="fill:#fff;fill-opacity:1;stroke:#000;stroke-width:3.36210585;stroke-linecap:square;stroke-linejoin:miter;stroke-miterlimit:4;stroke-dasharray:none;stroke-opacity:1;paint-order:normal" cx="284.497" cy="226.845" r="24.53"/><circle style="fill:gray;fill-opacity:1;stroke:#000;stroke-width:3.36210585;stroke-linecap:square;stroke-linejoin:miter;stroke-miterlimit:4;stroke-dasharray:none;stroke-opacity:1;paint-order:normal" cx="341.528" cy="226.845" r="24.53"/><circle style="fill:#000;fill-opacity:1;stroke:#fff;stroke-width:3.36210585;stroke-linecap:square;stroke-linejoin:miter;stroke-miterlimit:4;stroke-dasharray:none;stroke-opacity:1;paint-order:normal" cx="398.558" cy="226.845" r="24.53"/><circle style="fill:#fff;fill-opacity:1;stroke:#000;stroke-width:3.36210585;stroke-linecap:square;stroke-linejoin:miter;stroke-miterlimit:4;stroke-dasharray:none;stroke-opacity:1;paint-order:normal" cx="455.588" cy="226.845" r="24.53"/><circle style="fill:gray;fill-opacity:1;stroke:#000;stroke-width:3.36210585;stroke-linecap:square;stroke-linejoin:miter;stroke-miterlimit:4;stroke-dasharray:none;stroke-opacity:1;paint-order:normal" cx="56.377" cy="283.793" r="24.53"/><circle style="fill:#000;fill-opacity:1;stroke:gray;stroke-width:3.36210585;stroke-linecap:square;stroke-linejoin:miter;stroke-miterlimit:4;stroke-dasharray:none;stroke-opacity:1;paint-order:normal" cx="113.407" cy="283.793" r="24.53"/><circle style="fill:#fff;fill-opacity:1;stroke:gray;stroke-width:3.36210585;stroke-linecap:square;stroke-linejoin:miter;stroke-miterlimit:4;stroke-dasharray:none;stroke-opacity:1;paint-order:normal" cx="170.437" cy="283.793" r="24.53"/><circle style="fill:gray;fill-opacity:1;stroke:#000;stroke-width:3.36210585;stroke-linecap:square;stroke-linejoin:miter;stroke-miterlimit:4;stroke-dasharray:none;stroke-opacity:1;paint-order:normal" cx="227.467" cy="283.793" r="24.53"/><circle style="fill:#000;fill-opacity:1;stroke:#000;stroke-width:3.36210585;stroke-linecap:square;stroke-linejoin:miter;stroke-miterlimit:4;stroke-dasharray:none;stroke-opacity:1;paint-order:normal" cx="284.497" cy="283.793" r="24.53"/><circle style="fill:#fff;fill-opacity:1;stroke:#000;stroke-width:3.36210585;stroke-linecap:square;stroke-linejoin:miter;stroke-miterlimit:4;stroke-dasharray:none;stroke-opacity:1;paint-order:normal" cx="341.528" cy="283.793" r="24.53"/><circle style="fill:#000;fill-opacity:1;stroke:#000;stroke-width:3.36210585;stroke-linecap:square;stroke-linejoin:miter;stroke-miterlimit:4;stroke-dasharray:none;stroke-opacity:1;paint-order:normal" cx="398.558" cy="283.793" r="24.53"/><circle style="fill:gray;fill-opacity:1;stroke:#000;stroke-width:3.36210585;stroke-linecap:square;stroke-linejoin:miter;stroke-miterlimit:4;stroke-dasharray:none;stroke-opacity:1;paint-order:normal" cx="455.588" cy="283.793" r="24.53"/><circle style="fill:#fff;fill-opacity:1;stroke:gray;stroke-width:3.36210585;stroke-linecap:square;stroke-linejoin:miter;stroke-miterlimit:4;stroke-dasharray:none;stroke-opacity:1;paint-order:normal" cx="56.377" cy="340.741" r="24.53"/><circle style="fill:#fff;fill-opacity:1;stroke:#000;stroke-width:3.36210585;stroke-linecap:square;stroke-linejoin:miter;stroke-miterlimit:4;stroke-dasharray:none;stroke-opacity:1;paint-order:normal" cx="113.407" cy="340.741" r="24.53"/><circle style="fill:#fff;fill-opacity:1;stroke:#000;stroke-width:3.36210585;stroke-linecap:square;stroke-linejoin:miter;stroke-miterlimit:4;stroke-dasharray:none;stroke-opacity:1;paint-order:normal" cx="170.437" cy="340.741" r="24.53"/><circle style="fill:gray;fill-opacity:1;stroke:#fff;stroke-width:3.36210585;stroke-linecap:square;stroke-linejoin:miter;stroke-miterlimit:4;stroke-dasharray:none;stroke-opacity:1;paint-order:normal" cx="227.467" cy="340.741" r="24.53"/><circle style="fill:#fff;fill-opacity:1;stroke:gray;stroke-width:3.36210585;stroke-linecap:square;stroke-linejoin:miter;stroke-miterlimit:4;stroke-dasharray:none;stroke-opacity:1;paint-order:normal" cx="284.497" cy="340.741" r="24.53"/><circle style="fill:#000;fill-opacity:1;stroke:#000;stroke-width:3.36210585;stroke-linecap:square;stroke-linejoin:miter;stroke-miterlimit:4;stroke-dasharray:none;stroke-opacity:1;paint-order:normal" cx="341.528" cy="340.741" r="24.53"/><circle style="fill:gray;fill-opacity:1;stroke:#fff;stroke-width:3.36210585;stroke-linecap:square;stroke-linejoin:miter;stroke-miterlimit:4;stroke-dasharray:none;stroke-opacity:1;paint-order:normal" cx="398.558" cy="340.741" r="24.53"/><circle style="fill:#fff;fill-opacity:1;stroke:#000;stroke-width:3.36210585;stroke-linecap:square;stroke-linejoin:miter;stroke-miterlimit:4;stroke-dasharray:none;stroke-opacity:1;paint-order:normal" cx="455.588" cy="340.741" r="24.53"/><circle style="fill:#fff;fill-opacity:1;stroke:#000;stroke-width:3.36210585;stroke-linecap:square;stroke-linejoin:miter;stroke-miterlimit:4;stroke-dasharray:none;stroke-opacity:1;paint-order:normal" cx="56.377" cy="397.689" r="24.53"/><circle style="fill:gray;fill-opacity:1;stroke:#000;stroke-width:3.36210585;stroke-linecap:square;stroke-linejoin:miter;stroke-miterlimit:4;stroke-dasharray:none;stroke-opacity:1;paint-order:normal" cx="113.407" cy="397.689" r="24.53"/><circle style="fill:#000;fill-opacity:1;stroke:#fff;stroke-width:3.36210585;stroke-linecap:square;stroke-linejoin:miter;stroke-miterlimit:4;stroke-dasharray:none;stroke-opacity:1;paint-order:normal" cx="170.437" cy="397.689" r="24.53"/><circle style="fill:#fff;fill-opacity:1;stroke:#000;stroke-width:3.36210585;stroke-linecap:square;stroke-linejoin:miter;stroke-miterlimit:4;stroke-dasharray:none;stroke-opacity:1;paint-order:normal" cx="227.467" cy="397.689" r="24.53"/><circle style="fill:#000;fill-opacity:1;stroke:gray;stroke-width:3.36210585;stroke-linecap:square;stroke-linejoin:miter;stroke-miterlimit:4;stroke-dasharray:none;stroke-opacity:1;paint-order:normal" cx="284.497" cy="397.689" r="24.53"/><circle style="fill:#fff;fill-opacity:1;stroke:#000;stroke-width:3.36210585;stroke-linecap:square;stroke-linejoin:miter;stroke-miterlimit:4;stroke-dasharray:none;stroke-opacity:1;paint-order:normal" cx="341.528" cy="397.689" r="24.53"/><circle style="fill:#fff;fill-opacity:1;stroke:gray;stroke-width:3.36210585;stroke-linecap:square;stroke-linejoin:miter;stroke-miterlimit:4;stroke-dasharray:none;stroke-opacity:1;paint-order:normal" cx="398.558" cy="397.689" r="24.53"/><circle style="fill:#000;fill-opacity:1;stroke:#000;stroke-width:3.36210585;stroke-linecap:square;stroke-linejoin:miter;stroke-miterlimit:4;stroke-dasharray:none;stroke-opacity:1;paint-order:normal" cx="455.588" cy="397.689" r="24.53"/><circle style="fill:#000;fill-opacity:1;stroke:#fff;stroke-width:3.36210585;stroke-linecap:square;stroke-linejoin:miter;stroke-miterlimit:4;stroke-dasharray:none;stroke-opacity:1;paint-order:normal" cx="56.377" cy="454.638" r="24.53"/><circle style="fill:#fff;fill-opacity:1;stroke:#000;stroke-width:3.36210585;stroke-linecap:square;stroke-linejoin:miter;stroke-miterlimit:4;stroke-dasharray:none;stroke-opacity:1;paint-order:normal" cx="113.407" cy="454.638" r="24.53"/><circle style="fill:#000;fill-opacity:1;stroke:#000;stroke-width:3.36210585;stroke-linecap:square;stroke-linejoin:miter;stroke-miterlimit:4;stroke-dasharray:none;stroke-opacity:1;paint-order:normal" cx="170.437" cy="454.638" r="24.53"/><circle style="fill:#fff;fill-opacity:1;stroke:#000;stroke-width:3.36210585;stroke-linecap:square;stroke-linejoin:miter;stroke-miterlimit:4;stroke-dasharray:none;stroke-opacity:1;paint-order:normal" cx="227.467" cy="454.638" r="24.53"/><circle style="fill:gray;fill-opacity:1;stroke:gray;stroke-width:3.36210585;stroke-linecap:square;stroke-linejoin:miter;stroke-miterlimit:4;stroke-dasharray:none;stroke-opacity:1;paint-order:normal" cx="284.497" cy="454.638" r="24.53"/><circle style="fill:#fff;fill-opacity:1;stroke:#000;stroke-width:3.36210585;stroke-linecap:square;stroke-linejoin:miter;stroke-miterlimit:4;stroke-dasharray:none;stroke-opacity:1;paint-order:normal" cx="341.528" cy="454.638" r="24.53"/><circle style="fill:gray;fill-opacity:1;stroke:#000;stroke-width:3.36210585;stroke-linecap:square;stroke-linejoin:miter;stroke-miterlimit:4;stroke-dasharray:none;stroke-opacity:1;paint-order:normal" cx="398.558" cy="454.638" r="24.53"/><circle style="fill:#fff;fill-opacity:1;stroke:#000;stroke-width:3.36210585;stroke-linecap:square;stroke-linejoin:miter;stroke-miterlimit:4;stroke-dasharray:none;stroke-opacity:1;paint-order:normal" cx="455.588" cy="454.638" r="24.53"/><g style="font-style:normal;font-variant:normal;font-weight:400;font-stretch:normal;font-size:47.64822006px;line-height:1.25;font-family:Arial;-inkscape-font-specification:Arial;text-align:center;letter-spacing:0;word-spacing:0;writing-mode:lr-tb;text-anchor:middle;fill:#000;fill-opacity:1;stroke:none;stroke-width:.24816783"><path d="M169.675 172.231c5.813 0 8.386-3.05 8.386-9.196s-2.573-9.196-8.386-9.196h-5.146c-.953 0-1.716.762-1.716 1.715v28.685c0 .953.763 1.715 1.716 1.715h1.334c.905 0 1.668-.762 1.668-1.715V172.23zm0-13.675c2.573 0 3.621 1.287 3.621 4.48 0 3.096-1.048 4.478-3.621 4.478h-2.144v-8.958z" style="font-style:normal;font-variant:normal;font-weight:400;font-stretch:normal;font-family:'Ostrich Sans';-inkscape-font-specification:'Ostrich Sans';stroke-width:.24816783" aria-label="P"/></g><g style="font-style:normal;font-variant:normal;font-weight:400;font-stretch:normal;font-size:47.64822006px;line-height:1.25;font-family:Arial;-inkscape-font-specification:Arial;text-align:center;letter-spacing:0;word-spacing:0;writing-mode:lr-tb;text-anchor:middle;fill:#000;fill-opacity:1;stroke:none;stroke-width:.24816783"><path d="M340.765 229.18c5.813 0 8.386-3.05 8.386-9.197 0-6.146-2.573-9.196-8.386-9.196h-5.146c-.953 0-1.715.763-1.715 1.716v28.684c0 .953.762 1.715 1.715 1.715h1.334c.906 0 1.668-.762 1.668-1.715v-12.008zm0-13.676c2.573 0 3.621 1.287 3.621 4.48 0 3.096-1.048 4.478-3.62 4.478h-2.145v-8.958z" style="font-style:normal;font-variant:normal;font-weight:400;font-stretch:normal;font-family:'Ostrich Sans';-inkscape-font-specification:'Ostrich Sans';stroke-width:.24816783" aria-label="P"/></g><g style="font-style:normal;font-variant:normal;font-weight:400;font-stretch:normal;font-size:47.64822006px;line-height:1.25;font-family:Arial;-inkscape-font-specification:Arial;text-align:center;letter-spacing:0;word-spacing:0;writing-mode:lr-tb;text-anchor:middle;fill:#000;fill-opacity:1;stroke:none;stroke-width:.24816783"><path d="M226.705 343.076c5.813 0 8.386-3.05 8.386-9.196 0-6.147-2.573-9.196-8.386-9.196h-5.146c-.953 0-1.715.762-1.715 1.715v28.684c0 .953.762 1.716 1.715 1.716h1.334c.905 0 1.668-.763 1.668-1.716v-12.007zm0-13.675c2.573 0 3.621 1.286 3.621 4.479 0 3.097-1.048 4.479-3.621 4.479h-2.144V329.4z" style="font-style:normal;font-variant:normal;font-weight:400;font-stretch:normal;font-family:'Ostrich Sans';-inkscape-font-specification:'Ostrich Sans';stroke-width:.24816783" aria-label="P"/></g><g style="font-style:normal;font-variant:normal;font-weight:400;font-stretch:normal;font-size:47.64822006px;line-height:1.25;font-family:Arial;-inkscape-font-specification:Arial;text-align:center;letter-spacing:0;word-spacing:0;writing-mode:lr-tb;text-anchor:middle;fill:#000;fill-opacity:1;stroke:none;stroke-width:.24816783"><path d="M397.795 456.972c5.813 0 8.386-3.05 8.386-9.196s-2.573-9.196-8.386-9.196h-5.146c-.953 0-1.715.762-1.715 1.715v28.685c0 .953.762 1.715 1.715 1.715h1.334c.906 0 1.668-.762 1.668-1.715v-12.008zm0-13.675c2.573 0 3.622 1.287 3.622 4.48 0 3.096-1.049 4.478-3.622 4.478h-2.144v-8.958z" style="font-style:normal;font-variant:normal;font-weight:400;font-stretch:normal;font-family:'Ostrich Sans';-inkscape-font-specification:'Ostrich Sans';stroke-width:.24816783" aria-label="P"/></g><g style="font-style:normal;font-variant:normal;font-weight:400;font-stretch:normal;font-size:47.64822006px;line-height:1.25;font-family:Arial;-inkscape-font-specification:Arial;text-align:center;letter-spacing:0;word-spacing:0;writing-mode:lr-tb;text-anchor:middle;fill:#000;fill-opacity:1;stroke:none;stroke-width:.24816783"><path d="M55.614 343.076c5.813 0 8.387-3.05 8.387-9.196 0-6.147-2.574-9.196-8.387-9.196h-5.146c-.953 0-1.715.762-1.715 1.715v28.684c0 .953.762 1.716 1.715 1.716h1.335c.905 0 1.667-.763 1.667-1.716v-12.007zm0-13.675c2.573 0 3.622 1.286 3.622 4.479 0 3.097-1.049 4.479-3.622 4.479H53.47V329.4z" style="font-style:normal;font-variant:normal;font-weight:400;font-stretch:normal;font-family:'Ostrich Sans';-inkscape-font-specification:'Ostrich Sans';stroke-width:.24816783" aria-label="P"/></g><g style="font-style:normal;font-variant:normal;font-weight:400;font-stretch:normal;font-size:47.64822006px;line-height:1.25;font-family:Arial;-inkscape-font-specification:Arial;text-align:center;letter-spacing:0;word-spacing:0;writing-mode:lr-tb;text-anchor:middle;fill:#000;fill-opacity:1;stroke:none;stroke-width:.24816783"><path d="M340.765 115.283c5.813 0 8.386-3.05 8.386-9.196 0-6.147-2.573-9.196-8.386-9.196h-5.146c-.953 0-1.715.762-1.715 1.715v28.684c0 .953.762 1.716 1.715 1.716h1.334c.906 0 1.668-.763 1.668-1.716v-12.007zm0-13.675c2.573 0 3.621 1.286 3.621 4.479 0 3.097-1.048 4.479-3.62 4.479h-2.145v-8.958z" style="font-style:normal;font-variant:normal;font-weight:400;font-stretch:normal;font-family:'Ostrich Sans';-inkscape-font-specification:'Ostrich Sans';stroke-width:.24816783" aria-label="P"/></g><g style="font-style:normal;font-variant:normal;font-weight:400;font-stretch:normal;font-size:47.64822006px;line-height:1.25;font-family:Arial;-inkscape-font-specification:Arial;text-align:center;letter-spacing:0;word-spacing:0;writing-mode:lr-tb;text-anchor:middle;fill:#000;fill-opacity:1;stroke:none;stroke-width:.24816783"><path d="M226.705 58.335c5.813 0 8.386-3.05 8.386-9.196 0-6.147-2.573-9.196-8.386-9.196h-5.146c-.953 0-1.715.762-1.715 1.715v28.684c0 .953.762 1.715 1.715 1.715h1.334c.905 0 1.668-.762 1.668-1.715V58.335Zm0-13.675c2.573 0 3.621 1.286 3.621 4.479 0 3.097-1.048 4.479-3.621 4.479h-2.144V44.66z" style="font-style:normal;font-variant:normal;font-weight:400;font-stretch:normal;font-family:'Ostrich Sans';-inkscape-font-specification:'Ostrich Sans';stroke-width:.24816783" aria-label="P"/></g><g style="font-style:normal;font-variant:normal;font-weight:400;font-stretch:normal;font-size:47.64822006px;line-height:1.25;font-family:Arial;-inkscape-font-specification:Arial;text-align:center;letter-spacing:0;word-spacing:0;writing-mode:lr-tb;text-anchor:middle;fill:#000;fill-opacity:1;stroke:none;stroke-width:.24816783"><path d="M112.645 456.972c5.813 0 8.386-3.05 8.386-9.196s-2.573-9.196-8.386-9.196h-5.146c-.953 0-1.716.762-1.716 1.715v28.685c0 .953.763 1.715 1.716 1.715h1.334c.905 0 1.667-.762 1.667-1.715v-12.008zm0-13.675c2.573 0 3.62 1.287 3.62 4.48 0 3.096-1.047 4.478-3.62 4.478H110.5v-8.958z" style="font-style:normal;font-variant:normal;font-weight:400;font-stretch:normal;font-family:'Ostrich Sans';-inkscape-font-specification:'Ostrich Sans';stroke-width:.24816783" aria-label="P"/></g><g style="font-style:normal;font-variant:normal;font-weight:400;font-stretch:normal;font-size:47.64822006px;line-height:1.25;font-family:Arial;-inkscape-font-specification:Arial;text-align:center;letter-spacing:0;word-spacing:0;writing-mode:lr-tb;text-anchor:middle;fill:#000;fill-opacity:1;stroke:none;stroke-width:.24816783"><path d="M170.961 299.85c.715 0 1.477-.62 1.668-1.381l1.572-10.578v10.244c0 .953.763 1.715 1.716 1.715h1.334c.953 0 1.715-.762 1.715-1.715v-28.684c0-.953-.762-1.716-1.715-1.716h-1.43c-.714 0-1.524.62-1.667 1.335l-3.717 19.202-3.764-19.202c-.143-.715-.905-1.335-1.62-1.335h-1.43c-.953 0-1.715.763-1.715 1.716v28.684c0 .953.762 1.715 1.715 1.715h1.335c.905 0 1.715-.762 1.715-1.715v-10.34l1.62 10.721c.143.715.905 1.334 1.62 1.334z" style="font-style:normal;font-variant:normal;font-weight:400;font-stretch:normal;font-family:'Ostrich Sans';-inkscape-font-specification:'Ostrich Sans';stroke-width:.24816783" aria-label="M"/></g></svg>