<svg xmlns="http://www.w3.org/2000/svg" fill="none" viewBox="0 0 512 512"><path fill="#4d4d4d" stroke="#000" stroke-width="4" d="M18 18h476v476H18z"/><circle cx="56.38" cy="56" r="24.53" fill="#000" stroke="gray" stroke-linecap="square" stroke-width="3.36"/><circle cx="113.41" cy="56" r="24.53" fill="#fff" stroke="#000" stroke-linecap="square" stroke-width="3.36"/><circle cx="170.44" cy="56" r="24.53" fill="#000" stroke="#000" stroke-linecap="square" stroke-width="3.36"/><circle cx="227.47" cy="56" r="24.53" fill="#fff" stroke="#000" stroke-linecap="square" stroke-width="3.36"/><circle cx="284.5" cy="56" r="24.53" fill="#fff" stroke="#fff" stroke-linecap="square" stroke-width="3.36"/><circle cx="341.53" cy="56" r="24.53" fill="gray" stroke="#000" stroke-linecap="square" stroke-width="3.36"/><circle cx="398.56" cy="56" r="24.53" fill="#000" stroke="#fff" stroke-linecap="square" stroke-width="3.36"/><circle cx="455.59" cy="56" r="24.53" fill="#fff" stroke="#000" stroke-linecap="square" stroke-width="3.36"/><circle cx="56.38" cy="112.95" r="24.53" fill="#000" stroke="#000" stroke-linecap="square" stroke-width="3.36"/><circle cx="113.41" cy="112.95" r="24.53" fill="#000" stroke="#fff" stroke-linecap="square" stroke-width="3.36"/><circle cx="170.44" cy="112.95" r="24.53" fill="#fff" stroke="#000" stroke-linecap="square" stroke-width="3.36"/><circle cx="227.47" cy="112.95" r="24.53" fill="gray" stroke="gray" stroke-linecap="square" stroke-width="3.36"/><circle cx="284.5" cy="112.95" r="24.53" fill="gray" stroke="#000" stroke-linecap="square" stroke-width="3.36"/><circle cx="341.53" cy="112.95" r="24.53" fill="#fff" stroke="#000" stroke-linecap="square" stroke-width="3.36"/><circle cx="398.56" cy="112.95" r="24.53" fill="#fff" stroke="#000" stroke-linecap="square" stroke-width="3.36"/><circle cx="455.59" cy="112.95" r="24.53" fill="#1a1a1a" stroke="#000" stroke-linecap="square" stroke-width="3.36"/><circle cx="56.38" cy="169.9" r="24.53" fill="#fff" stroke="#fff" stroke-linecap="square" stroke-width="3.36"/><circle cx="113.41" cy="169.9" r="24.53" fill="#fff" stroke="#000" stroke-linecap="square" stroke-width="3.36"/><circle cx="170.44" cy="169.9" r="24.53" fill="gray" stroke="#000" stroke-linecap="square" stroke-width="3.36"/><circle cx="227.47" cy="169.9" r="24.53" fill="#fff" stroke="#fff" stroke-linecap="square" stroke-width="3.36"/><circle cx="284.5" cy="169.9" r="24.53" fill="#000" stroke="#000" stroke-linecap="square" stroke-width="3.36"/><circle cx="341.53" cy="169.9" r="24.53" fill="#fff" stroke="gray" stroke-linecap="square" stroke-width="3.36"/><circle cx="398.56" cy="169.9" r="24.53" fill="gray" stroke="#fff" stroke-linecap="square" stroke-width="3.36"/><circle cx="455.59" cy="169.9" r="24.53" fill="gray" stroke="#000" stroke-linecap="square" stroke-width="3.36"/><circle cx="56.38" cy="226.84" r="24.53" fill="#fff" stroke="#000" stroke-linecap="square" stroke-width="3.36"/><circle cx="113.41" cy="226.84" r="24.53" fill="#000" stroke="#000" stroke-linecap="square" stroke-width="3.36"/><circle cx="170.44" cy="226.84" r="24.53" fill="#000" stroke="#000" stroke-linecap="square" stroke-width="3.36"/><circle cx="227.47" cy="226.84" r="24.53" fill="#fff" stroke="#000" stroke-linecap="square" stroke-width="3.36"/><circle cx="284.5" cy="226.84" r="24.53" fill="#fff" stroke="#000" stroke-linecap="square" stroke-width="3.36"/><circle cx="341.53" cy="226.84" r="24.53" fill="gray" stroke="#000" stroke-linecap="square" stroke-width="3.36"/><circle cx="398.56" cy="226.84" r="24.53" fill="#000" stroke="#fff" stroke-linecap="square" stroke-width="3.36"/><circle cx="455.59" cy="226.84" r="24.53" fill="#fff" stroke="#000" stroke-linecap="square" stroke-width="3.36"/><circle cx="56.38" cy="283.79" r="24.53" fill="gray" stroke="#000" stroke-linecap="square" stroke-width="3.36"/><circle cx="113.41" cy="283.79" r="24.53" fill="#000" stroke="gray" stroke-linecap="square" stroke-width="3.36"/><circle cx="170.44" cy="283.79" r="24.53" fill="#fff" stroke="gray" stroke-linecap="square" stroke-width="3.36"/><circle cx="227.47" cy="283.79" r="24.53" fill="gray" stroke="#000" stroke-linecap="square" stroke-width="3.36"/><circle cx="284.5" cy="283.79" r="24.53" fill="#000" stroke="#000" stroke-linecap="square" stroke-width="3.36"/><circle cx="341.53" cy="283.79" r="24.53" fill="#fff" stroke="#000" stroke-linecap="square" stroke-width="3.36"/><circle cx="398.56" cy="283.79" r="24.53" fill="#000" stroke="#000" stroke-linecap="square" stroke-width="3.36"/><circle cx="455.59" cy="283.79" r="24.53" fill="gray" stroke="#000" stroke-linecap="square" stroke-width="3.36"/><circle cx="56.38" cy="340.74" r="24.53" fill="#fff" stroke="gray" stroke-linecap="square" stroke-width="3.36"/><circle cx="113.41" cy="340.74" r="24.53" fill="#fff" stroke="#000" stroke-linecap="square" stroke-width="3.36"/><circle cx="170.44" cy="340.74" r="24.53" fill="#fff" stroke="#000" stroke-linecap="square" stroke-width="3.36"/><circle cx="227.47" cy="340.74" r="24.53" fill="gray" stroke="#fff" stroke-linecap="square" stroke-width="3.36"/><circle cx="284.5" cy="340.74" r="24.53" fill="#fff" stroke="gray" stroke-linecap="square" stroke-width="3.36"/><circle cx="341.53" cy="340.74" r="24.53" fill="#000" stroke="#000" stroke-linecap="square" stroke-width="3.36"/><circle cx="398.56" cy="340.74" r="24.53" fill="gray" stroke="#fff" stroke-linecap="square" stroke-width="3.36"/><circle cx="455.59" cy="340.74" r="24.53" fill="#fff" stroke="#000" stroke-linecap="square" stroke-width="3.36"/><circle cx="56.38" cy="397.69" r="24.53" fill="#fff" stroke="#000" stroke-linecap="square" stroke-width="3.36"/><circle cx="113.41" cy="397.69" r="24.53" fill="gray" stroke="#000" stroke-linecap="square" stroke-width="3.36"/><circle cx="170.44" cy="397.69" r="24.53" fill="#000" stroke="#fff" stroke-linecap="square" stroke-width="3.36"/><circle cx="227.47" cy="397.69" r="24.53" fill="#fff" stroke="#000" stroke-linecap="square" stroke-width="3.36"/><circle cx="284.5" cy="397.69" r="24.53" fill="#000" stroke="gray" stroke-linecap="square" stroke-width="3.36"/><circle cx="341.53" cy="397.69" r="24.53" fill="#fff" stroke="#000" stroke-linecap="square" stroke-width="3.36"/><circle cx="398.56" cy="397.69" r="24.53" fill="#fff" stroke="gray" stroke-linecap="square" stroke-width="3.36"/><circle cx="455.59" cy="397.69" r="24.53" fill="#000" stroke="#000" stroke-linecap="square" stroke-width="3.36"/><circle cx="56.38" cy="454.64" r="24.53" fill="#000" stroke="#fff" stroke-linecap="square" stroke-width="3.36"/><circle cx="113.41" cy="454.64" r="24.53" fill="#fff" stroke="#000" stroke-linecap="square" stroke-width="3.36"/><circle cx="170.44" cy="454.64" r="24.53" fill="#000" stroke="#000" stroke-linecap="square" stroke-width="3.36"/><circle cx="227.47" cy="454.64" r="24.53" fill="#fff" stroke="#000" stroke-linecap="square" stroke-width="3.36"/><circle cx="284.5" cy="454.64" r="24.53" fill="gray" stroke="gray" stroke-linecap="square" stroke-width="3.36"/><circle cx="341.53" cy="454.64" r="24.53" fill="#fff" stroke="#000" stroke-linecap="square" stroke-width="3.36"/><circle cx="398.56" cy="454.64" r="24.53" fill="gray" stroke="#000" stroke-linecap="square" stroke-width="3.36"/><circle cx="455.59" cy="454.64" r="24.53" fill="#fff" stroke="#000" stroke-linecap="square" stroke-width="3.36"/><path fill="#000" d="M169.68 172.23c5.8 0 8.38-3.05 8.38-9.2s-2.57-9.2-8.38-9.2h-5.15a1.7 1.7 0 0 0-1.72 1.72v28.69c0 .95.77 1.71 1.72 1.71h1.33c.9 0 1.67-.76 1.67-1.71v-12.01zm0-13.67c2.57 0 3.62 1.28 3.62 4.48 0 3.1-1.05 4.47-3.62 4.47h-2.15v-8.95zm171.08 70.62c5.82 0 8.4-3.05 8.4-9.2 0-6.14-2.58-9.2-8.4-9.2h-5.14a1.7 1.7 0 0 0-1.72 1.72v28.69c0 .95.77 1.71 1.72 1.71h1.33c.9 0 1.67-.76 1.67-1.71v-12.01zm0-13.68c2.58 0 3.63 1.3 3.63 4.48 0 3.1-1.05 4.48-3.62 4.48h-2.15v-8.96zM226.7 343.08c5.82 0 8.4-3.05 8.4-9.2 0-6.15-2.58-9.2-8.4-9.2h-5.14a1.7 1.7 0 0 0-1.72 1.72v28.68c0 .96.77 1.72 1.72 1.72h1.33c.9 0 1.67-.76 1.67-1.72v-12zm0-13.68c2.58 0 3.63 1.29 3.63 4.48 0 3.1-1.05 4.48-3.62 4.48h-2.15v-8.96zm171.1 127.57c5.8 0 8.38-3.05 8.38-9.2s-2.57-9.19-8.38-9.19h-5.15a1.7 1.7 0 0 0-1.72 1.71v28.69c0 .95.77 1.71 1.72 1.71h1.33c.9 0 1.67-.76 1.67-1.71v-12zm0-13.67c2.57 0 3.62 1.28 3.62 4.48 0 3.1-1.05 4.48-3.62 4.48h-2.15v-8.96zM55.61 343.08c5.82 0 8.4-3.05 8.4-9.2 0-6.15-2.58-9.2-8.4-9.2h-5.14a1.7 1.7 0 0 0-1.72 1.72v28.68c0 .96.77 1.72 1.72 1.72h1.33c.9 0 1.67-.76 1.67-1.72v-12zm0-13.68c2.58 0 3.63 1.29 3.63 4.48 0 3.1-1.05 4.48-3.63 4.48h-2.14v-8.96zm285.15-214.12c5.82 0 8.4-3.05 8.4-9.2 0-6.14-2.58-9.19-8.4-9.19h-5.14a1.7 1.7 0 0 0-1.72 1.72v28.68c0 .95.77 1.72 1.72 1.72h1.33c.9 0 1.67-.77 1.67-1.72v-12zm0-13.67c2.58 0 3.63 1.28 3.63 4.48 0 3.1-1.05 4.48-3.62 4.48h-2.15v-8.96zM226.7 58.34c5.82 0 8.4-3.06 8.4-9.2 0-6.15-2.58-9.2-8.4-9.2h-5.14a1.7 1.7 0 0 0-1.72 1.72v28.68c0 .96.77 1.72 1.72 1.72h1.33c.9 0 1.67-.76 1.67-1.72v-12Zm0-13.68c2.58 0 3.63 1.29 3.63 4.48 0 3.1-1.05 4.48-3.62 4.48h-2.15v-8.96zM112.64 456.97c5.82 0 8.4-3.05 8.4-9.2s-2.58-9.19-8.4-9.19h-5.14a1.7 1.7 0 0 0-1.72 1.71v28.69c0 .95.77 1.71 1.72 1.71h1.33c.9 0 1.67-.76 1.67-1.71v-12zm0-13.67c2.58 0 3.62 1.28 3.62 4.48 0 3.1-1.04 4.48-3.62 4.48h-2.14v-8.96z" aria-label="P"/><path fill="#000" d="M170.96 299.85c.72 0 1.48-.62 1.67-1.38l1.57-10.58v10.25c0 .95.76 1.71 1.72 1.71h1.33a1.7 1.7 0 0 0 1.72-1.71v-28.69a1.7 1.7 0 0 0-1.72-1.71h-1.43c-.71 0-1.52.62-1.67 1.33l-3.71 19.2-3.77-19.2a1.78 1.78 0 0 0-1.62-1.33h-1.43a1.7 1.7 0 0 0-1.71 1.71v28.69c0 .95.76 1.71 1.71 1.71h1.34c.9 0 1.71-.76 1.71-1.71V287.8l1.62 10.72c.15.71.9 1.33 1.62 1.33z" aria-label="M"/></svg>