<svg xmlns="http://www.w3.org/2000/svg" fill="none" stroke-linecap="square" stroke-miterlimit="10" viewBox="0 0 348 348"><clipPath id="a"><path d="M0 0h348v348H0V0z"/></clipPath><g clip-path="url(#a)"><path d="M0 0h348v348H0z"/><path fill="#fff" d="M-6 0h348v348H-6z"/><path d="M5 5.8h337v337.6H5z"/><path stroke="#000" stroke-linecap="butt" stroke-linejoin="round" stroke-width="2" d="M5 5.8h337v337.6H5z"/><path fill="#fff" d="M282.7 40.6c0-8.4 7-15.2 15.6-15.2 4.1 0 8 1.6 11 4.4a15 15 0 0 1 4.6 10.8c0 8.3-7 15.1-15.6 15.1s-15.6-6.8-15.6-15.1z"/><path stroke="#000" stroke-linecap="butt" stroke-linejoin="round" stroke-width="2" d="M282.7 40.6c0-8.4 7-15.2 15.6-15.2 4.1 0 8 1.6 11 4.4a15 15 0 0 1 4.6 10.8c0 8.3-7 15.1-15.6 15.1s-15.6-6.8-15.6-15.1z"/></g><rect width="188" height="24" x="42" y="32.1" fill="#fff" stroke="#000" ry="0"/><rect width="36.1" height="54.2" x="291.8" y="221.2" fill="#fff" stroke="#000" ry="0"/><rect width="36.1" height="54.2" x="291.8" y="121" fill="#fff" stroke="#000" ry="0"/><path fill="#000" d="M303.1 251.6v-6.7l13.4-16.5v7.2L306 248.3l10.6 12.7v7.2zM316.6 145v6.8L303 168v-7l10.8-12.6-10.4-12.9v-7.1z"/><rect width="193.2" height="38.7" x="40.1" y="97.2" fill="#fff" stroke="#000" ry="0"/><rect width="26.1" height="26.3" x="40.6" y="143" fill="#fff" stroke="#000" stroke-width="1.2" ry="0"/><rect width="26.1" height="26.3" x="68.4" y="143" fill="#fff" stroke="#000" stroke-width="1.2" ry="0"/><rect width="26.1" height="26.3" x="96.2" y="143" fill="#fff" stroke="#000" stroke-width="1.2" ry="0"/><rect width="26.1" height="26.3" x="124" y="143" fill="#fff" stroke="#000" stroke-width="1.2" ry="0"/><rect width="26.1" height="26.3" x="151.8" y="143" fill="#fff" stroke="#000" stroke-width="1.2" ry="0"/><rect width="26.1" height="26.3" x="179.6" y="143" fill="#fff" stroke="#000" stroke-width="1.2" ry="0"/><rect width="26.1" height="26.3" x="207.4" y="143" fill="#fff" stroke="#000" stroke-width="1.2" ry="0"/><rect width="26.1" height="26.3" x="40.6" y="171" fill="#fff" stroke="#000" stroke-width="1.2" ry="0"/><rect width="26.1" height="26.3" x="68.4" y="171" fill="#fff" stroke="#000" stroke-width="1.2" ry="0"/><rect width="26.1" height="26.3" x="96.2" y="171" fill="#fff" stroke="#000" stroke-width="1.2" ry="0"/><rect width="26.1" height="26.3" x="124" y="171" fill="#fff" stroke="#000" stroke-width="1.2" ry="0"/><rect width="26.1" height="26.3" x="151.8" y="171" fill="#fff" stroke="#000" stroke-width="1.2" ry="0"/><rect width="26.1" height="26.3" x="179.6" y="171" fill="#fff" stroke="#000" stroke-width="1.2" ry="0"/><rect width="26.1" height="26.3" x="207.4" y="171" fill="#fff" stroke="#000" stroke-width="1.2" ry="0"/><rect width="26.1" height="26.3" x="40.6" y="199" fill="#fff" stroke="#000" stroke-width="1.2" ry="0"/><rect width="26.1" height="26.3" x="68.4" y="199" fill="#fff" stroke="#000" stroke-width="1.2" ry="0"/><rect width="26.1" height="26.3" x="96.2" y="199" fill="#fff" stroke="#000" stroke-width="1.2" ry="0"/><rect width="26.1" height="26.3" x="124" y="199" fill="#fff" stroke="#000" stroke-width="1.2" ry="0"/><rect width="26.1" height="26.3" x="151.8" y="199" fill="#fff" stroke="#000" stroke-width="1.2" ry="0"/><rect width="26.1" height="26.3" x="179.6" y="199" fill="#fff" stroke="#000" stroke-width="1.2" ry="0"/><rect width="26.1" height="26.3" x="207.4" y="199" fill="#fff" stroke="#000" stroke-width="1.2" ry="0"/><rect width="26.1" height="26.3" x="40.6" y="227" fill="#fff" stroke="#000" stroke-width="1.2" ry="0"/><rect width="26.1" height="26.3" x="68.4" y="227" fill="#fff" stroke="#000" stroke-width="1.2" ry="0"/><rect width="26.1" height="26.3" x="96.2" y="227" fill="#fff" stroke="#000" stroke-width="1.2" ry="0"/><rect width="26.1" height="26.3" x="124" y="227" fill="#fff" stroke="#000" stroke-width="1.2" ry="0"/><rect width="26.1" height="26.3" x="151.8" y="227" fill="#fff" stroke="#000" stroke-width="1.2" ry="0"/><rect width="26.1" height="26.3" x="179.6" y="227" fill="#fff" stroke="#000" stroke-width="1.2" ry="0"/><rect width="26.1" height="26.3" x="207.4" y="227" fill="#fff" stroke="#000" stroke-width="1.2" ry="0"/><rect width="26.1" height="26.3" x="40.6" y="255" fill="#fff" stroke="#000" stroke-width="1.2" ry="0"/><rect width="26.1" height="26.3" x="68.4" y="255" fill="#fff" stroke="#000" stroke-width="1.2" ry="0"/><rect width="26.1" height="26.3" x="96.2" y="255" fill="#fff" stroke="#000" stroke-width="1.2" ry="0"/></svg>