<svg viewBox="0 0 348 348" fill="none" xml:space="preserve" xmlns="http://www.w3.org/2000/svg"><path d="M5.08 5.78h336.91v337.67H5.08z" stroke-width="2" stroke="#000"/><path d="M282.73 40.55c0-8.37 6.97-15.16 15.56-15.16 4.13 0 8.09 1.6 11 4.44a14.97 14.97 0 0 1 4.56 10.72c0 8.38-6.96 15.17-15.56 15.17-8.59 0-15.56-6.8-15.56-15.17zM61 61h225.55v226.06H61Z" stroke-width="2" stroke="#000"/><path style="fill:#000;fill-rule:nonzero;stroke:none;stroke-width:1.04001px;stroke-linecap:butt;stroke-linejoin:miter;stroke-opacity:1" d="m9.78 173.55 46.14-76.1v145.57L9.76 172.44Zm-1.76.03 48.07 73.5 1.9 2.92V90l-1.92 3.18L8 172.47Z"/><path style="fill:#000;fill-rule:nonzero;stroke:none;stroke-width:1.03952px;stroke-linecap:butt;stroke-linejoin:miter;stroke-opacity:1" d="m339.94 172.49-48.01-79.3L290 90v160.04l1.91-2.93 48.01-73.52zm-1.76-.03-46.1 70.6V97.44l46.08 76.11z"/><path style="fill:#000;fill-rule:nonzero;stroke:none;stroke-width:1.04002px;stroke-linecap:butt;stroke-linejoin:miter;stroke-opacity:1" d="m166.46 9.78 76.1 46.14H96.98l70.58-46.16Zm-.03-1.76-73.5 48.07L90 58h160l-3.18-1.93L167.53 8Z"/><path style="fill:#000;fill-rule:nonzero;stroke:none;stroke-width:1.03882px;stroke-linecap:butt;stroke-linejoin:miter;stroke-opacity:1" d="m173.48 338.15-76.04-46.07H242.9l-70.53 46.09zm.03 1.76 73.45-48 2.92-1.91H90l3.18 1.93 79.22 48z"/><circle style="fill:#000;fill-opacity:0;stroke:#000;stroke-width:2.09179;stroke-dasharray:none;stroke-opacity:1" cx="37.5" cy="322.5" r="16.45" fill="none"/><circle style="fill:#000;fill-opacity:0;stroke:#000;stroke-width:2.09179;stroke-dasharray:none;stroke-opacity:1" cx="307.5" cy="322.5" r="16.45" fill="none"/><path d="M11.08 300.03v-8.52h1.08l4.17 6.59-.14.15v-6.74h1.18v8.52h-1.1l-4.15-6.49.14-.15v6.64zm11.27.1q-1.42 0-2.2-.84-.78-.83-.78-2.34v-5.44h1.2V297q0 .93.46 1.44.47.51 1.32.51.87 0 1.33-.5.48-.52.48-1.45v-5.48h1.2v5.44q0 1.51-.8 2.34-.78.83-2.2.83zm8.5-3 2.5-5.62h1.12v8.52h-1.16v-6.38l.05.38-2.1 4.82h-.83l-2.1-4.7.06-.5v6.38h-1.16v-8.52h1.12zm6.43 2.9v-1.1h2.31q.95 0 1.34-.37.4-.36.4-.95v-.02q0-.63-.34-1-.33-.39-1.1-.39h-2.6v-1.08h2.6q.66 0 1-.3.33-.32.33-.93 0-.64-.37-.95-.38-.32-1.13-.32h-2.44v-1.1h2.66q1.26 0 1.87.62.62.63.62 1.68 0 .64-.38 1.17-.37.53-1.17.68.79.11 1.22.7.44.58.44 1.33v.01q0 1.05-.67 1.68-.68.64-1.83.64zm-.7 0v-8.52h1.19v8.52zm7.75 0v-8.52h1.2v8.52zm.58 0v-1.13h4.89v1.13zm0-3.66v-1.14h4.24v1.14zm0-3.72v-1.14h4.89v1.14zm7.11 3.78v-1.14h2.9q.53 0 .84-.36.32-.36.32-.96t-.32-.96q-.31-.37-.83-.37h-2.91v-1.13h2.86q.74 0 1.3.3.56.31.86.86.31.55.31 1.3 0 .74-.3 1.3-.32.54-.88.85-.55.3-1.3.3zm-.52 3.6v-8.52h1.2v8.52zm4.8 0-1.96-3.86 1.19-.27 2.18 4.13zm5.35.1q-.62 0-1.18-.13-.54-.11-1.02-.35-.48-.23-.9-.58l.75-.92q.49.42 1.08.63.58.22 1.27.22.92 0 1.43-.35.51-.35.51-.97 0-.49-.26-.75-.25-.25-.68-.38-.41-.13-.9-.2l-.98-.2q-.49-.11-.9-.35-.4-.24-.66-.68-.25-.45-.25-1.2 0-1.19.8-1.84.79-.65 2.23-.65.68 0 1.34.22.65.21 1.28.67l-.68.95q-.49-.37-.98-.54-.48-.18-.96-.18-.88 0-1.36.35-.48.35-.48.99 0 .48.28.73.28.26.73.38.46.12.98.22.47.1.94.23t.85.38q.38.25.61.68.24.43.24 1.13v.01q0 1.18-.82 1.83-.82.64-2.31.64z" style="-inkscape-font-specification:Bahnschrift;fill:#000" aria-label="NUMBERS"/><path d="M290.38 296.94v-1.13h2.9q.53 0 .84-.37.32-.36.32-.96t-.32-.96q-.31-.36-.84-.36h-2.9v-1.14h2.86q.74 0 1.3.31.55.3.86.86.3.55.3 1.3 0 .73-.3 1.29-.31.55-.87.86-.55.3-1.3.3zm-.52 3.6v-8.52h1.2v8.53zm4.79 0-1.95-3.86 1.19-.27 2.18 4.14zm3.03 0v-8.51h1.2v8.52zm.58 0v-1.13h4.9v1.14zm0-3.66v-1.13h4.25v1.13zm0-3.72v-1.13h4.9v1.13zm9.15 7.47q-.62 0-1.17-.11-.55-.12-1.03-.36-.47-.23-.89-.58l.75-.92q.48.43 1.07.64.58.2 1.27.2.93 0 1.44-.34.5-.34.5-.96v-.01q0-.49-.25-.74-.26-.26-.68-.38-.42-.13-.92-.22-.48-.08-.97-.19-.48-.11-.9-.34-.4-.25-.66-.7-.24-.44-.24-1.18 0-1.2.79-1.85.79-.65 2.23-.65.69 0 1.34.22.66.22 1.28.67l-.68.95q-.49-.37-.97-.54-.48-.18-.97-.18-.87 0-1.36.35-.48.35-.48.99 0 .49.28.74t.73.37q.46.12.98.22.47.1.94.23t.85.38q.39.25.62.68.23.44.23 1.13v.02q0 1.17-.82 1.82-.82.64-2.3.64zm4.71-.08v-8.52h1.2v8.52zm.58 0v-1.14h4.9v1.14zm0-3.67v-1.13h4.25v1.13zm0-3.72v-1.13h4.9v1.13zm8.06 7.39v-7.83h1.2v7.83zm-2.4-7.39v-1.13h6v1.13z" style="-inkscape-font-specification:Bahnschrift;fill:#000" aria-label="RESET"/><path style="fill:none;stroke:#000;stroke-width:1;stroke-dasharray:none" d="M63.232 277.144s53.814-19.283 60.541-163.685c0 0 18.387-26.01 33.858-26.235 0 0 46.191-7.848 54.263 27.58 23.544 140.142 21.975 125.343 21.975 125.343s3.811 12.332 14.799 23.544l28.028 23.32-216.155.896v-10.314z"/><path style="fill:none;stroke:#000;stroke-width:1;stroke-dasharray:none" d="M122.652 118.84s-15.247 7.4-13.454 75.34l3.364 5.382M123.997 113.01s11.66-70.855 53.142-25.562M192.835 91.709S184.763 67.044 178.036 87"/><path style="fill:none;stroke:#000;stroke-width:1;stroke-dasharray:none" d="m109.332 162.472-11.211 5.83s-.673 22.422 11.66 26.682M102.742 224.827s6.342 46.297 70.08 48.834c63.738 2.537 59.933-36.784 59.933-36.784M219.518 160.77s21.414-.56 6.278 32.514M73.885 269.856s13.953 17.6 19.027 17.6M130.647 286.663s-35.199-15.697-43.919-31.71M250.196 265.417s-24.893 21.721-29.333 21.563M265.892 278.1s-5.866 7.611-7.61 8.245M125.256 152.369c.476-13.794 40.59-28.54 40.59-28.54l-3.647-3.963c-31.235-3.013-39.321 31.393-39.321 31.393zM186.616 120.183l2.22-11.733s6.342-2.537 9.989-2.061c0 0 13.794 11.098 13.794 14.428l1.902 9.513s-11.733-14.745-16.965-13.001zM136.038 155.064s11.416-12.05 21.246-5.232c0 0-1.903 16.648-21.246 5.232zM207.07 150.308c-8.245-7.61-18.551-1.586-18.551-1.586s8.562 18.71 18.55 1.586zM165.255 126.912s11.772 25.786 8.857 51.685M187.117 120.41s-9.417 31.952-4.933 58.971"/><path style="fill:none;stroke:#000;stroke-width:1;stroke-dasharray:none" d="M188.014 178.26s-10.09 6.167-27.243-.56"/><path style="fill:none;stroke:#000;stroke-width:1;stroke-dasharray:none" d="M164.919 162.9s-3.14 6.84-3.7 14.912M184.763 164.582s1.794 4.037 2.803 13.23M165.816 164.246s8.969 5.942 8.184 13.678M184.65 164.807s-4.26 2.69-2.466 11.66M145.411 180.951s28.925 25.786 58.748 7.063"/><path style="fill:none;stroke:#000;stroke-width:1;stroke-dasharray:none" d="M136.666 189.247s.673-8.52 10.427-8.744M200.795 184.09s5.382 2.355 7.175 6.84"/><circle style="fill:none;stroke:#000;stroke-width:1;stroke-dasharray:none" cx="148.438" cy="153.259" r="4.821"/><circle style="fill:none;stroke:#000;stroke-width:1;stroke-dasharray:none" cx="194.965" cy="150.905" r="4.821"/><circle style="fill:#000;stroke:#000;stroke-width:1;stroke-dasharray:none;fill-opacity:1" cx="148.774" cy="153.147" r="1.457"/><circle style="fill:#000;fill-opacity:1;stroke:#000;stroke-width:1;stroke-dasharray:none" cx="194.965" cy="151.577" r="1.457"/><path style="fill:none;fill-opacity:1;stroke:#000;stroke-width:1;stroke-dasharray:none" d="M135.245 149.673s8.72-12.208 19.978-8.086M125.534 154.39l-3.924 2.26M122.125 160.415l6.46-3.25M130.836 159.089s17.042 10.595 26.74-1.345M188.35 157.295s9.306 9.081 14.127 8.409"/><path style="fill:none;fill-opacity:1;stroke:#000;stroke-width:1;stroke-dasharray:none" d="M212.903 155.613s-2.242 10.09-10.763 10.203M187.454 155.95s-.897-20.965 8.408-20.18"/><path style="fill:none;fill-opacity:1;stroke:#000;stroke-width:1;stroke-dasharray:none" d="M208.082 153.595s-1.457-19.956-12.78-18.498"/><path style="fill:#000;fill-opacity:1;stroke:#000;stroke-width:.112113" d="M250.157 265.512c-7.425 6.367-14.937 12.664-22.953 18.28-.956.722-2.07 1.257-2.984 2.01-.37.665.583.879 1.072.75l32.658.005c1.075-.536 1.865-1.54 2.73-2.367 1.733-1.848 3.397-3.787 4.908-5.808.22-.7-.736-1.025-1.109-1.473-4.547-3.814-9.117-7.602-13.677-11.401-.248-.13-.401-.135-.645.005zM86.883 256.05c-.817.46-1.249 1.404-1.863 2.09-3.127 4.23-6.833 7.953-10.59 11.634-.435.728.596 1.227.907 1.793 4.044 4.793 8.201 9.555 13.066 13.54.735.486 1.38 1.237 2.24 1.446l37.334-.002c.78-.1.475-1.09-.173-1.15-6.176-3.078-12.292-6.298-18.147-9.962-6.926-4.352-13.737-9.101-19.205-15.234-1.155-1.259-2.11-2.686-3.138-4.037-.098-.142-.29-.079-.431-.119z"/></svg>