<svg xmlns="http://www.w3.org/2000/svg" xmlns:xlink="http://www.w3.org/1999/xlink" xml:space="preserve" fill="none" viewBox="0 0 348 348"><defs><linearGradient id="a"><stop offset="0" stop-color="#212c4f"/><stop offset="1" stop-color="#6175a1"/></linearGradient><linearGradient xlink:href="#a" id="b" x1="8.2" x2="336.5" y1="5.4" y2="344.4" gradientUnits="userSpaceOnUse"/></defs><path fill="url(#b)" stroke="#000" stroke-width="2" d="M5 5.8h337v337.6H5z"/><path fill="#fff" stroke="#000" stroke-width="2" d="M282.7 40.6c0-8.4 7-15.2 15.6-15.2 4.1 0 8 1.6 11 4.4a15 15 0 0 1 4.6 10.8c0 8.3-7 15.1-15.6 15.1s-15.6-6.8-15.6-15.1z"/><g fill="#fff" stroke="#fff" stroke-width="33.9"><path stroke-width="2.034" d="M168.3 21.9c-6.6 2.7-9.5 12.1-6.3 19.6 1.6 3.7 2 9 .8 11.7-.7 1.5-.7 2.3-.1 4 .4 1.1.7 5.1.7 9.4v7.3h-2a101.3 101.3 0 0 0-69.6 36.4c-3 3.9-5.9 7.3-6.3 7.8-.6.7-1.3.5-4.3-1.2a45.6 45.6 0 0 1-11-7.6c-.1-.4-1-.8-2.2-.8-2.7 0-6.7-2.7-10.8-7.5C53 96.3 49.8 95 44 95.3c-5.2.3-8.6 2.8-9.2 6.6-1.4 7.3 5.2 15.6 12.5 15.7 2.6 0 9.5 2.7 10.3 4 1 1.9 2.9 3.2 4.2 3.2.7 0 2.4.7 3.6 1.6s2.5 1.5 2.8 1.5 2.5 1 4.8 2.5l4.3 2.4L76 135c-.6 1.2-2.6 6.4-4.2 11.6-2.6 8.3-3 11-4.1 20.6a71.3 71.3 0 0 0 0 22.1 109.4 109.4 0 0 0 8.3 32.2l1.2 2-2.2 1.3c-5.3 3-13 6.8-14 6.8-.7 0-1.7.9-2.5 1.9-1.6 2.3-6.4 4.5-10.9 5a14 14 0 0 0-10 5.7c-4 5.1-4.2 11.6-.6 14.3 3 2.3 5.7 2.9 9.8 2.3 5.5-.8 7.1-1.9 11.5-7.3 2.5-3 6.5-5.5 9-5.5 1.5 0 2.3-.4 3-1.5.6-.9 2.1-2.1 3.4-2.8 1.4-.6 3-1.7 3.6-2.2.6-.4 2.4-1.7 4.1-2.6l3.1-1.8 6.3 7.6a101.1 101.1 0 0 0 65.9 36.7l6.7.7v7.6c0 4.4-.3 8.4-.7 9.6-.6 1.6-.6 2.4 0 4 1.3 2.7 1 8-.7 11.6-3.4 8-.1 17.3 6.8 19.7 4 1.3 8.9-1.4 11.5-6.6 2-3.7 2.1-10 .3-13.7-2-3.7-2.3-7.9-1-10.7.8-2 1-2.7.3-4.3-.4-1.1-.8-5.4-1-9.6l-.5-7.6 7-.7c5-.5 9.4-1.5 16.5-3.7a102 102 0 0 0 49.6-33l6.1-7.5 3.6 1.9c2 1 4.1 2.4 4.7 3s1.9 1.3 2.8 1.9c.9.5 2.4 1.5 3.1 2.4 1 1 2.2 1.6 3.4 1.6 2.4 0 7.6 3.5 9.7 6.6 2.3 3.5 5.6 5.5 10.2 6 4.9.7 8.4-.2 10.8-2.7 1.6-1.7 1.9-2.4 2-5.4 0-4-1-6.7-4.1-9.9-2.3-2.4-4.6-3.4-8.9-4-4.4-.6-9.3-3-10.9-5.1-.7-1-1.7-1.9-2.3-1.9-.6 0-2-.5-3.1-1l-7.7-4.1-5.6-3 1.4-2.7a113.4 113.4 0 0 0 8.2-53.4c-1-9.2-1.4-12-4-20a137.5 137.5 0 0 0-5-14.8 61 61 0 0 1 15-7.7c.7 0 1.9-.7 2.6-1.8 1.7-2.4 8-5.4 11-5.4 7.1 0 13.5-6.8 13.3-14.1 0-3-.3-3.9-1.7-5.4-2-2-4.7-3-8.8-3-5.2 0-9.6 2.4-12.5 6.8-1.7 2.6-7.6 6.6-9.7 6.6-.9 0-2.6.9-3.8 2-3 2.6-13 8.8-13.5 8.2l-3.4-4.5A106.3 106.3 0 0 0 208.2 80a105 105 0 0 0-27.6-6h-2.2l.4-7.8c.3-4.3.7-8.6 1.1-9.6.6-1.6.5-2.4-.4-4.3-1.2-2.8-.9-6.7 1-11 2.9-6.3 1-15-4-18.1-2.4-1.7-6-2.2-8.2-1.3zm7.2 3c2.5 1.9 4.3 5.4 4.7 9.3.3 2.5 0 3.7-1 5.9-1.3 2.2-1.5 3.5-1.4 8l.1 6.8c.3 3.7-.4 9-1 9.2-.9.3-1 2-.1 2 .3 0 .6 1.8.6 4.5V75l5.6.7c18.6 2.5 35.5 9.3 50.5 20.6 5.8 4.4 15 13.6 19.3 19.4 2.4 3.2 4 4.8 4.9 4.8.6.1 2.6-.7 4.2-1.7 1.7-1 3.5-1.8 4.1-1.8.6 0 1-.4 1-.8s1-1.4 2.4-2c1.2-.8 2.9-2 3.7-3 1-1 2-1.5 3.3-1.5 2.5 0 7.7-3.6 10.3-7.3 3-4 6.5-5.7 11.7-5.2 3.2.2 4.2.6 5.6 1.9 2.1 2 2.7 4.3 1.9 7.4-.8 3-4.4 7.2-7 8.3-2.2.9-8 1.9-10.6 1.7-1.1 0-1.2 0-.4.3 1 .2.6.5-1.3 1.4-1.4.6-3 2-3.8 2.9a6 6 0 0 1-3.2 2.2c-1 .2-3 1-4.2 1.9a12 12 0 0 1-2.8 1.5c-1.4 0-9.2 5-9.2 6a97.4 97.4 0 0 1 6 16.3 83.2 83.2 0 0 1 4 19.6c.9 8.7.9 10.4 0 19a83 83 0 0 1-4 19.8 97.4 97.4 0 0 1-6 16.2c0 .9 7 5.4 9.4 6.1.7.2 2.2 1 3.3 1.7 1.2.7 2.8 1.3 3.5 1.3.8 0 1.9.8 2.7 1.9 1.8 2.4 7.9 5.4 11.1 5.4 3.5 0 7 1.8 9.6 4.9 3.7 4.4 4.4 10.2 1.3 11.6-.8.3-1.3.8-1.2 1 .2.3-1 .9-2.4 1.3-5.2 1.4-10.1-.4-14-5.4a26.8 26.8 0 0 0-5-4.9c-1.4-.9-2.4-1.7-2.3-2l-2.2-.3c-1.8-.2-3.1-.8-4.7-2.2-1.2-1-3.1-2.4-4.3-3-1.1-.6-1.8-1.3-1.3-1.4 1-.4 1-2 0-2-.6 0-1 .4-1.2.9-.1.6-1 .3-3.5-1.2-1.8-1.2-3.8-2.2-4.3-2.2s-3.7 3.4-7 7.4c-7 8.6-10 11.5-11.2 11.3-.5-.1-.8.1-.7.6.1.4-.7 1.2-1.6 2s-3.4 2.6-5.3 4.3c-2 1.6-4 3-4.6 3s-1 .2-.7.5-.1.5-.6.3c-.6-.3-1.4 0-2 .8-3.8 4.5-28.2 13.5-38.7 14.4-8.7.6-8 .1-8.3 6.5l.1 6.2c.3.6.7 6.9.6 9.1l-.1 6.7c0 4.6.1 5.8 1.3 8a8.6 8.6 0 0 1 1.1 6c-.5 5.2-2.7 8.3-6.9 10.3-2.3 1-4.4.4-7-2.1-4-3.8-5.2-10.1-2.7-14.8 1.1-2.2 1.3-3.5 1.2-8-.1-11.6 0-15.2.4-15.5.2-.2.3-2.8.2-5.9-.3-6.4.4-5.9-8.3-6.5a85 85 0 0 1-14.9-3.5c-20.2-6-37-17.3-50.1-33.3a46.6 46.6 0 0 0-7.1-7.8c-.5 0-2.5 1-4.4 2.2s-3.9 2-4.3 2c-.4 0-.7.3-.7.6s-1.2 1.2-2.6 2c-1.4 1-3.1 2.1-3.7 2.9-.7.7-2 1.2-2.8 1.2-2.4 0-6.6 3-10.5 7.5-2.8 3.2-4.1 4.2-6.6 5-5.8 2-12.1-.5-13-5-1.1-6.2 5.4-13.5 12.3-13.5 3.4 0 9.8-3.1 11.2-5.4.9-1.3 1.7-1.9 2.9-1.9.8 0 2.6-.6 3.8-1.5s2.5-1.5 2.8-1.5c.4 0 2.5-1.1 4.6-2.4s4.3-2.5 4.6-2.5c1 0 .7-1.7-1.2-5.3a113.2 113.2 0 0 1-8.3-31.8c-.8-9-.8-10.6 0-19.6a113.2 113.2 0 0 1 10-36c0-.3-1.7-1.5-3.8-2.7s-4-2.5-4-2.8-.5-.5-1-.5c-.6 0-2.4-.7-4-1.6s-3.5-1.5-4.1-1.5-1.6-.8-2.2-1.7c-1.3-2.3-6.5-4.7-11.1-5.3-6.4-.7-11.6-5.4-12.5-10.8-.7-5 2.6-8.2 8.6-8.2 5 0 7.7 1.6 12.1 7.1 2.4 3 6.6 5.6 8.8 5.6 1.3 0 2.3.5 3.3 1.7.8 1 2.5 2.2 3.9 2.8 1.4.7 2.5 1.5 2.5 2 0 .4.4.8.9.8s2.2.8 3.8 1.8c1.6 1 3.6 1.8 4.2 1.8.9 0 3.2-2.4 7.7-7.8 6.8-8.3 10-11.5 17.3-17a104.8 104.8 0 0 1 50-20.1l6-.8-.6-9.4a231 231 0 0 1-.3-11l.2-6.6c0-4.3-.2-5.6-1.2-7.7-1.6-3-1.8-7.1-.4-10.4 1-2.5 3.6-5.4 5.4-6.2s4.8-.2 7 1.4z"/><path stroke-width="2.034" d="M176 43.5c.5.1 1 0 1.2-.1.2-.2-.1-.4-.8-.3-.7 0-.9.2-.4.4zM299.8 112c-.5.9-1.3 1.2-3 1.3-2.2 0-2.2 0-.5.7 1.3.4 2 .3 3.2-.4.8-.5 1.5-1.4 1.5-1.9 0-1.3-.4-1.1-1.2.3zm-143.3.6c-8 1.5-14.2 4.2-23 10a77.2 77.2 0 0 0-16.7 16.3c0 .5 2.2 2.2 5 3.7 2.7 1.6 5 3.2 5.1 3.4.2.3.8.6 1.4.6.6 0 1.4.3 1.6.8a8.3 8.3 0 0 0 5 2.8c.7 0 2.2.8 3.3 1.8 1.1 1 2.5 1.8 3.1 1.8.6 0 2 1 3.1 2.2 1.2 1.2 2.4 2 2.8 1.9.4-.1 2.3.7 4.2 1.8 2 1.1 3.7 2 4 2s2.4-1 4.5-2.4 4-2.4 4.4-2.4c1 0 1.7-12.6.9-14-.4-.7-.3-1.7 0-2.8.5-1.1.5-2.2 0-3.7s-.5-2.4 0-3.7c.4-.9.5-3.3.4-5.5l-.3-9.9v-5.9h-1.7l-7.1 1.2zm7 6.2.1 9.6-.1 6.3v6.7c.2 9 0 14.3-.7 14.3-.3 0-2 .9-3.7 2L156 160l-4.6-2.4c-2.6-1.3-5.2-3-5.8-3.6s-2-1.2-2.8-1.5-2.2-1-3-1.8-2.2-1.6-3-1.8c-2-.5-4.5-1.7-5-2.3-.2-.3-1-.9-1.6-1.2a83 83 0 0 1-10.8-6.6 68.3 68.3 0 0 1 37.3-24.4c7.3-1.3 6.7-1.8 6.8 4.6zm13.7-1.5v17.1c.3 5.1 0 9-.6 10.6-.5 1.4-.5 1.9 0 2 .5.2.8 1.9.8 5 0 4.4 0 4.8 1.3 5.2.7.3 2.8 1.4 4.7 2.6l3.2 2.2 4.2-2.3c2.3-1.2 4.5-2.2 5-2.2s1.4-.7 2-1.5 1.6-1.7 2.5-2c.9-.2 2.5-1.1 3.6-2.1s2.6-1.7 3.2-1.7c1.2 0 3.2-1 5-2.4l2.2-1.5c8.2-4.6 11-6.5 11-7.6 0-1.2-1.9-3.6-7-9a72 72 0 0 0-20.6-13.6 78.2 78.2 0 0 0-18.6-4.7h-1.7zm8.7-2.9c13.8 3.1 27.1 11.4 35.9 22.4l1.6 2-5.5 3.3-5.7 3.3c-.1 0-.8.5-1.4 1.1a9 9 0 0 1-3.6 1.8c-1.4.4-3.4 1.5-4.7 2.5a8 8 0 0 1-3.4 1.8c-.5 0-1.6.7-2.2 1.5s-1.5 1.6-2 1.6c-.3 0-2.3 1-4.3 2L187 160l-3.1-2.1a13.6 13.6 0 0 0-4.2-2.1c-.8 0-.9-2.3-1-21.3 0-17.7.2-21.2.8-21.2l6.4 1.2zm101.2-.6c-.6.4-.7.6-.2.6.3 0 .9-.3 1-.6.5-.7.3-.7-.8 0zm3 1.7c-.8 1-.8 1 0 .3.5-.3 1.9-.7 3-1l2.1-.2h-2.1c-1.5 0-2.5.2-3 .9zm-6 2.3c-1 .5-1.2.8-.7.8s1.5-.3 2-.8c1.6-1.2.6-1.2-1.4 0zm-211 2.4c0 .5.5 1 1 1s.9-.5.9-1-.5-.9-1-.9-.9.4-.9.9zm196.4 3c0 .5.4 1 .9 1s.9-.5.9-1-.4-.9-1-.9-.8.4-.8 1zm-98.8 3.4-.4 4.5c-.3 2.6-.3 2.7 1 2.7s1.3 0 1-3.5c-.6-3.9-1.5-6.3-1.6-3.7zm-61 24.3c-.8 1-3.4 10-4.5 15.4-1.3 5.9-1 20.2.5 26.3 1.7 7 4 12.4 5.1 12.6.6.1 3-1 5.7-2.5 2.5-1.6 5-2.8 5.4-2.8s1-.4 1.1-.9c.2-.4 1.2-1 2.1-1.1s2.8-1.3 4-2.6c1.4-1.1 2.9-2 3.5-2 .5 0 1.9-.7 2.8-1.6 2-1.7 5.6-2.7 5.6-1.6 0 .4.4.7 1 .7s.8-.4.8-1-.2-.8-.6-.8c-1.5 0-.3-1.1 3.7-3.3l4.2-2.4-.4-2.1a14 14 0 0 1 0-6.8c.4-2 .3-2.1-3.1-4-2-1.1-4.2-2.5-5-3.2a5 5 0 0 0-2.5-1.2 7 7 0 0 1-2.8-1.4c-.9-.8-2.4-1.7-3.4-2-1-.2-2.3-1-3-1.7-2-1.9-4.4-3.4-5.6-3.4-.5 0-1-.5-1.2-1-.3-.4-.8-.8-1.2-.8-.5 0-3-1.3-5.6-2.8-5-2.9-5.7-3.1-6.7-2zm12 7.6c.5.3 1.6.8 2.5 1 .9.2 2.6 1.4 3.8 2.5 1.3 1.2 2.8 2.1 3.4 2.1.5 0 1.8.7 2.8 1.5 1 .8 2.6 1.7 3.5 2s2 .6 2.2 1c.2.3 2 1.5 4.1 2.8l3.8 2.1v9l-3.3 2c-2 1-4 2.3-4.6 2.8s-1.6 1-2.1 1a7 7 0 0 0-2.7 1.5c-.9.8-2.5 1.6-3.4 1.9-1 .2-2.3 1-3.2 1.8a17.3 17.3 0 0 1-5.7 3.6c-.9.4-4.3 2.3-8.8 5l-2.6 1.4-1.5-3.8a62.5 62.5 0 0 1-.6-42.6l1.5-4.9 5 2.8 6 3.5zm105.7-6a77.1 77.1 0 0 1-8.2 4.3l-3 1.6c-1.2.6-2.7 1.7-3.3 2.5-.6.8-2 1.5-3.1 1.8-1.1.2-2.6 1-3.4 1.8-.7.8-2 1.5-2.7 1.5-.8 0-2 .4-2.5 1.1-.6.6-2.7 2-4.6 3.1-1.9 1-3.6 2.1-3.8 2.4-.6 1 .5 4.9 1.4 4.9.7 0 .8-.5.6-2-.3-2-.2-2.2 2.1-3.5l4.4-2.7c1-.7 2.5-1.6 3.3-1.8s2.3-1.1 3.2-2c1-.7 2.3-1.4 2.9-1.4s2.4-1 4-2.4c1.6-1.3 3.4-2.4 4-2.4s1.3-.4 1.7-1 1-.8 1.3-.8 2.5-1.1 4.8-2.5c2.3-1.3 4.4-2.3 4.7-2.1 2 1.2 5.6 17.5 5.6 25.2 0 6.6-2 17.6-4.2 22.5l-1.2 3-4.2-2.5a29.9 29.9 0 0 0-4.8-2.4c-.4 0-1-.4-1.4-1s-1.2-.8-1.8-.8c-.6 0-2.3-1.1-3.8-2.5s-3.6-2.6-4.6-2.7c-1-.3-2.5-1-3.2-1.9s-2-1.4-2.7-1.4c-.8 0-1.9-.5-2.5-1.2-.6-.6-2.7-2-4.6-3-3.3-1.9-3.3-2-3-4 .1-1.3 0-2.1-.3-2.1-.9 0-1.1.5-1.6 3.1l-.4 2.3 4.3 2.5c2.3 1.3 4.2 2.7 4.2 3 0 .2.8.6 1.9.8 1 .2 2.6 1 3.7 2 1 .8 2.3 1.4 3 1.4s2 .8 2.9 1.7c1.5 1.5 2.7 2.3 5.5 3.4.5.3 1.4.7 2 1.2 5.3 3.1 10.9 6 11.7 5.7 1.4-.2 3.7-6.2 5-13 1-4.2 1.3-8.1 1.3-14.7 0-7.7-.3-9.7-1.8-15.8-2-8-3.4-11.5-4.5-11.5-.3 0-2.3 1-4.3 2.2zm-59.7 12.2c-10.8 2.7-13.6 18-4.4 24.5 2.7 1.8 3.2 2 7.8 2 4.3 0 5.1-.3 7.4-1.8 3-2 5.3-5.3 6-8.8.5-2 .4-2.5-.2-2.5-.8 0-1.5 1.3-1.5 2.9 0 1.8-3 5.5-5.7 7.1-5.5 3.2-12.1 1.5-15.8-4-1.4-2.2-1.7-3.4-1.7-6.3 0-4.3 1.6-7.3 5.5-9.9 3.1-2.2 8.4-2.3 11.8-.2a13 13 0 0 1 5.9 7.5c.2 1.1.8 2 1.4 2.1.8.2.9-.1.4-2.4-.7-3.1-2.5-6-4.7-7.7l-1.6-1.2 2.7-.1c2.3-.1 2-.2-1.5-.5l-7-.8c-1.5-.1-3.6-.2-4.8.1zM152 196.1c-2.2 1.3-3.8 1.9-4.7 1.7-.7-.2-1.3-.1-1.3.3 0 1.2-2.6 3.7-4.3 4-.9.2-2.3 1-3 1.8s-2.1 1.7-3.1 1.8c-2.4.6-5.4 2.1-5.4 2.8 0 .3-.7.6-1.5.6s-1.5.3-1.7.8c-.2.5-2.6 2-5.2 3.7-2.8 1.5-5 3-5 3.4 0 1.3 6.6 8.6 11 12.3 4.1 3.4 5.7 4.3 18.2 9.4a97.6 97.6 0 0 0 16.3 5.7l2.7.1.3-6.8.3-10.9c-.2-4.8-.3-13 0-15.6l-.1-7.1c-.2-4.3-.3-5.3-1.1-5.3-.5 0-2.6-1.1-4.5-2.4s-3.8-2.5-4-2.4c-.3 0-2 1-3.9 2zm7.6 2.5 3.9 2.3v4.5c.2 2.5 0 6.7 0 9.1s0 5.7 0 7a174.2 174.2 0 0 1 0 15.9c0 4.6-.2 5.6-1 5.6-.4 0-7.2-2.6-14.8-5.7a60.5 60.5 0 0 1-18.2-9.4c-3.8-3.1-6-5.3-9.5-9.8-.7-.9-.2-1.4 4.4-4.1l5.7-3.1c.2 0 1.4-.8 2.5-1.8 1.2-1 2.7-1.8 3.5-1.8.7 0 2.3-.9 3.4-1.9 1.1-1 2.5-1.8 3-1.8s2-.8 3-1.8c1.2-1 2.5-1.8 2.8-1.8s2-.8 3.6-1.8 3-1.8 3.3-1.8 2.3 1 4.4 2.2zm23-1.9c-1.6 1.1-3.5 2-4 2-1 0-1.1.7-1.1 4.8 0 2.7-.3 5-.7 5.4-.5.5-.5 1.2 0 2.4.5 1.5.7 4 .6 9.9-.1 5.2.2 23.4.4 23.6.6.6 14.3-2.7 19-4.6 6.4-2.7 16.2-9 20.6-13.1 4.3-4.2 8-8.8 8-10 0-.7-2.1-2.3-5.8-4.6l-6-3.4c-.2 0-1-.6-1.5-1.2a9 9 0 0 0-3.6-1.8c-1.3-.3-3.4-1.5-4.7-2.5a8 8 0 0 0-3.4-1.8c-.6 0-1.7-1-2.5-2.1-1-1.5-1.7-2-2.4-1.9-.6.2-2.5-.5-4.2-1.5-1.7-1-3.6-1.8-4.3-1.7-.7 0-2.7 1-4.4 2.1zm7.9 1.5c1.7 1 3.5 1.8 4 1.8s1.4.7 2 1.5 1.8 1.7 2.7 1.9c.9.2 2.5 1.2 3.6 2.2 1 .9 2.5 1.7 3.1 1.7 1.3 0 3.3.9 5 2.3l2.3 1.5a79.5 79.5 0 0 1 10.3 6.5 67.6 67.6 0 0 1-44.2 25.5c-.3 0-.5-9.6-.4-21.3 0-20.6 0-21.2 1.2-21.6.7-.2 2.3-1.1 3.6-2s2.7-1.8 3.1-1.8 2 .8 3.7 1.8zM139.2 200.6c0 .7.1 1.2.2 1.2s.4-.5.6-1.2 0-1.2-.3-1.2-.5.5-.5 1.2zm-66 35.5c0 .4.4.9.8.9s1-.5 1-1-.5-.9-1-.9-.9.5-.9 1zm162.6 15.5-1.2 1.4 1.4-1.1 1.4-1.4c0-.5-.5-.1-1.6 1.1zm-2.7 2.1c-.8 1-.8 1 .2.3l1-1c0-.5-.5-.2-1.2.7zm-2.8 2.2-1.1 1.4 1.4-1.2c1.2-1 1.6-1.6 1.1-1.6l-1.4 1.4zm63.9.9h1.5c.4-.2 0-.3-.8-.3s-1.1 0-.7.3zm3 .6c.5.2 1 .1 1.2 0 .2-.3-.1-.4-.8-.4-.7 0-.9.2-.4.4zm-70.7 1.3c0 .4-.3.6-.8.3-.4-.3-.5-.2-.2.3.3.6.6.6 1.1.1.4-.3.5-.8.3-1-.3-.2-.4-.1-.4.3zm-5.2 2c-.2.3-.3.7-.1.9.1.1.4-.2.6-.7.4-1 0-1.2-.5-.2zm2.8.4c-.6.4-.6.6 0 1 .7.5 1.4 0 1-.8-.1-.4-.5-.5-1-.2zm-7.6 2.5c-.5.8.3.8 1.5 0 .8-.5.8-.6-.2-.6-.5 0-1.2.3-1.3.6zm3.3 0c-.6.4-.6.6-.2.6.4 0 1-.3 1.1-.6.5-.7.2-.7-1 0zm-36.5 10.7c.4.2 1.1.2 1.5 0 .4-.1 0-.3-.8-.3s-1.1.2-.7.3zm-8.5 27.8c-.3.5-.2 1 .1 1.2.4.3.6-.2.6-.8 0-1.5-.3-1.7-.7-.4z"/></g></svg>