<svg fill="none" viewBox="0 0 348 348" xmlns="http://www.w3.org/2000/svg"><g stroke="#000"><path d="M5.079 5.776h336.913v337.67H5.08z" stroke-width="2"/><path d="M282.73 40.554c0-8.376 6.966-15.165 15.56-15.165 4.126 0 8.084 1.597 11.001 4.441 2.918 2.844 4.558 6.702 4.558 10.724 0 8.376-6.966 15.165-15.56 15.165-8.593 0-15.559-6.79-15.559-15.165z" stroke-width="2"/><rect x="22.136" y="27.284" width="250.19" height="59.201" rx="23" fill="#fff" stroke-width="3"/></g><path d="M71.67 68.932q-1.075.468-1.954.879-.86.41-2.266.859-1.191.371-2.597.625-1.387.273-3.067.273-3.164 0-5.761-.879-2.578-.898-4.493-2.793-1.875-1.855-2.93-4.707-1.054-2.87-1.054-6.66 0-3.593 1.016-6.426 1.015-2.832 2.93-4.785 1.855-1.894 4.472-2.89 2.637-.996 5.84-.996 2.344 0 4.668.566 2.344.566 5.195 1.992v4.59h-.293q-2.402-2.012-4.765-2.93-2.364-.918-5.059-.918-2.207 0-3.984.723-1.758.703-3.145 2.207-1.348 1.465-2.11 3.711-.741 2.227-.741 5.156 0 3.067.82 5.274.84 2.207 2.148 3.593 1.367 1.446 3.184 2.149 1.836.683 3.867.683 2.793 0 5.234-.957 2.442-.957 4.57-2.87h.274zm27.187-23.633q1.777 1.953 2.715 4.785.957 2.832.957 6.426 0 3.594-.977 6.445-.957 2.832-2.695 4.727-1.797 1.972-4.258 2.968-2.442.996-5.586.996-3.066 0-5.586-1.015-2.5-1.016-4.258-2.95-1.758-1.933-2.715-4.745-.937-2.813-.937-6.426 0-3.555.937-6.367.938-2.832 2.735-4.844 1.718-1.914 4.258-2.93 2.558-1.016 5.566-1.016 3.125 0 5.605 1.036 2.5 1.015 4.239 2.91zm-.352 11.21q0-5.663-2.539-8.73-2.539-3.086-6.934-3.086-4.433 0-6.972 3.086-2.52 3.067-2.52 8.73 0 5.723 2.578 8.77 2.579 3.028 6.914 3.028 4.336 0 6.895-3.028 2.578-3.047 2.578-8.77zm32.344 14.532h-4.785l-13.79-26.016v26.016h-3.613V41.959h5.996l12.579 23.75v-23.75h3.613zm28.476-25.645h-10.39v25.645h-3.867V45.396h-10.391V41.96h24.648zm24.532 25.645h-4.121l-2.852-8.105h-12.578l-2.852 8.105h-3.925l10.585-29.082h5.157zm-8.164-11.426l-5.098-14.277-5.117 14.277zm35.039 9.317q-1.075.468-1.953.879-.86.41-2.266.859-1.191.371-2.598.625-1.386.273-3.066.273-3.164 0-5.762-.879-2.578-.898-4.492-2.793-1.875-1.855-2.93-4.707-1.054-2.87-1.054-6.66 0-3.593 1.015-6.426 1.016-2.832 2.93-4.785 1.855-1.894 4.473-2.89 2.636-.996 5.84-.996 2.343 0 4.667.566 2.344.566 5.196 1.992v4.59h-.293q-2.403-2.012-4.766-2.93-2.363-.918-5.058-.918-2.208 0-3.985.723-1.758.703-3.144 2.207-1.348 1.465-2.11 3.711-.742 2.227-.742 5.156 0 3.067.82 5.274.84 2.207 2.149 3.593 1.367 1.446 3.183 2.149 1.836.683 3.868.683 2.793 0 5.234-.957t4.57-2.87h.274zm26.25-23.536h-10.39v25.645h-3.868V45.396h-10.39V41.96h24.648zm10.098-3.437l-.508 21.074h-3.32l-.548-21.074zm-.196 29.082H242.9V66.92h3.984z" fill="#000"/><path d="M21.107 98.84h301.15v159.59H21.107z" fill="#fff" stroke="#000" stroke-width="3"/><path d="M105.428 197.1H95.272v-38.047h10.156v2.793H98.67v32.461h6.758zm42.09-33.3h-10.39v25.644h-3.868v-25.645h-10.39v-3.437h24.648zm23.106 25.644h-19.16v-29.082h19.16v3.437H155.33v7.97h15.293v3.437H155.33v10.8h15.293zm28.339-29.082l-10.039 14.375 10.02 14.707h-4.473l-7.93-11.973-8.124 11.973h-4.22l10.137-14.531-9.902-14.551h4.453l7.832 11.816 8.008-11.816zm25.977 3.438h-10.39v25.644h-3.868v-25.645h-10.39v-3.437h24.648zm27.598 33.3H242.38v-2.793h6.758v-32.46h-6.758v-2.794h10.157z" fill="#000"/><path d="M55.083 272.84h232.17v55.598H55.083z" fill="#000" stroke="#000" stroke-width="3"/><path d="M142.44 285.97l-10.04 14.375 10.02 14.707h-4.472l-7.93-11.973-8.125 11.973h-4.219l10.137-14.531-9.903-14.551h4.454l7.832 11.816 8.007-11.816zm41.484 0l-10.039 14.375 10.02 14.707h-4.473l-7.93-11.973-8.125 11.973h-4.218l10.136-14.531-9.902-14.551h4.453l7.832 11.816 8.008-11.816zm41.484 0l-10.039 14.375 10.02 14.707h-4.473l-7.93-11.973-8.124 11.973h-4.22l10.138-14.531-9.903-14.551h4.453l7.832 11.816 8.008-11.816z" fill="#fff"/><path d="M71.421 313.81l6.196-6.234c-2.06-2.05 1.147-4.927 2.978-2.997l1.488-1.428c-1.962-2.026.97-4.975 3.02-2.973l1.445-1.502c-1.828-1.583.39-4.886 2.93-2.974l4.25-4.249c2.109-2.562 1.482-5.763 1.517-8.75.016-.369.742-.8 1.239-.582l9.433 9.383c.2.216.285.603.054 1-.198.342-.427.446-.787.466l-3.187-.05c-2.645.026-4.284.884-5.386 1.618 3.587 1.631 5.068 6.694 1.72 10.066 1.898 1.686-.569 4.983-2.934 2.985l-1.476 1.46c2.016 1.983-.948 4.963-2.976 2.953l-1.466 1.454c1.954 2.078-1.025 4.978-2.985 2.96-3.183 3.359-8.532 1.683-10.078-1.733l-2.263 2.263-2.985-2.908z" fill="#b5b5b5"/><g fill="#d5d5d5"><path d="M69.676 314.78c2.414-2.447 6.282.883 3.692 3.705.863.912-.716 2.218-1.416 1.429l-3.756-3.73c-.738-.944.724-2.152 1.48-1.404zM76.29 301.48c.534-.29 1.058-.212 1.451.238.416.475.293 1.07-.007 1.35l-1.676 1.711c-.426.3-1.201.098-1.427-.2-.224-.297-.417-.78-.08-1.338zM80.719 297.05c.534-.29 1.058-.212 1.451.238.416.475.293 1.07-.007 1.35l-1.677 1.711c-.425.3-1.2.098-1.426-.2-.224-.297-.417-.78-.08-1.338zM85.154 292.6c.534-.29 1.058-.212 1.451.238.416.475.293 1.07-.007 1.35l-1.677 1.711c-.425.3-1.2.098-1.426-.2-.224-.297-.417-.78-.08-1.338z"/></g><g fill="#000"><path d="M80.627 310.52l2.926 2.953c-1.319 1.224-2.71.225-2.977-.045-.775-.97-.794-1.939.051-2.908zM95.395 301.63l-2.935-2.945c1.316-1.228 2.71-.232 2.977.036.779.968.8 1.937-.042 2.909zM89.478 301.64l2.946 2.921-1.454 1.518-2.959-2.96zM85.021 306.07l2.946 2.921-1.454 1.518-2.959-2.96z"/></g><g><path d="M236.941 314.056l6.196-6.234c-2.06-2.05 1.147-4.926 2.978-2.997l1.488-1.428c-1.962-2.026.97-4.975 3.02-2.972l1.445-1.503c-1.828-1.582.39-4.886 2.93-2.974l4.25-4.249c2.109-2.562 1.482-5.763 1.517-8.75.016-.368.742-.799 1.239-.582l9.433 9.383c.2.216.285.603.054 1-.198.342-.427.447-.787.467l-3.187-.05c-2.645.026-4.284.884-5.386 1.618 3.587 1.63 5.068 6.694 1.72 10.066 1.898 1.686-.569 4.982-2.934 2.984l-1.476 1.461c2.016 1.983-.948 4.962-2.976 2.952L255 313.703c1.954 2.077-1.025 4.978-2.985 2.959-3.183 3.36-8.532 1.684-10.078-1.733l-2.263 2.264-2.985-2.909z" fill="#b5b5b5"/><g fill="#d5d5d5"><path d="M235.196 315.026c2.414-2.446 6.282.884 3.692 3.706.863.911-.716 2.218-1.416 1.428l-3.756-3.73c-.738-.943.724-2.151 1.48-1.404zM241.81 301.726c.534-.29 1.058-.212 1.451.238.416.476.293 1.07-.007 1.35l-1.676 1.712c-.426.3-1.201.098-1.427-.2-.224-.297-.417-.78-.08-1.338zM246.239 297.296c.534-.29 1.058-.212 1.451.238.416.476.293 1.07-.007 1.35l-1.676 1.712c-.426.3-1.201.098-1.427-.2-.224-.297-.417-.78-.08-1.338zM250.674 292.846c.534-.29 1.058-.212 1.451.238.416.476.293 1.07-.007 1.35l-1.676 1.712c-.426.3-1.201.098-1.427-.2-.224-.297-.417-.78-.08-1.338z"/></g><g fill="#000"><path d="M246.147 310.766l2.926 2.954c-1.319 1.224-2.71.224-2.977-.045-.775-.97-.794-1.94.051-2.909zM260.915 301.876l-2.935-2.944c1.316-1.228 2.71-.233 2.977.036.779.967.8 1.936-.042 2.908zM254.998 301.886l2.946 2.922-1.454 1.517-2.959-2.959zM250.541 306.316l2.946 2.922-1.454 1.517-2.959-2.959z"/></g></g></svg>