<svg xmlns="http://www.w3.org/2000/svg" viewBox="0 0 348 348" fill="none"><path d="M5.08 5.78h336.91v337.67H5.08z" stroke-width="2" stroke="#000"/><path d="M282.73 40.55c0-8.37 6.97-15.16 15.56-15.16 4.13 0 8.09 1.6 11 4.44a14.97 14.97 0 014.56 10.72c0 8.38-6.96 15.17-15.56 15.17-8.59 0-15.56-6.8-15.56-15.17z" stroke-width="2" stroke="#000"/><path stroke="#000" stroke-width="2" paint-order="markers stroke fill" d="M29.78 19.2h238.27v36.05H29.78zM12.15 65.84h28.61v38.8H12.15z"/><path stroke="#000" stroke-width="2.07" paint-order="markers stroke fill" d="M46.67 65.09H298.2v40.68H46.67z"/><path stroke="#000" stroke-width="2" paint-order="markers stroke fill" d="M303.72 65.84h28.61v38.8h-28.61z"/><path d="M307.84 73.58v23.7l20.53-11.85zM36.63 73.19v23.7L16.1 85.04z" stroke="#000" stroke-width="2" paint-order="markers stroke fill"/><g stroke="#000"><path stroke-width="2" paint-order="markers stroke fill" d="M21.59 126.19h43.5v40.76h-43.5zM75.59 126.19h43.5v40.76h-43.5zM127.59 126.19h43.5v40.76h-43.5zM179.59 126.19h43.5v40.76h-43.5zM231.59 126.19h43.5v40.76h-43.5zM283.59 126.19h43.5v40.76h-43.5zM21.59 176.35h43.5v40.76h-43.5zM75.59 176.35h43.5v40.76h-43.5zM127.59 176.35h43.5v40.76h-43.5zM179.59 176.35h43.5v40.76h-43.5zM231.59 176.35h43.5v40.76h-43.5zM283.59 176.35h43.5v40.76h-43.5z"/><path stroke-width="1.91" paint-order="markers stroke fill" d="M26.3 226.86h136.07v27.52H26.3zM186.3 226.86h136.07v27.52H186.3z"/><path stroke-width="1.92" paint-order="markers stroke fill" d="M106.3 264.86h136.07v27.52H106.3z"/><path stroke-width="1.91" paint-order="markers stroke fill" d="M106.3 302.86h136.07v27.52H106.3z"/><path stroke-width="1.92" stroke-linecap="square" stroke-linejoin="round" paint-order="stroke fill markers" d="M25 263h65v65H25zM260 263h65v65h-65z"/></g><g font-weight="400" font-family="sans-serif" letter-spacing="0" word-spacing="0" fill="#000"><text style="line-height:1.25" x="125.58" y="44.51" font-size="21.33"><tspan x="125.58" y="44.51">0.42</tspan></text><text style="line-height:1.25;text-align:center" x="172.43" y="92.49" font-size="24" text-anchor="middle"><tspan x="172.43" y="92.49">[LCD DISPLAY]</tspan></text><text style="line-height:1.25;text-align:center" x="43.84" y="150.8" font-size="16" text-anchor="middle"><tspan x="43.84" y="150.8" font-size="13.33">0.001</tspan></text><text style="line-height:1.25;text-align:center" x="80" y="158" font-size="13.33" text-anchor="middle"/><text style="line-height:1.25;text-align:center" x="97.18" y="150.78" font-size="13.33" text-anchor="middle"><tspan x="97.18" y="150.78">0.01</tspan></text><text style="line-height:1.25;text-align:center" x="149.96" y="151.34" font-size="13.33" text-anchor="middle"><tspan x="149.96" y="151.34">0.1</tspan></text><text style="line-height:1.25;text-align:center" x="200.83" y="151.34" font-size="13.33" text-anchor="middle"><tspan x="200.83" y="151.34">1</tspan></text><text style="line-height:1.25;text-align:center" x="252.77" y="151.06" font-size="13.33" text-anchor="middle"><tspan x="252.77" y="151.06">10</tspan></text><text style="line-height:1.25;text-align:center" x="305.27" y="151.34" font-size="13.33" text-anchor="middle"><tspan x="305.27" y="151.34">100</tspan></text><text style="line-height:1.25;text-align:center" x="43.61" y="202.45" font-size="13.33" text-anchor="middle"><tspan x="43.61" y="202.45">0.005</tspan></text><text style="line-height:1.25;text-align:center" x="97.47" y="202.45" font-size="13.33" text-anchor="middle"><tspan x="97.47" y="202.45">0.05</tspan></text><text style="line-height:1.25;text-align:center" x="149.98" y="202.45" font-size="13.33" text-anchor="middle"><tspan x="149.98" y="202.45">0.5</tspan></text><text style="line-height:1.25;text-align:center" x="201.11" y="202.45" font-size="13.33" text-anchor="middle"><tspan x="201.11" y="202.45">5</tspan></text><text style="line-height:1.25;text-align:center" x="253.05" y="203" font-size="13.33" text-anchor="middle"><tspan x="253.05" y="203">50</tspan></text><text style="line-height:1.25;text-align:center" x="305.27" y="203" font-size="13.33" text-anchor="middle"><tspan x="305.27" y="203">500</tspan></text><text style="line-height:1.25;text-align:center" x="93.51" y="248" font-size="18.67" text-anchor="middle"><tspan x="93.51" y="248">SUBMIT</tspan></text><text style="line-height:1.25;text-align:center" x="255.49" y="248" font-size="18.67" text-anchor="middle"><tspan x="255.49" y="248">CLEAR</tspan></text><text style="line-height:1.25;text-align:center" x="173.53" y="286.34" font-size="13.33" text-anchor="middle"><tspan x="173.53" y="286.34" font-size="18.67">STABILIZE</tspan></text><text style="line-height:1.25;text-align:center" x="174.05" y="323" font-size="18.67" text-anchor="middle"><tspan x="174.05" y="323">PATCH</tspan></text><text style="line-height:1.25;text-align:center" x="56.35" y="299.41" font-size="13.33" text-anchor="middle"><tspan x="56.35" y="299.41">WIFI</tspan></text><text style="line-height:1.25;text-align:center" x="292.18" y="293.3" font-size="13.33" text-anchor="middle"><tspan x="292.18" y="293.3">HACKER</tspan><tspan x="292.18" y="309.97">SHEILD</tspan></text></g></svg>