<?xml version="1.0" encoding="UTF-8" standalone="no"?>
<svg
   xmlns:dc="http://purl.org/dc/elements/1.1/"
   xmlns:cc="http://creativecommons.org/ns#"
   xmlns:rdf="http://www.w3.org/1999/02/22-rdf-syntax-ns#"
   xmlns:svg="http://www.w3.org/2000/svg"
   xmlns="http://www.w3.org/2000/svg"
   xmlns:sodipodi="http://sodipodi.sourceforge.net/DTD/sodipodi-0.dtd"
   xmlns:inkscape="http://www.inkscape.org/namespaces/inkscape"
   inkscape:version="1.0 (4035a4fb49, 2020-05-01)"
   sodipodi:docname="Chinese Zodiac.svg"
   id="svg6"
   version="1.1"
   fill="none"
   viewBox="0.0 0.0 348.0 348.0">
  <metadata
     id="metadata12">
    <rdf:RDF>
      <cc:Work
         rdf:about="">
        <dc:format>image/svg+xml</dc:format>
        <dc:type
           rdf:resource="http://purl.org/dc/dcmitype/StillImage" />
      </cc:Work>
    </rdf:RDF>
  </metadata>
  <defs
     id="defs10" />
  <sodipodi:namedview
     inkscape:current-layer="svg6"
     inkscape:window-maximized="1"
     inkscape:window-y="-8"
     inkscape:window-x="-8"
     inkscape:cy="126.39272"
     inkscape:cx="174"
     inkscape:zoom="2.4425287"
     showgrid="false"
     id="namedview8"
     inkscape:window-height="1017"
     inkscape:window-width="1920"
     inkscape:pageshadow="2"
     inkscape:pageopacity="0"
     guidetolerance="10"
     gridtolerance="10"
     objecttolerance="10"
     borderopacity="1"
     bordercolor="#666666"
     pagecolor="#ffffff"
     inkscape:document-rotation="0" />
  <path
     id="path2"
     stroke="#000"
     stroke-width="2"
     d="M5.079 5.776h336.913v337.67H5.08z" />
  <path
     id="path4"
     stroke="#000"
     stroke-width="2"
     d="M282.734 40.554c0-8.376 6.966-15.165 15.56-15.165 4.126 0 8.084 1.597 11.001 4.441 2.918 2.844 4.558 6.702 4.558 10.724 0 8.376-6.966 15.165-15.56 15.165-8.593 0-15.559-6.79-15.559-15.165z" />
  <rect
     y="58.955292"
     x="179.73177"
     height="41.35059"
     width="96.211761"
     id="rect837"
     style="fill:none;stroke:#000000;stroke-width:2.102;stroke-miterlimit:4;stroke-dasharray:none" />
  <g
     style="font-size:41.4075px;line-height:1;font-family:'MF ShangHei (Noncommercial)';-inkscape-font-specification:'MF ShangHei (Noncommercial)';letter-spacing:0.646992px;word-spacing:0.646992px;fill:#000000;fill-opacity:1;stroke-width:0.646992"
     id="text834"
     transform="scale(1.0234188,0.97711709)"
     aria-label="生肖">
    <g
       style="opacity:1"
       id="g893">
      <path
         id="path895"
         d="m 219.84747,70.616297 h -14.69966 v -7.660388 h -2.98134 v 7.660388 h -10.93158 v -5.424383 h -2.98134 v 6.583793 l -3.51964,6.6252 2.69149,1.366447 3.22978,-6.169717 h 11.51129 v 9.979207 h -16.5216 v 2.981341 h 16.5216 v 9.854985 h -18.09508 v 2.98134 h 37.05971 v -2.98134 h -15.98329 v -9.854985 h 14.40981 v -2.981341 h -14.40981 v -9.979207 h 14.69966 z"
         style="color:#000000;font-style:normal;font-variant:normal;font-weight:normal;font-stretch:normal;font-size:medium;line-height:1;font-family:'MF ShangHei (Noncommercial)';-inkscape-font-specification:'MF ShangHei (Noncommercial)';font-variant-ligatures:normal;font-variant-position:normal;font-variant-caps:normal;font-variant-numeric:normal;font-variant-alternates:normal;font-variant-east-asian:normal;font-feature-settings:normal;font-variation-settings:normal;text-indent:0;text-align:start;text-decoration:none;text-decoration-line:none;text-decoration-style:solid;text-decoration-color:#000000;letter-spacing:0.646992px;word-spacing:0.646992px;text-transform:none;writing-mode:lr-tb;direction:ltr;text-orientation:mixed;dominant-baseline:auto;baseline-shift:baseline;text-anchor:start;white-space:normal;shape-padding:0;shape-margin:0;inline-size:0;clip-rule:nonzero;display:inline;overflow:visible;visibility:visible;isolation:auto;mix-blend-mode:normal;color-interpolation:sRGB;color-interpolation-filters:linearRGB;solid-color:#000000;solid-opacity:1;vector-effect:none;fill:#000000;fill-opacity:1;fill-rule:nonzero;stroke-width:0.646992;stroke-linecap:butt;stroke-linejoin:miter;stroke-miterlimit:4;stroke-dasharray:none;stroke-dashoffset:0;stroke-opacity:1.0;color-rendering:auto;image-rendering:auto;shape-rendering:auto;text-rendering:auto;enable-background:accumulate;stop-color:#000000;stop-opacity:1;stroke:none;" />
      <path
         id="path897"
         d="M 201.84375 62.632812 L 201.84375 70.292969 L 191.55859 70.292969 L 191.55859 64.869141 L 187.92969 64.869141 L 187.92969 71.695312 L 184.29297 78.541016 L 187.56445 80.201172 L 190.85156 73.921875 L 201.84375 73.921875 L 201.84375 83.253906 L 185.32227 83.253906 L 185.32227 86.880859 L 201.84375 86.880859 L 201.84375 96.089844 L 183.74805 96.089844 L 183.74805 99.71875 L 221.45508 99.71875 L 221.45508 96.089844 L 205.4707 96.089844 L 205.4707 86.880859 L 219.88086 86.880859 L 219.88086 83.253906 L 205.4707 83.253906 L 205.4707 73.921875 L 220.17188 73.921875 L 220.17188 70.292969 L 219.84766 70.292969 L 205.4707 70.292969 L 205.4707 62.632812 L 201.84375 62.632812 z M 202.49023 63.279297 L 204.82422 63.279297 L 204.82422 70.939453 L 219.52344 70.939453 L 219.52344 73.273438 L 204.82422 73.273438 L 204.82422 83.900391 L 219.23438 83.900391 L 219.23438 86.234375 L 204.82422 86.234375 L 204.82422 96.736328 L 220.80664 96.736328 L 220.80664 99.070312 L 184.39453 99.070312 L 184.39453 96.736328 L 202.49023 96.736328 L 202.49023 86.234375 L 185.96875 86.234375 L 185.96875 83.900391 L 202.49023 83.900391 L 202.49023 73.273438 L 190.45898 73.273438 L 187.28711 79.333984 L 185.17383 78.261719 L 188.57617 71.855469 L 188.57617 65.515625 L 190.91211 65.515625 L 190.91211 70.939453 L 202.49023 70.939453 L 202.49023 63.279297 z "
         style="color:#000000;font-style:normal;font-variant:normal;font-weight:normal;font-stretch:normal;font-size:medium;line-height:1;font-family:'MF ShangHei (Noncommercial)';-inkscape-font-specification:'MF ShangHei (Noncommercial)';font-variant-ligatures:normal;font-variant-position:normal;font-variant-caps:normal;font-variant-numeric:normal;font-variant-alternates:normal;font-variant-east-asian:normal;font-feature-settings:normal;font-variation-settings:normal;text-indent:0;text-align:start;text-decoration:none;text-decoration-line:none;text-decoration-style:solid;text-decoration-color:#000000;letter-spacing:0.646992px;word-spacing:0.646992px;text-transform:none;writing-mode:lr-tb;direction:ltr;text-orientation:mixed;dominant-baseline:auto;baseline-shift:baseline;text-anchor:start;white-space:normal;shape-padding:0;shape-margin:0;inline-size:0;clip-rule:nonzero;display:inline;overflow:visible;visibility:visible;isolation:auto;mix-blend-mode:normal;color-interpolation:sRGB;color-interpolation-filters:linearRGB;solid-color:#000000;solid-opacity:1;vector-effect:none;fill-opacity:1;fill-rule:nonzero;stroke-width:0.646992;stroke-linecap:butt;stroke-linejoin:miter;stroke-miterlimit:4;stroke-dasharray:none;stroke-dashoffset:0;stroke-opacity:1.0;color-rendering:auto;image-rendering:auto;shape-rendering:auto;text-rendering:auto;enable-background:accumulate;stop-color:#000000;stop-opacity:1;stroke:none;" />
    </g>
    <g
       style="opacity:1"
       id="g899">
      <path
         id="path901"
         d="m 252.62668,99.684362 h 7.49476 V 73.556229 H 246.16711 V 62.997316 h -2.98134 v 10.558913 h -13.95433 v 26.045318 h 2.98134 V 76.537569 h 24.92732 v 20.165453 h -4.51342 z m -13.87151,-29.64777 -6.50098,-5.548606 -1.94615,2.31882 6.50098,5.548606 z m 13.7887,2.277412 6.45957,-5.548605 -1.94616,-2.236005 -6.45957,5.548605 z m -4.63764,11.469878 -4.3892,-4.389195 -2.07037,2.111782 4.38919,4.389195 z m 0,9.813578 -4.3892,-4.389195 -2.07037,2.070375 4.38919,4.430602 z"
         style="color:#000000;font-style:normal;font-variant:normal;font-weight:normal;font-stretch:normal;font-size:medium;line-height:1;font-family:'MF ShangHei (Noncommercial)';-inkscape-font-specification:'MF ShangHei (Noncommercial)';font-variant-ligatures:normal;font-variant-position:normal;font-variant-caps:normal;font-variant-numeric:normal;font-variant-alternates:normal;font-variant-east-asian:normal;font-feature-settings:normal;font-variation-settings:normal;text-indent:0;text-align:start;text-decoration:none;text-decoration-line:none;text-decoration-style:solid;text-decoration-color:#000000;letter-spacing:0.646992px;word-spacing:0.646992px;text-transform:none;writing-mode:lr-tb;direction:ltr;text-orientation:mixed;dominant-baseline:auto;baseline-shift:baseline;text-anchor:start;white-space:normal;shape-padding:0;shape-margin:0;inline-size:0;clip-rule:nonzero;display:inline;overflow:visible;visibility:visible;isolation:auto;mix-blend-mode:normal;color-interpolation:sRGB;color-interpolation-filters:linearRGB;solid-color:#000000;solid-opacity:1;vector-effect:none;fill:#000000;fill-opacity:1;fill-rule:nonzero;stroke-width:0.646992;stroke-linecap:butt;stroke-linejoin:miter;stroke-miterlimit:4;stroke-dasharray:none;stroke-dashoffset:0;stroke-opacity:1.0;color-rendering:auto;image-rendering:auto;shape-rendering:auto;text-rendering:auto;enable-background:accumulate;stop-color:#000000;stop-opacity:1;stroke:none;" />
      <path
         id="path903"
         d="M 242.86133 62.673828 L 242.86133 73.232422 L 228.9082 73.232422 L 228.9082 99.925781 L 232.53711 99.925781 L 232.53711 76.861328 L 256.81641 76.861328 L 256.81641 96.378906 L 252.30273 96.378906 L 252.30273 100.00781 L 252.62695 100.00781 L 260.44531 100.00781 L 260.44531 73.232422 L 246.49023 73.232422 L 246.49023 62.673828 L 242.86133 62.673828 z M 243.50977 63.320312 L 245.84375 63.320312 L 245.84375 73.878906 L 259.79883 73.878906 L 259.79883 99.361328 L 252.94922 99.361328 L 252.94922 97.027344 L 257.46289 97.027344 L 257.46289 76.214844 L 231.88867 76.214844 L 231.88867 99.277344 L 229.55469 99.277344 L 229.55469 73.878906 L 243.50977 73.878906 L 243.50977 63.320312 z M 232.2168 64.029297 L 229.85352 66.84375 L 236.84766 72.8125 L 239.20898 69.998047 L 238.96484 69.791016 L 232.2168 64.029297 z M 257.08984 64.074219 L 250.14062 70.044922 L 252.51172 72.769531 L 252.75391 72.558594 L 259.46094 66.798828 L 257.08984 64.074219 z M 232.29297 64.945312 L 238.30078 70.074219 L 236.76953 71.896484 L 230.76172 66.769531 L 232.29297 64.945312 z M 257.02344 64.984375 L 258.54492 66.732422 L 252.57617 71.859375 L 251.05664 70.111328 L 257.02344 64.984375 z M 243.51562 78.935547 L 240.99219 81.507812 L 245.83789 86.355469 L 248.36133 83.78125 L 248.13477 83.554688 L 243.51562 78.935547 z M 243.51953 79.853516 L 247.45117 83.785156 L 245.83398 85.435547 L 241.90234 81.503906 L 243.51953 79.853516 z M 243.51758 88.75 L 240.99023 91.277344 L 245.83789 96.169922 L 248.36133 93.595703 L 248.13477 93.369141 L 243.51758 88.75 z M 243.51758 89.666016 L 247.45117 93.599609 L 245.83398 95.248047 L 241.90234 91.279297 L 243.51758 89.666016 z "
         style="color:#000000;font-style:normal;font-variant:normal;font-weight:normal;font-stretch:normal;font-size:medium;line-height:1;font-family:'MF ShangHei (Noncommercial)';-inkscape-font-specification:'MF ShangHei (Noncommercial)';font-variant-ligatures:normal;font-variant-position:normal;font-variant-caps:normal;font-variant-numeric:normal;font-variant-alternates:normal;font-variant-east-asian:normal;font-feature-settings:normal;font-variation-settings:normal;text-indent:0;text-align:start;text-decoration:none;text-decoration-line:none;text-decoration-style:solid;text-decoration-color:#000000;letter-spacing:0.646992px;word-spacing:0.646992px;text-transform:none;writing-mode:lr-tb;direction:ltr;text-orientation:mixed;dominant-baseline:auto;baseline-shift:baseline;text-anchor:start;white-space:normal;shape-padding:0;shape-margin:0;inline-size:0;clip-rule:nonzero;display:inline;overflow:visible;visibility:visible;isolation:auto;mix-blend-mode:normal;color-interpolation:sRGB;color-interpolation-filters:linearRGB;solid-color:#000000;solid-opacity:1;vector-effect:none;fill-opacity:1;fill-rule:nonzero;stroke-width:0.646992;stroke-linecap:butt;stroke-linejoin:miter;stroke-miterlimit:4;stroke-dasharray:none;stroke-dashoffset:0;stroke-opacity:1.0;color-rendering:auto;image-rendering:auto;shape-rendering:auto;text-rendering:auto;enable-background:accumulate;stop-color:#000000;stop-opacity:1;stroke:none;" />
    </g>
  </g>
  <g
     style="font-size:64px;line-height:1;font-family:'MF ShangHei (Noncommercial)';-inkscape-font-specification:'MF ShangHei (Noncommercial)';letter-spacing:1px;word-spacing:1px;fill:#000000;fill-opacity:1"
     id="text838"
     aria-label="1804">
    <g
       style="opacity:1"
       id="g869">
      <path
         id="path871"
         d="M 34.154352,100.30589 V 56.401893 h -11.904 v 5.12 h 6.784 v 38.783997 z"
         style="color:#000000;font-style:normal;font-variant:normal;font-weight:normal;font-stretch:normal;font-size:medium;line-height:1;font-family:'MF ShangHei (Noncommercial)';-inkscape-font-specification:'MF ShangHei (Noncommercial)';font-variant-ligatures:normal;font-variant-position:normal;font-variant-caps:normal;font-variant-numeric:normal;font-variant-alternates:normal;font-variant-east-asian:normal;font-feature-settings:normal;font-variation-settings:normal;text-indent:0;text-align:start;text-decoration:none;text-decoration-line:none;text-decoration-style:solid;text-decoration-color:#000000;letter-spacing:1px;word-spacing:1px;text-transform:none;writing-mode:lr-tb;direction:ltr;text-orientation:mixed;dominant-baseline:auto;baseline-shift:baseline;text-anchor:start;white-space:normal;shape-padding:0;shape-margin:0;inline-size:0;clip-rule:nonzero;display:inline;overflow:visible;visibility:visible;isolation:auto;mix-blend-mode:normal;color-interpolation:sRGB;color-interpolation-filters:linearRGB;solid-color:#000000;solid-opacity:1;vector-effect:none;fill:#000000;fill-opacity:1;fill-rule:nonzero;stroke-width:1;stroke-linecap:butt;stroke-linejoin:miter;stroke-miterlimit:4;stroke-dasharray:none;stroke-dashoffset:0;stroke-opacity:1.0;color-rendering:auto;image-rendering:auto;shape-rendering:auto;text-rendering:auto;enable-background:accumulate;stop-color:#000000;stop-opacity:1;stroke:none;" />
      <path
         id="path873"
         d="M 21.75 55.902344 L 21.75 62.021484 L 28.535156 62.021484 L 28.535156 100.80664 L 34.654297 100.80664 L 34.654297 100.30664 L 34.654297 55.902344 L 21.75 55.902344 z M 22.75 56.902344 L 33.654297 56.902344 L 33.654297 99.806641 L 29.535156 99.806641 L 29.535156 61.021484 L 22.75 61.021484 L 22.75 56.902344 z "
         style="color:#000000;font-style:normal;font-variant:normal;font-weight:normal;font-stretch:normal;font-size:medium;line-height:1;font-family:'MF ShangHei (Noncommercial)';-inkscape-font-specification:'MF ShangHei (Noncommercial)';font-variant-ligatures:normal;font-variant-position:normal;font-variant-caps:normal;font-variant-numeric:normal;font-variant-alternates:normal;font-variant-east-asian:normal;font-feature-settings:normal;font-variation-settings:normal;text-indent:0;text-align:start;text-decoration:none;text-decoration-line:none;text-decoration-style:solid;text-decoration-color:#000000;letter-spacing:1px;word-spacing:1px;text-transform:none;writing-mode:lr-tb;direction:ltr;text-orientation:mixed;dominant-baseline:auto;baseline-shift:baseline;text-anchor:start;white-space:normal;shape-padding:0;shape-margin:0;inline-size:0;clip-rule:nonzero;display:inline;overflow:visible;visibility:visible;isolation:auto;mix-blend-mode:normal;color-interpolation:sRGB;color-interpolation-filters:linearRGB;solid-color:#000000;solid-opacity:1;vector-effect:none;fill-opacity:1;fill-rule:nonzero;stroke-width:1;stroke-linecap:butt;stroke-linejoin:miter;stroke-miterlimit:4;stroke-dasharray:none;stroke-dashoffset:0;stroke-opacity:1.0;color-rendering:auto;image-rendering:auto;shape-rendering:auto;text-rendering:auto;enable-background:accumulate;stop-color:#000000;stop-opacity:1;stroke:none;" />
    </g>
    <g
       style="opacity:1"
       id="g875">
      <path
         id="path877"
         d="m 65.125352,77.073893 4.544,-4.8 v -8.32 l -6.912,-7.552 h -14.72 l -6.912,7.552 v 8.32 l 4.48,4.8 -4.48,4.608 v 11.072 l 6.912,7.551997 h 14.72 l 6.912,-7.551997 v -11.072 z m -4.672,2.56 4.096,4.16 v 6.912 c -1.536,1.728 -2.688,2.88 -4.16,4.48 h -9.984 c -1.536,-1.728 -2.752,-2.944 -4.16,-4.48 v -6.912 l 4.096,-4.16 z m -10.176,-5.12 c -1.6,-1.728 -2.56,-2.624 -4.032,-4.16 v -4.352 c 1.536,-1.728 2.688,-2.88 4.16,-4.48 h 9.984 c 1.536,1.728 2.752,2.944 4.16,4.48 v 4.352 c -1.536,1.664 -2.624,2.688 -4.032,4.16 z"
         style="color:#000000;font-style:normal;font-variant:normal;font-weight:normal;font-stretch:normal;font-size:medium;line-height:1;font-family:'MF ShangHei (Noncommercial)';-inkscape-font-specification:'MF ShangHei (Noncommercial)';font-variant-ligatures:normal;font-variant-position:normal;font-variant-caps:normal;font-variant-numeric:normal;font-variant-alternates:normal;font-variant-east-asian:normal;font-feature-settings:normal;font-variation-settings:normal;text-indent:0;text-align:start;text-decoration:none;text-decoration-line:none;text-decoration-style:solid;text-decoration-color:#000000;letter-spacing:1px;word-spacing:1px;text-transform:none;writing-mode:lr-tb;direction:ltr;text-orientation:mixed;dominant-baseline:auto;baseline-shift:baseline;text-anchor:start;white-space:normal;shape-padding:0;shape-margin:0;inline-size:0;clip-rule:nonzero;display:inline;overflow:visible;visibility:visible;isolation:auto;mix-blend-mode:normal;color-interpolation:sRGB;color-interpolation-filters:linearRGB;solid-color:#000000;solid-opacity:1;vector-effect:none;fill:#000000;fill-opacity:1;fill-rule:nonzero;stroke-width:1;stroke-linecap:butt;stroke-linejoin:miter;stroke-miterlimit:4;stroke-dasharray:none;stroke-dashoffset:0;stroke-opacity:1.0;color-rendering:auto;image-rendering:auto;shape-rendering:auto;text-rendering:auto;enable-background:accumulate;stop-color:#000000;stop-opacity:1;stroke:none;" />
      <path
         id="path879"
         d="M 47.816406 55.902344 L 40.625 63.759766 L 40.625 72.470703 L 44.914062 77.066406 L 40.625 81.478516 L 40.625 92.947266 L 47.816406 100.80664 L 62.976562 100.80664 L 70.169922 92.947266 L 70.169922 81.476562 L 65.820312 77.066406 L 70.169922 72.472656 L 70.169922 63.759766 L 62.976562 55.902344 L 47.816406 55.902344 z M 48.257812 56.902344 L 62.537109 56.902344 L 69.169922 64.148438 L 69.169922 72.074219 L 64.429688 77.080078 L 64.769531 77.425781 L 69.169922 81.886719 L 69.169922 92.560547 L 62.537109 99.806641 L 48.257812 99.806641 L 41.625 92.560547 L 41.625 81.884766 L 46.294922 77.080078 L 41.625 72.076172 L 41.625 64.148438 L 48.257812 56.902344 z M 50.185547 61.021484 L 50.037109 61.183594 C 48.57215 62.775941 47.416257 63.931613 45.871094 65.669922 L 45.746094 65.8125 L 45.746094 70.554688 L 45.884766 70.699219 C 47.364697 72.243495 48.319356 73.135451 49.910156 74.853516 L 50.058594 75.013672 L 50.277344 75.013672 L 60.730469 75.013672 L 60.878906 74.859375 C 62.278036 73.396649 63.369542 72.368706 64.916016 70.693359 L 65.048828 70.548828 L 65.048828 65.806641 L 64.917969 65.664062 C 63.501894 64.119254 62.289999 62.906571 60.763672 61.189453 L 60.613281 61.021484 L 50.185547 61.021484 z M 50.625 62.021484 L 60.171875 62.021484 C 61.588351 63.604729 62.756123 64.793347 64.048828 66.197266 L 64.048828 70.152344 C 62.656724 71.651262 61.601931 72.666978 60.306641 74.013672 L 50.488281 74.013672 C 49.041547 72.460975 48.071938 71.529311 46.746094 70.152344 L 46.746094 66.197266 C 48.150665 64.625119 49.265314 63.493037 50.625 62.021484 z M 50.132812 79.134766 L 45.746094 83.589844 L 45.746094 90.900391 L 45.876953 91.042969 C 47.293028 92.587778 48.504923 93.80046 50.03125 95.517578 L 50.181641 95.685547 L 60.609375 95.685547 L 60.757812 95.525391 C 62.222772 93.933043 63.378664 92.775418 64.923828 91.037109 L 65.048828 90.896484 L 65.048828 83.589844 L 60.662109 79.134766 L 60.453125 79.134766 L 50.132812 79.134766 z M 50.550781 80.134766 L 60.246094 80.134766 L 64.048828 83.998047 L 64.048828 90.509766 C 62.644909 92.081185 61.530673 93.215032 60.171875 94.685547 L 50.623047 94.685547 C 49.206571 93.102302 48.038799 91.913684 46.746094 90.509766 L 46.746094 83.998047 L 50.550781 80.134766 z "
         style="color:#000000;font-style:normal;font-variant:normal;font-weight:normal;font-stretch:normal;font-size:medium;line-height:1;font-family:'MF ShangHei (Noncommercial)';-inkscape-font-specification:'MF ShangHei (Noncommercial)';font-variant-ligatures:normal;font-variant-position:normal;font-variant-caps:normal;font-variant-numeric:normal;font-variant-alternates:normal;font-variant-east-asian:normal;font-feature-settings:normal;font-variation-settings:normal;text-indent:0;text-align:start;text-decoration:none;text-decoration-line:none;text-decoration-style:solid;text-decoration-color:#000000;letter-spacing:1px;word-spacing:1px;text-transform:none;writing-mode:lr-tb;direction:ltr;text-orientation:mixed;dominant-baseline:auto;baseline-shift:baseline;text-anchor:start;white-space:normal;shape-padding:0;shape-margin:0;inline-size:0;clip-rule:nonzero;display:inline;overflow:visible;visibility:visible;isolation:auto;mix-blend-mode:normal;color-interpolation:sRGB;color-interpolation-filters:linearRGB;solid-color:#000000;solid-opacity:1;vector-effect:none;fill-opacity:1;fill-rule:nonzero;stroke-width:1;stroke-linecap:butt;stroke-linejoin:miter;stroke-miterlimit:4;stroke-dasharray:none;stroke-dashoffset:0;stroke-opacity:1.0;color-rendering:auto;image-rendering:auto;shape-rendering:auto;text-rendering:auto;enable-background:accumulate;stop-color:#000000;stop-opacity:1;stroke:none;" />
    </g>
    <g
       style="opacity:1"
       id="g881">
      <path
         id="path883"
         d="m 87.057352,95.185893 c -1.664,-1.6 -2.88,-2.624 -4.416,-4.096 v -25.28 l 4.352,-4.352 h 10.304 c 1.728,1.664 2.879998,2.944 4.415998,4.48 v 25.152 l -4.351998,4.096 z m 12.224,5.119997 7.551998,-7.039997 v -29.568 l -7.423998,-7.36 h -14.464 l -7.424,7.424 v 29.504 l 7.36,7.039997 z"
         style="color:#000000;font-style:normal;font-variant:normal;font-weight:normal;font-stretch:normal;font-size:medium;line-height:1;font-family:'MF ShangHei (Noncommercial)';-inkscape-font-specification:'MF ShangHei (Noncommercial)';font-variant-ligatures:normal;font-variant-position:normal;font-variant-caps:normal;font-variant-numeric:normal;font-variant-alternates:normal;font-variant-east-asian:normal;font-feature-settings:normal;font-variation-settings:normal;text-indent:0;text-align:start;text-decoration:none;text-decoration-line:none;text-decoration-style:solid;text-decoration-color:#000000;letter-spacing:1px;word-spacing:1px;text-transform:none;writing-mode:lr-tb;direction:ltr;text-orientation:mixed;dominant-baseline:auto;baseline-shift:baseline;text-anchor:start;white-space:normal;shape-padding:0;shape-margin:0;inline-size:0;clip-rule:nonzero;display:inline;overflow:visible;visibility:visible;isolation:auto;mix-blend-mode:normal;color-interpolation:sRGB;color-interpolation-filters:linearRGB;solid-color:#000000;solid-opacity:1;vector-effect:none;fill:#000000;fill-opacity:1;fill-rule:nonzero;stroke-width:1;stroke-linecap:butt;stroke-linejoin:miter;stroke-miterlimit:4;stroke-dasharray:none;stroke-dashoffset:0;stroke-opacity:1.0;color-rendering:auto;image-rendering:auto;shape-rendering:auto;text-rendering:auto;enable-background:accumulate;stop-color:#000000;stop-opacity:1;stroke:none;" />
      <path
         id="path885"
         d="M 84.738281 55.837891 L 77.021484 63.554688 L 77.021484 93.480469 L 84.681641 100.80664 L 99.478516 100.80664 L 99.623047 100.67188 L 107.33398 93.482422 L 107.33398 63.490234 L 99.615234 55.837891 L 84.738281 55.837891 z M 85.152344 56.837891 L 99.203125 56.837891 L 106.33398 63.90625 L 106.33398 93.048828 L 99.082031 99.806641 L 85.082031 99.806641 L 78.021484 93.052734 L 78.021484 63.96875 L 85.152344 56.837891 z M 86.787109 60.957031 L 82.140625 65.603516 L 82.140625 91.302734 L 82.294922 91.451172 C 83.842465 92.934234 85.057834 93.957352 86.710938 95.546875 L 86.855469 95.685547 L 87.056641 95.685547 L 97.560547 95.685547 L 102.21289 91.306641 L 102.21289 65.730469 L 102.06641 65.583984 C 100.54023 64.057805 99.384836 62.773505 97.644531 61.097656 L 97.498047 60.957031 L 86.787109 60.957031 z M 87.201172 61.957031 L 97.087891 61.957031 C 98.661315 63.481803 99.790083 64.712165 101.21289 66.142578 L 101.21289 90.873047 L 97.162109 94.685547 L 87.251953 94.685547 C 85.721547 93.222992 84.540408 92.203704 83.140625 90.871094 L 83.140625 66.017578 L 87.201172 61.957031 z "
         style="color:#000000;font-style:normal;font-variant:normal;font-weight:normal;font-stretch:normal;font-size:medium;line-height:1;font-family:'MF ShangHei (Noncommercial)';-inkscape-font-specification:'MF ShangHei (Noncommercial)';font-variant-ligatures:normal;font-variant-position:normal;font-variant-caps:normal;font-variant-numeric:normal;font-variant-alternates:normal;font-variant-east-asian:normal;font-feature-settings:normal;font-variation-settings:normal;text-indent:0;text-align:start;text-decoration:none;text-decoration-line:none;text-decoration-style:solid;text-decoration-color:#000000;letter-spacing:1px;word-spacing:1px;text-transform:none;writing-mode:lr-tb;direction:ltr;text-orientation:mixed;dominant-baseline:auto;baseline-shift:baseline;text-anchor:start;white-space:normal;shape-padding:0;shape-margin:0;inline-size:0;clip-rule:nonzero;display:inline;overflow:visible;visibility:visible;isolation:auto;mix-blend-mode:normal;color-interpolation:sRGB;color-interpolation-filters:linearRGB;solid-color:#000000;solid-opacity:1;vector-effect:none;fill-opacity:1;fill-rule:nonzero;stroke-width:1;stroke-linecap:butt;stroke-linejoin:miter;stroke-miterlimit:4;stroke-dasharray:none;stroke-dashoffset:0;stroke-opacity:1.0;color-rendering:auto;image-rendering:auto;shape-rendering:auto;text-rendering:auto;enable-background:accumulate;stop-color:#000000;stop-opacity:1;stroke:none;" />
    </g>
    <g
       style="opacity:1"
       id="g887">
      <path
         id="path889"
         d="M 138.62235,100.30589 V 88.977893 h 6.528 v -5.12 h -6.528 v -27.52 h -9.024 l -16.064,24.128 v 8.512 h 19.968 v 11.327997 z m -5.12,-16.447997 h -14.848 v -1.984 c 4.672,-7.552 9.088,-12.928 13.76,-20.416 h 1.088 z"
         style="color:#000000;font-style:normal;font-variant:normal;font-weight:normal;font-stretch:normal;font-size:medium;line-height:1;font-family:'MF ShangHei (Noncommercial)';-inkscape-font-specification:'MF ShangHei (Noncommercial)';font-variant-ligatures:normal;font-variant-position:normal;font-variant-caps:normal;font-variant-numeric:normal;font-variant-alternates:normal;font-variant-east-asian:normal;font-feature-settings:normal;font-variation-settings:normal;text-indent:0;text-align:start;text-decoration:none;text-decoration-line:none;text-decoration-style:solid;text-decoration-color:#000000;letter-spacing:1px;word-spacing:1px;text-transform:none;writing-mode:lr-tb;direction:ltr;text-orientation:mixed;dominant-baseline:auto;baseline-shift:baseline;text-anchor:start;white-space:normal;shape-padding:0;shape-margin:0;inline-size:0;clip-rule:nonzero;display:inline;overflow:visible;visibility:visible;isolation:auto;mix-blend-mode:normal;color-interpolation:sRGB;color-interpolation-filters:linearRGB;solid-color:#000000;solid-opacity:1;vector-effect:none;fill:#000000;fill-opacity:1;fill-rule:nonzero;stroke-width:1;stroke-linecap:butt;stroke-linejoin:miter;stroke-miterlimit:4;stroke-dasharray:none;stroke-dashoffset:0;stroke-opacity:1.0;color-rendering:auto;image-rendering:auto;shape-rendering:auto;text-rendering:auto;enable-background:accumulate;stop-color:#000000;stop-opacity:1;stroke:none;" />
      <path
         id="path891"
         d="M 129.33008 55.837891 L 113.03516 80.314453 L 113.03516 89.478516 L 133.00195 89.478516 L 133.00195 100.80664 L 139.12305 100.80664 L 139.12305 100.30664 L 139.12305 89.478516 L 145.65039 89.478516 L 145.65039 83.357422 L 139.12305 83.357422 L 139.12305 55.837891 L 129.33008 55.837891 z M 129.86523 56.837891 L 138.12305 56.837891 L 138.12305 84.357422 L 144.65039 84.357422 L 144.65039 88.478516 L 138.12305 88.478516 L 138.12305 99.806641 L 134.00195 99.806641 L 134.00195 88.478516 L 114.03516 88.478516 L 114.03516 80.617188 L 129.86523 56.837891 z M 132.13672 60.957031 L 131.99023 61.193359 C 127.33624 68.652496 122.91882 74.029734 118.22852 81.611328 L 118.1543 81.732422 L 118.1543 84.357422 L 134.00195 84.357422 L 134.00195 83.857422 L 134.00195 60.957031 L 132.13672 60.957031 z M 132.67969 61.957031 L 133.00195 61.957031 L 133.00195 83.357422 L 119.1543 83.357422 L 119.1543 82.025391 C 123.72672 74.653089 128.07516 69.298926 132.67969 61.957031 z "
         style="color:#000000;font-style:normal;font-variant:normal;font-weight:normal;font-stretch:normal;font-size:medium;line-height:1;font-family:'MF ShangHei (Noncommercial)';-inkscape-font-specification:'MF ShangHei (Noncommercial)';font-variant-ligatures:normal;font-variant-position:normal;font-variant-caps:normal;font-variant-numeric:normal;font-variant-alternates:normal;font-variant-east-asian:normal;font-feature-settings:normal;font-variation-settings:normal;text-indent:0;text-align:start;text-decoration:none;text-decoration-line:none;text-decoration-style:solid;text-decoration-color:#000000;letter-spacing:1px;word-spacing:1px;text-transform:none;writing-mode:lr-tb;direction:ltr;text-orientation:mixed;dominant-baseline:auto;baseline-shift:baseline;text-anchor:start;white-space:normal;shape-padding:0;shape-margin:0;inline-size:0;clip-rule:nonzero;display:inline;overflow:visible;visibility:visible;isolation:auto;mix-blend-mode:normal;color-interpolation:sRGB;color-interpolation-filters:linearRGB;solid-color:#000000;solid-opacity:1;vector-effect:none;fill-opacity:1;fill-rule:nonzero;stroke-width:1;stroke-linecap:butt;stroke-linejoin:miter;stroke-miterlimit:4;stroke-dasharray:none;stroke-dashoffset:0;stroke-opacity:1.0;color-rendering:auto;image-rendering:auto;shape-rendering:auto;text-rendering:auto;enable-background:accumulate;stop-color:#000000;stop-opacity:1;stroke:none;" />
    </g>
  </g>
  <g
     style="font-size:153.352px;line-height:1;font-family:'MF ShangHei (Noncommercial)';-inkscape-font-specification:'MF ShangHei (Noncommercial)';letter-spacing:2.39613px;word-spacing:2.39613px;fill:#000000;fill-opacity:1;stroke-width:2.39613"
     id="text842"
     transform="scale(0.98307585,1.0172155)"
     aria-label="木鼠">
    <g
       style="opacity:1"
       id="g857">
      <path
         id="path859"
         d="m 110.11467,290.90899 v -82.50338 l 51.98633,75.44918 9.20112,-6.28743 -56.12683,-81.42991 H 173.6024 V 185.0961 H 110.11467 V 153.04553 H 99.07333 V 185.0961 H 35.738952 v 11.04135 h 58.273762 l -55.973482,81.42991 9.201121,6.28743 51.832977,-75.29583 v 82.35003 z"
         style="color:#000000;font-style:normal;font-variant:normal;font-weight:normal;font-stretch:normal;font-size:medium;line-height:1;font-family:'MF ShangHei (Noncommercial)';-inkscape-font-specification:'MF ShangHei (Noncommercial)';font-variant-ligatures:normal;font-variant-position:normal;font-variant-caps:normal;font-variant-numeric:normal;font-variant-alternates:normal;font-variant-east-asian:normal;font-feature-settings:normal;font-variation-settings:normal;text-indent:0;text-align:start;text-decoration:none;text-decoration-line:none;text-decoration-style:solid;text-decoration-color:#000000;letter-spacing:2.39613px;word-spacing:2.39613px;text-transform:none;writing-mode:lr-tb;direction:ltr;text-orientation:mixed;dominant-baseline:auto;baseline-shift:baseline;text-anchor:start;white-space:normal;shape-padding:0;shape-margin:0;inline-size:0;clip-rule:nonzero;display:inline;overflow:visible;visibility:visible;isolation:auto;mix-blend-mode:normal;color-interpolation:sRGB;color-interpolation-filters:linearRGB;solid-color:#000000;solid-opacity:1;vector-effect:none;fill:#000000;fill-opacity:1;fill-rule:nonzero;stroke-width:2.39613;stroke-linecap:butt;stroke-linejoin:miter;stroke-miterlimit:4;stroke-dasharray:none;stroke-dashoffset:0;stroke-opacity:1.0;color-rendering:auto;image-rendering:auto;shape-rendering:auto;text-rendering:auto;enable-background:accumulate;stop-color:#000000;stop-opacity:1;stroke:none;" />
      <path
         id="path861"
         d="M 97.875 151.84766 L 97.875 183.89844 L 34.541016 183.89844 L 34.541016 197.33594 L 91.734375 197.33594 L 36.371094 277.87891 L 47.550781 285.51758 L 97.875 212.41406 L 97.875 292.10742 L 111.3125 292.10742 L 111.3125 290.9082 L 111.3125 212.25586 L 161.79102 285.51758 L 172.9707 277.87695 L 117.45703 197.33594 L 174.80078 197.33594 L 174.80078 183.89844 L 111.3125 183.89844 L 111.3125 151.84766 L 97.875 151.84766 z M 100.27148 154.24414 L 108.91602 154.24414 L 108.91602 186.29492 L 172.4043 186.29492 L 172.4043 194.93945 L 112.89453 194.93945 L 169.63281 277.25781 L 162.41016 282.19141 L 108.91602 204.55469 L 108.91602 289.71094 L 100.27148 289.71094 L 100.27148 204.70508 L 46.929688 282.19141 L 39.707031 277.25586 L 96.291016 194.93945 L 36.9375 194.93945 L 36.9375 186.29492 L 100.27148 186.29492 L 100.27148 154.24414 z "
         style="color:#000000;font-style:normal;font-variant:normal;font-weight:normal;font-stretch:normal;font-size:medium;line-height:1;font-family:'MF ShangHei (Noncommercial)';-inkscape-font-specification:'MF ShangHei (Noncommercial)';font-variant-ligatures:normal;font-variant-position:normal;font-variant-caps:normal;font-variant-numeric:normal;font-variant-alternates:normal;font-variant-east-asian:normal;font-feature-settings:normal;font-variation-settings:normal;text-indent:0;text-align:start;text-decoration:none;text-decoration-line:none;text-decoration-style:solid;text-decoration-color:#000000;letter-spacing:2.39613px;word-spacing:2.39613px;text-transform:none;writing-mode:lr-tb;direction:ltr;text-orientation:mixed;dominant-baseline:auto;baseline-shift:baseline;text-anchor:start;white-space:normal;shape-padding:0;shape-margin:0;inline-size:0;clip-rule:nonzero;display:inline;overflow:visible;visibility:visible;isolation:auto;mix-blend-mode:normal;color-interpolation:sRGB;color-interpolation-filters:linearRGB;solid-color:#000000;solid-opacity:1;vector-effect:none;fill-opacity:1;fill-rule:nonzero;stroke-width:2.39613;stroke-linecap:butt;stroke-linejoin:miter;stroke-miterlimit:4;stroke-dasharray:none;stroke-dashoffset:0;stroke-opacity:1.0;color-rendering:auto;image-rendering:auto;shape-rendering:auto;text-rendering:auto;enable-background:accumulate;stop-color:#000000;stop-opacity:1;stroke:none;" />
    </g>
    <g
       style="opacity:1"
       id="g863">
      <path
         id="path865"
         d="M 325.21004,276.64725 H 310.6416 V 215.7665 h -11.04135 v 71.92209 h 25.60979 z m -41.09834,0 H 259.72873 V 215.7665 h -11.04134 v 71.92209 h 35.42431 z m -46.92571,-16.86872 -12.72822,-12.72822 -7.6676,7.6676 12.57487,12.72822 z m 0,-26.68325 -12.72822,-12.72822 -7.6676,7.82096 12.57487,12.57486 z m 51.52627,28.67683 -12.72821,-12.72822 -7.82096,7.82095 12.72822,12.72822 z m 0,-27.91007 -12.72821,-12.57486 -7.82096,7.6676 12.72822,12.72821 z m -13.34162,-37.87794 12.72821,-12.72822 -7.6676,-7.6676 -12.72821,12.57486 z m -31.89722,-7.82096 -12.72822,-12.57486 -7.6676,7.6676 12.72822,12.72822 z m -12.26816,88.48411 H 206.82229 V 215.7665 h -11.04134 v 71.92209 h 35.42431 z m 31.13046,-105.04612 h 41.86509 v 27.75671 h -97.37852 v -27.75671 h 22.54275 l 14.41508,-4.90727 -3.52709,-10.42793 c -3.98715,1.22681 -8.89442,3.06704 -12.72822,4.29385 h -31.74386 v 49.8394 h 119.46121 v -49.8394 h -52.90644 z"
         style="color:#000000;font-style:normal;font-variant:normal;font-weight:normal;font-stretch:normal;font-size:medium;line-height:1;font-family:'MF ShangHei (Noncommercial)';-inkscape-font-specification:'MF ShangHei (Noncommercial)';font-variant-ligatures:normal;font-variant-position:normal;font-variant-caps:normal;font-variant-numeric:normal;font-variant-alternates:normal;font-variant-east-asian:normal;font-feature-settings:normal;font-variation-settings:normal;text-indent:0;text-align:start;text-decoration:none;text-decoration-line:none;text-decoration-style:solid;text-decoration-color:#000000;letter-spacing:2.39613px;word-spacing:2.39613px;text-transform:none;writing-mode:lr-tb;direction:ltr;text-orientation:mixed;dominant-baseline:auto;baseline-shift:baseline;text-anchor:start;white-space:normal;shape-padding:0;shape-margin:0;inline-size:0;clip-rule:nonzero;display:inline;overflow:visible;visibility:visible;isolation:auto;mix-blend-mode:normal;color-interpolation:sRGB;color-interpolation-filters:linearRGB;solid-color:#000000;solid-opacity:1;vector-effect:none;fill:#000000;fill-opacity:1;fill-rule:nonzero;stroke-width:2.39613;stroke-linecap:butt;stroke-linejoin:miter;stroke-miterlimit:4;stroke-dasharray:none;stroke-dashoffset:0;stroke-opacity:1.0;color-rendering:auto;image-rendering:auto;shape-rendering:auto;text-rendering:auto;enable-background:accumulate;stop-color:#000000;stop-opacity:1;stroke:none;" />
      <path
         id="path867"
         d="M 241.01367 154.77734 L 239.90039 155.12109 C 235.9088 156.34927 231.09239 158.14983 227.32812 159.36133 L 194.58203 159.36133 L 194.58203 211.59766 L 316.43945 211.59766 L 316.43945 159.36133 L 261.13672 159.36133 L 261.13672 172.79883 L 262.33594 172.79883 L 303.00195 172.79883 L 303.00195 198.16016 L 208.01953 198.16016 L 208.01953 172.79883 L 229.5625 172.79883 L 245.29883 167.44336 L 241.01367 154.77734 z M 239.5 157.7832 L 242.26172 165.94531 L 229.16602 170.40234 L 205.625 170.40234 L 205.625 200.55664 L 305.39844 200.55664 L 305.39844 170.40234 L 263.5332 170.40234 L 263.5332 161.75781 L 314.04492 161.75781 L 314.04492 209.20117 L 196.97852 209.20117 L 196.97852 161.75781 L 227.71094 161.75781 L 227.89062 161.70117 C 231.43546 160.56683 235.77134 158.97859 239.5 157.7832 z M 230.74023 173.89844 L 221.38281 183.25586 L 235.81445 197.6875 L 245.16406 188.15039 L 244.31641 187.31055 L 230.74023 173.89844 z M 280.43555 173.89844 L 266.01172 188.15039 L 275.36133 197.6875 L 276.21875 196.83203 L 289.79297 183.25586 L 280.43555 173.89844 z M 230.75 177.27734 L 241.78125 188.17578 L 235.79688 194.28125 L 224.77148 183.25586 L 230.75 177.27734 z M 280.42578 177.27734 L 286.4043 183.25586 L 275.37891 194.28125 L 269.39453 188.17578 L 280.42578 177.27734 z M 194.58203 214.56836 L 194.58203 288.88672 L 232.4043 288.88672 L 232.4043 275.44922 L 231.20508 275.44922 L 208.01953 275.44922 L 208.01953 214.56836 L 194.58203 214.56836 z M 247.49023 214.56836 L 247.49023 288.88672 L 285.31055 288.88672 L 285.31055 275.44922 L 284.11133 275.44922 L 260.92773 275.44922 L 260.92773 214.56836 L 247.49023 214.56836 z M 298.40234 214.56836 L 298.40234 288.88672 L 326.4082 288.88672 L 326.4082 275.44922 L 325.21094 275.44922 L 311.83984 275.44922 L 311.83984 214.56836 L 298.40234 214.56836 z M 196.97852 216.96484 L 205.625 216.96484 L 205.625 277.8457 L 230.00781 277.8457 L 230.00781 286.49023 L 196.97852 286.49023 L 196.97852 216.96484 z M 249.88477 216.96484 L 258.53125 216.96484 L 258.53125 277.8457 L 282.91406 277.8457 L 282.91406 286.49023 L 249.88477 286.49023 L 249.88477 216.96484 z M 300.79883 216.96484 L 309.44336 216.96484 L 309.44336 277.8457 L 324.01172 277.8457 L 324.01172 286.49023 L 300.79883 286.49023 L 300.79883 216.96484 z M 224.44922 218.66406 L 215.10352 228.19727 L 229.35742 242.44922 L 238.88867 233.10352 L 238.0332 232.24805 L 224.44922 218.66406 z M 275.98633 219.60547 L 266.46094 228.94727 L 280.89062 243.37695 L 290.41211 233.85742 L 289.55469 233.00977 L 275.98633 219.60547 z M 224.46484 222.06836 L 235.48242 233.08789 L 229.37305 239.07617 L 218.47656 228.17969 L 224.46484 222.06836 z M 275.98047 222.96875 L 287.01367 233.86719 L 280.89062 239.98828 L 269.86523 228.96289 L 275.98047 222.96875 z M 224.45703 245.35547 L 215.10156 254.71289 L 229.35156 269.13672 L 238.88867 259.78711 L 238.0332 258.93164 L 224.45703 245.35547 z M 275.98438 247.34961 L 266.46875 256.86523 L 280.89062 271.28711 L 290.40625 261.77148 L 289.55859 260.92578 L 275.98438 247.34961 z M 224.45703 248.74414 L 235.48438 259.77148 L 229.37891 265.75586 L 218.47852 254.72266 L 224.45703 248.74414 z M 275.98438 250.73828 L 287.01953 261.77344 L 280.89062 267.89844 L 269.85742 256.86523 L 275.98438 250.73828 z "
         style="color:#000000;font-style:normal;font-variant:normal;font-weight:normal;font-stretch:normal;font-size:medium;line-height:1;font-family:'MF ShangHei (Noncommercial)';-inkscape-font-specification:'MF ShangHei (Noncommercial)';font-variant-ligatures:normal;font-variant-position:normal;font-variant-caps:normal;font-variant-numeric:normal;font-variant-alternates:normal;font-variant-east-asian:normal;font-feature-settings:normal;font-variation-settings:normal;text-indent:0;text-align:start;text-decoration:none;text-decoration-line:none;text-decoration-style:solid;text-decoration-color:#000000;letter-spacing:2.39613px;word-spacing:2.39613px;text-transform:none;writing-mode:lr-tb;direction:ltr;text-orientation:mixed;dominant-baseline:auto;baseline-shift:baseline;text-anchor:start;white-space:normal;shape-padding:0;shape-margin:0;inline-size:0;clip-rule:nonzero;display:inline;overflow:visible;visibility:visible;isolation:auto;mix-blend-mode:normal;color-interpolation:sRGB;color-interpolation-filters:linearRGB;solid-color:#000000;solid-opacity:1;vector-effect:none;fill-opacity:1;fill-rule:nonzero;stroke-width:2.39613;stroke-linecap:butt;stroke-linejoin:miter;stroke-miterlimit:4;stroke-dasharray:none;stroke-dashoffset:0;stroke-opacity:1.0;color-rendering:auto;image-rendering:auto;shape-rendering:auto;text-rendering:auto;enable-background:accumulate;stop-color:#000000;stop-opacity:1;stroke:none;" />
    </g>
  </g>
</svg>
