<svg xmlns="http://www.w3.org/2000/svg" viewBox="0 0 348 348" fill="none" stroke-width="2">
  <rect width="55.746" height="55.746" x="85.919" y="89.146" transform="rotate(-3.859)" fill="#fff" stroke="#000"/>
  <rect y="70.009" x="204.055" height="69.346" width="69.346" fill="#fff" stroke="#000"/>
  <rect width="61.453" height="61.453" x="31.058" y="91.822" transform="rotate(.497)" fill="#fff" stroke="#000"/>
  <path d="M5.079 5.776h336.913v337.67H5.08z" stroke="#000"/>
  <circle cx="277.75" cy="190.072" r="27.96" fill="#fff" stroke="#000"/>
  <rect transform="rotate(-90)" width="12.779" height="68.926" x="-111.071" y="204.265" fill="#fff" stroke="#000"/>
  <path d="M282.734 40.554c0-8.376 6.966-15.165 15.56-15.165 4.126 0 8.084 1.597 11.001 4.441 2.918 2.844 4.558 6.702 4.558 10.724 0 8.376-6.966 15.165-15.56 15.165-8.593 0-15.559-6.79-15.559-15.165z" stroke="#000"/>
  <rect width="103.226" height="38.58" x="21.375" y="296.387" fill="#000023" fill-rule="evenodd"/>
  <circle cx="189.409" cy="246.377" r="27.96" fill="#fff" stroke="#000"/>
  <circle cx="275.933" cy="274.31" r="43.237" fill="#fff" stroke="#000"/>
  <rect width="51.162" height="51.162" x="128.718" y="51.96" transform="rotate(-5.4)" fill="#fff" stroke="#000"/>
  <g stroke-width="2.03" fill="#fff" stroke="#000">
    <path d="m273.103 185.425 19.533-19.534a28.42 28.42 0 0 1 9.295 9.295l-39.066 39.067a28.42 28.42 0 0 1-9.296-9.295z" transform="matrix(.9852 0 0 .9852 4.112 2.814)"/>
    <path d="m282.398 185.425 19.533 19.533a28.42 28.42 0 0 1-9.295 9.295l-39.067-39.067a28.42 28.42 0 0 1 9.296-9.295z" transform="matrix(.9852 0 0 .9852 4.112 2.814)"/>
    <path d="M277.75 183.5h27.625a28.42 28.42 0 0 1 0 13.145h-55.249a28.42 28.42 0 0 1 0-13.145z" transform="matrix(.9852 0 0 .9852 4.112 2.814)"/>
    <path d="M284.323 190.072v27.625a28.42 28.42 0 0 1-13.145 0v-55.25a28.42 28.42 0 0 1 13.145 0z" transform="matrix(.9852 0 0 .9852 4.112 2.814)"/>
  </g>
  <path d="M292.615 196.975c-1.484 3.196 1.013 9.569-1.87 11.594-2.882 2.025-8.031-2.485-11.54-2.172-3.51.312-7.78 5.662-10.976 4.178-3.195-1.484-1.863-8.198-3.889-11.081-2.025-2.883-8.793-3.907-9.106-7.416-.312-3.509 6.168-5.713 7.652-8.908 1.484-3.196-1.014-9.569 1.87-11.594 2.882-2.026 8.031 2.485 11.54 2.172 3.51-.312 7.78-5.662 10.975-4.178 3.196 1.484 1.864 8.198 3.89 11.08 2.025 2.884 8.793 3.907 9.106 7.417.312 3.509-6.168 5.713-7.652 8.908z" fill="#fff" stroke="#000" stroke-width="2.00004218"/>
  <g fill="#fff" stroke="#000">
    <path d="M226.741 79.175a27.904 27.904 0 0 1 12.49-3.257l.767 2.94v.001l6.513 24.978-6.85 24.889-.805 2.93a27.904 27.904 0 0 1-12.445-3.425l6.738-24.484z"/>
    <path d="M261.715 69.08a39.656 39.656 0 0 0-17.687-4.868l-1.145 4.164v.001l-9.734 35.37 9.256 35.5 1.09 4.178a39.656 39.656 0 0 0 17.75-4.629l-9.106-34.921z"/>
  </g>
  <rect transform="rotate(-29.503)" y="89.029" x="32.167" height="51.231" width="51.231" fill="#fff" stroke="#000"/>
  <g fill="#fff" stroke="#000">
    <path d="m87.948 61.823-2.208 7.962 21.009 1.538zm18.8 9.5 9.5-18.8-7.961-2.208zm0 0 18.801 9.5 2.208-7.962zm0 0-9.5 18.8 7.962 2.209z"/>
    <rect transform="rotate(-29.503)" y="90.042" x="52.86" height="49.205" width="9.846"/>
  </g>
  <rect transform="rotate(-23.926)" y="118.7" x="41.492" height="51.162" width="51.162" fill="#fff" stroke="#000"/>
  <rect width="51.231" height="51.231" x="128.888" y="-12.457" transform="rotate(37.108)" fill="#fff" stroke="#000"/>
  <rect transform="rotate(37.108)" y=".16" x="141.504" height="25.997" width="25.997" fill="#fff" stroke="#000"/>
  <g fill="#fff" stroke="#000">
    <path d="m44.51 110.323-4.194 4.191 12.402 8.566zm8.208 12.757 12.547-8.346-4.122-4.264zm0 0 8.209 12.756 4.194-4.191zm0 0-12.546 8.345 4.122 4.264z"/>
    <rect y="91.954" x="49.36" height="60.869" width="8.147" transform="matrix(.99992 .01298 -.0058 .99998 0 0)"/>
  </g>
  <rect transform="rotate(-5.392)" y="153.586" x="53.259" height="50.796" width="50.796" fill="#fff" stroke="#000"/>
  <rect width="36.323" height="36.323" x="32.252" y="132.135" transform="rotate(-9.961)" fill="#fff" stroke="#000"/>
  <g fill="#fff">
    <path d="m47.791 316.08.805.803v11.26q-.403 1.61-2.011 2.011l-1.207-3.217v-8.445zm-2.413-3.218v-8.445l1.207-3.217q1.608.402 2.01 2.01v11.26l-.804.805z"/>
    <path d="m66.309 314.068 1.609 1.609-1.609 1.609H55.853l-1.609-1.609 1.61-1.609zm1.609 16.086H54.647q-1.609-.402-2.011-2.01l3.217-1.207h10.858zm-15.282-2.815v-10.456l.804-.804 2.413 2.413v7.64zm12.869-22.922h-9.612l-3.217-1.207q.402-1.608 2.01-2.01h12.025zm.804 8.445v-8.445l1.206-3.217q1.609.402 2.011 2.01v11.26l-.804.805z"/>
    <path d="M76.762 323.72h-3.217v-3.217h3.217zm0-12.869h-3.217v-3.217h3.217z"/>
    <path d="m96.888 316.08.804.803v11.26q-.402 1.61-2.01 2.011l-1.207-3.217v-8.445zm-2.01 14.074H82.812q-1.609-.402-2.01-2.01l3.216-1.207h9.652zm-14.076-2.815v-10.456l.804-.804 2.413 2.413v7.64zm12.869-22.922h-9.612l-3.217-1.207q.402-1.608 2.011-2.01h12.024zm-9.652.804v7.64l-2.413 2.414-.804-.804v-10.456zm10.456 7.64v-8.444l1.207-3.217q1.608.402 2.01 2.01v11.26l-.804.805z"/>
    <path d="m117.797 316.08.804.803v11.26q-.402 1.61-2.01 2.011l-1.207-3.217v-8.445zm-2.011 14.074H103.72q-1.608-.402-2.01-2.01l3.217-1.207h9.651zm-14.075-2.815v-10.456l.804-.804 2.413 2.413v7.64zm12.868-22.922h-9.61l-3.218-1.207q.402-1.608 2.01-2.01h12.025zm-9.651.804v7.64l-2.413 2.414-.804-.804v-10.456zm10.456 7.64v-8.444l1.206-3.217q1.609.402 2.011 2.01v11.26l-.804.805z"/>
  </g>
  <g fill="#fff" stroke="#000">
    <rect width="56.927" height="56.927" x="78.964" y="218.536" fill="#fff" stroke="#000"/>
    <path d="m65.038 128.185-3.463 4.938 14.076 6.188zm10.613 11.126 11.126-10.614-4.938-3.462zm0 0 10.614 11.125 3.463-4.938zm0 0-11.125 10.614 4.938 3.462z"/>
    <rect y="132.338" x="46.82" height="35.917" width="7.187" transform="rotate(-9.961)"/>
    <path d="m81.674 154.233-5.337 6.45L95.129 170.8zM95.129 170.8l16.567-13.455-6.45-5.337zm0 0 13.455 16.567 5.337-6.45zm0 0-16.567 13.455 6.45 5.337z"/>
    <rect transform="rotate(-5.392)" y="154.056" x="73.669" height="49.855" width="9.976"/>
    <path d="m104.217 103.047.596 4.305 10.465-3.644zm11.061.66.66-11.061-4.305.597zm0 0 11.062.661-.597-4.305zm0 0-.66 11.062 4.305-.597z"/>
    <rect transform="rotate(-52.892)" y="141.56" x="-15.748" height="25.885" width="5.179"/>
    <path d="m147.293 45.91-5.4 6.528 19.019 10.236zm13.619 16.765 16.763-13.62-6.527-5.4Zm0 0 13.619 16.763 5.4-6.527zm0 0-16.764 13.619 6.527 5.4z"/>
    <rect transform="rotate(-5.4)" y="52.315" x="149.251" height="50.453" width="10.095"/>
    <path d="m268.862 267.239 29.72-29.72a43.24 43.24 0 0 1 14.142 14.142l-59.44 59.44a43.24 43.24 0 0 1-14.142-14.143z"/>
    <path d="m283.004 267.239 29.72 29.72A43.24 43.24 0 0 1 298.58 311.1l-59.439-59.439a43.24 43.24 0 0 1 14.142-14.142z"/>
    <path d="M275.933 264.31h42.03a43.24 43.24 0 0 1 0 20h-84.06a43.24 43.24 0 0 1 0-20z"/>
    <path d="M285.933 274.31v42.03a43.24 43.24 0 0 1-20 0v-84.06a43.24 43.24 0 0 1 20 0z"/>
    <path d="M89.052 255.315a18.695 18.695 0 0 1-.59-8.628l2.03-.14.001.001 17.254-1.18 15.533 7.604 1.829.895a18.695 18.695 0 0 1-3.803 7.767l-15.28-7.481z"/>
    <path d="M86.757 231.034a26.569 26.569 0 0 0-5.405 11.039l2.599 1.272 22.075 10.808 24.522-1.678 2.886-.198a26.569 26.569 0 0 0-.839-12.261l-24.123 1.65z"/>
    <rect y="-275.482" x="-112.708" height="56.965" width="10.562" transform="scale(-1)" fill="#fff" stroke="#000"/>
  </g>


  <path d="M291.579 293.725c-4.174 3.364-5.05 13.742-10.347 14.568-5.296.826-9.29-8.793-14.29-10.725-5-1.933-14.426 2.496-17.79-1.677-3.363-4.174 2.97-12.443 2.143-17.74-.826-5.295-9.375-11.243-7.442-16.243 1.933-5 12.26-3.65 16.434-7.014 4.173-3.363 5.05-13.741 10.346-14.567 5.297-.826 9.292 8.792 14.291 10.725 5 1.933 14.426-2.497 17.79 1.677 3.363 4.174-2.97 12.442-2.144 17.739.826 5.296 9.376 11.244 7.443 16.244-1.933 5-12.26 3.65-16.434 7.013z" fill="#fff" stroke="#000"/>
  <path d="m150.156 149.323.186-75.904 25.626 67.734 39.84-60.522-16.413 67.476 57.75-52.278-26.747 58.965 66.26-20.668-58.966 46.807 52.279 26.747-43.662 13.233 15.699 70.048-50.22-41.878-44.61 49.172 8.51-65.044-54.71 69.3 21.276-66.26-61.397 24.923 47.415-51.67-44.376-11.55 38.905-4.255-18.308-32.071 26.21 18.09-6.23-61.859z" fill="#13431b"/>
  <path d="m184.07 156.884 6.659 19.154 20.274.414-16.16 12.251 5.873 19.41-16.646-11.583-16.645 11.583 5.872-19.41-16.16-12.251 20.275-.414z" fill="#ff0" fill-rule="evenodd"/>
</svg>