<svg width="348" height="348" viewBox="0 0 92.075 92.075" xml:space="preserve" xmlns="http://www.w3.org/2000/svg"><defs><linearGradient id="a"><stop offset="0" style="stop-color:#c000ff;stop-opacity:1"/><stop offset="1" style="stop-color:#6a0080;stop-opacity:1"/></linearGradient></defs><g style="display:inline;fill:none;stroke-linecap:square;stroke-miterlimit:10"><g clip-path="url(#b)" style="display:inline;fill:#520;fill-opacity:1" transform="scale(.26458)"><path d="M0 0h348v348H0Z" style="fill:#520;fill-opacity:1"/><path fill="#fff" d="M0 0h342v347.97H0Z" style="fill:#520;fill-opacity:1;stroke-width:.991342"/><path d="M5.08 5.78h336.91v337.67H5.08Z" style="fill:#520;fill-opacity:1"/><path stroke="#000" stroke-linecap="butt" stroke-linejoin="round" stroke-width="2" d="M5.08 5.78h336.91v337.67H5.08Z" style="fill:#520;fill-opacity:1"/><path fill="#fff" d="M282.73 40.55c0-8.37 6.97-15.16 15.56-15.16 4.13 0 8.09 1.6 11 4.44a14.97 14.97 0 0 1 4.56 10.72c0 8.38-6.96 15.17-15.56 15.17-8.59 0-15.56-6.8-15.56-15.17z" style="fill:#520;fill-opacity:1"/><path stroke="#000" stroke-linecap="butt" stroke-linejoin="round" stroke-width="2" d="M282.73 40.55c0-8.37 6.97-15.16 15.56-15.16 4.13 0 8.09 1.6 11 4.44a14.97 14.97 0 0 1 4.56 10.72c0 8.38-6.96 15.17-15.56 15.17-8.59 0-15.56-6.8-15.56-15.17z" style="fill:#520;fill-opacity:1"/><path d="M38.37 95.74h107.21v100.19H38.37ZM152.48 95.74h107.21v100.19H152.48ZM38.37 206.52h107.21v100.19H38.37ZM152.48 206.52h107.21v100.19H152.48Z" style="fill:#520;fill-opacity:1"/><path fill="#000" d="M82.1 102.05h19.75v5.64H82.1ZM196.21 102.05h19.75v5.64h-19.75zM82.1 213.53h19.75v5.63H82.1ZM196.21 213.53h19.75v5.63h-19.75z" style="fill:#520;fill-opacity:1"/></g></g><g style="fill:#fff;stroke:#000;stroke-width:7.66304;stroke-dasharray:none"><path d="M303.978 104.256V72.904h20.247a8.668 8.668 0 0 0 8.668-8.668V8.668A8.668 8.668 0 0 0 324.225 0h-136.34a8.668 8.668 0 0 0-8.668 8.668v55.568a8.668 8.668 0 0 0 8.668 8.668h19.399v31.533a205.17 205.17 0 0 0-43.202 15.786l-40.937-49.075a8.666 8.666 0 0 0-12.208-1.104l-42.896 35.782a8.671 8.671 0 0 0-1.103 12.208l38.358 45.983c-34.698 36.987-55.985 86.697-55.985 141.292 0 113.97 92.72 206.691 206.688 206.691 113.968 0 206.688-92.721 206.688-206.688.001-97.456-67.801-179.363-158.709-201.056ZM196.553 55.568V17.336h119.002v38.231H196.553Zm90.089 17.337v27.992a207.44 207.44 0 0 0-30.643-2.275 207.36 207.36 0 0 0-31.378 2.379V72.905Zm-200.84 40.682 29.584-24.678 33.244 39.85a207.916 207.916 0 0 0-30.919 23.078zm170.197 381.077c-104.409 0-189.352-84.943-189.352-189.352S151.59 115.96 255.999 115.96s189.352 84.943 189.352 189.352-84.943 189.352-189.352 189.352z" style="fill:#fff;stroke:#000;stroke-width:7.66304;stroke-dasharray:none" transform="rotate(-12.56 37.662 14.612) scale(.06553)"/><path d="M255.999 140.393c-90.937 0-164.918 73.982-164.918 164.918s73.982 164.917 164.918 164.917 164.917-73.982 164.917-164.917c.001-90.936-73.981-164.918-164.917-164.918zm8.669 156.25V157.991c74.487 4.336 134.315 64.164 138.651 138.653zm-8.669 156.249c-81.377 0-147.582-66.205-147.582-147.581 0-78.467 61.557-142.817 138.914-147.321v147.321a8.668 8.668 0 0 0 8.668 8.668h147.32c-4.503 77.358-68.853 138.913-147.32 138.913z" style="fill:#fff;stroke:#000;stroke-width:7.66304;stroke-dasharray:none" transform="rotate(-12.56 37.662 14.612) scale(.06553)"/><path d="M373.077 367.9a8.668 8.668 0 0 1-8.668 8.668 8.668 8.668 0 0 1-8.668-8.668 8.668 8.668 0 0 1 8.668-8.668 8.668 8.668 0 0 1 8.668 8.668zM327.252 413.715a8.668 8.668 0 0 1-8.668 8.668 8.668 8.668 0 0 1-8.668-8.668 8.668 8.668 0 0 1 8.668-8.668 8.668 8.668 0 0 1 8.668 8.668zM264.667 430.485a8.668 8.668 0 0 1-8.668 8.668 8.668 8.668 0 0 1-8.668-8.668 8.668 8.668 0 0 1 8.668-8.668 8.668 8.668 0 0 1 8.668 8.668zM202.083 413.715a8.668 8.668 0 0 1-8.668 8.668 8.668 8.668 0 0 1-8.668-8.668 8.668 8.668 0 0 1 8.668-8.668 8.668 8.668 0 0 1 8.668 8.668zM156.258 367.9a8.668 8.668 0 0 1-8.668 8.668 8.668 8.668 0 0 1-8.668-8.668 8.668 8.668 0 0 1 8.668-8.668 8.668 8.668 0 0 1 8.668 8.668zM139.487 305.316a8.668 8.668 0 0 1-8.668 8.668 8.668 8.668 0 0 1-8.668-8.668 8.668 8.668 0 0 1 8.668-8.668 8.668 8.668 0 0 1 8.668 8.668zM156.258 242.72a8.668 8.668 0 0 1-8.668 8.668 8.668 8.668 0 0 1-8.668-8.668 8.668 8.668 0 0 1 8.668-8.668 8.668 8.668 0 0 1 8.668 8.668zM202.083 196.906a8.668 8.668 0 0 1-8.668 8.668 8.668 8.668 0 0 1-8.668-8.668 8.668 8.668 0 0 1 8.668-8.668 8.668 8.668 0 0 1 8.668 8.668zM327.252 196.906a8.668 8.668 0 0 1-8.668 8.668 8.668 8.668 0 0 1-8.668-8.668 8.668 8.668 0 0 1 8.668-8.668 8.668 8.668 0 0 1 8.668 8.668zM373.077 242.72a8.668 8.668 0 0 1-8.668 8.668 8.668 8.668 0 0 1-8.668-8.668 8.668 8.668 0 0 1 8.668-8.668 8.668 8.668 0 0 1 8.668 8.668z" transform="rotate(-12.56 37.662 14.612) scale(.06553)" style="fill:#fff;stroke:#000;stroke-width:7.66304;stroke-dasharray:none"/></g><path style="stroke:#1a1a1a" d="M60.188 100.452H94.85V114.6H60.188Z" transform="translate(-23.184 -85.445)"/><path style="stroke:#1a1a1a;stroke-width:1.07705" d="M45.186 134.09h46.376v12.266H45.186Z" transform="translate(-21.411 -88.384)"/><path style="stroke:#1a1a1a" d="M94.447 134.752H105v11.016H94.447Z" transform="translate(-21.411 -88.384)"/><path d="m96.747 142.384 4.765-1.985-4.765-2.263v-.986l5.954 2.97v.633l-5.954 2.617z" transform="translate(-21.411 -88.384)" aria-label="&gt;" style="font-size:12.6413px;font-family:Aria;-inkscape-font-specification:Aria;text-align:center;text-anchor:middle;fill:#fff;stroke-width:3.98151"/><path style="stroke:#1a1a1a" d="M94.447 134.752H105v11.016H94.447Z" transform="matrix(-1 0 0 1 114.903 -88.557)"/><path d="m96.747 142.384 4.765-1.985-4.765-2.263v-.986l5.954 2.97v.633l-5.954 2.617z" transform="matrix(-1 0 0 1 114.903 -88.557)" aria-label="&gt;" style="font-size:12.6413px;font-family:Aria;-inkscape-font-specification:Aria;text-align:center;text-anchor:middle;fill:#fff;stroke-width:3.98151"/><path style="stroke:#1a1a1a;stroke-width:1.07705" d="M45.186 134.09h46.376v12.266H45.186Z" transform="translate(-21.934 -72.556)"/><path style="stroke:#1a1a1a;stroke-width:.969652" d="M43.822 149.851h45.124v10.218H43.822Z" transform="translate(-21.934 -72.556)"/><path style="stroke:#1a1a1a" d="M94.447 134.752H105v11.016H94.447Z" transform="translate(-21.934 -72.556)"/><path d="m96.747 142.384 4.765-1.985-4.765-2.263v-.986l5.954 2.97v.633l-5.954 2.617z" transform="translate(-21.934 -72.556)" aria-label="&gt;" style="font-size:12.6413px;font-family:Aria;-inkscape-font-specification:Aria;text-align:center;text-anchor:middle;fill:#fff;stroke-width:3.98151"/><path style="stroke:#1a1a1a" d="M94.447 134.752H105v11.016H94.447Z" transform="matrix(-1 0 0 1 114.38 -72.729)"/><path d="m96.747 142.384 4.765-1.985-4.765-2.263v-.986l5.954 2.97v.633l-5.954 2.617z" transform="matrix(-1 0 0 1 114.38 -72.729)" aria-label="&gt;" style="font-size:12.6413px;font-family:Aria;-inkscape-font-specification:Aria;text-align:center;text-anchor:middle;fill:#fff;stroke-width:3.98151"/><g aria-label="[EQUIVALENT]" style="font-size:5.7083px;font-family:Aria;-inkscape-font-specification:Aria;text-align:center;text-anchor:middle;fill:#fff;stroke-width:1.79789"><path d="M29.167 70.147h-1.28v-4.978h1.28v.411h-.788v4.156h.788zM32.14 69.245h-2.277v-4.076h2.278v.451h-1.764v1.273h1.66v.445h-1.66v1.456h1.764zM36.593 67.201q0 .748-.302 1.28-.297.524-.885.718l.976 1.016h-.737l-.787-.919h-.074q-.035.006-.069.006-.634 0-1.056-.262-.417-.263-.622-.737-.206-.473-.206-1.107 0-.622.206-1.09.205-.474.622-.737.422-.262 1.062-.262.61 0 1.027.262.417.257.628.731.217.468.217 1.102zm-3.22 0q0 .771.326 1.216.325.44 1.016.44.69 0 1.01-.44.326-.445.326-1.216 0-.77-.32-1.204-.32-.44-1.01-.44-.697 0-1.022.44-.325.434-.325 1.204zM40.595 65.17v2.637q0 .422-.172.764-.17.337-.525.537-.354.194-.89.194-.765 0-1.16-.41-.393-.418-.393-1.097V65.17h.514v2.643q0 .497.262.77.269.275.805.275.554 0 .8-.291.25-.297.25-.76V65.17zM42.815 69.245h-1.473v-.297l.48-.108v-3.26l-.48-.114v-.297h1.473v.297l-.48.114v3.26l.48.108zM46.474 65.17l-1.455 4.075h-.514l-1.456-4.076h.537l.919 2.615q.091.25.148.473.063.217.109.417.04-.2.102-.422.063-.223.155-.48l.913-2.603zM49.357 69.245l-.491-1.262H47.25l-.485 1.262h-.52l1.593-4.093h.463l1.587 4.093zm-.645-1.718-.457-1.233q-.017-.046-.057-.166l-.08-.245q-.034-.131-.057-.2-.046.177-.097.348-.046.166-.08.263l-.462 1.233zM50.447 69.245v-4.076h.514v3.62h1.78v.456zM55.716 69.245h-2.278v-4.076h2.278v.451h-1.764v1.273h1.661v.445h-1.661v1.456h1.764zM59.843 69.245h-.6l-2.18-3.385h-.023l.029.497q.017.296.017.61v2.278h-.474v-4.076h.594l2.175 3.374h.022l-.017-.274q-.005-.183-.017-.394-.006-.217-.006-.405v-2.3h.48zM62.24 69.245h-.513V65.62h-1.273v-.45h3.054v.45H62.24zM63.713 69.736h.788V65.58h-.788v-.41h1.279v4.977h-1.279z"/></g><g aria-label="[TRAIT]" style="font-size:5.83938px;font-family:Aria;-inkscape-font-specification:Aria;text-align:center;text-anchor:middle;fill:#fff;stroke-width:1.83918"><path d="M38.28 54.82H36.97v-5.092h1.308v.42h-.805V54.4h.805zM40.312 53.897h-.526v-3.708h-1.302v-.461h3.124v.461h-1.296zM43.389 49.728q.777 0 1.144.297.374.292.374.888 0 .333-.122.555-.123.222-.316.356-.187.134-.397.204l1.145 1.869h-.613l-1.01-1.723h-.83v1.723h-.525v-4.17zm-.03.455h-.595v1.548h.625q.508 0 .742-.199.233-.204.233-.596 0-.408-.245-.578-.245-.175-.76-.175zM48.487 53.897l-.502-1.29h-1.653l-.496 1.29h-.532l1.63-4.187h.472l1.624 4.187zm-.66-1.758-.467-1.261q-.018-.047-.059-.17l-.081-.25q-.035-.135-.059-.205-.047.181-.1.356-.046.17-.08.269l-.474 1.261zM50.776 53.897h-1.507v-.304l.49-.11v-3.335l-.49-.117v-.303h1.507v.303l-.49.117v3.334l.49.111zM52.901 53.897h-.525v-3.708h-1.302v-.461h3.124v.461H52.9zM54.408 54.4h.806v-4.252h-.806v-.42h1.308v5.092h-1.308z"/></g><g aria-label="SUBMIT" style="font-size:5.93222px;font-family:Aria;-inkscape-font-specification:Aria;text-align:center;text-anchor:middle;fill:#fc0;stroke-width:1.86842"><path d="M36.551 83.56q0 .563-.409.877-.41.315-1.103.315-.356 0-.659-.054-.302-.053-.504-.148v-.51q.214.095.528.172.32.077.658.077.47 0 .712-.184.244-.184.244-.498 0-.208-.09-.35-.088-.143-.308-.261-.22-.119-.6-.261-.545-.196-.818-.48-.273-.286-.273-.778 0-.332.172-.575.172-.244.475-.374t.706-.13q.344 0 .635.065.29.065.534.172l-.167.456q-.219-.094-.48-.16-.261-.065-.534-.065-.397 0-.6.172-.2.166-.2.445 0 .214.088.356.09.142.29.26.203.114.547.238.373.137.628.297.261.154.392.374.136.219.136.551zM40.627 80.457v2.74q0 .44-.178.795-.178.35-.546.558-.368.202-.925.202-.795 0-1.205-.427-.409-.434-.409-1.14v-2.728h.534v2.746q0 .516.273.801.279.285.836.285.576 0 .83-.303.262-.308.262-.789v-2.74zM41.742 80.457h1.21q.79 0 1.199.237.409.237.409.813 0 .373-.208.623-.207.243-.599.314v.03q.267.047.48.16.22.113.345.32.124.208.124.534 0 .576-.397.89-.392.314-1.074.314h-1.489zm.534 1.803h.783q.54 0 .742-.172.207-.178.207-.522 0-.35-.249-.498-.243-.155-.783-.155h-.7zm0 .445v1.536h.854q.564 0 .783-.219.22-.22.22-.575 0-.333-.232-.534-.225-.208-.812-.208zM47.467 84.692l-1.394-3.713h-.024q.018.184.03.498.011.309.011.647v2.568h-.492v-4.235h.79l1.304 3.47h.024l1.329-3.47h.783v4.235H49.3v-2.604q0-.308.012-.61.017-.303.03-.493h-.024l-1.412 3.707zM52.171 84.692h-1.53v-.308l.498-.113v-3.387l-.499-.119v-.308h1.531v.308l-.498.119v3.387l.498.113zM54.33 84.692h-.534v-3.767h-1.322v-.468h3.173v.468H54.33z"/></g><g aria-label="[NAME]" style="font-size:7.36007px;font-family:Aria;-inkscape-font-specification:Aria;text-align:center;text-anchor:middle;fill:#a02c2c;stroke-width:2.31813"><path d="M43.977 26.133h-1.649v-6.418h1.649v.53H42.96v5.358h1.016zM49.04 24.97h-.772l-2.812-4.364h-.03l.037.64q.022.383.022.787v2.937h-.61v-5.255h.765l2.804 4.35h.03l-.022-.353q-.008-.236-.022-.508-.008-.28-.008-.523v-2.966h.618zM53.766 24.97l-.633-1.626H51.05l-.626 1.626h-.67l2.054-5.277h.596l2.046 5.277zm-.832-2.215-.589-1.59q-.022-.059-.074-.214l-.103-.316q-.044-.17-.073-.258-.059.229-.125.45-.06.213-.103.338l-.596 1.59zM57.49 24.97l-1.73-4.607h-.03q.023.228.038.618.014.383.014.802v3.187h-.61v-5.255h.978l1.62 4.306h.029l1.649-4.306h.971v5.255h-.655V21.74q0-.383.015-.758l.037-.611h-.03l-1.752 4.6zM64.784 24.97h-2.937v-5.255h2.937v.581h-2.275v1.642h2.142v.574H62.51v1.877h2.275zM65.41 25.603h1.015v-5.358h-1.016v-.53h1.649v6.418h-1.649Z"/></g></svg>