<svg xmlns="http://www.w3.org/2000/svg" fill="none" viewBox="0 0 348 348"><path stroke="#000" stroke-width="2" d="M5.079 5.776h336.913v337.67H5.08z"/><path stroke="#000" stroke-width="2" d="M282.734 40.554c0-8.376 6.966-15.165 15.56-15.165 4.126 0 8.084 1.597 11.001 4.441 2.918 2.844 4.558 6.702 4.558 10.724 0 8.376-6.966 15.165-15.56 15.165-8.593 0-15.559-6.79-15.559-15.165z"/><path stroke="#000" stroke-opacity=".992" d="m299.798 300.13 16.923-9.771 16.923 9.77v19.542l-16.923 9.77-16.923-9.77zm-35.68 0 16.923-9.771 16.923 9.77v19.542l-16.923 9.77-16.923-9.77zm-35.68 0 16.922-9.771 16.924 9.77v19.542l-16.924 9.77-16.923-9.77zm-35.68 0 16.922-9.771 16.923 9.77v19.542l-16.923 9.77-16.923-9.77zm-35.681 0L174 290.358l16.923 9.77v19.542L174 329.44l-16.923-9.77Zm-35.68 0 16.923-9.771 16.923 9.77v19.542l-16.923 9.77-16.923-9.77zm-35.68 0 16.923-9.771 16.923 9.77v19.542l-16.923 9.77-16.924-9.77zm-35.68 0 16.922-9.771 16.923 9.77v19.542l-16.923 9.77-16.923-9.77zm-35.681 0 16.923-9.771 16.923 9.77v19.542l-16.923 9.77-16.923-9.77Zm267.602-30.9 16.923-9.771 16.923 9.77v19.542l-16.923 9.77-16.923-9.77zm-35.68 0 16.923-9.771 16.923 9.77v19.542l-16.923 9.77-16.924-9.77zm-35.68 0 16.922-9.771 16.923 9.77v19.542l-16.923 9.77-16.923-9.77zm-35.681 0 16.923-9.771 16.923 9.77v19.542l-16.923 9.77-16.923-9.77zm-35.68 0 16.923-9.771 16.923 9.77v19.542l-16.923 9.77-16.923-9.77zm-35.68 0 16.923-9.771 16.923 9.77v19.542l-16.923 9.77-16.923-9.77zm-35.68 0 16.922-9.771 16.923 9.77v19.542L84.8 298.54l-16.923-9.77zm-35.681 0 16.923-9.771 16.923 9.77v19.542l-16.923 9.77-16.923-9.77zm267.602-30.9 16.923-9.771 16.923 9.77v19.542l-16.923 9.77-16.923-9.77zm-35.68 0 16.923-9.771 16.923 9.77v19.542l-16.923 9.77-16.923-9.77zm-35.68 0 16.922-9.771 16.924 9.77v19.542l-16.924 9.77-16.923-9.77zm-35.68 0 16.922-9.771 16.923 9.77v19.542l-16.923 9.77-16.923-9.77zm-35.681 0L174 228.558l16.923 9.77v19.542L174 267.64l-16.923-9.77Zm-35.68 0 16.923-9.771 16.923 9.77v19.542l-16.923 9.77-16.923-9.77zm-35.68 0 16.923-9.771 16.923 9.77v19.542l-16.923 9.77-16.924-9.77zm-35.68 0 16.922-9.771 16.923 9.77v19.542l-16.923 9.77-16.923-9.77zm-35.681 0 16.923-9.771 16.923 9.77v19.542l-16.923 9.77-16.923-9.77ZM255 153.7h75v60h-75zm42-44.581h38.339v38.339H297Zm-45 0h38.339v38.339H252Zm-67 60.05h60v44.238h-60zm0-50h60v44.238h-60zm0-50h60v44.238h-60zm0-50h60v44.238h-60zm-168.78 150h160v44.238h-160Zm0-50h160v44.238h-160Zm0-50h160v44.238h-160Zm0-50h160v44.238h-160Z"/></svg>