<svg xmlns="http://www.w3.org/2000/svg" xml:space="preserve" fill="none" viewBox="0 0 348 348"><path stroke="#000" stroke-width="2" d="M5.08 5.78h336.91v337.67H5.08z"/><path stroke="#000" stroke-width="2" d="M282.73 40.55c0-8.37 6.97-15.16 15.56-15.16 4.13 0 8.09 1.6 11 4.44a14.97 14.97 0 0 1 4.56 10.72c0 8.38-6.96 15.17-15.56 15.17-8.59 0-15.56-6.8-15.56-15.17z"/><path stroke="#000" stroke-width="1.5" d="M23.89 130.99h85.63v85.23H23.9z" style="mix-blend-mode:normal" transform="translate(8.25 .4)"/><path fill="#000100" d="M83.07 147.34a8.87 8.87 0 0 1 .43.4 5.4 5.4 0 0 1 1.4 3.76 7.7 7.7 0 0 1-1.05 3.28l.07-.02a5.18 5.18 0 0 1 3.67.79 5.4 5.4 0 0 1 1.94 2.25c.23-.08.43-.2.63-.3l.12-.07.96-.54a31.94 31.94 0 0 0 1.87-1.04l.1-.06.09-.05a5.9 5.9 0 0 1 3.13-1.01h.15c1.32.02 2.43.59 3.34 1.51a4.42 4.42 0 0 1 1.17 3.07v.49l.08-.05c1.32-.78 2.66-1.25 4.2-.88a4.78 4.78 0 0 1 1.86.97l.1.07a4.76 4.76 0 0 1 1.56 3.13 4.7 4.7 0 0 1-1.04 3.29l-.08.1-.09.1a5.44 5.44 0 0 1-1.99 1.38h-.09c.1.12.22.19.35.27a4.8 4.8 0 0 1 2.13 3.05 4.6 4.6 0 0 1-.6 3.39 4.96 4.96 0 0 1-.66.83l-.09.09c-.5.54-1.3 1.02-1.99 1.26h-.09v.1l.1.03c1 .43 1.73 1.51 2.12 2.48a4.8 4.8 0 0 1-.2 3.58c-.29.6-.67 1.16-1.2 1.57l-.11.09a7 7 0 0 1-.9.56l-.63.36a50.16 50.16 0 0 1-1.44.8 37.62 37.62 0 0 0-.9.51l-1.25.68-1.07.59-1.17.64-1.05.57-.92.51-.08.05a159.35 159.35 0 0 1-2.32 1.28l-1.13.61-.96.53a53.64 53.64 0 0 1-2.18 1.2l-.62.34-1.56.87-.96.52a59 59 0 0 1-1.96 1.08c-.44.23-.87.47-1.29.71a7.3 7.3 0 0 1-.68.36c-.66.31-.66.31-1.05.9l-.05.17-.17.39-.04.1a13.7 13.7 0 0 1-2.44 3.69 9.73 9.73 0 0 0-.25.29 10.35 10.35 0 0 1-.48.5l-.08.08a6.14 6.14 0 0 1-.2.19h-.09v.09l-.2.17-.14.11-.07.06-.24.2c-.38.3-.78.59-1.2.86l-.09.06c-1.44.92-3 1.6-4.7 1.92l-.13.03c-1.6.3-3.21.18-4.83-.06a27.99 27.99 0 0 1-2.85-.56l-.17-.04a30.91 30.91 0 0 1-7.22-2.79 23.33 23.33 0 0 0-.28-.14 24.08 24.08 0 0 1-4.42-2.93l-.09-.07a10 10 0 0 1-.79-.72c-.07-.08-.07-.08-.2-.18a3.12 3.12 0 0 1-.36-.37 6.44 6.44 0 0 0-.2-.21 13 13 0 0 1-2.24-3.54l-.3-.62c-.19-.37-.36-.74-.52-1.12l-.05-.1a45.25 45.25 0 0 1-.8-1.96l-.1-.25a63.75 63.75 0 0 1-.97-2.75l-.33-.97a188.55 188.55 0 0 1-2.35-7.36 80.6 80.6 0 0 0-.84-2.61l-.24-.73c-.21-.6-.36-1.19-.47-1.8a19.34 19.34 0 0 0-.06-.3 6.82 6.82 0 0 1 1.1-4.87 5.3 5.3 0 0 1 3.43-2.19 5.36 5.36 0 0 1 4.7 1.55l.12.11a7.35 7.35 0 0 1 1.6 2.41l.06.15c.25.6.46 1.23.67 1.85.2.57.4 1.14.63 1.7.2-.37.4-.74.57-1.13.14-.3.3-.57.46-.85.22-.35.4-.7.59-1.07l.24-.49.63-1.28.82-1.7a79.76 79.76 0 0 0 .93-1.9l.54-1.1.11-.24.82-1.68.78-1.6.8-1.65.71-1.46.87-1.79.04-.09a82.77 82.77 0 0 0 .97-1.99 39.45 39.45 0 0 0 .8-1.65l.6-1.23.2-.4.6-1.23.14-.3.12-.27a5.98 5.98 0 0 1 1.1-1.61l.1-.11a5.02 5.02 0 0 1 3.27-1.52 5.77 5.77 0 0 1 4.21 1.48c.35.33.64.74.9 1.14l.04-.09c.7-1.48.7-1.48 1.14-1.99l.11-.13a5.39 5.39 0 0 1 7.53-.49zm-5.55 1.94c-.45.46-.7 1.04-.96 1.61l-.35.7-.52 1.06-.16.33a115.05 115.05 0 0 0-.91 1.89l-.43.89a27.86 27.86 0 0 1-.32.65l-.75 1.51-.07.15-.91 1.87-.67 1.38-.87 1.79-.05.1a73.38 73.38 0 0 0-.92 1.9l-.69 1.4-.06.14a140.2 140.2 0 0 0-1.61 3.33l-.25.5a7.8 7.8 0 0 1-.1.18l-.06.13a7.34 7.34 0 0 1-.58-.26l-.1-.05-.33-.15-.22-.1-.2-.11-.1-.05a59.56 59.56 0 0 1-.64-.31c.06-.2.15-.4.24-.58.16-.3.31-.61.46-.93l.67-1.38.1-.2.2-.41 1.35-2.82c.35-.77.71-1.52 1.08-2.28l.48-.98.08-.16a103.94 103.94 0 0 0 .83-1.72 216.96 216.96 0 0 0 .9-1.82l.72-1.5.07-.14.5-1.09.04-.12c.23-.66.12-1.41-.14-2.04l-.05-.13a2.97 2.97 0 0 0-1.7-1.5 3.01 3.01 0 0 0-2.26.18c-.91.53-1.31 1.33-1.74 2.26l-.32.67-.07.13-.53 1.1a90.88 90.88 0 0 0-.78 1.57 72.64 72.64 0 0 0-1.77 3.61l-.47.96-.75 1.52a92.78 92.78 0 0 0-1.35 2.75l-.6 1.23-.5 1.01a44.46 44.46 0 0 0-.77 1.6 61.57 61.57 0 0 1-.72 1.5l-.11.23-.06.12-.05.1-.39.8-.87 1.8-.64 1.33a37.95 37.95 0 0 1-1.27 2.42l-.3.52-.09.16-.78 1.4a15.05 15.05 0 0 1-.16.28c-.07.12-.07.12-.11.23a.62.62 0 0 1-.18.25c-.2.05-.4.05-.6.05h-.16c-.28 0-.46-.02-.66-.21a2.9 2.9 0 0 1-.35-.52 2.03 2.03 0 0 1-.05-.1c-.85-1.6-1.43-3.36-2.01-5.05-.3-.89-.68-1.7-1.31-2.4l-.1-.11a3.21 3.21 0 0 0-2.02-1.02 3.01 3.01 0 0 0-2.2.86c-.88.94-1.05 2.16-1.01 3.39.03.77.3 1.48.54 2.2.32.93.62 1.85.9 2.79l.28.92.06.21a263.7 263.7 0 0 0 .94 3.03c.4 1.3.83 2.6 1.29 3.87l.3.86a40.85 40.85 0 0 0 3.05 7.13l.07.12c.47.84.98 1.61 1.68 2.27l.31.31a7 7 0 0 0 .7.62l.16.13a25 25 0 0 0 3.29 2.17 12.75 12.75 0 0 0 1.26.69l.34.17c3.21 1.64 6.94 2.87 10.6 2.95h.09c2.54.07 5-.86 6.95-2.49l.07-.06c.66-.54.66-.54 1.24-1.15l.3-.32a15 15 0 0 0 2.36-3.84l.16-.34.1-.2.3-.64c.24-.46.46-.93.69-1.4l.07-.13 1.07-2.24.58-1.18c.4-.8.8-1.62 1.18-2.43l.62-1.26a97.7 97.7 0 0 0 1.03-2.12l.1-.2.3-.63.69-1.4.07-.13a164.4 164.4 0 0 0 1.65-3.42 110.84 110.84 0 0 0 1.62-3.33l.43-.88c.1-.24.23-.48.35-.71l.43-.92c.22-.5.44-.97.68-1.45a53.74 53.74 0 0 0 .74-1.53c.41-.88.56-1.7.22-2.64a3.07 3.07 0 0 0-1.58-1.66 3.03 3.03 0 0 0-2.25 0c-1.25.58-1.69 1.7-2.24 2.87a107.68 107.68 0 0 1-.79 1.63l-.41.84-.8 1.64-.87 1.8-.84 1.72-.06.13-.17.34-.05.1-.04.1-.05.1a9.69 9.69 0 0 1-.1.19l-.05.1-.04.08c-.05.09-.05.09-.04.22l-.31-.16-.28-.13-.74-.35a37.62 37.62 0 0 1-.42-.2l-.12-.07-.11-.05c-.09-.04-.09-.04-.18-.04.12-.32.26-.64.41-.95l.07-.14a49.18 49.18 0 0 1 .74-1.5l.35-.73.44-.9.6-1.23a97.34 97.34 0 0 0 1.57-3.23 44.42 44.42 0 0 0 .82-1.67 86.7 86.7 0 0 0 .67-1.37 133.77 133.77 0 0 0 1.05-2.18 29.54 29.54 0 0 0 .64-1.3c.32-.65.65-1.33.58-2.07l-.01-.12a3.06 3.06 0 0 0-.63-1.5l-.08-.11a2.91 2.91 0 0 0-1.86-1.02c-.95-.05-1.7.2-2.44.8-.42.39-.65.95-.9 1.45l-.05.11c-.21.45-.43.9-.62 1.35l-.35.73c-.2.38-.38.77-.57 1.15l-.06.12-1.16 2.41c-.1.24-.23.48-.34.71l-.35.71-.56 1.15a112.86 112.86 0 0 0-1.62 3.33l-.37.75c-.14.31-.3.62-.45.92l-.42.89-.39.79a4.4 4.4 0 0 1-.77-.34c-.5-.26-1.02-.5-1.53-.74.2-.45.42-.9.65-1.35l.9-1.85c.18-.4.37-.8.57-1.18a60.23 60.23 0 0 0 .77-1.57l.72-1.48a191.01 191.01 0 0 0 1.76-3.63 91.55 91.55 0 0 0 1.1-2.26 47.8 47.8 0 0 1 .88-1.82l.45-.92c.15-.3.29-.58.42-.88a37.34 37.34 0 0 1 .73-1.5l.43-.87.43-.9.06-.11.05-.11.15-.3c.17-.35.28-.73.3-1.12l.01-.09a3 3 0 0 0-.84-2.15l-.11-.1-.08-.08c-1.11-1.07-2.89-.9-3.97.13zm16.33 8.57-.85.47c-.43.22-.86.46-1.28.7l-.17.08-.44.24-.17.1-.4.22a5.16 5.16 0 0 1-.25.13c-.18.1-.18.1-.27.26-.02.11-.02.22-.02.34l-.02.26v.13a5.34 5.34 0 0 1-.6 1.84l-.14.28-.2.42-.07.13-.06.12c-.04.08-.04.08-.04.13H89c1.13 0 2.21.12 3.2.72.1.06.1.06.28.05.12-.05.12-.05.25-.13l.14-.08.16-.08.16-.09a74.12 74.12 0 0 0 .59-.32 119.16 119.16 0 0 0 2.04-1.13 112.04 112.04 0 0 0 1.46-.8c.6-.33 1.11-.66 1.43-1.3l.05-.1c.27-.57.33-1.26.13-1.86a3.04 3.04 0 0 0-.72-1.1l-.08-.09a2.5 2.5 0 0 0-1.75-.62c-.9.04-1.73.64-2.49 1.07zm8.85 3.46-.13.07c-.51.27-1.02.55-1.53.85a8 8 0 0 1-.54.3c-.26.12-.51.27-.77.4-.38.23-.77.44-1.16.65l-1.16.63-.77.43c-1.31.72-1.31.72-2.61 1.46l.07.12c.7 1.25 1 2.76.6 4.16a6.12 6.12 0 0 1-.48 1.26c-.06.09-.06.09-.05.19.19-.06.35-.14.52-.23l.15-.09.16-.08.32-.19.09-.05.81-.44a56.09 56.09 0 0 0 2.12-1.17l.17-.1.09-.04.6-.33.32-.18.09-.05 1.11-.6 1.03-.58 1.19-.65 1.04-.57.52-.29.35-.19.18-.1c.77-.4 1.39-.9 1.68-1.76a2.73 2.73 0 0 0-.28-2.1 2.73 2.73 0 0 0-1.71-1.2c-.77-.13-1.37.11-2.03.46zm-.57 8.7a67.03 67.03 0 0 0-1.92 1.06l-1.14.62a44.4 44.4 0 0 0-1.8.98l-.88.49a63.99 63.99 0 0 1-1.08.6l-.87.48-.35.19-.17.1c-.32.17-.63.34-.95.53l-.43.23c-.25.18-.36.5-.48.77a79.06 79.06 0 0 1-.2.43l-.45.92-.1.2-.84 1.73-.7 1.46-.05.1-.43.87-1.12 2.3-.05.12-.23.47c-.72 1.45-.72 1.45-1.42 2.91l-.8 1.65-.78 1.6-.66 1.36-.48.98-.14.3-.26.52-.07.15-.07.14-.05.12c-.05.09-.05.09-.04.18.19-.07.37-.16.55-.26l.1-.05.97-.54.95-.52 1.04-.58c.4-.23.81-.45 1.23-.67a52.17 52.17 0 0 0 2.7-1.5l.68-.38 1.72-.96.59-.32 1.69-.92.82-.45.75-.42 1.03-.57a63.85 63.85 0 0 1 2.1-1.17l1.25-.68 1.22-.68.78-.42c.29-.15.55-.3.8-.5l.1-.07c.46-.37.77-.97.85-1.55a2.93 2.93 0 0 0-.59-2.07 25.57 25.57 0 0 1-.09-.1h-.09l-.04-.13a2.74 2.74 0 0 0-2.02-.64c-.8.06-1.59.66-2.27 1.04l-.97.53-1.27.69-.09.05-1.2.67c-.22.14-.45.26-.7.37l-.62.35a45.9 45.9 0 0 1-1.98 1.1l-.12.06-.2.12c-.22.12-.22.12-.34.12-.13-.07-.17-.16-.23-.29l-.08-.15-.09-.16-.08-.15a49.78 49.78 0 0 1-.51-1c.03-.03.07-.04.1-.06l.5-.27.08-.05a88.34 88.34 0 0 0 1.15-.65c.4-.23.82-.45 1.23-.67l1.2-.66.97-.53 1.1-.61 1.26-.7 1.12-.61c.27-.16.55-.31.84-.46.26-.13.52-.28.78-.43l1.18-.65 1.2-.65.12-.07c.8-.45 1.44-.88 1.72-1.8a2.7 2.7 0 0 0-.2-1.97 2.72 2.72 0 0 0-1.72-1.3 2.81 2.81 0 0 0-1.96.39zm2.69-26.59c.38.26.64.56.76 1 .05.44 0 .8-.26 1.15a3.4 3.4 0 0 1-.75.64l-.5.37-1.1.8-.3.21c-.36.27-.72.52-1.09.78l-.8.58a85.12 85.12 0 0 1-1.13.8 34.61 34.61 0 0 1-.98.7l-.09.06c-.38.26-.8.29-1.25.23a1.56 1.56 0 0 1-.97-.82 1.68 1.68 0 0 1 0-1.14c.24-.5.68-.78 1.13-1.08l.52-.37.2-.15.1-.07.5-.35.63-.46a84.9 84.9 0 0 1 .9-.64l.8-.57.77-.55.74-.54c1.37-1.01 1.37-1.01 2.17-.58zm-6.95-8.08c.37.21.61.46.75.87.2.79-.28 1.56-.6 2.26l-.11.26-.17.39-.5 1.14-.16.35-.07.17-.38.86-.35.8-.09.2-.12.29c-.55 1.24-.55 1.24-1.14 1.49a1.4 1.4 0 0 1-.38.08l-.17.01a1.44 1.44 0 0 1-1-.41c-.3-.32-.48-.63-.47-1.08.07-.55.36-1.07.58-1.57l.12-.26.23-.53.53-1.2.1-.22.8-1.85.22-.5.1-.2.14-.34.05-.1c.14-.33.31-.61.61-.81l.1-.06a1.4 1.4 0 0 1 1.37-.03zm-10.29.26c.27.21.44.5.53.83.02.15.02.31.01.47v4.93l-.02 1v.85c-.02.42-.16.77-.44 1.1-.33.27-.72.42-1.16.39a1.46 1.46 0 0 1-.96-.53c-.28-.4-.33-.71-.33-1.18v-2.75l.02-2.66v-.14a63.92 63.92 0 0 1 0-.93c.01-.5.1-.9.45-1.28.57-.52 1.28-.52 1.9-.1z"/><path stroke="#000" stroke-width="1.46" d="M229.83 132.38h83.25v83.24h-83.25z"/><path fill="#000100" d="M270.44 138.21c.15.15.29.3.42.47a33.05 33.05 0 0 0 1 1.2l.57.65.61.7.7.79c.18.2.35.4.52.62a6.58 6.58 0 0 1 .66.71l.3.34a29.47 29.47 0 0 1 .8.88l.5.57.5.56.67.74.3.33.66.76.67.77c.19.2.36.42.54.64a11.94 11.94 0 0 1 .88 1.02l.4.47c.23.26.44.51.64.78l.44.53a15.72 15.72 0 0 1 1.05 1.38c.65.88 1.34 1.83 1.23 2.96a9.9 9.9 0 0 1-1.83 3.95l-.7 1.07-.1.14-.51.75a48.55 48.55 0 0 0-3.41 5.47l-.06.1-.31.65-.06.12c-1.1 2.3-2.28 5.6-1.49 8.13l.03.11c.5 1.68 1.35 3.3 2.24 4.82l.3.53a48.25 48.25 0 0 0 1.63 2.7c.35.56.72 1.12 1.1 1.68l.17.26a261.54 261.54 0 0 1 .68 1.02 53.26 53.26 0 0 0 .47.7 96.18 96.18 0 0 0 2.6 3.57l.08.11c.35.46.7.92 1.06 1.36.1.12.16.2.21.35-.28-.08-.54-.22-.8-.35a14.7 14.7 0 0 0-6.73-1.72h-.13a8.2 8.2 0 0 0-1.85.15l-.12.03a7.98 7.98 0 0 0-5.06 3.4c-1.07 1.7-1.91 3.98-1.46 6.03.33 1.3 1.15 2.45 1.88 3.56l.77 1.2.18.29.1.16.1.15c.06.1.06.1.06.2a1.87 1.87 0 0 1-.53-.3 44 44 0 0 1-.17-.12l-.1-.07-.48-.34a52.97 52.97 0 0 1-2.9-2.2l-.32-.24a20.02 20.02 0 0 1-1.34-1.17l-.42-.39c-.24-.2-.45-.42-.67-.63l-.12-.13a11.67 11.67 0 0 1-.67-.72l-.13-.15a16.1 16.1 0 0 1-1.5-2l-.06-.09c-1.5-2.33-1.72-5-1.16-7.71.05-.25.12-.49.18-.73l.03-.11a5.4 5.4 0 0 1 1.14-2.18l.1-.12a5.4 5.4 0 0 1 3.1-1.64l.12-.03c1.05-.22 2.12-.3 3.18-.38a37.1 37.1 0 0 0 2.12-.22l.16-.02a13.56 13.56 0 0 0 2.27-.54c.13-.04.13-.04.22-.04a9.5 9.5 0 0 0-.63-.68 8.26 8.26 0 0 1-.54-.58l-.36-.4c-.35-.38-.7-.76-1.03-1.16a8.56 8.56 0 0 0-.3-.36 11.05 11.05 0 0 1-.53-.63l-.53-.65a24.3 24.3 0 0 1-.83-1.06 43.27 43.27 0 0 0-.27-.37 53.53 53.53 0 0 1-2.84-4.16c-3.26-5.28-3.26-5.28-2.8-7.34.12-.47.33-.9.56-1.32l.07-.12c.3-.56.61-1.12.96-1.65l.1-.16.26-.4.18-.3 1.4-2.1.06-.09.12-.18.83-1.26.06-.08a53 53 0 0 0 3.77-6.5l.06-.14.07-.14.05-.12c.1-.23.1-.44.1-.67v-2.35c0-.68-.01-1.36-.13-2.03l-.02-.14a32.57 32.57 0 0 0-1.9-6.04l-.68-1.79-.04-.1a171.5 171.5 0 0 1-.28-.76l-.05-.14-.05-.12c-.03-.1-.03-.1-.03-.2z"/></svg>