<svg xmlns="http://www.w3.org/2000/svg" fill="none" viewBox="0 0 348 348"><path stroke="#000" stroke-width="2" d="M5 5.8h337v337.6H5z"/><path stroke="#000" stroke-width="2" d="M282.7 40.6c0-8.4 7-15.2 15.6-15.2 4.1 0 8 1.6 11 4.4a15 15 0 0 1 4.6 10.8c0 8.3-7 15.1-15.6 15.1s-15.6-6.8-15.6-15.1zm-124.3-3c0-8.3 7-15.1 15.6-15.1 4.1 0 8 1.6 11 4.4a15 15 0 0 1 4.6 10.7c0 8.4-7 15.2-15.6 15.2s-15.6-6.8-15.6-15.2zM26 122.9c0-8.4 7-15.2 15.6-15.2 4 0 8 1.6 11 4.5a15 15 0 0 1 4.5 10.7c0 8.4-7 15.2-15.5 15.2-8.6 0-15.6-6.8-15.6-15.2zm0 117.4c0-8.4 7-15.2 15.6-15.2 4 0 8 1.6 11 4.5a15 15 0 0 1 4.5 10.7c0 8.4-7 15.2-15.5 15.2-8.6 0-15.6-6.8-15.6-15.2zm263-117.4c0-8.4 7-15.2 15.6-15.2 4 0 8 1.6 11 4.5a15 15 0 0 1 4.5 10.7c0 8.4-7 15.2-15.5 15.2-8.6 0-15.6-6.8-15.6-15.2zm0 117.4c0-8.4 7-15.2 15.6-15.2 4 0 8 1.6 11 4.5a15 15 0 0 1 4.5 10.7c0 8.4-7 15.2-15.5 15.2-8.6 0-15.6-6.8-15.6-15.2z"/><path stroke="#000" stroke-width="2" d="M104.6 286.5h40.7V340h-40.7zm40.7 0H186V340h-40.7zm40.8 0h40.7V340h-40.7z"/><path fill="red" d="M125.8 300.3q2 0 3.7.8 1.8.7 3.1 2 1.3 1.4 2.1 3.2.8 1.7.8 3.7v9.7q0 2-.8 3.8-.8 1.7-2 3-1.4 1.3-3.2 2-1.7.8-3.7.8h-2q-2 0-3.7-.7-1.7-.8-3-2-1.4-1.4-2.1-3.1-.8-1.8-.8-3.8V310q0-2 .8-3.7.7-1.8 2-3.1 1.4-1.4 3.1-2.1 1.8-.8 3.8-.8zm0 23.2q1.6 0 2.7-1 1.2-1.2 1.2-2.8V310q0-1.6-1.2-2.7-1.1-1.2-2.7-1.2h-2q-.7 0-1.5.3-.6.3-1.2.9-.5.5-.8 1.2-.3.7-.3 1.5v9.7q0 .8.3 1.5t.8 1.2l1.2.8q.8.3 1.6.3zm44.6 1.7q0 2.7 1 3.5v.2q0 .2-.2.2h-7.4q-.2 0-.3-.2l.1-.2q1-.8 1-3.5v-19.4h-2.2q-.3-3.2-2.2-5.5l-.1-.1.2-.1h11.1v.3q-1 .8-1 3.5V323zm46.8-2.9q.1-.1.2 0l.2.1v6.7h-21.3v-7q0-2.2.8-4 .8-2 2.2-3.4 1.4-1.4 3.4-2.2 1.9-.9 4-.9h2.2q1.1 0 2-.8.8-.8.8-2 0-1.3-.8-2-.9-1-2-1h-4q-.6 0-1.1.3-.4.2-.8 1-.4.6 0 1.4.2.3 0 .3h-6.7q0-1.8.7-3.4.6-1.6 1.8-2.8 1.2-1.2 2.7-1.9 1.7-.6 3.4-.6h4q1.7 0 3.3.6 1.6.7 2.8 1.9 1.2 1.2 1.9 2.8.7 1.6.7 3.4 0 1.7-.7 3.4-.7 1.5-1.9 2.7-1.2 1.2-2.8 1.9-1.6.7-3.3.7h-2.2q-1 0-1.8.3-.8.4-1.5 1-.6.7-1 1.5-.3.9-.3 1.8v1.2h11.5q2.8 0 3.6-1z" aria-label="0 1 2"/><path stroke="#000" stroke-width="2" d="M174.5 95.7c-19.6-.2-33.8 41-31.3 50 1.9 6.6 11.9 13 19.2 2.8 7.2-10.2-8.7 85-2 95.6 6.9 10.5 19.1 11.4 25.6 0 6.5-11.5-9-107-.8-95.6 8 11.5 20.2 4.4 19.9-2.4-.3-6.8-10.9-50.3-30.6-50.4z"/><circle cx="173.3" cy="239.2" r="5.4" stroke="#000" stroke-width="2"/></svg>