<svg xmlns="http://www.w3.org/2000/svg" viewBox="0 0 348 348" fill="none"><path d="M5.079 5.776h336.913v337.67H5.08z" stroke-width="2" stroke="#000"/><path d="M282.734 40.554c0-8.376 6.966-15.165 15.56-15.165 4.126 0 8.084 1.597 11.001 4.441 2.918 2.844 4.558 6.702 4.558 10.724 0 8.376-6.966 15.165-15.56 15.165-8.593 0-15.559-6.79-15.559-15.165z" stroke-width="2" stroke="#000"/><text style="line-height:1.25;-inkscape-font-specification:SVGFont" x="155.48" y="235.589" font-weight="400" font-size="40" font-family="SVGFont" letter-spacing="0" word-spacing="0" fill="#000"/><text style="line-height:1.25;-inkscape-font-specification:sans-serif" x="222.238" y="161.941" font-weight="400" font-size="40" font-family="sans-serif" letter-spacing="0" word-spacing="0" fill="#000"/><text style="line-height:1.25;-inkscape-font-specification:sans-serif" x="108.535" y="116.718" font-weight="400" font-size="40" font-family="sans-serif" letter-spacing="0" word-spacing="0" fill="#000"/><text style="line-height:1.25;-inkscape-font-specification:mustard" x="174.431" y="107.673" font-weight="400" font-size="40" font-family="mustard" letter-spacing="0" word-spacing="0" fill="#000"/><g aria-label="[Codename]" style="line-height:1.25;-inkscape-font-specification:mustard" font-weight="400" font-size="40" font-family="mustard" letter-spacing="0" word-spacing="0" fill="#000"><path d="M66.077 195.438H55.92v-38.046h10.157v2.793h-6.758v32.46h6.758zM95.823 185.673q-1.074.469-1.953.879-.86.41-2.266.86-1.191.37-2.598.624-1.386.274-3.066.274-3.164 0-5.762-.88-2.578-.898-4.492-2.792-1.875-1.856-2.93-4.707-1.054-2.871-1.054-6.66 0-3.594 1.015-6.426 1.016-2.832 2.93-4.785 1.855-1.895 4.473-2.891 2.636-.996 5.84-.996 2.343 0 4.667.566 2.344.567 5.196 1.992v4.59h-.293q-2.403-2.011-4.766-2.93-2.363-.917-5.058-.917-2.207 0-3.985.722-1.758.703-3.144 2.207-1.348 1.465-2.11 3.711-.742 2.227-.742 5.156 0 3.067.82 5.274.84 2.207 2.149 3.594 1.367 1.445 3.183 2.148 1.836.684 3.868.684 2.793 0 5.234-.957t4.57-2.871h.274zM119.631 176.884q0 5.332-2.734 8.418-2.734 3.086-7.324 3.086-4.63 0-7.363-3.086-2.715-3.086-2.715-8.418 0-5.332 2.715-8.418 2.734-3.106 7.363-3.106 4.59 0 7.324 3.106 2.734 3.086 2.734 8.418zm-3.789 0q0-4.239-1.66-6.29-1.66-2.07-4.61-2.07-2.987 0-4.648 2.07-1.64 2.051-1.64 6.29 0 4.101 1.66 6.23 1.66 2.11 4.629 2.11 2.93 0 4.59-2.09 1.68-2.11 1.68-6.25zM143.03 187.782h-3.672v-2.285q-1.582 1.367-3.3 2.129-1.72.762-3.731.762-3.907 0-6.211-3.008-2.285-3.008-2.285-8.34 0-2.773.78-4.941.802-2.168 2.15-3.692 1.327-1.484 3.085-2.265 1.778-.782 3.672-.782 1.719 0 3.047.371 1.328.352 2.793 1.114v-9.453h3.672zm-3.672-5.37v-12.52q-1.484-.665-2.656-.918-1.172-.254-2.559-.254-3.086 0-4.805 2.148-1.718 2.149-1.718 6.094 0 3.887 1.328 5.918 1.328 2.012 4.258 2.012 1.562 0 3.164-.684 1.601-.703 2.988-1.797zM168.518 177.255h-16.074q0 2.012.605 3.515.606 1.485 1.66 2.442 1.016.937 2.403 1.406 1.406.469 3.086.469 2.226 0 4.472-.879 2.266-.898 3.223-1.758h.195v4.004q-1.855.781-3.789 1.309-1.933.527-4.062.527-5.43 0-8.477-2.93-3.047-2.949-3.047-8.36 0-5.35 2.91-8.495 2.93-3.145 7.696-3.145 4.414 0 6.797 2.578 2.402 2.579 2.402 7.325zm-3.574-2.813q-.02-2.89-1.465-4.472-1.426-1.582-4.355-1.582-2.95 0-4.707 1.738-1.739 1.738-1.973 4.316zM192.327 187.782h-3.672V175.36q0-1.504-.176-2.812-.176-1.328-.644-2.07-.489-.82-1.407-1.211-.918-.41-2.383-.41-1.503 0-3.144.742-1.64.742-3.145 1.894v16.29h-3.671v-21.817h3.671v2.422q1.72-1.426 3.555-2.227 1.836-.8 3.77-.8 3.535 0 5.39 2.128 1.856 2.13 1.856 6.133zM216.35 187.782h-3.652v-2.324q-.488.332-1.328.937-.82.586-1.602.938-.918.45-2.11.742-1.19.313-2.792.313-2.95 0-5-1.953-2.051-1.954-2.051-4.981 0-2.48 1.055-4.004 1.074-1.543 3.047-2.422 1.992-.879 4.785-1.191 2.793-.313 5.996-.469v-.566q0-1.25-.45-2.07-.43-.82-1.25-1.29-.78-.449-1.874-.605-1.094-.156-2.286-.156-1.445 0-3.222.39-1.778.371-3.672 1.094h-.195v-3.73q1.074-.293 3.105-.645 2.031-.352 4.004-.352 2.305 0 4.004.391 1.719.371 2.969 1.29 1.23.898 1.875 2.323.644 1.426.644 3.535zm-3.652-5.37v-6.075q-1.68.098-3.965.293-2.266.195-3.594.566-1.582.45-2.558 1.406-.977.938-.977 2.598 0 1.875 1.133 2.832 1.133.938 3.457.938 1.933 0 3.535-.743 1.602-.761 2.969-1.816zM255.295 187.782h-3.671V175.36q0-1.406-.137-2.715-.117-1.308-.527-2.09-.45-.84-1.29-1.269-.84-.43-2.421-.43-1.543 0-3.086.782-1.543.761-3.086 1.953.058.449.097 1.054.04.586.04 1.172v13.965h-3.672V175.36q0-1.445-.137-2.734-.117-1.309-.527-2.09-.45-.84-1.29-1.25-.84-.43-2.421-.43-1.504 0-3.028.743-1.504.742-3.008 1.894v16.29h-3.671v-21.817h3.671v2.422q1.72-1.426 3.418-2.227 1.72-.8 3.653-.8 2.226 0 3.77.937 1.562.937 2.324 2.597 2.226-1.875 4.062-2.695 1.836-.84 3.926-.84 3.594 0 5.293 2.188 1.719 2.168 1.719 6.074zM280.627 177.255h-16.074q0 2.012.606 3.515.605 1.485 1.66 2.442 1.016.937 2.402 1.406 1.406.469 3.086.469 2.227 0 4.473-.879 2.265-.898 3.222-1.758h.196v4.004q-1.856.781-3.79 1.309-1.933.527-4.062.527-5.43 0-8.476-2.93-3.047-2.949-3.047-8.36 0-5.35 2.91-8.495 2.93-3.145 7.695-3.145 4.414 0 6.797 2.578 2.402 2.579 2.402 7.325zm-3.574-2.813q-.02-2.89-1.465-4.472-1.425-1.582-4.355-1.582-2.95 0-4.707 1.738-1.738 1.738-1.973 4.316zM296.077 195.438H285.92v-2.793h6.758v-32.46h-6.758v-2.793h10.157z"/></g><g style="line-height:1.25;-inkscape-font-specification:mustard" aria-label="[Codename]" font-weight="400" font-size="40" font-family="mustard" letter-spacing="0" word-spacing="0" fill="#000"><path d="M66.077 195.438H55.92v-38.046h10.157v2.793h-6.758v32.46h6.758zM95.823 185.673q-1.074.469-1.953.879-.86.41-2.266.86-1.191.37-2.598.624-1.386.274-3.066.274-3.164 0-5.762-.88-2.578-.898-4.492-2.792-1.875-1.856-2.93-4.707-1.054-2.871-1.054-6.66 0-3.594 1.015-6.426 1.016-2.832 2.93-4.785 1.855-1.895 4.473-2.891 2.636-.996 5.84-.996 2.343 0 4.667.566 2.344.567 5.196 1.992v4.59h-.293q-2.403-2.011-4.766-2.93-2.363-.917-5.058-.917-2.207 0-3.985.722-1.758.703-3.144 2.207-1.348 1.465-2.11 3.711-.742 2.227-.742 5.156 0 3.067.82 5.274.84 2.207 2.149 3.594 1.367 1.445 3.183 2.148 1.836.684 3.868.684 2.793 0 5.234-.957t4.57-2.871h.274zM119.631 176.884q0 5.332-2.734 8.418-2.734 3.086-7.324 3.086-4.63 0-7.363-3.086-2.715-3.086-2.715-8.418 0-5.332 2.715-8.418 2.734-3.106 7.363-3.106 4.59 0 7.324 3.106 2.734 3.086 2.734 8.418zm-3.789 0q0-4.239-1.66-6.29-1.66-2.07-4.61-2.07-2.987 0-4.648 2.07-1.64 2.051-1.64 6.29 0 4.101 1.66 6.23 1.66 2.11 4.629 2.11 2.93 0 4.59-2.09 1.68-2.11 1.68-6.25zM143.03 187.782h-3.672v-2.285q-1.582 1.367-3.3 2.129-1.72.762-3.731.762-3.907 0-6.211-3.008-2.285-3.008-2.285-8.34 0-2.773.78-4.941.802-2.168 2.15-3.692 1.327-1.484 3.085-2.265 1.778-.782 3.672-.782 1.719 0 3.047.371 1.328.352 2.793 1.114v-9.453h3.672zm-3.672-5.37v-12.52q-1.484-.665-2.656-.918-1.172-.254-2.559-.254-3.086 0-4.805 2.148-1.718 2.149-1.718 6.094 0 3.887 1.328 5.918 1.328 2.012 4.258 2.012 1.562 0 3.164-.684 1.601-.703 2.988-1.797zM168.518 177.255h-16.074q0 2.012.605 3.515.606 1.485 1.66 2.442 1.016.937 2.403 1.406 1.406.469 3.086.469 2.226 0 4.472-.879 2.266-.898 3.223-1.758h.195v4.004q-1.855.781-3.789 1.309-1.933.527-4.062.527-5.43 0-8.477-2.93-3.047-2.949-3.047-8.36 0-5.35 2.91-8.495 2.93-3.145 7.696-3.145 4.414 0 6.797 2.578 2.402 2.579 2.402 7.325zm-3.574-2.813q-.02-2.89-1.465-4.472-1.426-1.582-4.355-1.582-2.95 0-4.707 1.738-1.739 1.738-1.973 4.316zM192.327 187.782h-3.672V175.36q0-1.504-.176-2.812-.176-1.328-.644-2.07-.489-.82-1.407-1.211-.918-.41-2.383-.41-1.503 0-3.144.742-1.64.742-3.145 1.894v16.29h-3.671v-21.817h3.671v2.422q1.72-1.426 3.555-2.227 1.836-.8 3.77-.8 3.535 0 5.39 2.128 1.856 2.13 1.856 6.133zM216.35 187.782h-3.652v-2.324q-.488.332-1.328.937-.82.586-1.602.938-.918.45-2.11.742-1.19.313-2.792.313-2.95 0-5-1.953-2.051-1.954-2.051-4.981 0-2.48 1.055-4.004 1.074-1.543 3.047-2.422 1.992-.879 4.785-1.191 2.793-.313 5.996-.469v-.566q0-1.25-.45-2.07-.43-.82-1.25-1.29-.78-.449-1.874-.605-1.094-.156-2.286-.156-1.445 0-3.222.39-1.778.371-3.672 1.094h-.195v-3.73q1.074-.293 3.105-.645 2.031-.352 4.004-.352 2.305 0 4.004.391 1.719.371 2.969 1.29 1.23.898 1.875 2.323.644 1.426.644 3.535zm-3.652-5.37v-6.075q-1.68.098-3.965.293-2.266.195-3.594.566-1.582.45-2.558 1.406-.977.938-.977 2.598 0 1.875 1.133 2.832 1.133.938 3.457.938 1.933 0 3.535-.743 1.602-.761 2.969-1.816zM255.295 187.782h-3.671V175.36q0-1.406-.137-2.715-.117-1.308-.527-2.09-.45-.84-1.29-1.269-.84-.43-2.421-.43-1.543 0-3.086.782-1.543.761-3.086 1.953.058.449.097 1.054.04.586.04 1.172v13.965h-3.672V175.36q0-1.445-.137-2.734-.117-1.309-.527-2.09-.45-.84-1.29-1.25-.84-.43-2.421-.43-1.504 0-3.028.743-1.504.742-3.008 1.894v16.29h-3.671v-21.817h3.671v2.422q1.72-1.426 3.418-2.227 1.72-.8 3.653-.8 2.226 0 3.77.937 1.562.937 2.324 2.597 2.226-1.875 4.062-2.695 1.836-.84 3.926-.84 3.594 0 5.293 2.188 1.719 2.168 1.719 6.074zM280.627 177.255h-16.074q0 2.012.606 3.515.605 1.485 1.66 2.442 1.016.937 2.402 1.406 1.406.469 3.086.469 2.227 0 4.473-.879 2.265-.898 3.222-1.758h.196v4.004q-1.856.781-3.79 1.309-1.933.527-4.062.527-5.43 0-8.476-2.93-3.047-2.949-3.047-8.36 0-5.35 2.91-8.495 2.93-3.145 7.695-3.145 4.414 0 6.797 2.578 2.402 2.579 2.402 7.325zm-3.574-2.813q-.02-2.89-1.465-4.472-1.425-1.582-4.355-1.582-2.95 0-4.707 1.738-1.738 1.738-1.973 4.316zM296.077 195.438H285.92v-2.793h6.758v-32.46h-6.758v-2.793h10.157z"/></g></svg>