<svg xmlns="http://www.w3.org/2000/svg" fill="none" viewBox="0 0 348 348"><path stroke="#000" stroke-width="2" d="M342 5.8H5v337.6h337z"/><g id="e"><path fill="#000" fill-rule="evenodd" d="M31.4 32.1v11l10.8-11Zm24 0-24 24.1v13.4L68.8 32Zm26.6 0L31.4 82.7h13.4l50.6-50.6zm26.6 0L58 82.7h13.4l45.2-45.2V32zm8 18.6-32 32h13.3l18.7-18.6Zm0 26.6-5.4 5.4h5.4z"/><path stroke="#000" stroke-width="2" d="M31.4 32.1h85.2v50.6H31.4Z"/></g><path stroke="#000" stroke-width="2" d="M125.9 31h95.3v73.6H126Z"/><path fill="#000" fill-rule="evenodd" d="M137 46.8h73v42h-73z"/><path fill="#fff" d="M154.3 85.8v-1.3l3.6-3.6h7.2l3.6 3.6V86zm15.6-2.5-3.6-3.6v-7.2l3.6-3.6h1.2v14.4zm-13.2-13.2-2.4-2.4 2.4-2.4h9.6l2.4 2.4-2.4 2.4zm-4.9-3.6V52h1.2l3.7 3.6V63l-3.7 3.6zm6-12-3.5-3.7v-1.2h14.4v1.2l-3.6 3.6zm20.6 31.3v-1.3L182 81h7.2l3.6 3.6V86zm-2.5-2.5V69h1.3l3.6 3.6v7.2l-3.6 3.6zm18.1 0-3.6-3.6v-7.2L194 69h1.2v14.4zm-18-16.8V52h1.2l3.6 3.6V63l-3.6 3.6zm18 0-3.6-3.6v-7.3L194 52h1.2v14.5zm-12-12-3.6-3.7v-1.2h14.4v1.2l-3.6 3.6z"/><path fill="#000" fill-rule="evenodd" d="M33.1 165.4H314v93.4H33z"/><path id="d" fill="#fff" d="M97.2 239.8v-55.4H62.5v55.4zm-41.6 7v-69.4H104v69.3z"/><g id="a"><path stroke="#000" stroke-width="2" d="M95.9 156H63.8l16-27.8z"/><path stroke="#000" d="M88.2 151.2H71.5l8.3-14.2Zm-16.7 0-7.7 4.8m16-27.8v8.8m8.4 14.2 7.7 4.8"/><path fill="#000" fill-rule="evenodd" d="M76.4 145.4h6.9v2.3h-7z"/><path fill="#000" fill-rule="evenodd" d="M81 143v7h-2.3v-7z"/></g><g id="b"><path stroke="#000" stroke-width="2" d="M95.9 268.2H63.8l16 27.8z"/><path stroke="#000" d="M88.2 273H71.5l8.3 14.2zm-16.7 0-7.7-4.8m16 27.8v-8.8m8.4-14.2 7.7-4.8"/><path fill="#000" fill-rule="evenodd" d="M76.4 278.8h6.9v-2.3h-7z"/></g><use href="#a" transform="translate(55.5)"/><use href="#a" transform="translate(131.8)"/><use href="#a" transform="translate(187.3)"/><use href="#b" transform="translate(55.5)"/><use href="#b" transform="translate(131.8)"/><use href="#b" transform="translate(187.3)"/><path id="c" fill="#fff" stroke="none" stroke-width="3.8" d="M166.6 191.3h13.9v13.9h-13.9z"/><use href="#c" transform="translate(0 27.7)"/><use href="#d" transform="translate(55.5)"/><use href="#d" transform="translate(132)"/><use href="#d" transform="translate(187.4)"/><use href="#e" transform="translate(199)"/></svg>