<svg xmlns="http://www.w3.org/2000/svg" xmlns:xlink="http://www.w3.org/1999/xlink" id="Layer_1" version="1.1" viewBox="0 0 348 348"><defs id="defs5"><path id="SVGID_1_" d="M0 0h348v348H0z"/></defs><clipPath id="SVGID_2_"><use id="use7" overflow="visible" xlink:href="#SVGID_1_"/></clipPath><path id="path10" fill="none" stroke="#000" stroke-linejoin="round" stroke-miterlimit="10" stroke-width="2" d="M5 5.8h337v337.7H5z" class="st0" clip-path="url(#SVGID_2_)" transform="rotate(-90 173.5 174.65)"/><path id="path12" d="M133.8 15.7H208v57h-74v-57z" clip-path="url(#SVGID_2_)" transform="rotate(-90 173.5 174.65)"/><path id="path14" fill="#fff" d="M154.5 44c0-2.6.3-4.8.8-6.4.6-1.7 1.4-3 2.5-3.8 1-1 2.5-1.3 4.2-1.3 1.2 0 2.3.3 3.2.8 1 .5 1.7 1.2 2.3 2 .6 1 1 2.2 1.4 3.5.2 1.3.4 3 .4 5.4 0 2.7-.3 5-.8 6.5-.6 1.6-1.4 3-2.5 3.8-1 1-2.4 1.3-4 1.3-2.3 0-4-.8-5.3-2.4-1.4-2-2.2-5-2.2-9.3zm3 0c0 4 .3 6.4 1.2 7.6 1 1.2 2 2 3.3 2 1.3 0 2.4-.7 3.3-2 1-1.3 1.3-3.8 1.3-7.5s-.4-6.2-1.3-7.4c-1-1.2-2-2-3.3-2-1.3 0-2.3.6-3 1.7-1 1.5-1.6 4-1.6 7.8zm14.8 0c0-2.6.3-4.8.8-6.4.7-1.7 1.5-3 2.6-3.8 1-1 2.5-1.3 4.2-1.3 1.2 0 2.3.3 3.2.8 1 .5 1.7 1.2 2.3 2 .6 1 1 2.2 1.4 3.5.3 1.3.5 3 .5 5.4 0 2.7-.3 5-.8 6.5-.6 1.6-1.4 3-2.5 3.8-1.2 1-2.6 1.3-4.3 1.3-2.2 0-4-.8-5.2-2.4-1.4-2-2.2-5-2.2-9.3zm3 0c0 4 .3 6.4 1.2 7.6 1 1.2 2 2 3.3 2 1.3 0 2.4-.7 3.3-2 1-1.3 1.4-3.8 1.4-7.5s-.4-6.2-1.3-7.4c-.8-1.2-2-2-3.2-2-1.3 0-2.3.6-3 1.7-1 1.5-1.6 4-1.6 7.8zm-160-26.3h110v54.8h-110z" class="st2" clip-path="url(#SVGID_2_)" transform="rotate(-90 173.5 174.65)"/><path id="path16" fill="none" stroke="#000" stroke-linejoin="round" stroke-miterlimit="10" stroke-width="2" d="M15.3 17.7h110v54.8h-110V17.7z" class="st0" clip-path="url(#SVGID_2_)" transform="rotate(-90 173.5 174.65)"/><path id="path18" fill-opacity="0" d="M15.3 72.7l39.7-54" class="st3" clip-path="url(#SVGID_2_)" transform="rotate(-90 173.5 174.65)"/><path id="path20" fill="none" stroke="#000" stroke-linejoin="round" stroke-miterlimit="10" stroke-width="2" d="M15.3 72.7l39.7-54" class="st0" clip-path="url(#SVGID_2_)" transform="rotate(-90 173.5 174.65)"/><path id="path22" fill-opacity="0" d="M37.6 72.7l39.7-54" class="st3" clip-path="url(#SVGID_2_)" transform="rotate(-90 173.5 174.65)"/><path id="path24" fill="none" stroke="#000" stroke-linejoin="round" stroke-miterlimit="10" stroke-width="2" d="M37.6 72.7l39.7-54" class="st0" clip-path="url(#SVGID_2_)" transform="rotate(-90 173.5 174.65)"/><path id="path26" fill-opacity="0" d="M60 72.7l39.6-54" class="st3" clip-path="url(#SVGID_2_)" transform="rotate(-90 173.5 174.65)"/><path id="path28" fill="none" stroke="#000" stroke-linejoin="round" stroke-miterlimit="10" stroke-width="2" d="M60 72.7l39.6-54" class="st0" clip-path="url(#SVGID_2_)" transform="rotate(-90 173.5 174.65)"/><path id="path30" fill-opacity="0" d="M82.2 72.7l39.7-54" class="st3" clip-path="url(#SVGID_2_)" transform="rotate(-90 173.5 174.65)"/><path id="path32" fill="none" stroke="#000" stroke-linejoin="round" stroke-miterlimit="10" stroke-width="2" d="M82.2 72.7l39.7-54" class="st0" clip-path="url(#SVGID_2_)" transform="rotate(-90 173.5 174.65)"/><path id="path34" fill="#fff" d="M217 16.6h109.8v54.8h-110V16.6z" class="st2" clip-path="url(#SVGID_2_)" transform="rotate(-90 173.5 174.65)"/><path id="path36" fill="none" stroke="#000" stroke-linejoin="round" stroke-miterlimit="10" stroke-width="2" d="M217 16.6h109.8v54.8h-110V16.6z" class="st0" clip-path="url(#SVGID_2_)" transform="rotate(-90 173.5 174.65)"/><path id="path38" fill-opacity="0" d="M217 71.6l39.6-54" class="st3" clip-path="url(#SVGID_2_)" transform="rotate(-90 173.5 174.65)"/><path id="path40" fill="none" stroke="#000" stroke-linejoin="round" stroke-miterlimit="10" stroke-width="2" d="M217 71.6l39.6-54" class="st0" clip-path="url(#SVGID_2_)" transform="rotate(-90 173.5 174.65)"/><path id="path42" fill-opacity="0" d="M239.2 71.6l39.7-54" class="st3" clip-path="url(#SVGID_2_)" transform="rotate(-90 173.5 174.65)"/><path id="path44" fill="none" stroke="#000" stroke-linejoin="round" stroke-miterlimit="10" stroke-width="2" d="M239.2 71.6l39.7-54" class="st0" clip-path="url(#SVGID_2_)" transform="rotate(-90 173.5 174.65)"/><path id="path46" fill-opacity="0" d="M261.5 71.6l39.7-54" class="st3" clip-path="url(#SVGID_2_)" transform="rotate(-90 173.5 174.65)"/><path id="path48" fill="none" stroke="#000" stroke-linejoin="round" stroke-miterlimit="10" stroke-width="2" d="M261.5 71.6l39.7-54" class="st0" clip-path="url(#SVGID_2_)" transform="rotate(-90 173.5 174.65)"/><path id="path50" fill-opacity="0" d="M283.8 71.6l39.7-54" class="st3" clip-path="url(#SVGID_2_)" transform="rotate(-90 173.5 174.65)"/><path id="path52" fill="none" stroke="#000" stroke-linejoin="round" stroke-miterlimit="10" stroke-width="2" d="M283.8 71.6l39.7-54" class="st0" clip-path="url(#SVGID_2_)" transform="rotate(-90 173.5 174.65)"/><path id="rect842" fill="none" fill-opacity="1" fill-rule="nonzero" stroke="#000" stroke-dasharray="none" stroke-dashoffset="0" stroke-linecap="round" stroke-linejoin="round" stroke-miterlimit="4" stroke-opacity="1" stroke-width="1.775" d="M104.542 315.55h21.39v21.392h-21.39z"/><path id="rect844" fill="none" fill-opacity="1" fill-rule="nonzero" stroke="#000" stroke-dasharray="none" stroke-dashoffset="0" stroke-linecap="round" stroke-linejoin="round" stroke-miterlimit="4" stroke-opacity="1" stroke-width="1.775" d="M125.933 315.55h21.391v21.392h-21.391z"/><path id="rect846" fill="none" fill-opacity="1" fill-rule="nonzero" stroke="#000" stroke-dasharray="none" stroke-dashoffset="0" stroke-linecap="round" stroke-linejoin="round" stroke-miterlimit="4" stroke-opacity="1" stroke-width="1.775" d="M147.324 315.55h21.391v21.392h-21.391z"/><path id="rect848" fill="none" fill-opacity="1" fill-rule="nonzero" stroke="#000" stroke-dasharray="none" stroke-dashoffset="0" stroke-linecap="round" stroke-linejoin="round" stroke-miterlimit="4" stroke-opacity="1" stroke-width="1.775" d="M168.715 315.55h21.391v21.392h-21.39z"/><path id="rect850" fill="none" fill-opacity="1" fill-rule="nonzero" stroke="#000" stroke-dasharray="none" stroke-dashoffset="0" stroke-linecap="round" stroke-linejoin="round" stroke-miterlimit="4" stroke-opacity="1" stroke-width="1.775" d="M190.106 315.55h21.392v21.392h-21.392z"/><path id="rect852" fill="none" fill-opacity="1" fill-rule="nonzero" stroke="#000" stroke-dasharray="none" stroke-dashoffset="0" stroke-linecap="round" stroke-linejoin="round" stroke-miterlimit="4" stroke-opacity="1" stroke-width="1.775" d="M211.498 315.55h21.39v21.392h-21.39z"/><path id="rect854" fill="none" fill-opacity="1" fill-rule="nonzero" stroke="#000" stroke-dasharray="none" stroke-dashoffset="0" stroke-linecap="round" stroke-linejoin="round" stroke-miterlimit="4" stroke-opacity="1" stroke-width="1.775" d="M232.889 315.55h21.391v21.392H232.89z"/><path id="rect856" fill="none" fill-opacity="1" fill-rule="nonzero" stroke="#000" stroke-dasharray="none" stroke-dashoffset="0" stroke-linecap="round" stroke-linejoin="round" stroke-miterlimit="4" stroke-opacity="1" stroke-width="1.775" d="M254.28 315.55h21.391v21.392h-21.39z"/><path id="rect858" fill="none" fill-opacity="1" fill-rule="nonzero" stroke="#000" stroke-dasharray="none" stroke-dashoffset="0" stroke-linecap="round" stroke-linejoin="round" stroke-miterlimit="4" stroke-opacity="1" stroke-width="1.775" d="M275.671 315.55h21.392v21.392H275.67z"/><path id="rect860" fill="none" fill-opacity="1" fill-rule="nonzero" stroke="#000" stroke-dasharray="none" stroke-dashoffset="0" stroke-linecap="round" stroke-linejoin="round" stroke-miterlimit="4" stroke-opacity="1" stroke-width="1.775" d="M297.063 315.55h21.39v21.392h-21.39z"/><path id="rect890" fill="none" fill-opacity="1" fill-rule="nonzero" stroke="#000" stroke-dasharray="none" stroke-dashoffset="0" stroke-linecap="round" stroke-linejoin="round" stroke-miterlimit="4" stroke-opacity="1" stroke-width="2" d="M104.542 16.073h213.912v320.869H104.542z"/><path id="rect892" fill="none" fill-opacity="1" fill-rule="nonzero" stroke="#000" stroke-dasharray="none" stroke-dashoffset="0" stroke-linecap="round" stroke-linejoin="round" stroke-miterlimit="4" stroke-opacity="1" stroke-width="1.775" d="M104.542 294.16h21.39v21.39h-21.39z"/><path id="rect894" fill="none" fill-opacity="1" fill-rule="nonzero" stroke="#000" stroke-dasharray="none" stroke-dashoffset="0" stroke-linecap="round" stroke-linejoin="round" stroke-miterlimit="4" stroke-opacity="1" stroke-width="1.775" d="M125.933 294.16h21.391v21.39h-21.391z"/><path id="rect896" fill="none" fill-opacity="1" fill-rule="nonzero" stroke="#000" stroke-dasharray="none" stroke-dashoffset="0" stroke-linecap="round" stroke-linejoin="round" stroke-miterlimit="4" stroke-opacity="1" stroke-width="1.775" d="M147.324 294.16h21.391v21.39h-21.391z"/><path id="rect898" fill="none" fill-opacity="1" fill-rule="nonzero" stroke="#000" stroke-dasharray="none" stroke-dashoffset="0" stroke-linecap="round" stroke-linejoin="round" stroke-miterlimit="4" stroke-opacity="1" stroke-width="1.775" d="M168.715 294.16h21.391v21.39h-21.39z"/><path id="rect900" fill="none" fill-opacity="1" fill-rule="nonzero" stroke="#000" stroke-dasharray="none" stroke-dashoffset="0" stroke-linecap="round" stroke-linejoin="round" stroke-miterlimit="4" stroke-opacity="1" stroke-width="1.775" d="M190.106 294.16h21.392v21.39h-21.392z"/><path id="rect902" fill="none" fill-opacity="1" fill-rule="nonzero" stroke="#000" stroke-dasharray="none" stroke-dashoffset="0" stroke-linecap="round" stroke-linejoin="round" stroke-miterlimit="4" stroke-opacity="1" stroke-width="1.775" d="M211.498 294.16h21.39v21.39h-21.39z"/><path id="rect904" fill="none" fill-opacity="1" fill-rule="nonzero" stroke="#000" stroke-dasharray="none" stroke-dashoffset="0" stroke-linecap="round" stroke-linejoin="round" stroke-miterlimit="4" stroke-opacity="1" stroke-width="1.775" d="M232.889 294.16h21.391v21.39H232.89z"/><path id="rect906" fill="none" fill-opacity="1" fill-rule="nonzero" stroke="#000" stroke-dasharray="none" stroke-dashoffset="0" stroke-linecap="round" stroke-linejoin="round" stroke-miterlimit="4" stroke-opacity="1" stroke-width="1.775" d="M254.28 294.16h21.391v21.39h-21.39z"/><path id="rect908" fill="none" fill-opacity="1" fill-rule="nonzero" stroke="#000" stroke-dasharray="none" stroke-dashoffset="0" stroke-linecap="round" stroke-linejoin="round" stroke-miterlimit="4" stroke-opacity="1" stroke-width="1.775" d="M275.671 294.16h21.392v21.39H275.67z"/><path id="rect910" fill="none" fill-opacity="1" fill-rule="nonzero" stroke="#000" stroke-dasharray="none" stroke-dashoffset="0" stroke-linecap="round" stroke-linejoin="round" stroke-miterlimit="4" stroke-opacity="1" stroke-width="1.775" d="M297.063 294.16h21.39v21.39h-21.39z"/><path id="rect912" fill="none" fill-opacity="1" fill-rule="nonzero" stroke="#000" stroke-dasharray="none" stroke-dashoffset="0" stroke-linecap="round" stroke-linejoin="round" stroke-miterlimit="4" stroke-opacity="1" stroke-width="1.775" d="M104.542 272.768h21.39v21.391h-21.39z"/><path id="rect914" fill="none" fill-opacity="1" fill-rule="nonzero" stroke="#000" stroke-dasharray="none" stroke-dashoffset="0" stroke-linecap="round" stroke-linejoin="round" stroke-miterlimit="4" stroke-opacity="1" stroke-width="1.775" d="M125.933 272.768h21.391v21.391h-21.391z"/><path id="rect916" fill="none" fill-opacity="1" fill-rule="nonzero" stroke="#000" stroke-dasharray="none" stroke-dashoffset="0" stroke-linecap="round" stroke-linejoin="round" stroke-miterlimit="4" stroke-opacity="1" stroke-width="1.775" d="M147.324 272.768h21.391v21.391h-21.391z"/><path id="rect918" fill="none" fill-opacity="1" fill-rule="nonzero" stroke="#000" stroke-dasharray="none" stroke-dashoffset="0" stroke-linecap="round" stroke-linejoin="round" stroke-miterlimit="4" stroke-opacity="1" stroke-width="1.775" d="M168.715 272.768h21.391v21.391h-21.39z"/><path id="rect920" fill="none" fill-opacity="1" fill-rule="nonzero" stroke="#000" stroke-dasharray="none" stroke-dashoffset="0" stroke-linecap="round" stroke-linejoin="round" stroke-miterlimit="4" stroke-opacity="1" stroke-width="1.775" d="M190.106 272.768h21.392v21.391h-21.392z"/><path id="rect922" fill="none" fill-opacity="1" fill-rule="nonzero" stroke="#000" stroke-dasharray="none" stroke-dashoffset="0" stroke-linecap="round" stroke-linejoin="round" stroke-miterlimit="4" stroke-opacity="1" stroke-width="1.775" d="M211.498 272.768h21.39v21.391h-21.39z"/><path id="rect924" fill="none" fill-opacity="1" fill-rule="nonzero" stroke="#000" stroke-dasharray="none" stroke-dashoffset="0" stroke-linecap="round" stroke-linejoin="round" stroke-miterlimit="4" stroke-opacity="1" stroke-width="1.775" d="M232.889 272.768h21.391v21.391H232.89z"/><path id="rect926" fill="none" fill-opacity="1" fill-rule="nonzero" stroke="#000" stroke-dasharray="none" stroke-dashoffset="0" stroke-linecap="round" stroke-linejoin="round" stroke-miterlimit="4" stroke-opacity="1" stroke-width="1.775" d="M254.28 272.768h21.391v21.391h-21.39z"/><path id="rect928" fill="none" fill-opacity="1" fill-rule="nonzero" stroke="#000" stroke-dasharray="none" stroke-dashoffset="0" stroke-linecap="round" stroke-linejoin="round" stroke-miterlimit="4" stroke-opacity="1" stroke-width="1.775" d="M275.671 272.768h21.392v21.391H275.67z"/><path id="rect930" fill="none" fill-opacity="1" fill-rule="nonzero" stroke="#000" stroke-dasharray="none" stroke-dashoffset="0" stroke-linecap="round" stroke-linejoin="round" stroke-miterlimit="4" stroke-opacity="1" stroke-width="1.775" d="M297.063 272.768h21.39v21.391h-21.39z"/></svg>