<svg xmlns="http://www.w3.org/2000/svg" viewBox="0 0 348 348" fill="none"><path d="M5.079 5.776h336.913v337.67H5.08z" stroke-width="2" stroke="#000"/><path d="M282.734 40.554c0-8.376 6.966-15.165 15.56-15.165 4.126 0 8.084 1.597 11.001 4.441 2.918 2.844 4.558 6.702 4.558 10.724 0 8.376-6.966 15.165-15.56 15.165-8.593 0-15.559-6.79-15.559-15.165z" stroke-width="2" stroke="#000"/><path fill="#fff" stroke="#000" d="M23.593 38.339h241.831v57.508H23.593zM303.763 115.017h28.017V174h-28.017zM267.746 115.017h28.017V174h-28.017zM303.763 194h28.017v58.983h-28.017zM267.746 194h28.017v58.983h-28.017zM303.763 272.983h28.017v58.983h-28.017zM267.746 272.983h28.017v58.983h-28.017zM23.593 114.915h66.356v42.763H23.593zM105.949 114.915h66.356v42.763h-66.356zM188.305 114.915h66.356v42.763h-66.356zM23.593 173.678h66.356v42.763H23.593zM105.949 173.678h66.356v42.763h-66.356zM188.305 173.678h66.356v42.763h-66.356zM23.593 232.441h66.356v42.763H23.593zM105.949 232.441h66.356v42.763h-66.356zM188.305 232.441h66.356v42.763h-66.356zM23.593 291.203h66.356v42.763H23.593zM105.949 291.203h66.356v42.763h-66.356zM188.305 291.203h66.356v42.763h-66.356z"/></svg>