<svg xmlns="http://www.w3.org/2000/svg" fill="none" viewBox="0 0 348 348"><path stroke="#000" stroke-width="2" d="M5 5.8h337v337.6H5z"/><path stroke="#000" stroke-width="2" d="M282.7 40.6c0-8.4 7-15.2 15.6-15.2 4.1 0 8 1.6 11 4.4a15 15 0 014.6 10.8c0 8.3-7 15.1-15.6 15.1s-15.6-6.8-15.6-15.2z"/><g stroke="#000" stroke-width="1.5"><circle cx="33.2" cy="148.4" r="9" fill="#ff0"/><circle cx="33.2" cy="174" r="9" fill="#f0f"/><circle cx="33.2" cy="199.6" r="9" fill="#fff"/><circle cx="58.8" cy="148.4" r="9" fill="#0ff"/><circle cx="58.8" cy="174" r="9" fill="red"/><circle cx="58.8" cy="199.6" r="9" fill="#000"/><circle cx="97.2" cy="148.4" r="9" fill="#0ff"/><circle cx="97.2" cy="174" r="9" fill="red"/><circle cx="97.2" cy="199.6" r="9" fill="#00f"/><circle cx="122.8" cy="148.4" r="9" fill="red"/><circle cx="122.8" cy="174" r="9" fill="#000"/><circle cx="122.8" cy="199.6" r="9" fill="#00f"/><circle cx="161.2" cy="148.4" r="9" fill="#ff0"/><circle cx="161.2" cy="174" r="9" fill="#00f"/><circle cx="161.2" cy="199.6" r="9" fill="#0f0"/><circle cx="186.8" cy="148.4" r="9" fill="#0ff"/><circle cx="186.8" cy="174" r="9" fill="#ff0"/><circle cx="186.8" cy="199.6" r="9" fill="#0f0"/><circle cx="225.2" cy="148.4" r="9" fill="#0f0"/><circle cx="225.2" cy="174" r="9" fill="#00f"/><circle cx="225.2" cy="199.6" r="9" fill="#fff"/><circle cx="250.8" cy="148.4" r="9" fill="#f0f"/><circle cx="250.8" cy="174" r="9" fill="#fff"/><circle cx="250.8" cy="199.6" r="9" fill="#000"/><circle cx="289.2" cy="148.4" r="9" fill="#fff"/><circle cx="289.2" cy="174" r="9" fill="#0ff"/><circle cx="289.2" cy="199.6" r="9" fill="#ff0"/><circle cx="314.8" cy="148.4" r="9" fill="#00f"/><circle cx="314.8" cy="174" r="9" fill="#0f0"/><circle cx="314.8" cy="199.6" r="9" fill="#f0f"/></g></svg>