<?xml version="1.0" encoding="UTF-8" standalone="no"?>
<svg
   xmlns:dc="http://purl.org/dc/elements/1.1/"
   xmlns:cc="http://creativecommons.org/ns#"
   xmlns:rdf="http://www.w3.org/1999/02/22-rdf-syntax-ns#"
   xmlns:svg="http://www.w3.org/2000/svg"
   xmlns="http://www.w3.org/2000/svg"
   xmlns:sodipodi="http://sodipodi.sourceforge.net/DTD/sodipodi-0.dtd"
   xmlns:inkscape="http://www.inkscape.org/namespaces/inkscape"
   version="1.1"
   viewBox="0.0 0.0 348.0 348.0"
   fill="none"
   stroke="none"
   stroke-linecap="square"
   stroke-miterlimit="10"
   id="svg3697"
   sodipodi:docname="colormath.svg"
   inkscape:version="0.92.1 r15371">
  <metadata
     id="metadata3703">
    <rdf:RDF>
      <cc:Work
         rdf:about="">
        <dc:format>image/svg+xml</dc:format>
        <dc:type
           rdf:resource="http://purl.org/dc/dcmitype/StillImage" />
      </cc:Work>
    </rdf:RDF>
  </metadata>
  <defs
     id="defs3701" />
  <sodipodi:namedview
     pagecolor="#ffffff"
     bordercolor="#666666"
     borderopacity="1"
     objecttolerance="10"
     gridtolerance="10"
     guidetolerance="10"
     inkscape:pageopacity="0"
     inkscape:pageshadow="2"
     inkscape:window-width="1366"
     inkscape:window-height="705"
     id="namedview3699"
     showgrid="false"
     inkscape:zoom="1.5402299"
     inkscape:cx="174"
     inkscape:cy="174"
     inkscape:window-x="-8"
     inkscape:window-y="-8"
     inkscape:window-maximized="1"
     inkscape:current-layer="svg3697" />
  <clipPath
     id="p.0">
    <path
       d="m0 0l348.0 0l0 348.0l-348.0 0l0 -348.0z"
       clip-rule="nonzero"
       id="path3680" />
  </clipPath>
  <g
     clip-path="url(#p.0)"
     id="g3695">
    <path
       d="m0 0l348.0 0l0 348.0l-348.0 0z"
       id="path3683"
       fill-rule="nonzero"
       fill-opacity="0.0"
       fill="#000000" />
    <path
       d="m-6.0 0l348.0 0l0 347.9685l-348.0 0z"
       id="path3685"
       fill-rule="nonzero"
       fill="#ffffff" />
    <path
       d="m5.07874 5.7758217l336.9134 0l0 337.6693l-336.9134 0z"
       id="path3687"
       fill-rule="nonzero"
       fill-opacity="0.0"
       fill="#000000" />
    <path
       d="m5.07874 5.7758217l336.9134 0l0 337.6693l-336.9134 0z"
       id="path3689"
       stroke-linejoin="round"
       stroke-linecap="butt"
       stroke-width="2.0"
       stroke="#000000"
       fill-rule="nonzero" />
    <path
       d="m282.73444 40.553925l0 0c0 -8.375591 6.966034 -15.165352 15.5590515 -15.165352l0 0c4.126526 0 8.084015 1.5977726 11.001923 4.441828c2.9178772 2.844057 4.557129 6.7014217 4.557129 10.723524l0 0c0 8.375595 -6.9660034 15.165356 -15.5590515 15.165356l0 0c-8.593018 0 -15.5590515 -6.7897606 -15.5590515 -15.165356z"
       id="path3691"
       fill-rule="nonzero"
       fill="#ffffff" />
    <path
       d="m282.73444 40.553925l0 0c0 -8.375591 6.966034 -15.165352 15.5590515 -15.165352l0 0c4.126526 0 8.084015 1.5977726 11.001923 4.441828c2.9178772 2.844057 4.557129 6.7014217 4.557129 10.723524l0 0c0 8.375595 -6.9660034 15.165356 -15.5590515 15.165356l0 0c-8.593018 0 -15.5590515 -6.7897606 -15.5590515 -15.165356z"
       id="path3693"
       stroke-linejoin="round"
       stroke-linecap="butt"
       stroke-width="2.0"
       stroke="#000000"
       fill-rule="nonzero" />
  </g>
  <ellipse
     style="fill:none;stroke:#000000"
     id="path3705"
     cx="33.111938"
     cy="138.83583"
     rx="15.582089"
     ry="16.231344" />
  <ellipse
     style="fill:none;stroke:#000000"
     id="path3705-0"
     cx="33.007462"
     cy="188.72389"
     rx="15.582089"
     ry="16.231344" />
  <ellipse
     style="fill:none;stroke:#000000"
     id="path3705-9"
     cx="32.955223"
     cy="242.71643"
     rx="15.582089"
     ry="16.231344" />
  <ellipse
     style="fill:none;stroke:#000000"
     id="path3705-6"
     cx="34.253731"
     cy="295.95523"
     rx="15.582089"
     ry="16.231344" />
  <ellipse
     style="fill:none;stroke:#000000"
     id="path3705-2"
     cx="315.69403"
     cy="138.94029"
     rx="15.582089"
     ry="16.231344" />
  <ellipse
     style="fill:none;stroke:#000000"
     id="path3705-0-8"
     cx="315.58954"
     cy="188.82835"
     rx="15.582089"
     ry="16.231344" />
  <ellipse
     style="fill:none;stroke:#000000"
     id="path3705-9-9"
     cx="315.53732"
     cy="242.82092"
     rx="15.582089"
     ry="16.231344" />
  <ellipse
     style="fill:none;stroke:#000000"
     id="path3705-6-4"
     cx="316.83582"
     cy="296.05969"
     rx="15.582089"
     ry="16.231344" />
  <rect
     style="fill:none;stroke:#000000;stroke-width:1.63020563"
     id="rect3788"
     width="155.19069"
     height="143.50412"
     x="99.001671"
     y="134.7106" />
  <rect
     style="fill:none;stroke:#000000"
     id="rect3790"
     width="158.41791"
     height="53.238808"
     x="31.164181"
     y="24.022388" />
  <text
     xml:space="preserve"
     style="font-style:normal;font-weight:normal;font-size:40px;line-height:25px;font-family:sans-serif;letter-spacing:0px;word-spacing:0px;fill:#000000;fill-opacity:1;stroke:none;stroke-width:1px;stroke-linecap:butt;stroke-linejoin:miter;stroke-opacity:1"
     x="29.865673"
     y="65.574623"
     id="text3794"><tspan
       sodipodi:role="line"
       id="tspan3792"
       x="29.865673"
       y="65.574623">SUBMIT</tspan></text>
  <text
     xml:space="preserve"
     style="font-style:normal;font-weight:normal;font-size:26.66666603px;line-height:25px;font-family:sans-serif;letter-spacing:0px;word-spacing:0px;fill:#000000;fill-opacity:1;stroke:none;stroke-width:1px;stroke-linecap:butt;stroke-linejoin:miter;stroke-opacity:1"
     x="97.388054"
     y="212.30597"
     id="text39"><tspan
       sodipodi:role="line"
       id="tspan37"
       x="97.388054"
       y="212.30597">&lt;DISPLAY&gt;</tspan></text>
</svg>
