<svg xmlns="http://www.w3.org/2000/svg" viewBox="0 0 89.69 89.85" height="339.6" width="339"><path stroke="#000" d="M4.5 22.28v15.34h15.34V22.28zm15.87 0v15.34h15.35V22.28zm15.88 0v15.34h15.34V22.28zm15.87 0v15.34h15.35V22.28zM20.37 38.15V53.5h15.35V38.15zm15.88 0V53.5h15.34V38.15zm15.87 0V53.5h15.35V38.15zM4.5 54.03v15.34h15.34V54.03zm15.87 0v15.34h15.35V54.03zm15.88 0v15.34h15.34V54.03zm15.87 0v15.34h15.35V54.03zM4.5 69.9v15.35h15.34V69.9zm15.87 0v15.35h15.35V69.9zm15.88 0v15.35h15.34V69.9zm15.87 0v15.35h15.35V69.9z" stroke-width=".26"/><path fill="#bfbfbf" stroke="#010101" d="M4.5 38.15V53.5h15.34V38.15z" stroke-width=".26"/><path stroke="#000" stroke-width=".53" d="M.26.26h89.17V89.6H.26z" fill="none"/><path stroke="#000" stroke-width=".53" d="M73.74 9.47a4.08 4.08 0 014.13-4.02c1.08 0 2.11.42 2.9 1.16A3.97 3.97 0 0182 9.45a4.08 4.08 0 01-4.12 4.02 4.08 4.08 0 01-4.13-4.02z" fill="none"/><g style="line-height:1.25" aria-label="Cor" font-weight="400" font-size="7.06" font-family="sans-serif" fill="#fff" stroke-width=".26"><path d="M42.66 79.37l-.35.15q-.15.07-.4.15-.2.07-.46.11-.24.05-.54.05-.55 0-1.01-.15-.46-.16-.8-.5-.33-.32-.51-.83-.19-.5-.19-1.17 0-.63.18-1.13.18-.5.52-.85.32-.33.79-.5.46-.18 1.03-.18.41 0 .82.1t.92.35v.8h-.06q-.42-.35-.84-.51-.41-.16-.89-.16-.39 0-.7.13-.31.12-.56.38-.23.26-.37.66-.13.4-.13.9 0 .55.15.94.14.39.37.63.25.26.57.38.32.12.68.12.5 0 .92-.17.43-.16.8-.5h.06zM46.86 77.82q0 .94-.49 1.48-.48.55-1.29.55t-1.3-.55q-.48-.54-.48-1.48t.48-1.49q.49-.55 1.3-.55t1.3.55q.48.55.48 1.49zm-.67 0q0-.75-.3-1.11-.29-.37-.8-.37-.53 0-.83.37-.29.36-.29 1.1 0 .73.3 1.1.29.38.81.38t.81-.37q.3-.37.3-1.1zM50.26 76.6h-.03q-.14-.04-.28-.05-.14-.02-.32-.02-.3 0-.58.14-.28.13-.54.34v2.73h-.65v-3.85h.65v.57q.39-.31.68-.44.3-.13.6-.13l.25.01.22.03z"/></g><g style="line-height:1.25" aria-label="Cor" font-weight="400" font-size="7.06" font-family="sans-serif" fill="#fff" stroke-width=".26"><path d="M42.75 47.98l-.35.16q-.15.07-.4.15-.2.06-.45.1-.25.06-.54.06-.56 0-1.02-.16-.46-.16-.8-.49-.32-.33-.51-.83-.19-.5-.19-1.18 0-.63.18-1.13.18-.5.52-.84.33-.34.79-.51.46-.18 1.03-.18.41 0 .82.1.42.1.92.35v.81h-.05q-.43-.35-.84-.51-.42-.17-.9-.17-.38 0-.7.13-.3.13-.55.39-.24.26-.38.66-.13.39-.13.9 0 .55.15.93.15.4.38.64.24.25.56.38.32.12.68.12.5 0 .92-.17.44-.17.81-.5h.05zM46.95 46.43q0 .94-.48 1.49-.49.54-1.3.54t-1.3-.54q-.47-.55-.47-1.49t.48-1.48q.48-.55 1.3-.55.8 0 1.29.55.48.54.48 1.48zm-.67 0q0-.75-.3-1.1-.28-.37-.8-.37-.53 0-.83.36-.28.36-.28 1.11 0 .73.29 1.1.3.37.81.37.52 0 .81-.37.3-.37.3-1.1zM50.36 45.21h-.04l-.28-.05-.32-.01q-.3 0-.58.13-.28.13-.54.34v2.73h-.64v-3.84h.64v.56q.39-.3.68-.43.3-.13.6-.13h.25l.23.04z"/></g><g style="line-height:1.25" aria-label="Cor" font-weight="400" font-size="7.06" font-family="sans-serif" fill="#fff" stroke-width=".26"><path d="M26.71 32.08l-.34.16q-.15.07-.4.15-.21.06-.46.1-.24.06-.54.06-.56 0-1.02-.16-.45-.16-.79-.5-.33-.32-.52-.82-.18-.5-.18-1.18 0-.63.18-1.13.18-.5.51-.84.33-.34.8-.51.46-.18 1.02-.18.42 0 .83.1t.91.35v.81h-.05q-.42-.35-.84-.52-.42-.16-.9-.16-.38 0-.7.13-.3.12-.55.39-.24.26-.37.65-.13.4-.13.91 0 .54.14.93.15.4.38.64.24.25.56.38.33.12.69.12.49 0 .92-.17.43-.17.8-.5h.05zM30.91 30.53q0 .94-.48 1.49-.48.54-1.3.54-.8 0-1.29-.54-.48-.55-.48-1.49t.48-1.48q.48-.55 1.3-.55.8 0 1.3.55.47.54.47 1.48zm-.67 0q0-.75-.29-1.1-.3-.37-.81-.37-.53 0-.82.36-.3.36-.3 1.11 0 .72.3 1.1.3.37.82.37t.8-.37q.3-.37.3-1.1zM34.32 29.31h-.03l-.29-.05-.32-.01q-.3 0-.58.13-.27.13-.53.34v2.73h-.65V28.6h.65v.57q.38-.3.68-.43.3-.14.6-.14.17 0 .24.02.08 0 .23.03z"/></g><g style="line-height:1.25" aria-label="Cor" font-weight="400" font-size="7.06" font-family="sans-serif" fill="#fff" stroke-width=".26"><path d="M42.62 63.35l-.35.15q-.15.08-.4.16-.2.06-.46.1-.24.05-.54.05-.55 0-1.01-.15-.46-.16-.8-.5-.33-.32-.51-.82-.19-.51-.19-1.18 0-.63.18-1.13.18-.5.52-.85.33-.33.79-.5.46-.18 1.03-.18.41 0 .82.1t.92.35v.8h-.05q-.43-.35-.85-.5-.41-.17-.89-.17-.39 0-.7.13-.31.12-.56.39-.23.26-.37.65-.13.4-.13.91 0 .54.15.93.14.4.38.64.24.25.56.37.32.13.68.13.5 0 .92-.17.43-.17.8-.51h.06zM46.82 61.8q0 .94-.49 1.48-.48.55-1.29.55t-1.3-.55q-.48-.54-.48-1.48t.48-1.49q.49-.54 1.3-.54t1.3.54q.48.55.48 1.49zm-.67 0q0-.75-.3-1.11-.29-.37-.8-.37-.53 0-.83.37-.29.36-.29 1.1 0 .73.3 1.1.29.38.81.38t.81-.37q.3-.37.3-1.1zM50.22 60.58h-.03q-.14-.04-.28-.05-.14-.02-.32-.02-.3 0-.58.14-.28.13-.54.34v2.73h-.65v-3.85h.65v.57q.39-.3.68-.44.3-.13.6-.13l.25.01.22.03z"/></g><g style="line-height:1.25" aria-label="Cor" font-weight="400" font-size="7.06" font-family="sans-serif" fill="#fff" stroke-width=".26"><path d="M42.62 32.35l-.35.15q-.15.08-.4.16-.2.06-.46.1-.24.05-.54.05-.55 0-1.01-.15-.46-.16-.8-.5-.33-.32-.51-.82-.19-.51-.19-1.18 0-.63.18-1.13.18-.5.52-.85.33-.33.79-.5.46-.18 1.03-.18.41 0 .82.1t.92.35v.8h-.05q-.43-.35-.85-.5-.41-.17-.89-.17-.39 0-.7.13-.31.12-.56.39-.23.25-.37.65-.13.4-.13.91 0 .54.15.93.14.39.38.63.24.26.56.38.32.12.68.12.5 0 .92-.16.43-.17.8-.51h.06zM46.82 30.8q0 .94-.49 1.48-.48.55-1.29.55t-1.3-.55q-.48-.54-.48-1.48t.48-1.49q.49-.54 1.3-.54t1.3.54q.48.55.48 1.49zm-.67 0q0-.75-.3-1.11-.29-.37-.8-.37-.53 0-.83.37-.29.36-.29 1.1 0 .73.3 1.1.29.38.81.38t.81-.37q.3-.37.3-1.1zM50.22 29.58h-.03q-.14-.04-.28-.05-.14-.02-.32-.02-.3 0-.58.14-.28.13-.54.34v2.73h-.65v-3.85h.65v.57q.39-.31.68-.44.3-.13.6-.13l.25.01.22.03z"/></g><g style="line-height:1.25" aria-label="Cor" font-weight="400" font-size="7.06" font-family="sans-serif" fill="#fff" stroke-width=".26"><path d="M58.5 79.51l-.35.15q-.15.08-.4.16-.21.06-.46.1-.25.06-.54.06-.56 0-1.02-.16-.45-.16-.8-.5-.32-.32-.5-.82-.2-.51-.2-1.18 0-.63.19-1.13.17-.5.51-.85.33-.33.8-.5.46-.18 1.02-.18.42 0 .83.1.4.1.91.35v.81h-.05q-.42-.36-.84-.52-.42-.16-.9-.16-.38 0-.7.13-.3.12-.55.39-.24.26-.37.65-.13.4-.13.91 0 .54.14.93.15.4.38.64.24.25.56.38.33.12.68.12.5 0 .93-.17.43-.17.8-.5h.05zM62.7 77.96q0 .94-.5 1.48-.47.55-1.28.55-.82 0-1.3-.55-.48-.54-.48-1.48t.48-1.49q.48-.54 1.3-.54.8 0 1.29.54.48.55.48 1.49zm-.68 0q0-.75-.29-1.11-.3-.37-.81-.37-.53 0-.82.37-.3.36-.3 1.1 0 .73.3 1.1.3.38.82.38.51 0 .8-.37.3-.37.3-1.1zM66.1 76.74h-.04l-.28-.05q-.13-.02-.32-.02-.3 0-.58.14-.28.13-.53.34v2.73h-.65v-3.85h.65v.57q.38-.3.67-.44.3-.13.6-.13l.25.01.23.03z"/></g><g style="line-height:1.25" aria-label="Cor" font-weight="400" font-size="7.06" font-family="sans-serif" fill="#fff" stroke-width=".26"><path d="M58.58 48.13l-.34.15q-.15.07-.4.15-.21.07-.46.11-.24.05-.54.05-.56 0-1.02-.15-.45-.16-.79-.5-.33-.32-.51-.83-.2-.5-.2-1.17 0-.64.19-1.14.18-.5.52-.84.32-.33.78-.51.47-.18 1.03-.18.42 0 .83.1t.91.36v.8h-.05q-.42-.35-.84-.51-.41-.16-.89-.16-.39 0-.7.12-.31.13-.56.4-.24.25-.37.65t-.13.9q0 .55.14.94.15.39.38.63.24.26.56.38.33.12.69.12.49 0 .92-.17.43-.17.8-.5h.05zM62.78 46.57q0 .95-.48 1.49t-1.29.54q-.82 0-1.3-.54-.48-.54-.48-1.49 0-.94.48-1.48.48-.55 1.3-.55.81 0 1.3.55.47.54.47 1.48zm-.66 0q0-.74-.3-1.1-.29-.37-.81-.37-.53 0-.82.37-.29.36-.29 1.1 0 .73.3 1.1.29.38.81.38t.81-.37q.3-.37.3-1.1zM66.2 45.36h-.04q-.15-.04-.28-.05-.14-.02-.33-.02-.3 0-.57.13-.28.14-.54.35v2.73h-.65v-3.85h.65v.57q.38-.31.68-.44.3-.13.6-.13h.24l.23.04z"/></g><g style="line-height:1.25" aria-label="Cor" font-weight="400" font-size="7.06" font-family="sans-serif" fill="#fff" stroke-width=".26"><path d="M58.45 63.5q-.19.07-.34.15-.15.07-.4.15-.21.06-.46.1-.25.06-.54.06-.56 0-1.02-.16-.45-.16-.79-.49-.33-.33-.52-.83-.18-.5-.18-1.18 0-.63.18-1.13.18-.5.51-.84.33-.34.8-.51.46-.18 1.02-.18.42 0 .83.1.4.1.91.35v.81h-.05q-.42-.35-.84-.51-.42-.17-.9-.17-.38 0-.7.13-.3.12-.55.39-.24.26-.37.65-.13.4-.13.91 0 .55.14.93.15.4.38.64.24.25.56.38.33.12.68.12.5 0 .93-.17.43-.17.8-.5h.05zM62.65 61.94q0 .94-.48 1.49-.48.54-1.3.54-.8 0-1.3-.54-.47-.55-.47-1.49t.48-1.48q.48-.55 1.3-.55.8 0 1.29.55.48.54.48 1.48zm-.67 0q0-.75-.29-1.1-.3-.37-.81-.37-.53 0-.82.36-.3.36-.3 1.11 0 .73.3 1.1.3.37.82.37.51 0 .8-.37.3-.37.3-1.1zM66.06 60.72h-.03l-.29-.05-.32-.01q-.3 0-.58.13-.28.13-.53.34v2.73h-.65v-3.84h.65v.56q.38-.3.67-.43.3-.13.6-.13h.25l.23.04z"/></g><g style="line-height:1.25" aria-label="Cor" font-weight="400" font-size="7.06" font-family="sans-serif" fill="#fff" stroke-width=".26"><path d="M58.45 32.5q-.19.07-.34.15-.15.07-.4.15-.21.06-.46.1-.25.06-.54.06-.56 0-1.02-.16-.45-.16-.79-.5-.33-.32-.52-.82-.18-.5-.18-1.18 0-.63.18-1.13.18-.5.51-.84.33-.34.8-.51.46-.18 1.02-.18.42 0 .83.1.4.1.91.35v.81h-.05q-.42-.35-.84-.52-.42-.16-.9-.16-.38 0-.7.13-.3.12-.55.39-.24.26-.37.65-.13.4-.13.91 0 .54.14.93.15.4.38.64.24.25.56.38.33.12.68.12.5 0 .93-.17.43-.17.8-.5h.05zM62.65 30.94q0 .94-.48 1.49-.48.54-1.3.54-.8 0-1.3-.54-.47-.55-.47-1.49t.48-1.48q.48-.55 1.3-.55.8 0 1.29.55.48.54.48 1.48zm-.67 0q0-.75-.29-1.1-.3-.37-.81-.37-.53 0-.82.36-.3.36-.3 1.11 0 .72.3 1.1.3.37.82.37.51 0 .8-.37.3-.37.3-1.1zM66.06 29.72h-.03l-.29-.05-.32-.01q-.3 0-.58.13-.28.13-.53.34v2.73h-.65v-3.85h.65v.57q.38-.3.67-.43.3-.14.6-.14.18 0 .25.02.08 0 .23.03z"/></g><g style="line-height:1.25" aria-label="Cor" font-weight="400" font-size="7.06" font-family="sans-serif" fill="#fff" stroke-width=".26"><path d="M10.79 79.64l-.35.16q-.15.07-.4.15-.2.07-.46.11-.24.05-.54.05-.56 0-1.01-.16-.46-.15-.8-.49-.33-.33-.51-.83-.19-.5-.19-1.17 0-.64.18-1.14.18-.5.52-.84.32-.33.79-.51.46-.18 1.03-.18.4 0 .82.1.41.1.92.35v.81h-.06q-.42-.35-.84-.51-.41-.16-.89-.16-.39 0-.7.12-.31.13-.56.4-.23.25-.37.65-.13.39-.13.9 0 .55.14.94.15.39.38.63.24.26.57.38.32.12.68.12.49 0 .92-.17.43-.17.8-.5h.06zM14.99 78.1q0 .93-.49 1.48-.48.54-1.29.54-.82 0-1.3-.54-.48-.55-.48-1.49t.48-1.48q.48-.55 1.3-.55.81 0 1.3.55.48.54.48 1.48zm-.67 0q0-.75-.3-1.12-.29-.36-.8-.36-.54 0-.83.36-.29.37-.29 1.11 0 .73.3 1.1.29.38.81.38t.81-.37q.3-.38.3-1.1zM18.4 76.87h-.04l-.28-.04q-.14-.02-.32-.02-.3 0-.58.13-.28.13-.54.34v2.74h-.65v-3.85h.65v.57q.39-.31.68-.44.3-.13.6-.13h.25l.22.04z"/></g><g style="line-height:1.25" aria-label="Cor" font-weight="400" font-size="7.06" font-family="sans-serif" stroke-width=".26"><path d="M10.88 48.26q-.2.08-.35.16-.15.07-.4.15-.2.06-.45.1-.25.06-.55.06-.55 0-1.01-.16-.46-.16-.8-.5-.33-.32-.51-.82-.19-.5-.19-1.18 0-.63.18-1.13.18-.5.52-.85.33-.33.79-.5.46-.18 1.03-.18.41 0 .82.1t.92.35v.81h-.05q-.43-.35-.84-.52-.42-.16-.9-.16-.39 0-.7.13-.31.12-.55.39-.24.26-.38.65-.13.4-.13.91 0 .54.15.93.15.4.38.64.24.25.56.38.32.12.68.12.5 0 .92-.17.43-.17.81-.5h.05zM15.08 46.71q0 .94-.48 1.48-.49.55-1.3.55t-1.3-.55q-.47-.54-.47-1.48t.47-1.49q.49-.54 1.3-.54t1.3.54q.48.55.48 1.49zm-.67 0q0-.75-.3-1.11-.29-.36-.8-.36-.53 0-.83.36-.29.36-.29 1.11 0 .72.3 1.1.29.37.81.37t.81-.37q.3-.37.3-1.1zM18.49 45.49h-.04l-.28-.05q-.14-.02-.32-.02-.3 0-.58.14-.28.13-.54.34v2.73h-.65v-3.85h.65v.57q.39-.3.68-.44.3-.13.6-.13l.25.01.23.04z"/></g><g style="line-height:1.25" aria-label="Cor" font-weight="400" font-size="7.06" font-family="sans-serif" fill="#fff" stroke-width=".26"><path d="M10.75 63.63l-.35.15q-.15.07-.4.15-.2.07-.46.11-.24.05-.54.05-.56 0-1.01-.15-.46-.16-.8-.5-.33-.32-.51-.83-.19-.5-.19-1.17 0-.63.18-1.13.18-.5.52-.85.32-.33.79-.5.46-.18 1.03-.18.4 0 .82.1.41.1.92.35v.8h-.06q-.42-.35-.84-.51-.41-.16-.89-.16-.39 0-.7.13-.31.12-.56.38-.23.26-.37.66-.13.4-.13.9 0 .55.14.94.15.39.38.63.25.26.57.38.32.12.68.12.49 0 .92-.17.43-.16.8-.5h.06zM14.95 62.08q0 .94-.49 1.48-.48.55-1.29.55-.82 0-1.3-.55-.48-.54-.48-1.48t.48-1.49q.48-.55 1.3-.55.81 0 1.3.55.48.55.48 1.49zm-.67 0q0-.75-.3-1.11-.29-.37-.8-.37-.54 0-.83.37-.29.36-.29 1.1 0 .73.3 1.1.29.38.81.38t.81-.37q.3-.37.3-1.1zM18.35 60.86h-.03q-.15-.04-.28-.05-.14-.02-.32-.02-.3 0-.58.14-.28.13-.54.34V64h-.65v-3.85h.65v.57q.39-.31.68-.44.3-.13.6-.13l.25.01.22.03z"/></g><g style="line-height:1.25" aria-label="Cor" font-weight="400" font-size="7.06" font-family="sans-serif" fill="#fff" stroke-width=".26"><path d="M10.75 32.1l-.35.15q-.15.07-.4.15-.2.07-.46.11-.24.05-.54.05-.56 0-1.01-.16-.46-.15-.8-.49-.33-.33-.51-.83-.19-.5-.19-1.17 0-.64.18-1.14.18-.5.52-.84.32-.34.79-.51.46-.18 1.03-.18.4 0 .82.1.41.1.92.35v.81h-.06q-.42-.35-.84-.51-.41-.16-.89-.16-.39 0-.7.12-.31.13-.56.4-.23.25-.37.65-.13.39-.13.9 0 .55.14.94.15.39.38.63.25.26.57.38.32.12.68.12.49 0 .92-.17.43-.17.8-.5h.06zM14.95 30.54q0 .94-.49 1.49-.48.54-1.29.54-.82 0-1.3-.54-.48-.55-.48-1.49t.48-1.48q.48-.55 1.3-.55.81 0 1.3.55.48.54.48 1.48zm-.67 0q0-.74-.3-1.1-.29-.37-.8-.37-.54 0-.83.36-.29.37-.29 1.11 0 .73.3 1.1.29.38.81.38t.81-.37q.3-.38.3-1.1zM18.35 29.32h-.03l-.28-.04q-.14-.02-.32-.02-.3 0-.58.13-.28.13-.54.34v2.74h-.65v-3.85h.65v.57q.39-.31.68-.44.3-.13.6-.13h.25l.22.04z"/></g><g style="line-height:1.25" aria-label="Cor" font-weight="400" font-size="7.06" font-family="sans-serif" fill="#fff" stroke-width=".26"><path d="M26.69 79.24l-.35.16q-.15.07-.4.15-.2.06-.45.11t-.54.05q-.56 0-1.02-.16-.46-.16-.8-.49-.32-.33-.51-.83-.19-.5-.19-1.18 0-.63.18-1.13.18-.5.52-.84.33-.34.79-.51.46-.18 1.03-.18.41 0 .82.1.42.1.92.35v.81h-.05q-.43-.35-.84-.51-.42-.17-.9-.17-.38 0-.7.13-.3.13-.55.4-.24.25-.38.65-.13.39-.13.9 0 .55.15.94.15.38.38.63.24.25.56.38.32.12.68.12.5 0 .92-.17.44-.17.81-.5h.05zM30.89 77.7q0 .93-.48 1.48-.49.54-1.3.54t-1.3-.54q-.47-.55-.47-1.49t.48-1.48q.48-.55 1.3-.55.8 0 1.29.55.48.54.48 1.48zm-.67 0q0-.76-.3-1.12-.28-.36-.8-.36-.53 0-.83.36-.28.36-.28 1.11 0 .73.29 1.1.3.37.81.37.52 0 .81-.37.3-.37.3-1.1zM34.3 76.47h-.04l-.28-.05-.32-.01q-.3 0-.58.13-.28.13-.54.34v2.73h-.64v-3.84h.64v.56q.39-.3.68-.43.3-.13.6-.13h.25l.23.04z"/></g><g style="line-height:1.25" aria-label="Cor" font-weight="400" font-size="7.06" font-family="sans-serif" fill="#fff" stroke-width=".26"><path d="M26.78 47.86l-.34.15q-.15.08-.4.15-.21.07-.46.12-.25.04-.54.04-.56 0-1.02-.15-.45-.16-.79-.5-.33-.32-.52-.82-.18-.51-.18-1.18 0-.63.18-1.13.17-.5.51-.85.33-.33.8-.5.46-.18 1.02-.18.42 0 .83.1.4.1.91.35v.8h-.05q-.42-.35-.84-.5-.42-.17-.9-.17-.38 0-.7.13-.3.12-.55.39-.24.25-.37.65t-.13.91q0 .54.14.93.15.39.38.63.24.26.56.38.33.12.68.12.5 0 .93-.16.43-.17.8-.51h.05zM30.98 46.3q0 .95-.48 1.5-.48.54-1.3.54-.8 0-1.3-.55-.47-.54-.47-1.48t.48-1.49q.48-.55 1.3-.55.8 0 1.29.55.48.55.48 1.49zm-.67 0q0-.74-.29-1.1-.3-.37-.81-.37-.53 0-.82.37-.3.36-.3 1.1 0 .73.3 1.1.3.38.82.38.51 0 .8-.37.3-.37.3-1.1zM34.39 45.09h-.03q-.15-.04-.29-.05-.13-.02-.32-.02-.3 0-.58.14-.28.13-.53.34v2.73h-.65v-3.85h.65v.57q.38-.31.67-.44.3-.13.6-.13l.25.01q.08 0 .23.03z"/></g><g style="line-height:1.25" aria-label="Cor" font-weight="400" font-size="7.06" font-family="sans-serif" fill="#fff" stroke-width=".26"><path d="M26.65 63.22l-.35.16q-.15.07-.4.15-.2.07-.46.11-.24.05-.54.05-.55 0-1.01-.15-.46-.16-.8-.5-.33-.32-.51-.83-.19-.5-.19-1.17 0-.64.18-1.14.18-.5.52-.84.33-.33.79-.51t1.03-.18q.41 0 .82.1t.92.36v.8h-.05q-.43-.35-.85-.51-.41-.16-.89-.16-.39 0-.7.12-.31.13-.56.4-.23.25-.37.65-.13.39-.13.9 0 .55.15.94.14.39.38.63.24.26.56.38.32.12.68.12.5 0 .92-.17.43-.17.8-.5h.06zM30.85 61.67q0 .95-.49 1.49-.48.54-1.29.54t-1.3-.54q-.48-.54-.48-1.49 0-.94.48-1.48.49-.55 1.3-.55t1.3.55q.48.54.48 1.48zm-.67 0q0-.74-.3-1.1-.29-.37-.8-.37-.53 0-.83.37-.29.36-.29 1.1 0 .73.3 1.1.29.38.81.38t.81-.37q.3-.38.3-1.1zM34.25 60.45h-.03l-.28-.04q-.14-.02-.32-.02-.3 0-.58.13-.28.13-.54.34v2.74h-.65v-3.85h.65v.57q.39-.31.68-.44.3-.13.6-.13h.25l.22.04z"/></g></svg>