<svg xmlns="http://www.w3.org/2000/svg" fill="none" stroke-linecap="square" stroke-miterlimit="10" viewBox="0 0 348 348"><clipPath id="a"><path d="M0 0h348v348H0V0z"/></clipPath><g clip-path="url(#a)"><path d="M0 0h348v348H0z"/><path fill="#fff" d="M-6 0h348v347.97H-6z"/><path d="M5.08 5.78h336.91v337.67H5.08z"/><path stroke="#000" stroke-linecap="butt" stroke-linejoin="round" stroke-width="2" d="M5.08 5.78h336.91v337.67H5.08z"/><path fill="#fff" d="M282.73 40.55c0-8.37 6.97-15.16 15.56-15.16 4.13 0 8.09 1.6 11 4.44a14.97 14.97 0 014.56 10.72c0 8.38-6.96 15.17-15.56 15.17-8.59 0-15.56-6.79-15.56-15.17z"/><path stroke="#000" stroke-linecap="butt" stroke-linejoin="round" stroke-width="2" d="M282.73 40.55c0-8.37 6.97-15.16 15.56-15.16 4.13 0 8.09 1.6 11 4.44a14.97 14.97 0 014.56 10.72c0 8.38-6.96 15.17-15.56 15.17-8.59 0-15.56-6.79-15.56-15.17z"/></g><path d="M75.85 73.56h86.85v68.9H75.85z"/><path d="M83.38 75.87h129.7v155.17H83.38zM263.44 137.25h34.16v33h-34.16z"/><path d="M99.01 97.87h100.17v66.01H99.01z"/><path d="M100.75 107.72h94.96v73.53h-94.96z"/><text x="102.48" y="304.73" fill="#fff" stroke-width="1.22" font-family="sans-serif" font-size="48.96" font-weight="400" letter-spacing="0" style="line-height:1.25" word-spacing="0"><tspan x="102.48" y="304.73">A</tspan></text><text x="241.56" y="297.43" fill="#fff" stroke-width=".56" font-family="sans-serif" font-size="22.23" font-weight="400" letter-spacing="0" style="line-height:1.25" word-spacing="0"><tspan x="241.56" y="297.43">SUBMIT</tspan></text><path d="M-158.85 125.28h63.87v95.8h-63.87z"/><path stroke="#000" stroke-width="4.58" d="M22.29 100.19h225.37v225.52H22.29z"/><ellipse cx="48.45" cy="126.95" fill="#000" stroke="#000" stroke-width="1.05" rx="13.41" ry="13.42"/><ellipse cx="83.58" cy="126.95" fill="#b4b4b4" stroke="#000" stroke-width="1.05" rx="13.41" ry="13.42"/><ellipse cx="118.71" cy="126.95" fill="#000" stroke="#000" stroke-width="1.05" rx="13.41" ry="13.42"/><ellipse cx="153.84" cy="126.95" fill="#000" stroke="#000" stroke-width="1.05" rx="13.41" ry="13.42"/><ellipse cx="188.97" cy="126.95" fill="#b4b4b4" stroke="#000" stroke-width="1.05" rx="13.41" ry="13.42"/><ellipse cx="48.45" cy="162.11" fill="#fff" stroke="#000" stroke-width="1.05" rx="13.41" ry="13.42"/><ellipse cx="83.58" cy="162.11" fill="#000" stroke="#000" stroke-width="1.05" rx="13.41" ry="13.42"/><ellipse cx="118.71" cy="162.11" fill="#fff" stroke="#000" stroke-width="1.05" rx="13.41" ry="13.42"/><ellipse cx="153.84" cy="162.11" fill="#5a5a5a" stroke="#000" stroke-width="1.05" rx="13.41" ry="13.42"/><ellipse cx="188.97" cy="162.11" fill="#b4b4b4" stroke="#000" stroke-width="1.05" rx="13.41" ry="13.42"/><ellipse cx="48.45" cy="197.26" fill="#fff" stroke="#000" stroke-width="1.05" rx="13.41" ry="13.42"/><ellipse cx="83.58" cy="197.26" fill="#5a5a5a" stroke="#000" stroke-width="1.05" rx="13.41" ry="13.42"/><ellipse cx="118.71" cy="197.26" fill="#b4b4b4" stroke="#000" stroke-width="1.05" rx="13.41" ry="13.42"/><ellipse cx="153.84" cy="197.26" fill="#000" stroke="#000" stroke-width="1.05" rx="13.41" ry="13.42"/><ellipse cx="188.97" cy="197.26" fill="#5a5a5a" stroke="#000" stroke-width="1.05" rx="13.41" ry="13.42"/><ellipse cx="48.45" cy="232.42" fill="#b4b4b4" stroke="#000" stroke-width="1.05" rx="13.41" ry="13.42"/><ellipse cx="83.58" cy="232.42" fill="#000" stroke="#000" stroke-width="1.05" rx="13.41" ry="13.42"/><ellipse cx="118.71" cy="232.42" fill="#fff" stroke="#000" stroke-width="1.05" rx="13.41" ry="13.42"/><ellipse cx="153.84" cy="232.42" fill="#1e1e1e" stroke="#000" stroke-width="1.05" rx="13.41" ry="13.42"/><ellipse cx="188.97" cy="232.42" fill="#000" stroke="#000" stroke-width="1.05" rx="13.41" ry="13.42"/><ellipse cx="48.45" cy="266.51" fill="#000" stroke="#000" stroke-width="1.05" rx="13.41" ry="13.42"/><ellipse cx="83.58" cy="266.51" fill="#fff" stroke="#000" stroke-width="1.05" rx="13.41" ry="13.42"/><ellipse cx="118.71" cy="266.51" fill="#1e1e1e" stroke="#000" stroke-width="1.05" rx="13.41" ry="13.42"/><ellipse cx="153.84" cy="266.51" fill="#000" stroke="#000" stroke-width="1.05" rx="13.41" ry="13.42"/><ellipse cx="188.97" cy="266.51" fill="#b4b4b4" stroke="#000" stroke-width="1.05" rx="13.41" ry="13.42"/><ellipse cx="224.11" cy="126.95" fill="#fff" stroke="#000" stroke-width="1.05" rx="13.41" ry="13.42"/><ellipse cx="224.11" cy="162.11" fill="#5a5a5a" stroke="#000" stroke-width="1.05" rx="13.41" ry="13.42"/><ellipse cx="224.11" cy="197.26" fill="#000" stroke="#000" stroke-width="1.05" rx="13.41" ry="13.42"/><ellipse cx="224.11" cy="232.42" fill="#000" stroke="#000" stroke-width="1.05" rx="13.41" ry="13.42"/><ellipse cx="224.11" cy="266.51" fill="#5a5a5a" stroke="#000" stroke-width="1.05" rx="13.41" ry="13.42"/><ellipse cx="48.45" cy="301.66" fill="#b4b4b4" stroke="#000" stroke-width="1.05" rx="13.41" ry="13.42"/><ellipse cx="83.58" cy="301.66" fill="#b4b4b4" stroke="#000" stroke-width="1.05" rx="13.41" ry="13.42"/><ellipse cx="118.71" cy="301.66" fill="#000" stroke="#000" stroke-width="1.05" rx="13.41" ry="13.42"/><ellipse cx="153.84" cy="301.66" fill="#5a5a5a" stroke="#000" stroke-width="1.05" rx="13.41" ry="13.42"/><ellipse cx="188.97" cy="301.66" fill="#000" stroke="#000" stroke-width="1.05" rx="13.41" ry="13.42"/><ellipse cx="224.11" cy="301.66" fill="#b4b4b4" stroke="#000" stroke-width="1.05" rx="13.41" ry="13.42"/><path d="M302.96 172.77l-3.87 8.74 5 8.14-9.5-.99-6.2 7.27-2-9.34-8.84-3.65 8.27-4.79.75-9.53 7.1 6.39z"/><path d="M272.67 177.07l18.85-.2 10.51-15.65 6.02 17.86 18.13 5.17-15.13 11.24.69 18.84-15.37-10.91-17.7 6.47 5.63-17.99z"/><path d="M295.4 162.54l-4.8 15.45-4.8 15.46-10.98-11.88-11-11.87 15.79-3.58z"/><path fill="#00000c" stroke="#000" stroke-linecap="round" stroke-linejoin="round" stroke-width="1.18" d="M36.59 69.48h23.82V93.3H36.59z"/><path fill="#fff" d="M48.57 90.5l-5.33-9.22-5.32-9.23h21.3l-5.33 9.23z"/><path fill="#00000c" stroke="#000" stroke-linecap="round" stroke-linejoin="round" stroke-width="1.18" d="M71.59 69.48h23.82V93.3H71.59z"/><path fill="#fff" d="M83.57 90.5l-5.33-9.22-5.32-9.23h21.3l-5.33 9.23z"/><path fill="#00000c" stroke="#000" stroke-linecap="round" stroke-linejoin="round" stroke-width="1.18" d="M106.59 69.48h23.82V93.3h-23.82z"/><path fill="#fff" d="M118.57 90.5l-5.33-9.22-5.32-9.23h21.3l-5.33 9.23z"/><path fill="#00000c" stroke="#000" stroke-linecap="round" stroke-linejoin="round" stroke-width="1.18" d="M141.59 69.48h23.82V93.3h-23.82z"/><path fill="#fff" d="M153.57 90.5l-5.33-9.22-5.32-9.23h21.3l-5.33 9.23z"/><path fill="#00000c" stroke="#000" stroke-linecap="round" stroke-linejoin="round" stroke-width="1.18" d="M176.59 69.48h23.82V93.3h-23.82z"/><path fill="#fff" d="M188.57 90.5l-5.33-9.22-5.32-9.23h21.3l-5.33 9.23z"/><path fill="#00000c" stroke="#000" stroke-linecap="round" stroke-linejoin="round" stroke-width="1.18" d="M211.59 69.48h23.82V93.3h-23.82z"/><path fill="#fff" d="M223.57 90.5l-5.33-9.22-5.32-9.23h21.3l-5.33 9.23z"/><path fill="#00000c" stroke="#000" stroke-linecap="round" stroke-linejoin="round" stroke-width="1.18" d="M278.41 289.59v23.82h-23.82v-23.82z"/><path fill="#fff" d="M257.39 301.57l9.22-5.33 9.23-5.32v21.3l-9.23-5.33z"/><path fill="#00000c" stroke="#000" stroke-linecap="round" stroke-linejoin="round" stroke-width="1.18" d="M278.41 254.59v23.82h-23.82v-23.82z"/><path fill="#fff" d="M257.39 266.57l9.22-5.33 9.23-5.32v21.3l-9.23-5.33z"/><path fill="#00000c" stroke="#000" stroke-linecap="round" stroke-linejoin="round" stroke-width="1.18" d="M278.41 219.59v23.82h-23.82v-23.82z"/><path fill="#fff" d="M257.39 231.57l9.22-5.33 9.23-5.32v21.3l-9.23-5.33z"/><path fill="#00000c" stroke="#000" stroke-linecap="round" stroke-linejoin="round" stroke-width="1.18" d="M278.41 184.59v23.82h-23.82v-23.82z"/><path fill="#fff" d="M257.39 196.57l9.22-5.33 9.23-5.32v21.3l-9.23-5.33z"/><path fill="#00000c" stroke="#000" stroke-linecap="round" stroke-linejoin="round" stroke-width="1.18" d="M278.41 149.59v23.82h-23.82v-23.82z"/><path fill="#fff" d="M257.39 161.57l9.22-5.33 9.23-5.32v21.3l-9.23-5.33z"/><path fill="#00000c" stroke="#000" stroke-linecap="round" stroke-linejoin="round" stroke-width="1.18" d="M278.41 114.59v23.82h-23.82v-23.82z"/><path fill="#fff" d="M257.39 126.57l9.22-5.33 9.23-5.32v21.3l-9.23-5.33z"/><path fill="#000" stroke="#000" stroke-linecap="round" stroke-linejoin="round" stroke-width=".98" d="M145.49 8.49h4.02v54.02h-4.02zM195.49 8.49h4.02v54.02h-4.02z"/><path fill="#000" stroke="#000" stroke-linecap="round" stroke-linejoin="round" stroke-width=".98" d="M145.49 58.49h54.02v4.02h-54.02zM145.49 8.49h54.02v4.02h-54.02z"/><path stroke="#000" stroke-linecap="butt" stroke-width="1.07" d="M160.53 13v45M172.53 13v45M184.53 13v45M150 47.47h45M150 35.47h45M150 23.97h45"/><g fill="#000" stroke="#000"><path stroke-linecap="round" stroke-width=".8" d="M292.4 138.4h4.2v109.2h-4.2z"/><path stroke-linecap="butt" stroke-width=".8" d="M327.4 138.4h4.2v109.2h-4.2z"/><path stroke-linecap="round" stroke-width=".43" d="M297.22 142.78v-4.56h29.56v4.56zM297.22 177.78v-4.56h29.56v4.56zM297.22 212.78v-4.56h29.56v4.56zM297.22 247.78v-4.56h29.56v4.56z"/></g><path fill="#b4b4b4" stroke="#b4b4b4" stroke-linecap="butt" stroke-width=".48" d="M161.24 36.24h10.52v10.52h-10.52z"/><path fill="#b4b4b4" stroke="#b4b4b4" stroke-linecap="butt" stroke-width=".47" d="M173.23 13.23h10.53v10.03h-10.53z"/><path fill="#b4b4b4" stroke="#b4b4b4" stroke-linecap="butt" stroke-width=".45" d="M150.22 24.72h9.55v10.05h-9.55z"/><path fill="#b4b4b4" stroke="#b4b4b4" stroke-linecap="butt" stroke-width=".44" d="M185.22 48.22h9.56v9.56h-9.56z"/><path fill="#5a5a5a" stroke="#5a5a5a" stroke-linecap="butt" stroke-width=".46" d="M185.23 36.23h9.54v10.54h-9.54z"/><path fill="#5a5a5a" stroke="#5a5a5a" stroke-linecap="butt" stroke-width=".47" d="M161.23 13.23h10.53v10.03h-10.53z"/><path fill="#5a5a5a" stroke="#5a5a5a" stroke-linecap="butt" stroke-width=".46" d="M161.23 48.23h10.54v9.54h-10.54z"/><path fill="#1e1e1e" stroke="#1e1e1e" stroke-linecap="butt" stroke-width=".44" d="M150.22 48.22h9.56v9.56h-9.56z"/><path fill="#1e1e1e" stroke="#1e1e1e" stroke-linecap="butt" stroke-width=".47" d="M173.23 24.73h10.53v10.03h-10.53z"/><path fill="#1e1e1e" stroke="#1e1e1e" stroke-linecap="butt" stroke-width=".46" d="M173.23 48.23h10.54v9.54h-10.54z"/><path fill="#1e1e1e" stroke="#1e1e1e" stroke-linecap="butt" stroke-width=".45" d="M185.22 13.22h9.55v10.05h-9.55z"/></svg>