<svg xmlns="http://www.w3.org/2000/svg" viewBox="0.0 0.0 348.0 348.0" fill="none" stroke-linecap="square" stroke-miterlimit="10">
    <clipPath id="a">
        <path d="M0 0h348v348H0V0z"/>
    </clipPath>
    <g clip-path="url(#a)">
        <path d="M0 0h348v348H0z" fill-opacity="0" fill="#000"/>
        <path d="M-6 0h348v347.969H-6z" fill="#fff"/>
        <path d="M5.079 5.776h336.913v337.67H5.08z" fill-opacity="0" fill="#000"/>
        <path d="M5.079 5.776h336.913v337.67H5.08z" stroke-linejoin="round" stroke-linecap="butt" stroke-width="2" stroke="#000"/>
        <path d="M282.734 40.554c0-8.376 6.966-15.165 15.56-15.165 4.126 0 8.084 1.597 11.001 4.441 2.918 2.844 4.558 6.702 4.558 10.724 0 8.376-6.966 15.165-15.56 15.165-8.593 0-15.559-6.79-15.559-15.165z" fill="#fff"/>
        <path d="M282.734 40.554c0-8.376 6.966-15.165 15.56-15.165 4.126 0 8.084 1.597 11.001 4.441 2.918 2.844 4.558 6.702 4.558 10.724 0 8.376-6.966 15.165-15.56 15.165-8.593 0-15.559-6.79-15.559-15.165z" stroke-linejoin="round" stroke-linecap="butt" stroke-width="2" stroke="#000"/>
    </g>
    <ellipse cx="33.112" cy="138.836" rx="15.582" ry="16.231" stroke="#000"/>
    <ellipse cx="33.007" cy="188.724" rx="15.582" ry="16.231" stroke="#000"/>
    <ellipse cx="32.955" cy="242.716" rx="15.582" ry="16.231" stroke="#000"/>
    <ellipse cx="34.254" cy="295.955" rx="15.582" ry="16.231" stroke="#000"/>
    <ellipse cx="315.694" cy="138.94" rx="15.582" ry="16.231" stroke="#000"/>
    <ellipse cx="315.59" cy="188.828" rx="15.582" ry="16.231" stroke="#000"/>
    <ellipse cx="315.537" cy="242.821" rx="15.582" ry="16.231" stroke="#000"/>
    <ellipse cx="316.836" cy="296.06" rx="15.582" ry="16.231" stroke="#000"/>
    <path stroke="#000" stroke-width="1.63" d="M99.002 134.711h155.191v143.504H99.002z"/>
    <path stroke="#000" d="M31.164 24.022h158.418v53.239H31.164z"/>
    <text style="line-height:25px" x="29.866" y="65.575" font-weight="400" font-size="40" font-family="sans-serif" letter-spacing="0" word-spacing="0" fill="#000" stroke-linecap="butt">
        <tspan x="29.866" y="65.575">SUBMIT</tspan>
    </text>
    <text style="line-height:25px" x="97.388" y="212.306" font-weight="400" font-size="26.667" font-family="sans-serif" letter-spacing="0" word-spacing="0" fill="#000" stroke-linecap="butt">
        <tspan x="97.388" y="212.306">&lt;DISPLAY&gt;</tspan>
    </text>
</svg>
