<svg xmlns="http://www.w3.org/2000/svg" xmlns:xlink="http://www.w3.org/1999/xlink" height="640" width="640"><defs><path id="a" d="M612 0v612H0V0h612z"/><path id="b" d="M601.45 0v611.95h-612V0h612z"/><path id="c" d="M601.43 10.16v593.83H8.93V10.16h592.5z"/><path id="d" d="M601.43 10.16v593.83H8.93V10.16h592.5z"/><path id="e" d="M524.59 44.65c7.25 0 14.21 2.81 19.34 7.81 5.13 5 8.02 11.79 8.02 18.86 0 14.73-12.25 26.67-27.36 26.67-15.12 0-27.37-11.94-27.37-26.67 0-14.73 12.25-26.67 27.37-26.67z"/><path id="f" d="M524.59 44.65c7.25 0 14.21 2.81 19.34 7.81 5.13 5 8.02 11.79 8.02 18.86 0 14.73-12.25 26.67-27.36 26.67-15.12 0-27.37-11.94-27.37-26.67 0-14.73 12.25-26.67 27.37-26.67z"/><path id="g" d="M84.5 86.5h331v140h-331v-140z"/><path id="h" d="M31.5 258.5h266v266h-266v-266zm283 0h266v266h-266v-266z"/></defs><use fill-opacity="0" xlink:href="#a"/><use stroke-opacity="0" stroke="#000" fill-opacity="0" xlink:href="#a"/><use stroke-opacity="0" stroke="#000" fill-opacity="0" xlink:href="#b"/><use fill-opacity="0" xlink:href="#c"/><use stroke-opacity="0" stroke="#000" fill-opacity="0" xlink:href="#c"/><use fill-opacity="0" xlink:href="#d"/><use stroke-width="2" stroke="#000" fill-opacity="0" xlink:href="#d"/><use stroke-opacity="0" stroke="#000" fill-opacity="0" xlink:href="#e"/><use fill-opacity="0" xlink:href="#f"/><use stroke-width="2" stroke="#000" fill-opacity="0" xlink:href="#f"/><use xlink:href="#g"/><use stroke-opacity="0" stroke="#000" fill-opacity="0" xlink:href="#g"/><g><use fill-opacity="0" xlink:href="#h"/><use stroke-width="2" stroke="#231f20" fill-opacity="0" xlink:href="#h"/></g><g><g style="line-height:100%" aria-label="[Ecrã]" font-weight="400" font-size="92" font-family="Open Sans" letter-spacing="0" dominant-baseline="text-before-edge" fill="#fff"><path d="M141.81 196.13h-23.36v-87.51h23.36v6.42h-15.54v74.66h15.54zM202.64 178.52h-44.07v-66.9h44.07v7.91h-35.18v18.33h35.18v7.9h-35.18v24.85h35.18zM253.22 175.37q-4.22 2.02-8.04 3.15-3.78 1.12-8.04 1.12-5.44 0-9.98-1.57-4.53-1.62-7.77-4.86-3.28-3.23-5.07-8.17-1.8-4.94-1.8-11.55 0-12.3 6.74-19.31 6.78-7.01 17.88-7.01 4.3 0 8.44 1.21 4.18 1.22 7.64 2.97v9.39h-.45q-3.86-3.01-8-4.63-4.08-1.62-8-1.62-7.18 0-11.36 4.85-4.13 4.81-4.13 14.15 0 9.08 4.04 13.97 4.09 4.86 11.46 4.86 2.56 0 5.2-.68 2.66-.67 4.77-1.75 1.84-.94 3.46-1.98 1.62-1.07 2.56-1.84h.45zM295.4 137.55h-.45q-1.89-.45-3.68-.63-1.75-.23-4.18-.23-3.9 0-7.55 1.76-3.64 1.7-7 4.44v35.63h-8.45v-50.18h8.45v7.41q5.03-4.04 8.84-5.7 3.87-1.71 7.87-1.71 2.2 0 3.19.13.98.1 2.96.4zM342.43 178.52h-8.4v-5.35q-1.12.76-3.05 2.16-1.89 1.34-3.69 2.15-2.1 1.04-4.85 1.71-2.74.72-6.42.72-6.78 0-11.5-4.5-4.72-4.49-4.72-11.45 0-5.7 2.43-9.2 2.47-3.56 7-5.58 4.59-2.02 11.01-2.74 6.43-.72 13.8-1.08v-1.3q0-2.87-1.04-4.76-.99-1.89-2.88-2.97-1.8-1.03-4.3-1.39-2.52-.36-5.26-.36-3.33 0-7.42.9-4.08.85-8.44 2.52h-.45v-8.58q2.47-.68 7.14-1.49 4.67-.8 9.21-.8 5.3 0 9.21.9 3.95.85 6.83 2.96 2.83 2.06 4.31 5.34 1.48 3.28 1.48 8.13zm-8.4-12.36V152.2q-3.86.23-9.12.68-5.2.44-8.26 1.3-3.64 1.03-5.89 3.23-2.24 2.16-2.24 5.98 0 4.31 2.6 6.51 2.6 2.16 7.95 2.16 4.45 0 8.13-1.71 3.69-1.75 6.83-4.18zm7.73-60.37q-.5 6.83-3.46 10.28-2.96 3.46-7.95 3.46-2.43 0-4.5-.85-2.06-.9-3.9-2.56-2.11-1.93-3.6-2.88-1.43-.98-3.18-.98-2.34 0-3.5 2.02-1.18 2.02-1.36 5.43h-5.88q.36-6.78 3.55-10.24t7.81-3.46q2.25 0 4.32.9 2.1.85 4 2.47 2.1 1.84 3.72 2.79 1.67.9 3.15.9 2.29 0 3.55-2.07 1.3-2.07 1.43-5.21zM381.52 196.13h-23.36v-6.43h15.54v-74.66h-15.54v-6.42h23.36z"/></g></g><g><g style="line-height:100%" aria-label="Yes" font-weight="700" font-size="75" font-family="Open Sans" letter-spacing="0" dominant-baseline="text-before-edge"><path d="M142.02 364.17l-20.1 33.43v21.1h-14.07v-20.44l-20.43-34.1h15.96l11.8 21.1 11.38-21.1zM189.04 400.57h-30.18q.3 4.83 3.67 7.4 3.4 2.56 10 2.56 4.17 0 8.09-1.5t6.19-3.22h1.46v10.58q-4.47 1.8-8.42 2.6-3.96.8-8.75.8-12.38 0-18.97-5.56-6.6-5.57-6.6-15.86 0-10.18 6.23-16.11 6.26-5.97 17.14-5.97 10.03 0 15.09 5.09 5.05 5.05 5.05 14.57zm-13.11-7.73q-.11-4.14-2.05-6.22-1.94-2.1-6.04-2.1-3.81 0-6.27 1.99-2.45 1.97-2.74 6.33zM234.08 405.66q0 6.37-5.7 10.29-5.72 3.88-15.65 3.88-5.49 0-9.96-1.02-4.46-1.03-7.17-2.27V405.7h1.2q1 .7 2.27 1.53 1.32.81 3.7 1.76 2.05.84 4.65 1.47 2.6.58 5.57.58 3.88 0 5.75-.84 1.87-.88 1.87-2.56 0-1.5-1.1-2.16-1.1-.7-4.18-1.32-1.46-.33-3.99-.7-2.49-.4-4.54-.95-5.6-1.47-8.31-4.54-2.71-3.11-2.71-7.73 0-5.93 5.6-9.85 5.64-3.95 15.38-3.95 4.62 0 8.83.95 4.25.91 6.63 1.98v10.4h-1.14q-2.93-2.02-6.7-3.26-3.74-1.29-7.58-1.29-3.19 0-5.38.88-2.16.88-2.16 2.5 0 1.46.98 2.23 1 .77 4.65 1.54 2.02.4 4.33.8 2.34.37 4.68.95 5.2 1.36 7.7 4.29 2.48 2.9 2.48 7.25z"/></g></g><g><g style="line-height:100%" aria-label="No" font-weight="700" font-size="75" font-family="Open Sans" letter-spacing="0" dominant-baseline="text-before-edge"><path d="M438.53 419.45h-13.55l-23.15-37.43v37.43h-12.89v-54.53h16.81l19.89 31.24v-31.24h12.89zM493.83 398.9q0 10.15-5.94 16-5.9 5.83-16.59 5.83t-16.62-5.82q-5.9-5.86-5.9-16 0-10.22 5.94-16.05 5.96-5.82 16.58-5.82 10.77 0 16.63 5.86 5.9 5.86 5.9 16zm-16.23 10q1.29-1.57 1.9-3.77.67-2.23.67-6.15 0-3.63-.66-6.08t-1.83-3.92q-1.18-1.5-2.82-2.12-1.65-.63-3.56-.63-1.9 0-3.4.52-1.47.5-2.82 2.05-1.2 1.43-1.94 3.92-.7 2.49-.7 6.26 0 3.37.63 5.86.62 2.45 1.83 3.95 1.17 1.43 2.78 2.09 1.65.66 3.73.66 1.8 0 3.41-.59 1.65-.62 2.78-2.05z"/></g></g></svg>