<svg xmlns:osb="http://www.openswatchbook.org/uri/2009/osb" xmlns="http://www.w3.org/2000/svg" xmlns:xlink="http://www.w3.org/1999/xlink" viewBox="0 0 348 348" fill="none"><defs><linearGradient id="a" osb:paint="solid"><stop offset="0"/></linearGradient><linearGradient id="b" osb:paint="solid"><stop offset="0" stop-color="#fff"/></linearGradient><linearGradient xlink:href="#a" id="d" x1="86.5" y1="206.441" x2="205.466" y2="206.441" gradientUnits="userSpaceOnUse" gradientTransform="matrix(.85007 0 0 .85322 -37.174 4.445)"/><linearGradient xlink:href="#b" id="c" x1="86.5" y1="206.441" x2="205.466" y2="206.441" gradientUnits="userSpaceOnUse" gradientTransform="matrix(.85007 0 0 .85322 -37.174 4.445)"/><linearGradient xlink:href="#b" id="e" gradientUnits="userSpaceOnUse" gradientTransform="matrix(.85007 0 0 .85322 191.92 -12.758)" x1="86.5" y1="206.441" x2="205.466" y2="206.441"/><linearGradient xlink:href="#a" id="f" gradientUnits="userSpaceOnUse" gradientTransform="matrix(.85007 0 0 .85322 191.92 -12.758)" x1="86.5" y1="206.441" x2="205.466" y2="206.441"/><linearGradient xlink:href="#b" id="g" gradientUnits="userSpaceOnUse" gradientTransform="matrix(.85007 0 0 .85322 40.606 30.324)" x1="86.5" y1="206.441" x2="205.466" y2="206.441"/><linearGradient xlink:href="#a" id="h" gradientUnits="userSpaceOnUse" gradientTransform="matrix(.85007 0 0 .85322 40.606 30.324)" x1="86.5" y1="206.441" x2="205.466" y2="206.441"/></defs><path d="M5.079 5.776h336.913v337.67H5.08z" stroke-width="2" stroke="#000"/><path d="M282.734 40.554c0-8.376 6.966-15.165 15.56-15.165 4.126 0 8.084 1.597 11.001 4.441 2.918 2.844 4.558 6.702 4.558 10.724 0 8.376-6.966 15.165-15.56 15.165-8.593 0-15.559-6.79-15.559-15.165z" stroke-width="2" stroke="#000"/><rect width="79.915" height="155.04" x="36.859" y="105.173" ry="10.308" transform="matrix(.99766 .06838 -.08582 .99631 0 0)" fill="url(#c)" stroke="url(#d)" stroke-width="2.679" stroke-linejoin="round"/><rect width="5.898" height="1.475" x="191.695" y="200.542" ry=".737" fill="#fff" stroke="#000" stroke-width="1.408" stroke-linejoin="round"/><rect transform="matrix(.99766 .06838 -.08582 .99631 0 0)" ry="10.308" y="87.969" x="265.953" height="155.04" width="79.915" fill="url(#e)" stroke="url(#f)" stroke-width="2.679" stroke-linejoin="round"/><rect width="79.915" height="155.04" x="114.639" y="131.052" ry="10.308" transform="matrix(.99142 -.13068 .11332 .99356 0 0)" fill="url(#g)" stroke="url(#h)" stroke-width="2.679" stroke-linejoin="round"/></svg>