<svg xmlns="http://www.w3.org/2000/svg" fill="none" viewBox="0 0 348 348">
    <path stroke="#000" stroke-width="2" d="M5.079 5.776h336.913v337.67H5.08z"/>
    <path stroke="#000" stroke-width="2" d="M282.734 40.554c0-8.376 6.966-15.165 15.56-15.165 4.126 0 8.084 1.597 11.001 4.441 2.918 2.844 4.558 6.702 4.558 10.724 0 8.376-6.966 15.165-15.56 15.165-8.593 0-15.559-6.79-15.559-15.165z"/>
    <g stroke="#000" stroke-width="1.5" transform="translate(-6.586)">
        <circle cx="86.54" cy="132.425" r="24.767"/>
        <circle cx="180.122" cy="132.425" r="24.767"/>
        <circle cx="273.704" cy="132.425" r="24.767"/>
    </g>
    <text x="39.101" y="146.762" fill="#000" font-family="sans-serif" font-size="53.333" font-weight="400" letter-spacing="0" word-spacing="0" style="line-height:1.25;-inkscape-font-specification:'sans-serif, Normal';font-variant-ligatures:normal;font-variant-caps:normal;font-variant-numeric:normal;font-feature-settings:normal;text-align:start">
        <tspan x="39.101" y="146.762">(</tspan>
    </text>
    <text x="191.332" y="146.762" fill="#000" font-family="sans-serif" font-size="53.333" font-weight="400" letter-spacing="0" word-spacing="0" style="line-height:1.25;-inkscape-font-specification:'sans-serif, Normal';font-variant-ligatures:normal;font-variant-caps:normal;font-variant-numeric:normal;font-feature-settings:normal;text-align:start">
        <tspan style="-inkscape-font-specification:'sans-serif, Normal';font-variant-ligatures:normal;font-variant-caps:normal;font-variant-numeric:normal;font-feature-settings:normal;text-align:start" x="191.332" y="146.762">)</tspan>
    </text>
    <text x="107.104" y="145.509" fill="#000" font-family="sans-serif" font-size="48" font-weight="400" letter-spacing="0" word-spacing="0" style="line-height:1.25">
        <tspan x="107.104" y="145.509">+</tspan>
    </text>
    <text x="218.442" y="142.952" fill="#000" font-family="sans-serif" font-size="40" font-weight="400" letter-spacing="0" word-spacing="0" style="line-height:1.25">
        <tspan x="218.442" y="142.952">-</tspan>
    </text>
    <path stroke="#000" stroke-width="1.192" d="M48.465 232.52h58.808v58.808H48.465z"/>
    <path stroke="#000" stroke-width="1.192" d="M144.131 232.52h58.808v58.808h-58.808z"/>
    <path stroke="#000" stroke-width="1.192" d="M239.797 232.52h58.808v58.808h-58.808z"/>
    <text x="67.684" y="265.82" fill="#000" font-family="sans-serif" font-size="56" font-weight="400" letter-spacing="0" word-spacing="0" style="line-height:1.25;-inkscape-font-specification:'sans-serif, Normal';font-variant-ligatures:normal;font-variant-caps:normal;font-variant-numeric:normal;font-feature-settings:normal;text-align:start">
        <tspan x="67.684" y="265.82">.</tspan>
    </text>
    <text x="160.821" y="279.738" fill="#000" font-family="sans-serif" font-size="56" font-weight="400" letter-spacing="0" word-spacing="0" style="line-height:1.25;-inkscape-font-specification:'sans-serif, Normal';font-variant-ligatures:normal;font-variant-caps:normal;font-variant-numeric:normal;font-feature-settings:normal;text-align:start">
        <tspan x="160.821" y="279.738">-</tspan>
    </text>
</svg>
