<svg xmlns="http://www.w3.org/2000/svg" fill="none" viewBox="0 0 348 348"><path stroke="#000" stroke-width="2" d="M5 6h337v337H5z"/><path stroke="#000" stroke-width="12" d="m221 160-40-24V91l40-23 40 23v45z"/><circle cx="298.5" cy="40.5" r="15.5" stroke="#000" stroke-linejoin="round" stroke-width="2"/><path stroke="#000" stroke-width="12" d="m123 159-39-23V90l39-22 40 22v46z"/><path stroke="#000" stroke-width="12" d="m123 159-39-23V90l39-22 40 22v46zm-49 84-40-23v-46l40-22 39 22v46zm98-1-39-23v-46l39-22 40 22v46zm98 0-39-23v-46l39-22 40 22v46zm-147 84-40-23v-46l40-22 39 22v46zm98-1-39-23v-46l39-22 40 22v46z"/></svg>