<svg xmlns="http://www.w3.org/2000/svg" viewBox="0 0 348 348" fill="none" stroke-linecap="square" stroke-miterlimit="10"><clipPath id="a"><path d="M0 0h348v348H0V0z"/></clipPath><g clip-path="url(#a)"><path d="M0 0h348v348H0z"/><path d="M5.07874 5.77582h336.9134V343.4451H5.07874z"/><path d="M5.07874 5.77582h336.9134V343.4451H5.07874z" stroke-linejoin="round" stroke-linecap="butt" stroke-width="2" stroke="#000"/><path d="M272.89306 52.44584c0-8.3756 6.96603-15.16535 15.55905-15.16535 4.1266 0 8.0841 1.5977 11.002 4.4418 2.9179 2.844 4.5572 6.7014 4.5572 10.7235 0 8.3756-6.966 15.1653-15.559 15.1653s-15.559-6.7898-15.559-15.1654z" stroke="#000" stroke-width="2" stroke-linecap="butt" stroke-linejoin="round"/><circle cx="173.53545" cy="138.61046" r="102.55629" stroke="#000"/><circle r="55.54048" cy="138.61046" cx="173.53545" fill="#000" stroke="#000" stroke-width=".54156"/><path d="M149.06035 161.54747v-45.72754h9.69238v3.6377h-5.29785v38.45214h5.29785v3.6377zm13.208-18.2129l4.22364-.39062c.358 1.9857 1.0416 3.42612 2.0507 4.3213 1.0091.89518 2.303 1.34277 3.8818 1.34277 1.3509 0 2.5349-.30924 3.5522-.92774 1.0172-.61848 1.8514-1.4445 2.5024-2.47802.651-1.03353 1.1962-2.4292 1.6357-4.18702.4394-1.7578.6591-3.54816.6592-5.3711-.0001-.1953-.0082-.48826-.0244-.8789-.879 1.39976-2.0793 2.535-3.6011 3.40577-1.5219.8708-3.1698 1.3062-4.9439 1.3062-2.9623 0-5.4688-1.0742-7.5196-3.2226-2.0508-2.1484-3.0762-4.9804-3.0762-8.4961 0-3.6295 1.07012-6.551 3.21043-8.7646 2.1403-2.2135 4.82176-3.3203 8.04443-3.3203 2.32745 0 4.45554.6267 6.3843 1.8799 1.9287 1.2533 3.3935 3.0396 4.3945 5.3589 1.00095 2.3194 1.50144 5.6763 1.50146 10.0708 0 4.5736-.49643 8.2154-1.48924 10.9253-.9929 2.71-2.4699 4.773-4.43118 6.189-1.96127 1.416-4.26026 2.1241-6.89696 2.1241-2.7995 0-5.0863-.7772-6.86038-2.3315-1.7741-1.5543-2.8402-3.7394-3.1983-6.5552zm17.99317-15.7959c-.00002-2.52275-.6714-4.5247-2.01416-6.00585-1.3428-1.4811-2.9582-2.22165-4.8462-2.22168-1.95313.00003-3.65397.79756-5.10253 2.39258-1.44858 1.59508-2.17286 3.66214-2.17285 6.20117 0 2.2786.68765 4.13 2.063 5.5542 1.3753 1.4241 3.07208 2.1362 5.09032 2.1362 2.0345 0 3.70685-.7121 5.0171-2.1363 1.3102-1.4242 1.9653-3.3976 1.96532-5.9204zm17.74902 34.0088h-9.69238v-3.6377h5.29785v-38.45214h-5.2978v-3.6377h9.6924z" style="text-align:center;line-height:125%" font-size="50" letter-spacing="0" word-spacing="0" text-anchor="middle" fill="#fff" font-family="sans-serif"/><rect width="49.5705" height="49.57051" x="21.26442" y="280.03925" rx=".21624" stroke="#000"/><path d="M31.82604 307.2122v-4.9219l28.44726-12.0117v5.24414l-22.5586 9.2578 22.5586 9.3457v5.24415z" style="text-align:center;line-height:125%;-inkscape-font-specification:sans-serif" font-size="60" letter-spacing="0" word-spacing="0" text-anchor="middle" fill="#000" stroke="#000" stroke-linecap="butt" font-family="sans-serif"/><rect rx=".21624" y="-329.60974" x="-132.83493" height="49.57051" width="49.5705" transform="scale(-1)" stroke="#000"/><path d="M122.2733 302.4368v4.92187L93.82605 319.3704v-5.24415l22.5586-9.2578-22.5586-9.3457v-5.24416z" style="text-align:center;line-height:125%;-inkscape-font-specification:sans-serif" font-size="60" letter-spacing="0" word-spacing="0" text-anchor="middle" fill="#000" stroke="#000" stroke-linecap="butt" font-family="sans-serif"/><rect transform="scale(-1)" width="127.335" height="48.97739" x="-325.51852" y="-329.3132" rx=".55548" stroke="#000" stroke-width="1.59312"/><path d="M200.23133 334.15915v-27.6476h12.25848c2.4643.00003 4.3376.24834 5.6201.74494 1.2824.4966 2.3071 1.3736 3.0741 2.6308.7669 1.2573 1.1504 2.6466 1.1504 4.1679 0 1.9613-.6349 3.6147-1.9048 4.9599-1.2699 1.3453-3.2312 2.2002-5.884 2.5648.9681.4652 1.7036.9241 2.2065 1.3767 1.0687.9807 2.0808 2.2065 3.0364 3.6775l4.8091 7.5248h-4.6016l-3.6587-5.7521c-1.0687-1.6596-1.9488-2.9295-2.6403-3.8096-.6915-.8801-1.3107-1.4962-1.8576-1.8482-.5469-.352-1.1033-.5972-1.669-.7355-.4149-.088-1.0938-.132-2.0368-.132H203.89v12.2774zm3.65868-15.4457h7.8643c1.6722.00003 2.9798-.17285 3.9228-.51862.943-.34573 1.6596-.89894 2.15-1.6596.4903-.76064.7355-1.5873.7355-2.48 0-1.30754-.4746-2.38252-1.4238-3.22492-.9492-.8423-2.4485-1.2635-4.4979-1.2635H203.89zm37.4733 8.99585l3.5078.43376c-.5532 2.04937-1.5779 3.63983-3.074 4.77138-1.4962 1.13155-3.4072 1.69733-5.7332 1.69733-2.9294 0-5.2523-.9021-6.9685-2.7063-1.7162-1.8042-2.5743-4.33446-2.5743-7.59083 0-3.3695.8675-5.98464 2.6026-7.84543 1.7351-1.8607 3.9856-2.7911 6.7516-2.7911 2.678 0 4.8657.9116 6.563 2.7346 1.6973 1.8231 2.546 4.3879 2.546 7.6946 0 .2012-.0063.5029-.0188.9053H230.029c.12573 2.2003.7481 3.885 1.86707 5.0543 1.11898 1.1693 2.51456 1.7539 4.18675 1.7539 1.2447 0 2.3071-.3268 3.1872-.9806.8801-.6538 1.57788-1.6973 2.09338-3.1306zm-11.1458-5.48803h11.1835c-.1509-1.68474-.5783-2.9483-1.2824-3.7907-1.0813-1.30755-2.4831-1.96134-4.2056-1.96136-1.559.0001-2.8697.5218-3.9321 1.5654-1.0624 1.0436-1.6502 2.4392-1.7633 4.1868zm17.5768 5.9595l3.357-.52805c.1886 1.3453.7135 2.37627 1.5748 3.0929.8613.71667 2.0651 1.075 3.6116 1.075 1.5591 0 2.7158-.31747 3.4701-.9524.7544-.63492 1.1316-1.37986 1.1316-2.23482 0-.76693-.3331-1.37043-.9995-1.81048-.4652-.30174-1.6219-.6852-3.4701-1.1504-2.4894-.62864-4.215-1.17242-5.1768-1.63133-.9618-.4589-1.691-1.0939-2.1876-1.9048-.49662-.811-.74493-1.7068-.74493-2.6875 0-.8927.2043-1.7193.61294-2.48.4086-.7606.96493-1.3924 1.669-1.8954.5281-.3898 1.24788-.7198 2.1594-.9901.91156-.2703 1.8891-.4055 2.9326-.4055 1.5716 0 2.9515.2263 4.1396.6789 1.18816.4526 2.0651 1.0655 2.6309 1.8387.56576.7732.9555 1.8073 1.16928 3.1023l-3.3192.4526c-.1509-1.031-.5878-1.8356-1.3107-2.414-.72296-.5783-1.7445-.8675-3.06463-.8675-1.55906 0-2.67175.2577-3.3381.7732-.6664.5155-.99957 1.119-.99957 1.8105 0 .44.1383.8361.4149 1.1881.2766.3646.71033.66633 1.3013.9052.33942.1257 1.339.4149 2.9986.8675 2.4014.64122 4.0767 1.16613 5.02595 1.57473.94927.40862 1.6942 1.0027 2.23486 1.7822.5406.7795.81093 1.74762.81094 2.9043 0 1.13156-.33003 2.1971-.9901 3.19664-.6601.9995-1.6125 1.7728-2.85715 2.3197-1.2447.5469-2.6529.82035-4.22448.82035-2.60255 0-4.5859-.5406-5.9501-1.6219-1.36413-1.08124-2.2348-2.6843-2.612-4.8091zm34.3804-.47147l3.5078.43376c-.5532 2.04937-1.5779 3.63983-3.074 4.77138-1.4962 1.13155-3.4072 1.69733-5.7332 1.69733-2.9294 0-5.2523-.9021-6.9685-2.7063-1.7161-1.8042-2.5742-4.33446-2.5742-7.59083 0-3.3695.8675-5.98464 2.6026-7.84543 1.7351-1.8607 3.9856-2.7911 6.7516-2.7911 2.678 0 4.8657.9116 6.563 2.7346 1.6973 1.8231 2.546 4.3879 2.546 7.6946 0 .2012-.0063.5029-.0188.9053h-14.9365c.1257 2.2003.74808 3.885 1.86707 5.0543 1.119 1.1693 2.51457 1.7539 4.18676 1.7539 1.2447 0 2.3071-.3268 3.1872-.9806.8801-.6538 1.57785-1.6973 2.09335-3.1306zm-11.1458-5.48803h11.1835c-.1509-1.68474-.5783-2.9483-1.2824-3.7907-1.0813-1.30755-2.4831-1.96134-4.2056-1.96136-1.559.0001-2.8697.5218-3.9321 1.5654-1.0624 1.0436-1.6502 2.4392-1.7633 4.1868zm26.3463 8.90155l.4904 2.9986c-.9555.20118-1.8105.30176-2.5648.30176-1.2321 0-2.1877-.19488-2.8666-.58464-.6789-.38975-1.1567-.9021-1.4333-1.53702-.2766-.63493-.4149-1.9708-.4149-4.00758v-11.52298h-2.4894v-2.6403h2.4895v-4.95996l3.3758-2.0368v6.99677h3.4135v2.6403h-3.4135v11.71156c0 .9681.0597 1.59046.1792 1.86706.11944.2766.3143.4966.58464.66.2703.1634.6569.2451 1.1598.2451.3772 0 .8738-.044 1.4899-.132z" transform="scale(1.051 .95147)" fill="#000" stroke="#000" stroke-width=".64373" stroke-linecap="butt" /></g></svg>