<svg xmlns="http://www.w3.org/2000/svg" fill="none" stroke-linecap="square" stroke-miterlimit="10" viewBox="0 0 348 348"><path stroke="#000" stroke-linecap="butt" stroke-linejoin="round" stroke-width="2" d="M5 5.8h337v337.6H5z"/><path fill="#000" d="M133.8 15.7h74.4v56.8h-74.4z"/><path fill="#fff" d="M154.5 44c0-2.6.3-4.8.9-6.4.5-1.7 1.4-3 2.5-3.9a6.4 6.4 0 0 1 4.1-1.3c1.2 0 2.3.2 3.2.7 1 .5 1.7 1.2 2.3 2.2.6.9 1.1 2 1.5 3.4.3 1.3.5 3.1.5 5.4a21 21 0 0 1-.9 6.5 7 7 0 0 1-2.4 3.8 6 6 0 0 1-4.2 1.4c-2.2 0-4-.8-5.2-2.4-1.5-1.9-2.3-5-2.3-9.3zm3 0c0 3.9.4 6.4 1.2 7.6 1 1.2 2 1.9 3.3 1.9 1.3 0 2.4-.7 3.3-2 .8-1.2 1.3-3.7 1.3-7.4 0-3.8-.5-6.3-1.3-7.5-1-1.3-2-1.9-3.3-1.9-1.3 0-2.3.6-3.1 1.7-1 1.4-1.5 4-1.5 7.7zm14.8 0c0-2.6.3-4.8.9-6.4.5-1.7 1.4-3 2.4-3.9a6.4 6.4 0 0 1 4.2-1.3c1.2 0 2.3.2 3.2.7 1 .5 1.7 1.2 2.3 2.2.6.9 1.1 2 1.5 3.4.3 1.3.5 3.1.5 5.4 0 2.7-.3 4.8-.9 6.5a7 7 0 0 1-2.4 3.8 6 6 0 0 1-4.2 1.4c-2.2 0-4-.8-5.2-2.4-1.5-1.9-2.3-5-2.3-9.3zm3 0c0 3.9.4 6.4 1.2 7.6 1 1.2 2 1.9 3.3 1.9 1.3 0 2.4-.7 3.3-2 .8-1.2 1.3-3.7 1.3-7.4 0-3.8-.5-6.3-1.3-7.5-1-1.3-2-1.9-3.3-1.9-1.3 0-2.3.6-3.1 1.7-1 1.4-1.5 4-1.5 7.7z"/><path stroke="#000" stroke-linecap="butt" stroke-linejoin="round" stroke-width="2" d="M15.3 17.7h109.9v54.8h-110z"/><path d="M15.3 72.7l39.6-54.1"/><path stroke="#000" stroke-linecap="butt" stroke-linejoin="round" stroke-width="2" d="M15.3 72.7l39.6-54.1"/><path d="M37.6 72.7l39.7-54.1"/><path stroke="#000" stroke-linecap="butt" stroke-linejoin="round" stroke-width="2" d="M37.6 72.7l39.7-54.1"/><path d="M59.9 72.7l39.7-54.1"/><path stroke="#000" stroke-linecap="butt" stroke-linejoin="round" stroke-width="2" d="M59.9 72.7l39.7-54.1"/><path d="M82.2 72.7l39.7-54.1"/><path stroke="#000" stroke-linecap="butt" stroke-linejoin="round" stroke-width="2" d="M82.2 72.7l39.7-54.1m95-2h109.9v54.9h-110z"/><path d="M216.9 71.6l39.6-54.1"/><path stroke="#000" stroke-linecap="butt" stroke-linejoin="round" stroke-width="2" d="M216.9 71.6l39.6-54.1"/><path d="M239.2 71.6l39.7-54.1"/><path stroke="#000" stroke-linecap="butt" stroke-linejoin="round" stroke-width="2" d="M239.2 71.6l39.7-54.1"/><path d="M261.5 71.6l39.7-54.1"/><path stroke="#000" stroke-linecap="butt" stroke-linejoin="round" stroke-width="2" d="M261.5 71.6l39.7-54.1"/><path d="M283.8 71.6l39.7-54.1"/><path stroke="#000" stroke-linecap="butt" stroke-linejoin="round" stroke-width="2" d="M283.8 71.6l39.7-54.1"/><path fill="#000" d="M11.5 91.1c-.3 1.4-.4 57.1-.3 124l.3 121.5 83.4.2c45.8.1 119-.1 162.6-.4l79.3-.7-.2-123.2-.3-123.2-162-.3L12 88.8l-.6 2.3zm285 7.2v7.5h29.8V90.9h8.4v25.5H13.1V90.9h283.4v7.4zM97 179c0 3-.2 3.2-4.8 3.2h-4.8v42.4h4.8c4.8 0 4.8 0 4.8 3.7v3.7H75.7v-56.2H97v3.2zm38.2 3.2v6.3H132c-2.9 0-3.2-.3-3.2-3.2 0-2.4-.4-3.1-2.1-3.1-2 0-2.1.7-2.1 21.2v21.2h3.1c3 0 3.2.3 3.2 3.7v3.7h-23.3v-3.7c0-3.3.3-3.7 2.6-3.7h2.7v-21.2c0-20.5-.1-21.2-2.1-21.2-1.7 0-2.2.7-2.2 3.1 0 2.7-.4 3.2-2.6 3.2-2.6 0-2.7-.3-2.7-6.3v-6.4h31.9v6.4zm148.6 21.7V232h-23.4v-7.4h11.7v-42.4h-5.9c-5.7 0-5.8 0-5.8-3.2v-3.2h23.4v28.1zM240.2 188v5.8h16v6.4h-16v12.2c0 11.5.1 12.2 2.2 12.2 1.7 0 2-.7 2-3.2 0-3.2.2-3.2 6-3.2 5.7 0 5.8 0 5.8 3.2 0 2.3-.6 3.2-1.7 3.2-2.4 0-4.7 2.7-4.7 5.2 0 2-.6 2.2-8 2.2-7 0-8-.2-8-2 0-3.5-1-5.4-3.2-5.4-2 0-2-1-2-12.2v-12.2h-3.2c-2.9 0-3.2-.3-3.2-3.2 0-2.8.3-3.2 3.2-3.2 2.6 0 3.2-.4 3.2-2.5 0-2 .6-2.7 2.4-3 1.7-.2 2.5-1.1 2.7-3.3.3-2.4.8-2.8 3.5-2.8 3 0 3 0 3 5.8zm-71 9c0 2.7.4 3.2 2.6 3.2 2.5 0 2.6.2 2.6 6.9v6.9h-22.2v10.6h5.3c5.2 0 5.3 0 5.3-3.2s0-3.2 5.8-3.2c5.7 0 5.8 0 5.8 3.2 0 2.7-.4 3.2-2.6 3.2-2.3 0-2.7.4-2.7 3.7v3.7H158c-10.3 0-11.1 0-11.1-2 0-3.7-1.3-5.4-3.9-5.4-2.5 0-2.5 0-2.5-12.2v-12.2h3.2c2.8 0 3.2-.3 3.2-3.2v-3.2H169v3.2zm21.2 0c0 2.9.3 3.2 3.1 3.2 3 0 3.2.3 3.2 3.2 0 2.4.5 3.2 2.2 3.2 1.7 0 2-.8 2-3.2 0-2.7.5-3.2 2.7-3.2 2.3 0 2.7-.5 2.7-3.2 0-3.2 0-3.2 5.8-3.2s5.9 0 5.9 3.2c0 2.7-.5 3.2-2.7 3.2s-2.6.5-2.6 3.2c0 2.9-.4 3.2-3.2 3.2-3.2 0-3.2 0-3.2 5.8 0 5.7 0 5.8 3.2 5.8 2.8 0 3.2.4 3.2 3.2 0 2.7.4 3.2 2.6 3.2 2.3 0 2.7.4 2.7 3.7v3.7h-11.7v-3.7c0-3.3-.3-3.7-2.7-3.7-1.9 0-2.6-.5-2.6-2.1 0-1.4-.8-2.1-2.1-2.1-1.4 0-2.2.7-2.2 2 0 1.8-.7 2.2-3.2 2.2-3 0-3.1.3-3.1 3.7v3.7h-11.7v-3.7c0-3.4.2-3.7 3.2-3.7 2.8 0 3.2-.3 3.2-3.2 0-2.6.4-3.2 2.6-3.2 2.6 0 2.7-.3 2.7-5.8s-.1-5.8-2.7-5.8c-2.2 0-2.6-.6-2.6-3.2 0-2.9-.4-3.2-3.2-3.2-2.9 0-3.2-.3-3.2-3.2 0-3.2.1-3.2 5.8-3.2 5.8 0 5.9 0 5.9 3.2z"/><path fill="#000" d="M152.3 205.6v6h14.8v-11.8h-14.8v5.8z"/></svg>