<svg xmlns="http://www.w3.org/2000/svg" fill="none" width="512" height="512"><path stroke="#000" stroke-width="4" d="M18 18h476v476H18.001z"/><g font-weight="400" font-family="Oxanium" letter-spacing="0" word-spacing="0" text-anchor="middle" fill="#000"><text y="561.236" x="47.205" style="line-height:1;-inkscape-font-specification:'Oxanium, Normal';font-variant-ligatures:normal;font-variant-caps:normal;font-variant-numeric:normal;font-feature-settings:normal;text-align:center" font-size="8"/><text y="535.531" x="201.625" style="line-height:1;-inkscape-font-specification:'Oxanium, Normal';font-variant-ligatures:normal;font-variant-caps:normal;font-variant-numeric:normal;font-feature-settings:normal;text-align:center" font-size="21.333"><tspan style="-inkscape-font-specification:Arial" y="535.531" x="201.625" font-family="Arial">Made by Lilshadow1997 on NewGrounds</tspan></text></g><path stroke="#000" stroke-width="4" d="M426 64c0-12.151 9.85-22 22-22a22.003 22.003 0 0122 22c0 12.151-9.85 22-22 22s-22-9.85-22-22zM50 96c0-7.733 6.268-14 14-14a13.996 13.996 0 0114 14c0 7.733-6.268 14-14 14s-14-6.268-14-14zM218 122h172v172H218zm-176 0h172v172H42zm176 176h172v172H218zm-176 0h172v172H42zM226 96c0-7.733 6.268-14 14-14a13.996 13.996 0 0114 14c0 7.733-6.268 14-14 14s-14-6.268-14-14z"/></svg>