<svg viewBox="0 0 348 348" fill="none" stroke-linecap="square" stroke-miterlimit="10" xmlns="http://www.w3.org/2000/svg"><clipPath id="a"><path d="M0 0h348v348H0V0z"/></clipPath><g clip-path="url(#a)"><path d="M0 0h348v348H0z"/><path fill="#fff" d="M-6 0h348v347.97H-6z"/><path d="M5.54 5.16h336.92v337.67H5.54z"/><path stroke="#000" stroke-width="2" stroke-linejoin="round" stroke-linecap="butt" d="M5.54 5.16h336.92v337.67H5.54z"/><path fill="#fff" d="M282.73 40.55c0-8.37 6.97-15.16 15.56-15.16 4.13 0 8.09 1.6 11 4.44a14.97 14.97 0 0 1 4.56 10.72c0 8.38-6.96 15.17-15.56 15.17-8.59 0-15.56-6.8-15.56-15.17z"/><path stroke="#000" stroke-width="2" stroke-linejoin="round" stroke-linecap="butt" d="M282.73 40.55c0-8.37 6.97-15.16 15.56-15.16 4.13 0 8.09 1.6 11 4.44a14.97 14.97 0 0 1 4.56 10.72c0 8.38-6.96 15.17-15.56 15.17-8.59 0-15.56-6.8-15.56-15.17z"/><path d="M253.95 28.82V58H28.22V28.82z"/><path stroke="#000" stroke-width="2" stroke-linejoin="round" stroke-linecap="butt" d="M253.95 28.82V58H28.22V28.82z"/><path d="M187.68 35.17c5 0 9.04 3.69 9.04 8.24 0 2.18-.95 4.28-2.64 5.82a9.51 9.51 0 0 1-6.4 2.41c-4.99 0-9.04-3.68-9.04-8.23 0-4.55 4.05-8.24 9.04-8.24z"/><path stroke="#000" stroke-width="2" stroke-linejoin="round" stroke-linecap="butt" d="M187.68 35.17c5 0 9.04 3.69 9.04 8.24 0 2.18-.95 4.28-2.64 5.82a9.51 9.51 0 0 1-6.4 2.41c-4.99 0-9.04-3.68-9.04-8.23 0-4.55 4.05-8.24 9.04-8.24z"/><path d="M153.84 35.17c5 0 9.04 3.69 9.04 8.24 0 2.18-.95 4.28-2.65 5.82a9.51 9.51 0 0 1-6.39 2.41c-5 0-9.04-3.68-9.04-8.23 0-4.55 4.05-8.24 9.04-8.24z"/><path stroke="#000" stroke-width="2" stroke-linejoin="round" stroke-linecap="butt" d="M153.84 35.17c5 0 9.04 3.69 9.04 8.24 0 2.18-.95 4.28-2.65 5.82a9.51 9.51 0 0 1-6.39 2.41c-5 0-9.04-3.68-9.04-8.23 0-4.55 4.05-8.24 9.04-8.24z"/><path d="M120 35.17c4.99 0 9.04 3.69 9.04 8.24 0 2.18-.96 4.28-2.65 5.82a9.5 9.5 0 0 1-6.4 2.41c-4.99 0-9.03-3.68-9.03-8.23 0-4.55 4.04-8.24 9.04-8.24z"/><path stroke="#000" stroke-width="2" stroke-linejoin="round" stroke-linecap="butt" d="M120 35.17c4.99 0 9.04 3.69 9.04 8.24 0 2.18-.96 4.28-2.65 5.82a9.5 9.5 0 0 1-6.4 2.41c-4.99 0-9.03-3.68-9.03-8.23 0-4.55 4.04-8.24 9.04-8.24z"/><path d="M52.3 35.17c5 0 9.05 3.69 9.05 8.24 0 2.18-.96 4.28-2.65 5.82a9.5 9.5 0 0 1-6.4 2.41c-4.98 0-9.03-3.68-9.03-8.23 0-4.55 4.05-8.24 9.04-8.24z"/><path stroke="#000" stroke-width="2" stroke-linejoin="round" stroke-linecap="butt" d="M52.3 35.17c5 0 9.05 3.69 9.05 8.24 0 2.18-.96 4.28-2.65 5.82a9.5 9.5 0 0 1-6.4 2.41c-4.98 0-9.03-3.68-9.03-8.23 0-4.55 4.05-8.24 9.04-8.24z"/><path d="M86.15 35.17c5 0 9.04 3.69 9.04 8.24 0 2.18-.95 4.28-2.65 5.82a9.5 9.5 0 0 1-6.39 2.41c-4.99 0-9.04-3.68-9.04-8.23 0-4.55 4.05-8.24 9.04-8.24z"/><path stroke="#000" stroke-width="2" stroke-linejoin="round" stroke-linecap="butt" d="M86.15 35.17c5 0 9.04 3.69 9.04 8.24 0 2.18-.95 4.28-2.65 5.82a9.5 9.5 0 0 1-6.39 2.41c-4.99 0-9.04-3.68-9.04-8.23 0-4.55 4.05-8.24 9.04-8.24z"/><path d="M221.53 35.17c4.99 0 9.04 3.69 9.04 8.24 0 2.18-.96 4.28-2.65 5.82a9.5 9.5 0 0 1-6.4 2.41c-4.99 0-9.03-3.68-9.03-8.23 0-4.55 4.04-8.24 9.04-8.24z"/><path stroke="#000" stroke-width="2" stroke-linejoin="round" stroke-linecap="butt" d="M221.53 35.17c4.99 0 9.04 3.69 9.04 8.24 0 2.18-.96 4.28-2.65 5.82a9.5 9.5 0 0 1-6.4 2.41c-4.99 0-9.03-3.68-9.03-8.23 0-4.55 4.04-8.24 9.04-8.24z"/><path d="M253.95 57.99v29.16H28.22V58z"/><path stroke="#000" stroke-width="2" stroke-linejoin="round" stroke-linecap="butt" d="M253.95 57.99v29.16H28.22V58z"/><path d="M302.38 249.87v29.16H28.21v-29.16z"/><path stroke="#000" stroke-width="2" stroke-linejoin="round" stroke-linecap="butt" d="M302.38 249.87v29.16H28.21v-29.16z"/><path d="M302.38 279.03v43.82H28.21v-43.82z"/><path stroke="#000" stroke-width="2" stroke-linejoin="round" stroke-linecap="butt" d="M302.38 279.03v43.82H28.21v-43.82z"/><path d="M33.56 282.4h31.51l5.65 5.66v28.26h-31.5l-5.66-5.65V282.4z"/><path stroke="#000" stroke-width="2" stroke-linejoin="round" stroke-linecap="butt" d="M33.56 282.4h31.51l5.65 5.66v28.26h-31.5l-5.66-5.65V282.4z"/><path d="M80.03 282.4h31.51l5.66 5.66v28.26H85.68l-5.65-5.65V282.4z"/><path stroke="#000" stroke-width="2" stroke-linejoin="round" stroke-linecap="butt" d="M80.03 282.4h31.51l5.66 5.66v28.26H85.68l-5.65-5.65V282.4z"/><path d="M126.5 282.4h32.56l5.65 5.66v28.26h-32.55l-5.66-5.65V282.4z"/><path stroke="#000" stroke-width="2" stroke-linejoin="round" stroke-linecap="butt" d="M126.5 282.4h32.56l5.65 5.66v28.26h-32.55l-5.66-5.65V282.4z"/><path d="M172.97 282.4h32.56l5.65 5.66v28.26h-32.55l-5.66-5.65V282.4z"/><path stroke="#000" stroke-width="2" stroke-linejoin="round" stroke-linecap="butt" d="M172.97 282.4h32.56l5.65 5.66v28.26h-32.55l-5.66-5.65V282.4z"/><path d="M219.45 282.4H252l5.65 5.66v28.26H225.1l-5.65-5.65V282.4z"/><path stroke="#000" stroke-width="2" stroke-linejoin="round" stroke-linecap="butt" d="M219.45 282.4H252l5.65 5.66v28.26H225.1l-5.65-5.65V282.4z"/><path d="M52.2 73.36c1.76 17.59-6.11 35-6.11 52.67 0 21.02.61 42.87 8 62.55 2.13 5.71 8.52 9.9 8.93 15.99 1.3 19.7-10.35 38.57-10.35 58.31"/><path stroke="#000" stroke-width="2" stroke-linejoin="round" stroke-linecap="butt" d="M52.2 73.36c1.76 17.59-6.11 35-6.11 52.67 0 21.02.61 42.87 8 62.55 2.13 5.71 8.52 9.9 8.93 15.99 1.3 19.7-10.35 38.57-10.35 58.31"/><path d="M85.12 72.42c18.78 7.51.37 40.52-1.41 60.67-2.58 29.26 20.19 58.25 14.1 87-2.24 10.63-13.74 18.32-14.57 29.15-.43 5.64 6.97 9.66 12.22 11.76"/><path stroke="#000" stroke-width="2" stroke-linejoin="round" stroke-linecap="butt" d="M85.12 72.42c18.78 7.51.37 40.52-1.41 60.67-2.58 29.26 20.19 58.25 14.1 87-2.24 10.63-13.74 18.32-14.57 29.15-.43 5.64 6.97 9.66 12.22 11.76"/><path d="M120.86 70.07c21.05-1.75 15.18 41.1 12.7 62.08-2.51 21.17 22 38.87 21.63 60.2-.45 25-22.6 55.54-6.58 74.76"/><path stroke="#000" stroke-width="2" stroke-linejoin="round" stroke-linecap="butt" d="M120.86 70.07c21.05-1.75 15.18 41.1 12.7 62.08-2.51 21.17 22 38.87 21.63 60.2-.45 25-22.6 55.54-6.58 74.76"/><path d="M153.3 74.77c13.09 12.31 12.29 34 15.06 51.73 3.91 25.08 11.75 49.86 11.75 75.24 0 22.12-7.53 46.53 2.35 66.31"/><path stroke="#000" stroke-width="2" stroke-linejoin="round" stroke-linecap="butt" d="M153.3 74.77c13.09 12.31 12.29 34 15.06 51.73 3.91 25.08 11.75 49.86 11.75 75.24 0 22.12-7.53 46.53 2.35 66.31"/><path d="M193.75 77.6c18.2 40.62 36.23 82.75 41.38 126.97 2.44 20.88-2.82 41.99-2.82 63.01"/><path stroke="#000" stroke-width="2" stroke-linejoin="round" stroke-linecap="butt" d="M193.75 77.6c18.2 40.62 36.23 82.75 41.38 126.97 2.44 20.88-2.82 41.99-2.82 63.01"/><path d="M216.32 65.37c10.93 15.3 27.32 26.7 36.21 43.26 15.08 28.07 7.97 63.27 14.11 94.53 4.2 21.34 18.13 41.95 15.05 63.48"/><path stroke="#000" stroke-width="2" stroke-linejoin="round" stroke-linecap="butt" d="M216.32 65.37c10.93 15.3 27.32 26.7 36.21 43.26 15.08 28.07 7.97 63.27 14.11 94.53 4.2 21.34 18.13 41.95 15.05 63.48"/><path d="M262.66 282.4h28.74l5.65 5.66v28.26h-28.74l-5.65-5.65V282.4z"/><path stroke="#000" stroke-width="2" stroke-linejoin="round" stroke-linecap="butt" d="M262.66 282.4h28.74l5.65 5.66v28.26h-28.74l-5.65-5.65V282.4z"/><path d="M32.52 275.54h38.2v43.8h-38.2z"/><path fill="#fff" d="M41.52 286.95h24v24h-24v-24z"/><path fill="#222" d="M42.74 296.42h8.15l2.53-8.06 2.54 8.06h8.15l-6.65 4.6 2.44 7.77-6.47-4.78-6.47 4.78 2.44-7.78-6.66-4.6z"/><path d="M79.51 275.43h38.2v43.81h-38.2z"/><path fill="#fff" d="M88.51 286.85h24v24h-24v-24z"/><path fill="#222" d="M89.73 296.32h8.16l2.53-8.07 2.53 8.07h8.16l-6.66 4.6 2.44 7.77-6.47-4.78-6.47 4.78 2.44-7.78-6.66-4.6z"/><path d="M126.24 275.43h38.2v43.81h-38.2z"/><path fill="#fff" d="M135.24 286.85h24v24h-24v-24z"/><path fill="#222" d="M136.46 296.32h8.16l2.53-8.07 2.53 8.07h8.16l-6.66 4.6 2.44 7.77-6.47-4.78-6.47 4.78 2.44-7.78-6.66-4.6z"/><path d="M172.84 275.43h38.21v43.81h-38.2z"/><path fill="#fff" d="M181.84 286.85h24v24h-24v-24z"/><path fill="#222" d="M183.06 296.32h8.16l2.53-8.07 2.53 8.07h8.16l-6.66 4.6 2.44 7.77-6.47-4.78-6.47 4.78 2.44-7.78-6.66-4.6z"/><path d="M215.25 274.02h38.2v43.81h-38.2z"/><path fill="#fff" d="M224.25 285.44h24v24h-24v-24z"/><path fill="#222" d="M225.47 294.9h8.15l2.53-8.06 2.54 8.07h8.15l-6.65 4.59 2.43 7.78-6.47-4.78-6.46 4.78 2.43-7.78-6.65-4.6z"/><path d="M257.65 275.54h38.2v43.8h-38.2z"/><path fill="#fff" d="M266.65 286.95h24v24h-24v-24z"/><path fill="#222" d="M267.87 296.42h8.16l2.53-8.06 2.53 8.06h8.16l-6.66 4.6 2.44 7.77-6.47-4.78-6.47 4.78 2.44-7.78-6.66-4.6z"/></g></svg>