<?xml version="1.0" encoding="UTF-8" standalone="no"?>
<svg
   xmlns:dc="http://purl.org/dc/elements/1.1/"
   xmlns:cc="http://creativecommons.org/ns#"
   xmlns:rdf="http://www.w3.org/1999/02/22-rdf-syntax-ns#"
   xmlns:svg="http://www.w3.org/2000/svg"
   xmlns="http://www.w3.org/2000/svg"
   xmlns:sodipodi="http://sodipodi.sourceforge.net/DTD/sodipodi-0.dtd"
   xmlns:inkscape="http://www.inkscape.org/namespaces/inkscape"
   viewBox="0.0 0.0 348.0 348.0"
   fill="none"
   version="1.1"
   id="svg26"
   sodipodi:docname="Congkak.svg"
   inkscape:version="1.0.1 (3bc2e813f5, 2020-09-07)">
  <metadata
     id="metadata32">
    <rdf:RDF>
      <cc:Work
         rdf:about="">
        <dc:format>image/svg+xml</dc:format>
        <dc:type
           rdf:resource="http://purl.org/dc/dcmitype/StillImage" />
        <dc:title></dc:title>
      </cc:Work>
    </rdf:RDF>
  </metadata>
  <defs
     id="defs30" />
  <sodipodi:namedview
     pagecolor="#ffffff"
     bordercolor="#666666"
     borderopacity="1"
     objecttolerance="10"
     gridtolerance="10"
     guidetolerance="10"
     inkscape:pageopacity="0"
     inkscape:pageshadow="2"
     inkscape:window-width="1267"
     inkscape:window-height="728"
     id="namedview28"
     showgrid="false"
     inkscape:zoom="1.4798851"
     inkscape:cx="174"
     inkscape:cy="174"
     inkscape:window-x="26"
     inkscape:window-y="0"
     inkscape:window-maximized="0"
     inkscape:current-layer="svg26" />
  <path
     d="M5.079 5.776h336.913v337.67H5.08z"
     stroke-width="2"
     stroke="#000"
     id="path22" />
  <path
     d="M282.734 40.554c0-8.376 6.966-15.165 15.56-15.165 4.126 0 8.084 1.597 11.001 4.441 2.918 2.844 4.558 6.702 4.558 10.724 0 8.376-6.966 15.165-15.56 15.165-8.593 0-15.559-6.79-15.559-15.165z"
     stroke-width="2"
     stroke="#000"
     id="path24" />
  <path
     d="M 15.030174,63.217546 C 8.9031023,56.997404 12.528405,43.233812 23.127767,32.473443 28.216552,27.307359 34.266344,23.537582 39.944407,21.997262 45.6237,20.455693 50.468529,21.267289 53.410635,24.254086 59.537706,30.474228 55.912397,44.237831 45.313034,54.9982 34.714901,65.757318 21.156515,69.436939 15.030174,63.217546 Z"
     stroke-width="2.70688"
     stroke="#000000"
     id="path24-8" />
  <path
     d="m 43.342221,98.42307 c 0,-8.496839 7.06651,-15.38379 15.784496,-15.38379 4.185527,0 8.200636,1.62005 11.159719,4.50508 2.960098,2.88503 4.623761,6.798695 4.623761,10.87871 0,8.49686 -7.066496,15.38381 -15.784496,15.38381 -8.71697,0 -15.78348,-6.88797 -15.78348,-15.38381 z"
     stroke-width="2.02886"
     stroke="#000000"
     id="path24-5-31" />
  <path
     d="m 291.54859,326.44857 c -6.12708,-6.22014 -2.50177,-19.98375 8.09759,-30.74411 5.08878,-5.16608 11.13858,-8.93586 16.81664,-10.47618 5.6793,-1.54156 10.52412,-0.72998 13.46623,2.25683 6.12707,6.22014 2.50176,19.98374 -8.09761,30.7441 -10.59813,10.75912 -24.15651,14.43875 -30.28285,8.21936 z"
     stroke-width="2.70688"
     stroke="#000000"
     id="path24-8-5" />
  <path
     d="m 74.763585,68.248534 c 0,-8.496839 7.066513,-15.38379 15.784493,-15.38379 4.18553,0 8.20064,1.62005 11.159722,4.50508 2.9601,2.88503 4.62376,6.798695 4.62376,10.87871 0,8.49686 -7.066492,15.38381 -15.784492,15.38381 -8.71697,0 -15.783483,-6.88797 -15.783483,-15.38381 z"
     stroke-width="2.02886"
     stroke="#000000"
     id="path24-5-31-7" />
  <path
     d="m 81.351937,134.01541 c 0,-8.49684 7.06651,-15.38379 15.78449,-15.38379 4.185533,0 8.200643,1.62005 11.159723,4.50508 2.9601,2.88503 4.62376,6.7987 4.62376,10.87871 0,8.49686 -7.06649,15.38381 -15.784493,15.38381 -8.71697,0 -15.78348,-6.88797 -15.78348,-15.38381 z"
     stroke-width="2.02886"
     stroke="#000000"
     id="path24-5-31-8" />
  <path
     d="m 112.7733,103.84088 c 0,-8.496841 7.06651,-15.383792 15.78449,-15.383792 4.18553,0 8.20064,1.62005 11.15972,4.50508 2.9601,2.88503 4.62376,6.798695 4.62376,10.878712 0,8.49686 -7.06649,15.38381 -15.78449,15.38381 -8.71697,0 -15.78348,-6.88797 -15.78348,-15.38381 z"
     stroke-width="2.02886"
     stroke="#000000"
     id="path24-5-31-7-4" />
  <path
     d="m 113.78688,167.12609 c 0,-8.49683 7.06651,-15.38379 15.7845,-15.38379 4.18552,0 8.20063,1.62005 11.15971,4.50508 2.9601,2.88503 4.62377,6.7987 4.62377,10.87871 0,8.49686 -7.0665,15.38381 -15.7845,15.38381 -8.71697,0 -15.78348,-6.88797 -15.78348,-15.38381 z"
     stroke-width="2.02886"
     stroke="#000000"
     id="path24-5-31-0" />
  <path
     d="m 145.20824,136.95156 c 0,-8.49684 7.06652,-15.38379 15.7845,-15.38379 4.18553,0 8.20064,1.62005 11.15972,4.50508 2.9601,2.88503 4.62376,6.79869 4.62376,10.87871 0,8.49686 -7.06649,15.38381 -15.78449,15.38381 -8.71697,0 -15.78349,-6.88797 -15.78349,-15.38381 z"
     stroke-width="2.02886"
     stroke="#000000"
     id="path24-5-31-7-0" />
  <path
     d="m 146.22184,199.56104 c 0,-8.49684 7.06651,-15.38379 15.78449,-15.38379 4.18553,0 8.20064,1.62005 11.15972,4.50508 2.9601,2.88503 4.62376,6.7987 4.62376,10.87871 0,8.49686 -7.06649,15.38381 -15.78449,15.38381 -8.71697,0 -15.78348,-6.88797 -15.78348,-15.38381 z"
     stroke-width="2.02886"
     stroke="#000000"
     id="path24-5-31-5" />
  <path
     d="m 177.6432,169.3865 c 0,-8.49683 7.06651,-15.38379 15.78449,-15.38379 4.18553,0 8.20064,1.62005 11.15972,4.50508 2.9601,2.88503 4.62376,6.7987 4.62376,10.87871 0,8.49686 -7.06649,15.38381 -15.78449,15.38381 -8.71697,0 -15.78348,-6.88797 -15.78348,-15.38381 z"
     stroke-width="2.02886"
     stroke="#000000"
     id="path24-5-31-7-7" />
  <path
     d="m 176.6296,229.96881 c 0,-8.49684 7.06651,-15.38379 15.7845,-15.38379 4.18552,0 8.20063,1.62005 11.15972,4.50508 2.96009,2.88503 4.62376,6.7987 4.62376,10.87871 0,8.49686 -7.0665,15.38381 -15.7845,15.38381 -8.71697,0 -15.78348,-6.88797 -15.78348,-15.38381 z"
     stroke-width="2.02886"
     stroke="#000000"
     id="path24-5-31-9" />
  <path
     d="m 208.05096,199.79428 c 0,-8.49684 7.06652,-15.38379 15.7845,-15.38379 4.18553,0 8.20064,1.62005 11.15972,4.50508 2.9601,2.88503 4.62376,6.79869 4.62376,10.87871 0,8.49686 -7.06649,15.38381 -15.78449,15.38381 -8.71697,0 -15.78349,-6.88797 -15.78349,-15.38381 z"
     stroke-width="2.02886"
     stroke="#000000"
     id="path24-5-31-7-1" />
  <path
     d="m 207.7131,258.3494 c 0,-8.49684 7.06651,-15.38379 15.7845,-15.38379 4.18552,0 8.20063,1.62005 11.15972,4.50508 2.96009,2.88503 4.62376,6.79869 4.62376,10.87871 0,8.49686 -7.0665,15.38381 -15.7845,15.38381 -8.71697,0 -15.78348,-6.88797 -15.78348,-15.38381 z"
     stroke-width="2.02886"
     stroke="#000000"
     id="path24-5-31-2" />
  <path
     d="m 239.13447,228.17486 c 0,-8.49684 7.06651,-15.38379 15.78449,-15.38379 4.18553,0 8.20064,1.62005 11.15972,4.50508 2.9601,2.88503 4.62376,6.7987 4.62376,10.87871 0,8.49686 -7.06649,15.38381 -15.78449,15.38381 -8.71697,0 -15.78348,-6.88797 -15.78348,-15.38381 z"
     stroke-width="2.02886"
     stroke="#000000"
     id="path24-5-31-7-3" />
  <path
     d="m 237.44514,289.43288 c 0,-8.49683 7.06651,-15.38379 15.7845,-15.38379 4.18552,0 8.20063,1.62005 11.15972,4.50508 2.96009,2.88503 4.62376,6.7987 4.62376,10.87871 0,8.49686 -7.0665,15.38381 -15.7845,15.38381 -8.71697,0 -15.78348,-6.88797 -15.78348,-15.38381 z"
     stroke-width="2.02886"
     stroke="#000000"
     id="path24-5-31-86" />
  <path
     d="m 268.8665,259.25835 c 0,-8.49684 7.06652,-15.38379 15.7845,-15.38379 4.18553,0 8.20064,1.62005 11.15972,4.50508 2.9601,2.88503 4.62376,6.79869 4.62376,10.87871 0,8.49686 -7.06649,15.38381 -15.78449,15.38381 -8.71697,0 -15.78349,-6.88797 -15.78349,-15.38381 z"
     stroke-width="2.02886"
     stroke="#000000"
     id="path24-5-31-7-9" />
</svg>
