<svg xmlns="http://www.w3.org/2000/svg" fill="none" viewBox="0 0 348 348"><path stroke="#000" stroke-width="1.81" d="m77.49 70.25 45.67 45.67-9.92 9.92-45.67-45.67zm-11.8 119.19 45.67-45.67 9.92 9.92-45.67 45.67zm83.94-1.36 45.67-45.67 9.91 9.92L159.54 198zm93.73-37.22 45.67 45.67-9.92 9.92-45.67-45.67z"/><path fill="#fff" stroke="#000" stroke-width="1.81" d="m272.26 285.2-45.67-45.68 9.92-9.91 45.67 45.67z"/><path stroke="#000" stroke-width="1.81" d="m230.83 274.43 45.67-45.67 9.92 9.92-45.67 45.67z"/><path fill="#fff" stroke="#000" stroke-width="1.81" d="m106.82 202-45.67-45.67 9.92-9.92 45.67 45.67zm84.33 2.08-45.67-45.67 9.92-9.92 45.67 45.67z"/><path fill="#fff" d="m276.85 279.74-4.62 4.6-22.38-22.38-22.4-22.4 4.62-4.6 4.61-4.62 22.4 22.4 22.4 22.4z"/><path stroke="#000" stroke-width="2" d="M4.55 5.25h336.92v337.67H4.55z"/><path stroke="#000" stroke-width="2" d="M282.73 40.55c0-8.37 6.97-15.16 15.56-15.16 4.13 0 8.09 1.6 11 4.44a14.97 14.97 0 0 1 4.56 10.72c0 8.38-6.96 15.17-15.56 15.17-8.59 0-15.56-6.8-15.56-15.17z"/><path stroke="#000" stroke-width="1.81" d="M60.33 42.32h64.6v14.03h-64.6zm-5.45 16.5v64.59H40.85V58.82z"/><path fill="#f9f9f9" stroke="#000" stroke-width="2.21" d="M33.7 13.22h28.33a21.9 21.9 0 0 1 21.95 21.95V63.5a21.9 21.9 0 0 1-21.95 21.95H33.7A21.9 21.9 0 0 1 11.75 63.5V35.17A21.9 21.9 0 0 1 33.7 13.22z"/><path fill="#fff" stroke="#000" stroke-width="1.81" d="m61.04 110.74 45.67-45.67 9.92 9.92-45.67 45.67z"/><path fill="#f9f9f9" stroke="#000" stroke-width="3.37" d="M32.25 21.14h31.22a13.6 13.6 0 0 1 13.64 13.64v16.54a13.6 13.6 0 0 1-13.64 13.64H32.25a13.6 13.6 0 0 1-13.64-13.64V34.78a13.6 13.6 0 0 1 13.64-13.64z"/><path fill="#f9f9f9" stroke="#000" stroke-width="2.33" d="M32.68 75.12a4.83 4.83 0 0 1-4.83 4.83 4.83 4.83 0 0 1-4.83-4.83 4.83 4.83 0 0 1 4.83-4.82 4.83 4.83 0 0 1 4.83 4.82zm13.22 0a4.83 4.83 0 0 1-4.83 4.83 4.83 4.83 0 0 1-4.83-4.83 4.83 4.83 0 0 1 4.83-4.82 4.83 4.83 0 0 1 4.83 4.82zm13.22 0a4.83 4.83 0 0 1-4.83 4.83 4.83 4.83 0 0 1-4.83-4.83 4.83 4.83 0 0 1 4.83-4.82 4.83 4.83 0 0 1 4.83 4.82z"/><path fill="#000" d="M45.06 40.64h-4.79l-1.32 4.82h4.43v1.73h-4.94l-1.49 5.4H35.1l1.49-5.4h-3.88l-1.5 5.4h-1.85l1.5-5.4h-4.3v-1.73h4.8l1.32-4.82h-4.43v-1.73h4.93l1.51-5.41h1.86l-1.51 5.41h3.88l1.5-5.41h1.86l-1.5 5.41h4.28zm-6.6-.02h-3.94l-1.35 4.87h3.94zm30.7.02h-4.8l-1.31 4.82h4.42v1.73h-4.93l-1.5 5.4H59.2l1.5-5.4h-3.9l-1.5 5.4h-1.85l1.5-5.4h-4.3v-1.73h4.8l1.32-4.82h-4.43v-1.73h4.93l1.51-5.41h1.86l-1.51 5.41h3.88l1.5-5.41h1.86l-1.5 5.41h4.28zm-6.6-.02h-3.94l-1.35 4.87h3.94z" aria-label="##"/><path stroke="#000" stroke-width="1.81" d="M221.73 55.02v64.58H207.7V55.02zm-80.39-12.7h64.59v14.03h-64.59zm-3.04 16.5v64.59h-14.03V58.82zm23.33 11.43 45.67 45.67-9.92 9.92-45.67-45.67z"/><path fill="#fff" d="m66.5 115.33-4.61-4.62 22.39-22.39 22.38-22.39 4.62 4.62 4.61 4.61-22.4 22.4-22.4 22.39z"/><path fill="#f9f9f9" stroke="#000" stroke-width="2.21" d="M117.12 13.22h28.34a21.9 21.9 0 0 1 21.94 21.95V63.5a21.9 21.9 0 0 1-21.94 21.95h-28.34A21.9 21.9 0 0 1 95.17 63.5V35.17a21.9 21.9 0 0 1 21.95-21.95z"/><path fill="#fff" stroke="#000" stroke-width="1.81" d="m144.67 109.9 45.67-45.67 9.92 9.92-45.67 45.67z"/><path fill="#f9f9f9" stroke="#000" stroke-width="3.37" d="M115.68 21.14h31.22a13.6 13.6 0 0 1 13.64 13.64v16.54a13.6 13.6 0 0 1-13.64 13.64h-31.22a13.6 13.6 0 0 1-13.64-13.64V34.78a13.6 13.6 0 0 1 13.64-13.64z"/><path fill="#f9f9f9" stroke="#000" stroke-width="2.33" d="M116.1 75.12a4.83 4.83 0 0 1-4.83 4.83 4.83 4.83 0 0 1-4.82-4.83 4.83 4.83 0 0 1 4.82-4.82 4.83 4.83 0 0 1 4.83 4.82zm13.22 0a4.83 4.83 0 0 1-4.82 4.83 4.83 4.83 0 0 1-4.83-4.83 4.83 4.83 0 0 1 4.83-4.82 4.83 4.83 0 0 1 4.82 4.82zm13.22 0a4.83 4.83 0 0 1-4.82 4.83 4.83 4.83 0 0 1-4.83-4.83 4.83 4.83 0 0 1 4.83-4.82 4.83 4.83 0 0 1 4.82 4.82z"/><path fill="#000" d="M128.48 40.64h-4.78l-1.33 4.82h4.43v1.73h-4.93l-1.5 5.4h-1.85l1.5-5.4h-3.89l-1.5 5.4h-1.85l1.5-5.4h-4.29v-1.73h4.8l1.31-4.82h-4.42v-1.73h4.93l1.5-5.41h1.86l-1.5 5.41h3.87l1.51-5.41h1.86l-1.51 5.41h4.28zm-6.6-.02h-3.94l-1.35 4.87h3.94zm30.7.02h-4.79l-1.32 4.82h4.43v1.73h-4.93l-1.5 5.4h-1.85l1.5-5.4h-3.89l-1.5 5.4h-1.85l1.5-5.4h-4.29v-1.73h4.79l1.32-4.82h-4.43v-1.73h4.93l1.51-5.41h1.86l-1.51 5.41h3.88l1.51-5.41h1.86l-1.51 5.41h4.28zm-6.6-.02h-3.94l-1.35 4.87h3.94z" aria-label="##"/><path stroke="#000" stroke-width="1.81" d="m246.7 70.25 45.67 45.67-9.92 9.92-45.67-45.67z"/><path fill="#fff" d="m150.13 114.49-4.61-4.62 22.39-22.4L190.3 65.1l4.61 4.61 4.61 4.62-22.4 22.4-22.39 22.38z"/><path fill="#f9f9f9" stroke="#000" stroke-width="2.21" d="M200.54 13.22h28.34a21.9 21.9 0 0 1 21.95 21.95V63.5a21.9 21.9 0 0 1-21.95 21.95h-28.34A21.9 21.9 0 0 1 178.6 63.5V35.17a21.9 21.9 0 0 1 21.94-21.95z"/><path fill="#f9f9f9" stroke="#000" stroke-width="3.37" d="M199.1 21.14h31.22a13.6 13.6 0 0 1 13.64 13.64v16.54a13.6 13.6 0 0 1-13.64 13.64H199.1a13.6 13.6 0 0 1-13.64-13.64V34.78a13.6 13.6 0 0 1 13.64-13.64z"/><path fill="#f9f9f9" stroke="#000" stroke-width="2.33" d="M199.53 75.12a4.83 4.83 0 0 1-4.83 4.83 4.83 4.83 0 0 1-4.83-4.83 4.83 4.83 0 0 1 4.83-4.82 4.83 4.83 0 0 1 4.83 4.82zm13.22 0a4.83 4.83 0 0 1-4.83 4.83 4.83 4.83 0 0 1-4.83-4.83 4.83 4.83 0 0 1 4.83-4.82 4.83 4.83 0 0 1 4.83 4.82zm13.22 0a4.83 4.83 0 0 1-4.83 4.83 4.83 4.83 0 0 1-4.83-4.83 4.83 4.83 0 0 1 4.83-4.82 4.83 4.83 0 0 1 4.83 4.82z"/><path fill="#000" d="M211.9 40.64h-4.78l-1.32 4.82h4.43v1.73h-4.94l-1.5 5.4h-1.85l1.5-5.4h-3.88l-1.5 5.4h-1.85l1.5-5.4h-4.3v-1.73h4.8l1.32-4.82h-4.43v-1.73h4.93l1.51-5.41h1.86l-1.51 5.41h3.88l1.5-5.41h1.86l-1.5 5.41h4.28zm-6.6-.02h-3.93l-1.35 4.87h3.94zm30.7.02h-4.78l-1.32 4.82h4.42v1.73h-4.93l-1.5 5.4h-1.85l1.5-5.4h-3.88l-1.5 5.4h-1.85l1.5-5.4h-4.3v-1.73h4.8l1.32-4.82h-4.43v-1.73h4.93l1.51-5.41h1.85l-1.5 5.41h3.88l1.5-5.41h1.86l-1.5 5.41H236zm-6.6-.02h-3.93l-1.35 4.87h3.94z" aria-label="##"/><path stroke="#000" stroke-width="1.81" d="M54.96 125.75h64.58v14.03H54.96zm-.08 8.4v64.59H40.85v-64.59z"/><path fill="#fff" d="m111.4 196.54-4.61 4.6-22.4-22.38-22.38-22.4 4.61-4.6 4.62-4.62 22.4 22.4 22.38 22.4z"/><path fill="#f9f9f9" stroke="#000" stroke-width="2.21" d="M33.7 96.65h28.33a21.9 21.9 0 0 1 21.95 21.95v28.33a21.9 21.9 0 0 1-21.95 21.95H33.7a21.9 21.9 0 0 1-21.95-21.95v-28.34A21.9 21.9 0 0 1 33.7 96.66z"/><path fill="#f9f9f9" stroke="#000" stroke-width="3.37" d="M32.25 104.56h31.22a13.6 13.6 0 0 1 13.64 13.64v16.54a13.6 13.6 0 0 1-13.64 13.64H32.25a13.6 13.6 0 0 1-13.63-13.64V118.2a13.6 13.6 0 0 1 13.63-13.64z"/><path fill="#f9f9f9" stroke="#000" stroke-width="2.33" d="M32.68 158.55a4.83 4.83 0 0 1-4.83 4.83 4.83 4.83 0 0 1-4.83-4.83 4.83 4.83 0 0 1 4.83-4.83 4.83 4.83 0 0 1 4.83 4.83zm13.22 0a4.83 4.83 0 0 1-4.83 4.83 4.83 4.83 0 0 1-4.83-4.83 4.83 4.83 0 0 1 4.83-4.83 4.83 4.83 0 0 1 4.83 4.83zm13.22 0a4.83 4.83 0 0 1-4.83 4.83 4.83 4.83 0 0 1-4.83-4.83 4.83 4.83 0 0 1 4.83-4.83 4.83 4.83 0 0 1 4.83 4.83z"/><path fill="#000" d="M45.06 124.07h-4.79l-1.32 4.82h4.43v1.73h-4.94l-1.49 5.4H35.1l1.49-5.4h-3.88l-1.5 5.4h-1.85l1.5-5.4h-4.3v-1.73h4.8l1.32-4.82h-4.43v-1.73h4.93l1.51-5.42h1.86l-1.51 5.42h3.88l1.5-5.42h1.86l-1.5 5.42h4.28zm-6.6-.03h-3.94l-1.35 4.87h3.94zm30.7.03h-4.8l-1.31 4.82h4.42v1.73h-4.93l-1.5 5.4H59.2l1.5-5.4h-3.9l-1.5 5.4h-1.85l1.5-5.4h-4.3v-1.73h4.8l1.32-4.82h-4.43v-1.73h4.93l1.51-5.42h1.86l-1.51 5.42h3.88l1.5-5.42h1.86l-1.5 5.42h4.28zm-6.6-.03h-3.94l-1.35 4.87h3.94z" aria-label="##"/><path stroke="#000" stroke-width="1.81" d="M142.97 125.75h64.59v14.02h-64.59zm-4.67 13.91v64.59h-14.03v-64.59z"/><path fill="#fff" d="m195.74 198.63-4.62 4.6-22.39-22.39-22.39-22.39 4.62-4.6 4.61-4.62 22.4 22.4 22.39 22.39z"/><path fill="#f9f9f9" stroke="#000" stroke-width="2.21" d="M117.12 96.65h28.34a21.9 21.9 0 0 1 21.94 21.95v28.33a21.9 21.9 0 0 1-21.94 21.95h-28.34a21.9 21.9 0 0 1-21.95-21.95v-28.34a21.9 21.9 0 0 1 21.95-21.94z"/><path fill="#f9f9f9" stroke="#000" stroke-width="3.37" d="M115.68 104.56h31.22a13.6 13.6 0 0 1 13.64 13.64v16.54a13.6 13.6 0 0 1-13.64 13.64h-31.22a13.6 13.6 0 0 1-13.64-13.64V118.2a13.6 13.6 0 0 1 13.64-13.64z"/><path fill="#f9f9f9" stroke="#000" stroke-width="2.33" d="M116.1 158.55a4.83 4.83 0 0 1-4.83 4.83 4.83 4.83 0 0 1-4.82-4.83 4.83 4.83 0 0 1 4.82-4.83 4.83 4.83 0 0 1 4.83 4.83zm13.22 0a4.83 4.83 0 0 1-4.82 4.83 4.83 4.83 0 0 1-4.83-4.83 4.83 4.83 0 0 1 4.83-4.83 4.83 4.83 0 0 1 4.82 4.83zm13.22 0a4.83 4.83 0 0 1-4.82 4.83 4.83 4.83 0 0 1-4.83-4.83 4.83 4.83 0 0 1 4.83-4.83 4.83 4.83 0 0 1 4.82 4.83z"/><path fill="#000" d="M128.48 124.07h-4.78l-1.33 4.82h4.43v1.73h-4.93l-1.5 5.4h-1.85l1.5-5.4h-3.89l-1.5 5.4h-1.85l1.5-5.4h-4.29v-1.73h4.8l1.31-4.82h-4.42v-1.73h4.93l1.5-5.42h1.86l-1.5 5.42h3.87l1.51-5.42h1.86l-1.51 5.42h4.28zm-6.6-.03h-3.94l-1.35 4.87h3.94zm30.7.03h-4.79l-1.32 4.82h4.43v1.73h-4.93l-1.5 5.4h-1.85l1.5-5.4h-3.89l-1.5 5.4h-1.85l1.5-5.4h-4.29v-1.73h4.79l1.32-4.82h-4.43v-1.73h4.93l1.52-5.42h1.85l-1.51 5.42h3.88l1.51-5.42h1.86l-1.51 5.42h4.28zm-6.6-.03h-3.94l-1.35 4.87h3.94z" aria-label="##"/><path stroke="#000" stroke-width="1.81" d="M227.56 125.75h64.58v14.03h-64.58z"/><path fill="#fff" stroke="#000" stroke-width="1.81" d="m191.15 286.73-45.67-45.67 9.92-9.92 45.67 45.67z"/><path stroke="#000" stroke-width="1.81" d="m147.02 275.58 45.67-45.67 9.92 9.91-45.67 45.67zm74.7-49.4v64.59H207.7v-64.59zm0-83.18v64.59H207.7V143z"/><path fill="#fff" stroke="#000" stroke-width="1.81" d="m285.26 156.55-45.67 45.67-9.92-9.92 45.67-45.67z"/><path fill="#f9f9f9" stroke="#000" stroke-width="2.21" d="M200.54 96.65h28.34a21.9 21.9 0 0 1 21.95 21.95v28.33a21.9 21.9 0 0 1-21.95 21.95h-28.34a21.9 21.9 0 0 1-21.94-21.95v-28.34a21.9 21.9 0 0 1 21.94-21.94z"/><path fill="#fff" d="m279.8 151.97 4.6 4.61-22.38 22.4-22.39 22.38-4.61-4.61-4.62-4.62 22.4-22.39 22.4-22.4z"/><path fill="#f9f9f9" stroke="#000" stroke-width="3.37" d="M199.1 104.56h31.22a13.6 13.6 0 0 1 13.64 13.64v16.54a13.6 13.6 0 0 1-13.64 13.64H199.1a13.6 13.6 0 0 1-13.64-13.64V118.2a13.6 13.6 0 0 1 13.64-13.64z"/><path fill="#f9f9f9" stroke="#000" stroke-width="2.33" d="M199.53 158.55a4.83 4.83 0 0 1-4.83 4.83 4.83 4.83 0 0 1-4.83-4.83 4.83 4.83 0 0 1 4.83-4.83 4.83 4.83 0 0 1 4.83 4.83zm13.22 0a4.83 4.83 0 0 1-4.83 4.83 4.83 4.83 0 0 1-4.83-4.83 4.83 4.83 0 0 1 4.83-4.83 4.83 4.83 0 0 1 4.83 4.83zm13.22 0a4.83 4.83 0 0 1-4.83 4.83 4.83 4.83 0 0 1-4.83-4.83 4.83 4.83 0 0 1 4.83-4.83 4.83 4.83 0 0 1 4.83 4.83z"/><path fill="#000" d="M211.9 124.07h-4.78l-1.32 4.82h4.43v1.73h-4.94l-1.49 5.4h-1.86l1.5-5.4h-3.88l-1.5 5.4h-1.85l1.5-5.4h-4.3v-1.73h4.8l1.32-4.82h-4.43v-1.73h4.93l1.51-5.42h1.86l-1.51 5.42h3.88l1.5-5.42h1.86l-1.5 5.42h4.28zm-6.6-.03h-3.93l-1.35 4.87h3.94zm30.7.03h-4.78l-1.32 4.82h4.42v1.73h-4.93l-1.5 5.4h-1.85l1.5-5.4h-3.88l-1.5 5.4h-1.85l1.5-5.4h-4.3v-1.73h4.8l1.32-4.82h-4.43v-1.73h4.93l1.51-5.42h1.85l-1.5 5.42h3.88l1.5-5.42h1.86l-1.5 5.42H236zm-6.6-.03h-3.93l-1.35 4.87h3.94z" aria-label="##"/><path stroke="#000" stroke-width="1.81" d="M305.15 138.2v64.58h-14.03V138.2z"/><path fill="#f9f9f9" stroke="#000" stroke-width="2.21" d="M283.97 96.65h28.33a21.9 21.9 0 0 1 21.95 21.95v28.33a21.9 21.9 0 0 1-21.95 21.95h-28.33a21.9 21.9 0 0 1-21.95-21.95v-28.34a21.9 21.9 0 0 1 21.95-21.94z"/><path fill="#f9f9f9" stroke="#000" stroke-width="3.37" d="M282.53 104.56h31.22a13.6 13.6 0 0 1 13.63 13.64v16.54a13.6 13.6 0 0 1-13.63 13.64h-31.22a13.6 13.6 0 0 1-13.64-13.64V118.2a13.6 13.6 0 0 1 13.64-13.64z"/><path fill="#f9f9f9" stroke="#000" stroke-width="2.33" d="M282.95 158.55a4.83 4.83 0 0 1-4.83 4.83 4.83 4.83 0 0 1-4.82-4.83 4.83 4.83 0 0 1 4.82-4.83 4.83 4.83 0 0 1 4.83 4.83zm13.22 0a4.83 4.83 0 0 1-4.82 4.83 4.83 4.83 0 0 1-4.83-4.83 4.83 4.83 0 0 1 4.83-4.83 4.83 4.83 0 0 1 4.82 4.83zm13.22 0a4.83 4.83 0 0 1-4.82 4.83 4.83 4.83 0 0 1-4.83-4.83 4.83 4.83 0 0 1 4.83-4.83 4.83 4.83 0 0 1 4.82 4.83z"/><path fill="#000" d="M295.33 124.07h-4.78l-1.33 4.82h4.43v1.73h-4.93l-1.5 5.4h-1.85l1.5-5.4h-3.89l-1.5 5.4h-1.85l1.5-5.4h-4.29v-1.73h4.8l1.31-4.82h-4.42v-1.73h4.93l1.5-5.42h1.86l-1.5 5.42h3.87l1.51-5.42h1.86l-1.51 5.42h4.28zm-6.6-.03h-3.94l-1.35 4.87h3.94zm30.7.03h-4.79l-1.32 4.82h4.43v1.73h-4.93l-1.5 5.4h-1.85l1.5-5.4h-3.89l-1.5 5.4h-1.85l1.5-5.4h-4.29v-1.73h4.79l1.32-4.82h-4.43v-1.73h4.93l1.51-5.42h1.86l-1.51 5.42h3.88l1.51-5.42h1.86l-1.51 5.42h4.28zm-6.6-.03h-3.94l-1.35 4.87h3.94z" aria-label="##"/><path stroke="#000" stroke-width="1.81" d="M54.88 218.38v64.59H40.85v-64.59zm2.2-9.2h64.58v14.02H57.07zm20.4 26.04 45.68 45.67-9.92 9.92-45.67-45.67z"/><path fill="#f9f9f9" stroke="#000" stroke-width="2.21" d="M33.7 180.07h28.33a21.9 21.9 0 0 1 21.95 21.95v28.33a21.9 21.9 0 0 1-21.95 21.95H33.7a21.9 21.9 0 0 1-21.95-21.95v-28.33a21.9 21.9 0 0 1 21.95-21.95z"/><path fill="#fff" stroke="#000" stroke-width="1.81" d="M121.05 237.44 75.38 283.1l-9.92-9.92 45.67-45.67z"/><path fill="#f9f9f9" stroke="#000" stroke-width="3.37" d="M32.25 187.99h31.22a13.6 13.6 0 0 1 13.64 13.63v16.55a13.6 13.6 0 0 1-13.64 13.64H32.25a13.6 13.6 0 0 1-13.63-13.64v-16.54a13.6 13.6 0 0 1 13.63-13.64z"/><path fill="#f9f9f9" stroke="#000" stroke-width="2.33" d="M32.68 241.97a4.83 4.83 0 0 1-4.83 4.83 4.83 4.83 0 0 1-4.83-4.83 4.83 4.83 0 0 1 4.83-4.82 4.83 4.83 0 0 1 4.83 4.82zm13.22 0a4.83 4.83 0 0 1-4.83 4.83 4.83 4.83 0 0 1-4.83-4.83 4.83 4.83 0 0 1 4.83-4.82 4.83 4.83 0 0 1 4.83 4.82zm13.22 0a4.83 4.83 0 0 1-4.83 4.83 4.83 4.83 0 0 1-4.83-4.83 4.83 4.83 0 0 1 4.83-4.82 4.83 4.83 0 0 1 4.83 4.82z"/><path fill="#000" d="M45.06 207.5h-4.79l-1.32 4.81h4.43v1.73h-4.94l-1.49 5.4H35.1l1.49-5.4h-3.88l-1.5 5.4h-1.85l1.5-5.4h-4.3v-1.73h4.8l1.32-4.82h-4.43v-1.73h4.93l1.51-5.41h1.86l-1.51 5.41h3.88l1.5-5.41h1.86l-1.5 5.41h4.28zm-6.6-.03h-3.94l-1.35 4.87h3.94zm30.7.02h-4.8l-1.31 4.82h4.42v1.73h-4.93l-1.5 5.4H59.2l1.5-5.4h-3.9l-1.5 5.4h-1.85l1.5-5.4h-4.3v-1.73h4.8l1.32-4.82h-4.43v-1.73h4.93l1.51-5.41h1.86l-1.51 5.41h3.88l1.5-5.41h1.86l-1.5 5.41h4.28zm-6.6-.02h-3.94l-1.35 4.87h3.94z" aria-label="##"/><path stroke="#000" stroke-width="1.81" d="M138.3 219.12v64.6h-14.03v-64.6z"/><path stroke="#000" stroke-width="1.81" d="M134 209.17h64.59v14.03H134z"/><path fill="#fff" d="m115.6 232.85 4.6 4.62-22.39 22.39-22.39 22.38-4.61-4.6-4.61-4.62 22.4-22.4 22.39-22.39zm80.14 48.43-4.62 4.6-22.39-22.39-22.39-22.38 4.62-4.62 4.61-4.61 22.4 22.4 22.39 22.4z"/><path fill="#f9f9f9" stroke="#000" stroke-width="2.21" d="M117.12 180.07h28.34a21.9 21.9 0 0 1 21.94 21.95v28.33a21.9 21.9 0 0 1-21.94 21.95h-28.34a21.9 21.9 0 0 1-21.95-21.95v-28.33a21.9 21.9 0 0 1 21.95-21.95z"/><path fill="#f9f9f9" stroke="#000" stroke-width="3.37" d="M115.68 187.99h31.22a13.6 13.6 0 0 1 13.64 13.63v16.55a13.6 13.6 0 0 1-13.64 13.64h-31.22a13.6 13.6 0 0 1-13.64-13.64v-16.54a13.6 13.6 0 0 1 13.64-13.64z"/><path fill="#f9f9f9" stroke="#000" stroke-width="2.33" d="M116.1 241.97a4.83 4.83 0 0 1-4.83 4.83 4.83 4.83 0 0 1-4.82-4.83 4.83 4.83 0 0 1 4.82-4.82 4.83 4.83 0 0 1 4.83 4.82zm13.22 0a4.83 4.83 0 0 1-4.82 4.83 4.83 4.83 0 0 1-4.83-4.83 4.83 4.83 0 0 1 4.83-4.82 4.83 4.83 0 0 1 4.82 4.82zm13.22 0a4.83 4.83 0 0 1-4.82 4.83 4.83 4.83 0 0 1-4.83-4.83 4.83 4.83 0 0 1 4.83-4.82 4.83 4.83 0 0 1 4.82 4.82z"/><path fill="#000" d="M128.48 207.5h-4.78l-1.33 4.81h4.43v1.73h-4.93l-1.5 5.4h-1.85l1.5-5.4h-3.89l-1.5 5.4h-1.85l1.5-5.4h-4.29v-1.73h4.8l1.31-4.82h-4.42v-1.73h4.93l1.5-5.41h1.86l-1.5 5.41h3.87l1.51-5.41h1.86l-1.51 5.41h4.28zm-6.6-.03h-3.94l-1.35 4.87h3.94zm30.7.02h-4.79l-1.32 4.82h4.43v1.73h-4.93l-1.5 5.4h-1.85l1.5-5.4h-3.89l-1.5 5.4h-1.85l1.5-5.4h-4.29v-1.73h4.79l1.32-4.82h-4.43v-1.73h4.93l1.52-5.41h1.85l-1.51 5.41h3.88l1.51-5.41h1.86l-1.51 5.41h4.28zm-6.6-.02h-3.94l-1.35 4.87h3.94z" aria-label="##"/><path stroke="#000" stroke-width="1.81" d="M227.24 209.17h64.58v14.03h-64.58z"/><path fill="#f9f9f9" stroke="#000" stroke-width="2.21" d="M200.54 180.07h28.34a21.9 21.9 0 0 1 21.95 21.95v28.33a21.9 21.9 0 0 1-21.95 21.95h-28.34a21.9 21.9 0 0 1-21.94-21.95v-28.33a21.9 21.9 0 0 1 21.94-21.95z"/><path fill="#f9f9f9" stroke="#000" stroke-width="3.37" d="M199.1 187.99h31.22a13.6 13.6 0 0 1 13.64 13.63v16.55a13.6 13.6 0 0 1-13.64 13.64H199.1a13.6 13.6 0 0 1-13.64-13.64v-16.54a13.6 13.6 0 0 1 13.64-13.64z"/><path fill="#f9f9f9" stroke="#000" stroke-width="2.33" d="M199.53 241.97a4.83 4.83 0 0 1-4.83 4.83 4.83 4.83 0 0 1-4.83-4.83 4.83 4.83 0 0 1 4.83-4.82 4.83 4.83 0 0 1 4.83 4.82zm13.22 0a4.83 4.83 0 0 1-4.83 4.83 4.83 4.83 0 0 1-4.83-4.83 4.83 4.83 0 0 1 4.83-4.82 4.83 4.83 0 0 1 4.83 4.82zm13.22 0a4.83 4.83 0 0 1-4.83 4.83 4.83 4.83 0 0 1-4.83-4.83 4.83 4.83 0 0 1 4.83-4.82 4.83 4.83 0 0 1 4.83 4.82z"/><path fill="#000" d="M211.9 207.5h-4.78l-1.32 4.81h4.43v1.73h-4.94l-1.49 5.4h-1.86l1.5-5.4h-3.88l-1.5 5.4h-1.85l1.5-5.4h-4.3v-1.73h4.8l1.32-4.82h-4.43v-1.73h4.93l1.51-5.41h1.86l-1.51 5.41h3.88l1.5-5.41h1.86l-1.5 5.41h4.28zm-6.6-.03h-3.93l-1.35 4.87h3.94zm30.7.02h-4.78l-1.32 4.82h4.42v1.73h-4.93l-1.5 5.4h-1.85l1.5-5.4h-3.88l-1.5 5.4h-1.85l1.5-5.4h-4.3v-1.73h4.8l1.32-4.82h-4.43v-1.73h4.93l1.51-5.41h1.85l-1.5 5.41h3.88l1.5-5.41h1.86l-1.5 5.41H236zm-6.6-.02h-3.93l-1.35 4.87h3.94z" aria-label="##"/><path stroke="#000" stroke-width="1.81" d="M305.15 219.56v64.59h-14.03v-64.59z"/><path fill="#f9f9f9" stroke="#000" stroke-width="2.21" d="M283.97 180.07h28.33a21.9 21.9 0 0 1 21.95 21.95v28.33a21.9 21.9 0 0 1-21.95 21.95h-28.33a21.9 21.9 0 0 1-21.95-21.95v-28.33a21.9 21.9 0 0 1 21.95-21.95z"/><path fill="#f9f9f9" stroke="#000" stroke-width="3.37" d="M282.53 187.99h31.22a13.6 13.6 0 0 1 13.63 13.63v16.55a13.6 13.6 0 0 1-13.63 13.64h-31.22a13.6 13.6 0 0 1-13.64-13.64v-16.54a13.6 13.6 0 0 1 13.64-13.64z"/><path fill="#f9f9f9" stroke="#000" stroke-width="2.33" d="M282.95 241.97a4.83 4.83 0 0 1-4.83 4.83 4.83 4.83 0 0 1-4.82-4.83 4.83 4.83 0 0 1 4.82-4.82 4.83 4.83 0 0 1 4.83 4.82zm13.22 0a4.83 4.83 0 0 1-4.82 4.83 4.83 4.83 0 0 1-4.83-4.83 4.83 4.83 0 0 1 4.83-4.82 4.83 4.83 0 0 1 4.82 4.82zm13.22 0a4.83 4.83 0 0 1-4.82 4.83 4.83 4.83 0 0 1-4.83-4.83 4.83 4.83 0 0 1 4.83-4.82 4.83 4.83 0 0 1 4.82 4.82z"/><path fill="#000" d="M295.33 207.5h-4.78l-1.33 4.81h4.43v1.73h-4.93l-1.5 5.4h-1.85l1.5-5.4h-3.89l-1.5 5.4h-1.85l1.5-5.4h-4.29v-1.73h4.8l1.31-4.82h-4.42v-1.73h4.93l1.5-5.41h1.86l-1.5 5.41h3.87l1.51-5.41h1.86l-1.51 5.41h4.28zm-6.6-.03h-3.94l-1.35 4.87h3.94zm30.7.02h-4.79l-1.32 4.82h4.43v1.73h-4.93l-1.5 5.4h-1.85l1.5-5.4h-3.89l-1.5 5.4h-1.85l1.5-5.4h-4.29v-1.73h4.79l1.32-4.82h-4.43v-1.73h4.93l1.51-5.41h1.86l-1.51 5.41h3.88l1.51-5.41h1.86l-1.51 5.41h4.28zm-6.6-.02h-3.94l-1.35 4.87h3.94z" aria-label="##"/><path stroke="#000" stroke-width="1.81" d="M59.25 292.6h64.58v14.02H59.25z"/><path fill="#f9f9f9" stroke="#000" stroke-width="2.21" d="M33.7 263.5h28.33a21.9 21.9 0 0 1 21.95 21.94v28.34a21.9 21.9 0 0 1-21.95 21.95H33.7a21.9 21.9 0 0 1-21.95-21.95v-28.33A21.9 21.9 0 0 1 33.7 263.5z"/><path fill="#f9f9f9" stroke="#000" stroke-width="3.37" d="M32.25 271.41h31.22a13.6 13.6 0 0 1 13.64 13.64v16.54a13.6 13.6 0 0 1-13.64 13.64H32.25a13.6 13.6 0 0 1-13.64-13.64v-16.54a13.6 13.6 0 0 1 13.64-13.64z"/><path fill="#f9f9f9" stroke="#000" stroke-width="2.33" d="M32.68 325.4a4.83 4.83 0 0 1-4.83 4.83 4.83 4.83 0 0 1-4.83-4.83 4.83 4.83 0 0 1 4.83-4.83 4.83 4.83 0 0 1 4.83 4.83zm13.22 0a4.83 4.83 0 0 1-4.83 4.83 4.83 4.83 0 0 1-4.83-4.83 4.83 4.83 0 0 1 4.83-4.83 4.83 4.83 0 0 1 4.83 4.83zm13.22 0a4.83 4.83 0 0 1-4.83 4.83 4.83 4.83 0 0 1-4.83-4.83 4.83 4.83 0 0 1 4.83-4.83 4.83 4.83 0 0 1 4.83 4.83z"/><path fill="#000" d="M45.06 290.92h-4.79l-1.32 4.82h4.43v1.73h-4.94l-1.49 5.4H35.1l1.49-5.4h-3.88l-1.5 5.4h-1.85l1.5-5.4h-4.3v-1.73h4.8l1.32-4.82h-4.43v-1.73h4.93l1.51-5.42h1.86l-1.51 5.42h3.88l1.5-5.42h1.86l-1.5 5.42h4.28zm-6.6-.03h-3.94l-1.35 4.87h3.94zm30.7.03h-4.8l-1.31 4.82h4.42v1.73h-4.93l-1.5 5.4H59.2l1.5-5.4h-3.9l-1.5 5.4h-1.85l1.5-5.4h-4.3v-1.73h4.8l1.32-4.82h-4.43v-1.73h4.93l1.51-5.42h1.86l-1.51 5.42h3.88l1.5-5.42h1.86l-1.5 5.42h4.28zm-6.6-.03h-3.94l-1.35 4.87h3.94z" aria-label="##"/><path stroke="#000" stroke-width="1.81" d="M141.88 292.6h64.59v14.02h-64.59z"/><path fill="#f9f9f9" stroke="#000" stroke-width="2.21" d="M117.12 263.5h28.34a21.9 21.9 0 0 1 21.94 21.94v28.34a21.9 21.9 0 0 1-21.94 21.95h-28.34a21.9 21.9 0 0 1-21.95-21.95v-28.33a21.9 21.9 0 0 1 21.95-21.95z"/><path fill="#f9f9f9" stroke="#000" stroke-width="3.37" d="M115.68 271.41h31.22a13.6 13.6 0 0 1 13.64 13.64v16.54a13.6 13.6 0 0 1-13.64 13.64h-31.22a13.6 13.6 0 0 1-13.64-13.64v-16.54a13.6 13.6 0 0 1 13.64-13.64z"/><path fill="#f9f9f9" stroke="#000" stroke-width="2.33" d="M116.1 325.4a4.83 4.83 0 0 1-4.83 4.83 4.83 4.83 0 0 1-4.82-4.83 4.83 4.83 0 0 1 4.82-4.83 4.83 4.83 0 0 1 4.83 4.83zm13.22 0a4.83 4.83 0 0 1-4.82 4.83 4.83 4.83 0 0 1-4.83-4.83 4.83 4.83 0 0 1 4.83-4.83 4.83 4.83 0 0 1 4.82 4.83zm13.22 0a4.83 4.83 0 0 1-4.82 4.83 4.83 4.83 0 0 1-4.83-4.83 4.83 4.83 0 0 1 4.83-4.83 4.83 4.83 0 0 1 4.82 4.83z"/><path fill="#000" d="M128.48 290.92h-4.78l-1.33 4.82h4.43v1.73h-4.93l-1.5 5.4h-1.85l1.5-5.4h-3.89l-1.5 5.4h-1.85l1.5-5.4h-4.29v-1.73h4.8l1.31-4.82h-4.42v-1.73h4.93l1.5-5.42h1.86l-1.5 5.42h3.87l1.51-5.42h1.86l-1.51 5.42h4.28zm-6.6-.03h-3.94l-1.35 4.87h3.94zm30.7.03h-4.79l-1.32 4.82h4.43v1.73h-4.93l-1.5 5.4h-1.85l1.5-5.4h-3.89l-1.5 5.4h-1.85l1.5-5.4h-4.29v-1.73h4.79l1.32-4.82h-4.43v-1.73h4.93l1.52-5.42h1.85l-1.51 5.42h3.88l1.51-5.42h1.86l-1.51 5.42h4.28zm-6.6-.03h-3.94l-1.35 4.87h3.94z" aria-label="##"/><path stroke="#000" stroke-width="1.81" d="M222.34 292.6h64.6v14.02h-64.6z"/><path fill="#f9f9f9" stroke="#000" stroke-width="2.21" d="M200.54 263.5h28.34a21.9 21.9 0 0 1 21.95 21.94v28.34a21.9 21.9 0 0 1-21.95 21.95h-28.34a21.9 21.9 0 0 1-21.94-21.95v-28.33a21.9 21.9 0 0 1 21.94-21.95z"/><path fill="#f9f9f9" stroke="#000" stroke-width="3.37" d="M199.1 271.41h31.22a13.6 13.6 0 0 1 13.64 13.64v16.54a13.6 13.6 0 0 1-13.64 13.64H199.1a13.6 13.6 0 0 1-13.64-13.64v-16.54a13.6 13.6 0 0 1 13.64-13.64z"/><path fill="#f9f9f9" stroke="#000" stroke-width="2.33" d="M199.53 325.4a4.83 4.83 0 0 1-4.83 4.83 4.83 4.83 0 0 1-4.83-4.83 4.83 4.83 0 0 1 4.83-4.83 4.83 4.83 0 0 1 4.83 4.83zm13.22 0a4.83 4.83 0 0 1-4.83 4.83 4.83 4.83 0 0 1-4.83-4.83 4.83 4.83 0 0 1 4.83-4.83 4.83 4.83 0 0 1 4.83 4.83zm13.22 0a4.83 4.83 0 0 1-4.83 4.83 4.83 4.83 0 0 1-4.83-4.83 4.83 4.83 0 0 1 4.83-4.83 4.83 4.83 0 0 1 4.83 4.83z"/><path fill="#000" d="M211.9 290.92h-4.78l-1.32 4.82h4.43v1.73h-4.94l-1.49 5.4h-1.86l1.5-5.4h-3.88l-1.5 5.4h-1.85l1.5-5.4h-4.3v-1.73h4.8l1.32-4.82h-4.43v-1.73h4.93l1.51-5.42h1.86l-1.51 5.42h3.88l1.5-5.42h1.86l-1.5 5.42h4.28zm-6.6-.03h-3.93l-1.35 4.87h3.94zm30.7.03h-4.78l-1.32 4.82h4.42v1.73h-4.93l-1.5 5.4h-1.85l1.5-5.4h-3.88l-1.5 5.4h-1.85l1.5-5.4h-4.3v-1.73h4.8l1.32-4.82h-4.43v-1.73h4.93l1.51-5.42h1.85l-1.5 5.42h3.88l1.5-5.42h1.86l-1.5 5.42H236zm-6.6-.03h-3.93l-1.35 4.87h3.94z" aria-label="##"/><path fill="#f9f9f9" stroke="#000" stroke-width="2.21" d="M283.97 263.5h28.33a21.9 21.9 0 0 1 21.95 21.94v28.34a21.9 21.9 0 0 1-21.95 21.95h-28.33a21.9 21.9 0 0 1-21.95-21.95v-28.33a21.9 21.9 0 0 1 21.95-21.95z"/><path fill="#f9f9f9" stroke="#000" stroke-width="3.37" d="M282.53 271.41h31.22a13.6 13.6 0 0 1 13.63 13.64v16.54a13.6 13.6 0 0 1-13.63 13.64h-31.22a13.6 13.6 0 0 1-13.64-13.64v-16.54a13.6 13.6 0 0 1 13.64-13.64z"/><path fill="#f9f9f9" stroke="#000" stroke-width="2.33" d="M282.95 325.4a4.83 4.83 0 0 1-4.83 4.83 4.83 4.83 0 0 1-4.82-4.83 4.83 4.83 0 0 1 4.82-4.83 4.83 4.83 0 0 1 4.83 4.83zm13.22 0a4.83 4.83 0 0 1-4.82 4.83 4.83 4.83 0 0 1-4.83-4.83 4.83 4.83 0 0 1 4.83-4.83 4.83 4.83 0 0 1 4.82 4.83zm13.22 0a4.83 4.83 0 0 1-4.82 4.83 4.83 4.83 0 0 1-4.83-4.83 4.83 4.83 0 0 1 4.83-4.83 4.83 4.83 0 0 1 4.82 4.83z"/><path fill="#000" d="M295.33 290.92h-4.78l-1.33 4.82h4.43v1.73h-4.93l-1.5 5.4h-1.85l1.5-5.4h-3.89l-1.5 5.4h-1.85l1.5-5.4h-4.29v-1.73h4.8l1.31-4.82h-4.42v-1.73h4.93l1.5-5.42h1.86l-1.5 5.42h3.87l1.51-5.42h1.86l-1.51 5.42h4.28zm-6.6-.03h-3.94l-1.35 4.87h3.94zm30.7.03h-4.79l-1.32 4.82h4.43v1.73h-4.93l-1.5 5.4h-1.85l1.5-5.4h-3.89l-1.5 5.4h-1.85l1.5-5.4h-4.29v-1.73h4.79l1.32-4.82h-4.43v-1.73h4.93l1.51-5.42h1.86l-1.51 5.42h3.88l1.51-5.42h1.86l-1.51 5.42h4.28zm-6.6-.03h-3.94l-1.35 4.87h3.94z" aria-label="##"/></svg>