<svg xmlns="http://www.w3.org/2000/svg" xmlns:xlink="http://www.w3.org/1999/xlink" xml:space="preserve" fill="none" viewBox="0 0 348 348"><path stroke="#000" stroke-width="2" d="M341.99 343.446H5.08V5.776h336.91z"/><path stroke="#000" stroke-width="5.421" d="M186.49 273.276c0 22.092-19.403 39.999-43.341 39.999-11.493 0-22.517-4.204-30.64-11.71-8.133-7.497-12.701-17.673-12.701-28.281 0-22.093 19.406-40 43.34-40 23.939 0 43.342 17.91 43.342 40.002z"/><path fill="#fffffe" fill-rule="evenodd" stroke="#000" d="M230.034 232.983h85.525v82.576h-85.525z"/><path fill="#000" fill-rule="evenodd" stroke="#000" d="M29.492 41.288h287.542v138.61H29.492z"/><path stroke="#000" d="M317.034 272.797c3.169-6.338 2.95-3.7 2.95-7.373 0-.492-.349-1.127 0-1.475.347-.347.982 0 1.474 0 0-.491-.348-1.127 0-1.474.347-.348 1.127.347 1.474 0 .695-.696-.695-2.254 0-2.95.348-.347 1.127.348 1.475 0 .695-.695-.695-2.254 0-2.949.347-.347 1.127.348 1.474 0 .355-.355-.354-5.543 0-5.898 3.933 0-.491.491 1.475-1.475.347-.347 1.127.348 1.475 0 .737-.737-.738-3.686 0-4.423.347-.348 1.127.347 1.474 0 .457-.457-.457-6.917 0-7.373.348-.348 1.127.347 1.475 0 .347-.348 0-.983 0-1.475 0-.695-.067-7.306 0-7.373.347-.347 1.127.348 1.474 0 .348-.347 0-.983 0-1.474v-16.221c0-.491.348-1.127 0-1.474-.347-.348-1.127.347-1.474 0-.348-.348 0-.983 0-1.475 0-1.025.266-6.84 0-7.373-.311-.621-1.164-.852-1.475-1.474-.51-1.019.518-6.855 0-7.373-.347-.348-1.127.347-1.474 0-.348-.348 0-.983 0-1.475v-1.474c0-.358.047-4.377 0-4.424-.348-.348-1.128.348-1.475 0-.404-.403.4-5.098 0-5.898-.31-.622-1.164-.853-1.475-1.475-.59-1.18.59-3.244 0-4.424-.31-.621-1.163-.852-1.474-1.474-.51-1.019.517-6.855 0-7.373-.348-.348-1.127.348-1.475 0-.737-.737.737-3.686 0-4.424-.347-.347-1.127.348-1.474 0-.738-.737.737-3.686 0-4.423-.348-.348-1.127.347-1.475 0-.737-.738.737-3.687 0-4.424-.348-.348-1.127.347-1.475 0-.347-.348.348-1.127 0-1.475-.347-.347-1.127.348-1.474 0-.348-.347.347-1.127 0-1.474-.348-.348-1.127.347-1.475 0-.347-.348.348-1.127 0-1.475-1.966-1.966-1.474 2.458-1.474-1.475"/><path fill="#000" fill-rule="evenodd" stroke="#000" stroke-width="1.426" d="M4.925 293.891H88.55V343.6H4.925z"/><path stroke="#000" d="M48.661 309.661v-8.847c0-.492-.348-1.127 0-1.475.348-.348 1.127.348 1.475 0 .737-.737-.738-3.686 0-4.424.347-.347 1.127.348 1.474 0 .348-.347-.347-1.127 0-1.474.695-.695 2.254.695 2.95 0 .347-.348-.348-1.127 0-1.475 3.05-3.05-.12 4.662 2.948-1.474.22-.44-.347-1.127 0-1.475.696-.695 2.255.695 2.95 0 .347-.348-.348-1.127 0-1.475.347-.347 1.035.22 1.474 0 .622-.31.853-1.163 1.475-1.474.44-.22 1.127.347 1.474 0 .348-.348-.347-1.127 0-1.475.348-.347 1.127.348 1.475 0 .347-.347-.348-1.127 0-1.474.347-.348 1.127.347 1.475 0 .347-.348-.348-1.127 0-1.475.695-.695 2.254.695 2.949 0 .347-.347-.348-1.127 0-1.475.96-.96 1.989.96 2.949 0 .347-.347-.348-1.127 0-1.474.737-.737 3.686.737 4.424 0 .347-.348-.348-1.127 0-1.475.347-.347.983 0 1.474 0h19.17"/><path d="M141.735 299.835c0-.075-.22-.136-.49-.136s-.49-.06-.49-.135c0-.075-.127-.136-.28-.136-.155 0-.28-.06-.28-.135 0-.075-.111-.138-.246-.14-.267-.005-1.818-1.38-2.1-1.862-.097-.165-.176-.392-.176-.504 0-.113-.063-.206-.14-.206-.077 0-.14-.179-.14-.398 0-.22-.063-.437-.14-.483-.077-.046-.14-.564-.14-1.152s.063-1.106.14-1.152c.077-.047.14-.264.14-.483 0-.22.063-.399.14-.399.077 0 .14-.122.14-.27 0-.15.063-.272.14-.272.077 0 .14-.066.14-.147 0-.216 1.416-1.615 1.635-1.615.102 0 .187-.046.187-.102.001-.137.694-.44 1.007-.44.14 0 .253-.061.253-.136 0-.075.252-.136.56-.136.308 0 .56-.06.56-.135 0-.077.397-.136.91-.136.514 0 .91.06.91.136 0 .074.253.135.561.135.308 0 .56.061.56.136 0 .075.177.136.394.136.217 0 .529.122.694.27.166.15.35.273.412.275.165.005 1.301 1.04 1.301 1.185 0 .07.121.231.269.36.147.13.38.597.516 1.038.137.442.3.803.362.803.063 0 .114.427.114.949s-.06.949-.134.949c-.073 0-.178.228-.232.508-.225 1.159-1.563 2.756-2.715 3.24-.27.113-.6.262-.734.33a1.569 1.569 0 0 1-.595.124c-.194 0-.352.061-.352.136 0 .08-.537.136-1.33.136-.794 0-1.331-.055-1.331-.136zm8.298-12.583c-.173-.024-.315-.1-.315-.17s-.083-.126-.184-.126c-.101 0-.495-.269-.875-.597-.38-.329-.739-.569-.797-.534-.057.034-.105-.002-.105-.08 0-.08-.126-.144-.28-.144-.154 0-.264-.046-.245-.102.02-.056.004-.107-.035-.113a3.02 3.02 0 0 1-.42-.197 2.96 2.96 0 0 0-.49-.216c-.077-.017-.361-.102-.63-.19-1.101-.353-1.335-.383-2.705-.342-1.605.048-2.478.178-2.478.369 0 .07-.058.094-.13.05-.072-.042-.17-.014-.22.063-.049.077-.143.107-.21.067-.067-.04-.33.052-.586.203a5.043 5.043 0 0 1-.71.357c-.134.045-.244.136-.244.202s-.08.123-.175.126c-.097.004-.428.247-.736.542-.308.294-.67.535-.805.535s-.245.062-.245.137c0 .078-.444.135-1.05.135-.607 0-1.05-.057-1.05-.135 0-.075-.117-.136-.26-.136-.28 0-.721-.4-.721-.655 0-.087-.063-.158-.14-.158-.077 0-.14-.153-.14-.34 0-.186-.063-.338-.14-.338-.204 0-.172-.572.063-1.116.215-.498 1.676-1.867 1.992-1.867.102 0 .185-.05.185-.112s.174-.197.386-.3c.211-.103.552-.297.756-.43.205-.133.473-.242.596-.242s.223-.061.223-.136c0-.074.126-.135.28-.135.154 0 .28-.061.28-.136 0-.074.221-.135.49-.135.27 0 .49-.061.49-.136 0-.075.221-.136.49-.136.27 0 .491-.06.491-.135 0-.075.312-.136.692-.136.38 0 .731-.06.779-.135.05-.08.862-.136 1.96-.136 1.099 0 1.91.056 1.961.136.048.074.43.135.849.135s.762.061.762.136c0 .075.185.135.412.135.226 0 .45.061.498.136.048.075.21.136.36.136.151 0 .4.06.552.135l.557.271c.153.075.373.136.49.136.117 0 .212.051.212.114s.284.256.63.428c.347.173.63.365.63.428s.11.117.246.12c.348.006 1.84 1.487 1.907 1.892.031.187.122.326.202.309.19-.04.004.59-.42 1.414-.188.367-.505.728-.757.863-.425.227-1.497.372-2.123.286zm-23.424-7.074c0-.075-.116-.136-.258-.136-.276 0-.722-.398-.722-.643a.222.222 0 0 0-.148-.195c-.081-.026-.163-.152-.183-.279-.019-.127-.078-.273-.132-.325-.169-.163-.106-.804.121-1.245.21-.407 2.287-2.349 2.533-2.368.066-.005.188-.074.272-.154.293-.281.829-.633.901-.593.04.022.226-.096.412-.264.186-.168.452-.305.592-.305.14 0 .254-.054.254-.12 0-.067.217-.22.484-.343.266-.122.523-.283.57-.357a.162.162 0 0 1 .217-.055c.072.043.23-.017.351-.135.122-.117.272-.182.334-.145.062.037.19-.023.284-.133.095-.11.235-.163.312-.117.077.046.18.029.23-.039.048-.067.372-.234.719-.37.346-.136.74-.302.873-.37.134-.066.37-.12.525-.12.156 0 .283-.062.283-.136 0-.075.047-.129.105-.12.4.061 1.017-.038.945-.152-.053-.082.162-.135.552-.135.351 0 .638-.061.638-.136 0-.075.374-.135.84-.135.468 0 .841-.06.841-.136 0-.087 1.357-.135 3.79-.135 2.49 0 3.76.046 3.703.135-.054.085.232.136.762.136.472 0 .848.06.848.135 0 .075.279.136.62.136.34 0 .639.059.664.131.026.072.252.146.502.165.25.018.455.08.455.14 0 .058.15.106.333.106.183 0 .411.09.506.202.096.111.23.168.3.126.12-.072.795.202 2.557 1.042.454.216.911.392 1.016.392.105 0 .19.052.19.115s.284.255.63.428c.347.172.63.365.63.428s.111.114.246.115c.135 0 .446.183.692.406.247.224.513.406.593.406.08 0 .47.29.865.644l1.123 1.004c.222.197.403.419.403.491 0 .073.095.209.21.302.275.22.277 1.03.002 1.132-.114.043-.173.163-.132.268.042.105-.022.228-.142.272-.12.045-.218.161-.218.259 0 .185-.296.456-.814.746-.486.272-2.02.219-2.352-.081-.153-.138-.35-.275-.438-.305-.087-.03-.584-.419-1.103-.863-.519-.445-1.023-.82-1.12-.834-.098-.014-.32-.154-.493-.31-.174-.156-.388-.284-.478-.284-.089 0-.276-.122-.415-.272-.14-.149-.37-.27-.512-.27-.142 0-.258-.062-.258-.136 0-.075-.093-.136-.206-.136-.113 0-.43-.122-.705-.27-.274-.15-.591-.272-.704-.272-.113 0-.206-.061-.206-.136 0-.074-.185-.135-.412-.135-.226 0-.45-.061-.498-.136-.048-.074-.24-.135-.429-.135-.188 0-.342-.049-.342-.108 0-.06-.236-.123-.525-.142-.289-.018-.546-.092-.572-.163-.025-.071-.356-.13-.735-.13s-.689-.06-.689-.135c0-.087-1.21-.136-3.353-.136-2.084 0-3.385.052-3.44.136-.047.074-.397.135-.778.135-.38 0-.692.055-.692.121 0 .067-.205.154-.455.194-1.07.171-1.549.31-2.239.65-.134.066-.339.12-.455.12-.117 0-.212.061-.212.136 0 .074-.093.135-.206.135-.113 0-.43.122-.704.271-.275.15-.592.271-.705.271-.113 0-.206.054-.206.12 0 .065-.183.192-.406.282-.224.09-.545.306-.715.48-.17.176-.382.292-.472.259-.089-.034-.506.276-.925.687-.42.412-.829.748-.908.748-.08 0-.366.183-.635.407-.44.364-.589.406-1.436.406-.537 0-.945-.058-.945-.135zm-7.842-6.98c-.095-.111-.223-.172-.284-.136-.137.082-.785-.645-.907-1.017-.05-.15-.139-.272-.2-.272-.06 0-.11-.275-.11-.61 0-.436.056-.61.198-.61.109 0 .161-.058.117-.128-.045-.07.127-.33.383-.576.985-.949 2.65-2.353 2.945-2.482.17-.075.49-.303.714-.509.223-.205.488-.372.589-.372.1 0 .331-.138.513-.305.314-.29.99-.689 1.293-.762.077-.019.266-.14.42-.27.154-.13.548-.356.874-.501.327-.145.594-.31.595-.365.001-.056.128-.102.282-.102.154 0 .28-.06.28-.136 0-.074.126-.135.28-.135.154 0 .28-.061.28-.136 0-.074.158-.135.35-.135.193 0 .35-.061.35-.136 0-.074.096-.135.213-.135.116 0 .352-.07.525-.157.657-.329.806-.386 1.011-.386.117 0 .212-.06.212-.135 0-.075.19-.136.42-.136.232 0 .42-.06.42-.135 0-.075.184-.136.41-.136.224 0 .429-.059.454-.131.026-.072.252-.146.502-.165.25-.018.455-.08.455-.14 0-.058.22-.106.49-.106s.49-.061.49-.136c0-.074.194-.135.43-.135s.542-.059.68-.13c.138-.072.497-.145.797-.162.3-.018.579-.08.62-.138.043-.058.42-.115.841-.128.42-.012.827-.068.904-.124.573-.42 10.597-.404 11.058.017.073.068.463.122.867.122.403 0 .773.061.82.136.048.075.367.136.709.136.342 0 .622.048.622.107 0 .06.234.124.52.142.287.019.555.08.596.135.04.056.263.115.494.13.231.017.442.09.467.165.026.073.262.134.525.134.264 0 .479.048.479.106 0 .058.173.12.385.137.212.017.406.09.432.165.026.074.227.134.447.134s.439.061.487.136c.047.074.208.135.358.135s.272.061.272.136c0 .075.157.135.35.135.193 0 .35.061.35.136 0 .075.126.136.28.136.154 0 .28.06.28.135 0 .075.158.136.35.136.193 0 .35.06.35.135 0 .075.127.136.28.136.155 0 .28.06.28.135 0 .075.127.136.28.136.155 0 .281.061.281.136 0 .074.099.135.22.135s.315.092.432.205c.116.112.26.175.32.14.059-.036.254.085.433.27.178.183.408.334.51.334.102 0 .317.127.478.283.16.155.329.246.375.201.046-.045.246.068.444.25.197.182.452.35.566.375a.98.98 0 0 1 .366.179l.597.508c.241.205.505.373.586.373.081 0 .292.137.468.305.176.168.804.728 1.396 1.244.592.516 1.17 1.12 1.284 1.343.237.459.278 1.175.068 1.175-.077 0-.14.124-.14.275 0 .3-.814 1.248-.983 1.147-.058-.035-.183.028-.279.139-.119.139-.443.202-1.046.202-.82 0-.913-.034-1.51-.543-.35-.298-.677-.542-.726-.542-.113 0-.32-.165-1.312-1.047-.438-.39-.884-.71-.991-.711-.107-.002-.376-.187-.597-.411-.22-.224-.483-.407-.584-.407-.1 0-.317-.122-.483-.27-.165-.15-.398-.272-.516-.272-.12 0-.216-.061-.216-.136 0-.074-.095-.135-.21-.135-.116 0-.211-.046-.212-.102 0-.122-.68-.44-.937-.44-.1 0-.182-.061-.182-.136 0-.075-.122-.136-.272-.136-.15 0-.31-.06-.358-.135-.048-.075-.213-.136-.367-.136s-.241-.06-.193-.135c.047-.075-.042-.136-.198-.136s-.508-.122-.783-.271c-.274-.15-.586-.271-.693-.271-.106 0-.22-.074-.25-.165-.032-.09-.21-.171-.397-.18-.337-.015-.64-.104-1.18-.348a3.1 3.1 0 0 0-.596-.183 1.762 1.762 0 0 1-.432-.127c-.064-.039-.33-.106-.592-.15-.26-.045-.52-.153-.575-.24-.056-.087-.14-.121-.186-.076-.046.045-.35.023-.673-.05-2.312-.512-4.098-.685-7.03-.68-2.433.005-4.757.156-5.044.328-.077.046-.423.1-.77.12-.346.02-.692.08-.77.135-.076.054-.36.117-.63.139-.269.021-.553.08-.63.131-.077.05-.329.123-.56.161a7.705 7.705 0 0 0-1.644.525c-.133.065-.37.118-.525.118-.155 0-.282.06-.282.135 0 .075-.154.136-.342.136-.188 0-.38.06-.428.135-.048.075-.209.136-.358.136-.15 0-.272.06-.272.135 0 .075-.193.136-.429.136-.25 0-.392.056-.342.136.076.118-.208.2-.525.151-.058-.009-.105.045-.105.12 0 .074-.126.135-.28.135-.154 0-.28.046-.281.102-.001.122-.68.44-.937.44-.1 0-.182.062-.182.136 0 .075-.127.136-.28.136-.155 0-.28.051-.28.114s-.284.255-.63.428c-.348.172-.631.365-.631.428s-.097.114-.216.114c-.12 0-.387.153-.596.34-.208.188-.496.377-.64.421-.143.044-.553.348-.91.676-.357.327-.732.595-.833.596-.1 0-.144.062-.096.136.047.075-.007.136-.12.136-.115 0-.553.305-.974.678-.755.667-.78.677-1.675.677-.634 0-.96-.06-1.082-.201zm-7.844-6.99c-.527-.28-1.119-.904-1.12-1.18 0-.093-.063-.17-.14-.17-.077 0-.14-.274-.14-.61 0-.335.063-.61.14-.61.077 0 .14-.083.14-.186s.094-.262.208-.354c.115-.092.181-.211.147-.264-.064-.1.414-.55.592-.553.125-.003.86-.572 1.572-1.218 1.155-1.048 1.487-1.306 1.622-1.262.078.025.356-.169.619-.43.262-.263.543-.48.624-.483.081-.003.366-.186.633-.406.266-.22.537-.401.6-.401.065 0 .252-.122.418-.272.165-.149.383-.27.484-.27.101 0 .184-.047.184-.103 0-.057.204-.19.455-.298.25-.107.577-.305.726-.44.15-.134.386-.244.526-.244s.253-.061.253-.136c0-.074.1-.135.22-.135.121 0 .316-.092.432-.205.116-.112.27-.17.34-.128.07.043.129.013.129-.066s.094-.144.21-.144c.115 0 .21-.06.21-.135 0-.075.093-.136.206-.136.113 0 .43-.122.704-.27.275-.15.592-.272.705-.272.113 0 .206-.061.206-.136 0-.074.122-.135.271-.135.15 0 .304-.049.342-.109.038-.06.392-.194.787-.298.395-.104.75-.238.788-.298.038-.06.186-.109.33-.109.142 0 .28-.057.306-.127.026-.07.204-.152.397-.182.192-.03.54-.127.77-.216.531-.203.683-.253.77-.255.039 0 .307-.097.596-.213.289-.117.525-.178.525-.135 0 .042.094.002.21-.092.116-.092.21-.118.21-.057 0 .061.076.038.168-.051.093-.09.345-.163.56-.163.216 0 .393-.048.393-.108 0-.059.236-.123.525-.141.289-.019.546-.092.572-.163.025-.072.325-.13.665-.13s.618-.061.618-.136c0-.074.316-.135.7-.135.386 0 .701-.061.701-.136 0-.075.373-.135.84-.135.467 0 .84-.06.84-.136 0-.08.49-.135 1.191-.135.7 0 1.19-.056 1.19-.136 0-.088 1.751-.136 4.972-.136 3.222 0 4.972.048 4.972.136 0 .08.49.136 1.19.136.701 0 1.191.055 1.191.135 0 .075.374.136.84.136.467 0 .84.06.84.135 0 .075.316.136.701.136.385 0 .7.06.7.135 0 .075.284.136.63.136.347 0 .63.048.63.107 0 .058.202.121.447.14.245.017.516.089.602.158.086.069.385.14.665.158.28.019.479.082.44.142-.038.06.12.108.351.108.231 0 .46.062.508.138.049.076.147.103.219.06.072-.043.13-.023.13.044s.347.202.77.3c.424.099.77.23.77.293 0 .063.152.114.338.114.185 0 .579.117.875.26.681.33 1.01.446 1.449.515.192.03.371.113.397.183.025.07.167.127.315.127.147 0 .268.06.268.135 0 .075.123.136.272.136.15 0 .31.061.358.136.048.074.21.135.359.135.15 0 .272.049.272.108 0 .06.22.186.49.28.27.095.49.229.49.299 0 .07.126.126.28.126.154 0 .28.061.28.136 0 .075.089.136.197.136.265 0 1.344.564 1.344.703 0 .06.114.11.254.11s.375.107.525.237c.15.13.445.324.656.43.212.106.386.243.386.305s.113.113.252.113c.14 0 .464.21.721.467.258.258.517.456.576.44.059-.014.411.218.783.516.372.298.719.542.772.542.1 0 .972.715 2.1 1.722.36.32.879.766 1.153.99.275.223.5.513.502.644.002.13.066.237.143.237.077 0 .14.24.14.534 0 .294-.063.572-.14.618-.077.046-.14.202-.14.347 0 .145-.063.263-.14.263-.077 0-.14.079-.14.175 0 .096-.344.344-.763.55-.59.288-.93.366-1.49.342-.687-.03-.784-.083-1.757-.956-.566-.509-1.086-.924-1.156-.924-.07 0-.314-.168-.543-.373-.827-.74-1.232-1.054-1.582-1.229-.197-.098-.555-.357-.797-.576-.242-.219-.524-.398-.627-.398-.102 0-.277-.122-.388-.271-.111-.15-.303-.271-.425-.271-.123 0-.358-.122-.524-.271-.165-.15-.397-.272-.516-.272s-.216-.06-.216-.135c0-.075-.095-.136-.21-.136-.116 0-.21-.054-.21-.12 0-.065-.11-.158-.245-.205-.375-.13-1.653-.811-1.909-1.017-.125-.1-.227-.137-.227-.081 0 .055-.101.02-.224-.08a1.11 1.11 0 0 0-.441-.21.53.53 0 0 1-.329-.206c-.061-.096-.156-.13-.211-.078-.055.054-.19.024-.302-.065a1.09 1.09 0 0 0-.363-.196c-.315-.064-1.208-.404-1.302-.496-.053-.05-.212-.093-.353-.093s-.257-.06-.257-.135c0-.075-.185-.136-.411-.136-.227 0-.451-.06-.499-.135-.048-.075-.209-.136-.358-.136-.15 0-.272-.06-.272-.135 0-.075-.22-.136-.49-.136s-.49-.048-.49-.106c0-.058-.171-.12-.38-.136-.208-.017-.441-.091-.518-.166-.076-.074-.347-.134-.601-.134s-.462-.061-.462-.136c0-.074-.284-.135-.63-.135-.347 0-.63-.061-.63-.136 0-.075-.28-.136-.623-.136-.342 0-.66-.06-.708-.135-.048-.075-.43-.136-.849-.136s-.762-.06-.762-.135c0-.08-.467-.136-1.12-.136-.654 0-1.12-.056-1.12-.135 0-.088-1.635-.136-4.623-.136-2.987 0-4.621.048-4.621.136 0 .079-.464.135-1.112.135-.612 0-1.152.061-1.2.136-.047.074-.429.135-.848.135s-.762.061-.762.136c0 .074-.283.135-.63.135-.347 0-.63.061-.63.136 0 .075-.279.136-.619.136-.34 0-.64.058-.665.13-.026.07-.283.144-.572.162-.289.019-.525.083-.525.142 0 .06-.216.108-.479.108s-.5.057-.525.127c-.026.07-.218.15-.426.176-.21.026-.425.091-.479.144-.054.052-.214.095-.355.095-.142 0-.257.048-.257.107s-.205.121-.455.14c-.25.018-.477.092-.502.164-.026.072-.162.131-.304.131-.14 0-.277.058-.303.128-.026.07-.218.149-.427.175-.209.027-.424.092-.478.144-.054.053-.21.096-.344.096-.135 0-.267.064-.294.143-.027.078-.152.157-.278.175a1.06 1.06 0 0 0-.43.195c-.112.09-.247.119-.302.066-.055-.054-.15-.018-.211.078a.506.506 0 0 1-.308.203c-.108.016-.29.088-.406.16-.392.246-.769.447-1.498.798-.4.193-.763.408-.808.478-.044.07-.268.222-.498.339l-.815.414a2.8 2.8 0 0 0-.649.471c-.138.148-.303.238-.367.2-.064-.038-.35.144-.635.404-.285.26-.57.442-.635.403-.065-.038-.117-.005-.117.074a.143.143 0 0 1-.141.144c-.077 0-.44.274-.805.609-.366.335-.74.61-.83.61-.092 0-.718.504-1.393 1.119-.674.615-1.173 1.027-1.109.915.095-.165.082-.172-.072-.034-.286.258-1.528.194-2.093-.107z" style="fill:#000;stroke-width:.137792"/></svg>