<svg xmlns="http://www.w3.org/2000/svg" viewBox="0 0 348 348" fill="none"><path d="M5.079 5.776h336.913v337.67H5.08z" stroke-width="2" stroke="#000"/><path d="M282.734 40.554c0-8.376 6.966-15.165 15.56-15.165 4.126 0 8.084 1.597 11.001 4.441 2.918 2.844 4.558 6.702 4.558 10.724 0 8.376-6.966 15.165-15.56 15.165-8.593 0-15.559-6.79-15.559-15.165z" stroke-width="2" stroke="#000"/><path fill="#000" stroke="#000" stroke-width="4.6602" d="M26.6745 27.9057h242.533v32.8302H26.6745z"/><g aria-label="6.942e+73" style="line-height:1.25" font-weight="400" font-size="32" font-family="sans-serif" letter-spacing="0" word-spacing="0" fill="#fff"><path d="M89.176 48.2309q0 3.5469-2.3437 5.7969-2.3281 2.2343-5.7188 2.2343-1.7187 0-3.125-.5312-1.4062-.5313-2.4843-1.5781-1.3438-1.2969-2.0782-3.4375-.7187-2.1407-.7187-5.1563 0-3.0937.6562-5.4844.672-2.3906 2.125-4.25 1.375-1.7656 3.547-2.75 2.1718-1 5.0624-1 .9219 0 1.5469.0781.625.0781 1.2656.2813v2.9844h-.1562q-.4375-.2344-1.3282-.4375-.875-.2188-1.7968-.2188-3.3594 0-5.3594 2.1094-2 2.0937-2.3281 5.6719 1.3125-.7969 2.578-1.2032 1.2813-.4218 2.9532-.4218 1.4844 0 2.6094.2812 1.1406.2656 2.3281 1.0938 1.375.9531 2.0625 2.4062.7031 1.4531.7031 3.5313zm-3.1718.125q0-1.4531-.4375-2.4063-.422-.953-1.4063-1.6562-.7187-.5-1.5937-.6563-.875-.1562-1.8282-.1562-1.328 0-2.4687.3125-1.1406.3125-2.3438.9687-.0312.3438-.0468.672-.0157.3124-.0157.7968 0 2.4687.5 3.9062.5157 1.422 1.4063 2.25.7187.6875 1.5469 1.0157.8437.3125 1.828.3125 2.2657 0 3.5626-1.375 1.2969-1.3907 1.2969-3.9844zM109.176 42.7465q0 3.0469-.703 5.5313-.6876 2.4844-2.0938 4.2344-1.4219 1.7812-3.5625 2.75-2.1407.9687-5.0313.9687-.8125 0-1.5312-.0937-.7188-.0781-1.2813-.2656v-2.9844h.1563q.4531.2344 1.2812.4531.8281.2032 1.8438.2032 3.4531 0 5.4062-2.0625 1.9688-2.0782 2.2813-5.7188-1.4532.875-2.7344 1.25-1.2813.375-2.7969.375-1.4375 0-2.6094-.2812-1.1562-.2813-2.328-1.0938-1.375-.9531-2.0782-2.4219-.6875-1.4687-.6875-3.5156 0-3.5625 2.3437-5.7969 2.3438-2.2343 5.7188-2.2343 1.6875 0 3.125.5312 1.4375.5156 2.5156 1.5625 1.3281 1.2969 2.0469 3.3438.7187 2.0312.7187 5.2656zm-3.1562-.6718q0-2.422-.5-3.8907-.5-1.4687-1.375-2.2812-.7344-.7031-1.5781-1-.8438-.3125-1.8282-.3125-2.25 0-3.5625 1.4062-1.2968 1.4063-1.2968 3.9532 0 1.4843.4218 2.4218.422.9375 1.422 1.6407.703.4843 1.5468.6562.8437.1563 1.875.1563 1.2187 0 2.4687-.3282 1.25-.3281 2.3438-.9531.0156-.3281.0312-.6406.0312-.3281.0312-.8281zM130.1135 49.2309h-3.453v6.5469h-3v-6.5469h-11.1407v-3.5938l11.2656-13.125h2.875V46.731h3.4531zm-6.453-2.5v-10.5l-9.0157 10.5zM149.9573 55.7778h-15.75V52.512l3.2812-2.8125q1.6563-1.4062 3.0782-2.7968 3-2.9063 4.1093-4.6094 1.1094-1.7188 1.1094-3.7031 0-1.8125-1.2031-2.8282-1.1875-1.0312-3.3281-1.0312-1.422 0-3.0782.5t-3.2343 1.5312h-.1563V33.481q1.1094-.5469 2.9531-1 1.8594-.4531 3.5938-.4531 3.5781 0 5.6094 1.7343 2.0312 1.7188 2.0312 4.672 0 1.328-.3437 2.4843-.3282 1.1406-.9844 2.1719-.6094.9687-1.4375 1.9062-.8125.9375-1.9844 2.0781-1.6719 1.6407-3.4531 3.1875-1.7813 1.5313-3.3281 2.8438h12.5156zM170.301 44.1371q0 6.2657-1.9687 9.2032-1.9531 2.9218-6.0781 2.9218-4.1875 0-6.125-2.9687-1.922-2.9688-1.922-9.125 0-6.2031 1.9532-9.1563 1.9531-2.9687 6.0938-2.9687 4.1875 0 6.1093 3.0156 1.9375 3 1.9375 9.0781zm-4.1093 7.0938q.5468-1.2656.7343-2.9688.2032-1.7187.2032-4.125 0-2.375-.2032-4.125-.1875-1.75-.75-2.9687-.5468-1.2031-1.5-1.8125-.9375-.6094-2.4218-.6094-1.4688 0-2.4375.6094-.9532.6094-1.5157 1.8437-.5312 1.1563-.7343 3.0157-.1875 1.8593-.1875 4.0781 0 2.4375.1718 4.0781.172 1.6406.7344 2.9375.5156 1.2188 1.4531 1.8594.9532.6406 2.5157.6406 1.4687 0 2.4375-.6094.9687-.6093 1.5-1.8437zM190.8948 55.7778h-15.3281V32.512h15.328v2.75h-12.2343v6.375h12.2344v2.75h-12.2344v8.6407h12.2344zM211.301 48.2309q0 3.5469-2.3437 5.7969-2.3281 2.2343-5.7188 2.2343-1.7187 0-3.125-.5312-1.4062-.5313-2.4843-1.5781-1.3438-1.2969-2.0782-3.4375-.7187-2.1407-.7187-5.1563 0-3.0937.6562-5.4844.672-2.3906 2.125-4.25 1.375-1.7656 3.547-2.75 2.1718-1 5.0624-1 .9219 0 1.5469.0781.625.0781 1.2656.2813v2.9844h-.1562q-.4375-.2344-1.3282-.4375-.875-.2188-1.7968-.2188-3.3594 0-5.3594 2.1094-2 2.0937-2.3281 5.6719 1.3125-.7969 2.578-1.2032 1.2813-.4218 2.9532-.4218 1.4844 0 2.6094.2812 1.1406.2656 2.3281 1.0938 1.375.9531 2.0625 2.4062.7031 1.4531.7031 3.5313zm-3.1718.125q0-1.4531-.4375-2.4063-.422-.953-1.4063-1.6562-.7187-.5-1.5937-.6563-.875-.1562-1.8282-.1562-1.328 0-2.4687.3125-1.1406.3125-2.3438.9687-.0312.3438-.0469.672-.0156.3124-.0156.7968 0 2.4687.5 3.9062.5157 1.422 1.4063 2.25.7187.6875 1.5469 1.0157.8437.3125 1.828.3125 2.2657 0 3.5626-1.375 1.2969-1.3907 1.2969-3.9844zM231.301 42.7465q0 3.0469-.703 5.5313-.6876 2.4844-2.0938 4.2344-1.422 1.7812-3.5625 2.75-2.1407.9687-5.0313.9687-.8125 0-1.5312-.0937-.7188-.0781-1.2813-.2656v-2.9844h.1563q.453.2344 1.2812.4531.8281.2032 1.8438.2032 3.453 0 5.4062-2.0625 1.9688-2.0782 2.2813-5.7188-1.4532.875-2.7344 1.25-1.2813.375-2.7969.375-1.4375 0-2.6094-.2812-1.1562-.2813-2.328-1.0938-1.375-.9531-2.0782-2.4219-.6875-1.4687-.6875-3.5156 0-3.5625 2.3437-5.7969 2.3438-2.2343 5.7188-2.2343 1.6875 0 3.125.5312 1.4375.5156 2.5156 1.5625 1.3281 1.2969 2.0469 3.3438.7187 2.0312.7187 5.2656zm-3.1562-.6718q0-2.422-.5-3.8907-.5-1.4687-1.375-2.2812-.7344-.7031-1.5781-1-.8438-.3125-1.8282-.3125-2.25 0-3.5625 1.4062-1.2968 1.4063-1.2968 3.9532 0 1.4843.4218 2.4218.422.9375 1.422 1.6407.703.4843 1.5468.6562.8437.1563 1.875.1563 1.2187 0 2.4687-.3282 1.25-.3281 2.3438-.9531.0156-.3281.0312-.6406.0312-.3281.0312-.8281z"/></g><ellipse cx="117.6917" cy="192.85" rx="94.2718" ry="94.0302" fill="#fff" stroke="#000" stroke-width="5.0999"/><g aria-label="Insert Cookie Here" style="line-height:1.25" font-weight="400" font-size="17.7155" font-family="sans-serif" letter-spacing="0" word-spacing="0" fill="#000" stroke-width=".7381"><path d="M67.1975 248.9831l-3.4236 3.721-1.0547-.8072 1.1354-1.234-8.2225-6.2921-1.1354 1.234-1.0547-.8072 3.4236-3.7209 1.0547.8071-1.1354 1.234 8.2225 6.2922 1.1354-1.234zM74.522 241.0224l-1.0946 1.1897-4.413-3.377q-.5344-.409-1.0516-.7078-.5243-.304-.9277-.354-.437-.0648-.8494.1264-.4194.186-.856.6605-.4484.4873-.6738 1.2206-.2254.7333-.2643 1.5339l5.787 4.4284-1.0946 1.1897-7.7507-5.9311 1.0946-1.1897.8604.6584q.0059-.9445.2687-1.757.2628-.8126.8392-1.439 1.0538-1.1454 2.3633-1.1678 1.3095-.0224 2.732 1.0661zM79.0417 231.972q1.0616.8125 1.0022 2.1365-.0536 1.3177-1.3287 2.7036-.722.7847-1.5288 1.2888-.8078.4925-1.4582.7496l-1.4641-1.1204.0582-.0633q.983-.2074 1.8953-.6848.9052-.4826 1.4874-1.1154.722-.7847.852-1.44.13-.6554-.4667-1.112-.458-.3505-.9151-.2906-.4572.06-1.2525.616-.2954.2052-.7571.5529-.4559.3412-.8616.6023-1.1265.7231-2.008.7172-.8824-.0175-1.6457-.6016-.4788-.3664-.739-.8675-.2545-.5074-.2498-1.1293 0-.604.3133-1.2915.3122-.6992.9352-1.3763.5823-.6328 1.3496-1.1455.7663-.5244 1.405-.7689l1.3947 1.0673-.0582.0633q-.787.1742-1.6365.6348-.8564.4554-1.4328 1.0818-.5997.6518-.7356 1.3135-.1427.6564.3985 1.0706.4788.3663.972.28.4874-.0798 1.1874-.5579.386-.2653.8419-.6066.4617-.3476.7815-.5666.9709-.6697 1.8908-.7313.9268-.0564 1.7734.5914zM84.5519 223.1945l-4.7918 5.208q.7147.547 1.4295.7596.7078.2074 1.3622.1259.6359-.0742 1.2158-.396.5857-.3282 1.0864-.8725.6638-.7214 1.0211-1.688.3562-.9783.3362-1.522l.0582-.0633 1.4225 1.0885q-.2756.8136-.6646 1.5834-.3891.7699-1.0237 1.4596-1.6187 1.7592-3.5678 1.95-1.956.1853-3.878-1.2855-1.9013-1.455-2.151-3.2527-.2437-1.8041 1.177-3.3482 1.3158-1.4301 2.942-1.5012 1.6321-.0775 3.3182 1.2128zm-2.0647.3934q-1.033-.7792-2.0256-.7413-.9871.0318-1.8605.981-.8792.9556-.7856 1.9977.0993 1.0358.9454 1.8126zM87.6813 214.9998l-.0582.0633q-.314.2127-.5746.4445-.2618.2203-.5762.562-.5066.5505-.7076 1.2702-.208.7143-.2213 1.5128l5.5025 4.2108-1.0946 1.1896-7.7507-5.931 1.0946-1.1898 1.145.8762q.0275-1.1867.2657-1.921.237-.746.7552-1.3092.2853-.31.4343-.4333.142-.1286.4467-.3699zM98.3593 214.9863q-.2115.4097-.5158.8562-.2986.44-.5839.7502-.9956 1.082-2.1522 1.1568-1.1565.0746-2.5651-1.0033l-4.1217-3.154-.7394.8036-1.0964-.839.7395-.8036-2.2274-1.7045 1.0946-1.1896 2.2274 1.7044 2.259-2.4552 1.0964.839-2.259 2.4552 3.5318 2.7027q.6106.4673.9808.7075.3633.2348.8014.3113.4057.0732.7588-.0664.352-.1512.8119-.6511.2678-.2911.4687-.6766.194-.3907.2597-.5777l.0582-.0633zM109.982 201.0948q-.1538.4754-.27.8717-.1105.39-.3701.9677-.2234.4869-.5524 1.0115-.3162.5237-.817 1.0679-.9432 1.0251-2.0298 1.6278-1.0877.591-2.3314.6962-1.2181.103-2.5456-.3305-1.3344-.4388-2.6805-1.469-1.2768-.977-1.9802-2.076-.7033-1.099-.8266-2.2501-.12-1.1162.3064-2.235.4321-1.125 1.387-2.1629.6987-.7593 1.5927-1.3584.9-.6054 2.2566-1.1417l1.6306 1.2479-.0874.0949q-1.4308.2314-2.4614.7476-1.0307.516-1.8342 1.3894-.6579.715-.931 1.4873-.2742.7607-.1533 1.6189.1187.8349.6896 1.6923.5697.8458 1.6106 1.6423 1.0894.8336 2.118 1.1678 1.0344.328 1.9172.281.921-.05 1.7123-.4474.7902-.409 1.3957-1.0671.8326-.905 1.2204-1.9561.3878-1.0512.3424-2.2613l.0815-.0886zM113.957 190.9914q1.8942 1.4496 2.1754 3.1745.2812 1.7249-1.087 3.212-1.38 1.4997-3.2914 1.5467-1.9056.0406-3.8-1.409-1.8942-1.4496-2.1813-3.1681-.2881-1.7302 1.0918-3.23 1.3683-1.487 3.2867-1.5287 1.9114-.047 3.8057 1.4026zm-1.1296 1.2276q-1.5057-1.1522-2.7292-1.1718-1.2304-.025-2.1096.9305-.8908.9682-.6502 2.069.2395 1.089 1.7452 2.2413 1.4572 1.115 2.7084 1.156 1.2443.0355 2.1293-.9263.8733-.9492.6258-2.0553-.2487-1.1177-1.7197-2.2434zM121.2 183.1193q1.8943 1.4496 2.1755 3.1745.2812 1.7249-1.0871 3.212-1.3799 1.4997-3.2914 1.5467-1.9056.0406-3.8-1.409-1.8942-1.4496-2.1812-3.1681-.2882-1.7302 1.0917-3.23 1.3683-1.487 3.2867-1.5287 1.9115-.047 3.8058 1.4026zm-1.1296 1.2276q-1.5057-1.1522-2.7292-1.1719-1.2304-.025-2.1096.9306-.8908.9682-.6502 2.069.2395 1.089 1.7452 2.2413 1.4572 1.115 2.7084 1.156 1.2443.0355 2.1293-.9263.8734-.9492.6258-2.0553-.2487-1.1177-1.7197-2.2434zM132.6758 177.8178l-1.444 1.5693-6.0014.2385.0946 1.388 2.5881 1.9805-1.0946 1.1897-10.7968-8.2622 1.0946-1.1896 6.925 5.2992-.7173-6.4043 1.38-1.4998.5585 6.0242zM125.9565 168.3625l-1.2343 1.3415-1.353-1.0354 1.2343-1.3416zm8.9784 7l-1.0946 1.1897-7.7507-5.9312 1.0946-1.1897zM138.8164 164.217l-4.7918 5.208q.7146.547 1.4294.7596.7079.2074 1.3623.1259.6358-.0742 1.2157-.396.5858-.3283 1.0865-.8725.6637-.7214 1.021-1.688.3563-.9783.3363-1.522l.0582-.0633 1.4225 1.0885q-.2756.8136-.6647 1.5834-.389.7698-1.0237 1.4596-1.6186 1.7592-3.5677 1.9499-1.956.1854-3.8781-1.2854-1.9013-1.455-2.1509-3.2527-.2438-1.8041 1.1769-3.3482 1.3158-1.4301 2.942-1.5012 1.6322-.0775 3.3183 1.2128zm-2.0647.3934q-1.0328-.7795-2.0257-.7413-.987.0318-1.8604.981-.8792.9556-.7857 1.9977.0994 1.0358.9455 1.8126zM155.1269 153.4168l-1.1528 1.253-5.0585-3.871-4.326 4.7018 5.0584 3.8709-1.1528 1.253-10.332-7.9065 1.153-1.253 4.0522 3.101 4.326-4.7017-4.0523-3.101 1.1529-1.253zM159.0782 142.1954l-4.7918 5.208q.7147.5469 1.4295.7596.7078.2074 1.3622.1258.6359-.0742 1.2158-.396.5857-.3282 1.0864-.8724.6638-.7214 1.0211-1.688.3562-.9784.3362-1.5221l.0582-.0633 1.4225 1.0885q-.2756.8136-.6646 1.5834-.3891.7699-1.0237 1.4596-1.6187 1.7592-3.5678 1.95-1.956.1853-3.878-1.2855-1.9013-1.455-2.151-3.2527-.2437-1.804 1.177-3.3481 1.3158-1.4302 2.942-1.5013 1.6321-.0774 3.3182 1.2129zm-2.0647.3934q-1.0327-.7796-2.0256-.7414-.9871.0319-1.8605.981-.8792.9556-.7856 1.9977.0993 1.0358.9454 1.8126zM162.2076 134.0006l-.0582.0633q-.314.2127-.5746.4446-.2618.2202-.5762.562-.5066.5505-.7076 1.2701-.208.7144-.2213 1.5129l5.5025 4.2107-1.0946 1.1897-7.7507-5.9312 1.0946-1.1896 1.1449.8761q.0276-1.1866.2658-1.921.237-.746.7552-1.3092.2853-.31.4343-.4333.142-.1286.4467-.3698zM171.2819 128.9318l-4.7918 5.208q.7147.5469 1.4295.7596.7078.2073 1.3622.1258.6358-.0742 1.2158-.396.5857-.3282 1.0864-.8724.6638-.7214 1.0211-1.688.3562-.9784.3362-1.5221l.0582-.0633 1.4225 1.0885q-.2756.8136-.6647 1.5834-.389.7699-1.0237 1.4596-1.6186 1.7592-3.5677 1.95-1.956.1853-3.8781-1.2855-1.9012-1.455-2.1509-3.2527-.2438-1.804 1.1769-3.3481 1.3159-1.4302 2.9421-1.5013 1.632-.0774 3.3182 1.2129zm-2.0647.3934q-1.0328-.7796-2.0257-.7414-.987.0319-1.8604.981-.8792.9556-.7856 1.9977.0993 1.0358.9454 1.8126z"/></g><path fill="#fff" stroke="#000" stroke-width="4.6602" d="M221.85 129.05H330.6v38.1833H221.85zM223.0583 190.1917h108.75v38.1833h-108.75z"/><g aria-label="Buildings" style="line-height:1.25" font-weight="400" font-size="18.6667" font-family="sans-serif" letter-spacing="0" word-spacing="0" fill="#000"><path d="M244.542 149.5255q0 1.0117-.3829 1.7865-.3828.7747-1.03 1.276-.7656.6016-1.6861.8568-.9115.2552-2.3243.2552h-4.8125v-13.5716h4.0196q1.4857 0 2.224.1094.7382.1093 1.4127.4557.7474.392 1.0846 1.0117.3373.6107.3373 1.4675 0 .9661-.4922 1.6497-.4922.6745-1.3125 1.0846v.073q1.3763.2825 2.1693 1.2122.793.9205.793 2.3333zm-3.0352-6.1159q0-.4922-.164-.8294-.1642-.3372-.5287-.5469-.4284-.246-1.0391-.3007-.6107-.0638-1.513-.0638h-2.151v3.9192h2.3333q.8476 0 1.349-.082.5012-.091.9296-.3646.4284-.2734.6016-.7018.1823-.4375.1823-1.03zm1.1575 6.1888q0-.8203-.246-1.3034-.2462-.483-.8933-.8203-.4375-.2278-1.0664-.2916-.6198-.073-1.513-.073h-2.8347v5.0495h2.388q1.185 0 1.9415-.1184.7565-.1276 1.2395-.4558.5105-.3554.7474-.8112.237-.4557.237-1.1758zM255.4065 153.7h-1.7135v-1.1302q-.866.6836-1.6589 1.0482-.793.3645-1.75.3645-1.6041 0-2.4974-.9752-.8932-.9844-.8932-2.8802v-6.608h1.7135v5.7968q0 .7747.073 1.3307.0728.5469.3098.9388.2461.401.638.5833.392.1823 1.1394.1823.6654 0 1.4492-.3463.793-.3464 1.4766-.8841v-7.6016h1.7135zM260.62 141.8146h-1.9322v-1.7774h1.9323zm-.1093 11.8854h-1.7136v-10.181h1.7136zM265.6513 153.7h-1.7135v-14.1823h1.7135zM277.318 153.7h-1.7136v-1.0664q-.7383.638-1.5403.9935-.8021.3554-1.741.3554-1.8228 0-2.8984-1.4036-1.0664-1.4036-1.0664-3.892 0-1.2942.3646-2.306.3737-1.0116 1.0026-1.7226.6198-.6927 1.4401-1.0573.8295-.3645 1.7136-.3645.802 0 1.4218.1731.6198.1641 1.3034.5196v-4.4115h1.7136zm-1.7136-2.5065v-5.8425q-.6927-.3099-1.2396-.4284-.5468-.1184-1.194-.1184-1.44 0-2.2421 1.0026-.8021 1.0026-.8021 2.8437 0 1.8138.6198 2.7617.6198.9388 1.987.9388.7291 0 1.4765-.319.7474-.3281 1.3945-.8385zM282.5315 141.8146h-1.9323v-1.7774h1.9323zm-.1094 11.8854h-1.7135v-10.181h1.7135zM294.344 153.7h-1.7135v-5.7969q0-.7018-.082-1.3125-.082-.6198-.3008-.9661-.2279-.3828-.6563-.5651-.4283-.1914-1.112-.1914-.7018 0-1.4674.3463-.7656.3464-1.4674.8841V153.7h-1.7136v-10.181h1.7136v1.1302q.802-.6654 1.6588-1.039.8568-.3737 1.7591-.3737 1.6498 0 2.5157.9934.8658.9935.8658 2.862zM305.9013 152.5424q0 2.5886-1.1758 3.8008-1.1758 1.2123-3.6185 1.2123-.8112 0-1.5859-.1185-.7656-.1094-1.513-.319v-1.75h.091q.4193.164 1.3308.401.9115.2461 1.823.2461.875 0 1.4492-.2096.5742-.2097.8932-.5834.319-.3554.4557-.8567.1367-.5013.1367-1.1211v-.9297q-.7747.6198-1.4856.9297-.7019.3007-1.7956.3007-1.823 0-2.8985-1.3124-1.0664-1.3217-1.0664-3.7188 0-1.3125.3646-2.2604.3737-.957 1.0117-1.6498.5925-.647 1.4401-1.0026.8477-.3645 1.6862-.3645.8842 0 1.4766.1822.6016.1732 1.267.5378l.1093-.4375h1.6042zm-1.7135-1.6406v-5.5508q-.6836-.3099-1.276-.4375-.5834-.1367-1.1668-.1367-1.4127 0-2.2239.948-.8112.9479-.8112 2.7525 0 1.7136.6016 2.5977.6015.8841 1.996.8841.7474 0 1.4948-.2825.7566-.2917 1.3855-.7748zM316.5471 150.7651q0 1.3945-1.1575 2.2878-1.1484.8932-3.1445.8932-1.1302 0-2.0782-.2643-.9388-.2735-1.5768-.5925v-1.9232h.0911q.8112.6107 1.8047.9753.9935.3555 1.905.3555 1.1302 0 1.7682-.3646.638-.3646.638-1.1485 0-.6015-.3464-.9114-.3463-.3099-1.3307-.5287-.3646-.082-.957-.1914-.5834-.1093-1.0664-.237-1.3399-.3554-1.905-1.039-.556-.6927-.556-1.6953 0-.629.2553-1.185.2643-.5559.793-.9934.5103-.4284 1.2942-.6745.793-.2552 1.7682-.2552.9115 0 1.8412.2279.9388.2187 1.5586.5377v1.832h-.0911q-.6563-.483-1.5951-.8111-.9388-.3373-1.8412-.3373-.9388 0-1.5859.3646-.6471.3555-.6471 1.0664 0 .629.392.948.3827.319 1.2395.5195.474.1093 1.0573.2187.5924.1094.9844.2005 1.194.2735 1.8411.9388.6471.6745.6471 1.7865z"/></g><g aria-label="Rebirth" style="line-height:1.25" font-weight="400" font-size="24" font-family="sans-serif" letter-spacing="0" word-spacing="0" fill="#000"><path d="M253.2046 218.3134h-3.0118l-5.8359-6.9375h-3.2695v6.9375h-2.3203v-17.4492h4.8867q1.582 0 2.6367.211 1.0547.1992 1.8984.7265.9492.5977 1.4766 1.5117.539.9024.539 2.2969 0 1.8867-.9492 3.164-.9492 1.2657-2.6132 1.9102zm-5.4258-12.539q0-.75-.2696-1.3243-.2578-.5859-.8671-.9843-.504-.3399-1.1954-.4688-.6914-.1406-1.6289-.1406h-2.7304v6.586h2.3437q1.1016 0 1.9219-.1876.8203-.1992 1.3945-.7265.5274-.4922.7735-1.125.2578-.6446.2578-1.629zM265.6733 211.997h-9.6445q0 1.207.3633 2.1094.3632.8906.996 1.4648.6094.5625 1.4415.8438.8437.2812 1.8515.2812 1.336 0 2.6836-.5273 1.3594-.539 1.9336-1.0547h.1172v2.4023q-1.1133.4688-2.2734.7852-1.1602.3164-2.4375.3164-3.2579 0-5.086-1.7578-1.8281-1.7695-1.8281-5.0156 0-3.211 1.746-5.0977 1.7579-1.8867 4.6173-1.8867 2.6484 0 4.0781 1.5469 1.4414 1.5468 1.4414 4.3945zm-2.1445-1.6875q-.0117-1.7344-.879-2.6836-.8554-.9492-2.6132-.9492-1.7695 0-2.8242 1.043-1.043 1.043-1.1836 2.5898zM280.5327 211.6689q0 1.6406-.4688 2.9531-.457 1.3125-1.2421 2.2031-.832.9258-1.8282 1.3946-.996.457-2.1914.457-1.1133 0-1.9453-.2695-.832-.2578-1.6406-.7032l-.1406.6094h-2.0625V200.079h2.203v6.5157q.9259-.7617 1.9688-1.2422 1.043-.4922 2.3438-.4922 2.3203 0 3.6562 1.7812 1.3477 1.7813 1.3477 5.0274zm-2.2734.0586q0-2.3438-.7735-3.5508-.7734-1.2188-2.496-1.2188-.961 0-1.9454.422-.9844.41-1.8281 1.0663v7.5q.9375.4219 1.6055.586.6796.164 1.5351.164 1.8281 0 2.8594-1.1953 1.043-1.207 1.043-3.7734zM286.3335 203.0322h-2.4844v-2.2852h2.4844zm-.1407 15.2812h-2.203v-13.0898h2.203zM298.7436 207.626h-.1172q-.4921-.1173-.9609-.1641-.457-.0587-1.0898-.0587-1.0196 0-1.9688.457-.9492.4454-1.8281 1.1602v9.293h-2.2032v-13.0898h2.2032v1.9336q1.3125-1.0547 2.3086-1.4883 1.0078-.4453 2.0507-.4453.5743 0 .832.0352.2579.0234.7735.1054zM307.6381 218.1962q-.621.164-1.3593.2696-.7266.1054-1.3008.1054-2.004 0-3.0469-1.0781-1.043-1.0781-1.043-3.457v-6.961H299.4v-1.8515h1.4883v-3.7617h2.203v3.7617h4.547v1.8515h-4.547v5.9649q0 1.0312.047 1.6172.0469.5742.3281 1.078.2578.4688.7031.6915.457.211 1.3828.211.5391 0 1.125-.1524.586-.164.8438-.2695h.1172zM321.2553 218.3134h-2.203v-7.4531q0-.9023-.1056-1.6875-.1054-.7969-.3867-1.2422-.293-.4922-.8437-.7266-.5508-.246-1.4297-.246-.9024 0-1.8867.4453-.9844.4453-1.8868 1.1367v9.7734h-2.203V200.079h2.203v6.5977q1.0313-.8555 2.1329-1.336 1.1015-.4804 2.2617-.4804 2.121 0 3.2344 1.2773 1.1132 1.2774 1.1132 3.6797z"/></g></svg>