<svg xmlns="http://www.w3.org/2000/svg" viewBox="0 0 348 348" fill="none"><path d="M5.08 5.776h336.91v337.67H5.08z" stroke-width="2" stroke="#000"/><path d="M282.734 40.554c0-8.376 6.966-15.165 15.56-15.165 4.126 0 8.084 1.594 11 4.44 2.92 2.842 4.56 6.7 4.56 10.722 0 8.376-6.967 15.165-15.56 15.165-8.594 0-15.56-6.79-15.56-15.166z" stroke-width="2" stroke="#000"/><rect width="288.1875" height="107.6625" x="29.90625" y="92.25625" ry="7.975" overflow="visible" color="#000" stroke="#000" stroke-width="6" stroke-linejoin="round"/><g transform="translate(-15.625)" color="#000" stroke="#000" stroke-width="5" stroke-linecap="round" stroke-linejoin="round"><path d="M126.93342 319.47604l-71.4805-41.2693 71.4805-41.26928zm125.38313 0l71.4805-41.2693-71.4805-41.26928z" overflow="visible"/><rect transform="rotate(-45)" overflow="visible" ry="0" y="301.27094" x="-92.17281" height="59.07213" width="59.07213"/></g></svg>