<svg xmlns="http://www.w3.org/2000/svg" stroke-miterlimit="10" stroke-linecap="square" fill="none" viewBox="0 0 348 348"><defs><filter id="b" x="0" width="1" y="0" height="1" color-interpolation-filters="sRGB"><feGaussianBlur/></filter></defs><clipPath id="a"><path d="M0 0h348v348H0V0z"/></clipPath><g clip-path="url(#a)"><path d="M5.079 5.776h336.913v337.67H5.08z" fill="none"/><path d="M5.079 5.776h336.913v337.67H5.08z" stroke="#000" stroke-width="2" stroke-linecap="butt" stroke-linejoin="round"/><path d="M133.843 15.667h74.33v56.882h-74.33z" fill="#000"/><path d="M154.642 44.116c0-2.709.276-4.886.827-6.531.563-1.657 1.391-2.933 2.485-3.829 1.104-.895 2.49-1.343 4.156-1.343 1.23 0 2.307.25 3.234.75.927.49 1.692 1.203 2.297 2.14.604.927 1.078 2.062 1.422 3.407.344 1.333.516 3.135.516 5.406 0 2.687-.276 4.859-.829 6.515-.552 1.647-1.38 2.923-2.484 3.829-1.093.895-2.479 1.343-4.156 1.343-2.209 0-3.943-.792-5.203-2.375-1.51-1.907-2.266-5.01-2.266-9.312zm2.89 0c0 3.76.437 6.265 1.312 7.515.885 1.24 1.974 1.86 3.266 1.86 1.291 0 2.375-.625 3.25-1.875.885-1.25 1.328-3.75 1.328-7.5 0-3.77-.443-6.276-1.328-7.516-.875-1.24-1.969-1.86-3.281-1.86-1.292 0-2.323.547-3.094 1.641-.969 1.396-1.453 3.974-1.453 7.735zm14.906 0c0-2.709.276-4.886.828-6.531.563-1.657 1.39-2.933 2.484-3.829 1.105-.895 2.49-1.343 4.157-1.343 1.229 0 2.307.25 3.234.75.927.49 1.692 1.203 2.297 2.14.604.927 1.078 2.062 1.422 3.407.343 1.333.515 3.135.515 5.406 0 2.687-.276 4.859-.828 6.515-.552 1.647-1.38 2.923-2.484 3.829-1.093.895-2.479 1.343-4.156 1.343-2.209 0-3.943-.792-5.203-2.375-1.51-1.907-2.266-5.01-2.266-9.312zm2.89 0c0 3.76.438 6.265 1.313 7.515.885 1.24 1.974 1.86 3.266 1.86 1.291 0 2.375-.625 3.25-1.875.885-1.25 1.328-3.75 1.328-7.5 0-3.77-.443-6.276-1.328-7.516-.875-1.24-1.97-1.86-3.282-1.86-1.291 0-2.322.547-3.093 1.641-.969 1.396-1.453 3.974-1.453 7.735z" fill="#fff"/><path d="M15.262 17.706h109.89v54.835H15.262z" stroke="#000" stroke-width="2" stroke-linecap="butt" stroke-linejoin="round"/><path d="M15.262 72.654l39.686-54.08" stroke-width="2" stroke="#000"/><path d="M15.262 72.654l39.686-54.08" stroke="#000" stroke-width="2" stroke-linecap="butt" stroke-linejoin="round"/><path d="M37.566 72.654l39.686-54.08" stroke-width="2" stroke="#000"/><path d="M37.566 72.654l39.686-54.08" stroke="#000" stroke-width="2" stroke-linecap="butt" stroke-linejoin="round"/><path d="M59.87 72.654l39.686-54.08" stroke-width="2" stroke="#000"/><path d="M59.87 72.654l39.686-54.08" stroke="#000" stroke-width="2" stroke-linecap="butt" stroke-linejoin="round"/><path d="M82.175 72.654l39.685-54.08" stroke-width="2" stroke="#000"/><path d="M82.175 72.654l39.685-54.08" stroke="#000" stroke-width="2" stroke-linecap="butt" stroke-linejoin="round"/><path d="M216.864 16.634h109.89v54.835h-109.89z" stroke-width="2" stroke="#000"/><path d="M216.864 16.634h109.89v54.835h-109.89z" stroke="#000" stroke-width="2" stroke-linecap="butt" stroke-linejoin="round"/><path d="M216.864 71.581l39.685-54.078" stroke-width="2" stroke="#000"/><path d="M216.864 71.581l39.685-54.078" stroke="#000" stroke-width="2" stroke-linecap="butt" stroke-linejoin="round"/><path d="M239.168 71.581l39.685-54.078" stroke-width="2" stroke="#000"/><path d="M239.168 71.581l39.685-54.078" stroke="#000" stroke-width="2" stroke-linecap="butt" stroke-linejoin="round"/><path d="M261.472 71.581l39.685-54.078" stroke-width="2" stroke="#000"/><path d="M261.472 71.581l39.685-54.078" stroke="#000" stroke-width="2" stroke-linecap="butt" stroke-linejoin="round"/><path d="M283.776 71.581l39.685-54.078" stroke-width="2" stroke="#000"/><path d="M283.776 71.581l39.685-54.078" stroke="#000" stroke-width="2" stroke-linecap="butt" stroke-linejoin="round"/><path stroke="#000" stroke-width="2" stroke-linecap="round" stroke-linejoin="round" d="M47.761 130.804H299.31v87.614H47.761z"/><g aria-label="w:56 | a:9 h:13 | x:__" transform="matrix(.77944 0 0 .77944 38.274 37.143)" style="line-height:1.25;-inkscape-font-specification:'Consolas, Normal';font-variant-ligatures:normal;font-variant-caps:normal;font-variant-numeric:normal;font-variant-east-asian:normal" font-weight="400" font-size="40" font-family="Consolas" fill="#000" filter="url(#b)"><path d="M73.506 141.994l-2.851 19.61h-4.121l-2.832-8.204-.567-1.992-.644 2.11-2.715 8.085h-4.004l-2.832-19.61h3.32l1.64 13.321.352 2.969.84-2.598 2.852-8.808h2.441l3.067 8.691.878 2.598.293-2.754 1.524-13.418zM85.205 141.642q.606 0 1.153.254.547.235.957.645.41.41.644.957.254.547.254 1.152 0 .625-.254 1.172-.234.527-.644.937-.41.41-.957.645-.547.234-1.153.234-.625 0-1.171-.234-.528-.234-.938-.645-.41-.41-.644-.937-.235-.547-.235-1.172 0-.605.235-1.152.234-.547.644-.957.41-.41.938-.645.546-.254 1.171-.254zm0 14.317q.606 0 1.153.254.547.234.957.644.41.41.644.957.254.547.254 1.152 0 .625-.254 1.172-.234.528-.644.938-.41.41-.957.644-.547.235-1.153.235-.625 0-1.171-.235-.528-.234-.938-.644-.41-.41-.644-.938-.235-.547-.235-1.172 0-.605.235-1.152.234-.547.644-.957.41-.41.938-.644.546-.254 1.171-.254zM115.245 153.44q0 1.894-.82 3.456-.821 1.563-2.266 2.695-1.426 1.114-3.38 1.739-1.952.625-4.218.625-.567 0-1.23-.04-.645-.019-1.29-.077-.644-.04-1.27-.098-.605-.059-1.093-.137v-3.086q1.055.254 2.402.371 1.368.117 2.754.117 1.563 0 2.813-.37 1.25-.372 2.129-1.055.879-.703 1.347-1.68.47-.996.47-2.227 0-2.382-1.72-3.457-1.699-1.093-4.902-1.093h-4.844v-13.047h13.75v2.969H103.33v7.168h2.227q1.836 0 3.574.332 1.739.332 3.086 1.171 1.367.82 2.188 2.227.84 1.387.84 3.496zM138.194 153.517q0 1.758-.645 3.301-.625 1.543-1.797 2.695-1.172 1.133-2.832 1.797-1.64.645-3.652.645-2.11 0-3.73-.664-1.622-.684-2.715-2.07-1.094-1.407-1.66-3.536-.567-2.129-.567-5.039 0-1.953.254-3.789t.84-3.457q.586-1.621 1.562-2.969.977-1.347 2.422-2.304 1.465-.977 3.438-1.504 1.972-.547 4.57-.547h2.52v2.969h-2.735q-2.285 0-3.965.546-1.68.547-2.812 1.543-1.133.997-1.738 2.403-.606 1.406-.762 3.144l-.078.801q1.23-.723 2.832-1.152 1.62-.45 3.496-.45 1.933 0 3.379.567 1.465.566 2.422 1.582.976.996 1.464 2.402.489 1.407.489 3.086zm-3.555.215q0-1.172-.293-2.11-.273-.956-.879-1.6-.605-.665-1.543-1.016-.918-.372-2.207-.372-.742 0-1.504.137-.761.137-1.504.39-.722.235-1.386.548-.664.312-1.211.664 0 2.52.351 4.218.352 1.68 1.035 2.696.704 1.015 1.72 1.445 1.015.43 2.343.43 1.113 0 2.031-.352.938-.37 1.602-1.074.683-.703 1.054-1.7.391-1.015.391-2.304zM174.776 169.611h-3.203v-40h3.203zM221.885 161.603l-.078-2.637q-1.602 1.583-3.262 2.286-1.64.703-3.457.703-1.68 0-2.87-.43-1.192-.43-1.973-1.172-.762-.762-1.133-1.777-.352-1.016-.352-2.207 0-2.95 2.188-4.61 2.207-1.68 6.504-1.68h4.062v-1.718q0-1.738-1.113-2.773-1.114-1.055-3.399-1.055-1.66 0-3.28.371-1.602.371-3.321 1.055v-3.067q.644-.234 1.426-.449.8-.234 1.68-.41.878-.176 1.835-.274.957-.117 1.934-.117 1.777 0 3.203.39 1.426.392 2.402 1.192.996.801 1.524 2.012.527 1.211.527 2.852v13.515zm-.371-8.926h-4.316q-1.27 0-2.188.254-.918.254-1.504.723t-.879 1.133q-.273.644-.273 1.465 0 .566.176 1.093.175.508.566.918.39.391 1.016.625.625.235 1.523.235 1.172 0 2.676-.703 1.523-.723 3.203-2.266zM239.15 141.642q.606 0 1.153.254.547.235.957.645.41.41.645.957.254.547.254 1.152 0 .625-.254 1.172-.235.527-.645.937-.41.41-.957.645-.547.234-1.152.234-.625 0-1.172-.234-.527-.234-.938-.645-.41-.41-.644-.937-.235-.547-.235-1.172 0-.605.235-1.152.234-.547.644-.957.41-.41.938-.645.547-.254 1.172-.254zm0 14.317q.606 0 1.153.254.547.234.957.644.41.41.645.957.254.547.254 1.152 0 .625-.254 1.172-.235.528-.645.938-.41.41-.957.644-.547.235-1.152.235-.625 0-1.172-.235-.527-.234-.938-.644-.41-.41-.644-.938-.235-.547-.235-1.172 0-.605.235-1.152.234-.547.644-.957.41-.41.938-.644.547-.254 1.172-.254zM269.698 147.404q0 3.73-.899 6.426-.898 2.676-2.656 4.414-1.758 1.719-4.356 2.539-2.597.82-5.996.82h-2.129v-2.969h2.364q2.52 0 4.355-.507 1.836-.508 3.047-1.485 1.23-.996 1.875-2.402.645-1.426.8-3.242l.079-.801q-1.23.723-2.832 1.172-1.602.43-3.477.43-1.933 0-3.398-.567-1.465-.566-2.441-1.582-.958-1.016-1.446-2.402-.488-1.407-.488-3.047 0-1.777.644-3.32.645-1.543 1.797-2.676 1.172-1.153 2.793-1.817 1.621-.664 3.575-.664 1.894 0 3.496.625 1.62.625 2.793 2.032 1.171 1.386 1.836 3.613.664 2.226.664 5.41zm-8.946-8.887q-1.093 0-2.03.371-.919.352-1.603 1.055-.664.684-1.054 1.7-.39 1.015-.39 2.323 0 1.192.273 2.13.293.937.879 1.6.605.645 1.542.997.938.352 2.227.352.723 0 1.484-.137.782-.137 1.504-.371.743-.235 1.407-.547.664-.313 1.191-.664 0-2.52-.371-4.2-.371-1.699-1.074-2.714-.703-1.035-1.72-1.465-.995-.43-2.265-.43zM71.104 211.603h-3.399v-12.52q0-2.265-.859-3.378-.84-1.133-2.422-1.133-.683 0-1.289.195-.586.176-1.23.645-.645.449-1.407 1.23-.761.782-1.757 1.953v13.008h-3.399v-27.597h3.399v7.988l-.118 3.086q.801-.957 1.563-1.602.781-.664 1.543-1.074.781-.41 1.582-.586.8-.176 1.66-.176 2.93 0 4.531 1.797 1.602 1.777 1.602 5.371zM85.205 191.642q.606 0 1.153.254.547.235.957.645.41.41.644.957.254.547.254 1.152 0 .625-.254 1.172-.234.527-.644.937-.41.41-.957.645-.547.234-1.153.234-.625 0-1.171-.234-.528-.234-.938-.645-.41-.41-.644-.937-.235-.547-.235-1.172 0-.605.235-1.152.234-.547.644-.957.41-.41.938-.645.546-.254 1.171-.254zm0 14.317q.606 0 1.153.254.547.234.957.644.41.41.644.957.254.547.254 1.152 0 .625-.254 1.172-.234.528-.644.938-.41.41-.957.644-.547.235-1.153.235-.625 0-1.171-.235-.528-.234-.938-.644-.41-.41-.644-.938-.235-.547-.235-1.172 0-.605.235-1.152.234-.547.644-.957.41-.41.938-.644.546-.254 1.171-.254zM115.674 211.603H99.64v-3.164h6.563v-18.633l-6.114 3.32-1.25-2.89 8.125-4.277h3.008v22.48h5.703zM137.393 203.85q0 1.679-.684 3.163-.683 1.465-2.05 2.578-1.368 1.094-3.438 1.739-2.07.625-4.824.625-1.524 0-2.735-.098-1.21-.098-2.265-.254v-3.047q1.21.215 2.558.332 1.348.118 2.754.118 1.914 0 3.262-.333 1.367-.351 2.227-.996.859-.644 1.25-1.562.39-.918.39-2.07 0-1.055-.469-1.836-.468-.782-1.328-1.309-.84-.527-2.03-.781-1.173-.274-2.579-.274h-2.91v-2.793h2.95q1.151 0 2.089-.293.957-.312 1.621-.878.684-.567 1.035-1.387.371-.84.371-1.895 0-2.05-1.25-2.988-1.25-.938-3.672-.938-1.289 0-2.656.254-1.367.254-2.93.762v-2.969q.665-.234 1.407-.41.761-.195 1.504-.312.761-.137 1.504-.196.742-.078 1.425-.078 2.032 0 3.575.45 1.542.43 2.578 1.25 1.035.82 1.562 1.992.527 1.172.527 2.636 0 2.188-1.132 3.672-1.114 1.485-3.067 2.364.996.156 1.953.625.977.468 1.739 1.21.78.723 1.25 1.72.488.995.488 2.206zM174.776 219.611h-3.203v-40h3.203zM226.963 211.603h-4.511l-5.293-7.48-5.235 7.48h-4.394l7.597-9.844-7.246-9.765h4.356l5.156 7.539 5.059-7.54h4.199l-7.364 9.845zM239.15 191.642q.606 0 1.153.254.547.235.957.645.41.41.645.957.254.547.254 1.152 0 .625-.254 1.172-.235.527-.645.937-.41.41-.957.645-.547.234-1.152.234-.625 0-1.172-.234-.527-.234-.938-.645-.41-.41-.644-.937-.235-.547-.235-1.172 0-.605.235-1.152.234-.547.644-.957.41-.41.938-.645.547-.254 1.172-.254zm0 14.317q.606 0 1.153.254.547.234.957.644.41.41.645.957.254.547.254 1.152 0 .625-.254 1.172-.235.528-.645.938-.41.41-.957.644-.547.235-1.152.235-.625 0-1.172-.235-.527-.234-.938-.644-.41-.41-.644-.938-.235-.547-.235-1.172 0-.605.235-1.152.234-.547.644-.957.41-.41.938-.644.547-.254 1.172-.254zM272.139 219.611h-21.992v-2.812h21.992zM294.131 219.611H272.14v-2.812h21.992z"/></g><path stroke="#000" stroke-width="2" stroke-linecap="round" stroke-linejoin="round" d="M135.381 227.254h32.925v32.925h-32.925z"/><path d="M158.243 247.725q0 1.344-.547 2.532-.547 1.172-1.641 2.062-1.094.875-2.75 1.391-1.657.5-3.86.5-1.219 0-2.188-.078-.969-.078-1.813-.203v-2.438q.97.172 2.047.266 1.079.094 2.204.094 1.531 0 2.61-.266 1.093-.281 1.781-.797t1-1.25q.313-.735.313-1.657 0-.843-.375-1.469-.375-.625-1.063-1.047-.672-.421-1.625-.625-.938-.218-2.063-.218h-2.328v-2.235h2.36q.921 0 1.671-.234.766-.25 1.297-.704.547-.453.829-1.11.297-.671.297-1.515 0-1.64-1-2.39-1-.75-2.938-.75-1.032 0-2.126.202-1.094.203-2.344.61v-2.376q.532-.187 1.125-.328.61-.156 1.204-.25.61-.11 1.203-.156.594-.063 1.14-.063 1.626 0 2.86.36 1.235.344 2.063 1 .828.656 1.25 1.594.422.938.422 2.11 0 1.75-.906 2.937-.89 1.188-2.454 1.891.797.125 1.563.5.782.375 1.391.97.625.577 1 1.374.39.797.39 1.766z" aria-label="3" style="fill:#000000;fill-opacity:1;stroke:none;stroke-width:0.800094" font-size="32.004" font-family="Consolas" fill="#000" stroke-width=".8"/><path stroke="#000" stroke-width="2" stroke-linecap="round" stroke-linejoin="round" d="M178.766 227.254h32.925v32.925h-32.925z"/><path d="M203.034 249.413h-3.485v4.516h-2.781v-4.516h-9.83v-2.391l8.705-13.517h3.906v13.517h3.485zm-6.266-13.283l-7.11 10.892h7.11z" aria-label="4" style="fill:#000000;fill-opacity:1;stroke:none;stroke-width:0.800094" font-size="32.004" font-family="Consolas" fill="#000" stroke-width=".8"/><path stroke="#000" stroke-width="2" stroke-linecap="round" stroke-linejoin="round" d="M91.996 227.254h32.925v32.925H91.996z"/><path d="M115.248 253.929h-13.454v-2.438l5.282-5.25q1.297-1.282 2.11-2.22.812-.937 1.265-1.703.453-.781.61-1.469.156-.687.156-1.484 0-.75-.203-1.422-.204-.688-.625-1.204-.422-.515-1.094-.812-.672-.297-1.61-.297-1.297 0-2.36.578-1.062.578-1.953 1.5l-1.5-1.797q1.156-1.219 2.656-1.953 1.516-.735 3.517-.735 1.359 0 2.469.407 1.125.406 1.937 1.172.813.765 1.25 1.875.454 1.11.454 2.5 0 1.172-.313 2.172-.312 1-.953 2-.625.985-1.594 2.048-.953 1.062-2.266 2.328l-3.704 3.61h9.923z" aria-label="2" style="fill:#000000;fill-opacity:1;stroke:none;stroke-width:0.800094" font-size="32.004" font-family="Consolas" fill="#000" stroke-width=".8"/><path stroke="#000" stroke-width="2" stroke-linecap="round" stroke-linejoin="round" d="M222.151 227.254h32.925v32.925h-32.925z"/><path d="M244.888 247.397q0 1.516-.657 2.766-.656 1.25-1.812 2.156-1.141.891-2.704 1.391-1.563.5-3.375.5-.453 0-.985-.031-.515-.016-1.031-.063-.516-.03-1.016-.078-.484-.047-.875-.109v-2.47q.844.204 1.922.298 1.094.094 2.204.094 1.25 0 2.25-.297t1.703-.844q.703-.563 1.078-1.344.375-.797.375-1.782 0-1.906-1.375-2.765-1.36-.876-3.922-.876h-3.876v-10.438h11.002v2.375h-8.439v5.735h1.782q1.469 0 2.86.266 1.39.265 2.468.937 1.094.657 1.75 1.782.673 1.11.673 2.797z" aria-label="5" style="fill:#000000;fill-opacity:1;stroke:none;stroke-width:0.800094" font-size="32.004" font-family="Consolas" fill="#000" stroke-width=".8"/><path stroke="#000" stroke-width="2" stroke-linecap="round" stroke-linejoin="round" d="M265.536 227.254h32.925v32.925h-32.925z"/><path d="M287.382 252.46l-1.703 1.719-10.502-8.767 10.502-8.766 1.703 1.734-8.517 7.001z" aria-label="&lt;" style="fill:#000000;fill-opacity:1;stroke:none;stroke-width:0.800094" font-size="32.004" font-family="Consolas" fill="#000" stroke-width=".8"/><path stroke="#000" stroke-width="2" stroke-linecap="round" stroke-linejoin="round" d="M48.611 227.254h32.925v32.925H48.611z"/><path d="M71.692 253.929h-12.83v-2.532h5.25V236.49l-4.89 2.657-1-2.313 6.5-3.422h2.407v17.986h4.563z" aria-label="1" style="fill:#000000;fill-opacity:1;stroke:none;stroke-width:0.800094" font-size="32.004" font-family="Consolas" fill="#000" stroke-width=".8"/><path stroke="#000" stroke-width="2" stroke-linecap="round" stroke-linejoin="round" d="M265.536 270.639h32.925v32.925h-32.925z"/><path d="M288.616 291.782q0 1.453-.593 2.547-.594 1.094-1.657 1.828-1.063.72-2.563 1.079-1.484.36-3.281.36-.813 0-1.626-.063-.796-.063-1.547-.157-.734-.093-1.39-.218-.657-.125-1.188-.266v-2.688q1.172.438 2.625.688 1.47.25 3.329.25 1.344 0 2.281-.203.954-.22 1.547-.625.61-.422.876-1.016.28-.594.28-1.36 0-.828-.468-1.406-.453-.594-1.203-1.047-.75-.469-1.72-.844-.952-.39-1.953-.797-1-.406-1.969-.875-.953-.485-1.703-1.125-.75-.657-1.219-1.532-.453-.875-.453-2.078 0-1.047.438-2.063.437-1.016 1.36-1.797.921-.797 2.359-1.281 1.453-.485 3.453-.485.516 0 1.11.047.61.047 1.219.14.625.079 1.219.188.609.11 1.125.235v2.5q-1.204-.344-2.407-.516-1.203-.187-2.328-.187-2.391 0-3.516.797t-1.125 2.14q0 .829.453 1.423.469.594 1.219 1.062.75.47 1.703.86.969.375 1.969.781t1.953.89q.97.485 1.72 1.157.75.657 1.203 1.547.468.891.468 2.11z" aria-label="S" style="fill:#000000;fill-opacity:1;stroke:none;stroke-width:0.800094" font-size="32.004" font-family="Consolas" fill="#000" stroke-width=".8"/><path stroke="#000" stroke-width="2" stroke-linecap="round" stroke-linejoin="round" d="M135.381 270.639h32.925v32.925h-32.925z"/><path d="M158.633 292.188q0 1.297-.53 2.313-.532 1-1.485 1.688-.954.687-2.25 1.047-1.298.36-2.814.36-1.672 0-2.953-.376-1.266-.375-2.125-1.047-.86-.672-1.297-1.594-.438-.922-.438-2.031 0-1.876 1.047-3.235 1.047-1.36 3.235-2.47-2-1.015-2.922-2.25-.922-1.25-.922-2.86 0-.984.406-1.906.406-.922 1.219-1.64.828-.72 2.063-1.141 1.234-.438 2.906-.438 1.579 0 2.766.344 1.203.328 2.016.953t1.219 1.516q.406.89.406 1.985 0 1.781-1 3.031-.984 1.25-2.813 2.188.907.453 1.688 1 .781.547 1.36 1.22.578.671.89 1.5.328.828.328 1.843zm-3.234-10.563q0-1.391-.985-2.063-.969-.688-2.735-.688-1.75 0-2.734.672-.97.672-.97 2.016 0 .61.235 1.125.235.516.72.969.5.453 1.234.89.734.438 1.75.891 1.766-.828 2.625-1.718.86-.907.86-2.094zm.281 10.766q0-.578-.188-1.125-.187-.547-.672-1.078-.484-.531-1.297-1.063-.812-.53-2.062-1.093-1.063.515-1.797 1.03-.72.5-1.172 1.032-.438.516-.625 1.079-.188.562-.188 1.187 0 .703.297 1.25.312.532.844.907.531.375 1.266.562.734.188 1.593.188.829 0 1.563-.172.735-.172 1.266-.516.547-.36.86-.89.312-.548.312-1.298z" aria-label="8" style="fill:#000000;fill-opacity:1;stroke:none;stroke-width:0.800094" font-size="32.004" font-family="Consolas" fill="#000" stroke-width=".8"/><path stroke="#000" stroke-width="2" stroke-linecap="round" stroke-linejoin="round" d="M178.766 270.639h32.925v32.925h-32.925z"/><path d="M201.909 285.953q0 2.985-.719 5.141-.719 2.141-2.125 3.532-1.407 1.375-3.485 2.032-2.078.656-4.797.656h-1.704v-2.375h1.891q2.016 0 3.485-.407 1.469-.406 2.438-1.187.984-.797 1.5-1.922.516-1.141.64-2.595l.063-.64q-.984.578-2.266.937-1.281.344-2.781.344-1.547 0-2.72-.453-1.171-.453-1.953-1.266-.765-.812-1.156-1.922-.39-1.125-.39-2.438 0-1.422.515-2.656.516-1.235 1.438-2.141.937-.922 2.234-1.453 1.297-.532 2.86-.532 1.516 0 2.797.5 1.297.5 2.235 1.626.937 1.11 1.469 2.89.531 1.782.531 4.33zm-7.157-7.11q-.875 0-1.625.297-.735.281-1.282.844-.531.547-.844 1.36-.312.812-.312 1.859 0 .953.219 1.703.234.75.703 1.282.484.515 1.234.797.75.28 1.782.28.578 0 1.188-.109.625-.109 1.203-.296.594-.188 1.125-.438t.953-.531q0-2.016-.297-3.36-.297-1.36-.86-2.172-.562-.828-1.374-1.172-.797-.344-1.813-.344z" aria-label="9" style="fill:#000000;fill-opacity:1;stroke:none;stroke-width:0.800094" font-size="32.004" font-family="Consolas" fill="#000" stroke-width=".8"/><path stroke="#000" stroke-width="2" stroke-linecap="round" stroke-linejoin="round" d="M91.996 270.639h32.925v32.925H91.996z"/><path d="M115.14 279.421l-8.564 17.893h-3.11l8.892-17.893h-11.033v-2.531h13.814z" aria-label="7" style="fill:#000000;fill-opacity:1;stroke:none;stroke-width:0.800094" font-size="32.004" font-family="Consolas" fill="#000" stroke-width=".8"/><path stroke="#000" stroke-width="2" stroke-linecap="round" stroke-linejoin="round" d="M222.151 270.639h32.925v32.925h-32.925z"/><path d="M245.872 287.11q0 2.344-.469 4.281-.468 1.922-1.422 3.313-.953 1.375-2.375 2.141-1.406.75-3.313.75-1.64 0-2.985-.61-1.344-.624-2.297-1.906-.953-1.281-1.469-3.266-.515-1.984-.515-4.703 0-2.344.468-4.282.485-1.938 1.422-3.313.954-1.39 2.376-2.141 1.422-.766 3.313-.766 1.64 0 2.984.625 1.344.61 2.298 1.907.953 1.281 1.468 3.266.516 1.984.516 4.704zm-2.75.093q0-.531-.047-1.047-.031-.531-.078-1.031l-8.642 6.423q.235.812.594 1.5.36.687.86 1.187.515.485 1.156.766.656.266 1.484.266 1.063 0 1.922-.516.876-.516 1.485-1.531.61-1.016.938-2.516.328-1.516.328-3.5zm-9.345-.187v.969q.016.484.062.937l8.642-6.391q-.234-.797-.594-1.453-.36-.657-.86-1.126-.5-.484-1.14-.75-.64-.265-1.438-.265-1.062 0-1.937.515-.86.516-1.47 1.547-.609 1.016-.937 2.532-.328 1.5-.328 3.485z" aria-label="0" style="fill:#000000;fill-opacity:1;stroke:none;stroke-width:0.800094" font-size="32.004" font-family="Consolas" fill="#000" stroke-width=".8"/><path stroke="#000" stroke-width="2" stroke-linecap="round" stroke-linejoin="round" d="M48.611 270.639h32.925v32.925H48.611z"/><path d="M72.114 290.844q0 1.407-.516 2.641-.5 1.235-1.438 2.157-.937.906-2.266 1.437-1.312.516-2.922.516-1.688 0-2.985-.531-1.297-.547-2.172-1.657-.875-1.125-1.328-2.828-.453-1.703-.453-4.032 0-1.562.203-3.031.203-1.47.672-2.766.469-1.297 1.25-2.376.781-1.078 1.938-1.844 1.172-.78 2.75-1.203 1.578-.437 3.657-.437h2.016v2.375h-2.188q-1.828 0-3.172.437-1.344.438-2.25 1.235-.907.797-1.391 1.922-.485 1.125-.61 2.516l-.062.64q.984-.578 2.265-.921 1.298-.36 2.798-.36 1.547 0 2.703.453 1.172.454 1.938 1.266.781.797 1.172 1.922.39 1.125.39 2.47zm-2.845.172q0-.937-.234-1.687-.219-.766-.703-1.282-.485-.531-1.235-.812-.734-.297-1.765-.297-.594 0-1.204.109-.61.11-1.203.313-.578.187-1.11.437-.53.25-.968.531 0 2.016.28 3.376.282 1.344.83 2.156.562.813 1.374 1.157.813.344 1.875.344.891 0 1.626-.282.75-.297 1.281-.86.547-.562.844-1.359.312-.812.312-1.844z" aria-label="6" style="fill:#000000;fill-opacity:1;stroke:none;stroke-width:0.800094" font-size="32.004" font-family="Consolas" fill="#000" stroke-width=".8"/></g></svg>