<svg xmlns="http://www.w3.org/2000/svg" fill="none" viewBox="0 0 348 348"><path stroke="#000" stroke-width="2" d="M280 268h40v40h-40v-40zm-50 0h40v40h-40v-40zm-50 0h40v40h-40v-40zm0-50h40v40h-40v-40zm100-50h40v40h-40v-40zm-50 0h40v40h-40v-40zm-100 0h40v40h-40v-40zm150-50h40v40h-40v-40zm-50 0h40v40h-40v-40zm-50 0h40v40h-40v-40zm-60-10h210v210H120V108zm10-80h130v50H130V28zM44.9 294v18l-24.1-9zM81 316.5H48.9l16.1 18zm4-22.5v18l24.1-9zm-20-22.4l16 18H49zm5-53.6h40v40H70v-40zm-50 0h40v40H20v-40zm50-50h40v40H70v-40zm-50 0h40v40H20v-40zm50-50h40v40H70v-40zm-50 0h40v40H20v-40zm50-50h40v40H70V68zm-50 0h40v40H20V68zm50-50h40v40H70V18zm-50 0h40v40H20V18zm262.7 22.6c0-8.4 7-15.2 15.6-15.2 4.1 0 8 1.6 11 4.4a15 15 0 0 1 4.6 10.8c0 8.3-7 15.1-15.6 15.1s-15.6-6.8-15.6-15.2zM5.1 5.8H342v337.6H5z"/><path fill="#000" d="M309.2 285.3l-.1.4-.2.4-.5.3h-2.2q-.8 0-1.2.2-.3.1-.4.4-.2.3-.2.7 0 .4-.3 1 0 .3-.2.5l-.2.5v.1q.2.2.5.2h2.7l.6.2.4.3q.2.2.2.5l-.1.5q-.1.2-.4.3l-.4.3h-.5l-.6-.1-.7-.1h-1l-1 .1q-.5.3-.7.7l-.2.9-.1.9q0 .5-.3.8l-.2.3v.8l-.2.4-.2.4v.4l-.2.4-.3.7-.2.6v.3l-.1.6-.3.5-.5.5-.7.1h-.6l-.3-.4-.1-.5v-1.1l.2-.2.3-.3.2-.5v-.5l.3-.5.2-.4.1-.5q0-.5.2-.8l.1-.9v-.5l.3-.6.2-.6.2-.5-.5-.3h-2.3q-.3 0-.5-.2l-.3.2-.2.2-.1.1-.2.4v.4l-.2.6-.2.7q0 .4-.3.9l-.1.5-.1.5v.5q0 .3-.2.5 0 .3-.2.5l-.3.5-.2.4v.5l-.2.7-.4.6q-.2.3-.5.4l-.8.2h-.4l-.4-.2-.2-.9-.1-.8q0-.4.3-1l.5-1 .6-1.2.2-.8.2-.5.3-.7.4-.8.1-.7q0-.4-.3-.4l-.8-.1H292l-.6-.2q-.2 0-.4-.3-.2-.2-.2-.5 0-.5.3-.7.3-.3.7-.4l.8-.1h2.1q.3 0 .5-.2l.2-.6q.2-.3.2-.7l.3-.7q0-.3.2-.5l.1-.5q0-.2-.2-.2h-2.4l-.6-.3q-.3-.1-.4-.4-.2-.2-.2-.6l.2-.5q.1-.2.4-.3l.5-.3h1.6l.7.1h1l.2-.5.2-.5.1-.4.1-.6.2-.5.2-.6.1-.7v-1.1l.2-.6q0-.3.2-.5v-1.5l.5-1q.3-.5.7-.8.4-.3 1-.3t1 .4q.3.4.3 1v.8l-.1.5-.5.7-.6 2.5-.3.5-.4 1-.3 1-.2.7q0 .3.3.6.2.3.6.3.3 0 .5-.2l.7-.1h1.3l.5-.1.3-.5v-.5l.2-.6.3-.4.1-.2.1-.3v-.4l.1-.6.2-.5.3-.5V278.9q-.2-.1-.2-.3l.1-.7.1-.7.2-.7.5-.7.6-.5.7-.2q.4 0 .7.3l.4.5v1.6l-.5.7v.7q-.2.3-.2.7v.5l-.2.3-.3.5-.4.9-.2.4-.3.7-.2.8-.1.4.1.2.3.1h2.3l.4.3q.2 0 .4.3v.3zm-6.7 1.4l-.2-.2h-1.5l-.5-.2q-.4 0-.7.2h-.8l-.4.9q-.2.4-.2.9l-.1.3-.2.4-.1.3v.8h1.4l1 .1h.6q.3 0 .5-.2l.3-.6.3-.5.3-.5v-.8q0-.3.2-.5l.1-.4zm-93.3-151.4l-.1.4-.2.4-.5.3h-2.2q-.8 0-1.2.2-.3.1-.4.4-.2.3-.2.7 0 .4-.3 1 0 .3-.2.5l-.2.5v.1q.2.2.5.2h2.7l.6.2.4.3q.2.2.2.5l-.1.5q-.1.2-.4.3l-.4.3h-.5l-.6-.1-.7-.1h-1l-1 .1q-.5.3-.7.7l-.2.9-.1.9q0 .5-.3.8l-.2.3v.8l-.2.4-.2.4v.4l-.2.4-.3.7-.2.6v.3l-.1.6-.3.5-.5.5-.7.1h-.6l-.3-.4-.1-.5v-1.1l.2-.2.3-.3.2-.5v-.5l.3-.5.2-.4.1-.5q0-.5.2-.8l.1-.9v-.5l.3-.6.2-.6.2-.5-.5-.3h-2.3q-.3 0-.5-.2l-.3.2-.2.2-.1.1-.2.4v.4l-.2.6-.2.7q0 .4-.3.9l-.1.5-.1.5v.5q0 .3-.2.5 0 .3-.2.5l-.3.5-.2.4v.5l-.2.7-.4.6q-.2.3-.5.4l-.8.2h-.4l-.4-.2-.2-.9-.1-.8q0-.4.3-1l.5-1 .6-1.2.2-.8.2-.5.3-.7.4-.8.1-.7q0-.4-.3-.4l-.8-.1H192l-.6-.2q-.2 0-.4-.3-.2-.2-.2-.5 0-.5.3-.7.3-.3.7-.4l.8-.1h2.1q.3 0 .5-.2l.2-.6q.2-.3.2-.7l.3-.7q0-.3.2-.5l.1-.5q0-.2-.2-.2h-2.4l-.6-.3q-.3-.1-.4-.4-.2-.2-.2-.6l.2-.5q.1-.2.4-.3l.5-.3h1.6l.7.1h1l.2-.5.2-.5.1-.4.1-.6.2-.5.2-.6.1-.7v-1.1l.2-.6q0-.3.2-.5v-1.5l.5-1q.3-.5.7-.8.4-.3 1-.3t1 .4q.3.4.3 1v.8l-.1.5-.5.7-.6 2.5-.3.5-.4 1-.3 1-.2.7q0 .3.3.6.2.3.6.3.3 0 .5-.2l.7-.1h1.3l.5-.1.3-.5v-.5l.2-.6.3-.4.1-.2.1-.3v-.4l.1-.6.2-.5.3-.5V128.9q-.2-.1-.2-.3l.1-.7.1-.7.2-.7.5-.7.6-.5.7-.2q.4 0 .7.3l.4.5v1.6l-.5.7v.7q-.2.3-.2.7v.5l-.2.3-.3.5-.4.9-.2.4-.3.7-.2.8-.1.4.1.2.3.1h2.3l.4.3q.2 0 .4.3v.3zm-6.7 1.4l-.2-.2h-1.5l-.5-.2q-.4 0-.7.2h-.8l-.4.9q-.2.4-.2.9l-.1.3-.2.4-.1.3v.8h1.5l1 .1h.5q.3 0 .5-.2l.3-.6.3-.5.3-.5v-.8q0-.3.2-.5l.1-.4zM248 64.8v.4l-.3.2-.2.2v.4q-.7.2-1.5.2l-1.4.1h-.2l-.3-.2-.2-.1v-.2h-.6l-.5.2-.4.2-.4.4-.6-.2-.8-.1-1-.2q-.4 0-.7-.2l-.6-.4q-.2-.2-.2-.6v-.7l.2-.5.2-.1h.3l.4.1h.2v-.4h-.3l-.2-.1h-.3l.4-.6v-1.4l-.3-.8-.5-.7q-.2-.3-.6-.4l-.3-.5-.3-.5-.4-.4-.6-.1q-.3 0-.8.3l-1 .8-.8.9q-.4.4-.4.6v.3l.1.4-.1.6-.3.4q0 .4.2.5l.5.3.7.1h.5l.3.3.4.4.4.4.1.4-.1.2h-.3l-.3.1-.1.2v.3l-1.7.1-1.7.4h-1.4l-.7.1-.7.1h-.5l-.8-.1q-.4-.2-.6-.5l-.5-.6-.1-.8q0-.4.2-.7.2-.4.7-.4.2 0 .2.2h.4l.1-.2.2-.2.3-.1q.5-.1.8-.4.4-.2.5-.6l.3-.9v-3.3q.3-.5.3-1 0-1-.2-1.8V51.7l.1-1.3V50l-.2-.4-.1-.4-.1-.3.1-.8q.2-.3.2-.7l-.2-.8-.1-.8v-.6l.1-.7q0-.6-.3-1-.3-.3-.7-.4-.4-.2-1-.2l-.8-.1-.7-.3q-.3-.2-.3-.7 0-.5.2-.8l.6-.6.8-.2h.9l1.9.4 1 .3.4.2.1.1.2 1 .1 1.4.1 1.4v1l-.1.9-.1.9v1l.3 1v4.6q0 .7.2 1.3h.3l.6-.1.4-.5.4-.5.6-.4.7-.5.6-.8.6-.7.7-.5q.5-.2.5-.7l-.1-.5q0-.3-.2-.5l-.1-.5-.1-.6v-.2h.4V48h1.2q.3.2.7.2h.6l.5-.3.6-.1.5-.1 1 .1 1 .1 1-.1q.4-.2 1-.2h.2l.3.2.3.2.1.3-.1.1-.1.1v.3q.2 0 .3.2l.2.3v.3q0 .3-.3.5l-1 .4-1.2.3h-1.3l-.4-.2-.7.2-1 .6-1 .8-1 1-.7.8q-.3.4-.3.7l-.1.6v1l.5.3.4.3.4.4.4.8.8 1 .8 1 .7 1 .5 1q.3.4.3.8v.1l1.7-.2h1.2l1.2.2v.2l.1.7.3.4.3.3.1.3zm-23.9-3l-.1.2-.3.2q-.2 0-.3.2l-.2.3-.2.4-.2.4-.7.5-1 .3q-.4 0-.7.3-.4.2-.5.8l-.8.1-.7.3-.8.4-.7.1h-.4l-.4-.2-.4-.2h-2q-.3 0-.5-.2l-.4-.3q-.2-.1-.2-.4v-.1h-.2l-.2.1-1-.2-.9-.6-.7-.8-.7-.8-.7-1-.5-1q-.7-1-.8-2.1-.2-1.1-.2-2.3v-.5q0-.3.2-.4l.2-.1.2-.1.2-.1v-.2l-.1-.5-.1-.4v-.3l.2-.3.3-.8.2-1.1.4-1q.2-.4.5-.4h.5l.5.1h.4v-.2l-.1-.3h-.6l-.1-.3v-.2l.3-.1.3-.1.2-.1.3-.3.1-.3.2-.2.4-.2h1.5l.6-.2-.2-.2.2-.2.4-.2h.8l1.2.1 1.2.2h.5l.5-.1.8.2.6.3.4-.1.2-.1h.1l.1.2.4.2q.3 0 .4.2 0 .2.2.3l.4.1.3.1.4.2v.5l.6.7q.4.2.6.5.3.3.4.7l.1 1.1-.1 1.4q-.1.6-.5 1-.3.4-.9.6-.5.2-1.4.2H220l-.4-.7-.5-.8-.5-1-.2-.6v-1q0-.3-.3-.5l-.5-.3q-.2-.2-.6-.2h-1.6l-.8.3-.1-.3q-.1-.2-.3-.2l-.6.2-.8.5-.6.6-.5.5-.3.5-.5.8-.5.7q-.3.3-.5.3l.1.7.2.9.1 1v.6q0 .4.2.7l.2.8-.1.7v.8l.3.2q.3 0 .4.3.2.2.2.5l.2.3q.2.2.5.2h.3l.2.6.3.7.2-.1V63l.2-.1.3-.1h.3l.2.3.3.3h.8l.8-.3.8-.3.7-.3 1.4-.6q.6-.4 1-1.1l.5-.7.5-.7h1.4v.4l-.3.2-.2.2q-.2 0-.2.2h.2l.6.1.7.3.7.5q.2.2.2.5zm-1.3 1v-.2l-.3-.1-.2.2v.3h.4l.1-.2zm-19.2-1.1l-.1.8-.4.7-.6.5-.6.5-.5.3-.4.2-.4.1-.5.2-.6.4-.5.3-.5.2-.7.1-1.5.2-1.5.2-.3-.1-.3-.1-.5-.2h-.6l-.6-.1-.4-.3-.3-.3-.5-.3q-1-.5-1.8-1.2t-1.4-1.6l-.9-1.8-.6-2.1-.2-1.5q0-1 .5-1.9l-.2-1 .2-1 .5-1.4.7-1.2q.4-.6.7-.7l.4-.2v-.3l.2-.4.5-.2.5-.2.4-.1 1.2-.6 1.3-.4 1.2-.2h2.2l.8.3.7.4.6.4q.3 0 .5.2l.6.1.6.6.8.6.7.7q.3.3.3.8v.3-.1l.2.2v.3l.2.3v.2l.4.4q.3.1.4.4-.2.2-.2.5l.2.6v2q0 .3-.2.4l-.5.3-.4.2q-.2.1-.2.3l-.2.1h-.3l-1.6-.2q-.7-.2-1.5-.2-.9 0-1.7.2H192l-1 .2-.9.3q-.4 0-.6.2v.3q0 .8.5 1.7.5 1 1.3 1.7t1.8 1.2q1 .5 2 .5h1.3l1.1.3 1-.5.7-.7.8-.7.7-.7.4-.1.6-.1.6-.1h1.2l.1.9zm-2.7-7.4l-.1-.5-.1-.6-.1-1-.2-1v.3h-.7l-.3-.3-1.3-.6-1.1-.5-1.2-.3-1.4-.1h-.2v.3h-.1q-.5 0-.9.2-.3 0-.5.2-.3.1-.5.4l-.7.5q-.1.2-.4.2l-.4.2-.4.1q-.2 0-.3.3l-.4.9-.2.8q0 .3.2.5l.6.4.8.2.8.2h.8l.6.1 1.3-.1 1.4-.2 1.4.1h2.7l.6-.3q.3-.1.3-.4zm-16.6 10.3l-.1.6-.3.6h-3.2l-1.1.1-1.1.1q-.8 0-.8-.7l-.5.1-.4.3-.4.4-.6.1-.6-.2q-.3-.1-.3-.5v-.2l.2-.2.2-.2V64.6l-.2-.1-.2-.2v-.2q0-.3.2-.4l.5-.2h1.6l.6-.2q.3 0 .4-.3l.3-.8.2-1v-.9l.1-.9V58l-.3-1.6q0-.4-.2-.7v-1.2l.1-.3.2-.3v-.2l-.1-.6-.3-.5-.1-.5-.1-.5-.3-.4-.3-.3-.3-.3-.2-.3h-2.7q-.7.1-1.3.4-.6.2-1.1.7-.6.4-1 1l-.5.5-.5.6-.5.5-.3.6-.2 1.6-.1 1.7v.5q0 .3.2.5l.1.5v1l-.2.7-.2.6q-.1.3-.3.3l.3.3.5.4.5.4.4.1h.6l.8.2q.4.1.7.4.3.2.3.4t-.3.2h-.4l-.2-.1-.2-.2v-.2l-.3-.1h-.1v.2l.1.4.3.3.4.4.1.4v.1h-1.3l-.4.4-.6.3-1 .1q-.3 0-.4-.2l-.2-.4-.1-.5q-.1-.2-.4-.2l-.2.1-.2.3.2.1v.3l.2.3v.2h-.8l-.4.1-.5.2h-.9l-.4-.2-.6-.2h-.6l-.5-.3q-.2-.2-.2-.7l.2-.6q0-.3.3-.6l.4-.4.6-.1h.4q.2.2.5.2l.3-.1.2-.3.2-.2q.1-.2.3-.2 0-1 .2-1.9l.1-1.9q0-1-.2-1.9l-.1-1.8.1-1.2q.2-.5.2-1.1l-.2-.6-.1-.6.1-.4q.2 0 .2-.3-.3 0-.3-.2 0-.3.2-.3h.1v-.2l-.3-.3-.1-.3-.1-.3.2-.7V47.3l.2-.8.2-.8-.1-.3-.3-.1h-.3v-.6l-.1-.8q-.1-.4-.4-.7-.2-.2-.5-.2h-.9l-.6-.2-.6-.4-.4-.7-.1-.7q0-.3.2-.4l.5-.1h.9q.3 0 .4-.2l1.1-.1h1.9l.4.4.5.4.5.2v.8l-.1.8.1.7q.2.3.2.7v.1h-.4v.7l.2.3.1.2v.8l-.1.5v.8l.2 1 .3 1q.2.3.5.3l.8-.2.6-.4.6-.6.6-.5q.1-.2.6-.3l1-.3 1.1-.2h1.6l.5.2.4.4.6.4h.3l.4.1.3.2.3.2.6.7.6.7.6.8q.2.4.2.9l-.1.5-.1.6v.3l.2.4v.5l-.1.7q0 .4-.2.7 0 .3-.2.5.3.4.4 1l.1 1v1.2l-.1 1.3q0 .8.2 1.3l.6.7q.4.3.9.4l.8.2q.4.2.6.5.3.3.3.8zM160 55.8v.7l-.1.8-.2.5-.2.6v.4q0 .2-.3.2h-.2q-.3 0-.4.2l-.2.6-.2.6v.5l-.1.4v.3l-.1.2-.3.3-.5.4-.5.5-.3.3v.3l-.2.2-.4.2-.8.3-.8.4-1 .4-.8.4-.9.3q-.4.2-1 .2l-1-.2-.8-.4q-.3 0-.5-.2l-.4-.6q0-.3-.2-.4l-.2-.1-.3-.1-.3-.2q-.8-.5-1.5-1.3L144 61l-.2-.4V60l-.2-.5q0-.2-.2-.3-.2-.3-.4-.3h-.3l-.2-.4v-.9l-.1-.9-.2-.9-.2-1v-2q0-.6.2-1.1l.2-1v-1.1l.1-1v-1l.2-1 .2-1 .5-1 .5-.9.6-.9.3-1q0-.4.5-.7l1-.5 1.1-.5 1.4-.4 1.2-.2h.9l1.7.1 1.6.6.8.3h1.4l.3-.4.2-.3q0-.2.2-.3h.6l.5.2.4.1.3.2.1.2.3.4.2.5.1.2q0 .5.2.9l.1.9-.1.9q-.2.4-.2 1v3.2l-.1 1v.4l-.2.4q0 .2-.2.3l-.2.1h-.8v-.2l-.1-.1q0-.2-.2-.2l-.3-.1h-.3l-.3-.2q-.2 0-.2-.3l.1-.2.2.1.3.1h.3q-.3-.2-.5-.6l-.4-.6-.4-.7-.4-.6-.4-.5-.3-.6-.3-.6q-.1-.3-.4-.5-.8-.7-1.8-1.1-1-.5-2.1-.5-.8 0-1.4.2-.7.2-1.3.6l-.5.3-.4.2-.4.4-.2.5-.1.6q0 .4-.2.7l-.3.2-.2.3-.2.9v1.9l-.2.9-.1.7v5l.4 1.6.4 1.1.5 1.1q0 .4.2.7l.5.6.6.5q.3.2.7.2h.5l.5-.1h2q.6-.2 1-.6l.6-.3.6-.2.7-.2q.3-.1.5-.4.2-.2.3-.7l.3-.8.4-.9.3-.4q.2-.1.2-.5v-1.7l.1-.7V54l.3-.4q.1-.2.3-.2.2 0 .3.2l.3.1h.4l.4-.2q.3 0 .5.2l.4.5.3.6.2.2q.2 0 .2.4v.4zM130 268h40v40h-40v-40zm150-50h40v40h-40v-40zm-50 0h40v40h-40v-40zm-100 0h40v40h-40v-40zm50-50h40v40h-40v-40zm-50-50h40v40h-40v-40z"/></svg>