<svg version="1.1" id="Layer_1" xmlns="http://www.w3.org/2000/svg" x="0" y="0" viewBox="0 0 348 348" xml:space="preserve"><style>.st0,.st1{fill:none;stroke:#000}.st0{stroke-width:2}.st1{stroke-miterlimit:10}</style><path class="st0" d="M5.1 5.8H342v337.7H5.1V5.8z"/><path class="st0" d="M282.7 40.6c0-8.4 7-15.2 15.6-15.2 4.1 0 8.1 1.6 11 4.4 2.9 2.8 4.6 6.7 4.6 10.7 0 8.4-7 15.2-15.6 15.2s-15.6-6.8-15.6-15.1z"/><path class="st1" d="M30.1 134.2h79.7v79.7H30.1zM237 134.2h79.7v79.7H237z"/><circle class="st1" cx="173.4" cy="180.2" r="7.9"/><path class="st1" d="M48.3 96l24.5-37.8L91.7 96zM255.1 96l24.5-37.8L298.5 96zM298.5 252L274 289.8 255.1 252zM91.7 252l-24.5 37.8L48.3 252z"/></svg>