<svg height="512" width="512" fill="none" xmlns="http://www.w3.org/2000/svg"><path style="fill:none;fill-rule:evenodd;stroke:#000;stroke-width:4;stroke-miterlimit:4;stroke-dasharray:none;fill-opacity:1" d="M18 18h476v476H18Z"/><circle r="22" style="fill:none;fill-rule:evenodd;stroke:#000;stroke-width:4;stroke-miterlimit:4;stroke-dasharray:none;fill-opacity:1" cx="448" cy="64"/><text xml:space="preserve" style="font-size:60.6126px;line-height:1;font-family:Oxanium;-inkscape-font-specification:Oxanium;text-align:center;letter-spacing:0;word-spacing:0;writing-mode:lr-tb;text-anchor:middle;fill:#000;fill-opacity:1;stroke-width:1.13649" x="112.906" y="-214.609"/><path style="fill:none;stroke:#000;stroke-width:3.841;stroke-miterlimit:4;stroke-dasharray:none" d="M41.92 426.275h43.804v43.804H41.92zM85.725 426.275h43.804v43.804H85.725zM129.529 426.275h43.804v43.804h-43.804zM173.333 426.275h43.804v43.804h-43.804zM217.137 426.275h43.804v43.804h-43.804zM260.942 426.275h43.804v43.804h-43.804zM304.746 426.275h43.804v43.804h-43.804zM348.55 426.275h43.804v43.804H348.55zM41.92 382.471h43.804v43.804H41.92zM85.725 382.471h43.804v43.804H85.725zM129.529 382.471h43.804v43.804h-43.804zM173.333 382.471h43.804v43.804h-43.804zM217.137 382.471h43.804v43.804h-43.804zM260.942 382.471h43.804v43.804h-43.804zM304.746 382.471h43.804v43.804h-43.804zM348.55 382.471h43.804v43.804H348.55zM41.92 338.667h43.804v43.804H41.92zM85.725 338.667h43.804v43.804H85.725zM129.529 338.667h43.804v43.804h-43.804zM173.333 338.667h43.804v43.804h-43.804zM217.137 338.667h43.804v43.804h-43.804zM260.942 338.667h43.804v43.804h-43.804zM304.746 338.667h43.804v43.804h-43.804zM348.55 338.667h43.804v43.804H348.55z"/><path style="fill:none;stroke:#000;stroke-width:3.841;stroke-miterlimit:4;stroke-dasharray:none" d="M41.92 294.864h43.804v43.804H41.92zM85.725 294.864h43.804v43.804H85.725zM129.529 294.864h43.804v43.804h-43.804zM173.333 294.864h43.804v43.804h-43.804zM217.137 294.864h43.804v43.804h-43.804zM260.942 294.864h43.804v43.804h-43.804zM304.746 294.864h43.804v43.804h-43.804zM348.55 294.864h43.804v43.804H348.55z"/><path style="fill:none;stroke:#000;stroke-width:3.841;stroke-miterlimit:4;stroke-dasharray:none" d="M41.92 294.864h43.804v43.804H41.92zM85.725 294.864h43.804v43.804H85.725zM129.529 294.864h43.804v43.804h-43.804zM173.333 294.864h43.804v43.804h-43.804zM217.137 294.864h43.804v43.804h-43.804zM260.942 294.864h43.804v43.804h-43.804zM304.746 294.864h43.804v43.804h-43.804zM348.55 294.864h43.804v43.804H348.55z"/><path style="fill:none;stroke:#000;stroke-width:3.841;stroke-miterlimit:4;stroke-dasharray:none" d="M41.92 251.06h43.804v43.804H41.92zM85.725 251.06h43.804v43.804H85.725zM129.529 251.06h43.804v43.804h-43.804zM173.333 251.06h43.804v43.804h-43.804zM217.137 251.06h43.804v43.804h-43.804zM260.942 251.06h43.804v43.804h-43.804zM304.746 251.06h43.804v43.804h-43.804zM348.55 251.06h43.804v43.804H348.55z"/><path style="fill:none;stroke:#000;stroke-width:3.841;stroke-miterlimit:4;stroke-dasharray:none" d="M41.92 207.257h43.804v43.804H41.92zM85.725 207.257h43.804v43.804H85.725zM129.529 207.257h43.804v43.804h-43.804zM173.333 207.257h43.804v43.804h-43.804zM217.137 207.257h43.804v43.804h-43.804zM260.942 207.257h43.804v43.804h-43.804zM304.746 207.257h43.804v43.804h-43.804zM348.55 207.257h43.804v43.804H348.55zM41.92 163.453h43.804v43.804H41.92zM85.725 163.453h43.804v43.804H85.725zM129.529 163.453h43.804v43.804h-43.804zM173.333 163.453h43.804v43.804h-43.804zM217.137 163.453h43.804v43.804h-43.804zM260.942 163.453h43.804v43.804h-43.804zM304.746 163.453h43.804v43.804h-43.804zM348.55 163.453h43.804v43.804H348.55zM41.92 119.649h43.804v43.804H41.92zM85.725 119.649h43.804v43.804H85.725zM129.529 119.649h43.804v43.804h-43.804zM173.333 119.649h43.804v43.804h-43.804zM217.137 119.649h43.804v43.804h-43.804zM260.942 119.649h43.804v43.804h-43.804zM304.746 119.649h43.804v43.804h-43.804zM348.55 119.649h43.804v43.804H348.55z"/><path style="fill:none;stroke:#000;stroke-width:4.01413;stroke-miterlimit:4;stroke-dasharray:none" d="M408.637 163.54h47.874v262.649h-47.874z"/><path style="fill:none;stroke:#000;stroke-width:4.04107;stroke-miterlimit:4;stroke-dasharray:none" d="M204.454 54.8H348.45v48.554H204.454zM42.021 54.8h143.996v48.554H42.021z"/><g aria-label="C" style="font-size:47.8567px;line-height:1.25;font-family:Antapani;-inkscape-font-specification:Antapani;fill:#000;stroke-width:1.19642"><path d="M98.776 79.316c0 9.38 7.13 16.989 16.51 16.989 5.983 0 11.104-3.11 13.975-7.8l-5.982-3.446c-1.675 2.68-4.594 4.45-7.992 4.45-5.504 0-9.524-4.498-9.524-10.193 0-5.982 4.02-10.672 9.524-10.672 3.206 0 5.934 1.58 7.657 4.115l5.6-4.067c-3.016-4.164-7.802-6.844-13.257-6.844-9.38 0-16.51 7.8-16.51 17.468z"/></g><g aria-label="?" style="font-size:47.8567px;line-height:1.25;font-family:Antapani;-inkscape-font-specification:Antapani;fill:#000;stroke-width:1.19642"><path d="M270.661 71.97c.957-1.436 3.302-3.159 6.03-3.11 2.345-.049 3.829 1.243 3.877 3.301-.048 2.967-2.585 3.59-5.169 3.59h-2.728v9.332h6.605V80.2c4.067-.24 8.183-1.962 8.183-8.183 0-5.982-4.068-10.194-10.816-10.194-5.072 0-9.475 2.297-11.198 5.79zm1.005 20.004a4.34 4.34 0 0 0 4.355 4.355c2.393 0 4.307-1.962 4.307-4.355 0-2.393-1.914-4.355-4.307-4.355a4.34 4.34 0 0 0-4.355 4.355z"/></g></svg>