<svg xmlns="http://www.w3.org/2000/svg" fill="none" stroke-linecap="square" stroke-miterlimit="10" viewBox="0 0 348 348"><path stroke="#000" stroke-linecap="butt" stroke-linejoin="round" stroke-width="2" d="M5.5 5.2h337v337.6H5.5z"/><path fill="#000" d="M134.3 15h74.3v57h-74.3z"/><path fill="#fff" d="M155 43.5c0-2.7.3-5 .8-6.6a8.7 8.7 0 0 1 2.5-3.8 6.4 6.4 0 0 1 4.2-1.3c1.2 0 2.3.2 3.2.7 1 .5 1.7 1.2 2.3 2.2.6.9 1 2 1.4 3.4.4 1.3.5 3.1.5 5.4a21 21 0 0 1-.8 6.5c-.5 1.6-1.4 3-2.5 3.8-1 1-2.5 1.4-4.1 1.4-2.2 0-4-.8-5.2-2.4-1.5-2-2.3-5-2.3-9.3zm2.9 0c0 3.7.4 6.2 1.3 7.5.9 1.2 2 1.9 3.3 1.9 1.3 0 2.3-.7 3.2-2 1-1.2 1.4-3.7 1.4-7.4 0-3.8-.5-6.3-1.4-7.5-.9-1.3-2-1.9-3.3-1.9-1.3 0-2.3.5-3 1.6-1 1.4-1.5 4-1.5 7.8zm14.9 0c0-2.7.3-5 .8-6.6a8.7 8.7 0 0 1 2.5-3.8 6.4 6.4 0 0 1 4.2-1.3c1.2 0 2.3.2 3.2.7 1 .5 1.7 1.2 2.3 2.2.6.9 1 2 1.4 3.4.4 1.3.5 3.1.5 5.4 0 2.7-.2 4.8-.8 6.5-.5 1.6-1.4 3-2.5 3.8-1 1-2.5 1.4-4.1 1.4-2.2 0-4-.8-5.2-2.4-1.5-2-2.3-5-2.3-9.3zm2.9 0c0 3.7.4 6.2 1.3 7.5.9 1.2 2 1.9 3.3 1.9 1.3 0 2.3-.7 3.2-2 .9-1.2 1.3-3.7 1.3-7.4 0-3.8-.4-6.3-1.3-7.5-.9-1.3-2-1.9-3.3-1.9-1.3 0-2.3.5-3 1.6-1 1.4-1.5 4-1.5 7.8z"/><path stroke="#000" stroke-linecap="butt" stroke-linejoin="round" stroke-width="2" d="M15.7 17h110v55h-110z"/><path d="M15.7 72l39.7-54"/><path stroke="#000" stroke-linecap="butt" stroke-linejoin="round" stroke-width="2" d="M15.7 72l39.7-54"/><path d="M38 72l39.7-54"/><path stroke="#000" stroke-linecap="butt" stroke-linejoin="round" stroke-width="2" d="M38 72l39.7-54"/><path d="M60.3 72L100 18"/><path stroke="#000" stroke-linecap="butt" stroke-linejoin="round" stroke-width="2" d="M60.3 72L100 18"/><path d="M82.6 72l39.7-54"/><path stroke="#000" stroke-linecap="butt" stroke-linejoin="round" stroke-width="2" d="M82.6 72l39.7-54m95-2h110v55h-110z"/><path d="M217.3 71L257 16.9"/><path stroke="#000" stroke-linecap="butt" stroke-linejoin="round" stroke-width="2" d="M217.3 71L257 16.9"/><path d="M239.6 71l39.7-54.1"/><path stroke="#000" stroke-linecap="butt" stroke-linejoin="round" stroke-width="2" d="M239.6 71l39.7-54.1"/><path d="M262 71l39.6-54.1"/><path stroke="#000" stroke-linecap="butt" stroke-linejoin="round" stroke-width="2" d="M262 71l39.6-54.1"/><path d="M284.2 71L324 16.9"/><path stroke="#000" stroke-linecap="butt" stroke-linejoin="round" stroke-width="2" d="M284.2 71L324 16.9"/><path stroke="#fff" stroke-width="3" d="M242.5 230.5h30m15 0h30"/><path fill="#fff" stroke="#000" stroke-width="2" stroke-miterlimit="4" d="M28.152 120.174h82.372v82.372H28.152zm100.619-.522h82.372v82.372h-82.372zm103.747 0h82.372v82.372h-82.372zM29.716 227.57h82.372v82.372H29.716zm100.619 1.043h82.372v82.372h-82.372zm99.577 1.042h82.372v82.372h-82.372z"/><text style="line-height:1.25;-inkscape-font-specification:Arial" x="46.921" y="191.598" font-weight="400" font-size="85.333" font-family="Arial" letter-spacing="0" word-spacing="0" fill="#000"><tspan x="46.921" y="191.598">0</tspan></text><text style="line-height:1.25;-inkscape-font-specification:Arial" x="147.542" y="192.027" font-weight="400" font-size="85.333" font-family="Arial" letter-spacing="0" word-spacing="0" fill="#000"><tspan x="147.542" y="192.027">0</tspan></text><text style="line-height:1.25;-inkscape-font-specification:Arial" x="249.203" y="190.463" font-weight="400" font-size="85.333" font-family="Arial" letter-spacing="0" word-spacing="0" fill="#000"><tspan x="249.203" y="190.463">0</tspan></text><text style="line-height:1.25;-inkscape-font-specification:Arial" x="46.923" y="298.902" font-weight="400" font-size="85.333" font-family="Arial" letter-spacing="0" word-spacing="0" fill="#000"><tspan x="46.923" y="298.902">0</tspan></text><text style="line-height:1.25;-inkscape-font-specification:Arial" x="147.542" y="299.423" font-weight="400" font-size="85.333" font-family="Arial" letter-spacing="0" word-spacing="0" fill="#000"><tspan x="147.542" y="299.423">0</tspan></text><text style="line-height:1.25;-inkscape-font-specification:Arial" x="248.682" y="301.509" font-weight="400" font-size="85.333" font-family="Arial" letter-spacing="0" word-spacing="0" fill="#000"><tspan x="248.682" y="301.509">0</tspan></text></svg>