<svg xmlns="http://www.w3.org/2000/svg" viewBox="0 0 348 348" fill="none"><path d="M5.079 5.776h336.913v337.67H5.08z" stroke-width="2" stroke="#000"/><path d="M282.734 40.554c0-8.376 6.966-15.165 15.56-15.165 4.126 0 8.084 1.597 11.001 4.441 2.918 2.844 4.558 6.702 4.558 10.724 0 8.376-6.966 15.165-15.56 15.165-8.593 0-15.559-6.79-15.559-15.165z" stroke-width="2" stroke="#000"/><path fill="#000" stroke="#000" stroke-width="2" d="M20.767 145.996h303.949v36.499H20.767z"/><path d="M20.479 42.793l20.914-15.13 20.914 15.13V84.62H18.699V42.793h.89z" stroke="#000"/><path d="M47.166 51.099l2.188-10.39h3.75l-2.136 10.39h4.844v3.698h-5.651l-1.875 9.062h7.526v3.776h-8.255l-2.188 10.287h-3.802l2.136-10.287H33.364l-2.135 10.287h-3.855l2.136-10.287h-4.792V63.86h5.6l1.874-9.062h-7.474V51.1h8.203l2.188-10.39h3.854L36.828 51.1zm-.781 3.698H36.02l-1.927 9.062H44.51z" style="line-height:1.25;-inkscape-font-specification:'Gill Sans Nova'" font-weight="400" font-size="53.333" font-family="Gill Sans Nova" letter-spacing="0" word-spacing="0" fill="#000"/><path d="M55.637 96.19L76.55 81.06l20.914 15.13v41.828H53.857V96.19h.89z" stroke="#000"/><path style="line-height:1.25;-inkscape-font-specification:'Gill Sans Nova'" d="M82.324 104.496l2.188-10.39h3.75l-2.136 10.39h4.844v3.698h-5.65l-1.875 9.063h7.526v3.776h-8.255l-2.188 10.286h-3.802l2.136-10.286h-10.34l-2.135 10.286h-3.854l2.135-10.286h-4.792v-3.776h5.6l1.874-9.063h-7.474v-3.698h8.203l2.188-10.39h3.854l-2.135 10.39zm-.781 3.698H71.178l-1.927 9.063h10.417z" font-weight="400" font-size="53.333" font-family="Gill Sans Nova" letter-spacing="0" word-spacing="0" fill="#000"/><path d="M91.675 41.903l20.914-15.13 20.914 15.13V83.73H89.895V41.903h.89z" stroke="#000"/><path style="line-height:1.25;-inkscape-font-specification:'Gill Sans Nova'" d="M118.363 50.209l2.187-10.39h3.75l-2.135 10.39h4.844v3.698h-5.652l-1.875 9.062h7.527v3.776h-8.256l-2.187 10.287h-3.802l2.135-10.287h-10.338l-2.136 10.287h-3.854l2.135-10.287h-4.791V62.97h5.599l1.875-9.062h-7.474V50.21h8.203l2.187-10.39h3.855l-2.136 10.39zm-.782 3.698h-10.364l-1.927 9.062h10.416z" font-weight="400" font-size="53.333" font-family="Gill Sans Nova" letter-spacing="0" word-spacing="0" fill="#000"/><path d="M126.833 95.3l20.914-15.129 20.914 15.13v41.827h-43.608V95.3h.89z" stroke="#000"/><path d="M153.52 103.606l2.188-10.39h3.75l-2.135 10.39h4.844v3.698h-5.651l-1.875 9.063h7.526v3.776h-8.256l-2.187 10.286h-3.802l2.135-10.286H139.72l-2.136 10.286h-3.854l2.136-10.286h-4.792v-3.776h5.599l1.875-9.063h-7.474v-3.698h8.203l2.188-10.39h3.854l-2.136 10.39zm-.78 3.698h-10.365l-1.927 9.063h10.417z" style="line-height:1.25;-inkscape-font-specification:'Gill Sans Nova'" font-weight="400" font-size="53.333" font-family="Gill Sans Nova" letter-spacing="0" word-spacing="0" fill="#000"/><path d="M163.71 41.444l20.913-15.13 20.914 15.13v41.828H161.93V41.444h.89z" stroke="#000"/><path style="line-height:1.25;-inkscape-font-specification:'Gill Sans Nova'" d="M190.397 49.75l2.187-10.39h3.75L194.2 49.75h4.844v3.698h-5.651l-1.875 9.062h7.526v3.777h-8.255L188.6 76.573h-3.802l2.135-10.286h-10.338l-2.136 10.286h-3.854l2.136-10.286h-4.792V62.51h5.599l1.875-9.062h-7.474V49.75h8.203l2.188-10.39h3.854l-2.136 10.39zm-.781 3.698H179.25l-1.927 9.062h10.417z" font-weight="400" font-size="53.333" font-family="Gill Sans Nova" letter-spacing="0" word-spacing="0" fill="#000"/><path d="M198.868 94.841l20.914-15.129 20.914 15.13v41.827h-43.608V94.841h.89z" stroke="#000"/><path d="M225.555 103.147l2.188-10.39h3.75l-2.136 10.39h4.844v3.698h-5.651l-1.875 9.063h7.526v3.776h-8.255l-2.188 10.286h-3.802l2.136-10.286h-10.339l-2.135 10.286h-3.855l2.136-10.286h-4.792v-3.776h5.6l1.874-9.063h-7.474v-3.698h8.203l2.188-10.39h3.854l-2.135 10.39zm-.781 3.698h-10.365l-1.927 9.063H222.9z" style="line-height:1.25;-inkscape-font-specification:'Gill Sans Nova'" font-weight="400" font-size="53.333" font-family="Gill Sans Nova" letter-spacing="0" word-spacing="0" fill="#000"/><path d="M234.906 40.554l20.914-15.13 20.914 15.13v41.828h-43.608V40.554h.89z" stroke="#000"/><path d="M261.594 48.86l2.187-10.39h3.75l-2.135 10.39h4.843v3.698h-5.65l-1.876 9.063h7.526v3.776h-8.255l-2.187 10.286h-3.802l2.135-10.286h-10.339l-2.135 10.286h-3.854l2.135-10.286h-4.791V61.62h5.599l1.875-9.063h-7.474V48.86h8.203l2.187-10.39h3.854l-2.135 10.39zm-.782 3.698h-10.364l-1.927 9.063h10.416z" style="line-height:1.25;-inkscape-font-specification:'Gill Sans Nova'" font-weight="400" font-size="53.333" font-family="Gill Sans Nova" letter-spacing="0" word-spacing="0" fill="#000"/><path d="M270.064 93.951l20.914-15.129 20.914 15.13v41.827h-43.608V93.951h.89z" stroke="#000"/><path style="line-height:1.25;-inkscape-font-specification:'Gill Sans Nova'" d="M296.752 102.258l2.187-10.391h3.75l-2.135 10.39h4.843v3.698h-5.65l-1.876 9.063h7.526v3.776h-8.255l-2.187 10.286h-3.802l2.135-10.286H282.95l-2.136 10.286h-3.854l2.135-10.286h-4.791v-3.776h5.599l1.875-9.063h-7.474v-3.697h8.203l2.187-10.391h3.855l-2.136 10.39zm-.782 3.697h-10.364l-1.927 9.063h10.416z" font-weight="400" font-size="53.333" font-family="Gill Sans Nova" letter-spacing="0" word-spacing="0" fill="#000"/><path stroke="#000" stroke-width="4.266" d="M24.544 203.07h24.677v24.677H24.544z"/><path d="M30.17 211.45h3.42l.934-4.255h2.1l-.934 4.254h3.944l.911-4.254h2.1l-.911 4.254h1.888v2.111h-2.288l-.7 3.355h2.988v2.1h-3.388l-.911 4.221h-2.11l.921-4.221h-3.988l-.866 4.221h-2.122l.9-4.221h-1.889v-2.1h2.322l.7-3.355h-3.022zm5.12 2.11l-.7 3.344h3.955l.69-3.344z" aria-label="#" font-weight="400" font-size="21.333" font-family="Impact" letter-spacing="0" word-spacing="0" fill="#000"/><path stroke="#000" stroke-width="4.266" d="M54.289 203.07h24.677v24.677H54.289z"/><path d="M59.914 211.45h3.421l.933-4.255h2.1l-.933 4.254h3.943l.911-4.254h2.1l-.911 4.254h1.889v2.111h-2.289l-.7 3.355h2.989v2.1h-3.389l-.91 4.221h-2.111l.922-4.221H63.89l-.867 4.221h-2.122l.9-4.221h-1.888v-2.1h2.321l.7-3.355h-3.021zm5.12 2.11l-.7 3.344h3.956l.688-3.344z" aria-label="#" font-weight="400" font-size="21.333" font-family="Impact" letter-spacing="0" word-spacing="0" fill="#000"/><path stroke="#000" stroke-width="4.266" d="M84.024 203.266H108.7v24.677H84.024z"/><path d="M89.649 211.645h3.421l.933-4.254h2.1l-.933 4.254h3.944l.91-4.254h2.1l-.91 4.254h1.888v2.111h-2.289l-.7 3.355h2.989v2.1h-3.389l-.91 4.221h-2.111l.922-4.221h-3.988l-.867 4.221h-2.122l.9-4.221H89.65v-2.1h2.321l.7-3.355H89.65zm5.12 2.111l-.699 3.344h3.955l.689-3.344z" aria-label="#" font-weight="400" font-size="21.333" font-family="Impact" letter-spacing="0" word-spacing="0" fill="#000"/><path stroke="#000" stroke-width="4.266" d="M113.768 203.266h24.677v24.677h-24.677z"/><path d="M119.393 211.645h3.422l.933-4.254h2.1l-.934 4.254h3.944l.91-4.254h2.1l-.91 4.254h1.888v2.111h-2.288l-.7 3.355h2.988v2.1h-3.388l-.911 4.221h-2.11l.921-4.221h-3.988l-.866 4.221h-2.122l.9-4.221h-1.889v-2.1h2.322l.7-3.355h-3.022zm5.121 2.111l-.7 3.344h3.955l.689-3.344z" aria-label="#" font-weight="400" font-size="21.333" font-family="Impact" letter-spacing="0" word-spacing="0" fill="#000"/><path stroke="#000" stroke-width="4.266" d="M143.792 203.266h24.677v24.677h-24.677z"/><path d="M149.417 211.645h3.421l.933-4.254h2.1l-.933 4.254h3.944l.91-4.254h2.1l-.91 4.254h1.888v2.111h-2.289l-.7 3.355h2.989v2.1h-3.388l-.911 4.221h-2.111l.922-4.221h-3.988l-.867 4.221h-2.122l.9-4.221h-1.888v-2.1h2.322l.7-3.355h-3.022zm5.121 2.111l-.7 3.344h3.955l.689-3.344z" aria-label="#" font-weight="400" font-size="21.333" font-family="Impact" letter-spacing="0" word-spacing="0" fill="#000"/><path stroke="#000" stroke-width="4.266" d="M173.47 203.266h24.676v24.677H173.47z"/><path d="M179.094 211.645h3.422l.933-4.254h2.1l-.934 4.254h3.944l.91-4.254h2.1l-.91 4.254h1.888v2.111h-2.288l-.7 3.355h2.988v2.1h-3.388l-.911 4.221h-2.11l.921-4.221h-3.988l-.866 4.221h-2.122l.9-4.221h-1.889v-2.1h2.322l.7-3.355h-3.022zm5.121 2.111l-.7 3.344h3.955l.69-3.344z" aria-label="#" font-weight="400" font-size="21.333" font-family="Impact" letter-spacing="0" word-spacing="0" fill="#000"/><path stroke="#000" stroke-width="4.266" d="M203.214 203.266h24.677v24.677h-24.677z"/><path d="M208.838 211.645h3.422l.933-4.254h2.1l-.933 4.254h3.943l.911-4.254h2.1l-.911 4.254h1.889v2.111h-2.289l-.7 3.355h2.989v2.1h-3.389l-.91 4.221h-2.111l.922-4.221h-3.988l-.867 4.221h-2.122l.9-4.221h-1.889v-2.1h2.322l.7-3.355h-3.022zm5.122 2.111l-.7 3.344h3.955l.688-3.344z" aria-label="#" font-weight="400" font-size="21.333" font-family="Impact" letter-spacing="0" word-spacing="0" fill="#000"/><path stroke="#000" stroke-width="4.266" d="M232.949 203.462h24.677v24.677h-24.677z"/><path d="M238.574 211.842h3.421l.933-4.255h2.1l-.933 4.255h3.944l.91-4.255h2.1l-.91 4.255h1.888v2.11h-2.289l-.7 3.355h2.989v2.1h-3.389l-.91 4.221h-2.111l.922-4.221h-3.988l-.867 4.221h-2.122l.9-4.221h-1.888v-2.1h2.321l.7-3.355h-3.021zm5.12 2.11l-.699 3.344h3.955l.689-3.344z" aria-label="#" font-weight="400" font-size="21.333" font-family="Impact" letter-spacing="0" word-spacing="0" fill="#000"/><path stroke="#000" stroke-width="4.266" d="M262.693 203.462h24.677v24.677h-24.677z"/><path d="M268.318 211.842h3.422l.933-4.255h2.1l-.934 4.255h3.944l.91-4.255h2.1l-.91 4.255h1.888v2.11h-2.288l-.7 3.355h2.988v2.1h-3.388l-.911 4.221h-2.11l.921-4.221h-3.988l-.866 4.221h-2.122l.9-4.221h-1.889v-2.1h2.322l.7-3.355h-3.022zm5.121 2.11l-.7 3.344h3.955l.689-3.344z" aria-label="#" font-weight="400" font-size="21.333" font-family="Impact" letter-spacing="0" word-spacing="0" fill="#000"/><path stroke="#000" stroke-width="4.266" d="M292.717 203.462h24.677v24.677h-24.677z"/><path d="M298.342 211.842h3.421l.933-4.255h2.1l-.933 4.255h3.944l.91-4.255h2.1l-.91 4.255h1.888v2.11h-2.289l-.7 3.355h2.989v2.1h-3.388l-.911 4.221h-2.111l.922-4.221h-3.988l-.867 4.221h-2.122l.9-4.221h-1.888v-2.1h2.322l.7-3.355h-3.022zm5.121 2.11l-.7 3.344h3.955l.689-3.344z" aria-label="#" font-weight="400" font-size="21.333" font-family="Impact" letter-spacing="0" word-spacing="0" fill="#000"/><path stroke="#000" stroke-width="4.266" d="M37.894 233.328H62.57v24.677H37.894z"/><path d="M43.518 241.708h3.422l.933-4.255h2.1l-.933 4.255h3.943l.911-4.255h2.1l-.911 4.255h1.889v2.11h-2.289l-.7 3.355h2.989v2.1h-3.389l-.91 4.222h-2.111l.922-4.222h-3.988l-.867 4.222h-2.122l.9-4.222h-1.889v-2.1h2.322l.7-3.354h-3.022zm5.122 2.11l-.7 3.344h3.955l.688-3.343z" aria-label="#" font-weight="400" font-size="21.333" font-family="Impact" letter-spacing="0" word-spacing="0" fill="#000"/><path stroke="#000" stroke-width="4.266" d="M67.638 233.328h24.677v24.677H67.638z"/><path d="M73.263 241.708h3.421l.934-4.255h2.1l-.934 4.255h3.944l.91-4.255h2.1l-.91 4.255h1.888v2.11h-2.289l-.7 3.355h2.989v2.1h-3.388l-.911 4.222h-2.111l.922-4.222H77.24l-.867 4.222h-2.121l.9-4.222h-1.89v-2.1h2.323l.7-3.354h-3.022zm5.121 2.11l-.7 3.344h3.955l.689-3.343z" aria-label="#" font-weight="400" font-size="21.333" font-family="Impact" letter-spacing="0" word-spacing="0" fill="#000"/><path stroke="#000" stroke-width="4.266" d="M97.373 233.524h24.677v24.677H97.373z"/><path d="M102.998 241.904h3.422l.933-4.255h2.1l-.934 4.255h3.944l.91-4.255h2.1l-.91 4.255h1.888v2.11h-2.288l-.7 3.356h2.988v2.1h-3.388l-.911 4.22h-2.11l.921-4.22h-3.988l-.866 4.22h-2.122l.9-4.22h-1.889v-2.1h2.322l.7-3.355h-3.022zm5.121 2.11l-.7 3.344h3.955l.689-3.343z" aria-label="#" font-weight="400" font-size="21.333" font-family="Impact" letter-spacing="0" word-spacing="0" fill="#000"/><path stroke="#000" stroke-width="4.266" d="M127.118 233.524h24.677v24.677h-24.677z"/><path d="M132.742 241.904h3.422l.933-4.255h2.1l-.933 4.255h3.943l.911-4.255h2.1l-.911 4.255h1.888v2.11h-2.288l-.7 3.356h2.988v2.1h-3.388l-.91 4.22h-2.111l.922-4.22h-3.989l-.866 4.22h-2.122l.9-4.22h-1.889v-2.1h2.322l.7-3.355h-3.022zm5.122 2.11l-.7 3.344h3.955l.688-3.343z" aria-label="#" font-weight="400" font-size="21.333" font-family="Impact" letter-spacing="0" word-spacing="0" fill="#000"/><path stroke="#000" stroke-width="4.266" d="M157.141 233.524h24.677v24.677h-24.677z"/><path d="M162.766 241.904h3.422l.933-4.255h2.1l-.934 4.255h3.944l.91-4.255h2.1l-.91 4.255h1.888v2.11h-2.288l-.7 3.356h2.988v2.1h-3.388l-.911 4.22h-2.11l.921-4.22h-3.988l-.866 4.22h-2.122l.9-4.22h-1.889v-2.1h2.322l.7-3.355h-3.022zm5.121 2.11l-.7 3.344h3.955l.69-3.343z" aria-label="#" font-weight="400" font-size="21.333" font-family="Impact" letter-spacing="0" word-spacing="0" fill="#000"/><path stroke="#000" stroke-width="4.266" d="M186.819 233.524h24.677v24.677h-24.677z"/><path d="M192.443 241.904h3.422l.933-4.255h2.1l-.933 4.255h3.943l.911-4.255h2.1l-.911 4.255h1.889v2.11h-2.289l-.7 3.356h2.989v2.1h-3.389l-.91 4.22h-2.111l.922-4.22h-3.989l-.866 4.22h-2.122l.9-4.22h-1.889v-2.1h2.322l.7-3.355h-3.022zm5.122 2.11l-.7 3.344h3.955l.688-3.343z" aria-label="#" font-weight="400" font-size="21.333" font-family="Impact" letter-spacing="0" word-spacing="0" fill="#000"/><path stroke="#000" stroke-width="4.266" d="M216.563 233.524h24.677v24.677h-24.677z"/><path d="M222.188 241.904h3.421l.934-4.255h2.1l-.934 4.255h3.944l.91-4.255h2.1l-.91 4.255h1.888v2.11h-2.289l-.7 3.356h2.989v2.1h-3.388l-.911 4.22h-2.111l.922-4.22h-3.988l-.867 4.22h-2.121l.9-4.22h-1.89v-2.1h2.323l.7-3.355h-3.022zm5.121 2.11l-.7 3.344h3.955l.689-3.343z" aria-label="#" font-weight="400" font-size="21.333" font-family="Impact" letter-spacing="0" word-spacing="0" fill="#000"/><path stroke="#000" stroke-width="4.266" d="M246.298 233.72h24.677v24.677h-24.677z"/><path d="M251.923 242.1h3.422l.933-4.255h2.1l-.934 4.255h3.944l.91-4.255h2.1l-.91 4.255h1.888v2.11h-2.288l-.7 3.356h2.988v2.1h-3.388l-.911 4.22h-2.11l.921-4.22H255.9l-.866 4.22h-2.122l.9-4.22h-1.889v-2.1h2.322l.7-3.355h-3.022zm5.121 2.11l-.7 3.345h3.955l.689-3.344z" aria-label="#" font-weight="400" font-size="21.333" font-family="Impact" letter-spacing="0" word-spacing="0" fill="#000"/><path stroke="#000" stroke-width="4.266" d="M276.043 233.72h24.677v24.677h-24.677z"/><path d="M281.667 242.1h3.422l.933-4.255h2.1l-.933 4.255h3.943l.911-4.255h2.1l-.911 4.255h1.888v2.11h-2.288l-.7 3.356h2.988v2.1h-3.388l-.91 4.22h-2.111l.922-4.22h-3.989l-.866 4.22h-2.122l.9-4.22h-1.889v-2.1h2.322l.7-3.355h-3.022zm5.122 2.11l-.7 3.345h3.955l.688-3.344z" aria-label="#" font-weight="400" font-size="21.333" font-family="Impact" letter-spacing="0" word-spacing="0" fill="#000"/><path stroke="#000" stroke-width="4.266" d="M53.693 263.877H78.37v24.677H53.693z"/><path d="M59.318 272.256h3.421l.933-4.254h2.1l-.933 4.254h3.944l.91-4.254h2.1l-.91 4.254h1.888v2.111h-2.289l-.7 3.355h2.989v2.1h-3.389l-.91 4.221H66.36l.922-4.221h-3.988l-.867 4.221h-2.122l.9-4.221h-1.888v-2.1h2.321l.7-3.355h-3.021zm5.12 2.111l-.699 3.344h3.955l.689-3.344z" aria-label="#" font-weight="400" font-size="21.333" font-family="Impact" letter-spacing="0" word-spacing="0" fill="#000"/><g><path stroke="#000" stroke-width="4.266" d="M83.437 263.877h24.677v24.677H83.437z"/><path d="M89.062 272.256h3.422l.933-4.254h2.1l-.934 4.254h3.944l.91-4.254h2.1l-.91 4.254h1.888v2.111h-2.288l-.7 3.355h2.988v2.1h-3.388l-.911 4.221h-2.11l.921-4.221H93.04l-.866 4.221H90.05l.9-4.221h-1.889v-2.1h2.322l.7-3.355h-3.022zm5.121 2.111l-.7 3.344h3.955l.689-3.344z" aria-label="#" font-weight="400" font-size="21.333" font-family="Impact" letter-spacing="0" word-spacing="0" fill="#000"/></g><g><path stroke="#000" stroke-width="4.266" d="M113.172 264.073h24.677v24.677h-24.677z"/><path d="M118.797 272.452h3.422l.933-4.254h2.1l-.934 4.254h3.944l.911-4.254h2.1l-.911 4.254h1.888v2.111h-2.288l-.7 3.355h2.988v2.1h-3.388l-.911 4.221h-2.11l.921-4.221h-3.988l-.866 4.221h-2.122l.9-4.221h-1.889v-2.1h2.322l.7-3.355h-3.022zm5.121 2.111l-.7 3.344h3.955l.69-3.344z" aria-label="#" font-weight="400" font-size="21.333" font-family="Impact" letter-spacing="0" word-spacing="0" fill="#000"/></g><g><path stroke="#000" stroke-width="4.266" d="M142.917 264.073h24.677v24.677h-24.677z"/><path d="M148.542 272.452h3.421l.933-4.254h2.1l-.933 4.254h3.943l.911-4.254h2.1l-.91 4.254h1.888v2.111h-2.289l-.7 3.355h2.989v2.1h-3.389l-.91 4.221h-2.111l.922-4.221h-3.988l-.867 4.221h-2.122l.9-4.221h-1.888v-2.1h2.321l.7-3.355h-3.021zm5.12 2.111l-.699 3.344h3.955l.689-3.344z" aria-label="#" font-weight="400" font-size="21.333" font-family="Impact" letter-spacing="0" word-spacing="0" fill="#000"/></g><g><path stroke="#000" stroke-width="4.266" d="M172.94 264.073h24.678v24.677H172.94z"/><path d="M178.565 272.452h3.422l.933-4.254h2.1l-.934 4.254h3.944l.911-4.254h2.1l-.911 4.254h1.888v2.111h-2.288l-.7 3.355h2.988v2.1h-3.388l-.91 4.221h-2.112l.922-4.221h-3.988l-.866 4.221h-2.122l.9-4.221h-1.889v-2.1h2.322l.7-3.355h-3.022zm5.122 2.111l-.7 3.344h3.954l.69-3.344z" aria-label="#" font-weight="400" font-size="21.333" font-family="Impact" letter-spacing="0" word-spacing="0" fill="#000"/></g><g><path stroke="#000" stroke-width="4.266" d="M202.618 264.073h24.677v24.677h-24.677z"/><path d="M208.243 272.452h3.421l.933-4.254h2.1l-.933 4.254h3.944l.91-4.254h2.1l-.91 4.254h1.888v2.111h-2.289l-.7 3.355h2.989v2.1h-3.389l-.91 4.221h-2.111l.922-4.221h-3.988l-.867 4.221h-2.122l.9-4.221h-1.888v-2.1h2.321l.7-3.355h-3.021zm5.12 2.111l-.699 3.344h3.955l.689-3.344z" aria-label="#" font-weight="400" font-size="21.333" font-family="Impact" letter-spacing="0" word-spacing="0" fill="#000"/></g><g><path stroke="#000" stroke-width="4.266" d="M232.362 264.073h24.677v24.677h-24.677z"/><path d="M237.987 272.452h3.422l.933-4.254h2.1l-.934 4.254h3.944l.91-4.254h2.1l-.91 4.254h1.888v2.111h-2.288l-.7 3.355h2.988v2.1h-3.388l-.911 4.221h-2.11l.921-4.221h-3.988l-.866 4.221h-2.122l.9-4.221h-1.889v-2.1h2.322l.7-3.355h-3.022zm5.121 2.111l-.7 3.344h3.955l.689-3.344z" aria-label="#" font-weight="400" font-size="21.333" font-family="Impact" letter-spacing="0" word-spacing="0" fill="#000"/></g><g><path fill="gray" stroke="#000" stroke-width="4.266" d="M262.097 264.269h24.677v24.677h-24.677z"/><path d="M284.157 286.552h-4.22l-5.644-7.639-5.68 7.639h-3.9l7.764-9.918-7.692-9.97h4.22l5.609 7.513 5.626-7.514h3.917l-7.816 9.793z" aria-label="x" font-weight="400" font-size="45.107" font-family="Gill Sans Nova" letter-spacing="0" word-spacing="0" fill="#000" stroke-width="2.114"/></g><path d="M42.718 280.363v55.178l-28.479-28.479zm254.298 53.617v-55.177l28.479 28.48z" stroke="#000" stroke-width="3"/></svg>