<svg xmlns="http://www.w3.org/2000/svg" viewBox="0 0 348 348" fill="none"><defs><radialGradient id="b" gradientUnits="userSpaceOnUse" cy="695.85" cx="404.2" gradientTransform="matrix(.2947 .25819 -.94651 1.0803 860.76 -235.49)" r="39.25"><stop style="stop-color:#e9ffd3" offset="0"/><stop style="stop-color:#e9ffd3;stop-opacity:0" offset="1"/></radialGradient><linearGradient id="a" y2="690.36" gradientUnits="userSpaceOnUse" x2="357" gradientTransform="matrix(.60638 0 0 .73487 -8.993 -365.441)" y1="1192.9" x1="268"><stop style="stop-color:#6dae54" offset="0"/><stop style="stop-color:#6dae54;stop-opacity:0" offset="1"/></linearGradient></defs><path d="M5.079 5.776h336.913v337.67H5.08z" stroke-width="2" stroke="#000"/><path d="M282.734 40.554c0-8.376 6.966-15.165 15.56-15.165 4.126 0 8.084 1.597 11.001 4.441 2.918 2.844 4.558 6.702 4.558 10.724 0 8.376-6.966 15.165-15.56 15.165-8.593 0-15.559-6.79-15.559-15.165z" stroke-width="2" stroke="#000"/><path d="M79.534 297.682c21.509 3.583 39.582-1.546 57.91-9.553 32.923-14.386 62.415-39.851 89.133-67.244 15.853-16.252 33.297-33.333 41.232-56.588 6.346-18.597 12.228-43.505 3.032-60.262-7.47-13.61-24.79-17.92-38.2-16.168-16.51 2.158-29.209 19.452-42.446 31.6-14.254 13.083-25.164 31.006-39.414 44.095-17.211 15.81-38.36 24.734-55.18 41.154-14.528 14.183-30.808 28.546-38.808 48.87-3.325 8.447-3.36 20.857-3.032 23.148 1.684 11.779 16.199 19.35 25.77 20.945z" style="fill:#1e7908;fill-rule:evenodd;stroke:#000;stroke-width:.66754806px" transform="matrix(-1 0 0 1 338.152 -18.558)"/><path d="M193.832 153.662c7.564-9.47 17.888-33.07 17.888-33.07l9.701 13.228s-67.935 84.975-106.72 120.524c-15.551 14.254-22.424 34.746-50.023 36.745-6.759.489-3.675-18.139 0-24.62 7.945-14.01 22.652-21.614 34.26-31.967 31.141-27.773 68.003-47.173 94.897-80.84z" style="fill:url(#a);fill-rule:evenodd;stroke-width:.45245224" transform="matrix(-1 0 0 1 338.152 -18.558)"/><path d="M64.982 287.773s4.187-8.768 6.973-12.493c21.787-29.128 49.63-50.652 74.885-75.328 15.188-14.84 31.027-28.692 46.082-43.727 4.645-4.638 13.644-14.33 13.644-14.33s-34.261 32.338-51.842 47.77c-16.303 14.305-33.38 27.28-49.72 41.521-5.744 5.006-11.778 9.62-16.979 15.433-8.631 9.647-18.05 19.267-23.344 31.968-1.305 3.13-1.82 10.288-1.82 10.288z" style="fill:#6dae2c;fill-rule:evenodd;stroke-width:.45245224" transform="matrix(-1 0 0 1 338.152 -18.558)"/><path d="M61.938 285.461s-.696-14.101 1.354-20.485c6.476-20.163 20.326-35.87 32.936-51.186 8.524-10.353 18.702-18.518 28.5-27.056 6.519-5.68 20.116-16.052 20.116-16.052s-29.898 20.966-43.394 33.91c-9.133 8.76-17.715 18.523-25.174 29.363-5.596 8.132-11.335 16.598-14.49 26.474-1.936 6.061-2.695 12.78-2.451 19.273.085 2.274 1.36 6.625 1.36 6.625zM64.982 288.86s27.805-13.741 41.535-20.945c6.116-3.209 12.24-6.417 18.191-9.921 6.702-3.946 13.205-8.224 19.707-12.493 12.564-8.251 25.613-15.89 37.29-25.354 8.381-6.792 23.345-22.414 23.345-22.414l5.154-6.246s-11.81 11.551-18.284 16.654c-17.887 14.096-37.122 26.456-56.543 38.353-5.261 3.223-11.079 5.509-16.215 8.928-4.59 3.055-8.278 7.362-12.95 10.288-10.547 6.607-23.355 9.181-33.654 16.168-2.842 1.928-7.58 6.981-7.58 6.981zM65.891 291.438s22.613 1.623 33.653-.367c15.646-2.821 30.55-9.263 44.87-16.168 11.98-5.775 33.957-20.944 33.957-20.944s-22.271 13.887-34.26 19.107c-14.606 6.36-29.783 11.96-45.476 14.698-7.37 1.285-14.965.3-22.435.735-2.936.17-8.792.735-8.792.735zM188.072 172.77s10.03-8.484 14.553-13.229c3.725-3.908 10.308-12.493 10.308-12.493s-8.426 8.15-12.733 12.126c-4.185 3.862-8.185 7.51-12.734 11.39-.58.495.607 2.205.607 2.205z" style="fill:#6dae2c;fill-rule:evenodd;stroke-width:.45245224" transform="matrix(-1 0 0 1 338.152 -18.558)"/><path transform="matrix(-.60638 0 0 .73487 289.239 -343.21)" d="m292 662.86 36-20.5 31-54-11.5-16s-10.456 8.525-15.5 13c-13.847 12.286-30.065 22.71-40.5 38-5.565 8.155-11 27.5-11 27.5v13z" style="fill:url(#b);fill-rule:evenodd;filter:url(#filter4227)"/></svg>