<svg xmlns="http://www.w3.org/2000/svg" fill="none" stroke-linecap="square" stroke-miterlimit="10" viewBox="0 0 348 348"><clipPath id="a"><path d="M0 0h348v348H0V0z"/></clipPath><g clip-path="url(#a)"><path d="M0 0h348v348H0z"/><path fill="#fff" d="M-6 0h348v347.969H-6z"/><path d="M5.079 5.776h336.913v337.67H5.08z"/><path stroke="#000" stroke-linecap="butt" stroke-linejoin="round" stroke-width="2" d="M5.079 5.776h336.913v337.67H5.08z"/><path fill="#fff" d="M282.734 40.554c0-8.376 6.966-15.165 15.56-15.165 4.126 0 8.084 1.597 11.001 4.441 2.918 2.844 4.558 6.702 4.558 10.724 0 8.376-6.966 15.165-15.56 15.165-8.593 0-15.559-6.79-15.559-15.165z"/><path stroke="#000" stroke-linecap="butt" stroke-linejoin="round" stroke-width="2" d="M282.734 40.554c0-8.376 6.966-15.165 15.56-15.165 4.126 0 8.084 1.597 11.001 4.441 2.918 2.844 4.558 6.702 4.558 10.724 0 8.376-6.966 15.165-15.56 15.165-8.593 0-15.559-6.79-15.559-15.165z"/></g><path stroke="#000" stroke-width="1.256" d="M15 158h320v175H15z"/><path stroke="#000" stroke-linecap="butt" stroke-width=".6" d="M15 193h320M15 228h320M15 263h320M15 298h320M70 158v175M125 158v175M180 158v175M235 158v175"/><path stroke="#000" stroke-linecap="butt" stroke-width=".601" d="M285 158v175"/><path stroke="#000" stroke-width="2" d="M15 88h60v60H15zM80 88h60v60H80zM145 88h60v60h-60zM210 88h60v60h-60zM275 88h60v60h-60zM15 18h255v55H15z"/><path fill="#000" fill-opacity=".542" d="M70 193h110v35H70zM125 228h110v35H125zM15 263h110v35H15zM235 158h100v35H235zM180 263h55v35h-55zM15 193h55v35H15zM70 158h55v35H70zM125 298h55v35h-55zM235 298h50v35h-50z"/></svg>