<svg xmlns="http://www.w3.org/2000/svg" viewBox="0 0 348 348" fill="none"><defs><path d="M111.769 81.064h97.849v112.179h-97.849z" id="a"/></defs><path d="M5.079 5.776h336.913v337.67H5.08z" stroke-width="2" stroke="#000"/><path d="M282.734 40.554c0-8.376 6.966-15.165 15.56-15.165 4.126 0 8.084 1.597 11.001 4.441 2.918 2.844 4.558 6.702 4.558 10.724 0 8.376-6.966 15.165-15.56 15.165-8.593 0-15.559-6.79-15.559-15.165z" stroke-width="2" stroke="#000"/><g style="line-height:1"><path word-spacing="1" letter-spacing="1" font-size="64" aria-label="s" stroke="#000" fill="#000" font-family="D-FONT" font-weight="400" d="M 142.475,110.95 V 98.17 h 64 v 12.78 z m 0,-25.593 V 46.95 h 12.782 v 25.625 h 38.406 V 46.95 h 12.812 v 38.406 z" style="-inkscape-font-specification:D-FONT" stroke-width="1.962" transform="matrix(.71574 0 0 .71213 -81.505 -14.23)"/></g><g style="line-height:1"><path word-spacing="1" letter-spacing="1" font-size="64" aria-label="b" stroke="#000" fill="#000" font-family="D-FONT" font-weight="400" d="m 104.345,203.134 v -12.781 h 12.813 v 12.781 z m 0,-25.594 v -12.78 h 12.813 v 12.78 z m -25.594,12.813 v -38.406 h 12.782 v 38.406 z m -25.593,12.781 v -64 h 12.78 v 64 z m 51.187,-51.187 v -12.813 h 12.813 v 12.813 z" style="-inkscape-font-specification:D-FONT" transform="translate(-33.378)"/></g><g style="line-height:1"><path word-spacing="1" letter-spacing="1" font-size="64" aria-label="u" stroke="#000" fill="#000" font-family="D-FONT" font-weight="400" d="m 234.118,200.678 v -12.782 h 64 v 12.782 z m 12.78,-25.594 v -12.781 h 12.813 v 12.78 z m 25.595,0 v -12.781 h 12.812 v 12.78 z M 234.118,149.49 v -12.812 h 12.78 v 12.812 z m 25.593,0 v -12.812 h 12.782 v 12.812 z m 25.594,0 v -12.812 h 12.813 v 12.812 z" style="-inkscape-font-specification:D-FONT" transform="translate(34.8 2.456)"/></g><g style="line-height:1"><path word-spacing="1" letter-spacing="1" font-size="64" aria-label="r" stroke="#000" fill="#000" font-family="D-FONT" font-weight="400" d="m 118.874,298.057 v -38.406 h 25.593 v 38.406 z M 93.28,310.838 v -64 h 12.781 v 64 z" style="-inkscape-font-specification:D-FONT" transform="translate(14.33 29.652)"/></g><g style="line-height:1"><path word-spacing="1" letter-spacing="1" font-size="64" aria-label="b" stroke="#000" fill="#000" font-family="D-FONT" font-weight="400" d="M 249.686,311.628 V 298.847 H 262.5 v 12.781 z m 0,-25.594 v -12.78 H 262.5 v 12.78 z m -25.593,12.813 V 260.44 h 12.78 v 38.406 z m -25.594,12.781 v -64 h 12.781 v 64 z m 51.187,-51.187 V 247.628 H 262.5 v 12.813 z" style="-inkscape-font-specification:D-FONT" transform="translate(-11.332 28.862)"/></g><g style="line-height:1"><path word-spacing="1" letter-spacing="1" font-size="64" aria-label="s" stroke="#000" fill="#000" font-family="D-FONT" font-weight="400" d="M 142.475,110.95 V 98.17 h 64 v 12.78 z m 0,-25.593 V 46.95 h 12.782 v 25.625 h 38.406 V 46.95 h 12.812 v 38.406 z" style="-inkscape-font-specification:D-FONT" transform="translate(44.692 25.318)"/></g><g style="line-height:1"><path style="-inkscape-font-specification:D-FONT" d="m 104.345,203.134 v -12.781 h 12.813 v 12.781 z m 0,-25.594 v -12.78 h 12.813 v 12.78 z m -25.594,12.813 v -38.406 h 12.782 v 38.406 z m -25.593,12.781 v -64 h 12.78 v 64 z m 51.187,-51.187 v -12.813 h 12.813 v 12.813 z" font-weight="400" font-family="D-FONT" fill="#000" stroke="#000" aria-label="b" font-size="64" letter-spacing="1" word-spacing="1" transform="rotate(180 193.038 209.47)"/></g><g style="line-height:1"><path style="-inkscape-font-specification:D-FONT" d="m 234.118,200.678 v -12.782 h 64 v 12.782 z m 12.78,-25.594 v -12.781 h 12.813 v 12.78 z m 25.595,0 v -12.781 h 12.812 v 12.78 z M 234.118,149.49 v -12.812 h 12.78 v 12.812 z m 25.593,0 v -12.812 h 12.782 v 12.812 z m 25.594,0 v -12.812 h 12.813 v 12.812 z" font-weight="400" font-family="D-FONT" fill="#000" stroke="#000" aria-label="u" font-size="64" letter-spacing="1" word-spacing="1" transform="rotate(180 158.949 208.241)"/></g><g style="line-height:1"><path style="-inkscape-font-specification:D-FONT" d="m 118.874,298.057 v -38.406 h 25.593 v 38.406 z M 93.28,310.838 v -64 h 12.781 v 64 z" font-weight="400" font-family="D-FONT" fill="#000" stroke="#000" aria-label="r" font-size="64" letter-spacing="1" word-spacing="1" transform="rotate(-90 38.753 184.388)"/></g><g style="line-height:1"><path word-spacing="1" letter-spacing="1" font-size="64" aria-label="u" stroke="#000" fill="#000" font-family="D-FONT" font-weight="400" d="m 234.118,200.678 v -12.782 h 64 v 12.782 z m 12.78,-25.594 v -12.781 h 12.813 v 12.78 z m 25.595,0 v -12.781 h 12.812 v 12.78 z M 234.118,149.49 v -12.812 h 12.78 v 12.812 z m 25.593,0 v -12.812 h 12.782 v 12.812 z m 25.594,0 v -12.812 h 12.813 v 12.812 z" style="-inkscape-font-specification:D-FONT" stroke-width="1.962" transform="matrix(0 -.71213 -.71574 0 214.52 231.505)"/></g><g style="line-height:1"><path style="-inkscape-font-specification:D-FONT" d="m 118.874,298.057 v -38.406 h 25.593 v 38.406 z M 93.28,310.838 v -64 h 12.781 v 64 z" font-weight="400" font-family="D-FONT" fill="#000" stroke="#000" aria-label="r" font-size="64" letter-spacing="1" word-spacing="1" stroke-width="1.962" transform="matrix(-.71574 0 0 .71213 229.288 -156.576)"/></g><g style="line-height:1"><path style="-inkscape-font-specification:D-FONT" d="M 249.686,311.628 V 298.847 H 262.5 v 12.781 z m 0,-25.594 v -12.78 H 262.5 v 12.78 z m -25.593,12.813 V 260.44 h 12.78 v 38.406 z m -25.594,12.781 v -64 h 12.781 v 64 z m 51.187,-51.187 V 247.628 H 262.5 v 12.813 z" font-weight="400" font-family="D-FONT" fill="#000" stroke="#000" aria-label="b" font-size="64" letter-spacing="1" word-spacing="1" stroke-width="1.962" transform="matrix(.71574 0 0 .71213 29.643 -157.139)"/></g><g style="line-height:1"><path word-spacing="1" letter-spacing="1" font-size="64" aria-label="r" stroke="#000" fill="#000" font-family="D-FONT" font-weight="400" d="m 118.874,298.057 v -38.406 h 25.593 v 38.406 z M 93.28,310.838 v -64 h 12.781 v 64 z" style="-inkscape-font-specification:D-FONT" stroke-width="1.962" transform="matrix(0 -.71213 .71574 0 45.461 126.647)"/></g></svg>