<svg xmlns="http://www.w3.org/2000/svg" viewBox="0 0 348 348" fill="none"><path d="M5.08 5.78h336.91v337.67H5.08z" stroke-width="2" stroke="#000"/><path d="M282.73 40.55c0-8.37 6.97-15.16 15.56-15.16 4.13 0 8.09 1.6 11 4.44a14.97 14.97 0 014.56 10.72c0 8.38-6.96 15.17-15.56 15.17-8.59 0-15.56-6.8-15.56-15.17z" stroke-width="2" stroke="#000"/><g aria-label="9 YPQHL" style="line-height:1.25;-inkscape-font-specification:D-FONT;text-align:center" font-weight="400" font-size="30.67" font-family="D-FONT" letter-spacing="0" word-spacing="0" text-anchor="middle" fill="#000"><path d="M27.97 55.89V43.62h12.26v6.14h-6.14v6.13zm0-18.4V25.23h6.12v6.14h6.14v6.14zm24.52 18.4V25.22h6.14V55.9zM80.08 49.76v-6.14h6.12v6.14zm12.26 6.13V43.62h6.12V55.9zm-12.26-18.4v-6.13h6.12v6.14zm12.26 0V25.23h6.12V37.5zm12.26 18.4V25.22h6.14V55.9zM116.85 55.89v-6.13h30.67v6.13zm12.27-12.27V37.5h6.12v6.12zm-12.27-6.12V25.22h6.13V37.5zm24.53 0V25.22h6.14V37.5zM153.63 43.62V37.5h6.12v6.12zm12.26 6.14v-18.4h6.13v18.4zm12.27 6.13V25.22h6.13V55.9zM214.93 43.62V37.5h6.14v6.12zm-12.26 6.14v-18.4h6.12v18.4zM190.4 55.9V25.22h6.13V55.9zM239.44 55.89v-6.13h6.13v6.13zm-6.14-12.27V37.5h18.4v6.12zm-6.12-12.26v-6.14h30.67v6.14z"/></g><g style="line-height:1.25;-inkscape-font-specification:sans-serif;text-align:center"><path d="M134.86 135.94v-9.32h9.32v9.32zm-18.66-18.66v-9.32h9.32v9.32zm18.66 0v-9.32h9.32v9.32zm0-18.66v-9.34h9.32v9.34zm18.67 37.32V89.28h9.34v46.66z" style="-inkscape-font-specification:D-FONT" font-size="46.67" font-family="D-FONT" aria-label="E" font-weight="400" letter-spacing="0" word-spacing="0" text-anchor="middle" fill="#000"/></g><g style="line-height:1.25;-inkscape-font-specification:sans-serif;text-align:center"><path d="M184.2 126.62v-9.34h9.32v9.34zm18.66 9.32v-18.66h9.32v18.66zm-18.66-27.98v-9.34h9.32v9.34zm18.66 0V89.28h9.32v18.68zm18.67 27.98V89.28h9.34v46.66z" style="-inkscape-font-specification:D-FONT" font-size="46.67" font-family="D-FONT" aria-label="Y" font-weight="400" letter-spacing="0" word-spacing="0" text-anchor="middle" fill="#000"/></g><g style="line-height:1.25;-inkscape-font-specification:sans-serif;text-align:center"><path d="M240.87 192.61v-9.32h46.67v9.32zm9.32-18.66v-9.32h28v9.32zm-9.32-18.66v-9.35h9.32v9.35zm37.32 0v-9.35h9.35v9.35z" style="-inkscape-font-specification:D-FONT" font-size="46.67" font-family="D-FONT" aria-label="C" font-weight="400" letter-spacing="0" word-spacing="0" text-anchor="middle" fill="#000"/></g><g style="line-height:1.25;-inkscape-font-specification:sans-serif;text-align:center"><path d="M240.87 260.61v-9.32h46.67v9.32zm18.66-18.66v-9.32h9.32v9.32zm-18.66-9.32v-18.69h9.32v18.69zm37.32 0v-18.69h9.35v18.69z" style="-inkscape-font-specification:D-FONT" font-size="46.67" font-family="D-FONT" aria-label="P" font-weight="400" letter-spacing="0" word-spacing="0" text-anchor="middle" fill="#000"/></g><path d="M193.52 317.28v-9.32h9.34v9.32zm-9.32-18.66v-9.32h9.32v9.32zm18.66 0v-9.32h9.32v9.32zm-9.34-18.67v-9.34h9.34v9.34zm28 37.33V270.6h9.35v46.67z" font-size="46.67" aria-label="I" style="font-size:46.66666794px" font-weight="400" font-family="D-FONT" letter-spacing="0" word-spacing="0" text-anchor="middle" fill="#000"/><g style="line-height:1.25;-inkscape-font-specification:sans-serif;text-align:center"><path d="M134.86 317.28v-9.32h9.32v9.32zm-9.34-18.66v-9.32h28v9.32zm-9.32-18.67v-9.34h46.67v9.34z" style="-inkscape-font-specification:D-FONT" font-size="46.67" font-family="D-FONT" aria-label="L" font-weight="400" letter-spacing="0" word-spacing="0" text-anchor="middle" fill="#000"/></g><g style="line-height:1.25;-inkscape-font-specification:sans-serif;text-align:center"><path d="M78.2 192.61v-9.32h9.32v9.32zm-9.34-18.66v-9.32h28v9.32zm-9.32-18.66v-9.35h46.66v9.35z" style="-inkscape-font-specification:D-FONT" font-size="46.67" font-family="D-FONT" aria-label="L" font-weight="400" letter-spacing="0" word-spacing="0" text-anchor="middle" fill="#000"/></g><g style="line-height:1.25;-inkscape-font-specification:sans-serif;text-align:center"><path d="M68.86 260.61v-9.32h9.34v9.32zm18.66 0v-9.32h9.34v9.32zm-18.66-18.66v-9.32h28v9.32zm-9.32-18.66v-9.35h46.66v9.35z" style="-inkscape-font-specification:D-FONT" font-size="46.67" font-family="D-FONT" aria-label="F" font-weight="400" letter-spacing="0" word-spacing="0" text-anchor="middle" fill="#000"/></g></svg>