<svg xmlns="http://www.w3.org/2000/svg" version="1.0" viewBox="0 0 500 500"><path d="M19 255v220h449V35H19v220zm446 0v217H22V38h443v217z"/><path d="M93 48c-8 2-12 10-11 19 2 10 7 15 16 15 6 1 9-2 13-7 2-4 2-16 0-21-4-6-11-9-18-6zm8 5 4 4c3 7 1 18-3 19h-9c-3-2-5-11-4-16 2-7 7-9 12-7zm27-6c-5 2-8 4-10 10-2 5-1 13 2 18s7 7 13 7 9-2 13-7c2-5 2-16 0-21-4-6-12-9-18-7zm10 8c3 3 4 5 3 12 0 7-3 10-9 10-5 0-7-3-8-11-2-11 8-18 14-11zM32 65v17h6V68l7-1c6 0 6 0 6-2 0-3 0-3-7-3h-6v-9l8-1c7 0 7 0 7-2 0-3 0-3-10-3H32v18zm26 0v17h21v-2c0-3 0-3-7-3h-7V47h-7v18zm96 0v17h3c3 0 3 0 3-7 0-6 1-6 3-7 1 0 3 1 6 7 3 7 4 7 7 7h4l-4-7-4-7 3-3c2-2 3-4 3-7 0-8-4-11-17-11h-7v17zm16-11 2 4c0 3-3 5-8 5h-4V52h4l6 2zm79-3c-1 5-2 6-4 6l-2 2 2 2 2 2c0 3-1 5-3 5l-2 2 2 2c2 0 2 1 1 5 0 5 0 5 2 5s2-1 2-3c0-5 1-7 4-7 2 0 3 0 2 5 0 4 0 5 2 5s2-1 2-3c0-5 1-7 4-7s3-4 0-4l-2-1v-4c0-2 1-2 3-2l2-2-2-2c-2 0-2 0-2-5 1-3 0-4-1-5-2-1-2 0-3 5 0 4-1 4-3 5h-3v-5c1-5 1-5-1-5l-3 4zm8 11c0 4-1 6-4 6-2 0-2-1-2-4s0-3 3-3l3 1zm153-7c-10 3-20 11-23 20-4 12-1 26 8 35 7 6 12 8 22 8s15-2 22-9c10-9 12-24 7-36-4-7-10-13-17-16-5-2-14-3-19-2zm19 5c18 8 22 33 8 47-6 6-10 7-20 7-7 1-9 0-13-2-7-4-10-7-13-14-8-16 2-35 20-40 4-1 13 0 18 2zm-245-2-1 4c1 2 2 2 4 2 3 0 5-3 3-6-1-2-4-3-6 0zm0 19c-3 3 1 8 5 5 3-2 2-7-2-7l-3 2zm-75 15c-8 3-11 8-11 18 0 7 2 13 6 15 5 3 11 3 15 1 5-2 6-4 4-6h-4l-7 2c-11-1-10-25 1-25l5 1c5 3 7-2 3-4-4-3-8-3-12-2zm137 0c-5 2-7 4-7 9s2 7 9 11c7 3 9 6 7 8s-9 2-12 0c-2-1-2-1-4 1-2 1-2 1 0 3 2 3 8 4 13 4 8-1 13-10 8-16l-8-6c-5-2-7-4-7-5 0-4 5-5 10-3 3 2 3 2 5 0 1-2 1-3-2-4-4-3-8-3-12-2zM32 109v18h6v-22l4 9 5 10c2 0 3-2 6-10l3-9 1 11v11h6V92h-7l-4 12-5 10-4-11-4-11h-7v17zm43-8-6 17-3 9h3c3 0 4 0 5-5l2-5h11l1 5c1 5 2 5 5 5l3-1-6-18-5-16h-7l-3 9zm8 5 1 6-4 1c-3 0-3 0-3-2l2-6 2-5 2 6zm46 4v17h7v-15h14v15h6V92h-6v14h-14V92h-7v18zm35 0v17h6V92h-6v18zm14 0v17h6v-13l-1-12 7 12c7 13 7 13 11 13h3V92h-6v13c0 12 0 12-2 10l-7-13c-5-9-5-10-8-10h-3v18zm34 0v17h21v-2c0-3 0-3-7-3h-8v-10h6c6-1 7-1 7-3s-1-2-7-3h-6v-9h8c7 0 7 0 7-2v-3h-21v18zm120-13c-1 4-1 5-4 5l-2 2 2 2c2 0 2 1 2 3 0 3-1 4-3 4-3 0-3 4 0 4 2 0 2 0 1 5 0 5 0 5 2 5 1 0 2-1 2-5 1-5 1-5 4-5s3 0 2 5c0 5 0 5 2 5 1 0 2-1 2-5 1-4 1-5 4-5l2-2-2-2c-2 0-2-1-2-3 0-4 0-4 2-4s3 0 3-2l-2-2c-2 0-2 0-2-5 1-5 1-5-1-5-1 0-2 1-3 5 0 4-1 5-3 5s-3-1-2-5c0-4 0-5-2-5-1 0-2 1-3 5zm8 12c0 3-1 4-3 4-3 0-3 0-3-3 0-4 0-4 3-4s3 0 3 3zm-72-7-1 4c0 2 1 2 3 2 3 0 4 0 4-2 0-3-1-5-3-5l-3 1zm0 19v6l4 1c2-1 2-2 2-4 0-3-1-4-3-4l-3 1zM69 149c-1 2-1-9-1 97l1 93h4c1-2 13-2 164-2a1536 1536 0 0 1 167 2l1-95v-95a7094 7094 0 0 0-336 0zm55 22v18H74v-35h50v18zm57 1v17h-51v-35h51v18zm52 0v17h-46v-35h46v18zm55 0v17h-46v-35h46v18zm57 0v17h-51v-35h51v18zm54 0v17h-48v-35h48v18zm-275 44v21H74v-42h50v21zm57 0v21h-51v-42h51v21zm52 0v21h-46v-42h46v21zm55 0v21h-46v-42h46v21zm57 0v21h-51v-42h51v21zm54 0v21h-48v-42h48v21zm-275 51v21H74v-42h50v21zm57 0v21h-51v-42h51v21zm52 0v21h-46v-42h46v21zm55 0v21h-46v-42h46v21zm57 0v21h-51v-42h51v21zm54 0v21h-48v-42h48v21zm-275 46v18H74v-37h50v19zm57 0v18h-51v-37h51v19zm52 0v18h-46v-37h46v19zm55 0v18h-46v-37h46v19zm57 0v18h-51v-37h51v19zm54 0v18h-48v-37h48v19zM97 358a846 846 0 0 0 0 86l139 1h139l2-2c2-3 2-3 2-42v-40l-2-2-3-2H236l-139 1zm276 43v38H102v-76h271v38z"/><path d="M342 381c-2 0-4 2-5 3s-1 1 1 3 2 2 5 0c5-2 8-1 9 2s1 4-2 8c-5 7-6 9-6 12s0 3 4 3c2 0 3 0 3-2l4-7c7-10 7-13 5-18-3-6-12-8-18-4zm-221 0c-3 1-8 6-8 9-1 4 1 10 4 12l9 5c9 4 11 7 7 11-2 2-3 2-7 2l-8-3c-3-2-3-2-5 0-3 2-2 4 2 7 5 3 15 4 21 1 7-3 9-11 5-18-1-2-4-4-10-7-8-4-11-6-10-9 1-4 7-5 13-2 4 2 4 2 6 0 2-3 1-5-4-7-4-2-12-3-15-1zm29 18c1 16 1 18 3 21 6 10 24 9 29-1 1-3 2-7 2-21v-17h-8v17c0 16-1 17-3 19s-3 3-6 3c-8 0-9-3-9-24v-15h-8v18zm44 5v22h11l15-1c4-2 7-7 7-12 0-4-3-10-5-10s-2-1 0-3c3-3 3-8 2-12-3-6-7-7-20-7h-10v23zm19-16c3 2 4 5 3 7-2 4-3 4-9 4h-5v-12h5l6 1zm5 21c2 2 1 6-1 9-1 1-4 2-9 2h-6v-14h7c6 0 7 1 9 2zm16-5v22h8v-16l-1-16 5 14c5 13 5 14 8 14s3-1 7-11c6-18 6-18 5-1v16h8v-45h-9l-5 15-6 14-4-11c-7-19-6-18-12-18h-4v23zm50 0v22h8v-45h-8v23zm14-20v3l7 1h7v38h8v-38h13v-7h-35v3zm48 33c-3 0-4 5-2 8 3 5 10 1 8-5-1-3-3-4-6-3z"/></svg>