<svg xmlns="http://www.w3.org/2000/svg" fill="none" viewBox="0 0 348 348"><path stroke="#000" stroke-width="2" d="M5.08 5.78h336.91v337.67H5.08z"/><path stroke="#000" stroke-width="2" d="M282.73 40.55c0-8.37 6.97-15.16 15.56-15.16 4.13 0 8.09 1.6 11 4.44a14.97 14.97 0 0 1 4.56 10.72c0 8.38-6.96 15.17-15.56 15.17-8.59 0-15.56-6.8-15.56-15.17z"/><path d="M110.45 22.64h126.17v44.84H110.45zm0 259.1h126.17v44.84H110.45z" stroke="#000" stroke-width="2.1" stroke-linecap="square"/><path d="M121.22 35.06h13.34v4.44h-2.23v-2.22h-2.21v15.55h2.21v2.23h-8.88v-2.23h2.21V37.28h-2.2v2.22h-2.24zm22.26 4.44v11.12h2.22v2.21h2.23v-2.21h2.21V39.5h-2.21v-2.22h-2.23v2.22zm-4.44 0h2.22v-2.22h2.22v-2.22h6.66v2.22h2.23v2.22h2.23v11.12h-2.23v2.21h-2.23v2.23h-6.66v-2.23h-2.22v-2.21h-2.22zm17.81 0h2.23l.27-2.22h1.94l.29-2.22h8.6v2.22h2.23v4.44h-4.45v-4.44h-4.44v2.22h-2.23v11.12h2.23v2.21h4.44V48.4h-2.22v-2.23h6.67v8.9h-11.12v-2.23h-2.21v-2.21h-2.23zm17.81 0h2.23l.27-2.22h1.94l.29-2.22h8.6v2.22h2.23v4.44h-4.45v-4.44h-4.44v2.22h-2.23v11.12h2.23v2.21h4.44V48.4h-2.22v-2.23h6.67v8.9H179.1v-2.23h-2.21v-2.21h-2.23zm17.81 13.33h2.23V37.28h-2.23v-2.22h8.9v2.22h-2.23v15.55h4.44V48.4h2.23v-2.23h2.22v8.9h-15.56zm17.82 0h2.22V37.28h-2.22v-2.22h15.56v4.44h-2.23v-2.22h-6.67v6.67h4.44v-2.23h2.23v6.67h-2.23v-2.23h-4.44v6.67h6.67v-2.21h2.23v4.44h-15.56z" aria-label="TOGGLE" fill="#000"/><path d="M122.34 307.5h4.44v4.44h4.45v-4.44H129v-2.23h-4.44v-2.21h-2.22v-6.67h2.22v-2.23h8.88v2.23h2.23v4.44h-4.44v-4.44h-4.45v6.67h4.45v2.21l2.21.29v1.94h2.23v4.44h-2.23v2.22h-8.88v-2.22h-2.22zm17.81-13.34h4.44v17.78h4.45v-17.78h4.44v17.78h-2.22v2.22h-8.88v-2.22h-2.23zm24.48 11.11v6.67h4.44v-6.67zm0-8.88v6.67h4.44v-6.67zm-6.67 15.55h2.23v-15.55h-2.23v-2.23h13.34v2.23h2.22v6.67h-2.22v2.21h2.22v6.67h-2.22v2.22h-13.34zm17.81-17.78h4.44v2.23h2.23v2.21h2.23v-2.2h2.21v-2.24h4.46v20h-4.46v-11.1l-2.25-.04v2.19l-2.19.06v-2.21h-2.22v11.1h-4.44zm20.04 0h8.88v2.23h-2.2v15.55h2.2v2.22h-8.88v-2.22h2.22v-15.55h-2.22zm15.59 0h13.33v4.44h-2.22v-2.2h-2.22v15.54h2.22v2.22h-8.88v-2.22h2.21v-15.55h-2.21v2.21h-2.23z" aria-label="SUBMIT" fill="#000"/><path d="M93.77 124.56H253.3v100.1H93.77z" fill="#000"/><path d="m116.93 207.86-3.17-3.16 6.33-6.34h15.84l6.33 6.34-3.16 3.16zm-4.75-4.75-3.17-3.16v-22.17l3.17-3.17 6.33 6.33v15.84l-6.33 6.33zm31.67 0-6.34-6.33v-15.84l6.34-6.33 3.16 3.17v22.17l-3.16 3.16zm-23.76-23.75-4.75-4.75 4.75-4.75h15.84l4.75 4.75-4.75 4.75zm-7.91-4.75-3.17-3.17v-22.17l3.17-3.16 6.33 6.33v15.84l-6.33 6.33zm31.67 0-6.34-6.33v-15.84l6.34-6.33 3.16 3.16v22.17l-3.16 3.17zm-23.76-23.75-6.33-6.34 3.17-3.16h22.16l3.17 3.16-6.33 6.34zm42.36 57-3.17-3.16 6.34-6.34h15.83l6.34 6.34-3.17 3.16zm-4.75-4.75-3.17-3.16v-22.17l3.17-3.17 6.34 6.33v15.84l-6.34 6.33zm31.67 0-6.33-6.33v-15.84l6.33-6.33 3.17 3.17v22.17l-3.17 3.16zm-23.75-23.75-4.75-4.75 4.75-4.75h15.83l4.75 4.75-4.75 4.75zm-7.92-4.75-3.17-3.17v-22.17l3.17-3.16 6.34 6.33v15.84l-6.34 6.33zm31.67 0-6.33-6.33v-15.84l6.33-6.33 3.17 3.16v22.17l-3.17 3.17zm-23.75-23.75-6.34-6.34 3.17-3.16h22.17l3.17 3.16-6.34 6.34zm42.36 57-3.17-3.16 6.33-6.34h15.84l6.33 6.34-3.16 3.16zm-4.75-4.75-3.17-3.16v-22.17l3.17-3.17 6.33 6.33v15.84l-6.33 6.33zm31.67 0-6.34-6.33v-15.84l6.34-6.33 3.16 3.17v22.17l-3.16 3.16zm-23.76-23.75-4.75-4.75 4.75-4.75h15.84l4.75 4.75-4.75 4.75zm-7.91-4.75-3.17-3.17v-22.17l3.17-3.16 6.33 6.33v15.84l-6.33 6.33zm31.67 0-6.34-6.33v-15.84l6.34-6.33 3.16 3.16v22.17l-3.16 3.17zm-23.76-23.75-6.33-6.34 3.17-3.16h22.17l3.16 3.16-6.33 6.34z" fill="#fff" aria-label="888" font-size="101.34"/><path d="M23.1 22.64h45.35v44.84H23.1zm0 51.64h45.35v44.83H23.1zm0 51.63h45.35v44.84H23.1zm0 51.64h45.35v44.83H23.1zm0 51.63h45.35v44.84H23.1zm0 51.64h45.35v44.83H23.1zm253.35-154.9h45.36v44.83h-45.36zm0 51.63h45.36v44.83h-45.36zm0 51.63h45.36v44.84h-45.36zm0 51.64h45.36v44.83h-45.36z" stroke="#000" stroke-width="2.09" stroke-linecap="square"/><path d="m41.03 59.28-1.35-1.35 2.7-2.71h6.78l2.71 2.7-1.35 1.36zM39 57.25l-1.35-1.35V46.4L39 45.06l2.71 2.7v6.78L39 57.25zm13.55 0-2.71-2.71v-6.77l2.7-2.71 1.36 1.35v9.48l-1.35 1.36zM39 45.05l-1.35-1.35v-9.48L39 32.87l2.71 2.7v6.78L39 45.05zm13.55 0-2.71-2.7v-6.78l2.7-2.7 1.36 1.35v9.48l-1.35 1.36zM42.39 34.9l-2.71-2.71 1.35-1.36h9.49l1.35 1.36-2.7 2.7z" aria-label="0" font-size="43.35" fill="#000"/><path d="m46.45 108.89-2.7-2.71V99.4l2.7-2.7 1.36 1.35v9.48l-1.36 1.36zm0-12.2-2.7-2.7V87.2l2.7-2.71 1.36 1.36v9.48l-1.36 1.35z" aria-label="1" font-size="43.35" fill="#000"/><path d="m41.03 162.55-1.35-1.35 2.7-2.71h6.78l2.71 2.7-1.35 1.36zM39 160.52l-1.35-1.35v-9.49l1.35-1.35 2.71 2.7v6.78L39 160.52zm3.39-10.16-2.03-2.03 2.03-2.03h6.77l2.03 2.03-2.03 2.03zm10.16-2.03-2.71-2.71v-6.77l2.7-2.71 1.36 1.35v9.48l-1.35 1.36zm-10.16-10.16-2.71-2.71 1.35-1.36h9.49l1.35 1.36-2.7 2.7z" aria-label="2" font-size="43.35" fill="#000"/><path d="m40.02 214.19-1.36-1.36 2.71-2.7h6.78l2.7 2.7-1.35 1.36zm11.51-2.03-2.7-2.71v-6.78l2.7-2.7 1.36 1.35v9.48l-1.36 1.36zM41.37 202l-2.03-2.04 2.03-2.03h6.78l2.03 2.03-2.03 2.04zm10.16-2.04-2.7-2.7v-6.78l2.7-2.7 1.36 1.35v9.48l-1.36 1.35zM41.37 189.8l-2.7-2.7 1.35-1.36h9.48l1.35 1.35-2.7 2.71z" aria-label="3" font-size="43.35" fill="#000"/><path d="m52.55 263.8-2.71-2.72v-6.77l2.7-2.71 1.36 1.35v9.49l-1.35 1.35zm-10.16-10.17-2.03-2.03 2.03-2.03h6.77l2.03 2.03-2.03 2.03zM39 251.6l-1.35-1.36v-9.48l1.35-1.35 2.71 2.7v6.78L39 251.6zm13.55 0-2.71-2.71v-6.77l2.7-2.71 1.36 1.35v9.48l-1.35 1.36z" aria-label="4" font-size="43.35" fill="#000"/><path d="m41.03 317.46-1.35-1.36 2.7-2.7h6.78l2.71 2.7-1.35 1.36zm11.52-2.03-2.71-2.71v-6.78l2.7-2.7 1.36 1.35v9.48l-1.35 1.36zm-10.16-10.16-2.03-2.04 2.03-2.03h6.77l2.03 2.03-2.03 2.04zM39 303.23l-1.35-1.35v-9.48l1.35-1.36 2.71 2.71v6.77L39 303.23zm3.39-10.16-2.71-2.7 1.35-1.36h9.49l1.35 1.35-2.7 2.71z" aria-label="5" font-size="43.35" fill="#000"/><path d="m294.39 162.55-1.35-1.35 2.7-2.71h6.78l2.7 2.7-1.35 1.36zm-2.03-2.03-1.36-1.35v-9.49l1.36-1.35 2.7 2.7v6.78l-2.7 2.71zm13.54 0-2.7-2.7v-6.78l2.7-2.71 1.36 1.35v9.49l-1.35 1.35zm-10.15-10.16-2.04-2.03 2.04-2.03h6.77l2.03 2.03-2.03 2.03zm-3.4-2.03-1.35-1.36v-9.48l1.36-1.35 2.7 2.7v6.78l-2.7 2.7zm3.4-10.16-2.71-2.71 1.35-1.36h9.48l1.36 1.36-2.71 2.7z" aria-label="6" font-size="43.35" fill="#000"/><path d="m305.9 213.17-2.7-2.7v-6.78l2.7-2.71 1.36 1.35v9.49l-1.35 1.35zm-13.54-12.19-1.36-1.35v-9.49l1.36-1.35 2.7 2.7v6.78l-2.7 2.71zm13.54 0-2.7-2.71v-6.77l2.7-2.71 1.36 1.35v9.48l-1.35 1.36zm-10.16-10.16-2.7-2.71 1.35-1.35h9.48l1.36 1.35-2.71 2.71z" aria-label="7" font-size="43.35" fill="#000"/><path d="m294.39 265.82-1.35-1.35 2.7-2.71h6.78l2.7 2.7-1.35 1.36zm-2.03-2.03-1.36-1.35v-9.49l1.36-1.35 2.7 2.7v6.78l-2.7 2.71zm13.54 0-2.7-2.7v-6.78l2.7-2.71 1.36 1.35v9.49l-1.35 1.35zm-10.15-10.16-2.04-2.03 2.04-2.03h6.77l2.03 2.03-2.03 2.03zm-3.4-2.03-1.35-1.36v-9.48l1.36-1.35 2.7 2.7v6.78l-2.7 2.71zm13.55 0-2.7-2.71v-6.77l2.7-2.71 1.36 1.35v9.48l-1.35 1.36zm-10.15-10.16-2.71-2.71 1.35-1.36h9.48l1.36 1.36-2.71 2.7z" aria-label="8" font-size="43.35" fill="#000"/><path d="m294.39 317.46-1.35-1.36 2.7-2.7h6.78l2.7 2.7-1.35 1.36zm11.52-2.03-2.72-2.71v-6.78l2.71-2.7 1.36 1.35v9.48l-1.35 1.36zm-10.17-10.16-2.03-2.04 2.03-2.03h6.78l2.03 2.03-2.03 2.04zm-3.38-2.04-1.36-1.35v-9.48l1.36-1.36 2.7 2.71v6.77l-2.7 2.71zm13.54 0-2.7-2.7v-6.78l2.7-2.7 1.36 1.35v9.48l-1.35 1.35zm-10.16-10.16-2.7-2.7 1.35-1.36h9.48l1.36 1.35-2.71 2.71z" aria-label="9" font-size="43.35" fill="#000"/></svg>