<svg xmlns="http://www.w3.org/2000/svg" fill="none" stroke-linecap="square" stroke-miterlimit="10" viewBox="0 0 348 348"><clipPath id="a"><path d="M0 0h348v348H0V0z"/></clipPath><g clip-path="url(#a)"><path fill="none" d="M0 0h348v348H0z"/><path fill="#ffffff" d="M-6 0h354.02v347.97H-6z"/><path fill="none" d="M5.08 5.78h336.91v337.67H5.08z"/><path stroke="#000000" stroke-linecap="butt" stroke-linejoin="round" stroke-width="2" d="M5.08 5.78h336.91v337.67H5.08z"/><path fill="#000000" d="M133.84 15.67h74.33v56.88h-74.33z"/><path fill="#ffffff" d="M154.54 44.09q0-4.06.83-6.53.84-2.49 2.48-3.83 1.66-1.34 4.16-1.34 1.84 0 3.23.75 1.4.73 2.3 2.14.9 1.39 1.42 3.4.52 2 .52 5.41 0 4.03-.83 6.52-.83 2.46-2.49 3.82-1.64 1.35-4.15 1.35-3.31 0-5.2-2.38-2.27-2.86-2.27-9.31zm2.89 0q0 5.64 1.31 7.52 1.33 1.85 3.27 1.85t3.25-1.87q1.33-1.88 1.33-7.5 0-5.66-1.33-7.52-1.31-1.86-3.28-1.86-1.94 0-3.1 1.65-1.45 2.09-1.45 7.73zm14.9 0q0-4.06.83-6.53.85-2.49 2.49-3.83 1.65-1.34 4.15-1.34 1.85 0 3.24.75 1.39.73 2.3 2.14.9 1.39 1.42 3.4.51 2 .51 5.41 0 4.03-.82 6.52-.83 2.46-2.49 3.82-1.64 1.35-4.16 1.35-3.3 0-5.2-2.38-2.26-2.86-2.26-9.31zm2.9 0q0 5.64 1.3 7.52 1.34 1.85 3.27 1.85 1.94 0 3.25-1.87 1.33-1.88 1.33-7.5 0-5.66-1.33-7.52-1.3-1.86-3.28-1.86-1.93 0-3.09 1.65-1.45 2.09-1.45 7.73zM15.26 17.7h109.9v54.84H15.25z"/><path stroke="#000000" stroke-linecap="butt" stroke-linejoin="round" stroke-width="2" d="M15.26 17.7h109.9v54.84H15.25z"/><path fill="none" d="M15.26 72.65l39.69-54.08"/><path stroke="#000000" stroke-linecap="butt" stroke-linejoin="round" stroke-width="2" d="M15.26 72.65l39.69-54.08"/><path fill="none" d="M37.57 72.65l39.68-54.08"/><path stroke="#000000" stroke-linecap="butt" stroke-linejoin="round" stroke-width="2" d="M37.57 72.65l39.68-54.08"/><path fill="none" d="M59.87 72.65l39.69-54.08"/><path stroke="#000000" stroke-linecap="butt" stroke-linejoin="round" stroke-width="2" d="M59.87 72.65l39.69-54.08"/><path fill="none" d="M82.17 72.65l39.69-54.08"/><path stroke="#000000" stroke-linecap="butt" stroke-linejoin="round" stroke-width="2" d="M82.17 72.65l39.69-54.08"/><path fill="#fff" d="M32.98 82.47h282.04v242.36H32.98z"/><path fill="#ffffff" d="M216.86 16.63h109.9v54.84h-109.9z"/><path stroke="#000000" stroke-linecap="butt" stroke-linejoin="round" stroke-width="2" d="M216.86 16.63h109.9v54.84h-109.9z"/><path fill="none" d="M216.86 71.58l39.69-54.08"/><path stroke="#000000" stroke-linecap="butt" stroke-linejoin="round" stroke-width="2" d="M216.86 71.58l39.69-54.08"/><path fill="none" d="M239.17 71.58l39.68-54.08"/><path stroke="#000000" stroke-linecap="butt" stroke-linejoin="round" stroke-width="2" d="M239.17 71.58l39.68-54.08"/><path fill="none" d="M261.47 71.58l39.69-54.08"/><path stroke="#000000" stroke-linecap="butt" stroke-linejoin="round" stroke-width="2" d="M261.47 71.58l39.69-54.08"/><path fill="none" d="M283.78 71.58l39.68-54.08"/><path stroke="#000000" stroke-linecap="butt" stroke-linejoin="round" stroke-width="2" d="M283.78 71.58l39.68-54.08"/><path fill="#000" d="M15.44 82.53h159.54v163.94H15.44z"/><path fill="none" d="M113.77 267.52h49.26V313h-49.26z"/><path stroke="#000" stroke-linecap="butt" stroke-linejoin="round" stroke-width=".89" d="M183.55 84.76h42.11v41.69h-42.1z"/><path fill="none" d="M182.8 267.52h49.26V313H182.8z"/><path fill="#ffffff" d="M260.08 270.74h36.73v25.64h-36.73zM265.46 305.5a4.27 4.27 0 1 1 8.54 0 4.27 4.27 0 1 1-8.54 0zM282.8 305.5a4.27 4.27 0 1 1 8.54 0 4.27 4.27 0 1 1-8.54 0z"/><path stroke="#000" stroke-linecap="butt" stroke-linejoin="round" stroke-width=".89" d="M232.6 85.24h42.1v41.68h-42.1zM282.32 85.8h42.11v41.68h-42.11zM183.77 134.45h42.11v41.68h-42.11zM232.81 134.92h42.11v41.69h-42.1zM282.54 135.48h42.1v41.69h-42.1zM184.33 185.29h42.11v41.68h-42.11zM233.37 185.76h42.11v41.69h-42.1zM283.1 186.32h42.1v41.69h-42.1zM204.66 235.53h42.11v41.68h-42.11zM254.38 235.53h42.12v41.68h-42.12z"/><path stroke="#000" stroke-linecap="butt" stroke-linejoin="round" stroke-width="1.83" d="M17.97 256.67h156.26v48H17.97z"/><text x="28.9" y="303.7" fill="#000" stroke-width=".81" font-family="sans-serif" font-size="32.34" font-weight="400" letter-spacing="0" style="line-height:1.25" transform="scale(1.03913 .96234)" word-spacing="0"><tspan x="28.9" y="303.7">SUBMIT</tspan></text><text x="191.08" y="119.49" fill="#000" font-family="sans-serif" font-size="40" font-weight="400" letter-spacing="0" style="line-height:1.25" word-spacing="0"><tspan x="191.08" y="119.49">0</tspan></text><text x="191.75" y="168.66" fill="#000" font-family="sans-serif" font-size="40" font-weight="400" letter-spacing="0" style="line-height:1.25" word-spacing="0"><tspan x="191.75" y="168.66">3</tspan></text><text x="290.64" y="121.73" fill="#000" font-family="sans-serif" font-size="40" font-weight="400" letter-spacing="0" style="line-height:1.25" word-spacing="0"><tspan x="290.64" y="121.73">2</tspan></text><text x="239.24" y="121.73" fill="#000" font-family="sans-serif" font-size="40" font-weight="400" letter-spacing="0" style="line-height:1.25" word-spacing="0"><tspan x="239.24" y="121.73">1</tspan></text><text x="240.92" y="221.74" fill="#000" font-family="sans-serif" font-size="40" font-weight="400" letter-spacing="0" style="line-height:1.25" word-spacing="0"><tspan x="240.92" y="221.74">7</tspan></text><text x="191.75" y="220.62" fill="#000" font-family="sans-serif" font-size="40" font-weight="400" letter-spacing="0" style="line-height:1.25" word-spacing="0"><tspan x="191.75" y="220.62">6</tspan></text><text x="290.64" y="170.34" fill="#000" font-family="sans-serif" font-size="40" font-weight="400" letter-spacing="0" style="line-height:1.25" word-spacing="0"><tspan x="290.64" y="170.34">5</tspan></text><text x="240.92" y="169.22" fill="#000" font-family="sans-serif" font-size="40" font-weight="400" letter-spacing="0" style="line-height:1.25" word-spacing="0"><tspan x="240.92" y="169.22">4</tspan></text><text x="266.06" y="269.23" fill="#000" font-family="sans-serif" font-size="40" font-weight="400" letter-spacing="0" style="line-height:1.25" word-spacing="0"><tspan x="266.06" y="269.23">-</tspan></text><text x="212.98" y="271.46" fill="#000" font-family="sans-serif" font-size="40" font-weight="400" letter-spacing="0" style="line-height:1.25" word-spacing="0"><tspan x="212.98" y="271.46">9</tspan></text><text x="290.64" y="221.74" fill="#000" font-family="sans-serif" font-size="40" font-weight="400" letter-spacing="0" style="line-height:1.25" word-spacing="0"><tspan x="290.64" y="221.74">8</tspan></text><path fill="#fff" d="M23.47 94.35h5.03v143.03h-5.03zM159.51 96.58h5.03v143.03h-5.03z"/><text x="93.71" y="151.35" fill="#fff" stroke-width="1.27" font-family="sans-serif" font-size="50.93" font-weight="400" letter-spacing="0" style="line-height:1.25;-inkscape-font-specification:'sans-serif, Normal';font-variant-ligatures:normal;font-variant-caps:normal;font-variant-numeric:normal;font-feature-settings:normal;text-align:center" text-anchor="middle" transform="scale(.99418 1.00586)" word-spacing="0" writing-mode="lr"><tspan x="93.71" y="151.35" style="-inkscape-font-specification:'sans-serif, Normal';font-variant-ligatures:normal;font-variant-caps:normal;font-variant-numeric:normal;font-feature-settings:normal;text-align:center">A B</tspan><tspan x="93.71" y="215.01" style="-inkscape-font-specification:'sans-serif, Normal';font-variant-ligatures:normal;font-variant-caps:normal;font-variant-numeric:normal;font-feature-settings:normal;text-align:center">C D</tspan></text></g></svg>