<svg xmlns="http://www.w3.org/2000/svg" viewBox="0 0 348 348" fill="none" stroke-linecap="square" stroke-miterlimit="10"><clipPath id="a"><path d="M0 0h348v348H0V0z"/></clipPath><g clip-path="url(#a)"><path d="M0 0h348v348H0z" fill="none"/><path d="M-6 0h354.016v347.969H-6z" fill="#fff"/><path d="M5.079 5.776h336.913v337.67H5.08z" fill="none"/><path d="M5.079 5.776h336.913v337.67H5.08z" stroke-linejoin="round" stroke-linecap="butt" stroke-width="2" stroke="#000"/><path d="M133.843 15.667h74.33v56.882h-74.33z" fill="#000"/><path d="M154.54 44.09q0-4.063.827-6.531.844-2.485 2.485-3.829 1.656-1.343 4.156-1.343 1.844 0 3.234.75 1.39.734 2.297 2.14.906 1.39 1.422 3.407.516 2 .516 5.406 0 4.031-.829 6.515-.828 2.47-2.484 3.829-1.64 1.343-4.156 1.343-3.313 0-5.203-2.375-2.266-2.86-2.266-9.312zm2.89 0q0 5.64 1.312 7.515 1.328 1.86 3.266 1.86 1.937 0 3.25-1.875 1.328-1.875 1.328-7.5 0-5.656-1.328-7.516-1.313-1.86-3.281-1.86-1.938 0-3.094 1.641-1.453 2.094-1.453 7.735zm14.906 0q0-4.063.828-6.531.844-2.485 2.484-3.829 1.657-1.343 4.157-1.343 1.843 0 3.234.75 1.39.734 2.297 2.14.906 1.39 1.422 3.407.515 2 .515 5.406 0 4.031-.828 6.515-.828 2.47-2.484 3.829-1.64 1.343-4.156 1.343-3.313 0-5.203-2.375-2.266-2.86-2.266-9.312zm2.89 0q0 5.64 1.313 7.515 1.328 1.86 3.266 1.86 1.937 0 3.25-1.875 1.328-1.875 1.328-7.5 0-5.656-1.328-7.516-1.313-1.86-3.282-1.86-1.937 0-3.093 1.641-1.453 2.094-1.453 7.735zM15.262 17.706h109.89v54.835H15.262z" fill="#fff"/><path d="M15.262 17.706h109.89v54.835H15.262z" stroke-linejoin="round" stroke-linecap="butt" stroke-width="2" stroke="#000"/><path d="M15.262 72.654l39.686-54.08" fill="none"/><path d="M15.262 72.654l39.686-54.08" stroke-linejoin="round" stroke-linecap="butt" stroke-width="2" stroke="#000"/><path d="M37.566 72.654l39.686-54.08" fill="none"/><path d="M37.566 72.654l39.686-54.08" stroke-linejoin="round" stroke-linecap="butt" stroke-width="2" stroke="#000"/><path d="M59.87 72.654l39.686-54.08" fill="none"/><path d="M59.87 72.654l39.686-54.08" stroke-linejoin="round" stroke-linecap="butt" stroke-width="2" stroke="#000"/><path d="M82.175 72.654l39.685-54.08" fill="none"/><path d="M82.175 72.654l39.685-54.08" stroke-linejoin="round" stroke-linecap="butt" stroke-width="2" stroke="#000"/><path d="M36.432 82.473h282.047v242.362H36.432zM216.864 16.634h109.89v54.835h-109.89z" fill="#fff"/><path d="M216.864 16.634h109.89v54.835h-109.89z" stroke-linejoin="round" stroke-linecap="butt" stroke-width="2" stroke="#000"/><path d="M216.864 71.581l39.685-54.078" fill="none"/><path d="M216.864 71.581l39.685-54.078" stroke-linejoin="round" stroke-linecap="butt" stroke-width="2" stroke="#000"/><path d="M239.168 71.581l39.685-54.078" fill="none"/><path d="M239.168 71.581l39.685-54.078" stroke-linejoin="round" stroke-linecap="butt" stroke-width="2" stroke="#000"/><path d="M261.472 71.581l39.685-54.078" fill="none"/><path d="M261.472 71.581l39.685-54.078" stroke-linejoin="round" stroke-linecap="butt" stroke-width="2" stroke="#000"/><path d="M283.776 71.581l39.685-54.078" fill="none"/><path d="M283.776 71.581l39.685-54.078" stroke-linejoin="round" stroke-linecap="butt" stroke-width="2" stroke="#000"/><path d="M25.678 88.531h152.838V243.26H25.678z" fill="#000"/><path d="M117.843 267.494h40.196v38.275h-40.196z" fill="none"/><path d="M187.087 93.535h40.075v42.815h-40.075z" stroke="#000" stroke-width=".875" stroke-linecap="butt" stroke-linejoin="round"/><path d="M186.33 282.594h49.26v49.312h-49.26z" fill="none"/><path d="M263.616 288.089h36.725v27.797h-36.725zM269 323.784c0-2.556 1.91-4.627 4.267-4.627 1.132 0 2.218.487 3.018 1.355.8.868 1.25 2.045 1.25 3.272 0 2.555-1.91 4.627-4.268 4.627-2.357 0-4.267-2.072-4.267-4.627zM286.343 323.784c0-2.556 1.911-4.627 4.268-4.627 1.132 0 2.218.487 3.018 1.355.8.868 1.25 2.045 1.25 3.272 0 2.555-1.91 4.627-4.268 4.627-2.357 0-4.268-2.072-4.268-4.627z" fill="#fff"/><path d="M234.082 93.248h40.074v42.815h-40.074zM281.077 93.391h40.074v42.816h-40.074z" stroke="#000" stroke-width=".875" stroke-linecap="butt" stroke-linejoin="round"/><path d="M187.295 149.776h40.074v41.214h-40.074zM234.29 150.247h40.074v41.213h-40.075zM281.284 150.012h40.075v41.213h-40.075z" stroke="#000" stroke-width=".859" stroke-linecap="butt" stroke-linejoin="round"/><path d="M187.826 204.89h40.075v40.653h-40.075zM234.821 205.354h40.075v40.653H234.82zM281.816 205.122h40.074v40.653h-40.074z" stroke="#000" stroke-width=".853" stroke-linecap="butt" stroke-linejoin="round"/><path d="M211.152 258.565h40.095v40.77h-40.095zM258.495 258.565h40.095v40.77h-40.095z" stroke="#000" stroke-width=".854" stroke-linecap="butt" stroke-linejoin="round"/><path d="M38.343 258.37h127.508v40.398H38.343z" stroke="#000" stroke-width="1.516" stroke-linecap="butt" stroke-linejoin="round"/><g aria-label="SUBMIT" style="line-height:1.25" font-weight="400" font-size="27.31" font-family="sans-serif" letter-spacing="0" word-spacing="0" fill="#000" stroke-width=".683"><path d="M63.747 282.63q0 1.112-.55 2.2-.535 1.086-1.513 1.841-1.07.819-2.504 1.279-1.419.46-3.428.46-2.156 0-3.883-.383-1.714-.384-3.495-1.139v-3.171h.188q1.513 1.202 3.495 1.854 1.981.652 3.722.652 2.464 0 3.83-.882 1.38-.883 1.38-2.353 0-1.267-.657-1.868-.643-.6-1.968-.933-1.005-.256-2.183-.423-1.165-.166-2.477-.422-2.652-.537-3.937-1.829-1.272-1.304-1.272-3.389 0-2.391 2.115-3.913 2.116-1.535 5.37-1.535 2.102 0 3.857.383 1.754.384 3.106.947v2.993h-.187q-1.139-.921-3-1.522-1.848-.614-3.79-.614-2.128 0-3.427.844-1.286.844-1.286 2.174 0 1.19.643 1.868.643.677 2.263 1.035.857.18 2.437.435 1.58.256 2.678.525 2.223.562 3.348 1.7 1.125 1.139 1.125 3.185zM83.016 280.417q0 2.072-.482 3.62-.47 1.534-1.554 2.557-1.03.972-2.41 1.42-1.38.448-3.214.448-1.875 0-3.267-.474-1.393-.473-2.343-1.394-1.085-1.049-1.567-2.532-.469-1.484-.469-3.645V269.02h2.651v11.524q0 1.547.215 2.443.227.895.75 1.624.589.831 1.593 1.253 1.018.422 2.437.422 1.433 0 2.437-.409 1.005-.422 1.607-1.266.522-.73.737-1.663.227-.946.227-2.34V269.02h2.652zM103.128 282.207q0 1.42-.562 2.507-.563 1.087-1.513 1.79-1.125.845-2.478 1.203-1.339.358-3.414.358h-7.07v-19.044h5.905q2.183 0 3.267.154 1.085.153 2.076.639 1.098.55 1.593 1.42.496.857.496 2.059 0 1.356-.723 2.315-.724.946-1.929 1.522v.102q2.022.397 3.187 1.701 1.165 1.292 1.165 3.274zm-4.459-8.582q0-.69-.24-1.163-.242-.474-.778-.768-.629-.345-1.526-.422-.897-.09-2.223-.09h-3.16v5.5h3.428q1.245 0 1.982-.115.736-.128 1.366-.512.629-.383.883-.984.268-.614.268-1.446zm1.7 8.685q0-1.151-.36-1.83-.362-.677-1.313-1.15-.643-.32-1.567-.41-.91-.102-2.223-.102h-4.164v7.086h3.508q1.741 0 2.852-.167 1.112-.179 1.822-.64.75-.498 1.098-1.137.348-.64.348-1.65zM124.647 288.065h-2.651v-16.41l-5.544 11.166h-1.58l-5.504-11.165v16.41h-2.477V269.02h3.615l5.316 10.603 5.142-10.603h3.683zM137.06 288.065h-7.874v-1.944h2.611v-15.156h-2.61v-1.944h7.873v1.944h-2.611v15.156h2.61zM155.82 271.272h-7.124v16.793h-2.651v-16.793h-7.124v-2.25h16.9z"/></g><path d="M216.696 114.923q0 8.044-2.342 11.816-2.323 3.751-7.23 3.751-4.98 0-7.286-3.812-2.286-3.811-2.286-11.715 0-7.965 2.324-11.756 2.323-3.812 7.248-3.812 4.981 0 7.268 3.872 2.304 3.852 2.304 11.656zm-4.888 9.107q.65-1.625.874-3.811.241-2.207.241-5.296 0-3.05-.241-5.297-.223-2.246-.892-3.811-.651-1.545-1.785-2.327-1.115-.783-2.88-.783-1.748 0-2.9.783-1.134.782-1.803 2.367-.632 1.484-.874 3.872-.223 2.387-.223 5.236 0 3.13.205 5.236.204 2.106.873 3.771.614 1.565 1.729 2.387 1.134.823 2.992.823 1.747 0 2.9-.782 1.152-.783 1.784-2.368z" aria-label="0" style="stroke-width:0.98866123" font-weight="400" font-size="39.546" font-family="sans-serif" letter-spacing="0" word-spacing="0" fill="#000" stroke-width=".989"/><path d="M214.404 170.914q.892.83 1.468 2.086.576 1.255.576 3.244 0 1.97-.687 3.61-.688 1.642-1.933 2.859-1.394 1.352-3.29 2.008-1.877.637-4.126.637-2.305 0-4.535-.579-2.23-.56-3.662-1.236v-4.036h.279q1.58 1.082 3.717 1.796 2.138.715 4.126.715 1.171 0 2.491-.406 1.32-.405 2.137-1.197.855-.85 1.264-1.873.428-1.024.428-2.588 0-1.545-.483-2.549-.465-1.023-1.302-1.603-.836-.598-2.025-.81-1.19-.232-2.565-.232h-1.673v-3.206h1.3q2.826 0 4.499-1.217 1.691-1.235 1.691-3.591 0-1.043-.427-1.816-.428-.791-1.19-1.293-.799-.502-1.71-.696-.91-.193-2.063-.193-1.766 0-3.754.657-1.99.657-3.755 1.854h-.186v-4.036q1.32-.676 3.513-1.236 2.212-.58 4.275-.58 2.026 0 3.569.387 1.542.386 2.788 1.236 1.338.927 2.026 2.24.687 1.313.687 3.07 0 2.395-1.635 4.19-1.617 1.777-3.83 2.24v.271q.893.154 2.045.657 1.153.482 1.952 1.216z" aria-label="3" style="stroke-width:0.969989" font-weight="400" font-size="38.8" font-family="sans-serif" letter-spacing="0" word-spacing="0" fill="#000" stroke-width=".97"/><path d="M310.482 130.046h-18.735v-4.193l3.903-3.611q1.97-1.806 3.661-3.591 3.569-3.731 4.888-5.918 1.32-2.207 1.32-4.755 0-2.327-1.431-3.63-1.413-1.325-3.959-1.325-1.691 0-3.661.642t-3.848 1.966h-.186v-4.213q1.32-.702 3.513-1.284 2.212-.581 4.275-.581 4.256 0 6.672 2.226 2.417 2.207 2.417 5.999 0 1.705-.41 3.19-.39 1.464-1.17 2.788-.725 1.244-1.71 2.447-.967 1.204-2.36 2.669-1.99 2.106-4.108 4.092-2.119 1.966-3.96 3.651h14.889z" aria-label="2" style="stroke-width:0.98866123" font-weight="400" font-size="39.546" font-family="sans-serif" letter-spacing="0" word-spacing="0" fill="#000" stroke-width=".989"/><path d="M261.61 129.641h-14.981v-3.049h5.762v-20.021h-5.762v-2.728q1.17 0 2.509-.201 1.338-.22 2.026-.622.855-.501 1.338-1.264.502-.782.576-2.086h2.881v26.922h5.65z" aria-label="1" style="stroke-width:0.98866123" font-weight="400" font-size="39.546" font-family="sans-serif" letter-spacing="0" word-spacing="0" fill="#000" stroke-width=".989"/><path d="M264.328 215.747l-12.527 24.115h-3.978l13.327-25.029h-15.761V211.5h18.94z" aria-label="7" style="stroke-width:0.96336758" font-weight="400" font-size="38.535" font-family="sans-serif" letter-spacing="0" word-spacing="0" fill="#000" stroke-width=".963"/><path d="M217.659 230.17q0 4.323-2.788 7.066-2.77 2.724-6.803 2.724-2.045 0-3.717-.648-1.673-.647-2.956-1.924-1.598-1.58-2.472-4.19-.855-2.61-.855-6.286 0-3.772.781-6.686.8-2.914 2.528-5.18 1.635-2.153 4.219-3.353 2.583-1.22 6.022-1.22 1.097 0 1.84.096.743.095 1.505.343v3.638h-.185q-.52-.286-1.58-.533-1.041-.267-2.138-.267-3.996 0-6.375 2.571-2.379 2.553-2.77 6.915 1.562-.972 3.068-1.467 1.524-.514 3.512-.514 1.766 0 3.104.343 1.357.323 2.77 1.333 1.635 1.162 2.453 2.933.837 1.772.837 4.305zm-3.774.152q0-1.772-.52-2.934-.502-1.162-1.673-2.019-.855-.61-1.896-.8-1.04-.19-2.174-.19-1.58 0-2.937.38-1.357.381-2.788 1.181-.037.42-.056.82-.018.38-.018.971 0 3.01.595 4.762.613 1.733 1.672 2.743.855.838 1.84 1.238 1.004.381 2.175.381 2.695 0 4.238-1.676 1.543-1.696 1.543-4.857z" aria-label="6" style="stroke-width:0.96336758" font-weight="400" font-size="38.535" font-family="sans-serif" letter-spacing="0" word-spacing="0" fill="#000" stroke-width=".963"/><path d="M310.336 175.562q0 2.008-.706 3.843-.707 1.834-1.933 3.09-1.339 1.351-3.197 2.085-1.84.714-4.275.714-2.268 0-4.368-.502-2.1-.482-3.55-1.178v-4.074h.26q1.524 1.004 3.569 1.718 2.044.696 4.015.696 1.32 0 2.546-.387 1.245-.386 2.212-1.351.818-.83 1.226-1.99.428-1.158.428-2.683 0-1.487-.502-2.51-.483-1.024-1.357-1.642-.966-.734-2.36-1.024-1.376-.309-3.086-.309-1.635 0-3.16.232-1.505.232-2.601.463v-14.81h16.653v3.379h-13.066v7.647q.799-.078 1.635-.116.837-.039 1.45-.039 2.25 0 3.94.406 1.692.386 3.104 1.39 1.487 1.062 2.305 2.742.818 1.68.818 4.21z" aria-label="5" style="stroke-width:0.969989" font-weight="400" font-size="38.8" font-family="sans-serif" letter-spacing="0" word-spacing="0" fill="#000" stroke-width=".97"/><path d="M264.79 177.14h-4.107v8.09h-3.568v-8.09h-13.253v-4.442l13.401-16.221h3.42v17.572h4.108zm-7.675-3.09v-12.977l-10.725 12.976z" aria-label="4" style="stroke-width:0.969989" font-weight="400" font-size="38.8" font-family="sans-serif" letter-spacing="0" word-spacing="0" fill="#000" stroke-width=".97"/><path d="M284.344 280.68h-11.603v-3.459h11.603z" aria-label="-" style="stroke-width:0.96501452" font-weight="400" font-size="38.601" font-family="sans-serif" letter-spacing="0" word-spacing="0" fill="#000" stroke-width=".965"/><path d="M241 277.25q0 3.725-.838 6.763-.818 3.037-2.492 5.177-1.692 2.178-4.24 3.362-2.547 1.184-5.987 1.184-.967 0-1.823-.114-.855-.096-1.525-.325v-3.649h.186q.54.287 1.525.554.986.249 2.195.249 4.11 0 6.434-2.522 2.343-2.54 2.715-6.992-1.73 1.07-3.255 1.528-1.524.459-3.328.459-1.711 0-3.106-.344-1.376-.344-2.77-1.337-1.637-1.166-2.474-2.961-.818-1.796-.818-4.298 0-4.356 2.79-7.088 2.789-2.732 6.806-2.732 2.008 0 3.719.65 1.71.63 2.994 1.91 1.58 1.586 2.436 4.088.855 2.484.855 6.438zm-3.757-.821q0-2.961-.595-4.757-.595-1.796-1.637-2.79-.874-.859-1.878-1.222-1.004-.382-2.176-.382-2.678 0-4.24 1.72-1.543 1.719-1.543 4.833 0 1.815.502 2.96.502 1.147 1.692 2.007.837.592 1.841.802 1.004.19 2.232.19 1.45 0 2.938-.4 1.488-.401 2.79-1.166l.037-.783q.037-.401.037-1.012z" aria-label="9" style="stroke-width:0.96501452" font-weight="400" font-size="38.601" font-family="sans-serif" letter-spacing="0" word-spacing="0" fill="#000" stroke-width=".965"/><path d="M311.685 231.725q0 3.676-2.806 6.114-2.788 2.439-7.026 2.439-4.498 0-7.174-2.381-2.658-2.381-2.658-6.096 0-2.362 1.338-4.267 1.338-1.923 3.773-3.047v-.114q-2.23-1.22-3.308-2.667-1.06-1.448-1.06-3.62 0-3.2 2.565-5.333t6.524-2.133q4.145 0 6.617 2.038 2.472 2.038 2.472 5.181 0 1.924-1.17 3.79-1.172 1.848-3.44 2.896v.114q2.603 1.143 3.978 2.82 1.375 1.675 1.375 4.266zm-4.405-13.848q0-2.038-1.542-3.238-1.524-1.219-3.903-1.219-2.342 0-3.848 1.143-1.487 1.143-1.487 3.086 0 1.371.744 2.38.762.991 2.286 1.772.688.343 1.97.895 1.301.553 2.528.915 1.84-1.258 2.546-2.61.706-1.352.706-3.124zm.577 14.21q0-1.752-.762-2.8-.744-1.067-2.937-2.133-.874-.42-1.914-.781-1.041-.362-2.77-1.01-1.673.933-2.695 2.533-1.004 1.6-1.004 3.62 0 2.571 1.729 4.247 1.729 1.676 4.386 1.676 2.714 0 4.331-1.428 1.636-1.429 1.636-3.924z" aria-label="8" style="stroke-width:0.96336758" font-weight="400" font-size="38.535" font-family="sans-serif" letter-spacing="0" word-spacing="0" fill="#000" stroke-width=".963"/><g fill="#fff"><path d="M33.786 101.826h4.817v128.138h-4.817zM165.591 101.826h4.817v128.138h-4.817z"/></g><g aria-label="A B C D" style="line-height:1.25;-inkscape-font-specification:'sans-serif, Normal';font-variant-ligatures:normal;font-variant-caps:normal;font-variant-numeric:normal;font-feature-settings:normal;text-align:center" font-weight="400" font-size="50.931" font-family="sans-serif" letter-spacing="0" word-spacing="0" text-anchor="middle" fill="#fff" stroke-width="1.273"><path d="M84.464 152.934h-4.998l-3.458-9.798H60.755l-3.458 9.798h-4.76l12.837-35.154h6.253zm-9.9-13.812l-6.182-17.258-6.205 17.258zM150.52 142.12q0 2.621-.994 4.628-.995 2.007-2.677 3.305-1.99 1.558-4.381 2.22-2.369.66-6.04.66h-12.505V117.78h10.445q3.86 0 5.779.283 1.918.283 3.67 1.18 1.943 1.016 2.82 2.621.876 1.582.876 3.801 0 2.503-1.28 4.273-1.278 1.748-3.41 2.81v.189q3.576.732 5.637 3.14 2.06 2.384 2.06 6.044zm-7.886-15.84q0-1.276-.427-2.15-.426-.873-1.373-1.416-1.114-.637-2.7-.779-1.587-.165-3.932-.165h-5.59v10.152h6.064q2.202 0 3.505-.213 1.303-.236 2.416-.944 1.113-.709 1.563-1.818.474-1.133.474-2.668zm3.008 16.03q0-2.125-.64-3.377-.64-1.25-2.321-2.124-1.137-.59-2.771-.756-1.61-.189-3.932-.189h-7.366v13.08h6.206q3.079 0 5.044-.307 1.966-.33 3.222-1.18 1.326-.921 1.942-2.102.616-1.18.616-3.045zM81.432 210.823q-1.302.566-2.368 1.062-1.042.496-2.748 1.039-1.444.448-3.15.755-1.681.33-3.718.33-3.837 0-6.987-1.062-3.127-1.086-5.448-3.376-2.273-2.243-3.552-5.69-1.28-3.47-1.28-8.05 0-4.344 1.232-7.767 1.232-3.424 3.553-5.785 2.25-2.29 5.424-3.494 3.197-1.204 7.081-1.204 2.843 0 5.661.685 2.842.685 6.3 2.408v5.548h-.355q-2.913-2.432-5.78-3.541-2.865-1.11-6.133-1.11-2.677 0-4.832.874-2.132.85-3.813 2.667-1.635 1.771-2.558 4.486-.9 2.692-.9 6.233 0 3.707.994 6.374 1.019 2.668 2.606 4.344 1.658 1.747 3.86 2.597 2.227.827 4.69.827 3.387 0 6.347-1.157 2.961-1.157 5.543-3.47h.331zM152.013 195.83q0 4.794-2.108 8.689-2.084 3.895-5.566 6.044-2.416 1.487-5.4 2.148-2.96.661-7.816.661h-8.906V178.22h8.811q5.163 0 8.195.755 3.055.732 5.163 2.03 3.6 2.243 5.614 5.974 2.013 3.73 2.013 8.853zm-4.903-.07q0-4.131-1.445-6.965-1.445-2.833-4.31-4.462-2.085-1.18-4.43-1.629-2.344-.472-5.613-.472h-4.405v27.127h4.405q3.387 0 5.898-.496 2.534-.496 4.642-1.841 2.629-1.677 3.932-4.415 1.326-2.739 1.326-6.847z" style="-inkscape-font-specification:'sans-serif, Normal';font-variant-ligatures:normal;font-variant-caps:normal;font-variant-numeric:normal;font-feature-settings:normal;text-align:center"/></g></g></svg>