<svg xmlns="http://www.w3.org/2000/svg" fill="none" stroke="#000" stroke-width="2" viewBox="0 0 347 347"><path fill="#000" fill-opacity=".16" stroke="none" d="M57.93 45.1h38.03c6.18 0 11.15 4.97 11.15 11.15v88.78c0 6.18-4.97 11.15-11.15 11.15H57.93a11.12 11.12 0 0 1-11.15-11.15V56.25c0-6.18 4.97-11.15 11.15-11.15zm191.72 0h38.03c6.18 0 11.15 4.97 11.15 11.15v88.78c0 6.18-4.97 11.15-11.15 11.15h-38.03a11.12 11.12 0 0 1-11.15-11.15V56.25c0-6.18 4.98-11.15 11.15-11.15zm-63.91 0h38.04c6.17 0 11.14 4.97 11.14 11.15v88.78c0 6.18-4.97 11.15-11.14 11.15h-38.04a11.12 11.12 0 0 1-11.14-11.15V56.25c0-6.18 4.97-11.15 11.14-11.15zm-63.9 0h38.03c6.18 0 11.15 4.97 11.15 11.15v88.78c0 6.18-4.97 11.15-11.15 11.15h-38.03a11.12 11.12 0 0 1-11.15-11.15V56.25c0-6.18 4.97-11.15 11.15-11.15zM54.83 216.93H293.5c6.17 0 11.15 4.97 11.15 11.14v70.57c0 6.18-4.98 11.15-11.15 11.15H54.83a11.12 11.12 0 0 1-11.15-11.15v-70.57c0-6.17 4.97-11.14 11.15-11.14z"/><path d="M5 5h337v337H5Z"/><path fill="#000" stroke="none" d="M31.86 13.92v51.7H4.95v79.55h26.91v36.09h281.9v-36.09h27.9V65.63h-27.9v-51.7H31.85zm6.7 6.7h268.5v153.95H38.56V20.61zm-5.63 173.02v20.7H4.95v79.55h27.98v39.19H315.4v-39.2h26.27v-79.54H315.4v-20.7H32.93zm6.7 6.69H308.7v126.06H39.62V200.33z"/><path fill="#000" stroke="none" d="M121.85 124.4V76.88h28.5v9.5h9.5v28.5h-9.5v9.5zm9.5-28.5h18.62v-9.51h-18.62zm0 19h18.62v-9.5h-18.62z"/><path fill="#000" stroke="none" d="M57.95 124.4V86.38h9.5v-9.5h19v9.5h9.5v38h-9.5v-19h-19v19zm9.5-28.5h19v-9.13h-19z"/><path fill="#000" stroke="none" d="M214.26 95.9v-9.51h-19v-9.5h19v9.5h9.5v9.5zm-19 28.5v-9.5h-9.5V86.38h9.5v28.5h19v9.5zm19-9.5v-9.5h9.5v9.5z"/><path fill="#000" stroke="none" d="M249.67 124.4V76.88h28.5v9.5h9.5v28.5h-9.5v9.5zm9.5-9.5h18.62V86.38h-18.62z"/><path fill="#000" stroke-width="1.75" d="M85.84 267.37q0-.8.52-1.36.48-.52 1.29-.64-.8-.08-1.29-.65-.52-.56-.52-1.36t.52-1.37q.48-.52 1.29-.64-.8-.08-1.29-.64-.52-.56-.52-1.37 0-.8.52-1.36.48-.52 1.29-.64-.8-.08-1.29-.65-.52-.56-.52-1.36 0-.84.56-1.4.6-.6 1.45-.6.84 0 1.4.6.6.56.6 1.4 0 .8-.52 1.36-.52.57-1.28.65.76.12 1.28.64.52.56.52 1.36t-.52 1.37q-.52.56-1.28.64.76.12 1.28.64.52.57.52 1.37 0 .8-.52 1.36-.52.57-1.28.65.76.12 1.28.64.52.56.52 1.36t-.52 1.37q-.52.56-1.28.64.76.12 1.28.64.52.56.52 1.37 0 .84-.6 1.44-.56.56-1.4.56-.85 0-1.45-.56-.56-.6-.56-1.44 0-.8.52-1.37.48-.52 1.29-.64-.8-.08-1.29-.64-.52-.56-.52-1.37zm4.01 8.03q0-.84.57-1.4.6-.6 1.44-.6.8 0 1.37.52.56.52.64 1.32.08-.8.64-1.32.56-.53 1.37-.53.8 0 1.36.53.56.52.64 1.32.08-.8.65-1.32.56-.53 1.36-.53.84 0 1.4.6.6.57.6 1.41 0 .85-.6 1.45-.56.56-1.4.56-.8 0-1.36-.52-.57-.48-.65-1.29-.12.8-.64 1.29-.56.52-1.36.52t-1.37-.52q-.56-.48-.64-1.29-.12.8-.64 1.29-.57.52-1.37.52-.84 0-1.44-.56-.57-.6-.57-1.45zm0-24.09q0-.84.57-1.4.6-.6 1.44-.6.8 0 1.37.52.52.52.64 1.28.08-.76.64-1.28t1.37-.52q.8 0 1.36.52.52.52.64 1.28.08-.76.65-1.28.56-.52 1.36-.52.84 0 1.4.6.6.56.6 1.4 0 .85-.6 1.45-.56.56-1.4.56-.8 0-1.36-.52-.57-.48-.65-1.29-.12.8-.64 1.29-.56.52-1.36.52t-1.37-.52q-.56-.48-.64-1.29-.12.8-.64 1.29-.57.52-1.37.52-.84 0-1.44-.56-.57-.6-.57-1.45zm12.05 20.08q0-.85.56-1.4.6-.61 1.45-.61.84 0 1.4.6.6.56.6 1.4 0 .85-.6 1.45-.56.56-1.4.56-.85 0-1.45-.56-.56-.6-.56-1.44zm0-16.06q0-.84.56-1.4.6-.6 1.45-.6.84 0 1.4.6.6.56.6 1.4 0 .84-.6 1.44-.56.57-1.4.57-.85 0-1.45-.57-.56-.6-.56-1.44zm24.09 16.06q0-.8.52-1.37.48-.52 1.28-.64-.76-.08-1.24-.56-.48-.48-.56-1.25-.12.8-.65 1.29-.56.52-1.36.52t-1.37-.52q-.56-.48-.64-1.29-.12.8-.64 1.29-.56.52-1.37.52-.8 0-1.36-.52-.56-.48-.64-1.29-.12.8-.64 1.29-.57.52-1.37.52-.8 0-1.36-.52-.57-.48-.65-1.29-.12.77-.64 1.25-.48.48-1.16.56.76.12 1.28.64.52.56.52 1.37 0 .8-.52 1.36t-1.28.64q.76.13 1.28.65.52.56.52 1.36 0 .85-.6 1.45-.56.56-1.4.56-.85 0-1.45-.56-.56-.6-.56-1.45 0-.8.52-1.36.48-.52 1.28-.65-.8-.08-1.28-.64-.52-.56-.52-1.36t.52-1.37q.48-.52 1.28-.64-.8-.08-1.28-.64-.52-.56-.52-1.37 0-.8.52-1.36.48-.52 1.28-.64-.8-.08-1.28-.65-.52-.56-.52-1.36t.52-1.37q.48-.52 1.28-.64-.8-.08-1.28-.64-.52-.56-.52-1.37 0-.8.52-1.36.48-.52 1.28-.64-.8-.08-1.28-.65-.52-.56-.52-1.36 0-.84.56-1.4.6-.6 1.45-.6.84 0 1.4.6.6.56.6 1.4 0 .8-.52 1.36-.52.57-1.28.65.76.12 1.28.64.52.56.52 1.36t-.52 1.37q-.52.56-1.28.64.76.12 1.28.64.52.57.52 1.37 0 .8-.52 1.36-.52.57-1.28.65.68.12 1.2.6.52.52.6 1.24.08-.8.65-1.32.56-.52 1.36-.52.84 0 1.4.6.53.52.6 1.24.05-.72.57-1.24.6-.6 1.44-.6.85 0 1.41.6.6.56.6 1.4 0-.84.56-1.4.6-.6 1.45-.6.84 0 1.4.6.6.56.6 1.4 0-.8.53-1.36.48-.52 1.28-.64-.8-.08-1.28-.65-.52-.56-.52-1.36t.52-1.37q.48-.52 1.28-.64-.8-.08-1.28-.64-.52-.56-.52-1.37 0-.8.52-1.36.48-.52 1.28-.64-.8-.08-1.28-.65-.52-.56-.52-1.36 0-.84.56-1.4.6-.6 1.44-.6.85 0 1.4.6.61.56.61 1.4 0 .8-.52 1.36-.52.57-1.29.65.77.12 1.29.64.52.56.52 1.36t-.52 1.37q-.52.56-1.29.64.77.12 1.29.64.52.57.52 1.37 0 .8-.52 1.36-.52.57-1.29.65.77.12 1.29.64.52.56.52 1.36t-.52 1.37q-.52.56-1.29.64.77.12 1.29.64.52.56.52 1.37 0 .8-.52 1.36t-1.29.64q.77.13 1.29.65.52.56.52 1.36 0 .85-.6 1.45-.56.56-1.4.56-.85 0-1.45-.56-.56-.6-.56-1.45 0-.8.52-1.36.48-.52 1.28-.65-.8-.08-1.28-.64-.52-.56-.52-1.36zm-12.05-20.08q0-.84.56-1.4.6-.6 1.45-.6.8 0 1.37.52.52.52.64 1.28.08-.76.64-1.28t1.36-.52q.85 0 1.41.6.52.52.6 1.24.04-.72.56-1.24.6-.6 1.45-.6.84 0 1.4.6.6.56.6 1.4 0 .85-.6 1.45-.56.56-1.4.56-.8 0-1.37-.52-.56-.48-.64-1.29-.12.8-.64 1.29-.56.52-1.37.52-.8 0-1.36-.52-.56-.48-.64-1.29-.12.8-.64 1.29-.57.52-1.37.52-.84 0-1.45-.56-.56-.6-.56-1.45zm20.08 0q0-.84.56-1.4.6-.6 1.44-.6.85 0 1.4.6.61.56.61 1.4 0 .8-.52 1.37-.52.56-1.29.64.77.12 1.29.64.52.57.52 1.37 0 .8-.52 1.36-.52.57-1.29.65.77.12 1.29.64.52.56.52 1.36t-.52 1.37q-.52.56-1.29.64.77.12 1.29.64.52.57.52 1.37 0 .8-.52 1.36-.52.57-1.29.65.77.12 1.29.64.52.56.52 1.36t-.52 1.37q-.52.56-1.29.64.77.12 1.29.64.52.56.52 1.37 0 .8-.52 1.36t-1.29.64q.77.13 1.29.65.52.56.52 1.36 0-.84.56-1.4.6-.6 1.45-.6.8 0 1.36.52.57.52.65 1.32.08-.8.64-1.32.56-.53 1.36-.53.85 0 1.4.6.61.57.61 1.41 0-.84.56-1.4.6-.6 1.45-.6.84 0 1.4.6.6.56.6 1.4 0-.84.57-1.4.6-.6 1.44-.6.85 0 1.4.6.61.56.61 1.4 0 .85-.6 1.45-.56.56-1.4.56-.81 0-1.37-.52-.56-.48-.65-1.29-.12.8-.64 1.29-.56.52-1.36.52t-1.37-.52q-.56-.48-.64-1.29-.12.8-.64 1.29-.56.52-1.37.52-.8 0-1.36-.52-.56-.48-.64-1.29-.12.8-.65 1.29-.56.52-1.36.52t-1.37-.52q-.56-.48-.64-1.29-.12.8-.64 1.29-.56.52-1.37.52-.84 0-1.44-.56-.56-.6-.56-1.45 0-.8.52-1.36.48-.52 1.28-.65-.8-.08-1.28-.64-.52-.56-.52-1.36t.52-1.37q.48-.52 1.28-.64-.8-.08-1.28-.64-.52-.56-.52-1.37 0-.8.52-1.36.48-.52 1.28-.64-.8-.08-1.28-.65-.52-.56-.52-1.36t.52-1.37q.48-.52 1.28-.64-.8-.08-1.28-.64-.52-.56-.52-1.37 0-.8.52-1.36.48-.52 1.28-.64-.8-.08-1.28-.65-.52-.56-.52-1.36t.52-1.37q.48-.52 1.28-.64-.8-.08-1.28-.64-.52-.56-.52-1.37zm24.08 0q0-.84.57-1.4.6-.6 1.44-.6t1.4.6q.6.56.6 1.4 0 .8-.51 1.37-.52.56-1.29.64.77.12 1.29.64.52.57.52 1.37 0 .8-.52 1.36-.52.57-1.29.65.77.12 1.29.64.52.56.52 1.36t-.52 1.37q-.52.56-1.29.64.77.12 1.29.64.52.57.52 1.37 0 .8-.52 1.36-.52.57-1.29.65.77.12 1.29.64.52.56.52 1.36t-.52 1.37q-.52.56-1.29.64.77.12 1.29.64.52.56.52 1.37 0 .8-.52 1.36t-1.29.64q.77.13 1.29.65.52.56.52 1.36 0-.84.56-1.4.6-.6 1.45-.6.8 0 1.36.52t.64 1.32q.08-.8.65-1.32.56-.53 1.36-.53.84 0 1.4.6.6.57.6 1.41 0-.84.57-1.4.6-.6 1.45-.6.84 0 1.4.6.6.56.6 1.4 0-.84.57-1.4.6-.6 1.44-.6t1.4.6q.6.56.6 1.4 0 .85-.6 1.45-.56.56-1.4.56-.8 0-1.36-.52-.57-.48-.65-1.29-.12.8-.64 1.29-.56.52-1.36.52t-1.37-.52q-.56-.48-.64-1.29-.12.8-.64 1.29-.57.52-1.37.52-.8 0-1.36-.52-.57-.48-.65-1.29-.12.8-.64 1.29-.56.52-1.36.52t-1.37-.52q-.56-.48-.64-1.29-.12.8-.64 1.29-.57.52-1.37.52-.84 0-1.44-.56-.57-.6-.57-1.45 0-.8.53-1.36.48-.52 1.28-.65-.8-.08-1.28-.64-.53-.56-.53-1.36t.53-1.37q.48-.52 1.28-.64-.8-.08-1.28-.64-.53-.56-.53-1.37 0-.8.53-1.36.48-.52 1.28-.64-.8-.08-1.28-.65-.53-.56-.53-1.36t.53-1.37q.48-.52 1.28-.64-.8-.08-1.28-.64-.53-.56-.53-1.37 0-.8.53-1.36.48-.52 1.28-.64-.8-.08-1.28-.65-.53-.56-.53-1.36t.53-1.37q.48-.52 1.28-.64-.8-.08-1.28-.64-.53-.56-.53-1.37zm36.14 0q0-.84.56-1.4.6-.6 1.44-.6.8 0 1.37.52.56.52.64 1.32.08-.8.64-1.32.57-.52 1.37-.52.84 0 1.4.6.6.56.6 1.4 0-.84.57-1.4.6-.6 1.44-.6.8 0 1.37.52.56.52.64 1.32.08-.8.64-1.32.57-.52 1.37-.52.84 0 1.4.6.6.56.6 1.4 0 .85-.6 1.45-.56.56-1.4.56-.8 0-1.37-.52-.56-.48-.64-1.29-.12.8-.64 1.29-.56.52-1.37.52-.8 0-1.36-.52-.56-.48-.64-1.29-.12.8-.65 1.29-.56.52-1.36.52t-1.37-.52q-.56-.48-.64-1.29-.12.77-.64 1.25-.48.48-1.17.56.77.12 1.29.64.52.57.52 1.37 0 .8-.52 1.36-.52.57-1.29.65.77.12 1.29.64.52.56.52 1.36t-.52 1.37q-.52.56-1.29.64.69.12 1.2.6.53.52.61 1.25.08-.8.64-1.33.57-.52 1.37-.52.84 0 1.4.6.6.57.6 1.4 0-.83.57-1.4.6-.6 1.44-.6.8 0 1.37.52.52.52.64 1.29.08-.77.64-1.29.57-.52 1.37-.52.84 0 1.4.6.6.57.6 1.4 0 .85-.6 1.45-.56.57-1.4.57-.8 0-1.37-.53-.56-.48-.64-1.28-.12.8-.64 1.28-.56.53-1.37.53-.8 0-1.36-.53-.56-.48-.64-1.28-.12.8-.65 1.28-.56.53-1.36.53t-1.37-.53q-.56-.48-.64-1.28-.12.76-.64 1.24-.48.49-1.17.57.77.12 1.29.64.52.56.52 1.36t-.52 1.37q-.52.56-1.29.64.77.12 1.29.64.52.56.52 1.37 0 .8-.52 1.36t-1.29.64q.77.13 1.29.65.44.52.52 1.2.04-.72.56-1.24.6-.6 1.45-.6.8 0 1.36.52.57.52.65 1.32.08-.8.64-1.32.56-.53 1.36-.53t1.37.53q.56.52.64 1.32.08-.8.64-1.32.57-.53 1.37-.53.84 0 1.4.6.6.57.6 1.41 0 .85-.6 1.45-.56.56-1.4.56-.8 0-1.37-.52-.56-.48-.64-1.29-.12.8-.64 1.29-.56.52-1.37.52-.8 0-1.36-.52-.56-.48-.64-1.29-.12.8-.65 1.29-.56.52-1.36.52t-1.37-.52q-.56-.48-.64-1.29-.12.8-.64 1.29-.56.52-1.37.52-.84 0-1.44-.56-.56-.6-.56-1.45 0-.8.52-1.36.48-.52 1.28-.65-.8-.08-1.28-.64-.52-.56-.52-1.36t.52-1.37q.48-.52 1.28-.64-.8-.08-1.28-.64-.52-.56-.52-1.37 0-.8.52-1.36.48-.52 1.28-.64-.8-.08-1.28-.65-.52-.56-.52-1.36t.52-1.37q.48-.52 1.28-.64-.8-.08-1.28-.64-.52-.56-.52-1.37 0-.8.52-1.36.48-.52 1.28-.64-.8-.08-1.28-.65-.52-.56-.52-1.36t.52-1.37q.48-.52 1.28-.64-.8-.08-1.28-.64-.52-.56-.52-1.37zm16.06 4.02q0-.84.56-1.4.6-.6 1.44-.6.85 0 1.4.6.61.56.61 1.4 0 .8-.52 1.36-.52.57-1.29.65.77.12 1.29.64.52.56.52 1.36 0 .85-.6 1.45-.56.56-1.4.56-.85 0-1.45-.56-.56-.6-.56-1.45 0-.8.52-1.36.48-.52 1.28-.64-.8-.08-1.28-.65-.52-.56-.52-1.36zm0 16.06q0-.8.52-1.37.48-.52 1.28-.64-.8-.08-1.28-.64-.52-.56-.52-1.37 0-.84.56-1.4.6-.6 1.44-.6.85 0 1.4.6.61.56.61 1.4 0 .8-.52 1.37-.52.56-1.29.64.77.12 1.29.64.52.56.52 1.37 0 .84-.6 1.44-.56.56-1.4.56-.85 0-1.45-.56-.56-.6-.56-1.44zm8.02-4.02q0-.8.53-1.36.48-.52 1.28-.64-.8-.08-1.28-.65-.53-.56-.53-1.36t.53-1.37q.48-.52 1.28-.64-.8-.08-1.28-.64-.53-.56-.53-1.37 0-.8.53-1.36.48-.52 1.28-.64-.8-.08-1.28-.65-.53-.56-.53-1.36 0-.84.57-1.4.6-.6 1.44-.6.85 0 1.4.6.6.56.6 1.4 0 .8-.51 1.36-.52.57-1.29.65.77.12 1.29.64.52.56.52 1.36t-.52 1.37q-.52.56-1.29.64.77.12 1.29.64.52.57.52 1.37 0 .8-.52 1.36-.52.57-1.29.65.77.12 1.29.64.52.56.52 1.36t-.52 1.37q-.52.56-1.29.64.77.12 1.29.64.52.56.52 1.37 0 .84-.6 1.44-.56.56-1.4.56-.85 0-1.45-.56-.57-.6-.57-1.44 0-.8.53-1.37.48-.52 1.28-.64-.8-.08-1.28-.64-.53-.56-.53-1.37zm16.06 0q0-.8.53-1.36.48-.52 1.28-.64-.8-.08-1.28-.65-.53-.56-.53-1.36t.53-1.37q.48-.52 1.28-.64-.8-.08-1.28-.64-.53-.56-.53-1.37 0-.8.53-1.36.48-.52 1.28-.64-.8-.08-1.28-.65-.53-.56-.53-1.36 0-.84.57-1.4.6-.6 1.44-.6t1.4.6q.6.56.6 1.4 0 .8-.51 1.36-.53.57-1.29.65.76.12 1.29.64.52.56.52 1.36t-.52 1.37q-.53.56-1.29.64.76.12 1.29.64.52.57.52 1.37 0 .8-.52 1.36-.53.57-1.29.65.76.12 1.29.64.52.56.52 1.36t-.52 1.37q-.53.56-1.29.64.76.12 1.29.64.52.56.52 1.37 0 .84-.6 1.44-.57.56-1.4.56-.85 0-1.45-.56-.57-.6-.57-1.44 0-.8.53-1.37.48-.52 1.28-.64-.8-.08-1.28-.64-.53-.56-.53-1.37zm-12.04-16.06q0-.84.56-1.4.6-.6 1.45-.6.8 0 1.36.52.52.52.64 1.28.08-.76.65-1.28.56-.52 1.36-.52.84 0 1.4.6.6.56.6 1.4 0-.84.57-1.4.6-.6 1.45-.6.84 0 1.4.6.6.56.6 1.4 0 .85-.6 1.45-.56.56-1.4.56-.8 0-1.37-.52-.56-.48-.64-1.29-.12.8-.64 1.29-.57.52-1.37.52-.8 0-1.36-.52-.57-.48-.65-1.29-.12.8-.64 1.29-.56.52-1.36.52-.85 0-1.45-.56-.56-.6-.56-1.45zm0 24.1q0-.85.56-1.41.6-.6 1.45-.6.8 0 1.36.52t.64 1.32q.08-.8.65-1.32.56-.53 1.36-.53t1.37.53q.52.52.64 1.28.08-.76.64-1.28.56-.53 1.37-.53.84 0 1.4.6.6.57.6 1.41 0 .85-.6 1.45-.56.56-1.4.56-.8 0-1.37-.52-.56-.48-.64-1.29-.12.8-.64 1.29-.57.52-1.37.52-.8 0-1.36-.52-.57-.48-.65-1.29-.12.8-.64 1.29-.56.52-1.36.52-.85 0-1.45-.56-.56-.6-.56-1.45zm20.07-24.1q0-.84.56-1.4.6-.6 1.45-.6.8 0 1.37.52.56.52.64 1.32.08-.8.64-1.32t1.36-.52q.85 0 1.41.6.6.56.6 1.4 0-.84.56-1.4.6-.6 1.45-.6.8 0 1.36.52.57.52.65 1.32.08-.8.64-1.32t1.36-.52q.85 0 1.4.6.61.56.61 1.4 0 .85-.6 1.45-.56.56-1.4.56-.8 0-1.37-.52-.56-.48-.64-1.29-.12.8-.65 1.29-.56.52-1.36.52t-1.37-.52q-.56-.48-.64-1.29-.12.8-.64 1.29-.56.52-1.37.52-.8 0-1.36-.52-.56-.48-.64-1.29-.12.77-.64 1.25-.49.48-1.17.56.76.12 1.29.64.52.57.52 1.37 0 .8-.52 1.36-.53.57-1.29.65.76.12 1.29.64.52.56.52 1.36t-.52 1.37q-.53.56-1.29.64.68.12 1.2.6.53.52.6 1.25.09-.8.65-1.33.56-.52 1.36-.52.85 0 1.41.6.6.57.6 1.4 0-.83.56-1.4.6-.6 1.45-.6.8 0 1.36.52.53.52.65 1.29.08-.77.64-1.29t1.36-.52q.85 0 1.4.6.61.57.61 1.4 0 .85-.6 1.45-.56.57-1.4.57-.8 0-1.37-.53-.56-.48-.64-1.28-.12.8-.65 1.28-.56.53-1.36.53t-1.37-.53q-.56-.48-.64-1.28-.12.8-.64 1.28-.56.53-1.37.53-.8 0-1.36-.53-.56-.48-.64-1.28-.12.76-.64 1.24-.49.49-1.17.57.76.12 1.29.64.52.56.52 1.36t-.52 1.37q-.53.56-1.29.64.76.12 1.29.64.52.56.52 1.37 0 .8-.52 1.36-.53.56-1.29.64.76.13 1.29.65.44.52.52 1.2.04-.72.56-1.24.6-.6 1.44-.6.8 0 1.37.52.56.52.64 1.32.08-.8.64-1.32.57-.53 1.37-.53.8 0 1.36.53.57.52.65 1.32.08-.8.64-1.32.56-.53 1.36-.53.85 0 1.4.6.61.57.61 1.41 0 .85-.6 1.45-.56.56-1.4.56-.8 0-1.37-.52-.56-.48-.64-1.29-.12.8-.65 1.29-.56.52-1.36.52t-1.37-.52q-.56-.48-.64-1.29-.12.8-.64 1.29-.56.52-1.37.52-.8 0-1.36-.52-.56-.48-.64-1.29-.12.8-.64 1.29-.57.52-1.37.52-.84 0-1.45-.56-.56-.6-.56-1.45 0-.8.52-1.36.49-.52 1.29-.65-.8-.08-1.29-.64-.52-.56-.52-1.36t.52-1.37q.49-.52 1.29-.64-.8-.08-1.29-.64-.52-.56-.52-1.37 0-.8.52-1.36.49-.52 1.29-.64-.8-.08-1.29-.65-.52-.56-.52-1.36t.52-1.37q.49-.52 1.29-.64-.8-.08-1.29-.64-.52-.56-.52-1.37 0-.8.52-1.36.49-.52 1.29-.64-.8-.08-1.29-.65-.52-.56-.52-1.36t.52-1.37q.49-.52 1.29-.64-.8-.08-1.29-.64-.52-.56-.52-1.37zm16.06 4.02q0-.84.56-1.4.6-.6 1.45-.6.84 0 1.4.6.6.56.6 1.4 0 .8-.52 1.36-.52.57-1.28.65.76.12 1.28.64.53.56.53 1.36 0 .85-.6 1.45-.57.56-1.41.56t-1.45-.56q-.56-.6-.56-1.45 0-.8.52-1.36.49-.52 1.29-.64-.8-.08-1.29-.65-.52-.56-.52-1.36zm0 16.06q0-.8.52-1.37.49-.52 1.29-.64-.8-.08-1.29-.64-.52-.56-.52-1.37 0-.84.56-1.4.6-.6 1.45-.6.84 0 1.4.6.6.56.6 1.4 0 .8-.52 1.37-.52.56-1.28.64.76.12 1.28.64.53.56.53 1.37 0 .84-.6 1.44-.57.56-1.41.56t-1.45-.56q-.56-.6-.56-1.44z"/></svg>