<svg xmlns="http://www.w3.org/2000/svg" width="512" height="512" fill="none"><g fill="#000" aria-label="Made by Lilshadow1997 on NewGrounds" style="font-feature-settings:normal;font-variant-caps:normal;font-variant-ligatures:normal;font-variant-numeric:normal"><path d="M8.128 1551.1v-15.271h3.042l3.614 10.812q.5 1.51.73 2.26.26-.833.812-2.448l3.656-10.625H22.7v15.271h-1.948v-12.78l-4.438 12.78h-1.823l-4.416-13v13zM32.94 1549.735q-1.042.885-2.01 1.25-.959.365-2.063.365-1.823 0-2.802-.886-.98-.896-.98-2.281 0-.813.366-1.48.374-.676.968-1.082.604-.407 1.354-.615.552-.146 1.667-.281 2.27-.271 3.344-.646.01-.385.01-.49 0-1.145-.531-1.614-.719-.636-2.136-.636-1.322 0-1.958.47-.625.457-.927 1.634l-1.833-.25q.25-1.177.823-1.895.573-.73 1.656-1.115 1.083-.396 2.51-.396 1.417 0 2.302.334.886.333 1.302.843.417.5.584 1.271.093.48.093 1.73v2.5q0 2.614.115 3.312.125.687.48 1.323h-1.96q-.29-.584-.374-1.365zm-.156-4.187q-1.021.416-3.063.708-1.156.167-1.635.375t-.74.614q-.26.396-.26.886 0 .75.562 1.25.573.5 1.667.5 1.083 0 1.927-.469.844-.479 1.24-1.302.302-.635.302-1.875zM44.763 1551.1v-1.396q-1.052 1.646-3.094 1.646-1.323 0-2.437-.73-1.104-.728-1.719-2.03-.604-1.313-.604-3.01 0-1.657.552-3 .552-1.355 1.656-2.074 1.104-.718 2.469-.718 1 0 1.781.427.781.416 1.27 1.093v-5.479h1.865v15.271zm-5.927-5.52q0 2.124.896 3.176t2.114 1.052q1.23 0 2.084-1 .864-1.01.864-3.072 0-2.271-.875-3.334-.875-1.062-2.156-1.062-1.25 0-2.094 1.02-.833 1.021-.833 3.22zM57.023 1547.538l1.937.24q-.458 1.697-1.697 2.635-1.24.937-3.167.937-2.427 0-3.854-1.49-1.417-1.5-1.417-4.197 0-2.792 1.438-4.333 1.437-1.542 3.729-1.542 2.219 0 3.625 1.51t1.406 4.25q0 .167-.01.5h-8.25q.104 1.823 1.03 2.792t2.313.969q1.032 0 1.76-.542.73-.542 1.157-1.73zm-6.156-3.031h6.177q-.125-1.396-.709-2.094-.895-1.083-2.322-1.083-1.292 0-2.177.864-.875.865-.97 2.313zM68.971 1551.1h-1.74v-15.271h1.875v5.448q1.188-1.49 3.032-1.49 1.02 0 1.927.417.916.406 1.5 1.156.593.74.927 1.792.333 1.052.333 2.25 0 2.843-1.406 4.395-1.406 1.553-3.375 1.553-1.958 0-3.073-1.636zm-.02-5.614q0 1.99.54 2.874.886 1.448 2.397 1.448 1.229 0 2.125-1.062.895-1.073.895-3.188 0-2.166-.864-3.197-.854-1.032-2.073-1.032-1.23 0-2.125 1.073-.896 1.063-.896 3.084zM79.023 1555.36l-.208-1.76q.614.166 1.073.166.625 0 1-.208t.614-.583q.177-.282.573-1.396.052-.156.167-.459l-4.198-11.083h2.02l2.303 6.407q.447 1.218.802 2.562.323-1.291.77-2.52l2.365-6.448h1.875l-4.208 11.25q-.677 1.822-1.052 2.51-.5.927-1.146 1.354-.646.438-1.542.438-.542 0-1.208-.23zM95.856 1551.1v-15.271h2.02v13.469h7.521v1.802zM107.57 1537.986v-2.156h1.875v2.156zm0 13.114v-11.062h1.875v11.062zM112.26 1551.1v-15.271h1.875v15.271zM116.29 1547.798l1.854-.292q.156 1.115.865 1.709.718.593 2 .593 1.291 0 1.916-.52.625-.532.625-1.24 0-.635-.552-1-.385-.25-1.916-.635-2.063-.521-2.865-.896-.792-.386-1.208-1.052-.406-.677-.406-1.49 0-.74.333-1.365.344-.635.927-1.052.437-.323 1.187-.541.76-.23 1.625-.23 1.303 0 2.282.376.99.374 1.458 1.02.469.636.646 1.709l-1.834.25q-.125-.855-.729-1.334-.593-.479-1.687-.479-1.292 0-1.844.427t-.552 1q0 .365.23.656.228.303.718.5.281.105 1.656.48 1.99.53 2.77.875.793.333 1.24.979t.448 1.604q0 .937-.552 1.77-.541.824-1.573 1.282-1.03.448-2.333.448-2.156 0-3.291-.896-1.125-.896-1.438-2.656zM127.71 1551.1v-15.271h1.875v5.48q1.312-1.522 3.312-1.522 1.23 0 2.136.49.906.479 1.291 1.333.396.854.396 2.48v7.01h-1.875v-7.01q0-1.407-.614-2.042-.605-.646-1.72-.646-.832 0-1.572.437-.73.427-1.042 1.167-.312.74-.312 2.042v6.052zM146.79 1549.735q-1.042.885-2.01 1.25-.959.365-2.063.365-1.823 0-2.802-.886-.98-.896-.98-2.281 0-.813.365-1.48.375-.676.97-1.082.603-.407 1.353-.615.552-.146 1.667-.281 2.27-.271 3.344-.646.01-.385.01-.49 0-1.145-.531-1.614-.719-.636-2.136-.636-1.323 0-1.958.47-.625.457-.927 1.634l-1.833-.25q.25-1.177.823-1.895.573-.73 1.656-1.115 1.083-.396 2.51-.396 1.417 0 2.302.334t1.302.843q.417.5.584 1.271.093.48.093 1.73v2.5q0 2.614.115 3.312.125.687.48 1.323h-1.96q-.29-.584-.374-1.365zm-.156-4.187q-1.021.416-3.063.708-1.156.167-1.635.375t-.74.614q-.26.396-.26.886 0 .75.562 1.25.573.5 1.667.5 1.083 0 1.927-.469.844-.479 1.24-1.302.302-.635.302-1.875zM158.62 1551.1v-1.396q-1.052 1.646-3.094 1.646-1.323 0-2.437-.73-1.104-.728-1.719-2.03-.604-1.313-.604-3.01 0-1.657.552-3 .552-1.355 1.656-2.074 1.104-.718 2.469-.718 1 0 1.781.427.781.416 1.27 1.093v-5.479h1.865v15.271zm-5.927-5.52q0 2.124.896 3.176t2.114 1.052q1.23 0 2.084-1 .864-1.01.864-3.072 0-2.271-.875-3.334-.875-1.062-2.156-1.062-1.25 0-2.094 1.02-.833 1.021-.833 3.22zM162.6 1545.569q0-3.073 1.708-4.552 1.427-1.23 3.48-1.23 2.28 0 3.728 1.5 1.448 1.49 1.448 4.126 0 2.135-.645 3.364-.636 1.219-1.865 1.896-1.219.677-2.667.677-2.323 0-3.76-1.49-1.427-1.489-1.427-4.291zm1.927 0q0 2.125.927 3.188.927 1.052 2.333 1.052 1.396 0 2.323-1.063.927-1.062.927-3.24 0-2.051-.937-3.103-.927-1.063-2.313-1.063-1.406 0-2.333 1.052t-.927 3.177zM177.21 1551.1l-3.385-11.062h1.937l1.76 6.385.657 2.375q.041-.177.573-2.28l1.76-6.48h1.927l1.656 6.417.552 2.114.636-2.135 1.896-6.396H189l-3.458 11.062h-1.948l-1.76-6.625-.427-1.885-2.24 8.51zM197.11 1551.1h-1.875v-11.948q-.677.646-1.781 1.292-1.094.645-1.969.968v-1.812q1.573-.74 2.75-1.792t1.667-2.041h1.208zM202.2 1547.569l1.802-.167q.23 1.271.875 1.844.646.573 1.656.573.865 0 1.51-.396.657-.396 1.074-1.052.416-.667.697-1.792.282-1.125.282-2.291 0-.125-.01-.375-.563.896-1.542 1.458-.969.552-2.104.552-1.896 0-3.209-1.375t-1.312-3.625q0-2.323 1.364-3.74 1.375-1.416 3.438-1.416 1.49 0 2.719.802 1.24.802 1.875 2.292.645 1.479.645 4.291 0 2.927-.635 4.667-.635 1.73-1.896 2.635-1.25.907-2.937.907-1.792 0-2.927-.99-1.136-1-1.365-2.802zm7.677-6.74q0-1.614-.865-2.562-.854-.948-2.062-.948-1.25 0-2.177 1.02-.927 1.022-.927 2.647 0 1.458.875 2.375.885.906 2.177.906 1.302 0 2.135-.906.844-.917.844-2.531zM214.06 1547.569l1.802-.167q.23 1.271.875 1.844.646.573 1.656.573.865 0 1.51-.396.657-.396 1.073-1.052.417-.667.698-1.792.282-1.125.282-2.291 0-.125-.01-.375-.563.896-1.542 1.458-.97.552-2.104.552-1.896 0-3.209-1.375t-1.312-3.625q0-2.323 1.364-3.74 1.375-1.416 3.438-1.416 1.49 0 2.718.802 1.24.802 1.875 2.292.646 1.479.646 4.291 0 2.927-.635 4.667-.636 1.73-1.896 2.635-1.25.907-2.937.907-1.792 0-2.927-.99-1.136-1-1.365-2.802zm7.677-6.74q0-1.614-.865-2.562-.854-.948-2.062-.948-1.25 0-2.177 1.02-.927 1.022-.927 2.647 0 1.458.875 2.375.885.906 2.177.906 1.302 0 2.135-.906.844-.917.844-2.531zM225.77 1537.829v-1.802h9.885v1.458q-1.458 1.552-2.896 4.125-1.427 2.573-2.208 5.292-.562 1.916-.719 4.198h-1.927q.032-1.803.709-4.355.677-2.552 1.937-4.916 1.271-2.375 2.698-4zM243.26 1545.569q0-3.073 1.708-4.552 1.427-1.23 3.48-1.23 2.28 0 3.728 1.5 1.448 1.49 1.448 4.126 0 2.135-.645 3.364-.636 1.219-1.865 1.896-1.219.677-2.667.677-2.323 0-3.76-1.49-1.427-1.489-1.427-4.291zm1.927 0q0 2.125.927 3.188.927 1.052 2.333 1.052 1.396 0 2.323-1.063.927-1.062.927-3.24 0-2.051-.937-3.103-.927-1.063-2.313-1.063-1.406 0-2.333 1.052t-.927 3.177zM255.82 1551.1v-11.062h1.687v1.573q1.22-1.823 3.521-1.823 1 0 1.834.365.843.354 1.26.937.417.583.583 1.385.104.521.104 1.823v6.802h-1.875v-6.729q0-1.146-.218-1.708-.219-.573-.782-.906-.552-.344-1.302-.344-1.198 0-2.073.76-.864.76-.864 2.886v6.041zM273.83 1551.1v-15.271h2.073l8.02 11.989v-11.989h1.938v15.271h-2.073l-8.02-12v12zM296.59 1547.538l1.937.24q-.458 1.697-1.697 2.635-1.24.937-3.167.937-2.427 0-3.854-1.49-1.417-1.5-1.417-4.197 0-2.792 1.438-4.333 1.437-1.542 3.729-1.542 2.219 0 3.625 1.51t1.406 4.25q0 .167-.01.5h-8.25q.104 1.823 1.03 2.792t2.313.969q1.032 0 1.76-.542.73-.542 1.157-1.73zm-6.156-3.031h6.177q-.125-1.396-.709-2.094-.895-1.083-2.322-1.083-1.292 0-2.177.864-.875.865-.97 2.313zM302.93 1551.1l-3.385-11.062h1.937l1.76 6.385.657 2.375q.041-.177.573-2.28l1.76-6.48h1.927l1.656 6.417.552 2.114.636-2.135 1.896-6.396h1.822l-3.458 11.062h-1.948l-1.76-6.625-.427-1.885-2.24 8.51zM323.68 1545.111v-1.792l6.469-.01v5.667q-1.49 1.187-3.073 1.791-1.584.594-3.25.594-2.25 0-4.094-.958-1.833-.97-2.77-2.792-.938-1.823-.938-4.073 0-2.229.927-4.156.937-1.938 2.687-2.875 1.75-.938 4.031-.938 1.657 0 2.99.542 1.344.531 2.104 1.49.76.958 1.156 2.5l-1.823.5q-.343-1.167-.854-1.834-.51-.666-1.458-1.062-.948-.406-2.104-.406-1.386 0-2.396.427-1.01.416-1.635 1.104-.615.687-.959 1.51-.583 1.417-.583 3.073 0 2.042.698 3.417.708 1.375 2.052 2.041t2.854.667q1.312 0 2.562-.5 1.25-.51 1.896-1.083v-2.844zM332.86 1551.1v-11.062h1.687v1.677q.646-1.177 1.188-1.552.552-.375 1.208-.375.948 0 1.927.604l-.645 1.74q-.688-.406-1.375-.406-.615 0-1.105.375-.49.364-.698 1.02-.312 1-.312 2.188v5.791zM339.29 1545.569q0-3.073 1.708-4.552 1.427-1.23 3.48-1.23 2.28 0 3.728 1.5 1.448 1.49 1.448 4.126 0 2.135-.645 3.364-.636 1.219-1.865 1.896-1.219.677-2.667.677-2.323 0-3.76-1.49-1.427-1.489-1.427-4.291zm1.927 0q0 2.125.927 3.188.927 1.052 2.333 1.052 1.396 0 2.323-1.063.927-1.062.927-3.24 0-2.051-.937-3.103-.927-1.063-2.313-1.063-1.406 0-2.333 1.052-.927 1.052-.927 3.177zM359.1 1551.1v-1.625q-1.292 1.875-3.51 1.875-.98 0-1.834-.375-.843-.375-1.26-.937-.406-.573-.573-1.396-.115-.552-.115-1.75v-6.854h1.875v6.135q0 1.469.115 1.979.177.74.75 1.167.573.416 1.417.416t1.583-.427q.74-.437 1.041-1.177.313-.75.313-2.167v-5.927h1.875v11.062zM363.72 1551.1v-11.062h1.687v1.573q1.22-1.823 3.521-1.823 1 0 1.834.365.843.354 1.26.937.417.583.583 1.385.104.521.104 1.823v6.802h-1.875v-6.729q0-1.146-.218-1.708-.219-.573-.782-.906-.552-.344-1.302-.344-1.198 0-2.073.76-.864.76-.864 2.886v6.041zM382.76 1551.1v-1.396q-1.052 1.646-3.094 1.646-1.323 0-2.437-.73-1.104-.728-1.719-2.03-.604-1.313-.604-3.01 0-1.657.552-3 .552-1.355 1.656-2.074 1.104-.718 2.469-.718 1 0 1.781.427.781.416 1.27 1.093v-5.479h1.865v15.271zm-5.927-5.52q0 2.124.896 3.176t2.114 1.052q1.23 0 2.084-1 .864-1.01.864-3.072 0-2.271-.875-3.334-.875-1.062-2.156-1.062-1.25 0-2.094 1.02-.833 1.021-.833 3.22zM386.7 1547.798l1.854-.292q.156 1.115.865 1.709.718.593 2 .593 1.291 0 1.916-.52.625-.532.625-1.24 0-.635-.552-1-.385-.25-1.916-.635-2.063-.521-2.865-.896-.792-.386-1.208-1.052-.406-.677-.406-1.49 0-.74.333-1.365.344-.635.927-1.052.437-.323 1.187-.541.76-.23 1.625-.23 1.303 0 2.282.376.99.374 1.458 1.02.469.636.646 1.709l-1.834.25q-.125-.855-.729-1.334-.593-.479-1.687-.479-1.292 0-1.844.427t-.552 1q0 .365.23.656.228.303.718.5.281.105 1.656.48 1.99.53 2.77.875.793.333 1.24.979t.448 1.604q0 .937-.552 1.77-.541.824-1.573 1.282-1.03.448-2.333.448-2.156 0-3.291-.896-1.125-.896-1.438-2.656z"/></g><path stroke="#000" stroke-width="4" d="M18 18h476v476H18z"/><circle cx="448" cy="64" r="22" stroke="#000" stroke-width="4"/><path stroke="#000" stroke-width="4" d="M42 42h316v92H42zm0 336h92v92H42zm112 0h92v92h-92zm112 0h92v92h-92zm112 0h92v92h-92zM42 266h92v92H42zm112 0h92v92h-92zm112 0h92v92h-92zM42 154h92v92H42zm112 0h92v92h-92zm112 92h92v-92h-92zm112 112h92v-52h-92zm0-76h92v-52h-92zm0-76h92v-52h-92zM58 88h284M58 76h284M58 100h284"/></svg>