<svg xmlns="http://www.w3.org/2000/svg" viewBox="0 0 350 350" version="1.1" id="svg21"><defs id="defs4"><style id="style2"></style></defs><g id="Layer_2" data-name="Layer 2"><g id="Layer_1-2" data-name="Layer 1"><path id="Border" d="M1 1h348v348H1z" stroke="#000" stroke-width="2"/><circle cx="308.9" cy="42.6" r="18.6" id="circle9" fill="#fff" stroke="#000" stroke-width="2"/><circle cx="175" cy="175" r="144.14" id="circle11" fill="#fff"/></g></g><g aria-label="[Button]" style="line-height:1.25;-inkscape-font-specification:sans-serif" id="text5449" font-style="normal" font-variant="normal" font-weight="400" font-stretch="normal" font-size="42.67" font-family="sans-serif" letter-spacing="0" word-spacing="0" fill="#000" fill-opacity="1" stroke="none"><path d="M100 195.3H89.17v-40.6H100v2.99h-7.2v34.62h7.2z" id="path5451"/><path d="M131.17 177.58q0 2.32-.88 4.09-.87 1.77-2.35 2.91-1.75 1.38-3.86 1.96-2.08.59-5.3.59h-11V156.1h9.18q3.4 0 5.08.25 1.69.25 3.23 1.05 1.7.9 2.48 2.3.77 1.4.77 3.36 0 2.21-1.12 3.77-1.13 1.55-3 2.48v.17q3.14.65 4.95 2.77 1.82 2.1 1.82 5.33zm-6.94-13.98q0-1.12-.38-1.9-.37-.76-1.2-1.24-.98-.56-2.38-.69-1.4-.15-3.46-.15h-4.91v8.96h5.33q1.94 0 3.08-.18 1.15-.21 2.13-.84.98-.62 1.37-1.6.42-1 .42-2.36zm2.64 14.15q0-1.88-.56-2.98t-2.04-1.87q-1-.53-2.44-.67-1.41-.17-3.45-.17h-6.48v11.54h5.45q2.71 0 4.44-.27 1.73-.29 2.84-1.04 1.16-.81 1.7-1.85.55-1.04.55-2.69z" id="path5453"/><path d="M156 187.13h-3.92v-2.59q-1.98 1.56-3.79 2.4-1.81.83-4 .83-3.67 0-5.7-2.23-2.05-2.25-2.05-6.58v-15.1h3.92v13.24q0 1.77.16 3.05.17 1.25.71 2.14.57.92 1.46 1.33.9.42 2.6.42 1.53 0 3.32-.79 1.81-.8 3.37-2.02v-17.38H156z" id="path5455"/><path d="M175.8 186.92q-1.11.29-2.42.48-1.3.18-2.32.18-3.56 0-5.41-1.91-1.86-1.92-1.86-6.15v-12.37h-2.64v-3.3h2.64v-6.68h3.92v6.68h8.08v3.3h-8.08v10.6q0 1.83.08 2.88.08 1.02.58 1.91.46.84 1.25 1.23.82.38 2.46.38.96 0 2-.27 1.04-.3 1.5-.48h.21z" id="path5457"/><path d="M192.63 186.92q-1.1.29-2.42.48-1.3.18-2.31.18-3.57 0-5.42-1.91-1.85-1.92-1.85-6.15v-12.37h-2.65v-3.3h2.65v-6.68h3.91v6.68h8.09v3.3h-8.09v10.6q0 1.83.08 2.88.09 1.02.59 1.91.46.84 1.25 1.23.81.38 2.46.38.95 0 2-.27 1.04-.3 1.5-.48h.2z" id="path5459"/><path d="M217.2 175.5q0 5.69-2.9 8.98-2.93 3.3-7.82 3.3-4.94 0-7.86-3.3-2.9-3.3-2.9-8.98 0-5.69 2.9-8.98 2.92-3.31 7.86-3.31 4.9 0 7.81 3.31 2.92 3.3 2.92 8.98zm-4.03 0q0-4.52-1.77-6.7-1.78-2.22-4.92-2.22-3.19 0-4.96 2.21-1.75 2.19-1.75 6.71 0 4.38 1.77 6.65 1.77 2.25 4.94 2.25 3.12 0 4.9-2.23 1.79-2.25 1.79-6.67z" id="path5461"/><path d="M242.75 187.13h-3.92v-13.25q0-1.6-.18-3-.2-1.42-.7-2.21-.51-.88-1.5-1.3-.97-.43-2.53-.43-1.6 0-3.36.79-1.75.8-3.35 2.02v17.38h-3.92v-23.28h3.92v2.59q1.83-1.52 3.79-2.38 1.96-.85 4.02-.85 3.77 0 5.75 2.27t1.98 6.54z" id="path5463"/><path d="M260.83 195.3H250v-2.99h7.2V157.7H250v-2.98h10.83z" id="path5465"/></g></svg>