<svg width="339" height="339.7" viewBox="0 0 89.69 89.88" xmlns="http://www.w3.org/2000/svg"><g stroke="#000"><path d="m65.74 71.54-.49.45 1.07.05.05-1.1-.63.6" stroke-width=".09"/><path d="M68.8 71.29c.83-1.45.34-3.24-1.73-3.23-2.24 0-2.12 2.93-1.17 3.55" fill="none" stroke-width=".47"/></g><g stroke="#000"><path d="m5.56 71.44-.49.46 1.07.04.05-1.1-.63.6" stroke-width=".09"/><path d="M8.62 71.2c.83-1.46.35-3.25-1.73-3.24-2.24 0-2.12 2.94-1.17 3.55" fill="none" stroke-width=".47"/></g><path stroke="#000" stroke-width=".52916" d="M.26.26h89.17v89.35H.26zm73.48 9.21a4.08 4.08 0 0 1 4.13-4.02c1.08 0 2.11.42 2.9 1.16a3.97 3.97 0 0 1 1.2 2.86c0 2.2-1.85 4-4.1 4a4.07 4.07 0 0 1-4.13-4z" fill="none"/><path d="M9.58 77.04 4.2 74.72l5.48-2.3-.1 4.62m4.4-.1-2.26 5.45-2.14-5.35zm.06-4.42 5.36 2.29-5.42 2.13.06-4.42m-4.36-.1 2.16-5.32 2.2 5.42zm28.14-28.46v7.2h-7.15v2.04h7.2v7.2h2.17V43.95zm-7.1-13.75h2.25v6.77h6.98v2.42h-9.11zM16.73 16.58H68.1v50.46L16.78 67V43.64h2.33v21.31l25.94.05v-6.8l1.99.03.01 6.77h18.68V46.32H61.2v6.98h-6.95v4.7h7.1v2.53h-9.5V53.3h-7.23V43.8h2.4v7.1h11.45v-7.22l7.25.04V32.88l-7.02-.04v-2.67l7.1.09V18.72l-18.9-.08v7.58l-2.34.03-.02-7.63-25.37-.07.02 4.74 20.85.04v6.86H51.5v-6.74h9.4v2.4h-6.87v11.27h6.74v2.2h-6.71v6.77h-2.32v-6.87l-6.95.03v-2.13l6.83-.03v-4.73H37.76v-6.74H26.2V43.8h6.87v2.53h-7.1V58h7.1v2.29h-9.64V25.62H19.2v13.96h-2.54zm53.24 60.46-5.39-2.32 5.48-2.28-.09 4.6m4.4-.09-2.26 5.45-2.14-5.36zm.06-4.42 5.36 2.28-5.42 2.14.06-4.42m-4.37-.1 2.17-5.32 2.2 5.42zM9.75 17.53 4.36 15.2l5.48-2.29-.09 4.6m4.4-.08-2.26 5.45-2.14-5.36zM14.2 13l5.35 2.29-5.41 2.14.06-4.43m-4.37-.09 2.17-5.33L14.2 13z" stroke="#000" stroke-width=".26"/><g stroke="#000"><path d="m18.89 12.63.48.45-1.07.05-.05-1.1.64.6" stroke-width=".09"/><path d="M15.82 12.38c-.83-1.45-.34-3.24 1.73-3.24 2.24.02 2.12 2.94 1.17 3.56" fill="none" stroke-width=".47"/></g><g stroke="#000"><path d="m5.42 12.36-.49.46 1.07.04.05-1.09-.63.6" stroke-width=".09"/><path d="M8.48 12.11c.83-1.45.35-3.24-1.73-3.23-2.24.01-2.12 2.94-1.17 3.55" fill="none" stroke-width=".47"/></g><g stroke="#000"><path d="m18.19 71.52.48.45-1.07.04-.04-1.09.63.6" stroke-width=".09"/><path d="M15.13 71.27c-.83-1.45-.35-3.25 1.73-3.24 2.23.01 2.11 2.94 1.16 3.56" fill="none" stroke-width=".47"/></g><g stroke="#000"><path d="m78.39 71.4.48.44-1.07.05-.04-1.1.63.6" stroke-width=".09"/><path d="M75.33 71.14c-.83-1.45-.35-3.24 1.73-3.23 2.24 0 2.11 2.93 1.16 3.55" fill="none" stroke-width=".47"/></g></svg>