<svg xmlns="http://www.w3.org/2000/svg" width="512" height="512" fill="none"><defs/><path stroke="#000" stroke-width="4.00003" d="M57.414193 102.58563l45.171557-45.1714M57.414183 86.58566l29.17157-29.17143M57.413863 70.5856l13.17189-13.17137m47.999997 0l-61.171557 61.17134m77.171557-61.17134l-61.171557 61.17134m77.171557-61.17134l-61.171557 61.17134M57.999973 58H181.99997v60H57.999973zm108.585777-.58577l-61.17156 61.17134m77.17156-45.1714l-45.17156 45.1714m45.17129-29.17123l-29.17157 29.17143m29.17187-13.17147l-13.17189 13.17137m13.17186-61.17144l-61.17156 61.17134"/><path stroke="#000" stroke-width="4" d="M17.999975 17.999995H494.00002V494H17.999975z"/><path stroke="#000" stroke-width="4" d="M58.000008 154H453.99998v300H58.000008z"/><path stroke="#000" stroke-width="4.00003" d="M329.41424 102.58565l45.17156-45.171398m-45.17157 29.17143l29.17157-29.17143m-29.17189 13.17137l13.17189-13.17137m48 0l-61.17156 61.171338m77.17156-61.171338l-61.17156 61.171338m77.17156-61.171338l-61.17156 61.171338m-31.41422-60.585568h123.99999v59.999998H330.00002zm108.58577-.58577l-61.17155 61.171338m77.17155-45.171398l-45.17155 45.171398m45.17128-29.171228l-29.17156 29.171428m29.17186-13.17147l-13.17189 13.17137m13.17186-61.171438l-61.17155 61.171338"/><path fill="#000" fill-rule="evenodd" d="M208 55.999973h96v64.000057h-96z"/><path fill="#fff" d="M228 88.01336q0-6.947231 1.41602-11.169011 1.44275-4.248499 4.2481-6.54643 2.83206-2.29793 7.10687-2.29793 3.15268 0 5.53054 1.282566 2.37786 1.255846 3.92749 3.660656 1.54961 2.378092 2.43129 5.824987.88168 3.420176.88168 9.245162 0 6.893792-1.41603 11.142291-1.41603 4.221779-4.24809 6.546429-2.80535 2.29793-7.10688 2.29793-5.66412 0-8.89695-4.06145Q228 99.04877 228 88.01336zm4.94274 0q0 9.645964 2.24428 12.85238 2.271 3.17969 5.58397 3.17969 3.31298 0 5.55725-3.20641 2.271-3.206416 2.271-12.82566 0-9.672683-2.271-12.852378-2.24427-3.179695-5.61068-3.179695-3.31298 0-5.29009 2.805613-2.48473 3.580496-2.48473 13.22646zM258.45802 88.01336q0-6.947231 1.41604-11.169011 1.44275-4.248499 4.24809-6.54643 2.83206-2.29793 7.10687-2.29793 3.15267 0 5.53054 1.282566 2.37787 1.255846 3.92748 3.660656 1.54963 2.378092 2.43131 5.824987.88168 3.420176.88168 9.245162 0 6.893792-1.41604 11.142291-1.41603 4.221779-4.24809 6.546429-2.80535 2.29793-7.10688 2.29793-5.66413 0-8.89695-4.06145-3.87405-4.88979-3.87405-15.9252zm4.94276 0q0 9.645964 2.24427 12.85238 2.27099 3.17969 5.58397 3.17969 3.31299 0 5.55726-3.20641 2.27099-3.206416 2.27099-12.82566 0-9.672683-2.27099-12.852378-2.24427-3.179695-5.61069-3.179695-3.31297 0-5.29008 2.805613-2.48473 3.580496-2.48473 13.22646z" font-family="Arial" font-size="54.7202" font-weight="400" letter-spacing="0" style="line-height:1;-inkscape-font-specification:Arial;text-align:center" text-anchor="middle" word-spacing="0"/><path fill="#000" d="M8 535.27081V520h3.041663l3.614577 10.81248q.499999 1.51042.729166 2.26042.260416-.83334.812498-2.44792L19.854148 520h2.718745v15.27081H20.62498v-12.78123l-4.437492 12.78123h-1.822914l-4.41666-12.99998v12.99998zM32.833295 533.90623q-1.041665.88541-2.010414 1.25-.958332.36458-2.062497.36458-1.822913 0-2.802079-.88542-.979165-.89583-.979165-2.28124 0-.8125.364583-1.47917.374999-.67708.968748-1.08333.604166-.40625 1.354165-.61458.552082-.14583 1.666664-.28125 2.27083-.27083 3.343745-.64583.01042-.38542.01042-.48958 0-1.14584-.531249-1.61459-.718749-.63541-2.135413-.63541-1.322915 0-1.95833.46875-.624999.45833-.927082 1.63541l-1.833331-.25q.25-1.17708.822916-1.89583.572916-.72916 1.656247-1.11458 1.083332-.39583 2.510413-.39583 1.416664 0 2.30208.33333.885415.33333 1.302081.84375.416666.5.583332 1.27083.09375.47917.09375 1.72916v2.5q0 2.61458.114583 3.3125.125.68749.479166 1.32291h-1.95833q-.291666-.58333-.374999-1.36458zm-.15625-4.18749q-1.020832.41666-3.062495.70833-1.156249.16666-1.635414.375-.479166.20833-.739583.61458-.260416.39583-.260416.88541 0 .75.562499 1.25.572916.5 1.666664.5 1.083332 0 1.927081-.46875.843748-.47916 1.239581-1.30208.302083-.63541.302083-1.875zM44.666609 535.27081v-1.39583q-1.052082 1.64583-3.093745 1.64583-1.322915 0-2.437496-.72917-1.104165-.72916-1.718748-2.03124-.604165-1.3125-.604165-3.01041 0-1.65625.552082-3 .552083-1.35416 1.656247-2.07291 1.104165-.71875 2.468747-.71875.999998 0 1.781247.42708.781248.41667 1.270831 1.09375V520h1.86458v15.27081zm-5.927074-5.52082q0 2.12499.895832 3.17707.895832 1.05209 2.11458 1.05209 1.229165 0 2.08333-1 .864582-1.01042.864582-3.07291 0-2.27083-.874999-3.33333-.874998-1.0625-2.156246-1.0625-1.249998 0-2.093747 1.02083-.833332 1.02083-.833332 3.21875zM56.937424 531.70832l1.937497.23958q-.458332 1.69791-1.697914 2.63541-1.239581.9375-3.166661.9375-2.42708 0-3.854161-1.48958-1.416664-1.5-1.416664-4.19791 0-2.79166 1.437497-4.33333 1.437498-1.54166 3.729161-1.54166 2.218747 0 3.624994 1.51041 1.406248 1.51042 1.406248 4.25 0 .16666-.01042.49999h-8.249987q.104166 1.82292 1.031248 2.79167.927082.96875 2.312496.96875 1.031249 0 1.760414-.54167.729166-.54167 1.156248-1.72916zm-6.15624-3.03125h6.177074q-.125-1.39583-.708333-2.09375-.895831-1.08333-2.322913-1.08333-1.291664 0-2.177079.86458-.874999.86459-.968749 2.3125zM68.885321 535.27081H67.14574V520h1.874998v5.44791q1.187498-1.48958 3.031245-1.48958 1.020831 0 1.92708.41666.916665.40625 1.499998 1.15625.593749.73958.927082 1.79167.333332 1.05208.333332 2.24999 0 2.84375-1.406247 4.39583-1.406248 1.55208-3.374995 1.55208-1.95833 0-3.072912-1.63541zm-.02083-5.61457q0 1.98958.541666 2.87499.885415 1.44792 2.395829 1.44792 1.229165 0 2.124997-1.0625.895832-1.07292.895832-3.1875 0-2.16666-.864582-3.19791-.854166-1.03125-2.072914-1.03125-1.229164 0-2.124996 1.07292-.895832 1.0625-.895832 3.08333zM78.947805 539.53122l-.208333-1.76041q.614582.16666 1.072915.16666.624999 0 .999998-.20833.375-.20833.614583-.58333.177083-.28125.572915-1.39583.05208-.15625.166667-.45834l-4.19791-11.08331h2.02083l2.30208 6.40624q.447916 1.21875.802082 2.56249.322916-1.29166.770832-2.52083l2.364579-6.4479h1.874997l-4.208326 11.24998q-.677083 1.82291-1.052082 2.51041-.499999.92708-1.145832 1.35417-.645832.4375-1.541664.4375-.541666 0-1.208331-.22917zM95.770693 535.27081V520h2.02083v13.46873h7.520827v1.80208zM107.49985 522.15625V520h1.87499v2.15625zm0 13.11456v-11.06248h1.87499v11.06248zM112.19775 535.27081V520h1.875v15.27081zM116.23942 531.96873l1.85416-.29166q.15625 1.11458.86458 1.70833.71875.59375 2 .59375 1.29166 0 1.91666-.52084.625-.53125.625-1.23958 0-.63541-.55208-1-.38542-.25-1.91667-.63541-2.06249-.52084-2.86457-.89583-.79167-.38542-1.20834-1.05209-.40625-.67708-.40625-1.48958 0-.73958.33334-1.36458.34375-.63541.92708-1.05208.4375-.32292 1.1875-.54167.76041-.22916 1.62499-.22916 1.30209 0 2.28125.375.98958.375 1.45833 1.02083.46875.63541.64583 1.70833l-1.83333.25q-.125-.85417-.72916-1.33333-.59375-.47917-1.6875-.47917-1.29166 0-1.84375.42708-.55208.42709-.55208 1 0 .36459.22917.65625.22916.30208.71875.5.28125.10417 1.65624.47917 1.98958.53125 2.77083.875.79167.33333 1.23958.97916.44792.64583.44792 1.60417 0 .93749-.55208 1.77083-.54167.82291-1.57292 1.28124-1.03124.44792-2.33333.44792-2.15624 0-3.29166-.89583-1.125-.89583-1.43749-2.65625zM127.65606 535.27081V520h1.875v5.47916q1.3125-1.52083 3.31249-1.52083 1.22917 0 2.13542.48958.90625.47917 1.29166 1.33333.39584.85417.39584 2.47916v7.01041h-1.875v-7.01041q0-1.40624-.61458-2.04166-.60417-.64583-1.71875-.64583-.83333 0-1.57292.4375-.72916.42708-1.04166 1.16666t-.3125 2.04167v6.05207zM146.74979 533.90623q-1.04167.88541-2.01042 1.25-.95833.36458-2.06249.36458-1.82292 0-2.80208-.88542-.97917-.89583-.97917-2.28124 0-.8125.36458-1.47917.375-.67708.96875-1.08333.60417-.40625 1.35417-.61458.55208-.14583 1.66666-.28125 2.27083-.27083 3.34375-.64583.0104-.38542.0104-.48958 0-1.14584-.53125-1.61459-.71875-.63541-2.13541-.63541-1.32291 0-1.95833.46875-.625.45833-.92708 1.63541l-1.83333-.25q.25-1.17708.82291-1.89583.57292-.72916 1.65625-1.11458 1.08333-.39583 2.51041-.39583 1.41667 0 2.30208.33333.88542.33333 1.30208.84375.41667.5.58334 1.27083.0937.47917.0937 1.72916v2.5q0 2.61458.11458 3.3125.125.68749.47917 1.32291h-1.95833q-.29167-.58333-.375-1.36458zm-.15625-4.18749q-1.02084.41666-3.0625.70833-1.15625.16666-1.63541.375-.47917.20833-.73959.61458-.26041.39583-.26041.88541 0 .75.5625 1.25.57291.5 1.66666.5 1.08333 0 1.92708-.46875.84375-.47916 1.23958-1.30208.30209-.63541.30209-1.875zM158.58309 535.27081v-1.39583q-1.05208 1.64583-3.09375 1.64583-1.32291 0-2.43749-.72917-1.10417-.72916-1.71875-2.03124-.60417-1.3125-.60417-3.01041 0-1.65625.55209-3 .55208-1.35416 1.65624-2.07291 1.10417-.71875 2.46875-.71875 1 0 1.78125.42708.78125.41667 1.27083 1.09375V520h1.86458v15.27081zm-5.92708-5.52082q0 2.12499.89584 3.17707.89583 1.05209 2.11458 1.05209 1.22916 0 2.08333-1 .86458-1.01042.86458-3.07291 0-2.27083-.875-3.33333t-2.15625-1.0625q-1.24999 0-2.09374 1.02083-.83334 1.02083-.83334 3.21875zM162.58309 529.73957q0-3.07291 1.70833-4.55208 1.42708-1.22916 3.47916-1.22916 2.28124 0 3.72916 1.5 1.44791 1.48958 1.44791 4.12499 0 2.13541-.64583 3.36458-.63541 1.21875-1.86458 1.89583-1.21875.67708-2.66666.67708-2.32292 0-3.76041-1.48958-1.42708-1.48958-1.42708-4.29166zm1.92708 0q0 2.125.92708 3.18749.92708 1.05209 2.33333 1.05209 1.39583 0 2.32291-1.0625.92708-1.0625.92708-3.23958 0-2.05208-.9375-3.10416-.92708-1.0625-2.31249-1.0625-1.40625 0-2.33333 1.05208-.92708 1.05208-.92708 3.17708zM177.19765 535.27081l-3.38541-11.06248h1.9375l1.76041 6.3854.65625 2.375q.0417-.17708.57291-2.28125l1.76042-6.47915h1.92708l1.65625 6.41665.55208 2.11458.63541-2.13541 1.89583-6.39582h1.82292l-3.45833 11.06248h-1.94791l-1.76042-6.62499-.42708-1.88541-2.23958 8.5104zM197.11428 535.27081h-1.87499v-11.9479q-.67709.64583-1.78125 1.29167-1.09375.64583-1.96875.96875v-1.8125q1.57292-.73958 2.75-1.79167 1.17708-1.05208 1.66666-2.04166h1.20833zM202.20803 531.73957l1.80208-.16667q.22917 1.27083.875 1.84375.64583.57291 1.65625.57291.86458 0 1.51041-.39583.65625-.39583 1.07292-1.05208.41666-.66667.69791-1.79167.28125-1.12499.28125-2.29166 0-.125-.0104-.375-.5625.89583-1.54166 1.45833-.96875.55208-2.10416.55208-1.89583 0-3.20833-1.37499-1.3125-1.375-1.3125-3.625 0-2.32291 1.36458-3.73957 1.375-1.41667 3.4375-1.41667 1.48958 0 2.71874.80208 1.23958.80209 1.875 2.29167.64583 1.47916.64583 4.29166 0 2.92707-.63541 4.66666-.63542 1.72916-1.89584 2.63541-1.24999.90625-2.93749.90625-1.79166 0-2.92708-.98959-1.13541-.99999-1.36458-2.80207zm7.67707-6.73958q0-1.61458-.86458-2.56249-.85417-.94792-2.0625-.94792-1.25 0-2.17708 1.02083-.92708 1.02084-.92708 2.64583 0 1.45833.875 2.375.88541.90625 2.17708.90625 1.30208 0 2.13541-.90625.84375-.91667.84375-2.53125zM214.083 531.73957l1.80208-.16667q.22917 1.27083.875 1.84375.64583.57291 1.65625.57291.86458 0 1.51041-.39583.65625-.39583 1.07291-1.05208.41667-.66667.69792-1.79167.28125-1.12499.28125-2.29166 0-.125-.0104-.375-.5625.89583-1.54166 1.45833-.96875.55208-2.10416.55208-1.89583 0-3.20833-1.37499-1.3125-1.375-1.3125-3.625 0-2.32291 1.36458-3.73957 1.375-1.41667 3.4375-1.41667 1.48958 0 2.71874.80208 1.23958.80209 1.875 2.29167.64583 1.47916.64583 4.29166 0 2.92707-.63542 4.66666-.63541 1.72916-1.89583 2.63541-1.24999.90625-2.93749.90625-1.79166 0-2.92708-.98959-1.13541-.99999-1.36458-2.80207zm7.67707-6.73958q0-1.61458-.86458-2.56249-.85417-.94792-2.0625-.94792-1.25 0-2.17708 1.02083-.92708 1.02084-.92708 2.64583 0 1.45833.875 2.375.88541.90625 2.17708.90625 1.30208 0 2.13541-.90625.84375-.91667.84375-2.53125zM225.80173 522v-1.80208h9.8854v1.45833q-1.45833 1.55208-2.89582 4.12499-1.42708 2.57291-2.20833 5.29166-.5625 1.91666-.71875 4.19791h-1.92708q.0312-1.80208.70833-4.35416.67708-2.55208 1.9375-4.91666 1.27083-2.37499 2.69791-3.99999zM243.29129 529.73957q0-3.07291 1.70833-4.55208 1.42708-1.22916 3.47916-1.22916 2.28125 0 3.72916 1.5 1.44792 1.48958 1.44792 4.12499 0 2.13541-.64583 3.36458-.63542 1.21875-1.86458 1.89583-1.21875.67708-2.66667.67708-2.32291 0-3.76041-1.48958-1.42708-1.48958-1.42708-4.29166zm1.92708 0q0 2.125.92708 3.18749.92709 1.05209 2.33333 1.05209 1.39584 0 2.32292-1.0625.92708-1.0625.92708-3.23958 0-2.05208-.9375-3.10416-.92708-1.0625-2.3125-1.0625-1.40624 0-2.33333 1.05208-.92708 1.05208-.92708 3.17708zM255.86419 535.27081v-11.06248h1.6875v1.57291q1.21875-1.82291 3.52083-1.82291 1 0 1.83333.36458.84375.35417 1.26041.9375.41667.58333.58334 1.38541.10416.52084.10416 1.82292v6.80207h-1.875v-6.72916q0-1.14583-.21874-1.70833-.21875-.57291-.78125-.90625-.55209-.34374-1.30208-.34374-1.19792 0-2.07292.76041-.86458.76042-.86458 2.88541v6.04166zM273.87458 535.27081V520h2.07292l8.02082 11.98957V520h1.93749v15.27081h-2.07291l-8.02082-11.99998v11.99998zM296.64536 531.70832l1.9375.23958q-.45833 1.69791-1.69791 2.63541-1.23958.9375-3.16666.9375-2.42708 0-3.85416-1.48958-1.41667-1.5-1.41667-4.19791 0-2.79166 1.4375-4.33333 1.4375-1.54166 3.72916-1.54166 2.21875 0 3.62499 1.51041 1.40625 1.51042 1.40625 4.25 0 .16666-.0104.49999h-8.24998q.10416 1.82292 1.03125 2.79167.92708.96875 2.31249.96875 1.03125 0 1.76042-.54167.72916-.54167 1.15624-1.72916zm-6.15624-3.03125h6.17708q-.125-1.39583-.70833-2.09375-.89584-1.08333-2.32292-1.08333-1.29166 0-2.17708.86458-.875.86459-.96875 2.3125zM302.98912 535.27081l-3.38541-11.06248h1.9375l1.76041 6.3854.65625 2.375q.0417-.17708.57292-2.28125l1.76041-6.47915h1.92708l1.65625 6.41665.55208 2.11458.63542-2.13541 1.89583-6.39582h1.82291l-3.45833 11.06248h-1.94791l-1.76041-6.62499-.42709-1.88541-2.23958 8.5104zM323.74949 529.28124v-1.79167l6.46874-.0104v5.66665q-1.48958 1.1875-3.07291 1.79167-1.58333.59375-3.25.59375-2.24999 0-4.09374-.95834-1.83333-.96874-2.77083-2.79166-.9375-1.82291-.9375-4.07291 0-2.22916.92708-4.15624.9375-1.9375 2.6875-2.875t4.03124-.9375q1.65625 0 2.98958.54167 1.34375.53125 2.10417 1.48958.76041.95833 1.15624 2.5l-1.82291.5q-.34375-1.16667-.85416-1.83333-.51042-.66667-1.45834-1.0625-.94791-.40625-2.10416-.40625-1.38541 0-2.39583.42708-1.01041.41667-1.63541 1.10417-.61459.68749-.95833 1.51041-.58334 1.41666-.58334 3.07291 0 2.04167.69792 3.41666.70833 1.375 2.05208 2.04167 1.34375.66666 2.85416.66666 1.3125 0 2.5625-.5 1.24999-.51041 1.89583-1.08333v-2.84374zM332.92657 535.27081v-11.06248h1.68749v1.67708q.64584-1.17708 1.1875-1.55208.55208-.375 1.20833-.375.94792 0 1.92708.60416l-.64583 1.73958q-.6875-.40625-1.375-.40625-.61458 0-1.10416.375-.48958.36459-.69792 1.02084-.3125.99999-.3125 2.18749v5.79166zM339.37448 529.73957q0-3.07291 1.70833-4.55208 1.42708-1.22916 3.47917-1.22916 2.28124 0 3.72916 1.5 1.44791 1.48958 1.44791 4.12499 0 2.13541-.64583 3.36458-.63542 1.21875-1.86458 1.89583-1.21875.67708-2.66666.67708-2.32292 0-3.76042-1.48958-1.42708-1.48958-1.42708-4.29166zm1.92708 0q0 2.125.92709 3.18749.92708 1.05209 2.33333 1.05209 1.39583 0 2.32291-1.0625.92708-1.0625.92708-3.23958 0-2.05208-.9375-3.10416-.92708-1.0625-2.31249-1.0625-1.40625 0-2.33333 1.05208-.92709 1.05208-.92709 3.17708zM359.19736 535.27081v-1.625q-1.29167 1.875-3.51041 1.875-.97917 0-1.83333-.375-.84375-.375-1.26042-.9375-.40625-.57291-.57292-1.39583-.11458-.55208-.11458-1.75v-6.85415h1.875v6.1354q0 1.46875.11458 1.97917.17708.73958.75 1.16666.57292.41667 1.41667.41667.84374 0 1.58333-.42708.73958-.4375 1.04166-1.17709.3125-.74999.3125-2.16666v-5.92707h1.875v11.06248zM363.82234 535.27081v-11.06248h1.6875v1.57291q1.21874-1.82291 3.52082-1.82291 1 0 1.83333.36458.84375.35417 1.26042.9375.41666.58333.58333 1.38541.10417.52084.10417 1.82292v6.80207h-1.875v-6.72916q0-1.14583-.21875-1.70833-.21875-.57291-.78125-.90625-.55208-.34374-1.30208-.34374-1.19791 0-2.07291.76041-.86459.76042-.86459 2.88541v6.04166zM382.87441 535.27081v-1.39583q-1.05208 1.64583-3.09375 1.64583-1.32291 0-2.43749-.72917-1.10417-.72916-1.71875-2.03124-.60416-1.3125-.60416-3.01041 0-1.65625.55208-3 .55208-1.35416 1.65625-2.07291 1.10416-.71875 2.46874-.71875 1 0 1.78125.42708.78125.41667 1.27083 1.09375V520h1.86458v15.27081zm-5.92707-5.52082q0 2.12499.89583 3.17707.89583 1.05209 2.11458 1.05209 1.22916 0 2.08333-1 .86458-1.01042.86458-3.07291 0-2.27083-.875-3.33333t-2.15625-1.0625q-1.24999 0-2.09374 1.02083-.83333 1.02083-.83333 3.21875zM386.82231 531.96873l1.85416-.29166q.15625 1.11458.86458 1.70833.71875.59375 2 .59375 1.29167 0 1.91666-.52084.625-.53125.625-1.23958 0-.63541-.55208-1-.38541-.25-1.91666-.63541-2.0625-.52084-2.86458-.89583-.79167-.38542-1.20833-1.05209-.40625-.67708-.40625-1.48958 0-.73958.33333-1.36458.34375-.63541.92708-1.05208.4375-.32292 1.1875-.54167.76042-.22916 1.625-.22916 1.30208 0 2.28124.375.98959.375 1.45834 1.02083.46874.63541.64583 1.70833l-1.83333.25q-.125-.85417-.72917-1.33333-.59375-.47917-1.6875-.47917-1.29166 0-1.84374.42708-.55208.42709-.55208 1 0 .36459.22916.65625.22917.30208.71875.5.28125.10417 1.65625.47917 1.98958.53125 2.77083.875.79166.33333 1.23958.97916.44791.64583.44791 1.60417 0 .93749-.55208 1.77083-.54166.82291-1.57291 1.28124-1.03125.44792-2.33333.44792-2.15625 0-3.29166-.89583-1.125-.89583-1.4375-2.65625z" font-family="Arial" font-size="21.3333" font-weight="400" letter-spacing="0" style="line-height:1;-inkscape-font-specification:Arial;font-variant-ligatures:normal;font-variant-caps:normal;font-variant-numeric:normal;font-feature-settings:normal;text-align:center" text-anchor="middle" word-spacing="0"/><path stroke="#000" stroke-miterlimit="10" stroke-width="4" d="M341.99989 253c-9.83519 0-23.7433 37.62831-21.99844 58.32654.61015 7.23785 4.68299 15.20986 10.99922 18.82972 6.35728 3.64338 15.1921 3.88302 21.99844 0 6.80775-3.88384 10.38907-11.59187 10.99922-18.82972C365.74319 290.62831 351.83508 253 341.99989 253zm13.69076 16.45134a43.99688 43.863183 0 0129.75314 48.61797 43.99688 43.863183 0 01-43.48776 36.93067 43.99688 43.863183 0 01-43.41382-37.01704 43.99688 43.863183 0 0129.85029-48.55873M169.99995 253c-9.83519 0-23.7433 37.62831-21.99844 58.32654.61015 7.23785 4.68299 15.20986 10.99922 18.82972 6.35728 3.64338 15.1921 3.88302 21.99844 0 6.80775-3.88384 10.38907-11.59187 10.99922-18.82972C193.74325 290.62831 179.83514 253 169.99995 253zm13.69076 16.45134a43.99688 43.863183 0 0129.75314 48.61797 43.99688 43.863183 0 01-43.48776 36.93067 43.99688 43.863183 0 01-43.41382-37.01704 43.99688 43.863183 0 0129.85029-48.55873M145.99997 205v28h-12v-28zm20 0v28h-12v-28zm20 0v28h-12v-28zm20 0v28h-12v-28zm-80-8h88v44h-88zM145.99997 375v28h-12v-28zm20 0v28h-12v-28zm20 0v28h-12v-28zm20 0v28h-12v-28zm-80-8h88v44h-88zM317.99991 205v28h-12v-28zm20 0v28h-12v-28zm20 0v28h-12v-28zm20 0v28h-12v-28zm-80-8h88v44h-88zM322.44116 369.26538l-7.24694 27.04592-11.59111-3.10582 7.24694-27.04593zm19.31851 5.17638l-7.24693 27.04593-11.59111-3.10583 7.24693-27.04593zm19.31852 5.17638l-7.24693 27.04593-11.59111-3.10583 7.24693-27.04593zm19.31852 5.17638l-7.24694 27.04593-11.59111-3.10583 7.24694-27.04592zm-75.20352-28.43293l85.00148 22.77608-11.38804 42.50074-85.00148-22.77608z"/></svg>