<?xml version="1.0" encoding="UTF-8" standalone="no"?>
<svg
   xmlns:dc="http://purl.org/dc/elements/1.1/"
   xmlns:cc="http://creativecommons.org/ns#"
   xmlns:rdf="http://www.w3.org/1999/02/22-rdf-syntax-ns#"
   xmlns:svg="http://www.w3.org/2000/svg"
   xmlns="http://www.w3.org/2000/svg"
   xmlns:sodipodi="http://sodipodi.sourceforge.net/DTD/sodipodi-0.dtd"
   xmlns:inkscape="http://www.inkscape.org/namespaces/inkscape"
   viewBox="0 0 348 348"
   fill="none"
   id="svg3135"
   version="1.1"
   inkscape:version="0.48.4 r9939"
   width="100%"
   height="100%"
   sodipodi:docname="Double-Oh.svg">
  <metadata
     id="metadata3145">
    <rdf:RDF>
      <cc:Work
         rdf:about="">
        <dc:format>image/svg+xml</dc:format>
        <dc:type
           rdf:resource="http://purl.org/dc/dcmitype/StillImage" />
      </cc:Work>
    </rdf:RDF>
  </metadata>
  <defs
     id="defs3143" />
  <sodipodi:namedview
     pagecolor="#ffffff"
     bordercolor="#666666"
     borderopacity="1"
     objecttolerance="10"
     gridtolerance="10"
     guidetolerance="10"
     inkscape:pageopacity="0"
     inkscape:pageshadow="2"
     inkscape:window-width="640"
     inkscape:window-height="480"
     id="namedview3141"
     showgrid="true"
     inkscape:zoom="2.7586207"
     inkscape:cx="174"
     inkscape:cy="174"
     inkscape:current-layer="svg3135">
    <inkscape:grid
       type="xygrid"
       id="grid3147"
       empspacing="5"
       visible="true"
       enabled="true"
       snapvisiblegridlinesonly="true"
       spacingx="10px"
       spacingy="10px" />
  </sodipodi:namedview>
  <g
     id="g4083"
     transform="matrix(0.99981733,0.01911287,-0.01911287,0.99981733,3.369016,-3.2848556)">
    <path
       id="path3137"
       d="M 5.08,5.776 H 341.99 V 343.446 H 5.08 z"
       inkscape:connector-curvature="0"
       style="stroke:#000000;stroke-width:2" />
    <path
       id="path3139"
       d="M 282.734,40.554 C 282.734,32.178 289.7,25.389 298.294,25.389 302.42,25.389 306.378,26.983 309.294,29.829 312.214,32.671 313.854,36.529 313.854,40.551 313.854,48.927 306.887,55.716 298.294,55.716 289.7,55.716 282.734,48.926 282.734,40.55 z"
       inkscape:connector-curvature="0"
       style="stroke:#000000;stroke-width:2" />
    <rect
       transform="matrix(0.70710678,0.70710678,-0.70710678,0.70710678,0,0)"
       y="-22.521484"
       x="157.86813"
       height="70.30423"
       width="70.30423"
       id="rect3165"
       style="color:#000000;fill:none;stroke:#000000;stroke-width:7.03042269;stroke-linecap:round;stroke-linejoin:miter;stroke-miterlimit:4;stroke-opacity:1;stroke-dasharray:none;stroke-dashoffset:0;marker:none;visibility:visible;display:inline;overflow:visible;enable-background:accumulate" />
    <rect
       transform="matrix(0.70710678,0.70710678,-0.70710678,0.70710678,0,0)"
       y="-22.521484"
       x="228.17236"
       height="70.30423"
       width="70.30423"
       id="rect3167"
       style="color:#000000;fill:none;stroke:#000000;stroke-width:7.03042269;stroke-linecap:round;stroke-linejoin:miter;stroke-miterlimit:4;stroke-opacity:1;stroke-dasharray:none;stroke-dashoffset:0;marker:none;visibility:visible;display:inline;overflow:visible;enable-background:accumulate" />
    <rect
       transform="matrix(0.70710678,0.70710678,-0.70710678,0.70710678,0,0)"
       y="47.782742"
       x="157.86813"
       height="70.30423"
       width="70.30423"
       id="rect3169"
       style="color:#000000;fill:none;stroke:#000000;stroke-width:7.03042269;stroke-linecap:round;stroke-linejoin:miter;stroke-miterlimit:4;stroke-opacity:1;stroke-dasharray:none;stroke-dashoffset:0;marker:none;visibility:visible;display:inline;overflow:visible;enable-background:accumulate" />
    <rect
       transform="matrix(0.70710678,0.70710678,-0.70710678,0.70710678,0,0)"
       y="47.782742"
       x="228.17236"
       height="70.30423"
       width="70.30423"
       id="rect3171"
       style="color:#000000;fill:none;stroke:#000000;stroke-width:7.03042269;stroke-linecap:round;stroke-linejoin:miter;stroke-miterlimit:4;stroke-opacity:1;stroke-dasharray:none;stroke-dashoffset:0;marker:none;visibility:visible;display:inline;overflow:visible;enable-background:accumulate" />
    <path
       inkscape:connector-curvature="0"
       id="path3173"
       d="M 77.84213,155.90258 54.305844,179.43887 69.996701,179.43887 69.996701,210.82058 54.305844,210.82058 77.84213,234.35687 101.37842,210.82058 85.687562,210.82058 85.687562,179.43887 101.37842,179.43887 z"
       style="fill:#000000;fill-opacity:1;stroke:none" />
    <path
       inkscape:connector-curvature="0"
       id="path3173-1"
       d="M 166.78187,145.41713 143.24558,121.88085 143.24558,137.5717 111.86387,137.5717 111.86387,121.88085 88.32758,145.41713 111.86387,168.95342 111.86387,153.26256 143.24558,153.26256 143.24558,168.95342 z"
       style="fill:#000000;fill-opacity:1;stroke:none" />
    <path
       sodipodi:nodetypes="cccccccccccccccc"
       inkscape:connector-curvature="0"
       id="path3173-7"
       d="M 177.26732,155.90258 153.73103,179.43887 166.28372,179.43887 166.28372,210.82058 153.73103,210.82058 177.26732,234.35687 200.80361,210.82058 188.25092,210.82058 188.25092,179.43887 200.80361,179.43887 z M 172.56006,179.43887 181.97458,179.43887 181.97458,210.82058 172.56006,210.82058 z"
       style="fill:#000000;fill-opacity:1;stroke:none" />
    <path
       sodipodi:nodetypes="cccccccccccccccc"
       inkscape:connector-curvature="0"
       id="path3173-7-4"
       d="M 166.78187,244.84232 143.24558,221.30603 143.24558,233.85872 111.86387,233.85872 111.86387,221.30603 88.32758,244.84232 111.86387,268.37861 111.86387,255.82592 143.24558,255.82592 143.24558,268.37861 z M 143.24558,240.13506 143.24558,249.54958 111.86387,249.54958 111.86387,240.13506 z"
       style="fill:#000000;fill-opacity:1;stroke:none" />
    <rect
       transform="matrix(0.70710678,0.70710678,-0.70710678,0.70710678,0,0)"
       y="-35.487186"
       x="339.72888"
       height="70.30423"
       width="70.30423"
       id="rect3165-4"
       style="color:#000000;fill:none;stroke:#000000;stroke-width:7.03042269;stroke-linecap:round;stroke-linejoin:miter;stroke-miterlimit:4;stroke-opacity:1;stroke-dasharray:none;stroke-dashoffset:0;marker:none;visibility:visible;display:inline;overflow:visible;enable-background:accumulate" />
    <rect
       transform="matrix(0.70710678,0.70710678,-0.70710678,0.70710678,0,0)"
       y="-35.487186"
       x="339.72888"
       height="70.30423"
       width="70.30423"
       id="rect3165-8"
       style="color:#000000;fill:none;stroke:#000000;stroke-width:7.03042269;stroke-linecap:round;stroke-linejoin:miter;stroke-miterlimit:4;stroke-opacity:1;stroke-dasharray:none;stroke-dashoffset:0;marker:none;visibility:visible;display:inline;overflow:visible;enable-background:accumulate" />
    <rect
       transform="matrix(0.70710678,0.70710678,-0.70710678,0.70710678,0,0)"
       y="-19.334827"
       x="355.88123"
       height="37.999504"
       width="37.999504"
       id="rect3165-82"
       style="color:#000000;fill:none;stroke:#000000;stroke-width:6.27634287;stroke-linecap:round;stroke-linejoin:miter;stroke-miterlimit:4;stroke-opacity:1;stroke-dasharray:none;stroke-dashoffset:0;marker:none;visibility:visible;display:inline;overflow:visible;enable-background:accumulate" />
    <rect
       transform="matrix(0.70710678,0.70710678,-0.70710678,0.70710678,0,0)"
       y="-5.9997382"
       x="369.21634"
       height="11.329329"
       width="11.329329"
       id="rect3165-45"
       style="color:#000000;fill:#000000;fill-opacity:1;stroke:none;stroke-width:1.4440676;marker:none;visibility:visible;display:inline;overflow:visible;enable-background:accumulate" />
    <rect
       transform="matrix(0.92366496,0.38320106,-0.38320106,0.92366496,0,0)"
       y="-30.210815"
       x="230.45258"
       height="60"
       width="100"
       id="rect4069"
       style="color:#000000;fill:none;stroke:#000000;stroke-width:4;stroke-miterlimit:4;stroke-opacity:1;stroke-dasharray:none;marker:none;visibility:visible;display:inline;overflow:visible;enable-background:accumulate" />
  </g>
</svg>
