<svg xmlns="http://www.w3.org/2000/svg" viewBox="0 0 348 348" fill="none"><path d="M5.079 5.776h336.913v337.67H5.08z" stroke-width="2" stroke="#000"/><path d="M282.734 40.554c0-8.376 6.966-15.165 15.56-15.165 4.126 0 8.084 1.597 11.001 4.441 2.918 2.844 4.558 6.702 4.558 10.724 0 8.376-6.966 15.165-15.56 15.165-8.593 0-15.559-6.79-15.559-15.165z" stroke-width="2" stroke="#000"/><path d="M83.553 81.572h238.275v178.054H83.554z" stroke="#000" stroke-width="7.646"/><path d="M28.235 125.324h30.351v90.992H28.235z" stroke="#000" stroke-width="3.334"/><path d="M191.53 279.729v30.351H82.183v-30.35z" stroke="#000" stroke-width="3.654"/><path d="M323.186 279.782v30.245H212.953v-30.245z" stroke="#000" stroke-width="3.663"/><path d="M44.002 217.368h-1v36.202h1zM80.204 253.57v-1H44.002v1z" stroke="#000" stroke-width=".825"/><text style="line-height:1.25;-inkscape-font-specification:Consolas" x="96.77" y="301.169" font-weight="400" font-size="16" font-family="Consolas" letter-spacing="0" word-spacing="0" fill="#000"><tspan x="96.77" y="301.169" style="line-height:1.25;-inkscape-font-specification:'Consolas Bold'" font-weight="700" font-size="18.667">PREVIOUS</tspan></text><text style="line-height:1.25;-inkscape-font-specification:Consolas" x="248.737" y="300.51" font-weight="400" font-size="16" font-family="Consolas" letter-spacing="0" word-spacing="0" fill="#000"><tspan x="248.737" y="300.51" style="line-height:1.25;-inkscape-font-specification:'Consolas Bold'" font-weight="700" font-size="18.667">NEXT</tspan></text><path d="M58.595 174.802v-1h-30.42v1z" stroke="#000" stroke-width=".756"/></svg>