<?xml version="1.0" encoding="UTF-8" standalone="no"?>
<svg
   fill="none"
   viewBox="0 0 348 348"
   version="1.1"
   id="svg834"
   sodipodi:docname="Dr. Doctor_Ja.svg"
   inkscape:version="1.1.2 (b8e25be8, 2022-02-05)"
   xmlns:inkscape="http://www.inkscape.org/namespaces/inkscape"
   xmlns:sodipodi="http://sodipodi.sourceforge.net/DTD/sodipodi-0.dtd"
   xmlns="http://www.w3.org/2000/svg"
   xmlns:svg="http://www.w3.org/2000/svg">
  <defs
     id="defs838">
    <rect
       x="66.2592"
       y="355.7952"
       width="133.0752"
       height="66.2592"
       id="rect1507" />
  </defs>
  <sodipodi:namedview
     id="namedview836"
     pagecolor="#ffffff"
     bordercolor="#666666"
     borderopacity="1.0"
     inkscape:pageshadow="2"
     inkscape:pageopacity="0.0"
     inkscape:pagecheckerboard="0"
     showgrid="false"
     inkscape:zoom="0.61420857"
     inkscape:cx="100.12885"
     inkscape:cy="275.96489"
     inkscape:window-width="1440"
     inkscape:window-height="847"
     inkscape:window-x="0"
     inkscape:window-y="25"
     inkscape:window-maximized="0"
     inkscape:current-layer="text7897" />
  <path
     stroke="#000"
     stroke-width="2"
     d="M5.079 5.776h336.913v337.67H5.08z"
     id="path824" />
  <path
     stroke="#000"
     stroke-width="2"
     d="M282.734 40.554c0-8.376 6.966-15.165 15.56-15.165 4.126 0 8.084 1.597 11.001 4.441 2.918 2.844 4.558 6.702 4.558 10.724 0 8.376-6.966 15.165-15.56 15.165-8.593 0-15.559-6.79-15.559-15.165z"
     id="path826" />
  <path
     fill="#000"
     d="M68.452 152.376c-.378-.439-.568-1.765-.617-4.296l-.07-3.66-1.571-.678c-3.494-1.507-4.946-3.825-5.026-8.023-.042-2.205.113-2.9.925-4.145 1.043-1.6 1.044-1.596-.812-3.556-2.571-2.715-3.301-9.42-1.271-11.666.425-.47.77-1.032.766-1.249-.004-.217-.835-1.417-1.846-2.669-3.14-3.884-3.531-4.864-3.627-9.062-.076-3.382.01-3.873 1.002-5.672.597-1.084 1.587-2.523 2.2-3.199l1.113-1.228-1.46-1.682c-.803-.925-1.93-2.64-2.504-3.813-.924-1.887-1.056-2.644-1.153-6.612-.094-3.886.006-4.749.758-6.498.477-1.11 1.371-2.519 1.987-3.132 1.086-1.08 1.462-2.145.754-2.131-.19.003-1.33-.926-2.534-2.066-3.337-3.162-5.136-8.704-3.86-11.892l.568-1.421-1.467-1.145c-1.44-1.124-2.244-2.333-3.443-5.175l-.6-1.424-1.964.67c-1.881.64-2.05.636-4.03-.113a11.674 11.674 0 0 0-4.261-.717c-1.545.047-2.76-.193-4.095-.808-1.044-.481-2.679-.906-3.631-.944-1.162-.046-2.461-.497-3.938-1.366-1.574-.926-2.68-1.294-3.862-1.284-1.871.015-4.942-1.407-6.57-3.043l-1.034-1.039 2.158-.526c2.629-.641 9.586-4.29 14.28-7.49a4637.21 4637.21 0 0 0 8.85-6.055c6.612-4.533 7.11-4.802 10.148-5.46 7.032-1.522 12.658 1.614 13.676 7.626.393 2.316-.22 4.365-1.886 6.298-.705.818-1.279 1.647-1.275 1.841.004.195.576.815 1.272 1.378 1.022.828 1.525.977 2.619.778 2.052-.373 2.361-.93 2.333-4.2-.019-2.205-.228-3.307-.863-4.535-1.738-3.362-.848-6.995 2.11-8.614 4.007-2.193 8.412-.166 8.978 4.132.159 1.202-.04 2.199-.772 3.885-.867 1.993-.965 2.68-.81 5.668l.178 3.4 1.833.083c1.685.076 4.196-.786 4.184-1.438-.003-.135-.427-.78-.943-1.434-2.302-2.916-2.586-7.713-.636-10.74 2.42-3.755 5.759-5.029 10.734-4.096 4.568.856 6.497 1.959 17.693 10.118 2.68 1.954 7.178 4.817 9.995 6.363 4.874 2.674 5.22 2.8 7.164 2.62 1.88-.177 2.045-.124 2.06.647.021 1.144-2.404 4-4.22 4.971-.818.437-2.175.808-3.014.824-.84.016-2.516.505-3.725 1.086-1.788.86-2.523 1.014-3.955.827-1.248-.163-2.006-.062-2.608.35-.964.658-3.336 1.173-6.469 1.404-6.448.475-8.61.698-8.958.922-.213.137-.622.842-.908 1.566-.578 1.461-2.13 3.262-3.745 4.347-.972.653-1.055.913-1.011 3.188.066 3.482-1.154 6.184-4.341 9.614l-2.54 2.732 1.644 1.89c2.446 2.811 3.24 4.753 3.314 8.107.115 5.237-1.117 8.212-4.731 11.423l-1.819 1.615 1.221 1.257c2.889 2.974 3.146 3.605 3.202 7.847.063 4.794-.544 6.239-3.884 9.258-2.14 1.933-2.87 3.15-1.878 3.131.226-.004.878.992 1.448 2.214 1.8 3.853 1.09 7.909-2.027 11.59-.817.964-1.484 1.85-1.482 1.969.002.118.455.853 1.006 1.632.81 1.147 1.01 1.893 1.049 3.915.084 4.394-2.588 7.967-6.007 8.032l-1.13.022-.182 4.373c-.167 4.015-.426 4.966-1.366 5.007-.134.005-.49-.275-.79-.624zm1.027-10.119c-.108-5.69-.306-8.742-.564-8.737-.261.005-.322 3.095-.176 8.965.128 5.09.371 8.862.565 8.738.188-.122.266-4.156.175-8.966zm-1.824-4.592c-.112-3.443-.639-4.126-1.631-2.114-.71 1.44-.44 4.055.62 5.998l.635 1.163.239-.979c.13-.539.193-2.369.137-4.068zm4.52 3.615c.535-1.046.417-4.84-.167-5.402-.888-.855-1.042-.454-1.105 2.868-.046 2.41.066 3.313.41 3.305.26-.005.648-.352.862-.77zm3.138-1.907c2.427-4.098 1.412-7.189-3.602-10.974l-2.367-1.787c-.886-.668-2.114-1.913-2.73-2.766-.987-1.368-1.104-1.82-.996-3.848l.122-2.299-1.64-.994c-.902-.547-1.924-.99-2.271-.983-1.66.032-2.407 5.066-1.168 7.88 1.189 2.698 4.826 5.74 8.6 7.19 1.972.758 4.26 3.144 4.604 4.8.284 1.37.146 3.345-.367 5.248-.237.878-.198.923.373.436.35-.299 1-1.155 1.442-1.903zm-11.225-.268c-.36-2.61-.006-4.325 1.165-5.637 1.149-1.287.975-2.105-.522-2.45-.871-.201-1.228-.038-1.975.903-.807 1.018-.887 1.444-.696 3.739.148 1.773.498 3.027 1.109 3.975.49.761.957 1.383 1.037 1.381.08-.001.026-.861-.118-1.91zm11.388-12.63c1.99-1.863 2.964-4.065 2.916-6.585-.07-3.735-2.434-6.87-7.39-9.8-2.86-1.691-5.626-4.037-6.36-5.394-.907-1.673-.785-4.278.274-5.905 1.056-1.623 1.086-1.577-2.48-3.715-2.4-1.44-2.565-1.374-4.128 1.632-1.499 2.883-1.633 5.843-.425 9.37.792 2.31 1.345 3.154 3.38 5.162 1.475 1.456 3.408 2.87 4.912 3.593 4.85 2.333 7.23 5.376 5.883 7.519-.34.54-.585 1.775-.565 2.84.061 3.203 1.454 3.652 3.983 1.283zm-5.52-2.428c.022-3.215-.38-4.574-1.348-4.556-.526.01-.313 5.237.236 5.766.825.795 1.1.497 1.111-1.21zm-2.558-3.655c-.168-.647-.19-.646-.46.008-.157.379-.145.992.025 1.365.295.643.318.643.46-.01.083-.376.071-.99-.025-1.363zm9.994-9.547c2.705-1.716 4.323-4.833 4.498-8.665.118-2.576.016-3.053-1.12-5.256-.688-1.332-1.66-2.777-2.16-3.212-1.307-1.136-6.982-4.84-8.602-5.614-.758-.362-2.489-1.364-3.848-2.226-2.122-1.346-2.585-1.855-3.285-3.613-1.33-3.342-1.11-5.67.734-7.776 1.055-1.203.673-1.81-1.922-3.057l-2.235-1.075-1.338 1.585c-2.077 2.462-2.752 4.503-2.683 8.117.051 2.68.235 3.479 1.294 5.592 1.443 2.882 4.13 5.567 7.393 7.39 4.941 2.758 8.944 5.51 9.664 6.642.415.651.767 1.85.783 2.662.032 1.553-.999 4.09-2.019 4.97-1.016.876-.656 1.878 1.102 3.061 2.004 1.35 2.306 1.387 3.744.475zm-7.058-5.81c.02-5.27-.005-5.385-1.288-6.018l-1.18-.582.077 4.086c.07 3.706.16 4.16.948 4.867.48.43.997.646 1.152.48.155-.164.286-1.44.291-2.833zm2.459-1.287c.036-2.13-.756-1.868-.849.281-.064 1.507.02 1.844.372 1.483.25-.258.464-1.051.477-1.764zm-5.953-2.226c-.576-.555-.988 1.052-.603 2.352.301 1.02.314 1.01.657-.462.233-1 .215-1.63-.054-1.89zm12.133-12.82c3.208-2.45 4.693-5.649 4.663-10.04-.012-1.78-.252-2.985-.808-4.054-.76-1.463-4.151-5.207-4.706-5.196-.148.002-1.408-.663-2.8-1.478-1.418-.832-4.57-2.09-7.175-2.862-5.248-1.557-8.74-3.387-10.513-5.51-.964-1.154-1.25-1.913-1.42-3.774-.225-2.454.067-2.844 1.216-1.623 1.598 1.7 5.504 1.131 7.147-1.041.865-1.143.768-1.96-.28-2.371-2.867-1.124-6.251-.681-8.81 1.152-3.241 2.322-4.105 6.142-2.196 9.708 1.8 3.362 4.306 5.158 12.804 9.173 7.154 3.38 8.442 4.177 9.569 5.925 1.547 2.4.675 6.183-2.012 8.723-1.496 1.415-1.627 2.024-.619 2.872.929.781 2.928 1.773 3.588 1.78.293.003 1.35-.62 2.352-1.384zM59.078 51.994c-.492-.473.126-.934 1.282-.957.63-.012 1.149.154 1.153.368.004.215-.241.395-.545.4a3.667 3.667 0 0 0-1.088.228c-.295.12-.655.102-.802-.039zm11.77 29.574c.184-5.088.176-5.144-.744-5.827-1.205-.893-2.31-1.228-2.657-.805-.152.185-.13 2.665.047 5.51.312 5.013.353 5.19 1.307 5.687 1.804.94 1.85.836 2.046-4.565zm3.149 1.838c.99-1.575 1.036-3.095.134-4.484-.454-.699-.996-1.16-1.205-1.026-.495.32-.382 6.435.12 6.426.209-.004.637-.416.951-.916zm-7.645-3.05c-.057-2.992-.18-3.7-.641-3.691-.666.012-1.161.883-1.504 2.64-.17.878.001 1.779.574 3.011 1.26 2.706 1.65 2.217 1.571-1.96zm13.13-12.971c3.668-1.99 6.75-6.586 6.982-10.412.133-2.177.054-2.45-1.124-3.877-1.954-2.369-4.018-3.374-6.854-3.338-2.585.032-4.623.827-4.804 1.874-.062.358.409 1.212 1.045 1.898 1.01 1.087 1.456 1.263 3.479 1.37 2.062.11 2.452.009 3.508-.914.652-.571 1.295-1.04 1.428-1.043.33-.006-.114 3.134-.58 4.104-1.349 2.809-4.869 5.845-8.064 6.956-1.977.687-1.726 1.417.952 2.767 2.406 1.214 2.815 1.276 4.033.615zm-1.3-15.786c-1.104-.266-.8-.886.447-.91 1.297-.024 1.903.542.981.916-.335.136-.64.227-.676.203-.036-.024-.375-.118-.752-.209zm-7.018 12.39c.135-1.424.228-4.141.459-13.361.14-5.577.318-10.35.396-10.608.078-.257.134-2.538.124-5.07l-.019-4.603-2.675-.218c-1.47-.12-2.728-.162-2.793-.095-.065.068-.059 7.502.012 16.52.103 12.87.237 16.465.625 16.705.646.401 2.716 1.133 3.337 1.18a.502.502 0 0 0 .534-.45zm4.323-1.516c1.762-.85 4.497-3.27 4.484-3.967-.005-.239-.272-.43-.593-.424-.322.007-.545-.19-.496-.436.05-.247-.522-.601-1.268-.788-.746-.188-1.987-.875-2.758-1.527l-1.4-1.186-.071 2.461c-.039 1.354.018 2.547.126 2.652.11.104.991-.098 1.96-.45 2.4-.868 2.24-.266-.25.943-1.969.956-2.523 1.76-2.038 2.955.289.711.363.704 2.304-.233zm-9.583-.697c-.287-.7-5.037-3.341-5.978-3.323-.676.012-.63.148.4 1.184 2.43 2.44 6.309 3.929 5.578 2.14zm-.265-2.555c.268-1.18.29-4.781.028-4.776-.137.002-.8.438-1.472.967-.673.53-1.818 1.216-2.547 1.527l-1.323.564 2.33 1.148c2.876 1.418 2.794 1.402 2.984.57zm23.396-8.526c.902-.978 1.923-2.228 2.268-2.778.62-.985.6-1.03-1.302-3.004-1.062-1.103-2.067-2.06-2.234-2.129-.166-.068-1.082.589-2.036 1.46-2.58 2.36-4.177 3.04-7.337 3.12-1.5.038-3.168-.01-3.706-.108-.894-.16-.975-.06-.951 1.188.028 1.503-.022 1.491 3.092.694 2.463-.631 5.838.243 7.983 2.067.812.691 1.725 1.258 2.03 1.262.305.003 1.292-.795 2.193-1.772zm-34.575.692c.242-.303 1.342-.96 2.446-1.459 1.647-.746 2.446-.876 4.455-.727 1.346.1 2.78.351 3.186.559.922.47 1.226.17 1.2-1.19l-.02-1.063-3.215.072c-2.462.054-3.638-.114-5.026-.718-1.683-.734-4.318-3.122-5.353-4.85-.412-.689-.574-.598-2.218 1.236-.976 1.088-1.77 2.205-1.764 2.482.02 1.082 1.678 3.543 3.267 4.852 1.82 1.498 2.373 1.645 3.042.806zm43.372-5.198c.927-.376.735-.8-.766-1.688-.75-.445-2.197-2.01-3.214-3.48-1.652-2.384-1.985-2.668-3.106-2.647-2.734.052-2.837 1.703-.27 4.345 1.951 2.008 3.44 2.933 5.436 3.38.647.143 1.205.279 1.241.3.037.022.342-.073.679-.21zm-33.46-.9c1.054-.233 1.278-1.191 1.21-5.163l-.057-3.21-2.33.29-2.329.288-1.79-1.724c-2.226-2.142-2.35-3.266-.536-4.844 1.745-1.518 2.522-3.26 2.477-5.561-.031-1.668-.23-2.125-1.528-3.512-1.977-2.111-4.53-2.996-8.183-2.833-2.387.106-3.21.354-6.007 1.813-1.784.93-4.217 2.37-5.408 3.2l-5.387 3.756c-7.018 4.892-10.665 7.02-17.488 10.204l-1.54.72 1.114.557c2.04 1.02 5.06 1.014 7.75-.017 4.543-1.74 16.632-9.666 17.742-11.631.91-1.61 1.413-1.208 1.458 1.164.087 4.54 4.302 8.445 9.028 8.363.697-.012 1.27.154 1.274.368.004.214-.191.393-.434.398-.706.014-.082 2.928.915 4.274 1.152 1.555 3.607 3.02 5.65 3.372 1.507.259 2.166.218 4.398-.273zm42.624-.588c-.004-.209-.495-.664-1.09-1.011-2.815-1.638-4.772-3.036-6.262-4.472-3.258-3.141-3.122-3.073-4.464-2.245-.65.4-1.176 1.014-1.17 1.364.02 1.001 4.537 4.894 6.826 5.883 2.118.914 6.175 1.23 6.16.481zm-61.569-.025c.757-.402 2.193-1.49 3.192-2.418 2.958-2.75 3.057-3.637.456-4.074-1.426-.24-1.542-.167-4.044 2.51-1.417 1.517-3.053 3.079-3.635 3.472-1.222.826-1.33 1.277-.36 1.516.996.246 2.815-.17 4.391-1.006zm35.256.086c2.272-.618 4.598-2.75 5.385-4.934.513-1.423.538-1.869.133-2.337-.274-.32-.434-.587-.355-.596.08-.009 1.487-.08 3.127-.157 2.654-.126 3.164-.279 4.651-1.397 2.586-1.946 3.923-5.252 3.236-7.998-.332-1.326.97-.476 1.587 1.035.677 1.66 3.798 4.325 10.27 8.77 5.25 3.605 11.591 5.016 14.277 3.177 1.448-.992 1.314-1.604-.46-2.1-3.815-1.064-11.174-5.362-19.309-11.277-10.472-7.615-14.095-9.01-19.998-7.697-1.242.276-3.591 2.538-4.18 4.026-1.079 2.726-.285 5.88 2.068 8.214l1.484 1.472-.85 1.302c-1.736 2.657-3.98 3.526-6.964 2.699l-1.078-.3.075 3.929.075 3.928 1.273.342c1.771.474 3.559.442 5.553-.1zm32.692-1.207c.656-.266.836-1.339.222-1.327-.754.014-8.61-5.302-11.428-7.734-3.02-2.605-3.75-2.938-4.132-1.879-.571 1.577-.148 2.595 1.897 4.558 4.768 4.58 10.811 7.449 13.441 6.382zm-74.618-.087c.959-.512 3.084-1.973 4.723-3.246l2.98-2.315-1.28-1.27c-.703-.698-1.417-1.267-1.587-1.264-.17.003-1.216.856-2.325 1.896-2.57 2.41-5.409 4.552-7.497 5.657-1.965 1.039-2.067 1.534-.358 1.718 1.873.201 3.39-.133 5.344-1.176zm-6.475-1.98c2.076-1.041 10.593-6.672 10.587-7-.011-.581-1.38-3.753-1.618-3.749-.167.004-2.53 1.742-5.25 3.862-4.3 3.353-9.613 6.557-10.912 6.582-.924.017-.317.787.873 1.106 2.254.605 3.94.39 6.32-.801zm40.897-14.462c2.72-3.387.547-7.82-3.792-7.737-1.681.032-2.106.214-3.235 1.387-1.113 1.157-1.295 1.615-1.264 3.203.031 1.667.201 2.005 1.685 3.364 1.567 1.435 1.75 1.5 3.616 1.285 1.619-.187 2.146-.452 2.99-1.502zm-3.716-.272c-.138-.214.11-.51.551-.66 1.19-.402 2.178-2.784 1.553-3.742-1-1.536-.06-2.202 1.207-.855.937.997.865 2.941-.154 4.126-.94 1.094-2.761 1.746-3.157 1.131z"
     id="path828" />
  <path
     stroke="#000"
     stroke-width="3"
     d="M120 58h60v25h-60zm80 0h60v25h-60zm-80 35h60v40h-60zm80 0h60v40h-60zm-80 50h60v25h-60zm80 0h60v25h-60zM45 183h30v30H45zm40 0h190v30H85zm200 0h30v30h-30zM45 223h30v30H45zm40 0h190v30H85zm200 0h30v30h-30zM45 263h30v30H45zm40 0h190v30H85zm200 0h30v30h-30zM45 303h30v30H45zm40 0h190v30H85zm200 0h30v30h-30z"
     id="path830" />
  <text
     xml:space="preserve"
     id="text1505"
     style="line-height:1.25;font-family:'Noto Sans Kharoshthi';font-size:36px;-inkscape-font-specification:'Noto Sans Kharoshthi, Normal';white-space:pre;shape-inside:url(#rect1507)" />
  <g
     aria-label="症状
病名
治療薬
投薬量"
     transform="scale(1.0007305,0.99927004)"
     id="text7897"
     style="font-size:32px;line-height:1.25;font-family:'Noto Sans Kharoshthi';-inkscape-font-specification:'Noto Sans Kharoshthi, Normal';text-align:center;text-anchor:middle;fill:#000000;stroke-width:1.00073">
    <path
       d="m 178.92383,188.23138 h -20.35938 v 8.39063 q 0,6.23437 -1.32812,9.625 -1.32813,3.39062 -3.71875,5.40625 l -1.92188,-1.5 q 4.28125,-3.82813 4.57813,-10.75 l -4.20313,2.48437 -1.59375,-1.9375 q 3.3125,-1.64062 5.76563,-3.23437 v -10.82813 h 10.01562 v -2.78125 h 2.51563 v 2.78125 h 10.25 z m -22.98438,5.82813 -2.17187,1.21875 q -0.39063,-3.29688 -3.32813,-5.95313 l 2.01563,-1.1875 q 2.85937,2.375 3.48437,5.92188 z m 23.6875,15.90625 h -22.25 v -2.34375 h 3.78125 v -10.5 h 2.4375 v 10.5 h 4.125 v -13.76563 h -8.48437 v -2.32812 h 19.04687 v 2.32812 h -8.125 v 5.09375 h 6.9375 v 2.34375 h -6.9375 v 6.32813 h 9.46875 z"
       id="path11457" />
    <path
       d="m 211.14258,209.93451 -1.5625,1.8125 q -6.76563,-5.26563 -8,-16.375 -1.34375,11.34375 -8.35938,16.1875 l -1.59375,-2.01563 q 6.89063,-4.78125 7.70313,-14.84375 h -6.84375 v -2.34375 h 6.875 v -9.125 h 2.4375 v 9.125 h 8.42187 l 0.0312,2.34375 h -6.4375 q 0.8125,9.57813 7.32813,15.23438 z m -20,1.6875 h -2.29688 v -11.39063 l -4.76562,3.96875 -1.60938,-2.04687 q 2.5,-1.5625 6.375,-4.9375 v -13.98438 h 2.29688 z m 17.76562,-21.34375 -2.07812,1.28125 q -1.28125,-2.875 -4.10938,-5.5 l 1.76563,-1.34375 q 2.6875,2.59375 4.42187,5.5625 z m -21.09375,4.15625 -2.20312,1.375 q -1.1875,-4.92188 -3.04688,-7.0625 l 1.89063,-1.21875 q 2.25,2.40625 3.35937,6.90625 z"
       id="path11459" />
    <path
       d="m 178.92383,228.05116 h -21.54688 v 11.79688 q 0,7.85937 -4.92187,12.03125 l -1.98438,-2.07813 q 4.48438,-3.39062 4.45313,-10.14062 l -3.20313,2.71875 -1.4375,-2.375 q 3.14063,-2.04688 4.67188,-3.42188 v -10.875 h 10.71875 v -2.875 h 2.4375 v 2.875 h 10.8125 z m -24.125,6.48438 -2.21875,0.73437 q -0.64063,-3.14062 -1.92188,-6.17187 l 2.21875,-0.76563 q 1.32813,2.95313 1.92188,6.20313 z m 23.96875,-1.8125 h -8.90625 v 3.21875 h 7.78125 v 12.73437 q 0,1.1875 -0.70313,2.03125 -0.70312,0.85938 -1.79687,0.85938 h -3.35938 l -0.82812,-2.4375 3.35937,0.0625 q 0.89063,0 0.89063,-0.98438 v -9.92187 h -5.46875 q 0.0312,0.875 -0.25,2.35937 2.90625,1.51563 5.5625,4.75 l -1.76563,1.71875 q -2.57812,-3.1875 -4.34375,-4.3125 -1.5625,3.39063 -4.96875,5.46875 l -1.78125,-1.85937 q 2.375,-1 3.75,-3.23438 1.39063,-2.25 1.39063,-4.89062 h -5.34375 v 13.6875 h -2.42188 v -16.03125 h 7.875 v -3.21875 h -8.57812 v -2.34375 h 19.90625 z"
       id="path11461" />
    <path
       d="m 207.5957,228.87929 q 0,0.26562 -1.25,1.89062 -1.23437,1.60938 -3.15625,3.15625 -1.90625,1.54688 -4.34375,2.82813 -2.4375,1.28125 -5.39062,2.23437 h 13.95312 v 12.85938 h -2.4375 v -1.78125 h -12 v 1.78125 h -2.4375 v -11.96875 q -4.25,1.15625 -5.59375,1.34375 l -2.07812,-2.17188 q 7.92187,-1.46875 12.57812,-3.45312 -1.04687,-1.375 -3.65625,-2.34375 l 2.26563,-1.75 q 2.375,1.26562 3.5625,3 4.04687,-1.90625 6.84375,-5.375 h -9.53125 q -3.51563,3.04687 -8.48438,5.09375 l -2.53125,-1.92188 q 9,-3.125 13.15625,-9.34375 l 2.20313,1.15625 q -0.6875,1.1875 -1.98438,2.6875 h 10.3125 z m -2.625,18.84375 v -6.40625 h -12 v 6.40625 z"
       id="path11463" />
    <path
       d="m 163.75195,275.91782 -2.10937,1.375 q -1.03125,-1.75 -1.1875,-1.95313 -0.25,0 -16.42188,0.90625 l -0.89062,-2.46875 3.10937,-0.125 q 3.10938,-4.78125 5.53125,-10.5 l 2.53125,1.1875 q -3.03125,5.95313 -5.4375,9.3125 l 10.20313,-0.35937 q -2.09375,-2.21875 -4.45313,-3.9375 l 2.07813,-1.46875 q 3.90625,2.75 7.04687,8.03125 z m -19.29687,-7.14063 -1.625,2.04688 q -1.85938,-2.9375 -5.82813,-5.01563 l 1.4375,-1.76562 q 3.90625,1.625 6.01563,4.73437 z m -2.23438,7.20313 -1.60937,2.01562 q -2.17188,-2.76562 -5.71875,-4.60937 l 1.375,-1.89063 q 3.6875,1.75 5.95312,4.48438 z m 18.59375,15.90625 h -2.59375 v -2.4375 h -10.14062 v 2.4375 h -2.53125 v -13.59375 h 15.26562 z m -2.65625,-4.76563 v -6.5 h -10.07812 v 6.5 z m -13.60937,-7.14062 q -3.48438,7.75 -7.64063,11.51562 l -2.3125,-1.40625 q 4.45313,-3.76562 7.84375,-11.35937 z"
       id="path11465" />
    <path
       d="m 195.9082,277.32407 -1.5625,1.98437 q -2.89062,-0.9375 -3.35937,-1.40625 v 6.71875 h -5.25 v 4.67188 q 0,1.5 -0.53125,2.0625 -0.51563,0.5625 -1.64063,0.5625 h -3.26562 l -0.70313,-2.23438 2.90625,0.0625 q 0.79688,0 0.79688,-0.85937 v -4.26563 h -5.53125 v -6.875 q -0.5625,0.5 -2.90625,1.71875 l -0.90625,-0.79687 q 0,8.28125 -4.5,13.125 l -2.01563,-1.70313 q 4.04688,-4.14062 4.09375,-10.54687 l -3.35937,2.07812 -1.64063,-1.82812 q 1.85938,-0.9375 5,-2.90625 v -2.15625 l -1.60937,1.125 q -0.96875,-2.65625 -3.26563,-4.28125 l 1.85938,-1.375 q 2,1.46875 2.98437,3.57812 h 0.0312 v -8.25 h 10.42188 v -2.25 h 2.53125 v 2.25 h 10.5625 v 2.32813 h -21.09375 v 9.34375 q 0.9375,-0.20313 2.75,-1.625 -0.375,-0.57813 -2.60938,-1.60938 l 1.46875,-1.40625 h -0.64062 v -2.32812 h 6.6875 l 0.82812,-2.21875 2.375,0.57812 -0.60937,1.64063 h 9.5625 v 2.32812 h -1.3125 v 0.0625 l 1.4375,1.125 q -0.85938,1.10938 -2.10938,1.92188 1.25,0.82812 4.125,1.65625 z m -3.9375,-4.76563 h -3.67187 q 0.875,1.10938 1.6875,1.82813 0.57812,-0.20313 1.98437,-1.82813 z m -4.40625,2.5 q -0.53125,-0.54687 -1.95312,-2.5 h -2.65625 q -1.60938,2.10938 -2.17188,2.46875 v 0.0312 z m -7.42187,-2.5 h -3.9375 v 0.0625 q 1.17187,0.46875 2.14062,1.64063 0.625,-0.45313 1.79688,-1.70313 z m 8.40625,6.07813 v -1.25 h -8.34375 v 1.25 z m 0,3.65625 v -1.4375 h -8.34375 v 1.4375 z m -7,4.03125 q -3.15625,3.14062 -7.26563,3.96875 l -1.375,-2.21875 q 3.75,-0.28125 7.125,-3.29688 z m 14.26562,2.29687 -1.5625,1.73438 q -3.95312,-3.07813 -7.29687,-3.5625 l 1.4375,-1.84375 q 4.46875,0.90625 7.42187,3.67187 z"
       id="path11467" />
    <path
       d="m 226.76758,267.40219 h -6.92188 v 1.92188 h -2.5 v -1.92188 h -8.64062 v 1.92188 h -2.45313 v -1.92188 h -6.89062 v -2.32812 h 6.89062 v -2.14063 h 2.45313 v 2.14063 h 8.64062 v -2.04688 h 2.5 v 2.04688 h 6.92188 z m 1.04687,21.03125 -1.5625,2.07813 q -8.0625,-1.76563 -12,-5.85938 v 7.42188 h -2.4375 v -7.21875 q -4.71875,4.51562 -11.78125,5.6875 l -1.40625,-2.17188 q 5.71875,-0.82812 10.125,-3.84375 v -0.0625 h -8.71875 v -2.34375 h 11.78125 v -1.59375 h -3.48437 v -10.75 h 3.14062 q 0.3125,-0.65625 0.73438,-2.20312 l 2.42187,0.46875 q -0.53125,1.4375 -0.67187,1.73437 h 3.9375 v 10.75 h -3.67188 l 0.0312,1.59375 h 11.79688 v 2.34375 h -8.79688 v 0.0625 q 4.29688,2.90625 10.5625,3.90625 z M 215.4707,273.90219 v -1.82812 h -4.78125 v 1.82812 z m 0,4.32813 v -2.01563 h -4.78125 v 2.01563 z m 10.8125,0.82812 -1.40625,1.92188 q -3.82812,-1.70313 -5.95312,-4.17188 l 1.5625,-1.4375 -1.5625,-1.65625 q 3.51562,-1.75 5.25,-4.76562 l 1.95312,1.5 q -2.04687,3.21875 -5.51562,4.98437 2.375,2.23438 5.67187,3.625 z m -18.98437,-3.20312 q -1.71875,3.03125 -6.23438,5.46875 l -1.5625,-1.85938 q 4.5625,-2.39062 6.04688,-5.01562 -1.92188,-2.23438 -5.51563,-3.29688 l 1.3125,-1.95312 q 3.34375,0.92187 5.89063,3.54687 l -1.375,1.73438 z"
       id="path11469" />
    <path
       d="m 146.18945,311.95635 h -3.6875 v 6.40625 l 3.59375,-1.1875 v 2.32812 q -0.45312,0.23438 -3.59375,1.28125 v 8.57813 q 0,1.0625 -0.75,1.8125 -0.73437,0.76562 -2.03125,0.78125 l -2.9375,0.0312 -0.8125,-2.40625 q 0.5625,0.14062 3.39063,0.14062 0.71875,0 0.71875,-0.73437 v -7.4375 q -2.32813,0.85937 -3.71875,1.21875 l -1.5,-2.10938 q 3,-0.6875 5.21875,-1.46875 v -7.23437 h -4.17188 v -2.34375 h 4.17188 v -5.90625 h 2.42187 v 5.90625 h 3.6875 z m 17.07813,-0.85938 q -0.57813,3.85938 -2.59375,3.85938 h -2.26563 q -1.125,0 -1.79687,-0.64063 -0.67188,-0.65625 -0.67188,-1.78125 v -5.70312 h -4.73437 q 0,3.17187 -0.21875,4.57812 -0.20313,1.40625 -1.21875,2.73438 -1,1.3125 -2.5,2.23437 l -1.95313,-1.73437 q 3.46875,-2.04688 3.46875,-5.03125 v -5.10938 h 9.625 v 7.45313 q 0,0.67187 0.64063,0.67187 h 0.89062 q 0.78125,0 0.96875,-2.71875 z m 0.60937,18.75 -1.5625,2.23438 q -3.67187,-1 -8.45312,-4.76563 -3.75,3.10938 -8.51563,4.64063 l -1.625,-2.14063 q 5.59375,-1.76562 8.42188,-4.26562 -2.4375,-2.82813 -3.8125,-6.65625 h -1.67188 v -2.32813 h 13.51563 q -0.40625,5.09375 -4.39063,9.09375 3.4375,2.89063 8.09375,4.1875 z m -6.65625,-10.95312 h -6.29687 q 1.39062,3.60937 3.0625,5 2.40625,-2.35938 3.23437,-5 z"
       id="path11471" />
    <path
       d="m 194.76758,307.53447 h -6.92188 v 1.92188 h -2.5 v -1.92188 h -8.64062 v 1.92188 h -2.45313 v -1.92188 h -6.89062 v -2.32812 h 6.89062 v -2.14063 h 2.45313 v 2.14063 h 8.64062 v -2.04688 h 2.5 v 2.04688 h 6.92188 z m 1.04687,21.03125 -1.5625,2.07813 q -8.0625,-1.76563 -12,-5.85938 v 7.42188 h -2.4375 v -7.21875 q -4.71875,4.51562 -11.78125,5.6875 l -1.40625,-2.17188 q 5.71875,-0.82812 10.125,-3.84375 v -0.0625 h -8.71875 v -2.34375 h 11.78125 v -1.59375 h -3.48437 v -10.75 h 3.14062 q 0.3125,-0.65625 0.73438,-2.20312 l 2.42187,0.46875 q -0.53125,1.4375 -0.67187,1.73437 h 3.9375 v 10.75 h -3.67188 l 0.0312,1.59375 h 11.79688 v 2.34375 h -8.79688 v 0.0625 q 4.29688,2.90625 10.5625,3.90625 z M 183.4707,314.03447 v -1.82812 h -4.78125 v 1.82812 z m 0,4.32813 v -2.01563 h -4.78125 v 2.01563 z m 10.8125,0.82812 -1.40625,1.92188 q -3.82812,-1.70313 -5.95312,-4.17188 l 1.5625,-1.4375 -1.5625,-1.65625 q 3.51562,-1.75 5.25,-4.76562 l 1.95312,1.5 q -2.04687,3.21875 -5.51562,4.98437 2.375,2.23438 5.67187,3.625 z m -18.98437,-3.20312 q -1.71875,3.03125 -6.23438,5.46875 l -1.5625,-1.85938 q 4.5625,-2.39062 6.04688,-5.01562 -1.92188,-2.23438 -5.51563,-3.29688 l 1.3125,-1.95312 q 3.34375,0.92187 5.89063,3.54687 l -1.375,1.73438 z"
       id="path11473" />
    <path
       d="m 222.3457,313.08135 h -18.71875 v -8.35938 h 18.71875 z m -2.4375,-5.125 v -1.03125 h -13.85937 v 1.03125 z m 0,3.04687 v -1.1875 h -13.85937 v 1.1875 z m 6.14063,4.89063 H 199.9707 v -2.07813 h 26.07813 z m 1.3125,15.03125 h -28.59375 v -2.32813 h 13.04687 v -0.92187 h -10.26562 v -2.09375 h 10.26562 v -0.82813 h -9.125 v -8.125 h 20.71875 v 8.125 h -9.15625 v 0.82813 h 10.35938 v 2.09375 h -10.35938 v 0.92187 h 13.10938 z m -6.39063,-11.21875 v -1 h -6.71875 v 1 z m -9.15625,0 v -1 h -6.6875 v 1 z m 9.15625,2.96875 v -1.1875 h -6.71875 v 1.1875 z m -9.15625,0 v -1.1875 h -6.6875 v 1.1875 z"
       id="path11475" />
  </g>
</svg>
