<svg xmlns="http://www.w3.org/2000/svg" fill="none" stroke-linecap="square" stroke-miterlimit="10" viewBox="0 0 348 348">
  <clipPath id="a">
    <path d="M0 0h348v348H0V0z"/>
  </clipPath>
  <g clip-path="url(#a)">
    <path fill="none" d="M0 0h348v348H0z"/>
    <path fill="#fff" d="M-6 0h348v347.969H-6z"/>
    <path fill="none" d="M5.079 5.776h336.913v337.67H5.08z"/>
    <path stroke="#000" stroke-linecap="butt" stroke-linejoin="round" stroke-width="2" d="M5.079 5.776h336.913v337.67H5.08z"/>
    <path fill="#fff" d="M282.734 40.554c0-8.376 6.966-15.165 15.56-15.165 4.126 0 8.084 1.597 11.001 4.441 2.918 2.844 4.558 6.702 4.558 10.724 0 8.376-6.966 15.165-15.56 15.165-8.593 0-15.559-6.79-15.559-15.165z"/>
    <path stroke="#000" stroke-linecap="butt" stroke-linejoin="round" stroke-width="2" d="M30.51 310.004c0-8.376 6.965-15.165 15.559-15.165 4.126 0 8.084 1.597 11.001 4.442 2.918 2.844 4.558 6.7 4.558 10.723 0 8.376-6.966 15.165-15.56 15.165-8.593 0-15.559-6.79-15.559-15.165z"/>
    <path fill="#000" fill-rule="evenodd" d="M238.691 24.414h89.817v36.911h-89.817z"/>
    <path fill="#000" fill-rule="evenodd" d="M238.691 67.415h89.817v36.911h-89.817z"/>
    <path fill="#000" fill-rule="evenodd" d="M238.585 110.725h89.817v36.911h-89.817z"/>
    <path fill="#000" fill-rule="evenodd" d="M361.112 46.56h89.817v36.911h-89.817z"/>
    <path fill="#000" fill-rule="evenodd" d="M238.691 154.217h89.817v36.911h-89.817z"/>
    <path fill="#000" fill-rule="evenodd" d="M238.691 199.741h89.817v67.055h-89.817z"/>
    <path fill="#fff" fill-rule="evenodd" d="M241.76 202.991h83.05v59.673h-83.05z"/>
    <text x="382.058" y="158.943" fill="#000" stroke-width=".564" font-family="sans-serif" font-size="22.549" font-weight="400" letter-spacing="0" style="line-height:1.25" transform="scale(.64764 1.54406)" word-spacing="0">
      <tspan x="382.058" y="158.943">SUMBMIT</tspan>
    </text>
    <ellipse cx="282.984" cy="304.937" fill="#000" fill-rule="evenodd" rx="34.45" ry="33.22"/>
    <path fill="#000" fill-rule="evenodd" d="M9.557 24.339h224.66v240.356H9.557z"/>
    <path fill="#fff" fill-rule="evenodd" d="M125.832 148.888h100.033v107.681H125.832z"/>
    <path fill="#fff" fill-rule="evenodd" d="M125.832 29.897h100.033v108.769H125.832z"/>
    <path fill="#fff" fill-rule="evenodd" d="M16.665 29.897H117.35v108.769H16.665z"/>
    <path fill="#fff" fill-rule="evenodd" d="M16.665 148.888H117.35v107.681H16.665z"/>
    <path fill="#000" fill-rule="evenodd" d="M81.78 281.88h64.38v50.46H81.78z"/>
    <path fill="#fff" fill-rule="evenodd" d="M84.548 285.571h57.42v43.5h-57.42z"/>
    <text x="82.011" y="358.161" fill="#000" stroke-width="1.198" font-family="sans-serif" font-size="47.916" font-weight="400" letter-spacing="0" style="line-height:1.25" transform="scale(1.11532 .8966)" word-spacing="0">
      <tspan x="82.011" y="358.161">&lt;</tspan>
    </text>
    <path fill="#000" fill-rule="evenodd" d="M215.842 332.848l-64.378-.468.366-50.458 64.379.467z"/>
    <path fill="#fff" fill-rule="evenodd" d="M213.101 329.137l-57.418-.417.315-43.499 57.419.417z"/>
    <text x="-186.999" y="-325.702" fill="#000" stroke-width="1.198" font-family="sans-serif" font-size="47.916" font-weight="400" letter-spacing="0" style="line-height:1.25" transform="matrix(-1.1153 -.0081 .0065 -.89658 0 0)" word-spacing="0">
      <tspan x="-186.999" y="-325.702">&lt;</tspan>
    </text>
    <path fill="#000" d="M77.635 46.024c1.113 2.67 1.436 5.599 1.69 8.53.32 3.305.433 6.627.43 9.952.043 3.096.005 6.193-.028 9.289.088 3.194.02 6.372-.252 9.55-.478 3.658-1.452 7.157-2.232 10.726-.732 4.168-2.59 7.656-4.467 11.184-1.658 3.198-3.468 6.293-5.621 9.043-2.64 2.91-5.592 5.39-8.435 8.009-2.497 2.069-5.126 3.922-7.798 5.648a48.477 48.477 0 0 1-3.06 1.734l-18.17-6.234c1.086-.393 2.156-.828 3.155-1.49 2.8-1.384 5.333-3.395 7.984-5.136 2.814-2.426 5.562-4.966 8.183-7.686 2.127-2.667 4.059-5.498 5.736-8.601 1.825-3.28 3.489-6.647 4.246-10.534.817-3.442 1.565-6.883 1.987-10.432.332-3.09.231-6.18.267-9.292-.023-3.091-.04-6.183-.01-9.274-.044-3.217-.017-6.446-.324-9.647-.381-2.739-.864-5.503-2.491-7.609l19.21 2.27z"/>
    <path fill="#000" d="M82.516 54.548c-.868 3.05-.942 6.335-1.114 9.523-.243 5.45-.194 10.9-.173 16.355.156 4.138.037 8.295.346 12.422.75 3.174 1.858 6.226 3.045 9.199 1.394 3.75 3.507 7.004 5.56 10.26 1.76 2.083 3.348 4.353 5.003 6.554 1.414 1.961 2.632 4.155 4.249 5.895.855 1.243 1.746 2.302 2.92 3.087l-18.944-1.437c-.982-1.082-1.866-2.27-2.775-3.438a204.862 204.862 0 0 1-4.234-6.01c-1.611-2.197-3.23-4.4-4.689-6.745-1.99-3.421-4.075-6.79-5.497-10.624-1.356-3.162-2.705-6.516-3.065-10.074-.194-4.162.114-8.333.127-12.498.03-5.483.071-10.963.038-16.447-.008-3.397-.04-6.808.25-10.191l18.953 4.169z"/>
    <path fill="#000" d="M26.97 68.587c1.877.097 3.756.078 5.634.076 2.057-.01 4.113 0 6.17.019 2.717.038 5.434.028 8.151.017 7.629-.016 15.281 2.727 22.605 4.285 1.797.383 3.57.891 5.347 1.39.817.283 1.639.548 2.452.848 3.654 1.35 2.305 1.056 6.276 2.181 5.926 1.679 20.92 4.664-6.671-1.31 3.528.67 7.087.995 10.654 1.13 2.425.075 4.85.017 7.274-.018l17.983 6.987c-2.498 0-4.996-.002-7.494 0a65.582 65.582 0 0 1-11.753-1.255c-7.872-1.651-15.788-3.047-23.604-5.05-3.565-.913-7.044-2.124-10.57-3.21-.91-.28-1.828-.514-2.741-.771-2.887-.704-1.512-.38-4.164-.984-.525-.12-2.104-.468-1.577-.359 5.525 1.14 11.042 2.33 16.569 3.45.48.098-.942-.314-1.426-.38-.443-.06-.892.002-1.338.004-2.687-.011-5.374-.022-8.061.017-2.025.02-4.05.03-6.075.019-1.748-.002-3.498-.03-5.244.075l-18.396-7.16z"/>
    <path fill="#000" d="M181.728 44.562c1.112 2.67 1.435 5.6 1.69 8.53.32 3.306.432 6.627.429 9.952.043 3.097.005 6.193-.028 9.289.088 3.195.02 6.373-.252 9.551-.478 3.658-1.452 7.157-2.232 10.725-.732 4.168-2.59 7.657-4.467 11.184-1.658 3.198-3.468 6.293-5.621 9.043-2.64 2.91-5.592 5.39-8.435 8.01-2.497 2.068-5.126 3.921-7.798 5.647a48.478 48.478 0 0 1-3.06 1.734l-18.17-6.234c1.086-.393 2.156-.828 3.155-1.489 2.8-1.385 5.333-3.395 7.984-5.136 2.814-2.427 5.562-4.966 8.183-7.686 2.127-2.668 4.059-5.498 5.736-8.602 1.825-3.279 3.489-6.647 4.246-10.534.818-3.442 1.565-6.882 1.987-10.432.332-3.09.231-6.18.267-9.292a551.39 551.39 0 0 1-.01-9.274c-.044-3.217-.017-6.446-.324-9.647-.382-2.738-.864-5.503-2.491-7.608l19.21 2.269z"/>
    <path fill="#000" d="M186.608 53.086c-.868 3.05-.942 6.336-1.114 9.523-.242 5.45-.194 10.901-.173 16.355.156 4.138.037 8.295.346 12.423.75 3.174 1.858 6.225 3.045 9.198 1.394 3.75 3.507 7.005 5.56 10.26 1.76 2.083 3.348 4.353 5.003 6.555 1.414 1.96 2.632 4.154 4.249 5.894.855 1.244 1.746 2.303 2.92 3.088l-18.944-1.437c-.982-1.082-1.865-2.271-2.775-3.44a204.86 204.86 0 0 1-4.234-6.009c-1.611-2.197-3.23-4.4-4.688-6.744-1.99-3.422-4.076-6.791-5.498-10.624-1.356-3.163-2.705-6.517-3.064-10.075-.195-4.161.113-8.333.126-12.498.03-5.483.072-10.963.038-16.446-.008-3.397-.04-6.808.25-10.192l18.953 4.17z"/>
    <path fill="#000" d="M131.063 67.126c1.876.096 3.756.077 5.633.075 2.057-.01 4.114 0 6.17.019 2.717.038 5.434.028 8.151.017 7.629-.016 15.281 2.727 22.605 4.286 1.797.382 3.57.89 5.347 1.39.818.282 1.639.547 2.452.848 3.654 1.35 2.305 1.055 6.276 2.18 5.926 1.68 20.92 4.664-6.67-1.31 3.527.671 7.087.996 10.653 1.13 2.425.075 4.85.018 7.275-.017l17.982 6.986c-2.498 0-4.996-.002-7.494 0a65.582 65.582 0 0 1-11.753-1.254c-7.872-1.652-15.788-3.048-23.604-5.05-3.564-.913-7.044-2.125-10.57-3.212-.909-.28-1.828-.513-2.741-.77-2.886-.703-1.512-.38-4.163-.984-.526-.12-2.105-.467-1.578-.359 5.525 1.14 11.042 2.33 16.569 3.45.48.098-.942-.314-1.426-.38-.443-.06-.892.003-1.338.004-2.687-.01-5.374-.022-8.061.017-2.025.02-4.05.03-6.074.019-1.749-.002-3.499-.03-5.245.076l-18.396-7.161z"/>
    <path fill="#000" d="M80.091 167.093c1.113 2.67 1.436 5.599 1.69 8.53.321 3.306.433 6.627.43 9.952.043 3.096.004 6.193-.028 9.289.088 3.195.02 6.372-.252 9.55-.478 3.658-1.452 7.157-2.232 10.726-.732 4.168-2.59 7.656-4.467 11.184-1.658 3.198-3.468 6.293-5.621 9.043-2.64 2.91-5.592 5.39-8.435 8.01-2.497 2.068-5.126 3.921-7.798 5.647a48.477 48.477 0 0 1-3.06 1.734l-18.17-6.234c1.086-.393 2.156-.828 3.155-1.49 2.8-1.384 5.333-3.395 7.984-5.135 2.814-2.427 5.562-4.966 8.183-7.687 2.127-2.667 4.059-5.497 5.736-8.601 1.825-3.28 3.489-6.647 4.246-10.534.817-3.442 1.565-6.883 1.987-10.432.332-3.09.231-6.18.267-9.292-.023-3.091-.04-6.183-.01-9.274-.044-3.217-.017-6.446-.324-9.647-.381-2.739-.864-5.503-2.491-7.608l19.21 2.269z"/>
    <path fill="#000" d="M84.972 175.617c-.868 3.05-.942 6.336-1.114 9.523-.243 5.45-.194 10.9-.173 16.355.156 4.138.037 8.295.346 12.422.75 3.174 1.858 6.226 3.045 9.2 1.394 3.75 3.507 7.004 5.56 10.258 1.76 2.084 3.348 4.354 5.003 6.556 1.414 1.96 2.632 4.154 4.249 5.894.855 1.244 1.746 2.302 2.92 3.087l-18.944-1.436c-.982-1.082-1.866-2.271-2.775-3.44a204.873 204.873 0 0 1-4.234-6.01c-1.611-2.196-3.23-4.4-4.688-6.743-1.99-3.422-4.076-6.792-5.498-10.624-1.356-3.163-2.705-6.517-3.064-10.075-.195-4.161.113-8.333.126-12.498.03-5.483.071-10.963.038-16.446-.008-3.398-.04-6.808.25-10.192l18.953 4.17z"/>
    <path fill="#000" d="M29.427 189.656c1.876.097 3.756.078 5.633.076 2.057-.01 4.113 0 6.17.019 2.717.038 5.434.028 8.151.017 7.629-.016 15.281 2.727 22.605 4.286 1.797.382 3.57.89 5.347 1.39.818.282 1.639.547 2.452.847 3.654 1.35 2.305 1.056 6.276 2.181 5.926 1.68 20.92 4.664-6.671-1.31 3.528.671 7.088.996 10.654 1.13 2.425.075 4.85.018 7.274-.017l17.983 6.986c-2.498 0-4.996-.002-7.494 0a65.585 65.585 0 0 1-11.753-1.254c-7.872-1.652-15.788-3.048-23.604-5.05-3.565-.913-7.044-2.125-10.57-3.212-.909-.28-1.828-.513-2.741-.77-2.886-.703-1.512-.38-4.163-.984-.526-.12-2.105-.468-1.578-.359 5.525 1.14 11.042 2.33 16.569 3.45.48.098-.942-.314-1.426-.38-.443-.06-.892.002-1.338.004-2.687-.01-5.374-.021-8.061.018-2.025.02-4.05.029-6.074.018-1.749-.002-3.5-.029-5.245.076l-18.396-7.161z"/>
    <path fill="#000" d="M184.184 165.631c1.112 2.67 1.435 5.6 1.69 8.53.32 3.306.432 6.628.429 9.953.043 3.096.005 6.192-.028 9.288.088 3.195.02 6.373-.252 9.551-.478 3.658-1.452 7.157-2.231 10.725-.733 4.168-2.59 7.657-4.468 11.184-1.658 3.198-3.468 6.293-5.621 9.043-2.64 2.91-5.592 5.39-8.435 8.01-2.497 2.068-5.126 3.921-7.798 5.648a48.478 48.478 0 0 1-3.06 1.733l-18.17-6.234c1.086-.393 2.156-.828 3.155-1.489 2.8-1.384 5.333-3.395 7.984-5.136 2.815-2.427 5.562-4.966 8.183-7.686 2.127-2.668 4.059-5.498 5.736-8.602 1.825-3.279 3.489-6.647 4.246-10.534.818-3.442 1.565-6.882 1.987-10.432.332-3.09.231-6.18.267-9.291a551.39 551.39 0 0 1-.01-9.275c-.044-3.217-.017-6.445-.324-9.647-.382-2.738-.864-5.503-2.491-7.608l19.21 2.27z"/>
    <path fill="#000" d="M189.064 174.155c-.868 3.05-.942 6.336-1.114 9.523-.242 5.45-.193 10.901-.173 16.355.156 4.138.037 8.295.346 12.423.75 3.174 1.858 6.226 3.045 9.199 1.394 3.75 3.507 7.004 5.56 10.259 1.76 2.084 3.348 4.353 5.003 6.555 1.414 1.96 2.632 4.155 4.249 5.894.855 1.244 1.746 2.303 2.92 3.088l-18.944-1.437c-.982-1.082-1.865-2.27-2.775-3.439a204.86 204.86 0 0 1-4.234-6.01c-1.61-2.197-3.23-4.4-4.688-6.744-1.99-3.422-4.076-6.791-5.498-10.624-1.356-3.163-2.705-6.517-3.064-10.075-.195-4.161.113-8.333.126-12.498.03-5.483.072-10.963.038-16.446-.008-3.397-.04-6.808.25-10.192l18.953 4.17z"/>
    <path fill="#000" d="M133.519 188.195c1.876.096 3.756.077 5.633.075 2.057-.01 4.114 0 6.17.02 2.717.037 5.434.027 8.151.017 7.63-.016 15.281 2.726 22.605 4.285 1.797.382 3.57.891 5.348 1.39.817.282 1.638.548 2.45.848 3.655 1.35 2.306 1.056 6.277 2.18 5.926 1.68 20.92 4.665-6.67-1.31 3.527.671 7.087.996 10.653 1.131 2.425.074 4.85.017 7.275-.018l17.982 6.987c-2.498-.001-4.996-.002-7.494-.001a65.585 65.585 0 0 1-11.752-1.254c-7.873-1.652-15.789-3.048-23.605-5.05-3.564-.913-7.044-2.125-10.57-3.211-.909-.28-1.827-.514-2.741-.77-2.886-.704-1.512-.381-4.163-.985-.526-.12-2.105-.467-1.578-.358 5.525 1.139 11.042 2.33 16.569 3.45.48.097-.942-.315-1.426-.38-.443-.06-.892.002-1.338.003-2.687-.01-5.374-.022-8.061.017-2.025.02-4.05.03-6.074.019-1.748-.002-3.499-.03-5.245.075l-18.396-7.16z"/>
  </g>
</svg>
