<svg version="1.1" viewBox="0 0 348 348" xmlns="http://www.w3.org/2000/svg"><path d="m283 40.6c0-8.38 6.97-15.2 15.6-15.2 4.13 0 8.08 1.6 11 4.44 2.92 2.84 4.56 6.7 4.56 10.7 0 8.38-6.97 15.2-15.6 15.2-8.59 0-15.6-6.79-15.6-15.2zm-278-34.8h337v338h-337z" fill="none" stroke="#000" stroke-width="2" /><path d="m53.3 196q-7.8 0-12.6-3.9-5.28-4.31-5.28-12.1 0-8.97 4.35-15 4.73-6.63 12.6-6.63 5.73 0 9.35 1.93 4.45 2.38 4.45 7.32 0 3.45-3.9 6.28-1.73 1.24-7.32 3.87l-13.2 6.25q1.93 2.86 4.8 4.31 2.9 1.45 6.73 1.45 2.38 0 5.59-.897 4.07-1.14 5.25-2.97 1.17-1.86 2.52-1.86 1.21 0 2.14.932.966.897.966 2.11 0 3.83-6.18 6.59-5.28 2.35-10.3 2.35zm-.932-31.4q-4.21 0-7.01 3.28-2.8 3.24-4.18 9.8l10.6-5.04q6.25-3.04 8.91-5.28-2.97-2.76-8.32-2.76zm30.1-13.8q-1.66 0-2.86-1.17-1.21-1.17-1.21-2.83 0-1.66 1.21-2.83 1.21-1.17 2.86-1.17 1.66 0 2.83 1.17 1.21 1.17 1.21 2.83 0 1.66-1.21 2.83-1.17 1.17-2.83 1.17zm1.55 28q0 2.07.104 6.21.138 4.11.138 6.18 0 1.52-.932 2.49-.932.966-2.45.966-1.48 0-2.45-.966-.932-.966-.932-2.49 0-2.07-.138-6.18-.104-4.14-.104-6.21 0-3.24.345-8.08.345-4.87.345-8.11 0-1.55.932-2.52.966-.966 2.45-.966 1.48 0 2.42.966.966.966.966 2.52 0 3.24-.345 8.11-.345 4.83-.345 8.08zm61.7 17.8q-2.45 0-3.21-2.62-.794-2.83-1.45-8.04-.621-5.01-.621-8.22 0-.897.069-2.73.104-1.83.104-2.73 0-6.49-3.24-6.49-4.38 0-7.84 3.97-1.76 2.04-4.83 7.77 0 13.2-1.1 15.6-.966 2.14-3 2.14-1.42 0-2.49-.966t-1.07-2.35q0-.483.311-1.52.276-.863.38-5.04l.104-5.11.104-25.4q.242-4.28.242-5.76 0-1.76-.345-3.31-.311-1.59-.311-3.28 0-1.45 1-2.38 1-.966 2.45-.966 2.83 0 3.31 3.04.552 3.35.552 6.04 0 3.62-.242 7.56-.207 3.76-.173 7.56l.0345 3.04q2.83-3.8 6.04-5.66 3.24-1.9 6.87-1.9 5.73 0 7.87 3.73 1.52 2.62 1.73 8.84l.276 6.59.69 7.18q.483 4.04 1.17 7.11.138.587.138 1 0 1.42-1.04 2.35-1.04.966-2.49.966zm18.5-45.8q-1.66 0-2.86-1.17-1.21-1.17-1.21-2.83 0-1.66 1.21-2.83 1.21-1.17 2.86-1.17 1.66 0 2.83 1.17 1.21 1.17 1.21 2.83 0 1.66-1.21 2.83-1.17 1.17-2.83 1.17zm1.55 28q0 2.07.104 6.21.138 4.11.138 6.18 0 1.52-.932 2.49-.932.966-2.45.966-1.48 0-2.45-.966-.932-.966-.932-2.49 0-2.07-.138-6.18-.104-4.14-.104-6.21 0-3.24.345-8.08.345-4.87.345-8.11 0-1.55.932-2.52.966-.966 2.45-.966 1.48 0 2.42.966.966.966.966 2.52 0 3.24-.345 8.11-.345 4.83-.345 8.08zm27.8 17.3q-7.8 0-12.6-3.9-5.28-4.31-5.28-12.1 0-8.97 4.35-15 4.73-6.63 12.6-6.63 5.73 0 9.35 1.93 4.45 2.38 4.45 7.32 0 3.45-3.9 6.28-1.73 1.24-7.32 3.87l-13.2 6.25q1.93 2.86 4.8 4.31 2.9 1.45 6.73 1.45 2.38 0 5.59-.897 4.07-1.14 5.25-2.97 1.17-1.86 2.52-1.86 1.21 0 2.14.932.966.897.966 2.11 0 3.83-6.18 6.59-5.28 2.35-10.3 2.35zm-.932-31.4q-4.21 0-7.01 3.28-2.8 3.24-4.18 9.8l10.6-5.04q6.25-3.04 8.91-5.28-2.97-2.76-8.32-2.76zm50.4 4.35q-.242 4.31-3.45 4.31-2.97 0-2.97-3.42 0-.656-.104-2.42l-.104-2.9q-5.45.656-8.73 3.07-3.07 2.24-5.11 6.77l.069 18.9q0 3.49-3.42 3.49-3.04 0-3.04-3.49v-24.2q0-1.14.069-3.42.104-2.28.104-3.42 0-3.49 3.04-3.49 3.38 0 3.42 5.73 6.63-6.39 14.7-6.39 2.8 0 4.18 2.11 1.38 2.11 1.38 6.35 0 1.79-.0345 2.42zm37.7 17.7q0 1.55-1 2.55-1 1-2.55 1t-2.52-1q-1-1-1-2.55 0-.656-.242-1.9-.207-1.28-.207-1.9 0-1.45 1.07-2.42 1.1-.966 2.59-.966 3.87 0 3.87 7.18zm-.587-25.2q0 1.55-1 2.55-.966 1-2.52 1-1.55 0-2.55-1-1-1-1-2.55 0-.414-.173-1.24-.138-.863-.138-1.31 0-1.48 1.04-2.45 1.04-.966 2.55-.966 3.8 0 3.8 5.97zm31.4 12.9q0 26-14.6 34.2-1.42.794-2.45.794-1.17 0-2.07-.863-.897-.828-.897-1.97 0-1.55 2-3.14 1.59-1.24 3.21-2.49 7.94-8.18 7.94-25.7 0-6.8-1.9-13.8-2.21-8.08-6.01-12.4-1.59-1.59-3.14-3.18-2.14-2.31-2.14-3.52 0-1.24.897-2.21.932-1 2.17-1 .794 0 2.21.966 6.83 4.8 11 15.5 3.76 9.6 3.76 19z" fill="#000"/></svg>