<svg viewBox="0 0 348 348" fill="none" xmlns="http://www.w3.org/2000/svg"><path d="M5 6h337v337H5z" stroke-width="2" stroke="#000"/><path d="M323 39a17 17 0 0 1-17 17 17 17 0 0 1-17-17 17 17 0 0 1 17-17 17 17 0 0 1 17 17Z" stroke="#000" stroke-width="2"/><path d="M19 62h258v20H19ZM32 17h230v34H32Z" fill="#000"/><g aria-label="#########" style="line-height:1.25;" fill="#fff" stroke-width="2.5"><path d="m51 39-1 7h-4l1-7h-4l-1 7h-4l1-7h-3v-4h4v-3h-3v-4h4l1-7h4l-1 7h3l1-7h5l-1 7h4l-1 4h-4v3h4l-1 4zm-3-7h-4v3h4zM76 39l-1 7h-4l1-7h-3l-1 7h-4v-7h-3l1-4h3l1-3h-4l1-4h3l1-7h4l-1 7h4l1-7h4l-1 7h4l-1 4h-4v3h4l-1 4zm-3-7h-3l-1 3h4zM102 39l-1 7h-4l1-7h-4l-1 7h-4l1-7h-4l1-4h3l1-3h-4l1-4h3l1-7h5l-1 7h3l1-7h4l-1 7h4v4h-4l-1 3h4l-1 4zm-3-7h-4l-1 3h4zM127 39l-1 7h-4l1-7h-4l-1 7h-4l1-7h-3v-4h4v-3h-3v-4h4l1-7h4l-1 7h3l1-7h4v7h3v4h-4l-1 3h4v4zm-3-7h-4v3h3zM152 39l-1 7h-4l1-7h-4l-1 7h-4l1-7h-3v-4h4v-3h-3v-4h4l1-7h4l-1 7h3l1-7h5l-1 7h4l-1 4h-4v3h4l-1 4zm-3-7h-4v3h4zM177 39l-1 7h-4l1-7h-3l-1 7h-4v-7h-3l1-4h3l1-3h-4l1-4h3l1-7h4l-1 7h4l1-7h4l-1 7h4l-1 4h-4v3h4l-1 4zm-3-7h-3l-1 3h4zM203 39l-1 7h-4l1-7h-4l-1 7h-4l1-7h-4l1-4h3l1-3h-4l1-4h3l1-7h5l-1 7h3l1-7h4l-1 7h4v4h-4l-1 3h4l-1 4zm-3-7h-4l-1 3h4zM228 39l-1 7h-4l1-7h-4l-1 7h-4l1-7h-3v-4h4v-3h-3v-4h4l1-7h4l-1 7h3l1-7h4v7h3v4h-4l-1 3h4v4zm-3-7h-4v3h3zM253 39l-1 7h-4l1-7h-4l-1 7h-4l1-7h-3v-4h4v-3h-3v-4h4l1-7h4l-1 7h3l1-7h5l-1 7h4l-1 4h-4v3h4l-1 4zm-3-7h-4v3h4z"/></g><path d="M32 93h230v34H32Z" fill="#000"/><g aria-label="#########" style="line-height:1.25;" fill="#fff" stroke-width="2.5"><path d="m51 115-1 7h-4l1-7h-4l-1 7h-4l1-7h-3v-4h4v-3h-3v-4h4l1-7h4l-1 7h3l1-7h5l-1 7h4l-1 4h-4v3h4l-1 4zm-3-7h-4v3h4zM76 115l-1 7h-4l1-7h-3l-1 7h-4v-7h-3l1-4h3l1-3h-4l1-4h3l1-7h4l-1 7h4l1-7h4l-1 7h4l-1 4h-4v3h4l-1 4zm-3-7h-3l-1 3h4zM102 115l-1 7h-4l1-7h-4l-1 7h-4l1-7h-4l1-4h3l1-3h-4l1-4h3l1-7h5l-1 7h3l1-7h4l-1 7h4v4h-4l-1 3h4l-1 4zm-3-7h-4l-1 3h4zM127 115l-1 7h-4l1-7h-4l-1 7h-4l1-7h-3v-4h4v-3h-3v-4h4l1-7h4l-1 7h3l1-7h4v7h3v4h-4l-1 3h4v4zm-3-7h-4v3h3zM152 115l-1 7h-4l1-7h-4l-1 7h-4l1-7h-3v-4h4v-3h-3v-4h4l1-7h4l-1 7h3l1-7h5l-1 7h4l-1 4h-4v3h4l-1 4zm-3-7h-4v3h4zM177 115l-1 7h-4l1-7h-3l-1 7h-4v-7h-3l1-4h3l1-3h-4l1-4h3l1-7h4l-1 7h4l1-7h4l-1 7h4l-1 4h-4v3h4l-1 4zm-3-7h-3l-1 3h4zM203 115l-1 7h-4l1-7h-4l-1 7h-4l1-7h-4l1-4h3l1-3h-4l1-4h3l1-7h5l-1 7h3l1-7h4l-1 7h4v4h-4l-1 3h4l-1 4zm-3-7h-4l-1 3h4zM228 115l-1 7h-4l1-7h-4l-1 7h-4l1-7h-3v-4h4v-3h-3v-4h4l1-7h4l-1 7h3l1-7h4v7h3v4h-4l-1 3h4v4zm-3-7h-4v3h3zM253 115l-1 7h-4l1-7h-4l-1 7h-4l1-7h-3v-4h4v-3h-3v-4h4l1-7h4l-1 7h3l1-7h5l-1 7h4l-1 4h-4v3h4l-1 4zm-3-7h-4v3h4z"/></g><g aria-label="= + + +" style="line-height:1.25" fill="#000" stroke-width="2.9"><path d="M24 188h22v5H24Zm0 7h22v6H24ZM107 197h-8v-6h8v-8h6v8h8v6h-8v8h-6zM182 197h-7v-6h7v-8h6v8h8v6h-8v8h-6zM258 197h-8v-6h8v-8h6v8h7v6h-7v8h-6z"/></g><path d="M53 191h39v6H53zM128 191h39v6h-39zM204 191h39v6h-39zM278 191h39v6h-39z" fill="#000"/><g aria-label="1 1 1 1" style="line-height:1.25" fill="#000" stroke-width="2.8"><path d="M76 155v27h-8v-27zM151 155v27h-8v-27zM226 155v27h-8v-27zM301 155v27h-8v-27z"/></g><path d="M53 206h40v25H53Z" fill="#000"/><g aria-label="##" style="line-height:1.25" fill="#fff" stroke-width="2.1"><path d="m66 224-1 5h-3l1-5h-3l-1 5h-3v-5h-2v-4h3v-3h-3l1-3h3l1-5h3l-1 5h3l1-5h3v5h3l-1 3h-3v3h3l-1 4zm-2-7h-3l-1 3h3zM87 224l-1 5h-3v-5h-3v5h-4l1-5h-3l1-4h3v-3h-3l1-3h2l1-5h4l-1 5h3v-5h4l-1 5h3v3h-3l-1 3h3v4zm-3-7h-3v3h3z"/></g><path d="M127 206h40v25h-40z" fill="#000"/><g aria-label="##" style="line-height:1.25" fill="#fff" stroke-width="2.1"><path d="m141 224-1 5h-4l1-5h-3l-1 5h-3l1-5h-3v-4h3l1-3h-3v-3h3l1-5h3v5h2l1-5h4l-1 5h3v3h-4v3h3v4zm-3-7h-3v3h3zM161 224l-1 5h-3l1-5h-3l-1 5h-3v-5h-2v-4h3v-3h-2v-3h3l1-5h3l-1 5h3l1-5h3v5h3l-1 3h-3v3h3l-1 4zm-2-7h-3l-1 3h3z"/></g><path d="M202 206h40v25h-40z" fill="#000"/><g aria-label="##" style="line-height:1.25" fill="#fff" stroke-width="2.1"><path d="M215 224v5h-4l1-5h-3l-1 5h-3l1-5h-3v-4h3l1-3h-3v-3h3l1-5h3v5h2l1-5h4l-1 5h3l-1 3h-3v3h3v4zm-2-7h-3l-1 3h4zM236 224l-1 5h-3l1-5h-3l-1 5h-3v-5h-2v-4h3v-3h-3l1-3h3v-5h4l-1 5h3l1-5h3l-1 5h4l-1 3h-3v3h3l-1 4zm-2-7h-3l-1 3h3z"/></g><path d="M277 206h40v25h-40z" fill="#000"/><g aria-label="##" style="line-height:1.25" fill="#fff" stroke-width="2.1"><path d="m291 224-1 5h-3v-5h-3l-1 5h-3l1-5h-3l1-4h2l1-3h-3v-3h3l1-5h4l-1 5h2l1-5h4l-1 5h3v3h-3l-1 3h3v4zm-3-7h-3v3h3zM311 224v5h-4l1-5h-3l-1 5h-3l1-5h-3v-4h3v-3h-2v-3h3l1-5h3v5h2l1-5h3v5h3l-1 3h-3v3h3v4zm-2-7h-3l-1 3h3z"/></g><path d="M22 258h64v66H22ZM101 258h64v66h-64zM180 258h65v66h-65zM260 258h64v66h-64z" fill="#fff" stroke="#000" stroke-width="2"/><g aria-label="10" style="line-height:1.25" fill="#000" stroke-width="1.9"><path d="M34 293h-5v-3h5v-6h4v6h5v3h-5v6h-4zM57 283v18h-5v-18zM63 294v-4q0-4 2-6t5-2q3 0 4 2 2 2 2 6v4q0 3-2 5-1 2-4 2t-5-2q-2-2-2-5zm5-5v6l2 1 1-1v-6l-1-2q-2 0-2 2z"/></g><g aria-label="1" style="line-height:1.25" fill="#000" stroke-width="1.9"><path d="M116 293h-5v-3h5v-6h4v6h4v3h-4v6h-4zM129 294v-4q0-4 2-6t5-2q3 0 4 2 2 2 2 6v4q0 3-2 5-1 2-4 2t-5-2q-2-2-2-5zm5-5v6l2 1 1-1v-6l-1-2q-2 0-2 2zM154 283v18h-5v-18z"/></g><g aria-label="- - &gt;" style="line-height:1.25" fill="#000" stroke-width="1.9"><path d="M199 291v3h-6v-3zM212 291v3h-6v-3zM220 300v-5l7-3-7-4v-5l12 7v4z"/></g><g aria-label="- - &gt;" style="line-height:1.25" fill="#000" stroke-width="1.9"><path d="M306 291v3h6v-3zM293 291v3h6v-3zM285 300v-5l-6-3 6-4v-5l-12 7v4z"/></g></svg>