<svg viewBox="0 0 348 348" xmlns="http://www.w3.org/2000/svg" fill-rule="evenodd" clip-rule="evenodd"><path d="M5.079 5.776h336.913v337.67H5.08L5.079 5.776z" fill="none" stroke="#000" stroke-width="2"/><path d="M282.734 40.554c0-8.376 6.966-15.165 15.56-15.165 4.126 0 8.084 1.597 11.001 4.441 2.918 2.844 4.558 6.702 4.558 10.724 0 8.376-6.966 15.165-15.56 15.165-8.593 0-15.559-6.79-15.559-15.165z" fill="none" stroke="#000" stroke-width="2"/><path d="M220.492 150.472c0-12.874-10.45-23.326-23.325-23.326h-46.65c-12.874 0-23.325 10.452-23.325 23.326v46.65c0 12.874 10.45 23.326 23.325 23.326h46.65c12.875 0 23.325-10.452 23.325-23.325v-46.651zM323.983 150.472c0-12.874-10.451-23.326-23.326-23.326h-46.65c-12.874 0-23.325 10.452-23.325 23.326v46.65c0 12.874 10.451 23.326 23.326 23.326h46.65c12.874 0 23.325-10.452 23.325-23.325v-46.651zM117.003 150.472c0-12.874-10.451-23.326-23.326-23.326h-46.65c-12.874 0-23.325 10.452-23.325 23.326v46.65c0 12.874 10.451 23.326 23.326 23.326h46.65c12.874 0 23.325-10.452 23.325-23.325v-46.651zM220.809 253.6c0-12.874-10.451-23.326-23.326-23.326h-46.65c-12.874 0-23.325 10.452-23.325 23.326v46.65c0 12.874 10.451 23.326 23.326 23.326h46.65c12.874 0 23.325-10.452 23.325-23.325V253.6zM324.3 253.6c0-12.874-10.452-23.326-23.326-23.326h-46.65c-12.875 0-23.325 10.452-23.325 23.326v46.65c0 12.874 10.45 23.326 23.325 23.326h46.65c12.874 0 23.325-10.452 23.325-23.325V253.6zM117.319 253.6c0-12.874-10.451-23.326-23.326-23.326h-46.65c-12.874 0-23.325 10.452-23.325 23.326v46.65c0 12.874 10.451 23.326 23.326 23.326h46.65c12.874 0 23.325-10.452 23.325-23.325V253.6zM220.809 47.752c0-12.873-10.451-23.325-23.326-23.325h-46.65c-12.874 0-23.325 10.452-23.325 23.325v46.651c0 12.873 10.451 23.325 23.326 23.325h46.65c12.874 0 23.325-10.452 23.325-23.325v-46.65zM117.319 47.752c0-12.873-10.451-23.325-23.326-23.325h-46.65c-12.874 0-23.325 10.452-23.325 23.325v46.651c0 12.873 10.451 23.325 23.326 23.325h46.65c12.874 0 23.325-10.452 23.325-23.325v-46.65z" fill="none" stroke="#000" stroke-width="2.0020860000000003" stroke-linecap="round" stroke-linejoin="round" stroke-miterlimit="1.5"/><path d="M208.4 160.79c-1.366 1.859-3.363 3.729-6.139 5.56-6.572 4.337-12.204 4.656-19.75 4.418-7.23-.229-11.59-1.396-11.5-4.404.144-4.776 9.01-1.666 8.834-6.804-.141-4.16-8.508-2.219-8.631-6.48-.118-4.059 7.858-2.076 8.35-5.222.688-4.407-7.438-3.205-7.906-6.307-.712-4.727 12.02-6.135 17.91-5.372 5.054.654 11.52 3.708 15.53 7.063 4.1 3.43 7.287 8.83 4.962 14.61-.075-.012-.154-.045-.232-.076a4.961 4.961 0 01-.85-.459c-.76-.488-1.515-1.102-2.192-1.553-.67-.446-1.308-.749-1.845-.854-1.306-.258-2.49.415-3.478 1.674-.406.518-.793 1.138-1.208 1.659-.12.15-.208.32-.327.419-.17-.1-.501-.298-.716-.463-.776-.598-1.6-1.342-2.378-1.808-1.102-.662-2.188-.822-3.122-.438-.624.257-1.26.772-1.753 1.79-.255.527-.37 1.099-.562 1.647a1.667 1.667 0 003.144 1.103c.151-.43.218-.886.418-1.299l.01-.02c.087.042.182.092.253.138.388.25.785.579 1.18.903.7.573 1.399 1.126 2.031 1.442.762.38 1.492.475 2.137.318 1.022-.248 1.959-1.158 2.755-2.278.297-.416.583-.853.887-1.213.067-.08.177-.183.253-.253.331.133.7.455 1.122.764.804.588 1.675 1.241 2.517 1.658.099.049.197.094.295.137zm-10.056-11.694c.224-.397.198-.9-.085-1.275a1.61 1.61 0 00-.22-.716c-.205-.355-.608-.747-1.42-.966-1.743-.472-3.187.41-3.898 1.745-.688 1.293-.645 2.998.46 4.205 1.265 1.383 3.387.843 4.527-.352.792-.83 1.015-1.846.636-2.641zm8.561-.865c-.073-.855-.584-1.619-1.61-1.87-.587-.144-1.17-.012-1.69.367-.501.367-.95 1.016-1.2 1.75-.249.729-.294 1.525-.11 2.152.176.595.538 1.068 1.084 1.35 1.884.976 4.193-.44 3.944-2.642-.042-.37-.221-.752-.418-1.107z"/><path d="M194.943 159.834l-.57-.957.01-.02.587.983.291-1.265c.11.053.23.118.321.176.409.263.827.608 1.243.948.657.54 1.312 1.064 1.906 1.362.6.3 1.173.39 1.682.266.89-.215 1.676-1.042 2.37-2.016.307-.432.605-.884.92-1.257.084-.1.22-.23.314-.316.19-.172.46-.22.697-.125.371.15.793.498 1.266.844.774.566 1.609 1.198 2.42 1.598.088.044.176.085.264.123a.667.667 0 01.272 1.006c-1.403 1.912-3.453 3.84-6.307 5.722-6.704 4.423-12.443 4.771-20.14 4.528-4.47-.142-7.87-.657-9.86-1.696-1.555-.812-2.328-1.94-2.284-3.394.045-1.48.762-2.35 1.814-2.921.9-.488 2.08-.733 3.253-.978.836-.174 1.667-.35 2.356-.66.853-.384 1.452-1.002 1.411-2.203-.026-.78-.455-1.263-1.06-1.615-.76-.443-1.766-.698-2.768-.966-1.126-.3-2.247-.614-3.1-1.125-1-.6-1.665-1.452-1.704-2.777-.037-1.302.567-2.123 1.515-2.68.796-.467 1.87-.728 2.969-.946.98-.194 1.978-.356 2.76-.663.57-.224 1.028-.505 1.114-1.055.156-1-.3-1.611-1.008-2.05-.581-.36-1.308-.617-2.055-.855-1.257-.4-2.565-.75-3.466-1.308-.755-.467-1.254-1.076-1.377-1.891-.253-1.68.831-3.073 2.796-4.082 3.968-2.038 11.63-2.599 15.859-2.051 5.164.669 11.774 3.785 15.872 7.213 4.307 3.603 7.595 9.297 5.152 15.37a.666.666 0 01-.722.409 1.854 1.854 0 01-.37-.113 5.634 5.634 0 01-.97-.519c-.762-.49-1.52-1.107-2.2-1.56-.584-.389-1.135-.662-1.604-.755-1.071-.21-2.014.4-2.824 1.432-.408.52-.796 1.14-1.212 1.663-.15.189-.274.393-.423.517a.666.666 0 01-.76.063 8.388 8.388 0 01-.788-.511c-.756-.583-1.557-1.31-2.314-1.765-.894-.536-1.769-.704-2.525-.393-.506.208-1.008.64-1.407 1.465-.244.504-.35 1.052-.533 1.577a1 1 0 001.886.662c.16-.454.236-.933.447-1.369a.666.666 0 00.456.94 2.472 2.472 0 00-.137-.07l.265.06zm14.733-2.871a6.906 6.906 0 01-.338-.206c-.757-.487-1.508-1.099-2.183-1.548-.756-.503-1.48-.834-2.085-.953-1.541-.304-2.967.431-4.131 1.917-.393.501-.768 1.098-1.168 1.607a3.084 3.084 0 01-.152-.109c-.796-.614-1.645-1.373-2.442-1.851-1.31-.788-2.608-.94-3.718-.483-.743.305-1.514.904-2.1 2.116-.266.55-.39 1.144-.591 1.717a2.334 2.334 0 004.402 1.544c.06-.17.104-.343.15-.516.219.168.44.351.66.532.74.607 1.485 1.188 2.155 1.523.923.461 1.81.56 2.592.37 1.155-.28 2.241-1.275 3.141-2.54.244-.341.48-.698.725-1.01.185.134.383.301.6.46.7.51 1.447 1.066 2.185 1.487-1.3 1.599-3.098 3.2-5.484 4.774-6.442 4.25-11.966 4.541-19.363 4.308-4.205-.133-7.413-.568-9.285-1.545-1.018-.532-1.597-1.22-1.569-2.173.034-1.114.703-1.656 1.585-2.005.722-.286 1.576-.452 2.422-.629 2.547-.531 4.928-1.256 4.827-4.213-.044-1.3-.713-2.135-1.721-2.722-.852-.496-1.973-.802-3.095-1.101-1-.267-2.002-.527-2.758-.98-.607-.365-1.034-.869-1.057-1.674-.021-.727.327-1.18.857-1.491.682-.401 1.61-.602 2.553-.789 1.294-.256 2.614-.485 3.521-.974.769-.413 1.28-1 1.411-1.845.402-2.574-1.635-3.635-3.975-4.38-.971-.31-1.979-.576-2.77-.956-.595-.285-1.075-.61-1.16-1.173-.174-1.158.733-2.002 2.087-2.697 3.771-1.938 11.06-2.436 15.079-1.916 4.943.64 11.265 3.633 15.188 6.914 3.74 3.13 6.736 7.967 5.005 13.21zm-10.611-7.855a1.837 1.837 0 00-.16-1.52 2.28 2.28 0 00-.289-.817c-.266-.46-.771-.992-1.822-1.276-2.083-.563-3.812.48-4.661 2.076-.814 1.528-.75 3.541.556 4.968 1.536 1.678 4.118 1.108 5.501-.342.915-.958 1.19-2.124.875-3.09zm8.489-1.08c-.14-1.064-.81-1.998-2.1-2.314-.779-.19-1.554-.027-2.242.476-.597.436-1.141 1.2-1.438 2.072-.295.866-.337 1.813-.118 2.556.229.775.706 1.386 1.417 1.754 2.35 1.218 5.223-.56 4.912-3.309-.046-.41-.22-.836-.431-1.235zm-9.79.74a.666.666 0 00-.022.615c.275.574.056 1.295-.516 1.894-.897.94-2.558 1.45-3.553.362-.905-.988-.927-2.384-.364-3.441.573-1.076 1.732-1.796 3.137-1.416.572.154.872.406 1.017.657a.952.952 0 01.131.423.666.666 0 00.133.361.5.5 0 01.036.546zm8.477-.48a.665.665 0 00.081.265c.154.278.306.57.339.86.187 1.657-1.558 2.71-2.975 1.976-.382-.198-.629-.532-.751-.948-.15-.509-.101-1.156.1-1.75.203-.594.557-1.127.963-1.425.35-.256.742-.355 1.139-.258.702.173 1.054.694 1.104 1.28zM74.049 301.372c-1.365 1.859-3.362 3.729-6.138 5.56-6.573 4.337-12.204 4.656-19.751 4.418-7.23-.229-11.59-1.396-11.499-4.404.144-4.776 9.01-1.666 8.834-6.804-.142-4.16-8.508-2.219-8.632-6.48-.118-4.059 7.86-2.076 8.35-5.222.688-4.407-7.437-3.205-7.905-6.307-.713-4.727 12.019-6.135 17.91-5.372 5.054.654 11.52 3.708 15.53 7.063 4.1 3.43 7.287 8.83 4.961 14.61-.075-.012-.153-.045-.231-.076a4.961 4.961 0 01-.851-.459c-.76-.488-1.514-1.102-2.192-1.553-.67-.446-1.307-.749-1.845-.854-1.305-.258-2.49.415-3.477 1.674-.406.518-.794 1.138-1.209 1.659-.12.15-.208.32-.327.419-.17-.1-.5-.298-.715-.463-.776-.598-1.601-1.342-2.378-1.808-1.103-.662-2.189-.822-3.122-.438-.624.257-1.26.772-1.753 1.79-.255.527-.37 1.099-.563 1.647a1.667 1.667 0 003.145 1.103c.15-.43.218-.886.417-1.299l.011-.02c.086.042.181.092.252.138.389.25.786.579 1.18.903.7.573 1.4 1.126 2.032 1.442.761.38 1.492.475 2.137.318 1.022-.248 1.958-1.158 2.755-2.278.296-.416.583-.853.886-1.213.068-.08.177-.183.254-.253.33.133.699.455 1.121.764.805.588 1.675 1.241 2.518 1.658.098.049.197.094.295.137zm-10.055-11.694c.223-.397.198-.9-.085-1.275a1.61 1.61 0 00-.22-.716c-.206-.355-.608-.747-1.42-.966-1.743-.472-3.187.41-3.899 1.745-.688 1.293-.645 2.998.46 4.205 1.266 1.383 3.388.843 4.528-.352.791-.83 1.015-1.846.636-2.641zm8.56-.865c-.072-.855-.583-1.619-1.609-1.87-.587-.144-1.171-.012-1.69.367-.502.367-.951 1.016-1.2 1.75-.249.729-.295 1.525-.11 2.152.175.595.538 1.068 1.084 1.35 1.884.976 4.193-.44 3.944-2.642-.042-.37-.222-.752-.418-1.107z"/><path d="M60.593 300.416l-.57-.957.01-.02.586.983.292-1.265c.11.053.23.118.32.176.41.263.828.608 1.243.948.658.54 1.312 1.064 1.907 1.362.6.3 1.173.39 1.682.266.89-.215 1.676-1.042 2.37-2.016.306-.432.604-.884.92-1.257.084-.1.219-.23.314-.316.19-.172.46-.22.697-.125.37.15.792.498 1.266.844.774.566 1.609 1.198 2.42 1.598.087.044.175.085.263.123a.667.667 0 01.273 1.006c-1.404 1.912-3.454 3.84-6.308 5.722-6.704 4.423-12.442 4.771-20.14 4.528-4.469-.142-7.87-.657-9.86-1.696-1.554-.812-2.327-1.94-2.283-3.394.044-1.48.762-2.35 1.814-2.921.9-.488 2.08-.733 3.253-.978.835-.174 1.667-.35 2.356-.66.853-.384 1.452-1.002 1.411-2.203-.027-.78-.456-1.263-1.06-1.615-.76-.443-1.767-.698-2.769-.966-1.125-.3-2.247-.614-3.099-1.125-1-.6-1.665-1.452-1.704-2.777-.038-1.302.567-2.123 1.515-2.68.795-.467 1.87-.728 2.968-.946.98-.194 1.979-.356 2.761-.663.57-.224 1.028-.505 1.114-1.055.156-1-.301-1.611-1.009-2.05-.58-.36-1.308-.617-2.054-.855-1.258-.4-2.565-.75-3.467-1.308-.755-.467-1.253-1.076-1.376-1.891-.253-1.68.831-3.073 2.795-4.082 3.968-2.038 11.631-2.599 15.86-2.051 5.164.669 11.773 3.785 15.871 7.213 4.308 3.603 7.595 9.297 5.153 15.37a.666.666 0 01-.722.409 1.854 1.854 0 01-.37-.113 5.634 5.634 0 01-.97-.519c-.762-.49-1.52-1.107-2.2-1.56-.585-.389-1.136-.662-1.604-.755-1.072-.21-2.015.4-2.825 1.432-.407.52-.795 1.14-1.211 1.663-.15.189-.274.393-.424.517a.666.666 0 01-.76.063 8.388 8.388 0 01-.787-.511c-.756-.583-1.557-1.31-2.314-1.765-.894-.536-1.769-.704-2.526-.393-.505.208-1.007.64-1.406 1.465-.244.504-.35 1.052-.534 1.577a1 1 0 001.887.662c.16-.454.236-.933.447-1.369a.666.666 0 00.456.94 2.472 2.472 0 00-.137-.07l.265.06zm14.732-2.871a6.906 6.906 0 01-.338-.206c-.756-.487-1.507-1.099-2.183-1.548-.756-.503-1.479-.834-2.085-.953-1.54-.304-2.966.431-4.13 1.917-.394.501-.769 1.098-1.169 1.607a3.084 3.084 0 01-.152-.109c-.796-.614-1.644-1.373-2.441-1.851-1.311-.788-2.608-.94-3.718-.483-.743.305-1.514.904-2.1 2.116-.266.55-.39 1.144-.592 1.717a2.334 2.334 0 004.403 1.544c.059-.17.103-.343.149-.516.22.168.44.351.66.532.741.607 1.486 1.188 2.156 1.523.923.461 1.81.56 2.592.37 1.154-.28 2.24-1.275 3.141-2.54.243-.341.479-.698.724-1.01.186.134.384.301.6.46.7.51 1.448 1.066 2.186 1.487-1.301 1.599-3.098 3.2-5.484 4.774-6.442 4.25-11.966 4.541-19.363 4.308-4.205-.133-7.414-.568-9.285-1.545-1.019-.532-1.598-1.22-1.569-2.173.034-1.114.703-1.656 1.584-2.005.723-.286 1.576-.452 2.423-.629 2.546-.531 4.928-1.256 4.827-4.213-.044-1.3-.714-2.135-1.722-2.722-.852-.496-1.972-.802-3.095-1.101-.999-.267-2.001-.527-2.757-.98-.608-.365-1.034-.869-1.058-1.674-.02-.727.328-1.18.858-1.491.682-.401 1.61-.602 2.553-.789 1.294-.256 2.613-.485 3.52-.974.77-.413 1.28-1 1.412-1.845.402-2.574-1.635-3.635-3.976-4.38-.97-.31-1.978-.576-2.77-.956-.594-.285-1.074-.61-1.159-1.173-.175-1.158.732-2.002 2.086-2.697 3.772-1.938 11.06-2.436 15.08-1.916 4.943.64 11.265 3.633 15.187 6.914 3.74 3.13 6.737 7.967 5.005 13.21zm-10.61-7.855a1.837 1.837 0 00-.16-1.52 2.28 2.28 0 00-.29-.817c-.266-.46-.77-.992-1.822-1.276-2.083-.563-3.811.48-4.66 2.076-.814 1.528-.75 3.541.556 4.968 1.535 1.678 4.117 1.108 5.5-.342.916-.958 1.19-2.124.875-3.09zm8.488-1.08c-.14-1.064-.809-1.998-2.1-2.314-.778-.19-1.554-.027-2.242.476-.596.436-1.14 1.2-1.438 2.072-.294.866-.337 1.813-.117 2.556.228.775.705 1.386 1.416 1.754 2.351 1.218 5.224-.56 4.913-3.309-.047-.41-.22-.836-.432-1.235zm-9.79.74a.666.666 0 00-.02.615c.273.574.055 1.295-.517 1.894-.897.94-2.559 1.45-3.554.362-.904-.988-.926-2.384-.363-3.441.573-1.076 1.732-1.796 3.137-1.416.572.154.872.406 1.017.657a.952.952 0 01.13.423.666.666 0 00.134.361.5.5 0 01.036.546zm8.478-.48a.665.665 0 00.08.265c.154.278.307.57.34.86.187 1.657-1.558 2.71-2.976 1.976-.381-.198-.628-.532-.75-.948-.151-.509-.102-1.156.1-1.75.203-.594.556-1.127.963-1.425.35-.256.742-.355 1.139-.258.702.173 1.054.694 1.104 1.28z"/><g><path d="M312.651 197.904c-1.365 1.859-3.362 3.729-6.138 5.56-6.572 4.337-12.204 4.656-19.75 4.418-7.23-.229-11.59-1.396-11.5-4.404.144-4.776 9.01-1.666 8.834-6.804-.141-4.16-8.508-2.219-8.631-6.48-.118-4.059 7.858-2.076 8.35-5.222.688-4.407-7.438-3.205-7.906-6.307-.712-4.727 12.02-6.135 17.91-5.372 5.054.654 11.52 3.708 15.53 7.063 4.1 3.43 7.287 8.83 4.962 14.61-.075-.012-.154-.045-.232-.076a4.961 4.961 0 01-.85-.459c-.76-.488-1.515-1.102-2.192-1.553-.67-.446-1.308-.749-1.845-.854-1.306-.258-2.49.415-3.478 1.674-.406.518-.793 1.138-1.208 1.659-.12.15-.208.32-.327.419-.17-.1-.501-.298-.716-.463-.776-.598-1.6-1.342-2.378-1.808-1.102-.662-2.188-.822-3.122-.438-.624.257-1.26.772-1.753 1.79-.255.527-.37 1.099-.562 1.647a1.667 1.667 0 003.144 1.103c.151-.43.218-.886.418-1.299l.01-.02c.087.042.182.092.253.138.388.25.785.579 1.18.903.7.573 1.399 1.126 2.031 1.442.762.38 1.492.475 2.137.318 1.022-.248 1.959-1.158 2.755-2.278.297-.416.583-.853.887-1.213.067-.08.177-.183.253-.253.331.133.7.455 1.122.764.804.588 1.675 1.241 2.517 1.658.099.049.197.094.295.137zm-10.055-11.694c.224-.397.198-.9-.085-1.275a1.61 1.61 0 00-.22-.716c-.205-.355-.608-.747-1.42-.966-1.743-.472-3.187.41-3.898 1.745-.688 1.293-.645 2.998.46 4.205 1.265 1.383 3.387.843 4.527-.352.792-.83 1.015-1.846.636-2.641zm8.561-.865c-.073-.855-.584-1.619-1.61-1.87-.587-.144-1.17-.012-1.69.367-.501.367-.95 1.016-1.2 1.75-.249.729-.294 1.525-.11 2.152.176.595.538 1.068 1.084 1.35 1.884.976 4.193-.44 3.944-2.642-.042-.37-.221-.752-.418-1.107z"/><path d="M299.195 196.948l-.57-.957.01-.02.587.983.291-1.265c.11.053.23.118.321.176.409.263.827.608 1.243.948.657.54 1.312 1.064 1.906 1.362.6.3 1.173.39 1.682.266.89-.215 1.676-1.042 2.37-2.016.307-.432.605-.884.92-1.257.084-.1.22-.23.314-.316.19-.172.46-.22.697-.125.371.15.793.498 1.266.844.774.566 1.609 1.198 2.42 1.598.088.044.176.085.264.123a.667.667 0 01.272 1.006c-1.403 1.912-3.453 3.84-6.307 5.722-6.704 4.423-12.443 4.771-20.14 4.528-4.47-.142-7.87-.657-9.86-1.696-1.555-.812-2.328-1.94-2.284-3.394.045-1.48.762-2.35 1.814-2.921.9-.488 2.08-.733 3.253-.978.836-.174 1.667-.35 2.356-.66.853-.384 1.452-1.002 1.411-2.203-.026-.78-.455-1.263-1.06-1.615-.76-.443-1.766-.698-2.768-.966-1.126-.3-2.247-.614-3.1-1.125-1-.6-1.665-1.452-1.704-2.777-.037-1.302.567-2.123 1.515-2.68.796-.467 1.87-.728 2.969-.946.98-.194 1.978-.356 2.76-.663.57-.224 1.028-.505 1.114-1.055.156-1-.3-1.611-1.008-2.05-.581-.36-1.308-.617-2.055-.855-1.257-.4-2.565-.75-3.466-1.308-.755-.467-1.254-1.076-1.377-1.891-.253-1.68.831-3.073 2.796-4.082 3.968-2.038 11.63-2.599 15.859-2.051 5.164.669 11.774 3.785 15.872 7.213 4.307 3.603 7.595 9.297 5.152 15.37a.666.666 0 01-.722.409 1.854 1.854 0 01-.37-.113 5.634 5.634 0 01-.97-.519c-.762-.49-1.52-1.107-2.2-1.56-.584-.389-1.135-.662-1.604-.755-1.071-.21-2.014.4-2.824 1.432-.408.52-.796 1.14-1.212 1.663-.15.189-.274.393-.423.517a.666.666 0 01-.76.063 8.388 8.388 0 01-.788-.511c-.756-.583-1.557-1.31-2.314-1.765-.894-.536-1.769-.704-2.525-.393-.506.208-1.008.64-1.407 1.465-.244.504-.35 1.052-.533 1.577a1 1 0 001.886.662c.16-.454.236-.933.447-1.369a.666.666 0 00.456.94 2.472 2.472 0 00-.137-.07l.265.06zm14.733-2.871a6.906 6.906 0 01-.338-.206c-.757-.487-1.508-1.099-2.183-1.548-.756-.503-1.48-.834-2.085-.953-1.541-.304-2.967.431-4.131 1.917-.393.501-.768 1.098-1.168 1.607a3.084 3.084 0 01-.152-.109c-.796-.614-1.645-1.373-2.442-1.851-1.31-.788-2.608-.94-3.718-.483-.743.305-1.514.904-2.1 2.116-.266.55-.39 1.144-.591 1.717a2.334 2.334 0 004.402 1.544c.06-.17.104-.343.15-.516.219.168.44.351.66.532.74.607 1.485 1.188 2.155 1.523.923.461 1.81.56 2.592.37 1.155-.28 2.241-1.275 3.141-2.54.244-.341.48-.698.725-1.01.185.134.383.301.6.46.7.51 1.447 1.066 2.185 1.487-1.3 1.599-3.098 3.2-5.484 4.774-6.442 4.25-11.966 4.541-19.363 4.308-4.205-.133-7.413-.568-9.285-1.545-1.018-.532-1.597-1.22-1.569-2.173.034-1.114.703-1.656 1.585-2.005.722-.286 1.576-.452 2.422-.629 2.547-.531 4.928-1.256 4.827-4.213-.044-1.3-.713-2.135-1.721-2.722-.852-.496-1.973-.802-3.095-1.101-1-.267-2.002-.527-2.758-.98-.607-.365-1.034-.869-1.057-1.674-.021-.727.327-1.18.857-1.491.682-.401 1.61-.602 2.553-.789 1.294-.256 2.614-.485 3.521-.974.769-.413 1.28-1 1.411-1.845.402-2.574-1.635-3.635-3.975-4.38-.971-.31-1.979-.576-2.77-.956-.595-.285-1.075-.61-1.16-1.173-.174-1.158.733-2.002 2.087-2.697 3.771-1.938 11.06-2.436 15.079-1.916 4.943.64 11.265 3.633 15.188 6.914 3.74 3.13 6.736 7.967 5.005 13.21zm-10.611-7.855a1.837 1.837 0 00-.16-1.52 2.28 2.28 0 00-.289-.817c-.266-.46-.771-.992-1.822-1.276-2.083-.563-3.812.48-4.661 2.076-.814 1.528-.75 3.541.556 4.968 1.536 1.678 4.118 1.108 5.501-.342.915-.958 1.19-2.124.875-3.09zm8.489-1.08c-.14-1.064-.81-1.998-2.1-2.314-.779-.19-1.554-.027-2.242.476-.597.436-1.141 1.2-1.438 2.072-.295.866-.337 1.813-.118 2.556.229.775.706 1.386 1.417 1.754 2.35 1.218 5.223-.56 4.912-3.309-.046-.41-.22-.836-.431-1.235zm-9.79.74a.666.666 0 00-.022.615c.275.574.056 1.295-.516 1.894-.897.94-2.558 1.45-3.553.362-.905-.988-.927-2.384-.364-3.441.573-1.076 1.732-1.796 3.137-1.416.572.154.872.406 1.017.657a.952.952 0 01.131.423.666.666 0 00.133.361.5.5 0 01.036.546zm8.477-.48a.665.665 0 00.081.265c.154.278.306.57.339.86.187 1.657-1.558 2.71-2.975 1.976-.382-.198-.629-.532-.751-.948-.15-.509-.101-1.156.1-1.75.203-.594.557-1.127.963-1.425.35-.256.742-.355 1.139-.258.702.173 1.054.694 1.104 1.28z"/></g><g><path d="M151.065 170.43c-.103 0-.208.011-.312.032-4.114.825-6.892 2.32-9.673 5.775-.696.865-1.377 1.836-1.731 2.918-1.003 3.06.55 5.87 2.917 7.5.872.6 1.828 1.234 2.812 1.62 1.012.398 2.183.458 3.247.585 2.17.26 4.327.3 6.51.285 3.244-.023 6.47-.23 9.705-.454 3.048-.211 6.176-.456 9.122-1.353a7.147 7.147 0 001.992-.952c.943-.656 1.865-1.612 2.158-2.805.285-1.16-.208-2.547-.756-3.507-.996-1.747-2.414-3.472-3.876-4.805-.494-.45-.987-.896-1.498-1.325-.948-.794-2.097-1.278-3.19-1.813-1.31-.641-2.615-1.443-4.03-1.813-2.27-.593-4.798-.384-7.12-.377-2.034.006-4.238-.138-6.214.468l-.063.02zm.575 3.268a1.636 1.636 0 01-.226.063c-3.277.656-5.499 1.833-7.713 4.585-.449.557-.927 1.159-1.156 1.856-.501 1.531.445 2.868 1.63 3.683.664.458 1.381.964 2.132 1.26.75.294 1.628.28 2.418.375 2.028.243 4.046.276 6.085.262 3.175-.023 6.331-.227 9.498-.446 2.796-.194 5.67-.392 8.373-1.216.37-.113.733-.274 1.054-.497.312-.216.713-.45.81-.845.034-.136-.053-.276-.106-.415a4.603 4.603 0 00-.305-.623c-.826-1.45-2.006-2.878-3.22-3.984-.46-.418-.918-.835-1.393-1.234-.738-.619-1.656-.953-2.507-1.37-1.113-.544-2.2-1.265-3.402-1.579-1.995-.521-4.219-.275-6.259-.268-1.713.005-3.575-.19-5.239.32a1.663 1.663 0 01-.474.073z"/><path d="M161.619 176.325c.683.278 1.349.597 2.011.925a1.683 1.683 0 001.491-3.016 33.907 33.907 0 00-2.234-1.025 1.683 1.683 0 00-1.268 3.116zM158.442 179.912c.357.213.72.423 1.057.67a1.683 1.683 0 001.986-2.715c-.422-.31-.874-.578-1.321-.845a1.683 1.683 0 00-1.722 2.89zM151.704 176.675c.137.107.276.213.412.322a1.683 1.683 0 002.112-2.618c-.146-.118-.296-.231-.443-.347a1.683 1.683 0 00-2.08 2.643zM148.933 181.784c.194.146.39.29.587.433a1.683 1.683 0 001.97-2.726c-.18-.13-.358-.262-.535-.395a1.683 1.683 0 00-2.022 2.688zM178.83 187.363a2.729 2.729 0 01-.433.294c-1.828.928-3.887 1.265-5.904 1.326-3.35.102-6.737.12-10.087 0-2.825-.102-5.622-.547-8.436-.748-2.349-.168-4.71-.003-7.057-.225a60.936 60.936 0 00-4.988-.284c-.424-.005-.944.025-1.454-.006l-.11-.007c.505-.629 1.178-1.076 1.843-1.512a1.683 1.683 0 00-1.844-2.813c-1.178.772-2.307 1.636-3.091 2.871-.85 1.338-.733 3.26.729 4.178 1.055.664 2.722.638 3.885.653 1.576.02 3.145.12 4.714.269 2.372.224 4.759.06 7.133.23 2.854.205 5.69.652 8.555.755 3.424.123 6.886.106 10.31.002 2.505-.076 5.053-.537 7.324-1.69 1.481-.75 2.192-1.801 2.343-2.809.156-1.049-.227-2.276-1.603-3.392-.514-.417-1.113-.715-1.68-1.044-.738-.428-1.47-.83-2.262-1.138a1.683 1.683 0 00-1.223 3.133c.63.246 1.21.573 1.797.914.417.242.87.44 1.25.748.102.083.21.202.29.295z"/><path d="M173.671 191.147c-.075.728-.141 1.443-.28 2.097-.127.596-.28 1.146-.716 1.504-.277.228-.658.357-1.16.424-.727.097-1.464.105-2.196.118-1.148.02-2.295.018-3.443.02-4.59.004-9.177-.083-13.767-.085-1.896-.001-3.78-.188-5.65-.512-.515-.09-1.191-.067-1.6-.441-.6-.549-.829-1.528-.917-2.33-.057-.528-.09-1.022.061-1.532a1.683 1.683 0 00-3.225-.956c-.282.951-.287 1.87-.18 2.853.172 1.562.824 3.379 1.99 4.446.871.798 2.2 1.084 3.296 1.274 2.06.357 4.135.56 6.224.562 4.591.002 9.18.09 13.772.084 1.166-.001 2.333 0 3.499-.02.86-.015 1.726-.033 2.58-.147 4.101-.546 4.702-3.565 5.058-7.013a1.683 1.683 0 00-3.346-.346z"/><path d="M168.911 201.103c.982-.051 1.897.444 2.786.747 1.05.357 2.073.554 3.059.365.348-.067.7-.199 1.015-.364.928-.488 1.273-1.098 1.46-1.73.06-.202.098-.411.127-.625l.03-.202.545-.311c.524-.3.992-.674 1.326-1.204.592-.94.311-2.051-.223-2.847-.854-1.271-2.232-1.666-3.602-1.874a1.683 1.683 0 00-.504 3.326c.197.03.399.059.596.1-.4.26-.742.576-.996.978-.196.31-.317.62-.394.932a6.494 6.494 0 00-.095.53c-.583.076-1.171-.223-1.802-.451-1.191-.432-2.443-.832-3.743-.713a2.914 2.914 0 00-1.6.64c-.233.181-.4.445-.708.625-.422.246-.948.28-1.42.346-1.126.158-2.192-.068-3.265-.423-.928-.308-1.988-.83-2.981-.85-1.082-.024-2.05.245-3.022.586-.962.337-1.926.795-3.196.675-.762-.072-1.53-.233-2.202-.63-1.278-.752-2.505-1.765-4.031-1.865-1.68-.11-2.963.394-4.574.684-.23.04-.47.09-.714.115-.134.014-.272.048-.395-.007-.237-.105-.433-.293-.633-.46a6.108 6.108 0 01-.372-.358c.09-.061.187-.124.268-.164.562-.282 1.224-.461 1.6-.476a1.683 1.683 0 00-.134-3.361c-1.002.04-3.086.645-4.196 1.64-.784.704-1.172 1.577-1.094 2.508.095 1.133 1.002 2.151 1.773 2.794.435.363.903.72 1.419.95.962.429 2.084.307 3.073.13 1.327-.239 2.373-.73 3.758-.638.464.03.843.293 1.228.545.44.287.872.6 1.316.861 1.102.65 2.344.962 3.592 1.08 1.568.15 2.838-.215 4.042-.64.798-.283 1.545-.625 2.422-.607.675.015 1.364.471 1.995.68 1.57.521 3.14.794 4.79.562.89-.125 1.852-.307 2.647-.771.31-.18.561-.39.789-.604l.24-.224z"/><path d="M173.47 201.576c.233.694.334 1.284.125 1.782-.207.49-.697.824-1.392 1.132-1.417.626-3.086.711-4.6.932-1.868.271-3.769.256-5.65.407-1.512.121-3.032.057-4.546.05-1.297-.008-2.587-.104-3.881-.163-.881-.04-1.77 0-2.649-.078a71.626 71.626 0 01-5.735-.756c-.756-.129-1.78-.27-2.252-.962-.361-.53-.409-1.26-.45-1.894-.028-.447-.058-.916.108-1.337a1.683 1.683 0 00-3.13-1.231c-.346.879-.394 1.849-.334 2.782.077 1.213.337 2.564 1.027 3.576.975 1.43 2.903 2.116 4.466 2.382 1.986.338 4 .615 6.006.79.927.082 1.862.046 2.791.088 1.339.061 2.673.158 4.014.166 1.61.009 3.227.07 4.835-.06 1.952-.156 3.924-.15 5.865-.432 1.806-.262 3.783-.436 5.475-1.184 1.655-.732 2.641-1.736 3.132-2.904.488-1.16.506-2.542-.037-4.158a1.683 1.683 0 00-3.188 1.072zM160.426 185.818h18.613v4.415h-18.613z"/><path d="M138.408 195.137h5.404v3.649h-5.404zM149.609 196.961h7.222v3.113h-7.222zM160.426 196.961h6.762v3.113h-6.762zM171.229 196.961h3.605v3.113h-3.605z"/><path stroke="#000" stroke-width="50" stroke-linecap="round" stroke-linejoin="round" stroke-miterlimit="1.5" d="M62.63 285.723h59.44v47.174H62.63z" transform="matrix(.06583 0 0 .06869 135.775 166.193)"/></g><g><path d="M77.778 33.251c-.103.001-.207.012-.312.033-4.114.824-6.892 2.32-9.672 5.775-.696.864-1.377 1.835-1.732 2.917-1.002 3.06.55 5.87 2.918 7.501.871.6 1.828 1.234 2.812 1.62 1.012.397 2.182.457 3.246.585 2.17.26 4.328.3 6.51.285 3.244-.023 6.47-.23 9.706-.454 3.047-.212 6.175-.456 9.121-1.354a7.147 7.147 0 001.993-.952c.943-.655 1.864-1.612 2.157-2.805.285-1.16-.208-2.546-.755-3.507-.997-1.747-2.414-3.472-3.877-4.804-.493-.45-.987-.897-1.497-1.325-.948-.795-2.097-1.279-3.19-1.813-1.311-.642-2.615-1.444-4.03-1.813-2.271-.593-4.798-.385-7.12-.378-2.034.007-4.239-.138-6.214.468l-.064.021zm.576 3.269a1.636 1.636 0 01-.227.062c-3.277.657-5.498 1.833-7.713 4.586-.448.557-.927 1.158-1.155 1.856-.502 1.53.444 2.867 1.629 3.683.665.458 1.382.964 2.133 1.259.75.294 1.628.281 2.417.376 2.029.243 4.046.276 6.086.261 3.175-.022 6.331-.226 9.497-.446 2.796-.194 5.67-.392 8.374-1.216.37-.112.732-.273 1.053-.496.312-.217.714-.45.81-.845.034-.137-.052-.277-.106-.416a4.603 4.603 0 00-.304-.622c-.827-1.45-2.006-2.879-3.22-3.985-.46-.418-.918-.835-1.394-1.234-.738-.619-1.656-.953-2.506-1.369-1.113-.544-2.201-1.266-3.403-1.58-1.995-.52-4.218-.274-6.258-.268-1.714.006-3.575-.19-5.24.32a1.663 1.663 0 01-.473.074z"/><path d="M88.332 39.146c.683.278 1.35.598 2.012.925a1.683 1.683 0 001.49-3.015 33.907 33.907 0 00-2.233-1.025 1.683 1.683 0 00-1.269 3.115zM85.155 42.734c.357.212.72.422 1.057.669a1.683 1.683 0 001.987-2.715c-.423-.31-.874-.577-1.322-.844a1.683 1.683 0 00-1.722 2.89zM78.418 39.496c.137.108.276.213.411.323a1.683 1.683 0 002.112-2.619c-.146-.117-.295-.231-.442-.347a1.683 1.683 0 00-2.081 2.643zM75.647 44.606c.194.146.39.29.586.432a1.683 1.683 0 001.971-2.726c-.18-.13-.358-.261-.536-.395a1.683 1.683 0 00-2.021 2.689zM105.544 50.184a2.729 2.729 0 01-.434.295c-1.828.927-3.887 1.265-5.904 1.326-3.35.101-6.737.12-10.086-.001-2.825-.102-5.622-.547-8.437-.748-2.348-.168-4.71-.003-7.056-.225a60.936 60.936 0 00-4.989-.283c-.424-.006-.943.025-1.453-.007l-.111-.006c.506-.63 1.178-1.077 1.844-1.513a1.683 1.683 0 00-1.845-2.813c-1.178.772-2.307 1.637-3.09 2.872-.85 1.338-.734 3.26.728 4.178 1.056.663 2.723.638 3.886.652 1.576.02 3.145.121 4.713.27 2.373.223 4.76.06 7.133.23 2.854.204 5.691.652 8.556.755 3.423.123 6.885.105 10.31.001 2.505-.076 5.053-.537 7.323-1.689 1.482-.751 2.192-1.802 2.343-2.81.157-1.048-.227-2.276-1.602-3.391-.515-.418-1.113-.716-1.68-1.045-.738-.428-1.47-.829-2.262-1.138a1.683 1.683 0 00-1.223 3.134c.63.246 1.21.573 1.797.914.417.242.87.44 1.25.747.101.083.21.202.289.295z"/><path d="M100.385 53.969c-.075.727-.142 1.442-.28 2.096-.127.597-.281 1.147-.717 1.505-.276.227-.658.357-1.159.424-.727.096-1.465.104-2.197.117-1.147.02-2.295.018-3.442.02-4.59.005-9.178-.082-13.767-.085-1.897 0-3.78-.188-5.651-.512-.515-.09-1.19-.066-1.6-.441-.6-.549-.828-1.527-.916-2.33-.058-.527-.09-1.021.06-1.531a1.683 1.683 0 00-3.224-.957c-.282.952-.288 1.87-.18 2.854.171 1.561.823 3.378 1.989 4.445.872.799 2.2 1.085 3.297 1.275 2.06.356 4.135.56 6.223.561 4.592.002 9.18.09 13.772.084 1.167-.001 2.333.001 3.5-.02.86-.015 1.726-.032 2.58-.146 4.1-.547 4.702-3.565 5.058-7.014a1.683 1.683 0 00-3.346-.345z"/><path d="M95.625 63.924c.981-.051 1.896.444 2.786.747 1.05.357 2.073.554 3.058.365.348-.066.7-.198 1.016-.364.927-.488 1.272-1.098 1.46-1.73.06-.202.098-.41.127-.625l.03-.201.544-.312c.524-.3.993-.673 1.327-1.204.592-.94.31-2.05-.224-2.847-.853-1.271-2.232-1.666-3.602-1.874a1.683 1.683 0 00-.504 3.326c.198.03.4.059.597.101-.401.26-.742.575-.997.977-.196.31-.316.62-.393.932a6.494 6.494 0 00-.096.53c-.582.076-1.17-.222-1.801-.45-1.192-.432-2.444-.833-3.744-.713a2.914 2.914 0 00-1.6.64c-.232.18-.4.445-.708.624-.421.246-.948.28-1.42.346-1.125.158-2.192-.067-3.264-.423-.928-.308-1.989-.83-2.982-.85-1.081-.023-2.05.245-3.021.586-.962.338-1.927.796-3.196.675-.763-.072-1.53-.233-2.203-.63-1.278-.752-2.505-1.764-4.03-1.865-1.68-.11-2.964.395-4.575.684-.229.041-.47.09-.714.115-.134.014-.272.049-.395-.006-.236-.105-.433-.294-.632-.46a6.108 6.108 0 01-.372-.358c.09-.062.186-.124.267-.165.563-.281 1.224-.46 1.6-.476a1.683 1.683 0 00-.133-3.361c-1.003.04-3.086.646-4.196 1.641-.785.703-1.172 1.576-1.094 2.508.095 1.133 1.002 2.15 1.772 2.794.436.363.903.72 1.42.95.962.428 2.083.306 3.072.129 1.328-.239 2.374-.73 3.759-.638.463.03.843.294 1.228.545.44.288.871.6 1.316.862 1.102.649 2.344.962 3.592 1.08 1.568.149 2.838-.216 4.041-.641.798-.282 1.546-.625 2.423-.606.675.014 1.363.47 1.994.68 1.571.52 3.141.793 4.791.561.89-.124 1.851-.307 2.647-.77.31-.181.56-.39.788-.605l.24-.224z"/><path d="M100.183 64.397c.233.694.335 1.284.125 1.782-.206.49-.697.825-1.391 1.132-1.418.627-3.087.712-4.6.932-1.869.272-3.77.257-5.65.407-1.512.122-3.032.058-4.547.05-1.296-.008-2.586-.104-3.88-.163-.882-.04-1.77 0-2.65-.078a71.626 71.626 0 01-5.735-.756c-.756-.129-1.78-.27-2.251-.961-.362-.53-.41-1.26-.45-1.895-.028-.446-.058-.916.107-1.336a1.683 1.683 0 00-3.13-1.232c-.346.88-.393 1.85-.334 2.783.078 1.213.337 2.563 1.027 3.575.976 1.43 2.903 2.116 4.466 2.382 1.986.339 4.001.615 6.006.791.927.082 1.863.046 2.792.088 1.338.06 2.673.158 4.014.165 1.61.009 3.226.07 4.834-.06 1.952-.156 3.925-.15 5.865-.431 1.806-.263 3.784-.436 5.476-1.185 1.654-.731 2.64-1.736 3.132-2.903.488-1.16.505-2.543-.037-4.158a1.683 1.683 0 00-3.189 1.071zM87.14 48.64h18.613v4.415H87.139z"/><path d="M65.122 57.959h5.403v3.648h-5.403zM76.322 59.783h7.223v3.112h-7.223zM87.14 59.783h6.762v3.112h-6.763zM97.942 59.783h3.606v3.112h-3.606z"/><path stroke="#000" stroke-width="50" stroke-linecap="round" stroke-linejoin="round" stroke-miterlimit="1.5" d="M62.63 285.723h59.44v47.174H62.63z" transform="matrix(.06583 0 0 .06869 62.489 29.014)"/></g><g><path d="M254.983 269.475a1.493 1.493 0 00-1.442-.284c-2.228.737-3.834 2.542-5.084 4.432-1.023 1.547-2.097 3.438-2.624 5.38-.6 2.21-.512 4.479.871 6.504.695 1.017 1.754 1.771 2.754 2.453 3.777 2.574 8.753 2.726 13.082 1.47 1.369-.397 2.683-.983 3.8-1.882 3.002-2.417 3.748-6.105 2.946-9.644-.766-3.38-2.964-6.583-5.74-8.24-1.258-.75-2.674-1.022-4.134-.989-1.488.034-3.024.396-4.43.8zm-1.5 3.027c-1.056.669-1.846 1.729-2.534 2.769-.861 1.302-1.79 2.88-2.234 4.515-.371 1.368-.4 2.782.456 4.035.487.713 1.27 1.193 1.97 1.67 3.046 2.077 7.074 2.084 10.566 1.07.99-.287 1.952-.69 2.76-1.34 2.062-1.66 2.456-4.227 1.906-6.657-.587-2.588-2.232-5.066-4.358-6.334-.986-.588-2.139-.643-3.292-.517-1.387.153-2.781.583-4 .957a1.489 1.489 0 01-1.24-.168z"/><path d="M261.428 276.422v.5a1.494 1.494 0 002.987 0v-.5a1.494 1.494 0 00-2.987 0zM251.299 276.744c.03.149.059.297.083.447a1.494 1.494 0 002.948-.486c-.03-.183-.066-.365-.102-.546a1.494 1.494 0 00-2.93.585zM254.257 285.703c2.37-1.088 4.919-2.09 7.476-2.638a1.494 1.494 0 00-.626-2.921c-2.768.593-5.53 1.666-8.096 2.844a1.494 1.494 0 001.246 2.715zM264.02 287.363c.6 1.868 1.01 3.799 1.323 5.733.177 1.092.365 2.187.352 3.297-.009.727-.11 1.448-.206 2.166-.063.475-.087.91-.137 1.298-.022.173-.012.334-.1.454-.061.084-.187.09-.35.13-.278.07-.59.115-.874.147-.667.076-1.34.098-2.011.115a63.865 63.865 0 01-4.09-.029c-2.4-.091-4.847.027-7.237-.23a1.494 1.494 0 00-.32 2.97c2.46.264 4.974.15 7.443.245a66.9 66.9 0 004.28.03 26.13 26.13 0 002.272-.133c.41-.046.857-.116 1.258-.216.875-.217 1.432-.581 1.823-1.002.415-.448.66-.983.791-1.621.103-.502.124-1.095.213-1.764.111-.838.222-1.679.232-2.526.015-1.282-.186-2.548-.39-3.808-.337-2.083-.782-4.16-1.43-6.172a1.494 1.494 0 00-2.843.916z"/><path d="M248.937 288.436h17.107v12.81h-17.107z"/><path d="M248.813 287.014c-.488 1.64-1.338 3.14-1.844 4.778-1.068 3.456-1.213 7.795.235 11.205a1.494 1.494 0 002.75-1.167c-1.183-2.786-1.003-6.332-.131-9.156.509-1.648 1.362-3.157 1.853-4.808a1.494 1.494 0 00-2.863-.852zM265.989 291.137c1.076.884 2.588 1.85 3.962 2.929 1.048.824 2.052 1.68 2.449 2.71a2.067 2.067 0 003.856-1.481c-.522-1.357-1.575-2.622-2.876-3.755-1.556-1.355-3.476-2.533-4.769-3.595a2.067 2.067 0 00-2.622 3.192z"/><path d="M247.413 289.024c-2.966 1.63-5.91 3.694-8.151 6.256a2.067 2.067 0 003.11 2.72c1.927-2.204 4.48-3.954 7.03-5.356a2.067 2.067 0 00-1.99-3.62zM260.108 303.53c-.098 2.096-.013 4.322-.776 6.374a2.308 2.308 0 004.325 1.608c.931-2.505.941-5.208 1.06-7.766a2.309 2.309 0 00-4.61-.216zM250.504 303.906c.63 2.316.8 4.597.963 6.938a2.308 2.308 0 004.604-.322c-.185-2.642-.403-5.212-1.113-7.825a2.308 2.308 0 00-4.454 1.21z"/></g><g><path d="M48.646 135.584a1.493 1.493 0 00-1.442-.284c-2.228.737-3.833 2.542-5.083 4.432-1.024 1.547-2.097 3.438-2.625 5.38-.6 2.21-.512 4.479.872 6.504.695 1.017 1.754 1.771 2.754 2.453 3.776 2.574 8.753 2.726 13.081 1.47 1.37-.397 2.683-.983 3.8-1.882 3.003-2.417 3.748-6.105 2.946-9.644-.765-3.38-2.963-6.583-5.74-8.24-1.258-.75-2.674-1.022-4.134-.989-1.487.034-3.024.396-4.429.8zm-1.5 3.027c-1.056.669-1.846 1.729-2.534 2.769-.86 1.302-1.79 2.88-2.233 4.515-.372 1.368-.4 2.782.455 4.035.487.713 1.27 1.193 1.97 1.67 3.047 2.077 7.074 2.084 10.566 1.07.99-.287 1.952-.69 2.76-1.34 2.062-1.66 2.456-4.227 1.906-6.657-.586-2.588-2.231-5.066-4.357-6.334-.986-.588-2.14-.643-3.293-.517-1.387.153-2.78.583-4 .957a1.489 1.489 0 01-1.24-.168z"/><path d="M55.091 142.531v.5a1.494 1.494 0 002.987 0v-.5a1.494 1.494 0 00-2.987 0zM44.962 142.853c.03.149.06.297.084.447a1.494 1.494 0 002.947-.486c-.03-.183-.065-.365-.102-.546a1.494 1.494 0 00-2.929.585zM47.92 151.812c2.37-1.088 4.92-2.09 7.476-2.638a1.494 1.494 0 00-.625-2.921c-2.768.593-5.531 1.666-8.096 2.844a1.494 1.494 0 001.246 2.715zM57.683 153.472c.601 1.868 1.01 3.799 1.323 5.733.177 1.092.365 2.187.352 3.297-.008.727-.11 1.448-.206 2.166-.063.475-.087.91-.136 1.298-.022.173-.013.334-.1.454-.062.084-.188.09-.35.13-.278.07-.59.115-.874.147-.668.076-1.341.098-2.012.115a63.865 63.865 0 01-4.09-.029c-2.4-.091-4.846.027-7.237-.23a1.494 1.494 0 00-.319 2.97c2.459.264 4.974.15 7.442.245a66.9 66.9 0 004.28.03 26.13 26.13 0 002.272-.133c.41-.046.857-.116 1.258-.216.875-.217 1.433-.581 1.823-1.002.416-.448.66-.983.791-1.621.104-.502.124-1.095.213-1.764.112-.838.222-1.679.232-2.526.015-1.282-.186-2.548-.39-3.808-.337-2.083-.781-4.16-1.429-6.172a1.494 1.494 0 00-2.843.916z"/><path d="M42.6 154.545h17.107v12.81H42.601z"/><path d="M42.476 153.123c-.488 1.64-1.338 3.14-1.844 4.778-1.067 3.456-1.212 7.795.235 11.205a1.494 1.494 0 002.75-1.167c-1.183-2.786-1.003-6.332-.13-9.156.508-1.648 1.362-3.157 1.853-4.808a1.494 1.494 0 00-2.864-.852zM59.652 157.246c1.076.884 2.589 1.85 3.963 2.929 1.048.824 2.052 1.68 2.448 2.71a2.067 2.067 0 003.856-1.481c-.521-1.357-1.575-2.622-2.876-3.755-1.555-1.355-3.476-2.533-4.769-3.595a2.067 2.067 0 00-2.622 3.192z"/><path d="M41.076 155.133c-2.966 1.63-5.91 3.694-8.151 6.256a2.067 2.067 0 003.11 2.72c1.927-2.204 4.48-3.954 7.03-5.356a2.067 2.067 0 00-1.989-3.62zM53.771 169.64c-.098 2.095-.013 4.321-.776 6.373a2.308 2.308 0 004.326 1.608c.93-2.505.94-5.208 1.06-7.766a2.309 2.309 0 00-4.61-.216zM44.168 170.015c.629 2.316.799 4.597.963 6.938a2.308 2.308 0 004.603-.322c-.185-2.642-.403-5.212-1.113-7.825a2.308 2.308 0 00-4.453 1.21z"/></g><g><path d="M195.277 250.47c2.102-2.61 3.298-5.443 4.888-8.336 1.002-1.823 2.154-2.66 3.218-1.854 1.366 1.036 1.075 3.343 1.258 4.988.396 3.558.14 6.992-.022 10.534-.137 2.979-.184 5.884-.471 8.862"/><path d="M202.51 241.898c.14.242.161.563.203.879.12.9.09 1.874.181 2.686.386 3.465.127 6.809-.031 10.259-.136 2.948-.18 5.825-.465 8.773a1.759 1.759 0 003.5.337c.29-3.007.338-5.94.477-8.949.167-3.635.42-7.158.013-10.81-.116-1.042-.066-2.335-.308-3.44-.246-1.123-.755-2.086-1.636-2.754-1.804-1.366-4.12-.683-5.82 2.408-1.539 2.801-2.68 5.554-4.716 8.081a1.759 1.759 0 002.738 2.205c2.17-2.693 3.42-5.607 5.06-8.592.228-.417.59-.845.804-1.083zM173.83 263.044c-.776-1.823-.366 1.913-.955.017-1.459-4.7-2.657-8.99-2.764-13.98-.036-1.691-.107-3.376.044-5.062.206-2.293.913-2.751 3.113-1.497.562.32 1.093.708 1.597 1.122.794.654 1.483 1.45 2.167 2.228 1.144 1.303 3.079 4.768 3.987 6.268"/><path d="M174.592 264.628a1.758 1.758 0 00.855-2.272c-.402-.944-.92-1.366-1.414-1.52-1.167-3.892-2.074-7.584-2.165-11.793-.035-1.626-.107-3.246.038-4.867a4.51 4.51 0 01.047-.35c.15.067.307.144.445.223.475.271.924.602 1.35.952.722.595 1.342 1.324 1.963 2.031 1.096 1.249 2.934 4.58 3.804 6.018a1.759 1.759 0 003.007-1.82c-.945-1.563-2.978-5.16-4.17-6.518-.745-.849-1.503-1.711-2.37-2.425a13.269 13.269 0 00-1.843-1.292c-1.862-1.062-3.168-1.033-3.976-.62-.836.429-1.579 1.48-1.759 3.487-.156 1.75-.088 3.5-.05 5.256.11 5.162 1.334 9.604 2.843 14.464.367 1.182.945 1.502 1.123 1.593.675.344 1.282.262 1.837-.122.145-.1.298-.236.435-.425z"/><path d="M172.819 255.394c5.634-7.081 13.781-7.507 22.168-4.946 2.977.909 6.967 2.633 8.845 5.07 1.586 2.06 1.802 5.07 2.023 7.483.198 2.154.446 4.433-.5 6.48-2.34 5.054-7.445 8.008-13.093 9.147a28.444 28.444 0 01-7.454.481c-3.048-.203-6.603-.59-9.024-2.477-4.773-3.722-5.668-15.838-4.202-20.855l1.237-.383zm13.497 5.126c-1.79-2.05-5.501-3.775-8.022-2.58-.476.226-3.327 2.241-3.02 2.784.254.449 1.45.974 1.894 1.219 3.382 1.858 6.43 1.638 9.148-1.423zm3.947.029c.297-1.246 1.558-2.147 2.381-2.546 2.159-1.047 6.121-.67 7.646 1.485.013.018-.253.311-.277.339-.736.86-1.634 1.75-2.597 2.324-2.26 1.347-5.683.812-7.153-1.602z"/><g><path d="M182.186 267.95c-5.59.523-11.152 1.583-16.655 2.69a.95.95 0 00.375 1.86c5.438-1.093 10.934-2.143 16.457-2.66a.95.95 0 00-.177-1.89zM180.94 271.195c-4.577 1.964-9.103 3.405-13.74 5.074a.95.95 0 00.643 1.787c4.673-1.682 9.233-3.137 13.845-5.116a.95.95 0 00-.749-1.745zM193.03 269.846c3.616.697 7.433.014 10.983.92 1.712.437 2.935 1.425 4.463 2.158a.95.95 0 00.822-1.711c-1.644-.789-2.975-1.816-4.816-2.286-3.585-.916-7.44-.24-11.092-.945a.95.95 0 00-.36 1.864zM192.812 273.55c4.062 1.517 8.285 2.434 12.599 2.846a.95.95 0 00.18-1.89c-4.148-.396-8.209-1.275-12.115-2.734a.95.95 0 00-.664 1.779z"/><path d="M184.01 273.16c.562 1.37 1.476 2.33 2.407 2.805.747.38 1.517.463 2.2.26 1.052-.31 2.028-1.337 2.205-3.429a.95.95 0 00-1.892-.16c-.085 1.007-.345 1.62-.851 1.77-.334.098-.707-.042-1.064-.293-.497-.349-.943-.927-1.25-1.674a.95.95 0 00-1.756.722z" fill="#fff"/><path d="M194.35 257.174c.096.888.203 1.8.139 2.694a.95.95 0 001.894.136c.071-1.007-.038-2.034-.145-3.033a.95.95 0 00-1.888.203zM180.116 256.735c-.29.89-.715 1.938-.62 2.915a.95.95 0 001.89-.183c-.07-.725.321-1.485.536-2.146a.95.95 0 00-1.806-.586z"/></g></g><g><path d="M105.51 173.744c3.848-1.173 4.36 3.992 1.002 3.823-3.954-.198-1.827-6.292 1.35-3.631"/><path d="M108.281 173.124c-1.292-1.002-2.467-.902-3.325-.38-.715.434-1.232 1.221-1.416 2.085-.187.88-.026 1.823.538 2.53.473.59 1.236 1.046 2.389 1.104 1.14.057 1.951-.355 2.47-.938.798-.895.914-2.262.344-3.319a2.905 2.905 0 00-1-1.082zm-2.76 1.517c-.108.167-.185.361-.227.56-.076.36-.045.75.185 1.037.208.261.569.409 1.078.434.472.024.826-.098 1.042-.34.306-.343.322-.87.104-1.275-.279-.518-.95-.755-1.931-.455a.884.884 0 01-.25.039zM87.109 192.489c0 3.919-1.631 6.45-4.484 9.005a.897.897 0 001.196 1.335c3.267-2.926 5.08-5.852 5.08-10.34a.897.897 0 00-1.792 0z"/><path d="M104.731 176.572c-2.471 1.586-4.88 3.292-7.395 4.805a.897.897 0 00.924 1.537c2.53-1.523 4.954-3.237 7.44-4.833a.897.897 0 00-.969-1.509z"/><path d="M105.921 175.418c-.943.435-1.9.844-2.878 1.222-1.176.455-5.99 1.774-6.826 2.398-1.276.953.403 2.844 1.545 3.249"/><path d="M105.546 174.604a48.73 48.73 0 01-2.826 1.2c-.82.317-3.414 1.054-5.182 1.682-.876.31-1.569.618-1.857.833-.888.663-1 1.576-.632 2.492.407 1.012 1.535 2.01 2.414 2.32a.897.897 0 00.599-1.69c-.335-.118-.722-.422-1.018-.775-.162-.192-.298-.399-.361-.608-.034-.11-.036-.222.07-.302.213-.159.738-.351 1.385-.58 1.784-.634 4.401-1.38 5.229-1.7.995-.385 1.97-.8 2.93-1.244a.897.897 0 00-.751-1.628zM88.46 179.521c1.45.25 3.032.875 4.039 1.97.652.71 1.129 1.54 1.6 2.374.487.86 1.23 2.038 1.048 3.082-.215 1.224-1.544 2.001-2.475 2.643-2.548 1.758-5.39 2.844-8.102 4.294-1.12.6-2.465 1.22-3.022 2.437-2.108 4.605 7.526 10.426.48 13.089-2.867 1.083-4.697-.363-6.52-2.678-2.666-3.388-4.469-7.245-5.483-11.419-.418-1.717-1.104-3.682-.457-5.426 1.072-2.892 3.054-3.731 5.444-5.235 3.579-2.251 9.273-4.56 13.457-5.219"/><path d="M89.004 178.714a.893.893 0 00-.674-.166c-4.289.674-10.127 3.038-13.795 5.345-2.571 1.618-4.655 2.571-5.808 5.682-.709 1.911-.03 4.07.427 5.95 1.045 4.3 2.903 8.272 5.65 11.762 2.095 2.661 4.246 4.207 7.541 2.961 1.732-.654 2.597-1.523 2.968-2.445.54-1.338.02-2.945-.883-4.632-.617-1.154-1.389-2.365-1.874-3.571-.4-.994-.617-1.98-.193-2.906.211-.462.585-.799 1-1.089.516-.361 1.1-.647 1.63-.93 2.742-1.467 5.612-2.57 8.188-4.347.606-.417 1.36-.896 1.923-1.492.468-.497.81-1.072.926-1.735.098-.56.014-1.152-.185-1.732-.24-.701-.649-1.387-.965-1.945-.506-.894-1.023-1.779-1.721-2.539-1.046-1.139-2.633-1.846-4.155-2.171zm-.786 1.67c-4.038.719-9.35 2.901-12.728 5.027-2.21 1.39-4.09 2.114-5.082 4.787-.27.729-.244 1.504-.125 2.275.139.899.41 1.794.613 2.628.984 4.05 2.73 7.79 5.317 11.077 1.55 1.97 3.06 3.315 5.499 2.393 1.087-.41 1.705-.859 1.938-1.438.157-.388.118-.813-.001-1.263-.157-.59-.456-1.21-.8-1.853-.786-1.471-1.792-3.038-2.244-4.568-.354-1.198-.386-2.379.128-3.501.638-1.395 2.131-2.167 3.414-2.854 2.682-1.435 5.496-2.503 8.016-4.241.437-.302.97-.632 1.416-1.033.323-.29.612-.612.685-1.028.063-.36-.062-.74-.216-1.108-.21-.499-.5-.975-.728-1.377-.439-.775-.876-1.55-1.482-2.21-.877-.954-2.268-1.474-3.531-1.692a.922.922 0 01-.09-.02z"/><path d="M84.212 193.031c-.085 1.278-.155 2.586-.674 3.775a.897.897 0 001.643.717c.602-1.38.721-2.89.82-4.373a.897.897 0 00-1.79-.119z"/><g><path d="M96.943 193.307a7.227 7.227 0 01-.843-.472c-1.543-1.056-3.546-2.984-3.97-3.508-6.82-8.426-7.004-12.838-7.166-13.343a1.516 1.516 0 01-.038-.637c.013-.103.036-.205.07-.298a.883.883 0 01.06-.124c.02.008.043.016.06.025 1.153.571 2.03 2.016 2.781 3.019a1.025 1.025 0 001.64-1.229c-.923-1.232-2.093-2.923-3.512-3.626-.692-.343-1.273-.314-1.738-.126-.466.187-.845.561-1.093 1.066-.368.75-.42 1.812-.18 2.558.17.53.364 5.16 7.522 14.004.472.583 2.691 2.736 4.407 3.91.595.407 1.145.7 1.564.824.318.095.598.11.826.077 1.028-.154 1.601-.917 1.667-2.108.091-1.65-.99-4.351-1.555-5.17a1.025 1.025 0 00-1.688 1.16c.249.362.619 1.2.887 2.085.122.401.222.813.275 1.196.031.229.047.445.034.64a.813.813 0 01-.01.077z"/><path d="M99.823 188.473a2.21 2.21 0 01-.303-.114 6.704 6.704 0 01-.993-.63c-2.343-1.738-5.291-5.234-5.323-5.279-1.575-2.2-2.393-3.973-2.723-5.372-.278-1.18-.199-2.04.077-2.606.097-.199.284-.373.384-.457 1.42.986 2.474 2.597 3.269 4.08a1.025 1.025 0 001.806-.967c-.985-1.84-2.355-3.808-4.154-4.962-.598-.383-1.704-.372-2.577.566-.539.58-1.02 1.551-1.025 2.982-.006 1.769.742 4.387 3.277 7.929.04.057 4.457 5.266 7.078 6.555.902.444 1.689.458 2.232.177.556-.288 1.064-.944 1.053-2.27a8.392 8.392 0 00-.22-1.734c-.176-.792-.49-1.533-.81-2.274a1.025 1.025 0 00-1.881.812c.268.622.542 1.24.69 1.905.094.428.169.869.172 1.308.001.12-.014.25-.03.351z"/><path d="M96.369 173.418c.084.079.186.18.252.263.328.413.608.9.813 1.181.42.576.38.845.741 1.459a1.025 1.025 0 001.767-1.038c-.405-.69-.38-.982-.852-1.629-.36-.494-.951-1.503-1.594-1.979-.389-.288-.806-.43-1.22-.42-.432.01-.894.172-1.335.648-.748.809-.754 2.187-.542 3.173.61 2.839 1.925 5.613 3.482 8.044.534.833 1.444 2.137 2.503 2.993.885.715 1.88 1.114 2.865.974 1.085-.155 1.645-.836 1.832-1.802.274-1.42-.589-3.746-1.077-4.63a1.025 1.025 0 00-1.794.99c.211.383.526 1.118.72 1.878.106.409.179.825.16 1.187-.008.154.027.326-.13.348-.455.065-.88-.21-1.289-.54-.88-.711-1.62-1.81-2.065-2.503-1.427-2.23-2.644-4.767-3.204-7.37a3.373 3.373 0 01-.088-.898c.007-.114.015-.23.055-.329z"/></g></g></svg>