<svg xmlns="http://www.w3.org/2000/svg" viewBox="0 0 348 348" fill="none"><path d="M5.079 5.776h336.913v337.67H5.08z" stroke-width="2" stroke="#000" stroke-linejoin="round" stroke-linecap="round"/><path d="M282.734 40.554c0-8.376 6.966-15.165 15.56-15.165 4.126 0 8.084 1.597 11.001 4.441 2.918 2.844 4.558 6.702 4.558 10.724 0 8.376-6.966 15.165-15.56 15.165-8.593 0-15.559-6.79-15.559-15.165z" stroke-width="2" stroke="#000" stroke-linejoin="round" stroke-linecap="round"/><path stroke="#000" stroke-width="4" d="M97.196 52.6h50.885v50.885H97.196zm-35.829 69.372h224.885v67.847H61.367zm51.838 104.056h121.59v53.744h-121.59z"/><path d="M129.899 77.743c1.38-1.92 2.16-4.68 2.16-8.34 0-7.8-2.88-11.58-9.42-11.58-6.6 0-9.42 3.96-9.42 11.58 0 3.54.78 6.36 2.16 8.28l.3.36c-.06.06-.24.24-.3.36-1.38 1.92-2.16 4.74-2.16 8.28 0 7.62 2.82 11.58 9.42 11.58 6.54 0 9.42-3.78 9.42-11.58 0-3.66-.78-6.42-2.16-8.34l-.24-.3zm-9.78-3.6c-.6-.9-.9-2.4-.9-4.74 0-4.02 1.08-5.64 3.42-5.64 2.4 0 3.42 1.62 3.42 5.64s-1.02 5.64-3.42 5.64c-1.2 0-2.04-.3-2.52-.9zm4.98 17.28c-.42.54-1.2.9-2.46.9-2.34 0-3.42-1.62-3.42-5.64 0-4.08 1.08-5.7 3.42-5.7 2.4 0 3.42 1.62 3.42 5.7 0 2.28-.3 3.84-.96 4.74z" aria-label="8" fill="#000"/><path d="M80.41 165.162c0 8.4 3.266 13.2 9.866 13.2 6.534 0 9.8-5 9.8-13.2v-18.6c0-8.2-3.2-13.134-9.8-13.134-6.666 0-9.866 4.734-9.866 13.134zm6.666-19.267c0-4.333 1.067-5.733 3.2-5.733 2.067 0 3.134 1.4 3.134 5.733v19.933c0 4.4-1.067 5.8-3.134 5.8-2.133 0-3.2-1.4-3.2-5.8zm20 .867c1.067.933 2.667.666 3.467-.4l.333-.334v29.934c0 1.333 1.067 2.4 2.334 2.4h1.933a2.39 2.39 0 002.4-2.4v-40.134a2.39 2.39 0 00-2.4-2.4h-1.867c-.533 0-1.6.534-1.866.934l-6.134 7.933c-.8 1.067-.533 2.6.534 3.333zm21.334 25c.466-4.534 2.066-7.6 5.266-10.4 5.067-4.534 7.534-9.8 7.534-15.934 0-6.866-3.534-12-9.8-12-6.6 0-9.867 4.467-9.867 12.2v.4c0 1.267 1.067 2.334 2.4 2.334h1.933c1.267 0 2.334-1.067 2.334-2.334v-.4c0-3.866 1.066-5.6 3.2-5.6 2 0 3.133 2.134 3.133 5.4 0 3.934-1.933 7.734-5.333 10.934-2.8 2.6-4.934 5.6-6.134 8.866l.067-.067c-1.067 2.867-1.6 6.067-1.6 9.867v.934a2.39 2.39 0 002.4 2.4h14.867a2.39 2.39 0 002.4-2.4v-1.8a2.39 2.39 0 00-2.4-2.4zm17.666-6.4c0 8.2 3.333 13 9.867 13 5.933 0 9.8-4.867 9.8-12.734 0-5-2.067-8-3.8-9.666 1.733-1.734 3.8-4.8 3.8-9.734 0-3.533-.667-6.333-2.2-8.533l.067.067c-1.8-2.934-4.334-4.334-7.667-4.334-6.533 0-9.867 4.8-9.867 13.067v.333a2.39 2.39 0 002.4 2.4h1.934c1.266 0 2.333-1.066 2.333-2.4v-.333c0-4.333 1.133-6.467 3.2-6.467.8 0 1.533.4 2 1.2.8 1.2 1.133 2.867 1.133 5 0 2.334-.733 3.934-1.8 4.934h.067c-.933 1-2.067 1.466-2.933 1.466h-.867a2.39 2.39 0 00-2.4 2.4v1.8a2.39 2.39 0 002.4 2.4h.867c.666 0 1.8.334 2.866 1.4.8.734 1.8 2.267 1.8 5 0 1.067-.133 2.067-.266 2.934-.334 1.333-1.067 3.2-2.867 3.2-2.067 0-3.2-1.934-3.2-6.4v-.334c0-1.333-1.067-2.4-2.333-2.4h-1.934a2.39 2.39 0 00-2.4 2.4zm37.6.733v9.867a2.39 2.39 0 002.4 2.4h1.867a2.39 2.39 0 002.4-2.4v-40.134a2.39 2.39 0 00-2.4-2.4h-1.8c-.667 0-1.734.667-2.067 1.267l-14.333 26.6v2.4a2.39 2.39 0 002.4 2.4zm0-6.6h-6.133l6.2-10.8zm10.8-1.067a2.39 2.39 0 002.4 2.4h1.933c1.267 0 2.4-1.066 2.4-2.4 0-2.2 1.267-3.2 3.134-3.2 2.133 0 3.133 1.8 3.133 6v4.267c0 1.067-.133 2-.267 2.867-.333 1.333-.866 3.4-2.866 3.4-1.8 0-3.134-.6-3.134-4.934v-.266c0-1.267-1.133-2.334-2.4-2.334h-1.933c-1.333 0-2.4 1.067-2.4 2.334v.266c0 8.067 3.333 11.534 9.867 11.534 3.333 0 5.8-1.4 7.666-4.4 1.4-2.2 2.134-5.267 2.134-8.467v-4.267c0-3.733-.334-6.733-1.867-8.933-1.867-2.533-3.6-3.733-7.733-3.733-1.267 0-3.134 1-3.334 1.6v-10.134h10.6c1.267 0 2.334-1.066 2.334-2.4v-1.8c0-1.333-1.067-2.4-2.334-2.4h-14.933a2.39 2.39 0 00-2.4 2.4zm24 8.134c0 7.466 3.667 11.8 9.867 11.8 3.333 0 5.866-1.534 7.666-4.534 1.4-2.266 2.134-5.266 2.134-8.6v-3.733c0-7.8-2.667-12.867-9-12.867-1.667 0-3.334.667-3.934 1.8v-.133c0-1.933-.133-5.8.534-7.8.466-1.4 1.466-2.467 2.6-2.467 2 0 3.133 1.667 3.133 4.8v.067c0 1.267 1.067 2.4 2.4 2.4h1.933c1.267 0 2.334-1.133 2.334-2.4v-.067c0-6.933-3.267-11.4-9.8-11.4-1.934 0-4.534.6-6.6 3.134-1.8 2.2-3.267 6.066-3.267 12.4zm6.733-5.134c0-3.733 1.067-6.2 3.134-6.2 2.066 0 3.133 1.934 3.133 6.267v3.733c0 1.067-.133 2.2-.267 3.067-.333 1.4-1.066 3.467-2.866 3.467-1.267 0-2.067-.6-2.467-1.467-.6-1.133-.667-2.6-.667-3.733zm42.001-23.333v-2.267a2.39 2.39 0 00-2.4-2.4h-19.867c-1.267 0-2.334 1.067-2.334 2.4v1.8c0 1.334 1.067 2.4 2.334 2.4h14.266l-14.666 35.067c-.667 1.667.4 3.267 2.2 3.267h2.066c.8 0 1.867-.734 2.2-1.467z" aria-label="1234567" fill="#000"/><path d="M135.19 261.39c0 7.86 3.3 11.7 9.9 11.7 6.36 0 9.9-3.6 9.9-10.32 0-5.82-4.02-8.88-7.98-11.94h.06c-2.94-2.28-5.88-4.62-5.88-7.68 0-3.12 1.38-4.5 3.9-4.5 2.64 0 3.9 1.8 3.9 5.76v.84c0 1.2.96 2.16 2.16 2.16h1.68c1.2 0 2.16-.96 2.16-2.16v-.84c0-7.62-3.42-11.76-9.9-11.76-6.36 0-9.9 3.9-9.9 10.68 0 5.94 4.14 9.18 8.1 12.3v-.06c2.94 2.28 5.7 4.5 5.7 7.32 0 3.18-1.38 4.26-3.9 4.26-.84 0-1.86-.12-2.52-.78-.84-.72-1.38-2.1-1.38-4.98v-.78c0-1.2-1.02-2.16-2.16-2.16h-1.68c-1.2 0-2.16.96-2.16 2.16zm29.82-13.56v-12.96c0-1.2-.96-2.16-2.16-2.16h-1.68c-1.2 0-2.16.96-2.16 2.16v36.12c0 1.2.96 2.16 2.16 2.16h1.68c1.2 0 2.16-.96 2.16-2.16v-11.88l.72-1.08 8.04 14.04c.3.54 1.26 1.08 1.86 1.08h1.92c1.8 0 2.76-1.68 1.92-3.24l-10.08-17.76 10.02-16.14c.96-1.56 0-3.3-1.86-3.3h-2.04c-.6 0-1.5.54-1.8 1.02zm24.42-12.96c0-1.2-1.02-2.16-2.16-2.16h-1.68c-1.2 0-2.16.96-2.16 2.16v36.12c0 1.2.96 2.16 2.16 2.16h1.68c1.14 0 2.16-.96 2.16-2.16zm12.78 21c7.32 0 10.56-3.84 10.56-11.58s-3.24-11.58-10.56-11.58h-6.48c-1.2 0-2.16.96-2.16 2.16v36.12c0 1.2.96 2.16 2.16 2.16h1.68c1.14 0 2.1-.96 2.1-2.16v-15.12zm0-17.22c3.24 0 4.56 1.62 4.56 5.64 0 3.9-1.32 5.64-4.56 5.64h-2.7v-11.28z" aria-label="skip" fill="#000"/></svg>