<svg xmlns="http://www.w3.org/2000/svg" fill="none" viewBox="0 0 348 348"><path stroke="#000" stroke-width="2" d="M5.08 5.776h336.91v337.67H5.08z"/><path stroke="#000" stroke-width="2" d="M282.734 40.554c0-8.376 6.966-15.165 15.56-15.165 4.126 0 8.084 1.594 11 4.44 2.92 2.842 4.56 6.7 4.56 10.722 0 8.376-6.967 15.165-15.56 15.165-8.594 0-15.56-6.79-15.56-15.166z"/><g fill="#000"><path d="M26.5 138l15-35 15 35-15-15z"/><path d="M79.5 138l15-35 15 35-15-15z"/><path d="M132.5 138l15-35 15 35-15-15z"/><path d="M185.5 138l15-35 15 35-15-15z"/><path d="M238.5 138l15-35 15 35-15-15z"/><path d="M291.5 138l15-35 15 35-15-15z"/><path d="M26.5 218l15 35 15-35-15 15z"/><path d="M79.5 218l15 35 15-35-15 15z"/><path d="M132.5 218l15 35 15-35-15 15z"/><path d="M185.5 218l15 35 15-35-15 15z"/><path d="M238.5 218l15 35 15-35-15 15z"/><path d="M291.5 218l15 35 15-35-15 15z"/></g><path stroke="#000" stroke-width="3" d="M101.5 278h145v40h-145z" style="marker:none"/><path fill="#000" d="M115.48344 311.81098c-.4704-.35708-.85527-.79824-.85527-.98034 0-.18212 1.66925-2.68703 3.70945-5.56648l3.70946-5.23539-7.14434-.13533-7.14433-.13532 4.77888-6.95985c2.62838-3.82793 5.15048-7.4808 5.60467-8.11751.8242-1.15541.8286-1.15586 2.28032-.23571l1.45454.92193-3.82771 5.37599-3.82772 5.37599 7.08187.13545c3.89502.0745 7.01054.30557 6.92338.51351-.62114 1.4816-10.89548 15.72017-11.33456 15.70785-.30435-.009-.93824-.3077-1.40864-.66479zm113.39362-10.60804l-.13119-11.28839-3.27414 3.00063-3.27414 3.00063-.839-1.28048-.839-1.28049 4.92307-4.92306 4.92308-4.92309 5.15721 5.01758c5.09121 4.95337 5.14659 5.03165 4.32783 6.11712l-.82938 1.09953-3.18286-2.8731-3.18286-2.87311-.13119 11.2473-.13118 11.24729h-3.38506zm-94.2111-3.17113v-13.97078l3.05455 1.6798c1.68.92388 5.08886 2.75429 7.57526 4.06756l4.52072 2.38778v19.80642h-2.93236l-.007-8.91927-.007-8.91926-3.86291-2.07709c-2.1246-1.1424-4.10086-2.07709-4.39168-2.07709-.36354 0-.52877 3.43612-.52877 10.99635v10.99636h-3.42109zm24.43634.32715c0-7.54879.16495-13.71349.36655-13.69934.2016.0142 3.73202 1.72577 7.84538 3.80359l7.47883 3.77785-4.17993 2.86856c-2.29896 1.57772-4.17993 3.02732-4.17993 3.22134 0 .19403 1.75942 1.50785 3.90982 2.91963 2.1504 1.41177 3.90627 2.70408 3.90193 2.87179-.006.24527-13.12214 7.19807-14.71157 7.79874-.24259.0917-.43108-5.83855-.43108-13.56216zm6.57858 7.26339l3.29268-1.49298-3.10291-2.16721c-1.70659-1.19196-3.26784-2.16957-3.46944-2.17247-.2016-.003-.36655 1.64418-.36655 3.66018 0 2.01599.0795 3.66545.17676 3.66545.0972 0 1.65848-.67184 3.46946-1.49297zm.0973-14.95133c-1.65574-.84597-3.17537-1.43779-3.37697-1.31515-.2016.12263-.36655 1.87189-.36655 3.88724v3.66426l3.37697-2.34911 3.37697-2.34911zm44.64044 7.40285v-13.92871h3.42108v27.85743h-3.42108zm-28.83488-.27321c0-10.83861.12806-13.63698.6109-13.34966.336.19994 2.45298 1.54539 4.7044 2.98989 2.25143 1.44451 4.37427 2.51863 4.71743 2.38694.34316-.13168 2.52242-1.46415 4.84279-2.96104 2.32038-1.4969 4.32117-2.72163 4.44621-2.72163.12503 0 .22734 6.15796.22734 13.68435v13.68435h-3.39426l-.13559-6.86766-.1356-6.86765-2.95366-1.87714-2.95365-1.87714-3.27235 2.02479-3.27234 2.0248-.005 6.72001-.005 6.71999h-3.42108zm5.37599-4.84485c1.20899-.93225 1.21156-.94993.24436-1.68413-1.58075-1.19995-2.19927-.9363-2.19927.93747 0 1.95739.25733 2.05567 1.95491.74666zm10.75199-.74666c0-1.96383-.0877-2.00268-1.98773-.88032l-1.40545.83022 1.33004.8771c1.8425 1.21504 2.06314 1.1266 2.06314-.827z"/></svg>