<svg xmlns="http://www.w3.org/2000/svg" fill="none" viewBox="0 0 348 348"><ellipse cx="66.4" cy="95" stroke="#000" stroke-width="2" rx="15.3" ry="25.2" transform="rotate(17.3)"/><path stroke="#000" stroke-width="2" d="M5 5.8h337v337.6H5z"/><path stroke="#000" stroke-width="2" d="M282.7 40.6c0-8.4 7-15.2 15.6-15.2 4.1 0 8 1.6 11 4.4a15 15 0 014.6 10.8c0 8.3-7 15.1-15.6 15.1s-15.6-6.8-15.6-15.2z"/><ellipse cx="148.8" cy="121.8" stroke="#000" stroke-width="2" rx="15.3" ry="25.2" transform="rotate(-4.4)"/><ellipse cx="258.1" cy="132.8" stroke="#000" stroke-width="2" rx="15.3" ry="25.2" transform="rotate(-5.2)"/><ellipse cx="379.1" cy="155.8" stroke="#000" stroke-width="2" rx="15.3" ry="25.2" transform="rotate(19.6)"/><ellipse cx="217.1" cy="334.6" stroke="#000" stroke-width="2" rx="15.3" ry="25.2" transform="rotate(-6.9)"/><ellipse cx="36.7" cy="335.5" stroke="#000" stroke-width="2" rx="15.3" ry="25.2" transform="rotate(-16.3)"/><ellipse cx="228.6" cy="59.4" stroke="#000" stroke-width="2" rx="15.3" ry="25.2" transform="rotate(28.5)"/><ellipse cx="142.3" cy="106.6" stroke="#000" stroke-width="2" rx="15.9" ry="20.8" transform="matrix(.97398 .22665 -.38366 .92348 0 0)"/><ellipse cx="135.3" cy="246.5" stroke="#000" stroke-width="2" rx="15.9" ry="20.8" transform="matrix(.82108 -.5708 .42809 .90374 0 0)"/><ellipse cx="287.9" cy="218.2" stroke="#000" stroke-width="2" rx="15.9" ry="20.8" transform="matrix(.9635 -.26773 .10573 .9944 0 0)"/><ellipse cx="316.7" cy="233.4" stroke="#000" stroke-width="2" rx="15.9" ry="18.7" transform="matrix(.98668 -.16266 .0182 .99983 0 0)"/><ellipse cx="253.3" cy="221.2" stroke="#000" stroke-width="2" rx="13.7" ry="17.8" transform="matrix(.98603 -.16656 -.00037 1 0 0)"/><ellipse cx="84.2" cy="225.1" stroke="#000" stroke-width="2" rx="17.4" ry="17.8"/><ellipse cx="127.8" cy="192.8" stroke="#000" stroke-width="2" rx="15.6" ry="24.5"/><ellipse cx="10.8" cy="178.9" stroke="#000" stroke-width="2" rx="15.6" ry="24.5" transform="rotate(-14.5)"/><ellipse cx="211.7" cy="193.1" stroke="#000" stroke-width="2" rx="26.6" ry="17.8" transform="rotate(10.3)"/><ellipse cx="267.3" cy="172.2" stroke="#000" stroke-width="2" rx="11.7" ry="28.1" transform="rotate(13.5)"/><ellipse cx="309.3" cy="233.8" stroke="#000" stroke-width="2" rx="14.1" ry="25.1" transform="matrix(.99826 -.05891 -.11155 .99376 0 0)"/><ellipse cx="185.2" cy="310" stroke="#000" stroke-width="2" rx="15.6" ry="24.5" transform="rotate(-14.5)"/><ellipse cx="128.2" cy="345.4" stroke="#000" stroke-width="2" rx="15.9" ry="20.8" transform="matrix(.92983 -.368 .21016 .97767 0 0)"/><ellipse cx="203.2" cy="246.5" stroke="#000" stroke-width="2" rx="15.9" ry="20.8" transform="matrix(.99301 .118 -.27961 .96011 0 0)"/><ellipse cx="42.6" cy="234.4" stroke="#000" stroke-width="2" rx="17.4" ry="25.6"/><ellipse cx="191.9" cy="224.9" stroke="#000" stroke-width="2" rx="15.3" ry="25.2" transform="rotate(25.4)"/><path fill="#000" d="M88.293697 75.711087c-.571571-.571571-1.143143-6.668331-1.143143-13.717709V49.418811l-6.668331-6.858855c-4.763093-4.763094-6.477807-7.62095-5.715712-9.526187 1.143143-3.429427 2.286285-3.04838 7.430426 2.286285l4.382046 4.57257.571571-8.764092c.762095-7.62095 1.333667-8.764093 4.19152-9.14514 3.23891-.381048 3.42943 0 3.42943 12.765091v13.146138l6.668346 6.477807c7.43043 7.239902 7.43043 7.239902 5.33466 10.478806-1.14314 1.905237-2.28628 1.333666-6.66833-2.857856l-5.334676-5.144141v9.907234c0 8.764092-.38105 10.097758-2.85786 10.097758-1.524186 0-3.048376-.571571-3.810471-1.143142zM207.72786 49.2813c.38105-25.149134.38105-26.292276 3.2389-26.292276 2.47681 0 3.04838.762095 2.66734 4.000998-.7621 5.144141.76209 5.144141 10.4788.190524 7.2399-3.810475 7.62095-3.810475 9.52619-1.143142 1.90524 2.476808 1.14314 3.04838-8.76409 7.430426-9.90724 4.191522-10.85986 5.144141-11.43143 9.335663-.38104 5.715712.7621 5.715712 10.66933.762095 7.2399-3.810475 7.62095-3.810475 9.52619-1.143143 1.90524 2.476809 1.14314 3.238904-8.76409 8.001998l-10.85986 5.144141-.38104 10.097758c-.38105 8.954616-.7621 10.097758-3.42943 10.097758-2.85786 0-2.85786-.952619-2.47681-26.4828zm-68.46067-2.848417c-.57157-13.336662-.76209-24.196515-.38105-24.768086.38105-.190524 4.19153 2.095761 8.57357 5.525188 4.57257 3.238904 8.38305 5.906236 8.95462 5.906236 3.12918-1.935511 6.06416-4.16864 8.76409-6.668331 4.19152-3.619951 8.19252-6.668331 8.38305-6.668331.38104 0 .76209 11.431425.76209 25.339658 0 24.196515-.19052 25.339658-3.04838 25.339658s-3.04838-1.143143-3.04838-18.671327c.32155-6.176627.002-12.369964-.95262-18.480803-.57157 0-3.2389 1.52419-5.90623 3.810475l-5.14414 3.810475-5.14415-4.191523-5.33466-3.810474v18.671326c0 17.147137 0 18.861851-2.66733 18.861851-2.47681 0-2.85786-1.905238-3.81048-24.005992zM151.5 109.7v-14l5.3 2 7.4 2.7c1.3.5 2.2 1.4 2.2 2.3 0 2-.3 1.9-6.1-.4-2.7-1.1-5-2-5.3-2-.3 0-.4 1.1-.2 2.5.2 2.3.6 2.7 5.7 4.6 4.2 1.6 5.5 2.4 5.7 3.7.4 2-.5 2.1-4.7.2-7.2-3.3-6.9-3.5-6.9 5 0 6.9-.1 7.4-1.6 7.4s-1.5-.5-1.5-14zM221 225.3c0-.6-4-3-5-3-.3 0-.5 1.8-.5 4v3.9l2.7-2.1c1.6-1.1 2.8-2.4 2.8-2.8zm-1.3 10.9l-3.2-2.4c-.8-.6-1 .2-1 3.2v4l3.2-1.6 3.2-1.6zm-7.3-5c0-8 .2-14.4.6-14.2 2.1.8 14.3 8 14.2 8.4 0 .2-1.7 1.6-3.9 3-1.44938.87037-2.76334 1.9485-3.9 3.2 0 .2 1.8 1.7 4 3.2 3.7 2.5 3.9 2.7 2.6 3.7-1.2.9-10.4 5.9-13 7-.59607-4.70828-.79677-9.45822-.6-14.2zm1.9-77.5l-7-7 7.2-7.2c6.3-6.3 7.4-7 8.5-6.1 1.1 1 .6 1.7-4.9 7.2l-6 6 6 6.2c4.8 4.7 5.9 6.2 5.1 7-.5.5-1.1 1-1.4 1-.2 0-3.6-3.2-7.5-7.1zm-30.8 69.6c-.6-.6-6 4.5-6 5.6 0 .4 1.4 2.1 3 3.8l3 3 .2-6c.16184-2.13436.0948-4.27991-.2-6.4zm-13.6 2.8c-.97864-1.20052-2.16393-2.21649-3.5-3-.3 0-.6 3-.6 6.4v6.4l3.5-3.4 3.6-3.5zm-7.2 3.2v-14.4l6 6 6 6.1 6.2-6 6-6v28l-5.6-5.6c-1.95377-2.16772-4.17097-4.08258-6.6-5.7-.5 0-3.4 2.7-6.5 6l-5.5 5.9zm-43.5-37.5c-.3-7-.4-12.7-.2-13 .2-.1 2.2 1.1 4.5 2.9 2.4 1.7 4.4 3.1 4.7 3.1 1.64241-1.01589 3.18289-2.18799 4.6-3.5 2.2-1.9 4.3-3.5 4.4-3.5.2 0 .4 6 .4 13.3 0 12.7-.1 13.3-1.6 13.3s-1.6-.6-1.6-9.8c.16877-3.24192.001-6.49261-.5-9.7-.3 0-1.7.8-3.1 2l-2.7 2-2.7-2.2-2.8-2v9.8c0 9 0 9.9-1.4 9.9-1.3 0-1.5-1-2-12.6zM91.6 132c.2-13.2.2-13.8 1.7-13.8 1.3 0 1.6.4 1.4 2.1-.4 2.7.4 2.7 5.5.1 3.8-2 4-2 5-.6 1 1.3.6 1.6-4.6 3.9-5.2 2.2-5.7 2.7-6 4.9-.2 3 .4 3 5.6.4 3.8-2 4-2 5-.6 1 1.3.6 1.7-4.6 4.2l-5.7 2.7-.2 5.3c-.2 4.7-.4 5.3-1.8 5.3-1.5 0-1.5-.5-1.3-13.9zm217.6 63.9c-1.2-.7-1-1.4 1.8-7.5l3.2-6.8-3.2-6.4c-2.5-5.3-2.9-6.6-1.9-7l1.5-.4c.2 0 1.4 2.1 2.7 4.7.71963 1.6636 1.62541 3.24032 2.7 4.7 1.10943-1.45482 2.04886-3.03173 2.8-4.7 2.4-4.8 2.8-5.1 4.6-4 .8.5.3 2-2.3 7.1L318 182l3.1 6.6c3 6.1 3.1 6.6 1.7 7.3-1.2.7-1.7.1-4-4.5l-2.4-5.2-2.7 5.2c-.86354 1.82117-1.83182 3.5908-2.9 5.3l-1.5-.8zm-140.5-24.1l.6-14c.4-9.7.6-10.7 2-10.7 1.3 0 1.4 1 1.4 14v14.1h-2c-1.8 0-2-.3-2-3.4zm81.3 10.7c-.8-1-.4-1.7 2.1-4.3l3-3-4-4.3c-3.8-3.7-4-4.2-3-5.2 1.2-.9 2-.3 6.7 4.4l5.5 5.4-4.6 4c-4 3.6-4.8 4-5.6 3zm-5.7 5.3l-5.2-5.3 4.2-4.2c3.7-3.6 4.5-4 5.6-3.2 1.1 1 1 1.4-1.6 3.9-1.11544 1.0222-2.03101 2.24296-2.7 3.6 0 .4 1.7 2.5 3.9 4.6 3 3 3.7 4 3 4.9-.5.5-1 1-1.4 1-.2 0-2.9-2.4-5.8-5.3zm53.3-35.4c-6.1-4.4-6.3-4.5-5.4-6 .6-1.1 1-1 3.4.7l2.7 2 .2-11.4.2-11.4 3.4 2.4c6.5 4.7 7.6 5.8 6.9 7-.6.9-1.1.8-3-.6-.87386-.7119-1.85195-1.28526-2.9-1.7-.2 0-.5 5-.7 11.2l-.2 11.2zm-20 66.4v-14.2l5.5 3.7c5.9 4 5.8 4 4.8 5.6-.5.9-1.3.7-3.7-1l-3-2-.4 9.7c-.4 8-.7 10-1.8 11.1-1.3 1.3-1.4.7-1.4-12.9zm-15.4 80.7c0-1.7-.6-1.9-2.3-.8-1.2.8-.5 2.4 1.1 2.4.7 0 1.2-.7 1.2-1.6zm-10.3.9c.9-.6.7-.9-.6-1.6-1.5-.8-1.7-.7-1.7.7 0 1.7.6 2 2.3.9zm-6.2 5.4c0-7.7.3-14 .6-14s2.4 1.2 4.7 2.7c1.53664 1.12238 3.2187 2.03069 5 2.7.4 0 2.3-1 4-2.2l4.3-2.8c.8-.4 1 2.5 1 13.5 0 13.6 0 14.1-1.5 14.1s-1.6-.5-1.6-6.8v-6.8L259 304c-1.0861-.82628-2.25983-1.53052-3.5-2.1-.3 0-2 .9-3.6 2l-3.2 2v7c0 6.4 0 7-1.5 7s-1.6-.6-1.6-14.1zm10.9-37.4c-.3-.3-.6-3.5-.6-7.2v-6.6l-3.5-3.6c-2.5-2.5-3.4-4-3-5 .6-1.8 1.2-1.6 3.9 1.2l2.3 2.4.3-4.6c.4-4 .7-4.6 2.2-4.8 1.7-.2 1.8 0 1.8 6.7v6.9l3.5 3.4c3.9 3.8 3.9 3.8 2.8 5.5-.6 1-1.2.7-3.5-1.5l-2.8-2.7v5.2c0 4.6-.2 5.3-1.5 5.3-.8 0-1.6-.3-2-.6zm-124.3 39.7l2.7-2.7-3-3-2.8-2.8-3 2.9-2.9 2.9 2.7 2.7c.9283 1.08055 2.00579 2.02335 3.2 2.8 1.15887-.78418 2.20232-1.72665 3.1-2.8zM119.8 323c-1-1.1-.6-1.8 2.6-5 2-2 3.6-4 3.6-4.4 0-.4-1.6-2.4-3.7-4.5l-3.7-3.8 5-4.6c2.9-2.6 5.4-4.6 5.7-4.6.2 0 2.7 2 5.5 4.6l5 4.6-4.1 4.1-4.2 4.2 4 4c3.6 3.6 4 4.3 3 5.4-.8 1-1.4.8-5.1-2.9l-4.2-4.1-4.2 4.1c-3.7 3.7-4.3 4-5.2 2.9zM295 275.4c0-16.4-.7-15.2 6.5-12 3 1.3 3.2 1.3 5.6-.1 3-1.8 4-1.9 4.6-.3.4.8-.7 1.7-3.5 3.2-4 2-4.2 2-6.7.7l-3-1.2c-.2 0-.4 4.4-.4 9.8 0 5.3.2 9.7.4 9.7s1.8-.5 3.5-1.2c3-1.2 3.2-1.2 6.7.8 3.7 2.2 4 2.5 2.8 4.2-.5.9-1.3.7-4.1-1-2-1-3.7-1.9-3.9-1.7-.1.2-2.1 1-4.4 2l-4.1 1.6zM41.8 250.2c-.414231-2.51095-.581696-5.05642-.5-7.6v-7l-4.5-4.6c-4-4.1-4.3-4.6-3.2-5.7 1.1-1.2 1.5-1 3.8 2 1.5 1.7 3 3.1 3.3 3.1.3 0 .6-1.9.6-4.2 0-3.9.2-4.2 1.6-3.8 1.3.3 1.6 1 1.6 4.6v4.3l3.2-2.8c3.3-2.7 3.3-2.7 4.4-1.2.6 1 1 1.7.9 1.8l-4.4 3.3-4.1 3v7.7c0 5.8-.3 7.6-1 7.6s-1.4-.2-1.7-.5zm229-145.2l2.2-1.7-1.9-1c-3-1.7-3.8-1.3-3.8 1.7 0 3.1.6 3.3 3.5 1zm-6.6 5.4c0-15.4 0-15.4 8.6-10.9 3 1.6 5.5 3 5.5 3.3-1.57946 1.30448-3.28838 2.44376-5.1 3.4-1.911.91269-3.63933 2.16658-5.1 3.7 0 .3 2.5 2.5 5.5 4.8 2.0567 1.36602 3.88004 3.0543 5.4 5 .2 2.2-1.8 1.7-5.7-1.6-2.3-2-4.6-3.6-5-3.6-.5 0-1 1.8-1.1 4-.2 3.2-.6 4.2-1.6 4.4-1.3.3-1.4-.7-1.4-12.5zM74 302.2c-1.3-1-1.1-1.4 1.9-5.8 5-7.5 5.2-7.2-2.6-7.2-3.7 0-6.7-.1-6.7-.3 0-.2 2.4-4 5.3-8.5 4.8-7.4 5.5-8 6.7-7.1 1.3.9 1.2 1.4-2.6 6.9l-4 5.9h7c4 0 7.2.2 7.2.4s-2.5 4-5.4 8.5c-4.9 7.3-5.6 8-6.8 7.2zm9.5-66.9c-.3-1.4-.5-6.2-.5-10.7v-8.3l-3.1 3c-2.6 2.5-3.4 3-4.1 2.1-.8-.8 0-1.9 4-5.6l4.9-4.7 4.4 3.7 5.2 4.3c.4.4.3 1.1-.3 1.8s-1.2 1-1.5.6c-.6-.8-5.2-4-5.8-4-.3 0-.2 4.5 0 10 .5 9.9.4 10.2-1.1 10.2-1.2 0-1.7-.7-2.1-2.4zm101.2 55.4l-.2-14 7.2 3.8c8.4 4.4 8.3 4.1 7.8 17-.2 6.5-.4 7.3-1.7 7.3-1.4 0-1.5-.8-1.7-9.2l-.2-9.2-3.4-1.8c-1.9-1-3.6-1.6-4-1.3-.2.3-.4 5.2-.3 11 .2 10.4.2 10.5-1.5 10.5-1.8 0-1.8 0-2-14zm-50-33.2l2.3-1.7-1.8-1.4c-2.8-2.2-3.6-1.8-3.6 1.7 0 1.7.2 3 .4 3 .3 0 1.5-.7 2.7-1.6zm-6.2 3.7c.3-15.6-.5-14.7 8.3-9.2l5.6 3.6-5.2 3.5-5.2 3.6-.2 6c-.2 5.5-.4 6-1.9 6s-1.5-.3-1.4-13.5zm-92-149.4c2-1 1.6-1.6-2-3.5-1.7-.9-1.8-.8-1.8 1.8 0 3 .8 3.4 3.8 1.7zm-7-.9c0-13.9.1-14.4 1.6-14.4 1.4 0 1.6.5 1.6 3.5 0 3.4 0 3.4 5.5 6.7 1.989215 1.02472 3.837825 2.30194 5.5 3.8 0 .3-2.5 2-5.5 3.6l-5.5 3v4.2c0 3.5-.2 4-1.6 4-1.5 0-1.5-.5-1.5-14.4zm19.2 58.3c0-13.5.1-14 1.6-14 1.4 0 1.6.5 1.6 3.7 0 3.6.2 4 4.3 7.4l4.3 3.8v-7.5c0-7 .1-7.5 1.6-7.5s1.6.6 1.6 8.8c0 4.8.2 11.2.5 14.1.5 5.3.5 5.4-1.4 5.1-1.7-.2-2-.7-2.1-4.2-.2-3.4-.7-4.3-4-7.6-2-2-3.9-3.7-4.2-3.7-.3 0-.6 3.5-.6 7.8 0 7.3-.1 7.8-1.6 7.8s-1.6-.5-1.6-14z"/></svg>