<svg xmlns="http://www.w3.org/2000/svg" viewBox="-366 367 348 348"><path fill="none" stroke="#000" stroke-miterlimit="10" stroke-width="2" d="M-360.9 372.8H-24v337.7h-336.9V372.8z" class="st3"/><path fill="#fff" stroke="#000" stroke-miterlimit="10" stroke-width="2" d="M-83.3 407.6c0-8.4 7-15.2 15.6-15.2 4.1 0 8.1 1.6 11 4.4s4.6 6.7 4.6 10.7c0 8.4-7 15.2-15.6 15.2s-15.6-6.8-15.6-15.1z" class="st3"/><path d="M-341 391h232v72h-232z"/><path fill="#FFF" stroke="#000" stroke-width="1.25" d="M-323 489h53v53h-53zm0 64.5h53v53h-53zm0 65h53v53h-53zm66.1-129.5h53v53h-53zm0 64.5h53v53h-53zm0 65h53v53h-53zm67-129.5h53v53h-53zm0 64.5h53v53h-53zm0 65h53v53h-53zm67.6-129.5h53v53h-53zm0 64.5h53v53h-53zm0 65h53v53h-53z"/><g font-family="Arial" font-size="40"><path d="M-291.23 529.88h-3.515v-22.402q-1.27 1.21-3.34 2.422-2.05 1.21-3.692 1.816v-3.398q2.95-1.387 5.157-3.36t3.125-3.828h2.265z" aria-label="1"/><path d="M-220.917 526.496v3.379h-18.926q-.04-1.27.41-2.441.723-1.934 2.305-3.809 1.601-1.875 4.61-4.336 4.667-3.828 6.308-6.055 1.64-2.246 1.64-4.238 0-2.09-1.504-3.516-1.484-1.445-3.886-1.445-2.54 0-4.063 1.524-1.523 1.523-1.543 4.218l-3.613-.37q.371-4.044 2.793-6.153 2.422-2.129 6.504-2.129 4.121 0 6.523 2.285 2.403 2.285 2.403 5.664 0 1.719-.703 3.38-.704 1.66-2.344 3.495-1.621 1.836-5.41 5.04-3.164 2.656-4.063 3.613-.898.937-1.484 1.894z" aria-label="2"/><path d="M-172.775 522.062l3.515-.468q.606 2.988 2.051 4.316 1.465 1.309 3.555 1.309 2.48 0 4.18-1.72 1.718-1.718 1.718-4.257 0-2.422-1.582-3.984-1.582-1.582-4.023-1.582-.996 0-2.48.39l.39-3.086q.351.04.566.04 2.246 0 4.043-1.172 1.797-1.172 1.797-3.614 0-1.933-1.308-3.203-1.309-1.27-3.38-1.27-2.05 0-3.417 1.29-1.367 1.289-1.758 3.867l-3.516-.625q.645-3.535 2.93-5.469 2.285-1.953 5.684-1.953 2.343 0 4.316 1.016 1.973.996 3.008 2.734 1.054 1.738 1.054 3.691 0 1.856-.996 3.38-.996 1.523-2.949 2.421 2.54.586 3.945 2.442 1.407 1.836 1.407 4.609 0 3.75-2.735 6.367-2.734 2.598-6.914 2.598-3.77 0-6.27-2.246-2.48-2.246-2.831-5.82z" aria-label="3"/><path d="M-105.14 515.51q0-5.078 1.035-8.164 1.055-3.106 3.106-4.785 2.07-1.68 5.195-1.68 2.305 0 4.043.937 1.738.918 2.871 2.676 1.133 1.739 1.778 4.258.644 2.5.644 6.758 0 5.039-1.035 8.144-1.035 3.086-3.106 4.786-2.05 1.68-5.195 1.68-4.14 0-6.504-2.97-2.832-3.574-2.832-11.64zm3.613 0q0 7.05 1.641 9.394 1.66 2.325 4.082 2.325t4.063-2.344q1.66-2.344 1.66-9.375 0-7.07-1.66-9.395-1.641-2.324-4.102-2.324-2.422 0-3.867 2.05-1.817 2.618-1.817 9.669z" aria-label="0"/><path d="M-293.98 593.72v-6.855h-12.422v-3.223l13.066-18.555h2.871v18.555h3.867v3.223h-3.867v6.855zm0-10.078v-12.91l-8.965 12.91z" aria-label="4"/><path d="M-239.892 586.377l3.692-.312q.41 2.695 1.894 4.062 1.504 1.348 3.613 1.348 2.54 0 4.297-1.914 1.758-1.914 1.758-5.079 0-3.007-1.7-4.746-1.679-1.738-4.413-1.738-1.7 0-3.067.781-1.367.762-2.148 1.993l-3.3-.43 2.773-14.707h14.238v3.36h-11.426l-1.543 7.695q2.578-1.797 5.41-1.797 3.75 0 6.328 2.597 2.579 2.598 2.579 6.68 0 3.887-2.266 6.719-2.754 3.476-7.52 3.476-3.906 0-6.386-2.187-2.461-2.188-2.813-5.801z" aria-label="5"/><path d="M-154.455 572.51l-3.496.273q-.468-2.07-1.328-3.007-1.426-1.504-3.515-1.504-1.68 0-2.95.937-1.66 1.211-2.617 3.535-.957 2.324-.996 6.621 1.27-1.933 3.105-2.87 1.836-.938 3.848-.938 3.516 0 5.977 2.597 2.48 2.579 2.48 6.68 0 2.695-1.172 5.02-1.152 2.304-3.183 3.535-2.032 1.23-4.61 1.23-4.394 0-7.168-3.222-2.773-3.243-2.773-10.664 0-8.301 3.066-12.07 2.676-3.282 7.207-3.282 3.38 0 5.528 1.895 2.168 1.894 2.597 5.234zm-14.355 12.344q0 1.816.762 3.476.78 1.66 2.168 2.54 1.386.859 2.91.859 2.226 0 3.828-1.797 1.601-1.797 1.601-4.883 0-2.969-1.582-4.668-1.582-1.719-3.984-1.719-2.383 0-4.043 1.719-1.66 1.7-1.66 4.473z" aria-label="6"/><path d="M-305.77 634.25v-3.379h18.535v2.735q-2.735 2.91-5.43 7.734-2.676 4.824-4.14 9.922-1.055 3.594-1.348 7.871h-3.614q.06-3.379 1.329-8.164 1.27-4.785 3.632-9.219 2.383-4.453 5.059-7.5z" aria-label="7"/><path d="M-234.38 643.6q-2.187-.801-3.242-2.286-1.055-1.484-1.055-3.554 0-3.125 2.247-5.254 2.246-2.129 5.976-2.129 3.75 0 6.035 2.187 2.285 2.168 2.285 5.293 0 1.993-1.054 3.477-1.035 1.465-3.164 2.266 2.636.859 4.004 2.773 1.386 1.914 1.386 4.57 0 3.672-2.597 6.172-2.598 2.5-6.836 2.5-4.239 0-6.836-2.5-2.598-2.52-2.598-6.27 0-2.792 1.406-4.667 1.426-1.895 4.043-2.578zm-.703-5.957q0 2.03 1.309 3.32 1.308 1.289 3.398 1.289 2.031 0 3.32-1.27 1.31-1.289 1.31-3.144 0-1.934-1.349-3.242-1.328-1.328-3.32-1.328-2.012 0-3.34 1.289t-1.328 3.086zm-1.133 13.222q0 1.504.703 2.91.723 1.407 2.13 2.188 1.406.762 3.027.762 2.52 0 4.16-1.621 1.64-1.622 1.64-4.122 0-2.539-1.699-4.199-1.68-1.66-4.218-1.66-2.48 0-4.122 1.64-1.62 1.641-1.62 4.102z" aria-label="8"/><path d="M-172.286 652.51l3.378-.313q.43 2.383 1.641 3.457 1.211 1.075 3.106 1.075 1.62 0 2.832-.743 1.23-.742 2.011-1.972.782-1.25 1.309-3.36.527-2.109.527-4.296 0-.235-.02-.704-1.054 1.68-2.89 2.735-1.816 1.035-3.945 1.035-3.555 0-6.016-2.578-2.46-2.578-2.46-6.797 0-4.356 2.558-7.012 2.578-2.656 6.445-2.656 2.793 0 5.098 1.504 2.324 1.504 3.515 4.297 1.211 2.773 1.211 8.047 0 5.488-1.191 8.75-1.191 3.242-3.555 4.941-2.344 1.7-5.508 1.7-3.359 0-5.488-1.856-2.129-1.875-2.558-5.254zm14.394-12.637q0-3.027-1.621-4.805-1.602-1.777-3.867-1.777-2.344 0-4.082 1.914-1.739 1.914-1.739 4.961 0 2.735 1.641 4.453 1.66 1.7 4.082 1.7 2.442 0 4.004-1.7 1.582-1.718 1.582-4.746z" aria-label="9"/><path d="M-86.347 642.3h-18.906v-3.281h18.906zm0 8.691h-18.906v-3.28h18.906z" aria-label="="/><path d="M-101.2 581.77v-3.535h10.8v3.535z" aria-label="-"/></g><g fill="#fff" aria-label="[ディスプレイ]" style="font-variant-caps:normal;font-variant-east-asian:normal;font-variant-ligatures:normal;font-variant-numeric:normal"><path d="M-330.73 414.2h6.625v2.234h-3.75v24.062h3.75v2.235h-6.625zM-305.37 426.02h-12.5v-2.75h25.625v2.75h-10.25v1.625q0 7.875-5.625 13l-2.5-1.875q5.25-4.125 5.25-11.125zm-8-7.625v-2.75h15.375v2.75zm17-5.125q1.625 1.625 3.5 4.375l-1.75 1.25q-1.75-2.5-3.5-4.5zm3-1.625q1.625 1.75 3.5 4.25l-1.75 1.25q-2-2.75-3.5-4.25zM-271 441.02h-2.5v-11.625q-2.75 2.125-8.25 4.875l-1.75-2.125q11.875-5.75 16.25-12.625l2.125 1.625q.75.625-.5.875-2.125 2.625-5.375 5.375zM-239 427.14q5.375 4.125 10.625 9.5l-2.5 2.125q-5.25-5.5-10.125-9.25-4.875 5.25-11.125 9.375l-2.375-2.125q13.25-8.625 17-17.25l-13.625.875-.375-3 14.5-.625 1.5-.375 2 2q.875.875-.5 1.125-2.375 4.125-5 7.625zM-197.25 417.02q1 0 1.625-.625t.625-1.625-.625-1.625-1.625-.625-1.625.625-.625 1.625.625 1.625 1.625.625zm0 1.25q-1.5 0-2.5-1t-1-2.5 1-2.5 2.5-1 2.5 1 1 2.5-1 2.5-2.5 1zm-22.375 1.625v-2.75h18.5l3.25 2.375q-.625 15.125-17.125 19.75l-2.25-2.75q15.625-3.625 16.375-16.625zM-182 435.64q11.5-2.125 16.75-11.625l2.125 2.125q-6 10.5-20 12.875l-2-1.5.25-.75v-20.75h2.75q1.125.125.125.875zM-157.87 429.39q13.125-5.5 19.875-15.5l2.375 2q1 .75-.875 1.125-2.375 3.125-6.125 6.375v17h-2.875v-14.625q-4.375 3.375-10.25 6.125zM-119.27 414.2v28.531h-6.625v-2.234h3.734v-24.062h-3.734V414.2z"/></g></svg>