<svg xmlns="http://www.w3.org/2000/svg" viewBox="-366 367 348 348"><path class="st3" d="M-360.9 372.8H-24v337.7h-336.9V372.8z" stroke-miterlimit="10" stroke-width="2" stroke="#000" fill="none"/><path class="st3" d="M-83.3 407.6c0-8.4 7-15.2 15.6-15.2 4.1 0 8.1 1.6 11 4.4 2.9 2.8 4.6 6.7 4.6 10.7 0 8.4-7 15.2-15.6 15.2s-15.6-6.8-15.6-15.1z" stroke-miterlimit="10" stroke-width="2" stroke="#000" fill="#fff"/><path d="M-341 391h232v72h-232z"/><text class="st4 st5 st6" x="-320.732" y="437.586" font-size="40" fill="#fff" font-family="Arial">[DISPLAY]</text><path d="M-323 489h53v53h-53zm0 64.5h53v53h-53zm0 65h53v53h-53zm66.1-129.5h53v53h-53zm0 64.5h53v53h-53zm0 65h53v53h-53zm67-129.5h53v53h-53zm0 64.5h53v53h-53zm0 65h53v53h-53zm67.6-129.5h53v53h-53zm0 64.5h53v53h-53zm0 65h53v53h-53z" fill="#FFF" stroke="#000" stroke-width="1.25"/><text class="st5 st6" x="-306.129" y="529.875" font-size="40" font-family="Arial">1</text><text class="st5 st6" x="-241.054" y="529.875" font-size="40" font-family="Arial">2</text><text class="st5 st6" x="-174.455" y="529.621" font-size="40" font-family="Arial">3</text><text class="st5 st6" x="-106.796" y="529.631" font-size="40" font-family="Arial">0</text><text class="st5 st6" x="-306.91" y="593.717" font-size="40" font-family="Arial">4</text><text class="st5 st6" x="-241.552" y="593.877" font-size="40" font-family="Arial">5</text><text class="st5 st6" x="-174.357" y="594.131" font-size="40" font-family="Arial">6</text><text class="st5 st6" x="-307.662" y="659.131" font-size="40" font-family="Arial">7</text><text class="st5 st6" x="-241.455" y="659.131" font-size="40" font-family="Arial">8</text><text class="st5 st6" x="-174.474" y="659.131" font-size="40" font-family="Arial">9</text><text class="st5 st6" x="-107.48" y="659.131" font-size="40" font-family="Arial">=</text><text class="st5 st6" x="-102.47" y="590.361" font-size="40" font-family="Arial">-</text></svg>