<?xml version="1.0" encoding="utf-8"?>
<svg version="1.1" id="Layer_1" xmlns="http://www.w3.org/2000/svg" xmlns:xlink="http://www.w3.org/1999/xlink" x="0px" y="0px"
	 viewBox="0 0 348 348" style="enable-background:new 0 0 348 348;" xml:space="preserve">
<style type="text/css">
	.st0{fill:none;stroke:#000000;stroke-width:2;}
	.st1{fill:none;stroke:#000000;stroke-width:2;stroke-miterlimit:10;}
	.st2{font-family:'ArialMT';}
	.st3{font-size:17px;}
	.st4{fill:none;stroke:#000000;stroke-width:9;stroke-miterlimit:10;}
	.st5{fill:none;stroke:#000000;stroke-width:3;stroke-miterlimit:10;}
</style>
<path class="st0" d="M5.1,5.8H342v337.7H5.1V5.8z"/>
<path class="st0" d="M286.6,40.6c0-8.4,7-15.2,15.6-15.2c4.1,0,8.1,1.6,11,4.4s4.6,6.7,4.6,10.7c0,8.4-7,15.2-15.6,15.2
	C293.6,55.7,286.6,48.9,286.6,40.6L286.6,40.6z"/>
<rect x="71" y="221.3" class="st1" width="96.5" height="77"/>
<rect x="176" y="221.3" class="st1" width="96.5" height="77"/>
<path class="st1" d="M258.3,121.3"/>
<line class="st1" x1="84" y1="121.3" x2="83.5" y2="70.8"/>
<line class="st1" x1="47.5" y1="70.8" x2="47" y2="121.3"/>
<path class="st1" d="M47,121.3c0,9.9,8.5,18,19,18"/>
<path class="st1" d="M84,121.3c0,9.9-8.1,18-18,18"/>
<path class="st1" d="M47.5,70.8c0-10.5,8.3-19,18.5-19"/>
<path class="st1" d="M83.5,70.8c0-10.5-7.8-19-17.5-19"/>
<line class="st1" x1="66" y1="147.8" x2="85.5" y2="141.6"/>
<line class="st1" x1="92.5" y1="125.2" x2="85.5" y2="141.6"/>
<line class="st1" x1="92" y1="66.8" x2="92.5" y2="125.2"/>
<line class="st1" x1="85.5" y1="49.8" x2="92" y2="66.8"/>
<line class="st1" x1="66" y1="43.8" x2="85.5" y2="49.8"/>
<line class="st1" x1="47" y1="49.8" x2="66" y2="43.8"/>
<line class="st1" x1="39.5" y1="67.3" x2="47" y2="49.8"/>
<line class="st1" x1="40" y1="125.2" x2="39.5" y2="67.3"/>
<line class="st1" x1="47" y1="141.6" x2="40" y2="125.2"/>
<line class="st1" x1="66" y1="147.8" x2="47" y2="141.6"/>
<circle class="st1" cx="128.5" cy="95.7" r="17"/>
<rect x="144.5" y="139.3" class="st1" width="54" height="34.7"/>
<rect x="113.5" y="256.3" width="9.3" height="9.3"/>
<rect x="211.5" y="256.3" width="24.5" height="9.3"/>
<text transform="matrix(0.6428 -0.766 0.766 0.6428 127.1498 100.4696)" class="st2 st3">^</text>
<line class="st4" x1="47" y1="74.3" x2="83.5" y2="74.3"/>
<line class="st4" x1="47" y1="116.8" x2="83.5" y2="116.3"/>
<line class="st5" x1="152" y1="221.3" x2="152" y2="174.6"/>
<line class="st5" x1="191" y1="221.3" x2="191" y2="174.3"/>
<line class="st5" x1="92.2" y1="95.7" x2="111.5" y2="95.7"/>
<line class="st5" x1="155.5" y1="139.3" x2="128.7" y2="112.5"/>
<line class="st5" x1="187.5" y1="139.3" x2="145.7" y2="97.5"/>
<rect x="234.3" y="95.7" width="80.3" height="107.3"/>
</svg>
