<svg xmlns="http://www.w3.org/2000/svg" fill="none" viewBox="0 0 348 348"><path stroke="#000" stroke-width="2" d="M5 5.8h337v337.6H5z"/><path stroke="#000" stroke-width="2" d="M282.7 40.6c0-8.4 7-15.2 15.6-15.2 4.1 0 8 1.6 11 4.4a15 15 0 0 1 4.6 10.8c0 8.3-7 15.1-15.6 15.1s-15.6-6.8-15.6-15.1z"/><path stroke="#000" d="M36.5 29.2h180v47h-180z"/><g fill="#000" stroke-width=".7"><path d="M62.4 49L50 54.2l12.5 5.2V62l-15.6-6.6V53l15.6-6.6zM77.8 50.5h-3.6l-1 4.8h3.6zM76 42.4l-1.3 6h3.5l1.3-6h2l-1.3 6H84v2.1h-4.3l-1 4.8h4v2.2h-4.4L77 63.4h-2l1.3-6h-3.5l-1.3 6h-2l1.3-6H67v-2.1h4.3l1-4.8h-4v-2.2h4.5l1.2-6zM90.8 44.4V61h3q3.8 0 5.5-2 1.7-2 1.7-6.3t-1.7-6.3q-1.7-2-5.5-2zm-2.4-2.3h5q5.3 0 7.8 2.5 2.4 2.6 2.4 8 0 5.6-2.4 8.2-2.5 2.6-7.8 2.6h-5zM107.5 42h2.5v21.4h-2.5zM125.8 42.8v2.8q-1.4-.8-2.7-1.2-1.2-.4-2.4-.4-2 0-3 1-1.2.8-1.2 2.5 0 1.4.8 2.2.7.7 2.7 1.1l1.5.4q2.7.6 4 2.1 1.4 1.6 1.4 4.2 0 3-1.8 4.7-1.8 1.6-5.2 1.6-1.3 0-2.7-.4-1.5-.3-3-1v-3q1.4 1 2.9 1.5 1.4.5 2.8.5 2.1 0 3.3-1 1.1-.9 1.1-2.7 0-1.6-.8-2.5-.8-.8-2.7-1.3l-1.5-.3q-2.8-.7-4-2-1.2-1.4-1.2-3.8 0-2.9 1.7-4.5t4.7-1.6l2.6.2q1.3.3 2.7.9zM133.1 44.4v8h3.1q1.8 0 2.7-1 1-1 1-3 0-1.9-1-3-1-1-2.7-1zm-2.4-2.3h5.5q3 0 4.6 1.6 1.6 1.6 1.6 4.7 0 3.2-1.6 4.8-1.5 1.6-4.6 1.6h-3v8.6h-2.5zM145.7 42h2.5v19h8.8v2.4h-11.3zM166.2 44.9L163 55.5h6.7zm-1.3-2.8h2.7l7 21.3H172l-1.6-5.5h-8.2l-1.7 5.5H158zM172.8 42h2.6l5 8.8 5-8.7h2.7l-6.4 11.1v10.2h-2.5V53.2zM190.7 49v-2.6l15.6 6.6v2.4L190.7 62v-2.6l12.5-5.2z"/></g><path stroke="#000" stroke-width="1.2" d="M51.1 106.3h109.5v69H51.1z"/><g fill="#000" stroke-width=".6"><path d="M67.4 136.9l-9 5.4 9 5.4v2.7l-11-6.9V141l11-6.8zM78.8 130.4v3q-1-1-1.9-1.3-.9-.4-1.7-.4-1.4 0-2.2 1-.8.9-.8 2.6 0 1.5.5 2.3.6.7 2 1.2l1 .3q2 .7 3 2.3.9 1.6.9 4.3 0 3.2-1.3 4.9-1.2 1.6-3.7 1.6-.9 0-2-.3l-2-1v-3.2q1 1 2 1.6 1 .5 2 .5 1.5 0 2.3-1 .9-1 .9-2.9 0-1.6-.6-2.5-.6-1-2-1.4l-1-.4q-2-.6-2.9-2-.8-1.5-.8-4 0-3 1.2-4.6 1.2-1.7 3.3-1.7 1 0 1.9.2 1 .3 1.9.9zM80.5 129.7h2l3.5 9 3.6-9h1.8L87 141.3v10.5H85v-10.5zM93.2 129.7h2.6l3.3 15 3.3-15h2.6v22h-1.7v-19.3l-3.3 15.1h-1.8l-3.3-15.1v19.4h-1.7zM110.2 141.2v8.1h2.9q1.4 0 2-1 .7-1 .7-3 0-2.1-.7-3-.6-1-2-1zm0-9v6.6h2.6q1.3 0 2-.8.6-.9.6-2.5 0-1.7-.7-2.5-.6-.9-1.9-.9zm-1.7-2.5h4.5q2 0 3 1.4 1.1 1.4 1.1 4 0 2-.5 3.3-.6 1.2-1.7 1.5 1.3.4 2 2 .8 1.4.8 3.7 0 3-1.2 4.6-1.2 1.6-3.4 1.6h-4.6zM125.6 131.7q-1.9 0-3 2.4-1.1 2.5-1.1 6.6 0 4.2 1 6.7 1.2 2.4 3.1 2.4 2 0 3-2.4 1.1-2.5 1.1-6.7 0-4.1-1-6.6-1.2-2.4-3.1-2.4zm0-2.4q2.7 0 4.4 3 1.6 3.2 1.6 8.4 0 5.3-1.6 8.4-1.7 3.1-4.4 3.1t-4.4-3q-1.6-3.2-1.6-8.5 0-5.2 1.6-8.3 1.7-3.1 4.4-3.1zM134.3 129.7h1.8v19.6h6.3v2.5h-8zM144.3 136.9v-2.7l11.2 6.8v2.5l-11.2 6.9v-2.7l9-5.4z"/></g><path stroke="#000" d="M23.5 204.4h155.8v64.1H23.5z"/><g fill="#000" stroke-width=".8"><path d="M56 231.4l-14.2 6.7 14.3 6.7v3.3l-17.8-8.5v-3l17.8-8.5zM61.8 222.6h2.8v27.2h-2.8zM70.2 222.6H74l9.1 22.7v-22.7h2.7v27.2h-3.7L72.9 227v22.7h-2.7zM94.2 225.6v10.2h3.5q2 0 3-1.3t1-3.8q0-2.4-1-3.7-1-1.4-3-1.4zm-2.8-3h6.3q3.4 0 5.2 2 1.8 2.1 1.8 6.1 0 4-1.8 6.1-1.8 2-5.2 2h-3.5v11h-2.8zM108.1 222.6h2.9v16.5q0 4.4 1.2 6.3 1.2 2 3.9 2 2.6 0 3.8-2 1.2-2 1.2-6.3v-16.5h2.8v17q0 5.3-2 8t-5.8 2.7q-4 0-6-2.7t-2-8zM126.3 222.6h17.5v3.1h-7.3v24h-2.8v-24h-7.4zM146.7 231.4v-3.3l17.8 8.5v3l-17.8 8.5v-3.3L161 238z"/></g><path stroke="#000" d="M43.4 288h112.3v31.2H43.4z"/><g fill="#000" stroke-width=".6"><path d="M65.8 294v2.7q-1.4-.8-2.5-1.1-1.2-.4-2.3-.4-2 0-3 .9-1 .8-1 2.5 0 1.3.6 2 .7.7 2.7 1.2l1.4.3q2.6.6 3.9 2 1.2 1.6 1.2 4 0 3-1.7 4.6-1.7 1.5-5 1.5-1.2 0-2.6-.3-1.4-.3-2.9-1v-2.8q1.5 1 2.8 1.4 1.4.5 2.8.5 2 0 3-1 1.2-.9 1.2-2.6 0-1.5-.8-2.4-.8-.8-2.6-1.3l-1.4-.3q-2.7-.6-3.9-2-1.1-1.3-1.1-3.6 0-2.7 1.6-4.3 1.6-1.6 4.5-1.6 1.2 0 2.5.3l2.6.8zM70.3 293.3h2.3v12.5q0 3.3 1 4.7 1 1.5 3.4 1.5 2.2 0 3.2-1.5 1-1.4 1-4.7v-12.5h2.4v12.8q0 4-1.7 6.1-1.6 2-5 2-3.3 0-5-2-1.6-2-1.6-6zM90.4 304v7.6h3.8q2 0 2.8-1 1-.9 1-2.8 0-2-1-2.8-.9-1-2.8-1zm0-8.4v6.2H94q1.8 0 2.6-.8.9-.8.9-2.3 0-1.6-.9-2.3-.8-.8-2.6-.8zm-2.3-2.3h6q2.7 0 4.2 1.3 1.4 1.3 1.4 3.8 0 1.9-.7 3-.8 1-2.2 1.4 1.7.4 2.7 1.8 1 1.4 1 3.5 0 2.7-1.6 4.2t-4.6 1.5h-6.2zM104.5 293.3h3.5l4.5 14 4.5-14h3.5v20.5h-2.3v-18l-4.5 14.1h-2.4l-4.5-14.1v18h-2.3zM125.2 293.3h2.3v20.5h-2.3zM129.8 293.3h14.8v2.3h-6.2v18.2H136v-18.2h-6.2z"/></g><path stroke="#000" stroke-width="1.1" d="M196.4 110.6h32.4v36.8h-32.4z"/><path fill="#000" d="M206 137.3h5.2v-16.4l-5.7 1v-2.6l5.7-1h3.2v19h5.3v2.4H206z"/><path stroke="#000" stroke-width="1.1" d="M196.4 160.2h32.4V197h-32.4z"/><path fill="#000" d="M214.7 170.4l-8.2 11.5h8.2zm-.9-2.5h4.1v14h3.4v2.4H218v5h-3.2v-5h-10.8v-2.8z"/><path stroke="#000" stroke-width="1.1" d="M196.4 209.8h32.4v36.8h-32.4z"/><path fill="#000" d="M205 217.5h15.3v1.2l-8.7 20.3h-3.4l8.2-19H205z"/><path stroke="#000" stroke-width="1.1" d="M241.2 110.6h32.4v36.8h-32.4z"/><path fill="#000" d="M253.7 137.5H265v2.4h-15.2v-2.4l5-4.6 4-3.7q1.6-1.6 2.2-2.7.6-1 .6-2.1 0-1.7-1.3-2.8-1.4-1-3.5-1-1.5 0-3.2.4-1.7.5-3.6 1.4v-2.9q2-.7 3.6-1 1.7-.4 3.1-.4 3.7 0 6 1.6 2.2 1.7 2.2 4.5 0 1.3-.6 2.5-.5 1.2-2 2.8l-2.5 2.4-6.1 5.6z"/><path stroke="#000" stroke-width="1.1" d="M241.2 160.2h32.4V197h-32.4z"/><path fill="#000" d="M250.7 167.7h12.7v2.4h-9.8v5.3l1.4-.3 1.5-.1q4 0 6.3 2 2.3 1.9 2.3 5.3t-2.4 5.3q-2.4 2-6.7 2-1.5 0-3.1-.3-1.6-.2-3.2-.7v-2.9q1.4.7 3 1 1.5.4 3.2.4 2.8 0 4.4-1.3 1.6-1.3 1.6-3.5 0-2.3-1.6-3.6-1.6-1.3-4.4-1.3-1.3 0-2.6.3-1.3.2-2.6.8z"/><path stroke="#000" stroke-width="1.1" d="M241.2 209.8h32.4v36.8h-32.4z"/><path fill="#000" d="M257.4 228.8q-2.3 0-3.6 1-1.3 1.2-1.3 3.1 0 2 1.3 3 1.3 1.2 3.6 1.2t3.6-1.1q1.4-1.2 1.4-3 0-2-1.4-3.1-1.3-1.1-3.6-1.1zm-3.2-1.3q-2.1-.4-3.3-1.7-1.1-1.3-1.1-3.1 0-2.6 2-4.1 2-1.5 5.6-1.5 3.6 0 5.6 1.5 2 1.5 2 4 0 2-1.1 3.2-1.2 1.3-3.3 1.7 2.4.5 3.7 2 1.3 1.4 1.3 3.4 0 3.1-2.1 4.8-2.1 1.7-6.1 1.7-4 0-6-1.7-2.2-1.7-2.2-4.8 0-2 1.3-3.5 1.3-1.4 3.7-1.9zM253 223q0 1.7 1.1 2.6 1.2 1 3.3 1 2 0 3.2-1 1.2-.9 1.2-2.6 0-1.6-1.2-2.6-1.1-.9-3.2-.9t-3.3 1q-1.1.9-1.1 2.5z"/><path stroke="#000" stroke-width="1.1" d="M286 110.6h32.4v36.8H286z"/><path fill="#000" d="M305.1 128.1q2.3.5 3.6 1.9 1.4 1.4 1.4 3.5 0 3.2-2.5 4.9-2.4 1.7-6.9 1.7l-3.1-.2-3.3-.8v-2.8q1.4.7 3 1 1.6.4 3.3.4 3 0 4.6-1 1.6-1.2 1.6-3.2t-1.5-3q-1.4-1-4-1h-2.9V127h3q2.3 0 3.6-.9 1.3-.9 1.3-2.5t-1.3-2.5q-1.3-.9-3.8-.9-1.3 0-2.8.3-1.5.2-3.4.8v-2.6q1.9-.5 3.5-.7l3-.2q3.7 0 5.8 1.5 2.2 1.5 2.2 4 0 1.8-1.1 3-1.2 1.3-3.3 1.7z"/><path stroke="#000" stroke-width="1.1" d="M286 160.2h32.4V197H286z"/><path fill="#000" d="M302.5 177.4q-2.2 0-3.5 1.4-1.3 1.3-1.3 3.6 0 2.4 1.3 3.7 1.3 1.4 3.5 1.4 2.1 0 3.4-1.4 1.3-1.3 1.3-3.7 0-2.3-1.3-3.6-1.3-1.4-3.4-1.4zm6.4-9v2.6q-1.2-.5-2.5-.8-1.2-.3-2.4-.3-3.2 0-5 2-1.6 2-1.8 5.8.9-1.2 2.3-1.9t3.2-.7q3.6 0 5.6 2 2.1 2 2.1 5.3 0 3.4-2.1 5.4-2.2 2-5.8 2-4.2 0-6.4-2.9t-2.2-8.3q0-5 2.7-8 2.7-3.1 7.2-3.1 1.3 0 2.5.2l2.6.6z"/><path stroke="#000" stroke-width="1.1" d="M286 209.8h32.4v36.8H286z"/><path fill="#000" d="M295.5 238.5V236l2.4.8 2.5.2q3.2 0 4.9-1.9 1.7-2 2-5.9-1 1.3-2.4 2-1.5.6-3.2.6-3.6 0-5.7-2-2-2-2-5.3t2.1-5.3q2.2-2 5.8-2 4.2 0 6.3 2.9 2.2 2.8 2.2 8.2 0 5.1-2.7 8.2-2.6 3-7.2 3l-2.4-.2-2.6-.7zm6.4-9q2.2 0 3.5-1.4 1.2-1.4 1.2-3.7 0-2.3-1.2-3.6-1.3-1.4-3.5-1.4t-3.4 1.4q-1.3 1.3-1.3 3.6t1.3 3.7q1.2 1.3 3.4 1.3z"/><path stroke="#000" stroke-width="1.1" d="M218.3 259.5h32.4v36.7h-32.4zM264 259.5h32.5v36.7h-32.4z"/><path fill="#000" d="M234.5 269q-2.5 0-3.8 2.2-1.2 2.2-1.2 6.7 0 4.4 1.2 6.6 1.3 2.2 3.8 2.2t3.7-2.2q1.3-2.2 1.3-6.6 0-4.5-1.3-6.7-1.2-2.2-3.7-2.2zm0-2.3q4 0 6.1 2.9 2.1 2.8 2.1 8.3 0 5.4-2 8.2-2.2 2.9-6.2 2.9t-6.2-2.9q-2-2.8-2-8.2 0-5.5 2-8.3 2.2-2.9 6.2-2.9zM290 268.8v3q-1.7-1.3-3.5-2-1.9-.7-4-.7-4 0-6.2 2.3-2.2 2.2-2.2 6.5 0 4.2 2.2 6.5 2.1 2.2 6.2 2.2 2.1 0 4-.7 1.8-.7 3.5-2v3q-1.7 1-3.6 1.6-2 .5-4 .5-5.5 0-8.6-3-3.1-3-3.1-8.1 0-5.2 3.1-8.2 3.1-3 8.5-3 2.2 0 4 .5 2 .5 3.7 1.6z"/></svg>