<svg xmlns="http://www.w3.org/2000/svg" fill="none" viewBox="0 0 348 348"><defs><clipPath id="b" clipPathUnits="userSpaceOnUse"><path fill="red" d="M180.3 63.4v14.3h47.5V63.4h-16.4q.6.4.9 1.3c.5 1.2.2.4-2.7 1.9l-.1-.3-.8.2q-.6 0-1.1-.7l-.5.7a2 2 0 0 1-2.2.5l-1-.6-.8-1.5v.3l-.7.7q-1.1 1-2.5.5l-.6-.4-.4-.4-.2-.5h-.1l.1.4c1.3 3-1.5 4.3-2.9 1.4l-.5-1.5v-1.6l.1-.4zm20 0v.1m.1 1.5h.1zm4 .2v.2zm-5.1 3.6c.7 0 .9.8 0 1l-1 .5-1.8.5q-1.3.2-2.4.7l-1.3 1-1 1.1c-.8.7-1.5 0-.8-.7l1-1q.7-.8 1.5-1.3 1.3-.7 2.7-.9l2.7-.8z"/></clipPath><clipPath id="a" clipPathUnits="userSpaceOnUse"><path fill="red" d="M184.8 67v3.5h1.5q3.6 0 7.3-.2l.3-.2.2-.1-2.2-.1h-2.4v-.1l-.3.1v-1.4h-1.3l-.6-.1.2-.2q-.7-.2-1-.7 0-.3.3-.5zm30.9 0 1.8.2q.4 0 .8.2l.4 1h.8l1.3.1c.7 0 2.9 0 1.2 1.8-.3.4-1 .2-1.5.2l-2.1.2-2.6.2h3q1 0 1.2.6l1.8.1h1.8V67zM203 69.3H202l2.7.6 3.3-.2q-.2 0-.5-.2-1.8 0-3.6-.2zm-18.3 2.9v37.3h38.8v-36l-.5-.1h-.9q0 .4-.6.6 0 .7-1.1 1h-.2l-.6.1-.7.3q.1.5-.5.2l-.6.2q-1.2.5-1.4-.3l-1.2.2-1.6.3a32 32 0 0 1-7 .5 87 87 0 0 1-14.7-.8q-.2.4-1 .4h-.7l-.6-.2-.7-.2q-.8-.4-.8-1h-.2q-.7-.3-.8-.8c-1.3-.2-1.1-1.6.4-1.6l3 .2.2-.1-4-.1zm9.6.2-.4.2zm-2 1.8 1.7.3 2.6.2 6.5.2a86 86 0 0 0 10.2-.5l1-.2z"/></clipPath></defs><path stroke="#000" stroke-width="2" d="M5 5.8h337v337.6H5z"/><path stroke="#000" stroke-width="2" d="M282.7 40.6c0-8.4 7-15.2 15.6-15.2q6.3.1 11 4.4a15 15 0 0 1 4.6 10.8c0 8.3-7 15.1-15.6 15.1s-15.6-6.8-15.6-15.1z"/><path stroke="#1a1a1a" stroke-width="1.1" d="M30.7 46.8h97.8v123.7H30.7zM155.4 48h97.8v123.7h-97.8z"/><path stroke="#1a1a1a" d="M284.2 130.5h36.6V211h-36.6zM284.4 238.1H321v80.5h-36.6zM29.3 261h101.2v63.4H29.3zM154.7 261.3h101.2v63.4H154.7zM142 8l2.5 334.1M18.1 183.7h14.7v14.7H18.1zM150.3 231.4H165v14.7h-14.7z"/><path stroke="#1a1a1a" d="M164.6 231.5h14.7v14.7h-14.7zM149.8 205.4h14.7v14.7h-14.7zM149.4 181.1h14.7v14.7h-14.7zM164.3 181.1H179v14.7h-14.7zM18.1 206.2h14.7v14.7H18.1zM18 230.9h14.7v14.7H18zM32.9 206.2h14.7v14.7H32.9zM32.9 183.8h14.7v14.7H32.9z"/><path stroke="#1a1a1a" stroke-width="1.7" d="M71.2 17.6h-3l-.8 3.4H70v1.2h-3L66 26h-1.2l1-3.8h-2.5l-1 3.8h-1l.9-3.8h-2.7V21h3l.8-3.4h-2.8v-1.2h3.1l1-3.8h1.1l-1 3.8h2.5l1-3.8h1.2l-1 3.8h2.7zm-4.2 0h-2.4l-.9 3.4h2.5zm19.4 0h-3l-.9 3.4h2.8v1.2h-3.1l-1 3.8h-1.1l1-3.8h-2.5l-1 3.8h-1.1l1-3.8h-2.8V21h3l.9-3.4h-2.8v-1.2h3l1-3.8H81l-1 3.8h2.5l1-3.8h1.1l-1 3.8h2.8zm-4.2 0h-2.5L79 21h2.5zm19.3 0h-3l-.8 3.4h2.8v1.2h-3.1l-1 3.8h-1.1l.9-3.8h-2.4l-1 3.8h-1.2l1-3.8h-2.7V21h3l.8-3.4H91v-1.2h3.2l.9-3.8h1.2l-1 3.8h2.5l1-3.8h1l-.9 3.8h2.7zm-4.1 0h-2.5L94 21h2.5zm19.3 0h-3l-.9 3.4h2.8v1.2h-3l-1 3.8h-1.2l1-3.8h-2.5l-1 3.8h-1l.8-3.8h-2.6V21h3l.8-3.4h-2.8v-1.2h3.1l1-3.8h1.1l-1 3.8h2.5l1-3.8h1.1l-1 3.8h2.8zm-4.2 0h-2.4l-.9 3.4h2.5zm19.4 0h-3L128 21h2.8v1.2h-3.1l-1 3.8h-1.1l1-3.8H124l-1 3.8H122l1-3.8h-2.8V21h3l.9-3.4h-2.8v-1.2h3l1-3.8h1.2l-1 3.8h2.5l1-3.8h1.1l-1 3.8h2.8zm-4.2 0h-2.5l-.8 3.4h2.4zm19.3 0h-3l-.8 3.4h2.8v1.2h-3.1l-1 3.8h-1.2l1-3.8h-2.5l-.9 3.8h-1.2l1-3.8h-2.7V21h3l.8-3.4h-2.8v-1.2h3.1l1-3.8h1.2l-1 3.8h2.5l.9-3.8h1.2l-1 3.8h2.7zm-4.1 0h-2.5l-.9 3.4h2.5zm19.3 0h-3l-.9 3.4h2.8v1.2h-3l-1 3.8h-1.2l1-3.8h-2.5l-1 3.8h-1.1l1-3.8h-2.8V21h3l.9-3.4h-2.8v-1.2h3.1l1-3.8h1.1l-1 3.8h2.5l1-3.8h1.1l-1 3.8h2.8zm-4.2 0h-2.5l-.8 3.4h2.5zM244.2 17h-3l-.8 3.3h2.8v1.2H240l-1 3.8H238l.9-3.8h-2.4l-1 3.8h-1.2l1-3.8h-2.7v-1.2h3l.8-3.4h-2.7v-1.2h3l1-3.8h1.2l-1 3.8h2.5l1-3.8h1l-.9 3.8h2.7zm-4.1-.1h-2.5l-.9 3.4h2.5zm19.3 0h-3l-.9 3.4h2.8v1.2h-3l-1 3.8H253l1-3.8h-2.5l-1 3.8h-1l.9-3.8h-2.7v-1.2h3l.8-3.4h-2.8v-1.2h3.1l1-3.8h1.1l-1 3.8h2.5l1-3.8h1.1l-1 3.8h2.8zm-4.2 0h-2.4l-.9 3.4h2.5zm19.4 0h-3l-.9 3.4h2.8v1.2h-3.1l-1 3.8h-1.1l1-3.8h-2.5l-1 3.8h-1.1l1-3.8h-2.8v-1.2h3l.9-3.4H264v-1.2h3l1-3.8h1.2l-1 3.8h2.5l1-3.8h1.1l-1 3.8h2.8zm-4.2 0h-2.5l-.8 3.4h2.5zm19.3 0h-3l-.8 3.4h2.8v1.2h-3.1l-1 3.8h-1.2l1-3.8h-2.5l-.9 3.8h-1.2l1-3.8H278v-1.2h3l.8-3.4h-2.8v-1.2h3.1l1-3.8h1.2l-1 3.8h2.5l.9-3.8h1.2l-1 3.8h2.7zm-4.1 0H283l-.9 3.4h2.5zm19.3 0h-3l-.9 3.4h2.8v1.2h-3l-1 3.8h-1.2l1-3.8H297l-1 3.8H295l1-3.8h-2.8v-1.2h3l.9-3.4h-2.8v-1.2h3.1l1-3.8h1.1l-1 3.8h2.5l1-3.8h1.1l-1 3.8h2.8zm-4.2 0h-2.5l-.8 3.4h2.5zm19.3 0h-3l-.8 3.4h2.8v1.2h-3.1l-1 3.8h-1.1l1-3.8h-2.5l-1 3.8h-1.1l.9-3.8h-2.7v-1.2h3l.9-3.4h-2.8v-1.2h3l1-3.8h1.2l-1 3.8h2.5l1-3.8h1.1l-1 3.8h2.7zm-4.1 0h-2.5l-.8 3.4h2.4zm19.3 0h-3l-.8 3.4h2.7v1.2h-3l-1 3.8h-1.2l1-3.8h-2.5l-1 3.8h-1l.9-3.8h-2.7v-1.2h3l.8-3.4h-2.8v-1.2h3.1l1-3.8h1.2l-1 3.8h2.4l1-3.8h1.2l-1 3.8h2.7zm-4.1 0h-2.5l-.9 3.4h2.5z" aria-label="#######" font-size="18.5" style="line-height:0" transform="scale(.72 1.39)"/><path stroke="#1a1a1a" d="M61.3 261.6v62.5M96.7 261.4V324M187.7 261.5V324M222.7 261.4v62.5M29.6 292.1l100-.3M156.1 292.4l100-.3"/><ellipse cx="82.9" cy="91.5" stroke="#000" rx="18.9" ry="20.7"/><ellipse cx="204.2" cy="88.3" stroke="#000" clip-path="url(#a)" rx="18.9" ry="20.7"/><path stroke="#000" d="M83 112.2v33L64.5 164M83 145.3l13 18.6"/><path stroke="#000" d="m83 128-13.3 5.6-12-4.2"/><path stroke="#000" d="m82.8 128 17.4 3.9 5-15.4M58.2 134.2l-.6-9.8M51 125.2 64 124M55.8 124l-1.4-16.7 1.6-6.2 2.2 22.7M100.5 115.3l8.4 2.2M110.7 112l-3.2 9.2M109.8 116.2l14 4-4.3 1.2-10.2-3.2M204.6 109.1l-.4 38-18 17.2M204.2 146.8l14.2 16.4"/><ellipse cx="204" cy="70.6" stroke="#000" clip-path="url(#b)" rx="23.2" ry="6.6"/><path stroke="#000" d="M194.7 67.8 199 48M212.8 67.7 209.5 54l6.1 5-5.2-10.8"/><path stroke="#000" stroke-width="1.1" d="m204.4 125.5-24.8-6.2"/><path stroke="#000" d="m191.2 150.3-19.1-51.5M172 99.2l-6-2.8 1.5-6-2-5 8 5.8 1 5.3zM204.8 125.8l11.2 9.4 11.5-7.7M227.2 127.2l-7.5-4 2.6-13.7 7.7 3.6 8-3-1.7 15.3zM230.3 113l-3 14.2"/></svg>