<svg xmlns="http://www.w3.org/2000/svg" viewBox="0 0 348 348" fill="none"><path d="M5.079 5.776h336.913v337.67H5.08z" stroke-width="2" stroke="#000"/><path d="M282.734 40.554c0-8.376 6.966-15.165 15.56-15.165 4.126 0 8.084 1.597 11.001 4.441 2.918 2.844 4.558 6.702 4.558 10.724 0 8.376-6.966 15.165-15.56 15.165-8.593 0-15.559-6.79-15.559-15.165z" stroke-width="2" stroke="#000"/><path fill="#fff" stroke="#000" d="M22.939 83.68h300.293v168.393H22.939z"/><text style="line-height:1.25" x="39.622" y="236.954" font-weight="400" font-size="64" font-family="sans-serif" letter-spacing="0" word-spacing="0" fill="#000"><tspan x="39.622" y="236.954">←</tspan></text><text style="line-height:1.25" x="186.979" y="190.013" font-weight="400" font-size="64" font-family="sans-serif" letter-spacing="0" word-spacing="0" fill="#000"><tspan x="186.979" y="190.013">↑</tspan></text><text style="line-height:1.25" x="125.268" y="206.859" font-weight="400" font-size="64" font-family="sans-serif" letter-spacing="0" word-spacing="0" fill="#000"><tspan x="125.268" y="206.859">↓</tspan></text><text style="line-height:1.25" x="242.57" y="170.365" font-weight="400" font-size="64" font-family="sans-serif" letter-spacing="0" word-spacing="0" fill="#000"><tspan x="242.57" y="170.365">→</tspan></text><path fill="#fff" stroke="#000" stroke-width=".997" d="M38.058 98.799h270.055v25.024H38.058z"/><text style="line-height:1.25" x="172.043" y="115.482" font-weight="400" font-size="16" font-family="sans-serif" letter-spacing="0" word-spacing="0" fill="#000"/><text style="line-height:1.25" x="59.498" y="119.783" font-weight="400" font-size="24" font-family="sans-serif" letter-spacing="0" word-spacing="0" fill="#000"><tspan x="59.498" y="119.783">Ready for Calibration</tspan></text></svg>