<svg xmlns="http://www.w3.org/2000/svg" fill="none" stroke="#000" stroke-width="2" viewBox="0 0 347 347"><defs><clipPath id="b" clipPathUnits="userSpaceOnUse"><path d="M45.701 57.793v61.52c1.052-.1 2.104-.2 3.149-.362.255-.04.497-.061.726-.066 3.068-.066 3.75 2.78 1.147 3.844 1.179 1.142.69 2.812-1.098 3.167.016.061.044.101.059.165.128.56.254 1.12.406 1.673.325.105.662.246 1.023.479 1.193.768.577.38 1.846 1.164 1.957 1.272 3.87 2.63 5.627 4.17 2.358 2.25 4.495 4.763 6.02 7.662a46.662 46.662 0 0 1 2.624 6.986c.062.037.116.044.178.084 2.919 1.882 5.872 3.707 8.828 5.528 1.864 1.144 3.718 2.302 5.58 3.447.378-.3.913-.494 1.594-.496a4.78 4.78 0 0 1 1.348.207c2.735.799 5.44 1.701 8.142 2.605 2.739.933 5.463 1.908 8.178 2.905.048.017.093.039.14.056.089-.005.179-.008.272-.006.476.013 1.018.127 1.614.375 3.216 1.343 6.43 2.69 9.7 3.899 2.7.977 5.418 1.932 8.245 2.47.735.14 1.305.39 1.724.698 4.663 1.096 9.35 2.094 14.065 2.927 4.488.758 9.04.837 13.576.672 2.491-.065 4.954-.463 7.441-.578a43.134 43.134 0 0 1 3.409.018c2.979.111 3.709 2.316 2.338 3.472 1.14-.077 2.282-.147 3.42-.257.08-.767.701-1.423 1.855-1.543.556-3.951 1.097-7.91 1.94-11.811.38-1.765 1.36-2.55 2.27-2.535 1.172.019 2.229 1.358 1.753 3.63-.786 3.755-1.307 7.56-1.842 11.356l.137.028c.11-.023.223-.041.334-.065 1.618-.349 2.758.084 3.299.781.5.098.998.202 1.498.297.07-.016.13-.039.205-.052 6.87-1.294 13.847-1.875 20.802-2.487 6.486-.523 12.985-.834 19.48-1.183-.01-1.012 1.02-1.983 2.868-1.975.231.001.475.017.73.05 1.558.205 3.125.337 4.692.458-1.425-.494-1.948-1.469-1.713-2.322a145.957 145.957 0 0 1-6.758-2.834c-3.76-1.704-1.997-5.481 1.764-3.78a143.608 143.608 0 0 0 9.05 3.725c2.513.89 5.102 1.492 7.72 1.95 1.463.04 2.923.025 4.382-.16 1.828-.229 3.558-.834 5.268-1.491 2.464-1.122 4.961-2.17 7.428-3.285a272.29 272.29 0 0 1 6.996-2.948c1.926-.72 3.82-1.523 5.732-2.28.903-.356 1.812-.696 2.719-1.042 2.066-1.599 4.095-3.246 6.164-4.842 2.354-1.758 4.884-3.258 7.4-4.767-1.65-.647-1.705-2.913 1.03-4.012 1.368-.55 2.72-1.143 4.084-1.703 1.77-.8 3.587-1.489 5.365-2.272.3-.127.578-.3.875-.437-.227-.926.393-2.067 2.185-2.676a8.24 8.24 0 0 0 2.35-1.26c.735-.792 1.157-1.824 1.6-2.8a63.273 63.273 0 0 0 1.66-3.846c.348-.77.696-1.541 1.068-2.301.053-.107.116-.18.172-.277h-.572c-2.592 0-3.552-1.642-2.889-2.866-.581-1.227.297-2.645 2.426-2.578.226.007.468.032.722.075 1.26.211 2.524.384 3.788.566V57.793Zm261.358 70.035c-.29.6-.564 1.205-.844 1.809a83.178 83.178 0 0 1-1.115 2.662c.493-.262.969-.439 1.386-.453.205-.007.394.016.573.058zM45.7 130.926v47.705h76.729c-4.808-1.042-9.595-2.202-14.282-3.697-.258.145-.515.297-.771.46-2.828 1.805-4.931-.056-3.773-2.042-1.153-.452-2.27-.92-3.93-1.61-5.01-2.113-9.704-4.855-14.406-7.56-3.79-2.186-7.485-4.534-11.213-6.823a637.52 637.52 0 0 1-6.592-4.129c-.675.887-1.891.87-2.797-.132a2.683 2.683 0 0 1-.621-.237c-.245 1.638-2.335 2.246-4.152.034-2.114-2.573-3.923-5.2-5.48-8.157-2.088-3.965-4.08-8.01-5.39-12.308-.055-.181-.087-.35-.119-.518a1.733 1.733 0 0 1-.217.01c-.964.892-2.405.59-2.986-.996zm261.358 4.982c-.051.045-.095.09-.149.133-.767.624-1.537 1.249-2.377 1.775a85.704 85.704 0 0 1-4.935 2.989c-.087.049-.175.096-.262.144.323.909-.124 2.161-1.787 3.072-1.543.846-3.078 1.705-4.633 2.528-.403.223-.81.44-1.215.66a3.19 3.19 0 0 1 .418-.008c1.936.155 2.547 2.549-.062 4.215-1.214.775-2.419 1.571-3.702 2.23-2.02 1.022-4.05 2.023-6.2 2.744-2.574.96-5.152 1.91-7.702 2.93-.92.35-1.837.706-2.756 1.057-.482.368-.95.753-1.441 1.111-4 2.99-8.037 5.99-12.526 8.22-1.996.904-2.833 1.352-4.923 2.02-.166.053-.332.097-.498.147 3.725.055 7.451.124 11.177.137 4.128.014 4.115 4.184-.013 4.17-7.017-.025-14.032-.13-21.047-.276-3.332-.079-5.63-.132-8.451-.227-2.074.239-4.147.47-6.23.612-9.363.683-18.749.932-28.106 1.681-1.337.118-2.675.237-4.012.358.176.1.388.179.521.3h110.91ZM94.186 164.434c.063.034.13.065.193.1-.034-.022-.065-.045-.098-.067l-.095-.033zm19.675 7.423c.012.157.02.3.022.422 4.163 1.135 8.38 2.073 12.6 2.96 2.31.423 4.01.751 5.716 1.036a261.502 261.502 0 0 1-13.006-2.85 97.105 97.105 0 0 1-5.332-1.568z" style="fill:red;fill-opacity:1;fill-rule:nonzero;stroke:none"/></clipPath><clipPath id="a" clipPathUnits="userSpaceOnUse"><path d="M4 4v339h339V4Zm45.576 114.885c3.068-.066 3.75 2.78 1.147 3.844 1.179 1.142.69 2.812-1.098 3.167.016.061.044.101.059.165.135.59.27 1.182.433 1.765.326.105.634.154.996.387 1.193.768.577.38 1.846 1.164 1.957 1.272 3.87 2.63 5.627 4.17 2.358 2.25 4.495 4.763 6.02 7.662a46.662 46.662 0 0 1 2.624 6.986c.062.037.116.044.178.084 2.919 1.882 5.872 3.707 8.828 5.528 1.869 1.147 3.752 2.271 5.62 3.42.375-.285.895-.467 1.554-.47a4.78 4.78 0 0 1 1.348.208c2.735.799 5.44 1.701 8.142 2.605a366.73 366.73 0 0 1 8.178 2.905c.048.017.093.039.14.056.089-.005.179-.008.272-.006.476.013 1.018.127 1.614.375 3.216 1.343 6.43 2.69 9.7 3.899 2.7.977 5.418 1.932 8.245 2.47.735.14 1.305.39 1.724.698 4.663 1.096 9.35 2.094 14.065 2.927 4.488.758 9.04.837 13.576.672 2.491-.065 4.954-.463 7.441-.578a43.134 43.134 0 0 1 3.409.018c2.947.11 3.693 2.27 2.38 3.435 1.133-.077 2.265-.113 3.393-.222.083-.765.688-1.42 1.84-1.541.556-3.951 1.097-7.91 1.94-11.811.38-1.765 1.36-2.55 2.27-2.535 1.172.019 2.229 1.358 1.753 3.63-.786 3.755-1.307 7.56-1.842 11.356l.137.028c.11-.023.223-.041.334-.065 1.618-.349 2.758.084 3.299.781.5.098.998.202 1.498.297.07-.016.13-.039.205-.052 6.87-1.294 13.847-1.875 20.802-2.487 6.486-.523 12.985-.834 19.48-1.183-.01-1.012 1.02-1.983 2.868-1.975.231.001.475.017.73.05 1.559.205 3.124.337 4.692.458-1.45-.502-1.964-1.503-1.697-2.367-2.272-.895-4.548-1.78-6.774-2.79-3.76-1.703-1.997-5.48 1.764-3.779a143.603 143.603 0 0 0 9.05 3.725c2.566.909 5.215 1.493 7.89 1.953 1.406.035 2.81.014 4.212-.162 1.828-.23 3.558-.835 5.268-1.492 2.464-1.122 4.961-2.17 7.428-3.285a272.29 272.29 0 0 1 6.996-2.948c1.926-.72 3.82-1.523 5.732-2.28.888-.35 1.783-.684 2.674-1.024 2.08-1.608 4.128-3.255 6.209-4.86 2.354-1.758 4.884-3.258 7.4-4.767-1.65-.647-1.705-2.913 1.03-4.012 1.368-.55 2.72-1.143 4.084-1.703 1.77-.8 3.587-1.489 5.365-2.272.3-.127.578-.3.875-.437-.227-.926.393-2.067 2.185-2.676a8.24 8.24 0 0 0 2.35-1.26c.735-.792 1.157-1.824 1.6-2.8a63.262 63.262 0 0 0 1.66-3.846c.348-.77.696-1.541 1.068-2.301.062-.126.147-.164.213-.277h-.613c-2.592 0-3.552-1.644-2.889-2.868-.55-1.165.214-2.503 2.117-2.576a5.388 5.388 0 0 1 1.031.074c1.266.213 2.536.386 3.805.569 2.747.396 3.375 2.39 2.252 3.476-.29.543-.86 1.014-1.787 1.215.095.62.046 1.343-.385 2.221-.326.666-.63 1.342-.941 2.016a83.178 83.178 0 0 1-1.115 2.662c.493-.262.969-.439 1.386-.453 1.941-.07 2.826 2.242.424 4.195-.767.624-1.537 1.249-2.377 1.775a85.71 85.71 0 0 1-4.935 2.989c-.087.049-.175.096-.262.144.323.909-.124 2.16-1.787 3.072-1.543.846-3.078 1.705-4.633 2.528-.403.223-.81.44-1.215.66.144-.011.286-.015.418-.008 1.936.155 2.547 2.548-.062 4.215-1.214.775-2.419 1.571-3.702 2.23-2.02 1.022-4.05 2.023-6.2 2.744-2.574.96-5.152 1.91-7.702 2.93-.933.354-1.863.715-2.795 1.07-.471.36-.922.748-1.402 1.098-4 2.99-8.037 5.99-12.526 8.22-1.996.904-2.833 1.352-4.923 2.02-.166.053-.332.097-.498.147 3.725.055 7.451.124 11.177.136 4.128.015 4.115 4.185-.013 4.17-7.017-.024-14.032-.13-21.047-.275-3.332-.079-5.63-.132-8.451-.227-2.074.239-4.147.47-6.23.612-9.363.683-18.749.932-28.106 1.681-1.33.117-2.66.236-3.99.356 1.948 1.109 1.278 3.731-2.018 3.664-1.928-.04-.94-.004-2.965-.111-4.072-.246-8.148-.543-12.174-1.227-1.78-.327-3.55-.706-5.322-1.07-5.239 1.013-10.629 1.157-15.942 1.459-6.69.375-13.387.758-20.074.091-4.67-.465-6.782-.948-11.422-1.794-5.9-1.236-11.79-2.598-17.539-4.43-.273.153-.545.311-.816.484-2.859 1.825-4.974-.097-3.732-2.107-1.151-.451-2.313-.855-3.971-1.545-5.01-2.114-9.704-4.856-14.406-7.56-3.79-2.187-7.485-4.534-11.213-6.823a637.5 637.5 0 0 1-6.592-4.129c-.664.873-1.839.86-2.727-.119a2.637 2.637 0 0 1-.697-.254c-.246 1.637-2.33 2.248-4.146.037-2.114-2.572-3.923-5.2-5.48-8.156-2.088-3.965-4.08-8.01-5.39-12.309-.055-.18-.087-.35-.119-.517a1.78 1.78 0 0 1-.246.008c-1.23 1.103-3.209.293-3.209-2.567v-.496c0-.596.105-1.082.254-1.506l-.084-.357a4.34 4.34 0 0 1-.078-1.637c-.38-.084-.761-.168-1.14-.256-2.888-.67-3.18-2.94-1.626-3.824.152-.907 1.039-1.786 2.823-1.955 1.086-.102 2.173-.204 3.252-.37.255-.04.497-.062.726-.067zm44.617 45.552c.05.028.104.048.155.075l-.065-.041c-.03-.01-.06-.023-.09-.034zm19.668 7.42c.01.129.017.245.02.35a218.744 218.744 0 0 0 12.601 3.031c2.296.421 3.986.748 5.68 1.032a261.496 261.496 0 0 1-12.969-2.844 97.105 97.105 0 0 1-5.332-1.569zm190.483 34.057a.604.604 0 0 1 .168.022c.26.07.522.14.781.216.042-.016.023-.065.086-.066.028 0 .06 0 .092.004.087.008.173.025.26.04.356.058.336.27.167.397.029.165-.129.312-.425.221-.363-.111-.73-.21-1.096-.308-.436-.118-.386-.517-.033-.526z" style="fill:red;fill-opacity:1;fill-rule:nonzero;stroke:none"/></clipPath><clipPath id="c" clipPathUnits="userSpaceOnUse"><path d="M45.702 178.632v-47.705c.58 1.586 2.022 1.888 2.986.996.074 0 .145-.002.217-.01.032.168.064.336.12.517 1.31 4.3 3.3 8.344 5.388 12.309 1.558 2.956 3.366 5.584 5.48 8.156 1.818 2.212 3.908 1.605 4.153-.033.21.11.419.188.62.236.907 1.002 2.122 1.02 2.798.133a637.595 637.595 0 0 0 6.592 4.129c3.728 2.288 7.422 4.636 11.212 6.822 4.703 2.705 9.397 5.447 14.407 7.56 1.659.691 2.777 1.159 3.93 1.61-1.159 1.987.945 3.848 3.773 2.043.256-.164.513-.315.771-.46 4.687 1.494 9.474 2.654 14.282 3.696zm150.447-.002c-.133-.122-.345-.201-.521-.301 1.337-.121 2.675-.24 4.012-.358 9.357-.749 18.743-.998 28.105-1.681 2.083-.142 4.157-.373 6.23-.611 2.821.094 5.12.147 8.452.226 7.015.145 14.03.251 21.046.275 4.129.015 4.142-4.155.014-4.17-3.726-.012-7.452-.081-11.178-.136.166-.05.333-.094.498-.147 2.09-.668 2.928-1.116 4.924-2.02 4.488-2.23 8.525-5.23 12.526-8.22.49-.358.96-.743 1.441-1.111.92-.35 1.836-.708 2.756-1.057 2.55-1.019 5.128-1.97 7.701-2.93 2.152-.721 4.181-1.722 6.201-2.744 1.283-.659 2.488-1.455 3.701-2.23 2.61-1.666 1.999-4.06.063-4.215a3.116 3.116 0 0 0-.418.01c.405-.22.811-.437 1.215-.66 1.555-.823 3.09-1.682 4.633-2.528 1.663-.911 2.11-2.163 1.787-3.072.087-.048.175-.095.262-.144a85.704 85.704 0 0 0 4.935-2.989c.84-.526 1.61-1.151 2.377-1.775.054-.044.098-.088.148-.133v42.72zm-32.547-2.15c1.372-1.157.642-3.362-2.338-3.473-1.136-.043-2.27-.067-3.408-.02-2.487.115-4.95.513-7.441.578-4.536.165-9.088.086-13.576-.672-4.716-.833-9.403-1.831-14.065-2.927-.42-.309-.99-.558-1.724-.698-2.828-.538-5.546-1.493-8.244-2.47-3.27-1.209-6.485-2.556-9.702-3.899-.595-.248-1.138-.362-1.613-.375a3.44 3.44 0 0 0-.271.008c-.048-.017-.094-.039-.141-.056a366.684 366.684 0 0 0-8.178-2.905c-2.702-.904-5.407-1.806-8.142-2.605a4.78 4.78 0 0 0-1.348-.207c-.681.002-1.216.195-1.594.496-1.862-1.145-3.717-2.303-5.58-3.447-2.957-1.821-5.91-3.646-8.828-5.528-.062-.04-.116-.047-.178-.084a46.663 46.663 0 0 0-2.625-6.986c-1.524-2.899-3.661-5.411-6.02-7.662-1.756-1.54-3.669-2.898-5.626-4.17-1.269-.785-.654-.396-1.846-1.164a4.243 4.243 0 0 0-1.023-.479c-.153-.553-.278-1.113-.407-1.673-.014-.064-.042-.104-.058-.164 1.787-.356 2.277-2.026 1.097-3.168 2.603-1.065 1.922-3.91-1.146-3.844a5.564 5.564 0 0 0-.727.066c-1.044.162-2.096.262-3.148.362v-61.52h261.357v61.615c-.01 0-.021 0-.033-.002-.662-.032-1.323-.068-1.986-.058-.375.006-.465.28-.295.427-.449-.016-.526.438-.041.514l.066.01c-.047.013-.1.022-.125.047-.457-.068-.916-.128-1.373-.205a5.388 5.388 0 0 0-.722-.074c-2.13-.068-3.007 1.35-2.426 2.578-.663 1.223.297 2.865 2.889 2.865h.572c-.056.098-.12.17-.172.277-.372.76-.72 1.53-1.068 2.301a63.274 63.274 0 0 1-1.66 3.846c-.443.976-.865 2.008-1.6 2.8a8.24 8.24 0 0 1-2.35 1.26c-1.792.61-2.412 1.75-2.185 2.676-.297.137-.574.31-.875.438-1.778.782-3.594 1.472-5.366 2.271-1.363.56-2.715 1.153-4.084 1.703-2.734 1.1-2.679 3.365-1.029 4.012-2.516 1.509-5.046 3.009-7.4 4.768-2.07 1.595-4.098 3.243-6.164 4.841-.907.347-1.816.686-2.719 1.041-1.911.759-3.806 1.562-5.732 2.282a272.184 272.184 0 0 0-6.997 2.947c-2.466 1.115-4.963 2.164-7.427 3.285-1.71.657-3.44 1.262-5.268 1.492-1.459.184-2.92.2-4.383.158-2.617-.457-5.206-1.059-7.718-1.949a143.65 143.65 0 0 1-9.051-3.724c-3.761-1.702-5.524 2.075-1.764 3.779a145.957 145.957 0 0 0 6.758 2.834c-.235.854.287 1.829 1.713 2.322-1.567-.12-3.134-.253-4.692-.457-.255-.033-.499-.05-.73-.05-1.848-.009-2.877.962-2.867 1.974-6.496.349-12.995.66-19.48 1.184-6.957.611-13.934 1.192-20.803 2.486-.075.014-.135.036-.206.053-.5-.095-.998-.2-1.498-.297-.54-.698-1.68-1.13-3.298-.782-.111.024-.223.04-.334.063-.046-.01-.092-.016-.137-.025.534-3.797 1.056-7.602 1.842-11.356.475-2.273-.582-3.612-1.752-3.63-.91-.016-1.89.77-2.272 2.534-.842 3.902-1.383 7.86-1.94 11.81-1.153.122-1.773.778-1.855 1.544-1.137.11-2.279.18-3.42.258zm-31.402-.204c-1.706-.285-3.406-.613-5.717-1.037-4.219-.886-8.437-1.824-12.6-2.959a6.793 6.793 0 0 0-.02-.422 97.105 97.105 0 0 0 5.331 1.569 261.52 261.52 0 0 0 13.006 2.85zm-37.82-11.742c-.064-.034-.13-.065-.194-.1l.096.034c.033.021.064.044.098.066zM305.1 132.3c.389-.88.758-1.77 1.116-2.663.28-.604.555-1.209.843-1.808v4.076a2.142 2.142 0 0 0-.572-.059c-.417.015-.893.191-1.387.454z" style="fill:red;fill-opacity:1;fill-rule:nonzero;stroke:none"/></clipPath></defs><path d="M5 5h337v337H5z" clip-path="url(#a)"/><circle cx="298" cy="40" r="16"/><ellipse cx="176.38" cy="118.212" clip-path="url(#b)" rx="129.679" ry="59.419" style="fill:none;stroke:#000"/><ellipse cx="176.38" cy="118.212" clip-path="url(#c)" rx="129.679" ry="59.419" style="fill:none;stroke:#000" transform="matrix(1 0 0 -1 -1.32 326.95)"/><path d="m45.867 118.42 259.775 1.252M44.497 207.378l259.775 1.251M304.912 119.672c1.2.052 1.251-.053 1.251-.053" style="fill:none;stroke:#000"/><ellipse cx="175.338" cy="163.037" rx="110.707" ry="44.199" style="fill:none;stroke:#000"/><path d="M177.594 127.21s-4.22 2.107-4.413 28.229c-.192 26.121 4.605 45.502 4.605 45.502s3.454-9.27 3.454-37.076c0-27.807-3.646-36.654-3.646-36.654z" style="fill:#000;stroke:#000;stroke-width:1.36375"/><path d="M4.587 4.17h338.166v338.166H4.587z" style="fill:none;stroke:#000"/></svg>