<svg xmlns="http://www.w3.org/2000/svg" viewBox="0 0 348 348" fill="none"><path d="M5.079 5.776h336.913v337.67H5.08z" stroke-width="4" stroke="#000"/><path d="M282.734 40.554c0-8.376 6.966-15.165 15.56-15.165 4.126 0 8.084 1.597 11.001 4.441 2.918 2.844 4.558 6.702 4.558 10.724 0 8.376-6.966 15.165-15.56 15.165-8.593 0-15.559-6.79-15.559-15.165z" stroke-width="4" stroke="#000"/><path fill="#000" d="M70.567 104.318h206.455v206.455H70.567z"/><path d="M70.567 310.772s15.826-50.117 103.227-50.117c87.401 0 103.228 50.117 103.228 50.117H70.567" fill="#000" stroke="#fff" stroke-width="4"/><path d="M173.794 225.701l-20.985 9.374s5.74 20.36-4.443 31.358c-10.184 10.997-2.096 29.328 25.428 29.328s35.612-18.33 25.43-29.328c-10.184-10.998-4.444-31.358-4.444-31.358z" fill="#000" stroke="#fff" stroke-width="4"/><path d="M173.794 137.886c-23.858 0-31.538 12.22-35.612 17.516-4.073 5.295-8.96 51.73 2.037 76.984 10.998 25.254 33.575 29.327 33.575 29.327s22.578-4.073 33.576-29.327c10.997-25.254 6.11-71.689 2.036-76.984-4.073-5.295-11.753-17.516-35.612-17.516z" fill="#000" stroke="#fff" stroke-width="4"/><rect width="130.304" height="52.368" x="70.567" y="43.306" ry="0" fill="#000"/><g aria-label="A0" style="line-height:1.25" fill="#ff0"><path d="M131.877 81.85c.16.6.8 1.12 1.4 1.12h1.16c.96 0 1.6-.84 1.4-1.76l-5.52-24.08c-.12-.6-.8-1.12-1.4-1.12h-.88c-.6 0-1.24.52-1.4 1.12l-3.64 15.64-1.92 8.48c-.2.92.44 1.72 1.4 1.72h1.16c.6 0 1.24-.52 1.4-1.12l1.4-6.24h4.08zm-3.4-16.6c.76 3.4.68 4.48 1.12 6.4h-2.24zM138.597 75.05c0 5.04 1.96 7.92 5.92 7.92 3.92 0 5.88-3 5.88-7.92V63.89c0-4.92-1.92-7.88-5.88-7.88-4 0-5.92 2.84-5.92 7.88zm4-11.56c0-2.6.64-3.44 1.92-3.44 1.24 0 1.88.84 1.88 3.44v11.96c0 2.64-.64 3.48-1.88 3.48-1.28 0-1.92-.84-1.92-3.48z"/></g></svg>