<?xml version="1.0" encoding="UTF-8" standalone="no"?>
<svg
   xmlns:dc="http://purl.org/dc/elements/1.1/"
   xmlns:cc="http://creativecommons.org/ns#"
   xmlns:rdf="http://www.w3.org/1999/02/22-rdf-syntax-ns#"
   xmlns:svg="http://www.w3.org/2000/svg"
   xmlns="http://www.w3.org/2000/svg"
   xmlns:sodipodi="http://sodipodi.sourceforge.net/DTD/sodipodi-0.dtd"
   xmlns:inkscape="http://www.inkscape.org/namespaces/inkscape"
   viewBox="0 0 348 348"
   fill="none"
   version="1.1"
   id="svg6"
   sodipodi:docname="Factory Code.svg"
   inkscape:version="0.92.4 (5da689c313, 2019-01-14)">
  <metadata
     id="metadata12">
    <rdf:RDF>
      <cc:Work
         rdf:about="">
        <dc:format>image/svg+xml</dc:format>
        <dc:type
           rdf:resource="http://purl.org/dc/dcmitype/StillImage" />
      </cc:Work>
    </rdf:RDF>
  </metadata>
  <defs
     id="defs10" />
  <sodipodi:namedview
     pagecolor="#ffffff"
     bordercolor="#666666"
     borderopacity="1"
     objecttolerance="10"
     gridtolerance="10"
     guidetolerance="10"
     inkscape:pageopacity="0"
     inkscape:pageshadow="2"
     inkscape:window-width="1920"
     inkscape:window-height="1051"
     id="namedview8"
     showgrid="false"
     inkscape:zoom="2"
     inkscape:cx="164.22368"
     inkscape:cy="182.53526"
     inkscape:window-x="-9"
     inkscape:window-y="-9"
     inkscape:window-maximized="1"
     inkscape:current-layer="svg6" />
  <path
     d="M5.08 5.776h336.91v337.67H5.08z"
     stroke-width="2"
     stroke="#000"
     id="path2" />
  <path
     d="M282.734 40.554c0-8.376 6.966-15.165 15.56-15.165 4.126 0 8.084 1.594 11 4.44 2.92 2.842 4.56 6.7 4.56 10.722 0 8.376-6.967 15.165-15.56 15.165-8.594 0-15.56-6.79-15.56-15.166z"
     stroke-width="2"
     stroke="#000"
     id="path4" />
  <rect
     style="fill:none;fill-opacity:1;stroke:#000000;stroke-width:1.93804514;stroke-linecap:square;stroke-linejoin:miter;stroke-miterlimit:4;stroke-dasharray:none;stroke-opacity:1;paint-order:normal"
     id="rect822"
     width="210.43765"
     height="52.609413"
     x="68.316177"
     y="272.97919" />
  <g
     aria-label="SUBMIT"
     style="font-style:normal;font-variant:normal;font-weight:normal;font-stretch:normal;font-size:31.22689819px;line-height:1.25;font-family:Arial;-inkscape-font-specification:Arial;text-align:center;letter-spacing:0px;word-spacing:0px;writing-mode:lr-tb;text-anchor:middle;fill:#000000;fill-opacity:1;stroke:none;stroke-width:0.16264009"
     id="text826"
     transform="translate(3.6621094e-6,4.0000236)">
    <path
       d="m 115.51823,299.27872 2.79029,-0.24396 q 0.19822,1.67723 0.91485,2.7598 0.73188,1.06732 2.25663,1.73821 1.52475,0.65565 3.43069,0.65565 1.69247,0 2.98851,-0.50317 1.29604,-0.50317 1.92119,-1.37228 0.64039,-0.88435 0.64039,-1.92118 0,-1.05208 -0.6099,-1.8297 -0.6099,-0.79287 -2.01267,-1.32654 -0.8996,-0.35069 -3.9796,-1.08257 -3.07999,-0.74713 -4.31504,-1.40277 -1.60099,-0.83861 -2.39386,-2.07366 -0.77762,-1.2503 -0.77762,-2.7903 0,-1.69247 0.96059,-3.15623 0.96059,-1.47901 2.80554,-2.24138 1.84495,-0.76238 4.10158,-0.76238 2.48534,0 4.37604,0.80812 1.90593,0.79287 2.92752,2.34812 1.02158,1.55524 1.09782,3.52217 l -2.83604,0.21346 q -0.22871,-2.1194 -1.55525,-3.20197 -1.31128,-1.08258 -3.88811,-1.08258 -2.68356,0 -3.91861,0.99109 -1.2198,0.97584 -1.2198,2.36337 0,1.20455 0.86911,1.98217 0.85386,0.77763 4.45227,1.60099 3.61366,0.80812 4.95544,1.41802 1.95168,0.8996 2.88178,2.28713 0.9301,1.37227 0.9301,3.17148 0,1.78396 -1.02159,3.3697 -1.02158,1.57049 -2.94276,2.45485 -1.90594,0.8691 -4.2998,0.8691 -3.03426,0 -5.09267,-0.88435 -2.04317,-0.88436 -3.21722,-2.65307 -1.15881,-1.78396 -1.2198,-4.02534 z"
       style="stroke-width:0.16264009"
       id="path828"
       inkscape:connector-curvature="0" />
    <path
       d="m 152.05126,284.10745 h 2.95801 v 12.91464 q 0,3.3697 -0.76237,5.35187 -0.76238,1.98218 -2.7598,3.23248 -1.98218,1.23504 -5.21465,1.23504 -3.14099,0 -5.13841,-1.08257 -1.99742,-1.08257 -2.85128,-3.12574 -0.85386,-2.05841 -0.85386,-5.61108 v -12.91464 h 2.95801 v 12.89939 q 0,2.91228 0.53367,4.2998 0.54891,1.37227 1.86019,2.1194 1.32654,0.74713 3.23247,0.74713 3.26297,0 4.65049,-1.47901 1.38753,-1.47901 1.38753,-5.68732 z"
       style="stroke-width:0.16264009"
       id="path830"
       inkscape:connector-curvature="0" />
    <path
       d="m 159.82748,306.4603 v -22.35285 h 8.38613 q 2.56159,0 4.10158,0.68614 1.55525,0.67089 2.42436,2.08891 0.88435,1.40277 0.88435,2.94276 0,1.43327 -0.77762,2.69881 -0.77762,1.26555 -2.34812,2.04317 2.02792,0.59465 3.1105,2.02792 1.09782,1.43326 1.09782,3.38495 0,1.57049 -0.67089,2.92752 -0.65565,1.34178 -1.63149,2.07366 -0.97584,0.73188 -2.45485,1.11307 -1.46376,0.36594 -3.59841,0.36594 z m 2.95802,-12.96039 h 4.83346 q 1.96693,0 2.82079,-0.2592 1.12832,-0.33545 1.69247,-1.11307 0.57941,-0.77762 0.57941,-1.95168 0,-1.11307 -0.53366,-1.95168 -0.53367,-0.85386 -1.52475,-1.15881 -0.99109,-0.3202 -3.4002,-0.3202 h -4.46752 z m 0,10.32257 h 5.56534 q 1.43327,0 2.01267,-0.10673 1.02159,-0.18298 1.70772,-0.60991 0.68614,-0.42693 1.12832,-1.23504 0.44218,-0.82337 0.44218,-1.89069 0,-1.2503 -0.6404,-2.16515 -0.64039,-0.9301 -1.78396,-1.29604 -1.12831,-0.38119 -3.26296,-0.38119 h -5.16891 z"
       style="stroke-width:0.16264009"
       id="path832"
       inkscape:connector-curvature="0" />
    <path
       d="m 180.71658,306.4603 v -22.35285 h 4.45227 l 5.29088,15.82691 q 0.73188,2.21089 1.06733,3.30871 0.38119,-1.2198 1.18931,-3.58316 l 5.35187,-15.55246 h 3.9796 v 22.35285 h -2.85128 v -18.7087 l -6.49544,18.7087 h -2.66832 l -6.46494,-19.02889 v 19.02889 z"
       style="stroke-width:0.16264009"
       id="path834"
       inkscape:connector-curvature="0" />
    <path
       d="m 207.35398,306.4603 v -22.35285 h 2.95801 v 22.35285 z"
       style="stroke-width:0.16264009"
       id="path836"
       inkscape:connector-curvature="0" />
    <path
       d="m 221.19871,306.4603 v -19.71503 h -7.36454 v -2.63782 h 17.7176 v 2.63782 h -7.39504 v 19.71503 z"
       style="stroke-width:0.16264009"
       id="path838"
       inkscape:connector-curvature="0" />
  </g>
  <rect
     style="fill:#000000;fill-opacity:1;stroke:none;stroke-width:1.99888992;stroke-linecap:square;stroke-linejoin:miter;stroke-miterlimit:4;stroke-dasharray:none;stroke-opacity:1;paint-order:normal"
     id="rect841"
     width="49.231537"
     height="58.245766"
     x="36.042191"
     y="145.48811" />
  <rect
     style="fill:#000000;fill-opacity:1;stroke:none;stroke-width:1.99888992;stroke-linecap:square;stroke-linejoin:miter;stroke-miterlimit:4;stroke-dasharray:none;stroke-opacity:1;paint-order:normal"
     id="rect841-2"
     width="49.231537"
     height="58.245766"
     x="109.96022"
     y="145.48811" />
  <rect
     style="fill:#000000;fill-opacity:1;stroke:none;stroke-width:1.99888992;stroke-linecap:square;stroke-linejoin:miter;stroke-miterlimit:4;stroke-dasharray:none;stroke-opacity:1;paint-order:normal"
     id="rect841-4"
     width="49.231537"
     height="58.245766"
     x="187.87825"
     y="145.48811" />
  <rect
     style="fill:#000000;fill-opacity:1;stroke:none;stroke-width:1.99888992;stroke-linecap:square;stroke-linejoin:miter;stroke-miterlimit:4;stroke-dasharray:none;stroke-opacity:1;paint-order:normal"
     id="rect841-3"
     width="49.231537"
     height="58.245766"
     x="261.79626"
     y="145.48811" />
  <circle
     style="fill:none;fill-opacity:1;stroke:#000000;stroke-width:2.20000005;stroke-linecap:square;stroke-linejoin:miter;stroke-miterlimit:4;stroke-dasharray:none;stroke-opacity:1;paint-order:normal"
     id="path880"
     cx="97.616974"
     cy="174.61099"
     r="5.8983049" />
  <circle
     style="fill:none;fill-opacity:1;stroke:#000000;stroke-width:2.20000005;stroke-linecap:square;stroke-linejoin:miter;stroke-miterlimit:4;stroke-dasharray:none;stroke-opacity:1;paint-order:normal"
     id="path880-2"
     cx="173.535"
     cy="174.61099"
     r="5.8983049" />
  <circle
     style="fill:none;fill-opacity:1;stroke:#000000;stroke-width:2.20000005;stroke-linecap:square;stroke-linejoin:miter;stroke-miterlimit:4;stroke-dasharray:none;stroke-opacity:1;paint-order:normal"
     id="path880-5"
     cx="249.45303"
     cy="174.61099"
     r="5.8983049" />
  <text
     xml:space="preserve"
     style="font-style:normal;font-variant:normal;font-weight:normal;font-stretch:normal;font-size:46.58110046px;line-height:1.25;font-family:Arial;-inkscape-font-specification:Arial;text-align:center;letter-spacing:0px;word-spacing:0px;writing-mode:lr-tb;text-anchor:middle;fill:#000000;fill-opacity:1;stroke:none;stroke-width:0.2426099"
     x="112.66384"
     y="92.975006"
     id="text917"
     transform="rotate(-10.688833)"><tspan
       sodipodi:role="line"
       id="tspan915"
       x="112.66384"
       y="92.975006"
       style="stroke-width:0.2426099">&lt;CLUE&gt;</tspan></text>
  <path
     style="fill:none;fill-opacity:1;stroke:#000000;stroke-width:2.11790037;stroke-linecap:square;stroke-linejoin:miter;stroke-miterlimit:4;stroke-dasharray:none;stroke-opacity:1;paint-order:normal"
     inkscape:transform-center-y="-6.7018234"
     d="M 82.155944,137.48812 60.967357,126.4288 39.125158,137.48812 60.640551,97.277178 Z"
     id="path941"
     inkscape:connector-curvature="0"
     sodipodi:nodetypes="ccccc" />
  <path
     style="fill:none;fill-opacity:1;stroke:#000000;stroke-width:2.11790037;stroke-linecap:square;stroke-linejoin:miter;stroke-miterlimit:4;stroke-dasharray:none;stroke-opacity:1;paint-order:normal"
     inkscape:transform-center-y="-6.7018234"
     d="m 156.07398,137.48812 -21.18859,-11.05932 -21.8422,11.05932 21.51539,-40.210941 z"
     id="path941-3"
     inkscape:connector-curvature="0"
     sodipodi:nodetypes="ccccc" />
  <path
     style="fill:none;fill-opacity:1;stroke:#000000;stroke-width:2.11790037;stroke-linecap:square;stroke-linejoin:miter;stroke-miterlimit:4;stroke-dasharray:none;stroke-opacity:1;paint-order:normal"
     inkscape:transform-center-y="-6.7018234"
     d="m 233.99201,137.48812 -21.18859,-11.05932 -21.8422,11.05932 21.51539,-40.210941 z"
     id="path941-8"
     inkscape:connector-curvature="0"
     sodipodi:nodetypes="ccccc" />
  <path
     style="fill:none;fill-opacity:1;stroke:#000000;stroke-width:2.11790037;stroke-linecap:square;stroke-linejoin:miter;stroke-miterlimit:4;stroke-dasharray:none;stroke-opacity:1;paint-order:normal"
     inkscape:transform-center-y="-6.7018234"
     d="m 307.91002,137.48812 -21.18859,-11.05932 -21.8422,11.05932 21.51539,-40.210941 z"
     id="path941-7"
     inkscape:connector-curvature="0"
     sodipodi:nodetypes="ccccc" />
  <path
     style="fill:none;fill-opacity:1;stroke:#000000;stroke-width:2.11790037;stroke-linecap:square;stroke-linejoin:miter;stroke-miterlimit:4;stroke-dasharray:none;stroke-opacity:1;paint-order:normal"
     inkscape:transform-center-y="6.7002701"
     d="m 264.91441,211.16002 21.19019,11.05625 21.8406,-11.06248 -21.50957,40.21406 z"
     id="path941-5"
     inkscape:connector-curvature="0"
     sodipodi:nodetypes="ccccc"
     inkscape:transform-center-x="0.0019406324" />
  <path
     style="fill:none;fill-opacity:1;stroke:#000000;stroke-width:2.11790037;stroke-linecap:square;stroke-linejoin:miter;stroke-miterlimit:4;stroke-dasharray:none;stroke-opacity:1;paint-order:normal"
     inkscape:transform-center-y="6.7002603"
     d="m 190.9964,211.16003 21.19019,11.05625 21.84059,-11.06248 -21.50956,40.21405 z"
     id="path941-3-5"
     inkscape:connector-curvature="0"
     sodipodi:nodetypes="ccccc"
     inkscape:transform-center-x="0.0019434077" />
  <path
     style="fill:none;fill-opacity:1;stroke:#000000;stroke-width:2.11790037;stroke-linecap:square;stroke-linejoin:miter;stroke-miterlimit:4;stroke-dasharray:none;stroke-opacity:1;paint-order:normal"
     inkscape:transform-center-y="6.7002663"
     d="m 113.07836,211.16003 21.19019,11.05625 21.8406,-11.06248 -21.50957,40.21405 z"
     id="path941-8-4"
     inkscape:connector-curvature="0"
     sodipodi:nodetypes="ccccc"
     inkscape:transform-center-x="0.0019392245" />
  <path
     style="fill:none;fill-opacity:1;stroke:#000000;stroke-width:2.11790037;stroke-linecap:square;stroke-linejoin:miter;stroke-miterlimit:4;stroke-dasharray:none;stroke-opacity:1;paint-order:normal"
     inkscape:transform-center-y="6.7002666"
     d="m 39.16033,211.16003 21.190196,11.05625 21.8406,-11.06249 -21.50957,40.21406 z"
     id="path941-7-0"
     inkscape:connector-curvature="0"
     sodipodi:nodetypes="ccccc"
     inkscape:transform-center-x="0.001941" />
</svg>
