<svg xmlns="http://www.w3.org/2000/svg" viewBox="0 0 348 348" fill="none"><path d="M5.079 5.776h336.913v337.67H5.08z" stroke-width="2" stroke="#000"/><path d="M282.734 40.554c0-8.376 6.966-15.165 15.56-15.165 4.126 0 8.084 1.597 11.001 4.441 2.918 2.844 4.558 6.702 4.558 10.724 0 8.376-6.966 15.165-15.56 15.165-8.593 0-15.559-6.79-15.559-15.165z" stroke-width="2" stroke="#000"/><path fill="#fff" stroke="#000" stroke-width=".776" d="M108.408 174.96h59.654v59.654h-59.654zM177.639 174.96h59.654v59.654h-59.654zM38.725 174.96h59.654v59.654H38.725zM108.408 106.182h59.654v59.654h-59.654zM177.639 106.182h59.654v59.654h-59.654zM38.725 106.182h59.654v59.654H38.725zM108.408 243.739h59.654v59.654h-59.654zM177.639 243.739h59.654v59.654h-59.654zM38.725 243.739h59.654v59.654H38.725z"/><path fill="#000" stroke="#000" stroke-width="1.154" d="M29.412 32.163h215.837v49.321H29.412zM317.873 105.24v215.837h-49.321V105.24z"/></svg>