<svg viewBox="0 0 348 348" fill="none" xmlns="http://www.w3.org/2000/svg"><path d="M5.08 5.78h336.91v337.67H5.08z" stroke-width="2" stroke="#000"/><path d="M282.73 40.55c0-8.37 6.97-15.16 15.56-15.16 4.13 0 8.09 1.6 11 4.44a14.96 14.96 0 0 1 4.56 10.72c0 8.38-6.96 15.17-15.56 15.17-8.59 0-15.56-6.8-15.56-15.17z" stroke-width="2" stroke="#000"/><path stroke="#000" stroke-width="1.94" stroke-linecap="square" d="M68.32 272.98h210.44v52.61H68.32z"/><path d="m115.52 303.28 2.79-.25q.2 1.68.91 2.76.74 1.07 2.26 1.74 1.52.66 3.43.66 1.7 0 2.99-.5 1.3-.5 1.92-1.38.64-.88.64-1.92 0-1.05-.6-1.83-.62-.8-2.02-1.32-.9-.36-3.98-1.09-3.08-.74-4.32-1.4-1.6-.84-2.39-2.07-.78-1.25-.78-2.8 0-1.69.96-3.15.96-1.48 2.8-2.24 1.85-.76 4.11-.76 2.49 0 4.38.8 1.9.8 2.92 2.35 1.02 1.56 1.1 3.52l-2.83.22q-.23-2.12-1.56-3.2-1.31-1.09-3.89-1.09-2.68 0-3.92 1-1.22.97-1.22 2.36 0 1.2.87 1.98.86.78 4.45 1.6 3.62.8 4.96 1.42 1.95.9 2.88 2.29.93 1.37.93 3.17 0 1.78-1.02 3.37-1.02 1.57-2.94 2.45-1.9.87-4.3.87-3.04 0-5.1-.88-2.04-.89-3.21-2.66-1.16-1.78-1.22-4.02zm36.53-15.18h2.96v12.92q0 3.37-.76 5.35-.77 1.99-2.76 3.24-1.99 1.23-5.22 1.23-3.14 0-5.14-1.08-2-1.08-2.85-3.13-.85-2.06-.85-5.6V288.1h2.96V301q0 2.9.53 4.3.55 1.37 1.86 2.12 1.33.74 3.23.74 3.27 0 4.65-1.48 1.4-1.47 1.4-5.68zm7.78 22.36v-22.35h8.38q2.57 0 4.1.68 1.56.67 2.43 2.1.88 1.4.88 2.94 0 1.43-.77 2.7-.78 1.26-2.35 2.04 2.03.6 3.1 2.03 1.1 1.43 1.1 3.38 0 1.57-.66 2.93-.66 1.34-1.64 2.07-.97.73-2.45 1.11-1.46.37-3.6.37zm2.96-12.96h4.83q1.97 0 2.82-.26 1.13-.33 1.7-1.11.57-.78.57-1.95 0-1.12-.53-1.96-.54-.85-1.53-1.15-.99-.32-3.4-.32h-4.46zm0 10.32h5.56q1.43 0 2.01-.1 1.03-.19 1.71-.61.69-.43 1.13-1.24.44-.82.44-1.89 0-1.25-.64-2.17-.64-.93-1.78-1.3-1.13-.37-3.27-.37h-5.16zm17.93 2.64v-22.35h4.45l5.29 15.82q.73 2.22 1.07 3.31.38-1.22 1.19-3.58l5.35-15.55h3.98v22.35h-2.85v-18.7l-6.5 18.7h-2.67l-6.46-19.03v19.03zm26.63 0v-22.35h2.96v22.35zm13.85 0v-19.71h-7.37v-2.64h17.72v2.64h-7.4v19.71z" aria-label="SUBMIT" style="line-height:1.25" fill="#000" stroke-width=".16"/><path fill="#000" d="M36.04 145.49h49.23v58.25H36.04zm73.92 0h49.23v58.25h-49.23zm77.92 0h49.23v58.25h-49.23zm73.92 0h49.23v58.25H261.8z"/><circle cx="97.62" cy="174.61" r="5.9" stroke="#000" stroke-width="2.2" stroke-linecap="square"/><circle cx="173.53" cy="174.61" r="5.9" stroke="#000" stroke-width="2.2" stroke-linecap="square"/><circle cx="249.45" cy="174.61" r="5.9" stroke="#000" stroke-width="2.2" stroke-linecap="square"/><path d="m199.42 78.4-22.09 9.44v-4.07l17.5-7.26-17.5-7.18v-4.08l22.09 9.33zM147.4 92.98V59.64h24.11v3.93h-19.7v10.21h18.45v3.92h-18.45v11.35h20.47v3.93zm-11.85-33.34h4.41V78.9q0 5.03-1.13 7.98-1.14 2.96-4.12 4.83-2.96 1.84-7.78 1.84-4.68 0-7.66-1.62-2.98-1.61-4.26-4.66-1.27-3.07-1.27-8.37V59.64h4.41v19.24q0 4.34.8 6.41.82 2.05 2.77 3.16 1.98 1.12 4.83 1.12 4.86 0 6.93-2.2 2.07-2.21 2.07-8.5zM87.58 92.98V59.64H92v29.4h16.42v3.94zm-9.66-11.69 4.41 1.11q-1.39 5.44-5 8.3-3.6 2.85-8.8 2.85-5.4 0-8.78-2.18-3.37-2.21-5.14-6.37-1.76-4.17-1.76-8.94 0-5.21 1.98-9.08 2-3.89 5.67-5.89 3.68-2.02 8.1-2.02 5 0 8.4 2.55 3.42 2.54 4.76 7.16l-4.34 1.02q-1.16-3.64-3.37-5.3-2.2-1.66-5.55-1.66-3.84 0-6.43 1.85-2.57 1.84-3.62 4.95-1.05 3.1-1.05 6.4 0 4.25 1.23 7.43 1.25 3.16 3.87 4.73 2.61 1.57 5.66 1.57 3.7 0 6.28-2.13 2.57-2.14 3.48-6.35zM25.88 78.4v-3.82l22.08-9.33v4.08l-17.5 7.18 17.5 7.26v4.07z" transform="rotate(-10.69)" aria-label="&lt;CLUE&gt;" style="line-height:1.25" fill="#000" stroke-width=".24"/><path d="m82.16 137.49-21.2-11.06-21.83 11.06 21.51-40.21Zm73.91 0-21.18-11.06-21.85 11.06 21.52-40.21zm77.93 0-21.2-11.06-21.84 11.06 21.52-40.21zm73.91 0-21.19-11.06-21.84 11.06 21.51-40.21zm-43 73.67 21.2 11.06 21.84-11.07-21.51 40.22zm-73.91 0 21.19 11.06 21.84-11.07-21.51 40.22zm-77.92 0 21.19 11.06 21.84-11.07-21.51 40.22zm-73.92 0 21.2 11.06 21.83-11.07-21.5 40.22z" stroke="#000" stroke-width="2.12" stroke-linecap="square"/></svg>