<svg xmlns="http://www.w3.org/2000/svg" fill="none" viewBox="0 0 348 348"><path stroke="#000" stroke-width="2" d="M5 5.8h337v337.6H5z"/><path stroke="#000" stroke-width="2" d="M282.7 40.6c0-8.4 7-15.2 15.6-15.2 4.1 0 8 1.6 11 4.4a15 15 0 0 1 4.6 10.8c0 8.3-7 15.1-15.6 15.1s-15.6-6.8-15.6-15.1z"/><path stroke="#000" d="M25.5 108.5h99v214h-99zm200 0h99v214h-99z"/><circle cx="110.7" cy="214.7" r="6.7" stroke="#000"/><circle cx="310.4" cy="213.1" r="6.7" stroke="#000"/><path fill="#000" d="M77.7 24.6q0 .5-.2.7l-.5.3h-1.4l-.6.1-.9.2-.7.4q-.4.2-.4.4v.5l.1.5v.5q-.2.2-.2.5l.1.6v.9l-.2.6.1.8.2.8-.1.5v.5l.1.9q.2.4.2.9l-.2.9-.1.8.1 1.1.1 1.1v1l-.1 1 .1 1 .2 1-.2.6v1.8l-.1.6-.1.6v.4l.2.3.2.3v.7l-.1.4v.6l.1.6-.2 1.6q-.2.7-.2 1.5 0 .4.2.6l.4.3h.6l.5.1h.7l.7.1.5.4q.3.2.3.6 0 .7-.5 1-.4.2-1 .2-.9 0-1.7-.2l-1.5-.1h-.5l-.4.2q-.8 0-1.1-.5-.3-.4-.4-1v-2.2q0-.8-.2-1.4-.2-.7-.2-1.5v-1.3l.2-1.2.1-1.1v-.5q-.2-.2-.2-.5l.1-.6.2-.6-.1-.7-.2-.6-.1-.6v-.7l.1-1.4.2-1.5-.1-1.2v-2.7l-.1-.4v-.9q.2-.4.2-.9l-.1-1.3-.1-1.3.1-1.2q.2-.6.2-1.3v-2.1l.1-.8q.2-.4.5-.5.3-.3.9-.3l.4.1.5.1h2.4l.8-.2.8-.1q.6 0 1 .2.5.3.5 1zm35 8.5v.8l-.1.7-.2.3-.3.4-.4.3-.4.2q-.3 0-.4-.3l-.1-.5-.1-.5q-.1-.2-.4-.2h-.3l-.1-.2-.1-.5q0-.4-.2-.7l-.1-.6-.4-.8-.2-.8.1-.5.3-.5.2-.4.2-.4q0-.4-.3-.7-.2-.3-.6-.5l-.8-.3h-1.8l-1 .4-1 .3-1 .4.2.5v2l-.1 1.3v1.4l.2 1.4.2 1.4V38l-.2 1.6v.7l.2.4.3.5v2l.1.6-.1.2h-.4v.7l.2.6-.2.4v.5q0 .3.2.5l.3.4.2.8.2.8q.2.4.7.7.4.2 1.2.2h1.2l.6.2.6.3q.2.2.2.5l-.1.7-.1.6v.3h-.5l-.3.5-.8-.1h-.8l-2 .1-2 .3-2 .3q-.9.2-1.9.2h-.8l-1-.2q-.4 0-.7-.3-.3-.3-.3-.8v-.8l.3-.3.4-.2h.4v-.3l-.2-.1q.3-.3.7-.4.4-.2.9-.2h.9l.8-.3q.2 0 .3-.3l.4-.6.2-.7v-.5l-.1-1.9-.1-1.8v-.2l.2-.4.2-.5-.2-.5-.2-.4-.1-.2V41l.2-.4.1-1.7v-.7l-.2-.6q-.2-1.2-.2-2.5l.2-3q.2-1.4.2-2.9 0-.5-.2-.8-.2-.3-.7-.4l-1.4-.3q-.7-.2-1.5-.2l-1.1.2q-.6 0-1.1.4-.5.3-.8.7-.3.5-.3 1.1V32l-.2.4.1.5.2.6v.4l-.3.5-.2.5-.2.4q0 .3-.2.5t-.5.2q-.3 0-.5-.2-.3-.1-.3-.4l.1-.4q.2 0 .2-.3l-.1-.4-.2-.4-.2-.4v-1.1l.1-.5q0-.6-.2-1.1l-.2-1.2.1-1.2.4-1.4q.3-.7.8-1.1.4-.5 1.1-.5l1 .1 1 .1h1.1l1.2-.2q.4 0 .7.2h1.1l.4-.1h.5l.4.2h.4l.4-.1h.6l.5.1 2.4-.3h1l1.1-.1q1 0 1.9.2 1 0 1.9.3.6.2.9.7.3.5.3 1.2l.1 1.3v1.2l.2 1.5V33zM133 49.5q0 .5-.2.9l-.4.6-.6.6-.7.5-.5.4-.4.2-.5.1-.5.2-.7.4-.5.3-.5.2-.8.2-1.6.2-1.6.1h-.3l-.4-.2-.5-.1h-.6q-.4 0-.6-.2l-.4-.3-.4-.3-.5-.3q-1.2-.6-2-1.3-.8-.7-1.4-1.7-.6-.9-1-2l-.7-2.2-.2-1.6q0-1.1.5-2l-.2-1q0-.5.3-1.2l.5-1.5.7-1.3q.5-.6.8-.7l.4-.2V36q0-.2.3-.4l.4-.2.5-.2q.3 0 .5-.2l1.4-.5 1.3-.5 1.3-.2h2.4l.8.3.7.5.7.4.6.2.5.1.7.7.9.6.7.7q.3.4.3.9v.2-.1q.2 0 .2.2l.2.3v.3l.1.3.4.4.4.4-.1.5v.7q.2.3.2.7v1.5q0 .3-.3.4l-.5.3-.4.2q-.3.1-.3.3 0 .2-.2.2h-.2q-1 0-1.8-.2l-1.6-.2h-1.9l-1.8.2h-3.4l-1 .2-1 .2-.7.3v.3q0 .9.5 1.9.6 1 1.4 1.8 1 .8 2 1.3 1.1.5 2.2.5h1.3l1.2.3 1-.5.9-.7.8-.8.8-.8.3-.1.7-.1.7-.1h1.2l.2 1zm-3-8V41l-.2-.6-.1-1q0-.6-.2-1.1v.2l-.3.1-.4-.1-.4-.3-1.4-.6-1.1-.5q-.6-.3-1.3-.4l-1.6-.1h-.2v.3l-1 .2-.6.2-.5.4-.7.6-.4.3-.5.1-.4.2q-.2 0-.3.2l-.4 1q-.3.4-.3 1l.2.5.7.3.8.3 1 .2h.7l.7.1 1.4-.1q.7-.2 1.5-.2h1.5l1.5.1h1.4l.6-.3q.3-.2.3-.5zm30-5.8l-.1.7-.2.7v.3h-.2l-1 .2q-.3.2-.8.2t-.7-.4l-.7.2-.8.3-.7.3-.6.3-.3.6q-.5.2-1 .7-.4.4-.4 1v.2q-.3 0-.6.3l-.3.6-.4.5-.4.4q-.4.2-.5.6v2.1l.6 1.1q.4.6.9 1l1 1 1 1q.2 0 .3.3l.4.4.4.3.6.2h.3l1 .1 1 .1h.3l.4.1.3.1.3.3v.5l.2.2h.5l-.2.3v1.8l-.1.3-.2.1-.5-.1-.4-.1h-.2l-.3.3-.4.2h-1.7l-.8-.2-1-.1h-1.8l-.8.2h-.5l-.4-.4-.3-.2q-.2-.2-.5-.2t-.5-.2q-.2-.2-.2-.6l.2-.8.3-.8.4-.8q.2-.3.2-.7v-.5l-.2-.4-.3-.4-.4-.1h-.3l-.2-.4-.2-.4-.3-.4-.4-.1-.4.2-.4.6-.3.5q-.1.3-.3.3l-.6.6q-.3.3-.3.7l.2.5.3.5.4.6.2.6v.6l-.2.4-.1.2h-.3l-.3.1-.3.1-.1.3h-3.5l-2.6.2h-.8q-.6 0-1-.2-.6-.1-1-.4-.3-.2-.3-.7v-.4l.2-.5q.2-.4.6-.6.4-.3.9-.4h1l.9-.1h.7l.5-.3.7-1.1.7-1 .9-.9 1.2-.5.2-.5.2-.4.2-.4q0-.2.3-.4l.3-.4.1-.6-.1-.6-.2-.6-.4-.5-.6-.3v-.1q0-.3.2-.4l.1-.4-.7-.4-.7-.4-.4-.5-.4-.6-1-.9q-.5-.4-.7-1h-.2l-.7-.2-.7-.3-1-.2-1.4-.3-1-.5q-.5-.4-.5-1 0-.4.5-.6l1-.3h2.6l.2.1.2.2h.1l.1-.1.3-.2h1l.9-.1.8.1.8.2h.7l.7-.1q.5 0 1 .3.4.3.4.9 0 .4-.2.7l-.6.6-.5.6q-.2.3-.2.7 0 .3.3.8l.7.9 1 .7q.4.3.7.3.3 0 .7-.3l1-.8.7-1 .3-.7q0-.3-.2-.5l-.4-.5-.3-.5-.2-.6q0-.6.4-1t1-.6l1.2-.3 1-.1h.9l.6.3.6.2h1.3q.4 0 .7-.2l.6-.1.2-.1.5.1.6.3.5.5.5.3zm20.6 10.9l-.1 1.2-.3 1-.4 1.2-.3 1.1q-.1 1-.7 1.6-.5.7-1.2 1-.8.4-1.7.6l-1.8.3-2 .1q-.9 0-1.6.2l-.5-.5-.4-.5-.4-.3q-.2-.2-.6-.2l-.1-.3-.2-.7-.1-.7q0-.4-.2-.4-.4 0-.7-.2-.3-.2-.4-.5l-.2-.6v-.8l-.2-.5-.2-.4-.3-.5V44l.2-.6.2-.4.2-.3V42l-.1-.3.1-.4.2-.4.2-1.7v-.7q-.5-.4-1-.5l-1.1-.1q-.6 0-1-.2-.6 0-1-.4l-.5-.6q-.2-.3-.6-.4l-.5-.3-.1-.5q0-.5.2-.7l.7-.4.8-.2.7-.4q.3-.2.8-.2h.6l.8-.1q.4-.2.5-.5l.3-.6V29l.1-1.3q.2-.6.8-1.1l.2-.3.3-.2.3-.3.4-.1h.2l.2.2.5.6.1.5v.8l.2 1.2.1 1-.1.8q-.2.3-.2.7 0 .3.2.5l.3.4.3.5.1.5.9.3 1.5.1 1.7.1h1.4l.8.1.5.2.3.2.4.1q.3 0 .5.2.3.1.3.5t-.3.7q-.2.3-.6.4-.3.2-.7.2h-3.1l-1.7.1q-.7.2-1.3.6-.5.4-.9 1.1-.2.7-.2 1.7v2q.2.9.2 1.9v1.5q0 .6.3 1l.4 1.2q.1.8.4 1.4.2.6.6 1.1.5.4 1.4.4h.7l1-.3.9-.4q.3-.3.3-.7l-.2-.6-.2-.8.1-.5.4-.3.4-.3.4-.3.9-.7q.5-.3 1-.3l.8.1.7.4v.7zm21.7-8.1l-.2 1.4-.2 1.5.1 1.2.1 1v3.1q-.2.4-.2.9l.1 1.3q.2.6.2 1.3l-.1.9-.2.9v2.9q0 .4-.2.7l-.5.5q-.3.3-.8.3l-.5-.1-.5-.1H197l-.8.2-.8.1q-.6 0-1-.2-.5-.3-.5-1 0-.5.2-.7l.5-.3h1.4l.6-.1q.5 0 .9-.2l.8-.4q.3-.1.3-.4v-.5l-.1-.5v-.5q.2-.2.2-.5v-.6l-.2-.6.2-.4.1-.5-.1-.8-.2-.8.1-.5v-1.4q-.2-.4-.2-.9v-.8l.2-1v-1l-.2-1.1v-1l.1-1v-1l-.2-1V36q.2-.2.2-.5v-.7l-.1-.6.1-.6.1-.6q0-.4-.2-.7l-.2-.6.1-.4v-.9l-.1-.6.2-1.6q.2-.7.2-1.5 0-.5-.3-.7l-.7-.3h-1.8l-.8-.3q-.2-.3-.2-.8 0-.7.4-1l1-.2q.9 0 1.7.2l1.5.1h.5q.2-.2.5-.2.7 0 1 .4.4.5.4 1v2.3q0 .8.2 1.5.2.6.2 1.4v1.3l-.2 1.2v1.6l.1.5-.1.6-.1.6v.7l.2.6.1.6v.7zM147.5 71.8c-2.2 0-3.8.7-4.9 2a6.5 6.5 0 0 0-1.3 4.2v2.5H140V93h15V80.5h-1.3V78c0-1.5-.3-3-1.3-4.2-1-1.3-2.7-2-4.9-2zm0 2.5c1.6 0 2.4.4 3 1 .5.7.8 1.7.8 2.7v2.5h-7.6V78c0-1 .3-2 .9-2.6.5-.7 1.3-1.2 2.9-1.2zm60-2.5c-2.2 0-3.8.7-4.9 2a6.5 6.5 0 0 0-1.3 4.2v2.5H200V93h15V80.5h-1.3V78c0-1.5-.3-3-1.3-4.2-1-1.3-2.7-2-4.9-2zm0 2.5c1.6 0 2.4.4 3 1 .5.7.8 1.7.8 2.7v2.5h-7.6V78c0-1 .3-2 .9-2.6.5-.7 1.3-1.2 2.9-1.2zm-30 13.7c-2.2 0-3.8.8-4.9 2a6.5 6.5 0 0 0-1.3 4.3v2.5H170v12.5h15V96.8h-1.3v-2.5c0-1.5-.3-3-1.3-4.3-1-1.2-2.7-2-4.9-2zm0 2.5c1.6 0 2.4.5 3 1.1.5.7.8 1.6.8 2.7v2.5h-7.6v-2.5c0-1 .3-2 .9-2.7.5-.6 1.3-1.1 2.9-1.1z"/></svg>