<svg xmlns="http://www.w3.org/2000/svg" fill="none" stroke="#000" stroke-width="2" viewBox="0 0 347 347"><path d="M5 5h337v337H5z"/><circle cx="298" cy="40" r="16"/><path d="M267.477 81.97h64.565v240.399h-64.565z" style="fill:#fff;stroke:#000;stroke-width:1.93925"/><path d="M20.17 81.977h41.635v31.782H20.17zm49.426 0h41.635v31.782H69.596zm49.429 0h41.635v31.782h-41.635zm49.421 0h41.635v31.782h-41.635zm49.431 0h41.635v31.782h-41.635zM20.17 122.917h41.635v31.782H20.17zm49.426 0h41.635v31.782H69.596zm49.429 0h41.635v31.782h-41.635zm49.421 0h41.635v31.782h-41.635zm49.431 0h41.635v31.782h-41.635zM20.17 164.135h41.635v31.782H20.17zm49.426 0h41.635v31.782H69.596zm49.429 0h41.635v31.782h-41.635zm49.421 0h41.635v31.782h-41.635zm49.431 0h41.635v31.782h-41.635zM20.17 205.215h41.635v31.782H20.17zm49.426 0h41.635v31.782H69.596zm49.429 0h41.635v31.782h-41.635zm49.421 0h41.635v31.782h-41.635zm49.431 0h41.635v31.782h-41.635zM20.17 246.285h41.635v31.782H20.17zm49.426 0h41.635v31.782H69.596zm49.429 0h41.635v31.782h-41.635zm49.421 0h41.635v31.782h-41.635zm49.431 0h41.635v31.782h-41.635z" style="fill:gray;stroke:#000;stroke-width:1.95411"/><path d="M19.897 291.233h112.744v31.061H19.897z" style="fill:gray;stroke:#000;stroke-width:2.02444"/><path d="M146.963 291.233h112.744v31.061H146.963z" style="fill:red;stroke:#000;stroke-width:2.02444"/><path d="M82.724 26.38h108.107v38.945H82.724z" style="fill:#000;stroke:#000;stroke-width:1.91342"/></svg>