<svg xmlns="http://www.w3.org/2000/svg" fill="none" stroke-linecap="square" stroke-miterlimit="10" viewBox="0 0 348 348"><path d="M0 0h348v348H0z"/><path d="M5 5.8h337v337.6H5z"/><path stroke="#000" stroke-linecap="butt" stroke-linejoin="round" stroke-width="2" d="M5 5.8h337v337.6H5z"/><path fill="#fff" d="M282.7 40.6c0-8.4 7-15.2 15.6-15.2 4 0 8 1.6 11 4.4 3 3 4.6 6.7 4.6 10.8 0 8.3-7 15-15.7 15-8.6 0-15.6-6.7-15.6-15z"/><g stroke="#000"><path stroke-linecap="butt" stroke-linejoin="round" stroke-width="2" d="M282.7 40.6c0-8.4 7-15.2 15.6-15.2 4 0 8 1.6 11 4.4 3 3 4.6 6.7 4.6 10.8 0 8.3-7 15-15.7 15-8.6 0-15.6-6.7-15.6-15z"/><path d="M31.2 30h220.4v69.6H31.2z"/><path stroke-width=".9" d="M277.2 99.6h52.5V330h-52.5z"/><path d="M25 294h236.7v38.4H25z"/></g><path fill="#000" d="M123.8 316.3V313h12v10.6c-1.7 1.5-3.7 2.6-5.6 3.3-2 .7-4 1-6 1-3 0-5.5-.6-7.8-1.8-2.3-1.2-4-3-5.2-5.2-1.2-2.3-1.8-4.8-1.8-7.6s.6-5.4 1.8-7.8c1-2.4 2.8-4.2 5-5.4 2.2-1.2 4.7-1.8 7.6-1.8 2 0 4 .4 5.6 1 1.7.7 3 1.7 4 2.8 1 1.2 1.6 2.8 2 4.7l-3.3 1c-.4-1.6-1-2.7-1.5-3.6-.7-.8-1.6-1.5-2.8-2-1.2-.5-2.5-.7-4-.7-1.6 0-3 .2-4.4.8-1.3.5-2.3 1.2-3 2-.8 1-1.4 2-2 3-.6 1.7-1 3.6-1 5.6 0 2.7.5 4.8 1.4 6.6.8 1.7 2 3 3.8 3.8a12.75 12.75 0 0010.3.2c1.4-.5 2.6-1.2 3.4-2v-5.3zm16.5-2.7c0-4.7 1.3-8.5 4-11 2.4-2.8 5.7-4.2 9.7-4.2 2.7 0 5 .7 7.2 2 2 1.2 3.7 3 4.8 5.2 1.2 2.3 1.7 4.8 1.7 7.7 0 3-.6 5.5-1.7 7.8-1.2 2.4-3 4-5 5.3-2.2 1.2-4.5 1.7-7 1.7-2.7 0-5-.6-7.2-2-2-1.2-3.7-3-4.8-5.2-1-2.3-1.7-4.7-1.7-7.2zm4 0c0 3.5 1 6.2 2.7 8.2 2 2 4.2 3 7 3 3 0 5.2-1 7-3 2-2 2.8-5 2.8-8.5 0-2.4-.4-4.4-1.2-6-.8-2-2-3.2-3.4-4.2a10.36 10.36 0 00-12 1.4c-2 2-3 5-3 9.3zm29.7 6.9l-1-15.2V299h4.3v6.3l-1 15.2zm-1 7v-4h4v4z" font-family="sans-serif" font-size="40" letter-spacing="0" word-spacing="0"/><g stroke="#000"><path d="M30.5 109H68v37.4H30.5zm52.3 53h37.5v37.6H82.8zm1.6-52.3H122v37.5H84.3zM29.7 162h37.5v37.6H29.7zM189 109.7h37.6v37.5H189z"/><path stroke-width="1.6" d="M137 217h93.2v37H137z"/><path d="M137.5 162.8H175v37.5h-37.5zm-.8-53.1h37.5v37.5h-37.5zM82.8 216.8h37.5v37.5H82.8zm-52.3.7H68V255H30.5zM189 162h37.6v37.6H189z"/></g><g fill="#000"><path d="M108.4 142.8H105v-22.4c-1 .8-2 1.7-3.4 2.5l-3.7 1.7v-3.4c1.8-1 3.5-2 5-3.4s2.5-2.7 3-4h2.4zm56.6-3.3v3.3h-19c0-.8 0-1.6.4-2.4.5-1.3 1.3-2.6 2.3-3.8 1-1.3 2.6-2.7 4.6-4.3 3.2-2.6 5.3-4.6 6.4-6 1-1.6 1.6-3 1.6-4.3 0-1.4-.5-2.6-1.5-3.6s-2.3-1.4-4-1.4c-1.6 0-3 .5-4 1.5s-1.5 2.4-1.5 4.2l-3.6-.3c.2-2.7 1.2-4.8 2.8-6.2 1.6-1.4 3.8-2 6.5-2s5 .7 6.5 2.2c1.6 1.5 2.4 3.4 2.4 5.6 0 1.2-.3 2.3-.8 3.4-.5 1-1.2 2.3-2.3 3.5l-5.5 5c-2.2 1.7-3.5 3-4 3.6-.7.6-1.2 1.2-1.6 2zm33.4-4.5l3.6-.4c.4 2 1 3.4 2 4.3 1 .7 2.2 1.2 3.6 1.2 1.6 0 3-.6 4-1.7 1.3-1.2 2-2.6 2-4.3 0-1.6-.7-3-1.7-4-1.2-1-2.5-1.6-4-1.6-.8 0-1.6.2-2.6.4l.4-3h.5c1.5 0 3-.4 4-1.2a4 4 0 002-3.6c0-1.3-.6-2.4-1.4-3.2-1-.8-2-1.3-3.5-1.3-1.4 0-2.5.5-3.4 1.3-.8 1-1.4 2.2-1.7 4l-3.5-.7c.4-2.4 1.4-4.2 3-5.5 1.4-1.3 3.3-2 5.6-2 1.6 0 3 .4 4.3 1 1.3.7 2.3 1.6 3 2.8.7 1 1 2.4 1 3.7a6.11 6.11 0 01-4 5.8c1.8.5 3 1.3 4 2.5s1.5 2.8 1.5 4.6c0 2.6-1 4.8-2.7 6.5-2 1.7-4.2 2.6-7 2.6-2.5 0-4.6-.7-6.2-2-1.7-1.6-2.6-3.6-3-6zM51 195v-6.7H38.5V185l13-18.5h3V185h3.8v3.3h-3.8v6.8zm0-10v-13l-9 13zm41 2.2l3.8-.3c.2 1.7 1 3 2 4 1 .8 2 1.3 3.5 1.3 1.7 0 3-.7 4.3-2 1-1.2 1.7-3 1.7-5s-.5-3.6-1.7-4.8a6.28 6.28 0 00-7.4-.9c-1 .5-1.7 1.2-2.2 2l-3.3-.4 2.8-14.8h14.2v3.4H98.3l-1.6 7.7c1.8-1.2 3.6-1.8 5.4-1.8 2.6 0 4.8 1 6.5 2.6 1.7 1.7 2.6 4 2.6 6.7 0 2.6-.7 4.8-2.2 6.7a9.16 9.16 0 01-7.5 3.5c-2.6 0-4.8-.8-6.4-2.2a8.47 8.47 0 01-3-5.8zm73.2-13.2l-3.5.4c-.3-1.4-.8-2.4-1.3-3-1-1-2.2-1.5-3.5-1.5-1.3 0-2.2.2-3 .8-1.2.8-2 2-2.7 3.5-.6 1.6-1 3.8-1 6.7.8-1.3 2-2.3 3-3 1.3-.5 2.6-.8 4-.8 2.3 0 4.3.8 6 2.5 1.6 1.8 2.4 4 2.4 6.7 0 1.8-.4 3.5-1.2 5-.7 1.6-1.8 2.8-3.2 3.6-1.3.8-2.8 1.2-4.6 1.2-3 0-5.3-1-7-3.2-2-2.2-3-5.7-3-10.7 0-5.5 1-9.5 3.2-12 1.6-2.2 4-3.3 7-3.3 2.3 0 4.2.6 5.6 2 1.4 1 2.3 3 2.6 5zm-14.4 12.4c0 1.3.3 2.4.8 3.5.5 1 1.2 2 2.2 2.5 1 .5 2 .8 3 .8 1.4 0 2.6-.6 3.7-1.8 1-1.2 1.6-2.8 1.6-5 0-1.8-.4-3.4-1.5-4.5-1-1.2-2.4-1.7-4-1.7-1.5 0-3 .5-4 1.7-1 1-1.7 2.6-1.7 4.4zm47.7-16.4v-3.3H217v2.7c-1.7 2-3.5 4.5-5.3 7.8-1.8 3.2-3.2 6.5-4.2 10-.7 2.3-1 5-1.3 7.7h-3.7c0-2.3.5-5 1.4-8.2.7-3.2 2-6.3 3.5-9.2 1.6-3 3.3-5.5 5-7.5zM45.2 235c-1.4-.6-2.5-1.4-3.2-2.4-.7-1-1-2.2-1-3.6 0-2 .7-3.8 2.2-5.2 1.5-1.4 3.5-2 6-2s4.5.6 6 2c1.5 1.5 2.3 3.3 2.3 5.3 0 1.5-.4 2.6-1 3.6-.8 1-1.8 1.8-3.2 2.3 1.7.5 3 1.4 4 2.7 1 1.2 1.4 2.8 1.4 4.5 0 2.5-1 4.5-2.6 6.2-1.7 1.7-4 2.5-6.8 2.5s-5-1-6.8-2.6a8.6 8.6 0 01-2.6-6.3c0-1.7.5-3.3 1.4-4.5 1-1.3 2.3-2.2 4-2.6zm-.7-6a4.45 4.45 0 004.7 4.5c1.4 0 2.5-.4 3.4-1.2.8-1 1.3-2 1.3-3.2a4 4 0 00-1.5-3c-1-1-2-1.4-3.3-1.4-1.3 0-2.5.4-3.3 1.2-1 1-1.5 2-1.5 3zm-1 13.2c0 1 0 2 .6 3 .6.8 1.3 1.5 2.2 2 1 .6 2 .8 3 .8 1.7 0 3-.5 4.2-1.6 1-1 1.7-2.5 1.7-4 0-1.8-.5-3.2-1.6-4.3-1.2-1-2.6-1.6-4.3-1.6-1.5 0-3 .6-4 1.6s-1.6 2.5-1.6 4.2zm49.2.8l3.4-.3c.3 1.6 1 2.7 1.7 3.5.8.7 1.8 1 3 1s2-.2 3-.7c.8-.5 1.4-1.2 2-2 .5-.8 1-2 1.3-3.3.3-1.5.5-3 .5-4.3v-.8c-.7 1-1.7 2-3 2.7-1 .6-2.5 1-4 1-2.2 0-4.3-1-6-2.7-1.5-1.7-2.4-4-2.4-6.8 0-3 1-5.2 2.7-7 1.7-1.7 4-2.6 6.5-2.6 1.8 0 3.5.4 5 1.4 1.6 1 2.8 2.4 3.6 4.3.8 1.8 1.2 4.5 1.2 8 0 3.7-.4 6.6-1.2 8.8-.8 2-2 3.8-3.6 5a9.9 9.9 0 01-5.5 1.6c-2.2 0-4-.5-5.5-1.7-1.4-1.3-2.2-3-2.5-5.3zm14.4-12.6c0-2-.5-3.6-1.5-4.8-1-1.2-2.4-1.8-4-1.8-1.5 0-2.8.6-4 2-1.2 1.2-1.7 2.8-1.7 5 0 1.7.5 3.2 1.6 4.3 1 1.2 2.5 1.8 4 1.8 1.7 0 3-.6 4-1.7 1-1 1.7-2.6 1.7-4.6zM40 127.7c0-3.4.2-6 1-8.2.6-2 1.7-3.6 3-4.8 1.4-1 3-1.6 5.2-1.6 1.6 0 3 .4 4 1 1.2.6 2.2 1.5 3 2.7.7 1 1.3 2.6 1.7 4.2.3 1.6.6 4 .6 6.7 0 3.4-.4 6-1 8-.8 2.2-1.8 3.8-3.2 5-1.3 1-3 1.6-5.2 1.6-2.7 0-5-1-6.5-3-2-2.3-2.8-6.2-2.8-11.6zm3.5 0c0 4.7.5 7.8 1.6 9.4 1.2 1.6 2.6 2.4 4.2 2.4s3-.8 4-2.3c1.2-1.5 1.7-4.6 1.7-9.3 0-4.7-.6-7.8-1.7-9.4a4.8 4.8 0 00-8-.3c-1.2 1.8-1.8 5-1.8 9.7z" font-family="sans-serif" font-size="40" letter-spacing="0" word-spacing="0"/><path d="M144 238.2h2c0 .6.2 1.3.5 1.7.3.4.8.8 1.5 1 .7.4 1.5.6 2.4.6.7 0 1.4 0 2-.4.6-.2 1-.5 1.3-1 .3-.3.5-.7.5-1.2s-.2-1-.4-1.3l-1.4-1-2.7-.6c-1.4-.2-2.4-.6-3-1-.7-.2-1.3-.7-1.6-1.3-.3-.6-.5-1.2-.5-2 0-.7.3-1.4.7-2 .4-.7 1-1.2 2-1.6.8-.2 1.7-.4 2.7-.4 1 0 2 .2 3 .6.8.3 1.4 1 2 1.6.4.7.6 1.5.7 2.4h-2c0-1-.4-1.6-1-2-.6-.6-1.5-.8-2.7-.8-1.2 0-2 .2-2.7.7-.5.5-.8 1-.8 1.7 0 .5.2 1 .6 1.3.5.4 1.5.7 3 1l3.5 1c1 .5 1.6 1 2 1.7.4.6.6 1.3.6 2 0 1 0 1.7-.6 2.4-.4.8-1 1.4-2 1.8-1 .4-1.8.6-3 .6-1.3 0-2.5-.2-3.4-.6-1-.4-1.7-1-2.2-1.8-.5-.8-.8-1.8-.8-2.8zm25-10.2h2v8.7a9 9 0 01-.6 3.6c-.3 1-1 1.7-2 2.2-.8.6-2 1-3.4 1-1.5 0-2.6-.4-3.5-.8-1-.5-1.6-1.3-2-2.2-.4-1-.6-2.2-.6-3.8V228h2v8.7c0 1.3 0 2.3.3 3a3.8 3.8 0 003.5 2c1.5 0 2.5-.4 3.2-1 .6-.7 1-2 1-4zm5.2 15v-15h5.8c1 0 2 0 2.8.3.7.3 1.2.8 1.6 1.5.4.6.6 1.3.6 2 0 .6-.2 1.2-.5 1.8-.4.6-1 1-1.6 1.4.8.3 1.5.7 2 1.4.5.6.8 1.4.8 2.3 0 .7-.2 1.4-.5 2-.3.6-.7 1-1 1.4-.6.5-1 .7-1.8 1H180zm2-8.7h3.4c.8 0 1.5 0 2-.2.4 0 .8-.3 1-.7.3-.3.4-.8.4-1.3s0-1-.3-1.3c-.3-.4-.6-.7-1-.8-.5-.3-1.3-.3-2.4-.3h-3zm0 7h5.2c.5 0 1-.3 1.2-.5.3-.2.6-.4.8-.8a2.7 2.7 0 00-.2-2.8 4 4 0 00-1.2-1h-5.8zm12.3 1.7v-15h3l3.7 10.7.7 2.2c0-.6.3-1.4.7-2.5l3.7-10.6h2.7v15h-2v-12.6l-4.3 12.7H195l-4.6-13v13zm18.2 0v-15h2v15zm9.5 0v-13.3h-5V228h12v1.7h-5V243z" font-family="sans-serif" font-size="21.3" letter-spacing="0" word-spacing="0"/><g style="font-variant-caps:normal;font-variant-east-asian:normal;font-variant-ligatures:normal;font-variant-numeric:normal" aria-label="[ディスプレイ]"><path d="M35.67 52h6.62v2.24h-3.75V78.3h3.75v2.23h-6.62zM61.02 63.82h-12.5v-2.75h25.63v2.75H63.9v1.62q0 7.88-5.62 13l-2.5-1.87q5.25-4.13 5.25-11.13zm-8-7.63v-2.75H68.4v2.75zm17-5.12q1.63 1.62 3.5 4.37l-1.74 1.25q-1.75-2.5-3.5-4.5zm3-1.63q1.63 1.75 3.5 4.25l-1.74 1.25q-2-2.75-3.5-4.25zM95.4 78.82h-2.5V67.19q-2.75 2.13-8.25 4.88l-1.75-2.13q11.88-5.75 16.25-12.62l2.13 1.62q.75.63-.5.88-2.13 2.62-5.38 5.37zM127.4 64.94q5.38 4.13 10.63 9.5l-2.5 2.13q-5.25-5.5-10.13-9.25-4.88 5.25-11.13 9.37l-2.37-2.12q13.25-8.63 17-17.25l-13.63.87-.37-3 14.5-.62 1.5-.38 2 2q.88.88-.5 1.13-2.38 4.12-5 7.62zM169.15 54.82q1 0 1.63-.63t.62-1.62-.63-1.63-1.62-.62-1.63.62-.62 1.63.63 1.62 1.62.63zm0 1.25q-1.5 0-2.5-1t-1-2.5 1-2.5 2.5-1 2.5 1 1 2.5-1 2.5-2.5 1zm-22.38 1.62v-2.75h18.5l3.25 2.38q-.62 15.12-17.12 19.75l-2.25-2.75q15.63-3.63 16.38-16.63zM184.4 73.44q11.5-2.12 16.75-11.62l2.13 2.12q-6 10.5-20 12.88l-2-1.5.25-.75V53.82h2.75q1.12.12.12.87zM208.52 67.2q13.13-5.5 19.88-15.5l2.37 2q1 .74-.88 1.12-2.37 3.12-6.12 6.37v17h-2.88V63.57q-4.37 3.37-10.24 6.12zM247.13 52v28.53h-6.63V78.3h3.74V54.24h-3.74V52z"/></g></g></svg>