<svg xmlns="http://www.w3.org/2000/svg" viewBox="0 0 348 348" fill="none"><path d="M5.079 5.776h336.913v337.67H5.08z" stroke-width="2" stroke="#000"/><path d="M282.734 40.554c0-8.376 6.966-15.165 15.56-15.165 4.126 0 8.084 1.597 11.001 4.441 2.918 2.844 4.558 6.702 4.558 10.724 0 8.376-6.966 15.165-15.56 15.165-8.593 0-15.559-6.79-15.559-15.165z" stroke-width="2" stroke="#000"/><rect width="197.726" height="48.794" x="34.696" y="27.222" ry="0" stroke="#000" stroke-width="1.867"/><rect width="194.644" height="184.322" x="36.864" y="116.492" ry="0" stroke="#000" stroke-width="2"/><path d="M70.153 76.678v39.814m122.169-39.814v38.339M326.28 40.914a28.017 28.017 0 0 1-27.947 28.017 28.017 28.017 0 0 1-28.086-27.88 28.017 28.017 0 0 1 27.81-28.153 28.017 28.017 0 0 1 28.223 27.74m-28.266 95.023V70.78" stroke="#000" stroke-width="2"/><path d="M230.034 182.847h26.542" stroke="#000" stroke-width="1.697"/><g transform="rotate(-150 294.395 184.007)" stroke="#000"><rect ry="0" y="136.492" x="266.898" height="91.424" width="60.458" stroke-width="2"/><path d="m282.719 146.141 6.348 7.587h15.415l6.832-7.245-6.761-6.761h-15.707zm-2.968 4.135-7.586 6.348v15.415l7.244 6.832 6.761-6.761v-15.707zm36 0-7.586 6.348v15.415l7.244 6.832 6.761-6.761v-15.707zm-33.032 31.865 6.348 7.587h15.415l6.832-7.245-6.761-6.761h-15.707zm-2.968 4.135-7.586 6.348v15.415l7.244 6.832 6.761-6.761v-15.707zm36 0-7.586 6.348v15.415l7.244 6.832 6.761-6.761v-15.707zm-33.032 31.865 6.348 7.587h15.415l6.832-7.245-6.761-6.761h-15.707z" stroke-width="1.535"/></g><path d="M93.015 162.203a10.438 10.438 0 0 1-10.413 10.439 10.438 10.438 0 0 1-10.464-10.387 10.438 10.438 0 0 1 10.361-10.49 10.438 10.438 0 0 1 10.515 10.336m-28.314.102a10.438 10.438 0 0 1-10.413 10.439 10.438 10.438 0 0 1-10.464-10.387 10.438 10.438 0 0 1 10.36-10.49A10.438 10.438 0 0 1 64.7 162.101m28.315-28.213a10.438 10.438 0 0 1-10.413 10.438 10.438 10.438 0 0 1-10.464-10.387A10.438 10.438 0 0 1 82.5 123.45a10.438 10.438 0 0 1 10.515 10.335m28.315 28.418a10.438 10.438 0 0 1-10.413 10.439 10.438 10.438 0 0 1-10.464-10.387 10.438 10.438 0 0 1 10.362-10.49 10.438 10.438 0 0 1 10.514 10.336m-28.314 28.418a10.438 10.438 0 0 1-10.413 10.438 10.438 10.438 0 0 1-10.464-10.387A10.438 10.438 0 0 1 82.5 180.08a10.438 10.438 0 0 1 10.515 10.336" fill="#fff" stroke="#000" stroke-width="2.832"/><rect width="48.716" height="26.597" x="47.684" y="38.312" ry="0" fill="#fff" stroke="#000" stroke-width="1.945"/><rect ry="0" y="38.312" x="107.684" height="26.597" width="48.716" fill="#fff" stroke="#000" stroke-width="1.945"/><rect width="48.716" height="26.597" x="167.684" y="38.312" ry="0" fill="#fff" stroke="#000" stroke-width="1.945"/><path d="M30.095 130.455a8.714 8.714 0 0 1-8.692 8.714 8.714 8.714 0 0 1-8.736-8.67 8.714 8.714 0 0 1 8.65-8.758 8.714 8.714 0 0 1 8.778 8.628m0 157.866a8.714 8.714 0 0 1-8.692 8.714 8.714 8.714 0 0 1-8.736-8.671 8.714 8.714 0 0 1 8.65-8.757 8.714 8.714 0 0 1 8.778 8.628m225.611-157.694a8.714 8.714 0 0 1-8.693 8.714 8.714 8.714 0 0 1-8.735-8.67 8.714 8.714 0 0 1 8.65-8.758 8.714 8.714 0 0 1 8.777 8.628m.001 157.866a8.714 8.714 0 0 1-8.693 8.714 8.714 8.714 0 0 1-8.735-8.671 8.714 8.714 0 0 1 8.65-8.757 8.714 8.714 0 0 1 8.777 8.628" fill="#fff" stroke="#000" stroke-width="2.364"/><path d="M224.55 190.22a10.438 10.438 0 0 1-10.412 10.439 10.438 10.438 0 0 1-10.464-10.387 10.438 10.438 0 0 1 10.361-10.49 10.438 10.438 0 0 1 10.515 10.336M119.855 259a10.438 10.438 0 0 1-10.412 10.438 10.438 10.438 0 0 1-10.464-10.387 10.438 10.438 0 0 1 10.361-10.489 10.438 10.438 0 0 1 10.515 10.335" fill="#000" stroke="#000" stroke-width="2.832"/><path d="M199.483 284.068a10.438 10.438 0 0 1-10.413 10.438 10.438 10.438 0 0 1-10.464-10.387 10.438 10.438 0 0 1 10.361-10.49 10.438 10.438 0 0 1 10.515 10.336" fill="#fff" stroke="#000" stroke-width="2.832"/></svg>