<svg version="1.1" id="Layer_1" xmlns="http://www.w3.org/2000/svg" x="0" y="0" viewBox="0 0 404.5 348" xml:space="preserve"><style>.st1{fill:#334155}.st2{fill:none;stroke:#000}</style><path d="M5.1 5.8H342v337.7H5.1V5.8z" fill="#0f172a" stroke="#000" stroke-width="2"/><path class="st1" d="M91.8 58.7a5 5 0 0 1-5 5h-33a5 5 0 0 1-5-5v-33a5 5 0 0 1 5-5h33.1a5 5 0 0 1 5 5v33z"/><path class="st2" d="M91.8 58.7a5 5 0 0 1-5 5h-33a5 5 0 0 1-5-5v-33a5 5 0 0 1 5-5h33.1a5 5 0 0 1 5 5v33z"/><path class="st1" d="M143 58.7a5 5 0 0 1-5 5h-33a5 5 0 0 1-5-5v-33a5 5 0 0 1 5-5h33a5 5 0 0 1 5 5v33z"/><path class="st2" d="M143 58.7a5 5 0 0 1-5 5h-33a5 5 0 0 1-5-5v-33a5 5 0 0 1 5-5h33a5 5 0 0 1 5 5v33z"/><path class="st1" d="M194.9 58.7a5 5 0 0 1-5 5h-33.1a5 5 0 0 1-5-5v-33a5 5 0 0 1 5-5h33.1a5 5 0 0 1 5 5v33z"/><path class="st2" d="M194.9 58.7a5 5 0 0 1-5 5h-33.1a5 5 0 0 1-5-5v-33a5 5 0 0 1 5-5h33.1a5 5 0 0 1 5 5v33z"/><path class="st1" d="M247.5 58.7a5 5 0 0 1-5 5h-33.1a5 5 0 0 1-5-5v-33a5 5 0 0 1 5-5h33.1a5 5 0 0 1 5 5v33z"/><path class="st2" d="M247.5 58.7a5 5 0 0 1-5 5h-33.1a5 5 0 0 1-5-5v-33a5 5 0 0 1 5-5h33.1a5 5 0 0 1 5 5v33z"/><path class="st1" d="M299.5 58.7a5 5 0 0 1-5 5h-33.1a5 5 0 0 1-5-5v-33a5 5 0 0 1 5-5h33.1a5 5 0 0 1 5 5v33z"/><path class="st2" d="M299.5 58.7a5 5 0 0 1-5 5h-33.1a5 5 0 0 1-5-5v-33a5 5 0 0 1 5-5h33.1a5 5 0 0 1 5 5v33z"/><path class="st1" d="M91 108.1a5 5 0 0 1-5 5H52.9a5 5 0 0 1-5-5V75a5 5 0 0 1 5-5H86a5 5 0 0 1 5 5v33.1z"/><path class="st2" d="M91 108.1a5 5 0 0 1-5 5H52.9a5 5 0 0 1-5-5V75a5 5 0 0 1 5-5H86a5 5 0 0 1 5 5v33.1z"/><path class="st1" d="M142.2 108.1a5 5 0 0 1-5 5h-33.1a5 5 0 0 1-5-5V75a5 5 0 0 1 5-5h33.1a5 5 0 0 1 5 5v33.1z"/><path class="st2" d="M142.2 108.1a5 5 0 0 1-5 5h-33.1a5 5 0 0 1-5-5V75a5 5 0 0 1 5-5h33.1a5 5 0 0 1 5 5v33.1z"/><path class="st1" d="M194 108.1a5 5 0 0 1-5 5h-33a5 5 0 0 1-5-5V75a5 5 0 0 1 5-5h33a5 5 0 0 1 5 5v33.1z"/><path class="st2" d="M194 108.1a5 5 0 0 1-5 5h-33a5 5 0 0 1-5-5V75a5 5 0 0 1 5-5h33a5 5 0 0 1 5 5v33.1z"/><path class="st1" d="M246.6 108.1a5 5 0 0 1-5 5h-33.1a5 5 0 0 1-5-5V75a5 5 0 0 1 5-5h33.1a5 5 0 0 1 5 5v33.1z"/><path class="st2" d="M246.6 108.1a5 5 0 0 1-5 5h-33.1a5 5 0 0 1-5-5V75a5 5 0 0 1 5-5h33.1a5 5 0 0 1 5 5v33.1z"/><path class="st1" d="M298.7 108.1a5 5 0 0 1-5 5h-33.1a5 5 0 0 1-5-5V75a5 5 0 0 1 5-5h33.1a5 5 0 0 1 5 5v33.1z"/><path class="st2" d="M298.7 108.1a5 5 0 0 1-5 5h-33.1a5 5 0 0 1-5-5V75a5 5 0 0 1 5-5h33.1a5 5 0 0 1 5 5v33.1z"/><path class="st1" d="M91.4 157.4a5 5 0 0 1-5 5H53.3a5 5 0 0 1-5-5v-33.1a5 5 0 0 1 5-5h33.1a5 5 0 0 1 5 5v33.1z"/><path class="st2" d="M91.4 157.4a5 5 0 0 1-5 5H53.3a5 5 0 0 1-5-5v-33.1a5 5 0 0 1 5-5h33.1a5 5 0 0 1 5 5v33.1z"/><path class="st1" d="M142.6 157.4a5 5 0 0 1-5 5h-33.1a5 5 0 0 1-5-5v-33.1a5 5 0 0 1 5-5h33.1a5 5 0 0 1 5 5v33.1z"/><path class="st2" d="M142.6 157.4a5 5 0 0 1-5 5h-33.1a5 5 0 0 1-5-5v-33.1a5 5 0 0 1 5-5h33.1a5 5 0 0 1 5 5v33.1z"/><path class="st1" d="M194.5 157.4a5 5 0 0 1-5 5h-33.1a5 5 0 0 1-5-5v-33.1a5 5 0 0 1 5-5h33.1a5 5 0 0 1 5 5v33.1z"/><path class="st2" d="M194.5 157.4a5 5 0 0 1-5 5h-33.1a5 5 0 0 1-5-5v-33.1a5 5 0 0 1 5-5h33.1a5 5 0 0 1 5 5v33.1z"/><path class="st1" d="M247 157.4a5 5 0 0 1-5 5h-33a5 5 0 0 1-5-5v-33.1a5 5 0 0 1 5-5h33a5 5 0 0 1 5 5v33.1z"/><path class="st2" d="M247 157.4a5 5 0 0 1-5 5h-33a5 5 0 0 1-5-5v-33.1a5 5 0 0 1 5-5h33a5 5 0 0 1 5 5v33.1z"/><path class="st1" d="M299.1 157.4a5 5 0 0 1-5 5H261a5 5 0 0 1-5-5v-33.1a5 5 0 0 1 5-5h33.1a5 5 0 0 1 5 5v33.1z"/><path class="st2" d="M299.1 157.4a5 5 0 0 1-5 5H261a5 5 0 0 1-5-5v-33.1a5 5 0 0 1 5-5h33.1a5 5 0 0 1 5 5v33.1z"/><path class="st1" d="M90.6 206.7a5 5 0 0 1-5 5H52.5a5 5 0 0 1-5-5v-33.1a5 5 0 0 1 5-5h33.1a5 5 0 0 1 5 5v33.1z"/><path class="st2" d="M90.6 206.7a5 5 0 0 1-5 5H52.5a5 5 0 0 1-5-5v-33.1a5 5 0 0 1 5-5h33.1a5 5 0 0 1 5 5v33.1z"/><path class="st1" d="M141.8 206.7a5 5 0 0 1-5 5h-33.1a5 5 0 0 1-5-5v-33.1a5 5 0 0 1 5-5h33.1a5 5 0 0 1 5 5v33.1z"/><path class="st2" d="M141.8 206.7a5 5 0 0 1-5 5h-33.1a5 5 0 0 1-5-5v-33.1a5 5 0 0 1 5-5h33.1a5 5 0 0 1 5 5v33.1z"/><path class="st1" d="M193.6 206.7a5 5 0 0 1-5 5h-33.1a5 5 0 0 1-5-5v-33.1a5 5 0 0 1 5-5h33.1a5 5 0 0 1 5 5v33.1z"/><path class="st2" d="M193.6 206.7a5 5 0 0 1-5 5h-33.1a5 5 0 0 1-5-5v-33.1a5 5 0 0 1 5-5h33.1a5 5 0 0 1 5 5v33.1z"/><path class="st1" d="M246.2 206.7a5 5 0 0 1-5 5h-33.1a5 5 0 0 1-5-5v-33.1a5 5 0 0 1 5-5h33.1a5 5 0 0 1 5 5v33.1z"/><path class="st2" d="M246.2 206.7a5 5 0 0 1-5 5h-33.1a5 5 0 0 1-5-5v-33.1a5 5 0 0 1 5-5h33.1a5 5 0 0 1 5 5v33.1z"/><g><path class="st1" d="M298.3 206.7a5 5 0 0 1-5 5h-33.1a5 5 0 0 1-5-5v-33.1a5 5 0 0 1 5-5h33.1a5 5 0 0 1 5 5v33.1z"/><path class="st2" d="M298.3 206.7a5 5 0 0 1-5 5h-33.1a5 5 0 0 1-5-5v-33.1a5 5 0 0 1 5-5h33.1a5 5 0 0 1 5 5v33.1z"/></g><g><path class="st1" d="M90.6 256a5 5 0 0 1-5 5H52.5a5 5 0 0 1-5-5v-33.1a5 5 0 0 1 5-5h33.1a5 5 0 0 1 5 5V256z"/><path class="st2" d="M90.6 256a5 5 0 0 1-5 5H52.5a5 5 0 0 1-5-5v-33.1a5 5 0 0 1 5-5h33.1a5 5 0 0 1 5 5V256z"/></g><g><path class="st1" d="M141.8 256a5 5 0 0 1-5 5h-33.1a5 5 0 0 1-5-5v-33.1a5 5 0 0 1 5-5h33.1a5 5 0 0 1 5 5V256z"/><path class="st2" d="M141.8 256a5 5 0 0 1-5 5h-33.1a5 5 0 0 1-5-5v-33.1a5 5 0 0 1 5-5h33.1a5 5 0 0 1 5 5V256z"/></g><g><path class="st1" d="M193.6 256a5 5 0 0 1-5 5h-33.1a5 5 0 0 1-5-5v-33.1a5 5 0 0 1 5-5h33.1a5 5 0 0 1 5 5V256z"/><path class="st2" d="M193.6 256a5 5 0 0 1-5 5h-33.1a5 5 0 0 1-5-5v-33.1a5 5 0 0 1 5-5h33.1a5 5 0 0 1 5 5V256z"/></g><g><path class="st1" d="M246.2 256a5 5 0 0 1-5 5h-33.1a5 5 0 0 1-5-5v-33.1a5 5 0 0 1 5-5h33.1a5 5 0 0 1 5 5V256z"/><path class="st2" d="M246.2 256a5 5 0 0 1-5 5h-33.1a5 5 0 0 1-5-5v-33.1a5 5 0 0 1 5-5h33.1a5 5 0 0 1 5 5V256z"/></g><g><path class="st1" d="M298.3 256a5 5 0 0 1-5 5h-33.1a5 5 0 0 1-5-5v-33.1a5 5 0 0 1 5-5h33.1a5 5 0 0 1 5 5V256z"/><path class="st2" d="M298.3 256a5 5 0 0 1-5 5h-33.1a5 5 0 0 1-5-5v-33.1a5 5 0 0 1 5-5h33.1a5 5 0 0 1 5 5V256z"/></g><g><path class="st1" d="M32.2 301.5a5 5 0 0 1-5 5H10.1a5 5 0 0 1-5-5V290a5 5 0 0 1 5-5h17.2a5 5 0 0 1 5 5v11.5z"/><path class="st2" d="M32.2 301.5a5 5 0 0 1-5 5H10.1a5 5 0 0 1-5-5V290a5 5 0 0 1 5-5h17.2a5 5 0 0 1 5 5v11.5z"/></g><g><path class="st1" d="M32.2 323a5 5 0 0 1-5 5H10.1a5 5 0 0 1-5-5v-11.5a5 5 0 0 1 5-5h17.2a5 5 0 0 1 5 5V323z"/><path class="st2" d="M32.2 323a5 5 0 0 1-5 5H10.1a5 5 0 0 1-5-5v-11.5a5 5 0 0 1 5-5h17.2a5 5 0 0 1 5 5V323z"/></g><g><path class="st1" d="M58.2 285a5 5 0 0 1 5 5v33a5 5 0 0 1-5 5h-21a5 5 0 0 1-5-5v-33a5 5 0 0 1 5-5h21z"/><path class="st2" d="M58.2 285a5 5 0 0 1 5 5v33a5 5 0 0 1-5 5h-21a5 5 0 0 1-5-5v-33a5 5 0 0 1 5-5h21z"/></g><g><path class="st1" d="M89.2 285a5 5 0 0 1 5 5v33a5 5 0 0 1-5 5h-21a5 5 0 0 1-5-5v-33a5 5 0 0 1 5-5h21z"/><path class="st2" d="M89.2 285a5 5 0 0 1 5 5v33a5 5 0 0 1-5 5h-21a5 5 0 0 1-5-5v-33a5 5 0 0 1 5-5h21z"/></g><g><path class="st1" d="M120.2 285a5 5 0 0 1 5 5v33a5 5 0 0 1-5 5h-21a5 5 0 0 1-5-5v-33a5 5 0 0 1 5-5h21z"/><path class="st2" d="M120.2 285a5 5 0 0 1 5 5v33a5 5 0 0 1-5 5h-21a5 5 0 0 1-5-5v-33a5 5 0 0 1 5-5h21z"/></g><g><path class="st1" d="M151.1 285a5 5 0 0 1 5 5v33a5 5 0 0 1-5 5h-21a5 5 0 0 1-5-5v-33a5 5 0 0 1 5-5h21z"/><path class="st2" d="M151.1 285a5 5 0 0 1 5 5v33a5 5 0 0 1-5 5h-21a5 5 0 0 1-5-5v-33a5 5 0 0 1 5-5h21z"/></g><g><path class="st1" d="M182.1 285a5 5 0 0 1 5 5v33a5 5 0 0 1-5 5h-21a5 5 0 0 1-5-5v-33a5 5 0 0 1 5-5h21z"/><path class="st2" d="M182.1 285a5 5 0 0 1 5 5v33a5 5 0 0 1-5 5h-21a5 5 0 0 1-5-5v-33a5 5 0 0 1 5-5h21z"/></g><g><path class="st1" d="M213.1 285a5 5 0 0 1 5 5v33a5 5 0 0 1-5 5h-21a5 5 0 0 1-5-5v-33a5 5 0 0 1 5-5h21z"/><path class="st2" d="M213.1 285a5 5 0 0 1 5 5v33a5 5 0 0 1-5 5h-21a5 5 0 0 1-5-5v-33a5 5 0 0 1 5-5h21z"/></g><g><path class="st1" d="M244.1 285a5 5 0 0 1 5 5v33a5 5 0 0 1-5 5h-21a5 5 0 0 1-5-5v-33a5 5 0 0 1 5-5h21z"/><path class="st2" d="M244.1 285a5 5 0 0 1 5 5v33a5 5 0 0 1-5 5h-21a5 5 0 0 1-5-5v-33a5 5 0 0 1 5-5h21z"/></g><g><path class="st1" d="M275 285a5 5 0 0 1 5 5v33a5 5 0 0 1-5 5h-21a5 5 0 0 1-5-5v-33a5 5 0 0 1 5-5h21z"/><path class="st2" d="M275 285a5 5 0 0 1 5 5v33a5 5 0 0 1-5 5h-21a5 5 0 0 1-5-5v-33a5 5 0 0 1 5-5h21z"/></g><g><path class="st1" d="M306 285a5 5 0 0 1 5 5v33a5 5 0 0 1-5 5h-21a5 5 0 0 1-5-5v-33a5 5 0 0 1 5-5h21z"/><path class="st2" d="M306 285a5 5 0 0 1 5 5v33a5 5 0 0 1-5 5h-21a5 5 0 0 1-5-5v-33a5 5 0 0 1 5-5h21z"/></g><g><path class="st1" d="M337 285a5 5 0 0 1 5 5v33a5 5 0 0 1-5 5h-21a5 5 0 0 1-5-5v-33a5 5 0 0 1 5-5h21z"/><path class="st2" d="M337 285a5 5 0 0 1 5 5v33a5 5 0 0 1-5 5h-21a5 5 0 0 1-5-5v-33a5 5 0 0 1 5-5h21z"/></g><g><path d="M401.9 248.5a5 5 0 0 1-5 5h-83.4a5 5 0 0 1-5-5V47.2a5 5 0 0 1 5-5h83.4a5 5 0 0 1 5 5v201.3z" fill="#0f172a"/><path d="M401.9 248.5a5 5 0 0 1-5 5h-83.4a5 5 0 0 1-5-5V47.2a5 5 0 0 1 5-5h83.4a5 5 0 0 1 5 5v201.3z" fill="none" stroke="#334155" stroke-width="5"/></g></svg>