<svg xmlns="http://www.w3.org/2000/svg" fill="none" stroke-linecap="square" stroke-miterlimit="10" viewBox="0 0 348 348"><path stroke="#000" stroke-linecap="butt" stroke-linejoin="round" stroke-width="2" d="M5 5.8h337v337.6H5z"/><path stroke="#000" stroke-linecap="butt" stroke-linejoin="round" stroke-width="2" d="M282.7 40.6c0-8.4 7-15.2 15.6-15.2 4.1 0 8 1.6 11 4.4a15 15 0 0 1 4.6 10.8c0 8.3-7 15.1-15.6 15.1s-15.6-6.8-15.6-15.1z"/><path stroke="#000" stroke-width="2.1" d="M38.3 59h197.6v98.8H38.3zM31 269.8h61.9v59H31zm61.9 0h162.2v59H92.9zm162.2 0H317v59h-61.9z"/><g fill="#000"><path d="M100.9 285.7h6.4v2.1h-3.6v23h3.6v2.2h-6.4zm15.4 12.6v8.2h4.8q2.5 0 3.6-1 1.2-1 1.2-3.1t-1.2-3.1q-1.1-1-3.6-1zm0-9.2v6.7h4.5q2.2 0 3.3-.8 1-.8 1-2.5t-1-2.6q-1.1-.8-3.3-.8zm-3-2.5h7.7q3.4 0 5.3 1.4 1.9 1.5 1.9 4.1 0 2-1 3.3-1 1.2-2.8 1.5 2.2.5 3.5 2 1.2 1.5 1.2 3.8 0 3-2 4.6-2 1.7-5.8 1.7h-8zm20.7 0h3v13.6q0 3.6 1.3 5.2 1.3 1.5 4.2 1.5 3 0 4.2-1.5 1.3-1.6 1.3-5.2v-13.6h3v14q0 4.3-2.1 6.6-2.2 2.2-6.4 2.2t-6.4-2.2q-2.2-2.3-2.2-6.6zm19.6 0h19v2.6h-8V309h-3v-19.8h-8z"/><path d="M171.9 286.6h18.9v2.6h-8V309h-3v-19.8h-8zm30.9 2.1q-3.3 0-5.3 2.4-1.9 2.5-1.9 6.7t2 6.7q1.9 2.4 5.2 2.4 3.3 0 5.2-2.4 2-2.5 2-6.7t-2-6.7q-2-2.4-5.2-2.4zm0-2.5q4.7 0 7.5 3.2 2.8 3.1 2.8 8.4 0 5.3-2.8 8.5-2.8 3.1-7.5 3.1t-7.6-3.1q-2.8-3.2-2.8-8.5t2.8-8.4q2.9-3.2 7.6-3.2zm15 .4h4.1l10 18.7v-18.7h2.9V309h-4.1l-10-18.7V309h-2.9zm29.3-.9V313h-6.4v-2h3.6v-23h-3.6v-2.2z"/></g><path fill="#000" d="M49.2 91.7H57v2.6h-4.4v28.1H57v2.6h-7.8zM68 96v21h4.4q5.6 0 8.3-2.5 2.6-2.5 2.6-8t-2.6-8q-2.7-2.6-8.3-2.6zm-3.7-3.1h7.5q8 0 11.7 3.3 3.7 3.3 3.7 10.3 0 7-3.8 10.3-3.7 3.3-11.6 3.3h-7.5zm28.7 0h3.7V120H93zm27.3.9v3.6q-2-1-4-1.5-1.8-.5-3.5-.5-3 0-4.7 1.2-1.6 1.1-1.6 3.3 0 1.8 1.1 2.7 1 1 4.1 1.5l2.2.4q4.2.8 6.1 2.8 2 2 2 5.3 0 4-2.7 6-2.6 2-7.7 2-2 0-4.2-.4-2.1-.4-4.5-1.3v-3.8q2.3 1.3 4.4 1.9 2.2.6 4.3.6 3.1 0 4.8-1.2 1.7-1.2 1.7-3.5 0-2-1.2-3.2-1.2-1.1-4-1.7l-2.3-.4q-4.1-.8-6-2.6-1.8-1.7-1.8-4.8 0-3.6 2.6-5.7 2.5-2.1 7-2.1 1.9 0 3.9.3l4 1zm11.1 2.2v10h4.6q2.6 0 4-1.3t1.4-3.8q0-2.4-1.4-3.8-1.4-1.3-4-1.3zm-3.7-3.1h8.3q4.6 0 7 2 2.3 2.1 2.3 6.1 0 4-2.4 6.1-2.3 2-6.9 2h-4.6v11h-3.7zm22.6 0h3.6V117h13.3v3.1h-17zm30.7 3.6l-5 13.6h10zm-2-3.6h4.1l10.4 27.2h-3.9l-2.4-7h-12.3l-2.5 7h-3.9zm11.8 0h4l7.5 11.2 7.5-11.2h4L204 107v13h-3.7v-13zm34.2-1.2V125h-7.7v-2.6h4.4v-28h-4.4v-2.7zM46.7 299.3l30.5-10v20zM270.8 309.3v-20l30.5 10z"/></svg>