<svg xmlns="http://www.w3.org/2000/svg" fill="none" stroke-linecap="square" stroke-miterlimit="10" viewBox="0 0 348 348"><path stroke="#000" stroke-linecap="butt" stroke-linejoin="round" stroke-width="2" d="M5.08 5.78h336.91v337.67H5.08z"/><path fill="#000" d="M133.84 15.67h74.33v56.88h-74.33z"/><path fill="#fff" d="M154.54 44.09c0-2.7.28-4.89.83-6.53a8.21 8.21 0 0 1 2.48-3.83 6.39 6.39 0 0 1 4.16-1.34c1.23 0 2.3.25 3.23.75.93.49 1.7 1.2 2.3 2.14.6.92 1.08 2.06 1.42 3.4.35 1.34.52 3.14.52 5.41 0 2.69-.28 4.86-.83 6.51a8.16 8.16 0 0 1-2.49 3.83 6.35 6.35 0 0 1-4.15 1.35c-2.21 0-3.95-.8-5.2-2.38-1.52-1.9-2.27-5-2.27-9.31zm2.89 0c0 3.76.44 6.26 1.31 7.51.89 1.25 1.98 1.87 3.27 1.87s2.37-.63 3.25-1.88c.88-1.25 1.33-3.75 1.33-7.5 0-3.77-.45-6.28-1.33-7.52-.88-1.24-1.97-1.86-3.28-1.86a3.6 3.6 0 0 0-3.1 1.65c-.97 1.4-1.45 3.97-1.45 7.73zm14.9 0c0-2.7.28-4.89.83-6.53a8.21 8.21 0 0 1 2.49-3.83 6.39 6.39 0 0 1 4.15-1.34c1.23 0 2.31.25 3.24.75.93.49 1.7 1.2 2.3 2.14.6.92 1.07 2.06 1.42 3.4.34 1.34.51 3.14.51 5.41 0 2.69-.27 4.86-.83 6.51a8.16 8.16 0 0 1-2.48 3.83 6.35 6.35 0 0 1-4.16 1.35 6.3 6.3 0 0 1-5.2-2.38c-1.5-1.9-2.26-5-2.26-9.31zm2.9 0c0 3.76.43 6.26 1.3 7.51.9 1.25 1.98 1.87 3.27 1.87 1.3 0 2.38-.63 3.25-1.88.89-1.25 1.33-3.75 1.33-7.5 0-3.77-.44-6.28-1.33-7.52-.87-1.24-1.97-1.86-3.28-1.86a3.6 3.6 0 0 0-3.09 1.65c-.97 1.4-1.45 3.97-1.45 7.73z"/><path stroke="#000" stroke-linecap="butt" stroke-linejoin="round" stroke-width="2" d="M15.26 17.7h109.9v54.84H15.25z"/><path d="m15.26 72.65 39.69-54.08"/><path stroke="#000" stroke-linecap="butt" stroke-linejoin="round" stroke-width="2" d="m15.26 72.65 39.69-54.08"/><path d="m37.57 72.65 39.68-54.08"/><path stroke="#000" stroke-linecap="butt" stroke-linejoin="round" stroke-width="2" d="m37.57 72.65 39.68-54.08"/><path d="m59.87 72.65 39.69-54.08"/><path stroke="#000" stroke-linecap="butt" stroke-linejoin="round" stroke-width="2" d="m59.87 72.65 39.69-54.08"/><path d="m82.17 72.65 39.69-54.08"/><path stroke="#000" stroke-linecap="butt" stroke-linejoin="round" stroke-width="2" d="m82.17 72.65 39.69-54.08m95-1.94h109.9v54.84h-109.9z"/><path d="m216.86 71.58 39.69-54.08"/><path stroke="#000" stroke-linecap="butt" stroke-linejoin="round" stroke-width="2" d="m216.86 71.58 39.69-54.08"/><path d="m239.17 71.58 39.68-54.08"/><path stroke="#000" stroke-linecap="butt" stroke-linejoin="round" stroke-width="2" d="m239.17 71.58 39.68-54.08"/><path d="m261.47 71.58 39.69-54.08"/><path stroke="#000" stroke-linecap="butt" stroke-linejoin="round" stroke-width="2" d="m261.47 71.58 39.69-54.08"/><path d="m283.78 71.58 39.68-54.08"/><path stroke="#000" stroke-linecap="butt" stroke-linejoin="round" stroke-width="2" d="m283.78 71.58 39.68-54.08"/><circle cx="175" cy="171" r="75" fill="#dcdcdc" fill-rule="evenodd" stroke="#000" stroke-linecap="round" stroke-width="7"/><path fill="#000" d="M166.53 237.8c-2.7-.46-5.42-1.98-6.76-3.79-1.42-1.9-1.37-4.93.22-13.72l1.24-6.88-2.53-3.08c-2.98-3.62-7.05-11.63-8.36-16.43-1.51-5.52-2.29-12.95-2.2-20.96.13-10.48-.91-17.56-5.06-34.37-2.69-10.86-3.31-14.9-3.1-20.12.12-3.09.36-4.26 1.04-5.15 3.37-4.44 8.49-4.06 12.43.92 2.07 2.63 3.2 5.8 4.82 13.59 1.2 5.77 3.7 16.5 5.03 21.63.41 1.57.9 2.69 1.1 2.5.2-.2.42-9.23.5-20.06.15-19.24.18-19.75 1.18-22.26a11.9 11.9 0 0 1 2.82-4.18c1.63-1.48 2.04-1.62 4.48-1.62 3.67 0 5.13 1.23 6.36 5.35 1.1 3.73 1.81 12.99 1.82 23.73 0 4.67.17 8.04.42 8.04.54 0 .68-.52 1.83-6.8 3.68-19.97 4.15-21.7 6.62-24.16 3.8-3.8 8.88-3.2 11.23 1.3 1.41 2.7 1.26 11.18-.38 21.05-1.76 10.63-3.41 22.16-3.42 23.9 0 .82.25 1.56.56 1.64.31.1 1.44.4 2.52.7 7.36 2 10.88 13.36 8.25 26.58-3.42 17.15-5.08 21.32-11.04 27.65l-2.24 2.37.3 4.65c.15 2.55.41 6.51.57 8.8l.3 4.18-1.56 1.55c-1.75 1.75-4.7 2.8-9.66 3.46-3.78.5-16.32.5-19.33-.01zm16.35-2.27c8.82-.9 12.27-2.7 11.55-6.01-.18-.8-.55-4.7-.84-8.69l-.52-7.24 3.07-2.87c3.95-3.69 6.75-9.07 8.06-15.46 1-4.9 1.15-10.56.31-12.22-1.36-2.7-5.43-.95-8.25 3.56-.86 1.38-1.57 2.79-1.57 3.12 0 .95-1.35 3.38-2.63 4.75-1.34 1.43-3.43 1.65-5.51.57-1.53-.8-1.9-1.73-2-5.13-.05-1.4-.3-2.58-.6-2.68-1-.34-5.01 2.11-5.97 3.65-.75 1.22-.96 2.32-1 5.34-.06 5.29-.62 7.02-.93 2.87-.24-3.1-1.08-5.33-1.92-5.05-.24.08-1.2 1.66-2.15 3.5-1.53 3-3.97 6.32-4.65 6.32-.14 0 .19-.97.72-2.15s1.13-2.56 1.33-3.06c4.13-10.4 7.08-13.2 15.51-14.72 6.41-1.15 8.3-2.03 10-4.63 1.13-1.74.64-3.3-1.22-3.92-1.65-.54-15.41-.75-18.22-.28-2.23.38-3.79.93-7.09 2.53-5.14 2.5-15.54 9.83-16 11.3-.56 1.74 1.9 9.06 4.82 14.36 1.76 3.2 5.93 8.26 6.8 8.26.24 0 1.1.51 1.9 1.13 1.85 1.4 7.16 3.84 8.54 3.9.77.05.83.11.23.27-1.09.28-5.02-1.03-7.96-2.66-1.34-.73-2.52-1.24-2.64-1.12-.13.12-.9 4.06-1.73 8.75-1.43 8.16-1.47 8.59-.75 10.08.43.9 1.43 1.9 2.37 2.38 2.95 1.5 11.18 2.04 18.94 1.25zm7.6-41.98c1.1-.88 2.58-4.34 3.06-7.23.17-1.06.5-2.04.73-2.18.79-.48.41-1.1-.67-1.1-2 0-7.03 1.8-7.5 2.7-.6 1.12-.6 6.61 0 7.74.6 1.11 3 1.15 4.37.07zm-32.92-10.89c2.5-1.9 4.54-3.25 4.95-3.25.2 0 .63-.3.93-.66.3-.37.68-.63.85-.59.16.04 1.14-.37 2.19-.91a36.81 36.81 0 0 1 13.18-3.97c4.47-.33 7.21-.92 8.03-1.74.3-.31 1.07-1.57 1.7-2.8a28.39 28.39 0 0 1 2.55-4c1.59-2 1.59-2.6 0-3.01l-1.1-.29 1.13-.54c1.75-.84 2.26-2.43 3.21-9.95.49-3.83.97-7.1 1.07-7.26.3-.48 2.07-11.55 2.76-17.24 1.4-11.54.4-16.3-3.43-16.3-2.84 0-4.85 2.78-6.06 8.38a2003.1 2003.1 0 0 0-7.28 40.17l-.28 2.15h-5.48l1.07-.87 1.07-.86-.13-14.41c-.08-7.93-.3-18.72-.5-24-.35-8.73-.47-9.72-1.39-11.2-2-3.23-4.29-3.84-6.31-1.67-2.45 2.62-2.47 2.83-2.74 29.69l-.25 24.89-1.36.4c-.75.23-2.58.9-4.07 1.49-3.6 1.43-3.79 1.37-1.87-.61 1.47-1.5 1.64-1.94 1.64-4.09 0-1.42-1.02-6.4-2.5-12.23-3-11.8-6.16-26.35-5.83-26.89.13-.2.05-.38-.18-.38-.23 0-.76-.9-1.18-1.99-1.8-4.71-5.62-6.61-8.05-4-2.43 2.6-2.02 7.9 1.89 24.1 4.13 17.16 5.1 23.83 5.02 35.06-.05 8.91.13 10.02 1.7 10.61 1.61.6 3.15.23 5.05-1.23zm42.22-9.65c.43-.23.8-.72.8-1.08 0-.37.17-.66.39-.66.21 0 .55-.87.74-1.93 1.15-6.34-.31-9.24-4.2-8.28-1.57.4-4.95 3.96-6.58 6.94-1.1 2.02-1.17 2.43-.68 3.52a4 4 0 0 0 1.83 1.76c1.37.58 6.4.4 7.7-.27z"/><circle cx="175" cy="292.25" r="27.89" fill="#dcdcdc" fill-rule="evenodd" stroke="#000" stroke-linecap="round" stroke-width="3.72"/><circle cx="110" cy="292.25" r="27.89" fill="#dcdcdc" fill-rule="evenodd" stroke="#000" stroke-linecap="round" stroke-width="3.72"/><circle cx="45" cy="292.25" r="27.89" fill="#dcdcdc" fill-rule="evenodd" stroke="#000" stroke-linecap="round" stroke-width="3.72"/><path fill="#000" d="m53.61 278.17-16.32 6.78-.9-8 8.85-3.9h8.37zm-10.45 7.2 10.45-4.26v30.34H43.16Z" aria-label="1"/><circle cx="240" cy="292.25" r="27.89" fill="#dcdcdc" fill-rule="evenodd" stroke="#000" stroke-linecap="round" stroke-width="3.72"/><circle cx="305" cy="292.25" r="27.89" fill="#dcdcdc" fill-rule="evenodd" stroke="#000" stroke-linecap="round" stroke-width="3.72"/><path fill="#000" d="M112.75 300.41h-11.1l4.75-6.18q1.7-2.24 2.99-4.7 1.28-2.45 1.28-4.53 0-1.92-1.5-2.67-1.49-.8-3.62-.8-1.44 0-3.04.27t-2.99.75l-1.6-7.84q2.88-.91 5.7-1.4 2.83-.47 5.34-.47 3.63 0 6.4 1.07 2.83 1.06 4.43 3.4 1.6 2.3 1.6 6.09 0 3.25-1.39 6.35-1.39 3.04-3.57 5.86zm-13.02 2.72h22.35v8.54H98.24v-6.72z" aria-label="2"/><path fill="#000" d="M174.12 281.48v-8.9q3.57 0 6.45 1 2.88.97 4.59 3.1 1.76 2.08 1.81 5.55 0 3.68-1.38 6.02-1.39 2.35-4.22 3.74v.1q2.72 1.02 4.38 3.15 1.65 2.13 1.65 5.81 0 3.63-1.92 6.03-1.92 2.4-5.07 3.57-3.14 1.18-6.88 1.28v-8.7q1.39-.31 2.19-1.11.8-.85.8-2.3 0-1.86-1.33-2.77-1.28-.9-4.32-.9h-3.9v-7.8h4.06q2.98 0 4.21-.95 1.28-.96 1.28-2.99 0-1.22-.7-1.92-.63-.7-1.7-1.01zm-2.67-8.8v8.43h-.16q-1.49 0-3.09.26-1.6.22-3.1.59l-1.49-7.63q1.92-.64 3.9-1.01 2.02-.43 3.94-.64zm-.53 30.83v8.37q-4.16-.32-8.32-1.81l.96-8.16q3.79 1.49 7.36 1.6z" aria-label="3"/><path fill="#000" d="M225.04 304.52v-7.68l12.59-23.95 9.38.59-12.16 22.93h5.23v-4.1l10.03-18.67v22.77h4.85l-1.55 8.1zm15.04 2.61h10.03v4.48h-10.03z" aria-label="4"/><path fill="#000" d="M294.28 272.79h9.5v14.72h2.5q4.8 0 7.9 2.34 3.09 2.3 3.4 7.58h-10.6q-.43-1.44-1.77-2.08-1.33-.64-3.2-.8-1.81-.22-3.84-.11l-3.89.21zm12.21 9.6v-9.6H317l-1.87 9.6zm.48 17.8h10.62q-.38 5.5-4 8.54-3.63 2.99-11.2 2.99-2.78 0-5.39-.53-2.61-.6-4.59-1.28l1.07-8.16q2.08.8 4.27 1.22 2.18.43 4.1.38 1.92-.11 3.26-.86 1.38-.74 1.86-2.3z" aria-label="5"/></svg>