<svg viewBox="0 0 348 348" fill="none" xmlns="http://www.w3.org/2000/svg"><path d="M341.992 343.446H5.079V5.776h336.912Z" stroke-width="2" stroke="#000"/><path d="M64.337 308.668c0 8.376-6.966 15.165-15.56 15.165-4.126 0-8.084-1.597-11.001-4.441-2.918-2.844-4.558-6.702-4.558-10.724 0-8.376 6.966-15.165 15.56-15.165 8.593 0 15.559 6.79 15.559 15.165z" stroke-width="2" stroke="#000"/><rect style="fill:#fff;stroke:#000" width="148.326" height="29.665" x="96.173" y="243.541" rx="0" ry="0"/><circle style="fill:#fff;stroke:#000" cx="148.804" cy="98.565" r="19.617"/><circle style="fill:#fff;stroke:#000" cx="201.436" cy="98.565" r="19.617"/><circle style="fill:#fff;stroke:#000" cx="147.608" cy="152.393" r="19.617"/><circle style="fill:#fff;stroke:#000" cx="200.24" cy="152.393" r="19.617"/><circle style="fill:#fff;stroke:#000" cx="147.13" cy="203.589" r="19.617"/><circle style="fill:#fff;stroke:#000" cx="199.761" cy="203.589" r="19.617"/><path style="fill:#fff;stroke:#000" d="M202.331 65.067h-56.336l14.084-24.394 14.084-24.394 14.084 24.394z" transform="matrix(1.63838 0 0 .52773 -112.14 4.545)"/><path style="fill:#fff;stroke:#000" transform="matrix(-1.63838 0 0 -.52773 453.289 344.055)" d="M202.331 65.067h-56.336l14.084-24.394 14.084-24.394 14.084 24.394z"/><path style="fill:#fff;stroke:#000" transform="matrix(0 1.63838 -.52773 0 342.742 -112.598)" d="M202.331 65.067h-56.336l14.084-24.394 14.084-24.394 14.084 24.394z"/><path style="fill:#fff;stroke:#000" transform="matrix(0 -1.63838 .52773 0 3.232 452.83)" d="M202.331 65.067h-56.336l14.084-24.394 14.084-24.394 14.084 24.394z"/></svg>