<svg xmlns="http://www.w3.org/2000/svg" fill="none" viewBox="0 0 348 348"><path stroke="#000" stroke-width="2" d="M5.08 5.78h336.91v337.67H5.08z"/><path style="fill:none;stroke:#000;stroke-width:2;stroke-linecap:round;stroke-linejoin:round;stroke-opacity:1;stop-color:#000" d="M63.535 40h220v220h-220z"/><path style="fill:#dd44ff;fill-opacity:1;stroke:#000;stroke-width:2;stroke-linecap:round;stroke-linejoin:round;stroke-opacity:1;stop-color:#000" d="M100 80h40v40h-40zM140 80h40v40h-40zM140 120h40v40h-40zM140 160h40v40h-40zM140 200h40v40h-40zM180 120h40v40h-40z" transform="translate(13.535 -10)"/><path style="fill:none;fill-opacity:1;stroke:#000;stroke-width:2;stroke-linecap:round;stroke-linejoin:round;stroke-opacity:1;stop-color:#000" d="M103.535 280h140v40h-140z"/><g aria-label="FLIP!"><path d="M142.93 276.335h3.32V300h-3.32zm1.627 10.547h11.475v3.157h-11.475zm0-10.547h13.265v3.157h-13.265zM161.891 276.335h3.32V300h-3.32zm1.66 20.507h13.542V300h-13.542zM184.32 300H181v-23.665h3.32zM191.888 287.663h7.568q1.075 0 1.888-.505.814-.504 1.254-1.432.455-.928.455-2.132 0-1.22-.455-2.149-.44-.927-1.254-1.432-.813-.52-1.888-.52h-7.568v-3.158h7.454q2.116 0 3.728.911 1.61.895 2.49 2.54.895 1.643.895 3.808 0 2.164-.895 3.808-.88 1.628-2.49 2.523-1.612.895-3.728.895h-7.454zm-1.709-11.328h3.32V300h-3.32zM210.85 276.335h3.32v17.594h-3.32zm-.082 20.182h3.483V300h-3.483z" style="fill:#000;fill-opacity:1" transform="translate(-5.055 11.833)"/></g></svg>