<svg xmlns="http://www.w3.org/2000/svg" viewBox="0 0 348 348" fill="none"><path d="M5.079 5.776h336.913v337.67H5.08z" stroke-width="2" stroke="#000"/><rect width="80.06" height="49.484" x="39.829" y="27.357" ry="0" fill="#fff" stroke="#020000"/><path fill="#fff" stroke="#020000" d="M227.709 28.966h79.658v47.071h-79.658z"/><path fill="#000" stroke="#020000" d="M138.798 40.231h71.612V85.29h-71.612z"/><path fill="#fff" stroke="#020000" d="M49.082 273.572H165.35v30.173H49.082zM186.069 273.773h116.268v30.173H186.069zM186.069 231.933h116.268v30.173H186.069zM48.881 232.738h116.268v30.173H48.881zM105.808 109.429h138.798v89.313H105.808z"/><path fill="#fff" stroke="#020000" d="M99.371 109.027h8.449v113.05h-8.449z"/><path d="M39.829 50.691L61.15 27.76" stroke="#000"/><path d="M98.969 76.44l21.322-22.932" fill="none" stroke="#000"/><path d="M42.645 76.842L88.106 27.76M71.612 76.842l45.46-49.082" stroke="#000"/><rect ry="0" y="28.966" x="227.306" height="49.484" width="80.06" fill="#fff" stroke="#020000"/><path d="M227.306 52.3L248.63 29.37" stroke="#000"/><path d="M286.446 78.049l21.323-22.932" fill="none" stroke="#000"/><path d="M230.123 78.45l45.46-49.081M259.089 78.45L304.55 29.37" stroke="#000"/></svg>