<svg xmlns="http://www.w3.org/2000/svg" xml:space="preserve" fill="none" viewBox="0 0 512 512"><path stroke="#000" stroke-width="2" d="M 17.999975,17.999996 H 495.99998 V 496.00001 H 17.999975 Z"/><circle cx="448" cy="64" r="23" stroke="#000" stroke-width="2"/><circle cx="-81.8" cy="66" r="6" fill="#000" transform="rotate(-90)"/><circle cx="-81.8" cy="81.8" r="6" fill="#000" transform="rotate(-90)"/><circle cx="-81.8" cy="161" r="6" fill="#000" transform="rotate(-90)"/><circle cx="-81.8" cy="176.8" r="6" fill="#000" transform="rotate(-90)"/><circle cx="-81.8" cy="256" r="6" fill="#000" transform="rotate(-90)"/><circle cx="-81.8" cy="271.8" r="6" fill="#000" transform="rotate(-90)"/><circle cx="-81.8" cy="351" r="6" fill="#000" transform="rotate(-90)"/><circle cx="-97.7" cy="97.7" r="6" fill="#000" transform="rotate(-90)"/><circle cx="-97.7" cy="145.2" r="6" fill="#000" transform="rotate(-90)"/><circle cx="-97.7" cy="192.7" r="6" fill="#000" transform="rotate(-90)"/><circle cx="-97.7" cy="240.2" r="6" fill="#000" transform="rotate(-90)"/><circle cx="-97.7" cy="287.7" r="6" fill="#000" transform="rotate(-90)"/><circle cx="-97.7" cy="335.2" r="6" fill="#000" transform="rotate(-90)"/><circle cx="-430.2" cy="113.5" r="6" fill="#000" transform="rotate(-90)"/><circle cx="-430.2" cy="129.3" r="6" fill="#000" transform="rotate(-90)"/><circle cx="-430.2" cy="208.5" r="6" fill="#000" transform="rotate(-90)"/><circle cx="-430.2" cy="224.3" r="6" fill="#000" transform="rotate(-90)"/><circle cx="-430.2" cy="303.5" r="6" fill="#000" transform="rotate(-90)"/><circle cx="-430.2" cy="319.3" r="6" fill="#000" transform="rotate(-90)"/><circle cx="-430.2" cy="398.5" r="6" fill="#000" transform="rotate(-90)"/><circle cx="-430.2" cy="414.3" r="6" fill="#000" transform="rotate(-90)"/><circle cx="-113.5" cy="113.5" r="6" fill="#000" transform="rotate(-90)"/><circle cx="-113.5" cy="129.3" r="6" fill="#000" transform="rotate(-90)"/><circle cx="-113.5" cy="208.5" r="6" fill="#000" transform="rotate(-90)"/><circle cx="-113.5" cy="224.3" r="6" fill="#000" transform="rotate(-90)"/><circle cx="-113.5" cy="303.5" r="6" fill="#000" transform="rotate(-90)"/><circle cx="-113.5" cy="319.3" r="6" fill="#000" transform="rotate(-90)"/><circle cx="-161" cy="81.8" r="6" fill="#000" transform="rotate(-90)"/><circle cx="-161" cy="97.7" r="6" fill="#000" transform="rotate(-90)"/><circle cx="-161" cy="113.5" r="6" fill="#000" transform="rotate(-90)"/><circle cx="-161" cy="145.2" r="6" fill="#000" transform="rotate(-90)"/><circle cx="-161" cy="208.5" r="6" fill="#000" transform="rotate(-90)"/><circle cx="-161" cy="224.3" r="6" fill="#000" transform="rotate(-90)"/><circle cx="-161" cy="240.2" r="6" fill="#000" transform="rotate(-90)"/><circle cx="-161" cy="271.8" r="6" fill="#000" transform="rotate(-90)"/><circle cx="-161" cy="335.2" r="6" fill="#000" transform="rotate(-90)"/><circle cx="-161" cy="366.8" r="6" fill="#000" transform="rotate(-90)"/><circle cx="-161" cy="398.5" r="6" fill="#000" transform="rotate(-90)"/><circle cx="-161" cy="414.3" r="6" fill="#000" transform="rotate(-90)"/><circle cx="-161" cy="430.2" r="6" fill="#000" transform="rotate(-90)"/><circle cx="-176.8" cy="81.8" r="6" fill="#000" transform="rotate(-90)"/><circle cx="-176.8" cy="145.2" r="6" fill="#000" transform="rotate(-90)"/><circle cx="-176.8" cy="208.5" r="6" fill="#000" transform="rotate(-90)"/><circle cx="-176.8" cy="240.2" r="6" fill="#000" transform="rotate(-90)"/><circle cx="-176.8" cy="271.8" r="6" fill="#000" transform="rotate(-90)"/><circle cx="-176.8" cy="287.7" r="6" fill="#000" transform="rotate(-90)"/><circle cx="-176.8" cy="319.3" r="6" fill="#000" transform="rotate(-90)"/><circle cx="-176.8" cy="335.2" r="6" fill="#000" transform="rotate(-90)"/><circle cx="-176.8" cy="366.8" r="6" fill="#000" transform="rotate(-90)"/><circle cx="-176.8" cy="398.5" r="6" fill="#000" transform="rotate(-90)"/><circle cx="-176.8" cy="430.2" r="6" fill="#000" transform="rotate(-90)"/><circle cx="-192.7" cy="81.8" r="6" fill="#000" transform="rotate(-90)"/><circle cx="-192.7" cy="97.7" r="6" fill="#000" transform="rotate(-90)"/><circle cx="-192.7" cy="113.5" r="6" fill="#000" transform="rotate(-90)"/><circle cx="-192.7" cy="145.2" r="6" fill="#000" transform="rotate(-90)"/><circle cx="-192.7" cy="208.5" r="6" fill="#000" transform="rotate(-90)"/><circle cx="-192.7" cy="224.3" r="6" fill="#000" transform="rotate(-90)"/><circle cx="-192.7" cy="240.2" r="6" fill="#000" transform="rotate(-90)"/><circle cx="-192.7" cy="271.8" r="6" fill="#000" transform="rotate(-90)"/><circle cx="-192.7" cy="303.5" r="6" fill="#000" transform="rotate(-90)"/><circle cx="-192.7" cy="335.2" r="6" fill="#000" transform="rotate(-90)"/><circle cx="-192.7" cy="366.8" r="6" fill="#000" transform="rotate(-90)"/><circle cx="-192.7" cy="398.5" r="6" fill="#000" transform="rotate(-90)"/><circle cx="-192.7" cy="430.2" r="6" fill="#000" transform="rotate(-90)"/><circle cx="-208.5" cy="81.8" r="6" fill="#000" transform="rotate(-90)"/><circle cx="-208.5" cy="145.2" r="6" fill="#000" transform="rotate(-90)"/><circle cx="-208.5" cy="208.5" r="6" fill="#000" transform="rotate(-90)"/><circle cx="-208.5" cy="240.2" r="6" fill="#000" transform="rotate(-90)"/><circle cx="-208.5" cy="271.8" r="6" fill="#000" transform="rotate(-90)"/><circle cx="-208.5" cy="335.2" r="6" fill="#000" transform="rotate(-90)"/><circle cx="-208.5" cy="366.8" r="6" fill="#000" transform="rotate(-90)"/><circle cx="-208.5" cy="398.5" r="6" fill="#000" transform="rotate(-90)"/><circle cx="-208.5" cy="430.2" r="6" fill="#000" transform="rotate(-90)"/><circle cx="-224.3" cy="81.8" r="6" fill="#000" transform="rotate(-90)"/><circle cx="-224.3" cy="145.2" r="6" fill="#000" transform="rotate(-90)"/><circle cx="-224.3" cy="161" r="6" fill="#000" transform="rotate(-90)"/><circle cx="-224.3" cy="176.8" r="6" fill="#000" transform="rotate(-90)"/><circle cx="-224.3" cy="208.5" r="6" fill="#000" transform="rotate(-90)"/><circle cx="-224.3" cy="240.2" r="6" fill="#000" transform="rotate(-90)"/><circle cx="-224.3" cy="271.8" r="6" fill="#000" transform="rotate(-90)"/><circle cx="-224.3" cy="335.2" r="6" fill="#000" transform="rotate(-90)"/><circle cx="-224.3" cy="366.8" r="6" fill="#000" transform="rotate(-90)"/><circle cx="-224.3" cy="398.5" r="6" fill="#000" transform="rotate(-90)"/><circle cx="-224.3" cy="430.2" r="6" fill="#000" transform="rotate(-90)"/><circle cx="-287.7" cy="66" r="6" fill="#000" transform="rotate(-90)"/><circle cx="-287.7" cy="446" r="6" fill="#000" transform="rotate(-90)"/><circle cx="-287.7" cy="81.8" r="6" fill="#000" transform="rotate(-90)"/><circle cx="-287.7" cy="97.7" r="6" fill="#000" transform="rotate(-90)"/><circle cx="-287.7" cy="129.3" r="6" fill="#000" transform="rotate(-90)"/><circle cx="-287.7" cy="145.2" r="6" fill="#000" transform="rotate(-90)"/><circle cx="-287.7" cy="161" r="6" fill="#000" transform="rotate(-90)"/><circle cx="-287.7" cy="192.7" r="6" fill="#000" transform="rotate(-90)"/><circle cx="-287.7" cy="240.2" r="6" fill="#000" transform="rotate(-90)"/><circle cx="-287.7" cy="271.8" r="6" fill="#000" transform="rotate(-90)"/><circle cx="-287.7" cy="287.7" r="6" fill="#000" transform="rotate(-90)"/><circle cx="-287.7" cy="303.5" r="6" fill="#000" transform="rotate(-90)"/><circle cx="-287.7" cy="319.3" r="6" fill="#000" transform="rotate(-90)"/><circle cx="-287.7" cy="351" r="6" fill="#000" transform="rotate(-90)"/><circle cx="-287.7" cy="366.8" r="6" fill="#000" transform="rotate(-90)"/><circle cx="-287.7" cy="382.7" r="6" fill="#000" transform="rotate(-90)"/><circle cx="-287.7" cy="414.3" r="6" fill="#000" transform="rotate(-90)"/><circle cx="-287.7" cy="430.2" r="6" fill="#000" transform="rotate(-90)"/><circle cx="-303.5" cy="66" r="6" fill="#000" transform="rotate(-90)"/><circle cx="-303.5" cy="446" r="6" fill="#000" transform="rotate(-90)"/><circle cx="-303.5" cy="145.2" r="6" fill="#000" transform="rotate(-90)"/><circle cx="-303.5" cy="192.7" r="6" fill="#000" transform="rotate(-90)"/><circle cx="-303.5" cy="208.5" r="6" fill="#000" transform="rotate(-90)"/><circle cx="-303.5" cy="240.2" r="6" fill="#000" transform="rotate(-90)"/><circle cx="-303.5" cy="271.8" r="6" fill="#000" transform="rotate(-90)"/><circle cx="-303.5" cy="351" r="6" fill="#000" transform="rotate(-90)"/><circle cx="-303.5" cy="414.3" r="6" fill="#000" transform="rotate(-90)"/><circle cx="-319.3" cy="66" r="6" fill="#000" transform="rotate(-90)"/><circle cx="-319.3" cy="81.8" r="6" fill="#000" transform="rotate(-90)"/><circle cx="-319.3" cy="97.7" r="6" fill="#000" transform="rotate(-90)"/><circle cx="-319.3" cy="145.2" r="6" fill="#000" transform="rotate(-90)"/><circle cx="-319.3" cy="192.7" r="6" fill="#000" transform="rotate(-90)"/><circle cx="-319.3" cy="224.3" r="6" fill="#000" transform="rotate(-90)"/><circle cx="-319.3" cy="240.2" r="6" fill="#000" transform="rotate(-90)"/><circle cx="-319.3" cy="271.8" r="6" fill="#000" transform="rotate(-90)"/><circle cx="-319.3" cy="303.5" r="6" fill="#000" transform="rotate(-90)"/><circle cx="-319.3" cy="319.3" r="6" fill="#000" transform="rotate(-90)"/><circle cx="-319.3" cy="351" r="6" fill="#000" transform="rotate(-90)"/><circle cx="-319.3" cy="366.8" r="6" fill="#000" transform="rotate(-90)"/><circle cx="-319.3" cy="382.7" r="6" fill="#000" transform="rotate(-90)"/><circle cx="-319.3" cy="414.3" r="6" fill="#000" transform="rotate(-90)"/><circle cx="-319.3" cy="430.2" r="6" fill="#000" transform="rotate(-90)"/><circle cx="-335.2" cy="66" r="6" fill="#000" transform="rotate(-90)"/><circle cx="-335.2" cy="446" r="6" fill="#000" transform="rotate(-90)"/><circle cx="-335.2" cy="145.2" r="6" fill="#000" transform="rotate(-90)"/><circle cx="-335.2" cy="192.7" r="6" fill="#000" transform="rotate(-90)"/><circle cx="-335.2" cy="240.2" r="6" fill="#000" transform="rotate(-90)"/><circle cx="-335.2" cy="271.8" r="6" fill="#000" transform="rotate(-90)"/><circle cx="-335.2" cy="319.3" r="6" fill="#000" transform="rotate(-90)"/><circle cx="-335.2" cy="351" r="6" fill="#000" transform="rotate(-90)"/><circle cx="-335.2" cy="414.3" r="6" fill="#000" transform="rotate(-90)"/><circle cx="-351" cy="66" r="6" fill="#000" transform="rotate(-90)"/><circle cx="-351" cy="446" r="6" fill="#000" transform="rotate(-90)"/><circle cx="-351" cy="129.3" r="6" fill="#000" transform="rotate(-90)"/><circle cx="-351" cy="145.2" r="6" fill="#000" transform="rotate(-90)"/><circle cx="-351" cy="161" r="6" fill="#000" transform="rotate(-90)"/><circle cx="-351" cy="192.7" r="6" fill="#000" transform="rotate(-90)"/><circle cx="-351" cy="240.2" r="6" fill="#000" transform="rotate(-90)"/><circle cx="-351" cy="271.8" r="6" fill="#000" transform="rotate(-90)"/><circle cx="-351" cy="287.7" r="6" fill="#000" transform="rotate(-90)"/><circle cx="-351" cy="303.5" r="6" fill="#000" transform="rotate(-90)"/><circle cx="-351" cy="319.3" r="6" fill="#000" transform="rotate(-90)"/><circle cx="-351" cy="351" r="6" fill="#000" transform="rotate(-90)"/><circle cx="-351" cy="366.8" r="6" fill="#000" transform="rotate(-90)"/><circle cx="-351" cy="382.7" r="6" fill="#000" transform="rotate(-90)"/><circle cx="-351" cy="414.3" r="6" fill="#000" transform="rotate(-90)"/><circle cx="-398.5" cy="66" r="6" fill="#000" transform="rotate(-90)"/><circle cx="-398.5" cy="446" r="6" fill="#000" transform="rotate(-90)"/><circle cx="-398.5" cy="81.8" r="6" fill="#000" transform="rotate(-90)"/><circle cx="-398.5" cy="161" r="6" fill="#000" transform="rotate(-90)"/><circle cx="-398.5" cy="176.8" r="6" fill="#000" transform="rotate(-90)"/><circle cx="-398.5" cy="256" r="6" fill="#000" transform="rotate(-90)"/><circle cx="-398.5" cy="271.8" r="6" fill="#000" transform="rotate(-90)"/><circle cx="-398.5" cy="351" r="6" fill="#000" transform="rotate(-90)"/><circle cx="-398.5" cy="366.8" r="6" fill="#000" transform="rotate(-90)"/><circle cx="-414.3" cy="97.7" r="6" fill="#000" transform="rotate(-90)"/><circle cx="-414.3" cy="145.2" r="6" fill="#000" transform="rotate(-90)"/><circle cx="-414.3" cy="192.7" r="6" fill="#000" transform="rotate(-90)"/><circle cx="-414.3" cy="240.2" r="6" fill="#000" transform="rotate(-90)"/><circle cx="-414.3" cy="287.7" r="6" fill="#000" transform="rotate(-90)"/><circle cx="-414.3" cy="335.2" r="6" fill="#000" transform="rotate(-90)"/><circle cx="-414.3" cy="382.7" r="6" fill="#000" transform="rotate(-90)"/><circle cx="-414.3" cy="430.2" r="6" fill="#000" transform="rotate(-90)"/></svg>