<svg xmlns="http://www.w3.org/2000/svg" fill="none" viewBox="0 0 348 348"><path stroke="#000" stroke-width="2" d="M5.08 5.78h336.91v337.67H5.08z"/><path stroke="#000" stroke-width="2" d="M282.73 40.55c0-8.37 6.97-15.16 15.56-15.16 4.13 0 8.09 1.6 11 4.44a14.97 14.97 0 0 1 4.56 10.72c0 8.38-6.96 15.17-15.56 15.17-8.59 0-15.56-6.8-15.56-15.17z"/><path fill="#000" d="M142.72 44.85q0-7.1 1.47-11.44 1.46-4.34 4.34-6.69 2.89-2.35 7.26-2.35 3.23 0 5.67 1.3 2.43 1.3 4.01 3.74 1.59 2.45 2.5 5.97.9 3.51.9 9.47 0 7.05-1.45 11.39-1.45 4.33-4.34 6.7-2.88 2.36-7.29 2.36-5.8 0-9.1-4.15-3.97-5-3.97-16.3Zm5.06 0q0 9.87 2.31 13.14 2.31 3.27 5.7 3.27 3.4 0 5.7-3.28 2.32-3.29 2.32-13.13 0-9.9-2.31-13.15-2.31-3.26-5.76-3.26-3.4 0-5.41 2.88-2.55 3.66-2.55 13.53Zm26.08 0q0-7.1 1.47-11.44 1.46-4.34 4.34-6.69 2.89-2.35 7.26-2.35 3.23 0 5.66 1.3 2.44 1.3 4.02 3.74 1.59 2.45 2.5 5.97.9 3.51.9 9.47 0 7.05-1.45 11.39-1.46 4.33-4.34 6.7-2.88 2.36-7.29 2.36-5.8 0-9.1-4.15-3.97-5-3.97-16.3Zm5.06 0q0 9.87 2.31 13.14 2.31 3.27 5.7 3.27 3.4 0 5.7-3.28 2.31-3.29 2.31-13.13 0-9.9-2.3-13.15-2.32-3.26-5.76-3.26-3.4 0-5.41 2.88-2.55 3.66-2.55 13.53Z"/><path stroke="#000" stroke-width="2" d="M131.87 17.73h78.07v54.69h-78.07z"/><path stroke="#000" stroke-width="2" d="M26.75 97.28h225v225h-225z"/><path stroke="#000" stroke-width="2" d="M138.44 267.96c-.85-1.16-1.68-2.34-2.48-3.51-.66.95-1.33 1.9-2.02 2.84-20.18 27.78-46.52 43.05-58.82 34.11-12.3-8.94-5.92-38.7 14.27-66.48.84-1.17 1.7-2.32 2.58-3.44-1.1-.33-2.22-.68-3.33-1.04-32.66-10.61-55.32-30.94-50.62-45.4 4.7-14.47 34.98-17.6 67.64-6.98 1.37.45 2.73.91 4.07 1.4-.03-1.16-.05-2.33-.04-3.5 0-34.33 12.33-62.17 27.53-62.17 15.21 0 27.54 27.84 27.54 62.17 0 1.45-.02 2.88-.06 4.3 1.09-.38 2.19-.75 3.3-1.11 32.66-10.61 62.94-7.49 67.64 6.98 4.7 14.46-17.96 34.79-50.62 45.4-1.38.44-2.75.87-4.11 1.26.7.92 1.4 1.86 2.08 2.8 20.18 27.78 26.57 57.55 14.26 66.49-12.3 8.94-38.63-6.34-58.81-34.12Z"/></svg>