<svg xmlns="http://www.w3.org/2000/svg" viewBox="0 0 348 348" fill="none">
    <path d="M5.079 5.776h336.913v337.67H5.08z" stroke-width="2" stroke="#000"/>
    <path d="M282.734 40.554c0-8.376 6.966-15.165 15.56-15.165 4.126 0 8.084 1.597 11.001 4.441 2.918 2.844 4.558 6.702 4.558 10.724 0 8.376-6.966 15.165-15.56 15.165-8.593 0-15.559-6.79-15.559-15.165z" stroke-width="2" stroke="#000"/>
    <text style="fill: black; font-family: Arial, sans-serif; font-size: 56px; white-space: pre; transform-origin: 140.39px 45.109px;" x="140.4" y="64.62">00</text>
    <rect x="131.871" y="17.729" width="78.067" height="54.694" stroke-width="2" stroke="#000"></rect>
    <rect x="26.752" y="97.278" width="225" height="225" stroke-width="2" stroke="#000"></rect>
    <path d="M 138.435 267.965 C 137.586 266.797 136.76 265.621 135.958 264.446 C 135.302 265.396 134.63 266.346 133.941 267.293 C 113.76 295.07 87.425 310.343 75.121 301.402 C 62.817 292.463 69.204 262.698 89.385 234.92 C 90.235 233.751 91.096 232.603 91.967 231.477 C 90.861 231.148 89.75 230.802 88.636 230.44 C 55.98 219.829 33.319 199.502 38.02 185.039 C 42.719 170.574 73.001 167.449 105.656 178.06 C 107.032 178.507 108.389 178.971 109.729 179.452 C 109.699 178.296 109.685 177.134 109.686 175.963 C 109.687 141.627 122.015 113.793 137.223 113.793 C 152.432 113.793 164.761 141.628 164.761 175.963 C 164.761 177.409 164.74 178.844 164.697 180.267 C 165.786 179.883 166.888 179.511 168.002 179.149 C 200.656 168.537 230.938 171.662 235.638 186.126 C 240.338 200.591 217.675 220.918 185.02 231.528 C 183.645 231.974 182.274 232.398 180.907 232.795 C 181.608 233.714 182.304 234.646 182.993 235.594 C 203.174 263.371 209.559 293.137 197.255 302.076 C 184.953 311.016 158.617 295.744 138.435 267.965 Z" stroke-width="2" stroke="#000"></path>
</svg>