<svg xmlns="http://www.w3.org/2000/svg" viewBox="0 0 348 348" fill="none">
    <path d="M5.079 5.776h336.913v337.67H5.08z" stroke-width="2" stroke="#000"/>
    <path d="M282.734 40.554c0-8.376 6.966-15.165 15.56-15.165 4.126 0 8.084 1.597 11.001 4.441 2.918 2.844 4.558 6.702 4.558 10.724 0 8.376-6.966 15.165-15.56 15.165-8.593 0-15.559-6.79-15.559-15.165z" stroke-width="2" stroke="#000"/>
    <path d="M 142.724 44.85 Q 142.724 37.741 144.187 33.407 Q 145.65 29.073 148.535 26.722 Q 151.42 24.37 155.795 24.37 Q 159.021 24.37 161.455 25.669 Q 163.888 26.968 165.474 29.415 Q 167.06 31.862 167.962 35.376 Q 168.865 38.89 168.865 44.85 Q 168.865 51.905 167.416 56.239 Q 165.966 60.573 163.082 62.938 Q 160.197 65.304 155.795 65.304 Q 149.998 65.304 146.689 61.147 Q 142.724 56.143 142.724 44.85 Z M 147.783 44.85 Q 147.783 54.722 150.093 57.989 Q 152.404 61.257 155.795 61.257 Q 159.185 61.257 161.496 57.975 Q 163.806 54.694 163.806 44.85 Q 163.806 34.952 161.496 31.698 Q 159.185 28.444 155.74 28.444 Q 152.349 28.444 150.326 31.315 Q 147.783 34.979 147.783 44.85 Z M 173.863 44.85 Q 173.863 37.741 175.326 33.407 Q 176.789 29.073 179.674 26.722 Q 182.558 24.37 186.933 24.37 Q 190.16 24.37 192.594 25.669 Q 195.027 26.968 196.613 29.415 Q 198.199 31.862 199.101 35.376 Q 200.004 38.89 200.004 44.85 Q 200.004 51.905 198.555 56.239 Q 197.105 60.573 194.221 62.938 Q 191.336 65.304 186.933 65.304 Q 181.137 65.304 177.828 61.147 Q 173.863 56.143 173.863 44.85 Z M 178.922 44.85 Q 178.922 54.722 181.232 57.989 Q 183.543 61.257 186.933 61.257 Q 190.324 61.257 192.635 57.975 Q 194.945 54.694 194.945 44.85 Q 194.945 34.952 192.635 31.698 Q 190.324 28.444 186.879 28.444 Q 183.488 28.444 181.465 31.315 Q 178.922 34.979 178.922 44.85 Z" fill="#000"/>
    <rect x="131.871" y="17.729" width="78.067" height="54.694" stroke-width="2" stroke="#000"></rect>
    <rect x="26.752" y="97.278" width="225" height="225" stroke-width="2" stroke="#000"></rect>
    <path d="M 138.435 267.965 C 137.586 266.797 136.76 265.621 135.958 264.446 C 135.302 265.396 134.63 266.346 133.941 267.293 C 113.76 295.07 87.425 310.343 75.121 301.402 C 62.817 292.463 69.204 262.698 89.385 234.92 C 90.235 233.751 91.096 232.603 91.967 231.477 C 90.861 231.148 89.75 230.802 88.636 230.44 C 55.98 219.829 33.319 199.502 38.02 185.039 C 42.719 170.574 73.001 167.449 105.656 178.06 C 107.032 178.507 108.389 178.971 109.729 179.452 C 109.699 178.296 109.685 177.134 109.686 175.963 C 109.687 141.627 122.015 113.793 137.223 113.793 C 152.432 113.793 164.761 141.628 164.761 175.963 C 164.761 177.409 164.74 178.844 164.697 180.267 C 165.786 179.883 166.888 179.511 168.002 179.149 C 200.656 168.537 230.938 171.662 235.638 186.126 C 240.338 200.591 217.675 220.918 185.02 231.528 C 183.645 231.974 182.274 232.398 180.907 232.795 C 181.608 233.714 182.304 234.646 182.993 235.594 C 203.174 263.371 209.559 293.137 197.255 302.076 C 184.953 311.016 158.617 295.744 138.435 267.965 Z" stroke-width="2" stroke="#000"></path>
</svg>