<svg xmlns="http://www.w3.org/2000/svg" fill="none" viewBox="0 0 348 348"><path stroke="#000" stroke-width="2" d="M5.079 5.776h336.913v337.67H5.08z"/><path stroke="#000" stroke-width="2" d="M282.734 40.554c0-8.376 6.966-15.165 15.56-15.165 4.126 0 8.084 1.597 11.001 4.441 2.918 2.844 4.558 6.702 4.558 10.724 0 8.376-6.966 15.165-15.56 15.165-8.593 0-15.559-6.79-15.559-15.165zM49.643 30.61h38.675v44.981H49.643zm59.695 0h38.675v44.981h-38.675zm59.694 0h38.675v44.981h-38.675z"/><path fill="#000" d="M117.738 57.877l3.336-.292c.158 1.337.526 2.434 1.103 3.29.577.857 1.473 1.55 2.689 2.079 1.215.528 2.582.793 4.101.793 1.35 0 2.54-.2 3.573-.602 1.033-.4 1.802-.95 2.306-1.65.504-.698.757-1.461.757-2.287 0-.839-.243-1.571-.73-2.197-.486-.626-1.288-1.151-2.406-1.577-.717-.28-2.303-.714-4.758-1.303-2.454-.59-4.174-1.146-5.158-1.668-1.277-.669-2.227-1.498-2.853-2.488-.626-.99-.94-2.1-.94-3.327 0-1.35.384-2.61 1.15-3.783.765-1.173 1.883-2.063 3.353-2.67 1.47-.608 3.105-.912 4.904-.912 1.981 0 3.728.32 5.241.957 1.513.638 2.677 1.577 3.49 2.817.815 1.24 1.253 2.643 1.313 4.21l-3.39.256c-.183-1.69-.8-2.966-1.85-3.828-1.052-.863-2.604-1.295-4.658-1.295-2.139 0-3.698.392-4.676 1.176-.978.784-1.467 1.729-1.467 2.835 0 .96.346 1.75 1.039 2.37.68.62 2.458 1.254 5.332 1.904 2.874.65 4.846 1.219 5.915 1.705 1.556.717 2.704 1.625 3.445 2.725.742 1.1 1.112 2.367 1.112 3.801 0 1.422-.407 2.762-1.22 4.02-.815 1.257-1.985 2.236-3.51 2.934-1.525.7-3.242 1.049-5.15 1.049-2.418 0-4.445-.353-6.08-1.058-1.634-.705-2.916-1.765-3.846-3.18-.93-1.417-1.418-3.018-1.467-4.804zM61.368 47.952h1.089c-.564 1.127-.986 1.917-1.268 2.37-.282.454-.79 1.139-1.525 2.056h22.845v1.446H59.664c.993 1.031 1.938 2.507 2.835 4.426h-1.117c-1.231-1.375-2.291-2.418-3.18-3.13a14.57 14.57 0 0 0-2.75-1.754v-.645c.831-.353 1.71-.892 2.636-1.618.926-.726 2.02-1.776 3.28-3.151zM195.982 47.952c1.27 1.384 2.368 2.437 3.294 3.158.927.72 1.8 1.258 2.622 1.611v.645a14.568 14.568 0 0 0-2.75 1.754c-.888.712-1.948 1.755-3.18 3.13h-1.103c.898-1.92 1.838-3.395 2.822-4.426h-22.845v-1.446h22.845c-.726-.927-1.232-1.614-1.519-2.063-.286-.449-.711-1.236-1.274-2.363zM24.469 120.938v203.375h298.125V120.938H24.469zm21.312 23.656h4.657v1.75h-2.563v18.437h2.563v1.781H45.78v-21.968zm12.188 0h13.625v2.031h-5.688v15.156h-2.281v-15.156h-5.656v-2.031zm16.062 0H86.47v2.031H76.28v5.25h9.531v2.031h-9.53v5.813h10.562v2.062H74.03v-17.187zm15 0h2.719l3.625 5.125c.39.554.687 1.031.875 1.406.305-.523 1.898-2.703 4.813-6.531h2.468l-6 8.094 6.5 9.093h-2.812l-3.469-4.875c-.844-1.195-1.375-2-1.594-2.406h-.031c0 .14-1.719 2.57-5.125 7.281h-2.719l6.656-8.969-5.906-8.218zm15.688 0h13.594v2.031h-5.688v15.156h-2.281v-15.156h-5.625v-2.031zm21.187 0h4.656v21.969h-4.656v-1.782h2.531v-18.437h-2.53v-1.75z"/></svg>