<svg xmlns="http://www.w3.org/2000/svg" viewBox="0 0 348 348" fill="none"><path d="M5.079 5.776h336.913v337.67H5.08z" stroke-width="2" stroke="#000"/><path d="M282.734 40.554c0-8.376 6.966-15.165 15.56-15.165 4.126 0 8.084 1.597 11.001 4.441 2.918 2.844 4.558 6.702 4.558 10.724 0 8.376-6.966 15.165-15.56 15.165-8.593 0-15.559-6.79-15.559-15.165z" stroke-width="2" stroke="#000"/><path fill="#fff" stroke="#000" stroke-width="1.165" stroke-miterlimit="10" d="M13.256 192.493h320.006v141.429H13.256z"/><path fill="#fff" stroke="#000" stroke-width="1.181" stroke-miterlimit="10" d="M57.937 16.254h71.429v71.429H57.937zm86.507 0h71.429v71.429h-71.429zm-86.111 87.302h71.429v71.429H58.333zm86.508 0h71.429v71.429h-71.429z"/><g aria-label="A1" style="line-height:1.25;-inkscape-font-specification:sans-serif" font-weight="400" font-size="40" font-family="sans-serif" letter-spacing="0" word-spacing="0" fill="#000"><path d="M96.677 64.667h-4.121l-2.852-8.105H77.126l-2.851 8.105h-3.926l10.586-29.082h5.156zm-8.164-11.426l-5.098-14.277-5.117 14.277zM118.357 64.667h-15.743v-2.969h6.055V42.206h-6.055V39.55q1.23 0 2.637-.195 1.406-.215 2.13-.606.898-.488 1.405-1.23.528-.762.606-2.032h3.027v26.211h5.938z"/></g><g aria-label="B2" style="line-height:1.25;-inkscape-font-specification:sans-serif" font-weight="400" font-size="40" font-family="sans-serif" letter-spacing="0" word-spacing="0" fill="#000"><path d="M180.498 56.81q0 2.168-.82 3.828-.82 1.66-2.208 2.734-1.64 1.29-3.613 1.836-1.953.547-4.98.547h-10.313V36.673h8.614q3.183 0 4.765.234 1.582.235 3.027.977 1.602.84 2.325 2.168.722 1.308.722 3.144 0 2.07-1.054 3.536-1.055 1.445-2.813 2.324v.156q2.95.605 4.649 2.598 1.699 1.972 1.699 5zm-6.504-13.106q0-1.054-.352-1.777-.351-.723-1.132-1.172-.918-.527-2.227-.645-1.309-.136-3.242-.136h-4.61v8.398h5q1.817 0 2.891-.176 1.074-.195 1.992-.78.918-.587 1.29-1.505.39-.937.39-2.207zm2.48 13.262q0-1.758-.527-2.793-.527-1.035-1.914-1.758-.938-.488-2.285-.625-1.328-.156-3.242-.156h-6.075v10.82h5.118q2.539 0 4.16-.254 1.62-.273 2.656-.976 1.094-.762 1.602-1.739.507-.976.507-2.52zM204.912 65.755h-19.688v-4.082l4.102-3.516q2.07-1.757 3.848-3.496 3.75-3.633 5.136-5.761 1.387-2.149 1.387-4.63 0-2.265-1.504-3.535-1.484-1.289-4.16-1.289-1.777 0-3.848.625-2.07.625-4.043 1.914h-.195v-4.101q1.387-.684 3.691-1.25 2.325-.567 4.493-.567 4.472 0 7.011 2.168 2.54 2.149 2.54 5.84 0 1.66-.43 3.106-.41 1.426-1.23 2.715-.762 1.21-1.798 2.382-1.015 1.172-2.48 2.598-2.09 2.05-4.316 3.984-2.227 1.915-4.16 3.555h15.644z"/></g><g aria-label="C3" style="line-height:1.25;-inkscape-font-specification:sans-serif" font-weight="400" font-size="40" font-family="sans-serif" letter-spacing="0" word-spacing="0" fill="#000"><path d="M93.621 148.83q-1.074.468-1.953.879-.86.41-2.266.859-1.191.371-2.597.625-1.387.273-3.067.273-3.164 0-5.761-.879-2.578-.898-4.493-2.793-1.875-1.855-2.93-4.707-1.054-2.87-1.054-6.66 0-3.593 1.016-6.425 1.015-2.833 2.93-4.786 1.855-1.894 4.472-2.89 2.637-.996 5.84-.996 2.344 0 4.668.566 2.344.566 5.195 1.992v4.59h-.293q-2.402-2.012-4.765-2.93-2.364-.918-5.059-.918-2.207 0-3.984.723-1.758.703-3.145 2.207-1.348 1.465-2.11 3.711-.741 2.227-.741 5.156 0 3.067.82 5.274.84 2.207 2.148 3.593 1.367 1.446 3.184 2.149 1.836.684 3.867.684 2.793 0 5.234-.958 2.442-.957 4.57-2.87h.274zM115.496 136.935q.938.84 1.543 2.11.606 1.269.606 3.28 0 1.993-.723 3.653t-2.031 2.89q-1.465 1.368-3.457 2.032-1.973.644-4.336.644-2.422 0-4.766-.585-2.344-.567-3.848-1.25v-4.082h.293q1.66 1.093 3.907 1.816 2.246.723 4.336.723 1.23 0 2.617-.41t2.246-1.212q.898-.859 1.328-1.894.45-1.035.45-2.617 0-1.563-.509-2.578-.488-1.036-1.367-1.621-.879-.606-2.129-.82-1.25-.235-2.695-.235h-1.758v-3.242h1.367q2.97 0 4.727-1.23 1.777-1.25 1.777-3.634 0-1.054-.449-1.836-.45-.8-1.25-1.308-.84-.508-1.797-.703-.957-.196-2.168-.196-1.855 0-3.945.664-2.09.665-3.945 1.875h-.196v-4.082q1.387-.683 3.692-1.25 2.324-.585 4.492-.585 2.129 0 3.75.39t2.93 1.25q1.406.938 2.128 2.266.723 1.328.723 3.105 0 2.422-1.719 4.239-1.699 1.796-4.023 2.265v.274q.937.156 2.148.664 1.211.488 2.051 1.23z"/></g><g aria-label="D4" style="line-height:1.25;-inkscape-font-specification:sans-serif" font-weight="400" font-size="40" font-family="sans-serif" letter-spacing="0" word-spacing="0" fill="#000"><path d="M180.818 136.144q0 3.965-1.739 7.188-1.718 3.222-4.59 5-1.992 1.23-4.453 1.777-2.441.547-6.445.547h-7.344v-29.082h7.266q4.258 0 6.758.625 2.52.605 4.257 1.68 2.97 1.855 4.63 4.941 1.66 3.086 1.66 7.324zm-4.043-.058q0-3.418-1.192-5.762-1.191-2.344-3.554-3.691-1.72-.977-3.653-1.348-1.933-.39-4.629-.39h-3.633v22.44h3.633q2.793 0 4.864-.41 2.09-.41 3.828-1.523 2.168-1.387 3.242-3.652 1.094-2.266 1.094-5.664zM206.696 142.472h-4.316v8.184h-3.75v-8.184h-13.926v-4.492l14.082-16.406h3.594v17.773h4.316zm-8.066-3.125v-13.125l-11.27 13.125z"/></g><g aria-label="If X*then Y†Otherwise Z‡" style="line-height:1.25;-inkscape-font-specification:sans-serif" font-weight="400" font-size="24" font-family="sans-serif" letter-spacing="0" word-spacing="0" fill="#000"><path d="M29.131 217.841h-6.89v-1.781h2.285v-13.887H22.24v-1.781h6.891v1.781h-2.285v13.887h2.285zM39.97 201.74h-.116q-.364-.106-.95-.212-.585-.117-1.03-.117-1.419 0-2.063.633-.633.621-.633 2.262v.445h3.973v1.852h-3.903v11.238h-2.203v-11.238h-1.488v-1.852h1.488v-.433q0-2.332 1.16-3.575 1.16-1.254 3.352-1.254.738 0 1.324.07.598.071 1.09.165zM63.291 200.392l-6.023 8.625 6.012 8.824h-2.684l-4.758-7.184-4.875 7.184h-2.531l6.082-8.719-5.942-8.73h2.672l4.7 7.09 4.804-7.09zM77.412 207.446l-.75 1.29-4.242-2.497.07 4.22H70.98l.058-4.22-4.23 2.508-.762-1.289 4.465-2.426-4.465-2.425.762-1.29 4.242 2.497-.07-4.207h1.511l-.082 4.207 4.254-2.485.75 1.29-4.453 2.402zM29.6 267.724q-.621.164-1.36.27-.726.105-1.3.105-2.004 0-3.047-1.078-1.043-1.078-1.043-3.457v-6.961h-1.488v-1.852h1.488v-3.762h2.203v3.762H29.6v1.852h-4.547v5.965q0 1.03.047 1.617.047.574.328 1.078.258.469.703.691.457.211 1.383.211.539 0 1.125-.152.586-.164.844-.27h.117zM43.217 267.841h-2.203v-7.453q0-.902-.106-1.688-.105-.796-.386-1.242-.293-.492-.844-.726-.55-.246-1.43-.246-.902 0-1.886.445-.985.445-1.887 1.137v9.773h-2.203v-18.234h2.203v6.597q1.031-.855 2.133-1.336 1.101-.48 2.261-.48 2.121 0 3.235 1.277 1.113 1.278 1.113 3.68zM58.416 261.525h-9.644q0 1.207.363 2.109.363.89.996 1.465.61.562 1.441.844.844.28 1.852.28 1.336 0 2.684-.527 1.359-.539 1.933-1.054h.117v2.402q-1.113.469-2.273.785-1.16.317-2.438.317-3.257 0-5.085-1.758-1.829-1.77-1.829-5.016 0-3.21 1.747-5.097 1.757-1.887 4.617-1.887 2.648 0 4.078 1.547 1.441 1.547 1.441 4.394zm-2.144-1.688q-.012-1.734-.88-2.683-.855-.95-2.612-.95-1.77 0-2.825 1.043-1.043 1.043-1.183 2.59zM72.701 267.841h-2.203v-7.453q0-.902-.105-1.688-.106-.796-.387-1.242-.293-.492-.844-.726-.55-.246-1.43-.246-.902 0-1.886.445-.984.445-1.887 1.137v9.773h-2.203v-13.09h2.203v1.453q1.031-.855 2.133-1.336 1.102-.48 2.262-.48 2.12 0 3.234 1.277 1.113 1.278 1.113 3.68zM97.908 250.392l-6.14 9.797v7.652h-2.32v-7.406l-6.165-10.043h2.567l4.77 7.804 4.816-7.804zM111.045 255.724l-4.723-.059.06 10.594h-1.548l.059-10.594-4.723.059v-1.512l4.723.059-.059-4.664h1.547l-.059 4.664 4.723-.059zM35.987 302.396q1.066 1.172 1.628 2.87.575 1.7.575 3.856 0 2.156-.586 3.867-.574 1.7-1.617 2.836-1.079 1.184-2.555 1.782-1.465.597-3.352.597-1.84 0-3.351-.61-1.5-.608-2.555-1.769-1.055-1.16-1.629-2.847-.562-1.688-.562-3.856 0-2.133.562-3.82.563-1.7 1.64-2.906 1.032-1.149 2.555-1.758 1.536-.61 3.34-.61 1.875 0 3.364.622 1.5.609 2.543 1.746zm-.211 6.726q0-3.398-1.524-5.238-1.523-1.852-4.16-1.852-2.66 0-4.184 1.852-1.511 1.84-1.511 5.238 0 3.434 1.547 5.262 1.546 1.816 4.148 1.816 2.602 0 4.137-1.816 1.547-1.828 1.547-5.262zM48.49 317.724q-.62.164-1.359.27-.726.105-1.3.105-2.005 0-3.048-1.078-1.043-1.078-1.043-3.457v-6.961h-1.488v-1.852h1.488v-3.762h2.204v3.762h4.546v1.852h-4.546v5.965q0 1.03.046 1.617.047.574.329 1.078.257.469.703.691.457.211 1.383.211.539 0 1.125-.152.585-.164.843-.27h.117zM62.108 317.841h-2.203v-7.453q0-.902-.106-1.688-.105-.796-.387-1.242-.293-.492-.843-.726-.551-.246-1.43-.246-.902 0-1.887.445-.984.445-1.887 1.137v9.773h-2.203v-18.234h2.203v6.597q1.032-.855 2.133-1.336 1.102-.48 2.262-.48 2.121 0 3.234 1.277 1.114 1.278 1.114 3.68zM77.307 311.525h-9.645q0 1.207.364 2.109.363.89.996 1.465.61.562 1.441.844.844.28 1.852.28 1.336 0 2.683-.527 1.36-.539 1.934-1.054h.117v2.402q-1.113.469-2.273.785-1.16.317-2.438.317-3.258 0-5.086-1.758-1.828-1.77-1.828-5.016 0-3.21 1.746-5.097 1.758-1.887 4.617-1.887 2.649 0 4.078 1.547 1.442 1.547 1.442 4.394zm-2.145-1.688q-.011-1.734-.879-2.683-.855-.95-2.613-.95-1.77 0-2.824 1.043-1.043 1.043-1.184 2.59zM88.815 307.154h-.117q-.493-.118-.961-.165-.457-.058-1.09-.058-1.02 0-1.969.457-.95.445-1.828 1.16v9.293h-2.203v-13.09h2.203v1.934q1.312-1.055 2.308-1.489 1.008-.445 2.051-.445.574 0 .832.035.258.024.774.106zM107.377 304.751l-3.41 13.09h-2.039l-3.363-10.09-3.34 10.09h-2.027l-3.446-13.09h2.297l2.402 10.137 3.27-10.137h1.816l3.352 10.137 2.273-10.137zM112.92 302.56h-2.484v-2.285h2.484zm-.14 15.281h-2.204v-13.09h2.204zM126.514 314.068q0 1.793-1.488 2.941-1.477 1.148-4.043 1.148-1.453 0-2.672-.34-1.207-.351-2.028-.761v-2.473h.118q1.043.785 2.32 1.254 1.277.457 2.45.457 1.452 0 2.273-.469.82-.468.82-1.476 0-.774-.445-1.172-.446-.399-1.711-.68-.47-.105-1.23-.246-.75-.14-1.372-.305-1.723-.457-2.45-1.335-.714-.891-.714-2.18 0-.809.328-1.524.34-.714 1.02-1.277.656-.55 1.664-.867 1.02-.328 2.273-.328 1.172 0 2.367.293 1.207.281 2.004.691v2.356h-.117q-.844-.621-2.05-1.043-1.208-.434-2.368-.434-1.207 0-2.039.469-.832.457-.832 1.37 0 .81.504 1.22.492.41 1.594.668.61.14 1.36.28.76.141 1.265.259 1.535.351 2.367 1.207.832.867.832 2.297zM140.635 311.525h-9.645q0 1.207.364 2.109.363.89.996 1.465.61.562 1.441.844.844.28 1.852.28 1.336 0 2.683-.527 1.36-.539 1.934-1.054h.117v2.402q-1.113.469-2.273.785-1.16.317-2.438.317-3.258 0-5.086-1.758-1.828-1.77-1.828-5.016 0-3.21 1.746-5.097 1.758-1.887 4.617-1.887 2.649 0 4.079 1.547 1.441 1.547 1.441 4.394zm-2.145-1.688q-.011-1.734-.878-2.683-.856-.95-2.614-.95-1.77 0-2.824 1.043-1.043 1.043-1.184 2.59zM165.338 317.841h-13.617v-2.156l10.7-13.23h-10.302v-2.063h12.961v2.097l-10.804 13.29h11.062zM179.764 311.9l-4.723-.059.059 4.547h-1.547l.059-4.547-4.723.059v-1.512l4.723.058v-4.898l-4.723.059v-1.512l4.723.059-.059-4.547h1.547l-.059 4.547 4.723-.06v1.513l-4.723-.059v4.898l4.723-.058z"/></g></svg>