<svg xmlns="http://www.w3.org/2000/svg" viewBox="0 0 348 348" fill="none"><path d="M5.079 5.776h336.913v337.67H5.08z" stroke-width="1.999" stroke="#000"/><path d="M282.734 40.554c0-8.376 6.966-15.165 15.56-15.165 4.126 0 8.084 1.597 11.001 4.441 2.918 2.844 4.558 6.702 4.558 10.724 0 8.376-6.966 15.165-15.56 15.165-8.593 0-15.559-6.79-15.559-15.165z" stroke-width="2" stroke="#000"/><path d="M15.562 16.16h95.312v39.1H15.562z" stroke="#000" stroke-width="1.999"/><path d="M28.84 122.919c0-7.08 5.886-12.817 13.15-12.817 3.487 0 6.832 1.35 9.297 3.753 2.466 2.404 3.852 5.664 3.852 9.064 0 7.078-5.887 12.816-13.15 12.816-7.263 0-13.15-5.738-13.15-12.816zM72.92 122.919c0-7.079 5.888-12.817 13.151-12.817 3.487 0 6.832 1.35 9.298 3.754 2.466 2.403 3.852 5.664 3.852 9.063 0 7.079-5.888 12.816-13.15 12.816-7.263 0-13.15-5.738-13.15-12.816zM115.332 122.583c0-7.08 5.887-12.817 13.15-12.817 3.487 0 6.832 1.35 9.298 3.753 2.466 2.404 3.852 5.664 3.852 9.064 0 7.079-5.887 12.816-13.15 12.816-7.263 0-13.15-5.738-13.15-12.816zM159.414 122.583c0-7.079 5.887-12.816 13.15-12.816 3.487 0 6.832 1.35 9.297 3.753 2.466 2.403 3.852 5.664 3.852 9.063 0 7.079-5.887 12.817-13.15 12.817-7.262 0-13.15-5.739-13.15-12.817zM206.007 122.583c0-7.079 5.887-12.816 13.15-12.816 3.487 0 6.832 1.35 9.297 3.753 2.467 2.404 3.853 5.664 3.853 9.063 0 7.08-5.888 12.817-13.15 12.817-7.263 0-13.15-5.739-13.15-12.817zM248.418 122.247c0-7.079 5.887-12.817 13.15-12.817 3.487 0 6.832 1.35 9.298 3.754 2.466 2.403 3.852 5.664 3.852 9.063 0 7.079-5.887 12.817-13.15 12.817-7.263 0-13.15-5.739-13.15-12.817zM292.5 122.247c0-7.078 5.887-12.816 13.15-12.816 3.487 0 6.832 1.35 9.297 3.753 2.466 2.404 3.852 5.664 3.852 9.063 0 7.08-5.887 12.817-13.15 12.817-7.262 0-13.15-5.739-13.15-12.817zM49.06 157.07c0-7.08 5.888-12.817 13.151-12.817 3.487 0 6.832 1.35 9.297 3.753 2.467 2.404 3.853 5.664 3.853 9.064 0 7.078-5.888 12.816-13.15 12.816-7.263 0-13.15-5.738-13.15-12.816zM91.472 156.733c0-7.079 5.887-12.816 13.15-12.816 3.487 0 6.832 1.35 9.298 3.753 2.466 2.404 3.852 5.664 3.852 9.063 0 7.08-5.887 12.817-13.15 12.817-7.263 0-13.15-5.739-13.15-12.817zM135.553 156.734c0-7.08 5.888-12.817 13.15-12.817 3.488 0 6.833 1.35 9.298 3.753 2.466 2.404 3.852 5.665 3.852 9.064 0 7.079-5.887 12.816-13.15 12.816-7.262 0-13.15-5.738-13.15-12.816zM182.147 156.734c0-7.079 5.887-12.817 13.15-12.817 3.487 0 6.832 1.35 9.297 3.754 2.466 2.403 3.853 5.664 3.853 9.063 0 7.079-5.888 12.816-13.15 12.816-7.263 0-13.15-5.738-13.15-12.816zM224.558 156.398c0-7.08 5.887-12.817 13.15-12.817 3.487 0 6.832 1.35 9.298 3.753 2.466 2.404 3.852 5.664 3.852 9.064 0 7.078-5.888 12.816-13.15 12.816-7.263 0-13.15-5.738-13.15-12.816zM268.64 156.398c0-7.079 5.887-12.816 13.15-12.816 3.487 0 6.832 1.35 9.297 3.753 2.466 2.403 3.852 5.664 3.852 9.063 0 7.079-5.887 12.817-13.15 12.817-7.262 0-13.15-5.739-13.15-12.817z" stroke="#000" stroke-width="1.69"/><path d="M25.958 213.012h297.288v110.425H25.959z" stroke="#000" stroke-width="1.999"/><path d="M72.016 213.875c-.013 1.57.6 3.02 1.152 4.458.792 1.836 1.807 3.562 2.662 5.366.687 1.157 1.385 2.298 1.97 3.513a13.936 13.936 0 011.172 3.973c.385 1.723.564 3.47.687 5.227.12 2.375.071 4.755.073 7.133.017 2.596.004 5.191-.004 7.787.044 3.05-.095 6.095-.59 9.107-.482 2.552-.851 5.122-1.384 7.666-.484 2.029-.774 4.096-1.226 6.132-.506 2.027-.97 4.06-1.37 6.11-.358 1.787-.865 3.536-1.14 5.34a90.865 90.865 0 01-.728 4.695c-.383 1.644-.56 3.317-.663 4.999-.065 1.644-.07 3.29-.065 4.935a19.04 19.04 0 00.262 3.949c.324 1.38.903 2.685 1.51 3.96.612 1.171 1.35 2.268 2.14 3.327.808.79 1.486 1.7 2.145 2.615.702.882 1.297 1.833 1.938 2.755.514.795.88 1.672 1.347 2.492l.252.356-7.668 4.524-.309-.433c-.446-.804-.81-1.653-1.297-2.436-.61-.93-1.204-1.87-1.914-2.731-.668-.903-1.327-1.815-2.114-2.621a25.945 25.945 0 01-2.203-3.491c-.646-1.346-1.243-2.73-1.659-4.165-.222-1.363-.403-2.708-.294-4.095.008-1.664.004-3.329.078-4.992.07-1.71.18-3.425.585-5.095.312-1.542.513-3.112.753-4.664.252-1.835.734-3.606 1.16-5.406.439-2.048.819-4.106 1.363-6.132.495-2.034.742-4.113 1.26-6.141.609-2.533.969-5.114 1.476-7.669.574-2.953.73-5.947.626-8.953-.004-2.595-.011-5.19.004-7.786-.006-2.346-.03-4.693-.14-7.037-.102-1.732-.295-3.453-.697-5.144a13.007 13.007 0 00-1.08-3.72c-.576-1.223-1.285-2.366-1.916-3.559-.809-1.846-1.833-3.588-2.67-5.422-.59-1.528-1.26-3.025-1.446-4.67l7.961-4.057z" stroke-width="1.999" stroke-linejoin="round"/><path d="M45.524 207.252c.024 1.933.696 3.744 1.456 5.491 2.384 4.798 5.015 9.46 7.62 14.137 2.258 4.216 4.695 8.336 7.175 12.423 1.324 2.267 2.579 4.563 3.604 6.98.673 1.466.981 3.018 1.117 4.614.076 1.48.122 2.97.02 4.45-.183 1.607-1.117 2.82-2.163 3.978-1.089.983-2.306 1.827-3.518 2.652-3.248 2.116-.073.065-8.784 5.038-.7.4-1.252.754-2.073.806-1.368-.462-1.395-2.174-1.48-3.39a194.393 194.393 0 01-.024-6.305c.052-2.306.387-4.57.903-6.813.327-1.679.812-3.316 1.496-4.883 1.676-3.21 1.515-1.934 8.501-4.702.36-.142.431 2.356.436 2.444.022 3.531-.014 7.062-.017 10.594a69.952 69.952 0 01-.713 10.98c-.513 2.51-1.014 5.021-1.53 7.53-.482 1.648-.786 3.332-1.114 5.013-1.117 3.613-.884 1.731-8.458 4.902-.237.1-1.033-1.33-1.114-1.47-.584-1.18-.725-2.485-.812-3.78-.211-1.004.264-2.244-.217-3.178-.037.008-.102-.012-.11.025-.028.113-.085.403.019.35 2.567-1.326 5.008-2.884 7.55-4.259.12-.065-.19.202-.265.318-.119.185-.48.933-.571 1.116-.712 2.037-.97 4.217-1.39 6.332-.66 2.945-1.088 5.934-1.623 8.902-.564 2.831-.811 5.704-.955 8.582-.103 2.47-.055 4.943-.05 7.415-.035 1.845.229 3.676.6 5.478.261 1.58.653 3.122 1.081 4.662.525 1.73.616 3.538.705 5.331.069 1.514.084 3.028.09 4.543.068.79.022.394.14 1.19l-7.835 4.148c-.143-.864-.077-.425-.197-1.318.011-1.514.03-3.028-.007-4.541-.063-1.727-.16-3.465-.634-5.138-.447-1.557-.883-3.114-1.103-4.725-.377-1.862-.686-3.751-.634-5.658.003-2.5.056-4.997.122-7.495.109-2.919.344-5.831.928-8.699.538-2.96.945-5.943 1.578-8.884.369-2.15.709-4.305 1.128-6.443.157-.38.355-.743.506-1.126.06-.155-.003-.39.137-.48 3.523-2.256 6.172-6.939 8.557-4.022.494 1.108.255 2.32.328 3.504.052 1.157.117 2.34.62 3.406.18.299.284.535.56.757.082.066.371.088.281.142-2.49 1.481-5.109 2.736-7.6 4.214-.107.063.248.127.363.08.142-.06.199-.236.298-.354.501-1.647.588-3.414 1.22-5.033.56-2.517 1.095-5.038 1.677-7.55.62-3.601.927-7.251.868-10.908-.001-3.472.014-6.948-.198-10.415-.028-.307-.05-.614-.084-.92-.022-.193-.063-.385-.087-.578-.005-.032-.028-.08 0-.096 2.568-1.421 5.162-2.794 7.744-4.191-.467.057-.24-.036-.642.365-.876 1.433-1.327 3.116-1.695 4.741-.55 2.181-.926 4.377-.999 6.633.01 2.068-.035 4.138.077 6.204.041.557-.034 1.634.365 2.105.072.085.372-.038.379-.04.47-.193.9-.43 1.35-.667.179-.095.716-.378.542-.275-5.85 3.438-9.449 5.426-6.36 3.715 1.205-.823 2.384-1.674 3.588-2.498 1.045-.956 2.038-2.021 2.402-3.43.204-1.425.068-2.875.053-4.31-.098-1.511-.332-2.998-.922-4.405-.957-2.405-2.098-4.716-3.348-6.985a598.701 598.701 0 01-6.927-12.588 666.787 666.787 0 00-7.975-14c-.915-1.81-1.657-3.655-1.918-5.681l7.962-4.057zM57.632 185.11c2.43 9.187 7.28 17.55 11.752 25.866l-6.425 3.681c-4.449-8.401-9.053-16.742-13.133-25.327l7.806-4.22z" stroke-width="1.999" stroke-linejoin="round"/><path d="M86.855 272.926c-1.41-1.496-2.355-3.312-3.275-5.13-1.958-4.063-3.627-8.262-5.345-12.432-1.799-4.493-3.554-9.006-5.135-13.58-1.389-4.06-2.45-8.218-3.521-12.369-.978-3.454-1.772-6.958-2.664-10.435-.488-2.333-.993-4.665-1.674-6.95-.423-1.512-.998-2.976-1.39-4.497-.367-1.133-.597-2.299-.98-3.425-.472-1.05-.755-1.28-1.873-1.466-1.851-.334-3.628-.101-5.419.398-1.758.514-3.535 1.008-5.242 1.675-2.767 1.345-6.722 3.627 5.66-3.315.213-.12-.41.263-.614.397-.725.482-.532.354-1.239.91-2.015 1.767-3.482 4.003-4.722 6.353-1.623 3.498-2.222 7.29-2.602 11.09-.366 3.953.576 6.91 1.972 10.517 1.918 4.456 4.954 8.36 8.032 12.073 3.036 3.723 6.593 6.91 10.346 9.881a44.312 44.312 0 007.892 5.133c2.245.993 4.521 1.888 6.871 2.596 2.238.571 4.439 1.24 6.717 1.633 2.008.374 3.997.837 6.01 1.185 1.187.185 2.412.408 3.525.874l-7.372 4.96a20.88 20.88 0 00-3.348-.805c-1.994-.39-3.98-.823-5.974-1.213-2.282-.46-4.52-1.107-6.763-1.726-2.362-.771-4.678-1.66-6.912-2.754-2.815-1.502-5.41-3.307-7.857-5.36-3.715-3.071-7.162-6.414-10.224-10.15-3.136-3.782-6.398-7.644-8.401-12.168-1.443-3.6-2.502-6.933-2.135-10.884.361-3.866.92-7.721 2.396-11.344 1.146-2.389 2.493-4.677 4.383-6.565.55-.55 1.11-1.034 1.786-1.43 3.161-1.851 6.131-3.997 9.536-5.32 1.726-.561 3.454-1.12 5.22-1.547 1.908-.414 3.845-.553 5.77-.128 1.303.406 1.833.973 2.368 2.209.384 1.157.603 2.351.987 3.51.342 1.526.908 2.987 1.283 4.505.671 2.315 1.144 4.68 1.593 7.045.776 3.513 1.556 7.028 2.52 10.494 1.08 4.132 2.045 8.298 3.44 12.339 1.555 4.57 3.23 9.097 5.047 13.57 1.719 4.13 3.414 8.29 5.55 12.225.966 1.759 1.964 3.49 3.462 4.861l-7.685 4.56z" stroke-width="1.999" stroke-linejoin="round"/><path d="M42.747 214.941c1.6 5.941 4.721 13.054 7.827 19.267 10.946 21.89-23.97 53.095-3.612 73.453 4.113 4.113-2.923 20.916 4.094 17.087M72.015 213.875c-20.831 15.537-6.364 100.036 2.164 109.986M88.505 216.145c-.184 7.685-.602 15.14-.602 22.88 0 17.516-3.612 33.288-3.612 50.574 0 8.064 1.204 21.142 1.204 29.501 0 1.204.986 4.304 0 3.613-1.215-.852-2.226-1.962-3.34-2.943M107.17 211.93c-2.05 11.062 5.996 17.387 9.03 26.492 3.176 9.525-11.214 23.183-13.245 31.308-4.123 16.493.905 40.326-1.204 52.983M125.834 213.135c10.818 36.245 2.408 76.373 2.408 110.18M150.519 215.543c1.5 12.139-8.473 34.23-2.408 46.36 3.321 6.643 14.345 21.282 9.633 30.706-4.832 9.663-10.837 19.394-10.837 30.706M172.796 322.11c11.705-21.842-4.817-38.657-4.817-61.411 0-6.536 6.184-15.766 4.817-19.869-3.12-9.36-8.423-19.229-9.633-26.49M192.664 214.34c-9 33.409 6.987 58.513-2.408 86.698-.413 1.24-.87 11.172 0 12.042 4.284 4.284 5.244 8.408 5.419 9.633M205.91 323.917c-3.28-17.436 8.64-40.713 1.806-57.8-1.58-3.949-7.23-9.611-6.02-14.45 3.265-13.06 7.224-23.89 7.224-37.93M225.176 214.34c.793 8.237-1.395 17.295.603 25.286 2.733 10.934 13.068 27.024 9.03 39.135-6.05 18.153-14.135 31.384-12.04 43.952M249.26 320.907c-.87-13.93-9.893-30.271-6.021-45.758.963-3.853 12.042-15.05 11.44-16.858-5.461-16.382-10.236-29.313-10.236-44.554M264.913 213.737c5.215 7.745 10.308 15.798 14.45 24.083 4.573 9.145-8.963 39.6-12.643 46.962-5.988 11.975 3.01 32.189 3.01 39.135M298.028 322.713c4.816-14.404-11.666-31.833-7.225-45.156 2.6-7.8 12.305-24.76 7.827-33.716-4.157-8.314-6.623-19.252-6.623-28.9" stroke="#000"/></svg>