<svg xmlns="http://www.w3.org/2000/svg" width="20mm" height="20mm" viewBox="0 0 20 20"><g transform="translate(0 -277)"><path stroke="#000" stroke-width=".2" fill="none" d="M.118 277.062h19.915v19.844H.118z"/><path fill="none" stroke="#000" stroke-width=".2" d="M16.631 277.109h3.378v2.669h-3.378z"/><path stroke="#000" stroke-width=".2" d="M.921 278.739h14.127v8.434H.921z"/><path fill="none" stroke="#000" stroke-width=".2" d="M16.088 284.787h1.914v1.772h-1.914zM1.37 289.724h1.866v1.843H1.37zM4.122 289.724h1.866v1.843H4.122zM7.122 289.7h1.866v1.843H7.122zM9.839 289.7h1.866v1.843H9.839zM12.58 289.7h1.866v1.843H12.58zM1.347 292.819h13.536v1.559H1.347z"/><text style="line-height:1.25" x="6.048" y="293.456" font-weight="400" font-size="1.411" font-family="sans-serif" letter-spacing="0" word-spacing="0" stroke-width=".265"/><text style="line-height:1.25" x="5.433" y="294.118" font-weight="400" font-size="1.411" font-family="sans-serif" letter-spacing="0" word-spacing="0" stroke-width=".265"><tspan x="5.433" y="294.118">Submit</tspan></text><text style="line-height:1.25" x="1.89" y="291.118" font-weight="400" font-size="1.411" font-family="sans-serif" letter-spacing="0" word-spacing="0" stroke-width=".265"><tspan x="1.89" y="291.118">1</tspan></text><text style="line-height:1.25" x="4.63" y="291.165" font-weight="400" font-size="1.411" font-family="sans-serif" letter-spacing="0" word-spacing="0" stroke-width=".265"><tspan x="4.63" y="291.165">2</tspan></text><text style="line-height:1.25" x="7.678" y="291.118" font-weight="400" font-size="1.411" font-family="sans-serif" letter-spacing="0" word-spacing="0" stroke-width=".265"><tspan x="7.678" y="291.118">3</tspan></text><text style="line-height:1.25" x="10.253" y="291.07" font-weight="400" font-size="1.411" font-family="sans-serif" letter-spacing="0" word-spacing="0" stroke-width=".265"><tspan x="10.253" y="291.07">4</tspan></text><text style="line-height:1.25" x="13.04" y="291.141" font-weight="400" font-size="1.411" font-family="sans-serif" letter-spacing="0" word-spacing="0" stroke-width=".265"><tspan x="13.04" y="291.141">5</tspan></text><text style="line-height:1.25" x="16.489" y="286.133" font-weight="400" font-size="1.411" font-family="sans-serif" letter-spacing="0" word-spacing="0" stroke-width=".265"><tspan x="16.489" y="286.133">R</tspan></text><circle cx="18.32" cy="278.42" r=".886" fill="none" stroke="#000" stroke-width=".2"/></g></svg>