<svg xmlns="http://www.w3.org/2000/svg" stroke-width="2" viewBox="0 0 348 348"><path fill="teal" fill-opacity=".3" stroke="#000" d="M4 5h340v340H4z"/><circle cx="214.78" cy="73.78" r="5.78"/><circle cx="296.67" cy="38.67" r="15" fill="#fff" stroke="#000"/><path fill="#fff" stroke="#000" d="M11.75 14.38h62.32v65.98H11.75z"/><path d="M46.34 57.75h-2.59l-2.58-.01q-.92 0-1.28-.12-.67-.25-.67-1.03 0-1.36 2.05-1.36l.63.01.53.03q0-.65-.11-1.92-.1-1.27-.1-1.9 0-1.72.3-5.22.28-3.44.26-5.23-1.74 1.4-2.22 1.4-.53 0-.92-.4-.38-.4-.38-.93 0-.63 1.13-1.54.7-.51 1.99-1.65 1.15-1.2 2.2-1.2.87 0 .87 1.04 0 .31-.08.93-.08.61-.08.92 0 .45.04 1.35.05.9.05 1.35 0 1.54-.31 4.6-.32 3.05-.32 4.58 0 .78.1 1.9.11 1.12.13 1.84l1.37-.03q.54 0 .9.38.36.36.36.92t-.36.93q-.36.36-.9.36z" aria-label="1"/><path fill="#fff" stroke="#000" d="M85.48 14.66h62.32v65.99H85.48z"/><circle cx="140.93" cy="73.79" r="5.78"/><path d="M119.23 54.77q-.3 0-.84-.17-.52-.19-.8-.19-.6 0-1.8.07t-1.8.07q-.46 0-1.36.12-.9.12-1.35.12-.13 0-.37-.05t-.38-.05q-.8 0-1.05-.78-.14-.41-.14-1.41 0-2.73 1.48-4.4.68-.76 3.67-2.8 1.68-1.15 2.24-1.8 1-1.12 1-2.64 0-.75-.96-1.33-.86-.53-1.68-.53-1.08 0-2.05.62l-1.68 1.31q-.5.4-.8.4-1.21 0-1.21-.96 0-.55.44-.95 1.37-1.29 2.38-1.86 1.42-.81 2.92-.81 1.9 0 3.39 1.03 1.66 1.16 1.66 2.98 0 1.2-.34 2.2-.34 1-1.03 1.84-.88 1.06-2.98 2.36-2.2 1.38-2.9 2.1-1.3 1.34-1.27 3.26l2.41-.22q2.49-.14 3.55-.14.9 0 1.7.3 1.05.42 1.05 1.14 0 .46-.32.82-.32.35-.78.35z" aria-label="2"/><path fill="#fff" stroke="#000" d="M156.98 14.52h62.32V80.5h-62.32z"/><path d="M187.25 55.29q-1.77 0-3.17-.74-1.58-.85-2.14-2.4-.07-.21-.07-.41 0-.47.36-.78.36-.31.83-.31t.8.43l.55.81q.42.57 1.13.87.72.28 1.71.28 1.28 0 2.24-.8 1.02-.84 1.02-2.06 0-1.77-1.3-2.83-1.15-.9-3.05-1.1-1.3-.14-1.3-1.06 0-.7 1.02-1.06l2.8-.69q.81-.3 1.22-.78.41-.5.42-1.22.03-1.03-.8-1.67-.85-.65-2.4-.65-.8 0-1.54.38l-1.33.84q-.38.24-.62.24-.47 0-.8-.35-.33-.36-.33-.82 0-.93 1.79-1.78 1.56-.76 2.57-.76 2.52 0 4 1.11 1.57 1.2 1.57 3.41 0 2.75-2.22 3.63-.2.09-.46.17 1.56.57 2.33 1.72.78 1.14.78 2.85 0 2.3-1.63 3.92-1.63 1.6-3.98 1.6z" aria-label="3"/><path fill="#fff" stroke="#000" d="M11.75 92.17h62.32v65.98H11.75z"/><path d="M45.96 128.38v4.33q0 1.1-1.06 1.1-1.25 0-1.25-1.7 0-.21.03-.6l.02-.53-.01-2.66-5.17-.13q-1.6 0-2.23-.1-1.06-.18-1.06-.84 0-.52.64-1.33l1-1.2 5.78-8.41q.78-1.1 1.99-1.1 1.32 0 1.32 1.16v9.74q.2-.02.48-.02 2.16 0 2.16 1.16 0 .85-.9 1.07-.4.1-1.74.06zm-2.27-9.92q-3.13 5-4.89 7.48l4.89.12z" aria-label="4"/><path fill="#fff" stroke="#000" d="M85.48 92.46h62.32v65.98H85.48z"/><path d="M115.5 135.74q-3.33 0-4.9-2.46-.2-.34-.2-.66 0-.46.35-.78.37-.34.82-.34.48 0 .92.51.62.75.94.96.76.52 2.07.52 2.03 0 3.36-1.55 1.28-1.48 1.28-3.55 0-1.71-.56-2.78-.73-1.34-2.24-1.34-1.25 0-2.05.34-.63.26-1.28.92l-1.28 1.4q-.51.52-1.05.52-.47 0-.8-.33-.32-.34-.32-.8 0-.24.18-2.09.4-3.69.4-4.85 0-.41-.21-.9-.2-.48-.2-.72 0-.71 1.23-.71.23 0 .7.04.48.04.72.04.68 0 2.04-.05 1.36-.05 2.04-.05l.96.03.96.02q.22 0 .64-.08.42-.1.64-.1.45 0 .8.35.36.34.36.78 0 1.31-2.78 1.31l-.92-.02-.66-.02-1.98.03-1.98.06q0 .53-.44 3.9 1.6-1.27 4.28-1.27 2.58 0 3.94 2.01 1.15 1.71 1.15 4.36 0 3.16-1.86 5.22-1.92 2.13-5.07 2.13z" aria-label="5"/><path fill="#fff" stroke="#000" d="M156.98 92.32h62.32v65.98h-62.32z"/><path d="M187.16 135.1q-3.06 0-4.5-2.25-1.2-1.84-1.2-4.9 0-5.8 4.7-10.05l1.1-1.11q.81-.77 1.22-.77.47 0 .82.34.36.32.37.78.02.42-1.2 1.63l-2.39 2.33q-.95.96-1.63 2.9 1.02-.46 1.78-.68.77-.24 1.26-.24 2.74 0 4.2 1.47 1.47 1.46 1.47 4.13 0 2.8-1.58 4.57-1.65 1.84-4.42 1.84zm0-9.63q-1 0-1.8.35-.3.14-1.54.9-.07.63-.07 1.23 0 2.1.7 3.42.9 1.69 2.78 1.69 1.77 0 2.74-1.27.9-1.17.9-3.1 0-1.61-.92-2.4-.93-.82-2.79-.82z" aria-label="6"/><path fill="#fff" stroke="#000" d="M11.75 169.1h62.32v65.99H11.75z"/><path d="m48.94 196.2-1.07 1.24q-1.52 1.78-2.8 4.31l-2.13 4.68q-.22.51-.99 2.7-.6 1.74-1.13 2.6-.33.54-.94.54-.47 0-.83-.33-.35-.32-.35-.78 0-.45.75-2.29l2.63-6.45q1.75-3.83 3.59-5.9l.22-.25-5.88-.12-2.64-.07q-1.14-.1-1.14-1.13 0-.49.33-.8.33-.32.82-.32 1.48 0 4.43.1 2.97.09 4.44.09h2.15q1.24 0 1.24.73 0 .55-.7 1.44z" aria-label="7"/><path fill="#fff" stroke="#000" d="M85.48 169.4h62.32v65.97H85.48z"/><path d="M116.11 212.13q-2.47 0-4-1.07-1.73-1.22-1.77-3.58-.04-3.78 2.66-5.16-2.08-1.26-2.08-3.6 0-2.2 1.6-3.67 1.54-1.4 3.73-1.43 4.92-.05 4.92 4.86 0 1.4-.56 2.17-.46.63-1.77 1.3 1.75.88 2.45 1.9.82 1.2.82 3.3 0 2.38-1.77 3.74-1.64 1.24-4.23 1.24zm.1-16.41q-1.5 0-2.3.85-.72.8-.7 2.16 0 1.64 2.69 2.33 1.4-.41 2.01-.82.98-.66.98-1.76 0-1.6-.72-2.24-.6-.52-1.96-.52zm-.2 7.41q-1.87.87-2.49 1.5-.97.98-.91 2.75.04 1.46 1.34 2.19.95.51 2.16.51 2.06 0 2.88-.97.66-.77.66-2.34 0-1.54-1.2-2.48-.8-.64-2.45-1.16z" aria-label="8"/><path fill="#fff" stroke="#000" d="M156.98 169.25h62.32v65.98h-62.32z"/><path d="M189.35 210.08q-.85.63-2.74 1.52-2.1 1.01-2.92 1.01-.48 0-.8-.35-.3-.35-.3-.82 0-.69.8-1.04l1.95-.67q1.82-.74 2.87-1.7 1.06-.96 1.93-2.73l.5-1q-.66.37-1.69.68-1.03.32-1.67.32-2.22 0-3.83-1.23-1.97-1.5-1.97-4.26 0-3.27 2.01-4.91 1.73-1.4 4.53-1.4 2.15 0 3.86 1.76 1.8 1.86 1.82 4.5.01 2.97-1.1 5.78-1.2 3.02-3.25 4.54zm-1.66-14.58q-1.97 0-2.97 1.02-.98 1.02-1 3.07 0 1.73 1.21 2.68 1.07.83 2.69.83.93 0 1.95-.57.47-.25 1.7-1.16.14-1.02.14-1.61 0-1.47-1.24-2.86-1.22-1.4-2.48-1.4z" aria-label="9"/><path fill="#fff" stroke="#000" d="M230.43 169.25h62.32v65.98h-62.32z"/><path d="M260.82 211.2q-3.56 0-5.2-3.25-1.24-2.5-1.24-6.53 0-3.4 1.62-5.93 1.9-2.96 5.19-2.96 3.08 0 4.8 2.62 1.49 2.28 1.49 5.54 0 5.25-1.66 7.9-1.67 2.62-5 2.62zm.36-16.41q-2.18 0-3.46 2.21-1.07 1.85-1.07 4.23 0 3.86 1.05 5.8 1.04 1.93 3.13 1.93 2.48 0 3.56-2.84.75-1.97.75-5 0-3.17-1-4.75-.98-1.58-2.96-1.58z" aria-label="0"/><path stroke="#000" d="M12 246.75h318.75v87.75H12z"/><path fill="#fff" d="M169.16 301.6q-3.06 0-4.5-2.25-1.2-1.84-1.2-4.9 0-5.8 4.7-10.05l1.1-1.11q.81-.77 1.22-.77.47 0 .82.34.36.32.37.78.02.42-1.2 1.63l-2.39 2.33q-.95.96-1.63 2.9 1.02-.46 1.78-.68.77-.24 1.26-.24 2.74 0 4.2 1.47 1.47 1.46 1.47 4.13 0 2.8-1.58 4.57-1.65 1.84-4.42 1.84zm0-9.63q-1 0-1.8.35-.3.14-1.54.9-.07.63-.07 1.23 0 2.1.7 3.42.9 1.69 2.78 1.69 1.77 0 2.74-1.27.9-1.17.9-3.1 0-1.61-.92-2.4-.93-.82-2.79-.82z" aria-label="6"/><path stroke="#000" d="M233.63 97.63h54.75v54.75h-54.75z"/><path fill="#fff" d="M259.88 134.16q-1.77 0-3.18-.73-1.58-.86-2.13-2.4-.07-.22-.07-.42 0-.47.35-.77.37-.32.83-.32.47 0 .81.44l.54.8q.42.58 1.14.87.71.28 1.7.28 1.29 0 2.25-.8 1.02-.84 1.02-2.06 0-1.77-1.3-2.82-1.15-.91-3.05-1.11-1.3-.13-1.3-1.06 0-.69 1.02-1.05l2.8-.7q.8-.29 1.22-.78.4-.5.42-1.22.02-1.03-.8-1.66-.85-.66-2.4-.66-.8 0-1.55.39l-1.32.83q-.39.25-.62.25-.47 0-.81-.36-.33-.36-.33-.82 0-.92 1.8-1.78 1.55-.76 2.56-.76 2.52 0 4 1.11 1.58 1.2 1.58 3.41 0 2.76-2.23 3.64l-.45.16q1.55.58 2.33 1.72.77 1.14.77 2.85 0 2.31-1.63 3.93-1.63 1.6-3.97 1.6z" aria-label="3"/><circle cx="67.85" cy="73.84" r="5.78"/><circle cx="213.06" cy="73.92" r="5.78"/><circle cx="213.21" cy="151.21" r="5.78"/><circle cx="141.25" cy="151.94" r="5.78"/><circle cx="68.17" cy="151.03" r="5.78"/><circle cx="68.33" cy="228.7" r="5.78"/><circle cx="142.09" cy="228.59" r="5.78"/><circle cx="213.87" cy="228.68" r="5.78"/><circle cx="286.77" cy="229.7" r="5.78"/></svg>