<svg xmlns="http://www.w3.org/2000/svg" viewBox="0 0 348 348" fill="none"><path d="M5.079 5.776h336.913v337.67H5.08z" stroke-width="2" stroke="#000"/><path d="M282.734 40.554c0-8.376 6.966-15.165 15.56-15.165 4.126 0 8.084 1.597 11.001 4.441 2.918 2.844 4.558 6.702 4.558 10.724 0 8.376-6.966 15.165-15.56 15.165-8.593 0-15.559-6.79-15.559-15.165z" stroke-width="2" stroke="#000"/><text style="line-height:1.25" x="89.212" y="67.831" font-weight="400" font-size="64" font-family="sans-serif" letter-spacing="0" word-spacing="0" fill="#000"/><ellipse cx="46.107" cy="166.928" rx="30.229" ry="60.089" fill="#fff" stroke="#000"/><ellipse cx="113.658" cy="166.775" rx="30.229" ry="60.089" fill="#fff" stroke="#000"/><ellipse cx="178.908" cy="167.099" rx="30.229" ry="60.089" fill="#fff" stroke="#000"/><circle cx="61.932" cy="283.856" r="44.975" fill="#fff" stroke="#000"/><circle cx="162.203" cy="283.856" r="44.975" fill="#fff" stroke="#000"/><circle cx="287.174" cy="284.962" r="35.86" fill="#fff" stroke="#000" stroke-width=".797"/><path fill="#fff" stroke="#000" d="M263.458 105.649h25.068v25.068h-25.068zM310.154 114.204l17.726 17.726-17.726 17.726-17.726-17.725zM311.89 154.303h25.068v25.068H311.89zM311.15 183.562l17.727 17.725-17.726 17.726-17.726-17.725zM263.669 203.567h25.068v25.068h-25.068zM241.336 184.883l17.726 17.726-17.726 17.726-17.726-17.726zM214.25 155.577h25.068v25.068H214.25zM240.015 115.545l17.726 17.725-17.726 17.726-17.726-17.725z"/><path d="M263.458 130.717c-5.718 2.553-23.443 20.28-23.443 20.28l-.698 4.58v25.068l2.02 4.238 17.725 17.726 4.607.958h25.068l4.689-2.28 17.725-17.726.739-4.19v-25.068l-1.736-4.647-17.725-17.726-3.903-1.213z" stroke="#000"/><path fill="#fff" stroke="#000" d="M20.332 29.2h160.052v59.954H20.332zM195.242 29.2h80.026v59.954h-80.026z"/><text style="line-height:1.25" x="57.869" y="77.945" font-weight="400" font-size="53.333" font-family="sans-serif" letter-spacing="0" word-spacing="0" fill="#000"><tspan x="57.869" y="77.945">###</tspan></text><text style="line-height:1.25" x="212.186" y="74.296" font-weight="400" font-size="42.667" font-family="sans-serif" letter-spacing="0" word-spacing="0" fill="#000"><tspan x="212.186" y="74.296">##</tspan></text><text style="line-height:1.25" x="259.107" y="188.991" font-weight="400" font-size="64" font-family="sans-serif" letter-spacing="0" word-spacing="0" fill="#000"><tspan x="259.107" y="188.991">#</tspan></text><text style="line-height:1.25" x="45.357" y="305.25" font-weight="400" font-size="64" font-family="sans-serif" letter-spacing="0" word-spacing="0" fill="#000"><tspan x="45.357" y="305.25">#</tspan></text><text style="line-height:1.25" x="146.497" y="304.207" font-weight="400" font-size="64" font-family="sans-serif" letter-spacing="0" word-spacing="0" fill="#000"><tspan x="146.497" y="304.207">#</tspan></text><text style="line-height:1.25" x="275.901" y="302.491" font-weight="400" font-size="64" font-family="sans-serif" letter-spacing="0" word-spacing="0" fill="#000"><tspan x="275.901" y="302.491">-</tspan></text><text style="line-height:1.25" x="37.537" y="164.488" font-weight="400" font-size="64" font-family="sans-serif" letter-spacing="0" word-spacing="0" fill="#000"/></svg>