<svg xmlns="http://www.w3.org/2000/svg" version="1.2" viewBox="0 0 348 348"><style>.s0,.s1{fill:none;stroke:#000;stroke-width:2}.s1{fill:#000;paint-order:stroke fill markers;stroke-linejoin:round;stroke-width:4}.s3{fill:#fff}.s4{fill:#000}</style><path id="Shape 6" d="M198 301h62v30h-62zm-110 0h62v30H88z" class="s0"/><path id="Shape 1" d="M33 115h53v53H33z" class="s1"/><path id="Shape 1 copy 5" fill="none" stroke="#000" stroke-linejoin="round" stroke-width="4" d="M33 45h53v53H33z" paint-order="stroke fill markers"/><path id="Shape 1 copy" d="M91 115h53v53H91z" class="s1"/><path id="Shape 1 copy 2" d="M149 115h53v53h-53z" class="s1"/><path id="Shape 1 copy 3" d="M207 115h53v53h-53z" class="s1"/><path id="Shape 1 copy 4" d="M265 115h53v53h-53z" class="s1"/><path id="Layer" d="M5.1 5.8H342v337.6H5.1z" class="s0"/><path id="#" d="M65 142.2h3.2v2.8h-3.6l-1.1 8h-3l1.1-8h-4.2l-1.2 8h-3l1.1-8h-3.6v-2.8h4l.7-5h-3.6v-2.8h4l1.1-8H60l-1.2 8H63l1.1-8h3.1l-1.1 8h3.2v2.8h-3.6zm-3 0 .6-4.9h-4.2l-.7 4.9z" aria-label="#" class="s3"/><path id="0" d="M59 80.9q4.9 0 4.9-10.2T59 60.5q-4.9 0-4.9 10.2T59 80.9zm0-24q5.2 0 7.4 4.6 1.8 3.5 1.8 9.2 0 5.7-1.8 9.2-2.2 4.6-7.4 4.6t-7.4-4.6q-1.8-3.5-1.8-9.2 0-5.7 1.8-9.2 2.2-4.6 7.4-4.6z" aria-label="0" class="s4"/><path d="M122 142.2h3.2v2.8h-3.6l-1.1 8h-3l1.1-8h-4.2l-1.2 8h-3l1.1-8h-3.6v-2.8h4l.7-5h-3.6v-2.8h4l1.1-8h3.1l-1.2 8h4.2l1.1-8h3.1l-1.1 8h3.2v2.8h-3.6zm-3 0 .6-4.9h-4.2l-.7 4.9zm62 0h3.2v2.8h-3.6l-1.1 8h-3l1.1-8h-4.2l-1.2 8h-3l1.1-8h-3.6v-2.8h4l.7-5h-3.6v-2.8h4l1.1-8h3.1l-1.2 8h4.2l1.1-8h3.1l-1.1 8h3.2v2.8h-3.6zm-3 0 .6-4.9h-4.2l-.7 4.9zm60 0h3.2v2.8h-3.6l-1.1 8h-3l1.1-8h-4.2l-1.2 8h-3l1.1-8h-3.6v-2.8h4l.7-5h-3.6v-2.8h4l1.1-8h3.1l-1.2 8h4.2l1.1-8h3.1l-1.1 8h3.2v2.8h-3.6zm-3 0 .6-4.9h-4.2l-.7 4.9zm61 0h3.2v2.8h-3.6l-1.1 8h-3l1.1-8h-4.2l-1.2 8h-3l1.1-8h-3.6v-2.8h4l.7-5h-3.6v-2.8h4l1.1-8h3.1l-1.2 8h4.2l1.1-8h3.1l-1.1 8h3.2v2.8h-3.6zm-3 0 .6-4.9h-4.2l-.7 4.9z" aria-label="#" class="s3"/><path d="M282.7 40.6c0-8.4 7-15.2 15.6-15.2 4.1 0 8.1 1.6 11 4.4 2.9 2.9 4.6 6.7 4.6 10.8 0 8.3-7 15.1-15.6 15.1s-15.6-6.8-15.6-15.1z" class="s0"/><path id="Shape 2" d="M28 191h291v30H28z" class="s0"/><path id="Shape 3" d="M42 227h264v31H42z" class="s0"/><path id="Shape 4" d="M71 262h205v31H71z" class="s0"/><path id="DLT" d="M107.2 310.4h-2.3v9.7h2.3q2.6 0 3.7-1.4.8-1.2.8-3.5t-.8-3.4q-1.1-1.4-3.7-1.4zm.9 11.6h-5.6v-13.6h5.6q3 0 4.6 2 1.4 1.8 1.4 4.8t-1.4 4.8q-1.6 2-4.6 2zm17.4 0h-9.3v-13.6h2.4v11.5h6.9zm4.6-11.5h-4.3v-2h11v2h-4.3V322h-2.4z" aria-label="DLT" class="s4"/><path id="SMT" d="M209.4 317.5h2.4q0 1.5 1 2.2.9.7 2.4.7t2.2-.7q.7-.5.7-1.4 0-1.2-1.1-1.6-.2-.1-4.1-1.2-3-.8-3-3.4 0-1.9 1.6-3 1.3-1 3.4-1 2.2 0 3.6 1.1 1.6 1.2 1.6 3.2h-2.4q-.2-2.4-2.9-2.4-1 0-1.7.4-.8.5-.8 1.4 0 1.3 1.6 1.8l3.9 1q1.3.4 2 1.4.6.9.6 2.1 0 2.1-1.6 3.2-1.5 1-3.7 1-2.5 0-4-1.1-1.7-1.3-1.7-3.7zm15.3 4.5h-2.2v-13.6h3.3l3.8 10.7 3.7-10.7h3.3V322h-2.3v-10.5l-3.8 10.5h-2l-3.7-10.5h-.1zm17.7-11.5h-4.3v-2h11v2h-4.3V322h-2.4z" aria-label="SMT" class="s4"/><path id="Q W E R T Y U I O" d="m43.2 211-1.4-1.3 1.2-1.4 1.7 1.5q1.2-1.4 1.2-3.9 0-2.3-1-3.8-1.2-1.7-3.3-1.7-2.1 0-3.3 1.7-1 1.5-1 3.8 0 2.2 1 3.7 1.2 1.7 3.3 1.7.9 0 1.6-.3zm3.2.3 1.9 1.6-1.3 1.4-2-1.8q-1.6.8-3.4.8-3.1 0-5-2.2-1.8-2.1-1.8-5.2 0-3.2 1.8-5.3 1.9-2.2 5-2.2t5 2.2q1.8 2.1 1.8 5.3 0 3.5-2 5.4zm20.4 1.7h-2.6l-3.8-14.3H63l2.6 10.9 2.9-10.9H71l2.8 10.9h.1l2.6-10.9h2.6l-4 14.3h-2.5l-2.9-10.9zm35.5 0H91.9v-14.3h10.2v2.2h-7.7v3.7h7.2v2h-7.2v4.2h7.9zm25.4-12.2h-4.1v4.4h4.1q2.5 0 2.5-2.2t-2.5-2.2zm-4.1 12.2h-2.5v-14.3h6.9q2.3 0 3.5 1.1 1.2 1 1.2 2.8 0 2.8-2.4 3.6 2.1.3 2.1 3.1 0 2.9.8 3.7h-2.7q-.3-.6-.3-2.1 0-2-.6-2.9-.6-.9-2.3-.9h-3.7zm31.5-12.1h-4.6v-2.1h11.6v2.1h-4.5V213h-2.5zm31.6 12.2h-2.5v-5.6l-5.4-8.7h2.9l3.8 6.4 3.7-6.4h2.8l-5.3 8.7zm23.2-5.2v-9.1h2.5v8.3q0 1.9.5 2.8.7 1.3 2.9 1.3 2.1 0 2.9-1.3.4-.9.4-2.8v-8.3h2.5v9.1q0 2.7-1.6 4.1-1.5 1.4-4.2 1.4t-4.3-1.4q-1.6-1.4-1.6-4.1zm39.4 5.2h-2.5v-14.3h2.5zm25.8-14.6q3.1 0 5 2.2 1.8 2.1 1.8 5.2 0 3.2-1.8 5.3-1.9 2.2-5 2.2t-5-2.2q-1.9-2.1-1.9-5.3 0-3.1 1.9-5.2 1.9-2.2 5-2.2zm0 2q-2.2 0-3.3 1.7-1.1 1.5-1.1 3.7 0 2.3 1.1 3.8 1.1 1.7 3.3 1.7 2.1 0 3.3-1.7 1-1.5 1-3.8 0-2.2-1-3.7-1.2-1.7-3.3-1.7zm32 .3h-3.7v4.8h3.6q1 0 1.7-.5.8-.7.8-1.9 0-2.4-2.4-2.4zm-3.7 12.3h-2.5v-14.3h6.3q2.7 0 3.9 1.5.9 1.2.9 2.9 0 1.8-.9 2.9-1.2 1.5-3.9 1.5h-3.8z" aria-label="Q W E R T Y U I O P" class="s4"/><path id="A S D F G H J K" d="M54.9 236.2h-.1l-2.1 6.1H57zM50.7 248h-2.6l5.5-14.2h2.6l5.5 14.2h-2.6l-1.4-3.7H52zm28.3-4.8h2.5q0 1.6 1 2.4 1 .7 2.6.7 1.5 0 2.3-.7.7-.6.7-1.5 0-1.3-1.2-1.8-.1 0-4.2-1.1-3.2-.9-3.2-3.7 0-2 1.6-3.1 1.5-1.1 3.6-1.1 2.4 0 3.9 1.2 1.6 1.3 1.6 3.4h-2.5q-.2-2.5-3.1-2.5-1 0-1.7.4-.9.5-.9 1.4 0 1.4 1.7 1.9 1.7.4 4.1 1.1 1.4.4 2.1 1.5.7.9.7 2.1 0 2.3-1.8 3.5-1.5 1-3.9 1-2.6 0-4.2-1.2-1.7-1.4-1.7-3.9zm35.4-7.5H112v10.2h2.4q2.8 0 3.9-1.5.9-1.2.9-3.6 0-2.4-.9-3.6-1.1-1.5-3.9-1.5zm1 12.3h-5.9v-14.3h5.9q3.1 0 4.8 2.1 1.5 1.9 1.5 5 0 3.2-1.5 5.1-1.7 2.1-4.8 2.1zm27.7 0h-2.5v-14.3h9.8v2.1h-7.3v3.8h6.4v2h-6.4zm32.4-7.5h6.1v7.5H180l-.4-1.7q-1 1.2-2 1.6-.9.5-2.3.5-3.1 0-5-2.3-1.8-2.1-1.8-5.2 0-3.2 1.8-5.3 1.9-2.2 5-2.2 2.5 0 4.1 1.2 1.8 1.3 2 3.7H179q-.2-1.4-1.3-2.1-1-.8-2.4-.8-2.1 0-3.3 1.7-1 1.5-1 3.8 0 2.2 1 3.7 1.2 1.7 3.3 1.7 1.9 0 2.9-1 1.1-1.1 1.1-2.9h-3.8zm27.9 7.5h-2.5v-14.3h2.5v5.7h6.5v-5.7h2.5V248h-2.5v-6.4h-6.5zm33.9-14.3h2.5v9.7q0 2.2-.8 3.4-1.1 1.5-3.9 1.5-2.1 0-3.2-1.3-1-1.2-1-3.3v-.7h2.5v.7q0 1.3.4 1.9.4.7 1.5.7 1.2 0 1.6-.7.4-.6.4-2.1zM262 248h-2.5v-14.3h2.5v6.5l6.4-6.5h3.1l-5.7 5.7 6.1 8.6h-3.1l-4.7-6.8-2.1 2zm37.7 0h-9.8v-14.3h2.5v12.1h7.3z" aria-label="A S D F G H J K L" class="s4"/><path id="Z X C V B N M" d="M83.5 272.9h-7.7v-2.2h10.9v1.9l-8.4 10.2h8.6v2.2H75.2v-2zm20.4 12.1 5.1-7.4-4.8-6.9h3l3.3 5 3.3-5h2.8l-4.7 6.9 5.1 7.4h-3.1l-3.5-5.5-3.6 5.5zm43.3-9.8h-2.5q-.7-2.8-3.5-2.8-2.2 0-3.4 1.7-1 1.5-1 3.7 0 2.3 1 3.8 1.2 1.7 3.4 1.7 1.6 0 2.5-1.1.9-1 1.1-2.7h2.4q-.1 2.6-1.8 4.2t-4.2 1.6q-3.2 0-5.1-2.2-1.8-2.1-1.8-5.3 0-3.1 1.8-5.2 1.9-2.2 5.1-2.2 2.4 0 4.1 1.2 1.7 1.4 1.9 3.6zm24.9 9.8h-2.8l-4.7-14.3h2.6l3.6 11.3 3.7-11.3h2.5zm29.9-6.5h-4.4v4.5h4.4q2.4 0 2.4-2.3 0-2.2-2.4-2.2zm-.4 6.5h-6.5v-14.3h6.9q2 0 3.1.9 1.2.9 1.2 2.7 0 2.1-2.1 3 2.7.6 2.7 3.7 0 1.8-1.2 2.8-1.4 1.2-4.1 1.2zm.1-12.2h-4.1v3.9h4.1q.9 0 1.5-.5t.6-1.5q0-1.9-2.1-1.9zm26.4 12.2h-2.4v-14.3h2.7l6.5 10.5v-10.5h2.4V285h-2.6l-6.5-10.5h-.1zm31.2 0h-2.4v-14.3h3.5l4 11.2 3.9-11.2h3.4V285h-2.3v-11h-.1l-3.9 11h-2.1l-4-11z" aria-label="Z X C V B N M" class="s4"/></svg>