<svg xmlns="http://www.w3.org/2000/svg" stroke="#000" fill="none" viewBox="0 0 348 348"><use href="#a" transform="translate(114)"/><use href="#a" transform="translate(58 -45)"/><use href="#a" transform="translate(-50 -50)"/><g stroke-width="2"><path d="M5 6h337v337H5z"/><path d="M283 41c0-9 7-16 15-16 4 0 8 2 11 5s5 7 5 11c0 8-7 15-16 15-8 0-15-7-15-15z"/></g><g stroke-width="3.8"><path d="m18 242 65-11 15 89-65 11z"/><path d="M84 213h66v93H84z" transform="rotate(14) skewX(1)"/><path fill="#fff" d="M25 228h66v105H25z"/></g><g id="b"><path stroke-width="3.8" d="M17 98h68v99H17z"/><path stroke-width="2" d="M26 108.5h50v78H26z"/></g><path stroke-width="2.4" d="M29.5 233h57v96H30z"/><use href="#b" transform="translate(247)"/><use href="#b" transform="translate(165)"/><use href="#b" transform="translate(82)"/><g id="a" stroke-linejoin="round"><circle cx="192.1" cy="310.1" r="19" stroke-width="2.5"/><circle cx="192.1" cy="310.1" r="27.3" stroke-width="3.6"/><path stroke="none" fill="#000" stroke-width="4.6" d="M187 283h10v8h-10zm-17 11 7-7 5 6-7 7zm-5 21v-10h8v10zm11 18-7-7 6-6 7 7zm21 5h-10v-9h10zm18-11-6 6-7-6 7-7zm5-22v10h-9v-10zm-12-18 7 7-6 6-7-7z"/></g></svg>