<svg xmlns="http://www.w3.org/2000/svg" fill="none" viewBox="0 0 348 348"><path stroke="#000" stroke-width="2" d="M5.08 5.78h336.91v337.67H5.08z"/><path stroke="#000" stroke-width="2" d="M282.73 40.55c0-8.37 6.97-15.16 15.56-15.16 4.13 0 8.09 1.6 11 4.44a14.97 14.97 0 0 1 4.56 10.72c0 8.38-6.96 15.17-15.56 15.17-8.59 0-15.56-6.8-15.56-15.17z"/><path fill="#000" stroke="#000" d="M41.29 36.13h197.6v42.76H41.28z"/><path fill="#fff" d="M75.2 71.12 58.52 60.03v-2.68L75.2 46.27v3.89L62.05 58.7l13.15 8.53zm24.94-14.4q0 4.4-1.28 7.96-1.28 3.57-3.4 5.53-1.48 1.37-3.3 1.97-1.8.6-4.77.6h-5.43V40.6h5.38q3.15 0 5 .7 1.86.67 3.15 1.86 2.2 2.05 3.42 5.46 1.23 3.42 1.23 8.1zm-2.99-.06q0-3.78-.88-6.37-.88-2.6-2.63-4.09-1.27-1.08-2.7-1.49-1.43-.43-3.43-.43h-2.69V69.1h2.69q2.07 0 3.6-.45 1.55-.46 2.83-1.69 1.6-1.53 2.4-4.04.81-2.5.81-6.27zm15.23 16.13h-8.5V69.5h2.82V43.9h-2.82v-3.3h8.5v3.29h-2.82V69.5h2.82zm20.54-9.19q0 1.88-.6 3.72-.57 1.84-1.63 3.11-1.15 1.38-2.7 2.16-1.53.78-3.7.78-2.33 0-4.2-.65-1.84-.65-3.76-1.92v-5.36h.2q1.63 2.03 3.77 3.13t4.02 1.1q2.66 0 4.13-1.49 1.5-1.49 1.5-3.97 0-2.14-.72-3.16-.7-1.01-2.12-1.58-1.09-.43-2.36-.71-1.25-.28-2.67-.71-2.86-.91-4.25-3.1-1.37-2.2-1.37-5.72 0-4.04 2.28-6.61 2.28-2.6 5.8-2.6 2.26 0 4.16.65 1.9.65 3.35 1.6v5.06h-.2q-1.23-1.56-3.24-2.58-2-1.03-4.09-1.03-2.3 0-3.7 1.42-1.39 1.43-1.39 3.68 0 2 .7 3.15t2.44 1.75q.93.3 2.63.74 1.7.43 2.89.89 2.4.95 3.61 2.87 1.22 1.92 1.22 5.38zm18.67-13.27q0 2.14-.5 3.98-.5 1.81-1.4 3.15-1.1 1.67-2.62 2.51-1.52.82-3.83.82h-2.87v12h-2.86V40.6h5.84q1.94 0 3.28.5 1.35.48 2.39 1.51 1.23 1.24 1.9 3.07.67 1.84.67 4.65zm-2.98.1q0-1.65-.39-2.89t-1.18-2q-.7-.68-1.6-.96-.87-.3-2.23-.3h-2.84v12.86h2.42q1.73 0 2.82-.45 1.08-.48 1.76-1.5.68-1.03.95-2.18.3-1.14.3-2.57zM169 72.8h-13.61V40.6h2.86v28.38H169zm19.83 0h-3.05l-2.11-8.97h-9.3l-2.12 8.97h-2.9l7.83-32.19h3.81zm-6.04-12.65L179 44.34l-3.8 15.8zm23.38-19.54-7.57 18.07V72.8h-2.86V59.13l-7.6-18.52h3.16L197.17 55l5.94-14.4zm20.64 19.43-16.68 11.1v-3.9l13.15-8.54-13.15-8.53v-3.9l16.68 11.1z" aria-label="&lt;DISPLAY&gt;"/><path fill="#000" stroke="#000" d="M315.66 113.55v197.59H272.9v-197.6z"/><path fill="#fff" d="m280.66 147.45 11.1-16.67h2.67l11.09 16.67h-3.89l-8.54-13.15-8.53 13.15zm14.4 24.95q-4.39 0-7.95-1.29-3.57-1.27-5.54-3.4-1.36-1.47-1.96-3.29-.61-1.8-.61-4.77v-5.43h32.18v5.37q0 3.15-.69 5-.67 1.87-1.86 3.15-2.05 2.2-5.47 3.43-3.41 1.23-8.1 1.23zm.06-3q3.79 0 6.38-.88 2.6-.88 4.08-2.63 1.09-1.27 1.5-2.7.43-1.43.43-3.42v-2.7h-24.84v2.7q0 2.06.46 3.6.45 1.54 1.68 2.83 1.54 1.6 4.05 2.4 2.5.8 6.26.8zM279 184.65v-8.5h3.29v2.82h25.6v-2.82h3.3v8.5h-3.3v-2.82h-25.6v2.82zm9.19 20.54q-1.88 0-3.72-.6-1.84-.58-3.11-1.63-1.39-1.16-2.17-2.7-.77-1.54-.77-3.7 0-2.33.64-4.2.65-1.84 1.93-3.76h5.36v.2q-2.03 1.63-3.14 3.77-1.1 2.14-1.1 4.02 0 2.66 1.5 4.13 1.48 1.49 3.97 1.49 2.14 0 3.16-.71 1.01-.7 1.57-2.12.44-1.09.72-2.36.28-1.26.71-2.67.9-2.87 3.1-4.25t5.72-1.38q4.04 0 6.61 2.29 2.6 2.28 2.6 5.8 0 2.26-.65 4.15-.65 1.9-1.6 3.36h-5.06v-.2q1.56-1.23 2.57-3.24 1.04-2 1.04-4.1 0-2.29-1.43-3.7-1.42-1.38-3.67-1.38-2.01 0-3.16.7-1.14.69-1.75 2.44-.3.92-.73 2.63-.43 1.7-.89 2.89-.95 2.4-2.87 3.61-1.93 1.22-5.38 1.22zm13.27 18.67q-2.14 0-3.98-.5-1.82-.5-3.16-1.4-1.66-1.1-2.5-2.63-.82-1.51-.82-3.83v-2.86h-12v-2.86h32.18v5.84q0 1.94-.5 3.28-.47 1.34-1.5 2.39-1.24 1.22-3.08 1.89-1.83.68-4.64.68zm-.11-2.98q1.66 0 2.9-.39t2-1.18q.67-.7.96-1.6.3-.88.3-2.23v-2.84h-12.86v2.42q0 1.73.45 2.81.48 1.09 1.5 1.77 1.03.68 2.18.95 1.14.3 2.57.3zM279 241.25v-13.62h32.18v2.87H282.8v10.75zm0 19.82v-3.04l8.97-2.11v-9.31L279 244.5v-2.9l32.18 7.83v3.81zm12.64-6.04 15.8-3.77-15.8-3.78zm19.54 23.39-18.07-7.58H279v-2.86h13.66l18.52-7.6v3.17l-14.4 5.88 14.4 5.94zm-19.43 20.63-11.09-16.67h3.9l8.53 13.15 8.54-13.15h3.89l-11.09 16.67z" aria-label="&lt;DISPLAY&gt;"/><path stroke="#000" stroke-width="2" d="M19.75 127.18v-21.03L36 90.89h22.42l15.72 15.72v22.2L59.4 143.25l-24.56-.34zm62 0v-21.03L98 90.89h22.42l15.72 15.72v22.2l-14.75 14.43-24.56-.34zm62 0v-21.03l16.27-15.26h22.4l15.73 15.72v22.2l-14.75 14.43-24.56-.34zm62 0v-21.03l16.27-15.26h22.4l15.73 15.72v22.2l-14.75 14.43-24.56-.34zm-186 60v-21.03L36 150.89h22.42l15.72 15.72v22.2L59.4 203.25l-24.56-.34zm62 0v-21.03L98 150.89h22.42l15.72 15.72v22.2l-14.75 14.43-24.56-.34zm62 0v-21.03l16.27-15.26h22.4l15.73 15.72v22.2l-14.75 14.43-24.56-.34zm62 0v-21.03l16.27-15.26h22.4l15.73 15.72v22.2l-14.75 14.43-24.56-.34zm-186 60v-21.03L36 210.89h22.42l15.72 15.72v22.2L59.4 263.25l-24.56-.34zm62 0v-21.03L98 210.89h22.42l15.72 15.72v22.2l-14.75 14.43-24.56-.34zm62 0v-21.03l16.27-15.26h22.4l15.73 15.72v22.2l-14.75 14.43-24.56-.34zm62 0v-21.03l16.27-15.26h22.4l15.73 15.72v22.2l-14.75 14.43-24.56-.34zm-186 60v-21.03L36 270.89h22.42l15.72 15.72v22.2L59.4 323.25l-24.56-.34zm62 0v-21.03L98 270.89h22.42l15.72 15.72v22.2l-14.75 14.43-24.56-.34zm62 0v-21.03l16.27-15.26h22.4l15.73 15.72v22.2l-14.75 14.43-24.56-.34zm62 0v-21.03l16.27-15.26h22.4l15.73 15.72v22.2l-14.75 14.43-24.56-.34z"/></svg>