<svg xmlns="http://www.w3.org/2000/svg" xml:space="preserve" viewBox="0 0 256 256"><style>.st0{stroke:#000;stroke-miterlimit:10;fill:none;stroke-width:2}</style><g id="Vrstva_1"><path d="M4 4h248v248H4z" class="st0"/><circle cx="231.7" cy="23.4" r="10.3" class="st0"/></g><g id="Vrstva_2"><path d="M80.6 65.6 30 14.9l-15 15 50.6 49.7" class="st0"/><circle cx="128" cy="128" r="78.3" class="st0"/><path d="M62.4 213.9c0-15.6-14.2-32.5-21.6-32.5-9.2 0-21.6 16.8-21.6 32.5s9.7 26.6 21.6 26.6 21.6-11 21.6-26.6z" class="st0"/><path fill="none" stroke="#000" stroke-miterlimit="10" stroke-width="4" d="m228.9 230.7-23.5-23.5"/><path d="M239.7 202.6c-.4 0-.7-.1-1-.2s-.5-.3-.7-.6-.3-.6-.3-1h1.2c0 .2.1.3.2.5.1.1.3.2.5.2s.4-.1.5-.2c.1-.1.2-.3.2-.5v-.2c0-.2 0-.4-.2-.6-.1-.1-.2-.2-.4-.2h-.5v-1.2h.5c.2 0 .3-.1.4-.2.1-.1.1-.3.1-.5v-.1c0-.2 0-.3-.1-.5-.1-.1-.2-.2-.4-.2s-.3.1-.4.2c-.1.1-.2.3-.2.5h-1.2c.1-.6.3-1.1.6-1.4.4-.3.8-.5 1.3-.5.6 0 1 .1 1.3.4.3.3.5.7.5 1.2v.2c0 .3-.1.6-.2.8-.1.2-.4.4-.6.5.3.1.5.2.7.5.2.3.3.6.3 1v.2c0 .6-.2 1-.5 1.3-.5.5-1 .6-1.6.6zm-15.9-8.5V193l2.2-2.9c.1-.1.2-.3.2-.4.1-.1.1-.3.1-.4 0-.2-.1-.3-.2-.4s-.3-.1-.5-.1-.4.1-.5.2c-.1.1-.2.3-.2.6h-1.2c0-.6.2-1.1.6-1.4.3-.3.8-.5 1.4-.5.6 0 1.1.1 1.4.4.3.3.5.7.5 1.2 0 .3-.1.6-.2.9a3 3 0 0 1-.4.8l-1.6 2h2.2v1.2h-3.8zm-15.1-6.4v6.4h-1.2v-5l-.8.3v-1.3l1-.4h1zm-13.9 14.9c-.6 0-1.1-.2-1.4-.5-.3-.3-.5-.8-.5-1.3v-2.9c0-.6.2-1 .5-1.3s.8-.5 1.4-.5c.6 0 1.1.2 1.4.5.3.3.5.8.5 1.3v2.9c0 .6-.2 1-.5 1.3-.3.4-.8.5-1.4.5zm0-1.1c.3 0 .4-.1.5-.3.1-.2.2-.4.2-.7v-2.3c0-.3-.1-.5-.2-.7-.1-.2-.3-.3-.5-.3s-.4.1-.5.3-.2.4-.2.7v2.3c0 .3.1.5.2.7.1.2.3.3.5.3z"/><circle cx="217.1" cy="219" r="21.1" class="st0"/><path d="M92 214h72v28H92z" class="st0"/><path d="m99.2 235.2 5.9-8.7 3.7-5.5h3.3l-5.4 8-4.2 6.2h-3.3zm9.9 0-4-5.8-.3-.5-5.4-7.9h3.3l3.7 5.4.4.6 5.6 8.2h-3.3z"/><path d="m112.3 235.2 5.9-8.7 3.7-5.5h3.3l-5.4 8-4.2 6.2h-3.3zm9.8 0-4-5.8-.3-.5-5.4-7.9h3.3l3.7 5.4.4.6 5.6 8.2h-3.3zm4.4-7.3v-2.7h3.1v2.7h-3.1zm0 7.3v-2.7h3.1v2.7h-3.1zm4.1 0 5.9-8.7 3.7-5.5h3.3l-5.4 8-4.2 6.2h-3.3zm9.8 0-4-5.8-.3-.5-5.4-7.9h3.3l3.7 5.4.4.6 5.6 8.2h-3.3zm3.3 0 5.9-8.7 3.7-5.5h3.3l-5.4 8-4.2 6.2h-3.3zm9.8 0-4-5.8-.3-.5-5.4-7.9h3.3l3.7 5.4.4.6 5.6 8.2h-3.3z"/></g></svg>