<svg xmlns="http://www.w3.org/2000/svg" viewBox="0 0 348 348" fill="none"><path d="M5.079 5.776h336.913v337.67H5.08z" stroke-width="2" stroke="#000"/><path d="M294.522 34.66c0-8.376 6.966-15.165 15.56-15.165 4.126 0 8.084 1.597 11 4.441 2.919 2.844 4.559 6.702 4.559 10.724 0 8.376-6.966 15.165-15.56 15.165-8.593 0-15.56-6.79-15.56-15.165z" stroke="#000" stroke-width="2"/><path d="M-165.665-157.329h378.216v440.731h-378.216z"/><text style="line-height:1.25" x="81.042" y="49.618" font-weight="400" font-size="40" font-family="sans-serif" letter-spacing="0" word-spacing="0" fill="#000"/><text style="line-height:1.25" x="72.201" y="65.09" font-weight="400" font-size="40" font-family="sans-serif" letter-spacing="0" word-spacing="0" fill="#000"/><rect width="65" height="65" x="28.901" y="115.098" ry="0" fill="#fff" stroke="#000" stroke-width="1.337"/><rect width="65" height="65" x="104.735" y="115.098" ry="0" fill="#fff" stroke="#000" stroke-width="1.337"/><rect width="65" height="65" x="181.06" y="115.59" ry="0" fill="#fff" stroke="#000" stroke-width="1.337"/><rect width="65" height="65" x="256.893" y="115.59" ry="0" fill="#fff" stroke="#000" stroke-width="1.337"/><rect width="138.804" height="64.392" x="104.839" y="192.031" ry="0" fill="#fff" stroke="#000" stroke-width="1.944"/></svg>