<svg xmlns="http://www.w3.org/2000/svg" version="1.1" id="Layer_1" x="0" y="0" viewBox="0 0 348 348" xml:space="preserve"><style type="text/css" id="style815">.st0{fill:none;stroke:#000;stroke-width:2}.st1,.st4{fill:#fff;stroke:#000;stroke-miterlimit:10}.st4{fill:none}</style><path class="st0" d="M5.1 5.8H342v337.7H5.1V5.8z" id="path817"/><path class="st0" d="M282.7 40.6c0-8.4 7-15.2 15.6-15.2 4.1 0 8.1 1.6 11 4.4 2.9 2.8 4.6 6.7 4.6 10.7 0 8.4-7 15.2-15.6 15.2s-15.6-6.8-15.6-15.1z" id="path819"/><path class="st1" id="rect821" d="M36.6 135.8h47v47h-47z"/><path class="st1" id="rect823" d="M96.4 135.8h47v47h-47z"/><path class="st1" id="rect825" d="M155 135.8h47v47h-47z"/><path class="st1" id="rect827" d="M213 135.8h47v47h-47z"/><path class="st1" id="rect829" d="M271.4 135.8h47v47h-47z"/><g aria-label="#" transform="translate(45.249 172.528)" id="text831" font-size="35" font-family="ComicSansMS"><path d="M9.434-9.86h8.545l1.93-7.093h-8.34zm-3.196 0l2.085-7.093H3.76q-1.624 0-1.624-1.71 0-1.298 2.53-1.298h4.511q.445-1.982 1.35-5.4.496-1.573 2-1.573.564 0 .923.462.376.444.376.991 0 .684-.445 2.256-.752 2.717-.871 3.264h8.288q.581-2.068 1.59-5.52.444-1.453 1.675-1.453 1.435 0 1.435 1.333 0 1.163-1.418 5.64h3.332q1.743 0 1.743 1.282 0 1.794-1.93 1.794-.257 0-.804-.034-.53-.034-.786-.034H23.14l-1.812 7.092h3.486q1.248 0 1.76.188.89.342.89 1.367 0 1.573-1.487 1.573h-5.503L18.936-1.18Q18.474.479 17.02.479q-1.4 0-1.4-1.35 0-1.009.563-2.94.786-2.683.837-2.922H8.477q-.513 2-1.795 5.879Q6.187.359 5.007.359 3.64.359 3.64-.991q0-.667.393-1.931.598-1.914 1.196-3.811H1.965q-1.418 0-1.418-1.692 0-.667.58-1.077.497-.359 1.197-.359z" id="path856" font-size="35" font-family="ComicSansMS"/></g><g aria-label="#" transform="translate(105.049 172.528)" id="text833" font-size="35" font-family="ComicSansMS"><path d="M9.434-9.86h8.545l1.93-7.093h-8.34zm-3.196 0l2.085-7.093H3.76q-1.624 0-1.624-1.71 0-1.298 2.53-1.298h4.511q.445-1.982 1.35-5.4.496-1.573 2-1.573.564 0 .923.462.376.444.376.991 0 .684-.445 2.256-.752 2.717-.871 3.264h8.288q.581-2.068 1.59-5.52.444-1.453 1.675-1.453 1.435 0 1.435 1.333 0 1.163-1.418 5.64h3.332q1.743 0 1.743 1.282 0 1.794-1.93 1.794-.257 0-.804-.034-.53-.034-.786-.034H23.14l-1.812 7.092h3.486q1.248 0 1.76.188.89.342.89 1.367 0 1.573-1.487 1.573h-5.503L18.936-1.18Q18.474.479 17.02.479q-1.4 0-1.4-1.35 0-1.009.563-2.94.786-2.683.837-2.922H8.477q-.513 2-1.795 5.879Q6.187.359 5.007.359 3.64.359 3.64-.991q0-.667.393-1.931.598-1.914 1.196-3.811H1.965q-1.418 0-1.418-1.692 0-.667.58-1.077.497-.359 1.197-.359z" id="path859" font-size="35" font-family="ComicSansMS"/></g><g aria-label="#" transform="translate(163.649 172.528)" id="text835" font-size="35" font-family="ComicSansMS"><path d="M9.434-9.86h8.545l1.93-7.093h-8.34zm-3.196 0l2.085-7.093H3.76q-1.624 0-1.624-1.71 0-1.298 2.53-1.298h4.511q.445-1.982 1.35-5.4.496-1.573 2-1.573.564 0 .923.462.376.444.376.991 0 .684-.445 2.256-.752 2.717-.871 3.264h8.288q.581-2.068 1.59-5.52.444-1.453 1.675-1.453 1.435 0 1.435 1.333 0 1.163-1.418 5.64h3.332q1.743 0 1.743 1.282 0 1.794-1.93 1.794-.257 0-.804-.034-.53-.034-.786-.034H23.14l-1.812 7.092h3.486q1.248 0 1.76.188.89.342.89 1.367 0 1.573-1.487 1.573h-5.503L18.936-1.18Q18.474.479 17.02.479q-1.4 0-1.4-1.35 0-1.009.563-2.94.786-2.683.837-2.922H8.477q-.513 2-1.795 5.879Q6.187.359 5.007.359 3.64.359 3.64-.991q0-.667.393-1.931.598-1.914 1.196-3.811H1.965q-1.418 0-1.418-1.692 0-.667.58-1.077.497-.359 1.197-.359z" id="path862" font-size="35" font-family="ComicSansMS"/></g><g aria-label="#" transform="translate(221.649 172.528)" id="text837" font-size="35" font-family="ComicSansMS"><path d="M9.434-9.86h8.545l1.93-7.093h-8.34zm-3.196 0l2.085-7.093H3.76q-1.624 0-1.624-1.71 0-1.298 2.53-1.298h4.511q.445-1.982 1.35-5.4.496-1.573 2-1.573.564 0 .923.462.376.444.376.991 0 .684-.445 2.256-.752 2.717-.871 3.264h8.288q.581-2.068 1.59-5.52.444-1.453 1.675-1.453 1.435 0 1.435 1.333 0 1.163-1.418 5.64h3.332q1.743 0 1.743 1.282 0 1.794-1.93 1.794-.257 0-.804-.034-.53-.034-.786-.034H23.14l-1.812 7.092h3.486q1.248 0 1.76.188.89.342.89 1.367 0 1.573-1.487 1.573h-5.503L18.936-1.18Q18.474.479 17.02.479q-1.4 0-1.4-1.35 0-1.009.563-2.94.786-2.683.837-2.922H8.477q-.513 2-1.795 5.879Q6.187.359 5.007.359 3.64.359 3.64-.991q0-.667.393-1.931.598-1.914 1.196-3.811H1.965q-1.418 0-1.418-1.692 0-.667.58-1.077.497-.359 1.197-.359z" id="path865" font-size="35" font-family="ComicSansMS"/></g><g aria-label="#" transform="translate(280.049 172.528)" id="text839" font-size="35" font-family="ComicSansMS"><path d="M9.434-9.86h8.545l1.93-7.093h-8.34zm-3.196 0l2.085-7.093H3.76q-1.624 0-1.624-1.71 0-1.298 2.53-1.298h4.511q.445-1.982 1.35-5.4.496-1.573 2-1.573.564 0 .923.462.376.444.376.991 0 .684-.445 2.256-.752 2.717-.871 3.264h8.288q.581-2.068 1.59-5.52.444-1.453 1.675-1.453 1.435 0 1.435 1.333 0 1.163-1.418 5.64h3.332q1.743 0 1.743 1.282 0 1.794-1.93 1.794-.257 0-.804-.034-.53-.034-.786-.034H23.14l-1.812 7.092h3.486q1.248 0 1.76.188.89.342.89 1.367 0 1.573-1.487 1.573h-5.503L18.936-1.18Q18.474.479 17.02.479q-1.4 0-1.4-1.35 0-1.009.563-2.94.786-2.683.837-2.922H8.477q-.513 2-1.795 5.879Q6.187.359 5.007.359 3.64.359 3.64-.991q0-.667.393-1.931.598-1.914 1.196-3.811H1.965q-1.418 0-1.418-1.692 0-.667.58-1.077.497-.359 1.197-.359z" id="path868" font-size="35" font-family="ComicSansMS"/></g><path class="st4" id="rect841" d="M15.1 256.4h143.2v52.1H15.1z"/><g aria-label="Funny" transform="translate(38.43 290.943)" id="text843" font-size="35" font-family="ComicSansMS"><path d="M18.901-22.456q-.307 0-.649-.137-2.12-.786-5.606-.786-1.127 0-2.648.171-1.504.154-3.384.496L6.58-15.33q3.298-.871 4.956-.871 2.631 0 5.451.307 1.607.171 1.607 1.744 0 .769-.496 1.281-.495.496-1.23.496-.889 0-2.666-.154-1.778-.154-2.666-.154-1.162 0-5.025.992L6.357.068q0 .735-.478 1.23-.479.514-1.213.514-.735 0-1.23-.513-.48-.496-.48-1.23 0-3.367.12-10.1.137-6.751.137-10.118 0-.752-.034-2.256-.017-1.52-.017-2.273 0-.752.461-1.264.479-.513 1.23-.513.564 0 1.009.308 2.119-.376 3.81-.547 1.693-.188 2.974-.188 1.966 0 4.495.564 3.435.786 3.435 2.05 0 .684-.444 1.214-.496.598-1.23.598z" id="path886"/><path d="M37.58-9.98q0 1.23.018 3.69.017 2.462.017 3.692 0 .376.051 1.145.068.77.068 1.145 0 .735-.495 1.197-.496.478-1.214.478-1.316 0-1.674-1.623-2.137 1.11-4.922 1.11-2.24 0-3.709-.99-1.623-1.094-1.93-3.197-.667-4.528-.667-8.066 0-2.341.512-5.332.24-1.487 1.624-1.487.735 0 1.23.479.496.461.496 1.196 0 .786-.256 2.512-.24 1.726-.24 2.632 0 2.854.188 4.888.188 2.033.564 3.264.564.308 1.111.478.547.154 1.077.154 2.29 0 4.836-.735l-.017-3.469-.034-3.315q0-3.692.325-6.409.188-1.572 1.657-1.572.735 0 1.23.478.496.479.462 1.197z" id="path888"/><path d="M54.927 1.213q-1.47 0-1.658-1.606l-.478-3.743q-.24-2-.24-3.742 0-.479.052-1.624.068-1.145.068-1.623 0-3.692-1.367-3.692-1.914 0-3.658 2.273-1.572 2.068-2.46 5.23-.035.666-.154 1.674-.103.855-.103 1.658 0 .513.103 1.538.102 1.026.102 1.538 0 .77-.478 1.248-.462.478-1.197.478-.751 0-1.213-.478-.461-.479-.461-1.248 0-.512-.12-1.538-.102-1.025-.102-1.538 0-1.76.239-4.87.256-3.128.256-4.888 0-.547-.068-1.624-.052-1.076-.052-1.623 0-.735.479-1.197.496-.478 1.213-.478 1.573 0 1.726 2.222l.052 2q2.87-3.829 5.896-3.829 2.734 0 3.81 2.41.736 1.606.804 4.75v1.727l-.017 1.589q0 1.418.359 3.674.376 2.24.376 3.64 0 .752-.496 1.214-.478.478-1.213.478z" id="path890"/><path d="M73.247 1.213q-1.47 0-1.658-1.606l-.478-3.743q-.24-2-.24-3.742 0-.479.052-1.624.068-1.145.068-1.623 0-3.692-1.367-3.692-1.914 0-3.657 2.273-1.572 2.068-2.461 5.23-.034.666-.154 1.674-.102.855-.102 1.658 0 .513.102 1.538.103 1.026.103 1.538 0 .77-.479 1.248-.461.478-1.196.478-.752 0-1.214-.478-.461-.479-.461-1.248 0-.512-.12-1.538-.102-1.025-.102-1.538 0-1.76.24-4.87.255-3.128.255-4.888 0-.547-.068-1.624-.051-1.076-.051-1.623 0-.735.478-1.197.496-.478 1.214-.478 1.572 0 1.726 2.222l.051 2q2.871-3.829 5.896-3.829 2.734 0 3.811 2.41.735 1.606.803 4.75v1.727l-.017 1.589q0 1.418.36 3.674.375 2.24.375 3.64 0 .752-.496 1.214-.478.478-1.213.478z" id="path892"/><path d="M93.362-15.244L87.449-2.461q-2.188 4.666-3.35 7.81l-1.128 3.316q-.444 1.23-1.538 1.23-.718 0-1.247-.478-.513-.462-.513-1.163 0-1.709 3.691-9.895l-6.118-11.775-.769-1.247q-.461-.786-.461-1.316 0-.7.53-1.23.546-.53 1.213-.53.786 0 1.213.598 2.905 4.033 6.238 11.484l2.53-5.896q1.366-3.059 2.631-5.263.547-.957 1.436-.957.7 0 1.23.495.547.496.547 1.18 0 .375-.222.854z" id="path894"/></g><g aria-label="Unfunny" transform="translate(191.481 291.166)" id="text845" font-size="35" font-family="ComicSansMS"><path d="M13.501.684q-5.315 0-7.93-3.06-2.119-2.46-2.666-7.28-.256-2.17-.256-8.664 0-2.393.102-3.863.103-1.555.308-2.17.427-1.248 1.538-1.248 1.572 0 1.572 2.889v10.031q0 10.357 7.247 10.357 6.818 0 6.818-17.432v-1.675q-.017-1.025-.017-1.367 0-1.06.376-1.863.479-1.025 1.419-1.025 1.709 0 1.709 2.341 0 .701.017 2.12v2.119Q23.738.684 13.5.684z" id="path871"/><path d="M41.255 1.213q-1.47 0-1.658-1.606l-.478-3.743q-.24-2-.24-3.742 0-.479.052-1.624.068-1.145.068-1.623 0-3.692-1.367-3.692-1.914 0-3.657 2.273-1.573 2.068-2.461 5.23-.035.666-.154 1.674-.103.855-.103 1.658 0 .513.103 1.538.102 1.026.102 1.538 0 .77-.478 1.248-.462.478-1.196.478-.752 0-1.214-.478-.461-.479-.461-1.248 0-.512-.12-1.538-.102-1.025-.102-1.538 0-1.76.239-4.87.256-3.128.256-4.888 0-.547-.068-1.624-.051-1.076-.051-1.623 0-.735.478-1.197.496-.478 1.213-.478 1.573 0 1.727 2.222l.05 2q2.872-3.829 5.897-3.829 2.734 0 3.81 2.41.736 1.606.804 4.75v1.727l-.017 1.589q0 1.418.359 3.674.376 2.24.376 3.64 0 .752-.496 1.214-.478.478-1.213.478z" id="path873"/><path d="M57.952-24.028q-4.136 0-4.632 5.742l-.051 1.06q2.905-.206 3.76-.206 2.717 0 2.717 1.71 0 1.247-1.333 1.486-.581.103-1.367.086-.77-.035-3.93.222l-.137 3.896q0 1.06.068 3.179.068 2.12.068 3.162 0 3.247-.376 5.058-.29 1.367-1.59 1.367-.7 0-1.195-.461-.496-.444-.496-1.128 0-.137.034-.342.36-2.221.36-4.836L49.8-8.7v-4.956q-2.136.171-2.7.171-1.726 0-1.726-1.658 0-1.691 2.99-1.777l1.64-.051q.052-.957.257-2.598.445-3.794 1.914-5.588 1.778-2.17 5.554-2.17 2.444 0 2.444 1.657 0 1.64-2.221 1.64z" id="path875"/><path d="M78.186-9.98q0 1.23.017 3.69.017 2.462.017 3.692 0 .376.051 1.145.069.77.069 1.145 0 .735-.496 1.197-.495.478-1.213.478-1.316 0-1.675-1.623Q72.82.854 70.034.854q-2.239 0-3.708-.99-1.624-1.094-1.931-3.197-.667-4.528-.667-8.066 0-2.341.513-5.332.239-1.487 1.623-1.487.735 0 1.23.479.496.461.496 1.196 0 .786-.256 2.512-.24 1.726-.24 2.632 0 2.854.189 4.888.188 2.033.564 3.264.564.308 1.11.478.547.154 1.077.154 2.29 0 4.837-.735l-.017-3.469-.035-3.315q0-3.692.325-6.409.188-1.572 1.658-1.572.735 0 1.23.478.496.479.462 1.197z" id="path877"/><path d="M95.532 1.213q-1.47 0-1.657-1.606l-.479-3.743q-.24-2-.24-3.742 0-.479.052-1.624.068-1.145.068-1.623 0-3.692-1.367-3.692-1.914 0-3.657 2.273-1.572 2.068-2.461 5.23-.034.666-.154 1.674-.102.855-.102 1.658 0 .513.102 1.538.103 1.026.103 1.538 0 .77-.479 1.248Q84.8.82 84.065.82q-.752 0-1.213-.478-.462-.479-.462-1.248 0-.512-.12-1.538-.102-1.025-.102-1.538 0-1.76.24-4.87.256-3.128.256-4.888 0-.547-.069-1.624-.051-1.076-.051-1.623 0-.735.478-1.197.496-.478 1.214-.478 1.572 0 1.726 2.222l.051 2q2.871-3.829 5.896-3.829 2.735 0 3.811 2.41.735 1.606.803 4.75v1.727l-.017 1.589q0 1.418.36 3.674.375 2.24.375 3.64 0 .752-.495 1.214-.479.478-1.214.478z" id="path879"/><path d="M113.853 1.213q-1.47 0-1.658-1.606l-.479-3.743q-.239-2-.239-3.742 0-.479.051-1.624.069-1.145.069-1.623 0-3.692-1.367-3.692-1.914 0-3.658 2.273-1.572 2.068-2.46 5.23-.035.666-.154 1.674-.103.855-.103 1.658 0 .513.103 1.538.102 1.026.102 1.538 0 .77-.478 1.248-.462.478-1.197.478-.752 0-1.213-.478-.461-.479-.461-1.248 0-.512-.12-1.538-.103-1.025-.103-1.538 0-1.76.24-4.87.256-3.128.256-4.888 0-.547-.068-1.624-.052-1.076-.052-1.623 0-.735.479-1.197.495-.478 1.213-.478 1.572 0 1.726 2.222l.052 2q2.87-3.829 5.896-3.829 2.734 0 3.81 2.41.735 1.606.804 4.75v1.727l-.017 1.589q0 1.418.359 3.674.376 2.24.376 3.64 0 .752-.496 1.214-.479.478-1.213.478z" id="path881"/><path d="M133.967-15.244l-5.913 12.783q-2.187 4.666-3.35 7.81l-1.127 3.316q-.445 1.23-1.538 1.23-.718 0-1.248-.478-.513-.462-.513-1.163 0-1.709 3.692-9.895l-6.118-11.775-.77-1.247q-.46-.786-.46-1.316 0-.7.529-1.23.547-.53 1.213-.53.786 0 1.214.598 2.905 4.033 6.237 11.484l2.53-5.896q1.367-3.059 2.632-5.263.546-.957 1.435-.957.7 0 1.23.495.547.496.547 1.18 0 .375-.222.854z" id="path883"/></g><path class="st4" id="rect847" d="M188.3 256.4h143.2v52.1H188.3z"/></svg>