<svg xmlns="http://www.w3.org/2000/svg" viewBox="0 0 348 348" fill="none"><path d="M5.079 5.776h336.913v337.67H5.08z" stroke-width="2" stroke="#000"/><path d="M282.734 40.554c0-8.376 6.966-15.165 15.56-15.165 4.126 0 8.084 1.597 11.001 4.441 2.918 2.844 4.558 6.702 4.558 10.724 0 8.376-6.966 15.165-15.56 15.165-8.593 0-15.559-6.79-15.559-15.165z" stroke-width="2" stroke="#000"/><path fill="#fff" stroke="#000" d="M24.017 35.39h219.712v57.508H24.017zM24.017 113.542h144.508v48.661H24.017zM178.525 113.542h87.729v48.661h-87.729zM276.254 113.542h48.661v48.661h-48.661z"/><path d="M135.661 174l42.78 74.097 42.78 74.098H50.101l42.78-74.098z" transform="matrix(.16456 0 0 .21354 112.67 133.843)" fill="#fff" stroke="#000" stroke-width="5.335"/><path fill="#fff" stroke="#000" d="M120.915 206.644h116.492v57.508H120.915z"/><path d="M135.661 174l42.78 74.097 42.78 74.098H50.101l42.78-74.098z" transform="matrix(.16456 0 0 .21354 201.002 133.843)" fill="#fff" stroke="#000" stroke-width="5.335"/><path d="M135.661 174l42.78 74.097 42.78 74.098H50.101l42.78-74.098z" transform="matrix(.16456 0 0 .21354 142.83 133.843)" fill="#fff" stroke="#000" stroke-width="5.335"/><path d="M135.661 174l42.78 74.097 42.78 74.098H50.101l42.78-74.098z" transform="matrix(.16456 0 0 .21354 170.842 133.843)" fill="#fff" stroke="#000" stroke-width="5.335"/><path d="M135.661 174l42.78 74.097 42.78 74.098H50.101l42.78-74.098z" transform="matrix(-.16456 .00034 -.00044 -.21354 245.794 336.936)" fill="#fff" stroke="#000" stroke-width="5.335"/><path d="M135.661 174l42.78 74.097 42.78 74.098H50.101l42.78-74.098z" transform="matrix(-.16456 .00034 -.00044 -.21354 157.463 337.12)" fill="#fff" stroke="#000" stroke-width="5.335"/><path d="M135.661 174l42.78 74.097 42.78 74.098H50.101l42.78-74.098z" transform="matrix(-.16456 .00034 -.00044 -.21354 215.635 336.999)" fill="#fff" stroke="#000" stroke-width="5.335"/><path d="M135.661 174l42.78 74.097 42.78 74.098H50.101l42.78-74.098z" transform="matrix(-.16456 .00034 -.00044 -.21354 187.623 337.057)" fill="#fff" stroke="#000" stroke-width="5.335"/><path fill="#fff" stroke="#000" d="M132.508 300.153h92.898v47.186h-92.898z"/><path fill="#fff" stroke="#000" d="M144.508 306.153h69.305v35.39h-69.305z"/><text style="line-height:1.25;-inkscape-font-specification:Arial" x="125.931" y="247.339" transform="scale(.98195 1.01838)" font-weight="400" font-size="50.321" font-family="Arial" letter-spacing="0" word-spacing="0" fill="#000"><tspan x="125.931" y="247.339">####</tspan></text><text style="line-height:1.25;-inkscape-font-specification:Arial" x="78.153" y="81.102" font-weight="400" font-size="48" font-family="Arial" letter-spacing="0" word-spacing="0" fill="#000"><tspan x="78.153" y="81.102">######</tspan></text><text style="line-height:1.25;-inkscape-font-specification:Arial" x="72.254" y="145.983" font-weight="400" font-size="29.333" font-family="Arial" letter-spacing="0" word-spacing="0" fill="#000"><tspan x="72.254" y="145.983">## | ##</tspan></text></svg>