<svg xmlns="http://www.w3.org/2000/svg" fill="none" stroke="#000" stroke-width="2" viewBox="0 0 347 347"><path d="M5 5h337v337H5z"/><circle cx="298" cy="40" r="16"/><path stroke-linecap="round" stroke-miterlimit="5" stroke-width="1.8" d="m54.2 64.2 25.1 20.3h117.5L221.7 64l-24.9-20.1-118 .4Z"/><path fill="#000" stroke-linecap="round" stroke-miterlimit="5" stroke-width="1.8" d="m73.2 110.8 13-13.1 52.7.2 12.8 13.2-12.1 13-53 .4zM67.7 115.3l13.2 13-.2 52.7-13.2 12.8-13-12.1-.4-53zM156.1 116.3l13.2 13-.2 52.7-13.2 12.7-13-12.1-.4-53zM72.8 197.7l13-13.2 52.7.2 12.7 13.2-12 13-53 .4zM73.2 285.4l13-13.2 52.6.2 12.8 13.2-12.1 13-53 .4zM68.1 202.6l13.2 13-.2 52.7L68 281.1 55 269l-.4-53zM155.7 203.1l13.2 13-.2 52.7-13.2 12.8-13-12.1-.4-53zM194.6 110.9l13-13.2 52.6.2 12.8 13.2-12.1 13-53 .4zM189 115.4l13.2 13-.2 52.7-13.2 12.7-13-12-.4-53zM277.4 116.3l13.2 13-.2 52.7-13.2 12.8-13-12.1-.4-53zM194.1 197.8l13-13.2 52.7.2 12.8 13.2-12.1 13-53 .4zM194.5 285.5l13-13.2 52.7.2 12.7 13.2-12.1 13-53 .4zM189.5 202.7l13.1 13-.2 52.7-13.2 12.7-13-12-.4-53zM277 203.2l13.2 13-.2 52.7-13.2 12.7-13-12-.4-53z"/></svg>