<svg xmlns="http://www.w3.org/2000/svg" fill="none" stroke="#000" stroke-width="2" viewBox="0 0 348 348"><use href="#a" transform="translate(34.19 34.19) scale(.8035)"/><use href="#a" transform="matrix(.902 0 0 .902 17.05 17.05)"/><use href="#b" transform="translate(228.62 268.63)"/><use href="#b" transform="translate(0 268.63)"/><path d="M283.2 39.94c0-8.37 6.97-15.16 15.56-15.16 4.13 0 8.09 1.6 11 4.44a14.97 14.97 0 0 1 4.56 10.72c0 8.38-6.96 15.17-15.56 15.17-8.6 0-15.56-6.8-15.56-15.17z"/><g id="b" transform="translate(-358)"><path fill="#595959" d="M378.07 19.88h79.24v39.61h-79.25z"/><path d="M383.07 24.88h69.24v29.61h-69.25zm-5-5 5 5m74.24-5-5 5m5 34.61-5-5m-74.23 5 5-5"/></g><path fill="#fff" stroke="none" d="m43.3 46.84-3.57-6.7-.83-1.5v8.2h-2V32.51h3.7q.88 0 1.62.34.74.32 1.29.88.56.57.86 1.31.32.75.32 1.55 0 1.2-.66 2.25t-1.91 1.53l3.48 6.47zm-2.7-8.2q.42 0 .8-.16.37-.18.65-.46t.44-.65q.16-.38.16-.78 0-.42-.16-.78-.14-.39-.42-.67-.26-.28-.64-.44-.39-.16-.83-.16h-1.7v4.1zm13.18-4.1H48.8v4.2h4.87v1.85H48.8v4.2h5.57v2.05h-7.58V32.51h7zm9.28.95-.3-.29-.48-.46q-.73-.6-2.22-.6-.5 0-.97.12-.44.1-.8.34-.33.22-.53.56-.2.32-.2.75 0 .9 1.84 1.8.97.47 1.75.93.79.46 1.5.99Q64 40.65 64 42.56q0 .97-.36 1.8-.36.82-1 1.44-.6.6-1.41.94-.8.35-1.71.35-.67 0-1.31-.2t-1.2-.57q-.58-.38-1.02-.92-.41-.55-.64-1.21l1.8-.92q.2.8.88 1.3.66.48 1.49.48.5 0 .94-.18.46-.2.8-.52.34-.34.52-.78.2-.45.2-.97 0-1.02-1-1.69-.5-.34-1.06-.64l-1.15-.62-1.14-.67q-.57-.36-1.07-.78-.52-.44-.76-1.05-.25-.6-.25-1.45 0-.78.35-1.4.34-.65.92-1.09.58-.44 1.35-.68.78-.24 1.67-.24.96 0 1.77.18.8.16 1.45.48zm9.21-.95H67.3v4.2h4.86v1.85H67.3v4.2h5.57v2.05h-7.58V32.51h7zm6.82 0v12.3h-2.03v-12.3h-3.4v-2.03h8.85v2.03zM42.74 301.02q1.35 0 2.65.48v2.25q-1.26-.72-2.65-.72-2.17 0-3.74 1.57-1.57 1.54-1.57 3.74 0 1.06.4 2.03.43.94 1.15 1.67.72.72 1.7 1.14.95.42 2.06.42 1.45 0 2.65-.72v2.23q-.64.26-1.32.39-.67.12-1.33.12-3.08 0-5.2-2.14-.97-1-1.56-2.3-.56-1.34-.56-2.84 0-1.53.56-2.86.6-1.33 1.57-2.31 1-1 2.31-1.57 1.35-.58 2.88-.58zm6.12.17v12.21h4.63v2.05h-6.63V301.2zm12.46 1.96h-4.99v4.2h4.87v1.85h-4.87v4.2h5.57v2.05h-7.58v-14.33h7zm1.37 12.3 4.67-14.25h2.13l4.7 14.25h-2.15L71 312.28h-5.17l-1.02 3.17zm5.73-11.01-1.99 6.07h4zm13.24 11.01-3.57-6.7-.83-1.5v8.2h-2v-14.33h3.71q.87 0 1.61.34.75.32 1.3.88.56.57.86 1.31.32.75.32 1.55 0 1.2-.67 2.25-.66 1.05-1.9 1.53l3.48 6.47zm-2.69-8.2q.42 0 .8-.16.38-.18.66-.46.27-.28.43-.65.16-.38.16-.78 0-.42-.16-.78-.14-.39-.42-.67-.26-.28-.64-.44-.39-.16-.83-.16h-1.7v4.1zm188.93-3.14-.3-.28-.48-.46q-.73-.6-2.22-.6-.5 0-.96.12-.44.1-.8.34-.35.22-.55.56-.2.32-.2.75 0 .9 1.85 1.8.96.47 1.75.93.78.46 1.5.99 1.35 1.02 1.35 2.93 0 .97-.36 1.8-.36.82-.98 1.44-.6.6-1.43.94-.8.35-1.7.35-.67 0-1.3-.2-.66-.2-1.22-.57-.57-.38-1-.92-.43-.55-.65-1.2l1.8-.93q.22.8.88 1.3.67.49 1.49.49.5 0 .95-.19.46-.2.8-.52.34-.34.52-.78.2-.45.2-.97 0-1.02-1-1.69-.5-.34-1.07-.64l-1.14-.62q-.6-.33-1.15-.67-.56-.36-1.07-.78-.52-.44-.76-1.05-.24-.6-.24-1.44 0-.79.34-1.41.34-.65.93-1.09.58-.44 1.34-.68.79-.24 1.67-.24.97 0 1.77.18.8.16 1.45.48zm4.13-2.89v9.67q0 .58.22 1.09.24.5.6.86.4.36.87.58.5.2 1.05.2.57 0 1.05-.2.5-.22.87-.58.38-.38.6-.86.22-.5.22-1.09v-9.67h2.03v9.67q0 .97-.38 1.83-.36.86-1.03 1.53-.64.64-1.5 1.02-.87.37-1.85.37-1 0-1.85-.37-.87-.38-1.51-1-.65-.65-1.03-1.51-.36-.86-.36-1.87v-9.67zm12.51 0q.78 0 1.5.32.7.3 1.2.82.52.53.82 1.23.3.68.3 1.45 0 1.53-1.07 2.65.9.59 1.31 1.55.44.97.44 1.95 0 .9-.34 1.71-.34.79-.94 1.39-.59.58-1.37.92-.79.35-1.69.35h-3.74v-14.34zm-1.57 7.56v4.74h1.67q.48 0 .9-.18.45-.18.77-.48.32-.32.5-.74.2-.45.2-.97 0-.48-.2-.9-.18-.45-.5-.77t-.77-.5q-.42-.2-.9-.2zm0-5.55v3.72l1.53-.02q.36 0 .7-.14.34-.14.6-.38.25-.27.41-.59.16-.34.16-.74 0-.38-.16-.7-.14-.35-.4-.59-.27-.26-.6-.4-.33-.16-.7-.16zm7.34 12.24v-14.25h2l4.33 9.47 4.34-9.47h1.97v14.25h-1.99v-9.35l-3.4 7.38-.9 2.02-.92-2.02-3.42-7.38v9.35zm16.17-14.25v14.25h-2.02v-14.25zm6.51 1.95v12.3h-2.03v-12.3h-3.4v-2.03h8.84v2.03z"/><g id="c" transform="translate(-358)"><path fill="gray" d="m373.3 172.41 78.68-20.05v40.1z"/><path d="m402.06 172.41 43.07-10.97v21.94zm-27.77.11 27.77-.11m49.91-20.05-6.84 9.08m6.85 31.02-6.84-9.08"/></g><path d="M342.46 5.17H5.54v337.67h336.9z"/><use href="#c" transform="rotate(90 174 174)"/><use href="#c" transform="rotate(180 174 174)"/><use href="#c" transform="rotate(-90 174 174)"/><g id="a" fill="#fff" transform="translate(-666.32 .25)"><path id="d" d="M778.06 108.29h33.12a3.22 3.22 0 0 1 3.21 3.22v33.1a3.22 3.22 0 0 1-3.21 3.22h-33.12a3.22 3.22 0 0 1-3.22-3.22v-33.1a3.22 3.22 0 0 1 3.22-3.22z"/><use href="#d" transform="translate(0 45.7)"/><use href="#d" transform="translate(0 91.39)"/><use href="#d" transform="translate(45.7)"/><use href="#d" transform="translate(45.7 45.7)"/><use href="#d" transform="translate(45.7 91.39)"/><use href="#d" transform="translate(91.41)"/><use href="#d" transform="translate(91.41 45.7)"/><use href="#d" transform="translate(91.41 91.39)"/></g></svg>