<svg version="1.1" id="Layer_1" xmlns="http://www.w3.org/2000/svg" x="0" y="0" viewBox="0 0 348 348" xml:space="preserve"><style>.st0,.st1{fill:none;stroke:#000}.st0{stroke-width:2}.st1{stroke-miterlimit:10}.st2{fill:#00f}.st3{fill:red}.st5{fill:#f0f}.st6{fill:#ff0}.st7{fill:#0f0}.st8{fill:#fff}.st9{stroke:#000;stroke-miterlimit:10}</style><path class="st0" d="M5.1 5.8H342v337.7H5.1V5.8z"/><path class="st0" d="M282.7 40.6c0-8.4 7-15.2 15.6-15.2a16 16 0 0111 4.4 15 15 0 014.6 10.7c0 8.4-7 15.2-15.6 15.2s-15.6-6.8-15.6-15.1z"/><path d="M233.8 263.9a10 10 0 01-10 10H45.3a10 10 0 01-10-10V85.3a10 10 0 0110-10h178.5a10 10 0 0110 10v178.6z"/><path class="st1" d="M233.8 263.9a10 10 0 01-10 10H45.3a10 10 0 01-10-10V85.3a10 10 0 0110-10h178.5a10 10 0 0110 10v178.6z"/><path class="st2" d="M74.7 107.4a10 10 0 01-10 10h-10a10 10 0 01-10-10v-10a10 10 0 0110-10h10a10 10 0 0110 10v10z"/><path class="st1" d="M74.7 107.4a10 10 0 01-10 10h-10a10 10 0 01-10-10v-10a10 10 0 0110-10h10a10 10 0 0110 10v10z"/><path class="st3" d="M222.6 107.4a10 10 0 01-10 10h-10a10 10 0 01-10-10v-10a10 10 0 0110-10h10a10 10 0 0110 10v10z"/><path class="st1" d="M222.6 107.4a10 10 0 01-10 10h-10a10 10 0 01-10-10v-10a10 10 0 0110-10h10a10 10 0 0110 10v10z"/><path d="M149.5 107.4a10 10 0 01-10 10h-10a10 10 0 01-10-10v-10a10 10 0 0110-10h10a10 10 0 0110 10v10z" fill="#0ff"/><path class="st1" d="M149.5 107.4a10 10 0 01-10 10h-10a10 10 0 01-10-10v-10a10 10 0 0110-10h10a10 10 0 0110 10v10z"/><path class="st5" d="M112.1 107.4a10 10 0 01-10 10h-10a10 10 0 01-10-10v-10a10 10 0 0110-10h10a10 10 0 0110 10v10z"/><path class="st1" d="M112.1 107.4a10 10 0 01-10 10h-10a10 10 0 01-10-10v-10a10 10 0 0110-10h10a10 10 0 0110 10v10z"/><path d="M186.1 107.4a10 10 0 01-10 10h-10a10 10 0 01-10-10v-10a10 10 0 0110-10h10a10 10 0 0110 10v10z"/><path class="st1" d="M186.1 107.4a10 10 0 01-10 10h-10a10 10 0 01-10-10v-10a10 10 0 0110-10h10a10 10 0 0110 10v10z"/><path class="st5" d="M75.6 143.2a10 10 0 01-10 10h-10a10 10 0 01-10-10v-10a10 10 0 0110-10h10a10 10 0 0110 10v10z"/><path class="st1" d="M75.6 143.2a10 10 0 01-10 10h-10a10 10 0 01-10-10v-10a10 10 0 0110-10h10a10 10 0 0110 10v10z"/><path class="st2" d="M223.5 143.2a10 10 0 01-10 10h-10a10 10 0 01-10-10v-10a10 10 0 0110-10h10a10 10 0 0110 10v10z"/><path class="st1" d="M223.5 143.2a10 10 0 01-10 10h-10a10 10 0 01-10-10v-10a10 10 0 0110-10h10a10 10 0 0110 10v10z"/><path class="st2" d="M150.4 143.2a10 10 0 01-10 10h-10a10 10 0 01-10-10v-10a10 10 0 0110-10h10a10 10 0 0110 10v10z"/><path class="st1" d="M150.4 143.2a10 10 0 01-10 10h-10a10 10 0 01-10-10v-10a10 10 0 0110-10h10a10 10 0 0110 10v10z"/><path class="st6" d="M113 143.2a10 10 0 01-10 10H93a10 10 0 01-10-10v-10a10 10 0 0110-10h10a10 10 0 0110 10v10z"/><path class="st1" d="M113 143.2a10 10 0 01-10 10H93a10 10 0 01-10-10v-10a10 10 0 0110-10h10a10 10 0 0110 10v10z"/><path class="st7" d="M187 143.2a10 10 0 01-10 10h-10a10 10 0 01-10-10v-10a10 10 0 0110-10h10a10 10 0 0110 10v10z"/><path class="st1" d="M187 143.2a10 10 0 01-10 10h-10a10 10 0 01-10-10v-10a10 10 0 0110-10h10a10 10 0 0110 10v10z"/><path class="st7" d="M76.1 179a10 10 0 01-10 10H56a10 10 0 01-10-10v-10a10 10 0 0110-10h10a10 10 0 0110 10v10z"/><path class="st1" d="M76.1 179a10 10 0 01-10 10H56a10 10 0 01-10-10v-10a10 10 0 0110-10h10a10 10 0 0110 10v10z"/><path class="st5" d="M223.9 179a10 10 0 01-10 10h-10a10 10 0 01-10-10v-10a10 10 0 0110-10h10a10 10 0 0110 10v10z"/><path class="st1" d="M223.9 179a10 10 0 01-10 10h-10a10 10 0 01-10-10v-10a10 10 0 0110-10h10a10 10 0 0110 10v10z"/><path class="st6" d="M150.9 179a10 10 0 01-10 10h-10a10 10 0 01-10-10v-10a10 10 0 0110-10h10a10 10 0 0110 10v10z"/><path class="st1" d="M150.9 179a10 10 0 01-10 10h-10a10 10 0 01-10-10v-10a10 10 0 0110-10h10a10 10 0 0110 10v10z"/><path class="st8" d="M113.5 179a10 10 0 01-10 10h-10a10 10 0 01-10-10v-10a10 10 0 0110-10h10a10 10 0 0110 10v10z"/><path class="st1" d="M113.5 179a10 10 0 01-10 10h-10a10 10 0 01-10-10v-10a10 10 0 0110-10h10a10 10 0 0110 10v10z"/><g><path class="st3" d="M187.4 179a10 10 0 01-10 10h-10a10 10 0 01-10-10v-10a10 10 0 0110-10h10a10 10 0 0110 10v10z"/><path class="st1" d="M187.4 179a10 10 0 01-10 10h-10a10 10 0 01-10-10v-10a10 10 0 0110-10h10a10 10 0 0110 10v10z"/></g><g><path class="st2" d="M76.9 214.8a10 10 0 01-10 10h-10a10 10 0 01-10-10v-10a10 10 0 0110-10h10a10 10 0 0110 10v10z"/><path class="st1" d="M76.9 214.8a10 10 0 01-10 10h-10a10 10 0 01-10-10v-10a10 10 0 0110-10h10a10 10 0 0110 10v10z"/></g><g><path class="st2" d="M224.8 214.8a10 10 0 01-10 10h-10a10 10 0 01-10-10v-10a10 10 0 0110-10h10a10 10 0 0110 10v10z"/><path class="st1" d="M224.8 214.8a10 10 0 01-10 10h-10a10 10 0 01-10-10v-10a10 10 0 0110-10h10a10 10 0 0110 10v10z"/></g><g><path d="M151.8 214.8a10 10 0 01-10 10h-10a10 10 0 01-10-10v-10a10 10 0 0110-10h10a10 10 0 0110 10v10z"/><path class="st1" d="M151.8 214.8a10 10 0 01-10 10h-10a10 10 0 01-10-10v-10a10 10 0 0110-10h10a10 10 0 0110 10v10z"/></g><g><path class="st7" d="M114.4 214.8a10 10 0 01-10 10h-10a10 10 0 01-10-10v-10a10 10 0 0110-10h10a10 10 0 0110 10v10z"/><path class="st1" d="M114.4 214.8a10 10 0 01-10 10h-10a10 10 0 01-10-10v-10a10 10 0 0110-10h10a10 10 0 0110 10v10z"/></g><g><path class="st7" d="M188.3 214.8a10 10 0 01-10 10h-10a10 10 0 01-10-10v-10a10 10 0 0110-10h10a10 10 0 0110 10v10z"/><path class="st1" d="M188.3 214.8a10 10 0 01-10 10h-10a10 10 0 01-10-10v-10a10 10 0 0110-10h10a10 10 0 0110 10v10z"/></g><g><path class="st6" d="M76.9 250.6a10 10 0 01-10 10h-10a10 10 0 01-10-10v-10a10 10 0 0110-10h10a10 10 0 0110 10v10z"/><path class="st1" d="M76.9 250.6a10 10 0 01-10 10h-10a10 10 0 01-10-10v-10a10 10 0 0110-10h10a10 10 0 0110 10v10z"/></g><g><path class="st3" d="M224.8 250.6a10 10 0 01-10 10h-10a10 10 0 01-10-10v-10a10 10 0 0110-10h10a10 10 0 0110 10v10z"/><path class="st1" d="M224.8 250.6a10 10 0 01-10 10h-10a10 10 0 01-10-10v-10a10 10 0 0110-10h10a10 10 0 0110 10v10z"/></g><g><path class="st8" d="M151.8 250.6a10 10 0 01-10 10h-10a10 10 0 01-10-10v-10a10 10 0 0110-10h10a10 10 0 0110 10v10z"/><path class="st1" d="M151.8 250.6a10 10 0 01-10 10h-10a10 10 0 01-10-10v-10a10 10 0 0110-10h10a10 10 0 0110 10v10z"/></g><g><path class="st2" d="M114.4 250.6a10 10 0 01-10 10h-10a10 10 0 01-10-10v-10a10 10 0 0110-10h10a10 10 0 0110 10v10z"/><path class="st1" d="M114.4 250.6a10 10 0 01-10 10h-10a10 10 0 01-10-10v-10a10 10 0 0110-10h10a10 10 0 0110 10v10z"/></g><g><path class="st2" d="M188.3 250.6a10 10 0 01-10 10h-10a10 10 0 01-10-10v-10a10 10 0 0110-10h10a10 10 0 0110 10v10z"/><path class="st1" d="M188.3 250.6a10 10 0 01-10 10h-10a10 10 0 01-10-10v-10a10 10 0 0110-10h10a10 10 0 0110 10v10z"/></g><path class="st9" d="M313.4 134.4h-30.3l15.2-33.9zM283.6 213.6h30.3l-15.2 33.9zM278.2 153.9h40.1V194h-40.1z"/><g><path class="st8" d="M311.3 176.6a10 10 0 01-10 10h-5.2a10 10 0 01-10-10v-5.2a10 10 0 0110-10h5.2a10 10 0 0110 10v5.2z"/><path class="st1" d="M311.3 176.6a10 10 0 01-10 10h-5.2a10 10 0 01-10-10v-5.2a10 10 0 0110-10h5.2a10 10 0 0110 10v5.2z"/></g></svg>