<svg xmlns="http://www.w3.org/2000/svg" viewBox="0 0 348 348" fill="none"><path d="M5.079 5.776h336.913v337.67H5.08z" stroke-width="2" stroke="#000"/><path d="M282.734 40.554c0-8.376 6.966-15.165 15.56-15.165 4.126 0 8.084 1.597 11.001 4.441 2.918 2.844 4.558 6.702 4.558 10.724 0 8.376-6.966 15.165-15.56 15.165-8.593 0-15.559-6.79-15.559-15.165z" stroke-width="2" stroke="#000"/><path fill="#fff" stroke="#000" stroke-width="2" d="M12.331 22.378h36.992v89.969H12.331zm44.984.228h36.992v89.969H57.315zm46.583-.456h36.992v89.969h-36.992zm44.756 0h36.992v89.969h-36.992zm44.984.228h36.992v89.969h-36.992zm46.582-.457h36.992v89.969H240.22z"/><g style="line-height:1.25;-inkscape-font-specification:'monospace Bold'"><path d="M33.681 51.72v21.914h4.043q1.445 0 2.05.567.626.546.626 1.445 0 .879-.625 1.445-.606.547-2.051.547h-12.09q-1.445 0-2.07-.547-.606-.566-.606-1.465 0-.879.606-1.426.625-.566 2.07-.566h4.043v-16.7l-3.574.938q-.86.235-1.29.235-.76 0-1.327-.606-.547-.605-.547-1.484 0-.8.41-1.25.41-.469 1.719-.82z" aria-label="1" font-weight="700" font-size="40" font-family="monospace" letter-spacing="0" word-spacing="0" fill="#000"/></g><g style="line-height:1.25;-inkscape-font-specification:'monospace Bold'"><path d="M72.656 75.004h8.77q.722-.586 1.366-.586.918 0 1.446.606.547.605.547 2.07v1.914H66.542V74.77q10.82-8.926 13.067-11.485 1.133-1.308 1.133-2.48 0-1.465-1.29-2.578-1.269-1.133-3.398-1.133-2.148 0-3.574 1.25-.742.664-1.191 1.973-.274.82-.762 1.171-.469.352-1.172.352-.82 0-1.426-.586-.586-.586-.586-1.367 0-1.172 1.074-2.93 1.094-1.758 3.164-2.812 2.09-1.055 4.532-1.055 3.789 0 6.21 2.305 2.423 2.285 2.423 5.547 0 1.66-.704 3.086-.683 1.406-3.32 3.906-2.07 1.972-8.066 7.07z" aria-label="2" font-weight="700" font-size="40" font-family="monospace" letter-spacing="0" word-spacing="0" fill="#000"/></g><g style="line-height:1.25;-inkscape-font-specification:'monospace Bold'"><path d="M129.148 65.172q1.777 1.211 2.656 2.813.879 1.582.879 3.554 0 2.13-1.172 3.946-1.152 1.796-3.36 2.734-2.206.918-5.78.918-4.649 0-6.993-1.445-1.308-.82-1.308-1.953 0-.86.566-1.446.586-.605 1.406-.605.567 0 1.172.39.86.586 1.621.782 1.172.273 3.223.273 3.496 0 5.059-.898 1.562-.918 1.562-2.579 0-1.23-.918-2.363-.898-1.152-2.422-1.777-.879-.352-2.968-.488-.997-.059-1.543-.606-.528-.566-.528-1.387 0-.859.586-1.445.586-.586 1.485-.586 1.992 0 2.128-.02.782-.078 1.563-.507.781-.43 1.25-1.172.488-.762.488-1.563 0-1.27-1.133-2.187-1.113-.938-3.359-.938-2.89 0-4.414 1.68-.45.488-.723.625-.41.215-.918.215-.82 0-1.406-.586t-.586-1.445q0-1.348 1.797-2.617 2.617-1.856 6.543-1.856 3.71 0 5.957 2.11 2.246 2.109 2.246 5.078 0 1.543-.664 2.89-.664 1.328-1.992 2.461z" aria-label="3" font-weight="700" font-size="40" font-family="monospace" letter-spacing="0" word-spacing="0" fill="#000"/></g><g style="line-height:1.25;-inkscape-font-specification:'monospace Bold'"><path d="M172.996 54.825v15.664q1.27 0 1.875.566.606.547.606 1.426 0 .879-.625 1.445-.606.567-1.856.567v1.601q1.27 0 1.875.567.606.566.606 1.445 0 .879-.625 1.445-.606.547-2.051.547h-5.371q-1.446 0-2.07-.547-.606-.566-.606-1.465 0-.879.605-1.425.625-.567 2.07-.567h1.563v-1.601h-10.879v-3.34l9.59-16.328zm-4.004 15.664v-9.844l-5.8 9.844z" aria-label="4" font-weight="700" font-size="40" font-family="monospace" letter-spacing="0" word-spacing="0" fill="#000"/></g><g style="line-height:1.25;-inkscape-font-specification:'monospace Bold'"><path d="M208.78 58.828v4.766q2.226-.703 4.043-.703 3.691 0 6.133 2.52 2.441 2.519 2.441 6.503 0 4.102-2.48 6.446-2.461 2.324-7.56 2.324-4.491 0-7.108-1.7-1.524-.976-1.524-2.245 0-.801.586-1.387.606-.606 1.426-.606.683 0 1.484.665.801.644 1.68.898 1.25.371 3.203.371 3.633 0 4.961-1.152 1.328-1.172 1.328-3.575 0-2.363-1.289-3.71-1.27-1.348-3.281-1.348-2.168 0-4.942 1.406-.625.332-1.093.332-.86 0-1.446-.625-.566-.625-.566-1.62V54.824h12.246q1.445 0 2.05.566.626.547.626 1.445 0 .88-.625 1.446-.606.546-2.051.546z" aria-label="5" font-weight="700" font-size="40" font-family="monospace" letter-spacing="0" word-spacing="0" fill="#000"/></g><g style="line-height:1.25;-inkscape-font-specification:'monospace Bold'"><path d="M252.52 66.426q1.444-1.21 2.753-1.758 1.309-.566 2.793-.566 3.145 0 5.508 2.5t2.363 6.27q0 3.496-2.207 5.663-2.187 2.149-5.957 2.149-3.144 0-5.176-1.465-2.03-1.465-3.066-4.512-1.035-3.046-1.035-6.796 0-4.493 2.05-7.461 2.051-2.989 4.825-4.63 2.773-1.64 5.86-1.64 2.44 0 3.788.957.88.645.88 1.64 0 .88-.587 1.485-.586.586-1.406.586-.469 0-1.348-.469-.527-.273-1.015-.273-1.914 0-3.965 1.094-2.051 1.074-3.555 3.32-1.035 1.562-1.504 3.906zm.585 6.192q.625 2.343 1.68 3.203 1.074.859 3.047.859 1.972 0 3.027-1.035 1.074-1.035 1.074-2.813 0-2.03-1.23-3.379-1.211-1.347-2.735-1.347-1.21 0-2.597 1.191-1.367 1.192-2.266 3.32z" aria-label="6" font-weight="700" font-size="40" font-family="monospace" letter-spacing="0" word-spacing="0" fill="#000"/></g><path fill="#fff" stroke="#000" stroke-width="2" d="M241.603 121.553h89.152v32.986h-89.152zM14.71 166.129h314.707v165.377H14.71z"/><rect width="288.407" height="139.969" x="27.191" y="178.611" ry="12.927" fill="#fff" stroke="#000" stroke-width="2"/><path d="M27.191 207.808h287.07-284.84m-2.23 72.436h287.516m-97.621 38.336v-37.89" stroke="#000" stroke-width="2"/></svg>