<svg xmlns="http://www.w3.org/2000/svg" viewBox="0 0 348 348" fill="none"><path d="M5.079 5.776h336.913v337.67H5.08z" stroke-width="2" stroke="#000"/><path d="M282.734 40.554c0-8.376 6.966-15.165 15.56-15.165 4.126 0 8.084 1.597 11.001 4.441 2.918 2.844 4.558 6.702 4.558 10.724 0 8.376-6.966 15.165-15.56 15.165-8.593 0-15.559-6.79-15.559-15.165z" stroke-width="2" stroke="#000"/><path stroke="#000" d="M130.5 45.917h98.479v92.438H130.5zM51.958 247.708h70.688v64.042H51.958zM145.302 247.708h70.688v64.042h-70.688zM241.969 247.104h70.688v64.042h-70.688z"/><text style="line-height:1.25;-inkscape-font-specification:Arial;text-align:center" x="179.438" y="114.792" font-weight="400" font-size="64" font-family="Arial" letter-spacing="0" word-spacing="0" text-anchor="middle" fill="#000"><tspan x="179.438" y="114.792">20</tspan></text><text style="line-height:1.25;-inkscape-font-specification:Arial;text-align:center" x="85.922" y="295.987" font-weight="400" font-size="42.667" font-family="Arial" letter-spacing="0" word-spacing="0" text-anchor="middle" fill="#000"><tspan x="85.922" y="295.987">6</tspan></text><text style="line-height:1.25;-inkscape-font-specification:Arial;text-align:center" x="182.665" y="295.255" font-weight="400" font-size="42.667" font-family="Arial" letter-spacing="0" word-spacing="0" text-anchor="middle" fill="#000"><tspan x="182.665" y="295.255">7</tspan></text><text style="line-height:1.25;-inkscape-font-specification:Arial;text-align:center" x="279.288" y="295.542" font-weight="400" font-size="42.667" font-family="Arial" letter-spacing="0" word-spacing="0" text-anchor="middle" fill="#000"><tspan x="279.288" y="295.542">8</tspan></text></svg>