<svg xmlns="http://www.w3.org/2000/svg" viewBox="0 0 348 348" fill="none"><path d="M5.079 5.776h336.913v337.67H5.08z" stroke-width="2" stroke="#000"/><path d="M282.734 40.554c0-8.376 6.966-15.165 15.56-15.165 4.126 0 8.084 1.597 11.001 4.441 2.918 2.844 4.558 6.702 4.558 10.724 0 8.376-6.966 15.165-15.56 15.165-8.593 0-15.559-6.79-15.559-15.165z" stroke-width="2" stroke="#000"/><g transform="matrix(.96492 0 0 .96492 -1.457 7.564)" stroke="#000" stroke-width="1.853" stroke-miterlimit="10"><circle r="58.512" cy="104.012" cx="181.356" fill="#000"/><ellipse ry="51.141" rx="51.601" cy="104.012" cx="181.356" fill="#fff"/></g><ellipse cx="173.535" cy="254.846" rx="35.516" ry="35.972" fill="#000" stroke="#000" stroke-width="3.663" stroke-miterlimit="10"/><path d="M69.718 257.931l44.828-25.882v51.764z" transform="matrix(1.23073 0 0 1 -39.44 -3.085)" fill="#000" stroke="#000" stroke-width="1.739" stroke-miterlimit="10"/><path d="M69.718 257.931l44.828-25.882v51.764z" transform="matrix(-1.23073 0 0 1 386.51 -3.085)" fill="#000" stroke="#000" stroke-width="1.739" stroke-miterlimit="10"/><circle cx="173.535" cy="254.846" r="31.497" fill="#fff" stroke="#000" stroke-width="2.184" stroke-miterlimit="10"/><g fill="#000" stroke="#000" stroke-miterlimit="10"><path stroke-width="1.218" d="M137.262 66.136h71.26v2.595h-71.26z"/><path stroke-width="1.313" d="M129.737 76.316h86.523v2.483h-86.523z"/><path stroke-width="1.399" d="M124.036 86.435h97.983v2.49h-97.983z"/><path stroke-width="1.46" d="M119.764 96.547h105.687v2.513H119.764z"/><path stroke-width="1.453" d="M120.82 106.673h104.883v2.508H120.82z"/><path stroke-width="1.446" d="M122.002 116.797h103.963v2.505H122.002z"/><path stroke-width="1.403" d="M126.234 126.911h97.132v2.524h-97.132z"/><path stroke-width="1.327" d="M130.799 137.021h86.063v2.551h-86.063z"/><path stroke-width="1.2" d="M138.989 147.124h69.285v2.59h-69.285z"/></g><g fill="#000" stroke="#000" stroke-miterlimit="10"><path stroke-width="1.218" d="M215.32 72.328v71.26h-2.595v-71.26z"/><path stroke-width="1.313" d="M205.14 64.803v86.523h-2.483V64.803z"/><path stroke-width="1.399" d="M195.021 59.102v97.983h-2.49V59.102z"/><path stroke-width="1.46" d="M184.91 54.83v105.687h-2.514V54.83z"/><path stroke-width="1.453" d="M174.783 55.886v104.883h-2.508V55.886z"/><path stroke-width="1.446" d="M164.66 57.068V161.03h-2.506V57.068z"/><path stroke-width="1.403" d="M154.545 61.3v97.132h-2.524V61.3z"/><path stroke-width="1.327" d="M144.435 65.865v86.063h-2.55V65.865z"/><path stroke-width="1.2" d="M134.332 74.055v69.285h-2.59V74.055z"/></g></svg>