<svg xmlns="http://www.w3.org/2000/svg" xml:space="preserve" fill="none" stroke="#000" stroke-width="2" viewBox="0 0 347 347"><circle cx="298" cy="40" r="16"/><path d="M5 5h337v337H5z"/><path stroke-width="3" d="M47.5 73.3h252v146.9h-252zm-.3 153.8h252.7v46.6H47.2z"/><path stroke-width="2.4" d="M173.5 84.2a14.4 14.4 0 0 0-14.4 14.4 14.4 14.4 0 0 0 14.4 14.3 14.4 14.4 0 0 0 14.4-14.3 14.4 14.4 0 0 0-14.4-14.4zm49.4 0a14.4 14.4 0 0 0-14.4 14.4 14.4 14.4 0 0 0 14.4 14.3 14.4 14.4 0 0 0 14.3-14.3A14.4 14.4 0 0 0 223 84.2z"/><path fill="#000" stroke-width="2.4" d="M272.2 84.2A14.4 14.4 0 0 0 258 98.6a14.4 14.4 0 0 0 14.3 14.3 14.4 14.4 0 0 0 14.4-14.3 14.4 14.4 0 0 0-14.4-14.4zm-148.1 0a14.4 14.4 0 0 0-14.3 14.4 14.4 14.4 0 0 0 14.3 14.3 14.4 14.4 0 0 0 14.4-14.3 14.4 14.4 0 0 0-14.4-14.4zm-49.3 0a14.4 14.4 0 0 0-14.4 14.4 14.4 14.4 0 0 0 14.4 14.3A14.4 14.4 0 0 0 89 98.6a14.4 14.4 0 0 0-14.3-14.4z"/><path stroke-width="2.4" d="M74.8 132.3a14.4 14.4 0 0 0-14.4 14.4 14.4 14.4 0 0 0 14.4 14.4A14.4 14.4 0 0 0 89 146.7a14.4 14.4 0 0 0-14.3-14.4z"/><path fill="#000" stroke-width="2.4" d="M74.8 180.5a14.4 14.4 0 0 0-14.4 14.4 14.4 14.4 0 0 0 14.4 14.3A14.4 14.4 0 0 0 89 195a14.4 14.4 0 0 0-14.3-14.4z"/><path stroke-width="2.4" d="M124.1 132.3a14.4 14.4 0 0 0-14.3 14.4 14.4 14.4 0 0 0 14.3 14.4 14.4 14.4 0 0 0 14.4-14.4 14.4 14.4 0 0 0-14.4-14.4zm0 48.2a14.4 14.4 0 0 0-14.3 14.4 14.4 14.4 0 0 0 14.3 14.3 14.4 14.4 0 0 0 14.4-14.3 14.4 14.4 0 0 0-14.4-14.4z"/><path fill="#000" stroke-width="2.4" d="M173.5 132.3a14.4 14.4 0 0 0-14.4 14.4 14.4 14.4 0 0 0 14.4 14.4 14.4 14.4 0 0 0 14.4-14.4 14.4 14.4 0 0 0-14.4-14.4zm0 48.2a14.4 14.4 0 0 0-14.4 14.4 14.4 14.4 0 0 0 14.4 14.3 14.4 14.4 0 0 0 14.4-14.3 14.4 14.4 0 0 0-14.4-14.4z"/><path stroke-miterlimit="5" stroke-width="2.4" d="M222.9 132.3a14.4 14.4 0 0 0-14.4 14.4 14.4 14.4 0 0 0 14.4 14.4 14.4 14.4 0 0 0 14.3-14.4 14.4 14.4 0 0 0-14.3-14.4zm0 48.2a14.4 14.4 0 0 0-14.4 14.4 14.4 14.4 0 0 0 14.4 14.3 14.4 14.4 0 0 0 14.3-14.3 14.4 14.4 0 0 0-14.3-14.4zm49.3-48.2a14.4 14.4 0 0 0-14.3 14.4 14.4 14.4 0 0 0 14.3 14.4 14.4 14.4 0 0 0 14.4-14.4 14.4 14.4 0 0 0-14.4-14.4z"/><path fill="#000" stroke-width="2.4" d="M272.2 180.5a14.4 14.4 0 0 0-14.3 14.4 14.4 14.4 0 0 0 14.3 14.3 14.4 14.4 0 0 0 14.4-14.3 14.4 14.4 0 0 0-14.4-14.4z"/><path fill="#000" d="m80.6 264.2-9.8-28.5h4.4l7.7 23.8 7.8-23.8h4.4l-9.8 28.5zm38.2.5q-4 0-7-1.8-3-2-4.7-5.3-1.6-3.4-1.6-7.7 0-4.3 1.6-7.6t4.6-5.2q3-1.9 7.1-1.9 4.2 0 7.1 2 3 1.8 4.6 5.1 1.7 3.3 1.7 7.6t-1.7 7.7Q129 261 126 263q-3 1.8-7 1.8zm0-3.3q2.6 0 4.7-1.4 2.1-1.3 3.4-3.8 1.2-2.6 1.2-6.3 0-3.6-1.2-6.2-1.3-2.5-3.4-3.8-2-1.3-4.7-1.3-2.5 0-4.7 1.3-2 1.3-3.3 3.8-1.2 2.6-1.2 6.2 0 3.7 1.2 6.3 1.2 2.5 3.3 3.8 2.2 1.4 4.7 1.4zm31.3 2.8-7.1-28.5h4.4l5.5 23.6 5.2-23.6h4.7l5.2 23.6 5.6-23.6h4.3l-7 28.5h-5l-5.4-23.5-5.6 23.5zm40.5 0v-28.5H210v3.5h-15.3v8.6H206v3.5h-11.3v9.5H210v3.4zm33.2 0v-28.5h4v25h15.3v3.5zm41.4.5q-2.4 0-4.6-.7-2.2-.7-3.9-2.2-1.7-1.5-2.4-3.8l3.7-1.1q.5 1.5 1.6 2.5 1.2 1 2.7 1.5 1.5.5 3 .5 1.8 0 3.3-.6 1.5-.5 2.5-1.7 1-1.1 1-2.8 0-1.8-1.3-2.8-1.3-1-4.5-1.8l-3.6-.8q-2-.5-3.9-1.4-1.8-.9-3-2.4-1.3-1.6-1.3-4.3 0-2.4 1.5-4 1.6-1.8 4-2.7 2.4-.9 5-.9 2 0 3.9.6 2 .6 3.5 1.8 1.6 1.1 2.5 3l-3.7 1q-.8-1.5-2.6-2.3-1.8-.7-3.8-.7-1.5 0-3 .5-1.3.5-2.2 1.4-1 1-1 2.5 0 1.4.9 2.3.8.8 2.2 1.3l3 .9 3.2.7q2.2.5 4 1.4 2 .9 3.2 2.5 1.2 1.6 1.2 4.4 0 2-1 3.5-.9 1.5-2.5 2.6-1.5 1-3.6 1.6-2 .5-4 .5z"/><path fill="#000" stroke-width="1" d="M43.5 294.6a5 5 0 0 1-6 3.5 5 5 0 0 1-3.6-6 5 5 0 0 1 6-3.6 5 5 0 0 1 3.6 6zM257.6 49a5 5 0 0 1-6 3.4 5 5 0 0 1-3.5-6 5 5 0 0 1 6.1-3.5 5 5 0 0 1 3.4 6.1zM54.4 49a5 5 0 0 1-3.8 5.9 5 5 0 0 1-5.9-3.8 5 5 0 0 1 3.8-6 5 5 0 0 1 5.9 3.9zm86.5 261a5 5 0 0 1-3.5 6 5 5 0 0 1-6-3.4 5 5 0 0 1 3.5-6.1 5 5 0 0 1 6 3.5zm168.3-11.7a5 5 0 0 1-3.7 6 5 5 0 0 1-6-3.8 5 5 0 0 1 3.8-6 5 5 0 0 1 6 3.8z"/><path fill="#000" stroke-width=".6" d="M40.2 307.3a5 5 0 0 1-6 3.6 5 5 0 0 1-3.6-6 5 5 0 0 1 6-3.6 5 5 0 0 1 3.6 6zm29-6.2a5 5 0 0 1-6 3.6 5 5 0 0 1-3.6-6 5 5 0 0 1 6-3.6 5 5 0 0 1 3.6 6zm-12.9-3.3a5 5 0 0 1-6 3.6 5 5 0 0 1-3.6-6 5 5 0 0 1 6-3.6 5 5 0 0 1 3.6 6zm-25.6-6.5a5 5 0 0 1-6 3.6 5 5 0 0 1-3.6-6 5 5 0 0 1 6-3.6 5 5 0 0 1 3.6 6zM17.9 288a5 5 0 0 1-6 3.6 5 5 0 0 1-3.6-6 5 5 0 0 1 6-3.6 5 5 0 0 1 3.6 6zm28.9-6.3a5 5 0 0 1-6 3.6 5 5 0 0 1-3.6-6 5 5 0 0 1 6-3.6 5 5 0 0 1 3.6 6Zm220-216.3a5 5 0 0 1-6.1 3.5 5 5 0 0 1-3.4-6.2 5 5 0 0 1 6-3.4 5 5 0 0 1 3.5 6.1zm-25.5-7.2a5 5 0 0 1-6 3.4 5 5 0 0 1-3.5-6A5 5 0 0 1 238 52a5 5 0 0 1 3.4 6.1zm41.8-1.8a5 5 0 0 1-6 3.4 5 5 0 0 1-3.5-6.1 5 5 0 0 1 6.1-3.5 5 5 0 0 1 3.4 6.2zm-51-14.5a5 5 0 0 1-6 3.4 5 5 0 0 1-3.4-6 5 5 0 0 1 6-3.5 5 5 0 0 1 3.5 6.1zM274 40a5 5 0 0 1-6.1 3.4 5 5 0 0 1-3.4-6.1 5 5 0 0 1 6-3.4A5 5 0 0 1 274 40zm-25.4-7.2a5 5 0 0 1-6.2 3.4A5 5 0 0 1 239 30a5 5 0 0 1 6.1-3.4 5 5 0 0 1 3.5 6zm-191.4 29a5 5 0 0 1-3.8 6 5 5 0 0 1-5.9-3.8 5 5 0 0 1 3.8-6 5 5 0 0 1 5.9 3.9zm10.1-15.7a5 5 0 0 1-3.8 6 5 5 0 0 1-5.8-3.9 5 5 0 0 1 3.7-5.8 5 5 0 0 1 6 3.7zm-25.8 5.7a5 5 0 0 1-3.8 5.9 5 5 0 0 1-5.9-3.8 5 5 0 0 1 3.8-6 5 5 0 0 1 5.9 3.9zm36-21.4a5 5 0 0 1-3.8 5.9 5 5 0 0 1-6-3.8 5 5 0 0 1 3.9-6 5 5 0 0 1 5.9 3.9zm-26 5.6a5 5 0 0 1-3.7 5.9 5 5 0 0 1-6-3.8 5 5 0 0 1 3.9-5.9 5 5 0 0 1 5.9 3.8zm-25.8 5.6a5 5 0 0 1-3.8 6 5 5 0 0 1-5.9-3.9 5 5 0 0 1 3.8-5.8 5 5 0 0 1 6 3.7zm131.5 277.8a5 5 0 0 1-3.5 6 5 5 0 0 1-6.1-3.4 5 5 0 0 1 3.5-6 5 5 0 0 1 6 3.4zm-25.6 6.9a5 5 0 0 1-3.5 6 5 5 0 0 1-6-3.5 5 5 0 0 1 3.4-6 5 5 0 0 1 6.1 3.5zm22.1-19.6a5 5 0 0 1-3.5 6 5 5 0 0 1-6-3.5 5 5 0 0 1 3.5-6 5 5 0 0 1 6 3.5zm-25.5 6.8a5 5 0 0 1-3.5 6 5 5 0 0 1-6-3.4 5 5 0 0 1 3.4-6 5 5 0 0 1 6 3.4zm22-19.6a5 5 0 0 1-3.4 6 5 5 0 0 1-6-3.5 5 5 0 0 1 3.4-6 5 5 0 0 1 6 3.5zm-25.5 6.8a5 5 0 0 1-3.5 6 5 5 0 0 1-6-3.4 5 5 0 0 1 3.5-6 5 5 0 0 1 6 3.4zm213.3 4.9a5 5 0 0 1-3.8 5.9 5 5 0 0 1-6-3.8 5 5 0 0 1 3.9-5.9 5 5 0 0 1 5.9 3.8zM286.3 317a5 5 0 0 1-3.8 5.9 5 5 0 0 1-5.9-3.8 5 5 0 0 1 3.8-5.9 5 5 0 0 1 5.9 3.8zm35.9-21.5a5 5 0 0 1-3.8 5.9 5 5 0 0 1-6-3.8 5 5 0 0 1 3.9-5.9 5 5 0 0 1 5.9 3.8zm-25.9 5.7a5 5 0 0 1-3.7 5.9 5 5 0 0 1-6-3.8 5 5 0 0 1 3.8-5.9 5 5 0 0 1 6 3.8zm36-21.5a5 5 0 0 1-3.8 5.9 5 5 0 0 1-6-3.8 5 5 0 0 1 3.8-6 5 5 0 0 1 6 3.9zm-51.8 11.4a5 5 0 0 1-3.7 6 5 5 0 0 1-6-3.8 5 5 0 0 1 3.8-6 5 5 0 0 1 6 3.8z"/></svg>
