<svg xmlns="http://www.w3.org/2000/svg" fill="none" viewBox="0 0 348 348"><path fill="#787878" stroke="#000" stroke-width="2" d="M5.08 5.78h336.91v337.67H5.08z"/><path fill="#fff" stroke="#000" stroke-width="2" d="M282.73 40.55c0-8.37 6.97-15.16 15.56-15.16 4.13 0 8.09 1.6 11 4.44a14.97 14.97 0 0 1 4.56 10.72c0 8.38-6.96 15.17-15.56 15.17-8.59 0-15.56-6.8-15.56-15.17z"/><path fill="#fff" stroke="#000" stroke-width="2" d="M303.1 171.82h-47.8q-2.8 0-5.28 1.05-2.45 1.05-4.2 2.9-1.75 1.78-2.76 4.2-1.01 2.41-1.01 5.14 0 2.77 1.05 5.18.97 2.42 2.72 4.2 1.75 1.75 4.2 2.8 2.45 1.02 5.29 1.02h4.4v8.08h-4.4q-4.41 0-8.33-1.68-3.85-1.68-6.75-4.59-2.9-2.9-4.55-6.75-1.72-3.92-1.72-8.33 0-4.4 1.68-8.26 1.68-3.91 4.59-6.78 2.9-2.9 6.75-4.59 3.92-1.68 8.33-1.68h36.39l-15.05-15.15 5.67-5.74 20.79 20.9z" aria-label="ᖠ"/><path fill="#fff" stroke="#000" stroke-width="2" d="M191.1 269.42h20.52v-14.91q0-5.18 1.57-9.28 1.61-4.13 4.48-7 2.9-2.9 7-4.48 4.1-1.54 9.07-1.54 4.69 0 8.75 1.54 4.06 1.58 7 4.48 3.01 2.94 4.73 7.04 1.75 4.13 1.75 9.24v22.5h-7.63v-22.5q0-3.64-1.05-6.37-1.05-2.8-2.9-4.62-1.97-1.86-4.63-2.8-2.66-.91-5.95-.91-3.22 0-5.92.9-2.7.95-4.58 2.8-1.96 1.86-3.01 4.63-1.05 2.73-1.05 6.37v22.5H191.1z" aria-label="ᕂ"/><path fill="#fffcff" stroke="#000" stroke-width="2" d="m186.85 161.22 9.03-9.03-5.74-5.74-9.03 9.03-4.26-4.26-5.6 5.6 4.26 4.25-9.82 9.82 16.92 16.92-35.25 7.15 1.34 7.82 49.55-9.82.35-.35-21.58-21.57 4.2-4.2 12.87 12.86 5.62-5.62z" aria-label="ᖨ"/><path fill="#fff" stroke="#000" stroke-width="2" d="m112.96 258.72 9.27 9.27q3.13 3.13 7 4.7 3.87 1.52 7.91 1.49 4.05.03 7.92-1.49 3.94-1.54 7.05-4.65 3.08-3.08 4.6-7 1.56-3.92 1.56-7.94 0-4.07-1.51-7.94-1.57-3.92-4.68-7.03-3.05-3.05-6.92-4.57-3.92-1.56-7.99-1.56-4.02 0-7.94 1.56-3.92 1.52-7 4.6l-33.44 33.43 5.65 5.65zm14.91-14.92q1.99-1.98 4.42-2.9 2.48-1.02 4.96-.94 2.5 0 4.9 1 2.41.93 4.34 2.87 1.94 1.93 2.9 4.3 1 2.41 1 4.92.02 2.43-1 4.86-.96 2.43-2.95 4.41-1.96 1.96-4.39 2.93-2.37.96-4.85.99-2.51 0-4.91-1-2.4-.93-4.34-2.87l-9.33-9.32z" aria-label="ᑫ"/><path fill="#fff" stroke="#000" stroke-width="2" d="M57.3 174.9q0 5 1.13 9.52 1.15 4.49 3.68 7.88 2.52 3.4 6.55 5.4 4.1 1.93 9.88 1.93 5.88 0 9.9-1.93 4.07-2 6.56-5.4 2.56-3.4 3.64-7.88 1.12-4.52 1.12-9.52v-32.72h7.6v32.72q0 6.55-1.64 12.43-1.58 5.85-5.05 10.23-3.43 4.38-8.93 6.97-5.46 2.52-13.2 2.52-7.71 0-13.21-2.52-5.5-2.6-8.97-6.97-3.43-4.38-5.08-10.23-1.57-5.88-1.57-12.43v-32.72h7.6z" aria-label="ᑌ"/><path fill="#fff" stroke="#000" stroke-width="2" d="M191.11 62.2h8.05l24.37 49.43 24.38-49.44h8.05l-31.97 64.85h-.91z" aria-label="ᐯ"/><path fill="#fff" stroke="#000" stroke-width="2" d="M144.38 103.79q3.54-3.54 5.94-7.53 2.35-3.99 2.97-8.18.62-4.18-.82-8.44-1.53-4.26-5.62-8.35-4.16-4.16-8.37-5.65-4.28-1.46-8.45-.81-4.2.59-8.14 3-4 2.4-7.53 5.94L91.22 96.9l-5.37-5.37 23.13-23.14q4.63-4.63 9.96-7.63 5.25-3.02 10.8-3.66 5.52-.67 11.24 1.39 5.65 2.08 11.12 7.55 5.45 5.45 7.56 11.12 2.05 5.72 1.4 11.27-.66 5.52-3.63 10.82-3.05 5.28-7.68 9.91l-23.13 23.14-5.38-5.38z" aria-label="ᑌ"/></svg>