<svg xmlns="http://www.w3.org/2000/svg" fill="none" viewBox="0 0 348 348"><defs/><path stroke="#000" stroke-width="2" d="M5.079 5.776h336.913v337.67H5.08z"/><path stroke="#000" stroke-width="2" d="M282.734 40.554c0-8.376 6.966-15.165 15.56-15.165 4.126 0 8.084 1.597 11.001 4.441 2.918 2.844 4.558 6.702 4.558 10.724 0 8.376-6.966 15.165-15.56 15.165-8.593 0-15.559-6.79-15.559-15.165z"/><path fill="#fff" d="M116.23278 41.510255q0-11.345528 11.34553-11.345528h9.07642q11.34553 0 11.34553 11.345528v9.076422q0 11.345528-11.34553 11.345528h-9.07642q-11.34553 0-11.34553-11.345528zm11.34553-2.269106q-2.26911 0-2.26911 2.269106v9.076422q0 2.269106 2.26911 2.269106h9.07642q2.26911 0 2.26911-2.269106v-9.076422q0-2.269106-2.26911-2.269106z" aria-label="0" font-family="Fox Cavalier" font-size="46.47128296" font-weight="400" letter-spacing="0" word-spacing="0"/><path fill="#000" stroke="#000" stroke-opacity=".91712706" stroke-width="1.88976383" d="M26.055838 192.54822h39.746193v54.761421H26.055838zM87.883255 192.54822h39.746193v54.761421H87.883255zM149.71068 192.54822h39.746193v54.761421H149.71068zM211.53807 192.54822h39.746193v54.761421H211.53807zM273.36548 192.54822h39.746193v54.761421H273.36548zM26.055838 263.20813h39.746193v54.761421H26.055838zM87.883255 263.20813h39.746193v54.761421H87.883255zM149.71068 263.20813h39.746193v54.761421H149.71068zM211.53807 263.20813h39.746193v54.761421H211.53807zM273.36548 263.20813h39.746193v54.761421H273.36548z"/><g style="line-height:1.25"><path fill="#fff" d="M41.189677 211.33075q-.96 0-1-1.32-.04-1.36 1-1.36.64 0 1.52-.16t1.96-.44q1-.36 1.76-1.2.76-.88 1.08-2.04.24-.64.8-1.04t1.48-.36q1.88.08 1.88 1.96v29.2q0 1.88-2.36 1.88t-2.36-1.88v-23.24z" aria-label="1" font-family="Gugi" font-size="40" font-weight="400" letter-spacing="0" style="-inkscape-font-specification:Gugi" word-spacing="0"/></g><g style="line-height:1.25"><path fill="#fff" d="M109.57449 204.02893q.96 0 2.08.44 1.16.44 2.2 1.12h-.04q1.04.76 1.6 2 .56 1.2.56 2.8v3.92q0 2.08-1.6 3.92-1.6 1.8-4.56 3.2-3.04 1.4-4.64 2.92-1.56 1.52-1.56 3.08v4.36h11.4q1.52 0 1.56 1.96.08 2.08-1.56 2.08h-13.6q-1.520002 0-2.000002-.72-.48-.76-.48-1.72v-6.32q0-2.52 1.560002-4.4 1.56-1.92 4.56-3.28 2.96-1.24 4.56-2.64 1.64-1.4 1.64-2.76v-3.24q0-1-.64-1.84-.6-.84-2.08-.84h-2.2q-1.48 0-2.12.84-.6.84-.6 1.84v1.6q0 1.88-2.36 1.88-2.320002 0-2.320002-1.88v-1.96q0-1.6.56-2.8.560002-1.24 1.560002-2h-.04q1.04-.68 2.16-1.12 1.16-.44 2.2-.44z" aria-label="2" font-family="Gugi" font-size="40" font-weight="400" letter-spacing="0" style="-inkscape-font-specification:Gugi" word-spacing="0"/></g><g style="line-height:1.25"><path fill="#fff" d="M167.52377 235.82893q-1.04 0-2.16-.4-1.08-.44-2.12-1.2-1.04-.8-1.64-1.96-.56-1.2-.56-2.88v-2.72q0-1.88 2.36-1.88t2.36 1.88v2.4q0 1.04.6 1.88.64.84 2.12.84h2.2q1.48 0 2.08-.84.64-.84.64-1.88v-4.84q0-1-.6-1.84-.6-.88-2.12-.88h-2.84q-1.52 0-1.52-1.96 0-2.04 1.52-2.04h2.84q1.64 0 2.16-.8.56-.84.56-1.88v-4.08q0-1-.64-1.84-.6-.84-2.08-.84h-2.2q-1.48 0-2.12.84-.6.84-.6 1.84v1.6q0 1.88-2.36 1.88t-2.36-1.88v-1.96q0-1.6.56-2.8.6-1.24 1.64-2h-.04q1.04-.68 2.16-1.12 1.12-.44 2.16-.44h4.2q1 0 2.12.44t2.16 1.12h-.04q1.04.76 1.6 2 .56 1.2.56 2.8v4.76q0 1.92-.72 3.08-.24.32-.48.68-.24.36-.4.56l.56.96.4.44q.64 1 .64 3.04v5.48q0 1.68-.56 2.88-.56 1.16-1.6 1.96-1.04.76-2.12 1.2-1.08.4-2.12.4z" aria-label="3" font-family="Gugi" font-size="40" font-weight="400" letter-spacing="0" style="-inkscape-font-specification:Gugi" word-spacing="0"/></g><g style="line-height:1.25"><path fill="#fff" d="M223.83068 229.78893q-1.36-.04-2-.56-.6-.56-.6-1.52v-.6q.04-.32.12-.52l5.76-20.8q.48-2.08 2.92-1.64 1.12.24 1.6.88.52.6.24 1.6l.04-.04-5.32 19.2h6.92v-20.24q0-1.92 2.32-1.92 2.4 0 2.4 1.92v20.24h1.8q1.6 0 1.56 2-.08 2-1.56 2h-1.8v4.56q0 1.88-2.4 1.88-2.32 0-2.32-1.88v-4.56z" aria-label="4" font-family="Gugi" font-size="40" font-weight="400" letter-spacing="0" style="-inkscape-font-specification:Gugi" word-spacing="0"/></g><g style="line-height:1.25"><path fill="#fff" d="M290.91857 235.82893q-1.04 0-2.16-.4-1.08-.44-2.12-1.2-2.12-1.56-2.12-4.84v-2.72q0-1.88 2.36-1.88 2.32 0 2.32 1.88v2.4q0 1.04.6 1.88.64.84 2.12.84h2.6q1.48 0 2.08-.84.64-.84.64-1.88v-6.28q0-1-.6-1.84-.6-.88-2.12-.88h-7.12q-1.2 0-1.88-.52-.64-.52-.64-1.8v-11.32q0-.32.08-.68.08-.36.24-.84v.08q.48-.96 2.2-.96h12.8q1.48 0 1.56 2 .08 2.04-1.56 2.04h-10.56v8h5.92q2.08 0 4.24 1.56 2.16 1.44 2.16 4.84v6.92q0 1.68-.56 2.88-.56 1.16-1.6 1.96-1.04.76-2.16 1.2-1.08.4-2.08.4z" aria-label="5" font-family="Gugi" font-size="40" font-weight="400" letter-spacing="0" style="-inkscape-font-specification:Gugi" word-spacing="0"/></g><g style="line-height:1.25"><path fill="#fff" d="M49.748932 293.48885q0-1-.64-1.84-.6-.88-2.08-.88h-2.2q-1.48 0-2.12.88-.6.84-.6 1.84v6.24q0 1.04.6 1.88.64.84 2.12.84h2.2q1.48 0 2.08-.84.64-.84.64-1.88zm-7.64-6.2q.76-.24 1.32-.36.56-.16.8-.16h3.84q1.04 0 2.12.44 1.12.44 2.16 1.16h-.04q1.04.72 1.6 1.96t.56 2.84v6.88q0 1.68-.56 2.88-.56 1.16-1.6 1.96-1.04.76-2.12 1.2-1.08.4-2.12.4h-4.2q-2.08 0-4.32-1.56h.04q-2.2-1.52-2.2-4.88v-19q0-1.6.56-2.76.6-1.2 1.64-2h-.04q1.04-.72 2.16-1.16 1.12-.44 2.16-.44h4.2q1 0 2.12.44t2.16 1.12h-.04q1.04.76 1.6 2 .56 1.2.56 2.8v1.96q0 1.88-2.36 1.88t-2.36-1.88v-1.6q0-1-.64-1.84-.6-.84-2.08-.84h-2.2q-1.48 0-2.12.84-.6.84-.6 1.84z" aria-label="6" font-family="Gugi" font-size="40" font-weight="400" letter-spacing="0" style="-inkscape-font-specification:Gugi" word-spacing="0"/></g><g style="line-height:1.25"><path fill="#fff" d="M117.16035 278.26312q-2.72 3.92-4.44 7.48-1.72 3.56-2.44 6.64-.68 2.96-1.16 6.2-.44 3.2-.64 6.28-.08 1.08-.8 1.56-.68.48-1.88.4-2.56-.16-2.36-1.96.2-2.92.64-5.88.44-3 1.12-6 .76-2.88 2.48-6.56 1.76-3.72 4.52-8.04H99.320353q-1.44 0-1.52-2.04 0-2 1.52-2h15.599997q2.56 0 2.76 1.44.08.64-.04 1.32t-.48 1.16z" aria-label="7" font-family="Gugi" font-size="40" font-weight="400" letter-spacing="0" style="-inkscape-font-specification:Gugi" word-spacing="0"/></g><g style="line-height:1.25"><path fill="#fff" d="M160.46377 294.56885q.04-1.08.32-1.8.32-.76.88-1.28l1.48-1.36-1.24-1.28q-.88-1-.88-3.04v-4.76q.04-1.56.6-2.76.56-1.24 1.6-2.04h-.04q1.04-.68 2.16-1.12 1.12-.44 2.16-.44h4.2q1 0 2.12.44t2.16 1.12h-.04q1.04.76 1.6 2 .56 1.2.56 2.8v4.76q0 1.96-.88 3.04l-1.2 1.32 1.48 1.36q1.2.96 1.2 3.04v5.48q0 3.24-2.16 4.84-1.04.76-2.16 1.2-1.08.4-2.12.4h-5.4q-1.04 0-2.16-.4-1.08-.44-2.12-1.2-2.12-1.56-2.12-4.84zm5.28-9.08q0 1.04.6 1.88.6.8 2.12.8h2.2q1.52 0 2.12-.8.6-.84.6-1.88v-4.08q0-1-.64-1.84-.6-.84-2.08-.84h-2.2q-1.48 0-2.12.84-.6.84-.6 1.84zm-.56 14.24q0 1.04.6 1.88.6.84 2.08.84h3.4q1.48 0 2.08-.84.6-.84.6-1.88v-4.84q0-.48-.12-.96-.12-.52-.44-.88-.28-.4-.8-.64t-1.32-.24h-3.4q-.8 0-1.32.24t-.84.64q-.28.36-.4.88-.12.48-.12.96z" aria-label="8" font-family="Gugi" font-size="40" font-weight="400" letter-spacing="0" style="-inkscape-font-specification:Gugi" word-spacing="0"/></g><g style="line-height:1.25"><path fill="#fff" d="M239.95116 300.04885q0 1.68-.56 2.88-.56 1.16-1.6 1.92h.04q-1.04.72-2.16 1.2-1.08.44-2.12.44h-4.2q-1.04 0-2.16-.4-1.08-.44-2.12-1.2-1.04-.8-1.64-1.96-.56-1.2-.56-2.88v-1.88q0-1.96 2.36-1.96t2.36 1.96v1.56q0 1.04.6 1.88.64.84 2.12.84h2.2q1.48 0 2.08-.84.64-.84.64-1.88v-5.84q-1.52.48-2.12.48h-3.76q-1.04 0-2.16-.4-1.08-.44-2.12-1.16-1.04-.8-1.64-2-.56-1.2-.56-2.84v-6.92q0-1.6.56-2.8.6-1.24 1.64-2h-.04q1.04-.68 2.16-1.12 1.12-.44 2.16-.44h4.2q2.08 0 4.28 1.52h-.04q2.16 1.52 2.16 4.84zm-4.72-18.64q0-1-.64-1.84-.6-.84-2.08-.84h-2.2q-1.48 0-2.12.84-.6.84-.6 1.84v6.24q0 1 .6 1.84.64.84 2.12.84h2.2q1.48 0 2.08-.84.64-.84.64-1.84z" aria-label="9" font-family="Gugi" font-size="40" font-weight="400" letter-spacing="0" style="-inkscape-font-specification:Gugi" word-spacing="0"/></g><g style="line-height:1.25"><path fill="#fff" d="M295.37859 274.68885q1 0 2.12.44t2.16 1.12h-.04q1.04.76 1.6 2 .56 1.2.56 2.8v19q0 1.68-.56 2.88-.56 1.16-1.6 1.96-1.04.76-2.12 1.2-1.08.4-2.12.4h-4.2q-1.04 0-2.16-.4-1.08-.44-2.12-1.2-1.04-.8-1.64-1.96-.56-1.2-.56-2.88v-19q0-1.6.56-2.8.6-1.24 1.64-2h-.04q1.04-.68 2.16-1.12 1.12-.44 2.16-.44zm-1.04 27.76q1.48 0 2.08-.84.64-.84.64-1.88v-18.32q0-1-.64-1.84-.6-.84-2.08-.84h-2.2q-1.48 0-2.12.84-.6.84-.6 1.84v18.32q0 1.04.6 1.88.64.84 2.12.84z" aria-label="0" font-family="Gugi" font-size="40" font-weight="400" letter-spacing="0" style="-inkscape-font-specification:Gugi" word-spacing="0"/></g><path fill="#000" stroke="#000" stroke-opacity=".91712706" stroke-width="1.88976383" d="M129.81468 41.512688h87.441628v127.18782H129.81468z"/><g style="line-height:1.25;-inkscape-font-specification:Gugi"><path fill="#fff" d="M154.14776 142.07797q-.96 3.264-4.992 2.496-3.936-.768-2.496-4.128l7.008-21.216h-11.424q-3.84 0-3.936-3.744-.192-3.936 3.936-3.936h14.112l4.704-14.303998h-13.056q-3.648 0-3.84-3.84-.096-3.84 3.84-3.84h15.744l7.104-21.312q.672-1.344 1.92-2.112 1.248-.864 2.88-.48 3.744.96 2.688 4.032l-6.624 19.872h13.824l7.104-21.312v.096q1.536-3.552 5.088-2.688h-.096q3.552 1.056 2.592 4.032l-6.624 19.872h11.52q3.648 0 3.648 3.84t-3.648 3.84h-14.208l-4.8 14.303998h14.304q3.552 0 3.552 3.936 0 3.744-3.552 3.744h-16.8l-7.68 22.848q-.768 3.072-4.896 2.496-3.744-.672-2.592-4.128l7.008-21.216h-13.728zm10.176-30.528h13.824l4.704-14.303998h-13.824z" aria-label="#" font-family="Gugi" font-size="96" font-weight="400" letter-spacing="0" word-spacing="0"/></g><path fill="#000" stroke="#000" stroke-opacity=".91712706" stroke-width="1.88976395" d="M48.578682 83.025375h54.761421v41.954315H48.578682z"/><g fill="#fff" aria-label="23" font-family="Gugi" font-size="40" font-weight="400" letter-spacing="0" style="line-height:1.25" word-spacing="0"><path d="M66.791266 88.102534q.96 0 2.08.44 1.16.44 2.2 1.12h-.04q1.04.76 1.6 2 .56 1.2.56 2.8v3.92q0 2.079996-1.6 3.919996-1.6 1.8-4.56 3.2-3.04 1.4-4.64 2.92-1.56 1.52-1.56 3.08v4.36h11.4q1.52 0 1.56 1.96.08 2.08-1.56 2.08h-13.6q-1.52 0-2-.72-.48-.76-.48-1.72v-6.32q0-2.52 1.56-4.4 1.56-1.92 4.56-3.28 2.96-1.24 4.56-2.64 1.64-1.399996 1.64-2.759996v-3.24q0-1-.64-1.84-.6-.84-2.08-.84h-2.2q-1.48 0-2.12.84-.6.84-.6 1.84v1.6q0 1.88-2.36 1.88-2.32 0-2.32-1.88v-1.96q0-1.6.56-2.8.56-1.24 1.56-2h-.04q1.04-.68 2.16-1.12 1.16-.44 2.2-.44zM85.167516 119.90253q-1.04 0-2.16-.4-1.08-.44-2.12-1.2-1.04-.8-1.64-1.96-.56-1.2-.56-2.88v-2.72q0-1.88 2.36-1.88t2.36 1.88v2.4q0 1.04.6 1.88.64.84 2.12.84h2.2q1.48 0 2.08-.84.64-.84.64-1.88v-4.84q0-1-.6-1.84-.6-.88-2.12-.88h-2.84q-1.52 0-1.52-1.96 0-2.04 1.52-2.04h2.84q1.64 0 2.16-.8.56-.839996.56-1.879996v-4.08q0-1-.64-1.84-.6-.84-2.08-.84h-2.2q-1.48 0-2.12.84-.6.84-.6 1.84v1.6q0 1.88-2.36 1.88t-2.36-1.88v-1.96q0-1.6.56-2.8.6-1.24 1.64-2h-.04q1.04-.68 2.16-1.12 1.12-.44 2.16-.44h4.2q1 0 2.12.44t2.16 1.12h-.04q1.04.76 1.6 2 .56 1.2.56 2.8v4.76q0 1.919996-.72 3.079996-.24.32-.48.68-.24.36-.4.56l.56.96.4.44q.64 1 .64 3.04v5.48q0 1.68-.56 2.88-.56 1.16-1.6 1.96-1.04.76-2.12 1.2-1.08.4-2.12.4z" style="-inkscape-font-specification:Gugi"/></g></svg>