<svg xmlns="http://www.w3.org/2000/svg" fill="none" viewBox="0 0 348 348"><path stroke="#000" stroke-width="2" d="M5.08 5.78h336.91v337.67H5.08z"/><circle cx="304.52" cy="39.86" r="26.7" fill="#fff" stroke="#000" stroke-width="1.15"/><path stroke="#000" stroke-width="2" d="M288.97 39.86c0-8.38 6.96-15.17 15.56-15.17 4.12 0 8.08 1.6 11 4.44a14.97 14.97 0 014.55 10.73c0 8.37-6.96 15.16-15.56 15.16-8.59 0-15.55-6.79-15.55-15.16z"/><path fill="#fff" stroke="#000" stroke-width="1.15" d="M105.88 21.3h138.01v34.39H105.88z"/><path fill="#000" stroke="#000" stroke-width="1.15" d="M105.88 64.29h168.78v39.37H105.88z"/><path fill="#fff" stroke="#000" stroke-width="1.15" d="M113.01 115.19h28.51v28.51h-28.51zM207.81 115.19h28.51v28.51h-28.51zM113.01 149.92h28.51v28.51h-28.51zM65.61 115.19h28.51v28.51H65.61zM65.61 149.92h28.51v28.51H65.61zM207.81 149.92h28.51v28.51h-28.51zM255.2 115.19h28.51v28.51H255.2zM160.41 115.19h28.51v28.51h-28.51zM160.41 149.92h28.51v28.51h-28.51zM255.2 149.92h28.51v28.51H255.2zM65.61 191.89h218.1v45.7H65.61zM118.78 270.77h111.76v40.72H118.78zM100.68 271.97l-.51 38.3-32.92-19.59zM248.64 310.29l.51-38.3 32.92 19.59z"/><path fill="#fff" stroke="#000" d="M54.89 18.19h4.71v14.05h-4.71zM59.6 102.21h-4.71V88.16h4.71zM99.25 57.85v4.71H85.2v-4.71zM15.23 62.56v-4.71h14.05v4.71zM85.28 28.83l3.33 3.33-9.93 9.93-3.33-3.33zM29.2 91.57l-3.33-3.33 9.94-9.93 3.33 3.33zM88.61 88.25l-3.33 3.33-9.93-9.94 3.33-3.33zM25.87 32.16l3.33-3.33 9.93 9.93-3.33 3.33zM71.15 20.49l4.35 1.8-5.38 12.98-4.35-1.8zM43.34 99.91L39 98.11l5.38-12.98 4.35 1.8zM96.95 74.1l-1.8 4.35-12.98-5.37 1.8-4.35zM17.53 46.3l1.8-4.35 12.98 5.38-1.8 4.35zM95.16 41.95l1.8 4.35-12.98 5.38-1.8-4.35zM19.33 78.45l-1.8-4.35 12.98-5.38 1.8 4.36zM75.5 98.12l-4.36 1.8-5.37-12.98 4.35-1.8zM38.99 22.29l4.35-1.8 5.37 12.98-4.35 1.8z"/><path stroke="#000" d="M57.24 41.23l-10.86 35.3 10.86-10.87L68.1 76.52z"/></svg>