<svg xmlns="http://www.w3.org/2000/svg" fill="none" viewBox="0 0 348 348"><path stroke="#000" stroke-width="2" d="M5 5.8h337v337.7H5z"/><path stroke="#000" stroke-width="2" d="M282.7 40.5c0-8.3 7-15.1 15.6-15.1 4.1 0 8 1.6 11 4.4a15 15 0 0 1 4.6 10.7c0 8.4-7 15.2-15.6 15.2s-15.6-6.8-15.6-15.2z"/><path fill="#000" fill-rule="evenodd" stroke="#000" stroke-linejoin="round" stroke-width="2" d="M16.4 108.3h80v80h-80z"/><path fill="#fff" d="m61.2 161.4-.9 4.2 9.9-.4.2-3-2.7-.4.9-5.8 2.7-14.6 2.6-10.8-6.7.7c-2.3-.4-3.8-.7-5.7-.7-12.5 0-22.5 16.2-22.5 27.6 0 4.2 2.1 7.8 6.7 7.8 7.3 0 14.2-9.3 17.6-15h.3zm3.5-17.3-6.8 9.5c-2 2.6-5.8 7.4-9.4 7.4-2.3 0-3-2.2-3-4 0-4.8 3.6-22.6 13.2-22.6 3 0 5.5.3 7.6 1.2z" aria-label="a"/><path fill="#fff" fill-rule="evenodd" stroke="#000" stroke-linejoin="round" stroke-width="2" d="M15.6 210.4h60v60h-60zm63.5 0h60v60H79zm63.5 0h60v60h-60z"/><path stroke="#000" stroke-width="2" d="M5.5 5.2h337v337.6H5.5Z"/><path fill="#fff" fill-rule="evenodd" stroke="#000" stroke-linejoin="round" stroke-width="2" d="M15.6 274.4h60v60h-60zm63.5 0h60v60H79zm63.5 0h60v60h-60zm63.5 0h60v60h-60zm63.5 0h60v60h-60z"/><g stroke="#000" stroke-width="1.4"><path stroke-linejoin="round" d="m67.2 320.3-13.5 9.6H37.1L23.8 320l-5-15.8 5.1-15.7 13.5-9.7 16.6.1 13.3 9.8 5 15.8z"/><path d="m37.4 278.8 30 10m-30.3 41 30-9.6m-43.3-.2L54 279m-30 9.5 29.7 41.4m-35-25.7 53.7.3"/></g><g stroke="#000" stroke-width="1.4"><path stroke-linejoin="round" d="m130.7 320.3-13.5 9.6h-16.6L87.3 320l-5-15.8 5.2-15.7 13.4-9.7 16.6.1 13.3 9.8 5 15.8z"/><path d="m82.3 304.2 53.6.3m-48.4-16 13.1 41.3M87.3 320l13.6-41.2m16.3 51.1 13.6-41.2m-.1 31.5L117.5 279"/></g><g stroke="#000" stroke-width="1.4"><path stroke-linejoin="round" d="m194.2 320.3-13.5 9.6h-16.6l-13.3-9.9-5-15.8 5.2-15.7 13.4-9.7 16.6.1 13.3 9.8 5 15.8z"/><path d="m145.8 304.2 53.6.3M164 329.8l30.2-41m-13.3-9.9L150.8 320m29.9 10L151 288.4m43.2 31.8-29.8-41.5"/></g><g stroke="#000" stroke-width="1.4"><path stroke-linejoin="round" d="m257.7 320.3-13.5 9.6h-16.6l-13.3-9.9-5-15.8 5.2-15.7 13.4-9.7 16.6.1 13.3 9.8 5 15.8z"/><path d="m228 278.8-.4 51m16.9-50.9-.3 51m-29.7-41.4 43.3.2m-48.6 15.5 53.7.3M214.3 320l43.4.3"/></g><g stroke="#000" stroke-width="1.4"><path stroke-linejoin="round" d="m321.2 320.3-13.5 9.6h-16.6l-13.3-9.9-5-15.8 5.2-15.7 13.4-9.7 16.6.1 13.3 9.8 5 15.8z"/><path d="m272.8 304.2 53.6.3m-35-25.7 30 10m-13.4-9.9-30 9.6m-.2 31.5 29.9 10m-16.6-.2 30-9.5"/></g><path fill="#000" d="m31.6 260.6 4-1.3a15.8 15.8 0 0 0 5.9 1.3c10 0 18-13 18-22.1 0-3.4-1.7-6.3-5.4-6.3-5.8 0-11.3 7.4-14 12h-.3l3.6-16.7 1.8-7.3-8.2.3-.1 2.4 2.1.3-.5 4.3-4.8 24.4zm7.4-10.8 5.4-7.7c1.6-2 4.7-6 7.5-6 1.8 0 2.4 1.8 2.4 3.4 0 3.4-1.3 7.4-2.6 10.6-1.7 4-3.6 7.4-8.6 7.4a15 15 0 0 1-5.4-1z" aria-label="b"/><path fill="#000" d="M120.8 233.4a17.9 17.9 0 0 0-6.3-1.2c-9.7 0-17.2 9.7-17.2 19 0 5.2 2.7 9.4 8.3 9.4 3.7 0 7.5-1.2 10.8-3l.6-3.3a17.5 17.5 0 0 1-8.6 2.9c-4.2 0-5.9-3.6-5.9-7 0-5.6 3.2-15.2 10-15.2a9 9 0 0 1 4.6 1.2l-.3 2.6 2.5.3z" aria-label="c"/><path fill="#000" d="m175.2 256.9-.7 3.4 7.9-.4.1-2.4-2.1-.3.7-4.6 4.8-25 1.8-7.4-8.2.3-.1 2.4 2.1.3-.5 4.3-1 5.3c-1.9-.3-3-.6-4.5-.6-10 0-18 13-18 22 0 3.5 1.6 6.4 5.3 6.4 5.8 0 11.4-7.5 14-12h.3zM178 243l-5.4 7.6c-1.7 2-4.7 6-7.5 6-1.9 0-2.4-1.8-2.4-3.3 0-3.4 1.2-7.4 2.6-10.6 1.7-4.1 3.5-7.4 8.5-7.4 1.9 0 3.8.2 5.5.9z" aria-label="d"/></svg>