<svg xmlns="http://www.w3.org/2000/svg" viewBox="0 0 348 348" fill="none"><path d="M5.079 5.776h336.913v337.67H5.08z" stroke-width="2" stroke="#000"/><path d="M282.734 40.554c0-8.376 6.966-15.165 15.56-15.165 4.126 0 8.084 1.597 11.001 4.441 2.918 2.844 4.558 6.702 4.558 10.724 0 8.376-6.966 15.165-15.56 15.165-8.593 0-15.559-6.79-15.559-15.165z" stroke-width="2" stroke="#000"/><path fill="#fff" stroke="#000" d="M30.644 22.558H250.67v39.837H30.644z"/><path fill="#fff" stroke="#000" stroke-width="1.131" d="M31.339 284.801h282.409v39.706H31.339zM29.854 157.571h282.409v39.706H29.854z"/><text style="line-height:1.25" x="30.336" y="55.905" font-weight="400" font-size="60" font-family="sans-serif" letter-spacing="0" word-spacing="0" fill="#000"><tspan x="30.336" y="55.905" font-size="37.333">&lt;DISPLAY&gt;</tspan></text><text style="line-height:1.25" x="62.406" y="191.118" font-weight="400" font-size="37.333" font-family="sans-serif" letter-spacing="0" word-spacing="0" fill="#000"><tspan x="62.406" y="191.118">Add to Cart</tspan></text><text style="line-height:1.25" x="38.137" y="316.797" font-weight="400" font-size="37.333" font-family="sans-serif" letter-spacing="0" word-spacing="0" fill="#000"><tspan x="38.137" y="316.797">Pay and Leave</tspan></text></svg>