<svg xmlns="http://www.w3.org/2000/svg" viewBox="0 0 348 348" fill="none"><path d="M5.079 5.776h336.913v337.67H5.08z" stroke-width="2" stroke="#000"/><path d="M282.734 40.554c0-8.376 6.966-15.165 15.56-15.165 4.126 0 8.084 1.597 11.001 4.441 2.918 2.844 4.558 6.702 4.558 10.724 0 8.376-6.966 15.165-15.56 15.165-8.593 0-15.559-6.79-15.559-15.165z" stroke-width="2" stroke="#000"/><path fill="#000" stroke="#000" stroke-width=".95" stroke-miterlimit="10" d="M13.079 15.873h183.333v27.778H13.079z"/><path fill="#000" stroke="#000" stroke-width="1.076" stroke-miterlimit="10" d="M13.142 49.936h236.382v27.652H13.142zM53.238 304.809H289.62v27.652H53.238z"/><path d="M33.097 116.675H-1.35L15.873 86.84z" transform="matrix(.67062 0 0 1 16.828 6.364)" fill="#000" stroke="#000" stroke-width=".95" stroke-miterlimit="10"/><path d="M33.097 116.675H-1.35L15.873 86.84z" transform="matrix(.67465 0 0 -.9932 16.764 333.489)" fill="#000" stroke="#000" stroke-width=".95" stroke-miterlimit="10"/><path d="M33.097 116.675H-1.35L15.873 86.84z" transform="matrix(.67062 0 0 1 306.828 6.364)" fill="#000" stroke="#000" stroke-width=".95" stroke-miterlimit="10"/><path d="M33.097 116.675H-1.35L15.873 86.84z" transform="matrix(.67465 0 0 -.9932 306.764 333.489)" fill="#000" stroke="#000" stroke-width=".95" stroke-miterlimit="10"/><path d="M34.628 318.91L4.504 336.3v-34.784z" transform="matrix(1.00349 0 0 .65048 298.131 110.334)" fill="#000" stroke="#000" stroke-width=".95" stroke-miterlimit="10"/><path d="M34.628 318.91L4.504 336.3v-34.784z" transform="matrix(-1.1019 0 0 .65048 48.341 110.334)" fill="#000" stroke="#000" stroke-width=".95" stroke-miterlimit="10"/><text style="line-height:1.25;-inkscape-font-specification:sans-serif" x="59.481" y="36.165" transform="scale(.94714 1.05581)" font-weight="400" font-size="25.647" font-family="sans-serif" letter-spacing="0" word-spacing="0" fill="#fff" stroke-width=".641"><tspan x="59.481" y="36.165">Gigi (25)</tspan></text><text style="line-height:1.25;-inkscape-font-specification:sans-serif" x="63.561" y="68.153" transform="scale(.94714 1.05581)" font-weight="400" font-size="25.647" font-family="sans-serif" letter-spacing="0" word-spacing="0" fill="#fff" stroke-width=".641"><tspan x="63.561" y="68.153">Eagle/Tiger</tspan></text><text style="line-height:1.25;-inkscape-font-specification:sans-serif" x="101.235" y="309.987" transform="scale(.94714 1.05581)" font-weight="400" font-size="25.647" font-family="sans-serif" letter-spacing="0" word-spacing="0" fill="#fff" stroke-width=".641"><tspan x="101.235" y="309.987">Headphones</tspan></text><text style="line-height:1.25;-inkscape-font-specification:sans-serif;text-align:center" x="182.196" y="153.279" transform="scale(.94714 1.05581)" font-weight="400" font-size="29.333" font-family="sans-serif" letter-spacing="0" word-spacing="0" text-anchor="middle" fill="#000" stroke-width=".641"><tspan x="182.196" y="153.279" style="text-align:center">This module</tspan><tspan x="182.196" y="189.946" style="text-align:center">contains a picture</tspan><tspan x="182.196" y="226.612" style="text-align:center">of a gryphon</tspan></text><path d="M158.077 109.818c0-8.376 6.966-15.165 15.56-15.165 4.126 0 8.084 1.597 11 4.441 2.919 2.844 4.559 6.702 4.559 10.724 0 8.376-6.966 15.165-15.56 15.165-8.593 0-15.56-6.79-15.56-15.165z" stroke="#000" stroke-width="2"/></svg>