<svg xmlns="http://www.w3.org/2000/svg" fill="none" viewBox="0 0 348 348"><path stroke="#000" stroke-width="2" d="M342.37 6.16v336.91H4.7V6.16z"/><ellipse cx="299.37" cy="-307.6" stroke="#000" stroke-width="2" rx="15.9" ry="15.51" transform="rotate(90)"/><path stroke="#000" stroke-miterlimit="10" stroke-width="5" d="M50 50h250v175H50z"/><path fill="#000" d="M92.71 139.05v-3.28l18.97-8v3.49l-15.04 6.17 15.04 6.23v3.5zm24.38 12.52v-28.63h3.79v11.76h14.88v-11.76h3.8v28.63h-3.8v-13.5h-14.88v13.5zm25.62 0 11-28.63h4.08l11.72 28.63h-4.31l-3.34-8.67h-11.98l-3.14 8.67zm8.27-11.76h9.7l-2.98-7.93q-1.37-3.6-2.04-5.93-.54 2.75-1.54 5.47zm22.2 11.76v-28.63h3.8v28.63zm10.32 0v-28.63h3.79v14.2l14.21-14.2h5.14l-12.01 11.6 12.54 17.03h-5l-10.2-14.49-4.68 4.57v9.92zm45.62-28.63h3.79v16.54q0 4.32-.98 6.86-.97 2.54-3.53 4.14-2.54 1.58-6.68 1.58-4.02 0-6.58-1.39-2.56-1.38-3.66-4-1.09-2.64-1.09-7.19v-16.54h3.79v16.52q0 3.73.68 5.51.7 1.76 2.39 2.72 1.7.95 4.14.95 4.18 0 5.95-1.9 1.78-1.89 1.78-7.28zm28.17 16.11-18.97 8.1v-3.49l15.02-6.23-15.02-6.17v-3.5l18.97 8.01z" aria-label="&lt;HAIKU&gt;"/><path stroke="#000" stroke-miterlimit="10" stroke-width="3" d="M90 255h125v50H90zm-15 0v50l-25-25Zm155 50v-50l25 25z"/><path fill="#000" stroke-width=".81" d="m103.15 284.13 2.88-.26q.2 1.74.94 2.86.76 1.1 2.33 1.8 1.58.67 3.55.67 1.75 0 3.09-.52 1.33-.52 1.98-1.42.66-.91.66-1.98 0-1.09-.63-1.9-.63-.81-2.08-1.36-.93-.37-4.1-1.12-3.19-.77-4.47-1.45-1.65-.87-2.47-2.14-.8-1.3-.8-2.89 0-1.74.99-3.26 1-1.52 2.9-2.31t4.24-.79q2.56 0 4.52.84 1.96.82 3.02 2.42t1.13 3.64l-2.93.22q-.23-2.19-1.6-3.3-1.36-1.13-4.02-1.13-2.77 0-4.05 1.03-1.26 1-1.26 2.44 0 1.24.9 2.05.88.8 4.6 1.65 3.73.84 5.12 1.47 2.02.93 2.98 2.36.96 1.42.96 3.27t-1.06 3.49q-1.05 1.62-3.04 2.53-1.97.9-4.44.9-3.13 0-5.26-.91-2.11-.92-3.32-2.75-1.2-1.84-1.26-4.15zm33.15 7.42v-2.46q-1.95 2.83-5.3 2.83-1.49 0-2.78-.56-1.28-.57-1.9-1.42-.62-.87-.87-2.11-.17-.84-.17-2.65v-10.36h2.83v9.28q0 2.22.17 2.99.27 1.12 1.14 1.76.86.63 2.14.63 1.28 0 2.4-.64 1.11-.67 1.57-1.78.47-1.14.47-3.28v-8.96h2.84v16.73zm9.6 0h-2.64v-23.1h2.84v8.24q1.8-2.25 4.58-2.25 1.54 0 2.91.63 1.4.61 2.27 1.75.9 1.12 1.4 2.7.5 1.6.5 3.41 0 4.3-2.12 6.65-2.12 2.34-5.1 2.34-2.96 0-4.65-2.47zm-.04-8.5q0 3.01.82 4.35 1.34 2.2 3.62 2.2 1.86 0 3.22-1.61 1.35-1.63 1.35-4.82 0-3.28-1.3-4.84t-3.14-1.56q-1.86 0-3.21 1.62-1.36 1.61-1.36 4.67zm15.36 8.5v-16.73h2.53v2.34q.8-1.22 2.1-1.96 1.3-.76 2.98-.76 1.85 0 3.04.77 1.2.77 1.68 2.16 1.98-2.93 5.17-2.93 2.49 0 3.82 1.39 1.34 1.37 1.34 4.23v11.49h-2.82V281q0-1.7-.28-2.44-.27-.76-1-1.22-.72-.45-1.7-.45-1.76 0-2.92 1.18-1.17 1.16-1.17 3.75v9.72h-2.83v-10.87q0-1.9-.7-2.84-.69-.94-2.26-.94-1.2 0-2.23.63-1 .63-1.46 1.84-.46 1.21-.46 3.5v8.68zm26.88-19.83v-3.27h2.84v3.27zm0 19.83v-16.73h2.84v16.73zm13.34-2.55.41 2.51q-1.2.26-2.14.26-1.54 0-2.4-.5-.84-.48-1.19-1.27-.35-.8-.35-3.35v-9.63h-2.07v-2.2h2.07v-4.14l2.82-1.7v5.84h2.85v2.2h-2.85v9.78q0 1.22.15 1.56.15.35.48.55.35.2.98.2.47 0 1.24-.1z" aria-label="Submit"/></svg>