<svg xmlns="http://www.w3.org/2000/svg" viewBox="0 0 348 348" fill="none"><path d="M5.079 5.776h336.913v337.67H5.08z" stroke-width="2" stroke="#000"/><path d="M282.734 40.554c0-8.376 6.966-15.165 15.56-15.165 4.126 0 8.084 1.597 11.001 4.441 2.918 2.844 4.558 6.702 4.558 10.724 0 8.376-6.966 15.165-15.56 15.165-8.593 0-15.559-6.79-15.559-15.165z" stroke-width="2" stroke="#000"/><path stroke="#000" stroke-width="1.13" d="M25.013 97.007H324.7v58.897H25.013z"/><path stroke="#000" stroke-width="1.171" d="M24.204 175.882h50.079v50.079H24.204zm50.079 0h50.079v50.079H74.283zm50.079 0h50.079v50.079h-50.079zm50.079 0h50.079v50.079h-50.079zm50.079 0h50.079v50.079H224.52zm50.079 0h50.079v50.079h-50.079zM24.204 225.961h50.079v50.079H24.204zm50.079 0h50.079v50.079H74.283zm50.079 0h50.079v50.079h-50.079zm50.079 0h50.079v50.079h-50.079zm50.079 0h50.079v50.079H224.52zm50.079 0h50.079v50.079h-50.079zM24.204 276.04h50.079v50.079H24.204zm50.079 0h50.079v50.079H74.283zm50.079 0h50.079v50.079h-50.079zm50.079 0h50.079v50.079h-50.079zm50.079 0h50.079v50.079H224.52zm50.079 0h50.079v50.079h-50.079z"/><path stroke="#000" stroke-width="1.014" d="M24.319 18.278h241.187V77.29H24.319z"/><path d="M24.99 19.283v57.508h239.617V19.283H24.99zm.737 78.889v56.771h297.865V98.172H25.727z" fill="#000" stroke="#000" stroke-width=".737"/><path d="M119.836 145.155H109.68v-38.047h10.156v2.793h-6.758v32.461h6.758zm28.027-33.3h-10.39v25.644h-3.868v-25.644h-10.39v-3.438h24.648zm23.106 25.645h-19.16v-29.083h19.16v3.438h-15.293v7.968h15.293v3.438h-15.293v10.8h15.293zm28.34-29.083l-10.04 14.375 10.02 14.707h-4.473l-7.93-11.973-8.124 11.973h-4.219l10.137-14.531-9.903-14.551h4.453l7.833 11.816 8.007-11.816zm25.976 3.438h-10.39v25.644h-3.868v-25.644h-10.39v-3.438h24.648zm13.535 33.3h-10.156v-2.793h6.758v-32.46h-6.758v-2.794h10.156z" aria-label="[TEXT]" font-weight="400" font-size="40" font-family="sans-serif" letter-spacing="0" word-spacing="0" fill="#fff"/></svg>