<svg version="1.0" width="464" height="464" viewBox="0 0 348 348" xmlns="http://www.w3.org/2000/svg"><path d="M4 174.5V344h339V5H4v169.5zm337 0V342H6V7h335v167.5z"/><path d="M86 226.5V257h175v-61H86Zm173 0V255H88v-57h171z"/><path d="M126.3 227.3a742.5 742.5 0 0 0-11.3 26c0 .5 1.4.7 3.2.5 3.1-.3 3.3-.7 14.5-25.3a652.8 652.8 0 0 0 11.3-25.8c0-.4-1.5-.7-3.2-.7l-3.3.1zm92.4-24.6a2270 2270 0 0 0-22.7 50.8c0 1.1 5.8.4 6.7-.8.5-.6 2.1-3.9 3.6-7.2l11.1-24.8 8.5-18.7h-3.4c-1.9 0-3.6.3-3.8.7zM98 245.1h10V237H97.9Zm57-4.1v4h9v-8h-9zm24 4 10 .1V237h-10.1Zm57-4v4h9v-8h-9zm-111 37v15h101v-30H125Zm99 0v13h-97v-26h97z"/><path d="M134 270c0 .5-.7 1-1.5 1s-1.5.4-1.5 1c0 .5.7 1 1.5 1 1.2 0 1.5 1.4 1.5 6.5s-.3 6.5-1.5 6.5c-.8 0-1.5.4-1.5 1 0 .5 1.8 1 4 1s4-.5 4-1c0-.6-.7-1-1.5-1-1.2 0-1.5-1.6-1.5-8.5 0-5-.4-8.5-1-8.5a1 1 0 0 0-1 1zm9 3.5c0 4.3.1 4.5 2.9 4.5 4 0 5.7 2.3 4.2 5.6-1 2.2-1.6 2.5-4.2 1.9-2.4-.6-3-.4-2.7.6.7 2.1 5.7 2.3 7.9.3 3.7-3.3 1.5-10.4-3.2-10.4-1.4 0-1.9-.7-1.9-2.5 0-2.2.4-2.5 3.5-2.5 1.9 0 3.5-.5 3.5-1 0-.6-2.2-1-5-1h-5v4.5zm14.3-3.3c-1.8 2.2-2.4 8.6-1.3 12.8 1.3 5 5 6.4 8.2 3.2 2.4-2.4 3-11.3 1-15-1.4-2.5-6.3-3.1-7.9-1zm6.1 2.4c1.2 3.1.6 11.1-.9 12.4-2.7 2.2-4.5-.5-4.5-7 0-3.1.3-6 .7-6.3 1.2-1.3 4.1-.7 4.7.9zm13.6 5.9c0 5.7.4 9.5 1 9.5s1-1.7 1-3.8c0-2.1.3-4.2.6-4.5.4-.4 2.2 1.4 4.1 3.8 3 4 5.3 5.7 5.3 3.9 0-.4-1.6-2.8-3.5-5.5l-3.6-4.8 3.7-4c2.1-2.4 3.1-4.1 2.3-4.1-.8 0-3.1 1.9-5.1 4.2l-3.7 4.3-.1-4.3c0-2.3-.4-4.2-1-4.2s-1 3.8-1 9.5zm14 0c0 9.8 1.6 13.3 2.2 4.7.3-4.6.3-4.7 4-5l3.7-.3.3 4.8c.5 8.3 2.3 5.3 2.6-4.5.2-7.7 0-9.2-1.3-9.2-1.1 0-1.5 1-1.5 3.5 0 3.4-.1 3.5-4 3.5s-4-.1-4-3.5c0-1.9-.4-3.5-1-3.5s-1 3.8-1 9.5zm15.5-3.5c.3.5 1.7 1 3.1 1 3 0 3 .2-.6 5.5-1.6 2.4-3 4.8-3 5.4 0 1.4 8.7 1.5 9.5.1.4-.6-.8-1-2.9-1-2 0-3.6-.3-3.6-.6s1.3-2.4 2.8-4.7c4.8-7 4.8-6.7-.8-6.7-3.2 0-4.9.4-4.5 1zM25 301v28h50v-56H25v28zm48 0v26H27v-52h46v26zM285 306.5V332h48v-51h-48zm46 0V330h-44v-47h44z"/><path d="m309.9 300.3-12.8 15.4-5.3 6.3h3.9c3.6-.1 4.2-.6 14.3-12.6l12.8-15.5 2.3-2.9h-3.8c-3.6 0-4.2.6-11.4 9.3zM84 316v18h83v-36H84v18zm81 0v16H86v-32h79v16z"/><path d="M90 306.5c0 1.2 1.4 1.5 7 1.5h7v20h6v-19.9l7.2-.3c4.6-.2 7.3-.7 7.6-1.6.3-.9-3.6-1.2-17.2-1.2-15 0-17.6.2-17.6 1.5zm41.1 3.5c3 2.7 5.7 4.9 6.2 5 2.1.1 0 3-5.3 7.4-3.3 2.8-6 5.1-6 5.3 0 .2 1.3.3 2.9.3 2 0 4.4-1.4 8-4.6l5.1-4.6 5 4.6c3.8 3.6 5.6 4.6 8.2 4.6l3.3-.1-6.4-5.7-6.3-5.8 6.3-5.7c6.1-5.4 6.3-5.6 3.6-5.7-2 0-4.5 1.4-8.1 4.5l-5.2 4.4-5.1-4.4c-3.8-3.4-5.9-4.5-8.4-4.5h-3.3l5.5 5zm41.9 6.5V334h104v-35H173v17.5zm102 0V332H175v-31h100v15.5z"/><path d="M206.2 306.7c.2 1.3 3.7 2.7 12.8 5.3l14 4.2c1.4.5-1 1.3-20 6.8-4.5 1.4-7 2.6-7 3.5 0 .8.6 1.5 1.3 1.5.6 0 9.1-2.3 18.7-5l17.7-5c.2 0 .3-.6.3-1.3 0-.9-6.5-3.2-18.3-6.5a445.6 445.6 0 0 0-19.1-5.2c-.4 0-.6.8-.4 1.7z"/><circle cx="49.3" cy="300.3" r="7.8" stroke="#000" stroke-width="3" stroke-linecap="round"/><circle cx="310.5" cy="35.5" r="14.8" fill="none" stroke="#000" stroke-width="1.9" stroke-linecap="round"/><circle cx="292.1" cy="159.2" r="18.9" fill="none" stroke="#000" stroke-width="2.3" stroke-linecap="round"/><circle cx="292.1" cy="159.2" r="24.2" fill="none" stroke="#000" stroke-width="2.1" stroke-linecap="round"/><circle cx="54.8" cy="159.2" r="18.9" fill="none" stroke="#000" stroke-width="2.3" stroke-linecap="round"/><circle cx="54.7" cy="159.2" r="24.2" fill="none" stroke="#000" stroke-width="2.1" stroke-linecap="round"/><circle cx="173.7" cy="104.4" r="52.5" fill="none" stroke="#000" stroke-width="2.3" stroke-linecap="round"/><circle cx="173.5" cy="104.4" r="67.2" fill="none" stroke="#000" stroke-width="2.3" stroke-linecap="round"/></svg>