<svg xmlns="http://www.w3.org/2000/svg" viewBox="0 0 348 348" fill="none"><path d="M5.079 5.776h336.913v337.67H5.08z" stroke-width="2" stroke="#000"/><path d="M282.734 40.554c0-8.376 6.966-15.165 15.56-15.165 4.126 0 8.084 1.597 11.001 4.441 2.918 2.844 4.558 6.702 4.558 10.724 0 8.376-6.966 15.165-15.56 15.165-8.593 0-15.559-6.79-15.559-15.165z" stroke-width="2" stroke="#000"/><path stroke="#000" stroke-width="2.067" stroke-linecap="square" d="M18.451 25.28h199.606v298.661H18.451z"/><path d="M40.46 175.401v-2.766l15.985-6.75v2.948l-12.676 5.202 12.676 5.251v2.947zm38.737 7.969q2.222 1.53 4.099 2.238l-.938 2.223q-2.602-.939-5.186-2.964-2.684 1.498-5.927 1.498-3.276 0-5.943-1.58t-4.116-4.445q-1.432-2.864-1.432-6.453 0-3.573 1.449-6.503t4.116-4.462q2.683-1.53 5.992-1.53 3.342 0 6.025 1.596 2.684 1.58 4.083 4.445 1.416 2.848 1.416 6.437 0 2.98-.905 5.367-.906 2.37-2.733 4.132zm-7.03-4.084q2.766.774 4.56 2.305 2.815-2.568 2.815-7.72 0-2.931-1.004-5.12-.988-2.19-2.914-3.392-1.91-1.218-4.296-1.218-3.573 0-5.927 2.453-2.354 2.436-2.354 7.293 0 4.708 2.321 7.227 2.338 2.519 5.96 2.519 1.712 0 3.226-.642-1.498-.972-3.16-1.383zm30.785-17.466h3.194v13.943q0 3.639-.823 5.779t-2.98 3.49q-2.14 1.333-5.63 1.333-3.391 0-5.548-1.168-2.157-1.17-3.078-3.375-.922-2.223-.922-6.059V161.82h3.193v13.928q0 3.144.577 4.642.592 1.482 2.008 2.289 1.432.806 3.49.806 3.523 0 5.021-1.596 1.498-1.597 1.498-6.141zm7.557 12.38q0-6.01 3.227-9.4 3.226-3.409 8.33-3.409 3.342 0 6.025 1.597 2.683 1.597 4.083 4.462 1.416 2.848 1.416 6.47 0 3.67-1.482 6.568-1.482 2.898-4.198 4.396-2.716 1.481-5.86 1.481-3.409 0-6.092-1.646t-4.066-4.494q-1.383-2.848-1.383-6.026zm3.292.049q0 4.362 2.338 6.881 2.354 2.503 5.894 2.503 3.605 0 5.926-2.536 2.338-2.535 2.338-7.194 0-2.947-1.004-5.136-.988-2.206-2.914-3.408-1.91-1.218-4.297-1.218-3.391 0-5.844 2.337-2.437 2.322-2.437 7.77zm30.029 11.705v-21.287h-7.952v-2.848h19.13v2.848h-7.985v21.287zm14.536 0v-24.135h17.45v2.848H161.56v7.392h13.351v2.832H161.56v8.215h14.816v2.848zm37.684-10.553l-15.986 6.832v-2.947l12.66-5.251-12.66-5.202v-2.947l15.985 6.75z" aria-label="&lt;QUOTE&gt;" font-weight="400" font-size="26.937" font-family="Arial" letter-spacing="0" word-spacing="0" text-anchor="middle" fill="#000" stroke-width=".14"/><path stroke="#000" stroke-width="1.961" stroke-linecap="square" d="M230.684 105.293h98.282v25.546h-98.282zm0 38.62h98.282v25.546h-98.282zm0 38.621h98.282v25.546h-98.282zm0 38.621h98.282v25.546h-98.282zm0 38.62h98.282v25.546h-98.282zm0 38.621h98.282v25.546h-98.282z"/><path d="M234.785 119.035v-1.77l10.229-4.32v1.886l-8.112 3.33 8.112 3.36v1.886zm13 6.752v-15.443h2.043v13.62h7.606v1.823zm10.397 0l5.931-15.443h2.202l6.32 15.443h-2.328l-1.801-4.677h-6.458l-1.696 4.677zm4.456-6.341h5.236l-1.612-4.277q-.737-1.95-1.095-3.203-.295 1.485-.833 2.95zm11.567 6.341v-15.443H280q1.77 0 2.834.474 1.074.463 1.675 1.443.61.97.61 2.033 0 .99-.536 1.865-.538.874-1.623 1.411 1.401.411 2.15 1.402.758.99.758 2.338 0 1.085-.464 2.023-.453.927-1.127 1.433-.674.505-1.696.769-1.011.252-2.486.252zm2.044-8.954h3.34q1.358 0 1.948-.18.78-.23 1.17-.768.4-.537.4-1.349 0-.769-.369-1.348-.369-.59-1.053-.8-.685-.222-2.35-.222h-3.086zm0 7.132h3.845q.99 0 1.39-.074.706-.126 1.18-.421t.78-.853q.305-.57.305-1.307 0-.864-.442-1.496-.442-.642-1.233-.895-.78-.263-2.254-.263h-3.571zm12.494 1.822v-15.443h11.166v1.822h-9.123v4.73h8.544v1.812h-8.544v5.257h9.482v1.822zm14.285 0v-15.443h2.043v13.62h7.606v1.823zm21.838-6.752l-10.23 4.372v-1.886l8.102-3.36-8.101-3.33v-1.885l10.229 4.319zM234.785 157.655v-1.77l10.229-4.319v1.886l-8.112 3.329 8.112 3.36v1.886zm13 6.753v-15.444h2.043v13.622h7.606v1.822zm10.397 0l5.931-15.444h2.202l6.32 15.444h-2.328l-1.801-4.677h-6.458l-1.696 4.677zm4.456-6.342h5.236l-1.612-4.277q-.737-1.949-1.095-3.202-.295 1.485-.833 2.95zm11.567 6.342v-15.444H280q1.77 0 2.834.474 1.074.464 1.675 1.444.61.969.61 2.033 0 .99-.536 1.864-.538.875-1.623 1.412 1.401.41 2.15 1.401.758.99.758 2.339 0 1.085-.464 2.022-.453.927-1.127 1.433-.674.506-1.696.77-1.011.252-2.486.252zm2.044-8.954h3.34q1.358 0 1.948-.18.78-.231 1.17-.768.4-.538.4-1.349 0-.769-.369-1.348-.369-.59-1.053-.8-.685-.222-2.35-.222h-3.086zm0 7.132h3.845q.99 0 1.39-.074.706-.127 1.18-.422t.78-.853q.305-.569.305-1.306 0-.864-.442-1.496-.442-.643-1.233-.895-.78-.264-2.254-.264h-3.571zm12.494 1.822v-15.444h11.166v1.823h-9.123v4.73h8.544v1.812h-8.544v5.257h9.482v1.822zm14.285 0v-15.444h2.043v13.622h7.606v1.822zm21.838-6.753l-10.23 4.372v-1.885l8.102-3.361-8.101-3.329v-1.886l10.229 4.32zM234.785 196.276v-1.77l10.229-4.319v1.886l-8.112 3.329 8.112 3.36v1.886zm13 6.753v-15.444h2.043v13.621h7.606v1.823zm10.397 0l5.931-15.444h2.202l6.32 15.444h-2.328l-1.801-4.678h-6.458l-1.696 4.678zm4.456-6.342h5.236l-1.612-4.277q-.737-1.95-1.095-3.203-.295 1.486-.833 2.95zm11.567 6.342v-15.444H280q1.77 0 2.834.474 1.074.464 1.675 1.443.61.97.61 2.033 0 .99-.536 1.865-.538.874-1.623 1.412 1.401.41 2.15 1.4.758.991.758 2.34 0 1.085-.464 2.022-.453.927-1.127 1.433-.674.505-1.696.769-1.011.253-2.486.253zm2.044-8.955h3.34q1.358 0 1.948-.179.78-.232 1.17-.769.4-.537.4-1.348 0-.77-.369-1.349-.369-.59-1.053-.8-.685-.222-2.35-.222h-3.086zm0 7.132h3.845q.99 0 1.39-.074.706-.126 1.18-.42.474-.296.78-.854.305-.57.305-1.307 0-.863-.442-1.495-.442-.643-1.233-.896-.78-.263-2.254-.263h-3.571zm12.494 1.823v-15.444h11.166v1.822h-9.123v4.73h8.544v1.812h-8.544v5.257h9.482v1.823zm14.285 0v-15.444h2.043v13.621h7.606v1.823zm21.838-6.753l-10.23 4.372v-1.886l8.102-3.36-8.101-3.33v-1.885l10.229 4.32zM234.785 234.897v-1.77l10.229-4.32v1.886l-8.112 3.33 8.112 3.36v1.885zm13 6.753v-15.444h2.043v13.62h7.606v1.823zm10.397 0l5.931-15.444h2.202l6.32 15.443h-2.328l-1.801-4.677h-6.458l-1.696 4.677zm4.456-6.343h5.236l-1.612-4.277q-.737-1.948-1.095-3.202-.295 1.485-.833 2.95zm11.567 6.343v-15.444H280q1.77 0 2.834.474 1.074.463 1.675 1.443.61.97.61 2.033 0 .99-.536 1.865-.538.874-1.623 1.411 1.401.411 2.15 1.401.758.99.758 2.34 0 1.084-.464 2.022-.453.927-1.127 1.432-.674.506-1.696.77-1.011.252-2.486.252zm2.044-8.955h3.34q1.358 0 1.948-.18.78-.23 1.17-.768.4-.537.4-1.349 0-.769-.369-1.348-.369-.59-1.053-.8-.685-.222-2.35-.222h-3.086zm0 7.132h3.845q.99 0 1.39-.074.706-.126 1.18-.421t.78-.854q.305-.568.305-1.306 0-.864-.442-1.496-.442-.642-1.233-.895-.78-.264-2.254-.264h-3.571zm12.494 1.823v-15.444h11.166v1.822h-9.123v4.73h8.544v1.812h-8.544v5.257h9.482v1.822zm14.285 0v-15.444h2.043v13.62h7.606v1.823zm21.838-6.753l-10.23 4.371v-1.885l8.102-3.36-8.101-3.33v-1.885l10.229 4.319zM234.785 273.517v-1.77l10.229-4.319v1.886l-8.112 3.329 8.112 3.36v1.886zm13 6.753v-15.444h2.043v13.621h7.606v1.823zm10.397 0l5.931-15.444h2.202l6.32 15.444h-2.328l-1.801-4.677h-6.458l-1.696 4.677zm4.456-6.342h5.236l-1.612-4.277q-.737-1.949-1.095-3.202-.295 1.485-.833 2.95zm11.567 6.342v-15.444H280q1.77 0 2.834.474 1.074.464 1.675 1.444.61.969.61 2.033 0 .99-.536 1.864-.538.875-1.623 1.412 1.401.41 2.15 1.401.758.99.758 2.339 0 1.085-.464 2.022-.453.927-1.127 1.433-.674.506-1.696.769-1.011.253-2.486.253zm2.044-8.954h3.34q1.358 0 1.948-.18.78-.231 1.17-.769.4-.537.4-1.348 0-.769-.369-1.348-.369-.59-1.053-.801-.685-.221-2.35-.221h-3.086zm0 7.131h3.845q.99 0 1.39-.073.706-.127 1.18-.422t.78-.853q.305-.569.305-1.306 0-.864-.442-1.496-.442-.643-1.233-.896-.78-.263-2.254-.263h-3.571zm12.494 1.823v-15.444h11.166v1.823h-9.123v4.73h8.544v1.812h-8.544v5.256h9.482v1.823zm14.285 0v-15.444h2.043v13.621h7.606v1.823zm21.838-6.753l-10.23 4.372v-1.886l8.102-3.36-8.101-3.329v-1.886l10.229 4.32zM234.785 312.138v-1.77l10.229-4.32v1.887l-8.112 3.329 8.112 3.36v1.886zm13 6.752v-15.443h2.043v13.621h7.606v1.822zm10.397 0l5.931-15.443h2.202l6.32 15.443h-2.328l-1.801-4.677h-6.458l-1.696 4.677zm4.456-6.341h5.236l-1.612-4.277q-.737-1.95-1.095-3.203-.295 1.486-.833 2.95zm11.567 6.341v-15.443H280q1.77 0 2.834.474 1.074.463 1.675 1.443.61.97.61 2.033 0 .99-.536 1.865-.538.874-1.623 1.412 1.401.41 2.15 1.4.758.99.758 2.34 0 1.084-.464 2.022-.453.927-1.127 1.433-.674.505-1.696.769-1.011.253-2.486.253zm2.044-8.954h3.34q1.358 0 1.948-.179.78-.232 1.17-.769.4-.537.4-1.348 0-.77-.369-1.349-.369-.59-1.053-.8-.685-.222-2.35-.222h-3.086zm0 7.132h3.845q.99 0 1.39-.074.706-.126 1.18-.421t.78-.853q.305-.57.305-1.307 0-.863-.442-1.496-.442-.642-1.233-.895-.78-.263-2.254-.263h-3.571zm12.494 1.822v-15.443h11.166v1.822h-9.123V310h8.544v1.812h-8.544v5.257h9.482v1.822zm14.285 0v-15.443h2.043v13.621h7.606v1.822zm21.838-6.752l-10.23 4.372v-1.886l8.102-3.36-8.101-3.33v-1.885l10.229 4.32z" aria-label="&lt;LABEL&gt;" font-weight="400" font-size="21.575" font-family="Arial" letter-spacing="0" word-spacing="0" text-anchor="middle" fill="#000" stroke-width=".112"/></svg>