<svg xmlns="http://www.w3.org/2000/svg" viewBox="0 0 348 348" fill="none"><path d="M5.079 5.776h336.913v337.67H5.08z" stroke-width="2" stroke="#000"/><path d="M282.734 40.554c0-8.376 6.966-15.165 15.56-15.165 4.126 0 8.084 1.597 11.001 4.441 2.918 2.844 4.558 6.702 4.558 10.724 0 8.376-6.966 15.165-15.56 15.165-8.593 0-15.559-6.79-15.559-15.165z" stroke-width="2" stroke="#000"/><flowRoot xml:space="preserve" style="line-height:1.25;-inkscape-font-specification:'Goodbye Despair, Medium';text-align:start;font-variant-ligatures:normal;font-variant-caps:normal;font-variant-numeric:normal;font-feature-settings:normal" fill="#000" fill-opacity="1" stroke="none" font-family="Goodbye Despair" font-style="normal" font-weight="500" font-size="53.333" letter-spacing="0" word-spacing="0" font-stretch="normal" font-variant="normal" text-anchor="start" writing-mode="lr"><flowRegion><path d="M31.28 33.11h218.963v64.646H31.28z"/></flowRegion><flowPara/></flowRoot><text style="line-height:1.25;-inkscape-font-specification:'Goodbye Despair, Medium';font-variant-ligatures:normal;font-variant-caps:normal;font-variant-numeric:normal;font-feature-settings:normal;text-align:start" x="166.822" y="64.48" transform="scale(.86117 1.16122)" font-weight="500" font-size="66.267" font-family="Goodbye Despair" letter-spacing="0" word-spacing="0" fill="#fff" stroke-width="1.243"/><path stroke="#000" stroke-width="5" d="M24.503 137.378h302.378v185.076H24.503z"/><path fill="#000" fill-rule="evenodd" d="M23.632 228.102h304.724v6.256H23.632z"/><path fill="#000" fill-rule="evenodd" d="M171.419 138.61h5.161v182.11h-5.161z"/><path d="M176.718 183.999v-44.053h147.458v88.106H176.718zM27.049 183.999v-44.053h144.14v88.106H27.049zM27.049 277.266v-42.579h144.14V319.844H27.049zM176.718 277.266v-42.579h147.458V319.844H176.718z" opacity=".981" fill="#646464" stroke="#000" stroke-width="1.843" stroke-linecap="round" stroke-linejoin="bevel" stroke-dashoffset="1.002"/><path d="M27.976 184.04v-43.01h142.326v86.021H27.976z" opacity=".981" fill="red" stroke="#000" stroke-width="2.607" stroke-linecap="round" stroke-linejoin="bevel" stroke-dashoffset="1.002"/><g aria-label="Move Name" style="line-height:1.25;-inkscape-font-specification:'Goodbye Despair, Medium';font-variant-ligatures:normal;font-variant-caps:normal;font-variant-numeric:normal;font-feature-settings:normal;text-align:start" font-weight="400" font-size="32" font-family="p5hatty" letter-spacing="0" word-spacing="0" fill="#000"><path d="M52.004 179.784q1.031-.312 1.875-.312.781 0 1 .406.219.375.156 8.781l-.062 8.407-.5.406q-.375.281-.75.312-.625.063-1.657.032l-1.875-.063.063-3.844q.094-3.812-.094-3.812-.219 0-.937 1.469-.625 1.312-1.157 2.718-.5 1.375-.843 1.719-.407.406-1.22.406-.718 0-1.124-.343-.375-.313-.781-1.438-.313-.937-1.094-2.562-.656-1.313-.844-1.344-.312 0-.375 2.594v.687q0 2.063-.062 2.688-.032.468-.407.78-.437.282-.78.313-.626.063-1.626.031l-1.906-.062-.094-7.75q-.125-7.719-.437-8.313-.188-.375-.188-.53 0-.157.188-.345.218-.218 1.687-.625 1.375-.375 2.156-.375.563-.03.782.094.218.125.53.531.438.72.563 1.032.407 1 .563 1.437.344 1.031.406 1.156.375.813 1.844 4.875.656 1.782 1.062 1.782.157-.063.344-.188.188-.219.813-1.781.687-1.688 1.28-3.219.688-1.812.72-1.875 0-.031.718-1.937.25-.75.75-1.25.407-.407 1.313-.688zM59.035 186.503q.688-.344 2.688-.344t2.687.25q.875.375 1.688 1.157.843.812 1.218 1.593.532 1.094.532 2.813 0 1.562-.594 2.844-1.438 3.25-5.656 3.25-1.938 0-3.407-.938-1.468-.937-2.062-2.531-.5-1.344-.469-2.688.031-1.437.531-2.5.438-.968 1.22-1.75.75-.75 1.624-1.156zm3.719 2.219q-.563-.594-.875-.656-.281-.063-.844.406-1.187.906-1.187 3.594 0 1.156.28 2.125.25.812.845 1.375 1.125 1 2.125-.72.78-1.343.687-3.187-.094-1.875-1.031-2.937zM73.285 188.097q.156.469.438 1.094.406.906.406 1.156 0 .375.437 1 .25.344.375.5.157.156.25.125.157-.031 1.032-1.906.843-1.813.843-2.157 0-.5.625-.906.688-.437 1.344-.437 1.156 0 1.25.562.094.531-.875 2.469-.25.531-1.562 3.469-1.657 3.718-2.094 4.343-.469.657-1.5.657-.344 0-.5-.032-.094-.03-.219-.062-.125-.063-.187-.063-.188-.03-.344-.156-.031-.031-.156-.094-.125-.062-.157-.093-.125-.094-.187-.282-.063-.187-.063-.25 0-.25-.687-1.718-3.25-7.188-3.344-7.938-.031-.187.031-.312.063-.125.22-.188.25-.094.562-.125.656-.094 1.906-.156.687-.031 1 .062.187.063.594.563.562.656.562.875zM84.848 186.128q.625-.219 2.53-.156 1.813.031 2.376.281 1.312.531 2.219 1.875.843 1.25 1 3 .062 1.281-.188 1.563-.375.375-2.687.375h-.97q-3.343 0-3.687.312-.28.281.188 1.063 1.344 2.562 3.937.843 1.5-1.03 1.844-1.156.219-.062.75.188.875.5.5 1.343-.344.782-1.937 1.75-.657.375-1.188.47-.5.093-2.281.093-2.469 0-3.063-.188-.687-.156-1.687-1.187-.938-.969-1.188-1.781-.562-1.97-.343-3.688.218-1.75 1.187-3.031 1.156-1.5 2.688-1.969zm3.062 2.406q-.719-.468-1.562-.156-.313.125-.688 1.094-.375.969-.187 1.125.187.187 1.593.187 1.407 0 1.625-.218.22-.22-.062-.97-.281-.78-.719-1.062zM114.473 179.972q2-.531 2.437-.5.531.062.813.719.312.843.312 8 0 5.5-.156 7.375-.125 1.656-.594 2.03-.437.282-2 .282-1.656 0-2.062-.219-.157-.093-.532-.625-.25-.343-.687-1.093-.438-.75-.688-1.157-.093-.156-.218-.312-.094-.188-.125-.281l-.063-.094q-.25-.438-.469-.875-.437-.906-1.656-3.219-.844-1.594-1.094-1.937-.468-.47-.625.187-.125.656-.125 4.188v4.375l-.53.562q-.376.375-.72.406-.562.063-1.718.032l-1.938-.063-.187-7.844q-.094-7.625-.188-8.562l-.062-.75 2.093-.5q.375-.063.594-.156 1.656-.438 2.313.28.625.657 3.125 5.438.187.344.5.938.312.594.437.844.938 1.812 1.438 2.53.562.813.78.72.25-.063.157-4.125-.031-4.063-.437-4.75-.375-.72 0-1.094.312-.344 1.875-.75zM122.285 186.128q.656-.156 3.031-.187 1.625 0 2.188.093.625.094 1.312.407 1.094.562 1.594 1.437.375.656.469 1.344.062.562.125 3.844.094 4.25-.125 4.53-.156.282-2.375.25-2.281-.062-3.25.22-1.156.28-2.531.187-1.532-.094-2.313-.531-1.406-.688-1.719-2.063-.343-1.437.594-2.687.688-.906 1.438-1.281.78-.344 1.093-.563.5-.187 2-.406 1.594-.219 2.188-.531.562-.282.562-.907 0-.343-.156-.593-.156-.25-.531-.344-.375-.094-.938-.094-.937 0-1.28.219-.376.219-.97 1.156-.562.844-.78.969-.25.156-.97.156-.937 0-1.437-.344-.438-.312-.438-1.062 0-1.125.844-1.969.813-.812 2.375-1.25zm4.344 7.344q.062-.469-.031-.594-.125-.187-.438-.219-.281-.03-.844.188-.53.219-.78.219-.907 0-1.313 1-.438 1.062.218 1.718.407.407.72.407.312 0 .968-.47 1.406-.937 1.5-2.25zM133.441 186.597q.72-.125 3.282-.125 2.375.062 2.875.375.468.344.968.344.407 0 1.344-.438 1.125-.469 2.5-.375 1.375.094 2.156.75 1.094.844 1.375 1.875.313 1.031.344 4.219v.25q.063 3.469-.25 4.062-.281.563-2.094.5h-.093l-1.813-.062-.062-4.281q-.032-3.157-.22-4.094-.155-.75-.75-.656-.437.03-.593.843-.094.594-.156 3.782v.218q-.063 3.157-.313 3.657-.28.53-2.03.53h-1.97l-.093-4.374q-.031-2.719-.157-3.656-.093-.813-.28-.938-.376-.219-.813.156-.313.282-.344.907-.063.812-.063 3.312v.219q0 3.312-.312 3.937-.281.563-2.094.5h-.125l-1.781-.062v-4.5q0-4.531-.188-5.375-.125-.5-.062-.75.031-.188.375-.375.437-.25 1.437-.375zM152.785 186.128q.625-.219 2.531-.156 1.813.031 2.375.281 1.313.531 2.22 1.875.843 1.25 1 3 .062 1.281-.188 1.563-.375.375-2.688.375h-.969q-3.343 0-3.687.312-.281.281.187 1.063 1.344 2.562 3.938.843 1.5-1.03 1.844-1.156.218-.062.75.188.875.5.5 1.343-.344.782-1.938 1.75-.656.375-1.187.47-.5.093-2.282.093-2.468 0-3.062-.188-.688-.156-1.688-1.187-.937-.969-1.187-1.781-.563-1.97-.344-3.688.219-1.75 1.188-3.031 1.156-1.5 2.687-1.969zm3.063 2.406q-.72-.468-1.563-.156-.312.125-.687 1.094-.375.969-.188 1.125.188.187 1.594.187 1.406 0 1.625-.218.219-.22-.063-.97-.28-.78-.718-1.062z" style="-inkscape-font-specification:'p5hatty, Normal';font-variant-ligatures:normal;font-variant-caps:normal;font-variant-numeric:normal;font-feature-settings:normal;text-align:start"/></g><g aria-label="Move Name" style="line-height:1.25;-inkscape-font-specification:'Goodbye Despair, Medium';font-variant-ligatures:normal;font-variant-caps:normal;font-variant-numeric:normal;font-feature-settings:normal;text-align:start" font-weight="400" font-size="32" font-family="p5hatty" letter-spacing="0" word-spacing="0" fill="#000"><path d="M203.644 179.331q1.031-.312 1.875-.312.781 0 1 .406.219.375.156 8.781l-.062 8.407-.5.406q-.375.281-.75.312-.625.063-1.657.031l-1.875-.062.063-3.844q.094-3.812-.094-3.812-.219 0-.937 1.468-.625 1.313-1.157 2.72-.5 1.374-.843 1.718-.407.406-1.22.406-.718 0-1.124-.344-.375-.312-.781-1.437-.313-.938-1.094-2.563-.656-1.312-.844-1.343-.312 0-.375 2.593v.688q0 2.062-.062 2.687-.032.47-.407.782-.437.281-.78.312-.626.063-1.626.031l-1.906-.062-.094-7.75q-.125-7.719-.437-8.313-.188-.375-.188-.53 0-.157.188-.345.218-.218 1.687-.625 1.375-.375 2.156-.375.563-.03.782.094.218.125.531.531.437.72.562 1.032.407 1 .563 1.437.344 1.031.406 1.156.375.813 1.844 4.875.656 1.782 1.062 1.782.157-.063.344-.188.188-.219.813-1.781.687-1.688 1.281-3.219.687-1.812.719-1.875 0-.031.718-1.937.25-.75.75-1.25.407-.407 1.313-.688zM210.675 186.05q.688-.344 2.688-.344t2.687.25q.875.375 1.688 1.157.843.812 1.218 1.593.532 1.094.532 2.813 0 1.562-.594 2.844-1.438 3.25-5.656 3.25-1.938 0-3.407-.938-1.468-.937-2.062-2.531-.5-1.344-.469-2.688.031-1.437.531-2.5.438-.968 1.22-1.75.75-.75 1.624-1.156zm3.719 2.219q-.563-.594-.875-.656-.281-.063-.844.406-1.187.906-1.187 3.594 0 1.156.28 2.125.25.812.845 1.375 1.125 1 2.125-.72.78-1.343.687-3.187-.094-1.875-1.031-2.937zM224.925 187.644q.156.469.438 1.094.406.906.406 1.156 0 .375.437 1 .25.344.375.5.157.156.25.125.157-.031 1.032-1.906.843-1.813.843-2.157 0-.5.625-.906.688-.437 1.344-.437 1.156 0 1.25.562.094.531-.875 2.469-.25.531-1.562 3.469-1.657 3.718-2.094 4.343-.469.657-1.5.657-.344 0-.5-.032-.094-.03-.219-.062-.125-.063-.187-.063-.188-.03-.344-.156-.031-.031-.156-.094-.125-.062-.157-.093-.125-.094-.187-.282-.063-.187-.063-.25 0-.25-.687-1.718-3.25-7.188-3.344-7.938-.031-.187.031-.312.063-.125.22-.188.25-.094.562-.125.656-.094 1.906-.156.687-.031 1 .062.187.063.594.563.562.656.562.875zM236.488 185.675q.625-.219 2.53-.156 1.813.031 2.376.281 1.312.531 2.219 1.875.843 1.25 1 3 .062 1.281-.188 1.563-.375.375-2.687.375h-.97q-3.343 0-3.687.312-.28.281.188 1.063 1.344 2.562 3.937.843 1.5-1.031 1.844-1.156.219-.062.75.188.875.5.5 1.343-.344.782-1.937 1.75-.657.375-1.188.469-.5.094-2.281.094-2.469 0-3.063-.188-.687-.156-1.687-1.187-.938-.969-1.188-1.782-.562-1.968-.343-3.687.218-1.75 1.187-3.031 1.156-1.5 2.688-1.969zm3.062 2.406q-.719-.468-1.562-.156-.313.125-.688 1.094-.375.969-.187 1.125.187.187 1.593.187 1.407 0 1.625-.218.22-.22-.062-.97-.281-.78-.719-1.062zM266.113 179.519q2-.531 2.437-.5.531.062.813.719.312.843.312 8 0 5.5-.156 7.375-.125 1.656-.594 2.03-.437.282-2 .282-1.656 0-2.062-.219-.157-.093-.532-.625-.25-.343-.687-1.093-.438-.75-.688-1.157-.093-.156-.218-.312-.094-.188-.125-.281l-.063-.094q-.25-.438-.469-.875-.437-.906-1.656-3.219-.844-1.594-1.094-1.937-.468-.47-.625.187-.125.656-.125 4.188v4.375l-.53.562q-.376.375-.72.406-.562.063-1.718.032l-1.938-.063-.187-7.844q-.094-7.625-.188-8.562l-.062-.75 2.093-.5q.375-.063.594-.156 1.656-.438 2.313.28.625.657 3.125 5.438.187.344.5.938.312.594.437.844.938 1.812 1.438 2.53.562.813.78.72.25-.063.157-4.125-.031-4.063-.437-4.75-.375-.72 0-1.094.312-.344 1.875-.75zM273.925 185.675q.656-.156 3.031-.187 1.625 0 2.188.093.625.094 1.312.406 1.094.563 1.594 1.438.375.656.469 1.344.062.562.125 3.843.094 4.25-.125 4.532-.156.281-2.375.25-2.281-.063-3.25.218-1.156.282-2.531.188-1.532-.094-2.313-.531-1.406-.688-1.719-2.063-.343-1.437.594-2.687.688-.907 1.438-1.282.78-.343 1.093-.562.5-.188 2-.406 1.594-.219 2.188-.532.562-.28.562-.906 0-.344-.156-.594t-.531-.343q-.375-.094-.938-.094-.937 0-1.28.219-.376.219-.97 1.156-.562.844-.78.969-.25.156-.97.156-.937 0-1.437-.344-.438-.312-.438-1.062 0-1.125.844-1.969.813-.812 2.375-1.25zm4.344 7.344q.062-.469-.031-.594-.125-.187-.438-.219-.281-.03-.844.188-.53.219-.78.219-.907 0-1.313 1-.438 1.062.218 1.718.407.407.72.407.312 0 .968-.47 1.406-.937 1.5-2.25zM285.081 186.144q.72-.125 3.282-.125 2.375.062 2.875.375.468.344.968.344.407 0 1.344-.438 1.125-.469 2.5-.375 1.375.094 2.156.75 1.094.844 1.375 1.875.313 1.031.344 4.219v.25q.063 3.469-.25 4.062-.281.563-2.094.5h-.093l-1.813-.062-.062-4.281q-.032-3.157-.22-4.094-.155-.75-.75-.656-.437.03-.593.843-.094.594-.156 3.782v.218q-.063 3.157-.313 3.657-.28.53-2.03.53h-1.97l-.093-4.374q-.031-2.719-.156-3.656-.094-.813-.282-.938-.375-.219-.812.156-.313.282-.344.907-.062.812-.062 3.312v.219q0 3.312-.313 3.937-.281.563-2.094.5h-.125l-1.781-.062v-4.5q0-4.531-.187-5.375-.125-.5-.063-.75.031-.188.375-.375.438-.25 1.438-.375zM304.425 185.675q.625-.219 2.531-.156 1.813.031 2.375.281 1.313.531 2.22 1.875.843 1.25 1 3 .062 1.281-.188 1.563-.375.375-2.688.375h-.969q-3.343 0-3.687.312-.281.281.187 1.063 1.344 2.562 3.938.843 1.5-1.031 1.844-1.156.218-.062.75.188.875.5.5 1.343-.344.782-1.938 1.75-.656.375-1.187.469-.5.094-2.282.094-2.468 0-3.062-.188-.688-.156-1.688-1.187-.937-.969-1.187-1.782-.563-1.968-.344-3.687.219-1.75 1.188-3.031 1.156-1.5 2.687-1.969zm3.063 2.406q-.72-.468-1.563-.156-.312.125-.687 1.094-.375.969-.188 1.125.188.187 1.594.187 1.406 0 1.625-.218.219-.22-.063-.97-.28-.78-.718-1.062z" style="-inkscape-font-specification:'p5hatty, Normal';font-variant-ligatures:normal;font-variant-caps:normal;font-variant-numeric:normal;font-feature-settings:normal;text-align:start"/></g><g aria-label="Move Name" style="line-height:1.25;-inkscape-font-specification:'Goodbye Despair, Medium';font-variant-ligatures:normal;font-variant-caps:normal;font-variant-numeric:normal;font-feature-settings:normal;text-align:start" font-weight="400" font-size="32" font-family="p5hatty" letter-spacing="0" word-spacing="0" fill="#000"><path d="M52.976 274.737q1.031-.313 1.875-.313.781 0 1 .407.219.375.156 8.78l-.062 8.407-.5.406q-.375.282-.75.313-.625.062-1.656.031l-1.875-.063.062-3.843q.094-3.813-.094-3.813-.218 0-.937 1.469-.625 1.312-1.156 2.719-.5 1.375-.844 1.718-.406.407-1.219.407-.719 0-1.125-.344-.375-.313-.781-1.438-.313-.937-1.094-2.562-.656-1.313-.844-1.344-.312 0-.375 2.594v.687q0 2.063-.062 2.688-.031.469-.406.781-.438.281-.782.313-.625.062-1.625.03l-1.906-.062-.094-7.75q-.125-7.718-.437-8.312-.188-.375-.188-.531 0-.157.188-.344.219-.219 1.687-.625 1.375-.375 2.157-.375.562-.031.781.094.219.125.531.53.438.72.563 1.032.406 1 .562 1.438.344 1.03.406 1.156.375.812 1.844 4.875.656 1.781 1.063 1.781.156-.062.343-.187.188-.22.813-1.782.687-1.687 1.281-3.218.688-1.813.719-1.875 0-.032.719-1.938.25-.75.75-1.25.406-.406 1.312-.687zM60.007 281.456q.688-.344 2.688-.344t2.687.25q.875.375 1.688 1.156.844.813 1.219 1.594.531 1.094.531 2.812 0 1.563-.594 2.844-1.437 3.25-5.656 3.25-1.938 0-3.406-.937-1.469-.938-2.063-2.532-.5-1.343-.469-2.687.032-1.438.532-2.5.437-.969 1.218-1.75.75-.75 1.625-1.156zm3.72 2.218q-.563-.593-.876-.656-.281-.062-.844.406-1.187.907-1.187 3.594 0 1.156.281 2.125.25.813.844 1.375 1.125 1 2.125-.719.781-1.343.687-3.187-.093-1.875-1.03-2.938zM74.257 283.05q.157.468.438 1.093.406.906.406 1.156 0 .375.438 1 .25.344.375.5.156.157.25.125.156-.03 1.031-1.906.844-1.812.844-2.156 0-.5.625-.906.687-.438 1.343-.438 1.157 0 1.25.563.094.53-.875 2.468-.25.532-1.562 3.469-1.656 3.719-2.094 4.344-.469.656-1.5.656-.344 0-.5-.031-.094-.031-.219-.063-.125-.062-.187-.062-.188-.031-.344-.156-.031-.032-.156-.094-.125-.063-.156-.094-.125-.094-.188-.281-.062-.188-.062-.25 0-.25-.688-1.719-3.25-7.187-3.344-7.937-.03-.188.032-.313t.218-.187q.25-.094.563-.125.656-.094 1.906-.157.688-.03 1 .063.188.062.594.562.562.657.562.875zM85.82 281.08q.625-.218 2.531-.156 1.813.031 2.375.282 1.313.53 2.219 1.875.844 1.25 1 3 .062 1.28-.188 1.562-.375.375-2.687.375h-.969q-3.344 0-3.687.313-.282.28.187 1.062 1.344 2.563 3.938.844 1.5-1.031 1.843-1.156.22-.063.75.187.875.5.5 1.344-.343.781-1.937 1.75-.656.375-1.188.469-.5.093-2.28.093-2.47 0-3.063-.187-.688-.157-1.688-1.188-.937-.969-1.187-1.781-.563-1.969-.344-3.688.219-1.75 1.187-3.03 1.157-1.5 2.688-1.97zm3.062 2.407q-.718-.469-1.562-.156-.313.125-.688 1.093-.375.969-.187 1.125.187.188 1.594.188 1.406 0 1.625-.219.218-.219-.063-.969-.281-.781-.719-1.062zM115.445 274.924q2-.531 2.437-.5.532.063.813.719.312.844.312 8 0 5.5-.156 7.375-.125 1.656-.594 2.031-.437.282-2 .282-1.656 0-2.062-.22-.156-.093-.531-.624-.25-.344-.688-1.094-.437-.75-.687-1.156-.094-.156-.219-.313-.094-.187-.125-.281l-.063-.094q-.25-.437-.468-.875-.438-.906-1.657-3.218-.843-1.594-1.093-1.938-.469-.469-.625.188-.125.656-.125 4.187v4.375l-.532.563q-.375.375-.718.406-.563.062-1.719.031l-1.938-.062-.187-7.844q-.094-7.625-.188-8.563l-.062-.75 2.094-.5q.375-.062.593-.156 1.657-.437 2.313.281.625.657 3.125 5.438.187.344.5.937.312.594.437.844.938 1.813 1.438 2.531.562.813.781.719.25-.062.156-4.125-.03-4.062-.437-4.75-.375-.719 0-1.094.312-.343 1.875-.75zM123.257 281.08q.657-.156 3.032-.187 1.625 0 2.187.094.625.093 1.313.406 1.093.562 1.593 1.437.375.657.47 1.344.062.563.124 3.844.094 4.25-.125 4.531-.156.281-2.375.25-2.281-.062-3.25.219-1.156.281-2.531.187-1.531-.093-2.313-.53-1.406-.688-1.718-2.063-.344-1.438.593-2.688.688-.906 1.438-1.281.781-.344 1.094-.563.5-.187 2-.406 1.593-.219 2.187-.531.563-.281.563-.906 0-.344-.157-.594-.156-.25-.53-.344-.376-.093-.938-.093-.938 0-1.282.218-.375.219-.968 1.157-.563.843-.782.968-.25.157-.968.157-.938 0-1.438-.344-.437-.313-.437-1.063 0-1.125.843-1.968.813-.813 2.375-1.25zm4.344 7.344q.063-.468-.031-.593-.125-.188-.437-.22-.282-.03-.844.188-.531.219-.781.219-.907 0-1.313 1-.437 1.063.219 1.719.406.406.719.406.312 0 .968-.469 1.407-.937 1.5-2.25zM134.414 281.55q.718-.126 3.281-.126 2.375.063 2.875.375.469.344.969.344.406 0 1.343-.437 1.125-.47 2.5-.375 1.375.093 2.157.75 1.093.843 1.375 1.875.312 1.03.343 4.218v.25q.063 3.469-.25 4.063-.28.562-2.093.5h-.094l-1.812-.063-.063-4.281q-.031-3.156-.219-4.094-.156-.75-.75-.656-.437.031-.593.844-.094.594-.157 3.781v.219q-.062 3.156-.312 3.656-.281.531-2.031.531h-1.969l-.094-4.375q-.031-2.718-.156-3.656-.094-.812-.281-.937-.375-.22-.813.156-.312.281-.344.906-.062.813-.062 3.313v.218q0 3.313-.313 3.938-.28.562-2.093.5h-.125l-1.782-.063v-4.5q0-4.531-.187-5.375-.125-.5-.063-.75.032-.187.375-.375.438-.25 1.438-.375zM153.757 281.08q.625-.218 2.532-.156 1.812.031 2.375.282 1.312.53 2.218 1.875.844 1.25 1 3 .063 1.28-.187 1.562-.375.375-2.688.375h-.968q-3.344 0-3.688.313-.281.28.188 1.062 1.343 2.563 3.937.844 1.5-1.031 1.844-1.156.219-.063.75.187.875.5.5 1.344-.344.781-1.938 1.75-.656.375-1.187.469-.5.093-2.281.093-2.469 0-3.063-.187-.687-.157-1.687-1.188-.938-.969-1.188-1.781-.562-1.969-.344-3.688.22-1.75 1.188-3.03 1.156-1.5 2.687-1.97zm3.063 2.407q-.719-.469-1.563-.156-.312.125-.687 1.093-.375.969-.188 1.125.188.188 1.594.188 1.406 0 1.625-.219.219-.219-.062-.969-.282-.781-.719-1.062z" style="-inkscape-font-specification:'p5hatty, Normal';font-variant-ligatures:normal;font-variant-caps:normal;font-variant-numeric:normal;font-feature-settings:normal;text-align:start"/></g><g aria-label="Move Name" style="line-height:1.25;-inkscape-font-specification:'Goodbye Despair, Medium';font-variant-ligatures:normal;font-variant-caps:normal;font-variant-numeric:normal;font-feature-settings:normal;text-align:start" font-weight="400" font-size="32" font-family="p5hatty" letter-spacing="0" word-spacing="0" fill="#000"><path d="M204.165 276.822q1.031-.312 1.875-.312.781 0 1 .406.219.375.156 8.781l-.062 8.406-.5.407q-.375.28-.75.312-.625.063-1.656.031l-1.875-.062.062-3.844q.094-3.812-.093-3.812-.22 0-.938 1.468-.625 1.313-1.156 2.72-.5 1.374-.844 1.718-.406.406-1.219.406-.718 0-1.125-.344-.375-.312-.781-1.437-.312-.938-1.094-2.563-.656-1.312-.843-1.343-.313 0-.375 2.593v.688q0 2.062-.063 2.687-.031.47-.406.782-.438.28-.781.312-.625.063-1.625.031l-1.907-.062-.093-7.75q-.125-7.719-.438-8.313-.187-.375-.187-.531 0-.156.187-.344.219-.218 1.688-.625 1.375-.375 2.156-.375.562-.03.781.094.219.125.531.531.438.719.563 1.031.406 1 .562 1.438.344 1.031.407 1.156.375.813 1.843 4.875.657 1.781 1.063 1.781.156-.062.344-.187.187-.219.812-1.781.688-1.688 1.281-3.219.688-1.813.72-1.875 0-.031.718-1.938.25-.75.75-1.25.406-.406 1.312-.687zM211.196 283.54q.688-.343 2.688-.343t2.687.25q.875.375 1.688 1.156.844.813 1.219 1.594.531 1.094.531 2.813 0 1.562-.594 2.843-1.437 3.25-5.656 3.25-1.938 0-3.406-.937-1.469-.938-2.063-2.531-.5-1.344-.469-2.688.032-1.437.532-2.5.437-.969 1.218-1.75.75-.75 1.625-1.156zm3.72 2.22q-.563-.594-.876-.657-.281-.062-.844.407-1.187.906-1.187 3.593 0 1.157.281 2.125.25.813.844 1.375 1.125 1 2.125-.718.781-1.344.687-3.188-.093-1.875-1.03-2.937zM225.446 285.135q.157.468.438 1.093.406.907.406 1.157 0 .375.438 1 .25.343.375.5.156.156.25.125.156-.032 1.031-1.907.844-1.812.844-2.156 0-.5.625-.906.687-.438 1.343-.438 1.157 0 1.25.563.094.531-.875 2.469-.25.53-1.562 3.468-1.656 3.72-2.094 4.344-.469.656-1.5.656-.344 0-.5-.03-.093-.032-.219-.063-.125-.063-.187-.063-.188-.031-.344-.156-.031-.031-.156-.094-.125-.062-.156-.093-.125-.094-.188-.282-.062-.187-.062-.25 0-.25-.688-1.718-3.25-7.188-3.344-7.938-.03-.187.032-.312t.218-.188q.25-.094.563-.125.656-.094 1.906-.156.688-.031 1 .062.188.063.594.563.562.656.562.875zM237.009 283.166q.625-.219 2.531-.156 1.813.03 2.375.28 1.313.532 2.219 1.876.844 1.25 1 3 .062 1.281-.188 1.562-.375.375-2.687.375h-.969q-3.344 0-3.687.313-.282.281.187 1.062 1.344 2.563 3.938.844 1.5-1.031 1.843-1.156.22-.063.75.187.875.5.5 1.344-.343.781-1.937 1.75-.656.375-1.188.469-.5.094-2.28.094-2.47 0-3.063-.188-.688-.156-1.688-1.187-.937-.97-1.187-1.782-.563-1.968-.344-3.687.219-1.75 1.187-3.031 1.157-1.5 2.688-1.97zm3.062 2.406q-.718-.469-1.562-.156-.313.125-.688 1.094-.375.968-.187 1.125.187.187 1.594.187 1.406 0 1.625-.219.218-.218-.063-.968-.281-.782-.719-1.063zM266.634 277.01q2-.532 2.437-.5.532.062.813.718.312.844.312 8 0 5.5-.156 7.375-.125 1.657-.594 2.032-.437.28-2 .28-1.656 0-2.062-.218-.156-.094-.531-.625-.25-.344-.688-1.094-.437-.75-.687-1.156-.094-.156-.219-.312-.094-.188-.125-.282l-.063-.093q-.25-.438-.468-.875-.438-.907-1.657-3.22-.843-1.593-1.093-1.937-.469-.468-.625.188-.125.656-.125 4.187v4.375l-.532.563q-.375.375-.718.406-.563.063-1.719.031l-1.938-.062-.187-7.844q-.094-7.625-.188-8.562l-.062-.75 2.094-.5q.375-.063.593-.157 1.657-.437 2.313.282.625.656 3.125 5.437.187.344.5.938.312.593.437.843.938 1.813 1.438 2.532.562.812.781.718.25-.062.156-4.125-.03-4.062-.437-4.75-.375-.718 0-1.093.312-.344 1.875-.75zM274.446 283.166q.657-.156 3.032-.188 1.625 0 2.187.094.625.094 1.313.406 1.093.563 1.593 1.438.375.656.47 1.344.062.562.124 3.843.094 4.25-.125 4.532-.156.28-2.375.25-2.281-.063-3.25.218-1.156.282-2.531.188-1.531-.094-2.313-.531-1.406-.688-1.718-2.063-.344-1.437.593-2.687.688-.907 1.438-1.282.781-.343 1.094-.562.5-.188 2-.406 1.593-.22 2.187-.532.563-.28.563-.906 0-.344-.157-.594-.156-.25-.53-.343-.376-.094-.938-.094-.938 0-1.282.219-.375.218-.968 1.156-.563.844-.782.969-.25.156-.968.156-.938 0-1.438-.344-.437-.312-.437-1.062 0-1.125.843-1.97.813-.812 2.375-1.25zm4.344 7.344q.063-.47-.031-.594-.125-.188-.437-.219-.282-.031-.844.188-.531.218-.781.218-.907 0-1.313 1-.437 1.063.219 1.72.406.405.719.405.312 0 .968-.468 1.407-.938 1.5-2.25zM285.603 283.635q.718-.125 3.281-.125 2.375.062 2.875.375.469.343.969.343.406 0 1.343-.437 1.125-.469 2.5-.375 1.375.094 2.157.75 1.093.844 1.375 1.875.312 1.031.343 4.219v.25q.063 3.468-.25 4.062-.28.563-2.093.5h-.094l-1.812-.062-.063-4.282q-.031-3.156-.219-4.093-.156-.75-.75-.657-.437.032-.593.844-.094.594-.157 3.781v.22q-.062 3.155-.312 3.655-.281.532-2.031.532h-1.969l-.094-4.375q-.031-2.72-.156-3.657-.094-.812-.281-.937-.375-.219-.813.156-.312.281-.344.906-.062.813-.062 3.313v.219q0 3.312-.313 3.937-.28.563-2.093.5h-.125l-1.782-.062v-4.5q0-4.532-.187-5.375-.125-.5-.063-.75.032-.188.375-.375.438-.25 1.438-.375zM304.946 283.166q.625-.219 2.532-.156 1.812.03 2.375.28 1.312.532 2.218 1.876.844 1.25 1 3 .063 1.281-.187 1.562-.375.375-2.688.375h-.968q-3.344 0-3.688.313-.281.281.188 1.062 1.343 2.563 3.937.844 1.5-1.031 1.844-1.156.219-.063.75.187.875.5.5 1.344-.344.781-1.938 1.75-.656.375-1.187.469-.5.094-2.281.094-2.469 0-3.063-.188-.687-.156-1.687-1.187-.938-.97-1.188-1.782-.562-1.968-.344-3.687.22-1.75 1.188-3.031 1.156-1.5 2.687-1.97zm3.063 2.406q-.719-.469-1.563-.156-.312.125-.687 1.094-.375.968-.188 1.125.188.187 1.594.187 1.406 0 1.625-.219.219-.218-.062-.968-.282-.782-.719-1.063z" style="-inkscape-font-specification:'p5hatty, Normal';font-variant-ligatures:normal;font-variant-caps:normal;font-variant-numeric:normal;font-feature-settings:normal;text-align:start"/></g><path fill="#000" fill-rule="evenodd" d="M21.896 25.29h248.159v87.064H21.896z"/><g aria-label="Shadow name" style="line-height:1.25;-inkscape-font-specification:'Goodbye Despair, Medium';font-variant-ligatures:normal;font-variant-caps:normal;font-variant-numeric:normal;font-feature-settings:normal;text-align:start" font-weight="400" font-size="40.528" font-family="Earwig Factory" letter-spacing="0" word-spacing="0" fill="#fff" stroke-width="1.216"><path d="M52.137 59.505l-1.7 27.15-13.367-1.823 1.7-27.15zM48.67 66.01q-.1-2.858-1.2-3.892-1.1-1.084-3-1.084-1.633 0-2.633 1.33-.967 1.33-.967 3.646 0 1.134.367 2.02.366.888 1.033 1.528.467.444 1.033.788l1.134.592q.6.295 1.133.64.533.296.933.789.334.394.467.936.133.493.133 1.084 0 .788-.233 1.429-.233.591-.6 1.035-.367.394-.833.64-.467.197-.967.197-1.367 0-2.3-1.133-.933-1.182-.933-3.104l-1.167.098q.1 2.661 1.167 4.287 1.066 1.577 3.066 1.577.834 0 1.567-.345t1.267-.985q.533-.69.833-1.626.333-.986.333-2.169 0-2.118-1.133-3.35-.467-.493-1-.789-.533-.345-1.133-.64l-1.134-.591q-.533-.345-1-.789-.866-.887-.866-2.267 0-1.28.633-2.118.667-.887 2.033-.887 1.3 0 2.034.788.766.789.8 2.661zM70.787 52.508l-3.3 35.724-14.433-2.907 3.333-36.118zm-5.567 21.68q.034-.245.034-.64.033-.394.033-.739 0-2.464-.967-4.04-.966-1.577-2.933-1.577-.667 0-1.167.296-.466.246-.933.64l.7-7.391-3.067-.64-.266 3.054.766.197-1.766 18.971 2.166.444 1.067-10.94q.667-1.576 1.933-1.576 1.1 0 1.7.69.634.64.634 2.07v.394q0 .147-.034.394l-1.066 10.002 2.1.444zM85.82 86.458l-12.433 2.07-2.967-29.17 13.234-2.267 1.433 20.104q-.9 0-1.167-1.725-.333-2.168-.566-3.991-.2-1.873-.4-3.252-.3-1.823-.667-3.006-.367-1.232-.867-1.922-.466-.739-1.066-1.035-.567-.295-1.267-.295-2.2 0-3.433 1.577-1.2 1.527-1.567 4.78l1.633.344q.5-4.237 3.267-4.237.9 0 1.367.886.5.887.866 3.45-1.466.246-2.733.739-1.267.443-2.2 1.281-.9.788-1.433 1.971-.534 1.183-.534 2.809 0 .837.134 1.724.166.887.566 1.626.4.74 1.1 1.183.7.493 1.834.493 1.966 0 3.2-.887 1.233-.887 1.7-2.07.166 1.035.833 1.528.667.542 1.333.542.067 0 .134-.05h.133zm-3.633-11.037q-.367 1.232-1.233 2.119-.867.887-2.6.887-1.234 0-1.767-.838-.5-.838-.5-2.119 0-.788.167-1.478.2-.69.766-1.232.6-.591 1.667-1.035 1.067-.443 2.867-.837zM107.63 86.705h-20.7V45.807h20.7zm-1.7-3.055v-3.548h-3.232q-.867 0-1.434-.345-.566-.296-.9-.986-.333-.69-.5-1.823-.133-1.182-.133-2.808l-.067-18.43h-3.6v3.598h1.2v3.745q-1.267-1.281-2.6-1.281-1.067 0-1.967.69-.866.69-1.5 1.872-.633 1.133-1 2.66-.333 1.528-.333 3.154 0 4.238 1.2 6.702 1.2 2.463 3.367 2.463.833 0 1.666-.542.867-.542 1.467-1.478.233 2.76 1.4 4.533 1.167 1.824 3.167 1.824zm-8.9-13.403q0 5.42-2.5 5.42-2.3 0-2.3-5.519 0-2.07.634-3.4.634-1.38 1.767-1.38t1.767 1.479q.633 1.429.633 3.4zM129.358 88.38l-18.267-1.626 1.167-34.936 18.267 1.676zm-8.233-5.716q1.566 0 2.733-1.035 1.2-.985 1.967-2.66.8-1.676 1.2-3.745.4-2.12.4-4.336 0-4.189-1.734-6.653-1.7-2.463-4.7-2.463-1.366 0-2.533.739-1.133.739-2 2.168-.833 1.38-1.3 3.4-.467 2.02-.467 4.533 0 1.922.367 3.745.367 1.823 1.133 3.203.8 1.429 2 2.266 1.234.838 2.934.838zm.1-15.866q.733 0 1.233.443.533.444.867 1.183.366.739.533 1.724.167.937.167 1.971 0 2.809-.8 4.189-.767 1.38-2.034 1.38-1.333 0-2.233-1.331-.867-1.38-.867-3.794 0-2.76.9-4.238.9-1.527 2.234-1.527zM149.194 63.89l.234 22.815-17.167.394-.233-22.814zm-.533 7.392l-1.967-.986-2.166 9.51-2.167-8.524-1.967.098-1.966 8.771-2.334-9.017-2.733-.05.033 2.957 1.3-.05 2.834 10.841 1.833-.049 2.067-8.919 2.2 8.82 1.733-.049zM183.387 58.47l1.433 26.116-18.4 2.217-1.5-26.066zm-14.2 5.371l.233 4.09 1.533-.05.534 13.896 2.766-.246-.4-12.171q.1-1.084.767-1.872.7-.789 1.967-.789.766 0 1.266.69.534.64.6 2.07l.567 12.663 2.867-.345-.6-12.318q-.167-3.499-1.4-5.224-1.2-1.724-3.1-1.724-1.034 0-2.2.64-1.134.592-1.834 1.725l-.066-1.38zM201.185 86.458l-12.433 2.07-2.967-29.17 13.233-2.267 1.434 20.104q-.9 0-1.167-1.725-.333-2.168-.567-3.991-.2-1.873-.4-3.252-.3-1.823-.666-3.006-.367-1.232-.867-1.922-.467-.739-1.067-1.035-.566-.295-1.266-.295-2.2 0-3.434 1.577-1.2 1.527-1.566 4.78l1.633.344q.5-4.237 3.267-4.237.9 0 1.366.886.5.887.867 3.45-1.467.246-2.733.739-1.267.443-2.2 1.281-.9.788-1.434 1.971-.533 1.183-.533 2.809 0 .837.133 1.724.167.887.567 1.626.4.74 1.1 1.183.7.493 1.833.493 1.967 0 3.2-.887 1.234-.887 1.7-2.07.167 1.035.834 1.528.666.542 1.333.542.067 0 .133-.05h.134zm-3.633-11.037q-.367 1.232-1.234 2.119-.866.887-2.6.887-1.233 0-1.766-.838-.5-.838-.5-2.119 0-.788.166-1.478.2-.69.767-1.232.6-.591 1.667-1.035 1.066-.443 2.866-.837zM228.695 56.302l-.433 26.017-26.1-.887.4-26.017zm-4.433 12.713q0-3.45-1.167-5.37-1.133-1.923-3.1-1.923-1.166 0-2.033.641-.867.591-1.633 1.872-.467-1.38-1.234-2.07-.733-.689-1.633-.689-1.6 0-2.667 1.823v-1.527l-4.1-.197v4.68l1.234.1-.234 12.022 3.1.197.3-10.2q.134-.985.667-1.576.567-.64 1.333-.64.967 0 1.267.788.333.788.333 2.168l-.2 9.608h3.134l.166-9.707q.034-1.232.534-1.922.5-.739 1.266-.739.767 0 1.134.69.4.69.366 1.823l-.166 11.087 3.133.099zM248.2 45.018l4.4 29.072-16.968 5.568-4.433-29.072zm.4 17.05q-.168-.838-.3-1.676-.1-.887-.268-1.725-.7-3.055-2.133-4.976-1.433-1.971-3.533-1.971-1.467 0-2.667.788-1.167.74-2 2.07-.833 1.33-1.3 3.104-.433 1.774-.433 3.843 0 2.464.5 4.534.533 2.07 1.366 3.597.867 1.527 2 2.414 1.134.838 2.4.838.934 0 1.9-.493 2.167-1.084 3.2-3.252 1.034-2.168 1.267-5.223l-3.967 1.232q-.133.837-.766 1.38-.634.541-1.4.541-.667 0-1.267-.492-.567-.542-.833-1.774zm-8.468-2.317q.067-1.133.6-1.675.567-.591 1.234-.591.433 0 .833.295.4.247.633.838z" style="-inkscape-font-specification:'Earwig Factory, Normal';font-variant-ligatures:normal;font-variant-caps:normal;font-variant-numeric:normal;font-feature-settings:normal;text-align:start"/></g></svg>