<svg xmlns="http://www.w3.org/2000/svg" viewBox="0 0 348 348" fill="none"><path d="M5.079 5.776h336.913v337.67H5.08z" stroke-width="2" stroke="#000"/><path d="M282.734 40.554c0-8.376 6.966-15.165 15.56-15.165 4.126 0 8.084 1.597 11.001 4.441 2.918 2.844 4.558 6.702 4.558 10.724 0 8.376-6.966 15.165-15.56 15.165-8.593 0-15.559-6.79-15.559-15.165z" stroke-width="2" stroke="#000"/><circle cx="174" cy="174" r="100" stroke="#000"/><g aria-label="On" font-size="50" font-family="Comic Sans Ms" text-anchor="middle" fill="#000"><path d="M159.913 193.116q-6.885 0-11.67-4.126-5.078-4.394-5.078-11.328 0-8.447 5.005-15.356 5.59-7.666 13.94-7.666 8.033 0 11.939 3.613 4.077 3.76 4.077 11.865 0 8.447-4.59 15.235-5.273 7.763-13.623 7.763zm2.197-33.471q-5.981 0-10.131 5.957-3.833 5.468-3.833 12.06 0 4.712 3.49 7.666 3.345 2.783 8.277 2.783 5.933 0 9.79-5.981 3.443-5.347 3.443-12.012 0-5.835-2.613-8.203-2.49-2.27-8.423-2.27zM202.394 193.36q-2.1 0-2.369-2.295l-.683-5.346q-.342-2.857-.342-5.347 0-.684.073-2.32.098-1.635.098-2.319 0-5.273-1.953-5.273-2.735 0-5.225 3.247-2.246 2.954-3.515 7.47-.05.953-.22 2.393-.147 1.221-.147 2.368 0 .733.147 2.198.146 1.465.146 2.197 0 1.099-.683 1.782-.66.684-1.71.684-1.073 0-1.733-.684-.659-.683-.659-1.782 0-.732-.17-2.197-.147-1.465-.147-2.198 0-2.514.342-6.958.366-4.467.366-6.982 0-.781-.098-2.32-.073-1.537-.073-2.319 0-1.05.683-1.709.708-.683 1.734-.683 2.246 0 2.466 3.174l.073 2.856q4.101-5.469 8.423-5.469 3.906 0 5.444 3.443 1.05 2.295 1.148 6.787v2.466l-.025 2.27q0 2.026.513 5.25.537 3.197.537 5.2 0 1.074-.708 1.733-.684.683-1.733.683z"/></g></svg>