<svg xmlns="http://www.w3.org/2000/svg" fill="none" stroke-linecap="square" stroke-miterlimit="10" viewBox="0 0 348 348"><clipPath id="a"><path d="M0 0h348v348H0V0z"/></clipPath><g clip-path="url(#a)"><path d="M0 0h348v348H0z"/><path fill="#fff" d="M-6 0h348v347.969H-6z"/><path d="M5.079 5.776h336.913v337.67H5.08z"/><path stroke="#000" stroke-linecap="butt" stroke-linejoin="round" stroke-width="2" d="M5.079 5.776h336.913v337.67H5.08z"/><path fill="#fff" d="M282.734 40.554c0-8.376 6.966-15.165 15.56-15.165 4.126 0 8.084 1.597 11.001 4.441 2.918 2.844 4.558 6.702 4.558 10.724 0 8.376-6.966 15.165-15.56 15.165-8.593 0-15.559-6.79-15.559-15.165z"/><path stroke="#000" stroke-linecap="butt" stroke-linejoin="round" stroke-width="2" d="M282.734 40.554c0-8.376 6.966-15.165 15.56-15.165 4.126 0 8.084 1.597 11.001 4.441 2.918 2.844 4.558 6.702 4.558 10.724 0 8.376-6.966 15.165-15.56 15.165-8.593 0-15.559-6.79-15.559-15.165z"/></g><g stroke="#000"><path fill="#000" d="M19.47 21.724h141.004v89.357H19.47z"/><path fill="#000" stroke-width=".893" d="M19.42 236.851h309.16V308.7H19.42z"/><path d="M25.413 155.555h38.53v36.89h-38.53zM89.664 155.555h38.53v36.89h-38.53zM153.915 155.555h38.53v36.89h-38.53zM218.166 155.555h38.53v36.89h-38.53zM282.417 155.555h38.53v36.89h-38.53z"/></g><path d="M23.774 20.905H187.73V111.9H23.774z"/></svg>