<svg xmlns="http://www.w3.org/2000/svg" fill="none" viewBox="0 0 348 348"><path stroke="#000" stroke-width="2" d="M5.08 5.776h336.91v337.67H5.08Z" style="fill:#b4b4be;fill-opacity:1"/><circle cx="170" cy="178" r="157.525" fill="#bbb" style="fill:#787882;fill-opacity:1"/><path stroke="#000" stroke-width="2" d="M282.734 40.554c0-8.376 6.966-15.165 15.56-15.165 4.126 0 8.084 1.594 11 4.44 2.92 2.842 4.56 6.7 4.56 10.722 0 8.376-6.967 15.165-15.56 15.165-8.594 0-15.56-6.79-15.56-15.166z" style="fill:#fff;fill-opacity:1"/><path stroke="#000" stroke-width="4" d="M100 293h150M100 143h150M150 243h150m0-150v150M150 93h150M150 243V93m0 0-50 50m200-50-50 50m50 100-50 50m-100-50-50 50m-60-30h150m0-150v150M40 113h150M40 263V113m50 100h150m0-150v150M90 63h150M90 213V63m0 0-50 50m200-50-50 50m50 100-50 50M90 213l-50 50M90 63l60 30m90-30 60 30M40 113l60 30m90-30 60 30M90 213l60 30"/><circle cx="90" cy="213" r="10" fill="#ddd" stroke="#000"/><path stroke="#000" stroke-width="4" d="m240 213 60 30M40 263l60 30m90-30 60 30"/><circle cx="90" cy="63" r="10" fill="#ddd" stroke="#000"/><circle cx="240" cy="63" r="10" fill="#ddd" stroke="#000"/><circle cx="240" cy="213" r="10" fill="#ddd" stroke="#000"/><circle cx="150" cy="93" r="10" fill="#ddd" stroke="#000"/><circle cx="300" cy="93" r="10" fill="#ddd" stroke="#000"/><circle cx="150" cy="243" r="10" fill="#ddd" stroke="#000"/><circle cx="300" cy="243" r="10" fill="#ddd" stroke="#000"/><circle cx="40" cy="113" r="10" fill="#ddd" stroke="#000"/><circle cx="190" cy="113" r="10" fill="#ddd" stroke="#000"/><circle cx="40" cy="263" r="10" fill="#ddd" stroke="#000"/><circle cx="190" cy="263" r="10" fill="#ddd" stroke="#000"/><path stroke="#000" stroke-width="4" d="M250 143v150"/><circle cx="250" cy="143" r="10" fill="#ddd" stroke="#000"/><circle cx="250" cy="293" r="10" fill="#ddd" stroke="#000"/><path stroke="#000" stroke-width="4" d="M100 293V143"/><circle cx="100" cy="143" r="10" fill="#ddd" stroke="#000"/><circle cx="100" cy="293" r="10" fill="#ddd" stroke="#000"/><g aria-label="1" style="stroke-width:2;stroke-miterlimit:4;stroke-dasharray:none"><path d="M-24.405 51.535q4.713 0 8.177 4.297 3.463 4.271 3.463 9.922 0 5.703-3.49 10.13-3.489 4.427-8.567 4.427-4.896 0-8.255-4.218-3.36-4.22-3.36-10.026 0-3.933 1.667-7.24 1.693-3.307 4.323-5.286 2.656-2.006 6.042-2.006zm-.052.99q-3.464 0-5.573 3.646-2.083 3.646-2.083 9.922 0 6.093 2.187 9.635 2.188 3.542 5.286 3.542 3.23 0 5.339-2.943 2.11-2.969 2.11-10.911 0-6.537-2.006-9.714-1.979-3.177-5.26-3.177zM2.262 51.535q4.713 0 8.177 4.297 3.463 4.271 3.463 9.922 0 5.703-3.49 10.13-3.489 4.427-8.567 4.427-4.896 0-8.255-4.218-3.36-4.22-3.36-10.026 0-3.933 1.667-7.24 1.693-3.307 4.323-5.286 2.656-2.006 6.042-2.006zm-.053.99q-3.463 0-5.572 3.646-2.084 3.646-2.084 9.922 0 6.093 2.188 9.635 2.187 3.542 5.286 3.542 3.23 0 5.339-2.943 2.109-2.969 2.109-10.911 0-6.537-2.005-9.714-1.98-3.177-5.26-3.177zM31.845 55.572q-.156 9.349-.156 11.9 0 8.62.364 9.897.365 1.25 2.682 1.458 1.042.104 1.042.443 0 .625-.807.625-.209 0-.469-.026-.885-.078-2.917-.078-4.218 0-6.536.104-.495.026-.781.026-.834 0-.834-.469 0-.495.886-.547 2.708-.182 3.307-1.25.599-1.094.599-4.87 0-10.364-.104-13.28-.104-2.918-.912-3.881-.807-.964-2.552-.964-1.12 0-1.406-.13-.286-.156-.286-.495 0-.39.937-.416 1.797-.026 3.854-.573 2.058-.547 3.203-1.354.287-.209.47-.209.416 0 .416.73z" style="fill:#000;fill-opacity:1;stroke:#000;stroke-width:2;stroke-miterlimit:4;stroke-dasharray:none;stroke-opacity:1" transform="rotate(-45 12.24 .514) scale(.90231)"/></g></svg>