<svg xmlns="http://www.w3.org/2000/svg" fill="none" stroke="#000" stroke-width="2" viewBox="0 0 347 347"><path d="M5 5h337v337H5z"/><g stroke-width="3.4" transform="matrix(1.03 0 0 1.03 -2 -6)"><circle cx="133.3" cy="68.5" r="27.2"/><circle cx="62.5" cy="68.5" r="27.2"/><circle cx="133.3" cy="139.3" r="27.2"/><circle cx="62.5" cy="139.3" r="27.2"/><circle cx="274.8" cy="68.5" r="27.2"/><circle cx="204" cy="68.5" r="27.2"/><circle cx="274.8" cy="139.3" r="27.2"/><circle cx="204" cy="139.3" r="27.2"/><circle cx="133.3" cy="210.1" r="27.2"/><circle cx="62.5" cy="210.1" r="27.2"/><circle cx="133.3" cy="280.9" r="27.2"/><circle cx="62.5" cy="280.9" r="27.2"/><circle cx="274.8" cy="210.1" r="27.2"/><circle cx="204" cy="210.1" r="27.2"/><circle cx="274.8" cy="280.9" r="27.2"/><circle cx="204" cy="280.9" r="27.2"/></g><circle cx="141.9" cy="145.3" r="9.4" fill="#000" stroke="none"/><circle cx="141.9" cy="203.2" r="9.4" fill="#000" stroke="none"/><circle cx="202.7" cy="145.1" r="9.4" fill="#000" stroke="none"/><circle cx="202.7" cy="203" r="9.4" fill="#000" stroke="none"/><circle cx="101" cy="105" r="9.4" fill="#000" stroke="none"/><circle cx="101" cy="241.4" r="9.4" fill="#000" stroke="none"/><circle cx="243.4" cy="104.7" r="9.4" fill="#000" stroke="none"/><circle cx="243.4" cy="241.1" r="9.4" fill="#000" stroke="none"/></svg>