<svg xmlns="http://www.w3.org/2000/svg" viewBox="0 0 348 348" fill="none"><path d="M5.079 5.776h336.913v337.67H5.08z" stroke-width="2" stroke="#000"/><path d="M282.734 40.554c0-8.376 6.966-15.165 15.56-15.165 4.126 0 8.084 1.597 11.001 4.441 2.918 2.844 4.558 6.702 4.558 10.724 0 8.376-6.966 15.165-15.56 15.165-8.593 0-15.559-6.79-15.559-15.165z" stroke-width="2" stroke="#000"/><path fill="#000" paint-order="stroke markers fill" d="M14.742 15.663h249.689v96.391H14.742z"/><g style="line-height:1.25;-inkscape-font-specification:Roboto;text-align:center" aria-label="Select all bombs with a" font-weight="400" font-size="17.622" font-family="Roboto" text-anchor="middle" fill="#fff" stroke-width=".22"><path style="-inkscape-font-specification:Roboto" d="M35.48 38.832q-2.125-.61-3.098-1.497-.964-.895-.964-2.203 0-1.48 1.18-2.444 1.187-.972 3.08-.972 1.29 0 2.297.5 1.016.498 1.566 1.376.56.878.56 1.919H38.44q0-1.136-.723-1.781-.723-.654-2.04-.654-1.221 0-1.91.542-.68.533-.68 1.488 0 .766.646 1.3.654.525 2.212.963 1.566.44 2.443.973.887.525 1.308 1.23.43.706.43 1.66 0 1.524-1.187 2.445-1.187.912-3.175.912-1.29 0-2.41-.49-1.118-.5-1.729-1.36-.602-.86-.602-1.954h1.66q0 1.136.835 1.799.843.654 2.246.654 1.308 0 2.005-.534.697-.533.697-1.454 0-.92-.646-1.42-.645-.507-2.34-.998zM45.866 44.589q-1.893 0-3.08-1.24-1.188-1.247-1.188-3.33v-.292q0-1.385.525-2.47.533-1.092 1.48-1.703.955-.62 2.065-.62 1.816 0 2.822 1.196 1.007 1.196 1.007 3.425v.663H43.19q.034 1.376.8 2.228.774.843 1.962.843.843 0 1.428-.344t1.024-.912l.973.757q-1.17 1.799-3.511 1.799zm-.198-8.347q-.964 0-1.618.706-.654.697-.809 1.962h4.664v-.12q-.069-1.214-.654-1.877-.585-.67-1.583-.67zM53.06 44.417h-1.593V31.2h1.592zM59.461 44.589q-1.893 0-3.08-1.24-1.188-1.247-1.188-3.33v-.292q0-1.385.525-2.47.534-1.092 1.48-1.703.955-.62 2.065-.62 1.816 0 2.823 1.196 1.006 1.196 1.006 3.425v.663h-6.307q.035 1.376.8 2.228.775.843 1.962.843.844 0 1.429-.344.585-.344 1.024-.912l.972.757q-1.17 1.799-3.51 1.799zm-.198-8.347q-.963 0-1.617.706-.654.697-.81 1.962h4.665v-.12q-.07-1.214-.654-1.877-.585-.67-1.584-.67zM68.66 43.29q.852 0 1.488-.517.637-.516.706-1.29h1.506q-.043.8-.55 1.522-.509.723-1.36 1.154-.844.43-1.79.43-1.902 0-3.03-1.265-1.118-1.274-1.118-3.476v-.267q0-1.36.5-2.418.498-1.059 1.428-1.644.938-.585 2.211-.585 1.566 0 2.599.938 1.041.938 1.11 2.435h-1.506q-.069-.903-.688-1.48-.611-.585-1.515-.585-1.213 0-1.884.878-.663.869-.663 2.521v.301q0 1.61.663 2.478.662.87 1.893.87zM76.31 32.852v2.254h1.738v1.23h-1.739v5.775q0 .559.233.843.232.275.791.275.276 0 .758-.103v1.29q-.629.173-1.222.173-1.067 0-1.61-.646-.542-.645-.542-1.832v-5.774h-1.695v-1.23h1.695v-2.255zM90.017 44.417q-.138-.276-.224-.981-1.11 1.153-2.65 1.153-1.377 0-2.263-.775-.878-.783-.878-1.979 0-1.454 1.101-2.254 1.11-.81 3.115-.81h1.55v-.73q0-.835-.5-1.326-.499-.499-1.471-.499-.852 0-1.429.43-.576.43-.576 1.042h-1.6q0-.697.49-1.343.499-.654 1.342-1.032.852-.379 1.867-.379 1.61 0 2.522.81.912.8.946 2.21v4.286q0 1.282.327 2.039v.138zm-2.642-1.214q.749 0 1.42-.387.671-.387.972-1.007V39.9H88.52q-2.925 0-2.925 1.713 0 .748.499 1.17.499.421 1.282.421zM95.601 44.417H94.01V31.2h1.592zM99.87 44.417h-1.593V31.2h1.592zM114.66 39.865q0 2.134-.98 3.433-.981 1.29-2.633 1.29-1.764 0-2.728-1.247l-.077 1.076h-1.463V31.2h1.592v4.93q.963-1.196 2.659-1.196 1.695 0 2.658 1.282.973 1.282.973 3.511zm-1.591-.18q0-1.627-.628-2.514-.628-.886-1.807-.886-1.575 0-2.263 1.463v4.027q.731 1.463 2.28 1.463 1.144 0 1.781-.886.637-.887.637-2.668zM116.235 39.675q0-1.368.534-2.46.542-1.093 1.497-1.687.964-.594 2.194-.594 1.902 0 3.072 1.317 1.179 1.316 1.179 3.502v.112q0 1.36-.525 2.443-.516 1.076-1.489 1.678-.963.603-2.22.603-1.893 0-3.071-1.317-1.17-1.316-1.17-3.485zm1.6.19q0 1.549.715 2.487.723.937 1.927.937 1.214 0 1.928-.946.714-.955.714-2.668 0-1.531-.731-2.478-.723-.955-1.928-.955-1.179 0-1.901.938-.723.938-.723 2.685zM128.205 35.106l.043 1.033q1.024-1.205 2.762-1.205 1.953 0 2.659 1.497.464-.67 1.204-1.084.749-.413 1.764-.413 3.063 0 3.115 3.244v6.239h-1.592v-6.144q0-.998-.456-1.489-.456-.499-1.532-.499-.886 0-1.47.534-.586.525-.68 1.42v6.178h-1.601v-6.101q0-2.03-1.988-2.03-1.566 0-2.142 1.333v6.798h-1.592v-9.31zM150.043 39.865q0 2.134-.98 3.433-.982 1.29-2.634 1.29-1.764 0-2.727-1.247l-.078 1.076h-1.463V31.2h1.592v4.93q.964-1.196 2.66-1.196 1.694 0 2.658 1.282.972 1.282.972 3.511zm-1.592-.18q0-1.627-.628-2.514-.628-.886-1.807-.886-1.574 0-2.263 1.463v4.027q.732 1.463 2.28 1.463 1.145 0 1.782-.886.636-.887.636-2.668zM157.46 41.947q0-.645-.49-.998-.482-.361-1.695-.62-1.205-.258-1.919-.62-.705-.36-1.05-.86-.335-.499-.335-1.187 0-1.144.964-1.936.972-.792 2.478-.792 1.583 0 2.564.818.99.817.99 2.09h-1.601q0-.653-.56-1.127-.55-.473-1.393-.473-.87 0-1.36.379-.49.378-.49.99 0 .576.456.868.456.293 1.643.56 1.196.266 1.936.636t1.093.895q.362.517.362 1.265 0 1.248-.999 2.005-.998.749-2.59.749-1.118 0-1.979-.396-.86-.396-1.35-1.101-.483-.715-.483-1.54h1.592q.043.8.637 1.273.602.464 1.583.464.904 0 1.446-.361.55-.37.55-.98zM173.74 42.222l1.79-7.116h1.592l-2.71 9.31h-1.29l-2.264-7.055-2.203 7.056h-1.29l-2.702-9.31h1.583l1.833 6.97 2.168-6.97h1.282zM180.478 44.417h-1.592v-9.31h1.592zm-1.72-11.78q0-.387.232-.654.24-.267.705-.267.465 0 .706.267.24.267.24.654t-.24.645q-.241.258-.706.258-.464 0-.705-.258-.233-.258-.233-.645zM185.176 32.852v2.254h1.739v1.23h-1.739v5.775q0 .559.233.843.232.275.791.275.276 0 .758-.103v1.29q-.628.173-1.222.173-1.067 0-1.61-.646-.541-.645-.541-1.832v-5.774h-1.696v-1.23h1.696v-2.255zM190.357 36.234q1.058-1.3 2.753-1.3 2.951 0 2.977 3.33v6.153h-1.592v-6.161q-.009-1.007-.464-1.489-.448-.482-1.403-.482-.774 0-1.36.413-.584.413-.911 1.084v6.635h-1.592V31.2h1.592zM208.59 44.417q-.138-.276-.224-.981-1.11 1.153-2.65 1.153-1.377 0-2.263-.775-.878-.783-.878-1.979 0-1.454 1.102-2.254 1.11-.81 3.115-.81h1.548v-.73q0-.835-.499-1.326-.499-.499-1.471-.499-.852 0-1.428.43-.577.43-.577 1.042h-1.6q0-.697.49-1.343.5-.654 1.342-1.032.852-.379 1.868-.379 1.609 0 2.52.81.913.8.947 2.21v4.286q0 1.282.327 2.039v.138zm-2.642-1.214q.749 0 1.42-.387.671-.387.972-1.007V39.9h-1.247q-2.926 0-2.926 1.713 0 .748.5 1.17.498.421 1.281.421z"/></g><g style="line-height:1.25;-inkscape-font-specification:'Roboto Heavy';text-align:center" aria-label="simon says" font-weight="900" font-size="28.675" font-family="Roboto" text-anchor="middle" fill="#fff" stroke-width=".358"><path style="-inkscape-font-specification:'Roboto Heavy'" d="M39.916 68.077q0-.602-.63-.966t-2.394-.756q-1.764-.393-2.913-1.023-1.148-.644-1.75-1.554-.602-.91-.602-2.086 0-2.086 1.722-3.43 1.723-1.358 4.509-1.358 2.996 0 4.816 1.358 1.82 1.358 1.82 3.57h-4.732q0-1.82-1.918-1.82-.742 0-1.246.42-.504.406-.504 1.022 0 .63.616 1.022t1.96.644q1.358.252 2.38.602 3.417 1.176 3.417 4.215 0 2.072-1.849 3.374-1.834 1.302-4.76 1.302-1.946 0-3.472-.7-1.527-.7-2.38-1.904-.855-1.204-.855-2.534h4.41q.029 1.05.7 1.54.673.476 1.723.476.966 0 1.442-.392.49-.392.49-1.022zM51.635 72.333h-4.732v-15.15h4.732zm-5.012-19.056q0-1.008.728-1.652.728-.644 1.89-.644t1.89.644q.728.644.728 1.652t-.728 1.652q-.728.644-1.89.644t-1.89-.644q-.728-.644-.728-1.652zM59.014 57.184l.154 1.778q1.61-2.058 4.326-2.058 2.87 0 3.879 2.282 1.54-2.282 4.452-2.282 4.607 0 4.733 5.572v9.857h-4.733V62.77q0-1.162-.392-1.694t-1.428-.532q-1.4 0-2.086 1.246l.014.196v10.347H63.2v-9.535q0-1.19-.378-1.722t-1.442-.532q-1.358 0-2.072 1.246v10.543H54.59v-15.15zM78.658 64.618q0-2.268.882-4.032.882-1.778 2.534-2.73 1.652-.952 3.879-.952 3.402 0 5.362 2.114 1.96 2.1 1.96 5.726v.168q0 3.543-1.974 5.629-1.96 2.072-5.32 2.072-3.235 0-5.195-1.932-1.96-1.946-2.114-5.265zm4.718.294q0 2.1.659 3.08.658.98 1.946.98 2.52 0 2.576-3.878v-.476q0-4.074-2.604-4.074-2.367 0-2.563 3.514zM99.716 57.184l.154 1.778q1.568-2.058 4.327-2.058 2.366 0 3.528 1.414 1.176 1.414 1.218 4.256v9.76h-4.732V62.77q0-1.148-.462-1.68-.463-.546-1.68-.546-1.387 0-2.059 1.092v10.697h-4.718v-15.15zM126.669 68.077q0-.602-.63-.966t-2.394-.756q-1.765-.393-2.913-1.023-1.148-.644-1.75-1.554-.602-.91-.602-2.086 0-2.086 1.722-3.43 1.722-1.358 4.509-1.358 2.996 0 4.816 1.358 1.82 1.358 1.82 3.57h-4.732q0-1.82-1.918-1.82-.742 0-1.246.42-.505.406-.505 1.022 0 .63.617 1.022.616.392 1.96.644 1.358.252 2.38.602 3.416 1.176 3.416 4.215 0 2.072-1.848 3.374-1.834 1.302-4.76 1.302-1.947 0-3.473-.7-1.526-.7-2.38-1.904-.854-1.204-.854-2.534h4.41q.028 1.05.7 1.54.673.476 1.723.476.966 0 1.442-.392.49-.392.49-1.022zM141.944 72.333q-.252-.462-.448-1.358-1.302 1.638-3.64 1.638-2.142 0-3.64-1.288-1.499-1.302-1.499-3.262 0-2.465 1.82-3.725 1.82-1.26 5.293-1.26h1.456v-.798q0-2.086-1.806-2.086-1.68 0-1.68 1.652h-4.719q0-2.198 1.863-3.57 1.876-1.372 4.774-1.372t4.579 1.414q1.68 1.414 1.722 3.878v6.707q.028 2.086.644 3.192v.238zm-2.954-3.08q.882 0 1.456-.378.588-.378.84-.854v-2.423h-1.372q-2.464 0-2.464 2.213 0 .644.434 1.05.434.392 1.106.392zM154.476 65.724l2.52-8.54h5.054l-6.174 17.683-.266.644q-1.316 2.94-4.649 2.94-.924 0-1.946-.28v-3.374h.616q.994 0 1.512-.294.532-.28.784-1.022l.378-1.008-5.264-15.29h5.04zM171.193 68.077q0-.602-.63-.966t-2.394-.756q-1.764-.393-2.912-1.023-1.148-.644-1.75-1.554-.602-.91-.602-2.086 0-2.086 1.722-3.43 1.722-1.358 4.508-1.358 2.996 0 4.817 1.358 1.82 1.358 1.82 3.57h-4.733q0-1.82-1.918-1.82-.742 0-1.246.42-.504.406-.504 1.022 0 .63.616 1.022t1.96.644q1.358.252 2.38.602 3.417 1.176 3.417 4.215 0 2.072-1.848 3.374-1.835 1.302-4.76 1.302-1.947 0-3.473-.7-1.526-.7-2.38-1.904-.855-1.204-.855-2.534h4.41q.029 1.05.701 1.54.672.476 1.722.476.966 0 1.442-.392.49-.392.49-1.022z"/></g><g style="line-height:1.25;-inkscape-font-specification:Roboto;text-align:center" aria-label="Click verify once there are none left" font-weight="400" font-size="11.443" font-family="Roboto" text-anchor="middle" fill="#fff" stroke-width=".143"><path style="-inkscape-font-specification:Roboto" d="M38.588 98.284q-.15 1.291-.955 1.995-.8.698-2.129.698-1.442 0-2.313-1.033-.866-1.034-.866-2.766v-.782q0-1.134.402-1.995.408-.86 1.151-1.319.743-.463 1.721-.463 1.296 0 2.079.726.782.72.91 2H37.51q-.14-.972-.61-1.408-.463-.435-1.301-.435-1.028 0-1.615.76-.58.76-.58 2.162v.788q0 1.324.552 2.106.553.782 1.548.782.894 0 1.369-.402.48-.408.637-1.414zM41.008 100.866h-1.034v-8.583h1.034zM43.779 100.866h-1.034V94.82h1.034zm-1.118-7.65q0-.25.151-.424.157-.173.459-.173.301 0 .458.173.156.173.156.425 0 .251-.156.419-.157.167-.458.167-.302 0-.459-.167-.15-.168-.15-.42zM47.852 100.134q.553 0 .967-.335.413-.336.458-.839h.978q-.028.52-.358.99-.33.469-.883.748-.547.28-1.162.28-1.235 0-1.967-.822-.726-.827-.726-2.257v-.173q0-.883.324-1.57.324-.688.928-1.068.609-.38 1.436-.38 1.016 0 1.687.61.676.608.72 1.58h-.977q-.045-.586-.447-.96-.397-.38-.983-.38-.788 0-1.224.57-.43.564-.43 1.637v.195q0 1.045.43 1.61.43.564 1.23.564zM53.104 98.066l-.648.677v2.123h-1.033v-8.583h1.033v5.191l.553-.665 1.883-1.989h1.257l-2.352 2.526 2.626 3.52h-1.212zM62.06 99.463l1.498-4.643h1.056l-2.168 6.046h-.787l-2.19-6.046h1.055zM68.05 100.977q-1.229 0-2-.804-.77-.81-.77-2.162v-.19q0-.9.34-1.604.347-.71.961-1.106.62-.403 1.341-.403 1.18 0 1.833.777.654.777.654 2.224v.43h-4.096q.022.894.52 1.447.502.548 1.274.548.547 0 .927-.224.38-.223.665-.592l.631.492q-.76 1.167-2.28 1.167zm-.128-5.42q-.626 0-1.05.459-.425.452-.526 1.274h3.029v-.078q-.045-.788-.425-1.218-.38-.436-1.028-.436zM74.52 95.748q-.234-.04-.508-.04-1.017 0-1.38.867v4.29H71.6V94.82h1.005l.017.699q.509-.81 1.442-.81.301 0 .458.078zM76.588 100.866h-1.033V94.82h1.033zm-1.117-7.65q0-.25.15-.424.157-.173.459-.173.301 0 .458.173.156.173.156.425 0 .251-.156.419-.157.167-.458.167-.302 0-.458-.167-.151-.168-.151-.42zM78.745 100.866v-5.247h-.956v-.799h.956v-.62q0-.972.52-1.503.52-.53 1.469-.53.358 0 .71.094l-.056.838q-.263-.05-.559-.05-.503 0-.777.296-.273.29-.273.838v.637h1.29v.8h-1.29v5.246zM84.193 99.352L85.6 94.82h1.106l-2.43 6.979q-.565 1.508-1.794 1.508l-.196-.016-.385-.073v-.838l.28.022q.524 0 .815-.212.296-.212.486-.777l.23-.614-2.158-5.979h1.129zM90.188 97.787q0-.888.346-1.598.352-.71.973-1.095.625-.386 1.424-.386 1.235 0 1.995.855.766.855.766 2.274v.073q0 .883-.341 1.587-.336.698-.967 1.09-.626.39-1.441.39-1.23 0-1.995-.854-.76-.855-.76-2.263zm1.04.123q0 1.006.463 1.615.47.609 1.252.609.787 0 1.251-.615.464-.62.464-1.732 0-.994-.475-1.61-.47-.62-1.252-.62-.765 0-1.234.61-.47.609-.47 1.743zM97.966 94.82l.033.76q.693-.872 1.81-.872 1.917 0 1.934 2.163v3.995h-1.034v-4q-.006-.655-.302-.967-.29-.313-.91-.313-.503 0-.883.268t-.593.704v4.308h-1.033V94.82zM105.738 100.134q.553 0 .966-.335.414-.336.458-.839h.978q-.028.52-.357.99-.33.469-.883.748-.548.28-1.162.28-1.235 0-1.967-.822-.726-.827-.726-2.257v-.173q0-.883.324-1.57.324-.688.927-1.068.61-.38 1.436-.38 1.017 0 1.687.61.677.608.721 1.58h-.978q-.044-.586-.447-.96-.396-.38-.983-.38-.788 0-1.224.57-.43.564-.43 1.637v.195q0 1.045.43 1.61.43.564 1.23.564zM111.811 100.977q-1.23 0-2-.804-.771-.81-.771-2.162v-.19q0-.9.34-1.604.347-.71.962-1.106.62-.403 1.34-.403 1.18 0 1.833.777.654.777.654 2.224v.43h-4.096q.023.894.52 1.447.503.548 1.274.548.548 0 .928-.224.38-.223.664-.592l.632.492q-.76 1.167-2.28 1.167zm-.128-5.42q-.626 0-1.05.459-.425.452-.526 1.274h3.028v-.078q-.044-.788-.424-1.218-.38-.436-1.028-.436zM119.6 93.356v1.464h1.129v.8H119.6v3.748q0 .363.15.548.152.179.515.179.179 0 .492-.067v.838q-.408.112-.794.112-.693 0-1.045-.42-.352-.419-.352-1.19V95.62h-1.1v-.799h1.1v-1.464zM122.964 95.552q.687-.844 1.788-.844 1.916 0 1.933 2.163v3.995h-1.034v-4q-.006-.655-.302-.967-.29-.313-.91-.313-.503 0-.883.268t-.592.704v4.308h-1.034v-8.583h1.034zM130.741 100.977q-1.229 0-2-.804-.771-.81-.771-2.162v-.19q0-.9.34-1.604.347-.71.962-1.106.62-.403 1.34-.403 1.18 0 1.833.777.654.777.654 2.224v.43h-4.095q.022.894.52 1.447.502.548 1.273.548.548 0 .928-.224.38-.223.665-.592l.631.492q-.76 1.167-2.28 1.167zm-.128-5.42q-.626 0-1.05.459-.425.452-.526 1.274h3.029v-.078q-.045-.788-.425-1.218-.38-.436-1.028-.436zM137.212 95.748q-.235-.04-.509-.04-1.017 0-1.38.867v4.29h-1.034V94.82h1.006l.017.699q.508-.81 1.441-.81.302 0 .459.078zM140.553 100.977q-1.23 0-2-.804-.772-.81-.772-2.162v-.19q0-.9.341-1.604.347-.71.961-1.106.62-.403 1.341-.403 1.18 0 1.833.777.654.777.654 2.224v.43h-4.096q.022.894.52 1.447.503.548 1.274.548.547 0 .927-.224.38-.223.665-.592l.631.492q-.76 1.167-2.28 1.167zm-.129-5.42q-.626 0-1.05.459-.425.452-.525 1.274h3.028v-.078q-.045-.788-.425-1.218-.38-.436-1.028-.436zM150.672 100.866q-.09-.18-.146-.637-.72.748-1.72.748-.895 0-1.47-.502-.57-.509-.57-1.285 0-.945.715-1.464.72-.526 2.023-.526h1.006v-.475q0-.542-.325-.86-.324-.324-.955-.324-.553 0-.928.28-.374.279-.374.675h-1.04q0-.452.32-.871.323-.425.871-.67.553-.247 1.212-.247 1.045 0 1.638.526.592.52.614 1.436v2.782q0 .833.213 1.324v.09zm-1.716-.788q.486 0 .922-.252.436-.251.632-.653v-1.24h-.81q-1.9 0-1.9 1.111 0 .486.324.76t.832.274zM156.097 95.748q-.235-.04-.509-.04-1.016 0-1.38.867v4.29h-1.033V94.82h1.005l.017.699q.509-.81 1.442-.81.302 0 .458.078zM159.438 100.977q-1.229 0-2-.804-.771-.81-.771-2.162v-.19q0-.9.34-1.604.347-.71.962-1.106.62-.403 1.34-.403 1.18 0 1.833.777.654.777.654 2.224v.43H157.7q.023.894.52 1.447.503.548 1.274.548.548 0 .928-.224.38-.223.664-.592l.632.492q-.76 1.167-2.28 1.167zm-.128-5.42q-.626 0-1.05.459-.425.452-.526 1.274h3.028v-.078q-.044-.788-.424-1.218-.38-.436-1.028-.436zM166.802 94.82l.034.76q.693-.872 1.81-.872 1.917 0 1.933 2.163v3.995h-1.033v-4q-.006-.655-.302-.967-.29-.313-.91-.313-.504 0-.883.268-.38.268-.593.704v4.308h-1.033V94.82zM171.876 97.787q0-.888.346-1.598.352-.71.972-1.095.626-.386 1.425-.386 1.235 0 1.995.855.765.855.765 2.274v.073q0 .883-.34 1.587-.336.698-.967 1.09-.626.39-1.442.39-1.229 0-1.994-.854-.76-.855-.76-2.263zm1.039.123q0 1.006.464 1.615.47.609 1.251.609.788 0 1.252-.615.464-.62.464-1.732 0-.994-.475-1.61-.47-.62-1.252-.62-.765 0-1.235.61-.469.609-.469 1.743zM179.653 94.82l.034.76q.693-.872 1.81-.872 1.917 0 1.933 2.163v3.995h-1.033v-4q-.006-.655-.302-.967-.29-.313-.91-.313-.504 0-.883.268-.38.268-.593.704v4.308h-1.033V94.82zM187.51 100.977q-1.23 0-2.001-.804-.771-.81-.771-2.162v-.19q0-.9.34-1.604.347-.71.962-1.106.62-.403 1.34-.403 1.18 0 1.833.777.654.777.654 2.224v.43h-4.095q.022.894.52 1.447.502.548 1.273.548.548 0 .928-.224.38-.223.665-.592l.631.492q-.76 1.167-2.28 1.167zm-.13-5.42q-.625 0-1.05.459-.424.452-.525 1.274h3.029v-.078q-.045-.788-.425-1.218-.38-.436-1.028-.436zM195.019 100.866h-1.034v-8.583h1.034zM199.176 100.977q-1.23 0-2-.804-.772-.81-.772-2.162v-.19q0-.9.341-1.604.347-.71.961-1.106.62-.403 1.341-.403 1.18 0 1.833.777.654.777.654 2.224v.43h-4.096q.023.894.52 1.447.503.548 1.274.548.547 0 .927-.224.38-.223.665-.592l.631.492q-.76 1.167-2.28 1.167zm-.129-5.42q-.625 0-1.05.459-.425.452-.525 1.274h3.028v-.078q-.045-.788-.425-1.218-.38-.436-1.028-.436zM203.232 100.866v-5.247h-.955v-.799h.955v-.62q0-.972.52-1.503.52-.53 1.47-.53.357 0 .709.094l-.056.838q-.263-.05-.559-.05-.503 0-.776.296-.274.29-.274.838v.637h1.29v.8h-1.29v5.246zM208.104 93.356v1.464h1.13v.8h-1.13v3.748q0 .363.151.548.151.179.514.179.18 0 .492-.067v.838q-.408.112-.793.112-.693 0-1.045-.42-.352-.419-.352-1.19V95.62h-1.1v-.799h1.1v-1.464z"/></g><path fill="#000" paint-order="stroke markers fill" d="M254.943 299.718h77.893v36.965h-77.893z"/><g style="line-height:1.25;-inkscape-font-specification:'Roboto Bold';text-align:center" aria-label="VERIFY" font-weight="700" font-size="19.945" font-family="Roboto" text-anchor="middle" fill="#fff" stroke-width=".249"><path style="-inkscape-font-specification:'Roboto Bold'" d="M267.768 321.642l3.214-10.664h3.252l-4.937 14.18h-3.049l-4.918-14.18h3.243zM284.11 319.013h-5.61v3.798h6.584v2.347h-9.506v-14.18h9.486v2.367H278.5v3.38h5.61zM292.047 319.967h-2.328v5.191h-2.921v-14.18h5.268q2.513 0 3.876 1.12 1.364 1.12 1.364 3.165 0 1.452-.633 2.425-.623.965-1.9 1.54l3.068 5.794v.136h-3.135zm-2.328-2.366h2.357q1.1 0 1.704-.555.604-.565.604-1.549 0-1.003-.574-1.578-.565-.574-1.744-.574h-2.347zM302.643 325.158h-2.922v-14.18h2.922zM313.872 319.364h-5.61v5.794h-2.922v-14.18h9.233v2.367h-6.31v3.662h5.609zM321.176 317.367l2.95-6.389h3.195l-4.655 9.038v5.142h-2.97v-5.142l-4.656-9.038h3.205z"/></g><path fill="#000" paint-order="stroke markers fill" d="M14.517 114.554h92.537v89.326H14.517zM110.756 114.554h92.537v89.326h-92.537zM206.995 114.554h92.537v89.326h-92.537zM14.517 207.453h92.537v89.326H14.517zM110.756 207.453h92.537v89.326h-92.537zM206.995 207.453h92.537v89.326h-92.537z"/></svg>