<svg xmlns="http://www.w3.org/2000/svg" viewBox="0 0 348 348" fill="none"><path d="M5.079 5.776h336.913v337.67H5.08z" stroke-width="2" stroke="#000"/><path d="M282.734 40.554c0-8.376 6.966-15.165 15.56-15.165 4.126 0 8.084 1.597 11.001 4.441 2.918 2.844 4.558 6.702 4.558 10.724 0 8.376-6.966 15.165-15.56 15.165-8.593 0-15.559-6.79-15.559-15.165z" stroke-width="2" stroke="#000"/><path d="M43.418 33.866h158.041v151.962H43.418z" paint-order="markers fill stroke" stroke-miterlimit="10" stroke-linecap="round" stroke-width="2" stroke="#000" fill="#fff"/><path d="M43.174 33.866h18.479v11.719H43.174z" paint-order="markers fill stroke" fill="#000"/><path fill="gray" text-anchor="middle" font-family="Archivo Black" font-size="170.981" aria-label="?" d="M121.537 48.343c-26.844 0-46.678 13.85-46.678 36.077 0 2.222.342 4.274.513 6.497h31.46c-.17-1.539-.17-3.078-.17-4.617 0-7.18 1.88-14.362 11.114-14.362 7.18 0 11.284 5.642 11.284 11.969 0 13.85-22.227 21.03-22.227 33.512v8.549h29.238v-3.59c0-9.063 29.237-15.902 29.237-39.155 0-21.202-17.61-34.88-43.77-34.88zm17.098 119.686v-31.631h-33.854v31.631z"/><path d="M91.802 33.869h20.243v152.53H91.802zm38.292 27.849h20.243v13.803h-20.243z" paint-order="markers fill stroke" fill="#000"/><path d="M109.85 61.718h20.243v13.803H109.85z" paint-order="markers fill stroke" fill="#000"/><path d="M43.871 62.462h69.254v13.803H43.871z" paint-order="markers fill stroke" fill="#000"/><path d="M61.653 45.585h15.48v19.254h-15.48zm-.923 74.184h15.48v16.482H60.73zm106.874-43.464h18.504v16.482h-18.504z" paint-order="markers fill stroke" fill="#000"/><path d="M183.084 76.305h17.564v16.482h-17.564z" paint-order="markers fill stroke" fill="#000"/><path d="M183.286 88.722h17.564v16.482h-17.564zm57.202 38.981h73.996v41.772h-73.996z" paint-order="markers fill stroke" fill="#000"/><path fill="#000" d="M265.716 113.742h27.609l-12.532-30.155zm29.031 68.018l-27.61.007 12.54 30.151z"/><path d="M57.05 213.936h131.785v43.928H57.05z" paint-order="markers fill stroke" fill="#000"/><path d="M74.225 221.832c-4.296 0-8.144 2.156-8.144 7.905 0 9.63 10.701 6.79 10.701 10.348 0 1.545-1.502 1.653-2.557 1.653-1.792 0-2.925-.467-2.925-3.126h-5.51c0 7.042 3.875 8.803 8.963 8.803 4.56 0 7.986-2.48 7.986-8.624-.131-9.162-10.701-6.252-10.701-9.952 0-.863.79-1.617 2.398-1.617 1.687 0 2.346 1.221 2.346 2.515v.144h5.457v-.432c-.08-5.281-3.638-7.617-8.014-7.617zm29.487 15.198v-14.767h-5.825v14.66c0 2.659-1.08 4.563-3.216 4.563-2.135 0-3.19-1.904-3.19-4.563v-14.66h-5.825v14.768c0 6.827 3.348 10.384 9.041 10.384 5.694 0 9.015-3.557 9.015-10.384zm16-14.767h-12.073v24.72h12.231c2.926 0 5.272-2.622 5.272-6.575 0-3.952-1.582-5.605-3.453-6.18v-.143c1.634-.647 3.031-2.156 3.031-5.75 0-3.557-2.267-6.072-5.008-6.072zm-6.247 5.426h4.006c.738 0 1.345.862 1.345 1.904v.36c0 1.077-.58 1.94-1.345 1.94h-4.006zm0 9.306h4.428c.765 0 1.344.862 1.344 1.94v.36c0 1.113-.58 1.94-1.344 1.94h-4.428zm36.015 9.989v-24.72h-7.934l-2.715 14.264h-.105l-2.741-14.265h-8.225v24.72h5.351v-8.91c0-3.737-.474-7.797-.474-7.797h.105l3.374 16.708h4.56l3.348-16.744h.106s-.422 4.096-.422 7.833v8.91zm9.605 0v-24.72h-5.826v24.72zm20.525-18.397v-6.324h-17.714v6.324h5.958v18.397h5.825v-18.397z" stroke-width=".385" fill="#fff" text-anchor="middle" font-family="Archivo Black" font-size="30.775" aria-label="SUBMIT"/><g style="line-height:1.25;-inkscape-font-specification:'Archivo Black, ';text-align:center" aria-label="Sym" font-size="27.578" font-family="Archivo Black" text-anchor="middle" fill="#fff" stroke-width=".345"><path d="M257.838 135.148c-4.193 0-7.948 1.774-7.948 6.504 0 7.924 10.444 5.588 10.444 8.515 0 1.271-1.467 1.36-2.496 1.36-1.749 0-2.855-.384-2.855-2.572h-5.376c0 5.795 3.781 7.243 8.746 7.243 4.45 0 7.794-2.04 7.794-7.095-.128-7.54-10.444-5.145-10.444-8.19 0-.71.772-1.33 2.341-1.33 1.647 0 2.29 1.005 2.29 2.07v.117h5.324v-.354c-.077-4.346-3.55-6.268-7.82-6.268zM277.971 155.37l4.836-15.137h-5.041l-2.393 10.377h-.18l-2.598-10.377h-5.505l5.402 15.61c-.128.77-.489 2.159-2.29 2.159h-2.057v3.518c.643.266 1.723.532 2.958.532 3.962 0 5.634-2.809 6.868-6.682zM302.392 139.878c-1.827 0-3.602 1.065-4.656 2.69-.67-1.714-2.033-2.69-4.116-2.69-1.878 0-3.704 1.035-4.733 2.69l-.335-2.335h-4.193v15.61h5.12v-9.165c0-1.33.797-2.454 2.032-2.454 1.054 0 1.62.917 1.62 2.218v9.401h5.12v-9.165c0-1.33.797-2.454 2.031-2.454 1.055 0 1.62.917 1.62 2.218v9.401h5.12v-10.11c0-3.696-1.492-5.855-4.63-5.855z"/></g></svg>