<svg xmlns="http://www.w3.org/2000/svg" viewBox="0 0 348 348" fill="none"><path d="M5.079 5.776h336.913v337.67H5.08z" stroke-width="2" stroke="#000"/><path d="M282.734 40.554c0-8.376 6.966-15.165 15.56-15.165 4.126 0 8.084 1.597 11.001 4.441 2.918 2.844 4.558 6.702 4.558 10.724 0 8.376-6.966 15.165-15.56 15.165-8.593 0-15.559-6.79-15.559-15.165z" stroke-width="2" stroke="#000"/><rect width="107.644" height="107.644" x="174.348" y="53.776" ry="0" stroke="#000" stroke-width="3" stroke-linejoin="round"/><rect width="107.644" height="107.644" x="26.704" y="53.776" ry="0" stroke="#000" stroke-width="3" stroke-linejoin="round"/><rect width="107.644" height="107.644" x="174.348" y="201.42" ry="0" stroke="#000" stroke-width="3" stroke-linejoin="round"/><rect width="107.644" height="107.644" x="26.704" y="201.42" ry="0" stroke="#000" stroke-width="3" stroke-linejoin="round"/><rect width="129.821" height="23.588" x="163.26" y="161.42" ry="0" stroke="#000" stroke-width="3" stroke-linejoin="round"/><rect width="129.821" height="23.588" x="15.616" y="161.42" ry="0" stroke="#000" stroke-width="3" stroke-linejoin="round"/><rect width="129.821" height="23.588" x="15.616" y="309.064" ry="0" stroke="#000" stroke-width="3" stroke-linejoin="round"/><rect width="129.821" height="23.588" x="163.26" y="309.064" ry="0" stroke="#000" stroke-width="3" stroke-linejoin="round"/></svg>