<svg xmlns="http://www.w3.org/2000/svg" viewBox="0 0 348 348" fill="none"><path d="M5.079 5.776h336.913v337.67H5.08z" stroke-width="2" stroke="#000"/><path d="M282.734 40.554c0-8.376 6.966-15.165 15.56-15.165 4.126 0 8.084 1.597 11.001 4.441 2.918 2.844 4.558 6.702 4.558 10.724 0 8.376-6.966 15.165-15.56 15.165-8.593 0-15.559-6.79-15.559-15.165z" stroke-width="2" stroke="#000"/><g stroke="#000" stroke-width="2.845" stroke-linejoin="round"><rect ry="0" y="68.296" x="166.05" height="102.069" width="102.069"/><rect ry="0" y="68.296" x="26.052" height="102.069" width="102.069"/><rect ry="0" y="208.294" x="166.05" height="102.069" width="102.069"/><rect ry="0" y="208.294" x="26.052" height="102.069" width="102.069"/><rect ry="0" y="170.365" x="155.536" height="22.366" width="123.098"/><rect ry="0" y="170.365" x="15.538" height="22.366" width="123.098"/><rect ry="0" y="310.363" x="15.538" height="22.366" width="123.098"/><rect ry="0" y="310.363" x="155.536" height="22.366" width="123.098"/></g><path opacity=".98" fill="#fff" stroke="#000" stroke-width="3" stroke-linejoin="round" d="M44.718 22.58h204.736v35.949H44.718z"/></svg>