<svg xmlns="http://www.w3.org/2000/svg" xml:space="preserve" fill="none" viewBox="0 0 348 348"><path stroke="#000" stroke-width="2" d="M5 5.8h337v337.6H5z"/><path stroke="#000" stroke-width="2" d="M282.7 40.6c0-8.4 7-15.2 15.6-15.2 4.1 0 8 1.6 11 4.4a15 15 0 0 1 4.6 10.8c0 8.3-7 15.1-15.6 15.1s-15.6-6.8-15.6-15.1z"/><path stroke="#000" stroke-miterlimit="2" stroke-width="3.8" d="M88.3 35.2h170.5V137H88.3ZM36.1 156H315v41.4H36Z"/><path stroke="#000" stroke-miterlimit="2" stroke-width="1.9" d="M62.8 212.6h85.6v33.7H62.8Zm139.6 0H288v33.7h-85.6z"/><path fill="#000" d="M91.3 237.4h-2.6L81 223.1v14.3h-2v-16h3.3l6.9 13.1v-13h2zm13.5 0H94.2v-16h10.6v2h-8.4v4.3h8.4v1.9h-8.4v6h8.4zm14.3-16-5.6 8 5.6 8h-2.5l-4.4-6.6-4.4 6.6h-2.4l5.6-8-5.4-8h2.4l4.3 6.5 4.4-6.5zm13 2h-5.8v14h-2.1v-14h-5.7v-2H132z" aria-label="NEXT"/><path fill="#000" d="M223.1 232.2q0 .7-.3 1.5-.4.7-1 1.2-.7.6-1.6.9-1 .3-2.2.3-1.4 0-2.5-.3-1.1-.2-2.3-.7v-2.2h.1q1 .8 2.3 1.3 1.3.4 2.4.4 1.6 0 2.5-.6.9-.6.9-1.6 0-.8-.5-1.2-.4-.5-1.2-.7l-1.5-.3-1.6-.2q-1.7-.4-2.5-1.3t-.8-2.3q0-1.6 1.3-2.6 1.4-1 3.5-1 1.4 0 2.5.2l2 .6v2h-.1q-.7-.6-2-1-1.1-.4-2.4-.4-1.4 0-2.2.6-.8.6-.8 1.5 0 .8.4 1.2.4.5 1.4.7l1.6.3 1.7.4q1.5.4 2.2 1.1.7.8.7 2.2zm11.4-1.5q0 1.4-.3 2.4t-1 1.8q-.7.6-1.5 1-1 .2-2.1.2-1.2 0-2.1-.3-1-.3-1.6-1-.7-.7-1-1.7-.3-1-.3-2.4V223h1.7v7.8q0 1 .2 1.6.1.6.5 1.1.4.6 1 .9.7.2 1.6.2.9 0 1.5-.2.7-.3 1-.9.4-.5.6-1.1l.1-1.6V223h1.7zm12 1.2q0 1-.4 1.7t-1 1.2q-.7.6-1.6.8-.9.3-2.2.3h-4.6v-13h3.8q1.5 0 2.2.2.7 0 1.3.4.7.4 1 1 .3.5.3 1.4 0 .9-.4 1.5-.5.7-1.3 1v.1q1.3.3 2 1.2.8.8.8 2.2zm-3-5.8v-.8q-.2-.3-.6-.5-.4-.3-1-.3h-3.4v3.7h2.2l1.2-.1 1-.4q.3-.2.5-.6l.2-1zm1.2 5.9q0-.8-.3-1.3-.2-.4-.8-.8-.4-.2-1-.2l-1.5-.1h-2.7v4.8h2.3l1.9-.1q.7-.1 1.1-.5.5-.3.7-.7.3-.5.3-1.1zm14.6 3.9h-1.7v-11.1l-3.6 7.5h-1l-3.6-7.5v11h-1.6V223h2.4l3.4 7.1 3.3-7.1h2.4zm7 0H261v-1.4h1.7v-10.2H261V223h5.1v1.3h-1.7v10.2h1.7zm11-11.4h-4.6v11.4H271v-11.4h-4.6V223h10.9z" aria-label="SUBMIT"/><path stroke="#000" stroke-dasharray="6.4252,6.4252" stroke-dashoffset="2.6" stroke-linecap="round" stroke-miterlimit="2" stroke-width="6.4" d="M161.9 229.4v0"/><path stroke="#000" stroke-dashoffset="2.6" stroke-linecap="round" stroke-miterlimit="2" stroke-width="6.4" d="M174.8 229.4v0m13 0v0"/><path stroke="#000" stroke-dashoffset="2.6" stroke-linecap="round" stroke-miterlimit="2" stroke-width="3.8" d="M63.8 266h47.7v47H63.8Z"/><path stroke="#000" stroke-dashoffset="2.6" stroke-linecap="round" stroke-miterlimit="2" stroke-width="20.4" d="M87.6 289.5v0"/><path stroke="#000" stroke-dashoffset="2.6" stroke-linecap="round" stroke-miterlimit="2" stroke-width="3.8" d="M150.5 266h47.8v47h-47.8z"/><path stroke="#000" stroke-dashoffset="2.6" stroke-miterlimit="2" stroke-width="5.7" d="M159.5 289.5h31"/><path stroke="#000" stroke-dashoffset="2.6" stroke-linecap="round" stroke-miterlimit="2" stroke-width="3.8" d="M237.3 266H285v47h-47.7z"/></svg>