<svg xmlns="http://www.w3.org/2000/svg" fill="none" viewBox="0 0 348 348"><path stroke="#000" stroke-width="2" d="M5.079 5.776h336.913v337.67H5.08z"/><path stroke="#000" stroke-width="2" d="M282.734 40.554c0-8.376 6.966-15.165 15.56-15.165 4.126 0 8.084 1.597 11.001 4.441 2.918 2.844 4.558 6.702 4.558 10.724 0 8.376-6.966 15.165-15.56 15.165-8.593 0-15.559-6.79-15.559-15.165z"/><path stroke="#000" stroke-linecap="square" stroke-width="1.999" d="M243.764 157.016 199.38 182.64v-51.249z" transform="matrix(0 1.1601 -.995 0 369.761 -123.02)"/><rect width="65.48" height="65.48" x="41.26" y="18.779" stroke="#000" stroke-linecap="square" stroke-width="1.999" rx="15" ry="15"/><rect width="65.48" height="65.48" x="141.26" y="18.779" stroke="#000" stroke-linecap="square" stroke-width="1.999" rx="15" ry="15"/><path stroke="#000" stroke-linecap="square" stroke-width="1.999" d="M243.764 157.016 199.38 182.64v-51.249z" transform="matrix(1.1601 0 0 .995 -43.63 57.774)"/><path stroke="#000" stroke-linecap="square" stroke-width="1.999" d="M243.764 157.016 199.38 182.64v-51.249z" transform="matrix(0 -1.1601 .995 0 -22.226 391.63)"/><path stroke="#000" stroke-linecap="square" stroke-width="1.999" d="M243.764 157.016 199.38 182.64v-51.249z" transform="matrix(-1.1601 0 0 -.995 391.166 370.837)"/><rect width="172.94" height="64.261" x="87.53" y="264.486" stroke="#000" stroke-linecap="square" stroke-width="2" rx="39.617" ry="14.721"/></svg>