<svg xmlns="http://www.w3.org/2000/svg" fill="none" viewBox="0 0 348 348"><path stroke="#000" stroke-width="2" d="M5.079 5.776h336.913v337.67H5.08z"/><path stroke="#000" stroke-width="2" d="M282.734 40.554c0-8.376 6.966-15.165 15.56-15.165 4.126 0 8.084 1.597 11.001 4.441 2.918 2.844 4.558 6.702 4.558 10.724 0 8.376-6.966 15.165-15.56 15.165-8.593 0-15.559-6.79-15.559-15.165z"/><path opacity=".974" stroke-width="2" stroke="#000" d="M50 30h194.81v130H50zM30 180h50v50H30zm60 0h50v50H90zm60 0h50v50h-50zm60 0h50v50h-50zM30 240h50v50H30zm180 0h50v50h-50zm-60 0h50v50h-50zm-60 0h50v50H90z"/><circle r="12.902" cy="151.12" cx="299.645" opacity=".974" stroke="#000" stroke-width="2"/><circle cx="299.64" cy="209.67" r="12.902" opacity=".974" stroke="#000" stroke-width="2"/><circle cx="298.33" cy="269.815" r="12.902" opacity=".974" stroke="#000" stroke-width="2"/><path d="M60 320h210v0" stroke="#000" stroke-width="2"/></svg>