<svg xmlns="http://www.w3.org/2000/svg" fill="none" viewBox="0 0 348 348"><path stroke="#000" stroke-width="2" d="M5.08 5.78h336.91v337.67H5.08z"/><path stroke="#000" stroke-width="2.76" d="M283.12 46.72c0-11.57 9.62-20.95 21.49-20.95 5.7 0 11.16 2.2 15.2 6.13a20.66 20.66 0 016.3 14.81c0 11.56-9.63 20.94-21.5 20.94-11.88 0-21.5-9.38-21.5-20.95z"/><path fill="#505050" stroke="#000" stroke-width="2.76" d="M140 20h70v70h-70z"/><path fill="#dcdcdc" stroke="#000" stroke-width="2.76" d="M80 150l-40 30 40 30zm190 0v60l40-30zM100 220v-80l20-40h110l20 40v80l-20 40H120z"/><circle cx="173.62" cy="-300.91" r="33.68" fill="#969696" stroke="#000" stroke-linejoin="round" stroke-width="2.65" transform="scale(1 -1)"/><path fill="#dcdcdc" stroke="#000" stroke-width="1.83" d="M50.92 70a14.08 14.08 0 1128.17.03 14.08 14.08 0 01-28.17-.04z"/><circle cx="173.62" cy="-300.92" r="24.05" fill="#dcdcdc" stroke="#000" stroke-linejoin="round" stroke-width="1.89" transform="scale(1 -1)"/><path fill="#f0f0f0" stroke="#000" stroke-width="2.76" d="M110 140l15-30h100l15 30v80l-15 30H125l-15-30z"/><path fill="#dcdcdc" stroke="#000" stroke-width="2.42" d="M186.26 109.9l-26.32 35.05v70.1l26.32 35.05h8.78l-26.33-35.05v-70.1l26.33-35.05z"/><path fill="#fff" d="M149.47 35.37l-1.24 1.24 3.72 3.72h13.68l3.72-3.72-1.24-1.24h-18.64zm32.64 0l-1.24 1.24 3.72 3.72h13.68L202 36.6l-1.24-1.24h-18.64zm-34.44 1.8l-1.24 1.24v16.56h2.32l.16-.2 2.48-2.44V40.89l-3.72-3.72zm22.24 0l-3.72 3.72v11.48l2.48 2.44.16.16h2.32V38.4l-1.24-1.24zm10.4 0l-1.24 1.24v16.56h2.32l.16-.2 2.48-2.44V40.89l-3.72-3.72zm22.24 0l-3.72 3.72v11.48l2.48 2.44.16.16h2.32V38.4l-1.24-1.24zm-38.4 3.96l-2.08 3.6v7.36h1.48l1.84-3.2v-7.76h-1.24zm32.64 0l-2.08 3.6v7.36h1.48l1.84-3.2v-7.76h-1.24zm-50.36 14.64v16.56l1.24 1.24 3.72-3.72V58.4l-2.48-2.44-.16-.2h-2.32zm32.64 0v16.56l1.24 1.24 3.72-3.72V58.4l-2.48-2.44-.16-.2h-2.32zm-10.24.04l-.16.16-2.48 2.44v11.44l3.72 3.72 1.24-1.24V55.8h-2.32zm32.64 0l-.16.16-2.48 2.44v11.44l3.72 3.72 1.24-1.24V55.8h-2.32zm-47.44 2.84l-1.84 3.2v7.76h1.24l2.08-3.6v-7.36h-1.48zm32.64 0l-1.84 3.2v7.76h1.24l2.08-3.6v-7.36h-1.48zM151.95 70.4l-3.72 3.72 1.24 1.24h18.64l1.24-1.24-3.72-3.72h-13.68zm32.64 0l-3.72 3.72 1.24 1.24h18.64l1.24-1.24-3.72-3.72H184.6z"/></svg>