<svg xmlns="http://www.w3.org/2000/svg" viewBox="0 0 348 348" fill="none"><path d="M5.079 5.776h336.913v337.67H5.08z" stroke-width="2" stroke="#000"/><path d="M282.734 40.554c0-8.376 6.966-15.165 15.56-15.165 4.126 0 8.084 1.597 11.001 4.441 2.918 2.844 4.558 6.702 4.558 10.724 0 8.376-6.966 15.165-15.56 15.165-8.593 0-15.559-6.79-15.559-15.165z" stroke-width="2" stroke="#000"/><rect width="197.154" height="34.496" x="128.385" y="290.094" rx="14.811" ry="0" fill="#000" stroke="#000" stroke-width="7.474" paint-order="markers fill stroke"/><rect ry="0" rx="14.811" y="244.141" x="128.218" height="34.496" width="197.154" fill="#000" stroke="#000" stroke-width="7.474" paint-order="markers fill stroke"/><rect width="32.323" height="32.323" x="35.159" y="49.235" rx="15.118" ry="0" fill="#fff" fill-rule="evenodd" stroke="#000" stroke-miterlimit="10"/><rect ry="0" rx="15.118" y="49.235" x="79.159" height="32.323" width="32.323" fill="#fff" fill-rule="evenodd" stroke="#000" stroke-miterlimit="10"/><rect width="32.323" height="32.323" x="119.159" y="89.235" rx="15.118" ry="0" fill="#fff" fill-rule="evenodd" stroke="#000" stroke-miterlimit="10"/><rect ry="0" rx="15.118" y="161.235" x="119.159" height="32.323" width="32.323" fill="#fff" fill-rule="evenodd" stroke="#000" stroke-miterlimit="10"/><rect ry="0" rx="15.118" y="89.235" x="225.159" height="32.323" width="32.323" fill="#fff" fill-rule="evenodd" stroke="#000" stroke-miterlimit="10"/><rect ry="0" rx="33.669" y="291.475" x="27.399" height="31.842" width="71.985" fill="#fff" fill-rule="evenodd" stroke="#000" stroke-width="1.481" stroke-miterlimit="10"/><rect width="71.985" height="31.842" x="27.399" y="247.475" rx="33.669" ry="0" fill="#fff" fill-rule="evenodd" stroke="#000" stroke-width="1.481" stroke-miterlimit="10"/></svg>