<svg xmlns="http://www.w3.org/2000/svg" viewBox="0 0 348 348" fill="none"><defs><path id="a" d="M116.5 138H235v77H116.5z"/></defs><path d="M5.079 5.776h336.913v337.67H5.08z" stroke-width="2" stroke="#000"/><path d="M282.734 40.554c0-8.376 6.966-15.165 15.56-15.165 4.126 0 8.084 1.597 11.001 4.441 2.918 2.844 4.558 6.702 4.558 10.724 0 8.376-6.966 15.165-15.56 15.165-8.593 0-15.559-6.79-15.559-15.165z" stroke-width="2" stroke="#000"/><path d="M6.237 174.645V6.883H340.902v335.525H6.237Zm299.481-119.49c7.082-3.487 10.68-11.11 8.767-18.578-2.701-10.542-14.526-15.477-24.48-10.217-2.948 1.558-5.416 4.21-7.046 7.57-1.02 2.103-1.175 2.952-1.188 6.505-.014 3.593.13 4.398 1.188 6.668 1.379 2.953 4.455 6.323 6.97 7.633 3.166 1.65 5.016 2.04 9.076 1.916 3.398-.104 4.286-.302 6.713-1.497z" fill="#666"/><ellipse cx="171.849" cy="181.528" rx="81.085" ry="98.507" fill="#666"/><ellipse cx="45.167" cy="51.404" rx="9.033" ry="7.958" fill="#666"/><ellipse cx="166.902" cy="160.665" rx="135.501" ry="130.984" fill="#666"/><ellipse cx="84.527" cy="159.805" rx="6.667" ry="6.237" fill="#666"/><ellipse cx="164.106" cy="192.067" rx="91.409" ry="78.934" fill="#666"/><ellipse cx="75.063" cy="150.771" rx="3.226" ry="2.366" fill="#666"/><ellipse cx="125.177" cy="155.073" rx="59.362" ry="69.041" fill="#666"/><ellipse cx="168.193" cy="166.902" rx="99.797" ry="106.68" fill="#666"/><ellipse cx="162.171" cy="166.902" rx="82.161" ry="98.077" fill="#666"/><path d="M6.237 174.645V6.883H340.902v335.525H6.237ZM305.84 55.302c3.28-1.611 6.163-4.494 7.774-7.775 1.143-2.328 1.265-2.988 1.265-6.877 0-3.83-.136-4.595-1.237-6.978-1.515-3.28-4.871-6.586-8.333-8.208-2.181-1.022-2.985-1.158-6.776-1.145-6.542.023-10.427 1.87-14.036 6.673-2.385 3.174-3.091 5.748-2.869 10.455.15 3.158.406 4.36 1.302 6.086 2.172 4.187 5.415 7.075 9.728 8.667 1.036.383 3.114.544 6.09.473 4.005-.095 4.808-.25 7.092-1.371z" fill="#666"/><ellipse cx="158.944" cy="209.488" rx="121.09" ry="101.948" fill="#666"/><ellipse cx="131.414" cy="127.973" rx="29.466" ry="23.014" fill="#666"/><path fill="#666" d="M124.747 115.283h76.569v81.3h-76.569z"/><circle cy="173.858" cx="173.858" r="132.283" fill="#000"/><g aria-label="GO" style="line-height:1.25;-inkscape-font-specification:'VCR OSD Mono';text-align:center" font-weight="400" font-size="80" font-family="VCR OSD Mono" text-anchor="middle" fill="#fff" stroke-width="1.642"><path d="M164.47 203.812q-4.765 2.187-10.43 3.828-5.624 1.602-10.898 1.602-6.797 0-12.46-1.875-5.665-1.875-9.65-5.625-4.023-3.79-6.21-9.454-2.188-5.703-2.188-13.32 0-13.945 8.125-21.992 8.164-8.086 22.383-8.086 4.961 0 10.117 1.21 5.196 1.173 11.172 4.024v9.18h-.703q-1.21-.937-3.516-2.46-2.304-1.524-4.53-2.54-2.696-1.21-6.134-1.992-3.398-.82-7.734-.82-9.766 0-15.469 6.289-5.664 6.25-5.664 16.953 0 11.289 5.938 17.578 5.937 6.25 16.172 6.25 3.75 0 7.46-.742 3.75-.742 6.563-1.914v-14.258h-15.586v-6.797h23.242zM221.345 156.624q3.555 3.907 5.43 9.57 1.914 5.665 1.914 12.852 0 7.188-1.953 12.89-1.914 5.665-5.39 9.454-3.595 3.945-8.516 5.938-4.883 1.992-11.172 1.992-6.133 0-11.172-2.032-5-2.03-8.516-5.898-3.515-3.867-5.43-9.492-1.874-5.625-1.874-12.852 0-7.11 1.875-12.734 1.875-5.664 5.468-9.688 3.438-3.828 8.516-5.859 5.117-2.031 11.133-2.031 6.25 0 11.21 2.07 5 2.031 8.477 5.82zm-.703 22.422q0-11.328-5.078-17.46-5.078-6.173-13.867-6.173-8.867 0-13.946 6.172-5.039 6.133-5.039 17.461 0 11.446 5.157 17.54 5.156 6.054 13.828 6.054t13.789-6.055q5.156-6.093 5.156-17.539z" style="-inkscape-font-specification:'VCR OSD Mono';text-align:center" transform="scale(1.03002 .97085)"/></g><text xml:space="preserve" style="line-height:1.25" x="170.5" y="85.5" font-weight="400" font-size="40" font-family="sans-serif" fill="#fff"/><g style="line-height:1.25;text-align:center" font-weight="400" font-size="48" font-family="sans-serif" text-anchor="middle" fill="#fff"><path d="M188.458 109.297h-22.992V74.398h22.992v4.125h-18.352v9.563h18.352v4.125h-18.352v12.96h18.352z" style="-inkscape-font-specification:'VCR OSD Mono';text-align:center" font-family="VCR OSD Mono" aria-label="E"/></g><text xml:space="preserve" style="line-height:1.25" x="269" y="160" font-weight="400" font-size="40" font-family="sans-serif" fill="#fff"/><text xml:space="preserve" style="line-height:1.25" x="253" y="136" font-weight="400" font-size="40" font-family="sans-serif" fill="#fff"/><g style="line-height:1.25;-inkscape-font-specification:'VCR OSD Mono';text-align:center" font-weight="400" font-size="48" font-family="VCR OSD Mono" text-anchor="middle" fill="#fff"><path d="M277.797 164.945q0 2.32-.82 4.313-.797 1.969-2.25 3.422-1.805 1.804-4.266 2.718-2.461.891-6.211.891h-4.64v13.008h-4.641v-34.899h9.469q3.14 0 5.32.54 2.18.515 3.867 1.64 1.992 1.336 3.07 3.328 1.102 1.992 1.102 5.04zm-4.828.118q0-1.805-.633-3.141t-1.922-2.18q-1.125-.726-2.578-1.031-1.43-.328-3.633-.328h-4.594v13.945h3.914q2.813 0 4.57-.492 1.759-.516 2.86-1.617 1.102-1.125 1.547-2.367.469-1.243.469-2.79z" aria-label="P"/></g><g style="line-height:1.25;text-align:center" font-weight="400" font-size="48" font-family="sans-serif" text-anchor="middle" fill="#fff"><path d="M251.172 247.297h-22.078V212.4h4.64v30.773h17.438z" style="-inkscape-font-specification:'VCR OSD Mono';text-align:center" font-family="VCR OSD Mono" aria-label="L"/></g><g style="line-height:1.25;-inkscape-font-specification:'VCR OSD Mono';text-align:center" font-weight="400" font-size="48" font-family="VCR OSD Mono" text-anchor="middle" fill="#fff"><path d="m252.625 97.399-12.047 17.25 12.024 17.648h-5.368l-9.515-14.367-9.75 14.367h-5.063l12.164-17.437-11.882-17.461h5.343l9.399 14.18 9.61-14.18z" aria-label="X"/></g><g style="line-height:1.25;-inkscape-font-specification:'VCR OSD Mono';text-align:center" font-weight="400" font-size="48" font-family="VCR OSD Mono" text-anchor="middle" fill="#fff"><path d="M187.778 243.406q2.133 2.344 3.258 5.742 1.148 3.399 1.148 7.711 0 4.313-1.171 7.735-1.149 3.398-3.235 5.672-2.156 2.367-5.11 3.562-2.929 1.195-6.702 1.195-3.68 0-6.703-1.218-3-1.22-5.11-3.54-2.11-2.32-3.258-5.695-1.125-3.375-1.125-7.71 0-4.266 1.125-7.641 1.125-3.399 3.282-5.813 2.062-2.297 5.11-3.515 3.07-1.22 6.679-1.22 3.75 0 6.726 1.243 3 1.219 5.086 3.492zm-.422 13.453q0-6.796-3.047-10.476-3.046-3.703-8.32-3.703-5.32 0-8.367 3.703-3.023 3.68-3.023 10.476 0 6.868 3.093 10.524 3.094 3.633 8.297 3.633 5.203 0 8.274-3.633 3.093-3.656 3.093-10.524z" aria-label="O"/></g><g style="line-height:1.25;-inkscape-font-specification:'VCR OSD Mono';text-align:center" font-weight="400" font-size="48" font-family="VCR OSD Mono" text-anchor="middle" fill="#fff"><path d="M134.422 229.883q0 4.758-2.086 8.625-2.063 3.867-5.508 6-2.39 1.477-5.344 2.133-2.93.656-7.734.656h-8.812V212.4h8.718q5.11 0 8.11.75 3.023.726 5.109 2.015 3.563 2.227 5.555 5.93 1.992 3.703 1.992 8.79zm-4.852-.07q0-4.102-1.43-6.914-1.429-2.813-4.265-4.43-2.062-1.172-4.383-1.617-2.32-.469-5.554-.469h-4.36v26.93h4.36q3.351 0 5.835-.492 2.508-.492 4.594-1.828 2.602-1.664 3.89-4.383 1.313-2.719 1.313-6.797z" aria-label="D"/></g><g style="line-height:1.25;-inkscape-font-specification:'VCR OSD Mono';text-align:center" font-weight="400" font-size="48" font-family="VCR OSD Mono" text-anchor="middle" fill="#fff"><path d="M102.258 189.297H79.266v-34.899h22.992v4.125H83.906v9.563h18.352v4.125H83.906v12.96h18.352z" aria-label="E"/></g><g style="line-height:1.25;-inkscape-font-specification:'VCR OSD Mono';text-align:center" font-weight="400" font-size="48" font-family="VCR OSD Mono" text-anchor="middle" fill="#fff"><path d="M134.422 114.883q0 4.758-2.086 8.625-2.063 3.867-5.508 6-2.39 1.477-5.344 2.133-2.93.656-7.734.656h-8.812V97.4h8.718q5.11 0 8.11.75 3.023.726 5.109 2.015 3.563 2.227 5.555 5.93 1.992 3.703 1.992 8.79zm-4.852-.07q0-4.102-1.43-6.914-1.429-2.813-4.265-4.43-2.062-1.172-4.383-1.617-2.32-.469-5.554-.469h-4.36v26.93h4.36q3.351 0 5.835-.492 2.508-.492 4.594-1.828 2.602-1.664 3.89-4.383 1.313-2.719 1.313-6.797z" aria-label="D"/></g></svg>