<svg xmlns="http://www.w3.org/2000/svg" fill="none" viewBox="0 0 348 348"><path stroke="#000" stroke-width="2" d="M5 6h337v337H5z"/><path stroke="#000" stroke-width="2" d="M285 45c0-9 8-16 17-16 4 0 8 1 12 4a16 16 0 0 1 4 12c0 9-7 16-16 16s-17-7-17-16z"/><g stroke="#000" stroke-linecap="round" stroke-linejoin="round" stroke-width="2"><circle cx="304.6" cy="304.6" r="18.6"/><circle cx="252.3" cy="304.6" r="18.6"/><circle cx="200.1" cy="304.6" r="18.6"/><circle cx="147.9" cy="304.6" r="18.6"/><circle cx="95.7" cy="304.6" r="18.6"/><circle cx="43.4" cy="304.6" r="18.6"/></g><path stroke="#000" stroke-linecap="round" stroke-linejoin="round" stroke-width="2" d="M63 167h45v45H63Zm0-69h45v45H63Zm176 69h45v45h-45Zm0-69h45v45h-45ZM46 233h42v42H46Zm213 0h42v42h-42zm-142 0h42v42h-42zm71 0h42v42h-42z"/><g stroke="#000" stroke-linecap="round" stroke-linejoin="round" stroke-width="2"><path d="M146 128h55v55h-55Z"/><path d="M152 134h43v43h-43z"/></g></svg>