<svg xmlns="http://www.w3.org/2000/svg" fill="none" viewBox="0 0 348 348"><path stroke="#000" stroke-width="2" d="M5.08 5.78h336.91v337.67H5.08z"/><path stroke="#000" stroke-width="2" d="M282.73 40.55c0-8.37 6.97-15.16 15.56-15.16 4.13 0 8.09 1.6 11 4.44a14.97 14.97 0 0 1 4.56 10.72c0 8.38-6.96 15.17-15.56 15.17-8.59 0-15.56-6.8-15.56-15.17z"/><path fill="#000" d="m118.42 176.94 23.07-3.16q.92 22.14 8.3 30.32 7.39 8.17 20.44 8.17 9.62 0 16.6-4.35 7-4.48 9.63-12 2.64-7.64 2.64-24.25V38.52h25.57v131.7q0 24.25-5.93 37.57-5.8 13.31-18.59 20.3-12.65 6.98-29.8 6.98-25.43 0-39.01-14.63-13.45-14.63-12.92-43.5z" aria-label="J"/><path fill="#000" d="M52.99 257.2h241.09v53.08H52.99z"/><path fill="#fff" stroke-width="1.33" d="M83.06 285.36v-2.95l16.58-7.19v3.14l-13.15 5.54 13.15 5.6v3.14zm21.2 11.24v-25.7h9.44q2.5 0 3.81.24 1.84.32 3.1 1.21 1.24.88 1.99 2.48.77 1.6.77 3.5 0 3.29-2.03 5.57-2.04 2.26-7.35 2.26h-6.42v10.45zm3.31-13.49h6.47q3.21 0 4.56-1.22 1.35-1.23 1.35-3.46 0-1.61-.8-2.75-.79-1.16-2.08-1.53-.84-.23-3.1-.23h-6.4zm20.15 13.49v-25.7h3.31v10.56h13.01V270.9h3.31v25.71h-3.3v-12.12h-13.02v12.12zm25.22 0v-25.7h11.1q3.34 0 5.08.7 1.74.68 2.79 2.44 1.04 1.75 1.04 3.87 0 2.74-1.73 4.62-1.72 1.87-5.32 2.38 1.31.65 2 1.28 1.44 1.37 2.74 3.43l4.36 7h-4.17l-3.31-5.36q-1.45-2.31-2.4-3.54-.93-1.23-1.68-1.72-.74-.49-1.5-.68-.57-.13-1.85-.13h-3.84v11.42zm3.3-14.36h7.13q2.27 0 3.55-.48 1.28-.49 1.95-1.54.66-1.07.66-2.32 0-1.82-1.3-3-1.28-1.17-4.06-1.17h-7.92zm19.16 14.36 9.62-25.71h3.57l10.24 25.71h-3.77l-2.92-7.78h-10.47l-2.75 7.78zm7.23-10.56h8.48l-2.61-7.12q-1.2-3.24-1.78-5.33-.47 2.47-1.34 4.91zm17.75 2.3 3.13-.28q.22 1.93 1.02 3.18.82 1.22 2.53 2 1.7.75 3.84.75 1.9 0 3.35-.58 1.45-.58 2.15-1.58.71-1.01.71-2.2 0-1.22-.68-2.11-.68-.91-2.25-1.53-1.01-.4-4.46-1.24-3.45-.86-4.83-1.62-1.8-.96-2.68-2.38-.87-1.44-.87-3.21 0-1.95 1.07-3.64 1.08-1.7 3.15-2.57 2.06-.88 4.59-.88 2.78 0 4.9.93 2.13.91 3.28 2.7 1.14 1.79 1.23 4.05l-3.18.25q-.26-2.44-1.74-3.69-1.47-1.24-4.36-1.24-3 0-4.38 1.14-1.37 1.12-1.37 2.72 0 1.38.97 2.28.96.9 4.99 1.84 4.05.93 5.55 1.63 2.18 1.04 3.23 2.63 1.04 1.58 1.04 3.65 0 2.05-1.15 3.88-1.14 1.8-3.3 2.82-2.13 1-4.8 1-3.4 0-5.7-1.01-2.3-1.02-3.61-3.06-1.3-2.05-1.37-4.63zm24.55 8.26v-25.7h18.1v3.03h-14.78v7.88h13.84v3.02h-13.84v8.75h15.36v3.03zm39.08-11.24-16.57 7.28v-3.14l13.12-5.6-13.12-5.54v-3.14l16.57 7.2z" aria-label="&lt;PHRASE&gt;"/></svg>