<svg xmlns="http://www.w3.org/2000/svg" fill="none" viewBox="0 0 348 348"><path stroke="#000" stroke-width="2" d="M5.079 5.776h336.913v337.67H5.08z"/><path stroke="#000" stroke-width="2" d="M282.734 40.554c0-8.376 6.966-15.165 15.56-15.165 4.126 0 8.084 1.597 11.001 4.441 2.918 2.844 4.558 6.702 4.558 10.724 0 8.376-6.966 15.165-15.56 15.165-8.593 0-15.559-6.79-15.559-15.165z"/><g style="line-height:.85;-inkscape-font-specification:'Ostrich Sans';text-align:center" aria-label="Go to Jackbox.TV and enter the room code:" font-size="41.813" font-family="Ostrich Sans" text-anchor="middle" stroke-width="1.96" fill="#000"><path d="M34.985 127.837c-2.467 0-2.342 4.181 0 4.181h1.463v1.798c0 2.718-.878 4.014-2.676 4.014-1.84 0-2.717-1.296-2.717-4.014v-11.917c0-1.923.376-2.927.961-3.428.46-.46 1.171-.544 1.756-.544.586 0 1.255.084 1.757.544.501.46.92 1.463.92 3.428v.586c0 .836.668 1.505 1.505 1.505h1.212c.795 0 1.464-.669 1.464-1.505v-.586c0-5.31-2.258-8.111-6.858-8.111-4.599 0-6.899 2.801-6.899 8.111v11.917c0 5.268 2.3 8.153 6.9 8.153 4.599 0 6.857-2.843 6.857-8.153v-4.474c0-.836-.67-1.505-1.464-1.505zM43.696 133.774c0 3.303.92 5.227 2.216 6.523 1.38 1.338 3.136 1.672 4.642 1.672 1.547 0 3.303-.334 4.683-1.672 1.296-1.296 2.174-3.22 2.174-6.523v-11.833c0-5.31-2.258-8.153-6.857-8.153-4.558 0-6.858 2.885-6.858 8.153zm4.182-11.833c0-2.718.836-4.014 2.676-4.014 1.798 0 2.676 1.213 2.676 4.014v11.833c0 2.843-.92 4.056-2.676 4.056-1.798 0-2.676-1.296-2.676-4.056zM69.335 116.422c0 .836.67 1.505 1.506 1.505h3.386v22.495c0 .837.67 1.506 1.506 1.506h1.129c.836 0 1.505-.67 1.505-1.506v-22.495h3.428c.837 0 1.506-.669 1.506-1.505v-1.17c0-.837-.67-1.506-1.506-1.506H70.841c-.837 0-1.506.669-1.506 1.505zM86.244 133.774c0 3.303.92 5.227 2.216 6.523 1.38 1.338 3.136 1.672 4.641 1.672 1.547 0 3.303-.334 4.683-1.672 1.296-1.296 2.174-3.22 2.174-6.523v-11.833c0-5.31-2.257-8.153-6.857-8.153-4.557 0-6.857 2.885-6.857 8.153zm4.181-11.833c0-2.718.836-4.014 2.676-4.014 1.798 0 2.676 1.213 2.676 4.014v11.833c0 2.843-.92 4.056-2.676 4.056-1.798 0-2.676-1.296-2.676-4.056zM111.632 134.318c0 5.017 2.174 7.651 6.523 7.651 4.348 0 6.439-2.634 6.439-7.651v-19.025c0-.836-.67-1.505-1.463-1.505h-1.171c-.837 0-1.506.669-1.506 1.505v19.025c0 2.425-.794 3.512-2.3 3.512-.543 0-1.128-.042-1.504-.418-.502-.502-.837-1.38-.837-3.094v-.586c0-.794-.71-1.463-1.505-1.463h-1.17c-.837 0-1.506.669-1.506 1.463zM139.021 140.799c.168.627.837 1.17 1.464 1.17h1.212c1.004 0 1.673-.878 1.464-1.84l-5.77-25.17c-.126-.628-.837-1.171-1.464-1.171h-.92c-.627 0-1.296.543-1.463 1.17l-3.805 16.35-2.007 8.863c-.21.962.46 1.798 1.463 1.798h1.213c.627 0 1.296-.543 1.463-1.17l1.464-6.523h4.265zm-3.554-17.353c.795 3.554.711 4.683 1.17 6.69h-2.34zM143.734 133.774c0 3.303.92 5.227 2.216 6.523 1.38 1.338 3.095 1.672 4.683 1.672 1.506 0 3.262-.334 4.642-1.672 1.296-1.296 2.174-3.22 2.174-6.523v-.585c0-.837-.67-1.506-1.464-1.506h-1.212c-.836 0-1.505.67-1.505 1.506v.585c0 1.505-.21 2.634-.711 3.303-.377.418-1.13.753-1.924.753-1.798 0-2.676-1.254-2.676-4.056v-11.833c0-2.801.92-4.014 2.676-4.014 1.715 0 2.635 1.213 2.635 4.014v.586c0 .836.669 1.505 1.505 1.505h1.212c.795 0 1.464-.67 1.464-1.505v-.586c0-3.178-.878-5.268-2.216-6.523-1.38-1.254-3.053-1.63-4.6-1.63-1.588 0-3.261.376-4.64 1.63-1.339 1.255-2.259 3.345-2.259 6.523zM164.454 124.324v-9.031c0-.836-.67-1.505-1.505-1.505h-1.171c-.836 0-1.505.669-1.505 1.505v25.171c0 .836.669 1.505 1.505 1.505h1.17c.837 0 1.506-.669 1.506-1.505v-8.279l.502-.752 5.602 9.784c.21.376.878.752 1.297.752h1.338c1.254 0 1.923-1.17 1.338-2.257l-7.025-12.377 6.983-11.248c.669-1.087 0-2.3-1.296-2.3h-1.422c-.418 0-1.045.377-1.254.712zM183.36 141.97c4.892 0 7.066-2.677 7.066-8.07 0-2.551-.71-4.683-1.798-6.021 0 0 1.798-2.133 1.798-6.021 0-5.394-2.174-8.07-7.066-8.07h-4.14c-.836 0-1.505.669-1.505 1.505v25.171c0 .836.669 1.505 1.505 1.505zm0-24.043c2.048 0 2.885 1.13 2.885 3.93 0 2.802-.837 3.93-2.885 3.93h-1.464v-7.86zm0 12c2.048 0 2.885 1.13 2.885 3.973 0 2.801-.837 3.93-2.885 3.93h-1.464v-7.903zM193.634 133.774c0 3.303.92 5.227 2.216 6.523 1.38 1.338 3.136 1.672 4.641 1.672 1.547 0 3.303-.334 4.683-1.672 1.296-1.296 2.174-3.22 2.174-6.523v-11.833c0-5.31-2.258-8.153-6.857-8.153-4.558 0-6.857 2.885-6.857 8.153zm4.181-11.833c0-2.718.836-4.014 2.676-4.014 1.798 0 2.676 1.213 2.676 4.014v11.833c0 2.843-.92 4.056-2.676 4.056-1.798 0-2.676-1.296-2.676-4.056zM217.007 132.77l3.93 8.321c.21.46.878.878 1.38.878h1.296c1.213 0 1.84-1.087 1.338-2.132l-5.686-11.958 5.603-11.959c.502-1.045-.167-2.132-1.338-2.132h-1.296c-.502 0-1.171.418-1.338.878-1.297 2.76-2.635 5.519-3.93 8.279l-3.973-8.28c-.167-.417-.836-.877-1.338-.877h-1.296c-1.213 0-1.84 1.087-1.38 2.132l5.686 11.959-5.686 11.958c-.46 1.045.209 2.132 1.38 2.132h1.296c.502 0 1.17-.46 1.338-.878zM231.784 138.875c0-.836-.711-1.505-1.505-1.505h-1.213c-.794 0-1.505.669-1.505 1.505v1.59c0 .835.71 1.504 1.505 1.504h1.213c.794 0 1.505-.669 1.505-1.505zM233.074 116.422c0 .836.67 1.505 1.505 1.505h3.387v22.495c0 .837.67 1.506 1.505 1.506h1.13c.836 0 1.505-.67 1.505-1.506v-22.495h3.428c.837 0 1.506-.669 1.506-1.505v-1.17c0-.837-.67-1.506-1.506-1.506H234.58c-.836 0-1.505.669-1.505 1.505zM254.206 114.917c-.167-.628-.836-1.171-1.464-1.171h-1.17c-1.046 0-1.715.878-1.464 1.84l5.938 25.17c.125.67.794 1.172 1.463 1.172h.878c.627 0 1.296-.502 1.464-1.171l5.937-25.171c.209-.962-.46-1.84-1.464-1.84h-1.212c-.627 0-1.338.543-1.464 1.17l-3.72 15.931zM288.387 140.799c.167.627.836 1.17 1.463 1.17h1.213c1.003 0 1.672-.878 1.463-1.84l-5.77-25.17c-.125-.628-.836-1.171-1.463-1.171h-.92c-.627 0-1.296.543-1.463 1.17l-3.805 16.35-2.007 8.863c-.21.962.46 1.798 1.463 1.798h1.213c.627 0 1.296-.543 1.463-1.17l1.463-6.523h4.265zm-3.554-17.353c.794 3.554.71 4.683 1.17 6.69h-2.34zM306.172 141.97c.836 0 1.505-.67 1.505-1.506v-25.171c0-.836-.669-1.505-1.505-1.505H305c-.836 0-1.505.669-1.505 1.505v13.798l-5.812-14.383c-.168-.46-.837-.92-1.38-.92H295.3c-.794 0-1.505.669-1.505 1.505v25.171c0 .836.711 1.505 1.505 1.505h1.213c.794 0 1.505-.669 1.505-1.505v-13.798l5.812 14.384c.167.46.878.92 1.38.92zM316.84 141.97c5.018 0 7.36-2.844 7.36-8.28v-11.623c0-5.436-2.342-8.28-7.36-8.28h-4.264c-.837 0-1.506.67-1.506 1.506v25.171c0 .836.67 1.505 1.506 1.505zm0-24.043c2.217 0 3.136 1.338 3.136 4.14v11.623c0 2.802-.92 4.14-3.136 4.14h-1.63v-19.903zM31.808 149.328c-.837 0-1.506.67-1.506 1.506v25.17c0 .837.67 1.506 1.506 1.506h9.031c.836 0 1.505-.669 1.505-1.505v-1.13c0-.835-.669-1.504-1.505-1.504h-6.397v-7.903h5.268c.836 0 1.505-.669 1.505-1.505v-1.13c0-.835-.669-1.504-1.505-1.504h-5.268v-7.861h6.397c.836 0 1.505-.67 1.505-1.505v-1.13c0-.836-.669-1.505-1.505-1.505zM57.46 177.51c.836 0 1.505-.669 1.505-1.505v-25.171c0-.837-.669-1.506-1.505-1.506h-1.17c-.837 0-1.506.67-1.506 1.506v13.798l-5.812-14.384c-.167-.46-.836-.92-1.38-.92H46.59c-.794 0-1.505.67-1.505 1.506v25.17c0 .837.71 1.506 1.505 1.506h1.213c.794 0 1.505-.669 1.505-1.505v-13.798l5.812 14.383c.167.46.878.92 1.38.92zM62.108 151.963c0 .836.669 1.505 1.505 1.505H67v22.495c0 .836.669 1.505 1.505 1.505h1.13c.835 0 1.504-.669 1.504-1.505v-22.495h3.43c.835 0 1.504-.67 1.504-1.505v-1.171c0-.836-.669-1.505-1.505-1.505H63.613c-.836 0-1.505.669-1.505 1.505zM80.48 149.328c-.836 0-1.505.67-1.505 1.506v25.17c0 .837.669 1.506 1.505 1.506h9.032c.836 0 1.505-.669 1.505-1.505v-1.13c0-.835-.67-1.504-1.505-1.504h-6.398v-7.903h5.269c.836 0 1.505-.669 1.505-1.505v-1.13c0-.835-.67-1.504-1.505-1.504h-5.269v-7.861h6.398c.836 0 1.505-.67 1.505-1.505v-1.13c0-.836-.67-1.505-1.505-1.505zM107.262 168.98c0-2.174-.586-3.888-1.798-5.184l.334-.335c1.296-1.296 1.756-3.387 1.756-5.98 0-5.602-1.798-8.194-6.94-8.194h-5.269c-.836 0-1.505.669-1.505 1.505v25.171c0 .836.669 1.505 1.505 1.505h1.17c.795 0 1.464-.669 1.464-1.505v-10.244h1.882c2.049 0 3.22 1.17 3.22 3.261v6.983c0 .836.668 1.505 1.505 1.505h1.17c.837 0 1.506-.669 1.506-1.505zm-9.283-15.512h2.634c2.175 0 2.802 1.17 2.802 4.014 0 2.843-1.213 4.014-3.554 4.014h-1.882zM119.11 151.963c0 .836.67 1.505 1.506 1.505h3.386v22.495c0 .836.67 1.505 1.506 1.505h1.129c.836 0 1.505-.669 1.505-1.505v-22.495h3.428c.837 0 1.506-.67 1.506-1.505v-1.171c0-.836-.67-1.505-1.506-1.505h-10.954c-.837 0-1.506.669-1.506 1.505zM138.567 161.37v-10.536c0-.837-.67-1.506-1.505-1.506h-1.171c-.836 0-1.505.67-1.505 1.506v25.17c0 .837.669 1.506 1.505 1.506h1.17c.837 0 1.506-.669 1.506-1.505V165.51h4.641v10.495c0 .836.67 1.505 1.505 1.505h1.171c.836 0 1.505-.669 1.505-1.505v-25.171c0-.837-.669-1.506-1.505-1.506h-1.17c-.837 0-1.506.67-1.506 1.506v10.536zM152.345 149.328c-.836 0-1.505.67-1.505 1.506v25.17c0 .837.67 1.506 1.505 1.506h9.032c.836 0 1.505-.669 1.505-1.505v-1.13c0-.835-.669-1.504-1.505-1.504h-6.397v-7.903h5.268c.836 0 1.505-.669 1.505-1.505v-1.13c0-.835-.669-1.504-1.505-1.504h-5.268v-7.861h6.397c.836 0 1.505-.67 1.505-1.505v-1.13c0-.836-.669-1.505-1.505-1.505zM187.947 168.98c0-2.174-.585-3.888-1.798-5.184l.334-.335c1.297-1.296 1.757-3.387 1.757-5.98 0-5.602-1.798-8.194-6.941-8.194h-5.269c-.836 0-1.505.669-1.505 1.505v25.171c0 .836.67 1.505 1.505 1.505h1.171c.795 0 1.464-.669 1.464-1.505v-10.244h1.881c2.049 0 3.22 1.17 3.22 3.261v6.983c0 .836.669 1.505 1.505 1.505h1.17c.837 0 1.506-.669 1.506-1.505zm-9.282-15.512h2.634c2.174 0 2.801 1.17 2.801 4.014 0 2.843-1.212 4.014-3.554 4.014h-1.881zM191.143 169.315c0 3.303.92 5.226 2.216 6.523 1.38 1.338 3.136 1.672 4.641 1.672 1.547 0 3.303-.334 4.683-1.672 1.296-1.297 2.174-3.22 2.174-6.523v-11.833c0-5.31-2.257-8.154-6.857-8.154-4.557 0-6.857 2.885-6.857 8.154zm4.181-11.833c0-2.718.836-4.014 2.676-4.014 1.798 0 2.676 1.212 2.676 4.014v11.833c0 2.843-.92 4.056-2.676 4.056-1.798 0-2.676-1.297-2.676-4.056zM208.13 169.315c0 3.303.92 5.226 2.215 6.523 1.38 1.338 3.136 1.672 4.642 1.672 1.547 0 3.303-.334 4.683-1.672 1.296-1.297 2.174-3.22 2.174-6.523v-11.833c0-5.31-2.258-8.154-6.857-8.154-4.558 0-6.858 2.885-6.858 8.154zm4.18-11.833c0-2.718.837-4.014 2.677-4.014 1.798 0 2.676 1.212 2.676 4.014v11.833c0 2.843-.92 4.056-2.676 4.056-1.798 0-2.676-1.297-2.676-4.056zM232.976 177.51c.628 0 1.297-.543 1.464-1.212l1.38-9.283v8.99c0 .836.669 1.505 1.505 1.505h1.17c.837 0 1.506-.669 1.506-1.505v-25.171c0-.837-.669-1.506-1.505-1.506h-1.255c-.627 0-1.338.544-1.463 1.171l-3.261 16.85-3.304-16.85c-.125-.627-.794-1.17-1.421-1.17h-1.255c-.836 0-1.505.668-1.505 1.505v25.17c0 .837.67 1.506 1.505 1.506h1.171c.794 0 1.505-.669 1.505-1.505v-9.073l1.422 9.407c.125.628.794 1.171 1.422 1.171zM252.39 169.315c0 3.303.92 5.226 2.216 6.523 1.38 1.338 3.094 1.672 4.683 1.672 1.505 0 3.261-.334 4.641-1.672 1.296-1.297 2.174-3.22 2.174-6.523v-.586c0-.836-.669-1.505-1.463-1.505h-1.213c-.836 0-1.505.67-1.505 1.505v.586c0 1.505-.209 2.634-.71 3.303-.377.418-1.13.753-1.924.753-1.798 0-2.676-1.255-2.676-4.056v-11.833c0-2.802.92-4.014 2.676-4.014 1.714 0 2.634 1.212 2.634 4.014v.585c0 .836.67 1.505 1.505 1.505h1.213c.794 0 1.463-.669 1.463-1.505v-.585c0-3.178-.878-5.269-2.216-6.523-1.38-1.254-3.052-1.63-4.599-1.63-1.589 0-3.261.376-4.641 1.63-1.338 1.254-2.258 3.345-2.258 6.523zM268.97 169.315c0 3.303.92 5.226 2.216 6.523 1.38 1.338 3.136 1.672 4.641 1.672 1.547 0 3.303-.334 4.683-1.672 1.296-1.297 2.174-3.22 2.174-6.523v-11.833c0-5.31-2.257-8.154-6.857-8.154-4.557 0-6.857 2.885-6.857 8.154zm4.181-11.833c0-2.718.836-4.014 2.676-4.014 1.798 0 2.676 1.212 2.676 4.014v11.833c0 2.843-.92 4.056-2.676 4.056-1.798 0-2.676-1.297-2.676-4.056zM291.81 177.51c5.018 0 7.36-2.843 7.36-8.279v-11.624c0-5.435-2.342-8.279-7.36-8.279h-4.265c-.836 0-1.505.67-1.505 1.506v25.17c0 .837.669 1.506 1.505 1.506zm0-24.042c2.216 0 3.136 1.338 3.136 4.14v11.623c0 2.802-.92 4.14-3.136 4.14h-1.63v-19.903zM304.08 149.328c-.837 0-1.506.67-1.506 1.506v25.17c0 .837.67 1.506 1.505 1.506h9.032c.836 0 1.505-.669 1.505-1.505v-1.13c0-.835-.669-1.504-1.505-1.504h-6.397v-7.903h5.268c.836 0 1.505-.669 1.505-1.505v-1.13c0-.835-.669-1.504-1.505-1.504h-5.268v-7.861h6.397c.836 0 1.505-.67 1.505-1.505v-1.13c0-.836-.669-1.505-1.505-1.505zM321.453 156.813c0-.836-.71-1.505-1.505-1.505h-1.17c-.837 0-1.506.669-1.506 1.505v2.843c0 .795.669 1.464 1.505 1.464h1.171c.794 0 1.505-.67 1.505-1.464zm-2.676 8.78c-.836 0-1.505.67-1.505 1.506v2.843c0 .794.669 1.463 1.505 1.463h1.171c.794 0 1.505-.669 1.505-1.463v-2.843c0-.836-.71-1.505-1.505-1.505z"/></g><g style="line-height:.85;-inkscape-font-specification:'Ostrich Sans';text-align:center" aria-label="ABCD" font-size="127.095" font-family="Ostrich Sans" text-anchor="middle" stroke-width="5.958" fill="#000"><path d="M114.079 291.816c.508 1.906 2.542 3.558 4.448 3.558h3.686c3.05 0 5.083-2.669 4.448-5.592l-17.54-76.511c-.38-1.907-2.541-3.559-4.447-3.559h-2.797c-1.906 0-3.94 1.652-4.448 3.559l-11.565 49.694-6.101 26.944c-.636 2.923 1.398 5.465 4.448 5.465h3.686c1.906 0 3.94-1.652 4.448-3.558l4.449-19.827h12.963zm-10.803-52.745c2.414 10.803 2.16 14.235 3.558 20.335h-7.117zM153.53 295.374c14.87 0 21.479-8.134 21.479-24.53 0-7.752-2.16-14.234-5.465-18.3 0 0 5.465-6.483 5.465-18.303 0-16.395-6.61-24.529-21.48-24.529h-12.582a4.556 4.556 0 00-4.575 4.576v76.51a4.556 4.556 0 004.575 4.576zm0-73.08c6.227 0 8.77 3.432 8.77 11.947 0 8.516-2.543 11.947-8.77 11.947h-4.449v-23.893zm0 36.477c6.227 0 8.77 3.431 8.77 12.074 0 8.515-2.543 11.947-8.77 11.947h-4.449V258.77zM184.505 270.464c0 10.04 2.796 15.886 6.736 19.826 4.194 4.067 9.405 5.084 14.235 5.084 4.575 0 9.913-1.017 14.107-5.084 3.94-3.94 6.61-9.786 6.61-19.826v-1.78c0-2.542-2.034-4.575-4.449-4.575h-3.686a4.556 4.556 0 00-4.575 4.575v1.78c0 4.575-.636 8.007-2.16 10.04-1.145 1.271-3.432 2.288-5.847 2.288-5.465 0-8.134-3.813-8.134-12.328v-35.968c0-8.516 2.796-12.201 8.134-12.201 5.21 0 8.007 3.685 8.007 12.2v1.78a4.556 4.556 0 004.575 4.575h3.686c2.415 0 4.448-2.033 4.448-4.575v-1.78c0-9.659-2.669-16.013-6.736-19.826-4.194-3.813-9.278-4.957-13.98-4.957-4.83 0-9.914 1.144-14.108 4.957-4.067 3.813-6.863 10.167-6.863 19.827zM252.696 295.374c15.251 0 22.368-8.642 22.368-25.165v-35.332c0-16.522-7.117-25.165-22.368-25.165h-12.964a4.556 4.556 0 00-4.576 4.576v76.51a4.556 4.556 0 004.576 4.576zm0-73.08c6.736 0 9.532 4.068 9.532 12.583v35.332c0 8.516-2.796 12.583-9.532 12.583h-4.957v-60.497z"/></g></svg>