<svg xmlns="http://www.w3.org/2000/svg" fill="none" viewBox="0 0 348 348"><path stroke="#000" stroke-linejoin="round" stroke-width="2" d="M6 6h337v337.6H6Z"/><path fill="#000" d="M134.8 15.8h74.3v57h-74.3z"/><path fill="#fff" d="M155.5 44.3c0-2.7.3-5 .8-6.6a8.7 8.7 0 0 1 2.5-3.8 6.4 6.4 0 0 1 4.2-1.3c1.2 0 2.3.2 3.2.7 1 .5 1.7 1.2 2.3 2.2.6.9 1 2 1.4 3.4.4 1.3.5 3.1.5 5.4a21 21 0 0 1-.8 6.5c-.5 1.6-1.4 3-2.5 3.8-1 1-2.5 1.4-4.1 1.4-2.2 0-4-.8-5.2-2.4-1.5-2-2.3-5-2.3-9.3zm2.9 0c0 3.7.4 6.2 1.3 7.5.9 1.2 2 1.9 3.3 1.9 1.3 0 2.3-.7 3.2-2 1-1.2 1.4-3.7 1.4-7.4 0-3.8-.5-6.3-1.4-7.5-.9-1.3-2-1.9-3.3-1.9-1.3 0-2.3.5-3 1.6-1 1.4-1.5 4-1.5 7.8zm14.9 0c0-2.7.3-5 .8-6.6a8.7 8.7 0 0 1 2.5-3.8 6.4 6.4 0 0 1 4.2-1.3c1.2 0 2.3.2 3.2.7 1 .5 1.7 1.2 2.3 2.2.6.9 1 2 1.4 3.4.4 1.3.5 3.1.5 5.4 0 2.7-.2 4.8-.8 6.5-.5 1.6-1.4 3-2.5 3.8-1 1-2.5 1.4-4.1 1.4-2.2 0-4-.8-5.2-2.4-1.5-2-2.3-5-2.3-9.3zm2.9 0c0 3.7.4 6.2 1.3 7.5.9 1.2 2 1.9 3.3 1.9 1.3 0 2.3-.7 3.2-2 .9-1.2 1.3-3.7 1.3-7.4 0-3.8-.4-6.3-1.3-7.5-.9-1.3-2-1.9-3.3-1.9-1.3 0-2.3.5-3 1.6-1 1.4-1.5 4-1.5 7.8z"/><path stroke="#000" stroke-linejoin="round" stroke-width="2" d="M16.2 17.8h110v55h-110z"/><path d="m16.2 72.8 39.7-54"/><path stroke="#000" stroke-linejoin="round" stroke-width="2" d="m16.2 72.8 39.7-54"/><path d="m38.5 72.8 39.7-54"/><path stroke="#000" stroke-linejoin="round" stroke-width="2" d="m38.5 72.8 39.7-54"/><path d="m60.8 72.8 39.7-54"/><path stroke="#000" stroke-linejoin="round" stroke-width="2" d="m60.8 72.8 39.7-54"/><path d="m83.1 72.8 39.7-54"/><path stroke="#000" stroke-linejoin="round" stroke-width="2" d="m83.1 72.8 39.7-54m95-2h110v55h-110z"/><path d="m217.8 71.8 39.7-54.1"/><path stroke="#000" stroke-linejoin="round" stroke-width="2" d="m217.8 71.8 39.7-54.1"/><path d="m240.1 71.8 39.7-54.1"/><path stroke="#000" stroke-linejoin="round" stroke-width="2" d="m240.1 71.8 39.7-54.1"/><path d="m262.5 71.8 39.6-54.1"/><path stroke="#000" stroke-linejoin="round" stroke-width="2" d="m262.5 71.8 39.6-54.1"/><path d="m284.7 71.8 39.8-54.1"/><path stroke="#000" stroke-linejoin="round" stroke-width="2" d="m284.7 71.8 39.8-54.1"/><rect width="60.16" height="39.16" x="144.42" y="284.2" fill="#fff" stroke="#000" stroke-width=".95" rx="6.79" ry="10.01"/><rect width="60.16" height="39.3" x="267.84" y="283.54" fill="#fff" stroke="#000" stroke-width=".95" rx="6.79" ry="10.05"/><path fill="#000" d="M271.31 288.4h4.72q1.6 0 2.44.56 1.13.76 1.93 2.68.8 1.93 1.22 4.72.42 2.78.42 6.87 0 3.6-.4 6.19-.47 3.17-1.36 5.14-.68 1.49-1.82 2.32-.86.62-2.29.62h-4.86zm2.58 4.93v19.26h1.93q1.09 0 1.57-.27.63-.36 1.04-1.21.41-.86.68-2.8.26-1.97.26-5.34t-.26-5.18q-.27-1.8-.74-2.81-.47-1.02-1.2-1.37-.53-.28-2.11-.28zm12.68 24.17h-2.45v-21.08h2.28v3q.58-2.12 1.04-2.8.48-.67 1.07-.67.84 0 1.61 1.05l-.76 4.86q-.62-.91-1.15-.91-.51 0-.87.65-.36.64-.57 2.32-.2 1.7-.2 7.07zm9.97-6.71 2.45.93q-.48 3.06-1.5 4.66-1.01 1.6-2.54 1.6-2.42 0-3.58-3.6-.91-2.88-.91-7.26 0-5.24 1.2-8.2 1.2-2.97 3.05-2.97 2.07 0 3.26 3.11 1.2 3.1 1.15 9.5h-6.15q.03 2.49.6 3.88.56 1.37 1.4 1.37.58 0 .98-.72.39-.71.6-2.3zm.14-5.64q-.03-2.42-.55-3.67-.52-1.27-1.27-1.27-.8 0-1.33 1.33t-.52 3.61zm6.28-2.3-2.23-.91q.38-3.06 1.3-4.52.91-1.47 2.72-1.47 1.64 0 2.44.9.8.86 1.13 2.23.33 1.35.33 4.98l-.03 6.51q0 2.78.12 4.1.12 1.32.44 2.83h-2.43q-.1-.56-.23-1.65l-.09-.66q-.63 1.4-1.34 2.09-.72.7-1.53.7-1.43 0-2.26-1.77-.82-1.77-.82-4.47 0-1.78.37-3.17.38-1.41 1.05-2.15.68-.75 1.96-1.3 1.72-.74 2.38-1.37v-.56q0-1.6-.35-2.28-.35-.7-1.32-.7-.65 0-1.02.6-.37.57-.6 2.04zm3.28 4.53q-.47.35-1.5.85-1.01.5-1.33.97-.48.78-.48 1.97 0 1.17.39 2.02.38.85.97.85.67 0 1.27-.99.44-.75.58-1.84.1-.72.1-2.72zm4.66-10.96h2.25v2.88q1.22-3.35 2.9-3.35.88 0 1.54.83.65.83 1.07 2.52.61-1.69 1.32-2.52.7-.83 1.51-.83 1.02 0 1.73.95.7.93 1.06 2.76.25 1.35.25 4.36v13.48h-2.45v-12.05q0-3.13-.26-4.05-.34-1.19-1.04-1.19-.52 0-.97.72-.46.71-.66 2.1-.2 1.37-.2 4.35v10.12h-2.45v-11.55q0-3.08-.13-3.97-.13-.9-.41-1.33-.27-.44-.75-.44-.56 0-1.02.7-.45.7-.65 2-.2 1.31-.2 4.35v10.24h-2.45z" aria-label="Dream"/><path fill="#fff" stroke="#000" stroke-width=".95" d="M27.61 284.06h46.58c3.76 0 6.79 4.48 6.79 10.05v19.2c0 5.57-3.03 10.05-6.79 10.05H27.61c-3.76 0-6.79-4.48-6.79-10.05v-19.2c0-5.57 3.03-10.05 6.79-10.05z"/><path fill="#000" d="M29.43 289.23h2.73v18.03q0 3.53-.3 5.44-.4 2.48-1.44 4-1.05 1.5-2.76 1.5-2 0-3.08-2.36-1.09-2.37-1.1-6.93l2.58-.62q.05 2.44.35 3.45.44 1.54 1.35 1.54.91 0 1.29-1.09.38-1.1.38-4.57zm11.31 21.91 2.6.91q-.5 3-1.59 4.57-1.07 1.55-2.69 1.55-2.56 0-3.79-3.51-.97-2.82-.97-7.11 0-5.13 1.28-8.03 1.27-2.91 3.22-2.91 2.2 0 3.46 3.05 1.27 3.03 1.21 9.3h-6.5q.02 2.43.62 3.8.6 1.33 1.5 1.33.61 0 1.03-.7.41-.7.62-2.25zm.15-5.52q-.03-2.37-.58-3.6-.55-1.23-1.35-1.23-.85 0-1.4 1.3-.56 1.3-.55 3.53zm7.19 12.08h-2.6v-20.62h2.42V300q.62-2.08 1.1-2.74.5-.66 1.14-.66.88 0 1.7 1.03l-.8 4.76q-.65-.9-1.22-.9-.54 0-.92.65-.38.62-.6 2.27-.22 1.65-.22 6.92zm4.68-20.62h2.4v2.81q1.28-3.28 3.06-3.28.94 0 1.63.82.7.81 1.14 2.46.65-1.65 1.4-2.46.75-.82 1.6-.82 1.08 0 1.83.93.75.91 1.12 2.7.26 1.32.26 4.28v13.19h-2.6v-11.8q0-3.06-.26-3.96-.36-1.16-1.11-1.16-.55 0-1.03.7t-.7 2.05q-.2 1.35-.2 4.26v9.9h-2.6v-11.3q0-3.01-.14-3.88-.14-.88-.44-1.3-.28-.43-.78-.43-.6 0-1.08.68-.48.68-.7 1.96-.2 1.28-.2 4.25v10.03h-2.6zm18.96 6.29-2.35-.9q.4-2.99 1.36-4.42.98-1.44 2.89-1.44 1.74 0 2.59.87.85.86 1.2 2.2.34 1.32.34 4.88l-.03 6.37q0 2.72.12 4.02.13 1.28.48 2.76h-2.57q-.1-.55-.25-1.61l-.1-.65q-.66 1.36-1.42 2.04-.76.68-1.62.68-1.51 0-2.4-1.73-.86-1.72-.86-4.37 0-1.74.4-3.1.4-1.38 1.1-2.1.73-.74 2.08-1.29 1.82-.71 2.52-1.34v-.54q0-1.57-.37-2.23-.37-.68-1.4-.68-.69 0-1.08.58-.39.56-.63 2zm3.48 4.43q-.5.35-1.58.83-1.08.5-1.42.96-.5.75-.5 1.92 0 1.15.4 1.98.41.84 1.04.84.7 0 1.34-.97.47-.74.62-1.81.1-.7.1-2.66z" aria-label="Jerma"/><path stroke="#fff" stroke-width="2.95" d="M243.05 241.3h28.98m14.5 0h28.98"/><path fill="#fff" stroke="#000" stroke-width="1.1" d="M33.92 103.33H314.5v166.85H33.92Z"/><path fill="#fff" stroke="#000" stroke-width=".59" d="M34.17 104.19v165.26c3.48.96 7.7.12 11.46.4H313.6c.92-3.61.1-7.97.38-11.87v-153.8c-3.5-.95-7.7-.1-11.47-.4H34.55l-.35.38z"/><path stroke="#000" stroke-width=".98" d="M107.6 207.82c5.09 1.33 9.7 4.3 14.7 5.9 4.22 1.36 5.98.8 10.2.94 4.2.13 8.38.3 12.6.3 2.15 0 4.46-.24 6.6 0 4.28.5 8.57.72 12.9.94 2.88.14 5.83-.25 8.7 0 4.6.4 9.17.3 13.81.3 1.99 0 4 .23 5.99 0 .72-.07 1.4-.46 2.1-.61 3.26-.68 6.63-.92 9.9-1.56 1.49-.28 3.05-.94 4.5-1.24 2.66-.55 5.41-1.04 8.1-1.55.72-.14 1.39-.52 2.1-.62 4.16-.62 7.75-2.27 11.7-3.73.62-.8 1.42-.13 2.11-.3 1.17-.31 2.18-1.09 3.3-1.56 1.04-.95 2.41-.78 3.6-1.24.63-.25 1.14-.8 1.8-.94.93-.19 2.76-.18 3.6-.62.1-.04-.07-.23 0-.3.07-.08.3.1.3 0 0-.28-2.78 1.11-3 1.24-4.15 2.34-7.76 5.55-11.1 9-1.16 1.2-2.16 2.55-3.3 3.73-1.15 1.19-2.65 2.31-3.6 3.72-2.05 3.03-3.29 6.49-5.1 9.63-.79 1.36-2.05 3.82-2.4 5.28-.08.3.1.64 0 .93-.35 1.07-1.29 1.81-1.8 2.8-1.75 3.3-3.52 9.13-7.8 9.94-2.4.44-4.8.3-7.2.3H188c-1.26 0-2.65-.14-3.9 0-.5.06-1 .21-1.5.32-1.3 0-2.61-.07-3.9 0-3.51.17-1.23.27-3.9.62-3.8.49-8.86.01-12.6-.31-1.3-.11-2.61.13-3.9 0-1.49-.16-2.73-.97-4.2-1.25-8.4-1.58-16.17-5.97-22.51-11.8-.9-.82-1.94-1.48-2.7-2.48-.52-.7-.93-1.5-1.5-2.17-.41-.5-1.13-.67-1.5-1.25-1.67-2.59-2.77-5.72-4.2-8.38-2.08-3.88-5.4-6.6-8.1-9.94-1.47-1.83-3.86-4.04-6-4.04z"/><path stroke="#000" stroke-width=".98" d="M127.1 216.2c-.07 1.72 1.25 2.96 1.8 4.36.45 1.17.65 2.6 1.2 3.72a22.8 23.6 0 0 0 3 4.04c2.7 2.8.05.03 1.2.62 1.2.62 3.62 2.55 4.8 2.8 3.12.64 6.4 1.3 9.6 1.55 1.76.14 3.68.57 5.4.93.22.05.4.2.6.31.3.1.58.26.9.31 3.6.37 2 .14 4.8.62 1.65.29 3.16.96 4.8 1.24.55.1 1.25-.05 1.8 0 3.64.35 7.77.85 11.4.32 1.22-.19 2.37-.8 3.6-.94 2.67-.3.33.46 3.3-.3.61-.17 1.18-.5 1.8-.63.99-.22 2.03-.06 3-.3 2.02-.53 4.01-1.5 6-2.18.78-.27 1.63-.32 2.4-.62 2.24-.87 7.31-4.47 9-6.21.16-.17.12-.49.3-.63.26-.2.64-.12.9-.3.75-.52 1.36-1.35 2.1-1.87 1.12-.77 2.48-1.61 3.6-2.48 3-2.33 4.86-6.36 7.81-8.39.45-.31.43-.93.9-1.24 3.04-2.1 6.72-3 10.2-3.73.44-.09 2.6-1.35 3-.93 1.13 1.17-3.2 4.83-3.6 5.28-1.86 2.07-2.35 3.17-4.5 4.66-1.28.88-6.98 2.86-7.5 3.41-.2.2-.83 2.37-.9 2.49-.2.3-2.04 1.6-2.4 1.86-1.06.78-2.3 1.35-3.3 2.18-1.51 1.25-2.93 2.5-4.5 3.72-.6-.03-.14.46-.3.62-.14.15-.41-.06-.6 0-1.16.4-2.12 1.42-3.31 1.87-.48.18-1 .16-1.5.3-.62.19-1.25.75-1.8.94-1.28.44-4.78-.64-5.7 0-.4.28-3.07 2.66-3.6 2.8-1.11.28-4.57-.9-5.4-.32-.9.63-1.62 1.68-2.1 2.18-1.06 1.1-3-1.56-4.2-.93-1.44.74-2.8 2.8-4.5 2.8-1.23 0-2.67-.78-3.9-.94-2.5-.32-5.37.63-7.8 0-2.16-.56-4.4-.48-6.6-.93-.94-.2-2.06 0-3 0-3.43 0 .8.06-3.9-.31-1-.08-2.02.14-3 0-1.07-.16-2.24-.64-3.3-.93-2.49-.7-4.87-.97-7.2-2.18-1.04-.53-1.12.41-2.71-1.24-.8-.84-1.02-2.3-1.8-3.1-1-1.04-.97-.9-1.8-2.18-2.09-3.25-5.4-6.5-5.4-10.56"/><path stroke="#000" stroke-width=".98" d="M132.2 220.25c-.62.01.4 4.76.3 4.96-.03.07-2.22-.73-2.4-.93-.31-.31-1.36-1.8-1.5-2.17-.24-.6-.15-1.93-.6-2.49-.56-.66-1.2-1.24-1.8-1.86"/><path stroke="#000" stroke-width=".98" d="m138.2 220.87.6 2.8c.19.5.46 1 .6 1.54.02.1.56 2.56.3 3.11-.34.69-4.41-.84-4.8-1.24-.69-.7-1.06-2.82-1.2-3.73-.07-.37.22-2.34 0-2.48-.47-.29-1-.42-1.5-.62"/><path stroke="#000" stroke-width=".98" d="M146.3 223.04c-1.07.53-.37 8.57-.6 8.7-.66.33-1.42-.37-2.1-.63-4.48-1.68-3.12-1.54-4.8-7.45m16.5-.31c-.12 2.35 1.06 6.35-.6 8.08-.24.24-3.64.3-3.9.3-.77 0-3.36-.36-3.9-.93m24.6-6.2c1.08 3.16 1.72 5.76 1.2 9-.02.15.14 1.4 0 1.55-.35.37-1.9.52-2.4.62-1.8.38-3.68-.57-5.4-.93-.48-.1-1.02.1-1.5 0a29.84 30.89 0 0 1-3.6-.93c-.94-.32.1-.2-.3-.62-.5-.52-1.8-.61-2.4-1.24-.16-.17-.14-.46-.3-.62-.07-.08-.26.09-.3 0-.05-.1-.29-2.12-.6-1.25-.53 1.41-.8 2.9-1.2 4.35m33.3-9.63c-.85 2.03 2.51 5.67 1.5 7.77-.23.47-.53.24-.9.62-.16.16-.1.5-.3.62-.17.11-.4-.05-.6 0-.44.11-.76.53-1.2.62-2.52.52-5.2-.45-7.5-.93-.72-.15-2.04.03-2.7-.31a8.02 8.3 0 0 0-2.7-.62"/><path stroke="#000" stroke-width=".98" d="M197.3 222.73c.24.6 3.66 4.85 3.3 5.59-.28.58-.72.65-1.2.93-3.96 2.34-5.87 2.18-10.2 2.18"/><path stroke="#000" stroke-width=".98" d="M207.2 220.87c1.08 7.8-.64-4.13.9 4.65.1.51-.15 1.07 0 1.56.05.14.37.18.3.3-.32.68-1.37.56-2.1.63-1.64.15-3.49-.33-5.1 0-.88.18-1.87.93-2.7.93m15.6-9.94c-.58 1.64 1.66 4.52 0 5.6-2.31 1.5-1.7.7-4.8 1.24-.22.03-.38.23-.6.3-.1.04-.33-.1-.3 0 .31 1.28.8 2.5 1.2 3.73"/><path stroke="#000" stroke-width=".98" d="M219.5 215.59c3.6 4.57 1.18 5.83-3.3 7.76-1.3.57-2.4 1-2.4.93 0-1.76.2-3.52.3-5.28"/><path stroke="#000" stroke-width=".98" d="M127.1 216.2c2.93 6.74 3.27.52 5.4 1.25 1.21.42 1.57 3.26 2.1 4.35.09.18-.2.62 0 .62.31 0 .07-.7.3-.93.25-.27.64-.36.9-.62.35-.37.44-1.01.9-1.25 1.4-.73 1.14 2.05 2.1 1.56 1.66-.86 3.39-1.97 5.4-1.56 1.07.23 1.74 1.57 2.1 2.49.07.2-.2.62 0 .62.51 0 1.88-4.1 4.5-3.42 1.38.36 3.51 1.78 4.5 2.8.08.08.82 1.07.9 1.24l.3.62c.04.1-.1.31 0 .31.14 0 .19-.23.3-.3.79-.55 1.54-1.15 2.4-1.56 1.22-.59 3.9-1.63 5.4-1.24 1.74.45 6.74 4.12 6.9 4.03.87-.44 1.2-2 1.8-2.8 1.5-1.93 2.85-2.16 5.4-2.16 2.42 0 5.07-.04 6.9 1.86.3.3 1.43 2.55 2.1 1.86.58-.6.34-1.67.6-2.48.73-2.29 2.7-2.8 4.5-3.73.66-.34 1.4.4 2.1.62 1.23.39 2.55.78 3.3 1.55.22.24.31 1.87.9 1.87.1 0-.04-.22 0-.31.16-.43.36-.86.6-1.24a9.9 9.9 0 0 1 1.2-1.56 24.3 24.3 0 0 1 2.1-1.55c1.58-.54 4.06.01 4.8 1.55.12.24.18 2.18.3 2.18.1 0 0-.21 0-.31.1-.52.14-1.06.3-1.56.14-.42.82-1.6 1.2-1.86 1.33-.92 4.06-.32 4.8 1.24.1.19-.19.62 0 .62.14 0-.33-2.89.3-3.1 1.78-.62 2.9-.62 4.8-.62.71 0 1.29.08 1.8.62.1.1.45.33.3.3-.71-.12-1.39-.4-2.1-.61m-69.9 24.53a6.32 6.54 0 0 1 1.5-4.66c.2-.21 2.28 0 2.7 0 .28 0 1.9-.2 2.1 0 .15.16.04 3.68 0 4.35-.1 1.46-.5 2.17-.3 2.17s-.9-2.49 0-3.41c.36-.37 1-.18 1.5-.31 4-1.04 3.16.16 6.3.62.92.13 2.32.23 3 .93.3.32-1.2 4.35-1.2 5.28 0 .1.02-.2 0-.31-.09-.52-.25-1.03-.3-1.55-.02-.23-.14-2.35 0-2.49.21-.22 6.41-1.24 7.2-1.24.26 0 1.27-.55 1.5-.31.58.6-.44 3.42 0 3.42.13 0 .68-5.36.9-5.6.12-.12 4.62 0 5.1 0 .2 0 .49-.17.6 0 .5.78 1.5 2.86 1.5 3.73v2.18c0 .3-.3.93 0 .93.5 0-1.02-5.37 0-5.9.58-.3 5.62-1.9 6.3-1.56.1.05 0 .21 0 .31 0 .83-.07 1.66 0 2.49.04.42.22.82.3 1.24.02.1-.1.31 0 .31s0-.2 0-.3c-.09-.84-.18-1.67-.3-2.5-.46-3.06-.87-3.35 2.4-4.03.97-.2 2.03.2 3 0 .13-.03 1.33-.66 1.5-.31.1.18-.06.42 0 .62a28.98 30 0 0 0 2.1 4.66c.06.08.24-.07.3 0 .07.07-.1.3 0 .3.45 0-.46-.8-.6-1.23-.1-.3 0-.62 0-.93l-.3-.94c-.08-.21-.19-.41-.3-.62 0-.41.1-.84 0-1.24-.03-.14-.4-.2-.3-.31.93-.96 3.52-.93 4.8-.93a5 5 0 0 0 1.8-.31c.2-.1-.3-.62.3-.31.96.5.8 2.07 1.5 2.8.2.2 1.06.92.6.92-.22 0-.6-.93-.6-.93-.98-2.03-.66-4.54.3-6.52.29-.6 1.42-.25 1.8-.31.56-.08 4.12-.53 4.5 0 .55.75 1.55 2.5 1.8 3.42.08.3-.07.63 0 .93.41 1.67 3.31 4.33-2.99-2.8"/><path stroke="#000" stroke-width=".98" d="M141.8 237.64c.6.2 1.2.37 1.8.62 1.46.6 2.63 1.77 4.2 2.17 2.1.54 4.09.48 6.3.93 1.04.22 1.67.62 2.7.62a25 25 0 0 1 6 .94c2.07.53 4.5-.37 6.6 0 2.26.39 9.47.77 11.7.3.97-.2 2-.75 3-.93.5-.08 1.02.13 1.5 0 1.4-.36 2.27-1.2 3.6-1.55 1.93-.5 3.77-.74 5.7-1.24.43-.11.77-.5 1.2-.62.4-.1.8.07 1.2 0 .97-.17 2.75-.8 3.6-1.24.27-.14.62.1.9 0a25.31 26.2 0 0 0 2.71-1.25c.24-.13.34-.49.59-.62.41-.21.76 0 1.2-.3.93-.64 1.97-.56 2.71-.94a16.23 16.8 0 0 0 2.4-1.55c.07-.07-.08-.24 0-.31.23-.24 1.86-1 2.4-1.56.05-.05.24-.87.3-.93.09-.1.44-.3.3-.3-1.6-.11-3.2 0-4.8 0m-4.81-40.69c2.29-.27 4.4.52 6.6.93a61 61 0 0 0 6.9.93c.4.04.83-.13 1.2 0 .43.15.78.5 1.2.62.49.15 1.03-.16 1.51 0 1.9.66 3.84 1.97 5.7 2.8 1.52.67 3.25 1.22 4.8 1.86a77.1 77.1 0 0 0 5.7 2.18c.51.16 1.9.05 2.4.3 1.68.88 3.51 1.82 5.1 2.8.37.23.52.74.9.93 2.12 1.1 4.23 1.33 5.1 4.04.26.8.5 1.63.3 2.49-.88 3.64-3.44 5.96-5.7 8.7-1.97 2.38-3.29 5.25-5.1 7.75-.66.91-2.7 2.99-2.7 4.04m-117.32-33.85c-3.69-.13-6.76 2.4-10.2 3.1-.29.07-.62-.1-.9 0-2.57 1.07-5.46 1.8-7.8 3.42-.58.4-.94 1.12-1.5 1.56-2.48 1.92-3.6 3.74-3.6 6.83 0 1.47-.07 2.33.6 3.73.68 1.4 1.78 1.9 3 2.79 2.75 2-.39-.24 2.4 2.17.77.66 1.87.98 2.71 1.56 1.56 1.08 3.35 2.22 4.8 3.41 3.78 3.14 6.33 7.35 9 11.5.3.97 1.25 1.4 1.8 2.17 2.23 3.24 3.3 5.91 3.3 9.93"/><path stroke="#000" stroke-width=".98" d="M256.71 195.4a49.78 51.53 0 0 1 3.9 6.52c.84 1.63 3.33 6.35 3 8.39-1.06 6.66-11.1 14.98-16.2 18.94-2.02 1.57-3.97 5.74-5.1 8.08-.58 1.2.48 2.65.74 3.97m13.66-56.77c2.18.8 7.52 5.74 7.8 8.39.2 1.95 0 3.96.3 5.9.1.55.5 1 .6 1.55.08.4-.08.84 0 1.24.32 1.68 1.2 3.23 1.2 4.97m-27.3-34.78c3.42.19 6.34 1 9.6 2.17 1.4.5 2.78 1.1 4.2 1.56 1.84.58 3.83.78 5.4 1.86 1.31.9 1.63 1.68 2.7 2.8 1.88 1.93 4.39 3.3 6.3 5.27.73.76 2.77 3.73 3.6 3.73"/><path stroke="#000" stroke-width=".98" d="M256.71 184.53c.4-1.14.1-3.03 1.2-3.41 1.39-.48 7.97 5.45 9.3 6.83.53.55.63 1.27 1.2 1.86.07.07.23-.07.3 0 .39.4.13 2.05.3 1.86.75-.77 1.4-1.65 2.1-2.48M99.2 178.94c3.02.54 5.74 2.08 8.7 2.8 1.78.43 6.13.3 7.8.3 2.06 0 5 .3 7.2 0 3.3-.42 6.39-1.45 9.6-2.17 1.4-.3 2.77-.1 4.2-.3a61.53 63.69 0 0 0 6.9-1.87c.93-.38-.23-.31.6-.31"/><path stroke="#000" stroke-width=".98" d="M99.2 178.94c1.89-.72 3.66-2.02 5.7-2.17 2.21-.17 4.38.9 6.6 1.24 3.9.6 14.89 1.77 18.9.62.86-.25 1.58-.86 2.4-1.24.57-.27 1.25-.29 1.8-.62.23-.15.33-.53.59-.62.39-.13.82.11 1.2 0 .36-.1.56-.5.9-.62.3-.1.6.05.9 0 1.3-.23 2.61-.71 3.9-.94.97-.16 1.79-.75 1.8-.62.2 1.13.2 2.28.3 3.42m95.12-5.59c-.3 1.03-.24 2.27-.9 3.1-.38.5-1.2.2-1.8.32-.9.18-1.8.47-2.71.62-.58.1-1.23-.2-1.8 0-.85.3-1.86.8-2.7 1.24-.6.3-1.49.3-2.1.62-.23.12-1.42-.01-1.5 0-2.15.37-4.97.7-7.2.31-1.56-.27-3.16-.74-4.8-.93-.71-.08-1.68.18-2.4 0-5.02-1.3-10.1-1.55-15.3-1.55m68.1-10.56a34.94 36.17 0 0 1-9.59 2.17c-1.67.14-3.73-.12-5.4.31-.76.2-1.69.93-2.4.93"/><path stroke="#000" stroke-width=".98" d="M264.2 164.97c-1.1 1.55-1.92 3.34-3.29 4.66-.27.25-.58-.46-.9-.63a5.55 5.74 0 0 0-2.7-.62c-1.72 0-4.02-.89-5.7-.3-2.18.75-.99.66-4.8.3"/><path stroke="#000" stroke-width=".98" d="M256.41 160c-1.84 1.6-3.73 3.4-6 4.35-.48.2-1.03.11-1.5.3-.61.26-1.17.72-1.8.94-.05.02-.9 0-.9 0 .1.95.4 1.86.6 2.8m-68.41-7.15c.8.72 1.69 1.36 2.4 2.17 1.9 2.14 2.8 5.38 4.8 7.46 1.02 1.05 2.61 1.4 3.6 2.17.52.4.92 1.25 1.5 1.55.44.23 1.08.1 1.5.31.6.31 1.64 1.4 2.1 1.87 1.44 1.48 2.53 3.81 3.6 5.59.43.7.63 1.58 1.2 2.17.51.53 1.24.78 1.8 1.24.8.67 4.89 4.61 5.1 5.28.21.65-.13 1.5 0 2.18.14.72.44 1.12.3 1.86-.17.88-1.87 4.46-2.4 5.28-1.45 2.24-13.43 3-16.2 3.42-3.96.58 1.4.02-1.5.62a14.4 14.4 0 0 0-3.9 1.24c-.32.17-1.05.81-1.5.93-.87.23-1.83.55-2.7.93-1.2.53-.5.6-1.5.93-.55.2-.58-.2-1.2.32-.65.53-2.16 1.95-3 2.17-1.37.35-2.82.88-4.2 1.24-1.09.28-6.34.25-7.8 0a8.27 8.56 0 0 1-5.1-2.8c-.78-.96-2.3-3.69-3.3-4.03-.6-.2-1.46-.46-2.1-.62-2.5-.65-5.08-.62-7.5-1.24-.8-.21-1.63-.77-2.4-.94-.2-.04-1.6-.09-1.8-.3-1.06-1.1-2.47-4.11-3.6-5.29-.08-.07-.23.08-.3 0-.36-.36.19-2.17.3-2.48.96-2.64 2.64-7.17 4.2-9.32.33-.47.9-.74 1.2-1.24.9-1.56 1.57-3.5 2.7-4.97 1.62-2.1 3.09-4.42 5.1-6.2 1.47-1.31 3.13-2.63 4.5-4.05 3.83-3.96-1.42.56 2.7-2.48.55-.4.97-1.1 1.5-1.55a56.43 58.41 0 0 1 4.8-3.73c.7-.48-.13-.18.6-.93 1.2-1.25 5.16-1.57 6.9-1.87 2.1-.36 3.64-.4 5.7.32 1 .34.82-.27 2.1.62.48.32 1.74 2.12 1.8 2.17.87.72 2.7 1.04 2.7 2.48m-81 4.66c1.66-.6 2.8-2.2 4.5-2.8 1.06-.36 1.86-.69 2.99-.92 1.04-.22 1.99-1.2 3-1.56 7-2.41 15.84-4.01 22.2.94.94.72 1.75 1.51 2.71 2.17.4.28.3.48.6.93.39.6 1.24.95 1.8 1.24 1.25.65 4.8-.62 6.3-.62.45 0 3.38-.02 2.99-.62-.14-.22-2.08-3.25-3-3.73-7.96-4.12-19.47-2.8-28.5-2.8-1.4 0-3.1.25-4.5 0-4.47-.76 1.47.13-2.1-.61a25.48 26.37 0 0 0-6 0c-.62.16-1.4.95-2.1 1.24-.44.18-1.1.3-1.5.62-.43.34-.74.93-1.2 1.24-.8.56-2.1 1.24-2.7 1.87-.14.14 0 .41 0 .62 0 2.33.5 3.9 2.7 4.66.52.17.7.62 1.2.62"/><path stroke="#000" stroke-width=".98" d="M181.1 163.72c1.26-.55 5.22 4.62 7.8 5.28 3.31.86 4.42-2.62 7.5-4.03a43.9 45.43 0 0 1 5.4-1.87c6.96-2.05 14.98-1.55 22.2-1.55 1.13 0 6.55-.34 7.2 0a18.36 19 0 0 1 2.7 2.17c.14.16-.15.5 0 .63.78.6 9.28 2.49 9.91 2.17.83-.43 1.49-1.4 2.4-1.86.71-.37 2.65-.83 3-1.56 1.24-2.57-4.76-4.66-6.3-4.34a22 22 0 0 1-9 0c-1.16-.24-2.1-.78-3.3-.94-1.65-.2-3.22-.2-4.8-.62-1.1-.28-2.52.38-3.6 0-1.64-.56-3.96-.45-5.7 0-1.42.37-3.08-.32-4.5 0a94.36 94.36 0 0 0-9.6 2.8c-1.5.51-1.23.16-3 .62-1.31.34-2.62.97-3.9 1.24-.3.06-.63-.11-.91 0-.26.11-.36.47-.6.62-2.03 1.27-4.75 1.69-6.9 2.8-.25.13-.33.7-.6.62-1.83-.6-3.6-1.45-5.4-2.18"/><path stroke="#000" stroke-width=".98" d="M207.5 170.56c3.5.5 6.96.62 10.5.62h4.8c1.52 0 3.04-.9 4.5-1.24.82-.2 2.1 0 2.7-.63.36-.36.1-1.04 0-1.55-.03-.23-.23-.4-.3-.62-.06-.2.15-.47 0-.62-.55-.58-1.93-.77-2.7-1.24-.67-.42-1.4-1.2-2.1-1.56-.56-.29-4.47 0-5.1 0-2.42 0-4.94-.15-7.2.63-1.13.39-2.16-.09-3.3.62-.4.25-2.03 2.09-2.1 2.17a5.28 5.46 0 0 0-.9 2.17m-89.7 1.56c2.81.52 5.14 1.86 8.1 1.86 1.25 0 2.66.13 3.9 0 1.58-.16 2.06-.93 3.6-.93.79 0 4.33-.45 4.8-.93.17-.18.17-.98.29-1.24.07-.16.59-.65.3-.94a19.9 20.6 0 0 0-2.4-1.24c-.39-.1-.82.16-1.2 0-.53-.22-.92-.78-1.5-.93-.53-.14-.98-.13-1.5-.31-.34-.12-.55-.5-.9-.62-2.39-.83-7.12-2.83-9.6-1.55-.18.09-.48-.18-.6 0-.18.27-.1.67-.3.93-.66.85-1 .22-1.2 1.24-.1.55-.05 1.35-.29 1.86-.6 1.24-1.5 1.28-1.5 2.8z"/><path stroke="#000" stroke-width=".98" d="M100.1 168.38c1.1.31 2.21.54 3.3.93 2.26.83 1.17.96 3.29 1.56 2.35.66 4.8.51 6.9 1.24.56.2 1.5 0 2.1 0 .07 0 .9.03.9 0 .1-.4 0-.83 0-1.24m113.12-1.56c3.1.05 6.22-1.21 9-2.17.75-.26 1.5-.64 1.5-.62-.2 1.77-.6 3.52-.9 5.28m-33-2.49c-3.2 2.1-5.65.33-8.7-.3-1.1-.23-2.2-.3-3.31-.63-3.54-1.04.44.23-1.2-.62-.3-.16-1.26.25-1.5 0-.4-.41.5-.3-.3-.3m-97.8 49.99c2.02 1.56 3.47 3.58 5.1 5.6.4.5 1 .67 1.5.92 1.25.65-.33-.02.29.62.43.45 1.03.26 1.5.62.18.14.14.46.3.63.35.36.85.56 1.2.93 1.36 1.4 3.83 5.33 4.8 7.14.15.29.13.65.3.93 1.17 1.93 2.6 2.67 3.9 4.35.14.18.14.46.3.62.45.47 1.08.75 1.5 1.24.4.45.49 1.13.9 1.56.02.02 2.85 2.08 3.3 2.48 2.2 2 4.29 4.02 6.6 5.9.78.63 4.2 3.06 4.2 4.35m113.86-14.04c-.74-.19-1.53-.84-2.24-.56-.86.35-1.21 1.45-1.8 2.18-1.11 1.34-2.24 2.66-3.3 4.03-1.89 2.44 2.11-1.95-.9 1.56-2.03 2.36-1.45 1.15-3 3.41-1.03 1.5-1.76 3.36-3 4.66-1.9 1.97-4.08 3.55-6.3 5.28-.8.6-1.33 1.54-2.1 2.17-1.55 1.3-3.24 2.44-4.8 3.73-.34.27-.53.74-.9.93-.18.1-.42-.1-.6 0-1.18.61-2.27.35-3.61.62-1.23.26-2.68.93-3.9.93"/><path stroke="#000" stroke-width=".98" d="M76.1 201.92c-.13 6.3.87 12.02 4.78 17.08.78 1 1.8 1.42 2.7 2.18 3.2 2.65-2.4-1.38 2.4 2.48 2.84 2.28-.65-1.61 2.71 1.86 1.8 1.88 3.58 4.15 5.7 5.9.7.59 1.67.78 2.4 1.25 3.08 1.99.24.58 2.4 1.86.66.4 1.45.53 2.1.93.97.6 1.88 1.4 3 1.87 2.02.83 5.09 1.85 6.6 3.41 1.58 1.63 2.77 3.5 4.2 5.28.63.79 1.45 1.4 2.1 2.18 2.99 3.6 6.03 7.22 9.6 10.24 1.76 1.5 4.38 1.18 6.3 2.18 1.9.98 3.8 2.84 5.7 4.03 1.18.74 7.03 5.6 7.2 5.6m-69.9-68.33c-.9-6.1-.6-2-.3-8.38.08-1.71-.24-3.58 0-5.28.15-1.1.9-2.04 1.2-3.1.3-1.12.45-2.27.6-3.42.39-3.16-.64-6.2-.3-9.32.14-1.26.16-2.47.29-3.73.1-.88.76-1.87.9-2.8.17-1.03.13-2.7 0-3.72-.12-1.02-.76-2.05-.6-3.1.5-3 2.33-5.37 3.3-8.08.17-.43.53-.79.61-1.24.39-2.04-.26-3.78.3-5.9 1.38-5.26.97-2.94 2.7-6.52 1.3-2.7 1.3-4.37 3.3-7.15 1-1.37 5.62-4.73 7.2-5.27 4.64-1.6-2.84 1.74 3.9-1.25a93.93 97.22 0 0 0 9.3-4.66c1.24-.73 3.07-1.54 4.2-2.48.34-.27.55-.69.9-.93.27-.18.6-.2.9-.31.5-.31 1.02-.59 1.5-.93.53-.38.98-.86 1.5-1.25 1.16-.85 3.28-1.52 4.2-2.48.16-.16.15-.46.3-.62.3-.3 1.98-.82 2.4-.93.73-.2 3.69-.36 4.2.3.65.84 1.06 2.04 1.8 2.8.73.76 2.41 1.88 3 3.1.11.23.2 1.44.3 1.87.78 3.16-1.2 4.02-1.2 5.6 0 .91 1.14 3.28.9 4.03-.22.68-1.69.3-1.8.3-1 .14-2.02.72-2.99.94-3.03.7-5.99.72-9 1.24-.32.06-.6.23-.91.31-.2.05-.6-.2-.6 0 0 .1.21-.03.3 0 .41.18.8.44 1.2.62.97.43 2.23 1.25 3.3 1.25 1.2 0 2.42-.1 3.6-.31.73-.14 7.43-2.62 7.8-3.1 1.75-2.27.61-5.02 1.21-7.46.5-2.07 1.86-3.76 2.1-5.9.1-.83-.36-1.75 0-2.49.6-1.26 4.34-5.78 6-6.52.96-.42 2.56-.66 3.6-.93.92-.24 1.77-.71 2.7-.93 2.4-.57 5.06-.93 7.5-.93m67.5 2.79c3.1.92 5.6 3.06 8.7 4.04 1.14.35 8.02 1.1 8.7 1.55.67.43 1.18 1.07 1.81 1.55 2.48 1.93 5.41 3.94 8.4 4.97.58.2 1.21.14 1.8.31 5.5 1.63 8.3 1.14 9.3 8.39.15 1.11-.18 2.3 0 3.41.37 2.26.59 4.59.9 6.84.18 1.29 0 2.77.3 4.03.03.15.26.18.3.31.13.4-.1.84 0 1.25.54 2.2 1.05 3.8 1.2 6.2.08 1.27.19 3.1 0 4.36-.14.95-1.72 5.45-1.2 6.52.16.33.46.59.6.93.16.4.12.86.3 1.24 1.06 2.19 2.83 4.35 3.3 6.83.65 3.36.3 7.15.3 10.56 0 2.93.3 5.74.3 8.7 0 .98.3 1.31.3 2.17 0 .56.3.75.3 1.24 0 .1-.03.41 0 .31.23-.71.4-1.45.6-2.17"/><path stroke="#000" stroke-width=".98" d="M271.41 201.92c1.75-.05 11.96.81 13.2-.62a17.87 18.5 0 0 0 3-4.66c.19-.37.11-.84.3-1.24.29-.59.22-2.3.6-3.1.17-.35.66-.63.9-.94.92-1.19 2.24-3.64 2.1-5.28-.33-4.06-3.6-6.8-3.9-9.93a39.4 39.4 0 0 1 0-7.77c.14-1.18.73-3.28 0-4.03-.28-.3-1.5 2.58-2.7 2.17-1.61-.56-5.39-2.7-6.9-2.17-4.03 1.39-1.06 14.58-2.1 18.32-.66 2.4-2.32 3.5-4.2 4.97-.65.5-.7.85-1.2 1.55-.08.12-.44.31-.3.31.32 0 .6-.2.9-.31"/><path stroke="#000" stroke-width=".98" d="M277.11 182.05c-.99.87.34 6.48 0 6.83-.52.54-1.48.5-2.1.93-2.17 1.5-1.37 1.62-3.9-.62"/><path stroke="#000" stroke-width=".98" d="M271.12 189.19c-1.28 3.8-1.03 7.16-.3 10.87.1.51-.08 1.86.6 1.86m12-35.72c.82-2.08 2.94-3.3 3.9-5.27.63-1.33.29-5.06.29-6.83 0-.28-.06-1.93-.3-2.18-.37-.38-4.15 1.77-3.6.62.78-1.6 2.05-3.17 3-4.65.81-1.26 2.38-1.82 3-3.1.19-.38 0-.84 0-1.25 0-1.59.1-1.18-.9-2.49-.24-.31-.22-.73-.6-.93-.18-.09-.46.15-.6 0-.24-.25-.19-.4-.6-.62-.25-.13-.34-.49-.6-.62-.17-.1-.7 0-.9 0-.1 0-.29-.1-.29 0 0 .05 1.93-.58 2.1-.62.42-.11 1.06-.31 1.5-.31.28 0 .9.3.9 0 0-.96-2.82-2.7-3.61-3.1-.17-.1-.45.14-.6 0-.22-.24-.2-.63-.29-.94-.27-.83 2.29-3.52 2.7-4.35.64-1.35-3.48-3.62-3.9-4.65-.88-2.1.36-4.55-.9-6.53-.3-.45-.84-.55-1.2-.93-.55-.56-1-1.33-1.51-1.86-.07-.07-.21.06-.3 0-.87-.6-1.4-1.75-2.1-2.49-.5-.53-1.25-.98-1.8-1.55-.2-.22-1.75-1.29-2.1-.93-.2.21.46 3 .6 3.42.36 1.11 1.11 1.21-.9.62l-.9-.31c-.38-.14-.9-.01-1.2-.31-.77-.8 1.05-4.82.3-5.6-.5-.51-1.9-1.28-2.7-.93-.57.26-2.31 2.86-2.4 2.8-1.16-.72-2.2-1.72-3.3-2.49-.95-.65-2.15-.66-3-1.55-.16-.16-.11-.5-.3-.62-.2-.14-.93-.14-1.2-.31-1.9-1.18-3.32-3.42-5.7-3.42m-171.32 1.25c-2.67.57-5.87.24-8.4 1.55-1.16.6 3.07 2.35 3.6 2.48.09.03 1.32-.13.9.31-1.26 1.3-4.51.33-5.7 1.56-.4.4.4 5.16 0 5.59-.68.7-2.65.37-3.6.62-.7.18-1.52.63-2.1.93-.19.1-.47-.15-.6 0-.6.63-.73.84-1.5 1.24-.6.31-1.99.5-2.4.93-.49.5.5 1.3.9 1.87.36.54.83 1.01 1.2 1.55.67.97 1.16 2.84 1.5 3.73.56 1.5 1.03 2.14.9 2.17-1.32.34-3.05-.9-4.2-.31-.41.21 1.81 4.64 1.8 4.66-.4.4-1.93.45-2.4.62-.5.17-1.38.09-1.8.31-2.07 1.07.04 3.4.6 4.66.56 1.28 1.25 2.3 1.8 3.41.98 2.05-1.87 2.9.9 5.28.83.73 1.8 1.27 1.8 1.25 0-.47-.83.36-1.2.62-1.67 1.14-3.92 3.24-2.4 5.59.2.32 2.06 1.4 2.4 1.55.19.08.42-.1.6 0 .22.12.86 1.75 2.1 1.24.54-.22 1.5-1.84 1.5-1.24 0 1.74-2.7 3.51-2.7 5.9 0 .63.44.38.6.62.47.74.69 1.63.9 2.49.73 1.07.08 2.3.29 3.41.08.37.8.83.9.93.36.37-.11 1.05 0 1.56.11.45.41.82.6 1.24.1.52.23 1.03.3 1.55.25 1.48-.85 1.76-1.5 3.1-.51 1.08-.82 2.6-1.2 3.73-.23.75.21 1.73 0 2.49.05.87-.65 1.42-.89 2.17-.4 1.25 1.15 2.9.9 3.42-.15.3-3.14.98-3.3 1.24-1.31 2.03.71 3.57 1.8 4.97.09.11.75 1.4.9 1.55.39.4 1.67.8 2.1 1.24 1.14 1.19 1.83 3.15 3 4.35.59.61 1.61.81 2.1 1.55 2.6 4.06 1.61 7.22 3-.93m-42.01 58.7c.6-.68 1.43-.14 2.1-.31.76-.2 1.37-.75 2.1-.93 1.28-.34 2.78-.66 3.9-1.25.27-.14.61.05.9 0 1.66-.24 3.84-.7 5.41-1.24 3.95-1.36 8.42-1.93 12.6-2.8 3.63-.75 7.47-2.25 11.1-2.79.7-.1 1.4.1 2.1 0 1.06-.16 1.98-.89 3-1.24.8-.27 1.87-.41 2.7-.62 1.6-.42 3.15-1.34 4.8-1.56 2.1-.27 4.59.11 6.6-.3.83-.18 3.31-1.88 3.9-2.49.07-.07-.07-.24 0-.31.5-.52 1.8-.78 2.4-1.24.18-.14.11-.5.3-.62.17-.12.41.06.6 0 .39-.14.81-.8 1.2-.94 1.67-.57 5.4.24 6.9.94 1.88.86-.08.44 1.8.93.33.09.9-.16 1.2 0 .44.22.65.48 1.2.62.96.25 2.32 0 3.3 0"/><path stroke="#000" stroke-width=".98" d="M76.1 201.92c-.41 2.38-1 4.74-1.22 7.15-.34 3.76.17 6.94.6 10.55.1.72-.06 1.46 0 2.18a54.4 56.3 0 0 0 1.21 7.76c.48 2 2.13 3.47 3 5.28.96 2 1.45 4.24 2.4 6.21a48.84 50.55 0 0 1 3.9 10.56c.23.95-.13 2.14 0 3.1.14 1.05.29 2.13.6 3.11.49 1.52-1.28 6.47-1.8 8.08-.12.37.12.87 0 1.24-.3.88-.9 1.58-.9 2.48m18.6-1.55c-1.71-4.19-1.47-5.54 2.1-7.76.87-.54 1.37-.68 1.8-1.56.18-.37.72-.55.9-.93.58-1.18.6-5.54.6-6.83 0-.34.33-3.39 0-3.73-.78-.8-2.86 4.13-3 4.35-.22.37-.66.57-.9.93-.63.99-.98 2.35-1.5 3.42-.39.82-1.1 1.64-1.5 2.48a14.2 14.69 0 0 0-.9 8.7c.21.88.3 2.47.9 3.1m123.92-9.94c.48.08 2.94.4 3.6.63 1.53.53 3.04 1.48 4.5 2.17.92.44 2.14.65 3 1.24.93.65 3.9 3.53 4.5 4.35.3.42.54 1.19.9 1.55.06.08.19 0 .3 0"/><path stroke="#000" stroke-width=".98" d="M224.9 260.3c2-1.03 3.89-2.34 6-3.1.79-.28 10.05 2.48 11.4 3.42.2.13.13.48.3.62.55.42 1.25.55 1.81.93.53.37.93.95 1.5 1.24.17.1.4-.06.6 0 .44.16.8.97 1.2 1.24.97.68 2.24 1.39 3 2.18.16.16.15.46.3.62.43.44 1.84.74 2.4.93.31.11.85.9.9.93.18.1.41-.06.6 0 .61.22.78 1.25 1.5 1.25m-13.36-29.26c2.32 1.24 5.24 1.21 7.36 2.86a8.56 8.86 0 0 1 1.8 2.48c.1.19-.1.45 0 .62.7 1.1 2.13 1.95 2.7 3.1.56 1.17 1.29 2.45 1.5 3.74.08.5-.15 1.06 0 1.55.39 1.2.29.03.29 1.24 0 .88-.15 10.4 0 10.56.06.05 3.8.84 3.91.62.19-.38.16-.84.3-1.24.6-1.66 1.26-3.3 1.8-4.97.65-2-.3-9.63-1.5-11.5-.77-1.2-1.64-1.56-2.7-2.48-.42-.36-.63-.94-1.2-1.24-.1-.04-.2 0-.3 0-.2-.1-.42-.18-.6-.3-.69-.48.13-.19-.6-.94-.66-.67-4.1-2.28-5.1-2.8-.46-.23-1.27.12-1.8 0-1.96-.4-3.9-.86-5.86-1.3m19.96 10c1.8.45 3.28 1.08 5.1 1.55 1.34.35-.25.4 1.5.62 2.28.3 4.68.05 6.9.63.35.09.88-.17 1.2 0 .58.3.83.17 1.5.3.94.2 2.46.5 3.3.94.13.06.16.28.3.3 1.14.24 1.56.12 2.7.32.44.08.77.47 1.2.62.53.18 1.02-.02 1.5.31.24.16.35.5.6.62.65.34 1.98.34 2.71.62 1.1.43 1.88 1.02 3 1.25.86.17 1.27.71 2.1.93 1.1.28 2.3.1 3.3.62 1.06.55 2.97-.21 4.2 0 1.2.2 1.04.23 1.8.62.64.33 1.94.05 2.7.31 1.02.35 2.9.93 3.9.93.4 0 1.15.74 1.2.31.19-1.7.18-3.41.26-5.12M60.2 133.29c-2.98-2.67-5.08-4.4-9-3.73-.61-.1-.97.52-1.5.62-.69.15-1.41-.08-2.1 0-.94.11-1.5.47-2.4.32-1.36-.24-2.57-.66-3.9-.94-.92-.18-1.78-.07-2.71-.3-1.29-.34-2.94.43-4.2 0-1.03-.36-.22-.32-.9-.32m-.6-12.42a26.6 26.6 0 0 1 4.8 3.1c.81.62 1.67 1.17 2.4 1.87.4.38 1.59 2.37 2.4 2.8.76.39 1.9.22 2.7.3 4.06.42 6.23.65 9.9-.62.2-.06.42.1.6 0 .93-.47 2.65-2.91 3-3.1a80.4 80.4 0 0 0 2.1-1.24c.08-.08-.09-.27 0-.31.45-.24 1.2.38 1.2-.32"/><path stroke="#000" stroke-width=".98" d="M33.49 128.94c.76.56 7.4.8 7.5.62.4-.86.3-1.87.3-2.8 0-.15-.3-1.5-.3-.92 0 .6 7.79-.46 7.79-.93 0-.76-2.1-1.78-2.1-2.49m170.73-11.18c2.35 1.66 3.78 4.44 5.99 6.21 1.38 1.1 4.54 3.12 6.3 3.73 1.03.35 2.62.65 3.61 1.24 1.24.73 2.38 2.04 3.6 2.8.27.16.6.2.9.3.4.21.82.37 1.2.63a51.62 53.43 0 0 1 4.8 3.72c1.07.95 1.93 2.16 3 3.11 1.57 1.4 3.48 2.39 5.1 3.73 2.48 2.05 4.42 4.78 6.9 6.83.29.23.64.36.9.62.36.75.14.46.6.93m-15-26.71c-1.66-.34 1.5 2.56 1.5 1.87 0-.1-.2.02-.3 0-.4-.1-.83-.12-1.2-.31-.47-.25-.34-.31-.9-.31m-114.01 11.8c-3.25 2.27-6.76 3.96-10.2 5.9-.94.53-1.97 1.5-3 1.86-.4.14-.83.14-1.2.31-.74.33-1.33.98-2.1 1.24-1.11.39-2.55.28-3.6.94-.25.15-.34.5-.6.62-.24.1-5.42.82-5.42 1.24 0 .23 4.4 2.29 4.82 2.48 2.92 1.42 5.99 2.25 8.99 3.42 1.73.67 3.33 1.71 5.1 2.17 2.9.75 6.1.96 9 1.56 1.26.25 2.75 2.17 3.9 2.17m-36-6.84c-2.32.93-3.84 3.14-6 4.36-.37.2-.81.17-1.2.3-1.22.43.02.18-1.2.94-.61.38-1.45.55-2.1.93-1.26.74-2.35 1.83-3.6 2.48-.32.17-2.1.81-2.1 1.25 0 .46 6.85-.9 7.2-.94 2.52-.23 5.02-.1 7.5-.62 1.14-.23 2.45.12 3.6 0 1.26-.13 2.37-.44 3.6-.62 1.57-.23 3.57 0 5.1 0 3.03 0 6.67.19 9.6.62.9.13 1.8-.07 2.71 0 2.29.19 4.64.5 6.9.93 1.57.3 3.25.22 4.8.63 1.15.3 2.1.45 2.1.3 0-.3-.64.15-.9 0a6.8 7.04 0 0 1-1.8-1.24c-2.88-2.97 3.9 2.43-2.4-2.8-1.16-.96-3.64-1.47-5.1-1.85-.85-.22-1.89.28-2.71 0-.77-.27-1.55-.53-2.4-.63-.72-.08-1.93.2-2.7 0-1.9-.49-4.12-.59-6-1.24-.14-.04-.16-.28-.3-.3-1.77-.42-3.62-.48-5.4-.94-2.96-.77-5.86-1.55-9-1.55m114.32.93c-3.54.38-6.81 1.82-10.2 2.8-2.98.85-6.43 1.05-8.7 3.41-.46.47-1.03.85-1.2 1.24-.1.2-.6.08-.6.31 0 .6 9.12-.75 9.9-.93a37.39 38.7 0 0 1 4.5-.62c1.25-.12 2.64.22 3.9 0a36.2 36.2 0 0 1 9.6-.31c1.6.19 3.21.7 4.8.93 1.54.23 3.26-.32 4.8 0 2.8.58 5.61 1.07 8.4 1.55 2.73.48 8.6 0 11.7 0 2.22 0 4.44-.06 6.6.31.43.08 1.03 0 1.5 0 .1 0 .3.1.3 0s-.2.04-.3 0c-.51-.17-1.04-.33-1.5-.62-1.11-.68-1.93-1.74-3-2.48a42.46 43.95 0 0 0-8.4-4.35c-1.02-.42-1.91-1.41-3-1.86-1.35-.56-2.8-.45-4.2-.93-.86-.3-1.8-.83-2.71-.94-1.71-.2-6.17-.33-7.8 0-.43.1-.75.53-1.2.63-.1.02-1.24-.13-1.5 0-.82.43-1.98.62-2.99.62h5.4c1.17 0 2.44-.15 3.6 0 1.75.22 1.13.28 2.1.62.57.2 1.21-.11 1.8 0 .12.02 3.3.62 3.6.93.07.07-.07.24 0 .31.35.37 1.2.41 1.2.93 0 .1-.2 0-.3 0h-3.3c-3.32 0-6.64.11-9.9-.3-1.24-.17-2.7.3-3.9 0-.9-.24-1.8-.4-2.71-.63-1.32-.34-2.86.3-4.2 0-.7-.16-1.4-.41-2.1-.62zm58.8 52.48c.4 0 1.02-.37 1.2 0 .46.95-1.27 4.32-1.5 4.97-1.42 4.13-1.46 5.46-3.9 8.7-.58.77-1.93 2.92-2.7 3.72-.78.8-1.95 1.4-2.7 2.18-.27.28-.57 1.2-.9 1.55-1.06 1.1-2.03 1.78-3 2.8-1.36 1.4-2.36 3.07-3.9 4.34-2.03 1.68-7.54 2.83-8.7 4.04m11.7 12.42c1.95-4.03.39-3.1 4.5-3.1.51 0 6.67.08 6.9.3.07.08-.05.23 0 .32.2.41 4.09 4.1 4.8 4.35.48.16 1 .23 1.5.3.89.14 1.82-.1 2.7 0 2.23.3 4.35.78 6.6.94 2 .14 4.01-.17 6 0 4.01.34 7.67 1.14 11.4 2.8 1.85.81 3.54 2.02 5.41 2.79 1.55.64 3 1.09 4.5 1.86 1.14.6 2.22.87 3.3 1.24.29.1.62.17.9.31.1.05-.08.24 0 .31.07.08.38.06.29 0-.58-.4-1.22-.72-1.84-1.08"/><path stroke="#000" stroke-width=".98" d="M276.52 249.13c2.24-2.75 1.09-7.34 3.29-9.63.77-.8.8 5.9.9 6.21.03.1 1.93.98 2.1.62.1-.18-.04-.42 0-.62.22-.88.75-1.55.9-2.48.39-2.4-.35-5.22-.9-7.46-.24-.97-.36-.27-.6-1.24-.19-.76-.35-1.42-.6-2.17-.17-.52.35-2.12 0-2.49-.2-.2-1.13-.62-.6-.62 3.31 0 7.52-1.3 10.8-.62 1.13.23 2.17.1 3.3.31 6.6 1.24-1.05.16 2.7.93.5.1 1.02-.1 1.5 0 3.92.81 7.42-.42 10.8-2.17 1.26-.65-.31.02.3-.62.07-.08.24.07.3 0 .12-.13.2-.77.3-.93 2.04-3.16 1.54-3.64 1.2-7.46-.06-.76.01-5.88-.29-6.52-.04-.1-.26.1-.3 0-.31-.65-.03-3.2-.3-4.04-.43-1.32-2.33-3.47-2.1-4.65.12-.68 1.06-3.04 1.8-3.42.18-.1.76.14.9 0 .06-.07-.07-.24 0-.31.03-.03.9-.16 1.2-.31.46-.24.43.17.9-.31m-25.2-68.33c.4 0 .8-.08 1.2 0 1.62.34 3.23 1.15 4.8 1.56.48.12 1.35-.23 1.8 0 .74.38-.1.3.59.3M61.09 167.14c1.65 1.15.72 2.56 1.2 4.04.15.5.67.77.9 1.24.1.19-.1.44 0 .62.44.92.73 1.82 1.2 2.8.31.64-1 4.81-1.2 5.59-.4 1.44-.78 2.27-.3 3.72.1.3-.23 1.14 0 .93 1.25-1.18 2.4-2.48 3.6-3.72m-31.2-25.16c7 .16 13.97 1.25 21 1.25"/><path stroke="#000" stroke-width=".98" d="M54.79 150.06c1.2 3.77 1.04 3.63 3.3 8.07.23.46 1.38 1.16.9 1.25-.94.16-1.8-.62-2.71-.93m209.43 83.53c-.38-6.5 2.1-5.27 6.3-8.38a23.38 24.2 0 0 0 2.7-2.49c.06-.08-.07-.23 0-.3.67-.7 4.6-1.61 5.7-2.18m-1.5-18.01c-2.36.42-4.37 2.35-6 4.04m12.9-7.15c3.1.8 5.8 2.8 9 2.8m2.7-35.71c4.83 3.6 6.3 4.68 6.3 11.17 0 1.4.29.95-.3 1.56m-58.2 46.89c1.8 0 3.75-.73 5.4 0 .42.19 1.37 5.22 3.6 6.21 1.67.74 2.25.88 4.2 1.55.3.1.6.24.9.31.1.03.35-.08.3 0-.83 1.5-1.8 2.9-2.7 4.35m-50.4 23.6c1.1-1.96 1.82-4.21 3.3-5.9 2.39-2.73 6.46-4.48 9.3-6.83 2.16-1.79 3.25-4.67 5.4-6.52.92-.8 3.9-2.4 3.9-3.42m-88.22 5.28c6.4 4.51 13.8 7.3 20.7 10.87m-24-143.47c1.49-.44 3.5-1.56 5.1-1.56"/><path stroke="#000" stroke-width=".98" d="M137 120.25c-.1.83-1 2.06-.3 2.48 1.12.68 2.6-.1 3.9-.3.72-.12 1.38-.47 2.1-.63.19-.05.63.2.6 0-.22-1.1-.8-2.07-1.2-3.1m70.2 2.17c-3.6.25 3.22-.31-2.1-.31m-30.6-1.86-.6 1.86m119.72 73.6c1.93.02-1.92.5-1.51.93.15.15.4 0 .6 0 .3.2.68.33.9.62 1.91 2.37-.24 3.83.3 4.97.43.88.9 2.03.9 3.1 0 1.79-1.15 3.47-.9 5.29.28 1.97 1.08 3.88 1.2 5.9.06 1.03-.06 2.07 0 3.1.19 2.8 2.34 7.2 0 9.63m-27.3-13.04c.5 1.55.21 3.7 1.5 4.65 1.56 1.15 3.8.37 5.7.63 1.2.16 2.4.42 3.6.62.2.03.66-.2.6 0-.6 2.1-1.2 4.22-2.1 6.2-4.42 9.7-2.93 5.1-1.8 1.87M260 230.8a7.73 8 0 0 1 4.2-.93m-4.2.93c-2.07-1.54-3.16 4.04-5.4 4.04"/><path fill="#000" d="M147.36 316.2v-25.25h1.92v25.25zm9.99 0h-1.82v-9.34q0-2.96-.12-3.82-.12-.88-.38-1.36-.26-.48-.63-.48-.47 0-.85.69-.38.68-.52 1.82-.13 1.14-.13 4.2v8.29h-1.83v-18.3h1.7v2.7q.9-3.1 2.26-3.1.6 0 1.1.58.5.57.76 1.46.26.9.36 2.04.1 1.13.1 3.25zm8.12 0h-1.83v-9.34q0-2.96-.11-3.82-.12-.88-.39-1.36-.25-.48-.62-.48-.48 0-.85.69-.38.68-.52 1.82-.14 1.14-.14 4.2v8.29h-1.82v-18.3h1.7v2.7q.9-3.1 2.26-3.1.6 0 1.1.58.5.57.76 1.46.25.9.35 2.04.1 1.13.1 3.25zm1.43-9.4q0-2.42.45-4.67.44-2.26 1.26-3.45.82-1.19 1.83-1.19 1.57 0 2.57 2.7 1 2.7 1 6.81 0 4.15-1.02 6.89-1 2.72-2.53 2.72-.95 0-1.81-1.14-.86-1.13-1.3-3.32-.45-2.2-.45-5.36zm1.87.25q0 2.72.48 4.17.49 1.45 1.2 1.45t1.2-1.45q.48-1.45.48-4.2 0-2.69-.49-4.14-.48-1.44-1.19-1.44t-1.2 1.44q-.48 1.45-.48 4.17zm12.67-3.73-1.8.86q-.09-1.43-.41-2.16-.32-.72-.83-.72-.68 0-1.09 1.26-.4 1.24-.4 4.16 0 3.26.4 4.6.42 1.35 1.12 1.35.51 0 .84-.78.34-.8.47-2.7l1.8.8q-.29 3.28-1.08 4.95-.79 1.67-2.12 1.67-1.5 0-2.41-2.53-.9-2.53-.9-7.01 0-4.53.9-7.04.9-2.54 2.44-2.54 1.26 0 2 1.45.75 1.43 1.07 4.38zm5.37 7.06 1.82.8q-.35 2.66-1.1 4.05-.76 1.38-1.9 1.38-1.8 0-2.65-3.12-.68-2.5-.68-6.3 0-4.55.9-7.11.89-2.59 2.25-2.59 1.54 0 2.43 2.7.89 2.7.85 8.26h-4.57q.02 2.15.44 3.35.43 1.2 1.05 1.2.43 0 .72-.63.3-.62.44-2zm.1-4.9q-.01-2.1-.4-3.18-.39-1.1-.95-1.1-.6 0-.98 1.15-.4 1.15-.38 3.13zm9.57 10.72h-1.82v-9.34q0-2.96-.12-3.82-.11-.88-.38-1.36-.26-.48-.63-.48-.47 0-.85.69-.37.68-.52 1.82-.13 1.14-.13 4.2v8.29h-1.82v-18.3h1.69v2.7q.9-3.1 2.27-3.1.6 0 1.1.58.5.57.75 1.46.26.9.36 2.04.1 1.13.1 3.25zm5.02-18.3v3.87h-1.25v7.37q0 2.23.03 2.61.04.36.16.6.13.25.31.25.26 0 .74-.47l.15 3.76q-.63.72-1.44.72-.5 0-.89-.43-.4-.45-.58-1.14-.18-.7-.25-1.9-.06-.84-.06-3.4v-7.97h-.84v-3.86h.84v-3.64l1.83-2.82v6.46z" aria-label="Innocent"/></svg>