<svg xmlns="http://www.w3.org/2000/svg" viewBox="0 0 348 348" fill="none"><path d="M5.079 5.776h336.913v337.67H5.08z" stroke-width="2" stroke="#000"/><path d="M282.734 40.554c0-8.376 6.966-15.165 15.56-15.165 4.126 0 8.084 1.597 11.001 4.441 2.918 2.844 4.558 6.702 4.558 10.724 0 8.376-6.966 15.165-15.56 15.165-8.593 0-15.559-6.79-15.559-15.165z" stroke-width="2" stroke="#000"/><rect width="17.295" height="17.295" x="24.571" y="301.389" ry="1.405" stroke="#000" stroke-width="2.513" stroke-linecap="round" stroke-miterlimit="4.3" paint-order="fill markers stroke"/><rect width="17.295" height="17.295" x="55.951" y="301.389" ry="1.405" stroke="#000" stroke-width="2.513" stroke-linecap="round" stroke-miterlimit="4.3" paint-order="fill markers stroke"/><rect width="17.295" height="17.295" x="118.711" y="301.389" ry="1.405" stroke="#000" stroke-width="2.513" stroke-linecap="round" stroke-miterlimit="4.3" paint-order="fill markers stroke"/><rect width="17.295" height="17.295" x="87.331" y="301.389" ry="1.405" stroke="#000" stroke-width="2.513" stroke-linecap="round" stroke-miterlimit="4.3" paint-order="fill markers stroke"/><rect width="17.295" height="17.295" x="150.091" y="301.389" ry="1.405" stroke="#000" stroke-width="2.513" stroke-linecap="round" stroke-miterlimit="4.3" paint-order="fill markers stroke"/><rect width="17.295" height="17.295" x="181.471" y="301.389" ry="1.405" stroke="#000" stroke-width="2.513" stroke-linecap="round" stroke-miterlimit="4.3" paint-order="fill markers stroke"/><rect width="17.295" height="17.295" x="244.232" y="301.389" ry="1.405" stroke="#000" stroke-width="2.513" stroke-linecap="round" stroke-miterlimit="4.3" paint-order="fill markers stroke"/><rect width="17.295" height="17.295" x="212.852" y="301.389" ry="1.405" stroke="#000" stroke-width="2.513" stroke-linecap="round" stroke-miterlimit="4.3" paint-order="fill markers stroke"/><rect width="17.295" height="17.295" x="275.612" y="301.389" ry="1.405" stroke="#000" stroke-width="2.513" stroke-linecap="round" stroke-miterlimit="4.3" paint-order="fill markers stroke"/><rect width="17.295" height="17.295" x="306.992" y="301.389" ry="1.405" stroke="#000" stroke-width="2.513" stroke-linecap="round" stroke-miterlimit="4.3" paint-order="fill markers stroke"/><rect width="17.295" height="17.295" x="24.571" y="275.077" ry="1.405" stroke="#000" stroke-width="2.513" stroke-linecap="round" stroke-miterlimit="4.3" paint-order="fill markers stroke"/><rect width="17.295" height="17.295" x="24.571" y="248.765" ry="1.405" stroke="#000" stroke-width="2.513" stroke-linecap="round" stroke-miterlimit="4.3" paint-order="fill markers stroke"/><rect width="17.295" height="17.295" x="87.331" y="275.077" ry="1.405" stroke="#000" stroke-width="2.513" stroke-linecap="round" stroke-miterlimit="4.3" paint-order="fill markers stroke"/><rect width="17.295" height="17.295" x="87.331" y="248.765" ry="1.405" stroke="#000" stroke-width="2.513" stroke-linecap="round" stroke-miterlimit="4.3" paint-order="fill markers stroke"/><rect width="17.295" height="17.295" x="87.331" y="222.453" ry="1.405" stroke="#000" stroke-width="2.513" stroke-linecap="round" stroke-miterlimit="4.3" paint-order="fill markers stroke"/><rect width="17.295" height="17.295" x="150.092" y="275.077" ry="1.405" stroke="#000" stroke-width="2.513" stroke-linecap="round" stroke-miterlimit="4.3" paint-order="fill markers stroke"/><rect width="17.295" height="17.295" x="150.092" y="248.765" ry="1.405" stroke="#000" stroke-width="2.513" stroke-linecap="round" stroke-miterlimit="4.3" paint-order="fill markers stroke"/><rect width="17.295" height="17.295" x="150.092" y="222.453" ry="1.405" stroke="#000" stroke-width="2.513" stroke-linecap="round" stroke-miterlimit="4.3" paint-order="fill markers stroke"/><rect width="17.295" height="17.295" x="150.092" y="196.141" ry="1.405" stroke="#000" stroke-width="2.513" stroke-linecap="round" stroke-miterlimit="4.3" paint-order="fill markers stroke"/><rect width="17.295" height="17.295" x="150.092" y="169.829" ry="1.405" stroke="#000" stroke-width="2.513" stroke-linecap="round" stroke-miterlimit="4.3" paint-order="fill markers stroke"/><rect width="17.295" height="17.295" x="150.092" y="143.517" ry="1.405" stroke="#000" stroke-width="2.513" stroke-linecap="round" stroke-miterlimit="4.3" paint-order="fill markers stroke"/><rect width="17.295" height="17.295" x="150.092" y="117.205" ry="1.405" stroke="#000" stroke-width="2.513" stroke-linecap="round" stroke-miterlimit="4.3" paint-order="fill markers stroke"/><rect width="17.295" height="17.295" x="275.612" y="275.077" ry="1.405" stroke="#000" stroke-width="2.513" stroke-linecap="round" stroke-miterlimit="4.3" paint-order="fill markers stroke"/><rect width="17.295" height="17.295" x="275.612" y="248.765" ry="1.405" stroke="#000" stroke-width="2.513" stroke-linecap="round" stroke-miterlimit="4.3" paint-order="fill markers stroke"/><rect width="17.295" height="17.295" x="275.612" y="222.453" ry="1.405" stroke="#000" stroke-width="2.513" stroke-linecap="round" stroke-miterlimit="4.3" paint-order="fill markers stroke"/><rect width="17.295" height="17.295" x="275.612" y="196.141" ry="1.405" stroke="#000" stroke-width="2.513" stroke-linecap="round" stroke-miterlimit="4.3" paint-order="fill markers stroke"/><rect width="17.295" height="17.295" x="275.612" y="169.829" ry="1.405" stroke="#000" stroke-width="2.513" stroke-linecap="round" stroke-miterlimit="4.3" paint-order="fill markers stroke"/><rect width="17.295" height="17.295" x="275.612" y="143.517" ry="1.405" stroke="#000" stroke-width="2.513" stroke-linecap="round" stroke-miterlimit="4.3" paint-order="fill markers stroke"/><rect width="17.295" height="17.295" x="275.612" y="117.205" ry="1.405" stroke="#000" stroke-width="2.513" stroke-linecap="round" stroke-miterlimit="4.3" paint-order="fill markers stroke"/><rect width="17.295" height="17.295" x="275.612" y="90.893" ry="1.405" stroke="#000" stroke-width="2.513" stroke-linecap="round" stroke-miterlimit="4.3" paint-order="fill markers stroke"/><rect width="17.295" height="17.295" x="306.992" y="275.077" ry="1.405" stroke="#000" stroke-width="2.513" stroke-linecap="round" stroke-miterlimit="4.3" paint-order="fill markers stroke"/><rect width="17.295" height="17.295" x="306.992" y="248.765" ry="1.405" stroke="#000" stroke-width="2.513" stroke-linecap="round" stroke-miterlimit="4.3" paint-order="fill markers stroke"/><rect width="17.295" height="17.295" x="306.992" y="222.453" ry="1.405" stroke="#000" stroke-width="2.513" stroke-linecap="round" stroke-miterlimit="4.3" paint-order="fill markers stroke"/><rect width="17.295" height="17.295" x="306.992" y="196.141" ry="1.405" stroke="#000" stroke-width="2.513" stroke-linecap="round" stroke-miterlimit="4.3" paint-order="fill markers stroke"/><rect width="17.295" height="17.295" x="55.951" y="275.077" ry="1.405" stroke="#000" stroke-width="2.513" stroke-linecap="round" stroke-miterlimit="4.3" paint-order="fill markers stroke"/><rect width="17.295" height="17.295" x="181.472" y="275.077" ry="1.405" stroke="#000" stroke-width="2.513" stroke-linecap="round" stroke-miterlimit="4.3" paint-order="fill markers stroke"/><rect width="17.295" height="17.295" x="181.472" y="248.765" ry="1.405" stroke="#000" stroke-width="2.513" stroke-linecap="round" stroke-miterlimit="4.3" paint-order="fill markers stroke"/><rect width="17.295" height="17.295" x="181.472" y="222.453" ry="1.405" stroke="#000" stroke-width="2.513" stroke-linecap="round" stroke-miterlimit="4.3" paint-order="fill markers stroke"/><rect width="17.295" height="17.295" x="181.472" y="196.141" ry="1.405" stroke="#000" stroke-width="2.513" stroke-linecap="round" stroke-miterlimit="4.3" paint-order="fill markers stroke"/><rect width="17.295" height="17.295" x="181.472" y="169.829" ry="1.405" stroke="#000" stroke-width="2.513" stroke-linecap="round" stroke-miterlimit="4.3" paint-order="fill markers stroke"/><rect width="17.295" height="17.295" x="212.852" y="275.077" ry="1.405" stroke="#000" stroke-width="2.513" stroke-linecap="round" stroke-miterlimit="4.3" paint-order="fill markers stroke"/><rect width="17.295" height="17.295" x="212.852" y="248.765" ry="1.405" stroke="#000" stroke-width="2.513" stroke-linecap="round" stroke-miterlimit="4.3" paint-order="fill markers stroke"/><rect width="17.295" height="17.295" x="212.852" y="222.453" ry="1.405" stroke="#000" stroke-width="2.513" stroke-linecap="round" stroke-miterlimit="4.3" paint-order="fill markers stroke"/><rect width="17.295" height="17.295" x="212.852" y="196.141" ry="1.405" stroke="#000" stroke-width="2.513" stroke-linecap="round" stroke-miterlimit="4.3" paint-order="fill markers stroke"/><rect width="17.295" height="17.295" x="212.852" y="169.829" ry="1.405" stroke="#000" stroke-width="2.513" stroke-linecap="round" stroke-miterlimit="4.3" paint-order="fill markers stroke"/><rect width="17.295" height="17.295" x="212.852" y="143.517" ry="1.405" stroke="#000" stroke-width="2.513" stroke-linecap="round" stroke-miterlimit="4.3" paint-order="fill markers stroke"/><rect width="17.295" height="17.295" x="244.232" y="275.077" ry="1.405" stroke="#000" stroke-width="2.513" stroke-linecap="round" stroke-miterlimit="4.3" paint-order="fill markers stroke"/><rect width="17.295" height="17.295" x="244.232" y="248.765" ry="1.405" stroke="#000" stroke-width="2.513" stroke-linecap="round" stroke-miterlimit="4.3" paint-order="fill markers stroke"/><rect width="17.295" height="17.295" x="244.232" y="222.453" ry="1.405" stroke="#000" stroke-width="2.513" stroke-linecap="round" stroke-miterlimit="4.3" paint-order="fill markers stroke"/><rect width="17.295" height="17.295" x="244.232" y="196.141" ry="1.405" stroke="#000" stroke-width="2.513" stroke-linecap="round" stroke-miterlimit="4.3" paint-order="fill markers stroke"/><rect width="17.295" height="17.295" x="244.232" y="169.829" ry="1.405" stroke="#000" stroke-width="2.513" stroke-linecap="round" stroke-miterlimit="4.3" paint-order="fill markers stroke"/><rect width="17.295" height="17.295" x="244.232" y="143.517" ry="1.405" stroke="#000" stroke-width="2.513" stroke-linecap="round" stroke-miterlimit="4.3" paint-order="fill markers stroke"/><rect width="17.295" height="17.295" x="244.232" y="117.205" ry="1.405" stroke="#000" stroke-width="2.513" stroke-linecap="round" stroke-miterlimit="4.3" paint-order="fill markers stroke"/><rect width="17.295" height="17.295" x="244.232" y="90.893" ry="1.405" stroke="#000" stroke-width="2.513" stroke-linecap="round" stroke-miterlimit="4.3" paint-order="fill markers stroke"/><rect width="17.295" height="17.295" x="244.232" y="64.581" ry="1.405" stroke="#000" stroke-width="2.513" stroke-linecap="round" stroke-miterlimit="4.3" paint-order="fill markers stroke"/><path d="M22.778 40.495h95.331V88.16H22.778z"/><path d="M37.582 36.009h192.683v54.882H37.582z"/><path stroke="#000" stroke-width="2.513" d="M16.107 39.588h200.438v45.934H16.107z"/><circle cx="70.971" cy="23.127" r="10.018" stroke="#000" stroke-width="2.513"/><circle cx="161.767" cy="23.127" r="10.018" stroke="#000" stroke-width="2.513"/><path d="M42.182 37.036l-12.039-6.97-12.038-6.97 12.055-6.94 12.055-6.94-.017 13.91zM197.827 9.218l12.038 6.97 12.039 6.97-12.055 6.94-12.055 6.941.016-13.91z" stroke="#000" stroke-width="2.513"/></svg>