<svg xmlns="http://www.w3.org/2000/svg" viewBox="0 0 347 347"><style>.st0{fill:none;stroke:#000;stroke-width:2}.st3{enable-background:new}.st4{fill:none;stroke:#000;stroke-width:1.4}.st5{fill:#fff}</style><path d="M5 5h337v337H5V5z" class="st0"/><circle cx="298" cy="40" r="16" class="st0"/><path fill="#fff" stroke="#000" stroke-width="1.4" d="M20 97h41v41H20V97zm47 0h41v41H67V97zm48 0h41v41h-41V97zm47 0h41v41h-41V97zm47 0h41v41h-41V97zM20 145h41v41H20v-41zm47 0h41v41H67v-41zm48 0h41v41h-41v-41zm47 0h41v41h-41v-41zm47 0h41v41h-41v-41zM20 192h41v41H20v-41zm47 0h41v41H67v-41zm48 0h41v41h-41v-41zm47 0h41v41h-41v-41zm47 0h41v41h-41v-41zM20 240h41v41H20v-41zm47 0h41v41H67v-41zm48 0h41v41h-41v-41zm47 0h41v41h-41v-41zm47 0h41v41h-41v-41zm75-144h41v41h-41V96zm1 47h41v41h-41v-41zM20 287h41v41H20v-41zm47 0h41v41H67v-41zm48 0h41v41h-41v-41zm47 0h41v41h-41v-41zm47 0h41v41h-41v-41zm76-98h41v41h-41v-41zm0 47h41v41h-41v-41zm0 47h41v41h-41v-41z"/><path stroke="#000" stroke-width="1.4" d="M20 22h234v62H20V22z"/><path d="m33 121.7 2.1-.2c.1.8.3 1.5.7 2 .4.5.9 1 1.7 1.3a7 7 0 0 0 2.5.5 5 5 0 0 0 2.2-.4 3 3 0 0 0 1.4-1c.3-.4.5-.9.5-1.4 0-.5-.2-1-.5-1.4-.3-.4-.8-.7-1.5-1l-3-.8c-1.5-.4-2.6-.7-3.2-1-.8-.4-1.4-.9-1.8-1.5-.4-.6-.6-1.3-.6-2.1s.2-1.6.7-2.4c.5-.7 1.2-1.3 2.1-1.7a8.8 8.8 0 0 1 6.3 0c.9.4 1.7 1 2.2 1.8.5.8.8 1.6.8 2.6l-2.1.2c-.1-1-.5-1.8-1.1-2.4s-1.6-.8-2.9-.8c-1.3 0-2.3.2-2.9.7-.6.5-.9 1.1-.9 1.8 0 .6.2 1.1.6 1.5.4.4 1.5.8 3.3 1.2 1.8.4 3 .8 3.7 1.1a4 4 0 0 1 2.1 1.7c.5.7.7 1.5.7 2.4 0 .9-.3 1.7-.8 2.5s-1.2 1.4-2.2 1.8-2 .7-3.2.7c-1.5 0-2.8-.2-3.8-.7-1-.4-1.8-1.1-2.4-2s-.6-1.9-.7-3z" class="st3"/><g class="st3"><path d="m33 121.7 2.1-.2c.1.8.3 1.5.7 2 .4.5.9 1 1.7 1.3a7 7 0 0 0 2.5.5 5 5 0 0 0 2.2-.4 3 3 0 0 0 1.4-1c.3-.4.5-.9.5-1.4 0-.5-.2-1-.5-1.4-.3-.4-.8-.7-1.5-1l-3-.8c-1.5-.4-2.6-.7-3.2-1-.8-.4-1.4-.9-1.8-1.5-.4-.6-.6-1.3-.6-2.1s.2-1.6.7-2.4c.5-.7 1.2-1.3 2.1-1.7a8.8 8.8 0 0 1 6.3 0c.9.4 1.7 1 2.2 1.8.5.8.8 1.6.8 2.6l-2.1.2c-.1-1-.5-1.8-1.1-2.4s-1.6-.8-2.9-.8c-1.3 0-2.3.2-2.9.7-.6.5-.9 1.1-.9 1.8 0 .6.2 1.1.6 1.5.4.4 1.5.8 3.3 1.2 1.8.4 3 .8 3.7 1.1a4 4 0 0 1 2.1 1.7c.5.7.7 1.5.7 2.4 0 .9-.3 1.7-.8 2.5s-1.2 1.4-2.2 1.8-2 .7-3.2.7c-1.5 0-2.8-.2-3.8-.7-1-.4-1.8-1.1-2.4-2s-.6-1.9-.7-3z" class="st4"/></g><path d="M82.2 128H80v-13.8l-2 1.5c-.8.5-1.6.9-2.3 1.1v-2.1c1.2-.6 2.3-1.3 3.2-2.1a8 8 0 0 0 1.9-2.4h1.4V128zm16.9-2.1v2.1H87.4l.3-1.5c.3-.8.8-1.6 1.4-2.3.7-.8 1.6-1.7 2.8-2.7 1.9-1.6 3.2-2.8 3.9-3.7s1-1.8 1-2.6a3 3 0 0 0-.9-2.2c-.6-.6-1.4-.9-2.4-.9s-1.9.3-2.5.9c-.6.6-.9 1.5-.9 2.6l-2.2-.2c.2-1.7.7-2.9 1.7-3.8 1-.9 2.3-1.3 4-1.3 1.7 0 3 .5 4 1.4 1 .9 1.5 2.1 1.5 3.5 0 .7-.1 1.4-.4 2.1-.3.7-.8 1.4-1.4 2.2s-1.8 1.8-3.3 3.1a50 50 0 0 0-3.4 3.4h8.5z" class="st3"/><g class="st3"><path d="M82.2 128H80v-13.8l-2 1.5c-.8.5-1.6.9-2.3 1.1v-2.1c1.2-.6 2.3-1.3 3.2-2.1a8 8 0 0 0 1.9-2.4h1.4V128zm16.9-2.1v2.1H87.4l.3-1.5c.3-.8.8-1.6 1.4-2.3.7-.8 1.6-1.7 2.8-2.7 1.9-1.6 3.2-2.8 3.9-3.7s1-1.8 1-2.6a3 3 0 0 0-.9-2.2c-.6-.6-1.4-.9-2.4-.9s-1.9.3-2.5.9c-.6.6-.9 1.5-.9 2.6l-2.2-.2c.2-1.7.7-2.9 1.7-3.8 1-.9 2.3-1.3 4-1.3 1.7 0 3 .5 4 1.4 1 .9 1.5 2.1 1.5 3.5 0 .7-.1 1.4-.4 2.1-.3.7-.8 1.4-1.4 2.2s-1.8 1.8-3.3 3.1a50 50 0 0 0-3.4 3.4h8.5z" class="st4"/></g><path d="M129.2 127H127v-13.8l-2 1.5c-.8.5-1.6.9-2.3 1.1v-2.1c1.2-.6 2.3-1.3 3.2-2.1a8 8 0 0 0 1.9-2.4h1.4V127zm16.9-2.1v2.1h-11.6l.3-1.5c.3-.8.8-1.6 1.4-2.3.7-.8 1.6-1.7 2.8-2.7 1.9-1.6 3.2-2.8 3.9-3.7s1-1.8 1-2.6a3 3 0 0 0-.9-2.2c-.6-.6-1.4-.9-2.4-.9s-1.9.3-2.5.9c-.6.6-.9 1.5-.9 2.6l-2.2-.2c.2-1.7.7-2.9 1.7-3.8 1-.9 2.3-1.3 4-1.3 1.7 0 3 .5 4 1.4 1 .9 1.5 2.1 1.5 3.5 0 .7-.1 1.4-.4 2.1-.3.7-.8 1.4-1.4 2.2s-1.8 1.8-3.3 3.1a50 50 0 0 0-3.4 3.4h8.4z" class="st3"/><g class="st3"><path d="M129.2 127H127v-13.8l-2 1.5c-.8.5-1.6.9-2.3 1.1v-2.1c1.2-.6 2.3-1.3 3.2-2.1a8 8 0 0 0 1.9-2.4h1.4V127zm16.9-2.1v2.1h-11.6l.3-1.5c.3-.8.8-1.6 1.4-2.3.7-.8 1.6-1.7 2.8-2.7 1.9-1.6 3.2-2.8 3.9-3.7s1-1.8 1-2.6a3 3 0 0 0-.9-2.2c-.6-.6-1.4-.9-2.4-.9s-1.9.3-2.5.9c-.6.6-.9 1.5-.9 2.6l-2.2-.2c.2-1.7.7-2.9 1.7-3.8 1-.9 2.3-1.3 4-1.3 1.7 0 3 .5 4 1.4 1 .9 1.5 2.1 1.5 3.5 0 .7-.1 1.4-.4 2.1-.3.7-.8 1.4-1.4 2.2s-1.8 1.8-3.3 3.1a50 50 0 0 0-3.4 3.4h8.4z" class="st4"/></g><path d="M176.2 128H174v-13.8l-2 1.5c-.8.5-1.6.9-2.3 1.1v-2.1c1.2-.6 2.3-1.3 3.2-2.1a8 8 0 0 0 1.9-2.4h1.4V128zm16.9-2.1v2.1h-11.6l.3-1.5c.3-.8.8-1.6 1.4-2.3s1.6-1.7 2.8-2.7c1.9-1.6 3.2-2.8 3.9-3.7.7-.9 1-1.8 1-2.6a3 3 0 0 0-.9-2.2c-.6-.6-1.4-.9-2.4-.9s-1.9.3-2.5.9c-.6.6-.9 1.5-.9 2.6l-2.2-.2c.2-1.7.7-2.9 1.7-3.8s2.3-1.3 4-1.3c1.7 0 3 .5 4 1.4 1 .9 1.5 2.1 1.5 3.5 0 .7-.1 1.4-.4 2.1-.3.7-.8 1.4-1.4 2.2-.7.8-1.8 1.8-3.3 3.1a50 50 0 0 0-3.4 3.4h8.4z" class="st3"/><g class="st3"><path d="M176.2 128H174v-13.8l-2 1.5c-.8.5-1.6.9-2.3 1.1v-2.1c1.2-.6 2.3-1.3 3.2-2.1a8 8 0 0 0 1.9-2.4h1.4V128zm16.9-2.1v2.1h-11.6l.3-1.5c.3-.8.8-1.6 1.4-2.3s1.6-1.7 2.8-2.7c1.9-1.6 3.2-2.8 3.9-3.7.7-.9 1-1.8 1-2.6a3 3 0 0 0-.9-2.2c-.6-.6-1.4-.9-2.4-.9s-1.9.3-2.5.9c-.6.6-.9 1.5-.9 2.6l-2.2-.2c.2-1.7.7-2.9 1.7-3.8s2.3-1.3 4-1.3c1.7 0 3 .5 4 1.4 1 .9 1.5 2.1 1.5 3.5 0 .7-.1 1.4-.4 2.1-.3.7-.8 1.4-1.4 2.2-.7.8-1.8 1.8-3.3 3.1a50 50 0 0 0-3.4 3.4h8.4z" class="st4"/></g><path d="M224.2 127H222v-13.8l-2 1.5c-.8.5-1.6.9-2.3 1.1v-2.1c1.2-.6 2.3-1.3 3.2-2.1a8 8 0 0 0 1.9-2.4h1.4V127zm16.9-2.1v2.1h-11.6l.3-1.5c.3-.8.8-1.6 1.4-2.3s1.6-1.7 2.8-2.7c1.9-1.6 3.2-2.8 3.9-3.7.7-.9 1-1.8 1-2.6a3 3 0 0 0-.9-2.2c-.6-.6-1.4-.9-2.4-.9s-1.9.3-2.5.9c-.6.6-.9 1.5-.9 2.6l-2.2-.2c.2-1.7.7-2.9 1.7-3.8s2.3-1.3 4-1.3c1.7 0 3 .5 4 1.4 1 .9 1.5 2.1 1.5 3.5 0 .7-.1 1.4-.4 2.1-.3.7-.8 1.4-1.4 2.2-.7.8-1.8 1.8-3.3 3.1a50 50 0 0 0-3.4 3.4h8.4z" class="st3"/><g class="st3"><path d="M224.2 127H222v-13.8l-2 1.5c-.8.5-1.6.9-2.3 1.1v-2.1c1.2-.6 2.3-1.3 3.2-2.1a8 8 0 0 0 1.9-2.4h1.4V127zm16.9-2.1v2.1h-11.6l.3-1.5c.3-.8.8-1.6 1.4-2.3s1.6-1.7 2.8-2.7c1.9-1.6 3.2-2.8 3.9-3.7.7-.9 1-1.8 1-2.6a3 3 0 0 0-.9-2.2c-.6-.6-1.4-.9-2.4-.9s-1.9.3-2.5.9c-.6.6-.9 1.5-.9 2.6l-2.2-.2c.2-1.7.7-2.9 1.7-3.8s2.3-1.3 4-1.3c1.7 0 3 .5 4 1.4 1 .9 1.5 2.1 1.5 3.5 0 .7-.1 1.4-.4 2.1-.3.7-.8 1.4-1.4 2.2-.7.8-1.8 1.8-3.3 3.1a50 50 0 0 0-3.4 3.4h8.4z" class="st4"/></g><path d="m27 170.4 2.2-.3c.2 1.2.7 2.1 1.3 2.6.6.5 1.3.8 2.2.8 1 0 1.9-.4 2.6-1.1.7-.7 1.1-1.6 1.1-2.6s-.3-1.8-1-2.5c-.6-.6-1.5-1-2.5-1l-1.5.2.2-1.9h.3c.9 0 1.7-.2 2.5-.7s1.1-1.2 1.1-2.2c0-.8-.3-1.5-.8-2s-1.2-.8-2.1-.8c-.8 0-1.5.3-2.1.8-.6.5-.9 1.3-1.1 2.4l-2.2-.4c.3-1.4.9-2.6 1.8-3.4.9-.8 2.1-1.2 3.5-1.2a5.2 5.2 0 0 1 4.6 2.3c.5.7.6 1.5.6 2.3 0 .8-.2 1.5-.6 2.1-.4.6-1 1.1-1.8 1.5 1 .2 1.9.7 2.4 1.5.6.8.9 1.7.9 2.8 0 1.5-.6 2.8-1.7 3.9a5.7 5.7 0 0 1-4.3 1.6 5.6 5.6 0 0 1-5.6-4.7zm20.6 4.6v-4.2H40v-2l8-11.4h1.8v11.4h2.4v2h-2.4v4.2h-2.2zm0-6.2v-7.9l-5.5 7.9h5.5z" class="st3"/><g class="st3"><path d="m27 170.4 2.2-.3c.2 1.2.7 2.1 1.3 2.6.6.5 1.3.8 2.2.8 1 0 1.9-.4 2.6-1.1.7-.7 1.1-1.6 1.1-2.6s-.3-1.8-1-2.5c-.6-.6-1.5-1-2.5-1l-1.5.2.2-1.9h.3c.9 0 1.7-.2 2.5-.7s1.1-1.2 1.1-2.2c0-.8-.3-1.5-.8-2s-1.2-.8-2.1-.8c-.8 0-1.5.3-2.1.8-.6.5-.9 1.3-1.1 2.4l-2.2-.4c.3-1.4.9-2.6 1.8-3.4.9-.8 2.1-1.2 3.5-1.2a5.2 5.2 0 0 1 4.6 2.3c.5.7.6 1.5.6 2.3 0 .8-.2 1.5-.6 2.1-.4.6-1 1.1-1.8 1.5 1 .2 1.9.7 2.4 1.5.6.8.9 1.7.9 2.8 0 1.5-.6 2.8-1.7 3.9a5.7 5.7 0 0 1-4.3 1.6 5.6 5.6 0 0 1-5.6-4.7zm20.6 4.6v-4.2H40v-2l8-11.4h1.8v11.4h2.4v2h-2.4v4.2h-2.2zm0-6.2v-7.9l-5.5 7.9h5.5z" class="st4"/></g><path d="m26 216.4 2.2-.3c.2 1.2.7 2.1 1.3 2.6.6.5 1.3.8 2.2.8 1 0 1.9-.4 2.6-1.1.7-.7 1.1-1.6 1.1-2.6s-.3-1.8-1-2.5c-.6-.6-1.5-1-2.5-1l-1.5.2.2-1.9h.3c.9 0 1.7-.2 2.5-.7s1.1-1.2 1.1-2.2c0-.8-.3-1.5-.8-2s-1.2-.8-2.1-.8c-.8 0-1.5.3-2.1.8-.6.5-.9 1.3-1.1 2.4l-2.2-.4c.3-1.4.9-2.6 1.8-3.4.9-.8 2.1-1.2 3.5-1.2a5.2 5.2 0 0 1 4.6 2.3c.5.7.6 1.5.6 2.3 0 .8-.2 1.5-.6 2.1-.4.6-1 1.1-1.8 1.5 1 .2 1.9.7 2.4 1.5.6.8.9 1.7.9 2.8 0 1.5-.6 2.8-1.7 3.9a5.7 5.7 0 0 1-4.3 1.6 5.6 5.6 0 0 1-5.6-4.7zm20.6 4.6v-4.2H39v-2l8-11.4h1.8v11.4h2.4v2h-2.4v4.2h-2.2zm0-6.2v-7.9l-5.5 7.9h5.5z" class="st3"/><g class="st3"><path d="m26 216.4 2.2-.3c.2 1.2.7 2.1 1.3 2.6.6.5 1.3.8 2.2.8 1 0 1.9-.4 2.6-1.1.7-.7 1.1-1.6 1.1-2.6s-.3-1.8-1-2.5c-.6-.6-1.5-1-2.5-1l-1.5.2.2-1.9h.3c.9 0 1.7-.2 2.5-.7s1.1-1.2 1.1-2.2c0-.8-.3-1.5-.8-2s-1.2-.8-2.1-.8c-.8 0-1.5.3-2.1.8-.6.5-.9 1.3-1.1 2.4l-2.2-.4c.3-1.4.9-2.6 1.8-3.4.9-.8 2.1-1.2 3.5-1.2a5.2 5.2 0 0 1 4.6 2.3c.5.7.6 1.5.6 2.3 0 .8-.2 1.5-.6 2.1-.4.6-1 1.1-1.8 1.5 1 .2 1.9.7 2.4 1.5.6.8.9 1.7.9 2.8 0 1.5-.6 2.8-1.7 3.9a5.7 5.7 0 0 1-4.3 1.6 5.6 5.6 0 0 1-5.6-4.7zm20.6 4.6v-4.2H39v-2l8-11.4h1.8v11.4h2.4v2h-2.4v4.2h-2.2zm0-6.2v-7.9l-5.5 7.9h5.5z" class="st4"/></g><path d="m27 264.4 2.2-.3c.2 1.2.7 2.1 1.3 2.6.6.5 1.3.8 2.2.8 1 0 1.9-.4 2.6-1.1.7-.7 1.1-1.6 1.1-2.6s-.3-1.8-1-2.5c-.6-.6-1.5-1-2.5-1l-1.5.2.2-1.9h.3c.9 0 1.7-.2 2.5-.7s1.1-1.2 1.1-2.2c0-.8-.3-1.5-.8-2s-1.2-.8-2.1-.8c-.8 0-1.5.3-2.1.8-.6.5-.9 1.3-1.1 2.4l-2.2-.4c.3-1.4.9-2.6 1.8-3.4.9-.8 2.1-1.2 3.5-1.2a5.2 5.2 0 0 1 4.6 2.3c.5.7.6 1.5.6 2.3 0 .8-.2 1.5-.6 2.1-.4.6-1 1.1-1.8 1.5 1 .2 1.9.7 2.4 1.5.6.8.9 1.7.9 2.8 0 1.5-.6 2.8-1.7 3.9a5.7 5.7 0 0 1-4.3 1.6 5.6 5.6 0 0 1-5.6-4.7zm20.6 4.6v-4.2H40v-2l8-11.4h1.8v11.4h2.4v2h-2.4v4.2h-2.2zm0-6.2v-7.9l-5.5 7.9h5.5z" class="st3"/><g class="st3"><path d="m27 264.4 2.2-.3c.2 1.2.7 2.1 1.3 2.6.6.5 1.3.8 2.2.8 1 0 1.9-.4 2.6-1.1.7-.7 1.1-1.6 1.1-2.6s-.3-1.8-1-2.5c-.6-.6-1.5-1-2.5-1l-1.5.2.2-1.9h.3c.9 0 1.7-.2 2.5-.7s1.1-1.2 1.1-2.2c0-.8-.3-1.5-.8-2s-1.2-.8-2.1-.8c-.8 0-1.5.3-2.1.8-.6.5-.9 1.3-1.1 2.4l-2.2-.4c.3-1.4.9-2.6 1.8-3.4.9-.8 2.1-1.2 3.5-1.2a5.2 5.2 0 0 1 4.6 2.3c.5.7.6 1.5.6 2.3 0 .8-.2 1.5-.6 2.1-.4.6-1 1.1-1.8 1.5 1 .2 1.9.7 2.4 1.5.6.8.9 1.7.9 2.8 0 1.5-.6 2.8-1.7 3.9a5.7 5.7 0 0 1-4.3 1.6 5.6 5.6 0 0 1-5.6-4.7zm20.6 4.6v-4.2H40v-2l8-11.4h1.8v11.4h2.4v2h-2.4v4.2h-2.2zm0-6.2v-7.9l-5.5 7.9h5.5z" class="st4"/></g><path d="m27 311.4 2.2-.3c.2 1.2.7 2.1 1.3 2.6.6.5 1.3.8 2.2.8 1 0 1.9-.4 2.6-1.1.7-.7 1.1-1.6 1.1-2.6s-.3-1.8-1-2.5c-.6-.6-1.5-1-2.5-1l-1.5.2.2-1.9h.3c.9 0 1.7-.2 2.5-.7s1.1-1.2 1.1-2.2c0-.8-.3-1.5-.8-2s-1.2-.8-2.1-.8c-.8 0-1.5.3-2.1.8-.6.5-.9 1.3-1.1 2.4l-2.2-.4c.3-1.4.9-2.6 1.8-3.4.9-.8 2.1-1.2 3.5-1.2a5.2 5.2 0 0 1 4.6 2.3c.5.7.6 1.5.6 2.3 0 .8-.2 1.5-.6 2.1-.4.6-1 1.1-1.8 1.5 1 .2 1.9.7 2.4 1.5.6.8.9 1.7.9 2.8 0 1.5-.6 2.8-1.7 3.9a5.7 5.7 0 0 1-4.3 1.6 5.6 5.6 0 0 1-5.6-4.7zm20.6 4.6v-4.2H40v-2l8-11.4h1.8v11.4h2.4v2h-2.4v4.2h-2.2zm0-6.2v-7.9l-5.5 7.9h5.5z" class="st3"/><g class="st3"><path d="m27 311.4 2.2-.3c.2 1.2.7 2.1 1.3 2.6.6.5 1.3.8 2.2.8 1 0 1.9-.4 2.6-1.1.7-.7 1.1-1.6 1.1-2.6s-.3-1.8-1-2.5c-.6-.6-1.5-1-2.5-1l-1.5.2.2-1.9h.3c.9 0 1.7-.2 2.5-.7s1.1-1.2 1.1-2.2c0-.8-.3-1.5-.8-2s-1.2-.8-2.1-.8c-.8 0-1.5.3-2.1.8-.6.5-.9 1.3-1.1 2.4l-2.2-.4c.3-1.4.9-2.6 1.8-3.4.9-.8 2.1-1.2 3.5-1.2a5.2 5.2 0 0 1 4.6 2.3c.5.7.6 1.5.6 2.3 0 .8-.2 1.5-.6 2.1-.4.6-1 1.1-1.8 1.5 1 .2 1.9.7 2.4 1.5.6.8.9 1.7.9 2.8 0 1.5-.6 2.8-1.7 3.9a5.7 5.7 0 0 1-4.3 1.6 5.6 5.6 0 0 1-5.6-4.7zm20.6 4.6v-4.2H40v-2l8-11.4h1.8v11.4h2.4v2h-2.4v4.2h-2.2zm0-6.2v-7.9l-5.5 7.9h5.5z" class="st4"/></g><path d="m172.7 165 1.2-3.8c2.8 1 4.9 1.9 6.2 2.6a91 91 0 0 1-.5-6.7h3.9l-.6 6.6a48 48 0 0 1 6.3-2.6l1.2 3.8c-2.3.7-4.5 1.2-6.7 1.5a42 42 0 0 1 4.6 5l-3.2 2.3c-1-1.4-2.3-3.3-3.7-5.7a39.4 39.4 0 0 1-3.5 5.7l-3.2-2.3c2.1-2.5 3.5-4.2 4.4-5-2.1-.3-4.3-.8-6.4-1.4z" class="st3"/><g class="st3"><path d="m172.7 165 1.2-3.8c2.8 1 4.9 1.9 6.2 2.6a91 91 0 0 1-.5-6.7h3.9l-.6 6.6a48 48 0 0 1 6.3-2.6l1.2 3.8c-2.3.7-4.5 1.2-6.7 1.5a42 42 0 0 1 4.6 5l-3.2 2.3c-1-1.4-2.3-3.3-3.7-5.7a39.4 39.4 0 0 1-3.5 5.7l-3.2-2.3c2.1-2.5 3.5-4.2 4.4-5-2.1-.3-4.3-.8-6.4-1.4z" class="st4"/></g><path d="m172.7 259 1.2-3.8c2.8 1 4.9 1.9 6.2 2.6a91 91 0 0 1-.5-6.7h3.9l-.6 6.6a48 48 0 0 1 6.3-2.6l1.2 3.8c-2.3.7-4.5 1.2-6.7 1.5a42 42 0 0 1 4.6 5l-3.2 2.3c-1-1.4-2.3-3.3-3.7-5.7a39.4 39.4 0 0 1-3.5 5.7l-3.2-2.3c2.1-2.5 3.5-4.2 4.4-5-2.1-.3-4.3-.8-6.4-1.4z" class="st3"/><g class="st3"><path d="m172.7 259 1.2-3.8c2.8 1 4.9 1.9 6.2 2.6a91 91 0 0 1-.5-6.7h3.9l-.6 6.6a48 48 0 0 1 6.3-2.6l1.2 3.8c-2.3.7-4.5 1.2-6.7 1.5a42 42 0 0 1 4.6 5l-3.2 2.3c-1-1.4-2.3-3.3-3.7-5.7a39.4 39.4 0 0 1-3.5 5.7l-3.2-2.3c2.1-2.5 3.5-4.2 4.4-5-2.1-.3-4.3-.8-6.4-1.4z" class="st4"/></g><path d="m219.7 259 1.2-3.8c2.8 1 4.9 1.9 6.2 2.6a91 91 0 0 1-.5-6.7h3.9l-.6 6.6a48 48 0 0 1 6.3-2.6l1.2 3.8c-2.3.7-4.5 1.2-6.7 1.5a42 42 0 0 1 4.6 5l-3.2 2.3c-1-1.4-2.3-3.3-3.7-5.7a39.4 39.4 0 0 1-3.5 5.7l-3.2-2.3c2.1-2.5 3.5-4.2 4.4-5-2.1-.3-4.3-.8-6.4-1.4z" class="st3"/><g class="st3"><path d="m219.7 259 1.2-3.8c2.8 1 4.9 1.9 6.2 2.6a91 91 0 0 1-.5-6.7h3.9l-.6 6.6a48 48 0 0 1 6.3-2.6l1.2 3.8c-2.3.7-4.5 1.2-6.7 1.5a42 42 0 0 1 4.6 5l-3.2 2.3c-1-1.4-2.3-3.3-3.7-5.7a39.4 39.4 0 0 1-3.5 5.7l-3.2-2.3c2.1-2.5 3.5-4.2 4.4-5-2.1-.3-4.3-.8-6.4-1.4z" class="st4"/></g><path d="m219.7 306 1.2-3.8c2.8 1 4.9 1.9 6.2 2.6a91 91 0 0 1-.5-6.7h3.9l-.6 6.6a48 48 0 0 1 6.3-2.6l1.2 3.8c-2.3.7-4.5 1.2-6.7 1.5a42 42 0 0 1 4.6 5l-3.2 2.3c-1-1.4-2.3-3.3-3.7-5.7a39.4 39.4 0 0 1-3.5 5.7l-3.2-2.3c2.1-2.5 3.5-4.2 4.4-5-2.1-.3-4.3-.8-6.4-1.4z" class="st3"/><g class="st3"><path d="m219.7 306 1.2-3.8c2.8 1 4.9 1.9 6.2 2.6a91 91 0 0 1-.5-6.7h3.9l-.6 6.6a48 48 0 0 1 6.3-2.6l1.2 3.8c-2.3.7-4.5 1.2-6.7 1.5a42 42 0 0 1 4.6 5l-3.2 2.3c-1-1.4-2.3-3.3-3.7-5.7a39.4 39.4 0 0 1-3.5 5.7l-3.2-2.3c2.1-2.5 3.5-4.2 4.4-5-2.1-.3-4.3-.8-6.4-1.4z" class="st4"/></g><path d="m172.7 307 1.2-3.8c2.8 1 4.9 1.9 6.2 2.6a91 91 0 0 1-.5-6.7h3.9l-.6 6.6a48 48 0 0 1 6.3-2.6l1.2 3.8c-2.3.7-4.5 1.2-6.7 1.5a42 42 0 0 1 4.6 5l-3.2 2.3c-1-1.4-2.3-3.3-3.7-5.7a39.4 39.4 0 0 1-3.5 5.7l-3.2-2.3c2.1-2.5 3.5-4.2 4.4-5-2.1-.3-4.3-.8-6.4-1.4z" class="st3"/><g class="st3"><path d="m172.7 307 1.2-3.8c2.8 1 4.9 1.9 6.2 2.6a91 91 0 0 1-.5-6.7h3.9l-.6 6.6a48 48 0 0 1 6.3-2.6l1.2 3.8c-2.3.7-4.5 1.2-6.7 1.5a42 42 0 0 1 4.6 5l-3.2 2.3c-1-1.4-2.3-3.3-3.7-5.7a39.4 39.4 0 0 1-3.5 5.7l-3.2-2.3c2.1-2.5 3.5-4.2 4.4-5-2.1-.3-4.3-.8-6.4-1.4z" class="st4"/></g><path d="m126.7 308 1.2-3.8c2.8 1 4.9 1.9 6.2 2.6a91 91 0 0 1-.5-6.7h3.9l-.6 6.6a48 48 0 0 1 6.3-2.6l1.2 3.8c-2.3.7-4.5 1.2-6.7 1.5a42 42 0 0 1 4.6 5l-3.2 2.3c-1-1.4-2.3-3.3-3.7-5.7a39.4 39.4 0 0 1-3.5 5.7l-3.2-2.3c2.1-2.5 3.5-4.2 4.4-5-2.1-.3-4.3-.8-6.4-1.4z" class="st3"/><g class="st3"><path d="m126.7 308 1.2-3.8c2.8 1 4.9 1.9 6.2 2.6a91 91 0 0 1-.5-6.7h3.9l-.6 6.6a48 48 0 0 1 6.3-2.6l1.2 3.8c-2.3.7-4.5 1.2-6.7 1.5a42 42 0 0 1 4.6 5l-3.2 2.3c-1-1.4-2.3-3.3-3.7-5.7a39.4 39.4 0 0 1-3.5 5.7l-3.2-2.3c2.1-2.5 3.5-4.2 4.4-5-2.1-.3-4.3-.8-6.4-1.4z" class="st4"/></g><path d="m78.7 307 1.2-3.8c2.8 1 4.9 1.9 6.2 2.6a91 91 0 0 1-.5-6.7h3.9l-.6 6.6a48 48 0 0 1 6.3-2.6l1.2 3.8c-2.3.7-4.5 1.2-6.7 1.5a42 42 0 0 1 4.6 5l-3.2 2.3c-1-1.4-2.3-3.3-3.7-5.7a39.4 39.4 0 0 1-3.5 5.7l-3.2-2.3c2.1-2.5 3.5-4.2 4.4-5-2.1-.3-4.3-.8-6.4-1.4z" class="st3"/><g class="st3"><path d="m78.7 307 1.2-3.8c2.8 1 4.9 1.9 6.2 2.6a91 91 0 0 1-.5-6.7h3.9l-.6 6.6a48 48 0 0 1 6.3-2.6l1.2 3.8c-2.3.7-4.5 1.2-6.7 1.5a42 42 0 0 1 4.6 5l-3.2 2.3c-1-1.4-2.3-3.3-3.7-5.7a39.4 39.4 0 0 1-3.5 5.7l-3.2-2.3c2.1-2.5 3.5-4.2 4.4-5-2.1-.3-4.3-.8-6.4-1.4z" class="st4"/></g><path d="m78.7 259 1.2-3.8c2.8 1 4.9 1.9 6.2 2.6a91 91 0 0 1-.5-6.7h3.9l-.6 6.6a48 48 0 0 1 6.3-2.6l1.2 3.8c-2.3.7-4.5 1.2-6.7 1.5a42 42 0 0 1 4.6 5l-3.2 2.3c-1-1.4-2.3-3.3-3.7-5.7a39.4 39.4 0 0 1-3.5 5.7l-3.2-2.3c2.1-2.5 3.5-4.2 4.4-5-2.1-.3-4.3-.8-6.4-1.4z" class="st3"/><g class="st3"><path d="m78.7 259 1.2-3.8c2.8 1 4.9 1.9 6.2 2.6a91 91 0 0 1-.5-6.7h3.9l-.6 6.6a48 48 0 0 1 6.3-2.6l1.2 3.8c-2.3.7-4.5 1.2-6.7 1.5a42 42 0 0 1 4.6 5l-3.2 2.3c-1-1.4-2.3-3.3-3.7-5.7a39.4 39.4 0 0 1-3.5 5.7l-3.2-2.3c2.1-2.5 3.5-4.2 4.4-5-2.1-.3-4.3-.8-6.4-1.4z" class="st4"/></g><path d="M80.4 166.4c0-2.8.3-5 .9-6.7.6-1.7 1.4-3 2.5-3.9a6.5 6.5 0 0 1 4.3-1.4 6.7 6.7 0 0 1 5.7 3c.6 1 1.1 2.1 1.5 3.5.4 1.4.5 3.2.5 5.5 0 2.8-.3 5-.8 6.7-.6 1.7-1.4 3-2.5 3.9a6.5 6.5 0 0 1-4.3 1.4c-2.3 0-4-.8-5.3-2.4-1.8-2-2.5-5.2-2.5-9.6zm2.9 0c0 3.9.5 6.4 1.4 7.7.9 1.3 2 1.9 3.3 1.9 1.3 0 2.4-.6 3.3-1.9s1.4-3.8 1.4-7.7c0-3.9-.5-6.4-1.4-7.7-.9-1.3-2-1.9-3.4-1.9-1.3 0-2.4.6-3.2 1.7a16 16 0 0 0-1.4 7.9z" class="st3"/><g class="st3"><path d="M80.4 166.4c0-2.8.3-5 .9-6.7.6-1.7 1.4-3 2.5-3.9a6.5 6.5 0 0 1 4.3-1.4 6.7 6.7 0 0 1 5.7 3c.6 1 1.1 2.1 1.5 3.5.4 1.4.5 3.2.5 5.5 0 2.8-.3 5-.8 6.7-.6 1.7-1.4 3-2.5 3.9a6.5 6.5 0 0 1-4.3 1.4c-2.3 0-4-.8-5.3-2.4-1.8-2-2.5-5.2-2.5-9.6zm2.9 0c0 3.9.5 6.4 1.4 7.7.9 1.3 2 1.9 3.3 1.9 1.3 0 2.4-.6 3.3-1.9s1.4-3.8 1.4-7.7c0-3.9-.5-6.4-1.4-7.7-.9-1.3-2-1.9-3.4-1.9-1.3 0-2.4.6-3.2 1.7a16 16 0 0 0-1.4 7.9z" class="st4"/></g><path d="M127.4 165.4c0-2.8.3-5 .9-6.7.6-1.7 1.4-3 2.5-3.9a6.5 6.5 0 0 1 4.3-1.4 6.7 6.7 0 0 1 5.7 3c.6 1 1.1 2.1 1.5 3.5.4 1.4.5 3.2.5 5.5 0 2.8-.3 5-.8 6.7-.6 1.7-1.4 3-2.5 3.9a6.5 6.5 0 0 1-4.3 1.4c-2.3 0-4-.8-5.3-2.4-1.8-2-2.5-5.2-2.5-9.6zm2.9 0c0 3.9.5 6.4 1.4 7.7.9 1.3 2 1.9 3.3 1.9 1.3 0 2.4-.6 3.3-1.9s1.4-3.8 1.4-7.7c0-3.9-.5-6.4-1.4-7.7-.9-1.3-2-1.9-3.4-1.9-1.3 0-2.4.6-3.2 1.7a16 16 0 0 0-1.4 7.9z" class="st3"/><g class="st3"><path d="M127.4 165.4c0-2.8.3-5 .9-6.7.6-1.7 1.4-3 2.5-3.9a6.5 6.5 0 0 1 4.3-1.4 6.7 6.7 0 0 1 5.7 3c.6 1 1.1 2.1 1.5 3.5.4 1.4.5 3.2.5 5.5 0 2.8-.3 5-.8 6.7-.6 1.7-1.4 3-2.5 3.9a6.5 6.5 0 0 1-4.3 1.4c-2.3 0-4-.8-5.3-2.4-1.8-2-2.5-5.2-2.5-9.6zm2.9 0c0 3.9.5 6.4 1.4 7.7.9 1.3 2 1.9 3.3 1.9 1.3 0 2.4-.6 3.3-1.9s1.4-3.8 1.4-7.7c0-3.9-.5-6.4-1.4-7.7-.9-1.3-2-1.9-3.4-1.9-1.3 0-2.4.6-3.2 1.7a16 16 0 0 0-1.4 7.9z" class="st4"/></g><path d="M221.4 213.4c0-2.8.3-5 .9-6.7.6-1.7 1.4-3 2.5-3.9a6.5 6.5 0 0 1 4.3-1.4 6.7 6.7 0 0 1 5.7 3c.6 1 1.1 2.1 1.5 3.5s.5 3.2.5 5.5c0 2.8-.3 5-.8 6.7-.6 1.7-1.4 3-2.5 3.9a6.5 6.5 0 0 1-4.3 1.4c-2.3 0-4-.8-5.3-2.4-1.8-2-2.5-5.2-2.5-9.6zm2.9 0c0 3.9.5 6.4 1.4 7.7.9 1.3 2 1.9 3.3 1.9 1.3 0 2.4-.6 3.3-1.9s1.4-3.8 1.4-7.7c0-3.9-.5-6.4-1.4-7.7-.9-1.3-2-1.9-3.4-1.9-1.3 0-2.4.6-3.2 1.7a16 16 0 0 0-1.4 7.9z" class="st3"/><g class="st3"><path d="M221.4 213.4c0-2.8.3-5 .9-6.7.6-1.7 1.4-3 2.5-3.9a6.5 6.5 0 0 1 4.3-1.4 6.7 6.7 0 0 1 5.7 3c.6 1 1.1 2.1 1.5 3.5s.5 3.2.5 5.5c0 2.8-.3 5-.8 6.7-.6 1.7-1.4 3-2.5 3.9a6.5 6.5 0 0 1-4.3 1.4c-2.3 0-4-.8-5.3-2.4-1.8-2-2.5-5.2-2.5-9.6zm2.9 0c0 3.9.5 6.4 1.4 7.7.9 1.3 2 1.9 3.3 1.9 1.3 0 2.4-.6 3.3-1.9s1.4-3.8 1.4-7.7c0-3.9-.5-6.4-1.4-7.7-.9-1.3-2-1.9-3.4-1.9-1.3 0-2.4.6-3.2 1.7a16 16 0 0 0-1.4 7.9z" class="st4"/></g><path d="M127.4 258.4c0-2.8.3-5 .9-6.7.6-1.7 1.4-3 2.5-3.9a6.5 6.5 0 0 1 4.3-1.4 6.7 6.7 0 0 1 5.7 3c.6 1 1.1 2.1 1.5 3.5.4 1.4.5 3.2.5 5.5 0 2.8-.3 5-.8 6.7-.6 1.7-1.4 3-2.5 3.9a6.5 6.5 0 0 1-4.3 1.4c-2.3 0-4-.8-5.3-2.4-1.8-2-2.5-5.2-2.5-9.6zm2.9 0c0 3.9.5 6.4 1.4 7.7.9 1.3 2 1.9 3.3 1.9 1.3 0 2.4-.6 3.3-1.9s1.4-3.8 1.4-7.7c0-3.9-.5-6.4-1.4-7.7-.9-1.3-2-1.9-3.4-1.9-1.3 0-2.4.6-3.2 1.7a16 16 0 0 0-1.4 7.9z" class="st3"/><g class="st3"><path d="M127.4 258.4c0-2.8.3-5 .9-6.7.6-1.7 1.4-3 2.5-3.9a6.5 6.5 0 0 1 4.3-1.4 6.7 6.7 0 0 1 5.7 3c.6 1 1.1 2.1 1.5 3.5.4 1.4.5 3.2.5 5.5 0 2.8-.3 5-.8 6.7-.6 1.7-1.4 3-2.5 3.9a6.5 6.5 0 0 1-4.3 1.4c-2.3 0-4-.8-5.3-2.4-1.8-2-2.5-5.2-2.5-9.6zm2.9 0c0 3.9.5 6.4 1.4 7.7.9 1.3 2 1.9 3.3 1.9 1.3 0 2.4-.6 3.3-1.9s1.4-3.8 1.4-7.7c0-3.9-.5-6.4-1.4-7.7-.9-1.3-2-1.9-3.4-1.9-1.3 0-2.4.6-3.2 1.7a16 16 0 0 0-1.4 7.9z" class="st4"/></g><path d="M91.3 226h-3.4v-21.5c-.8.8-1.9 1.5-3.2 2.3-1.3.8-2.5 1.4-3.5 1.7v-3.3c1.9-.9 3.5-2 4.9-3.2 1.4-1.3 2.4-2.5 3-3.7h2.2V226z" class="st3"/><g class="st3"><path d="M91.3 226h-3.4v-21.5c-.8.8-1.9 1.5-3.2 2.3-1.3.8-2.5 1.4-3.5 1.7v-3.3c1.9-.9 3.5-2 4.9-3.2 1.4-1.3 2.4-2.5 3-3.7h2.2V226z" class="st4"/></g><path d="M138.3 226h-3.4v-21.5c-.8.8-1.9 1.5-3.2 2.3-1.3.8-2.5 1.4-3.5 1.7v-3.3c1.9-.9 3.5-2 4.9-3.2 1.4-1.3 2.4-2.5 3-3.7h2.2V226z" class="st3"/><g class="st3"><path d="M138.3 226h-3.4v-21.5c-.8.8-1.9 1.5-3.2 2.3-1.3.8-2.5 1.4-3.5 1.7v-3.3c1.9-.9 3.5-2 4.9-3.2 1.4-1.3 2.4-2.5 3-3.7h2.2V226z" class="st4"/></g><path d="M184.3 226h-3.4v-21.5c-.8.8-1.9 1.5-3.2 2.3-1.3.8-2.5 1.4-3.5 1.7v-3.3c1.9-.9 3.5-2 4.9-3.2 1.4-1.3 2.4-2.5 3-3.7h2.2V226z" class="st3"/><g class="st3"><path d="M184.3 226h-3.4v-21.5c-.8.8-1.9 1.5-3.2 2.3-1.3.8-2.5 1.4-3.5 1.7v-3.3c1.9-.9 3.5-2 4.9-3.2 1.4-1.3 2.4-2.5 3-3.7h2.2V226z" class="st4"/></g><path d="M231.3 179h-3.4v-21.5c-.8.8-1.9 1.5-3.2 2.3-1.3.8-2.5 1.4-3.5 1.7v-3.3c1.9-.9 3.5-2 4.9-3.2 1.4-1.3 2.4-2.5 3-3.7h2.2V179z" class="st3"/><g class="st3"><path d="M231.3 179h-3.4v-21.5c-.8.8-1.9 1.5-3.2 2.3-1.3.8-2.5 1.4-3.5 1.7v-3.3c1.9-.9 3.5-2 4.9-3.2 1.4-1.3 2.4-2.5 3-3.7h2.2V179z" class="st4"/></g><path d="M306.6 123.4h-1.7v-10.7c-.4.4-.9.8-1.6 1.2l-1.8.9v-1.6c.9-.4 1.8-1 2.5-1.6s1.2-1.2 1.5-1.8h1.1v13.6z" class="st3"/><g class="st3"><path d="M306.6 123.4h-1.7v-10.7c-.4.4-.9.8-1.6 1.2l-1.8.9v-1.6c.9-.4 1.8-1 2.5-1.6s1.2-1.2 1.5-1.8h1.1v13.6z" class="st4"/></g><path d="M308.6 168.4v1.6h-9l.2-1.2c.2-.6.6-1.2 1.1-1.8.5-.6 1.2-1.3 2.2-2.1 1.5-1.2 2.5-2.2 3-2.9s.8-1.4.8-2c0-.7-.2-1.2-.7-1.7-.5-.5-1.1-.7-1.9-.7-.8 0-1.5.2-1.9.7-.5.5-.7 1.2-.7 2l-1.7-.2c.1-1.3.6-2.3 1.3-2.9.8-.7 1.8-1 3.1-1s2.4.4 3.1 1.1c.8.7 1.1 1.6 1.1 2.7 0 .5-.1 1.1-.3 1.6-.2.5-.6 1.1-1.1 1.7-.5.6-1.4 1.4-2.6 2.4a12.5 12.5 0 0 0-2.6 2.6h6.6z" class="st3"/><g class="st3"><path d="M308.6 168.4v1.6h-9l.2-1.2c.2-.6.6-1.2 1.1-1.8.5-.6 1.2-1.3 2.2-2.1 1.5-1.2 2.5-2.2 3-2.9s.8-1.4.8-2c0-.7-.2-1.2-.7-1.7-.5-.5-1.1-.7-1.9-.7-.8 0-1.5.2-1.9.7-.5.5-.7 1.2-.7 2l-1.7-.2c.1-1.3.6-2.3 1.3-2.9.8-.7 1.8-1 3.1-1s2.4.4 3.1 1.1c.8.7 1.1 1.6 1.1 2.7 0 .5-.1 1.1-.3 1.6-.2.5-.6 1.1-1.1 1.7-.5.6-1.4 1.4-2.6 2.4a12.5 12.5 0 0 0-2.6 2.6h6.6z" class="st4"/></g><path d="m300.8 211.4 1.7-.2c.2 1 .5 1.6 1 2.1.5.4 1 .6 1.7.6.8 0 1.5-.3 2-.8s.8-1.2.8-2-.3-1.4-.8-1.9-1.1-.8-1.9-.8l-1.2.2.2-1.5h.3c.7 0 1.4-.2 1.9-.6s.9-.9.9-1.7a2 2 0 0 0-.6-1.5c-.4-.4-1-.6-1.6-.6-.7 0-1.2.2-1.6.6s-.7 1-.8 1.8l-1.7-.3c.2-1.1.7-2 1.4-2.6a4 4 0 0 1 2.7-.9c.7 0 1.4.2 2.1.5a3.5 3.5 0 0 1 1.9 3.1 3 3 0 0 1-.5 1.6c-.3.5-.8.9-1.4 1.2.8.2 1.4.6 1.9 1.2.4.6.7 1.3.7 2.2 0 1.2-.4 2.2-1.3 3-.9.8-2 1.2-3.3 1.2-1.2 0-2.2-.4-3-1.1a4.1 4.1 0 0 1-1.5-2.8z" class="st3"/><g class="st3"><path d="m300.8 211.4 1.7-.2c.2 1 .5 1.6 1 2.1.5.4 1 .6 1.7.6.8 0 1.5-.3 2-.8s.8-1.2.8-2-.3-1.4-.8-1.9-1.1-.8-1.9-.8l-1.2.2.2-1.5h.3c.7 0 1.4-.2 1.9-.6s.9-.9.9-1.7a2 2 0 0 0-.6-1.5c-.4-.4-1-.6-1.6-.6-.7 0-1.2.2-1.6.6s-.7 1-.8 1.8l-1.7-.3c.2-1.1.7-2 1.4-2.6a4 4 0 0 1 2.7-.9c.7 0 1.4.2 2.1.5a3.5 3.5 0 0 1 1.9 3.1 3 3 0 0 1-.5 1.6c-.3.5-.8.9-1.4 1.2.8.2 1.4.6 1.9 1.2.4.6.7 1.3.7 2.2 0 1.2-.4 2.2-1.3 3-.9.8-2 1.2-3.3 1.2-1.2 0-2.2-.4-3-1.1a4.1 4.1 0 0 1-1.5-2.8z" class="st4"/></g><path d="M306.2 265v-3.3h-5.9v-1.5l6.2-8.9h1.4v8.9h1.8v1.5h-1.8v3.3h-1.7zm0-4.8V254l-4.3 6.2h4.3z" class="st3"/><g class="st3"><path d="M306.2 265v-3.3h-5.9v-1.5l6.2-8.9h1.4v8.9h1.8v1.5h-1.8v3.3h-1.7zm0-4.8V254l-4.3 6.2h4.3z" class="st4"/></g><g class="st3"><path d="M41.6 63.9v3.6h-9.5l.2-2.6c.2-1.4.6-2.8 1.2-4.1s1.3-2.9 2.3-4.7c1.6-2.7 2.6-4.9 3.2-6.5.5-1.6.8-3.1.8-4.6 0-1.5-.2-2.8-.8-3.8-.5-1-1.2-1.5-2-1.5-.9 0-1.5.5-2 1.6a11 11 0 0 0-.8 4.5l-1.8-.4c.1-2.9.6-5.1 1.4-6.6.8-1.5 1.9-2.3 3.3-2.3s2.5.8 3.3 2.5c.8 1.6 1.2 3.7 1.2 6.1 0 1.2-.1 2.4-.4 3.6s-.6 2.4-1.2 3.8l-2.7 5.4a36.7 36.7 0 0 0-2 3.9l-.7 2h7zm1.9-4.5 1.8-.5c.2 2.1.5 3.7 1 4.6.5.9 1.1 1.4 1.8 1.4.8 0 1.5-.6 2.1-1.8.6-1.2.9-2.8.9-4.6 0-1.7-.3-3.2-.8-4.3-.5-1.1-1.2-1.7-2-1.7-.3 0-.7.1-1.2.4l.2-3.3h.3c.8 0 1.4-.4 2-1.3s.9-2.1.9-3.9c0-1.4-.2-2.5-.7-3.4-.4-.9-1-1.4-1.7-1.4s-1.3.5-1.7 1.4c-.5.9-.8 2.3-.9 4.2l-1.8-.7c.2-2.5.7-4.5 1.5-5.9.8-1.4 1.7-2.1 2.9-2.1.8 0 1.5.4 2.2 1.1a6 6 0 0 1 1.5 3c.4 1.2.5 2.6.5 4 0 1.3-.2 2.5-.5 3.6s-.8 2-1.5 2.6c.8.4 1.5 1.3 2 2.6s.7 3 .7 5c0 2.7-.5 5-1.4 6.8-.9 1.9-2.1 2.8-3.5 2.8-1.3 0-2.3-.8-3.1-2.4-.9-1.6-1.4-3.7-1.5-6.2zm15.4 3.1V54H55v-3.5h3.9v-8.4h1.7v8.4h3.9V54h-3.9v8.5h-1.7zm14.2 5h-1.8V43.4c-.4.9-1 1.7-1.7 2.6-.7.9-1.3 1.5-1.9 2v-3.7c1-1 1.9-2.2 2.6-3.6.7-1.4 1.3-2.8 1.6-4.1H73v30.9zm13.8-3.6v3.6h-9.5l.2-2.6c.2-1.4.6-2.8 1.2-4.1s1.3-2.9 2.3-4.7c1.6-2.7 2.6-4.9 3.2-6.5.5-1.6.7-3.1.7-4.6 0-1.5-.2-2.8-.8-3.8-.5-1-1.2-1.5-2-1.5-.9 0-1.5.5-2 1.6a11 11 0 0 0-.8 4.5l-1.8-.4c.1-2.9.6-5.1 1.4-6.6.8-1.5 1.9-2.3 3.3-2.3s2.5.8 3.3 2.5c.8 1.6 1.2 3.7 1.2 6.1 0 1.2-.1 2.4-.4 3.6s-.6 2.4-1.2 3.8l-2.7 5.4a36.7 36.7 0 0 0-2 3.9l-.7 2h7.1zm7.5 3.6v-7.4h-6.2v-3.5l6.6-20h1.4v20h1.9v3.5h-1.9v7.4h-1.8zm0-10.8V42.8l-4.5 13.9h4.5zm9.7 5.8V54h-3.9v-3.5h3.9v-8.4h1.7v8.4h3.9V54h-3.9v8.5h-1.7zm7.6-3.1 1.8-.5c.2 2.1.5 3.7 1 4.6.5.9 1.1 1.4 1.8 1.4.8 0 1.5-.6 2.1-1.8.6-1.2.9-2.8.9-4.6 0-1.7-.3-3.2-.8-4.3-.5-1.1-1.2-1.7-2-1.7-.3 0-.7.1-1.2.4l.2-3.3h.3c.8 0 1.4-.4 2-1.3s.9-2.1.9-3.9c0-1.4-.2-2.5-.7-3.4-.4-.9-1-1.4-1.7-1.4s-1.3.5-1.7 1.4c-.5.9-.8 2.3-.9 4.2l-1.8-.7c.2-2.5.7-4.5 1.5-5.9.8-1.4 1.7-2.1 2.9-2.1.8 0 1.5.4 2.2 1.1a6 6 0 0 1 1.5 3c.4 1.2.5 2.6.5 4 0 1.3-.2 2.5-.5 3.6s-.8 2-1.5 2.6c.8.4 1.5 1.3 2 2.6s.7 3 .7 5c0 2.7-.5 5-1.4 6.8-.9 1.9-2.1 2.8-3.5 2.8-1.3 0-2.3-.8-3.1-2.4-.9-1.6-1.4-3.7-1.5-6.2z" class="st5"/></g><path fill="none" stroke="#fff" stroke-width="2.1" d="M41.6 63.9v3.6h-9.5l.2-2.6c.2-1.4.6-2.8 1.2-4.1s1.3-2.9 2.3-4.7c1.6-2.7 2.6-4.9 3.2-6.5.5-1.6.8-3.1.8-4.6 0-1.5-.2-2.8-.8-3.8-.5-1-1.2-1.5-2-1.5-.9 0-1.5.5-2 1.6a11 11 0 0 0-.8 4.5l-1.8-.4c.1-2.9.6-5.1 1.4-6.6.8-1.5 1.9-2.3 3.3-2.3s2.5.8 3.3 2.5c.8 1.6 1.2 3.7 1.2 6.1 0 1.2-.1 2.4-.4 3.6s-.6 2.4-1.2 3.8l-2.7 5.4a36.7 36.7 0 0 0-2 3.9l-.7 2h7zm1.9-4.5 1.8-.5c.2 2.1.5 3.7 1 4.6.5.9 1.1 1.4 1.8 1.4.8 0 1.5-.6 2.1-1.8.6-1.2.9-2.8.9-4.6 0-1.7-.3-3.2-.8-4.3-.5-1.1-1.2-1.7-2-1.7-.3 0-.7.1-1.2.4l.2-3.3h.3c.8 0 1.4-.4 2-1.3s.9-2.1.9-3.9c0-1.4-.2-2.5-.7-3.4-.4-.9-1-1.4-1.7-1.4s-1.3.5-1.7 1.4c-.5.9-.8 2.3-.9 4.2l-1.8-.7c.2-2.5.7-4.5 1.5-5.9.8-1.4 1.7-2.1 2.9-2.1.8 0 1.5.4 2.2 1.1a6 6 0 0 1 1.5 3c.4 1.2.5 2.6.5 4 0 1.3-.2 2.5-.5 3.6s-.8 2-1.5 2.6c.8.4 1.5 1.3 2 2.6s.7 3 .7 5c0 2.7-.5 5-1.4 6.8-.9 1.9-2.1 2.8-3.5 2.8-1.3 0-2.3-.8-3.1-2.4-.9-1.6-1.4-3.7-1.5-6.2zm15.4 3.1V54H55v-3.5h3.9v-8.4h1.7v8.4h3.9V54h-3.9v8.5h-1.7zm14.2 5h-1.8V43.4c-.4.9-1 1.7-1.7 2.6-.7.9-1.3 1.5-1.9 2v-3.7c1-1 1.9-2.2 2.6-3.6.7-1.4 1.3-2.8 1.6-4.1H73v30.9zm13.8-3.6v3.6h-9.5l.2-2.6c.2-1.4.6-2.8 1.2-4.1s1.3-2.9 2.3-4.7c1.6-2.7 2.6-4.9 3.2-6.5.5-1.6.7-3.1.7-4.6 0-1.5-.2-2.8-.8-3.8-.5-1-1.2-1.5-2-1.5-.9 0-1.5.5-2 1.6a11 11 0 0 0-.8 4.5l-1.8-.4c.1-2.9.6-5.1 1.4-6.6.8-1.5 1.9-2.3 3.3-2.3s2.5.8 3.3 2.5c.8 1.6 1.2 3.7 1.2 6.1 0 1.2-.1 2.4-.4 3.6s-.6 2.4-1.2 3.8l-2.7 5.4a36.7 36.7 0 0 0-2 3.9l-.7 2h7.1zm7.5 3.6v-7.4h-6.2v-3.5l6.6-20h1.4v20h1.9v3.5h-1.9v7.4h-1.8zm0-10.8V42.8l-4.5 13.9h4.5zm9.7 5.8V54h-3.9v-3.5h3.9v-8.4h1.7v8.4h3.9V54h-3.9v8.5h-1.7zm7.6-3.1 1.8-.5c.2 2.1.5 3.7 1 4.6.5.9 1.1 1.4 1.8 1.4.8 0 1.5-.6 2.1-1.8.6-1.2.9-2.8.9-4.6 0-1.7-.3-3.2-.8-4.3-.5-1.1-1.2-1.7-2-1.7-.3 0-.7.1-1.2.4l.2-3.3h.3c.8 0 1.4-.4 2-1.3s.9-2.1.9-3.9c0-1.4-.2-2.5-.7-3.4-.4-.9-1-1.4-1.7-1.4s-1.3.5-1.7 1.4c-.5.9-.8 2.3-.9 4.2l-1.8-.7c.2-2.5.7-4.5 1.5-5.9.8-1.4 1.7-2.1 2.9-2.1.8 0 1.5.4 2.2 1.1a6 6 0 0 1 1.5 3c.4 1.2.5 2.6.5 4 0 1.3-.2 2.5-.5 3.6s-.8 2-1.5 2.6c.8.4 1.5 1.3 2 2.6s.7 3 .7 5c0 2.7-.5 5-1.4 6.8-.9 1.9-2.1 2.8-3.5 2.8-1.3 0-2.3-.8-3.1-2.4-.9-1.6-1.4-3.7-1.5-6.2z" class="st3"/><g class="st3"><path d="M39.7 33.8v-1.2h11.1v1.2H39.7z" class="st5"/></g><path fill="none" stroke="#fff" stroke-width="1.4" d="M39.7 33.8v-1.2h11.1v1.2H39.7z" class="st3"/><path d="M26.7 200.8v-1.2h11.1v1.2H26.7z" class="st3"/><g class="st3"><path d="M26.7 200.8v-1.2h11.1v1.2H26.7z" class="st4"/></g><path d="M41.7 295.8v-1.2h11.1v1.2H41.7z" class="st3"/><g class="st3"><path d="M41.7 295.8v-1.2h11.1v1.2H41.7z" class="st4"/></g><path d="M121.7 106.8v-1.2h11.1v1.2h-11.1z" class="st3"/><g class="st3"><path d="M121.7 106.8v-1.2h11.1v1.2h-11.1z" class="st4"/></g><path d="M231.7 106.8v-1.2h11.1v1.2h-11.1z" class="st3"/><g class="st3"><path d="M231.7 106.8v-1.2h11.1v1.2h-11.1z" class="st4"/></g><path d="M90.7 106.8v-1.2h11.1v1.2H90.7z" class="st3"/><g class="st3"><path d="M90.7 106.8v-1.2h11.1v1.2H90.7z" class="st4"/></g><path d="M76.7 106.8v-1.2h11.1v1.2H76.7z" class="st3"/><g class="st3"><path d="M76.7 106.8v-1.2h11.1v1.2H76.7z" class="st4"/></g><path d="M26.7 153.8v-1.2h11.1v1.2H26.7z" class="st3"/><g class="st3"><path d="M26.7 153.8v-1.2h11.1v1.2H26.7z" class="st4"/></g><path d="M41.7 153.8v-1.2h11.1v1.2H41.7z" class="st3"/><g class="st3"><path d="M41.7 153.8v-1.2h11.1v1.2H41.7z" class="st4"/></g><path d="M299.5 311v-13.7h4.7l2.4.2c.8.2 1.5.5 2 1 .7.6 1.3 1.4 1.6 2.3a10.2 10.2 0 0 1 .1 6c-.2.8-.6 1.5-.9 2s-.8.9-1.2 1.2l-1.6.7c-.6.2-1.4.2-2.2.2h-4.9zm1.8-1.6h2.9c.9 0 1.6-.1 2.1-.3.5-.2.9-.4 1.2-.7.4-.4.8-1 1-1.7.2-.7.4-1.6.4-2.6 0-1.4-.2-2.5-.7-3.3-.5-.8-1-1.3-1.7-1.5-.5-.2-1.3-.3-2.3-.3h-2.9v10.4z" class="st3"/><g class="st3"><path d="M299.5 311v-13.7h4.7l2.4.2c.8.2 1.5.5 2 1 .7.6 1.3 1.4 1.6 2.3a10.2 10.2 0 0 1 .1 6c-.2.8-.6 1.5-.9 2s-.8.9-1.2 1.2l-1.6.7c-.6.2-1.4.2-2.2.2h-4.9zm1.8-1.6h2.9c.9 0 1.6-.1 2.1-.3.5-.2.9-.4 1.2-.7.4-.4.8-1 1-1.7.2-.7.4-1.6.4-2.6 0-1.4-.2-2.5-.7-3.3-.5-.8-1-1.3-1.7-1.5-.5-.2-1.3-.3-2.3-.3h-2.9v10.4z" class="st4"/></g></svg>