<svg xmlns="http://www.w3.org/2000/svg" version="1.1" id="Layer_1" x="0" y="0" viewBox="0 0 348 348" xml:space="preserve"><style id="style2622">.st0,.st3{fill:none;stroke:#000}.st0{stroke-width:2}.st3{stroke-miterlimit:10}</style><path class="st0" d="M342.4 6.2v336.9H4.7V6.2h337.7z" id="path2624"/><path class="st0" d="M307.6 283.8c8.4 0 15.2 7 15.2 15.6 0 4.1-1.6 8.1-4.4 11-2.8 2.9-6.7 4.6-10.7 4.6-8.4 0-15.2-7-15.2-15.6-.1-8.6 6.7-15.6 15.1-15.6zM28.1 24h294.7v190H28.1z" id="path2626"/><g aria-label="Something" transform="translate(108.277 127.217)" id="text2628" font-size="30.968" font-family="MyriadPro-Regular"><path id="path3200" d="M148.653-1.92q0 4.294-1.95 6.305-1.951 2.011-6.004 2.011-1.345 0-2.63-.196-1.27-.182-2.51-.53V2.767h.15q.696.272 2.208.665 1.512.409 3.024.409 1.452 0 2.405-.348.952-.348 1.481-.968.53-.59.756-1.421.227-.832.227-1.86v-1.542q-1.285 1.028-2.464 1.542-1.165.499-2.98.499-3.024 0-4.808-2.177-1.769-2.193-1.769-6.17 0-2.177.605-3.75.62-1.588 1.678-2.737.983-1.073 2.39-1.663 1.406-.605 2.797-.605 1.467 0 2.45.302.997.288 2.101.893l.182-.726h2.661zm-2.843-2.722v-9.209q-1.134-.514-2.117-.726-.967-.227-1.935-.227-2.344 0-3.69 1.573t-1.346 4.567q0 2.842.998 4.31.998 1.466 3.312 1.466 1.24 0 2.48-.469 1.255-.484 2.298-1.285zM129.48 0h-2.843v-9.617q0-1.164-.136-2.177-.136-1.029-.5-1.603-.377-.635-1.088-.938-.71-.317-1.845-.317-1.164 0-2.434.574-1.27.575-2.435 1.467V0h-2.843v-16.89h2.843v1.875q1.33-1.104 2.752-1.724 1.422-.62 2.919-.62 2.736 0 4.173 1.648 1.436 1.648 1.436 4.748zm-19.597-19.718h-3.206v-2.949h3.206zM109.7 0h-2.843v-16.89h2.843zm-8.347 0h-2.843v-9.617q0-1.164-.136-2.177-.136-1.029-.499-1.603-.378-.635-1.088-.938-.711-.317-1.845-.317-1.164 0-2.435.574-1.27.575-2.434 1.467V0H87.23v-23.528h2.843v8.513q1.33-1.104 2.752-1.724 1.421-.62 2.918-.62 2.737 0 4.174 1.648 1.436 1.648 1.436 4.748zm-17.57-.151q-.802.211-1.755.348-.937.136-1.678.136-2.586 0-3.931-1.391-1.346-1.392-1.346-4.461v-8.982h-1.92v-2.39h1.92v-4.853h2.843v4.854h5.867v2.389h-5.867v7.697q0 1.33.06 2.086.06.741.423 1.391.333.605.908.893.59.272 1.784.272.696 0 1.452-.197.756-.212 1.088-.348h.152zm-13.08-8H58.259q0 1.558.469 2.723.469 1.149 1.285 1.89.786.725 1.86 1.088 1.089.363 2.39.363 1.723 0 3.462-.68 1.754-.696 2.495-1.361h.151v3.1q-1.436.605-2.933 1.013-1.497.408-3.146.408-4.203 0-6.562-2.268-2.359-2.283-2.359-6.472 0-4.143 2.253-6.578 2.268-2.434 5.958-2.434 3.417 0 5.262 1.996 1.86 1.996 1.86 5.67zm-2.767-2.177q-.015-2.238-1.134-3.462-1.104-1.225-3.372-1.225-2.284 0-3.645 1.346-1.345 1.345-1.527 3.341zM51.092 0h-2.843v-9.617q0-1.089-.106-2.102-.09-1.013-.408-1.618-.348-.65-.998-.983-.65-.332-1.875-.332-1.195 0-2.39.605-1.194.59-2.388 1.512.045.347.075.816.03.454.03.907V0h-2.842v-9.617q0-1.119-.106-2.117-.09-1.013-.408-1.618-.348-.65-.998-.968-.65-.332-1.875-.332-1.165 0-2.344.574-1.165.575-2.329 1.467V0h-2.843v-16.89h2.843v1.875q1.33-1.104 2.646-1.724 1.331-.62 2.828-.62 1.724 0 2.918.726 1.21.726 1.8 2.01 1.724-1.45 3.145-2.086 1.421-.65 3.04-.65 2.782 0 4.097 1.694 1.33 1.678 1.33 4.702zM22.029-8.438q0 4.128-2.117 6.518Q17.795.469 14.242.469q-3.584 0-5.701-2.39Q6.439-4.31 6.439-8.437t2.102-6.517q2.117-2.404 5.7-2.404 3.554 0 5.671 2.404 2.117 2.39 2.117 6.517zm-2.934 0q0-3.28-1.285-4.869-1.285-1.602-3.568-1.602-2.314 0-3.6 1.602-1.27 1.588-1.27 4.87 0 3.175 1.286 4.823 1.285 1.633 3.584 1.633 2.268 0 3.553-1.618 1.3-1.633 1.3-4.839zM3.052-6.426q0 1.315-.62 2.6Q1.827-2.54.723-1.648-.487-.68-2.104-.136q-1.603.544-3.871.544-2.435 0-4.385-.453-1.936-.454-3.947-1.346v-3.75h.212q1.708 1.421 3.946 2.192 2.238.772 4.204.772 2.782 0 4.325-1.044Q-.063-4.264-.063-6.003q0-1.497-.74-2.208-.727-.71-2.224-1.104-1.134-.302-2.464-.499-1.316-.196-2.798-.499-2.994-.635-4.445-2.162-1.437-1.542-1.437-4.007 0-2.828 2.39-4.627 2.388-1.815 6.063-1.815 2.374 0 4.355.454 1.98.454 3.508 1.119v3.538h-.212q-1.285-1.088-3.387-1.8-2.087-.725-4.28-.725-2.404 0-3.87.998-1.452.998-1.452 2.57 0 1.407.726 2.208.726.802 2.555 1.225.968.212 2.752.514 1.785.303 3.025.62 2.51.666 3.78 2.011 1.27 1.346 1.27 3.766z" font-size="30.968" font-family="MyriadPro-Regular"/></g><circle class="st3" cx="173.2" cy="282.8" r="7.4" id="circle2630"/><path class="st3" d="M166.1 271.6l7.4-13.1 6.7 13.1h-3.9l-2.8-7.6-3.7 7.6zm18.3 3.7l13 7.5-13 6.7v-4l7.5-2.7-7.5-3.8zm-4.2 18.8l-7.4 13-6.7-13h3.9l2.8 7.5 3.8-7.5zm-17.5-4.6l-13-7.4 13-6.8v4l-7.5 2.8 7.5 3.7z" id="path2632"/></svg>