<svg xmlns="http://www.w3.org/2000/svg" viewBox="0 0 348 348" fill="none"><path d="M5.079 5.776h336.913v337.67H5.08z" stroke-width="2" stroke="#000"/><path d="M282.734 40.554c0-8.376 6.966-15.165 15.56-15.165 4.126 0 8.084 1.597 11.001 4.441 2.918 2.844 4.558 6.702 4.558 10.724 0 8.376-6.966 15.165-15.56 15.165-8.593 0-15.559-6.79-15.559-15.165z" stroke-width="2" stroke="#000"/><path fill="#fff" stroke="#4d4d4d" stroke-width="3" stroke-linecap="round" d="M95.775 74.761h154.93v52.113H95.775z"/><path fill="#fff" stroke="#4d4d4d" stroke-width="2" stroke-linecap="round" d="M132.394 143.775h79.343v79.343h-79.343zM236.385 144.009h79.343v79.343h-79.343zM28.873 143.54h79.343v79.343H28.873z"/><text style="line-height:1.25;-inkscape-font-specification:'Arial Bold'" x="105.345" y="112.113" font-weight="700" font-size="34.33" font-family="Arial" letter-spacing="0" word-spacing="0" fill="#000" stroke-width="2.575"><tspan x="105.345" y="112.113">SUBMIT</tspan></text></svg>