<svg xmlns="http://www.w3.org/2000/svg" fill="none" viewBox="0 0 348 348"><path fill="#fff" stroke="#000" stroke-width="2" d="M20 6h80a15 15 45 0 1 15 15v16a15 15 45 0 0 15 15h197a15 15 45 0 1 15 15v261a15 15 135 0 1-15 15H20a15 15 45 0 1-15-15V21A15 15 135 0 1 20 6z"/><path fill="#fff" stroke="#000" stroke-width="2" d="M342 76V40a15 15 45 0 0-15-15H130a15 15 135 0 0-15 15 13 13 142 0 1-15 12H5" style="font-variation-settings:normal"/><text xml:space="preserve" x="59" y="35" font-family="Comic Sans MS" font-size="18" style="line-height:1.25;-inkscape-font-specification:&quot;Comic Sans MS&quot;;text-align:center" text-anchor="middle"><tspan x="59" y="35" fill="#000" font-family="Bahnschrift" font-weight="400" style="-inkscape-font-specification:Bahnschrift">KEY CARDS</tspan></text></svg>