<svg xmlns="http://www.w3.org/2000/svg" fill="none" viewBox="0 0 348 348"><path stroke="#000" stroke-width="2" d="M5 6h337v337H5z"/><path stroke="#000" stroke-width="2" d="M283 41c0-9 7-16 15-16 4 0 8 2 11 5a15 15 0 0 1 5 11c0 8-7 15-16 15s-15-7-15-15zM13 17h262v54H13z"/><path stroke="#000" stroke-width="2" d="M20 55h250v10H20z"/><path stroke="#000" stroke-width="2.1" d="M45 86a25 25 0 0 0-25 25v191a25 25 0 0 0 25 25 25 25 0 0 0 25-25h1V111a25 25 0 0 0-26-25Z"/><circle cx="44.6" cy="99.6" r="7.1" stroke="#000" stroke-width="2"/><path stroke="#000" stroke-width="2.1" d="M31 115h28v28H31zm0 35h28v28H31zm0 34h28v28H31zm0 35h28v28H31zm0 34h28v28H31zm0 34h28v28H31z"/><path stroke="#000" stroke-width="2.1" d="M39 118h12v4H39zm0 35h12v4H39zm0 34h12v4H39zm0 34h12v4H39zm0 35h12v4H39zm0 34h12v4H39z"/><path fill="#000" d="m44 124-1 4h-4v3h3l-1 2h-3v3h3l-1 4h2l1-4h2l-1 4h2l1-4h4v-3h-3l1-2h3v-3h-3l1-4h-2l-1 4h-2l1-4h-2zm1 7h1l-1 2h-1l1-2z" color="#000"/><g fill="#000" stroke-width="1.3" color="#000"><path d="M52 131h-3l-1 3h3v1h-3l-1 5h-1l1-5h-3l-1 5h-1l1-5h-3v-1h3l1-3h-3v-2h3l1-4h2l-1 4h2l1-4h1l-1 4h3zm-4 0h-3l-1 3h3z" style="-inkscape-font-specification:sans-serif;-inkscape-stroke:none" transform="translate(-1 35)"/><path d="m45 124-1 5h-4v2h3v3h-4v2h3l-1 4h3l1-4h1l-1 4h2l1-4h4v-2h-3l1-3h3v-2h-3l1-5h-2l-1 5h-2l1-5zm1 7h1l-1 3h-1Z" style="-inkscape-font-specification:sans-serif;-inkscape-stroke:none" transform="translate(-1 35)"/></g><g fill="#000" stroke-width="1.3" color="#000"><path d="M52 131h-3l-1 3h3v1h-3l-1 5h-1l1-5h-3l-1 5h-1l1-5h-3v-1h3l1-3h-3v-2h3l1-4h2l-1 4h2l1-4h1l-1 4h3zm-4 0h-3l-1 3h3z" style="-inkscape-font-specification:sans-serif;-inkscape-stroke:none" transform="translate(-1 69)"/><path d="m45 124-1 5h-4v2h3v3h-4v2h3l-1 4h3l1-4h1l-1 4h2l1-4h4v-2h-3l1-3h3v-2h-3l1-5h-2l-1 5h-2l1-5zm1 7h1l-1 3h-1Z" style="-inkscape-font-specification:sans-serif;-inkscape-stroke:none" transform="translate(-1 69)"/></g><g fill="#000" stroke-width="1.3" color="#000"><path d="M52 131h-3l-1 3h3v1h-3l-1 5h-1l1-5h-3l-1 5h-1l1-5h-3v-1h3l1-3h-3v-2h3l1-4h2l-1 4h2l1-4h1l-1 4h3zm-4 0h-3l-1 3h3z" style="-inkscape-font-specification:sans-serif;-inkscape-stroke:none" transform="translate(-1 104)"/><path d="m45 124-1 5h-4v2h3v3h-4v2h3l-1 4h3l1-4h1l-1 4h2l1-4h4v-2h-3l1-3h3v-2h-3l1-5h-2l-1 5h-2l1-5zm1 7h1l-1 3h-1Z" style="-inkscape-font-specification:sans-serif;-inkscape-stroke:none" transform="translate(-1 104)"/></g><g fill="#000" stroke-width="1.3" color="#000"><path d="M52 131h-3l-1 3h3v1h-3l-1 5h-1l1-5h-3l-1 5h-1l1-5h-3v-1h3l1-3h-3v-2h3l1-4h2l-1 4h2l1-4h1l-1 4h3zm-4 0h-3l-1 3h3z" style="-inkscape-font-specification:sans-serif;-inkscape-stroke:none" transform="translate(-1 138)"/><path d="m45 124-1 5h-4v2h3v3h-4v2h3l-1 4h3l1-4h1l-1 4h2l1-4h4v-2h-3l1-3h3v-2h-3l1-5h-2l-1 5h-2l1-5zm1 7h1l-1 3h-1Z" style="-inkscape-font-specification:sans-serif;-inkscape-stroke:none" transform="translate(-1 138)"/></g><g fill="#000" stroke-width="1.3" color="#000"><path d="M52 131h-3l-1 3h3v1h-3l-1 5h-1l1-5h-3l-1 5h-1l1-5h-3v-1h3l1-3h-3v-2h3l1-4h2l-1 4h2l1-4h1l-1 4h3zm-4 0h-3l-1 3h3z" style="-inkscape-font-specification:sans-serif;-inkscape-stroke:none" transform="translate(-1 173)"/><path d="m45 124-1 5h-4v2h3v3h-4v2h3l-1 4h3l1-4h1l-1 4h2l1-4h4v-2h-3l1-3h3v-2h-3l1-5h-2l-1 5h-2l1-5zm1 7h1l-1 3h-1Z" style="-inkscape-font-specification:sans-serif;-inkscape-stroke:none" transform="translate(-1 173)"/></g><path stroke="#000" stroke-width="2.1" d="M109 86a25 25 0 0 0-25 25v191a25 25 0 0 0 25 25 25 25 0 0 0 25-25h1V111a25 25 0 0 0-26-25Z"/><circle cx="108.6" cy="99.6" r="7.1" stroke="#000" stroke-width="2"/><path stroke="#000" stroke-width="2.1" d="M95 115h28v28H95zm0 35h28v28H95zm0 34h28v28H95zm0 35h28v28H95zm0 34h28v28H95zm0 34h28v28H95z"/><path stroke="#000" stroke-width="2.1" d="M103 118h12v4h-12zm0 35h12v4h-12zm0 34h12v4h-12zm0 34h12v4h-12zm0 35h12v4h-12zm0 34h12v4h-12z"/><g fill="#000" stroke-width="1.3" color="#000"><path d="M52 131h-3l-1 3h3v1h-3l-1 5h-1l1-5h-3l-1 5h-1l1-5h-3v-1h3l1-3h-3v-2h3l1-4h2l-1 4h2l1-4h1l-1 4h3zm-4 0h-3l-1 3h3z" style="-inkscape-font-specification:sans-serif;-inkscape-stroke:none" transform="translate(63)"/><path d="m45 124-1 5h-4v2h3v3h-4v2h3l-1 4h3l1-4h1l-1 4h2l1-4h4v-2h-3l1-3h3v-2h-3l1-5h-2l-1 5h-2l1-5zm1 7h1l-1 3h-1Z" style="-inkscape-font-specification:sans-serif;-inkscape-stroke:none" transform="translate(63)"/></g><g fill="#000" stroke-width="1.3" color="#000"><path d="M52 131h-3l-1 3h3v1h-3l-1 5h-1l1-5h-3l-1 5h-1l1-5h-3v-1h3l1-3h-3v-2h3l1-4h2l-1 4h2l1-4h1l-1 4h3zm-4 0h-3l-1 3h3z" style="-inkscape-font-specification:sans-serif;-inkscape-stroke:none" transform="translate(63 35)"/><path d="m45 124-1 5h-4v2h3v3h-4v2h3l-1 4h3l1-4h1l-1 4h2l1-4h4v-2h-3l1-3h3v-2h-3l1-5h-2l-1 5h-2l1-5zm1 7h1l-1 3h-1Z" style="-inkscape-font-specification:sans-serif;-inkscape-stroke:none" transform="translate(63 35)"/></g><g fill="#000" stroke-width="1.3" color="#000"><path d="M52 131h-3l-1 3h3v1h-3l-1 5h-1l1-5h-3l-1 5h-1l1-5h-3v-1h3l1-3h-3v-2h3l1-4h2l-1 4h2l1-4h1l-1 4h3zm-4 0h-3l-1 3h3z" style="-inkscape-font-specification:sans-serif;-inkscape-stroke:none" transform="translate(63 69)"/><path d="m45 124-1 5h-4v2h3v3h-4v2h3l-1 4h3l1-4h1l-1 4h2l1-4h4v-2h-3l1-3h3v-2h-3l1-5h-2l-1 5h-2l1-5zm1 7h1l-1 3h-1Z" style="-inkscape-font-specification:sans-serif;-inkscape-stroke:none" transform="translate(63 69)"/></g><g fill="#000" stroke-width="1.3" color="#000"><path d="M52 131h-3l-1 3h3v1h-3l-1 5h-1l1-5h-3l-1 5h-1l1-5h-3v-1h3l1-3h-3v-2h3l1-4h2l-1 4h2l1-4h1l-1 4h3zm-4 0h-3l-1 3h3z" style="-inkscape-font-specification:sans-serif;-inkscape-stroke:none" transform="translate(63 104)"/><path d="m45 124-1 5h-4v2h3v3h-4v2h3l-1 4h3l1-4h1l-1 4h2l1-4h4v-2h-3l1-3h3v-2h-3l1-5h-2l-1 5h-2l1-5zm1 7h1l-1 3h-1Z" style="-inkscape-font-specification:sans-serif;-inkscape-stroke:none" transform="translate(63 104)"/></g><g fill="#000" stroke-width="1.3" color="#000"><path d="M52 131h-3l-1 3h3v1h-3l-1 5h-1l1-5h-3l-1 5h-1l1-5h-3v-1h3l1-3h-3v-2h3l1-4h2l-1 4h2l1-4h1l-1 4h3zm-4 0h-3l-1 3h3z" style="-inkscape-font-specification:sans-serif;-inkscape-stroke:none" transform="translate(63 138)"/><path d="m45 124-1 5h-4v2h3v3h-4v2h3l-1 4h3l1-4h1l-1 4h2l1-4h4v-2h-3l1-3h3v-2h-3l1-5h-2l-1 5h-2l1-5zm1 7h1l-1 3h-1Z" style="-inkscape-font-specification:sans-serif;-inkscape-stroke:none" transform="translate(63 138)"/></g><g fill="#000" stroke-width="1.3" color="#000"><path d="M52 131h-3l-1 3h3v1h-3l-1 5h-1l1-5h-3l-1 5h-1l1-5h-3v-1h3l1-3h-3v-2h3l1-4h2l-1 4h2l1-4h1l-1 4h3zm-4 0h-3l-1 3h3z" style="-inkscape-font-specification:sans-serif;-inkscape-stroke:none" transform="translate(63 173)"/><path d="m45 124-1 5h-4v2h3v3h-4v2h3l-1 4h3l1-4h1l-1 4h2l1-4h4v-2h-3l1-3h3v-2h-3l1-5h-2l-1 5h-2l1-5zm1 7h1l-1 3h-1Z" style="-inkscape-font-specification:sans-serif;-inkscape-stroke:none" transform="translate(63 173)"/></g><path stroke="#000" stroke-width="2.1" d="M173 86a25 25 0 0 0-25 25v191a25 25 0 0 0 25 25 25 25 0 0 0 25-25h1V111a25 25 0 0 0-26-25Z"/><circle cx="172.6" cy="99.6" r="7.1" stroke="#000" stroke-width="2"/><path stroke="#000" stroke-width="2.1" d="M159 115h28v28h-28zm0 35h28v28h-28zm0 34h28v28h-28zm0 35h28v28h-28zm0 34h28v28h-28zm0 34h28v28h-28z"/><path stroke="#000" stroke-width="2.1" d="M167 118h12v4h-12zm0 35h12v4h-12zm0 34h12v4h-12zm0 34h12v4h-12zm0 35h12v4h-12zm0 34h12v4h-12z"/><g fill="#000" stroke-width="1.3" color="#000"><path d="M52 131h-3l-1 3h3v1h-3l-1 5h-1l1-5h-3l-1 5h-1l1-5h-3v-1h3l1-3h-3v-2h3l1-4h2l-1 4h2l1-4h1l-1 4h3zm-4 0h-3l-1 3h3z" style="-inkscape-font-specification:sans-serif;-inkscape-stroke:none" transform="translate(127)"/><path d="m45 124-1 5h-4v2h3v3h-4v2h3l-1 4h3l1-4h1l-1 4h2l1-4h4v-2h-3l1-3h3v-2h-3l1-5h-2l-1 5h-2l1-5zm1 7h1l-1 3h-1Z" style="-inkscape-font-specification:sans-serif;-inkscape-stroke:none" transform="translate(127)"/></g><g fill="#000" stroke-width="1.3" color="#000"><path d="M52 131h-3l-1 3h3v1h-3l-1 5h-1l1-5h-3l-1 5h-1l1-5h-3v-1h3l1-3h-3v-2h3l1-4h2l-1 4h2l1-4h1l-1 4h3zm-4 0h-3l-1 3h3z" style="-inkscape-font-specification:sans-serif;-inkscape-stroke:none" transform="translate(127 35)"/><path d="m45 124-1 5h-4v2h3v3h-4v2h3l-1 4h3l1-4h1l-1 4h2l1-4h4v-2h-3l1-3h3v-2h-3l1-5h-2l-1 5h-2l1-5zm1 7h1l-1 3h-1Z" style="-inkscape-font-specification:sans-serif;-inkscape-stroke:none" transform="translate(127 35)"/></g><g fill="#000" stroke-width="1.3" color="#000"><path d="M52 131h-3l-1 3h3v1h-3l-1 5h-1l1-5h-3l-1 5h-1l1-5h-3v-1h3l1-3h-3v-2h3l1-4h2l-1 4h2l1-4h1l-1 4h3zm-4 0h-3l-1 3h3z" style="-inkscape-font-specification:sans-serif;-inkscape-stroke:none" transform="translate(127 69)"/><path d="m45 124-1 5h-4v2h3v3h-4v2h3l-1 4h3l1-4h1l-1 4h2l1-4h4v-2h-3l1-3h3v-2h-3l1-5h-2l-1 5h-2l1-5zm1 7h1l-1 3h-1Z" style="-inkscape-font-specification:sans-serif;-inkscape-stroke:none" transform="translate(127 69)"/></g><g fill="#000" stroke-width="1.3" color="#000"><path d="M52 131h-3l-1 3h3v1h-3l-1 5h-1l1-5h-3l-1 5h-1l1-5h-3v-1h3l1-3h-3v-2h3l1-4h2l-1 4h2l1-4h1l-1 4h3zm-4 0h-3l-1 3h3z" style="-inkscape-font-specification:sans-serif;-inkscape-stroke:none" transform="translate(127 104)"/><path d="m45 124-1 5h-4v2h3v3h-4v2h3l-1 4h3l1-4h1l-1 4h2l1-4h4v-2h-3l1-3h3v-2h-3l1-5h-2l-1 5h-2l1-5zm1 7h1l-1 3h-1Z" style="-inkscape-font-specification:sans-serif;-inkscape-stroke:none" transform="translate(127 104)"/></g><g fill="#000" stroke-width="1.3" color="#000"><path d="M52 131h-3l-1 3h3v1h-3l-1 5h-1l1-5h-3l-1 5h-1l1-5h-3v-1h3l1-3h-3v-2h3l1-4h2l-1 4h2l1-4h1l-1 4h3zm-4 0h-3l-1 3h3z" style="-inkscape-font-specification:sans-serif;-inkscape-stroke:none" transform="translate(127 138)"/><path d="m45 124-1 5h-4v2h3v3h-4v2h3l-1 4h3l1-4h1l-1 4h2l1-4h4v-2h-3l1-3h3v-2h-3l1-5h-2l-1 5h-2l1-5zm1 7h1l-1 3h-1Z" style="-inkscape-font-specification:sans-serif;-inkscape-stroke:none" transform="translate(127 138)"/></g><g fill="#000" stroke-width="1.3" color="#000"><path d="M52 131h-3l-1 3h3v1h-3l-1 5h-1l1-5h-3l-1 5h-1l1-5h-3v-1h3l1-3h-3v-2h3l1-4h2l-1 4h2l1-4h1l-1 4h3zm-4 0h-3l-1 3h3z" style="-inkscape-font-specification:sans-serif;-inkscape-stroke:none" transform="translate(127 173)"/><path d="m45 124-1 5h-4v2h3v3h-4v2h3l-1 4h3l1-4h1l-1 4h2l1-4h4v-2h-3l1-3h3v-2h-3l1-5h-2l-1 5h-2l1-5zm1 7h1l-1 3h-1Z" style="-inkscape-font-specification:sans-serif;-inkscape-stroke:none" transform="translate(127 173)"/></g><path stroke="#000" stroke-width="2.1" d="M237 86a25 25 0 0 0-25 25v191a25 25 0 0 0 25 25 25 25 0 0 0 25-25h1V111a25 25 0 0 0-26-25Z"/><circle cx="236.6" cy="99.6" r="7.1" stroke="#000" stroke-width="2"/><path stroke="#000" stroke-width="2.1" d="M223 115h28v28h-28zm0 35h28v28h-28zm0 34h28v28h-28zm0 35h28v28h-28zm0 34h28v28h-28zm0 34h28v28h-28z"/><path stroke="#000" stroke-width="2.1" d="M231 118h12v4h-12zm0 35h12v4h-12zm0 34h12v4h-12zm0 34h12v4h-12zm0 35h12v4h-12zm0 34h12v4h-12z"/><g fill="#000" stroke-width="1.3" color="#000"><path d="M52 131h-3l-1 3h3v1h-3l-1 5h-1l1-5h-3l-1 5h-1l1-5h-3v-1h3l1-3h-3v-2h3l1-4h2l-1 4h2l1-4h1l-1 4h3zm-4 0h-3l-1 3h3z" style="-inkscape-font-specification:sans-serif;-inkscape-stroke:none" transform="translate(191)"/><path d="m45 124-1 5h-4v2h3v3h-4v2h3l-1 4h3l1-4h1l-1 4h2l1-4h4v-2h-3l1-3h3v-2h-3l1-5h-2l-1 5h-2l1-5zm1 7h1l-1 3h-1Z" style="-inkscape-font-specification:sans-serif;-inkscape-stroke:none" transform="translate(191)"/></g><g fill="#000" stroke-width="1.3" color="#000"><path d="M52 131h-3l-1 3h3v1h-3l-1 5h-1l1-5h-3l-1 5h-1l1-5h-3v-1h3l1-3h-3v-2h3l1-4h2l-1 4h2l1-4h1l-1 4h3zm-4 0h-3l-1 3h3z" style="-inkscape-font-specification:sans-serif;-inkscape-stroke:none" transform="translate(191 35)"/><path d="m45 124-1 5h-4v2h3v3h-4v2h3l-1 4h3l1-4h1l-1 4h2l1-4h4v-2h-3l1-3h3v-2h-3l1-5h-2l-1 5h-2l1-5zm1 7h1l-1 3h-1Z" style="-inkscape-font-specification:sans-serif;-inkscape-stroke:none" transform="translate(191 35)"/></g><g fill="#000" stroke-width="1.3" color="#000"><path d="M52 131h-3l-1 3h3v1h-3l-1 5h-1l1-5h-3l-1 5h-1l1-5h-3v-1h3l1-3h-3v-2h3l1-4h2l-1 4h2l1-4h1l-1 4h3zm-4 0h-3l-1 3h3z" style="-inkscape-font-specification:sans-serif;-inkscape-stroke:none" transform="translate(191 69)"/><path d="m45 124-1 5h-4v2h3v3h-4v2h3l-1 4h3l1-4h1l-1 4h2l1-4h4v-2h-3l1-3h3v-2h-3l1-5h-2l-1 5h-2l1-5zm1 7h1l-1 3h-1Z" style="-inkscape-font-specification:sans-serif;-inkscape-stroke:none" transform="translate(191 69)"/></g><g fill="#000" stroke-width="1.3" color="#000"><path d="M52 131h-3l-1 3h3v1h-3l-1 5h-1l1-5h-3l-1 5h-1l1-5h-3v-1h3l1-3h-3v-2h3l1-4h2l-1 4h2l1-4h1l-1 4h3zm-4 0h-3l-1 3h3z" style="-inkscape-font-specification:sans-serif;-inkscape-stroke:none" transform="translate(191 104)"/><path d="m45 124-1 5h-4v2h3v3h-4v2h3l-1 4h3l1-4h1l-1 4h2l1-4h4v-2h-3l1-3h3v-2h-3l1-5h-2l-1 5h-2l1-5zm1 7h1l-1 3h-1Z" style="-inkscape-font-specification:sans-serif;-inkscape-stroke:none" transform="translate(191 104)"/></g><g fill="#000" stroke-width="1.3" color="#000"><path d="M52 131h-3l-1 3h3v1h-3l-1 5h-1l1-5h-3l-1 5h-1l1-5h-3v-1h3l1-3h-3v-2h3l1-4h2l-1 4h2l1-4h1l-1 4h3zm-4 0h-3l-1 3h3z" style="-inkscape-font-specification:sans-serif;-inkscape-stroke:none" transform="translate(191 138)"/><path d="m45 124-1 5h-4v2h3v3h-4v2h3l-1 4h3l1-4h1l-1 4h2l1-4h4v-2h-3l1-3h3v-2h-3l1-5h-2l-1 5h-2l1-5zm1 7h1l-1 3h-1Z" style="-inkscape-font-specification:sans-serif;-inkscape-stroke:none" transform="translate(191 138)"/></g><g fill="#000" stroke-width="1.3" color="#000"><path d="M52 131h-3l-1 3h3v1h-3l-1 5h-1l1-5h-3l-1 5h-1l1-5h-3v-1h3l1-3h-3v-2h3l1-4h2l-1 4h2l1-4h1l-1 4h3zm-4 0h-3l-1 3h3z" style="-inkscape-font-specification:sans-serif;-inkscape-stroke:none" transform="translate(191 173)"/><path d="m45 124-1 5h-4v2h3v3h-4v2h3l-1 4h3l1-4h1l-1 4h2l1-4h4v-2h-3l1-3h3v-2h-3l1-5h-2l-1 5h-2l1-5zm1 7h1l-1 3h-1Z" style="-inkscape-font-specification:sans-serif;-inkscape-stroke:none" transform="translate(191 173)"/></g><path stroke="#000" stroke-width="2.1" d="M301 86a25 25 0 0 0-25 25v191a25 25 0 0 0 25 25 25 25 0 0 0 25-25h1V111a25 25 0 0 0-26-25Z"/><circle cx="300.6" cy="99.6" r="7.1" stroke="#000" stroke-width="2"/><path stroke="#000" stroke-width="2.1" d="M287 115h28v28h-28zm0 35h28v28h-28zm0 34h28v28h-28zm0 35h28v28h-28zm0 34h28v28h-28zm0 34h28v28h-28z"/><path stroke="#000" stroke-width="2.1" d="M295 118h12v4h-12zm0 35h12v4h-12zm0 34h12v4h-12zm0 34h12v4h-12zm0 35h12v4h-12zm0 34h12v4h-12z"/><g fill="#000" stroke-width="1.3" color="#000"><path d="M52 131h-3l-1 3h3v1h-3l-1 5h-1l1-5h-3l-1 5h-1l1-5h-3v-1h3l1-3h-3v-2h3l1-4h2l-1 4h2l1-4h1l-1 4h3zm-4 0h-3l-1 3h3z" style="-inkscape-font-specification:sans-serif;-inkscape-stroke:none" transform="translate(255)"/><path d="m45 124-1 5h-4v2h3v3h-4v2h3l-1 4h3l1-4h1l-1 4h2l1-4h4v-2h-3l1-3h3v-2h-3l1-5h-2l-1 5h-2l1-5zm1 7h1l-1 3h-1Z" style="-inkscape-font-specification:sans-serif;-inkscape-stroke:none" transform="translate(255)"/></g><g fill="#000" stroke-width="1.3" color="#000"><path d="M52 131h-3l-1 3h3v1h-3l-1 5h-1l1-5h-3l-1 5h-1l1-5h-3v-1h3l1-3h-3v-2h3l1-4h2l-1 4h2l1-4h1l-1 4h3zm-4 0h-3l-1 3h3z" style="-inkscape-font-specification:sans-serif;-inkscape-stroke:none" transform="translate(255 35)"/><path d="m45 124-1 5h-4v2h3v3h-4v2h3l-1 4h3l1-4h1l-1 4h2l1-4h4v-2h-3l1-3h3v-2h-3l1-5h-2l-1 5h-2l1-5zm1 7h1l-1 3h-1Z" style="-inkscape-font-specification:sans-serif;-inkscape-stroke:none" transform="translate(255 35)"/></g><g fill="#000" stroke-width="1.3" color="#000"><path d="M52 131h-3l-1 3h3v1h-3l-1 5h-1l1-5h-3l-1 5h-1l1-5h-3v-1h3l1-3h-3v-2h3l1-4h2l-1 4h2l1-4h1l-1 4h3zm-4 0h-3l-1 3h3z" style="-inkscape-font-specification:sans-serif;-inkscape-stroke:none" transform="translate(255 69)"/><path d="m45 124-1 5h-4v2h3v3h-4v2h3l-1 4h3l1-4h1l-1 4h2l1-4h4v-2h-3l1-3h3v-2h-3l1-5h-2l-1 5h-2l1-5zm1 7h1l-1 3h-1Z" style="-inkscape-font-specification:sans-serif;-inkscape-stroke:none" transform="translate(255 69)"/></g><g fill="#000" stroke-width="1.3" color="#000"><path d="M52 131h-3l-1 3h3v1h-3l-1 5h-1l1-5h-3l-1 5h-1l1-5h-3v-1h3l1-3h-3v-2h3l1-4h2l-1 4h2l1-4h1l-1 4h3zm-4 0h-3l-1 3h3z" style="-inkscape-font-specification:sans-serif;-inkscape-stroke:none" transform="translate(255 104)"/><path d="m45 124-1 5h-4v2h3v3h-4v2h3l-1 4h3l1-4h1l-1 4h2l1-4h4v-2h-3l1-3h3v-2h-3l1-5h-2l-1 5h-2l1-5zm1 7h1l-1 3h-1Z" style="-inkscape-font-specification:sans-serif;-inkscape-stroke:none" transform="translate(255 104)"/></g><path fill="#000" d="m300 262-1 4h-4v3h3l-1 2h-3v3h3l-1 4h2l1-4h2l-1 4h2l1-4h4v-3h-3l1-2h3v-3h-3l1-4h-2l-1 4h-2l1-4h-2zm1 7h1l-1 2h-1l1-2z" color="#000"/><g fill="#000" stroke-width="1.3" color="#000"><path d="M52 131h-3l-1 3h3v1h-3l-1 5h-1l1-5h-3l-1 5h-1l1-5h-3v-1h3l1-3h-3v-2h3l1-4h2l-1 4h2l1-4h1l-1 4h3zm-4 0h-3l-1 3h3z" style="-inkscape-font-specification:sans-serif;-inkscape-stroke:none" transform="translate(255 173)"/><path d="m45 124-1 5h-4v2h3v3h-4v2h3l-1 4h3l1-4h1l-1 4h2l1-4h4v-2h-3l1-3h3v-2h-3l1-5h-2l-1 5h-2l1-5zm1 7h1l-1 3h-1Z" style="-inkscape-font-specification:sans-serif;-inkscape-stroke:none" transform="translate(255 173)"/></g><path fill="#000" d="m34 57-5 1c3 16 8 28 14 44l5-2c-7-16-11-27-14-43Zm221 1-5 2c5 11 17 16 28 21 6 3 11 5 14 8 4 3 6 6 6 11h5c0-6-3-11-8-14-4-4-9-7-15-9-11-5-22-10-25-19zm-110 0-3 4c18 13 20 22 29 39l5-2c-9-17-12-27-31-41Zm-59 0-5 1c2 10 7 17 12 22 5 6 10 11 14 19l4-2c-4-9-10-14-15-20-4-5-8-11-10-20Zm117-1-4 3c7 11 16 16 23 21l9 8c2 3 3 7 3 11h5c0-5-1-10-4-14l-10-9c-7-5-16-10-22-20z" color="#000" style="-inkscape-stroke:none"/></svg>