<svg xmlns="http://www.w3.org/2000/svg" fill="none" viewBox="0 0 348 348"><path stroke="#000" stroke-width="2" d="M5.079 5.776h336.913v337.67H5.08z"/><path stroke="#000" stroke-width="2" d="M282.734 40.554c0-8.376 6.966-15.165 15.56-15.165 4.126 0 8.084 1.597 11.001 4.441 2.918 2.844 4.558 6.702 4.558 10.724 0 8.376-6.966 15.165-15.56 15.165-8.593 0-15.559-6.79-15.559-15.165z"/><path stroke="#000" stroke-width="1.00157475" d="M32.440678 84.05085h284.59323v235.93221H32.440678z"/><circle cx="99.533897" cy="45.711864" r="16.957626" stroke="#000" stroke-width="1.00157475"/><circle cx="141.55933" cy="52.347454" r="16.957626" stroke="#000" stroke-width="1.00157475"/><circle cx="184.32204" cy="46.44915" r="16.957626" stroke="#000" stroke-width="1.00157475"/><circle cx="227.08475" cy="53.084747" r="16.957626" stroke="#000" stroke-width="1.00157475"/><path stroke="#000" d="M98.79661 62.669491c-2.385434 7.394847-4.914868 15.236091-7.372881 22.855933M116.49153 49.398305c2.24628.89851 4.91577 1.966307 7.37288 2.949152M158.51695 50.872881c2.95035-1.475175 5.8995-2.94975 8.84746-4.423729M202.01695 47.923729c2.70374 1.474767 5.40713 2.949343 8.11017 4.423728M244.04237 55.29661C256.94079 50.381947 269.838 45.467744 282.734 40.554"/></svg>