<svg xmlns="http://www.w3.org/2000/svg" height="512" width="512" fill="none"><path d="M18 18h476v476H18z" stroke="#000" stroke-width="4" stroke-miterlimit="7.5"/><circle r="22" cx="448" cy="64" stroke="#000" stroke-width="4" stroke-miterlimit="7.5"/><text style="line-height:1;-inkscape-font-specification:Oxanium;text-align:center" x="104" y="-132" font-size="53.333" font-family="Oxanium" letter-spacing="0" word-spacing="0" text-anchor="middle" fill="#000" stroke-width="4"/><circle cx="94" cy="340.001" r="14" stroke="#000" stroke-width="4" stroke-miterlimit="7.5"/><path stroke="#000" stroke-width="4" stroke-miterlimit="7.5" d="M97.999 245.999H414V306H97.999z"/><circle cx="184" cy="195.999" stroke="#000" stroke-width="4" stroke-miterlimit="7.5" r="30"/><circle cx="328" cy="195.999" r="30" stroke="#000" stroke-width="4" stroke-miterlimit="7.5"/><circle cx="216" cy="115.999" r="30" stroke="#000" stroke-width="4" stroke-linecap="round" stroke-linejoin="round" stroke-miterlimit="4.194"/><path d="M112.448 96.186L81.26 114.193V78.18z" transform="matrix(.59049 0 0 -.68185 161.878 181.584)" stroke="#000" stroke-width="6.304" stroke-miterlimit="4.194"/><path d="M258 96.458v33.121h11.898L281.797 142h31.73l23.796-45.541-23.797 20.7h-15.864l-15.865-20.7zM174 96.458v33.121h-11.899L150.203 142h-31.73L94.678 96.459l23.797 20.7h15.864l15.865-20.7z" stroke="#000" stroke-width="4" stroke-miterlimit="7.5"/><circle cx="130" cy="340.001" r="14" stroke="#000" stroke-width="4" stroke-miterlimit="7.5"/><circle cx="166" cy="340.001" r="14" stroke="#000" stroke-width="4" stroke-miterlimit="7.5"/><circle cx="202" cy="340.001" r="14" stroke="#000" stroke-width="4" stroke-miterlimit="7.5"/><circle cx="238" cy="340.001" r="14" stroke="#000" stroke-width="4" stroke-miterlimit="7.5"/><circle cx="274" cy="340.001" r="14" stroke="#000" stroke-width="4" stroke-miterlimit="7.5"/><circle cx="310" cy="340.001" r="14" stroke="#000" stroke-width="4" stroke-miterlimit="7.5"/><circle cx="346" cy="340.001" r="14" stroke="#000" stroke-width="4" stroke-miterlimit="7.5"/><circle cx="382" cy="340.001" r="14" stroke="#000" stroke-width="4" stroke-miterlimit="7.5"/><circle cx="418" cy="340.001" r="14" stroke="#000" stroke-width="4" stroke-miterlimit="7.5"/><circle cx="112" cy="376.001" r="14" stroke="#000" stroke-width="4" stroke-miterlimit="7.5"/><circle cx="148" cy="376.001" r="14" stroke="#000" stroke-width="4" stroke-miterlimit="7.5"/><circle cx="184" cy="376.001" r="14" stroke="#000" stroke-width="4" stroke-miterlimit="7.5"/><circle cx="220" cy="376.001" r="14" stroke="#000" stroke-width="4" stroke-miterlimit="7.5"/><circle cx="256" cy="376.001" r="14" stroke="#000" stroke-width="4" stroke-miterlimit="7.5"/><circle cx="292" cy="376.001" r="14" stroke="#000" stroke-width="4" stroke-miterlimit="7.5"/><circle cx="328" cy="376.001" r="14" stroke="#000" stroke-width="4" stroke-miterlimit="7.5"/><circle cx="364" cy="376.001" r="14" stroke="#000" stroke-width="4" stroke-miterlimit="7.5"/><circle cx="400" cy="376.001" r="14" stroke="#000" stroke-width="4" stroke-miterlimit="7.5"/><circle cx="130" cy="412.001" r="14" stroke="#000" stroke-width="4" stroke-miterlimit="7.5"/><circle cx="166" cy="412.001" r="14" stroke="#000" stroke-width="4" stroke-miterlimit="7.5"/><circle cx="202" cy="412.001" r="14" stroke="#000" stroke-width="4" stroke-miterlimit="7.5"/><circle cx="238" cy="412.001" r="14" stroke="#000" stroke-width="4" stroke-miterlimit="7.5"/><circle cx="274" cy="412.001" r="14" stroke="#000" stroke-width="4" stroke-miterlimit="7.5"/><circle cx="310" cy="412.001" r="14" stroke="#000" stroke-width="4" stroke-miterlimit="7.5"/><circle cx="346" cy="412.001" r="14" stroke="#000" stroke-width="4" stroke-miterlimit="7.5"/><circle cx="382" cy="412.001" r="14" stroke="#000" stroke-width="4" stroke-miterlimit="7.5"/><path d="M413.561 444.047s8.301 25.594 18.666 25.946c19.11.649 37.33-45.406 37.33-45.406l-18.665-12.973s-3.526 40.714-18.665 45.406c-7.168 2.221-18.666-12.973-18.666-12.973z" stroke="#000" stroke-width="4" stroke-miterlimit="7.5"/></svg>