<svg xmlns="http://www.w3.org/2000/svg" fill="none" viewBox="0 0 348 348"><path stroke="#000" stroke-width="2" d="M5.08 5.78h336.91v337.67H5.08z"/><path stroke="#000" stroke-width="2" d="M282.73 40.55c0-8.37 6.97-15.16 15.56-15.16 4.13 0 8.09 1.6 11 4.44a14.97 14.97 0 0 1 4.56 10.72c0 8.38-6.96 15.17-15.56 15.17-8.59 0-15.56-6.8-15.56-15.17z"/><path fill="#000" stroke="#000" stroke-width="3.78" d="M255.19 121.13h74.09v74.09h-74.09z"/><path fill="#fff" d="M292.73 154.41v-24.46h3.3v24.46zm-8.66 0v-24.46h3.3v24.46zm7.86 35.13q-4.19 0-7.6-1.84-3.4-1.81-5.27-4.85-1.3-2.1-1.88-4.7-.58-2.58-.58-6.8v-7.76h30.71v7.67q0 4.5-.66 7.14-.64 2.66-1.77 4.5-1.96 3.13-5.22 4.88-3.26 1.76-7.73 1.76zm.06-4.27q3.6 0 6.08-1.26t3.9-3.75q1.03-1.82 1.43-3.86.4-2.04.4-4.89v-3.84h-23.7v3.84q0 2.95.44 5.14.44 2.2 1.61 4.04 1.47 2.29 3.86 3.42 2.4 1.16 5.98 1.16z" aria-label="=D"/><path stroke="#000" stroke-width="3.78" d="M298.69 249.31a19.4 19.4 0 0 1-19.4 19.4 19.4 19.4 0 0 1-19.4-19.4 19.4 19.4 0 0 1 19.4-19.4 19.4 19.4 0 0 1 19.4 19.4zm34.82 33.57a19.4 19.4 0 0 1-19.4 19.4 19.4 19.4 0 0 1-19.4-19.4 19.4 19.4 0 0 1 19.4-19.4 19.4 19.4 0 0 1 19.4 19.4zm-68.56-.12a19.4 19.4 0 0 1-19.4 19.4 19.4 19.4 0 0 1-19.4-19.4 19.4 19.4 0 0 1 19.4-19.4 19.4 19.4 0 0 1 19.4 19.4zm34.81 33.58a19.4 19.4 0 0 1-19.4 19.4 19.4 19.4 0 0 1-19.4-19.4 19.4 19.4 0 0 1 19.4-19.4 19.4 19.4 0 0 1 19.4 19.4z"/><path fill="#000" stroke="#000" stroke-width="3.78" d="M13.52 14.7h229.32v229.32H13.52z"/><path fill="#fff" d="M17.05 19.4h25.87v25.87H17.05zm196.09 195.55h25.87v25.87h-25.87zm-28.89.23h25.87v25.87h-25.87zm-28.53.23h25.87v25.87h-25.87zm.17-28.75h25.87v25.87h-25.87zm-29.78 0h25.87v25.87h-25.87z"/></svg>