<svg xmlns="http://www.w3.org/2000/svg" fill="none" viewBox="0 0 348 348"><path stroke="#000" stroke-width="2" d="M5.08 5.78h336.91v337.67H5.08z"/><path stroke="#000" stroke-width="2" d="M282.73 40.55c0-8.37 6.97-15.16 15.56-15.16 4.13 0 8.09 1.6 11 4.44a14.97 14.97 0 0 1 4.56 10.72c0 8.38-6.96 15.17-15.56 15.17-8.59 0-15.56-6.8-15.56-15.17z"/><path fill="#272727" fill-rule="evenodd" d="M20.18 74.55h256.16v256.16H20.18Z"/><path fill="#404040" d="M75.36 80.03h46.4v46.4h-46.4Zm-49.7 0h46.4v46.4h-46.4Z"/><path fill="#fff" d="M125.06 80.03h46.4v46.4h-46.4Z"/><path fill="#404040" d="M174.76 80.03h46.4v46.4h-46.4z"/><path fill="#fff" d="M25.66 129.73h46.4v46.4h-46.4Zm198.8-49.7h46.4v46.4h-46.4z"/><path fill="#404040" d="M174.76 129.73h46.4v46.4h-46.4zm-49.7 0h46.4v46.4h-46.4Z"/><path fill="#fff" d="M75.36 129.73h46.4v46.4h-46.4Z"/><path fill="#404040" d="M25.66 179.43h46.4v46.4h-46.4Z"/><path fill="#fff" d="M224.45 129.73h46.41v46.4h-46.4zm-149.1 49.7h46.42v46.4H75.36Z"/><path fill="#fff" d="M-171.46 179.43h46.4v46.4h-46.4z" transform="scale(-1 1)"/><path fill="#404040" d="M224.45 179.43h46.41v46.4h-46.4zm-49.7 0h46.41v46.4h-46.4zm-49.7 49.7h46.41v46.4h-46.4Z"/><path fill="#fff" d="M75.36 229.13h46.4v46.4h-46.4Zm-49.7 0h46.4v46.4h-46.4Zm198.8 0h46.4v46.4h-46.4z"/><path fill="#404040" d="M174.76 229.13h46.4v46.4h-46.4z"/><path fill="#fff" d="M25.66 278.83h46.4v46.4h-46.4Z"/><path fill="#404040" d="M75.36 278.83h46.4v46.4h-46.4Z"/><path fill="#fff" d="M174.76 278.83h46.4v46.4h-46.4z"/><path fill="#404040" d="M125.06 278.83h46.4v46.4h-46.4Z"/><path fill="#fff" d="M224.45 278.83h46.41v46.4h-46.4z"/><path fill="#000" fill-rule="evenodd" d="M152.35 214.1a4.1 5.4 0 0 1-4.09 5.4 4.1 5.4 0 0 1-4.1-5.4 4.1 5.4 0 0 1 4.1-5.41 4.1 5.4 0 0 1 4.1 5.4" paint-order="markers fill stroke"/><path fill="#000" fill-rule="evenodd" d="M151.6 203.27a3.34 6.48 0 0 0-3.34-6.49 3.34 6.48 0 0 0-3.34 6.49 3.34 6.48 0 0 0 3.34 6.48 3.34 6.48 0 0 0 3.34-6.48" paint-order="markers fill stroke"/><path fill="#000" fill-rule="evenodd" d="M152.18 192.86c0 2.95-1.76 5.34-3.92 5.34s-3.92-2.4-3.92-5.34c0-2.95 3.92-5.34 3.92-5.34s3.92 2.39 3.92 5.34" paint-order="markers fill stroke"/><path stroke="#000" stroke-linecap="round" stroke-linejoin="round" stroke-width="1.25" d="M145.96 183.15s-4.87 4.94.13 7.1m-10.86-2.17s2.21.67 3.32 4.33 4.5 5.84 7.33 7.78m-.26 2.65c-.01.14-5.35-3.43-7.19 1.69-2.07 5.75-2.28 6.87-3.78 8.28m11.15-6.92s-6.2.96-3.94 7.34c1.56 4.4-4.45 8.23-4.28 8.88m12.98-38.96s4.87 4.94-.13 7.1m10.86-2.17s-2.21.67-3.32 4.33-4.5 5.84-7.33 7.78m.26 2.65c.02.14 5.35-3.43 7.19 1.69 2.07 5.75 2.28 6.87 3.78 8.28m-11.15-6.92s6.2.96 3.94 7.34c-1.56 4.4 4.45 8.23 4.28 8.88"/></svg>