<?xml version="1.0" encoding="UTF-8" standalone="no"?>
<svg
   xmlns:dc="http://purl.org/dc/elements/1.1/"
   xmlns:cc="http://creativecommons.org/ns#"
   xmlns:rdf="http://www.w3.org/1999/02/22-rdf-syntax-ns#"
   xmlns:svg="http://www.w3.org/2000/svg"
   xmlns="http://www.w3.org/2000/svg"
   xmlns:sodipodi="http://sodipodi.sourceforge.net/DTD/sodipodi-0.dtd"
   xmlns:inkscape="http://www.inkscape.org/namespaces/inkscape"
   viewBox="0.0 0.0 348.0 348.0"
   fill="none"
   version="1.1"
   id="svg819"
   sodipodi:docname="Lasers.svg"
   inkscape:version="0.92.2 (5c3e80d, 2017-08-06)">
  <metadata
     id="metadata825">
    <rdf:RDF>
      <cc:Work
         rdf:about="">
        <dc:format>image/svg+xml</dc:format>
        <dc:type
           rdf:resource="http://purl.org/dc/dcmitype/StillImage" />
        <dc:title></dc:title>
      </cc:Work>
    </rdf:RDF>
  </metadata>
  <defs
     id="defs823" />
  <sodipodi:namedview
     pagecolor="#ffffff"
     bordercolor="#666666"
     borderopacity="1"
     objecttolerance="10"
     gridtolerance="10"
     guidetolerance="10"
     inkscape:pageopacity="0"
     inkscape:pageshadow="2"
     inkscape:window-width="1366"
     inkscape:window-height="745"
     id="namedview821"
     showgrid="false"
     inkscape:zoom="1.6551724"
     inkscape:cx="174"
     inkscape:cy="174"
     inkscape:window-x="-8"
     inkscape:window-y="-8"
     inkscape:window-maximized="1"
     inkscape:current-layer="svg819" />
  <path
     d="M5.079 5.776h336.913v337.67H5.08z"
     stroke-width="2"
     stroke="#000"
     id="path815" />
  <path
     d="M282.734 40.554c0-8.376 6.966-15.165 15.56-15.165 4.126 0 8.084 1.597 11.001 4.441 2.918 2.844 4.558 6.702 4.558 10.724 0 8.376-6.966 15.165-15.56 15.165-8.593 0-15.559-6.79-15.559-15.165z"
     stroke-width="2"
     stroke="#000"
     id="path817" />
  <rect
     style="opacity:1;fill:none;fill-opacity:1;stroke:#000000;stroke-width:3.77952766;stroke-linecap:butt;stroke-miterlimit:4;stroke-dasharray:none;stroke-opacity:1"
     id="rect4528"
     width="269.45834"
     height="251.33333"
     x="38.527"
     y="74.909836" />
  <path
     style="opacity:1;fill:none;fill-opacity:1;stroke:#000000;stroke-width:1.50183976;stroke-linecap:butt;stroke-miterlimit:4;stroke-dasharray:none;stroke-opacity:1"
     id="path1405"
     sodipodi:type="arc"
     sodipodi:cx="172.79169"
     sodipodi:cy="120.83333"
     sodipodi:rx="19.565928"
     sodipodi:ry="18.245529"
     sodipodi:start="0"
     sodipodi:end="6.2767537"
     sodipodi:open="true"
     d="m 192.35761,120.83333 a 19.565928,18.245529 0 0 1 -19.53446,18.2455 19.565928,18.245529 0 0 1 -19.59729,-18.18683 19.565928,18.245529 0 0 1 19.47145,-18.30399 19.565928,18.245529 0 0 1 19.6599,18.12797" />
  <path
     style="opacity:1;fill:none;fill-opacity:1;stroke:#000000;stroke-width:1.50183976;stroke-linecap:butt;stroke-miterlimit:4;stroke-dasharray:none;stroke-opacity:1"
     id="path1405-1"
     sodipodi:type="arc"
     sodipodi:cx="257.97919"
     sodipodi:cy="120.83333"
     sodipodi:rx="19.565928"
     sodipodi:ry="18.245529"
     sodipodi:start="0"
     sodipodi:end="6.2767537"
     sodipodi:open="true"
     d="m 277.54511,120.83333 a 19.565928,18.245529 0 0 1 -19.53446,18.2455 19.565928,18.245529 0 0 1 -19.59729,-18.18683 19.565928,18.245529 0 0 1 19.47145,-18.30399 19.565928,18.245529 0 0 1 19.6599,18.12797" />
  <path
     style="opacity:1;fill:none;fill-opacity:1;stroke:#000000;stroke-width:1.50183976;stroke-linecap:butt;stroke-miterlimit:4;stroke-dasharray:none;stroke-opacity:1"
     id="path1405-9"
     sodipodi:type="arc"
     sodipodi:cx="88.208359"
     sodipodi:cy="120.83333"
     sodipodi:rx="19.565928"
     sodipodi:ry="18.245529"
     sodipodi:start="0"
     sodipodi:end="6.2767537"
     sodipodi:open="true"
     d="M 107.77429,120.83333 A 19.565928,18.245529 0 0 1 88.239819,139.07883 19.565928,18.245529 0 0 1 68.642532,120.892 19.565928,18.245529 0 0 1 88.113979,102.58801 19.565928,18.245529 0 0 1 107.77388,120.71598" />
  <path
     style="opacity:1;fill:none;fill-opacity:1;stroke:#000000;stroke-width:1.50183976;stroke-linecap:butt;stroke-miterlimit:4;stroke-dasharray:none;stroke-opacity:1"
     id="path1405-7"
     sodipodi:type="arc"
     sodipodi:cx="172.79169"
     sodipodi:cy="202.39583"
     sodipodi:rx="19.565928"
     sodipodi:ry="18.245529"
     sodipodi:start="0"
     sodipodi:end="6.2767537"
     sodipodi:open="true"
     d="m 192.35761,202.39583 a 19.565928,18.245529 0 0 1 -19.53446,18.2455 19.565928,18.245529 0 0 1 -19.59729,-18.18683 19.565928,18.245529 0 0 1 19.47145,-18.30399 19.565928,18.245529 0 0 1 19.6599,18.12797" />
  <path
     style="opacity:1;fill:none;fill-opacity:1;stroke:#000000;stroke-width:1.50183976;stroke-linecap:butt;stroke-miterlimit:4;stroke-dasharray:none;stroke-opacity:1"
     id="path1405-0"
     sodipodi:type="arc"
     sodipodi:cx="88.208359"
     sodipodi:cy="202.39583"
     sodipodi:rx="19.565928"
     sodipodi:ry="18.245529"
     sodipodi:start="0"
     sodipodi:end="6.2767537"
     sodipodi:open="true"
     d="M 107.77429,202.39583 A 19.565928,18.245529 0 0 1 88.239819,220.64133 19.565928,18.245529 0 0 1 68.642532,202.4545 19.565928,18.245529 0 0 1 88.113979,184.15051 19.565928,18.245529 0 0 1 107.77388,202.27848" />
  <path
     style="opacity:1;fill:none;fill-opacity:1;stroke:#000000;stroke-width:1.50183976;stroke-linecap:butt;stroke-miterlimit:4;stroke-dasharray:none;stroke-opacity:1"
     id="path1405-5"
     sodipodi:type="arc"
     sodipodi:cx="88.208359"
     sodipodi:cy="285.16666"
     sodipodi:rx="19.565928"
     sodipodi:ry="18.245529"
     sodipodi:start="0"
     sodipodi:end="6.2767537"
     sodipodi:open="true"
     d="m 107.77429,285.16666 a 19.565928,18.245529 0 0 1 -19.534471,18.2455 19.565928,18.245529 0 0 1 -19.597287,-18.18683 19.565928,18.245529 0 0 1 19.471447,-18.30399 19.565928,18.245529 0 0 1 19.659901,18.12797" />
  <path
     style="opacity:1;fill:none;fill-opacity:1;stroke:#000000;stroke-width:1.50183976;stroke-linecap:butt;stroke-miterlimit:4;stroke-dasharray:none;stroke-opacity:1"
     id="path1405-14"
     sodipodi:type="arc"
     sodipodi:cx="257.37503"
     sodipodi:cy="285.16666"
     sodipodi:rx="19.565928"
     sodipodi:ry="18.245529"
     sodipodi:start="0"
     sodipodi:end="6.2767537"
     sodipodi:open="true"
     d="m 276.94096,285.16666 a 19.565928,18.245529 0 0 1 -19.53447,18.2455 19.565928,18.245529 0 0 1 -19.59729,-18.18683 19.565928,18.245529 0 0 1 19.47145,-18.30399 19.565928,18.245529 0 0 1 19.6599,18.12797" />
  <path
     style="opacity:1;fill:none;fill-opacity:1;stroke:#000000;stroke-width:1.50183976;stroke-linecap:butt;stroke-miterlimit:4;stroke-dasharray:none;stroke-opacity:1"
     id="path1405-08"
     sodipodi:type="arc"
     sodipodi:cx="172.79169"
     sodipodi:cy="285.1666"
     sodipodi:rx="19.565928"
     sodipodi:ry="18.245529"
     sodipodi:start="0"
     sodipodi:end="6.2767537"
     sodipodi:open="true"
     d="m 192.35761,285.1666 a 19.565928,18.245529 0 0 1 -19.53446,18.2455 19.565928,18.245529 0 0 1 -19.59729,-18.18683 19.565928,18.245529 0 0 1 19.47145,-18.30399 19.565928,18.245529 0 0 1 19.6599,18.12797" />
  <path
     style="opacity:1;fill:none;fill-opacity:1;stroke:#000000;stroke-width:1.50183976;stroke-linecap:butt;stroke-miterlimit:4;stroke-dasharray:none;stroke-opacity:1"
     id="path1405-55"
     sodipodi:type="arc"
     sodipodi:cx="257.97919"
     sodipodi:cy="202.39583"
     sodipodi:rx="19.565928"
     sodipodi:ry="18.245529"
     sodipodi:start="0"
     sodipodi:end="6.2767537"
     sodipodi:open="true"
     d="m 277.54511,202.39583 a 19.565928,18.245529 0 0 1 -19.53446,18.2455 19.565928,18.245529 0 0 1 -19.59729,-18.18683 19.565928,18.245529 0 0 1 19.47145,-18.30399 19.565928,18.245529 0 0 1 19.6599,18.12797" />
  <g
     aria-label="1"
     style="font-style:normal;font-variant:normal;font-weight:normal;font-stretch:normal;font-size:26.66666603px;line-height:1.25;font-family:'special elite';-inkscape-font-specification:'special elite';letter-spacing:0px;word-spacing:0px;fill:#000000;fill-opacity:1;stroke:none"
     id="text1466">
    <path
       d="m 96.809895,129.51042 q 0,0.14323 -0.05208,0.27343 -0.05208,0.13021 -0.117187,0.26042 -0.130209,0.2474 -0.247396,0.39063 -0.104167,0.14322 -0.221354,0.20833 -0.117188,0.0781 -0.260417,0.0911 -0.130208,0.026 -0.3125,0.026 H 95.15625 q -0.104167,0.0391 -0.195313,0.0391 -0.117187,0 -0.15625,-0.10417 -0.02604,-0.0911 -0.02604,-0.20833 0,-0.0651 0,-0.11719 0.01302,-0.0651 0.01302,-0.10416 0,-0.10417 -0.03906,-0.1823 -0.02604,-0.0781 -0.143229,-0.0781 -0.195313,0 -0.3125,0.11719 -0.104167,0.10416 -0.208334,0.23437 -0.09115,0.13021 -0.208333,0.23438 -0.117187,0.11718 -0.338542,0.11718 -0.260416,0 -0.520833,-0.0781 -0.247396,-0.0781 -0.507812,-0.10417 -0.533855,-0.0391 -1.067709,-0.0521 -0.533854,-0.013 -1.067708,-0.026 -0.520833,-0.026 -1.054688,-0.0781 -0.520833,-0.0521 -1.041666,-0.16927 -0.117188,-0.026 -0.234375,-0.0391 -0.117188,-0.013 -0.221354,-0.013 -0.533854,0 -1.054688,0.11719 -0.507812,0.10416 -1.145833,0.10416 -0.429688,0 -0.859375,0.0911 -0.429688,0.0911 -0.859375,0.0911 -0.208333,0 -0.481771,-0.0781 -0.273437,-0.0911 -0.533854,-0.23438 -0.247396,-0.14323 -0.429688,-0.35156 -0.16927,-0.20833 -0.16927,-0.44271 0,-0.16927 0.15625,-0.35156 0.16927,-0.19531 0.390625,-0.36458 0.221354,-0.18229 0.442708,-0.32552 0.234375,-0.15625 0.364583,-0.2474 0.794271,0.10417 1.588542,0.23438 0.794271,0.1302 1.601562,0.1302 0.494792,0 0.78125,-0.11718 0.29948,-0.13021 0.442709,-0.33855 0.15625,-0.22135 0.195312,-0.50781 0.05208,-0.29948 0.05208,-0.63802 0,-0.19531 -0.01302,-0.39062 0,-0.19532 0,-0.41667 0,-2.03125 0.104166,-4.03646 0.117188,-2.01823 0.117188,-4.04948 0,-1.0026 -0.05208,-1.99219 -0.03906,-0.98958 -0.182292,-1.97916 -0.182292,-0.0391 -0.351563,-0.0781 -0.15625,-0.0391 -0.377604,-0.0391 -0.0651,0 -0.0651,0.013 -0.05208,-0.0521 -0.130208,-0.0521 -0.0651,-0.013 -0.130209,-0.013 -0.299479,0 -0.572916,0.0911 -0.273438,0.0781 -0.559896,0.0781 -0.07813,0 -0.130208,-0.026 -0.03906,-0.026 -0.09115,-0.0651 -0.03906,-0.0391 -0.104167,-0.0651 -0.05208,-0.026 -0.143229,-0.026 -0.429688,0 -0.859375,0.0911 -0.429688,0.0911 -0.872396,0.0911 -0.3125,0 -0.625,-0.0911 -0.299479,-0.0911 -0.546875,-0.28646 0.09115,-0.19531 0.09115,-0.46875 0,-0.20833 -0.03906,-0.40364 -0.03906,-0.20834 -0.05208,-0.41667 0.09115,0.0391 0.195313,0.0391 0.195312,0 0.364583,-0.0911 0.182292,-0.10417 0.351562,-0.22136 0.169271,-0.1302 0.351563,-0.22135 0.182292,-0.10417 0.377604,-0.10417 0.390625,0 0.768229,0.11719 0.390625,0.11719 0.78125,0.11719 0.221354,0 0.377604,-0.0781 0.15625,-0.0911 0.273438,-0.0911 0.130208,0 0.195312,0.0781 0.07813,0.0781 0.221355,0.0781 0.208333,0 0.416666,-0.0781 0.221354,-0.0781 0.429688,-0.15625 0.208333,-0.0911 0.429687,-0.16927 0.221354,-0.0781 0.455729,-0.0781 0.325521,0 0.638021,0.0781 0.325521,0.0781 0.638021,0.0781 0.169271,0 0.325521,-0.0391 h 0.01302 q -0.02604,0.0651 -0.02604,0.20834 0,0.18229 0.05208,0.32552 0.0651,0.14323 0.130209,0.29948 0.07813,0.15625 0.130208,0.3776 0.0651,0.22136 0.0651,0.5599 0,0.58593 0.02604,1.15885 0.02604,0.5599 0.02604,1.14583 0,0.29948 -0.05208,0.58594 -0.03906,0.27344 -0.169271,0.53386 0.117188,0.10416 0.143229,0.24739 0.03906,0.13021 0.03906,0.28646 v 0.20833 q 0,0.14323 0.02604,0.29948 0.03906,0.15625 0.16927,0.26042 l 0.01302,0.14323 q 0,0.16927 -0.0651,0.29948 -0.05208,0.13021 -0.117187,0.24739 -0.0651,0.11719 -0.130209,0.23438 -0.05208,0.11719 -0.05208,0.26042 0,0.29947 0.07813,0.61197 0.09115,0.29948 0.09115,0.63803 0,0.41666 -0.05208,0.83333 -0.05208,0.40364 -0.117187,0.82031 -0.0651,0.40365 -0.117188,0.82031 -0.05208,0.40365 -0.05208,0.82032 0,0.10416 -0.03906,0.16927 -0.02604,0.0651 -0.09115,0.0651 -0.01302,0 -0.09115,-0.026 0,0.33854 0.05208,0.67708 0.05208,0.33854 0.104167,0.67709 0.0651,0.32552 0.117187,0.66406 0.05208,0.33854 0.05208,0.6901 v 0.18229 l -0.01302,0.1823 q 0,0.6901 0.455729,1.01562 0.455729,0.32552 1.119792,0.32552 0.442708,0 0.664062,-0.0781 0.234375,-0.0911 0.338542,-0.19532 0.117187,-0.10416 0.182292,-0.18229 0.0651,-0.0911 0.195312,-0.0911 0.377604,0 0.768229,0.0911 0.403646,0.0781 0.78125,0.11719 0.195313,0.026 0.390625,0.026 0.195313,0 0.377604,0.0391 0.182292,0.026 0.338542,0.10417 0.15625,0.0781 0.286458,0.27344 0.130209,0.19531 0.286459,0.42969 0.16927,0.23437 0.16927,0.48177 z"
       style=""
       id="path1627" />
  </g>
  <g
     aria-label="2"
     style="font-style:normal;font-variant:normal;font-weight:normal;font-stretch:normal;font-size:26.66666603px;line-height:1.25;font-family:'special elite';-inkscape-font-specification:'special elite';letter-spacing:0px;word-spacing:0px;fill:#000000;fill-opacity:1;stroke:none"
     id="text1470">
    <path
       d="m 179.35156,125.99219 q 0,0.23437 -0.0651,0.50781 -0.0521,0.27344 -0.2474,0.42969 -0.0651,0.0651 -0.13021,0.18229 -0.0521,0.11719 -0.10416,0.23437 -0.0391,0.11719 -0.0911,0.20834 -0.0391,0.0911 -0.0781,0.0911 -0.0521,0 -0.10417,-0.013 -0.0391,-0.026 -0.10417,-0.0391 l -0.0911,0.0521 q -0.15625,0.19532 -0.44271,0.39063 -0.28646,0.18229 -0.61198,0.33854 -0.32552,0.14323 -0.66406,0.23438 -0.32552,0.0911 -0.57292,0.0911 -0.19531,0 -0.32552,-0.0391 -0.13021,-0.0521 -0.22135,-0.10417 -0.0781,-0.0651 -0.14323,-0.11719 -0.0521,-0.0521 -0.13021,-0.0521 -0.15625,0 -0.3125,0.10417 -0.14323,0.0911 -0.2474,0.0911 -0.0651,0 -0.0781,-0.0651 -0.013,-0.0781 -0.15625,-0.13021 -0.22136,-0.0781 -0.49479,-0.23437 -0.26042,-0.15625 -0.53386,-0.3125 -0.27344,-0.16927 -0.52083,-0.28646 -0.2474,-0.13021 -0.41667,-0.13021 -0.0521,0 -0.24739,-0.16927 -0.19532,-0.16927 -0.46875,-0.37761 -0.27344,-0.20833 -0.59896,-0.3776 -0.32552,-0.16927 -0.65104,-0.16927 -0.36459,0 -0.57292,0.22135 -0.20833,0.22136 -0.3125,0.53386 h -0.0781 -0.0391 q -0.16927,0 -0.29948,0.10416 -0.13021,0.10417 -0.22135,0.26042 -0.0781,0.15625 -0.11719,0.33854 -0.0391,0.16927 -0.0391,0.32552 0,0.22136 0.026,0.45573 0.0391,0.22136 0.0391,0.44271 0,0.0781 0,0.15625 0,0.0781 -0.013,0.14323 -0.15625,-0.0391 -0.32552,-0.0391 -0.16927,0 -0.32552,0.026 -0.15625,0.0391 -0.32552,0.0391 -0.26042,0 -0.37761,-0.15625 -0.11718,-0.15625 -0.19531,-0.36458 -0.10416,-0.26042 -0.27344,-0.50781 -0.16927,-0.2474 -0.35156,-0.4948 -0.16927,-0.24739 -0.29948,-0.49479 -0.11718,-0.24739 -0.11718,-0.50781 0,-0.32552 0.026,-0.65104 0.026,-0.32552 0.026,-0.66406 0,-0.27344 0.13021,-0.46875 0.14323,-0.19532 0.29948,-0.40365 0.16927,-0.20833 0.29948,-0.46875 0.14322,-0.26042 0.14322,-0.66406 0,-0.10417 0.0521,-0.15625 0.0521,-0.0651 0.11719,-0.13021 0.14322,-0.11719 0.33854,-0.41667 0.20833,-0.29948 0.45573,-0.66406 0.24739,-0.36458 0.52083,-0.74219 0.28646,-0.3776 0.58594,-0.65104 0.0781,-0.0781 0.13021,-0.10417 0.0521,-0.026 0.11718,-0.026 0.0651,0 0.13021,0.013 0.0651,0.013 0.15625,0.013 0.13021,0 0.18229,-0.0391 0.0651,-0.0391 0.0911,-0.0911 0.0391,-0.0651 0.0651,-0.13021 0.026,-0.0651 0.10417,-0.13021 0.13021,-0.10417 0.35156,-0.0911 0.22136,0.013 0.40365,-0.0651 0.13021,-0.0651 0.24739,-0.14323 0.11719,-0.0911 0.22136,-0.16927 0.11719,-0.0911 0.23437,-0.15625 0.13021,-0.0781 0.27344,-0.11719 0.48177,-0.13021 0.96354,-0.33854 0.48177,-0.22135 0.91146,-0.50781 0.44271,-0.29948 0.80729,-0.66406 0.36459,-0.37761 0.61198,-0.82032 0.0391,-0.0781 0.11719,-0.18229 0.0911,-0.10417 0.16927,-0.20833 0.0911,-0.11719 0.14323,-0.22136 0.0651,-0.11718 0.0651,-0.19531 0,-0.0781 -0.026,-0.14323 -0.026,-0.0781 -0.026,-0.15625 0,-0.0911 0.0651,-0.13021 0.0651,-0.0391 0.14323,-0.0781 0.13021,-0.0521 0.20834,-0.16927 0.0911,-0.11719 0.1302,-0.2474 0.0521,-0.14323 0.0651,-0.29948 0.026,-0.15625 0.026,-0.28646 0,-0.1302 -0.026,-0.28645 -0.013,-0.15625 -0.0651,-0.29948 -0.0391,-0.14323 -0.1302,-0.26042 -0.0911,-0.13021 -0.22136,-0.18229 -0.0391,-0.026 -0.11719,-0.0521 -0.0651,-0.026 -0.0651,-0.0911 0,-0.0521 0.026,-0.0911 0.026,-0.0521 0.026,-0.10416 0,-0.0911 -0.10416,-0.18229 -0.0911,-0.10417 -0.23438,-0.19532 -0.13021,-0.10416 -0.26041,-0.19531 -0.13021,-0.10417 -0.1823,-0.20833 -0.0651,-0.10417 -0.3125,-0.2474 -0.24739,-0.15625 -0.54687,-0.28646 -0.28646,-0.14323 -0.5599,-0.23437 -0.27343,-0.10417 -0.39062,-0.10417 -0.45573,0 -0.8724,0.16927 -0.41666,0.15625 -0.85937,0.2474 -0.3125,0.0651 -0.83334,0.13021 -0.52083,0.0521 -1.01562,0.19531 -0.48177,0.14323 -0.84636,0.41667 -0.35156,0.27343 -0.35156,0.7552 0,0.22136 0.13021,0.41667 0.13021,0.18229 0.32552,0.3776 0.19531,0.1823 0.42969,0.36459 0.23437,0.18229 0.42969,0.39062 0.19531,0.20834 0.32552,0.44271 0.13021,0.22136 0.13021,0.49479 0,0.33854 -0.22136,0.58594 -0.20833,0.23438 -0.52083,0.39063 -0.29948,0.15625 -0.65104,0.23437 -0.33855,0.0651 -0.61198,0.0651 -0.32552,0 -0.59896,-0.0911 -0.18229,-0.0521 -0.28646,-0.0651 -0.0911,-0.026 -0.15625,-0.0521 -0.0521,-0.0391 -0.0781,-0.11719 -0.026,-0.0911 -0.0651,-0.28645 -0.0391,-0.22136 -0.13021,-0.39063 -0.0911,-0.18229 -0.18229,-0.35156 -0.0781,-0.18229 -0.14323,-0.36459 -0.0651,-0.19531 -0.0651,-0.4427 0,-0.29948 0.14323,-0.74219 0.15625,-0.44271 0.3776,-0.89844 0.22136,-0.45573 0.46875,-0.84635 0.26042,-0.40365 0.48177,-0.61198 0.0911,-0.0911 0.14323,-0.19531 0.0521,-0.11719 0.10417,-0.20834 0.0651,-0.10416 0.15625,-0.16927 0.0911,-0.0651 0.27344,-0.0651 h 0.23437 q 0.18229,0 0.29948,-0.0521 0.11719,-0.0521 0.18229,-0.23437 0.0391,-0.11719 0.18229,-0.18229 0.14323,-0.0651 0.3125,-0.0911 0.16927,-0.026 0.33854,-0.0391 0.1823,-0.013 0.28646,-0.013 0.26042,-0.013 0.49479,-0.0781 0.2474,-0.0651 0.4948,-0.14323 0.24739,-0.0781 0.48177,-0.1302 0.24739,-0.0651 0.50781,-0.0651 l 0.20833,0.013 q 1.09375,0.0521 1.82292,0.18229 0.72917,0.13021 1.27604,0.44271 0.54688,0.3125 1.00261,0.8724 0.45572,0.55989 1.02864,1.45833 0.13021,0.22136 0.22136,0.49479 0.10416,0.26042 0.33854,0.42969 -0.15625,0.32552 -0.19532,0.67708 -0.026,0.33855 -0.0521,0.69011 -0.013,0.23437 -0.0651,0.41666 -0.0391,0.16928 -0.10417,0.32553 -0.0651,0.15625 -0.15625,0.3125 -0.0781,0.15625 -0.16927,0.36458 -0.0651,0.14323 -0.0911,0.24739 -0.026,0.0911 -0.0651,0.1823 -0.026,0.0911 -0.0911,0.16927 -0.0651,0.0651 -0.22135,0.14323 -0.15625,0.0911 -0.22135,0.20833 -0.0651,0.11719 -0.10417,0.2474 -0.0391,0.11718 -0.10417,0.23437 -0.0521,0.10417 -0.20833,0.15625 -0.3125,0.13021 -0.59896,0.33854 -0.27344,0.20834 -0.54687,0.42969 -0.26042,0.22135 -0.53386,0.41667 -0.27344,0.19531 -0.59896,0.27343 -0.36458,0.0911 -0.6901,0.27344 -0.32552,0.18229 -0.63802,0.37761 -0.3125,0.19531 -0.63802,0.3776 -0.3125,0.18229 -0.67709,0.27344 -0.14323,0.0391 -0.23437,0.11718 -0.0911,0.0651 -0.15625,0.16928 -0.0651,0.0911 -0.13021,0.19531 -0.0651,0.10416 -0.15625,0.19531 -0.14323,0.14323 -0.27344,0.18229 -0.11718,0.0391 -0.24739,0.0651 -0.13021,0.026 -0.27344,0.10416 -0.13021,0.0651 -0.28646,0.28646 -0.0781,0.11719 -0.20833,0.18229 -0.13021,0.0651 -0.2474,0.13021 -0.11719,0.0651 -0.20833,0.15625 -0.0781,0.0781 -0.0781,0.23438 0,0.11718 -0.0651,0.20833 -0.0521,0.0781 -0.11719,0.16927 -0.0651,0.0781 -0.13021,0.16927 -0.0521,0.0781 -0.0521,0.18229 0,0.0651 0.026,0.15625 0.026,0.0911 0.10417,0.19532 0.0911,0.0911 0.23437,0.15625 0.14323,0.0651 0.37761,0.0651 0.23437,0 0.46875,-0.0391 0.23437,-0.0391 0.46875,-0.0391 0.19531,0 0.36458,0.0651 0.18229,0.0521 0.35156,0.11719 0.16927,0.0651 0.33855,0.1302 0.16927,0.0521 0.33854,0.0521 0.32552,0 0.42968,-0.35156 0.0521,0.026 0.0781,0.14322 0.026,0.11719 0.0391,0.2474 0.026,0.11719 0.0521,0.23438 0.026,0.10416 0.0651,0.10416 0.0911,-0.0521 0.13021,-0.16927 0.0391,-0.13021 0.16927,-0.13021 0.0781,0 0.14323,0.0781 0.0781,0.0781 0.15625,0.16927 0.0911,0.0911 0.19531,0.16927 0.11719,0.0781 0.27344,0.0781 0.26041,0 0.55989,0.20834 0.3125,0.19531 0.63802,0.44271 0.32553,0.23437 0.65105,0.4427 0.33854,0.19532 0.65104,0.19532 0.33854,0 0.55989,-0.14323 0.23438,-0.15625 0.41667,-0.37761 0.18229,-0.22135 0.32552,-0.48177 0.15625,-0.27343 0.32552,-0.49479 0.16927,-0.22135 0.39063,-0.36458 0.22135,-0.15625 0.53385,-0.15625 0.49479,0 0.63802,0.26041 0.15625,0.2474 0.15625,0.67709 z m -3.98437,-14.67448 h -0.5599 q 0.0521,0 0.0521,0.0651 0,0.0651 -0.0391,0.11719 -0.026,-0.026 -0.026,-0.0651 0,-0.013 0,-0.013 0.013,0 0.013,-0.013 v -0.0911 l -0.013,0.18229 q -0.026,0.19531 0.0651,0.36458 0.0911,0.16927 0.3125,0.19532 0.0391,-0.15625 0.11719,-0.29948 0.0911,-0.14323 0.0911,-0.3125 z"
       style=""
       id="path1630" />
  </g>
  <g
     aria-label="3"
     style="font-style:normal;font-variant:normal;font-weight:normal;font-stretch:normal;font-size:26.66666603px;line-height:1.25;font-family:'special elite';-inkscape-font-specification:'special elite';letter-spacing:0px;word-spacing:0px;fill:#000000;fill-opacity:1;stroke:none"
     id="text1474">
    <path
       d="m 265.01824,124.63543 q 0,0.42968 -0.026,0.61198 -0.026,0.16927 -0.11719,0.24739 -0.0781,0.0781 -0.23438,0.14323 -0.15625,0.0521 -0.41666,0.2474 0.27344,0.35156 0.27344,0.78125 0,0.45573 -0.27344,0.83333 -0.26042,0.36458 -0.625,0.625 -0.33854,0.23438 -0.52084,0.58594 -0.16927,0.33854 -0.33854,0.70312 -0.52083,0.013 -0.95052,0.20834 -0.41666,0.19531 -0.82031,0.49479 -0.20833,0.14323 -0.41667,0.19531 -0.20833,0.0521 -0.44271,0.0521 -0.23437,0 -0.48177,-0.026 -0.23437,-0.026 -0.46875,-0.026 -0.41666,0 -0.83333,0.11719 -0.40364,0.13021 -0.82031,0.13021 -0.20833,0 -0.53386,-0.0651 -0.32552,-0.0521 -0.66406,-0.14323 -0.33854,-0.0781 -0.66406,-0.18229 -0.3125,-0.10417 -0.50781,-0.19531 -0.40365,-0.18229 -0.75521,-0.46875 -0.33854,-0.28646 -0.72917,-0.46875 -0.18229,-0.48177 -0.45573,-0.91146 -0.26041,-0.44271 -0.66406,-0.75521 0.0911,-0.19531 0.11719,-0.39062 0.0391,-0.20834 0.0391,-0.42969 0,-0.3776 -0.0781,-0.75521 -0.0651,-0.39062 -0.0651,-0.76823 0,-0.65104 0.35156,-1.18489 l 0.11719,0.013 q 0.22136,0 0.41667,-0.0781 0.20833,-0.0911 0.42969,-0.0911 0.32552,0 0.625,0.10416 0.3125,0.10417 0.53385,0.29948 0.23437,0.18229 0.36458,0.46875 0.14323,0.27344 0.14323,0.625 0,0.11719 -0.026,0.33854 -0.026,0.20834 -0.10417,0.41667 -0.0651,0.20833 -0.18229,0.36458 -0.11719,0.14323 -0.28646,0.14323 -0.10416,0 -0.19531,-0.0521 -0.0911,-0.0651 -0.15625,-0.14323 0,0.15625 0.026,0.44271 0.026,0.28646 0.0911,0.57292 0.0781,0.27343 0.20833,0.48177 0.13021,0.20833 0.33854,0.19531 l 0.32552,-0.013 h 0.0911 q 0.40365,0 0.82031,0.0911 0.42969,0.0911 0.88542,0.0911 0.36458,0 0.71615,0.0521 0.35156,0.0521 0.71614,0.0521 0.48177,0 0.89844,-0.13021 0.41666,-0.13021 0.78125,-0.35156 0.36458,-0.23438 0.6901,-0.52084 0.33854,-0.28646 0.66406,-0.59896 0.14323,-0.14323 0.14323,-0.27343 0,-0.0651 -0.013,-0.13021 -0.013,-0.0651 -0.013,-0.13021 0,-0.16927 0.15625,-0.36458 0.15625,-0.19532 0.33854,-0.44271 0.1823,-0.2474 0.33855,-0.54688 0.15625,-0.29948 0.15625,-0.67708 0,-0.29948 -0.0912,-0.58594 -0.0781,-0.29948 -0.0781,-0.625 0,-0.26041 -0.1302,-0.46875 -0.11719,-0.20833 -0.27344,-0.40364 -0.14323,-0.20834 -0.27344,-0.41667 -0.11719,-0.20833 -0.11719,-0.45573 0,-0.0521 0,-0.10417 0,-0.0521 0.026,-0.11718 -0.3125,-0.0781 -0.72917,-0.23438 -0.40365,-0.15625 -0.82031,-0.3125 -0.40365,-0.15625 -0.76823,-0.27344 -0.36459,-0.1302 -0.5599,-0.1302 -0.49479,0 -0.97656,0.10416 -0.48177,0.10417 -0.97656,0.10417 0,-0.0521 0.0911,-0.0911 0.10417,-0.0521 0.23438,-0.10416 0.13021,-0.0651 0.23437,-0.13021 0.10417,-0.0651 0.10417,-0.15625 0,-0.10417 -0.18229,-0.18229 -0.16927,-0.0781 -0.2474,-0.0781 -0.14323,0 -0.26041,0.0651 -0.11719,0.0521 -0.23438,0.1302 -0.11719,0.0781 -0.2474,0.14323 -0.11718,0.0521 -0.24739,0.0521 -0.10417,0 -0.19531,-0.0521 -0.0912,-0.0651 -0.15625,-0.15625 v 0.0781 0.0521 q 0,0.22136 0.1302,0.32552 0.13021,0.10417 0.35157,0.10417 h 0.0781 q -0.15625,0.24739 -0.33854,0.42969 -0.18229,0.16927 -0.49479,0.16927 -0.22136,0 -0.42969,-0.013 -0.19531,-0.026 -0.41667,-0.026 0.0521,-0.48177 0.29948,-1.01562 0.26042,-0.54688 0.625,-1.04167 0.37761,-0.50781 0.79427,-0.9375 0.42969,-0.44271 0.8073,-0.72916 0.14323,-0.11719 0.24739,-0.16927 0.10417,-0.0651 0.18229,-0.13021 0.0911,-0.0651 0.16927,-0.15625 0.0781,-0.10417 0.15625,-0.28646 0.11719,-0.26042 0.28646,-0.45573 0.18229,-0.20833 0.36459,-0.39063 0.19531,-0.19531 0.3776,-0.39062 0.19531,-0.19531 0.33854,-0.42969 0.16927,-0.0781 0.35156,-0.13021 0.1823,-0.0651 0.35157,-0.14323 0.18229,-0.0781 0.32552,-0.18229 0.15625,-0.10416 0.26041,-0.28646 -0.013,-0.46875 -0.35156,-0.625 -0.33854,-0.15625 -0.74219,-0.15625 -0.29948,0 -0.57291,0.11719 -0.26042,0.11719 -0.5599,0.11719 -0.20833,0 -0.39062,-0.0911 -0.18229,-0.0911 -0.39063,-0.0911 -0.13021,0 -0.22135,0.0651 -0.0781,0.0521 -0.19531,0.0521 -0.10417,0 -0.1823,-0.026 -0.0781,-0.0391 -0.18229,-0.0391 l -0.0781,0.0651 q -0.013,0.0651 -0.10417,0.0781 -0.0911,0.013 -0.22135,0.013 -0.1823,0 -0.37761,-0.013 -0.19531,-0.026 -0.26041,-0.026 -0.45573,0 -0.75521,0.32552 -0.28646,0.3125 -0.28646,0.75521 0,0.22135 0.026,0.42969 0.0391,0.20833 0.0391,0.42968 0,0.18229 -0.0781,0.40365 -0.0651,0.20833 -0.19531,0.39062 -0.11719,0.16927 -0.29948,0.28646 -0.16927,0.11719 -0.37761,0.11719 -0.23437,0 -0.45573,-0.10417 -0.20833,-0.11718 -0.39062,-0.24739 v -0.0651 q 0,-0.13021 0.0521,-0.23437 0.0651,-0.11719 0.13021,-0.22136 0.0781,-0.11718 0.13021,-0.22135 0.0651,-0.11719 0.0651,-0.2474 0,-0.14323 -0.10416,-0.24739 -0.0911,-0.10417 -0.0911,-0.2474 0,-0.18229 0.0781,-0.35156 0.0781,-0.16927 0.0781,-0.35156 0,-0.2474 -0.0911,-0.46875 -0.0911,-0.22136 -0.0911,-0.45573 0,-0.0781 0.0911,-0.26042 0.0911,-0.18229 0.22136,-0.3776 0.13021,-0.19532 0.26041,-0.33854 0.13021,-0.14323 0.20834,-0.14323 0.13021,0 0.24739,0.0391 0.11719,0.026 0.2474,0.026 0.35156,0 0.70312,-0.0651 0.36459,-0.0781 0.74219,-0.0781 0.29948,0 0.59896,0.013 0.3125,0.013 0.61198,0.013 0.65104,0 1.26302,-0.11718 0.625,-0.13021 1.26302,-0.13021 0.20833,0 0.40365,0.026 0.20833,0.013 0.41666,0.013 0.46875,0 0.9375,-0.0781 0.46875,-0.0781 0.9375,-0.0781 0.23438,0 0.45573,0.0391 0.23438,0.0391 0.44271,0.15625 v 0.013 q -0.0521,0.11719 -0.0521,0.28646 0,0.11719 0.0391,0.20833 0.0521,0.0911 0.10417,0.16928 0.0521,0.0781 0.0911,0.15625 0.0521,0.0781 0.0521,0.16927 0,0.10416 -0.1823,0.3776 -0.16927,0.26042 -0.40364,0.58594 -0.23438,0.3125 -0.45573,0.625 -0.20833,0.3125 -0.28646,0.49479 -0.0651,0.15625 -0.19531,0.2474 -0.11719,0.0911 -0.27344,0.15625 -0.14323,0.0521 -0.29948,0.10416 -0.15625,0.0521 -0.28646,0.14323 -0.18229,0.13021 -0.42968,0.41667 -0.2474,0.28646 -0.46875,0.625 -0.22136,0.32552 -0.37761,0.66406 -0.15625,0.32552 -0.15625,0.54688 0,0.1302 0.14323,0.28645 0.14323,0.14323 0.33854,0.28646 0.19531,0.14323 0.39063,0.27344 0.19531,0.13021 0.29948,0.22135 0.1302,0.13021 0.26041,0.15625 0.14323,0.026 0.27344,0.0391 0.14323,0.013 0.27344,0.0521 0.13021,0.0391 0.24739,0.18229 0.10417,0.13021 0.23438,0.2474 0.14323,0.10416 0.26042,0.22135 0.1302,0.11719 0.20833,0.26042 0.0911,0.13021 0.0911,0.32552 h 0.5599 v 0.3776 q 0.33854,0.22136 0.41667,0.37761 0.0781,0.14323 0.0781,0.27343 v 0.0911 q 0,0.11719 0.0651,0.18229 0.28645,0.28646 0.40364,0.54688 0.13021,0.26041 0.16927,0.53385 0.0521,0.26042 0.0781,0.54688 0.0391,0.28645 0.15625,0.63802 0.0781,0.23437 0.11719,0.46875 0.0521,0.23437 0.0521,0.46875 z m -7.46094,-12.1224 q 0,-0.0781 -0.0651,-0.13021 -0.0521,-0.0651 -0.13021,-0.0651 -0.13021,0 -0.16927,0.15625 -0.026,0.14323 -0.026,0.23437 l 0.026,-0.0521 q 0.013,0.013 0.013,0.0391 0,0.013 -0.026,0.013 0.10416,0 0.23437,-0.026 0.14323,-0.0391 0.14323,-0.16927 z"
       style=""
       id="path1624" />
  </g>
  <g
     aria-label="4"
     style="font-style:normal;font-variant:normal;font-weight:normal;font-stretch:normal;font-size:26.66666603px;line-height:1.25;font-family:'special elite';-inkscape-font-specification:'special elite';letter-spacing:0px;word-spacing:0px;fill:#000000;fill-opacity:1;stroke:none"
     id="text1478">
    <path
       d="m 94.627606,210.87239 q -0.104166,-0.013 -0.195312,-0.0651 -0.09115,-0.0651 -0.195313,-0.0651 -0.0651,0 -0.104166,0.0391 -0.02604,0.0391 -0.05208,0.0911 -0.05208,0.0781 -0.3125,0.13021 -0.247395,0.0521 -0.559895,0.0781 -0.29948,0.026 -0.585938,0.0391 -0.273437,0 -0.390625,0 -0.273437,0 -0.546875,-0.0521 -0.273437,-0.0521 -0.520833,-0.18229 -0.169271,0.10417 -0.429688,0.10417 -0.0651,0 -0.143229,0 -0.0651,-0.013 -0.130208,-0.013 -0.221354,0 -0.377604,0.10416 -0.14323,0.10417 -0.29948,0.10417 -0.117187,0 -0.221354,-0.0391 -0.104166,-0.0521 -0.195312,-0.10417 -0.09115,-0.0651 -0.182292,-0.11719 -0.07813,-0.0521 -0.15625,-0.0521 -0.07813,0 -0.143229,0.0521 -0.05208,0.0521 -0.104167,0.13021 -0.03906,0.0781 -0.07813,0.15625 -0.02604,0.0781 -0.05208,0.13021 -0.05208,-0.10417 -0.169271,-0.11719 -0.117187,-0.026 -0.247396,-0.026 -0.117187,-0.013 -0.221354,-0.0391 -0.09115,-0.0391 -0.104166,-0.18229 H 87.80469 q -0.03906,0 -0.117188,-0.013 -0.07813,-0.026 -0.07813,-0.0911 0,-0.14323 0.06511,-0.2474 0.07813,-0.11718 0.07813,-0.24739 0,-0.0651 -0.02604,-0.14323 l -0.130208,-0.013 q -0.169271,0 -0.273438,0.0911 -0.09115,0.0911 -0.169271,0.22136 -0.07813,0.11719 -0.15625,0.24739 -0.0651,0.13021 -0.195312,0.19532 -0.221354,0 -0.429688,0.0781 -0.208333,0.0651 -0.429687,0.0651 -0.143229,0 -0.299479,-0.0521 -0.14323,-0.0651 -0.273438,-0.15625 -0.130208,-0.10416 -0.208333,-0.23437 -0.07813,-0.14323 -0.07813,-0.29948 0,-0.19531 0.07813,-0.37761 0.09115,-0.18229 0.221354,-0.3125 0.286458,-0.28645 0.638021,-0.36458 0.351562,-0.0911 0.716146,-0.10417 0.364583,-0.026 0.703125,-0.0651 0.351562,-0.0521 0.611979,-0.27344 0.273437,-0.23437 0.429687,-0.71614 0.169271,-0.48177 0.169271,-1.39323 v -0.44271 q -0.273438,0.0391 -0.572917,0.0391 -0.690104,0 -1.367187,-0.11718 -0.664063,-0.11719 -1.367188,-0.11719 -0.364583,0 -0.716145,0.0911 -0.351563,0.0911 -0.716146,0.0911 -0.364584,0 -0.729167,-0.0521 -0.351562,-0.0651 -0.716146,-0.0651 -0.182291,0 -0.351562,0.0521 -0.169271,0.0391 -0.325521,0.10416 -0.15625,0.0521 -0.286458,0.10417 -0.130209,0.0391 -0.221355,0.0391 -0.195312,0 -0.442708,-0.026 -0.234375,-0.026 -0.455729,-0.10417 -0.208333,-0.0781 -0.377604,-0.22135 -0.15625,-0.14323 -0.208333,-0.39063 -0.05208,-0.22135 -0.14323,-0.45573 -0.09114,-0.23437 -0.09114,-0.46875 0,-0.0521 0.05208,-0.15625 0.05208,-0.11718 0.104167,-0.27343 0.0651,-0.15625 0.117187,-0.33854 0.05208,-0.19532 0.05208,-0.39063 0,-0.13021 0.05208,-0.29948 0.0651,-0.18229 0.15625,-0.35156 0.09115,-0.18229 0.195312,-0.33854 0.104167,-0.15625 0.195313,-0.2474 0.07813,-0.0781 0.169271,-0.11719 0.09114,-0.0391 0.195312,-0.0651 0.104167,-0.0391 0.195312,-0.0651 0.104167,-0.0391 0.182292,-0.11719 0.104167,-0.0911 0.169271,-0.20834 0.07813,-0.1302 0.143229,-0.24739 0.07813,-0.13021 0.15625,-0.2474 0.07813,-0.11718 0.195313,-0.19531 0.07813,-0.0651 0.195312,-0.13021 0.130208,-0.0781 0.130208,-0.19531 0,-0.10417 -0.03906,-0.20833 -0.03906,-0.10417 -0.03906,-0.20834 0,-0.0651 0,-0.10416 0,-0.0521 0.01302,-0.11719 0.286459,-0.0781 0.481771,-0.23438 0.195313,-0.15625 0.338542,-0.35156 0.15625,-0.19531 0.273437,-0.41667 0.130209,-0.23437 0.286459,-0.45572 0.286458,-0.44271 0.651041,-0.8073 0.377604,-0.36458 0.768229,-0.70312 0.234375,-0.19531 0.364584,-0.44271 0.143229,-0.2474 0.286458,-0.48177 0.143229,-0.23438 0.325521,-0.42969 0.182292,-0.20833 0.494792,-0.3125 -0.05208,-0.13021 -0.05208,-0.22135 0,-0.19531 0.130209,-0.32552 0.130208,-0.13021 0.273437,-0.2474 0.247396,-0.20833 0.377604,-0.39062 0.143229,-0.1823 0.273438,-0.35157 0.143229,-0.18229 0.325521,-0.35156 0.182291,-0.16927 0.520833,-0.33854 0.234375,-0.11719 0.273437,-0.2474 0.03906,-0.1302 0.05208,-0.23437 0.02604,-0.11719 0.104166,-0.18229 0.07813,-0.0781 0.377604,-0.0781 0.3125,0 0.598959,0.0911 0.299479,0.0781 0.520833,0.24739 0.221354,0.15625 0.351563,0.41667 0.143229,0.2474 0.143229,0.58594 0,0.29948 -0.07813,0.59896 -0.07813,0.28645 -0.07813,0.58593 0,0.22136 0.05208,0.44271 0.0651,0.22136 0.0651,0.44271 0,0.41667 -0.338541,0.66406 0.0651,0.0781 0.15625,0.44271 0.104166,0.35156 0.195312,0.76823 0.09115,0.41667 0.15625,0.80729 0.0651,0.37761 0.0651,0.49479 0,0.23438 -0.104166,0.45573 -0.09115,0.20834 -0.09115,0.42969 0,0.2474 0.0651,0.48177 0.0651,0.23438 0.0651,0.48177 0,0.42969 -0.05208,0.85938 -0.05208,0.41666 -0.05208,0.84635 0,0.19531 0,0.40365 0.01302,0.20833 0.06511,0.40364 0.0651,0.19532 0.182291,0.35157 0.117188,0.14322 0.338542,0.20833 0.351562,0.10417 0.768229,0.16927 0.429688,0.0521 0.833333,0.0911 0.416667,0.0391 0.78125,0.0911 0.364584,0.0391 0.585938,0.11719 0.09115,0.0391 0.15625,0.14323 0.0651,0.0911 0.104167,0.22135 0.03906,0.13021 0.05208,0.27344 0.01302,0.13021 0.01302,0.22135 v 0.0781 l -0.01302,0.26042 q -0.104167,-0.026 -0.182292,-0.026 -0.15625,0 -0.273437,0.0521 -0.104167,0.0521 -0.195313,0.13021 -0.09115,0.0651 -0.15625,0.1302 -0.0651,0.0521 -0.130208,0.0521 -0.07813,-0.14323 -0.169271,-0.27344 -0.07813,-0.14323 -0.182292,-0.26042 -0.143229,0.0781 -0.16927,0.22136 -0.01302,0.13021 -0.02604,0.26041 0,0.13021 -0.05208,0.22136 -0.03906,0.0911 -0.208334,0.0911 -0.247396,0 -0.481771,-0.026 -0.234375,-0.0391 -0.46875,-0.0391 -0.611979,0 -0.924479,0.27344 -0.299479,0.27343 -0.299479,0.89843 0,0.35157 0.117188,0.66407 0.130208,0.3125 0.273437,0.55989 0.143229,0.23438 0.260417,0.39063 0.117187,0.15625 0.117187,0.19531 0.169271,-0.10417 0.416667,-0.10417 0.182292,0 0.338542,0.0391 0.16927,0.026 0.338541,0.026 0.221354,0 0.390625,-0.11719 0.169271,-0.11719 0.273438,-0.11719 0.221354,0 0.429687,0.0781 0.208334,0.0651 0.416667,0.11718 0,0.0781 0.07813,0.13021 0.07813,0.0521 0.169271,0.11719 0.104166,0.0521 0.182291,0.13021 0.09115,0.0651 0.09115,0.19531 0,0.10417 -0.01302,0.19531 -0.01302,0.0911 -0.01302,0.19532 0,0.16927 0.0651,0.3125 0.07813,0.14323 0.09115,0.3125 z m -5.15625,-13.8151 q 0,-0.0781 -0.117187,-0.22136 -0.104167,-0.15625 -0.15625,-0.23437 -0.104167,-0.16927 -0.169271,-0.35156 -0.05208,-0.1823 -0.130208,-0.32553 -0.07813,-0.15625 -0.221354,-0.24739 -0.130209,-0.10417 -0.390625,-0.10417 l 0.02604,0.14323 q -0.260416,0.15625 -0.442708,0.39063 -0.182292,0.22135 -0.338542,0.4427 -0.15625,0.22136 -0.32552,0.41667 -0.169271,0.19531 -0.403646,0.27344 v 0.11719 q 0,0.24739 -0.09115,0.4427 -0.07813,0.19532 -0.221354,0.36459 -0.143229,0.15625 -0.325521,0.29948 -0.182292,0.13021 -0.364583,0.24739 -0.15625,0.10417 -0.247396,0.23438 -0.07813,0.13021 -0.15625,0.26041 -0.0651,0.13021 -0.143229,0.2474 -0.07813,0.11719 -0.234375,0.19531 -0.169271,0.0911 -0.221355,0.15625 -0.05208,0.0521 -0.0651,0.11719 -0.01302,0.0651 -0.02604,0.15625 0,0.0781 -0.05208,0.20833 -0.09115,0.1823 -0.208333,0.36459 -0.117188,0.16927 -0.195313,0.35156 -0.104166,0.22135 -0.234375,0.3776 -0.117187,0.15625 -0.273437,0.28646 -0.143229,0.13021 -0.299479,0.26042 -0.143229,0.13021 -0.273438,0.3125 -0.0651,0.0911 -0.208333,0.32552 -0.143229,0.23437 -0.286458,0.50781 -0.14323,0.27344 -0.260417,0.50781 -0.104167,0.23438 -0.104167,0.32553 0,0.1302 0.09115,0.20833 0.104167,0.0781 0.260417,0.13021 0.169271,0.0391 0.364583,0.0651 0.208333,0.013 0.429688,0.013 0.520833,0 0.859375,-0.026 0.338541,-0.026 0.403645,-0.026 0.260417,0 0.520834,0.0521 0.273437,0.0391 0.442708,0.2474 0.0651,0.0781 0.130208,0.16927 0.07813,0.0911 0.195313,0.0911 0.07813,0 0.130208,-0.0391 0.05208,-0.0521 0.143229,-0.0911 0.104167,-0.0521 0.273438,-0.0911 0.182292,-0.0521 0.507812,-0.0521 0.09115,0 0.273438,-0.0521 0.195312,-0.0651 0.390625,-0.14323 0.208333,-0.0781 0.403646,-0.15625 0.208333,-0.0781 0.338541,-0.10416 0.208334,-0.67709 0.416667,-1.35417 0.221354,-0.6901 0.221354,-1.41927 0,-0.32552 -0.05208,-0.63802 -0.03906,-0.32552 -0.03906,-0.66406 0,-0.18229 0.03906,-0.35157 0.05208,-0.18229 0.09115,-0.35156 0.05208,-0.18229 0.09114,-0.35156 0.05208,-0.18229 0.05208,-0.36458 0,-0.1823 -0.0651,-0.35157 -0.06511,-0.16927 -0.06511,-0.35156 0,-0.11719 0.03906,-0.23437 0.05208,-0.13021 0.104167,-0.23438 0.0651,-0.11719 0.117187,-0.20833 0.05208,-0.0911 0.05208,-0.16927 z m 0.716146,10.71614 q -0.0651,-0.10416 -0.182291,-0.14323 -0.117188,-0.0391 -0.234375,-0.0391 l -0.14323,0.0781 q 0.01302,0.0911 0.07813,0.16927 0.06511,0.0781 0.06511,0.16927 0.104166,0 0.260416,-0.0521 0.15625,-0.0521 0.15625,-0.18229 z m -6.71875,-6.27604 q 0,-0.0781 -0.0651,-0.13021 -0.05208,-0.0651 -0.117187,-0.0651 -0.143229,0 -0.169271,0.14323 -0.02604,0.14323 -0.02604,0.24739 0.09115,0 0.234375,-0.026 0.143229,-0.026 0.143229,-0.16927 z"
       style=""
       id="path1615" />
  </g>
  <g
     aria-label="5"
     style="font-style:normal;font-variant:normal;font-weight:normal;font-stretch:normal;font-size:26.66666603px;line-height:1.25;font-family:'special elite';-inkscape-font-specification:'special elite';letter-spacing:0px;word-spacing:0px;fill:#000000;fill-opacity:1;stroke:none"
     id="text1482">
    <path
       d="m 178.99219,204.14064 q 0,0.18229 -0.10416,0.35156 -0.0911,0.15625 -0.0911,0.33854 0,0.11719 0.0391,0.22135 0.0391,0.0911 0.0391,0.22136 0,0.11719 -0.0391,0.27344 -0.026,0.14322 -0.0911,0.27343 -0.0651,0.13021 -0.16927,0.22136 -0.0911,0.0911 -0.23438,0.0911 -0.0651,0 -0.10417,-0.013 l -0.013,0.0911 q 0,0.13021 0.0651,0.18229 0.0651,0.0391 0.14323,0.0651 0.0781,0.013 0.14323,0.0521 0.0651,0.026 0.0651,0.11718 0,0.10417 -0.0651,0.15625 -0.0651,0.0391 -0.14323,0.0781 -0.0781,0.0391 -0.14323,0.10417 -0.0651,0.0521 -0.0651,0.18229 0,0.15625 0.026,0.29948 0.0391,0.14323 0.0391,0.28646 0,0.0911 -0.026,0.18229 -0.026,0.0781 -0.13021,0.10416 l -0.40365,0.57292 q -0.10417,0.15625 -0.23437,0.20833 -0.13021,0.0391 -0.2474,0.0651 -0.10417,0.026 -0.18229,0.0781 -0.0781,0.0391 -0.0781,0.18229 -0.026,0.32553 -0.15625,0.54688 -0.1302,0.22135 -0.33854,0.36458 -0.20833,0.13021 -0.48177,0.19532 -0.26042,0.0651 -0.55989,0.0651 -0.27344,0 -0.54688,-0.10417 -0.0651,0.0651 -0.0651,0.15625 0,0.11719 0.16927,0.16927 0.16927,0.0391 0.26041,0.0521 -0.013,0.16927 -0.11718,0.27343 -0.0911,0.10417 -0.23438,0.16928 -0.14323,0.0521 -0.32552,0.0781 -0.18229,0.013 -0.36458,0.013 -0.23438,0 -0.44271,-0.013 -0.19531,-0.026 -0.33854,-0.026 -0.14323,0 -0.2474,0.0651 -0.10417,0.0521 -0.20833,0.13021 -0.0911,0.0651 -0.18229,0.13021 -0.0911,0.0651 -0.19532,0.0651 l -0.10416,-0.0521 q -0.0391,-0.026 -0.0911,-0.026 -0.0391,-0.013 -0.0781,-0.013 -0.1823,0 -0.36459,0.0391 -0.18229,0.026 -0.36458,0.026 -0.33854,0 -0.75521,-0.0911 -0.41667,-0.0911 -0.74219,-0.15625 -0.18229,-0.0391 -0.27343,-0.13021 -0.0911,-0.10417 -0.16927,-0.22136 -0.0651,-0.11718 -0.15625,-0.22135 -0.0911,-0.10417 -0.26042,-0.14323 -0.13021,-0.0391 -0.2474,-0.0391 -0.10416,-0.013 -0.20833,-0.026 -0.0911,-0.013 -0.19531,-0.0521 -0.0911,-0.0391 -0.19531,-0.14323 -0.14323,-0.14323 -0.23438,-0.3125 -0.0911,-0.16927 -0.18229,-0.33854 -0.0911,-0.16927 -0.20833,-0.3125 -0.11719,-0.15625 -0.3125,-0.24739 -0.13021,-0.0651 -0.2474,-0.19532 -0.10417,-0.1302 -0.11719,-0.27343 0.13021,-0.19532 0.18229,-0.36459 -0.0391,-0.15625 -0.10416,-0.19531 -0.0651,-0.0521 -0.13021,-0.0911 -0.0651,-0.0521 -0.11719,-0.14322 -0.0521,-0.10417 -0.0521,-0.36459 0,-0.26041 -0.0391,-0.50781 -0.026,-0.2474 -0.026,-0.50781 0,-0.36459 0.14323,-0.59896 0.15625,-0.2474 0.40365,-0.39063 0.24739,-0.14323 0.54687,-0.20833 0.3125,-0.0651 0.625,-0.0651 0.26042,0 0.5599,0.0521 0.3125,0.0521 0.57292,0.18229 0.27343,0.13021 0.4427,0.35156 0.1823,0.22136 0.1823,0.54688 0,0.45573 -0.11719,0.88542 -0.11719,0.42968 -0.11719,0.88541 0,0.18229 0.0651,0.35156 0.0651,0.15625 0.13021,0.32553 0.0781,0.15625 0.14323,0.32552 0.0651,0.15625 0.0651,0.32552 0,0.026 -0.013,0.0651 0,0.0391 0,0.0651 0.26041,-0.013 0.50781,-0.0391 0.24739,-0.026 0.50781,-0.026 0.33854,0 0.63802,0.13021 0.29948,0.11719 0.59896,0.11719 0.20833,0 0.40365,-0.0521 0.20833,-0.0651 0.40364,-0.1302 0.19531,-0.0651 0.39063,-0.11719 0.20833,-0.0651 0.42968,-0.0651 0.23438,0 0.39063,-0.0911 0.15625,-0.10417 0.27344,-0.23438 0.1302,-0.14323 0.26041,-0.28646 0.13021,-0.15625 0.32552,-0.24739 0.41667,-0.19531 0.72917,-0.52083 0.3125,-0.32553 0.52083,-0.71615 0.22136,-0.40365 0.32552,-0.84635 0.10417,-0.44271 0.10417,-0.89844 0,-0.53386 -0.16927,-1.08073 -0.16927,-0.5599 -0.46875,-1.08073 -0.29948,-0.53385 -0.71615,-0.98958 -0.40364,-0.46875 -0.89843,-0.8073 -0.48177,-0.35156 -1.02865,-0.54687 -0.53385,-0.20833 -1.08073,-0.20833 -0.39062,0 -0.83333,0.10416 -0.42969,0.10417 -0.80729,0.20834 -0.19532,0.0521 -0.36459,0.18229 -0.15625,0.11719 -0.3125,0.24739 -0.15625,0.13021 -0.32552,0.2474 -0.15625,0.10417 -0.36458,0.14323 -0.13021,0.13021 -0.27344,0.32552 -0.14323,0.18229 -0.3125,0.35156 -0.15625,0.16927 -0.33854,0.28646 -0.18229,0.11719 -0.39062,0.11719 -0.26042,0 -0.42969,-0.23438 -0.15625,-0.23437 -0.2474,-0.61198 -0.0911,-0.3776 -0.13021,-0.84635 -0.026,-0.46875 -0.026,-0.92448 0,-0.5599 0.026,-1.01562 0.026,-0.46875 0.026,-0.66407 0,-0.36458 -0.026,-0.71614 -0.026,-0.36459 -0.10416,-0.70313 l 0.0781,-0.013 q 0.14323,0 0.23438,0.0912 0.10416,0.0911 0.24739,0.10416 v -0.0781 q 0,-0.19531 -0.0911,-0.29948 -0.0781,-0.11719 -0.19531,-0.19531 -0.10417,-0.0781 -0.19532,-0.15625 -0.0781,-0.0912 -0.0781,-0.2474 0,-0.23437 0.013,-0.57292 0.013,-0.33854 0.0391,-0.70312 0.026,-0.3776 0.0391,-0.72917 0.026,-0.35156 0.0521,-0.59896 0.026,-0.45572 0.32552,-0.59895 0.3125,-0.14323 0.71614,-0.14323 0.41667,0 0.74219,0.0781 0.32552,0.0651 0.57292,0.14323 0.26041,0.0781 0.46875,0.15625 0.22135,0.0651 0.42968,0.0651 0.1823,0 0.36459,-0.026 0.19531,-0.026 0.3776,-0.026 0.46875,0 0.9375,0.13021 0.48177,0.11719 0.97656,0.11719 0.29948,0 0.57292,-0.0781 0.28646,-0.0781 0.57292,-0.16927 0.28646,-0.0911 0.57291,-0.16927 0.28646,-0.0781 0.59896,-0.0781 0.29948,0 0.53386,0.0911 0.27343,0.026 0.36458,0.11719 0.10417,0.0781 0.11719,0.18229 0.013,0.0912 -0.026,0.18229 -0.026,0.0911 -0.026,0.13021 0,0.0781 -0.16927,0.20833 -0.16927,0.11719 -0.39062,0.2474 -0.20833,0.11719 -0.41667,0.23438 -0.19531,0.10416 -0.27344,0.14322 -0.27343,0.29948 -0.67708,0.40365 -0.39062,0.0911 -0.78125,0.0911 -0.19531,0 -0.59896,-0.026 -0.40364,-0.0391 -0.91146,-0.0911 -0.49479,-0.0521 -1.04166,-0.11719 -0.54688,-0.0651 -1.04167,-0.13021 -0.48177,-0.0781 -0.85937,-0.14323 -0.36459,-0.0781 -0.50782,-0.1302 -0.026,0.026 -0.026,0.0521 0,0.026 0,0.0521 0,0.45573 0.10417,0.92448 0.11719,0.45573 0.11719,0.91146 l -0.013,0.10417 q -0.1823,0 -0.33855,-0.0911 -0.14322,-0.10417 -0.32552,-0.10417 l -0.0781,0.013 -0.013,0.14323 q 0,0.1823 0.0521,0.3125 0.0651,0.13021 0.15625,0.22136 0.10417,0.0911 0.23438,0.16927 0.1302,0.0651 0.27343,0.14323 0.14323,0.0781 0.23438,0.36458 0.0911,0.28646 0.14323,0.63802 0.0651,0.33854 0.10416,0.66406 0.0521,0.32553 0.11719,0.4948 0.16927,-0.0781 0.50781,-0.16927 0.33855,-0.0911 0.70313,-0.16928 0.3776,-0.0911 0.71614,-0.14322 0.33855,-0.0651 0.52084,-0.0651 0.46875,0 0.91146,0.11719 0.45573,0.10417 0.92448,0.10417 0.52083,0 0.9375,0.26041 0.41666,0.26042 0.82031,0.53386 0.0781,0.0651 0.16927,0.27343 0.10417,0.20834 0.19531,0.44271 0.10417,0.23438 0.20833,0.41667 0.11719,0.18229 0.23438,0.18229 0.10417,0 0.20833,-0.0391 0.11719,-0.0521 0.23438,-0.0521 0.32552,0 0.53385,0.23438 0.22136,0.22135 0.36459,0.54687 0.14322,0.3125 0.22135,0.66407 0.0781,0.33854 0.13021,0.57291 0.026,0.11719 0.0781,0.20834 0.0651,0.0911 0.13021,0.19531 0.0651,0.0911 0.11719,0.19531 0.0521,0.0911 0.0521,0.20834 z m -2.74739,5.33854 q 0,-0.14323 -0.14323,-0.19532 -0.14323,-0.0521 -0.26042,-0.0521 -0.10417,0 -0.2474,0.0391 -0.14322,0.0391 -0.14322,0.15625 v 0.026 h 0.1302 q 0.15625,0 0.32552,0.0391 0.16928,0.0391 0.28646,0.15625 0.0521,-0.0651 0.0521,-0.16927 z"
       style=""
       id="path1618" />
  </g>
  <g
     aria-label="6"
     style="font-style:normal;font-variant:normal;font-weight:normal;font-stretch:normal;font-size:26.66666603px;line-height:1.25;font-family:'special elite';-inkscape-font-specification:'special elite';letter-spacing:0px;word-spacing:0px;fill:#000000;fill-opacity:1;stroke:none"
     id="text1486">
    <path
       d="m 264.73437,204.23438 q -0.15625,0.3776 -0.24739,0.78125 -0.0912,0.39062 -0.16927,0.79427 -0.0651,0.40364 -0.14323,0.80729 -0.0651,0.39062 -0.18229,0.78125 -0.39063,0.18229 -0.71615,0.54687 -0.32552,0.35157 -0.65104,0.71615 -0.32552,0.35156 -0.67708,0.63802 -0.33855,0.28646 -0.76823,0.3125 -0.44271,0.0391 -0.83334,0.18229 -0.3776,0.14323 -0.7552,0.29948 -0.37761,0.15625 -0.76823,0.27344 -0.37761,0.13021 -0.8073,0.13021 -0.15625,0 -0.48177,-0.013 -0.32552,-0.013 -0.66406,-0.0651 -0.32552,-0.0521 -0.61198,-0.15625 -0.27344,-0.10417 -0.33854,-0.27344 -0.0651,-0.15625 -0.19531,-0.19531 -0.11719,-0.0521 -0.26042,-0.0651 -0.14323,-0.013 -0.29948,-0.013 -0.14323,-0.013 -0.26041,-0.0911 -0.16928,-0.10417 -0.3125,-0.2474 -0.13021,-0.15625 -0.26042,-0.3125 -0.13021,-0.15625 -0.26042,-0.29947 -0.13021,-0.15625 -0.28646,-0.26042 -0.16927,-0.10417 -0.3776,-0.16927 -0.20833,-0.0781 -0.36458,-0.19531 -0.0651,-0.0521 -0.0911,-0.13021 -0.013,-0.0911 -0.0521,-0.16927 -0.026,-0.0911 -0.0781,-0.15625 -0.0391,-0.0781 -0.14323,-0.10417 l -0.013,-0.11719 q 0,-0.27344 0.11719,-0.52083 0.11719,-0.2474 0.11719,-0.52083 0,-0.14323 -0.0911,-0.28646 -0.0781,-0.14323 -0.19531,-0.28646 -0.11719,-0.14323 -0.23438,-0.28646 -0.11718,-0.14323 -0.16927,-0.29948 -0.10416,-0.24739 -0.18229,-0.54687 -0.0781,-0.29948 -0.28646,-0.48177 -0.20833,-0.19532 -0.20833,-0.50782 0,-0.18229 0.026,-0.35156 0.026,-0.16927 0.026,-0.35156 0,-0.20834 -0.0911,-0.36459 -0.0781,-0.16927 -0.0781,-0.35156 0,-0.13021 0.10417,-0.19531 0.11719,-0.0781 0.22135,-0.10417 0,-0.11718 -0.0521,-0.18229 -0.0521,-0.0651 -0.11719,-0.10417 -0.0521,-0.0391 -0.10416,-0.0651 -0.0391,-0.026 -0.0391,-0.0651 0.0651,-0.13021 0.18229,-0.2474 0.13021,-0.13021 0.13021,-0.26042 0,-0.14323 -0.13021,-0.26041 -0.11718,-0.11719 -0.11718,-0.26042 0,-0.0391 0.026,-0.0391 0.0391,-0.013 0.0781,-0.013 0.0521,-0.013 0.0911,-0.0391 0.0391,-0.0391 0.0521,-0.1302 0.0911,-0.75521 0.20834,-1.47136 0.1302,-0.71614 0.29948,-1.45833 0.026,-0.15625 0.0391,-0.3125 0.026,-0.16927 0.026,-0.33854 0,-0.0781 0,-0.15625 0,-0.0781 -0.013,-0.15625 0.22135,-0.18229 0.44271,-0.58594 0.23437,-0.40365 0.44271,-0.80729 0.22135,-0.41667 0.41666,-0.71615 0.19531,-0.3125 0.35156,-0.3125 0.14323,0 0.27344,0.0391 0.14323,0.0391 0.28646,0.0391 0.0391,0 0.16927,0 0.13021,-0.013 0.14323,-0.0781 -0.0391,-0.0651 -0.11719,-0.10416 -0.0781,-0.0521 -0.15625,-0.10417 -0.0781,-0.0521 -0.14323,-0.10417 -0.0521,-0.0521 -0.0521,-0.13021 0,-0.0651 0.0521,-0.14323 0.0651,-0.0781 0.14323,-0.15625 0.0911,-0.0781 0.16927,-0.14322 0.0911,-0.0651 0.13021,-0.10417 0.32552,-0.27344 0.57292,-0.42969 0.24739,-0.16927 0.48177,-0.27344 0.2474,-0.11718 0.53385,-0.18229 0.28646,-0.0781 0.69011,-0.15625 0.11719,-0.026 0.13021,-0.0781 0.013,-0.0651 0.026,-0.11719 0.026,-0.0651 0.0911,-0.10417 0.0651,-0.0521 0.28646,-0.0521 0.22136,0 0.40365,-0.10417 0.18229,-0.11718 0.40364,-0.11718 h 0.58594 q 0.26042,0 0.49479,0.013 0.2474,0 0.40365,0.013 0.19531,0.026 0.36458,0.0781 0.18229,0.0521 0.35156,0.11719 0.16928,0.0521 0.33855,0.10417 0.18229,0.0391 0.39062,0.0391 0.15625,0 0.18229,0.0651 0.026,0.0651 0.0391,0.14323 0.013,0.0781 0.0521,0.14323 0.0391,0.0651 0.22135,0.0651 0.0781,0 0.14323,-0.013 0.0781,-0.026 0.16927,-0.026 0.0912,0 0.13021,0.0651 0.0521,0.0651 0.0781,0.14323 0.0391,0.0651 0.0651,0.1302 0.026,0.0651 0.0651,0.0651 0.0391,0 0.0911,-0.013 0.0521,-0.026 0.13021,-0.026 0.10417,0 0.14323,0.0651 0.0391,0.0651 0.0521,0.15625 0.026,0.0911 0.0391,0.19531 0.013,0.0911 0.0651,0.15625 0.20833,0.2474 0.36458,0.41667 0.15625,0.15625 0.26042,0.33854 0.11719,0.16927 0.16927,0.40365 0.0521,0.22135 0.0521,0.59896 0,0.33854 -0.0911,0.65104 -0.0912,0.29948 -0.2474,0.58593 -0.14323,0.28646 -0.32552,0.5599 -0.18229,0.27344 -0.36458,0.53385 -0.2474,-0.1302 -0.53386,-0.1302 -0.20833,0 -0.40364,0.0391 -0.19532,0.026 -0.39063,0.026 -0.28646,0 -0.53385,-0.13021 -0.0911,-0.19531 -0.20834,-0.3776 -0.11718,-0.19531 -0.23437,-0.39063 -0.10417,-0.19531 -0.18229,-0.40364 -0.0651,-0.20834 -0.0651,-0.42969 0,-0.18229 0.0521,-0.35156 0.0521,-0.16927 0.11718,-0.32552 0.0651,-0.16927 0.11719,-0.33855 0.0521,-0.16927 0.0521,-0.35156 0,-0.32552 -0.33854,-0.35156 -0.35156,-0.026 -0.70312,-0.10417 -0.35156,-0.0781 -0.69011,-0.0781 -0.3776,0 -0.70312,0.16927 -0.013,-0.32552 -0.11719,-0.42969 -0.10417,-0.11719 -0.24739,-0.13021 -0.14323,-0.026 -0.29948,-0.013 -0.14323,0.013 -0.26042,-0.0651 0.026,0.026 0.0781,0.0651 0.0521,0.0391 0.10417,0.0911 0.0651,0.0391 0.10417,0.0911 0.0521,0.0391 0.0521,0.0781 0,0.0651 -0.11719,0.0781 -0.11718,0.013 -0.26041,0.0521 -0.13021,0.026 -0.2474,0.10416 -0.11719,0.0651 -0.11719,0.23438 0,0.0651 0,0.11719 0.013,0.0391 0.0261,0.0911 -0.0391,-0.013 -0.14323,-0.013 -0.11719,0 -0.22136,0.0391 -0.0911,0.026 -0.19531,0.0781 -0.0912,0.0391 -0.19531,0.0781 -0.0911,0.026 -0.22136,0.026 -0.0911,0 -0.13021,-0.013 -0.11718,0.0651 -0.15625,0.11719 -0.026,0.0521 -0.026,0.11719 0,0.0651 0.013,0.14323 0.013,0.0651 0.013,0.14323 0,0.13021 -0.0651,0.22135 -0.0521,0.0781 -0.14323,0.14323 -0.0911,0.0521 -0.19531,0.10417 -0.10417,0.0521 -0.18229,0.11719 -0.41667,0.33854 -0.72917,0.83333 -0.29948,0.48177 -0.52083,1.04167 -0.20834,0.55989 -0.3125,1.14583 -0.10417,0.57292 -0.10417,1.09375 0,0.27344 0.10417,0.39062 0.10416,0.10417 0.26041,0.15625 0.16927,0.0391 0.36459,0.0651 0.19531,0.013 0.3776,0.10416 0.19531,-0.16927 0.28646,-0.32552 0.10417,-0.15625 0.19531,-0.29948 0.0911,-0.15625 0.23438,-0.27343 0.14323,-0.13021 0.42968,-0.22136 0.65105,-0.22135 1.35417,-0.36458 0.71615,-0.15625 1.40625,-0.15625 0.50781,0 1.00261,0.14323 0.50781,0.14323 0.84635,0.55989 h 0.11719 q 0.23437,0 0.57291,0.11719 0.35157,0.11719 0.70313,0.29948 0.35156,0.16927 0.65104,0.39063 0.29948,0.20833 0.42969,0.40364 0.0651,0.10417 0.16927,0.10417 0.0651,0 0.11719,-0.013 0.0521,-0.013 0.11718,-0.013 0.10417,0 0.10417,0.10416 0,0.0391 -0.013,0.0781 0,0.0391 0,0.0651 0,0.20834 0.16927,0.36459 0.16927,0.15625 0.36458,0.32552 0.19532,0.16927 0.36459,0.36458 0.16927,0.19531 0.16927,0.46875 0,0.32552 -0.10417,0.625 -0.10417,0.29948 -0.10417,0.61198 0,0.29948 0.1823,0.46875 0.18229,0.16927 0.4427,0.2474 z m -2.51302,0.0651 q 0,-0.33854 -0.10416,-0.74219 -0.0911,-0.40364 -0.27344,-0.78125 -0.16927,-0.39062 -0.41667,-0.71614 -0.23437,-0.33855 -0.50781,-0.54688 -0.19531,-0.14323 -0.52083,-0.33854 -0.32552,-0.20833 -0.69011,-0.39063 -0.36458,-0.19531 -0.71614,-0.32552 -0.33854,-0.1302 -0.58594,-0.1302 -0.18229,0 -0.3776,0.0651 -0.1823,0.0521 -0.37761,0.0521 -0.18229,0 -0.3776,-0.026 -0.18229,-0.0391 -0.36459,-0.0391 -0.18229,0 -0.32552,0.0781 -0.14323,0.0651 -0.19531,0.26042 h -1.30208 q 0.026,0.13021 0.026,0.23438 0,0.29947 -0.23438,0.61197 -0.22135,0.29948 -0.49479,0.67709 -0.27344,0.36458 -0.50781,0.80729 -0.22135,0.44271 -0.22135,0.98958 0,0.18229 0.0521,0.35157 0.0521,0.15625 0.10417,0.32552 0.0651,0.16927 0.11718,0.35156 0.0521,0.16927 0.0521,0.36458 0,0.28646 0.013,0.37761 0.026,0.0911 0.0781,0.11718 0.0521,0.026 0.14323,0.0521 0.10417,0.026 0.26042,0.18229 0.13021,0.13021 0.22135,0.29948 0.0911,0.15625 0.18229,0.3125 0.10417,0.15625 0.23438,0.27344 0.13021,0.11718 0.33854,0.15625 0.0391,0.013 0.15625,0.10416 0.13021,0.0781 0.27344,0.19531 0.14323,0.10417 0.27344,0.20834 0.1302,0.10416 0.18229,0.14323 0.0521,0.10416 0.33854,0.16927 0.29948,0.0651 0.65104,0.10416 0.36458,0.0391 0.70313,0.0521 0.33854,0.013 0.46875,0.013 0.53385,0 0.80729,-0.10417 0.28646,-0.11719 0.48177,-0.28646 0.19531,-0.18229 0.39062,-0.39062 0.19532,-0.22136 0.5599,-0.42969 0.33854,-0.18229 0.61198,-0.48177 0.27344,-0.29948 0.46875,-0.66406 0.19531,-0.36459 0.29948,-0.75521 0.10416,-0.40365 0.10416,-0.78125 z"
       style=""
       id="path1621" />
  </g>
  <g
     aria-label="7"
     style="font-style:normal;font-variant:normal;font-weight:normal;font-stretch:normal;font-size:26.66666603px;line-height:1.25;font-family:'special elite';-inkscape-font-specification:'special elite';letter-spacing:0px;word-spacing:0px;fill:#000000;fill-opacity:1;stroke:none"
     id="text1490">
    <path
       d="m 94.97656,277.29948 q -0.01302,0.10417 -0.01302,0.32552 0,0.20833 -0.01302,0.46875 -0.01302,0.2474 -0.05208,0.52083 -0.03906,0.26042 -0.104167,0.48177 -0.0651,0.22136 -0.182292,0.36459 -0.104166,0.13021 -0.260416,0.13021 -0.02604,0 -0.03906,0 -0.01302,-0.013 -0.02604,-0.013 -0.02604,0.22135 -0.143229,0.54687 -0.117187,0.32552 -0.299479,0.70313 -0.182292,0.3776 -0.403646,0.76822 -0.221354,0.37761 -0.455729,0.72917 -0.221354,0.35156 -0.442708,0.625 -0.221354,0.27344 -0.377604,0.41667 -0.15625,0.14323 -0.3125,0.45573 -0.143229,0.3125 -0.299479,0.6901 -0.15625,0.36458 -0.325521,0.74219 -0.15625,0.36458 -0.338542,0.59896 -0.15625,0.19531 -0.3125,0.52083 -0.143229,0.3125 -0.169271,0.57292 l 0.03906,0.13021 q -0.02604,0.19531 -0.130209,0.28645 -0.104166,0.0781 -0.234375,0.16927 -0.130208,0.0912 -0.234375,0.23438 -0.09114,0.14323 -0.09114,0.45573 0,0.11719 -0.05208,0.20833 -0.05208,0.0911 -0.117187,0.16927 -0.05208,0.0651 -0.104167,0.14323 -0.03906,0.0651 -0.03906,0.15625 0,0.18229 0.05208,0.35156 0.0651,0.16928 0.0651,0.35157 0,0.3776 -0.0651,0.72916 -0.0651,0.35157 -0.0651,0.71615 0,0.26042 -0.07813,0.48177 -0.07813,0.22135 -0.182292,0.42969 -0.104167,0.20833 -0.234375,0.41666 -0.117187,0.20834 -0.195312,0.44271 -0.06511,0.18229 -0.14323,0.3125 -0.07813,0.13021 -0.247395,0.23438 0.02604,0.0911 0.05208,0.18229 0.02604,0.0781 0.02604,0.18229 0,0.11719 -0.05208,0.32552 -0.05208,0.20834 -0.143229,0.40365 -0.09115,0.19531 -0.221354,0.35156 -0.130208,0.14323 -0.286458,0.14323 -0.05208,0 -0.07813,-0.013 0.05208,0.0911 0.0651,0.19531 0.01302,0.0912 0.01302,0.19531 0,0.22136 -0.03906,0.44271 -0.03906,0.22136 -0.03906,0.44271 v 0.11719 h -0.117188 q -0.768229,0 -1.106771,-0.37761 -0.325521,-0.3776 -0.325521,-1.13281 0,-0.55989 0.09115,-1.09375 0.104167,-0.54687 0.104167,-1.10677 0,-0.18229 -0.104167,-0.33854 -0.09115,-0.15625 -0.09115,-0.33854 0,-0.0651 0.02604,-0.10417 0.03906,-0.0391 0.09115,-0.0912 0.182292,-0.15625 0.260417,-0.36458 0.07813,-0.20833 0.143229,-0.41667 0.07813,-0.20833 0.182291,-0.36458 0.104167,-0.15625 0.325521,-0.20833 v -0.0911 q 0,-0.13021 -0.05208,-0.23437 -0.05208,-0.11719 -0.05208,-0.2474 0,-0.13021 0.07813,-0.23437 0.07813,-0.10417 0.143229,-0.20834 0.07813,-0.11718 0.195312,-0.42968 0.117188,-0.32553 0.234375,-0.65105 0.130209,-0.33854 0.234375,-0.61198 0.117188,-0.27343 0.195313,-0.3125 0.247396,-0.1302 0.325521,-0.32552 0.07813,-0.20833 0.104166,-0.41666 0.03906,-0.20834 0.09115,-0.39063 0.05208,-0.19531 0.247396,-0.29948 0.15625,-0.0781 0.221354,-0.23437 0.07813,-0.16927 0.117188,-0.35156 0.03906,-0.19532 0.0651,-0.37761 0.03906,-0.19531 0.117187,-0.33854 0.0651,-0.11719 0.15625,-0.19531 0.104167,-0.0912 0.195313,-0.16927 0.09115,-0.0781 0.15625,-0.16927 0.0651,-0.0911 0.0651,-0.23438 v -0.0781 q 0.104167,-0.0781 0.182292,-0.16928 0.07813,-0.0911 0.117187,-0.20833 0.05208,-0.19531 0.143229,-0.35156 0.104167,-0.15625 0.208334,-0.29948 0.117187,-0.14323 0.208333,-0.29948 0.104167,-0.15625 0.169271,-0.33854 0.05208,-0.15625 0.221354,-0.48177 0.182292,-0.32552 0.377604,-0.65104 0.195313,-0.33855 0.351563,-0.61198 0.15625,-0.27344 0.15625,-0.32552 0,-0.13021 -0.117188,-0.20834 -0.104167,-0.0781 -0.247396,-0.11718 -0.143229,-0.0391 -0.299479,-0.0391 -0.15625,-0.013 -0.247396,-0.013 -0.325521,0 -0.638021,0.0521 -0.3125,0.0391 -0.63802,0.0391 -0.533855,0 -1.119792,-0.14323 -0.585938,-0.15625 -0.963542,-0.58594 -0.117187,0.0521 -0.234375,0.0651 -0.117187,0.013 -0.234375,0.013 -0.273437,0 -0.533854,-0.0651 -0.247396,-0.0651 -0.507812,-0.14323 -0.260417,-0.0781 -0.520834,-0.14323 -0.247396,-0.0651 -0.520833,-0.0651 -0.260417,0 -0.559896,0.0911 -0.286458,0.0911 -0.546875,0.26041 -0.247396,0.16927 -0.442708,0.39063 -0.182292,0.22135 -0.247396,0.49479 -0.0651,0.26042 -0.169271,0.49479 -0.104166,0.22135 -0.234375,0.44271 -0.117187,0.22135 -0.247396,0.44271 -0.117187,0.22135 -0.195312,0.45573 -0.07813,0.19531 -0.234375,0.3776 -0.15625,0.16927 -0.364583,0.29948 -0.195313,0.11719 -0.416667,0.19531 -0.221354,0.0651 -0.429688,0.0651 -0.416666,-0.35157 -0.416666,-0.84636 0,-0.29948 0.02604,-0.57291 0.03906,-0.28646 0.03906,-0.58594 0,-0.16927 0.07813,-0.3125 0.09115,-0.14323 0.208333,-0.27344 0.117188,-0.13021 0.234375,-0.26042 0.117188,-0.1302 0.182292,-0.28645 0.07813,-0.1823 0.117187,-0.41667 0.03906,-0.23438 0.06511,-0.48177 0.02604,-0.26042 0.02604,-0.49479 0.01302,-0.2474 0.01302,-0.44271 0,-0.2474 -0.01302,-0.48177 0,-0.2474 -0.03906,-0.48177 0.195312,0 0.273437,-0.0391 0.09115,-0.0521 0.130209,-0.10416 0.05208,-0.0651 0.07813,-0.11719 0.03906,-0.0521 0.130208,-0.0521 0.195312,0 0.390625,0.10416 0.208333,0.0911 0.416667,0.20834 0.208333,0.10416 0.429687,0.20833 0.221354,0.0911 0.455729,0.0911 0.3125,0 0.546875,-0.13021 0.247396,-0.14323 0.494792,-0.3125 0.247396,-0.16927 0.533854,-0.29948 0.299479,-0.14323 0.729167,-0.14323 0.143229,0 0.247395,-0.0391 0.117188,-0.0521 0.208334,-0.10417 0.09115,-0.0651 0.182291,-0.11719 0.09115,-0.0521 0.208334,-0.0521 0.130208,0 0.195312,0.10417 0.07813,0.0911 0.208334,0.0911 0.117187,0 0.221354,-0.0521 0.117187,-0.0651 0.234375,-0.0651 0.15625,0 0.572916,0.16927 0.429688,0.16928 0.898438,0.40365 0.481771,0.22135 0.898437,0.44271 0.416667,0.22135 0.572917,0.32552 0.377604,0 0.742188,-0.10417 0.364583,-0.11718 0.729166,-0.24739 0.364583,-0.14323 0.742188,-0.2474 0.377604,-0.11719 0.768229,-0.11719 0.325521,0 0.442708,0.0912 0.130208,0.0911 0.182292,0.20833 0.0651,0.11719 0.117187,0.2474 0.0651,0.11719 0.286459,0.16927 z"
       style=""
       id="path1612" />
  </g>
  <g
     aria-label="8"
     style="font-style:normal;font-variant:normal;font-weight:normal;font-stretch:normal;font-size:26.66666603px;line-height:1.25;font-family:'special elite';-inkscape-font-specification:'special elite';letter-spacing:0px;word-spacing:0px;fill:#000000;fill-opacity:1;stroke:none"
     id="text1494">
    <path
       d="m 179.61198,289.29946 q 0,0.14323 -0.0521,0.28646 -0.0391,0.14323 -0.10417,0.28646 -0.0521,0.1302 -0.10417,0.27343 -0.0391,0.13021 -0.0391,0.27344 0,0.15625 0.0521,0.26042 0.0521,0.0911 0.0521,0.14323 0,0.10416 -0.11719,0.3125 -0.11719,0.20833 -0.28646,0.4427 -0.15625,0.23438 -0.35156,0.45573 -0.18229,0.22136 -0.3125,0.35157 -0.15625,0.15625 -0.37761,0.35156 -0.22135,0.19531 -0.4427,0.41667 -0.20834,0.20833 -0.39063,0.42968 -0.16927,0.22136 -0.23437,0.42969 -0.5599,0.0521 -1.1198,0.16927 -0.54687,0.11719 -1.10677,0.23438 -0.54687,0.11718 -1.10677,0.22135 -0.55989,0.0912 -1.11979,0.11719 v -0.16927 q -0.013,0.013 -0.0521,0.026 -0.0391,0.013 -0.0521,0.013 l -0.28645,0.0521 q -0.20834,0.0391 -0.42969,0.0781 -0.22136,0.026 -0.44271,0.026 -0.3125,0 -0.58594,-0.11719 -0.27344,-0.13021 -0.55989,-0.28646 -0.27344,-0.15625 -0.58594,-0.27343 -0.3125,-0.13021 -0.69011,-0.13021 -0.19531,0 -0.32552,-0.0912 -0.1302,-0.10416 -0.26041,-0.23437 -0.3125,-0.32552 -0.61198,-0.52084 -0.29948,-0.19531 -0.53386,-0.41666 -0.23437,-0.22136 -0.3776,-0.5599 -0.14323,-0.33854 -0.14323,-0.96354 0,-0.28646 0.0911,-0.52083 0.10416,-0.2474 0.10416,-0.52084 0,-0.15625 -0.0651,-0.27343 -0.0521,-0.11719 -0.13021,-0.23438 -0.0781,-0.11719 -0.14323,-0.2474 -0.0521,-0.14322 -0.0521,-0.35156 0,-0.26041 0.0521,-0.50781 0.0521,-0.26042 0.11719,-0.50781 0.0651,-0.26042 0.13021,-0.50782 0.0651,-0.26041 0.10416,-0.52083 0.0911,-0.74219 0.52084,-1.40625 0.42968,-0.66406 1.09375,-1.08073 0.0781,-0.0521 0.0781,-0.15625 0,-0.13021 -0.10416,-0.29948 -0.0911,-0.18229 -0.22136,-0.39062 -0.13021,-0.20834 -0.27344,-0.45573 -0.1302,-0.2474 -0.19531,-0.50781 l -0.36458,-0.37761 q -0.0651,-0.19531 -0.0781,-0.39062 -0.013,-0.20834 -0.013,-0.41667 v -0.36458 q 0,-0.32552 -0.0651,-0.625 -0.0651,-0.3125 -0.0651,-0.63802 0,-0.44271 0.14323,-0.67709 0.15625,-0.24739 0.32552,-0.41666 0.1823,-0.16927 0.32552,-0.33854 0.15625,-0.16928 0.15625,-0.45573 0,-0.16927 0.11719,-0.27344 0.11719,-0.10417 0.26042,-0.18229 0.14323,-0.0912 0.26042,-0.18229 0.11718,-0.0911 0.11718,-0.2474 0,-0.11719 0.0391,-0.15625 0.0521,-0.0521 0.15625,-0.10417 0.14322,-0.0521 0.4427,-0.20833 0.29948,-0.16927 0.625,-0.32552 0.32552,-0.16927 0.59896,-0.29948 0.27344,-0.13021 0.36459,-0.13021 0.1302,0 0.24739,0.0391 0.11719,0.0391 0.26042,0.0521 l 0.10416,-0.0521 q 0.0391,-0.0911 0.2474,-0.14323 0.20833,-0.0521 0.45573,-0.0781 0.26042,-0.0391 0.49479,-0.0521 0.2474,-0.013 0.35156,-0.013 0.35157,0 0.69011,0.0911 0.33854,0.0912 0.67708,0.20833 0.33854,0.10417 0.67708,0.19532 0.35157,0.0911 0.70313,0.0911 0.0651,0 0.13021,0 0.0781,-0.013 0.15625,-0.026 0.0521,0.14323 0.28646,0.37761 0.23437,0.23437 0.49479,0.45572 0.27344,0.20834 0.48177,0.37761 0.22135,0.15625 0.22135,0.15625 0,0.0521 -0.026,0.0911 -0.026,0.0391 -0.026,0.0911 l 0.0521,0.11719 h 0.37761 q 0.0651,0.0911 0.0911,0.19531 0.026,0.0912 0.0911,0.18229 0.24739,0.35156 0.36458,0.57292 0.13021,0.22135 0.16927,0.46875 0.0521,0.24739 0.0391,0.59896 0,0.35156 0,0.96354 0,0.54687 -0.0911,1.06771 -0.0781,0.52083 -0.45573,0.98958 -0.11719,0.15625 -0.23437,0.42969 -0.11719,0.26041 -0.20834,0.57291 -0.0781,0.29948 -0.13021,0.58594 -0.0521,0.28646 -0.0521,0.48177 0,0.2474 0.0911,0.39063 0.10416,0.14323 0.26041,0.26041 0.15625,0.11719 0.33854,0.23438 0.19532,0.11719 0.37761,0.3125 0.18229,0.19531 0.32552,0.50781 0.14323,0.29948 0.22135,0.78125 0.013,0.11719 0.0781,0.41667 0.0651,0.29948 0.13021,0.61198 0.0651,0.3125 0.11718,0.55989 0.0651,0.2474 0.0651,0.2474 z m -2.34375,-8.77604 q 0,-0.53386 -0.28646,-0.9375 -0.27344,-0.41667 -0.6901,-0.74219 -0.41667,-0.32552 -0.89844,-0.5599 -0.48177,-0.23437 -0.89844,-0.41666 -0.13021,-0.0521 -0.27344,-0.14323 -0.1302,-0.10417 -0.27343,-0.19531 -0.13021,-0.0912 -0.27344,-0.15625 -0.13021,-0.0651 -0.26042,-0.0651 -0.22135,0 -0.42969,0.0651 -0.20833,0.0651 -0.42968,0.0651 -0.2474,0 -0.48177,-0.11719 -0.0391,0.26042 -0.14323,0.35157 -0.10417,0.0911 -0.2474,0.11718 -0.14323,0.013 -0.3125,0.013 -0.15625,-0.013 -0.32552,0.0651 -0.49479,0.22135 -0.88542,0.45573 -0.39062,0.23437 -0.66406,0.54687 -0.27344,0.3125 -0.41667,0.72917 -0.14322,0.41667 -0.14322,1.0026 0,0.35156 0.11718,0.71615 0.13021,0.36458 0.32552,0.71614 0.19532,0.33855 0.44271,0.65105 0.2474,0.29947 0.49479,0.53385 0.15625,0.15625 0.41667,0.2474 0.27344,0.0911 0.57292,0.1302 0.29948,0.0391 0.58593,0.0521 0.29948,0.013 0.52084,0.013 0.72916,0 1.15885,-0.0781 0.44271,-0.0781 0.76823,-0.18229 0.33854,-0.10417 0.67708,-0.22135 0.35157,-0.13021 0.91146,-0.23438 0.3125,-0.0521 0.5599,-0.33854 0.26042,-0.28646 0.42969,-0.65104 0.16927,-0.37761 0.26041,-0.76823 0.0911,-0.39063 0.0911,-0.66406 z m 0.013,7.90364 q 0,-0.22135 -0.0651,-0.42968 -0.0651,-0.22136 -0.16928,-0.41667 -0.0911,-0.20833 -0.20833,-0.40365 -0.10417,-0.19531 -0.19531,-0.39062 -0.10417,-0.23438 -0.26042,-0.37761 -0.15625,-0.14323 -0.33854,-0.23437 -0.18229,-0.10417 -0.39062,-0.19531 -0.19532,-0.0912 -0.39063,-0.22136 -0.54687,-0.36458 -1.21094,-0.46875 -0.66406,-0.11719 -1.28906,-0.11719 -0.83333,0 -1.61458,0.26042 -0.76823,0.2474 -1.36719,0.72917 -0.59896,0.46875 -0.96354,1.14583 -0.35156,0.67708 -0.35156,1.51042 0,0.46875 0.18229,0.88541 0.18229,0.41667 0.45573,0.79428 0.11718,0 0.28645,0.23437 0.16928,0.23438 0.37761,0.52083 0.20833,0.28646 0.44271,0.5599 0.23437,0.26042 0.48177,0.3125 0.63802,0.15625 1.27604,0.29948 0.65104,0.13021 1.3151,0.13021 0.40365,0 0.79427,-0.013 0.39063,-0.013 0.78125,-0.013 0.1823,-0.10417 0.26042,-0.28646 0.0781,-0.19532 0.23438,-0.33854 0.16927,-0.15625 0.33854,-0.23438 0.16927,-0.0911 0.3125,-0.16927 0.15625,-0.0911 0.27344,-0.22135 0.1302,-0.13021 0.22135,-0.39063 0.0391,-0.13021 0.11719,-0.18229 0.0781,-0.0651 0.14323,-0.10417 0.0781,-0.0521 0.1302,-0.13021 0.0521,-0.0781 0.0521,-0.27343 0,-0.23438 0.0521,-0.45573 0.0521,-0.22136 0.11719,-0.42969 0.0651,-0.22135 0.11719,-0.44271 0.0521,-0.22135 0.0521,-0.44271 z m -4.53125,5.40365 q 0,-0.13021 -0.10417,-0.22136 -0.0911,-0.0911 -0.19531,-0.14322 -0.10417,0.0391 -0.13021,0.15625 -0.026,0.11718 -0.0391,0.24739 0,0.11719 -0.0391,0.22136 -0.0391,0.0911 -0.16927,0.0911 -0.1823,0 -0.35157,-0.0781 -0.15625,-0.0912 -0.33854,-0.0912 h -0.0521 v 0.11719 q 0,0.19531 0.10417,0.3125 0.10416,0.11719 0.3125,0.11719 0.1302,0 0.29947,-0.0521 0.1823,-0.0651 0.33855,-0.15625 0.15625,-0.10416 0.26041,-0.23437 0.10417,-0.13021 0.10417,-0.28646 z"
       style=""
       id="path1609" />
  </g>
  <g
     aria-label="9"
     style="font-style:normal;font-variant:normal;font-weight:normal;font-stretch:normal;font-size:26.66666603px;line-height:1.25;font-family:'special elite';-inkscape-font-specification:'special elite';letter-spacing:0px;word-spacing:0px;fill:#000000;fill-opacity:1;stroke:none"
     id="text1498">
    <path
       d="m 265.07813,284.54685 q 0,0.4948 -0.013,1.00261 -0.013,0.49479 -0.0912,0.98958 -0.0781,0.48177 -0.24739,0.95052 -0.16927,0.45573 -0.48177,0.85938 -0.16927,0.22135 -0.2474,0.49479 -0.0781,0.27344 -0.10417,0.53385 -0.15625,0 -0.29948,-0.0521 -0.1302,-0.0651 -0.26041,-0.14323 -0.13021,-0.0781 -0.26042,-0.13021 -0.13021,-0.0651 -0.28646,-0.0651 -0.20833,0 -0.20833,0.19531 0,0.0651 0.0391,0.16927 0.0391,0.10417 0.0912,0.19531 0.0651,0.0911 0.14323,0.15625 0.0781,0.0651 0.15625,0.0651 0.11718,-0.0391 0.14323,-0.20833 0.0651,0.0391 0.11718,0.10416 0.0651,0.0651 0.0651,0.13021 0,0.11719 -0.14323,0.22135 -0.14323,0.10417 -0.3125,0.20834 -0.15625,0.0911 -0.29948,0.19531 -0.14323,0.0912 -0.14323,0.20833 0,0.0911 0.13021,0.14323 0.13021,0.0391 0.27344,0.0781 0.15625,0.0391 0.28645,0.0911 0.13021,0.0391 0.13021,0.14323 0,0.11719 -0.16927,0.19532 -0.15625,0.0781 -0.23437,0.11718 -0.20834,0.0912 -0.41667,0.32552 -0.19531,0.22136 -0.3776,0.46875 -0.16927,0.23438 -0.3125,0.41667 -0.14323,0.18229 -0.22136,0.18229 -0.11719,0 -0.23437,-0.026 -0.11719,-0.026 -0.23438,-0.026 -0.14323,0 -0.32552,0.0521 -0.16927,0.0521 -0.16927,0.23438 0,0.15625 0.10417,0.27343 0.11718,0.11719 0.26041,0.16928 -0.11718,0.1302 -0.29948,0.1302 -0.0911,0 -0.18229,-0.013 -0.0781,-0.013 -0.15625,-0.013 -0.15625,0 -0.27343,0.0781 -0.10417,0.0651 -0.19532,0.16927 -0.0911,0.0911 -0.18229,0.20833 -0.0781,0.10417 -0.19531,0.18229 -0.013,0.013 -0.18229,0.0651 -0.16927,0.0521 -0.42969,0.13021 -0.2474,0.0781 -0.53385,0.16927 -0.28646,0.0781 -0.54688,0.15625 -0.2474,0.0651 -0.42969,0.10416 -0.18229,0.0521 -0.22135,0.0521 -0.57292,0 -1.15886,-0.20834 -0.57291,-0.22135 -1.08072,-0.44271 -0.36459,-0.15625 -0.61198,-0.35156 -0.23438,-0.20833 -0.41667,-0.44271 -0.18229,-0.23437 -0.33854,-0.50781 -0.15625,-0.27344 -0.35156,-0.58594 l -0.37761,-0.18229 v -0.3776 q -0.10416,-0.16927 -0.18229,-0.26042 -0.0651,-0.10417 -0.13021,-0.19531 -0.0521,-0.0912 -0.0781,-0.20833 -0.026,-0.13021 -0.026,-0.35157 0,-0.16927 0.0391,-0.39062 0.0391,-0.22136 0.10416,-0.42969 0.0781,-0.22135 0.19532,-0.40365 0.11718,-0.18229 0.27343,-0.28645 0.29948,-0.19532 0.67709,-0.40365 0.3776,-0.20833 0.75521,-0.20833 0.24739,0 0.42968,0.11718 0.19532,0.11719 0.37761,0.27344 0.19531,0.15625 0.40364,0.3125 0.20834,0.14323 0.50782,0.20834 v 0.1302 0.0781 q 0,0.26042 -0.10417,0.46875 -0.10417,0.20833 -0.10417,0.48177 0,0.0912 0.013,0.14323 -0.18229,-0.026 -0.3776,-0.0521 -0.18229,-0.026 -0.36458,-0.026 -0.1823,0 -0.37761,0.026 -0.18229,0.026 -0.36458,0.0521 0.0651,0.15625 0.32552,0.24739 0.26042,0.0781 0.61198,0.13021 0.35156,0.0521 0.74219,0.11719 0.39062,0.0521 0.71614,0.16927 0.33854,0.10417 0.5599,0.29948 0.22135,0.18229 0.22135,0.50781 0,0.13021 -0.013,0.19532 0.18229,-0.15625 0.58594,-0.39063 0.41666,-0.23437 0.87239,-0.44271 0.46875,-0.22135 0.89844,-0.36458 0.44271,-0.15625 0.67708,-0.15625 0.14323,0 0.22136,0.0521 0.0781,0.0521 0.0781,0.19531 0.15625,0 0.23438,-0.1302 0.0781,-0.14323 0.13021,-0.33855 0.0521,-0.19531 0.10416,-0.42968 0.0521,-0.2474 0.14323,-0.46875 0.0912,-0.23438 0.2474,-0.41667 0.16927,-0.18229 0.44271,-0.26042 -0.0651,-0.16927 -0.0651,-0.33854 0,-0.24739 0.0912,-0.50781 0.0911,-0.26042 0.20833,-0.52083 0.11719,-0.27344 0.20834,-0.54688 0.0911,-0.28646 0.0911,-0.58594 0,-0.48177 -0.35156,-0.83333 -0.13021,0.0651 -0.48177,0.19531 -0.33854,0.11719 -0.78125,0.26042 -0.44271,0.14323 -0.9375,0.29948 -0.49479,0.14323 -0.9375,0.26042 -0.44271,0.11718 -0.79427,0.19531 -0.35157,0.0781 -0.49479,0.0781 -0.20834,0 -0.40365,-0.0391 -0.18229,-0.0521 -0.3776,-0.10417 -0.19532,-0.0521 -0.41667,-0.0911 -0.20833,-0.0521 -0.45573,-0.0521 -0.26042,0 -0.36458,-0.0651 -0.0911,-0.0781 -0.16927,-0.15625 -0.0651,-0.0781 -0.19532,-0.14323 -0.11718,-0.0781 -0.42968,-0.0781 -0.14323,0 -0.37761,-0.19532 -0.22135,-0.19531 -0.46875,-0.45573 -0.24739,-0.26041 -0.46875,-0.50781 -0.20833,-0.26041 -0.33854,-0.36458 -0.0521,-0.0391 -0.13021,-0.0781 -0.0781,-0.0521 -0.16927,-0.0911 -0.0911,-0.0391 -0.16927,-0.0781 -0.0651,-0.0391 -0.10417,-0.0911 -0.0781,-0.10417 -0.0911,-0.27344 -0.013,-0.18229 -0.026,-0.35156 -0.013,-0.18229 -0.0651,-0.3125 -0.0521,-0.13021 -0.18229,-0.13021 -0.026,0 -0.0391,0.013 -0.013,0 -0.026,0 -0.0651,0 -0.0911,-0.0521 -0.026,-0.0521 -0.026,-0.26042 0,-0.19531 -0.0651,-0.41667 -0.0521,-0.23437 -0.1302,-0.46875 -0.0651,-0.23437 -0.13021,-0.46875 -0.0521,-0.23437 -0.0521,-0.44271 0,-0.3125 0.0781,-0.59895 0.0911,-0.28646 0.0911,-0.625 0,-0.11719 0.0781,-0.35157 0.0781,-0.23437 0.19531,-0.50781 0.13021,-0.28646 0.28646,-0.58594 0.15625,-0.29947 0.3125,-0.54687 0.15625,-0.26042 0.29948,-0.42969 0.15625,-0.18229 0.27344,-0.20833 0.0391,-0.013 0.11719,-0.026 0.0781,-0.013 0.15625,-0.0391 0.0781,-0.0391 0.14322,-0.0781 0.0651,-0.0391 0.0651,-0.0912 0,-0.0521 -0.013,-0.0911 0,-0.0391 0,-0.0911 0,-0.20833 0.0651,-0.28646 0.0781,-0.0781 0.18229,-0.10416 0.10417,-0.0391 0.22136,-0.0521 0.11718,-0.026 0.20833,-0.1302 0.15625,-0.1823 0.27344,-0.28646 0.13021,-0.10417 0.23437,-0.15625 0.11719,-0.0651 0.23438,-0.0781 0.11719,-0.013 0.27344,-0.013 h 0.49479 q 0.0781,-0.15625 0.27343,-0.24739 0.20834,-0.0911 0.45573,-0.13021 0.2474,-0.0391 0.48177,-0.0391 0.23438,-0.013 0.39063,-0.013 0.3125,0 0.70312,0.0781 0.39063,0.0651 0.78125,0.15625 0.40365,0.0911 0.76823,0.16927 0.37761,0.0651 0.66407,0.0651 0.15625,0 0.29948,-0.0391 0,0.3125 0.0391,0.44271 0.0391,0.11719 0.13021,0.18229 0.0911,0.0521 0.23437,0.10417 0.15625,0.0391 0.36458,0.18229 0.32553,0.22135 0.58594,0.53385 0.27344,0.29948 0.50781,0.59896 -0.026,0.0651 -0.0781,0.23438 -0.0391,0.16927 -0.14323,0.36458 -0.0912,0.18229 -0.23437,0.32552 -0.13021,0.14323 -0.32553,0.14323 -0.28645,0 -0.53385,-0.18229 -0.2474,-0.19531 -0.42969,-0.39063 -0.16927,-0.18229 -0.41666,-0.32552 -0.2474,-0.15625 -0.52084,-0.27343 -0.27343,-0.13021 -0.54687,-0.23438 -0.27344,-0.11719 -0.48177,-0.22135 -0.18229,-0.23438 -0.44271,-0.33855 -0.26042,-0.11718 -0.5599,-0.11718 -0.50781,0 -1.0026,0.18229 -0.48177,0.16927 -0.96354,0.27344 -0.27344,0.24739 -0.37761,0.55989 -0.10416,-0.026 -0.18229,-0.026 -0.11719,0 -0.3125,0.0521 -0.18229,0.0521 -0.36458,0.15625 -0.16927,0.0912 -0.29948,0.22136 -0.13021,0.11719 -0.13021,0.24739 v 0.0651 0.0521 q 0,0.22136 -0.13021,0.37761 -0.13021,0.14322 -0.24739,0.33854 -0.15625,0.24739 -0.14323,0.54687 0.026,0.29948 -0.0391,0.5599 -0.0391,0.16927 -0.16928,0.36458 -0.1302,0.18229 -0.1302,0.35156 0,0.19532 0.0391,0.39063 0.0521,0.18229 0.0521,0.40364 0,0.11719 0.0911,0.42969 0.0911,0.29948 0.22135,0.625 0.14323,0.3125 0.28646,0.5599 0.15625,0.24739 0.27344,0.24739 0.0781,0 0.10416,-0.0651 0.0391,-0.0651 0.0521,-0.13021 0.026,-0.0781 0.0391,-0.14323 0.026,-0.0651 0.0651,-0.0651 0.0651,0 0.2474,0.13021 0.18229,0.11718 0.41667,0.29947 0.24739,0.1823 0.53385,0.40365 0.29948,0.20833 0.58594,0.39063 0.28646,0.18229 0.55989,0.3125 0.27344,0.11718 0.48177,0.11718 0.40365,0 0.83334,-0.0521 0.44271,-0.0651 0.83333,-0.16927 0.14323,-0.0391 0.22136,-0.10417 0.0911,-0.0651 0.15625,-0.13021 0.0651,-0.0781 0.1302,-0.14323 0.0781,-0.0781 0.19532,-0.11718 0.14323,-0.0521 0.29948,-0.0521 0.15625,-0.013 0.29947,-0.013 0.15625,-0.013 0.29948,-0.0521 0.14323,-0.0391 0.27344,-0.16927 0.0911,-0.0912 0.20833,-0.28646 0.11719,-0.19531 0.22136,-0.42969 0.10417,-0.23437 0.18229,-0.44271 0.0781,-0.22135 0.0781,-0.35156 0,-0.22135 0.0521,-0.41666 0.0651,-0.20834 0.13021,-0.41667 0.0651,-0.20833 0.11718,-0.40365 0.0651,-0.20833 0.0651,-0.42968 0,-0.35157 -0.0912,-0.67709 -0.0781,-0.33854 -0.0781,-0.67708 0,-0.11719 0.11719,-0.19531 0.11718,-0.0912 0.27343,-0.14323 0.15625,-0.0651 0.3125,-0.0911 0.15625,-0.026 0.2474,-0.026 0.19531,0 0.3125,0.10417 0.13021,0.0911 0.23437,0.22135 0.10417,0.11719 0.22136,0.22136 0.11719,0.10416 0.28646,0.11718 0.0781,0.013 0.15625,0.0391 0.0911,0.026 0.0911,0.1302 0,0.23438 -0.18229,0.39063 -0.16927,0.14323 -0.3776,0.26041 -0.19532,0.11719 -0.37761,0.23438 -0.16927,0.10417 -0.16927,0.27344 0,0.0911 0.0911,0.11718 0.0911,0.013 0.15625,0.013 0.22135,0 0.42968,-0.0651 0.20834,-0.0651 0.42969,-0.0651 0.13021,0 0.19531,0.0651 0.0781,0.0651 0.10417,0.15625 0.0391,0.0911 0.0391,0.20833 0,0.11719 0,0.20834 0,0.625 0.11719,1.22396 0.13021,0.59895 0.13021,1.22395 z"
       style=""
       id="path1606" />
  </g>
  <path
     style="fill:none;stroke:#000000;stroke-width:3;stroke-linecap:butt;stroke-linejoin:miter;stroke-opacity:1;stroke-miterlimit:4;stroke-dasharray:none"
     d="m 87.604167,138.35417 0.604166,45.91666"
     id="path1502"
     inkscape:connector-curvature="0" />
  <path
     style="fill:none;stroke:#000000;stroke-width:3;stroke-linecap:butt;stroke-linejoin:miter;stroke-miterlimit:4;stroke-dasharray:none;stroke-opacity:1"
     d="m 87.906253,220.52084 0.60416,45.91666"
     id="path1502-0"
     inkscape:connector-curvature="0" />
  <path
     style="fill:none;stroke:#000000;stroke-width:3;stroke-linecap:butt;stroke-linejoin:miter;stroke-miterlimit:4;stroke-dasharray:none;stroke-opacity:1"
     d="m 107.77388,120.71598 45.91119,-0.93166"
     id="path1502-2"
     inkscape:connector-curvature="0" />
  <path
     style="fill:none;stroke:#000000;stroke-width:3;stroke-linecap:butt;stroke-linejoin:miter;stroke-miterlimit:4;stroke-dasharray:none;stroke-opacity:1"
     d="m 192.35721,285.04925 45.91119,-0.93166"
     id="path1502-2-2"
     inkscape:connector-curvature="0" />
  <path
     style="fill:none;stroke:#000000;stroke-width:3;stroke-linecap:butt;stroke-linejoin:miter;stroke-miterlimit:4;stroke-dasharray:none;stroke-opacity:1"
     d="m 107.77388,285.04931 45.91119,-0.93166"
     id="path1502-2-6"
     inkscape:connector-curvature="0" />
  <path
     style="fill:none;stroke:#000000;stroke-width:3;stroke-linecap:butt;stroke-linejoin:miter;stroke-miterlimit:4;stroke-dasharray:none;stroke-opacity:1"
     d="m 192.35721,202.27848 45.91119,-0.93166"
     id="path1502-2-5"
     inkscape:connector-curvature="0" />
  <path
     style="fill:none;stroke:#000000;stroke-width:3;stroke-linecap:butt;stroke-linejoin:miter;stroke-miterlimit:4;stroke-dasharray:none;stroke-opacity:1"
     d="m 107.77388,202.27848 45.91119,-0.93166"
     id="path1502-2-60"
     inkscape:connector-curvature="0" />
  <path
     style="fill:none;stroke:#000000;stroke-width:3;stroke-linecap:butt;stroke-linejoin:miter;stroke-miterlimit:4;stroke-dasharray:none;stroke-opacity:1"
     d="m 192.35721,120.71598 45.91119,-0.93166"
     id="path1502-2-8"
     inkscape:connector-curvature="0" />
  <path
     style="fill:none;stroke:#000000;stroke-width:3;stroke-linecap:butt;stroke-linejoin:miter;stroke-miterlimit:4;stroke-dasharray:none;stroke-opacity:1"
     d="m 258.28125,221.12501 0.60417,45.91666"
     id="path1502-3"
     inkscape:connector-curvature="0" />
  <path
     style="fill:none;stroke:#000000;stroke-width:3;stroke-linecap:butt;stroke-linejoin:miter;stroke-miterlimit:4;stroke-dasharray:none;stroke-opacity:1"
     d="m 172.48958,220.52084 0.60417,45.91666"
     id="path1502-9"
     inkscape:connector-curvature="0" />
  <path
     style="fill:none;stroke:#000000;stroke-width:3;stroke-linecap:butt;stroke-linejoin:miter;stroke-miterlimit:4;stroke-dasharray:none;stroke-opacity:1"
     d="m 257.07292,138.95834 0.60416,45.91666"
     id="path1502-6"
     inkscape:connector-curvature="0" />
  <path
     style="fill:none;stroke:#000000;stroke-width:3;stroke-linecap:butt;stroke-linejoin:miter;stroke-miterlimit:4;stroke-dasharray:none;stroke-opacity:1"
     d="m 171.28125,138.95834 0.60417,45.91666"
     id="path1502-08"
     inkscape:connector-curvature="0" />
</svg>
