<svg viewBox="0 0 348 348" fill="none" xmlns="http://www.w3.org/2000/svg"><path d="M5 6h337v337H5z" stroke-width="2" stroke="#000"/><path d="M283 41c0-9 7-16 15-16 4 0 8 2 11 5s5 7 5 11c0 8-7 15-16 15-8 0-15-7-15-15z" stroke-width="2" stroke="#000"/><circle cx="49.6" cy="37.6" r="21.8" stroke="#000" stroke-width="3.8"/><circle cx="109.6" cy="37.6" r="21.8" stroke="#000" stroke-width="3.8"/><circle cx="169.6" cy="37.6" r="21.8" stroke="#000" stroke-width="3.8"/><circle cx="229.6" cy="37.6" r="21.8" stroke="#000" stroke-width="3.8"/><path d="M300 94a24 24 0 1 0 0 48 24 24 0 0 0 0-48zm-1 4-17 30a20 20 0 0 1 17-30zm1 0a20 20 0 0 1 17 30l-17-30zm-1 2v17l-15 10 15-27zm1 0 15 27-15-10v-17zm0 17 15 11h-31l16-11zm-17 12h33a20 20 0 0 1-33 0z" color="#000" fill="#000"/><circle cx="-299.6" cy="-178" r="21.8" transform="scale(-1)" stroke="#000" stroke-width="3.8"/><circle cx="-299.6" cy="-238" r="21.8" transform="scale(-1)" stroke="#000" stroke-width="3.8"/><circle cx="-299.6" cy="-298" r="21.8" transform="scale(-1)" stroke="#000" stroke-width="3.8"/><path d="M28 93v225h225V93Zm4 4h217v218H32Z" color="#000" fill="#000"/><path d="M83 97v219h4V97Zm56 0v219h4V97Zm56 0v219h4V97Z" color="#000" fill="#000"/><g color="#000" fill="#000"><path d="M83 97v219h4V97ZM139 97v219h4V97ZM195 97v219h4V97Z" transform="rotate(90 141 206)"/></g><path d="M62 63 52 77l10 15h-5l-8-12-8 12h-4l10-15-10-14h5l8 12 8-12z" aria-label="X" style="line-height:1.25" fill="#000"/><path d="m122 63-10 16v13h-4V80L97 63h5l8 13 8-13z" aria-label="Y" style="line-height:1.25" fill="#000"/><path d="M181 92h-23v-4l18-22h-17v-3h21v3l-18 22h19z" aria-label="Z" style="line-height:1.25" fill="#000"/><path d="m248 63-8 29h-4l-6-24-6 24h-4l-8-29h4l6 24 6-24h4l6 24 6-24z" aria-label="W" style="line-height:1.25" fill="#000"/><path d="M300 158h-1l-17 10v20l18 10 17-10v-20l-17-10zm0 1 15 9-16 9-15-9 16-9zm16 10v18l-16 10v-19l16-9zm-33 0 16 9v19l-16-10v-18zM299 218l-20 20 20 20 21-20-21-20zm0 2v17h-18l18-17zm1 0 18 17h-18v-17zm-19 18h18v18l-18-18zm19 0h18l-18 18v-18zM299 278l-11 4-7 10v12l7 10 11 4 12-4 7-10v-12l-7-10zm0 1v7l-10 8-7-2 7-9zm1 0 10 4 7 9-6 2-10-8zm0 8 10 8-4 12h-12l-4-12zm-18 6 6 2 4 13-4 5-6-9zm35 0v11l-6 8-3-4 4-13zm-24 16h14l3 4-11 4-10-4zM56 103v1l-18 32h37l-19-33zm0 3v18l-16 10 16-28zm1 0 16 28-16-10v-18zm-1 19 16 10H41l15-10zM168 158l-18 10v20l18 10 17-10v-20Zm0 1 16 9-16 9-16-9zm16 10v18l-16 10v-19zm-33 0 16 9v19l-16-10zM112 214l-20 20 20 20 21-20zm0 2v17H94Zm1 0 18 17h-18Zm-19 18h18v18zm19 0h18l-18 18zM223 269l-11 4-7 10v12l7 10 11 4 12-4 7-10v-12l-7-10zm0 1v7l-10 8-7-3 7-8zm1 0 10 4 7 8-6 3-10-8zm0 8 10 8-4 12h-12l-4-12zm-18 6 6 2 4 13-4 4-6-9zm35 0v10l-6 9-3-4 4-13zm-24 15h14l3 5-11 3-10-3zM223 102l-20 20 20 20 21-20zm0 2v17h-18Zm1 0 18 17h-18zm-19 18h18v18zm19 0h18l-18 18z" color="#000" fill="#000"/><circle cx="112.1" cy="177.8" r="17.8" stroke="#000"/></svg>