<svg xmlns="http://www.w3.org/2000/svg" viewBox="0 0 348 348" fill="none"><path d="M5.08 5.776h336.91v337.67H5.08z" stroke-width="2" stroke="#000"/><path d="M282.734 40.554c0-8.376 6.966-15.165 15.56-15.165 4.126 0 8.084 1.594 11 4.44 2.92 2.842 4.56 6.7 4.56 10.722 0 8.376-6.967 15.165-15.56 15.165-8.594 0-15.56-6.79-15.56-15.166z" stroke-width="2" stroke="#000"/><path color="#000" stroke="#000" stroke-width="3" stroke-linecap="square" overflow="visible" d="M20 18h30v140H20zm15 15v105"/><path color="#000" fill="#000" overflow="visible" d="M20 128h30v30H20z"/><path d="M160 83a30 30 0 11-60 0 30 30 0 1160 0zm85 0a30 30 0 11-60 0 30 30 0 1160 0zm-115 0h25m60 0h25m-140 50h60v60h-60zm85 0h60v60h-60z" color="#000" stroke="#000" stroke-width="3" stroke-linecap="square" overflow="visible"/><rect width="30" height="30" x="25" y="233" ry="0" color="#000" stroke="#000" stroke-width="3" stroke-linecap="square" overflow="visible"/><path color="#000" stroke="#000" stroke-width="3" stroke-linecap="square" overflow="visible" d="M65 233h220v30H65zm230 0h30v30h-30zM25 278h30v30H25zm40 0h220v30H65zm230 0h30v30h-30z"/><path d="M50 238l-20 10 20 10zm0 45l-20 10 20 10zm250-45l20 10-20 10zm0 45l20 10-20 10z" fill="#000"/></svg>