<svg xmlns="http://www.w3.org/2000/svg" fill="none" viewBox="0 0 348 348"><path stroke="#000" stroke-width="2" d="M5.08 5.78h336.91v337.67H5.08z"/><path stroke="#000" stroke-width="2" d="M282.73 40.55c0-8.37 6.97-15.16 15.56-15.16 4.13 0 8.09 1.6 11 4.44a14.97 14.97 0 0 1 4.56 10.72c0 8.38-6.96 15.17-15.56 15.17-8.59 0-15.56-6.8-15.56-15.17z"/><path stroke="#000" stroke-width="3.87" d="M65.9 56h203.02v203.03H65.9z"/><path fill="#000" d="m137.61 69.75 111.2 80.78-10.7 14.71-45.66-33.17-41.99 57.8 45.66 33.17-10.69 14.71-111.19-80.78 10.7-14.72 52.4 38.08 42-57.8-52.42-38.07z" aria-label="H"/><path fill="#000" d="m236.3 92.19 23.5 56.43-10.56 4.4q-24.06-17.3-53.94-23.45-29.75-6.1-49.48 2.11-10.39 4.33-13.46 11.1-3.08 6.75.42 17.59 4.4 14 4.93 20.39.64 6.43-3.13 12.98-3.69 6.5-11.39 9.71-8.4 3.5-17.65 1.26-9.26-2.24-14.97-7.89-5.66-5.56-9.73-15.34l16.13-1.74q7.7 13.85 18.26 9.46 3.54-1.48 5.26-4.93 1.7-3.46 1.08-7.15-.63-3.7-4.2-13.28-5.1-13.22-3.03-21.9 2.2-8.63 8.88-15.27 6.68-6.64 16.8-10.85 20.52-8.54 48.4-2.78 27.97 5.72 50.24 20.42l-15-36.01z" aria-label="ζ"/><path fill="#000" d="m81.98 108.3 18.3-10.1q4.35 7.88 37.43 37.16 16.98 15.05 21.23 19.45-1.46-5.94-5.14-28.33-7.15-43.6-11.5-51.48l18.3-10.1 35.43 64.18q2-2.39 5.37-4.24 6.4-3.54 13.57-1.6 7.14 2.05 10.62 8.37 3.58 6.49 1.52 13.62-2.14 7.18-8.54 10.71-9.68 5.35-18.82 2.57-9.09-2.69-14.66-12.78L159.63 99.6q1.85 3.37 6.2 30.63 6.29 40.11 10.19 47.17l-7.06 3.9q-3.85-6.98-33.66-33.04-21.45-18.68-23.44-22.29l60.26 109.16-15.43 8.52zm124.63 25.98q-2.54 1.4-3.4 4.12-.89 2.85.47 5.31 1.54 2.79 4.42 3.55 2.8.81 5.35-.6 2.55-1.4 3.4-4.33.8-2.8-.7-5.5-1.36-2.47-4.16-3.28-2.84-.68-5.38.73z" aria-label="ฟ"/><path stroke="#000" stroke-width="1.87" d="m46.58 265.23-25.12.61 12.03-22.06zm-25.12 46.61 25.12-.6-12.03 22.05z"/><path stroke="#000" stroke-width="2.59" d="M17.93 269.1h33.2v38.68h-33.2z"/><path fill="#000" d="M30.81 290.25v-1.73l6.71-.01v5.46q-1.54 1.15-3.18 1.73-1.65.57-3.37.57-2.34 0-4.25-.92-1.9-.94-2.88-2.7-.97-1.75-.97-3.92 0-2.15.96-4 .98-1.87 2.8-2.78 1.8-.9 4.17-.9 1.72 0 3.1.52 1.4.51 2.19 1.44.79.92 1.2 2.4l-1.9.49q-.35-1.13-.88-1.77-.53-.64-1.51-1.02-.99-.4-2.19-.4-1.43 0-2.48.42-1.05.4-1.7 1.06-.64.66-1 1.46-.6 1.36-.6 2.96 0 1.97.73 3.3.73 1.32 2.13 1.96 1.39.64 2.96.64 1.36 0 2.65-.48 1.3-.5 1.97-1.04v-2.74zM41 296.01v-10.66h1.75v1.61q.67-1.13 1.23-1.5.57-.36 1.26-.36.98 0 2 .59l-.68 1.67q-.71-.39-1.42-.39-.64 0-1.15.36-.5.36-.72.99-.33.96-.33 2.1v5.59z" aria-label="Gr" style="line-height:1;-inkscape-font-specification:&quot;Arial, Normal&quot;;font-variant-ligatures:normal;font-variant-caps:normal;font-variant-numeric:normal;font-variant-east-asian:normal"/><path stroke="#000" stroke-width="1.87" d="m314.4 265.3-25.12.6 12.03-22.05zm-25.12 46.6 25.12-.6-12.03 22.06z"/><path stroke="#000" stroke-width="2.59" d="M285.74 269.17h33.2v38.68h-33.2z"/><path fill="#000" d="M298.96 294.73v5.44h-1.94v-14.19q0-1.7.49-2.65.5-.96 1.7-1.58 1.2-.64 2.67-.64 2.17 0 3.28 1.17 1.12 1.15 1.12 2.53 0 1.34-.9 2.17-.9.82-2.07 1.01 1.88.17 2.9 1.26 1.03 1.08 1.03 2.67 0 1.7-1.21 3.06-1.2 1.35-3.48 1.35-2.34 0-3.6-1.6zm1.72-7.32q1.99 0 2.9-.64.9-.65.9-1.86 0-.99-.78-1.65-.76-.66-1.92-.66-1 0-1.75.5-.74.48-.91 1.09-.16.6-.16 2.1v4.05q0 1.73.26 2.54.26.82 1.11 1.47.85.65 1.97.65 1.35 0 2.13-.85.79-.87.79-2.13 0-1.05-.59-1.87-.57-.83-1.42-1.12-.85-.3-2.25-.3h-.28z" aria-label="β"/><path stroke="#000" stroke-width="2.4" d="M70.7 272.7h191.6v24.91H70.7z"/><path stroke="#000" stroke-width="2.12" d="M70.66 308.26h148.88v25H70.66Z"/><path fill="#000" d="M100.84 321.85q0 .43-.08 1-.08.56-.22 1.19-.13.61-.32 1.27-.17.66-.36 1.28-.2.6-.4 1.13-.2.51-.38.87-.08.14-.25.3-.16.14-.33.32-.17.15-.3.31-.13.16-.13.3l-.32.07q-.22.05-.47.13-.24.07-.44.17t-.24.18l-.18.4q-.03.1-.07.13l-.15.01q-.1-.01-.42.06l-.3.08-.36.12q-.19.06-.36.08-.16.05-.27.05-.29 0-.56-.1-.26-.1-.55-.1-.18 0-.32.05-.48.2-.93.3-.43.08-.95.08l-1.83-.28q-.21.06-.42.08l-.42.02-.52-.02-.5-.08q-.05-.21-.14-.4l-.15-.4-.15-.4q-.06-.21-.06-.43 0-.37.17-.53.17-.17.43-.23.26-.07.54-.1.3-.04.56-.17.27-.13.43-.4.17-.27.17-.82 0-.33-.05-.66-.04-.33-.1-.65l-.1-.68q-.05-.33-.05-.66 0-.24.04-.47.04-.24.04-.49 0-.44-.06-.87-.05-.44-.05-.89 0-.51.05-1.01.05-.52.05-1.04 0-.48-.1-.94-.07-.47-.07-.98l.01-.54.02-.54q0-.32-.03-.6-.03-.3-.1-.6-.1-.37-.1-.7-.02-.35-.09-.62-.06-.3-.24-.5-.19-.2-.62-.3-.14-.04-.22-.1l-.13-.12q-.06-.07-.17-.13-.09-.06-.28-.09-.58-.08-.58-.7 0-.34.12-.6.12-.27.3-.49.18-.21.4-.38l.46-.38q.34-.28.64-.34.3-.07.64-.07h.56q.37 0 .74-.03.38-.04.75-.04.23 0 .45.03.23.02.45.1.12.04.22.1.12.04.24.04.18 0 .31-.12t.24-.12q.02 0 .02.02l-.01.08v.05q0 .09.1.09.07 0 .1-.09.03-.08.15-.11.1.04.14.1l.1.08q.05.05.11.08.08.03.2.03.27 0 .55-.05.27-.06.54-.06.35 0 .65.13.3.13.56.33.28.19.52.43l.5.48q.18.17.37.27.19.08.36.18.17.09.33.23.15.13.27.4.13.3.3.6l.35.54q.18.25.35.54.17.27.3.59.33.81.46 1.72l.28 1.76.15.76q.08.37.08.74 0 .2-.07.39-.07.18-.07.38 0 .13.04.23l.1.2q.05.1.09.23.04.13.04.3zm-2.18-.96q0-.56-.14-1.1-.15-.52-.45-.98.15-.16.19-.37.04-.22.04-.42 0-.21-.03-.43l-.01-.41q0-.12-.08-.2-.07-.1-.16-.16-.08-.09-.17-.16-.09-.09-.13-.2l-.08-.24-.02-.22-.05-.21q-.04-.12-.13-.28-.07-.11-.1-.21-.05-.11-.05-.27 0-.15.04-.3-.05-.12-.17-.19-.12-.09-.26-.13-.16-.06-.35-.08-.2 0-.42-.13l-.44-.29q-.23-.16-.48-.29-.24-.13-.48-.13-.38 0-.75.08l-.74.13q-.29.04-.62.05-.34 0-.64.07-.29.08-.48.28-.2.18-.2.6 0 .5.05 1.02.07.51.07 1.06 0 1.13-.1 2.26-.07 1.11-.07 2.26 0 .53.05 1.06.05.52.05 1.06 0 .7-.1 1.39t-.1 1.39v.61q0 .33.06.63.05.3.2.55.14.24.42.36l.8.31q.4.15.84.15.27 0 .51-.13.25-.15.51-.23.17-.06.38-.1l.43-.12q.2-.07.39-.17.2-.11.33-.27l.37-.43q.19-.19.51-.26.16-.03.2-.11.05-.1.06-.22l.07-.26q.04-.14.17-.24.2-.17.3-.4.13-.23.18-.49l.08-.51q.04-.28.1-.53.14-.58.33-1.16.2-.59.2-1.2 0-.15-.07-.26-.07-.13-.07-.29 0-.09.03-.1l.08-.06.06-.11q.04-.07.04-.28zm19.93-4.13q0 .06-.07.23l-.15.37q-.08.2-.17.37-.1.18-.15.23l.03.02-.05.01h-.07q-.05.02-.12.02h-.11l.05-.02q-.3-.01-.55-.11-.23-.12-.39-.42l-.08-.2-.1-.33-.1-.31-.02-.23.02-.25.02-.24q0-.44-.08-.87-.07-.43-.07-.88 0-.28.06-.55.07-.28.23-.5h-.06q-.16 0-.25-.1-.09-.12-.3-.12-.5 0-.96.13-.47.13-1 .13h-.4l-.44-.02q-.4 0-.8.1-.38.1-.75.1l-.04-.01q0-.03.1-.07.08-.06.08-.09 0-.06-.09-.06h-.1q-.1 0-.18.12-.07.11-.21.16-.2.05-.42.05h-.43l-.38-.01q-.24-.01-.5-.06-.24-.06-.45-.16-.2-.11-.22-.31-.14.04-.2.16l-.07.21q-.03.12-.1.22-.06.08-.25.1-.37.03-.47.25-.1.23-.1.52v.32q.02.15.02.31 0 .57-.03 1.15v1.79q0 .4.04.8.05.39.15.7.09.3.26.34l.22.05h.23q.46 0 .89-.12.44-.11.9-.11.18 0 .34.06.16.05.33.05.25 0 .38-.25.14-.28.2-.62.06-.36.08-.72v-.53l-.02-.7-.01-.71h.08q.32 0 .61.1.29.12.6.12l.2-.01q0 .29.09.57.09.29.09.59 0 .37-.37.47.1.2.17.4t.07.42q0 .16-.03.31t-.03.3q0 .15.08.23.1.08.1.18 0 .17-.14.43-.11.25-.11.53 0 .31.05.65l.12.72.11.76q.05.37.05.76l-.02.47q-.01.25-.1.47-.06.22-.19.4-.12.2-.31.32-.25-.03-.42-.16-.17-.14-.28-.33-.1-.2-.17-.43l-.08-.48q-.05-.38-.05-.7 0-.3-.13-.52-.12-.23-.47-.36-.34-.13-1.07-.13-.2 0-.6.05-.38.04-.76.15-.37.1-.66.3-.27.2-.27.5 0 .18.02.35.04.16.04.33l-.01.28-.01.3q0 .4.03.78.04.37.04.76 0 .41-.1.81-.1.4-.1.82 0 .46.2.73.21.26.52.4.32.13.68.17.37.05.68.05.62 0 1.25-.09.63-.08 1.25-.08.4 0 .78.04.4.04.78.04l.67-.01q.36-.03.69-.15.34-.11.57-.33.25-.22.31-.64.02-.11.07-.16.06-.05.13-.08l.13-.09q.05-.04.05-.14 0-.12-.08-.26-.07-.16-.1-.29-.05-.27-.07-.54v-.56q0-.43.12-.74.13-.33.13-.72l-.01-.22v-.21q0-.09.12-.17.11-.09.27-.15.16-.07.31-.11.16-.04.24-.04.32 0 .53.25.21.25.31.6.12.36.16.75.04.39.04.66 0 .44-.07 1-.06.56-.18 1.15-.1.59-.25 1.14-.14.55-.28.96-.08.2-.16.3-.06.1-.16.18l-.18.13q-.09.05-.2.2-.11.13-.41.17-.29.04-.61.04l-.47-.01-.34-.02q-.43 0-.7.12-.26.11-.5.11-.17 0-.22-.07-.05-.09-.16-.09-.09 0-.17.09-.07.09-.23.09h-.33q-.15-.02-.32-.02-.98 0-1.94.06-.97.07-1.94.1-.67.03-1.32.17t-1.31.14q-.24 0-.54-.05-.3-.05-.57-.18-.26-.12-.44-.34-.19-.23-.19-.56 0-.31.21-.6.2-.29.5-.53.3-.24.6-.44.32-.22.52-.4l-.02-.22v-.63q.02-.21.08-.43.03-.13.13-.3.12-.19.12-.31 0-.1-.04-.2l-.05-.18q-.15-.38-.21-.68-.05-.3-.05-.73v-.45l.02-.37.07-.37.13-.45-.12-.3q-.06-.2-.06-.31l.18-2.04-.01-.14q0-.13.03-.26.04-.13.04-.27 0-.33-.1-.65-.1-.33-.1-.65 0-.12.05-.28l.1-.34q.07-.19.12-.4.05-.23.05-.49 0-.2-.09-.34-.08-.15-.08-.33 0-.17.08-.35.08-.17.08-.37 0-.28-.1-.54l-.2-.52-.25-.57q-.08-.23-.2-.36-.11-.14-.32-.2-.2-.07-.57-.1-.18-.01-.35-.11-.16-.12-.3-.3-.1-.16-.19-.36-.07-.2-.07-.39 0-.26.2-.43.21-.19.54-.29.32-.11.73-.17.4-.07.78-.1.39-.04.7-.05.33-.02.5-.05l.5-.06.51-.01q.51 0 1.02.04.52.03 1.03.03.55 0 1.07-.11.53-.12 1.08-.12.5 0 .98.13.48.12.95.12.45 0 .9-.12.44-.13.9-.13.19 0 .38.05l.52.57q.25.23.42.47.18.23.29.55.12.31.16.83v.45l.02.52q.01.24.07.44.06.2.2.25 0 .2-.19.2.01.2.08.41l.13.42.12.41q.05.2.05.4zm-11.28 3.52q-.08 0-.15.03-.06.03-.09.13.5.32.78.6l.46.45q.17.17.25.2.08.01.15-.19.1-.26-.04-.49-.13-.22-.37-.38t-.52-.25q-.28-.1-.47-.1zm29.1 6.8q0 .18-.07.34-.06.15-.06.34 0 .14.05.29.05.13.05.27 0 .11-.04.37l-.1.52-.12.51q-.07.23-.12.32h-.38q-.05.3-.18.61-.5.26-.85.33-.35.08-.75.08h-.4q-.19-.02-.42-.02-.43 0-.76.04-.32.06-.7.3-.12.06-.25.06-.24 0-.5-.06l-.46-.12q-.24-.08-.48-.13-.24-.06-.49-.06-.35 0-.7-.07-.35-.09-.7-.09-.26 0-.51.06l-.5.1q-.26.07-.5.11-.25.06-.51.06-.24 0-.46-.06-.22-.05-.45-.05-.42 0-.84.07-.4.08-.82.08-.54 0-.9-.28-.36-.3-.36-.95 0-.26.1-.46.3-.6.62-.86.32-.27.6-.38.3-.12.57-.16.26-.04.45-.19.2-.14.3-.48.12-.35.12-1.06 0-.85-.13-1.66-.12-.84-.12-1.7 0-.41.08-.81.08-.4.08-.82 0-.71-.07-1.4-.05-.7-.05-1.4 0-.5-.12-.95-.11-.47-.11-.96 0-.29.05-.54.05-.28.05-.55 0-.41-.04-.83-.04-.41-.06-.83-.02-.23-.07-.44-.04-.23-.14-.39-.1-.17-.27-.27t-.42-.1q-.24 0-.47.08-.22.09-.47.09-.14 0-.27-.03l-.26-.07q-.07-.1-.12-.23-.04-.13-.1-.24-.04-.13-.12-.22-.08-.1-.22-.13.13-.21.24-.56.12-.34.26-.65.16-.32.37-.55.2-.23.5-.23.26 0 .46.13.22.13.47.13.31 0 .6-.14.29-.15.61-.15.26 0 .47.2.24-.07.43-.07.13 0 .25.05.13.04.26.04.4 0 .76-.12.37-.13.76-.13.32 0 .6.1.3.1.56.25l.55.27q.27.14.57.22l.02.12.01.12v.06l-.01.05q-.02.28-.1.55-.07.26-.11.51-.07.35-.24.45-.15.08-.39.08h-.22l-.22-.01q-.48 0-.96.09-.47.07-.93.22-.13.28-.13.6 0 .26.05.52.06.26.08.52l-.26-.07q-.1-.06-.25-.06-.1 0-.2.13-.07.13-.07.24 0 .1.07.17.06.07.15.12.1.04.2.05l.17.02.01.29q0 .53-.12 1.04-.1.5-.1 1.03l.02.32q.04.15.04.31 0 .19-.1.23-.1.04-.21.04l-.2.02q-.1.01-.1.13l.01.07q-.05.11-.05.2 0 .13.1.16.08.03.19.04.1 0 .2.03.09.01.09.11 0 .16-.04.3-.04.13-.04.28 0 .38.14.74t.14.75q0 .34-.09.68-.08.33-.08.68 0 .21.06.43l.13.41.13.42q.06.2.06.41 0 .3-.09.59t-.09.59l.03.21q.05.33.09.79.05.44.17.86.11.4.35.69.23.28.66.28.4 0 .78-.13.38-.14.79-.14.24 0 .48.07.24.06.48.15l.47.15q.25.06.5.06.4 0 .77-.1.4-.1.79-.17.54-.12.82-.4.27-.3.27-.95 0-.64-.14-1.24-.13-.62-.13-1.26 0-.4.1-.75.1-.37.33-.66.3-.11.62-.11.58 0 .81.41.23.4.23.96 0 .25-.09.35-.09.08-.09.17 0 .03.05.08l.12.12q.07.07.12.17.05.1.05.21 0 .1-.08.15l-.01.38-.03.46q0 .23.02.43 0 .2.06.3zm13.98-14.99q0 .16-.1.29-.1.13-.23.25l-.28.22q-.14.1-.23.19-.22.2-.54.2-.2 0-.4-.06-.18-.06-.4-.06-.08 0-.13.04-.17.12-.33.13-.16.02-.34.02-.1 0-.29-.1-.17-.12-.18-.23l.1-.1q-.15.06-.2.13-.05.07-.08.15l-.03.2q0 .1-.06.2-.07.13-.21.16-.13.03-.27.13-.13.1-.24.37-.1.26-.1.88 0 .27.02.53.03.26.03.51 0 .52-.08 1.04-.08.5-.08 1.03 0 .31-.09.6-.08.28-.08.6 0 .44.34.62-.09.04-.14.23l-.1.4-.03.43v.44l.01.21.03.2q.01.1.05.13.1.12.1.3 0 .16-.05.33-.05.16-.05.33 0 .7.08 1.4.09.7.09 1.4 0 .45-.1.91-.07.46-.07.92 0 .41.13.66.13.24.35.37.22.13.51.17.29.05.6.05.5 0 .98-.09.5-.1.97-.1.49 0 .75.33.27.33.27.84 0 .4-.12.73-.1.33-.31.58-.2.26-.48.4-.29.14-.65.14-.26 0-.59-.07-.52-.11-1.04-.17-.52-.04-1.07-.04l-.91.01q-.46.03-.91.03-.55 0-1.09-.02l-1.08-.01q-.2 0-.37-.07-.19-.07-.37-.07-.13 0-.3.04l-.36.11q-.18.06-.4.1-.2.06-.41.06-.48 0-.83-.24-.36-.23-.36-.82 0-.18.04-.36.02-.13.12-.35.12-.23.26-.45.16-.23.31-.39.17-.15.3-.15.1 0 .2.05l.22.15q.13.07.3.13.17.05.4.05.47 0 .98-.1.5-.1.93-.34.42-.26.7-.66.27-.41.27-1.03 0-.23-.02-.44l-.06-.46q-.07-.75-.09-1.5l-.01-1.52q0-.5.12-.96.11-.48.11-.98 0-.28-.09-.54t-.09-.53q0-.13.03-.26.04-.13.04-.27 0-.32-.07-.6-.05-.3-.05-.6 0-.5.1-1t.1-1.01q0-.3-.07-.6-.06-.3-.14-.59l-.13-.59q-.07-.3-.07-.6 0-.18.04-.39-.08-.2-.22-.31-.14-.11-.31-.21l-.34-.2q-.16-.1-.25-.3-.1.02-.13.12-.03.09-.04.2-.01.1-.05.2-.03.09-.14.1-.37.05-.75.08-.36.02-.73.02l-.52-.02q-.3-.03-.58-.13-.28-.1-.47-.29-.2-.19-.2-.52 0-.2.08-.41l.21-.44q.13-.22.27-.4l.28-.35q.09-.1.27-.17.18-.07.4-.1.24-.03.5-.04l.52-.02q.33 0 .6.02h.47l.8-.02.9-.07q.45-.04.76-.09.32-.05.34-.11.08.04.18.14l.24.17.24.16q.12.07.18.07.08 0 .12-.05l.08-.16q.04-.09.05-.17l.02-.16h.09q.28 0 .38.19.1.18.1.44l-.01.1v.09q.13-.03.18-.13l.1-.23q.04-.12.1-.2.06-.09.2-.09l.16.03h.09l.44.4.26.22.12.07.04.01.09.02h.08q0-.06-.07-.1-.05-.06-.13-.12l-.13-.13q-.05-.07-.05-.16.16 0 .25-.04l.15-.11.13-.13q.08-.06.2-.06.17 0 .26.06.1.05.16.13l.11.11q.06.06.15.06.06 0 .1-.02l.12-.01q.09 0 .12.09l.04.15.06.33q.03.12.07.2.03.09.09.19l.17.26q.07.11.07.24zm-6.52.95q.08-.12-.04-.26t-.26-.14q-.16 0-.21.17-.04.16-.04.28.03.1.08.16.04.06.09.1.05.04.12.04.1 0 .15-.04.06-.06.08-.13.03-.07.03-.18zm24.52-1.95q0 .51-.15.82-.15.28-.4.47-.23.17-.54.28-.31.1-.64.23-.31.12-.62.32-.32.18-.56.53-.23.31-.34.7-.12.37-.21.77l-.21.8q-.1.4-.34.74l-.12.2q-.03.08-.03.21 0 .17.03.34.04.16.04.32 0 .14-.05.5-.04.35-.12.79-.07.43-.2.9-.1.47-.23.88-.11.4-.26.67-.13.27-.26.31.21.65.21 1.4 0 .47-.04.64-.02.15-.09.21-.05.06-.13.12-.06.05-.13.28-.16.55-.36 1.08-.2.53-.2 1.1 0 .14-.06.43-.06.27-.16.56-.1.28-.24.5-.13.21-.28.21.01.15.06.28l.13.25q.08.12.13.26.07.13.07.27 0 .05-.08.26-.06.22-.18.47-.12.26-.26.5-.15.25-.3.35-.1.07-.26.14-.15.09-.3.15-.16.07-.33.11-.15.04-.28.04-.07 0-.28-.08-.2-.07-.43-.19l-.43-.2q-.2-.11-.23-.16-.1-.11-.22-.45l-.22-.78-.2-.81-.16-.6-.32-1q-.16-.5-.29-1l-.12-.44q-.05-.23-.14-.43v-.09q0-.21.07-.4.07-.2.07-.41 0-.15-.06-.32-.16-.54-.29-1.09l-.27-1.09q-.07-.25-.18-.53l-.21-.54-.18-.56q-.07-.28-.07-.54 0-.42.2-.76l-.25-.67q-.12-.35-.21-.7-.13-.54-.17-1.04-.04-.5-.1-.99-.06-.48-.19-.96-.11-.48-.41-.97-.21-.33-.38-.47-.17-.16-.35-.22-.18-.07-.4-.08l-.54-.07q-.43-.09-.78-.4-.35-.3-.35-.82 0-.27.15-.45.17-.17.43-.27t.59-.14q.32-.06.64-.09l.58-.07q.28-.03.43-.1l.38-.13q.2-.06.42-.06.27 0 .53.05l.54.07.6.06q.3.03.54.13.26.1.46.31.2.2.3.59.06.21.06.4 0 .3-.15.51-.15.2-.37.36-.2.15-.45.27l-.45.23.02.13q0 .26-.08.5-.08.25-.3.4.22.15.27.4.05.25.05.54l.04.58q.03.29.2.52.22.3.27.63.07.33.07.69v.53l.01.48q.03.23.1.46l.1.26q.05.11.05.26 0 .13-.07.21-.06.09-.17.15.15.37.29.78.14.4.46.65-.02.07-.02.16v.15q0 .2.03.43l.06.46.12.45q.07.21.16.38l.02.02v.07q0 .18-.1.34-.1.14-.1.33 0 .14.09.33l.2.36.25.34.21.26h.08q.28 0 .48-.13.2-.14.31-.36.13-.21.2-.48l.14-.55q.04-.14.1-.56.07-.41.17-.86.1-.44.24-.78.14-.36.3-.36h.02q-.02-.13-.09-.25l-.14-.23-.12-.24q-.05-.11-.05-.24 0-.12.03-.22l.09-.21.24-.63q.1-.27.16-.52.07-.25.1-.53l.08-.68q.02-.12.12-.43.1-.33.24-.68l.27-.66q.13-.31.2-.41v.01-.11q.02-.06.02-.13 0-.09-.04-.17l-.02-.17q0-.2.11-.35.12-.16.12-.36 0-.2-.1-.38-.1-.2-.25-.38-.14-.17-.31-.33l-.28-.28h-.38q-.14-.19-.22-.4-.06-.23-.2-.42l-.16-.18q-.08-.1-.08-.23 0-.16.07-.36l.11-.36q.05-.24.1-.34.05-.12.11-.16.08-.06.18-.07l.32-.1q.2-.09.41-.09.12 0 .22.02l.23.01q.14 0 .35-.06l.44-.14q.25-.09.52-.14.27-.08.55-.08.31 0 .6.12.28.11.6.11l.2-.01.23-.01q.18 0 .34.05.16.06.32.15.2.1.4.17l.42.13q.22.05.43.14.21.09.4.21v.25zm16.52 5.67q0 .06-.07.23l-.15.37q-.08.2-.17.37l-.14.23.02.02-.05.01h-.07q-.05.02-.11.02h-.12l.05-.02q-.3-.01-.55-.11-.23-.12-.39-.42l-.07-.2q-.06-.16-.1-.33l-.1-.31-.03-.23.02-.25.02-.24q0-.44-.08-.87-.07-.43-.07-.88 0-.28.06-.55.07-.28.24-.5h-.07q-.16 0-.25-.1-.09-.12-.3-.12-.5 0-.96.13-.47.13-1 .13h-.4l-.44-.02q-.4 0-.8.1-.38.1-.75.1l-.04-.01q0-.03.1-.07.09-.06.09-.09 0-.06-.1-.06h-.1q-.1 0-.18.12-.07.11-.21.16-.2.05-.42.05h-.43l-.38-.01q-.24-.01-.49-.06-.25-.06-.46-.16-.2-.11-.22-.31-.14.04-.2.16l-.07.21q-.03.12-.1.22-.06.08-.25.1-.37.03-.47.25-.1.23-.1.52v.32q.02.15.02.31l-.02 1.15q-.02.56-.02 1.13v.66l.05.8q.06.39.15.7.09.3.26.34l.22.05h.23q.46 0 .89-.12.44-.11.9-.11.18 0 .34.06.17.05.34.05.24 0 .37-.25.15-.28.2-.62.06-.36.08-.72l.01-.53q0-.35-.03-.7v-.71h.07q.33 0 .61.1.29.12.6.12l.2-.01q0 .29.09.57.09.29.09.59 0 .37-.37.47.1.2.17.4t.07.42q0 .16-.03.31l-.02.3q0 .15.07.23.1.08.1.18 0 .17-.13.43-.12.25-.12.53 0 .31.05.65l.12.72.11.76q.06.37.06.76 0 .23-.03.47-.01.25-.09.47-.07.22-.2.4-.11.2-.3.32-.26-.03-.43-.16-.16-.14-.28-.33-.1-.2-.17-.43l-.08-.48q-.05-.38-.05-.7 0-.3-.13-.52-.12-.23-.47-.36-.34-.13-1.07-.13-.2 0-.6.05-.38.04-.75.15-.38.1-.67.3-.27.2-.27.5 0 .18.02.35.04.16.04.33v.28l-.02.3q0 .4.04.78.04.37.04.76 0 .41-.1.81-.1.4-.1.82 0 .46.2.73.2.26.52.4.3.13.67.17.37.05.68.05.63 0 1.25-.09.63-.09 1.25-.09.4 0 .78.05.4.04.79.04l.66-.01q.36-.03.7-.15.33-.11.56-.33.25-.23.32-.64 0-.12.06-.16l.13-.08.13-.09q.05-.04.05-.14 0-.12-.07-.26-.08-.16-.1-.29-.06-.27-.07-.54v-.56q0-.43.11-.74.13-.33.13-.72v-.43q0-.09.1-.17.13-.09.28-.15.16-.07.31-.11.16-.04.24-.04.32 0 .53.25.21.25.31.6.12.36.16.75.04.39.04.66 0 .44-.06 1-.07.56-.19 1.15-.1.58-.24 1.14-.15.55-.3.96-.07.2-.15.3-.06.1-.15.18l-.19.13q-.09.05-.2.2-.1.13-.4.17-.3.04-.62.04l-.47-.01-.34-.02q-.43 0-.7.12-.26.11-.5.11-.17 0-.22-.07-.05-.09-.15-.09-.1 0-.17.09-.08.09-.24.09h-.32q-.16-.02-.33-.02-.98 0-1.94.06-.96.07-1.94.1-.67.03-1.32.17t-1.31.14q-.24 0-.54-.05-.3-.05-.57-.18-.26-.12-.44-.34-.18-.23-.18-.56 0-.31.2-.6.21-.29.5-.53.3-.24.61-.44.31-.22.5-.4v-.85q0-.21.07-.43.03-.13.13-.3.12-.19.12-.31 0-.1-.04-.2l-.05-.18q-.14-.38-.2-.68-.06-.3-.06-.73v-.45l.03-.37q.02-.19.06-.37l.13-.45-.12-.3q-.06-.2-.06-.31l.18-2.04-.01-.14q0-.13.04-.26t.04-.27q0-.33-.1-.65-.11-.33-.11-.65 0-.12.05-.28l.1-.34q.07-.19.12-.4.05-.23.05-.49 0-.2-.09-.34-.08-.15-.08-.33 0-.17.08-.35.08-.17.08-.37 0-.28-.1-.54l-.2-.52-.25-.57q-.08-.23-.2-.36-.11-.14-.32-.2-.2-.07-.57-.1-.18-.01-.35-.11-.16-.12-.29-.3-.12-.16-.2-.36-.07-.2-.07-.39 0-.26.2-.43.21-.19.54-.29.33-.11.73-.17.4-.07.78-.1.4-.04.7-.05.33-.02.5-.05l.5-.06.51-.01q.51 0 1.02.04.52.03 1.03.03.55 0 1.07-.11.53-.12 1.08-.12.5 0 .98.13.48.12.95.12.45 0 .9-.12.44-.13.9-.13.19 0 .39.05.28.34.52.57.24.23.41.47.19.23.29.55.12.31.16.83l.01.45.01.52q.02.24.07.44.06.2.2.25 0 .2-.19.2.01.2.08.41l.13.42.12.41q.05.2.05.4zm-11.28 3.52q-.08 0-.14.03-.07.03-.1.13.5.32.79.6.3.28.45.45.17.17.25.2.08.01.15-.19.1-.26-.03-.49-.13-.22-.38-.38-.24-.16-.52-.25-.28-.1-.47-.1zm30.2 8.51v.34q-.02.22-.14.3-.13.06-.17.23l-.02.35q0 .17-.02.31-.01.13-.1.13-.07 0-.1-.03-.04-.04-.11-.04-.06 0-.13.07t-.07.15q0 .07.04.11.06.03.06.1 0 .06-.2.14-.2.08-.44.15-.25.08-.48.13-.24.05-.32.05-.47 0-.94-.18-.46-.19-.9-.35-.54-.2-.8-.65-.25-.46-.37-1.04-.11-.57-.18-1.17-.05-.6-.2-1.07-.07-.22-.07-.36 0-.15.02-.23l.08-.16.08-.11q.04-.06.04-.12 0-.17-.1-.34-.08-.17-.08-.46v-.3l.01-.32q0-.53-.1-.87-.07-.34-.23-.63-.14-.29-.35-.57-.2-.29-.44-.7-.12.04-.25.04h-.25q-.26 0-.52-.03-.24-.03-.5-.03-.28 0-.56.06-.28.05-.56.05-.19 0-.37-.05-.18-.07-.36-.07-.23 0-.45.1-.22.08-.4.25-.18.16-.3.4-.1.2-.1.46v.46q0 1.25-.2 2.45l-.05.37q-.03.17-.03.38 0 .58.21.94.22.36.53.59.32.21.7.36.37.14.69.3.3.14.52.35.22.22.22.6 0 .14-.05.26-.04.12-.1.23-.18.3-.33.46-.15.15-.33.23-.17.09-.38.13l-.5.12q-.21.05-.46.07-.24.03-.47.03-.36 0-.72-.1-.35-.1-.71-.1-.28 0-.56.07-.28.04-.55.1-.27.07-.55.11-.27.06-.55.06-.18 0-.4-.04-.2-.05-.39-.16-.18-.1-.31-.27-.12-.18-.12-.42 0-.2.1-.36.08-.15.23-.27.15-.11.32-.19.17-.07.33-.08l.23-.02q.1 0 .17-.02.08-.03.16-.1.08-.05.18-.16l.12-.12q.06-.04.15-.04l.13.01.13.02q.1 0 .21-.07.28-.17.4-.45.11-.27.15-.58.04-.33.04-.68.01-.34.08-.63.06-.31.06-.58 0-.5-.12-1-.1-.48-.1-.98 0-.6.08-1.2t.08-1.2q0-.17-.02-.3v-.31q0-1.03.12-2.03.12-1 .12-2.04l-.01-.56-.04-.55-.06-.56q-.02-.35-.07-.7-.06-.36-.15-.72-.08-.36-.23-.63-.15-.29-.37-.46-.2-.19-.5-.19l-.15.02-.13.01q-.14 0-.23-.08-.1-.1-.15-.23-.05-.14-.07-.3l-.02-.27q0-.5.22-.72.24-.23.56-.32.34-.08.72-.07.4 0 .7-.03.33-.03.66-.13t.69-.1q.5 0 1 .15.5.14 1 .14.42 0 .81-.07.4-.09.78-.23.2-.07.35-.07.51 0 1 .14.5.14 1 .17.33.03.7.15.36.1.68.3.32.18.56.48.23.3.3.7.04.25.18.48.14.21.3.4.17.17.29.33.13.14.13.24 0 .1-.1.16-.07.04-.07.16 0 .07.07.15l.2.2q.1.12.18.26.1.13.1.29 0 .21-.14.39-.11.15-.11.37l.02.04.18-.05.03.02q.05.23.04.5v.43l-.01.6q-.02.34-.07.65-.05.32-.16.59-.1.27-.3.43-.11.1-.24.15l-.24.12q-.11.06-.2.16-.1.1-.15.27-.06.24-.22.46l-.33.43q-.15.2-.28.41-.12.22-.12.47 0 .42.17.78.18.36.33.73.14.39.2.79.07.38.1.79l.05.8q.02.4.08.8.02.17.11.57.1.39.25.79.14.4.33.7.18.3.37.3.17 0 .28-.2.1-.2.2-.46l.21-.5q.13-.24.34-.33.4.05.67.18.27.12.41.35.15.22.2.55.06.31.06.74zm-3.9-13.18q0-.2-.07-.45-.08-.28-.2-.55-.11-.27-.25-.51-.13-.25-.27-.4-.27 0-.36-.05-.1-.04-.12-.1l-.06-.16q-.03-.08-.18-.17-.46-.24-.83-.37-.36-.13-.87-.13-.14 0-.29.09-.13.08-.23.08-.3 0-.59-.07-.28-.08-.58-.08-.43 0-.89.11l-.6.16q-.3.07-.53.21-.24.15-.4.39-.14.24-.14.67 0 .45.08.88.1.43.1.87 0 .22-.07.42l-.12.4-.13.38q-.05.2-.05.42 0 .26.04.53.05.26.17.47.12.2.3.33.2.13.48.13.27 0 .52-.11.25-.13.52-.13.14 0 .27.08.14.07.27.16l.27.17q.14.07.31.07.13 0 .25-.03.12-.04.22-.1.5-.24 1.04-.43.56-.2 1.11-.2.14 0 .34-.17.2-.18.4-.46.21-.28.42-.61.2-.35.36-.68.17-.34.26-.61.1-.29.1-.45z" aria-label="DELIVER"/><path stroke="#000" stroke-linecap="square" stroke-width="2.07" d="M236.27 308.25h26.09v25.04h-26.09z"/><path fill="#000" d="m258.39 329.17-.16.67q-.07.34-.23.63-.12.2-.39.32-.26.1-.57.15-.3.06-.62.06l-.52.02q-.86 0-1.72-.09-.84-.1-1.7-.16l-.64-.03q-.28-.02-.53-.13-.23-.11-.37-.33-.13-.22-.13-.64 0-.65.17-.98.18-.34.39-.54l.39-.37q.17-.16.17-.43 0-.3-.14-.52l-.3-.49q-.23-.36-.36-.79-.12-.44-.28-.83-.15-.39-.44-.65-.29-.25-.85-.25-.3 0-.4.11-.08.1-.11.27l-.08.35q-.02.17-.21.3-.26.19-.49.52-.23.33-.4.7-.17.37-.27.77-.1.39-.1.7 0 .26.18.5.19.24.42.48.23.25.42.52.18.27.18.61 0 .08-.03.23-.03.15-.14.15-.07 0-.14-.05-.06-.04-.13-.04-.06 0-.1.06-.03.06-.03.11 0 .06.07.06h.03q.06 0 .1.02.04.01.04.12 0 .18-.13.28-.13.1-.31.16-.17.04-.36.05h-.3q-.29 0-.56-.03-.26-.02-.55-.02-.77 0-1.56.07-.78.05-1.56.05l-.5-.01q-.27-.01-.5-.09-.25-.08-.43-.24-.15-.17-.15-.47 0-.3.17-.55.17-.26.39-.44.25-.22.56-.33.3-.13.61-.23.32-.1.62-.22.32-.11.57-.33.38-.3.62-.7.26-.42.46-.85l.43-.87q.22-.45.55-.8.1-.12.2-.3.1-.2.17-.4.07-.22.11-.42.05-.22.05-.38 0-.13.1-.2l.2-.16q.27-.2.4-.38.13-.2.24-.52.15-.43.36-.86.23-.43.23-.9 0-.18-.09-.46-.07-.3-.2-.6-.11-.3-.25-.58-.15-.27-.28-.42-.11-.13-.21-.2l-.17-.13q-.08-.07-.12-.17-.04-.11-.04-.33 0-.23-.07-.41-.08-.2-.19-.35-.11-.17-.26-.33-.13-.16-.24-.33-.19-.27-.32-.57l-.23-.63q-.1-.32-.24-.62-.13-.3-.35-.56l-.43-.49q-.17-.18-.35-.28-.2-.12-.45-.15-.24-.04-.64-.04-.2 0-.48-.1-.29-.12-.56-.27-.26-.18-.46-.4-.18-.2-.18-.42 0-.2.18-.3.2-.1.46-.15.26-.05.52-.05l.39-.03.86-.06q.43-.04.86-.04.28 0 .56.03.28.02.57.02.5 0 .98-.04.44-.04.7.06.26.1.39.26.13.15.15.31.05.15.05.2 0 .22-.19.4-.17.18-.4.35l-.42.34q-.18.18-.21.36.31.93.73 1.8.43.86 1.08 1.63l.14.17.17.2.2.16q.12.06.22.06.04 0 .16-.09l.25-.23.32-.24q.17-.13.3-.19.22-.08.34-.4.15-.31.25-.7l.21-.76q.1-.37.23-.59l.28-.39q.15-.24.15-.44t-.15-.32l-.35-.23q-.18-.11-.34-.28-.16-.2-.16-.52 0-.33.16-.53.17-.22.49-.29.47-.1.97-.17t1-.07q.23 0 .46.08.23.09.48.09.27 0 .51-.11.25-.12.53-.12t.55.04q.29.05.54.12.13.04.3.14.18.09.32.22.16.13.26.28.11.15.11.3 0 .22-.27.38t-.63.27q-.36.12-.72.2-.35.07-.51.12-.6.17-1.04.53-.43.34-.74.8-.3.45-.53.98-.22.51-.42 1.04-.21.56-.51 1.1-.3.55-.58 1.11-.27.56-.47 1.14-.19.57-.19 1.19 0 .56.16.96.16.39.34.72l.35.6q.16.27.16.57 0 .07.1.2l.25.25.28.25q.14.13.18.22.28.46.48 1 .21.53.46 1.04.24.5.57.93.34.43.87.69.25.13.5.18l.55.1.55.05q.27.03.53.1.24.03.39.11.15.07.24.19.09.11.11.26l.08.26z" aria-label="X" transform="translate(-.6)"/></svg>