<svg xmlns="http://www.w3.org/2000/svg" xmlns:xlink="http://www.w3.org/1999/xlink" fill="none" viewBox="0 0 512 512"><defs><path id="a" d="M-238.7 186h234m-234-12h234m-234 24h234"/></defs><path stroke="#000" stroke-width="4" d="M18 18h476v476H18Z"/><circle cx="448" cy="64" r="22" stroke="#000" stroke-width="4"/><path stroke="#000" stroke-miterlimit="5" stroke-width="4" d="M42 426h44v44H42zm0-58h44v44H42zm58 58h44v44h-44Zm0-58h44v44h-44zm58 58h44v44h-44zm0-58h44v44h-44zm58 58h44v44h-44zm0-58h44v44h-44zm58 58h44v44h-44zm0-58h44v44h-44zm76 58h92v44h-92zm0-58h92v44h-92zm0-58h92v44h-92zM42 236h294v60H42zm0-194h294v60H42zm0 74h294v60H42z" paint-order="markers fill stroke"/><path fill="#000" d="M64 378q-3 0-4.6 3-1.5 3-1.5 9t1.5 9q1.6 3 4.6 3 3 0 4.6-3 1.5-3 1.5-9t-1.5-9q-1.5-3-4.6-3zm0-3.1q4.9 0 7.5 3.9Q74 382.6 74 390q0 7.4-2.6 11.3-2.6 3.8-7.5 3.8t-7.5-3.8q-2.6-4-2.6-11.3 0-7.4 2.6-11.2 2.6-4 7.5-4zm49.9 26.4h6.4V379l-7 1.4v-3.6l7-1.4h4v25.9h6.4v3.3h-16.8zm61.6.2h13.8v3.3h-18.6v-3.3l6.2-6.2 4.8-5q2-2.2 2.7-3.7.7-1.4.7-2.9 0-2.3-1.6-3.8-1.6-1.4-4.2-1.4-1.9 0-4 .6-2 .7-4.4 2v-4q2.4-1 4.5-1.5 2-.4 3.8-.4 4.5 0 7.2 2.2 2.7 2.3 2.7 6 0 1.9-.7 3.5-.6 1.6-2.4 3.8l-3.1 3.3-7.4 7.5zm66-12.7q3 .6 4.5 2.6 1.6 1.9 1.6 4.7 0 4.3-3 6.7-3 2.3-8.4 2.3-1.8 0-3.8-.3-2-.4-4-1.1v-3.8q1.6 1 3.6 1.4 2 .5 4 .5 3.8 0 5.7-1.5 2-1.4 2-4.2 0-2.6-1.8-4-1.8-1.5-5-1.5h-3.5v-3.2h3.6q2.9 0 4.4-1.2 1.6-1.2 1.6-3.4t-1.6-3.4q-1.6-1.2-4.6-1.2-1.6 0-3.4.3t-4.1 1.1v-3.5l4.2-1 3.7-.2q4.5 0 7.1 2 2.6 2 2.6 5.5 0 2.5-1.4 4.1-1.4 1.7-4 2.3zm57-10-10 15.6h10zm-1-3.4h5v19h4.1v3.3h-4.1v6.9h-4v-6.9h-13.1V394zM55.8 433.1h15.5v3.4H59.4v7.1l1.7-.4 1.7-.2q5 0 7.8 2.7t2.8 7.2q0 4.7-2.9 7.4-3 2.6-8.3 2.6-1.8 0-3.7-.3l-4-1v-4q1.8 1 3.7 1.5 1.9.4 4 .4 3.3 0 5.3-1.7 2-1.8 2-4.9 0-3-2-4.8-2-1.8-5.3-1.8-1.6 0-3.2.4-1.6.3-3.2 1zm66.5 13.3q-2.6 0-4.2 1.8-1.5 1.8-1.5 5 0 3.1 1.5 5 1.6 1.8 4.2 1.8 2.7 0 4.2-1.8 1.6-1.9 1.6-5 0-3.2-1.6-5-1.5-1.8-4.2-1.8zm7.9-12.4v3.6q-1.5-.7-3-1-1.5-.4-3-.4-4 0-6 2.6-2 2.7-2.3 8 1.1-1.7 2.8-2.6 1.8-1 3.9-1 4.4 0 7 2.8 2.5 2.6 2.5 7.2 0 4.5-2.7 7.2-2.6 2.7-7 2.7-5.1 0-7.8-3.8-2.7-4-2.7-11.3 0-6.9 3.3-11t8.8-4.1q1.5 0 3 .3l3.2.8zm40.4-.6h18.8v1.7l-10.6 27.5h-4.1l10-25.9h-14zM238 448q-2.8 0-4.4 1.5-1.6 1.5-1.6 4.1 0 2.7 1.6 4.2t4.4 1.5q2.8 0 4.4-1.5 1.7-1.5 1.7-4.2 0-2.6-1.7-4.1-1.6-1.5-4.4-1.5zm-4-1.7q-2.5-.6-4-2.3-1.3-1.8-1.3-4.3 0-3.5 2.5-5.5t6.8-2q4.4 0 6.8 2 2.5 2 2.5 5.5 0 2.5-1.4 4.3-1.4 1.7-4 2.3 3 .7 4.5 2.6 1.6 2 1.6 4.7 0 4.3-2.6 6.5-2.6 2.3-7.4 2.3-4.8 0-7.4-2.3-2.6-2.2-2.6-6.5 0-2.7 1.6-4.7t4.5-2.6zm-1.4-6.2q0 2.3 1.4 3.5 1.4 1.3 4 1.3 2.5 0 4-1.3 1.4-1.2 1.4-3.5t-1.4-3.5q-1.5-1.3-4-1.3-2.6 0-4 1.3-1.4 1.2-1.4 3.5zm55.2 21.9v-3.6q1.5.7 3 1 1.5.4 3 .4 4 0 6-2.6t2.3-8q-1.1 1.7-2.8 2.6-1.8.9-3.9.9-4.4 0-7-2.7-2.5-2.6-2.5-7.2 0-4.5 2.7-7.2t7-2.7q5.1 0 7.8 3.9 2.7 3.8 2.7 11.2 0 6.9-3.3 11t-8.8 4.1q-1.5 0-3-.3l-3.2-.8zm7.9-12.4q2.6 0 4.2-1.8 1.5-1.8 1.5-5 0-3.1-1.5-5-1.6-1.8-4.2-1.8-2.7 0-4.3 1.8-1.5 1.9-1.5 5 0 3.2 1.5 5 1.6 1.8 4.3 1.8z" style="line-height:1.25"/><path fill="#000" d="M-441.3 156.8v3.8q-2.2-1-4.2-1.6-2-.5-3.9-.5-3.2 0-5 1.3-1.7 1.2-1.7 3.5 0 2 1.2 3 1.1 1 4.4 1.5l2.4.5q4.4.9 6.5 3 2 2 2 5.6 0 4.3-2.8 6.5t-8.3 2.2q-2 0-4.4-.5-2.3-.5-4.8-1.4v-4q2.4 1.3 4.7 2 2.3.7 4.5.7 3.4 0 5.2-1.4 1.9-1.3 1.9-3.8 0-2.1-1.4-3.3-1.3-1.2-4.3-1.8l-2.4-.5q-4.4-.9-6.4-2.8-2-1.8-2-5.2 0-3.8 2.8-6 2.7-2.3 7.5-2.3 2 0 4.2.4 2 .3 4.3 1zm7.5-1h4v17.7q0 4.7 1.6 6.8 1.7 2 5.5 2t5.5-2q1.7-2 1.7-6.8v-17.7h4V174q0 5.7-2.8 8.6-2.8 3-8.4 3-5.5 0-8.3-3-2.8-2.9-2.8-8.6zm33.6 15.3v10.6h6.4q3.2 0 4.7-1.3t1.5-4q0-2.7-1.5-4-1.5-1.3-4.7-1.3zm0-12v8.8h5.9q2.9 0 4.3-1.1t1.4-3.3q0-2.2-1.4-3.3-1.4-1.1-4.3-1.1zm-3.9-3.3h10q4.6 0 7 1.9t2.5 5.3q0 2.7-1.3 4.3-1.2 1.6-3.6 2 2.9.6 4.5 2.6t1.6 5q0 3.8-2.7 6t-7.5 2h-10.5z" style="line-height:1.25" transform="translate(818.7 161.3)"/><path fill="#000" d="M-360 159v22.7h4.8q6 0 8.8-2.7 2.8-2.7 2.8-8.6 0-5.9-2.8-8.6-2.8-2.7-8.8-2.7zm-4-3.2h8.2q8.4 0 12.4 3.6 4 3.5 4 11t-4 11q-4 3.6-12.4 3.6h-8.1zm30.9 0h18.4v3.4h-14.5v8.6h13.9v3.3h-13.9v10.6h14.8v3.3H-333zm25.2 0h4v25.9h14.2v3.3H-308z" style="line-height:1.25" transform="translate(722.8 219.6)"/><path fill="#000" d="M-251 158v4.2q-2-1.8-4.3-2.7-2.2-1-4.8-1-5 0-7.6 3.1-2.7 3-2.7 8.8 0 5.8 2.7 8.9 2.6 3 7.6 3 2.6 0 4.8-.9 2.3-1 4.3-2.8v4.1q-2.1 1.5-4.4 2.2-2.3.7-5 .7-6.5 0-10.3-4-3.8-4.1-3.8-11.2 0-7 3.8-11 3.8-4.1 10.4-4.1 2.6 0 5 .7 2.2.7 4.3 2zm6-2.2h4v25.9h14.2v3.3h-18.1zm36.2 15.5q1.2.4 2.4 1.9 1.2 1.4 2.5 3.8l4 8h-4.3l-3.7-7.5q-1.5-3-2.8-3.9-1.4-1-3.7-1h-4.3V185h-4v-29.2h9q5 0 7.4 2.1 2.5 2.1 2.5 6.3 0 2.8-1.3 4.6-1.3 1.8-3.7 2.5zm-10-12.2v10.3h5q2.9 0 4.3-1.3 1.5-1.3 1.5-3.9 0-2.5-1.5-3.8-1.4-1.3-4.2-1.3z" style="line-height:1.25" transform="translate(633.2 277.6)"/><use xlink:href="#a" stroke="#000" stroke-width="3.8" transform="matrix(1.11966 0 0 1 325.3 -40)"/><use xlink:href="#a" stroke="#000" stroke-width="3.8" transform="matrix(1.11966 0 0 1 325.3 -114)"/></svg>