<svg xmlns="http://www.w3.org/2000/svg" fill="none" viewBox="0 0 348 348"><path fill="#a0a0a0" d="M167.5 213h30v85h-30z"/><path stroke="#000" stroke-width="2" d="M5 5.8h337v337.6H5z"/><path stroke="#000" stroke-width="2" d="M282.7 40.6c0-8.4 7-15.2 15.6-15.2 4.1 0 8 1.6 11 4.4a15 15 0 0 1 4.6 10.8c0 8.3-7 15.1-15.6 15.1s-15.6-6.8-15.6-15.2zM20 18h225v65H20z"/><path fill="#000" d="M10 123h90c-.6-7.3 3.2-10 10-10h130V93H35c-15 0-25 15-25 30zM242.4 96.4v2.2l.1 1.4c.1.5.3 1 .6 1.4l3 4.7a3.1 3.1 0 0 1 .3 1.5v2.1l-.1.9c-.1.2-.3.3-.6.3s-.5 0-.6-.3a2 2 0 0 1-.2-.9v-4.5h-2.5v4.4c0 1.3.2 2.2.8 2.9.6.6 1.4 1 2.5 1 1 0 1.9-.4 2.5-1 .5-.7.8-1.6.8-3V107a5 5 0 0 0-1-3l-2.7-4.5a2 2 0 0 1-.3-.8v-3.5l.7-.2c.3 0 .5 0 .6.3l.1.9v4.2h2.6v-4c0-1.3-.3-2.2-.8-2.9-.6-.6-1.4-1-2.5-1s-2 .4-2.5 1c-.6.7-.8 1.6-.8 3zm9.1 16.6h2.6v-7.5l2.7-12.5h-2.5l-.9 4.5a24.7 24.7 0 0 0-.5 4.2 32.1 32.1 0 0 0-.5-4.3l-1-4.4H249l2.6 12.5zm5.1-16.6v2.2c0 .5 0 1 .2 1.4 0 .5.3 1 .5 1.4l3 4.7a3.1 3.1 0 0 1 .4 1.5v2.1c0 .4 0 .7-.2.9 0 .2-.3.3-.6.3s-.5 0-.6-.3a2 2 0 0 1-.1-.9v-4.5h-2.6v4.4c0 1.3.3 2.2.8 2.9.6.6 1.4 1 2.5 1s2-.4 2.5-1c.6-.7.9-1.6.9-3V107a5 5 0 0 0-1-3l-2.8-4.5a2 2 0 0 1-.3-.8v-2.5l.1-1 .6-.2c.3 0 .5 0 .6.3l.2.9v4.2h2.6v-4c0-1.3-.3-2.2-.9-2.9-.6-.6-1.4-1-2.5-1-1 0-1.9.4-2.5 1-.5.7-.8 1.6-.8 3zm11.7 16.6V95.6h2.2V93h-7v2.6h2.2V113zm2.9 0h5.7v-2.8h-3.2v-6.8h3v-2.7h-3v-5h3.2V93h-5.7zm6.5 0h2.2V96.3a211.8 211.8 0 0 0 1.5 16.7h2.4l1.2-11.6a64.7 64.7 0 0 0 .3-5.1h.2a468.5 468.5 0 0 0-.2 6V113h2.3V93H284l-.7 7.7a91.3 91.3 0 0 0-.4 7h-.1a172.4 172.4 0 0 0-.3-7v-.2l-.8-7.5h-3.9zm16.8-7.4l1.7-7.4.5-2.6h.2l-.2 2.7-.1 7.3zm2 7.4h2.5v-5h1.1v-2.4h-1V93h-3.6l-3.2 12.8v2.2h4.2zm4.5 0h2.7l3.7-17.5V93h-7v2.4h4.4zM310 93h10c7.5 0 10 2.5 10 10s-2.5 10-10 10h-10zm-202.5 30H140v25h-32.5zm0 27.5H140V183c0 2.5 2.5 5 5 5h5v5h-32.5c-7.5 0-10-2.5-10-10zm45 37.5h75v5h-75zm77.5 0h5v5h-5zm7.5 0h80v5h-65v-2.5h-15zm82.5 0h10v5h-10zm-77.5 5h7.5v2.5h-7.5zm-5 7.5V198h15v-2.5h65v5zm82.5-5h10v5h-10zm-85 5h-5v-5h5zm-7.5-5v5h-75v-5zm-77.5 0v5h-5c-2.5 0-5 2.5-5 5V223h-32.5v-17.5c0-7.5 2.5-10 10-10zm-42.5 30H140V298h-32.5zM202.5 153a15 15 0 1 1-30 0 15 15 0 1 1 30 0zM10 143h90v20H10zm0 30h90v20H10zm0 30h90v20H10zm0 30h90v20H10zm0 30h90v20H10zm0 37.5h90c0 3.8 1.3 5 5 5h85V328H25c-10 0-15-5-15-15zm182.5 5h2.5v6h-2.5zm0 8.3h2.5v6h-2.5zm0 8.2h2.5v6h-2.5zm17.5-9h2.5v7.5H210zm0 10h2.5v5H210zm113.8-1.2h6.3v6.3h-6.3zm0-7.5h6.3v6.3h-6.3zm0-7.5h6.3v6.3h-6.3zm-2.5 0v6.2h-48.8v-6.3zm-48.8 7.5h48.8v6.3h-48.8zm0 7.5h48.8v6.3h-48.8zm-27.5-15h26.3v6.3H245zm0 15h26.3v6.3H245z"/><path fill="#aaa" d="M225 243h30v55h-30zm57.5 0h30v55h-30z"/><path fill="#999" d="M185 133l-15 2.5-2.5 15-7.5-25zm-17.5 22.5l2.5 15 15 2.5-25 7.5zM190 173l15-2.5 2.5-15 7.5 25zm17.5-22.5l-2.5-15-15-2.5 25-7.5z"/></svg>