<svg xmlns="http://www.w3.org/2000/svg" viewBox="0 0 348 348" fill="none"><path d="M5.08 5.776h336.91v337.67H5.08z" stroke-width="2" stroke="#000"/><path d="M282.734 40.554c0-8.376 6.966-15.165 15.56-15.165 4.126 0 8.084 1.594 11 4.44 2.92 2.842 4.56 6.7 4.56 10.722 0 8.376-6.967 15.165-15.56 15.165-8.594 0-15.56-6.79-15.56-15.166z" stroke-width="2" stroke="#000"/><path d="M63.897 156.556c0 9.355-7.584 16.94-16.94 16.94-9.354 0-16.938-7.585-16.938-16.94s7.584-16.939 16.939-16.939 16.939 7.584 16.939 16.94zm50.817 0c0 9.355-7.584 16.94-16.94 16.94-9.354 0-16.938-7.585-16.938-16.94s7.584-16.939 16.939-16.939 16.939 7.584 16.939 16.94zm50.817 0c0 9.355-7.584 16.94-16.94 16.94s-16.938-7.585-16.938-16.94 7.583-16.939 16.939-16.939 16.939 7.584 16.939 16.94zm50.816 0c0 9.355-7.583 16.94-16.939 16.94s-16.939-7.585-16.939-16.94 7.584-16.939 16.94-16.939 16.938 7.584 16.938 16.94zm50.817 0c0 9.355-7.584 16.94-16.939 16.94s-16.939-7.585-16.939-16.94 7.584-16.939 16.94-16.939 16.938 7.584 16.938 16.94zm50.817 0c0 9.355-7.584 16.94-16.939 16.94s-16.939-7.585-16.939-16.94 7.584-16.939 16.939-16.939 16.939 7.584 16.939 16.94zm-95.95 104.588a48.031 48.031 0 11-96.062 0 48.031 48.031 0 1196.062 0z" color="#000" stroke="#000" stroke-width="5" stroke-linecap="round" stroke-linejoin="round" overflow="visible"/><path d="M59.662 106.572c0 7.017-5.688 12.704-12.704 12.704s-12.704-5.687-12.704-12.704c0-7.016 5.688-12.704 12.704-12.704 7.016 0 12.704 5.688 12.704 12.704zm50.817 0c0 7.017-5.688 12.704-12.704 12.704S85.07 113.59 85.07 106.572c0-7.016 5.687-12.704 12.704-12.704 7.016 0 12.704 5.688 12.704 12.704zm50.817 0c0 7.017-5.688 12.704-12.704 12.704-7.017 0-12.705-5.687-12.705-12.704 0-7.016 5.688-12.704 12.705-12.704 7.016 0 12.704 5.688 12.704 12.704zm50.817 0c0 7.017-5.688 12.704-12.705 12.704-7.016 0-12.704-5.687-12.704-12.704 0-7.016 5.688-12.704 12.704-12.704 7.017 0 12.705 5.688 12.705 12.704zm50.816 0c0 7.017-5.687 12.704-12.704 12.704s-12.704-5.687-12.704-12.704c0-7.016 5.688-12.704 12.704-12.704 7.017 0 12.704 5.688 12.704 12.704zm50.817.725c0 7.017-5.688 12.704-12.704 12.704-7.016 0-12.704-5.687-12.704-12.704 0-7.016 5.688-12.704 12.704-12.704 7.016 0 12.704 5.688 12.704 12.704z" color="#000" stroke="#000" stroke-width="3.75" stroke-linecap="round" stroke-linejoin="round" overflow="visible"/></svg>