<svg xmlns="http://www.w3.org/2000/svg" fill="none" viewBox="0 0 348 348"><defs/><path stroke="#000" stroke-width="2" d="M5.079 5.776h336.913v337.67H5.08z"/><path stroke="#000" stroke-width="2" d="M282.734 40.554c0-8.376 6.966-15.165 15.56-15.165 4.126 0 8.084 1.597 11.001 4.441 2.918 2.844 4.558 6.702 4.558 10.724 0 8.376-6.966 15.165-15.56 15.165-8.593 0-15.559-6.79-15.559-15.165z"/><path stroke="#000" stroke-width="1.88976" d="M69.853859 95.841797v58.798823H326.21519V95.841797zM20.855812 106.02148v38.04297H65.34214v-38.04297z"/><path stroke="#000" stroke-width="1.88976378" d="M30.281404 25.283503h211.08784v61.44479H30.281404z"/><path stroke="#000" stroke-width="1.88976" d="M135.45488 171.69263h36.161289v36.161289H135.45488zM175.45488 171.69263h36.161289v36.161289H175.45488zM95.45488 171.69263h36.161289v36.161289H95.45488zM215.45488 171.69263h36.161289v36.161289H215.45488zM135.45488 211.69286h36.161289v36.161289H135.45488zM175.45488 211.69286h36.161289v36.161289H175.45488zM95.45488 211.69286h36.161289v36.161289H95.45488zM215.45488 211.69286h36.161289v36.161289H215.45488zM135.45488 251.69286h36.161289v36.161289H135.45488zM175.45488 251.69286h36.161289v36.161289H175.45488zM95.45488 251.69286h36.161289v36.161289H95.45488zM215.45488 251.69286h36.161289v36.161289H215.45488zM135.45488 291.69312h36.161289v36.161289H135.45488zM175.45488 291.69312h36.161289v36.161289H175.45488zM95.45488 291.69312h36.161289v36.161289H95.45488zM215.45488 291.69312h36.161289v36.161289H215.45488z"/></svg>