<svg stroke-miterlimit="10" stroke-linecap="square" fill="none" viewBox="0 0 348 348" xmlns="http://www.w3.org/2000/svg"><clipPath id="a"><path d="M0 0h348v348H0V0z"/></clipPath><g clip-path="url(#a)"><path d="M0 0h348v348H0z"/><path d="M-6 0h354v348H-6z" fill="#fff"/><path d="M5 5.8h337v337.6H5z"/><path d="M5 5.8h337v337.6H5z" stroke="#000" stroke-width="2" stroke-linecap="butt" stroke-linejoin="round"/><path d="M133.8 15.7h74.4v56.8h-74.4z" fill="#000"/><path d="M15.3 17.7h109.9v54.8h-110z" fill="#fff"/><path d="M15.3 17.7h109.9v54.8h-110z" stroke="#000" stroke-width="2" stroke-linecap="butt" stroke-linejoin="round"/><path d="m15.3 72.7 39.6-54.1"/><path d="m15.3 72.7 39.6-54.1" stroke="#000" stroke-width="2" stroke-linecap="butt" stroke-linejoin="round"/><path d="m37.6 72.7 39.7-54.1"/><path d="m37.6 72.7 39.7-54.1" stroke="#000" stroke-width="2" stroke-linecap="butt" stroke-linejoin="round"/><path d="m59.9 72.7 39.7-54.1"/><path d="m59.9 72.7 39.7-54.1" stroke="#000" stroke-width="2" stroke-linecap="butt" stroke-linejoin="round"/><path d="m82.2 72.7 39.7-54.1"/><path d="m82.2 72.7 39.7-54.1" stroke="#000" stroke-width="2" stroke-linecap="butt" stroke-linejoin="round"/><path d="M33 83h282v242.4H33z" fill="#fff"/><path d="M33 83h282v242.4H33z" stroke="#000" stroke-width="2" stroke-linecap="butt" stroke-linejoin="round"/><path d="M216.9 16.6h109.9v54.9h-110z" fill="#fff"/><path d="M216.9 16.6h109.9v54.9h-110z" stroke="#000" stroke-width="2" stroke-linecap="butt" stroke-linejoin="round"/><path d="m216.9 71.6 39.6-54.1"/><path d="m216.9 71.6 39.6-54.1" stroke="#000" stroke-width="2" stroke-linecap="butt" stroke-linejoin="round"/><path d="m239.2 71.6 39.7-54.1"/><path d="m239.2 71.6 39.7-54.1" stroke="#000" stroke-width="2" stroke-linecap="butt" stroke-linejoin="round"/><path d="m261.5 71.6 39.7-54.1"/><path d="m261.5 71.6 39.7-54.1" stroke="#000" stroke-width="2" stroke-linecap="butt" stroke-linejoin="round"/><path d="m283.8 71.6 39.7-54.1"/><path d="m283.8 71.6 39.7-54.1" stroke="#000" stroke-width="2" stroke-linecap="butt" stroke-linejoin="round"/><path d="M44.5 88.1h259v164h-259z" fill="#000"/><path d="M113.8 267.5H163V313h-49.2z" stroke="#000" stroke-linecap="butt" stroke-linejoin="round"/><path d="M182.8 267.5H232V313h-49.3z"/><path d="M182.8 267.5H232V313h-49.3z" stroke="#000" stroke-linecap="butt" stroke-linejoin="round"/><path d="M260 270.7h36.8v25.7h-36.7z" fill="#fff"/><path d="M260 270.7h36.8v25.7h-36.7z" stroke="#000" stroke-width="2" stroke-linecap="butt" stroke-linejoin="round"/><path d="M265.5 305.5a4.3 4.3 0 1 1 8.5 0 4.3 4.3 0 1 1-8.5 0z" fill="#fff"/><path d="M265.5 305.5a4.3 4.3 0 0 1 4.2-4.3 4.3 4.3 0 0 1 4.3 4.3 4.3 4.3 0 0 1-4.3 4.3 4.3 4.3 0 0 1-4.2-4.3z" stroke="#000" stroke-width="2" stroke-linecap="butt" stroke-linejoin="round"/><path d="M282.8 305.5a4.3 4.3 0 0 1 8.5 0 4.3 4.3 0 1 1-8.5 0z" fill="#fff"/><path d="M282.8 305.5a4.3 4.3 0 0 1 4.3-4.3 4.3 4.3 0 0 1 4.2 4.3 4.3 4.3 0 0 1-4.2 4.3 4.3 4.3 0 0 1-4.3-4.3z" stroke="#000" stroke-width="2" stroke-linecap="butt" stroke-linejoin="round"/><path d="M167.4 54.9h-14.3v-3l3-2.5 2.8-2.6q2.7-2.6 3.8-4.2 1-1.5 1-3.4 0-1.6-1.1-2.5-1.1-1-3-1-1.3 0-2.9.5-1.5.4-2.9 1.4h-.1v-3q1-.5 2.7-1 1.6-.3 3.2-.3 3.3 0 5.1 1.6 1.9 1.5 1.9 4.2 0 1.2-.4 2.3l-.8 2L164 45l-1.8 1.9-3.1 2.9-3 2.6h11.3zm17.4 0h-11.5v-2.2h4.4V38.5h-4.4v-1.9l2-.1q1-.2 1.5-.5.6-.3 1-.9.4-.5.4-1.5h2.2v19.1h4.4z" aria-label="21" fill="#fff"/></g><path d="M94.8 106h8.7v3h-4.9v31.6h5v3h-8.8zm26 1.4h26v3.5h-10.9V138h-4.1v-27.1h-11zm30 0h19.4v3.5h-15.3v9h14.6v3.5H155v11.1h15.6v3.5h-19.7zm25.1 0h4.5l7.6 11.4 7.6-11.4h4.5l-9.9 14.7 10.5 15.9h-4.4l-8.6-13-8.7 13h-4.5l11-16.3zm25.3 0H227v3.5h-10.9V138h-4.1v-27.1h-11zm52-1.3v37.4h-8.8v-2.9h5V109h-5v-3z" aria-label="[ TEXT ]" font-size="42" font-family="'DejaVu Sans',sans-serif" text-anchor="middle" fill="#fff"/><path fill="#fff" fill-rule="evenodd" stroke="#fff" d="M21.4 79.6h308.2v252.2H21.4z"/><path d="M89.5 139.5q7.4 0 14.3 1.9 6.9 2 12.9 5.4 6 3.6 11 8.5 4.8 4.9 8.3 10.9 3.6 6 5.5 12.9t1.9 14.3q0 7.4-2 14.3-1.8 6.9-5.4 12.9-3.5 6-8.4 10.9-5 5-11 8.4-6 3.5-12.8 5.5-6.9 1.9-14.3 1.9-7.5 0-14.3-2-6.9-1.9-12.9-5.4-6-3.5-11-8.4-4.8-5-8.3-11-3.6-6-5.5-12.8-2-7-2-14.3 0-7.4 2-14.3 2-7 5.5-13t8.4-10.8q5-5 11-8.5t12.8-5.4q6.8-2 14.3-2zm0 101q6.5 0 12.5-1.6 6-1.7 11.3-4.8 5.3-3 9.5-7.3 4.3-4.4 7.4-9.6 3-5.3 4.8-11.3 1.7-6 1.7-12.5t-1.7-12.5q-1.7-6-4.8-11.3-3-5.3-7.4-9.5-4.2-4.4-9.5-7.4-5.2-3.1-11.3-4.8-6-1.7-12.5-1.7T76.9 148q-6 1.7-11.2 4.8-5.3 3-9.6 7.4-4.2 4.2-7.3 9.5-3 5.2-4.8 11.3-1.7 6-1.7 12.5 0 8 2.6 15.5t7.6 13.7v1.4q0 2.8 1 5.2 1 2.4 3 4.2 1.8 1.8 4.3 2.8 2.4 1 5.2 1 2.2 0 4.3-.7 4.6 2 9.4 3 4.8 1 9.8 1zM76 223.8q0 2.1-.8 4-.8 1.8-2.2 3.1T70 233q-1.9.8-4 .8-2 0-4-.7-1.8-.8-3.2-2.1-1.3-1.3-2.1-3.2-.8-1.7-.8-3.9 0-1.5.4-2.9t1.1-2.6l8.6-14.9 7.5 13 1 1.8.8 1.7.6 1.8q.2.9.2 2zm0-9.4q3-2 6.4-3.1 3.4-1 7-1 2.5 0 5 .4 2.4.5 4.7 1.6 2.3 1 4.3 2.5 2 1.4 3.7 3.3.9 1 .9 2.2 0 .7-.3 1.3-.3.6-.8 1-.4.5-1 .8-.7.3-1.3.3-.8 0-1.4-.3-.6-.3-1.1-.8-2.8-2.7-5.8-4.1-3-1.5-6.8-1.5-3 0-5.6.9-2.7 1-4.9 2.7-.4-1.8-1.3-3.2l-1.6-3zm47.2-32.1q0 .7-.3 1.3l-.7 1q-.5.5-1.1.8-.6.3-1.3.3-.8 0-1.4-.3-.6-.3-1.1-.9-3.7-3.8-8-5.8-4.3-2.1-9.7-2.1-1.3 0-2.4-1-1-1-1-2.4t1-2.4q1-1 2.4-1 3.2 0 6.4.7 3.1.7 6 2 3 1.3 5.7 3.2 2.6 2 4.7 4.4.8 1 .8 2.2zm-67.4 0q0-1.2.8-2.2 2-2.5 4.7-4.4 2.6-2 5.6-3.2 3-1.3 6.1-2 3.2-.7 6.4-.7 1.4 0 2.4 1t1 2.4q0 1.3-1 2.4-1 1-2.4 1-5.4 0-9.7 2-4.3 2.1-8 6-.5.5-1.1.8-.6.3-1.4.3-.7 0-1.3-.3l-1-.7q-.5-.5-.8-1.1-.3-.6-.3-1.3zm52.2 4.3q1 0 2 .5 1 .3 1.6 1 .7.7 1 1.6.5 1 .5 2v6.7q0 1-.4 2-.4.9-1.1 1.6t-1.7 1.1q-.9.4-1.9.4-1 0-2-.4-.8-.4-1.5-1-.8-.8-1.2-1.7-.3-1-.3-2v-6.7q0-1 .3-2 .4-.9 1.2-1.6.7-.7 1.5-1 1-.5 2-.5zm-42 5q0-1 .3-1.9.4-1 1-1.6.8-.7 1.7-1 1-.5 2-.5t2 .5q.9.3 1.5 1 .7.7 1 1.7.5.9.5 1.9v6.7q0 1-.4 2-.4.9-1.1 1.6-.7.7-1.6 1.1-.9.4-2 .4-1 0-1.9-.4-.9-.4-1.6-1-.7-.8-1.1-1.7-.4-1-.4-2z" aria-label="😢" fill="#000"/><path d="M336.1 208a67.4 65.5 0 0 1-67.4 65.4 67.4 65.5 0 0 1-67.3-65.5 67.4 65.5 0 0 1 67.3-65.5 67.4 65.5 0 0 1 67.4 65.5z" fill="#000" fill-rule="evenodd" stroke="#fff" stroke-width="1.2"/><path d="M232.2 275 152 320l1.3-92z" transform="matrix(.96356 0 0 .98072 96.7 -62)" fill="#fff" fill-rule="evenodd" stroke="#fff"/><path fill="#fff" fill-rule="evenodd" stroke="#000" stroke-width="1.2" d="M11.7 138H179v162.7H11.7z"/><path d="M90.8 167.7q8.8 0 17 2.2T123 176q7.1 4 13 9.6 5.8 5.7 10 12.5 4.1 6.9 6.4 14.8 2.3 7.9 2.3 16.3 0 8.6-2.3 16.4-2.3 7.9-6.4 14.7-4.2 7-10 12.5-5.9 5.7-13 9.7-7.1 4-15.3 6.2-8.2 2.2-17 2.2-10.2 0-19.7-3-9.4-3-17.7-8.7 5-.6 9.1-3.4 6.5 3.7 13.6 5.6 7.2 1.8 14.7 1.8 7.7 0 14.9-2 7.1-1.9 13.4-5.4 6.2-3.5 11.3-8.4 5.1-5 8.7-11 3.7-6 5.7-12.8 2-7 2-14.4t-2-14.3q-2-6.9-5.7-12.9-3.6-6-8.7-10.9-5-5-11.3-8.4-6.3-3.5-13.4-5.5-7.2-2-14.9-2t-14.9 2q-7.1 2-13.4 5.5-6.2 3.5-11.3 8.4-5 4.9-8.7 10.9-3.7 6-5.7 13-2 6.8-2 14.2 0 3.9.6 7.8.5 3.8 1.7 7.5l-2.8 4.5q-1.3 2.2-2.3 4.6-5.2-11.7-5.2-24.4 0-8.4 2.3-16.3t6.5-14.8q4.1-6.8 10-12.5 5.8-5.6 13-9.6 7-4 15.2-6.2t17-2.2zm-40 108q-3.3 0-6.3-1.3-2.9-1-5-3.2-2.2-2-3.4-4.8-1.3-2.8-1.3-6 0-1.7.4-3.7.5-1.9 1.3-3.3l1.2-2 1.1-2 8-13.5 2-3.3q.9-1.7 2-3.3L64.4 252l1.8 4q.6 2.1.6 4.4 0 3.2-1.3 6-1.2 2.8-3.3 4.8-2.2 2.1-5.1 3.2-3 1.2-6.2 1.2zm40-27.1q5.5 0 10.7 2 5.2 2 9 6 1.2 1.2 1.2 2.7 0 1.5-1.1 2.6-1.2 1.2-2.9 1.2-1.6 0-2.8-1.2-3-2.7-6.6-4.1-3.4-1.5-7.6-1.5-4.2 0-7.6 1.5-3.4 1.4-6.5 4.1-.6.6-1.3 1-.7.2-1.5.2-1.9 0-3-1.4v-1.1q0-1.8-.3-3.5l.4-.6q4-3.8 9-5.9 5.1-2 10.9-2zm-12-52.8q0 1.3-1 2.5-2.4 2.9-5.5 5-3.1 2.2-6.6 3.7-3.5 1.5-7.3 2.3-3.8.7-7.5.7-1.7 0-2.9-1-1.2-1.2-1.2-2.8 0-1.6 1.2-2.7t2.9-1.1q4.8 0 9.3-1.6 4.6-1.5 8.3-4.5 1-.7 1.7-1.5l1.6-1.6q1.4-1.3 3.1-1.3 1.6 0 2.8 1.2 1.1 1.1 1.1 2.7zm56 10.4q0 1.6-1.2 2.7t-2.8 1.1q-3.6 0-7.4-.7-3.8-.8-7.4-2.3-3.5-1.5-6.7-3.7-3-2.2-5.5-5-1-1.1-1-2.6t1.1-2.7q1.3-1 2.9-1 1 0 1.7.3t1.3.9q2.2 2.2 4.6 4 2.3 1.6 4.8 2.8 2.6 1.2 5.4 1.8 3 .6 6.2.6 1.6 0 2.8 1.1 1.2 1.2 1.2 2.7zm-28 21.2q0-1.2.4-2.2.5-1 1.4-1.9.8-.8 1.9-1.2 1-.5 2.3-.5 1.2 0 2.3.5 1 .4 2 1.2.8.8 1.2 2 .5 1 .5 2.1v7.7q0 1.2-.5 2.3-.4 1-1.3 1.8-.8.8-2 1.3-1 .4-2.2.4t-2.3-.4q-1.1-.5-2-1.3-.8-.8-1.3-1.8-.4-1-.4-2.3zm-32 7.7q0 1.2-.5 2.3-.5 1-1.3 1.8t-1.9 1.3q-1 .4-2.3.4-1.2 0-2.3-.4-1-.5-1.9-1.3-.8-.8-1.3-1.8t-.5-2.3v-7.7q0-1.2.5-2.2.5-1 1.3-1.9.8-.8 1.9-1.2 1.1-.5 2.3-.5 1.3 0 2.3.5 1.1.4 1.9 1.2.8.8 1.3 2 .5 1 .5 2.1z" aria-label="😥" fill="#000"/><path d="M43.3 155.1a12.7 12.2 0 0 1-12.7 12.2A12.7 12.2 0 0 1 18 155.1a12.7 12.2 0 0 1 12.6-12.2A12.7 12.2 0 0 1 43.3 155z" fill="#fff" fill-rule="evenodd" stroke="#000" stroke-width="1.2"/></svg>