<svg xmlns="http://www.w3.org/2000/svg" stroke-miterlimit="10" stroke-linecap="square" fill="none" viewBox="0 0 348 348"><clipPath id="a"><path d="M0 0h348v348H0V0z"/></clipPath><g clip-path="url(#a)"><path d="M0 0h348v348H0z"/><path d="M-6 0h354.016v347.969H-6z" fill="#fff"/><path d="M5.079 5.776h336.913v337.67H5.08z"/><path d="M5.079 5.776h336.913v337.67H5.08z" stroke="#000" stroke-width="2" stroke-linecap="butt" stroke-linejoin="round"/><path d="M133.843 15.667h74.33v56.882h-74.33z" fill="#000"/><path d="M15.262 17.706h109.89v54.835H15.262z" fill="#fff"/><path d="M15.262 17.706h109.89v54.835H15.262z" stroke="#000" stroke-width="2" stroke-linecap="butt" stroke-linejoin="round"/><path d="M15.262 72.654l39.686-54.08"/><path d="M15.262 72.654l39.686-54.08" stroke="#000" stroke-width="2" stroke-linecap="butt" stroke-linejoin="round"/><path d="M37.566 72.654l39.686-54.08"/><path d="M37.566 72.654l39.686-54.08" stroke="#000" stroke-width="2" stroke-linecap="butt" stroke-linejoin="round"/><path d="M59.87 72.654l39.686-54.08"/><path d="M59.87 72.654l39.686-54.08" stroke="#000" stroke-width="2" stroke-linecap="butt" stroke-linejoin="round"/><path d="M82.175 72.654l39.685-54.08"/><path d="M82.175 72.654l39.685-54.08" stroke="#000" stroke-width="2" stroke-linecap="butt" stroke-linejoin="round"/><path d="M32.976 83.031h282.048v242.363H32.976z" fill="#fff"/><path d="M32.976 83.031h282.048v242.363H32.976z" stroke="#000" stroke-width="2" stroke-linecap="butt" stroke-linejoin="round"/><path d="M216.864 16.634h109.89v54.835h-109.89z" fill="#fff"/><path d="M216.864 16.634h109.89v54.835h-109.89z" stroke="#000" stroke-width="2" stroke-linecap="butt" stroke-linejoin="round"/><path d="M216.864 71.581l39.685-54.078"/><path d="M216.864 71.581l39.685-54.078" stroke="#000" stroke-width="2" stroke-linecap="butt" stroke-linejoin="round"/><path d="M239.168 71.581l39.685-54.078"/><path d="M239.168 71.581l39.685-54.078" stroke="#000" stroke-width="2" stroke-linecap="butt" stroke-linejoin="round"/><path d="M261.472 71.581l39.685-54.078"/><path d="M261.472 71.581l39.685-54.078" stroke="#000" stroke-width="2" stroke-linecap="butt" stroke-linejoin="round"/><path d="M283.776 71.581l39.685-54.078"/><path d="M283.776 71.581l39.685-54.078" stroke="#000" stroke-width="2" stroke-linecap="butt" stroke-linejoin="round"/><path d="M44.49 88.118h258.993v163.937H44.49z" fill="#000"/><path d="M113.772 267.517h49.26v45.48h-49.26z" stroke="#000" stroke-linecap="butt" stroke-linejoin="round"/><path d="M182.795 267.517h49.26v45.48h-49.26z"/><path d="M182.795 267.517h49.26v45.48h-49.26z" stroke="#000" stroke-linecap="butt" stroke-linejoin="round"/><path d="M260.081 270.74h36.725v25.638H260.08z" fill="#fff"/><path d="M260.081 270.74h36.725v25.638H260.08z" stroke="#000" stroke-width="2" stroke-linecap="butt" stroke-linejoin="round"/><path d="M265.465 305.507a4.268 4.268 0 118.535 0 4.268 4.268 0 11-8.535 0z" fill="#fff"/><path d="M265.465 305.507v0a4.268 4.268 0 014.267-4.268v0a4.268 4.268 0 014.268 4.268v0a4.268 4.268 0 01-4.268 4.267v0a4.268 4.268 0 01-4.267-4.267z" stroke="#000" stroke-width="2" stroke-linecap="butt" stroke-linejoin="round"/><path d="M282.808 305.507a4.268 4.268 0 018.535 0 4.268 4.268 0 11-8.535 0z" fill="#fff"/><path d="M282.808 305.507v0a4.268 4.268 0 014.268-4.268v0a4.268 4.268 0 014.268 4.268v0a4.268 4.268 0 01-4.268 4.267v0a4.268 4.268 0 01-4.268-4.267z" stroke="#000" stroke-width="2" stroke-linecap="butt" stroke-linejoin="round"/><path d="M167.45 54.904h-14.308V51.93l2.98-2.562q1.506-1.28 2.797-2.547 2.726-2.648 3.734-4.199 1.007-1.565 1.007-3.373 0-1.65-1.093-2.576-1.078-.939-3.023-.939-1.292 0-2.796.455-1.505.456-2.939 1.395h-.142v-2.989q1.008-.498 2.683-.91 1.69-.413 3.265-.413 3.25 0 5.096 1.58 1.845 1.565 1.845 4.255 0 1.21-.312 2.263-.298 1.039-.894 1.978-.554.882-1.306 1.736-.738.854-1.803 1.893-1.519 1.494-3.137 2.903-1.618 1.395-3.024 2.59h11.37zm17.304 0h-11.441v-2.163h4.4V38.538h-4.4v-1.936q.894 0 1.916-.142 1.022-.157 1.548-.441.652-.356 1.022-.897.383-.555.44-1.48h2.2V52.74h4.315z" aria-label="21" font-weight="400" font-size="29.109" font-family="sans-serif" letter-spacing="0" word-spacing="0" fill="#fff" stroke-width="1.559"/></g><path d="M94.84 106.09h8.695v2.932h-4.922v31.582h4.922v2.933H94.84zm26.045 1.292h25.901v3.486h-10.869V138h-4.163v-27.132h-10.87zm29.921 0h19.359v3.486h-15.217v9.065h14.581v3.486h-14.58v11.095h15.585V138h-19.728zm25.101 0h4.45l7.609 11.382 7.65-11.382h4.45l-9.844 14.704 10.5 15.914h-4.45l-8.614-13.022L178.983 138h-4.47l10.93-16.345zm25.286 0h25.902v3.486h-10.87V138h-4.162v-27.132h-10.87zm51.947-1.292v37.447h-8.696v-2.933h4.902v-31.582h-4.902v-2.932z" aria-label="[ TEXT ]" font-size="42" font-family="'DejaVu Sans',sans-serif" text-anchor="middle" fill="#fff"/><path fill="#fff" fill-rule="evenodd" stroke="#fff" d="M21.381 79.627h308.186V331.78H21.381z"/><path d="M89.5 139.476q7.406 0 14.296 1.922 6.89 1.921 12.89 5.437 6 3.516 10.923 8.438 4.922 4.921 8.437 10.921 3.516 6 5.438 12.891 1.921 6.89 1.921 14.297 0 7.453-1.921 14.344-1.922 6.843-5.438 12.843-3.515 6-8.437 10.922-4.922 4.922-10.922 8.438-6 3.515-12.89 5.437-6.891 1.922-14.298 1.922-7.453 0-14.343-1.922-6.844-1.922-12.844-5.437-6-3.516-10.922-8.438-4.922-4.922-8.438-10.922-3.515-6-5.437-12.89-1.922-6.89-1.922-14.297 0-7.406 1.922-14.297 1.922-6.89 5.437-12.89 3.516-6 8.438-10.922 4.922-4.922 10.922-8.438 6-3.516 12.844-5.437 6.89-1.922 14.343-1.922zm0 101.062q6.515 0 12.515-1.687 6.047-1.688 11.297-4.782 5.25-3.046 9.515-7.312 4.313-4.313 7.36-9.563 3.094-5.25 4.781-11.25 1.688-6.046 1.688-12.562 0-6.516-1.688-12.516-1.687-6.047-4.781-11.297-3.047-5.25-7.36-9.515-4.265-4.313-9.515-7.36-5.25-3.093-11.297-4.78-6-1.688-12.516-1.688-6.515 0-12.562 1.687-6 1.688-11.25 4.781-5.25 3.047-9.563 7.36-4.265 4.265-7.36 9.515-3.046 5.25-4.733 11.297-1.688 6-1.688 12.516 0 8.062 2.578 15.516 2.578 7.453 7.594 13.734-.047.375-.094.703v.703q0 2.766 1.078 5.156 1.078 2.438 2.953 4.22 1.875 1.78 4.313 2.765 2.437 1.031 5.203 1.031 2.25 0 4.36-.703 4.546 2.062 9.374 3.047 4.829.984 9.797.984zM76 223.804q0 2.11-.798 3.937-.796 1.828-2.156 3.188t-3.187 2.11q-1.828.796-3.891.796-2.11 0-3.984-.75-1.875-.75-3.235-2.11-1.36-1.312-2.156-3.14-.797-1.781-.797-3.937 0-1.5.375-2.86.422-1.406 1.172-2.672l8.578-14.86 7.5 13.032q.563.938 1.031 1.781.47.844.797 1.688.375.844.563 1.781.187.89.187 2.016zm.093-9.422q2.953-2.063 6.328-3.094 3.422-1.078 6.984-1.078 2.485 0 4.922.516 2.485.515 4.735 1.547 2.297.984 4.312 2.484 2.063 1.453 3.703 3.328.891 1.031.891 2.203 0 .703-.281 1.313-.281.609-.75 1.078-.469.469-1.078.75-.61.281-1.266.281-.797 0-1.406-.281-.61-.328-1.125-.844-2.719-2.672-5.719-4.125-2.953-1.5-6.844-1.5-2.906 0-5.578.938-2.672.937-4.922 2.718-.422-1.781-1.265-3.234-.797-1.453-1.641-3zm47.11-32.11q0 .704-.282 1.313-.281.61-.75 1.078-.469.469-1.078.75-.61.281-1.266.281-.796 0-1.406-.28-.61-.329-1.125-.891-3.703-3.797-8.016-5.86-4.265-2.11-9.656-2.11-1.36 0-2.39-.984-.985-1.03-.985-2.39 0-1.406.985-2.39.984-.985 2.39-.985 3.14 0 6.328.703 3.188.656 6.141 1.969 3 1.312 5.578 3.234 2.625 1.922 4.688 4.36.843 1.078.843 2.203zm-67.407 0q0-1.124.844-2.203 2.016-2.437 4.64-4.359 2.626-1.922 5.579-3.234 3-1.313 6.14-1.97 3.188-.702 6.375-.702 1.407 0 2.39.984.985.985.985 2.39 0 1.36-1.031 2.391-.984.985-2.344.985-5.39 0-9.703 2.11-4.266 2.062-7.969 5.859-.515.562-1.125.89-.609.281-1.406.281-.656 0-1.265-.28-.61-.282-1.079-.75-.468-.47-.75-1.079-.28-.61-.28-1.312zm52.219 4.36q1.031 0 1.969.422.937.375 1.593 1.078.704.656 1.079 1.594.421.937.421 1.968v6.75q0 1.032-.421 1.97-.376.89-1.079 1.593t-1.64 1.125q-.89.375-1.922.375-1.031 0-1.969-.375-.89-.422-1.594-1.125-.703-.703-1.125-1.594-.375-.937-.375-1.969v-6.75q0-1.03.375-1.921.422-.938 1.125-1.641.704-.703 1.594-1.078.938-.422 1.969-.422zm-42.094 5.062q0-1.03.375-1.968.422-.938 1.078-1.594.703-.703 1.594-1.078.938-.422 2.016-.422 1.03 0 1.968.422.938.375 1.594 1.078.656.703 1.031 1.64.422.891.422 1.922v6.75q0 1.032-.422 1.97-.375.89-1.078 1.593-.656.703-1.593 1.125-.891.375-1.922.375-1.032 0-1.97-.375-.89-.422-1.593-1.125-.703-.703-1.125-1.594-.375-.937-.375-1.969z" aria-label="😢" font-weight="400" font-size="96" font-family="sans-serif" letter-spacing="0" word-spacing="0" fill="#000"/><path d="M336.1 207.915a67.359 65.516 0 01-67.359 65.516 67.359 65.516 0 01-67.359-65.516 67.359 65.516 0 0167.359-65.516 67.359 65.516 0 0167.359 65.516z" fill="#000" fill-rule="evenodd" stroke="#fff" stroke-width="1.206"/><path d="M232.246 275.008l-80.266 44.867 1.277-91.945z" transform="matrix(.96356 0 0 .98072 96.705 -62.093)" fill="#fff" fill-rule="evenodd" stroke="#fff"/><path fill="#fff" fill-rule="evenodd" stroke="#000" stroke-width="1.165" d="M11.694 138h167.29v162.657H11.694z"/><path d="M90.81 167.669q8.793 0 16.974 2.199 8.18 2.198 15.303 6.22 7.123 4.022 12.966 9.653 5.843 5.63 10.017 12.495 4.174 6.864 6.455 14.747 2.282 7.884 2.282 16.357 0 8.526-2.282 16.41-2.281 7.829-6.455 14.693-4.174 6.864-10.017 12.495-5.843 5.63-12.966 9.653-7.123 4.022-15.303 6.22-8.18 2.199-16.973 2.199-10.184 0-19.7-3.003-9.46-3.003-17.752-8.688 5.008-.59 9.182-3.378 6.455 3.7 13.578 5.524 7.18 1.823 14.692 1.823 7.735 0 14.858-1.93 7.179-1.931 13.411-5.47 6.233-3.486 11.297-8.366 5.12-4.934 8.737-10.94 3.673-6.006 5.676-12.87 2.004-6.918 2.004-14.372 0-7.455-2.004-14.319-2.003-6.918-5.676-12.924-3.617-6.006-8.737-10.886-5.064-4.934-11.297-8.42-6.232-3.539-13.411-5.47-7.123-1.93-14.858-1.93t-14.914 1.93q-7.123 1.931-13.356 5.47-6.233 3.486-11.352 8.42-5.064 4.88-8.737 10.886-3.617 6.006-5.62 12.924-2.004 6.864-2.004 14.319 0 3.86.557 7.722.556 3.807 1.669 7.507-1.336 2.253-2.727 4.505-1.335 2.252-2.281 4.666-5.231-11.691-5.231-24.4 0-8.473 2.281-16.357 2.282-7.883 6.455-14.747 4.174-6.864 10.017-12.495 5.843-5.63 12.966-9.653 7.124-4.022 15.248-6.22 8.18-2.199 17.029-2.199zm-39.955 107.95q-3.395 0-6.344-1.18-2.894-1.126-5.064-3.217-2.17-2.038-3.395-4.827-1.224-2.788-1.224-6.06 0-1.662.39-3.592.445-1.93 1.28-3.379.612-1.019 1.168-1.984.557-.965 1.169-1.984l8.013-13.514q1.002-1.609 1.892-3.271.946-1.716 2.06-3.271l13.578 22.684q1.113 1.93 1.78 4.022.668 2.091.668 4.343 0 3.218-1.28 6.006-1.224 2.789-3.394 4.827-2.17 2.091-5.064 3.217-2.894 1.18-6.233 1.18zm39.9-27.028q5.51 0 10.74 2.038 5.231 2.038 9.071 5.9 1.169 1.233 1.169 2.734 0 1.555-1.169 2.681-1.168 1.127-2.838 1.127-1.614 0-2.838-1.127-3.06-2.735-6.567-4.182-3.45-1.448-7.624-1.448-4.229 0-7.623 1.448-3.395 1.447-6.456 4.182-.612.59-1.335.912-.668.268-1.503.268-1.836 0-3.005-1.394.056-.268.056-.536v-.59q0-1.77-.334-3.54.111-.214.445-.536 4.007-3.86 9.015-5.899 5.064-2.038 10.796-2.038zM78.846 195.77q0 1.341-1.001 2.574-2.449 2.843-5.565 5.041-3.117 2.145-6.622 3.647-3.506 1.448-7.29 2.252-3.785.751-7.513.751-1.614 0-2.838-1.126-1.169-1.126-1.169-2.682 0-1.608 1.169-2.734 1.168-1.127 2.838-1.127 4.841 0 9.349-1.555 4.563-1.555 8.292-4.504.946-.751 1.725-1.502.779-.804 1.614-1.609 1.335-1.287 3.06-1.287 1.614 0 2.783 1.18 1.168 1.126 1.168 2.681zm55.983 10.457q0 1.556-1.224 2.682-1.169 1.126-2.783 1.126-3.672 0-7.457-.75-3.784-.805-7.345-2.307-3.562-1.501-6.678-3.646-3.116-2.199-5.51-4.988-1.057-1.18-1.057-2.627 0-1.556 1.169-2.682 1.224-1.126 2.838-1.126.946 0 1.67.376.723.321 1.335.911 2.226 2.199 4.563 3.915 2.338 1.716 4.897 2.896 2.56 1.18 5.398 1.77 2.894.59 6.177.59 1.614 0 2.783 1.18 1.224 1.125 1.224 2.68zm-28.047 21.183q0-1.18.445-2.199.501-1.072 1.336-1.877.835-.804 1.892-1.233 1.113-.483 2.337-.483 1.224 0 2.282.483 1.113.429 1.947 1.233.835.805 1.28 1.877.501 1.02.501 2.199v7.722q0 1.18-.5 2.252-.446 1.02-1.28 1.824-.835.804-1.948 1.287-1.058.429-2.282.429t-2.337-.43q-1.057-.482-1.892-1.286-.835-.805-1.336-1.824-.445-1.072-.445-2.252zm-31.998 7.722q0 1.18-.5 2.252-.446 1.02-1.28 1.824-.78.804-1.893 1.287-1.057.429-2.282.429-1.224 0-2.337-.43-1.057-.482-1.892-1.286-.835-.805-1.335-1.824-.446-1.072-.446-2.252v-7.722q0-1.18.446-2.199.5-1.072 1.335-1.877.835-.804 1.892-1.233 1.113-.483 2.337-.483 1.225 0 2.282.483 1.113.429 1.892 1.233.835.805 1.28 1.877.5 1.02.5 2.199z" aria-label="😥" font-weight="400" font-size="111.879" font-family="sans-serif" letter-spacing="0" word-spacing="0" fill="#000"/><path d="M168.372 159.509a12.692 12.231 0 01-12.692 12.231 12.692 12.231 0 01-12.692-12.231 12.692 12.231 0 0112.692-12.231 12.692 12.231 0 0112.692 12.231z" fill="#fff" fill-rule="evenodd" stroke="#000" stroke-width="1.165"/></svg>