<svg xmlns="http://www.w3.org/2000/svg" fill="none" stroke-linecap="square" stroke-miterlimit="10" viewBox="0 0 348 348"><path stroke="#000" stroke-linecap="butt" stroke-linejoin="round" stroke-width="2" d="M5.5 5.2h337v337.6H5.5z"/><path fill="#000" d="M134.3 15h74.3v57h-74.3z"/><path fill="#fff" d="M155 43.5c0-2.7.3-5 .8-6.6a8.7 8.7 0 012.5-3.8 6.4 6.4 0 014.2-1.3c1.2 0 2.3.2 3.2.7 1 .5 1.7 1.2 2.3 2.2.6.9 1 2 1.4 3.4.4 1.3.5 3.1.5 5.4a21 21 0 01-.8 6.5c-.5 1.6-1.4 3-2.5 3.8-1 1-2.5 1.4-4.1 1.4-2.2 0-4-.8-5.2-2.4-1.5-2-2.3-5-2.3-9.3zm2.9 0c0 3.7.4 6.2 1.3 7.5.9 1.2 2 1.9 3.3 1.9 1.3 0 2.3-.7 3.2-2 1-1.2 1.4-3.7 1.4-7.4 0-3.8-.5-6.3-1.4-7.5-.9-1.3-2-1.9-3.3-1.9-1.3 0-2.3.5-3 1.6-1 1.4-1.5 4-1.5 7.8zm14.9 0c0-2.7.3-5 .8-6.6a8.7 8.7 0 012.5-3.8 6.4 6.4 0 014.2-1.3c1.2 0 2.3.2 3.2.7 1 .5 1.7 1.2 2.3 2.2.6.9 1 2 1.4 3.4.4 1.3.5 3.1.5 5.4 0 2.7-.2 4.8-.8 6.5-.5 1.6-1.4 3-2.5 3.8-1 1-2.5 1.4-4.1 1.4-2.2 0-4-.8-5.2-2.4-1.5-2-2.3-5-2.3-9.3zm2.9 0c0 3.7.4 6.2 1.3 7.5.9 1.2 2 1.9 3.3 1.9 1.3 0 2.3-.7 3.2-2 .9-1.2 1.3-3.7 1.3-7.4 0-3.8-.4-6.3-1.3-7.5-.9-1.3-2-1.9-3.3-1.9-1.3 0-2.3.5-3 1.6-1 1.4-1.5 4-1.5 7.8z"/><path stroke="#000" stroke-linecap="butt" stroke-linejoin="round" stroke-width="2" d="M15.7 17h110v55h-110z"/><path d="M15.7 72l39.7-54"/><path stroke="#000" stroke-linecap="butt" stroke-linejoin="round" stroke-width="2" d="M15.7 72l39.7-54"/><path d="M38 72l39.7-54"/><path stroke="#000" stroke-linecap="butt" stroke-linejoin="round" stroke-width="2" d="M38 72l39.7-54"/><path d="M60.3 72L100 18"/><path stroke="#000" stroke-linecap="butt" stroke-linejoin="round" stroke-width="2" d="M60.3 72L100 18"/><path d="M82.6 72l39.7-54"/><path stroke="#000" stroke-linecap="butt" stroke-linejoin="round" stroke-width="2" d="M82.6 72l39.7-54m95-2h110v55h-110z"/><path d="M217.3 71L257 16.9"/><path stroke="#000" stroke-linecap="butt" stroke-linejoin="round" stroke-width="2" d="M217.3 71L257 16.9"/><path d="M239.6 71l39.7-54.1"/><path stroke="#000" stroke-linecap="butt" stroke-linejoin="round" stroke-width="2" d="M239.6 71l39.7-54.1"/><path d="M262 71l39.6-54.1"/><path stroke="#000" stroke-linecap="butt" stroke-linejoin="round" stroke-width="2" d="M262 71l39.6-54.1"/><path d="M284.2 71L324 16.9"/><path stroke="#000" stroke-linecap="butt" stroke-linejoin="round" stroke-width="2" d="M284.2 71L324 16.9"/><path stroke="#fff" stroke-width="3" d="M242.5 230.5h30m15 0h30"/><path fill="#fff" stroke="#000" stroke-miterlimit="4" stroke-width="1.12" d="M26.04 92.53h290.42v166.85H26.04z"/><rect width="60.16" height="39.16" x="145.09" y="277.4" fill="#fff" stroke="#000" stroke-miterlimit="4" stroke-width=".95" rx="6.79" ry="10.01"/><rect width="60.16" height="39.3" x="273.34" y="276.74" fill="#fff" stroke="#000" stroke-miterlimit="4" stroke-width=".95" rx="6.79" ry="10.05"/><rect width="60.16" height="39.3" x="16.32" y="277.26" fill="#fff" stroke="#000" stroke-miterlimit="4" stroke-width=".95" rx="6.79" ry="10.05"/><path stroke-miterlimit="4" d="M26.3 93.39v165.26c3.6.96 7.97.12 11.86.4h277.36c.96-3.61.11-7.97.4-11.87V93.38c-3.62-.95-7.98-.1-11.87-.4H26.69l-.36.38z" fill="#000" stroke="#000" stroke-width=".6"/><path d="M65.894 305.763H64.61v-1.899h-.031q-.838 2.184-2.467 2.184-1.198 0-1.88-.961-.673-.962-.673-2.552 0-3.406 2.647-3.964l2.404-.51q0-3.097-1.652-3.097-1.449 0-2.616 1.495v-1.994q1.183-1.139 2.725-1.139 2.827 0 2.827 4.533zm-1.284-6.147l-1.934.403q-.893.19-1.347.677-.454.474-.454 1.697 0 .89.415 1.46.423.557 1.12.557.955 0 1.574-1.009.626-1.02.626-2.575zm-6.883 6.147h-1.284v-6.978q0-2.017-.415-2.92-.408-.901-1.379-.901-.822 0-1.401 1.14-.572 1.138-.572 2.728v6.93h-1.284v-7.214q0-3.584-1.825-3.584-.845 0-1.393 1.08-.549 1.068-.549 2.788v6.93h-1.284v-12.151h1.284v1.922h.032q.853-2.207 2.49-2.207.822 0 1.433.7.61.689.838 1.816.892-2.516 2.662-2.516 2.647 0 2.647 4.949zm-13.821 0h-1.284v-1.899h-.032q-.837 2.184-2.466 2.184-1.198 0-1.88-.961-.673-.962-.673-2.552 0-3.406 2.647-3.964l2.404-.51q0-3.097-1.652-3.097-1.45 0-2.616 1.495v-1.994q1.183-1.139 2.725-1.139 2.827 0 2.827 4.533zm-1.284-6.147l-1.934.403q-.893.19-1.347.677-.454.474-.454 1.697 0 .89.415 1.46.422.557 1.12.557.955 0 1.573-1.009.627-1.02.627-2.575zm-7.056 6.147h-1.284v-17.99h1.284zm-2.834 0h-5.826v-17.018h1.315v15.214h4.51z" aria-label="Llama" style="stroke-width:0.37017009" font-weight="400" font-size="19.742" font-family="Segoe UI" letter-spacing="0" word-spacing="0" fill="#000" stroke-width=".37"/><path d="M199.038 295.59q-.314-.41-.905-.41-.767 0-1.285 1.229-.51 1.229-.51 3.351v6.48h-1.198v-12.71h1.197v2.618h.03q.255-1.34.78-2.085.526-.757 1.176-.757.467 0 .715.174zm-5.715 4.803h-5.277q.029 2.123.671 3.277.642 1.155 1.766 1.155 1.263 0 2.322-1.415v1.911q-.986 1.217-2.606 1.217-1.584 0-2.49-1.726-.904-1.738-.904-4.878 0-2.966.985-4.828.993-1.875 2.46-1.875t2.27 1.614q.803 1.614.803 4.48zm-1.226-1.725q-.008-1.762-.504-2.743-.49-.98-1.365-.98-.847 0-1.438 1.03t-.73 2.693zm-7.044 7.572h-1.197v-7.324q0-3.972-1.737-3.972-.876 0-1.475 1.155-.598 1.142-.598 2.941v7.2h-1.197v-18.818h1.197v8.217h.029q.861-2.408 2.452-2.408 2.526 0 2.526 5.176zm-7.817-.125q-.424.398-1.117.398-1.964 0-1.964-3.724v-7.522h-1.284v-1.738h1.284v-3.103l1.197-.658v3.761h1.884v1.738h-1.884v7.162q0 1.278.256 1.825.255.546.847.546.452 0 .78-.422zm-6.475-15.813q-.32 0-.547-.372-.226-.373-.226-.944 0-.57.226-.943.226-.385.547-.385.329 0 .555.385.234.372.234.943 0 .547-.234.931-.226.385-.555.385zm.584 15.938h-1.197v-12.71h1.197zm-3.014-5.847h-5.277q.029 2.123.671 3.277.642 1.155 1.766 1.155 1.263 0 2.322-1.415v1.911q-.986 1.216-2.606 1.216-1.584 0-2.49-1.725-.904-1.738-.904-4.878 0-2.966.985-4.828.993-1.875 2.46-1.875t2.27 1.614q.803 1.614.803 4.48zm-1.226-1.725q-.008-1.763-.504-2.743-.49-.98-1.365-.98-.847 0-1.438 1.03t-.73 2.693zm-7.365 7.572h-1.504l-5.387-14.188q-.204-.533-.335-1.117h-.044q.058.571.058 2.445v12.86h-1.226v-17.8h1.591l5.24 13.964q.33.869.424 1.192h.03q-.073-.77-.073-2.62V288.44h1.226z" aria-label="Neither" style="stroke-width:0.36550382" font-weight="400" font-size="19.494" font-family="Segoe UI" letter-spacing="0" word-spacing="0" fill="#000" stroke-width=".366"/><path d="M320.49 302.49h-.95v-1.868h-.023q-.62 2.149-1.827 2.149-.887 0-1.391-.946-.499-.946-.499-2.51 0-3.351 1.96-3.9l1.78-.502q0-3.047-1.224-3.047-1.072 0-1.936 1.47v-1.96q.876-1.122 2.018-1.122 2.093 0 2.093 4.46zm-.95-6.047l-1.432.397q-.661.186-.997.665-.337.467-.337 1.67 0 .875.308 1.436.313.549.829.549.707 0 1.165-.993.464-1.004.464-2.534zm-4.748 5.499q-.684.829-1.624.829-1.27 0-2.052-1.658-.777-1.67-.777-4.32 0-2.954.84-4.74.841-1.799 2.244-1.799.783 0 1.38.584v1.962q-.66-.934-1.414-.934-.91 0-1.496 1.319-.58 1.308-.58 3.444 0 2.102.545 3.316.55 1.215 1.473 1.215.777 0 1.46-1.04zm-5.85.549h-.95v-1.869h-.024q-.62 2.149-1.826 2.149-.887 0-1.391-.946-.5-.946-.5-2.51 0-3.351 1.96-3.9l1.78-.502q0-3.047-1.223-3.047-1.073 0-1.936 1.47v-1.96q.875-1.122 2.017-1.122 2.093 0 2.093 4.46zm-.95-6.048l-1.433.397q-.66.186-.997.665-.336.467-.336 1.67 0 .875.307 1.436.313.549.83.549.706 0 1.164-.993.464-1.004.464-2.534zm-9.306 4.32h-.023v7.227h-.95v-17.455h.95v2.101h.023q.702-2.382 2.053-2.382 1.148 0 1.791 1.612.644 1.6.644 4.296 0 3.001-.725 4.81-.725 1.799-1.983 1.799-1.153 0-1.78-2.008zm-.023-4.823v1.67q0 1.483.476 2.522.48 1.028 1.217 1.028.864 0 1.35-1.332.494-1.33.494-3.7 0-1.997-.458-3.13-.458-1.132-1.241-1.132-.829 0-1.333 1.167-.505 1.156-.505 2.907zm-2.875 6.55h-.951v-17.7h.95zm-2.041 0h-1.078l-.882-4.693h-3.524l-.83 4.694h-1.084l3.19-16.743h1.008zm-2.278-6.456l-1.305-7.134q-.064-.35-.127-1.12h-.024q-.058.711-.133 1.12l-1.293 7.134z" aria-label="Alpaca" style="stroke-width:0.31592914" font-weight="400" font-size="16.85" font-family="Segoe UI" letter-spacing="0" word-spacing="0" fill="#000" stroke-width=".316"/></svg>