<svg xmlns="http://www.w3.org/2000/svg" viewBox="0 0 348 348" fill="none"><path d="M5.079 5.776h336.913v337.67H5.08z" stroke-width="2" stroke="#000"/><path stroke="#000" stroke-width="2.00803" stroke-linecap="round" d="M47.9282 149.5137h251.31012v117.63361H47.9282z"/><rect width="235.47305" height="24.58922" x="55.01317" y="161.70538" rx="1" ry="1" stroke="#000" stroke-width="2" stroke-linecap="round"/><rect width="235.47305" height="24.58922" x="55.22156" y="196.08862" rx="1" ry="1" stroke="#000" stroke-width="2" stroke-linecap="round"/><rect width="235.47305" height="24.58922" x="55.22156" y="230.26347" rx="1" ry="1" stroke="#000" stroke-width="2" stroke-linecap="round"/><rect width="50.01197" height="15.42036" x="47.09461" y="131.6982" rx="1" ry="1" stroke="#000" stroke-width="2" stroke-linecap="round"/><rect width="66.68263" height="33.34132" x="55.42994" y="279.6503" rx="1" ry="1" stroke="#000" stroke-width="2" stroke-linecap="round"/><rect width="67.51617" height="32.92455" x="223.80359" y="279.23352" rx="1" ry="1" stroke="#000" stroke-width="2" stroke-linecap="round"/><path d="M213.8012 149.2024l5.0012-21.67186M259.64551 149.61916l3.33413-15.42036M210.88383 138.36647l11.2527-15.42036v0l17.08742-12.08623 15.83713 14.17006 12.91976 17.08743 4.58443-6.66827v-16.67066l-8.33533-15.00359-10.83593.41677-12.50299 5.41796-8.7521-4.16766-9.16886-2.08384-10.83593 11.2527-4.16766 13.33653z" stroke="#000" stroke-width="2" stroke-linecap="round"/><ellipse cx="232.55569" cy="86.47904" rx="15.42036" ry="15.62874" stroke="#000" stroke-width="2" stroke-linecap="round"/><path d="M217.96886 107.10898l5.0012-8.7521M264.22994 103.77485l-2.5006-22.50539-9.58563-25.00599-9.58563-14.58682-9.16886-5.41797-6.2515 2.5006-2.91736 7.91856-.41677 26.2563" stroke="#000" stroke-width="2" stroke-linecap="round"/><circle cx="36.67545" cy="163.37245" r="4.16766" stroke="#000" stroke-width="2" stroke-linecap="round"/><path d="M34.59162 168.79042l-5.0012 16.25389 3.7509 2.08383h5.83473l5.0012-2.08383-5.0012-17.08742" stroke="#000" stroke-width="2" stroke-linecap="round"/><circle cx="36.45849" cy="199.00598" r="4.16766" stroke="#000" stroke-width="2" stroke-linecap="round"/><path d="M34.37465 204.42396l-5.0012 16.25389 3.7509 2.08383h5.83473l5.0012-2.08383-5.0012-17.08742" stroke="#000" stroke-width="2" stroke-linecap="round"/><circle cx="35.62495" cy="233.18085" r="4.16766" stroke="#000" stroke-width="2" stroke-linecap="round"/><path d="M33.54111 238.59881l-5.0012 16.25389 3.7509 2.08383h5.83473l5.0012-2.08383-5.0012-17.08742" stroke="#000" stroke-width="2" stroke-linecap="round"/><g aria-label="Pleb" style="line-height:1.25;-inkscape-font-specification:'NSimSun Bold';text-align:center" font-weight="700" font-size="17.85297" font-family="NSimSun" letter-spacing="0" word-spacing="0" text-anchor="middle" fill="#000" stroke-width=".55791"><path d="M57.2523 139.89973v4.60272q0 .27895.13947.41843.20921.13947.48816.13947h.48817v.41843h-3.34743v-.41843h.48817q.34869 0 .48817-.13947.13947-.13948.13947-.41843v-9.97256q0-.27895-.13947-.41842-.13948-.13948-.48817-.13948h-.41843v-.41843h4.11455q1.74345 0 2.65005.9066.97633.83685.97633 2.16188 0 1.60398-1.04607 2.44083-.97633.83686-2.3711.83686zm1.74345-.41843q1.04607 0 1.81319-.62764.83686-.62764.83686-2.16188 0-1.39477-.69739-2.02241-.62764-.69738-2.09214-.69738h-.97633q-.27896 0-.48817.13948-.13948.13947-.13948.41842v4.95141zM66.10904 133.55356q.62764 0 1.18555-.13948.5579-.13947 1.04607-.41843h.13947v11.5068q0 .27895.13948.41843.20921.13947.48817.13947h1.60397v.41843h-5.43957v-.41843h1.60398q.34869 0 .48816-.13947.13948-.13948.13948-.41843v-9.97256q0-.27895-.13948-.41842-.13947-.13948-.48816-.13948h-1.53424v-.41843zM79.15007 141.15502q.06974-1.53424-.5579-2.30136-.55791-.83686-1.53424-.83686-1.04608 0-1.74346.83686-.62764.83686-.62764 2.30136zm-4.46324.41843q0 1.88293.69738 2.71979.76712.76711 1.95267.76711.9066 0 1.53424-.48816.62764-.55791.9066-1.32503l.34868.13948q-.20921.76712-.97633 1.53424-.69738.69738-1.95267.69738-1.60398 0-2.65005-1.04607-.97633-1.04607-.97633-2.99874 0-1.74346.97633-2.85927 1.04608-1.18555 2.51058-1.18555 1.32502 0 2.30136.9066.97633.9066.97633 3.13822zM83.82253 139.27209q.34869-.76712 1.1158-1.18555.76713-.48817 1.4645-.48817 1.4645 0 2.16189 1.04607.76712.97634.76712 2.92901t-.97633 2.99874q-.9066.97633-2.30136.97633-.69738 0-1.32503-.20921-.5579-.27896-.97633-.69738l-.62764.83685h-.27896v-10.94889q0-.27895-.13947-.41842-.13948-.13948-.48817-.13948h-.41843v-.41843h.62764q.3487 0 .69739-.13948.34869-.13947.69738-.41843zm0 3.90533q0 .76712.48816 1.32503.5579.5579 1.60398.5579 1.25529 0 1.74345-.83685.55791-.9066.55791-2.65005 0-1.67372-.48817-2.51058-.41843-.90659-1.39476-.90659-.83686 0-1.4645.48816-.62764.48817-1.04607 1.74346z"/></g><circle cx="227.34612" cy="80.64431" r=".62515" fill="#000" stroke="#000" stroke-width="2" stroke-linecap="round"/><g aria-label="Hi." style="line-height:1.25;-inkscape-font-specification:'NSimSun Bold';text-align:center" font-weight="700" font-size="27.15035" font-family="NSimSun" letter-spacing="0" word-spacing="0" text-anchor="middle" fill="#000" stroke-width=".84845"><path d="M159.76044 181.03253q0 .42423.21211.63634.31817.21211.7424.21211h.53028v.63634h-4.66647v-.63634h.53028q.53028 0 .74239-.21211.21211-.21211.21211-.63634v-7.74209h-6.2573v7.74209q0 .42423.21211.63634.31817.21211.74239.21211h.53028v.63634h-4.66647v-.63634h.53028q.53028 0 .7424-.21211.21211-.21211.21211-.63634v-15.16601q0-.42423-.21211-.63634-.21212-.21211-.7424-.21211h-.42422v-.63634h4.45435v.63634h-.42422q-.42422 0-.74239.21211-.21211.21211-.21211.63634v6.78758h6.2573v-6.78758q0-.42423-.21211-.63634-.21211-.21211-.74239-.21211h-.42422v-.63634h4.45435v.63634h-.42422q-.42423 0-.7424.21211-.21211.21211-.21211.63634zM167.8207 172.22988q0-.42422-.21211-.63634-.21211-.31816-.74239-.31816h-2.22718v-.63634h1.06056q.95451 0 1.80295-.10606.84845-.21211 1.59085-.63633h.21211v11.13588q0 .42423.21211.63634.31817.21211.74239.21211h2.22718v.63634h-7.84815v-.63634h2.22718q.53028 0 .74239-.21211.21211-.21211.21211-.63634zm1.27268-2.12112zm-.42423-5.93914q.53028 0 .95451.42422.42422.31817.42422.84845 0 .53028-.42422.95451-.42423.42422-.95451.42422t-.9545-.42422q-.42423-.42423-.42423-.95451t.42423-.84845q.42422-.42422.9545-.42422zM178.74448 182.83549q-.63634 0-1.16662-.42423-.42422-.42422-.42422-1.16661 0-.7424.42422-1.16662.53028-.42422 1.16662-.42422.63633 0 1.06056.53028.53028.42422.53028 1.06056 0 .74239-.53028 1.16661-.42423.42423-1.06056.42423z"/></g><g aria-label="Hi!" style="line-height:1.25;-inkscape-font-specification:'NSimSun Bold';text-align:center" font-weight="700" font-size="27.15035" font-family="NSimSun" letter-spacing="0" word-spacing="0" text-anchor="middle" fill="#000" stroke-width=".84845"><path d="M158.23619 215.91321q0 .42422.21212.63634.31817.21211.74239.21211h.53028v.63634h-4.66647v-.63634h.53028q.53028 0 .7424-.21211.21211-.21212.21211-.63634v-7.74209h-6.25731v7.74209q0 .42422.21211.63634.31817.21211.74239.21211h.53028v.63634h-4.66646v-.63634h.53028q.53028 0 .74239-.21211.21211-.21212.21211-.63634v-15.16602q0-.42422-.21211-.63633-.21211-.21212-.74239-.21212h-.42423v-.63633h4.45436v.63633h-.42423q-.42422 0-.74239.21212-.21211.21211-.21211.63633v6.78759h6.25731v-6.78759q0-.42422-.21211-.63633-.21212-.21212-.7424-.21212h-.42422v-.63633h4.45435v.63633h-.42422q-.42422 0-.74239.21212-.21212.21211-.21212.63633zM166.29646 207.11056q0-.42423-.21212-.63634-.21211-.31817-.74239-.31817h-2.22718v-.63633h1.06056q.95451 0 1.80296-.10606.84845-.21211 1.59084-.63634h.21211v11.13589q0 .42422.21211.63634.31817.21211.7424.21211h2.22717v.63634h-7.84815v-.63634h2.22718q.53028 0 .74239-.21211.21212-.21212.21212-.63634zm1.27267-2.12112zm-.42423-5.93914q.53029 0 .95451.42422.42422.31817.42422.84845 0 .53028-.42422.9545-.42422.42423-.95451.42423-.53028 0-.9545-.42423-.42422-.42422-.42422-.9545 0-.53028.42422-.84845.42422-.42422.9545-.42422zM180.50797 217.71616q-.63634 0-1.06056-.42422-.42423-.42422-.42423-1.06056 0-.63634.42423-1.06056.42422-.42423 1.06056-.42423.63634 0 1.06056.42423.42423.42422.42423 1.06056 0 .63634-.42423 1.06056-.42422.42422-1.06056.42422zm.42422-7.10575v1.06056h-.84844v-1.06056q0-2.86352-.31817-5.83309-.42423-2.86351-.42423-4.24224 0-.84845.21212-1.27267.31816-.53028.9545-.53028.74239 0 .9545.53028.21212.53028.21212 1.27267 0 1.37873-.31817 4.24224-.42423 2.96957-.42423 5.83309z"/></g><g aria-label="Hi?" style="line-height:1.25;-inkscape-font-specification:'NSimSun Bold';text-align:center" font-weight="700" font-size="30.54643" font-family="NSimSun" letter-spacing="0" word-spacing="0" text-anchor="middle" fill="#000" stroke-width=".95458"><path d="M157.81922 251.05769q0 .47729.23865.71594.35796.23864.83525.23864h.59661v.71593h-5.25017v-.71593h.59661q.59661 0 .83526-.23864.23864-.23865.23864-.71594v-8.7105h-7.04v8.7105q0 .47729.23865.71594.35796.23864.83525.23864h.59661v.71593h-5.25017v-.71593h.59661q.59661 0 .83526-.23864.23864-.23865.23864-.71594v-17.06304q0-.47729-.23864-.71593-.23865-.23864-.83526-.23864h-.47728v-.71594h5.01152v.71594h-.47729q-.47729 0-.83525.23864-.23865.23864-.23865.71593v7.63661h7.04v-7.63661q0-.47729-.23864-.71593-.23865-.23864-.83526-.23864h-.47729v-.71594h5.01153v.71594h-.47729q-.47729 0-.83525.23864-.23865.23864-.23865.71593zM166.88769 241.15397q0-.47729-.23864-.71593-.23865-.35797-.83526-.35797h-2.50576v-.71593h1.19322q1.0739 0 2.02848-.11932.95457-.23865 1.78983-.71593h.23864v12.5288q0 .47729.23864.71594.35797.23864.83526.23864h2.50576v.71593h-8.82983v-.71593h2.50576q.59661 0 .83526-.23864.23864-.23865.23864-.71594zm1.43187-2.38644zm-.47729-6.68203q.59661 0 1.0739.47729.47728.35796.47728.95457 0 .59661-.47728 1.0739-.47729.47729-1.0739.47729-.59661 0-1.0739-.47729-.47729-.47729-.47729-1.0739 0-.59661.47729-.95457.47729-.47729 1.0739-.47729zM178.58125 239.60278q-.71594 0-1.19322-.47728-.47729-.47729-.47729-1.78983 0-2.1478 1.78983-3.81831 1.78983-1.78983 4.41491-1.78983 2.62509 0 4.29559 1.55119 1.67051 1.55119 1.67051 4.05695 0 1.31254-.47729 2.50576-.47729 1.0739-2.14779 2.02847-1.78983 1.0739-2.62509 1.78983-.71593.59661-.71593 1.90915v2.1478h-.95457v-2.38644q0-1.31254.35796-2.02847.47729-.83526 1.55119-1.55119 1.78983-1.19322 2.26711-2.1478.59661-.95457.59661-2.38644 0-2.26711-1.07389-3.34101-.95458-1.0739-2.98305-1.0739-2.1478 0-3.34102 1.19322-1.19322 1.0739-1.19322 2.1478 0 .35796.11932.59661.23865.11932.59661.35796.47729.23865.59661.59661.23865.35797.23865.83526 0 .59661-.35797.83525-.35796.23864-.95457.23864zm5.84677 11.81288q0 .71593-.47728 1.19322-.47729.47729-1.19322.47729-.71594 0-1.19322-.47729-.47729-.47729-.47729-1.19322t.47729-1.19322q.47728-.47729 1.19322-.47729.71593 0 1.19322.47729.47728.47729.47728 1.19322z"/></g><path d="M248.30536 304.18957v-19.07134l16.51626 9.53567z" fill="#000" stroke="#000" stroke-width="2" stroke-linecap="round"/><circle cx="237.97365" cy="81.68623" r=".62515" fill="#000" stroke="#000" stroke-width="2" stroke-linecap="round"/><path d="M222.55329 90.43832l17.5042 2.08384" fill="#000" stroke="#000" stroke-width="2" stroke-linecap="round"/></svg>