<svg xmlns="http://www.w3.org/2000/svg" viewBox="0 0 348 348" fill="none"><path d="M5.079 5.776h336.913v337.67H5.08z" stroke-width="2" stroke="#000" fill="#007f00" fill-opacity=".373"/><path d="M282.734 40.554c0-8.376 6.966-15.165 15.56-15.165 4.126 0 8.084 1.597 11.001 4.441 2.918 2.844 4.558 6.702 4.558 10.724 0 8.376-6.966 15.165-15.56 15.165-8.593 0-15.559-6.79-15.559-15.165z" stroke-width="2" stroke="#000" fill="#fff"/><path d="M134.625 160.708c-16.666 25-50 25-66.667 0-16.667-25.002-16.667-75 0-100 16.667-24.999 50-24.999 66.667 0 16.666 24.998 16.666 75 0 100z" transform="matrix(.40684 0 0 1.79768 7.94 -9.627)" fill="#7fff00" fill-opacity=".247" stroke="#000" stroke-width="1.169"/><path transform="matrix(.40684 0 0 1.79768 64.426 -9.627)" d="M134.625 160.708c-16.666 25-50 25-66.667 0-16.667-25.002-16.667-75 0-100 16.667-24.999 50-24.999 66.667 0 16.666 24.998 16.666 75 0 100z" fill="#7fff00" fill-opacity=".247" stroke="#000" stroke-width="1.169"/><path d="M134.625 160.708c-16.666 25-50 25-66.667 0-16.667-25.002-16.667-75 0-100 16.667-24.999 50-24.999 66.667 0 16.666 24.998 16.666 75 0 100z" transform="matrix(.40684 0 0 1.79768 118.314 -10.926)" fill="#7fff00" fill-opacity=".247" stroke="#000" stroke-width="1.169"/><path transform="matrix(.40684 0 0 1.79768 174.799 -11.575)" d="M134.625 160.708c-16.666 25-50 25-66.667 0-16.667-25.002-16.667-75 0-100 16.667-24.999 50-24.999 66.667 0 16.666 24.998 16.666 75 0 100z" fill="#7fff00" fill-opacity=".247" stroke="#000" stroke-width="1.169"/><path d="M134.625 160.708c-16.666 25-50 25-66.667 0-16.667-25.002-16.667-75 0-100 16.667-24.999 50-24.999 66.667 0 16.666 24.998 16.666 75 0 100z" transform="matrix(.40684 0 0 1.79768 228.038 -12.224)" fill="#7fff00" fill-opacity=".247" stroke="#000" stroke-width="1.169"/></svg>