<svg xmlns="http://www.w3.org/2000/svg" fill="none" viewBox="0 0 348 348"><path stroke="#000" stroke-width="2" d="M5 5.8h337v337.6H5z"/><path stroke="#000" stroke-width="2" d="M282.7 40.6c0-8.4 7-15.2 15.6-15.2 4.1 0 8 1.6 11 4.4a15 15 0 0 1 4.6 10.8c0 8.3-7 15.1-15.6 15.1s-15.6-6.8-15.6-15.1z"/><path fill="#000" stroke="#000" stroke-linejoin="round" stroke-width="1.8" d="M267.6 133.3h59V323h-59z"/><path fill="#000" stroke="#000" stroke-linejoin="round" stroke-width="24" d="M284.5 92.7h26.3v15.9h-26.3z"/><path fill="#fff" stroke="#000" stroke-width="5.3" d="M22 28.6h226.5v295.2H22z"/><path fill="#000" stroke="#000" stroke-width="2.3" d="M21.9 277.3h43.6v46.6H21.9zm0-98h43.6v46.6H21.9zm0-98h43.6v46.6H21.9z"/><path fill="#000" stroke="#000" stroke-width="2.2" d="M65.7 228.2h42V275h-42z"/><path fill="#000" stroke="#000" stroke-width="2.3" d="M67.4 130.2H111V177H67.4zm0-98H111V79H67.4zM112.7 277h43.6v46.6h-43.6zm0-98h43.6v46.6h-43.6zm0-98h43.6v46.6h-43.6zm45.5 147H202v46.6h-43.7zm0-98H202v46.6h-43.7zm0-98H202v46.6h-43.7zm45.5 244.7h43.7v46.7h-43.7zm0-98h43.7v46.7h-43.7zm0-98h43.7v46.7h-43.7z"/></svg>