<svg xmlns="http://www.w3.org/2000/svg" fill="none" viewBox="0 0 348 348"><path stroke="#000" stroke-width="2" d="M5 5.8h337v337.6H5Z"/><path stroke="#000" stroke-width="2" d="M282.7 40.6c0-8.4 7-15.2 15.6-15.2 4.1 0 8 1.6 11 4.4a15 15 0 0 1 4.6 10.8c0 8.3-7 15.1-15.6 15.1s-15.6-6.8-15.6-15.1z"/><path fill="#000" fill-rule="evenodd" d="M17.4 12.3v1.4H16v1.4h-1.3v2.7h-1.4v10.9h1.4v2.7H16v1.4h1.4V34h10.9v-1.3h1.3v-1.4H31v-2.7h1.4v-11H31v-2.6h-1.4v-1.4h-1.3v-1.4z" style="font-variation-settings:normal"/><path fill="#a56339" fill-rule="evenodd" d="M18.8 13.7v1.4h-1.4v1.3h4v-2.7h-1.3zm2.7 0v2.7h4v-2.7h-2.7zm4 0v2.7h2.8v-1.3h-1.4v-1.4zM16 16.4v2.8h-1.3v1.3h2.7v-4zm1.4 0v4.1h4v-4h-2.6zm4 0v4.1h4.2v-4h-2.8zm4.2 0v4.1H31v-1.3h-1.4v-2.8H27zm-11 4.1v4h2.8v-4H16zm2.8 0v4h4v-4h-2.6zm4 0v4h4.2v-4h-2.8zm4.2 0v4H31v-4h-4zm-11 4v2.8H16v1.4h1.4v-4.1H16zm2.8 0v4.2h4v-4.1h-2.6zm4 0v4.2h4.2v-4.1h-2.8zm4.2 0v4.2h4v-1.4H31v-2.7h-4zM16 28.8V30h1.4v-1.3zm1.4 0v2.7h1.4v1.3h2.7v-4h-2.7zm4 0v4h4.2v-4h-2.8zm4.2 0v4h1.3v-1.3h1.4V30h1.3v-1.3H27z" style="font-variation-settings:normal"/><path fill="#ce8439" fill-rule="evenodd" d="M18.8 13.7v1.4H20v-1.4zm6.8 0v1.4h1.3v-1.4zm-1.4 2.7v1.4h1.4v-1.4zm0 1.4h-1.4V19h-1.3v1.4h-2.7V22H20v1.3h1.4V22h1.3v-1.4h1.4v-1.4zm-2.7 5.4v1.4h1.3v-1.4zm-6.8-4v1.3H16v-1.4zm10.9 1.3V22h2.7v-1.4h-1.4Zm-11 4V26H16v-1.4zm11 0V26h1.3v-1.4zM16 27.4v1.4h1.4v-1.4zm1.4 1.4V30h1.4v-1.3zm1.4 1.3v1.4H20V30zm8.1 0v1.4h1.4V30z" style="font-variation-settings:normal"/><path fill="#ffde5a" fill-rule="evenodd" d="M20.1 13.7v1.4h1.4v-1.4H20zm-2.7 1.4v1.3h1.4v-1.3h-1.4zm5.4 0v1.3h1.4v-1.3h-1.4zm0 1.3h-2.7v1.4h-1.3v2.7H20v-1.4h2.7v-2.7zm-4 4.1h-1.4V22H16v1.3h1.4V26h1.4v2.8H20v-2.8h1.4v-1.3H20v-1.4h-1.3v-2.7zm2.7 5.4v1.4h1.3V26h-1.3zM20 28.8V30h1.4v-1.3H20zm-4-6.8v-1.4h-1.4V22H16zm9.5-5.5v1.4h1.3V19h2.7v-1.3h-1.3v-1.4h-2.7zM16 17.8V19h1.4v-1.3H16zm13.6 4v1.4H31V22h-1.4zm0 1.4h-1.3v1.4h-1.4v1.3h1.4v2.8h1.3v-5.5zm-1.3 5.5h-2.7v-1.4h-1.4V30h4v-1.3zm-1.4-4.1v-1.4h-1.3v1.4h1.3z" style="font-variation-settings:normal"/><path fill="#f7b552" fill-rule="evenodd" d="M24.2 13.7v2.7h2.7v-1.3h-1.3v-1.4h-1.4zM16 16.4v1.4h1.4v-1.4H16zm9.6 1.4V19h1.3v-1.3h-1.3zm0 1.3h-1.4V22h-2.7v1.3h1.3V26h1.4v1.4h1.4v-4h2.7v-1.4h-2.7V19zm0 8.2v1.4h1.3v-1.4h-1.3zm1.3 0h1.4V26h-1.4v1.4zm1.4-8.2v1.4h1.3v-1.4h-1.3zm1.3 1.4V22H31v-1.4h-1.4zm-15 1.4v1.3H16V22h-1.3zm1.4 1.3v1.4h1.4v-1.4H16zm13.6 0v1.4H31v-1.4h-1.4zM17.4 26v1.4h1.4V26h-1.4zm2.7 0v2.8h1.4v-2.8H20zm1.4 4.1v1.4h5.4V30h-5.4z" style="font-variation-settings:normal"/><path fill="#ffff8c" fill-rule="evenodd" d="M21.5 13.7v2.7h1.3v-1.3h1.4v-1.4h-2.7zm-2.7 2.7v1.4H20v-1.4h-1.3zm0 1.4h-1.4v2.7h1.4v-2.7zm-1.4 2.7H16V22h1.4v-1.4zM28.3 22v1.3h1.3V22h-1.3zm0 1.3h-1.4v1.4h1.4v-1.4zm-5.5 4.1v1.4h-1.3V30h2.7v-2.7h-1.4z" style="font-variation-settings:normal"/><path fill="#e7de00" fill-rule="evenodd" d="M18.8 15v1.4h2.7v-1.3h-2.7zm0 1.4h-1.4v1.4h1.4v-1.4zM16 19.1v1.4h1.4v-1.4H16zm6.8 6.8v1.4h1.4V26h-1.4zm0 1.4h-1.3v1.4h1.3v-1.4z" style="font-variation-settings:normal"/><path fill="#e7a54a" fill-rule="evenodd" d="M27 15v1.4h1.3v-1.3h-1.4zm1.3 1.4v1.4h1.3v-1.4h-1.3zm-5.5 0v1.4h1.4v-1.4h-1.4zm1.4 1.4V19h1.4v-1.3h-1.4zm1.4 1.3v1.4h2.7v-1.4h-2.7zm2.7 1.4V22h1.3v-1.4h-1.3zM20 19.1v1.4h1.4v-1.4H20zm2.7 1.4V22h1.4v-1.4h-1.4zm-4 1.4v1.3H20V22h-1.3zm1.3 1.3v1.4h1.4v-1.4H20zm1.4 1.4v1.3h1.3v-1.3h-1.3zm-6.8-1.4v1.4H16v-1.4h-1.3zm1.3 1.4v2.7h1.4v-2.7H16zm1.4 2.7v1.4h1.4v-1.4h-1.4zm1.4 1.4V30H20v-1.3h-1.3zM20 30v1.4h1.4V30H20zm9.5-5.4v1.3H31v-1.3h-1.4zm-4 1.3v1.4h1.3V26h-1.3zm1.3 1.4v1.4h1.4v-1.4h-1.4zm1.4 1.4V30h1.3v-1.3h-1.3z" style="font-variation-settings:normal"/><path fill="#000" fill-rule="evenodd" d="M40.4 40.2v1.4h-1.3V43h-1.4v4h2.7v13.6h8.2V40.2Z" style="font-variation-settings:normal" transform="translate(0 -27.2)"/><path fill="#ffff31" fill-rule="evenodd" d="M41.8 41.6V43h-1.4v1.3h-1.3v1.4h2.7v13.6h5.4V41.6Z" style="font-variation-settings:normal" transform="translate(0 -27.2)"/><path fill="#000" fill-rule="evenodd" d="M88.7 13v1.4h-1.4v1.4H86V17h-1.4v1.4h-1.4v10.8h1.4v1.4H86v1.4h1.3v1.3h8.2v-1.3h1.3v-1.4h1.4v-1.3h1.3V28h1.4V17h-1.4v-1.3h-1.3v-1.4h-1.4V13z" style="font-variation-settings:normal" transform="translate(-27.2)"/><path fill="#ffff31" fill-rule="evenodd" d="M90 14.4v1.4h-1.3V17h-1.4v1.4H86v1.3h-1.4V28H86v1.4h1.3v1.3h1.4v1.4H94v-1.4h1.4v-1.4h1.3V28h1.4v-1.4h1.3v-8.1h-1.3V17h-1.4v-1.3h-1.3v-1.4z" style="font-variation-settings:normal" transform="translate(-27.2)"/><path fill="#000" fill-rule="evenodd" d="M91.4 18.5v1.3H90v1.4h-1.3v5.4H90V28h2.8v-1.4H94v-6.8h-1.3v-1.3z" style="font-variation-settings:normal" transform="translate(-27.2)"/><path fill="#000" fill-rule="evenodd" d="M119 22.2v1.4h-1.4v1.3h-1.4v59.8h1.4v1.4h1.3v1.4H157V86h1.4v-1.4h1.3V25h-1.3v-1.3H157v-1.4z" style="font-variation-settings:normal" transform="translate(-54.4 68)"/><path fill="#fcffff" fill-rule="evenodd" d="M121.7 23.6v1.3h-1.4v1.4h-1.4v1.4h-1.3V82h40.8V27.7H157v-1.4h-1.4v-1.4h-1.3v-1.3z" style="font-variation-settings:normal" transform="translate(-54.4 68)"/><path fill="#ef636b" fill-rule="evenodd" d="M120.3 84.7v1.4h35.3v-1.4ZM155.6 83.4v1.3h1.4v-1.3zm-36.7 0v1.3h1.4v-1.3zM157 82v1.4h1.4V82zm-39.4 0v1.4h1.3V82zM157 26.3v1.4h1.4v-1.4zm-39.4 0v1.4h1.3v-1.4zm1.3-1.4v1.4h1.4v-1.4zm36.7 0v1.4h1.4V25zm-1.3-1.3v1.3h1.3v-1.3zm-34 0v1.3h1.4v-1.3z" style="font-variation-settings:normal" transform="translate(-54.4 68)"/><path fill="#de0010" fill-rule="evenodd" d="M119 27.7h38v55.7h-38z" style="font-variation-settings:normal" transform="translate(-54.4 68)"/><path fill="#de0010" fill-rule="evenodd" d="M120.3 26.3h35.3v58.4h-35.3z" style="font-variation-settings:normal" transform="translate(-54.4 68)"/><path fill="#de0010" fill-rule="evenodd" d="M121.7 25h32.6v58.4h-32.6z" style="font-variation-settings:normal" transform="translate(-54.4 68)"/><path fill="#fff" fill-rule="evenodd" d="M125.7 25v2.7h2.8v-2.8zm11 0v2.7h2.6v-2.8zm10.8 0v2.7h2.7v-2.8zm-23.1 2.7v2.7h1.3v-2.7zm4 0v2.7h1.4v-2.7zm6.9 0v2.7h1.3v-2.7zm4 0v2.7h1.4v-2.7zm6.8 0v2.7h1.4v-2.7zm4.1 0v2.7h1.4v-2.7zM119 30.4V33h1.4v-2.7zm4.1 0V33h1.4v-2.7zm6.8 0V33h1.4v-2.7zm4.1 0V33h1.4v-2.7zm6.8 0V33h1.4v-2.7zm4 0V33h1.4v-2.7zm6.9 0V33h1.3v-2.7zm4 0V33h1.4v-2.7zM120.4 33v5.4h2.7v-5.4zm10.9 0v5.4h2.7v-5.4zm10.9 0v5.4h2.7v-5.4zm10.8 0v5.4h2.8v-5.4zm-34 5.4v2.8h1.4v-2.8zm4.1 0v2.8h1.4v-2.8zm6.8 0v2.8h1.4v-2.8zm4.1 0v2.8h1.4v-2.8zm6.8 0v2.8h1.4v-2.8zm4 0v2.8h1.4v-2.8zm6.9 0v2.8h1.3v-2.8zm4 0v2.8h1.4v-2.8zm-31.2 2.8V44h1.3v-2.7zm4 0V44h1.4v-2.7zm6.9 0V44h1.3v-2.7zm4 0V44h1.4v-2.7zm6.8 0V44h1.4v-2.7zm4.1 0V44h1.4v-2.7zM125.7 44v2.7h2.8V44zm11 0v2.7h2.6V44zm10.8 0v2.7h2.7V44zm-23.1 2.7v2.7h1.3v-2.7zm4 0v2.7h1.4v-2.7zm6.9 0v2.7h1.3v-2.7zm4 0v2.7h1.4v-2.7zm6.8 0v2.7h1.4v-2.7zm4.1 0v2.7h1.4v-2.7zM119 49.4v2.7h1.4v-2.7zm4.1 0v2.7h1.4v-2.7zm6.8 0v2.7h1.4v-2.7zm4.1 0v2.7h1.4v-2.7zm6.8 0v2.7h1.4v-2.7zm4 0v2.7h1.4v-2.7zm6.9 0v2.7h1.3v-2.7zm4 0v2.7h1.4v-2.7zm-35.3 2.7v5.5h2.7V52zm10.9 0v5.5h2.7V52zm10.9 0v5.5h2.7V52zm10.8 0v5.5h2.8V52zm-34 5.5v2.7h1.4v-2.7zm4.1 0v2.7h1.4v-2.7zm6.8 0v2.7h1.4v-2.7zm4.1 0v2.7h1.4v-2.7zm6.8 0v2.7h1.4v-2.7zm4 0v2.7h1.4v-2.7zm6.9 0v2.7h1.3v-2.7zm4 0v2.7h1.4v-2.7zm-31.2 2.7V63h1.3v-2.7zm4 0V63h1.4v-2.7zm6.9 0V63h1.3v-2.7zm4 0V63h1.4v-2.7zm6.8 0V63h1.4v-2.7zm4.1 0V63h1.4v-2.7zM125.7 63v2.7h2.8V63zm11 0v2.7h2.6V63zm10.8 0v2.7h2.7V63zm-23.1 2.7v2.8h1.3v-2.8zm4 0v2.8h1.4v-2.8zm6.9 0v2.8h1.3v-2.8zm4 0v2.8h1.4v-2.8zm6.8 0v2.8h1.4v-2.8zm4.1 0v2.8h1.4v-2.8zM119 68.5v2.7h1.4v-2.7zm4.1 0v2.7h1.4v-2.7zm6.8 0v2.7h1.4v-2.7zm4.1 0v2.7h1.4v-2.7zm6.8 0v2.7h1.4v-2.7zm4 0v2.7h1.4v-2.7zm6.9 0v2.7h1.3v-2.7zm4 0v2.7h1.4v-2.7zm-35.3 2.7v5.4h2.7v-5.4zm10.9 0v5.4h2.7v-5.4zm10.9 0v5.4h2.7v-5.4zm10.8 0v5.4h2.8v-5.4zm-34 5.4v2.7h1.4v-2.7zm4.1 0v2.7h1.4v-2.7zm6.8 0v2.7h1.4v-2.7zm4.1 0v2.7h1.4v-2.7zm6.8 0v2.7h1.4v-2.7zm4 0v2.7h1.4v-2.7zm6.9 0v2.7h1.3v-2.7zm4 0v2.7h1.4v-2.7zm-31.2 2.7v2.8h1.3v-2.8zm4 0v2.8h1.4v-2.8zm6.9 0v2.8h1.3v-2.8zm4 0v2.8h1.4v-2.8zm6.8 0v2.8h1.4v-2.8zm4.1 0v2.8h1.4v-2.8zm-24.5 2.8v2.7h2.8V82Zm11 0v2.7h2.6V82Zm10.8 0v2.7h2.7V82Z" style="font-variation-settings:normal" transform="translate(-54.4 68)"/><path fill="#000" fill-rule="evenodd" d="M119 22.2v1.4h-1.4v1.3h-1.4v59.8h1.4v1.4h1.3v1.4H157V86h1.4v-1.4h1.3V25h-1.3v-1.3H157v-1.4z" style="font-variation-settings:normal" transform="translate(168 68)"/><path fill="#fcffff" fill-rule="evenodd" d="M121.7 23.6v1.3h-1.4v1.4h-1.4v1.4h-1.3V82h40.8V27.7H157v-1.4h-1.4v-1.4h-1.3v-1.3z" style="font-variation-settings:normal" transform="translate(168 68)"/><path fill="#ef636b" fill-rule="evenodd" d="M120.3 84.7v1.4h35.3v-1.4ZM155.6 83.4v1.3h1.4v-1.3zm-36.7 0v1.3h1.4v-1.3zM157 82v1.4h1.4V82zm-39.4 0v1.4h1.3V82zM157 26.3v1.4h1.4v-1.4zm-39.4 0v1.4h1.3v-1.4zm1.3-1.4v1.4h1.4v-1.4zm36.7 0v1.4h1.4V25zm-1.3-1.3v1.3h1.3v-1.3zm-34 0v1.3h1.4v-1.3z" style="font-variation-settings:normal" transform="translate(168 68)"/><path fill="#de0010" fill-rule="evenodd" d="M119 27.7h38v55.7h-38z" style="font-variation-settings:normal" transform="translate(168 68)"/><path fill="#de0010" fill-rule="evenodd" d="M120.3 26.3h35.3v58.4h-35.3z" style="font-variation-settings:normal" transform="translate(168 68)"/><path fill="#de0010" fill-rule="evenodd" d="M121.7 25h32.6v58.4h-32.6z" style="font-variation-settings:normal" transform="translate(168 68)"/><path fill="#fff" fill-rule="evenodd" d="M125.7 25v2.7h2.8v-2.8zm11 0v2.7h2.6v-2.8zm10.8 0v2.7h2.7v-2.8zm-23.1 2.7v2.7h1.3v-2.7zm4 0v2.7h1.4v-2.7zm6.9 0v2.7h1.3v-2.7zm4 0v2.7h1.4v-2.7zm6.8 0v2.7h1.4v-2.7zm4.1 0v2.7h1.4v-2.7zM119 30.4V33h1.4v-2.7zm4.1 0V33h1.4v-2.7zm6.8 0V33h1.4v-2.7zm4.1 0V33h1.4v-2.7zm6.8 0V33h1.4v-2.7zm4 0V33h1.4v-2.7zm6.9 0V33h1.3v-2.7zm4 0V33h1.4v-2.7zM120.4 33v5.4h2.7v-5.4zm10.9 0v5.4h2.7v-5.4zm10.9 0v5.4h2.7v-5.4zm10.8 0v5.4h2.8v-5.4zm-34 5.4v2.8h1.4v-2.8zm4.1 0v2.8h1.4v-2.8zm6.8 0v2.8h1.4v-2.8zm4.1 0v2.8h1.4v-2.8zm6.8 0v2.8h1.4v-2.8zm4 0v2.8h1.4v-2.8zm6.9 0v2.8h1.3v-2.8zm4 0v2.8h1.4v-2.8zm-31.2 2.8V44h1.3v-2.7zm4 0V44h1.4v-2.7zm6.9 0V44h1.3v-2.7zm4 0V44h1.4v-2.7zm6.8 0V44h1.4v-2.7zm4.1 0V44h1.4v-2.7zM125.7 44v2.7h2.8V44zm11 0v2.7h2.6V44zm10.8 0v2.7h2.7V44zm-23.1 2.7v2.7h1.3v-2.7zm4 0v2.7h1.4v-2.7zm6.9 0v2.7h1.3v-2.7zm4 0v2.7h1.4v-2.7zm6.8 0v2.7h1.4v-2.7zm4.1 0v2.7h1.4v-2.7zM119 49.4v2.7h1.4v-2.7zm4.1 0v2.7h1.4v-2.7zm6.8 0v2.7h1.4v-2.7zm4.1 0v2.7h1.4v-2.7zm6.8 0v2.7h1.4v-2.7zm4 0v2.7h1.4v-2.7zm6.9 0v2.7h1.3v-2.7zm4 0v2.7h1.4v-2.7zm-35.3 2.7v5.5h2.7V52zm10.9 0v5.5h2.7V52zm10.9 0v5.5h2.7V52zm10.8 0v5.5h2.8V52zm-34 5.5v2.7h1.4v-2.7zm4.1 0v2.7h1.4v-2.7zm6.8 0v2.7h1.4v-2.7zm4.1 0v2.7h1.4v-2.7zm6.8 0v2.7h1.4v-2.7zm4 0v2.7h1.4v-2.7zm6.9 0v2.7h1.3v-2.7zm4 0v2.7h1.4v-2.7zm-31.2 2.7V63h1.3v-2.7zm4 0V63h1.4v-2.7zm6.9 0V63h1.3v-2.7zm4 0V63h1.4v-2.7zm6.8 0V63h1.4v-2.7zm4.1 0V63h1.4v-2.7zM125.7 63v2.7h2.8V63zm11 0v2.7h2.6V63zm10.8 0v2.7h2.7V63zm-23.1 2.7v2.8h1.3v-2.8zm4 0v2.8h1.4v-2.8zm6.9 0v2.8h1.3v-2.8zm4 0v2.8h1.4v-2.8zm6.8 0v2.8h1.4v-2.8zm4.1 0v2.8h1.4v-2.8zM119 68.5v2.7h1.4v-2.7zm4.1 0v2.7h1.4v-2.7zm6.8 0v2.7h1.4v-2.7zm4.1 0v2.7h1.4v-2.7zm6.8 0v2.7h1.4v-2.7zm4 0v2.7h1.4v-2.7zm6.9 0v2.7h1.3v-2.7zm4 0v2.7h1.4v-2.7zm-35.3 2.7v5.4h2.7v-5.4zm10.9 0v5.4h2.7v-5.4zm10.9 0v5.4h2.7v-5.4zm10.8 0v5.4h2.8v-5.4zm-34 5.4v2.7h1.4v-2.7zm4.1 0v2.7h1.4v-2.7zm6.8 0v2.7h1.4v-2.7zm4.1 0v2.7h1.4v-2.7zm6.8 0v2.7h1.4v-2.7zm4 0v2.7h1.4v-2.7zm6.9 0v2.7h1.3v-2.7zm4 0v2.7h1.4v-2.7zm-31.2 2.7v2.8h1.3v-2.8zm4 0v2.8h1.4v-2.8zm6.9 0v2.8h1.3v-2.8zm4 0v2.8h1.4v-2.8zm6.8 0v2.8h1.4v-2.8zm4.1 0v2.8h1.4v-2.8zm-24.5 2.8v2.7h2.8V82Zm11 0v2.7h2.6V82Zm10.8 0v2.7h2.7V82Z" style="font-variation-settings:normal" transform="translate(168 68)"/><path fill="#000" fill-rule="evenodd" d="M119 22.2v1.4h-1.4v1.3h-1.4v59.8h1.4v1.4h1.3v1.4H157V86h1.4v-1.4h1.3V25h-1.3v-1.3H157v-1.4z" style="font-variation-settings:normal" transform="translate(56.8 68)"/><path fill="#fcffff" fill-rule="evenodd" d="M121.7 23.6v1.3h-1.4v1.4h-1.4v1.4h-1.3V82h40.8V27.7H157v-1.4h-1.4v-1.4h-1.3v-1.3z" style="font-variation-settings:normal" transform="translate(56.8 68)"/><path fill="#ef636b" fill-rule="evenodd" d="M120.3 84.7v1.4h35.3v-1.4ZM155.6 83.4v1.3h1.4v-1.3zm-36.7 0v1.3h1.4v-1.3zM157 82v1.4h1.4V82zm-39.4 0v1.4h1.3V82zM157 26.3v1.4h1.4v-1.4zm-39.4 0v1.4h1.3v-1.4zm1.3-1.4v1.4h1.4v-1.4zm36.7 0v1.4h1.4V25zm-1.3-1.3v1.3h1.3v-1.3zm-34 0v1.3h1.4v-1.3z" style="font-variation-settings:normal" transform="translate(56.8 68)"/><path fill="#de0010" fill-rule="evenodd" d="M119 27.7h38v55.7h-38z" style="font-variation-settings:normal" transform="translate(56.8 68)"/><path fill="#de0010" fill-rule="evenodd" d="M120.3 26.3h35.3v58.4h-35.3z" style="font-variation-settings:normal" transform="translate(56.8 68)"/><path fill="#de0010" fill-rule="evenodd" d="M121.7 25h32.6v58.4h-32.6z" style="font-variation-settings:normal" transform="translate(56.8 68)"/><path fill="#fff" fill-rule="evenodd" d="M125.7 25v2.7h2.8v-2.8zm11 0v2.7h2.6v-2.8zm10.8 0v2.7h2.7v-2.8zm-23.1 2.7v2.7h1.3v-2.7zm4 0v2.7h1.4v-2.7zm6.9 0v2.7h1.3v-2.7zm4 0v2.7h1.4v-2.7zm6.8 0v2.7h1.4v-2.7zm4.1 0v2.7h1.4v-2.7zM119 30.4V33h1.4v-2.7zm4.1 0V33h1.4v-2.7zm6.8 0V33h1.4v-2.7zm4.1 0V33h1.4v-2.7zm6.8 0V33h1.4v-2.7zm4 0V33h1.4v-2.7zm6.9 0V33h1.3v-2.7zm4 0V33h1.4v-2.7zM120.4 33v5.4h2.7v-5.4zm10.9 0v5.4h2.7v-5.4zm10.9 0v5.4h2.7v-5.4zm10.8 0v5.4h2.8v-5.4zm-34 5.4v2.8h1.4v-2.8zm4.1 0v2.8h1.4v-2.8zm6.8 0v2.8h1.4v-2.8zm4.1 0v2.8h1.4v-2.8zm6.8 0v2.8h1.4v-2.8zm4 0v2.8h1.4v-2.8zm6.9 0v2.8h1.3v-2.8zm4 0v2.8h1.4v-2.8zm-31.2 2.8V44h1.3v-2.7zm4 0V44h1.4v-2.7zm6.9 0V44h1.3v-2.7zm4 0V44h1.4v-2.7zm6.8 0V44h1.4v-2.7zm4.1 0V44h1.4v-2.7zM125.7 44v2.7h2.8V44zm11 0v2.7h2.6V44zm10.8 0v2.7h2.7V44zm-23.1 2.7v2.7h1.3v-2.7zm4 0v2.7h1.4v-2.7zm6.9 0v2.7h1.3v-2.7zm4 0v2.7h1.4v-2.7zm6.8 0v2.7h1.4v-2.7zm4.1 0v2.7h1.4v-2.7zM119 49.4v2.7h1.4v-2.7zm4.1 0v2.7h1.4v-2.7zm6.8 0v2.7h1.4v-2.7zm4.1 0v2.7h1.4v-2.7zm6.8 0v2.7h1.4v-2.7zm4 0v2.7h1.4v-2.7zm6.9 0v2.7h1.3v-2.7zm4 0v2.7h1.4v-2.7zm-35.3 2.7v5.5h2.7V52zm10.9 0v5.5h2.7V52zm10.9 0v5.5h2.7V52zm10.8 0v5.5h2.8V52zm-34 5.5v2.7h1.4v-2.7zm4.1 0v2.7h1.4v-2.7zm6.8 0v2.7h1.4v-2.7zm4.1 0v2.7h1.4v-2.7zm6.8 0v2.7h1.4v-2.7zm4 0v2.7h1.4v-2.7zm6.9 0v2.7h1.3v-2.7zm4 0v2.7h1.4v-2.7zm-31.2 2.7V63h1.3v-2.7zm4 0V63h1.4v-2.7zm6.9 0V63h1.3v-2.7zm4 0V63h1.4v-2.7zm6.8 0V63h1.4v-2.7zm4.1 0V63h1.4v-2.7zM125.7 63v2.7h2.8V63zm11 0v2.7h2.6V63zm10.8 0v2.7h2.7V63zm-23.1 2.7v2.8h1.3v-2.8zm4 0v2.8h1.4v-2.8zm6.9 0v2.8h1.3v-2.8zm4 0v2.8h1.4v-2.8zm6.8 0v2.8h1.4v-2.8zm4.1 0v2.8h1.4v-2.8zM119 68.5v2.7h1.4v-2.7zm4.1 0v2.7h1.4v-2.7zm6.8 0v2.7h1.4v-2.7zm4.1 0v2.7h1.4v-2.7zm6.8 0v2.7h1.4v-2.7zm4 0v2.7h1.4v-2.7zm6.9 0v2.7h1.3v-2.7zm4 0v2.7h1.4v-2.7zm-35.3 2.7v5.4h2.7v-5.4zm10.9 0v5.4h2.7v-5.4zm10.9 0v5.4h2.7v-5.4zm10.8 0v5.4h2.8v-5.4zm-34 5.4v2.7h1.4v-2.7zm4.1 0v2.7h1.4v-2.7zm6.8 0v2.7h1.4v-2.7zm4.1 0v2.7h1.4v-2.7zm6.8 0v2.7h1.4v-2.7zm4 0v2.7h1.4v-2.7zm6.9 0v2.7h1.3v-2.7zm4 0v2.7h1.4v-2.7zm-31.2 2.7v2.8h1.3v-2.8zm4 0v2.8h1.4v-2.8zm6.9 0v2.8h1.3v-2.8zm4 0v2.8h1.4v-2.8zm6.8 0v2.8h1.4v-2.8zm4.1 0v2.8h1.4v-2.8zm-24.5 2.8v2.7h2.8V82Zm11 0v2.7h2.6V82Zm10.8 0v2.7h2.7V82Z" style="font-variation-settings:normal" transform="translate(56.8 68)"/><path fill="#000" fill-rule="evenodd" d="M119 22.2v1.4h-1.4v1.3h-1.4v59.8h1.4v1.4h1.3v1.4H157V86h1.4v-1.4h1.3V25h-1.3v-1.3H157v-1.4z" style="font-variation-settings:normal" transform="translate(1.2 68)"/><path fill="#fcffff" fill-rule="evenodd" d="M121.7 23.6v1.3h-1.4v1.4h-1.4v1.4h-1.3V82h40.8V27.7H157v-1.4h-1.4v-1.4h-1.3v-1.3z" style="font-variation-settings:normal" transform="translate(1.2 68)"/><path fill="#ef636b" fill-rule="evenodd" d="M120.3 84.7v1.4h35.3v-1.4ZM155.6 83.4v1.3h1.4v-1.3zm-36.7 0v1.3h1.4v-1.3zM157 82v1.4h1.4V82zm-39.4 0v1.4h1.3V82zM157 26.3v1.4h1.4v-1.4zm-39.4 0v1.4h1.3v-1.4zm1.3-1.4v1.4h1.4v-1.4zm36.7 0v1.4h1.4V25zm-1.3-1.3v1.3h1.3v-1.3zm-34 0v1.3h1.4v-1.3z" style="font-variation-settings:normal" transform="translate(1.2 68)"/><path fill="#de0010" fill-rule="evenodd" d="M119 27.7h38v55.7h-38z" style="font-variation-settings:normal" transform="translate(1.2 68)"/><path fill="#de0010" fill-rule="evenodd" d="M120.3 26.3h35.3v58.4h-35.3z" style="font-variation-settings:normal" transform="translate(1.2 68)"/><path fill="#de0010" fill-rule="evenodd" d="M121.7 25h32.6v58.4h-32.6z" style="font-variation-settings:normal" transform="translate(1.2 68)"/><path fill="#fff" fill-rule="evenodd" d="M125.7 25v2.7h2.8v-2.8zm11 0v2.7h2.6v-2.8zm10.8 0v2.7h2.7v-2.8zm-23.1 2.7v2.7h1.3v-2.7zm4 0v2.7h1.4v-2.7zm6.9 0v2.7h1.3v-2.7zm4 0v2.7h1.4v-2.7zm6.8 0v2.7h1.4v-2.7zm4.1 0v2.7h1.4v-2.7zM119 30.4V33h1.4v-2.7zm4.1 0V33h1.4v-2.7zm6.8 0V33h1.4v-2.7zm4.1 0V33h1.4v-2.7zm6.8 0V33h1.4v-2.7zm4 0V33h1.4v-2.7zm6.9 0V33h1.3v-2.7zm4 0V33h1.4v-2.7zM120.4 33v5.4h2.7v-5.4zm10.9 0v5.4h2.7v-5.4zm10.9 0v5.4h2.7v-5.4zm10.8 0v5.4h2.8v-5.4zm-34 5.4v2.8h1.4v-2.8zm4.1 0v2.8h1.4v-2.8zm6.8 0v2.8h1.4v-2.8zm4.1 0v2.8h1.4v-2.8zm6.8 0v2.8h1.4v-2.8zm4 0v2.8h1.4v-2.8zm6.9 0v2.8h1.3v-2.8zm4 0v2.8h1.4v-2.8zm-31.2 2.8V44h1.3v-2.7zm4 0V44h1.4v-2.7zm6.9 0V44h1.3v-2.7zm4 0V44h1.4v-2.7zm6.8 0V44h1.4v-2.7zm4.1 0V44h1.4v-2.7zM125.7 44v2.7h2.8V44zm11 0v2.7h2.6V44zm10.8 0v2.7h2.7V44zm-23.1 2.7v2.7h1.3v-2.7zm4 0v2.7h1.4v-2.7zm6.9 0v2.7h1.3v-2.7zm4 0v2.7h1.4v-2.7zm6.8 0v2.7h1.4v-2.7zm4.1 0v2.7h1.4v-2.7zM119 49.4v2.7h1.4v-2.7zm4.1 0v2.7h1.4v-2.7zm6.8 0v2.7h1.4v-2.7zm4.1 0v2.7h1.4v-2.7zm6.8 0v2.7h1.4v-2.7zm4 0v2.7h1.4v-2.7zm6.9 0v2.7h1.3v-2.7zm4 0v2.7h1.4v-2.7zm-35.3 2.7v5.5h2.7V52zm10.9 0v5.5h2.7V52zm10.9 0v5.5h2.7V52zm10.8 0v5.5h2.8V52zm-34 5.5v2.7h1.4v-2.7zm4.1 0v2.7h1.4v-2.7zm6.8 0v2.7h1.4v-2.7zm4.1 0v2.7h1.4v-2.7zm6.8 0v2.7h1.4v-2.7zm4 0v2.7h1.4v-2.7zm6.9 0v2.7h1.3v-2.7zm4 0v2.7h1.4v-2.7zm-31.2 2.7V63h1.3v-2.7zm4 0V63h1.4v-2.7zm6.9 0V63h1.3v-2.7zm4 0V63h1.4v-2.7zm6.8 0V63h1.4v-2.7zm4.1 0V63h1.4v-2.7zM125.7 63v2.7h2.8V63zm11 0v2.7h2.6V63zm10.8 0v2.7h2.7V63zm-23.1 2.7v2.8h1.3v-2.8zm4 0v2.8h1.4v-2.8zm6.9 0v2.8h1.3v-2.8zm4 0v2.8h1.4v-2.8zm6.8 0v2.8h1.4v-2.8zm4.1 0v2.8h1.4v-2.8zM119 68.5v2.7h1.4v-2.7zm4.1 0v2.7h1.4v-2.7zm6.8 0v2.7h1.4v-2.7zm4.1 0v2.7h1.4v-2.7zm6.8 0v2.7h1.4v-2.7zm4 0v2.7h1.4v-2.7zm6.9 0v2.7h1.3v-2.7zm4 0v2.7h1.4v-2.7zm-35.3 2.7v5.4h2.7v-5.4zm10.9 0v5.4h2.7v-5.4zm10.9 0v5.4h2.7v-5.4zm10.8 0v5.4h2.8v-5.4zm-34 5.4v2.7h1.4v-2.7zm4.1 0v2.7h1.4v-2.7zm6.8 0v2.7h1.4v-2.7zm4.1 0v2.7h1.4v-2.7zm6.8 0v2.7h1.4v-2.7zm4 0v2.7h1.4v-2.7zm6.9 0v2.7h1.3v-2.7zm4 0v2.7h1.4v-2.7zm-31.2 2.7v2.8h1.3v-2.8zm4 0v2.8h1.4v-2.8zm6.9 0v2.8h1.3v-2.8zm4 0v2.8h1.4v-2.8zm6.8 0v2.8h1.4v-2.8zm4.1 0v2.8h1.4v-2.8zm-24.5 2.8v2.7h2.8V82Zm11 0v2.7h2.6V82Zm10.8 0v2.7h2.7V82Z" style="font-variation-settings:normal" transform="translate(1.2 68)"/><path fill="#000" fill-rule="evenodd" d="M29 36v1.4h-1.3V40h-1.4v2.7H25v2.7h-1.4v2.7h-1.4v4.1V51H21v-1.4h-1.4v-1.4H10v20.4h2.7V70h-1.3v2.7H10v2.7H8.6V81H10v1.3h1.4v1.4h42v-1.4h1.4V81h1.4v-5.5h-1.4v-2.7h-1.3V70H52V57.8h1.4v-9.6h-8.1v5.5H44v-5.5h-2.7v-2.7h-1.4v-2.7h-1.4v-2.7h-1.3v-2.7h-1.4V36Z" style="font-variation-settings:normal" transform="translate(0 54.4)"/><path fill="#ffff5a" fill-rule="evenodd" d="M29 37.4V40h-1.3v2.7h-1.4v2.7H25v2.7h-1.4V51h-1.4v2.7H21v-1.4h-1.4V51h-1.4v-1.4h-6.7v17.7H14V70h-1.4v2.7h-1.3v2.7H10v4.1h42.1v-1.3h1.4v-2.8H52v-2.7h-1.3V70h-1.4v-2.7h1.4v-4.1H48v1.4h-1.4v-2.8h-1.4v-2.7H44v-2.7h-1.4v-6.8H40v-1.4h-1.4v-2.7h-1.3v-2.7h-1.4v-2.7h-1.3v-2.7zm17.7 12.2v6.8h1.4v4h2.7v-4H52v-6.8ZM18.1 61.8z" style="font-variation-settings:normal" transform="translate(0 54.4)"/><path fill="#c69500" fill-rule="evenodd" d="M46.7 61.8h-1.3v-2.7H44v-2.7h-4v2.7h1.3v2.7h1.3v2.8H44v2.7h1.4V70h1.3v2.7h1.4v2.7h1.3v4.1h2.8v-1.3h1.3v-2.8h-1.3v-2.7h-1.4V70h-1.4v-1.4h-2.7zM10 78.2h2.7v1.3H10z" style="font-variation-settings:normal" transform="translate(0 54.4)"/><path fill="#946300" fill-rule="evenodd" d="M11.4 78.2h39.4v2.7H11.4z" style="font-variation-settings:normal" transform="translate(0 54.4)"/><path fill="#000" fill-rule="evenodd" d="M30.4 56.4h-4V59H29v2.7h-2.7v2.7h4v2.8h-6.7v-5.5h-1.4v-8.1h4.1v-1.4h4.1v4zm4 0v4h-1.3v8.2H40V56.4h4V55h-5.3v12.3h-4.1v-5.5h1.3V55h-4v-5.4h9.5v-1.4H30.4V51H25v1.3h-4.1v4h-1.4v1.5h-1.3V59h1.3v1.4H21v4h-1.4V66h-1.3v1.4h-5.5v1.3h6.8v-1.3H21v-1.4h1.3v2.7h9.5v-5.4h-1.3v-5.5h1.3v-1.3ZM14.2 55v9.5h2.7v-1.3h1.4v-1.4h-1.4v-1.3h-1.4v-2.8h1.4V55Zm32.6 8.2v5.4h4v-1.3h-2.6v-4.1Z" style="font-variation-settings:normal" transform="translate(0 54.4)"/><path fill="#c69500" fill-rule="evenodd" d="M34.5 40v-2.6h-2.7V40H33v5.4h1.4v2.7h4.1v-2.7h-1.4v-2.7h-1.4v-2.7z" style="font-variation-settings:normal" transform="translate(0 54.4)"/><path fill="#fff" fill-rule="evenodd" d="M31.8 40v-2.6H29V40h-1.3v2.7h-1.4v2.7H25v2.7h-1.4V51h-1.4v1.3H25V51h1.3v-2.8h1.4v-2.7H29v-2.7h1.4v-2.7zM14 75.5v-2.7h1.3V70h1.4v-1.4H14V70h-1.4v2.7h-1.3v2.7H10v2.8h2.7v-2.8z" style="font-variation-settings:normal" transform="translate(0 54.4)"/><path fill="#ffffb5" fill-rule="evenodd" d="M30.4 40v2.8h1.4v-2.7zM29 42.9v2.7h1.4v-2.7zm-1.3 2.7v2.7H29v-2.7zm-1.4 2.7V51h1.4v-2.8zm-9.5 20.4V70h1.4v-1.4zM15.4 70v2.7h1.4V70zm-1.3 2.7v2.7h1.3v-2.7zm-1.4 2.7v2.8h1.4v-2.8z" style="font-variation-settings:normal" transform="translate(0 54.4)"/><path fill="#000" fill-rule="evenodd" d="M-33.8 143.6v1.4h-1.4v20.4h1.4v1.3h24.5v-1.3H-8V145h-1.3v-1.4z" style="font-variation-settings:normal" transform="translate(54.4)"/><path fill="#fff" fill-rule="evenodd" d="M-32.4 145v1.3h-1.4V164h1.4v1.4h21.7V164h1.4v-17.7h-1.4V145z" style="font-variation-settings:normal" transform="translate(54.4)"/><path fill="#000" fill-rule="evenodd" d="M-33.8 165.4v1.3h-1.4v20.4h1.4v1.4h24.5V187H-8v-20.4h-1.3v-1.3z" style="font-variation-settings:normal" transform="translate(54.4)"/><path fill="#fff" fill-rule="evenodd" d="M-32.4 166.7v1.4h-1.4v17.7h1.4v1.3h21.7v-1.3h1.4V168h-1.4v-1.4z" style="font-variation-settings:normal" transform="translate(54.4)"/><path fill="#5a0000" fill-rule="evenodd" d="M-25.6 166.7v1.4h-2.8v1.3h-1.3v2.8h-1.4v8.1h19v-8.1h-1.3v-2.8h-1.4v-1.3h-2.7v-1.4z" style="font-variation-settings:normal" transform="translate(54.4)"/><path fill="#000" fill-rule="evenodd" d="M-33.8 187.1v1.4h-1.4v20.4h1.4v1.3h24.5V209H-8v-20.4h-1.3V187z" style="font-variation-settings:normal" transform="translate(54.4)"/><path fill="#fff" fill-rule="evenodd" d="M-32.4 188.5v1.4h-1.4v17.6h1.4v1.4h21.7v-1.4h1.4V190h-1.4v-1.4z" style="font-variation-settings:normal" transform="translate(54.4)"/><path fill="#000" fill-rule="evenodd" d="M-33.8 208.9v1.4h-1.4v20.3h1.4v1.4h24.5v-1.4H-8v-20.3h-1.3v-1.4z" style="font-variation-settings:normal" transform="translate(54.4)"/><path fill="#fff" fill-rule="evenodd" d="M-32.4 210.3v1.3h-1.4v17.7h1.4v1.3h21.7v-1.3h1.4v-17.7h-1.4v-1.3z" style="font-variation-settings:normal" transform="translate(54.4)"/><path fill="#000" fill-rule="evenodd" d="M-24.3 221.1v4.1h-1.3v-1.4h-2.8v-1.3H-31v1.3h-1.3v4.1h1.3v1.4h1.4v2.7h16.3v-2.7h1.4v-1.4h1.3v-4H-12v-1.4h-2.8v1.3h-2.7v1.4h-1.3v-4z" style="font-variation-settings:normal" transform="translate(54.4)"/><path fill="#000" fill-rule="evenodd" d="M-33.8 230.7v1.3h-1.4v20.4h1.4v1.4h24.5v-1.4H-8V232h-1.3v-1.3z" style="font-variation-settings:normal" transform="translate(54.4)"/><path fill="#fff" fill-rule="evenodd" d="M-32.4 232v1.4h-1.4V251h1.4v1.4h21.7V251h1.4v-17.6h-1.4V232z" style="font-variation-settings:normal" transform="translate(54.4)"/><path fill="#000" fill-rule="evenodd" d="M-33.8 252.4v1.4h-1.4v20.4h1.4v1.3h24.5v-1.3H-8v-20.4h-1.3v-1.4z" style="font-variation-settings:normal" transform="translate(54.4)"/><path fill="#fff" fill-rule="evenodd" d="M-32.4 253.8v1.3h-1.4v17.7h1.4v1.4h21.7v-1.4h1.4v-17.7h-1.4v-1.3z" style="font-variation-settings:normal" transform="translate(54.4)"/><path fill="#f70808" fill-rule="evenodd" d="M-29.7 157.2v2.7h-1.4v2.7h-1.3v2.8h4V164h2.8v-1.4h2.7v-1.3h2.7v1.3h2.7v1.4h2.7v1.4h4.1v-2.8H-12V160h-1.4v-2.7h-1.4v-2.7h1.4V153h1.4v-1.3h1.3V149h-6.8v-1.3h-1.3V145h-1.4v-1.4h-2.7v1.4h-1.4v2.7h-1.3v1.3h-6.8v2.8h1.3v1.3h1.4v1.4h1.3v2.7z" style="font-variation-settings:normal" transform="translate(54.4)"/><path fill="#ff7b00" fill-rule="evenodd" d="M-18.8 150.4v-2.7h-1.4V145h-2.7v2.7h-1.4v2.7H-31v1.4h1.4v1.3h1.3v1.4h1.4v2.7h-1.4v2.7h-1.3v2.7h-1.4v1.4h2.7v-1.4h2.8v-1.3h8.1v1.3h2.7v1.4h2.8v-1.4h-1.4V160h-1.4v-2.7H-16v-2.7h1.3V153h1.4v-1.3h1.4v-1.4z" style="font-variation-settings:normal" transform="translate(54.4)"/><path fill="#ffb500" fill-rule="evenodd" d="M-23 146.3v4.1h-6.7v1.4h1.3v1.3h1.4v1.4h1.4v2.7H-27v2.7h-1.4v1.4h2.8v-1.4h2.7v-1.3h2.7v1.3h2.7v1.4h2.7v-1.4H-16v-2.7h-1.4v-2.7h1.4V153h1.3v-1.3h1.4v-1.4h-6.8v-4z" style="font-variation-settings:normal" transform="translate(54.4)"/><path fill="#000" fill-rule="evenodd" d="M-24.3 151.8v4h1.4v-4zm4.1 0v4h1.4v-4zm-6.8 102v1.3h-2.7v1.4h-1.4v4h-1.3v8.2h1.3v4h1.4v2.8h16.3v-2.7h1.4v-4h1.3v-8.2H-12v-4.1h-1.4V255h-2.7v-1.3h-4v1.3H-23v-1.3z" style="font-variation-settings:normal" transform="translate(54.4)"/><path fill="#fff" fill-rule="evenodd" d="M-27 255.1v1.4h-2.7v4h-1.4v8.2h1.4v4h2.7v1.4h4v-1.3h2.8v1.3h4v-1.3h2.8v-4h1.4v-8.2h-1.4v-4.1h-2.7V255h-4v1.4H-23V255z" style="font-variation-settings:normal" transform="translate(54.4)"/><path fill="#d6b5bd" fill-rule="evenodd" d="M-27 255.1v1.4h4V255zm6.8 0v1.4h4V255zm-9.5 1.4v4h1.3v-2.7h1.4v-1.3h-1.4zm13.6 0v1.3h1.3v2.8h1.4v-4.1zm-15 4v8.2h1.4v-8.1zm17.7 0v8.2h1.4v-8.1zm-16.3 8.2v4.1h2.7v-1.4h-1.4v-2.7zm15 0v2.7h-1.4v1.4h2.7v-4zm-12.3 4.1v1.4h4v-1.4zm6.8 0v1.4h4v-1.4z" style="font-variation-settings:normal" transform="translate(54.4)"/><path fill="#000" fill-rule="evenodd" d="M-24.3 260.6h1.4v4h-1.4zm4.1 0h1.4v4h-1.4zm-5.4 5.4h1.3v2.7h-1.3z" style="font-variation-settings:normal" transform="translate(54.4)"/><path fill="#000" fill-rule="evenodd" d="M-18.8 267.4h2.7v1.3h-2.7zm-8.2 0h2.7v1.3H-27zm2.7 1.3h5.5v1.4h-5.5z" style="font-variation-settings:normal" transform="translate(54.4)"/><path fill="#000" fill-rule="evenodd" d="M-18.8 266h1.3v2.7h-1.3zM-25.6 187.1v2.7H-27v1.4h-1.4v2.7h-1.3v4.1h-1.4v4h1.4v1.4h1.3v1.4h1.4v2.7h1.4v2.7h8.1v-2.7h1.4v-2.7h1.3v-1.4h1.4v-1.3h1.4V198h-1.4v-4h-1.4v-2.8H-16v-1.4h-1.4v-2.7z" style="font-variation-settings:normal" transform="translate(54.4)"/><path fill="#ff7b00" fill-rule="evenodd" d="M-25.6 206.2v1.3h1.3v1.4h5.5v-1.4h1.3v-1.3h-6.8z" style="font-variation-settings:normal" transform="translate(54.4)"/><path fill="#006b00" fill-rule="evenodd" d="M-25.6 189.8v1.4H-27v2.7h-1.3v5.5h2.7v-4.1h8.1v2.7h2.7v-4H-16v-2.8h-1.4v-1.4z" style="font-variation-settings:normal" transform="translate(54.4)"/><path fill="#fff" fill-rule="evenodd" d="M-23 189.8v1.4h2.8v-1.4zm0 1.4h-1.3v1.4h1.4zm2.8 0v1.4h1.4v-1.4zm-2.7 1.4v1.3h2.7v-1.3z" style="font-variation-settings:normal" transform="translate(54.4)"/><path fill="#ffbd5a" fill-rule="evenodd" d="M-23 195.3v2.7h-4v4h2.7v1.4h1.4v1.4h2.7v-1.4h1.4v-1.3h2.7V198h-4v-2.7zm-6.7 4v2.8h1.3v-2.7zm15 0v2.8h1.3v-2.7zm-9.6 6.9v1.3h1.4v1.4h2.7v-1.4h1.4v-1.3z" style="font-variation-settings:normal" transform="translate(54.4)"/><path fill="#ffffa5" fill-rule="evenodd" d="M-24.3 196.6v2.8h5.5v-2.8zm-1.3 2.8v2.7h1.3v-2.7zm6.8 0v2.7h1.3v-2.7zm-4.1 1.3v2.7h2.7v-2.7zm0 5.5v1.3h2.7v-1.3z" style="font-variation-settings:normal" transform="translate(54.4)"/><path fill="#d6b5bd" fill-rule="evenodd" d="M-25.6 196.6v2.8h2.7v-2.8zm5.4 0v2.8h2.7v-2.8z" style="font-variation-settings:normal" transform="translate(54.4)"/><path fill="#fff" fill-rule="evenodd" d="M-24.3 196.6v1.4h-1.3v2.7h2.7v-4zm4.1 0v4.1h2.7V198h-1.3v-1.4z" style="font-variation-settings:normal" transform="translate(54.4)"/><path fill="#000" fill-rule="evenodd" d="M-24.3 198v2.7h1.4V198zm4.1 0v2.7h1.4V198z" style="font-variation-settings:normal" transform="translate(54.4)"/><path fill="#214aff" fill-rule="evenodd" d="M-24.3 199.4v1.3h1.4v-1.3zm4.1 0v1.3h1.4v-1.3z" style="font-variation-settings:normal" transform="translate(54.4)"/><path fill="#000" fill-rule="evenodd" d="M-25.6 230.6v2.8h-2.8v1.3h-1.3v1.4h-1.4v2.7h-1.3v8.2h1.3v2.7h1.4v1.3h1.3v2.7h13.6V251h1.4v-1.3h1.4V247h1.3v-8.2H-12v-2.7h-1.4v-1.4h-1.4v-1.3h-2.7v-2.8z" style="font-variation-settings:normal" transform="translate(54.4)"/><path fill="#fff" fill-rule="evenodd" d="M-27 247v1.3h-1.4v2.7h1.4v1.4H-16V251h1.3v-2.7H-16V247z" style="font-variation-settings:normal" transform="translate(54.4)"/><path fill="#ff7b00" fill-rule="evenodd" d="M-27 247v1.3H-16V247zm-1.4 1.3v2.7h1.4v-2.7zm12.3 0v2.7h1.3v-2.7zM-27 251v1.4h1.4V251zm9.5 0v1.4h1.4V251z" style="font-variation-settings:normal" transform="translate(54.4)"/><path fill="#000" fill-rule="evenodd" d="M-24.3 247v2.7h1.4V247zm4.1 0v2.7h1.4V247z" style="font-variation-settings:normal" transform="translate(54.4)"/><path fill="#f70808" fill-rule="evenodd" d="M-25.6 233.4v1.3h-2.7v1.4h-1.4v2.7h-1.4v8.2h4.1v-1.4H-16v1.4h4v-8.2h-1.3v-2.7h-1.4v-1.4h-2.7v-1.3z" style="font-variation-settings:normal" transform="translate(54.4)"/><path fill="#b50000" fill-rule="evenodd" d="M-29.7 236v2.8h1.3v-1.4h1.4v-1.3zm13.6 0v1.4h1.3v1.4h1.4v-2.7zm-15 8.2v2.8h4.1v-1.4h-2.7v-1.4zm4.1 0v1.4h2.7v-1.4zm8.2 0v1.4h2.7v-1.4zm5.4 0v1.4H-16v1.4h4v-2.8z" style="font-variation-settings:normal" transform="translate(54.4)"/><path fill="#fff" fill-rule="evenodd" d="M-25.6 233.4v1.3h-2.8v1.4h4.1v-1.4h1.4v-1.3h-1.4zm5.4 0v1.3h1.4v1.4h4v-1.4h-2.7v-1.3zm-10.9 5.4v5.4h1.4V243h1.3v-2.7h-1.3v-1.4zm6.8 0v1.4h-1.3v4h1.3v1.4h5.5v-1.4h1.3v-4h-1.3v-1.4zm11 0v1.4h-1.5v2.7h1.4v1.3h1.4v-5.4z" style="font-variation-settings:normal" transform="translate(54.4)"/><path fill="#000" fill-rule="evenodd" d="M-32.4 177.6v4h1.3v1.4h1.4v1.4h1.3v1.4h1.4v2.7H-16v-2.7h1.3v-1.4h1.4V183h1.4v-1.3h1.3v-4.1z" style="font-variation-settings:normal" transform="translate(54.4)"/><path fill="#ffbd5a" fill-rule="evenodd" d="M-27 176.2v4.1h2.7v2.7h5.5v-2.7h2.7v-4zm-4 1.4v4h1.3v-4zm17.6 0v4h1.4v-4zm-15 4v2.8h1.4v1.4h2.7v-1.4h-1.3V183H-27v-1.3zm12.3 0v1.4h-1.4v1.4h-1.3v1.4h2.7v-1.4h1.3v-2.7zm-8.2 4.2v1.3h5.5v-1.3z" style="font-variation-settings:normal" transform="translate(54.4)"/><path fill="#ffffa5" fill-rule="evenodd" d="M-23 174.9v4h2.8v-4zm-8 2.7v2.7h1.3v-2.7zm17.6 0v2.7h1.4v-2.7zm-9.5 2.7v2.7h2.7v-2.7zm-5.5 1.4v2.7h1.4v-2.7zm12.3 0v2.7h1.3v-2.7zm-9.5 2.7v1.4h1.3v-1.4zm6.8 0v1.4h1.3v-1.4z" style="font-variation-settings:normal" transform="translate(54.4)"/><path fill="#fff" fill-rule="evenodd" d="M-25.6 176.2v4.1h2.7v-4zm5.4 0v4.1h2.7v-4z" style="font-variation-settings:normal" transform="translate(54.4)"/><path fill="#000" fill-rule="evenodd" d="M-24.3 177.6v2.7h1.4v-2.7zm4.1 0v2.7h1.4v-2.7z" style="font-variation-settings:normal" transform="translate(54.4)"/><path fill="#000" fill-rule="evenodd" d="M-24.3 179h1.4v1.3h-1.4z" style="font-variation-settings:normal" transform="translate(54.4)"/><path fill="#214aff" fill-rule="evenodd" d="M-24.3 179h1.4v1.3h-1.4zm4.1 0h1.4v1.3h-1.4z" style="font-variation-settings:normal" transform="translate(54.4)"/><path fill="#f70808" fill-rule="evenodd" d="M-25.6 168v1.4h-2.8v2.8h-1.3v5.4h1.3v-1.4h1.4V175H-16v1.3h1.4v1.4h1.3v-5.4h-1.4v-2.8h-2.7v-1.3z" style="font-variation-settings:normal" transform="translate(54.4)"/><path fill="#b50000" fill-rule="evenodd" d="M-25.6 168v1.4h1.3v-1.3zm6.8 0v1.4h1.3v-1.3zm-9.6 1.4v1.4h2.8v-1.4zm11 0v1.4h2.6v-1.4zm-12.3 2.8v1.3h1.3v-1.3zm5.4 0v1.3h5.5v-1.3zm9.5 0v1.3h1.4v-1.3zm-13.6 1.3v1.4h-1.3v2.7h1.3v-1.4h1.4V175H-16v1.3h1.3v1.4h1.4v-2.7h-1.4v-1.4z" style="font-variation-settings:normal" transform="translate(54.4)"/><path fill="#fff" fill-rule="evenodd" d="M-23 168v1.4h2.8v-1.3zm-1.3 1.4v1.4h1.4v-1.4zm4.1 0v1.4h1.4v-1.4zm-2.7 1.4v1.4h2.7v-1.4z" style="font-variation-settings:normal" transform="translate(54.4)"/><path fill="#000" fill-rule="evenodd" d="M-27 174.9v1.3h4V175zm6.8 0v1.3h4V175zm-8.2 34v2.7H-31v1.4h-1.3v6.8h1.3v1.3h2.7v1.4h13.6V221h2.8v-1.3h1.3V213H-12v-1.4h-2.8v-2.7z" style="font-variation-settings:normal" transform="translate(54.4)"/><path fill="#b50000" fill-rule="evenodd" d="M-27 211.6v1.4h-2.7v1.3h-1.4v4.1h1.4v1.4h2.7v1.3H-16v-1.3h2.7v-1.4h1.4v-4h-1.4V213h-2.7v-1.4z" style="font-variation-settings:normal" transform="translate(54.4)"/><path fill="#f70808" fill-rule="evenodd" d="M-24.3 211.6v2.7h-5.4v1.4h-1.4v1.3h1.4v1.4h5.4-2.7v1.4h2.7v1.3h5.5v-1.3h2.7v-1.4h-2.7 5.4V217h1.4v-1.3h-1.4v-1.4h-5.4v-2.7z" style="font-variation-settings:normal" transform="translate(54.4)"/><path fill="#ffb500" fill-rule="evenodd" d="M-27 213v1.3h-1.4v4.1h2.8v1.4h8.1v-1.4h2.7v-4H-16V213z" style="font-variation-settings:normal" transform="translate(54.4)"/><path fill="#fff" fill-rule="evenodd" d="M-25.6 214.3v2.7h1.3v1.4h5.5V217h1.3v-2.7z" style="font-variation-settings:normal" transform="translate(54.4)"/><path fill="#000" fill-rule="evenodd" d="M-24.3 214.3v2.7h1.4v-2.7zm4.1 0v2.7h1.4v-2.7z" style="font-variation-settings:normal" transform="translate(54.4)"/><path fill="#009c00" fill-rule="evenodd" d="M-23 222.5v6.8h-1.3v-2.7h-1.3v-1.4h-2.8v-1.4H-31v4.1h1.4v1.4h2.7v1.3H-16v-1.3h2.7v-1.4h1.4v-4.1h-2.7v1.4h-2.8v1.4h-1.3v2.7h-1.4v-6.8z" style="font-variation-settings:normal" transform="translate(54.4)"/><path fill="#006b00" fill-rule="evenodd" d="M-23 222.5v1.3h1.4v5.5h1.4v-6.8zm-8 1.3v1.4h2.6v-1.4zm16.2 0v1.4h2.8v-1.4zm-13.6 1.4v1.4h2.8v-1.4zm11 0v1.4h2.6v-1.4zm0 1.4h-1.4v1.3h1.3zm-13.7 0v1.3h1.4v-1.3zm5.5 0v1.3h1.3v-1.3zm12.2 0v1.3h1.4v-1.3zm-16.3 1.3v1.4h2.7v-1.4zm13.6 0v1.4h2.7v-1.4zm-10.9 1.4v1.3h2.7v-1.3zm8.2 0v1.3h2.7v-1.3z" style="font-variation-settings:normal" transform="translate(54.4)"/><path fill="#000" fill-rule="evenodd" d="M98.2 227.4v1.4h-1.4v40.7h1.4v1.4h193v-1.4h1.3v-40.7h-1.3v-1.4z" style="font-variation-settings:normal" transform="translate(0 -54.4)"/><path fill="#dead31" fill-rule="evenodd" d="M99.5 228.8v1.3h-1.3v36.7h1.3v1.4h190.3v-1.4h1.4v-36.7h-1.4v-1.3z" style="font-variation-settings:normal" transform="translate(0 -54.4)"/><path fill="#fff" fill-rule="evenodd" d="M99.5 228.8v1.3h-1.3v34h4v-4h184.9v-31.3Z" style="font-variation-settings:normal" transform="translate(0 -54.4)"/><path fill="#ffffb5" fill-rule="evenodd" d="M103.6 232.8v1.4h-1.3v27.2h1.3v1.3h182.1v-1.3h1.4v-27.2h-1.4v-1.4z" style="font-variation-settings:normal" transform="translate(0 -54.4)"/><path fill="#ff0" fill-rule="evenodd" d="M101 260v1.4h-1.5v1.3h-1.3v2.8h1.3v1.3h1.4v-1.3h1.4V264h1.3v-2.7h-1.3V260zm186-31.2v1.3h-1.3v1.4h-1.3v1.3h1.3v1.4h2.7v-1.4h1.4v-1.3h1.4V230h-1.4v-1.3z" style="font-variation-settings:normal" transform="translate(0 -54.4)"/><path fill="#000" fill-rule="evenodd" d="M166.2 238.3v1.3h-1.4v1.4h-1.3v6.8h1.3v5.4h1.4v5.5h13.6v-8.2h1.3v-12.2Zm42.1 20.4v-10.9H207v-9.5h-6.8v20.4zm-21.7-15v1.4h-1.4v1.3H184v1.4h-1.4v6.8h1.4v1.4h1.3v1.3h1.4v1.4h8.1v-1.4h1.4V256h1.4v-1.4h1.3v-6.8h-1.3v-1.4H196v-1.3h-1.4v-1.4zM217.9 238.3v5.4h-5.5v1.4h-1.3v1.3h-1.4v9.6h1.4v1.3h1.3v1.4h10.9v-10.9h1.4v-9.5z" style="font-variation-settings:normal" transform="translate(0 -54.4)"/><path fill="#ade74a" fill-rule="evenodd" d="M167.5 239.6v1.4h-1.3v1.4h-1.4v4h1.4v5.5h1.3v5.4h4.1V252h2.7v5.4h4.1v-8.1h1.4v-9.6h-5.5v8.2h-2.7v-8.2zM188 245v1.4h-1.4v1.4h-1.4v1.4H184v4h1.3v1.4h1.4v1.4h1.3v1.3h5.5V256h1.3v-1.4h1.4v-1.4h1.4v-4H196v-1.4h-1.4v-1.4h-1.3v-1.3z" style="font-variation-settings:normal" transform="translate(0 -54.4)"/><path fill="#000" fill-rule="evenodd" d="M189.3 247.8v1.4H188v2.7h1.4v1.3h2.7V252h1.4v-2.7H192v-1.4z" style="font-variation-settings:normal" transform="translate(0 -54.4)"/><path fill="#ade74a" fill-rule="evenodd" d="M201.5 239.6v17.7h5.4v-8.1h-1.3v-9.6zm12.3 5.5v1.3h-1.4v1.4h-1.3v6.8h1.3v1.4h1.4v1.3h4V256h1.4v1.3h2.7v-10.9h1.4v-6.8h-4v5.5z" style="font-variation-settings:normal" transform="translate(0 -54.4)"/><path fill="#000" fill-rule="evenodd" d="M215.1 247.8v1.4h-1.3v2.7h1.3v1.3h2.8v-5.4z" style="font-variation-settings:normal" transform="translate(0 -54.4)"/><path fill="#000" fill-rule="evenodd" d="M64.5 372.4v1.4h-1.3v1.4h-1.4V435h1.4v1.3h1.3v1.4h38.1v-1.4h1.4V435h1.3v-59.8H104v-1.4h-1.4v-1.4z" style="font-variation-settings:normal" transform="translate(0 -108.7)"/><path fill="#cef7f7" fill-rule="evenodd" d="M65.9 373.8v1.4h-1.4v1.3h-1.3v57.1h1.3v1.4H66v1.3h35.3V435h1.4v-1.4h1.4v-57h-1.4v-1.4h-1.4v-1.4Z" style="font-variation-settings:normal" transform="translate(0 -108.7)"/><path fill="#fff" fill-rule="evenodd" d="M66 373.8v1.4h-1.5v1.3h-1.3v55.7h1.3V378H66v-1.4h1.4v-1.3h32.6v-1.4z" style="font-variation-settings:normal" transform="translate(0 -108.7)"/><path fill="#9cc6c6" fill-rule="evenodd" d="M99.9 373.8v1.4h1.3v-1.4Zm-34 0v1.4h1.4v-1.4Zm0 1.4h-1.4v1.3H66zm-1.4 1.3h-1.3v1.4h1.3zm36.7-1.3v1.3h1.4v-1.3zm1.4 1.3v55.7h-1.4v1.4H100v1.4h-34v1.3h35.3V435h1.4v-1.4h1.4v-57Zm-39.4 55.7v1.4h1.3v1.4H66v-1.4h-1.4v-1.4z" style="font-variation-settings:normal" transform="translate(0 -108.7)"/><path fill="#739c9c" fill-rule="evenodd" d="M102.6 432.2v1.4h1.4v-1.4zm-1.3 1.4v1.4h1.3v-1.4zm0 1.4h-1.4v1.3h1.4zm-35.4 0v1.3h1.4V435z" style="font-variation-settings:normal" transform="translate(0 -108.7)"/><path fill="#000" fill-rule="evenodd" d="M74 386v1.4h-1.3v1.3h-1.4v1.4H70v2.7h-1.4v2.7h-1.3v1.4h-1.4v2.7h-1.4v10.9H66v2.7h1.4v1.3h1.3v2.8H70v2.7h1.3v1.3h1.4v1.4h2.7v1.4h4.1v-1.4h2.7v-1.4H85v1.4h2.8v1.4h4v-1.4h2.8v-1.4h1.3V420h1.4v-2.7h1.3v-2.8h1.4v-1.3h1.4v-2.7h1.3v-10.9h-1.3v-2.7h-1.4v-1.4h-1.4v-2.7h-1.3v-2.7h-1.4v-1.4h-1.3v-1.3H93V386h-5.4v1.4h-2.8v1.3h-2.7v-1.3h-2.7V386z" style="font-variation-settings:normal" transform="translate(0 -108.7)"/><path fill="#fff" fill-rule="evenodd" d="M74 387.4v2.7h-2.7v2.7H70v4h-1.4v1.4h-1.3v2.8h-1.4v8.1h1.4v2.7h1.3v1.4H70v2.7h1.3v4h1.4v1.4h2.7v1.4h4.1v-1.4h2.7V420H85v1.3h2.8v1.4h4v-1.4h2.8V420h1.3v-4h1.4v-2.8h1.3v-1.4h1.4v-2.7h1.4V401h-1.4v-2.8h-1.4V397h-1.3v-4.1h-1.4V390h-2.7v-2.7h-5.4v1.3h-2.8v1.4h-2.7v-1.4h-2.7v-1.3z" style="font-variation-settings:normal" transform="translate(0 -108.7)"/><path fill="#dedede" fill-rule="evenodd" d="M93.1 395.5v2.7h-1.4v1.4h-1.3v1.4H93v-1.4h2.7v-4zm4 1.4v2.7h2.8v-1.4h-1.4V397zm1.4 4v6.9h-1.3v1.3h-1.4v1.4h-2.7V409h-1.4v-2.7H89v4h1.4v1.4h1.3v1.4h1.4v1.4h-1.4v1.3H89v1.4h-2.7v-1.4h-6.8v1.4h-2.7v-1.4H74v-1.3h-2.8v2.7h2.8v1.3h1.3v1.4H81v-1.4h4v1.4h5.5v-1.4H93v-1.3h1.4v-1.4h1.3v-4h2.7v-1.4h1.4V409h1.4V401zm-23 4.1v2.8H74v1.3h-1.4v1.4h-1.4v1.3h1.4v1.4h2.7v-1.4h1.4v-2.7H78v-4z" style="font-variation-settings:normal" transform="translate(0 -108.7)"/><path fill="#bdbdbd" fill-rule="evenodd" d="M74 387.4v2.7h1.4v-1.4h4.1v-1.3h-4zm13.7 0v1.3h4v1.4h1.4v-2.7zm-8.2 1.3v1.4h2.7v-1.4zm5.4 0v1.4h2.8v-1.4zm-13.6 1.4v4h1.4v-2.7h1.4v-1.3Zm11 0v1.3h2.6v-1.3Zm10.8 0v6.8h1.4v1.3h2.7v-5.4h-1.4V390ZM70 394v2.8h1.3v-2.7zm-2.7 4.1v2.8h1.3v-2.8zm31.2 0v4.1h1.4v5.5h-1.4v1.3h-1.3v2.7h-2.7v4.1H93v1.4h-1.4v1.3h-1.3v1.4h-2.7v-1.4h-1.4v-1.3h-6.8v1.3h-4v-1.3H74v-1.4h-1.4v-4h-1.4v-1.4h-2.7V409h-1.3v2.7h1.3v1.4H70v2.7h1.3v4h1.4v1.5h2.7v1.3h4.1v-1.3h2.7V420H85v1.4h2.8v1.3h4v-1.3h2.8V420h1.3v-4h1.4v-2.8h1.3v-1.4h1.4v-2.7h1.4V401h-1.4v-2.8zM66 401v8.1h1.4V401zm10.9 4v2.8H78V405zm12.2 0v2.8h1.4V405zm-13.6 4.1v2.7h1.4v-2.7zm2.7 0v1.4H81V409zm8.2 0v1.4H89V409zm4 0v2.7h1.4v-2.7zm-9.4 1.4v1.3h5.4v-1.3z" style="font-variation-settings:normal" transform="translate(0 -108.7)"/><path fill="#737373" fill-rule="evenodd" d="M74 387.4v1.3h2.8v-1.3zm16.4 0v1.3H93v-1.3zm-9.5 1.3v1.4h1.3v-1.4zm4 0v1.4h1.4v-1.4zm-13.6 1.4v1.3h1.4v-1.3Zm23.2 0v2.7h1.3V390zM70 392.8v2.7h1.3v-2.7zm25.8 0v2.7h1.4v-2.7zm-27.2 4v1.4H70V397zm28.6 0v1.4h1.3V397zm-19 4.2v2.7h2.7V401zm8.1 0v2.7H89V401zm-9.5 5.4v2.7h-1.4v1.4h4.1V409h-1.4v-2.7zm12.2 0v2.7h-1.3v1.4h4V409h-1.3v-2.7zm-6.8 4v1.4H85v-1.3zm-10.9 6.9v2.7h1.4v-2.7zm23.2 0v1.3H93v1.4h-1.4v1.4h2.8V420h1.3v-2.7zM72.7 420v1.4h1.4V420zm8.2 0v1.4h1.3V420zm4 0v1.4h1.4V420zm-9.5 1.4v1.3h1.4v-1.3zm12.3 0v1.3h4v-1.3z" style="font-variation-settings:normal" transform="translate(0 -108.7)"/><path fill="#000" fill-rule="evenodd" d="M78.1 398.2v4.1H81v-4zm8.2 0v4.1H89v-4zm-9.5 9.6v1.3H78v-1.3zm12.2 0v1.3h1.4v-1.3z" style="font-variation-settings:normal" transform="translate(0 -108.7)"/><path fill="#000" fill-rule="evenodd" d="M64.5 372.4v1.4h-1.3v1.4h-1.4V435h1.4v1.3h1.3v1.4h38.1v-1.4h1.4V435h1.3v-59.8H104v-1.4h-1.4v-1.4z" style="font-variation-settings:normal" transform="translate(55.6 -108.7)"/><path fill="#cef7f7" fill-rule="evenodd" d="M65.9 373.8v1.4h-1.4v1.3h-1.3v57.1h1.3v1.4H66v1.3h35.3V435h1.4v-1.4h1.4v-57h-1.4v-1.4h-1.4v-1.4Z" style="font-variation-settings:normal" transform="translate(55.6 -108.7)"/><path fill="#fff" fill-rule="evenodd" d="M66 373.8v1.4h-1.5v1.3h-1.3v55.7h1.3V378H66v-1.4h1.4v-1.3h32.6v-1.4z" style="font-variation-settings:normal" transform="translate(55.6 -108.7)"/><path fill="#9cc6c6" fill-rule="evenodd" d="M99.9 373.8v1.4h1.3v-1.4Zm-34 0v1.4h1.4v-1.4Zm0 1.4h-1.4v1.3H66zm-1.4 1.3h-1.3v1.4h1.3zm36.7-1.3v1.3h1.4v-1.3zm1.4 1.3v55.7h-1.4v1.4H100v1.4h-34v1.3h35.3V435h1.4v-1.4h1.4v-57Zm-39.4 55.7v1.4h1.3v1.4H66v-1.4h-1.4v-1.4z" style="font-variation-settings:normal" transform="translate(55.6 -108.7)"/><path fill="#739c9c" fill-rule="evenodd" d="M102.6 432.2v1.4h1.4v-1.4zm-1.3 1.4v1.4h1.3v-1.4zm0 1.4h-1.4v1.3h1.4zm-35.4 0v1.3h1.4V435z" style="font-variation-settings:normal" transform="translate(55.6 -108.7)"/><path fill="#000" fill-rule="evenodd" d="M133.7 386v1.4h-4v1.4h-2.8v1.3h-2.7v1.4h-1.4v1.3h-1.3v2.8H120v5.4h1.4v2.7h1.3v1.4h1.4v1.3h1.4v1.4h2.7v1.3h2.7v1.4h5.4v5.5h-1.3v-1.4h-1.4v-1.4h-1.3V412H131v-1.4h-2.7v-1.3h-6.8v6.8h1.3v2.7h1.4v1.3h1.4v1.4h4v1.4h5.5v1.3h8.1v-1.3h5.5v-1.4h4V420h1.4v-1.3h1.4V416h1.3V409.2H150v1.3h-2.7v1.4H146v1.3h-1.4v1.4h-1.4v1.4H142v-5.5h5.4v-1.4h2.7v-1.3h2.7v-1.4h1.4v-1.3h1.4v-1.4h1.3V401h1.4v-5.4h-1.4v-2.8h-1.3v-1.3H154V390h-2.7v-1.3h-2.7v-1.4h-4.1V386z" style="font-variation-settings:normal" transform="translate(0 -108.7)"/><path fill="#009c00" fill-rule="evenodd" d="M137.8 407.8v10.9h-1.4v-1.4h-1.3V416h-1.4v-1.4h-1.3v-1.4H131V412h-2.7v-1.4h-5.5v5.5h1.4v2.7h1.4v1.3h4v1.4h6.8v1.4h5.5v-1.4h6.8V420h4v-1.3h1.4V416h1.4v-5.5H150v1.4h-2.7v1.3H146v1.4h-1.4v1.4h-1.4v1.3H142v1.4h-1.4v-10.9Z" style="font-variation-settings:normal" transform="translate(0 -108.7)"/><path fill="#006b00" fill-rule="evenodd" d="M139.2 407.8v4h1.3v-4Zm-16.4 5.4v2.8h1.4v2.7h1.4v1.3h4v-1.3H127v-1.4h-1.3v-2.7h-1.4v-1.4zm31.3 0v1.4h-1.3v2.7h-1.4v1.4h-2.7v1.3h4v-1.3h1.4V416h1.4v-2.8zm-25.8 1.4v1.4h1.3v-1.4zm20.4 0v1.4h1.3v-1.4zM131 416v2.7h2.7v-1.4h-1.3V416zm15 0v1.3h-1.4v1.4h2.7V416zm-13.6 2.7v1.3h-2.8v1.4h6.8V420h-1.3v-1.3zm10.8 0v1.3H142v1.4h6.8V420H146v-1.3zm-6.8 2.7v1.4h5.5v-1.4z" style="font-variation-settings:normal" transform="translate(0 -108.7)"/><path fill="#f70808" fill-rule="evenodd" d="M133.7 387.4v1.4h-4v1.3h-2.8v1.4h-2.7v1.3h-1.4v2.8h-1.3v5.4h1.3v2.7h1.4v1.4h1.4v1.3h2.7v1.4h2.7v1.3h16.3v-1.3h2.7v-1.4h2.7v-1.3h1.4v-1.4h1.4V401h1.3v-5.4h-1.3v-2.8H154v-1.3h-2.7V390h-2.7v-1.3h-4.1v-1.4z" style="font-variation-settings:normal" transform="translate(0 -108.7)"/><path fill="#ffb500" fill-rule="evenodd" d="M131 390.1v1.4h-1.4v1.3H127v1.4h-1.3v2.7h-1.4v2.7h1.4v2.8h1.3v1.3h2.7v1.4h1.4v1.3h16.3v-1.3h1.4v-1.4h2.7v-1.3h1.3v-2.8h1.4V397h-1.4v-2.7h-1.3v-1.4h-2.7v-1.3h-1.4V390z" style="font-variation-settings:normal" transform="translate(0 -108.7)"/><path fill="#fff" fill-rule="evenodd" d="M133.7 392.8v1.4H131v1.4h-1.4v5.4h1.4v1.4h2.7v1.3h10.9v-1.3h2.7V401h1.4v-5.4h-1.4v-1.4h-2.7v-1.4z" style="font-variation-settings:normal" transform="translate(0 -108.7)"/><path fill="#b50000" fill-rule="evenodd" d="M133.7 387.4v1.4h2.7v-1.4zm8.2 0v1.4h2.7v-1.4zm-12.3 1.4v1.3h2.8v-1.3zm16.4 0v1.3h2.7v-1.3zm-21.8 2.7v1.3h1.4v-1.3zm28.6 0v1.3h1.3v-1.3zm-30 1.3v2.8h1.4v-2.8zm31.3 0v2.8h1.4v-2.8zm-32.6 2.8v5.4h1.3v-5.4zm34 0v5.4h1.3v-5.4zm-32.7 5.4v2.7h1.4V401zm31.3 0v2.7h1.4V401zm-29.9 2.7v1.4h1.4v-1.4zm1.4 1.4v1.3h2.7v-1.3zm27.2-1.4v1.4h1.3v-1.4zm-2.8 1.4v1.3h2.8v-1.3zm-21.7 1.3v1.4h2.7v-1.4zm19 0v1.4h2.7v-1.4zm-16.3 1.4v1.4h2.7v-1.4Zm13.6 0v1.4h2.7v-1.4Z" style="font-variation-settings:normal" transform="translate(0 -108.7)"/><path fill="#ff7b00" fill-rule="evenodd" d="M131 390.1v1.4h1.4V390zm15 0v1.4h1.3V390zm-19 2.7v1.4h1.3v-1.4zm23 0v1.4h1.4v-1.4zm-24.4 1.4v2.7h1.3v-2.7zm25.8 0v2.7h1.4v-2.7zm-27.2 2.7v2.7h1.4V397zm28.6 0v2.7h1.3V397zm-27.2 2.7v2.8h1.3v-2.8zm25.8 0v2.8h1.4v-2.8zm-24.5 2.8v1.3h1.4v-1.3zm23.1 0v1.3h1.4v-1.3zm-19 2.7v1.3h1.4v-1.3zm15 0v1.3h1.3v-1.3z" style="font-variation-settings:normal" transform="translate(0 -108.7)"/><path fill="#737373" fill-rule="evenodd" d="M133.7 398.3v2.7h2.7v-2.7zm8.2 0v2.7h2.7v-2.7z" style="font-variation-settings:normal" transform="translate(0 -108.7)"/><path fill="#000" fill-rule="evenodd" d="M133.7 395.6v4h2.7v-4zm8.2 0v4h2.7v-4zM127 413.2v1.4h1.3v-1.4zm23 0v1.4h1.4v-1.4zm-20.4 2.8v1.3h1.4V416zm17.7 0v1.3h1.4V416zm-15 1.3v1.4h1.4v-1.4zm12.3 0v1.4h1.4v-1.4z" style="font-variation-settings:normal" transform="translate(0 -108.7)"/><path fill="#00e710" fill-rule="evenodd" d="M122.8 410.5v1.4h5.5v-1.4zm27.2 0v1.4h5.5v-1.4zm-21.7 1.4v1.3h1.3v1.4h2.8v-1.4H131V412zm9.5 0v8.1h1.4V412zm9.5 0v1.3H146v1.4h2.7v-1.4h1.3V412zm-15 2.7v1.4h1.4v-1.4zm12.3 0v1.4h1.4v-1.4zm-10.9 1.4v1.3h1.4V416zm9.5 0v1.3h1.4V416zm-8.1 1.3v1.4h1.3v-1.4zm6.8 0v1.4h1.3v-1.4z" style="font-variation-settings:normal" transform="translate(0 -108.7)"/><path fill="#000" fill-rule="evenodd" d="M64.5 372.4v1.4h-1.3v1.4h-1.4V435h1.4v1.3h1.3v1.4h38.1v-1.4h1.4V435h1.3v-59.8H104v-1.4h-1.4v-1.4z" style="font-variation-settings:normal" transform="translate(166.8 -108.7)"/><path fill="#cef7f7" fill-rule="evenodd" d="M65.9 373.8v1.4h-1.4v1.3h-1.3v57.1h1.3v1.4H66v1.3h35.3V435h1.4v-1.4h1.4v-57h-1.4v-1.4h-1.4v-1.4Z" style="font-variation-settings:normal" transform="translate(166.8 -108.7)"/><path fill="#fff" fill-rule="evenodd" d="M66 373.8v1.4h-1.5v1.3h-1.3v55.7h1.3V378H66v-1.4h1.4v-1.3h32.6v-1.4z" style="font-variation-settings:normal" transform="translate(166.8 -108.7)"/><path fill="#9cc6c6" fill-rule="evenodd" d="M99.9 373.8v1.4h1.3v-1.4Zm-34 0v1.4h1.4v-1.4Zm0 1.4h-1.4v1.3H66zm-1.4 1.3h-1.3v1.4h1.3zm36.7-1.3v1.3h1.4v-1.3zm1.4 1.3v55.7h-1.4v1.4H100v1.4h-34v1.3h35.3V435h1.4v-1.4h1.4v-57Zm-39.4 55.7v1.4h1.3v1.4H66v-1.4h-1.4v-1.4z" style="font-variation-settings:normal" transform="translate(166.8 -108.7)"/><path fill="#739c9c" fill-rule="evenodd" d="M102.6 432.2v1.4h1.4v-1.4zm-1.3 1.4v1.4h1.3v-1.4zm0 1.4h-1.4v1.3h1.4zm-35.4 0v1.3h1.4V435z" style="font-variation-settings:normal" transform="translate(166.8 -108.7)"/><path fill="#000" fill-rule="evenodd" d="M246.2 275.9v1.3h-2.7v1.4h-2.7v1.4h-1.4v1.3H238v1.4h-1.3v2.7h-1.4v2.7H234v9.5h-1.4v5.5h1.4v2.7h1.3v1.3h1.4v1.4h1.3v1.4h1.4v1.3h1.4v1.4h1.3v1.3h1.4v1.4h2.7v1.4h8.2v-1.4h2.7v-1.4h1.3v-1.3h1.4v-1.4h1.4V310h1.3v-1.4h1.4v-1.4h1.3v-1.3h1.4V303h1.3v-5.5h-1.3v-9.5h-1.4v-2.7H264v-2.7h-1.4v-1.4h-1.3V280h-1.4v-1.4H257v-1.4h-2.7V276z" style="font-variation-settings:normal"/><path fill="#ff7b00" fill-rule="evenodd" d="M235.4 289.5v8.1H234v5.4h1.4v2.8h1.3v1.3h1.4v1.4h1.3v1.3h1.4v1.4h1.4v1.4h2.7v1.3h2.7v1.4h5.4v-1.4h2.7v-1.3h2.8v-1.4h1.3v-1.4h1.4v-1.3h1.3V307h1.4v-1.3h1.4V303h1.3v-5.4h-1.3v-8.1h-4.1v1.3H253v-1.3h-5.4v1.3h-8.2v-1.3z" style="font-variation-settings:normal"/><path fill="#ffbd5a" fill-rule="evenodd" d="M247.6 292.2v9.5h-1.4v4h1.4v1.4h5.4v-1.3h1.4v-4.1H253v-9.5zm-5.4 1.3v1.4h-1.4v2.7h4v-4zm-1.4 4.1h-1.4v4h2.8v1.4h2.7v-1.3h-1.4v-1.4h-2.7zm15-4v4h4V295h-1.3v-1.4zm4 4v2.7h-2.7v1.4h-1.4v1.3h2.8v-1.3h2.7v-4zm-10.8 0h2.7v2.7H249zm-15 4v1.4h1.4v2.8h2.7v-4.1zm28.5 0v4.2h2.8V303h1.3v-1.3zm-23 2.8v4h1.3v1.4h1.4v1.4h2.7v-2.7h-1.4V307h-1.3v-2.7zm5.4 6.8v1.4h2.7v-4.1h-1.4v2.7zm2.7 1.4v1.3h2.7v-1.3zm10.9-8.2v2.7H257v1.4h-1.4v2.7h2.8v-1.4h1.3v-1.3h1.4v-4.1zm-2.8 6.8h-1.3v1.4h1.3zm-1.3 0v-1.4h-2.7v1.4z" style="font-variation-settings:normal"/><path fill="#ffffa5" fill-rule="evenodd" d="M249 293.5v5.5h2.7v-5.5zm-6.8 2.7v2.8h2.7v-2.8zm13.5 0v2.8h2.8v-2.8zm-20.3 1.4v2.7h1.3v-2.7zm28.5 0v2.7h1.4v-2.7zm-24.5 2.7v2.7h1.4v1.4h2.7v-2.7h-2.7v-1.4zm20.4 0v1.4h-2.7v2.7h2.7V303h1.4v-2.7zm-12.2 1.4v2.7h1.4v1.4h2.7v-1.4h1.3v-2.7zm-12.2 2.7v1.4h1.3v-1.4zm28.5 0v1.4h1.4v-1.4zm-23.1 1.4v1.3h2.7v-1.3zm16.3 0v1.3h2.7v-1.3zm-15 2.7v1.3h4.1v-1.3zm12.3 0v1.3h4v-1.3zm-6.8 1.3v1.4h5.4v-1.4z" style="font-variation-settings:normal"/><path fill="#737373" fill-rule="evenodd" d="M239.4 301.7v2.7h2.8v-2.7zm19 0v2.7h2.8v-2.7zM245 307v2.7h2.7v-2.7zm8.1 0v2.7h2.7v-2.7z" style="font-variation-settings:normal"/><path fill="#000" fill-rule="evenodd" d="M240.8 303v2.8h1.4v2.7h4v1.3h8.2v-1.3h4v-2.7h1.4V303h-2.7v1.4h-2.7v2.7H253v1.4h-5.4V307h-1.4v-2.7h-2.7V303z" style="font-variation-settings:normal"/><path fill="#fff" fill-rule="evenodd" d="M243.5 294.9v2.7h-1.3v2.7h1.3v1.4h4v-6.8zm9.5 0v6.8h4.1v-1.4h1.4v-2.7H257V295z" style="font-variation-settings:normal"/><path fill="#737373" fill-rule="evenodd" d="M244.9 296.2v2.8h2.7v-2.8zm8.1 0v2.8h2.7v-2.8z" style="font-variation-settings:normal"/><path fill="#214aff" fill-rule="evenodd" d="M244.9 297.6v4h2.7v-4zm8.1 0v4h2.7v-4z" style="font-variation-settings:normal"/><path fill="#d6b5bd" fill-rule="evenodd" d="M246.2 297.6v2.7h1.4v-2.7zm6.8 0v2.7h1.4v-2.7z" style="font-variation-settings:normal"/><path fill="#000" fill-rule="evenodd" d="M246.2 299v2.7h1.4V299zm6.8 0v2.7h1.4V299z" style="font-variation-settings:normal"/><path fill="#5a0000" fill-rule="evenodd" d="M238 293.5v5.5h-4v1.3h2.7v4.1h1.4v-2.7h1.3v-8.2zm2.8 0v1.4h1.4v-1.4zm17.7 0v1.4h1.3v-1.4zm2.7 0v8.2h1.3v2.7h1.4v-4h2.7V299h-4v-5.5z" style="font-variation-settings:normal"/><path fill="#000" fill-rule="evenodd" d="M242.2 292.2v1.3h4v-1.3zm4 1.3v1.4h1.4v-1.4zm8.2-1.3v1.3h4v-1.3zm0 1.3H253v1.4h1.4zm-19 1.4v1.3h1.3V295zm1.3 1.3v1.4h1.4v-1.4zM264 295v1.3h1.4V295zm0 1.3h-1.4v1.4h1.4zm-25.8 4.1v1.4h1.3v-1.4zm23 0v1.4h1.4v-1.4z" style="font-variation-settings:normal"/><path fill="#b50000" fill-rule="evenodd" d="M246.2 277.2v1.4h-2.7v1.3h-2.7v1.4h-1.4v1.4h-1.3v2.7h-1.4v2.7h-1.3v6.8h1.3v1.3h1.4v-2.7h4v-1.3h5.5v-1.4h5.4v1.4h5.5v1.3h4v2.7h1.4V295h1.4V288h-1.4v-2.7h-1.4v-2.7h-1.3v-1.4h-1.4v-1.4h-2.7v-1.3h-2.7v-1.4z" style="font-variation-settings:normal"/><path fill="#f70808" fill-rule="evenodd" d="M247.6 277.2v1.4h-2.7v1.3h-2.7v1.4h-1.4v1.4h-1.4v1.3h-1.3v2.7h-1.4v1.4h1.4v1.4h24.4V288h1.4v-1.4h-1.4V284h-1.3v-1.3h-1.4v-1.4h-1.3v-1.4h-2.8v-1.3H253v-1.4z" style="font-variation-settings:normal"/><path fill="#fff" fill-rule="evenodd" d="M247.6 280v1.3h-1.4v1.4H245v4h1.3v2.8h8.2v-2.8h1.3v-4h-1.3v-1.4H253v-1.4z" style="font-variation-settings:normal"/><path fill="#d6b5bd" fill-rule="evenodd" d="M246.2 284v2.7h1.4V284zm2.8 0v2.7h2.7V284zm4 0v2.7h1.4V284zm-8.1 4v1.5h10.8V288zm10.8 1.5v1.3h4.1v-1.3zm4.1 1.3v1.4h1.4v-1.4zm-15-1.3h-4v1.3h4zm-4 1.3h-1.4v1.4h1.4z" style="font-variation-settings:normal"/><path fill="#f70808" fill-rule="evenodd" d="M247.6 281.3v2.7h1.4v-2.7zm1.4 2.7v1.4h2.7V284zm2.7 0h1.3v-2.7h-1.3zm1.3 0v1.4h1.4V284zm-5.4 0h-1.4v1.4h1.4z" style="font-variation-settings:normal"/><path fill="#000" fill-rule="evenodd" d="M64.5 372.4v1.4h-1.3v1.4h-1.4V435h1.4v1.3h1.3v1.4h38.1v-1.4h1.4V435h1.3v-59.8H104v-1.4h-1.4v-1.4z" style="font-variation-settings:normal" transform="translate(111.2 -108.7)"/><path fill="#cef7f7" fill-rule="evenodd" d="M65.9 373.8v1.4h-1.4v1.3h-1.3v57.1h1.3v1.4H66v1.3h35.3V435h1.4v-1.4h1.4v-57h-1.4v-1.4h-1.4v-1.4Z" style="font-variation-settings:normal" transform="translate(111.2 -108.7)"/><path fill="#fff" fill-rule="evenodd" d="M66 373.8v1.4h-1.5v1.3h-1.3v55.7h1.3V378H66v-1.4h1.4v-1.3h32.6v-1.4z" style="font-variation-settings:normal" transform="translate(111.2 -108.7)"/><path fill="#9cc6c6" fill-rule="evenodd" d="M99.9 373.8v1.4h1.3v-1.4Zm-34 0v1.4h1.4v-1.4Zm0 1.4h-1.4v1.3H66zm-1.4 1.3h-1.3v1.4h1.3zm36.7-1.3v1.3h1.4v-1.3zm1.4 1.3v55.7h-1.4v1.4H100v1.4h-34v1.3h35.3V435h1.4v-1.4h1.4v-57Zm-39.4 55.7v1.4h1.3v1.4H66v-1.4h-1.4v-1.4z" style="font-variation-settings:normal" transform="translate(111.2 -108.7)"/><path fill="#739c9c" fill-rule="evenodd" d="M102.6 432.2v1.4h1.4v-1.4zm-1.3 1.4v1.4h1.3v-1.4zm0 1.4h-1.4v1.3h1.4zm-35.4 0v1.3h1.4V435z" style="font-variation-settings:normal" transform="translate(111.2 -108.7)"/><path fill="#000" fill-rule="evenodd" d="M133.7 386v1.4h-4v1.4h-2.8v1.3h-2.7v1.4h-1.4v1.3h-1.3v2.8H120v5.4h1.4v2.7h1.3v1.4h1.4v1.3h1.4v1.4h2.7v1.3h2.7v1.4h5.4v5.5h-1.3v-1.4h-1.4v-1.4h-1.3V412H131v-1.4h-2.7v-1.3h-6.8v6.8h1.3v2.7h1.4v1.3h1.4v1.4h4v1.4h5.5v1.3h8.1v-1.3h5.5v-1.4h4V420h1.4v-1.3h1.4V416h1.3V409.2H150v1.3h-2.7v1.4H146v1.3h-1.4v1.4h-1.4v1.4H142v-5.5h5.4v-1.4h2.7v-1.3h2.7v-1.4h1.4v-1.3h1.4v-1.4h1.3V401h1.4v-5.4h-1.4v-2.8h-1.3v-1.3H154V390h-2.7v-1.3h-2.7v-1.4h-4.1V386z" style="font-variation-settings:normal" transform="translate(55.6 -108.7)"/><path fill="#009c00" fill-rule="evenodd" d="M137.8 407.8v10.9h-1.4v-1.4h-1.3V416h-1.4v-1.4h-1.3v-1.4H131V412h-2.7v-1.4h-5.5v5.5h1.4v2.7h1.4v1.3h4v1.4h6.8v1.4h5.5v-1.4h6.8V420h4v-1.3h1.4V416h1.4v-5.5H150v1.4h-2.7v1.3H146v1.4h-1.4v1.4h-1.4v1.3H142v1.4h-1.4v-10.9Z" style="font-variation-settings:normal" transform="translate(55.6 -108.7)"/><path fill="#006b00" fill-rule="evenodd" d="M139.2 407.8v4h1.3v-4Zm-16.4 5.4v2.8h1.4v2.7h1.4v1.3h4v-1.3H127v-1.4h-1.3v-2.7h-1.4v-1.4zm31.3 0v1.4h-1.3v2.7h-1.4v1.4h-2.7v1.3h4v-1.3h1.4V416h1.4v-2.8zm-25.8 1.4v1.4h1.3v-1.4zm20.4 0v1.4h1.3v-1.4zM131 416v2.7h2.7v-1.4h-1.3V416zm15 0v1.3h-1.4v1.4h2.7V416zm-13.6 2.7v1.3h-2.8v1.4h6.8V420h-1.3v-1.3zm10.8 0v1.3H142v1.4h6.8V420H146v-1.3zm-6.8 2.7v1.4h5.5v-1.4z" style="font-variation-settings:normal" transform="translate(55.6 -108.7)"/><path fill="#f70808" fill-rule="evenodd" d="M133.7 387.4v1.4h-4v1.3h-2.8v1.4h-2.7v1.3h-1.4v2.8h-1.3v5.4h1.3v2.7h1.4v1.4h1.4v1.3h2.7v1.4h2.7v1.3h16.3v-1.3h2.7v-1.4h2.7v-1.3h1.4v-1.4h1.4V401h1.3v-5.4h-1.3v-2.8H154v-1.3h-2.7V390h-2.7v-1.3h-4.1v-1.4z" style="font-variation-settings:normal" transform="translate(55.6 -108.7)"/><path fill="#ffb500" fill-rule="evenodd" d="M131 390.1v1.4h-1.4v1.3H127v1.4h-1.3v2.7h-1.4v2.7h1.4v2.8h1.3v1.3h2.7v1.4h1.4v1.3h16.3v-1.3h1.4v-1.4h2.7v-1.3h1.3v-2.8h1.4V397h-1.4v-2.7h-1.3v-1.4h-2.7v-1.3h-1.4V390z" style="font-variation-settings:normal" transform="translate(55.6 -108.7)"/><path fill="#fff" fill-rule="evenodd" d="M133.7 392.8v1.4H131v1.4h-1.4v5.4h1.4v1.4h2.7v1.3h10.9v-1.3h2.7V401h1.4v-5.4h-1.4v-1.4h-2.7v-1.4z" style="font-variation-settings:normal" transform="translate(55.6 -108.7)"/><path fill="#b50000" fill-rule="evenodd" d="M133.7 387.4v1.4h2.7v-1.4zm8.2 0v1.4h2.7v-1.4zm-12.3 1.4v1.3h2.8v-1.3zm16.4 0v1.3h2.7v-1.3zm-21.8 2.7v1.3h1.4v-1.3zm28.6 0v1.3h1.3v-1.3zm-30 1.3v2.8h1.4v-2.8zm31.3 0v2.8h1.4v-2.8zm-32.6 2.8v5.4h1.3v-5.4zm34 0v5.4h1.3v-5.4zm-32.7 5.4v2.7h1.4V401zm31.3 0v2.7h1.4V401zm-29.9 2.7v1.4h1.4v-1.4zm1.4 1.4v1.3h2.7v-1.3zm27.2-1.4v1.4h1.3v-1.4zm-2.8 1.4v1.3h2.8v-1.3zm-21.7 1.3v1.4h2.7v-1.4zm19 0v1.4h2.7v-1.4zm-16.3 1.4v1.4h2.7v-1.4Zm13.6 0v1.4h2.7v-1.4Z" style="font-variation-settings:normal" transform="translate(55.6 -108.7)"/><path fill="#ff7b00" fill-rule="evenodd" d="M131 390.1v1.4h1.4V390zm15 0v1.4h1.3V390zm-19 2.7v1.4h1.3v-1.4zm23 0v1.4h1.4v-1.4zm-24.4 1.4v2.7h1.3v-2.7zm25.8 0v2.7h1.4v-2.7zm-27.2 2.7v2.7h1.4V397zm28.6 0v2.7h1.3V397zm-27.2 2.7v2.8h1.3v-2.8zm25.8 0v2.8h1.4v-2.8zm-24.5 2.8v1.3h1.4v-1.3zm23.1 0v1.3h1.4v-1.3zm-19 2.7v1.3h1.4v-1.3zm15 0v1.3h1.3v-1.3z" style="font-variation-settings:normal" transform="translate(55.6 -108.7)"/><path fill="#737373" fill-rule="evenodd" d="M133.7 398.3v2.7h2.7v-2.7zm8.2 0v2.7h2.7v-2.7z" style="font-variation-settings:normal" transform="translate(55.6 -108.7)"/><path fill="#000" fill-rule="evenodd" d="M133.7 395.6v4h2.7v-4zm8.2 0v4h2.7v-4zM127 413.2v1.4h1.3v-1.4zm23 0v1.4h1.4v-1.4zm-20.4 2.8v1.3h1.4V416zm17.7 0v1.3h1.4V416zm-15 1.3v1.4h1.4v-1.4zm12.3 0v1.4h1.4v-1.4z" style="font-variation-settings:normal" transform="translate(55.6 -108.7)"/><path fill="#00e710" fill-rule="evenodd" d="M122.8 410.5v1.4h5.5v-1.4zm27.2 0v1.4h5.5v-1.4zm-21.7 1.4v1.3h1.3v1.4h2.8v-1.4H131V412zm9.5 0v8.1h1.4V412zm9.5 0v1.3H146v1.4h2.7v-1.4h1.3V412zm-15 2.7v1.4h1.4v-1.4zm12.3 0v1.4h1.4v-1.4zm-10.9 1.4v1.3h1.4V416zm9.5 0v1.3h1.4V416zm-8.1 1.3v1.4h1.3v-1.4zm6.8 0v1.4h1.3v-1.4z" style="font-variation-settings:normal" transform="translate(55.6 -108.7)"/><path fill="#000" fill-rule="evenodd" d="M64.5 372.4v1.4h-1.3v1.4h-1.4V435h1.4v1.3h1.3v1.4h38.1v-1.4h1.4V435h1.3v-59.8H104v-1.4h-1.4v-1.4z" style="font-variation-settings:normal" transform="translate(222.3 -108.7)"/><path fill="#cef7f7" fill-rule="evenodd" d="M65.9 373.8v1.4h-1.4v1.3h-1.3v57.1h1.3v1.4H66v1.3h35.3V435h1.4v-1.4h1.4v-57h-1.4v-1.4h-1.4v-1.4Z" style="font-variation-settings:normal" transform="translate(222.3 -108.7)"/><path fill="#fff" fill-rule="evenodd" d="M66 373.8v1.4h-1.5v1.3h-1.3v55.7h1.3V378H66v-1.4h1.4v-1.3h32.6v-1.4z" style="font-variation-settings:normal" transform="translate(222.3 -108.7)"/><path fill="#9cc6c6" fill-rule="evenodd" d="M99.9 373.8v1.4h1.3v-1.4Zm-34 0v1.4h1.4v-1.4Zm0 1.4h-1.4v1.3H66zm-1.4 1.3h-1.3v1.4h1.3zm36.7-1.3v1.3h1.4v-1.3zm1.4 1.3v55.7h-1.4v1.4H100v1.4h-34v1.3h35.3V435h1.4v-1.4h1.4v-57Zm-39.4 55.7v1.4h1.3v1.4H66v-1.4h-1.4v-1.4z" style="font-variation-settings:normal" transform="translate(222.3 -108.7)"/><path fill="#739c9c" fill-rule="evenodd" d="M102.6 432.2v1.4h1.4v-1.4zm-1.3 1.4v1.4h1.3v-1.4zm0 1.4h-1.4v1.3h1.4zm-35.4 0v1.3h1.4V435z" style="font-variation-settings:normal" transform="translate(222.3 -108.7)"/><path fill="#000" fill-rule="evenodd" d="M133.7 386v1.4h-4v1.4h-2.8v1.3h-2.7v1.4h-1.4v1.3h-1.3v2.8H120v5.4h1.4v2.7h1.3v1.4h1.4v1.3h1.4v1.4h2.7v1.3h2.7v1.4h5.4v5.5h-1.3v-1.4h-1.4v-1.4h-1.3V412H131v-1.4h-2.7v-1.3h-6.8v6.8h1.3v2.7h1.4v1.3h1.4v1.4h4v1.4h5.5v1.3h8.1v-1.3h5.5v-1.4h4V420h1.4v-1.3h1.4V416h1.3V409.2H150v1.3h-2.7v1.4H146v1.3h-1.4v1.4h-1.4v1.4H142v-5.5h5.4v-1.4h2.7v-1.3h2.7v-1.4h1.4v-1.3h1.4v-1.4h1.3V401h1.4v-5.4h-1.4v-2.8h-1.3v-1.3H154V390h-2.7v-1.3h-2.7v-1.4h-4.1V386z" style="font-variation-settings:normal" transform="translate(166.7 -108.7)"/><path fill="#009c00" fill-rule="evenodd" d="M137.8 407.8v10.9h-1.4v-1.4h-1.3V416h-1.4v-1.4h-1.3v-1.4H131V412h-2.7v-1.4h-5.5v5.5h1.4v2.7h1.4v1.3h4v1.4h6.8v1.4h5.5v-1.4h6.8V420h4v-1.3h1.4V416h1.4v-5.5H150v1.4h-2.7v1.3H146v1.4h-1.4v1.4h-1.4v1.3H142v1.4h-1.4v-10.9Z" style="font-variation-settings:normal" transform="translate(166.7 -108.7)"/><path fill="#006b00" fill-rule="evenodd" d="M139.2 407.8v4h1.3v-4Zm-16.4 5.4v2.8h1.4v2.7h1.4v1.3h4v-1.3H127v-1.4h-1.3v-2.7h-1.4v-1.4zm31.3 0v1.4h-1.3v2.7h-1.4v1.4h-2.7v1.3h4v-1.3h1.4V416h1.4v-2.8zm-25.8 1.4v1.4h1.3v-1.4zm20.4 0v1.4h1.3v-1.4zM131 416v2.7h2.7v-1.4h-1.3V416zm15 0v1.3h-1.4v1.4h2.7V416zm-13.6 2.7v1.3h-2.8v1.4h6.8V420h-1.3v-1.3zm10.8 0v1.3H142v1.4h6.8V420H146v-1.3zm-6.8 2.7v1.4h5.5v-1.4z" style="font-variation-settings:normal" transform="translate(166.7 -108.7)"/><path fill="#f70808" fill-rule="evenodd" d="M133.7 387.4v1.4h-4v1.3h-2.8v1.4h-2.7v1.3h-1.4v2.8h-1.3v5.4h1.3v2.7h1.4v1.4h1.4v1.3h2.7v1.4h2.7v1.3h16.3v-1.3h2.7v-1.4h2.7v-1.3h1.4v-1.4h1.4V401h1.3v-5.4h-1.3v-2.8H154v-1.3h-2.7V390h-2.7v-1.3h-4.1v-1.4z" style="font-variation-settings:normal" transform="translate(166.7 -108.7)"/><path fill="#ffb500" fill-rule="evenodd" d="M131 390.1v1.4h-1.4v1.3H127v1.4h-1.3v2.7h-1.4v2.7h1.4v2.8h1.3v1.3h2.7v1.4h1.4v1.3h16.3v-1.3h1.4v-1.4h2.7v-1.3h1.3v-2.8h1.4V397h-1.4v-2.7h-1.3v-1.4h-2.7v-1.3h-1.4V390z" style="font-variation-settings:normal" transform="translate(166.7 -108.7)"/><path fill="#fff" fill-rule="evenodd" d="M133.7 392.8v1.4H131v1.4h-1.4v5.4h1.4v1.4h2.7v1.3h10.9v-1.3h2.7V401h1.4v-5.4h-1.4v-1.4h-2.7v-1.4z" style="font-variation-settings:normal" transform="translate(166.7 -108.7)"/><path fill="#b50000" fill-rule="evenodd" d="M133.7 387.4v1.4h2.7v-1.4zm8.2 0v1.4h2.7v-1.4zm-12.3 1.4v1.3h2.8v-1.3zm16.4 0v1.3h2.7v-1.3zm-21.8 2.7v1.3h1.4v-1.3zm28.6 0v1.3h1.3v-1.3zm-30 1.3v2.8h1.4v-2.8zm31.3 0v2.8h1.4v-2.8zm-32.6 2.8v5.4h1.3v-5.4zm34 0v5.4h1.3v-5.4zm-32.7 5.4v2.7h1.4V401zm31.3 0v2.7h1.4V401zm-29.9 2.7v1.4h1.4v-1.4zm1.4 1.4v1.3h2.7v-1.3zm27.2-1.4v1.4h1.3v-1.4zm-2.8 1.4v1.3h2.8v-1.3zm-21.7 1.3v1.4h2.7v-1.4zm19 0v1.4h2.7v-1.4zm-16.3 1.4v1.4h2.7v-1.4Zm13.6 0v1.4h2.7v-1.4Z" style="font-variation-settings:normal" transform="translate(166.7 -108.7)"/><path fill="#ff7b00" fill-rule="evenodd" d="M131 390.1v1.4h1.4V390zm15 0v1.4h1.3V390zm-19 2.7v1.4h1.3v-1.4zm23 0v1.4h1.4v-1.4zm-24.4 1.4v2.7h1.3v-2.7zm25.8 0v2.7h1.4v-2.7zm-27.2 2.7v2.7h1.4V397zm28.6 0v2.7h1.3V397zm-27.2 2.7v2.8h1.3v-2.8zm25.8 0v2.8h1.4v-2.8zm-24.5 2.8v1.3h1.4v-1.3zm23.1 0v1.3h1.4v-1.3zm-19 2.7v1.3h1.4v-1.3zm15 0v1.3h1.3v-1.3z" style="font-variation-settings:normal" transform="translate(166.7 -108.7)"/><path fill="#737373" fill-rule="evenodd" d="M133.7 398.3v2.7h2.7v-2.7zm8.2 0v2.7h2.7v-2.7z" style="font-variation-settings:normal" transform="translate(166.7 -108.7)"/><path fill="#000" fill-rule="evenodd" d="M133.7 395.6v4h2.7v-4zm8.2 0v4h2.7v-4zM127 413.2v1.4h1.3v-1.4zm23 0v1.4h1.4v-1.4zm-20.4 2.8v1.3h1.4V416zm17.7 0v1.3h1.4V416zm-15 1.3v1.4h1.4v-1.4zm12.3 0v1.4h1.4v-1.4z" style="font-variation-settings:normal" transform="translate(166.7 -108.7)"/><path fill="#00e710" fill-rule="evenodd" d="M122.8 410.5v1.4h5.5v-1.4zm27.2 0v1.4h5.5v-1.4zm-21.7 1.4v1.3h1.3v1.4h2.8v-1.4H131V412zm9.5 0v8.1h1.4V412zm9.5 0v1.3H146v1.4h2.7v-1.4h1.3V412zm-15 2.7v1.4h1.4v-1.4zm12.3 0v1.4h1.4v-1.4zm-10.9 1.4v1.3h1.4V416zm9.5 0v1.3h1.4V416zm-8.1 1.3v1.4h1.3v-1.4zm6.8 0v1.4h1.3v-1.4z" style="font-variation-settings:normal" transform="translate(166.7 -108.7)"/><path fill="#000" fill-rule="evenodd" d="M17.4 12.3v1.4H16v1.4h-1.3v2.7h-1.4v10.9h1.4v2.7H16v1.4h1.4V34h10.9v-1.3h1.3v-1.4H31v-2.7h1.4v-11H31v-2.6h-1.4v-1.4h-1.3v-1.4z" style="font-variation-settings:normal" transform="translate(0 45.3)"/><path fill="#a56339" fill-rule="evenodd" d="M18.8 13.7v1.4h-1.4v1.3h4v-2.7h-1.3zm2.7 0v2.7h4v-2.7h-2.7zm4 0v2.7h2.8v-1.3h-1.4v-1.4zM16 16.4v2.8h-1.3v1.3h2.7v-4zm1.4 0v4.1h4v-4h-2.6zm4 0v4.1h4.2v-4h-2.8zm4.2 0v4.1H31v-1.3h-1.4v-2.8H27zm-11 4.1v4h2.8v-4H16zm2.8 0v4h4v-4h-2.6zm4 0v4h4.2v-4h-2.8zm4.2 0v4H31v-4h-4zm-11 4v2.8H16v1.4h1.4v-4.1H16zm2.8 0v4.2h4v-4.1h-2.6zm4 0v4.2h4.2v-4.1h-2.8zm4.2 0v4.2h4v-1.4H31v-2.7h-4zM16 28.8V30h1.4v-1.3zm1.4 0v2.7h1.4v1.3h2.7v-4h-2.7zm4 0v4h4.2v-4h-2.8zm4.2 0v4h1.3v-1.3h1.4V30h1.3v-1.3H27z" style="font-variation-settings:normal" transform="translate(0 45.3)"/><path fill="#ce8439" fill-rule="evenodd" d="M18.8 13.7v1.4H20v-1.4zm6.8 0v1.4h1.3v-1.4zm-1.4 2.7v1.4h1.4v-1.4zm0 1.4h-1.4V19h-1.3v1.4h-2.7V22H20v1.3h1.4V22h1.3v-1.4h1.4v-1.4zm-2.7 5.4v1.4h1.3v-1.4zm-6.8-4v1.3H16v-1.4zm10.9 1.3V22h2.7v-1.4h-1.4Zm-11 4V26H16v-1.4zm11 0V26h1.3v-1.4zM16 27.4v1.4h1.4v-1.4zm1.4 1.4V30h1.4v-1.3zm1.4 1.3v1.4H20V30zm8.1 0v1.4h1.4V30z" style="font-variation-settings:normal" transform="translate(0 45.3)"/><path fill="#ffde5a" fill-rule="evenodd" d="M20.1 13.7v1.4h1.4v-1.4H20zm-2.7 1.4v1.3h1.4v-1.3h-1.4zm5.4 0v1.3h1.4v-1.3h-1.4zm0 1.3h-2.7v1.4h-1.3v2.7H20v-1.4h2.7v-2.7zm-4 4.1h-1.4V22H16v1.3h1.4V26h1.4v2.8H20v-2.8h1.4v-1.3H20v-1.4h-1.3v-2.7zm2.7 5.4v1.4h1.3V26h-1.3zM20 28.8V30h1.4v-1.3H20zm-4-6.8v-1.4h-1.4V22H16zm9.5-5.5v1.4h1.3V19h2.7v-1.3h-1.3v-1.4h-2.7zM16 17.8V19h1.4v-1.3H16zm13.6 4v1.4H31V22h-1.4zm0 1.4h-1.3v1.4h-1.4v1.3h1.4v2.8h1.3v-5.5zm-1.3 5.5h-2.7v-1.4h-1.4V30h4v-1.3zm-1.4-4.1v-1.4h-1.3v1.4h1.3z" style="font-variation-settings:normal" transform="translate(0 45.3)"/><path fill="#f7b552" fill-rule="evenodd" d="M24.2 13.7v2.7h2.7v-1.3h-1.3v-1.4h-1.4zM16 16.4v1.4h1.4v-1.4H16zm9.6 1.4V19h1.3v-1.3h-1.3zm0 1.3h-1.4V22h-2.7v1.3h1.3V26h1.4v1.4h1.4v-4h2.7v-1.4h-2.7V19zm0 8.2v1.4h1.3v-1.4h-1.3zm1.3 0h1.4V26h-1.4v1.4zm1.4-8.2v1.4h1.3v-1.4h-1.3zm1.3 1.4V22H31v-1.4h-1.4zm-15 1.4v1.3H16V22h-1.3zm1.4 1.3v1.4h1.4v-1.4H16zm13.6 0v1.4H31v-1.4h-1.4zM17.4 26v1.4h1.4V26h-1.4zm2.7 0v2.8h1.4v-2.8H20zm1.4 4.1v1.4h5.4V30h-5.4z" style="font-variation-settings:normal" transform="translate(0 45.3)"/><path fill="#ffff8c" fill-rule="evenodd" d="M21.5 13.7v2.7h1.3v-1.3h1.4v-1.4h-2.7zm-2.7 2.7v1.4H20v-1.4h-1.3zm0 1.4h-1.4v2.7h1.4v-2.7zm-1.4 2.7H16V22h1.4v-1.4zM28.3 22v1.3h1.3V22h-1.3zm0 1.3h-1.4v1.4h1.4v-1.4zm-5.5 4.1v1.4h-1.3V30h2.7v-2.7h-1.4z" style="font-variation-settings:normal" transform="translate(0 45.3)"/><path fill="#e7de00" fill-rule="evenodd" d="M18.8 15v1.4h2.7v-1.3h-2.7zm0 1.4h-1.4v1.4h1.4v-1.4zM16 19.1v1.4h1.4v-1.4H16zm6.8 6.8v1.4h1.4V26h-1.4zm0 1.4h-1.3v1.4h1.3v-1.4z" style="font-variation-settings:normal" transform="translate(0 45.3)"/><path fill="#e7a54a" fill-rule="evenodd" d="M27 15v1.4h1.3v-1.3h-1.4zm1.3 1.4v1.4h1.3v-1.4h-1.3zm-5.5 0v1.4h1.4v-1.4h-1.4zm1.4 1.4V19h1.4v-1.3h-1.4zm1.4 1.3v1.4h2.7v-1.4h-2.7zm2.7 1.4V22h1.3v-1.4h-1.3zM20 19.1v1.4h1.4v-1.4H20zm2.7 1.4V22h1.4v-1.4h-1.4zm-4 1.4v1.3H20V22h-1.3zm1.3 1.3v1.4h1.4v-1.4H20zm1.4 1.4v1.3h1.3v-1.3h-1.3zm-6.8-1.4v1.4H16v-1.4h-1.3zm1.3 1.4v2.7h1.4v-2.7H16zm1.4 2.7v1.4h1.4v-1.4h-1.4zm1.4 1.4V30H20v-1.3h-1.3zM20 30v1.4h1.4V30H20zm9.5-5.4v1.3H31v-1.3h-1.4zm-4 1.3v1.4h1.3V26h-1.3zm1.3 1.4v1.4h1.4v-1.4h-1.4zm1.4 1.4V30h1.3v-1.3h-1.3z" style="font-variation-settings:normal" transform="translate(0 45.3)"/><path fill="#000" fill-rule="evenodd" d="M17.4 12.3v1.4H16v1.4h-1.3v2.7h-1.4v10.9h1.4v2.7H16v1.4h1.4V34h10.9v-1.3h1.3v-1.4H31v-2.7h1.4v-11H31v-2.6h-1.4v-1.4h-1.3v-1.4z" style="font-variation-settings:normal" transform="translate(20.4 45.3)"/><path fill="#a56339" fill-rule="evenodd" d="M18.8 13.7v1.4h-1.4v1.3h4v-2.7h-1.3zm2.7 0v2.7h4v-2.7h-2.7zm4 0v2.7h2.8v-1.3h-1.4v-1.4zM16 16.4v2.8h-1.3v1.3h2.7v-4zm1.4 0v4.1h4v-4h-2.6zm4 0v4.1h4.2v-4h-2.8zm4.2 0v4.1H31v-1.3h-1.4v-2.8H27zm-11 4.1v4h2.8v-4H16zm2.8 0v4h4v-4h-2.6zm4 0v4h4.2v-4h-2.8zm4.2 0v4H31v-4h-4zm-11 4v2.8H16v1.4h1.4v-4.1H16zm2.8 0v4.2h4v-4.1h-2.6zm4 0v4.2h4.2v-4.1h-2.8zm4.2 0v4.2h4v-1.4H31v-2.7h-4zM16 28.8V30h1.4v-1.3zm1.4 0v2.7h1.4v1.3h2.7v-4h-2.7zm4 0v4h4.2v-4h-2.8zm4.2 0v4h1.3v-1.3h1.4V30h1.3v-1.3H27z" style="font-variation-settings:normal" transform="translate(20.4 45.3)"/><path fill="#ce8439" fill-rule="evenodd" d="M18.8 13.7v1.4H20v-1.4zm6.8 0v1.4h1.3v-1.4zm-1.4 2.7v1.4h1.4v-1.4zm0 1.4h-1.4V19h-1.3v1.4h-2.7V22H20v1.3h1.4V22h1.3v-1.4h1.4v-1.4zm-2.7 5.4v1.4h1.3v-1.4zm-6.8-4v1.3H16v-1.4zm10.9 1.3V22h2.7v-1.4h-1.4Zm-11 4V26H16v-1.4zm11 0V26h1.3v-1.4zM16 27.4v1.4h1.4v-1.4zm1.4 1.4V30h1.4v-1.3zm1.4 1.3v1.4H20V30zm8.1 0v1.4h1.4V30z" style="font-variation-settings:normal" transform="translate(20.4 45.3)"/><path fill="#ffde5a" fill-rule="evenodd" d="M20.1 13.7v1.4h1.4v-1.4H20zm-2.7 1.4v1.3h1.4v-1.3h-1.4zm5.4 0v1.3h1.4v-1.3h-1.4zm0 1.3h-2.7v1.4h-1.3v2.7H20v-1.4h2.7v-2.7zm-4 4.1h-1.4V22H16v1.3h1.4V26h1.4v2.8H20v-2.8h1.4v-1.3H20v-1.4h-1.3v-2.7zm2.7 5.4v1.4h1.3V26h-1.3zM20 28.8V30h1.4v-1.3H20zm-4-6.8v-1.4h-1.4V22H16zm9.5-5.5v1.4h1.3V19h2.7v-1.3h-1.3v-1.4h-2.7zM16 17.8V19h1.4v-1.3H16zm13.6 4v1.4H31V22h-1.4zm0 1.4h-1.3v1.4h-1.4v1.3h1.4v2.8h1.3v-5.5zm-1.3 5.5h-2.7v-1.4h-1.4V30h4v-1.3zm-1.4-4.1v-1.4h-1.3v1.4h1.3z" style="font-variation-settings:normal" transform="translate(20.4 45.3)"/><path fill="#f7b552" fill-rule="evenodd" d="M24.2 13.7v2.7h2.7v-1.3h-1.3v-1.4h-1.4zM16 16.4v1.4h1.4v-1.4H16zm9.6 1.4V19h1.3v-1.3h-1.3zm0 1.3h-1.4V22h-2.7v1.3h1.3V26h1.4v1.4h1.4v-4h2.7v-1.4h-2.7V19zm0 8.2v1.4h1.3v-1.4h-1.3zm1.3 0h1.4V26h-1.4v1.4zm1.4-8.2v1.4h1.3v-1.4h-1.3zm1.3 1.4V22H31v-1.4h-1.4zm-15 1.4v1.3H16V22h-1.3zm1.4 1.3v1.4h1.4v-1.4H16zm13.6 0v1.4H31v-1.4h-1.4zM17.4 26v1.4h1.4V26h-1.4zm2.7 0v2.8h1.4v-2.8H20zm1.4 4.1v1.4h5.4V30h-5.4z" style="font-variation-settings:normal" transform="translate(20.4 45.3)"/><path fill="#ffff8c" fill-rule="evenodd" d="M21.5 13.7v2.7h1.3v-1.3h1.4v-1.4h-2.7zm-2.7 2.7v1.4H20v-1.4h-1.3zm0 1.4h-1.4v2.7h1.4v-2.7zm-1.4 2.7H16V22h1.4v-1.4zM28.3 22v1.3h1.3V22h-1.3zm0 1.3h-1.4v1.4h1.4v-1.4zm-5.5 4.1v1.4h-1.3V30h2.7v-2.7h-1.4z" style="font-variation-settings:normal" transform="translate(20.4 45.3)"/><path fill="#e7de00" fill-rule="evenodd" d="M18.8 15v1.4h2.7v-1.3h-2.7zm0 1.4h-1.4v1.4h1.4v-1.4zM16 19.1v1.4h1.4v-1.4H16zm6.8 6.8v1.4h1.4V26h-1.4zm0 1.4h-1.3v1.4h1.3v-1.4z" style="font-variation-settings:normal" transform="translate(20.4 45.3)"/><path fill="#e7a54a" fill-rule="evenodd" d="M27 15v1.4h1.3v-1.3h-1.4zm1.3 1.4v1.4h1.3v-1.4h-1.3zm-5.5 0v1.4h1.4v-1.4h-1.4zm1.4 1.4V19h1.4v-1.3h-1.4zm1.4 1.3v1.4h2.7v-1.4h-2.7zm2.7 1.4V22h1.3v-1.4h-1.3zM20 19.1v1.4h1.4v-1.4H20zm2.7 1.4V22h1.4v-1.4h-1.4zm-4 1.4v1.3H20V22h-1.3zm1.3 1.3v1.4h1.4v-1.4H20zm1.4 1.4v1.3h1.3v-1.3h-1.3zm-6.8-1.4v1.4H16v-1.4h-1.3zm1.3 1.4v2.7h1.4v-2.7H16zm1.4 2.7v1.4h1.4v-1.4h-1.4zm1.4 1.4V30H20v-1.3h-1.3zM20 30v1.4h1.4V30H20zm9.5-5.4v1.3H31v-1.3h-1.4zm-4 1.3v1.4h1.3V26h-1.3zm1.3 1.4v1.4h1.4v-1.4h-1.4zm1.4 1.4V30h1.3v-1.3h-1.3z" style="font-variation-settings:normal" transform="translate(20.4 45.3)"/><path fill="#000" fill-rule="evenodd" d="M17.4 12.3v1.4H16v1.4h-1.3v2.7h-1.4v10.9h1.4v2.7H16v1.4h1.4V34h10.9v-1.3h1.3v-1.4H31v-2.7h1.4v-11H31v-2.6h-1.4v-1.4h-1.3v-1.4z" style="font-variation-settings:normal" transform="translate(40.8 45.3)"/><path fill="#a56339" fill-rule="evenodd" d="M18.8 13.7v1.4h-1.4v1.3h4v-2.7h-1.3zm2.7 0v2.7h4v-2.7h-2.7zm4 0v2.7h2.8v-1.3h-1.4v-1.4zM16 16.4v2.8h-1.3v1.3h2.7v-4zm1.4 0v4.1h4v-4h-2.6zm4 0v4.1h4.2v-4h-2.8zm4.2 0v4.1H31v-1.3h-1.4v-2.8H27zm-11 4.1v4h2.8v-4H16zm2.8 0v4h4v-4h-2.6zm4 0v4h4.2v-4h-2.8zm4.2 0v4H31v-4h-4zm-11 4v2.8H16v1.4h1.4v-4.1H16zm2.8 0v4.2h4v-4.1h-2.6zm4 0v4.2h4.2v-4.1h-2.8zm4.2 0v4.2h4v-1.4H31v-2.7h-4zM16 28.8V30h1.4v-1.3zm1.4 0v2.7h1.4v1.3h2.7v-4h-2.7zm4 0v4h4.2v-4h-2.8zm4.2 0v4h1.3v-1.3h1.4V30h1.3v-1.3H27z" style="font-variation-settings:normal" transform="translate(40.8 45.3)"/><path fill="#ce8439" fill-rule="evenodd" d="M18.8 13.7v1.4H20v-1.4zm6.8 0v1.4h1.3v-1.4zm-1.4 2.7v1.4h1.4v-1.4zm0 1.4h-1.4V19h-1.3v1.4h-2.7V22H20v1.3h1.4V22h1.3v-1.4h1.4v-1.4zm-2.7 5.4v1.4h1.3v-1.4zm-6.8-4v1.3H16v-1.4zm10.9 1.3V22h2.7v-1.4h-1.4Zm-11 4V26H16v-1.4zm11 0V26h1.3v-1.4zM16 27.4v1.4h1.4v-1.4zm1.4 1.4V30h1.4v-1.3zm1.4 1.3v1.4H20V30zm8.1 0v1.4h1.4V30z" style="font-variation-settings:normal" transform="translate(40.8 45.3)"/><path fill="#ffde5a" fill-rule="evenodd" d="M20.1 13.7v1.4h1.4v-1.4H20zm-2.7 1.4v1.3h1.4v-1.3h-1.4zm5.4 0v1.3h1.4v-1.3h-1.4zm0 1.3h-2.7v1.4h-1.3v2.7H20v-1.4h2.7v-2.7zm-4 4.1h-1.4V22H16v1.3h1.4V26h1.4v2.8H20v-2.8h1.4v-1.3H20v-1.4h-1.3v-2.7zm2.7 5.4v1.4h1.3V26h-1.3zM20 28.8V30h1.4v-1.3H20zm-4-6.8v-1.4h-1.4V22H16zm9.5-5.5v1.4h1.3V19h2.7v-1.3h-1.3v-1.4h-2.7zM16 17.8V19h1.4v-1.3H16zm13.6 4v1.4H31V22h-1.4zm0 1.4h-1.3v1.4h-1.4v1.3h1.4v2.8h1.3v-5.5zm-1.3 5.5h-2.7v-1.4h-1.4V30h4v-1.3zm-1.4-4.1v-1.4h-1.3v1.4h1.3z" style="font-variation-settings:normal" transform="translate(40.8 45.3)"/><path fill="#f7b552" fill-rule="evenodd" d="M24.2 13.7v2.7h2.7v-1.3h-1.3v-1.4h-1.4zM16 16.4v1.4h1.4v-1.4H16zm9.6 1.4V19h1.3v-1.3h-1.3zm0 1.3h-1.4V22h-2.7v1.3h1.3V26h1.4v1.4h1.4v-4h2.7v-1.4h-2.7V19zm0 8.2v1.4h1.3v-1.4h-1.3zm1.3 0h1.4V26h-1.4v1.4zm1.4-8.2v1.4h1.3v-1.4h-1.3zm1.3 1.4V22H31v-1.4h-1.4zm-15 1.4v1.3H16V22h-1.3zm1.4 1.3v1.4h1.4v-1.4H16zm13.6 0v1.4H31v-1.4h-1.4zM17.4 26v1.4h1.4V26h-1.4zm2.7 0v2.8h1.4v-2.8H20zm1.4 4.1v1.4h5.4V30h-5.4z" style="font-variation-settings:normal" transform="translate(40.8 45.3)"/><path fill="#ffff8c" fill-rule="evenodd" d="M21.5 13.7v2.7h1.3v-1.3h1.4v-1.4h-2.7zm-2.7 2.7v1.4H20v-1.4h-1.3zm0 1.4h-1.4v2.7h1.4v-2.7zm-1.4 2.7H16V22h1.4v-1.4zM28.3 22v1.3h1.3V22h-1.3zm0 1.3h-1.4v1.4h1.4v-1.4zm-5.5 4.1v1.4h-1.3V30h2.7v-2.7h-1.4z" style="font-variation-settings:normal" transform="translate(40.8 45.3)"/><path fill="#e7de00" fill-rule="evenodd" d="M18.8 15v1.4h2.7v-1.3h-2.7zm0 1.4h-1.4v1.4h1.4v-1.4zM16 19.1v1.4h1.4v-1.4H16zm6.8 6.8v1.4h1.4V26h-1.4zm0 1.4h-1.3v1.4h1.3v-1.4z" style="font-variation-settings:normal" transform="translate(40.8 45.3)"/><path fill="#e7a54a" fill-rule="evenodd" d="M27 15v1.4h1.3v-1.3h-1.4zm1.3 1.4v1.4h1.3v-1.4h-1.3zm-5.5 0v1.4h1.4v-1.4h-1.4zm1.4 1.4V19h1.4v-1.3h-1.4zm1.4 1.3v1.4h2.7v-1.4h-2.7zm2.7 1.4V22h1.3v-1.4h-1.3zM20 19.1v1.4h1.4v-1.4H20zm2.7 1.4V22h1.4v-1.4h-1.4zm-4 1.4v1.3H20V22h-1.3zm1.3 1.3v1.4h1.4v-1.4H20zm1.4 1.4v1.3h1.3v-1.3h-1.3zm-6.8-1.4v1.4H16v-1.4h-1.3zm1.3 1.4v2.7h1.4v-2.7H16zm1.4 2.7v1.4h1.4v-1.4h-1.4zm1.4 1.4V30H20v-1.3h-1.3zM20 30v1.4h1.4V30H20zm9.5-5.4v1.3H31v-1.3h-1.4zm-4 1.3v1.4h1.3V26h-1.3zm1.3 1.4v1.4h1.4v-1.4h-1.4zm1.4 1.4V30h1.3v-1.3h-1.3z" style="font-variation-settings:normal" transform="translate(40.8 45.3)"/><path fill="#000" fill-rule="evenodd" d="M17.4 12.3v1.4H16v1.4h-1.3v2.7h-1.4v10.9h1.4v2.7H16v1.4h1.4V34h10.9v-1.3h1.3v-1.4H31v-2.7h1.4v-11H31v-2.6h-1.4v-1.4h-1.3v-1.4z" style="font-variation-settings:normal" transform="translate(61.2 45.3)"/><path fill="#a56339" fill-rule="evenodd" d="M18.8 13.7v1.4h-1.4v1.3h4v-2.7h-1.3zm2.7 0v2.7h4v-2.7h-2.7zm4 0v2.7h2.8v-1.3h-1.4v-1.4zM16 16.4v2.8h-1.3v1.3h2.7v-4zm1.4 0v4.1h4v-4h-2.6zm4 0v4.1h4.2v-4h-2.8zm4.2 0v4.1H31v-1.3h-1.4v-2.8H27zm-11 4.1v4h2.8v-4H16zm2.8 0v4h4v-4h-2.6zm4 0v4h4.2v-4h-2.8zm4.2 0v4H31v-4h-4zm-11 4v2.8H16v1.4h1.4v-4.1H16zm2.8 0v4.2h4v-4.1h-2.6zm4 0v4.2h4.2v-4.1h-2.8zm4.2 0v4.2h4v-1.4H31v-2.7h-4zM16 28.8V30h1.4v-1.3zm1.4 0v2.7h1.4v1.3h2.7v-4h-2.7zm4 0v4h4.2v-4h-2.8zm4.2 0v4h1.3v-1.3h1.4V30h1.3v-1.3H27z" style="font-variation-settings:normal" transform="translate(61.2 45.3)"/><path fill="#ce8439" fill-rule="evenodd" d="M18.8 13.7v1.4H20v-1.4zm6.8 0v1.4h1.3v-1.4zm-1.4 2.7v1.4h1.4v-1.4zm0 1.4h-1.4V19h-1.3v1.4h-2.7V22H20v1.3h1.4V22h1.3v-1.4h1.4v-1.4zm-2.7 5.4v1.4h1.3v-1.4zm-6.8-4v1.3H16v-1.4zm10.9 1.3V22h2.7v-1.4h-1.4Zm-11 4V26H16v-1.4zm11 0V26h1.3v-1.4zM16 27.4v1.4h1.4v-1.4zm1.4 1.4V30h1.4v-1.3zm1.4 1.3v1.4H20V30zm8.1 0v1.4h1.4V30z" style="font-variation-settings:normal" transform="translate(61.2 45.3)"/><path fill="#ffde5a" fill-rule="evenodd" d="M20.1 13.7v1.4h1.4v-1.4H20zm-2.7 1.4v1.3h1.4v-1.3h-1.4zm5.4 0v1.3h1.4v-1.3h-1.4zm0 1.3h-2.7v1.4h-1.3v2.7H20v-1.4h2.7v-2.7zm-4 4.1h-1.4V22H16v1.3h1.4V26h1.4v2.8H20v-2.8h1.4v-1.3H20v-1.4h-1.3v-2.7zm2.7 5.4v1.4h1.3V26h-1.3zM20 28.8V30h1.4v-1.3H20zm-4-6.8v-1.4h-1.4V22H16zm9.5-5.5v1.4h1.3V19h2.7v-1.3h-1.3v-1.4h-2.7zM16 17.8V19h1.4v-1.3H16zm13.6 4v1.4H31V22h-1.4zm0 1.4h-1.3v1.4h-1.4v1.3h1.4v2.8h1.3v-5.5zm-1.3 5.5h-2.7v-1.4h-1.4V30h4v-1.3zm-1.4-4.1v-1.4h-1.3v1.4h1.3z" style="font-variation-settings:normal" transform="translate(61.2 45.3)"/><path fill="#f7b552" fill-rule="evenodd" d="M24.2 13.7v2.7h2.7v-1.3h-1.3v-1.4h-1.4zM16 16.4v1.4h1.4v-1.4H16zm9.6 1.4V19h1.3v-1.3h-1.3zm0 1.3h-1.4V22h-2.7v1.3h1.3V26h1.4v1.4h1.4v-4h2.7v-1.4h-2.7V19zm0 8.2v1.4h1.3v-1.4h-1.3zm1.3 0h1.4V26h-1.4v1.4zm1.4-8.2v1.4h1.3v-1.4h-1.3zm1.3 1.4V22H31v-1.4h-1.4zm-15 1.4v1.3H16V22h-1.3zm1.4 1.3v1.4h1.4v-1.4H16zm13.6 0v1.4H31v-1.4h-1.4zM17.4 26v1.4h1.4V26h-1.4zm2.7 0v2.8h1.4v-2.8H20zm1.4 4.1v1.4h5.4V30h-5.4z" style="font-variation-settings:normal" transform="translate(61.2 45.3)"/><path fill="#ffff8c" fill-rule="evenodd" d="M21.5 13.7v2.7h1.3v-1.3h1.4v-1.4h-2.7zm-2.7 2.7v1.4H20v-1.4h-1.3zm0 1.4h-1.4v2.7h1.4v-2.7zm-1.4 2.7H16V22h1.4v-1.4zM28.3 22v1.3h1.3V22h-1.3zm0 1.3h-1.4v1.4h1.4v-1.4zm-5.5 4.1v1.4h-1.3V30h2.7v-2.7h-1.4z" style="font-variation-settings:normal" transform="translate(61.2 45.3)"/><path fill="#e7de00" fill-rule="evenodd" d="M18.8 15v1.4h2.7v-1.3h-2.7zm0 1.4h-1.4v1.4h1.4v-1.4zM16 19.1v1.4h1.4v-1.4H16zm6.8 6.8v1.4h1.4V26h-1.4zm0 1.4h-1.3v1.4h1.3v-1.4z" style="font-variation-settings:normal" transform="translate(61.2 45.3)"/><path fill="#e7a54a" fill-rule="evenodd" d="M27 15v1.4h1.3v-1.3h-1.4zm1.3 1.4v1.4h1.3v-1.4h-1.3zm-5.5 0v1.4h1.4v-1.4h-1.4zm1.4 1.4V19h1.4v-1.3h-1.4zm1.4 1.3v1.4h2.7v-1.4h-2.7zm2.7 1.4V22h1.3v-1.4h-1.3zM20 19.1v1.4h1.4v-1.4H20zm2.7 1.4V22h1.4v-1.4h-1.4zm-4 1.4v1.3H20V22h-1.3zm1.3 1.3v1.4h1.4v-1.4H20zm1.4 1.4v1.3h1.3v-1.3h-1.3zm-6.8-1.4v1.4H16v-1.4h-1.3zm1.3 1.4v2.7h1.4v-2.7H16zm1.4 2.7v1.4h1.4v-1.4h-1.4zm1.4 1.4V30H20v-1.3h-1.3zM20 30v1.4h1.4V30H20zm9.5-5.4v1.3H31v-1.3h-1.4zm-4 1.3v1.4h1.3V26h-1.3zm1.3 1.4v1.4h1.4v-1.4h-1.4zm1.4 1.4V30h1.3v-1.3h-1.3z" style="font-variation-settings:normal" transform="translate(61.2 45.3)"/><path fill="#000" fill-rule="evenodd" d="M17.4 12.3v1.4H16v1.4h-1.3v2.7h-1.4v10.9h1.4v2.7H16v1.4h1.4V34h10.9v-1.3h1.3v-1.4H31v-2.7h1.4v-11H31v-2.6h-1.4v-1.4h-1.3v-1.4z" style="font-variation-settings:normal" transform="translate(81.6 45.3)"/><path fill="#a56339" fill-rule="evenodd" d="M18.8 13.7v1.4h-1.4v1.3h4v-2.7h-1.3zm2.7 0v2.7h4v-2.7h-2.7zm4 0v2.7h2.8v-1.3h-1.4v-1.4zM16 16.4v2.8h-1.3v1.3h2.7v-4zm1.4 0v4.1h4v-4h-2.6zm4 0v4.1h4.2v-4h-2.8zm4.2 0v4.1H31v-1.3h-1.4v-2.8H27zm-11 4.1v4h2.8v-4H16zm2.8 0v4h4v-4h-2.6zm4 0v4h4.2v-4h-2.8zm4.2 0v4H31v-4h-4zm-11 4v2.8H16v1.4h1.4v-4.1H16zm2.8 0v4.2h4v-4.1h-2.6zm4 0v4.2h4.2v-4.1h-2.8zm4.2 0v4.2h4v-1.4H31v-2.7h-4zM16 28.8V30h1.4v-1.3zm1.4 0v2.7h1.4v1.3h2.7v-4h-2.7zm4 0v4h4.2v-4h-2.8zm4.2 0v4h1.3v-1.3h1.4V30h1.3v-1.3H27z" style="font-variation-settings:normal" transform="translate(81.6 45.3)"/><path fill="#ce8439" fill-rule="evenodd" d="M18.8 13.7v1.4H20v-1.4zm6.8 0v1.4h1.3v-1.4zm-1.4 2.7v1.4h1.4v-1.4zm0 1.4h-1.4V19h-1.3v1.4h-2.7V22H20v1.3h1.4V22h1.3v-1.4h1.4v-1.4zm-2.7 5.4v1.4h1.3v-1.4zm-6.8-4v1.3H16v-1.4zm10.9 1.3V22h2.7v-1.4h-1.4Zm-11 4V26H16v-1.4zm11 0V26h1.3v-1.4zM16 27.4v1.4h1.4v-1.4zm1.4 1.4V30h1.4v-1.3zm1.4 1.3v1.4H20V30zm8.1 0v1.4h1.4V30z" style="font-variation-settings:normal" transform="translate(81.6 45.3)"/><path fill="#ffde5a" fill-rule="evenodd" d="M20.1 13.7v1.4h1.4v-1.4H20zm-2.7 1.4v1.3h1.4v-1.3h-1.4zm5.4 0v1.3h1.4v-1.3h-1.4zm0 1.3h-2.7v1.4h-1.3v2.7H20v-1.4h2.7v-2.7zm-4 4.1h-1.4V22H16v1.3h1.4V26h1.4v2.8H20v-2.8h1.4v-1.3H20v-1.4h-1.3v-2.7zm2.7 5.4v1.4h1.3V26h-1.3zM20 28.8V30h1.4v-1.3H20zm-4-6.8v-1.4h-1.4V22H16zm9.5-5.5v1.4h1.3V19h2.7v-1.3h-1.3v-1.4h-2.7zM16 17.8V19h1.4v-1.3H16zm13.6 4v1.4H31V22h-1.4zm0 1.4h-1.3v1.4h-1.4v1.3h1.4v2.8h1.3v-5.5zm-1.3 5.5h-2.7v-1.4h-1.4V30h4v-1.3zm-1.4-4.1v-1.4h-1.3v1.4h1.3z" style="font-variation-settings:normal" transform="translate(81.6 45.3)"/><path fill="#f7b552" fill-rule="evenodd" d="M24.2 13.7v2.7h2.7v-1.3h-1.3v-1.4h-1.4zM16 16.4v1.4h1.4v-1.4H16zm9.6 1.4V19h1.3v-1.3h-1.3zm0 1.3h-1.4V22h-2.7v1.3h1.3V26h1.4v1.4h1.4v-4h2.7v-1.4h-2.7V19zm0 8.2v1.4h1.3v-1.4h-1.3zm1.3 0h1.4V26h-1.4v1.4zm1.4-8.2v1.4h1.3v-1.4h-1.3zm1.3 1.4V22H31v-1.4h-1.4zm-15 1.4v1.3H16V22h-1.3zm1.4 1.3v1.4h1.4v-1.4H16zm13.6 0v1.4H31v-1.4h-1.4zM17.4 26v1.4h1.4V26h-1.4zm2.7 0v2.8h1.4v-2.8H20zm1.4 4.1v1.4h5.4V30h-5.4z" style="font-variation-settings:normal" transform="translate(81.6 45.3)"/><path fill="#ffff8c" fill-rule="evenodd" d="M21.5 13.7v2.7h1.3v-1.3h1.4v-1.4h-2.7zm-2.7 2.7v1.4H20v-1.4h-1.3zm0 1.4h-1.4v2.7h1.4v-2.7zm-1.4 2.7H16V22h1.4v-1.4zM28.3 22v1.3h1.3V22h-1.3zm0 1.3h-1.4v1.4h1.4v-1.4zm-5.5 4.1v1.4h-1.3V30h2.7v-2.7h-1.4z" style="font-variation-settings:normal" transform="translate(81.6 45.3)"/><path fill="#e7de00" fill-rule="evenodd" d="M18.8 15v1.4h2.7v-1.3h-2.7zm0 1.4h-1.4v1.4h1.4v-1.4zM16 19.1v1.4h1.4v-1.4H16zm6.8 6.8v1.4h1.4V26h-1.4zm0 1.4h-1.3v1.4h1.3v-1.4z" style="font-variation-settings:normal" transform="translate(81.6 45.3)"/><path fill="#e7a54a" fill-rule="evenodd" d="M27 15v1.4h1.3v-1.3h-1.4zm1.3 1.4v1.4h1.3v-1.4h-1.3zm-5.5 0v1.4h1.4v-1.4h-1.4zm1.4 1.4V19h1.4v-1.3h-1.4zm1.4 1.3v1.4h2.7v-1.4h-2.7zm2.7 1.4V22h1.3v-1.4h-1.3zM20 19.1v1.4h1.4v-1.4H20zm2.7 1.4V22h1.4v-1.4h-1.4zm-4 1.4v1.3H20V22h-1.3zm1.3 1.3v1.4h1.4v-1.4H20zm1.4 1.4v1.3h1.3v-1.3h-1.3zm-6.8-1.4v1.4H16v-1.4h-1.3zm1.3 1.4v2.7h1.4v-2.7H16zm1.4 2.7v1.4h1.4v-1.4h-1.4zm1.4 1.4V30H20v-1.3h-1.3zM20 30v1.4h1.4V30H20zm9.5-5.4v1.3H31v-1.3h-1.4zm-4 1.3v1.4h1.3V26h-1.3zm1.3 1.4v1.4h1.4v-1.4h-1.4zm1.4 1.4V30h1.3v-1.3h-1.3z" style="font-variation-settings:normal" transform="translate(81.6 45.3)"/><path fill="#000" fill-rule="evenodd" d="M119 22.2v1.4h-1.4v1.3h-1.4v59.8h1.4v1.4h1.3v1.4H157V86h1.4v-1.4h1.3V25h-1.3v-1.3H157v-1.4z" style="font-variation-settings:normal" transform="translate(112.4 68)"/><path fill="#fcffff" fill-rule="evenodd" d="M121.7 23.6v1.3h-1.4v1.4h-1.4v1.4h-1.3V82h40.8V27.7H157v-1.4h-1.4v-1.4h-1.3v-1.3z" style="font-variation-settings:normal" transform="translate(112.4 68)"/><path fill="#ef636b" fill-rule="evenodd" d="M120.3 84.7v1.4h35.3v-1.4ZM155.6 83.4v1.3h1.4v-1.3zm-36.7 0v1.3h1.4v-1.3zM157 82v1.4h1.4V82zm-39.4 0v1.4h1.3V82zM157 26.3v1.4h1.4v-1.4zm-39.4 0v1.4h1.3v-1.4zm1.3-1.4v1.4h1.4v-1.4zm36.7 0v1.4h1.4V25zm-1.3-1.3v1.3h1.3v-1.3zm-34 0v1.3h1.4v-1.3z" style="font-variation-settings:normal" transform="translate(112.4 68)"/><path fill="#de0010" fill-rule="evenodd" d="M119 27.7h38v55.7h-38z" style="font-variation-settings:normal" transform="translate(112.4 68)"/><path fill="#de0010" fill-rule="evenodd" d="M120.3 26.3h35.3v58.4h-35.3z" style="font-variation-settings:normal" transform="translate(112.4 68)"/><path fill="#de0010" fill-rule="evenodd" d="M121.7 25h32.6v58.4h-32.6z" style="font-variation-settings:normal" transform="translate(112.4 68)"/><path fill="#fff" fill-rule="evenodd" d="M125.7 25v2.7h2.8v-2.8zm11 0v2.7h2.6v-2.8zm10.8 0v2.7h2.7v-2.8zm-23.1 2.7v2.7h1.3v-2.7zm4 0v2.7h1.4v-2.7zm6.9 0v2.7h1.3v-2.7zm4 0v2.7h1.4v-2.7zm6.8 0v2.7h1.4v-2.7zm4.1 0v2.7h1.4v-2.7zM119 30.4V33h1.4v-2.7zm4.1 0V33h1.4v-2.7zm6.8 0V33h1.4v-2.7zm4.1 0V33h1.4v-2.7zm6.8 0V33h1.4v-2.7zm4 0V33h1.4v-2.7zm6.9 0V33h1.3v-2.7zm4 0V33h1.4v-2.7zM120.4 33v5.4h2.7v-5.4zm10.9 0v5.4h2.7v-5.4zm10.9 0v5.4h2.7v-5.4zm10.8 0v5.4h2.8v-5.4zm-34 5.4v2.8h1.4v-2.8zm4.1 0v2.8h1.4v-2.8zm6.8 0v2.8h1.4v-2.8zm4.1 0v2.8h1.4v-2.8zm6.8 0v2.8h1.4v-2.8zm4 0v2.8h1.4v-2.8zm6.9 0v2.8h1.3v-2.8zm4 0v2.8h1.4v-2.8zm-31.2 2.8V44h1.3v-2.7zm4 0V44h1.4v-2.7zm6.9 0V44h1.3v-2.7zm4 0V44h1.4v-2.7zm6.8 0V44h1.4v-2.7zm4.1 0V44h1.4v-2.7zM125.7 44v2.7h2.8V44zm11 0v2.7h2.6V44zm10.8 0v2.7h2.7V44zm-23.1 2.7v2.7h1.3v-2.7zm4 0v2.7h1.4v-2.7zm6.9 0v2.7h1.3v-2.7zm4 0v2.7h1.4v-2.7zm6.8 0v2.7h1.4v-2.7zm4.1 0v2.7h1.4v-2.7zM119 49.4v2.7h1.4v-2.7zm4.1 0v2.7h1.4v-2.7zm6.8 0v2.7h1.4v-2.7zm4.1 0v2.7h1.4v-2.7zm6.8 0v2.7h1.4v-2.7zm4 0v2.7h1.4v-2.7zm6.9 0v2.7h1.3v-2.7zm4 0v2.7h1.4v-2.7zm-35.3 2.7v5.5h2.7V52zm10.9 0v5.5h2.7V52zm10.9 0v5.5h2.7V52zm10.8 0v5.5h2.8V52zm-34 5.5v2.7h1.4v-2.7zm4.1 0v2.7h1.4v-2.7zm6.8 0v2.7h1.4v-2.7zm4.1 0v2.7h1.4v-2.7zm6.8 0v2.7h1.4v-2.7zm4 0v2.7h1.4v-2.7zm6.9 0v2.7h1.3v-2.7zm4 0v2.7h1.4v-2.7zm-31.2 2.7V63h1.3v-2.7zm4 0V63h1.4v-2.7zm6.9 0V63h1.3v-2.7zm4 0V63h1.4v-2.7zm6.8 0V63h1.4v-2.7zm4.1 0V63h1.4v-2.7zM125.7 63v2.7h2.8V63zm11 0v2.7h2.6V63zm10.8 0v2.7h2.7V63zm-23.1 2.7v2.8h1.3v-2.8zm4 0v2.8h1.4v-2.8zm6.9 0v2.8h1.3v-2.8zm4 0v2.8h1.4v-2.8zm6.8 0v2.8h1.4v-2.8zm4.1 0v2.8h1.4v-2.8zM119 68.5v2.7h1.4v-2.7zm4.1 0v2.7h1.4v-2.7zm6.8 0v2.7h1.4v-2.7zm4.1 0v2.7h1.4v-2.7zm6.8 0v2.7h1.4v-2.7zm4 0v2.7h1.4v-2.7zm6.9 0v2.7h1.3v-2.7zm4 0v2.7h1.4v-2.7zm-35.3 2.7v5.4h2.7v-5.4zm10.9 0v5.4h2.7v-5.4zm10.9 0v5.4h2.7v-5.4zm10.8 0v5.4h2.8v-5.4zm-34 5.4v2.7h1.4v-2.7zm4.1 0v2.7h1.4v-2.7zm6.8 0v2.7h1.4v-2.7zm4.1 0v2.7h1.4v-2.7zm6.8 0v2.7h1.4v-2.7zm4 0v2.7h1.4v-2.7zm6.9 0v2.7h1.3v-2.7zm4 0v2.7h1.4v-2.7zm-31.2 2.7v2.8h1.3v-2.8zm4 0v2.8h1.4v-2.8zm6.9 0v2.8h1.3v-2.8zm4 0v2.8h1.4v-2.8zm6.8 0v2.8h1.4v-2.8zm4.1 0v2.8h1.4v-2.8zm-24.5 2.8v2.7h2.8V82Zm11 0v2.7h2.6V82Zm10.8 0v2.7h2.7V82Z" style="font-variation-settings:normal" transform="translate(112.4 68)"/></svg>