<svg xmlns="http://www.w3.org/2000/svg" xmlns:osb="http://www.openswatchbook.org/uri/2009/osb" fill="none" viewBox="0 0 348 348"><defs><linearGradient osb:paint="solid" id="e"><stop offset="0" style="stop-color:#fff;stop-opacity:1"/></linearGradient><linearGradient osb:paint="solid" id="d"><stop offset="0" style="stop-color:#fff;stop-opacity:1"/></linearGradient><linearGradient osb:paint="solid" id="c"><stop offset="0" style="stop-color:#fff;stop-opacity:1"/></linearGradient><linearGradient osb:paint="solid" id="b"><stop offset="0" style="stop-color:#fff;stop-opacity:1"/></linearGradient><linearGradient osb:paint="solid" id="a"><stop offset="0" style="stop-color:#fff;stop-opacity:1"/></linearGradient></defs><path stroke="#000" stroke-width="2" d="M5.079 5.776h336.913v337.67H5.08z"/><path d="M11.89 16.11h100v60h-100zM121.89 16.11h100v60h-100zM231.89 16.11h100v60h-100z" style="opacity:1;fill:#fff;fill-opacity:1;fill-rule:nonzero;stroke:#000;stroke-width:3.77952766;stroke-miterlimit:4;stroke-dasharray:none;stroke-dashoffset:14.17322826;stroke-opacity:1"/><path d="M80.215 82.663h31.675v31.675H80.215zM190.215 82.663h31.675v31.675h-31.675zM300.215 82.663h31.675v31.675h-31.675z" style="opacity:1;fill:#fff;fill-opacity:1;fill-rule:nonzero;stroke:#000;stroke-width:3.32541585;stroke-miterlimit:4;stroke-dasharray:none;stroke-dashoffset:14.17322826;stroke-opacity:1"/><path d="M11.89 126.11h100v60h-100zM121.89 126.11h100v60h-100zM231.89 126.11h100v60h-100z" style="opacity:1;fill:#fff;fill-opacity:1;fill-rule:nonzero;stroke:#000;stroke-width:3.77952766;stroke-miterlimit:4;stroke-dasharray:none;stroke-dashoffset:14.17322826;stroke-opacity:1"/><path d="M80.215 192.663h31.675v31.675H80.215zM190.215 192.663h31.675v31.675h-31.675zM300.215 192.663h31.675v31.675h-31.675z" style="opacity:1;fill:#fff;fill-opacity:1;fill-rule:nonzero;stroke:#000;stroke-width:3.32541585;stroke-miterlimit:4;stroke-dasharray:none;stroke-dashoffset:14.17322826;stroke-opacity:1"/><path d="M11.89 238.11h100v60h-100zM121.89 238.11h100v60h-100zM231.89 238.11h100v60h-100z" style="opacity:1;fill:#fff;fill-opacity:1;fill-rule:nonzero;stroke:#000;stroke-width:3.77952766;stroke-miterlimit:4;stroke-dasharray:none;stroke-dashoffset:14.17322826;stroke-opacity:1"/><path d="M80.215 304.663h31.675v31.675H80.215zM190.215 304.663h31.675v31.675h-31.675zM300.215 304.663h31.675v31.675h-31.675z" style="opacity:1;fill:#fff;fill-opacity:1;fill-rule:nonzero;stroke:#000;stroke-width:3.32541585;stroke-miterlimit:4;stroke-dasharray:none;stroke-dashoffset:14.17322826;stroke-opacity:1"/><circle cx="26.698" cy="97.733" r="15.077" style="opacity:1;fill:#fff;fill-opacity:1;fill-rule:nonzero;stroke:#000;stroke-width:3.77952766;stroke-miterlimit:4;stroke-dasharray:none;stroke-dashoffset:14.17322826;stroke-opacity:1"/><circle cx="136.698" cy="97.733" r="15.077" style="opacity:1;fill:#fff;fill-opacity:1;fill-rule:nonzero;stroke:#000;stroke-width:3.77952766;stroke-miterlimit:4;stroke-dasharray:none;stroke-dashoffset:14.17322826;stroke-opacity:1"/><circle cx="246.698" cy="97.733" r="15.077" style="opacity:1;fill:#fff;fill-opacity:1;fill-rule:nonzero;stroke:#000;stroke-width:3.77952766;stroke-miterlimit:4;stroke-dasharray:none;stroke-dashoffset:14.17322826;stroke-opacity:1"/><circle cx="27.011" cy="208.309" r="15.077" style="opacity:1;fill:#fff;fill-opacity:1;fill-rule:nonzero;stroke:#000;stroke-width:3.77952766;stroke-miterlimit:4;stroke-dasharray:none;stroke-dashoffset:14.17322826;stroke-opacity:1"/><circle cx="137.012" cy="208.309" r="15.077" style="opacity:1;fill:#fff;fill-opacity:1;fill-rule:nonzero;stroke:#000;stroke-width:3.77952766;stroke-miterlimit:4;stroke-dasharray:none;stroke-dashoffset:14.17322826;stroke-opacity:1"/><circle cx="247.012" cy="208.309" r="15.077" style="opacity:1;fill:#fff;fill-opacity:1;fill-rule:nonzero;stroke:#000;stroke-width:3.77952766;stroke-miterlimit:4;stroke-dasharray:none;stroke-dashoffset:14.17322826;stroke-opacity:1"/><circle cx="26.549" cy="320.57" r="15.077" style="opacity:1;fill:#fff;fill-opacity:1;fill-rule:nonzero;stroke:#000;stroke-width:3.77952766;stroke-miterlimit:4;stroke-dasharray:none;stroke-dashoffset:14.17322826;stroke-opacity:1"/><circle cx="136.55" cy="320.57" r="15.077" style="opacity:1;fill:#fff;fill-opacity:1;fill-rule:nonzero;stroke:#000;stroke-width:3.77952766;stroke-miterlimit:4;stroke-dasharray:none;stroke-dashoffset:14.17322826;stroke-opacity:1"/><circle cx="246.55" cy="320.57" r="15.077" style="opacity:1;fill:#fff;fill-opacity:1;fill-rule:nonzero;stroke:#000;stroke-width:3.77952766;stroke-miterlimit:4;stroke-dasharray:none;stroke-dashoffset:14.17322826;stroke-opacity:1"/></svg>