<svg xmlns="http://www.w3.org/2000/svg" xml:space="preserve" fill="none" viewBox="0 0 512 512"><path stroke="#000" stroke-width="4" d="M18 18h476v476H18Z"/><path stroke="#000" stroke-width="4" d="M36 172h440v304H36zm138-46-8 8m-20 0 28-28m0-20-48 48M74 66 58 82m0 20 36-36m20 0-56 56m76-56-68 68m88-68-68 68m88-68-68 68M58 66h116v68H58Zm396 60-8 8m-20 0 28-28m0-20-48 48m-52-68-16 16m0 20 36-36m20 0-56 56m76-56-68 68m88-68-68 68m88-68-68 68m-48-68h116v68H338Zm-148-4h132v102H190z"/><path fill="#000" d="M205 85h101v57H205z"/><path fill="#fff" d="M252.9 113q0 7.4-1.6 12.6t-4.9 8.1q-3.3 2.8-8.8 2.8-7.7 0-11.4-6.2-3.7-6.3-3.7-17.3 0-7.5 1.5-12.7 1.5-5.3 4.9-8 3.3-2.8 8.7-2.8 7.7 0 11.5 6.2 3.8 6.1 3.8 17.3zm-24.7 0q0 9.4 2 14 2.2 4.7 7.4 4.7t7.3-4.6q2.3-4.7 2.3-14.1 0-9.4-2.3-14-2.1-4.7-7.3-4.7-5.2 0-7.3 4.7-2.1 4.6-2.1 14Zm61.3 0q0 7.4-1.6 12.6t-4.9 8.1q-3.3 2.8-8.8 2.8-7.7 0-11.4-6.2Q259 124 259 113q0-7.5 1.5-12.7 1.5-5.3 4.9-8 3.3-2.8 8.7-2.8 7.7 0 11.5 6.2 3.8 6.1 3.8 17.3zm-24.7 0q0 9.4 2 14 2.3 4.7 7.4 4.7 5.2 0 7.3-4.6 2.3-4.7 2.3-14.1 0-9.4-2.3-14-2.1-4.7-7.3-4.7-5.1 0-7.3 4.7-2.1 4.6-2.1 14z"/><g transform="translate(0 -1)"><path fill="#000" d="M237 337.7h-10v-1.5l4-4 1.9-2.1q.8-1 1.2-1.8.4-.8.4-1.9 0-1.2-.8-1.9-.7-.6-2-.6-1 0-1.9.4-.8.3-1.7 1l-1-1.2q1-.8 2-1.3 1.2-.5 2.7-.5 2.1 0 3.4 1t1.2 3q0 1.2-.5 2.3-.5 1-1.4 2l-2 2.2-3.2 3.1v.1h7.7z"/><circle cx="122" cy="342" r="14" stroke="#000" stroke-width="4"/><circle cx="122" cy="390" r="14" stroke="#000" stroke-width="4"/><circle cx="390" cy="342" r="14" stroke="#000" stroke-width="4"/><circle cx="390" cy="390" r="14" stroke="#000" stroke-width="4"/><path stroke="#000" stroke-width="4" d="M166 312h36v36h-36zm48 0h36v36h-36zm48 0h36v36h-36zm48 0h36v36h-36zm-144 48h36v36h-36zm48 0h36v36h-36zm48 0h36v36h-36zm48 0h36v36h-36zm-144 48h36v36h-36zm48 0h36v36h-36zM262 408h84v36h-84z"/><path fill="#000" d="m276.8 385.6 6.3-13.5h-8.2v-1.7H285v1.4l-6.2 13.8zm51.2-15.4q2 0 3.3 1 1.2.8 1.2 2.6 0 1-.4 1.6-.3.7-1 1.2l-1.5 1q1 .4 1.7 1 .8.5 1.3 1.3.4.7.4 1.8 0 1.9-1.3 3-1.4 1.1-3.7 1.1-2.4 0-3.8-1-1.3-1.1-1.3-3 0-1 .5-1.9.4-.7 1.1-1.3l1.6-1q-1.1-.6-1.9-1.5-.8-.9-.8-2.3 0-1.2.6-2t1.7-1.2q1-.4 2.3-.4zm0 1.5q-1.2 0-2 .6-.7.5-.7 1.6 0 .8.3 1.3l1 1 1.5.6q1-.4 1.8-1.1.8-.7.8-1.8 0-1-.8-1.6-.7-.6-2-.6zm-3.2 10q0 1.2.8 2 .8.6 2.4.6 1.6 0 2.4-.7.8-.7.8-2 0-1-.9-1.7-.9-.8-2.3-1.3l-.3-.2q-1.5.6-2.2 1.4-.7.8-.7 2zM189 425q0 1.6-.3 3.2t-1 3q-.8 1.2-2.2 2-1.3.7-3.5.7h-1q-.6 0-1-.2V432q1 .3 2 .3 1.5 0 2.4-.5 1-.5 1.6-1.3.5-.9.8-2 .3-1.1.3-2.4h-.1q-.5.8-1.4 1.3-.9.5-2.3.5-2 0-3.1-1.2-1.2-1.2-1.2-3.4 0-1.6.6-2.7.6-1.2 1.7-1.8 1-.6 2.5-.6t2.7.7q1.1.7 1.8 2.2.7 1.5.7 3.8zm-5.2-5.2q-1.3 0-2.1 1-.9.8-.9 2.6 0 1.5.7 2.3.8.8 2.3.8 1 0 1.7-.4.8-.4 1.2-1 .4-.7.4-1.3 0-1-.4-1.9-.3-.9-1-1.5t-1.9-.6zM237 426q0 2.5-.5 4.2-.5 1.8-1.6 2.7-1.1 1-3 1-2.5 0-3.8-2.1-1.2-2.1-1.2-5.8 0-2.5.5-4.2.5-1.8 1.6-2.7 1.2-1 3-1 2.5 0 3.8 2.1 1.2 2 1.2 5.8zm-8.2 0q0 3.1.7 4.7.7 1.5 2.5 1.5 1.7 0 2.4-1.5.7-1.6.7-4.7t-.7-4.7q-.7-1.5-2.4-1.5-1.8 0-2.5 1.5-.7 1.6-.7 4.7zm105.2 7.6h-8.5v-15.2h8.5v1.7h-6.6v4.7h6.3v1.7h-6.3v5.4h6.6zm-11.8-7.7q0 3.8-2.2 5.8-2 2-5.8 2h-4.3v-15.3h4.7q2.3 0 4 .8 1.7.9 2.6 2.6 1 1.6 1 4zm-2 0q0-3-1.6-4.4-1.5-1.5-4.2-1.5h-2.5v12h2q6.2 0 6.2-6zm-13.6 0q0 2.5-.8 4.2-.8 1.8-2.4 2.8-1.6 1-3.8 1-2.4 0-4-1-1.5-1-2.3-2.8-.8-1.8-.8-4.1 0-2.4.8-4.1.8-1.8 2.3-2.8 1.6-1 4-1 2.3 0 3.8 1 1.6 1 2.4 2.8.8 1.7.8 4zm-12 0q0 3 1.2 4.6 1.2 1.7 3.8 1.7 2.5 0 3.7-1.7 1.3-1.6 1.3-4.5t-1.2-4.5q-1.2-1.7-3.8-1.7-2.6 0-3.8 1.7-1.3 1.6-1.3 4.5zm-14 7.7-5-13.3v1.8l.1 2.3v9.2H274v-15.2h2.9l4.7 12.5 4.8-12.5h2.8v15.2h-1.8v-11.5l.1-1.8-5.2 13.3zM227 379.1q0-1.6.3-3.2.2-1.6 1-2.9.8-1.3 2.1-2 1.4-.8 3.5-.8h1q.6 0 1 .2v1.6l-1-.2h-1q-1.4 0-2.4.4-1 .5-1.5 1.3-.6.9-.8 2-.3 1.1-.3 2.4.6-.8 1.4-1.3 1-.5 2.3-.5 2 0 3.2 1.2 1.2 1.2 1.2 3.4 0 2.4-1.3 3.8-1.3 1.3-3.5 1.3-1.5 0-2.7-.7-1.1-.7-1.8-2.2-.7-1.5-.7-3.8zm5.1 5.2q1.4 0 2.2-.9.8-.9.8-2.7 0-1.4-.7-2.3-.7-.8-2.2-.8-1 0-1.7.4-.8.4-1.2 1-.4.7-.4 1.3 0 1 .3 1.9.4.9 1.1 1.5.7.6 1.8.6zm-48.4-8.1q2.3 0 3.7 1.1 1.4 1.2 1.4 3.3 0 2.4-1.5 3.8-1.5 1.3-4.2 1.3-1.2 0-2.2-.2t-1.7-.6V383q.7.5 1.8.8l2.1.2q1.7 0 2.7-.8 1-.8 1-2.5 0-1.5-.8-2.2-1-.9-3-.9l-1.3.2q-.8 0-1.2.2l-1-.6.6-7.2h7.6v1.7h-6l-.4 4.4 1-.1 1.4-.1zm150-42h-2.3v3.5h-1.8v-3.5h-7.3v-1.6l7.2-10.3h2v10.2h2.2zm-4-1.7v-8.2l-.5 1-.5.7-4.5 6.5zm-45.2-6.6q0 1.6-.8 2.5-.9.9-2.3 1.2 1.8.3 2.7 1.2.9 1 .9 2.5 0 1.3-.6 2.4-.6 1-2 1.6-1.2.5-3.2.5-1.2 0-2.3-.2-1-.1-2-.6v-1.8q1 .5 2.1.8 1.2.3 2.2.3 2 0 3-.8.8-.8.8-2.3 0-1.4-1-2-1.2-.6-3.2-.6h-1.5V329h1.5q1.9 0 2.8-.8 1-.8 1-2.1 0-1.1-.7-1.7-.8-.7-2-.7-1.3 0-2.2.4l-1.7 1-1-1.4q.9-.6 2-1 1.3-.5 2.8-.5 2.4 0 3.6 1 1.1 1.1 1.1 2.7zm-97.7 11.7H185V324.3l-.6.6-.6.6-1.7 1.3-1-1.2 4.2-3.2h1.5z"/><path fill="#000" d="M140.6 369.7h-1v-5.3l.1-.7v-.6l-.3.3-.3.3-.8.6-.5-.6 2-1.6h.8zm-7.2 0h-4.2v-7.6h4.2v.9h-3.3v2.3h3.1v.9h-3v2.7h3.2zm-6-3.8q0 1.9-1 2.9t-3 1h-2V362h2.3q1.2 0 2 .4.9.5 1.3 1.3.5.8.5 2zm-1 0q0-1.5-.7-2.2-.7-.8-2.1-.8h-1.3v6h1q3.2 0 3.2-3zm-6.7 0q0 1.2-.4 2-.4 1-1.2 1.4-.8.5-2 .5-1.1 0-1.9-.5-.8-.4-1.2-1.3-.3-1-.3-2.1 0-1.2.3-2 .4-1 1.2-1.4.8-.5 2-.5 1.1 0 1.9.5.8.5 1.2 1.4.4.8.4 2zm-6 0q0 1.5.6 2.3.6.8 1.9.8t1.9-.8q.6-.8.6-2.3 0-1.4-.6-2.2-.6-.9-2-.9-1.2 0-1.8.9-.6.8-.6 2.2zm-7 3.8-2.5-6.6v6.6h-.8v-7.6h1.4l2.3 6.3 2.5-6.3h1.4v7.6h-1V363l-2.5 6.7zm34.5 42.2q0 .8-.4 1.2-.4.5-1.1.6.9.2 1.3.6.5.5.5 1.3 0 .6-.3 1.2-.4.5-1 .8-.6.2-1.7.2h-1q-.6-.1-1-.4v-.9q.4.3 1 .4t1 .2q1 0 1.5-.4t.5-1.2q0-.7-.6-1-.5-.3-1.6-.3h-.7v-.8h.8q.9 0 1.4-.4.5-.4.5-1t-.4-.9q-.4-.3-1-.3t-1 .2-1 .4l-.4-.6 1-.6q.6-.2 1.4-.2 1.2 0 1.7.5.6.6.6 1.4zm-8.6 5.8h-4.3v-7.6h4.3v.9h-3.3v2.3h3v.9h-3v2.7h3.3zm-6-3.8q0 1.9-1 2.9t-3 1h-2V410h2.3q1.1 0 2 .4.8.5 1.3 1.3.4.8.4 2zm-1 0q0-1.5-.8-2.2-.7-.8-2-.8h-1.3v6h1q3.1 0 3.1-3zm-6.8 0q0 1.2-.4 2-.4 1-1.2 1.4-.7.5-1.9.5t-2-.5q-.7-.4-1.1-1.3-.4-1-.4-2.1 0-1.2.4-2 .4-1 1.1-1.4.8-.5 2-.5t2 .5q.7.5 1.1 1.4.4.8.4 2zm-6 0q0 1.5.6 2.3.6.8 2 .8 1.2 0 1.8-.8.6-.8.6-2.3 0-1.4-.6-2.2-.6-.9-1.9-.9-1.3 0-1.9.9-.6.8-.6 2.2zm-7 3.8-2.4-6.6v6.6h-.9v-7.6h1.4l2.4 6.3 2.4-6.3h1.4v7.6h-1V412l.1-1-2.5 6.7zm302.3-4q0 2-1 3-1.1 1-3 1H402V410h2.3q1.2 0 2 .5.9.4 1.3 1.2.5.8.5 2zm-1 .1q0-1.5-.8-2.2-.7-.7-2.1-.7h-1.3v6h1q3.2 0 3.2-3.1zm-6.8 3.8h-4.2V410h4.2v.9H397v2.4h3.1v.8h-3v2.7h3.2zm-10.6 0-2.5-6.6v6.6h-.8V410h1.4l2.3 6.3 2.5-6.3h1.4v7.6h-1V412l.1-1-2.6 6.7zm-7.9-7.6q1.5 0 2.1.6.7.5.7 1.6 0 .6-.2 1t-.6.7l-.7.3 2 3.4h-1l-1.9-3.1h-1.5v3.1h-1V410zm0 .9h-1.1v2.8h1.1q1 0 1.4-.4.4-.3.4-1 0-.8-.4-1.1-.5-.3-1.4-.3zm-4.1 6.7-1-2.3h-3l-.8 2.3h-1l3-7.6h.8l3 7.6zm-1.2-3.2-.9-2.3v-.3l-.2-.4-.1-.4-.2.6-.1.5-1 2.3zm33-44.7h-5v-.7l2-2 1-1 .5-1q.2-.4.2-1 0-.5-.4-.9-.3-.3-1-.3-.5 0-.9.2l-.9.5-.5-.6 1-.6q.7-.3 1.4-.3 1 0 1.7.6t.6 1.4q0 .6-.3 1.2l-.6 1-1 1-1.7 1.6h3.9zm-9 0h-4.2v-7.6h4.2v.9h-3.3v2.3h3.1v.9h-3v2.7h3.2zm-6-3.8q0 1.9-1 2.9t-2.9 1h-2.1V362h2.3q1.2 0 2 .4.9.5 1.3 1.3.5.8.5 2zm-1 0q0-1.5-.7-2.2-.7-.8-2.1-.8h-1.3v6h1q3.2 0 3.2-3zm-6.7 0q0 1.2-.4 2-.4 1-1.2 1.4-.8.5-2 .5-1 0-1.9-.5-.8-.4-1.1-1.3-.4-1-.4-2.1 0-1.2.4-2 .3-1 1.1-1.4.8-.5 2-.5 1.1 0 2 .5.7.5 1.1 1.4.4.8.4 2zm-6 0q0 1.5.6 2.3.6.8 1.9.8 1.3 0 1.9-.8.6-.8.6-2.3 0-1.4-.6-2.2-.6-.9-1.9-.9-1.3 0-2 .9-.5.8-.5 2.2zm-7 3.8-2.5-6.6v6.6h-.8v-7.6h1.4l2.3 6.3 2.5-6.3h1.4v7.6h-1V364l.1-1-2.6 6.7z"/><path stroke="#000" stroke-width="4" d="M100 206h312v74H100z"/><path stroke="#000" stroke-linecap="round" stroke-width="4" d="m198 248 6 11m-16-11-6 11m16-21 6-11m-16 11-6-11m23 16h-8m12 4v12m0-32v12m-16 8v12m0-32v12m-4 4h-8m24 21h-24m24-42h-24m-4 25v12m0-32v12m207 9 6 11m-16-11-6 11m16-21 6-11m-16 11-6-11m23 16h-8m12 4v12m0-32v12m-16 8v12m0-32v12m-4 4h-8m24 21h-24m24-42h-24m-4 25v12m0-32v12m-41 9 6 11m-16-11-6 11m16-21 6-11m-16 11-6-11m23 16h-8m12 4v12m0-32v12m-16 8v12m0-32v12m-4 4h-8m24 21h-24m24-42h-24m-4 25v12m0-32v12m-41 9 6 11m-16-11-6 11m16-21 6-11m-16 11-6-11m23 16h-8m12 4v12m0-32v12m-16 8v12m0-32v12m-4 4h-8m24 21h-24m24-42h-24m-4 25v12m0-32v12m-103 9 6 11m-16-11-6 11m16-21 6-11m-16 11-6-11m23 16h-8m12 4v12m0-32v12m-16 8v12m0-32v12m-4 4h-8m24 21h-24m24-42h-24m-4 25v12m0-32v12"/></g></svg>