<svg xmlns="http://www.w3.org/2000/svg" viewBox="0 0 348 348" fill="none" version="1.1" id="svg851"><style id="style859"/><path d="M5.079 5.776h336.913v337.67H5.08z" stroke-width="2" stroke="#000" id="path847"/><path d="M282.734 40.554c0-8.376 6.966-15.165 15.56-15.165 4.126 0 8.084 1.597 11.001 4.441 2.918 2.844 4.558 6.702 4.558 10.724 0 8.376-6.966 15.165-15.56 15.165-8.593 0-15.559-6.79-15.559-15.165z" stroke-width="2" stroke="#000" id="path849"/><rect id="rect861" width="232.793" height="143.874" x="22.992" y="26.467" rx="0" fill="none" fill-opacity="1" stroke="#000" stroke-width="1.931" stroke-opacity="1"/><rect id="rect863" width="168.29" height="98.694" x="54.198" y="48.219" rx="0" fill="#000" fill-opacity="1" stroke="#000" stroke-width="2.189" stroke-miterlimit="4" stroke-dasharray="none" stroke-opacity="1"/><circle id="path865" cx="38.478" cy="55.417" r="7.131" fill="none" fill-opacity="1" stroke="#000" stroke-width="1.825" stroke-miterlimit="4" stroke-dasharray="none" stroke-opacity="1"/><circle id="circle867" cx="38.478" cy="140.379" r="7.131" fill="none" fill-opacity="1" stroke="#000" stroke-width="1.825" stroke-miterlimit="4" stroke-dasharray="none" stroke-opacity="1"/><circle id="circle869" cx="239.298" cy="55.417" r="7.131" fill="none" fill-opacity="1" stroke="#000" stroke-width="1.825" stroke-miterlimit="4" stroke-dasharray="none" stroke-opacity="1"/><circle id="circle871" cx="239.298" cy="140.379" r="7.131" fill="none" fill-opacity="1" stroke="#000" stroke-width="1.825" stroke-miterlimit="4" stroke-dasharray="none" stroke-opacity="1"/><rect id="rect873" width="47.742" height="191.113" x="274.57" y="132.533" rx="0" fill="none" fill-opacity="1" stroke="#000" stroke-width="1.938" stroke-miterlimit="4" stroke-dasharray="none" stroke-opacity="1"/><path id="rect875" fill="none" fill-opacity="1" stroke="#000" stroke-width="2.169" stroke-miterlimit="4" stroke-dasharray="none" stroke-opacity="1" d="M283.316 142.183h30.181v20.842h-30.181z"/><path id="rect877" fill="none" fill-opacity="1" stroke="#000" stroke-width="2.169" stroke-miterlimit="4" stroke-dasharray="none" stroke-opacity="1" d="M283.316 180.057h30.181v20.842h-30.181z"/><path id="rect879" fill="none" fill-opacity="1" stroke="#000" stroke-width="2.169" stroke-miterlimit="4" stroke-dasharray="none" stroke-opacity="1" d="M283.316 217.931h30.181v20.842h-30.181z"/><path id="rect881" fill="none" fill-opacity="1" stroke="#000" stroke-width="2.169" stroke-miterlimit="4" stroke-dasharray="none" stroke-opacity="1" d="M283.316 255.805h30.181v20.842h-30.181z"/><path id="rect883" fill="none" fill-opacity="1" stroke="#000" stroke-width="2.169" stroke-miterlimit="4" stroke-dasharray="none" stroke-opacity="1" d="M283.316 293.679h30.181v20.842h-30.181z"/><path id="rect885" d="M23.026 212.884h232.87v111.22H23.025z" fill="none" fill-opacity="1" stroke="#000" stroke-width="1.938" stroke-miterlimit="4" stroke-dasharray="none" stroke-opacity="1"/><path id="rect887" d="M33.03 223.323h45.43v90.343H33.03z" fill="none" fill-opacity="1" stroke="#000" stroke-width="1.962" stroke-miterlimit="4" stroke-dasharray="none" stroke-opacity="1"/><path id="rect889" d="M88.389 223.323h45.43v90.343h-45.43z" fill="none" fill-opacity="1" stroke="#000" stroke-width="1.962" stroke-miterlimit="4" stroke-dasharray="none" stroke-opacity="1"/><path id="rect891" d="M143.747 223.323h45.43v90.343h-45.43z" fill="none" fill-opacity="1" stroke="#000" stroke-width="1.962" stroke-miterlimit="4" stroke-dasharray="none" stroke-opacity="1"/><path id="rect893" d="M199.106 223.323h45.429v90.343h-45.43z" fill="none" fill-opacity="1" stroke="#000" stroke-width="1.962" stroke-miterlimit="4" stroke-dasharray="none" stroke-opacity="1"/><g aria-label="1" id="text897" style="line-height:1.25;-inkscape-font-specification:'Arial Rounded MT Bold, '" font-size="74.554" font-family="Arial Rounded MT Bold" fill="#000" stroke-width="1.864"><path d="M59.09 287.47v-33.127q-9.247 7.098-12.45 7.098-1.53 0-2.73-1.201-1.166-1.238-1.166-2.84 0-1.856 1.165-2.73 1.165-.873 4.114-2.257 4.405-2.075 7.026-4.368 2.657-2.294 4.696-5.133 2.038-2.84 2.657-3.495.619-.655 2.33-.655 1.93 0 3.094 1.493 1.165 1.492 1.165 4.113v41.682q0 7.317-4.987 7.317-2.22 0-3.568-1.492-1.347-1.493-1.347-4.405z" id="path916" stroke-width="1.864"/></g><g aria-label="2" id="text901" style="line-height:1.25;-inkscape-font-specification:'Arial Rounded MT Bold, '" font-size="74.554" font-family="Arial Rounded MT Bold" fill="#000" stroke-width="1.864"><path d="M104.685 283.866h19.002q2.84 0 4.332 1.165 1.493 1.165 1.493 3.167 0 1.784-1.202 3.021-1.165 1.238-3.567 1.238H97.95q-2.73 0-4.26-1.493-1.528-1.528-1.528-3.567 0-1.31.983-3.458.983-2.185 2.147-3.422 4.842-5.024 8.737-8.592 3.895-3.603 5.57-4.732 2.985-2.111 4.95-4.223 2.003-2.148 3.022-4.368 1.056-2.257 1.056-4.405 0-2.33-1.128-4.15-1.093-1.857-3.022-2.876-1.893-1.02-4.15-1.02-4.769 0-7.499 4.187-.364.546-1.238 2.985-.837 2.44-1.93 3.75-1.055 1.31-3.13 1.31-1.82 0-3.021-1.2-1.202-1.202-1.202-3.277 0-2.512 1.129-5.242 1.128-2.73 3.349-4.951 2.257-2.22 5.679-3.568 3.458-1.383 8.082-1.383 5.57 0 9.5 1.747 2.549 1.165 4.478 3.204 1.93 2.038 2.985 4.732 1.093 2.658 1.093 5.534 0 4.514-2.257 8.227-2.221 3.677-4.55 5.788-2.33 2.075-7.828 6.553-5.46 4.477-7.499 6.953-.873.982-1.783 2.366z" id="path919" stroke-width="1.864"/></g><g aria-label="3" id="text905" style="line-height:1.25;-inkscape-font-specification:'Arial Rounded MT Bold, '" font-size="74.554" font-family="Arial Rounded MT Bold" fill="#000" stroke-width="1.864"><path d="M164.47 260.24q3.35 0 5.752-1.966 2.44-1.966 2.44-5.642 0-2.803-1.93-4.806-1.93-2.038-5.206-2.038-2.22 0-3.677.619-1.42.619-2.257 1.638-.837 1.02-1.601 2.62-.728 1.603-1.347 3.022-.364.765-1.31 1.202-.947.437-2.185.437-1.456 0-2.694-1.165-1.201-1.202-1.201-3.167 0-1.893 1.128-3.968 1.165-2.112 3.35-4.005 2.22-1.893 5.496-3.021 3.277-1.165 7.317-1.165 3.532 0 6.444.983 2.912.946 5.06 2.766 2.148 1.82 3.24 4.223 1.092 2.403 1.092 5.17 0 3.64-1.602 6.26-1.565 2.585-4.514 5.06 2.84 1.53 4.769 3.496 1.966 1.965 2.949 4.368.983 2.366.983 5.133 0 3.313-1.347 6.407-1.31 3.094-3.895 5.533-2.585 2.403-6.153 3.786-3.53 1.347-7.826 1.347-4.369 0-7.827-1.565-3.458-1.566-5.715-3.895-2.221-2.367-3.386-4.878-1.128-2.512-1.128-4.15 0-2.112 1.346-3.386 1.384-1.31 3.422-1.31 1.02 0 1.966.618.947.583 1.238 1.42 1.893 5.06 4.04 7.536 2.185 2.439 6.116 2.439 2.257 0 4.332-1.092 2.112-1.129 3.459-3.313 1.383-2.184 1.383-5.06 0-4.26-2.33-6.662-2.33-2.44-6.48-2.44-.728 0-2.257.147-1.528.145-1.965.145-2.003 0-3.095-.983-1.092-1.02-1.092-2.803 0-1.747 1.31-2.803 1.311-1.092 3.896-1.092z" id="path922" stroke-width="1.864"/></g><g aria-label="1729" id="text909" style="line-height:1.25;-inkscape-font-specification:'Arial Rounded MT Bold, '" font-size="17.333" font-family="Arial Rounded MT Bold" fill="#000" stroke-width="1.864"><path d="M206.34 273.298v-7.702q-2.15 1.65-2.894 1.65-.356 0-.635-.28-.271-.287-.271-.66 0-.431.27-.634.272-.203.957-.525 1.024-.482 1.634-1.015.618-.534 1.091-1.194.474-.66.618-.812.144-.153.542-.153.449 0 .72.347.27.347.27.957v9.69q0 1.702-1.16 1.702-.516 0-.829-.347-.313-.347-.313-1.024z" id="path925"/><path d="M214.448 262.168h5.637q.812 0 1.176.254.364.254.364.838 0 .355-.431.94-.424.583-.974 1.294-.541.703-1.125 1.752-.576 1.05-1.058 2.565-.203.668-.288 1.108-.085.44-.186 1.143-.102.702-.178 1.075-.178.863-.508 1.202-.321.33-.863.33-.516 0-.83-.356-.313-.364-.313-1.066 0-.542.229-1.473.228-.93.745-2.226.516-1.303 1.286-2.666.779-1.37 1.845-2.725h-4.528q-.71 0-1.066-.254-.347-.262-.347-.813 0-.583.372-.753.373-.169 1.041-.169z" id="path927"/><path d="M225.916 272.46h4.418q.66 0 1.007.27.347.271.347.737 0 .414-.279.702-.27.288-.83.288h-6.228q-.635 0-.99-.347-.356-.355-.356-.83 0-.304.228-.803.229-.508.5-.796 1.125-1.168 2.03-1.997.907-.838 1.296-1.1.694-.492 1.15-.982.466-.5.703-1.016.246-.525.246-1.024 0-.542-.263-.965-.253-.432-.702-.669-.44-.237-.965-.237-1.109 0-1.743.974-.085.127-.288.694-.195.567-.449.871-.245.305-.728.305-.423 0-.702-.28-.28-.278-.28-.76 0-.585.263-1.22.262-.634.779-1.15.524-.517 1.32-.83.804-.322 1.879-.322 1.295 0 2.209.407.592.27 1.04.744.45.474.695 1.1.254.618.254 1.287 0 1.05-.525 1.913-.516.855-1.058 1.346-.542.482-1.82 1.523-1.27 1.041-1.743 1.616-.203.229-.415.55z" id="path929"/><path d="M239.407 268.896q-.558.66-1.252 1-.686.33-1.524.33-.795 0-1.49-.305-.685-.314-1.193-.864-.5-.558-.77-1.295-.27-.744-.27-1.557 0-.872.304-1.65.305-.787.872-1.363.567-.575 1.345-.897.787-.322 1.735-.322 1.092 0 1.947.398t1.439 1.16q.584.753.897 1.904.313 1.15.313 2.607 0 1.625-.33 2.869-.33 1.235-.965 2.082-.626.838-1.506 1.252-.88.407-1.998.407-1.1 0-1.913-.415-.812-.423-1.235-1.041-.423-.626-.423-1.202 0-.355.262-.635.262-.279.669-.279.372 0 .668.212.296.203.449.617.186.508.618.821.431.305.973.305.482 0 .914-.245.432-.246.736-.694.61-.906.728-3.2zm-.195-2.59q0-.575-.16-1.057-.153-.491-.44-.847-.28-.355-.678-.558-.389-.203-.854-.203-.804 0-1.363.694-.559.685-.559 1.82 0 1.125.559 1.794.559.668 1.413.668.525 0 1-.27.482-.28.778-.805.304-.524.304-1.235z" id="path931"/></g><g aria-label="8" id="text936" style="line-height:1.25;-inkscape-font-specification:'Arial Rounded MT Bold, '" font-size="70.8" font-family="Arial Rounded MT Bold" fill="#fff" stroke-width="1.77"><path d="M122.484 83.81q0-3.457 1.867-6.499 1.901-3.077 5.531-4.909 3.664-1.832 8.539-1.832 4.114 0 7.225 1.071 3.111 1.072 5.185 2.973 2.075 1.867 3.077 4.253 1.003 2.35 1.003 5.012 0 3.388-1.763 6.05-1.729 2.662-5.186 4.356 2.939 1.14 4.875 3.008 1.935 1.832 2.903 4.286 1.003 2.42 1.003 5.393 0 4.356-2.109 7.917-2.109 3.526-6.188 5.531-4.08 2.005-9.61 2.005-5.739 0-9.818-2.005-4.08-2.005-6.154-5.497-2.074-3.526-2.074-7.882 0-9.3 8.78-12.756-7.086-3.319-7.086-10.475zm24.787 22.886q0-2.697-1.106-4.702-1.107-2.005-3.112-3.077-2.005-1.071-4.494-1.071-3.526 0-5.911 2.35-2.386 2.351-2.386 6.569 0 2.696 1.106 4.77 1.141 2.04 3.077 3.18 1.936 1.107 4.321 1.107 2.42 0 4.356-1.14 1.936-1.142 3.043-3.216 1.106-2.074 1.106-4.77zm-8.643-29.523q-3.25 0-5.254 2.04-1.971 2.004-1.971 5.185 0 2.938 2.04 4.909 2.04 1.936 5.254 1.936 1.625 0 2.939-.519 1.348-.518 2.281-1.417.968-.934 1.487-2.178.519-1.28.519-2.8 0-2.04-.934-3.665-.899-1.625-2.558-2.558-1.66-.933-3.803-.933z" id="path938" stroke-width="1.77"/></g></svg>