<svg viewBox="0 0 348 348" fill="none" xmlns="http://www.w3.org/2000/svg"><path d="M5 5.8h337v337.6H5z" stroke-width="2" stroke="#000"/><path d="M282.7 40.6c0-8.4 7-15.2 15.6-15.2 4.1 0 8 1.6 11 4.4a15 15 0 0 1 4.6 10.8c0 8.3-7 15.1-15.6 15.1s-15.6-6.8-15.6-15.1z" stroke-width="2" stroke="#000"/><path stroke="#000" fill="#fff" stroke-width="2" d="M20.5 21.5h156.2v37.1H20.5zM15.5 78h314.6v35H15.5zM20.7 134.3h26.8v37.2H20.7zM55.2 134.3H82v37.2H55.2zM89.5 134.3h26.8v37.2H89.5zM123.9 134.3h26.8v37.2h-26.8zM158.3 134.3h26.8v37.2h-26.8zM192.7 134.3h26.8v37.2h-26.8zM227.1 134.3h26.8v37.2h-26.8zM261.5 134.3h26.8v37.2h-26.8zM295.9 134.3h26.8v37.2h-26.8zM20.7 184.9h26.8v37.2H20.7zM55.2 185H82v37.2H55.2zM89.5 185h26.8v37.2H89.5zM123.9 185h26.8v37.2h-26.8zM158.3 185h26.8v37.2h-26.8zM192.7 185h26.8v37.2h-26.8zM227.1 185h26.8v37.2h-26.8zM261.5 185h26.8v37.2h-26.8zM295.9 185h26.8v37.2h-26.8zM20.7 236.4h26.8v37.2H20.7zM55.2 236.4H82v37.2H55.2zM89.5 236.4h26.8v37.2H89.5zM123.9 236.4h26.8v37.2h-26.8zM158.3 236.4h26.8v37.2h-26.8zM192.7 236.4h26.8v37.2h-26.8zM227.1 236.4h26.8v37.2h-26.8zM261.5 236.4h26.8v37.2h-26.8zM295.9 236.4h26.8v37.2h-26.8zM55.2 286.4H82v37.2H55.2zM89.5 286.4h26.8v37.2H89.5zM123.9 286.4h26.8v37.2h-26.8zM158.3 286.4h26.8v37.2h-26.8zM192.7 286.4h26.8v37.2h-26.8zM227.1 286.4h26.8v37.2h-26.8zM261.5 286.4h26.8v37.2h-26.8z"/><g aria-label="CONFIRM" fill="#333"><path d="m90.5 36.9 1 .2q-.3 1.4-1.2 2.2-.9.7-2.2.7-1.4 0-2.3-.6-.8-.5-1.3-1.6-.4-1-.4-2.3 0-1.3.5-2.3.5-1 1.4-1.5 1-.5 2-.5 1.4 0 2.2.6 1 .7 1.2 1.9l-1 .2q-.4-1-1-1.3-.5-.5-1.3-.5-1 0-1.7.5-.6.5-1 1.3l-.2 1.6q0 1.1.3 2 .4.7 1 1.1.7.4 1.5.4 1 0 1.6-.5.6-.6.9-1.6zM92.6 35.7q0-2.1 1.2-3.3 1.1-1.2 3-1.2 1.1 0 2 .5 1 .6 1.5 1.6t.5 2.3q0 1.3-.5 2.3-.6 1-1.5 1.6-1 .5-2 .5-1.3 0-2.2-.6-1-.6-1.5-1.6t-.5-2.1zm1.2 0q0 1.6.8 2.4.9 1 2.1 1 1.3 0 2.1-1 .8-.9.8-2.5 0-1-.3-1.8-.4-.8-1-1.2-.7-.5-1.6-.5-1.2 0-2 .9-.9.8-.9 2.7zM102.2 39.8v-8.5h1.2l4.5 6.7v-6.7h1v8.5h-1.1l-4.5-6.7v6.7zM110.9 39.8v-8.5h5.7v1H112V35h4v1h-4v3.8zM118.3 39.8v-8.5h1.1v8.5zM121.4 39.8v-8.5h3.8q1.1 0 1.7.3.6.2 1 .8.3.5.3 1.2 0 1-.6 1.6-.5.6-1.8.8l.7.4q.5.4 1 1.1l1.4 2.3h-1.4l-1.1-1.7-.8-1.2-.6-.6-.5-.2h-1.9v3.7zm1.2-4.7h2.4q.7 0 1.2-.2.4-.1.6-.5.3-.3.3-.8 0-.6-.5-1-.4-.3-1.4-.3h-2.6zM130 39.8v-8.5h1.7l2 6 .4 1.3.4-1.3 2-6h1.6v8.5h-1v-7l-2.6 7h-1l-2.4-7.2v7.2z" transform="matrix(1.56579 0 0 1.54839 -76 -15.3)"/></g><path stroke="#000" paint-order="fill" fill="#fff" stroke-width="2" d="M39.8 78h-.1v34h.1zM64 78h-.1v34h.1zM88.2 78h-.1v34h.1zM112.4 78h-.1v34h.1zM136.6 78h-.1v34h.1zM160.8 78h-.1v34h.1zM185 78h-.1v34h.1zM209.2 78h-.1v34h.1zM233.4 78h-.1v34h.1zM257.6 78h-.1v34h.1zM281.8 78h-.1v34h.1zM306 78h-.1v34h.1z"/><path stroke="#000" fill="#fff" stroke-width="2" d="M192.5 21.5h76.9v37.1h-76.9z"/><g aria-label="CLEAR" fill="#333"><path d="m90.5 36.9 1 .2q-.3 1.4-1.2 2.2-.9.7-2.2.7-1.4 0-2.3-.6-.8-.5-1.3-1.6-.4-1-.4-2.3 0-1.3.5-2.3.5-1 1.4-1.5 1-.5 2-.5 1.4 0 2.2.6 1 .7 1.2 1.9l-1 .2q-.4-1-1-1.3-.5-.5-1.3-.5-1 0-1.7.5-.6.5-1 1.3l-.2 1.6q0 1.1.3 2 .4.7 1 1.1.7.4 1.5.4 1 0 1.6-.5.6-.6.9-1.6zM93 39.8v-8.5h1v7.5h4.3v1zM99.6 39.8v-8.5h6.2v1h-5V35h4.7v1h-4.7v3h5.2v1zM106.6 39.8l3.3-8.5h1.2l3.5 8.5h-1.3l-1-2.5h-3.6l-.9 2.5zm2.5-3.5h2.8l-.8-2.3-.6-1.8-.5 1.6zM115.5 39.8v-8.5h3.8q1.1 0 1.7.3.6.2 1 .8.3.5.3 1.2 0 1-.6 1.6-.6.6-1.8.8l.7.4q.5.4 1 1.1l1.4 2.3h-1.4l-1.1-1.7-.9-1.2-.5-.6-.5-.2h-2v3.7zm1.1-4.7h2.4q.8 0 1.3-.2.4-.1.6-.5.2-.3.2-.8 0-.6-.4-1-.4-.3-1.4-.3h-2.7z" transform="matrix(1.56579 0 0 1.54839 69 -15.3)"/></g></svg>