<svg xmlns="http://www.w3.org/2000/svg" xmlns:xlink="http://www.w3.org/1999/xlink" fill="none" font-family="Arial" viewBox="0 0 348 348">
    <defs>
        <linearGradient id="a">
            <stop offset="0"/>
            <stop offset="1" stop-opacity="0"/>
        </linearGradient>
        <linearGradient id="b" x1="24.185" x2="168.712" y1="143.314" y2="143.314" gradientUnits="userSpaceOnUse" xlink:href="#a"/>
    </defs>
    <path stroke="#000" stroke-width="2" d="M5 5.8h337v337.6H5z"/>
    <path stroke="#000" stroke-width="2" d="M282.7 40.6c0-8.4 7-15.2 15.6-15.2 4.1 0 8 1.6 11 4.4a15 15 0 0 1 4.6 10.8c0 8.3-7 15.1-15.6 15.1s-15.6-6.8-15.6-15.1z"/>
    <path fill="#000" stroke="#000" d="M63.406 299.652v-22.725h219.576v45.518H63.406v-22.793z"/>
    <text style="line-height:125%;text-align:start" x="120.241" y="308.32" fill="#000" stroke="#000" font-family="'Keep on Truckin'FW';-inkscape-font-specification:'Keep on Truckin'FW, Normal'" font-size="40" font-weight="400">
        <tspan style="line-height:125%;-inkscape-font-specification:sans-serif;text-align:start" x="120.241" y="308.32" fill="#fff" stroke="none" font-family="sans-serif" font-size="30">&lt;JOB&gt;</tspan>
    </text>
    <path fill="#fff" stroke="#000" stroke-width="1.054" d="M16.964 222.576v-39.714h312.29v79.546H16.963v-39.832z"/>
    <text x="33.284" y="272.739" fill="#000" stroke="#000" font-size="45.603" font-weight="400" transform="scale(1.14195 .8757)" style="line-height:125%;text-align:start">
        <tspan x="33.284" y="272.739" font-family="sans-serif" font-size="51.304" style="line-height:125%;-inkscape-font-specification:sans-serif;text-align:start">&lt;PLATE&gt;</tspan>
    </text>
    <path fill="#fff" stroke="#000" stroke-width=".29" d="M18 299.206v-22.518h41.712v45.104H18v-22.586z"/>
    <path fill="#fff" stroke="#000" stroke-width=".29" d="M288 299.206v-22.518h41.712v45.104H288v-22.586z"/>
    <text style="line-height:125%" x="21.381" y="313.28" fill="#000" stroke="#000" font-family="sans-serif" font-size="40" font-weight="400" letter-spacing="0" word-spacing="0">
        <tspan x="21.381" y="313.28">&lt;</tspan>
    </text>
    <text x="292.61" y="311.771" fill="#000" stroke="#000" font-family="sans-serif" font-size="40" font-weight="400" letter-spacing="0" word-spacing="0" style="line-height:125%">
        <tspan x="292.61" y="311.771">&gt;</tspan>
    </text>
    <path fill="#fff" stroke="#000" stroke-width="1.08" d="M15.934 94.268V16.046h166.288v156.678H15.934V94.268z"/>
    <circle cx="213.323" cy="156.146" r="14.809" fill="#fff" stroke="#000" stroke-miterlimit="10" stroke-width="1.578"/>
    <circle cx="214.366" cy="116.524" r="14.809" fill="#fff" stroke="#000" stroke-miterlimit="10" stroke-width="1.578"/>
    <circle cx="214.366" cy="75.86" r="14.809" fill="#fff" stroke="#000" stroke-miterlimit="10" stroke-width="1.578"/>
    <circle cx="214.366" cy="33.11" r="14.809" fill="#fff" stroke="#000" stroke-miterlimit="10" stroke-width="1.578"/>
    <path fill="#fff" stroke="#000" stroke-width=".552" d="M261.743 118.812V67.916h66.719V169.86h-66.719v-51.048z"/>
    <text style="line-height:125%;text-align:start" x="313.353" y="113.397" fill="#000" stroke="#000" font-size="59.405" font-weight="400" transform="scale(.87664 1.14072)">
        <tspan style="line-height:125%;-inkscape-font-specification:sans-serif;text-align:start" x="313.353" y="113.397" font-family="sans-serif" font-size="24.425">FIX!</tspan>
    </text>
</svg>
