<?xml version="1.0" encoding="UTF-8" standalone="no"?>
<svg
   xmlns:dc="http://purl.org/dc/elements/1.1/"
   xmlns:cc="http://creativecommons.org/ns#"
   xmlns:rdf="http://www.w3.org/1999/02/22-rdf-syntax-ns#"
   xmlns:svg="http://www.w3.org/2000/svg"
   xmlns="http://www.w3.org/2000/svg"
   xmlns:sodipodi="http://sodipodi.sourceforge.net/DTD/sodipodi-0.dtd"
   xmlns:inkscape="http://www.inkscape.org/namespaces/inkscape"
   version="1.1"
   viewBox="0.0 0.0 348.0 348.0"
   fill="none"
   stroke="none"
   stroke-linecap="square"
   stroke-miterlimit="10"
   id="svg19"
   sodipodi:docname="Component.svg"
   inkscape:version="0.92.3 (2405546, 2018-03-11)">
  <metadata
     id="metadata25">
    <rdf:RDF>
      <cc:Work
         rdf:about="">
        <dc:format>image/svg+xml</dc:format>
        <dc:type
           rdf:resource="http://purl.org/dc/dcmitype/StillImage" />
      </cc:Work>
    </rdf:RDF>
  </metadata>
  <defs
     id="defs23">
    <pattern
       y="0"
       x="0"
       height="6"
       width="6"
       patternUnits="userSpaceOnUse"
       id="EMFhbasepattern" />
  </defs>
  <sodipodi:namedview
     pagecolor="#ffffff"
     bordercolor="#666666"
     borderopacity="1"
     objecttolerance="10"
     gridtolerance="10"
     guidetolerance="10"
     inkscape:pageopacity="0"
     inkscape:pageshadow="2"
     inkscape:window-width="1920"
     inkscape:window-height="1017"
     id="namedview21"
     showgrid="false"
     inkscape:zoom="1.9181287"
     inkscape:cx="104.25062"
     inkscape:cy="151.34032"
     inkscape:window-x="1912"
     inkscape:window-y="-8"
     inkscape:window-maximized="1"
     inkscape:current-layer="svg19" />
  <clipPath
     id="p.0">
    <path
       d="m0 0l348.0 0l0 348.0l-348.0 0l0 -348.0z"
       clip-rule="nonzero"
       id="path2" />
  </clipPath>
  <g
     clip-path="url(#p.0)"
     id="g17">
    <path
       d="m0 0l348.0 0l0 348.0l-348.0 0z"
       id="path5"
       fill-rule="nonzero"
       fill-opacity="0.0"
       fill="#000000" />
    <path
       d="m-6.0 0l348.0 0l0 347.9685l-348.0 0z"
       id="path7"
       fill-rule="nonzero"
       fill="#ffffff" />
    <path
       d="m5.07874 5.7758217l336.9134 0l0 337.6693l-336.9134 0z"
       id="path9"
       fill-rule="nonzero"
       fill-opacity="0.0"
       fill="#000000" />
    <path
       d="m5.07874 5.7758217l336.9134 0l0 337.6693l-336.9134 0z"
       id="path11"
       stroke-linejoin="round"
       stroke-linecap="butt"
       stroke-width="2.0"
       stroke="#000000"
       fill-rule="nonzero" />
    <path
       d="m282.73444 40.553925l0 0c0 -8.375591 6.966034 -15.165352 15.5590515 -15.165352l0 0c4.126526 0 8.084015 1.5977726 11.001923 4.441828c2.9178772 2.844057 4.557129 6.7014217 4.557129 10.723524l0 0c0 8.375595 -6.9660034 15.165356 -15.5590515 15.165356l0 0c-8.593018 0 -15.5590515 -6.7897606 -15.5590515 -15.165356z"
       id="path13"
       fill-rule="nonzero"
       fill="#ffffff" />
    <path
       d="m282.73444 40.553925l0 0c0 -8.375591 6.966034 -15.165352 15.5590515 -15.165352l0 0c4.126526 0 8.084015 1.5977726 11.001923 4.441828c2.9178772 2.844057 4.557129 6.7014217 4.557129 10.723524l0 0c0 8.375595 -6.9660034 15.165356 -15.5590515 15.165356l0 0c-8.593018 0 -15.5590515 -6.7897606 -15.5590515 -15.165356z"
       id="path15"
       stroke-linejoin="round"
       stroke-linecap="butt"
       stroke-width="2.0"
       stroke="#000000"
       fill-rule="nonzero" />
  </g>
  <path
     id="path4612"
     d="m 194.09017,176.21187 c 0,11.29697 -9.10675,20.40372 -20.40372,20.40372 -11.29698,0 -20.46136,-9.10675 -20.46136,-20.40372 0,-11.29698 9.16438,-20.46137 20.46136,-20.46137 11.29697,0 20.40372,9.16439 20.40372,20.46137 z"
     style="fill:none;stroke:#000000;stroke-width:0.11527529px;stroke-linecap:butt;stroke-linejoin:miter;stroke-miterlimit:4;stroke-dasharray:none;stroke-opacity:1"
     inkscape:connector-curvature="0" />
  <path
     id="path4614"
     d="M 24.923686,32.175389 H 101.29357 V 106.35505 H 24.923686 Z"
     style="fill:none;stroke:#000000;stroke-width:3.6311717px;stroke-linecap:butt;stroke-linejoin:miter;stroke-miterlimit:4;stroke-dasharray:none;stroke-opacity:1"
     inkscape:connector-curvature="0" />
  <path
     id="path4616"
     d="m 232.64975,73.271039 c 0,32.622901 -26.39804,59.020941 -58.9633,59.020941 -32.56527,0 -59.02095,-26.39804 -59.02095,-59.020941 0,-32.565271 26.45568,-58.963312 59.02095,-58.963312 32.56526,0 58.9633,26.398041 58.9633,58.963312 z"
     style="fill:none;stroke:#000000;stroke-width:3.05479527px;stroke-linecap:butt;stroke-linejoin:miter;stroke-miterlimit:4;stroke-dasharray:none;stroke-opacity:1"
     inkscape:connector-curvature="0" />
  <path
     id="path4618"
     d="m 129.76656,279.09506 c 0,32.62291 -26.39804,59.02094 -59.020949,59.02094 -32.565263,0 -58.963304,-26.39803 -58.963304,-59.02094 0,-32.56527 26.398041,-58.96331 58.963304,-58.96331 32.622909,0 59.020949,26.39804 59.020949,58.96331 z"
     style="fill:none;stroke:#000000;stroke-width:3.05479527px;stroke-linecap:butt;stroke-linejoin:miter;stroke-miterlimit:4;stroke-dasharray:none;stroke-opacity:1"
     inkscape:connector-curvature="0" />
  <path
     id="path4620"
     d="m 335.59058,279.09506 c 0,32.62291 -26.39804,59.02094 -59.02094,59.02094 -32.56527,0 -58.96331,-26.39803 -58.96331,-59.02094 0,-32.56527 26.39804,-58.96331 58.96331,-58.96331 32.6229,0 59.02094,26.39804 59.02094,58.96331 z"
     style="fill:none;stroke:#000000;stroke-width:3.05479527px;stroke-linecap:butt;stroke-linejoin:miter;stroke-miterlimit:4;stroke-dasharray:none;stroke-opacity:1"
     inkscape:connector-curvature="0" />
  <path
     id="path4622"
     d="m 137.7782,57.017212 h 71.8165 v 32.507642 h -71.8165 z"
     style="fill:none;stroke:#000000;stroke-width:3.6311717px;stroke-linecap:butt;stroke-linejoin:miter;stroke-miterlimit:4;stroke-dasharray:none;stroke-opacity:1"
     inkscape:connector-curvature="0" />
  <path
     id="path4624"
     d="m 34.837359,262.84125 h 71.816511 v 32.56527 H 34.837359 Z"
     style="fill:none;stroke:#000000;stroke-width:3.6311717px;stroke-linecap:butt;stroke-linejoin:miter;stroke-miterlimit:4;stroke-dasharray:none;stroke-opacity:1"
     inkscape:connector-curvature="0" />
  <path
     id="path4626"
     d="m 240.71902,262.84125 h 71.75887 v 32.56527 h -71.75887 z"
     style="fill:none;stroke:#000000;stroke-width:3.6311717px;stroke-linecap:butt;stroke-linejoin:miter;stroke-miterlimit:4;stroke-dasharray:none;stroke-opacity:1"
     inkscape:connector-curvature="0" />
  <path
     id="path4628"
     d="m 213.97516,200.30441 c 0,23.05505 -18.67459,41.72965 -41.72966,41.72965 -23.05505,0 -41.72965,-18.6746 -41.72965,-41.72965 0,-23.05507 18.6746,-41.72966 41.72965,-41.72966 23.05507,0 41.72966,18.67459 41.72966,41.72966 z"
     style="fill:none;stroke:#000000;stroke-width:3.6311717px;stroke-linecap:butt;stroke-linejoin:miter;stroke-miterlimit:4;stroke-dasharray:none;stroke-opacity:1"
     inkscape:connector-curvature="0" />
  <path
     id="path4630"
     d="m 206.88573,200.30441 c 0,19.19332 -15.50453,34.69785 -34.64023,34.69785 -19.13569,0 -34.69785,-15.50453 -34.69785,-34.69785 0,-19.1357 15.56216,-34.64023 34.69785,-34.64023 19.1357,0 34.64023,15.50453 34.64023,34.64023 z"
     style="fill:none;stroke:#000000;stroke-width:2.99715757px;stroke-linecap:butt;stroke-linejoin:miter;stroke-miterlimit:4;stroke-dasharray:none;stroke-opacity:1"
     inkscape:connector-curvature="0" />
  <path
     id="path4632"
     d="m 137.72056,200.30441 c 0,5.76375 -4.72628,10.4324 -10.49005,10.4324 -5.70612,0 -10.43242,-4.66865 -10.43242,-10.4324 0,-5.76377 4.7263,-10.43242 10.43242,-10.43242 5.76377,0 10.49005,4.66865 10.49005,10.43242 z"
     style="fill:#000000;fill-opacity:1;fill-rule:evenodd;stroke:#000000;stroke-width:3.6311717px;stroke-linecap:butt;stroke-linejoin:miter;stroke-miterlimit:4;stroke-dasharray:none;stroke-opacity:1"
     inkscape:connector-curvature="0" />
  <path
     id="path4634"
     d="m 182.67792,156.78798 c 0,5.76376 -4.66865,10.43241 -10.43242,10.43241 -5.76376,0 -10.4324,-4.66865 -10.4324,-10.43241 0,-5.76377 4.66864,-10.43241 10.4324,-10.43241 5.76377,0 10.43242,4.66864 10.43242,10.43241 z"
     style="fill:#000000;fill-opacity:1;fill-rule:evenodd;stroke:#000000;stroke-width:3.6311717px;stroke-linecap:butt;stroke-linejoin:miter;stroke-miterlimit:4;stroke-dasharray:none;stroke-opacity:1"
     inkscape:connector-curvature="0" />
  <path
     id="path4636"
     d="m 227.46237,200.30441 c 0,5.76375 -4.66865,10.4324 -10.43242,10.4324 -5.76376,0 -10.4324,-4.66865 -10.4324,-10.4324 0,-5.76377 4.66864,-10.43242 10.4324,-10.43242 5.76377,0 10.43242,4.66865 10.43242,10.43242 z"
     style="fill:#000000;fill-opacity:1;fill-rule:evenodd;stroke:#000000;stroke-width:3.6311717px;stroke-linecap:butt;stroke-linejoin:miter;stroke-miterlimit:4;stroke-dasharray:none;stroke-opacity:1"
     inkscape:connector-curvature="0" />
  <path
     id="path4638"
     d="m 182.67792,245.31941 c 0,5.76375 -4.66865,10.43241 -10.43242,10.43241 -5.76376,0 -10.4324,-4.66866 -10.4324,-10.43241 0,-5.76377 4.66864,-10.43242 10.4324,-10.43242 5.76377,0 10.43242,4.66865 10.43242,10.43242 z"
     style="fill:#000000;fill-opacity:1;fill-rule:evenodd;stroke:#000000;stroke-width:3.6311717px;stroke-linecap:butt;stroke-linejoin:miter;stroke-miterlimit:4;stroke-dasharray:none;stroke-opacity:1"
     inkscape:connector-curvature="0" />
  <path
     id="path4640"
     d="m 150.8043,232.17802 c 0,5.76376 -4.66864,10.43242 -10.43241,10.43242 -5.76376,0 -10.43242,-4.66866 -10.43242,-10.43242 0,-5.76377 4.66866,-10.43241 10.43242,-10.43241 5.76377,0 10.43241,4.66864 10.43241,10.43241 z"
     style="fill:#000000;fill-opacity:1;fill-rule:evenodd;stroke:#000000;stroke-width:3.6311717px;stroke-linecap:butt;stroke-linejoin:miter;stroke-miterlimit:4;stroke-dasharray:none;stroke-opacity:1"
     inkscape:connector-curvature="0" />
  <path
     id="path4642"
     d="m 151.38068,167.22039 c 0,5.76376 -4.66865,10.43242 -10.43241,10.43242 -5.76377,0 -10.43242,-4.66866 -10.43242,-10.43242 0,-5.76376 4.66865,-10.43241 10.43242,-10.43241 5.76376,0 10.43241,4.66865 10.43241,10.43241 z"
     style="fill:#000000;fill-opacity:1;fill-rule:evenodd;stroke:#000000;stroke-width:3.6311717px;stroke-linecap:butt;stroke-linejoin:miter;stroke-miterlimit:4;stroke-dasharray:none;stroke-opacity:1"
     inkscape:connector-curvature="0" />
  <path
     id="path4644"
     d="m 213.62933,168.43078 c 0,5.76377 -4.66865,10.43242 -10.4324,10.43242 -5.76377,0 -10.43242,-4.66865 -10.43242,-10.43242 0,-5.76376 4.66865,-10.43241 10.43242,-10.43241 5.76375,0 10.4324,4.66865 10.4324,10.43241 z"
     style="fill:#000000;fill-opacity:1;fill-rule:evenodd;stroke:#000000;stroke-width:3.6311717px;stroke-linecap:butt;stroke-linejoin:miter;stroke-miterlimit:4;stroke-dasharray:none;stroke-opacity:1"
     inkscape:connector-curvature="0" />
  <path
     id="path4646"
     d="m 216.22302,233.67661 c 0,5.76375 -4.66864,10.4324 -10.4324,10.4324 -5.76377,0 -10.43241,-4.66865 -10.43241,-10.4324 0,-5.76377 4.66864,-10.43242 10.43241,-10.43242 5.76376,0 10.4324,4.66865 10.4324,10.43242 z"
     style="fill:#000000;fill-opacity:1;fill-rule:evenodd;stroke:#000000;stroke-width:3.6311717px;stroke-linecap:butt;stroke-linejoin:miter;stroke-miterlimit:4;stroke-dasharray:none;stroke-opacity:1"
     inkscape:connector-curvature="0" />
  <path
     id="path4648"
     d="m 170.51637,160.24624 h 3.45826 v 80.17396 h -3.45826 z"
     style="fill:#000000;fill-opacity:1;fill-rule:evenodd;stroke:#000000;stroke-width:2.59369397px;stroke-linecap:butt;stroke-linejoin:miter;stroke-miterlimit:4;stroke-dasharray:none;stroke-opacity:1"
     inkscape:connector-curvature="0" />
  <path
     id="path4650"
     d="m 212.30367,198.57528 v 3.45824 h -80.17396 v -3.45824 z"
     style="fill:#000000;fill-opacity:1;fill-rule:evenodd;stroke:#000000;stroke-width:2.59369397px;stroke-linecap:butt;stroke-linejoin:miter;stroke-miterlimit:4;stroke-dasharray:none;stroke-opacity:1"
     inkscape:connector-curvature="0" />
  <path
     id="path4652"
     d="m 201.81362,227.45173 -2.47842,2.42078 -56.6578,-56.6578 2.42077,-2.47842 z"
     style="fill:#000000;fill-opacity:1;fill-rule:evenodd;stroke:#000000;stroke-width:2.59369397px;stroke-linecap:butt;stroke-linejoin:miter;stroke-miterlimit:4;stroke-dasharray:none;stroke-opacity:1"
     inkscape:connector-curvature="0" />
  <path
     id="path4654"
     d="m 147.98006,226.99064 -2.42078,-2.42079 56.65781,-56.71545 2.47841,2.47842 z"
     style="fill:#000000;fill-opacity:1;fill-rule:evenodd;stroke:#000000;stroke-width:2.59369397px;stroke-linecap:butt;stroke-linejoin:miter;stroke-miterlimit:4;stroke-dasharray:none;stroke-opacity:1"
     inkscape:connector-curvature="0" />
  <path
     id="path4656"
     d="M 24.923686,106.35505 H 60.659023 V 134.7704 H 24.923686 Z"
     style="fill:none;stroke:#000000;stroke-width:3.6311717px;stroke-linecap:butt;stroke-linejoin:miter;stroke-miterlimit:4;stroke-dasharray:none;stroke-opacity:1"
     inkscape:connector-curvature="0" />
  <path
     id="path4658"
     d="m 65.500585,106.52796 h 35.735335 v 28.35771 H 65.500585 Z"
     style="fill:none;stroke:#000000;stroke-width:3.6311717px;stroke-linecap:butt;stroke-linejoin:miter;stroke-miterlimit:4;stroke-dasharray:none;stroke-opacity:1"
     inkscape:connector-curvature="0" />
  <path
     id="path4660"
     d="m 36.105383,65.778143 h 22.709235 v 6.916519 H 36.105383 Z"
     style="fill:#000000;fill-opacity:1;fill-rule:nonzero;stroke:none;stroke-width:0.72047591"
     inkscape:connector-curvature="0" />
  <path
     id="path4662"
     d="m 67.34499,65.778143 h 22.709234 v 6.916519 H 67.34499 Z"
     style="fill:#000000;fill-opacity:1;fill-rule:nonzero;stroke:none;stroke-width:0.72047591"
     inkscape:connector-curvature="0" />
  <path
     id="path4664"
     d="m 146.65439,69.812779 h 22.76687 v 6.916508 h -22.76687 z"
     style="fill:#000000;fill-opacity:1;fill-rule:nonzero;stroke:none;stroke-width:0.72047591"
     inkscape:connector-curvature="0" />
  <path
     id="path4666"
     d="m 177.894,69.812779 h 22.76687 v 6.916508 H 177.894 Z"
     style="fill:#000000;fill-opacity:1;fill-rule:nonzero;stroke:none;stroke-width:0.72047591"
     inkscape:connector-curvature="0" />
  <path
     id="path4668"
     d="m 43.77119,275.6368 h 22.766873 v 6.91652 H 43.77119 Z"
     style="fill:#000000;fill-opacity:1;fill-rule:nonzero;stroke:none;stroke-width:0.72047591"
     inkscape:connector-curvature="0" />
  <path
     id="path4670"
     d="M 75.010796,275.6368 H 97.77766 v 6.91652 H 75.010796 Z"
     style="fill:#000000;fill-opacity:1;fill-rule:nonzero;stroke:none;stroke-width:0.72047591"
     inkscape:connector-curvature="0" />
  <path
     id="path4672"
     d="m 249.59522,275.6368 h 22.76687 v 6.91652 h -22.76687 z"
     style="fill:#000000;fill-opacity:1;fill-rule:nonzero;stroke:none;stroke-width:0.72047591"
     inkscape:connector-curvature="0" />
  <path
     id="path4674"
     d="m 280.83483,275.6368 h 22.76686 v 6.91652 h -22.76686 z"
     style="fill:#000000;fill-opacity:1;fill-rule:nonzero;stroke:none;stroke-width:0.72047591"
     inkscape:connector-curvature="0" />
  <circle
     style="opacity:1;fill:none;fill-opacity:1;fill-rule:evenodd;stroke:#000000;stroke-width:3.9060173;stroke-miterlimit:4;stroke-dasharray:none;stroke-dashoffset:0;stroke-opacity:1"
     id="path936"
     cx="157.77966"
     cy="108.06061"
     r="9.2155533" />
  <circle
     style="opacity:1;fill:none;fill-opacity:1;fill-rule:evenodd;stroke:#000000;stroke-width:3.9060173;stroke-miterlimit:4;stroke-dasharray:none;stroke-dashoffset:0;stroke-opacity:1"
     id="path936-8"
     cx="188.7256"
     cy="108.18293"
     r="9.2155533" />
  <circle
     style="opacity:1;fill:none;fill-opacity:1;fill-rule:evenodd;stroke:#000000;stroke-width:3.9060173;stroke-miterlimit:4;stroke-dasharray:none;stroke-dashoffset:0;stroke-opacity:1"
     id="path936-88"
     cx="55.950809"
     cy="244.19188"
     r="9.2155533" />
  <circle
     style="opacity:1;fill:none;fill-opacity:1;fill-rule:evenodd;stroke:#000000;stroke-width:3.9060173;stroke-miterlimit:4;stroke-dasharray:none;stroke-dashoffset:0;stroke-opacity:1"
     id="path936-8-6"
     cx="86.896744"
     cy="244.31421"
     r="9.2155533" />
  <circle
     style="opacity:1;fill:none;fill-opacity:1;fill-rule:evenodd;stroke:#000000;stroke-width:3.9060173;stroke-miterlimit:4;stroke-dasharray:none;stroke-dashoffset:0;stroke-opacity:1"
     id="path936-88-3"
     cx="260.83801"
     cy="244.71323"
     r="9.2155533" />
  <circle
     style="opacity:1;fill:none;fill-opacity:1;fill-rule:evenodd;stroke:#000000;stroke-width:3.9060173;stroke-miterlimit:4;stroke-dasharray:none;stroke-dashoffset:0;stroke-opacity:1"
     id="path936-8-6-9"
     cx="291.78394"
     cy="244.83556"
     r="9.2155533" />
</svg>
