<svg viewBox="0 0 348 348" fill="none" xmlns="http://www.w3.org/2000/svg"><path d="M5.079 5.776h336.913v337.67H5.08z" stroke-width="2" stroke="#000"/><path fill="#000" d="M133.843 15.667h74.33v56.882h-74.33z"/><path fill="#fff" d="M154.54 44.09c0-2.709.276-4.886.827-6.531.563-1.657 1.391-2.933 2.485-3.829 1.104-.895 2.49-1.343 4.156-1.343 1.23 0 2.307.25 3.234.75.927.49 1.692 1.203 2.297 2.14.604.927 1.078 2.062 1.422 3.407.344 1.333.516 3.135.516 5.406 0 2.687-.276 4.859-.829 6.515-.552 1.647-1.38 2.923-2.484 3.829-1.093.895-2.479 1.343-4.156 1.343-2.209 0-3.943-.792-5.203-2.375-1.51-1.907-2.266-5.01-2.266-9.312zm2.89 0c0 3.76.437 6.265 1.312 7.515.885 1.24 1.974 1.86 3.266 1.86 1.291 0 2.375-.625 3.25-1.875.885-1.25 1.328-3.75 1.328-7.5 0-3.77-.443-6.276-1.328-7.516-.875-1.24-1.969-1.86-3.281-1.86-1.292 0-2.323.547-3.094 1.641-.969 1.396-1.453 3.974-1.453 7.735zm14.906 0c0-2.709.276-4.886.828-6.531.563-1.657 1.39-2.933 2.484-3.829 1.105-.895 2.49-1.343 4.157-1.343 1.229 0 2.307.25 3.234.75.927.49 1.692 1.203 2.297 2.14.604.927 1.078 2.062 1.422 3.407.343 1.333.515 3.135.515 5.406 0 2.687-.276 4.859-.828 6.515-.552 1.647-1.38 2.923-2.484 3.829-1.093.895-2.479 1.343-4.156 1.343-2.209 0-3.943-.792-5.203-2.375-1.51-1.907-2.266-5.01-2.266-9.312zm2.89 0c0 3.76.438 6.265 1.313 7.515.885 1.24 1.974 1.86 3.266 1.86 1.291 0 2.375-.625 3.25-1.875.885-1.25 1.328-3.75 1.328-7.5 0-3.77-.443-6.276-1.328-7.516-.875-1.24-1.97-1.86-3.282-1.86-1.291 0-2.322.547-3.093 1.641-.969 1.396-1.453 3.974-1.453 7.735z"/><path stroke-linejoin="round" stroke-width="2" stroke="#000" d="M15.262 17.706h109.89v54.835H15.262Z"/><path d="m15.262 72.654 39.686-54.08"/><path stroke-linejoin="round" stroke-width="2" stroke="#000" d="m15.262 72.654 39.686-54.08"/><path d="m37.566 72.654 39.686-54.08"/><path stroke-linejoin="round" stroke-width="2" stroke="#000" d="m37.566 72.654 39.686-54.08"/><path d="m59.87 72.654 39.686-54.08"/><path stroke-linejoin="round" stroke-width="2" stroke="#000" d="m59.87 72.654 39.686-54.08"/><path d="m82.175 72.654 39.685-54.08"/><path stroke-linejoin="round" stroke-width="2" stroke="#000" d="m82.175 72.654 39.685-54.08m95.004-1.94h109.89v54.835h-109.89z"/><path d="m216.864 71.581 39.685-54.078"/><path stroke-linejoin="round" stroke-width="2" stroke="#000" d="m216.864 71.581 39.685-54.078"/><path d="m239.168 71.581 39.685-54.078"/><path stroke-linejoin="round" stroke-width="2" stroke="#000" d="m239.168 71.581 39.685-54.078"/><path d="m261.472 71.581 39.685-54.078"/><path stroke-linejoin="round" stroke-width="2" stroke="#000" d="m261.472 71.581 39.685-54.078"/><path d="m283.776 71.581 39.685-54.078"/><path stroke-linejoin="round" stroke-width="2" stroke="#000" d="m283.776 71.581 39.685-54.078"/><path style="fill:#000;stroke:none;stroke-width:19.191;stroke-linecap:round" d="M101.005 101.11h145.058v57.349H101.005z"/><g aria-label="1-es" style="line-height:1.25;fill:#000;stroke-width:1.24997"><path d="M143.41 159.034h-5.45v-27.4q-1.3 1-2.55 1.65-1.25.65-2.4 1l-.7-4.8q.95-.3 2-.85 1.05-.6 2-1.3 1-.75 1.8-1.6.8-.85 1.25-1.7h4.05zM166.66 147.284h-15.5v-4.45h15.5zM193.459 147.184h-17.2q.8 7.95 8.6 7.95 3.85 0 7.25-1.65l.5 4.15q-4.05 1.9-8.25 1.9-3.15 0-5.65-1-2.5-1-4.2-2.7-1.7-1.75-2.6-4.1-.9-2.4-.9-5.15 0-2.65.85-4.95.85-2.35 2.4-4.05 1.55-1.75 3.75-2.7 2.25-1 5-1 2.35 0 4.3.75 2 .75 3.4 2.15 1.45 1.35 2.2 3.3.8 1.95.8 4.35 0 .75-.1 1.45-.05.65-.15 1.3zm-10.45-8.9q-5.2 0-6.45 5.4h11.95q0-2.45-1.4-3.9-1.35-1.5-4.1-1.5zM205.258 159.534q-5.35 0-8.4-2.05l.55-4.65q1.1.9 3.2 1.7 2.15.8 4.45.8 2.25 0 3.35-.8 1.15-.8 1.15-2.15 0-1.45-.85-2.1-.85-.7-2.25-1.15-1.35-.45-3.1-.95-1.75-.55-3.55-1.7-1.3-.85-1.95-2.05-.6-1.2-.6-3 0-1.55.55-2.95.55-1.4 1.65-2.4 1.15-1 2.85-1.6 1.75-.6 4.15-.6 4 0 7.05 1.7l-.55 4.5q-2.8-2.35-6.3-2.35-2.1 0-3.35.8-1.2.75-1.2 2.35 0 .9.5 1.7.55.75 2.15 1.25l3.05.95q1.2.35 2.4.9 1.25.5 2.25 1.35 1 .85 1.65 2.15.65 1.25.65 3.05 0 1.2-.4 2.5-.35 1.25-1.4 2.35-1.05 1.05-2.9 1.75-1.85.7-4.8.7z" style="fill:#fff" transform="translate(0 -12)"/></g><path style="fill:#000;stroke:none;stroke-width:18.8976;stroke-linecap:round" d="M27.62 208.578h87.622v58.573H27.62zM178.765 181.084h38.97v38.97h-38.97z"/><g style="line-height:1.25;fill:#000"><path d="M202.69 214.57h-4.36v-21.92q-1.04.8-2.04 1.32t-1.92.8l-.56-3.84q.76-.24 1.6-.68.84-.48 1.6-1.04.8-.6 1.44-1.28.64-.68 1-1.36h3.24z" style="fill:#fff" aria-label="1"/></g><path style="fill:#000;stroke:none;stroke-width:18.8976;stroke-linecap:round" d="M229.083 181.084h38.97v38.97h-38.97z"/><g style="line-height:1.25;fill:#000"><path d="M256.969 214.57h-16.76q2.44-3.48 4.24-6.16 1.8-2.68 3.08-4.72 1.28-2.04 2.08-3.48.84-1.48 1.28-2.6.48-1.12.64-1.92.2-.8.2-1.52 0-2.08-1.24-3.2-1.2-1.16-3.28-1.16-3.56 0-6.52 3.92l-.52-3.8q.32-.6 1-1.28.72-.68 1.76-1.28t2.36-.96q1.32-.4 2.88-.4 2.2 0 3.68.72 1.52.68 2.4 1.8.92 1.08 1.28 2.44.4 1.36.4 2.68 0 1.44-.44 3.04t-1.44 3.64q-.96 2-2.52 4.52-1.56 2.52-3.76 5.76h9.2z" style="fill:#fff" aria-label="2"/></g><path style="fill:#000;stroke:none;stroke-width:18.8976;stroke-linecap:round" d="M279.402 181.084h38.97v38.97h-38.97z"/><g style="line-height:1.25;fill:#000"><path d="M297.567 215.13q-1.16 0-2.4-.24-1.2-.2-2.28-.52-1.04-.36-1.84-.72-.76-.36-1.04-.64l1.04-3.96q3.4 2.12 6.48 2.12 1.2 0 2.24-.28 1.08-.28 1.84-.88.8-.6 1.24-1.56.44-.96.44-2.36 0-1.12-.32-2.04-.28-.96-1-1.64-.72-.68-1.88-1.04t-2.88-.36h-3.16l.4-3.36h1.6q3.36 0 4.76-1.08 1.44-1.12 1.44-3.2 0-3.6-4.52-3.6-3.4 0-5.24 1.52l-.72-3.44q.68-.68 2.36-1.24 1.68-.6 4.08-.6 2.56 0 4.2.68 1.68.68 2.64 1.76.96 1.08 1.32 2.36.4 1.28.4 2.48 0 3.4-3.32 5.76 4.32 1.76 4.32 6.92 0 2.2-.84 3.92-.8 1.68-2.2 2.88-1.4 1.16-3.28 1.76-1.84.6-3.88.6z" style="fill:#fff" aria-label="3"/></g><path style="fill:#000;stroke:none;stroke-width:18.8976;stroke-linecap:round" d="M128.446 181.084h38.97v38.97h-38.97zM178.765 231.453h38.97v38.97h-38.97z"/><g style="line-height:1.25;fill:#000"><path d="M208.17 257.338h-3.4v7.6h-4.4v-7.6h-12.04l12.88-20.4h3.56v16.72h3.4zm-7.8-3.68v-9.56l-5.76 9.56z" style="fill:#fff" aria-label="4"/></g><path style="fill:#000;stroke:none;stroke-width:18.8976;stroke-linecap:round" d="M229.083 231.453h38.97v38.97h-38.97z"/><g style="line-height:1.25;fill:#000"><path d="M246.729 265.498q-1 0-2.16-.2-1.12-.16-2.12-.44t-1.76-.6q-.72-.32-.88-.56l1-3.92q2.68 1.8 5.84 1.8 1.28 0 2.4-.4 1.16-.44 2-1.2.84-.76 1.32-1.84.52-1.08.52-2.4 0-2.32-1.8-3.48-1.8-1.2-6.08-1.2h-3.72l1.72-14.12h12.76l-.44 3.96h-9l-.76 6.44q6.24.04 9 2.04 2.76 1.96 2.76 6.2 0 2.24-.88 4.08-.84 1.8-2.32 3.12-1.44 1.28-3.36 2t-4.04.72z" style="fill:#fff" aria-label="5"/></g><path style="fill:#000;stroke:none;stroke-width:18.8976;stroke-linecap:round" d="M279.402 231.453h38.97v38.97h-38.97z"/><g style="line-height:1.25;fill:#000"><path d="M298.407 265.498q-2 0-3.6-.6t-2.76-1.84q-1.16-1.28-1.8-3.24-.6-1.96-.6-4.64 0-3.84 1.24-7.16 1.28-3.36 3.12-5.8 1.84-2.48 3.92-3.88t3.72-1.4l2.88 1.68q-1.32.44-2.88 1.4-1.56.96-3 2.4t-2.6 3.44q-1.16 1.96-1.68 4.44 1.68-2.16 5.28-2.16 1.8 0 3.36.52 1.56.52 2.68 1.56 1.16 1 1.8 2.52.64 1.52.64 3.48 0 1.92-.72 3.64-.68 1.68-1.96 2.96-1.28 1.24-3.08 1.96t-3.96.72zm.92-13.8q-1.16 0-2.16.36-.96.36-1.68 1.04t-1.12 1.64q-.4.92-.4 2.12 0 1.2.4 2.12.4.88 1.04 1.52.68.6 1.56.92.92.32 1.92.32 1.16 0 2.08-.44.96-.44 1.6-1.16.68-.76 1.04-1.72.36-1 .36-2.12 0-.92-.28-1.76-.24-.84-.84-1.44-.56-.64-1.44-1-.88-.4-2.08-.4z" style="fill:#fff" aria-label="6"/></g><path style="fill:#000;stroke:none;stroke-width:18.8976;stroke-linecap:round" d="M128.446 231.453h38.97v38.97h-38.97z"/><g style="line-height:1.25;fill:#000"><path d="M147.691 265.498q-2.6 0-4.72-1-2.12-1-3.64-2.84-1.52-1.88-2.36-4.44-.8-2.6-.8-5.8 0-3.32.92-6.08.92-2.8 2.52-4.76 1.64-2 3.84-3.08 2.2-1.12 4.72-1.12 2.48 0 4.56 1.08 2.12 1.04 3.64 2.96 1.56 1.88 2.44 4.52.88 2.6.88 5.72 0 3.36-.88 6.12-.84 2.72-2.44 4.68-1.56 1.92-3.8 3-2.2 1.04-4.88 1.04zm.4-25.32q-1.56 0-2.92.76-1.36.76-2.4 2.2-1 1.44-1.6 3.52-.6 2.08-.6 4.76 0 5.08 1.96 7.68 1.96 2.56 5.24 2.56 3.48 0 5.52-2.72 2.08-2.76 2.08-8.28 0-2.52-.6-4.44-.56-1.96-1.56-3.28-.96-1.36-2.32-2.04-1.32-.72-2.8-.72z" style="fill:#fff" aria-label="0"/></g><path style="fill:#000;stroke:none;stroke-width:18.8976;stroke-linecap:round" d="M178.765 281.822h38.97v38.97h-38.97z"/><g style="line-height:1.25;fill:#000"><path d="m207.35 287.308-11.96 28h-4.48l10.28-24.04h-12.04v-3.96z" style="fill:#fff" aria-label="7"/></g><path style="fill:#000;stroke:none;stroke-width:18.8976;stroke-linecap:round" d="M229.083 281.822h38.97v38.97h-38.97z"/><g style="line-height:1.25;fill:#000"><path d="M248.209 315.868q-2.36 0-4.12-.64-1.76-.64-2.96-1.76-1.16-1.12-1.76-2.56-.6-1.48-.6-3.12 0-4.56 5-7.52-3.4-2.68-3.4-6.52 0-1.44.44-2.72.48-1.28 1.48-2.2 1-.96 2.6-1.48 1.6-.56 3.84-.56 2.12 0 3.64.48t2.52 1.36q1 .84 1.44 2 .48 1.16.48 2.52 0 1.04-.24 1.92-.2.84-.72 1.64-.52.76-1.32 1.52t-1.96 1.6q5.8 2.2 5.8 7.48 0 1.6-.64 3.16-.64 1.52-1.92 2.72-1.28 1.2-3.2 1.96-1.88.72-4.4.72zm-4-21.8q0 1.36 1.04 2.52 1.04 1.12 3.08 1.84 2.28-.64 3.32-1.88 1.04-1.28 1.04-2.84 0-1.52-1.04-2.4-1.04-.92-3.12-.92t-3.2 1q-1.12 1-1.12 2.68zm4.44 7.8q-2.4.44-3.96 1.92-1.52 1.48-1.52 3.88 0 2.2 1.36 3.36 1.36 1.16 3.88 1.16 2.44 0 4-1.32 1.56-1.36 1.56-3.52 0-2.08-1.52-3.48-1.48-1.44-3.8-2z" style="fill:#fff" aria-label="8"/></g><path style="fill:#000;stroke:none;stroke-width:18.8976;stroke-linecap:round" d="M279.402 281.822h38.97v38.97h-38.97z"/><g style="line-height:1.25;fill:#000"><path d="M299.367 286.748q1.92 0 3.52.6 1.6.56 2.76 1.84 1.16 1.24 1.8 3.2.68 1.92.68 4.64 0 4.08-1.2 7.48-1.16 3.36-2.92 5.76t-3.84 3.72q-2.04 1.32-3.8 1.32l-3.04-1.68q1.4-.48 3.04-1.44 1.68-.96 3.16-2.4 1.48-1.44 2.56-3.36t1.36-4.28q-.36.48-1 .88-.6.36-1.32.6-.72.24-1.52.4-.76.12-1.48.12-3.96 0-6.24-2-2.24-2.04-2.24-6.04 0-1.96.68-3.68.72-1.72 2-2.96 1.28-1.28 3.08-2t3.96-.72zm-.84 13.8q1.12 0 2.08-.36 1-.36 1.72-1.04t1.12-1.64q.4-.96.4-2.16 0-1.2-.4-2.08-.36-.92-1.04-1.52-.64-.64-1.56-.92-.88-.32-1.88-.32-1.16 0-2.12.44-.92.4-1.6 1.16-.64.72-1 1.72-.32.96-.32 2.08 0 .96.24 1.8.28.84.84 1.48.56.6 1.44 1 .88.36 2.08.36z" style="fill:#fff" aria-label="9"/></g><path style="fill:#000;stroke:none;stroke-width:18.8976;stroke-linecap:round" d="M128.446 281.822h38.97v38.97h-38.97z"/><g style="fill:#fff"><path d="M128.446 281.822h38.97v38.97h-38.97Z" fill="none"/><path d="m143.06 308.079-6.771-6.772-2.306 2.29 9.077 9.077 19.485-19.485-2.29-2.29Z"/></g><g style="fill:#fff"><path d="M133.832 186.47h28.199v28.199h-28.2Z" fill="none"/><path d="M159.68 189.995h-17.624c-.81 0-1.445.41-1.868 1.033l-6.356 9.541 6.356 9.529c.423.623 1.058 1.046 1.868 1.046h17.625a2.357 2.357 0 0 0 2.35-2.35v-16.45a2.357 2.357 0 0 0-2.35-2.35Zm-3.524 14.792-1.657 1.657-4.218-4.218-4.218 4.218-1.657-1.657 4.218-4.218-4.218-4.218 1.657-1.657 4.218 4.218 4.218-4.218 1.657 1.657-4.218 4.218Z"/></g><g aria-label="---" style="line-height:1.25;fill:#fff;stroke-width:1.27003"><path d="M57.867 240.125H42.119v-4.521h15.748zM79.305 240.125H63.557v-4.521h15.748zM100.743 240.125H84.995v-4.521h15.748z"/></g></svg>