<svg xmlns="http://www.w3.org/2000/svg" fill="none" viewBox="0 0 348 348"><path stroke="#000" stroke-width="2" d="M5.08 5.776h336.91v337.67H5.08z"/><path stroke="#000" stroke-width="2" d="M282.734 40.554c0-8.376 6.966-15.165 15.56-15.165 4.126 0 8.084 1.594 11 4.44 2.92 2.842 4.56 6.7 4.56 10.722 0 8.376-6.967 15.165-15.56 15.165-8.594 0-15.56-6.79-15.56-15.166z"/><path fill="#e3e3e3" stroke="#000" d="M167.19 141.108l3.514.567 3.248 1.458 2.76 2.248 2.084 2.886 1.266 3.327.362 3.541-.567 3.515-1.458 3.248-2.248 2.76-2.886 2.084-3.327 1.266-3.541.361-1.013.009-1.01.083-1 .158-.985.231-.966.305-.94.375-.91.444-.875.51-.835.573-.79.634-.74.691-.687.744-.63.793-.57.837-.505.877-.439.913-.37.942-.3.967-.226.987-.153 1.001-.078 1.01-.003 1.012.072 1.01.147 1.002.22.988.294.97.364.944.434.915.5.88.565.841.625.797.683.748.736.695.786.639.83.578.872.516.908.449.938.38.964.31.984.238 1 .164 1.008.09 1.013.014 1.01-.061 1.004-.136.99-.21.973-.283.948-.354.92-.423.886-.491.847-.555.803-.616.756-.675.703-.728.647-.779.588-.824.525-.866.46-.903.39-.934.321-.96 1.438-3.256 2.233-2.773 2.874-2.101 3.32-1.285 3.538-.383 3.518.547 3.256 1.438 2.773 2.233 2.1 2.873 1.286 3.32.383 3.54-.547 3.517-.73 2.246-.857 2.2-.983 2.147-1.105 2.087-1.224 2.02-1.339 1.945-1.448 1.865-1.554 1.778-1.654 1.686-1.748 1.588-1.837 1.484-1.92 1.375-1.995 1.263-2.065 1.145-2.128 1.024-2.183.9-2.232.772-2.272.642-2.306.51-2.331.376-2.35.241-2.359.105-2.36-.031-2.356-.168-2.342-.303-2.32-.438-2.292-.57-2.255-.703-2.21-.83-2.159-.958-1.724-1.227-1.209-1.738-.55-2.043.171-2.11.874-1.927 1.474-1.52 1.962-1.862 1.414-2.307.768-2.594.071-2.704-.632-2.63-1.29-2.378-1.863-1.963-2.307-1.413-2.594-.769-2.704-.07-2.63.63-2.378 1.292-1.9.932-2.104.236-2.06-.489-1.773-1.155-1.278-1.687-.635-2.019-.243-2.349-.107-2.359.028-2.361.166-2.356.3-2.342.436-2.321.568-2.292.7-2.255.829-2.212.955-2.16 1.078-2.1 1.198-2.035 1.313-1.963 1.424-1.884 1.53-1.799 1.632-1.707 1.727-1.61 1.817-1.508 1.902-1.4 1.979-1.289 2.05-1.172 2.114-1.051 2.171-.929 2.222-.8 2.264-.673 2.299-.54 2.326-.406 2.346-.272 2.357-.135z"/><path fill="#A7A7A7" stroke="#000" d="M133.394 241.88l-2.878-2.096-2.237-2.77-1.444-3.253-.552-3.517.376-3.54 1.28-3.322 2.096-2.877 2.769-2.237 3.254-1.444 3.516-.552 3.54.376 3.322 1.28 3.306 1.612 3.437 1.308 3.54.994 3.616.673 3.66.345 3.678.015 3.664-.316 3.621-.643 3.549-.966 3.447-1.28 3.318-1.585 3.163-1.876 2.981-2.153 2.776-2.412 2.549-2.652 2.3-2.87 2.032-3.064 1.75-3.235 1.451-3.379 1.143-3.496.824-3.584.499-3.643.17-3.674-.162-3.674-.49-3.644-.816-3.586-1.134-3.498-1.444-3.383-1.742-3.238-2.026-3.07-2.293-2.875-2.542-2.657-2.77-2.419-2.977-2.16-3.158-1.883-3.315-1.593-3.444-1.288-3.547-.974-3.619-.652-3.663-.324-3.678.007-3.662.336-3.617.664-3.543.986-3.44 1.3-3.309 1.605-3.151 1.895-2.97 2.17-2.761 2.428-2.533 2.666-2.283 2.883-2.015 3.077-1.731 3.244-1.432 3.388-1.122 3.502-.804 3.588-.477 3.647-.149 3.674.183 3.673.511 3.642.19 3.555-.735 3.483-1.612 3.173-2.38 2.649-2.982 1.942-3.385 1.104-3.554.191-3.483-.736-3.174-1.612-2.648-2.379-1.943-2.983-1.104-3.384-.472-2.866-.349-2.882-.226-2.895-.103-2.902.02-2.904.145-2.9.268-2.891.39-2.878.514-2.858.634-2.834.754-2.804.873-2.77 1.1-2.1 1.693-1.66 2.12-1.061 2.344-.36 2.34.379 2.113 1.079 2.377 1.29 2.63.632 2.705-.07 2.594-.769 2.307-1.414 1.862-1.962 1.291-2.378.632-2.63-.07-2.705-.77-2.594-1.413-2.307-1.962-1.862-1.679-1.675-1.083-2.11-.383-2.34.354-2.344 1.057-2.123 1.657-1.695 5.03-3.414 5.315-2.951 5.556-2.467 5.753-1.962 5.906-1.442 6.01-.91 6.068-.37 6.077.17 6.037.712 5.95 1.246 5.815 1.772 5.634 2.282 5.409 2.775 5.14 3.246 4.83 3.69 4.482 4.107 4.1 4.489 3.682 4.836 3.237 5.146 2.767 5.413 2.273 5.638 1.761 5.818 1.237 5.952.702 6.038.16 6.077-.38 6.067-.92 6.009-1.451 5.903-1.972 5.75-2.476 5.552-2.96 5.31-3.422 5.024-3.855 4.7-4.259 4.338-4.628 3.941-4.961 3.514-5.254 3.057-5.506 2.578-5.713 2.076-5.875 1.56-5.991 1.03-6.06.492-6.078-.049-6.05-.59-5.974-1.127-5.85-1.655-5.678-2.169z"/><path fill="#777" stroke="#000" d="M74.654 209.703l-.58-3.513.35-3.542 1.253-3.332 2.074-2.893 2.752-2.258 3.243-1.47 3.512-.579 3.543.35 3.331 1.253 2.894 2.074 2.258 2.752 1.469 3.243 2.168 6.094 2.737 5.86 3.28 5.576 3.793 5.24 4.272 4.856 4.714 4.43 5.112 3.963 5.464 3.46 5.768 2.928 6.02 2.367 6.216 1.787 6.358 1.19 6.443.581 6.468-.031 6.436-.645 6.346-1.251 6.2-1.847 5.995-2.426 5.74-2.984 5.43-3.514 5.073-4.012 4.67-4.476 4.226-4.898 3.741-5.276 3.225-5.607 2.68-5.887 2.109-6.115 1.52-6.287.918-6.403.307-6.461-.307-6.461-.918-6.403-1.52-6.287-2.11-6.115-2.679-5.887-3.225-5.607-3.741-5.276-4.226-4.898-4.67-4.476-5.073-4.012-5.43-3.514-5.74-2.984-5.996-2.426-6.199-1.847-6.346-1.251-6.436-.645-6.468-.031-6.443.582-6.358 1.189-6.216 1.787-6.02 2.367-5.768 2.928-5.464 3.46-5.112 3.964-4.714 4.43-4.272 4.856-3.794 5.24-3.28 5.574-2.736 5.861-2.168 6.094-1.47 3.243-2.257 2.752-2.894 2.074-3.331 1.254-3.543.349-3.512-.58-3.243-1.469-2.752-2.258-2.074-2.893-1.254-3.332-.349-3.542.58-3.513 2.777-7.894 3.458-7.62 4.112-7.288 4.735-6.9 5.32-6.459 5.866-5.968 6.367-5.431 6.817-4.853 7.216-4.237 7.56-3.589 7.844-2.913 8.07-2.215 8.233-1.5 8.332-.772 8.368-.04 8.34.693 8.247 1.421 8.09 2.138 7.872 2.838 7.594 3.517 7.256 4.168 6.863 4.788 6.418 5.37 5.922 5.912 5.382 6.407 4.8 6.855 4.182 7.249 3.53 7.587 2.853 7.867 2.152 8.086.167 2.468-.565 2.407-1.247 2.136-1.818 1.676-2.23 1.068-2.446.367-2.682.353-2.5 1.036-2.146 1.647-1.647 2.146-1.036 2.5-.353 2.682.353 2.682 1.036 2.5 1.647 2.146 2.146 1.647 2.5 1.036 2.682.353 2.446.367 2.23 1.068 1.818 1.676 1.247 2.136.565 2.407-.167 2.468-2.152 8.086-2.853 7.867-3.53 7.587-4.181 7.249-4.8 6.855-5.383 6.407-5.922 5.912-6.418 5.37-6.863 4.788-7.256 4.168-7.594 3.517-7.872 2.838-8.09 2.138-8.247 1.42-8.34.694-8.368-.04-8.332-.773-8.233-1.5-8.07-2.214-7.844-2.913-7.56-3.589-7.216-4.237-6.817-4.853-6.367-5.431-5.866-5.968-5.32-6.459-4.735-6.9-4.112-7.288-3.458-7.62z"/><path fill="#DCDCDC" stroke="#000" d="M247.11 89.895l2.341 2.682 1.568 3.196.687 3.492-.24 3.552-1.151 3.369-1.984 2.955-2.681 2.342-3.196 1.568-3.493.687-3.552-.24-3.368-1.151-2.956-1.984-7.263-5.793-7.792-5.06-8.247-4.28-8.624-3.456-8.919-2.602-9.13-1.722-9.254-.827-9.29.077-9.24.98-9.1 1.873-8.874 2.75-8.565 3.598-8.175 4.415-7.708 5.188-7.166 5.913-6.557 6.582-5.887 7.188-5.16 7.726-4.384 8.191-3.567 8.579-2.717 8.885-1.84 9.106-.945 9.243-.043 9.29.861 9.251 1.756 9.124 2.635 8.91 3.488 8.61 4.309 8.231 5.089 7.774 5.82 7.242 6.497 6.641 7.111 5.979 7.66 5.259 8.134 4.489 8.532 3.677 8.85 2.83 9.081 1.957 9.23 1.065 9.29.162 9.26-.742 9.146-1.638 8.942-2.52 8.656-3.377 8.286-4.203 7.838-4.988 7.316-5.727 6.724-6.41 6.07-7.035 5.357-7.59 4.593-8.077 3.787-8.484 2.944-8.812 2.074-9.056 1.183-9.215.281-9.287-.622-9.27-1.52-9.165-2.405-8.975-3.266-8.698-.973-3.424-.054-3.56.869-3.451 1.733-3.11 2.479-2.555 3.055-1.826 3.424-.973 3.56-.054 3.452.869 3.11 1.733 2.554 2.479 1.827 3.055 4.204 11.2 3.094 11.557 1.953 11.802.796 11.937-.37 11.958-1.534 11.864-2.68 11.66-3.804 11.342-4.89 10.918-5.929 10.39-6.913 9.764-7.83 9.045-8.674 8.239-9.435 7.355-10.106 6.402-10.682 5.387-11.155 4.322-11.523 3.215-11.782 2.078-11.927.921-11.961-.245-11.88-1.408-11.687-2.558-11.382-3.683-10.969-4.775-10.452-5.82-9.836-6.809-9.127-7.735-8.33-8.587-7.454-9.357-6.507-10.038-5.5-10.624-4.439-11.11-3.336-11.488-2.202-11.759-1.047-11.917.119-11.963 1.283-11.894 2.435-11.713 3.563-11.42 4.659-11.019 5.71-10.513 6.705-9.907 7.638-9.207 8.499-8.42 9.278-7.552 9.97-6.613 10.565-5.611 11.062-4.556 11.453-3.457 11.735-2.326 11.905-1.172 11.963-.007 11.908 1.158 2.421.724 2.113 1.386 1.63 1.932 1.008 2.318.305 2.509-.426 2.491-.493 2.66.212 2.698.903 2.55 1.533 2.23 2.057 1.757 2.442 1.164 2.66.493 2.697-.212 2.55-.903 2.23-1.532 1.757-2.058 1.165-2.442 1.12-2.265 1.72-1.851 2.179-1.282 2.454-.606 2.524.12 2.385.838 4.29 2.358 4.193 2.528 4.089 2.692 3.978 2.854 3.86 3.01z"/><path fill="#9A9A9A" stroke="#000" d="M31.069 116.475l1.96-2.972 2.662-2.363 3.183-1.594 3.487-.716 3.553.211 3.378 1.124 2.972 1.96 2.363 2.662 1.594 3.183.716 3.487-.211 3.554-1.124 3.377-4.752 11.157-3.628 11.57-2.468 11.873-1.284 12.057-.088 12.126 1.109 12.075 2.295 11.907 3.458 11.623L54.834 234l5.674 10.716 6.704 10.105 7.668 9.393 8.558 8.59 9.364 7.705 10.079 6.743 10.694 5.715 11.207 4.632 11.609 3.503 11.898 2.34 12.07 1.156 12.127-.042 12.062-1.238 11.882-2.423 11.585-3.583 11.174-4.71 10.655-5.788 10.032-6.812 9.31-7.769 8.499-8.65 7.603-9.446 6.635-10.15 5.6-10.755 4.511-11.256 3.379-11.646 2.213-11.922 1.025-12.083-.172-12.125-1.367-12.048-2.55-11.855-3.708-11.546-4.828-11.123-5.903-10.592-6.92-9.959-7.867-9.226-8.74-8.406-9.528-7.501-10.22-6.525-10.815-5.485-11.304-4.39-11.681-3.254-11.946-2.085-12.093-.895-12.122.302-12.033 1.496-11.827 2.677-11.505 3.831-11.07 4.948-10.53 6.016-9.883 7.025-9.142 7.967-2.865 2.112-3.314 1.3-3.538.396-3.52-.532-3.262-1.425-2.782-2.22-2.112-2.866-1.3-3.314-.396-3.538.532-3.52 1.425-3.262 2.22-2.782 10.838-9.471 11.696-8.39 12.446-7.23 13.08-6.003 13.598-4.722 13.986-3.398 14.248-2.04L166.255 32l14.375.715 14.241 2.09 13.975 3.444 13.58 4.769 13.061 6.048 12.421 7.272 11.667 8.429 10.806 9.508 9.844 10.5 8.793 11.396 7.66 12.185 6.456 12.864 5.194 13.424 3.884 13.86 2.537 14.167 1.168 14.346-.212 14.391-1.591 14.305-2.955 14.087-4.291 13.739-5.588 13.264-6.834 12.667-8.017 11.955-9.125 11.13-10.15 10.205-11.081 9.186-11.911 8.08-12.63 6.902-2.44.781-2.56.064-2.476-.658-2.19-1.327-1.73-1.89-1.13-2.298-1.164-2.442-1.757-2.058-2.23-1.532-2.55-.903-2.697-.212-2.66.493-2.442 1.164-2.058 1.757-1.532 2.23-.903 2.55-.212 2.697.493 2.66.437 2.524-.289 2.545-.992 2.362-1.616 1.987-2.109 1.453-2.432.803-13.623 1.786-13.729.532-13.72-.726-13.596-1.978-13.358-3.215-13.008-4.422-12.55-5.595-11.983-6.72-11.32-7.787-10.558-8.791-9.71-9.72-8.781-10.568-7.776-11.327-6.708-11.99-5.582-12.555-4.41-13.012-3.2-13.362-1.966-13.598-.712-13.72.546-13.73 1.8-13.62 3.038-13.4 4.252-13.064z"/><path fill="#000" d="M173.14 24.44a7.69 7.69 0 1 1-15.38 0 7.69 7.69 0 1 1 15.38 0z"/></svg>