<svg xmlns="http://www.w3.org/2000/svg" fill="none" viewBox="0 0 348 348"><path stroke="#000" stroke-width="2" d="M5.08 5.78h336.91v337.67H5.08z"/><path stroke="#000" stroke-width="2" d="M282.73 40.55c0-8.37 6.97-15.16 15.56-15.16 4.13 0 8.09 1.6 11 4.44a14.96 14.96 0 0 1 4.56 10.72c0 8.38-6.96 15.17-15.56 15.17-8.59 0-15.56-6.8-15.56-15.17z"/><path fill="#ccc" d="m97.31 88.12-39.8-16.48.67 54.68z"/><path fill="#444" d="m57.51 71.64 39.8 16.48-.67-54.68z"/><path fill="#000" d="M162.26 242.67v-1.88h-4.38V214.8h4.38v-1.88h-6.37v29.74zm6.1-6.5v-10.43h11.9v-2.53h-11.9v-7.37h12.13v-2.54h-14.97v22.86zm29.47 0v-2.54h-10.62V213.3h-2.84v22.86zm23.58 0-9.22-22.87h-3.53l-9.18 22.86h3.25l2.03-5.07h11.37l2.02 5.07zm-6.13-7.62h-9.7l4.86-12.3zm18.67 8.06a11.9 11.9 0 0 0 8.98-3.94v-8.26h-10.7v2.53h7.86v4.66a9.02 9.02 0 0 1-6.14 2.47c-5 0-8.8-3.9-8.8-9.32 0-5.45 3.8-9.29 8.8-9.29 2.74 0 5.18 1.3 6.62 3.16l2.26-1.4a10.9 10.9 0 0 0-8.88-4.3c-6.5 0-11.75 4.74-11.75 11.83 0 7.1 5.24 11.86 11.75 11.86zm24.43 0a11.9 11.9 0 0 0 8.98-3.94v-8.26h-10.69v2.53h7.85v4.66a9.02 9.02 0 0 1-6.14 2.47c-5 0-8.8-3.9-8.8-9.32 0-5.45 3.8-9.29 8.8-9.29 2.75 0 5.18 1.3 6.62 3.16l2.26-1.4a10.9 10.9 0 0 0-8.88-4.3c-6.5 0-11.75 4.74-11.75 11.83 0 7.1 5.24 11.86 11.75 11.86zm28.58-.45v-2.53h-12.13v-7.89h11.9v-2.53h-11.9v-7.37h12.13v-2.54H272v22.86zm8.81 6.51v-29.74h-6.37v1.88h4.38v25.98h-4.38v1.88zM77.4 20.47A59.45 59.45 0 0 0 18 79.87a59.45 59.45 0 0 0 59.4 59.41 59.45 59.45 0 0 0 59.41-59.4 59.45 59.45 0 0 0-59.4-59.41Zm0 5a54.37 54.37 0 0 1 54.41 54.4 54.37 54.37 0 0 1-54.4 54.41A54.37 54.37 0 0 1 23 79.88a54.37 54.37 0 0 1 54.4-54.41Zm54.38 108.28v188.1h188.1v-188.1zm2 2h184.1v184.1h-184.1Z"/></svg>