<svg xmlns="http://www.w3.org/2000/svg" fill="none" viewBox="0 0 348 348"><path stroke="#000" stroke-linecap="square" stroke-width="2.83" d="M5.08 5.78h335.83v217.89H5.08z"/><path stroke="#000" stroke-linecap="square" stroke-width="2.83" d="M36.7 34.54h272.01v161.48H36.7z"/><path stroke="#000" stroke-linecap="square" stroke-width="2.59" d="M10.24 12.83h21.83v21.83H10.24z"/><path stroke="#000" stroke-linecap="square" stroke-width="2.83" d="M41.02 43.61h261.64V190.4H41.02zm-4.32-9.07 4.32 9.07m261.64 0 6.05-9.07m-6.05 155.86 6.05 5.62M41.02 190.4l-4.32 5.62m-25.04 27.63-6.58 119.8h336.91l-5.22-120.23"/><path stroke="#000" stroke-linecap="square" stroke-width=".94" d="M5.84 179.15h30.73M5.45 162.42h31.7m-31.9-17.89h31.51m-31.7-17.51h31.51M5.25 109.7h30.93M4.86 92.98H35.6M5.45 74.89h31.31m3.89 2.53-4.27-2.53m.58 17.9 3.7 1.94m-3.51 14.97 3.5 1.57m-3.3 15.95 3.7.77m-4.29 16.73h3.9m-3.9 17.9 3.7-.97m-3.5 18.09 3.89-.78m298.11.14h-30.73m31.12-16.73h-31.7m31.9-17.89h-31.51m31.7-17.51h-31.51m31.32-17.31h-30.93m31.32-16.73H309.2m30.15-18.09h-31.31m-3.9 2.53 4.28-2.53m-.58 17.89-3.7 1.95m3.51 14.98-3.5 1.55m3.3 15.95-3.7.78m4.29 16.73h-3.9m3.9 17.9-3.7-.98m3.5 18.09-3.89-.77M12.52 236.3l20.22-.27-1.1 19.12-19.54.41z"/><path stroke="#000" stroke-linecap="square" stroke-width=".94" d="m12.1 255.56 1.52 2.75 19.25-.27 1.38-18.99-1.51-3.02m-1.1 19.12 1.23 2.89m4.54-22.01h20.22l-.82 19.4-19.81.54z"/><path stroke="#000" stroke-linecap="square" stroke-width=".94" d="m37 255.97 1.79 2.62 19.53-.42.82-19.39-1.5-2.75m-.84 19.39 1.52 2.75m3.98-22.55 19.81.4-.27 19.13-19.53.55z"/><path stroke="#000" stroke-linecap="square" stroke-width=".94" d="m62.3 255.7 1.1 2.75 19.54-.41 1.1-19.95-1.93-2.06m-.27 19.12 1.1 2.89m4.26-22.01 20.09-.14 1.1 2.2-.7 20.36-19.66-.41-1.24-2.34z"/><path stroke="#000" stroke-linecap="square" stroke-width=".94" d="m86.8 255.7 18.84-.28 1.65-19.53m-1.65 19.53 2.06 3.03m4.54-22.7 20.35.14-.4 22.15-18.58.27-1.51-2.61zm-.14 19.95 19.53-.69m5.77-18.98 20.09.14-.41 22h-18.7l-.97-2.61zm0 19.53 19.4-.27m5.78-19.54 20.08.28-.27 22.14h-19.95zm-.14 19.4h19.4m5.77-19.4 19.95.14v21.18l-.97 1.1-19.11.14zm.42 19.67 19.39-.13m5.08-19.26-.4 22.14 19.53.14 1.37-2.75-.68-19.4zm-.27 19.26 20.77.27m4.68-19.81h19.67l.41 19.12-1.51 3.3h-19.26l-.27-20.5z"/><path stroke="#000" stroke-linecap="square" stroke-width=".94" d="m257.76 254.87-19.53.69-.55-19.8m-.68 22.41 1.23-2.61m24.67-19.61 19.74.2.2 19.06-1.18 3.01-19.64-.29-.68-19.35z"/><path stroke="#000" stroke-linecap="square" stroke-width=".94" d="m282.83 255.2-19.35.1-.59-19.35m-.87 21.98 1.46-2.62m43.86-19.36.39 19.26-1.07 2.82-19.55.1-1.17-19.36 1.56-2.92z"/><path stroke="#000" stroke-linecap="square" stroke-width=".94" d="m287.5 235.85.87 19.65 19.36-.3m-20.62 2.93 1.26-2.63m22.18-16.24 2.14-3.6 19.84.39.68 19.35-1.65 2.82h-20.04zm2.92 15.94-1.95 3.02"/><path stroke="#000" stroke-linecap="square" stroke-width=".94" d="m312.69 235.66.78 19.55 19.74.2m-321.15 6.02 19.65.1 1.75 2.43-.98 19.65H12.64l-1.75-2.82zm20.42 22.17-1.55-2.71"/><path stroke="#000" stroke-linecap="square" stroke-width=".94" d="m31.7 261.53-.77 19.36-20.04-.1m25.97-19.26H56.9l1.26 2.14-.68 19.94-19.84.1-1.75-2.63zm20.62 22.07-1.94-2.71"/><path stroke="#000" stroke-linecap="square" stroke-width=".94" d="m56.9 261.53-1.36 19.36-19.65.19m25.77-19.45H82l.68 1.26-.1 20.72-19.84-.1-1.65-2.43zm20.91 21.97-1.75-2.42"/><path stroke="#000" stroke-linecap="square" stroke-width=".94" d="m61.08 281.08 19.74.1L82 261.63m5.24-.2 19.84.3.88 1.65-.49 20.03-19.45.3-1.36-2.34z"/><path stroke="#000" stroke-linecap="square" stroke-width=".94" d="m86.66 281.37 19.35-.29 1.07-19.35m-1.07 19.35 1.46 2.33m5.16.19-.98-2.42.68-19.65 19.94.1.2 21.88zm-.98-2.42 20.72-.1m5.06-19.65 20.13.4-.1 21.88-19.64-.2-.68-2.43zm-.29 19.65 19.84.3m5.44-20.04 20.04.29v21.98l-20.04.1zm-.09 19.93 19.74.4m5.35-20.14 20.03.1.4 19.55-.59 2.53-19.74-.1zm.29 19.45 20.13.2m4.77-19.45h20.04l.19 19.54-.97 2.44H212.5zm0 19.45 20.23.1m5.64-19.94-1.46 2.43.1 19.74 19.74.3 1.27-2.73-.59-19.45z"/><path stroke="#000" stroke-linecap="square" stroke-width=".94" d="m238.48 261.34.2 19.74h19.45m-21.01 2.43 1.56-2.43m24.6-19.55h19.55l.3 20.04-1.08 2.33-19.55-.2-.58-20.22z"/><path stroke="#000" stroke-linecap="square" stroke-width=".94" d="m263.28 261.53.4 19.65 19.44.39m-20.62 2.13 1.17-2.52m22.95-17.31 1.66-2.53 19.94.2.58 19.54-1.36 2.33-20.23.1z"/><path stroke="#000" stroke-linecap="square" stroke-width=".94" d="m288.28 261.34.68 19.45 19.84.29m-21.6 2.43 1.76-2.72m24.51-19.45-2.04 2.82 1.07 19.55h19.45l1.85-2.63-.59-19.55z"/><path stroke="#000" stroke-linecap="square" stroke-width=".94" d="m313.47 261.34.48 20.03 19.85-.29m-21.3 2.62 1.45-2.33m-125.85 6.62.1 20.32 24.8-.39.2 27.14 45.22.1.87-1.56-.58-20.62-25.38.4-.1-25.2zm71.2 45.61-45.72-.49"/><path stroke="#000" stroke-linecap="square" stroke-width=".94" d="m212.7 309.87-25.48.3-.58-20.73 1.46-1.45m-.88 22.17.98-1.85M10.8 286.82l20.03.2 1.27 1.74-.3 20.04-20.13.39-1.75-2.82zm21 21.98-2.04-2.53"/><path stroke="#000" stroke-linecap="square" stroke-width=".94" d="m9.92 306.37 19.84-.1 1.07-19.26m5.35.19 19.74-.38 1.66 1.94-.68 20.43-19.55-.1-2.04-2.14z"/><path stroke="#000" stroke-linecap="square" stroke-width=".94" d="m35.3 306.95 19.94-.2.68-19.93m-.68 19.94 1.66 2.43m4.18-22.08H81.4l1.16 1.95-.87 19.93-19.45.2-1.46-2.43z"/><path stroke="#000" stroke-linecap="square" stroke-width=".94" d="m60.79 306.76 19.64-.2.98-19.45m-.98 19.45L81.7 309m24.5-22.08 1.47 1.94-.68 20.33-19.75-.1-1.07-2.33.3-19.75zm-.67 20.03 1.46 2.24"/><path stroke="#000" stroke-linecap="square" stroke-width=".94" d="m86.17 306.76 19.36.2.68-20.04m5.54 0 20.33.1-.2 21.97h-19.35l-.97-1.94zm-.19 20.13 20.03-.2m5.74-19.84 20.13.2-.1 21.69h-20.42zm-.39 19.84h20.13m5.26-19.93 19.93.1.1 22.17-20.03.1zm.09 19.84 19.65.29m56.31-20.04-1.07 2.05.59 19.93 19.84.1.97-2.14-.68-20.03z"/><path stroke="#000" stroke-linecap="square" stroke-width=".94" d="m237.9 309 1.16-1.95-.68-20.04m20.33 19.94-19.65.1m24.51-19.94-1.55 2.53.97 19.55 19.55-.1 1.46-2.33-.2-19.84z"/><path stroke="#000" stroke-linecap="square" stroke-width=".94" d="m262.99 309.19 1.65-2.34-1.07-19.74m1.07 19.74 19.36-.1m4.96-19.83-1.95 2.43.98 19.74 19.64-.1 1.46-1.84-.68-20.43z"/><path stroke="#000" stroke-linecap="square" stroke-width=".94" d="m288.96 286.92.78 19.93 19.35.3m-21.1 1.95 1.75-2.25m24.51-19.74-1.46 1.85.48 20.13 20.04.2 1.36-2.73-.58-19.55zm-.98 21.99 1.75-2.44"/><path stroke="#000" stroke-linecap="square" stroke-width=".94" d="m314.25 287.11.77 19.55 19.65-.1m-19.74 6.32-2.05 2.34.98 19.74 20.32-.1 1.56-2.43-1.07-19.55z"/><path stroke="#000" stroke-linecap="square" stroke-width=".94" d="m314.93 312.88.87 19.75 19.94-.2m-21.88 2.53 1.94-2.33m-26.55-19.65.78 20.04 20.23.39-.88-20.33z"/><path stroke="#000" stroke-linecap="square" stroke-width=".94" d="m289.25 312.98-1.75 2.24.97 19.64 20.23.3 1.56-1.75m-20.23-.39-1.56 1.84m-24.51-21.68-1.36 1.65.97 20.13h20.04l.97-1.85-.39-20.42z"/><path stroke="#000" stroke-linecap="square" stroke-width=".94" d="m263.57 334.96 1.27-1.55-.88-20.23m.88 20.22 19.74-.29m-96.87-20.23 20.52.3.1 20.03-1.17 1.75-19.55.2zm-.1 20.14 20.72.2m-25.87 1.45-.1-21.79-20.13.3.39 21.4zm-.58-1.94-19.07-.1m-26.16-19.55h20.52l-.1 21.98-20.13-.1zm.39 19.84 19.55-.2m-45.32.39.77 1.85 19.84-.2.3-21.68-20.33-.2zm0 0 20.52-.48m-45.33-19.75 20.23.2.2 20.03-.88 1.66H87.05l-1.07-1.75zm-.48 20.14 20.9.1M60.6 312.98l20.42.1 1.16 1.56-.77 20.03-19.75.2-1.16-1.37zm20.8 21.69-1.45-2.04"/><path stroke="#000" stroke-linecap="square" stroke-width=".94" d="m81.02 313.08-1.07 19.55-19.45.87m-25.1-20.52 20.14-.1 1.16 1.27-.48 20.71H35.99l-1.37-1.65zm20.82 21.88-2.05-2.13"/><path stroke="#000" stroke-linecap="square" stroke-width=".94" d="m55.54 312.88-1.37 19.85-19.55.48m-24.8-20.23 20.33-.2 1.36 1.85-.78 20.14-19.84.29-1.84-2.04z"/><path stroke="#000" stroke-linecap="square" stroke-width=".94" d="m9.05 333.02 19.84-.49 1.84 2.24"/><path stroke="#000" stroke-linecap="square" stroke-width=".76" d="m28.89 332.53 1.26-19.74"/></svg>