<svg xmlns="http://www.w3.org/2000/svg" xml:space="preserve" fill="none" viewBox="0 0 348 348"><path stroke="#000" stroke-width="2" d="M5.08 5.78h336.91v337.67H5.08z"/><path stroke="#000" stroke-width="2" d="M282.73 40.55c0-8.37 6.97-15.16 15.56-15.16 4.13 0 8.09 1.6 11 4.44a14.97 14.97 0 0 1 4.56 10.72c0 8.38-6.96 15.17-15.56 15.17-8.59 0-15.56-6.8-15.56-15.17z"/><path fill="#000" d="M111.64 100.6c-3.75 1.7-7.47 9.22 1.94 11.14v11.5s-.48 3.64-3.27 6.01c-22.56 19.24-29.77 42.38-30.07 66.8-.62 51.5 31.38 74.46 31.38 74.46 2.76 4.99 7.52 6.88 12.72 8.1 0 0 19.09 2.86 49.84 2.86 30.75 0 49.84-2.87 49.84-2.87 5.2-1.21 9.96-3.1 12.72-8.1 0 0 32-22.95 31.38-74.45-.3-24.42-7.5-47.56-30.08-66.8a10.5 10.5 0 0 1-3.26-6v-11.51c9.4-1.92 5.68-9.44 1.94-11.14-41.18-20.53-82.85-21.45-125.08 0z"/><ellipse cx="174" cy="199.74" fill="#d9d9d9" fill-rule="evenodd" paint-order="markers fill stroke" rx="87.47" ry="66.36" style="font-variation-settings:normal"/><path fill="#d9d9d9" stroke="#000" stroke-linejoin="round" stroke-width="2" d="M174.18 65.9c15.44 0 40.2.06 60.25 4.65 3.7.85 6.22 2.35 6.22 6.22l.29 27.04s-2.28-5.35-66.76-5.35-66.76 5.35-66.76 5.35l.3-27.04c0-3.87 2.51-5.37 6.2-6.22 20.05-4.6 44.82-4.65 60.26-4.65z" paint-order="markers"/></svg>