<?xml version="1.0" encoding="UTF-8" standalone="no"?>
<svg
   xmlns:dc="http://purl.org/dc/elements/1.1/"
   xmlns:cc="http://creativecommons.org/ns#"
   xmlns:rdf="http://www.w3.org/1999/02/22-rdf-syntax-ns#"
   xmlns:svg="http://www.w3.org/2000/svg"
   xmlns="http://www.w3.org/2000/svg"
   xmlns:sodipodi="http://sodipodi.sourceforge.net/DTD/sodipodi-0.dtd"
   xmlns:inkscape="http://www.inkscape.org/namespaces/inkscape"
   viewBox="0 0 348 348"
   fill="none"
   version="1.1"
   id="svg92"
   sodipodi:docname="Matchematics.svg"
   inkscape:version="0.92.4 (5da689c313, 2019-01-14)">
  <metadata
     id="metadata98">
    <rdf:RDF>
      <cc:Work
         rdf:about="">
        <dc:format>image/svg+xml</dc:format>
        <dc:type
           rdf:resource="http://purl.org/dc/dcmitype/StillImage" />
      </cc:Work>
    </rdf:RDF>
  </metadata>
  <defs
     id="defs96" />
  <sodipodi:namedview
     pagecolor="#ffffff"
     bordercolor="#666666"
     borderopacity="1"
     objecttolerance="10"
     gridtolerance="10"
     guidetolerance="10"
     inkscape:pageopacity="0"
     inkscape:pageshadow="2"
     inkscape:window-width="725"
     inkscape:window-height="686"
     id="namedview94"
     showgrid="false"
     inkscape:zoom="0.67816092"
     inkscape:cx="204.45567"
     inkscape:cy="174"
     inkscape:window-x="0"
     inkscape:window-y="0"
     inkscape:window-maximized="0"
     inkscape:current-layer="svg92" />
  <path
     d="M5.079 5.776h336.913v337.67H5.08z"
     stroke-width="2"
     stroke="#000"
     id="path2" />
  <path
     d="M282.734 40.554c0-8.376 6.966-15.165 15.56-15.165 4.126 0 8.084 1.597 11.001 4.441 2.918 2.844 4.558 6.702 4.558 10.724 0 8.376-6.966 15.165-15.56 15.165-8.593 0-15.559-6.79-15.559-15.165z"
     stroke-width="2"
     stroke="#000"
     id="path4" />
  <path
     fill="#fff"
     stroke="#000"
     stroke-width="2"
     d="M53.433 27.858h186.331v61.654H53.433z"
     id="path6" />
  <path
     fill="#000"
     stroke="#000"
     stroke-width="2"
     d="M19.638 109.15h305.984v148.425H19.638z"
     id="path8" />
  <path
     fill="#fff"
     stroke="#000"
     stroke-width="2"
     d="M21.465 275.386h141.118v52.52H21.465zM180.622 275.614H321.74v52.52H180.622z"
     id="path10" />
  <g
     aria-label="ADD 2"
     style="font-weight:700;font-size:40px;line-height:1.25;font-family:Calibri;-inkscape-font-specification:'Calibri Bold';letter-spacing:0;word-spacing:0;fill:#000000"
     id="text14">
    <path
       d="m 113.88203,67.959938 q 0.23438,0.703125 0.29297,1.113281 0.0586,0.410157 -0.15625,0.625 -0.21484,0.195313 -0.76172,0.234375 -0.54687,0.05859 -1.5039,0.05859 -0.9961,0 -1.5625,-0.03906 -0.54688,-0.01953 -0.83985,-0.09766 -0.29296,-0.09766 -0.41015,-0.253906 -0.11719,-0.15625 -0.19531,-0.410156 l -1.69922,-5.078125 h -9.492191 l -1.601562,4.941406 q -0.07813,0.273438 -0.214844,0.46875 -0.117187,0.175781 -0.410156,0.292969 -0.273438,0.09766 -0.800781,0.136719 -0.507813,0.03906 -1.347657,0.03906 -0.898437,0 -1.40625,-0.05859 -0.507812,-0.05859 -0.703125,-0.273437 -0.195312,-0.234375 -0.136718,-0.644531 0.05859,-0.410157 0.292968,-1.09375 l 7.792969,-22.421875 q 0.117188,-0.332032 0.273438,-0.527344 0.15625,-0.214844 0.488281,-0.3125 0.351558,-0.117188 0.957028,-0.136719 0.60547,-0.03906 1.60157,-0.03906 1.15234,0 1.83593,0.03906 0.6836,0.01953 1.05469,0.136719 0.39063,0.09766 0.54688,0.3125 0.17578,0.214844 0.29296,0.585937 z M 102.28047,49.424782 h -0.0195 l -3.574218,10.742187 h 7.167968 z"
       style=""
       id="path4608" />
    <path
       d="m 138.39375,56.866188 q 0,3.476563 -0.91797,5.957031 -0.89843,2.460938 -2.59765,4.023438 -1.69922,1.5625 -4.14063,2.304687 -2.42187,0.722657 -5.78125,0.722657 h -6.03515 q -0.64453,0 -1.09375,-0.371094 -0.42969,-0.390625 -0.42969,-1.25 v -22.03125 q 0,-0.859375 0.42969,-1.230469 0.44922,-0.390625 1.09375,-0.390625 h 6.48437 q 3.37891,0 5.72266,0.800781 2.36328,0.78125 3.96484,2.34375 1.6211,1.542969 2.46094,3.828125 0.83984,2.285157 0.83984,5.292969 z m -5.3125,0.175781 q 0,-1.796875 -0.42968,-3.339843 -0.41016,-1.542969 -1.34766,-2.675782 -0.91797,-1.132812 -2.38281,-1.757812 -1.44532,-0.644531 -3.8086,-0.644531 h -2.59765 v 17.1875 h 2.67578 q 2.10937,0 3.55469,-0.546875 1.44531,-0.546875 2.40234,-1.640625 0.97656,-1.113282 1.44531,-2.753907 0.48828,-1.640625 0.48828,-3.828125 z"
       style=""
       id="path4610" />
    <path
       d="m 163.62813,56.866188 q 0,3.476563 -0.91797,5.957031 -0.89844,2.460938 -2.59766,4.023438 -1.69922,1.5625 -4.14062,2.304687 -2.42188,0.722657 -5.78125,0.722657 h -6.03516 q -0.64453,0 -1.09375,-0.371094 -0.42969,-0.390625 -0.42969,-1.25 v -22.03125 q 0,-0.859375 0.42969,-1.230469 0.44922,-0.390625 1.09375,-0.390625 h 6.48438 q 3.3789,0 5.72265,0.800781 2.36328,0.78125 3.96485,2.34375 1.62109,1.542969 2.46093,3.828125 0.83985,2.285157 0.83985,5.292969 z m -5.3125,0.175781 q 0,-1.796875 -0.42969,-3.339843 -0.41016,-1.542969 -1.34766,-2.675782 -0.91796,-1.132812 -2.38281,-1.757812 -1.44531,-0.644531 -3.80859,-0.644531 h -2.59766 v 17.1875 h 2.67578 q 2.10938,0 3.55469,-0.546875 1.44531,-0.546875 2.40234,-1.640625 0.97657,-1.113282 1.44532,-2.753907 0.48828,-1.640625 0.48828,-3.828125 z"
       style=""
       id="path4612" />
    <path
       d="m 192.84688,67.784157 q 0,0.566406 -0.0586,0.976562 -0.0391,0.390625 -0.13671,0.644532 -0.0977,0.253906 -0.25391,0.371093 -0.15625,0.09766 -0.35156,0.09766 h -14.53125 q -0.42969,0 -0.74219,-0.07813 -0.3125,-0.07813 -0.50781,-0.292969 -0.19532,-0.234375 -0.29297,-0.664063 -0.0781,-0.429687 -0.0781,-1.113281 0,-0.644531 0.0586,-1.09375 0.0586,-0.46875 0.21484,-0.820312 0.15625,-0.371094 0.39063,-0.703125 0.2539,-0.351563 0.64453,-0.761719 l 4.375,-4.6875 q 1.30859,-1.367188 2.10937,-2.480469 0.80078,-1.132812 1.25,-2.050781 0.44922,-0.9375 0.60547,-1.71875 0.17578,-0.78125 0.17578,-1.484375 0,-0.644531 -0.21484,-1.210938 -0.19531,-0.585937 -0.60547,-1.015625 -0.39063,-0.429687 -0.99609,-0.664062 -0.60547,-0.253906 -1.42579,-0.253906 -1.15234,0 -2.05078,0.292968 -0.8789,0.292969 -1.5625,0.664063 -0.66406,0.351562 -1.11328,0.664062 -0.44922,0.292969 -0.70312,0.292969 -0.17578,0 -0.3125,-0.117187 -0.11719,-0.117188 -0.19532,-0.390625 -0.0781,-0.273438 -0.13671,-0.722657 -0.0391,-0.46875 -0.0391,-1.132812 0,-0.449219 0.0195,-0.742188 0.0391,-0.3125 0.0977,-0.527343 0.0586,-0.234375 0.15625,-0.390625 0.0977,-0.175782 0.33203,-0.410157 0.25391,-0.234375 0.89844,-0.585937 0.66406,-0.371094 1.62109,-0.703125 0.95703,-0.351563 2.10938,-0.585938 1.15234,-0.234375 2.40234,-0.234375 1.97266,0 3.4375,0.507813 1.48438,0.488281 2.46094,1.386719 0.97656,0.878906 1.44531,2.109375 0.48828,1.210937 0.48828,2.617187 0,1.230469 -0.23437,2.421875 -0.23438,1.191406 -0.97656,2.578125 -0.74219,1.367188 -2.08985,3.046875 -1.34765,1.660156 -3.57422,3.867188 l -2.94922,3.027343 h 9.96094 q 0.19531,0 0.35156,0.117188 0.17579,0.117187 0.29297,0.371094 0.11719,0.234375 0.17578,0.644531 0.0586,0.390625 0.0586,0.9375 z"
       style=""
       id="path4614" />
  </g>
  <g
     aria-label="RESET"
     style="font-weight:700;font-size:32px;line-height:1.25;font-family:Calibri;-inkscape-font-specification:'Calibri Bold';letter-spacing:0;word-spacing:0;fill:#000000"
     id="text18">
    <path
       d="m 66.069126,311.84674 q 0,0.17188 -0.0625,0.29688 -0.0625,0.10937 -0.296875,0.1875 -0.234375,0.0781 -0.6875,0.10937 -0.453125,0.0312 -1.234375,0.0312 -0.65625,0 -1.046875,-0.0312 -0.390625,-0.0312 -0.625,-0.10937 -0.21875,-0.0937 -0.3125,-0.21875 -0.09375,-0.14063 -0.15625,-0.32813 l -1.8125,-4.51562 q -0.328125,-0.76563 -0.640625,-1.35938 -0.3125,-0.59375 -0.703125,-0.98437 -0.375,-0.40625 -0.875,-0.60938 -0.5,-0.20312 -1.15625,-0.20312 h -1.28125 v 7.70312 q 0,0.15625 -0.109375,0.28125 -0.09375,0.125 -0.328125,0.20313 -0.234375,0.0781 -0.625,0.125 -0.390625,0.0469 -1,0.0469 -0.59375,0 -1,-0.0469 -0.390625,-0.0469 -0.625,-0.125 -0.234375,-0.0781 -0.328125,-0.20313 -0.09375,-0.125 -0.09375,-0.28125 v -18.35937 q 0,-0.6875 0.34375,-0.98438 0.359375,-0.3125 0.875,-0.3125 h 5.234375 q 0.796875,0 1.3125,0.0312 0.515625,0.0312 0.9375,0.0781 1.21875,0.17187 2.1875,0.59375 0.984375,0.42187 1.65625,1.10937 0.6875,0.67188 1.046875,1.60938 0.359375,0.92187 0.359375,2.125 0,1.01562 -0.265625,1.85937 -0.25,0.82813 -0.75,1.48438 -0.5,0.65625 -1.234375,1.14062 -0.734375,0.48438 -1.671875,0.78125 0.453125,0.21875 0.84375,0.53125 0.40625,0.3125 0.75,0.76563 0.359375,0.4375 0.671875,1.01562 0.3125,0.5625 0.609375,1.28125 l 1.703125,3.98438 q 0.234375,0.59375 0.3125,0.875 0.07813,0.26562 0.07813,0.42187 z m -5.296875,-13.71875 q 0,-1 -0.453125,-1.6875 -0.453125,-0.6875 -1.484375,-0.96875 -0.3125,-0.0781 -0.71875,-0.125 -0.390625,-0.0469 -1.09375,-0.0469 h -1.84375 v 5.73437 h 2.09375 q 0.875,0 1.53125,-0.20312 0.65625,-0.21875 1.09375,-0.59375 0.4375,-0.39063 0.65625,-0.92188 0.21875,-0.53125 0.21875,-1.1875 z"
       style=""
       id="path4617" />
    <path
       d="m 81.053501,310.76862 q 0,0.45312 -0.04687,0.76562 -0.03125,0.29688 -0.109375,0.48438 -0.07813,0.1875 -0.203125,0.28125 -0.109375,0.0781 -0.25,0.0781 h -10.15625 q -0.515625,0 -0.875,-0.29687 -0.34375,-0.3125 -0.34375,-1 v -17.625 q 0,-0.6875 0.34375,-0.98438 0.359375,-0.3125 0.875,-0.3125 h 10.09375 q 0.140625,0 0.25,0.0781 0.109375,0.0781 0.1875,0.28125 0.07813,0.1875 0.109375,0.5 0.04687,0.29687 0.04687,0.76562 0,0.4375 -0.04687,0.75 -0.03125,0.29688 -0.109375,0.48438 -0.07813,0.1875 -0.1875,0.28125 -0.109375,0.0781 -0.25,0.0781 h -7.21875 v 4.9375 h 6.109375 q 0.140625,0 0.25,0.0937 0.125,0.0781 0.203125,0.26563 0.07813,0.17187 0.109375,0.48437 0.04687,0.29688 0.04687,0.73438 0,0.45312 -0.04687,0.75 -0.03125,0.29687 -0.109375,0.48437 -0.07813,0.17188 -0.203125,0.25 -0.109375,0.0781 -0.25,0.0781 h -6.109375 v 5.70312 h 7.28125 q 0.140625,0 0.25,0.0937 0.125,0.0781 0.203125,0.26563 0.07813,0.1875 0.109375,0.5 0.04687,0.29687 0.04687,0.75 z"
       style=""
       id="path4619" />
    <path
       d="m 96.366001,306.31549 q 0,1.59375 -0.59375,2.79688 -0.59375,1.20312 -1.609375,2.01562 -1.015625,0.79688 -2.375,1.20313 -1.359375,0.40625 -2.90625,0.40625 -1.046875,0 -1.953125,-0.17188 -0.890625,-0.17187 -1.578125,-0.40625 -0.6875,-0.25 -1.15625,-0.51562 -0.453125,-0.26563 -0.65625,-0.46875 -0.203125,-0.20313 -0.296875,-0.57813 -0.07813,-0.39062 -0.07813,-1.10937 0,-0.48438 0.03125,-0.8125 0.03125,-0.32813 0.09375,-0.53125 0.07813,-0.20313 0.1875,-0.28125 0.125,-0.0937 0.28125,-0.0937 0.21875,0 0.609375,0.26562 0.40625,0.25 1.03125,0.5625 0.625,0.3125 1.484375,0.57813 0.875,0.25 2.015625,0.25 0.75,0 1.34375,-0.17188 0.59375,-0.1875 1,-0.51562 0.421875,-0.32813 0.640625,-0.8125 0.21875,-0.48438 0.21875,-1.07813 0,-0.6875 -0.375,-1.17187 -0.375,-0.5 -0.984375,-0.875 -0.59375,-0.39063 -1.359375,-0.71875 -0.765625,-0.34375 -1.578125,-0.71875 -0.8125,-0.375 -1.578125,-0.84375 -0.765625,-0.48438 -1.375,-1.14063 -0.59375,-0.67187 -0.96875,-1.57812 -0.375,-0.90625 -0.375,-2.17188 0,-1.45312 0.53125,-2.54687 0.546875,-1.10938 1.453125,-1.82813 0.921875,-0.73437 2.15625,-1.09375 1.25,-0.35937 2.640625,-0.35937 0.71875,0 1.4375,0.10937 0.71875,0.10938 1.34375,0.29688 0.625,0.1875 1.109375,0.42187 0.484375,0.23438 0.640625,0.39063 0.15625,0.15625 0.203125,0.26562 0.0625,0.10938 0.09375,0.29688 0.04687,0.17187 0.0625,0.45312 0.01563,0.26563 0.01563,0.67188 0,0.45312 -0.03125,0.76562 -0.01563,0.3125 -0.07813,0.51563 -0.04687,0.20312 -0.15625,0.29687 -0.09375,0.0937 -0.265625,0.0937 -0.171875,0 -0.546875,-0.21875 -0.375,-0.21875 -0.921875,-0.46875 -0.546875,-0.26562 -1.265625,-0.46875 -0.71875,-0.21875 -1.578125,-0.21875 -0.671875,0 -1.171875,0.17188 -0.5,0.15625 -0.84375,0.45312 -0.328125,0.28125 -0.5,0.6875 -0.15625,0.40625 -0.15625,0.85938 0,0.67187 0.359375,1.17187 0.375,0.48438 0.984375,0.875 0.625,0.375 1.40625,0.71875 0.78125,0.32813 1.59375,0.70313 0.8125,0.375 1.59375,0.85937 0.78125,0.46875 1.390625,1.14063 0.609375,0.65625 0.984375,1.5625 0.375,0.89062 0.375,2.10937 z"
       style=""
       id="path4621" />
    <path
       d="m 111.491,310.76862 q 0,0.45312 -0.0469,0.76562 -0.0312,0.29688 -0.10938,0.48438 -0.0781,0.1875 -0.20312,0.28125 -0.10938,0.0781 -0.25,0.0781 h -10.15625 q -0.51563,0 -0.875004,-0.29687 -0.34375,-0.3125 -0.34375,-1 v -17.625 q 0,-0.6875 0.34375,-0.98438 0.359374,-0.3125 0.875004,-0.3125 h 10.09375 q 0.14062,0 0.25,0.0781 0.10937,0.0781 0.1875,0.28125 0.0781,0.1875 0.10937,0.5 0.0469,0.29687 0.0469,0.76562 0,0.4375 -0.0469,0.75 -0.0312,0.29688 -0.10937,0.48438 -0.0781,0.1875 -0.1875,0.28125 -0.10938,0.0781 -0.25,0.0781 h -7.21875 v 4.9375 h 6.10937 q 0.14063,0 0.25,0.0937 0.125,0.0781 0.20313,0.26563 0.0781,0.17187 0.10937,0.48437 0.0469,0.29688 0.0469,0.73438 0,0.45312 -0.0469,0.75 -0.0312,0.29687 -0.10937,0.48437 -0.0781,0.17188 -0.20313,0.25 -0.10937,0.0781 -0.25,0.0781 h -6.10937 v 5.70312 h 7.28125 q 0.14062,0 0.25,0.0937 0.125,0.0781 0.20312,0.26563 0.0781,0.1875 0.10938,0.5 0.0469,0.29687 0.0469,0.75 z"
       style=""
       id="path4623" />
    <path
       d="m 128.58475,293.84674 q 0,0.45313 -0.0469,0.78125 -0.0312,0.3125 -0.10938,0.51563 -0.0781,0.1875 -0.20312,0.28125 -0.10938,0.0937 -0.25,0.0937 h -5.0625 v 16.29687 q 0,0.15625 -0.10938,0.28125 -0.0937,0.125 -0.32812,0.20313 -0.23438,0.0781 -0.64063,0.125 -0.39062,0.0469 -0.98437,0.0469 -0.59375,0 -1,-0.0469 -0.39063,-0.0469 -0.625,-0.125 -0.23438,-0.0781 -0.34375,-0.20313 -0.0937,-0.125 -0.0937,-0.28125 v -16.29687 h -5.0625 q -0.15625,0 -0.26563,-0.0937 -0.10937,-0.0937 -0.1875,-0.28125 -0.0781,-0.20313 -0.125,-0.51563 -0.0312,-0.32812 -0.0312,-0.78125 0,-0.46875 0.0312,-0.79687 0.0469,-0.32813 0.125,-0.51563 0.0781,-0.20312 0.1875,-0.28125 0.10938,-0.0937 0.26563,-0.0937 h 14.25 q 0.14062,0 0.25,0.0937 0.125,0.0781 0.20312,0.28125 0.0781,0.1875 0.10938,0.51563 0.0469,0.32812 0.0469,0.79687 z"
       style=""
       id="path4625" />
  </g>
  <g
     aria-label="CONFIRM"
     style="font-weight:700;font-size:32px;line-height:1.25;font-family:Calibri;-inkscape-font-specification:'Calibri Bold';letter-spacing:0;word-spacing:0;fill:#000000"
     id="text22">
    <path
       d="m 201.1485,308.4025 q 0,0.39062 -0.0312,0.67187 -0.0156,0.26563 -0.0625,0.46875 -0.0469,0.1875 -0.125,0.32813 -0.0781,0.14062 -0.25,0.32812 -0.17188,0.17188 -0.67188,0.45313 -0.48437,0.28125 -1.20312,0.54687 -0.70313,0.25 -1.625,0.42188 -0.90625,0.17187 -1.96875,0.17187 -2.07813,0 -3.75,-0.64062 -1.67188,-0.64063 -2.84375,-1.90625 -1.17188,-1.28125 -1.79688,-3.1875 -0.625,-1.90625 -0.625,-4.4375 0,-2.57813 0.6875,-4.57813 0.6875,-2 1.92188,-3.35937 1.23437,-1.35938 2.95312,-2.0625 1.73438,-0.70313 3.8125,-0.70313 0.84375,0 1.625,0.14063 0.78125,0.14062 1.4375,0.375 0.67188,0.21875 1.20313,0.51562 0.53125,0.29688 0.73437,0.51563 0.21875,0.20312 0.29688,0.34375 0.0781,0.14062 0.125,0.35937 0.0469,0.21875 0.0625,0.51563 0.0312,0.29687 0.0312,0.73437 0,0.46875 -0.0312,0.79688 -0.0312,0.32812 -0.10938,0.53125 -0.0781,0.20312 -0.1875,0.29687 -0.10937,0.0937 -0.25,0.0937 -0.23437,0 -0.59375,-0.26562 -0.35937,-0.28125 -0.9375,-0.60938 -0.5625,-0.34375 -1.35937,-0.60937 -0.78125,-0.28125 -1.875,-0.28125 -1.20313,0 -2.15625,0.5 -0.9375,0.48437 -1.60938,1.40625 -0.65625,0.90625 -1,2.20312 -0.34375,1.29688 -0.34375,2.92188 0,1.78125 0.35938,3.09375 0.375,1.29687 1.04687,2.14062 0.6875,0.84375 1.64063,1.26563 0.96875,0.40625 2.17187,0.40625 1.09375,0 1.89063,-0.25 0.79687,-0.26563 1.35937,-0.57813 0.57813,-0.3125 0.9375,-0.5625 0.375,-0.25 0.57813,-0.25 0.15625,0 0.25,0.0625 0.0937,0.0625 0.15625,0.25 0.0625,0.1875 0.0937,0.53125 0.0312,0.32813 0.0312,0.89063 z"
       style=""
       id="path4628" />
    <path
       d="m 222.03912,301.12125 q 0,2.51562 -0.625,4.5 -0.625,1.98437 -1.85937,3.375 -1.23438,1.375 -3.0625,2.10937 -1.8125,0.71875 -4.20313,0.71875 -2.35937,0 -4.125,-0.60937 -1.75,-0.625 -2.92187,-1.89063 -1.17188,-1.26562 -1.76563,-3.21875 -0.57812,-1.95312 -0.57812,-4.625 0,-2.45312 0.625,-4.40625 0.625,-1.96875 1.85937,-3.34375 1.23438,-1.375 3.04688,-2.10937 1.82812,-0.73438 4.23437,-0.73438 2.29688,0 4.04688,0.60938 1.76562,0.60937 2.9375,1.875 1.1875,1.26562 1.78125,3.20312 0.60937,1.92188 0.60937,4.54688 z m -4.3125,0.21875 q 0,-1.59375 -0.25,-2.89063 -0.25,-1.3125 -0.85937,-2.23437 -0.59375,-0.9375 -1.59375,-1.4375 -1,-0.51563 -2.5,-0.51563 -1.51563,0 -2.53125,0.57813 -1.01563,0.5625 -1.64063,1.51562 -0.625,0.95313 -0.89062,2.23438 -0.25,1.26562 -0.25,2.6875 0,1.65625 0.25,2.98437 0.25,1.3125 0.84375,2.25 0.59375,0.9375 1.59375,1.4375 1,0.48438 2.51562,0.48438 1.51563,0 2.53125,-0.5625 1.01563,-0.5625 1.64063,-1.53125 0.625,-0.96875 0.875,-2.25 0.26562,-1.29688 0.26562,-2.75 z"
       style=""
       id="path4630" />
    <path
       d="m 242.1485,310.0275 q 0,0.35937 -0.125,0.64062 -0.125,0.28125 -0.34375,0.46875 -0.20313,0.1875 -0.5,0.28125 -0.28125,0.0781 -0.57813,0.0781 h -1.75 q -0.54687,0 -0.95312,-0.10938 -0.39063,-0.10937 -0.73438,-0.39062 -0.32812,-0.29688 -0.64062,-0.78125 -0.3125,-0.5 -0.70313,-1.28125 l -5.03125,-9.45313 q -0.4375,-0.84375 -0.89062,-1.8125 -0.45313,-0.98437 -0.8125,-1.90625 h -0.0312 q 0.0625,1.125 0.0937,2.25 0.0312,1.10938 0.0312,2.29688 v 10.57812 q 0,0.15625 -0.0937,0.28125 -0.0781,0.125 -0.29688,0.21875 -0.20312,0.0781 -0.5625,0.125 -0.35937,0.0469 -0.92187,0.0469 -0.54688,0 -0.90625,-0.0469 -0.35938,-0.0469 -0.5625,-0.125 -0.20313,-0.0937 -0.28125,-0.21875 -0.0781,-0.125 -0.0781,-0.28125 V 292.715 q 0,-0.73438 0.42188,-1.09375 0.4375,-0.375 1.0625,-0.375 h 2.20312 q 0.59375,0 1,0.10937 0.40625,0.0937 0.71875,0.32813 0.32813,0.23437 0.60938,0.65625 0.28125,0.40625 0.57812,1.01562 l 3.9375,7.39063 q 0.34375,0.67187 0.67188,1.32812 0.34375,0.64063 0.65625,1.29688 0.3125,0.64062 0.60937,1.26562 0.29688,0.625 0.57813,1.25 h 0.0156 q -0.0469,-1.09375 -0.0781,-2.28125 -0.0156,-1.1875 -0.0156,-2.26562 v -9.48438 q 0,-0.15625 0.0937,-0.28125 0.0937,-0.125 0.3125,-0.21875 0.21875,-0.0937 0.57813,-0.125 0.35937,-0.0469 0.92187,-0.0469 0.53125,0 0.89063,0.0469 0.35937,0.0312 0.54687,0.125 0.20313,0.0937 0.28125,0.21875 0.0781,0.125 0.0781,0.28125 z"
       style=""
       id="path4632" />
    <path
       d="m 257.88287,292.93375 q 0,0.46875 -0.0469,0.79687 -0.0312,0.3125 -0.125,0.5 -0.0781,0.1875 -0.1875,0.28125 -0.10938,0.0937 -0.25,0.0937 h -6.60938 v 5.4375 h 6.20313 q 0.14062,0 0.25,0.0781 0.10937,0.0781 0.1875,0.26562 0.0937,0.1875 0.125,0.5 0.0469,0.3125 0.0469,0.78125 0,0.46875 -0.0469,0.78125 -0.0312,0.3125 -0.125,0.51563 -0.0781,0.20312 -0.1875,0.29687 -0.10938,0.0781 -0.25,0.0781 h -6.20313 v 7.53125 q 0,0.17187 -0.0937,0.29687 -0.0937,0.125 -0.34375,0.21875 -0.23437,0.0781 -0.625,0.125 -0.39062,0.0469 -1,0.0469 -0.59375,0 -1,-0.0469 -0.39062,-0.0469 -0.625,-0.125 -0.23437,-0.0937 -0.34375,-0.21875 -0.0937,-0.125 -0.0937,-0.29687 v -18.32813 q 0,-0.6875 0.34375,-0.98437 0.35938,-0.3125 0.875,-0.3125 h 9.51563 q 0.14062,0 0.25,0.0937 0.10937,0.0781 0.1875,0.28125 0.0937,0.1875 0.125,0.51562 0.0469,0.32813 0.0469,0.79688 z"
       style=""
       id="path4634" />
    <path
       d="m 265.35162,310.9025 q 0,0.15625 -0.10937,0.28125 -0.0937,0.125 -0.32813,0.20312 -0.23437,0.0781 -0.625,0.125 -0.39062,0.0469 -1,0.0469 -0.59375,0 -1,-0.0469 -0.39062,-0.0469 -0.625,-0.125 -0.23437,-0.0781 -0.34375,-0.20312 -0.0937,-0.125 -0.0937,-0.28125 v -19.09375 q 0,-0.15625 0.0937,-0.28125 0.10938,-0.125 0.34375,-0.20313 0.25,-0.0781 0.64063,-0.125 0.39062,-0.0469 0.98437,-0.0469 0.60938,0 1,0.0469 0.39063,0.0469 0.625,0.125 0.23438,0.0781 0.32813,0.20313 0.10937,0.125 0.10937,0.28125 z"
       style=""
       id="path4636" />
    <path
       d="m 284.78912,310.93375 q 0,0.17187 -0.0625,0.29687 -0.0625,0.10938 -0.29687,0.1875 -0.23438,0.0781 -0.6875,0.10938 -0.45313,0.0312 -1.23438,0.0312 -0.65625,0 -1.04687,-0.0312 -0.39063,-0.0312 -0.625,-0.10938 -0.21875,-0.0937 -0.3125,-0.21875 -0.0937,-0.14062 -0.15625,-0.32812 l -1.8125,-4.51563 q -0.32813,-0.76562 -0.64063,-1.35937 -0.3125,-0.59375 -0.70312,-0.98438 -0.375,-0.40625 -0.875,-0.60937 -0.5,-0.20313 -1.15625,-0.20313 h -1.28125 v 7.70313 q 0,0.15625 -0.10938,0.28125 -0.0937,0.125 -0.32812,0.20312 -0.23438,0.0781 -0.625,0.125 -0.39063,0.0469 -1,0.0469 -0.59375,0 -1,-0.0469 -0.39063,-0.0469 -0.625,-0.125 -0.23438,-0.0781 -0.32813,-0.20312 -0.0937,-0.125 -0.0937,-0.28125 v -18.35938 q 0,-0.6875 0.34375,-0.98437 0.35938,-0.3125 0.875,-0.3125 h 5.23438 q 0.79687,0 1.3125,0.0312 0.51562,0.0312 0.9375,0.0781 1.21875,0.17188 2.1875,0.59375 0.98437,0.42188 1.65625,1.10938 0.6875,0.67187 1.04687,1.60937 0.35938,0.92188 0.35938,2.125 0,1.01563 -0.26563,1.85938 -0.25,0.82812 -0.75,1.48437 -0.5,0.65625 -1.23437,1.14063 -0.73438,0.48437 -1.67188,0.78125 0.45313,0.21875 0.84375,0.53125 0.40625,0.3125 0.75,0.76562 0.35938,0.4375 0.67188,1.01563 0.3125,0.5625 0.60937,1.28125 l 1.70313,3.98437 q 0.23437,0.59375 0.3125,0.875 0.0781,0.26563 0.0781,0.42188 z M 279.49225,297.215 q 0,-1 -0.45313,-1.6875 -0.45312,-0.6875 -1.48437,-0.96875 -0.3125,-0.0781 -0.71875,-0.125 -0.39063,-0.0469 -1.09375,-0.0469 h -1.84375 v 5.73438 h 2.09375 q 0.875,0 1.53125,-0.20313 0.65625,-0.21875 1.09375,-0.59375 0.4375,-0.39062 0.65625,-0.92187 0.21875,-0.53125 0.21875,-1.1875 z"
       style=""
       id="path4638" />
    <path
       d="m 311.35162,310.9025 q 0,0.15625 -0.0937,0.28125 -0.0781,0.125 -0.3125,0.20312 -0.21875,0.0781 -0.59375,0.125 -0.375,0.0469 -0.95312,0.0469 -0.5625,0 -0.9375,-0.0469 -0.375,-0.0469 -0.59375,-0.125 -0.21875,-0.0781 -0.3125,-0.20312 -0.0937,-0.125 -0.0937,-0.28125 v -16.45313 h -0.0312 l -5.85938,16.4375 q -0.0625,0.20313 -0.20312,0.34375 -0.14063,0.125 -0.39063,0.20313 -0.23437,0.0781 -0.60937,0.0937 -0.375,0.0312 -0.90625,0.0312 -0.53125,0 -0.90625,-0.0469 -0.375,-0.0312 -0.625,-0.10937 -0.23438,-0.0937 -0.375,-0.21875 -0.14063,-0.125 -0.1875,-0.29688 l -5.65625,-16.4375 h -0.0312 v 16.45313 q 0,0.15625 -0.0937,0.28125 -0.0781,0.125 -0.3125,0.20312 -0.23438,0.0781 -0.60938,0.125 -0.35937,0.0469 -0.9375,0.0469 -0.5625,0 -0.9375,-0.0469 -0.375,-0.0469 -0.60937,-0.125 -0.21875,-0.0781 -0.3125,-0.20312 -0.0781,-0.125 -0.0781,-0.28125 v -18.01563 q 0,-0.79687 0.42188,-1.21875 0.42187,-0.42187 1.125,-0.42187 h 2.6875 q 0.71875,0 1.23437,0.125 0.51563,0.10937 0.89063,0.39062 0.375,0.26563 0.625,0.71875 0.25,0.4375 0.4375,1.09375 l 4.375,12.04688 h 0.0625 l 4.53125,-12.01563 q 0.20312,-0.65625 0.4375,-1.10937 0.25,-0.45313 0.5625,-0.73438 0.32812,-0.28125 0.76562,-0.39062 0.4375,-0.125 1.01563,-0.125 h 2.76562 q 0.42188,0 0.71875,0.10937 0.3125,0.10938 0.5,0.32813 0.20313,0.20312 0.29688,0.51562 0.10937,0.29688 0.10937,0.6875 z"
       style=""
       id="path4640" />
  </g>
  <path
     fill="#fff"
     stroke="#fff"
     stroke-width="2"
     d="M45.669 124.677h34.252v1.827H45.669z"
     id="path24" />
  <ellipse
     cx="40.417"
     cy="126.047"
     rx="5.709"
     ry="3.197"
     fill="#fff"
     stroke="#fff"
     stroke-width="2"
     id="ellipse26" />
  <path
     fill="#fff"
     stroke="#fff"
     stroke-width="2"
     d="M30.598 145v34.252h-1.827V145z"
     id="path28" />
  <ellipse
     cx="139.748"
     cy="-29.228"
     rx="5.709"
     ry="3.197"
     transform="rotate(90)"
     fill="#fff"
     stroke="#fff"
     stroke-width="2"
     id="ellipse30" />
  <path
     fill="#fff"
     stroke="#fff"
     stroke-width="2"
     d="M46.811 185.874h34.252v1.827H46.811z"
     id="path32" />
  <ellipse
     cx="41.559"
     cy="187.244"
     rx="5.709"
     ry="3.197"
     fill="#fff"
     stroke="#fff"
     stroke-width="2"
     id="ellipse34" />
  <path
     fill="#fff"
     stroke="#fff"
     stroke-width="2"
     d="M48.638 242.504H82.89v1.827H48.638z"
     id="path36" />
  <ellipse
     cx="43.386"
     cy="243.874"
     rx="5.709"
     ry="3.197"
     fill="#fff"
     stroke="#fff"
     stroke-width="2"
     id="ellipse38" />
  <path
     fill="#fff"
     stroke="#fff"
     stroke-width="2"
     d="M158.701 123.764h34.252v1.827h-34.252z"
     id="path40" />
  <ellipse
     cx="153.449"
     cy="125.134"
     rx="5.709"
     ry="3.197"
     fill="#fff"
     stroke="#fff"
     stroke-width="2"
     id="ellipse42" />
  <path
     fill="#fff"
     stroke="#fff"
     stroke-width="2"
     d="M264.654 122.85h34.252v1.827h-34.252z"
     id="path44" />
  <ellipse
     cx="259.402"
     cy="124.22"
     rx="5.709"
     ry="3.197"
     fill="#fff"
     stroke="#fff"
     stroke-width="2"
     id="ellipse46" />
  <path
     fill="#fff"
     stroke="#fff"
     stroke-width="2"
     d="M266.48 242.504h34.252v1.827H266.48z"
     id="path48" />
  <ellipse
     cx="261.228"
     cy="243.874"
     rx="5.709"
     ry="3.197"
     fill="#fff"
     stroke="#fff"
     stroke-width="2"
     id="ellipse50" />
  <path
     fill="#fff"
     stroke="#fff"
     stroke-width="2"
     d="M265.11 184.504h34.252v1.827H265.11z"
     id="path52" />
  <ellipse
     cx="259.858"
     cy="185.874"
     rx="5.709"
     ry="3.197"
     fill="#fff"
     stroke="#fff"
     stroke-width="2"
     id="ellipse54" />
  <path
     fill="#fff"
     stroke="#fff"
     stroke-width="2"
     d="M91.339 203.457v34.252h-1.827v-34.252z"
     id="path56" />
  <ellipse
     cx="198.205"
     cy="-89.969"
     rx="5.709"
     ry="3.197"
     transform="rotate(90)"
     fill="#fff"
     stroke="#fff"
     stroke-width="2"
     id="ellipse58" />
  <path
     fill="#fff"
     stroke="#fff"
     stroke-width="2"
     d="M202.772 145.913v34.252h-1.827v-34.252z"
     id="path60" />
  <ellipse
     cx="140.661"
     cy="-201.402"
     rx="5.709"
     ry="3.197"
     transform="rotate(90)"
     fill="#fff"
     stroke="#fff"
     stroke-width="2"
     id="ellipse62" />
  <path
     fill="#fff"
     stroke="#fff"
     stroke-width="2"
     d="M203.685 203.913v34.252h-1.827v-34.252z"
     id="path64" />
  <ellipse
     cx="198.661"
     cy="-202.315"
     rx="5.709"
     ry="3.197"
     transform="rotate(90)"
     fill="#fff"
     stroke="#fff"
     stroke-width="2"
     id="ellipse66" />
  <path
     fill="#fff"
     stroke="#fff"
     stroke-width="2"
     d="M245.701 142.26v34.252h-1.827V142.26z"
     id="path68" />
  <ellipse
     cx="137.008"
     cy="-244.331"
     rx="5.709"
     ry="3.197"
     transform="rotate(90)"
     fill="#fff"
     stroke="#fff"
     stroke-width="2"
     id="ellipse70" />
  <path
     fill="#fff"
     stroke="#fff"
     stroke-width="2"
     d="M311.921 142.26v34.252h-1.827V142.26z"
     id="path72" />
  <ellipse
     cx="137.008"
     cy="-310.551"
     rx="5.709"
     ry="3.197"
     transform="rotate(90)"
     fill="#fff"
     stroke="#fff"
     stroke-width="2"
     id="ellipse74" />
  <path
     fill="#fff"
     stroke="#fff"
     stroke-width="2"
     d="M247.984 203.457v34.252h-1.827v-34.252z"
     id="path76" />
  <ellipse
     cx="198.205"
     cy="-246.614"
     rx="5.709"
     ry="3.197"
     transform="rotate(90)"
     fill="#fff"
     stroke="#fff"
     stroke-width="2"
     id="ellipse78" />
  <path
     fill="#fff"
     stroke="#fff"
     stroke-width="2"
     d="M311.921 203.913v34.252h-1.827v-34.252z"
     id="path80" />
  <ellipse
     cx="198.661"
     cy="-310.551"
     rx="5.709"
     ry="3.197"
     transform="rotate(90)"
     fill="#fff"
     stroke="#fff"
     stroke-width="2"
     id="ellipse82" />
  <text
     style="line-height:1.25;-inkscape-font-specification:'Calibri Bold'"
     x="109.15"
     y="196.378"
     font-weight="700"
     font-size="40"
     font-family="Calibri"
     letter-spacing="0"
     word-spacing="0"
     fill="#fff"
     id="text86">
    <tspan
       x="109.15"
       y="196.378"
       id="tspan84">+</tspan>
  </text>
  <text
     style="line-height:1.25;-inkscape-font-specification:'Calibri Bold'"
     x="213.732"
     y="196.378"
     font-weight="700"
     font-size="40"
     font-family="Calibri"
     letter-spacing="0"
     word-spacing="0"
     fill="#fff"
     id="text90">
    <tspan
       x="213.732"
       y="196.378"
       id="tspan88">=</tspan>
  </text>
</svg>
