<svg xmlns="http://www.w3.org/2000/svg" fill="none" viewBox="0 0 348 348"><path fill="#000" d="M268 304.7c-.7-.7-1.8-.7-2.5 0l-3.7 3.6-3.6-3.7a1.8 1.8 0 1 0-2.5 2.5l3.5 3.6-3.6 3.6a1.8 1.8 0 1 0 2.4 2.6l3.7-3.6 3.6 3.7a1.8 1.8 0 1 0 2.6-2.5l-3.6-3.7 3.7-3.6c.7-.6.7-1.8 0-2.5z"/><path stroke="#000" stroke-width="2" d="M342 343.4H5V5.8h337Z"/><path stroke="#000" stroke-width="2" d="M64.3 308.7c0 8.3-7 15.1-15.5 15.1-4.1 0-8.1-1.6-11-4.4a15 15 0 0 1-4.6-10.7c0-8.4 7-15.2 15.6-15.2s15.5 6.8 15.5 15.2zM25.7 15.6 14 27.3v47.2l11.2 11.2h82.2L118.7 73l12 13 83-.2 11.5-11.6V27.7L213 15.3h-82.5l-11.7 12.4-12-12zM132.2 95.3l-11.6 11.6v47.3l11.2 11.2H214l11.2-12.9 12.1 13 82.9-.1 11.6-11.6v-46.5L319.4 95H237l-11.8 12.3-12-12zM132.2 177.3l-11.6 11.6v47.3l11.2 11.2H214l11.2-12.9 12.1 13 82.9-.1 11.6-11.6v-46.5L319.4 177H237l-11.8 12.3-12-12zM261.2 15.3h71.7v70.6h-71.7zM40.3 95.1l-11.5 11.5v46.7l12.4 12.4H89l11.4-11.5v-46.7L88 95H40.3z"/><rect width="60.2" height="12.4" x="34.3" y="185.4" stroke="#000" stroke-width="2" ry="6.2"/><rect width="60.2" height="12.4" x="34.3" y="225.4" stroke="#000" stroke-width="2" ry="6.2"/><ellipse cx="296.9" cy="50.2" stroke="#000" stroke-width="2" rx="30.8" ry="30.1"/><path stroke="#000" stroke-width="2" d="m296.6 21.3 25.4 44h-50.9z"/><path stroke="#000" stroke-width="2" d="M285.1 42.4h23.3v22.9h-23.3z"/><ellipse cx="296.7" cy="53.8" stroke="#000" stroke-width="2" rx="11.6" ry="11.4"/><path stroke="#000" stroke-width="2" d="m132.2 259.3-11.6 11.6v47.3l11.2 11.2H160l11.2-12.9 12.1 13 28.9-.1 11.6-11.6v-46.5L211.4 259H183l-11.8 12.3-12-12z"/><rect width="80.7" height="42" x="131.8" y="272.9" stroke="#000" stroke-width="2" ry="12.3"/><path fill="#000" d="m173.5 285.3-1.7 1.7 1.9 1.9a5.3 5.2 0 0 1 3.4 4.8 5.3 5.2 0 0 1 0 .1 5.3 5.2 0 0 1 0 .1 5.3 5.2 0 0 1-3.4 4.9l-2 1.8 1.8 1.7a9 8.8 0 0 0 7.2-7.7 9 8.8 0 0 0 0-.6 9 8.8 0 0 0 0-.2 9 8.8 0 0 0 0-.2 9 8.8 0 0 0 0-.6 9 8.8 0 0 0-7.2-7.7zm-1.7 15.3-2-1.9a5.3 5.2 0 0 1-3.3-4.8 5.3 5.2 0 0 1 0-.2 5.3 5.2 0 0 1 3.3-4.8l2-1.9-1.8-1.7a9 8.8 0 0 0-7.2 8.5 9 8.8 0 0 0 7.2 8.5z"/><path fill="#000" d="m171.8 287.7-1.6 1.5v9.2l1.6 1.6 1.7-1.6v-9.2zM171.8 279.8l-1.6 1.6v3.4l1.6 1.6 1.7-1.6v-3.5zm0 21.5-1.6 1.6v3.3l1.6 1.7 1.7-1.7v-3.4z"/><path fill="#000" d="m164.4 277.7-1.6 1.7 1.6 1.8h5.3l2-1.8h.2l2 1.8h5.3l1.6-1.8-1.6-1.7zm0 28.7-1.6 1.9 1.6 1.7h14.8l1.6-1.7-1.6-1.9h-5.3l-2 1.9h-.1l-2-1.9z"/><path stroke="#000" stroke-width="2" d="m254 259-11 11v48.8l10.6 10.6H303l11.1-11.1v-48.5L303.3 259Z"/><path stroke="#000" stroke-width="2" d="M248.9 264.6h26v26h-26zM281.8 264.6h26.3v26.3h-26.3zM281.8 297.5h26.3v26.3h-26.3zM248.5 297.5h26.3v26.3h-26.3z"/><path fill="#000" d="M303.2 304.4c-.7-.7-1.8-.7-2.5 0l-9 8.7-1.8-2c-.7-.7-1.8-.7-2.5 0s-.7 1.8 0 2.6l1.7 1.8 2.5 2.6 2.6-2.5 9-8.7c.7-.6.7-1.8 0-2.5z"/><rect width="8.4" height="1.7" x="284.3" y="276.9" fill="#000" stroke="#000" stroke-width=".3" ry=".9"/><rect width="8.4" height="1.7" x="297.5" y="276.9" fill="#000" stroke="#000" stroke-width=".3" ry=".9"/><circle cx="295" cy="277.8" r="1.1" fill="#000"/><path fill="#000" d="M259.6 266.9h-.1c-1.8.1-1.7 2 0 2.4h.1c2.4 0 4.3 1.7 4.6 3.9v8.6a4.7 4.7 0 0 1-4.7 4c-1.7.4-1.8 2.3 0 2.4h.1a7 7 0 0 0 5.9-3 7 7 0 0 0 5.8 3h.1c1.8-.1 1.7-2 0-2.4h-.1a4.7 4.7 0 0 1-4.6-4v-8.6a4.7 4.7 0 0 1 4.7-4c1.7-.3 1.8-2.2 0-2.3h-.1a7 7 0 0 0-5.8 3 7 7 0 0 0-5.9-3z"/><path fill="#000" stroke="#000" stroke-width=".6" d="m297 269.4-4.5-.2v1.5l4.5.1c4.5 0 6.1 1.6 6.1 4.1v.3h1.5v-.3c0-3.8-2.3-5.5-7.6-5.5zM295.2 286.2c.2 0 4.3.2 4.5.1V285l-4.5-.2c-4.5 0-6-1.7-6.1-4v-.4h-1.5v.3c0 4.2 2.3 5.6 7.6 5.6z"/></svg>