<svg height="512" width="512" fill="none" xmlns="http://www.w3.org/2000/svg"><path d="M18 18h476v476H18Z" stroke="#000" stroke-width="4"/><path d="M389.6 68 444 13.6 498.4 68 444 122.4z" stroke="#000" stroke-width="5.5"/><path d="m127.5 147.9-41.4 41.4L44.6 148l41.5-41.5zM147.3 44.6l41.4 41.5-41.4 41.4-41.5-41.4z" stroke="#000" stroke-width="6.6"/><path transform="scale(-1.00656 -.9934) rotate(-45)" d="M90.8-501h46.5v46.6H90.8zm0 46.6h46.5v46.5H90.8zm0 46.5h46.5v46.6H90.8z" stroke="#000" stroke-width="5.2"/><path transform="scale(-1.00656 -.9934) rotate(-45)" d="M90.8-361.3h46.5v46.5H90.8zm0 46.5h46.5v46.6H90.8zm0 46.6h46.5v46.5H90.8zM44.2-501h46.6v46.6H44.2zm0 46.6h46.6v46.5H44.2zm0 46.5h46.6v46.6H44.2z" stroke="#000" stroke-width="5.2"/><path transform="scale(-1.00656 -.9934) rotate(-45)" d="M44.2-361.3h46.6v46.5H44.2zm0 46.5h46.6v46.6H44.2zm0 46.6h46.6v46.5H44.2zM-2.3-501h46.5v46.6H-2.3zm0 46.6h46.5v46.5H-2.3zm0 46.5h46.5v46.6H-2.3z" stroke="#000" stroke-width="5.2"/><path transform="scale(-1.00656 -.9934) rotate(-45)" d="M-2.3-361.3h46.5v46.5H-2.3zm0 46.5h46.5v46.6H-2.3zm0 46.6h46.5v46.5H-2.3zm0-232.8h46.5v46.6H-2.3zm0 46.6h46.5v46.5H-2.3z" stroke="#000" stroke-width="5.2"/><path transform="scale(-1.00656 -.9934) rotate(-45)" d="M-2.3-407.9h46.5v46.6H-2.3z" stroke="#000" stroke-width="5.2"/><path transform="scale(-1.00656 -.9934) rotate(-45)" d="M-2.3-361.3h46.5v46.5H-2.3zm0 46.5h46.5v46.6H-2.3zm0 46.6h46.5v46.5H-2.3zM-49-501h46.6v46.6H-49zm0 46.6h46.6v46.5H-49z" stroke="#000" stroke-width="5.2"/><path transform="scale(-1.00656 -.9934) rotate(-45)" d="M-48.9-407.9h46.6v46.6H-49z" stroke="#000" stroke-width="5.2"/><path transform="scale(-1.00656 -.9934) rotate(-45)" d="M-48.9-361.3h46.6v46.5H-49zm0 46.5h46.6v46.6H-49zm0 46.6h46.6v46.5H-49zM-95.4-501H-49v46.6h-46.5zm0 46.6H-49v46.5h-46.5zm0 46.5H-49v46.6h-46.5z" stroke="#000" stroke-width="5.2"/><path transform="scale(-1.00656 -.9934) rotate(-45)" d="M-95.4-361.3H-49v46.5h-46.5zm0 46.5H-49v46.6h-46.5zm0 46.6H-49v46.5h-46.5zM-142-501h46.6v46.6H-142zm0 46.6h46.6v46.5H-142z" stroke="#000" stroke-width="5.2"/><path transform="scale(-1.00656 -.9934) rotate(-45)" d="M-142-407.9h46.6v46.6H-142z" stroke="#000" stroke-width="5.2"/><path transform="scale(-1.00656 -.9934) rotate(-45)" d="M-142-361.3h46.6v46.5H-142zm0 46.5h46.6v46.6H-142zm0 46.6h46.6v46.5H-142zm0-232.8h46.6v46.6H-142zm0 46.6h46.6v46.5H-142z" stroke="#000" stroke-width="5.2"/><path transform="scale(-1.00656 -.9934) rotate(-45)" d="M-142-407.9h46.6v46.6H-142z" stroke="#000" stroke-width="5.2"/><path transform="scale(-1.00656 -.9934) rotate(-45)" d="M-142-361.3h46.6v46.5H-142zm0 46.5h46.6v46.6H-142zm0 46.6h46.6v46.5H-142z" stroke="#000" stroke-width="5.2"/></svg>