<?xml version="1.0" encoding="UTF-8" standalone="no"?>
<svg
   viewBox="0.0 0.0 348.0 348.0"
   fill="none"
   version="1.1"
   id="svg6"
   sodipodi:docname="Mayhem.svg"
   inkscape:version="1.1 (c68e22c387, 2021-05-23)"
   xmlns:inkscape="http://www.inkscape.org/namespaces/inkscape"
   xmlns:sodipodi="http://sodipodi.sourceforge.net/DTD/sodipodi-0.dtd"
   xmlns="http://www.w3.org/2000/svg"
   xmlns:svg="http://www.w3.org/2000/svg">
  <defs
     id="defs10" />
  <sodipodi:namedview
     id="namedview8"
     pagecolor="#ffffff"
     bordercolor="#666666"
     borderopacity="1.0"
     inkscape:pageshadow="2"
     inkscape:pageopacity="0.0"
     inkscape:pagecheckerboard="0"
     showgrid="true"
     inkscape:zoom="1.6905541"
     inkscape:cx="235.13"
     inkscape:cy="206.14542"
     inkscape:window-width="1920"
     inkscape:window-height="1017"
     inkscape:window-x="1272"
     inkscape:window-y="-8"
     inkscape:window-maximized="1"
     inkscape:current-layer="svg6">
    <inkscape:grid
       type="xygrid"
       id="grid827"
       spacingx="10"
       spacingy="10" />
  </sodipodi:namedview>
  <path
     d="M5.079 5.776h336.913v337.67H5.08z"
     stroke-width="2"
     stroke="#000"
     id="path2" />
  <path
     style="fill:#b4b4b4;stroke:#000000;stroke-width:2.42032;stroke-linecap:butt;stroke-linejoin:miter;stroke-miterlimit:4;stroke-dasharray:none;stroke-opacity:1;fill-opacity:1"
     d="M 143.62567,234.89766 160,264.71016 h 32.74864 l 16.37433,-29.8125 -16.37433,-29.8125 H 160 Z"
     id="path899" />
  <path
     style="fill:#b4b4b4;stroke:#000000;stroke-width:2.42032;stroke-linecap:butt;stroke-linejoin:miter;stroke-miterlimit:4;stroke-dasharray:none;stroke-opacity:1;fill-opacity:1"
     d="M 143.62567,175.27266 160,205.08516 h 32.74864 l 16.37433,-29.8125 -16.37433,-29.8125 H 160 Z"
     id="path899-5" />
  <path
     style="fill:#b4b4b4;stroke:#000000;stroke-width:2.42032;stroke-linecap:butt;stroke-linejoin:miter;stroke-miterlimit:4;stroke-dasharray:none;stroke-opacity:1;fill-opacity:1"
     d="M 143.62567,115.64766 160,145.46016 h 32.74864 l 16.37433,-29.8125 -16.37433,-29.8125 H 160 Z"
     id="path899-0" />
  <path
     style="fill:#b4b4b4;stroke:#000000;stroke-width:2.42032;stroke-linecap:butt;stroke-linejoin:miter;stroke-miterlimit:4;stroke-dasharray:none;stroke-opacity:1;fill-opacity:1"
     d="m 45.38015,234.89766 16.37433,29.8125 h 32.748626 l 16.374334,-29.8125 -16.374334,-29.8125 H 61.75448 Z"
     id="path899-04" />
  <path
     style="fill:#b4b4b4;stroke:#000000;stroke-width:2.42032;stroke-linecap:butt;stroke-linejoin:miter;stroke-miterlimit:4;stroke-dasharray:none;stroke-opacity:1;fill-opacity:1"
     d="m 45.38015,175.27266 16.37433,29.8125 h 32.748626 l 16.374334,-29.8125 -16.374334,-29.8125 H 61.75448 Z"
     id="path899-5-6" />
  <path
     style="fill:#b4b4b4;stroke:#000000;stroke-width:2.42032;stroke-linecap:butt;stroke-linejoin:miter;stroke-miterlimit:4;stroke-dasharray:none;stroke-opacity:1;fill-opacity:1"
     d="m 45.38015,115.64766 16.37433,29.8125 H 94.503106 L 110.87744,115.64766 94.503106,85.83516 H 61.75448 Z"
     id="path899-0-8" />
  <path
     style="fill:#b4b4b4;stroke:#000000;stroke-width:2.42032;stroke-linecap:butt;stroke-linejoin:miter;stroke-miterlimit:4;stroke-dasharray:none;stroke-opacity:1;fill-opacity:1"
     d="m 241.872,234.89766 16.37435,29.8125 h 32.74862 l 16.37433,-29.8125 -16.37433,-29.8125 h -32.74862 z"
     id="path899-3" />
  <path
     style="fill:#b4b4b4;stroke:#000000;stroke-width:2.42032;stroke-linecap:butt;stroke-linejoin:miter;stroke-miterlimit:4;stroke-dasharray:none;stroke-opacity:1;fill-opacity:1"
     d="m 241.872,175.27266 16.37435,29.8125 h 32.74862 l 16.37433,-29.8125 -16.37433,-29.8125 h -32.74862 z"
     id="path899-5-9" />
  <path
     style="fill:#b4b4b4;stroke:#000000;stroke-width:2.42032;stroke-linecap:butt;stroke-linejoin:miter;stroke-miterlimit:4;stroke-dasharray:none;stroke-opacity:1;fill-opacity:1"
     d="m 241.872,115.64766 16.37435,29.8125 h 32.74862 l 16.37433,-29.8125 -16.37433,-29.8125 h -32.74862 z"
     id="path899-0-43" />
  <path
     style="fill:#b4b4b4;stroke:#000000;stroke-width:2.42032;stroke-linecap:butt;stroke-linejoin:miter;stroke-miterlimit:4;stroke-dasharray:none;stroke-opacity:1;fill-opacity:1"
     d="M 143.62567,56.02266 160,85.83516 h 32.74864 l 16.37433,-29.8125 -16.37433,-29.8125 H 160 Z"
     id="path899-9" />
  <path
     style="fill:#b4b4b4;stroke:#000000;stroke-width:2.42032;stroke-linecap:butt;stroke-linejoin:miter;stroke-miterlimit:4;stroke-dasharray:none;stroke-opacity:1;fill-opacity:1"
     d="M 143.62567,294.52266 160,324.33516 h 32.74864 l 16.37433,-29.8125 -16.37433,-29.8125 H 160 Z"
     id="path899-1" />
  <path
     style="fill:#b4b4b4;stroke:#000000;stroke-width:2.42032;stroke-linecap:butt;stroke-linejoin:miter;stroke-miterlimit:4;stroke-dasharray:none;stroke-opacity:1;fill-opacity:1"
     d="m 192.74864,205.08516 16.37433,29.8125 h 32.74863 l 16.37433,-29.8125 -16.37433,-29.8125 h -32.74863 z"
     id="path899-2" />
  <path
     style="fill:#b4b4b4;stroke:#000000;stroke-width:2.42032;stroke-linecap:butt;stroke-linejoin:miter;stroke-miterlimit:4;stroke-dasharray:none;stroke-opacity:1;fill-opacity:1"
     d="m 192.74864,145.46016 16.37433,29.8125 h 32.74863 l 16.37433,-29.8125 -16.37433,-29.8125 h -32.74863 z"
     id="path899-5-7" />
  <path
     style="fill:#b4b4b4;stroke:#000000;stroke-width:2.42032;stroke-linecap:butt;stroke-linejoin:miter;stroke-miterlimit:4;stroke-dasharray:none;stroke-opacity:1;fill-opacity:1"
     d="m 192.74864,85.83516 16.37433,29.8125 h 32.74863 l 16.37433,-29.8125 -16.37433,-29.8125 h -32.74863 z"
     id="path899-0-4" />
  <path
     style="fill:#b4b4b4;stroke:#000000;stroke-width:2.42032;stroke-linecap:butt;stroke-linejoin:miter;stroke-miterlimit:4;stroke-dasharray:none;stroke-opacity:1;fill-opacity:1"
     d="m 192.74864,264.71016 16.37433,29.8125 h 32.74863 l 16.37433,-29.8125 -16.37433,-29.8125 h -32.74863 z"
     id="path899-1-8" />
  <path
     style="fill:#b4b4b4;stroke:#000000;stroke-width:2.42032;stroke-linecap:butt;stroke-linejoin:miter;stroke-miterlimit:4;stroke-dasharray:none;stroke-opacity:1;fill-opacity:1"
     d="m 94.502707,205.08516 16.374323,29.8125 h 32.74864 L 160,205.08516 143.62567,175.27266 h -32.74864 z"
     id="path899-2-5" />
  <path
     style="fill:#b4b4b4;stroke:#000000;stroke-width:2.42032;stroke-linecap:butt;stroke-linejoin:miter;stroke-miterlimit:4;stroke-dasharray:none;stroke-opacity:1;fill-opacity:1"
     d="m 94.502707,145.46016 16.374323,29.8125 h 32.74864 L 160,145.46016 143.62567,115.64766 h -32.74864 z"
     id="path899-5-7-8" />
  <path
     style="fill:#b4b4b4;stroke:#000000;stroke-width:2.42032;stroke-linecap:butt;stroke-linejoin:miter;stroke-miterlimit:4;stroke-dasharray:none;stroke-opacity:1;fill-opacity:1"
     d="m 94.502707,85.83516 16.374323,29.8125 h 32.74864 L 160,85.83516 143.62567,56.02266 h -32.74864 z"
     id="path899-0-4-1" />
  <path
     style="fill:#b4b4b4;stroke:#000000;stroke-width:2.42032;stroke-linecap:butt;stroke-linejoin:miter;stroke-miterlimit:4;stroke-dasharray:none;stroke-opacity:1;fill-opacity:1"
     d="m 94.502707,264.71016 16.374323,29.8125 h 32.74864 L 160,264.71016 143.62567,234.89766 h -32.74864 z"
     id="path899-1-8-0" />
</svg>
