<svg xmlns="http://www.w3.org/2000/svg" viewBox="0 0 348 348" fill="none"><path d="M5.079 5.776h336.913v337.67H5.08z" stroke-width="2" stroke="#000" fill="#fff"/><path d="M282.734 40.554c0-8.376 6.966-15.165 15.56-15.165 4.126 0 8.084 1.597 11.001 4.441 2.918 2.844 4.558 6.702 4.558 10.724 0 8.376-6.966 15.165-15.56 15.165-8.593 0-15.559-6.79-15.559-15.165z" stroke-width="2" stroke="#000"/><path d="M78.433 174.611l37.24-36.495v72.99zM268.638 174.611l-37.24-36.495v72.99zM173.536 82.918l36.494 37.24h-72.99zM173.536 266.304l-36.495-37.24h72.99z" fill="#fff" fill-rule="evenodd" stroke="#000" stroke-width="2"/><path fill="#fff" stroke="#000" stroke-width="2" d="M121.065 125.449h104.941v98.323H121.065z"/><path d="M163.61 165.352l-32.342.042 26.273 18.862-9.954 30.772 26.057-19.158 26.19 18.976-10.168-30.702 26.14-19.045-32.341.184-10.035-30.747z" fill="#fff" stroke="#000" stroke-width="2"/></svg>