<svg xmlns="http://www.w3.org/2000/svg" width="338.9" height="339.7" viewBox="0 0 89.7 89.9"><g transform="translate(-13.3 -27.7)"><path d="M17.2 42h26.5M17.2 39.3h26.5M17.2 36.7h26.5M17.2 34h26.5" style="fill:none;fill-opacity:1;stroke:#000;stroke-width:.415963;stroke-miterlimit:4;stroke-dasharray:none"/><path d="M35.8 32.1v12.2" style="fill:none;fill-opacity:1;stroke:#000;stroke-width:.423049;stroke-miterlimit:4;stroke-dasharray:none"/><path d="M30.7 32.1v12" style="fill:none;fill-opacity:1;stroke:#000;stroke-width:.412001;stroke-miterlimit:4;stroke-dasharray:none"/><path d="M25.3 32.1v12.2" style="fill:none;fill-opacity:1;stroke:#000;stroke-width:.423049;stroke-miterlimit:4;stroke-dasharray:none"/><path d="M53.3 64.2h4.2v2.6h-4.2zM53.3 72.6h4.2v2.6h-4.2zM53.3 81h4.2v2.6h-4.2zM53.3 89.5h4.2v2.6h-4.2zM53.3 97.9h4.2v2.6h-4.2zM61.9 64.2h4.2v2.6h-4.2zM61.9 72.6h4.2v2.6h-4.2zM61.9 81h4.2v2.6h-4.2zM61.9 89.5h4.2v2.6h-4.2zM61.9 97.9h4.2v2.6h-4.2zM70.3 64.2h4.2v2.6h-4.2zM70.3 72.6h4.2v2.6h-4.2zM70.3 81h4.2v2.6h-4.2zM70.3 89.5h4.2v2.6h-4.2zM70.3 97.9h4.2v2.6h-4.2zM78.8 64.2H83v2.6h-4.2zM78.8 72.6H83v2.6h-4.2zM78.8 81H83v2.6h-4.2zM78.8 89.5H83v2.6h-4.2zM78.8 97.9H83v2.6h-4.2zM87.2 64.2h4.2v2.6h-4.2zM87.2 72.6h4.2v2.6h-4.2zM87.2 81h4.2v2.6h-4.2zM87.2 89.5h4.2v2.6h-4.2zM87.2 97.9h4.2v2.6h-4.2z" style="fill:none;fill-opacity:.169355;stroke:#000;stroke-width:.412;stroke-miterlimit:4;stroke-dasharray:none"/><circle cx="59.7" cy="69.6" r="1" style="fill:#fff;fill-opacity:1;stroke:#000;stroke-width:.412;stroke-miterlimit:4;stroke-dasharray:none"/><circle cx="68.2" cy="69.6" r="1" style="fill:#fff;fill-opacity:1;stroke:#000;stroke-width:.412;stroke-miterlimit:4;stroke-dasharray:none"/><circle cx="59.7" cy="78.1" r="1" style="fill:#fff;fill-opacity:1;stroke:#000;stroke-width:.412;stroke-miterlimit:4;stroke-dasharray:none"/><circle cx="68.2" cy="78.1" r="1" style="fill:#fff;fill-opacity:1;stroke:#000;stroke-width:.412;stroke-miterlimit:4;stroke-dasharray:none"/><circle cx="59.7" cy="69.6" r="1" style="fill:#fff;fill-opacity:1;stroke:#000;stroke-width:.412;stroke-miterlimit:4;stroke-dasharray:none"/><circle cx="59.7" cy="78.1" r="1" style="fill:#fff;fill-opacity:1;stroke:#000;stroke-width:.412;stroke-miterlimit:4;stroke-dasharray:none"/><circle cx="68.2" cy="78.1" r="1" style="fill:#fff;fill-opacity:1;stroke:#000;stroke-width:.412;stroke-miterlimit:4;stroke-dasharray:none"/><circle cx="85.2" cy="69.6" r="1" style="fill:#fff;fill-opacity:1;stroke:#000;stroke-width:.412;stroke-miterlimit:4;stroke-dasharray:none"/><circle cx="76.7" cy="69.6" r="1" style="fill:#fff;fill-opacity:1;stroke:#000;stroke-width:.412;stroke-miterlimit:4;stroke-dasharray:none"/><circle cx="76.7" cy="78.1" r="1" style="fill:#fff;fill-opacity:1;stroke:#000;stroke-width:.412;stroke-miterlimit:4;stroke-dasharray:none"/><circle cx="85.2" cy="78.1" r="1" style="fill:#fff;fill-opacity:1;stroke:#000;stroke-width:.412;stroke-miterlimit:4;stroke-dasharray:none"/><circle cx="59.7" cy="86.7" r="1" style="fill:#fff;fill-opacity:1;stroke:#000;stroke-width:.412;stroke-miterlimit:4;stroke-dasharray:none"/><circle cx="68.2" cy="86.7" r="1" style="fill:#fff;fill-opacity:1;stroke:#000;stroke-width:.412;stroke-miterlimit:4;stroke-dasharray:none"/><circle cx="59.7" cy="95.1" r="1" style="fill:#fff;fill-opacity:1;stroke:#000;stroke-width:.412;stroke-miterlimit:4;stroke-dasharray:none"/><circle cx="68.2" cy="95.1" r="1" style="fill:#fff;fill-opacity:1;stroke:#000;stroke-width:.412;stroke-miterlimit:4;stroke-dasharray:none"/><circle cx="59.7" cy="86.7" r="1" style="fill:#fff;fill-opacity:1;stroke:#000;stroke-width:.412;stroke-miterlimit:4;stroke-dasharray:none"/><circle cx="59.7" cy="95.1" r="1" style="fill:#fff;fill-opacity:1;stroke:#000;stroke-width:.412;stroke-miterlimit:4;stroke-dasharray:none"/><circle cx="68.2" cy="95.1" r="1" style="fill:#fff;fill-opacity:1;stroke:#000;stroke-width:.412;stroke-miterlimit:4;stroke-dasharray:none"/><circle cx="85.2" cy="86.7" r="1" style="fill:#fff;fill-opacity:1;stroke:#000;stroke-width:.412;stroke-miterlimit:4;stroke-dasharray:none"/><circle cx="76.7" cy="86.7" r="1" style="fill:#fff;fill-opacity:1;stroke:#000;stroke-width:.412;stroke-miterlimit:4;stroke-dasharray:none"/><circle cx="76.7" cy="95.1" r="1" style="fill:#fff;fill-opacity:1;stroke:#000;stroke-width:.412;stroke-miterlimit:4;stroke-dasharray:none"/><circle cx="85.2" cy="95.1" r="1" style="fill:#fff;fill-opacity:1;stroke:#000;stroke-width:.412;stroke-miterlimit:4;stroke-dasharray:none"/><rect width="42.4" height="42.4" x="51.2" y="61.2" ry="3.2" style="fill:none;fill-opacity:1;stroke:#000;stroke-width:.635612;stroke-miterlimit:4;stroke-dasharray:none"/><path stroke="#000" stroke-width=".5" d="M13.6 28h89v89.3h-89Z" style="fill:none"/><path d="M49 31.9h18v12.5H49z" style="fill:#000;fill-opacity:1;stroke:#000;stroke-width:.941107;stroke-miterlimit:4;stroke-dasharray:none;stroke-opacity:1"/><path d="M17.3 31.9h26.1v12.3H17.3zM72.7 31.8h26.1v12.3H72.7z" style="fill:none;fill-opacity:1;stroke:#000;stroke-width:.529167;stroke-miterlimit:4;stroke-dasharray:none;stroke-opacity:1"/><path d="m74.8 44.1 5.2-12 5.5-.1L80.2 44zM85.9 44.1l5.3-12 5.5-.1L91.3 44zM72.7 31.8l2 .2-2 5.1zM98.8 44.1l-2-.2 2-5.1Z" style="fill:#000;stroke:#000;stroke-width:.264583px;stroke-linecap:butt;stroke-linejoin:miter;stroke-opacity:1"/><path d="m69 53.5-5.3 5.3h10zM69 111.1l-5.3-5.3h10z" style="fill:none;fill-opacity:1;stroke:#000;stroke-width:.504;stroke-miterlimit:4;stroke-dasharray:none" transform="translate(3.7)"/><path d="m69 53.5-5.3 5.3h10zM69 111.1l-5.3-5.3h10z" style="fill:none;fill-opacity:1;stroke:#000;stroke-width:.504;stroke-miterlimit:4;stroke-dasharray:none" transform="rotate(90 70.6 84.2)"/><path d="M17 60.2h15.9v44.6H17z" style="fill:none;fill-opacity:1;stroke:#000;stroke-width:.412001;stroke-miterlimit:4;stroke-dasharray:none"/><path d="m28.4 34.4-2.7 4.3c.4 3.6 2.5 4.3 5.8 4.4l3.7-2.6z" style="fill:#fff;fill-opacity:1;stroke:#000;stroke-width:.412001;stroke-miterlimit:4;stroke-dasharray:none"/><ellipse cx="46.3" cy="16" rx="4.6" ry="3.6" style="fill:#fff;fill-opacity:1;stroke:#000;stroke-width:.412001;stroke-miterlimit:4;stroke-dasharray:none" transform="rotate(30)"/><ellipse cx="46.3" cy="16" rx="3.6" ry="2.8" style="fill:#fff;fill-opacity:1;stroke:#000;stroke-width:.322547;stroke-miterlimit:4;stroke-dasharray:none" transform="rotate(30)"/><path d="m29.8 34.1 5 4.9M30 38.6l4.4-3.7M18.1 61.3H32v42.2H18.1zM19.3 62.3h12.4M19.3 102.5h12.4" style="fill:#fff;fill-opacity:1;stroke:#000;stroke-width:.412001;stroke-miterlimit:4;stroke-dasharray:none"/><path d="M25.3 68.1h6.3M25.3 73.8h6.3M25.3 79.4h6.3M25.3 85.1h6.3M25.3 90.8h6.3M25.3 96.4h6.3" style="fill:#fff;fill-opacity:1;stroke:#000;stroke-width:.426167;stroke-miterlimit:4;stroke-dasharray:none"/><path d="M18.4 44.4v12h16.8v43.7h16" style="fill:none;fill-opacity:1;stroke:#000;stroke-width:.412001;stroke-miterlimit:4;stroke-dasharray:none"/><path d="M28 44.4v9.5h9V98h14M21.2 32.1v12M39.7 32.1v12" style="fill:none;fill-opacity:1;stroke:#000;stroke-width:.412001;stroke-miterlimit:4;stroke-dasharray:none"/><circle cx="72.4" cy="82.3" r="2.2" style="fill:#fff;fill-opacity:1;stroke:#000;stroke-width:.353;stroke-miterlimit:4;stroke-dasharray:none"/></g></svg>