<svg xmlns="http://www.w3.org/2000/svg" viewBox="0 0 348 348" fill="none" version="1.1" id="svg831"><style id="style1281"/><path id="rect864" opacity="1" fill="none" fill-opacity="1" stroke="#000" stroke-width="4.1" stroke-miterlimit="4" stroke-dasharray="none" stroke-dashoffset="0" stroke-opacity="1" d="M66.112 73.394h34.139v34.138H66.112z"/><path d="M5.079 5.776h336.913v337.67H5.08z" stroke-width="2" stroke="#000" id="path827"/><path d="M282.734 40.554c0-8.376 6.966-15.165 15.56-15.165 4.126 0 8.084 1.597 11.001 4.441 2.918 2.844 4.558 6.702 4.558 10.724 0 8.376-6.966 15.165-15.56 15.165-8.593 0-15.559-6.79-15.559-15.165z" stroke-width="2" stroke="#000" id="path829"/><path id="rect839" opacity="1" fill="none" fill-opacity="1" stroke="#000" stroke-width="3.863" stroke-miterlimit="4" stroke-dasharray="none" stroke-dashoffset="0" stroke-opacity="1" d="M16.921 67.3h263.71v263.711H16.921z"/><path id="rect841" opacity="1" fill="none" fill-opacity="1" stroke="#000" stroke-width="4.1" stroke-miterlimit="4" stroke-dasharray="none" stroke-dashoffset="0" stroke-opacity="1" d="M22.714 73.394h34.138v34.138H22.714z"/><path id="rect885" opacity="1" fill="none" fill-opacity="1" stroke="#000" stroke-width="4.1" stroke-miterlimit="4" stroke-dasharray="none" stroke-dashoffset="0" stroke-opacity="1" d="M152.91 73.394h34.14v34.138h-34.14z"/><path id="rect899" opacity="1" fill="none" fill-opacity="1" stroke="#000" stroke-width="4.1" stroke-miterlimit="4" stroke-dasharray="none" stroke-dashoffset="0" stroke-opacity="1" d="M109.511 73.394h34.139v34.138H109.51z"/><path id="rect909" opacity="1" fill="none" fill-opacity="1" stroke="#000" stroke-width="4.1" stroke-miterlimit="4" stroke-dasharray="none" stroke-dashoffset="0" stroke-opacity="1" d="M239.708 73.394h34.139v34.138h-34.139z"/><path id="rect923" opacity="1" fill="none" fill-opacity="1" stroke="#000" stroke-width="4.1" stroke-miterlimit="4" stroke-dasharray="none" stroke-dashoffset="0" stroke-opacity="1" d="M196.309 73.394h34.138v34.138H196.31z"/><path id="rect933" opacity="1" fill="none" fill-opacity="1" stroke="#000" stroke-width="4.1" stroke-miterlimit="4" stroke-dasharray="none" stroke-dashoffset="0" stroke-opacity="1" d="M109.511 116.793h34.139v34.138H109.51z"/><path id="rect947" opacity="1" fill="none" fill-opacity="1" stroke="#000" stroke-width="4.1" stroke-miterlimit="4" stroke-dasharray="none" stroke-dashoffset="0" stroke-opacity="1" d="M66.112 116.793h34.139v34.138H66.112z"/><path id="rect957" opacity="1" fill="none" fill-opacity="1" stroke="#000" stroke-width="4.1" stroke-miterlimit="4" stroke-dasharray="none" stroke-dashoffset="0" stroke-opacity="1" d="M196.309 116.793h34.138v34.138H196.31z"/><path id="rect971" opacity="1" fill="none" fill-opacity="1" stroke="#000" stroke-width="4.1" stroke-miterlimit="4" stroke-dasharray="none" stroke-dashoffset="0" stroke-opacity="1" d="M152.91 116.793h34.14v34.138h-34.14z"/><path id="rect981" opacity="1" fill="none" fill-opacity="1" stroke="#000" stroke-width="4.1" stroke-miterlimit="4" stroke-dasharray="none" stroke-dashoffset="0" stroke-opacity="1" d="M239.708 116.793h34.139v34.138h-34.139z"/><path id="rect987" opacity="1" fill="none" fill-opacity="1" stroke="#000" stroke-width="4.1" stroke-miterlimit="4" stroke-dasharray="none" stroke-dashoffset="0" stroke-opacity="1" d="M22.714 116.793h34.138v34.138H22.714z"/><path id="rect1005" opacity="1" fill="none" fill-opacity="1" stroke="#000" stroke-width="4.1" stroke-miterlimit="4" stroke-dasharray="none" stroke-dashoffset="0" stroke-opacity="1" d="M66.112 160.191h34.139v34.139H66.112z"/><path id="rect1019" opacity="1" fill="none" fill-opacity="1" stroke="#000" stroke-width="4.1" stroke-miterlimit="4" stroke-dasharray="none" stroke-dashoffset="0" stroke-opacity="1" d="M22.714 160.191h34.138v34.139H22.714z"/><path id="rect1029" opacity="1" fill="none" fill-opacity="1" stroke="#000" stroke-width="4.1" stroke-miterlimit="4" stroke-dasharray="none" stroke-dashoffset="0" stroke-opacity="1" d="M152.91 160.191h34.14v34.139h-34.14z"/><path id="rect1043" opacity="1" fill="none" fill-opacity="1" stroke="#000" stroke-width="4.1" stroke-miterlimit="4" stroke-dasharray="none" stroke-dashoffset="0" stroke-opacity="1" d="M109.511 160.191h34.139v34.139H109.51z"/><path id="rect1053" opacity="1" fill="#ccc" fill-opacity="1" stroke="#000" stroke-width="4.1" stroke-miterlimit="4" stroke-dasharray="none" stroke-dashoffset="0" stroke-opacity="1" d="M239.708 160.191h34.139v34.139h-34.139z"/><path id="rect1067" opacity="1" fill="none" fill-opacity="1" stroke="#000" stroke-width="4.1" stroke-miterlimit="4" stroke-dasharray="none" stroke-dashoffset="0" stroke-opacity="1" d="M196.309 160.191h34.138v34.139H196.31z"/><path id="rect1077" opacity="1" fill="none" fill-opacity="1" stroke="#000" stroke-width="4.1" stroke-miterlimit="4" stroke-dasharray="none" stroke-dashoffset="0" stroke-opacity="1" d="M109.511 203.59h34.139v34.139H109.51z"/><path id="rect1091" opacity="1" fill="none" fill-opacity="1" stroke="#000" stroke-width="4.1" stroke-miterlimit="4" stroke-dasharray="none" stroke-dashoffset="0" stroke-opacity="1" d="M66.112 203.59h34.139v34.139H66.112z"/><path id="rect1101" opacity="1" fill="none" fill-opacity="1" stroke="#000" stroke-width="4.1" stroke-miterlimit="4" stroke-dasharray="none" stroke-dashoffset="0" stroke-opacity="1" d="M196.309 203.59h34.138v34.139H196.31z"/><path id="rect1115" opacity="1" fill="none" fill-opacity="1" stroke="#000" stroke-width="4.1" stroke-miterlimit="4" stroke-dasharray="none" stroke-dashoffset="0" stroke-opacity="1" d="M152.91 203.59h34.14v34.139h-34.14z"/><path id="rect1125" opacity="1" fill="none" fill-opacity="1" stroke="#000" stroke-width="4.1" stroke-miterlimit="4" stroke-dasharray="none" stroke-dashoffset="0" stroke-opacity="1" d="M239.708 203.59h34.139v34.139h-34.139z"/><path id="rect1131" opacity="1" fill="none" fill-opacity="1" stroke="#000" stroke-width="4.1" stroke-miterlimit="4" stroke-dasharray="none" stroke-dashoffset="0" stroke-opacity="1" d="M22.714 203.59h34.138v34.139H22.714z"/><path id="rect1149" opacity="1" fill="none" fill-opacity="1" stroke="#000" stroke-width="4.1" stroke-miterlimit="4" stroke-dasharray="none" stroke-dashoffset="0" stroke-opacity="1" d="M66.112 246.99h34.139v34.138H66.112z"/><path id="rect1163" opacity="1" fill="none" fill-opacity="1" stroke="#000" stroke-width="4.1" stroke-miterlimit="4" stroke-dasharray="none" stroke-dashoffset="0" stroke-opacity="1" d="M22.714 246.99h34.138v34.138H22.714z"/><path id="rect1173" opacity="1" fill="none" fill-opacity="1" stroke="#000" stroke-width="4.1" stroke-miterlimit="4" stroke-dasharray="none" stroke-dashoffset="0" stroke-opacity="1" d="M152.91 246.99h34.14v34.138h-34.14z"/><path id="rect1187" opacity="1" fill="none" fill-opacity="1" stroke="#000" stroke-width="4.1" stroke-miterlimit="4" stroke-dasharray="none" stroke-dashoffset="0" stroke-opacity="1" d="M109.511 246.99h34.139v34.138H109.51z"/><path id="rect1197" opacity="1" fill="none" fill-opacity="1" stroke="#000" stroke-width="4.1" stroke-miterlimit="4" stroke-dasharray="none" stroke-dashoffset="0" stroke-opacity="1" d="M239.708 246.99h34.139v34.138h-34.139z"/><path id="rect1211" opacity="1" fill="none" fill-opacity="1" stroke="#000" stroke-width="4.1" stroke-miterlimit="4" stroke-dasharray="none" stroke-dashoffset="0" stroke-opacity="1" d="M196.309 246.99h34.138v34.138H196.31z"/><path id="rect1221" opacity="1" fill="none" fill-opacity="1" stroke="#000" stroke-width="4.1" stroke-miterlimit="4" stroke-dasharray="none" stroke-dashoffset="0" stroke-opacity="1" d="M109.511 290.388h34.139v34.138H109.51z"/><path id="rect1235" opacity="1" fill="none" fill-opacity="1" stroke="#000" stroke-width="4.1" stroke-miterlimit="4" stroke-dasharray="none" stroke-dashoffset="0" stroke-opacity="1" d="M66.112 290.388h34.139v34.138H66.112z"/><path id="rect1245" opacity="1" fill="none" fill-opacity="1" stroke="#000" stroke-width="4.1" stroke-miterlimit="4" stroke-dasharray="none" stroke-dashoffset="0" stroke-opacity="1" d="M196.309 290.388h34.138v34.138H196.31z"/><path id="rect1259" opacity="1" fill="none" fill-opacity="1" stroke="#000" stroke-width="4.1" stroke-miterlimit="4" stroke-dasharray="none" stroke-dashoffset="0" stroke-opacity="1" d="M152.91 290.388h34.14v34.138h-34.14z"/><path id="rect1269" opacity="1" fill="none" fill-opacity="1" stroke="#000" stroke-width="4.1" stroke-miterlimit="4" stroke-dasharray="none" stroke-dashoffset="0" stroke-opacity="1" d="M239.708 290.388h34.139v34.138h-34.139z"/><path id="rect1275" opacity="1" fill="none" fill-opacity="1" stroke="#000" stroke-width="4.1" stroke-miterlimit="4" stroke-dasharray="none" stroke-dashoffset="0" stroke-opacity="1" d="M22.714 290.388h34.138v34.138H22.714z"/><g aria-label="X-x-#" id="text1363" style="line-height:1.25;-inkscape-font-specification:'Arial Rounded MT Bold, '" transform="rotate(-8.507 173.272 169.878)" font-size="40" font-family="Arial Rounded MT Bold" fill="#000"><path d="M123.718 43.093l6.406-9.356-5.39-8.32q-.762-1.21-1.152-2.07-.372-.88-.372-1.68 0-.82.723-1.465.742-.664 1.797-.664 1.21 0 1.875.723.684.703 1.875 2.636l4.297 6.954 4.59-6.954q.566-.878.957-1.503.41-.625.781-1.036.371-.41.82-.605.469-.215 1.074-.215 1.094 0 1.778.664.703.645.703 1.543 0 1.309-1.504 3.555l-5.644 8.437 6.074 9.356q.82 1.23 1.191 2.05.371.801.371 1.524 0 .684-.332 1.25t-.937.898q-.606.332-1.367.332-.82 0-1.387-.351-.567-.332-.918-.84-.352-.508-1.309-1.973l-5.039-7.93-5.351 8.165q-.625.976-.899 1.367-.254.39-.625.762-.37.37-.879.586-.508.214-1.191.214-1.055 0-1.758-.644-.684-.645-.684-1.875 0-1.445 1.426-3.535z" id="path1365"/><path d="M155.574 40.612h-6.172q-1.406 0-2.149-.644-.722-.664-.722-1.7 0-1.054.703-1.699.723-.664 2.168-.664h6.172q1.445 0 2.148.664.723.645.723 1.7 0 1.035-.703 1.699-.703.644-2.168.644z" id="path1367"/><path d="M173.445 46.94l-3.867-5.683-3.965 5.683q-.86 1.192-1.465 1.7-.586.507-1.504.507-1.016 0-1.738-.625-.703-.644-.703-1.464 0-.84 1.093-2.403l4.825-6.914-4.278-5.762q-1.113-1.425-1.113-2.48 0-.82.664-1.426.664-.605 1.738-.605.938 0 1.543.527.625.527 1.446 1.66l3.457 4.727 3.359-4.727q.84-1.172 1.445-1.68.625-.507 1.543-.507 1.055 0 1.739.605.703.586.703 1.426 0 .605-.293 1.172-.274.547-.86 1.308l-4.277 5.762 4.824 6.914q1.133 1.621 1.133 2.442 0 .84-.703 1.445-.703.605-1.738.605-.918 0-1.563-.527-.625-.527-1.445-1.68z" id="path1369"/><path d="M189.734 40.612h-6.172q-1.406 0-2.148-.644-.723-.664-.723-1.7 0-1.054.703-1.699.723-.664 2.168-.664h6.172q1.445 0 2.148.664.723.645.723 1.7 0 1.035-.703 1.699-.703.644-2.168.644z" id="path1371"/><path d="M195.574 45.183l.722-3.653q-2.695-.058-2.695-2.148 0-.977.664-1.582.684-.625 1.992-.625h.918l1.114-5.684h-2.032q-1.27 0-1.972-.625-.684-.644-.684-1.562 0-.977.664-1.563.684-.605 1.992-.605h2.91l.918-4.473q.215-1.133.47-1.777.273-.645.722-.977.469-.332 1.21-.332 1.036 0 1.583.547.547.547.547 1.406 0 .196-.332 1.973l-.723 3.633h4.277l.938-4.473q.195-1.016.37-1.64.177-.626.626-1.055.469-.43 1.348-.43 1.015 0 1.562.527.566.528.566 1.426 0 .41-.058.801-.04.39-.117.762-.078.351-.098.449l-.723 3.672q2.793.058 2.793 2.168 0 .976-.664 1.562-.664.586-1.972.586h-.997l-1.171 5.684h2.168q1.308 0 1.972.625.664.625.664 1.582 0 .957-.664 1.562-.644.586-1.972.586h-3.008l-.918 4.492q-.215 1.075-.39 1.66-.157.587-.626 1.016-.469.45-1.347.45-.977 0-1.543-.547-.567-.547-.567-1.426 0-.801.274-1.992l.722-3.653h-4.316l-.918 4.492q-.352 1.66-.742 2.403-.371.722-1.621.722-.997 0-1.563-.546-.566-.547-.566-1.426 0-.45.097-.996.118-.567.196-.996zm11.425-13.692h-4.316l-1.152 5.684h4.355z" id="path1373"/></g><path d="M82.547 90.367H39.1v130.772h43.88v87.325H38.232" id="path1386" fill="#fff" fill-opacity="0" stroke="#000" stroke-width="3" stroke-miterlimit="4" stroke-dasharray="none"/><path d="M37.363 264.15h89.064v-43.446" id="path1388" fill="#fff" fill-opacity="0" stroke="#000" stroke-width="3" stroke-miterlimit="4" stroke-dasharray="none"/><path d="M82.981 308.464h131.64V220.27h42.143v-86.023" id="path1390" fill="#fff" fill-opacity="0" stroke="#000" stroke-width="3" stroke-miterlimit="4" stroke-dasharray="none"/><path d="M214.622 308.464h42.142v-45.183" id="path1392" fill="#fff" fill-opacity="0" stroke="#000" stroke-width="3" stroke-miterlimit="4" stroke-dasharray="none"/><path d="M213.753 263.28h-44.015v-87.325h43.146V90.801h44.749" id="path1394" fill="#fff" fill-opacity="0" stroke="#000" stroke-width="3" stroke-miterlimit="4" stroke-dasharray="none"/><path d="M125.993 90.801h44.045v85.154H83.416" id="path1396" fill="#fff" fill-opacity="0" stroke="#000" stroke-width="3" stroke-miterlimit="4" stroke-dasharray="none"/><path d="M126.83 175.955V132.51" id="path1398" fill="#fff" fill-opacity="0" stroke="#000" stroke-width="3" stroke-miterlimit="4" stroke-dasharray="none"/><path d="M126.83 134.309H82.981" id="path1400" fill="#fff" fill-opacity="0" stroke="#000" stroke-width="3" stroke-miterlimit="4" stroke-dasharray="none"/><circle id="path1380" cx="170.107" cy="133.62" r="8.255" fill="#fff" fill-opacity="1" stroke="#000" stroke-width="3" stroke-miterlimit="4" stroke-dasharray="none"/><path id="path1382" d="M213.484 300.816l8.654 14.99H204.83z" fill="#fff" fill-opacity="1" stroke="#000" stroke-width="3" stroke-miterlimit="4" stroke-dasharray="none"/><path id="path1384" d="M83.147 211.177l7.902 4.562v9.123l-7.902 4.562-7.901-4.562v-9.123z" fill="#fff" fill-opacity="1" stroke="#000" stroke-width="3" stroke-miterlimit="4" stroke-dasharray="none"/></svg>