<svg xmlns="http://www.w3.org/2000/svg" fill="none" viewBox="0 0 348 348"><path stroke="#000" stroke-width="2" d="M5.08 5.78h336.91v337.67H5.08z"/><path stroke="#000" stroke-width="2" d="M282.73 40.55c0-8.37 6.97-15.16 15.56-15.16 4.13 0 8.09 1.6 11 4.44a14.97 14.97 0 0 1 4.56 10.72c0 8.38-6.96 15.17-15.56 15.17-8.59 0-15.56-6.8-15.56-15.17z"/><path fill="#fff" stroke="#000" stroke-width="1.45" d="M13.23 150.73h58.54v57.86H13.23Z"/><path fill="#fff" stroke="#000" stroke-width="1.49" d="M65.25 162.6a6 5.93 0 0 1-6 5.94 6 5.93 0 0 1-6-5.93 6 5.93 0 0 1 6-5.93 6 5.93 0 0 1 6 5.93z"/><path fill="#fff" stroke="#000" stroke-width="2.34" d="m28.73 170.15-4.7 6.74 4.7 6.89h-2.1l-3.71-5.61-3.81 5.6h-1.98l4.75-6.8-4.64-6.82h2.09L23 175.7l3.75-5.54z" aria-label="X" transform="scale(1.09 .92)"/><path fill="#fff" stroke="#000" stroke-width="1.45" d="M78.23 150.73h58.54v57.86H78.23Z"/><path fill="#fff" stroke="#000" stroke-width="1.49" d="M130.25 162.6a6 5.93 0 0 1-6 5.94 6 5.93 0 0 1-6-5.93 6 5.93 0 0 1 6-5.93 6 5.93 0 0 1 6 5.93z"/><path fill="#fff" stroke="#000" stroke-width="2.34" d="M88.25 179.59q0 1.01-.38 1.79-.39.78-1.04 1.28-.76.6-1.69.86-.91.26-2.33.26h-4.83v-13.63H82q1.5 0 2.24.11.74.11 1.41.46.75.4 1.1 1.02.33.6.33 1.47 0 .97-.5 1.65-.49.68-1.31 1.1v.07q1.38.28 2.18 1.21.8.93.8 2.35zm-3.04-6.14q0-.5-.17-.84-.16-.33-.53-.54-.43-.25-1.04-.3-.62-.07-1.52-.07h-2.16v3.93h2.34q.85 0 1.36-.08.5-.1.93-.36.43-.28.6-.7.19-.45.19-1.04zm1.16 6.2q0-.81-.25-1.3-.25-.48-.9-.82-.44-.23-1.07-.3-.62-.07-1.52-.07H79.8v5.07h2.4q1.19 0 1.95-.12.75-.13 1.24-.46.51-.35.75-.81.24-.46.24-1.18z" aria-label="B" transform="scale(1.09 .92)"/><path fill="#fff" stroke="#000" stroke-width="1.45" d="M143.23 150.73h58.54v57.86h-58.54z"/><path fill="#fff" stroke="#000" stroke-width="1.49" d="M195.25 162.6a6 5.93 0 0 1-6 5.94 6 5.93 0 0 1-6-5.93 6 5.93 0 0 1 6-5.93 6 5.93 0 0 1 6 5.93z"/><path fill="#fff" stroke="#000" stroke-width="2.34" d="m148.14 182.79-.92.41q-.4.2-1.06.4-.56.18-1.22.3-.65.12-1.43.12-1.48 0-2.7-.4-1.2-.43-2.1-1.32-.88-.87-1.38-2.2-.5-1.35-.5-3.12 0-1.69.48-3.01.48-1.33 1.38-2.24.86-.9 2.1-1.36 1.23-.46 2.73-.46 1.1 0 2.18.26 1.1.27 2.44.93v2.15H148q-1.13-.94-2.23-1.37-1.11-.43-2.37-.43-1.04 0-1.87.34-.82.33-1.47 1.03-.63.7-.99 1.74-.35 1.05-.35 2.42 0 1.43.39 2.47.39 1.03 1 1.68.64.68 1.5 1 .85.33 1.8.33 1.31 0 2.46-.45 1.14-.45 2.14-1.34h.13z" aria-label="C" transform="scale(1.09 .92)"/><path fill="#fff" stroke="#000" stroke-width="1.45" d="M208.23 150.73h58.54v57.86h-58.54z"/><path fill="#fff" stroke="#000" stroke-width="1.49" d="M260.25 162.6a6 5.93 0 0 1-6 5.94 6 5.93 0 0 1-6-5.93 6 5.93 0 0 1 6-5.93 6 5.93 0 0 1 6 5.93z"/><path fill="#fff" stroke="#000" stroke-width="2.34" d="M208.52 183.78h-2.35l-4.55-5.42h-2.56v5.42h-1.8v-13.63h3.8q1.24 0 2.07.17.82.15 1.48.56.74.47 1.15 1.19.42.7.42 1.79 0 1.47-.74 2.47-.74.99-2.04 1.49zm-4.23-9.8q0-.58-.21-1.03-.2-.45-.68-.77-.4-.26-.93-.36-.54-.11-1.27-.11h-2.14v5.14h1.83q.86 0 1.5-.15.65-.15 1.1-.56.4-.39.6-.88.2-.5.2-1.27z" aria-label="R" transform="scale(1.09 .92)"/><path fill="#fff" stroke="#000" stroke-width="1.45" d="M273.23 151.4h58.54v57.87h-58.54z"/><path fill="#fff" stroke="#000" stroke-width="1.49" d="M325.25 163.29a6 5.93 0 0 1-6 5.93 6 5.93 0 0 1-6-5.93 6 5.93 0 0 1 6-5.93 6 5.93 0 0 1 6 5.93z"/><path fill="#fff" stroke="#000" stroke-width="2.34" d="M265.5 184.52h-8.61V170.9h1.81v12h6.8z" aria-label="L" transform="scale(1.09 .92)"/></svg>