<svg xmlns="http://www.w3.org/2000/svg" fill="none" viewBox="0 0 348 348"><path stroke="#000" stroke-width="2" d="M5 5.8h337v337.6H5z"/><path stroke="#000" stroke-width="2" d="M282.7 40.6c0-8.4 7-15.2 15.6-15.2 4.1 0 8 1.6 11 4.4a15 15 0 014.6 10.8c0 8.3-7 15.1-15.6 15.1s-15.6-6.8-15.6-15.1zM85 90.5h23v23H85zm23 0h23v23h-23zm23 0h23v23h-23zm23 0h23v23h-23zm23 0h23v23h-23zm-92 23h23v23H85zm23 0h23v23h-23zm23 0h23v23h-23zm23 0h23v23h-23zm23 0h23v23h-23zm-92 23h23v23H85zm23 0h23v23h-23zm23 0h23v23h-23zm23 0h23v23h-23zm23 0h23v23h-23zm-92 23h23v23H85zm23 0h23v23h-23zm23 0h23v23h-23zm23 0h23v23h-23zm23 0h23v23h-23zm-92 23h23v23H85zm23 0h23v23h-23zm23 0h23v23h-23zm23 0h23v23h-23zm23 0h23v23h-23z"/><path stroke="#000" stroke-width="2" d="M39 44.5h184v184H39zm218.5 161H315V286h-57.5zm-92 57.5h46v46h-46zm-115 0h46v46h-46z"/><circle cx="286.3" cy="234.3" r="5.8" fill="#000"/><path fill="#000" d="M99.5 79h-3v-9H92v-1.5h3V67h1.5v-1.5h3zm24.5 0h-9v-3h1.5v-1.5h1.5V73h1.5v-1.5h1.5V67h-3v3h-3v-3h1.5v-1.5h6V67h1.5v4.5h-1.5V73H121v1.5h-1.5V76H118v1.5h6zm23-1.5h-1.5V79h-6v-1.5H138v-3h3v3h3V73h-3v-1.5h3V67h-3v3h-3v-3h1.5v-1.5h6V67h1.5v4.5h-1.5V73h1.5zm24.5-1.5H170v3h-3v-3h-6v-3h1.5v-7.5h3V73H164v1.5h3v-6h3v6h1.5zm21.5 0h-1.5v1.5H190V79h-6v-1.5h4.5V76h1.5v-3h-6v-7.5h9V67h-6v4.5h4.5V73h1.5zM71.9 108.8h-3v-4.5h-3v4.5h-3V98.3h1.5v-1.5h1.5v-1.5h3v1.5h1.5v1.5h1.5zm-3-6v-4.5h-3v4.5zm3 27.5h-1.5v1.4h-7.5v-13.4h7.5v1.5h1.5v4.5h-1.5v1.5h1.5zm-3-6v-4.5h-3v4.5zm0 6v-4.6h-3v4.5zm3 23h-1.5v1.4h-6v-1.4h-1.5v-10.6h1.5v-1.4h6v1.4h1.5v3h-3v-3h-3v10.6h3v-3h3zm0 21.5h-1.5v1.4h-1.5v1.6h-6v-13.6h6v1.6h1.5v1.4h1.5zm-3 0v-7.6h-1.5v-1.4h-1.5v10.4h1.5v-1.4zm3 26h-9v-13.6h9v1.6h-6v4.4h4.5v1.6h-4.5v4.4h6z"/></svg>