<svg xmlns="http://www.w3.org/2000/svg" fill="none" stroke="#000" stroke-width="2" viewBox="0 0 348 348"><path d="M5.1 5.8H342v337.7H5.1z"/><circle cx="298.3" cy="40.5" r="15.9"/><path stroke-width="2.3" d="M45.7 108.1h55.7v54.7H45.7Zm100 0h55.7v54.7h-55.7zm100 0h55.7v54.7h-55.7zm-200 80h55.7v54.7H45.7Zm100 0h55.7v54.7h-55.7zm100 0h55.7v54.7h-55.7zm-200 75h55.7v54.7H45.7Zm100 0h55.7v54.7h-55.7zm100 0h55.7v54.7h-55.7z"/><path stroke-width="1.8" d="M50.7 113.9h45.2v43H50.7Zm100.5 0h45.2v43h-45.2zm100 0h45.2v43h-45.2ZM50.7 194h45.2v43H50.7Zm100.5 0h45.2v43h-45.2zm100 0h45.2v43h-45.2ZM50.7 269.1h45.2v43H50.7Zm100.5 0h45.2v43h-45.2zm100 0h45.2v43h-45.2z"/></svg>