<svg xmlns="http://www.w3.org/2000/svg" xml:space="preserve" fill="none" viewBox="0 0 348 348"><path stroke="#000" stroke-width="2" d="M5.08 5.78h336.91v337.67H5.08z"/><path d="M314.19 40.55a15.9 15.51 0 0 1-15.9 15.51 15.9 15.51 0 0 1-15.9-15.51 15.9 15.51 0 0 1 15.9-15.51 15.9 15.51 0 0 1 15.9 15.51z" style="stroke:#000;stroke-width:2"/><path d="M29.528 71.926h296.92v53.026H29.528Z" style="fill:#fff;stroke:#000;stroke-width:3.22683;stroke-linecap:square;stroke-miterlimit:5.4;paint-order:markers fill stroke"/><path d="M17.09 245.403h84.82v84.82H17.09ZM245.09 245.404h84.82v84.818h-84.82zM131.09 245.404h84.82v84.818h-84.82z" style="fill:#fff;stroke:#000;stroke-width:2.18125;stroke-linecap:square;stroke-miterlimit:5.4;paint-order:markers fill stroke"/><g aria-label="Tralalelo Tralala" style="font-size:29.3333px;font-family:&quot;Special Elite&quot;;-inkscape-font-specification:&quot;Special Elite&quot;;fill:#000;stroke-width:2.94;stroke-linecap:square;stroke-miterlimit:5.4;paint-order:markers fill stroke"><path d="M59.78 92.931q0 .258-.014.53 0 .258-.057.501-.029.13-.129.287-.1.143-.243.286-.13.13-.287.23-.157.085-.286.085-.215 0-.272-.172-.058-.171-.086-.372-.015-.2-.086-.372-.058-.172-.287-.172-.071 0-.129.028-.043.03-.114.03-.029 0-.058-.173-.028-.172-.071-.415-.043-.244-.1-.487-.058-.258-.13-.43-.128-.272-.272-.558-.128-.301-.128-.63 0-.23.086-.387.085-.172.186-.315.1-.144.186-.287t.086-.344q0-.286-.186-.5-.187-.216-.473-.345-.272-.143-.587-.2-.301-.072-.53-.072-.387 0-.76.1-.357.086-.73.215-.358.13-.716.272-.358.144-.716.244.072.2.086.415.029.215.029.43 0 .487-.043.974-.043.473-.043.96 0 .53.057 1.06l.114 1.03q.072.516.13 1.046.057.516.057 1.032 0 .63-.215 1.231-.043.115-.043.186 0 .158.071.316l.158.315q.1.157.172.33.072.171.072.357 0 .172-.058.33-.057.157-.057.315 0 .229.057.444.072.215.072.444 0 .129-.072.157-.057.029-.143.029t-.158.014q-.057 0-.057.072 0 .215.086.415.1.186.1.401 0 .186-.086.358-.071.158-.071.344 0 .186.157.33.172.143.244.343.071.244.114.559.058.315.2.601.158.287.474.487.315.187.93.187h.416q.172 0 .415.028.258.029.487.115.244.071.401.229.172.143.172.372 0 .23-.086.444-.086.215-.086.444 0 .072.029.215-.215 0-.387.1-.157.086-.229.301-.286-.057-.587-.071-.287-.029-.573-.029-.73 0-1.447.115-.716.1-1.446.229l-1.447.229q-.716.1-1.447.1-.243 0-.601-.014t-.688-.1q-.329-.086-.573-.258-.229-.186-.229-.53 0-.401.072-.587.086-.2.2-.273.115-.085.258-.1.158-.014.301-.057.043-.043.043-.086 0-.072-.072-.115-.057-.057-.128-.085.243-.215.544-.301.315-.086.63-.115l.659-.057q.33-.029.616-.143.114-.043.243-.244.13-.2.23-.444.114-.243.171-.487.072-.243.072-.372v-.029q-.1-.687-.158-1.346-.057-.66-.057-1.347 0-.057.043-.186.043-.143.115-.286.057-.158.157-.358-.114-.186-.2-.344-.072-.143-.13-.272-.057-.13-.057-.2 0-.173.058-.33.057-.158.086-.315.086-.602.086-1.218 0-.257-.043-.501-.029-.258-.086-.501-.187-.874-.187-1.805 0-1.088.144-2.163.143-1.074.143-2.162 0-.373-.129-.573-.129-.215-.501-.33-.502-.143-1.046-.229-.53-.086-1.06-.086-.4 0-.845.1-.43.086-.802.301-.358.2-.601.544-.23.33-.23.802 0 .244.03.473.028.23.028.473 0 .229-.1.4-.087.158-.087.316 0 .215.115.401.115.186.115.401 0 .143-.072.315-.057.172-.143.358l-.172.344q-.072.172-.115.315-.071.215-.186.372-.114.158-.358.158-.2 0-.372-.129-.172-.143-.172-.344 0-.157.071-.243.086-.1.086-.23 0-.143-.057-.286-.057-.157-.143-.3-.072-.158-.129-.316-.057-.157-.057-.315 0-.2.057-.386.072-.187.072-.387 0-.43-.144-.845-.129-.416-.129-.845 0-.387.086-.917t.287-1.017q.215-.487.544-.816.344-.344.86-.344.358 0 .701.086.358.071.73.071.416 0 .832-.071.415-.072.83-.072.287 0 .53.1.258.086.544.086.172 0 .287-.071.129-.086.286-.086.172 0 .33.086.172.071.344.071.157 0 .286-.042.143-.043.286-.043.215 0 .416.057.215.057.415.057l1.733-.215.774-.057q.386-.029.787-.029.688 0 1.361.115.688.1 1.375.258v.014q.473.115.673.487.2.372.258.86.072.472.057.973-.014.502.015.86.043.544.1 1.103.072.544.072 1.088zM77.255 97.428q0 .287-.115.487-.115.201-.258.387-.129.172-.272.358-.129.186-.172.444-.129-.057-.272-.071-.129-.015-.272-.015-.344 0-.688.058-.33.043-.659.043-.386 0-.644-.23-.244-.243-.401-.587-.143-.344-.2-.73-.058-.401-.058-.716 0-.401.129-.817-.115-.043-.2-.043-.187 0-.273.115-.071.114-.214.114-.13 0-.23-.086-.1-.1-.243-.1-.215 0-.544.143-.316.13-.616.344-.301.215-.53.473-.215.243-.215.472-.3.03-.573.172-.258.13-.501.287-.187.114-.315.358-.13.243-.244.53-.1.272-.215.558-.1.287-.243.473-.244.315-.43.645-.172.315-.172.716 0 .501.158 1.017.157.515.157 1.045 0 .344-.057.688-.043.343-.043.673 0 .4.143.644.144.244.387.387.243.129.559.172.315.043.644.043.358 0 .688-.014.343-.029.63-.029.1.115.114.215.015.1-.014.215-.014.1-.057.215-.029.1-.029.243 0 .057.029.143.215 0 .372-.1.158-.1.23-.315.1.029.171.086.086.057.086.172 0 .086-.043.172-.043.071-.1.143-.057.071-.1.157-.043.072-.043.172 0 .058.014.13.014.057.043.1-.072.114-.2.157-.13.043-.258.043-.23 0-.387-.072-.143-.071-.272-.157-.115-.086-.215-.158-.1-.071-.244-.071-.057 0-.171.028-.115.029-.23.072-.114.043-.2.114-.086.058-.086.115 0 .115.072.2.086.086.086.201 0 .1-.072.158-.072.057-.172.071-.1.029-.215.029-.1.014-.172.014-.558 0-1.117-.129-.544-.114-1.103-.114-.258 0-.515.114-.258.115-.545.115-.157 0-.243-.072-.072-.057-.129-.143-.057-.086-.129-.158-.072-.057-.215-.057-.272 0-.544.057-.258.058-.53.115-.258.072-.53.115-.258.057-.53.057-.143 0-.344-.043-.2-.029-.386-.115-.187-.086-.315-.214-.13-.13-.13-.316 0-.114.13-.3.143-.187.315-.358.172-.187.343-.316.172-.128.258-.128.23 0 .444.014.23.014.473.014.387 0 .773-.114.401-.13.716-.359.33-.229.53-.572.2-.344.2-.774 0-.186-.028-.358-.028-.186-.028-.372 0-.373.086-.745.086-.373.086-.745 0-.501-.115-1.017-.1-.53-.1-1.06 0-.472.014-.93.029-.473.029-.946 0-.215-.015-.63-.014-.416-.1-.831-.072-.415-.243-.73-.158-.316-.444-.316-.316 0-.63.072-.316.072-.645.072-.244 0-.573-.029-.33-.043-.63-.143-.301-.115-.516-.315-.215-.2-.215-.53 0-.358.1-.573.1-.23.258-.344.172-.115.387-.157.23-.043.487-.043.23 0 .473.014.243.014.472.014.459 0 .903-.043.458-.057.916-.057.315 0 .63.029.316.028.616.128.273.086.401.33.13.23.23.473.114.243.257.444.144.186.459.186.143 0 .258-.072.129-.086.243-.186.115-.1.23-.186.114-.086.271-.115.315-.043.573-.2.272-.158.53-.315.258-.158.516-.287.272-.129.587-.129.186 0 .458-.043.287-.043.559-.114.287-.086.53-.2.258-.115.401-.259.387.029.902.187.53.157 1.003.43.487.257.845.615t.415.802q.043.272.158.516l.23.487q.128.229.228.487.1.243.1.515zM94.098 105.378q0 .243-.086.458-.086.215-.157.444-.058.2-.086.33-.015.128-.057.229-.043.086-.144.172-.086.071-.286.171-.43.23-.917.473-.472.23-.96.23-.415 0-.787-.187-.358-.2-.673-.43-.301-.243-.559-.444-.243-.2-.415-.2-.187 0-.33.1-.129.1-.272.215-.129.114-.3.215-.158.1-.402.1-.2 0-.415.072-.215.071-.43.171-.215.086-.444.187-.215.086-.4.143-.645.172-1.304.2-.645.029-1.304.029-.171 0-.53-.014-.358 0-.73-.072-.358-.057-.645-.2-.272-.144-.272-.401 0-.058.015-.1-.1.114-.23.185-.128.072-.286.072-.23 0-.559-.315-.329-.315-.63-.73-.3-.416-.515-.817-.215-.415-.215-.616 0-.157.086-.286.1-.13.1-.287 0-.2-.057-.372-.043-.186-.043-.387 0-.258.1-.544.1-.3.243-.587.144-.301.301-.573.158-.287.287-.53.143-.287.4-.459.259-.171.545-.3.286-.13.573-.258.286-.129.501-.344.215.244.559.244.358 0 .702-.1.343-.115.701-.115.287 0 .545.057.272.057.558.057.315 0 .459-.071.157-.086.386-.287.23-.2.573-.3.358-.115.73-.172.387-.072.76-.144.387-.071.687-.2.301-.143.487-.372.187-.244.187-.66 0-.458-.273-.959-.257-.516-.673-.93-.415-.43-.916-.703-.502-.272-.96-.272-.057 0-.115.014-.057.015-.1.015-.344.057-.773.086-.43.014-.802.129-.373.1-.63.358-.258.243-.258.73 0 .287.042.573.058.272.058.559 0 .43-.215.716-.2.286-.53.458-.315.172-.702.244-.387.057-.745.057-.43 0-.744-.115-.316-.114-.516-.53-.158-.3-.344-.644-.172-.358-.172-.716 0-.387.13-.716.142-.344.314-.66.172-.329.33-.644.172-.33.243-.702.1-.057.272-.114.187-.058.387-.115.215-.057.401-.1.2-.057.33-.1.343-.1.658-.23.33-.143.66-.257.343-.115.672-.2.344-.087.702-.101l.444-.014q.616 0 1.26.114.645.1 1.261.33.616.229 1.16.572.559.33.989.788.315.344.515.817.215.458.33.974.129.515.171 1.045.058.516.058.96 0 .601-.043 1.189-.029.573-.029 1.174 0 .573.057 1.146.072.559.158 1.131.086.559.143 1.132.072.559.072 1.117.028.344.086.43.071.071.143.071.315 0 .501-.186.2-.2.358-.43.158-.243.344-.443.186-.201.473-.201.129 0 .258.014.143.015.257.072.115.043.187.143.071.086.071.244zm-4.712-3.567q0-.086-.014-.3 0-.215-.029-.43-.029-.23-.1-.401-.058-.172-.186-.172-.03 0-.072.028-.043.015-.072.015-.544.3-.93.501-.387.186-.774.315-.372.115-.802.158-.43.043-1.074.043-.086 0-.473.071-.387.072-.845.172-.458.086-.86.186-.4.086-.5.115-.187.072-.273.143-.071.072-.114.158-.043.086-.086.186-.043.086-.158.186-.143.115-.315.186-.158.072-.3.215-.216.215-.402.573-.186.344-.186.659 0 .387.2.688.201.3.53.515.33.215.745.373.416.157.83.243.43.086.817.129.401.043.688.043.344 0 .816-.043.473-.057.946-.158.472-.114.888-.3.415-.187.658-.473.1-.115.144-.2.043-.1.086-.187l.114-.2q.072-.1.215-.215.33-.272.501-.602.187-.33.272-.687.086-.358.1-.745.015-.387.015-.788zM110.011 107.14q0 .5-.344.787-.33.3-.802.444-.472.158-.988.2-.501.044-.86.044-.472 0-.787-.086-.301-.086-.53-.186-.23-.086-.401-.172-.172-.086-.358-.086-.244 0-.487.086-.23.086-.473.086-.172 0-.286-.058-.1-.057-.172-.143-.072-.072-.144-.129-.057-.057-.143-.057-.1 0-.157.071-.058.086-.13.187-.07.1-.214.172-.129.085-.387.085-.3 0-.587-.071-.286-.057-.587-.057t-.602.1q-.286.114-.544.114-.115 0-.172-.086-.057-.071-.129-.071-.243 0-.515.114-.258.115-.53.115-.144 0-.287-.043-.129-.029-.272-.029-.244 0-.487.115t-.602.115q-.128 0-.572-.043-.43-.029-.888-.1-.459-.072-.831-.187-.358-.1-.358-.229 0-.372.129-.745.143-.372.143-.716v-.029q-.186 0-.215-.2.029-.057.086-.086.072-.043.143-.057.072-.029.13-.072.056-.043.056-.129v-.057q.573.057 1.118.072.558.014 1.16.014.558 0 1.231-.029.688-.043 1.26-.215.588-.171.975-.515.4-.358.4-.988v-.33q-.07-1.575-.157-3.094-.071-1.532-.071-3.108 0-.415-.072-.802-.057-.4-.057-.802 0-.501.172-1.003.186-.5.573-.845-.015-.086-.072-.114-.057-.043-.143-.057l-.172-.03q-.072-.013-.129-.042-.086-.043-.115-.2-.028-.158-.057-.344-.014-.187-.043-.358-.014-.187-.086-.287.043-.415.143-.816.1-.401.1-.817 0-.3-.085-.472-.072-.172-.172-.287-.1-.114-.186-.2-.072-.1-.072-.244 0-.114.072-.215l-.115-.014q-.143 0-.215.072-.071.071-.143.157-.057.086-.129.158-.071.071-.2.071-.1 0-.23-.043-.243.072-.458.072-.501 0-1.002-.129-.487-.143-.989-.143-.272 0-.53.029-.257.014-.515.014-.373 0-.745-.086t-.659-.372v-.172q0-.76.501-1.146.516-.387 1.246-.387.502 0 .989.129t.988.129q.272 0 .573-.057.3-.058.616-.13.315-.07.63-.128.33-.057.645-.057.487 0 .916.214.43.2.86.387l-.015.115q0 .129.058.243.071.1.157.215.086.1.143.215.072.1.072.229t-.043.258q-.029.114-.029.243 0 .315.115.602.129.286.129.616 0 .343-.086.673-.072.33-.072.673 0 .415.1.83.1.416.1.832 0 .343-.114.673-.1.33-.1.659 0 .243.057.487.072.229.158.458.086.23.143.473.072.229.072.487v.286q0 .23-.043.444-.029.2-.186.387.071.272.143.587.086.315.086.602 0 .143-.029.315-.014.157-.072.329-.043.158-.128.3-.086.13-.201.216.186.544.244 1.103.057.558.085 1.117.015.172.058.444l.086.544q.043.258.071.487.043.215.043.3 0 .244-.086.473-.086.23-.086.473 0 .186.086.401.086.2.315.2.172 0 .287-.071.129-.086.272-.172.143-.1.33-.172.2-.086.53-.086.372 0 .701.1.33.1.702.1.272 0 .544-.042.287-.057.545-.115.272-.071.544-.129.272-.057.558-.057.573 0 .96.33.401.329.401.973zm-8.221-17.833q-.058-.057-.144-.114-.071-.057-.171-.057-.072 0-.13.071-.042.057-.042.129l.071.172q.058.029.086.029.115 0 .186-.072.086-.086.144-.158zm.859 3.982q0-.114-.072-.229-.057-.129-.2-.129-.043 0-.1.014-.043.015-.072.03v.615q.115.057.172.057.143 0 .2-.114.072-.13.072-.244zM126.54 105.378q0 .243-.086.458-.086.215-.158.444-.057.2-.086.33-.014.128-.057.229-.043.086-.143.172-.086.071-.287.171-.43.23-.916.473-.473.23-.96.23-.415 0-.788-.187-.358-.2-.673-.43-.3-.243-.559-.444-.243-.2-.415-.2-.186 0-.33.1-.128.1-.271.215-.13.114-.301.215-.158.1-.401.1-.2 0-.416.072-.215.071-.43.171-.214.086-.443.187-.215.086-.401.143-.645.172-1.304.2-.644.029-1.303.029-.172 0-.53-.014-.358 0-.73-.072-.359-.057-.645-.2-.272-.144-.272-.401 0-.058.014-.1-.1.114-.23.185-.128.072-.286.072-.229 0-.558-.315-.33-.315-.63-.73-.301-.416-.516-.817-.215-.415-.215-.616 0-.157.086-.286.1-.13.1-.287 0-.2-.057-.372-.043-.186-.043-.387 0-.258.1-.544.1-.3.244-.587.143-.301.3-.573.158-.287.287-.53.143-.287.401-.459.258-.171.544-.3l.573-.258q.287-.129.502-.344.214.244.558.244.358 0 .702-.1.344-.115.702-.115.286 0 .544.057.272.057.559.057.315 0 .458-.071.158-.086.387-.287.229-.2.573-.3.358-.115.73-.172.387-.072.76-.144.386-.071.687-.2.3-.143.487-.372.186-.244.186-.66 0-.458-.272-.959-.258-.516-.673-.93-.416-.43-.917-.703-.501-.272-.96-.272-.057 0-.114.014-.058.015-.1.015-.344.057-.774.086-.43.014-.802.129-.373.1-.63.358-.258.243-.258.73 0 .287.043.573.057.272.057.559 0 .43-.215.716-.2.286-.53.458-.315.172-.701.244-.387.057-.745.057-.43 0-.745-.115-.315-.114-.516-.53-.157-.3-.343-.644-.172-.358-.172-.716 0-.387.129-.716.143-.344.315-.66.172-.329.33-.644.171-.33.243-.702.1-.057.272-.114.186-.058.386-.115.215-.057.402-.1.2-.057.329-.1.344-.1.659-.23.33-.143.659-.257.343-.115.673-.2.344-.087.702-.101l.444-.014q.616 0 1.26.114.645.1 1.26.33.616.229 1.16.572.56.33.989.788.315.344.516.817.214.458.329.974.129.515.172 1.045.057.516.057.96 0 .601-.043 1.189-.028.573-.028 1.174 0 .573.057 1.146.071.559.157 1.131.086.559.144 1.132.071.559.071 1.117.029.344.086.43.072.071.143.071.315 0 .502-.186.2-.2.358-.43.157-.243.343-.443.187-.201.473-.201.13 0 .258.014.143.015.258.072.114.043.186.143.072.086.072.244zm-4.713-3.567q0-.086-.014-.3 0-.215-.029-.43-.028-.23-.1-.401-.057-.172-.186-.172-.029 0-.072.028-.043.015-.071.015-.544.3-.931.501-.387.186-.774.315-.372.115-.802.158-.43.043-1.074.043-.086 0-.473.071-.386.072-.845.172-.458.086-.859.186-.401.086-.501.115-.186.072-.272.143-.072.072-.115.158-.043.086-.086.186-.043.086-.157.186-.144.115-.316.186-.157.072-.3.215-.215.215-.401.573-.187.344-.187.659 0 .387.201.688.2.3.53.515.33.215.745.373.415.157.83.243.43.086.817.129.4.043.687.043.344 0 .817-.043.472-.057.945-.158.473-.114.888-.3.415-.187.659-.473.1-.115.143-.2.043-.1.086-.187l.115-.2q.071-.1.214-.215.33-.272.502-.602.186-.33.272-.687.086-.358.1-.745.014-.387.014-.788zM142.452 107.14q0 .5-.343.787-.33.3-.802.444-.473.158-.989.2-.501.044-.86.044-.472 0-.787-.086-.3-.086-.53-.186-.229-.086-.4-.172-.173-.086-.359-.086-.243 0-.487.086-.23.086-.473.086-.171 0-.286-.058-.1-.057-.172-.143-.072-.072-.143-.129-.057-.057-.143-.057-.1 0-.158.071-.057.086-.129.187-.071.1-.215.172-.129.085-.386.085-.301 0-.588-.071-.286-.057-.587-.057-.3 0-.601.1-.287.114-.545.114-.114 0-.172-.086-.057-.071-.128-.071-.244 0-.516.114-.258.115-.53.115-.143 0-.287-.043-.128-.029-.272-.029-.243 0-.487.115-.243.115-.601.115-.13 0-.573-.043-.43-.029-.888-.1-.458-.072-.83-.187-.359-.1-.359-.229 0-.372.129-.745.143-.372.143-.716v-.029q-.186 0-.215-.2.029-.057.086-.086.072-.043.143-.057.072-.029.13-.072.057-.043.057-.129v-.057q.573.057 1.117.072.558.014 1.16.014.559 0 1.232-.029.687-.043 1.26-.215.587-.171.974-.515.401-.358.401-.988v-.33q-.071-1.575-.157-3.094-.072-1.532-.072-3.108 0-.415-.072-.802-.057-.4-.057-.802 0-.501.172-1.003.186-.5.573-.845-.014-.086-.072-.114-.057-.043-.143-.057l-.172-.03q-.071-.013-.129-.042-.086-.043-.114-.2-.029-.158-.058-.344-.014-.187-.043-.358-.014-.187-.085-.287.043-.415.143-.816.1-.401.1-.817 0-.3-.086-.472-.071-.172-.172-.287-.1-.114-.186-.2-.072-.1-.072-.244 0-.114.072-.215l-.114-.014q-.144 0-.215.072-.072.071-.144.157-.057.086-.128.158-.072.071-.201.071-.1 0-.23-.043-.243.072-.457.072-.502 0-1.003-.129-.487-.143-.988-.143-.273 0-.53.029-.258.014-.516.014-.372 0-.745-.086-.372-.086-.659-.372v-.172q0-.76.502-1.146.515-.387 1.246-.387.501 0 .988.129t.988.129q.272 0 .573-.057.301-.058.616-.13.315-.07.63-.128.33-.057.645-.057.487 0 .917.214.43.2.859.387l-.014.115q0 .129.057.243.072.1.158.215.085.1.143.215.071.1.071.229t-.043.258q-.028.114-.028.243 0 .315.114.602.13.286.13.616 0 .343-.087.673-.071.33-.071.673 0 .415.1.83.1.416.1.832 0 .343-.114.673-.1.33-.1.659 0 .243.057.487.071.229.157.458.086.23.143.473.072.229.072.487v.286q0 .23-.043.444-.029.2-.186.387.071.272.143.587.086.315.086.602 0 .143-.029.315-.014.157-.071.329-.043.158-.13.3-.085.13-.2.216.187.544.244 1.103.057.558.086 1.117.014.172.057.444l.086.544q.043.258.072.487.043.215.043.3 0 .244-.086.473-.086.23-.086.473 0 .186.086.401.086.2.315.2.172 0 .286-.071.13-.086.272-.172.144-.1.33-.172.2-.086.53-.086.372 0 .702.1.329.1.701.1.273 0 .545-.042.286-.057.544-.115.272-.071.544-.129.272-.057.559-.057.573 0 .96.33.4.329.4.973zm-8.221-17.833q-.057-.057-.143-.114-.072-.057-.172-.057-.072 0-.129.071-.043.057-.043.129l.072.172q.057.029.085.029.115 0 .187-.072.086-.086.143-.158zm.86 3.982q0-.114-.072-.229-.058-.129-.2-.129-.044 0-.101.014-.043.015-.072.03v.615q.115.057.172.057.144 0 .2-.114.072-.13.072-.244zM157.234 104.89q0 .387-.13.66-.114.272-.314.487-.187.214-.444.4-.244.187-.502.402-.2.171-.358.257-.157.086-.315.144-.143.057-.315.114-.158.058-.372.158-.287.143-.487.272-.187.115-.387.215-.186.1-.415.157-.23.072-.573.115-.573.072-1.16.172-.573.1-1.146.1-.115 0-.244-.057-.114-.043-.272-.1l-.358-.1q-.186-.044-.458-.044-.287 0-.459-.086-.172-.086-.315-.2l-.272-.244q-.143-.143-.372-.243-.86-.387-1.461-.931-.602-.544-1.032-1.218-.43-.673-.716-1.46-.286-.788-.487-1.648-.157-.601-.157-1.203 0-.788.372-1.46-.143-.402-.143-.774 0-.272.157-.802.158-.545.402-1.089.257-.544.544-.974.3-.444.558-.544.2-.072.273-.115.085-.057.085-.286 0-.172.13-.287.143-.114.329-.186.2-.071.386-.129.201-.057.33-.114.53-.258 1.003-.43.486-.186.96-.3.486-.13 1.002-.187.515-.057 1.103-.057.315 0 .616.086.3.086.572.229.287.129.559.3.272.158.53.316h-.014q.214.028.4.129.201.086.416.114.2.244.516.473.33.215.63.458.315.244.53.53.229.272.229.63 0 .058-.014.115 0 .057-.015.129l.058-.072q.057.043.1.144.057.1.1.229.043.114.072.243.028.115.043.186.114.187.3.301.201.115.316.315-.144.144-.144.373 0 .243.1.487.101.229.101.472 0 .287-.029.559-.028.258-.028.544 0 .215-.172.33-.158.114-.358.2-.186.086-.344.172-.157.086-.157.243 0 .115-.144.115-.129-.014-.215-.014-.63 0-1.26-.158-.616-.157-1.232-.157-.673 0-1.332.1-.659.086-1.332.086-.501 0-1.002-.029-.487-.028-.989-.028-.129 0-.487.057-.358.043-.759.129-.386.071-.745.186-.358.1-.5.2-.015.072-.015.201 0 .673.387 1.39.4.716 1.045 1.303.645.587 1.447.974.802.386 1.618.386.473 0 .931.043.473.03.917.201.387-.186.702-.43.33-.243.63-.515t.587-.559q.287-.286.587-.573.058-.057.273-.1.229-.057.487-.086.257-.043.487-.057.243-.029.329-.029.33 0 .616.1.086.33.086.645zm-2.149-5.814q0-.215-.071-.416-.072-.2-.115-.415-.072-.401-.072-.774 0-.386-.114-.773h-.014q0 .086-.058.172-.057.071-.157.071-.172 0-.33-.085-.157-.086-.272-.215-.544-.244-.988-.459-.43-.214-.874-.372-.43-.172-.93-.258-.488-.1-1.132-.1-.058 0-.115.014-.043 0-.086.043l.072.158-.115.028q-.387.072-.644.144-.244.057-.444.171-.2.115-.401.287-.187.158-.487.415-.144.13-.316.2-.157.058-.329.115-.157.043-.315.1-.143.058-.244.187-.1.358-.3.702-.187.33-.187.702 0 .214.172.386.187.158.459.272.286.115.616.2.343.087.673.13.33.043.601.071.287.015.444.015.545 0 1.075-.1.53-.115 1.074-.115.558 0 1.117.057.559.043 1.117.043.143 0 .43-.014.286-.014.558-.072.287-.071.487-.186.215-.129.215-.33zM174.264 107.14q0 .5-.344.787-.33.3-.802.444-.473.158-.989.2-.5.044-.859.044-.473 0-.788-.086-.3-.086-.53-.186-.229-.086-.4-.172-.173-.086-.359-.086-.243 0-.487.086-.229.086-.472.086-.172 0-.287-.058-.1-.057-.172-.143-.071-.072-.143-.129-.057-.057-.143-.057-.1 0-.158.071-.057.086-.129.187-.071.1-.215.172-.128.085-.386.085-.301 0-.587-.071-.287-.057-.588-.057-.3 0-.601.1-.287.114-.545.114-.114 0-.171-.086-.058-.071-.13-.071-.243 0-.515.114-.258.115-.53.115-.143 0-.286-.043-.13-.029-.272-.029-.244 0-.487.115-.244.115-.602.115-.129 0-.573-.043-.43-.029-.888-.1-.458-.072-.83-.187-.359-.1-.359-.229 0-.372.13-.745.142-.372.142-.716v-.029q-.186 0-.214-.2.028-.057.085-.086.072-.043.144-.057.071-.029.129-.072.057-.043.057-.129v-.057q.573.057 1.117.072.559.014 1.16.014.559 0 1.232-.029.687-.043 1.26-.215.588-.171.974-.515.401-.358.401-.988v-.33q-.071-1.575-.157-3.094-.072-1.532-.072-3.108 0-.415-.071-.802-.058-.4-.058-.802 0-.501.172-1.003.186-.5.573-.845-.014-.086-.071-.114-.058-.043-.144-.057l-.172-.03q-.071-.013-.128-.042-.086-.043-.115-.2-.029-.158-.057-.344-.015-.187-.043-.358-.015-.187-.086-.287.043-.415.143-.816.1-.401.1-.817 0-.3-.086-.472-.071-.172-.172-.287-.1-.114-.186-.2-.071-.1-.071-.244 0-.114.071-.215l-.114-.014q-.144 0-.215.072-.072.071-.143.157-.058.086-.13.158-.07.071-.2.071-.1 0-.229-.043-.243.072-.458.072-.502 0-1.003-.129-.487-.143-.988-.143-.272 0-.53.029-.258.014-.516.014-.372 0-.745-.086-.372-.086-.658-.372v-.172q0-.76.5-1.146.516-.387 1.247-.387.501 0 .988.129t.989.129q.272 0 .572-.057.301-.058.616-.13.315-.07.63-.128.33-.057.645-.057.487 0 .917.214.43.2.86.387l-.015.115q0 .129.057.243.072.1.158.215.086.1.143.215.071.1.071.229t-.043.258q-.028.114-.028.243 0 .315.114.602.13.286.13.616 0 .343-.087.673-.071.33-.071.673 0 .415.1.83.1.416.1.832 0 .343-.114.673-.1.33-.1.659 0 .243.057.487.071.229.157.458.086.23.144.473.071.229.071.487v.286q0 .23-.043.444-.028.2-.186.387.072.272.143.587.086.315.086.602 0 .143-.028.315-.015.157-.072.329-.043.158-.129.3-.086.13-.2.216.186.544.243 1.103.057.558.086 1.117.014.172.057.444l.086.544q.043.258.072.487.043.215.043.3 0 .244-.086.473-.086.23-.086.473 0 .186.086.401.086.2.315.2.172 0 .286-.071.13-.086.272-.172.144-.1.33-.172.2-.086.53-.086.372 0 .702.1.33.1.702.1.272 0 .544-.042.286-.057.544-.115.272-.071.544-.129.272-.057.559-.057.573 0 .96.33.4.329.4.973zm-8.222-17.833q-.057-.057-.143-.114-.072-.057-.172-.057-.072 0-.129.071-.043.057-.043.129l.072.172q.057.029.086.029.114 0 .186-.072.086-.086.143-.158zm.86 3.982q0-.114-.072-.229-.057-.129-.2-.129-.044 0-.1.014-.044.015-.072.03v.615q.114.057.171.057.144 0 .201-.114.072-.13.072-.244zM190.277 101.61q0 .201-.072.387-.057.172-.143.301-.072.13-.144.215-.057.086-.057.1 0 .144.086.301.1.158.1.344 0 .086-.071.114-.058.03-.13.03-.128 0-.214-.03.014.273.043.53.043.258.043.53 0 .416-.086.545-.072.114-.157.143-.086.028-.172.071-.072.03-.072.258 0 .13-.186.33-.172.2-.43.4-.243.201-.515.345-.258.143-.416.143-.043 0-.1-.029 0 .115.014.244.015.129.015.243 0 .186-.115.258-.115.057-.258.115-.215.1-.444.3-.229.186-.473.387-.243.2-.5.344-.244.157-.516.157-.23 0-.43-.114-.186-.115-.444-.115-.23 0-.387.057-.157.072-.3.144-.13.086-.273.143-.143.072-.33.072-.372 0-.744-.201-.372-.186-.716-.3-.2-.072-.43-.115-.229-.029-.444-.072t-.415-.143q-.186-.086-.33-.258-.3-.372-.701-.616-.402-.243-.817-.458-.415-.215-.802-.444-.387-.244-.673-.63-.215-.301-.487-.645-.272-.358-.516-.745-.229-.386-.386-.788-.158-.4-.158-.787 0-.287.057-.559l.115-.544q.071-.287.129-.559.057-.272.057-.558v-.158q0-.057-.043-.129-.043-.071-.1-.129-.043-.071-.1-.114-.043-.058-.058-.058-.028 0-.028.015.014-.13.071-.387.072-.272.158-.544.086-.287.172-.516.086-.243.157-.315.086-.072.158-.143.086-.086.086-.215t-.015-.244q-.014-.128-.014-.257 0-.172.043-.2.043-.044.115-.044.071 0 .143-.014.072-.029.143-.158.13-.258.244-.472.129-.23.272-.416.143-.186.33-.343.185-.158.458-.301.229-.13.444-.315l.458-.373q.229-.186.458-.315.244-.129.516-.129.387 0 .745-.129.372-.143.744-.215.588-.085 1.16-.157.588-.086 1.19-.086.329 0 .801.115.473.1.96.272.501.172.931.386.444.215.702.43v.043q0 .2-.072.415-.071.201-.071.401v.058q0 .028.028.028.244 0 .459-.057.229-.071.472-.071.029.243.215.329.186.086.373.158.171.085.315.315.157.214.286.5.129.273.244.545.128.272.243.444.115.172.2.416.1.229.158.487.072.257.1.515.029.244.029.458 0 .287-.115.487-.1.187-.229.344-.129.143-.243.287-.1.129-.1.3 0 .1.042.187.043.086.115.157.029-.014.115-.028.1-.015.1-.086v-.015q0-.114-.1-.215-.086-.1-.086-.243 0-.029.028-.086.029-.072.072-.072.086 0 .172.115.086.1.157.23.086.114.13.2.042.086.042.057l-.014-.014q.014.071.014.129.015.043.015.1zm-1.433.115q0-.229-.172-.272-.172-.057-.386-.071-.215-.015-.43-.043-.2-.029-.272-.215v-.143q0-.316-.086-.73-.072-.43-.186-.86-.115-.444-.244-.86-.129-.43-.243-.759l-.186-.53-.072-.2q-.115.028-.186.028-.244 0-.43-.1-.172-.1-.401-.215-.215-.114-.544-.215-.315-.1-.845-.1-.588 0-1.16-.071-.573-.086-1.16-.086-.803 0-1.505.372-.701.358-1.231.96-.53.587-.831 1.332-.3.744-.3 1.504 0 .315.014.744.014.416.071.845.057.416.186.788.13.358.358.544v.402q.058.057.144.071h.186q.1 0 .172.029.071.014.114.114.186.53.487.817.301.272.645.472.344.187.687.387.344.186.63.559.115-.015.244-.015.129-.014.243-.014.459 0 .888.072.444.057.889.057.472 0 .845-.244.386-.243.658-.615.172-.244.316-.416.143-.172.286-.315.158-.157.33-.286.186-.144.43-.315.085-.058.2-.144.129-.086.243-.186.129-.114.215-.215.086-.114.086-.215 0-.128-.043-.257-.029-.13-.029-.258 0-.143.043-.344.043-.2.13-.387.1-.186.228-.3.144-.13.344-.13.158 0 .315.072.158.072.287.172.028-.143.028-.215zM216.602 92.931q0 .258-.014.53 0 .258-.058.501-.028.13-.128.287-.1.143-.244.286-.129.13-.286.23-.158.085-.287.085-.215 0-.272-.172-.057-.171-.086-.372-.014-.2-.086-.372-.057-.172-.286-.172-.072 0-.13.028-.042.03-.114.03-.028 0-.057-.173l-.072-.415q-.043-.244-.1-.487-.057-.258-.129-.43-.129-.272-.272-.558-.129-.301-.129-.63 0-.23.086-.387.086-.172.186-.315.1-.144.186-.287t.086-.344q0-.286-.186-.5-.186-.216-.473-.345-.272-.143-.587-.2-.3-.072-.53-.072-.386 0-.759.1-.358.086-.73.215-.358.13-.716.272-.359.144-.717.244.072.2.086.415.029.215.029.43 0 .487-.043.974-.043.473-.043.96 0 .53.057 1.06l.115 1.03q.071.516.129 1.046.057.516.057 1.032 0 .63-.215 1.231-.043.115-.043.186 0 .158.072.316l.157.315q.1.157.172.33.072.171.072.357 0 .172-.058.33-.057.157-.057.315 0 .229.057.444.072.215.072.444 0 .129-.072.157-.057.029-.143.029t-.157.014q-.058 0-.058.072 0 .215.086.415.1.186.1.401 0 .186-.085.358-.072.158-.072.344 0 .186.158.33.171.143.243.343.072.244.115.559.057.315.2.601.158.287.473.487.315.187.93.187h.416q.172 0 .416.028.257.029.487.115.243.071.4.229.172.143.172.372 0 .23-.085.444-.086.215-.086.444 0 .072.028.215-.215 0-.386.1-.158.086-.23.301-.286-.057-.587-.071-.286-.029-.573-.029-.73 0-1.446.115-.717.1-1.447.229l-1.447.229q-.716.1-1.446.1-.244 0-.602-.014t-.687-.1q-.33-.086-.573-.258-.23-.186-.23-.53 0-.401.072-.587.086-.2.2-.273.115-.085.259-.1.157-.014.3-.057.043-.043.043-.086 0-.072-.071-.115-.058-.057-.13-.085.244-.215.545-.301.315-.086.63-.115l.66-.057q.329-.029.615-.143.115-.043.244-.244.128-.2.229-.444.114-.243.172-.487.071-.243.071-.372v-.029q-.1-.687-.157-1.346-.058-.66-.058-1.347 0-.057.043-.186.043-.143.115-.286.057-.158.157-.358-.114-.186-.2-.344-.072-.143-.129-.272-.057-.13-.057-.2 0-.173.057-.33.057-.158.086-.315.086-.602.086-1.218 0-.257-.043-.501-.029-.258-.086-.501-.186-.874-.186-1.805 0-1.088.143-2.163.143-1.074.143-2.162 0-.373-.129-.573-.129-.215-.501-.33-.501-.143-1.046-.229-.53-.086-1.06-.086-.4 0-.845.1-.43.086-.802.301-.358.2-.601.544-.23.33-.23.802 0 .244.03.473.028.23.028.473 0 .229-.1.4-.086.158-.086.316 0 .215.114.401.115.186.115.401 0 .143-.072.315-.057.172-.143.358l-.172.344q-.071.172-.114.315-.072.215-.187.372-.114.158-.358.158-.2 0-.372-.129-.172-.143-.172-.344 0-.157.072-.243.086-.1.086-.23 0-.143-.058-.286-.057-.157-.143-.3-.072-.158-.129-.316-.057-.157-.057-.315 0-.2.057-.386.072-.187.072-.387 0-.43-.143-.845-.13-.416-.13-.845 0-.387.086-.917t.287-1.017q.215-.487.544-.816.344-.344.86-.344.358 0 .701.086.358.071.73.071.416 0 .832-.071.415-.072.83-.072.287 0 .53.1.258.086.545.086.171 0 .286-.071.129-.086.286-.086.172 0 .33.086.172.071.344.071.157 0 .286-.042.143-.043.287-.043.214 0 .415.057.215.057.415.057l1.733-.215.774-.057q.387-.029.788-.029.687 0 1.36.115.688.1 1.375.258v.014q.473.115.673.487.2.372.258.86.072.472.058.973-.015.502.014.86.043.544.1 1.103.072.544.072 1.088zM234.076 97.428q0 .287-.115.487-.114.201-.257.387l-.273.358q-.128.186-.171.444-.13-.057-.273-.071-.128-.015-.272-.015-.343 0-.687.058-.33.043-.66.043-.386 0-.644-.23-.243-.243-.4-.587-.144-.344-.201-.73-.057-.401-.057-.716 0-.401.128-.817-.114-.043-.2-.043-.186 0-.272.115-.072.114-.215.114-.129 0-.23-.086-.1-.1-.243-.1-.215 0-.544.143-.315.13-.616.344-.3.215-.53.473-.215.243-.215.472-.3.03-.573.172-.257.13-.5.287-.187.114-.316.358-.129.243-.243.53-.1.272-.215.558-.1.287-.244.473-.243.315-.43.645-.171.315-.171.716 0 .501.157 1.017.158.515.158 1.045 0 .344-.058.688-.043.343-.043.673 0 .4.144.644.143.244.386.387.244.129.559.172.315.043.645.043.358 0 .687-.014.344-.029.63-.029.1.115.115.215.014.1-.015.215-.014.1-.057.215-.028.1-.028.243 0 .057.028.143.215 0 .373-.1.157-.1.229-.315.1.029.172.086.086.057.086.172 0 .086-.043.172-.043.071-.1.143-.058.071-.101.157-.043.072-.043.172 0 .058.014.13.015.057.043.1-.071.114-.2.157-.13.043-.258.043-.23 0-.387-.072-.143-.071-.272-.157-.114-.086-.215-.158-.1-.071-.243-.071-.058 0-.172.028-.115.029-.23.072-.114.043-.2.114-.086.058-.086.115 0 .115.072.2.086.086.086.201 0 .1-.072.158-.071.057-.172.071-.1.029-.214.029-.1.014-.172.014-.559 0-1.118-.129-.544-.114-1.102-.114-.258 0-.516.114-.258.115-.544.115-.158 0-.244-.072-.071-.057-.129-.143-.057-.086-.129-.158-.071-.057-.214-.057-.273 0-.545.057-.258.058-.53.115-.257.072-.53.115-.257.057-.53.057-.143 0-.343-.043-.2-.029-.387-.115-.186-.086-.315-.214-.129-.13-.129-.316 0-.114.129-.3.143-.187.315-.358.172-.187.344-.316.172-.128.258-.128.229 0 .444.014.229.014.472.014.387 0 .774-.114.4-.13.716-.359.33-.229.53-.572.2-.344.2-.774 0-.186-.028-.358-.029-.186-.029-.372 0-.373.086-.745.086-.373.086-.745 0-.501-.115-1.017-.1-.53-.1-1.06 0-.472.014-.93.029-.473.029-.946 0-.215-.014-.63-.015-.416-.1-.831-.072-.415-.244-.73-.158-.316-.444-.316-.315 0-.63.072t-.645.072q-.243 0-.573-.029-.33-.043-.63-.143-.3-.115-.516-.315-.214-.2-.214-.53 0-.358.1-.573.1-.23.258-.344.171-.115.386-.157.23-.043.487-.043.23 0 .473.014.243.014.473.014.458 0 .902-.043.458-.057.917-.057.315 0 .63.029.315.028.616.128.272.086.4.33.13.23.23.473.114.243.258.444.143.186.458.186.143 0 .258-.072.129-.086.243-.186.115-.1.23-.186.114-.086.272-.115.315-.043.573-.2.272-.158.53-.315.257-.158.515-.287.272-.129.587-.129.187 0 .459-.043.286-.043.558-.114.287-.086.53-.2.258-.115.401-.259.387.029.903.187.53.157 1.002.43.487.257.845.615t.416.802q.043.272.157.516l.23.487q.128.229.229.487.1.243.1.515zM250.92 105.378q0 .243-.086.458-.086.215-.158.444-.057.2-.086.33-.014.128-.057.229-.043.086-.143.172-.086.071-.287.171-.43.23-.916.473-.473.23-.96.23-.415 0-.788-.187-.358-.2-.673-.43-.3-.243-.558-.444-.244-.2-.416-.2-.186 0-.33.1-.128.1-.271.215-.13.114-.301.215-.158.1-.401.1-.2 0-.416.072-.214.071-.43.171-.214.086-.443.187-.215.086-.401.143-.645.172-1.304.2-.644.029-1.303.029-.172 0-.53-.014-.358 0-.73-.072-.359-.057-.645-.2-.272-.144-.272-.401 0-.058.014-.1-.1.114-.23.185-.128.072-.286.072-.229 0-.558-.315-.33-.315-.63-.73-.301-.416-.516-.817-.215-.415-.215-.616 0-.157.086-.286.1-.13.1-.287 0-.2-.057-.372-.043-.186-.043-.387 0-.258.1-.544.1-.3.244-.587.143-.301.3-.573.158-.287.287-.53.143-.287.401-.459.258-.171.544-.3l.573-.258q.287-.129.502-.344.214.244.558.244.358 0 .702-.1.344-.115.702-.115.286 0 .544.057.272.057.559.057.315 0 .458-.071.158-.086.387-.287.229-.2.573-.3.358-.115.73-.172.387-.072.76-.144.386-.071.687-.2.3-.143.487-.372.186-.244.186-.66 0-.458-.272-.959-.258-.516-.673-.93-.416-.43-.917-.703-.501-.272-.96-.272-.057 0-.114.014-.058.015-.1.015-.344.057-.774.086-.43.014-.802.129-.372.1-.63.358-.258.243-.258.73 0 .287.043.573.057.272.057.559 0 .43-.215.716-.2.286-.53.458-.315.172-.701.244-.387.057-.745.057-.43 0-.745-.115-.315-.114-.516-.53-.157-.3-.343-.644-.172-.358-.172-.716 0-.387.129-.716.143-.344.315-.66.172-.329.33-.644.171-.33.243-.702.1-.057.272-.114.186-.058.387-.115.214-.057.4-.1.201-.057.33-.1.344-.1.659-.23.33-.143.659-.257.343-.115.673-.2.344-.087.702-.101l.444-.014q.616 0 1.26.114.645.1 1.26.33.616.229 1.16.572.56.33.989.788.315.344.516.817.214.458.33.974.128.515.17 1.045.058.516.058.96 0 .601-.043 1.189-.028.573-.028 1.174 0 .573.057 1.146.072.559.157 1.131.086.559.144 1.132.071.559.071 1.117.029.344.086.43.072.071.143.071.316 0 .502-.186.2-.2.358-.43.157-.243.344-.443.186-.201.472-.201.13 0 .258.014.143.015.258.072.114.043.186.143.072.086.072.244zm-4.713-3.567q0-.086-.014-.3 0-.215-.028-.43-.03-.23-.1-.401-.058-.172-.187-.172-.029 0-.072.028-.043.015-.071.015-.544.3-.931.501-.387.186-.774.315-.372.115-.802.158-.43.043-1.074.043-.086 0-.472.071-.387.072-.846.172-.458.086-.859.186-.4.086-.501.115-.186.072-.272.143-.072.072-.115.158-.043.086-.086.186-.043.086-.157.186-.144.115-.315.186-.158.072-.301.215-.215.215-.401.573-.187.344-.187.659 0 .387.201.688.2.3.53.515.33.215.745.373.415.157.83.243.43.086.817.129.4.043.687.043.344 0 .817-.043.472-.057.945-.158.473-.114.888-.3.415-.187.659-.473.1-.115.143-.2.043-.1.086-.187l.115-.2q.071-.1.215-.215.329-.272.5-.602.187-.33.273-.687.086-.358.1-.745.015-.387.015-.788zM266.832 107.14q0 .5-.343.787-.33.3-.802.444-.473.158-.989.2-.501.044-.86.044-.472 0-.787-.086-.3-.086-.53-.186-.229-.086-.4-.172-.173-.086-.359-.086-.243 0-.487.086-.229.086-.473.086-.171 0-.286-.058-.1-.057-.172-.143-.071-.072-.143-.129-.057-.057-.143-.057-.1 0-.158.071-.057.086-.129.187-.071.1-.215.172-.129.085-.386.085-.301 0-.588-.071-.286-.057-.587-.057-.3 0-.601.1-.287.114-.545.114-.114 0-.172-.086-.057-.071-.128-.071-.244 0-.516.114-.258.115-.53.115-.143 0-.286-.043-.13-.029-.273-.029-.243 0-.487.115-.243.115-.601.115-.129 0-.573-.043-.43-.029-.888-.1-.458-.072-.83-.187-.359-.1-.359-.229 0-.372.129-.745.143-.372.143-.716v-.029q-.186 0-.215-.2.029-.057.086-.086.072-.043.144-.057.071-.029.128-.072.058-.043.058-.129v-.057q.573.057 1.117.072.559.014 1.16.014.559 0 1.232-.029.687-.043 1.26-.215.588-.171.974-.515.401-.358.401-.988v-.33q-.071-1.575-.157-3.094-.072-1.532-.072-3.108 0-.415-.071-.802-.058-.4-.058-.802 0-.501.172-1.003.186-.5.573-.845-.014-.086-.072-.114-.057-.043-.143-.057l-.172-.03q-.071-.013-.129-.042-.085-.043-.114-.2-.029-.158-.057-.344-.015-.187-.043-.358-.015-.187-.086-.287.043-.415.143-.816.1-.401.1-.817 0-.3-.086-.472-.071-.172-.172-.287-.1-.114-.186-.2-.071-.1-.071-.244 0-.114.071-.215l-.114-.014q-.144 0-.215.072-.072.071-.143.157-.058.086-.13.158-.071.071-.2.071-.1 0-.23-.043-.243.072-.457.072-.502 0-1.003-.129-.487-.143-.988-.143-.272 0-.53.029-.258.014-.516.014-.372 0-.745-.086-.372-.086-.659-.372v-.172q0-.76.502-1.146.515-.387 1.246-.387.501 0 .988.129t.988.129q.273 0 .573-.057.301-.058.616-.13.315-.07.63-.128.33-.057.645-.057.487 0 .917.214.43.2.859.387l-.014.115q0 .129.057.243.072.1.158.215.085.1.143.215.071.1.071.229t-.043.258q-.028.114-.028.243 0 .315.114.602.13.286.13.616 0 .343-.087.673-.071.33-.071.673 0 .415.1.83.1.416.1.832 0 .343-.114.673-.1.33-.1.659 0 .243.057.487.071.229.157.458.086.23.144.473.071.229.071.487v.286q0 .23-.043.444-.028.2-.186.387.072.272.143.587.086.315.086.602 0 .143-.029.315-.014.157-.071.329-.043.158-.13.3-.085.13-.2.216.187.544.244 1.103.057.558.086 1.117.014.172.057.444l.086.544q.043.258.072.487.043.215.043.3 0 .244-.086.473-.086.23-.086.473 0 .186.086.401.086.2.315.2.172 0 .286-.071.13-.086.272-.172.144-.1.33-.172.2-.086.53-.086.372 0 .702.1.329.1.701.1.272 0 .545-.042.286-.057.544-.115.272-.071.544-.129.272-.057.559-.057.573 0 .96.33.4.329.4.973zm-8.22-17.833q-.058-.057-.144-.114-.072-.057-.172-.057-.072 0-.129.071-.043.057-.043.129l.072.172q.057.029.086.029.114 0 .186-.072.086-.086.143-.158zm.858 3.982q0-.114-.071-.229-.057-.129-.2-.129-.044 0-.1.014-.044.015-.073.03v.615q.115.057.172.057.144 0 .2-.114.072-.13.072-.244zM283.361 105.378q0 .243-.086.458-.086.215-.157.444-.058.2-.086.33-.015.128-.058.229-.043.086-.143.172-.086.071-.286.171-.43.23-.917.473-.473.23-.96.23-.415 0-.787-.187-.358-.2-.674-.43-.3-.243-.558-.444-.244-.2-.415-.2-.187 0-.33.1-.129.1-.272.215-.129.114-.3.215-.158.1-.402.1-.2 0-.415.072-.215.071-.43.171-.215.086-.444.187-.215.086-.401.143-.645.172-1.303.2-.645.029-1.304.029-.172 0-.53-.014-.358 0-.73-.072-.358-.057-.645-.2-.272-.144-.272-.401 0-.058.014-.1-.1.114-.229.185-.129.072-.286.072-.23 0-.559-.315-.33-.315-.63-.73-.3-.416-.516-.817-.214-.415-.214-.616 0-.157.085-.286.1-.13.1-.287 0-.2-.057-.372-.043-.186-.043-.387 0-.258.1-.544.101-.3.244-.587.143-.301.301-.573.158-.287.286-.53.144-.287.401-.459.258-.171.545-.3.286-.13.573-.258.286-.129.501-.344.215.244.559.244.358 0 .701-.1.344-.115.702-.115.287 0 .544.057.273.057.56.057.314 0 .457-.071.158-.086.387-.287.23-.2.573-.3.358-.115.73-.172.387-.072.76-.144.386-.071.687-.2.3-.143.487-.372.186-.244.186-.66 0-.458-.272-.959-.258-.516-.673-.93-.415-.43-.917-.703-.501-.272-.96-.272-.057 0-.114.014-.057.015-.1.015-.344.057-.774.086-.43.014-.802.129-.372.1-.63.358-.258.243-.258.73 0 .287.043.573.058.272.058.559 0 .43-.215.716-.2.286-.53.458-.315.172-.702.244-.387.057-.745.057-.43 0-.745-.115-.315-.114-.515-.53-.158-.3-.344-.644-.172-.358-.172-.716 0-.387.129-.716.143-.344.315-.66.172-.329.33-.644.171-.33.243-.702.1-.057.272-.114.186-.058.387-.115.215-.057.401-.1.2-.057.33-.1.343-.1.658-.23.33-.143.66-.257.343-.115.672-.2.344-.087.702-.101l.444-.014q.616 0 1.26.114.645.1 1.26.33.617.229 1.161.572.559.33.988.788.315.344.516.817.215.458.33.974.128.515.171 1.045.058.516.058.96 0 .601-.043 1.189-.029.573-.029 1.174 0 .573.057 1.146.072.559.158 1.131.086.559.143 1.132.072.559.072 1.117.028.344.086.43.071.071.143.071.315 0 .501-.186.2-.2.358-.43.158-.243.344-.443.186-.201.473-.201.128 0 .257.014.144.015.258.072.115.043.186.143.072.086.072.244zm-4.712-3.567q0-.086-.014-.3 0-.215-.03-.43-.028-.23-.1-.401-.057-.172-.186-.172-.028 0-.071.028-.043.015-.072.015-.544.3-.93.501-.388.186-.774.315-.373.115-.802.158-.43.043-1.075.043-.085 0-.472.071-.387.072-.845.172-.459.086-.86.186-.4.086-.5.115-.187.072-.273.143-.072.072-.115.158-.043.086-.086.186-.043.086-.157.186-.143.115-.315.186-.158.072-.301.215-.215.215-.401.573-.186.344-.186.659 0 .387.2.688.2.3.53.515.33.215.745.373.415.157.83.243.43.086.817.129.401.043.688.043.343 0 .816-.043.473-.057.945-.158.473-.114.888-.3.416-.187.66-.473.1-.115.142-.2.043-.1.086-.187l.115-.2q.072-.1.215-.215.33-.272.501-.602.186-.33.272-.687.086-.358.1-.745.015-.387.015-.788zM299.274 107.14q0 .5-.344.787-.33.3-.802.444-.473.158-.988.2-.502.044-.86.044-.472 0-.787-.086-.301-.086-.53-.186-.23-.086-.401-.172-.172-.086-.359-.086-.243 0-.486.086-.23.086-.473.086-.172 0-.287-.058-.1-.057-.171-.143-.072-.072-.144-.129-.057-.057-.143-.057-.1 0-.157.071-.058.086-.13.187-.071.1-.214.172-.13.085-.387.085-.3 0-.587-.071-.287-.057-.587-.057-.301 0-.602.1-.286.114-.544.114-.115 0-.172-.086-.057-.071-.13-.071-.243 0-.515.114-.257.115-.53.115-.143 0-.286-.043-.129-.029-.272-.029-.244 0-.487.115-.244.115-.602.115-.129 0-.573-.043-.43-.029-.888-.1-.458-.072-.83-.187-.358-.1-.358-.229 0-.372.128-.745.144-.372.144-.716v-.029q-.187 0-.215-.2.028-.057.086-.086.071-.043.143-.057.072-.029.129-.072.057-.043.057-.129v-.057q.573.057 1.117.072.559.014 1.16.014.56 0 1.232-.029.688-.043 1.26-.215.588-.171.975-.515.4-.358.4-.988v-.33q-.07-1.575-.157-3.094-.071-1.532-.071-3.108 0-.415-.072-.802-.057-.4-.057-.802 0-.501.171-1.003.187-.5.573-.845-.014-.086-.071-.114-.057-.043-.143-.057l-.172-.03q-.072-.013-.13-.042-.085-.043-.114-.2-.028-.158-.057-.344-.014-.187-.043-.358-.014-.187-.086-.287.043-.415.143-.816.1-.401.1-.817 0-.3-.085-.472-.072-.172-.172-.287-.1-.114-.186-.2-.072-.1-.072-.244 0-.114.072-.215l-.115-.014q-.143 0-.215.072-.071.071-.143.157-.057.086-.129.158-.072.071-.2.071-.1 0-.23-.043-.243.072-.458.072-.501 0-1.003-.129-.487-.143-.988-.143-.272 0-.53.029-.258.014-.516.014-.372 0-.744-.086-.373-.086-.66-.372v-.172q0-.76.502-1.146.516-.387 1.246-.387.502 0 .989.129t.988.129q.272 0 .573-.057.3-.058.616-.13.315-.07.63-.128.33-.057.644-.057.487 0 .917.214.43.2.86.387l-.015.115q0 .129.057.243.072.1.158.215.086.1.143.215.072.1.072.229t-.043.258q-.029.114-.029.243 0 .315.115.602.129.286.129.616 0 .343-.086.673-.072.33-.072.673 0 .415.1.83.1.416.1.832 0 .343-.114.673-.1.33-.1.659 0 .243.057.487.072.229.158.458.086.23.143.473.072.229.072.487v.286q0 .23-.043.444-.03.2-.187.387.072.272.144.587.085.315.085.602 0 .143-.028.315-.014.157-.072.329-.043.158-.129.3-.086.13-.2.216.186.544.243 1.103.058.558.086 1.117.014.172.057.444l.086.544q.043.258.072.487.043.215.043.3 0 .244-.086.473-.086.23-.086.473 0 .186.086.401.086.2.315.2.172 0 .287-.071.129-.086.272-.172.143-.1.33-.172.2-.086.53-.086.372 0 .701.1.33.1.702.1.272 0 .544-.042.287-.057.544-.115.272-.071.545-.129.272-.057.558-.057.573 0 .96.33.4.329.4.973zm-8.222-17.833q-.057-.057-.143-.114-.071-.057-.172-.057-.071 0-.129.071-.043.057-.043.129l.072.172q.057.029.086.029.115 0 .186-.072.086-.086.143-.158zm.86 3.982q0-.114-.072-.229-.057-.129-.2-.129-.043 0-.1.014-.044.015-.072.03v.615q.114.057.172.057.143 0 .2-.114.072-.13.072-.244zM315.802 105.378q0 .243-.085.458-.086.215-.158.444-.057.2-.086.33-.014.128-.057.229-.043.086-.143.172-.086.071-.287.171-.43.23-.917.473-.472.23-.96.23-.415 0-.787-.187-.358-.2-.673-.43-.3-.243-.559-.444-.243-.2-.415-.2-.186 0-.33.1l-.272.215q-.129.114-.3.215-.158.1-.401.1-.201 0-.416.072-.215.071-.43.171-.214.086-.444.187-.214.086-.4.143-.645.172-1.304.2-.645.029-1.303.029-.172 0-.53-.014-.358 0-.73-.072-.359-.057-.645-.2-.272-.144-.272-.401 0-.058.014-.1-.1.114-.23.185-.128.072-.286.072-.229 0-.558-.315-.33-.315-.63-.73-.301-.416-.516-.817-.215-.415-.215-.616 0-.157.086-.286.1-.13.1-.287 0-.2-.057-.372-.043-.186-.043-.387 0-.258.1-.544.1-.3.244-.587.143-.301.3-.573.158-.287.287-.53.143-.287.4-.459.259-.171.545-.3l.573-.258q.287-.129.501-.344.215.244.559.244.358 0 .702-.1.344-.115.702-.115.286 0 .544.057.272.057.558.057.316 0 .459-.071.157-.086.386-.287.23-.2.573-.3.358-.115.73-.172.388-.072.76-.144.387-.071.688-.2.3-.143.486-.372.187-.244.187-.66 0-.458-.272-.959-.258-.516-.674-.93-.415-.43-.916-.703-.502-.272-.96-.272-.057 0-.115.014-.057.015-.1.015-.344.057-.773.086-.43.014-.802.129-.373.1-.63.358-.258.243-.258.73 0 .287.043.573.057.272.057.559 0 .43-.215.716-.2.286-.53.458-.315.172-.702.244-.386.057-.744.057-.43 0-.745-.115-.315-.114-.516-.53-.157-.3-.344-.644-.171-.358-.171-.716 0-.387.128-.716.144-.344.316-.66.171-.329.329-.644.172-.33.243-.702.1-.057.273-.114.186-.058.386-.115.215-.057.401-.1.2-.057.33-.1.344-.1.659-.23.33-.143.658-.257.344-.115.674-.2.343-.087.701-.101l.445-.014q.615 0 1.26.114.644.1 1.26.33.616.229 1.16.572.56.33.989.788.315.344.515.817.215.458.33.974.129.515.172 1.045.057.516.057.96 0 .601-.043 1.189-.029.573-.029 1.174 0 .573.058 1.146.071.559.157 1.131.086.559.143 1.132.072.559.072 1.117.029.344.086.43.071.071.143.071.315 0 .501-.186.2-.2.358-.43.158-.243.344-.443.186-.201.473-.201.129 0 .258.014.143.015.258.072.114.043.186.143.071.086.071.244zm-4.712-3.567q0-.086-.014-.3 0-.215-.029-.43-.028-.23-.1-.401-.057-.172-.186-.172-.029 0-.072.028-.043.015-.071.015-.545.3-.931.501-.387.186-.774.315-.372.115-.802.158-.43.043-1.074.043-.086 0-.473.071-.386.072-.845.172-.458.086-.86.186-.4.086-.5.115-.187.072-.273.143-.071.072-.114.158-.043.086-.086.186-.043.086-.158.186-.143.115-.315.186-.157.072-.3.215-.215.215-.402.573-.186.344-.186.659 0 .387.2.688.201.3.53.515.33.215.745.373.416.157.831.243.43.086.817.129.4.043.687.043.344 0 .817-.043.472-.057.945-.158.472-.114.888-.3.415-.187.659-.473.1-.115.143-.2.043-.1.086-.187l.114-.2q.072-.1.215-.215.33-.272.502-.602.186-.33.272-.687.086-.358.1-.745.014-.387.014-.788z"/></g></svg>