<svg xmlns="http://www.w3.org/2000/svg" viewBox="0 0 348 348" fill="none"><path d="M5.079 5.776h336.913v337.67H5.08z" stroke-width="2" stroke="#000"/><path d="M282.734 40.554c0-8.376 6.966-15.165 15.56-15.165 4.126 0 8.084 1.597 11.001 4.441 2.918 2.844 4.558 6.702 4.558 10.724 0 8.376-6.966 15.165-15.56 15.165-8.593 0-15.559-6.79-15.559-15.165z" stroke-width="2" stroke="#000"/><path d="M75.633 187.607l19.13-38.727 19.597 38.727zM125.633 187.607l19.13-38.727 19.597 38.727zM175.633 187.607l19.13-38.727 19.597 38.727zM225.393 208.633l38.727 19.13-38.727 19.597zM214.367 268.393l-19.13 38.727-19.597-38.727zM164.367 268.393l-19.13 38.727-19.597-38.727zM114.367 268.393l-19.13 38.727-19.597-38.727z" stroke="#000" stroke-width=".787"/></svg>