<svg xmlns="http://www.w3.org/2000/svg" fill="none" viewBox="0 0 348 348"><path stroke="#000" stroke-width="2" d="M5 5.8h337v337.6H5z"/><path stroke="#000" stroke-width="2" d="M282.7 40.6c0-8.4 7-15.2 15.6-15.2 4.1 0 8 1.6 11 4.4a15 15 0 0 1 4.6 10.8c0 8.3-7 15.1-15.6 15.1s-15.6-6.8-15.6-15.1z"/><rect width="313" height="199.6" x="17.5" y="135.6" fill="#fff" fill-rule="evenodd" stroke="#000" stroke-linecap="round" stroke-linejoin="round" stroke-width="5.9" ry="15.4"/><rect width="4" height="199.7" x="225.8" y="135.7" fill="#000004" fill-rule="evenodd" ry="3.8"/><rect width="4" height="199.7" x="121.3" y="136.2" fill="#000004" fill-rule="evenodd" ry="3.8"/><rect width="316.6" height="6" x="15.5" y="233.5" fill="#000" fill-rule="evenodd" ry="2"/><path stroke="#000" stroke-width="1.3" d="M99.1 150.3c0-5.4 4.4-9.7 9.8-9.7 2.7 0 5.2 1 7 2.8a9.6 9.6 0 0 1 2.9 6.9c0 5.3-4.4 9.6-9.9 9.6a9.8 9.8 0 0 1-9.8-9.6zm104.7.4c0-5.3 4.4-9.6 9.8-9.6 2.6 0 5.1 1 7 2.8a9.6 9.6 0 0 1 2.9 6.8c0 5.4-4.4 9.7-9.9 9.7a9.8 9.8 0 0 1-9.8-9.7zm99.3-1.1a10 10 0 1 1 16.8-6.8 9.6 9.6 0 0 1 2.9 6.8c0 5.3-4.4 9.7-9.8 9.7a9.8 9.8 0 0 1-9.9-9.7zm3 101.2A10 10 0 1 1 323 244a9.6 9.6 0 0 1 3 6.8c0 5.4-4.5 9.7-10 9.7a9.8 9.8 0 0 1-9.8-9.7zm-102.3-.4c0-5.4 4.4-9.7 9.9-9.7 2.6 0 5 1 7 2.8a9.6 9.6 0 0 1 2.8 6.9c0 5.3-4.4 9.6-9.8 9.6a9.8 9.8 0 0 1-9.9-9.6zm-103.8.3c0-5.4 4.4-9.7 9.8-9.7 2.6 0 5.1 1 7 2.8a9.6 9.6 0 0 1 2.9 6.9c0 5.3-4.4 9.6-9.9 9.6a9.8 9.8 0 0 1-9.8-9.6z"/><rect width="71.9" height="69.3" x="26.9" y="158.9" stroke="#000" stroke-width="1.4" ry="0"/><path fill="#000" fill-rule="evenodd" d="M26.9 192.4H99v1.5H26.9z"/><path fill="#000" fill-rule="evenodd" d="M62.4 159H64v69.3h-1.6zM39 162.4h11.6v3.6H39zm36.7-.3h11.6v3.6H75.7zm.1 35.1h11.6v3.6H75.8zm-37.1.6h11.6v3.6H38.7z"/><rect width="73.3" height="26.1" x="27.6" y="291.4" stroke="#000" stroke-width="1.1" ry="0"/><path fill="#000" fill-rule="evenodd" d="M27.6 303.5H101v2.3H27.6z"/><path fill="#000" fill-rule="evenodd" d="M42.1 291.8h2v25.5h-2zm15.6-.3h2V317h-2zm14.3-.3h1.9v26.1H72zm14.1.3H88v26.1h-1.9z"/><path stroke="#000" stroke-width="1.4" d="M45.7 319.6h37.6v10.7H45.7z"/><path stroke="#000" stroke-width=".9" d="M29.7 260.4h68.7v26.7H29.7z"/><path stroke="#000" stroke-width=".7" d="M33.9 263.6h60.4v20.2H33.9z"/><path fill="#000" fill-rule="evenodd" d="M38.9 279.3H50v1.7H38.9zm13.3.1h11.1v1.7H52.2zm13.1-.1h11.1v1.7H65.3zm13.1.1h11.1v1.7H78.4z"/><path fill="#000" d="M33.4 295.6c.4.2.8.2 1 0l.2-.1v5.8c0 .3.3.5.6.5h.6c.4 0 .7-.2.7-.5v-7.8c0-.3-.3-.5-.7-.5h-.5l-.6.2-1.8 1.6c-.2.2-.2.5.2.6zM50.2 300.5c0-1 .6-1.5 1.5-2 1.5-1 2.2-2 2.2-3.2 0-1.3-1-2.3-2.9-2.3-2 0-2.9.9-2.9 2.4 0 .3.3.5.7.5h.6c.4 0 .7-.2.7-.5 0-.8.3-1.1 1-1.1.5 0 .9.4.9 1 0 .8-.6 1.5-1.6 2.2a5 5 0 0 0-1.8 1.7c-.3.5-.5 1.2-.5 1.9v.2c0 .2.3.5.7.5h4.4c.4 0 .7-.3.7-.5v-.4c0-.2-.3-.4-.7-.4zM63 299.4c0 1.6 1 2.5 3 2.5 1.7 0 2.9-1 2.9-2.5 0-1-.6-1.5-1.1-1.9.5-.3 1-.9 1-1.9 0-.7-.1-1.2-.6-1.6-.5-.6-1.2-.9-2.2-.9-2 0-3 1-3 2.6 0 .3.4.5.8.5h.6c.3 0 .7-.2.7-.4v-.1c0-.9.3-1.3.9-1.3.2 0 .5.1.6.3.2.2.3.5.3 1 0 .4-.2.7-.5.9l-.9.3h-.2c-.4 0-.7.2-.7.5v.3c0 .3.3.5.7.5h.2c.2 0 .6 0 .9.2.2.2.5.5.5 1v.6c-.2.3-.4.6-.9.6-.6 0-1-.4-1-1.2v-.1c0-.3-.3-.5-.6-.5h-.6c-.4 0-.7.2-.7.5zM81 299.7v1.9c0 .2.4.5.8.5h.6c.3 0 .7-.3.7-.5v-7.8c0-.3-.4-.5-.7-.5h-.6a1 1 0 0 0-.6.2l-4.2 5.2v.5c0 .3.3.5.7.5zm0-1.3h-1.7l1.8-2.1zM91.3 298.2c0 .2.3.4.7.4h.6c.4 0 .7-.2.7-.4 0-.5.4-.7 1-.7s.9.4.9 1.2v.8l-.1.6c-.1.3-.3.7-.9.7-.5 0-.9-.1-.9-1 0-.3-.3-.5-.7-.5H92c-.4 0-.7.2-.7.5 0 1.6 1 2.3 3 2.3 1 0 1.6-.3 2.2-.9.4-.4.6-1 .6-1.7v-.8c0-.7 0-1.3-.5-1.7a3 3 0 0 0-2.3-.8c-.4 0-1 .2-1 .4v-2h3.1c.4 0 .7-.2.7-.5v-.3c0-.3-.3-.5-.7-.5H92c-.4 0-.7.2-.7.5zM32 313.5c0 1.4 1 2.3 2.8 2.3 1 0 1.8-.3 2.3-1 .4-.4.6-1 .6-1.6v-.7c0-1.6-.8-2.5-2.6-2.5-.5 0-1 0-1.2.3 0-.4 0-1.1.2-1.5.1-.3.4-.5.7-.5.6 0 1 .3 1 1 0 .2.3.4.7.4h.5c.4 0 .7-.2.7-.5 0-1.3-1-2.2-2.9-2.2a3 3 0 0 0-2 .6c-.4.4-.9 1.2-.9 2.4zm2-1c0-.8.2-1.3.8-1.3.6 0 1 .4 1 1.3v.7l-.1.6c-.1.3-.3.7-.9.7-.3 0-.6-.1-.7-.3-.2-.2-.2-.5-.2-.7zM54.9 308v-.5c0-.2-.3-.4-.7-.4h-5.9c-.4 0-.7.2-.7.4v.4c0 .3.3.5.7.5h4.2l-4.3 6.8c-.2.3.1.6.6.6h.6l.7-.2zM68.3 311.4c.4-.4.7-1 .7-1.8 0-1.7-1-2.5-3-2.5-2.3 0-3.2.8-3.2 2.5 0 .7.3 1.4.7 1.8h.1v.1c-.5.4-.8 1-.8 1.8 0 1.7 1 2.5 3.1 2.5 2.2 0 3.1-.8 3.1-2.5 0-.8-.3-1.4-.7-1.8zm-3.2-.8c-.2-.2-.3-.5-.3-1 0-.9.3-1.2 1.1-1.2s1.1.3 1.1 1.2c0 .9-.3 1.2-1 1.2-.5 0-.8 0-1-.2zm1.6 3.8l-.8.1c-.8 0-1.1-.3-1.1-1.2 0-.9.3-1.2 1.1-1.2s1.1.3 1.1 1.2c0 .5 0 .9-.3 1zM83 309c0-1.4-1-2.2-2.9-2.2-1 0-1.7.3-2.2.9a2 2 0 0 0-.7 1.6v.8c0 1.5.8 2.5 2.7 2.5.5 0 1-.2 1.1-.4l-.1 1.6c-.1.2-.4.4-.8.4-.6 0-.9-.3-.9-.9 0-.3-.3-.5-.7-.5h-.6c-.4 0-.7.2-.7.5 0 1.4 1 2.2 3 2.2a3 3 0 0 0 1.9-.6 3 3 0 0 0 1-2.4zm-2 1c0 .8-.3 1.3-.9 1.3-.6 0-.9-.4-.9-1.2v-1.4c.2-.2.4-.6 1-.6.3 0 .5 0 .6.2.2.3.2.5.2.8zM91.3 313c0 1.7 1 2.6 3 2.6 1.9 0 2.8-1 2.8-2.6v-3.6c0-1.6-1-2.6-2.9-2.6-2 0-2.9 1-2.9 2.6zm2-3.7c0-.9.3-1.1 1-1.1.5 0 .9.2.9 1v4c0 .8-.4 1-1 1s-1-.2-1-1z"/><path fill="#000" stroke-width=".3" d="M54.5 326c0 1.1.8 1.7 2.3 1.7 1.4 0 2.2-.5 2.2-1.5 0-.9-1-1.4-1.8-1.8-.7-.4-1.3-.7-1.3-1.2 0-.4.3-.6.9-.6.5 0 .8.2.8.8v.2c0 .1.2.3.5.3h.4c.2 0 .5-.2.5-.3v-.2c0-1.1-.8-1.7-2.2-1.7-1.5 0-2.3.6-2.3 1.6 0 .9 1 1.3 1.9 1.8.6.3 1.2.7 1.2 1 0 .6-.3.7-.8.7a1 1 0 0 1-.6-.1c-.2-.1-.3-.3-.3-.7v-.2c0-.1-.2-.3-.5-.3H55c-.2 0-.5.2-.5.3zm5.8-4.3c-.2 0-.4.1-.4.3v5.4c0 .2.2.3.4.3h3c.2 0 .4-.1.4-.3v-.2c0-.2-.2-.4-.5-.4h-2v-1.7h1.7c.2 0 .5-.1.5-.3v-.2c0-.2-.3-.3-.5-.3h-1.7v-1.7h2c.3 0 .5-.2.5-.3v-.3c0-.2-.2-.3-.5-.3zm8.3 6c.2 0 .4-.1.4-.3V322c0-.2-.2-.3-.4-.3h-.4c-.3 0-.5.1-.5.3v3l-1.9-3.1-.4-.2h-.3c-.3 0-.5.1-.5.3v5.4c0 .2.2.3.5.3h.4c.2 0 .4-.1.4-.3v-3l2 3.1.3.2zm3.4 0c1.6 0 2.3-.6 2.3-1.8v-2.4c0-1.2-.7-1.8-2.3-1.8h-1.4c-.3 0-.5.1-.5.3v5.4c0 .2.2.3.5.3zm0-5.1c.7 0 1 .3 1 .9v2.4c0 .6-.3 1-1 1h-.5v-4.3z"/><path fill="#000" fill-rule="evenodd" d="M49.7 242.9h17.9v11.8H49.7z"/><path stroke="#000" stroke-width=".6" d="M52.9 254.4h1.7v6.1h-1.7zm3.5-.3h1.7v6.1h-1.7zm3.2 0h1.7v6.1h-1.7zm3.2 0h1.7v6.1h-1.7z"/><path stroke="#000" stroke-width=".5" d="M35.8 246.2h43.7v2.3H35.8z"/><path stroke="#000" d="M79.4 243.3h16.8v13.3H79.4z"/><path fill="#000" stroke-width=".1" d="M82.6 247.3c0-.3 0-.5-.2-.7.2-.2.3-.4.3-.7 0-.7-.3-1-1-1H81l-.2.1v3.1l.2.2h.2s.2 0 .2-.2V247h.2c.3 0 .5.1.5.4v.8c0 .1 0 .2.2.2h.1c.1 0 .2 0 .2-.2zm-1.2-2h.3c.3 0 .4.2.4.6 0 .3-.2.5-.5.5h-.2zm1.8-.5l-.2.2v3.1l.2.2h1.3s.2 0 .2-.2v-.1l-.2-.2h-.9v-1h.7l.2-.1v-.2s0-.2-.2-.2h-.7v-1h.9l.2-.1v-.2l-.2-.2zm1.8 2.5c0 .4.2.7.3.8.2.2.4.2.7.2.2 0 .4 0 .6-.2.2-.1.3-.4.3-.8 0-.2-.1-.2-.2-.2h-.2l-.2.1v.5l-.3.1c-.3 0-.4-.1-.4-.5V246c0-.4.1-.5.4-.5.2 0 .3.1.3.5l.2.2h.2s.2 0 .2-.2c0-.4-.1-.7-.3-.9a1 1 0 0 0-.6-.2 1 1 0 0 0-.7.2c-.1.2-.3.5-.3.9zm2.5-2.5c-.2 0-.2.1-.2.2v3.1c0 .1 0 .2.2.2h1.2s.2 0 .2-.2v-.1l-.2-.2h-.9v-1h.7l.2-.1v-.2s0-.2-.2-.2h-.7v-1h.9l.2-.1v-.2l-.2-.2zm2.3.2l-.2-.2h-.2l-.2.2v3.1l.2.2h.2c.1 0 .2 0 .2-.2zm.9 0l-.2-.2h-.2l-.2.3.8 3c0 .2.1.2.2.2h.1l.2-.1.8-3.1c0-.1 0-.3-.2-.3l-.2.2-.5 2zm2-.2l-.2.2v3.1l.2.2H94s.2 0 .2-.2v-.1l-.2-.2h-1v-1h.8l.2-.1v-.2s0-.2-.2-.2h-.7v-1h.9l.2-.1v-.2l-.2-.2zm-9.4 9c0 .4.1.6.3.8l.6.2c.2 0 .5 0 .6-.2.2-.2.3-.4.3-.8v-.1c0-.1 0-.2-.2-.2h-.1c-.1 0-.2 0-.2.2l-.1.5h-.3c-.2 0-.3 0-.3-.4v-1.5c0-.3 0-.5.3-.5.2 0 .4.2.4.5 0 .2 0 .3.2.3h.1l.2-.2c0-.5 0-.7-.3-.9a1 1 0 0 0-.6-.2 1 1 0 0 0-.6.2c-.2.2-.3.4-.3.8zm2.2 0c0 .4.1.6.3.8l.6.2c.3 0 .5 0 .7-.2.1-.2.3-.4.3-.8v-1.5c0-.6-.3-1-1-1-.6 0-.9.4-.9 1zm.6-1.5c0-.3.1-.5.3-.5.3 0 .4.2.4.5v1.5c0 .3-.1.5-.4.5-.2 0-.3-.2-.3-.5zm2.5 2.5c.7 0 1-.4 1-1v-1.5c0-.6-.3-1-1-1H88s-.2 0-.2.2v3c0 .2.1.3.2.3zm0-3c.3 0 .4.2.4.5v1.5c0 .3-.1.5-.4.5h-.2v-2.5zm1.6-.5s-.2 0-.2.2v3c0 .2.1.3.2.3h1.3l.2-.2v-.1c0-.2-.1-.2-.2-.2h-.9v-1h.7c.1 0 .2 0 .2-.2v-.1c0-.1 0-.2-.2-.2h-.7v-1h.9s.2 0 .2-.2v-.1l-.2-.2z"/><path fill="#000" d="M23.1 247.9l3.7-6 7.2-1 5.2 4.9-.6 6.8-6 3.8-6.9-2z"/><path stroke="#4b4b4b" stroke-dashoffset="1" stroke-linecap="round" stroke-linejoin="round" stroke-width="1.8" d="M6.5 244.3l11-18.5 21.2-2.9 15.6 14.8-1.9 21.4L34.5 271l-20.4-6.6z" transform="matrix(.28843 0 0 .27571 22.4 180.6)"/><path stroke="#000" d="M127.3 244.5h75.1v43.7h-75.1z"/><path stroke="#000" stroke-width=".5" d="M136.4 288h1.2v5.9h-1.2zm2.7 0h1.2v5.9h-1.2zm52.4 0h1.2v5.9h-1.2zm-2.7.2h1.2v5.9h-1.2zm-26.2-.2h1.2v5.9h-1.2zm2.5.1h1.2v5.9h-1.2z"/><path stroke="#000" stroke-width="1.5" d="M129.8 293.5h70v9.7h-70zm.2 24.7h70v9.7h-70z"/><path fill="#000" fill-rule="evenodd" d="M143.7 303.3h3.2v2.1h-3.2zm0 13h3.2v2.2h-3.2zm7.6-12.9h3.2v2.1h-3.2zm-.1 13h3.2v2.2h-3.2zm7.8-13.1h3.2v2.1H159zm-.1 12.9h3.2v2.2h-3.2zm7.4-12.9h3.2v2.1h-3.2zm0 12.9h3.2v2.2h-3.2zm7.6-12.9h3.2v2.1h-3.2zm-.1 13h3.2v2.2h-3.2zm7.8-13.1h3.2v2.1h-3.2zm-.1 12.9h3.2v2.2h-3.2z"/><path stroke="#000" stroke-width=".3" d="M144.5 304.9h1.4v11.4h-1.4zm7.7.3h1.4v11.4h-1.4zm7.6-.6h1.4v12.1h-1.4zm7.4-.1h1.4v12.1h-1.4zm7.5.1h1.4v12.1h-1.4zm7.7-.2h1.4v12.1h-1.4z"/><path fill="#000" stroke-width=".4" d="M146.3 265l-5.6-6.6.3-1 8.6-1.2-.5 1.4-6.7.9 4.4 5zm10.5 1q-.2.6-.7 1.1-.5.6-1.2.9-.6.3-1.4.3-.7 0-1.7-.3-1-.4-1.7-1-.7-.5-1.3-1.2l.7-2v.1q.5 1 1.3 1.7.7.8 1.5 1 1.2.5 2 .2t1.2-1.1q.2-.8 0-1.3 0-.4-.6-.9l-1-.6-1-.7q-1-.8-1.3-1.8-.3-1 .1-2.2.6-1.4 1.9-2 1.3-.5 2.8 0 1 .4 1.7 1l1.2 1-.7 1.8q-.4-.7-1.1-1.4-.7-.7-1.6-1-1-.4-1.8-.1-.7.2-1 1-.3.7-.2 1.3.2.5.8 1l1 .7 1.2.7q.9.8 1.1 1.6.3.9-.2 2.1zm5.9 5.3h-1.3l-1.2-.1q-.7-.3-1.2-.8t-.8-1.3q-.2-.7-.1-1.6 0-1 .5-2 .8-2.2 2.1-3 1.4-.8 3-.3l1 .7.9.9-.7 1.6q-.3-.7-.8-1.2t-1-.7q-1-.4-1.9.2-.8.6-1.4 2.2-.6 1.5-.4 2.6.3 1 1.3 1.4l.7.2.8-.1.6-.2.5-.1zm8.3-4.3h-.1l-.5-.3-.6-.2q-.5-.2-1.1-.1-.6 0-1.2.4l-2.3 6-1.2-.4 3.2-8.6 1.2.5-.5 1.2 1.6-.5 1.2.2.4.1.4.3zm3.4-2l-1.3-.6.6-1.4 1.3.4zm-3.9 9.9l-1.1-.5 3.2-8.5 1.2.4zm10-1.2q-.4 1-1 1.8-.5.7-1.1 1.2-.7.4-1.3.5-.7 0-1.3-.2l-1-.5-.6-.8-1.4 3.6-1.1-.4 4.4-11.7 1.1.4-.3 1q.6-.4 1.3-.5l1.4.2q1.2.4 1.5 1.9.2 1.4-.6 3.5zm-1.2-.5q.6-1.5.5-2.4-.1-1-1-1.3-.5-.2-1.1 0l-1.3.2-1.8 4.9.7.7.8.4q1 .3 1.8-.3t1.4-2.2zm5 6.8l-.8-.1q-.4 0-.7-.2-1-.4-1.3-1.3-.3-1 .3-2.5l1.7-4.5-.8-.3.5-1.2.7.3 1-2.5 1.1.5-.9 2.4 2.4 1-.5 1.1-2.4-.9-1.4 4-.4 1-.1.7q0 .4.2.6.2.3.7.5h1.1zm10.7-1l-8.6 1.2.5-1.4 6.7-.9-4.4-5.1.5-1.4 5.6 6.6z"/><path stroke="#000" stroke-width="1.2" d="M235.4 267h86.5v37.2h-86.5z"/><path stroke="#000" stroke-width=".9" d="M243 271.5h71.3v28.1H243z"/><path stroke="#000" stroke-width=".4" d="M249.9 273.6h15.8v23.7h-15.8zm21.3 0H287v23.7h-15.8zm20.8 0h15.8v23.7H292z"/><path fill="#000" d="M262.3 293l.2.7v.5l-.4.2h-1.9l-.2-.3-.1-.2-2.2-6.7-2.2 6.7-.1.2q-.1.2-.3.2l-.3.1h-1.4q-.3 0-.4-.2v-.5l.2-.8 2.8-8-2.6-7.6-.2-.8v-.4q.1-.2.4-.2h1.9l.2.2.1.3 2 6.1 2-6 .2-.4.2-.1.4-.1h1.3q.3 0 .4.2v.4l-.2.8-2.6 7.6zm21.5-.1l.2.8v.4q-.2.2-.5.2h-1.8l-.2-.2-.1-.3-2.2-6.7-2.3 6.7v.3l-.3.2h-1.8q-.2 0-.3-.2-.1-.1 0-.4l.2-.8 2.8-8-2.6-7.6-.2-.9q-.1-.3 0-.4.1-.2.4-.2h1.9l.2.3v.2l2.2 6.1 2-6v-.3q.1-.2.3-.2l.3-.1h1.4q.3 0 .4.2v.4l-.2.9-2.6 7.5zm20.8-.3l.2.8v.5l-.4.2h-1.5l-.4-.1-.2-.2v-.3L300 287l-2.2 6.6-.1.3-.2.2h-.4l-.7.1h-.7q-.3 0-.4-.2v-.5l.2-.8 2.9-8-2.7-7.6-.2-.8v-.5l.5-.2h1.4l.4.1q.2 0 .2.2l.1.3 2.1 6 2-6 .1-.3.2-.2h.4l.6-.1h.8q.2 0 .3.2v.5l-.1.8-2.7 7.5z"/><path stroke="#000" d="M249.6 308.9h16.9v10h-16.9zm21.2 0h16.9v10h-16.9zm21.1 0h16.9v10h-16.9zM264.7 322h27.8v8.5h-27.8zm-24-78.8H300v18.2h-59.3z"/><path fill="#000" stroke-width=".5" d="M252.3 257.4c.1.3.5.5.9.5h.7c.6 0 1-.4.9-.8l-3.5-10.7c0-.2-.5-.5-.9-.5h-.5c-.4 0-.8.3-1 .5l-2.2 7-1.2 3.7c-.2.4.3.8.9.8h.7c.4 0 .8-.2.9-.5l.9-2.8h2.5zm-2.2-7.4l.8 2.9h-1.5zm12.4-.6c0-.4-.4-.6-1-.6h-.6c-.5 0-1 .2-1 .6v1.7h-2.3c-.5 0-1 .3-1 .6v.5c0 .4.5.7 1 .7h2.4v1.6c0 .4.4.7.9.7h.7c.5 0 .9-.3.9-.7V253h2.4c.5 0 .9-.3.9-.7v-.5c0-.3-.4-.6-1-.6h-2.3zm8.6 8.5c3 0 4.3-1.1 4.3-3.4 0-1.1-.5-2-1.1-2.6 0 0 1-.9 1-2.5 0-2.3-1.2-3.5-4.2-3.5h-2.5c-.5 0-1 .3-1 .7v10.7c0 .3.5.6 1 .6zm0-10.2c1.2 0 1.7.5 1.7 1.7 0 1.1-.5 1.6-1.7 1.6h-.9v-3.3zm0 5c1.2 0 1.7.6 1.7 1.8 0 1.2-.5 1.6-1.7 1.6h-.9v-3.3zm12.1-3.3c0-.4-.4-.6-.9-.6h-.7c-.5 0-.9.2-.9.6v1.7h-2.4c-.5 0-1 .3-1 .6v.5c0 .4.5.7 1 .7h2.4v1.6c0 .4.4.7.9.7h.7c.5 0 1-.3 1-.7V253h2.3c.5 0 1-.3 1-.7v-.5c0-.3-.5-.6-1-.6h-2.4zm5 5c0 1.4.6 2.2 1.4 2.8a5 5 0 0 0 2.8.7c.9 0 2-.1 2.8-.7.8-.6 1.3-1.4 1.3-2.8v-.2c0-.4-.4-.7-.9-.7h-.7c-.5 0-1 .3-1 .7v.2c0 .7 0 1.1-.3 1.4a2 2 0 0 1-1.2.3c-1.1 0-1.6-.5-1.6-1.7v-5c0-1.2.5-1.7 1.6-1.7 1 0 1.6.5 1.6 1.7v.2c0 .4.4.7.9.7h.7c.5 0 1-.3 1-.7v-.2c0-1.4-.6-2.2-1.4-2.8-.9-.5-1.9-.7-2.8-.7-1 0-2 .2-2.8.7-.8.6-1.4 1.4-1.4 2.8z"/><path fill="#000" d="M256.6 311.6l-.5-.2h-.5c-.3 0-.6.1-.5.3l2.1 4.5.5.2h.3c.3 0 .5 0 .6-.2l2-4.5c.1-.2-.1-.3-.5-.3h-.4c-.2 0-.5 0-.5.2l-1.3 2.8zm21.4-.3l-.5-.2h-.4c-.4 0-.6.2-.5.3l2 4.5.6.2h.3c.2 0 .4 0 .5-.2l2-4.5c.1-.1-.1-.3-.4-.3h-.5c-.2 0-.4 0-.5.2l-1.3 2.9zm20.9.2l-.6-.2h-.4c-.3 0-.6.1-.5.3l2.1 4.5.5.2h.3c.2 0 .5 0 .5-.2l2.1-4.5c.1-.2-.1-.3-.5-.3h-.4c-.2 0-.5 0-.5.2l-1.3 2.8z"/><path fill="#000" stroke-width=".2" d="M267.1 327.1c0 1 .6 1.4 1.8 1.4 1.2 0 1.9-.4 1.9-1.2 0-.7-.8-1.1-1.5-1.5-.5-.2-1-.5-1-.9s.2-.5.7-.5c.4 0 .7.2.7.7 0 .2.1.3.4.3h.3c.2 0 .4 0 .4-.2v-.1c0-1-.7-1.5-1.8-1.5-1.2 0-1.9.5-1.9 1.3 0 .7.8 1.1 1.5 1.5.6.3 1 .5 1 .9s-.2.5-.6.5l-.5-.1c-.2 0-.3-.2-.3-.6 0-.2-.1-.3-.4-.3h-.3c-.2 0-.4 0-.4.2zm4.3.1c0 .8.5 1.3 1.8 1.3s1.8-.5 1.8-1.3v-3.3c0-.1-.1-.3-.4-.3h-.3c-.2 0-.4.2-.4.3v3.3c0 .3-.1.6-.7.6-.5 0-.7-.2-.7-.6v-3.3c0-.1-.2-.3-.4-.3h-.3c-.2 0-.4.2-.4.3zm6.1 1.3c1.3 0 1.9-.4 1.9-1.4 0-.4-.2-.8-.5-1 0 0 .5-.4.5-1 0-1-.6-1.4-1.9-1.4h-1c-.3 0-.5 0-.5.2v4.4l.4.2zm0-4.1c.6 0 .8.2.8.6 0 .5-.2.7-.8.7h-.4v-1.3zm0 2c.6 0 .8.2.8.7 0 .5-.2.7-.8.7h-.4v-1.4zm4.8 2.1c.1 0 .3 0 .4-.2l.3-1.6v1.6l.4.2h.3l.4-.2v-4.4l-.4-.2h-.3c-.2 0-.4 0-.4.2l-.8 2.9-1-3-.3-.1h-.3c-.2 0-.4 0-.4.2v4.4l.4.2h.3l.4-.2v-1.6l.4 1.6.3.2zm3.8-4.5c0-.2-.2-.3-.4-.3h-.3c-.2 0-.4 0-.4.2v4.4l.4.2h.3l.4-.2zm.7.1c0 .2.2.3.4.3h1v3.9c0 .1 0 .2.3.2h.3l.4-.2v-4h.9c.2 0 .4 0 .4-.2v-.2c0-.1-.2-.3-.4-.3h-2.9c-.2 0-.4.2-.4.3z"/><path stroke="#000" d="M235.7 157.3h56.9v70h-56.9z"/><path fill="#000" stroke-width=".4" d="M245.8 182.4c0-1-.2-1.8-.6-2.3v-.2c.6-.6.7-1.5.7-2.7 0-2.5-.6-3.6-2.5-3.6h-2c-.3 0-.5.3-.5.6v11.3c0 .4.2.7.5.7h.5c.3 0 .5-.3.5-.7v-4.6h.7c.8 0 1.2.5 1.2 1.5v3.1c0 .4.2.7.5.7h.5c.3 0 .5-.3.5-.7zm-3.4-7h1c.8 0 1 .6 1 1.8 0 1.3-.4 1.8-1.3 1.8h-.7zm5.1-1.8c-.3 0-.5.3-.5.7v11.2c0 .4.2.7.5.7h3.3c.3 0 .6-.3.6-.7v-.5c0-.4-.3-.7-.6-.7h-2.3v-3.5h2c.2 0 .5-.3.5-.7v-.5c0-.3-.3-.6-.6-.6h-2v-3.6h2.4c.3 0 .6-.3.6-.6v-.5c0-.4-.3-.7-.6-.7zm4.5 8.9c0 2.5.8 3.7 2.5 3.7 1.6 0 2.5-1.2 2.5-3.2 0-1.9-1-2.8-2-3.8-.8-.7-1.5-1.4-1.5-2.4s.3-1.4 1-1.4c.6 0 1 .6 1 1.8v.3c0 .4.2.7.5.7h.4c.3 0 .6-.3.6-.7v-.3c0-2.3-.9-3.6-2.5-3.6-1.7 0-2.6 1.2-2.6 3.3 0 1.8 1 2.9 2.1 3.8.7.7 1.5 1.4 1.5 2.3 0 1-.4 1.3-1 1.3-.3 0-.5 0-.7-.2-.2-.2-.3-.7-.3-1.6v-.2c0-.4-.3-.7-.6-.7h-.4c-.3 0-.6.3-.6.7zm6.6-8.9c-.3 0-.6.3-.6.7v11.2c0 .4.3.7.6.7h3.3c.3 0 .5-.3.5-.7v-.5c0-.4-.2-.7-.5-.7h-2.4v-3.5h2c.3 0 .5-.3.5-.7v-.5c0-.3-.2-.6-.5-.6h-2v-3.6h2.4c.3 0 .5-.3.5-.6v-.5c0-.4-.2-.7-.5-.7zm4.8 1.2c0 .3.2.6.5.6h1.3v10.1c0 .4.2.7.5.7h.5c.3 0 .5-.3.5-.7v-10h1.3c.3 0 .5-.4.5-.7v-.6c0-.3-.2-.6-.5-.6h-4c-.4 0-.6.3-.6.6zm13.6 10.9c0 .2.3.5.5.5h.5c.3 0 .6-.4.5-.8l-2.1-11.3c0-.3-.3-.5-.5-.5h-.4c-.2 0-.5.2-.5.5l-1.4 7.3-.7 4c-.1.4.1.8.5.8h.4c.3 0 .5-.3.6-.5l.5-3h1.6zm-1.3-7.8l.4 3h-.8zm8.2 7.1c0-.4-.3-.7-.6-.7H281v-10c0-.4-.2-.7-.5-.7h-.5c-.3 0-.5.3-.5.7v11.2c0 .4.2.7.5.7h3.3c.3 0 .6-.3.6-.7zm5.1 0c0-.4-.2-.7-.5-.7h-2.3v-10c0-.4-.3-.7-.6-.7h-.4c-.3 0-.6.3-.6.7v11.2c0 .4.3.7.6.7h3.3c.3 0 .5-.3.5-.7zm-41.5 24.6c.2 0 .5-.3.5-.6l.5-4.1v4c0 .4.3.7.6.7h.4c.3 0 .6-.3.6-.7v-11.3c0-.3-.3-.6-.6-.6h-.5c-.2 0-.5.2-.5.5l-1.2 7.5-1.2-7.5c0-.3-.3-.5-.5-.5h-.5c-.3 0-.5.3-.5.6V209c0 .4.2.7.5.7h.4c.3 0 .6-.3.6-.7v-4l.5 4.1c0 .3.3.6.5.6zm3.9-3.7c0 1.5.3 2.3.8 3 .5.5 1.2.7 1.7.7.6 0 1.2-.2 1.7-.8.5-.6.8-1.4.8-3v-5.2c0-2.4-.8-3.6-2.5-3.6s-2.5 1.2-2.5 3.6zm1.5-5.3c0-1.2.3-1.8 1-1.8s1 .5 1 1.8v5.3c0 1.3-.4 1.8-1 1.8-.7 0-1-.6-1-1.8zm6.9 9c1.8 0 2.7-1.3 2.7-3.7v-5.2c0-2.5-.9-3.7-2.7-3.7h-1.6c-.3 0-.6.3-.6.6V209c0 .4.3.7.6.7zm0-10.8c.8 0 1.1.6 1.1 1.9v5.2c0 1.2-.3 1.8-1.1 1.8h-.6v-8.9zm3.8 7.3c0 2 .7 3.4 2.5 3.4s2.5-1.3 2.5-3.4v-8.5c0-.4-.2-.7-.5-.7h-.4c-.3 0-.6.3-.6.7v8.5c0 1-.2 1.6-1 1.6-.7 0-1-.6-1-1.6v-8.5c0-.4-.2-.7-.5-.7h-.4c-.3 0-.6.3-.6.7zm10.6 2.3c0-.4-.2-.7-.5-.7h-2.3v-10c0-.4-.2-.7-.5-.7h-.5c-.3 0-.5.3-.5.6V209c0 .4.2.7.5.7h3.3c.3 0 .5-.3.5-.7zm1.5-11.4c-.3 0-.6.3-.6.6V209c0 .4.3.7.6.7h3.3c.3 0 .5-.3.5-.7v-.5c0-.4-.2-.7-.5-.7h-2.4v-3.5h2c.3 0 .5-.3.5-.7v-.5c0-.4-.2-.7-.5-.7h-2v-3.5h2.4c.3 0 .5-.3.5-.7v-.5c0-.3-.2-.6-.5-.6zm4.3 8.9c0 2.4 1 3.6 2.6 3.6s2.5-1 2.5-3.2c0-1.8-1-2.7-2-3.7-.7-.7-1.5-1.4-1.5-2.4s.4-1.4 1-1.4c.7 0 1 .6 1 1.8v.3c0 .3.2.6.5.6h.5c.3 0 .5-.3.5-.6v-.3c0-2.4-.8-3.7-2.5-3.7-1.6 0-2.5 1.3-2.5 3.4 0 1.8 1 2.8 2 3.8.8.7 1.5 1.4 1.5 2.3 0 1-.4 1.3-1 1.3-.2 0-.5 0-.6-.3-.3-.2-.4-.6-.4-1.5v-.3c0-.3-.3-.6-.5-.6h-.5c-.3 0-.5.3-.5.6z"/><path fill="#000" fill-rule="evenodd" d="M295.5 189.8h30.3v19.5h-30.3z"/><path stroke="#000" stroke-width=".5" d="M298.8 173.4h23.3v12.3h-23.3z"/><path fill="#000" stroke-width=".1" d="M307.4 177.2c0-.3 0-.5-.2-.6.2-.2.2-.5.2-.8 0-.7-.2-1-.9-1h-.6c-.1 0-.2 0-.2.2v3c0 .1 0 .2.2.2h.1c.1 0 .2 0 .2-.2v-1.2h.2c.3 0 .5.1.5.4v.8c0 .1 0 .2.2.2h.1c.1 0 .2 0 .2-.2zm-1.2-1.9h.3c.3 0 .4.2.4.5s-.2.5-.5.5h-.2zm1.8-.5c-.1 0-.2 0-.2.2v3c0 .1 0 .2.2.2h1.1c.1 0 .2 0 .2-.2s0-.3-.2-.3h-.8v-1h.7l.2-.1v-.2l-.2-.1h-.7v-1h.8c.1 0 .2 0 .2-.2v-.1c0-.1 0-.2-.2-.2zm1.5 2.4c0 .7.3 1 .9 1 .6 0 .9-.3.9-.9 0-.4-.4-.7-.7-1-.3-.2-.5-.3-.5-.6s0-.4.3-.4c.2 0 .3.2.3.5 0 .2.1.3.2.3h.2l.2-.2v-.1c0-.6-.3-1-.9-1-.6 0-.9.3-.9 1 0 .4.4.7.7 1 .3.1.5.3.5.6 0 .2 0 .3-.3.3h-.2l-.1-.5-.2-.2h-.2c-.1 0-.2 0-.2.2zm2.3-2.4s-.2 0-.2.2v3l.2.2h1.2s.2 0 .2-.2-.1-.3-.2-.3h-.8v-1h.6l.2-.1v-.2l-.2-.1h-.6v-1h.8s.2 0 .2-.2v-.1l-.2-.2zm1.7.3c0 .1 0 .2.2.2h.4v2.7l.2.2h.2s.2 0 .2-.2v-2.7h.4c.1 0 .2 0 .2-.2v-.1l-.2-.2h-1.4c-.1 0-.2 0-.2.2zm-11.5 8.5c0 .4 0 .6.2.8l.6.2c.2 0 .4 0 .6-.2.2-.2.3-.4.3-.8v-.1l-.2-.2h-.2s-.2 0-.2.2v.5h-.3c-.2 0-.3-.1-.3-.4V182c0-.3 0-.5.3-.5.2 0 .3.2.3.5v.1l.2.2h.2l.2-.2c0-.5-.1-.7-.3-.9a.9.9 0 0 0-.6-.2c-.2 0-.4 0-.6.2-.2.2-.3.4-.3.8zm2 0c0 .4.2.6.3.8l.6.2c.2 0 .4 0 .6-.2.2-.2.3-.4.3-.8V182c0-.6-.3-1-.9-1-.6 0-.9.4-.9 1zm.6-1.5c0-.3 0-.5.3-.5.2 0 .4.2.4.5v1.5c0 .3-.2.5-.4.5s-.3-.2-.3-.5zm1.6 1.5c0 .4.1.6.3.8l.6.2c.2 0 .4 0 .6-.2.1-.2.3-.4.3-.8V182c0-.6-.3-1-1-1-.5 0-.8.4-.8 1zm.5-1.5c0-.3.1-.5.4-.5.2 0 .3.2.3.5v1.5c0 .3 0 .5-.3.5-.2 0-.4-.2-.4-.5zm3.2 2.1l-.2-.1h-.8v-2.8l-.2-.2h-.2l-.2.2v3c0 .2.1.3.2.3h1.2l.2-.2zm1.1.4c.6 0 .8-.4.8-1V182c0-.6-.2-1-.9-1h-.5l-.2.2v3c0 .2 0 .3.2.3zm0-3c.2 0 .3.2.3.5v1.5c0 .3-.1.5-.4.5h-.2v-2.5zm1.3 2c0 .4.1.6.3.8l.6.2c.2 0 .4 0 .6-.2l.2-.8V182c0-.6-.2-1-.8-1-.6 0-1 .4-1 1zm.5-1.5c0-.3.1-.5.4-.5.2 0 .3.2.3.5v1.5c0 .3-.1.5-.3.5-.3 0-.4-.2-.4-.5zm3-.8l-.2-.2h-.1l-.2.2-.3 1.5-.2-1.5-.2-.2h-.2c-.1 0-.2.1-.2.3l.6 3 .1.2h.2l.1-.2.3-1.6.3 1.6.2.2h.1l.2-.2.5-3c0-.2 0-.3-.2-.3h-.1l-.2.2-.2 1.5zm3 3.3l.2-.2v-3c0-.2-.1-.3-.2-.3h-.2l-.2.2v1.7l-.7-1.7-.2-.2h-.1l-.2.2v3c0 .2.1.3.2.3h.2l.1-.2v-1.7l.8 1.7.2.2z"/><path fill="#fff" d="M308.8 204.2h3.7l1 1-1 1h-3.7l-1-1zm-.2-4.2v4l-.9 1-1-1v-4l1-1zm6-6.4v4l-1 1-1-1v-4l1-1zm-6 0v4l-1 1-.9-1v-4l1-1zm.2-2.2h3.7l1 1-1 1h-3.7l-1-1zm5.7 8.6v4l-1 1-.8-1v-4l.9-1z"/><path fill="#000" fill-rule="evenodd" d="M130.3 191.2h59.6v39.6h-59.6z"/><path fill="#000" stroke-width=".3" d="M136.6 186.4c0 1.6.6 2.4 1.7 2.4 1 0 1.6-.7 1.6-2.1 0-1.2-.6-1.9-1.3-2.5-.5-.5-1-1-1-1.6 0-.7.3-1 .7-1 .4 0 .6.4.6 1.2v.2c0 .3.2.5.4.5h.3c.2 0 .3-.2.3-.5v-.2c0-1.5-.5-2.4-1.6-2.4-1 0-1.7.8-1.7 2.2 0 1.3.7 2 1.4 2.6.5.4 1 1 1 1.5 0 .7-.3.9-.7.9-.1 0-.3 0-.4-.2-.2-.1-.3-.4-.3-1v-.2c0-.2-.1-.4-.3-.4h-.3c-.2 0-.4.2-.4.4zm4 0c0 1 .2 1.5.5 2 .4.3.8.4 1.2.4.3 0 .7 0 1-.5.4-.4.6-1 .6-2v-3.5c0-1.5-.5-2.4-1.6-2.4s-1.7.9-1.7 2.4zm1-3.6c0-.8.2-1.2.7-1.2.4 0 .6.4.6 1.2v3.6c0 .8-.2 1.2-.6 1.2-.5 0-.7-.4-.7-1.2zm5.8 5.2c0-.2-.1-.4-.3-.4h-1.5v-6.7c0-.3-.2-.5-.3-.5h-.3c-.2 0-.4.2-.4.5v7.5c0 .2.2.4.4.4h2c.3 0 .4-.2.4-.4zm1.6-7.3l-.3-.3h-.3c-.2 0-.4.3-.3.5l1.4 7.6c0 .2.2.3.3.3h.2c.2 0 .3-.1.4-.3l1.4-7.6c0-.2-.1-.5-.4-.5h-.2c-.2 0-.4.2-.4.3l-.9 4.8zm3.7-.3c-.2 0-.3.2-.3.5v7.5c0 .2.1.4.3.4h2.2c.2 0 .3-.2.3-.4v-.4c0-.2-.1-.4-.3-.4h-1.6v-2.4h1.3c.2 0 .4-.2.4-.4v-.4c0-.2-.2-.4-.4-.4h-1.3v-2.4h1.6c.2 0 .3-.2.3-.4v-.3c0-.3-.1-.5-.3-.5zm2.9 6c0 1.6.5 2.4 1.6 2.4 1 0 1.7-.7 1.7-2.1 0-1.2-.7-1.9-1.4-2.5-.4-.5-1-1-1-1.6 0-.7.3-1 .7-1 .5 0 .7.4.7 1.2v.2c0 .3.1.5.3.5h.3c.2 0 .4-.2.4-.5v-.2c0-1.5-.6-2.4-1.7-2.4-1 0-1.6.8-1.6 2.2 0 1.3.7 2 1.3 2.6.5.4 1 1 1 1.5 0 .7-.3.9-.7.9-.1 0-.3 0-.4-.2-.1-.1-.2-.4-.2-1v-.2c0-.2-.2-.4-.4-.4h-.3c-.2 0-.3.2-.3.4zm6.1 0c0 1 .2 1.5.5 2 .3.3.7.4 1.1.4.4 0 .8 0 1.1-.5.3-.4.5-1 .5-2v-3.5c0-1.5-.5-2.4-1.6-2.4-1 0-1.6.9-1.6 2.4zm1-3.6c0-.8.2-1.2.6-1.2.4 0 .6.4.6 1.2v3.6c0 .8-.2 1.2-.6 1.2-.4 0-.6-.4-.6-1.2zm6.3 3.5c0-.7-.2-1.2-.5-1.6.4-.5.5-1 .5-1.9 0-1.6-.4-2.4-1.7-2.4h-1.2c-.2 0-.4.2-.4.4v7.6c0 .2.2.4.4.4h.3c.2 0 .3-.2.3-.4v-3h.5c.4 0 .7.3.7.9v2c0 .3.2.5.4.5h.3c.2 0 .3-.2.3-.4zm-2.3-4.7h.6c.6 0 .7.4.7 1.2 0 .9-.3 1.2-.8 1.2h-.5zm4.3 7.2c1.3 0 1.8-.8 1.8-2.4v-3.5c0-1.6-.5-2.5-1.7-2.5h-1c-.2 0-.4.2-.4.5v7.5c0 .2.2.4.4.4zm0-7.2c.6 0 .8.4.8 1.3v3.5c0 .8-.2 1.2-.7 1.2h-.4v-6zm3-1.2c-.2 0-.3.2-.3.5v7.5c0 .2.1.4.3.4h2.2c.2 0 .3-.2.3-.4v-.4c0-.2-.1-.4-.3-.4h-1.6v-2.4h1.3c.2 0 .4-.2.4-.4v-.4c0-.2-.2-.4-.4-.4h-1.3v-2.4h1.6c.2 0 .3-.2.3-.4v-.3c0-.3-.1-.5-.3-.5zm6.4 5.9c0-.7-.1-1.2-.4-1.6.4-.5.5-1 .5-1.9 0-1.6-.5-2.4-1.7-2.4h-1.2c-.2 0-.4.2-.4.4v7.6c0 .2.2.4.4.4h.2c.2 0 .4-.2.4-.4v-3h.4c.5 0 .8.3.8.9v2c0 .3.2.5.4.5h.2c.2 0 .4-.2.4-.4zm-2.2-4.7h.6c.5 0 .7.4.7 1.2 0 .9-.3 1.2-.9 1.2h-.4z"/><path fill="#000" stroke-width=".2" d="M133.1 145.9l.4-.2.3-1.7v1.6c0 .1.2.3.4.3h.2c.2 0 .4-.2.4-.3v-4.5l-.4-.2h-.3c-.1 0-.3 0-.3.2l-.8 3-.8-3c0-.2-.2-.2-.3-.2h-.3c-.2 0-.4 0-.4.2v4.5c0 .1.2.3.4.3h.3c.2 0 .3-.2.3-.3V144l.4 1.7s.1.2.3.2zm2.6-1.5c0 .6.2 1 .5 1.2.3.2.7.3 1.1.3.4 0 .8 0 1.1-.3.3-.3.5-.6.5-1.2v-2.1c0-1-.5-1.4-1.6-1.4-1 0-1.6.5-1.6 1.4zm1-2.1c0-.5.2-.7.6-.7.4 0 .6.2.6.7v2.1c0 .5-.2.7-.6.7-.4 0-.6-.2-.6-.7zm4.4 3.6c1.2 0 1.8-.5 1.8-1.5v-2c0-1-.6-1.5-1.8-1.5h-1c-.2 0-.4 0-.4.2v4.5c0 .1.2.3.4.3zm0-4.3c.5 0 .8.2.8.7v2c0 .6-.3.8-.8.8h-.4v-3.5zm2.5 2.9c0 .8.5 1.4 1.7 1.4 1.1 0 1.6-.6 1.6-1.4v-3.4c0-.1-.2-.3-.4-.3h-.2c-.2 0-.4.2-.4.3v3.4c0 .4-.1.6-.6.6s-.7-.2-.7-.6v-3.4l-.3-.3h-.3c-.2 0-.4.2-.4.3zm6.9.9c0-.1-.1-.3-.3-.3h-1.5v-4l-.4-.2h-.2c-.2 0-.4 0-.4.2v4.5c0 .1.2.3.4.3h2c.3 0 .4-.2.4-.3zm1-4.5c-.2 0-.4 0-.4.2v4.5c0 .1.2.3.4.3h2.1c.2 0 .4-.2.4-.3v-.2c0-.1-.2-.3-.4-.3h-1.5v-1.4h1.2c.2 0 .4 0 .4-.2v-.2c0-.2-.2-.3-.4-.3h-1.2v-1.4h1.5c.2 0 .4-.1.4-.3v-.2l-.4-.2zm2.8 3.5c0 1 .6 1.5 1.7 1.5 1 0 1.6-.5 1.6-1.3 0-.7-.6-1.1-1.3-1.5-.5-.3-1-.6-1-1 0-.3.3-.5.7-.5.4 0 .6.2.6.7v.1c0 .2.2.3.4.3h.3c.2 0 .3-.1.3-.3v-.1c0-1-.5-1.5-1.6-1.5-1 0-1.7.5-1.7 1.4 0 .7.7 1.1 1.4 1.5.5.3 1 .5 1 .9s-.3.5-.7.5h-.4c-.2-.2-.3-.3-.3-.7 0-.2-.1-.4-.3-.4h-.3c-.2 0-.4.2-.4.3zm-14 10.3c0-.1-.1-.3-.3-.3h-1.5v-4l-.4-.2h-.3c-.2 0-.3 0-.3.2v4.5c0 .2.1.3.3.3h2.2c.2 0 .3-.1.3-.3zm1-4.5c-.2 0-.4 0-.4.2v4.5c0 .2.2.3.4.3h2.1c.2 0 .4-.1.4-.3v-.2c0-.1-.2-.3-.4-.3H142V153h1.2c.2 0 .4 0 .4-.2v-.2c0-.2-.2-.3-.4-.3H142v-1.4h1.5c.2 0 .4-.1.4-.3v-.2l-.4-.2zm3.5 0c-.2 0-.4 0-.4.2v4.5c0 .2.2.3.4.3h.2c.2 0 .4-.1.4-.3V153h1.1c.2 0 .4 0 .4-.2v-.2c0-.2-.2-.3-.4-.3h-1.1v-1.4h1.5c.2 0 .4-.1.4-.3v-.2l-.4-.2zm3.2.4c0 .2.1.3.3.3h.8v4c0 .1.2.3.4.3h.3c.2 0 .3-.2.3-.3v-4h.8c.2 0 .4-.1.4-.3v-.2c0-.1-.2-.3-.4-.3h-2.6c-.2 0-.3.2-.3.3zM166.7 143.6c0 .6.2 1 .5 1.1.3.3.8.3 1.1.3.4 0 .8 0 1.1-.3.3-.2.6-.5.6-1.1v-.1c0-.2-.2-.3-.4-.3h-.3c-.2 0-.3.1-.3.3 0 .4 0 .6-.2.7l-.5.1c-.4 0-.6-.2-.6-.7v-2.1c0-.5.2-.7.6-.7.4 0 .7.2.7.7 0 .2.1.3.3.3h.3c.2 0 .4 0 .4-.2v-.1c0-.6-.3-1-.6-1.2a2 2 0 0 0-1-.3 2 2 0 0 0-1.2.3c-.3.2-.5.6-.5 1.2zm3.9.1c0 .8.4 1.3 1.6 1.3 1.2 0 1.6-.5 1.6-1.3v-3.4c0-.2-.1-.3-.3-.3h-.3c-.2 0-.3.1-.3.3v3.4c0 .3-.2.6-.7.6-.5 0-.6-.2-.6-.6v-3.4c0-.2-.2-.3-.4-.3h-.3c-.2 0-.3.1-.3.3zm7.4-.2a1 1 0 0 0-.5-.9c.4-.3.5-.7.5-1.1 0-1-.4-1.5-1.7-1.5h-1.2c-.2 0-.4.1-.4.3v4.5l.4.2h.3c.1 0 .3 0 .3-.2v-1.9h.5c.4 0 .7.3.7.6v1.3l.4.2h.3c.2 0 .3 0 .3-.2zm-2.3-2.7h.6c.6 0 .7.2.7.7 0 .5-.3.7-.8.7h-.5zm6.2 2.7c0-.4-.1-.7-.4-.9.4-.3.5-.7.5-1.1 0-1-.5-1.5-1.7-1.5h-1.2c-.2 0-.4.1-.4.3v4.5l.4.2h.2c.2 0 .4 0 .4-.2v-1.9h.4c.5 0 .8.3.8.6v1.3l.4.2h.2c.2 0 .4 0 .4-.2zm-2.2-2.7h.6c.5 0 .7.2.7.7 0 .5-.3.7-.9.7h-.4zm3.3-.8c-.2 0-.4.1-.4.3v4.5l.4.2h2.2c.2 0 .3 0 .3-.2v-.2c0-.2-.1-.3-.3-.3h-1.6v-1.4h1.3c.2 0 .4-.1.4-.3v-.2l-.4-.2h-1.3v-1.4h1.6c.2 0 .3-.2.3-.3v-.2c0-.2-.1-.3-.3-.3zm6.1 5c.2 0 .4 0 .4-.2v-4.5c0-.2-.2-.3-.4-.3h-.3c-.2 0-.3.1-.3.3v2.4l-1.4-2.5-.3-.2h-.3c-.2 0-.3.1-.3.3v4.5c0 .1.1.2.3.2h.3c.2 0 .4 0 .4-.2v-2.5l1.4 2.6.3.1zm1.1-4.5c0 .1.2.3.4.3h.8v4l.4.2h.2c.2 0 .4 0 .4-.2v-4h.8c.2 0 .4-.2.4-.3v-.2c0-.2-.2-.3-.4-.3h-2.6c-.2 0-.4.1-.4.3zm-22 12.4c0 1 .6 1.4 1.6 1.4 1.1 0 1.7-.4 1.7-1.2 0-.8-.7-1.1-1.3-1.5-.5-.3-1-.6-1-1s.2-.5.6-.5c.5 0 .7.2.7.7 0 .2.2.4.4.4h.2c.2 0 .4-.2.4-.3v-.1c0-1-.6-1.5-1.7-1.5-1 0-1.6.5-1.6 1.3s.7 1.2 1.4 1.6c.4.2.9.5.9.9s-.2.5-.7.5l-.4-.1-.2-.6v-.1c0-.2-.2-.3-.4-.3h-.2c-.2 0-.4.1-.4.3zm3.6-3.1c0 .1.2.3.4.3h.8v4l.4.2h.2c.2 0 .4 0 .4-.2v-4h.8c.2 0 .4-.2.4-.3v-.2c0-.2-.2-.3-.4-.3h-2.6c-.2 0-.4.1-.4.3zm7.2 3c0-.4 0-.7-.3-.9.4-.3.5-.7.5-1.1 0-1-.5-1.5-1.7-1.5h-1.3c-.2 0-.3.1-.3.3v4.5c0 .1.1.2.3.2h.3c.2 0 .4 0 .4-.2v-1.9h.4c.5 0 .8.3.8.6v1.3l.4.2h.2c.2 0 .4 0 .4-.2zm-2.1-2.7h.6c.5 0 .7.2.7.7 0 .5-.3.7-.9.7h-.4zm3.9-.5c0-.2-.2-.3-.3-.3h-.3c-.2 0-.4.1-.4.3v4.5l.4.2h.3c.1 0 .3 0 .3-.2zm1.7 1.6v-1.6c0-.2-.2-.3-.4-.3h-.3c-.2 0-.3.1-.3.3v4.5c0 .1.1.2.3.2h.3c.2 0 .4 0 .4-.2v-1.5l.1-.1 1.3 1.7.3.1h.4c.3 0 .4-.2.3-.4l-1.7-2.2 1.7-2c.1-.2 0-.4-.3-.4h-.4l-.3.2zm3.5-1.9c-.3 0-.4.1-.4.3v4.5c0 .1.1.2.3.2h2.2c.2 0 .3 0 .3-.2v-.2c0-.2-.1-.3-.3-.3h-1.5v-1.4h1.2c.2 0 .4-.1.4-.3v-.2l-.4-.2h-1.2V150h1.5c.2 0 .3-.2.3-.3v-.2c0-.2-.1-.3-.3-.3zm2.8 3.6c0 1 .5 1.4 1.6 1.4s1.7-.4 1.7-1.2c0-.8-.7-1.1-1.3-1.5-.5-.3-1-.6-1-1s.2-.5.6-.5c.5 0 .7.2.7.7 0 .2.1.4.3.4h.3c.2 0 .4-.2.4-.3v-.1c0-1-.6-1.5-1.7-1.5-1 0-1.6.5-1.6 1.3s.7 1.2 1.3 1.6c.5.2 1 .5 1 .9s-.2.5-.7.5l-.4-.1-.2-.6v-.1c0-.2-.2-.3-.4-.3h-.2c-.2 0-.4.1-.4.3z"/><path fill="#000" fill-rule="evenodd" d="M132.8 156.4h22.1V179h-22.1zm36.3-.5h22.1v22.6h-22.1z"/><path fill="#fff" d="M178.2 172.4h3.7l1 1-1 1h-3.7l-1-1zm-.2-4.2v4l-1 1-.8-1v-4l.9-1zm5.9-6.4v4l-1 1-.9-1v-4l1-1zm-6 0v4l-.9 1-.9-1v-4l1-1zm.3-2.2h3.7l1 1-1 1h-3.7l-1-1zm5.7 8.6v4l-1 1-.9-1v-4l1-1zM147.2 161.4v5l-1 1.1-1-1v-5l1-1zm-6 0v5.1l-1 1-.8-1v-5l1-1zm.2 5.3h3.7l1 1-1 1h-3.7l-1-1zm5.7 2.3v5l-.9 1.1-1-1V169l1-1z"/><path stroke="#000" stroke-width="1.5" d="M19.1 17.8h156.3v75H19.1z"/><path fill="#000003" fill-rule="evenodd" d="M19.1 17.8h156.1v40H19.1z"/><text x="45.3" y="31.3" fill="#fff" stroke-width=".4" transform="scale(.69956 1.42947)"><tspan x="45.3" y="31.3">Serial Number:</tspan></text><text x="45.1" y="88.7" fill="#000"><tspan x="45.1" y="88.7">XXXXXX</tspan></text><path stroke="#000" stroke-width="2" d="M50.6 100.3h86.3v27.6H50.6z"/><path fill="#000" fill-rule="evenodd" d="M53.4 103h81.1v21.9H53.4zm81.8 6.4h1.3v8.7h-1.3zm-84.6 1.7h1.6v7.5h-1.6z"/><path fill="#fff" fill-rule="evenodd" d="M54.6 104H106v20H54.6z"/><path fill="#000" fill-rule="evenodd" d="M192.9 23.6h82.4v28.6h-82.4zm-.2 34.6h82.4v28.6h-82.4zm0 33.5h82.4v28.6h-82.4z"/><path fill="#fffffc" stroke="#646464" stroke-width="1.3" d="M197.4 106c0-5.5 4.3-9.9 9.6-9.9 2.5 0 5 1 6.8 3a10 10 0 0 1 2.8 6.9c0 5.4-4.3 9.9-9.6 9.9a9.7 9.7 0 0 1-9.6-10zm.2-33.8c0-5.4 4.3-9.8 9.6-9.8 2.5 0 5 1 6.7 2.8a10 10 0 0 1 2.8 7c0 5.5-4.2 9.9-9.5 9.9a9.7 9.7 0 0 1-9.6-9.9zm-.3-35c0-5.5 4.3-9.9 9.6-9.9 2.5 0 5 1 6.7 2.9a10 10 0 0 1 2.8 7c0 5.4-4.2 9.9-9.5 9.9a9.7 9.7 0 0 1-9.6-10z"/><path fill="#fff" fill-rule="evenodd" d="M220.6 27.6h48.5v20.1h-48.5zm.9 35H270v20.1h-48.5zm.1 33.3h48.5V116h-48.5z"/><rect width="30.3" height="22.1" x="192.6" y="198.7" stroke="#000" ry=".9"/><path fill="#000" stroke-width=".3" d="M195.2 211.6c0 1.7.6 2.5 2 2.5 1.3 0 2-.7 2-2.2 0-1.3-.8-2-1.6-2.6-.6-.5-1.2-1-1.2-1.7s.3-1 .8-1 .8.4.8 1.2v.2c0 .3.2.5.4.5h.3c.3 0 .5-.2.5-.5v-.2c0-1.6-.7-2.5-2-2.5s-2 .8-2 2.3c0 1.3.8 2 1.6 2.7.6.5 1.2 1 1.2 1.6 0 .7-.3 1-.8 1-.2 0-.4 0-.5-.2-.2-.2-.3-.5-.3-1.1v-.2c0-.3-.2-.5-.4-.5h-.4c-.2 0-.4.2-.4.5zm4.8.1c0 1.4.5 2.4 2 2.4 1.3 0 1.9-.9 1.9-2.4v-6c0-.2-.2-.4-.4-.4h-.4c-.2 0-.4.2-.4.4v6c0 .7-.2 1.1-.8 1.1-.6 0-.8-.4-.8-1v-6c0-.3-.2-.5-.4-.5h-.4c-.2 0-.4.2-.4.4zm6.7 2.5c1.4 0 2-.9 2-2.6 0-.8-.2-1.5-.5-1.9 0 0 .5-.7.5-1.9 0-1.7-.6-2.5-2-2.5h-1.2c-.3 0-.5.2-.5.4v8c0 .3.2.5.5.5zm0-7.6c.6 0 .8.3.8 1.2 0 .9-.2 1.3-.8 1.3h-.5v-2.5zm0 3.8c.6 0 .8.3.8 1.2 0 .9-.2 1.3-.8 1.3h-.5v-2.5zm5.3 3.8s.3-.2.3-.4l.4-3v2.9c0 .3.2.5.5.5h.3c.3 0 .4-.2.4-.5v-8c0-.2-.1-.4-.4-.4h-.4l-.4.3-1 5.4-.9-5.4c0-.2-.2-.3-.4-.3h-.4c-.2 0-.4.2-.4.4v8c0 .3.2.5.4.5h.4c.2 0 .4-.2.4-.5v-2.9l.4 3c0 .2.3.4.4.4zm4.2-8.5c0-.2-.2-.4-.5-.4h-.3c-.2 0-.4.2-.4.4v8c0 .3.2.5.4.5h.3c.3 0 .5-.2.5-.5zm.8.4c0 .3.1.5.4.5h1v7c0 .3.2.5.4.5h.3c.3 0 .5-.2.5-.4v-7.1h1c.2 0 .4-.2.4-.5v-.4c0-.2-.2-.4-.4-.4h-3.2c-.3 0-.5.2-.5.4z"/></svg>