<svg width="348" height="348" xmlns="http://www.w3.org/2000/svg">

 <g>
  <title>background</title>
  <rect fill="none" id="canvas_background" height="402" width="582" y="-1" x="-1"/>
 </g>
 <g>
  <title>Layer 1</title>
  <path fill="none" id="svg_1" stroke="#000" stroke-width="2" d="m5.079,5.130839l336.913,0l0,337.67l-336.912,0l-0.001,-337.67z"/>
  <path fill="none" id="svg_2" stroke="#000" stroke-width="2" d="m282.734,40.554c0,-8.376 6.966,-15.165 15.56,-15.165c4.126,0 8.084,1.597 11.001,4.441c2.918,2.844 4.558,6.702 4.558,10.724c0,8.376 -6.966,15.165 -15.56,15.165c-8.593,0 -15.559,-6.79 -15.559,-15.165z"/>
  <path stroke="#000" fill="none" id="svg_3" stroke-width="2" d="m22.079,43.776l222.91299,0l0,286.67l-222.91233,0l-0.00066,-286.67z"/>
  <path stroke="#000" fill="none" id="svg_4" stroke-width="2" d="m257.079006,163.468821l72.508744,0l0,164.622349l-72.50853,0l-0.000215,-164.622349z"/>
  <path stroke="#000" fill="none" id="svg_5" stroke-width="2" d="m275.002013,174.585559l35.203316,0l0,44.670012l-35.203214,0l-0.000102,-44.670012z"/>
  <line stroke="#000" stroke-linecap="null" stroke-linejoin="null" id="svg_6" y2="220.140783" x2="292.777842" y1="322.310243" x1="292.777842" stroke-width="10" fill="none"/>
  <path stroke="#000" fill="none" id="svg_8" stroke-width="2" d="m266.067356,123.549109c0,-15.553597 12.935334,-28.160255 28.89374,-28.160255c7.661669,0 15.011375,2.965508 20.428023,8.2466c5.418505,5.281092 8.46386,12.445106 8.46386,19.913655c0,15.553597 -12.935334,28.160255 -28.89374,28.160255c-15.956549,0 -28.891883,-12.608515 -28.891883,-28.160255z"/>
  <path stroke="#000" fill="#000000" id="svg_9" stroke-width="2" d="m289.62769,123.880741c0,-2.608292 2.169216,-4.722392 4.845394,-4.722392c1.284839,0 2.517362,0.497307 3.425718,1.38293c0.908666,0.885625 1.419364,2.087008 1.419364,3.339462c0,2.608292 -2.169216,4.72239 -4.845394,4.72239c-2.675866,0 -4.845082,-2.11441 -4.845082,-4.72239z"/>
  <path stroke="#000" fill="none" id="svg_10" stroke-width="2" d="m273.627477,123.60999c0,-11.718863 9.746127,-21.217353 21.769993,-21.217353c5.772687,0 11.310319,2.234364 15.391495,6.213402c4.08257,3.979046 6.377097,9.37677 6.377097,15.003951c0,11.718863 -9.746127,21.217345 -21.769993,21.217345c-12.022465,0 -21.768592,-9.499884 -21.768592,-21.217345z"/>
  <rect stroke="#000" transform="rotate(-32.56147003173828 36.45536041259768,36.27019882202149) " id="svg_23" height="11.748327" width="31.139036" y="30.396034" x="20.885842" stroke-width="2" fill="#000000"/>
  <rect stroke="#000" transform="rotate(-32.56147003173828 60.67158889770514,59.026443481445334) " id="svg_21" height="64.210483" width="7.879645" y="26.921203" x="56.731765" stroke-width="2" fill="#ffffff"/>
  <rect stroke="#000" transform="rotate(-32.56147003173828 47.18325042724612,67.86363220214845) " id="svg_22" height="64.210483" width="7.879645" y="35.758389" x="43.243429" stroke-width="2" fill="#ffffff"/>
  <path stroke="#000" fill="#000000" id="svg_20" stroke-width="2" d="m12.943502,183.243336c0,-63.207251 52.567023,-114.438563 117.419357,-114.438563c31.135712,0 61.003676,12.051299 83.016028,33.51278c22.019884,21.461526 34.395707,50.574821 34.395707,80.925783c0,63.207206 -52.567023,114.438518 -117.419312,114.438518c-64.844758,0 -117.41178,-51.238843 -117.41178,-114.438518z"/>
  <path stroke="#000" fill="#000000" id="svg_24" stroke-width="2" d="m134.61795,73.73853c29.33026,0 57.4663,11.35249 78.20223,31.56949c20.74303,20.21705 32.40123,47.64217 32.40123,76.23319c0,59.54205 -49.51886,107.80265 -110.6106,107.80265l0.00714,-215.60533z"/>
  <line stroke-linecap="null" stroke-linejoin="null" id="svg_40" y2="196.745972" x2="305.982888" y1="196.745972" x1="279.744485" stroke-width="2" stroke="#000" fill="none"/>
 </g>
</svg>