<svg xmlns="http://www.w3.org/2000/svg" fill="none" viewBox="0 0 348 348"><path stroke="#000" stroke-width="2" d="M5.08 5.78h336.91v337.67H5.08z"/><path stroke="#000" stroke-width="2" d="M282.73 40.55c0-8.37 6.97-15.16 15.56-15.16 4.13 0 8.09 1.6 11 4.44a14.97 14.97 0 014.56 10.72c0 8.38-6.96 15.17-15.56 15.17-8.59 0-15.56-6.8-15.56-15.17z"/><path stroke="#000" d="M75 88c-2.62 0-5.22 1.08-7.07 2.93A10.12 10.12 0 0065 98c0 2.62 1.08 5.22 2.93 7.07A10.12 10.12 0 0075 108c2.62 0 5.22-1.08 7.07-2.93A10.12 10.12 0 0085 98c0-2.62-1.08-5.22-2.93-7.07A10.12 10.12 0 0075 88zM275 288c-2.62 0-5.22 1.08-7.07 2.93A10.12 10.12 0 00265 298c0 2.62 1.08 5.22 2.93 7.07A10.12 10.12 0 00275 308c2.62 0 5.22-1.08 7.07-2.93A10.12 10.12 0 00285 298c0-2.62-1.08-5.22-2.93-7.07A10.12 10.12 0 00275 288zM175 288c-2.62 0-5.22 1.08-7.07 2.93A10.12 10.12 0 00165 298c0 2.62 1.08 5.22 2.93 7.07A10.12 10.12 0 00175 308c2.62 0 5.22-1.08 7.07-2.93A10.12 10.12 0 00185 298c0-2.62-1.08-5.22-2.93-7.07A10.12 10.12 0 00175 288zM275 188c-2.62 0-5.22 1.08-7.07 2.93A10.12 10.12 0 00265 198c0 2.62 1.08 5.22 2.93 7.07A10.12 10.12 0 00275 208c2.62 0 5.22-1.08 7.07-2.93A10.12 10.12 0 00285 198c0-2.62-1.08-5.22-2.93-7.07A10.12 10.12 0 00275 188zM175 188c-2.62 0-5.22 1.08-7.07 2.93A10.12 10.12 0 00165 198c0 2.62 1.08 5.22 2.93 7.07A10.12 10.12 0 00175 208c2.62 0 5.22-1.08 7.07-2.93A10.12 10.12 0 00185 198c0-2.62-1.08-5.22-2.93-7.07A10.12 10.12 0 00175 188zM75 288c-2.62 0-5.22 1.08-7.07 2.93A10.12 10.12 0 0065 298c0 2.62 1.08 5.22 2.93 7.07A10.12 10.12 0 0075 308c2.62 0 5.22-1.08 7.07-2.93A10.12 10.12 0 0085 298c0-2.62-1.08-5.22-2.93-7.07A10.12 10.12 0 0075 288zM75 188c-2.62 0-5.22 1.08-7.07 2.93A10.12 10.12 0 0065 198c0 2.62 1.08 5.22 2.93 7.07A10.12 10.12 0 0075 208c2.62 0 5.22-1.08 7.07-2.93A10.12 10.12 0 0085 198c0-2.62-1.08-5.22-2.93-7.07A10.12 10.12 0 0075 188zM275 88c-2.62 0-5.22 1.08-7.07 2.93A10.12 10.12 0 00265 98c0 2.62 1.08 5.22 2.93 7.07A10.12 10.12 0 00275 108c2.62 0 5.22-1.08 7.07-2.93A10.12 10.12 0 00285 98c0-2.62-1.08-5.22-2.93-7.07A10.12 10.12 0 00275 88zM175 88c-2.62 0-5.22 1.08-7.07 2.93A10.12 10.12 0 00165 98c0 2.62 1.08 5.22 2.93 7.07A10.12 10.12 0 00175 108c2.62 0 5.22-1.08 7.07-2.93A10.12 10.12 0 00185 98c0-2.62-1.08-5.22-2.93-7.07A10.12 10.12 0 00175 88z"/></svg>