 <svg xmlns="http://www.w3.org/2000/svg" fill="none" viewBox="0 0 348 348"><path stroke="#000" stroke-width="2" d="M5.079 5.776h336.913v337.67H5.08z"/><path stroke="#000" stroke-width="2" d="M282.734 40.554c0-8.376 6.966-15.165 15.56-15.165 4.126 0 8.084 1.597 11.001 4.441 2.918 2.844 4.558 6.702 4.558 10.724 0 8.376-6.966 15.165-15.56 15.165-8.593 0-15.559-6.79-15.559-15.165z"/><path stroke="#000" stroke-width="3.613" d="M29.195 30.503h238.253V68.04H29.195z"/><path stroke="#000" stroke-width="3.613" d="M29.195 30.503h238.253V68.04H29.195zM29.196 83.159h238.253v37.537H29.196zM34.409 153.018h23.46v23.46h-23.46z"/><path stroke="#000" stroke-width="3.613" d="M34.409 153.018h23.46v23.46h-23.46zM75.334 153.018h23.46v23.46h-23.46zM116.259 153.018h23.46v23.46h-23.46zM157.177 153.018h23.461v23.46h-23.461zM198.109 153.018h23.46v23.46h-23.46zM239.034 153.018h23.46v23.46h-23.46zM279.959 153.018h23.46v23.46h-23.46zM34.416 193.943h23.46v23.46h-23.46z"/><path stroke="#000" stroke-width="3.613" d="M34.416 193.943h23.46v23.46h-23.46zM75.341 193.943h23.46v23.46h-23.46zM116.266 193.943h23.46v23.46h-23.46zM157.184 193.943h23.461v23.46h-23.461zM198.116 193.943h23.46v23.46h-23.46zM239.041 193.943h23.46v23.46h-23.46zM279.966 193.943h23.46v23.46h-23.46zM33.876 234.868h23.46v23.46h-23.46z"/><path stroke="#000" stroke-width="3.613" d="M33.876 234.868h23.46v23.46h-23.46zM74.801 234.868h23.46v23.46h-23.46zM115.726 234.868h23.46v23.46h-23.46zM156.644 234.868h23.461v23.46h-23.461zM197.576 234.868h23.46v23.46h-23.46zM238.501 234.868h23.46v23.46h-23.46zM279.426 234.868h23.46v23.46h-23.46zM33.883 275.793h23.46v23.46h-23.46z"/><path stroke="#000" stroke-width="3.613" d="M33.883 275.793h23.46v23.46h-23.46zM74.808 275.793h23.46v23.46h-23.46zM115.733 275.793h23.46v23.46h-23.46zM156.651 275.793h23.461v23.46h-23.461zM197.583 275.793h23.46v23.46h-23.46zM238.508 275.793h23.46v23.46h-23.46zM279.433 275.793h23.46v23.46h-23.46z"/></svg> 