<svg xmlns="http://www.w3.org/2000/svg" viewBox="0 0 348 348" fill="none" stroke-linecap="square" stroke-miterlimit="10"><clipPath id="a"><path d="M0 0h348v348H0V0z"/></clipPath><g clip-path="url(#a)"><path fill="#fff" stroke-width="2" stroke-miterlimit="4" d="M5.079 5.776h336.913v337.669H5.079z"/><path fill="#000" fill-opacity="0" d="M0 0h348v348H0z"/><path fill="#000" fill-opacity="0" d="M5.079 5.776h336.913v337.67H5.08z"/><path d="M5.079 5.776h336.913v337.67H5.08z" stroke-linejoin="round" stroke-linecap="butt" stroke-width="2" stroke="#000" fill="#fff"/><path fill="#fff" d="M282.734 40.554c0-8.376 6.966-15.165 15.56-15.165 4.126 0 8.084 1.597 11.001 4.441 2.918 2.844 4.558 6.702 4.558 10.724 0 8.376-6.966 15.165-15.56 15.165-8.593 0-15.559-6.79-15.559-15.165z"/><path stroke="#000" stroke-width="2" stroke-linejoin="round" stroke-linecap="butt" d="M282.734 40.554c0-8.376 6.966-15.165 15.56-15.165 4.126 0 8.084 1.597 11.001 4.441 2.918 2.844 4.558 6.702 4.558 10.724 0 8.376-6.966 15.165-15.56 15.165-8.593 0-15.559-6.79-15.559-15.165z"/><text y="154.831" x="278.506" style="line-height:125%;text-align:center" font-weight="400" font-size="25" font-family="sans-serif" letter-spacing="0" word-spacing="0" text-anchor="middle" fill="#000" stroke-linecap="butt" transform="matrix(.84124 0 0 1.02148 49.267 -12.155)"><tspan y="154.831" x="278.506">MODE</tspan></text><text style="line-height:125%;text-align:center" x="277.22" y="188.729" font-weight="400" font-size="25" font-family="sans-serif" letter-spacing="0" word-spacing="0" text-anchor="middle" fill="#000" stroke-linecap="butt" transform="matrix(.84124 0 0 1.02148 49.267 -12.155)"><tspan x="277.22" y="188.729">DIGGING</tspan></text><path stroke="#000" stroke-width="2.001" stroke-miterlimit="4" d="M216.879 160.845h122.158v65.006H216.879z" transform="matrix(.84124 0 0 1.02148 49.267 -12.155)"/><text y="215.716" x="277.524" style="line-height:125%;text-align:center" font-weight="400" font-size="20.985" font-family="sans-serif" letter-spacing="0" word-spacing="0" text-anchor="middle" fill="#000" stroke-linecap="butt" transform="matrix(.84124 0 0 1.02148 49.267 -12.155)"><tspan y="215.716" x="277.524">FLAGGING</tspan></text><path fill="#000" stroke="#000" stroke-width="1.987" stroke-miterlimit="4" d="M216.879 195.466h122.158v30.384H216.879z" transform="matrix(.84124 0 0 1.02148 49.267 -12.155)"/><path fill="#000" stroke="#000" stroke-width="1.429" stroke-miterlimit="4" d="M12.47 21.744h28.571v28.571H12.47zm36.4 0h28.571v28.571H48.87zm36.4 0h28.571v28.571H85.27zm36.4 0h28.571v28.571H121.67zm36.4 0h28.571v28.571H158.07zm-145.6 35h28.571v28.571H12.47zm36.4 0h28.571v28.571H48.87zm36.4 0h28.571v28.571H85.27zm36.4 0h28.571v28.571H121.67zm36.4 0h28.571v28.571H158.07zm-145.6 35h28.571v28.571H12.47zm36.4 0h28.571v28.571H48.87zm36.4 0h28.571v28.571H85.27zm36.4 0h28.571v28.571H121.67zm36.4 0h28.571v28.571H158.07zm-145.6 35h28.571v28.571H12.47zm36.4 0h28.571v28.571H48.87zm36.4 0h28.571v28.571H85.27zm36.4 0h28.571v28.571H121.67zm36.4 0h28.571v28.571H158.07zm-145.6 35h28.571v28.571H12.47zm36.4 0h28.571v28.571H48.87zm36.4 0h28.571v28.571H85.27zm36.4 0h28.571v28.571H121.67zm36.4 0h28.571v28.571H158.07zm-145.6 35h28.571v28.571H12.47zm36.4 0h28.571v28.571H48.87zm36.4 0h28.571v28.571H85.27zm36.4 0h28.571v28.571H121.67zm36.4 0h28.571v28.571H158.07zm-145.6 35h28.571v28.571H12.47zm36.4 0h28.571v28.571H48.87zm36.4 0h28.571v28.571H85.27zm36.4 0h28.571v28.571H121.67zm36.4 0h28.571v28.571H158.07zm-145.6 35h28.571v28.571H12.47zm36.4 0h28.571v28.571H48.87zm36.4 0h28.571v28.571H85.27zm36.4 0h28.571v28.571H121.67zm36.4 0h28.571v28.571H158.07zm-145.6 35h28.571v28.571H12.47zm36.4 0h28.571v28.571H48.87zm36.4 0h28.571v28.571H85.27zm36.4 0h28.571v28.571H121.67zm36.4 0h28.571v28.571H158.07zm36.4-280h28.571v28.571H194.47zm0 35h28.571v28.571H194.47zm0 35h28.571v28.571H194.47zm0 35h28.571v28.571H194.47zm0 35h28.571v28.571H194.47zm0 35h28.571v28.571H194.47zm0 35h28.571v28.571H194.47zm0 35h28.571v28.571H194.47zm0 35h28.571v28.571H194.47z"/></g></svg>