<?xml version="1.0" encoding="UTF-8" standalone="no"?>
<svg
   xmlns:dc="http://purl.org/dc/elements/1.1/"
   xmlns:cc="http://creativecommons.org/ns#"
   xmlns:rdf="http://www.w3.org/1999/02/22-rdf-syntax-ns#"
   xmlns:svg="http://www.w3.org/2000/svg"
   xmlns="http://www.w3.org/2000/svg"
   xmlns:xlink="http://www.w3.org/1999/xlink"
   xmlns:sodipodi="http://sodipodi.sourceforge.net/DTD/sodipodi-0.dtd"
   xmlns:inkscape="http://www.inkscape.org/namespaces/inkscape"
   viewBox="0.0 0.0 348.0 348.0"
   fill="none"
   version="1.1"
   id="svg831"
   sodipodi:docname="Bombs.svg"
   inkscape:version="0.92.2 (5c3e80d, 2017-08-06)">
  <metadata
     id="metadata837">
    <rdf:RDF>
      <cc:Work
         rdf:about="">
        <dc:format>image/svg+xml</dc:format>
        <dc:type
           rdf:resource="http://purl.org/dc/dcmitype/StillImage" />
      </cc:Work>
    </rdf:RDF>
  </metadata>
  <defs
     id="defs835" />
  <sodipodi:namedview
     pagecolor="#ffffff"
     bordercolor="#666666"
     borderopacity="1"
     objecttolerance="10"
     gridtolerance="10"
     guidetolerance="10"
     inkscape:pageopacity="0"
     inkscape:pageshadow="2"
     inkscape:window-width="1366"
     inkscape:window-height="745"
     id="namedview833"
     showgrid="false"
     inkscape:zoom="0.78979744"
     inkscape:cx="190.1794"
     inkscape:cy="215.59389"
     inkscape:window-x="-8"
     inkscape:window-y="-8"
     inkscape:window-maximized="1"
     inkscape:current-layer="svg831" />
  <path
     d="M5.079 5.776h336.913v337.67H5.08z"
     stroke-width="2"
     stroke="#000"
     id="path827" />
  <path
     d="M282.734 40.554c0-8.376 6.966-15.165 15.56-15.165 4.126 0 8.084 1.597 11.001 4.441 2.918 2.844 4.558 6.702 4.558 10.724 0 8.376-6.966 15.165-15.56 15.165-8.593 0-15.559-6.79-15.559-15.165z"
     stroke-width="2"
     stroke="#000"
     id="path829" />
  <rect
     style="opacity:1;fill:#000000;fill-opacity:1;stroke:none;stroke-width:4.33133841;stroke-linecap:butt;stroke-miterlimit:4;stroke-dasharray:none;stroke-opacity:1"
     id="rect855"
     width="118.94915"
     height="118.94915"
     x="108.30508"
     y="99.288139" />
  <rect
     style="opacity:1;fill:#000000;fill-opacity:1;stroke:none;stroke-width:4.33133841;stroke-linecap:butt;stroke-miterlimit:4;stroke-dasharray:none;stroke-opacity:1"
     id="rect857"
     width="57.016949"
     height="46.203384"
     x="108.30508"
     y="99.288139" />
  <rect
     style="opacity:1;fill:none;fill-opacity:1;stroke:#818181;stroke-width:3;stroke-linecap:butt;stroke-miterlimit:4;stroke-dasharray:none;stroke-opacity:1"
     id="rect861"
     width="126.81356"
     height="125.83051"
     x="104.37289"
     y="96.338982" />
  <path
     style="fill:none;stroke:#000000;stroke-width:1px;stroke-linecap:butt;stroke-linejoin:miter;stroke-opacity:1"
     d="m 142,83 26,-13 26,13 z"
     id="path865"
     inkscape:connector-curvature="0"
     sodipodi:nodetypes="cccc" />
  <use
     id="use867"
     xlink:href="#path865"
     x="0"
     y="0"
     width="100%"
     height="100%"
     transform="rotate(90,167,159)" />
  <use
     transform="rotate(180,167,159)"
     height="100%"
     width="100%"
     y="0"
     x="0"
     xlink:href="#path865"
     id="use870" />
  <use
     id="use872"
     xlink:href="#path865"
     x="0"
     y="0"
     width="100%"
     height="100%"
     transform="rotate(-90,167,159)" />
  <rect
     style="opacity:1;fill:none;fill-opacity:1;stroke:#000000;stroke-width:2.50975323;stroke-linecap:butt;stroke-miterlimit:4;stroke-dasharray:none;stroke-opacity:1"
     id="rect874"
     width="133.42406"
     height="42.041756"
     x="101.14419"
     y="288.99472"
     ry="0" />
  <g
     aria-label="SUBMIT"
     style="font-style:normal;font-variant:normal;font-weight:normal;font-stretch:normal;font-size:41.33333206px;line-height:1.25;font-family:'special elite';-inkscape-font-specification:'special elite';letter-spacing:0px;word-spacing:0px;fill:#000000;fill-opacity:1;stroke:none"
     id="text878">
    <path
       d="m 126.67005,312.65609 q 0,0.83008 -0.11393,1.6276 -0.0977,0.79753 -0.14649,1.62761 -0.11393,-0.11394 -0.26041,-0.17904 -0.13021,-0.0814 -0.2767,-0.0814 -0.17903,0 -0.34179,0.11393 -0.16276,0.11393 -0.16276,0.29297 0,0.19531 0.17903,0.26042 0.19532,0.0651 0.39063,0.0651 0.16276,0 0.22786,-0.0163 0,0.19532 -0.11393,0.40691 -0.0977,0.19531 -0.26042,0.39062 -0.14648,0.19531 -0.32552,0.37435 -0.16276,0.16276 -0.29296,0.29297 -0.0977,0.0977 -0.21159,0.27669 -0.11394,0.17904 -0.26042,0.35807 -0.13021,0.16276 -0.27669,0.29297 -0.14649,0.11394 -0.29297,0.11394 -0.16276,0 -0.26042,-0.0814 -0.0977,-0.0977 -0.22786,-0.0977 -0.17904,0 -0.22787,0.19531 -0.0326,0.17904 -0.0326,0.35807 v 0.19532 q 0,0.0814 -0.3418,0.21159 -0.34179,0.1302 -0.83007,0.29296 -0.47201,0.14649 -0.99284,0.30925 -0.50456,0.14648 -0.84636,0.29297 -0.66731,0.27669 -1.35091,0.45573 -0.68359,0.17903 -1.41601,0.17903 -0.53711,0 -1.04167,-0.14648 -0.48828,-0.13021 -0.99284,-0.29297 -0.48828,-0.17904 -0.99284,-0.30924 -0.48828,-0.14649 -1.02539,-0.14649 -0.21159,0 -0.55338,0.0651 -0.3418,0.0651 -0.52084,0.19532 -0.0814,0.0651 -0.16276,0.22786 -0.0814,0.17904 -0.19531,0.17904 -0.0814,0 -0.22786,-0.0651 -0.14649,-0.0651 -0.21159,-0.0976 -0.37435,-0.19531 -0.63477,-0.50456 -0.26042,-0.32552 -0.43945,-0.69987 -0.17904,-0.37435 -0.26042,-0.78125 -0.0814,-0.42318 -0.0814,-0.8138 0,-0.27669 0.0488,-0.53711 0.0651,-0.27669 0.0651,-0.55339 0,-0.39062 -0.0977,-0.76497 -0.0814,-0.37435 -0.0814,-0.76497 0,-0.2767 0.0814,-0.55339 0.0977,-0.27669 0.0977,-0.55338 0,-0.21159 -0.0977,-0.39063 -0.0977,-0.19531 -0.0977,-0.4069 0,-0.14648 0.0977,-0.24414 0.11393,-0.0977 0.11393,-0.22787 0,-0.19531 -0.0163,-0.39062 -0.0163,-0.19531 -0.0163,-0.39063 0,-0.0976 0,-0.27669 0.0163,-0.19531 0.0488,-0.37435 0.0326,-0.17903 0.11393,-0.30924 0.0814,-0.13021 0.22786,-0.13021 0.29297,0 0.58594,0.37435 0.30924,0.35807 0.55339,0.84635 0.26041,0.48828 0.42317,0.97657 0.16276,0.48828 0.16276,0.73242 0,0.0814 -0.0651,0.16276 -0.0651,0.0651 -0.16276,0.0651 0.0651,0.11393 0.14648,0.3418 0.0814,0.22786 0.0814,0.35807 0,0.19531 -0.0651,0.37435 -0.0488,0.17904 -0.0488,0.37435 0,0.16276 0.0651,0.30924 0.0814,0.14649 0.16277,0.2767 0.1302,0.19531 0.22786,0.29297 0.0977,0.0976 0.21159,0.14648 0.11393,0.0326 0.24414,0.0488 0.14648,0.0163 0.37435,0.0325 0.32552,0.47201 0.73242,0.87891 0.4069,0.4069 0.87891,0.73242 0.73242,0.16276 1.44856,0.26041 0.71615,0.0977 1.44857,0.0977 0.60221,0 1.04167,-0.13021 0.45573,-0.13021 0.83008,-0.34179 0.39062,-0.21159 0.74869,-0.47201 0.35808,-0.27669 0.7487,-0.56966 0.27669,-0.19531 0.58594,-0.37435 0.30924,-0.17904 0.60221,-0.37435 0.29297,-0.19531 0.55339,-0.42318 0.26041,-0.24414 0.43945,-0.55338 0.11393,-0.19531 0.32552,-0.39063 0.22787,-0.21158 0.22787,-0.45573 0,-0.0976 -0.0163,-0.14648 -0.0651,-0.52083 -0.0977,-1.00911 -0.0163,-0.50456 -0.0488,-1.02539 -0.0326,-0.48829 -0.21159,-0.73243 -0.17904,-0.26041 -0.45573,-0.42317 -0.26042,-0.17904 -0.56966,-0.3418 -0.30925,-0.16276 -0.60222,-0.45573 -0.30924,-0.30924 -0.69987,-0.39062 -0.37434,-0.0814 -0.78125,-0.0977 -0.4069,-0.0163 -0.8138,-0.0488 -0.39062,-0.0488 -0.73242,-0.30924 -0.0977,-0.0651 -0.16276,-0.0651 -0.14648,0 -0.29297,0.0977 -0.13021,0.0814 -0.29297,0.0814 -0.24414,0 -0.50456,-0.0651 -0.24414,-0.0651 -0.48828,-0.14648 -0.24414,-0.0814 -0.48828,-0.16276 -0.24414,-0.0814 -0.48828,-0.11393 -0.32552,-0.0488 -0.53711,-0.0651 -0.19531,-0.0163 -0.37435,-0.0488 -0.16276,-0.0488 -0.35807,-0.1302 -0.19531,-0.0977 -0.48828,-0.29297 -0.84636,-0.55339 -1.80664,-0.8138 -0.17904,-0.45573 -0.47201,-0.92774 -0.17903,-0.11393 -0.35807,-0.21159 -0.16276,-0.11393 -0.32552,-0.24414 -0.0977,-0.16276 -0.26042,-0.56966 -0.14648,-0.4069 -0.29297,-0.86263 -0.14648,-0.472 -0.26041,-0.87891 -0.0977,-0.4069 -0.0977,-0.58593 0,-0.37435 0.0814,-0.71615 0.0814,-0.3418 0.37435,-0.61849 0.0488,-0.0326 0.11393,-0.0814 0.0814,-0.0651 0.0814,-0.14648 0,-0.0814 -0.13021,-0.11394 -0.11393,-0.0488 -0.11393,-0.17903 0,-0.0163 0.0163,-0.0488 0.0163,-0.0488 0.0163,-0.0814 0.11394,-0.35807 0.3418,-0.68359 0.22787,-0.32552 0.52083,-0.61849 0.29297,-0.29297 0.60222,-0.53711 0.32552,-0.26042 0.61849,-0.47201 0.21159,-0.14648 0.35807,-0.37435 0.16276,-0.22786 0.3418,-0.32552 0.11393,0 0.22786,0 0.11393,-0.0163 0.22787,-0.0163 0.1302,0 0.22786,0.0163 0.11393,0 0.24414,0 0.17904,-0.0651 0.24414,-0.14648 0.0651,-0.0977 0.13021,-0.17904 0.0651,-0.0814 0.16276,-0.13021 0.11393,-0.0488 0.39063,-0.0488 0.17903,0 0.35807,0.0163 0.17904,0 0.35807,0 0.61849,0 1.2207,-0.0163 0.61849,-0.0163 1.23698,-0.0163 0.43946,0 0.86263,0.0163 0.43946,0 0.87891,0.0651 0.29297,0.0326 0.56966,0.13021 0.27669,0.0814 0.58594,0.0814 0.29297,0 0.4069,-0.11393 0.13021,-0.11394 0.19531,-0.24415 0.0814,-0.1302 0.17904,-0.24414 0.0977,-0.11393 0.3418,-0.11393 0.34179,0 0.69987,0.17904 0.37434,0.17903 0.69987,0.29297 l -0.0163,0.0651 q -0.0488,0.14649 -0.0488,0.32552 0,0.27669 0.0814,0.55339 0.0977,0.26041 0.19531,0.52083 0.0977,0.26042 0.17904,0.52083 0.0977,0.26042 0.0977,0.55339 0,0.17904 -0.0326,0.3418 -0.0326,0.14648 -0.0326,0.32552 0,0.32552 0.13021,0.472 0.13021,0.13021 0.13021,0.24414 0,0.13021 -0.11393,0.22787 -0.11394,0.0814 -0.11394,0.26041 0,0.42318 0.0488,0.84636 0.0488,0.4069 0.0488,0.83008 0,0.14648 -0.0163,0.43945 0,0.29297 -0.0651,0.58594 -0.0488,0.27669 -0.17904,0.48828 -0.11393,0.21159 -0.34179,0.21159 -0.24414,0 -0.47201,-0.17904 -0.22786,-0.19531 -0.37435,-0.37435 -0.21159,-0.22786 -0.30924,-0.48828 -0.0977,-0.27669 -0.16276,-0.56966 -0.0651,-0.29297 -0.14649,-0.56966 -0.0814,-0.29297 -0.24414,-0.53711 -0.26041,-0.37435 -0.50455,-0.7487 -0.22787,-0.39062 -0.45573,-0.78125 -0.17904,-0.29297 -0.30925,-0.4069 -0.13021,-0.11393 -0.27669,-0.14649 -0.14649,-0.0488 -0.3418,-0.0488 -0.17903,0 -0.45573,-0.0488 -0.29297,-0.0488 -0.58593,-0.14649 -0.2767,-0.0976 -0.56967,-0.17903 -0.27669,-0.0977 -0.56966,-0.16276 -0.29297,-0.0814 -0.58593,-0.0814 -0.47201,0 -0.96029,0.14648 -0.48828,0.14649 -0.97656,0.37435 -0.48828,0.21159 -0.96029,0.45573 -0.47201,0.22786 -0.91146,0.39062 -0.4069,0.86263 -0.4069,1.85547 0,0.71615 0.16276,1.17188 0.16276,0.45573 0.43945,0.78125 0.29297,0.30924 0.65105,0.55338 0.37434,0.24414 0.78125,0.52084 0.42317,0.27669 0.83007,0.37435 0.42318,0.0814 0.91146,0.0814 0.27669,0 0.53711,-0.0163 0.27669,-0.0163 0.55339,-0.0163 0.30924,0 0.58593,0.0814 0.2767,0.0814 0.53711,0.19532 0.2767,0.0976 0.55339,0.17903 0.27669,0.0814 0.56966,0.0814 0.27669,0 0.52083,-0.0325 0.26042,-0.0326 0.52084,-0.0326 0.22786,0 0.4069,0.11393 0.17903,0.0977 0.35807,0.24414 0.17904,0.13021 0.35807,0.24414 0.19532,0.11394 0.42318,0.13021 0.32552,0.16276 0.53711,0.29297 0.21159,0.13021 0.37435,0.27669 0.17904,0.14649 0.32552,0.35808 0.16276,0.21158 0.35807,0.52083 0.17904,0.30924 0.47201,0.53711 0.29297,0.22786 0.472,0.55338 0.0651,0.11394 0.0814,0.2767 0.0163,0.14648 0.0488,0.29296 0.0326,0.13021 0.0977,0.24415 0.0814,0.0976 0.24414,0.11393 0.0163,0.17903 0.0163,0.35807 0.0163,0.16276 0.0163,0.3418 z"
       style="font-size:33.33333206px"
       id="path880" />
    <path
       d="m 148.47995,298.77262 q 0,0.19532 -0.14649,0.3418 -0.14648,0.13021 -0.35807,0.22787 -0.19531,0.0976 -0.4069,0.17903 -0.21159,0.0814 -0.35808,0.14649 -0.1302,0.0651 -0.22786,0.14648 -0.0814,0.0814 -0.17904,0.17904 -0.0814,0.0814 -0.19531,0.14648 -0.0977,0.0651 -0.26042,0.11393 -0.21158,0.0488 -0.37434,0.0488 -0.16277,0 -0.30925,0.0326 -0.14648,0.0163 -0.26042,0.11394 -0.11393,0.0977 -0.22786,0.34179 -0.0977,0.21159 -0.14649,0.50456 -0.0325,0.27669 -0.11393,0.53711 -0.0814,0.26042 -0.24414,0.43945 -0.14648,0.17904 -0.472,0.17904 0,0.17904 0.11393,0.37435 0.13021,0.17904 0.26042,0.35807 0.14648,0.17904 0.26041,0.37435 0.11393,0.17904 0.11393,0.35807 0,0.19532 -0.0814,0.37435 -0.0814,0.17904 -0.0814,0.37435 l -0.0163,0.99284 q -0.0163,0.32552 0.11393,0.65104 0.14648,0.30925 0.14648,0.65104 0,0.19532 -0.0814,0.39063 -0.0814,0.17903 -0.0814,0.39062 0,0.6836 0.13021,1.36719 0.14649,0.66732 0.14649,1.38346 0,0.47201 -0.0814,1.02539 -0.0814,0.53711 -0.39063,0.91146 0.0163,0.22787 0.0977,0.39063 0.0814,0.14648 0.16276,0.32552 0.0814,0.16276 0.14648,0.37435 0.0814,0.19531 0.0814,0.52083 0,0.29297 -0.0651,0.78125 -0.0488,0.47201 -0.19531,0.92774 -0.14649,0.43945 -0.4069,0.78125 -0.24415,0.32552 -0.63477,0.32552 -0.0326,0 -0.0651,0 -0.0163,-0.0163 -0.0488,-0.0163 l -0.0163,0.0977 v 0.0488 q 0,0.22787 0.13021,0.40691 0.14648,0.17903 0.14648,0.4069 0,0.11393 -0.14648,0.29297 -0.13021,0.17903 -0.32552,0.37434 -0.19531,0.19532 -0.4069,0.37435 -0.19531,0.17904 -0.32552,0.30925 -0.14649,0.14648 -0.22787,0.29297 -0.0651,0.1302 -0.14648,0.24414 -0.0651,0.0976 -0.19531,0.17903 -0.11394,0.0651 -0.35808,0.11394 -0.42317,0.0814 -0.7487,0.24414 -0.32552,0.16276 -0.63476,0.34179 -0.30925,0.16276 -0.66732,0.2767 -0.35807,0.1302 -0.86263,0.1302 -0.27669,0 -0.53711,-0.0651 -0.26041,-0.0651 -0.52083,-0.14648 -0.26042,-0.0977 -0.53711,-0.16276 -0.26042,-0.0651 -0.52083,-0.0651 -0.21159,0 -0.42318,0.0326 -0.19531,0.0163 -0.4069,0.0163 -0.16276,0 -0.26042,-0.0163 -0.0814,-0.0163 -0.19531,-0.1302 -0.0814,-0.0977 -0.26042,-0.17904 -0.16276,-0.0814 -0.35807,-0.14649 -0.19531,-0.0814 -0.39063,-0.1302 -0.19531,-0.0651 -0.32552,-0.0977 -0.29297,-0.0814 -0.56966,-0.32552 -0.26041,-0.24414 -0.48828,-0.55339 -0.21159,-0.32552 -0.39062,-0.66731 -0.16276,-0.3418 -0.26042,-0.61849 -0.19531,-0.55339 -0.27669,-1.12305 -0.0814,-0.58594 -0.13021,-1.1556 -0.0488,-0.58594 -0.11393,-1.1556 -0.0488,-0.58594 -0.19532,-1.1556 -0.0651,-0.22786 -0.14648,-0.45573 -0.0651,-0.24414 -0.0651,-0.48828 0,-0.17903 0.0326,-0.34179 0.0325,-0.17904 0.0651,-0.35808 0.13021,-0.68359 0.19531,-1.38346 0.0814,-0.69987 0.0814,-1.39974 0,-0.92773 -0.0976,-1.83919 -0.0814,-0.91146 -0.0814,-1.8392 0,-0.17903 0,-0.34179 0,-0.16276 0.0163,-0.3418 0.0326,-0.32552 0.13021,-0.63477 0.11393,-0.30924 0.11393,-0.63476 0,-0.11393 -0.0326,-0.21159 -0.0325,-0.0977 -0.0651,-0.21159 -0.19531,-0.42317 -0.22787,-0.76497 -0.0326,-0.35807 -0.0651,-0.8138 -0.0651,-0.69987 -0.29297,-0.99284 -0.21159,-0.29297 -0.55339,-0.42318 -0.32552,-0.13021 -0.73242,-0.21159 -0.39062,-0.0976 -0.83008,-0.42317 -0.1302,-0.0814 -0.22786,-0.19532 -0.0814,-0.13021 -0.0814,-0.27669 0,-0.26042 0.27669,-0.47201 0.29297,-0.21158 0.6836,-0.34179 0.39062,-0.13021 0.78125,-0.19531 0.39062,-0.0814 0.60221,-0.0814 0.26042,0 0.48828,0.0651 0.24414,0.0651 0.50456,0.0651 0.52083,0 1.00911,-0.11393 0.48828,-0.13021 1.00912,-0.13021 0.21159,0 0.65104,0.0814 0.43945,0.0814 0.87891,0.24414 0.43945,0.14649 0.76497,0.37435 0.3418,0.21159 0.3418,0.48828 0,0.35808 -0.22787,0.6836 -0.21159,0.30924 -0.53711,0.60221 -0.32552,0.29297 -0.71614,0.60221 -0.37435,0.30925 -0.69987,0.66732 -0.32552,0.35808 -0.55339,0.8138 -0.21159,0.43946 -0.21159,0.99284 0,0.32552 0.0163,0.66732 0.0325,0.32552 0.0325,0.65104 0,0.65104 -0.13021,1.28581 -0.11393,0.63477 -0.11393,1.30208 0,0.53711 0.14648,0.97657 0.16277,0.42317 0.16277,0.66731 0,0.26042 -0.0651,0.48828 -0.0488,0.21159 -0.0488,0.45573 0,0.11394 0,0.21159 0.0163,0.0977 0.0163,0.21159 0,0.26042 -0.0814,0.42318 -0.0651,0.16276 -0.14649,0.29297 -0.0814,0.1302 -0.16276,0.24414 -0.0814,0.11393 -0.0814,0.26041 0.0814,-0.0651 0.16276,-0.11393 0.0814,-0.0488 0.17904,-0.0488 0.11393,0 0.17904,0.0814 0.0651,0.0814 0.0976,0.19532 0.0488,0.0976 0.0651,0.22786 0.0163,0.11393 0.0163,0.19531 0,0.42318 0.11394,0.83008 0.1302,0.4069 0.1302,0.83008 0,0.37435 -0.0651,0.76497 -0.0651,0.37435 -0.0651,0.76498 0,0.37435 0.0488,0.69987 0.0651,0.30924 0.43946,0.50455 0.0651,0.0326 0.14648,0.19532 0.0814,0.16276 0.16276,0.35807 0.0977,0.17904 0.19531,0.37435 0.0977,0.17903 0.19532,0.26041 0.19531,0.17904 0.42317,0.29297 0.22787,0.11394 0.45573,0.22787 0.24414,0.0976 0.45573,0.22786 0.22787,0.11394 0.4069,0.32552 0.14649,0.17904 0.37435,0.32552 0.22787,0.13021 0.43946,0.29297 0.22786,0.14649 0.39062,0.32552 0.16276,0.17904 0.16276,0.43946 0,-0.21159 0.0651,-0.3418 0.0163,0.0488 0.0163,0.14648 0,0.13021 -0.0651,0.19532 0.0488,-0.0488 0.11393,-0.16276 0.0651,-0.11394 0.13021,-0.22787 0.0651,-0.11393 0.13021,-0.19531 0.0651,-0.0814 0.14648,-0.0814 0.11393,0 0.21159,0.0814 0.0976,0.0814 0.0976,0.21159 0,0.16276 -0.0651,0.30924 -0.0651,0.14649 -0.0814,0.30925 0.16276,0 0.32552,-0.0651 0.17904,-0.0814 0.32552,-0.19531 0.14649,-0.11393 0.22787,-0.26042 0.0976,-0.16276 0.0976,-0.34179 0,-0.21159 -0.13021,-0.26042 -0.11393,-0.0651 -0.29296,-0.0651 -0.13021,0 -0.26042,0.0163 -0.11393,0.0163 -0.24414,0.0163 h -0.0488 q 0.0814,-0.24414 0.24414,-0.4069 0.16276,-0.16276 0.37435,-0.26042 0.21159,-0.11393 0.43945,-0.17904 0.22787,-0.0814 0.43946,-0.16276 0.34179,-0.1302 0.55338,-0.34179 0.21159,-0.22787 0.39063,-0.47201 0.17903,-0.24414 0.35807,-0.48828 0.17904,-0.26042 0.43945,-0.472 0.0163,-0.11394 0.0163,-0.21159 0,-0.0977 0,-0.19532 0,-0.34179 -0.0325,-0.66731 -0.0163,-0.3418 -0.0163,-0.6836 0,-0.37435 0.0977,-0.74869 0.11393,-0.37435 0.11393,-0.7487 0,-0.32552 -0.0814,-0.61849 -0.0814,-0.30925 -0.0814,-0.63477 0,-0.29297 0.0814,-0.56966 0.0814,-0.29297 0.0814,-0.58594 0,-0.472 -0.0814,-0.91145 -0.0814,-0.45573 -0.0814,-0.91146 0,-0.61849 0.0976,-1.20443 0.11394,-0.58594 0.11394,-1.18815 0,-0.78125 -0.14649,-1.52995 -0.13021,-0.7487 -0.13021,-1.52995 0,-0.11393 0,-0.29297 0.0163,-0.19531 0.0488,-0.37434 0.0488,-0.19532 0.13021,-0.32553 0.0814,-0.14648 0.24414,-0.14648 -0.14648,-0.0163 -0.37435,-0.19531 -0.21159,-0.19531 -0.42317,-0.42318 -0.19532,-0.24414 -0.35808,-0.472 -0.14648,-0.24415 -0.14648,-0.37435 -0.0814,0.0163 -0.16276,0.0326 -0.0651,0 -0.14649,0 -0.22786,0 -0.43945,-0.0814 -0.19531,-0.0814 -0.39062,-0.16276 -0.19532,-0.0977 -0.40691,-0.17904 -0.21158,-0.0814 -0.45572,-0.0814 h -0.0814 q -0.0651,-0.4069 -0.21158,-0.78125 -0.13021,-0.37435 -0.13021,-0.79752 0,-0.32553 0.16276,-0.52084 0.17903,-0.19531 0.43945,-0.29297 0.26042,-0.11393 0.55339,-0.14648 0.30924,-0.0326 0.55338,-0.0326 0.45573,0 0.89518,0.0488 0.43946,0.0488 0.89519,0.0488 0.34179,0 0.63476,-0.14648 0.29297,-0.16276 0.61849,-0.16276 0.17904,0 0.37435,0.0814 0.19531,0.0651 0.39063,0.16276 0.21158,0.0977 0.42317,0.19531 0.21159,0.0814 0.4069,0.11393 0.30925,0.0488 0.65105,0.0488 0.35807,0 0.69987,0.0326 0.34179,0.0326 0.65104,0.13021 0.30924,0.0814 0.56966,0.30925 0.13021,0.11393 0.22786,0.26041 0.11394,0.14649 0.11394,0.32552 z"
       style="font-size:33.33333206px"
       id="path882" />
    <path
       d="m 167.34388,314.03955 q 0,0.11393 0,0.30925 0.0163,0.17903 0,0.37434 0,0.17904 -0.0326,0.3418 -0.0163,0.14649 -0.0814,0.21159 -0.14649,0.14648 -0.30925,0.19531 -0.16276,0.0326 -0.3418,0.0488 -0.16276,0 -0.34179,0.0326 -0.16276,0.0163 -0.32552,0.11394 0.0326,0.16276 0.14648,0.21158 0.13021,0.0326 0.26042,0.0651 0.14648,0.0163 0.24414,0.0976 0.11393,0.0651 0.11393,0.2767 0,0.34179 -0.11393,0.56966 -0.0977,0.21159 -0.24414,0.39062 -0.14649,0.16276 -0.29297,0.3418 -0.14649,0.17904 -0.22787,0.45573 -0.0977,0.29297 -0.24414,0.42318 -0.14648,0.1302 -0.32552,0.21158 -0.16276,0.0651 -0.34179,0.14649 -0.17904,0.0814 -0.3418,0.29297 -0.17904,0.19531 -0.29297,0.19531 -0.0488,0 -0.11393,-0.0163 -0.0651,-0.0163 -0.16276,-0.0163 -0.0814,0 -0.16276,0.0651 -0.0651,0.0488 -0.0651,0.13021 0,0.0325 0.0325,0.0325 0.0326,0 0.0163,0.0163 -0.19531,0.17904 -0.69987,0.42318 -0.50456,0.22786 -1.1556,0.43945 -0.65104,0.19531 -1.36719,0.3418 -0.69987,0.1302 -1.33463,0.1302 -1.10677,0 -2.19727,-0.0651 -1.07421,-0.0488 -2.19726,-0.0488 h -2.16472 q -0.0488,0 -0.14648,0.0977 -0.0814,0.0976 -0.19531,0.0976 -0.17904,0 -0.47201,-0.0488 -0.27669,-0.0488 -0.55338,-0.16276 -0.2767,-0.11394 -0.48828,-0.2767 -0.19532,-0.17903 -0.19532,-0.4069 0,-0.0814 0.0163,-0.13021 0.0163,-0.0651 0.0326,-0.14648 0.14649,-0.45573 0.4069,-0.68359 0.26042,-0.24414 0.55339,-0.40691 0.30924,-0.17903 0.61849,-0.35807 0.32552,-0.17903 0.56966,-0.50456 0.26042,-0.32552 0.42318,-0.8789 0.16276,-0.55339 0.16276,-1.48112 0,-0.84636 -0.11394,-1.67643 -0.0977,-0.83008 -0.0977,-1.67644 0.0163,-1.5625 0.0651,-3.09244 0.0651,-1.52995 0.0814,-3.09245 l 0.0163,-2.55534 q 0,-0.4069 -0.0326,-0.94401 -0.0163,-0.53711 -0.16276,-1.02539 -0.13021,-0.50456 -0.43946,-0.84635 -0.29297,-0.35808 -0.84635,-0.40691 -0.27669,-0.0163 -0.63477,-0.14648 -0.35807,-0.13021 -0.68359,-0.3418 -0.30925,-0.22786 -0.53711,-0.50455 -0.22786,-0.2767 -0.22786,-0.60222 0,-0.27669 0.16276,-0.45573 0.16276,-0.19531 0.39062,-0.30924 0.22787,-0.13021 0.48828,-0.17904 0.27669,-0.0651 0.50456,-0.0651 0.52083,0 1.02539,0.11393 0.50456,0.0977 1.04167,0.0977 0.66731,0 1.33463,-0.0651 0.6836,-0.0651 1.35091,-0.14648 0.66732,-0.0977 1.33464,-0.16276 0.68359,-0.0651 1.36719,-0.0651 0.56966,0 1.13932,0.0488 0.56966,0.0326 1.13932,0.0651 0.0977,0.1302 0.3418,0.21158 0.24414,0.0814 0.52083,0.14649 0.29297,0.0651 0.56966,0.11393 0.2767,0.0326 0.42318,0.0651 0.39063,0.0814 0.66732,0.17904 0.29297,0.0814 0.48828,0.24414 0.21159,0.14649 0.35807,0.39063 0.16276,0.24414 0.29297,0.63476 0.0163,0.0488 0.14649,0.14649 0.14648,0.0976 0.32552,0.19531 0.17903,0.0977 0.34179,0.19531 0.16276,0.0977 0.22787,0.16276 0.21159,0.21159 0.42317,0.65104 0.22787,0.42318 0.40691,0.91146 0.17903,0.48828 0.29296,0.96029 0.11394,0.472 0.11394,0.76497 0,0.60222 -0.17904,1.20443 -0.16276,0.60221 -0.3418,1.17187 -0.11393,0.3418 -0.34179,0.65105 -0.21159,0.30924 -0.42318,0.63476 -0.21159,0.30925 -0.37435,0.63477 -0.14648,0.32552 -0.14648,0.68359 0,0.50456 0.21158,1.00912 0.21159,0.50455 0.48829,0.92773 0.11393,0.19531 0.26041,0.37435 0.16276,0.17904 0.30925,0.35807 0.16276,0.16276 0.29297,0.35807 0.1302,0.17904 0.22786,0.40691 0.21159,0.52083 0.27669,1.09049 0.0651,0.55339 0.0651,1.10677 z m -3.07617,-9.94466 q 0,-0.17904 -0.0488,-0.42318 -0.0488,-0.24414 -0.11393,-0.48828 -0.0651,-0.26041 -0.13021,-0.50456 -0.0651,-0.26041 -0.0977,-0.45572 -0.0488,-0.24415 -0.14648,-0.39063 -0.0977,-0.16276 -0.22787,-0.26042 -0.13021,-0.11393 -0.29297,-0.21158 -0.16276,-0.11394 -0.32552,-0.26042 -0.4069,-0.35807 -0.78125,-0.56966 -0.37435,-0.21159 -0.78125,-0.32552 -0.4069,-0.11394 -0.86263,-0.14649 -0.45573,-0.0488 -1.00911,-0.0488 -0.35808,0 -0.7487,0.0163 -0.37435,0.0163 -0.68359,0.0977 -0.0651,0.0326 -0.0814,0.0814 -0.0163,0.0488 -0.0814,0.0976 -0.0488,0.0488 -0.19532,0.0977 -0.14648,0.0325 -0.45573,0.0325 -0.472,0 -0.78125,0.13021 -0.29296,0.13021 -0.472,0.37435 -0.16276,0.22786 -0.22787,0.56966 -0.0651,0.32552 -0.0814,0.7487 -0.0163,0.53711 -0.0326,1.10677 0,0.56966 -0.0488,1.13932 -0.0488,0.55339 -0.17903,1.0905 -0.11393,0.53711 -0.37435,1.04166 0.91146,0.22787 1.85547,0.35808 0.94401,0.1302 1.85547,0.1302 0.63476,0 1.26953,-0.0488 0.65104,-0.0488 1.26953,-0.16276 0.22786,-0.0488 0.60221,-0.17904 0.39063,-0.13021 0.7487,-0.32552 0.37435,-0.19531 0.65104,-0.43946 0.29297,-0.24414 0.32552,-0.50455 0.0325,-0.19532 0.13021,-0.35808 0.11393,-0.16276 0.22787,-0.30924 0.1302,-0.16276 0.22786,-0.32552 0.0977,-0.16276 0.0977,-0.37435 z m 0.53711,10.8724 q 0,-0.42318 -0.11394,-0.84636 -0.0976,-0.42318 -0.16276,-0.84635 -0.0488,-0.39063 -0.0976,-0.61849 -0.0326,-0.22787 -0.13021,-0.39063 -0.0814,-0.17903 -0.24414,-0.34179 -0.16276,-0.16276 -0.47201,-0.42318 -0.0814,-0.35807 -0.17903,-0.42318 -0.0814,-0.0651 -0.17904,-0.0651 -0.0814,0 -0.17904,0.0163 -0.0814,0 -0.16276,0 l -0.22786,-0.45573 q -0.30925,-0.21158 -0.55339,-0.32552 -0.22786,-0.11393 -0.60221,-0.14648 -0.32552,-0.0326 -0.65104,-0.13021 -0.30925,-0.0977 -0.65104,-0.0977 -0.14649,0 -0.22787,0.11394 -0.0814,0.11393 -0.13021,0.11393 -0.0976,0 -0.22786,-0.0326 -0.13021,-0.0488 -0.27669,-0.0814 -0.14649,-0.0488 -0.30925,-0.0814 -0.14648,-0.0488 -0.27669,-0.0488 -0.73242,0 -1.43229,0.16276 -0.6836,0.14648 -1.38347,0.32552 -0.13021,0.3418 -0.26041,0.7487 -0.11394,0.4069 -0.21159,0.83008 -0.0977,0.42317 -0.16276,0.84635 -0.0651,0.4069 -0.0651,0.76497 0,0.17904 0.0326,0.29297 0.0326,0.0977 0.0814,0.17904 0.0488,0.0814 0.0814,0.16276 0.0325,0.0814 0.0325,0.19531 0,0.65104 -0.14649,1.28581 -0.1302,0.61849 -0.1302,1.26953 0,0.42318 0.11393,0.8138 0.11393,0.39063 0.39062,0.71615 0.32552,0 0.61849,0.13021 0.29297,0.11393 0.61849,0.11393 0.22787,0 0.43945,-0.11393 0.22787,-0.11394 0.35808,-0.11394 0.13021,0 0.19531,0.11394 0.0814,0.11393 0.26042,0.11393 h 0.0651 q 0.0488,-0.0814 0.17904,-0.13021 0.13021,-0.0651 0.29297,-0.0814 0.17903,-0.0326 0.37434,-0.0326 0.19532,-0.0163 0.37435,-0.0163 0.3418,0 0.52084,0.0163 0.19531,0.0163 0.43945,0.0163 0.68359,-0.14648 1.30208,-0.35807 0.52084,-0.17904 1.05795,-0.45573 0.55338,-0.27669 0.86263,-0.65104 0.16276,-0.16276 0.35807,-0.4069 0.21159,-0.24414 0.37435,-0.50456 0.17903,-0.27669 0.29297,-0.55338 0.13021,-0.29297 0.13021,-0.56966 z"
       style="font-size:33.33333206px"
       id="path884" />
    <path
       d="m 190.66745,319.60596 q -0.0977,0.34179 -0.3418,0.55338 -0.22787,0.19531 -0.53711,0.30925 -0.30925,0.11393 -0.66732,0.16276 -0.3418,0.0326 -0.65104,0.0326 -0.47201,0 -0.92773,-0.0488 -0.45573,-0.0651 -0.91146,-0.14648 -0.24414,-0.0326 -0.61849,-0.0488 -0.35808,-0.0163 -0.71615,-0.0814 -0.35807,-0.0651 -0.61849,-0.22787 -0.24414,-0.17903 -0.24414,-0.53711 0,-0.4069 0.16276,-0.58593 0.16276,-0.19531 0.4069,-0.26042 0.24414,-0.0814 0.53711,-0.0977 0.29297,-0.0163 0.53711,-0.0976 0.24414,-0.0977 0.4069,-0.29297 0.16276,-0.21159 0.16276,-0.66732 0,-0.29297 -0.0651,-0.58594 -0.0488,-0.29296 -0.11393,-0.56966 -0.0651,-0.29297 -0.13021,-0.56966 -0.0488,-0.29297 -0.0488,-0.58594 0,-0.19531 0.11393,-0.4069 0.13021,-0.22786 0.13021,-0.50455 0,-0.50456 -0.0814,-0.94401 -0.0814,-0.43946 -0.26042,-0.91146 -0.11393,-0.30925 -0.11393,-0.56966 0,-0.24414 0.0977,-0.47201 0.11393,-0.22786 0.11393,-0.48828 0,-0.3418 -0.11393,-0.65104 -0.11393,-0.32552 -0.11393,-0.66732 0,-0.45573 0.0977,-0.89518 0.0977,-0.43946 0.0977,-0.89518 0,-0.30925 -0.0651,-0.6836 -0.0651,-0.37435 -0.17903,-0.7487 -0.0977,-0.39062 -0.21159,-0.74869 -0.11393,-0.37435 -0.21159,-0.66732 -0.32552,0.14648 -0.53711,0.39062 -0.19531,0.22787 -0.32552,0.52084 -0.11393,0.29297 -0.19531,0.61849 -0.0651,0.32552 -0.11393,0.63476 -0.11394,0.63477 -0.35808,1.23698 -0.22786,0.60221 -0.32552,1.23698 -0.13021,0.78125 -0.16276,1.54622 -0.0163,0.76498 -0.0814,1.52995 -0.0488,0.7487 -0.17904,1.4974 -0.1302,0.7487 -0.472,1.49739 -0.13021,0.2767 -0.16276,0.52084 -0.0325,0.24414 -0.0325,0.50455 0,0.22787 0.0163,0.45573 0.0163,0.22787 0.0163,0.47201 0,0.50456 -0.11393,0.76497 -0.0977,0.24414 -0.22787,0.4069 -0.13021,0.16276 -0.26041,0.32552 -0.13021,0.14649 -0.19532,0.45573 -0.0488,0.26042 -0.27669,0.4069 -0.21159,0.13021 -0.50456,0.22787 -0.29297,0.0814 -0.58593,0.14648 -0.29297,0.0488 -0.48829,0.14649 -0.17903,-0.37435 -0.43945,-0.69987 -0.24414,-0.32552 -0.45573,-0.6836 -0.22786,-0.37434 -0.29297,-0.79752 -0.0488,-0.42318 -0.19531,-0.84636 -0.0651,-0.19531 -0.16276,-0.34179 -0.0814,-0.14649 -0.16276,-0.29297 -0.0651,-0.16276 -0.13021,-0.32552 -0.0488,-0.16276 -0.0488,-0.39063 0,-0.17903 0.0163,-0.32552 0.0163,-0.16276 0.0163,-0.3418 0,-0.39062 -0.13021,-0.83007 -0.26042,-0.83008 -0.45573,-1.62761 -0.19531,-0.79752 -0.27669,-1.67643 -0.0814,-0.79753 -0.13021,-1.61133 -0.0488,-0.8138 -0.3418,-1.57877 -0.14648,-0.37435 -0.3418,-0.71615 -0.19531,-0.3418 -0.32552,-0.71615 -0.0326,-0.0814 -0.0651,-0.26041 -0.0163,-0.17904 -0.0651,-0.37435 -0.0325,-0.19531 -0.0976,-0.3418 -0.0488,-0.16276 -0.11393,-0.17903 -0.0814,0.0651 -0.11394,0.19531 -0.11393,0.29297 -0.17903,0.4069 -0.0651,0.11393 -0.13021,0.19531 -0.0488,0.0651 -0.13021,0.14649 -0.0814,0.0814 -0.22786,0.29296 -0.13021,0.17904 -0.13021,0.39063 0,0.37435 0.16276,0.73242 0.16276,0.3418 0.16276,0.71615 0,0.17903 -0.0651,0.37435 -0.0651,0.17903 -0.0651,0.35807 0,0.472 0.13021,0.94401 0.14648,0.45573 0.14648,0.92773 0,0.37435 -0.11393,0.73243 -0.11393,0.34179 -0.11393,0.71614 0,0.39063 0.0814,0.78125 0.0976,0.37435 0.0976,0.76498 0,0.32552 -0.0651,0.63476 -0.0651,0.29297 -0.14648,0.60221 -0.0651,0.30925 -0.13021,0.61849 -0.0651,0.30925 -0.0651,0.63477 0,0.66732 0.26042,0.94401 0.26042,0.27669 0.61849,0.42318 0.37435,0.14648 0.76497,0.29297 0.39063,0.1302 0.66732,0.50455 -0.14648,0.24414 -0.22786,0.53711 -0.0651,0.2767 -0.21159,0.52084 -0.13021,0.21158 -0.27669,0.29296 -0.13021,0.0814 -0.2767,0.11394 -0.13021,0.0163 -0.29297,0.0488 -0.16276,0.0163 -0.34179,0.11393 -0.17904,0.0977 -0.26042,0.19531 -0.0651,0.0814 -0.13021,0.14648 -0.0651,0.0814 -0.19531,0.11394 -0.11393,0.0488 -0.37435,0.0488 -0.27669,0 -0.55338,-0.0651 -0.2767,-0.0651 -0.55339,-0.0651 -0.29297,0 -0.56966,0.0814 -0.27669,0.0976 -0.56966,0.0976 -0.3418,0 -0.6836,-0.13021 -0.34179,-0.11393 -0.61849,-0.32552 -0.26041,-0.22786 -0.43945,-0.52083 -0.16276,-0.30924 -0.16276,-0.68359 0,-0.55339 0.22787,-0.84636 0.22786,-0.29297 0.56966,-0.45573 0.35807,-0.17903 0.76497,-0.29297 0.4069,-0.1302 0.76497,-0.32552 0.0814,-0.27669 0.0977,-0.55338 0.0163,-0.29297 0.0163,-0.58594 0,-0.472 -0.0488,-0.94401 -0.0326,-0.472 -0.0326,-0.94401 0,-0.30924 0.0651,-0.60221 0.0651,-0.30925 0.0651,-0.63477 0,-0.16276 -0.0488,-0.30924 -0.22787,-0.60222 -0.29297,-1.1556 -0.0488,-0.55339 -0.0488,-1.20443 0,-0.27669 0.0651,-0.53711 0.0814,-0.26042 0.16276,-0.52083 0.0977,-0.26042 0.16276,-0.52084 0.0814,-0.26041 0.0814,-0.5371 0,-0.50456 -0.0651,-0.99284 -0.0651,-0.48828 -0.0651,-0.99284 0,-0.32552 0.0651,-0.63477 0.0651,-0.30924 0.0651,-0.63476 0,-0.32552 -0.1302,-0.61849 -0.13021,-0.30925 -0.13021,-0.63477 0,-0.22786 0.11393,-0.4069 0.13021,-0.17904 0.13021,-0.4069 0,-0.13021 -0.13021,-0.26042 -0.13021,-0.13021 -0.13021,-0.42317 0,-0.24414 0.0163,-0.48829 0.0325,-0.24414 0.0325,-0.48828 0,-0.48828 -0.16276,-0.76497 -0.16276,-0.29297 -0.4069,-0.43945 -0.22787,-0.16276 -0.50456,-0.22787 -0.27669,-0.0651 -0.52083,-0.13021 -0.22787,-0.0814 -0.39063,-0.17903 -0.16276,-0.0977 -0.16276,-0.32552 0,-0.21159 0.22787,-0.42318 0.24414,-0.22787 0.60221,-0.43945 0.35807,-0.21159 0.78125,-0.40691 0.42318,-0.21158 0.78125,-0.37434 0.35807,-0.16276 0.60221,-0.2767 0.26042,-0.11393 0.29297,-0.16276 0.0651,0.11394 0.17904,0.16276 0.11393,0.0326 0.24414,0.0488 0.14648,0 0.27669,0 0.14649,0 0.24414,0.0326 0.16276,0.0488 0.24414,0.13021 0.0814,0.0814 0.14649,0.16276 0.0814,0.0814 0.21159,0.16276 0.13021,0.0814 0.39062,0.14649 0.61849,0.16276 0.92774,0.472 0.32552,0.29297 0.32552,0.97656 0,0.17904 -0.0326,0.35808 -0.0326,0.16276 -0.0326,0.34179 l 0.4069,1.1556 q 0.0488,0.17904 0.0977,0.37435 0.0651,0.17904 0.0977,0.35808 0.17903,0.14648 0.27669,0.43945 0.0977,0.29297 0.13021,0.63476 0.0488,0.32552 0.0651,0.65105 0.0163,0.32552 0.0488,0.55338 0.0488,0.37435 0.16276,0.73242 0.13021,0.3418 0.13021,0.71615 0,0.22786 -0.0814,0.45573 -0.0651,0.22786 -0.0651,0.472 0,0.42318 0.11394,0.83008 0.11393,0.4069 0.26041,0.8138 0.14649,0.39063 0.26042,0.79753 0.13021,0.4069 0.14648,0.83008 0,0.19531 0.0326,0.60221 0.0488,0.4069 0.11393,0.91146 0.0814,0.48828 0.17904,1.02539 0.11393,0.52083 0.26041,0.96029 0.16276,0.43945 0.35807,0.71614 0.21159,0.27669 0.45573,0.27669 0.29297,0 0.37435,-0.16276 0.0814,-0.17903 0.0977,-0.4069 0.0163,-0.22786 0.0488,-0.45573 0.0325,-0.22786 0.22786,-0.32552 0.16276,-0.0976 0.27669,-0.37435 0.13021,-0.29296 0.21159,-0.63476 0.0814,-0.35807 0.11394,-0.6836 0.0488,-0.34179 0.0651,-0.52083 0.0488,-0.84635 0.0488,-1.74153 0,-0.89519 0.0326,-1.79037 0.0325,-0.91146 0.14648,-1.77409 0.11394,-0.8789 0.37435,-1.69271 0.0488,-0.1302 0.13021,-0.24414 0.0814,-0.11393 0.16276,-0.22786 0.0814,-0.13021 0.13021,-0.24414 0.0651,-0.13021 0.0651,-0.27669 0,-0.0977 -0.0488,-0.16276 -0.0488,-0.0814 -0.11394,-0.13021 -0.0488,-0.0488 -0.0977,-0.0977 -0.0488,-0.0488 -0.0488,-0.11393 0,-0.0814 0.0488,-0.11393 0.0488,-0.0488 0.0977,-0.0977 0.22787,-0.26042 0.2767,-0.71615 0.0651,-0.472 0.0814,-0.99283 0.0163,-0.53711 0.0325,-1.04167 0.0326,-0.52083 0.21159,-0.87891 0.19531,0.0814 0.37435,0.0814 0.22786,0 0.43945,-0.0814 0.21159,-0.0976 0.4069,-0.19531 0.21159,-0.0977 0.42318,-0.17904 0.22786,-0.0976 0.472,-0.0976 0.0814,0 0.17904,0.0163 0.0977,0 0.17904,0 0.32552,0 0.58593,-0.14648 0.26042,-0.14649 0.53711,-0.14649 0.11393,0 0.16276,0.0488 0.0488,0.0488 0.0651,0.0977 0.0325,0.0488 0.0651,0.0977 0.0325,0.0488 0.0977,0.0488 0.27669,0 0.55338,-0.0651 0.29297,-0.0651 0.56966,-0.0651 0.17904,0 0.29297,0.0488 0.11394,0.0326 0.22787,0.19532 0.13021,0.19531 0.35807,0.26041 0.22786,0.0488 0.45573,0.11393 0.22786,0.0488 0.39062,0.16276 0.17904,0.0977 0.17904,0.37435 0,0.56967 -0.27669,0.78125 -0.27669,0.21159 -0.65104,0.29297 -0.35808,0.0651 -0.71615,0.13021 -0.3418,0.0488 -0.48828,0.30925 -0.16276,0.27669 -0.19531,0.60221 -0.0326,0.32552 -0.16276,0.63476 -0.0488,0.13021 -0.0814,0.24415 -0.0326,0.11393 -0.0326,0.24414 0,0.26041 0.0651,0.50455 0.0651,0.24414 0.14648,0.48828 0.0977,0.22787 0.17904,0.47201 0.0814,0.24414 0.11393,0.48828 0.0977,0.87891 0.0977,1.75781 0,0.52084 -0.0651,1.04167 -0.0488,0.52083 -0.11393,1.04167 -0.0651,0.52083 -0.13021,1.04166 -0.0488,0.50456 -0.0488,1.00912 0,0.39062 -0.24414,0.63476 l -0.0163,0.37435 q 0,0.47201 0.0651,0.94401 0.0651,0.47201 0.14649,0.94401 0.0814,0.45573 0.14648,0.92774 0.0651,0.472 0.0651,0.94401 0,0.63476 -0.17904,1.25325 -0.17904,0.61849 -0.17904,1.25326 0,0.472 0.19531,0.7487 0.19532,0.27669 0.71615,0.27669 0.22787,0 0.45573,-0.0163 0.24414,-0.0326 0.47201,-0.0326 0.22786,0 0.472,0.0488 0.24414,0.0488 0.42318,0.22786 0,0.0651 0.0163,0.19532 0.0326,0.1302 0.0326,0.26041 0.0163,0.11393 0,0.19531 -0.0163,0.0814 -0.0814,0.0326 z m -15.03907,-16.04818 q 0,-0.30924 -0.0976,-0.61849 -0.0814,-0.32552 -0.37435,-0.48828 0,0.14648 -0.0163,0.30924 0,0.14649 0,0.29297 0,0.26042 0.0651,0.52084 0.0814,0.24414 0.4069,0.26041 0.0163,-0.0651 0.0163,-0.13021 0,-0.0651 0,-0.14648 z m 12.69532,15.08789 q 0,-0.0977 -0.13021,-0.16276 -0.13021,-0.0651 -0.21159,-0.0651 -0.0488,0 -0.14649,0.0163 -0.0814,0.0163 -0.17903,0.0488 -0.0814,0.0326 -0.14649,0.0814 -0.0651,0.0488 -0.0651,0.11393 0,0.0977 0.14648,0.13021 0.16276,0.0163 0.24414,0.0163 0.0814,0 0.2767,-0.0325 0.21159,-0.0326 0.21159,-0.14649 z m -7.14519,-2.27865 q -0.0651,0 -0.1302,0 -0.0488,-0.0163 -0.11394,-0.0163 -0.27669,0 -0.48828,0.11393 -0.19531,0.0977 -0.19531,0.42318 v 0.17903 q 0.0651,0 0.11393,0.0163 0.0651,0 0.13021,0 0.27669,0 0.48828,-0.0977 0.21159,-0.11393 0.21159,-0.43945 z"
       style="font-size:33.33333206px"
       id="path886" />
    <path
       d="m 207.80611,299.22835 q 0,0.17904 -0.1302,0.32552 -0.11394,0.14649 -0.29297,0.29297 -0.16276,0.13021 -0.3418,0.24414 -0.17904,0.11394 -0.29297,0.21159 -0.27669,0.22787 -0.66732,0.22787 -0.26041,0 -0.50455,-0.0651 -0.22787,-0.0651 -0.48829,-0.0651 -0.11393,0 -0.17903,0.0488 -0.21159,0.13021 -0.4069,0.14648 -0.19532,0.0163 -0.42318,0.0163 -0.13021,0 -0.35807,-0.11394 -0.21159,-0.1302 -0.22787,-0.26041 l 0.11394,-0.11393 q -0.17904,0.0651 -0.24415,0.14648 -0.0651,0.0814 -0.0977,0.17904 -0.0163,0.0977 -0.0325,0.21159 -0.0163,0.11393 -0.0814,0.22786 -0.0814,0.16276 -0.26042,0.19531 -0.16276,0.0326 -0.3418,0.14649 -0.16276,0.11393 -0.29297,0.42317 -0.1302,0.29297 -0.1302,0.99284 0,0.30925 0.0326,0.60222 0.0325,0.29296 0.0325,0.58593 0,0.58594 -0.0977,1.17188 -0.0977,0.56966 -0.0977,1.17187 0,0.35808 -0.11394,0.6836 -0.0976,0.32552 -0.0976,0.68359 0,0.50456 0.42318,0.69987 -0.11394,0.0488 -0.17904,0.26042 -0.0651,0.19531 -0.11393,0.45573 -0.0326,0.24414 -0.0488,0.48828 0,0.22786 0,0.32552 0,0.0651 0,0.17903 0,0.11394 0.0163,0.24415 0.0163,0.11393 0.0326,0.22786 0.0163,0.0977 0.0651,0.14648 0.13021,0.13021 0.13021,0.32553 0,0.19531 -0.0651,0.39062 -0.0651,0.17904 -0.0651,0.37435 0,0.79753 0.0977,1.59505 0.11393,0.78125 0.11393,1.57878 0,0.52083 -0.11393,1.04166 -0.0977,0.52084 -0.0977,1.04167 0,0.47201 0.16276,0.7487 0.16276,0.27669 0.43945,0.42318 0.2767,0.14648 0.63477,0.19531 0.35807,0.0488 0.7487,0.0488 0.61849,0 1.2207,-0.0977 0.61849,-0.11393 1.2207,-0.11393 0.60222,0 0.92774,0.37435 0.3418,0.37435 0.3418,0.96028 0,0.43946 -0.14649,0.83008 -0.13021,0.37435 -0.39062,0.65104 -0.24414,0.29297 -0.60222,0.45573 -0.35807,0.16276 -0.8138,0.16276 -0.32552,0 -0.73242,-0.0814 -0.65104,-0.13021 -1.30208,-0.19531 -0.65105,-0.0488 -1.33464,-0.0488 -0.56966,0 -1.13932,0.0163 -0.56966,0.0326 -1.13933,0.0326 -0.68359,0 -1.35091,-0.0163 -0.66731,-0.0163 -1.35091,-0.0163 -0.24414,0 -0.472,-0.0814 -0.22787,-0.0814 -0.45573,-0.0814 -0.16276,0 -0.37435,0.0488 -0.21159,0.0651 -0.45573,0.13021 -0.22787,0.0651 -0.48828,0.11394 -0.26042,0.0651 -0.52084,0.0651 -0.60221,0 -1.04166,-0.27669 -0.43946,-0.26042 -0.43946,-0.92774 0,-0.21159 0.0488,-0.4069 0.0163,-0.14648 0.14649,-0.4069 0.14648,-0.26042 0.32552,-0.50456 0.19531,-0.26041 0.39062,-0.43945 0.21159,-0.17904 0.37435,-0.17904 0.13021,0 0.24414,0.0651 0.13021,0.0651 0.2767,0.16276 0.16276,0.0814 0.37434,0.14648 0.21159,0.0651 0.50456,0.0651 0.58594,0 1.2207,-0.11394 0.63477,-0.11393 1.1556,-0.39062 0.53711,-0.29297 0.87891,-0.7487 0.3418,-0.472 0.3418,-1.17187 0,-0.26042 -0.0326,-0.50456 -0.0326,-0.26042 -0.0651,-0.52083 -0.0977,-0.84636 -0.11393,-1.70899 -0.0163,-0.86263 -0.0163,-1.72526 0,-0.56966 0.14649,-1.09049 0.14648,-0.53711 0.14648,-1.10677 0,-0.32552 -0.11393,-0.61849 -0.11393,-0.29297 -0.11393,-0.60222 0,-0.14648 0.0325,-0.29297 0.0488,-0.14648 0.0488,-0.30924 0,-0.35807 -0.0814,-0.68359 -0.0651,-0.3418 -0.0651,-0.6836 0,-0.56966 0.11393,-1.13932 0.13021,-0.56966 0.13021,-1.13932 0,-0.3418 -0.0814,-0.6836 -0.0814,-0.34179 -0.17903,-0.66732 -0.0814,-0.32552 -0.16276,-0.66731 -0.0814,-0.3418 -0.0814,-0.6836 0,-0.21159 0.0488,-0.43945 -0.0977,-0.22786 -0.27669,-0.35807 -0.17904,-0.13021 -0.39062,-0.24414 -0.21159,-0.11394 -0.42318,-0.22787 -0.19531,-0.11393 -0.30925,-0.32552 -0.1302,0.0163 -0.16276,0.13021 -0.0326,0.0977 -0.0488,0.22786 -0.0163,0.11394 -0.0651,0.22787 -0.0325,0.0977 -0.17904,0.11393 -0.45572,0.0488 -0.92773,0.0814 -0.45573,0.0326 -0.91146,0.0326 -0.26041,0 -0.65104,-0.0326 -0.37435,-0.0326 -0.73242,-0.14648 -0.3418,-0.11394 -0.58594,-0.32552 -0.24414,-0.21159 -0.24414,-0.58594 0,-0.22787 0.0977,-0.47201 0.11393,-0.26041 0.26041,-0.50455 0.16276,-0.24414 0.3418,-0.45573 0.19531,-0.22787 0.3418,-0.39063 0.11393,-0.11393 0.34179,-0.19531 0.22787,-0.0814 0.50456,-0.11393 0.29297,-0.0326 0.61849,-0.0488 0.32552,-0.0163 0.65104,-0.0163 0.4069,0 0.7487,0.0163 0.35807,0 0.58594,0 0.4069,0 0.99284,-0.0163 0.60221,-0.0326 1.13932,-0.0814 0.55338,-0.0488 0.94401,-0.0976 0.4069,-0.0651 0.42318,-0.13021 0.0977,0.0488 0.22786,0.16276 0.14649,0.0977 0.29297,0.19531 0.16276,0.0977 0.30924,0.17904 0.14649,0.0814 0.22787,0.0814 0.0977,0 0.14648,-0.0651 0.0651,-0.0814 0.0977,-0.17903 0.0488,-0.0977 0.0651,-0.19532 0.0163,-0.11393 0.0163,-0.17903 h 0.11393 q 0.35808,0 0.47201,0.21159 0.13021,0.21159 0.13021,0.50455 0,0.0651 -0.0163,0.11394 0,0.0488 0,0.0977 0.16276,-0.0326 0.22786,-0.14648 0.0814,-0.13021 0.13021,-0.26042 0.0488,-0.13021 0.11394,-0.22786 0.0814,-0.0977 0.26041,-0.0977 0.0651,0 0.19531,0.0326 h 0.11394 q 0.35807,0.29297 0.55338,0.45573 0.21159,0.16276 0.32552,0.24414 0.11393,0.0651 0.14649,0.0814 0.0325,0.0163 0.0488,0.0163 0.0326,0 0.11393,0.0163 0.0976,0.0163 0.0976,0 0,-0.0651 -0.0814,-0.11393 -0.0651,-0.0651 -0.16276,-0.13021 -0.0814,-0.0651 -0.16276,-0.14648 -0.0651,-0.0814 -0.0651,-0.17904 0.19531,0 0.30924,-0.0488 0.11394,-0.0651 0.19532,-0.13021 0.0814,-0.0814 0.16276,-0.14649 0.0976,-0.0651 0.24414,-0.0651 0.21159,0 0.32552,0.0651 0.11393,0.0651 0.19531,0.14649 0.0814,0.0651 0.14648,0.13021 0.0651,0.0651 0.17904,0.0651 0.0814,0 0.13021,-0.0163 0.0651,-0.0163 0.14648,-0.0163 0.11394,0 0.14649,0.0976 0.0326,0.0977 0.0488,0.17904 0.0488,0.24414 0.0814,0.37435 0.0326,0.13021 0.0814,0.22786 0.0488,0.0977 0.11393,0.21159 0.0814,0.0977 0.21159,0.29297 0.0976,0.13021 0.0976,0.27669 z m -8.15429,1.07422 q 0.0977,-0.13021 -0.0488,-0.29297 -0.14649,-0.16276 -0.32552,-0.16276 -0.19531,0 -0.26042,0.19532 -0.0488,0.17903 -0.0488,0.32552 0.0326,0.11393 0.0977,0.17903 0.0488,0.0651 0.11393,0.11394 0.0651,0.0488 0.14649,0.0488 0.1302,0 0.19531,-0.0488 0.0651,-0.0651 0.0976,-0.14649 0.0326,-0.0814 0.0326,-0.21159 z"
       style="font-size:33.33333206px"
       id="path888" />
    <path
       d="m 227.5164,303.78565 q 0,0.29296 -0.0163,0.60221 0,0.29297 -0.0651,0.56966 -0.0326,0.14648 -0.14648,0.32552 -0.11393,0.16276 -0.27669,0.32552 -0.14649,0.14649 -0.32553,0.26042 -0.17903,0.0976 -0.32552,0.0976 -0.24414,0 -0.30924,-0.19531 -0.0651,-0.19531 -0.0977,-0.42317 -0.0163,-0.22787 -0.0977,-0.42318 -0.0651,-0.19531 -0.32552,-0.19531 -0.0814,0 -0.14649,0.0325 -0.0488,0.0326 -0.13021,0.0326 -0.0325,0 -0.0651,-0.19531 -0.0325,-0.19532 -0.0814,-0.47201 -0.0488,-0.27669 -0.11393,-0.55338 -0.0651,-0.29297 -0.14649,-0.48828 -0.14648,-0.30925 -0.30924,-0.63477 -0.14649,-0.3418 -0.14649,-0.71615 0,-0.26041 0.0977,-0.43945 0.0977,-0.19531 0.21159,-0.35807 0.11393,-0.16276 0.21159,-0.32552 0.0977,-0.16276 0.0977,-0.39063 0,-0.32552 -0.21159,-0.56966 -0.21158,-0.24414 -0.53711,-0.39062 -0.30924,-0.16276 -0.66731,-0.22787 -0.3418,-0.0814 -0.60222,-0.0814 -0.43945,0 -0.86263,0.11393 -0.4069,0.0977 -0.83008,0.24414 -0.4069,0.14649 -0.8138,0.30925 -0.4069,0.16276 -0.8138,0.27669 0.0814,0.22787 0.0977,0.47201 0.0325,0.24414 0.0325,0.48828 0,0.55338 -0.0488,1.10677 -0.0488,0.53711 -0.0488,1.09049 0,0.60222 0.0651,1.20443 0.0651,0.58594 0.13021,1.17188 0.0814,0.58593 0.14648,1.18815 0.0651,0.58593 0.0651,1.17187 0,0.71615 -0.24414,1.39974 -0.0488,0.13021 -0.0488,0.21159 0,0.17904 0.0814,0.35807 0.0814,0.16276 0.17903,0.35808 0.11393,0.17903 0.19531,0.37434 0.0814,0.19532 0.0814,0.40691 0,0.19531 -0.0651,0.37434 -0.0651,0.17904 -0.0651,0.35808 0,0.26041 0.0651,0.50455 0.0814,0.24414 0.0814,0.50456 0,0.14649 -0.0814,0.17904 -0.0651,0.0326 -0.16276,0.0326 -0.0977,0 -0.17904,0.0163 -0.0651,0 -0.0651,0.0814 0,0.24414 0.0977,0.472 0.11393,0.21159 0.11393,0.45573 0,0.21159 -0.0977,0.4069 -0.0814,0.17904 -0.0814,0.39063 0,0.21159 0.17904,0.37435 0.19531,0.16276 0.27669,0.39062 0.0814,0.27669 0.13021,0.63477 0.0651,0.35807 0.22786,0.68359 0.17904,0.32552 0.53711,0.55339 0.35808,0.21158 1.05795,0.21158 h 0.472 q 0.19531,0 0.47201,0.0326 0.29296,0.0326 0.55338,0.1302 0.27669,0.0814 0.45573,0.26042 0.19531,0.16276 0.19531,0.42318 0,0.26041 -0.0976,0.50456 -0.0977,0.24414 -0.0977,0.50455 0,0.0814 0.0326,0.24414 -0.24414,0 -0.43945,0.11394 -0.17904,0.0976 -0.26042,0.34179 -0.32552,-0.0651 -0.66732,-0.0814 -0.32552,-0.0326 -0.65104,-0.0326 -0.83007,0 -1.64388,0.13021 -0.8138,0.11393 -1.64388,0.26041 -0.8138,0.13021 -1.64388,0.26042 -0.8138,0.11393 -1.64388,0.11393 -0.27669,0 -0.68359,-0.0163 -0.4069,-0.0163 -0.78125,-0.11393 -0.37435,-0.0977 -0.65104,-0.29297 -0.26042,-0.21159 -0.26042,-0.60222 0,-0.45573 0.0814,-0.66731 0.0977,-0.22787 0.22787,-0.30925 0.1302,-0.0977 0.29296,-0.11393 0.17904,-0.0163 0.3418,-0.0651 0.0488,-0.0488 0.0488,-0.0976 0,-0.0814 -0.0814,-0.13021 -0.0651,-0.0651 -0.14649,-0.0977 0.2767,-0.24414 0.61849,-0.34179 0.35808,-0.0977 0.71615,-0.13021 0.37435,-0.0326 0.7487,-0.0651 0.37435,-0.0326 0.69987,-0.16276 0.13021,-0.0488 0.27669,-0.27669 0.14648,-0.22786 0.26042,-0.50456 0.13021,-0.27669 0.19531,-0.55338 0.0814,-0.27669 0.0814,-0.42318 v -0.0326 q -0.11393,-0.78125 -0.17904,-1.52995 -0.0651,-0.7487 -0.0651,-1.52995 0,-0.0651 0.0488,-0.21158 0.0488,-0.16277 0.13021,-0.32553 0.0651,-0.17903 0.17903,-0.4069 -0.13021,-0.21159 -0.22786,-0.39062 -0.0814,-0.16276 -0.14649,-0.30925 -0.0651,-0.14648 -0.0651,-0.22786 0,-0.19531 0.0651,-0.37435 0.0651,-0.17904 0.0977,-0.35807 0.0977,-0.6836 0.0977,-1.38347 0,-0.29297 -0.0488,-0.56966 -0.0325,-0.29297 -0.0977,-0.56966 -0.21159,-0.99284 -0.21159,-2.05078 0,-1.23698 0.16276,-2.45768 0.16276,-1.22071 0.16276,-2.45768 0,-0.42318 -0.14648,-0.65105 -0.14649,-0.24414 -0.56966,-0.37435 -0.56966,-0.16276 -1.18815,-0.26041 -0.60222,-0.0977 -1.20443,-0.0977 -0.45573,0 -0.96029,0.11393 -0.48828,0.0977 -0.91146,0.3418 -0.4069,0.22787 -0.68359,0.61849 -0.26042,0.37435 -0.26042,0.91146 0,0.27669 0.0326,0.53711 0.0326,0.26041 0.0326,0.53711 0,0.26041 -0.11393,0.45573 -0.0977,0.17903 -0.0977,0.35807 0,0.24414 0.13021,0.45573 0.13021,0.21159 0.13021,0.45573 0,0.16276 -0.0814,0.35807 -0.0651,0.19531 -0.16276,0.4069 -0.0977,0.19531 -0.19532,0.39063 -0.0814,0.19531 -0.1302,0.35807 -0.0814,0.24414 -0.21159,0.42318 -0.13021,0.17903 -0.4069,0.17903 -0.22787,0 -0.42318,-0.14648 -0.19531,-0.16276 -0.19531,-0.39063 0,-0.17903 0.0814,-0.27669 0.0977,-0.11393 0.0977,-0.26042 0,-0.16276 -0.0651,-0.32552 -0.0651,-0.17903 -0.16276,-0.34179 -0.0814,-0.17904 -0.14649,-0.35808 -0.0651,-0.17903 -0.0651,-0.35807 0,-0.22786 0.0651,-0.43945 0.0814,-0.21159 0.0814,-0.43946 0,-0.48828 -0.16276,-0.96028 -0.14648,-0.47201 -0.14648,-0.96029 0,-0.43945 0.0977,-1.04166 0.0977,-0.60222 0.32552,-1.1556 0.24414,-0.55339 0.61849,-0.92774 0.39062,-0.39062 0.97656,-0.39062 0.4069,0 0.79752,0.0977 0.40691,0.0814 0.83008,0.0814 0.47201,0 0.94401,-0.0814 0.47201,-0.0814 0.94401,-0.0814 0.32552,0 0.60222,0.11394 0.29297,0.0976 0.61849,0.0976 0.19531,0 0.32552,-0.0814 0.14648,-0.0977 0.32552,-0.0977 0.19531,0 0.37435,0.0977 0.19531,0.0814 0.39062,0.0814 0.17904,0 0.32552,-0.0488 0.16276,-0.0488 0.32552,-0.0488 0.24414,0 0.47201,0.0651 0.24414,0.0651 0.472,0.0651 l 1.9694,-0.24414 q 0.43946,-0.0326 0.87891,-0.0651 0.43945,-0.0326 0.89518,-0.0326 0.78125,0 1.54623,0.13021 0.78125,0.11393 1.5625,0.29296 v 0.0163 q 0.53711,0.13021 0.76497,0.55339 0.22787,0.42317 0.29297,0.97656 0.0814,0.53711 0.0651,1.10677 -0.0163,0.56966 0.0163,0.97656 0.0488,0.61849 0.11393,1.25326 0.0814,0.61849 0.0814,1.23698 z"
       style="font-size:33.33333206px"
       id="path890" />
  </g>
</svg>
