<svg xmlns="http://www.w3.org/2000/svg" fill="none" viewBox="0 0 348 348"><path stroke="#000" stroke-width="2" d="M5 5.8h337v337.7H5z"/><path stroke="#000" stroke-width="2" d="M282.7 40.5c0-8.3 7-15.1 15.6-15.1 4.1 0 8 1.6 11 4.4a15 15 0 0 1 4.6 10.7c0 8.4-7 15.2-15.6 15.2s-15.6-6.8-15.6-15.2z"/><path fill="#fff" stroke="#000" stroke-width="1.9" d="M21.4 27.4h150.1v150.1h-150z"/><path fill="#fff" stroke="#000" stroke-width="2" d="M198.5 36.8a9 9 0 0 1-9 9 9 9 0 0 1-9-9 9 9 0 0 1 9-9 9 9 0 0 1 9 9zm0 130.3a9 9 0 0 1-9 9 9 9 0 0 1-9-9 9 9 0 0 1 9-9 9 9 0 0 1 9 9zm0-68.4a9 9 0 0 1-9 9 9 9 0 0 1-9-9 9 9 0 0 1 9-9 9 9 0 0 1 9 9z"/><path fill="#fff" stroke="#000" stroke-width="2.3" d="M12.5 198.8h320.8v21.7H12.5z"/><path fill="#fff" stroke="#000" stroke-width="2" d="M13.3 334h319.3V228.4H13.3zm0-84.6h319.3M13.3 270.6h319.3M13.3 291.8h319.3M13.3 312.9h319.3M34.5 228.3v21.1m21.1-21.1v21.1m21.2-21.1v21.1m21.1-21.1v21.1m21.2-21.1v21.1m21.2-21.1v21.1m21.1-21.1v21.1m21.2-21.1v21.1m21.1-21.1v21.1m0-21.1v21.1m21.2-21.1v21.1m21.1-21.1v21.1m21.2-21.1v21.1m21.1-21.1v21.1m-244.2 0v21.2m21.1-21.2v21.2m21.2-21.2v21.2m21.1-21.2v21.2m21.2-21.2v21.2m21.2-21.2v21.2m21.1-21.2v21.2m21.2-21.2v21.2m21.1-21.2v21.2m21.2-21.2v21.2m21.1-21.2v21.2m21.2-21.2v21.2m21.1-21.2v21.2m-247.8 0v21.2m21.2-21.2v21.2m21.1-21.2v21.2m21.2-21.2v21.2m21.1-21.2v21.2m21.2-21.2v21.2m21.2-21.2v21.2m21.1-21.2v21.2m21.2-21.2v21.2m21.1-21.2v21.2m21.2-21.2v21.2m21.1-21.2v21.2m-223 0v21.1m21-21.1v21.1m21.2-21.1v21.1m21.2-21.1v21.1m21.1-21.1v21.1m21.2-21.1v21.1m21.2-21.1v21.1m21.1-21.1v21.1m21.2-21.1v21.1m21.1-21.1v21.1m21.2-21.1v21.1M44 313v21.2M65.1 313v21.2M298 312.9v21.2m-42.3-21.2v21.2m21.2-21.2v21.2M97.2 312.9v21.2m126.4-21.2v21.2"/></svg>