<svg xmlns="http://www.w3.org/2000/svg" xml:space="preserve" id="Layer_1" x="0" y="0" version="1.1" viewBox="0 0 348 348"><style>.st1{stroke:#000;stroke-width:2;stroke-linejoin:round}.st2{fill:#fff}.st3{fill:none;stroke:#000;stroke-width:2;stroke-linejoin:round}</style><path fill="#fff" stroke="#000" stroke-linejoin="round" stroke-width="2" d="M5 5h336v336H5V5z"/><path d="M134 16h74v57h-74V16z" class="st1"/><path d="M168 44.1c0 3.9-.6 6.8-1.8 8.6-1.2 1.8-3.1 2.7-5.7 2.7s-4.5-.9-5.7-2.8c-1.2-1.9-1.8-4.7-1.8-8.6 0-3.9.6-6.7 1.8-8.6 1.2-1.9 3.1-2.8 5.7-2.8s4.5.9 5.7 2.8c1.2 2.1 1.8 4.9 1.8 8.7zm-3.9 6.6c.3-.8.6-1.7.7-2.8.1-1.1.2-2.4.2-3.9s-.1-2.8-.2-3.9-.4-2-.7-2.8c-.3-.8-.8-1.3-1.4-1.7-.6-.4-1.3-.6-2.3-.6-.9 0-1.7.2-2.3.6-.6.4-1.1 1-1.4 1.7-.3.7-.6 1.7-.7 2.8a37.93 37.93 0 0 0 0 7.6c.1 1 .3 1.9.7 2.8.3.8.8 1.3 1.4 1.7.6.4 1.4.6 2.4.6.9 0 1.7-.2 2.3-.6.5-.1 1-.7 1.3-1.5zm23-6.6c0 3.9-.6 6.8-1.8 8.6-1.2 1.8-3.1 2.7-5.7 2.7s-4.5-.9-5.7-2.8c-1.2-1.9-1.8-4.7-1.8-8.6 0-3.9.6-6.7 1.8-8.6 1.2-1.9 3.1-2.8 5.7-2.8s4.5.9 5.7 2.8c1.2 2.1 1.8 4.9 1.8 8.7zm-3.9 6.6c.3-.8.6-1.7.7-2.8.1-1.1.2-2.4.2-3.9s-.1-2.8-.2-3.9-.4-2-.7-2.8c-.3-.8-.8-1.3-1.4-1.7-.6-.4-1.3-.6-2.3-.6-.9 0-1.7.2-2.3.6-.6.4-1.1 1-1.4 1.7-.3.7-.6 1.7-.7 2.8a37.93 37.93 0 0 0 0 7.6c.1 1 .3 1.9.7 2.8.3.8.8 1.3 1.4 1.7.6.4 1.4.6 2.4.6.9 0 1.7-.2 2.3-.6.5-.1 1-.7 1.3-1.5z" class="st2"/><path id="a" d="M15 18h110v55H15V18zm0 55 40-54M37 73l40-54M60 73l40-54M82 73l40-54" class="st3"/><path d="M33 83h282v242H33V83z" class="st3"/><path d="M44 88h259v164H44V88z" class="st1"/><path fill="none" stroke="#000" stroke-linejoin="round" d="M114 268h49v45h-49v-45zm69 0h49v45h-49v-45z"/><path d="M51.4 271h37v26h-37v-26z" class="st3"/><circle cx="61.4" cy="305" r="4" class="st3"/><circle cx="77.4" cy="305" r="4" class="st3"/><path d="M106.5 144.7H96.3v-38h10.2v2.8h-6.8V142h6.8v2.7zm42.1-33.3h-10.4V137h-3.9v-25.6h-10.4V108h24.6v3.4zm23.1 25.6h-19.2v-29.1h19.2v3.4h-15.3v8h15.3v3.4h-15.3v10.8h15.3v3.5zm28.3-29.1-10 14.4 10 14.7h-4.5l-7.9-12-8.1 12h-4.2l10.1-14.5-9.9-14.6h4.5l7.8 11.8 8-11.8h4.2zm26 3.5h-10.4V137h-3.9v-25.6h-10.4V108H226v3.4zm27.6 33.3h-10.2v-2.8h6.8v-32.5h-6.8v-2.8h10.2v38.1z" class="st2"/><path d="M145.5 298h-3.2l-9.3-17.6V298h-2.4v-19.6h4l8.5 16v-16h2.4V298zm69.7-19.6-6.9 11v8.6h-2.6v-8.3l-6.9-11.3h2.9l5.4 8.8 5.4-8.8h2.7z"/></svg>