<svg xmlns="http://www.w3.org/2000/svg" xmlns:xlink="http://www.w3.org/1999/xlink" fill="none" viewBox="0 0 348 348"><defs><linearGradient id="a"><stop offset="0" stop-color="#a00"/><stop offset="1" stop-color="#500000"/></linearGradient><linearGradient xlink:href="#a" id="b" x1="180.4" x2="182.11" y1="5.42" y2="346.18" gradientUnits="userSpaceOnUse"/></defs><path fill="url(#b)" stroke="#000" stroke-width="2" d="M5.08 5.78h336.91v337.67H5.08z"/><path stroke="#000" stroke-width="2" d="M282.73 40.55c0-8.37 6.97-15.16 15.56-15.16 4.13 0 8.09 1.6 11 4.44a14.97 14.97 0 0 1 4.56 10.72c0 8.38-6.96 15.17-15.56 15.17-8.59 0-15.56-6.8-15.56-15.17z"/><path fill="#000" stroke="#000" d="M22.25 26.03h201.07v298.46H22.25z"/><path fill="#f4e3d7" stroke="#000" d="M250.45 82.96h67.48v61.18h-67.48z"/><path fill="#000" stroke="#000" d="M250.59 167.13h67.48v61.19h-67.48z"/><path fill="#f4e3d7" stroke="#000" d="M250.43 262.86h67.48v61.19h-67.48z"/><path fill="#000" d="M264.6 109.3h-8.08V96.55h1.7v11.26h6.38zM275.65 98q.78.86 1.19 2.1.42 1.25.42 2.83 0 1.57-.43 2.83-.42 1.24-1.18 2.07-.8.87-1.87 1.3-1.07.44-2.45.44-1.35 0-2.46-.44-1.1-.45-1.87-1.3-.77-.85-1.19-2.08-.4-1.24-.4-2.82 0-1.57.4-2.8.41-1.24 1.2-2.13.76-.84 1.87-1.28 1.13-.45 2.45-.45 1.37 0 2.46.46 1.1.44 1.86 1.27zm-.16 4.93q0-2.5-1.11-3.84-1.12-1.35-3.04-1.35-1.95 0-3.07 1.35-1.1 1.35-1.1 3.84 0 2.5 1.13 3.85 1.13 1.32 3.04 1.32 1.9 0 3.02-1.33 1.13-1.33 1.13-3.85zm14.53-6.4-4.65 12.78h-2.26l-4.65-12.77h1.82l4 11.23 4-11.23zm10.35 12.78h-8.41V96.54h8.41v1.5h-6.71v3.5h6.71v1.52h-6.71v4.74h6.71zm11.97-3.65q0 .75-.35 1.48-.34.72-.97 1.23-.69.55-1.6.86-.91.3-2.2.3-1.38 0-2.49-.25-1.1-.26-2.23-.76v-2.13h.12q.97.8 2.23 1.24 1.27.44 2.39.44 1.58 0 2.45-.6.88-.58.88-1.57 0-.85-.42-1.25-.4-.4-1.26-.63-.64-.17-1.4-.28-.74-.11-1.58-.28-1.7-.36-2.52-1.23-.82-.87-.82-2.27 0-1.6 1.36-2.63 1.35-1.03 3.44-1.03 1.34 0 2.47.26 1.12.26 1.99.64v2h-.12q-.73-.61-1.92-1.02-1.19-.4-2.43-.4-1.36 0-2.2.56-.82.56-.82 1.46 0 .8.41 1.25.41.45 1.45.7.55.11 1.56.28 1.01.17 1.72.35 1.42.38 2.14 1.14.72.77.72 2.14zm-28.13 25.6h-1.7v-11l-3.54 7.48h-1.02l-3.52-7.48v11h-1.59v-12.77h2.32l3.4 7.1 3.3-7.1h2.35zm11.85 0h-8.41v-12.77h8.4v1.5h-6.7v3.5h6.7v1.52h-6.7v4.74h6.7z" aria-label="LOVES ME"/><path fill="#000" d="M266.5 291.04h-7.29V279.5h1.54v10.16h5.76zm9.98-10.2q.7.77 1.08 1.89.38 1.12.38 2.55 0 1.42-.4 2.55-.37 1.12-1.06 1.88-.71.78-1.69 1.17-.96.4-2.21.4-1.22 0-2.22-.4-.99-.4-1.68-1.18-.7-.76-1.08-1.88-.37-1.11-.37-2.54 0-1.41.37-2.53.37-1.12 1.08-1.92.68-.76 1.7-1.16 1-.4 2.2-.4 1.24 0 2.22.4 1 .41 1.68 1.16zm-.14 4.44q0-2.25-1-3.47-1.01-1.22-2.75-1.22-1.76 0-2.77 1.22-1 1.22-1 3.47 0 2.26 1.03 3.47 1.02 1.2 2.74 1.2 1.72 0 2.73-1.2 1.02-1.2 1.02-3.47zm13.12-5.77-4.2 11.53h-2.04l-4.2-11.53h1.64l3.62 10.14 3.61-10.14zm9.34 11.53h-7.6V279.5h7.6v1.36h-6.06v3.16h6.06v1.36h-6.06v4.28h6.06zm10.81-3.3q0 .68-.31 1.34t-.88 1.11q-.62.5-1.45.78-.82.28-1.98.28-1.25 0-2.24-.24-1-.23-2.03-.69v-1.92h.11q.88.73 2.02 1.13t2.16.4q1.42 0 2.21-.54.8-.54.8-1.43 0-.76-.38-1.13-.37-.36-1.14-.56-.58-.16-1.26-.26-.67-.1-1.43-.25-1.54-.33-2.28-1.11-.74-.8-.74-2.05 0-1.45 1.23-2.37 1.22-.93 3.1-.93 1.22 0 2.23.23t1.8.57v1.81h-.1q-.67-.55-1.74-.92-1.07-.37-2.2-.37-1.23 0-1.98.51-.74.51-.74 1.32 0 .72.37 1.13.37.41 1.31.63l1.4.26q.92.15 1.56.32 1.28.34 1.93 1.03.65.69.65 1.93zm-45.05 23.12h-1.53v-9.94l-3.2 6.76h-.92l-3.18-6.76v9.94h-1.43v-11.53h2.09l3.07 6.42 2.97-6.42h2.13zm10.7 0h-7.6v-11.53h7.6v1.36h-6.07v3.16h6.07v1.37h-6.07v4.28h6.07zm16.8 0h-1.9l-5.46-10.31v10.3h-1.44v-11.52h2.38l4.99 9.42v-9.42h1.43zm11.66-10.2q.7.77 1.08 1.9.38 1.11.38 2.54 0 1.42-.39 2.55-.38 1.13-1.07 1.88-.71.78-1.69 1.18-.96.39-2.21.39-1.22 0-2.22-.4-.99-.4-1.68-1.17-.7-.77-1.08-1.88-.37-1.12-.37-2.55 0-1.41.37-2.53.37-1.12 1.08-1.92.69-.75 1.7-1.16 1-.4 2.2-.4 1.24 0 2.22.41 1 .4 1.68 1.15zm-.14 4.44q0-2.25-1-3.46-1.01-1.23-2.75-1.23-1.76 0-2.77 1.23-1 1.21-1 3.46 0 2.27 1.02 3.48 1.03 1.2 2.75 1.2t2.73-1.2q1.02-1.21 1.02-3.48zm11.87-4.4h-4.12v10.16h-1.54v-10.17h-4.12v-1.36h9.77z" aria-label="LOVES ME NOT"/><path fill="#fff" d="M266.32 185.5q0 .76-.27 1.42-.26.65-.74 1.13-.6.6-1.41.9-.82.3-2.06.3h-1.53v4.3h-1.53V182h3.13q1.03 0 1.75.18.72.17 1.28.54.66.44 1.02 1.1.36.66.36 1.67zm-1.6.04q0-.6-.2-1.04-.21-.44-.64-.72-.37-.24-.85-.34-.47-.11-1.2-.11h-1.52v4.6h1.3q.92 0 1.5-.16.59-.17.95-.53.36-.37.51-.78.16-.41.16-.92zm13.16 8h-1.99l-3.85-4.58h-2.17v4.58h-1.53v-11.53h3.23q1.04 0 1.74.14.7.13 1.26.48.62.4.97 1 .36.6.36 1.52 0 1.25-.63 2.09-.63.84-1.73 1.26zm-3.58-8.28q0-.5-.18-.88-.17-.38-.58-.65-.33-.22-.79-.3-.45-.1-1.07-.1h-1.8v4.35h1.54q.73 0 1.27-.12.54-.13.92-.48.35-.33.51-.75.17-.42.17-1.07zm12.66 8.28h-7.6v-11.53h7.6v1.37h-6.06v3.16h6.06v1.36h-6.06v4.28h6.06zm10.81-3.29q0 .68-.31 1.33-.31.66-.88 1.12-.62.5-1.45.77-.82.28-1.98.28-1.25 0-2.24-.23-1-.23-2.03-.69v-1.92h.11q.88.73 2.02 1.12t2.16.4q1.42 0 2.21-.54.8-.53.8-1.42 0-.77-.38-1.13-.37-.36-1.14-.57-.58-.15-1.26-.25-.67-.1-1.43-.26-1.54-.32-2.28-1.1-.74-.8-.74-2.06 0-1.44 1.23-2.37 1.22-.93 3.1-.93 1.22 0 2.23.24 1.02.23 1.8.57v1.81h-.11q-.66-.56-1.73-.92-1.07-.37-2.2-.37-1.23 0-1.98.5-.74.52-.74 1.33 0 .72.37 1.13.37.4 1.3.62.5.11 1.42.27.91.15 1.55.31 1.28.35 1.93 1.03.65.7.65 1.93zm10.67 0q0 .68-.31 1.33-.31.66-.88 1.12-.62.5-1.45.77-.82.28-1.98.28-1.25 0-2.25-.23-.99-.23-2.02-.69v-1.92h.11q.88.73 2.02 1.12t2.16.4q1.42 0 2.21-.54.8-.53.8-1.42 0-.77-.38-1.13-.37-.36-1.14-.57-.58-.15-1.26-.25-.67-.1-1.43-.26-1.54-.32-2.28-1.1-.74-.8-.74-2.06 0-1.44 1.23-2.37 1.22-.93 3.1-.93 1.22 0 2.23.24 1.02.23 1.8.57v1.81h-.11q-.66-.56-1.73-.92-1.07-.37-2.2-.37-1.23 0-1.98.5-.74.52-.74 1.33 0 .72.37 1.13.37.4 1.3.62.5.11 1.42.27.91.15 1.55.31 1.28.35 1.93 1.03.65.7.65 1.93zm-25.03 23.12h-1.53v-9.94l-3.2 6.76h-.92l-3.18-6.76v9.94h-1.43v-11.53h2.09l3.07 6.42 2.97-6.42h2.13zm10.7 0h-7.6v-11.53h7.6v1.36h-6.07v3.16h6.07v1.36h-6.07V212h6.07z" aria-label="PRESS ME"/></svg>