<svg xmlns="http://www.w3.org/2000/svg" xmlns:xlink="http://www.w3.org/1999/xlink" version="1.1" viewBox="0 0 348 348"><style>.st1{fill-opacity:0}.st2{fill:#fff}.st3,.st5,.st7{stroke:#000;stroke-miterlimit:10}.st3{stroke-linejoin:round;fill:none;stroke-width:2}.st10,.st5,.st7{fill:#fff;stroke-linecap:square}.st5{stroke-width:.8175}.st7{stroke-width:1.0608}.st10{stroke:#2b1100;stroke-width:1.4861;stroke-miterlimit:10}</style><defs><path d="M0 0h348v348H0z"/></defs><clipPath><use xlink:href="#SVGID_1_" overflow="visible"/></clipPath><g clip-path="url(#SVGID_2_)"><path d="M0 0h348v348H0V0z" class="st1"/><path d="M-6 0h348v348H-6V0z" class="st2"/><path d="M5.1 5.8H342v337.7H5.1V5.8z" class="st1"/><path d="M5.1 5.8H342v337.7H5.1V5.8z" class="st3"/><path d="M282.7 40.6c0-8.4 7-15.2 15.6-15.2a16 16 0 0 1 11 4.4 15 15 0 0 1 4.6 10.7c0 8.4-7 15.2-15.6 15.2s-15.6-6.8-15.6-15.1z" class="st2"/><path d="M282.7 40.6c0-8.4 7-15.2 15.6-15.2a16 16 0 0 1 11 4.4 15 15 0 0 1 4.6 10.7c0 8.4-7 15.2-15.6 15.2s-15.6-6.8-15.6-15.1z" class="st3"/></g><path fill="none" d="M-296.6 17.8H-130v67.3h-166.6z"/><path d="M21.8 63h185.6v32.5H21.8z" class="st5"/><path fill="#fff" stroke="#000" stroke-linecap="square" stroke-miterlimit="10" stroke-width=".9" d="m249.6 13.8-.6 89.3h-29.1l.6-89.3z"/><path d="M22 22.4h185.6v32.5H22z" class="st5"/><path d="M227.1 86.9h15.6v8.8h-15.6z" class="st7"/><path d="M227.7 23h15.6v8.8h-15.6z" class="st7"/><path d="M227.3 38.2h15.6V47h-15.6z" class="st7"/><path d="M227 54.2h15.6V63H227z" class="st7"/><path d="M227 70.6h15.6v8.8H227z" class="st7"/><g stroke-width=".98" aria-label="TEXT" transform="matrix(.985 0 0 1.015 3.06 2.85)"><path stroke-width=".98" d="M156.47 65.87h-8.8V87.6h-3.28V65.87h-8.81v-2.92h20.89zm-22.02-2.92-8.5 12.19 8.48 12.46h-3.79l-6.72-10.15-6.88 10.15h-3.58l8.6-12.31-8.4-12.34h3.77l6.64 10.02 6.79-10.02zM110.43 87.6H94.19V62.95h16.24v2.92H97.47v6.75h12.96v2.91H97.47v9.16h12.96zM90.85 65.87h-8.81V87.6h-3.28V65.87h-8.8v-2.92h20.89z"/></g><g aria-label="TEXT" transform="matrix(.97 0 0 1 71.72 51.16)"><path d="M88.29-22.06h-8.94V0h-3.33v-22.06h-8.94v-2.96h21.2zm-22.35-2.96L57.3-12.65 65.92 0h-3.85l-6.82-10.3L48.26 0h-3.63l8.72-12.5-8.52-12.52h3.83l6.74 10.17 6.9-10.17zM41.56 0H25.07v-25.02h16.49v2.96H28.4v6.85h13.16v2.96H28.4v9.3h13.16zM21.68-22.06h-8.94V0H9.41v-22.06H.47v-2.96h21.21z"/></g><path d="M21.8 109.5h35.3v35.3H21.8z" class="st10"/><g aria-label="Q" transform="translate(27.6 136.3)"><path d="M20.07 4.8q-.78.2-1.56.27-.76.1-1.56.1-2.29 0-3.68-1.27-1.38-1.25-1.5-3.59-.31.06-.62.07-.29.03-.56.03-2.06 0-3.76-.69-1.68-.68-2.86-1.98-1.19-1.3-1.83-3.2-.63-1.88-.63-4.31 0-2.4.63-4.29.63-1.9 1.84-3.26 1.16-1.28 2.86-1.97 1.72-.68 3.75-.68 2.1 0 3.77.7 1.68.68 2.85 1.95 1.2 1.32 1.82 3.22.65 1.9.65 4.33 0 3.58-1.47 6.04-1.46 2.46-3.93 3.44.05 1.5.71 2.33.66.82 2.39.82.54 0 1.27-.17.75-.15 1.07-.29h.35zm-3.1-14.57q0-3.82-1.7-5.88-1.71-2.07-4.67-2.07-2.98 0-4.69 2.07-1.7 2.07-1.7 5.88 0 3.85 1.74 5.9Q7.7-1.85 10.6-1.85q2.92 0 4.64-2.04 1.73-2.05 1.73-5.9z"/></g><path d="M294.2 109.5h35.3v35.3h-35.3z" class="st10"/><g aria-label="U" transform="translate(301.7 136.6)"><path d="M17.36-7.86q0 2.13-.48 3.72-.46 1.58-1.52 2.63-1.01 1-2.37 1.46Q11.64.4 9.84.4 8 .4 6.64-.08 5.26-.57 4.33-1.5 3.26-2.6 2.8-4.11q-.46-1.53-.46-3.75v-11.7h2.6v11.84q0 1.59.21 2.5.22.92.74 1.67.57.86 1.56 1.29 1 .43 2.39.43 1.4 0 2.4-.42.98-.43 1.57-1.3.51-.75.72-1.7.22-.98.22-2.4v-11.91h2.6z"/></g><path d="M248.8 109.5h35.3v35.3h-35.3z" class="st10"/><g aria-label="Y" transform="translate(258.7 136.6)"><path d="M16.48-19.56 9.59-8.58V0h-2.6v-8.3L.08-19.56h2.88l5.34 8.75 5.4-8.75z"/></g><path d="M203.4 109.5h35.3v35.3h-35.3z" class="st10"/><g aria-label="T" transform="translate(212.5 136.4)"><path d="M16.58-17.25H9.59V0h-2.6v-17.25H0v-2.31h16.58z"/></g><path d="M158 109.5h35.3v35.3H158z" class="st10"/><g aria-label="R" transform="translate(164.2 136.4)"><path d="M18.81 0h-3.37L8.89-7.78H5.23V0h-2.6v-19.56H8.1q1.77 0 2.95.23 1.18.23 2.13.82 1.06.67 1.66 1.7.6 1 .6 2.57 0 2.11-1.06 3.55-1.07 1.41-2.93 2.14zm-6.08-14.06q0-.84-.3-1.48-.3-.66-.97-1.1-.57-.39-1.34-.53-.78-.16-1.83-.16H5.23v7.38h2.63q1.23 0 2.15-.2.92-.23 1.56-.82.6-.55.87-1.26.3-.72.3-1.83z"/></g><path d="M112.6 109.5h35.3v35.3h-35.3z" class="st10"/><g aria-label="E" transform="translate(120.8 136.5)"><path d="M15.52 0H2.62v-19.56h12.9v2.31H5.22v5.36h10.3v2.31H5.22v7.27h10.3z"/></g><path d="M67.2 109.5h35.3v35.3H67.2z" class="st10"/><g aria-label="W" transform="translate(71 136.3)"><path d="M25.4-19.56 20.3 0h-2.93l-4.11-16.24L9.25 0H6.38L1.21-19.56h2.67L7.98-3.3l4.05-16.26h2.64l4.1 16.42 4.08-16.42z"/></g><path d="M21.8 162.5h35.3v35.3H21.8z" class="st10"/><g aria-label="I" transform="translate(33.1 189.6)"><path d="M9.53 0H1.8v-2h2.56v-15.56H1.8v-2h7.72v2H6.96V-2h2.56z"/></g><path d="M294.2 162.5h35.3v35.3h-35.3z" class="st10"/><g aria-label="F" transform="translate(304.2 189.6)"><path d="M15.12-17.25H5.23v5.52h8.5v2.31h-8.5V0h-2.6v-19.56h12.49z"/></g><path d="M248.8 162.5h35.3v35.3h-35.3z" class="st10"/><g aria-label="D" transform="translate(256.2 189.6)"><path d="M19.16-9.76q0 2.67-1.17 4.83-1.16 2.17-3.1 3.37-1.33.82-2.99 1.2Q10.26 0 7.57 0H2.63v-19.56H7.5q2.87 0 4.55.42 1.7.4 2.86 1.13 2 1.25 3.12 3.32 1.12 2.08 1.12 4.93zm-2.72-.04q0-2.3-.8-3.88-.8-1.57-2.4-2.48-1.15-.66-2.45-.9-1.3-.27-3.12-.27H5.23v15.1h2.44q1.88 0 3.27-.28 1.41-.28 2.58-1.02Q14.98-4.47 15.7-6q.74-1.52.74-3.81z"/></g><path d="M203.4 162.5h35.3v35.3h-35.3z" class="st10"/><g aria-label="S" transform="translate(212.5 189.4)"><path d="M16.84-5.58q0 1.14-.54 2.26-.52 1.11-1.48 1.89-1.05.84-2.46 1.31Q10.97.35 9 .35q-2.12 0-3.81-.39Q3.5-.44 1.76-1.2v-3.26h.18q1.49 1.24 3.43 1.9 1.95.68 3.66.68 2.41 0 3.75-.9 1.36-.92 1.36-2.43 0-1.3-.65-1.92-.63-.61-1.93-.95-.98-.27-2.14-.44-1.14-.17-2.43-.43-2.6-.55-3.86-1.88-1.25-1.34-1.25-3.48 0-2.46 2.07-4.02 2.08-1.58 5.27-1.58 2.06 0 3.79.4 1.72.4 3.04.97v3.07h-.18q-1.12-.94-2.94-1.56-1.82-.63-3.72-.63-2.09 0-3.36.87-1.26.86-1.26 2.23 0 1.22.63 1.92t2.22 1.06q.84.19 2.39.45 1.55.26 2.62.54 2.19.57 3.29 1.74t1.1 3.28z"/></g><path d="M158 162.5h35.3v35.3H158z" class="st10"/><g aria-label="A" transform="translate(166.8 189.4)"><path d="M18.05 0h-2.77l-1.92-5.45H4.9L2.98 0H.34l7.12-19.56h3.47zm-5.49-7.69-3.43-9.6-3.44 9.6z"/></g><path d="M112.6 162.5h35.3v35.3h-35.3z" class="st10"/><g aria-label="P" transform="translate(120.8 189.5)"><path d="M15.42-13.65q0 1.3-.46 2.42-.44 1.1-1.26 1.91-1 1.02-2.39 1.53-1.38.5-3.48.5h-2.6V0h-2.6v-19.56h5.3q1.77 0 2.99.3 1.22.29 2.17.92 1.11.75 1.72 1.86.61 1.12.61 2.83zm-2.7.07q0-1.02-.36-1.76-.35-.75-1.07-1.23-.63-.4-1.45-.57-.8-.19-2.04-.19H5.23v7.82h2.2q1.57 0 2.56-.28.98-.29 1.6-.9.61-.63.86-1.33.27-.7.27-1.56z"/></g><path d="M67.2 162.5h35.3v35.3H67.2z" class="st10"/><g aria-label="O" transform="translate(73.9 189)"><path d="M17.21-17.32q1.2 1.32 1.83 3.22.64 1.9.64 4.33 0 2.41-.66 4.33-.64 1.9-1.81 3.18-1.2 1.33-2.86 2Q12.7.4 10.59.4 8.53.4 6.83-.28 5.15-.96 3.97-2.26q-1.19-1.3-1.83-3.2-.63-1.88-.63-4.31 0-2.4.63-4.29.63-1.9 1.84-3.26 1.16-1.28 2.86-1.97 1.72-.68 3.75-.68 2.1 0 3.77.7 1.68.68 2.85 1.95zm-.24 7.54q0-3.8-1.7-5.87-1.71-2.07-4.67-2.07-2.98 0-4.69 2.07-1.7 2.07-1.7 5.88 0 3.84 1.74 5.9Q7.7-1.85 10.6-1.85q2.92 0 4.64-2.04 1.73-2.05 1.73-5.9z"/></g><path d="M21.8 215.5h35.3v35.3H21.8z" class="st10"/><g aria-label="G" transform="translate(27.6 242.2)"><path d="M18.94-1.45q-1.6.74-3.5 1.3-1.9.53-3.67.53-2.29 0-4.19-.63-1.9-.63-3.25-1.9T2.25-5.31Q1.5-7.24 1.5-9.8q0-4.69 2.73-7.4 2.75-2.72 7.53-2.72 1.67 0 3.4.41 1.75.4 3.76 1.36v3.08h-.24q-.4-.31-1.18-.83-.77-.5-1.52-.85-.9-.4-2.07-.67-1.14-.27-2.6-.27-3.28 0-5.2 2.11-1.9 2.1-1.9 5.7 0 3.8 2 5.91 2 2.1 5.43 2.1 1.26 0 2.51-.25 1.26-.25 2.21-.64v-4.8h-5.24v-2.28h7.81z"/></g><path d="M294.2 215.5h35.3v35.3h-35.3z" class="st10"/><g aria-label="X" transform="translate(301.7 242.6)"><path d="M17.55-19.56 10.8-9.9 17.54 0h-3.01L9.2-8.05 3.73 0H.9l6.82-9.77-6.66-9.8h3l5.27 7.96 5.38-7.95z"/></g><path d="M248.8 215.5h35.3v35.3h-35.3z" class="st10"/><g aria-label="Z" transform="translate(258.7 242.6)"><path d="M16.92 0H1.65v-2.42l12-14.83H2.1v-2.31h14.53v2.35L4.52-2.31h12.4z"/></g><path d="M203.4 215.5h35.3v35.3h-35.3z" class="st10"/><g aria-label="L" transform="translate(212.5 242.3)"><path d="M15 0H2.63v-19.56h2.6v17.25H15z"/></g><path d="M158 215.5h35.3v35.3H158z" class="st10"/><g aria-label="K" transform="translate(164.4 242.5)"><path d="M18.35 0h-3.37L7.24-8.71 5.29-6.63V0H2.7v-19.56h2.6v10.2l9.5-10.2h3.16l-8.74 9.2z"/></g><path d="M112.6 215.5h35.3v35.3h-35.3z" class="st10"/><g aria-label="J" transform="translate(120.8 242.4)"><path d="M9.8-5.08q0 2.57-1.58 3.96Q6.66.28 4.02.28q-.63 0-1.68-.12Q1.29.06.58-.11v-2.43h.14q.54.19 1.33.38.79.2 1.62.2 1.2 0 1.91-.27.73-.28 1.07-.8.35-.52.44-1.28.1-.76.1-1.76v-11.42H3.07v-2.07H9.8z"/></g><path d="M67.2 215.5h35.3v35.3H67.2z" class="st10"/><g aria-label="H" transform="translate(75 242.5)"><path d="M17.6 0H15v-9.58H5.22V0h-2.6v-19.56h2.6v7.67h9.76v-7.67h2.6z"/></g><path d="M203.4 268.4h35.3v35.3h-35.3z" class="st10"/><g aria-label="M" transform="translate(210.2 295.1)"><path d="M20.05 0h-2.6v-16.86L12-5.39h-1.55l-5.4-11.47V0H2.63v-19.56h3.54L11.4-8.67l5.04-10.9h3.62z"/></g><path d="M158 268.4h35.3v35.3H158z" class="st10"/><g aria-label="N" transform="translate(166 295.2)"><path d="M17.55 0h-3.22L5.06-17.5V0H2.63v-19.56h4.03L15.12-3.6v-15.97h2.43z"/></g><path d="M112.6 268.4h35.3v35.3h-35.3z" class="st10"/><g aria-label="B" transform="translate(118.8 295.3)"><path d="M17.38-6.02q0 1.46-.55 2.58-.55 1.11-1.48 1.84-1.1.86-2.43 1.23Q11.6 0 9.56 0H2.63v-19.56h5.79q2.14 0 3.2.16 1.07.15 2.04.65 1.08.57 1.57 1.46.48.88.48 2.12 0 1.39-.7 2.37-.72.98-1.9 1.57v.1q1.98.41 3.13 1.75 1.14 1.33 1.14 3.36zm-4.37-8.81q0-.71-.24-1.2-.24-.48-.76-.79-.62-.35-1.5-.43-.88-.1-2.18-.1h-3.1v5.66h3.36q1.22 0 1.94-.12.73-.13 1.35-.53.61-.39.86-1 .27-.64.27-1.5zm1.67 8.92q0-1.18-.36-1.88-.35-.7-1.29-1.18-.63-.33-1.53-.42-.9-.1-2.18-.1h-4.1v7.27h3.45q1.7 0 2.8-.17 1.09-.19 1.78-.66.74-.51 1.08-1.17.34-.65.34-1.7z"/></g><path d="M67.2 268.4h35.3v35.3H67.2z" class="st10"/><g aria-label="V" transform="translate(75.4 295.1)"><path d="M18.05-19.56 10.93 0H7.46L.34-19.56h2.79l6.13 17.2 6.14-17.2z"/></g><path d="M21.8 268.4h35.3v35.3H21.8z" class="st10"/><g aria-label="C" transform="translate(26.8 294.8)"><path d="M17.74-1.42q-.73.32-1.32.6-.58.27-1.52.57-.8.25-1.75.42-.93.18-2.06.18-2.13 0-3.88-.59-1.73-.6-3.02-1.88-1.26-1.24-1.97-3.16-.71-1.93-.71-4.48 0-2.42.68-4.32.69-1.9 1.97-3.22 1.25-1.28 3.01-1.95 1.78-.67 3.93-.67 1.58 0 3.14.38 1.58.39 3.5 1.34v3.1h-.2q-1.62-1.36-3.2-1.98-1.6-.62-3.41-.62-1.49 0-2.68.5-1.18.46-2.12 1.47-.9 1-1.41 2.5-.5 1.5-.5 3.47 0 2.06.55 3.55.56 1.48 1.44 2.41.92.98 2.15 1.45 1.23.46 2.6.46 1.87 0 3.52-.64 1.64-.65 3.07-1.93h.19z"/></g><path d="M294.2 268.4h35.3v35.3h-35.3z" class="st10"/><path d="M248.8 268.4h35.3v35.3h-35.3z" class="st10"/></svg>