<svg xmlns="http://www.w3.org/2000/svg" fill="none" viewBox="0 0 348 348"><path stroke="#000" stroke-width="2" d="M5 5.8h337v337.6H5z"/><path stroke="#000" stroke-width="2" d="M282.7 40.6c0-8.4 7-15.2 15.6-15.2 4.1 0 8 1.6 11 4.4a15 15 0 0 1 4.6 10.8c0 8.3-7 15.1-15.6 15.1s-15.6-6.8-15.6-15.2z"/><g fill="#000"><path d="M53.2 174v144h203.9V30H53.2v144zm201-119.4V76l-10.8-.4c-5.8-.2-50.4-.4-99-.4H56.3V33h198v21.6zm-2.8 24l2.7.4v5.5L193 85l-99 .4H56.2v-7.1h96.2c53 0 97.5.2 99 .4zm2.7 13.6V98l-61.2.4-99 .4H56.2V87l46.5-.1 99-.3 52.4-.1v5.7zm0 13.8v6.1l-61.2.4-99 .4H56.2v-12.3l46.5-.2 99-.3 52.4-.1v6zm0 14.1v6.1l-61.2.4-99 .4H56.2v-12.3l46.5-.2 99-.3 52.4-.1v6zm0 14.4v6.4l-61.2.4-99 .4H56.2v-12.9l46.5-.2 99-.3 52.4-.1v6.3zm0 13.8v5.5l-60.9.4-99 .4h-38v-11.2l46.5-.1 99-.3 52.4-.1v5.4zm0 13.5v6.1l-60.9.4-99 .4h-38v-12.3l46.8-.2 99-.3 52.1-.1v6zm0 13.8v5.9l-61.8.3-99 .4H56.2v-11.7l46.8-.2 99-.3 52.1-.1v5.7zm0 14.7v7l-61.8.4-99 .4H56.2V184l46.2-.2 99-.3 52.7-.1v7zm0 14.7v5.8l-61.8.4-99 .4H56.2v-11.8l46.2-.1 99-.3 52.7-.1v5.7zm0 13.8v6.1l-61.8.4-99 .4H56.2v-12.3l46.2-.2 99-.3 52.7-.1v6zm0 14.1v6.1l-61.8.4-99 .4H56.2v-12.3l46.2-.2 99-.3 52.7-.1v6zm0 14.4v6.4l-61.8.4-99 .4H56.2v-12.9l46.2-.2 99-.3 52.7-.1v6.3zm0 14.1v5.8l-61.8.4-99 .4H56.2v-12.3h198v5.7zm0 13.8v6.1l-61.8.4-99 .4H56.2v-12.3l46.2-.2 99-.3 52.7-.1v6zm0 14.4v6.4l-61.8.4-99 .4H56.2v-12.9l46.2-.2 99-.3 52.7-.1v6.3zm0 14.4v6.1l-61.8.4-99 .4H56.2V298h198v6zm0 9.5v1.5h-99c-98.5 0-99 0-99-1.2 0-1.3-8.6-1.2 145.3-1.6l52.7-.1v1.4z"/><path d="M97.6 36.6l-1.1 2-.7-1.8-.8-1.7v1.7c0 1.3-.2 1.5-.9 1-.7-.6-.8-.5-.5.5.3 1.2.2 1.2-1 1-1.5-.5-1.5-.5-.3.5l1.9 1.3c.3.2.7 1.5.8 2.8l.2 2.3-2.4.2c-2 .1-2.6 0-3.5-1.2-1-1.2-1.4-1.3-2.8-1-1 .3-2.4.1-3.6-.4-3.4-1.3-9-1-12.5.7-12.1 6-11 24.5 1.6 28.7 3.7 1.3 9.4 1 12.2-.5a20 20 0 0 0 7-6.8c1.3-2.8 2-7.4 1.4-10.2-.4-1.9-.4-2.6.3-3.4.9-1 .9-1.1 0-2.4-1-1.5-1-1.5.8-2 2.3-.4 3.2-1.6 2.7-3.6-.3-1.3-.2-1.4.5-.8.6.5 1 .6 1 .4 0-.3.7 0 1.6.6l1.6 1-1-1.2c-1.1-1.2-1.1-1.2.2-1.4 1.4-.2 1.3-.3-.3-1.1l-1.7-1 1.4-1 1.4-1-1.6.3c-1.5.4-1.7.2-1.4-.8l.7-2.4c.5-1.7 0-1.4-1.2.7zM82.4 47.3c6.6 3 9 10.3 5.7 16.9A12 12 0 0 1 67 65c-2.8-4.7-2.5-10 .8-14.3a15 15 0 0 1 9.5-4.8c1.1 0 3.4.7 5 1.4z"/><path d="M73.5 47.4c-2.8 1-5.4 3.5-6.8 6.5-2.1 4.5-1 9.2 2.7 13.1 2.6 2.5 2.7 2.6 5.4 2.2 3.2-.4 4.3-1.5 4.3-4.2 0-1 .3-2.1.6-2.4.5-.5 0-1.1-1.6-2.2L76 58.8l2.4-.9c2.2-.9 2.4-1.1 2.1-2.6-.3-1.5-.1-1.7 1-1.7 1.7 0 1.5-1.4-.6-3.4-1-1-1.7-2.3-1.7-2.7 0-1.2-2.4-1.2-5.6-.1zM109.6 49.2v1.4h87v-2.9h-87v1.5zM221.8 57c0 1.2.4 1.3 12 1.3 11.7 0 12.1-.1 12.1-1.2 0-1.1-.4-1.2-12-1.2-11.7 0-12 0-12 1.2zM109.6 63.8v1.5h88.1v-2.9h-88v1.4z"/></g></svg>