<svg xmlns="http://www.w3.org/2000/svg" viewBox="0 0 348 348" fill="none"><g style="fill:#fff;stroke:#000;stroke-width:.53;stroke-miterlimit:4;stroke-dasharray:none"><g style="fill:none;stroke:#000;stroke-width:1.28;stroke-miterlimit:4;stroke-dasharray:none"><path transform="rotate(-95 128.598 119.137) scale(.41252)" d="M187.527 0 0 158.959h101.018v172.197h173.02V158.96h101.017z" style="opacity:.965;fill:none;fill-opacity:1;stroke:#000;stroke-width:4.85;stroke-linecap:round;stroke-linejoin:miter;stroke-miterlimit:4;stroke-dasharray:none;stroke-dashoffset:0;stroke-opacity:1"/></g></g><path d="M5.079 5.776h336.913v337.67H5.08z" stroke-width="2" stroke="#000"/><path d="M282.734 40.554c0-8.376 6.966-15.165 15.56-15.165 4.126 0 8.084 1.597 11.001 4.441 2.918 2.844 4.558 6.702 4.558 10.724 0 8.376-6.966 15.165-15.56 15.165-8.593 0-15.559-6.79-15.559-15.165z" stroke-width="2" stroke="#000"/><path style="opacity:.985;fill:none;fill-opacity:1;stroke:#000;stroke-width:2;stroke-linecap:round;stroke-linejoin:miter;stroke-miterlimit:4;stroke-dasharray:none;stroke-dashoffset:0;stroke-opacity:1" d="M13.08 260.204h101.747v75.242H13.08z"/><path style="opacity:.985;fill:#000;fill-opacity:1;stroke:#000;stroke-width:1.7;stroke-linecap:round;stroke-linejoin:miter;stroke-miterlimit:4;stroke-dasharray:none;stroke-dashoffset:0;stroke-opacity:1" d="M20.689 265.831h86.53v63.989h-86.53z"/><path style="opacity:.985;fill:none;fill-opacity:1;stroke:#000;stroke-width:2;stroke-linecap:round;stroke-linejoin:miter;stroke-miterlimit:4;stroke-dasharray:none;stroke-dashoffset:0;stroke-opacity:1" d="M232.245 260.204h101.747v75.242H232.245z"/><path style="opacity:.985;fill:#000;fill-opacity:1;stroke:#000;stroke-width:1.7;stroke-linecap:round;stroke-linejoin:miter;stroke-miterlimit:4;stroke-dasharray:none;stroke-dashoffset:0;stroke-opacity:1" d="M239.854 265.831h86.53v63.989h-86.53z"/><g style="fill:none;stroke:#000;stroke-width:1.23167379;stroke-miterlimit:4;stroke-dasharray:none"><path transform="rotate(1.992 -555.2 2709.021) scale(.42963)" d="M187.527 0 0 158.959h117.168l70.36-59.64 70.359 59.64h117.168z" style="opacity:.985;fill:none;fill-opacity:1;stroke:#000;stroke-width:4.655;stroke-linecap:round;stroke-linejoin:miter;stroke-miterlimit:4;stroke-dasharray:none;stroke-dashoffset:0;stroke-opacity:1"/></g><g style="stroke-width:.5292;stroke-miterlimit:4;stroke-dasharray:none"><g transform="scale(.56691) rotate(87 194.347 455.09)" style="stroke-width:3.52787501;stroke-miterlimit:4;stroke-dasharray:none"><rect style="opacity:.965;fill:none;fill-opacity:1;stroke:#000;stroke-width:3.528;stroke-linecap:round;stroke-linejoin:miter;stroke-miterlimit:4;stroke-dasharray:none;stroke-dashoffset:0;stroke-opacity:1" width="252.026" height="126.013" x="-61.547" y="59.908" ry="19.038"/><path style="opacity:.965;fill:none;fill-opacity:1;stroke:#000;stroke-width:3.528;stroke-linecap:round;stroke-linejoin:miter;stroke-miterlimit:4;stroke-dasharray:none;stroke-dashoffset:0;stroke-opacity:1" d="M111.047 159.592H17.884L64.466 78.91z"/></g></g><g style="fill:none;stroke:#000;stroke-width:3.02132553;stroke-miterlimit:4;stroke-dasharray:none"><path transform="matrix(-.17514 0 0 -.17514 215.57 334.883)" d="M240 0 70.295 169.705c-93.726 93.726-93.726 245.686 0 339.412 93.726 93.726 245.684 93.726 339.41 0 93.726-93.726 93.726-245.686 0-339.412z" style="opacity:.965;fill:none;fill-opacity:1;stroke:#000;stroke-width:11.41918324;stroke-linecap:round;stroke-linejoin:miter;stroke-miterlimit:4;stroke-dasharray:none;stroke-dashoffset:0;stroke-opacity:1"/></g><path style="stroke:#000;stroke-width:2;stroke-miterlimit:4;stroke-dasharray:none;fill:#fff" d="M100.899 174.611c0-11.503 6.275-1.471 8.52-12.754 2.244-11.282-7.393-4.415-2.991-15.043 4.402-10.627 6.36 1.042 12.752-8.523 6.39-9.563-5.14-6.908 2.994-15.042s5.478 3.397 15.042-2.994c9.565-6.39-2.105-8.35 8.523-12.752 10.627-4.402 3.76 5.235 15.043 2.991 11.282-2.244 1.25-8.52 12.753-8.52 11.504 0 1.472 6.276 12.754 8.52 11.282 2.244 4.416-7.393 15.043-2.99 10.628 4.401-1.042 6.36 8.523 12.751 9.564 6.391 6.909-5.14 15.042 2.994 8.134 8.135-3.396 5.478 2.994 15.042 6.391 9.565 8.35-2.104 12.752 8.523 4.402 10.628-5.234 3.761-2.99 15.043 2.244 11.282 8.52 1.25 8.52 12.754 0 11.503-6.276 1.471-8.52 12.754-2.245 11.282 7.392 4.415 2.99 15.043-4.402 10.627-6.36-1.042-12.752 8.523-6.39 9.563 5.14 6.908-2.994 15.042s-5.478-3.397-15.042 2.994c-9.565 6.39 2.105 8.35-8.523 12.752-10.627 4.402-3.76-5.235-15.043-2.991-11.282 2.244-1.25 8.52-12.753 8.52-11.504 0-1.472-6.276-12.754-8.52-11.282-2.244-4.416 7.393-15.043 2.99-10.628-4.401 1.042-6.36-8.523-12.751-9.564-6.391-6.909 5.14-15.042-2.994-8.134-8.135 3.397-5.478-2.994-15.043s-8.35 2.105-12.752-8.522c-4.402-10.628 5.234-3.761 2.99-15.043-2.244-11.282-8.52-1.25-8.52-12.754z"/></svg>