<svg xmlns="http://www.w3.org/2000/svg" fill="none" viewBox="0 0 348 348"><path stroke="#000" stroke-width="2" d="M5 6h337v337H5z"/><path stroke="#000" stroke-width="2" d="M283 41c0-9 7-16 15-16 4 0 8 2 11 5s5 7 5 11c0 8-7 15-16 15-8 0-15-7-15-15z"/><path stroke="#000" stroke-width="2.3" d="M20 78h247v247H20z"/><g stroke="#000"><path stroke-width="2.2" d="M27 85h29v29H27z"/><path stroke-width="2.3" d="m35 112-7-7V94l7-8h11l8 8v11l-8 7z"/></g><path fill="#000" d="M48 94v1h-1v1h-1l-1 4h2v2h-2l-1 5h-3l1-5h-3l-1 5h-3l1-5h-2v-2h2v-4h-1v-1l-1-1 1-1h2v-4l1-1h2v5h3v-4h1v-1h2v5h2v1zm-9 2v4h3l1-4z" aria-label="#"/><g stroke="#000"><path stroke-width="2.2" d="M61 85h30v29H61z"/><path stroke-width="2.3" d="m70 112-8-7V94l8-8h11l8 8v11l-8 7z"/></g><path fill="#000" d="M82 94v1h-1v1h-1l-1 4h2v2h-2l-1 5h-3l1-5h-3l-1 5h-3l1-5h-2v-2h2v-4h-1v-1l-1-1 1-1h2v-4l1-1h2v5h3v-4h1v-1h2v5h2v1zm-9 2v4h3l1-4z" aria-label="#"/><g stroke="#000"><path stroke-width="2.2" d="M96 85h29v29H96z"/><path stroke-width="2.3" d="m104 112-8-7V94l8-8h11l8 8v11l-8 7z"/></g><path fill="#000" d="M116 94v1h-1v1h-1l-1 4h2v2h-2l-1 5h-3l1-5h-3l-1 5h-3l1-5h-2v-2h2v-4h-1v-1l-1-1 1-1h2v-4l1-1h2v5h3v-4h1v-1h2v5h2v1zm-9 2v4h3l1-4z" aria-label="#"/><g stroke="#000"><path stroke-width="2.2" d="M130 85h29v29h-29z"/><path stroke-width="2.3" d="m138 112-7-7V94l7-8h11l8 8v11l-8 7z"/></g><path fill="#000" d="M151 94v1h-1v1h-1l-1 4h2v2h-2l-1 5h-3l1-5h-3l-1 5h-3l1-5h-2v-2h2v-4h-1v-1l-1-1 1-1h2v-4l1-1h2v5h3v-4h1v-1h2v5h2v1zm-9 2v4h3l1-4z" aria-label="#"/><g stroke="#000"><path stroke-width="2.2" d="M164 85h30v29h-30z"/><path stroke-width="2.3" d="m173 112-8-7V94l8-8h11l8 8v11l-8 7z"/></g><path fill="#000" d="M185 94v1h-1v1h-1l-1 4h2v2h-2l-1 5h-3l1-5h-3l-1 5h-3l1-5h-2v-2h2v-4h-1v-1l-1-1 1-1h2v-4l1-1h2v5h3v-4h1v-1h2v5h2v1zm-9 2v4h3l1-4z" aria-label="#"/><g stroke="#000"><path stroke-width="2.2" d="M199 85h29v29h-29z"/><path stroke-width="2.3" d="m207 112-8-7V94l8-8h11l8 8v11l-8 7z"/></g><path fill="#000" d="M219 94v1h-1v1h-1l-1 4h2v2h-2l-1 5h-3l1-5h-3l-1 5h-3l1-5h-2v-2h2v-4h-1v-1l-1-1 1-1h2v-4l1-1h2v5h3v-4h1v-1h2v5h2v1zm-9 2v4h3l1-4z" aria-label="#"/><g stroke="#000"><path stroke-width="2.2" d="M233 85h29v29h-29z"/><path stroke-width="2.3" d="m241 112-7-7V94l7-8h11l8 8v11l-8 7z"/></g><path fill="#000" d="M254 94v1h-1v1h-1l-1 4h2v2h-2l-1 5h-3l1-5h-3l-1 5h-3l1-5h-2v-2h2v-4h-1v-1l-1-1 1-1h2v-4l1-1h2v5h3v-4h1v-1h2v5h2v1zm-9 2v4h3l1-4z" aria-label="#"/><g stroke="#000"><path stroke-width="2.2" d="M27 119h29v30H27z"/><path stroke-width="2.3" d="m35 147-7-8v-11l7-8h11l8 8v11l-8 8z"/></g><path fill="#000" d="M48 129v1h-1v1h-1l-1 4h2v2h-2l-1 5h-3l1-5h-3l-1 5h-3l1-5h-2v-2h2v-4h-1v-1l-1-1 1-1h2v-4l1-1h2v5h3v-4h1v-1h2v5h2v1zm-9 2v4h3l1-4z" aria-label="#"/><g stroke="#000"><path stroke-width="2.2" d="M61 119h30v30H61z"/><path stroke-width="2.3" d="m70 147-8-8v-11l8-8h11l8 8v11l-8 8z"/></g><path fill="#000" d="M82 129v1h-1v1h-1l-1 4h2v2h-2l-1 5h-3l1-5h-3l-1 5h-3l1-5h-2v-2h2v-4h-1v-1l-1-1 1-1h2v-4l1-1h2v5h3v-4h1v-1h2v5h2v1zm-9 2v4h3l1-4z" aria-label="#"/><g stroke="#000"><path stroke-width="2.2" d="M96 119h29v30H96z"/><path stroke-width="2.3" d="m104 147-8-8v-11l8-8h11l8 8v11l-8 8z"/></g><path fill="#000" d="M116 129v1h-1v1h-1l-1 4h2v2h-2l-1 5h-3l1-5h-3l-1 5h-3l1-5h-2v-2h2v-4h-1v-1l-1-1 1-1h2v-4l1-1h2v5h3v-4h1v-1h2v5h2v1zm-9 2v4h3l1-4z" aria-label="#"/><g stroke="#000"><path stroke-width="2.2" d="M130 119h29v30h-29z"/><path stroke-width="2.3" d="m138 147-7-8v-11l7-8h11l8 8v11l-8 8z"/></g><path fill="#000" d="M151 129v1h-1v1h-1l-1 4h2v2h-2l-1 5h-3l1-5h-3l-1 5h-3l1-5h-2v-2h2v-4h-1v-1l-1-1 1-1h2v-4l1-1h2v5h3v-4h1v-1h2v5h2v1zm-9 2v4h3l1-4z" aria-label="#"/><g stroke="#000"><path stroke-width="2.2" d="M164 119h30v30h-30z"/><path stroke-width="2.3" d="m173 147-8-8v-11l8-8h11l8 8v11l-8 8z"/></g><path fill="#000" d="M185 129v1h-1v1h-1l-1 4h2v2h-2l-1 5h-3l1-5h-3l-1 5h-3l1-5h-2v-2h2v-4h-1v-1l-1-1 1-1h2v-4l1-1h2v5h3v-4h1v-1h2v5h2v1zm-9 2v4h3l1-4z" aria-label="#"/><g stroke="#000"><path stroke-width="2.2" d="M199 119h29v30h-29z"/><path stroke-width="2.3" d="m207 147-8-8v-11l8-8h11l8 8v11l-8 8z"/></g><path fill="#000" d="M219 129v1h-1v1h-1l-1 4h2v2h-2l-1 5h-3l1-5h-3l-1 5h-3l1-5h-2v-2h2v-4h-1v-1l-1-1 1-1h2v-4l1-1h2v5h3v-4h1v-1h2v5h2v1zm-9 2v4h3l1-4z" aria-label="#"/><g stroke="#000"><path stroke-width="2.2" d="M233 119h29v30h-29z"/><path stroke-width="2.3" d="m241 147-7-8v-11l7-8h11l8 8v11l-8 8z"/></g><path fill="#000" d="M254 129v1h-1v1h-1l-1 4h2v2h-2l-1 5h-3l1-5h-3l-1 5h-3l1-5h-2v-2h2v-4h-1v-1l-1-1 1-1h2v-4l1-1h2v5h3v-4h1v-1h2v5h2v1zm-9 2v4h3l1-4z" aria-label="#"/><g stroke="#000"><path stroke-width="2.2" d="M27 154h29v29H27z"/><path stroke-width="2.3" d="m35 181-7-8v-11l7-7h11l8 7v11l-8 8z"/></g><path fill="#000" d="M48 163v1h-1v1h-1l-1 4h2v2h-2l-1 5h-3l1-5h-3l-1 5h-3l1-5h-2v-2h2v-4h-1v-1l-1-1 1-1h2v-4l1-1h2v5h3v-4h1v-1h2v5h2v1zm-9 2v4h3l1-4z" aria-label="#"/><g stroke="#000"><path stroke-width="2.2" d="M61 154h30v29H61z"/><path stroke-width="2.3" d="m70 181-8-8v-11l8-7h11l8 7v11l-8 8z"/></g><path fill="#000" d="M82 163v1h-1v1h-1l-1 4h2v2h-2l-1 5h-3l1-5h-3l-1 5h-3l1-5h-2v-2h2v-4h-1v-1l-1-1 1-1h2v-4l1-1h2v5h3v-4h1v-1h2v5h2v1zm-9 2v4h3l1-4z" aria-label="#"/><g stroke="#000"><path stroke-width="2.2" d="M96 154h29v29H96z"/><path stroke-width="2.3" d="m104 181-8-8v-11l8-7h11l8 7v11l-8 8z"/></g><path fill="#000" d="M116 163v1h-1v1h-1l-1 4h2v2h-2l-1 5h-3l1-5h-3l-1 5h-3l1-5h-2v-2h2v-4h-1v-1l-1-1 1-1h2v-4l1-1h2v5h3v-4h1v-1h2v5h2v1zm-9 2v4h3l1-4z" aria-label="#"/><g stroke="#000"><path stroke-width="2.2" d="M130 154h29v29h-29z"/><path stroke-width="2.3" d="m138 181-7-8v-11l7-7h11l8 7v11l-8 8z"/></g><path fill="#000" d="M151 163v1h-1v1h-1l-1 4h2v2h-2l-1 5h-3l1-5h-3l-1 5h-3l1-5h-2v-2h2v-4h-1v-1l-1-1 1-1h2v-4l1-1h2v5h3v-4h1v-1h2v5h2v1zm-9 2v4h3l1-4z" aria-label="#"/><g stroke="#000"><path stroke-width="2.2" d="M164 154h30v29h-30z"/><path stroke-width="2.3" d="m173 181-8-8v-11l8-7h11l8 7v11l-8 8z"/></g><path fill="#000" d="M185 163v1h-1v1h-1l-1 4h2v2h-2l-1 5h-3l1-5h-3l-1 5h-3l1-5h-2v-2h2v-4h-1v-1l-1-1 1-1h2v-4l1-1h2v5h3v-4h1v-1h2v5h2v1zm-9 2v4h3l1-4z" aria-label="#"/><g stroke="#000"><path stroke-width="2.2" d="M199 154h29v29h-29z"/><path stroke-width="2.3" d="m207 181-8-8v-11l8-7h11l8 7v11l-8 8z"/></g><path fill="#000" d="M219 163v1h-1v1h-1l-1 4h2v2h-2l-1 5h-3l1-5h-3l-1 5h-3l1-5h-2v-2h2v-4h-1v-1l-1-1 1-1h2v-4l1-1h2v5h3v-4h1v-1h2v5h2v1zm-9 2v4h3l1-4z" aria-label="#"/><g stroke="#000"><path stroke-width="2.2" d="M233 154h29v29h-29z"/><path stroke-width="2.3" d="m241 181-7-8v-11l7-7h11l8 7v11l-8 8z"/></g><path fill="#000" d="M254 163v1h-1v1h-1l-1 4h2v2h-2l-1 5h-3l1-5h-3l-1 5h-3l1-5h-2v-2h2v-4h-1v-1l-1-1 1-1h2v-4l1-1h2v5h3v-4h1v-1h2v5h2v1zm-9 2v4h3l1-4z" aria-label="#"/><g stroke="#000"><path stroke-width="2.2" d="M27 188h29v29H27z"/><path stroke-width="2.3" d="m35 216-7-8v-11l7-8h11l8 8v11l-8 8z"/></g><path fill="#000" d="M48 197v1h-1v1h-1l-1 4h2v2h-2l-1 5h-3l1-5h-3l-1 5h-3l1-5h-2v-2h2v-4h-1v-1l-1-1 1-1h2v-4l1-1h2v5h3v-4h1v-1h2v5h2v1zm-9 2v4h3l1-4z" aria-label="#"/><g stroke="#000"><path stroke-width="2.2" d="M61 188h30v29H61z"/><path stroke-width="2.3" d="m70 216-8-8v-11l8-8h11l8 8v11l-8 8z"/></g><path fill="#000" d="M82 197v1h-1v1h-1l-1 4h2v2h-2l-1 5h-3l1-5h-3l-1 5h-3l1-5h-2v-2h2v-4h-1v-1l-1-1 1-1h2v-4l1-1h2v5h3v-4h1v-1h2v5h2v1zm-9 2v4h3l1-4z" aria-label="#"/><g stroke="#000"><path stroke-width="2.2" d="M96 188h29v29H96z"/><path stroke-width="2.3" d="m104 216-8-8v-11l8-8h11l8 8v11l-8 8z"/></g><path fill="#000" d="M116 197v1h-1v1h-1l-1 4h2v2h-2l-1 5h-3l1-5h-3l-1 5h-3l1-5h-2v-2h2v-4h-1v-1l-1-1 1-1h2v-4l1-1h2v5h3v-4h1v-1h2v5h2v1zm-9 2v4h3l1-4z" aria-label="#"/><g stroke="#000"><path stroke-width="2.2" d="M130 188h29v29h-29z"/><path stroke-width="2.3" d="m138 216-7-8v-11l7-8h11l8 8v11l-8 8z"/></g><path fill="#000" d="M151 197v1h-1v1h-1l-1 4h2v2h-2l-1 5h-3l1-5h-3l-1 5h-3l1-5h-2v-2h2v-4h-1v-1l-1-1 1-1h2v-4l1-1h2v5h3v-4h1v-1h2v5h2v1zm-9 2v4h3l1-4z" aria-label="#"/><g stroke="#000"><path stroke-width="2.2" d="M164 188h30v29h-30z"/><path stroke-width="2.3" d="m173 216-8-8v-11l8-8h11l8 8v11l-8 8z"/></g><path fill="#000" d="M185 197v1h-1v1h-1l-1 4h2v2h-2l-1 5h-3l1-5h-3l-1 5h-3l1-5h-2v-2h2v-4h-1v-1l-1-1 1-1h2v-4l1-1h2v5h3v-4h1v-1h2v5h2v1zm-9 2v4h3l1-4z" aria-label="#"/><g stroke="#000"><path stroke-width="2.2" d="M199 188h29v29h-29z"/><path stroke-width="2.3" d="m207 216-8-8v-11l8-8h11l8 8v11l-8 8z"/></g><path fill="#000" d="M219 197v1h-1v1h-1l-1 4h2v2h-2l-1 5h-3l1-5h-3l-1 5h-3l1-5h-2v-2h2v-4h-1v-1l-1-1 1-1h2v-4l1-1h2v5h3v-4h1v-1h2v5h2v1zm-9 2v4h3l1-4z" aria-label="#"/><g stroke="#000"><path stroke-width="2.2" d="M233 188h29v29h-29z"/><path stroke-width="2.3" d="m241 216-7-8v-11l7-8h11l8 8v11l-8 8z"/></g><path fill="#000" d="M254 197v1h-1v1h-1l-1 4h2v2h-2l-1 5h-3l1-5h-3l-1 5h-3l1-5h-2v-2h2v-4h-1v-1l-1-1 1-1h2v-4l1-1h2v5h3v-4h1v-1h2v5h2v1zm-9 2v4h3l1-4z" aria-label="#"/><g stroke="#000"><path stroke-width="2.2" d="M27 223h29v29H27z"/><path stroke-width="2.3" d="m35 250-7-8v-11l7-8h11l8 8v11l-8 8z"/></g><path fill="#000" d="M48 232v1h-1v1h-1l-1 4h2v2h-2l-1 5h-3l1-5h-3l-1 5h-3l1-5h-2v-2h2v-4h-1v-1l-1-1 1-1h2v-4l1-1h2v5h3v-4h1v-1h2v5h2v1zm-9 2v4h3l1-4z" aria-label="#"/><g stroke="#000"><path stroke-width="2.2" d="M61 223h30v29H61z"/><path stroke-width="2.3" d="m70 250-8-8v-11l8-8h11l8 8v11l-8 8z"/></g><path fill="#000" d="M82 232v1h-1v1h-1l-1 4h2v2h-2l-1 5h-3l1-5h-3l-1 5h-3l1-5h-2v-2h2v-4h-1v-1l-1-1 1-1h2v-4l1-1h2v5h3v-4h1v-1h2v5h2v1zm-9 2v4h3l1-4z" aria-label="#"/><path stroke="#000" stroke-width="2.2" d="M95 222h29v29H95z"/><path fill="#000" stroke="#000" stroke-width="2.3" d="m104 250-8-8v-11l8-8h11l8 8v11l-8 8z"/><path fill="#fff" d="M116 232v1h-1v1h-1l-1 4h2v2h-2l-1 5h-3l1-5h-3l-1 5h-3l1-5h-2v-2h2v-4h-1v-1l-1-1 1-1h2v-4l1-1h2v5h3v-4h1v-1h2v5h2v1zm-9 2v4h3l1-4z" aria-label="#"/><g stroke="#000"><path stroke-width="2.2" d="M130 223h29v29h-29z"/><path stroke-width="2.3" d="m138 250-7-8v-11l7-8h11l8 8v11l-8 8z"/></g><path fill="#000" d="M151 232v1h-1v1h-1l-1 4h2v2h-2l-1 5h-3l1-5h-3l-1 5h-3l1-5h-2v-2h2v-4h-1v-1l-1-1 1-1h2v-4l1-1h2v5h3v-4h1v-1h2v5h2v1zm-9 2v4h3l1-4z" aria-label="#"/><g stroke="#000"><path stroke-width="2.2" d="M164 223h30v29h-30z"/><path stroke-width="2.3" d="m173 250-8-8v-11l8-8h11l8 8v11l-8 8z"/></g><path fill="#000" d="M185 232v1h-1v1h-1l-1 4h2v2h-2l-1 5h-3l1-5h-3l-1 5h-3l1-5h-2v-2h2v-4h-1v-1l-1-1 1-1h2v-4l1-1h2v5h3v-4h1v-1h2v5h2v1zm-9 2v4h3l1-4z" aria-label="#"/><g stroke="#000"><path stroke-width="2.2" d="M199 223h29v29h-29z"/><path stroke-width="2.3" d="m207 250-8-8v-11l8-8h11l8 8v11l-8 8z"/></g><path fill="#000" d="M219 232v1h-1v1h-1l-1 4h2v2h-2l-1 5h-3l1-5h-3l-1 5h-3l1-5h-2v-2h2v-4h-1v-1l-1-1 1-1h2v-4l1-1h2v5h3v-4h1v-1h2v5h2v1zm-9 2v4h3l1-4z" aria-label="#"/><g stroke="#000"><path stroke-width="2.2" d="M233 223h29v29h-29z"/><path stroke-width="2.3" d="m241 250-7-8v-11l7-8h11l8 8v11l-8 8z"/></g><path fill="#000" d="M254 232v1h-1v1h-1l-1 4h2v2h-2l-1 5h-3l1-5h-3l-1 5h-3l1-5h-2v-2h2v-4h-1v-1l-1-1 1-1h2v-4l1-1h2v5h3v-4h1v-1h2v5h2v1zm-9 2v4h3l1-4z" aria-label="#"/><g stroke="#000"><path stroke-width="2.2" d="M27 257h29v29H27z"/><path stroke-width="2.3" d="m35 284-7-7v-12l7-7h11l8 7v12l-8 7z"/></g><path fill="#000" d="M48 266v1h-1v1h-1l-1 4h2v2h-2l-1 5h-3l1-5h-3l-1 5h-3l1-5h-2v-2h2v-4h-1v-1l-1-1 1-1h2v-4l1-1h2v5h3v-4h1v-1h2v5h2v1zm-9 2v4h3l1-4z" aria-label="#"/><g stroke="#000"><path stroke-width="2.2" d="M61 257h30v29H61z"/><path stroke-width="2.3" d="m70 284-8-7v-12l8-7h11l8 7v12l-8 7z"/></g><path fill="#000" d="M82 266v1h-1v1h-1l-1 4h2v2h-2l-1 5h-3l1-5h-3l-1 5h-3l1-5h-2v-2h2v-4h-1v-1l-1-1 1-1h2v-4l1-1h2v5h3v-4h1v-1h2v5h2v1zm-9 2v4h3l1-4z" aria-label="#"/><g stroke="#000"><path stroke-width="2.2" d="M96 257h29v29H96z"/><path stroke-width="2.3" d="m104 284-8-7v-12l8-7h11l8 7v12l-8 7z"/></g><path fill="#000" d="M116 266v1h-1v1h-1l-1 4h2v2h-2l-1 5h-3l1-5h-3l-1 5h-3l1-5h-2v-2h2v-4h-1v-1l-1-1 1-1h2v-4l1-1h2v5h3v-4h1v-1h2v5h2v1zm-9 2v4h3l1-4z" aria-label="#"/><g stroke="#000"><path stroke-width="2.2" d="M130 257h29v29h-29z"/><path stroke-width="2.3" d="m138 284-7-7v-12l7-7h11l8 7v12l-8 7z"/></g><path fill="#000" d="M151 266v1h-1v1h-1l-1 4h2v2h-2l-1 5h-3l1-5h-3l-1 5h-3l1-5h-2v-2h2v-4h-1v-1l-1-1 1-1h2v-4l1-1h2v5h3v-4h1v-1h2v5h2v1zm-9 2v4h3l1-4z" aria-label="#"/><g stroke="#000"><path stroke-width="2.2" d="M164 257h30v29h-30z"/><path stroke-width="2.3" d="m173 284-8-7v-12l8-7h11l8 7v12l-8 7z"/></g><path fill="#000" d="M185 266v1h-1v1h-1l-1 4h2v2h-2l-1 5h-3l1-5h-3l-1 5h-3l1-5h-2v-2h2v-4h-1v-1l-1-1 1-1h2v-4l1-1h2v5h3v-4h1v-1h2v5h2v1zm-9 2v4h3l1-4z" aria-label="#"/><g stroke="#000"><path stroke-width="2.2" d="M199 257h29v29h-29z"/><path stroke-width="2.3" d="m207 284-8-7v-12l8-7h11l8 7v12l-8 7z"/></g><path fill="#000" d="M219 266v1h-1v1h-1l-1 4h2v2h-2l-1 5h-3l1-5h-3l-1 5h-3l1-5h-2v-2h2v-4h-1v-1l-1-1 1-1h2v-4l1-1h2v5h3v-4h1v-1h2v5h2v1zm-9 2v4h3l1-4z" aria-label="#"/><g stroke="#000"><path stroke-width="2.2" d="M233 257h29v29h-29z"/><path stroke-width="2.3" d="m241 284-7-7v-12l7-7h11l8 7v12l-8 7z"/></g><path fill="#000" d="M254 266v1h-1v1h-1l-1 4h2v2h-2l-1 5h-3l1-5h-3l-1 5h-3l1-5h-2v-2h2v-4h-1v-1l-1-1 1-1h2v-4l1-1h2v5h3v-4h1v-1h2v5h2v1zm-9 2v4h3l1-4z" aria-label="#"/><g stroke="#000"><path stroke-width="2.2" d="M27 291h29v30H27z"/><path stroke-width="2.3" d="m35 319-7-8v-11l7-8h11l8 8v11l-8 8z"/></g><path fill="#000" d="M48 300v1h-1v1h-1l-1 4h2v2h-2l-1 5h-3l1-5h-3l-1 5h-3l1-5h-2v-2h2v-4h-1v-1l-1-1 1-1h2v-4l1-1h2v5h3v-4h1v-1h2v5h2v1zm-9 2v4h3l1-4z" aria-label="#"/><g stroke="#000"><path stroke-width="2.2" d="M61 291h30v30H61z"/><path stroke-width="2.3" d="m70 319-8-8v-11l8-8h11l8 8v11l-8 8z"/></g><path fill="#000" d="M82 300v1h-1v1h-1l-1 4h2v2h-2l-1 5h-3l1-5h-3l-1 5h-3l1-5h-2v-2h2v-4h-1v-1l-1-1 1-1h2v-4l1-1h2v5h3v-4h1v-1h2v5h2v1zm-9 2v4h3l1-4z" aria-label="#"/><g stroke="#000"><path stroke-width="2.2" d="M96 291h29v30H96z"/><path stroke-width="2.3" d="m104 319-8-8v-11l8-8h11l8 8v11l-8 8z"/></g><path fill="#000" d="M116 300v1h-1v1h-1l-1 4h2v2h-2l-1 5h-3l1-5h-3l-1 5h-3l1-5h-2v-2h2v-4h-1v-1l-1-1 1-1h2v-4l1-1h2v5h3v-4h1v-1h2v5h2v1zm-9 2v4h3l1-4z" aria-label="#"/><g stroke="#000"><path stroke-width="2.2" d="M130 291h29v30h-29z"/><path stroke-width="2.3" d="m138 319-7-8v-11l7-8h11l8 8v11l-8 8z"/></g><path fill="#000" d="M151 300v1h-1v1h-1l-1 4h2v2h-2l-1 5h-3l1-5h-3l-1 5h-3l1-5h-2v-2h2v-4h-1v-1l-1-1 1-1h2v-4l1-1h2v5h3v-4h1v-1h2v5h2v1zm-9 2v4h3l1-4z" aria-label="#"/><g stroke="#000"><path stroke-width="2.2" d="M164 291h30v30h-30z"/><path stroke-width="2.3" d="m173 319-8-8v-11l8-8h11l8 8v11l-8 8z"/></g><path fill="#000" d="M185 300v1h-1v1h-1l-1 4h2v2h-2l-1 5h-3l1-5h-3l-1 5h-3l1-5h-2v-2h2v-4h-1v-1l-1-1 1-1h2v-4l1-1h2v5h3v-4h1v-1h2v5h2v1zm-9 2v4h3l1-4z" aria-label="#"/><g stroke="#000"><path stroke-width="2.2" d="M199 291h29v30h-29z"/><path stroke-width="2.3" d="m207 319-8-8v-11l8-8h11l8 8v11l-8 8z"/></g><path fill="#000" d="M219 300v1h-1v1h-1l-1 4h2v2h-2l-1 5h-3l1-5h-3l-1 5h-3l1-5h-2v-2h2v-4h-1v-1l-1-1 1-1h2v-4l1-1h2v5h3v-4h1v-1h2v5h2v1zm-9 2v4h3l1-4z" aria-label="#"/><g stroke="#000"><path stroke-width="2.2" d="M233 291h29v30h-29z"/><path stroke-width="2.3" d="m241 319-7-8v-11l7-8h11l8 8v11l-8 8z"/></g><path fill="#000" d="M254 300v1h-1v1h-1l-1 4h2v2h-2l-1 5h-3l1-5h-3l-1 5h-3l1-5h-2v-2h2v-4h-1v-1l-1-1 1-1h2v-4l1-1h2v5h3v-4h1v-1h2v5h2v1zm-9 2v4h3l1-4z" aria-label="#"/><path fill="#000" d="M68 13h144v59H68z"/><path fill="#fff" d="M138 38v1l-1 1h-3l-2 1-1 2v3h7v2l-1 1h-5l-1 1-1 1v4l-1 1v7l-1 1v1l-2 1-1-1v-1l-1-1 1-1v-3h1v-8h-5v1h-1v4l-1 1v8l-1 1-1 1h-2l-1-1v-3l1-2v-3l1-1v-4h-4l-1-1v-2h1l1-1h3l1-1v-1l1-1v-3h-6v-3h2l1-1h3l1-1V25l1-2h3l1 2 1 1-1 1v5l-1 1v4l-1 1 1 1h1l1-1h3l1-1v-2l1-1V23l1-1h2l1 1v7l-1 1v4l-1 1v1h3l1-1h1l1 1v1zm-10 3h-4l-1 1h-1v4h-1v1l1 1h3l1-1h1v-1l1-1v-4zm44-9v1l-1 1h-1l-2 1h-3v2l-1 2v2h3l1-1h1l1 1h1v2l-1 1h-6l-1 2v6l-1 1v5l-1 1v1h-3v-5l1-1v-7l1-1h-6l-1 1v5l-1 1 1 1v1l-1 1v4l-1 1-1 1h-2l-1-1v-3l1-2v-2l1-2v-3l1-1-1-1h-2l-1 1h-1l-1-1v-2l1-1h5v-1l1-1v-4h-6v-3h1l1-1h5V21l1-1v-2l2-1 2 1v1l1 1v1l-1 2v4l-1 1v3l-1 1 1 1h5l1-1v-3h1V18l1-1 1-1 1 1 1 1 1 1v1l-1 1v5l-1 1v4h-1l1 1h1l1-1h3v1h1zm-11 4h-3l-2 1h-1v4l-1 1 1 1h2l1-1h2l1-1v-5z" aria-label="##"/></svg>