<svg xmlns="http://www.w3.org/2000/svg" xmlns:xlink="http://www.w3.org/1999/xlink" fill="none" stroke-linecap="square" stroke-miterlimit="10" viewBox="0 0 348 348"><clipPath id="a"><path d="M0 0h348v348H0V0z"/></clipPath><g clip-path="url(#a)" transform="rotate(180 171 174)"><path d="M0 0h348v348H0z"/><path d="M5.079 5.776h336.913v337.67H5.08z"/><path fill="#fff" stroke="#000" stroke-linecap="butt" stroke-linejoin="round" stroke-width="2" d="M1.544 5.165h336.913v337.67H1.545z"/><path fill="#fff" d="M282.734 40.554c0-8.376 6.966-15.165 15.56-15.165 4.126 0 8.084 1.597 11.001 4.441 2.918 2.844 4.558 6.702 4.558 10.724 0 8.376-6.966 15.165-15.56 15.165-8.593 0-15.559-6.79-15.559-15.165z"/><path stroke="#000" stroke-linecap="butt" stroke-linejoin="round" stroke-width="2" d="M282.734 40.554c0-8.376 6.966-15.165 15.56-15.165 4.126 0 8.084 1.597 11.001 4.441 2.918 2.844 4.558 6.702 4.558 10.724 0 8.376-6.966 15.165-15.56 15.165-8.593 0-15.559-6.79-15.559-15.165z"/><path fill="#000" d="M285.842 342.787h-10V208.025h10z" opacity=".98"/><ellipse cx="-280.842" cy="-172.923" fill="#fff" stroke="#000" stroke-miterlimit="4" stroke-width="10" opacity=".98" rx="37.952" ry="49.796" transform="scale(-1)"/><path fill="#fff" stroke="#000" stroke-miterlimit="4" stroke-width="2.432" d="M227.43 296.393H34.915V250.68H227.43z"/><path id="b" fill="#000" stroke-miterlimit="4" stroke-width="1.853" d="M-225.282-222.837h32v25h-32z" transform="scale(-1)"/><path fill="#fff" stroke="#000" stroke-miterlimit="4" stroke-width="2.432" d="M227.43 93.293H34.915V47.58H227.43z"/><use width="100%" height="100%" xlink:href="#b"/><use width="100%" height="100%" transform="translate(0 -42.08)" xlink:href="#b"/><use width="100%" height="100%" transform="translate(0 -84.16)" xlink:href="#b"/><use width="100%" height="100%" transform="translate(-52.16)" xlink:href="#b"/><use width="100%" height="100%" transform="translate(-52.16 -42.08)" xlink:href="#b"/><use width="100%" height="100%" transform="translate(-52.16 -84.16)" xlink:href="#b"/><use width="100%" height="100%" transform="translate(-104.32)" xlink:href="#b"/><use width="100%" height="100%" transform="translate(-104.32 -42.08)" xlink:href="#b"/><use width="100%" height="100%" transform="translate(-104.32 -84.16)" xlink:href="#b"/><use width="100%" height="100%" transform="translate(-156.48)" xlink:href="#b"/><use width="100%" height="100%" transform="translate(-156.48 -42.08)" xlink:href="#b"/><use width="100%" height="100%" transform="translate(-156.48 -84.16)" xlink:href="#b"/><text x="-131.269" y="-266.742" fill="#000" stroke-linecap="butt" font-family="sans-serif" font-size="18.667" font-weight="400" letter-spacing="0" style="line-height:125%;text-align:center" text-anchor="middle" transform="scale(-1)" word-spacing="0"><tspan x="-131.269" y="-266.742">SEND <tspan>SUPPLY</tspan> SHIPS</tspan></text><text x="-131.269" y="-63.641" fill="#000" stroke-linecap="butt" font-family="sans-serif" font-size="27.5" font-weight="400" letter-spacing="0" style="line-height:125%;text-align:center" text-anchor="middle" transform="scale(-1)" word-spacing="0"><tspan x="-131.269" y="-63.641" font-size="18.667">SEND SUBMARINES</tspan></text></g></svg>