<svg height="512" width="512" fill="none" xmlns="http://www.w3.org/2000/svg"><path style="fill:none;fill-rule:evenodd;stroke:#000;stroke-width:4;stroke-miterlimit:4;stroke-dasharray:none;fill-opacity:1" d="M18 18h476v476H18Z"/><text xml:space="preserve" style="font-size:53.3333px;line-height:1;font-family:Oxanium;-inkscape-font-specification:Oxanium;text-align:center;letter-spacing:0;word-spacing:0;writing-mode:lr-tb;text-anchor:middle;fill:#000;fill-opacity:1" x="104" y="-132"/><path style="fill:none;fill-rule:evenodd;stroke:#000;stroke-width:5.54727;stroke-miterlimit:4;stroke-dasharray:none" transform="rotate(-45)" d="M227.426 323.583h76.912v76.912h-76.912z"/><path style="fill:none;stroke:#000;stroke-width:6.56384;stroke-miterlimit:4;stroke-dasharray:none" transform="rotate(135)" d="M14.383-194.729H72.99v58.607H14.383z"/><path style="fill:none;stroke:#000;stroke-width:6.56384;stroke-miterlimit:4;stroke-dasharray:none" transform="rotate(45)" d="M135.693-72.561H194.3v58.607h-58.607z"/><path style="fill:none;stroke:#000;stroke-width:5.21269;stroke-miterlimit:4;stroke-dasharray:none" transform="scale(-1.00656 -.9934) rotate(-45)" d="M90.753-500.962h46.543v46.543H90.753zM90.753-454.419h46.543v46.543H90.753zM90.753-407.876h46.543v46.543H90.753z"/><path style="fill:none;stroke:#000;stroke-width:5.21269;stroke-miterlimit:4;stroke-dasharray:none" transform="scale(-1.00656 -.9934) rotate(-45)" d="M90.753-361.333h46.543v46.543H90.753zM90.753-314.79h46.543v46.543H90.753zM90.753-268.247h46.543v46.543H90.753zM44.21-500.962h46.543v46.543H44.21zM44.21-454.419h46.543v46.543H44.21zM44.21-407.876h46.543v46.543H44.21z"/><path style="fill:none;stroke:#000;stroke-width:5.21269;stroke-miterlimit:4;stroke-dasharray:none" transform="scale(-1.00656 -.9934) rotate(-45)" d="M44.21-361.333h46.543v46.543H44.21zM44.21-314.79h46.543v46.543H44.21zM44.21-268.247h46.543v46.543H44.21zM-2.333-500.962H44.21v46.543H-2.333zM-2.333-454.419H44.21v46.543H-2.333zM-2.333-407.876H44.21v46.543H-2.333z"/><path style="fill:none;stroke:#000;stroke-width:5.21269;stroke-miterlimit:4;stroke-dasharray:none" transform="scale(-1.00656 -.9934) rotate(-45)" d="M-2.333-361.333H44.21v46.543H-2.333zM-2.333-314.79H44.21v46.543H-2.333zM-2.333-268.247H44.21v46.543H-2.333zM-2.333-500.962H44.21v46.543H-2.333zM-2.333-454.419H44.21v46.543H-2.333z"/><path style="fill:none;stroke:#000;stroke-width:5.21269;stroke-miterlimit:4;stroke-dasharray:none" transform="scale(-1.00656 -.9934) rotate(-45)" d="M-2.333-407.876H44.21v46.543H-2.333z"/><path style="fill:none;stroke:#000;stroke-width:5.21269;stroke-miterlimit:4;stroke-dasharray:none" transform="scale(-1.00656 -.9934) rotate(-45)" d="M-2.333-361.333H44.21v46.543H-2.333zM-2.333-314.79H44.21v46.543H-2.333zM-2.333-268.247H44.21v46.543H-2.333zM-48.876-500.962h46.543v46.543h-46.543zM-48.876-454.419h46.543v46.543h-46.543z"/><path style="fill:none;stroke:#000;stroke-width:5.21269;stroke-miterlimit:4;stroke-dasharray:none" transform="scale(-1.00656 -.9934) rotate(-45)" d="M-48.876-407.876h46.543v46.543h-46.543z"/><path style="fill:none;stroke:#000;stroke-width:5.21269;stroke-miterlimit:4;stroke-dasharray:none" transform="scale(-1.00656 -.9934) rotate(-45)" d="M-48.876-361.333h46.543v46.543h-46.543zM-48.876-314.79h46.543v46.543h-46.543zM-48.876-268.247h46.543v46.543h-46.543zM-95.419-500.962h46.543v46.543h-46.543zM-95.419-454.419h46.543v46.543h-46.543zM-95.419-407.876h46.543v46.543h-46.543z"/><path style="fill:none;stroke:#000;stroke-width:5.21269;stroke-miterlimit:4;stroke-dasharray:none" transform="scale(-1.00656 -.9934) rotate(-45)" d="M-95.419-361.333h46.543v46.543h-46.543zM-95.419-314.79h46.543v46.543h-46.543zM-95.419-268.247h46.543v46.543h-46.543zM-141.962-500.962h46.543v46.543h-46.543zM-141.962-454.419h46.543v46.543h-46.543z"/><path style="fill:none;stroke:#000;stroke-width:5.21269;stroke-miterlimit:4;stroke-dasharray:none" transform="scale(-1.00656 -.9934) rotate(-45)" d="M-141.962-407.876h46.543v46.543h-46.543z"/><path style="fill:none;stroke:#000;stroke-width:5.21269;stroke-miterlimit:4;stroke-dasharray:none" transform="scale(-1.00656 -.9934) rotate(-45)" d="M-141.962-361.333h46.543v46.543h-46.543zM-141.962-314.79h46.543v46.543h-46.543zM-141.962-268.247h46.543v46.543h-46.543zM-141.962-500.962h46.543v46.543h-46.543zM-141.962-454.419h46.543v46.543h-46.543z"/><path style="fill:none;stroke:#000;stroke-width:5.21269;stroke-miterlimit:4;stroke-dasharray:none" transform="scale(-1.00656 -.9934) rotate(-45)" d="M-141.962-407.876h46.543v46.543h-46.543z"/><path style="fill:none;stroke:#000;stroke-width:5.21269;stroke-miterlimit:4;stroke-dasharray:none" transform="scale(-1.00656 -.9934) rotate(-45)" d="M-141.962-361.333h46.543v46.543h-46.543zM-141.962-314.79h46.543v46.543h-46.543zM-141.962-268.247h46.543v46.543h-46.543z"/></svg>