<svg viewBox="0 0 348 348" xmlns="http://www.w3.org/2000/svg"><circle cx="305" cy="40" r="15" fill="none" stroke="#000" stroke-width="2"/><circle cx="242" cy="100" r="25" fill="none" stroke="#000" stroke-width="2"/><circle cx="90" cy="84" r="45" fill="none" stroke="#000" stroke-width="2"/><circle cx="88" cy="255" r="45" fill="none" stroke="#000" stroke-width="2"/><circle cx="253" cy="255" r="45" fill="none" stroke="#000" stroke-width="2"/><path d="M4 174.5V344h339V5H4v169.5zm337 0V342H6V7h335v167.5z"/><g style="line-height:1.25" stroke-width="1.7"><path d="M95.8 109.1h-6.2v-39q-2.2 2.2-5.8 4.3-3.5 2-6.4 3.1v-5.9q5.1-2.4 9-5.8 3.8-3.4 5.4-6.7h4z" aria-label="1"/></g><path d="M105.9 280.2H71.6V273l7.2-6.1q3.6-3 6.7-6.1 6.5-6.3 8.9-10 2.4-3.8 2.4-8 0-4-2.6-6.2-2.6-2.3-7.3-2.3-3 0-6.6 1.1-3.6 1.1-7 3.4h-.4v-7.2q2.4-1.2 6.4-2.1 4-1 7.8-1 7.8 0 12.2 3.7 4.4 3.8 4.4 10.2 0 2.9-.7 5.4-.7 2.5-2.2 4.7-1.3 2.1-3 4.2l-4.4 4.5q-3.6 3.5-7.5 6.9l-7.2 6.2h27.2z" aria-label="2" style="line-height:1.25"/><path d="M268 255.2q1.5 1.4 2.6 3.6 1 2.2 1 5.7t-1.2 6.4q-1.3 2.9-3.5 5-2.6 2.4-6 3.6-3.5 1-7.6 1-4.2 0-8.3-1-4-1-6.7-2.1v-7.1h.5q3 1.9 6.8 3.1 4 1.3 7.6 1.3 2.1 0 4.5-.7t4-2.1q1.5-1.5 2.2-3.3.8-1.8.8-4.6 0-2.7-.9-4.4-.8-1.8-2.3-2.9-1.6-1-3.7-1.4-2.2-.4-4.7-.4h-3v-5.6h2.3q5.2 0 8.2-2.2 3.1-2.1 3.1-6.3 0-1.8-.8-3.2-.8-1.4-2.2-2.3-1.4-.8-3-1.2-1.7-.3-3.9-.3-3.2 0-6.8 1.1-3.6 1.2-6.9 3.3h-.3V231q2.4-1.2 6.4-2.2 4-1 7.8-1 3.7 0 6.5.7 2.9.7 5.1 2.2 2.5 1.6 3.7 3.9 1.3 2.3 1.3 5.4 0 4.2-3 7.4-3 3-7 3.9v.5q1.6.2 3.7 1.1 2.1.9 3.6 2.2z" aria-label="3" style="line-height:1.25"/><path d="M251.3 104.6q0 3-2.5 5t-6.8 2q-2.4 0-4.5-.6-2-.6-3.4-1.3v-4.2h.2q1.7 1.3 3.9 2.1 2.1.8 4.1.8 2.5 0 3.9-.8 1.3-.8 1.3-2.5 0-1.3-.7-2-.8-.6-2.9-1.1l-2-.4-2.4-.5q-2.9-.8-4.1-2.3-1.2-1.5-1.2-3.7 0-1.3.5-2.6.6-1.2 1.7-2.1 1.2-1 2.9-1.5t3.8-.5q2 0 4 .5 2 .4 3.4 1.1v4h-.2q-1.5-1-3.5-1.7-2-.8-4-.8t-3.4.8q-1.4.8-1.4 2.3 0 1.4.8 2 .9.8 2.7 1.2l2.3.5 2.1.4q2.6.6 4 2 1.4 1.5 1.4 4z" aria-label="s" style="line-height:1.25"/><path d="m159.9 130 33.2-.1v18.4h17.3v32.5h-17.7v17.5h-33v-17.7h-17.8v-33h18z"/></svg>