<svg xmlns="http://www.w3.org/2000/svg" fill="none" viewBox="0 0 348 348"><path stroke="#fff" stroke-width="2" d="M5 5.8h337v337.7H5z"/><path stroke="#fff" stroke-width="2" d="M282.7 40.5c0-8.3 7-15.1 15.6-15.1 4.1 0 8 1.6 11 4.4a15 15 0 0 1 4.6 10.7c0 8.4-7 15.2-15.6 15.2s-15.6-6.8-15.6-15.2Zm-242 24.1H244v63.2H40.7z"/><path fill="#fff" stroke="#fff" d="M74.1 85.3q0-3.6.7-5.7.8-2.2 2.2-3.4 1.5-1.2 3.7-1.2 1.6 0 2.8.7 1.2.6 2 1.9.8 1.2 1.2 3 .5 1.7.5 4.7 0 3.5-.7 5.7-.8 2.1-2.2 3.3-1.4 1.2-3.6 1.2-3 0-4.6-2-2-2.6-2-8.2zm2.5 0q0 5 1.2 6.5 1.2 1.7 2.9 1.7t2.8-1.7q1.2-1.6 1.2-6.5 0-5-1.2-6.6-1.2-1.6-2.9-1.6T78 78.5q-1.3 1.8-1.3 6.8zm13 0q0-3.6.8-5.7.8-2.2 2.2-3.4Q94 75 96.2 75q1.6 0 2.9.7 1.2.6 2 1.9.8 1.2 1.2 3 .5 1.7.5 4.7 0 3.5-.8 5.7-.7 2.1-2.1 3.3-1.5 1.2-3.7 1.2-2.9 0-4.5-2-2-2.6-2-8.2zm2.6 0q0 5 1.2 6.5 1.1 1.7 2.8 1.7t2.9-1.7q1.1-1.6 1.1-6.5 0-5-1.1-6.6-1.2-1.6-3-1.6-1.6 0-2.6 1.4-1.3 1.8-1.3 6.8zm14.4-1.9v-2.8h2.8v2.8Zm0 11.8v-2.8h2.8v2.8zm6.4-10q0-3.5.8-5.6.7-2.2 2.1-3.4 1.5-1.2 3.7-1.2 1.6 0 2.8.7 1.2.6 2 1.9.8 1.2 1.3 3 .4 1.7.4 4.7 0 3.5-.7 5.7-.7 2.1-2.2 3.3-1.4 1.2-3.6 1.2-3 0-4.6-2-2-2.6-2-8.2zm2.6 0q0 5 1.1 6.6 1.2 1.7 2.9 1.7t2.8-1.7q1.2-1.6 1.2-6.5 0-5-1.2-6.6-1.1-1.6-2.9-1.6-1.7 0-2.7 1.4-1.2 1.8-1.2 6.8zm13 0q0-3.5.7-5.6.8-2.2 2.2-3.4 1.5-1.2 3.6-1.2 1.7 0 2.9.7 1.2.6 2 1.9.8 1.2 1.2 3 .5 1.7.5 4.7 0 3.5-.7 5.7-.8 2.1-2.2 3.3-1.5 1.2-3.7 1.2-2.9 0-4.5-2-2-2.6-2-8.2zm2.5 0q0 5 1.2 6.6 1.2 1.7 2.8 1.7 1.7 0 2.9-1.7 1.2-1.6 1.2-6.5 0-5-1.2-6.6-1.2-1.6-2.9-1.6t-2.7 1.4q-1.3 1.8-1.3 6.8z" transform="matrix(1.96 0 0 1.8 -69.78 -58.03)"/><path fill="#fff" stroke="#fff" d="m121.3 34.6 10.4 21.6h-20.9zm44 0 10.4 21.6h-20.9zm31 0 10.4 21.6h-20.9z"/><path stroke="#fff" stroke-width="2" d="m40.7 219.3 259-1.3v63l-259 1.3z"/><path fill="#fff" d="m70.3 253.5 2.5-.2q.2 1.5.8 2.5.7 1 2 1.5 1.4.6 3.1.6 1.5 0 2.7-.4 1.1-.5 1.7-1.2.6-.8.6-1.8T83 253q-.5-.7-1.8-1.2l-3.5-1q-2.8-.6-3.9-1.2-1.4-.8-2.1-1.9-.7-1.1-.7-2.5 0-1.5.8-2.8.9-1.3 2.5-2 1.7-.7 3.7-.7 2.2 0 4 .7 1.6.7 2.6 2.1t1 3.2l-2.6.2q-.2-2-1.4-2.9-1.2-1-3.5-1-2.4 0-3.5 1-1 .8-1 2 0 1.1.7 1.8.8.7 4 1.5t4.4 1.2q1.8.8 2.6 2 .8 1.3.8 3 0 1.5-.9 3-.9 1.3-2.6 2.1-1.7.8-3.9.8-2.7 0-4.5-.8-1.9-.8-3-2.4-1-1.6-1-3.6m25.2 6.5v-8.5L87.7 240H91l4 6 2 3.5 2.2-3.6 3.9-5.9h3l-8 11.6v8.5zm13 0v-20h2.7l10.6 15.7V240h2.5v20h-2.7L111 244.3V260zm34.6-7 2.6.6q-.8 3.3-3 5-2.1 1.7-5.3 1.7-3.2 0-5.3-1.3-2-1.3-3-3.8-1.1-2.5-1.1-5.4 0-3.1 1.2-5.5 1.2-2.3 3.4-3.5 2.2-1.2 4.9-1.2 3 0 5 1.5 2 1.6 2.9 4.3l-2.6.6q-.7-2.1-2-3.1t-3.4-1q-2.3 0-3.9 1-1.5 1.2-2.1 3-.7 2-.7 3.9 0 2.5.8 4.5.7 1.9 2.3 2.8 1.6 1 3.4 1 2.2 0 3.8-1.3t2-3.9m6 7v-20h2.7v8.3H162V240h2.7v20H162v-9.4h-10.4v9.5zm20.3 0v-20h8.8q2.7 0 4.1.6t2.2 1.9.9 3q0 2.1-1.4 3.6t-4.3 1.9q1 .5 1.6 1 1.2 1 2.2 2.6l3.5 5.5h-3.3l-2.7-4.2q-1.1-1.8-1.9-2.8t-1.3-1.3q-.6-.4-1.2-.5l-1.5-.1h-3.1v8.9zm2.6-11.1h5.7q1.8 0 2.8-.4 1-.4 1.6-1.2.5-.8.5-1.8 0-1.4-1-2.3-1-1-3.3-1H172zm16.7 1.4q0-5 2.7-7.8t7-2.8q2.7 0 5 1.3t3.3 3.7q1.2 2.4 1.2 5.4 0 3-1.2 5.4-1.3 2.4-3.5 3.7-2.3 1.2-4.9 1.2-2.8 0-5-1.4-2.3-1.3-3.4-3.7t-1.2-5m2.8 0q0 3.7 1.9 5.8 2 2 4.9 2 3 0 5-2 1.9-2.2 1.9-6 0-2.5-.9-4.3-.8-1.8-2.4-2.8-1.6-1-3.6-1-2.8 0-4.8 1.9-2 2-2 6.5m19.8 9.7v-20h2.7l10.5 15.7V240h2.6v20h-2.8l-10.5-15.7V260zm20.7 0v-20h2.6v20Zm5.7 0v-2.5l10.3-12.8q1-1.4 2-2.4h-11.1V240H253v2.4l-11 13.8-1.2 1.4h12.8v2.4zm18.8 0v-20h14.5v2.3H259v6.1h11.1v2.4H259v6.8h12.3v2.4z"/></svg>