<?xml version="1.0" standalone="yes"?>

<svg version="1.1" viewBox="0.0 0.0 348.0 348.0" fill="none" stroke="none" stroke-linecap="square" stroke-miterlimit="10" xmlns="http://www.w3.org/2000/svg" xmlns:xlink="http://www.w3.org/1999/xlink">
	<clipPath id="p.0">
		<path d="m0 0l348.0 0l0 348.0l-348.0 0l0 -348.0z" clip-rule="nonzero"></path>
	</clipPath>
	<g clip-path="url(#p.0)">
		<path fill="#000000" fill-opacity="0.0" d="m0 0l348.0 0l0 348.0l-348.0 0z" fill-rule="nonzero"></path>
		<path fill="#ffffff" d="m-6.0 0l348.0 0l0 347.9685l-348.0 0z" fill-rule="nonzero"></path>
		<path fill="#000000" fill-opacity="0.0" d="m5.07874 5.7758217l336.9134 0l0 337.6693l-336.9134 0z" fill-rule="nonzero"></path>
		<path stroke="#000000" stroke-width="2.0" stroke-linejoin="round" stroke-linecap="butt" d="m5.07874 5.7758217l336.9134 0l0 337.6693l-336.9134 0z" fill-rule="nonzero"></path>
		<path fill="#ffffff" d="m282.73444 40.553925l0 0c0 -8.375591 6.966034 -15.165352 15.5590515 -15.165352l0 0c4.126526 0 8.084015 1.5977726 11.001923 4.441828c2.9178772 2.844057 4.557129 6.7014217 4.557129 10.723524l0 0c0 8.375595 -6.9660034 15.165356 -15.5590515 15.165356l0 0c-8.593018 0 -15.5590515 -6.7897606 -15.5590515 -15.165356z" fill-rule="nonzero"></path>
		<path stroke="#000000" stroke-width="2.0" stroke-linejoin="round" stroke-linecap="butt" d="m282.73444 40.553925l0 0c0 -8.375591 6.966034 -15.165352 15.5590515 -15.165352l0 0c4.126526 0 8.084015 1.5977726 11.001923 4.441828c2.9178772 2.844057 4.557129 6.7014217 4.557129 10.723524l0 0c0 8.375595 -6.9660034 15.165356 -15.5590515 15.165356l0 0c-8.593018 0 -15.5590515 -6.7897606 -15.5590515 -15.165356z" fill-rule="nonzero"></path>
	</g>
	<rect x="60" y="95" width="230" height="160" stroke="#000" stroke-width="3" />
	<rect x="70" y="105" width="210" height="40" stroke="#000" stroke-width="3" />
	<rect x="70" y="155" width="210" height="40" stroke="#000" stroke-width="3" />
	<rect x="70" y="205" width="210" height="40" stroke="#000" stroke-width="3" />
	<rect x="20" y="110" width="30" height="30" stroke="#000" stroke-width="3" />
	<rect x="300" y="110" width="30" height="30" stroke="#000" stroke-width="3" />
	<rect x="20" y="160" width="30" height="30" stroke="#000" stroke-width="3" />
	<rect x="300" y="160" width="30" height="30" stroke="#000" stroke-width="3" />
	<rect x="20" y="210" width="30" height="30" stroke="#000" stroke-width="3" />
	<rect x="300" y="210" width="30" height="30" stroke="#000" stroke-width="3" />
	<rect x="110" y="270" width="130" height="40" stroke="#000" stroke-width="3" />
	<text x="105" y="133" font-family="helvetica, sans-serif" font-size="30" fill="#000">[ DISPLAY ]</text>
	<text x="105" y="183" font-family="helvetica, sans-serif" font-size="30" fill="#000">[ DISPLAY ]</text>
	<text x="105" y="233" font-family="helvetica, sans-serif" font-size="30" fill="#000">[ DISPLAY ]</text>
	<text x="115" y="300" font-family="helvetica, sans-serif" font-size="30" fill="#000">ACCUSE</text>
</svg>