<svg xmlns="http://www.w3.org/2000/svg" fill="none" viewBox="0 0 348 348"><path stroke="#000" stroke-width="2" d="M5.08 5.78h336.91v337.67H5.08z"/><path stroke="#000" stroke-width="2" d="M282.73 40.55c0-8.37 6.97-15.16 15.56-15.16 4.13 0 8.09 1.6 11 4.44a14.97 14.97 0 0 1 4.56 10.72c0 8.38-6.96 15.17-15.56 15.17-8.59 0-15.56-6.8-15.56-15.17z"/><path fill="#000" d="M96.88 271.92V77.32h26.41L225.5 230.1V77.31h24.7v194.6h-26.42L121.57 119v152.92z" aria-label="N"/><path fill="#000" d="M138.34 21.63h70.38v60.48h-70.38zM41.88 145.68h35.97v57.87H41.88zm231.04 0h35.97v57.87h-35.97z"/></svg>