<svg xmlns="http://www.w3.org/2000/svg" fill="none" viewBox="0 0 348 348"><path stroke="#000" stroke-width="2" d="M5 5.8h337v337.6H5z"/><path stroke="#000" stroke-width="2" d="M282.7 40.6c0-8.4 7-15.2 15.6-15.2 4.1 0 8 1.6 11 4.4a15 15 0 014.6 10.8c0 8.3-7 15.1-15.6 15.1s-15.6-6.8-15.6-15.1z"/><path stroke="#000" d="M25.6 23.6h224.1v134.2H25.6z"/><path stroke="#000" stroke-width="1.3" d="M25.7 176.3h296.5v45.6H25.7z"/><path stroke="#000" d="M48.7 237.5h250.7v42.8H48.7zm0 50h250.7v42.8H48.7z"/><path fill="#000" d="M257.3 305.2v-11.8h3.6v30.4h-3.6v-3.3q-1.1 2-2.9 3-1.7.9-4.1.9-4 0-6.5-3.2t-2.5-8.3q0-5.2 2.5-8.3 2.5-3.2 6.5-3.2 2.4 0 4.1 1 1.8.9 2.9 2.8zM245 313q0 4 1.7 6.2 1.6 2.3 4.5 2.3 2.8 0 4.5-2.3 1.6-2.3 1.6-6.2 0-4-1.6-6.2-1.7-2.3-4.5-2.3-2.9 0-4.5 2.3-1.7 2.2-1.7 6.2zm-8-1v1.8h-16.5q.2 3.7 2.2 5.7t5.6 2q2 0 4-.6 2-.5 3.9-1.5v3.4q-2 .8-4 1.2-2 .5-4.1.5-5.3 0-8.3-3-3-3.1-3-8.3 0-5.4 2.8-8.5 3-3.2 7.8-3.2 4.5 0 7 2.8 2.6 2.9 2.6 7.8zm-3.6-1q0-3-1.7-4.7-1.6-1.8-4.2-1.8-3 0-4.8 1.7-1.8 1.7-2.1 4.8zm-21 1v1.8h-16.5q.2 3.7 2.2 5.7t5.6 2q2 0 4-.6 2-.5 3.8-1.5v3.4q-1.9.8-4 1.2-2 .5-4 .5-5.3 0-8.3-3-3-3.1-3-8.3 0-5.4 2.8-8.5 3-3.2 7.8-3.2 4.5 0 7 2.8 2.6 2.9 2.6 7.8zm-3.6-1q0-3-1.7-4.7-1.6-1.8-4.2-1.8-3 0-4.8 1.7-1.8 1.7-2.1 4.8zm-18-5.6q-.7-.4-1.4-.5-.7-.2-1.6-.2-3 0-4.6 2-1.7 2-1.7 5.7v11.5H178V302h3.6v3.4q1.2-2 3-3t4.4-1l.8.1 1 .2zm-36 4.6v10.7h6.3q3.1 0 4.7-1.4 1.5-1.3 1.5-4t-1.5-4q-1.6-1.3-4.7-1.3zm0-12v8.8h5.8q2.9 0 4.3-1.1t1.4-3.3q0-2.2-1.4-3.3-1.4-1.1-4.3-1.1zm-4-3.3h10q4.6 0 7 2 2.5 1.8 2.5 5.2 0 2.7-1.3 4.3-1.2 1.6-3.7 2 3 .6 4.5 2.6 1.7 2 1.7 5 0 3.8-2.7 6-2.6 2-7.5 2h-10.5zm-15 16.6h10.5v3.2h-10.5zm-4.1.8v1.7h-16.5q.2 3.7 2.2 5.7t5.6 2q2 0 4-.6 2-.5 3.8-1.5v3.4q-1.9.8-4 1.2-2 .5-4 .5-5.3 0-8.3-3-3-3.1-3-8.3 0-5.4 2.8-8.5 3-3.2 7.8-3.2 4.4 0 7 2.8 2.6 2.9 2.6 7.8zm-3.6-1.1q0-3-1.7-4.7-1.6-1.8-4.2-1.8-3 0-4.9 1.7-1.7 1.7-2 4.8zm-27.2-.8q1.3.5 2.5 1.9t2.4 3.8l4 8h-4.2l-3.7-7.5q-1.5-3-2.9-3.9-1.3-1-3.6-1H91v12.4h-4v-29.2h9q5 0 7.4 2.1 2.4 2.1 2.4 6.3 0 2.8-1.2 4.6-1.3 1.8-3.8 2.5zM91.1 298v10.3h5q2.8 0 4.2-1.3 1.5-1.3 1.5-3.9 0-2.5-1.5-3.8-1.4-1.3-4.3-1.3zm141.5-29h4v4.9h-4zm0-24.3h4v12.8l-.4 7H233l-.4-7zm-8.2 17.4v1.7H208q.3 3.7 2.2 5.7 2 2 5.6 2 2.1 0 4-.6 2-.5 3.9-1.5v3.4q-2 .8-4 1.2-2 .5-4 .5-5.3 0-8.4-3-3-3.1-3-8.3 0-5.4 2.9-8.5 2.9-3.2 7.8-3.2 4.4 0 7 2.9 2.5 2.8 2.5 7.7zm-3.6-1q0-3-1.6-4.8-1.6-1.8-4.3-1.8-3 0-4.8 1.7-1.8 1.7-2 4.8zm-26.2-17.6h3.6v30.4h-3.6zm-12.1 2.3v6.2h7.4v2.8h-7.4v11.9q0 2.7.7 3.4.8.8 3 .8h3.7v3h-3.7q-4.2 0-5.7-1.5-1.6-1.6-1.6-5.7v-11.9h-2.7V252h2.7v-6.2zm-15.7 0v6.2h7.4v2.8h-7.4v11.9q0 2.7.7 3.4.7.8 3 .8h3.7v3h-3.7q-4.2 0-5.7-1.5-1.6-1.6-1.6-5.7v-11.9h-2.7V252h2.7v-6.2zm-18.2 17.1q-4.3 0-6 1-1.7 1-1.7 3.4 0 2 1.3 3 1.2 1.2 3.4 1.2 3 0 4.8-2.1 1.8-2.2 1.8-5.7v-.8zm7.2-1.5v12.5h-3.6v-3.3q-1.2 2-3 3-1.9.9-4.5.9-3.4 0-5.4-2-2-1.8-2-5 0-3.7 2.5-5.5 2.5-2 7.4-2h5v-.3q0-2.4-1.6-3.8t-4.6-1.4q-1.9 0-3.7.5-1.7.4-3.4 1.3V253q2-.7 3.9-1.1 1.8-.4 3.6-.4 4.7 0 7 2.5 2.4 2.4 2.4 7.4zm-40.4-1.4v10.7h6.3q3.2 0 4.7-1.3 1.6-1.4 1.6-4 0-2.8-1.6-4.1-1.5-1.3-4.7-1.3zm0-12v8.8h5.8q3 0 4.3-1.1 1.4-1 1.4-3.3 0-2.2-1.4-3.3-1.4-1.1-4.3-1.1zm-4-3.3h10.1q4.5 0 7 2 2.4 1.8 2.4 5.2 0 2.7-1.2 4.3-1.3 1.6-3.7 2 2.9.6 4.5 2.6t1.6 5q0 3.8-2.6 6-2.7 2.1-7.6 2.1h-10.5z"/></svg>