<svg xmlns="http://www.w3.org/2000/svg" fill="none" viewBox="0 0 348 348"><rect width="336.9" height="337.7" x="5.1" y="5.8" stroke="#000" stroke-width="2"/><ellipse cx="298.3" cy="40.5" stroke="#000" stroke-width="2" rx="15.9" ry="15.5"/><path fill="#000" d="M174 89.3A84.7 84.7 0 0 0 89.3 174a84.7 84.7 0 0 0 84.7 84.7 84.7 84.7 0 0 0 84.7-84.7A84.7 84.7 0 0 0 174 89.3zm0 50.8a2.3 2.3 0 0 1 1.1.3 2.3 2.3 0 0 1 1.2 2V158l51.7-4.3a2.3 2.3 0 0 1 2.5 2.2v36.2a2.3 2.3 0 0 1-2.5 2.2l-51.7-4.3v15.6a2.3 2.3 0 0 1-3.4 2L118.6 176a2.3 2.3 0 0 1 0-4l54.3-31.6a2.3 2.3 0 0 1 1-.3z"/><g stroke="#000" stroke-width=".5"><path fill="#ededed" d="M171.7 19c-27 0-52.8 10.2-72.4 28.6l32.3 34.2a58.6 58.6 0 0 1 82.8 2.7l34.3-32.3a105.7 105.7 0 0 0-77-33.3z"/><path fill="#d6d6d6" d="M19 176.3c0 27 10.2 52.8 28.6 72.4l34.2-32.3a58.6 58.6 0 0 1 2.7-82.8L52.2 99.3a105.7 105.7 0 0 0-33.3 77z"/><path fill="#787878" d="M176.3 329c27 0 52.8-10.2 72.4-28.6l-32.3-34.2a58.6 58.6 0 0 1-82.8-2.7l-34.3 32.3a106 106 0 0 0 77 33.3z"/><path fill="#b2b2b2" d="M329 171.7c0-27-10.2-52.8-28.6-72.4l-34.2 32.3a58.6 58.6 0 0 1-2.7 82.8l32.3 34.3a106 106 0 0 0 33.3-77z"/></g><g fill="#000" stroke-width="5"><path d="M45.7 157.4q3.1 1 5.2 4 2 3 3.2 7.1 1.2 4 1.7 8.1.6 4 .7 7.1l.2 4q0 1-.9 1.9-.6.6-1.5.9-.8.3-1.5.3h-1.3q-1.5-.1-2.5-1-.7-.8-.7-1.9v-1.6l-.2-5.3-12.2.4-1 5.1-.5 2.2q-.1.6-.6 1l-1 .2H32q-.6 0-1-.5-.3-.4-.3-1l.8-6.9h-1.2q-.6 0-1-.3-.5-.4-.5-1v-.7q0-.6.4-1t1-.5h2q1-5.3 2.6-10.3 1.7-5 4.3-8v-.1h.1l.1-.2h.1l1-1q1.8-1.2 3.7-1.2l1.6.2zm-9 20.4 11-.4q-.4-3.6-1-7-.6-3.3-1.6-5.5-.9-2.1-2.4-2.1-.9.1-1.8 1.9-1 1.7-1.8 4.2l-1.4 5-1 4z"/><path d="M181 50.8q0-.5.5-.7.3-.2.7-.2h.2l1.4.2q.7 0 1 .6.2.3.2.7v.4q-1.6 5-6.3 7.2-1.9.7-3.8.7h-.6q-3.4-.3-6.6-2.7-2.8-2.3-3.9-6-.8-3-.8-6.2l.2-3.5q.1-2.6 1.7-6.3 2-4.8 5.5-7.2 2.8-2 6.2-2l1.6.2q2 .3 3.1 1.1t1.6 1.7q.6 1 .7 2.2v2q-.2.6-.7 1l-.7.1h-.5l-1.3-.6q-.5-.2-.7-.6-.3-.3-.3-.7v-.3q0-.9-.7-1.3-.6-.3-1-.3-.9 0-1.5.8-2.2 2.2-3.3 6.8-.9 3.8-.9 7.7l.1 3.4q.1 2.7 1.8 5.1l.8.7q.4.3 1.1.3h.8q.5 0 2.1-1 1.6-1.4 2.2-3.3z"/><path d="M183 305.2q2.6 1.5 3.5 4 .6 1.4.6 2.9 0 1.3-.5 2.6-.7 2.2-2.7 4.1-2 2-5.3 3.2-3.4 1.3-8.3 1.3-2.6 0-5.5-.4-1.6-.3-2.6-1.2-1-.9-1-2l-.2-17.3-.1-10q0-2 1.1-3 1.2-1.2 3.3-1.2h.4q1.4 0 2.4.4t1.4 1l.5.5.8-.6q2.4-1.3 4.7-1.3 2.8 0 5.5 2 2.4 1.7 2.9 4.7v1.5q0 2.2-1 4.5-.9 1.8-2.5 3.3 1.3.3 2.6 1zm-12.7-9.2v6.8l1.8.2q2.2 0 4-1 2-1 2.8-2.9.7-1.4.7-2.7l-.1-1q-.1-1-1.1-1.8-1.5-1-3-1l-1.2.1q-1.6.6-2.7 1.7-1 1-1.2 1.6zm11.6 17 .2-1.4q0-1.8-1.8-2.8-2.4-1.2-4.6-1.2l-2.3.2q-1.7.2-3.1.9v1.4q0 4.8-.2 8.2 5.2 0 8-1.6 3-1.5 3.8-3.7z"/><path d="M312.9 159.5q4 3.6 4.6 10.4v1q0 9.1-5.4 15.3-1.9 2-4 3t-4.3 1.4q-2 .4-3.8.4-1.7 0-2.8-.2l-1.2-.2q-1.5-.3-2.5-1.2-1-.8-1-2l-.2-16.7-.2-9.7q0-1.9 1.2-3t3.2-1.1h.5q1.3 0 2.3.4.9.4 1.4 1l.4.4q.8-.6 1.8-1 1.8-.7 3.5-.7 3.3 0 6.5 2.5zm-4.7 24.1q4-5.1 4-12.8v-.8q-.3-5.3-2.9-7.7-1.7-1.6-3.4-1.6-.9 0-1.7.4-1.3.6-2 2-.9 1.2-1 2.8V187q1.7-.1 3.6-.9t3.4-2.5z"/></g></svg>