<svg xmlns="http://www.w3.org/2000/svg" fill="none" stroke-linecap="square" stroke-miterlimit="10" viewBox="0 0 348 348"><clipPath id="a"><path d="M0 0h348v348H0V0z"/></clipPath><g clip-path="url(#a)"><g aria-label="6" style="font-size:27.5632px;line-height:normal;font-family:RobotoMono;-inkscape-font-specification:RobotoMono;text-align:center;text-decoration:none;text-decoration-line:none;text-decoration-color:#000;letter-spacing:0;text-anchor:middle;fill:#000;stroke-width:4.99999;stop-color:#000"><path d="M111.232 284.997h-.216q-2.1 0-3.755.592-1.655.58-2.812 1.737-1.683 1.682-2.262 4.05-.578 2.37-.578 4.819v1.17q0 1.427.43 2.854.431 1.413 1.306 2.476.78.97 1.924 1.575 1.144.606 2.652.606 1.494 0 2.624-.525 1.144-.525 1.911-1.44.768-.902 1.144-2.113.39-1.212.39-2.584 0-1.198-.322-2.356-.323-1.157-1.01-2.072-.686-.915-1.75-1.467-1.063-.565-2.53-.565-.673 0-1.292.161-.605.148-1.13.404-.538.269-.996.632-.458.35-.808.767.081-1.292.512-2.516.444-1.225 1.292-2.113.807-.848 2.046-1.346 1.238-.512 3.014-.512h.216zm-3.257 8.83q.901 0 1.574.376.673.377 1.117 1.01.445.632.66 1.453.215.807.215 1.669 0 .969-.242 1.803-.229.821-.686 1.413-.472.593-1.144.929-.673.336-1.548.336-.754 0-1.44-.35-.687-.363-1.212-1.05-.524-.686-.834-1.682-.31-1.009-.31-2.3v-.835q.23-.62.62-1.13.39-.512.901-.876.512-.363 1.104-.565.592-.202 1.225-.202z" style="stroke-width:4.99999"/></g><path fill="none" d="M0 0h348v348H0z" style="fill:#000;fill-opacity:0;fill-rule:nonzero"/><path fill="none" d="M5.079 5.776h336.913v337.67H5.08z" style="fill:#000;fill-opacity:0;fill-rule:nonzero"/><path d="M341.992 5.776H5.079v337.67h336.912z" style="fill-rule:nonzero;stroke:#000;stroke-width:2;stroke-linecap:butt;stroke-linejoin:round"/><path d="M133.843 15.667h74.33v56.882h-74.33z" style="fill:#000;fill-rule:nonzero"/><path d="M154.54 44.09q0-4.063.827-6.531.844-2.485 2.485-3.829 1.656-1.343 4.156-1.343 1.844 0 3.234.75 1.39.734 2.297 2.14.906 1.39 1.422 3.407.516 2 .516 5.406 0 4.031-.829 6.515-.828 2.47-2.484 3.829-1.64 1.343-4.156 1.343-3.313 0-5.203-2.375-2.266-2.86-2.266-9.312zm2.89 0q0 5.64 1.312 7.515 1.328 1.86 3.266 1.86 1.937 0 3.25-1.875 1.328-1.875 1.328-7.5 0-5.656-1.328-7.516-1.313-1.86-3.281-1.86-1.938 0-3.094 1.641-1.453 2.094-1.453 7.735zm14.906 0q0-4.063.828-6.531.844-2.485 2.484-3.829 1.657-1.343 4.157-1.343 1.843 0 3.234.75 1.39.734 2.297 2.14.906 1.39 1.422 3.407.515 2 .515 5.406 0 4.031-.828 6.515-.828 2.47-2.484 3.829-1.64 1.343-4.156 1.343-3.313 0-5.203-2.375-2.266-2.86-2.266-9.312zm2.89 0q0 5.64 1.313 7.515 1.328 1.86 3.266 1.86 1.937 0 3.25-1.875 1.328-1.875 1.328-7.5 0-5.656-1.328-7.516-1.313-1.86-3.282-1.86-1.937 0-3.093 1.641-1.453 2.094-1.453 7.735zM15.262 17.706h109.89v54.835H15.262z" style="fill:#fff;fill-rule:nonzero"/><path d="M15.262 17.706h109.89v54.835H15.262z" style="fill-rule:nonzero;stroke:#000;stroke-width:2;stroke-linecap:butt;stroke-linejoin:round"/><path fill="none" d="m15.262 72.654 39.686-54.08" style="fill:#000;fill-opacity:0;fill-rule:nonzero"/><path d="m15.262 72.654 39.686-54.08" style="fill-rule:nonzero;stroke:#000;stroke-width:2;stroke-linecap:butt;stroke-linejoin:round"/><path fill="none" d="m37.566 72.654 39.686-54.08" style="fill:#000;fill-opacity:0;fill-rule:nonzero"/><path d="m37.566 72.654 39.686-54.08" style="fill-rule:nonzero;stroke:#000;stroke-width:2;stroke-linecap:butt;stroke-linejoin:round"/><path fill="none" d="m59.87 72.654 39.686-54.08" style="fill:#000;fill-opacity:0;fill-rule:nonzero"/><path d="m59.87 72.654 39.686-54.08" style="fill-rule:nonzero;stroke:#000;stroke-width:2;stroke-linecap:butt;stroke-linejoin:round"/><path fill="none" d="m82.175 72.654 39.685-54.08" style="fill:#000;fill-opacity:0;fill-rule:nonzero"/><path d="m82.175 72.654 39.685-54.08" style="fill-rule:nonzero;stroke:#000;stroke-width:2;stroke-linecap:butt;stroke-linejoin:round"/><path d="M216.864 16.634h109.89v54.835h-109.89z" style="fill:#fff;fill-rule:nonzero"/><path d="M216.864 16.634h109.89v54.835h-109.89z" style="fill-rule:nonzero;stroke:#000;stroke-width:2;stroke-linecap:butt;stroke-linejoin:round"/><path fill="none" d="m216.864 71.581 39.685-54.078" style="fill:#000;fill-opacity:0;fill-rule:nonzero"/><path d="m216.864 71.581 39.685-54.078" style="fill-rule:nonzero;stroke:#000;stroke-width:2;stroke-linecap:butt;stroke-linejoin:round"/><path fill="none" d="m239.168 71.581 39.685-54.078" style="fill:#000;fill-opacity:0;fill-rule:nonzero"/><path d="m239.168 71.581 39.685-54.078" style="fill-rule:nonzero;stroke:#000;stroke-width:2;stroke-linecap:butt;stroke-linejoin:round"/><path fill="none" d="m261.472 71.581 39.685-54.078" style="fill:#000;fill-opacity:0;fill-rule:nonzero"/><path d="m261.472 71.581 39.685-54.078" style="fill-rule:nonzero;stroke:#000;stroke-width:2;stroke-linecap:butt;stroke-linejoin:round"/><path fill="none" d="m283.776 71.581 39.685-54.078" style="fill:#000;fill-opacity:0;fill-rule:nonzero"/><path d="m283.776 71.581 39.685-54.078" style="fill-rule:nonzero;stroke:#000;stroke-width:2;stroke-linecap:butt;stroke-linejoin:round"/><path d="M33.482 116.31h280.107v47.017H33.482Z" style="font-variation-settings:normal;opacity:1;vector-effect:none;fill:none;fill-opacity:1;fill-rule:evenodd;stroke:#000;stroke-width:2;stroke-linecap:butt;stroke-linejoin:miter;stroke-miterlimit:4;stroke-dasharray:none;stroke-dashoffset:0;stroke-opacity:1;stop-color:#000;stop-opacity:1"/><path d="M32.482 170.404H314.59v49.017H32.482Z" style="font-variation-settings:normal;opacity:1;vector-effect:none;fill:#000;fill-opacity:1;fill-rule:evenodd;stroke:none;stroke-width:2;stroke-linecap:butt;stroke-linejoin:miter;stroke-miterlimit:4;stroke-dasharray:none;stroke-dashoffset:0;stroke-opacity:1;stop-color:#000;stop-opacity:1"/><g aria-label="Digits: 2-6" style="font-size:34.9205px;line-height:normal;font-family:RobotoMono;-inkscape-font-specification:RobotoMono;text-align:center;text-decoration:none;text-decoration-line:none;text-decoration-color:#000;letter-spacing:0;text-anchor:middle;fill:#000;stroke-width:5;stop-color:#000"><path d="M47.74 160.504h5.746q1.79-.018 3.325-.427 1.551-.409 2.779-1.176 1.16-.733 2.097-1.774.938-1.04 1.552-2.318.597-1.228.904-2.695.324-1.466.324-3.103v-1.824q-.018-1.705-.359-3.206-.324-1.5-.954-2.762-.7-1.484-1.876-2.609-1.16-1.142-2.677-1.841-1.091-.512-2.387-.785-1.279-.29-2.728-.307h-5.747zm3.205-22.235h2.54q1.177.017 2.166.273.99.239 1.79.682 1.126.597 1.893 1.569.784.954 1.245 2.148.358.92.528 1.995.188 1.057.205 2.217v1.858q-.017 1.143-.187 2.2-.171 1.04-.512 1.944-.392 1.108-1.074 2.012-.665.886-1.586 1.5-.87.597-1.995.92-1.108.325-2.472.342h-2.541zM69.497 142.054v2.746h6.274v12.975h-6.274v2.729h15.448v-2.729h-6.02v-15.72zm5.865-4.842q0 .767.46 1.279.478.511 1.433.511.938 0 1.415-.511.477-.512.477-1.28 0-.425-.136-.783-.136-.359-.41-.597-.22-.222-.562-.341-.34-.137-.784-.137t-.802.137q-.34.12-.562.34-.273.257-.41.615-.119.358-.119.767zM89.361 151.126v.358q0 1.978.512 3.7.511 1.705 1.466 2.967.938 1.261 2.302 1.977 1.364.717 3.052.717 1.006 0 1.876-.222.87-.205 1.585-.597.46-.256.853-.597.41-.34.767-.75v1.586q0 1.193-.34 2.114-.342.921-.973 1.535-.648.63-1.551.955-.904.324-2.03.324-.63 0-1.261-.137-.631-.12-1.262-.409-.63-.29-1.245-.784-.614-.478-1.193-1.177l-1.637 1.893q.63.903 1.5 1.517.887.614 1.842.972.938.375 1.858.529.921.17 1.637.17 1.74 0 3.172-.511 1.432-.512 2.472-1.5 1.023-.99 1.586-2.405.58-1.415.58-3.24v-18.057h-2.865l-.153 2.012q-.324-.409-.7-.75-.358-.34-.767-.597-.75-.494-1.688-.75-.92-.256-2.029-.256-1.722 0-3.086.7-1.364.699-2.32 1.943-.954 1.245-1.466 2.984-.494 1.722-.494 3.786zm3.154.358v-.358q0-1.348.273-2.558.29-1.228.904-2.166.597-.92 1.535-1.466.954-.546 2.284-.546.785 0 1.433.205.648.188 1.176.529.529.358.938.835.41.477.716 1.057v8.458q-.307.596-.716 1.09-.41.495-.92.853-.53.358-1.194.563-.648.188-1.467.188-1.313 0-2.25-.529-.938-.546-1.535-1.466-.614-.921-.904-2.132-.273-1.21-.273-2.557zM111.374 142.054v2.746h6.275v12.975h-6.275v2.729h15.448v-2.729h-6.019v-15.72zm5.865-4.842q0 .767.46 1.279.478.511 1.433.511.938 0 1.415-.511.478-.512.478-1.28 0-.425-.137-.783-.136-.359-.409-.597-.222-.222-.563-.341-.34-.137-.784-.137-.443 0-.801.137-.341.12-.563.34-.273.257-.41.615-.119.358-.119.767zM139.286 137.587h-3.171v4.467h-4.843v2.439h4.843v10.026q0 1.705.443 2.915.46 1.194 1.245 1.944.784.768 1.841 1.126 1.075.34 2.302.34.734 0 1.467-.068.75-.068 1.415-.204.665-.12 1.228-.29.562-.188.955-.426l-.444-2.234q-.29.068-.75.17-.443.086-.955.171-.528.085-1.074.153-.546.052-1.057.052-.7 0-1.33-.17-.614-.171-1.092-.598-.477-.409-.75-1.108-.273-.7-.273-1.773v-10.026h7.025v-2.439h-7.025zM165.016 155.61q0 .443-.17.835-.17.393-.495.717-.528.528-1.466.835-.938.29-2.2.29-.801 0-1.62-.17-.818-.171-1.483-.58-.682-.41-1.142-1.075-.444-.665-.512-1.636h-3.154q0 1.176.528 2.267.546 1.092 1.569 1.91 1.006.836 2.472 1.347 1.467.495 3.342.495 1.637 0 3.018-.393 1.382-.392 2.37-1.108.99-.716 1.535-1.722.563-1.006.563-2.234 0-1.142-.495-2.012-.477-.87-1.398-1.534-.92-.648-2.268-1.109-1.347-.477-3.052-.835-1.296-.256-2.148-.529-.836-.273-1.33-.614-.512-.34-.716-.767-.205-.426-.205-.972 0-.528.256-1.023.256-.494.767-.87.495-.375 1.245-.596.767-.222 1.773-.222.972 0 1.74.273.784.273 1.33.716.545.443.852 1.023.307.563.307 1.16h3.154q0-1.211-.528-2.251-.512-1.057-1.467-1.842-.955-.784-2.319-1.227-1.364-.444-3.069-.444-1.586 0-2.916.427-1.312.426-2.267 1.16-.955.732-1.484 1.721-.528.972-.528 2.098 0 1.142.511 2.012.512.852 1.45 1.483.92.648 2.216 1.108 1.313.46 2.899.785 1.296.255 2.165.58.87.306 1.399.681.528.376.75.836.221.443.221 1.006zM180.038 158.457q0 .99.614 1.689.631.682 1.859.682 1.21 0 1.858-.682.648-.683.648-1.689 0-1.023-.648-1.722-.63-.716-1.858-.716-1.245 0-1.859.716-.614.716-.614 1.722zm0-14.936q0 .989.614 1.688.631.682 1.859.682 1.21 0 1.858-.682.648-.682.648-1.688 0-1.023-.648-1.722-.63-.717-1.858-.717-1.245 0-1.859.717-.614.716-.614 1.722zM230.8 160.504v-2.575h-12.465l6.667-7.23q.938-1.023 1.773-2.046.853-1.04 1.5-2.097.632-1.057 1.007-2.132.375-1.09.375-2.2 0-1.483-.529-2.744-.511-1.262-1.483-2.183-.972-.92-2.387-1.432-1.399-.529-3.155-.529-1.91 0-3.41.614-1.483.614-2.506 1.654-1.04 1.04-1.586 2.438-.546 1.381-.546 2.95h3.172q0-1.16.29-2.097.306-.938.92-1.603.597-.648 1.5-1.006.922-.358 2.166-.358 1.023 0 1.825.358.818.341 1.398.938.563.597.852 1.415.307.802.307 1.722 0 .75-.187 1.467-.188.699-.631 1.483-.443.802-1.177 1.74-.733.937-1.824 2.148l-8.133 9.037v2.268zM250.306 150.938v-2.592h-13.044v2.592zM269.079 135.66h-.273q-2.66 0-4.757.75-2.098.734-3.564 2.2-2.131 2.131-2.864 5.132-.734 3.001-.734 6.105v1.483q0 1.808.546 3.615.546 1.79 1.654 3.137.989 1.228 2.438 1.995 1.45.768 3.36.768 1.892 0 3.324-.665 1.45-.665 2.421-1.825.972-1.142 1.45-2.677.494-1.534.494-3.274 0-1.517-.409-2.984-.41-1.466-1.279-2.625-.87-1.16-2.216-1.859-1.347-.716-3.206-.716-.853 0-1.637.204-.767.188-1.432.512-.682.341-1.262.801-.58.444-1.023.972.102-1.637.648-3.188.563-1.552 1.637-2.677 1.023-1.074 2.592-1.705 1.568-.648 3.819-.648h.273zm-4.127 11.186q1.143 0 1.995.477.853.478 1.416 1.279.562.801.835 1.841.273 1.024.273 2.115 0 1.227-.307 2.285-.29 1.04-.87 1.79-.596.75-1.449 1.177-.852.426-1.96.426-.956 0-1.825-.444-.87-.46-1.535-1.33-.665-.87-1.057-2.13-.392-1.28-.392-2.917v-1.057q.29-.784.784-1.432.495-.648 1.143-1.108.648-.46 1.398-.717.75-.255 1.551-.255z" style="stroke-width:5" transform="scale(1.07688 .9286)"/></g><g aria-label="14159" style="font-size:37.932px;line-height:normal;font-family:RobotoMono;-inkscape-font-specification:RobotoMono;text-align:center;text-decoration:none;text-decoration-line:none;text-decoration-color:#000;letter-spacing:0;text-anchor:middle;fill:#fff;fill-opacity:1;stroke-width:5;stop-color:#000"><path d="M60.404 340.33v-26.967h-.278l-10.205 3.927v3.13l7.057-2.686v22.597zM85.927 331.274v-17.91h-3.65L70.203 332.05v2.02H82.5v6.26h3.427v-6.26h3.76v-2.797zm-11.928 0 7.945-12.317.556-1.037v13.354zM105.893 340.33v-26.967h-.278L95.41 317.29v3.13l7.056-2.686v22.597zM118.747 326.81l2.74.704q.464-.408.89-.723.444-.314.944-.537.5-.222 1.112-.333.63-.13 1.481-.13 1.297 0 2.297.463 1 .463 1.686 1.26.685.815 1.037 1.907.37 1.093.37 2.353 0 1.389-.333 2.519-.315 1.13-.945 1.926-.648.815-1.593 1.26-.944.425-2.167.425-2.167 0-3.556-1.185-1.37-1.185-1.685-3.482h-3.26q.185 1.87.908 3.278.74 1.408 1.889 2.334 1.13.926 2.593 1.389 1.463.463 3.111.463 2.149 0 3.742-.667 1.593-.685 2.648-1.889 1.038-1.185 1.556-2.834.519-1.648.519-3.574 0-2.038-.556-3.705-.556-1.667-1.593-2.852-1.037-1.167-2.519-1.815-1.481-.648-3.352-.648-1.463 0-2.575.352-1.11.351-1.907.815l.76-7.187h10.945v-3.334H120.1zM143.954 337.293h-.351v3.056h.351q3.334 0 5.65-.907 2.333-.927 3.648-2.408 2.186-2.445 2.853-5.594.666-3.167.666-6.297v-1.241q0-2.204-.61-4.408-.612-2.223-1.835-3.704-1.037-1.26-2.574-2.02-1.519-.777-3.593-.777-2.075 0-3.649.76-1.556.74-2.593 2-1.056 1.278-1.593 2.982-.518 1.685-.518 3.593 0 1.63.444 3.241.445 1.611 1.39 2.89.944 1.277 2.389 2.074 1.463.778 3.463.778 1.037 0 1.908-.204.889-.222 1.611-.593.722-.37 1.297-.852.574-.5 1.018-1.055v.037q-.092 1.703-.537 3.296-.444 1.593-1.722 2.982-1.056 1.13-2.797 1.76-1.723.611-4.316.611zm4.094-8.816q-1.241 0-2.167-.537-.908-.556-1.5-1.445-.612-.889-.908-2.019-.296-1.148-.296-2.333 0-1.334.333-2.482.333-1.167.982-2.02.63-.833 1.555-1.314.926-.482 2.13-.482 1.056 0 1.982.519.945.518 1.667 1.482.704.981 1.111 2.389.426 1.407.426 3.204v1.111q-.315.87-.87 1.593-.537.704-1.223 1.223-.703.537-1.537.833-.815.278-1.685.278z" style="fill:#fff;fill-opacity:1;stroke-width:5" transform="scale(1.67393 .5974)"/></g><path d="M44.976 228.71h38v38h-38z" style="font-variation-settings:normal;opacity:1;vector-effect:none;fill:none;fill-opacity:1;fill-rule:evenodd;stroke:#000;stroke-width:2;stroke-linecap:butt;stroke-linejoin:miter;stroke-miterlimit:4;stroke-dasharray:none;stroke-dashoffset:0;stroke-opacity:1;stop-color:#000;stop-opacity:1"/><path d="M-302.095 228.71h38v38h-38zM-258.271 228.71h38v38h-38zM-214.447 228.71h38v38h-38zM-170.624 228.71h38v38h-38zM-126.8 228.71h38v38h-38ZM-258.271 275.936h38v38h-38zM-214.447 275.936h38v38h-38zM-170.624 275.936h38v38h-38zM-126.8 275.936h38v38h-38Z" style="font-variation-settings:normal;opacity:1;vector-effect:none;fill:none;fill-opacity:1;fill-rule:evenodd;stroke:#000;stroke-width:2;stroke-linecap:butt;stroke-linejoin:miter;stroke-miterlimit:4;stroke-dasharray:none;stroke-dashoffset:0;stroke-opacity:1;stop-color:#000;stop-opacity:1" transform="scale(-1 1)"/><g aria-label="0" style="font-size:27.5632px;line-height:normal;font-family:RobotoMono;-inkscape-font-specification:RobotoMono;text-align:center;text-decoration:none;text-decoration-line:none;text-decoration-color:#000;letter-spacing:0;text-anchor:middle;fill:#000;stroke-width:4.99999;stop-color:#000"><path d="M70.322 250.02v-4.59q0-1.871-.431-3.311-.43-1.454-1.238-2.45-.821-.996-2.006-1.507-1.17-.525-2.678-.525-1.494 0-2.678.525-1.171.511-1.979 1.507-.82.996-1.251 2.45-.43 1.44-.43 3.31v4.59q0 1.87.43 3.324.43 1.44 1.251 2.423.821 1.01 2.006 1.52 1.184.499 2.678.499 1.507 0 2.678-.512 1.171-.511 1.979-1.507.807-.983 1.238-2.423.43-1.453.43-3.324zm-10.189-.499v-4.643q0-1.373.27-2.41.282-1.049.847-1.708.472-.525 1.144-.794.687-.283 1.575-.283.875 0 1.534.256.673.255 1.13.767.472.498.741 1.251.283.74.39 1.71zm7.685 1.023q0 1.44-.296 2.503-.282 1.064-.902 1.723-.457.484-1.117.74-.66.256-1.507.256-.808 0-1.454-.229-.646-.242-1.103-.7-.498-.484-.808-1.224-.31-.754-.43-1.737l7.617-5.827V247.772z" style="stroke-width:4.99999"/></g><g aria-label="1" style="font-size:27.5632px;line-height:normal;font-family:RobotoMono;-inkscape-font-specification:RobotoMono;text-align:center;text-decoration:none;text-decoration-line:none;text-decoration-color:#000;letter-spacing:0;text-anchor:middle;fill:#000;stroke-width:4.99999;stop-color:#000"><path d="M111.608 257.509v-19.596h-.201l-7.416 2.853v2.275l5.128-1.952v16.42z" style="stroke-width:4.99999"/></g><g aria-label="2" style="font-size:27.5632px;line-height:normal;font-family:RobotoMono;-inkscape-font-specification:RobotoMono;text-align:center;text-decoration:none;text-decoration-line:none;text-decoration-color:#000;letter-spacing:0;text-anchor:middle;fill:#000;stroke-width:4.99999;stop-color:#000"><path d="M158.232 257.643v-2.032h-9.838l5.262-5.706q.74-.808 1.4-1.615.672-.821 1.184-1.656.498-.834.794-1.682.296-.861.296-1.736 0-1.171-.417-2.167-.404-.996-1.171-1.723-.767-.727-1.884-1.13-1.104-.417-2.49-.417-1.508 0-2.692.484-1.17.485-1.978 1.306-.821.82-1.252 1.924-.43 1.09-.43 2.328h2.503q0-.915.228-1.655.243-.74.727-1.265.471-.512 1.185-.794.726-.283 1.709-.283.807 0 1.44.283.646.269 1.104.74.444.471.672 1.117.243.633.243 1.36 0 .592-.148 1.157-.148.552-.498 1.17-.35.633-.929 1.374-.579.74-1.44 1.695l-6.42 7.133v1.79z" style="stroke-width:4.99999"/></g><g aria-label="3" style="font-size:27.5632px;line-height:normal;font-family:RobotoMono;-inkscape-font-specification:RobotoMono;text-align:center;text-decoration:none;text-decoration-line:none;text-decoration-color:#000;letter-spacing:0;text-anchor:middle;fill:#000;stroke-width:4.99999;stop-color:#000"><path d="M193.22 246.513v2.019h1.777q.928 0 1.695.215.781.216 1.333.66.538.444.834 1.117.31.66.31 1.574 0 .93-.27 1.615-.255.673-.74 1.131-.484.458-1.17.686-.687.216-1.535.216-.848 0-1.548-.243-.686-.242-1.17-.686-.485-.444-.754-1.077-.256-.632-.256-1.4h-2.49q0 1.293.485 2.302.498 1.01 1.332 1.71.835.7 1.965 1.063 1.144.363 2.436.363 1.32 0 2.45-.377 1.144-.39 1.978-1.13.834-.727 1.306-1.79.47-1.064.47-2.436 0-.673-.16-1.36-.149-.686-.526-1.305-.39-.62-1.036-1.117-.633-.498-1.588-.808.794-.336 1.36-.834.578-.512.941-1.09.364-.566.539-1.171.174-.606.174-1.171 0-1.36-.43-2.396-.43-1.036-1.211-1.736-.781-.7-1.871-1.05-1.09-.363-2.41-.363-1.359 0-2.476.43-1.103.418-1.897 1.145-.794.74-1.239 1.736-.43.982-.43 2.1h2.503q0-.768.256-1.387t.727-1.063q.457-.444 1.103-.673.66-.242 1.454-.242.82 0 1.453.215.646.202 1.077.62.444.43.673 1.09.229.645.229 1.52 0 .74-.256 1.36-.256.618-.74 1.063-.498.444-1.225.7-.713.255-1.655.255z" style="stroke-width:4.99999"/></g><g aria-label="4" style="font-size:27.5632px;line-height:normal;font-family:RobotoMono;-inkscape-font-specification:RobotoMono;text-align:center;text-decoration:none;text-decoration-line:none;text-decoration-color:#000;letter-spacing:0;text-anchor:middle;fill:#000;stroke-width:4.99999;stop-color:#000"><path d="M243.618 250.928v-13.015h-2.65l-8.776 13.58v1.467h8.937v4.549h2.49v-4.55h2.732v-2.031zm-8.667 0 5.774-8.95.404-.754v9.704z" style="stroke-width:4.99999"/></g><g aria-label="5" style="font-size:27.5632px;line-height:normal;font-family:RobotoMono;-inkscape-font-specification:RobotoMono;text-align:center;text-decoration:none;text-decoration-line:none;text-decoration-color:#000;letter-spacing:0;text-anchor:middle;fill:#000;stroke-width:4.99999;stop-color:#000"><path d="m277.644 247.55 1.992.51q.337-.295.646-.524.323-.229.687-.39.363-.162.807-.243.458-.094 1.077-.094.942 0 1.669.337.727.336 1.225.915.498.592.753 1.386.27.794.27 1.71 0 1.009-.243 1.83-.229.82-.686 1.4-.471.592-1.158.915-.686.31-1.574.31-1.575 0-2.584-.862-.996-.862-1.225-2.53h-2.369q.135 1.359.66 2.382.538 1.023 1.372 1.696.821.672 1.885 1.009 1.063.336 2.26.336 1.562 0 2.72-.484 1.157-.498 1.924-1.373.754-.861 1.13-2.059.377-1.198.377-2.598 0-1.48-.404-2.691-.403-1.212-1.157-2.073-.754-.848-1.83-1.319-1.077-.47-2.436-.47-1.064 0-1.871.255-.808.256-1.386.592l.552-5.222h7.954v-2.422h-10.054z" style="stroke-width:4.99999"/></g><g aria-label="9" style="font-size:27.5632px;line-height:normal;font-family:RobotoMono;-inkscape-font-specification:RobotoMono;text-align:center;text-decoration:none;text-decoration-line:none;text-decoration-color:#000;letter-spacing:0;text-anchor:middle;fill:#000;stroke-width:4.99999;stop-color:#000"><path d="M236.122 302.655h-.256v2.22h.256q2.423 0 4.105-.659 1.696-.673 2.651-1.75 1.588-1.776 2.073-4.064.484-2.301.484-4.576v-.902q0-1.601-.444-3.203-.444-1.615-1.332-2.691-.754-.916-1.87-1.467-1.105-.566-2.612-.566-1.507 0-2.651.552-1.13.538-1.884 1.454-.768.928-1.158 2.166-.377 1.225-.377 2.611 0 1.185.323 2.356.323 1.17 1.01 2.1.686.928 1.736 1.507 1.063.565 2.517.565.753 0 1.386-.148.646-.162 1.17-.43.526-.27.943-.62.417-.363.74-.767v.027q-.067 1.238-.39 2.395-.323 1.158-1.252 2.167-.767.821-2.032 1.279-1.252.444-3.136.444zm2.974-6.406q-.901 0-1.574-.39-.66-.404-1.09-1.05-.445-.646-.66-1.467-.215-.835-.215-1.696 0-.97.242-1.804.242-.848.713-1.467.458-.605 1.13-.955.674-.35 1.549-.35.767 0 1.44.377.686.377 1.21 1.076.512.714.808 1.737.31 1.022.31 2.328v.807q-.229.633-.633 1.158-.39.511-.888.888-.511.39-1.117.606-.592.202-1.225.202z" style="stroke-width:4.99999"/></g><g aria-label="8" style="font-size:27.5632px;line-height:normal;font-family:RobotoMono;-inkscape-font-specification:RobotoMono;text-align:center;text-decoration:none;text-decoration-line:none;text-decoration-color:#000;letter-spacing:0;text-anchor:middle;fill:#000;stroke-width:4.99999;stop-color:#000"><path d="M201.235 290.253q0-1.279-.445-2.275-.444-1.009-1.224-1.695-.78-.687-1.844-1.05-1.063-.364-2.301-.364-1.252 0-2.315.364-1.05.363-1.804 1.05-.767.686-1.198 1.695-.43.996-.43 2.275 0 .727.202 1.386.201.66.565 1.211.363.566.888 1.023.525.444 1.171.767-.754.323-1.36.808-.605.484-1.036 1.09-.43.62-.66 1.36-.228.726-.228 1.547 0 1.346.485 2.382.484 1.037 1.332 1.736.834.714 1.965 1.077 1.144.363 2.463.363 1.292 0 2.422-.363 1.13-.377 1.979-1.09.834-.7 1.319-1.736.498-1.037.498-2.369 0-.82-.242-1.548-.23-.726-.66-1.346-.444-.619-1.063-1.09-.606-.484-1.36-.807.431-.216.808-.485.377-.269.686-.578.646-.646 1.01-1.494.363-.862.377-1.844zm-2.046 9.138q0 .848-.283 1.521-.269.66-.753 1.117-.498.458-1.185.7-.686.242-1.507.242-.861 0-1.561-.242-.687-.242-1.171-.7-.485-.457-.754-1.117-.256-.673-.256-1.52 0-.822.256-1.508.27-.687.754-1.184.484-.485 1.17-.754.687-.27 1.535-.27.82 0 1.507.27.7.269 1.198.754.498.497.767 1.184.283.686.283 1.507zm-.458-9.098q0 .754-.242 1.373-.242.62-.673 1.05-.444.444-1.05.686-.605.229-1.319.229-.726 0-1.332-.229-.592-.242-1.023-.686-.444-.43-.686-1.037-.229-.619-.229-1.386 0-.767.229-1.386.242-.633.673-1.077.43-.444 1.023-.673.592-.242 1.319-.242.726 0 1.332.256.606.242 1.05.686.43.458.673 1.077.255.619.255 1.36z" style="stroke-width:4.99999"/></g><g aria-label="7" style="font-size:27.5632px;line-height:normal;font-family:RobotoMono;-inkscape-font-specification:RobotoMono;text-align:center;text-decoration:none;text-decoration-line:none;text-decoration-color:#000;letter-spacing:0;text-anchor:middle;fill:#000;stroke-width:4.99999;stop-color:#000"><path d="M158.245 286.538v-1.4h-13.243v2.18h10.605l-8.088 17.416h2.61z" style="stroke-width:4.99999"/></g></g></svg>