<?xml version="1.0" encoding="UTF-8" standalone="no"?>
<svg
   fill="none"
   stroke="#000"
   stroke-width="2"
   viewBox="0 0 347 347"
   version="1.1"
   id="svg1"
   sodipodi:docname="Needy Survival.svg"
   inkscape:version="1.3.2 (091e20e, 2023-11-25, custom)"
   inkscape:export-filename="Needy Survival.svg"
   inkscape:export-xdpi="96"
   inkscape:export-ydpi="96"
   xmlns:inkscape="http://www.inkscape.org/namespaces/inkscape"
   xmlns:sodipodi="http://sodipodi.sourceforge.net/DTD/sodipodi-0.dtd"
   xmlns="http://www.w3.org/2000/svg"
   xmlns:svg="http://www.w3.org/2000/svg">
  <defs
     id="defs1" />
  <sodipodi:namedview
     id="namedview1"
     pagecolor="#505050"
     bordercolor="#eeeeee"
     borderopacity="1"
     inkscape:showpageshadow="0"
     inkscape:pageopacity="0"
     inkscape:pagecheckerboard="0"
     inkscape:deskcolor="#505050"
     inkscape:zoom="3.518732"
     inkscape:cx="173.3579"
     inkscape:cy="173.5"
     inkscape:window-width="2560"
     inkscape:window-height="1417"
     inkscape:window-x="-8"
     inkscape:window-y="-8"
     inkscape:window-maximized="1"
     inkscape:current-layer="svg1" />
  <rect
     width="337"
     height="337"
     x="5"
     y="5"
     id="rect1" />
  <circle
     cx="298"
     cy="40"
     r="16"
     id="circle1" />
  <style
     id="style1">
	/* lato-latin-400-normal */
@font-face {
  font-family: 'Lato';
  font-style: normal;
  font-display: swap;
  font-weight: 400;
  src: url(https://cdn.jsdelivr.net/fontsource/fonts/lato@latest/latin-400-normal.woff2) format('woff2'),
       url(https://cdn.jsdelivr.net/fontsource/fonts/lato@latest/latin-400-normal.woff) format('woff');
  unicode-range: U+0000-00FF,U+0131,U+0152-0153,U+02BB-02BC,U+02C6,U+02DA,U+02DC,U+0304,U+0308,U+0329,U+2000-206F,U+20AC,U+2122,U+2191,U+2193,U+2212,U+2215,U+FEFF,U+FFFD;
}
  </style>
  <g
     id="text1"
     style="font-size:53.3333px;font-family:Lato;-inkscape-font-specification:Lato;fill:#000000"
     aria-label="Needy&#10;Survival">
    <path
       style="text-align:center;text-anchor:middle"
       d="m 105.46005,122.77068 q 0.69333,0 1.01333,0.18667 0.34667,0.16 0.77333,0.69333 l 22.13332,28.79999 q -0.08,-0.69334 -0.10666,-1.33334 -0.0267,-0.66666 -0.0267,-1.28 v -27.06665 h 4.53333 v 38.21331 h -2.61333 q -0.61333,0 -1.04,-0.21333 -0.4,-0.21333 -0.8,-0.72 l -22.10665,-28.77332 q 0.0533,0.66667 0.08,1.30667 0.0267,0.64 0.0267,1.17333 v 27.22665 h -4.53333 v -38.21331 h 2.66667 z m 47.6,10.77333 q 2.42666,0 4.48,0.82667 2.05333,0.8 3.54666,2.34666 1.49333,1.52 2.32,3.78667 0.85333,2.23999 0.85333,5.11999 0,1.12 -0.24,1.49334 -0.24,0.37333 -0.90666,0.37333 h -17.97333 q 0.0533,2.56 0.69334,4.45333 0.64,1.89333 1.75999,3.17333 1.12,1.25333 2.66667,1.89333 1.54667,0.61334 3.46666,0.61334 1.78667,0 3.06667,-0.4 1.30666,-0.42667 2.24,-0.90667 0.93333,-0.48 1.54666,-0.88 0.64,-0.42667 1.09334,-0.42667 0.58666,0 0.90666,0.45334 l 1.33333,1.73333 q -0.87999,1.06667 -2.10666,1.86666 -1.22667,0.77334 -2.64,1.28 -1.38666,0.50667 -2.88,0.74667 -1.49333,0.26667 -2.96,0.26667 -2.79999,0 -5.17333,-0.93334 -2.34666,-0.96 -4.07999,-2.77333 -1.70667,-1.84 -2.66667,-4.53333 -0.96,-2.69333 -0.96,-6.18666 0,-2.82667 0.85333,-5.28 0.88,-2.45333 2.50667,-4.24 1.62667,-1.81333 3.97333,-2.82666 2.34667,-1.04 5.28,-1.04 z m 0.10666,3.49333 q -3.43999,0 -5.41333,2 -1.97333,1.97333 -2.45333,5.49333 h 14.69333 q 0,-1.65333 -0.45334,-3.01333 -0.45333,-1.38667 -1.33333,-2.37333 -0.88,-1.01334 -2.16,-1.54667 -1.25333,-0.56 -2.88,-0.56 z m 27.84,-3.49333 q 2.42666,0 4.47999,0.82667 2.05334,0.8 3.54667,2.34666 1.49333,1.52 2.32,3.78667 0.85333,2.23999 0.85333,5.11999 0,1.12 -0.24,1.49334 -0.24,0.37333 -0.90667,0.37333 h -17.97332 q 0.0533,2.56 0.69333,4.45333 0.64,1.89333 1.76,3.17333 1.12,1.25333 2.66667,1.89333 1.54666,0.61334 3.46666,0.61334 1.78667,0 3.06667,-0.4 1.30666,-0.42667 2.24,-0.90667 0.93333,-0.48 1.54666,-0.88 0.64,-0.42667 1.09334,-0.42667 0.58666,0 0.90666,0.45334 l 1.33333,1.73333 q -0.88,1.06667 -2.10666,1.86666 -1.22667,0.77334 -2.64,1.28 -1.38667,0.50667 -2.88,0.74667 -1.49333,0.26667 -2.96,0.26667 -2.79999,0 -5.17333,-0.93334 -2.34666,-0.96 -4.07999,-2.77333 -1.70667,-1.84 -2.66667,-4.53333 -0.96,-2.69333 -0.96,-6.18666 0,-2.82667 0.85333,-5.28 0.88,-2.45333 2.50667,-4.24 1.62666,-1.81333 3.97333,-2.82666 2.34667,-1.04 5.28,-1.04 z m 0.10666,3.49333 q -3.43999,0 -5.41333,2 -1.97333,1.97333 -2.45333,5.49333 h 14.69333 q 0,-1.65333 -0.45334,-3.01333 -0.45333,-1.38667 -1.33333,-2.37333 -0.88,-1.01334 -2.16,-1.54667 -1.25333,-0.56 -2.88,-0.56 z m 36.15999,23.94665 q -1.01334,0 -1.28,-0.98666 l -0.42667,-3.28 q -1.73333,2.10666 -3.97333,3.38666 -2.21333,1.25334 -5.09333,1.25334 -2.32,0 -4.21333,-0.88 -1.89333,-0.90667 -3.22667,-2.64 -1.33333,-1.73333 -2.05333,-4.32 -0.72,-2.58666 -0.72,-5.94666 0,-2.98667 0.8,-5.54667 0.8,-2.58666 2.29333,-4.47999 1.52,-1.89333 3.68,-2.96 2.16,-1.09333 4.90667,-1.09333 2.47999,0 4.23999,0.85333 1.76,0.82667 3.14667,2.34666 v -14.98665 h 4.74666 v 39.27997 z m -9.2,-3.46666 q 2.32,0 4.05333,-1.06667 1.76,-1.06666 3.22667,-3.01333 v -13.06666 q -1.30667,-1.76 -2.88,-2.45333 -1.54667,-0.72 -3.44,-0.72 -3.78666,0 -5.81333,2.69333 -2.02666,2.69333 -2.02666,7.68 0,2.64 0.45333,4.53333 0.45333,1.86666 1.33333,3.09333 0.88,1.2 2.16,1.76 1.28,0.56 2.93333,0.56 z m 27.91999,11.43999 q -0.24,0.53334 -0.61333,0.85333 -0.34666,0.32 -1.09333,0.32 h -3.52 l 4.93333,-10.71999 -11.14666,-25.43998 h 4.10667 q 0.61333,0 0.95999,0.32 0.34667,0.29333 0.50667,0.66666 l 7.22666,17.01333 q 0.24,0.58666 0.4,1.17333 0.18667,0.58666 0.32,1.2 0.18667,-0.61334 0.37334,-1.2 0.18666,-0.58667 0.42666,-1.2 l 7.01333,-16.98666 q 0.16,-0.42666 0.53333,-0.69333 0.4,-0.29333 0.85334,-0.29333 h 3.78666 z"
       id="path1" />
    <path
       style="text-align:center;text-anchor:middle"
       d="m 104.84673,195.41064 q -0.24,0.4 -0.50667,0.61333 -0.26667,0.18667 -0.69333,0.18667 -0.45334,0 -1.06667,-0.45333 -0.58666,-0.45334 -1.52,-0.98667 -0.90666,-0.56 -2.21333,-1.01333 -1.279999,-0.45334 -3.119998,-0.45334 -1.733332,0 -3.066665,0.48 -1.333332,0.45334 -2.239998,1.25334 -0.88,0.8 -1.333333,1.89333 -0.453333,1.06666 -0.453333,2.32 0,1.6 0.773333,2.66666 0.799999,1.04 2.079999,1.78667 1.306666,0.74666 2.933331,1.30666 1.653333,0.53334 3.359998,1.12 1.733333,0.58667 3.359996,1.33334 1.65333,0.72 2.93333,1.83999 1.30667,1.12 2.08,2.74667 0.8,1.62667 0.8,4 0,2.50666 -0.85333,4.71999 -0.85333,2.18667 -2.50667,3.81334 -1.62666,1.62666 -4.02666,2.55999 -2.373332,0.93334 -5.41333,0.93334 -3.706665,0 -6.77333,-1.33334 -3.039998,-1.35999 -5.199996,-3.65333 l 1.493332,-2.45333 q 0.213333,-0.29333 0.506666,-0.48 0.32,-0.21333 0.693333,-0.21333 0.56,0 1.279999,0.61333 0.72,0.58667 1.786666,1.30667 1.093333,0.72 2.613332,1.33333 1.546666,0.58667 3.759998,0.58667 1.839999,0 3.279998,-0.50667 1.439999,-0.50667 2.426662,-1.41333 1.01334,-0.93334 1.54667,-2.21333 0.53333,-1.28 0.53333,-2.85334 0,-1.73333 -0.8,-2.82666 -0.77333,-1.12 -2.05333,-1.86667 -1.279999,-0.74666 -2.933332,-1.25333 -1.626665,-0.53333 -3.359998,-1.06667 -1.706665,-0.56 -3.359998,-1.27999 -1.626665,-0.72 -2.906664,-1.86667 -1.28,-1.14667 -2.079999,-2.85333 -0.773333,-1.73333 -0.773333,-4.26667 0,-2.02666 0.773333,-3.91999 0.799999,-1.89334 2.293332,-3.36 1.493332,-1.46667 3.679998,-2.34667 2.213332,-0.88 5.066663,-0.88 3.199998,0 5.839998,1.01334 2.64,1.01333 4.61333,2.93333 z m 12.05336,5.22666 v 17.22666 q 0,3.06666 1.41333,4.74666 1.41333,1.68 4.26667,1.68 2.07999,0 3.91999,-0.98666 1.84,-0.98667 3.38667,-2.74667 V 200.6373 h 4.74666 v 27.01332 h -2.82666 q -1.01334,0 -1.28,-0.98667 l -0.37334,-2.90666 q -1.76,1.94666 -3.94666,3.14666 -2.18667,1.17334 -5.01333,1.17334 -2.21333,0 -3.92,-0.72 -1.68,-0.74667 -2.82666,-2.08 -1.14667,-1.33333 -1.73334,-3.22667 -0.56,-1.89333 -0.56,-4.18666 V 200.6373 Z m 25.54664,27.01332 V 200.6373 h 2.72 q 0.77333,0 1.06666,0.29334 0.29334,0.29333 0.4,1.01333 l 0.32,4.21333 q 1.38667,-2.82667 3.41333,-4.4 2.05334,-1.6 4.8,-1.6 1.12,0 2.02667,0.26667 0.90666,0.24 1.68,0.69333 l -0.61334,3.54667 q -0.18666,0.66666 -0.82666,0.66666 -0.37334,0 -1.14667,-0.24 -0.77333,-0.26666 -2.16,-0.26666 -2.48,0 -4.16,1.44 -1.65333,1.44 -2.77333,4.18666 v 17.19999 z m 18.07998,-27.01332 h 3.89333 q 0.56,0 0.93333,0.29334 0.37333,0.29333 0.53333,0.69333 l 6.85333,17.38666 q 0.37334,0.96 0.58667,1.91999 0.21333,0.96 0.4,1.89334 0.21333,-0.93334 0.45333,-1.89334 0.24,-0.95999 0.61334,-1.91999 l 6.93332,-17.38666 q 0.16,-0.42667 0.50667,-0.69333 0.37333,-0.29334 0.90667,-0.29334 h 3.70666 l -11.01333,27.01332 h -4.29333 z m 35.99994,0 v 27.01332 h -4.74667 V 200.6373 Z m 1.06666,-8.47999 q 0,0.69333 -0.29333,1.30666 -0.26667,0.58667 -0.74667,1.06667 -0.45333,0.45333 -1.06666,0.72 -0.61334,0.26667 -1.30667,0.26667 -0.69333,0 -1.30667,-0.26667 -0.58666,-0.26667 -1.06666,-0.72 -0.45333,-0.48 -0.72,-1.06667 -0.26667,-0.61333 -0.26667,-1.30666 0,-0.69333 0.26667,-1.30667 0.26667,-0.64 0.72,-1.09333 0.48,-0.48 1.06666,-0.74667 0.61334,-0.26666 1.30667,-0.26666 0.69333,0 1.30667,0.26666 0.61333,0.26667 1.06666,0.74667 0.48,0.45333 0.74667,1.09333 0.29333,0.61334 0.29333,1.30667 z m 3.89336,8.47999 H 205.38 q 0.56,0 0.93333,0.29334 0.37333,0.29333 0.53333,0.69333 l 6.85333,17.38666 q 0.37334,0.96 0.58667,1.91999 0.21333,0.96 0.4,1.89334 0.21333,-0.93334 0.45333,-1.89334 0.24,-0.95999 0.61334,-1.91999 l 6.93333,-17.38666 q 0.16,-0.42667 0.50666,-0.69333 0.37333,-0.29334 0.90667,-0.29334 h 3.70666 l -11.01332,27.01332 h -4.29334 z m 50.55993,27.01332 h -2.10667 q -0.69333,0 -1.12,-0.21333 -0.42666,-0.21334 -0.56,-0.90667 l -0.53333,-2.50666 q -1.06667,0.96 -2.08,1.73333 -1.01333,0.74666 -2.13333,1.28 -1.12,0.50666 -2.4,0.77333 -1.25333,0.26667 -2.8,0.26667 -1.57333,0 -2.96,-0.42667 -1.35999,-0.45333 -2.37333,-1.33333 -1.01333,-0.88 -1.62666,-2.21333 -0.58667,-1.36 -0.58667,-3.2 0,-1.6 0.88,-3.06667 0.88,-1.49333 2.82666,-2.64 1.97334,-1.14666 5.14667,-1.86666 3.17333,-0.74667 7.75999,-0.85333 v -2.10667 q 0,-3.14666 -1.36,-4.74666 -1.33333,-1.62667 -3.97333,-1.62667 -1.73333,0 -2.93333,0.45333 -1.17333,0.42667 -2.05333,0.98667 -0.85333,0.53333 -1.49333,0.98667 -0.61334,0.42666 -1.22667,0.42666 -0.48,0 -0.85333,-0.24 -0.34667,-0.26666 -0.56,-0.64 l -0.85333,-1.52 q 2.23999,-2.15999 4.82666,-3.22666 2.58667,-1.06667 5.73333,-1.06667 2.26667,0 4.02666,0.74667 1.76,0.74667 2.96,2.08 1.2,1.33333 1.81333,3.22666 0.61334,1.89334 0.61334,4.16 z m -12.32,-2.90666 q 1.25334,0 2.29334,-0.24 1.04,-0.26667 1.94666,-0.72 0.93334,-0.48 1.76,-1.14667 0.85333,-0.66667 1.65333,-1.52 v -5.62666 q -3.27999,0.10666 -5.57333,0.53333 -2.29333,0.4 -3.73333,1.06667 -1.44,0.66666 -2.10666,1.57333 -0.64,0.90667 -0.64,2.02666 0,1.06667 0.34666,1.84 0.34667,0.77334 0.93334,1.28 0.58666,0.48 1.38666,0.72 0.8,0.21334 1.73333,0.21334 z m 24.79998,-36.37332 v 39.27998 h -4.74666 v -39.27998 z"
       id="path2" />
  </g>
</svg>
