<svg xmlns="http://www.w3.org/2000/svg" xml:space="preserve" fill="none" stroke="#000" stroke-width="3" viewBox="0 0 348 348"><path d="M5 5.8h337v337.7H5z"/><circle cx="298.3" cy="40.5" r="15.9"/><path d="M72.3 88.6h208V289h-208z"/><path d="M30.5 188.8 58.3 205v-32.5zM176.3 46.7 160 74.6h32.4zM322 188.8l-27.8-16.3V205zm-145.7 142 16.2-27.8h-32.4z"/><path fill="#000" d="M227.2 100.7c-14.8 0-23.3 4.1-39.7 4.8-16.1.6-22.1 0-27.2 15.4-4.7 15.5-15.2 27.2-19.3 42-4.4 15.2-17.3 43.6-5.6 46.8 11.3 3.4 9.4 3.8 18.9-5 9.5-9 15.8-5.8 21.8-5.1 5.7.6 10.7 11.7 5 22-5.6 10.5-17 38-35.6 31-19-7-13.3-22-21.5-20.5-8.2 1.9-10.4 25.9 2.5 36.3 12.6 10.7 18.3 8.2 23.7 7.9a56.8 56.8 0 0 0 36.3-21.8c10.4-15.8 19.9-32.5 16.7-49.9-2.2-11.3-7.2-25.9-22.4-27.1-15.4-1.3-22.4 2.5-22.4 2.5l16.7-45.5s12-7.2 34.8-9.4c22-2.6 26.2-15.5 25.2-20-.3-4.4-4.7-4.4-7.9-4.4z"/></svg>