<svg version="1.1" id="Layer_1" xmlns="http://www.w3.org/2000/svg" x="0" y="0" viewBox="0 0 348 348" xml:space="preserve"><style>.st0,.st1{stroke:#000}.st0{stroke-width:2;fill:none}.st1{fill:#fff;stroke-miterlimit:10}</style><path class="st0" d="M5.1 5.8H342v337.7H5.1V5.8z"/><path class="st0" d="M282.7 40.6c0-8.4 7-15.2 15.6-15.2 4.1 0 8.1 1.6 11 4.4 2.9 2.8 4.6 6.7 4.6 10.7 0 8.4-7 15.2-15.6 15.2s-15.6-6.8-15.6-15.1z"/><circle class="st1" cx="173.5" cy="300.3" r="22.3"/><path class="st1" d="M74.9 140.4h198.2v82.5H74.9zM163.5 320.2v23.2M173.5 322.5v20.9M183.5 320.2v23.2"/><path class="st1" d="M74.9 181.7s63.7-16.8 99.1 0 99.1 0 99.1 0"/></svg>