<svg xmlns="http://www.w3.org/2000/svg" viewBox="0 0 348 348" fill="none"><path d="M5.079 5.776h336.913v337.67H5.08z" stroke-width="2" stroke="#000"/><path d="M282.734 40.554c0-8.376 6.966-15.165 15.56-15.165 4.126 0 8.084 1.597 11.001 4.441 2.918 2.844 4.558 6.702 4.558 10.724 0 8.376-6.966 15.165-15.56 15.165-8.593 0-15.559-6.79-15.559-15.165z" stroke-width="2" stroke="#000"/><path stroke="#000" stroke-width="2.419" d="M15.64 18.682h221.573V332.36H15.64z"/><path fill="#000" stroke="#000" stroke-width="1.881" d="M36.762 36.589h12.5v12.5h-12.5zM71.866 36.589h12.5v12.5h-12.5zM106.97 36.589h12.5v12.5h-12.5z"/><circle cx="289.086" cy="172.299" r="27.49" stroke="#000" stroke-width="2.685"/><path d="M282.487 170.853v41.27a13.986 13.986 0 00-7.43 12.355 13.986 13.986 0 0013.987 13.987 13.986 13.986 0 0013.987-13.987 13.986 13.986 0 00-7.285-12.276v-41.35z" fill="#fff" stroke="#000" stroke-width="2.685"/></svg>