<svg xmlns="http://www.w3.org/2000/svg" viewBox="0 0 348 348" stroke="#000" stroke-width="2" stroke-linejoin="round" fill="none"><path fill="#fff" d="M5 5h336v336H5z"/><path fill="#000" d="M134 16h74v57h-74z"/><g aria-label="0" style="line-height:normal" font-weight="400" font-size="30" font-family="'DejaVu Sans',Verdana,sans-serif" text-anchor="middle" fill="#fff" stroke="none"><path d="M167.993 44.087q0 5.874-1.846 8.628-1.83 2.74-5.698 2.74-3.926 0-5.742-2.784-1.802-2.783-1.802-8.555 0-5.815 1.831-8.584 1.831-2.783 5.713-2.783 3.926 0 5.728 2.827 1.816 2.813 1.816 8.51zm-3.852 6.65q.512-1.186.688-2.783.19-1.611.19-3.867 0-2.227-.19-3.867-.176-1.64-.703-2.783-.513-1.128-1.406-1.7-.88-.571-2.27-.571-1.378 0-2.286.571-.893.572-1.42 1.729-.499 1.084-.69 2.827-.175 1.743-.175 3.823 0 2.285.161 3.823.161 1.539.689 2.754.483 1.143 1.362 1.744.893.6 2.358.6 1.377 0 2.285-.571.909-.571 1.407-1.729zM187.095 44.087q0 5.874-1.846 8.628-1.831 2.74-5.698 2.74-3.926 0-5.742-2.784-1.802-2.783-1.802-8.555 0-5.815 1.83-8.584 1.832-2.783 5.714-2.783 3.926 0 5.727 2.827 1.817 2.813 1.817 8.51zm-3.853 6.65q.513-1.186.689-2.783.19-1.611.19-3.867 0-2.227-.19-3.867-.176-1.64-.703-2.783-.513-1.128-1.407-1.7-.879-.571-2.27-.571-1.377 0-2.285.571-.894.572-1.421 1.729-.498 1.084-.689 2.827-.176 1.743-.176 3.823 0 2.285.162 3.823.16 1.539.688 2.754.483 1.143 1.362 1.744.894.6 2.359.6 1.377 0 2.285-.571.908-.571 1.406-1.729z" style="line-height:normal"/></g><path d="M15 18h110v55H15zm0 55 40-54M37 73l40-54M60 73l40-54M82 73l40-54" id="a"/><use href="#a" x="202"/><circle cx="173" cy="165" r="28"/><circle cx="175" cy="159" r="75"/><path fill="#fff" d="m196 150 32 15-32 15z"/><path d="M175.019 104.744q0 1.424-.317 2.487-.307 1.055-1.02 1.758-.676.668-1.581.976-.906.307-2.11.307-1.23 0-2.144-.325-.914-.325-1.538-.958-.712-.72-1.029-1.74-.307-1.02-.307-2.505v-7.83h1.74v7.918q0 1.064.14 1.679.15.615.493 1.116.386.571 1.046.861.668.29 1.6.29.94 0 1.599-.28.659-.291 1.055-.871.342-.501.483-1.143.15-.65.15-1.608v-7.963h1.74z" style="line-height:normal" aria-label="U" font-weight="400" font-size="18" font-family="'DejaVu Sans',Verdana,sans-serif" text-anchor="middle" fill="#000" stroke="none"/><g id="b"><circle cx="55" cy="192" r="15"/><circle cx="100" cy="232" r="15"/><circle cx="148" cy="270" r="15"/><circle cx="198" cy="270" r="15"/><circle cx="241" cy="232" r="15"/><circle cx="288" cy="192" r="15"/></g><use href="#b" y="46"/></svg>