<svg xmlns="http://www.w3.org/2000/svg" viewBox="0 0 348 348" fill="none" version="1.1" id="svg831"><defs id="defs1357"><path id="rect942" d="M-21.723 34.322h272.404v59.086H-21.723z"/></defs><style id="style1281"/><path d="M5.079 5.776h336.913v337.67H5.08z" stroke-width="2" stroke="#000" id="path827"/><path d="M295.023 56.422c-2.64-.441-6.655-2.572-8.623-4.576-3.09-3.147-4.56-6.674-4.56-10.942 0-9.75 9.05-17.199 18.873-15.534 12.848 2.177 17.92 17.275 8.88 26.435-2.353 2.384-4.913 3.778-8.23 4.481-2.634.558-3.682.581-6.34.136zm8.151-2.846c5.277-1.975 8.969-7.248 8.957-12.794-.022-10.072-11.37-16.654-20.707-12.01-2.14 1.064-5.007 3.973-6.157 6.245-1.849 3.654-1.667 8.863.44 12.633 1.65 2.953 5.745 5.894 9.245 6.64 2.215.471 5.91.15 8.222-.714z" id="path857" fill="#000" stroke-width=".361"/><rect id="rect864" width="252.692" height="252.692" x="19.542" y="73.98" ry="24.613" fill="none" fill-opacity=".547" stroke="#000" stroke-width="4" stroke-miterlimit="4" stroke-dasharray="none"/><rect id="rect866" width="217.414" height="36.099" x="36.771" y="23.934" ry="18.049" fill="none" fill-opacity=".547" stroke="#000" stroke-width="4" stroke-miterlimit="4" stroke-dasharray="none"/><rect id="rect868" width="217.414" height="36.099" x="89.158" y="-324.331" ry="18.049" transform="rotate(90)" fill="none" fill-opacity=".547" stroke="#000" stroke-width="4" stroke-miterlimit="4" stroke-dasharray="none"/><rect id="rect870" width="236.44" height="236.44" x="27.668" y="82.106" ry="16.947" fill="none" fill-opacity=".547" stroke="#000" stroke-width="4" stroke-miterlimit="4" stroke-dasharray="none"/><rect id="rect872" width="220.205" height="220.205" x="35.785" y="90.224" ry="11.439" fill="none" fill-opacity=".547" stroke="#000" stroke-width="4" stroke-miterlimit="4" stroke-dasharray="none"/><rect id="rect874" width="203.861" height="20.91" x="43.547" y="31.529" ry="10.455" rx="10.822" fill="none" fill-opacity=".547" stroke="#000" stroke-width="3.769" stroke-miterlimit="4" stroke-dasharray="none"/><path d="M73.16 41.273V83.85" id="path876" fill="none" fill-opacity=".547" stroke="#000" stroke-width="3.868" stroke-miterlimit="4" stroke-dasharray="none"/><path d="M217.168 41.273V83.85" id="path878" fill="none" fill-opacity=".547" stroke="#000" stroke-width="3.868" stroke-miterlimit="4" stroke-dasharray="none"/><path d="M109.162 41.273V83.85" id="path880" fill="none" fill-opacity=".547" stroke="#000" stroke-width="3.868" stroke-miterlimit="4" stroke-dasharray="none"/><path d="M145.164 41.273V83.85" id="path882" fill="none" fill-opacity=".547" stroke="#000" stroke-width="3.868" stroke-miterlimit="4" stroke-dasharray="none"/><path d="M181.166 41.273V83.85" id="path884" fill="none" fill-opacity=".547" stroke="#000" stroke-width="3.868" stroke-miterlimit="4" stroke-dasharray="none"/><path d="M306.787 126.878H264.21" id="path898" fill="none" fill-opacity=".547" stroke="#000" stroke-width="3.877" stroke-miterlimit="4" stroke-dasharray="none"/><path d="M306.787 270.204H264.21" id="path900" fill="none" fill-opacity=".547" stroke="#000" stroke-width="3.877" stroke-miterlimit="4" stroke-dasharray="none"/><path d="M306.787 162.71H264.21" id="path902" fill="none" fill-opacity=".547" stroke="#000" stroke-width="3.877" stroke-miterlimit="4" stroke-dasharray="none"/><path d="M306.787 198.541H264.21" id="path904" fill="none" fill-opacity=".547" stroke="#000" stroke-width="3.877" stroke-miterlimit="4" stroke-dasharray="none"/><path d="M306.787 234.373H264.21" id="path906" fill="none" fill-opacity=".547" stroke="#000" stroke-width="3.877" stroke-miterlimit="4" stroke-dasharray="none"/><rect id="rect912" width="203.861" height="20.91" x="95.589" y="-316.682" ry="10.455" rx="10.822" transform="rotate(90)" fill="none" fill-opacity=".547" stroke="#000" stroke-width="3.769" stroke-miterlimit="4" stroke-dasharray="none"/><g aria-label="SBNPLY VTKDJH KJCQXR QDBTSF PXZCHV LRYFNZ" transform="scale(1.04126 .96037)" id="text928" style="line-height:0;-inkscape-font-specification:'Eras Demi ITC'" font-size="44.147" font-family="Eras Demi ITC" fill="#000" stroke-width="1.104" letter-spacing="4.428" text-anchor="middle"><path d="M48.06 128.188q-.172-3.277-.452-5.346 4.225 1.918 7.674 1.918 1.38 0 2.565-.41 1.207-.43 1.767-1.185.582-.776.582-1.724 0-.733-.258-1.315-.388-.798-1.294-1.66-1.25-1.186-4.462-3.902-1.53-1.315-2.112-1.875-1.294-1.229-1.983-2.199-.69-.991-.992-1.961-.302-.97-.302-2.07 0-2.026 1.121-3.794 1.143-1.789 3.385-2.78 2.263-1.014 5.69-1.014 3.083 0 6.941.755.108 2.242.432 5.13-3.363-1.293-6.209-1.293-2.112 0-3.47.97-1.337.948-1.337 2.22 0 .345.087.733.086.367.258.733.173.345.604.927.452.56 1.293 1.336.862.755 1.466 1.23l2.996 2.413q1.013.841 1.811 1.639.798.797 1.358 1.53.582.733.905 1.401.324.669.475 1.38.172.69.172 1.466 0 1.81-.84 3.427-.841 1.595-2.415 2.63-1.573 1.035-3.449 1.423-1.875.41-3.966.41-1.38 0-3.212-.238-1.832-.237-4.829-.905z" style="line-height:.85;text-align:center" id="path946"/><path d="M75.92 128.813q.41-4.57.56-7.48.151-2.91.388-9.937.237-7.028.237-9.658 0-.797-.021-2.35 2.716.044 4.505.044 1.81 0 4.462-.065 2.652-.065 4.376-.065 2.414 0 3.622.216 1.228.194 2.177.604.948.41 1.595 1.013.647.582 1.1 1.4.473.798.69 1.747.236.927.236 1.897 0 1.207-.302 2.306-.28 1.078-.84 1.962-.54.862-1.272 1.487-.733.604-1.401.949-.669.345-1.79.733 1.014.215 1.617.43.604.195 1.294.626.69.41 1.293 1.078.625.647.992 1.38.366.732.56 1.638.216.884.216 1.854 0 2.069-.906 3.793-.884 1.725-2.457 2.738-1.574.992-3.535 1.337-1.94.323-8.278.323l-5.217-.022zm7.049-17.223h3.47q2.22 0 2.975-.108.776-.108 1.617-.41.84-.323 1.422-.97.582-.668.841-1.444.28-.798.28-1.617 0-.797-.301-1.509-.28-.711-.884-1.164-.604-.474-1.466-.668-.84-.216-2.48-.216H83.27zm-.518 12.998h4.894q1.487 0 2.306-.108.84-.13 1.595-.431.755-.302 1.186-.647.431-.345.754-.883.345-.54.54-1.208.193-.69.193-1.422 0-.992-.345-1.746-.345-.755-1.034-1.294-.669-.56-1.574-.797-.905-.259-2.76-.259h-5.431z" style="line-height:.85;text-align:center" id="path948"/><path d="M109.168 128.813q.41-3.859.625-8.666l.496-10.562q.259-5.734.259-10.196 2.5.043 4.246.043 1.294 0 3.773-.043 2.436 4.246 6.725 11.08 4.29 6.833 6.92 11.317l.797-20.005q.022-.71.022-2.392 2.026.043 3.061.043.41 0 3.018-.043l-.539 7.91-.668 13.538-.259 7.976q-2.242-.043-3.815-.043-1.25 0-4.053.043-1.078-1.919-1.638-2.845-.884-1.423-3.773-5.864-1.896-2.931-4.742-7.501-2.09-3.363-3.578-5.864-.173 3.492-.54 12.956-.15 3.858-.236 9.118-2.027-.043-2.932-.043-.711 0-3.169.043z" style="line-height:.85;text-align:center" id="path950"/><path d="M148.366 128.813l.388-5.109.54-11.317.258-8.213q.021-1.12.021-2.263 0-.84-.021-2.522 2.76.043 4.484.043 1.38 0 3.837-.065 2.457-.065 3.901-.065 2.975 0 4.376.432 1.488.474 2.608 1.487 1.121 1.013 1.703 2.436.647 1.595.647 3.427 0 2.781-1.401 5.066-1.38 2.263-3.837 3.384-2.457 1.121-5.454 1.121-1.466 0-3.125-.302-.475-2.241-1.078-4.203 1.336.28 2.651.28 1.79 0 3.104-.539 1.315-.539 2.091-1.746.776-1.228.776-2.759 0-.905-.323-1.66-.323-.754-.949-1.207-.603-.453-1.358-.603-.733-.173-2.112-.173-1.207 0-2.436.043-1.229.043-2.177.043-.259 4.225-.388 8.084l-.259 8.234q-.13 4.376-.13 6.424 0 .776.022 2.242l-3.125-.043q-.604 0-3.234.043z" style="line-height:.85;text-align:center" id="path952"/><path d="M178.597 128.813q.647-6.488 1.035-14.443.388-7.976.452-14.981 2.199.043 3.665.043.991 0 3.169-.043-.28 3.88-.518 8.838l-.43 8.644q-.195 3.707-.281 7.372l3.708.043q5.216 0 6.854-.021 1.639-.044 3.234-.13-.194 2.113-.345 4.678-5.67-.043-9.7-.043l-6.79.021z" style="line-height:.85;text-align:center" id="path954"/><path d="M212.859 128.813q.258-2.393.517-6.251.28-3.859.323-6.144l-9.657-17.03q2.436.044 3.794.044 1.293 0 3.449-.043.97 2.242 2.824 5.69 1.854 3.428 3.19 6.295l6.402-10.347q.324-.539.949-1.638 2.09.043 3.707.043.841 0 3.471-.043l-11.77 17.482-.258 5.454q-.13 2.414-.194 6.488-2.307-.043-3.363-.043-1.078 0-3.384.043z" style="line-height:.85;text-align:center" id="path956"/><path d="M50.507 166.338l-.82-2.716q-.172-.539-1.422-4.117l-4.182-11.9-3.837-10.691q2.22.043 3.686.043.906 0 3.17-.043l.667 2.392q.216.733.625 1.984l5.217 15.8q.474 1.53 1.229 4.031l1.164-2.63q.43-.97 1.789-3.793l6.79-14.184q.302-.626.604-1.315.302-.712.948-2.285 2.35.043 3.579.043.732 0 3.384-.043l-1.854 3.449-11.791 23.28-1.25 2.695q-2.803-.043-3.751-.043-.84 0-3.945.043z" style="line-height:.85;text-align:center" id="path958"/><path d="M84.51 166.338l.474-6.294.474-9.377.302-9.226h-1.509l-1.4.021-1.337.022-4.98.15q.173-3.104.194-4.72 6.208.043 12.999.043l7.738-.022 4.139-.021q-.216 3.04-.216 4.677-3.901-.194-7.48-.194h-1.66l-.258 3.945-.625 15.176-.043 2.543q-.022 1.574-.022 3.277l-3.276-.043q-.54 0-3.514.043z" style="line-height:.85;text-align:center" id="path960"/><path d="M108.101 166.338q.367-4.225.54-7.286.258-4.376.581-12.373.216-5.476.216-7.76v-2.005q2.673.043 3.513.043.56 0 3.32-.043l-.668 11.64-.582 13.947-.065 3.837-3.341-.043q-.604 0-3.514.043zm7.825-15.564l4.893-6.014 4.463-5.67q.474-.624 1.595-2.176l3.88.043q.237 0 3.708-.043l-9.916 11.662-1.682 2.09 1.358 1.94q.302.41 4.268 5.605l6.273 8.127-3.837-.043q-1.013 0-4.203.043l-1.38-2.156q-.388-.625-1.38-2.047l-5.863-8.364z" style="line-height:.85;text-align:center" id="path962"/><path d="M142.169 166.338l.582-7.502.431-9.377.28-9.333q.022-.604.022-3.212 2.393.043 4.505.043 1.574 0 4.139-.065 2.587-.065 4.462-.065 2.544 0 4.7.302 2.176.302 3.793 1.143 1.617.819 2.802 2.07 1.186 1.25 1.94 2.78.755 1.509 1.143 3.384.41 1.854.41 3.794 0 3.708-1.294 7.07-1.272 3.342-3.815 5.54-2.544 2.178-5.648 2.803-3.082.625-7.006.625l-7.329-.043q-.69 0-4.117.043zm6.618-4.592q1.767.087 3.492.087 1.961 0 3.621-.194 1.682-.194 2.889-.604 1.207-.431 2.414-1.487 1.229-1.057 2.005-2.436.776-1.401 1.185-3.104.41-1.703.41-3.47 0-3.234-1.1-5.304-1.099-2.09-2.91-2.996-1.789-.927-5.54-.927-2.435 0-5.583.086z" style="line-height:.85;text-align:center" id="path964"/><path d="M176.797 165.864q-.13-2.48-.388-5.152 2.35.776 3.686 1.056 1.358.28 2.608.28 1.014 0 1.962-.28.84-.237 1.487-.625.475-.323.798-.711.474-.56.776-1.294.302-.776.474-2.112.237-1.768.41-5.864.13-3.211.237-7.2.086-3.34.086-7.048 2.565.043 3.298.043.862 0 3.45-.043l-.583 9.247q-.172 3.342-.366 9.162-.13 3.988-.431 5.453-.216 1.121-.669 1.984-.41.776-1.013 1.38-.711.689-1.724 1.228-1.315.711-2.803 1.056-1.66.41-3.6.41-3.298 0-7.695-.97z" style="line-height:.85;text-align:center" id="path966"/><path d="M204.937 166.338l.495-7.739q.41-6.337.582-11.748.173-5.432.173-7.566l-.022-2.371q2.544.043 3.6.043.798 0 3.255-.043l-.56 9.722-.065 2.241 14.701-.021.26-5.82q.085-2.997.085-3.945v-2.177l3.6.043q.474 0 3.234-.043l-.712 11.748-.323 8.709-.086 5.108q-.043 3.148-.043 3.859l-3.363-.043q-.625 0-3.579.043.56-6.1.712-12.826h-14.723l-.302 7.933-.086 4.893-3.535-.043q-.582 0-3.298.043z" style="line-height:.85;text-align:center" id="path968"/><path d="M43.598 203.863q.367-4.225.54-7.286.258-4.376.581-12.373.216-5.476.216-7.76v-2.005q2.673.043 3.513.043.56 0 3.32-.043l-.668 11.64-.582 13.947-.065 3.837-3.341-.043q-.604 0-3.514.043zm7.825-15.564l4.893-6.014 4.463-5.669q.474-.625 1.595-2.177l3.88.043q.237 0 3.707-.043L60.046 186.1l-1.682 2.09 1.358 1.94q.302.41 4.268 5.605l6.273 8.127-3.837-.043q-1.013 0-4.203.043l-1.38-2.156q-.388-.625-1.38-2.047l-5.863-8.364z" style="line-height:.85;text-align:center" id="path970"/><path d="M74.54 203.389q-.13-2.48-.388-5.152 2.35.776 3.686 1.056 1.358.28 2.609.28 1.013 0 1.961-.28.84-.237 1.488-.625.474-.323.797-.711.474-.56.776-1.294.302-.776.474-2.112.238-1.768.41-5.864.13-3.211.237-7.2.086-3.34.086-7.048 2.566.043 3.298.043.863 0 3.45-.043l-.583 9.247q-.172 3.342-.366 9.162-.13 3.988-.431 5.453-.216 1.121-.668 1.984-.41.776-1.014 1.38-.71.69-1.724 1.228-1.315.711-2.802 1.056-1.66.41-3.6.41-3.298 0-7.696-.97z" style="line-height:.85;text-align:center" id="path972"/><path d="M126.715 198.474q-.474 2.522-.82 5.13-2.456.431-4.504.604-2.048.172-3.514.172-3.233 0-6.187-.905-2.931-.905-5.302-2.845-2.35-1.962-3.406-4.743-1.057-2.78-1.057-6.079 0-3.578 1.272-6.617 1.272-3.04 3.643-5.13 2.393-2.092 5.648-3.105 3.255-1.035 6.79-1.035 3.492 0 7.631.798.065 1.919.13 2.716l.15 2.307q-2.436-.647-4.052-.884-1.617-.237-3.083-.237-2.306 0-4.44.711-2.113.69-3.751 2.22-1.617 1.53-2.5 3.708-.863 2.156-.863 4.505 0 2.803 1.078 5.023 1.078 2.22 3.449 3.6 2.393 1.38 5.906 1.38 3.255 0 7.782-1.294z" style="line-height:.85;text-align:center" id="path974"/><path d="M168.888 198.237q-.28 1.293-.518 2.587l-.41 2.35q-3.771.56-8.126.883-4.333.323-7.394.323-3.578 0-6.725-.776-3.126-.797-5.626-2.759-2.5-1.961-3.794-4.72-1.294-2.76-1.294-6.381 0-3.6 1.25-6.575 1.273-2.975 3.708-5.109 2.436-2.134 5.648-3.125 3.234-1.014 6.833-1.014 3.255 0 6.273.949 3.018.927 5.195 2.91 2.178 1.962 3.342 4.72 1.164 2.76 1.164 5.735 0 1.509-.302 2.953t-.862 2.76q-.56 1.314-1.272 2.284-.712.97-1.466 1.681-.733.712-1.79 1.574 2.07-.237 2.954-.41.884-.193 3.212-.84zm-16.75-19.703q-3.125 0-5.669 1.466-2.522 1.445-3.815 4.074-1.293 2.609-1.293 5.497 0 3.234 1.314 5.497 1.315 2.263 3.622 3.45 2.328 1.163 5.087 1.163 2.975 0 5.454-1.358 2.5-1.358 3.75-3.902 1.272-2.565 1.272-5.712 0-2.285-.668-4.16-.668-1.897-1.94-3.234-1.25-1.358-3.147-2.07-1.897-.71-3.966-.71z" style="line-height:.85;text-align:center" id="path976"/><path d="M173.423 203.863l1.596-2.005q.754-.927 2.565-3.298l5.82-7.652 1.832-2.544-2.63-4.246-6.359-9.68q2.113.044 4.053.044 1.552 0 3.557-.043 1.38 2.543 3.125 5.281 1.768 2.738 2.716 4.484 1.186-1.811 3.363-4.764 2.177-2.975 3.406-5.001 1.768.043 3.578.043 1.164 0 3.579-.043-1.703 2.306-4.829 6.359-3.104 4.03-5.906 7.933 2.931 4.85 9.743 15.132-2.522-.043-3.664-.043-1.854 0-3.988.043-1.207-2.285-3.255-5.561-2.048-3.277-3.234-5.368-1.207 1.832-3.6 5.044-2.37 3.212-4.16 5.885-2.35-.043-3.578-.043-1.358 0-3.73.043z" style="line-height:.85;text-align:center" id="path978"/><path d="M210.1 203.863q.646-6.424.97-14.766.323-8.342.323-14.658 2.587.043 4.333.043 1.875 0 3.664-.065 1.81-.065 3.816-.065 2.5 0 4.462.28 1.983.28 3.513 1.294 1.53 1.013 2.264 2.457.754 1.445.754 3.363 0 1.207-.28 2.307-.28 1.078-.84 2.048-.54.948-1.294 1.681-.755.711-1.509 1.142-.733.41-1.681.712-.949.302-2.544.733l1.466 2.845q.711 1.358 2.694 4.872l2.177 3.815q.173.302 1.035 1.962-2.63-.043-3.47-.043-1.035 0-3.643.043l-2.393-5.734q-.625-1.315-1.509-3.104l-2.608-5.238q-.388-.733-1.078-2.199 1.444.259 2.63.259 1.854 0 3.384-.604 1.53-.603 2.35-1.854.819-1.272.819-2.759 0-.905-.367-1.681-.345-.776-1.185-1.315-.84-.54-2.005-.69-1.164-.15-2.328-.15-.647 0-1.768.02-1.12.022-2.759.022l-.388 8.86-.41 16.167-3.34-.043q-.798 0-3.256.043z" style="line-height:.85;text-align:center" id="path980"/><path d="M76.504 235.762q-.28 1.293-.518 2.587l-.41 2.35q-3.772.56-8.126.883-4.333.323-7.394.323-3.578 0-6.725-.776-3.126-.797-5.626-2.759-2.5-1.961-3.794-4.72-1.294-2.76-1.294-6.381 0-3.6 1.25-6.575 1.272-2.975 3.708-5.109t5.648-3.125q3.233-1.014 6.833-1.014 3.255 0 6.273.949 3.018.927 5.195 2.91 2.177 1.962 3.341 4.72 1.165 2.76 1.165 5.735 0 1.509-.302 2.953t-.863 2.76q-.56 1.314-1.271 2.284-.712.97-1.466 1.682-.733.71-1.79 1.573 2.07-.237 2.954-.41.884-.193 3.212-.84zm-16.75-19.702q-3.125 0-5.669 1.465-2.522 1.445-3.815 4.074-1.294 2.609-1.294 5.497 0 3.234 1.315 5.497 1.315 2.264 3.622 3.45 2.328 1.163 5.087 1.163 2.975 0 5.454-1.358 2.5-1.358 3.75-3.902 1.272-2.565 1.272-5.712 0-2.285-.668-4.16-.668-1.897-1.94-3.234-1.25-1.358-3.147-2.07-1.897-.71-3.966-.71z" style="line-height:.85;text-align:center" id="path982"/><path d="M85.07 241.388l.582-7.502.432-9.376.28-9.334q.021-.604.021-3.212 2.393.043 4.506.043 1.573 0 4.138-.065 2.587-.064 4.463-.064 2.543 0 4.699.301 2.177.302 3.794 1.143 1.616.819 2.802 2.07 1.186 1.25 1.94 2.78.754 1.509 1.142 3.384.41 1.854.41 3.794 0 3.708-1.293 7.07-1.272 3.342-3.816 5.54-2.543 2.178-5.647 2.803-3.083.625-7.006.625l-7.33-.043q-.69 0-4.117.043zm6.618-4.591q1.768.086 3.492.086 1.962 0 3.622-.194 1.681-.194 2.888-.604 1.207-.43 2.415-1.487 1.228-1.056 2.004-2.436.776-1.401 1.186-3.104.41-1.703.41-3.47 0-3.234-1.1-5.304-1.1-2.09-2.91-2.996-1.79-.927-5.54-.927-2.436 0-5.583.086z" style="line-height:.85;text-align:center" id="path984"/><path d="M122.846 241.388q.41-4.57.56-7.48.151-2.91.388-9.937.237-7.028.237-9.658 0-.797-.021-2.35 2.716.044 4.505.044 1.81 0 4.462-.065 2.651-.064 4.376-.064 2.414 0 3.621.215 1.23.194 2.178.604t1.595 1.013q.646.582 1.1 1.401.473.798.689 1.746.237.927.237 1.897 0 1.207-.302 2.306-.28 1.078-.84 1.962-.54.862-1.272 1.487-.733.604-1.401.949-.669.345-1.79.733 1.014.215 1.617.431.604.194 1.294.625.69.41 1.293 1.078.625.647.991 1.38.367.732.56 1.638.216.884.216 1.854 0 2.069-.905 3.794-.884 1.724-2.457 2.737-1.574.992-3.535 1.337-1.94.323-8.278.323l-5.217-.022zm7.049-17.223h3.47q2.22 0 2.975-.108.776-.108 1.617-.41.84-.323 1.422-.97.582-.668.841-1.444.28-.798.28-1.617 0-.797-.302-1.509-.28-.711-.883-1.164-.604-.474-1.466-.668-.84-.216-2.48-.216h-5.173zm-.518 12.998h4.893q1.488 0 2.307-.108.84-.13 1.595-.43.755-.303 1.186-.648.43-.344.754-.883.345-.54.54-1.208.193-.69.193-1.422 0-.992-.345-1.746-.345-.755-1.034-1.294-.669-.56-1.574-.797-.905-.259-2.76-.259h-5.431z" style="line-height:.85;text-align:center" id="path986"/><path d="M162.367 241.388l.474-6.294.475-9.377.301-9.226h-1.509l-1.4.021-1.337.022-4.98.15q.173-3.103.194-4.72 6.208.043 12.999.043l7.738-.022 4.14-.021q-.216 3.04-.216 4.677-3.902-.193-7.48-.193h-1.66l-.259 3.944-.625 15.176-.043 2.543q-.022 1.574-.022 3.277l-3.276-.043q-.54 0-3.514.043z" style="line-height:.85;text-align:center" id="path988"/><path d="M185.204 240.763q-.173-3.277-.453-5.346 4.225 1.918 7.674 1.918 1.38 0 2.565-.41 1.208-.43 1.768-1.185.582-.776.582-1.724 0-.733-.259-1.315-.388-.798-1.293-1.66-1.25-1.186-4.462-3.902-1.53-1.315-2.113-1.875-1.293-1.229-1.983-2.199-.69-.991-.991-1.961-.302-.97-.302-2.07 0-2.026 1.12-3.794 1.143-1.789 3.385-2.78 2.263-1.014 5.69-1.014 3.083 0 6.942.755.108 2.242.431 5.13-3.363-1.293-6.208-1.293-2.113 0-3.47.97-1.337.948-1.337 2.22 0 .345.086.733.086.367.259.733.172.345.603.927.453.56 1.294 1.336.862.755 1.466 1.23l2.996 2.413q1.013.841 1.81 1.639.798.797 1.359 1.53.582.733.905 1.401.323.669.474 1.38.173.69.173 1.466 0 1.81-.841 3.427-.84 1.595-2.414 2.63-1.574 1.035-3.45 1.423-1.875.41-3.966.41-1.38 0-3.212-.238-1.832-.237-4.828-.905z" style="line-height:.85;text-align:center" id="path990"/><path d="M213.063 241.388q.388-4.225.518-6.79.237-4.29.496-12.287.194-5.907.194-8.342v-2.005q6.186.043 10.82.043l6.036-.022 3.6-.021q-.237 3.212-.258 4.656l-3.083-.108-1.25-.021h-4.958l-4.462.021-.259 7.739 3.665.065q4.182 0 5.367-.022l2.932-.043q-.151 2.5-.194 4.57-3.75-.086-5.971-.086-2.803 0-6.058.086l-.237 9.528-.021 1.94v1.099l-3.298-.043q-.259 0-3.579.043z" style="line-height:.85;text-align:center" id="path992"/><path d="M41.809 278.913l.388-5.109.539-11.317.259-8.213q.021-1.12.021-2.263 0-.84-.021-2.522 2.759.043 4.483.043 1.38 0 3.837-.065 2.458-.064 3.902-.064 2.975 0 4.376.43 1.487.475 2.608 1.488t1.703 2.436q.647 1.595.647 3.427 0 2.781-1.401 5.066-1.38 2.263-3.837 3.384-2.458 1.121-5.454 1.121-1.466 0-3.126-.301-.474-2.242-1.077-4.204 1.336.28 2.65.28 1.79 0 3.105-.539t2.091-1.746q.776-1.228.776-2.759 0-.905-.323-1.66-.324-.754-.949-1.207-.603-.453-1.358-.603-.733-.173-2.112-.173-1.208 0-2.436.043-1.229.043-2.177.043-.26 4.225-.388 8.084l-.26 8.234q-.128 4.376-.128 6.424 0 .776.021 2.242l-3.126-.043q-.603 0-3.233.043z" style="line-height:.85;text-align:center" id="path994"/><path d="M68.181 278.913l1.595-2.005q.755-.927 2.565-3.298l5.82-7.652 1.833-2.544-2.63-4.246-6.359-9.68q2.112.044 4.053.044 1.552 0 3.556-.043 1.38 2.543 3.126 5.281 1.768 2.738 2.716 4.484 1.186-1.81 3.363-4.764 2.177-2.975 3.406-5.001 1.767.043 3.578.043 1.164 0 3.578-.043-1.703 2.306-4.828 6.359-3.104 4.03-5.907 7.933 2.932 4.85 9.744 15.132-2.522-.043-3.665-.043-1.854 0-3.988.043-1.207-2.285-3.255-5.561-2.048-3.277-3.233-5.368-1.207 1.832-3.6 5.044-2.371 3.212-4.16 5.885-2.35-.043-3.579-.043-1.358 0-3.729.043z" style="line-height:.85;text-align:center" id="path996"/><path d="M103.327 278.913q.194-2.932.215-4.872l1.013-1.12q.065-.065 1.833-2.2l10.562-12.653 3.341-4.139-1.422-.021h-.54l-1.875-.022h-3.276q-4.053 0-7.911.237.129-1.68.129-3.621 0-.366-.022-1.013 5.627.043 11.943.043l7.2-.022 3.922-.021q-.172 2.35-.215 4.807l-1.466 1.617q-.431.474-.84.991l-7.696 9.42-6.747 8.062 1.724.022q7.286 0 9.377-.043 2.091-.043 4.57-.194-.172 3.018-.215 4.742-6.187-.043-11.339-.043l-7.954.022z" style="line-height:.85;text-align:center" id="path998"/><path d="M160.74 273.524q-.475 2.522-.82 5.13-2.457.432-4.505.604t-3.513.172q-3.234 0-6.187-.905-2.932-.905-5.303-2.845-2.35-1.962-3.406-4.743-1.056-2.78-1.056-6.079 0-3.578 1.272-6.617 1.272-3.04 3.643-5.13 2.392-2.092 5.647-3.105 3.255-1.034 6.79-1.034 3.493 0 7.632.797.064 1.919.129 2.716l.15 2.307q-2.435-.647-4.052-.884-1.616-.237-3.082-.237-2.307 0-4.44.711-2.113.69-3.752 2.22-1.616 1.53-2.5 3.708-.862 2.156-.862 4.505 0 2.803 1.077 5.023 1.078 2.22 3.45 3.6 2.392 1.38 5.906 1.38 3.255 0 7.782-1.294z" style="line-height:.85;text-align:center" id="path1000"/><path d="M169.78 278.913l.496-7.739q.41-6.337.582-11.748.173-5.432.173-7.566l-.022-2.371q2.544.043 3.6.043.798 0 3.255-.043l-.56 9.722-.065 2.242 14.701-.022.259-5.82q.086-2.996.086-3.945v-2.177l3.6.043q.474 0 3.233-.043l-.711 11.748-.323 8.709-.087 5.109q-.043 3.147-.043 3.858l-3.362-.043q-.626 0-3.579.043.56-6.1.712-12.826h-14.723l-.302 7.933-.086 4.893-3.535-.043q-.583 0-3.299.043z" style="line-height:.85;text-align:center" id="path1002"/><path d="M216.523 278.913l-.819-2.716q-.172-.539-1.423-4.117l-4.182-11.9-3.837-10.691q2.22.043 3.686.043.906 0 3.17-.043l.667 2.393q.216.733.626 1.983l5.216 15.8q.474 1.531 1.229 4.031l1.164-2.63q.431-.97 1.79-3.793l6.79-14.184q.301-.625.603-1.315.302-.712.948-2.285 2.35.043 3.579.043.733 0 3.384-.043l-1.854 3.449-11.791 23.28-1.25 2.695q-2.803-.043-3.751-.043-.84 0-3.945.043z" style="line-height:.85;text-align:center" id="path1004"/><path d="M49.412 316.438q.647-6.488 1.035-14.443.388-7.975.452-14.981 2.2.043 3.665.043.992 0 3.169-.043-.28 3.88-.518 8.838l-.43 8.644q-.195 3.708-.281 7.372l3.708.043q5.216 0 6.855-.021 1.638-.043 3.233-.13-.194 2.113-.345 4.678-5.67-.043-9.7-.043l-6.79.022z" style="line-height:.85;text-align:center" id="path1006"/><path d="M77.66 316.438q.646-6.424.97-14.766.323-8.342.323-14.658 2.587.043 4.333.043 1.875 0 3.664-.065 1.81-.064 3.816-.064 2.5 0 4.462.28 1.983.28 3.513 1.293 1.53 1.013 2.264 2.458.754 1.444.754 3.362 0 1.208-.28 2.307-.28 1.078-.84 2.048-.54.948-1.294 1.681-.754.711-1.509 1.143-.733.41-1.681.71-.949.303-2.544.734l1.466 2.845q.711 1.358 2.694 4.872l2.178 3.815q.172.302 1.034 1.962-2.63-.043-3.47-.043-1.035 0-3.643.043l-2.393-5.734q-.625-1.315-1.509-3.104l-2.608-5.238q-.388-.733-1.078-2.199 1.444.259 2.63.259 1.854 0 3.384-.604 1.53-.603 2.35-1.854.819-1.271.819-2.759 0-.905-.367-1.681-.344-.776-1.185-1.315-.84-.539-2.005-.69-1.164-.15-2.328-.15-.647 0-1.768.02-1.12.022-2.759.022l-.388 8.86-.41 16.167-3.34-.043q-.798 0-3.256.043z" style="line-height:.85;text-align:center" id="path1008"/><path d="M115.952 316.438q.259-2.393.517-6.251.28-3.859.324-6.144l-9.657-17.03q2.436.044 3.794.044 1.293 0 3.449-.043.97 2.242 2.823 5.69 1.854 3.428 3.19 6.295l6.403-10.347q.323-.539.948-1.638 2.091.043 3.708.043.84 0 3.47-.043l-11.77 17.482-.258 5.454q-.13 2.414-.194 6.488-2.306-.043-3.363-.043-1.077 0-3.384.043z" style="line-height:.85;text-align:center" id="path1010"/><path d="M140.341 316.438q.388-4.225.517-6.79.238-4.29.496-12.287.194-5.907.194-8.342v-2.005q6.187.043 10.821.043l6.036-.022 3.6-.021q-.237 3.212-.259 4.656l-3.082-.108-1.25-.021h-4.958l-4.463.021-.258 7.739 3.664.065q4.182 0 5.368-.022l2.932-.043q-.151 2.5-.195 4.57-3.75-.086-5.97-.086-2.803 0-6.058.086l-.237 9.528-.022 1.94v1.1l-3.298-.044q-.258 0-3.578.043z" style="line-height:.85;text-align:center" id="path1012"/><path d="M169.968 316.438q.41-3.858.625-8.665l.496-10.563q.259-5.734.259-10.196 2.5.043 4.246.043 1.294 0 3.773-.043 2.435 4.246 6.725 11.08 4.29 6.833 6.92 11.317l.797-20.004q.022-.712.022-2.393 2.026.043 3.06.043.41 0 3.019-.043l-.54 7.911-.667 13.537-.26 7.976q-2.241-.043-3.815-.043-1.25 0-4.052.043-1.078-1.918-1.638-2.845-.884-1.423-3.773-5.864-1.897-2.931-4.742-7.501-2.091-3.363-3.578-5.863-.173 3.492-.54 12.955-.15 3.858-.236 9.118-2.027-.043-2.932-.043-.711 0-3.169.043z" style="line-height:.85;text-align:center" id="path1014"/><path d="M207.55 316.438q.193-2.932.215-4.872l1.013-1.12q.065-.065 1.832-2.2l10.563-12.653 3.341-4.139-1.423-.021h-.538l-1.876-.022h-3.276q-4.053 0-7.912.237.13-1.68.13-3.621 0-.366-.022-1.013 5.626.043 11.942.043l7.2-.022 3.923-.021q-.172 2.35-.215 4.807l-1.466 1.617q-.431.474-.84.991l-7.696 9.42-6.747 8.062 1.724.022q7.286 0 9.377-.043 2.091-.043 4.57-.194-.173 3.018-.216 4.742-6.186-.043-11.338-.043l-7.954.022z" style="line-height:.85;text-align:center" id="path1016"/></g></svg>