<svg xmlns="http://www.w3.org/2000/svg" fill="none" stroke-linecap="square" stroke-miterlimit="10" viewBox="0 0 348 348"><clipPath id="a"><path d="M0 0h348v348H0V0z"/></clipPath><g clip-path="url(#a)"><path d="M0 0h348v348H0z"/><path d="M5 5.8h337v337.6H5z"/><path stroke="#000" stroke-linecap="butt" stroke-linejoin="round" stroke-width="2" d="M5 5.8h337v337.6H5z"/><path fill="#000" d="M133.8 15.7h74.4v56.8h-74.4z"/><path fill="#fff" d="M154.5 44q0-4 .9-6.4.8-2.5 2.5-3.9 1.6-1.3 4.1-1.3 1.9 0 3.2.7 1.4.8 2.3 2.2 1 1.4 1.5 3.4t.5 5.4q0 4-.9 6.5-.8 2.5-2.4 3.8-1.7 1.4-4.2 1.4-3.3 0-5.2-2.4-2.3-2.9-2.3-9.3zm3 0q0 5.7 1.2 7.6 1.4 1.9 3.3 1.9 2 0 3.3-2 1.3-1.8 1.3-7.4 0-5.7-1.3-7.5-1.4-1.9-3.3-1.9-2 0-3.1 1.7-1.5 2-1.5 7.7zm14.8 0q0-4 .9-6.4.8-2.5 2.4-3.9 1.7-1.3 4.2-1.3 1.8 0 3.2.7 1.4.8 2.3 2.2 1 1.4 1.5 3.4t.5 5.4q0 4-.9 6.5-.8 2.5-2.4 3.8-1.7 1.4-4.2 1.4-3.3 0-5.2-2.4-2.3-2.9-2.3-9.3zm3 0q0 5.7 1.2 7.6 1.4 1.9 3.3 1.9 2 0 3.3-2 1.3-1.8 1.3-7.4 0-5.7-1.3-7.5-1.4-1.9-3.3-1.9-2 0-3.1 1.7-1.5 2-1.5 7.7zm-160-26.3h109.9v54.8h-110z"/><path stroke="#000" stroke-linecap="butt" stroke-linejoin="round" stroke-width="2" d="M15.3 17.7h109.9v54.8h-110z"/><path d="m15.3 72.7 39.6-54.1"/><path stroke="#000" stroke-linecap="butt" stroke-linejoin="round" stroke-width="2" d="m15.3 72.7 39.6-54.1"/><path d="m37.6 72.7 39.7-54.1"/><path stroke="#000" stroke-linecap="butt" stroke-linejoin="round" stroke-width="2" d="m37.6 72.7 39.7-54.1"/><path d="m59.9 72.7 39.7-54.1"/><path stroke="#000" stroke-linecap="butt" stroke-linejoin="round" stroke-width="2" d="m59.9 72.7 39.7-54.1"/><path d="m82.2 72.7 39.7-54.1"/><path stroke="#000" stroke-linecap="butt" stroke-linejoin="round" stroke-width="2" d="m82.2 72.7 39.7-54.1"/><path fill="#fff" d="M216.9 16.6h109.9v54.9h-110z"/><path stroke="#000" stroke-linecap="butt" stroke-linejoin="round" stroke-width="2" d="M216.9 16.6h109.9v54.9h-110z"/><path d="m216.9 71.6 39.6-54.1"/><path stroke="#000" stroke-linecap="butt" stroke-linejoin="round" stroke-width="2" d="m216.9 71.6 39.6-54.1"/><path d="m239.2 71.6 39.7-54.1"/><path stroke="#000" stroke-linecap="butt" stroke-linejoin="round" stroke-width="2" d="m239.2 71.6 39.7-54.1"/><path d="m261.5 71.6 39.7-54.1"/><path stroke="#000" stroke-linecap="butt" stroke-linejoin="round" stroke-width="2" d="m261.5 71.6 39.7-54.1"/><path d="m283.8 71.6 39.7-54.1"/><path stroke="#000" stroke-linecap="butt" stroke-linejoin="round" stroke-width="2" d="m283.8 71.6 39.7-54.1"/><path d="M182.8 267.5H232V313h-49.3z"/></g><path stroke="#000" stroke-dashoffset="1" stroke-linecap="round" stroke-linejoin="round" stroke-miterlimit="100" stroke-width="10" d="M49.7 101.3h248.6v81H49.7zm3.2 164.2h49.5V315H53zm196 0h49.4V315h-49.5z"/></svg>