<svg xmlns="http://www.w3.org/2000/svg" height="348" width="348" stroke-miterlimit="10" stroke-linecap="square" fill="none"><clipPath id="a"><path d="M0 0h348v456H0z"/></clipPath><g transform="translate(0 .66)" clip-path="url(#a)"><path d="M2.66-109.942h348v456h-348z" fill="none"/><path d="M-3.34-1.926h348v347.969h-348z" fill="#fff"/><path d="M7.737 3.864h336.914v337.67H7.737z" fill="none"/><path d="M7.737 3.864h336.914v337.67H7.737z" stroke-linecap="butt" stroke-linejoin="round" stroke-width="2" stroke="#000"/><path d="M24.1 96.65h304.19v208.03H24.1z" fill="#fff"/><path d="M24.1 96.65h304.19v208.03H24.1z" stroke-linecap="butt" stroke-linejoin="round" stroke-width="2" stroke="#000"/><path d="M31.862 108.006h288.787v181.638H31.862z" fill="none"/><path d="M57.006 220.705l11.812-1q1.313 8.625 6.094 12.969 4.781 4.344 11.531 4.344 8.125 0 13.75-6.125t5.625-16.25q0-9.625-5.406-15.188-5.406-5.562-14.156-5.562-5.438 0-9.813 2.468-4.375 2.47-6.875 6.407l-10.562-1.375 8.875-47.063h45.562v10.75H76.881l-4.938 24.625q8.25-5.75 17.313-5.75 12 0 20.25 8.313 8.25 8.312 8.25 21.375 0 12.437-7.25 21.5-8.813 11.125-24.063 11.125-12.5 0-20.406-7-7.906-7-9.031-18.563zm77.437-29.562V178.33h12.813v12.813zm0 53.562v-12.812h12.813v12.812zm29.313-45.187q0-16.25 3.343-26.157 3.344-9.906 9.938-15.28 6.594-5.376 16.594-5.376 7.375 0 12.937 2.969 5.563 2.969 9.188 8.562 3.625 5.594 5.687 13.625 2.063 8.032 2.063 21.657 0 16.125-3.313 26.03-3.312 9.907-9.906 15.313-6.594 5.407-16.656 5.407-13.25 0-20.813-9.5-9.062-11.438-9.062-37.25zm11.562 0q0 22.562 5.281 30.03 5.282 7.47 13.032 7.47t13.03-7.5q5.282-7.5 5.282-30 0-22.625-5.281-30.063-5.281-7.437-13.156-7.437-7.75 0-12.375 6.562-5.813 8.375-5.813 30.938zm59.625 0q0-16.25 3.344-26.157 3.344-9.906 9.937-15.28 6.594-5.376 16.594-5.376 7.375 0 12.938 2.969 5.562 2.969 9.187 8.562 3.625 5.594 5.688 13.625 2.062 8.032 2.062 21.657 0 16.125-3.312 26.03-3.313 9.907-9.907 15.313-6.593 5.407-16.656 5.407-13.25 0-20.812-9.5-9.063-11.438-9.063-37.25zm11.563 0q0 22.562 5.28 30.03 5.282 7.47 13.032 7.47t13.031-7.5q5.282-7.5 5.282-30 0-22.625-5.282-30.063-5.28-7.437-13.156-7.437-7.75 0-12.375 6.562-5.812 8.375-5.812 30.938z" fill="#000"/><path d="M126.342 23.439h106.646V86.84H126.342z" fill="none"/><path d="M126.342 23.439h106.646V86.84H126.342z" stroke-linecap="butt" stroke-linejoin="round" stroke-width="2" stroke="#000"/><path d="M250.602 55.14c0-17.508 15.067-31.701 33.654-31.701 8.925 0 17.485 3.34 23.796 9.285 6.312 5.945 9.857 14.008 9.857 22.416 0 17.508-15.067 31.7-33.653 31.7-18.587 0-33.654-14.192-33.654-31.7z" fill="none"/><path d="M30.719 53.14v0c0-17.508 15.067-31.701 33.653-31.701v0c8.926 0 17.486 3.34 23.797 9.285s9.857 14.008 9.857 22.416v0c0 17.508-15.067 31.7-33.654 31.7v0c-18.586 0-33.653-14.192-33.653-31.7z" stroke-linecap="butt" stroke-linejoin="round" stroke-width="2" stroke="#000"/><path d="M134.463 1.809h56.347v98.33h-56.347z" fill="none"/></g></svg>