<svg xmlns="http://www.w3.org/2000/svg" viewBox="0 0 348 348" fill="none"><path d="M5.08 5.776h336.91v337.67H5.08z" stroke-width="2" stroke="#000"/><path d="M282.734 40.554c0-8.376 6.966-15.165 15.56-15.165 4.126 0 8.084 1.594 11 4.44 2.92 2.842 4.56 6.7 4.56 10.722 0 8.376-6.967 15.165-15.56 15.165-8.594 0-15.56-6.79-15.56-15.166z" stroke-width="2" stroke="#000"/><path style="marker:none" d="M119.87 138.522a9.484 7.221 0 1 1-18.968 0 9.484 7.221 0 1 1 18.968 0zm-31.36 66.653a9.484 7.221 0 1 1-18.97 0 9.484 7.221 0 1 1 18.97 0zm75.762-10.513a9.484 7.221 0 1 1-18.969 0 9.484 7.221 0 1 1 18.969 0zm46.762-52.562a9.484 7.221 0 1 1-18.968 0 9.484 7.221 0 1 1 18.968 0zm51.838 51.112a9.484 7.221 0 1 1-18.969 0 9.484 7.221 0 1 1 18.969 0zm43.862-42.412a9.484 7.221 0 1 1-18.968 0 9.484 7.221 0 1 1 18.968 0zM117.51 264.625a9.484 7.221 0 1 1-18.97 0 9.484 7.221 0 1 1 18.97 0zM83.797 290a9.484 7.221 0 1 1-18.969 0 9.484 7.221 0 1 1 18.969 0zm117.45-27.913a9.484 7.221 0 1 1-18.969 0 9.484 7.221 0 1 1 18.969 0zm-22.113 31.9a9.484 7.221 0 1 1-18.968 0 9.484 7.221 0 1 1 18.968 0zM287.522 252.3a9.484 7.221 0 1 1-18.969 0 9.484 7.221 0 1 1 18.969 0zm-25.738 35.162a9.484 7.221 0 1 1-18.968 0 9.484 7.221 0 1 1 18.968 0z" color="#000" stroke="#000" stroke-width="1.5" overflow="visible"/><path d="M111.287 138.475c-36.975-32.987-61.625 34.8-30.45 65.613" stroke="#000" stroke-width="7.5" stroke-linecap="round" stroke-linejoin="round"/><path d="M201.912 141.375c-35.645-39.392-66.579 24.892-46.037 52.563m141.947-43.986c1.33-53.891-112.617 15.83-44.225 42.775m-145.153 70.247c-20.058-47.367-58.242 8.58-34.075 26.825m117.088-27.187c-27.309-69.48-67.305 22.354-21.75 31.537M276.644 252.1c-9.183-31.78-72.017-6.647-24.65 34.8" stroke="#000" stroke-width="7.5" stroke-linecap="round"/><path d="m248.76 126.08 47.125 78.3m-5.8-23.561-11.962 7.25m-105.072 85.538-60.9-86.275m8.7 26.462 12.325-8.337" stroke="#000" stroke-width="4.5" stroke-linecap="round"/><path style="marker:none" d="M82.197 39.445a2.832 2.016 0 1 1-5.664 0 2.832 2.016 0 1 1 5.664 0zm192.341 1.989a2.832 2.016 0 1 1-5.664 0 2.832 2.016 0 1 1 5.664 0z" color="#000" stroke="#000" stroke-linecap="round" stroke-linejoin="round" overflow="visible"/><path style="marker:none" color="#000" stroke="#000" stroke-width="1.5" stroke-linecap="round" stroke-linejoin="round" overflow="visible" d="M89.714 22.978h173.789v46.139H89.714z"/><g aria-label="Banana" style="line-height:1.25;-inkscape-font-specification:'Ostrich Sans'" font-weight="400" font-size="53.333" font-family="Ostrich Sans" letter-spacing="0" word-spacing="0" fill="#000"><path d="M120.405 64.02c6.24 0 9.013-3.412 9.013-10.292 0-3.254-.906-5.974-2.293-7.68 0 0 2.293-2.72 2.293-7.68 0-6.88-2.773-10.294-9.013-10.294h-5.28c-1.067 0-1.92.854-1.92 1.92v32.107c0 1.067.853 1.92 1.92 1.92zm0-30.666c2.613 0 3.68 1.44 3.68 5.014 0 3.573-1.067 5.013-3.68 5.013h-1.867V33.354Zm0 15.307c2.613 0 3.68 1.44 3.68 5.067 0 3.573-1.067 5.013-3.68 5.013h-1.867V48.66zM148.017 62.528c.213.8 1.066 1.493 1.866 1.493h1.547c1.28 0 2.133-1.12 1.867-2.347l-7.36-32.106c-.16-.8-1.067-1.494-1.867-1.494h-1.173c-.8 0-1.654.694-1.867 1.494l-4.853 20.853-2.56 11.307c-.267 1.226.586 2.293 1.866 2.293h1.547c.8 0 1.653-.693 1.867-1.493l1.866-8.32h5.44zm-4.534-22.134c1.014 4.534.907 5.974 1.494 8.534h-2.987zM170.702 64.02c1.066 0 1.92-.852 1.92-1.92V29.995c0-1.066-.854-1.92-1.92-1.92h-1.494c-1.066 0-1.92.854-1.92 1.92v17.6l-7.413-18.346c-.213-.587-1.067-1.174-1.76-1.174h-1.28c-1.013 0-1.92.854-1.92 1.92v32.107c0 1.067.907 1.92 1.92 1.92h1.547c1.013 0 1.92-.853 1.92-1.92V44.5l7.413 18.347c.213.586 1.12 1.173 1.76 1.173zM191.35 62.528c.213.8 1.067 1.493 1.867 1.493h1.546c1.28 0 2.134-1.12 1.867-2.347l-7.36-32.106c-.16-.8-1.067-1.494-1.867-1.494h-1.173c-.8 0-1.653.694-1.867 1.494L179.51 50.42l-2.56 11.307c-.267 1.226.587 2.293 1.867 2.293h1.546c.8 0 1.654-.693 1.867-1.493l1.867-8.32h5.44zm-4.533-22.134c1.013 4.534.906 5.974 1.493 8.534h-2.987zM214.035 64.02c1.067 0 1.92-.852 1.92-1.92V29.995c0-1.066-.853-1.92-1.92-1.92h-1.493c-1.067 0-1.92.854-1.92 1.92v17.6l-7.414-18.346c-.213-.587-1.066-1.174-1.76-1.174h-1.28c-1.013 0-1.92.854-1.92 1.92v32.107c0 1.067.907 1.92 1.92 1.92h1.547c1.013 0 1.92-.853 1.92-1.92V44.5l7.413 18.347c.214.586 1.12 1.173 1.76 1.173zM234.683 62.528c.214.8 1.067 1.493 1.867 1.493h1.547c1.28 0 2.133-1.12 1.866-2.347l-7.36-32.106c-.16-.8-1.066-1.494-1.866-1.494h-1.174c-.8 0-1.653.694-1.866 1.494l-4.854 20.853-2.56 11.307c-.266 1.226.587 2.293 1.867 2.293h1.547c.8 0 1.653-.693 1.866-1.493l1.867-8.32h5.44zm-4.533-22.134c1.013 4.534.907 5.974 1.493 8.534h-2.986z"/></g><path d="M82.197 39.445c-6.71 2.105-19.884-2.137-24.94 2.92-1.558 1.557-5.43 3.816-7.259 5.645-11.86 11.86-13.768 49.88-6.451 64.514 1.951 3.902 7.2 5.53 8.87 8.87 1.669 3.336 2.162 9.42 4.84 12.097 3.825 3.826 14.6 9.04 17.74 15.322 8.074 16.146 9.953 31.992 26.613 40.321 2.556 1.278 9.524-1.724 10.541-1.802M274.538 41.434c-3.15 3.555-4.756 6.64-2.773 10.608 4.758 9.515 19.337 4.75 21.774 16.935.908 4.54-1.73 17.506-.807 19.354 3.312 6.623 11.412 11.533 14.516 17.741.745 1.49-.53 4.054 0 5.645 1.118 3.355 3.896 6.043 4.839 8.871 1.35 4.048 1.48 11.158 4.032 13.71 1.212 1.211.806 15.224.806 16.934 0 .632.403 3.63 0 4.032-1.613 1.613.49 5.159-1.123 6.772-3.584 3.583-6.29.824-5.328 3.712 3.014 9.041-6.427 36.264-12.097 41.934-2.625 2.626-4.194-.544-2.492-3.301" stroke="#000"/></svg>