<svg xmlns="http://www.w3.org/2000/svg" fill="none" viewBox="0 0 348 348"><path fill="#ffb3b3" d="M0 0h347v348H0z" color="#000" overflow="visible" style="marker:none"/><rect width="60.34" height="62.04" x="114.33" y="64" fill="#6464ff" stroke="#000" stroke-linecap="round" stroke-width="2" color="#000" overflow="visible" ry="0" style="marker:none"/><rect width="60.34" height="62.04" x="178.66" y="64" fill="#ff6464" stroke="#000" stroke-linecap="round" stroke-width="2" color="#000" overflow="visible" ry="0" style="marker:none"/><rect width="60.34" height="62.04" x="178.66" y="130.15" fill="#ffff64" stroke="#000" stroke-linecap="round" stroke-width="2" color="#000" overflow="visible" ry="0" style="marker:none"/><rect width="60.34" height="62.04" x="114.33" y="130.15" fill="#ff6464" stroke="#000" stroke-linecap="round" stroke-width="2" color="#000" overflow="visible" ry="0" style="marker:none"/><rect width="60.34" height="62.04" x="50" y="130.15" fill="#6464ff" stroke="#000" stroke-linecap="round" stroke-width="2" color="#000" overflow="visible" ry="0" style="marker:none"/><rect width="60.34" height="62.04" x="50" y="196.3" fill="#64ff64" stroke="#000" stroke-linecap="round" stroke-width="2" color="#000" overflow="visible" ry="0" style="marker:none"/><rect width="60.34" height="62.04" x="114.33" y="196.3" fill="#64ff64" stroke="#000" stroke-linecap="round" stroke-width="2" color="#000" overflow="visible" ry="0" style="marker:none"/><rect width="60.34" height="62.04" x="178.66" y="196.3" fill="#ff6464" stroke="#000" stroke-linecap="round" stroke-width="2" color="#000" overflow="visible" ry="0" style="marker:none"/><rect width="60.34" height="62.04" x="114.33" y="262.46" fill="#ffff64" stroke="#000" stroke-linecap="round" stroke-width="2" color="#000" overflow="visible" ry="0" style="marker:none"/><path fill="#000" d="M50 13h189v48H50z" color="#000" overflow="visible" style="marker:none"/><path stroke="#000" stroke-width="2" d="M5.08 5.78h336.91v337.67H5.08z"/><path fill="#fff" stroke="#000" stroke-width="2" d="M282.73 40.55c0-8.37 6.97-15.16 15.56-15.16 4.13 0 8.09 1.6 11 4.44a14.96 14.96 0 0 1 4.56 10.72c0 8.38-6.96 15.17-15.56 15.17-8.59 0-15.56-6.8-15.56-15.17z"/><rect width="60.34" height="62.04" x="50" y="64" fill="#ffff64" stroke="#000" stroke-linecap="round" stroke-width="2" color="#000" overflow="visible" ry="0" style="marker:none"/><path fill="#6464ff" stroke="#000" stroke-linecap="round" stroke-width="2" d="M178.66 262.46H239v62.04h-60.34zm-64.33 0h60.34v62.04h-60.34z" color="#000" overflow="visible" style="marker:none"/><path fill="#ffff64" stroke="#000" stroke-linecap="round" stroke-width="2" d="M50 262.46h60.34v62.04H50z" color="#000" overflow="visible" style="marker:none"/><path fill="#fff" d="M60.12 54.85V24.67h6.4v2.4h-3.5v25.38h3.5v2.4zm18.61-6.55V24.68h8.14q2.76 0 4.2.33 2.04.47 3.47 1.7 1.87 1.58 2.79 4.04.93 2.45.93 5.6 0 2.7-.63 4.78-.62 2.07-1.6 3.44-.99 1.36-2.17 2.15-1.16.77-2.82 1.17-1.64.4-3.78.4zm3.13-2.8h5.04q2.34 0 3.66-.43 1.34-.43 2.13-1.22 1.11-1.11 1.72-2.98.63-1.89.63-4.56 0-3.7-1.22-5.69-1.21-2-2.95-2.67-1.26-.49-4.05-.49h-4.96zm21.25 2.8V24.68h3.13V48.3zm7.56-7.6 2.95-.25q.2 1.77.97 2.92.77 1.12 2.38 1.83 1.61.7 3.63.7 1.79 0 3.16-.54 1.37-.53 2.03-1.45.67-.93.67-2.03 0-1.1-.64-1.93-.65-.84-2.13-1.4-.95-.37-4.2-1.15-3.26-.79-4.56-1.48-1.7-.88-2.53-2.19-.83-1.32-.83-2.95 0-1.79 1.02-3.33 1.01-1.57 2.96-2.37t4.34-.8q2.62 0 4.62.85 2.02.83 3.1 2.48 1.08 1.64 1.16 3.72l-3 .22q-.24-2.24-1.64-3.38-1.4-1.14-4.11-1.14-2.84 0-4.14 1.04-1.3 1.04-1.3 2.5 0 1.27.93 2.1.9.82 4.7 1.69 3.82.85 5.24 1.5 2.06.95 3.04 2.41.99 1.45.99 3.36 0 1.88-1.08 3.56-1.08 1.66-3.11 2.6-2.02.91-4.55.91-3.2 0-5.38-.94-2.16-.93-3.4-2.8-1.22-1.88-1.29-4.25zm23.1 7.6V24.68h8.92q2.35 0 3.6.22 1.73.3 2.9 1.11 1.18.8 1.9 2.27t.72 3.23q0 3.01-1.92 5.1-1.92 2.08-6.93 2.08h-6.06v9.6zm3.13-12.4h6.11q3.03 0 4.3-1.12 1.27-1.13 1.27-3.18 0-1.48-.75-2.53-.74-1.06-1.97-1.4-.79-.2-2.92-.2h-6.04zm18.8 12.4V24.68h3.12V45.5h11.63v2.79zm15.9 0 9.07-23.63h3.36l9.67 23.63h-3.56l-2.75-7.16h-9.88l-2.6 7.16zm6.81-9.7h8l-2.46-6.55q-1.12-2.98-1.67-4.9-.45 2.28-1.27 4.52zm22.03 9.7v-10l-9.1-13.63h3.8l4.65 7.13q1.3 2 2.4 4 1.07-1.86 2.58-4.18l4.58-6.95h3.64l-9.43 13.62v10zm28.44 6.55h-6.4v-2.4h3.5V27.07h-3.5v-2.4h6.4z" aria-label="[ DISPLAY ]"/><path fill="#000" d="M72.52 86.15v-2.79h15.3v2.26q-2.26 2.4-4.48 6.38-2.21 3.98-3.42 8.18-.87 2.97-1.11 6.5h-2.98q.04-2.79 1.1-6.74 1.04-3.94 2.99-7.6 1.96-3.68 4.17-6.19z" aria-label="7"/><path fill="#000" d="M141.21 93.87q-1.8-.66-2.67-1.89-.87-1.22-.87-2.93 0-2.58 1.85-4.33 1.85-1.76 4.93-1.76 3.1 0 4.98 1.8 1.89 1.8 1.89 4.37 0 1.64-.87 2.87-.86 1.2-2.61 1.87 2.17.7 3.3 2.29 1.14 1.58 1.14 3.77 0 3.03-2.14 5.09t-5.64 2.06q-3.5 0-5.64-2.06-2.14-2.08-2.14-5.17 0-2.3 1.16-3.85 1.17-1.57 3.33-2.13zm-.58-4.92q0 1.68 1.08 2.74 1.08 1.07 2.8 1.07 1.68 0 2.75-1.05 1.08-1.06 1.08-2.6 0-1.59-1.12-2.67-1.1-1.1-2.74-1.1-1.66 0-2.75 1.07-1.1 1.06-1.1 2.54zm-.93 10.91q0 1.24.58 2.4.6 1.16 1.75 1.8 1.16.64 2.5.64 2.08 0 3.43-1.34 1.36-1.34 1.36-3.4 0-2.1-1.4-3.46-1.39-1.38-3.48-1.38-2.05 0-3.4 1.36-1.34 1.35-1.34 3.38z" aria-label="8"/><path fill="#000" d="m201.5 101.22 2.79-.26q.35 1.97 1.35 2.85 1 .89 2.56.89 1.34 0 2.34-.62 1.02-.6 1.66-1.62.65-1.03 1.08-2.77.44-1.74.44-3.55l-.02-.58q-.87 1.39-2.39 2.26-1.5.85-3.25.85-2.93 0-4.96-2.13-2.03-2.12-2.03-5.6 0-3.6 2.1-5.79 2.13-2.19 5.32-2.19 2.3 0 4.21 1.24 1.92 1.24 2.9 3.55 1 2.28 1 6.64 0 4.52-.98 7.21-.99 2.68-2.94 4.08-1.93 1.4-4.54 1.4-2.77 0-4.53-1.53-1.75-1.55-2.1-4.33zm11.88-10.43q0-2.5-1.34-3.96-1.32-1.47-3.2-1.47-1.92 0-3.36 1.58-1.43 1.58-1.43 4.1 0 2.25 1.35 3.67 1.37 1.4 3.37 1.4 2.01 0 3.3-1.4 1.3-1.42 1.3-3.92z" aria-label="9"/><path fill="#000" d="M82.25 172.99v-5.66H72v-2.66l10.78-15.3h2.37v15.3h3.19v2.66h-3.2v5.65zm0-8.32v-10.65l-7.4 10.65z" aria-label="4"/><path fill="#000" d="m136.67 166.43 3.04-.25q.34 2.22 1.57 3.35 1.24 1.11 2.98 1.11 2.1 0 3.54-1.58 1.45-1.58 1.45-4.19 0-2.48-1.4-3.91-1.38-1.44-3.64-1.44-1.4 0-2.53.65-1.13.63-1.77 1.64l-2.73-.35 2.3-12.14h11.74v2.77h-9.43l-1.27 6.35q2.13-1.48 4.46-1.48 3.1 0 5.22 2.14t2.13 5.51q0 3.21-1.87 5.55-2.27 2.87-6.2 2.87-3.22 0-5.27-1.81-2.03-1.8-2.32-4.79z" aria-label="5"/><path fill="#000" d="m216.21 155-2.88.22q-.39-1.7-1.1-2.48-1.17-1.24-2.9-1.24-1.38 0-2.43.77-1.37 1-2.16 2.92-.8 1.91-.82 5.46 1.05-1.6 2.56-2.37t3.17-.77q2.9 0 4.93 2.14 2.05 2.13 2.05 5.51 0 2.22-.97 4.14-.95 1.9-2.62 2.92t-3.8 1.01q-3.63 0-5.92-2.66-2.29-2.67-2.29-8.8 0-6.84 2.53-9.95 2.21-2.7 5.95-2.7 2.79 0 4.56 1.55 1.79 1.57 2.14 4.32zm-11.84 10.18q0 1.5.63 2.86.64 1.37 1.79 2.1 1.14.71 2.4.71 1.83 0 3.15-1.48 1.33-1.49 1.33-4.03 0-2.45-1.3-3.85-1.31-1.42-3.3-1.42-1.96 0-3.33 1.42-1.37 1.4-1.37 3.69z" aria-label="6"/><path fill="#000" d="M84.52 239.19h-2.9V220.7q-1.05 1-2.76 2-1.69 1-3.04 1.5v-2.8q2.43-1.15 4.25-2.78 1.82-1.62 2.58-3.15h1.87z" aria-label="1"/><path fill="#000" d="M152.32 236.4v2.78h-15.61q-.03-1.04.34-2 .6-1.6 1.9-3.15 1.32-1.55 3.8-3.58 3.85-3.16 5.2-5 1.36-1.85 1.36-3.49 0-1.72-1.24-2.9-1.22-1.2-3.2-1.2-2.1 0-3.36 1.26-1.25 1.26-1.27 3.48l-2.98-.3q.3-3.34 2.3-5.08 2-1.75 5.37-1.75 3.4 0 5.38 1.88 1.98 1.89 1.98 4.67 0 1.42-.58 2.8-.58 1.36-1.93 2.88-1.34 1.51-4.46 4.15-2.61 2.2-3.36 2.98-.74.78-1.22 1.57z" aria-label="2"/><path fill="#000" d="m201.1 232.74 2.9-.39q.5 2.47 1.69 3.56 1.2 1.08 2.93 1.08 2.05 0 3.45-1.41 1.42-1.42 1.42-3.52 0-2-1.3-3.28-1.31-1.31-3.33-1.31-.82 0-2.04.32l.32-2.54q.3.03.47.03 1.85 0 3.33-.97 1.49-.97 1.49-2.98 0-1.6-1.08-2.64-1.08-1.05-2.8-1.05-1.68 0-2.81 1.06-1.13 1.07-1.45 3.2l-2.9-.52q.53-2.92 2.42-4.51 1.88-1.61 4.69-1.61 1.93 0 3.56.83 1.62.83 2.48 2.26.87 1.43.87 3.04 0 1.54-.82 2.8t-2.44 2q2.1.47 3.26 2 1.16 1.52 1.16 3.8 0 3.1-2.26 5.26-2.25 2.14-5.7 2.14-3.11 0-5.17-1.85-2.05-1.85-2.34-4.8z" aria-label="3"/><path fill="#000" d="m69.38 296.15 2.37.6q-.74 2.92-2.68 4.45-1.93 1.53-4.73 1.53-2.9 0-4.71-1.17-1.8-1.19-2.76-3.42-.94-2.23-.94-4.8 0-2.8 1.06-4.87 1.08-2.09 3.04-3.16 1.98-1.09 4.35-1.09 2.68 0 4.52 1.37 1.83 1.37 2.55 3.85l-2.33.55q-.63-1.96-1.81-2.85-1.19-.89-2.98-.89-2.06 0-3.45.99-1.38.99-1.95 2.66-.56 1.66-.56 3.43 0 2.28.66 4 .67 1.69 2.08 2.53 1.4.84 3.04.84 1.99 0 3.37-1.14 1.38-1.15 1.86-3.4zm5.2 6.28v-17.9h2.37v15.78h8.82v2.11zm14.05 0v-17.9h7.94q2.4 0 3.64.49 1.24.47 1.99 1.7.74 1.21.74 2.7 0 1.9-1.23 3.2-1.23 1.3-3.81 1.66.94.45 1.43.9 1.04.95 1.96 2.37l3.12 4.87h-2.98l-2.37-3.72q-1.04-1.6-1.71-2.46-.67-.86-1.2-1.2-.53-.34-1.08-.48-.4-.08-1.32-.08H91v7.94zm2.37-10h5.1q1.62 0 2.53-.33.92-.34 1.4-1.08.47-.74.47-1.6 0-1.28-.93-2.1-.91-.81-2.9-.81H91z" aria-label="CLR"/><path fill="#000" d="M136.8 293.49q0-4.2.85-6.74.87-2.56 2.56-3.95 1.71-1.38 4.29-1.38 1.9 0 3.34.77 1.43.76 2.36 2.2.94 1.44 1.47 3.52.53 2.06.53 5.58 0 4.15-.85 6.72-.86 2.54-2.56 3.94-1.7 1.39-4.29 1.39-3.42 0-5.37-2.45-2.33-2.95-2.33-9.6zm2.98 0q0 5.81 1.35 7.75 1.37 1.91 3.37 1.91t3.35-1.93q1.37-1.93 1.37-7.73 0-5.84-1.37-7.75-1.35-1.92-3.38-1.92-2 0-3.2 1.69-1.5 2.16-1.5 7.98z" aria-label="0"/><path fill="#000" d="M185.05 302.43v-17.9H198v2.11h-10.57v5.48h9.9v2.1h-9.9v6.1h10.99v2.1zm16.63 0v-17.9h2.43l9.4 14.05v-14.05h2.27v17.9h-2.43l-9.4-14.07v14.07zm22.64 0v-15.79h-5.9v-2.11h14.2v2.11h-5.93v15.79z" aria-label="ENT"/></svg>