<svg xmlns="http://www.w3.org/2000/svg" viewBox="0 0 348 348" stroke="#000" stroke-width="2" stroke-linejoin="round" fill="none" version="1.1" id="svg14275"><style id="style14243"></style><path fill="#fff" d="M5 5h336v336H5z" id="path14245"/><circle cx="298" cy="41" r="15" id="circle14247"/><path fill="#000" d="M29 72h225v135H29z" id="path14249"/><g aria-label="1" transform="rotate(180 -282.331 -191.454) scale(4.44602)" style="line-height:normal" id="text14251" font-style="normal" font-variant="normal" font-weight="400" font-stretch="normal" font-size="32" font-family="Arial,Helvetica,sans-serif" text-anchor="middle" fill="#fff" stroke="none" stroke-width="27.906"><path d="M-154.611-106h-2.813v-17.922q-1.016.969-2.672 1.938-1.64.968-2.953 1.453v-2.719q2.36-1.11 4.125-2.688 1.766-1.578 2.5-3.062h1.813z" style="line-height:normal" id="path14826" font-style="normal" font-variant="normal" font-weight="400" font-stretch="normal" font-size="32" font-family="Arial,Helvetica,sans-serif" text-anchor="middle" fill="#fff" stroke="none" stroke-width="27.906"/></g><path d="M29 212h49v70H29z" id="path14253"/><g aria-label="1" style="line-height:normal" id="text14255" font-style="normal" font-variant="normal" font-weight="400" font-stretch="normal" font-size="32" font-family="Arial,Helvetica,sans-serif" text-anchor="middle" fill="#000"><path d="M57.016 252h-2.813v-17.922q-1.016.969-2.672 1.938-1.64.968-2.953 1.453v-2.719q2.36-1.11 4.125-2.688 1.766-1.578 2.5-3.062h1.813z" style="line-height:normal" id="path14829" font-style="normal" font-variant="normal" font-weight="400" font-stretch="normal" font-size="32" font-family="Arial,Helvetica,sans-serif" text-anchor="middle" fill="#000"/></g><path d="M88 212h49v70H88z" id="path14257"/><g aria-label="3" style="line-height:normal" id="text14259" font-style="normal" font-variant="normal" font-weight="400" font-stretch="normal" font-size="32" font-family="Arial,Helvetica,sans-serif" text-anchor="middle" fill="#000"><path d="M105.438 245.953l2.812-.375q.484 2.39 1.64 3.453 1.173 1.047 2.844 1.047 1.985 0 3.344-1.375 1.375-1.375 1.375-3.406 0-1.938-1.266-3.188-1.265-1.265-3.218-1.265-.797 0-1.985.312l.313-2.469q.281.032.453.032 1.797 0 3.234-.938 1.438-.937 1.438-2.89 0-1.547-1.047-2.563-1.047-1.016-2.703-1.016-1.64 0-2.734 1.032-1.094 1.031-1.407 3.093l-2.812-.5q.515-2.828 2.344-4.375Q109.89 229 112.609 229q1.875 0 3.454.812 1.578.797 2.406 2.188.844 1.39.844 2.953 0 1.484-.797 2.703-.797 1.219-2.36 1.938 2.031.468 3.156 1.953 1.126 1.469 1.126 3.687 0 3-2.188 5.094-2.188 2.078-5.531 2.078-3.016 0-5.016-1.797-1.984-1.797-2.266-4.656z" style="line-height:normal" id="path14832" font-style="normal" font-variant="normal" font-weight="400" font-stretch="normal" font-size="32" font-family="Arial,Helvetica,sans-serif" text-anchor="middle" fill="#000"/></g><path d="M147 212h49v70h-49z" id="path14261"/><g aria-label="4" style="line-height:normal" id="text14263" font-style="normal" font-variant="normal" font-weight="400" font-stretch="normal" font-size="32" font-family="Arial,Helvetica,sans-serif" text-anchor="middle" fill="#000"><path d="M173.438 252v-5.484H163.5v-2.578l10.453-14.844h2.297v14.844h3.094v2.578h-3.094V252zm0-8.063V233.61l-7.172 10.329z" style="line-height:normal" id="path14835" font-style="normal" font-variant="normal" font-weight="400" font-stretch="normal" font-size="32" font-family="Arial,Helvetica,sans-serif" text-anchor="middle" fill="#000"/></g><path d="M206 212h49v70h-49z" id="path14265"/><g aria-label="2" style="line-height:normal" id="text14267" font-style="normal" font-variant="normal" font-weight="400" font-stretch="normal" font-size="32" font-family="Arial,Helvetica,sans-serif" text-anchor="middle" fill="#000"><path d="M238.203 249.297V252h-15.14q-.032-1.016.328-1.953.578-1.547 1.843-3.047 1.282-1.5 3.688-3.469 3.734-3.062 5.047-4.844 1.312-1.796 1.312-3.39 0-1.672-1.203-2.813-1.187-1.156-3.11-1.156-2.03 0-3.25 1.219-1.218 1.219-1.234 3.375l-2.89-.297q.297-3.234 2.234-4.922 1.938-1.703 5.203-1.703 3.297 0 5.219 1.828 1.922 1.828 1.922 4.531 0 1.375-.563 2.704-.562 1.328-1.875 2.796-1.296 1.47-4.328 4.032-2.531 2.125-3.25 2.89-.719.75-1.187 1.516z" style="line-height:normal" id="path14838" font-style="normal" font-variant="normal" font-weight="400" font-stretch="normal" font-size="32" font-family="Arial,Helvetica,sans-serif" text-anchor="middle" fill="#000"/></g><path fill="#000" d="M276 72h54v210h-54z" id="path14269"/><g fill="#fff" id="g14273"><path d="M289 248h27v16h-27zm0-37h27v16h-27zm0-36h27v16h-27z" id="path14271"/></g></svg>