<svg xmlns="http://www.w3.org/2000/svg" fill="none" viewBox="0 0 348 348"><path d="M103.3 136.3v5.7m102.7-5.7v5.7m-51.3-5.7v5.7" stroke="#bfbfbf" stroke-width="2" stroke-linecap="round" stroke-linejoin="round"/><path stroke="#000" stroke-width="2" d="M5 5.8h337v337.6H5z"/><path stroke="#000" stroke-width="2" d="M282.7 40.6c0-8.4 7-15.2 15.6-15.2 4.1 0 8 1.6 11 4.4a15 15 0 0 1 4.6 10.8c0 8.3-7 15.1-15.6 15.1s-15.6-6.8-15.6-15.1z"/><path d="M78.9 198.4h227.4v50.8H78.9Z" fill="gray" fill-rule="evenodd" stroke="#000" stroke-width="2"/><path d="M83 202.5h219.4v42.9H83Z" fill="#000" fill-rule="evenodd"/><path d="M55.7 315.7a22.8 22.8 0 0 1-22.8 22.7A22.8 22.8 0 0 1 10 315.7a22.8 22.8 0 0 1 22.8-22.8 22.8 22.8 0 0 1 22.8 22.8m0-55a22.8 22.8 0 0 1-22.8 22.7A22.8 22.8 0 0 1 10 260.7a22.8 22.8 0 0 1 22.8-22.8 22.8 22.8 0 0 1 22.8 22.8m56.2 55a22.8 22.8 0 0 1-22.8 22.7 22.8 22.8 0 0 1-22.8-22.7 22.8 22.8 0 0 1 22.8-22.8 22.8 22.8 0 0 1 22.8 22.8m0-55a22.8 22.8 0 0 1-22.8 22.7 22.8 22.8 0 0 1-22.8-22.7 22.8 22.8 0 0 1 22.8-22.8 22.8 22.8 0 0 1 22.8 22.8m56.3 55a22.8 22.8 0 0 1-22.8 22.7 22.8 22.8 0 0 1-22.8-22.7 22.8 22.8 0 0 1 22.8-22.8 22.8 22.8 0 0 1 22.8 22.8m0-55a22.8 22.8 0 0 1-22.8 22.7 22.8 22.8 0 0 1-22.8-22.7 22.8 22.8 0 0 1 22.8-22.8 22.8 22.8 0 0 1 22.8 22.8m56.3 55a22.8 22.8 0 0 1-22.8 22.7 22.8 22.8 0 0 1-22.8-22.7 22.8 22.8 0 0 1 22.8-22.8 22.8 22.8 0 0 1 22.8 22.8m0-55a22.8 22.8 0 0 1-22.8 22.7 22.8 22.8 0 0 1-22.8-22.7 22.8 22.8 0 0 1 22.8-22.8 22.8 22.8 0 0 1 22.8 22.8m56.2 55a22.8 22.8 0 0 1-22.8 22.7 22.8 22.8 0 0 1-22.8-22.7 22.8 22.8 0 0 1 22.8-22.8 22.8 22.8 0 0 1 22.8 22.8m0-55a22.8 22.8 0 0 1-22.8 22.7 22.8 22.8 0 0 1-22.8-22.7 22.8 22.8 0 0 1 22.8-22.8 22.8 22.8 0 0 1 22.8 22.8" fill="#fff" fill-rule="evenodd" stroke="#000" stroke-width="2" paint-order="markers fill stroke"/><path d="M337 315.7a22.8 22.8 0 0 1-22.8 22.7 22.8 22.8 0 0 1-22.8-22.7 22.8 22.8 0 0 1 22.8-22.8 22.8 22.8 0 0 1 22.8 22.8m0-55a22.8 22.8 0 0 1-22.8 22.7 22.8 22.8 0 0 1-22.8-22.7 22.8 22.8 0 0 1 22.8-22.8 22.8 22.8 0 0 1 22.8 22.8" fill="#404040" fill-rule="evenodd" stroke="#000" stroke-width="2" paint-order="markers fill stroke"/><path d="M41 85.5h227.3v50.8H41Z" fill="gray" fill-rule="evenodd" stroke="#000" stroke-width="2"/><path d="M45.1 89.6h219.4v42.8H45Z" fill="#000" fill-rule="evenodd"/><path d="M41 142h227.3v50.8H41Z" fill="gray" fill-rule="evenodd" stroke="#000" stroke-width="2"/><path d="M45.1 146h219.4V189H45Z" fill="#000" fill-rule="evenodd"/><path d="M146.2 51.6a22.8 22.8 0 0 1-22.8 22.8 22.8 22.8 0 0 1-22.8-22.8 22.8 22.8 0 0 1 22.8-22.8 22.8 22.8 0 0 1 22.8 22.8" fill="#404040" fill-rule="evenodd" stroke="#000" stroke-width="2" paint-order="markers fill stroke"/><path d="M23.8 24.9H78V79H23.8Zm145 0h68V79h-68z" fill="#bfbfbf" fill-rule="evenodd" stroke="#000" stroke-width="2"/><path d="M334.8 136.5a27.7 27.7 0 0 1-27.7 27.7 27.7 27.7 0 0 1-27.7-27.7 27.7 27.7 0 0 1 27.7-27.7 27.7 27.7 0 0 1 27.7 27.7" fill="#404040" fill-rule="evenodd" stroke="#000" stroke-width="2" paint-order="markers fill stroke"/><path d="M332.4 136.5a25.2 25.2 0 0 1-25.3 25.2 25.2 25.2 0 0 1-25.2-25.2 25.2 25.2 0 0 1 25.2-25.2 25.2 25.2 0 0 1 25.3 25.2" fill="#ccc" fill-rule="evenodd" paint-order="markers fill stroke"/><path d="M330.3 136.5a23.2 23.2 0 0 1-23.2 23.2 23.2 23.2 0 0 1-23.1-23.2 23.2 23.2 0 0 1 23.1-23.2 23.2 23.2 0 0 1 23.2 23.2" fill="#595959" fill-rule="evenodd" paint-order="markers fill stroke"/><path d="M40.6 319.3q0 1.6-.6 3-.6 1.5-1.6 2.7-1.1 1.1-2.6 1.9-1.5.7-3.3.7-2.2 0-4-.8-1.7-.9-3.4-2.5l2.7-2.4q1 1.3 2.2 1.8 1.2.4 2.5.4 1 0 1.9-.3.8-.4 1.5-1 .6-.7 1-1.5.4-.9.4-1.8 0-1.1-.4-2-.4-1-1.2-1.8-.8-.7-1.8-1-1-.4-2.4-.4h-1l-1.3.2-1.4.2-1.3.4 1.1-11.4H39v3.5h-8.4v1l-.2.8v1l-.1 1 .9-.1h.8q1.8 0 3.3.5 1.6.6 2.8 1.6 1.2 1 1.8 2.7.7 1.5.7 3.6zm40.7-1.2q0-2.3.6-4.6t2-4.3q1.6-2 4-3.5t5.9-2.1l1 3q-3.9 1-6 2.6-2.1 1.7-3 4 .8-.5 1.8-.7 1-.2 2.4-.2t2.6.6q1.3.6 2.3 1.6t1.5 2.4q.6 1.4.6 3t-.6 3.2q-.5 1.4-1.5 2.4t-2.5 1.7q-1.4.5-3.1.5-2 0-3.5-.7-1.4-.9-2.5-2.2-1-1.3-1.5-3-.5-1.8-.5-3.7zm3.5.5q0 1 .3 2.1t.9 2q.6.8 1.4 1.3.9.5 2 .5 2 0 3-1.2 1.2-1.3 1.2-3.2 0-1-.3-1.7-.3-.9-.9-1.4-.5-.6-1.2-1-.7-.3-1.5-.3-1.4 0-2.7.5-1.2.6-2.1 1.5l-.1.4v.5zm67.6-12.3-3.7 6.8-1.8 3.4-1.5 3.4-1 3.3q-.5 1.6-.5 3v1.3h-3.4v-1.3q0-1.6.3-3.1l.8-3 1.5-3.4 2-3.9.7-1.2.7-1.2.7-1.4.9-1.7h-9.7v-3.5h14Zm41.1 14.4q0-2.1 1-3.8 1-1.6 2.5-2.4-1.2-.7-1.9-1.9t-.7-2.8q0-1.5.6-2.6t1.6-2q1-.7 2.3-1 1.3-.5 2.8-.5h.2q1.2 0 2.2.3 2.1.6 3.4 2 1.4 1.4 1.4 3.8 0 1.6-.8 2.8-.6 1.2-1.8 2 1.5.7 2.5 2.3 1 1.7 1 3.8 0 1.5-.5 2.7-.5 1.2-1.5 2-.9.9-2.1 1.4-1.2.5-2.7.7h-2.7q-1.5-.2-2.7-.7-1.2-.5-2.1-1.4-1-.8-1.5-2t-.5-2.7zm12.7 0q0-1.7-1.2-2.8-1.2-1.2-3.3-1.3-2.2.1-3.5 1.3-1.1 1-1.1 2.8l.1 1 .3.9q.8.8 1.9 1.2 1.1.5 2.2.5 1.2 0 2.4-.5 1.1-.5 1.9-1.3.3-.8.3-1.8zm-4.7-13.7q-1.5.1-2.5.9-1 .7-1 2 0 1.4 1 2.2 1 .8 2.7 1 1.5-.2 2.6-1 1-.8 1-2.2 0-1.3-1-2-1.1-.9-2.7-.9zm64.3 6.2q0 2.3-.6 4.6-.7 2.3-2.1 4.3-1.5 2-4 3.5-2.3 1.5-5.8 2.1l-1-3q3.9-.9 6-2.6 2-1.7 3-4-.9.5-2 .7-1 .2-2.3.2-1.3 0-2.6-.6-1.2-.5-2.2-1.6-1-1-1.6-2.4-.5-1.4-.5-3 0-1.7.5-3.1.6-1.5 1.6-2.5t2.4-1.6q1.4-.6 3.2-.6 2 0 3.4.8 1.5.8 2.5 2.1t1.6 3q.5 1.8.5 3.7zm-3.5-.5q0-1-.3-2.1t-1-2q-.5-.8-1.4-1.3-.8-.5-1.9-.5-2 0-3.1 1.2-1.1 1.3-1.1 3.2 0 1 .3 1.7.3.9.8 1.5l1.2.9q.8.3 1.6.3 1.4 0 2.6-.5 1.2-.6 2.2-1.5v-.4l.1-.5zM33 272.7q-2 0-3.5-.9-1.6-.8-2.8-2.3-1.1-1.6-1.8-3.8-.6-2.2-.6-5 0-2.7.6-5 .7-2.2 1.8-3.7 1.2-1.6 2.8-2.5 1.6-.8 3.5-.8t3.5.8q1.5.9 2.7 2.5 1.2 1.5 1.8 3.7.6 2.3.6 5 0 2.8-.6 5t-1.8 3.8q-1.2 1.5-2.7 2.3-1.6.8-3.5.8zm0-3.3q1 0 2-.6t1.7-1.8q.7-1.1 1-2.7.5-1.6.5-3.6t-.4-3.6q-.4-1.6-1.1-2.7-.7-1.1-1.7-1.7-1-.6-2-.6-1.2 0-2.2.6-1 .6-1.7 1.7-.7 1-1 2.7-.5 1.6-.5 3.6t.4 3.6q.4 1.6 1.1 2.7.7 1.2 1.7 1.8 1 .6 2.2.6zm54.5 3v-22.3l3.4-1.3v23.7zm50.7-3 7-7.4 1.2-1.3 1.2-1.6q.6-.7.9-1.6.4-.8.4-1.5 0-1.5-1-2.6-1.1-1.1-3-1.1-1.4 0-2.4.9t-1.6 2.4l-3-2.5q1-2 2.9-3.2 1.9-1.2 4.1-1.2 1.8 0 3.2.5 1.4.6 2.3 1.6 1 1 1.5 2.3.6 1.4.6 3 0 1.1-.5 2.2l-1 2.1-1.4 2-1.4 1.6-3.1 3.4-1.7 1.8h9.8v3.4h-15zm71.3-3.7q0 1.7-.7 3-.6 1.2-1.7 2.1-1.1.9-2.6 1.3t-3.1.4q-2.2 0-4-.7-1.6-.8-3.4-2.5l2.8-2.4q1 1.3 2.2 1.9 1.2.5 2.4.5 2 0 3.3-1 1.3-1 1.3-2.6 0-2-1.5-3-1.6-1.2-4.3-1.2h-1.3v-3.4h1.4q2 0 3.3-.8 1.4-.8 1.4-2.4 0-1.3-1.1-2-1-1-2.6-1-1.4 0-2.5.6-1 .5-1.9 1.7l-2.6-2.2q1.5-1.6 3-2.4 1.7-.8 4-.8 1.5 0 2.8.4 1.3.4 2.3 1.1 1 .8 1.5 1.9.6 1.1.6 2.7 0 1.5-.7 2.7-.7 1.2-1.8 2 1.5.7 2.5 2.3 1 1.7 1 3.8zm51 6.8v-6.2H250V264l11-15h2.9v14h2v3.4h-2v6.2zm0-9.6v-7.7L255 263z" fill="#000"/><path d="M322 320q0 2.5-1.6 3.9t-4.2 1.8v3.3h-3.3v-3.3q-2-.1-3.5-1-1.6-.9-3.1-2.7l2.6-2.5q1 1.2 2 2 .9.6 2 .9V317l-2-.7-1.8-1.1q-.7-.7-1.2-1.7-.4-1-.4-2.4 0-1 .2-1.8.3-1 1-1.7.6-.7 1.7-1.2 1-.6 2.5-.8v-3.3h3.3v3.3q1.7.3 3.2 1.2 1.4.8 2.7 2.4l-2.6 2.3q-1.5-2-3.3-2.5v5l2 .8q1.1.4 2 1.2.7.7 1.2 1.7t.5 2.4zm-3.7.4q0-1-.6-1.5-.6-.6-1.5-1v4.5q1-.3 1.5-.8.6-.5.6-1.2zm-7.2-9.6q0 .8.5 1.3.4.5 1.3.8v-4q-1 .3-1.4.8-.4.5-.4 1.1z" fill="#fff"/><path d="M304.7 260.6q0 .8-.2 1.5t-.7 1.2q-.4.5-1.1.8-.7.3-1.6.3h-2.7v-7.5h2.7q1 0 1.6.3.7.3 1.1.8.5.5.7 1.2l.2 1.4zm-1.2 0q0-1.2-.6-1.8-.7-.7-1.8-.7h-1.6v5.1h1.6q.6 0 1-.2.5-.1.8-.5l.5-.8.1-1zm1.7 3.8v-7.5h4.6v1.2h-3.5v1.8h3.1v1.2h-3.1v2.1h3.5v1.2zm5 0v-7.5h1.2v6.3h3.4v1.2zm5 0v-7.5h4.7v1.2h-3.5v1.8h3.2v1.2h-3.2v2.1h3.5v1.2zm8-6.3v6.3h-1.1V258h-1.8v-1.2h4.7v1.2zm2.2 6.3v-7.5h4.6v1.2h-3.5v1.8h3.2v1.2h-3.2v2.1h3.5v1.2z" fill="#fff"/><path d="M113.6 57.5v-5.2h-4.8v5.2h-1.9V45.7h1.9v4.8h4.8v-4.8h1.8v11.8zm2.5 0V45.7h7.2v1.8H118v3h5v1.8h-5v3.4h5.5v1.8zm8 0V45.7h1.7v10h5.5v1.8zm9.7-4.8v4.8H132V45.7h4.4q.7 0 1.4.3.6.3 1 .8.6.4.8 1 .3.7.3 1.4t-.3 1.4q-.2.6-.7 1.1-.5.5-1.1.8l-1.4.2zm0-1.8h2.6l.7-.1q.3-.1.5-.4l.4-.5.1-.7-.1-.6-.4-.5q-.2-.3-.5-.4-.3-.2-.7-.2h-2.6z" fill="#fff"/></svg>