<svg xmlns="http://www.w3.org/2000/svg" viewBox="0 0 348 348" fill="none"><defs><path id="a" d="M449.554 141.658h459.903v51.1H449.554z"/></defs><path d="M5.079 5.776h336.913v337.67H5.08z" stroke-width="2" stroke="#000"/><path d="M282.734 40.554c0-8.376 6.966-15.165 15.56-15.165 4.126 0 8.084 1.597 11.001 4.441 2.918 2.844 4.558 6.702 4.558 10.724 0 8.376-6.966 15.165-15.56 15.165-8.593 0-15.559-6.79-15.559-15.165z" stroke-width="2" stroke="#000"/><path d="M23.704 84.507h61.041v61.041h-61.04z" fill="#fff" stroke="#000" stroke-width=".542"/><path d="M84.745 84.507h61.041v61.041h-61.04z" fill="#000" stroke="#000" stroke-width=".542"/><path d="M145.786 84.507h61.041v61.041h-61.04z" fill="#fff" stroke="#000" stroke-width=".542"/><path d="M206.827 84.507h61.04v61.041h-61.04zM23.704 145.548h61.041v61.041h-61.04z" fill="#000" stroke="#000" stroke-width=".542"/><path d="M84.745 145.548h61.041v61.041h-61.04z" fill="#fff" stroke="#000" stroke-width=".542"/><path d="M145.786 145.548h61.041v61.041h-61.04z" fill="#000" stroke="#000" stroke-width=".542"/><path d="M206.827 145.548h61.04v61.041h-61.04zM23.704 206.59h61.041v61.04h-61.04z" fill="#fff" stroke="#000" stroke-width=".542"/><path d="M84.745 206.59h61.041v61.04h-61.04z" fill="#000" stroke="#000" stroke-width=".542"/><path d="M145.786 206.59h61.041v61.04h-61.04z" fill="#fff" stroke="#000" stroke-width=".542"/><path d="M206.827 206.59h61.04v61.04h-61.04zM23.704 267.63h61.041v61.04h-61.04z" fill="#000" stroke="#000" stroke-width=".542"/><path d="M84.745 267.63h61.041v61.04h-61.04z" fill="#fff" stroke="#000" stroke-width=".542"/><path d="M145.786 267.63h61.041v61.04h-61.04z" fill="#000" stroke="#000" stroke-width=".542"/><path d="M206.827 267.63h61.04v61.04h-61.04z" fill="#fff" stroke="#000" stroke-width=".542"/><path d="M66.602 122.436q0 .954-.057 1.359-.058.376-.26.549-.174.173-.52.318-.348.116-.926.55.607.78.607 1.733 0 1.012-.607 1.85-.578.81-1.387 1.388-.752.52-1.157 1.3-.375.752-.751 1.561-1.156.03-2.11.463-.925.433-1.821 1.098-.463.318-.925.434-.463.115-.983.115t-1.07-.057q-.52-.058-1.04-.058-.925 0-1.85.26-.896.29-1.82.29-.463 0-1.186-.145-.723-.116-1.474-.318-.752-.174-1.474-.405-.694-.231-1.128-.434-.896-.404-1.676-1.04-.752-.636-1.619-1.04-.405-1.07-1.012-2.024-.578-.983-1.474-1.677.203-.433.26-.867.087-.462.087-.954 0-.838-.173-1.676-.145-.867-.145-1.706 0-1.445.78-2.63l.26.029q.492 0 .926-.174.462-.202.954-.202.722 0 1.387.231.694.232 1.185.665.52.405.81 1.04.317.608.317 1.388 0 .26-.057.752-.058.462-.232.925-.144.462-.404.81-.26.317-.636.317-.231 0-.434-.116-.202-.144-.347-.318 0 .347.058.983t.203 1.272q.173.607.462 1.07.29.462.752.433l.722-.029h.203q.896 0 1.82.203.954.202 1.966.202.81 0 1.59.116.78.115 1.59.115 1.07 0 1.994-.289.925-.289 1.734-.78.81-.52 1.532-1.157.752-.635 1.475-1.33.318-.317.318-.606 0-.145-.03-.29-.028-.144-.028-.288 0-.376.347-.81.346-.433.751-.982.405-.55.752-1.214.347-.665.347-1.504 0-.664-.203-1.3-.173-.665-.173-1.388 0-.578-.29-1.04-.26-.463-.606-.896-.318-.463-.607-.925-.26-.463-.26-1.012v-.231q0-.116.057-.26-.693-.174-1.618-.52-.896-.348-1.821-.694-.896-.347-1.706-.607-.81-.29-1.243-.29-1.098 0-2.168.232-1.07.231-2.167.231 0-.116.202-.202.231-.116.52-.232.29-.144.52-.289.232-.144.232-.346 0-.232-.405-.405-.376-.174-.55-.174-.317 0-.577.145-.26.116-.52.289t-.55.318q-.26.116-.549.116-.231 0-.434-.116-.202-.145-.346-.347v.289q0 .492.289.723.289.231.78.231h.174q-.347.55-.752.954-.405.376-1.098.376-.492 0-.954-.03-.434-.057-.925-.057.115-1.07.665-2.255.578-1.214 1.387-2.312.838-1.127 1.763-2.081.954-.983 1.792-1.619.318-.26.55-.376.23-.144.404-.289.203-.144.376-.347.173-.23.347-.635.26-.579.636-1.012.404-.463.81-.867.433-.434.837-.867.434-.434.752-.954.376-.174.78-.29.405-.144.78-.317.405-.174.723-.405.347-.231.578-.636-.028-1.04-.78-1.387-.751-.347-1.648-.347-.664 0-1.271.26-.578.26-1.243.26-.463 0-.867-.202-.405-.203-.868-.203-.289 0-.491.145-.173.116-.434.116-.23 0-.404-.058-.174-.087-.405-.087l-.173.145q-.03.144-.232.173-.202.029-.491.029-.405 0-.838-.029-.434-.058-.578-.058-1.012 0-1.677.723-.636.694-.636 1.676 0 .492.058.954.087.463.087.954 0 .405-.174.896-.144.463-.433.867-.26.376-.665.636-.376.26-.838.26-.52 0-1.012-.23-.462-.261-.867-.55v-.145q0-.289.116-.52.144-.26.289-.491.173-.26.289-.492.144-.26.144-.549 0-.318-.231-.55-.202-.23-.202-.548 0-.405.173-.78.173-.377.173-.781 0-.55-.202-1.04-.202-.492-.202-1.012 0-.174.202-.579.202-.404.491-.838.29-.433.579-.751t.462-.318q.29 0 .55.086.26.058.548.058.78 0 1.561-.144.81-.174 1.648-.174.665 0 1.33.03.693.028 1.358.028 1.445 0 2.804-.26 1.387-.29 2.804-.29.462 0 .896.059.462.029.925.029 1.04 0 2.08-.174 1.041-.173 2.082-.173.52 0 1.012.086.52.087.983.347v.03q-.116.26-.116.635 0 .26.087.463.115.202.23.375.116.174.203.347.116.174.116.376 0 .231-.405.838-.376.578-.896 1.301-.52.694-1.012 1.387-.462.694-.636 1.099-.144.347-.433.549-.26.202-.607.347-.318.115-.665.231-.347.116-.636.318-.404.29-.954.925-.549.636-1.04 1.387-.492.723-.839 1.475-.346.722-.346 1.214 0 .289.318.636.318.318.751.635.434.318.867.607.434.29.665.492.29.289.578.347.318.058.607.086.318.03.607.116.29.087.55.405.23.289.52.549.318.231.578.491.289.26.462.578.203.29.203.723h1.243v.838q.751.492.924.839.174.318.174.607v.202q0 .26.144.405.636.635.897 1.214.289.578.375 1.185.116.578.174 1.214.086.636.347 1.416.173.52.26 1.04.115.52.115 1.041zM50.04 95.526q0-.174-.145-.29-.115-.144-.289-.144-.289 0-.376.347-.057.318-.057.52l.057-.116q.03.03.03.087 0 .03-.059.03.232 0 .52-.059.319-.086.319-.375z" fill="#000" aria-label="3" style="fill:#000000;stroke-width:3.69985" font-size="59.198" font-family="Special Elite" stroke-width="3.7"/><path d="M192.713 127.66q0 .52-.145 1.128-.115.607-.549.954-.144.144-.289.404l-.231.52q-.087.26-.202.463-.087.202-.174.202-.116 0-.231-.028-.087-.058-.231-.087l-.203.115q-.347.434-.982.868-.636.404-1.359.751-.723.318-1.474.52-.723.203-1.272.203-.434 0-.723-.087-.289-.116-.491-.231-.173-.145-.318-.26-.116-.116-.289-.116-.347 0-.694.231-.318.203-.549.203-.144 0-.173-.145-.03-.173-.347-.289-.492-.173-1.099-.52-.578-.347-1.185-.694-.607-.376-1.156-.636-.55-.289-.925-.289-.116 0-.55-.376-.433-.375-1.04-.838-.607-.462-1.33-.838-.722-.376-1.445-.376-.809 0-1.271.491-.463.492-.694 1.186h-.26q-.376 0-.665.23-.29.232-.491.579-.174.347-.26.751-.087.376-.087.723 0 .491.057 1.012.087.491.087.983v.346q0 .174-.029.318-.347-.086-.722-.086-.376 0-.723.057-.347.087-.723.087-.578 0-.838-.347t-.433-.809q-.232-.578-.607-1.127-.376-.55-.78-1.099-.377-.549-.666-1.098-.26-.55-.26-1.127 0-.723.058-1.446.058-.722.058-1.474 0-.607.289-1.04.318-.434.665-.896.375-.463.664-1.041.318-.578.318-1.474 0-.231.116-.347.116-.145.26-.29.318-.26.752-.924.462-.665 1.011-1.474.55-.81 1.157-1.648.635-.838 1.3-1.445.174-.174.29-.231.115-.058.26-.058.144 0 .289.029.144.029.346.029.29 0 .405-.087.145-.087.202-.202.087-.145.145-.29.058-.144.231-.289.29-.23.78-.202.492.029.897-.144.289-.145.549-.318.26-.203.491-.376.26-.202.52-.347.29-.173.608-.26 1.07-.29 2.139-.752 1.069-.491 2.023-1.127.983-.665 1.792-1.474.81-.838 1.359-1.821.086-.174.26-.405.202-.231.375-.462.203-.26.318-.492.145-.26.145-.433 0-.174-.058-.318-.058-.174-.058-.347 0-.202.145-.29.144-.086.318-.173.289-.115.462-.375.203-.26.29-.55.115-.317.144-.664.058-.347.058-.636 0-.29-.058-.636-.029-.347-.145-.665-.086-.318-.289-.578-.202-.29-.491-.405-.087-.058-.26-.115-.145-.058-.145-.203 0-.115.058-.202.058-.116.058-.231 0-.203-.231-.405-.203-.231-.52-.434-.29-.23-.579-.433-.289-.231-.404-.463-.145-.23-.694-.549-.55-.347-1.214-.636-.636-.318-1.243-.52-.607-.231-.867-.231-1.012 0-1.937.376-.925.346-1.908.549-.693.144-1.85.289-1.156.115-2.254.433-1.07.318-1.879.925-.78.607-.78 1.677 0 .491.289.925.289.404.722.838.434.405.954.81.52.404.954.867.434.462.723.982.289.492.289 1.099 0 .751-.492 1.3-.462.52-1.156.868-.665.346-1.445.52-.752.144-1.359.144-.722 0-1.33-.202-.404-.116-.635-.144-.203-.058-.347-.116-.116-.087-.174-.26-.057-.203-.144-.636-.087-.492-.29-.867-.201-.405-.404-.78-.173-.405-.318-.81-.144-.434-.144-.983 0-.665.318-1.647.347-.983.838-1.995t1.04-1.879q.579-.896 1.07-1.358.202-.203.318-.434.116-.26.231-.462.145-.232.347-.376.202-.145.607-.145h.52q.405 0 .665-.115.26-.116.405-.52.087-.26.405-.405.317-.145.693-.203.376-.057.752-.086.404-.03.636-.03.578-.028 1.098-.173.55-.144 1.098-.318.55-.173 1.07-.289.55-.144 1.127-.144l.463.029q2.428.115 4.046.404 1.62.29 2.833.983 1.214.694 2.226 1.937t2.283 3.237q.29.492.492 1.099.231.578.751.954-.347.722-.433 1.503-.058.751-.116 1.532-.029.52-.144.925-.087.375-.232.722-.144.347-.347.694-.173.347-.375.81-.145.317-.203.548-.057.203-.144.405-.058.202-.203.376-.144.144-.49.318-.348.202-.492.462-.145.26-.232.55-.086.26-.23.52-.116.231-.463.347-.694.289-1.33.751-.607.463-1.214.954-.578.491-1.185.925-.607.434-1.33.607-.809.202-1.532.607-.722.405-1.416.838-.694.434-1.416.839-.694.404-1.503.607-.318.086-.52.26-.203.144-.348.375-.144.203-.289.434-.144.231-.346.434-.318.318-.607.404-.26.087-.55.145-.289.058-.607.231-.289.145-.636.636-.173.26-.462.405-.29.144-.55.289-.26.144-.462.347-.173.173-.173.52 0 .26-.145.462-.115.174-.26.376-.144.174-.289.376-.116.173-.116.405 0 .144.058.346.058.203.232.434.202.202.52.347.318.144.838.144t1.04-.086q.52-.087 1.041-.087.434 0 .81.144.404.116.78.26l.752.29q.375.115.751.115.723 0 .954-.78.116.058.173.318.058.26.087.549l.116.52q.058.232.144.232.203-.116.29-.376.086-.29.375-.29.173 0 .318.174.173.174.347.376.202.202.433.376.26.173.607.173.579 0 1.243.463.694.433 1.417.982.722.52 1.445.983.752.434 1.445.434.752 0 1.243-.318.52-.347.925-.838.405-.492.723-1.07.347-.607.722-1.098.376-.492.868-.81.49-.347 1.185-.347 1.098 0 1.416.579.347.549.347 1.503zm-8.845-32.576h-1.243q.116 0 .116.145 0 .144-.087.26-.058-.058-.058-.144v-.03q.029 0 .029-.028v-.203l-.029.405q-.058.434.145.81.202.375.693.433.087-.347.26-.665.203-.318.203-.694z" fill="#000" aria-label="2" style="fill:#000000;stroke-width:3.69985" font-size="59.198" font-family="Special Elite" stroke-width="3.7"/><path d="M131.508 132.094q0 .318-.116.607t-.26.578q-.29.55-.55.867-.23.318-.49.463-.261.173-.579.202-.289.058-.694.058h-.982q-.232.086-.434.086-.26 0-.347-.23-.058-.203-.058-.463v-.26q.03-.145.03-.232 0-.23-.087-.404-.058-.174-.318-.174-.434 0-.694.26-.231.232-.463.52-.202.29-.462.521-.26.26-.752.26-.578 0-1.156-.173-.549-.174-1.127-.232-1.185-.086-2.37-.115l-2.37-.058q-1.157-.058-2.342-.173-1.156-.116-2.312-.376-.26-.058-.52-.087-.26-.029-.492-.029-1.185 0-2.341.26-1.128.232-2.544.232-.954 0-1.908.202t-1.907.202q-.463 0-1.07-.173-.607-.202-1.185-.52-.55-.318-.954-.78-.376-.463-.376-.984 0-.375.347-.78.376-.434.867-.81.492-.404.983-.722.52-.347.81-.55 1.763.232 3.526.521 1.763.29 3.555.29 1.099 0 1.735-.261.664-.29.982-.752.347-.49.434-1.127.116-.665.116-1.416 0-.434-.03-.867v-.925q0-4.51.232-8.96.26-4.481.26-8.99 0-2.226-.116-4.423-.086-2.197-.404-4.393-.405-.087-.78-.174-.348-.087-.839-.087-.145 0-.145.03-.115-.116-.289-.116-.144-.03-.289-.03-.664 0-1.271.203-.607.174-1.243.174-.174 0-.29-.058-.086-.058-.202-.145-.086-.087-.231-.144-.116-.058-.318-.058-.954 0-1.908.202-.954.203-1.936.203-.694 0-1.388-.203-.665-.202-1.214-.636.203-.433.203-1.04 0-.463-.087-.896-.087-.463-.116-.925.203.086.434.086.433 0 .81-.202.404-.231.78-.491.375-.29.78-.492.405-.231.838-.231.867 0 1.706.26.867.26 1.734.26.491 0 .838-.173.347-.202.607-.202.29 0 .434.173.173.173.491.173.463 0 .925-.173.492-.173.954-.347.463-.202.954-.376.491-.173 1.012-.173.722 0 1.416.173.723.174 1.416.174.376 0 .723-.087h.029q-.058.145-.058.463 0 .404.116.722.144.318.289.665.173.347.289.838.144.492.144 1.243 0 1.3.058 2.573.058 1.243.058 2.543 0 .665-.116 1.301-.086.607-.376 1.185.26.231.318.55.087.288.087.635v.463q0 .318.058.665.087.346.376.578l.029.318q0 .375-.145.665-.116.289-.26.549l-.29.52q-.115.26-.115.578 0 .665.174 1.359.202.664.202 1.416 0 .925-.116 1.85-.115.896-.26 1.82-.144.897-.26 1.822-.116.896-.116 1.821 0 .231-.086.376-.058.144-.203.144-.028 0-.202-.058 0 .752.116 1.504l.231 1.503q.145.722.26 1.474.116.751.116 1.532v.404l-.03.405q0 1.532 1.013 2.255 1.011.722 2.485.722.983 0 1.475-.173.52-.202.751-.434.26-.23.405-.404.144-.203.433-.203.839 0 1.706.203.896.173 1.734.26.434.058.867.058.434 0 .838.086.405.058.752.232.347.173.636.607l.636.953q.376.52.376 1.07z" aria-label="1" style="fill:#ffffff;stroke-width:3.69985" font-size="59.198" font-family="Special Elite" fill="#fff" stroke-width="3.7"/><path d="M252.856 127.837q0 .52-.145 1.128-.115.607-.549.954-.144.144-.289.404l-.231.52q-.087.26-.203.463-.086.202-.173.202-.116 0-.231-.029-.087-.057-.231-.086l-.203.115q-.347.434-.983.867-.636.405-1.358.752-.723.318-1.474.52-.723.203-1.272.203-.434 0-.723-.087-.289-.116-.491-.231-.174-.145-.318-.26-.116-.116-.29-.116-.346 0-.693.231-.318.202-.55.202-.144 0-.173-.144-.028-.173-.346-.29-.492-.173-1.099-.52-.578-.346-1.185-.693-.607-.376-1.156-.636-.55-.29-.925-.29-.116 0-.55-.375-.433-.376-1.04-.838-.607-.463-1.33-.838-.722-.376-1.445-.376-.81 0-1.272.491-.462.492-.693 1.185h-.26q-.376 0-.665.232-.29.23-.492.578-.173.347-.26.751-.086.376-.086.723 0 .491.057 1.012.087.491.087.982v.347q0 .174-.029.318-.347-.087-.722-.087-.376 0-.723.058-.347.087-.723.087-.578 0-.838-.347t-.434-.81q-.23-.577-.607-1.127-.375-.549-.78-1.098-.376-.55-.665-1.098-.26-.55-.26-1.128 0-.722.058-1.445.058-.722.058-1.474 0-.607.289-1.04.318-.434.665-.897.375-.462.664-1.04.318-.578.318-1.474 0-.232.116-.347.116-.145.26-.29.318-.26.752-.924.462-.665 1.011-1.474.55-.81 1.156-1.648.636-.838 1.301-1.445.174-.174.29-.232.115-.057.26-.057.144 0 .288.029.145.028.347.028.29 0 .405-.086.145-.087.202-.203.087-.144.145-.289.058-.144.231-.289.29-.23.78-.202.492.029.897-.145.289-.144.549-.317.26-.203.491-.376.26-.203.52-.347.29-.174.607-.26 1.07-.29 2.14-.752 1.069-.491 2.023-1.127.983-.665 1.792-1.474.81-.839 1.358-1.821.087-.174.26-.405.203-.231.376-.462.203-.26.318-.492.145-.26.145-.433 0-.174-.058-.318-.058-.174-.058-.347 0-.203.145-.29.144-.086.318-.173.289-.115.462-.375.203-.26.29-.55.115-.318.144-.664.058-.347.058-.636 0-.29-.058-.636-.03-.347-.145-.665-.086-.318-.289-.578-.202-.29-.491-.405-.087-.058-.26-.116-.145-.057-.145-.202 0-.115.058-.202.058-.116.058-.231 0-.203-.231-.405-.203-.231-.52-.434-.29-.23-.579-.433-.289-.232-.405-.463-.144-.231-.693-.549-.55-.347-1.214-.636-.636-.318-1.243-.52-.607-.231-.867-.231-1.012 0-1.937.375-.925.347-1.908.55-.693.144-1.85.289-1.156.115-2.254.433-1.07.318-1.88.925-.78.607-.78 1.677 0 .491.29.925.289.404.722.838.434.405.954.81.52.404.954.866.433.463.723.983.289.492.289 1.099 0 .751-.492 1.3-.462.52-1.156.867-.665.347-1.445.52-.752.145-1.359.145-.722 0-1.33-.202-.404-.116-.635-.145-.203-.057-.347-.115-.116-.087-.174-.26-.057-.203-.144-.636-.087-.492-.29-.867-.202-.405-.404-.78-.173-.406-.318-.81-.144-.434-.144-.983 0-.665.318-1.648.346-.982.838-1.994.491-1.012 1.04-1.879.578-.896 1.07-1.358.202-.203.318-.434.115-.26.231-.462.145-.232.347-.376.202-.145.607-.145h.52q.405 0 .665-.115.26-.116.405-.52.086-.26.404-.405.318-.145.694-.203.376-.058.752-.086.404-.03.636-.03.578-.028 1.098-.173.55-.144 1.098-.318.55-.173 1.07-.289.549-.144 1.127-.144l.463.029q2.428.115 4.046.404 1.619.29 2.833.983 1.214.694 2.226 1.937 1.011 1.243 2.283 3.237.29.491.492 1.098.23.579.751.954-.347.723-.433 1.503-.058.752-.116 1.532-.029.52-.145.925-.086.376-.23.723-.145.347-.348.694-.173.347-.375.81-.145.317-.203.548-.058.203-.144.405-.058.202-.203.376-.144.144-.491.318-.347.202-.491.462-.145.26-.232.55-.086.26-.23.52-.117.23-.463.346-.694.29-1.33.752-.607.462-1.214.954-.578.491-1.185.925-.607.433-1.33.607-.81.202-1.532.607-.722.405-1.416.838-.694.434-1.416.838-.694.405-1.504.607-.317.087-.52.26-.202.145-.347.376-.144.203-.289.434-.144.231-.347.433-.318.318-.607.405-.26.087-.549.145-.289.057-.607.23-.289.145-.636.637-.173.26-.462.404-.29.145-.55.29-.26.144-.462.346-.173.174-.173.52 0 .26-.145.463-.115.174-.26.376-.144.173-.289.376-.116.173-.116.404 0 .145.058.347.058.203.231.434.203.202.52.347.319.144.839.144t1.04-.087q.52-.086 1.041-.086.434 0 .81.144.404.116.78.26l.751.29q.376.115.752.115.723 0 .954-.78.115.057.173.318.058.26.087.549l.116.52q.057.231.144.231.202-.115.29-.375.086-.29.375-.29.173 0 .318.174.173.173.347.376.202.202.433.376.26.173.607.173.578 0 1.243.462.694.434 1.417.983.722.52 1.445.983.751.434 1.445.434.752 0 1.243-.318.52-.347.925-.839.405-.491.723-1.07.347-.606.722-1.098.376-.49.867-.809.492-.347 1.186-.347 1.098 0 1.416.578.347.55.347 1.503zm-8.845-32.576h-1.243q.116 0 .116.145 0 .144-.087.26-.058-.058-.058-.145v-.028q.029 0 .029-.03v-.202l-.029.405q-.058.434.145.81.202.375.693.433.087-.347.26-.665.203-.318.203-.694z" aria-label="2" style="fill:#ffffff;stroke-width:3.69985" font-size="59.198" font-family="Special Elite" fill="#fff" stroke-width="3.7"/><path d="M130.165 183.539q0 .954-.058 1.358-.058.376-.26.55-.174.173-.52.318-.347.115-.925.549.607.78.607 1.734 0 1.012-.607 1.85-.579.81-1.388 1.388-.751.52-1.156 1.3-.376.752-.752 1.561-1.156.029-2.11.463-.925.433-1.82 1.098-.463.318-.926.434-.462.115-.983.115-.52 0-1.069-.058-.52-.057-1.04-.057-.926 0-1.85.26-.897.289-1.822.289-.462 0-1.185-.145-.722-.115-1.474-.318-.751-.173-1.474-.404-.694-.232-1.127-.434-.896-.405-1.677-1.04-.751-.636-1.618-1.041-.405-1.07-1.012-2.023-.578-.983-1.474-1.677.202-.434.26-.867.087-.463.087-.954 0-.838-.174-1.677-.144-.867-.144-1.705 0-1.445.78-2.63l.26.029q.492 0 .925-.174.463-.202.954-.202.723 0 1.387.231.694.231 1.186.665.52.405.809 1.04.318.608.318 1.388 0 .26-.058.751-.058.463-.231.925-.145.463-.405.81-.26.318-.636.318-.231 0-.433-.116-.203-.144-.347-.318 0 .347.058.983.057.636.202 1.272.173.607.462 1.07.29.462.752.433l.723-.03h.202q.896 0 1.82.203.955.203 1.966.203.81 0 1.59.115.78.116 1.59.116 1.07 0 1.995-.29.924-.288 1.734-.78.81-.52 1.532-1.156.751-.636 1.474-1.33.318-.317.318-.606 0-.145-.029-.29-.029-.144-.029-.289 0-.375.347-.809.347-.433.751-.983.405-.549.752-1.214.347-.665.347-1.503 0-.665-.202-1.3-.174-.665-.174-1.388 0-.578-.289-1.04-.26-.463-.607-.897-.318-.462-.607-.925-.26-.462-.26-1.011v-.231q0-.116.058-.26-.694-.174-1.619-.52-.896-.348-1.821-.695-.896-.347-1.705-.607-.81-.289-1.243-.289-1.099 0-2.168.232-1.07.23-2.168.23 0-.115.202-.202.231-.115.52-.23.29-.145.52-.29.232-.144.232-.347 0-.231-.405-.404-.375-.174-.549-.174-.318 0-.578.145-.26.115-.52.289-.26.173-.55.318-.26.115-.549.115-.23 0-.433-.115-.203-.145-.347-.347v.289q0 .491.289.723.29.23.78.23h.174q-.347.55-.752.955-.404.375-1.098.375-.491 0-.954-.028-.433-.058-.925-.058.116-1.07.665-2.255.578-1.214 1.387-2.312.839-1.128 1.764-2.081.953-.983 1.792-1.62.318-.26.549-.375.231-.144.405-.289.202-.144.375-.347.174-.231.347-.636.26-.578.636-1.011.405-.463.81-.868.433-.433.838-.867.433-.433.751-.954.376-.173.78-.289.405-.144.781-.318.405-.173.723-.404.347-.232.578-.636-.029-1.04-.78-1.388-.752-.346-1.648-.346-.665 0-1.272.26-.578.26-1.243.26-.462 0-.867-.203-.405-.202-.867-.202-.29 0-.492.145-.173.115-.433.115-.231 0-.405-.058-.173-.086-.405-.086l-.173.144q-.029.145-.231.174-.203.029-.492.029-.404 0-.838-.03-.433-.057-.578-.057-1.012 0-1.676.723-.636.693-.636 1.676 0 .491.057.954.087.462.087.954 0 .404-.173.896-.145.462-.434.867-.26.376-.665.636-.375.26-.838.26-.52 0-1.012-.231-.462-.26-.867-.55v-.144q0-.289.116-.52.144-.26.289-.492.173-.26.289-.491.144-.26.144-.55 0-.317-.23-.548-.203-.232-.203-.55 0-.404.173-.78.174-.376.174-.78 0-.55-.203-1.041-.202-.491-.202-1.012 0-.173.202-.578.203-.404.492-.838.289-.434.578-.752t.462-.318q.29 0 .55.087.26.058.549.058.78 0 1.56-.145.81-.173 1.648-.173.665 0 1.33.029.694.029 1.358.029 1.446 0 2.804-.26 1.388-.29 2.804-.29.463 0 .896.058.463.03.925.03 1.04 0 2.081-.174 1.04-.174 2.081-.174.52 0 1.012.087.52.087.983.347v.029q-.116.26-.116.636 0 .26.087.462.116.203.231.376.116.174.203.347.115.173.115.376 0 .23-.405.838-.375.578-.896 1.3-.52.694-1.011 1.388-.463.694-.636 1.099-.145.346-.434.549-.26.202-.607.347-.318.115-.665.23-.346.116-.635.319-.405.289-.954.925-.55.636-1.04 1.387-.492.723-.84 1.474-.346.723-.346 1.214 0 .29.318.636.318.318.751.636.434.318.868.607.433.29.664.492.29.289.579.346.317.058.607.087.317.029.607.116.289.086.549.404.231.29.52.55.318.23.578.491.29.26.463.578.202.29.202.723h1.243v.838q.751.491.925.838.173.318.173.607v.203q0 .26.145.404.636.636.896 1.214.289.578.376 1.185.115.578.173 1.214.087.636.347 1.417.173.52.26 1.04.116.52.116 1.04zm-16.563-26.91q0-.174-.144-.29-.116-.144-.29-.144-.289 0-.375.347-.058.317-.058.52l.058-.116q.029.03.029.087 0 .029-.058.029.231 0 .52-.058.318-.087.318-.376z" fill="#000" aria-label="3" style="fill:#000000;stroke-width:3.69985" font-size="59.198" font-family="Special Elite" stroke-width="3.7"/><path d="M70.578 193.667q0 .318-.116.607-.115.289-.26.578-.289.549-.549.867-.231.318-.491.462-.26.174-.578.203-.29.058-.694.058h-.983q-.231.086-.433.086-.26 0-.347-.231-.058-.202-.058-.462v-.26q.029-.145.029-.232 0-.231-.087-.405-.058-.173-.318-.173-.434 0-.694.26-.23.231-.462.52-.202.29-.463.52-.26.26-.751.26-.578 0-1.156-.173-.55-.173-1.128-.23-1.185-.087-2.37-.116l-2.37-.058q-1.156-.058-2.341-.174-1.157-.115-2.313-.375-.26-.058-.52-.087-.26-.029-.492-.029-1.185 0-2.34.26-1.128.231-2.544.231-.954 0-1.908.203-.954.202-1.908.202-.462 0-1.07-.173-.606-.203-1.185-.52-.549-.319-.953-.781-.376-.463-.376-.983 0-.376.347-.78.375-.434.867-.81.491-.404.983-.722.52-.347.809-.55 1.763.232 3.526.52 1.764.29 3.556.29 1.098 0 1.734-.26.665-.29.983-.752.347-.491.433-1.127.116-.665.116-1.416 0-.434-.029-.868v-.925q0-4.509.231-8.96.26-4.48.26-8.99 0-2.225-.115-4.422-.087-2.197-.405-4.394-.405-.086-.78-.173-.347-.087-.839-.087-.144 0-.144.029-.116-.116-.29-.116-.144-.028-.288-.028-.665 0-1.272.202-.607.173-1.243.173-.173 0-.289-.058-.087-.057-.202-.144-.087-.087-.232-.145-.115-.057-.317-.057-.954 0-1.908.202t-1.937.202q-.694 0-1.387-.202-.665-.202-1.214-.636.202-.434.202-1.04 0-.463-.087-.897-.086-.462-.115-.925.202.087.433.087.434 0 .81-.202.404-.231.78-.492.376-.289.78-.491.405-.231.839-.231.867 0 1.705.26.867.26 1.734.26.492 0 .839-.173.347-.203.607-.203.289 0 .433.174.174.173.492.173.462 0 .925-.173.491-.174.953-.347.463-.202.954-.376.492-.173 1.012-.173.723 0 1.416.173.723.174 1.417.174.376 0 .722-.087h.03q-.059.144-.059.462 0 .405.116.723.145.318.29.665.173.347.288.838.145.491.145 1.243 0 1.3.058 2.573.057 1.242.057 2.543 0 .665-.115 1.3-.087.608-.376 1.186.26.231.318.55.087.288.087.635v.463q0 .318.057.664.087.347.376.579l.03.317q0 .376-.145.665-.116.29-.26.55l-.29.52q-.115.26-.115.578 0 .665.173 1.358.203.665.203 1.417 0 .925-.116 1.85-.116.896-.26 1.82-.145.897-.26 1.822-.116.896-.116 1.82 0 .232-.087.377-.058.144-.202.144-.029 0-.202-.058 0 .752.115 1.503l.231 1.503q.145.723.26 1.475.116.751.116 1.532v.404l-.029.405q0 1.532 1.012 2.254 1.012.723 2.486.723.983 0 1.474-.173.52-.203.752-.434.26-.231.404-.405.145-.202.434-.202.838 0 1.705.202.896.174 1.735.26.433.058.867.058.433 0 .838.087.405.058.751.231.347.174.636.607l.636.954q.376.52.376 1.07z" aria-label="1" style="fill:#ffffff;stroke-width:3.69985" font-size="59.198" font-family="Special Elite" fill="#fff" stroke-width="3.7"/><path d="M190.308 183.716q0 .954-.058 1.358-.058.376-.26.55-.174.173-.52.317-.348.116-.926.55.607.78.607 1.734 0 1.012-.607 1.85-.578.81-1.387 1.387-.752.52-1.156 1.301-.376.752-.752 1.56-1.156.03-2.11.463-.925.434-1.82 1.099-.463.318-.926.433-.462.116-.983.116-.52 0-1.07-.058-.52-.058-1.04-.058-.925 0-1.85.26-.896.29-1.82.29-.463 0-1.186-.145-.722-.116-1.474-.318-.751-.173-1.474-.405-.694-.23-1.127-.433-.896-.405-1.677-1.04-.751-.637-1.619-1.041-.404-1.07-1.011-2.024-.578-.982-1.474-1.676.202-.434.26-.867.086-.463.086-.954 0-.838-.173-1.677-.145-.867-.145-1.705 0-1.445.78-2.63l.261.028q.491 0 .925-.173.463-.202.954-.202.723 0 1.387.231.694.231 1.185.665.52.404.81 1.04.318.607.318 1.388 0 .26-.058.751-.058.463-.231.925-.145.463-.405.81-.26.318-.636.318-.231 0-.433-.116-.203-.145-.347-.318 0 .347.057.983.058.636.203 1.272.173.607.462 1.07.29.462.752.433l.722-.03h.203q.896 0 1.82.203.955.202 1.966.202.81 0 1.59.116t1.59.116q1.07 0 1.994-.29.925-.288 1.735-.78.809-.52 1.532-1.156.751-.636 1.474-1.33.318-.318.318-.607 0-.144-.03-.289-.028-.144-.028-.289 0-.376.347-.81.347-.433.751-.982.405-.55.752-1.214.347-.665.347-1.503 0-.665-.203-1.3-.173-.666-.173-1.388 0-.578-.289-1.04-.26-.463-.607-.897-.318-.462-.607-.925-.26-.462-.26-1.011v-.232q0-.115.058-.26-.694-.173-1.62-.52-.895-.347-1.82-.694-.896-.347-1.706-.607-.809-.289-1.242-.289-1.099 0-2.168.231-1.07.232-2.168.232 0-.116.202-.203.231-.115.52-.231.29-.145.52-.289.232-.145.232-.347 0-.231-.405-.405-.375-.173-.549-.173-.318 0-.578.145-.26.115-.52.289-.26.173-.55.318-.26.115-.549.115-.23 0-.433-.115-.203-.145-.347-.347v.289q0 .491.289.722.289.232.78.232h.174q-.347.549-.752.953-.404.376-1.098.376-.492 0-.954-.029-.434-.057-.925-.057.116-1.07.665-2.255.578-1.214 1.387-2.312.839-1.128 1.763-2.082.954-.982 1.793-1.618.318-.26.549-.376.231-.145.404-.29.203-.144.376-.346.174-.231.347-.636.26-.578.636-1.012.405-.462.81-.867.433-.433.838-.867.433-.433.751-.954.376-.173.78-.289.405-.144.781-.318.405-.173.723-.404.347-.232.578-.636-.03-1.04-.78-1.388-.752-.347-1.648-.347-.665 0-1.272.26-.578.26-1.243.26-.463 0-.867-.202-.405-.202-.867-.202-.29 0-.492.144-.173.116-.433.116-.232 0-.405-.058-.173-.086-.405-.086l-.173.144q-.029.145-.231.174-.203.028-.492.028-.404 0-.838-.028-.434-.058-.578-.058-1.012 0-1.677.722-.635.694-.635 1.677 0 .491.057.954.087.462.087.954 0 .404-.173.896-.145.462-.434.867-.26.376-.665.636-.376.26-.838.26-.52 0-1.012-.231-.462-.26-.867-.55v-.144q0-.29.116-.52.144-.26.289-.492.173-.26.289-.491.144-.26.144-.55 0-.317-.23-.549-.203-.23-.203-.549 0-.404.173-.78.174-.376.174-.78 0-.55-.203-1.041-.202-.492-.202-1.012 0-.173.202-.578.203-.405.492-.838.289-.434.578-.752t.462-.318q.29 0 .55.087.26.058.549.058.78 0 1.56-.145.81-.173 1.648-.173.665 0 1.33.029.694.029 1.358.029 1.446 0 2.804-.26 1.388-.29 2.804-.29.462 0 .896.058.462.03.925.03 1.04 0 2.081-.174 1.04-.174 2.081-.174.52 0 1.012.087.52.087.983.347v.029q-.116.26-.116.636 0 .26.087.462.115.202.231.376.116.173.202.347.116.173.116.376 0 .23-.405.838-.375.578-.896 1.3-.52.694-1.011 1.388-.463.694-.636 1.098-.145.347-.434.55-.26.202-.607.346-.318.116-.665.232-.347.115-.636.318-.404.289-.953.925-.55.635-1.041 1.387-.491.723-.838 1.474-.347.723-.347 1.214 0 .29.318.636.318.318.751.636.434.318.867.607.434.29.665.491.29.29.578.347.318.058.607.087.318.029.607.116.29.086.55.404.23.29.52.55.318.23.578.49.289.261.462.579.203.289.203.723h1.243v.838q.751.491.925.838.173.318.173.607v.202q0 .26.145.405.636.636.896 1.214.289.578.375 1.185.116.578.174 1.214.087.636.347 1.417.173.52.26 1.04.116.52.116 1.04zm-16.563-26.91q0-.174-.145-.29-.115-.144-.289-.144-.289 0-.375.346-.058.318-.058.52l.058-.115q.029.029.029.087 0 .029-.058.029.23 0 .52-.058.318-.087.318-.376z" aria-label="3" style="fill:#ffffff;stroke-width:3.69985" font-size="59.198" font-family="Special Elite" fill="#fff" stroke-width="3.7"/><path d="M254.163 189.757q0 .52-.145 1.127-.115.607-.549.954-.145.145-.29.405l-.23.52q-.087.26-.203.463-.086.202-.173.202-.116 0-.231-.029-.087-.058-.232-.086l-.202.115q-.347.434-.983.867-.636.405-1.358.752-.723.318-1.474.52-.723.202-1.272.202-.434 0-.723-.086-.289-.116-.491-.231-.174-.145-.318-.26-.116-.116-.29-.116-.346 0-.693.231-.318.202-.55.202-.144 0-.173-.144-.028-.174-.346-.29-.492-.173-1.099-.52-.578-.346-1.185-.693-.607-.376-1.156-.636-.55-.29-.925-.29-.116 0-.55-.375-.433-.376-1.04-.838-.607-.463-1.33-.838-.722-.376-1.445-.376-.81 0-1.272.491-.462.492-.693 1.185h-.26q-.376 0-.665.231-.29.232-.492.579-.173.346-.26.751-.087.376-.087.723 0 .491.058 1.011.087.492.087.983v.347q0 .173-.029.318-.347-.087-.723-.087-.375 0-.722.058-.347.087-.723.087-.578 0-.838-.347t-.434-.81q-.23-.577-.607-1.127-.375-.549-.78-1.098-.376-.55-.665-1.098-.26-.55-.26-1.128 0-.722.058-1.445.058-.723.058-1.474 0-.607.289-1.04.318-.434.664-.897.376-.462.665-1.04.318-.579.318-1.475 0-.23.116-.346.115-.145.26-.29.318-.26.752-.924.462-.665 1.011-1.475.55-.809 1.156-1.647.636-.838 1.301-1.445.174-.174.29-.232.115-.058.26-.058.144 0 .288.03.145.028.347.028.29 0 .405-.086.144-.087.202-.203.087-.144.145-.289.058-.144.231-.289.29-.231.78-.202.492.029.897-.145.289-.144.549-.318.26-.202.491-.375.26-.203.52-.347.29-.174.607-.26 1.07-.29 2.14-.752 1.069-.491 2.023-1.127.983-.665 1.792-1.474.81-.839 1.358-1.821.087-.174.26-.405.203-.231.376-.463.203-.26.318-.491.145-.26.145-.434 0-.173-.058-.318-.058-.173-.058-.346 0-.203.145-.29.144-.086.318-.173.289-.116.462-.376.202-.26.29-.549.115-.318.144-.665.058-.347.058-.636 0-.289-.058-.635-.03-.347-.145-.665-.087-.318-.289-.578-.202-.29-.491-.405-.087-.058-.26-.116-.145-.058-.145-.202 0-.116.058-.202.058-.116.058-.232 0-.202-.232-.404-.202-.232-.52-.434-.289-.231-.578-.433-.289-.232-.405-.463-.144-.231-.693-.55-.55-.346-1.214-.635-.636-.318-1.243-.52-.607-.232-.867-.232-1.012 0-1.937.376-.925.347-1.908.55-.694.144-1.85.288-1.156.116-2.254.434-1.07.318-1.88.925-.78.607-.78 1.676 0 .492.29.925.288.405.722.839.434.404.954.809t.954.867q.433.463.722.983.29.491.29 1.098 0 .752-.492 1.301-.462.52-1.156.867-.665.347-1.445.52-.752.145-1.359.145-.723 0-1.33-.202-.404-.116-.635-.145-.203-.058-.347-.115-.116-.087-.174-.26-.058-.203-.144-.636-.087-.492-.29-.868-.202-.404-.404-.78-.173-.405-.318-.81-.144-.433-.144-.982 0-.665.317-1.648.347-.983.839-1.994.491-1.012 1.04-1.88.578-.895 1.07-1.358.202-.202.318-.433.115-.26.231-.463.145-.23.347-.375.202-.145.607-.145h.52q.405 0 .665-.116.26-.115.405-.52.086-.26.404-.405.318-.144.694-.202.376-.058.752-.087.404-.028.635-.028.579-.03 1.099-.174.55-.144 1.098-.318.55-.173 1.07-.289.549-.144 1.127-.144l.463.028q2.428.116 4.046.405 1.619.29 2.833.983 1.214.694 2.226 1.937 1.011 1.242 2.283 3.237.29.491.492 1.098.23.578.751.954-.347.723-.433 1.503-.058.752-.116 1.532-.029.52-.145.925-.086.376-.23.723-.145.347-.348.694-.173.346-.375.809-.145.318-.203.55-.058.201-.144.404-.058.202-.203.376-.144.144-.491.317-.347.203-.491.463-.145.26-.232.55-.086.26-.231.52-.116.23-.462.346-.694.29-1.33.752-.607.462-1.214.954-.578.491-1.185.925-.607.433-1.33.607-.81.202-1.532.607-.722.404-1.416.838-.694.434-1.417.838-.693.405-1.503.607-.318.087-.52.26-.202.145-.347.376-.144.202-.289.434-.144.23-.347.433-.318.318-.607.405-.26.087-.549.144-.289.058-.607.232-.289.144-.636.636-.173.26-.462.404-.29.145-.55.29-.26.144-.462.346-.173.174-.173.52 0 .26-.145.463-.116.173-.26.376-.145.173-.29.376-.115.173-.115.404 0 .145.058.347.058.202.231.434.203.202.52.346.319.145.839.145t1.04-.087q.52-.086 1.041-.086.434 0 .81.144.404.116.78.26l.751.29q.376.115.752.115.723 0 .954-.78.115.057.173.317.058.26.087.55l.116.52q.057.231.144.231.202-.115.29-.376.086-.289.375-.289.173 0 .318.174.173.173.347.376.202.202.433.375.26.174.607.174.578 0 1.243.462.694.434 1.417.983.722.52 1.445.983.751.433 1.445.433.752 0 1.243-.318.52-.346.925-.838.405-.491.723-1.07.346-.606.722-1.098.376-.491.867-.809.492-.347 1.185-.347 1.099 0 1.417.578.347.55.347 1.503zm-8.845-32.576h-1.243q.115 0 .115.145 0 .144-.086.26-.058-.058-.058-.145v-.029q.029 0 .029-.029v-.202l-.03.405q-.057.433.145.81.203.375.694.433.087-.347.26-.665.203-.318.203-.694z" fill="#000" aria-label="2" style="fill:#000000;stroke-width:3.69985" font-size="59.198" font-family="Special Elite" stroke-width="3.7"/><path d="M63.685 245.298q0 .954-.058 1.358-.058.376-.26.55-.173.173-.52.317-.347.116-.925.55.607.78.607 1.734 0 1.012-.607 1.85-.578.81-1.388 1.387-.751.52-1.156 1.301-.376.752-.751 1.56-1.157.03-2.11.463-.925.434-1.822 1.099-.462.318-.924.433-.463.116-.983.116t-1.07-.058q-.52-.058-1.04-.058-.925 0-1.85.26-.896.29-1.821.29-.463 0-1.185-.145-.723-.116-1.475-.318-.751-.173-1.474-.405-.693-.23-1.127-.433-.896-.405-1.677-1.04-.751-.637-1.618-1.041-.405-1.07-1.012-2.024-.578-.982-1.474-1.676.202-.434.26-.867.087-.463.087-.954 0-.838-.174-1.677-.144-.867-.144-1.705 0-1.445.78-2.63l.26.028q.492 0 .925-.173.463-.202.954-.202.723 0 1.388.23.693.232 1.185.666.52.404.81 1.04.317.607.317 1.388 0 .26-.058.751-.058.463-.23.925-.145.463-.406.81-.26.318-.636.318-.23 0-.433-.116-.202-.145-.347-.318 0 .347.058.983t.202 1.272q.174.607.463 1.07.289.462.751.433l.723-.03h.202q.896 0 1.821.203.954.202 1.966.202.81 0 1.59.116t1.59.116q1.069 0 1.994-.29.925-.288 1.734-.78.81-.52 1.532-1.156.752-.636 1.474-1.33.318-.318.318-.607 0-.144-.029-.289-.029-.144-.029-.289 0-.376.347-.81.347-.433.752-.982.404-.55.751-1.214.347-.665.347-1.503 0-.665-.202-1.3-.174-.666-.174-1.388 0-.578-.289-1.04-.26-.463-.607-.897-.318-.462-.607-.925-.26-.462-.26-1.011v-.232q0-.115.058-.26-.694-.173-1.619-.52-.896-.347-1.82-.694-.897-.347-1.706-.607-.81-.289-1.243-.289-1.098 0-2.168.231-1.07.232-2.168.232 0-.116.202-.203.232-.115.52-.231.29-.145.521-.29.231-.144.231-.346 0-.231-.404-.405-.376-.173-.55-.173-.318 0-.578.145-.26.115-.52.289-.26.173-.55.318-.26.115-.548.115-.232 0-.434-.115-.202-.145-.347-.347v.289q0 .491.29.722.288.232.78.232h.173q-.347.549-.751.953-.405.376-1.099.376-.491 0-.954-.029-.433-.057-.925-.057.116-1.07.665-2.255.578-1.214 1.388-2.313.838-1.127 1.763-2.08.954-.983 1.792-1.62.318-.26.55-.375.23-.145.404-.29.202-.144.376-.346.173-.231.346-.636.26-.578.636-1.012.405-.462.81-.867.433-.433.838-.867.434-.434.752-.954.375-.173.78-.289.405-.144.78-.318.405-.173.723-.404.347-.232.578-.636-.029-1.041-.78-1.388-.752-.347-1.648-.347-.665 0-1.272.26-.578.26-1.243.26-.462 0-.867-.202-.404-.202-.867-.202-.289 0-.491.144-.174.116-.434.116-.231 0-.405-.058-.173-.086-.404-.086l-.174.144q-.029.145-.23.174-.203.028-.492.028-.405 0-.839-.028-.433-.058-.578-.058-1.011 0-1.676.722-.636.694-.636 1.677 0 .491.058.954.086.462.086.954 0 .404-.173.896-.145.462-.434.867-.26.376-.664.636-.376.26-.839.26-.52 0-1.011-.231-.463-.26-.867-.55v-.144q0-.29.115-.52.145-.26.29-.492.173-.26.288-.491.145-.26.145-.55 0-.317-.231-.549-.203-.23-.203-.549 0-.404.174-.78.173-.376.173-.78 0-.55-.202-1.041-.203-.492-.203-1.012 0-.173.203-.578.202-.405.491-.838.29-.434.578-.752.29-.318.463-.318.289 0 .549.087.26.058.55.058.78 0 1.56-.145.81-.173 1.648-.173.664 0 1.33.029.693.029 1.358.029 1.445 0 2.804-.26 1.387-.29 2.803-.29.463 0 .896.058.463.03.925.03 1.04 0 2.082-.174 1.04-.174 2.08-.174.521 0 1.012.087.52.087.983.347v.029q-.115.26-.115.636 0 .26.086.462.116.202.231.376.116.173.203.347.115.173.115.375 0 .232-.404.839-.376.578-.896 1.3-.52.694-1.012 1.388-.462.694-.636 1.098-.144.347-.433.55-.26.202-.607.346-.318.116-.665.232-.347.115-.636.318-.405.289-.954.925-.55.635-1.04 1.387-.492.723-.839 1.474-.347.723-.347 1.214 0 .29.318.636.318.318.752.636.433.318.867.607.433.289.665.491.289.29.578.347.318.058.607.087.318.029.607.116.289.086.549.404.231.29.52.55.318.23.578.49.29.26.463.579.202.289.202.723h1.243v.838q.752.491.925.838.174.318.174.607v.202q0 .26.144.405.636.636.896 1.214.29.578.376 1.185.116.578.173 1.214.087.636.347 1.417.174.52.26 1.04.116.52.116 1.04zm-16.563-26.91q0-.174-.144-.29-.116-.145-.29-.145-.288 0-.375.347-.058.318-.058.52l.058-.115q.029.029.029.087 0 .029-.058.029.231 0 .52-.058.318-.087.318-.376z" fill="#000" aria-label="3" style="fill:#000000;stroke-width:3.69985" font-size="59.198" font-family="Special Elite" stroke-width="3.7"/><path d="M189.796 250.522q0 .52-.145 1.127-.116.607-.55.954-.144.145-.288.405l-.231.52q-.087.26-.203.463-.087.202-.173.202-.116 0-.231-.029-.087-.058-.232-.087l-.202.116q-.347.434-.983.867-.636.405-1.358.752-.723.318-1.475.52-.722.202-1.271.202-.434 0-.723-.086-.29-.116-.491-.232-.174-.144-.318-.26-.116-.115-.29-.115-.346 0-.693.23-.318.203-.55.203-.144 0-.173-.144-.029-.174-.347-.29-.491-.173-1.098-.52-.578-.347-1.185-.693-.607-.376-1.156-.636-.55-.29-.925-.29-.116 0-.55-.375-.433-.376-1.04-.838-.607-.463-1.33-.839-.722-.375-1.445-.375-.81 0-1.272.491-.462.491-.694 1.185h-.26q-.375 0-.664.231-.29.232-.492.578-.173.347-.26.752-.087.376-.087.723 0 .491.058 1.011.087.492.087.983v.347q0 .173-.03.318-.346-.087-.722-.087-.375 0-.722.058-.347.087-.723.087-.578 0-.838-.347t-.434-.81q-.231-.578-.607-1.127t-.78-1.098q-.376-.55-.665-1.099-.26-.549-.26-1.127 0-.723.058-1.445.057-.723.057-1.474 0-.607.29-1.04.317-.434.664-.897.376-.462.665-1.04.318-.579.318-1.475 0-.231.116-.347.115-.144.26-.289.318-.26.751-.925.463-.664 1.012-1.474.55-.81 1.156-1.647.636-.839 1.3-1.446.174-.173.29-.23.116-.059.26-.059.145 0 .29.03.144.028.346.028.29 0 .405-.087.144-.086.202-.202.087-.144.145-.289.057-.144.23-.289.29-.231.781-.202.492.029.896-.145.29-.144.55-.318.26-.202.49-.376.261-.202.521-.346.29-.174.607-.26 1.07-.29 2.14-.752 1.069-.491 2.023-1.127.982-.665 1.792-1.475.809-.838 1.358-1.82.087-.174.26-.405.203-.231.376-.463.202-.26.318-.491.145-.26.145-.434 0-.173-.058-.318-.058-.173-.058-.347 0-.202.145-.289.144-.086.317-.173.29-.116.463-.376.202-.26.289-.549.116-.318.145-.665.057-.347.057-.636 0-.289-.057-.636-.03-.346-.145-.664-.087-.318-.289-.579-.202-.289-.491-.404-.087-.058-.26-.116-.145-.058-.145-.202 0-.116.058-.202.058-.116.058-.232 0-.202-.232-.404-.202-.232-.52-.434-.29-.231-.578-.434-.29-.23-.405-.462-.144-.231-.694-.55-.549-.346-1.214-.635-.635-.318-1.242-.52-.607-.232-.868-.232-1.011 0-1.936.376-.925.347-1.908.55-.694.144-1.85.288-1.156.116-2.255.434-1.069.318-1.878.925-.78.607-.78 1.676 0 .492.288.925.29.405.723.839.433.404.954.809.52.405.954.867.433.463.722.983.29.491.29 1.098 0 .752-.492 1.301-.463.52-1.156.867-.665.347-1.446.52-.751.145-1.358.145-.723 0-1.33-.202-.404-.116-.636-.145-.202-.058-.346-.116-.116-.086-.174-.26-.058-.202-.144-.636-.087-.491-.29-.867-.202-.404-.404-.78-.174-.405-.318-.81-.145-.433-.145-.982 0-.665.318-1.648.347-.983.839-1.994.49-1.012 1.04-1.88.578-.895 1.07-1.358.202-.202.318-.433.115-.26.23-.463.145-.231.348-.376.202-.144.607-.144h.52q.405 0 .665-.116.26-.115.404-.52.087-.26.405-.405.318-.144.694-.202.376-.058.751-.087.405-.029.636-.029.578-.029 1.099-.173.549-.145 1.098-.318.55-.173 1.07-.289.549-.145 1.127-.145l.462.03q2.428.115 4.047.404 1.619.29 2.833.983 1.214.694 2.225 1.936 1.012 1.243 2.284 3.238.289.491.491 1.098.232.578.752.954-.347.723-.434 1.503l-.115 1.532q-.03.52-.145.925-.087.376-.231.723-.145.347-.347.693-.173.347-.376.81-.144.318-.202.549-.058.202-.145.405-.057.202-.202.375-.144.145-.491.318-.347.203-.492.463-.144.26-.23.549-.088.26-.232.52-.116.232-.463.347-.693.29-1.33.752-.606.462-1.213.954-.578.491-1.185.925-.607.433-1.33.607-.81.202-1.532.607-.723.404-1.416.838-.694.433-1.417.838-.693.405-1.503.607-.318.087-.52.26-.202.145-.347.376-.144.202-.289.434-.144.23-.347.433-.318.318-.607.405-.26.087-.549.144-.29.058-.607.232-.29.144-.636.636-.173.26-.462.404-.29.145-.55.29-.26.144-.462.346-.174.174-.174.52 0 .26-.144.463-.116.173-.26.376-.145.173-.29.375-.115.174-.115.405 0 .145.058.347.058.202.231.434.203.202.52.346.318.145.839.145.52 0 1.04-.087t1.04-.087q.434 0 .81.145.405.116.78.26l.752.29q.376.115.752.115.722 0 .954-.78.115.057.173.317.058.26.087.55l.115.52q.058.231.145.231.202-.116.289-.376.087-.289.376-.289.173 0 .318.174.173.173.347.375.202.203.433.376.26.174.607.174.578 0 1.243.462.694.434 1.416.983.723.52 1.446.983.751.433 1.445.433.751 0 1.243-.318.52-.347.925-.838.404-.491.722-1.07.347-.606.723-1.098.376-.491.867-.81.492-.346 1.185-.346 1.099 0 1.417.578.346.55.346 1.503zm-8.845-32.576h-1.243q.115 0 .115.144 0 .145-.086.26-.058-.057-.058-.144v-.029q.029 0 .029-.029v-.202l-.03.405q-.057.433.145.809.203.376.694.434.087-.347.26-.665.202-.318.202-.694z" fill="#000" aria-label="2" style="fill:#000000;stroke-width:3.69985" font-size="59.198" font-family="Special Elite" stroke-width="3.7"/><path d="M125.122 245.475q0 .953-.058 1.358-.058.376-.26.55-.174.173-.52.317-.348.116-.926.55.607.78.607 1.734 0 1.011-.607 1.85-.578.809-1.387 1.387-.752.52-1.156 1.3-.376.752-.752 1.562-1.156.029-2.11.462-.925.434-1.82 1.099-.463.318-.926.433-.462.116-.983.116-.52 0-1.07-.058-.52-.058-1.04-.058-.925 0-1.85.26-.896.29-1.82.29-.463 0-1.186-.145-.722-.116-1.474-.318-.751-.174-1.474-.405-.694-.231-1.127-.433-.896-.405-1.677-1.04-.751-.637-1.619-1.041-.404-1.07-1.011-2.024-.578-.983-1.474-1.676.202-.434.26-.868.086-.462.086-.953 0-.839-.173-1.677-.145-.867-.145-1.705 0-1.446.78-2.63l.261.028q.491 0 .925-.173.462-.202.954-.202.723 0 1.387.23.694.232 1.185.666.52.404.81 1.04.318.607.318 1.388 0 .26-.058.751-.058.463-.231.925-.145.463-.405.81-.26.317-.636.317-.231 0-.433-.115-.203-.145-.347-.318 0 .347.057.983.058.635.203 1.271.173.607.462 1.07.29.462.752.433l.722-.028h.203q.896 0 1.82.202.955.202 1.966.202.81 0 1.59.116.78.115 1.59.115 1.07 0 1.994-.289.925-.289 1.735-.78.809-.52 1.532-1.156.751-.636 1.474-1.33.318-.318.318-.607 0-.144-.03-.289-.028-.144-.028-.289 0-.376.347-.81.347-.433.751-.982.405-.55.752-1.214.347-.665.347-1.503 0-.665-.203-1.3-.173-.666-.173-1.388 0-.578-.29-1.04-.26-.463-.606-.897-.318-.462-.607-.925-.26-.462-.26-1.012v-.23q0-.116.058-.261-.694-.173-1.62-.52-.895-.347-1.82-.694-.896-.347-1.706-.607-.809-.29-1.242-.29-1.099 0-2.168.232-1.07.231-2.168.231 0-.115.202-.202.231-.116.52-.231.29-.145.52-.29.232-.144.232-.346 0-.231-.405-.405-.375-.173-.549-.173-.318 0-.578.144-.26.116-.52.29-.26.173-.55.317-.26.116-.549.116-.231 0-.433-.116-.203-.144-.347-.347v.29q0 .49.289.722.289.231.78.231h.174q-.347.55-.752.954-.404.376-1.098.376-.492 0-.954-.029-.434-.058-.925-.058.116-1.07.665-2.254.578-1.214 1.387-2.313.839-1.127 1.763-2.08.954-.984 1.793-1.62.318-.26.549-.375.231-.145.404-.29.203-.144.376-.346.174-.231.347-.636.26-.578.636-1.012.405-.462.81-.867.433-.434.838-.867.433-.434.751-.954.376-.173.78-.289.405-.145.781-.318.405-.173.723-.405.347-.23.578-.636-.03-1.04-.78-1.387-.752-.347-1.648-.347-.665 0-1.272.26-.578.26-1.243.26-.463 0-.867-.202-.405-.202-.867-.202-.29 0-.492.144-.173.116-.433.116-.232 0-.405-.058-.173-.087-.405-.087l-.173.145q-.029.144-.231.173-.203.03-.492.03-.404 0-.838-.03-.434-.057-.578-.057-1.012 0-1.677.722-.635.694-.635 1.677 0 .491.057.954.087.462.087.953 0 .405-.173.896-.145.463-.434.868-.26.375-.665.636-.376.26-.838.26-.52 0-1.012-.232-.462-.26-.867-.549v-.144q0-.29.116-.52.144-.26.289-.492.173-.26.289-.491.144-.26.144-.55 0-.318-.23-.549-.203-.231-.203-.549 0-.405.173-.78.174-.376.174-.78 0-.55-.203-1.041-.202-.492-.202-1.012 0-.174.202-.578.203-.405.492-.838.289-.434.578-.752t.462-.318q.29 0 .55.087.26.058.549.058.78 0 1.56-.145.81-.173 1.648-.173.665 0 1.33.029.694.028 1.358.028 1.446 0 2.804-.26 1.388-.289 2.804-.289.462 0 .896.058.462.029.925.029 1.04 0 2.081-.174 1.04-.173 2.081-.173.52 0 1.012.087.52.086.983.347v.029q-.116.26-.116.635 0 .26.087.463.115.202.231.376.116.173.202.347.116.173.116.375 0 .232-.405.839-.375.578-.896 1.3-.52.694-1.011 1.388-.463.693-.636 1.098-.145.347-.434.55-.26.202-.607.346-.318.116-.665.231-.347.116-.636.318-.404.29-.953.925-.55.636-1.041 1.388-.491.722-.838 1.474-.347.723-.347 1.214 0 .289.318.636.318.318.751.636.434.318.867.607.434.289.665.491.29.29.578.347.318.058.607.087.318.029.607.115.29.087.55.405.23.29.52.55.318.23.578.49.289.26.462.579.203.289.203.722h1.243v.839q.751.491.925.838.173.318.173.607v.202q0 .26.145.405.636.636.896 1.214.289.578.375 1.185.116.578.174 1.214.087.636.347 1.416.173.52.26 1.04.116.521.116 1.042zm-16.563-26.911q0-.174-.145-.29-.115-.144-.289-.144-.289 0-.375.347-.058.318-.058.52l.058-.115q.028.029.028.087 0 .028-.057.028.23 0 .52-.057.318-.087.318-.376z" aria-label="3" style="fill:#ffffff;stroke-width:3.69985" font-size="59.198" font-family="Special Elite" fill="#fff" stroke-width="3.7"/><path d="M251.788 254.485q0 .318-.115.607-.116.29-.26.579-.29.549-.55.867-.23.318-.491.462-.26.174-.578.203-.29.057-.694.057h-.983q-.23.087-.433.087-.26 0-.347-.231-.058-.203-.058-.463v-.26q.029-.144.029-.231 0-.231-.087-.405-.057-.173-.318-.173-.433 0-.693.26-.232.231-.463.52-.202.29-.462.52-.26.26-.752.26-.578 0-1.156-.173-.55-.173-1.127-.231-1.185-.087-2.37-.116l-2.37-.057q-1.157-.058-2.342-.174-1.156-.115-2.312-.376-.26-.057-.52-.086-.26-.03-.492-.03-1.185 0-2.341.26-1.128.232-2.544.232-.954 0-1.908.203-.954.202-1.908.202-.462 0-1.07-.174-.606-.202-1.184-.52-.55-.318-.954-.78-.376-.463-.376-.983 0-.376.347-.78.376-.434.867-.81.492-.405.983-.723.52-.346.81-.549 1.762.232 3.526.52 1.763.29 3.555.29 1.098 0 1.734-.26.665-.29.983-.752.347-.491.434-1.127.115-.665.115-1.417 0-.433-.029-.867v-.925q0-4.509.232-8.96.26-4.48.26-8.99 0-2.226-.116-4.422-.087-2.197-.404-4.394-.405-.087-.78-.173-.348-.087-.84-.087-.144 0-.144.029-.115-.116-.289-.116-.144-.029-.289-.029-.665 0-1.272.203-.607.173-1.243.173-.173 0-.289-.058-.086-.058-.202-.144-.087-.087-.231-.145-.116-.058-.318-.058-.954 0-1.908.203-.954.202-1.937.202-.693 0-1.387-.202-.665-.203-1.214-.636.202-.434.202-1.04 0-.463-.086-.897-.087-.462-.116-.925.202.087.434.087.433 0 .809-.202.405-.232.78-.492.376-.289.78-.491.406-.231.84-.231.866 0 1.704.26.868.26 1.735.26.491 0 .838-.174.347-.202.607-.202.29 0 .434.174.173.173.491.173.462 0 .925-.173.491-.174.954-.347.462-.203.954-.376.491-.174 1.011-.174.723 0 1.417.174.722.173 1.416.173.376 0 .723-.086h.029q-.058.144-.058.462 0 .405.115.723.145.318.29.665.173.346.289.838.144.491.144 1.243 0 1.3.058 2.572.058 1.243.058 2.544 0 .665-.116 1.3-.087.608-.376 1.186.26.231.318.549.087.289.087.636v.462q0 .318.058.665.086.347.376.578l.028.318q0 .376-.144.665-.116.29-.26.55l-.29.52q-.115.26-.115.578 0 .664.173 1.358.203.665.203 1.417 0 .925-.116 1.85-.115.896-.26 1.82-.144.897-.26 1.822-.116.896-.116 1.82 0 .232-.086.376-.058.145-.203.145-.029 0-.202-.058 0 .752.116 1.503l.23 1.503q.145.723.26 1.474.117.752.117 1.532v.405l-.03.405q0 1.532 1.012 2.254 1.012.723 2.486.723.983 0 1.474-.174.52-.202.752-.433.26-.231.405-.405.144-.202.433-.202.838 0 1.706.202.896.174 1.734.26.433.058.867.058t.838.087q.405.058.752.231.347.174.636.607l.636.954q.375.52.375 1.07z" aria-label="1" style="fill:#ffffff;stroke-width:3.69985" font-size="59.198" font-family="Special Elite" fill="#fff" stroke-width="3.7"/><path d="M131.623 314.452q0 .318-.116.607-.115.29-.26.578-.289.55-.55.867-.23.318-.49.463-.26.173-.579.202-.289.058-.693.058h-.983q-.231.087-.434.087-.26 0-.346-.231-.058-.203-.058-.463v-.26q.029-.145.029-.231 0-.232-.087-.405-.058-.173-.318-.173-.434 0-.694.26-.231.231-.462.52-.203.29-.463.52-.26.26-.751.26-.578 0-1.156-.173-.55-.173-1.128-.231-1.185-.087-2.37-.116l-2.37-.058q-1.156-.057-2.342-.173-1.156-.116-2.312-.376-.26-.058-.52-.087-.26-.028-.492-.028-1.185 0-2.34.26-1.128.231-2.545.231-.953 0-1.907.202-.954.203-1.908.203-.463 0-1.07-.174-.607-.202-1.185-.52-.549-.318-.954-.78-.375-.463-.375-.983 0-.376.347-.78.375-.434.867-.81.491-.405.983-.723.52-.347.809-.549 1.763.231 3.526.52 1.763.29 3.556.29 1.098 0 1.734-.26.665-.29.983-.752.347-.492.433-1.128.116-.664.116-1.416 0-.433-.029-.867v-.925q0-4.51.231-8.96.26-4.48.26-8.99 0-2.226-.115-4.423-.087-2.196-.405-4.393-.405-.087-.78-.174-.347-.086-.839-.086-.144 0-.144.029-.116-.116-.29-.116-.144-.029-.288-.029-.665 0-1.272.202-.607.174-1.243.174-.173 0-.289-.058-.087-.058-.202-.144-.087-.087-.232-.145-.115-.058-.318-.058-.953 0-1.907.203-.954.202-1.937.202-.694 0-1.387-.202-.665-.203-1.214-.636.202-.434.202-1.041 0-.462-.087-.896-.086-.462-.115-.925.202.087.433.087.434 0 .81-.203.404-.23.78-.491.376-.289.78-.491.405-.232.839-.232.867 0 1.705.26.867.26 1.734.26.492 0 .839-.173.346-.202.607-.202.289 0 .433.173.174.174.492.174.462 0 .925-.174.49-.173.953-.347.463-.202.954-.375.492-.174 1.012-.174.723 0 1.416.174.723.173 1.417.173.375 0 .722-.087h.03q-.059.145-.059.463 0 .405.116.723.145.318.29.664.172.347.288.839.145.491.145 1.243 0 1.3.057 2.572.058 1.243.058 2.544 0 .665-.115 1.3-.087.607-.376 1.186.26.23.318.549.087.289.087.636v.462q0 .318.057.665.087.347.376.578l.029.318q0 .376-.145.665-.115.289-.26.55l-.289.52q-.115.26-.115.577 0 .665.173 1.359.202.665.202 1.416 0 .925-.115 1.85-.116.896-.26 1.821-.145.896-.26 1.821-.116.896-.116 1.821 0 .232-.087.376-.058.145-.202.145-.03 0-.203-.058 0 .751.116 1.503l.231 1.503q.145.723.26 1.474.116.752.116 1.532v.405l-.029.404q0 1.532 1.012 2.255 1.012.723 2.486.723.983 0 1.474-.174.52-.202.751-.433.26-.232.405-.405.145-.202.434-.202.838 0 1.705.202.896.173 1.734.26.434.058.868.058.433 0 .838.087.404.057.751.23.347.174.636.608.29.433.636.954.376.52.376 1.07z" fill="#000" aria-label="1" style="fill:#000000;stroke-width:3.69985" font-size="59.198" font-family="Special Elite" stroke-width="3.7"/><path d="M68.568 315.099q0 .318-.116.607-.116.29-.26.578-.29.55-.55.867-.23.318-.49.463-.26.173-.579.202-.289.058-.694.058h-.982q-.232.087-.434.087-.26 0-.347-.232-.058-.202-.058-.462v-.26q.03-.145.03-.231 0-.232-.087-.405-.058-.174-.318-.174-.434 0-.694.26-.231.232-.463.52-.202.29-.462.521-.26.26-.752.26-.578 0-1.156-.173-.549-.174-1.127-.231-1.185-.087-2.37-.116l-2.37-.058q-1.157-.058-2.342-.173-1.156-.116-2.312-.376-.26-.058-.52-.087-.26-.029-.492-.029-1.185 0-2.341.26-1.128.232-2.544.232-.954 0-1.908.202-.953.202-1.907.202-.463 0-1.07-.173-.607-.202-1.185-.52-.55-.318-.954-.78-.376-.463-.376-.983 0-.376.347-.78.376-.434.867-.81.492-.405.983-.723.52-.347.81-.55 1.763.232 3.526.521 1.763.29 3.555.29 1.099 0 1.735-.26.664-.29.982-.752.347-.492.434-1.128.116-.665.116-1.416 0-.434-.03-.867v-.925q0-4.51.232-8.96.26-4.481.26-8.99 0-2.226-.116-4.423-.086-2.197-.404-4.393-.405-.087-.78-.174-.348-.086-.839-.086-.144 0-.144.028-.116-.115-.29-.115-.144-.03-.289-.03-.664 0-1.271.203-.607.174-1.243.174-.174 0-.29-.058-.086-.058-.202-.145-.086-.086-.23-.144-.117-.058-.319-.058-.954 0-1.908.202-.953.203-1.936.203-.694 0-1.388-.203-.665-.202-1.214-.636.203-.433.203-1.04 0-.463-.087-.896-.087-.463-.116-.925.203.087.434.087.433 0 .81-.203.404-.231.78-.491.375-.29.78-.492.405-.23.838-.23.867 0 1.706.26.867.26 1.734.26.491 0 .838-.174.347-.202.607-.202.29 0 .434.173.173.174.491.174.463 0 .925-.174.492-.173.954-.347.463-.202.954-.375.491-.174 1.012-.174.722 0 1.416.174.723.173 1.416.173.376 0 .723-.087h.029q-.058.145-.058.463 0 .404.116.722.144.318.289.665.173.347.289.838.144.492.144 1.243 0 1.301.058 2.573.058 1.243.058 2.544 0 .664-.116 1.3-.086.607-.375 1.185.26.232.318.55.086.289.086.636v.462q0 .318.058.665.087.347.376.578l.029.318q0 .376-.145.665-.115.289-.26.549l-.289.52q-.116.26-.116.578 0 .665.174 1.359.202.665.202 1.416 0 .925-.115 1.85-.116.896-.26 1.821-.145.896-.26 1.821-.116.896-.116 1.821 0 .231-.087.376-.058.144-.202.144-.03 0-.203-.057 0 .751.116 1.503l.231 1.503q.145.722.26 1.474.116.751.116 1.532v.405l-.03.404q0 1.532 1.013 2.255 1.011.723 2.485.723.983 0 1.475-.174.52-.202.751-.434.26-.23.405-.404.144-.203.433-.203.839 0 1.706.203.896.173 1.734.26.434.058.867.058.434 0 .838.086.405.058.752.232.347.173.636.607l.636.954q.376.52.376 1.07z" aria-label="1" style="fill:#ffffff;stroke-width:3.69985" font-size="59.198" font-family="Special Elite" fill="#fff" stroke-width="3.7"/><path d="M192.286 315.525q-.231-.029-.433-.144-.203-.145-.434-.145-.145 0-.231.087-.058.086-.116.202-.116.174-.694.29-.549.115-1.243.173-.664.057-1.3.086h-.867q-.607 0-1.214-.115-.607-.116-1.157-.405-.375.231-.954.231h-.318q-.144-.029-.289-.029-.49 0-.838.232-.318.23-.665.23-.26 0-.491-.086-.231-.116-.434-.231-.202-.145-.404-.26-.174-.116-.347-.116-.174 0-.318.116-.116.115-.231.289l-.174.347q-.058.173-.115.289-.116-.232-.376-.26-.26-.058-.55-.058-.26-.03-.49-.087-.203-.087-.232-.405h-.231q-.087 0-.26-.029-.174-.057-.174-.202 0-.318.145-.55.173-.26.173-.548 0-.145-.058-.318l-.289-.03q-.375 0-.607.203-.202.203-.375.492-.174.26-.347.549-.145.289-.434.433-.491 0-.954.174-.462.144-.954.144-.318 0-.664-.115-.318-.145-.607-.347-.29-.231-.463-.52-.173-.318-.173-.665 0-.434.173-.839.202-.404.491-.693.636-.636 1.417-.81.78-.202 1.59-.23.809-.059 1.56-.145.78-.116 1.359-.607.607-.52.954-1.59.376-1.07.376-3.093v-.983q-.607.087-1.272.087-1.532 0-3.035-.26-1.474-.26-3.035-.26-.81 0-1.59.202t-1.59.202q-.81 0-1.619-.115-.78-.145-1.59-.145-.404 0-.78.116-.376.086-.722.231-.347.116-.636.231-.29.087-.492.087-.433 0-.982-.058-.52-.058-1.012-.231-.463-.173-.838-.491-.347-.318-.463-.868-.115-.491-.318-1.011-.202-.52-.202-1.04 0-.116.115-.348.116-.26.232-.607.144-.347.26-.751.115-.434.115-.867 0-.29.116-.665.145-.405.347-.78.202-.405.434-.752.23-.347.433-.55.174-.173.376-.26.202-.086.433-.144.232-.087.434-.145.231-.086.405-.26.231-.202.375-.462.174-.29.318-.55.174-.288.347-.549.174-.26.434-.433.173-.145.433-.29.29-.173.29-.433 0-.231-.087-.462-.087-.232-.087-.463v-.231q0-.116.029-.26.636-.174 1.07-.52.433-.347.751-.78.347-.434.607-.926.29-.52.636-1.012.636-.982 1.445-1.792.838-.809 1.706-1.56.52-.434.809-.983.318-.55.636-1.07t.722-.954q.405-.462 1.099-.693-.116-.29-.116-.492 0-.433.29-.722.288-.29.606-.55.55-.462.839-.867.318-.404.607-.78.318-.405.722-.78.405-.376 1.156-.752.52-.26.607-.55.087-.288.116-.52.058-.26.231-.404.174-.174.839-.174.693 0 1.33.203.664.173 1.155.549.492.347.78.925.319.549.319 1.3 0 .665-.174 1.33-.173.636-.173 1.3 0 .492.116.984.144.491.144.982 0 .925-.751 1.475.144.173.346.982.232.78.434 1.706.202.925.347 1.792.144.838.144 1.098 0 .52-.23 1.012-.203.462-.203.954 0 .549.144 1.07.145.52.145 1.069 0 .954-.116 1.907-.115.925-.115 1.88v.895q.028.463.144.896.145.434.405.78.26.319.751.463.78.232 1.706.376.954.116 1.85.202.925.087 1.734.203.81.086 1.3.26.203.087.348.318.144.202.23.491.087.29.116.607.03.29.03.492v.173l-.03.578q-.23-.058-.404-.058-.347 0-.607.116-.232.116-.434.29-.202.144-.347.288-.144.116-.289.116-.173-.318-.376-.607-.173-.318-.404-.578-.318.173-.376.491l-.058.578q0 .29-.115.492-.087.202-.463.202-.55 0-1.07-.058-.52-.087-1.04-.087-1.358 0-2.052.607-.665.607-.665 1.995 0 .78.26 1.474.29.694.607 1.243.318.52.578.867.26.347.26.434.376-.232.925-.232.405 0 .752.087.376.058.751.058.492 0 .868-.26.375-.26.607-.26.491 0 .953.173.463.145.925.26 0 .174.174.29.173.115.376.26.23.115.404.288.203.145.203.434 0 .231-.03.434-.028.202-.028.433 0 .376.144.694.174.318.203.694zm-11.446-30.668q0-.174-.26-.492l-.347-.52q-.232-.376-.376-.78-.116-.405-.29-.723-.173-.347-.49-.55-.29-.23-.868-.23l.058.318q-.578.346-.983.867-.404.491-.751.982-.347.492-.723.925-.376.434-.896.607v.26q0 .55-.202.983-.174.434-.492.81-.318.347-.722.665-.405.289-.81.549-.346.231-.549.52l-.347.578q-.144.29-.318.55-.173.26-.52.433-.376.202-.491.347-.116.115-.145.26-.029.144-.058.347 0 .173-.115.462-.203.405-.463.81-.26.375-.433.78-.232.491-.52.838-.26.347-.608.636-.318.29-.664.578-.318.29-.607.694-.145.202-.463.723-.318.52-.636 1.127t-.578 1.127q-.231.52-.231.723 0 .289.202.462.231.174.578.29.376.086.81.144.462.029.953.029 1.157 0 1.908-.058.752-.058.896-.058.578 0 1.156.116.608.087.983.549.145.173.29.376.173.202.433.202.173 0 .289-.087.116-.115.318-.202.231-.116.607-.202.405-.116 1.127-.116.203 0 .607-.115.434-.145.867-.318.463-.174.896-.347.463-.174.752-.232l.925-3.006q.491-1.532.491-3.15 0-.723-.115-1.417-.087-.722-.087-1.474 0-.405.087-.78.115-.405.202-.78.116-.405.202-.781.116-.405.116-.81 0-.404-.145-.78-.144-.376-.144-.78 0-.26.087-.52.115-.29.23-.521.145-.26.261-.462.116-.203.116-.376zm1.59 23.789q-.145-.232-.405-.318-.26-.087-.52-.087l-.318.173q.028.203.173.376.144.174.144.376.232 0 .579-.116.346-.115.346-.404zm-14.916-13.933q0-.173-.144-.289-.116-.144-.26-.144-.318 0-.376.318-.058.318-.058.549.202 0 .52-.058t.318-.376z" aria-label="4" style="fill:#ffffff;stroke-width:3.69985" font-size="59.198" font-family="Special Elite" fill="#fff" stroke-width="3.7"/><path d="M253.28 299.743q0 .318-.174.52-.144.174-.433.174-.29 0-.55-.116-.26-.144-.578-.144l-.115.173q-.03.087-.03.202 0 .203.145.232.174 0 .347.029.174 0 .318.086.174.087.174.405 0 .318-.087.983t-.26 1.387q-.145.723-.347 1.33-.174.607-.376.81-.26.288-.405.548-.144.232-.115.607l.029.752q.029.491-.145.78-.144.26-.347.492-.173.202-.318.404-.144.174-.144.463 0 .144.029.231-.376-.144-.752-.231-.376-.116-.78-.116-.434 0-.78.174-.348.173-.55.578 0 .144.058.289.058.144.231.144.29 0 .52-.23.232-.232.52-.232.203 0 .26.202.059.203.059.347 0 .376-.116.636t-.55.26q-.26 0-.52-.058-.23-.057-.49-.057l-.232.173q.173.491.665.578-.694.78-1.619 1.59-.896.81-1.937 1.474-1.04.665-2.167 1.098-1.128.405-2.197.405-.694 0-1.908-.202-1.185-.203-2.457-.492-1.272-.318-2.428-.693-1.127-.405-1.705-.81-.376-.26-.434-.433-.029-.174-.058-.29-.029-.144-.173-.26-.145-.144-.694-.288-1.214-.347-1.763-.839-.55-.491-.78-1.011-.232-.55-.29-1.041-.057-.52-.318-.867-.26-.347-.549-.723-.289-.376-.549-.78-.26-.405-.434-.81-.173-.433-.173-.896 0-.346.26-.549.29-.231.29-.491 0-.087-.059-.174-.057-.086-.115-.144-.318-.347-.52-.607-.203-.26-.318-.55-.116-.288-.203-.606-.058-.347-.086-.81-.087-.925-.376-1.82-.26-.926-.26-1.85 0-.723.029-1.446.028-.723.028-1.445 0-.665.145-1.3.173-.666.173-1.302 0-.462-.086-.896-.058-.433-.058-.896 0-1.07.289-2.08.318-1.042.665-2.053.347-1.04.636-2.081.318-1.04.318-2.14 0-.288-.03-.577-.028-.29-.028-.607 0-.55.202-.723.231-.174.463-.202.26-.058.462-.116.231-.058.231-.405 0-.202-.057-.375-.03-.203-.03-.405 0-.231.29-.492.318-.289.693-.607.405-.317.78-.635.377-.347.521-.723.145-.347.463-.463.347-.115.664-.173.347-.087.607-.173.26-.116.26-.463 0-.173-.086-.433.433.202.896.289.462.057.954.057.636 0 1.04-.173.434-.173.78-.376.348-.231.723-.404.405-.203.983-.203.752 0 1.446-.231.693-.26 1.445-.26.347 0 1.272.202t1.878.52q.983.318 1.735.694.78.376.838.723.202-.058.376-.058h.347q.491 0 .867.116.404.115.722.289.347.173.665.404.347.232.723.463l.029.173.029.145q0 .376-.203.693-.173.318-.26.665.087.26.318.376l.463.231q.23.116.433.26.203.145.231.463.03.318.116.52.116.174.52.203l-.029.607v.289q0 1.011.318 1.734.347.723.752 1.3.434.579.751 1.128.347.52.347 1.127 0 .578-.289 1.099-.26.491-.26.954 0 .173.202.49.203.29.434.695.231.404.434.896.202.462.202 1.011 0 .954-.81 1.446-.057.173-.057.289 0 .26.144.404.145.145.29.26.173.116.317.29.145.173.145.52 0 .347-.145.607-.115.26-.289.491l-.289.405q-.115.173-.115.376 0 .26.144.462.145.174.29.376.173.173.317.376.145.202.145.462zm-.839-6.33q0-.318-.26-.434-.26-.115-.491-.115-.578 0-.578.52 0 .26.202.376.231.115.463.115.23 0 .433-.115.231-.116.231-.347zm-3.15 2.66q0-.579-.232-1.07-.202-.52-.202-1.099 0-.664.058-1.3t.058-1.301q0-.434.086-.838.116-.405.116-.81 0-.462-.289-1.243-.26-.78-.636-1.618-.376-.867-.78-1.648-.376-.78-.578-1.272-.03-.029-.087-.173-.058-.174-.145-.318-.086-.174-.173-.29-.058-.144-.116-.144-.029.058-.144.058-.087 0-.578-.376-.463-.375-1.012-.925-.52-.578-.954-1.185-.405-.636-.405-1.156 0-.144.03-.202-.405 0-.983-.087-.55-.116-1.128-.318-.549-.202-1.011-.52-.434-.318-.579-.723-.722.087-1.416.318-.665.202-1.33.434-.664.202-1.358.375-.694.174-1.416.174h-.347q-.145-.03-.318-.058.086.173.086.376 0 .318-.23.404-.232.058-.55.058h-.434q-.173-.029-.318-.029l-.202.03.03.26v.115q0 .347-.203.578-.174.231-.434.405-.26.173-.55.347-.288.144-.49.347.346.057.346.433 0 .492-.375 1.214-.376.694-.839 1.619-.433.896-.809 1.965-.376 1.04-.376 2.197-.086.145-.23.26-.145.087-.319.087-.231 0-.462-.116-.232-.144-.492-.144t-.26.202q0 .318.174.55l.433.49q.26.26.434.55.202.289.202.694 0 1.011-.202 1.416-.174.376-.405.578-.202.174-.376.434-.173.231-.173.954v.346q0 .145.029.29-.376.49-.839.809.434.144.723.491.29.318.463.694.173.347.26.723.086.375.086.607 0 .867.145 1.734.173.838.173 1.705 0 .78-.144 1.07-.116.289-.29.376-.173.086-.317.086-.116-.029-.116.145 0 .202.145.202.231 0 .491-.144l.463-.26q.057.23.057.664v.867q.03.434.116.78.116.319.405.377.433.086.607.289.173.202.26.462.115.26.231.55.116.26.463.462.462.26.867.665.404.375.838.722.434.347.896.636.491.26 1.07.29 1.011.086 2.023.26 1.04.144 2.052.375.376.116.867.116.578 0 1.128-.145.578-.173 1.127-.347.578-.202 1.156-.346.578-.174 1.156-.174.347 0 .752.087-.03-.058-.03-.203 0-.317.319-.809.347-.52.81-1.012.462-.49.953-.838.491-.376.81-.433-.087-.145-.116-.318v-.376q0-.434.144-.954.145-.52.578-.723.203-.086.318-.346.145-.29.203-.665.086-.376.115-.81.03-.462.03-.896 0-.52-.03-.954V300.176q.434-.288.607-.838.174-.578.232-1.127.086-.55.115-.983.03-.433.145-.52.347-.26.347-.636zm-5.088 16.446h-.115q-.578 0-.954.376t-.636.896q.087-.289.376-.289 0 .145-.116.231-.115.058-.26.058.347 0 .694.058.347.029.693.029.26 0 .405-.116.145-.144.202-.347.058-.202.058-.433v-.434z" fill="#000" aria-label="0" style="fill:#000000;stroke-width:3.69985" font-size="59.198" font-family="Special Elite" stroke-width="3.7"/></svg>