<svg xmlns="http://www.w3.org/2000/svg" viewBox="0 0 348 348" fill="none"><path d="M5.079 5.776h336.913v337.67H5.08z" stroke-width="2" stroke="#000"/><path d="M282.734 40.554c0-8.376 6.966-15.165 15.56-15.165 4.126 0 8.084 1.597 11.001 4.441 2.918 2.844 4.558 6.702 4.558 10.724 0 8.376-6.966 15.165-15.56 15.165-8.593 0-15.559-6.79-15.559-15.165z" stroke-width="2" stroke="#000"/><g style="line-height:1.25;-inkscape-font-specification:'Comic Sans MS';text-align:center"><path d="M112.703 56.11c.984 0 1.771-.787 1.771-1.772V24.712c0-.985-.787-1.772-1.771-1.772h-1.378c-.985 0-1.772.787-1.772 1.772v16.24l-6.84-16.93c-.198-.54-.985-1.082-1.625-1.082h-1.181c-.935 0-1.772.787-1.772 1.772v29.626c0 .985.837 1.772 1.772 1.772h1.427c.935 0 1.772-.787 1.772-1.772v-16.24l6.84 16.93c.197.54 1.034 1.082 1.625 1.082zm9.752-32.137c-.197-.492-1.034-1.033-1.624-1.033h-1.575c-1.378 0-2.166 1.23-1.624 2.46 2.116 4.922 4.281 9.794 6.397 14.716v14.222c0 .985.788 1.772 1.723 1.772h1.378c.984 0 1.772-.787 1.772-1.772V40.165L135.25 25.4c.492-1.23-.295-2.461-1.624-2.461h-1.624c-.541 0-1.378.541-1.624 1.033l-3.937 9.056zm24.68 30.759c.197.738.985 1.378 1.723 1.378h1.427c1.181 0 1.969-1.033 1.722-2.165l-6.791-29.627c-.148-.738-.984-1.378-1.723-1.378h-1.082c-.738 0-1.526.64-1.723 1.378L136.21 43.56l-2.362 10.434c-.247 1.132.54 2.116 1.722 2.116h1.427c.738 0 1.526-.64 1.723-1.378l1.722-7.677h5.02zm-4.183-20.424c.935 4.183.837 5.512 1.378 7.875h-2.756zm21.231 13.19c0-5.266 1.23-4.725 4.43-9.843a11.013 11.013 0 001.525-5.61c0-2.412-.59-4.43-1.624-6.103-1.427-2.018-3.346-3.051-5.61-3.051-4.872 0-7.284 3.543-7.284 9.4v.64c0 .984.787 1.771 1.772 1.771h1.378c.984 0 1.771-.787 1.771-1.772v-.64c0-1.771.296-3.05.788-3.74.344-.541.836-.787 1.575-.787.64 0 1.18.344 1.575.886.492.738.738 1.968.738 3.395 0 1.428-.345 2.363-.788 3.15a41.377 41.377 0 01-1.427 2.166c-1.427 2.214-3.74 4.626-3.74 9.301v.837c0 .984.787 1.771 1.772 1.771h1.378c.935 0 1.771-.787 1.771-1.771zm0 4.921c0-.984-.836-1.772-1.771-1.772h-1.428c-.935 0-1.771.788-1.771 1.772v1.87c0 .984.836 1.772 1.771 1.772h1.428c.935 0 1.771-.788 1.771-1.772z" style="-inkscape-font-specification:'Ostrich Sans'" font-weight="400" stroke-width=".615" fill="#000" text-anchor="middle" font-family="Ostrich Sans" font-size="49.214" aria-label="nya?"/></g><path d="M31.171 69.899h97.764v49.118H31.171zM134.927 69.936h97.764v49.118h-97.764zM29.337 125.81h290.548v194.075H29.337z" paint-order="stroke markers fill" fill="#000"/><g style="line-height:1.25;-inkscape-font-specification:'Ostrich Sans';text-align:center" aria-label="NYA" font-size="47.197" font-family="Ostrich Sans" text-anchor="middle" fill="#fff" stroke-width=".59"><path d="M67.55 109.794c.944 0 1.699-.755 1.699-1.7V79.683c0-.944-.755-1.699-1.7-1.699h-1.32c-.945 0-1.7.755-1.7 1.7v15.574l-6.56-16.235c-.189-.52-.944-1.039-1.558-1.039H55.28c-.897 0-1.7.755-1.7 1.7v28.412c0 .944.803 1.699 1.7 1.699h1.368c.897 0 1.7-.755 1.7-1.7V92.52l6.56 16.236c.188.519.99 1.038 1.557 1.038zM76.902 78.974c-.189-.472-.991-.99-1.557-.99h-1.51c-1.322 0-2.077 1.18-1.558 2.36 2.03 4.719 4.106 9.391 6.135 14.11v13.64c0 .945.756 1.7 1.652 1.7h1.322c.944 0 1.699-.755 1.699-1.7V94.503l6.088-14.159c.472-1.18-.283-2.36-1.557-2.36h-1.558c-.519 0-1.321.52-1.557.991l-3.776 8.685zM100.203 108.472c.188.708.943 1.322 1.651 1.322h1.37c1.132 0 1.887-.991 1.651-2.077l-6.513-28.412c-.142-.708-.944-1.322-1.652-1.322h-1.038c-.708 0-1.463.614-1.652 1.322l-4.295 18.454-2.266 10.005c-.236 1.086.52 2.03 1.652 2.03h1.369c.708 0 1.463-.614 1.652-1.322l1.652-7.362h4.814zM96.19 88.886c.897 4.011.802 5.286 1.321 7.551H94.87z"/></g><g style="line-height:1.25;-inkscape-font-specification:'Ostrich Sans';text-align:center" aria-label="NAH" font-size="47.197" font-family="Ostrich Sans" text-anchor="middle" fill="#fff" stroke-width=".59"><path d="M169.001 109.721c.944 0 1.699-.755 1.699-1.7V79.61c0-.944-.755-1.699-1.699-1.699h-1.322c-.943 0-1.699.755-1.699 1.7v15.574l-6.56-16.235c-.189-.52-.944-1.039-1.557-1.039h-1.133c-.897 0-1.7.755-1.7 1.7v28.412c0 .944.803 1.699 1.7 1.699h1.368c.897 0 1.7-.755 1.7-1.7V92.448l6.56 16.236c.189.519.991 1.038 1.557 1.038zM187.273 108.4c.19.707.944 1.321 1.652 1.321h1.37c1.132 0 1.887-.991 1.651-2.077l-6.513-28.412c-.142-.708-.944-1.322-1.652-1.322h-1.038c-.708 0-1.463.614-1.652 1.322l-4.295 18.454-2.266 10.006c-.236 1.085.52 2.029 1.652 2.029h1.369c.708 0 1.463-.614 1.652-1.322l1.652-7.362h4.814zm-4.011-19.587c.897 4.012.802 5.286 1.321 7.551h-2.643zM199.989 91.503V79.609c0-.944-.756-1.699-1.7-1.699h-1.321c-.944 0-1.7.755-1.7 1.7v28.412c0 .944.756 1.699 1.7 1.699h1.322c.943 0 1.699-.755 1.699-1.7V96.177h5.238v11.846c0 .944.756 1.699 1.7 1.699h1.321c.944 0 1.7-.755 1.7-1.7V79.61c0-.944-.756-1.699-1.7-1.699h-1.321c-.944 0-1.7.755-1.7 1.7v11.893z"/></g></svg>