<svg xmlns="http://www.w3.org/2000/svg" viewBox="0 0 348 348" fill="none"><path d="M5.079 5.776h336.913v337.67H5.08z" stroke-width="2" stroke="#000"/><path d="M282.734 40.554c0-8.376 6.966-15.165 15.56-15.165 4.126 0 8.084 1.597 11.001 4.441 2.918 2.844 4.558 6.702 4.558 10.724 0 8.376-6.966 15.165-15.56 15.165-8.593 0-15.559-6.79-15.559-15.165z" stroke-width="2" stroke="#000"/><g fill="#000"><path d="M175.334 61.302c0 .663-.598.995-1.792.929-1.658 0-1.725-.067-.53-.597 1.061-.465 1.127-.597.199-.597-1.593-.067-3.251.663-2.853 1.26.199.332-1.194 1.061-3.052 1.659-1.857.663-4.18 1.592-5.175 2.056-.928.53-2.122.929-2.587.929-.464 0-.995.464-1.26 1.061-.2.531-.796.863-1.327.664-.531-.2-.73-.066-.531.265.2.398-.398.995-1.327 1.327-1.327.53-1.658.995-1.327 1.99.266.796.133 1.327-.331 1.327-.398 0-.597.266-.398.53.597.93-1.924 1.991-4.379 1.792-1.393-.066-2.388.067-2.322.332.199.663-2.455 5.307-2.985 5.307-.332 0-.531-.398-.531-.929 0-.464-.398-1.26-.929-1.658-.73-.597-1.327-.265-2.985 1.592-1.128 1.327-2.057 2.72-2.057 3.185 0 .464-.597 1.393-1.393 2.056-.863.73-1.26 1.659-1.062 2.455.2.663.133 1.26-.132 1.26-.266 0-.465.664-.531 1.46-.066.73-.398 1.592-.73 1.791-.331.2-.796 1.659-1.061 3.185-.2 1.592-.863 4.113-1.393 5.639-1.327 4.113-2.322 13.003-1.725 16.187.597 3.25.199 7.032-.863 7.762-.464.332-.199.863.863 1.659 3.118 2.255 4.71 4.312 5.108 6.7 1.128 6.17 1.592 3.583 1.194-6.568-.398-9.487-.332-11.079.597-11.809.929-.796.863-1.194-.597-4.18-1.526-2.984-1.592-3.383-.663-4.311.597-.531 1.061-1.725 1.061-2.521 0-.863.465-1.924.995-2.389.531-.464.995-1.26.995-1.725 0-.53.332-.928.73-.928.398 0 .531.597.266 1.46-.332 1.326-.266 1.392.331.33.398-.596.597-1.392.398-1.724-.464-.73 1.46-2.388 2.057-1.791.265.265.066.73-.464 1.061-1.394.929-.398.796 1.658-.132.929-.398 1.858-1.46 2.057-2.455.199-.929.464-2.256.597-2.853.066-.597-.133-1.26-.597-1.46-.398-.198.066-.994 1.194-1.923 1.194-.995 1.791-2.057 1.526-2.654-.2-.597.066-1.194.597-1.393.53-.2.929-.796.929-1.393 0-.863.796-1.26 2.123-1.062.265 0 1.592-.73 2.985-1.658 1.791-1.195 3.052-1.593 4.312-1.327.995.199 1.99.066 2.19-.266.398-.663 5.838-.265 9.62.664 1.26.332 3.648.464 5.24.265 1.924-.199 3.317 0 4.379.664 1.128.73 2.056.862 3.118.464.862-.332 2.123-.332 2.853-.066 1.658.53 16.32 0 18.907-.73.53-.133.929.133.796.53-.066.465.266.863.796.863 1.195 0 2.588-1.791 2.057-2.654-.2-.331-.066-.663.332-.663s.53-.332.265-.796c-.265-.465-.199-.53.332-.265.398.265.929 0 1.194-.664.265-.663.133-1.26-.332-1.46-1.194-.397-.929-1.326.398-1.592.93-.199.664-.73-1.327-2.786-1.393-1.327-2.786-2.322-3.118-2.123-.73.464-.597-.862.2-2.123.265-.464.265-.796-.067-.73-1.128.332-5.904-.928-6.502-1.658-1.99-2.389-13.4-5.175-17.58-4.312-1.327.265-2.389.265-2.521-.133-.398-1.062-4.113-.73-4.113.398zm8.624.995a.665.665 0 01-.663.663c-.332 0-.664-.331-.664-.663 0-.398.332-.663.664-.663.398 0 .663.265.663.663zm8.36 1.99c.53 0 .729.398.53.995-.398.93-.53.863-1.327-.132-.464-.664-.862-1.526-.862-1.858 0-.398.199-.265.398.133.132.464.73.862 1.26.862zm2.056-.929c-.2.2-.796.266-1.26.067-.531-.2-.332-.398.397-.398.73-.067 1.128.132.863.331zm-4.644.73a.797.797 0 01-.929 0c-.199-.265 0-.464.464-.464.465 0 .664.199.465.464zm-22.357 3.185c.73-.2 1.326 0 1.592.663.199.664-.067.995-.796.995-1.593 0-2.787-1.327-2.72-2.985.132-1.194.132-1.128.398.199.199 1.128.597 1.393 1.526 1.128zm27.664-.531a.797.797 0 01-.929 0c-.199-.265 0-.464.465-.464.464 0 .663.199.464.464zm4.843 2.19c0 .331-.464.663-.995.663-.53 0-.995-.332-.995-.664 0-.398.464-.663.995-.663.53 0 .995.265.995.663zm-34.498 3.714c0 .2-.73-.066-1.592-.663-.929-.597-2.123-.862-2.654-.663-.597.199-1.061.199-1.061 0 0-.266.663-.664 1.526-.996 1.061-.398 1.725-.265 2.653.664.597.663 1.128 1.393 1.128 1.658zm37.417-.796c-.398 1.725-.331 1.924.531 1.194.862-.663.995-.597.862.664-.066.862-.199 1.658-.265 1.791 0 .2-.929-.464-1.924-1.46-1.061-.995-2.056-1.592-2.322-1.326-.265.199-.464 0-.464-.531 0-1.393 1.061-2.322 2.653-2.322 1.195 0 1.327.332.93 1.99zm4.379.067c0 .53-.133.995-.266.995-.132 0-.398-.465-.663-.995-.199-.531-.066-.995.265-.995.398 0 .664.464.664.995zm-51.283.132a.797.797 0 01-.928 0c-.2-.265 0-.464.464-.464s.663.199.464.464zm2.853.067c0 .663-1.46 2.123-2.123 2.123-.332 0-.199-.597.265-1.327.863-1.327 1.858-1.791 1.858-.796zm2.654 1.46a.665.665 0 01-.664.663c-.331 0-.663-.332-.663-.664 0-.398.332-.663.663-.663.398 0 .664.265.664.663zm5.771.464a.797.797 0 01-.928 0c-.2-.266 0-.465.464-.465s.664.2.464.465zm39.806 1.194c-.266.53-.133 1.128.199 1.327.995.597.796 1.658-.266 1.658-1.26 0-1.724-1.393-.928-2.853.73-1.393 1.46-1.525.995-.132zm-66.74 21.097c-.863.862-.996-.73-.266-2.654.465-1.062.53-.995.73.398.133.862-.066 1.858-.464 2.256zm-8.028 12.87c0 1.393-.199 1.592-.597.929-.332-.531-.464-1.327-.265-1.858.53-1.393.862-.995.862.929zm2.455 5.307c-.266.2-.465 0-.465-.464s.2-.663.465-.464a.797.797 0 010 .928z"/><path d="M151.251 70.922c-1.327 1.592-1.393 1.99-.265 1.99.398 0 1.128-.73 1.592-1.659.863-1.99.266-2.19-1.327-.331zM142.826 77.29c0 .531.332.796.663.597.398-.199.664-.663.664-1.061 0-.332-.266-.597-.664-.597-.331 0-.663.464-.663 1.061zM211.357 78.684c-1.194.464-1.061 1.99.133 2.454.53.2.995.067.995-.199 0-.332.2-1.061.398-1.658.398-1.062 0-1.26-1.526-.597zM213.945 79.679c-.597.597-.398 1.061.73 2.123 2.056 1.924 3.781 4.776 3.781 6.236 0 .663.332 1.526.796 1.99.53.53.53.995-.133 1.924-.796.995-.796 1.061 0 .332.531-.398 1.46-.796 2.123-.796.996 0 1.128.331.796 1.79-.398 1.726-.331 1.792.531.598 1.062-1.393 2.853-.863 2.256.663-.2.531-.066.93.332.93s.597.397.398.928c-.2.53.331 2.52 1.26 4.379.863 1.857 1.46 3.648 1.327 3.914-.199.265 0 1.658.398 3.118.398 1.393.73 2.985.597 3.383-.066.465.2.863.597.863.332 0 .664-.2.73-.531.53-5.241.464-6.833-.464-7.231-.73-.266-.797-.531-.2-1.327.93-1.062.93-4.777 0-5.706-.331-.331-.464-.995-.331-1.46.199-.464-.597-2.786-1.791-5.041-1.195-2.322-2.19-4.379-2.256-4.578 0-.199-.265-.73-.53-1.194-1.062-1.658-1.66-.066-.996 2.587.863 3.118 0 4.71-1.791 3.251-1.26-1.061-1.26-1.99 0-1.99.53 0 .995-.332.995-.664 0-.398-.597-.663-1.327-.663s-1.327-.464-1.327-.995c0-.53-.265-.995-.597-.995-.332 0-.53-.53-.464-1.194 0-.597-.332-1.062-.73-.995-.464.132-.862-.133-.862-.465 0-1.393-.133-1.658-1.128-2.853-1.26-1.326-1.659-1.393-2.72-.331zM149.725 84.323c-.265.464-.199.53.266.265.796-.464 1.061-1.061.53-1.061-.198 0-.53.331-.796.796z"/><path d="M218.058 90.957c-.265.464-.2.53.265.265s.796-.597.796-.796c0-.53-.597-.265-1.061.53zM217.793 96.795c0 .332.331.663.663.663a.665.665 0 00.663-.663c0-.398-.265-.663-.663-.663a.665.665 0 00-.663.663zM217.793 99.117c0 .133.331 1.061.796 1.99.796 1.791 2.255 2.389 1.592.597-.2-.597-.398-1.46-.398-1.99s-.465-.929-.995-.929c-.531 0-.995.133-.995.332zM141.234 102.567c-.398.929-.332.995.331.398.465-.465.664-.995.465-1.194-.2-.2-.597.132-.796.796zM220.778 103.363c-.199.332-.066.796.332 1.061.331.2.663-.066.663-.597 0-1.194-.398-1.393-.995-.464zM222.238 110.528c-.664.663-.531 1.658.132 1.26.332-.265.73 0 .929.398.199.465.265.2.265-.663-.066-1.46-.53-1.858-1.326-.995zM197.69 118.622c-3.25.265-4.71.73-5.174 1.46-.332.596-1.26 1.26-2.123 1.525-1.99.464-3.649 3.45-2.587 4.511.464.465.796 2.654.796 4.843 0 4.445 1.393 6.833 3.25 5.64.598-.332 1.527-.133 2.588.53 1.26.863 1.858.863 2.853.2.73-.399 1.658-.598 1.99-.333.398.2 2.986.664 5.772.996 4.312.464 5.108.398 5.772-.531.53-.73 1.924-1.128 3.715-1.26 4.91-.2 6.302-.332 5.374-.73-.664-.266-.664-.531-.067-1.261.53-.663.53-.929.067-.929-.399 0-.598-.398-.399-.929.266-.663-.132-.796-1.525-.663-1.725.265-1.725.265-.332-.332 1.791-.862 1.791-1.46.133-4.577-1.924-3.715-6.303-6.966-10.615-7.895-1.99-.398-3.914-.73-4.312-.73-.332.067-2.72.266-5.175.465zm9.753 7.098c.597.2 1.062.664 1.062.995 0 .73-2.322.796-5.374.133l-2.256-.464 2.322-.465a44.65 44.65 0 002.787-.53c.199 0 .862.132 1.46.331zm-8.226 4.91c0 .331-.133.663-.266.663-.199 0-.53-.332-.73-.663-.198-.399-.066-.664.266-.664.398 0 .73.265.73.664zm11.344 4.444c-1.46.598-3.184.797-5.174.465-5.175-.796-.996-2.256 4.776-1.659l2.654.266zM227.479 119.152c-.266.597-.067 1.327.398 1.659.663.398.597.53-.266.53-.995 0-1.128.797-1.061 6.967.066 3.847.398 6.965.663 6.965.266 0 .53-.796.53-1.724 0-1.062.93-2.787 2.323-4.313 1.26-1.46 2.322-3.051 2.322-3.582 0-1.128-1.659-1.327-2.322-.332-.664 1.062-1.659.066-1.659-1.725 0-1.526.863-2.19 1.526-1.128.133.332.133.067-.066-.464-.133-.53-.465-1.659-.597-2.521-.398-1.725-1.194-1.924-1.791-.332zM158.085 119.948c-4.976.465-7.497 1.792-10.615 5.706l-2.123 2.654 2.056.199c1.195.132 3.384-.398 4.91-1.128 3.98-1.924 7.696-2.389 9.951-1.194 1.858.995 1.858.995-2.322 1.46-5.97.663-10.482 3.25-10.88 6.103-.133.73.265.862 1.26.597.797-.2 3.517-.597 6.038-.863 3.383-.265 4.445-.199 4.113.332-.332.53.199.796 1.526.796 2.919 0 2.52 1.062-.73 2.19l-2.853.994 2.72.067c5.175.133 9.753-1.128 11.345-3.118.796-.995 1.46-1.393 1.526-.995 0 .464.265.862.597.862 1.061 0 1.194-4.18.199-6.236-.796-1.659-.796-1.99.464-3.118 1.659-1.592 1.659-1.393.133-3.118-1.592-1.924-9.354-2.853-17.315-2.19zm.663 12.008c0 .332-.133.664-.265.664-.2 0-.531-.332-.73-.664-.2-.398-.066-.663.265-.663.398 0 .73.265.73.663z"/><path d="M231.061 122.735c0 .332.332.464.663.265.399-.199.664-.53.664-.73 0-.132-.265-.265-.664-.265-.331 0-.663.332-.663.73zM123.189 126.782c-.664 1.061-.863 10.482-.2 10.482.266 0 .664-1.393.93-3.185.198-1.725.663-3.98.994-5.042.664-1.924.399-3.051-.663-3.051-.332 0-.796.331-1.061.796zM235.904 126.782c-.862 1.194-1.061 5.373-.199 4.843.398-.266.663 1.658.663 5.44l.067 5.838 1.061-2.322c.73-1.592.995-3.98.929-7.298-.133-6.833-.862-8.69-2.521-6.501zM147.005 133.748a.797.797 0 00.93 0c.198-.266 0-.465-.465-.465s-.664.2-.465.465z"/><path d="M235.042 133.947c0 .464.199.663.464.464a.797.797 0 000-.929c-.265-.199-.464 0-.464.465zM227.346 138.259c-.265.929-.066 2.985.332 4.511.398 1.526.796 3.848.862 5.108.265 3.185 1.924 3.384 3.383.332 1.062-2.255.93-5.904-.265-6.7-.332-.2-.597-1.062-.597-1.924 0-.93-.53-1.924-1.26-2.322-1.792-.929-1.99-.863-2.455.995zM130.287 140.382c-.73 1.393-1.658 3.184-2.123 3.98-.663 1.26-.597 1.924.465 3.848 1.46 2.72 3.781 3.251 3.516.796-.067-.796.331-3.118.995-5.174 1.725-5.838-.332-8.293-2.853-3.45zM193.91 146.883c0 .597.464 1.195 1.06 1.46 1.991.73 6.569 6.236 8.294 10.018 1.526 3.25 1.658 3.847.796 4.71-.863.796-1.062.796-1.592 0-.531-.796-.73-.73-1.261.199-.398.597-1.128.995-1.659.796-1.127-.464-1.393 1.393-.331 2.057.398.199.663.663.663.928 0 .531-9.354 1.394-20.234 1.858-12.87.53-15.458.73-18.377 1.194-2.853.465-3.184.398-3.317-.73-.2-2.919.332-4.71 2.057-6.9 1.061-1.326 2.72-3.98 3.715-5.97.995-1.99 2.587-4.777 3.45-6.17.862-1.46 1.459-2.72 1.26-2.919-.663-.663-5.506 2.986-7.497 5.507-.995 1.393-2.985 3.582-4.312 4.909-1.393 1.327-2.52 2.786-2.52 3.184 0 .398-.399 1.128-.93 1.659-1.393 1.327-1.393 3.781-.066 6.767.597 1.46 1.791 5.108 2.52 8.16.797 3.25 1.593 5.175 1.859 4.644.597-.929.265-3.251-1.128-8.094-1.062-3.715-1.194-7.43-.332-7.961.332-.2.796 1.26 1.061 3.317.266 2.123.797 3.782 1.327 4.047.531.133 1.128.862 1.327 1.592.266.664.863 1.26 1.46 1.26s2.189 1.062 3.648 2.323l2.588 2.388 1.26-1.526c.796-1.061.995-1.592.465-1.791-3.052-.995-4.113-4.777-1.791-6.037 1.592-.863 10.349-.73 12.273.132.796.332 4.047.2 8.624-.331 4.976-.664 7.43-.73 7.696-.266.265.332.929.465 1.592.266 1.99-.796.929 3.051-1.128 4.047-1.061.464-1.857 1.194-1.857 1.592 0 .331-.465.464-1.062.265-.53-.199-1.592.2-2.322.863-1.326 1.194-1.326 1.194.133 1.592.929.265 1.327.73 1.062 1.393-.531 1.327.995 1.791 3.648.929 1.526-.465 2.853-1.526 3.848-3.185 1.791-2.919 4.976-5.108 5.706-3.914.928 1.592.199 5.971-1.659 10.018-2.256 4.776-3.383 9.62-2.123 8.823 1.327-.796 4.91-9.221 7.63-17.78 1.658-5.174 2.852-7.761 3.45-7.761.53 0 1.724-.465 2.587-1.062 1.061-.663 1.658-.796 1.658-.332 0 1.062-2.654 6.303-5.772 11.345-2.189 3.582-8.16 17.979-8.16 19.704 0 .995-3.781 6.17-4.18 5.771-.53-.53-4.444.995-4.444 1.792 0 .862-6.9 2.72-7.165 1.924-.133-.399-.664-.399-1.526.066-.73.398-1.659.53-2.123.398-.464-.133-1.99.133-3.383.663-5.64 1.924-14.264-.199-17.846-4.445-1.858-2.189-3.517-2.72-2.588-.862.332.663 1.128 2.322 1.791 3.649.664 1.393 1.526 2.52 1.924 2.52.398 0 2.521.863 4.71 1.925 2.19 1.061 5.109 2.388 6.502 3.051 1.327.598 2.455 1.394 2.455 1.725 0 .332-1.194 1.194-2.588 1.924-2.52 1.26-3.781 2.455-3.25 2.986.132.199 1.857-.266 3.715-.995 1.924-.73 4.511-1.327 5.772-1.327 2.52 0 9.553-4.445 18.575-11.876 6.436-5.24 6.038-4.843 9.554-9.354 3.914-4.975 10.216-17.58 8.094-16.32-.465.265-.598.066-.332-.53.199-.531-.133-1.726-.73-2.588-.929-1.46-.995-2.057-.265-4.578.464-1.592 1.061-3.184 1.327-3.516.265-.398.796-1.791 1.127-3.184.597-2.19.597-2.521-.265-2.19-.862.332-.929 0-.597-1.525.332-1.46.066-2.256-1.062-3.251-.73-.73-1.79-1.194-2.255-1.062-1.128.465-3.848-1.26-7.961-5.108-4.246-3.98-6.104-5.44-8.89-6.767-2.787-1.393-3.384-1.393-3.384-.133zm21.03 32.64c-.265.2-.465 0-.465-.464s.2-.663.465-.464a.797.797 0 010 .929zM131.88 151.196c-.2.331.066.663.596.663.598 0 1.062-.332 1.062-.663 0-.398-.265-.664-.597-.664-.398 0-.863.266-1.062.664zM228.076 151.196c.199.331.53.663.73.663.198 0 .132-.332-.067-.663-.199-.398-.53-.664-.73-.664-.199 0-.132.266.067.664zM232.388 151.859c-.53.332-.73.796-.465 1.062.266.265.863.132 1.261-.266.995-.995.464-1.592-.796-.796z"/><path d="M186.744 156.503c-1.194.73-2.587 1.327-3.184 1.327-.53 0-1.725.464-2.587 1.061-1.526.995-1.725.93-3.583-.331-1.46-1.062-2.919-1.394-5.838-1.394-3.848.067-3.848.067-1.99 1.062 1.061.53 2.72.929 3.781.796 1.393-.133 2.322.332 3.583 1.659.929.995 1.658 1.99 1.658 2.189 0 .199.133.53.332.73.2.265.398.066.398-.332 0-.995 4.777-1.062 5.772-.066.995.995 3.516.132 3.052-1.062-.531-1.526 1.592-1.924 3.45-.73.928.597 1.658.796 1.658.398 0-.331.398-.597.862-.53.398.132.73-.2.664-.664-.133-.398.265-.796.796-.796.862 0 2.322-2.388 2.322-3.715 0-.2-1.26-.332-2.786-.265-1.593 0-3.583-.133-4.512-.332-1.061-.266-2.454.133-3.848.995zM135.528 157.564c-.929 2.389-.464 2.72.929.664.663-.995.796-1.791.398-2.057-.398-.199-.995.398-1.327 1.393zM225.488 157.564c-.597 1.593 1.593 4.246 3.583 4.246.663 0 .73-.199.265-.53-.398-.266-1.327-1.46-2.056-2.654-1.128-1.791-1.46-1.99-1.792-1.062zM172.348 178.396c.2.332.53.663.73.663.199 0 .133-.331-.066-.663-.2-.398-.531-.663-.73-.663-.2 0-.133.265.066.663zM174.87 179.524a.797.797 0 00.928 0c.199-.266 0-.465-.464-.465-.465 0-.664.2-.465.465zM182.963 185.694c-.2.398.265.663 1.061.663 3.583 0-.199 1.061-4.71 1.327-.929.066-1.327.265-.862.398.464.199.663.73.464 1.194-.597 1.526 5.307 3.25 6.634 1.858.266-.266.73-.465.93-.531 1.26-.133 2.72-1.128 2.454-1.592-.2-.266.066-.465.53-.398.399 0 .93-.266.996-.597.132-.399-1.195-1.195-2.986-1.792-3.914-1.327-3.98-1.327-4.511-.53zM180.177 186.158a.797.797 0 00.928 0c.2-.265 0-.464-.464-.464s-.663.199-.464.464zM199.416 189.143c-.067.664.199 1.195.597 1.062 1.194-.398 1.393-1.659.332-2.057-.531-.199-.863.2-.93.995zM216.267 197.104c.331 3.981.132 4.512-2.787 10.35-1.658 3.383-5.904 10.35-9.288 15.391-7.629 11.345-10.084 15.723-13.533 23.883-1.394 3.45-4.379 9.952-6.502 14.463l-3.848 8.16-2.123-1.99c-1.128-1.062-2.255-1.791-2.388-1.659-.133.133-.2-1.658-.133-3.98.067-3.583.531-5.175 2.654-9.288 2.19-4.312 2.985-5.175 5.44-6.369l2.853-1.327-1.062-2.19c-1.658-3.117-8.558-12.073-10.614-13.666-.996-.796-2.19-1.393-2.654-1.393-1.128 0-1.194-.796-.133-1.857.398-.398.53-.996.266-1.26-.266-.266-.73-.067-1.062.53-.332.53-1.791 1.592-3.25 2.255-1.46.664-2.522 1.394-2.39 1.725.399.597-1.459 2.588-2.387 2.588-.398 0-.465-.398-.2-.863.266-.398-.198-.199-.995.531-2.653 2.256-12.67 18.178-12.67 20.035 0 .266.33.133.795-.331.53-.531 1.128-.531 1.99-.067.996.531 1.858.266 4.18-1.327 2.654-1.79 2.985-1.857 2.985-.73 0 .664.398 1.394.863 1.593.53.199.398.663-.53 1.393-.73.597-1.261 1.46-1.129 1.924.067.464-.663 1.725-1.658 2.786-2.256 2.389-6.634 9.222-7.232 11.08-.199.796-1.26 3.25-2.322 5.373-2.056 4.246-2.321 5.706-1.194 6.834.531.53.332 1.127-.73 2.189-1.127 1.128-3.118 6.236-3.317 8.359 0 .066.531.066 1.128 0 .664 0 1.26.464 1.393 1.128.332 1.46-1.127 3.317-2.255 2.852-.465-.199-.995.133-1.194.73-.398 1.062-1.526 11.08-1.924 17.117-.133 1.79-.266-1.526-.332-7.364-.133-9.156.133-11.876 1.526-18.709 2.322-11.344 3.848-25.144 3.715-33.37-.133-3.848.265-10.814.863-15.59.995-8.227 1.724-28.13 1.061-28.13-.199 0-1.061 1.394-1.99 3.118-1.659 3.185-3.45 4.512-14.264 10.682-4.18 2.388-20.035 9.62-26.205 11.941-1.99.796-6.502 2.521-9.951 3.848-3.45 1.327-10.283 4.445-15.126 6.966-4.843 2.52-9.62 4.578-10.549 4.578-4.71 0-8.425 5.174-12.538 17.448-1.66 4.975-2.256 7.96-2.256 11.211 0 3.98-.2 4.71-1.99 6.767-2.588 2.92-3.65 5.573-4.644 11.677-.465 2.72-1.526 6.17-2.389 7.695-1.061 1.791-1.592 3.715-1.592 5.838 0 2.19-.464 3.715-1.46 5.109-1.459 1.924-1.459 2.056-.331 3.98 1.327 2.389.862 5.241-.796 5.241-1.26 0-4.777 3.45-6.037 5.905-.531 1.061-.664 3.118-.332 6.767l.464 5.24h58.05c44.051 0 58.315-.198 59.243-.795.995-.664 1.46-.664 2.123 0 .597.597 18.31.796 79.545.796h78.748l-.332-7.895c-.398-7.828-.398-7.961 1.393-10.018.93-1.128 1.725-2.587 1.725-3.25 0-1.46-1.99-7.232-3.914-11.345-1.858-3.98-1.725-6.502.398-10.548 1.592-3.119 1.659-3.716.995-6.237-2.52-9.752-2.454-8.956-.862-10.946 3.45-4.312 4.047-6.502 4.047-16.188 0-7.695-.2-9.686-1.394-12.87-1.592-4.18-5.042-8.425-8.16-10.018-1.127-.597-2.189-1.26-2.388-1.526-.995-1.326-9.022-6.634-13.8-9.088-4.311-2.256-6.169-2.853-8.823-2.853-5.042 0-10.813-1.659-17.846-5.241-3.45-1.725-7.165-3.384-8.292-3.649-1.062-.265-4.843-1.791-8.293-3.383-3.45-1.593-8.094-3.318-10.217-3.915-3.45-.862-4.578-1.658-8.89-5.838-3.25-3.25-5.506-6.17-6.833-8.89-1.062-2.189-2.455-4.577-3.184-5.174-1.195-1.128-1.261-.995-.93 3.051zm-45.577 36.09c0 .531-.332.797-.664.598-.398-.266-.53-.73-.332-1.062.598-.929.996-.73.996.465zm-9.421 2.455c-.464.93-.862 1.128-1.061.597-.399-1.26.398-2.919 1.194-2.454.464.265.398.928-.133 1.857zm3.317 1.659c.2 1.128-.133 1.46-1.128 1.46-.928 0-1.393-.399-1.393-1.195 0-2.52 2.19-2.72 2.521-.265zm11.212 1.26c-.265.2-.464 0-.464-.464s.199-.663.464-.464a.797.797 0 010 .928zm-5.108 2.256c.796.53.663.597-.465.265-.796-.199-1.592-.066-1.857.266-.2.398 0 .53.53.331.531-.199 1.195-.066 1.46.332.199.398-.066.929-.664 1.194-1.393.531-2.52-1.128-1.525-2.255.862-1.062 1.194-1.062 2.52-.133zm-9.487 2.057c-.2.53-.398.331-.398-.398-.067-.73.132-1.128.331-.863.2.2.266.796.067 1.26zm3.383 2.454c.73.398.664.73-.199 1.659-1.46 1.393-2.322 1.327-2.322-.133 0-1.99.929-2.587 2.521-1.526zm3.25 9.354c.067.73-.132 1.46-.53 1.659-.332.265-.597-.332-.597-1.26 0-1.99.995-2.322 1.128-.399zm-7.098 3.384c0 1.327-1.393 3.25-2.322 3.25-1.194 0-1.327-2.056-.199-3.184.995-.995 2.521-1.061 2.521-.066zm11.942 2.322c0 .53-.332.929-.73.929-.332 0-.464-.332-.265-.664.199-.398.066-.663-.266-.663-.398 0-.73-.465-.73-1.062 0-.928.2-.928.996-.265.53.464.995 1.26.995 1.725zm-18.576 3.582c0 .332-.133.664-.265.664-.2 0-.531-.332-.73-.664-.2-.398-.066-.663.265-.663.398 0 .73.265.73.663zm15.126 1.526c.133 1.26-.066 1.792-.796 1.792s-1.061-.664-1.061-2.057c0-2.521 1.592-2.322 1.857.265zm47.9 1.924c0 .465-.2 1.526-.399 2.322-.398 1.393-.796 1.526-5.639 1.526-5.573 0-6.103-.398-4.578-3.383.597-1.062 1.46-1.26 5.64-1.26 3.516 0 4.975.264 4.975.795zm-60.704 2.389c0 1.326-.332 1.79-1.327 1.79-1.526 0-2.123-1.99-.995-3.316 1.128-1.327 2.388-.531 2.322 1.526zm8.094 1.393c.066.73-.332 1.46-.863 1.658-1.127.465-1.26-.995-.132-2.123.995-.995.862-1.061.995.465zm9.288-.266c0 .796-.2.796-1.062.2-.597-.465-1.194-.93-1.327-.996-.132-.132.332-.199 1.062-.199s1.327.465 1.327.995zm-22.358 3.583c0 .663-.464 1.592-.995 2.056-.796.664-1.061.598-1.393-.265-.398-1.061.73-3.052 1.791-3.052.332 0 .597.531.597 1.26zm18.31.332c.465 1.26-.862 3.715-1.99 3.715-1.26 0-1.658-1.327-.995-3.185.598-1.658 2.455-1.99 2.986-.53zm-10.349 1.127c0 .332.332.465.73.2.465-.266.664-.067.465.464-.465 1.327-2.123 1.128-2.389-.266-.132-.597.067-1.127.465-1.127s.73.331.73.73zm-5.373 4.047c.398 1.062.331 1.791-.332 2.521-.796.796-1.061.796-1.99-.132-.863-.797-.93-1.327-.332-2.455.995-1.791 1.924-1.791 2.654.066zm10.548 1.659c.265 1.857-1.99 3.25-3.184 1.857-.531-.663-.597-1.26 0-2.322.928-1.725 2.919-1.46 3.184.465zm8.094.066c0 .332-.465.597-.995.597-.531 0-.995-.265-.995-.597 0-.265.464-.53.995-.53.53 0 .995.265.995.53zm-23.353 4.312c.266 1.99-1.393 3.185-2.653 1.924-.531-.53-.531-1.194 0-2.52.995-2.057 2.388-1.792 2.653.596zm19.306-.398c.796 1.526-.265 3.516-1.924 3.516-1.858 0-2.256-1.194-1.061-2.985 1.26-1.924 2.056-2.057 2.985-.53zm-9.42.597c.198.531-.067 1.526-.664 2.057-1.327 1.393-3.118.133-2.654-1.791.398-1.592 2.72-1.791 3.317-.266zm-5.905 5.64c.265 2.122-1.592 3.118-3.052 1.724-.73-.796-.796-1.26-.132-2.388.995-1.924 2.919-1.526 3.184.663zm9.885-.664c.929.929.332 3.052-.995 3.583-1.659.597-3.052-1.195-2.19-2.92.863-1.525 2.057-1.79 3.185-.663zM148 297.348c.199 1.658-1.792 3.648-2.787 2.653-.663-.73-.464-3.184.398-4.047 1.194-1.194 2.19-.597 2.389 1.394zm9.95.066c.266 1.194-1.392 3.052-2.586 3.052-.996 0-1.327-2.72-.531-3.716 1.061-1.326 2.853-.928 3.118.664zm9.222.929c-.132 1.26-.53 1.79-1.46 1.79-1.724 0-2.122-2.321-.662-3.449 1.592-1.128 2.255-.597 2.122 1.659zm-15.06 3.781c1.66 1.99-1.193 4.777-2.985 2.92-.597-.664-.663-1.394-.265-2.455.663-1.659 2.057-1.924 3.25-.465zm-8.89.664c.399 1.061-.795 2.985-1.79 2.985-.664 0-.796-2.92-.133-3.516.73-.73 1.526-.53 1.924.53zm19.373.398c.332 1.658-1.791 3.45-2.92 2.52-.994-.795-1.26-2.72-.464-3.515.797-.797 3.185-.133 3.384.995zm-15.79 6.833c-.796 2.256-2.852 2.123-3.184-.265-.332-2.123 1.725-3.782 2.985-2.455.73.663.73 1.327.2 2.72zm9.753-2.19c.929.93.331 3.052-.995 3.583-1.659.597-3.052-1.194-2.19-2.919.863-1.526 2.057-1.791 3.185-.663zm8.757 1.925c-.73 2.056-1.592 2.587-2.123 1.127-.398-1.127.73-3.118 1.858-3.118.73 0 .796.398.265 1.99zm-14.131 4.378c.53 1.99-.398 3.118-2.123 2.787-1.526-.266-1.99-2.256-.929-3.517 1.26-1.526 2.588-1.194 3.052.73zm10.084.53c.332 1.726-1.725 3.318-2.985 2.323-1.062-.929-1.128-2.057-.067-3.118 1.128-1.128 2.787-.73 3.052.796zm-15.259 5.44c.2 1.527-1.393 3.252-2.52 2.588-.73-.464-.93-3.184-.2-3.914.863-.862 2.521-.066 2.72 1.327zm9.355-.795c1.061 1.26-.266 3.848-1.792 3.582-1.393-.265-1.857-2.255-.796-3.516 1.062-1.26 1.592-1.26 2.588-.066zm-4.91 5.705c.664 1.062-.929 3.317-2.322 3.317-1.46 0-2.056-1.26-1.194-2.852.597-1.195 2.853-1.526 3.516-.465zm8.492.465c-.332.73-.199.928.398.53.597-.331.796-.132.597.73-.133.73-.796 1.26-1.526 1.26-1.79 0-2.255-2.72-.53-3.184.663-.199 1.26-.331 1.326-.398.067 0-.066.398-.265 1.062zm-14.264 6.369c.133 1.194-.066 1.79-.73 1.79-1.06 0-1.724-1.79-1.26-3.184.465-1.393 1.791-.464 1.99 1.394zm9.952-1.394c.995 1.26-.266 3.848-1.858 3.848-2.388 0-1.658-4.577.73-4.644.265 0 .73.398 1.128.796zm-5.507 5.838c.2.398.2 1.26 0 1.99-.464 1.527-2.852 1.792-3.383.332-.796-1.924 2.322-4.046 3.383-2.322zm8.293.797c0 .464-.265 1.26-.597 1.79-.73 1.129-1.526-.066-.995-1.525.464-1.26 1.592-1.393 1.592-.265z"/><path d="M152.313 342.726a.797.797 0 00.929 0c.199-.266 0-.465-.465-.465-.464 0-.663.2-.464.465z"/></g><path d="M31.644 14.79h223.8v36.64h-223.8z" fill="#000" stroke="#000" stroke-width="1.744" stroke-linecap="round" stroke-linejoin="round"/></svg>