<svg xmlns="http://www.w3.org/2000/svg" fill="none" viewBox="0 0 512 512"><path stroke="#000" stroke-width="4" d="M18 18h476v476H18Z"/><circle cx="448" cy="64" r="22" stroke="#000" stroke-width="4"/><g stroke="#000" stroke-width="4"><path d="M181.0193 177.1302s6.2138 6.0457 10.3415 3.9775 7.0573-12.9766 4.5078-15.9983c-2.5495-3.0216-6.1541-2.6013-8.1317-1.9445-1.9777.6568-2.6517 3.182-2.6517 3.182m44.9013 10.4298s-.7338 3.878-3.182 3.889c-2.4483.011-5.4603-4.4866-6.1872-7.4245-.7269-2.938-.0138-6.3151 1.7678-8.3085 1.7816-1.9935 4.4833-3.0084 7.1594-2.3865 2.6761.6218 6.364 6.2755 6.364 6.2755m-6.0988-26.87s-11.1726.8586-15.3796-1.2374c-4.207-2.096-8.4853-9.546-8.4853-9.546s-.0984 9.2273-3.889 12.728c-3.7907 3.5006-17.2358 3.8006-17.2358 3.8006"/><path d="m195.8686 165.1094 12.1976-15.2911 14.3189 15.1144m-14.3189-15.1144-2.1214-18.65M102.5 179.25 125 123l15 51.25-42.75-32.75L147 143Zm156.75-48.75s-3.6078 24.352 21.75 19.25 20-20.5 20-20.5m-29.25 48.5 19-2.5m-9.5 1.25-.25-26.75m-8.8225.5824 2.0915-21.639m15.359 18.512-.5981-20.81m66.8754 21.4153L344.875 136.125l16.5-.125Zm7.2197 15.8143L375 131.5m-45.5 2.375L346.375 166m34.7876 8.1287s-.4846-28.3558-26.6897-23.2094c-26.205 5.1464-24.2376 26.2341-24.2376 26.2341m-4.7353.7216 13.125-2m34.125-.5 13.5-2M224.625 209.75 233 244.5l-14.75 16-13-19.5-7.375-35.25L178 235.125l12.5653 27.2116L205.25 241zm118.125 41.5 41.25.625-17.625-42zm6.7885-11.8889 29.3678.3758M349.375 262.25l26.125 1m-262.5-46c7.8626-6.977 25.1559-8.2586 32.25-.75 7.0941 7.5085 1.9154 22.7054-2.375 29.625-4.2904 6.9196-24.951 13.403-34.25 1.625s-3.4876-23.523 4.375-30.5z"/><path d="M113 217.25s-2.268-6.3689-4.3117-9.0128C106.6445 205.5932 101 201.75 101 201.75m44.25 14.75 6.5-10m-8.875 39.625 9.375 10.625m-43.625-9-9 11.125m196.5-25.5s-3.5757 4.571-3.125 7.125c.4507 2.554 1.0783 5.8933 5.375 5.625 4.2967-.2683 10.5567-9.1255 10.75-14.5.1933-5.3745-1.7294-10.6273-7.625-12-5.8956-1.3728-18.875 11.5-18.875 11.5L267.5 251l-14.125-19.125L266.5 209l16.125 22.125M340 391.25l47.875-1.125-1.5 17.625-46.25.75zm21.9967-2.779 22.1283-26.346H343zM99.5 406.25l48.625-.625L126.375 371z"/><path d="M114.5364 386.5278 97.875 386l31.25-33 19 28.25-13.4894 2.9004m43.9089-22.8188 11.4904 43.487 18.0313-41.7193 10.253 39.7748 13.2583-41.5425m25.7975 28.0434s11.785 1.6258 18.132 5.4894c6.3469 3.8637 17.868 18.3856 17.868 18.3856"/><path d="M271.125 414.125s14.7-15.0099 20.9898-19.0145c6.29-4.0046 15.1352-6.3605 15.1352-6.3605m-43.875-22.875s11.3591 3.0418 17.7445 2.8628C287.505 368.5587 301 364.375 301 364.375m-26.5299 3.8233-.6377 25.754m18.2824 1.1582-4.8807-27.1913m6.5688-86.1372-22.981 28.1075 33.7643 19.6223m-21.6297-12.5702-9.6597 17.3431m9.0156-38.4489-13.435-8.2201"/><circle cx="294.3984" cy="306.3614" r="2" fill="#2acce6" stroke-linecap="round" stroke-linejoin="round" paint-order="markers fill stroke"/><path d="M183.375 284.25 182.75 330m21-47.25-.125 47.625m21.25-52L222.5 326.5m.8335-16.8894-19.6898 13.6398m.0292-11.1253 20.1609-12.6518m-20.1225-1.9743-20.7735 18.7553m.1536-11.2479L203.735 288.5m147.89 44s-8.7498-10.2147-10.5-19.75c-1.7503-9.5353 1.4287-17.6274 13-18.75 11.5713-1.1226 15.75 21.125 15.75 21.125l17.25.125m-8.5-18.875v34M96.3433 294.952l-5.0381 23.8648 51.7071-1.8562 1.9446-23.688zm-2.5191 11.9323 50.2913-3.3625m-27.4429 22.1892c-2.6914-.1248-6.1181 2.4054-6.2756 5.1266-.1574 2.7211 2.994 5.797 5.7453 5.922 2.7512.125 6.1832-2.6705 6.2756-5.3917.0924-2.7212-3.0538-5.532-5.7453-5.6569zm.7071-51.7071c-2.1593.0537-4.4778 2.1405-4.773 4.5078-.2951 2.3673 1.399 6.3949 4.1543 6.5407 2.7554.1458 5.723-4.3724 5.48-6.8943-.2428-2.5219-2.702-4.208-4.8613-4.1542zm-.7071 51.7071.4861-7.8223m2.2356-23.7331-2.6333-9.1032"/></g></svg>