<svg xmlns="http://www.w3.org/2000/svg" xml:space="preserve" fill="none" stroke-linecap="square" stroke-miterlimit="10" viewBox="0 0 348 348"><path stroke="#000" stroke-linecap="round" stroke-linejoin="round" stroke-miterlimit="4" stroke-width="2" d="m20.58 74.59 45.44-53.62m0 53.62 45.43-53.62M50.87 74.59 96.3 20.97M35.73 74.59l45.43-53.62m155.39 53.62 45.43-53.62m0 53.62 45.44-53.62m-60.58 53.62 45.43-53.62M251.7 74.59l45.43-53.62"/><path fill="#000" fill-rule="evenodd" d="M148.84 156.29h50.32v50.31h-50.32zm-100 0h50.32v50.31H48.84Zm200 0h50.32v50.31h-50.32z"/><path fill="#333" fill-rule="evenodd" stroke="#000" stroke-linecap="butt" stroke-miterlimit="4" stroke-width="2" d="M143.13 224.7h61.74a8.36 8.36 0 0 1 8.39 8.39v61.75a8.36 8.36 0 0 1-8.39 8.38h-61.74a8.36 8.36 0 0 1-8.39-8.38v-61.75a8.36 8.36 0 0 1 8.39-8.38z"/><path stroke="#000" stroke-linecap="butt" stroke-miterlimit="4" stroke-width="2" d="M151.73 227.57h44.54c3.35 0 6.05 2.7 6.05 6.05v44.54c0 3.35-2.7 6.05-6.05 6.05h-44.54a6.03 6.03 0 0 1-6.05-6.05v-44.54c0-3.35 2.7-6.05 6.05-6.05z"/><path fill="#333" fill-rule="evenodd" stroke="#000" stroke-linecap="butt" stroke-miterlimit="4" stroke-width="2" d="M243.13 224.7h61.74a8.36 8.36 0 0 1 8.39 8.39v61.75a8.36 8.36 0 0 1-8.39 8.38h-61.74a8.36 8.36 0 0 1-8.39-8.38v-61.75a8.36 8.36 0 0 1 8.39-8.38z"/><path stroke="#000" stroke-linecap="butt" stroke-miterlimit="4" stroke-width="2" d="M251.73 227.57h44.54c3.35 0 6.05 2.7 6.05 6.05v44.54c0 3.35-2.7 6.05-6.05 6.05h-44.54a6.03 6.03 0 0 1-6.05-6.05v-44.54c0-3.35 2.7-6.05 6.05-6.05z"/><path fill="#e5e5e5" fill-rule="evenodd" stroke="#000" stroke-linecap="butt" stroke-miterlimit="4" stroke-width="2" d="M43.13 224.7h61.74a8.36 8.36 0 0 1 8.39 8.39v61.75a8.36 8.36 0 0 1-8.39 8.38H43.13a8.36 8.36 0 0 1-8.39-8.38v-61.75a8.36 8.36 0 0 1 8.39-8.38z"/><path fill="#e5e5e5" fill-rule="evenodd" stroke="#000" stroke-linecap="butt" stroke-miterlimit="4" stroke-width="2" d="M51.73 227.57h44.54c3.35 0 6.05 2.7 6.05 6.05v44.54c0 3.35-2.7 6.05-6.05 6.05H51.73a6.03 6.03 0 0 1-6.05-6.05v-44.54c0-3.35 2.7-6.05 6.05-6.05z"/><path fill="#000" stroke="#000" stroke-linejoin="round" d="M82.48 247.86v3.62h7.65v6.5c-1.3 1.15-2.97 1.8-6.1 1.8-6.64 0-9.76-5.18-9.76-10.93 0-5.73 3.86-11.1 9.7-11.1 2.64 0 5.08 1.04 6.35 2.34l2.52-2.95c-1.53-1.51-4.73-3.17-8.86-3.17-7.5 0-13.88 6.3-13.88 14.9 0 8.6 5.63 14.7 13.94 14.7 5.62 0 8.68-2.42 9.96-3.81v-11.9z" aria-label="G"/><path stroke="#737373" stroke-linecap="butt" stroke-miterlimit="4" stroke-width="4" d="M191.8 181.45a17.8 17.8 0 0 1-17.8 17.8 17.8 17.8 0 0 1-17.8-17.8 17.8 17.8 0 0 1 17.8-17.8 17.8 17.8 0 0 1 17.8 17.8zm-30.39-12.59 25.18 25.17" paint-order="markers"/><path stroke="#ccc" stroke-linecap="round" stroke-miterlimit="4" stroke-width="4" d="M91.8 181.45a17.8 17.8 0 0 1-17.8 17.8 17.8 17.8 0 0 1-17.8-17.8 17.8 17.8 0 0 1 17.8-17.8 17.8 17.8 0 0 1 17.8 17.8z" paint-order="markers"/><path stroke="#737373" stroke-linecap="butt" stroke-miterlimit="4" stroke-width="4" d="M291.8 181.45a17.8 17.8 0 0 1-17.8 17.8 17.8 17.8 0 0 1-17.8-17.8 17.8 17.8 0 0 1 17.8-17.8 17.8 17.8 0 0 1 17.8 17.8zm-30.39-12.59 25.18 25.17" paint-order="markers"/><path fill="#000" fill-rule="evenodd" d="M22.34 322.99h303.32v4.34H22.34Z"/><path stroke="#000" stroke-linecap="butt" stroke-width="2" d="M5.54 5.78v337.67h336.92V5.78z"/><path stroke="#000" stroke-linecap="butt" stroke-width="2" d="M20.58 20.97V74.6h90.87V20.97Zm215.97 0V74.6h90.87V20.97Z"/><path fill="#000" d="M132.57 24.98v45.6h77.8v-45.6Z"/></svg>