<svg xmlns="http://www.w3.org/2000/svg" height="512" width="512" fill="none"><path d="M18 18h476v476H18z" stroke="#000" stroke-width="4"/><circle r="22" cx="448" cy="64" stroke="#000" stroke-width="4"/><text style="line-height:1;-inkscape-font-specification:Oxanium;text-align:center" x="104" y="-132" font-size="53.3" font-family="Oxanium" letter-spacing="0" word-spacing="0" text-anchor="middle" fill="#000"/><g stroke="#000" stroke-width="2" stroke-miterlimit="0"><path d="M159.6 210.6l1.8-14.3-2.2-12.4 2.6-13.8 5-10.2 7.8-6.6 14.5-5.5H204l11.7 2.1 8.6 2.9-2 14.4-7.6 14.1-9.8 10.4-26.2 15z"/><path d="M119 253.7l3.2-15.5 8.3-12.7 15.6-11 13.5-4 19-3.9 26.3-14.9 9.8-10.4 7.6-14 2-14.5 6-7.2 8.5-5.6 20.8-8 2.2-1.3-.4-1.3 2.8-3.5 11.6-4.7 9.3-.7 3 1.3 3.2 8 27.8 13 10.7 8 9.7 12-.3 11 2.5 11.2 3 7.7 3 4 3.4 5.4 9.3 7.2 9.7 4.9 18 7.2 6.7 4.8 5.4 6.5 3.7 6.6 3.3 13.3-1.2 9.9-2.8-8-4.9-6.5-8.2-6-6-.8h-3.2l-4.5 2-5 1-6.9-.5-12.6 10.5-5.3-.1-5.8-2.5-1.7-1.5-6.5-2.3-6.7-5.6-6.4-5-7-1.3-9.4-8.9-4.5-2.3-7-1.7-7 1.4-8 3.4-39 28.8-8.3 4-14.5 3.4-16.9.3-8.1-1.8-5-3.6-3.5-5.7-4.4-7.5-10.5-1-7.4-5-6.6-2-8.3.8-7.6 2-5.4 1.4-4.4 3.6z"/><path d="M339.5 162.7l-.3 11 2.5 11.3 3 7.7 3 4 3.4 5.4 9.3 7.2 9.7 4.9 18 7.2-1.1-8.2-4.1-7.3 1.6-4.6.6-8-1.3-7-3.5-8.2-7.7-8.6-8.6-5.8-12-1.8zM340.8 251.6l5.8 2.5h5.3l12.6-10.4 6.8.5 5.1-1 4.5-2h3.1l3.1.4 2 4 1.8 20.8-4.8 5.8-9.1 5.2-8 1.4-7-1.6-8.1-4.1-6-6.3-5-8.8z"/><path d="M339.1 250.1l1.7 1.5 2.1 6.4 5 8.8 6 6.3 8.1 4.1 7 1.6 8-1.4 9.1-5.2 4.8-5.8-1 6.7-17.6 18.2-15.5-9.7-17-4.4-.8-7.8-1.8-10.1zM237.6 256.6l6 .3 10.8-2.8 6.7.6 1.9 1.6 4.8-1.6 9 .2 2.8 1.5 2.6.4 3.4-1.5 4-.3 5.2 1.6 2.7-.8 3-.1 2.6.5 1.5 1.5 2.3-4 2.4-2 11.2-3.2 5.4-6.3-6.4-5-7-1.3-9.4-8.9-4.5-2.3-7-1.7-7 1.4-8 3.4z"/><path d="M291.6 223l1.1 3-5.7 9.8-3.4 6.6-2.3 5.3-1.7 8.7.3 9.6 2.2 8.7M214.7 181.3l-5.5-.7-6.7.7-3 2.3M161.4 196.3l3.2-5.3 3.9-4.4 5.9-4.2 6.7-2.8M136.5 240.6l.2 7.4 2.2 6 5.3 5.8 8.8 7.8 11 5.3 10 1.2 11.2-2 .6-5.4 4-4.2"/><path d="M159.7 245.7l.4 9.2 3.2-3.7M261.1 254.7l-1.2-3.4M283.6 242.4l-4.4 4.2-5.1 2.3M294.8 256.6l-.6-5.7M307 253.7l-3.7-2-3.3-5.3M371.3 244.2l.4 4.8-1 4.9M384 241.2l-.8 3.7-8 13.2M341.7 185l5.7 3.3 6 2M348 197.2l.6-5.7M382.9 205.9l-4.6-7.5-5.5-5.6M247 165.8l7.6 4.8 7.6 12.6 11.7 31.3M288.5 173l2.8 6.6 5.9 24.7 4 10.2M323 155.2l6.2 6.4 7 8.5M345.5 198.6l-5.9-5.4-6-6M328.3 191.9l3.7 12 5.8 12.7 5.3 8 5.9 7.1M291.3 129.7l-2.4-.8M261.8 130.7l2-1M172.6 226.5l17.4-6.1 8.9-6.3M189 238.4l15.7-11 10.5-10.1L225 205l6.8-15.6-1.3-10.6M136.5 240.6l-7.9 9.8-4 6.8-5.7 23.6-12.2 21.1-1.9 7.2.5 11.8 2.7 8.9 4 2.4-.7-7.8 2.8-6.5 8.3-6.4 8.4-9.2 9-8.7 11.3-9 11.2-5.8L174 274 164 273l-11-5.3-8.8-7.8-5.3-5.8-2.2-6z"/><path d="M112 332.2l4.5 13.8 8 9.5 6.8 1.8 9.5 10.7 5.7 2.4.5-12.2 3-9.4 4.3-8.8 7.6-8.8 18.8 3 18.4 8.3 15 8.7 15 11 16.2 4.1 12.7-1.2 10.4-4.3 11-8.3 8.7 9.8 10.7 5.2 17.2 1.4 13.8-4 13.2-7 8.4-12.9 3.7-12.4 10-1 4.9 4.6 2.6 5.6 1.8 8.8 3.8-2.8 4.1-5.6 5.6-5.1 1.4-3.3-.1-5.4-1-12-2.2-2.4-7.1-15.2-6.6-7.5v0l-15.5-9.7-17-4.4-2.9.3h-.6l-6.3-4.1-8.2-3-7.9-.8-6.4-.6-2-4-.9-7.3-1.5-1.5-2.6-.5-3 .1-2.7.8-5.3-1.6-3.9.3-3.4 1.5-2.6-.4-2.7-1.5-9.1-.2-4.8 1.6-1.9-1.6-6.7-.6-10.7 2.8-6-.3-8.4 4-14.5 3.4 3.8 1.2 2 3-.6 4.3-3.6 4.8-7.2-3.4-12-2.4-12 .5-11.1 2.1-11.8 4.7-11.2 5.8-11.2 9-9.1 8.7-8.4 9.2-8.3 6.4-2.8 6.5z"/><path d="M211.8 285.7l2-4.5 2.6-3.9 3.6-4.8 6.9-5 4.4-2M122.4 311.5l-4 1.6-6.5-.3M131.3 357.3l-2-3-.7-8.7M162 331.2l-17.8-4.1-5.9-3.1M215.6 302l10.4 12.8.5 13.6L231 340M279.3 352.5l7.7-10.1 3.5-11.4 2.7-15.5-2.3-15.1-7.3-15-6.2-8-14-11.1-16.2-6.2M283.6 285.4l4.4-6.8 9-6.6 10.5-3M336.3 277.6l9.2 6.5 5.5 8.5 3.8 10.2 1.5 11v9l-1.2 9.8M365 331.7l6-2.7 3.6-4.8M371 329l2.3.6M264.2 125.9l1.4-3.7-.5-2.5M259.6 132l-.4-3.7L254 113l1.7-2.6"/><path d="M285.1 120.5l-6.3-14.6-3.8-8.6-4-4.5 2.3-6.8-4.4-2-3.6-.3-5.2-2.4.9-1.3-6.8.2-7.5.3.5-1.6-4.6 2.7-2.8 2.2-5 .7-6.7 6-3.1 2.9-2.2-.3-1.5 4 .5 3.5 1.3 2.8 2.3 1-.3 8.2 1.5 1.6 1.9 2 1.3 1.5.9 6.6 8.1 15.7 20.8-8 2.2-1.3-.4-1.3 2.8-3.5 11.6-4.7z"/><path d="M225.4 104.4l3.4.4 7.6-7.4 5.4-2.5 5.4.6 6.1 3.2 1-4.4 2.1-3.3 3.2-.7 2.4-.8 1 2h5.2l2.8 1.3"/><path d="M253.3 98.7l.6 3.9 2.1 2.2 3.4.2 1 3.1 1.7.7.3-5.9 2.3-1.3 3.2 1 2.6 3.1v2.8l4.8 1.3 3.5-3.9-3.8-8.6-4-4.5-2.8-1.3H263l-1.1-2-5.6 1.5-2 3.3z"/><path d="M257.3 96.8l1.4-2.2 2.2-1.3M261.1 97.5l3-2 3.4-.5M270.5 108.5l-.2 4.3-1.7 3.1-3 .3M266.2 114.6l-1.3-.6 1.1-1.3.6-3.5-2-.8-.3-1 .7-2.8 1.8.7 2.2 2.4"/><path d="M266.6 109.2l.5-2-2.8.3.4.9zM241.2 133.5h2l3-2.1M234.5 111.5l1.5.3 4.9-7.1 1.9-1.5h1.9l3.5 2.3-3 .2-3.4 3.3-3.8 4.8-1.8-.8zM234.5 111.5l-1.4-.7-.4-4.8M226.6 114.2l5-.2 1.5 1.3v-2.6l-1.4-.5-6.6.4zM228.5 116.3l1.1-.6 2 .2.8.4.6 1v5.7l-.3 2.7 1.4.4 1.1.4h1l1-1.2.6-1 1.3.3 1.1-1-.4-1-1.3-1.2M235.9 122v-3.2M237 119.9v-3M237.6 115.5l.4-1.7"/><path d="M239.8 122.6l.2-1 4.6-.5 4 .4 3.6 1-6.5 5-3.3 3-1.8.2-1.6 1-.7-.2-1.3 1.4-1.7.2M234.7 126.3l-.4 5M240.3 116.4l2 1.3M240.9 115.3l.1-2.5 5-4 2.8.8"/><path d="M246 108.9l1.9 1.5.2 1.5-1 1-4 2.2M233 117.4l-2.9 2.7"/><path d="M245.7 113.7l-1-.2-.8-1-.2-1.8M231.8 118.5l-1-.4V117l.2-1.2M374.4 350.6l.3 2.1-2.7-.6-13 11.3-26.2 17.2v2l-3.2-3.2 1.6 4 12 23.1 4.4 4 8.7 4.7 2.7 2.8 1.5 6.1 2 1.8-4.5 1.8-13.7.7-9.3-.9-22.4.2-4.6-.5-2.5-2.1-1.7-8-3.5-6.4-5.7-6.4-7.7-9.4-3.4-10.4-.7-6.3 1.6-6.6 2.5-3.6 4.9-3.9"/><path d="M332.8 380.6l-.3-3-1.5-4.6M303.5 371.2l5.9 4.5 3.1 5.5 5.6 15.7 5.2 10.8 7.2 8.8 4 3.7 7.5 2.8 10.6 1.9M146.5 370.4l13 3.8 20.6 2 26.4.2 4.3 1.3.4 4.3 1.8 6.5.2 11.3-3.6 7-4.6 4.2-4 1.6-6.1.1-5.1 3-3.5 3.8-1.1 3-2.1.1-.2 2 3.2 2.5 8.4 3 13.7 2.6 13.6.3 15-2.3 5.3-2.6 2.2-4.4-1-7.6 1.4-6.7 4-8.2 6.7-8.2 5.2-12-.2-6.8-3.3-5.1-4.6-3.5"/><path d="M252 373.6l-6 1.2-7.9 6.2-7 9.3L222 414l-5.8 8.8-8.6 7.2M204.5 366.5l2 9.9 2.4-10.8M212.1 367l-1.7 5.5.4 5.2"/></g></svg>