<svg xmlns="http://www.w3.org/2000/svg" viewBox="0 0 348 348" fill="none"><path d="M5.079 5.776h336.913v337.67H5.08z" stroke-width="2" stroke="#000"/><path d="M282.734 40.554c0-8.376 6.966-15.165 15.56-15.165 4.126 0 8.084 1.597 11.001 4.441 2.918 2.844 4.558 6.702 4.558 10.724 0 8.376-6.966 15.165-15.56 15.165-8.593 0-15.559-6.79-15.559-15.165z" stroke-width="2" stroke="#000"/><path fill="#000" d="M27.11 23.805h217.921v58.39H27.11zM27.503 265.805h292.994v58.39H27.503zM73.201 141.735h131.042v58.39H73.201z"/><g aria-label="&lt;TEXT&gt;" style="line-height:1.25;-inkscape-font-specification:Arial" font-weight="400" font-size="40" font-family="Arial" letter-spacing="0" word-spacing="0" writing-mode="lr-tb" fill="#fff"><path d="M63.736 54.797v-3.281l18.965-8.008v3.496l-15.04 6.172 15.04 6.23v3.496zM95.28 67.316V42.063h-9.434v-3.38h22.695v3.38h-9.473v25.253zM112.525 67.316V38.684h20.703v3.379h-16.914v8.769h15.84v3.36h-15.84v9.746h17.578v3.378zM136.256 67.316l11.074-14.921-9.766-13.711h4.512l5.195 7.343q1.621 2.286 2.305 3.516.957-1.563 2.266-3.262l5.761-7.597h4.121L151.666 52.18l10.84 15.136h-4.688l-7.207-10.214q-.605-.88-1.25-1.914-.957 1.562-1.367 2.148l-7.188 9.98zM173.17 67.316V42.063h-9.434v-3.38h22.695v3.38h-9.472v25.253zM208.404 54.797l-18.965 8.105v-3.496l15.02-6.23-15.02-6.172v-3.496l18.965 8.008z"/></g><g aria-label="&lt;TEXT&gt;" style="line-height:1.25;-inkscape-font-specification:Arial" font-weight="400" font-size="40" font-family="Arial" letter-spacing="0" word-spacing="0" writing-mode="lr-tb" fill="#fff"><path d="M101.666 296.797v-3.281l18.965-8.008v3.496l-15.04 6.172 15.04 6.23v3.496zM133.209 309.316v-25.253h-9.434v-3.38h22.696v3.38h-9.473v25.253zM150.455 309.316v-28.632h20.703v3.379h-16.914v8.769h15.84v3.36h-15.84v9.746h17.578v3.378zM174.186 309.316l11.074-14.921-9.766-13.711h4.512l5.195 7.343q1.621 2.286 2.305 3.516.957-1.563 2.265-3.262l5.762-7.597h4.121l-10.058 13.496 10.84 15.136h-4.688l-7.207-10.214q-.605-.88-1.25-1.914-.957 1.562-1.367 2.148l-7.188 9.98zM211.1 309.316v-25.253h-9.434v-3.38h22.695v3.38h-9.472v25.253zM246.334 296.797l-18.965 8.105v-3.496l15.02-6.23-15.02-6.172v-3.496l18.965 8.008z"/></g><circle cx="40.507" cy="126.93" r="17.726" stroke="#000" stroke-width="2.148" stroke-miterlimit="10"/><path d="M31.045 125.27h7.851v-7.793h3.281v7.793h7.793v3.32h-7.793v7.793h-3.28v-7.793h-7.852z" aria-label="+" font-weight="400" font-size="40" font-family="Arial" letter-spacing="0" word-spacing="0" writing-mode="vertical-lr" fill="#000"/><path stroke="#000" stroke-width="2.2" stroke-miterlimit="10" d="M95.217 217.01h87.012v31.749H95.217z"/><g aria-label="SUBMIT" style="line-height:1.25;-inkscape-font-specification:Arial" font-weight="400" font-size="22.255" font-family="Arial" letter-spacing="0" word-spacing="0" writing-mode="lr-tb" fill="#000" stroke-width=".556"><path d="M100.02 235.927l1.862-.186q.132 1.277.61 2.102.489.812 1.506 1.323 1.017.5 2.288.5 1.13 0 1.994-.384.864-.383 1.281-1.045.428-.673.428-1.463 0-.8-.407-1.393-.407-.603-1.343-1.01-.6-.267-2.655-.824-2.054-.569-2.878-1.068-1.068-.639-1.597-1.58-.519-.951-.519-2.124 0-1.288.641-2.403.64-1.126 1.872-1.707 1.23-.58 2.736-.58 1.658 0 2.919.615 1.271.604 1.953 1.788.681 1.184.732 2.682l-1.892.162q-.152-1.613-1.037-2.438-.875-.824-2.594-.824-1.79 0-2.614.755-.814.743-.814 1.8 0 .916.58 1.509.57.592 2.97 1.219 2.41.615 3.306 1.08 1.302.684 1.922 1.74.62 1.046.62 2.416 0 1.358-.68 2.565-.682 1.196-1.964 1.87-1.271.661-2.868.661-2.024 0-3.397-.673-1.363-.673-2.147-2.02-.773-1.358-.813-3.065zM124.391 224.375h1.973v9.834q0 2.565-.508 4.075-.509 1.509-1.841 2.461-1.323.94-3.479.94-2.095 0-3.428-.824-1.332-.824-1.902-2.38-.57-1.567-.57-4.272v-9.834h1.974v9.822q0 2.218.356 3.274.366 1.045 1.24 1.614.886.569 2.157.569 2.177 0 3.102-1.126.926-1.127.926-4.33zM129.578 241.395v-17.02h5.595q1.708 0 2.736.523 1.037.51 1.617 1.59.59 1.068.59 2.24 0 1.092-.519 2.056-.519.963-1.566 1.555 1.352.453 2.075 1.545.732 1.09.732 2.577 0 1.196-.448 2.23-.437 1.02-1.088 1.578-.65.557-1.637.848-.977.278-2.4.278zm1.974-9.868h3.224q1.312 0 1.882-.198.752-.255 1.129-.847.386-.592.386-1.486 0-.848-.356-1.486-.356-.65-1.017-.883-.661-.243-2.268-.243h-2.98zm0 7.86h3.712q.956 0 1.343-.082.681-.139 1.139-.464.458-.325.753-.94.295-.627.295-1.44 0-.952-.428-1.649-.427-.708-1.19-.987-.752-.29-2.176-.29h-3.448zM143.513 241.395v-17.02h2.97l3.53 12.051q.488 1.684.711 2.52.255-.93.794-2.729l3.57-11.842h2.655v17.02h-1.902V227.15l-4.333 14.245h-1.78l-4.313-14.489v14.49zM161.282 241.395v-17.02h1.973v17.02zM170.518 241.395v-15.011h-4.913v-2.009h11.819v2.009h-4.933v15.011z"/></g><path stroke="#000" stroke-width="1.759" stroke-miterlimit="10" d="M78.537 95.087h54.984v32.097H78.537z"/><g aria-label="DEL" style="line-height:1.25;-inkscape-font-specification:Arial" font-weight="400" font-size="25.218" font-family="Arial" letter-spacing="0" word-spacing="0" fill="#000" stroke-width="1.051"><path d="M84.077 119.702V102.57h5.903q1.999 0 3.05.245 1.474.339 2.514 1.227 1.356 1.145 2.022 2.933.678 1.777.678 4.067 0 1.952-.456 3.46-.456 1.507-1.169 2.5-.713.982-1.566 1.554-.842.561-2.046.853-1.192.293-2.746.293zm2.268-2.022h3.658q1.695 0 2.654-.316.97-.315 1.543-.888.806-.806 1.25-2.162.456-1.367.456-3.307 0-2.688-.888-4.125-.877-1.45-2.14-1.94-.91-.35-2.933-.35h-3.6zM101.423 119.702V102.57h12.39v2.021h-10.122v5.248h9.48v2.01h-9.48v5.83h10.52v2.023zM117.273 119.702V102.57h2.268v15.11h8.44v2.022z"/></g><path stroke="#000" stroke-width="1.759" stroke-miterlimit="10" d="M142.53 95.087h54.984v32.097H142.53z"/><g aria-label="CLR" style="line-height:1.25;-inkscape-font-specification:Arial" font-weight="400" font-size="25.218" font-family="Arial" letter-spacing="0" word-spacing="0" fill="#000" stroke-width="1.051"><path d="M159.695 113.695l2.268.573q-.713 2.793-2.572 4.265-1.847 1.46-4.523 1.46-2.77 0-4.512-1.121-1.73-1.134-2.642-3.272-.9-2.139-.9-4.593 0-2.676 1.017-4.663 1.029-1.998 2.91-3.026 1.894-1.04 4.162-1.04 2.571 0 4.325 1.308 1.753 1.31 2.443 3.682l-2.233.525q-.596-1.87-1.73-2.722-1.134-.854-2.852-.854-1.975 0-3.308.947-1.32.947-1.858 2.548-.538 1.589-.538 3.283 0 2.186.631 3.822.643 1.624 1.987 2.43 1.344.807 2.91.807 1.906 0 3.227-1.099 1.32-1.098 1.788-3.26zM164.675 119.702V102.57h2.267v15.11h8.44v2.022zM178.128 119.702V102.57h7.598q2.29 0 3.483.467 1.192.456 1.905 1.625.713 1.168.713 2.582 0 1.823-1.18 3.074-1.18 1.25-3.647 1.589.9.432 1.368.853.993.912 1.881 2.279l2.981 4.663h-2.852l-2.268-3.565q-.993-1.542-1.636-2.36-.643-.818-1.157-1.145-.503-.328-1.029-.456-.386-.082-1.262-.082h-2.63v7.608zm2.268-9.571h4.874q1.555 0 2.431-.316.877-.327 1.333-1.028.456-.713.456-1.543 0-1.215-.889-1.998-.876-.783-2.782-.783h-5.423z"/></g><path d="M243.044 97.638h18.43v20.815h-18.43z" stroke="#000" stroke-width="2.017" stroke-miterlimit="10"/><path d="M247.402 115.31v-14.53h4.827q1.474 0 2.36.446.895.437 1.396 1.358.508.912.508 1.913 0 .932-.447 1.754-.448.823-1.352 1.328 1.168.387 1.79 1.319.633.931.633 2.2 0 1.02-.387 1.903-.377.872-.939 1.348-.561.475-1.412.723-.843.238-2.072.238zm1.702-8.424h2.782q1.132 0 1.624-.169.65-.218.974-.723.333-.506.333-1.269 0-.723-.307-1.269-.307-.555-.877-.753-.57-.208-1.957-.208h-2.572zm0 6.71h3.203q.825 0 1.159-.07.588-.119.983-.396.395-.278.65-.803.254-.535.254-1.23 0-.812-.369-1.407-.369-.604-1.027-.842-.65-.248-1.878-.248h-2.975z" writing-mode="lr-tb" aria-label="B" style="writing-mode:lr-tb;stroke-width:0.41234031" font-weight="400" font-size="16.494" font-family="Arial" letter-spacing="0" word-spacing="0" fill="#000" stroke-width=".412"/><path d="M265.833 97.638h18.43v20.815h-18.43z" stroke="#000" stroke-width="2.017" stroke-miterlimit="10"/><path d="M279.033 110.216l1.702.485q-.535 2.37-1.93 3.618-1.387 1.239-3.397 1.239-2.08 0-3.387-.952-1.299-.961-1.983-2.775-.676-1.813-.676-3.895 0-2.27.763-3.954.773-1.695 2.185-2.567 1.422-.882 3.125-.882 1.93 0 3.247 1.11 1.316 1.11 1.834 3.122l-1.676.446q-.448-1.586-1.3-2.31-.85-.723-2.14-.723-1.484 0-2.484.803-.992.802-1.395 2.16-.404 1.348-.404 2.785 0 1.854.474 3.241.483 1.378 1.492 2.062 1.009.684 2.185.684 1.43 0 2.422-.932.992-.932 1.343-2.765z" writing-mode="lr-tb" aria-label="C" style="writing-mode:lr-tb;stroke-width:0.41234031" font-weight="400" font-size="16.494" font-family="Arial" letter-spacing="0" word-spacing="0" fill="#000" stroke-width=".412"/><path d="M288.622 97.638h18.431v20.815h-18.43z" stroke="#000" stroke-width="2.017" stroke-miterlimit="10"/><path d="M292.52 115.31v-14.53h4.431q1.501 0 2.29.209 1.107.287 1.888 1.04 1.018.972 1.518 2.488.509 1.506.509 3.449 0 1.655-.342 2.934-.343 1.278-.878 2.12-.535.833-1.176 1.319-.632.476-1.536.723-.895.248-2.062.248zm1.702-1.715h2.747q1.272 0 1.992-.267.728-.268 1.158-.753.606-.684.94-1.834.342-1.16.342-2.805 0-2.28-.667-3.498-.658-1.23-1.606-1.646-.685-.297-2.203-.297h-2.703z" writing-mode="lr-tb" aria-label="D" style="writing-mode:lr-tb;stroke-width:0.41234031" font-weight="400" font-size="16.494" font-family="Arial" letter-spacing="0" word-spacing="0" fill="#000" stroke-width=".412"/><path d="M220.082 123.375h18.43v20.815h-18.43z" stroke="#000" stroke-width="2.017" stroke-miterlimit="10"/><path d="M224.958 141.048v-14.53h8.68v1.715h-6.977v4.5h6.037v1.714h-6.037v6.6z" writing-mode="lr-tb" aria-label="F" style="writing-mode:lr-tb;stroke-width:0.41234031" font-weight="400" font-size="16.494" font-family="Arial" letter-spacing="0" word-spacing="0" fill="#000" stroke-width=".412"/><path d="M243.044 123.375h18.43v20.815h-18.43z" stroke="#000" stroke-width="2.017" stroke-miterlimit="10"/><path d="M252.76 135.349v-1.705l5.45-.01v5.392q-1.256 1.13-2.59 1.705-1.334.565-2.738.565-1.895 0-3.449-.912-1.544-.922-2.334-2.656-.79-1.735-.79-3.876 0-2.12.781-3.954.79-1.844 2.264-2.736 1.475-.892 3.397-.892 1.395 0 2.518.516 1.132.505 1.773 1.417.64.912.974 2.379l-1.536.475q-.29-1.11-.72-1.744-.43-.634-1.228-1.01-.798-.387-1.773-.387-1.167 0-2.018.406-.851.396-1.378 1.05-.518.655-.807 1.438-.492 1.348-.492 2.923 0 1.943.588 3.251.597 1.308 1.73 1.943 1.131.634 2.404.634 1.106 0 2.159-.476 1.053-.485 1.597-1.03v-2.706z" writing-mode="lr-tb" aria-label="G" style="writing-mode:lr-tb;stroke-width:0.41234031" font-weight="400" font-size="16.494" font-family="Arial" letter-spacing="0" word-spacing="0" fill="#000" stroke-width=".412"/><path d="M265.833 123.375h18.43v20.815h-18.43z" stroke="#000" stroke-width="2.017" stroke-miterlimit="10"/><path d="M270.002 141.048v-14.53h1.703v5.967h6.687v-5.967h1.703v14.53h-1.703v-6.849h-6.687v6.849z" writing-mode="lr-tb" aria-label="H" style="writing-mode:lr-tb;stroke-width:0.41234031" font-weight="400" font-size="16.494" font-family="Arial" letter-spacing="0" word-spacing="0" fill="#000" stroke-width=".412"/><path d="M311.412 123.375h18.43v20.815h-18.43z" stroke="#000" stroke-width="2.017" stroke-miterlimit="10"/><path d="M317.091 136.8l1.536-.237q.061 1.665.553 2.28.491.614 1.36.614.64 0 1.106-.327.465-.337.64-.902.176-.575.176-1.824v-10.01h1.702v9.901q0 1.824-.395 2.825-.386 1.001-1.237 1.526-.842.526-1.983.526-1.694 0-2.598-1.1-.895-1.1-.86-3.271z" writing-mode="lr-tb" aria-label="J" style="writing-mode:lr-tb;stroke-width:0.41234031" font-weight="400" font-size="16.494" font-family="Arial" letter-spacing="0" word-spacing="0" fill="#000" stroke-width=".412"/><path d="M220.082 149.113h18.43v20.815h-18.43z" stroke="#000" stroke-width="2.017" stroke-miterlimit="10"/><path d="M223.98 166.785v-14.53h1.702v7.206l6.389-7.205h2.308l-5.397 5.887 5.634 8.642h-2.247l-4.58-7.354-2.107 2.32v5.034z" writing-mode="lr-tb" aria-label="K" style="writing-mode:lr-tb;stroke-width:0.41234031" font-weight="400" font-size="16.494" font-family="Arial" letter-spacing="0" word-spacing="0" fill="#000" stroke-width=".412"/><path d="M242.872 149.113h18.43v20.815h-18.43z" stroke="#000" stroke-width="2.017" stroke-miterlimit="10"/><path d="M248.068 166.785v-14.53h1.702v12.816h6.336v1.714z" writing-mode="lr-tb" aria-label="L" style="writing-mode:lr-tb;stroke-width:0.41234031" font-weight="400" font-size="16.494" font-family="Arial" letter-spacing="0" word-spacing="0" fill="#000" stroke-width=".412"/><path d="M265.66 149.113h18.431v20.815h-18.43z" stroke="#000" stroke-width="2.017" stroke-miterlimit="10"/><path d="M268.738 166.785v-14.53h2.562l3.045 10.288q.421 1.438.615 2.151.219-.793.684-2.329l3.08-10.11h2.29v14.53h-1.64v-12.16l-3.739 12.16H274.1l-3.721-12.369v12.37z" writing-mode="lr-tb" aria-label="M" style="writing-mode:lr-tb;stroke-width:0.41234031" font-weight="400" font-size="16.494" font-family="Arial" letter-spacing="0" word-spacing="0" fill="#000" stroke-width=".412"/><path d="M288.45 149.113h18.43v20.815h-18.43z" stroke="#000" stroke-width="2.017" stroke-miterlimit="10"/><path d="M292.597 166.785v-14.53h1.747l6.757 11.408v-11.407h1.632v14.53h-1.746l-6.757-11.418v11.417z" writing-mode="lr-tb" aria-label="N" style="writing-mode:lr-tb;stroke-width:0.41234031" font-weight="400" font-size="16.494" font-family="Arial" letter-spacing="0" word-spacing="0" fill="#000" stroke-width=".412"/><path d="M311.24 149.113h18.43v20.815h-18.43z" stroke="#000" stroke-width="2.017" stroke-miterlimit="10"/><path d="M314.303 159.714q0-3.618 1.72-5.66 1.72-2.051 4.44-2.051 1.782 0 3.212.961 1.43.962 2.177 2.686.754 1.715.754 3.895 0 2.21-.79 3.955-.79 1.744-2.237 2.646-1.448.892-3.124.892-1.817 0-3.247-.991t-2.168-2.706q-.737-1.714-.737-3.627zm1.755.03q0 2.626 1.246 4.142 1.255 1.507 3.142 1.507 1.922 0 3.16-1.526 1.245-1.527 1.245-4.332 0-1.774-.535-3.092-.527-1.328-1.553-2.051-1.018-.734-2.29-.734-1.809 0-3.116 1.408-1.299 1.397-1.299 4.678z" writing-mode="lr-tb" aria-label="O" style="writing-mode:lr-tb;stroke-width:0.41234031" font-weight="400" font-size="16.494" font-family="Arial" letter-spacing="0" word-spacing="0" fill="#000" stroke-width=".412"/><path d="M220.082 174.85h18.43v20.816h-18.43z" stroke="#000" stroke-width="2.017" stroke-miterlimit="10"/><path d="M224.388 192.523v-14.53h4.853q1.28 0 1.957.14.947.177 1.588.683.64.496 1.027 1.397.395.902.395 1.983 0 1.853-1.045 3.141-1.044 1.279-3.773 1.279h-3.3v5.907zm1.702-7.622h3.326q1.65 0 2.343-.693.694-.694.694-1.953 0-.912-.413-1.556-.404-.654-1.07-.862-.43-.129-1.589-.129h-3.29z" writing-mode="lr-tb" aria-label="P" style="writing-mode:lr-tb;stroke-width:0.41234031" font-weight="400" font-size="16.494" font-family="Arial" letter-spacing="0" word-spacing="0" fill="#000" stroke-width=".412"/><path d="M242.872 174.85h18.43v20.816h-18.43z" stroke="#000" stroke-width="2.017" stroke-miterlimit="10"/><path d="M256.176 190.53q1.185.923 2.186 1.349l-.5 1.338q-1.387-.565-2.765-1.784-1.43.902-3.16.902-1.746 0-3.167-.952-1.422-.951-2.194-2.676-.764-1.724-.764-3.885 0-2.15.773-3.915.772-1.764 2.193-2.686 1.43-.921 3.195-.921 1.781 0 3.212.96 1.43.952 2.176 2.677.755 1.715.755 3.875 0 1.794-.483 3.231-.483 1.427-1.457 2.488zm-3.747-2.457q1.474.466 2.431 1.387 1.5-1.546 1.5-4.648 0-1.764-.535-3.082-.526-1.318-1.553-2.042-1.018-.733-2.29-.733-1.905 0-3.16 1.476-1.255 1.467-1.255 4.391 0 2.835 1.238 4.351 1.246 1.516 3.177 1.516.912 0 1.72-.386-.799-.585-1.685-.833z" writing-mode="lr-tb" aria-label="Q" style="writing-mode:lr-tb;stroke-width:0.41234031" font-weight="400" font-size="16.494" font-family="Arial" letter-spacing="0" word-spacing="0" fill="#000" stroke-width=".412"/><path d="M265.66 174.85h18.431v20.816h-18.43z" stroke="#000" stroke-width="2.017" stroke-miterlimit="10"/><path d="M269.207 192.523v-14.53h5.704q1.72 0 2.615.397.896.386 1.43 1.377.536.992.536 2.19 0 1.547-.886 2.607-.886 1.06-2.738 1.348.676.367 1.027.724.746.773 1.412 1.932l2.238 3.955h-2.141l-1.702-3.023q-.746-1.308-1.23-2.002-.482-.694-.868-.971-.377-.278-.772-.387-.29-.07-.948-.07h-1.974v6.453zm1.703-8.117h3.659q1.167 0 1.825-.268.659-.277 1-.872.343-.605.343-1.308 0-1.031-.667-1.695-.658-.664-2.089-.664h-4.071z" writing-mode="lr-tb" aria-label="R" style="writing-mode:lr-tb;stroke-width:0.41234031" font-weight="400" font-size="16.494" font-family="Arial" letter-spacing="0" word-spacing="0" fill="#000" stroke-width=".412"/><path d="M288.45 174.85h18.43v20.816h-18.43z" stroke="#000" stroke-width="2.017" stroke-miterlimit="10"/><path d="M292.545 187.855l1.606-.159q.114 1.09.526 1.794.422.694 1.3 1.13.877.426 1.974.426.974 0 1.72-.327t1.105-.892q.369-.575.369-1.249 0-.683-.351-1.189-.351-.515-1.158-.862-.518-.228-2.29-.704-1.774-.486-2.484-.912-.922-.545-1.378-1.348-.448-.812-.448-1.813 0-1.1.553-2.052.553-.961 1.615-1.457 1.062-.495 2.36-.495 1.431 0 2.52.525 1.096.515 1.684 1.526.588 1.011.632 2.29l-1.632.138q-.132-1.377-.895-2.081-.755-.704-2.238-.704-1.545 0-2.256.645-.702.634-.702 1.536 0 .783.5 1.288.492.506 2.563 1.04 2.08.526 2.852.923 1.123.584 1.659 1.486.535.892.535 2.062 0 1.16-.588 2.19-.588 1.021-1.694 1.596-1.097.565-2.474.565-1.747 0-2.931-.575-1.176-.575-1.852-1.725-.667-1.16-.702-2.616z" writing-mode="lr-tb" aria-label="S" style="writing-mode:lr-tb;stroke-width:0.41234031" font-weight="400" font-size="16.494" font-family="Arial" letter-spacing="0" word-spacing="0" fill="#000" stroke-width=".412"/><path d="M311.24 174.85h18.43v20.816h-18.43z" stroke="#000" stroke-width="2.017" stroke-miterlimit="10"/><path d="M319.595 192.523v-12.815h-4.239v-1.715h10.197v1.715h-4.256v12.815z" writing-mode="lr-tb" aria-label="T" style="writing-mode:lr-tb;stroke-width:0.41234031" font-weight="400" font-size="16.494" font-family="Arial" letter-spacing="0" word-spacing="0" fill="#000" stroke-width=".412"/><path d="M220.082 200.588h18.43v20.815h-18.43z" stroke="#000" stroke-width="2.017" stroke-miterlimit="10"/><path d="M232.654 203.607h1.703v8.395q0 2.19-.439 3.479-.439 1.288-1.588 2.1-1.141.804-3.002.804-1.807 0-2.957-.704t-1.641-2.032q-.492-1.338-.492-3.647v-8.395h1.703v8.385q0 1.893.307 2.795.316.892 1.07 1.377.764.486 1.861.486 1.878 0 2.677-.961.798-.962.798-3.697z" writing-mode="lr-tb" aria-label="U" style="writing-mode:lr-tb;stroke-width:0.41234031" font-weight="400" font-size="16.494" font-family="Arial" letter-spacing="0" word-spacing="0" fill="#000" stroke-width=".412"/><path d="M242.872 200.588h18.43v20.815h-18.43z" stroke="#000" stroke-width="2.017" stroke-miterlimit="10"/><path d="M251.187 218.26l-4.984-14.529h1.843l3.343 10.555q.404 1.269.676 2.379.298-1.19.693-2.379l3.475-10.555h1.738l-5.037 14.53z" writing-mode="lr-tb" aria-label="V" style="writing-mode:lr-tb;stroke-width:0.41234031" font-weight="400" font-size="16.494" font-family="Arial" letter-spacing="0" word-spacing="0" fill="#000" stroke-width=".412"/><path d="M265.66 200.588h18.431v20.815h-18.43z" stroke="#000" stroke-width="2.017" stroke-miterlimit="10"/><path d="M270.603 218.26l-3.004-14.529h1.537l1.721 9.525q.278 1.496.48 2.973.432-2.33.509-2.686L274 203.73h1.807l1.62 7.354q.61 2.735.881 5.144.216-1.378.564-3.162l1.776-9.336h1.505l-3.104 14.53h-1.444l-2.385-11.071q-.301-1.388-.355-1.705-.178 1.001-.332 1.705l-2.402 11.07z" writing-mode="lr-tb" aria-label="W" style="writing-mode:lr-tb;stroke-width:0.38676623" font-weight="400" font-size="15.471" font-family="Arial" letter-spacing="0" word-spacing="0" fill="#000" stroke-width=".387"/><path d="M288.45 200.588h18.43v20.815h-18.43z" stroke="#000" stroke-width="2.017" stroke-miterlimit="10"/><path d="M291.768 218.26l4.976-7.571-4.388-6.958h2.027l2.335 3.727q.728 1.16 1.035 1.784.43-.793 1.018-1.656l2.589-3.855h1.852l-4.52 6.849 4.87 7.68h-2.105l-3.239-5.183q-.272-.446-.561-.971-.43.793-.615 1.09l-3.23 5.065z" writing-mode="lr-tb" aria-label="X" style="writing-mode:lr-tb;stroke-width:0.41234031" font-weight="400" font-size="16.494" font-family="Arial" letter-spacing="0" word-spacing="0" fill="#000" stroke-width=".412"/><path d="M311.24 200.588h18.43v20.815h-18.43z" stroke="#000" stroke-width="2.017" stroke-miterlimit="10"/><path d="M319.516 218.26v-6.154l-4.959-8.375h2.071l2.537 4.38q.702 1.23 1.307 2.459.58-1.14 1.404-2.567l2.493-4.272h1.983l-5.134 8.375v6.155z" writing-mode="lr-tb" aria-label="Y" style="writing-mode:lr-tb;stroke-width:0.41234031" font-weight="400" font-size="16.494" font-family="Arial" letter-spacing="0" word-spacing="0" fill="#000" stroke-width=".412"/><path d="M265.66 226.326h18.431v20.815h-18.43z" stroke="#000" stroke-width="2.017" stroke-miterlimit="10"/><path d="M269.79 243.998v-1.784l6.591-9.306q.702-.991 1.334-1.725h-7.178v-1.714h9.214v1.714l-7.222 10.08-.781 1.02h8.214v1.715z" writing-mode="lr-tb" aria-label="Z" style="writing-mode:lr-tb;stroke-width:0.41234031" font-weight="400" font-size="16.494" font-family="Arial" letter-spacing="0" word-spacing="0" fill="#000" stroke-width=".412"/><path d="M288.45 226.326h18.43v20.815h-18.43zM242.872 226.326h18.43v20.815h-18.43zM220.082 97.638h18.43v20.815h-18.43z" stroke="#000" stroke-width="2.017" stroke-miterlimit="10"/><path d="M223.277 115.31l4.941-14.53h1.834l5.266 14.53h-1.94l-1.5-4.4h-5.38l-1.413 4.4zm3.713-5.966h4.361l-1.343-4.024q-.614-1.834-.912-3.013-.246 1.397-.693 2.775z" writing-mode="lr-tb" aria-label="A" style="writing-mode:lr-tb;stroke-width:0.41234031" font-weight="400" font-size="16.494" font-family="Arial" letter-spacing="0" word-spacing="0" fill="#000" stroke-width=".412"/><path d="M311.412 97.638h18.43v20.815h-18.43z" stroke="#000" stroke-width="2.017" stroke-miterlimit="10"/><path d="M315.827 115.31v-14.53h9.302v1.715h-7.6v4.45h7.117v1.705h-7.117v4.945h7.898v1.715z" writing-mode="lr-tb" aria-label="E" style="writing-mode:lr-tb;stroke-width:0.41234031" font-weight="400" font-size="16.494" font-family="Arial" letter-spacing="0" word-spacing="0" fill="#000" stroke-width=".412"/><path d="M288.622 123.375h18.431v20.815h-18.43z" stroke="#000" stroke-width="2.017" stroke-miterlimit="10"/><path d="M296.987 141.048v-14.53h1.702v14.53z" writing-mode="lr-tb" aria-label="I" style="writing-mode:lr-tb;stroke-width:0.41234031" font-weight="400" font-size="16.494" font-family="Arial" letter-spacing="0" word-spacing="0" fill="#000" stroke-width=".412"/><path d="M311.24 226.326h18.43v20.815h-18.43zM220.082 226.326h18.43v20.815h-18.43z" stroke="#000" stroke-width="2.017" stroke-miterlimit="10"/><g aria-label="Up" style="line-height:1.25;-inkscape-font-specification:Arial" font-weight="400" font-size="12.594" font-family="Arial" letter-spacing="0" word-spacing="0" fill="#000" stroke-width=".315"><path d="M227.87 229.117h1.21v6.889q0 1.797-.312 2.854-.312 1.057-1.13 1.724-.81.659-2.132.659-1.284 0-2.101-.578-.817-.577-1.166-1.667-.35-1.098-.35-2.992v-6.889h1.21v6.88q0 1.554.219 2.294.224.732.76 1.13.543.399 1.322.399 1.335 0 1.902-.79.568-.788.568-3.033zM230.956 244.35v-11.947h1.023v1.122q.362-.659.817-.984.455-.333 1.104-.333.848 0 1.496.569.649.57.98 1.61.33 1.033.33 2.27 0 1.325-.368 2.39-.362 1.057-1.06 1.627-.692.56-1.46.56-.56 0-1.01-.308-.442-.31-.73-.781v4.204zm1.017-7.58q0 1.667.517 2.464.518.797 1.254.797.748 0 1.278-.821.536-.83.536-2.562 0-1.65-.523-2.472-.518-.822-1.241-.822-.717 0-1.272.879-.55.87-.55 2.537z"/></g><g aria-label="Lw" style="line-height:1.25;-inkscape-font-specification:Arial" font-weight="400" font-size="13.387" font-family="Arial" letter-spacing="0" word-spacing="0" fill="#000" stroke-width=".335"><path d="M244.94 243.942v-14.417h1.131v12.716h4.207v1.701zM252.637 243.942l-1.893-10.444h1.084l.984 6.028.367 2.243.32-2.154.985-6.117h1.078l.927 6.058.309 1.996.355-2.016 1.06-6.038h1.02l-1.934 10.444h-1.09l-.985-6.255-.238-1.78-1.253 8.035z"/></g><g aria-label="Dm" style="line-height:1.25;-inkscape-font-specification:Arial" font-weight="400" font-size="12.394" font-family="Arial" letter-spacing="0" word-spacing="0" fill="#000" stroke-width=".31"><path d="M290.434 243.942v-14.417h2.522q.854 0 1.303.206.63.285 1.074 1.033.58.964.864 2.468.29 1.495.29 3.423 0 1.642-.195 2.91-.195 1.27-.5 2.105-.304.826-.669 1.308-.36.472-.874.718-.509.246-1.173.246zm.969-1.701h1.563q.724 0 1.134-.266.414-.265.659-.747.344-.679.534-1.82.195-1.15.195-2.783 0-2.262-.38-3.471-.374-1.22-.913-1.633-.39-.295-1.254-.295h-1.538zM297.71 243.942v-10.444h.804v1.465q.25-.767.665-1.23.414-.471.944-.471.589 0 .963.482.38.482.535 1.347.63-1.83 1.638-1.83.789 0 1.213.866.425.856.425 2.646v7.17h-.894v-6.58q0-1.062-.09-1.525-.085-.472-.315-.757-.23-.285-.539-.285-.56 0-.929.738-.37.727-.37 2.34v6.068h-.898v-6.786q0-1.18-.22-1.77-.22-.59-.72-.59-.379 0-.703.393-.32.394-.465 1.151-.145.757-.145 2.183v5.42z"/></g><g aria-label="Mc" style="line-height:1.25;-inkscape-font-specification:Arial" font-weight="400" font-size="12.402" font-family="Arial" letter-spacing="0" word-spacing="0" fill="#000" stroke-width=".31"><path d="M313.396 243.166v-13.079h1.61l1.912 9.26q.265 1.294.386 1.936.138-.713.43-2.096l1.935-9.1h1.439v13.079h-1.03v-10.947l-2.35 10.947h-.964l-2.337-11.134v11.134zM326.538 239.695l.976.205q-.16 1.633-.822 2.56-.656.92-1.615.92-1.202 0-1.935-1.267-.728-1.276-.728-3.649 0-1.534.315-2.685.314-1.151.953-1.722.645-.58 1.4-.58.954 0 1.56.785.607.776.778 2.213l-.965.24q-.138-.954-.49-1.436-.348-.481-.844-.481-.75 0-1.218.874-.469.865-.469 2.748 0 1.909.452 2.774t1.18.865q.584 0 .976-.58.391-.58.496-1.784z"/></g><circle cx="40.507" cy="214.93" r="17.726" stroke="#000" stroke-width="2.148" stroke-miterlimit="10"/><g style="line-height:1.25;-inkscape-font-specification:Arial"><path d="M35.107 216.697v-3.535h10.8v3.535z" aria-label="-" font-weight="400" font-size="40" font-family="Arial" letter-spacing="0" word-spacing="0" fill="#000"/></g><path fill="#000" d="M21.436 151.504H59.58v38.852H21.436z"/><path d="M45.044 181.71H42.02v-16.8q-1.092.908-2.873 1.816-1.764.908-3.176 1.363v-2.549q2.537-1.04 4.436-2.52 1.898-1.478 2.688-2.87h1.949z" fill="#fff" aria-label="1" style="fill:#ffffff;stroke-width:0.80314875" font-weight="400" font-size="32.126" font-family="Arial" letter-spacing="0" word-spacing="0" stroke-width=".803"/></svg>