<?xml version="1.0" encoding="UTF-8" standalone="no"?>
<svg
   xmlns:dc="http://purl.org/dc/elements/1.1/"
   xmlns:cc="http://creativecommons.org/ns#"
   xmlns:rdf="http://www.w3.org/1999/02/22-rdf-syntax-ns#"
   xmlns:svg="http://www.w3.org/2000/svg"
   xmlns="http://www.w3.org/2000/svg"
   xmlns:sodipodi="http://sodipodi.sourceforge.net/DTD/sodipodi-0.dtd"
   xmlns:inkscape="http://www.inkscape.org/namespaces/inkscape"
   sodipodi:docname="OneItemOneMeal.svg"
   inkscape:version="1.0 (4035a4fb49, 2020-05-01)"
   id="svg8"
   version="1.1"
   viewBox="0 0 89.670731 89.871017"
   height="89.871017mm"
   width="89.670731mm">
  <defs
     id="defs2" />
  <sodipodi:namedview
     inkscape:window-maximized="1"
     inkscape:window-y="-8"
     inkscape:window-x="1912"
     inkscape:window-height="1017"
     inkscape:window-width="1920"
     showgrid="false"
     inkscape:document-rotation="0"
     inkscape:current-layer="layer1-7"
     inkscape:document-units="mm"
     inkscape:cy="180.4581"
     inkscape:cx="237.02156"
     inkscape:zoom="1.4"
     inkscape:pageshadow="2"
     inkscape:pageopacity="0.0"
     borderopacity="1.0"
     bordercolor="#666666"
     pagecolor="#ffffff"
     id="base" />
  <metadata
     id="metadata5">
    <rdf:RDF>
      <cc:Work
         rdf:about="">
        <dc:format>image/svg+xml</dc:format>
        <dc:type
           rdf:resource="http://purl.org/dc/dcmitype/StillImage" />
        <dc:title></dc:title>
      </cc:Work>
    </rdf:RDF>
  </metadata>
  <g
     transform="translate(-132.05749,159.08432)"
     id="layer1"
     inkscape:groupmode="layer"
     inkscape:label="Layer 1">
    <g
       transform="translate(-199.57143,-166.30952)"
       id="layer1-7"
       inkscape:label="Layer 1">
      <g
         transform="matrix(0.26458333,0,0,0.26458333,330.54969,5.9615545)"
         id="g847"
         style="fill:none">
        <path
           d="m 5.079,5.776 h 336.913 v 337.67 H 5.08 Z"
           stroke-width="2"
           stroke="#000000"
           id="path833" />
        <path
           d="m 282.734,40.554 c 0,-8.376 6.966,-15.165 15.56,-15.165 4.126,0 8.084,1.597 11.001,4.441 2.918,2.844 4.558,6.702 4.558,10.724 0,8.376 -6.966,15.165 -15.56,15.165 -8.593,0 -15.559,-6.79 -15.559,-15.165 z"
           stroke-width="2"
           stroke="#000000"
           id="path835" />
      </g>
      <path
         d="m 336.20984,77.516411 h 80.50893 v 15.65472 h -80.50893 z"
         style="fill:#000000;fill-rule:evenodd;stroke:#000000;stroke-width:0.858083;stroke-miterlimit:4;stroke-dasharray:none"
         id="rect959" />
      <g
         style="font-size:13.842px;line-height:1.25;font-family:Arial;-inkscape-font-specification:Arial;letter-spacing:0px;fill:#ffff00;stroke-width:0.324421"
         id="text963"
         aria-label="SUBMIT">
        <path
           id="path1068"
           style="fill:#ffff00;stroke-width:0.324421"
           d="m 350.74711,87.114576 1.23686,-0.10814 q 0.0879,0.743467 0.40553,1.223341 0.32442,0.473115 1.0003,0.770502 0.67588,0.290627 1.52073,0.290627 0.75022,0 1.32472,-0.22304 0.5745,-0.22304 0.85161,-0.608291 0.28387,-0.392009 0.28387,-0.851607 0,-0.466356 -0.27035,-0.811055 -0.27036,-0.351457 -0.89216,-0.588014 -0.39877,-0.155453 -1.76405,-0.479874 -1.36527,-0.331181 -1.91274,-0.621809 -0.70967,-0.371733 -1.06113,-0.919195 -0.34469,-0.554221 -0.34469,-1.236859 0,-0.750225 0.4258,-1.399069 0.4258,-0.655603 1.24362,-0.993542 0.81781,-0.337939 1.81811,-0.337939 1.10168,0 1.93977,0.358215 0.84485,0.351457 1.29769,1.040854 0.45284,0.689396 0.48663,1.56128 l -1.25713,0.09462 q -0.10138,-0.939472 -0.6894,-1.419346 -0.58125,-0.479874 -1.72349,-0.479874 -1.18955,0 -1.73701,0.439322 -0.5407,0.432562 -0.5407,1.047612 0,0.533944 0.38525,0.878643 0.37849,0.344698 1.97357,0.709672 1.60183,0.358216 2.1966,0.628568 0.86513,0.398768 1.27741,1.013818 0.41229,0.608291 0.41229,1.405828 0,0.790779 -0.45284,1.493693 -0.45284,0.696155 -1.30444,1.088165 -0.84485,0.385251 -1.90598,0.385251 -1.345,0 -2.25744,-0.39201 -0.90568,-0.39201 -1.4261,-1.176029 -0.51367,-0.790779 -0.54071,-1.784321 z" />
        <path
           id="path1070"
           style="fill:#ffff00;stroke-width:0.324421"
           d="m 366.94117,80.389581 h 1.31121 v 5.724695 q 0,1.493692 -0.33794,2.372335 -0.33794,0.878642 -1.22334,1.432863 -0.87865,0.547462 -2.31151,0.547462 -1.39231,0 -2.27771,-0.479874 -0.8854,-0.479874 -1.26389,-1.385552 -0.3785,-0.912437 -0.3785,-2.487234 v -5.724695 h 1.31121 v 5.717936 q 0,1.290928 0.23656,1.905978 0.24331,0.608291 0.82457,0.939472 0.58801,0.331181 1.43286,0.331181 1.44638,0 2.06143,-0.655603 0.61505,-0.655602 0.61505,-2.521028 z" />
        <path
           id="path1072"
           style="fill:#ffff00;stroke-width:0.324421"
           d="m 370.38815,90.297966 v -9.908385 h 3.71734 q 1.13548,0 1.81811,0.304146 0.6894,0.297386 1.07465,0.925954 0.39201,0.621808 0.39201,1.304446 0,0.635326 -0.3447,1.196306 -0.3447,0.560979 -1.04085,0.905678 0.89892,0.263592 1.37879,0.898918 0.48663,0.635327 0.48663,1.500452 0,0.696155 -0.29738,1.297687 -0.29063,0.594774 -0.72319,0.919195 -0.43257,0.324422 -1.08817,0.493392 -0.64884,0.162211 -1.59507,0.162211 z m 1.31121,-5.744971 h 2.14254 q 0.87188,0 1.25037,-0.114899 0.50015,-0.148693 0.75023,-0.493392 0.25683,-0.344698 0.25683,-0.865125 0,-0.493391 -0.23656,-0.865125 -0.23655,-0.378492 -0.67588,-0.513668 -0.43932,-0.141934 -1.50721,-0.141934 h -1.98032 z m 0,4.5757 h 2.46696 q 0.63532,0 0.89216,-0.04731 0.45284,-0.0811 0.75698,-0.270352 0.30415,-0.189246 0.50015,-0.547462 0.19601,-0.364974 0.19601,-0.838089 0,-0.554221 -0.28387,-0.959748 -0.28387,-0.412287 -0.79078,-0.574497 -0.50015,-0.16897 -1.44638,-0.16897 h -2.29123 z" />
        <path
           id="path1074"
           style="fill:#ffff00;stroke-width:0.324421"
           d="m 379.6477,90.297966 v -9.908385 h 1.97356 l 2.3453,7.015623 q 0.32442,0.980025 0.47312,1.466658 0.16897,-0.540704 0.52718,-1.588316 l 2.37234,-6.893965 h 1.76404 v 9.908385 h -1.26389 v -8.293034 l -2.87925,8.293034 h -1.18278 l -2.86573,-8.434969 v 8.434969 z" />
        <path
           id="path1076"
           style="fill:#ffff00;stroke-width:0.324421"
           d="m 391.4553,90.297966 v -9.908385 h 1.31121 v 9.908385 z" />
        <path
           id="path1078"
           style="fill:#ffff00;stroke-width:0.324421"
           d="m 397.59228,90.297966 v -8.739114 h -3.26449 v -1.169271 h 7.85371 v 1.169271 h -3.27801 v 8.739114 z" />
      </g>
      <g
         transform="translate(3.570571,4.8970666)"
         id="g1020">
        <path
           d="m 337.03558,14.44954 h 37.46899 V 50.7846 h -37.46899 z"
           style="fill:none;fill-rule:evenodd;stroke:#000000;stroke-width:0.792075;stroke-miterlimit:4;stroke-dasharray:none"
           id="rect957" />
        <g
           id="g1014"
           transform="matrix(0.8641456,0,0,0.8641456,52.482533,-1.2664582)">
          <path
             d="m 386.31458,24.530121 h 26.03449 v 21.054346 h -26.03449 z"
             style="fill:none;fill-rule:evenodd;stroke:#000000;stroke-width:0.777022;stroke-miterlimit:4;stroke-dasharray:none"
             id="rect965-5" />
          <path
             d="m 386.31458,50.988457 h 26.03449 v 21.054348 h -26.03449 z"
             style="fill:none;fill-rule:evenodd;stroke:#000000;stroke-width:0.777023;stroke-miterlimit:4;stroke-dasharray:none"
             id="rect965-5-5" />
        </g>
      </g>
      <path
         d="m 340.44653,58.697075 h 37.78818 v 12.841748 h -37.78818 z"
         style="fill:none;fill-rule:evenodd;stroke:#000000;stroke-width:0.8;stroke-miterlimit:4;stroke-dasharray:none"
         id="rect957-4" />
      <g
         style="font-size:28.2297px;line-height:1.25;font-family:Arial;-inkscape-font-specification:Arial;letter-spacing:0px;stroke-width:0.661632"
         id="text1039"
         transform="rotate(90)"
         aria-label="&lt;">
        <path
           id="path1085"
           style="stroke-width:0.661632"
           d="m 26.886692,-399.89553 v -2.31572 l 13.384296,-5.65145 v 2.46734 l -10.613705,4.35575 10.613705,4.39711 v 2.46734 z" />
      </g>
      <g
         style="font-size:28.2297px;line-height:1.25;font-family:Arial;-inkscape-font-specification:Arial;letter-spacing:0px;stroke-width:0.661633"
         id="text1039-8"
         transform="matrix(0,-1,-1,0,0,0)"
         aria-label="&lt;">
        <path
           id="path1088"
           style="stroke-width:0.661633"
           d="m -63.61536,-399.90933 v -2.31571 l 13.384296,-5.65146 v 2.46734 l -10.613706,4.35576 10.613706,4.39711 v 2.46734 z" />
      </g>
      <g
         style="font-size:9.47178px;line-height:1.25;font-family:Arial;-inkscape-font-specification:Arial;letter-spacing:0px;stroke-width:0.221994"
         id="text1061"
         aria-label="&lt;NUM&gt;">
        <path
           id="path1091"
           style="stroke-width:0.221994"
           d="M 343.53505,65.485632 V 64.70865 l 4.49077,-1.896206 v 0.827855 l -3.56117,1.461467 3.56117,1.47534 v 0.827856 z" />
        <path
           id="path1093"
           style="stroke-width:0.221994"
           d="m 349.26991,68.450188 v -6.780093 h 0.92036 l 3.56116,5.323252 v -5.323252 h 0.86023 v 6.780093 h -0.92035 l -3.56117,-5.327876 v 5.327876 z" />
        <path
           id="path1095"
           style="stroke-width:0.221994"
           d="m 360.57315,61.670095 h 0.89723 v 3.917284 q 0,1.022101 -0.23124,1.623337 -0.23125,0.601237 -0.83711,0.980478 -0.60124,0.374616 -1.58171,0.374616 -0.95273,0 -1.55859,-0.328367 -0.60586,-0.328368 -0.86486,-0.948103 -0.25899,-0.624361 -0.25899,-1.701961 v -3.917284 h 0.89723 v 3.912659 q 0,0.883355 0.16187,1.30422 0.1665,0.41624 0.56424,0.64286 0.40236,0.22662 0.98047,0.22662 0.98973,0 1.4106,-0.448615 0.42086,-0.448614 0.42086,-1.725085 z" />
        <path
           id="path1097"
           style="stroke-width:0.221994"
           d="m 362.9411,68.450188 v -6.780093 h 1.35047 l 1.60483,4.800639 q 0.222,0.670609 0.32375,1.003601 0.11562,-0.369991 0.36074,-1.086849 l 1.62333,-4.717391 h 1.2071 v 6.780093 h -0.86485 v -5.674743 l -1.97021,5.674743 h -0.80935 l -1.96096,-5.771866 v 5.771866 z" />
        <path
           id="path1099"
           style="stroke-width:0.221994"
           d="m 375.14619,65.485632 -4.49077,1.91933 v -0.827856 l 3.55654,-1.47534 -3.55654,-1.461467 v -0.827855 l 4.49077,1.896206 z" />
      </g>
      <g
         style="font-size:10.1929px;line-height:1.25;font-family:Arial;-inkscape-font-specification:Arial;letter-spacing:0px;stroke-width:0.238896"
         id="text1065"
         aria-label="&lt;ITEM&gt;">
        <path
           id="path1102"
           style="stroke-width:0.238896"
           d="m 341.78454,38.035892 v -0.836136 l 4.83266,-2.040571 v 0.890884 l -3.83229,1.572732 3.83229,1.587664 v 0.890883 z" />
        <path
           id="path1104"
           style="stroke-width:0.238896"
           d="m 348.13021,41.226151 v -7.296285 h 0.96554 v 7.296285 z" />
        <path
           id="path1106"
           style="stroke-width:0.238896"
           d="m 352.64933,41.226151 v -6.435264 h -2.40389 v -0.861021 h 5.78328 v 0.861021 h -2.41385 v 6.435264 z" />
        <path
           id="path1108"
           style="stroke-width:0.238896"
           d="m 357.04402,41.226151 v -7.296285 h 5.27563 v 0.861021 h -4.31009 v 2.234674 h 4.03635 v 0.856044 h -4.03635 v 2.483524 h 4.4793 v 0.861022 z" />
        <path
           id="path1110"
           style="stroke-width:0.238896"
           d="m 363.80279,41.226151 v -7.296285 h 1.45329 l 1.72702,5.166128 q 0.23889,0.721665 0.34839,1.080009 0.12442,-0.39816 0.3882,-1.169595 l 1.74693,-5.076542 h 1.299 v 7.296285 h -0.9307 v -6.106782 l -2.1202,6.106782 h -0.87098 l -2.11025,-6.211299 v 6.211299 z" />
        <path
           id="path1112"
           style="stroke-width:0.238896"
           d="m 376.9371,38.035892 -4.83267,2.065456 v -0.890883 l 3.82732,-1.587664 -3.82732,-1.572732 v -0.890884 l 4.83267,2.040571 z" />
      </g>
    </g>
  </g>
</svg>
