<svg xmlns="http://www.w3.org/2000/svg" viewBox="0 0 348 348" fill="none"><path d="M5.079 5.776h336.913v337.67H5.08z" stroke-width="2" stroke="#000"/><path d="M282.734 40.554c0-8.376 6.966-15.165 15.56-15.165 4.126 0 8.084 1.597 11.001 4.441 2.918 2.844 4.558 6.702 4.558 10.724 0 8.376-6.966 15.165-15.56 15.165-8.593 0-15.559-6.79-15.559-15.165z" stroke-width="2" stroke="#000"/><path stroke="#000" stroke-width="3.1" stroke-linejoin="round" d="M30.966 36.864h174v232.983h-174z"/><path d="M54.928 61.195h119.44M55.297 75.572h119.44M55.665 89.58h119.44M56.034 104.695h119.44M55.297 119.81h119.44M55.112 133.633h119.441M55.48 148.01h119.442M55.85 162.02h119.44M56.218 177.133h119.44M55.48 192.248h119.442M55.48 207.362h119.442M55.85 221.74h119.44M56.218 235.748h119.44M56.587 250.862h119.44" stroke="#000" stroke-width="1.3"/><path d="M71.53 155.315l-10.904-7.581V145.9l10.904-7.58v2.66l-8.598 5.836 8.598 5.838zm16.95 1.137h-1.87v-18.96l-3.912 12.902h-1.115L77.7 137.493v18.96h-1.748v-22.004h2.551l3.751 12.25 3.629-12.25h2.598zm14.287-19.476q.86 1.477 1.314 3.62.463 2.143.463 4.862 0 2.719-.473 4.877-.463 2.142-1.304 3.576-.869 1.492-2.06 2.246-1.18.754-2.702.754-1.483 0-2.702-.769-1.21-.768-2.06-2.231-.85-1.463-1.313-3.591-.454-2.128-.454-4.862 0-2.69.454-4.818.453-2.142 1.322-3.664.832-1.449 2.06-2.217 1.238-.769 2.693-.769 1.512 0 2.712.784 1.21.768 2.05 2.202zm-.17 8.482q0-4.286-1.228-6.606-1.228-2.335-3.354-2.335-2.145 0-3.374 2.335-1.218 2.32-1.218 6.606 0 4.33 1.247 6.635 1.247 2.29 3.345 2.29 2.097 0 3.335-2.29 1.247-2.305 1.247-6.635zm16.8.015q0 3-.841 5.438-.831 2.438-2.22 3.783-.964.93-2.155 1.345-1.18.413-3.118.413h-3.552V134.45h3.514q2.06 0 3.27.472 1.219.459 2.06 1.271 1.436 1.404 2.239 3.74.803 2.334.803 5.54zm-1.956-.045q0-2.586-.576-4.359-.577-1.773-1.72-2.793-.831-.739-1.767-1.02-.935-.295-2.24-.295h-1.757v16.98h1.758q1.351 0 2.353-.311 1.01-.31 1.851-1.153 1.05-1.049 1.569-2.763.53-1.714.53-4.286zm15.59 2.187q0 2.394-.34 4.182-.33 1.774-1.096 2.956-.727 1.123-1.7 1.64-.974.518-2.268.518-1.323 0-2.306-.547-.982-.547-1.653-1.611-.766-1.212-1.106-2.926-.33-1.714-.33-4.212V134.45h1.87v13.314q0 1.788.152 2.823.16 1.034.529 1.876.415.961 1.124 1.449.718.487 1.72.487 1.01 0 1.72-.473.708-.487 1.133-1.463.369-.842.52-1.92.16-1.094.16-2.705V134.45h1.871zm12.482 8.837h-8.9V134.45h1.87v19.403h7.03zm11.14 0h-9.27V134.45h9.27v2.6h-7.398v6.03h7.398v2.6h-7.398v8.173h7.398zm14.523-8.718l-10.904 7.58v-2.66l8.598-5.837-8.598-5.837v-2.66l10.904 7.581z" aria-label="&lt;MODULE&gt;" font-weight="400" font-size="24.2" font-family="sans-serif" letter-spacing="0" word-spacing="0" fill="#000" stroke-width=".605"/><path d="M281.111 178.692l28.597 14.866L252.395 303.8 223.8 288.934z" fill="#b3b3b3"/><path d="M223.721 321.322l.079-32.388 28.595 14.866zM297.048 148.194l28.596 14.935-15.935 30.494-28.596-14.935z" fill="#999"/><path d="M223.721 321.322l.018-7.12 6.286 3.268z" fill="#000"/></svg>