<svg xmlns="http://www.w3.org/2000/svg" viewBox="0 0 348 348" fill="none"><path d="M5.079 5.776h336.913v337.67H5.08z" stroke-width="2" stroke="#000"/><path d="M282.734 40.554c0-8.376 6.966-15.165 15.56-15.165 4.126 0 8.084 1.597 11.001 4.441 2.918 2.844 4.558 6.702 4.558 10.724 0 8.376-6.966 15.165-15.56 15.165-8.593 0-15.559-6.79-15.559-15.165z" stroke-width="2" stroke="#000"/><path d="M6.445 7.247v334.96c14.707.934 30.133.133 45.116.4h289.43c.935-14.707.134-30.133.401-45.116V7.247c-14.707-.934-30.132-.133-45.116-.4H6.846zm292.336 17.426c11.18-.544 19.492 12.836 14.35 22.761-5.118 11.815-24.22 11.927-29.455.315-4.933-9.068 1.304-21.755 11.73-22.789a19.078 19.078 0 013.375-.287z" fill="#f60" stroke="#000" stroke-width="1.382" stroke-linecap="round"/><path d="M26.38 12.934c2.03.326 4.047.718 6.094.937 2.37.198 4.75.198 7.127.206 1.862.05 3.738-.129 5.59.088 1.678.152 3.318.5 4.976.778 1.433.098 2.817.403 4.225.662 1.295.16 2.592.403 3.832.815 1.169.262 2.214.843 3.388 1.076 1.588.102 3.148.342 4.722.57 1.359.139 2.695.222 4.031.503 1.313.38 2.685.574 3.994.967 1.407.266 2.737.763 4.074 1.259 1.03.757 2.267.873 3.437 1.252 1.134.406 2.328.496 3.52.556 1.604-.034 3.272.286 4.827-.165 1.279-.81 2.762-1.066 4.149-1.58 3.299-1.16 9.31-5.036-4.478 2.888 3.227-2.403 6.065-3.782 9.378-5.25.565-.251 1.13-.382 1.677-.675 1.356-.68 2.824-1.03 4.323-1.191 1.48-.022 2.899-.419 4.37-.544 1.6-.133 3.208-.176 4.814-.197 1.258-.13 2.455.247 3.689.416 1.58.061 3.132.3 4.696.526 1.339.195 2.691.248 4.042.275a65.75 65.75 0 014.303.772c1.442.193 2.83.623 4.262.865l.636.08-7.417 5.223v0l-.653-.11c-1.42-.296-2.825-.664-4.259-.893-1.395-.291-2.808-.521-4.23-.624-1.365-.055-2.729-.157-4.078-.38-1.57-.238-3.143-.357-4.722-.508-1.194-.189-2.372-.422-3.591-.306-1.583.026-3.168.07-4.741.257-1.453.214-2.896.467-4.362.572-1.466.275-2.871.731-4.202 1.415-3.327 1.234-9.008 4.727 4.54-2.997-3.661 2.118-7.103 4.676-11.156 5.944-1.435.414-2.772 1.062-4.205 1.469-1.654.153-3.321.05-4.979-.002-1.244-.098-2.467-.29-3.648-.712-1.21-.317-2.37-.684-3.46-1.314a31.01 31.01 0 00-4.029-1.188c-1.32-.315-2.64-.626-3.967-.907-1.318-.24-2.66-.26-3.98-.488-1.598-.246-3.203-.368-4.797-.618-1.15-.328-2.238-.843-3.407-1.116a36.203 36.203 0 00-3.78-.744c-1.389-.277-2.784-.47-4.186-.67-1.638-.296-3.277-.572-4.938-.713-1.83-.109-3.668-.003-5.501-.061-2.402-.03-4.807-.072-7.2-.276-2.06-.267-4.093-.715-6.164-.894l7.414-5.248zM173.452 14.647c1.99.035 3.98.047 5.97.047 1.89-.147 3.765-.44 5.66-.554 1.418-.1 2.806-.153 4.2.137 1.078.256 2.117.675 3.142 1.1 1.156.328 2.333.603 3.515.827 1.281.182 2.549.225 3.806.534 1.068.263 2.168.316 3.262.354 1.372.038 2.744.03 4.116.027 1.33-.077 2.61.018 3.873.449 1.198.332 2.353.755 3.334 1.532.888.596 1.76 1.213 2.655 1.805 1.129.526 2.056 1.464 3.27 1.79.935.416 1.6 1.26 2.343 1.943.96.712 2.136 1.078 3.289 1.35 1.35.48 2.13 1.05 3.384.067-12.04 7.031-7.296 5.075-4.932 1.726.779-.872 1.822-1.413 2.646-2.243 2.299-2.736 6.269-3.98 9.098-5.616.49-.284.917-.497 1.458-.671 1.383-.3 2.817-.278 4.226-.29 1.605-.337 3.176-.77 4.805-1.01 1.402-.14 2.784-.191 4.166-.464 1.218-.301 2.493-.19 3.706-.474 1.557-.25 3.126-.386 4.7-.465 1.317-.002 2.596-.04 3.887-.289 1.394-.216 2.803-.3 4.211-.35 1.359-.038 2.718-.024 4.077-.023 1.455 0 2.91.006 4.365.004 1.25.117 2.414.546 3.614.877 1.186.282 2.342.684 3.5 1.065l.566.29-7.575 5.014v0c-.166-.07-.333-.138-.5-.207a57.125 57.125 0 00-3.49-1.031c-1.123-.34-2.258-.662-3.443-.685-1.455-.004-2.91 0-4.365-.003-1.354.001-2.708.008-4.062.061-1.39.071-2.78.189-4.152.442-1.303.18-2.617.115-3.929.2-1.562.102-3.12.264-4.66.556-1.235.128-2.476.22-3.696.476-1.375.211-2.773.19-4.145.436-1.629.29-3.216.83-4.875.904-1.373.048-2.794.048-4.08.59-.858.42-.07.024-.92.48-.159.085-.637.342-.48.25 13.108-7.736 8.823-5.45 6.352-3.647-.653 1.035-1.611 1.68-2.653 2.274-.487.491-.72 1.06-1.166 1.585-2.53 2.98-4.687 3.702-9.353 5.887-1.404.336-2.43-.128-3.748-.583-1.27-.368-2.541-.812-3.551-1.699-.676-.608-1.285-1.34-2.166-1.652-1.17-.564-2.22-1.336-3.357-1.964a62.02 62.02 0 01-2.697-1.838c-.955-.63-2.047-.968-3.143-1.273-1.23-.275-2.466-.277-3.722-.246-1.386-.003-2.772-.004-4.157-.052-1.131-.07-2.258-.192-3.358-.479-1.246-.255-2.528-.247-3.769-.535-1.225-.263-2.475-.482-3.64-.954-.976-.402-1.988-.753-3.028-.939-1.336-.19-2.688-.05-4.03.016-1.875.158-3.744.406-5.627.45-2.033 0-4.067.013-6.1.048l7.373-5.357zM312.218 12.59c1.877 1.03 3.865 1.807 5.878 2.524 1.612.336 3.107.982 4.65 1.528 1.456.406 2.976.438 4.477.479 1.66.034 3.319.015 4.978.004 1.296-.009 2.592-.012 3.887-.013 1.28-.005 2.56.002 3.84.005.727-.06 1.437.11 2.148.227l-7.409 5.22v0c-.686-.089-1.373-.16-2.067-.123-1.285.003-2.57.01-3.856.007l-3.868.002c-1.66-.002-3.321-.005-4.982-.044-1.575-.066-3.17-.165-4.668-.701-1.51-.594-3.036-1.094-4.588-1.566a103.53 103.53 0 01-6.025-2.546l7.605-5.004zM13.397 38.577c1.818.335 3.665.461 5.508.553 1.904.315 3.82.51 5.746.616 1.877-.185 3.467.586 5.163 1.235 1.363.436 2.723.847 4.138 1.08 1.322.078 2.588.449 3.896.636 1.367.091 2.69.43 4.048.605 1.511.173 3.035.179 4.553.204a98.44 98.44 0 005.903.531c1.466-.05 2.875.144 4.307.415.73.113.365.064 1.097.148l-7.424 5.244v0c-.753-.116-.378-.053-1.124-.189-1.387-.263-2.78-.307-4.189-.361-1.963-.14-3.915-.415-5.882-.49-1.55-.015-3.104-.065-4.64-.283-1.357-.208-2.705-.466-4.07-.609-1.3-.226-2.587-.51-3.898-.665a28.691 28.691 0 01-4.223-1.228c-1.667-.667-3.146-1.11-4.976-1.025-1.92-.14-3.824-.382-5.733-.617-1.858-.117-3.706-.335-5.561-.451l7.36-5.349zM121.873 37.826c1.626-.523 3.326-.75 5.019-.932 1.615-.207 3.21-.503 4.84-.617 1.844.01 3.65-.347 5.477-.546 1.62-.103 3.22-.145 4.817-.436 1.275-.247 2.57-.329 3.866-.373 1.371-.11 2.7.04 4.016.424 1.542.506 3.172.534 4.75.84 1.415.327 2.86.66 4.238 1.127 1.4.425 2.68 1.122 4.088 1.527 1.376.54 2.768 1.038 4.158 1.543.26.105.525.196.78.313.801.371.636.388 1.414.733.695.308 1.45.484 2.173.716 1.42.451 2.898.623 4.38.707 1.286-.05 2.527.287 3.793.46 1.669.183 3.352.191 5.029.21 1.956.06 3.888.05 5.79-.441 1.183-.399 2.453-.43 3.627-.833l-7.202 5.525v0c-1.21.236-2.42.472-3.618.77-1.939.333-3.89.282-5.851.24-1.734-.012-3.479.029-5.197-.244-1.244-.199-2.482-.408-3.747-.414-1.52-.146-3.022-.411-4.474-.895-1.527-.475-2.93-1.177-4.4-1.793-1.375-.518-2.77-.976-4.143-1.5-1.378-.476-2.684-1.137-4.096-1.514-1.372-.384-2.733-.835-4.145-1.048-1.611-.235-3.229-.427-4.798-.886-1.287-.257-2.576-.298-3.885-.197a31.611 31.611 0 00-3.79.443c-1.599.22-3.216.184-4.817.386-1.825.218-3.643.462-5.483.522-1.618.174-3.212.5-4.833.645-1.712.22-3.39.58-5.059 1.015l7.283-5.477zM263.013 36.49c2.012-.377 3.972-.973 5.967-1.432 1.835-.408 3.702-.577 5.54-.967 1.304-.283 2.636-.37 3.967-.397 1.448.005 2.902-.111 4.34.094 1.48.27 2.976.397 4.479.463 1.682.053 3.366.057 5.05.057 1.511-.122 2.972.085 4.456.32 1.516.188 3.001.513 4.521.686.841.111 1.695.058 2.522.275.667.174 1.305.488 1.966.689 1.355.284 2.674.675 4.046.878 1.47.106 2.89.465 4.355.628 1.82.104 3.574.625 5.349 1 1.463.47 2.826 1.146 4.346 1.43 1.34.382 2.702.59 4.03 1.003 1.065.323 2.179.38 3.283.42 1.261-.06 2.475.291 3.72.443 1.425.151 2.86.175 4.292.191l-7.33 5.308v0c-1.458-.027-2.917-.074-4.365-.269-1.228-.175-2.446-.405-3.694-.373-1.157-.08-2.309-.221-3.412-.6-1.303-.389-2.653-.596-3.964-.962-1.48-.378-2.84-1.074-4.322-1.446-1.75-.401-3.501-.808-5.3-.926-1.47-.188-2.923-.485-4.398-.647-1.393-.256-2.765-.617-4.133-.98-1.425-.48-2.83-.818-4.35-.85-1.531-.2-3.05-.475-4.58-.682-1.443-.223-2.883-.273-4.343-.23-1.693-.006-3.387-.003-5.079-.09-1.516-.086-3.016-.27-4.519-.489-1.424-.072-2.853-.024-4.278.017-1.302.08-2.597.217-3.873.502-1.813.334-3.66.47-5.448.944-2.017.51-4.035 1.016-6.048 1.54l7.207-5.548zM14.511 69.728c1.798-.408 3.609-.672 5.389-1.157 1.692-.236 3.333-.684 4.979-1.131 1.704-.738 3.452-1.375 5.269-1.78 1.357-.381 2.797-.316 4.153-.684.55-.15 1.083-.36 1.629-.524 1.413-.302 2.724-.86 4.15-1.107.19-.07.391-.117.572-.212.16-.084.284-.227.44-.319.729-.427 1.635-.67 2.432-.93 1.416-.355 2.666-1.098 4.074-1.49 1.326-.214 2.4-1.071 3.622-1.58 1.266-.367 2.51-.792 3.813-1.02 1.365-.47 2.723-.957 4.087-1.432 1.27-.425 2.604-.532 3.933-.59 1.588-.142 3.086.225 4.577.724 1.806.552 3.577 1.224 5.322 1.942 1.401.492 2.825.948 4.268 1.304 1.464.297 2.97.303 4.458.325.918-.054 1.874.14 2.774-.113.44-.124.86-.31 1.297-.44 1.573-.833 3.26-1.342 4.966-1.828 1.586-.324 3.159-.697 4.745-1.017 1.496-.267 3.024-.254 4.539-.282 1.459.035 2.954.247 4.378.583 1.471.3 2.893.754 4.375 1.008 1.374.162 2.783.302 4.085.794 1.062.371 2.145.633 3.176 1.092.192.075.391.134.576.225 1.194.588.155.225 1.436.75.851.349 1.758.558 2.631.845.28.083.564.152.838.25.254.09.49.225.745.31 1.235.415 2.559.535 3.825.821 1.562.27 2.907 1.07 3.754 2.408.328.436.547.927.756 1.426l-7.944 4.44v0c-.177-.456-.374-.894-.665-1.29-.723-1.15-2.012-1.602-3.3-1.846-1.852-.385-3.702-.744-5.465-1.45-1.62-.518-3.196-1.107-4.733-1.839-1.039-.378-2.11-.654-3.147-1.036-1.31-.355-2.649-.522-3.988-.719-1.47-.305-2.907-.736-4.382-1.017-1.405-.236-2.825-.488-4.255-.424-1.493.04-2.993.09-4.454.43-1.552.344-3.123.602-4.653 1.038-1.71.532-3.342 1.219-5.01 1.855-1.393.397-2.79.41-4.23.326-1.542-.051-3.104-.084-4.601-.49-1.447-.417-2.896-.848-4.29-1.42-1.736-.682-3.471-1.38-5.271-1.877-1.462-.389-2.926-.611-4.443-.426-1.284.106-2.556.307-3.764.777-1.375.495-2.758.998-4.177 1.347-1.25.303-2.494.675-3.68 1.172-1.196.595-2.362 1.24-3.691 1.497-1.355.488-2.65 1.133-4.047 1.506-1.181.455-2.29 1.096-3.528 1.372-1.369.34-2.7.825-4.076 1.141-1.893.55-3.85.688-5.763 1.157-1.794.535-3.53 1.209-5.298 1.814-1.652.445-3.326.77-4.997 1.129-1.82.435-3.678.682-5.494 1.14l7.283-5.478z" fill="#000" stroke="#000" stroke-width="1.7" stroke-linecap="round"/><path d="M19.464 72.315c1.626.034 3.252.023 4.877.03 2.06.011 4.12.005 6.18.004 1.68-.009 3.358-.012 5.038-.013 1.822 0 3.645.014 5.468.012 1.687.031 3.38-.114 5.058.097 1.681.311 3.42.22 5.09.565 1.284.248 2.502.69 3.79.925.93-.01 1.692.5 2.537.788.222.075.45.129.676.193l.74.267c1.885.55 3.719 1.298 5.514 2.09 1.39.718 2.995 1.118 4.355 1.866.905.77 2.276.616 3.176 1.308.847.464 1.795.7 2.743.858 2 .298 4.001.215 5.981-.16 1.7-.477 3.344-1.108 5.026-1.64 1.42-.673 3.019-.651 4.501-1.074 1.11-.453 2.356-.311 3.47-.686.64-.285 1.383-.205 2.008-.526.31-.16.584-.385.89-.556-10.105 6.565-8.54 5.607-5.765 2.517 2.749-2.717 6.596-4.164 9.863-5.998l-7.142 5.638v0c13.163-7.625 8.362-5.184 5.682-3.137-3.666 3.509.077 2.847-9.729 6.678-.958.476-2.015.628-3.044.895-1.162.154-2.311.355-3.443.666-1.513.266-3.016.553-4.446 1.139-1.662.573-3.34 1.112-5.06 1.482-2.068.263-4.16.295-6.223-.055-1.04-.23-2.094-.517-3-1.096-1.038-.382-2.108-.678-3.06-1.267-1.426-.619-2.855-1.229-4.274-1.865-1.798-.77-3.63-1.472-5.512-2.005-1.292-.422-2.546-.973-3.905-1.14-1.263-.284-2.493-.694-3.773-.902-1.665-.226-3.348-.322-5.017-.523-1.662-.075-3.327-.025-4.99-.05-1.834-.002-3.668.011-5.503.012-1.667-.001-3.333-.004-5-.013-2.064-.002-4.129-.008-6.193.004-1.652.007-3.305-.004-4.957.03l7.373-5.358zM154.568 69.257c1.976.04 3.952.024 5.928.025 1.797.2 3.59.417 5.396.519 1.497.073 2.996.077 4.494.078 1.302-.005 2.604-.002 3.905 0 1.197.224 2.39.432 3.605.53 1.47.12 2.948 0 4.409.198 1.352.236 2.715.38 4.085.45 1.376-.064 2.704.178 4.056.384 1.213.33 2.297.95 3.527 1.222 1.498.447 2.975.957 4.424 1.543 1.142.308 2.123.975 3.207 1.415.985.64 2.136.944 3.226 1.366 1.546.555 3.116 1.03 4.682 1.526 1.69.302 3.377.616 5.073.883 1.496.449 3.024.699 4.577.828 1.49.13 2.99.002 4.473.204 1.514.246 3.04.38 4.57.449 1.73.183 3.42-.062 5.128-.265 1.417-.27 2.656-.948 3.871-1.693-2.401 1.376-4.791 2.772-7.205 4.127-.202.114.367-.285.568-.402 2.776-1.619 5.552-3.238 8.359-4.803.199-.111.843-.334.647-.218-13.023 7.674-9.184 5.307-6.715 3.778 3.197-2.474 6.787-4.47 10.433-6.188l-7.415 4.255 8.481-3.328v0l-8.17 4.77c-2.74 1.54-5.98 3.466 6.463-3.812.15-.088-.316.154-.463.25-.376.245-.547.445-.87.76-3.16 2.102-.84.575-8.869 5.125-.19.107-.777.397-.589.286 2.375-1.405 4.768-2.78 7.153-4.167.196-.114-.39.23-.585.345l-8.268 4.92c-1.287.678-2.596 1.26-4.068 1.39-1.74.21-3.48.276-5.233.149-1.537-.097-3.06-.288-4.588-.483-1.494-.08-2.994-.036-4.483-.203-1.556-.184-3.073-.519-4.595-.886-1.725-.302-3.464-.552-5.161-.986-1.57-.52-3.155-.988-4.708-1.553-1.126-.398-2.264-.776-3.295-1.39-1.043-.503-2.066-1.043-3.17-1.407a31.623 31.623 0 00-4.355-1.444c-1.17-.348-2.259-.931-3.469-1.147a29.602 29.602 0 00-4.02-.314c-1.368-.109-2.721-.31-4.08-.492-1.478-.089-2.963-.026-4.44-.175-1.18-.137-2.343-.405-3.531-.472-1.306.005-2.611.014-3.917.002-1.497-.016-2.994-.047-4.487-.15-1.785-.129-3.556-.387-5.343-.485-1.999 0-3.998-.015-5.997.025l7.35-5.34zM190.54 57.942c2.003-.473 3.992-.954 6.04-1.197 2.416-.343 4.815-.773 7.22-1.186 1.556-.245 3.061-.695 4.628-.895 1.203-.103 2.466-.21 3.584-.693 1.17-.461 2.452-.54 3.696-.618 1.122-.083 2.197-.428 3.323-.552 1.18-.104 2.366-.106 3.55-.112 1.262.108 2.474-.248 3.713-.423 1.266-.163 2.544-.167 3.818-.178 1.394-.06 2.752-.023 4.123.224 1.502.515 3.066.754 4.641.896 1.49.486 2.978.946 4.53 1.18 1.392.205 2.806.053 4.192.275 1.323.151 2.568.618 3.871.868 1.234.504 2.566.586 3.847.882 1.538.147 2.903.833 4.355 1.287 1.398.639 2.785 1.367 4.007 2.303.966.956 2.175 1.605 3.102 2.595.714.62 1.423 1.256 2.175 1.832.847.506 1.486 1.238 2.32 1.787 1.524.767 3.033 1.59 4.669 2.095 1.347.362 2.59.947 3.961 1.255 1.325.525 2.747.638 4.118.961 1.714.25 3.412.563 5.117.867 1.842.292 3.714.31 5.575.337 1.695-.107 3.341.075 5.01.322 1.47.308 2.9.108 4.366-.055 1.579-.171 3.167-.227 4.753-.266 1.474-.014 2.949-.018 4.423-.02 1.289 0 2.577-.005 3.866.003 1.65 0 3.299.016 4.948.016 1.723.03 3.469.242 5.16.576 1.602.324 3.219.44 4.806.824 1.123.138 2.177.48 3.266.758 1.412.134 2.779.498 4.182.694.911.16 1.746.498 2.594.849l-7.55 5.051v0c-.793-.317-1.601-.57-2.45-.69-1.429-.24-2.849-.527-4.278-.753-1.064-.308-2.142-.511-3.223-.749-1.564-.355-3.17-.466-4.738-.804-1.675-.244-3.362-.504-5.059-.46-1.664 0-3.327.018-4.991.015-1.29.007-2.578 0-3.867-.002-1.467-.002-2.934-.008-4.4.035-1.57.047-3.14.126-4.701.318-1.516.158-3.007.159-4.514-.121-1.622-.237-3.244-.29-4.884-.272-1.906-.042-3.828-.06-5.705-.427-1.708-.334-3.426-.58-5.14-.874-1.399-.25-2.778-.56-4.133-.993-1.363-.371-2.656-.925-4.01-1.319-1.658-.63-3.222-1.481-4.801-2.28-.853-.564-1.549-1.284-2.409-1.834-.75-.632-1.525-1.244-2.213-1.944-.912-.922-2.058-1.582-2.996-2.481a17.49 17.49 0 00-3.842-2.066c-1.414-.487-2.8-1.018-4.3-1.194-1.308-.225-2.598-.49-3.868-.88-1.265-.296-2.509-.696-3.812-.804-1.408-.095-2.832-.056-4.225-.319-1.511-.308-2.955-.846-4.467-1.145-1.591-.189-3.144-.537-4.7-.913-1.334-.182-2.678-.114-4.022-.103-1.258.032-2.518.085-3.762.289-1.257.205-2.509.39-3.789.32-1.165.018-2.335.04-3.49.212-1.11.188-2.202.492-3.337.5-1.227.126-2.432.34-3.586.792a29.78 29.78 0 01-3.658.565c-1.524.258-3.018.67-4.554.863-2.396.404-4.795.784-7.2 1.139-2.05.332-4.088.796-6.068 1.426l7.193-5.589z" fill="#000" stroke="#000" stroke-width="1.7" stroke-linecap="round"/><path d="M305.222 68.863c1.693-.746 3.332-1.584 4.965-2.448 1.093-.56 2.367-.613 3.372-1.342 3.181-1.765-4.643 2.723-6.996 4.027-.146.081.243-.23.36-.35.345-.347.642-.732.963-1.1.756-1.06 1.664-1.989 2.617-2.87 3.381-3.202 7.527-5.447 11.747-7.399 1.48-.65 2.95-1.229 4.558-1.452 1.571-.168 3.155-.169 4.733-.177 1.475.008 2.95.01 4.425.01 1.339-.113 2.626.113 3.935.34.893.15 1.815.411 2.624.824l-7.584 5.04v0c-.803-.293-1.622-.55-2.474-.653-1.274-.215-2.544-.268-3.836-.225-1.471-.007-2.942-.021-4.412-.008-1.548.013-3.106.022-4.634.302-1.528.36-2.97.96-4.385 1.637-3.03 1.622-2.133 1.155 6.232-3.677.247-.143-.488.297-.721.462-.656.464-1.217 1.034-1.823 1.556-.95.829-1.901 1.669-2.636 2.698-2.295 3.326-6.129 4.942-9.788 6.723-1.115.418-2.281.703-3.323 1.297-1.651.876-3.368 1.614-5.028 2.471l7.109-5.686zM12.832 91.73c1.211.683 2.497 1.183 3.774 1.727l-7.51 5.01v0a106.238 106.238 0 01-3.87-1.733l7.606-5.003zM39.71 87.653c1.784.418 3.568.794 5.387 1.028 1.737.104 3.437.458 5.165.639 1.754.052 3.473.393 5.21.608 1.578.422 3.204.608 4.83.729 1.665.405 3.382.458 5.068.727 1.636.528 3.354.731 5.006 1.182 1.512.369 3.057.502 4.582.814 1.86.388 3.731.717 5.594 1.104 1.757.383 3.487.82 5.28 1.013 1.697.19 3.412.059 5.105.27 1.708.144 3.363.589 5.051.862 1.413.21 2.843.23 4.269.245 1.47.017 2.94.005 4.411 0 1.415 0 2.83 0 4.246-.004 1.284-.003 2.567-.004 3.851-.004a24.974 24.974 0 013.658-.537c.22-.046.445-.07.66-.137.415-.13.795-.36 1.208-.496.801-.264 1.608-.45 2.403-.741 1.666-.397 3.155-1.229 4.743-1.83 1.17-.365 2.26-.934 3.44-1.275 1.331-.39 2.64-.785 4.019-.978 1.09-.07 2.096-.488 3.08-.918 1.141-.386 2.37-.385 3.562-.43 1.584-.028 3.169-.019 4.754-.012 1.654-.086 3.354.187 4.988-.12a13.555 13.555 0 014.405-.222c1.531.218 3.022.613 4.563.793 1.27.305 2.553.564 3.718 1.171 1.068.425 2.08.844 3.051 1.472l-7.616 4.924v0c-.972-.545-2.016-.894-3.015-1.383-1.13-.465-2.325-.742-3.523-.965-1.524-.223-3.013-.639-4.552-.748-1.452-.08-2.874.162-4.309.369-1.67.062-3.343-.015-5.015.015-1.586.004-3.173-.008-4.757.075-1.165.08-2.337.182-3.405.699-1.016.399-2.1.588-3.177.733-1.338.266-2.631.688-3.931 1.096-1.128.444-2.256.887-3.395 1.302-1.555.662-3.114 1.29-4.738 1.767-1.464.475-2.921 1.059-4.456 1.244-1.238.139-2.46.413-3.707.468l-3.839-.004c-1.416-.002-2.831 0-4.247.005-1.472-.001-2.945-.001-4.417-.018-1.453-.04-2.912-.089-4.343-.366-1.656-.317-3.301-.704-4.99-.813-1.704-.098-3.417-.073-5.113-.298-1.796-.245-3.537-.717-5.309-1.086-1.87-.395-3.76-.686-5.632-1.069-1.535-.302-3.102-.42-4.61-.846-1.639-.371-3.268-.775-4.91-1.13-1.695-.199-3.392-.38-5.076-.669a51.24 51.24 0 01-4.853-.761c-1.72-.25-3.436-.511-5.173-.61-1.728-.205-3.445-.495-5.177-.662-1.8-.28-3.577-.764-5.395-.866l7.373-5.357zM182.655 87.04c1.74.216 3.425.692 5.157.96 1.722.226 3.46.264 5.194.29 1.454.011 2.908 0 4.362-.006 1.25.239 2.504.431 3.773.53 1.485-.028 2.83.13 4.184.756.226.103.463.185.679.309.276.158 1.159.827 1.407.997.827.569 1.7 1 2.605 1.432 2.214 1.01 4.6 1.43 6.94 2.015 1.517.382 2.965.944 4.52 1.165 1.421.161 2.853.163 4.281.17 1.57.012 3.142-.009 4.712-.007 1.654-.043 3.28-.016 4.915.22 1.612.171 3.242.435 4.861.258 1.59-.194 3.172-.365 4.75-.636 1.472-.344 3.01-.241 4.48-.559 1.197-.12 2.294-.54 3.443-.843 1.44-.283 2.868-.594 4.329-.763 1.363-.037 2.607-.613 3.9-.972 1.425-.182 2.8-.587 4.219-.809 1.272-.123 2.555-.324 3.765-.744 1.265-.389 2.574-.582 3.866-.858 1.4-.255 2.74-.714 4.156-.913 1.376-.152 2.763-.141 4.145-.14 1.62-.208 3.239-.413 4.868-.53 1.567-.082 3.139-.071 4.708-.08 1.423.225 2.842.433 4.28.531 1.443.018 2.856.091 4.28.314 1.472.075 2.83.435 4.163 1.033.659.247.34.094.954.461l-7.622 4.978v0c-.561-.27-.262-.135-.9-.403-1.273-.54-2.621-.719-3.991-.852-1.413-.178-2.834-.15-4.252-.267-1.414-.128-2.81-.398-4.227-.475-1.56.006-3.122.016-4.678.14-1.635.139-3.259.382-4.897.473-1.364.024-2.735.034-4.083.272-1.382.271-2.725.702-4.115.935-1.288.282-2.59.496-3.844.916a36.937 36.937 0 01-3.817.664c-1.392.269-2.782.567-4.16.894-1.3.407-2.605.774-3.974.85a39.69 39.69 0 00-4.28.893c-1.141.35-2.309.554-3.487.74-1.485.153-2.976.254-4.444.539a65.67 65.67 0 01-4.821.567c-1.66.01-3.31-.198-4.957-.393-1.612-.18-3.23-.134-4.85-.122-1.574.008-3.148 0-4.722.002-1.46-.017-2.926-.04-4.37-.286-1.536-.307-2.989-.885-4.51-1.254-2.38-.592-4.767-1.174-7.015-2.183-1.647-.786-3.1-1.856-4.735-2.646-1.32-.463-2.671-.435-4.054-.522-1.241-.135-2.467-.398-3.715-.465-1.45 0-2.899 0-4.348-.027-1.757-.042-3.515-.145-5.254-.41-1.708-.303-3.398-.804-5.148-.783l7.374-5.357zM324.416 88.401c1.61.296 3.248.387 4.882.453 1.318.01 2.594.382 3.9.532 1.186.162 2.342.475 3.538.612 1.283 0 2.518.24 3.773.465.98.168 1.972.214 2.963.248l-7.372 5.303v0c-1.016-.06-2.03-.149-3.03-.348-1.245-.229-2.492-.311-3.75-.43-1.186-.184-2.348-.493-3.544-.608-1.266-.194-2.519-.512-3.81-.503-1.676-.097-3.349-.237-5.01-.49l7.46-5.234zM9.516 112.421c3.43-1.202 10.11-5.345-3.476 2.438 2.44-4.536 7.74-3.97 11.444-6.136.992-.627 2.18-.587 3.266-.9 1.233-.43 2.469-.863 3.75-1.172 1.745-.33 3.455-.73 5.237-.747 1.308.034 2.614.102 3.922.135 1.639.077 3.268.349 4.86.744 1.292.305 2.6.425 3.89.73 1.084.415 2.048 1.09 3.04 1.686.752 1.074 1.765 1.79 2.797 2.56 1.108.702 2.24 1.366 3.339 2.08.555.448 1.306.458 1.896.829.281.177.524.41.793.606.962.438 1.915.898 2.793 1.496l.477.29-7.637 4.926v0l-.484-.306c-.925-.557-1.93-.952-2.843-1.524-.82-.593-1.796-.832-2.634-1.401-1.132-.697-2.232-1.438-3.358-2.145-1.015-.747-1.963-1.524-2.788-2.478-.897-.57-1.812-1.183-2.851-1.449-1.288-.28-2.609-.376-3.876-.755a21.662 21.662 0 00-4.775-.574c-1.287-.045-2.573-.13-3.861-.106-1.727.11-3.42.52-5.103.906-1.273.385-2.513.871-3.808 1.177-1.102.205-2.161.486-3.138 1.06-3.275 1.323-9.451 4.438 4.094-2.783-4.056 2.336-7.799 4.756-12.075 6.5l7.11-5.687z" fill="#000" stroke="#000" stroke-width="1.7" stroke-linecap="round"/><path d="M12.327 123.6c2.046.856 4.262 1.051 6.42 1.448 1.869.252 3.687.759 5.551 1.039 1.448.193 2.909.222 4.367.236 1.367.004 2.734.004 4.102 0 1.305-.005 2.61-.007 3.916-.01 1.24.095 2.432-.255 3.652-.424 1.193-.048 2.137-.796 3.263-1.12 1.062-.325 1.919-.66 3.045-.804 1.395-.178 2.77-.46 4.179-.585 1.46-.287 2.908-.591 4.31-1.092 1.334-.485 2.77-.76 4.046-1.38 1.111-.381 2.158-.906 3.241-1.355 1.209-.272 2.316-.744 3.428-1.267-1.534.741 3.611-2.007 2.11-1.135-8.9 5.171-9.551 5.586-6.8 3.87 2.802-5.295 7.09-3.613 10.763-5.613 1.172-.461 2.41-.769 3.644-1.028 1.374-.123 2.705-.455 4.065-.66 1.3-.514 2.684-.689 4.067-.814 1.501-.1 3.008-.086 4.512-.087l-7.312 5.317v0c-1.492.009-2.988.015-4.473.177-1.37.18-2.691.525-4.03.856-1.34.264-2.695.425-4.033.702-1.214.313-2.435.634-3.562 1.195-3.273 1.248-9.022 3.237 4.839-3.318-3.615 2.099-7.16 4.336-10.907 6.193-1.114.5-2.308.764-3.43 1.244-1.07.485-2.166.902-3.257 1.336-1.352.44-2.7.89-4.06 1.307-1.452.416-2.921.77-4.425.947-1.401.17-2.78.468-4.178.664-1.009.233-1.96.634-2.956.915-1.095.441-2.142.95-3.353.98-1.238.2-2.47.403-3.73.315h-3.903c-1.374.001-2.747.016-4.12-.009-1.477-.04-2.955-.117-4.414-.365-1.841-.335-3.657-.803-5.51-1.081-2.226-.386-4.465-.735-6.596-1.526l7.53-5.068z" fill="#000" stroke="#000" stroke-width="1.7" stroke-linecap="round"/><path d="M52.095 115.043c.979.416 1.943.857 2.914 1.291l-7.536 5v0a73.02 73.02 0 00-2.982-1.287l7.604-5.004zM58.824 115.81c1.257 1.38 2.844 2.38 4.353 3.455.924.7 1.728 1.533 2.617 2.273l-7.674 4.783v0c-.844-.746-1.643-1.544-2.544-2.224-1.527-1.096-3.072-2.174-4.464-3.443l7.712-4.844zM117.086 114.129c1.165 1.148 2.29 2.337 3.543 3.394 1.095.978 2.485 1.137 3.83 1.515 1.024.248 1.985.671 3.01.927 1.195.183 2.408.2 3.615.217 1.326.053 2.613.035 3.912-.234 1.024-.185 2.125-.395 3.02-.948 1.103-.398 2.092-.99 3.205-1.365-2.007 1.266 4-2.134 1.962-.95-2.387 1.388-4.792 2.743-7.192 4.108-.18.103.356-.217.536-.32 2.769-1.583 5.542-3.158 8.313-4.736-19.25 11.06.687-.425 1.038-.624.883-.498 1.89-.863 2.82-1.268 3.242-1.956-1.285.782-6.457 3.66-.194.108.356-.262.533-.396.522-.395 1.033-.799 1.566-1.179 3.5-2.694 7.085-4.683 11.195-5.774 1.248-.298 2.533-.358 3.81-.397 1.443-.024 2.887-.01 4.33-.005 1.61.013 3.218-.001 4.826.005 1.428-.066 2.882.136 4.293-.12 1.384-.277 2.796-.38 4.203-.452 1.288-.055 2.576-.055 3.865-.056 1.484.008 2.968.014 4.452.013l4.118-.007c.976.041 2.035-.078 2.983.232.23.075 1.021.538 1.251.67 1.376.6 2.393 1.69 3.475 2.687 1.117.877 2.087 1.927 3.176 2.836.997.601 1.898 1.322 2.81 2.038.886.793 1.768 1.57 2.668 2.344 1.122.95 1.314.968 2.755.974 1.645-.044 3.269-.394 4.864-.78 1.34-.178 2.606-.583 3.91-.907.787-.238 1.62-.13 2.42-.239.419-.057.824-.187 1.239-.265 1.425-.196 2.808-.566 4.234-.774 1.173-.445 2.386-.681 3.633-.764l.59-.156-7.237 5.478v0l-.634.088c-1.217.182-2.385.543-3.588.791-1.416.252-2.813.595-4.237.8-1.209.214-2.451.217-3.635.573-1.278.36-2.586.553-3.88.847-1.653.36-3.35.664-5.047.6-1.252-.123-2.19-.58-3.101-1.452-.904-.758-1.727-1.594-2.654-2.323-.903-.74-1.872-1.38-2.806-2.08-1.066-.95-2.084-1.954-3.173-2.878-1.026-.968-2.072-1.889-3.377-2.47-1.254-.617-2.606-.582-3.98-.536-1.366-.002-2.731-.005-4.097-.01a556.285 556.285 0 00-4.475.008c-1.274.005-2.55.012-3.822.09-1.401.1-2.792.278-4.18.491-1.444.067-2.89.01-4.334.025-1.608.003-3.216-.015-4.824-.006-1.444 0-2.89-.004-4.333.058-1.242.073-2.489.192-3.68.58-.552.185-1.129.316-1.671.53-.187.073-.721.35-.549.247 5.481-3.244 9.795-5.615 6.651-3.883-3.559 2.524-7.082 5.154-11.16 6.856-.72.325-1.44.654-2.145 1.01-.218.11-.858.465-.648.342 2.954-1.728 17.57-10.158-1.075.604l7.248-4.2-.546.318c-2.782 1.601-5.558 3.214-8.348 4.801-.638.363-1.337.617-2.013.897-1.074.468-2.126.982-3.208 1.433-1.033.32-2.058.634-3.14.744-1.33.173-2.672.107-4.01.093-1.266-.038-2.548-.072-3.782-.387-.985-.32-1.958-.684-2.965-.933-1.47-.362-2.862-.844-4.013-1.879-1.287-1.11-2.454-2.347-3.704-3.498l7.818-4.672zM274.775 114.583c1.402.914 2.832 1.79 4.245 2.69 1.061.908 2.39 1.378 3.592 2.053 1.179.777 2.512 1.256 3.755 1.903 1.075.602 2.212 1.04 3.356 1.49 1.512.365 3.024.724 4.568.936 1.635.193 3.284.21 4.928.222 1.358-.133 2.66.213 3.988.413 1.236.106 2.421.44 3.654.604 1.427.167 2.865.187 4.3.2 1.482.05 2.948.35 4.429.485 1.304.106 2.614.117 3.922.125a26.905 26.905 0 004.622-.202c1.524-.099 2.98-.555 4.48-.808 1.272-.058 2.494-.335 3.741-.563 1.173-.039 2.26-.368 3.39-.624.543-.112 1.095-.153 1.646-.197l-7.295 5.423v0c-.532.074-1.064.152-1.584.292-1.121.28-2.262.378-3.4.578-1.24.242-2.49.359-3.736.553-1.487.295-2.964.63-4.481.734-1.574.16-3.151.166-4.732.14-1.32-.02-2.64-.059-3.954-.203-1.457-.166-2.909-.44-4.38-.422-1.46-.031-2.925-.07-4.371-.293-1.232-.194-2.449-.464-3.69-.599-1.282-.223-2.556-.414-3.865-.334-1.67-.03-3.345-.07-4.998-.326-1.593-.266-3.188-.596-4.726-1.085-1.15-.48-2.306-.936-3.394-1.553-1.272-.613-2.548-1.215-3.771-1.926-1.237-.644-2.512-1.241-3.594-2.138-1.43-.949-2.924-1.782-4.357-2.724l7.712-4.844z" fill="#000" stroke="#000" stroke-width="1.7" stroke-linecap="round"/><path d="M281.382 112.673c1.686-.087 3.288-.502 4.873-1.05 1.18-.528 2.52-.38 3.724-.76 1.172-.23 2.165-.851 3.3-1.205 1.579-.312 3.173-.57 4.765-.824 1.638-.497 3.346-.683 5.046-.825 1.3-.385 2.642-.54 3.99-.64 1.273-.337 2.57-.531 3.883-.608 1.37-.313 2.76-.509 4.16-.617 1.456-.113 2.879-.09 4.316.152 1.422.2 2.836.311 4.245.593 1.42.083 2.672.686 3.986 1.151 1.148.421 2.384.337 3.56.596 1.228.393 2.565.605 3.72 1.184 1.278.527 2.35 1.364 3.462 2.156.63.558.323.27.922.864l-7.735 4.757v0c-.56-.528-.276-.276-.85-.759-1.047-.779-2.123-1.504-3.345-1.99-1.178-.406-2.388-.76-3.61-1.003-1.234-.15-2.482-.26-3.647-.735-1.268-.487-2.533-.883-3.892-1.034-1.4-.252-2.824-.315-4.227-.559-1.393-.172-2.797-.097-4.193.025-1.395.15-2.767.427-4.157.609-1.305.151-2.585.436-3.886.614-1.335.144-2.638.438-3.965.625-1.69.176-3.351.485-5.005.874-1.57.269-3.172.458-4.688.964-1.115.44-2.193.964-3.395 1.138-1.235.162-2.46.366-3.635.802-1.636.492-3.319.723-5.004.982l7.282-5.477zM58.771 135.64c1.531.322 3.107.277 4.64.558 1.474.29 2.97.433 4.47.508 1.319-.04 2.589.31 3.893.465 1.532.09 3.045.207 4.565.416 1.653.222 3.32.32 4.986.367 1.4-.023 2.768.021 4.147.254 1.6.479 3.25.732 4.909.89 1.437.112 2.88.109 4.32.119 1.492-.039 2.95-.044 4.419.216 1.381.168 2.7.586 4.079.774 1.73.119 3.357.755 5.042 1.122 1.368.28 2.766.308 4.157.336 1.47-.097 2.887.077 4.327.332 1.158.2 2.335.232 3.507.261 1.774.005 3.557.118 5.323-.072 1.62-.22 3.245-.394 4.878-.483 1.361-.064 2.724-.05 4.086-.051 1.302-.048 2.583-.355 3.886-.487 1.28.017 2.504-.248 3.755-.468 1.378-.202 2.776-.231 4.166-.261 1.36.02 2.696.345 4.054.473 1.408.114 2.82.127 4.232.138 1.669-.175 3.207.309 4.787.748 1.494.36 3.034.42 4.563.465 1.195.027 2.35-.349 3.537-.486.178-.056.356-.115.536-.166.474-.135.688-.14 1.126-.388.17-.097.647-.444.476-.347-2.437 1.377-9.74 5.518-7.277 4.19 2.8-1.511 5.525-3.157 8.287-4.735 3.1-1.801-2.014 1.17-6.721 3.861.543-.274 1.012-.68 1.534-.986 2.746-1.606 5.507-3.186 8.26-4.779 3.209-1.025.915-.333-6.803 3.993-.32.179.593-.431.91-.613 9.02-5.162 5.604-2.935 8.719-4.979 6.62-3.226-26.438 14.656 1.402-.738 2.467-1.364-4.887 2.814-7.338 4.207-.151.086.287-.196.437-.283 2.748-1.58 5.504-3.144 8.256-4.716l.482-.262-7.088 5.693v0l-.498.253 7.332-4.253c.15-.086-.298.176-.447.263-2.743 1.597-5.52 3.134-8.228 4.787-2.4 1.465 9.763-5.579 7.302-4.221-2.925 1.612-5.77 3.365-8.69 4.99-3.019 1.447-.358.187 6.842-4.014.314-.183-.612.392-.926.576-7.42 4.341-5.5 3.328-8.74 5.023 2.426-1.413 4.847-2.833 7.277-4.239.168-.097-.333.2-.49.314-1.173.844.229-.042-1.046.698-2.77 1.608-5.53 3.23-8.3 4.834-.172.1-.351.185-.527.278 2.428-1.405 9.725-5.594 7.283-4.214-3.495 1.974-6.617 4.78-10.622 5.416-1.195.19-2.38.472-3.6.332-1.578-.084-3.164-.2-4.692-.633-1.53-.437-3.043-.68-4.644-.555-1.43-.018-2.862-.048-4.285-.205-1.328-.153-2.647-.454-3.99-.373-1.371.046-2.746.111-4.095.377-1.255.227-2.515.318-3.786.42-1.308.17-2.608.464-3.935.398-1.353.005-2.707.017-4.058.096-1.614.11-3.219.307-4.828.466-1.807.09-3.617.03-5.425.027-1.206-.039-2.41-.125-3.596-.358-1.398-.241-2.797-.261-4.214-.246-1.436-.036-2.872-.128-4.269-.488-1.652-.418-3.28-.955-4.995-1.065-1.375-.226-2.72-.6-4.107-.758-1.432-.19-2.874-.106-4.316-.125-1.462-.004-2.927-.017-4.381-.194-1.664-.217-3.301-.563-4.942-.906-1.358-.176-2.72-.116-4.085-.178a63.917 63.917 0 01-5-.451c-1.53-.174-3.066-.208-4.594-.398-1.288-.174-2.564-.42-3.87-.413a48.95 48.95 0 01-4.502-.582c-1.564-.188-3.14-.284-4.698-.53l7.46-5.234zM197.992 139.187c1.713.045 3.427.028 5.14.022 1.373-.012 2.716-.354 4.081-.499 1.345-.18 2.727.04 4.053-.246 1.416-.485 2.866-.729 4.35-.906 1.43-.409 2.9-.618 4.378-.739 1.63-.135 3.27.057 4.889-.179 1.314-.146 2.534-.642 3.827-.892 1.379-.117 2.718-.457 4.089-.649 1.306-.056 2.556-.43 3.845-.622 1.254-.03 2.453-.306 3.68-.528 1.477-.197 2.967-.237 4.455-.251 1.727-.005 3.454-.014 5.18-.019 1.308-.003 2.615-.004 3.922-.004 1.228.302 2.508.338 3.728.655 1.216.421 2.482.72 3.7 1.14 1.269.339 2.534.7 3.823.958.236.036.474.057.707.11.427.095.832.271 1.257.373.72.172 1.443.24 2.161.43 1.41.47 2.91.418 4.35.706 1.433.281 2.82.758 4.205 1.218 1.283.377 2.53.864 3.812 1.247 1.113.645 2.406.755 3.589 1.179 1.077.427 2.23.484 3.373.543 1.471.117 2.675.98 4.057 1.409 1.408.395 2.653 1.098 3.874 1.885 1.015.62 2.185.854 3.297 1.24l-7.535 5.094v0c-1.156-.413-2.365-.702-3.385-1.422-1.187-.721-2.398-1.351-3.746-1.72-1.296-.483-2.508-1.196-3.933-1.206-1.202-.098-2.389-.26-3.518-.708-1.212-.33-2.403-.69-3.558-1.193-1.279-.411-2.548-.852-3.828-1.26-1.347-.455-2.716-.878-4.122-1.107-1.469-.206-2.957-.307-4.383-.754-1.373-.29-2.74-.59-4.11-.897-1.306-.298-2.61-.617-3.888-1.02-1.22-.351-2.417-.78-3.654-1.066-1.2-.199-2.405-.414-3.617-.498-1.3-.002-2.6-.005-3.9-.012-1.719-.008-3.437-.021-5.154.024-1.473.05-2.953.112-4.403.396-1.224.235-2.456.345-3.69.513-1.277.234-2.547.488-3.841.606-1.357.227-2.71.473-4.066.704-1.277.318-2.537.718-3.864.78-1.635.075-3.276.023-4.907.197-1.458.167-2.886.477-4.327.743-1.49.227-2.914.67-4.393.933-1.352.072-2.712.051-4.057.236-1.366.182-2.728.464-4.115.39-1.734-.007-3.468-.022-5.201.022l7.373-5.356zM12.102 143.481c1.483-.107 2.862.229 4.257.667 1.183.223 2.273.727 3.447.979l.506.213-7.548 5.086v0l-.442-.136c-1.156-.327-2.28-.762-3.454-1.03a11.408 11.408 0 00-4.139-.422l7.373-5.357zM26.382 155.516c1.624.727 3.361 1.115 5.12 1.334 1.776.4 3.59.58 5.404.693 1.065.112 2.156-.056 3.208.18.143.033 1.289.4 1.45.452 1.516.45 3.097.556 4.667.63 1.646.007 3.27.032 4.9.264 1.362.169 2.722.273 3.995.817.986.495 2.058.65 3.144.736 1.32.155 2.629.42 3.96.546 1.296.237 2.526.682 3.801.993 1.232.188 2.439.313 3.59.817 1.085.526 2.157.979 3.347 1.203 1.455.012 2.78.578 4.168.93 1.374.19 2.706.5 4.056.804 1.154.164 2.291.264 3.431.51 1.188.254 2.401.32 3.612.361 1.054.075 2.019-.331 2.957-.744-16.294 9.79-2.39.52 3.207-1.603 1.34-.534 2.554-1.304 3.885-1.857 1.464-.421 2.685-1.36 4.06-1.98-19.09 10.965.66-.414.998-.608a7.6 7.6 0 011.18-.538c.566-.186.96-.228 1.554-.327 1.495-.089 2.935-.367 4.398-.655 1.524-.234 3.075-.21 4.613-.237 1.496-.065 2.96-.053 4.432.209 1.46.56 3.037.62 4.535 1.009 1.145.359 2.33.497 3.522.566 1.024.253 2.028.475 3.017.837 1.05.265 2.056.637 3.124.835 1.229.095 2.407.45 3.624.633 1.46.09 2.685.872 3.875 1.652 1.46.962 2.666 2.222 3.927 3.415.986.767 1.953 1.521 2.893 2.344.663.73 1.42 1.361 1.956 2.195l.265.439-7.868 4.575v0l-.263-.415c-.5-.754-1.22-1.328-1.816-2.001-.922-.845-1.948-1.547-2.873-2.39-1.208-1.164-2.36-2.396-3.808-3.274-1.16-.692-2.353-1.222-3.72-1.328-1.216-.226-2.425-.488-3.651-.662-1.082-.26-2.145-.596-3.21-.919-.925-.314-1.899-.502-2.863-.654a19.584 19.584 0 01-3.58-.693c-1.504-.31-3.018-.565-4.505-.948-1.428-.192-2.868-.11-4.306-.104-1.526.036-3.063.07-4.561.396-1.443.285-2.907.356-4.348.645-.732.206-1.381.439-2.053.796-.188.1-.744.42-.56.313 6.914-4.011 13.28-7.658-1.012.554-1.329.71-2.652 1.43-4.072 1.95-1.29.628-2.553 1.314-3.897 1.83-.638.286-1.258.586-1.874.916-.173.093-.69.376-.52.277 6.811-3.973 13.431-7.741-.862.439a7.378 7.378 0 01-3.17.415c-1.24-.073-2.477-.2-3.692-.473-1.147-.213-2.322-.235-3.455-.533-1.336-.334-2.692-.537-4.034-.848-1.382-.383-2.748-.735-4.18-.883-1.19-.316-2.289-.835-3.426-1.302-1.152-.364-2.347-.46-3.517-.747-1.229-.34-2.448-.72-3.717-.889-1.33-.16-2.647-.423-3.983-.53-1.135-.156-2.227-.44-3.27-.924-1.252-.387-2.555-.48-3.847-.67-1.612-.189-3.232-.12-4.851-.217-1.626-.11-3.25-.297-4.81-.79-1.486-.421-2.994-.415-4.528-.484a56.984 56.984 0 01-5.43-.75 25.559 25.559 0 01-5.307-1.492l7.564-5.041zM121.348 176.131c1.582.61 3.28.726 4.92 1.085 1.519.238 3 .59 4.497.936 1.192.19 2.372.29 3.552.544.2.037.404.056.6.11.427.16.701.277 1.143.391.737.191 1.494.264 2.249.346 1.636.273 3.24.677 4.863 1.018 1.287.333 2.64.181 3.925.473 1.445.623 3.01.837 4.563.99 1.782-.02 3.49.342 5.204.77 1.416.358 2.869.49 4.323.555 1.345.067 2.695-.053 4.029.144 1.945.31 3.917.395 5.883.46 1.884.297 3.8.363 5.68.68 1.532.291 3.081.459 4.638.54 1.375-.063 2.706.183 4.059.38 1.413.45 2.872.67 4.345.798 1.36.03 2.686.103 4.026.326 1.575.265 3.172.32 4.765.362 1.065.016.54.01 1.576.018l-7.328 5.307v0c-1.033-.023-.51-.009-1.572-.041-1.622-.067-3.246-.152-4.85-.43-1.328-.175-2.667-.149-3.999-.296-1.475-.182-2.92-.492-4.366-.827-1.338-.195-2.675-.28-4.026-.318-1.558-.128-3.1-.36-4.64-.625-1.866-.23-3.735-.441-5.605-.616-1.994-.094-3.986-.22-5.968-.468-1.338-.07-2.68-.007-4.017-.108-1.48-.115-2.95-.326-4.388-.707-1.69-.405-3.394-.609-5.131-.681a29.764 29.764 0 01-4.645-.997c-1.309-.144-2.632-.199-3.914-.532-1.59-.369-3.185-.72-4.803-.956-1.386-.191-2.713-.551-4.069-.877-1.186-.222-2.4-.256-3.57-.576-1.467-.376-2.95-.643-4.435-.935-1.666-.307-3.327-.612-4.974-1.009l7.46-5.234z" fill="#000" stroke="#000" stroke-width="1.7" stroke-linecap="round"/><path d="M148.39 171.294c.807 1.475 1.772 2.863 2.75 4.229l.415.52-7.786 4.641v0l-.435-.568a360.264 360.264 0 01-2.793-4.223l7.848-4.599zM171.08 154.792c1.643.544 3.374.745 5.091.883 1.624-.01 3.209.336 4.816.519 1.376.143 2.761.17 4.144.183 1.482-.047 2.915-.013 4.359.338 1.787.493 3.52 1.098 5.366 1.37 1.346.26 2.727.43 4.065.746 1.375.218 2.436 1.14 3.773 1.475 1.711.287 3.434.53 5.132.895 1.702.266 3.375.62 5.056.992 1.49.273 2.96.65 4.428 1.027 1.373.23 2.718.56 4.08.84 1.186.514 2.484.599 3.711.943 1.183.352 2.408.472 3.634.54 1.356.008 2.73.164 4.071-.067.22-.04.446-.056.66-.119.374-.109.709-.328 1.08-.447.64-.207 1.32-.3 1.97-.48 1.723-.4 3.395-.98 5.105-1.432 1.439-.258 2.852-.538 4.143-1.244a16.016 16.016 0 014.53-1.483c1.487-.291 3.028-.045 4.506-.344 1.143-.292 2.315-.401 3.49-.441 1.553-.027 3.106-.043 4.66-.039 1.577-.032 3.181.104 4.704.53 1.128.397 2.301.565 3.488.648 1.297.145 2.576.42 3.884.541l.698.048-7.373 5.266v0l-.71-.068c-1.303-.155-2.588-.429-3.898-.516a19.282 19.282 0 01-3.545-.77 19.415 19.415 0 00-4.565-.361c-1.55.009-3.101-.004-4.648.098-1.162.104-2.306.303-3.457.489-1.484.083-2.982.062-4.443.38-1.546.362-2.985.976-4.415 1.66-1.363.526-2.793.765-4.208 1.107-1.708.487-3.406 1.008-5.13 1.44-1.268.322-2.49.827-3.801.942-1.392.062-2.789.023-4.18-.056a20.274 20.274 0 01-3.718-.665 39.763 39.763 0 01-3.695-.926c-1.356-.311-2.724-.557-4.076-.884a89.486 89.486 0 00-4.433-.998c-1.653-.404-3.32-.69-4.993-.998-1.74-.31-3.496-.558-5.22-.943-1.261-.439-2.375-1.235-3.726-1.41-1.35-.24-2.698-.486-4.049-.724-1.814-.369-3.536-1.047-5.352-1.403-1.43-.216-2.864-.16-4.307-.176-1.396-.034-2.792-.097-4.177-.277-1.59-.209-3.173-.461-4.78-.513-1.784-.189-3.562-.482-5.282-1.002l7.537-5.114zM265.344 181.746c-15.831 9.256-1.542.508 3.984-2.073 1.448-.792 3.085-.95 4.698-1.103 1.538-.016 3.028-.379 4.556-.52a57.335 57.335 0 014.692-.194c1.59.003 3.181-.003 4.772-.005l3.868-.003c1.453.158 2.81.635 4.19 1.084 1.625.387 3.26.668 4.86 1.166 1.614.404 3.208.889 4.847 1.19 1.352.187 2.665.575 3.967.973 1.262.24 2.471.67 3.735.906 1.413.092 2.796.343 4.196.543 1.43.112 2.823.251 4.184.72 1.371.47 2.81.675 4.227.954 1.428.25 2.859.316 4.266.666 1.038.132 1.969.594 2.988.805 1.22.192 2.459.19 3.69.203.902.004.453.003 1.348.003l-7.339 5.327v0c-.895-.007-.445-.002-1.35-.015-1.284-.03-2.584-.04-3.838-.347-.99-.276-1.95-.643-2.97-.806-1.388-.304-2.818-.349-4.204-.669-1.448-.283-2.912-.5-4.305-1.008-1.345-.342-2.715-.45-4.09-.624-1.418-.212-2.845-.339-4.26-.57-1.263-.3-2.509-.672-3.771-.975a33.609 33.609 0 00-3.902-.915c-1.637-.37-3.253-.835-4.877-1.257-1.617-.431-3.259-.741-4.87-1.192-1.322-.419-2.67-.79-4.066-.826a989.656 989.656 0 01-3.853-.01c-1.586-.005-3.171-.018-4.757.012-1.545.035-3.092.076-4.628.258-1.515.203-3.022.454-4.553.517-1.593.21-3.13.563-4.543 1.366-1.272.624.128-.056-1.239.586-.236.11-.93.473-.706.34 2.328-1.378 4.678-2.717 7.017-4.076l-.687.4-8.385 4.856 7.108-5.686zM313.986 154.659c1.504.234 3.005.337 4.49.678 1.34.395 2.65.824 3.928 1.395 1.283.387 2.476.989 3.716 1.483 1.219.288 2.413.681 3.639.942 1.301.472 2.59.96 3.877 1.469 1.356.43 2.756.736 4.16.973 1.27.414 2.56.704 3.89.835l-7.413 5.245v0c-1.319-.2-2.59-.571-3.88-.9-1.448-.277-2.91-.556-4.281-1.112a45.813 45.813 0 00-3.82-1.348c-1.244-.328-2.502-.627-3.711-1.067a72.885 72.885 0 00-3.72-1.49c-1.25-.503-2.52-.949-3.835-1.255-1.485-.31-3.001-.386-4.5-.614l7.46-5.234zM11.556 182.136c1.973.116 3.933-.185 5.892-.377 1.632-.058 3.223-.42 4.836-.636 1.319-.165 2.648-.194 3.976-.21 1.24-.024 2.45.318 3.605.737 1.137.258 2.257.583 3.402.81 1.255.147 2.507.397 3.692.842a81.91 81.91 0 004.014.975c1.27.134 2.502.418 3.753.658 1.113.22 2.156.624 3.291.76 1.354.167 2.725.035 4.07.252.625.123 1.253.219 1.883.306l-7.423 5.227v0c-.618-.1-1.235-.21-1.856-.291-1.365-.096-2.742-.053-4.098-.27-1.122-.205-2.186-.616-3.314-.795-1.25-.262-2.51-.429-3.76-.69-1.36-.337-2.743-.595-4.076-1.03a28.026 28.026 0 00-3.625-.77c-1.167-.274-2.346-.512-3.484-.887-1.099-.363-2.249-.547-3.408-.485-1.3.032-2.602.092-3.89.284-1.604.237-3.202.506-4.825.576-2.001.185-4.002.393-6.016.362l7.361-5.348zM48.253 201.016a56.53 56.53 0 014.674-.412c1.237.091 2.395-.311 3.6-.499.748-.17 1.536-.043 2.286-.155.335-.05.65-.184.977-.272 1.082-.262 2.199-.306 3.307-.342 1.15.035 2.237.002 3.288-.498.745-.408 1.595-.39 2.398-.568.4-.089.783-.248 1.178-.363 1.47-.198 2.918-.476 4.38-.73 1.36-.096 2.671-.393 4.007-.644 1.19-.471 2.444-.69 3.713-.813 1.49-.085 2.984-.076 4.476-.08 1.666-.003 3.331.013 4.997.014 1.933-.1 3.839.105 5.755.322 1.404.012 2.729.452 4.097.695 1.286.109 2.458.649 3.673 1.031 1.479.394 3.023.296 4.528.503 1.487.206 2.962.364 4.425.696.228.118.464.222.685.353.439.26.84.58 1.28.84.57.34 1.182.575 1.76.9.958.545 1.95 1.066 2.82 1.752.74.665 1.607 1.133 2.423 1.698 1.091.766 2.153 1.457 2.9 2.578.731 1.017 1.316 2.126 1.963 3.195.44.746.835 1.517 1.314 2.239l-7.84 4.579v0c-.467-.74-.878-1.513-1.315-2.271-.635-1.06-1.256-2.126-1.954-3.147-.683-.996-1.75-1.58-2.718-2.27-.856-.537-1.69-1.084-2.464-1.737-.87-.612-1.803-1.135-2.731-1.653-1.19-.63-2.321-1.396-3.572-1.884-1.432-.3-2.892-.424-4.337-.645-1.568-.138-3.177-.105-4.681-.626-1.182-.414-2.363-.791-3.615-.934-1.324-.29-2.636-.61-3.997-.674a38.596 38.596 0 00-5.696-.24c-1.672-.002-3.344.006-5.017.006-1.48.007-2.966.008-4.437.187-1.25.192-2.45.553-3.673.86-1.325.265-2.66.411-3.995.619-1.452.267-2.923.445-4.353.816-1.19.314-2.416.483-3.552.984-1.134.266-2.276.256-3.436.286-1.088.072-2.169.198-3.225.477-1.086.202-2.202.156-3.285.388-1.203.234-2.398.413-3.629.387-1.562.097-3.125.234-4.664.53l7.282-5.477z" fill="#000" stroke="#000" stroke-width="1.7" stroke-linecap="round"/><path d="M54.572 202.019c1.682.536 3.355 1.064 5.096 1.372 1.537.28 3.015.784 4.54 1.102 1.42.266 2.867.322 4.309.35 1.438.047 2.855.354 4.29.493 1.508.114 3.022.124 4.534.13 1.395.004 2.79-.01 4.185-.004 1.393 0 2.785-.003 4.178-.005 1.285.1 2.516-.277 3.784-.416.23-.057.465-.1.692-.172.47-.151.916-.367 1.383-.526.707-.24 1.422-.364 2.124-.62 1.213-.408 2.47-.604 3.705-.923.576-.176 1.203-.116 1.738-.428.142-.083.524-.398.38-.317-2.476 1.39-9.851 5.656-7.384 4.25 2.743-1.563 5.474-3.148 8.211-4.721l.473-.15-7.15 5.638v0l-.418.221c2.46-1.424 9.838-5.696 7.378-4.273-4.981 2.881-6.21 4.456-10.436 5.297-1.222.307-2.473.503-3.657.954-1.435.396-2.825.965-4.3 1.194-1.282.202-2.556.416-3.861.324-1.39-.002-2.78-.005-4.17-.001-1.392.008-2.785.002-4.177-.01-1.537-.02-3.075-.036-4.605-.194-1.414-.173-2.82-.455-4.25-.434-1.474-.064-2.949-.178-4.392-.504-1.506-.366-2.992-.808-4.52-1.087-1.75-.39-3.442-.978-5.183-1.401l7.503-5.14zM190.16 201.056c1.375.796 2.725 1.653 4.23 2.183 1.269.418 2.53.738 3.86.882 1.672.392 3.379.557 5.089.658 1.656.058 3.289.392 4.894.782 1.276.285 2.56.386 3.819.734 1.169.308 2.385.335 3.587.373 1.458.083 2.883.05 4.318-.205.22-.036.45-.037.662-.108.429-.143.798-.425 1.21-.61.666-.298 1.369-.462 2.054-.713.241-.076.493-.126.724-.23.47-.21.884-.532 1.345-.763.656-.33 1.317-.55 2.023-.743 1.115-.295 2.173-.672 3.33-.812 1.13-.341 2.265-.695 3.417-.975 1.246-.272 2.523-.318 3.793-.347 1.401-.35 2.84-.452 4.277-.518 1.77-.059 3.543-.082 5.315-.094 1.68.006 3.359.01 5.038.01 1.462.194 2.919.415 4.391.524 1.467.174 2.687.877 3.934 1.606 1.146.929 2.386 1.723 3.573 2.596 1.114.948 1.956 2.154 2.85 3.301.664.758 1.245 1.541 1.944 2.266.748.514 1.28 1.213 1.847 1.903l-7.822 4.679v0a11.53 11.53 0 00-1.8-1.832c-.728-.743-1.282-1.594-1.968-2.373-.831-1.084-1.608-2.234-2.68-3.1-1.182-.836-2.388-1.635-3.544-2.51-1.16-.673-2.36-1.181-3.72-1.27-1.439-.148-2.865-.418-4.312-.483a607.525 607.525 0 00-5.05.006c-1.756.003-3.512.008-5.264.122-1.454.12-2.885.376-4.334.529-1.235.06-2.473.162-3.667.506-1.154.333-2.309.684-3.487.918-1.095.23-2.143.625-3.227.903-1.385.519-2.638 1.324-4.063 1.745-1.343.456-2.613 1.158-4.042 1.302-1.47.178-2.946.106-4.423.068-1.253-.068-2.512-.153-3.72-.517-1.245-.307-2.534-.386-3.77-.743a26.39 26.39 0 00-4.788-.674 52.656 52.656 0 01-5.15-.683c-1.367-.208-2.686-.585-3.985-1.064-1.518-.654-2.913-1.547-4.368-2.325l7.66-4.904zM295.007 211.847c1.593.51 3.252.75 4.884 1.1 1.551.388 3.159.332 4.726.584 1.575.291 3.172.41 4.77.479 1.372-.076 2.69.155 4.033.378 1.382.218 2.783.244 4.179.27 1.669.067 3.345-.087 5.004.121 1.682.262 3.31.73 5.005.932 1.708.07 3.384.403 5.079.603 1.332.148 2.672.173 4.01.186 1.372.12 2.661.525 3.98.882.861.25 1.736.493 2.591.78l-7.548 5.12v0a41.47 41.47 0 00-2.537-.765c-1.253-.369-2.522-.674-3.838-.694-1.35-.034-2.703-.098-4.042-.287-1.686-.235-3.367-.485-5.065-.618-1.677-.246-3.302-.746-4.994-.892-1.655-.085-3.315-.022-4.971-.072-1.433-.04-2.87-.087-4.282-.353-1.312-.218-2.624-.285-3.954-.312a49.792 49.792 0 01-4.8-.54c-1.595-.158-3.2-.252-4.759-.653-1.673-.365-3.372-.616-5.009-1.134l7.538-5.115zM328.082 201.03c2.008-.164 4.003-.294 5.991-.623 1.638-.257 3.29-.387 4.945-.45 1.484-.042 2.969-.018 4.453-.018.964.139.508.017 1.37.348l-7.504 5.117v0c-.728-.157-.336-.1-1.18-.152a111.58 111.58 0 00-4.447.064c-1.622.083-3.24.234-4.845.495-2.018.277-4.057.334-6.067.67l7.284-5.452zM10.305 211.1c1.76.417 3.527.743 5.328.931 1.872.305 3.677.89 5.549 1.2 1.459.151 2.904.192 4.35.443 1.47.16 2.91.456 4.37.683 1.605.466 3.254.703 4.915.834 1.504.15 3.034.346 4.51.687 1.545.352 3.05.827 4.621 1.066 1.255.204 2.48.526 3.751.666 1.29.334 2.595.543 3.88.892 1.136.537 2.336.826 3.576.972 1.19.36 2.413.541 3.648.639 1.24.077 2.482.068 3.723.076 1.446.052 2.923.248 4.333.591 1.443.399 2.843.857 4.332 1.069 1.365.165 2.742.175 4.116.182 1.214.275 2.445.436 3.685.528 1.432.03 2.834.068 4.246.312 1.199.24 2.475.24 3.627-.199a15.219 15.219 0 013.659-1.085c1.368-.115 2.698-.43 4.062-.6.205-.064.416-.11.615-.192 1.09-.445-.014-.151 1.192-.523.756-.233 1.545-.355 2.324-.48 1.494-.344 2.992-.56 4.457-1.009l-7.194 5.536v0c-1.476.383-3 .56-4.482.923-1.423.304-2.74.898-4.164 1.168-1.35.206-2.69.462-4.041.652-1.246.294-2.418.789-3.648 1.132-1.284.176-2.55.188-3.822-.109-1.4-.192-2.813-.14-4.22-.257-1.22-.127-2.422-.366-3.643-.473-1.396-.028-2.795-.078-4.175-.308-1.48-.275-2.89-.78-4.36-1.094-1.399-.238-2.81-.496-4.234-.438-1.263 0-2.528-.013-3.786-.139-1.24-.148-2.452-.418-3.673-.675-1.25-.223-2.438-.623-3.63-1.058-1.256-.326-2.541-.534-3.813-.795-1.264-.19-2.498-.517-3.762-.707-1.556-.31-3.063-.809-4.625-1.091-1.473-.252-2.95-.513-4.443-.617-1.672-.18-3.314-.503-4.953-.881-1.46-.244-2.924-.45-4.388-.67-1.446-.212-2.916-.184-4.353-.47-1.826-.38-3.608-.975-5.469-1.177-1.831-.228-3.629-.619-5.45-.9l7.46-5.234zM153.863 211.1c1.867.317 3.766.394 5.655.459a51.251 51.251 0 015.724.271c1.78.181 3.51.635 5.29.838 1.572.183 3.158.072 4.725.274 1.451.242 2.841.715 4.302.934 1.4.2 2.818.09 4.215.292 1.914.374 3.745.895 5.51 1.731 1.353.888 2.891 1.401 4.411 1.92 1.293.759 2.742 1.112 4.122 1.655 1.048.482 2.216.468 3.256.956.787.373 1.688.242 2.517.475 1.174.248 2.342.378 3.496.706 1.08.332 2.22.26 3.309.51 1.32.334 2.682.415 4.037.478 1.677.093 3.336.394 5.013.53 1.573.259 3.16.681 4.761.548 1.469-.187 2.886-.637 4.355-.858 1.345-.028 2.634-.325 3.956-.521a46.843 46.843 0 004.852-.954c1.17-.253 2.572-.918 3.568-1.593-12.793 7.577-8.572 5.596-6.277 3.24l8.444-3.39v0c-3.095 1.86-2.503 8.701-9.235 5.866-1.193.56-2.353 1.18-3.682 1.357-1.624.375-3.269.657-4.914.922-1.313.241-2.635.338-3.955.523-1.472.276-2.923.731-4.432.74-1.615-.084-3.194-.426-4.795-.637-1.669-.166-3.326-.455-5.006-.496-1.39-.085-2.77-.241-4.13-.546-1.13-.134-2.27-.226-3.362-.57-1.145-.292-2.327-.38-3.476-.658-.899-.115-1.82-.16-2.633-.607-1.043-.37-2.187-.447-3.188-.96-1.394-.496-2.763-1.024-4.105-1.647-1.522-.566-3.036-1.148-4.424-2.005a19.588 19.588 0 00-5.364-1.475c-1.424-.089-2.86-.065-4.268-.33-1.419-.277-2.795-.756-4.237-.897-1.582-.1-3.174-.06-4.747-.294-1.749-.253-3.464-.707-5.23-.844-1.9-.168-3.802-.14-5.706-.225-1.942-.095-3.885-.216-5.811-.484l7.46-5.233zM36.167 230.24c1.987.497 4.024.714 6.032 1.11 1.528.169 2.988.656 4.502.894 1.405.466 2.883.569 4.324.855 1.91.539 3.856.894 5.83 1.076 1.756.211 3.542-.013 5.289.242 1.183.111 2.28.52 3.426.787 1.361.24 2.745.283 4.123.31 1.581.032 3.163.022 4.745.015 1.782.002 3.563.01 5.345.008 1.935.005 3.87 0 5.805-.004 1.528-.003 3.056-.02 4.584-.006 1.676.005 3.352.005 5.029 0 1.757.005 3.515.01 5.272.004 1.72.003 3.44.002 5.16-.004 1.502 0 3.003-.002 4.505-.005 1.286-.003 2.572-.004 3.858-.005 1.115.01 2.26.124 3.234-.5 1.265-.571 2.676-.462 4.002-.77 1.654-.35 3.346-.438 5.03-.515 1.409-.267 2.822-.486 4.251-.595 1.265-.077 2.532-.082 3.798-.075 1.391.107 2.741-.237 4.111-.418 1.377-.165 2.767-.17 4.152-.187 1.657-.013 3.313.005 4.97.011 1.722-.001 3.19.706 4.725 1.368 1.48.63 3.052.907 4.646 1.027l-7.372 5.247v0c-1.649-.196-3.255-.598-4.78-1.269-1.451-.608-2.903-1.115-4.505-1.08-1.668.004-3.337.01-5.005.034-1.368.028-2.738.075-4.094.28-1.387.203-2.77.397-4.179.318-1.253.017-2.509.024-3.758.143-1.418.15-2.819.426-4.24.543-1.672.096-3.337.263-4.975.622-1.345.187-2.698.336-3.934.95-1.13.245-2.268.223-3.421.202-1.282 0-2.563-.002-3.845-.005-1.496-.004-2.993-.004-4.49-.005a981.816 981.816 0 00-5.148-.004 775.727 775.727 0 00-5.285.005 743.625 743.625 0 00-5.027 0c-1.522.013-3.045-.004-4.567-.007a932.848 932.848 0 00-5.795-.002c-1.793 0-3.586.01-5.38.018-1.59-.003-3.182 0-4.773-.03-1.424-.057-2.855-.141-4.248-.459-1.102-.293-2.2-.585-3.34-.7-1.744-.128-3.5-.06-5.24-.27-1.99-.232-3.93-.694-5.888-1.108a44.43 44.43 0 01-4.348-.845c-1.494-.298-2.962-.714-4.472-.936-2.042-.412-4.114-.643-6.142-1.123l7.503-5.14zM12.146 233.187c1.503.234 3.004.337 4.489.677.815.17.411.094 1.212.228l-7.442 5.201v0c-.81-.164-.404-.078-1.22-.259-1.484-.31-3-.385-4.5-.614l7.46-5.233zM180.896 231.48c1.647.806 3.312 1.497 5.11 1.883 1.843.253 3.668.601 5.475 1.04 1.444.265 2.837.743 4.225 1.209 1.434.5 2.904.806 4.409.99 1.643.463 3.352.53 5.027.796 1.815.31 3.651.46 5.49.54 1.7.148 3.376-.181 5.06-.356 1.683-.148 3.37-.19 5.059-.21 1.704-.006 3.408-.004 5.113-.008 1.437-.007 2.875-.007 4.313.003 1.5.21 2.98.53 4.498.424 2.024-.225 4.061-.278 6.094-.347 2.208-.07 4.418-.052 6.626-.06 1.941-.177 3.873-.421 5.819-.542 1.815.036 3.56-.463 5.331-.791 1.8-.314 3.58-.731 5.344-1.21 3.502-.83 9.47-4.83-4.497 3.142 2.54-2.668 5.834-5.57 9.647-5.545 1.567 0 3.134.003 4.702.006 1.497.008 2.994.01 4.49.009 1.378-.006 2.755.003 4.132.002 1.955.008 3.894.161 5.808-.301 1.27-.706 2.551-1.182 3.984-1.391 1.554-.192 3.083-.5 4.648-.637 1.55.078 3.072.334 4.592.623 1.133.217 2.283.311 3.432.393l-7.351 5.247v0c-1.166-.112-2.331-.239-3.482-.465-1.466-.257-2.96-.476-4.452-.41-1.548.18-3.076.485-4.618.715-1.366.327-2.58 1.025-3.944 1.354-1.97.262-3.96.161-5.944.195-1.379 0-2.757.008-4.136 0l-4.48-.02c-1.56-.009-3.129-.054-4.68.125-.25.07-.94.432-.717.3 14.498-8.58 8.254-6.348 6.83-3.571-4.025 2.368-6.887 4.768-11.138 5.73-1.762.452-3.55.809-5.341 1.129-1.8.35-3.584.755-5.43.728-1.937.14-3.864.4-5.806.46-2.205.002-4.41.025-6.614.088-2.054.073-4.1.228-6.148.369-1.519-.043-3.001-.333-4.513-.435-1.439.009-2.877.007-4.315-.003-1.7-.007-3.402-.011-5.102.018-1.67.032-3.34.09-5.002.27-1.715.188-3.43.419-5.16.246a63.472 63.472 0 01-5.497-.624c-1.698-.202-3.393-.397-5.064-.774a27.02 27.02 0 01-4.525-1.114c-1.36-.465-2.745-.876-4.156-1.16-1.8-.439-3.63-.73-5.453-1.052-1.806-.479-3.476-1.276-5.23-1.895l7.537-5.114zM321.358 234.64c3.899-2.293 7.613-5.711 12.269-5.966 1.248-.114 2.43.296 3.65.49 1.101.448 2.3.187 3.448.38.91.253 2.174.198 2.931.86.198.173.327.41.49.615.4.696 1.009 1.195 1.566 1.751l-7.751 4.75v0c-.57-.57-1.147-1.128-1.59-1.808-.786-.761-2.034-.727-3.055-.915-1.17-.07-2.346-.035-3.47-.423-1.164-.212-2.312-.49-3.503-.296-.694.104-1.332.241-1.981.52-.276.12-1.07.544-.812.39 4.204-2.5 9.559-5.507 6.279-3.663l-8.47 3.315zM9.692 265.702c1.637.54 3.345.803 5.02 1.198 1.508.272 2.975.693 4.491.924 1.304.053 2.538.453 3.823.637 1.254.01 2.444.307 3.667.527 1.075.449 2.197.684 3.35.802 1.12-.03 2.17.342 3.263.52 1.27.164 2.554.17 3.832.186 1.807.015 3.613.014 5.42.01 1.47.048 2.953-.114 4.362-.547 1.275-.34 2.562-.575 3.779-1.101 1.14-.593 2.467-.509 3.65-.912 1.183-.37 2.391-.354 3.547-.827 1.433-.548 2.873-1.087 4.25-1.768-1.667 1.068 3.699-1.995 1.883-.933-2.394 1.399-9.604 5.544-7.22 4.129 7.923-4.7 5.303-3.815 8.942-4.976 1.428-.155 2.614-.904 3.884-1.51 1.287-.414 2.546-.919 3.878-1.186 1.186-.398 2.283-.907 3.514-1.172 1.223-.121 2.363-.523 3.581-.689 1.294-.154 2.598-.174 3.899-.188 1.24-.28 2.495-.458 3.764-.529 1.417-.127 2.82.059 4.221.253l-7.404 5.224v0c-1.364-.192-2.733-.255-4.105-.09-1.274.14-2.53.409-3.81.489-1.276.03-2.556.073-3.816.296-1.181.237-2.347.542-3.533.752-1.187.36-2.307.91-3.528 1.161-1.273.357-2.538.787-3.742 1.33-1.27.625-2.574 1.078-3.93 1.47-.192.098-.763.402-.577.293 2.404-1.404 9.683-5.5 7.232-4.18-3.413 1.84-6.65 4.107-10.216 5.686-1.422.614-2.856 1.206-4.327 1.694-1.194.304-2.43.415-3.608.794-1.224.209-2.427.478-3.571.978-1.264.401-2.556.683-3.839 1.015-1.475.281-2.952.433-4.456.345-1.815 0-3.63.006-5.445-.008-1.325-.02-2.658-.023-3.965-.276-1.07-.216-2.13-.446-3.228-.49-1.153-.183-2.256-.524-3.375-.847-1.21-.241-2.421-.373-3.646-.51-1.27-.226-2.523-.535-3.81-.656-1.512-.283-3.002-.667-4.505-.986-1.678-.402-3.374-.72-5.056-1.098l7.46-5.234zM121.962 257.726c1.523.277 3.07.38 4.614.45 1.402.078 2.772.403 4.174.533 1.728.125 3.462.135 5.194.14 1.468-.002 2.936-.011 4.403-.016 1.239-.004 2.477-.004 3.716-.004 1.123.124 2.167-.268 3.262-.438.182-.02.368-.019.547-.062.315-.076.601-.244.912-.334.511-.15 1.004-.214 1.505-.4 1.102-.461 2.334-.337 3.449-.699.662-.3 1.413-.248 2.1-.415.317-.076.61-.231.919-.334 1.057-.196 1.91-.857 2.9-1.228 1.06-.153 2.051-.503 3.09-.747 1.067-.046 2.044-.376 3.072-.61 1.11-.549 2.327-.678 3.541-.776 1.315.025 2.563-.357 3.86-.518 1.373-.073 2.696-.426 4.06-.595 1.546-.14 3.098-.18 4.65-.202 1.678-.047 3.362.158 5 .521 1.346.298 2.582.895 3.942 1.15 1.385.309 2.532 1.15 3.784 1.774 1.308.778 2.65 1.48 4.048 2.08 1.015.664 2.146 1.112 3.192 1.707.629.312.326.13.906.55l-7.67 4.905v0c-.525-.325-.244-.162-.847-.481a100.64 100.64 0 01-3.128-1.67c-1.388-.65-2.73-1.378-4.066-2.127-1.184-.628-2.342-1.325-3.684-1.563-1.31-.34-2.542-.93-3.882-1.16-1.627-.272-3.266-.45-4.918-.348-1.528.029-3.06.071-4.576.287-1.356.215-2.7.497-4.072.608-1.287.213-2.562.452-3.871.488-1.206.168-2.346.518-3.5.895-1.013.268-2.049.363-3.064.622-1 .293-2.045.428-3.002.855-.955.475-1.925.9-2.968 1.15-1.003.281-2.05.388-3.05.69-1.156.163-2.306.35-3.409.75-1.01.246-1.996.593-3.034.71-1.11.22-2.206.39-3.343.302h-3.71a423.944 423.944 0 01-4.367-.02c-1.758-.02-3.52-.024-5.273-.191-1.382-.162-2.747-.469-4.143-.501a61.257 61.257 0 01-4.723-.494l7.46-5.233z" fill="#000" stroke="#000" stroke-width="1.7" stroke-linecap="round"/><path d="M140.442 260.1c1.15 1.412 2.525 2.62 3.848 3.869.983 1.079 2.261 1.576 3.525 2.197.968.52 2.078.475 3.113.74 1.385.198 2.734.532 4.102.813 1.523.525 3.107.727 4.704.848 1.555.093 3.114.094 4.672.096 1.465-.046 2.89.303 4.284.707 1.174.342 2.394.431 3.61.483 1.338.037 2.678.034 4.017.03 1.207.132 2.338-.264 3.514-.447 1.365-.037 2.664-.305 3.882-.926 1.24-.526 2.512-1.011 3.816-1.361 1.164-.222 2.089-.95 3.232-1.275 1-.483 1.96-1.044 2.973-1.505.195-.068.398-.118.587-.204 1.434-.655-.445.059.988-.523.518-.21 1.057-.306 1.578-.512.742-.344 1.577-.32 2.354-.502.345-.081.669-.236 1.007-.342 1.023-.67 2.258-.67 3.381-1.026 1.477-.422 3.005-.364 4.464-.863 1.369-.509 2.802-.71 4.196-1.127a53.368 53.368 0 014.614-.817c1.483-.058 2.911-.447 4.374-.66 1.337-.178 2.687-.174 4.032-.187 1.333-.009 2.666-.007 4-.006 1.116.01 2.192.361 3.303.494l-7.43 5.242v0c-1.069-.171-2.124-.47-3.216-.403-1.326-.003-2.652-.009-3.977.01-1.326.027-2.655.074-3.965.296-1.445.248-2.885.505-4.35.623-1.54.235-3.073.532-4.577.944-1.387.374-2.81.612-4.168 1.098-1.497.323-3.037.409-4.502.877-1.169.246-2.273.626-3.382 1.06-1.105.303-2.261.418-3.322.881-1.07.345-2.063.85-3.085 1.313-.992.52-1.988 1.05-3.046 1.424-1.073.448-2.08 1.04-3.244 1.236-1.267.425-2.527.876-3.745 1.43-1.312.451-2.664.614-4.036.782-1.188.226-2.365.393-3.58.303-1.355-.002-2.711.014-4.065-.064-1.257-.096-2.507-.268-3.715-.646-1.344-.364-2.726-.578-4.123-.52-1.567-.01-3.136-.029-4.698-.173a27.437 27.437 0 01-4.8-.917 86.806 86.806 0 00-4.116-.796c-1.118-.178-2.232-.361-3.237-.922-1.347-.63-2.576-1.39-3.62-2.473-1.321-1.27-2.675-2.506-3.928-3.844l7.757-4.754zM253.311 257.108c1.867.325 3.714.724 5.6.935 1.57.223 3.172.04 4.732.297 1.237.256 2.493.383 3.753.448 1.392.345 2.751.758 4.168.997 1.537.108 3.039.339 4.553.614 1.24.442 2.425 1.029 3.646 1.527a45.47 45.47 0 013.905 1.132c1.256.29 2.477.678 3.722 1.005 1.155.287 2.218.812 3.38 1.105 1.259.281 2.46.718 3.743.9 1.067.073 2.018.636 3.1.5a9.636 9.636 0 013.426-.092c1.394.109 2.75.396 4.125.638 1.483.226 2.984.272 4.482.305 1.426.02 2.853.01 4.279.006 1.538.006 3.076.006 4.613.002 1.387.036 2.736.025 4.096-.24 1.199-.247 2.42-.319 3.64-.362 1.317.03 2.599-.28 3.903-.435 1.248.005 2.407-.432 3.624-.634.987-.395 1.968-.829 3.01-1.052.217-.074.432-.154.65-.223 1.108-.354.289.003 1.324-.582.22-.124.886-.484.667-.359-7.638 4.39-9.425 5.593-6.612 3.727 8.466-4.916 5.292-3.71 8.862-5.024l-7.116 5.644v0c-2.96 1.597-.68.373 6.701-3.922-3.68 2.43-7.396 5.053-11.668 6.27-1.016.355-2.015.785-3.071 1.002-1.202.261-2.397.5-3.63.57-1.318.183-2.628.416-3.965.392-1.2.075-2.391.216-3.574.437-1.38.175-2.772.102-4.161.11-1.543-.003-3.087 0-4.63.01-1.426-.001-2.852-.003-4.278-.037-1.528-.048-3.057-.152-4.566-.415a45.465 45.465 0 00-4.115-.57c-1.136-.079-2.246.163-3.382.17-1.074-.139-2.095-.505-3.173-.624-1.276-.259-2.496-.707-3.767-.988-1.15-.335-2.25-.811-3.417-1.09-1.234-.376-2.486-.674-3.714-1.067-1.31-.44-2.673-.66-3.958-1.173-1.159-.5-2.309-1.073-3.54-1.367-1.498-.29-3.01-.409-4.517-.634-1.388-.274-2.74-.71-4.145-.886-1.266-.102-2.518-.294-3.77-.496-1.563-.114-3.135-.108-4.69-.33-1.9-.26-3.77-.71-5.68-.898l7.435-5.243zM51.98 280.29c1.716.045 3.432.026 5.149.028 1.768.004 3.537-.002 5.305-.004 1.542-.007 3.085-.007 4.627 0 1.504 0 3.009-.005 4.513-.01l3.776-.003c1.457-.106 2.876.146 4.313.336 1.403.184 2.818.241 4.231.27 1.168-.109 2.27.258 3.407.44 1.204.19 2.428.079 3.625.297 1.317.27 2.655.39 3.995.457 1.335.048 2.67.05 4.005.051 1.512.207 3.01.412 4.497.755 1.345.327 2.726.4 4.104.447 1.42.03 2.84.03 4.261.027 1.325-.036 2.613-.058 3.909.228 1.111.189 2.208.328 3.306.588 1.229.158 2.417.47 3.629.72.894.09 1.722.502 2.62.587.296.028 1.25-.02 1.535-.032 1.44-.096 2.88-.185 4.322-.23 1.292-.151 2.527.091 3.792.304 1.37.213 2.76.242 4.144.273 1.42-.006 2.808-.043 4.2.245 1.092.245 2.21.308 3.324.35 1.36.133 2.704.402 4.076.516 1.459.367 2.94.56 4.438.662 1.416.093 2.801.423 4.216.567 1.12.3 2.238.568 3.348.9.99.2 1.965.395 2.944.642l-7.47 5.156v0c-.989-.239-2-.376-2.974-.671a39.435 39.435 0 00-3.245-.784c-1.393-.183-2.77-.49-4.176-.555-1.496-.138-2.964-.406-4.44-.672-1.369-.138-2.719-.413-4.093-.459-1.141-.07-2.275-.2-3.394-.442-1.353-.205-2.724-.094-4.088-.155-1.418-.04-2.84-.114-4.24-.359a15.4 15.4 0 00-3.682-.161c-1.437.056-2.873.16-4.311.193-1.473-.032-2.87-.373-4.301-.698-1.208-.274-2.424-.48-3.637-.722-1.093-.23-2.21-.307-3.3-.557-1.249-.195-2.516-.082-3.777-.111-1.43-.001-2.86.01-4.287-.06-1.414-.08-2.822-.216-4.196-.576a29.018 29.018 0 00-4.383-.593c-1.35-.004-2.701.004-4.049-.089a48.727 48.727 0 01-4.034-.507c-1.222-.1-2.456-.072-3.663-.314-1.099-.21-2.184-.41-3.312-.348a41.736 41.736 0 01-4.26-.36c-1.422-.185-2.838-.288-4.274-.22-1.255 0-2.51 0-3.766-.004-1.496-.003-2.993-.01-4.49-.009-1.54.006-3.082.006-4.624 0-1.765-.003-3.53-.009-5.294-.005-1.741.002-3.483-.016-5.225.028l7.374-5.357zM187.63 285.203c1.853.11 3.683.001 5.496-.39 1.104-.338 2.273-.39 3.393-.64.432-.096.848-.255 1.277-.362 1.516-.303 3.058-.515 4.55-.928 1.644-.26 3.245-.656 4.865-1.028.216-.039.441-.044.65-.117.41-.143.764-.42 1.162-.596.604-.27 1.213-.44 1.854-.59 1.654-.227 3.196-.844 4.846-1.12 1.682-.256 3.304-.764 5.021-.727 1.395.096 2.784.373 4.18.21 1.453-.074 2.841-.44 4.256-.735 1.246-.307 2.55-.168 3.793-.444.902-.303 1.89-.179 2.805-.364.552-.112 1.072-.348 1.613-.506 1.538-.432 3.112-.66 4.661-1.039 1.214-.54 2.5-.813 3.813-.958 1.511-.317 2.967-.787 4.497-1.02 1.614-.234 3.243-.276 4.871-.286 1.543.262 3.128.294 4.655.635 1.324.291 2.57.804 3.914 1.033 1.414.468 2.847.923 4.153 1.65 1.365.5 2.41 1.518 3.69 2.166 1.449.578 2.708 1.475 4.176 2.015 1.34.389 2.64.819 4.033.966 1.965.065 3.804.734 5.608 1.447 1.562.546 3.045 1.247 4.676 1.568 1.03.354 2.068.648 3.106.967 1.092.288 2.132.752 3.19 1.146 1.194.466 2.38.814 3.653.98 1.33.208 2.695.012 4.013.27.878.227 1.774.339 2.676.412l-7.407 5.268v0c-.905-.108-1.797-.279-2.693-.442-1.333-.1-2.677-.068-3.999-.298-1.304-.235-2.541-.654-3.78-1.12-1.043-.402-2.09-.804-3.169-1.1-1.01-.328-2.04-.588-3.047-.923-1.614-.436-3.11-1.168-4.686-1.714-1.784-.68-3.615-1.145-5.531-1.239-1.432-.225-2.79-.699-4.165-1.151-1.448-.631-2.78-1.486-4.238-2.099-1.235-.715-2.347-1.627-3.69-2.153a18.422 18.422 0 00-4.02-1.427c-1.31-.304-2.557-.825-3.89-1.035-1.498-.228-3.01-.421-4.525-.501-1.6.046-3.205.112-4.783.402-1.525.318-3.01.804-4.556 1.022-1.284.225-2.503.646-3.75 1.014-1.535.35-3.103.56-4.606 1.045-1.488.404-3.015.537-4.529.816-1.256.115-2.521.178-3.752.479-1.43.312-2.872.542-4.337.614-1.4-.015-2.789-.205-4.189-.231-1.657.13-3.258.584-4.9.826-1.627.365-3.211.897-4.85 1.215-1.235.41-2.382 1.067-3.682 1.264-1.605.384-3.234.627-4.837 1.018-1.523.322-3.055.603-4.572.95-1.534.385-3.113.563-4.655.92-1.881.288-3.769.321-5.67.313l7.362-5.348zM10.305 285.334c1.487.15 2.93.469 4.387.782 1.193.245 2.412.289 3.625.316 1.054.118 1.98.584 2.97.908l-7.544 5.099v0c-.902-.342-1.813-.663-2.79-.695-1.248-.058-2.495-.162-3.712-.46a35.65 35.65 0 00-4.396-.716l7.46-5.234zM22.532 298.696c1.706-.035 3.388.271 5.082.434 1.88.302 3.696.856 5.579 1.135 1.823.42 3.67.695 5.507 1.044 1.95.272 3.836.845 5.757 1.257 1.833.417 3.706.645 5.545 1.026 1.468.41 3.012.39 4.49.717 1.386.357 2.832.317 4.224.61 1.453.19 2.866.537 4.298.833 1.375.199 2.747.32 4.118.543 1.5.42 3.008.778 4.46 1.344 1.35.848 2.827 1.381 4.295 1.968 1.203.422 2.335 1.046 3.437 1.686 1.062.731 2.079 1.522 3.114 2.295 1.397.596 2.74 1.316 4.159 1.858.604-.088.346.035.783-.349-2.503 1.41-4.989 2.851-7.51 4.228-.136.074.24-.197.34-.314.2-.23.494-.755.633-.987.69-.994 1.308-2.042 2.02-3.02.638-.771 1.458-1.33 2.216-1.97 2.83-2.177 5.237-3.255 8.99-5.373.152-.086.343-.073.504-.14 1.5-.623-.819.144.936-.403 1.133-.186 2.165-.656 3.295-.866.571-.394 1.278-.408 1.908-.617.149-.05.28-.14.42-.21l.524-.153c1.73-.334 3.505-.22 5.237-.5a26.693 26.693 0 014.056-.507c1.367-.043 2.735-.037 4.102-.039 1.338-.004 2.675.003 4.013.007 1.453-.003 2.907.004 4.36.002 1.646-.005 3.292.011 4.938.01 1.719.008 3.438-.01 5.158-.007 1.703-.002 3.407.006 5.11.008 1.714-.061 3.396.283 5.065.62l-7.383 5.148v0c-1.641-.316-3.297-.544-4.974-.47-1.711.003-3.422.011-5.134.009-1.712.004-3.425-.016-5.138-.007-1.655 0-3.31.015-4.966.01-1.454-.001-2.909.005-4.364 0-1.339 0-2.678.004-4.018 0-1.36.001-2.72 0-4.078.095-1.337.111-2.658.326-3.985.515-1.735.144-3.51.145-5.182.681-.95.35-1.938.611-2.903.914-1.078.298-2.15.628-3.214.971l-.488.232c-.15.06-.304.113-.45.182-.148.07-.573.315-.432.232 13.81-8.113 8.817-5.668 6.557-3.684-.388.226-.507.26-.825.584-.123.126-.197.3-.337.407-.365.283-.903.313-1.123.81-.928.748-1.36 1.966-2.106 2.884-.119.165-.257.317-.356.495-.057.1-.345.929-.481 1.014-3.622 2.267-5.675 5.657-9.258 4.596-1.444-.64-2.884-1.307-4.281-2.044-1.011-.744-1.99-1.53-3.058-2.194-1.09-.586-2.176-1.192-3.35-1.596-1.468-.567-2.866-1.26-4.278-1.952a37.884 37.884 0 00-4.352-1.201c-1.39-.2-2.798-.255-4.169-.575a59.271 59.271 0 00-4.277-.8c-1.414-.187-2.835-.318-4.232-.618-1.49-.216-2.985-.4-4.452-.752-1.857-.328-3.712-.653-5.556-1.053-1.906-.45-3.801-.945-5.742-1.23-1.827-.346-3.664-.629-5.48-1.032-1.863-.32-3.68-.869-5.564-1.08-1.698-.177-3.394-.429-5.107-.304l7.373-5.357zM174.17 298.213c1.845.32 3.673.71 5.536.933 1.539.032 3.035.326 4.557.517 2.072.379 4.158.62 6.225 1.02 1.52.182 3.003.505 4.503.8 1.184.126 2.332.444 3.456.832 1.243.419 2.546.563 3.848.646 1.2.278 2.395.463 3.57.83 1.567.27 3.112.577 4.658.964 1.35.52 2.73.926 4.07 1.463 1.067.322 2.055.838 2.995 1.43.903.528 1.782 1.089 2.695 1.601 1.082.553 2.007 1.295 2.946 2.053.382.27.695.516 1.147.304.097-.046.377-.204.283-.152-7.741 4.289-9.886 5.756-6.994 3.807 1.533-1.117 3.162-2.083 4.685-3.215 1.206-.805 2.293-1.764 3.439-2.65 3.629-2.01 7.174-5.043 11.441-5.659 1.103-.167 2.155-.51 3.274-.636 1.27.01 2.493-.271 3.747-.42 1.668-.185 3.348-.239 5.025-.277 1.504-.238 3.01-.455 4.53-.543 1.575-.07 3.153-.077 4.73-.085 1.364-.01 2.728-.001 4.093.003 1.492-.138 2.895.26 4.316.642 1.37.374 2.7.83 4.11 1.045 1.018.13 2.046.144 3.07.156l-7.356 5.32v0c-1.053-.032-2.109-.08-3.146-.277-1.4-.291-2.743-.773-4.13-1.114-1.381-.347-2.763-.54-4.192-.45-1.363.002-2.726.004-4.089 0-1.563.007-3.128.014-4.687.136-1.523.144-3.032.4-4.557.505-1.658.043-3.317.11-4.96.355-1.257.2-2.514.332-3.78.456-1.086.198-2.141.529-3.24.654-3.49.807-9.27 4.798 4.258-3.106-1.305.692-2.254 1.875-3.52 2.624-.532.386-1.031.816-1.567 1.197-.783.555-1.63 1.005-2.44 1.51-.22.138-.416.309-.624.463-3.01 2.66-7.08 7.006-10.559 4.228a17.334 17.334 0 00-2.892-1.918 327.174 327.174 0 00-2.687-1.617 16.542 16.542 0 00-2.919-1.313c-1.285-.527-2.616-.941-3.925-1.405-1.578-.381-3.19-.53-4.755-.953-1.126-.324-2.293-.491-3.447-.684-1.347-.138-2.678-.374-3.965-.805-1.123-.308-2.241-.61-3.398-.765-1.478-.32-2.966-.553-4.453-.822-2.054-.397-4.129-.664-6.198-.966-1.52-.194-3.038-.372-4.563-.521-1.87-.28-3.717-.712-5.6-.898l7.436-5.243zM317.01 297.469c1.548.035 3.096.023 4.644.018 1.444-.108 2.847.242 4.27.415 1.497.136 2.954.507 4.396.907 1.312.405 2.699.341 4.03.61 1.171.351 2.42.28 3.59.6 1.12.455 2.232.797 3.433.976.91.041 1.765.38 2.631.628l-7.544 5.142v0a11.866 11.866 0 00-2.512-.57c-1.193-.239-2.311-.664-3.479-.99-1.182-.179-2.372-.312-3.54-.577-1.37-.17-2.753-.272-4.079-.693a25.866 25.866 0 00-4.322-.803c-1.395-.191-2.78-.422-4.196-.325-1.565-.004-3.13-.016-4.695.019l7.373-5.357zM337.952 279.945c1.01.268 1.99.62 2.987.933l-7.47 5.083v0a53.409 53.409 0 00-3.055-.901l7.538-5.115zM9.648 324.463c2.031-.047 4.043.176 6.062.353 1.984.311 4.059-.03 6 .484a16.73 16.73 0 004.058.929c1.513.11 3.031.104 4.548.101 1.363-.01 2.726-.009 4.09-.008 1.483-.002 2.966.002 4.45 0 1.442-.005 2.885 0 4.327-.002 1.311-.003 2.622-.005 3.932-.005h3.69c1.269.018 2.507.351 3.77.49 1.095.032 2.155.136 3.226.359l-7.444 5.198v0c-1.06-.18-2.13-.185-3.196-.312-1.23-.174-2.451-.47-3.701-.399h-3.688l-3.917-.007c-1.442-.002-2.883.003-4.325 0-1.484-.003-2.967.002-4.451.004-1.364.005-2.728.015-4.092.004-1.539-.014-3.083-.02-4.614-.184-1.396-.203-2.729-.618-4.082-1.005-1.944-.275-3.927-.187-5.877-.44-2.044-.175-4.086-.318-6.139-.202l7.373-5.357zM62.41 339.187c1.49-.192 2.958-.359 4.41-.75 1.21-.33 2.462-.415 3.71-.445 1.44-.01 2.84-.39 4.23-.726 1.377-.33 2.788-.442 4.198-.502a34.992 34.992 0 014.225-.558c1.527-.07 3.056-.067 4.584-.072 1.502.034 2.982.356 4.482.484 1.454.27 2.936.43 4.252 1.142 1.004.442 2.058.82 3.117 1.128 1.074.12 2.09.416 3.138.66a7.074 7.074 0 001.81.666l-7.507 5.147v0c-.606-.195-1.187-.45-1.792-.644-1.05-.275-2.12-.422-3.166-.715-1.076-.373-2.175-.712-3.189-1.236-1.278-.535-2.658-.724-4.024-.904-1.478-.149-2.946-.452-4.437-.408-1.52.007-3.042.016-4.558.144-1.42.139-2.825.393-4.244.54-1.377.094-2.746.268-4.083.62-1.424.345-2.879.572-4.346.6-1.218.091-2.426.252-3.606.582-1.504.326-3.048.464-4.578.604l7.373-5.357zM119.417 324.103c.222-.13.89-.52.666-.392-2.312 1.322-4.618 2.655-6.932 3.974-.275.156.541-.33.816-.487 2.652-1.519 6.663-4.223 10.131-5.614 1.474-.403 2.947-.86 4.457-1.108 1.444-.218 2.905-.27 4.364-.296 1.35-.018 2.698-.002 4.048 0 1.403-.11 2.758.106 4.134.338 1.758.457 3.56.67 5.367.804 1.767.104 3.535.365 5.223.904 1.67.467 3.354.906 5.048 1.287 1.504.121 2.89.684 4.323 1.1.987.258 2.045.295 3.01.642.062.022 1.354.659 1.441.702 1.247.658 2.611.83 3.994.932 1.972.587 3.992.916 6.035 1.12 1.555.14 3.117.156 4.677.158 1.516-.088 2.999.243 4.497.413 1.527.148 3.06.176 4.593.19 1.113.241 2.225.444 3.36.537 1.232.076 2.466.078 3.7.084 1.36.002 2.72-.004 4.081-.007l.532-.126-7.283 5.438v0l-.588.022c-1.358 0-2.716 0-4.074-.005-1.26-.006-2.521-.006-3.775-.138-1.104-.134-2.185-.402-3.293-.49-1.548-.038-3.097-.101-4.637-.274-1.482-.187-2.956-.415-4.455-.32-1.561-.026-3.122-.087-4.673-.275-2.047-.26-4.05-.698-6.075-1.074-1.457-.173-2.866-.484-4.167-1.196-1.398-.643-2.884-.883-4.376-1.228-1.413-.444-2.825-.826-4.29-1.061-1.686-.432-3.38-.84-5.047-1.337-1.677-.43-3.4-.652-5.128-.757-1.832-.185-3.642-.483-5.45-.832-1.34-.221-2.676-.273-4.033-.228-1.348-.002-2.695 0-4.042.026-1.426.045-2.857.121-4.257.412-1.455.346-2.931.666-4.313 1.247-.527.257-2.072 1.093-1.567.796 15.483-9.103 1.226-.53-3.174 1.755l7.132-5.636zM200.977 339.942c1.89-.761 3.7-1.71 5.592-2.466.74-.345 1.56-.393 2.336-.59.567-.142 1.109-.37 1.68-.507 1.39-.213 2.797-.22 4.199-.242 1.763-.007 3.526.002 5.29.008 1.932.003 3.865.006 5.798.004 1.576.048 3.166-.133 4.73.098 1.794.154 3.49.76 5.228 1.187 1.676.389 3.314.828 5.03 1.017 1.401-.018 2.74.382 4.116.567 1.137.134 1.879.776 2.7 1.48l.237.277-7.832 4.717v0l-.15-.175c-.697-.619-1.42-.997-2.374-1.078-1.353-.228-2.693-.51-4.07-.573-1.723-.249-3.38-.728-5.074-1.12-1.71-.448-3.413-.936-5.188-1.05-1.546-.074-3.095-.027-4.643-.05-1.932-.005-3.865-.004-5.798-.006-1.77.002-3.541-.004-5.311.034-1.375.038-2.767.076-4.102.439-1.296.376-2.63.617-3.878 1.145-1.88.817-3.764 1.646-5.578 2.598l7.062-5.713zM263.023 323.236c.726-.191 1.512-.121 2.237-.3.859-.211 1.7-.598 2.562-.827 1.788-.162 3.323-.946 4.83-1.84.45-.39 1.128-.308 1.627-.543.159-.075.56-.42.408-.334-7.219 4.037-9.468 6.162-6.997 3.883 3.384-3.16 7.323-5.194 11.748-5.513 1.637-.077 3.277-.035 4.915-.028 1.639-.005 3.258-.089 4.871.225 1.134.165 2.235.343 3.28.83.988.5 2.072.643 3.161.728 1.236-.042 2.24.639 3.325 1.113 1.27.648 2.607 1.131 3.898 1.732 1.193.7 2.439 1.256 3.63 1.967.997.616 2.176.584 3.273.862 1.575.335 3.064.93 4.639 1.3 1.336.526 2.703.843 4.128.976 1.508.178 2.994.46 4.514.577 1.864.004 3.672.188 5.442.772.637.081.327.06.93.07l-7.426 5.276v0c-.66-.124-.325-.044-1.002-.243-1.719-.521-3.499-.572-5.284-.636-1.531-.138-3.036-.426-4.566-.577-1.433-.202-2.791-.625-4.157-1.096-1.56-.41-3.086-.946-4.676-1.237-1.202-.206-2.396-.428-3.436-1.116-1.15-.702-2.393-1.206-3.557-1.883-1.304-.563-2.61-1.12-3.895-1.726-1.035-.457-2.029-.88-3.186-.869-1.149-.154-2.262-.427-3.312-.933-1.028-.344-2.093-.49-3.159-.675-1.561-.23-3.145-.105-4.718-.147-1.638.003-3.28-.005-4.914.137-.678.084-1.349.174-2.004.377-.22.069-.846.355-.649.236 6.652-4.02 9.808-5.16 6.6-3.965-2.936 2.952-6.855 4.418-10.508 6.168-1.534.84-3.207 1.27-4.911 1.626-1.649.499-3.294.969-5.035.99l7.374-5.357z" fill="#000" stroke="#000" stroke-width="1.7" stroke-linecap="round"/><ellipse cx="298.843" cy="40.593" rx="15.046" ry="14.352" fill="#fff" stroke="#000" stroke-width="1.7" stroke-linecap="round"/><circle cx="33.796" cy="36.426" r="19.907" fill="#000" stroke="#000" stroke-width="1.7" stroke-linecap="round"/><path fill="#fff" stroke="#fff" stroke-width="1.7" stroke-linecap="round" d="M83.514 286.879h179.509v36.357H83.514z"/><g aria-label="Start" style="line-height:1.25;-inkscape-font-specification:'Arial Bold';text-align:center" font-weight="700" font-size="27.024" font-family="Arial" letter-spacing="0" word-spacing="0" text-anchor="middle" fill="#000" stroke-width="2.027"><path d="M144.996 307.691l3.8-.37q.343 1.914 1.385 2.811 1.056.898 2.837.898 1.887 0 2.837-.792.963-.805.963-1.874 0-.686-.409-1.16-.395-.49-1.398-.845-.686-.238-3.128-.845-3.14-.778-4.407-1.913-1.781-1.597-1.781-3.893 0-1.478.831-2.757.845-1.294 2.415-1.967 1.583-.673 3.813-.673 3.642 0 5.476 1.597 1.848 1.597 1.94 4.262l-3.906.172q-.25-1.491-1.082-2.138-.818-.66-2.467-.66-1.702 0-2.666.7-.62.448-.62 1.2 0 .687.58 1.175.74.62 3.59 1.293 2.85.673 4.21 1.399 1.371.712 2.137 1.966.778 1.24.778 3.074 0 1.663-.923 3.114-.924 1.452-2.613 2.164-1.69.7-4.21.7-3.668 0-5.634-1.69-1.966-1.702-2.348-4.948zM170.436 299.972v2.956h-2.534v5.647q0 1.716.066 2.006.08.277.33.462.264.185.634.185.514 0 1.49-.357l.317 2.877q-1.293.554-2.929.554-1.003 0-1.808-.33-.805-.343-1.187-.87-.37-.542-.515-1.452-.119-.647-.119-2.613v-6.11h-1.702v-2.955h1.702v-2.784l3.721-2.164v4.948zM175.806 304.247l-3.365-.607q.568-2.032 1.953-3.008 1.386-.977 4.117-.977 2.48 0 3.695.594 1.214.58 1.702 1.491.501.898.501 3.312l-.04 4.328q0 1.848.172 2.732.185.87.673 1.873h-3.668q-.145-.37-.356-1.095-.093-.33-.132-.435-.95.923-2.032 1.385-1.082.462-2.31.462-2.163 0-3.417-1.174-1.24-1.175-1.24-2.97 0-1.187.567-2.11.568-.937 1.584-1.426 1.029-.5 2.955-.87 2.6-.489 3.602-.91v-.37q0-1.07-.527-1.518-.528-.462-1.993-.462-.99 0-1.544.396-.554.383-.897 1.36zm4.961 3.009q-.712.237-2.256.567-1.544.33-2.019.647-.725.514-.725 1.306 0 .779.58 1.346.58.567 1.478.567 1.003 0 1.913-.66.673-.5.884-1.226.145-.476.145-1.808zM191.627 313.985h-3.708v-14.013h3.444v1.993q.884-1.412 1.584-1.86.712-.45 1.61-.45 1.266 0 2.44.7l-1.148 3.233q-.936-.607-1.741-.607-.779 0-1.32.435-.54.422-.857 1.544-.304 1.121-.304 4.697zM205.007 299.972v2.956h-2.534v5.647q0 1.716.066 2.006.08.277.33.462.264.185.634.185.514 0 1.49-.357l.317 2.877q-1.293.554-2.929.554-1.003 0-1.808-.33-.805-.343-1.187-.87-.37-.542-.515-1.452-.119-.647-.119-2.613v-6.11h-1.702v-2.955h1.702v-2.784l3.721-2.164v4.948z"/></g><g aria-label="There's mythical creatures here" style="line-height:1.25;-inkscape-font-specification:'Arial Bold';text-align:center" font-weight="700" font-size="40.279" font-family="Arial" letter-spacing="0" word-spacing="0" text-anchor="middle" fill="#fff" stroke-width="3.021"><path d="M111.693 103.682V79.727h-8.556v-4.878h22.913v4.878h-8.535v23.955zM135.294 74.85v10.6q2.675-3.127 6.392-3.127 1.908 0 3.442.708 1.534.708 2.301 1.81.787 1.1 1.062 2.438.295 1.337.295 4.15v12.253h-5.526V92.648q0-3.284-.315-4.17-.315-.884-1.121-1.396-.787-.53-1.987-.53-1.376 0-2.458.668-1.082.669-1.593 2.026-.492 1.337-.492 3.973v10.463h-5.526V74.849zM166.507 97.034l5.507.925q-1.062 3.028-3.363 4.622-2.282 1.573-5.724 1.573-5.448 0-8.063-3.56-2.066-2.852-2.066-7.198 0-5.193 2.715-8.123 2.714-2.95 6.864-2.95 4.66 0 7.355 3.088 2.695 3.068 2.577 9.42h-13.846q.059 2.459 1.337 3.836 1.279 1.357 3.186 1.357 1.298 0 2.183-.708.885-.708 1.338-2.282zm.314-5.585q-.059-2.4-1.239-3.639-1.18-1.259-2.871-1.259-1.81 0-2.99 1.318-1.18 1.318-1.16 3.58zM182.123 103.682h-5.527V82.795h5.134v2.97q1.317-2.105 2.36-2.773 1.062-.67 2.4-.67 1.887 0 3.638 1.043l-1.711 4.819q-1.397-.905-2.596-.905-1.16 0-1.967.65-.807.628-1.279 2.3-.452 1.672-.452 7.002zM204.584 97.034l5.506.925q-1.062 3.028-3.363 4.622-2.281 1.573-5.723 1.573-5.448 0-8.064-3.56-2.065-2.852-2.065-7.198 0-5.193 2.714-8.123 2.714-2.95 6.864-2.95 4.662 0 7.356 3.088 2.694 3.068 2.576 9.42H196.54q.06 2.459 1.338 3.836 1.278 1.357 3.186 1.357 1.298 0 2.183-.708.885-.708 1.338-2.282zm.314-5.585q-.059-2.4-1.239-3.639-1.18-1.259-2.871-1.259-1.81 0-2.99 1.318-1.18 1.318-1.16 3.58zM214.87 85.096l-1.043-5.37V74.85h6.019v4.878l-.905 5.369zM222.56 97.723l5.546-.846q.354 1.613 1.436 2.458 1.082.826 3.029.826 2.143 0 3.225-.786.728-.551.728-1.475 0-.63-.393-1.043-.413-.393-1.85-.727-6.686-1.476-8.476-2.695-2.478-1.691-2.478-4.7 0-2.715 2.144-4.563 2.143-1.85 6.647-1.85 4.288 0 6.373 1.397 2.084 1.397 2.871 4.13l-5.212.964q-.334-1.22-1.278-1.868-.925-.65-2.655-.65-2.183 0-3.128.61-.629.433-.629 1.121 0 .59.55 1.004.748.55 5.154 1.553 4.425 1.003 6.175 2.459 1.731 1.475 1.731 4.11 0 2.872-2.4 4.937-2.399 2.065-7.1 2.065-4.267 0-6.765-1.73-2.478-1.732-3.245-4.701zM93.894 133.144h5.094v2.852q2.733-3.324 6.51-3.324 2.006 0 3.48.826 1.476.826 2.42 2.498 1.377-1.672 2.97-2.498 1.593-.826 3.402-.826 2.301 0 3.894.944 1.593.925 2.38 2.734.57 1.337.57 4.327v13.354h-5.526v-11.938q0-3.107-.57-4.012-.767-1.18-2.36-1.18-1.16 0-2.184.708-1.022.708-1.475 2.085-.452 1.357-.452 4.307v10.03h-5.527v-11.446q0-3.049-.295-3.934-.295-.885-.924-1.318-.61-.432-1.672-.432-1.278 0-2.301.688-1.023.688-1.475 1.987-.433 1.298-.433 4.307v10.148h-5.526zM127.486 133.144h5.88l4.996 14.83 4.878-14.83h5.723l-7.375 20.1-1.318 3.64q-.728 1.828-1.396 2.792-.65.964-1.515 1.554-.845.61-2.104.944-1.24.334-2.813.334-1.593 0-3.127-.334l-.492-4.327q1.299.256 2.34.256 1.928 0 2.853-1.141.924-1.121 1.416-2.872zM162.101 133.144v4.406h-3.776v8.418q0 2.556.098 2.99.118.412.492.687.393.276.944.276.767 0 2.223-.531l.472 4.287q-1.928.826-4.367.826-1.494 0-2.694-.491-1.2-.512-1.77-1.298-.551-.807-.767-2.164-.177-.964-.177-3.894v-9.106h-2.537v-4.406h2.537v-4.15l5.546-3.225v7.375zM171.483 125.198V135.8q2.675-3.127 6.392-3.127 1.908 0 3.442.708 1.534.708 2.3 1.81.787 1.101 1.063 2.438.295 1.338.295 4.15v12.253h-5.527v-11.033q0-3.285-.315-4.17-.314-.885-1.12-1.396-.787-.531-1.987-.531-1.377 0-2.458.668-1.082.67-1.594 2.026-.491 1.338-.491 3.973v10.463h-5.527v-28.833zM190.6 130.312v-5.114h5.526v5.114zm0 23.72v-20.888h5.526v20.887zM219.983 139.32l-5.448.983q-.275-1.632-1.258-2.458-.964-.826-2.518-.826-2.065 0-3.304 1.435-1.22 1.417-1.22 4.76 0 3.717 1.24 5.251 1.258 1.534 3.363 1.534 1.573 0 2.576-.885 1.003-.904 1.416-3.087l5.429.924q-.846 3.737-3.245 5.645-2.4 1.907-6.432 1.907-4.582 0-7.316-2.89-2.714-2.892-2.714-8.006 0-5.172 2.733-8.044 2.734-2.89 7.396-2.89 3.815 0 6.057 1.651 2.262 1.633 3.245 4.996zM228.322 139.517l-5.015-.905q.846-3.029 2.911-4.484 2.065-1.456 6.136-1.456 3.698 0 5.507.885 1.81.866 2.537 2.223.748 1.337.748 4.936l-.06 6.451q0 2.754.256 4.072.276 1.298 1.004 2.792h-5.468q-.216-.55-.531-1.632-.138-.492-.197-.65-1.416 1.378-3.029 2.066-1.612.688-3.441.688-3.226 0-5.094-1.75-1.85-1.75-1.85-4.425 0-1.77.847-3.147.845-1.397 2.36-2.124 1.534-.748 4.405-1.298 3.875-.728 5.37-1.357v-.551q0-1.593-.787-2.262-.787-.688-2.97-.688-1.475 0-2.301.59-.826.57-1.338 2.026zm7.396 4.484q-1.063.354-3.364.845-2.3.492-3.009.964-1.082.767-1.082 1.947 0 1.16.866 2.006.865.846 2.203.846 1.494 0 2.851-.983 1.003-.748 1.318-1.83.217-.707.217-2.694zM246.613 154.031v-28.833h5.527v28.833zM103.511 189.67l-5.448.983q-.275-1.633-1.259-2.459-.963-.826-2.517-.826-2.065 0-3.304 1.436-1.22 1.416-1.22 4.76 0 3.717 1.24 5.25 1.258 1.535 3.363 1.535 1.573 0 2.576-.885 1.003-.905 1.416-3.088l5.428.924q-.845 3.737-3.245 5.645-2.4 1.908-6.431 1.908-4.583 0-7.316-2.891-2.715-2.892-2.715-8.005 0-5.173 2.734-8.044 2.734-2.891 7.395-2.891 3.816 0 6.058 1.652 2.262 1.632 3.245 4.995zM113.01 204.38h-5.526v-20.886h5.133v2.97q1.318-2.105 2.36-2.774 1.062-.668 2.4-.668 1.888 0 3.638 1.042l-1.71 4.819q-1.397-.905-2.597-.905-1.16 0-1.967.649-.806.63-1.278 2.301-.452 1.672-.452 7.002zM135.471 197.733l5.507.924q-1.062 3.03-3.363 4.622-2.282 1.574-5.723 1.574-5.448 0-8.064-3.56-2.065-2.852-2.065-7.199 0-5.192 2.714-8.122 2.714-2.95 6.864-2.95 4.661 0 7.356 3.087 2.694 3.069 2.576 9.421h-13.846q.059 2.459 1.337 3.835 1.279 1.357 3.187 1.357 1.298 0 2.183-.708.885-.708 1.337-2.281zm.315-5.586q-.06-2.4-1.24-3.638-1.18-1.259-2.87-1.259-1.81 0-2.99 1.318-1.18 1.318-1.16 3.58zM149.927 189.866l-5.015-.905q.845-3.029 2.91-4.484 2.066-1.455 6.137-1.455 3.697 0 5.507.885 1.81.865 2.537 2.222.747 1.337.747 4.937l-.059 6.45q0 2.754.256 4.072.275 1.298 1.003 2.793h-5.468q-.216-.551-.53-1.633-.138-.491-.197-.649-1.416 1.377-3.03 2.065-1.612.689-3.441.689-3.226 0-5.094-1.75-1.849-1.751-1.849-4.426 0-1.77.846-3.147.846-1.396 2.36-2.124 1.534-.747 4.406-1.298 3.874-.728 5.369-1.357v-.55q0-1.594-.787-2.263-.786-.688-2.97-.688-1.475 0-2.3.59-.827.57-1.338 2.026zm7.395 4.484q-1.062.354-3.363.846t-3.01.964q-1.081.767-1.081 1.947 0 1.16.865 2.006.866.846 2.203.846 1.495 0 2.852-.984 1.003-.747 1.318-1.829.216-.708.216-2.694zM177.796 183.494v4.405h-3.776v8.418q0 2.557.098 2.99.118.412.492.688.393.275.944.275.767 0 2.222-.53l.472 4.287q-1.927.826-4.366.826-1.495 0-2.694-.492-1.2-.511-1.77-1.298-.551-.806-.767-2.164-.177-.963-.177-3.894V187.9h-2.538v-4.405h2.538v-4.15l5.546-3.226v7.376zM195.418 204.38v-3.126q-1.14 1.671-3.009 2.635-1.849.964-3.914.964-2.104 0-3.776-.925-1.672-.924-2.419-2.596-.747-1.672-.747-4.622v-13.216h5.526v9.597q0 4.406.295 5.409.315.983 1.121 1.573.807.57 2.046.57 1.416 0 2.537-.766 1.121-.787 1.534-1.928.413-1.16.413-5.644v-8.811h5.527v20.887zM211.585 204.38h-5.526v-20.886h5.133v2.97q1.318-2.105 2.36-2.774 1.062-.668 2.4-.668 1.888 0 3.638 1.042l-1.711 4.819q-1.397-.905-2.596-.905-1.16 0-1.967.649-.806.63-1.278 2.301-.453 1.672-.453 7.002zM234.046 197.733l5.507.924q-1.062 3.03-3.363 4.622-2.282 1.574-5.724 1.574-5.448 0-8.064-3.56-2.065-2.852-2.065-7.199 0-5.192 2.714-8.122 2.715-2.95 6.865-2.95 4.66 0 7.355 3.087 2.695 3.069 2.577 9.421h-13.846q.059 2.459 1.337 3.835 1.278 1.357 3.186 1.357 1.298 0 2.183-.708.885-.708 1.338-2.281zm.314-5.586q-.059-2.4-1.239-3.638-1.18-1.259-2.871-1.259-1.81 0-2.99 1.318-1.18 1.318-1.16 3.58zM242.424 198.421l5.547-.845q.354 1.612 1.435 2.458 1.082.826 3.03.826 2.143 0 3.225-.787.727-.55.727-1.475 0-.629-.393-1.042-.413-.393-1.849-.728-6.687-1.475-8.477-2.694-2.478-1.692-2.478-4.7 0-2.715 2.144-4.564 2.144-1.848 6.648-1.848 4.287 0 6.372 1.396t2.872 4.13l-5.212.964q-.335-1.22-1.279-1.869-.924-.649-2.655-.649-2.183 0-3.127.61-.63.433-.63 1.121 0 .59.551 1.003.748.55 5.153 1.554 4.425 1.003 6.176 2.458 1.73 1.476 1.73 4.111 0 2.871-2.399 4.937-2.4 2.065-7.1 2.065-4.268 0-6.766-1.731-2.478-1.73-3.245-4.7zM138.992 225.897v10.601q2.674-3.127 6.392-3.127 1.907 0 3.442.708 1.534.708 2.3 1.81.787 1.1 1.063 2.438.295 1.338.295 4.15v12.253h-5.527v-11.034q0-3.284-.315-4.17-.314-.884-1.12-1.396-.787-.53-1.987-.53-1.377 0-2.459.668-1.081.669-1.593 2.026-.491 1.337-.491 3.973v10.463h-5.527v-28.833zM170.204 248.082l5.507.925q-1.062 3.029-3.363 4.622-2.281 1.573-5.723 1.573-5.448 0-8.064-3.56-2.065-2.852-2.065-7.198 0-5.192 2.714-8.123 2.714-2.95 6.864-2.95 4.661 0 7.356 3.088 2.694 3.068 2.576 9.42H162.16q.06 2.459 1.338 3.836 1.278 1.357 3.186 1.357 1.298 0 2.183-.708.885-.708 1.337-2.282zm.315-5.585q-.059-2.4-1.239-3.639-1.18-1.259-2.872-1.259-1.809 0-2.989 1.318t-1.16 3.58zM185.82 254.73h-5.526v-20.887h5.133v2.97q1.318-2.105 2.36-2.773 1.062-.67 2.4-.67 1.888 0 3.638 1.043l-1.71 4.819q-1.397-.905-2.597-.905-1.16 0-1.967.65-.806.629-1.278 2.3-.452 1.672-.452 7.002zM208.281 248.082l5.507.925q-1.062 3.029-3.363 4.622-2.282 1.573-5.723 1.573-5.448 0-8.064-3.56-2.065-2.852-2.065-7.198 0-5.192 2.714-8.123 2.714-2.95 6.864-2.95 4.661 0 7.356 3.088 2.694 3.068 2.576 9.42h-13.846q.059 2.459 1.337 3.836 1.279 1.357 3.187 1.357 1.298 0 2.183-.708.885-.708 1.337-2.282zm.315-5.585q-.06-2.4-1.24-3.639-1.18-1.259-2.87-1.259-1.81 0-2.99 1.318-1.18 1.318-1.16 3.58z"/></g></svg>