<svg xmlns="http://www.w3.org/2000/svg" fill="none" viewBox="0 0 348 348"><path stroke="#000" stroke-width="2" d="M5 6h337v337H5z"/><ellipse cx="298.3" cy="40.5" stroke="#000" stroke-width="2" rx="15.9" ry="15.5"/><path stroke="#000" stroke-width="1.9" d="M23 26h68v68H23zm79 0h68v68h-68zm78 0h68v68h-68z"/><path stroke="#000" stroke-width="2" d="M26 106h63v63H26zm78 0h21v21h-21zm21 0h21v21h-21zm21 0h21v21h-21zM26 183h63v64H26zm78 0h63v64h-63zm79 0h63v64h-63zm78 0h63v64h-63zm-78-77h63v63h-63zm78 0h63v63h-63zM104 261h63v63h-63zm79 0h63v63h-63zm78 0h63v63h-63zm-235 0h63v63H26zm78-113h21v21h-21zm21 0h21v21h-21z"/><path stroke="#000" stroke-width="2" d="M146 148h21v21h-21zm-42-20h21v21h-21zm21 0h21v21h-21z"/><path stroke="#000" stroke-width="2" d="M146 128h21v21h-21z"/></svg>