<svg xmlns="http://www.w3.org/2000/svg" fill="none" stroke-linecap="square" stroke-miterlimit="10" viewBox="0 0 348 348"><clipPath id="a"><path d="M0 0h348v348H0V0z"/></clipPath><g clip-path="url(#a)"><path d="M0 0h348v348H0z"/><path fill="#fff" d="M-6 0h348v347.969H-6z"/><path d="M5.079 5.776h336.913v337.67H5.08z"/><path stroke="#000" stroke-linecap="butt" stroke-linejoin="round" stroke-width="2" d="M5.079 5.776h336.913v337.67H5.08z"/><path fill="#fff" d="M282.734 40.554c0-8.376 6.966-15.165 15.56-15.165 4.126 0 8.084 1.597 11.001 4.441 2.918 2.844 4.558 6.702 4.558 10.724 0 8.376-6.966 15.165-15.56 15.165-8.593 0-15.559-6.79-15.559-15.165z"/><path stroke="#000" stroke-linecap="butt" stroke-linejoin="round" stroke-width="2" d="M282.734 40.554c0-8.376 6.966-15.165 15.56-15.165 4.126 0 8.084 1.597 11.001 4.441 2.918 2.844 4.558 6.702 4.558 10.724 0 8.376-6.966 15.165-15.56 15.165-8.593 0-15.559-6.79-15.559-15.165z"/><path stroke="#000" stroke-linecap="butt" stroke-linejoin="round" stroke-width="1.386" d="M26.507 87.624h233.491v234.015H26.508z"/><path fill="#000" stroke="#000" stroke-linecap="butt" stroke-linejoin="round" stroke-width="2" d="M30.84 42.494c0-8.376 6.966-15.165 15.56-15.165 4.126 0 8.083 1.597 11.001 4.441 2.918 2.844 4.557 6.702 4.557 10.724 0 8.376-6.966 15.165-15.559 15.165S30.84 50.87 30.84 42.494z"/><path fill="#000" stroke="#000" stroke-linecap="butt" stroke-linejoin="round" stroke-width="2" d="M30.84 41.835c0-8.376 6.966-15.166 15.56-15.166 4.126 0 8.083 1.598 11.001 4.442 2.918 2.844 4.557 6.702 4.557 10.724C61.958 50.21 54.992 57 46.4 57s-15.56-6.79-15.56-15.165zM79.325 41.835c0-8.376 6.966-15.166 15.56-15.166 4.126 0 8.083 1.598 11.001 4.442 2.918 2.844 4.557 6.702 4.557 10.724 0 8.375-6.966 15.165-15.559 15.165s-15.559-6.79-15.559-15.165zM126.938 41.835c0-8.376 6.966-15.166 15.559-15.166 4.126 0 8.084 1.598 11.002 4.442 2.918 2.844 4.557 6.702 4.557 10.724 0 8.375-6.966 15.165-15.56 15.165-8.592 0-15.558-6.79-15.558-15.165zM174.987 41.835c0-8.376 6.966-15.166 15.559-15.166 4.126 0 8.084 1.598 11.002 4.442 2.918 2.844 4.557 6.702 4.557 10.724 0 8.375-6.966 15.165-15.56 15.165-8.592 0-15.558-6.79-15.558-15.165zM223.471 41.835c0-8.376 6.966-15.166 15.56-15.166 4.126 0 8.084 1.598 11.001 4.442 2.918 2.844 4.558 6.702 4.558 10.724 0 8.375-6.966 15.165-15.56 15.165-8.593 0-15.559-6.79-15.559-15.165zM281 108.704c0-8.375 6.966-15.165 15.559-15.165 4.127 0 8.084 1.598 11.002 4.442 2.918 2.844 4.557 6.701 4.557 10.723 0 8.376-6.966 15.166-15.559 15.166S281 117.08 281 108.704zM281 156.232c0-8.376 6.966-15.166 15.559-15.166 4.127 0 8.084 1.598 11.002 4.442 2.918 2.844 4.557 6.702 4.557 10.724 0 8.375-6.966 15.165-15.559 15.165S281 164.607 281 156.232zM281 203.409c0-8.376 6.966-15.166 15.559-15.166 4.127 0 8.084 1.598 11.002 4.442 2.918 2.844 4.557 6.701 4.557 10.724 0 8.375-6.966 15.165-15.559 15.165S281 211.784 281 203.409zM281 251.201c0-8.375 6.966-15.165 15.559-15.165 4.127 0 8.084 1.598 11.002 4.442 2.918 2.844 4.557 6.701 4.557 10.723 0 8.376-6.966 15.166-15.559 15.166S281 259.577 281 251.2zM281 300.473c0-8.376 6.966-15.166 15.559-15.166 4.127 0 8.084 1.598 11.002 4.442 2.918 2.844 4.557 6.701 4.557 10.724 0 8.375-6.966 15.165-15.559 15.165S281 308.848 281 300.473z"/><path stroke="#000" stroke-linecap="butt" stroke-width="2" d="M102.704 87.85L78.723 321.413M96.97 139.985l69.86 181.427M118.866 197.854l140.762-42.75M159.01 87.85l53.697 81.33M259.998 321.639l-47.29-152.46M26.507 87.624L87.585 231.74M26.067 270.32l61.518-38.58M145.976 268.756l58.911-96.97"/></g></svg>