<svg xmlns="http://www.w3.org/2000/svg" viewBox="0 0 348 348" fill="none"><path d="M5.08 5.78h336.91v337.67H5.08z" stroke-width="2" stroke="#000"/><path d="M282.73 40.55c0-8.37 6.97-15.16 15.56-15.16 4.13 0 8.09 1.6 11 4.44a14.97 14.97 0 014.56 10.72c0 8.38-6.96 15.17-15.56 15.17-8.59 0-15.56-6.8-15.56-15.17zM17.39 19.43h235.06v42.14H17.39zM17.39 71.43h235.06v42.14H17.39z" stroke-width="2" stroke="#000" fill="#fff"/><path fill="#fff" fill-opacity=".25" stroke="#000" stroke-width="2" d="M59.08 159.07h142.19v142.19H59.08zM59.08 129.69h142.19v23.37H59.08zM59.08 307.25h142.19v23.37H59.08zM230.64 159.07v142.19h-23.37V159.07zM53.08 159.07v142.19H29.71V159.07zM208.67 125.41h50.78v24.16h-50.78z"/></svg>