<svg version="1.1" id="Layer_1" xmlns="http://www.w3.org/2000/svg" x="0" y="0" viewBox="0 0 348 348" xml:space="preserve"><style>.st0{fill:#fff;stroke:#000;stroke-miterlimit:10}.st1,.st2{fill:none;stroke:#000}.st1{stroke-width:2}.st2{stroke-miterlimit:10}</style><path class="st0" d="M166.8 92.9h14.3v105.9h-14.3z"/><ellipse class="st0" cx="174" cy="200.2" rx="15.6" ry="9.8"/><path class="st0" d="M159.2 198.8h29.6v79.9h-29.6z"/><path class="st1" d="M5.1 5.8H342v337.7H5.1V5.8z"/><path class="st1" d="M282.7 40.6c0-8.4 7-15.2 15.6-15.2 4.1 0 8.1 1.6 11 4.4 2.9 2.8 4.6 6.7 4.6 10.7 0 8.4-7 15.2-15.6 15.2s-15.6-6.8-15.6-15.1z"/><circle class="st0" cx="47" cy="298.1" r="19.3"/><circle class="st0" cx="99.9" cy="298.1" r="19.3"/><circle class="st0" cx="247.6" cy="298.1" r="19.3"/><circle class="st0" cx="300.5" cy="298.1" r="19.3"/><ellipse class="st0" cx="173.8" cy="298.1" rx="43.4" ry="27.2"/><path class="st0" d="M18.9 298.1h310.2v39.1H18.9z"/><path class="st0" d="M172.5 91.9s-44.9-24.6-94 0c.1 0 26.2-14.4 94 0z"/><path class="st0" d="m62.2 81 16.4 10.9-40.8 89.6 40.8-89.6 40.7 89.6"/><path class="st0" d="M37.8 181.5h81.5s-35.6 45.9-81.5 0z"/><path class="st0" d="M174.5 91.9s44.9-24.6 94 0c0 0-26.1-14.4-94 0z"/><path class="st0" d="m284.9 81-16.4 10.9 40.8 89.6-40.8-89.6-40.7 89.6"/><path class="st0" d="M309.3 181.5h-81.5s35.5 45.9 81.5 0z"/><path class="st0" d="M130.6 18.1h87.9v47.7h-87.9z"/><path class="st0" d="M174.5 65.8v27.6"/><path class="st2" d="M158.6 43.8c1.1 1.9 2.5 3.7 3.5 5.6 1 2 1.5 4.3.8 6.4-.2.7-.6 1.3-1.2 1.7-.5.3-1 .4-1.6.5-4.6.6-9.5-1.5-12.3-5.3-.6-.8-1.1-1.7-.7-2.6.3-.7 1.1-1.1 1.8-1.4 2.3-1 4.8-1.7 7.3-2.2 1.8-.3 3.6-.5 5.4-1.2 2.8-1.1 4.7-3.5 4.1-6.6-.4-2.1-.9-4.5-1.7-6.5-.7-1.7-1.9-2.6-3.7-3-1.3-.2-3.3-.5-4.4.4-1.1.9-.8 2.7-.7 3.9.4 3.6 1.5 7.2 3.4 10.3z"/><path class="st2" d="M195.7 44.7c1.2 2.5 1.9 5.3 1.9 8.1 0 .4 0 .7-.2 1-.3.4-.8.5-1.3.6-1.5.3-3.1.6-4.6.3-1.5-.2-3-1.1-3.7-2.5-.7-1.6-.1-3.4 1-4.7s2.7-2.1 4.2-2.8c3-1.4 6.5-2.9 7.9-6.3 1-2.5.4-5.4-1.3-7.4-1.4-1.8-3.7-3.1-6.1-2.5-3 .7-4.1 3.5-3.3 6.3 1.1 3.7 3.9 6.6 5.5 9.9z"/><path class="st2" d="M9.9 408.5c3.9-15.2 7.8-30.5 11.7-45.7 2.1 12.2 4.5 24.3 7.3 36.4 3.8-9.7 7.7-19.4 11.5-29.1 1.5 8.9 2 17.9 1.5 26.9"/><path class="st2" d="M61.4 392c1.1-2.1-.2-4.9-2.2-6.3s-4.5-1.6-6.9-1.8c-.7-.1-1.6-.1-2.1.4-.4.4-.5 1-.5 1.6-.1 1.8-.3 3.7-.4 5.5 0 .6-.1 1.3.2 1.9.5 1.1 1.8 1.6 3 1.7 3.5.3 7-1.7 8.5-4.8"/><path class="st2" d="M74.2 375.8c.5 4.6.6 9.3.2 13.9-.1 1.3-.3 2.6-1.1 3.6-1.6 2-4.6 1.5-7.1 1-1.4-.4-3.2-1.1-3.2-2.6 0-1.3 1.3-2.1 2.5-2.5 2.1-.7 4.4-.7 6.5-.1"/><path class="st2" d="M113.9 371.1c-.6 4.8-1.4 9.6-2.5 14.4-1.1 4.8-2.4 9.6-2.1 14.5 0 .4.1.8.3 1 .3.3.8.4 1.3.3 4-.4 6.7-4 8.9-7.4.9-1.4 1.8-3.2.9-4.6-.5-.7-1.5-1-2.4-1.3-3.4-1-6.9-2-10.3-3"/><path class="st2" d="M139.7 383.6c-.3 2.1-.4 4.2-.4 6.3 0 1.8.1 3.8 1.3 5.2 1.3 1.5 3.6 1.8 5.4 1 1.8-.8 3-2.5 3.5-4.4-.3 5.4-.2 9.4-1.8 14.6-.2.6-.4 1.3-1 1.6-.3.2-.7.2-1.1.2-1.4 0-2.9-.1-4.3-.1"/><path class="st2" d="M207.3 375.9c-1.5 9.2-3.3 18.4-5.2 27.6-.1.5-.2 1-.6 1.4-.4.4-1 .4-1.6.4-3.5-.1-6.7-2.1-9.7-4-1.4-.9-2.9-2.1-2.6-3.7.2-1.1 1.2-1.9 2.4-2.2 1.1-.2 2.3 0 3.4.2 1.3.3 2.8.5 3.8 1.4"/><path class="st2" d="M208.7 399.4c1.9 1 4.4.9 6.2-.3s3-3.3 2.9-5.5c0-.5-.1-1-.4-1.4-.4-.5-1-.8-1.6-1-1.6-.6-3.1-1.3-4.7-1.9-.4-.2-.8-.3-1.1-.2-.3.1-.6.4-.8.7-1.7 2.4-2.1 5.4-2.3 8.3-.1 3 .1 6.3 2.3 8.3 1.9 1.8 4.8 2.1 7.5 2.2"/><path class="st2" d="M243.5 401c-.7-1.6-1.5-3.2-2.9-4.4s-3.5-1.5-4.9-.4c-.7.5-1.1 1.3-1.4 2.1-.8 1.8-1.4 3.8-1.8 5.7-.3 1.4-.4 3 .6 4 .5.5 1.3.8 2.1.9 2.1.2 4.1-.8 5.6-2.3 1.5-1.4 2.5-3.3 3.5-5.1l2.7 11.4c.1.3.2.7.4.9.8.7 1.8-.5 2.2-1.5"/><path class="st2" d="M262.3 414c.2-6.1 1.1-12.2 2.6-18.1"/><path class="st2" d="M265.6 392.9c.1-.7.3-1.4.4-2.1 3.1 1.8 6 3.8 8.9 5.9"/><path class="st2" d="M258.9 400c3.5 3.2 7.8 5.6 12.3 6.9"/></svg>