<svg xmlns="http://www.w3.org/2000/svg" xmlns:xlink="http://www.w3.org/1999/xlink" xml:space="preserve" fill="none" viewBox="0 0 348 348"><path stroke="#000" stroke-width="2" d="M5 6h337v338H5z"/><ellipse cx="298.3" cy="40.5" stroke="#000" stroke-width="2" rx="15.9" ry="15.5"/><path id="a" fill="none" stroke="#000" stroke-dasharray="none" stroke-width="1.3" d="M39 121h19v19H39z"/><use xlink:href="#a" transform="translate(36)"/><use xlink:href="#a" transform="translate(0 35)"/><use xlink:href="#a" transform="translate(250 35)"/><use xlink:href="#a" transform="translate(250 71)"/><use xlink:href="#a" transform="translate(250 106)"/><use xlink:href="#a" transform="translate(250 142)"/><use xlink:href="#a" transform="translate(71)"/><use xlink:href="#a" transform="translate(36 35)"/><use xlink:href="#a" transform="translate(0 71)"/><use xlink:href="#a" transform="translate(0 106)"/><use xlink:href="#a" transform="translate(0 142)"/><use xlink:href="#a" transform="translate(0 177)"/><use xlink:href="#a" transform="translate(107)"/><use xlink:href="#a" transform="translate(71 35)"/><use xlink:href="#a" transform="translate(36 71)"/><use xlink:href="#a" transform="translate(36 106)"/><use xlink:href="#a" transform="translate(36 142)"/><use xlink:href="#a" transform="translate(36 177)"/><use xlink:href="#a" transform="translate(143)"/><use xlink:href="#a" transform="translate(107 35)"/><use xlink:href="#a" transform="translate(71 71)"/><use xlink:href="#a" transform="translate(71 106)"/><use xlink:href="#a" transform="translate(71 142)"/><use xlink:href="#a" transform="translate(71 177)"/><use xlink:href="#a" transform="translate(178)"/><use xlink:href="#a" transform="translate(143 35)"/><use xlink:href="#a" transform="translate(107 71)"/><use xlink:href="#a" transform="translate(107 106)"/><use xlink:href="#a" transform="translate(107 142)"/><use xlink:href="#a" transform="translate(107 177)"/><use xlink:href="#a" transform="translate(214)"/><use xlink:href="#a" transform="translate(178 35)"/><use xlink:href="#a" transform="translate(143 71)"/><use xlink:href="#a" transform="translate(143 106)"/><use xlink:href="#a" transform="translate(143 142)"/><use xlink:href="#a" transform="translate(143 177)"/><use xlink:href="#a" transform="translate(250)"/><use xlink:href="#a" transform="translate(214 35)"/><use xlink:href="#a" transform="translate(214 71)"/><use xlink:href="#a" transform="translate(214 106)"/><use xlink:href="#a" transform="translate(214 142)"/><use xlink:href="#a" transform="translate(178 71)"/><use xlink:href="#a" transform="translate(178 106)"/><use xlink:href="#a" transform="translate(178 142)"/><use xlink:href="#a" transform="translate(178 177)"/><use xlink:href="#a" transform="translate(214 177)"/><use xlink:href="#a" transform="translate(250 177)"/><path stroke="#000" stroke-width="1.6" d="M50 62h53v27H50z"/><path fill="#000" stroke="#000" stroke-width="1.6" d="M148 46h48v49h-48z"/></svg>