<svg xmlns="http://www.w3.org/2000/svg" fill="none" viewBox="0 0 348 348"><path stroke="#000" stroke-width="2" d="M5 5.8h337v337.7H5z"/><path stroke="#000" stroke-width="2" d="M282.7 40.5c0-8.3 7-15.1 15.6-15.1 4.1 0 8 1.6 11 4.4a15 15 0 0 1 4.6 10.7c0 8.4-7 15.2-15.6 15.2s-15.6-6.8-15.6-15.2z"/><path fill="#000" d="M28 27.6h230v100H28z"/><path id="a" fill="none" stroke="#000" stroke-width="1" d="M180 139h39v39h-39z"/><path fill="#000" d="M204.7 168.3h-10.5v-2h4v-13h-4v-1.8l1.8-.1q1-.1 1.4-.4.6-.3 1-.8.3-.5.3-1.4h2v17.5h4zm51.3.1h-13v-2.7l2.7-2.3 2.6-2.4q2.5-2.4 3.4-3.8 1-1.4 1-3t-1-2.4q-1-.9-2.8-.9-1.2 0-2.6.4-1.4.4-2.7 1.3h-.1v-2.7q.9-.5 2.4-.9 1.6-.4 3-.4 3 0 4.7 1.5 1.7 1.4 1.7 3.9 0 1-.3 2t-.8 1.9l-1.2 1.6-1.7 1.7-2.8 2.6-2.8 2.4H256zm48.4-9.4q.6.5 1 1.3.4.9.4 2.2 0 1.3-.4 2.4-.5 1.1-1.4 2-1 .9-2.3 1.3-1.3.4-2.9.4-1.6 0-3.2-.3-1.5-.4-2.5-.9v-2.7h.2q1 .7 2.6 1.2 1.5.5 2.9.5.8 0 1.7-.3 1-.3 1.5-.8.6-.6.9-1.2.3-.7.3-1.8 0-1-.4-1.7-.3-.7-.9-1-.6-.5-1.4-.6-.8-.2-1.8-.2h-1.2v-2.2h1q2 0 3.1-.8 1.2-.8 1.2-2.4 0-.7-.3-1.2-.3-.6-.8-.9l-1.2-.5-1.5-.1q-1.2 0-2.6.4-1.4.5-2.6 1.3h-.2v-2.7q1-.5 2.5-.9t3-.4q1.4 0 2.5.3l2 .8q.9.7 1.4 1.6.4.8.4 2 0 1.6-1.1 2.9-1.1 1.2-2.7 1.5v.1q.6.1 1.4.5.8.3 1.4.8zm-97.6 53.8h-2.9v5.4h-2.5v-5.4h-9.3v-3l9.4-11h2.4v11.9h2.9zm-5.4-2.1v-8.8l-7.5 8.8zm54.4 1.2q0 1.3-.5 2.6-.5 1.2-1.4 2-1 1-2.2 1.5-1.3.4-3 .4-1.6 0-3-.3-1.5-.3-2.6-.8v-2.7h.2q1 .6 2.5 1.1 1.4.5 2.8.5 1 0 1.8-.3.9-.2 1.6-.9.5-.5.8-1.3.3-.8.3-1.8t-.3-1.7q-.4-.7-1-1.1-.6-.5-1.6-.7-1-.2-2.2-.2l-2.2.1-1.8.3v-10h11.6v2.3h-9.1v5.2h1.1l1-.1q1.6 0 2.8.2 1.2.3 2.2 1 1 .7 1.6 1.8.6 1.2.6 2.9zm50.5.1q0 2.9-2 4.8-1.9 1.8-4.7 1.8-1.4 0-2.6-.4-1.2-.5-2-1.3-1.2-1.1-1.8-2.9-.6-1.8-.6-4.3 0-2.6.5-4.6.6-2 1.8-3.5 1.2-1.5 3-2.3 1.8-.8 4.2-.8h1.3l1 .3v2.5l-1.2-.4q-.7-.2-1.5-.2-2.8 0-4.5 1.8-1.6 1.7-1.9 4.7 1-.7 2.1-1 1.1-.4 2.5-.4 1.2 0 2.2.3 1 .2 2 .9 1 .8 1.6 2 .6 1.2.6 3zm-2.6 0q0-1.2-.4-2-.3-.8-1.2-1.3-.6-.5-1.3-.6l-1.5-.1q-1.1 0-2 .2l-2 .8v1.3q0 2 .3 3.2.5 1.2 1.2 1.9.6.6 1.3.8.7.3 1.5.3 2 0 3-1.1 1-1.2 1-3.4zM206 251.8l-8.7 16.4h-2.8l9.4-17h-11v-2.3H206zm50.3 11q0 2.5-2 4.2-1.9 1.7-4.8 1.7-3.2 0-5-1.6-2-1.7-2-4.2 0-1.6 1-3 1-1.2 2.7-2-1.6-1-2.4-2-.7-1-.7-2.4 0-2.2 1.8-3.6 1.8-1.5 4.6-1.5 2.9 0 4.6 1.4 1.7 1.4 1.7 3.5 0 1.4-.8 2.6-.8 1.3-2.4 2 1.8.9 2.8 2 1 1.2 1 3zm-3-9.4q0-1.4-1.1-2.2-1-.9-2.8-.9-1.6 0-2.7.8-1 .8-1 2.1 0 1 .5 1.6.6.7 1.6 1.2l1.4.7 1.8.6q1.3-.9 1.8-1.8.5-1 .5-2.1zm.4 9.7q0-1.2-.6-2-.5-.7-2-1.4l-1.4-.5-1.9-.7q-1.2.6-1.9 1.7t-.7 2.5q0 1.8 1.2 2.9 1.2 1.1 3 1.1 2 0 3.1-1 1.2-1 1.2-2.6zm52.6-5.7q0 2.5-.6 4.6-.6 2-1.7 3.5-1.2 1.5-3 2.3-1.8.8-4.2.8h-1.3l-1-.3v-2.5h.1l1 .4 1.6.2q2.9 0 4.5-1.7 1.7-1.8 2-4.8-1.3.7-2.4 1-1 .4-2.3.4-1.2 0-2.2-.3-1-.2-2-.9-1-.8-1.6-2-.6-1.2-.6-3 0-3 2-4.8 1.9-1.8 4.7-1.8 1.4 0 2.6.4 1.2.4 2.1 1.3 1.1 1.1 1.7 2.8.6 1.7.6 4.4zm-2.6-.6q0-2-.4-3.2-.5-1.2-1.2-2-.6-.5-1.3-.8-.7-.2-1.5-.2-1.9 0-3 1.2-1 1.1-1 3.3 0 1.2.3 2t1.2 1.3q.6.4 1.3.6l1.5.1q1 0 2-.3 1.1-.2 2-.7v-1.3zm-47.5 51.7q0 5.3-1.7 7.7-1.6 2.4-5 2.4-3.5 0-5.1-2.4-1.6-2.5-1.6-7.6 0-5.2 1.6-7.7 1.6-2.4 5-2.4 3.6 0 5.2 2.5t1.6 7.5zm-3.5 6q.5-1.1.6-2.5.2-1.5.2-3.5l-.1-3.4q-.2-1.5-.7-2.5-.4-1-1.2-1.5-.8-.5-2-.5-1.3 0-2 .5-.9.5-1.3 1.5-.5 1-.6 2.6-.2 1.5-.2 3.4l.1 3.4q.2 1.3.6 2.4.5 1 1.3 1.6.8.5 2 .5 1.3 0 2-.5.9-.5 1.3-1.6zm-59.3-.5-.8.3-1 .4-1.1.3h-1.3q-1.4 0-2.5-.3-1.2-.4-2-1.2-.8-.8-1.2-2-.5-1.3-.5-3 0-1.5.4-2.7.5-1.2 1.3-2.1.8-.8 2-1.3 1-.4 2.5-.4 1 0 2 .3 1 .2 2.3.8v2h-.2q-1-.9-2-1.3t-2.2-.4q-1 0-1.8.4-.7.3-1.3 1-.6.5-1 1.5-.3 1-.3 2.3 0 1.3.4 2.2.4 1 1 1.6.5.6 1.3 1 .8.2 1.7.2 1.2 0 2.3-.4 1-.4 2-1.2zm10.4.8h-8v-12.6h1.7v11.2h6.3zm12.1 0h-2.2l-4.2-5h-2.3v5h-1.7v-12.6h3.5q1.2 0 2 .2.7.1 1.3.5.7.5 1 1.1.4.7.4 1.7 0 1.3-.7 2.3-.6.9-1.8 1.3zm-4-9-.1-1q-.2-.4-.6-.7l-.9-.3-1.2-.1h-2v4.7h3.1q.6-.2 1-.6l.6-.8q.2-.5.2-1.2zm80 5.4q0 .8-.4 1.5-.3.7-1 1.2-.6.6-1.5.8-1 .4-2.2.4-1.3 0-2.4-.3l-2.2-.8v-2q1 .7 2.3 1.2 1.2.4 2.3.4 1.6 0 2.5-.6.8-.6.8-1.5t-.4-1.3q-.4-.4-1.2-.6l-1.4-.3-1.6-.2q-1.7-.4-2.5-1.2-.8-1-.8-2.3 0-1.6 1.4-2.6 1.3-1 3.4-1 1.3 0 2.4.3 1.1.2 2 .6v2h-.2q-.7-.6-1.9-1-1.1-.4-2.4-.4-1.3 0-2.1.5-.8.6-.8 1.4 0 .8.4 1.3.4.4 1.4.7.6 0 1.5.3l1.7.3q1.4.4 2.2 1.1.7.8.7 2.1zm12.1-1.4q0 1.3-.3 2.4-.3 1-1 1.7-.6.6-1.5.9-.8.3-2 .3t-2-.3q-1-.3-1.5-1-.7-.7-1-1.6-.3-1-.3-2.4v-7.6h1.6v7.6q0 1 .2 1.7.1.6.5 1 .3.6 1 .9.6.2 1.5.2 1 0 1.5-.2.7-.3 1-.9.4-.4.5-1 .2-.7.2-1.6v-7.7h1.6zm12.8 1.1q0 1-.4 1.7t-1 1.2q-.7.6-1.5.8-.9.2-2.2.2h-4.4v-12.6h3.7l2 .1q.7.1 1.4.5.7.3 1 .9.3.6.3 1.4 0 .9-.5 1.5-.4.6-1.2 1 1.3.3 2 1.2.8.8.8 2.2zm-2.9-5.6-.1-.8-.5-.5-1-.3H309v3.6h3.3l1-.4.5-.7.1-1zm1.1 5.7q0-.7-.2-1.2-.2-.4-.8-.8-.4-.2-1-.2h-4.1v4.6h2.2l1.8-.1q.7-.1 1.2-.4.5-.4.7-.8.2-.4.2-1z"/><path id="c" fill="#fff" d="m67.2 88.5-16.6-7.3v-1.8L67.3 72v2.6l-13 5.7 13 5.6zm23 1.1h-3.5l-10.2-19v19H74V68.3h4.4l9.2 17.4V68.3h2.6zm21.7-8.6c0 3.3-.7 9-8.2 9-5.7.3-8-4-8.2-9V68.3h2.9v12.9c0 2 0 6.4 5.3 6.4 4.6 0 5.4-3.2 5.4-6.3v-13h2.8zm24.4 8.6h-2.8V71.2l-6 12.5h-1.7L120 71.2v18.4h-2.7V68.3h3.9l5.7 11.9 5.5-12h3.9zm21.9-6.6c0 2.1-1 6.5-8.6 6.6h-7.5V68.3h6.3c5.4-.1 8 1.6 8 4.8 0 1.4-.7 3.1-3 4.3 1.5.4 2.7 1 3.5 2 .8 1 1.2 2.2 1.2 3.6zm-4.8-9.6c0-2.5-2.1-2.7-5.1-2.7h-3.4v6.2h3.7c1.8 0 4.8 0 4.8-3.5zm1.8 9.8c0-.9-.1-1.6-.4-2-.8-1.7-3-2-5.5-2H145v8h3.8c2.8 0 6.5-.2 6.5-4zm21 6.4h-14V68.3h14v2.5H165v5.8h11.2v2.6H165V87h11.2zm22.2 0h-3.7l-7.1-8.5h-4v8.5h-2.9V68.3h6c4-.2 7.7 1.5 8 5.8 0 2-.8 4.8-4.4 6.2zm-6.7-15.3c0-3.2-2.7-3.6-4.8-3.6h-3.3v8h2.8c2.1 0 5.3-.3 5.3-4.4zm25 9.2c0 2.6-2.2 6.5-8.6 6.5-2.3 0-4.7-.3-8-1.7v-3.6h.3c2.5 2.1 5.8 2.8 7.7 2.8 1.1 0 5.6-.2 5.6-3.6 0-5-7.6-2.1-12-6.1-1-1-1.4-2.3-1.4-3.8 0-3.6 3.4-6.1 8-6.1 2 0 4.7.3 7.5 1.5v3.3c-.5 0-2.9-2.4-7.5-2.4-3.1 0-5 1.5-5 3.4 0 5.2 8.5 2.4 12.1 6.2a5 5 0 0 1 1.2 3.6zm22-2.3-16.5 7.3v-2.6l13-5.6-13-5.7V72l16.5 7.4z"/><g id="b" stroke="#000" transform="matrix(.72 0 0 -.64 24.2 328)"><circle cx="50" cy="67" r="17" transform="translate(6.2 82)"/><path fill="#fff" d="M50.2 149h12l6 57h-24z"/></g><use href="#a" transform="translate(0 50)"/><use href="#a" transform="translate(0 100)"/><use href="#a" transform="translate(0 150)"/><use href="#a" transform="translate(50)"/><use href="#a" transform="translate(50 50)"/><use href="#a" transform="translate(50 100)"/><use href="#a" transform="translate(50 150)"/><use href="#a" transform="translate(100)"/><use href="#a" transform="translate(100 50)"/><use href="#a" transform="translate(100 100)"/><use href="#a" transform="translate(100 150)"/><use href="#b" transform="translate(34.3)"/><use href="#b" transform="translate(68.5)"/><g id="d"><path fill="#000" d="M27.3 139h143.3v39H27.3Z"/><use stroke-width="1.5" href="#c" transform="matrix(.67 0 0 .67 2.1 105.7)"/></g><use href="#d" transform="translate(0 150)"/></svg>