<svg xmlns="http://www.w3.org/2000/svg" stroke-miterlimit="10" stroke-linecap="square" fill="none" viewBox="0 0 348 348"><clipPath id="a"><path d="M0 0h348v348H0V0z"/></clipPath><g clip-path="url(#a)"><path d="M0 0h348v348H0z" fill="none"/><path fill-rule="evenodd" d="M-6 0h354.016v347.969H-6z" fill="#fff"/><path d="M5.079 5.776h336.913v337.67H5.08z" fill="none"/><path d="M5.079 5.776h336.913v337.67H5.08z" stroke-linecap="butt" stroke-linejoin="round" stroke-width="2" stroke="#000"/><path fill-rule="evenodd" d="M282.734 40.554c0-8.376 6.966-15.165 15.56-15.165 4.126 0 8.084 1.597 11.001 4.441 2.918 2.844 4.558 6.702 4.558 10.724 0 8.376-6.966 15.165-15.56 15.165-8.593 0-15.559-6.79-15.559-15.165z" fill="#fff"/><path d="M282.734 40.554v0c0-8.376 6.966-15.165 15.56-15.165v0c4.126 0 8.084 1.597 11.001 4.441 2.918 2.844 4.558 6.702 4.558 10.724v0c0 8.376-6.966 15.165-15.56 15.165v0c-8.593 0-15.559-6.79-15.559-15.165z" stroke-linecap="butt" stroke-linejoin="round" stroke-width="2" stroke="#000"/><path fill-rule="evenodd" d="M50.95 90.05l9.465-17.323 9.464 17.323z" fill="#000"/><path d="M50.95 90.05l9.465-17.323 9.464 17.323z" stroke-linecap="butt" stroke-linejoin="round" stroke-width="2" stroke="#000"/><path d="M122.047 268.005h97.922v41.89h-97.922z" fill="none"/><path d="M122.047 268.005h97.922v41.89h-97.922z" stroke-linecap="butt" stroke-linejoin="round" stroke-width="2" stroke="#000"/><path fill-rule="evenodd" d="M29.517 106.304h260.095v96.82H29.517z" fill="#000"/><path d="M29.517 106.304h260.095v96.82H29.517z" stroke-linecap="butt" stroke-linejoin="round" stroke-width="2" stroke="#000"/><path fill-rule="evenodd" d="M35.627 113.079h49.575v82.141H35.627z" fill="#fff"/><path d="M35.627 113.079h49.575v82.141H35.627z" stroke-linecap="butt" stroke-linejoin="round" stroke="#000"/><path fill-rule="evenodd" d="M85.202 113.079h49.575v82.141H85.202z" fill="#fff"/><path d="M85.202 113.079h49.575v82.141H85.202z" stroke-linecap="butt" stroke-linejoin="round" stroke="#000"/><path fill-rule="evenodd" d="M134.778 113.079h49.575v82.141h-49.575z" fill="#fff"/><path d="M134.778 113.079h49.575v82.141h-49.575z" stroke-linecap="butt" stroke-linejoin="round" stroke="#000"/><path fill-rule="evenodd" d="M184.352 113.079h49.575v82.141h-49.575z" fill="#fff"/><path d="M184.352 113.079h49.575v82.141h-49.575z" stroke-linecap="butt" stroke-linejoin="round" stroke="#000"/><path fill-rule="evenodd" d="M233.927 113.079H283.5v82.141h-49.574z" fill="#fff"/><path d="M233.927 113.079H283.5v82.141h-49.574z" stroke-linecap="butt" stroke-linejoin="round" stroke="#000"/><path fill-rule="evenodd" d="M100.525 90.05l9.464-17.323 9.465 17.323z" fill="#000"/><path d="M100.525 90.05l9.464-17.323 9.465 17.323z" stroke-linecap="butt" stroke-linejoin="round" stroke-width="2" stroke="#000"/><path fill-rule="evenodd" d="M150.1 90.05l9.464-17.323 9.465 17.323z" fill="#000"/><path d="M150.1 90.05l9.464-17.323 9.465 17.323z" stroke-linecap="butt" stroke-linejoin="round" stroke-width="2" stroke="#000"/><path fill-rule="evenodd" d="M199.674 90.05l9.465-17.323 9.465 17.323z" fill="#000"/><path d="M199.674 90.05l9.465-17.323 9.465 17.323z" stroke-linecap="butt" stroke-linejoin="round" stroke-width="2" stroke="#000"/><path fill-rule="evenodd" d="M249.25 90.05l9.464-17.323 9.464 17.323z" fill="#000"/><path d="M249.25 90.05l9.464-17.323 9.464 17.323z" stroke-linecap="butt" stroke-linejoin="round" stroke-width="2" stroke="#000"/><path fill-rule="evenodd" d="M268.178 219.378l-9.464 17.323-9.465-17.323z" fill="#000"/><path d="M268.178 219.378l-9.464 17.323-9.465-17.323z" stroke-linecap="butt" stroke-linejoin="round" stroke-width="2" stroke="#000"/><path fill-rule="evenodd" d="M218.603 219.378L209.14 236.7l-9.465-17.323z" fill="#000"/><path d="M218.603 219.378L209.14 236.7l-9.465-17.323z" stroke-linecap="butt" stroke-linejoin="round" stroke-width="2" stroke="#000"/><path fill-rule="evenodd" d="M169.029 219.378l-9.465 17.323-9.464-17.323z" fill="#000"/><path d="M169.029 219.378l-9.465 17.323-9.464-17.323z" stroke-linecap="butt" stroke-linejoin="round" stroke-width="2" stroke="#000"/><path fill-rule="evenodd" d="M119.454 219.378l-9.465 17.323-9.464-17.323z" fill="#000"/><path d="M119.454 219.378l-9.465 17.323-9.464-17.323z" stroke-linecap="butt" stroke-linejoin="round" stroke-width="2" stroke="#000"/><path fill-rule="evenodd" d="M69.88 219.378L60.414 236.7l-9.465-17.323z" fill="#000"/><path d="M69.88 219.378L60.414 236.7l-9.465-17.323z" stroke-linecap="butt" stroke-linejoin="round" stroke-width="2" stroke="#000"/></g><g aria-label="送信" font-size="20" font-family="'DejaVu Sans',sans-serif" text-anchor="middle" fill="#000"><path d="M155.453 284.281q-1.015-1.562-2.344-2.578l1.25-1.172q1.72 1.25 2.344 2.5zM151.937 296l2.657-1.563v-5.234h-2.5v-1.484h4.062v6.328q1.797 1.797 4.219 1.797h9.688l-.391 1.484h-9.531q-2.578 0-4.766-2.11l-2.578 2.579zm17.11-6.875h-5.313l-.078.703q3.125 1.406 5.078 3.203l-1.093 1.719q-2.578-2.656-4.532-3.516-1.093 2.032-4.453 3.985l-.937-1.64q4.062-2.032 4.453-4.454h-4.922v-1.484h5v-2.579h-4.375v-1.484h2.734q-.859-1.484-2.03-2.578l1.405-.938q1.094 1.016 2.032 2.579l-1.25.937h2.656l1.875-3.906 1.719.781q.312.313-.235.39l-1.797 2.735h3.438v1.485h-4.61v2.578h5.235zM171.781 288.656q2.969-3.515 3.516-8.672l1.797.47q.312.312-.235.468-.39 2.265-1.015 4.062.86.078.156.547v12.188h-1.563v-9.844q-.546 1.094-1.484 2.188zm15.156 4.375h-6.953v2.266h6.954zm-8.515-1.484H188.5v5.937h-1.563v-.703h-6.953v.938h-1.562zm.469-1.328v-1.485h8.828v1.485zm0-2.735V286h8.828v1.484zm-1.797-4.14h12.578v1.484h-12.578zm1.797-2.813h8.828v1.485h-8.828z"/></g><path d="M60 143.463L54.38 158.7h11.26zm-2.338-4.081h4.696L74.028 170H69.72l-2.79-7.854H53.13L50.34 170h-4.367zM110 143.463l-5.62 15.237h11.26zm-2.338-4.081h4.696L124.028 170h-4.307l-2.79-7.854H103.13L100.34 170h-4.367zM160 143.463l-5.62 15.237h11.26zm-2.338-4.081h4.696L174.028 170h-4.307l-2.79-7.854H153.13L150.34 170h-4.367zM210 143.463l-5.62 15.237h11.26zm-2.338-4.081h4.696L224.028 170h-4.307l-2.79-7.854H203.13L200.34 170h-4.367zM260 143.463l-5.62 15.237h11.26zm-2.338-4.081h4.696L274.028 170h-4.307l-2.79-7.854H253.13L250.34 170h-4.367z" aria-label="A" font-size="42" font-family="'DejaVu Sans',sans-serif" text-anchor="middle" fill="#000"/></svg>