<svg xmlns="http://www.w3.org/2000/svg" fill="none" viewBox="0 0 348 348"><defs/><path stroke="#000" stroke-width="2" d="M5.079 5.776h336.913v337.67H5.08z"/><path stroke="#000" stroke-width="2" d="M282.734 40.554c0-8.376 6.966-15.165 15.56-15.165 4.126 0 8.084 1.597 11.001 4.441 2.918 2.844 4.558 6.702 4.558 10.724 0 8.376-6.966 15.165-15.56 15.165-8.593 0-15.559-6.79-15.559-15.165z"/><path fill="none" stroke="#000" stroke-width="1.89151" d="M14.122618 81.973671h57.548969v57.548969H14.122618zM79.182869 81.973671h57.548969v57.548969H79.182869zM144.24313 81.973671h57.548969v57.548969H144.24313zM209.30342 81.973671h57.548969v57.548969H209.30342zM14.122618 147.03377h57.548889v57.548969H14.122618zM79.182762 147.03377h57.548889v57.548969H79.182762zM144.24294 147.03377h57.548889v57.548969H144.24294zM209.30313 147.03377h57.548889v57.548969H209.30313zM14.122618 277.15439h57.548889v57.548969H14.122618zM79.182762 277.15439h57.548889v57.548969H79.182762zM144.24294 277.15439h57.548889v57.548969H144.24294zM209.30313 277.15439h57.548889v57.548969H209.30313zM14.122618 212.09406h57.548889v57.548969H14.122618zM79.182762 212.09406h57.548889v57.548969H79.182762zM144.24294 212.09406h57.548889v57.548969H144.24294zM209.30313 212.09406h57.548889v57.548969H209.30313zM276.08435 147.03377h57.548889v57.548969H276.08435zM276.08435 277.15439h57.548889v57.548969H276.08435z"/></svg>