<svg xmlns="http://www.w3.org/2000/svg" xmlns:xlink="http://www.w3.org/1999/xlink" fill="none" stroke-linecap="square" stroke-miterlimit="10" viewBox="0 0 348 348"><defs><path id="reuse-0" d="M0 0h348v348H0z"/></defs><clipPath id="a"><use xlink:href="#reuse-0"/></clipPath><g clip-path="url(#a)"><use xlink:href="#reuse-0"/><path d="M5.08 5.78h336.91v337.67H5.08z"/><path stroke="#000" stroke-linecap="butt" stroke-linejoin="round" stroke-width="2" d="M5.08 5.78h336.91v337.67H5.08z"/><path stroke="#000" stroke-linecap="butt" stroke-linejoin="round" stroke-width="2" d="M272.9 52.45c0-8.38 6.96-15.17 15.55-15.17 4.13 0 8.09 1.6 11 4.44a15 15 0 0 1 4.56 10.73c0 8.37-6.97 15.16-15.56 15.16s-15.56-6.79-15.56-15.16z"/></g><path fill="none" stroke="#000" stroke-dashoffset="31.396762799999998" stroke-linecap="round" stroke-width="3.9620851999999993" d="M82.47 74.2H27.4l27.53-47.7zM82.53 76.7H27.47L55 124.4zM82.52 177.53H27.46l27.53-47.7zM82.6 180.03H27.51l27.54 47.69z"/><path fill="none" stroke="#000" stroke-dashoffset="25.1634357" stroke-linecap="round" stroke-width="3.1754763" d="M125.64 209.6H81.51l22.07-38.23zM125.7 211.6H81.56l22.07 38.22zM148.28 170.44h-44.14l22.07-38.22z"/><path fill="none" stroke="#000" stroke-dashoffset="25.1634357" stroke-linecap="round" stroke-width="3.1754763" d="M148.33 172.45H104.2l22.06 38.22zM170.9 210.7h-44.13l22.06-38.21zM170.95 212.71h-44.13l22.07 38.23zM193.53 171.55H149.4l22.06-38.22z"/><path fill="none" stroke="#000" stroke-dashoffset="25.1634357" stroke-linecap="round" stroke-width="3.1754763" d="M193.59 173.56h-44.14l22.07 38.22zM217.2 210.23h-44.14L195.13 172zM217.25 212.24H173.1l22.07 38.22zM239.83 171.07h-44.14l22.07-38.22z"/><path fill="none" stroke="#000" stroke-dashoffset="25.1634357" stroke-linecap="round" stroke-width="3.1754763" d="M239.88 173.08h-44.13l22.06 38.22z"/><path fill="none" stroke="#000" stroke-dashoffset="25.1634357" stroke-linecap="round" stroke-width="3.1754763" d="M261.66 210.7h-44.14l22.07-38.21zM261.71 212.71h-44.13l22.06 38.23zM284.29 171.55h-44.14l22.07-38.22z"/><path fill="none" stroke="#000" stroke-dashoffset="25.1634357" stroke-linecap="round" stroke-width="3.1754763" d="M284.34 173.56h-44.13l22.07 38.22z"/><path fill="none" stroke="#000" stroke-dashoffset="25.1634357" stroke-linecap="round" stroke-width="3.1754763" d="M306.12 210.7h-44.13l22.06-38.21zM306.17 212.71h-44.13l22.07 38.23zM328.75 171.55h-44.13l22.06-38.22z"/><path fill="none" stroke="#000" stroke-dashoffset="25.1634357" stroke-linecap="round" stroke-width="3.1754763" d="M328.8 173.56h-44.13l22.07 38.22z"/><path fill="none" stroke="#000" stroke-dashoffset="31.396762799999998" stroke-linecap="round" stroke-width="3.9620851999999993" d="M82.65 281.75H27.58l27.54-47.69zM82.72 284.26H27.65l27.53 47.68z"/></svg>