<svg xmlns="http://www.w3.org/2000/svg" viewBox="0 0 348 348" fill="none"><style>.str3{stroke:#000;stroke-width:3}.str2{stroke:#000;stroke-width:2}</style><path d="M5.08 5.78h336.91v337.67H5.08z" class="str2"/><path d="M133.84 15.67h74.33v56.88h-74.33z" fill="#000"/><path d="M154.54 44.09c0-2.7.28-4.89.83-6.53a8.21 8.21 0 0 1 2.48-3.83 6.39 6.39 0 0 1 4.16-1.34c1.23 0 2.3.25 3.23.75.93.49 1.7 1.2 2.3 2.14.6.92 1.08 2.06 1.42 3.4.35 1.34.52 3.14.52 5.41 0 2.69-.28 4.86-.83 6.51a8.16 8.16 0 0 1-2.49 3.83 6.35 6.35 0 0 1-4.15 1.35c-2.21 0-3.95-.8-5.2-2.38-1.52-1.9-2.27-5-2.27-9.31zm2.89 0c0 3.76.44 6.26 1.31 7.51.89 1.25 1.98 1.87 3.27 1.87s2.37-.63 3.25-1.88c.88-1.25 1.33-3.75 1.33-7.5 0-3.77-.45-6.28-1.33-7.52-.88-1.24-1.97-1.86-3.28-1.86a3.6 3.6 0 0 0-3.1 1.65c-.97 1.4-1.45 3.97-1.45 7.73zm14.9 0c0-2.7.28-4.89.83-6.53a8.21 8.21 0 0 1 2.49-3.83 6.39 6.39 0 0 1 4.15-1.34c1.23 0 2.31.25 3.24.75.93.49 1.7 1.2 2.3 2.14.6.92 1.07 2.06 1.42 3.4.34 1.34.51 3.14.51 5.41 0 2.69-.27 4.86-.83 6.51a8.16 8.16 0 0 1-2.48 3.83 6.35 6.35 0 0 1-4.16 1.35 6.3 6.3 0 0 1-5.2-2.38c-1.5-1.9-2.26-5-2.26-9.31zm2.9 0c0 3.76.43 6.26 1.3 7.51.9 1.25 1.98 1.87 3.27 1.87 1.3 0 2.38-.63 3.25-1.88.89-1.25 1.33-3.75 1.33-7.5 0-3.77-.44-6.28-1.33-7.52-.87-1.24-1.97-1.86-3.28-1.86a3.6 3.6 0 0 0-3.09 1.65c-.97 1.4-1.45 3.97-1.45 7.73z" fill="#fff"/><path d="M15.26 17.7h109.9v54.84H15.25zM15.26 73l40-54M37.57 73l40-54M59.87 73l40-54M82.17 73l40-54m95-1.94h109.9V71.9h-109.9zM216.86 71.58l40-54M239.17 71.58l40-54M261.47 71.58l40-54M283.78 71.58l40-54" class="str2"/><g transform="matrix(1.12 0 0 1.12 -6.4 -5.28)"><circle style="fill:#000" r="10" cy="45" cx="38.9"/><path style="fill:#000" d="M60 35h48v20H60z"/></g><circle cx="65.54" cy="156.2" r="44.8" class="str3"/><circle cx="65.54" cy="156.2" r="37.5" class="str3"/><circle cx="173.54" cy="156.2" r="44.8" class="str3"/><circle cx="173.54" cy="156.2" r="37.5" class="str3"/><circle cx="281.54" cy="156.2" r="44.8" class="str3"/><circle cx="281.54" cy="156.2" r="37.5" class="str3"/><circle cx="65.54" cy="264.2" r="44.8" class="str3"/><circle cx="65.54" cy="264.2" r="37.5" class="str3"/><circle cx="173.54" cy="264.2" r="44.8" class="str3"/><circle cx="173.54" cy="264.2" r="37.5" class="str3"/><circle cx="281.54" cy="264.2" r="44.8" class="str3"/><circle cx="281.54" cy="264.2" r="37.5" class="str3"/><path d="M87.84 133.1v44h-44v-44z" class="str3"/><path d="M81.84 140.1v31h-31v-31z" class="str3"/><path d="m66.34 167.6-12-12 12-12 12 12z" style="fill:#000"/><path d="m173.84 122.1 30 52h-60z" class="str3"/><path d="m173.84 136.1 18 31h-36z" class="str3"/><path d="m177.34 147-12 10h8l-4 7 13-9h-9z" style="fill:#000"/><circle cx="281.54" cy="156.2" r="28.4" class="str3"/><circle cx="281.54" cy="156.2" r="21.4" class="str3"/><path d="M282.02 141.14a15.15 15.15 0 0 0-15.15 13.77 15.15 15.15 0 0 0 15.15 15.16 15.15 15.15 0 0 0 13.78-15.16 15.15 15.15 0 0 0 0-1.37 11.02 11.02 0 0 1-11.02 9.64 11.02 11.02 0 0 1-12.4-11.02 11.02 11.02 0 0 1 11.02-11.02 15.15 15.15 0 0 0-1.38 0z" style="fill:#000;stroke-width:1.37752807"/><path d="m65.84 230.1 8 23 24 1-19 14 7 23-20-14-20 14 7-23-19-14 24-1z" class="str3"/><path d="m65.84 246.1 4 12 13 1-10 7 3 12-10-7-10 7 3-12-10-7 13-1z" class="str3"/><path d="m65.84 269.1-6-6 6-6 6 6z" style="fill:#000"/><path d="m173.84 229.1 33 24-12 40h-42l-12-40z" class="str3"/><path d="m173.84 239.1 24 17-9 29h-30l-9-29z" class="str3"/><path d="M168.84 251.1h11v15h7l-13 12-12-12h7z" style="fill:#000"/><path d="m315.84 264.1-17 30h-34l-17-30 17-29h34z" class="str3"/><path d="m306.84 264.1-13 22h-25l-12-22 12-22h25z" class="str3"/><path d="m274.76 278.3-7.1-7.1 7.1-7.1-7.1-7.1 7.1-7.1 7.1 7.1 7.09-7.1 7.1 7.1-7.1 7.1 7.1 7.1-7.1 7.1-7.1-7.1z" style="fill:#000;stroke-width:7.09582043"/></svg>