<svg xmlns="http://www.w3.org/2000/svg" viewBox="0 0 348 348" fill="none"><path d="M5.079 5.776h336.913v337.67H5.08z" stroke-width="2" stroke="#000"/><path d="M282.734 40.554c0-8.376 6.966-15.165 15.56-15.165 4.126 0 8.084 1.597 11.001 4.441 2.918 2.844 4.558 6.702 4.558 10.724 0 8.376-6.966 15.165-15.56 15.165-8.593 0-15.559-6.79-15.559-15.165z" stroke-width="2" stroke="#000"/><rect width="173.424" height="69.063" x="52.181" y="34.915" ry="0" stroke="#000" stroke-width="2" stroke-linecap="round" stroke-linejoin="round"/><path stroke="#000" stroke-width="2" stroke-linecap="round" stroke-linejoin="round" d="M80.306 122.087h16.55v16.55h-16.55zM122.901 122.087h16.55v16.55h-16.55zM165.496 122.087h16.55v16.55h-16.55zM208.091 122.087h16.55v16.55h-16.55zM250.685 122.087h16.55v16.55h-16.55zM144.198 283.335h16.55v16.55h-16.55zM186.793 283.335h16.55v16.55h-16.55zM229.388 283.335h16.55v16.55h-16.55zM101.603 283.335h16.55v16.55h-16.55zM43.702 148.011h260.137v120.476H43.702z"/><circle cx="152.473" cy="208.249" stroke="#000" stroke-width="2" stroke-linecap="round" stroke-linejoin="round" r="8.275"/><path d="M67.284 208.25l42.594-13.046M109.878 221.295l-42.594-13.046M109.878 195.204l42.595-13.045M152.473 208.25l-42.595-13.046M152.473 234.34l-42.595-39.136M109.878 221.295l42.595-39.136M152.473 208.25l-42.595 13.045M152.473 234.34l-42.595-13.045M152.473 182.159l42.595 13.045M152.473 208.25l42.595-13.046M152.473 234.34l42.595-39.136M152.473 182.159l42.595 39.136M152.473 208.25l42.595 13.045M152.473 234.34l42.595-13.045M195.068 195.204l42.595-26.09M195.068 195.204h42.595M237.663 221.295l-42.595-26.09 42.595 52.18" stroke="#000" stroke-width="2"/><path d="M237.663 169.114l-42.595 52.18 42.595-26.09M195.068 221.295h42.595M195.068 221.295l42.595 26.09M237.663 169.114l42.594 26.09M237.663 169.114l42.594 52.18M280.257 195.204h-42.594l42.594 26.09" stroke="#000" stroke-width="2"/><path d="M280.257 195.204l-42.594 26.09h42.594" stroke="#000" stroke-width="2"/><path d="M280.257 195.204l-42.594 52.181 42.594-26.09" stroke="#000" stroke-width="2"/><g aria-label="-/123 -/1.234" style="line-height:1.25;-inkscape-font-specification:'Consolas, Bold';font-variant-ligatures:normal;font-variant-caps:normal;font-variant-numeric:normal;font-variant-east-asian:normal" font-weight="700" font-size="23.085" font-family="Consolas" fill="#000" stroke-width=".577"><path d="M122.937 56.855V54.41h7.012v2.446zM136.272 64.194h-2.671l7.868-18.351h2.683zM147.195 61.77v-2.446h3.754v-9.469l-3.27 1.804-.9-2.243 4.677-2.469h2.31v12.377h3.236v2.446zM159.628 61.77v-2.029l3.484-3.483q.98-.98 1.566-1.69.598-.71.913-1.263.327-.564.429-1.037.101-.474.101-.981 0-.417-.135-.79-.135-.382-.395-.653-.259-.282-.653-.44-.395-.169-.902-.169-.868 0-1.612.384-.744.372-1.41 1.003l-1.453-1.871q.958-.89 2.153-1.42 1.206-.542 2.604-.542 1.082 0 1.961.282.88.27 1.5.812.63.54.969 1.352.35.812.35 1.872 0 .879-.238 1.645-.236.756-.687 1.477-.451.721-1.116 1.443-.654.721-1.5 1.522l-2.141 2.04h6.21v2.536zM182.364 57.273q0 1.093-.405 1.972-.406.868-1.252 1.488-.834.609-2.107.936-1.274.327-2.999.327-.383 0-.811-.023-.417-.011-.835-.045-.417-.023-.811-.068-.395-.033-.71-.09v-2.39q.71.136 1.59.226.89.079 1.848.079.935 0 1.612-.158.676-.158 1.116-.45.44-.305.642-.745.214-.44.214-.992 0-.485-.214-.88-.214-.394-.654-.664-.44-.282-1.127-.428-.676-.158-1.612-.158h-1.634v-2.097h1.499q.88 0 1.454-.169.586-.18.924-.473.35-.294.496-.688.147-.406.147-.845 0-.902-.586-1.364-.586-.474-1.815-.474-.88 0-1.736.17-.857.168-1.77.45v-2.31q.507-.17.97-.282.462-.113.924-.192t.936-.113q.473-.034.98-.034 1.218 0 2.13.26.925.259 1.545.744.631.473.947 1.16.315.688.315 1.534 0 1.341-.62 2.175-.608.823-1.713 1.263.71.112 1.285.394.575.27.98.71.418.429.632.992.225.564.225 1.252zM122.937 85.712v-2.446h7.012v2.446zM136.272 93.05h-2.671l7.868-18.35h2.683zM147.195 90.627v-2.446h3.754v-9.469l-3.27 1.804-.9-2.243 4.677-2.469h2.31v12.377h3.236v2.446zM164.453 86.468q.473 0 .88.18.405.169.698.473.304.293.473.7.17.405.17.867 0 .451-.17.857-.169.394-.473.699-.293.293-.699.462-.406.18-.88.18-.45 0-.844-.18-.395-.17-.688-.462-.293-.305-.462-.7-.17-.405-.17-.856 0-.462.17-.868.169-.406.462-.699.293-.304.688-.473.394-.18.845-.18zM172.321 90.627v-2.029l3.483-3.483q.98-.98 1.567-1.69.597-.711.913-1.263.327-.564.428-1.037.102-.474.102-.981 0-.417-.136-.79-.135-.382-.394-.653-.26-.282-.654-.44-.394-.169-.902-.169-.868 0-1.612.384-.743.372-1.409 1.003l-1.454-1.871q.958-.89 2.153-1.42 1.206-.542 2.604-.542 1.082 0 1.962.282.879.27 1.499.812.631.54.97 1.352.349.812.349 1.872 0 .879-.237 1.645-.237.756-.688 1.477-.45.721-1.116 1.443-.653.721-1.499 1.522l-2.142 2.04h6.211v2.536zM195.057 86.13q0 1.093-.406 1.972-.406.868-1.251 1.488-.834.609-2.108.936-1.274.326-2.998.326-.384 0-.812-.022-.417-.011-.834-.045-.417-.023-.812-.068-.394-.034-.71-.09v-2.39q.71.136 1.59.226.89.079 1.848.079.936 0 1.612-.158t1.116-.451q.44-.304.643-.744.214-.44.214-.992 0-.485-.214-.88-.215-.394-.654-.664-.44-.282-1.127-.429-.677-.157-1.612-.157h-1.635V81.97h1.5q.879 0 1.454-.17.586-.18.924-.473.35-.293.496-.687.146-.406.146-.846 0-.901-.586-1.363-.586-.474-1.815-.474-.879 0-1.736.17-.856.168-1.77.45v-2.31q.508-.17.97-.283.462-.112.924-.191.463-.08.936-.113.473-.034.98-.034 1.218 0 2.131.26.924.259 1.544.743.632.474.947 1.162.316.687.316 1.533 0 1.34-.62 2.175-.609.823-1.713 1.263.71.112 1.285.394.575.27.98.71.417.429.632.992.225.564.225 1.251zM206.228 87.629v2.998h-2.683v-2.998h-6.854v-2.356l5.75-9.379h3.787v9.311h2.232v2.424zm-2.65-9.075l-4.192 6.651h4.193z"/></g><circle cx="152.473" cy="234.34" fill="#fff" stroke="#000" stroke-width="2" stroke-linecap="round" stroke-linejoin="round" r="8.275"/><circle cx="152.473" cy="182.159" fill="#fff" stroke="#000" stroke-width="2" stroke-linecap="round" stroke-linejoin="round" r="8.275"/><circle cx="152.473" cy="208.249" fill="#fff" stroke="#000" stroke-width="2" stroke-linecap="round" stroke-linejoin="round" r="8.275"/><circle cx="67.284" cy="208.249" fill="#fff" stroke="#000" stroke-width="2" stroke-linecap="round" stroke-linejoin="round" r="8.275"/><circle cx="109.878" cy="221.295" fill="#fff" stroke="#000" stroke-width="2" stroke-linecap="round" stroke-linejoin="round" r="8.275"/><circle cx="109.878" cy="195.204" fill="#fff" stroke="#000" stroke-width="2" stroke-linecap="round" stroke-linejoin="round" r="8.275"/><circle cx="195.068" cy="195.204" fill="#fff" stroke="#000" stroke-width="2" stroke-linecap="round" stroke-linejoin="round" r="8.275"/><circle cx="195.068" cy="221.295" fill="#fff" stroke="#000" stroke-width="2" stroke-linecap="round" stroke-linejoin="round" r="8.275"/><circle cx="237.663" cy="221.295" fill="#fff" stroke="#000" stroke-width="2" stroke-linecap="round" stroke-linejoin="round" r="8.275"/><circle cx="237.663" cy="195.204" fill="#fff" stroke="#000" stroke-width="2" stroke-linecap="round" stroke-linejoin="round" r="8.275"/><circle cx="237.663" cy="169.114" fill="#fff" stroke="#000" stroke-width="2" stroke-linecap="round" stroke-linejoin="round" r="8.275"/><circle cx="237.663" cy="247.385" fill="#fff" stroke="#000" stroke-width="2" stroke-linecap="round" stroke-linejoin="round" r="8.275"/><circle cx="280.257" cy="221.295" fill="#fff" stroke="#000" stroke-width="2" stroke-linecap="round" stroke-linejoin="round" r="8.275"/><circle cx="280.257" cy="195.204" fill="#fff" stroke="#000" stroke-width="2" stroke-linecap="round" stroke-linejoin="round" r="8.275"/></svg>