<svg xmlns="http://www.w3.org/2000/svg" fill="none" stroke="#000" stroke-width="2" viewBox="0 0 347 347"><path d="M5 5h337v337H5z"/><circle cx="298" cy="40" r="16"/><path d="M10.641 204.986h60.367v131.157H10.641zm67.097.001h60.367v131.157H77.738zm65.904-.001h60.367v131.157h-60.367zm67.097.001h60.367v131.157h-60.367zm65.038 0h60.367v131.157h-60.367zm-264.92-82.082h154.609v74.699H10.857zm169.591-.434h154.609v74.699H180.448z" style="fill:#d8d8d8;stroke:#000;stroke-width:1px"/><path d="M194.292 173.712v-27.631h12.251q3.694 0 5.617.745 1.922.744 3.072 2.629 1.15 1.885 1.15 4.165 0 2.941-1.904 4.957-1.904 2.017-5.881 2.564 1.452.697 2.206 1.375 1.602 1.471 3.034 3.676l4.806 7.52h-4.599l-3.656-5.749q-1.602-2.487-2.639-3.807-1.036-1.319-1.856-1.847-.82-.528-1.668-.735-.622-.132-2.036-.132h-4.24v12.27Zm3.657-15.436h7.859q2.507 0 3.92-.519 1.414-.518 2.149-1.658.735-1.14.735-2.479 0-1.96-1.423-3.223-1.423-1.262-4.495-1.262h-8.745Zm24.238 15.436v-27.631h19.979v3.261h-16.322v8.463h15.285v3.241h-15.285v9.405h16.962v3.261Zm22.636 0 10.611-27.631h3.939l11.309 27.631h-4.166l-3.223-8.368H251.74l-3.035 8.368Zm7.972-11.346h9.367l-2.883-7.652q-1.32-3.487-1.96-5.73-.528 2.657-1.489 5.277Zm20.808 11.346v-27.631h9.518q3.223 0 4.919.396 2.375.547 4.052 1.979 2.186 1.847 3.27 4.721 1.084 2.875 1.084 6.569 0 3.147-.735 5.579-.735 2.431-1.885 4.024-1.15 1.592-2.516 2.507-1.367.914-3.298 1.385-1.932.471-4.439.471Zm3.656-3.261h5.899q2.733 0 4.288-.509 1.555-.508 2.479-1.432 1.3-1.3 2.026-3.496.725-2.196.725-5.325 0-4.335-1.423-6.662-1.423-2.328-3.458-3.12-1.47-.565-4.731-.565h-5.805Zm32.004 3.261v-11.704l-10.649-15.927h4.448l5.447 8.331q1.508 2.337 2.808 4.674 1.244-2.167 3.016-4.881l5.353-8.124h4.259l-11.026 15.927v11.704ZM39.972 173.933v-27.631h3.751l14.512 21.694v-21.694h3.506v27.631H57.99L43.478 152.22v21.713Zm27.989 0v-27.631H87.94v3.261H71.618v8.463h15.285v3.241H71.618v9.405H88.58v3.261Zm22.862 0 10.686-14.4-9.423-13.231h4.353l5.014 7.087q1.564 2.205 2.224 3.393.923-1.508 2.186-3.148l5.56-7.332h3.977l-9.706 13.024 10.46 14.607h-4.523l-6.955-9.857q-.584-.848-1.206-1.847-.924 1.507-1.32 2.073l-6.936 9.631Zm35.584 0v-24.37h-9.104v-3.261h21.901v3.261h-9.141v24.37Z" style="fill:#333;text-wrap-mode:nowrap"/><path d="M30.183 10.422h187.615v105.534H30.183z" style="fill:#d8d8d8;stroke:#000;stroke-width:1px"/><path d="m102.169 96.997 4.04-19.782h-7.848v-6.919h9.241l3.436-16.856H98.361v-6.919h14.07l4.04-19.92h6.966l-4.04 19.92h14.627l4.04-19.92h7.012l-4.04 19.92h8.033v6.919h-9.426l-3.483 16.856h12.909v6.919h-14.302l-4.04 19.782h-6.965l3.993-19.782h-14.581l-4.04 19.782Zm12.398-26.701h14.581l3.483-16.856h-14.627Z" style="fill:#333;text-wrap-mode:nowrap"/></svg>