<svg xmlns="http://www.w3.org/2000/svg" fill="none" viewBox="0 0 348 348"><path stroke="#000" stroke-width="2" d="M5.08 5.78h336.91v337.67H5.08z"/><path stroke="#000" stroke-width="2" d="M282.73 40.55c0-8.37 6.97-15.16 15.56-15.16 4.13 0 8.09 1.6 11 4.44a14.97 14.97 0 0 1 4.56 10.72c0 8.38-6.96 15.17-15.56 15.17-8.59 0-15.56-6.8-15.56-15.17z"/><path fill="#f2f2f2" stroke="#000" stroke-linecap="square" d="M25.07 115.75h207.91v207.92H25.07z"/><path fill="#000" d="M255.1 115.75h69.3v207.92h-69.3z"/><path fill="#fff" d="M273.06 142.3h-2.75v-12.38h-2.48v-2.74h5.23zm15.07-15.12-9.54 15.12h-2.94l9.55-15.12zm6.85 15.12h-2.75v-12.38h-2.48v-2.74h5.23zm16.7 0H297.8v-5.07q0-.4.08-.82.1-.45.29-.88.19-.43.48-.82.3-.4.73-.69.43-.3.99-.48t1.26-.18h6.18q.56 0 .82-.28.28-.28.28-.82v-1.2q0-.57-.28-.85-.27-.29-.8-.29h-8.8v-2.74h8.8q.7 0 1.25.18.56.18.98.49.44.3.74.68.3.4.5.82.2.43.28.87.1.43.1.81v1.23q0 1.07-.4 1.8-.37.73-.95 1.2-.58.45-1.26.66-.66.2-1.24.2h-6.2q-.33 0-.53.1t-.32.25q-.1.16-.16.36l-.08.4v2.33h11.14z" aria-label="1/12"/><path fill="#fff" d="M305.78 215.18h-6.38v-14.26h-22.48q-.68 0-1.27-.24-.58-.27-1.02-.69-.41-.43-.65-1.02-.25-.58-.25-1.24V180.3h6.33v14.25h19.34V180.3h6.38z" aria-label="4"/><path fill="#999" d="M273.98 266.55h.99q-.77 1.54-1.16 2.16-.38.61-1.38 1.86h20.77v1.32h-20.77q1.35 1.4 2.58 4.02h-1.02q-1.68-1.87-2.89-2.84-1.2-.97-2.5-1.6v-.58q1.13-.48 2.4-1.47 1.26-1 2.98-2.87z" aria-label="←" transform="translate(-2.72)"/><path fill="#fff" d="M288.25 253.98q1.88-1.73 2.86-3 .99-1.26 1.47-2.38h.6q.61 1.29 1.57 2.5.98 1.21 2.86 2.89v1q-2.62-1.22-4.03-2.56v19.19h-1.31v-19.2q-1.25 1-1.88 1.39-.6.39-2.15 1.16z" aria-label="↑" transform="translate(-2.72)"/><path fill="#fff" d="M310.96 266.55q1.73 1.89 3 2.88 1.26.98 2.38 1.46v.58q-1.3.63-2.5 1.6-1.21.97-2.9 2.84h-1q1.23-2.61 2.57-4.02h-20.77v-1.31h20.77q-.99-1.27-1.38-1.88-.39-.61-1.16-2.15z" aria-label="→" transform="translate(-2.72)"/><path fill="#fff" d="M288.25 288.3v-1q1.55.78 2.16 1.17.6.39 1.86 1.38v-19.2h1.31v19.2q1.41-1.34 4.03-2.57v1q-1.88 1.69-2.85 2.9-.97 1.2-1.58 2.5h-.6q-.48-1.12-1.47-2.39-.98-1.26-2.87-3z" aria-label="↓" transform="translate(-2.72)"/><path fill="#fff" d="M288.25 253.98q1.88-1.73 2.86-3 .99-1.26 1.47-2.38h.6q.61 1.29 1.57 2.5.98 1.21 2.86 2.89v1q-2.62-1.22-4.03-2.56v19.19h-1.31v-19.2q-1.25 1-1.88 1.39-.6.39-2.15 1.16z" aria-label="↑" transform="rotate(45 292.23 268.38)"/><path fill="#fff" d="M288.25 288.3v-1q1.55.78 2.16 1.17.6.39 1.86 1.38v-19.2h1.31v19.2q1.41-1.34 4.03-2.57v1q-1.88 1.69-2.85 2.9-.97 1.2-1.58 2.5h-.6q-.48-1.12-1.47-2.39-.98-1.26-2.87-3z" aria-label="↓" transform="rotate(45 290.91 267.42)"/><path fill="#000" d="M323.26 255.15h17.85v2.43h-17.85zm0 6.43h17.85v2.43h-17.85zm0 6.43h17.85v2.44h-17.85z"/><path fill="#fff" stroke="#000" stroke-linecap="square" stroke-width=".67" d="M30.3 26.08h30.76v30.76H30.31zm0 34.76h30.76v30.75H30.31zm34.76-34.76h30.75v30.76H65.06zm0 34.76h30.75v30.75H65.06zm34.76-34.76h30.75v30.76H99.82zm0 34.76h30.75v30.75H99.82z"/><path fill="#fff" stroke="#000" stroke-linecap="square" stroke-width=".98" d="M182.37 36.01h45.21v45.65h-45.21z"/><path fill="#fff" stroke="#000" stroke-linecap="square" stroke-width=".67" d="M135.54 43.46h30.76v30.76h-30.76z"/><path fill="#000" d="M54.61 38.4q0 1.16-.29 2.07-.28.91-.78 1.62-.48.69-1.12 1.18-.64.5-1.34.82-.69.31-1.4.46-.7.14-1.33.14l7.07 6.1h-5.24l-7.05-6.1h-2.44v-3.38h7.66q.63-.06 1.15-.27.54-.22.92-.58.39-.37.6-.87.2-.52.2-1.19v-2.13q0-.29-.08-.43-.06-.16-.18-.22-.1-.08-.23-.1H39.34V50.8h-3.39V33.83q0-.35.13-.66.13-.32.35-.55.24-.23.55-.36.31-.13.68-.13H50.5q1.13 0 1.91.41.78.4 1.26 1.03.5.61.7 1.33.23.72.23 1.34z" aria-label="R"/><path fill="#000" d="M89.78 49.1q0 .36-.13.67-.13.31-.37.55-.22.22-.53.35-.32.13-.68.13H75.86q-.47 0-1.02-.1-.53-.12-1.07-.36-.52-.23-1-.6-.48-.38-.86-.9-.36-.53-.59-1.22-.22-.7-.22-1.57v-9.17q0-.47.1-1 .12-.55.36-1.07.23-.54.61-1.02t.9-.84q.53-.38 1.22-.6.7-.22 1.57-.22h13.76v3.38H75.85q-.66 0-1.01.35t-.35 1.04v9.14q0 .66.35 1.02.36.35 1.01.35H86.4v-4.24h-9.01v-3.41h10.69q.36 0 .68.14.3.13.53.36.24.24.37.55.13.3.13.65z" aria-label="G"/><path fill="#000" d="M124.52 46.7q0 .62-.22 1.34-.2.71-.7 1.32-.48.62-1.26 1.03-.79.4-1.92.4h-12.85q-.37 0-.68-.12-.31-.13-.55-.35-.22-.24-.35-.55-.13-.31-.13-.68V33.83q0-.35.13-.66.13-.31.35-.55.24-.23.55-.36.31-.13.68-.13h11.33q.62 0 1.34.22.72.22 1.33.71.62.49 1.02 1.27.42.78.42 1.91v.64q0 .9-.3 1.94-.3 1.03-.96 1.95.57.35 1.07.85.5.5.88 1.14.38.65.6 1.48.22.82.22 1.8zm-3.38-.66q0-.66-.21-1.18-.21-.53-.59-.91-.37-.38-.9-.57-.54-.21-1.2-.21h-7.64v-3.41h6.11q.66 0 1.2-.2.53-.2.9-.59.39-.37.58-.9.21-.53.21-1.2v-.63q0-.73-.7-.73h-9.65v11.9h11.17l.22-.01q.12-.01.24-.08.1-.06.18-.22.08-.16.08-.43z" aria-label="B"/><path fill="#000" d="M54.17 85.55H41.95q-.47 0-1.01-.1-.54-.12-1.07-.35-.52-.24-1-.6-.48-.38-.86-.9-.37-.53-.59-1.22-.22-.7-.22-1.58v-9.17q0-.47.1-1 .12-.55.36-1.07.23-.53.6-1.01.39-.48.9-.85.54-.38 1.23-.6.7-.22 1.56-.22h12.22v3.39H41.95q-.66 0-1.01.35t-.35 1.04v9.14q0 .65.35 1.02.36.35 1.01.35h12.22z" aria-label="C"/><path fill="#000" d="M91.3 85.56h-3.4V74.44L81.88 85q-.22.4-.63.6-.39.22-.84.22-.44 0-.83-.21-.38-.21-.6-.62l-6.03-10.55v11.12h-3.39V68.33q0-.59.34-1.04.35-.46.91-.62.28-.06.55-.03.27 0 .52.11.26.1.47.28.2.17.35.41l7.71 13.4 7.7-13.4q.3-.5.83-.7.53-.2 1.1-.07.55.16.9.62.35.45.35 1.04z" aria-label="M"/><path fill="#000" d="M124.53 73.13q0 1.16-.3 2.07-.29.91-.77 1.61-.48.7-1.13 1.19-.64.5-1.33.82-.69.31-1.4.46-.7.14-1.33.14h-1.37v6.13h-3.41v-6.13h-1.36q-.62 0-1.34-.14-.7-.15-1.4-.46-.7-.33-1.33-.82-.64-.5-1.14-1.19-.48-.7-.78-1.61-.28-.92-.28-2.07v-6.25h3.38v6.25q0 .66.21 1.2.2.52.59.9.37.37.9.58.55.2 1.22.2h6.1q.49-.08 1-.2.5-.13.92-.43.42-.3.69-.83.27-.54.27-1.42v-6.25h3.39z" aria-label="Y"/><path fill="#000" d="m150.9 56.17 5.7-6.67h4.63l-8.04 9.37 7.99 9.3h-4.6l-5.68-6.61-5.65 6.61h-4.6l7.96-9.3-8-9.37h4.59z" aria-label="X"/><path fill="#000" d="M196.85 61.33q0 .65-.17 1.18-.16.51-.43.9t-.63.68q-.37.28-.75.46-.4.18-.8.26-.4.09-.75.09h-8.47v-2.2h8.47q.63 0 .98-.37t.35-1q0-.3-.09-.56-.1-.25-.27-.44-.17-.18-.42-.28-.25-.1-.55-.1h-5.05q-.54 0-1.15-.19-.62-.2-1.15-.62-.53-.42-.88-1.1-.35-.69-.35-1.68 0-.98.35-1.66.35-.68.88-1.1.53-.44 1.15-.62.61-.2 1.15-.2h7.47v2.2h-7.47q-.63 0-.98.38t-.35 1q0 .64.35 1 .35.37.98.37h5.06q.36.01.76.1.4.09.78.27.4.19.75.48.36.28.63.67.28.4.44.92.16.51.16 1.16zm13.71 2.46q0 .24-.08.44-.09.2-.24.35-.15.15-.35.23-.2.09-.43.09h-4.96q-.7 0-1.42-.16t-1.39-.46q-.67-.32-1.26-.81-.59-.5-1.04-1.16-.44-.67-.69-1.54-.25-.87-.25-1.93v-6.06h2.2v6.06q0 .93.25 1.57.26.64.66 1.07.4.43.87.68.47.24.9.36.42.12.74.15l.43.03h3.87v-9.92h2.2zm14.65-1.55q0 .4-.14.87-.14.46-.46.86-.31.4-.82.66-.5.27-1.24.27h-8.34q-.24 0-.44-.09-.2-.08-.35-.23-.15-.15-.23-.35-.09-.2-.09-.44v-9.9q0-.23.09-.43.08-.2.23-.36.15-.15.35-.23.2-.09.44-.09h7.35q.4 0 .87.15.47.14.86.46.4.31.67.82.27.5.27 1.24v.42q0 .58-.2 1.25-.19.67-.62 1.27.37.23.7.55.32.32.57.74.24.43.39.96.14.53.14 1.17zm-2.2-.43q0-.43-.13-.77-.14-.34-.38-.59-.25-.24-.6-.37-.34-.13-.77-.13h-4.95v-2.22h3.96q.43 0 .78-.12.35-.14.6-.38t.36-.59q.14-.34.14-.77v-.42q0-.47-.46-.47h-6.26v7.72h7.39q.09-.02.16-.06.06-.04.11-.14t.05-.28z" aria-label="SUB"/><path fill="#000" d="M65.68 116h1.21v207.76h-1.21zm41.82 0h1.22v207.76h-1.22zm41.83 0h1.22v207.76h-1.22zm41.83 0h1.21v207.76h-1.21z"/><path fill="#000" d="M232.9 156.36v1.22H25.16v-1.22zm0 41.83v1.22H25.16v-1.22zm0 41.83v1.21H25.16v-1.21zm0 41.82v1.22H25.16v-1.22z"/><path fill="#4d4d4d" stroke="#000" stroke-linecap="square" stroke-width=".2" d="M108.7 157.59h40.7v40.63h-40.7z"/></svg>