<svg xmlns="http://www.w3.org/2000/svg" fill="none" viewBox="0 0 348 348"><path stroke="#000" stroke-width="2" d="M5.08 5.78h336.91v337.67H5.08z"/><path stroke="#000" stroke-width="2" d="M282.73 40.55c0-8.37 6.97-15.16 15.56-15.16 4.13 0 8.09 1.6 11 4.44a14.97 14.97 0 0 1 4.56 10.72c0 8.38-6.96 15.17-15.56 15.17-8.59 0-15.56-6.8-15.56-15.17z"/><path fill="#4d4d4d" d="M39.24 72.45h198.8v186.72H39.24zm223.38 11.21h56.92v59.51h-56.92zm-.11 72.64h56.92v59.51h-56.92zm9.43 118.72h56.92v59.51h-56.92z"/><rect width="64.25" height="14.23" x="104.82" y="49.59" fill="#4d4d4d" ry="7.12"/><rect width="64.25" height="14.23" x="106.59" y="268.33" fill="#4d4d4d" ry="7.12"/><rect width="36.65" height="16.82" x="296.84" y="-210.26" fill="#4d4d4d" ry="8.41" transform="rotate(90)"/><rect width="36.65" height="16.82" x="298.04" y="-77.41" fill="#4d4d4d" ry="8.41" transform="rotate(90)"/></svg>