<svg xmlns="http://www.w3.org/2000/svg" xmlns:xlink="http://www.w3.org/1999/xlink" width="612" height="612" viewBox="0 90 612 612"><defs><path id="a" d="M0 90h612v612.001H0z"/></defs><clipPath id="b"><use overflow="visible" xlink:href="#a"/></clipPath><g clip-path="url(#b)"><path fill="none" d="M0 90h612v612.001H0V90z"/><path fill="#FFF" d="M-10.552 90h612v611.945h-612V90z"/><path fill="none" d="M8.932 100.158h592.502V693.99H8.932V100.158z"/><path fill="none" stroke="#000" stroke-linejoin="round" stroke-miterlimit="10" stroke-width="2" d="M8.932 100.158h592.502V693.99H8.932V100.158z"/><path fill="#FFF" d="M497.223 161.319c0-14.729 12.25-26.67 27.362-26.67 7.257 0 14.217 2.81 19.348 7.812 5.132 5.001 8.015 11.785 8.015 18.858 0 14.729-12.251 26.67-27.362 26.67-15.113 0-27.363-11.94-27.363-26.67z"/><path fill="none" stroke="#000" stroke-linejoin="round" stroke-miterlimit="10" stroke-width="2" d="M497.223 161.319c0-14.729 12.25-26.67 27.362-26.67 7.257 0 14.217 2.81 19.348 7.812 5.132 5.001 8.015 11.785 8.015 18.858 0 14.729-12.251 26.67-27.362 26.67-15.113 0-27.363-11.94-27.363-26.67z"/></g><path fill="none" stroke="#231F20" stroke-miterlimit="10" stroke-width="2" d="M58.5 154.5h386v142h-386z"/><path fill="#FFF" stroke="#000" stroke-miterlimit="10" stroke-width="2" d="M32.5 344.5h78v294h-78zm78 0h78v294h-78zm78 0h78v294h-78z"/><path fill="#FFF" stroke="#000" stroke-miterlimit="10" stroke-width="2" d="M266 344.5h78v294h-78zm78 0h78v294h-78zm78 0h78v294h-78zm78 0h78v294h-78z"/><path fill="#231F20" stroke="#000" stroke-miterlimit="10" stroke-width="2" d="M88 344.5h45v161H88zm78 0h45v161h-45zm155.5 0h45v161h-45zm78 0h45v161h-45zm78 0h45v161h-45z"/><path d="M95.213 203.685h9.938v3.351h-5.625v36.094h5.625v3.352h-9.938zM133.252 221.403h-18.75v-4.125h38.438v4.125h-15.375v2.438q0 11.812-8.438 19.5l-3.75-2.813q7.875-6.187 7.875-16.687zm-12-11.437v-4.125h23.063v4.125zm25.5-7.688q2.438 2.438 5.25 6.563l-2.625 1.875q-2.625-3.75-5.25-6.75zm4.5-2.437q2.438 2.625 5.25 6.375l-2.625 1.875q-3-4.125-5.25-6.375zM184.815 243.903h-3.75v-17.437q-4.125 3.187-12.375 7.312l-2.625-3.187q17.812-8.625 24.375-18.938l3.187 2.438q1.125.937-.75 1.312-3.187 3.938-8.062 8.063zM232.815 223.091q8.062 6.187 15.937 14.25l-3.75 3.187q-7.875-8.25-15.187-13.875-7.313 7.875-16.688 14.063l-3.562-3.188q19.875-12.937 25.5-25.875l-20.438 1.313-.562-4.5 21.75-.938 2.25-.562 3 3q1.312 1.312-.75 1.687-3.563 6.188-7.5 11.438zM295.44 207.903q1.5 0 2.437-.937.938-.938.938-2.438 0-1.5-.938-2.437-.937-.938-2.437-.938-1.5 0-2.438.938-.937.937-.937 2.437 0 1.5.937 2.438.938.937 2.438.937zm0 1.875q-2.25 0-3.75-1.5t-1.5-3.75q0-2.25 1.5-3.75t3.75-1.5q2.25 0 3.75 1.5t1.5 3.75q0 2.25-1.5 3.75t-3.75 1.5zm-33.563 2.438v-4.125h27.75l4.875 3.562q-.937 22.688-25.687 29.625l-3.375-4.125q23.437-5.437 24.562-24.937zM318.315 235.841q17.25-3.188 25.125-17.438l3.187 3.188q-9 15.75-30 19.312l-3-2.25.375-1.125v-31.125h4.125q1.688.188.188 1.313zM354.502 226.466q19.688-8.25 29.813-23.25l3.562 3q1.5 1.125-1.312 1.687-3.563 4.688-9.188 9.563v25.5h-4.312v-21.938q-6.563 5.063-15.375 9.188zM412.416 203.685v42.797h-9.937v-3.352h5.602v-36.094h-5.602v-3.351z"/></svg>