<svg xmlns="http://www.w3.org/2000/svg" xml:space="preserve" fill="none" viewBox="0 0 348 348"><path stroke="#000" stroke-width="2" d="M342 5.78H5.07v337.67h336.91Z"/><path fill="#000" fill-rule="evenodd" d="M31.36 32.14V43l10.88-10.87Zm24.1 0-24.1 24.1v13.35l37.45-37.45Zm26.57 0L31.44 82.73H44.8l50.58-50.6zm26.58 0L58 82.73h13.36l45.24-45.25v-5.34zm8 18.56L84.6 82.73h13.35l18.67-18.67Zm0 26.58-5.44 5.45h5.45z"/><path stroke="#000" stroke-width="2" d="M31.36 32.14h85.25v50.59H31.36Z"/><path fill="#000" fill-rule="evenodd" d="M230.46 32.14V43l10.87-10.87zm24.1 0-24.1 24.1v13.35l37.44-37.45zm26.56 0-50.58 50.59h13.35l50.59-50.6zm26.58 0-50.6 50.59h13.36l45.25-45.25v-5.34zm8 18.56-32.02 32.03h13.35l18.68-18.67zm0 26.58-5.44 5.45h5.45z"/><path stroke="#000" stroke-width="2" d="M230.46 32.14h85.25v50.59h-85.25zm-104.6-1.17h95.35v73.6h-95.35z"/><path fill="#000" fill-rule="evenodd" d="M137.04 46.73h73v42.1h-73z"/><path fill="#fff" d="M154.25 49.7v1.2l3.62 3.62h7.23l3.61-3.62v-1.2h-14.46zm24.1 0v1.2l3.62 3.62h7.23l3.62-3.62v-1.2h-14.46zm-26.5 2.4v14.47h1.2l3.61-3.62v-7.23l-3.61-3.61h-1.2zm18.07 0-3.62 3.62v7.23l3.62 3.62h1.2V52.1h-1.2zm24.1 0-3.61 3.62v7.23l3.61 3.62h1.2V52.1h-1.2zm-37.36 13.27-2.4 2.4 2.4 2.42h9.64l2.41-2.41-2.4-2.41h-9.65zm13.26 3.61-3.62 3.62v7.23l3.62 3.61h1.2V68.98h-1.2zm24.1 0-3.61 3.62v7.23l3.61 3.61h1.2V68.98h-1.2zm-36.15 12.05-3.62 3.62v1.2h14.46v-1.2l-3.61-3.62h-7.23z"/><circle cx="231.82" cy="136.61" r="22.69" fill="#5e5e5e" fill-rule="evenodd" stroke="#000" stroke-width="2" paint-order="markers fill stroke" style="font-variation-settings:normal"/><path fill="#fff" fill-rule="evenodd" d="M231.82 130.12a6.48 6.48 0 0 0-6.49 6.49 6.48 6.48 0 0 0 6.49 6.48 6.48 6.48 0 0 0 6.48-6.48 6.48 6.48 0 0 0-6.48-6.49zm0 1.34 5.14 5.15-5.14 5.14-5.14-5.14z" paint-order="markers"/><circle cx="58.36" cy="136.61" r="22.69" fill="#262626" fill-rule="evenodd" stroke="#000" stroke-width="2" paint-order="markers fill stroke" style="font-variation-settings:normal"/><path fill="#fff" fill-rule="evenodd" d="M58.36 130.12a6.48 6.48 0 0 0-6.48 6.49 6.48 6.48 0 0 0 6.48 6.48 6.48 6.48 0 0 0 6.49-6.48 6.48 6.48 0 0 0-6.49-6.49zm0 1.34 5.15 5.15-5.15 5.14-5.14-5.14z" paint-order="markers"/><circle cx="289.64" cy="136.61" r="22.69" fill="#6b6b6b" fill-rule="evenodd" stroke="#000" stroke-width="2" paint-order="markers fill stroke" style="font-variation-settings:normal"/><path fill="#fff" fill-rule="evenodd" d="M289.64 130.12a6.48 6.48 0 0 0-6.49 6.49 6.48 6.48 0 0 0 6.49 6.48 6.48 6.48 0 0 0 6.48-6.48 6.48 6.48 0 0 0-6.48-6.49zm0 1.34 5.14 5.15-5.14 5.14-5.15-5.14z" paint-order="markers"/><circle cx="116.18" cy="136.61" r="22.69" fill="#737373" fill-rule="evenodd" stroke="#000" stroke-width="2" paint-order="markers fill stroke" style="font-variation-settings:normal"/><path fill="#fff" fill-rule="evenodd" d="M116.18 130.12a6.48 6.48 0 0 0-6.48 6.49 6.48 6.48 0 0 0 6.48 6.48 6.48 6.48 0 0 0 6.49-6.48 6.48 6.48 0 0 0-6.49-6.49zm0 1.34 5.14 5.15-5.14 5.14-5.14-5.14z" paint-order="markers"/><circle cx="174" cy="136.61" r="22.69" fill="gray" fill-rule="evenodd" stroke="#000" stroke-width="2" paint-order="markers fill stroke" style="font-variation-settings:normal"/><path fill="#fff" fill-rule="evenodd" d="M174 130.12a6.48 6.48 0 0 0-6.48 6.49 6.48 6.48 0 0 0 6.48 6.48 6.48 6.48 0 0 0 6.48-6.48 6.48 6.48 0 0 0-6.48-6.49zm0 1.34 5.14 5.15-5.14 5.14-5.14-5.14z" paint-order="markers"/><circle cx="231.82" cy="194.43" r="22.69" fill="#737373" fill-rule="evenodd" stroke="#000" stroke-width="2" paint-order="markers fill stroke" style="font-variation-settings:normal"/><path fill="#fff" fill-rule="evenodd" d="M231.82 187.94a6.48 6.48 0 0 0-6.49 6.49 6.48 6.48 0 0 0 6.49 6.48 6.48 6.48 0 0 0 6.48-6.48 6.48 6.48 0 0 0-6.48-6.49zm0 1.34 5.14 5.15-5.14 5.14-5.14-5.14z" paint-order="markers"/><circle cx="58.36" cy="194.43" r="22.69" fill="#737373" fill-rule="evenodd" stroke="#000" stroke-width="2" paint-order="markers fill stroke" style="font-variation-settings:normal"/><path fill="#fff" fill-rule="evenodd" d="M58.36 187.94a6.48 6.48 0 0 0-6.48 6.49 6.48 6.48 0 0 0 6.48 6.48 6.48 6.48 0 0 0 6.49-6.48 6.48 6.48 0 0 0-6.49-6.49zm0 1.34 5.15 5.15-5.15 5.14-5.14-5.14z" paint-order="markers"/><circle cx="289.64" cy="194.43" r="22.69" fill="#4d4d4d" fill-rule="evenodd" stroke="#000" stroke-width="2" paint-order="markers fill stroke" style="font-variation-settings:normal"/><path fill="#fff" fill-rule="evenodd" d="M289.64 187.94a6.48 6.48 0 0 0-6.49 6.49 6.48 6.48 0 0 0 6.49 6.48 6.48 6.48 0 0 0 6.48-6.48 6.48 6.48 0 0 0-6.48-6.49zm0 1.34 5.14 5.15-5.14 5.14-5.15-5.14z" paint-order="markers"/><circle cx="116.18" cy="194.43" r="22.69" fill="#3b3b3b" fill-rule="evenodd" stroke="#000" stroke-width="2" paint-order="markers fill stroke" style="font-variation-settings:normal"/><path fill="#fff" fill-rule="evenodd" d="M116.18 187.94a6.48 6.48 0 0 0-6.48 6.49 6.48 6.48 0 0 0 6.48 6.48 6.48 6.48 0 0 0 6.49-6.48 6.48 6.48 0 0 0-6.49-6.49zm0 1.34 5.14 5.15-5.14 5.14-5.14-5.14z" paint-order="markers"/><circle cx="174" cy="194.43" r="22.69" fill="#3b3b3b" fill-rule="evenodd" stroke="#000" stroke-width="2" paint-order="markers fill stroke" style="font-variation-settings:normal"/><path fill="#fff" fill-rule="evenodd" d="M174 187.94a6.48 6.48 0 0 0-6.48 6.49 6.48 6.48 0 0 0 6.48 6.48 6.48 6.48 0 0 0 6.48-6.48 6.48 6.48 0 0 0-6.48-6.49zm0 1.34 5.14 5.15-5.14 5.14-5.14-5.14z" paint-order="markers"/><circle cx="231.82" cy="252.24" r="22.69" fill="#2e2e2e" fill-rule="evenodd" stroke="#000" stroke-width="2" paint-order="markers fill stroke" style="font-variation-settings:normal"/><path fill="#fff" fill-rule="evenodd" d="M231.82 245.76a6.48 6.48 0 0 0-6.49 6.48 6.48 6.48 0 0 0 6.49 6.49 6.48 6.48 0 0 0 6.48-6.49 6.48 6.48 0 0 0-6.48-6.48zm0 1.34 5.14 5.14-5.14 5.15-5.14-5.15z" paint-order="markers"/><circle cx="58.36" cy="252.24" r="22.69" fill="#3b3b3b" fill-rule="evenodd" stroke="#000" stroke-width="2" paint-order="markers fill stroke" style="font-variation-settings:normal"/><path fill="#fff" fill-rule="evenodd" d="M58.36 245.76a6.48 6.48 0 0 0-6.48 6.48 6.48 6.48 0 0 0 6.48 6.49 6.48 6.48 0 0 0 6.49-6.49 6.48 6.48 0 0 0-6.49-6.48zm0 1.34 5.15 5.14-5.15 5.15-5.14-5.15z" paint-order="markers"/><circle cx="289.64" cy="252.24" r="22.69" fill="#6b6b6b" fill-rule="evenodd" stroke="#000" stroke-width="2" paint-order="markers fill stroke" style="font-variation-settings:normal"/><path fill="#fff" fill-rule="evenodd" d="M289.64 245.76a6.48 6.48 0 0 0-6.49 6.48 6.48 6.48 0 0 0 6.49 6.49 6.48 6.48 0 0 0 6.48-6.49 6.48 6.48 0 0 0-6.48-6.48zm0 1.34 5.14 5.14-5.14 5.15-5.15-5.15z" paint-order="markers"/><circle cx="116.18" cy="252.24" r="22.69" fill="#262626" fill-rule="evenodd" stroke="#000" stroke-width="2" paint-order="markers fill stroke" style="font-variation-settings:normal"/><path fill="#fff" fill-rule="evenodd" d="M116.18 245.76a6.48 6.48 0 0 0-6.48 6.48 6.48 6.48 0 0 0 6.48 6.49 6.48 6.48 0 0 0 6.49-6.49 6.48 6.48 0 0 0-6.49-6.48zm0 1.34 5.14 5.14-5.14 5.15-5.14-5.15z" paint-order="markers"/><circle cx="174" cy="252.24" r="22.69" fill="#4d4d4d" fill-rule="evenodd" stroke="#000" stroke-width="2" paint-order="markers fill stroke" style="font-variation-settings:normal"/><path fill="#fff" fill-rule="evenodd" d="M174 245.76a6.48 6.48 0 0 0-6.48 6.48 6.48 6.48 0 0 0 6.48 6.49 6.48 6.48 0 0 0 6.48-6.49 6.48 6.48 0 0 0-6.48-6.48zm0 1.34 5.14 5.14-5.14 5.15-5.14-5.15z" paint-order="markers"/><circle cx="231.82" cy="310.06" r="22.69" fill="gray" fill-rule="evenodd" stroke="#000" stroke-width="2" paint-order="markers fill stroke" style="font-variation-settings:normal"/><path fill="#fff" fill-rule="evenodd" d="M231.82 303.58a6.48 6.48 0 0 0-6.49 6.48 6.48 6.48 0 0 0 6.49 6.49 6.48 6.48 0 0 0 6.48-6.49 6.48 6.48 0 0 0-6.48-6.48zm0 1.34 5.14 5.14-5.14 5.15-5.14-5.15z" paint-order="markers"/><circle cx="58.36" cy="310.06" r="22.69" fill="#4d4d4d" fill-rule="evenodd" stroke="#000" stroke-width="2" paint-order="markers fill stroke" style="font-variation-settings:normal"/><path fill="#fff" fill-rule="evenodd" d="M58.36 303.58a6.48 6.48 0 0 0-6.48 6.48 6.48 6.48 0 0 0 6.48 6.49 6.48 6.48 0 0 0 6.49-6.49 6.48 6.48 0 0 0-6.49-6.48zm0 1.34 5.15 5.14-5.15 5.15-5.14-5.15z" paint-order="markers"/><circle cx="289.64" cy="310.06" r="22.69" fill="#4d4d4d" fill-rule="evenodd" stroke="#000" stroke-width="2" paint-order="markers fill stroke" style="font-variation-settings:normal"/><path fill="#fff" fill-rule="evenodd" d="M289.64 303.58a6.48 6.48 0 0 0-6.49 6.48 6.48 6.48 0 0 0 6.49 6.49 6.48 6.48 0 0 0 6.48-6.49 6.48 6.48 0 0 0-6.48-6.48zm0 1.34 5.14 5.14-5.14 5.15-5.15-5.15z" paint-order="markers"/><circle cx="116.18" cy="310.06" r="22.69" fill="#4d4d4d" fill-rule="evenodd" stroke="#000" stroke-width="2" paint-order="markers fill stroke" style="font-variation-settings:normal"/><path fill="#fff" fill-rule="evenodd" d="M116.18 303.58a6.48 6.48 0 0 0-6.48 6.48 6.48 6.48 0 0 0 6.48 6.49 6.48 6.48 0 0 0 6.49-6.49 6.48 6.48 0 0 0-6.49-6.48zm0 1.34 5.14 5.14-5.14 5.15-5.14-5.15z" paint-order="markers"/><circle cx="174" cy="310.06" r="22.69" fill="#6b6b6b" fill-rule="evenodd" stroke="#000" stroke-width="2" paint-order="markers fill stroke" style="font-variation-settings:normal"/><path fill="#fff" fill-rule="evenodd" d="M174 303.58a6.48 6.48 0 0 0-6.48 6.48 6.48 6.48 0 0 0 6.48 6.49 6.48 6.48 0 0 0 6.48-6.49 6.48 6.48 0 0 0-6.48-6.48zm0 1.34 5.14 5.14-5.14 5.15-5.14-5.15z" paint-order="markers"/></svg>