<svg xmlns="http://www.w3.org/2000/svg" fill="none" viewBox="0 0 348 348"><path stroke="#000" stroke-width="2" d="M5.08 5.78h336.91v337.67H5.08z"/><path stroke="#000" stroke-width="2.76" d="M283.12 46.72c0-11.57 9.62-20.95 21.49-20.95 5.7 0 11.16 2.2 15.2 6.13a20.66 20.66 0 016.3 14.81c0 11.56-9.63 20.94-21.5 20.94-11.88 0-21.5-9.38-21.5-20.95z"/><path stroke="#000" stroke-width="1.69" d="M20 20h90v90H20z"/><path stroke="#000" stroke-width="1.46" d="M80 150h189.93v50H80z"/><path stroke="#000" stroke-width="1.06" d="M70 160l-20 15 20 15zm210 0v30l20-15z"/><path stroke="#000" stroke-width="1.13" d="M230 225h60v60h-60z"/><path stroke="#000" stroke-width="1.06" d="M300 240v30l20-15zm-80 0l-20 15 20 15z"/><path stroke="#000" stroke-width="1.5" d="M210 295h100v30H210z"/></svg>