<svg xmlns="http://www.w3.org/2000/svg" viewBox="0 0 348 348" fill="none"><path d="M5.08 5.78h336.91v337.67H5.08z" stroke-width="2" stroke="#000"/><path d="M282.73 40.55c0-8.37 6.97-15.16 15.56-15.16 4.13 0 8.09 1.6 11 4.44a14.97 14.97 0 014.56 10.72c0 8.38-6.96 15.17-15.56 15.17-8.59 0-15.56-6.8-15.56-15.17z" stroke-width="2" stroke="#000"/><path d="M21.45 27.42h150.07V177.5H21.45z" fill="#fff" stroke="#000" stroke-width="1.85"/><path d="M198.52 36.8a9.02 9.02 0 01-9.02 9.01 9.02 9.02 0 01-9.02-9.02 9.02 9.02 0 019.02-9.01 9.02 9.02 0 019.02 9.01zm0 130.32a9.02 9.02 0 01-9.02 9.02 9.02 9.02 0 01-9.02-9.02 9.02 9.02 0 019.02-9.02 9.02 9.02 0 019.02 9.02zm0-68.39a9.02 9.02 0 01-9.02 9.02 9.02 9.02 0 01-9.02-9.02 9.02 9.02 0 019.02-9.01 9.02 9.02 0 019.02 9.02z" fill="#fff" stroke="#000" stroke-width="1.96"/><path d="M12.52 198.75h320.83v21.8H12.53z" fill="#fff" stroke="#000" stroke-width="2.29"/><path d="M230.59 124.23l-.92-.55c-.07 0-.13.03-.19 0-.08-.04-.1-.15-.18-.18-.06-.03-.13.02-.19 0-.08-.04-.1-.15-.18-.19-.11-.05-.28.09-.37 0-.04-.04.05-.16 0-.18-.07-.04-.89.03-.92 0-.05-.05.04-.14 0-.19-.05-.04-.13 0-.19 0-.06-.06-.13-.1-.18-.18-.07-.1-.19-.5-.37-.55-.12-.04-.26.05-.37 0-.05-.03.05-.15 0-.19-.04-.04-.14.04-.18 0-.05-.04-.06-.18 0-.18s0 .24 0 .18c0-.12.04-.25 0-.37-.06-.16-.3-.21-.37-.37-.06-.11.06-.62 0-.73-.04-.08-.15-.11-.19-.19-.02-.05 0-.47 0-.55v-1.1-1.85c0-.16-.03-.63 0-.74.05-.13.15-.24.19-.37.02-.05 0-.12 0-.18 0-.14-.04-1 0-1.1.04-.14.15-.24.18-.37.03-.12-.05-.26 0-.37.08-.16.3-.21.37-.37.23-.21-.08-.5 0-.74.05-.13.14-.24.19-.37.05-.16-.06-1 0-1.1.03-.08.14-.11.18-.19.03-.05 0-.12 0-.18v-.19-.37c0-.06-.06-.18 0-.18s0 .25 0 .18c0-.12-.04-.25 0-.36.03-.09.15-.11.18-.19.06-.1-.05-.26 0-.37.04-.07.17-.1.19-.18.04-.16 0-.85 0-1.1v-.74c0-.07-.06-.16 0-.19.1-.05.28.09.37 0 .08-.09-.04-.25 0-.37.03-.08.14-.1.18-.18.06-.12-.06-.8 0-.92.04-.08.15-.11.19-.19.05-.1-.03-.25 0-.37.04-.18.13-.36.18-.55.03-.12-.05-.26 0-.37.61-.6-.09.18.18-.37.04-.07.16-.1.19-.18.04-.12 0-.25 0-.37 0-.06-.03-.13 0-.18.14-.29.33-.15.55-.37.05-.05-.03-.13 0-.19.04-.07.15-.1.19-.18.02-.06-.05-.14 0-.19.04-.04.14.05.18 0 .1-.1.1-.25.19-.36.04-.08.14-.11.18-.19.03-.05-.03-.13 0-.18.38-.77-.01.2.37-.19.04-.04-.05-.14 0-.18.45-.45.27.05.55-.37.08-.11.1-.25.19-.37.1-.14.29-.21.36-.37.03-.05-.04-.14 0-.18.05-.05.15.04.19 0 .04-.05-.04-.14 0-.19.04-.04.12.02.18 0 .09-.02.5-.2.56-.36.03-.12-.04-.26 0-.37.02-.09.14-.11.18-.19.03-.05-.03-.13 0-.18.04-.08.15-.1.18-.19.03-.05-.04-.14 0-.18.05-.04.15.04.19 0 .04-.04-.03-.13 0-.18.04-.08.14-.11.18-.19.03-.05-.04-.14 0-.18.05-.05.16.05.19 0 .05-.11 0-.25 0-.37 0-.06-.05-.14 0-.19.04-.04.14.05.18 0 .09-.08-.1-.31 0-.37.11-.05.26.06.37 0 .06-.02-.03-.12 0-.18.08-.16.31-.2.37-.37.04-.11-.06-.26 0-.37.03-.05.14.05.18 0 .05-.04-.02-.13 0-.18.04-.08.48-.5.56-.55.11-.08.25-.11.36-.19.26-.17.2-.28.37-.55-.01-.37.28-.09.37-.19.05-.04-.04-.14 0-.18.05-.04.14.04.19 0 .24-.25-.4-.18.18-.37.12-.04.25.04.37 0 .08-.03.12-.12.18-.18.07-.06.16-.1.19-.19.04-.11-.07-.26 0-.37.07-.11.27-.08.37-.18.04-.04-.03-.13 0-.18.04-.08.14-.11.18-.19.03-.05-.04-.14 0-.18.45-.45.27.05.55-.37.08-.12.11-.26.19-.37.05-.07.14-.1.18-.18.03-.06-.02-.13 0-.19.04-.08.15-.1.19-.18.02-.06-.05-.14 0-.19.04-.04.14.05.18 0 .04-.04-.03-.13 0-.18.04-.08.12-.13.19-.19.12-.12.27-.22.36-.37.04-.05-.02-.12 0-.18.03-.05.5-.53.56-.55.05-.03.13.03.18 0 .16-.08.2-.32.37-.37.12-.04.28.09.37 0 .09-.09-.06-.26 0-.37.03-.05.13.03.18 0 .08-.04.11-.15.19-.18.05-.03.13.02.18 0 .16-.08.22-.3.37-.37.06-.03.13.02.18 0 .14-.05.24-.14.37-.19.06-.02.13.02.19 0 .13-.04.24-.14.37-.18.05-.02.13.03.18 0 .08-.04.12-.12.19-.19.18-.12.35-.27.55-.36.1-.06.26.05.37 0 .07-.04.1-.15.18-.19.06-.03.13.02.19 0 .13-.04.23-.15.36-.18.12-.03.26.04.37 0 .09-.03.1-.15.19-.19.05-.02.12 0 .18 0 .06-.06.11-.13.19-.18.11-.08.23-.14.36-.19.06-.02.15.05.19 0 .1-.1.1-.25.18-.36-.02-.37.27-.1.37-.19.09-.09-.09-.28 0-.37.04-.04.13.03.19 0 .07-.04.1-.13.18-.18.11-.08.27-.09.37-.19.16-.15.23-.37.37-.55-.02-.36.27-.09.37-.18.04-.05-.06-.16 0-.19.1-.05.25.04.36 0 .17-.05.2-.31.37-.37.12-.04.26.04.37 0 .21-.07.26-.44.37-.55.1-.1.24-.14.37-.18.17-.06.38.05.55 0 .08-.03.1-.15.19-.19.05-.03.12 0 .18 0 .12 0 .25.04.37 0 .08-.03.1-.14.18-.18.11-.06.26.05.37 0 .08-.04.1-.17.19-.19.18-.04.37.05.55 0 .08-.02.1-.15.18-.18.62-.2.16.3.93 0 .16-.07.22-.28.36-.37.13-.56.52-.07.74-.18.08-.04.1-.16.19-.19.11-.04.25.04.36 0 .09-.03.11-.14.19-.18.05-.03.13.02.18 0 .08-.04.11-.15.19-.19.05-.02.13.03.18 0 .2-.1.38-.23.55-.37.07-.05.11-.14.19-.18.05-.03.13.02.18 0 .26-.09.48-.28.74-.37.06-.02.13.03.19 0 .07-.04.1-.14.18-.18.05-.03.13.03.18 0 1.23-1.23-.34.17.74-.37.06-.03-.04-.14 0-.19.04-.04.13.03.19 0 .07-.03.1-.15.18-.18.12-.04.25.02.37 0 .19-.04.36-.15.55-.18.18-.03.38.04.55 0 .09-.03.11-.15.19-.19.05-.02 1.03 0 1.1 0 .07 0 .15.04.19 0 .1-.1.09-.27.18-.37.05-.04.13 0 .19 0h3.5c.06 0 .14.05.18 0 .05-.04-.04-.14 0-.18h1.85c.18 0 .37.04.55 0 .13-.04.24-.14.37-.19.12-.03.26.06.37 0 .08-.03.1-.15.18-.18.12-.04.25 0 .37 0 .06 0 .13.03.18 0 .08-.04.11-.15.19-.18.05-.03.13.02.18 0 .08-.04.11-.15.19-.19.1-.05.25.04.37 0 .13-.04.23-.15.37-.18h.55c.42-.43-.05-.37.37-.37.1 0 .85.03.92 0 .08-.04.1-.17.18-.19.24-.06.5 0 .74 0h2.21c.06.11-.1.3 0 .37.16.1.37 0 .55 0 .1 0 .7-.02.74 0 .08.04.1.16.19.19.08.02.65-.04.73 0 .08.04.11.14.19.18.1.05.68-.05.74 0 .04.04-.06.16 0 .19.11.05.62-.06.73 0 .08.03.1.14.19.18.05.03.12-.02.18 0 .19.05.37.14.55.18.12.03.26-.05.37 0 .08.04.1.15.19.19.12.06.63-.07.73 0 .12.07.1.27.19.37.04.04.13-.03.18 0 .08.04.11.14.19.18.05.03.13-.03.18 0 .08.04.1.15.19.19.11.05.8-.06.92 0 .08.03.1.14.18.18.06.03.13-.03.19 0 .07.04.1.15.18.18.06.03.14-.04.18 0 .05.05-.04.15 0 .19.05.04.13-.02.19 0 .13.04.24.14.37.18.06.02.14-.04.18 0 .1.1.09.27.19.37.04.04.13-.03.18 0 .16.08.21.3.37.37.05.03.14-.04.18 0 .05.04-.05.16 0 .18.11.06.26-.03.37 0 .08.03.13.13.19.19.18.18.4.33.55.55.03.05-.04.14 0 .19.04.04.13-.02.18 0 .13.04.24.14.37.18.06.02.13-.03.19 0 .18.1.55.65.73.74.46.22-.16-.54.56.18.1.1.08.27.18.37.04.04.14-.04.19 0 .04.04-.03.13 0 .18.03.08.12.13.18.19s.1.14.18.18c.06.03.15-.05.19 0 .1.17.05.42.18.56.09.08.26-.04.37 0 .08.02.12.12.19.18.1.1.65.7.73.74.06.03.14-.05.19 0 .04.04-.06.15 0 .18.1.06.26-.05.37 0 .05.03-.02.13 0 .19.04.13.1.25.18.37.11.16.47.39.55.55.03.05-.04.14 0 .18.05.05.13-.02.19 0 .08.04.11.14.18.19.12.07.27.08.37.18.1.1.1.26.19.37.04.07.14.1.18.18.03.06-.04.15 0 .19.04.04.13-.03.18 0 .08.04.13.12.19.18s.14.11.18.19c.03.05-.04.14 0 .18.05.05.14-.04.19 0 .04.05-.06.16 0 .19.1.05.28-.1.37 0 .08.08-.04.25 0 .36.03.1.47.44.55.56l.37.73c.04.05.14-.04.18 0 .09.1-.09.29 0 .37.1.1.26.11.37.19.07.05.12.12.18.18.07.06.15.1.19.19.03.05-.02.12 0 .18.44 1.34-.05-.29.37.55.02.06-.03.13 0 .19.04.08.14.1.18.18.03.06-.04.14 0 .19.05.04.14-.05.19 0 .04.04-.06.15 0 .18.1.06.25-.05.36 0 .06.03-.01.13 0 .19.05.13.11.25.19.36.05.08.14.11.18.19.03.05 0 .12 0 .18.06.13.11.26.19.37.05.07.14.1.18.19.09.17.07.4.19.55.08.1.27.09.36.18.39.38-.58-.01.19.37.05.03.16-.05.18 0 .08.15-.07.4 0 .55.08.16.3.22.37.37.03.06-.01.13 0 .19.05.19.14.36.19.55.01.06-.04.13 0 .18.1.15.24.25.37.37.06.06.14.11.18.19.03.05-.02.12 0 .18.04.13.14.24.18.37.02.06-.02.13 0 .19.04.07.15.1.19.18.03.05-.05.14 0 .18.04.05.15-.05.18 0 .3.59-.38.18.19.74.1.1.27.09.37.19.08.08-.06.25 0 .36.03.08.14.11.18.19.05.1-.04.25 0 .37.04.13.14.24.18.37.06.16-.05.38 0 .55.1.26.3.47.37.74.04.13-.05.68 0 .73.05.05.14-.04.19 0 .05.06-.06.63 0 .74.04.08.14.1.18.18.03.06 0 .13 0 .19v1.48c0 .05-.04.13 0 .18.1.1.27.09.37.18v.92c0 .07-.04.14 0 .19.04.04.14-.05.18 0v.55c-1.17.79-.79.43-1.29.92-.06.06-.14.1-.18.19-.03.05.04.14 0 .18-.04.04-.14-.04-.18 0-.05.04.04.14 0 .19-.05.04-.16-.06-.19 0-.05.1.09.28 0 .36-.09.1-.26-.05-.37 0-.05.03.05.15 0 .19-.04.04-.14-.04-.18 0-.09.09.05.26 0 .37-.04.07-.15.1-.19.18-.02.06.05.14 0 .19-.04.04-.14-.05-.18 0-.04.04.04.69 0 .73-.38.38.01-.58-.37.19-.03.05.03.13 0 .18-.04.08-.14.1-.18.19-.03.05.05.15 0 .18-.11.06-.26-.05-.37 0-.06.03.04.14 0 .18-.05.05-.12 0-.19 0 0 .13.04.26 0 .37-.02.09-.14.11-.18.19-.03.05.04.14 0 .18-.04.05-.14-.04-.19 0-.04.05.05.14 0 .19-.04.04-.14-.05-.18 0-.04.04.03.13 0 .18-.04.08-.14.1-.18.19-.03.05.04.14 0 .18-.05.04-.14-.03-.19 0-.13.09-.58.66-.74.74-.05.02-.12-.03-.18 0-.08.04-.12.12-.18.18-.07.06-.15.1-.19.19-.03.05.05.14 0 .18-.38.38.02-.58-.37.18-.02.06.06.16 0 .19-.1.05-.28-.09-.37 0-.08.09.04.25 0 .37-.05.16-.29.21-.36.37-.06.1.08.28 0 .36-.05.05-.13-.02-.19 0-.77.39.2 0-.18.37-.05.05-.16-.05-.19 0-.24.5.26.26-.18.56-.12.07-.24.14-.37.18-.06.02-.14-.04-.18 0-.05.04 0 .12 0 .18v2.4c0 .06-.06.16 0 .19.1.05.24 0 .36 0 .07 0 .15-.05.19 0 .04.04-.03.12 0 .18.04.08.14.1.18.18.03.06-.04.14 0 .19.05.04.13-.03.19 0 .07.04.1.14.18.18.06.03.14-.04.19 0 .04.05 0 .13 0 .19.06.12.07.29.18.37.1.06.25-.04.37 0 .14.04.57.65.74.73.05.03.14-.04.18 0 .04.05-.04.14 0 .19.09.08.28-.09.37 0 .04.04-.06.15 0 .18.07.04 1 0 1.1 0H304.87c.06 0 .14.04.18 0 .05-.04-.05-.16 0-.18.11-.06.26.05.37 0 .06-.03-.04-.14 0-.19.05-.04.13.03.19 0 .76-.38-.2.02.18-.37.04-.04.14.05.18 0 .05-.04-.01-.12 0-.18.05-.13.15-.24.19-.37.05-.16-.06-.8 0-.92.23-.46.18.06.18-.37v-.55c0-.06-.04-.14 0-.19.05-.04.14.05.19 0 .08-.08-.09-.28 0-.37.1-.1.27-.08.37-.18.04-.04-.05-.14 0-.18.04-.05.15.05.18 0 .07-.15-.07-.4 0-.56.04-.07.15-.1.18-.18.06-.11-.08-.28 0-.37.05-.04.15.04.19 0 .06-.06-.05-.6 0-.74.04-.12.48-.4.55-.55.06-.11-.08-.28 0-.37.1-.1.27-.09.37-.18.1-.1.1-.26.19-.37.05-.08.47-.52.55-.55.05-.03.14.04.18 0 .05-.05-.04-.15 0-.19.05-.04.19-.06.19 0s-.25 0-.19 0h.56c.06 0 .12-.03.18 0 .03.02.55.53.55.55.04.12-.04.26 0 .37.03.09.13.13.19.19s.1.14.18.18c.06.03.14-.04.19 0 .04.04-.05.14 0 .19.1.1.27.08.36.18.05.04-.04.14 0 .18.05.05.13 0 .19 0s.14.05.18 0c.05-.04-.04-.14 0-.18.05-.04.13.03.19 0 .07-.04.1-.15.18-.18.06-.03.13.02.19 0 .07-.04.1-.16.18-.19.12-.04.26.06.37 0 .15-.08.22-.27.37-.37.1-.07.26.06.37 0 .07-.04.1-.15.18-.18.12-.04.25 0 .37 0 .06 0 .13.03.18 0 .22-.11.34-.44.56-.55.05-.03.14.04.18 0 .04-.05-.04-.15 0-.19.04-.04.14.04.19 0 .04-.04-.06-.16 0-.18.16-.09.38.08.55 0 .08-.04.1-.15.18-.19.07-.03.95 0 1.1 0h.2c.05 0 .13.05.18 0 .1-.1.08-.27.18-.37.06-.06.6.05.74 0 .08-.02.1-.14.18-.18.15-.07.4.07.56 0 .07-.04.1-.15.18-.18.25-.13.16.22.37-.19.03-.05-.04-.14 0-.18.1-.1.25-.11.37-.19.07-.05.1-.14.18-.18.06-.03.16.05.19 0 .05-.11-.06-.26 0-.37.02-.06.14.04.18 0 .04-.04-.03-.13 0-.19l.55-.55c.12-.04.26.06.37 0 .06-.03-.03-.13 0-.18.04-.08.16-.1.19-.19.04-.11-.04-.25 0-.37.02-.08.14-.1.18-.18.03-.05-.03-.13 0-.18.04-.08.15-.11.18-.19.06-.1-.08-.28 0-.37.05-.04.13.03.19 0 .27-.13.18-.29.18-.55 0-.06.03-.13 0-.18-.04-.08-.12-.13-.18-.19s-.1-.14-.19-.18c-.05-.03-.12.02-.18 0-.08-.04-.1-.16-.18-.19-.12-.04-.26.06-.37 0-.06-.02.04-.14 0-.18-.05-.05-.13.03-.19 0-.07-.04-.12-.12-.18-.19-.06-.06-.16-.1-.19-.18-.03-.12.06-.26 0-.37-.02-.05-.12.03-.18 0-.08-.04-.12-.12-.18-.18l-.19-.19c0-.06.05-.14 0-.18-.1-.1-.27-.09-.37-.19-.04-.04.05-.14 0-.18a2.28 2.28 0 00-.55 0c-.16.08-.21.29-.37.37-.05.03-.14-.05-.18 0-.05.04.04.14 0 .18-.05.05-.13-.02-.19 0-.63.21-.13.19-.55.19-.06 0-.16-.06-.18 0-.06.1.05.26 0 .37-.2 0-.26-.05-.37.18-.03.05.04.14 0 .18-.05.05-.13-.02-.19 0-.08.04-.1.14-.18.19-.12.07-.26.1-.37.18-.07.05-.12.25-.18.19-.07-.06.27-.19.18-.19-.14 0-.24.14-.37.19-.06.02-.12 0-.18 0s-.14.04-.19 0c-.04-.05.05-.14 0-.19-.08-.08-.28.09-.37 0-.04-.04.06-.15 0-.18-.1-.06-.24 0-.36 0-.07 0-.15.04-.19 0-.04-.05.04-.14 0-.19-.04-.04-.12 0-.18 0-.07-.06-.14-.1-.19-.18a1.56 1.56 0 01-.18-.37c-.02-.06.04-.14 0-.18-.05-.05-.13.02-.19 0-.07-.04-.1-.16-.18-.19-.12-.04-.26.06-.37 0-.05-.03.04-.14 0-.18-.04-.05-.13.03-.18 0-.16-.08-.22-.3-.37-.37-.06-.03-.13.03-.19 0-.07-.04-.1-.15-.18-.18-.06-.03-.16.05-.19 0-.05-.11.06-.26 0-.37 0-.02-.69.04-.73 0-.05-.05.04-.14 0-.19-.05-.04-.14.05-.19 0-.04-.04.05-.14 0-.18-.03-.04-.48.03-.55 0-.08-.04-.1-.16-.18-.19-.12-.04-.25 0-.37 0-.13-.06-.24-.14-.37-.18-.12-.04-.26.05-.37 0-.08-.04-.1-.16-.18-.19-.11-.03-.9 0-1.11 0-.13 0-.68-.02-.74 0-.08.04-.1.15-.18.19-.06.03-.13-.03-.19 0-.07.04-.1.14-.18.18-.06.03-.13-.02-.19 0-.07.04-.1.16-.18.19-.13.04-.68-.06-.74 0-.04.04.05.14 0 .18-.24.25-.17-.39-.37.19-.03.11 0 .24 0 .37 0 .06.03.12 0 .18-.07.15-.29.21-.36.37-.03.05.04.14 0 .18-.14.14-.82.34-.93.37" stroke="#000"/><path d="M296.94 116.3l.74.38c.06.06.1.14.18.18.06.03.15-.04.19 0 .04.04-.06.16 0 .18.1.06.25-.03.37 0 .08.03.1.15.18.19.06.03.14-.04.19 0 .1.1.08.27.18.37.04.04.14-.05.18 0 .1.08-.08.28 0 .37.05.04.15-.05.19 0 .04.04-.04.14 0 .18.04.04.13-.02.18 0 .13.04.27.09.37.18.05.05-.04.15 0 .19.09.09.26-.06.37 0 .08.04.1.14.18.18.26.13.5-.43.56-.37.06.07-.19.28-.19.19 0-.14.07-.3.19-.37.4-.26.32.27.55-.18.03-.06-.02-.13 0-.19.04-.13.14-.24.19-.37.03-.1 0-.43 0-.55v-1.1-.93c0-.12.05-.26 0-.37-.03-.05-.13.02-.19 0-.13-.04-.25-.1-.37-.18-.07-.05-.1-.15-.18-.18-.06-.03-.14.04-.19 0-.04-.05.05-.15 0-.19-.04-.04-.14.04-.18 0-.04-.04.04-.14 0-.18-.04-.05-.13.02-.19 0-.15-.08-.2-.32-.36-.37-.12-.04-.29.08-.37 0-.09-.09 0-.25 0-.37M311.5 115.94c.23.27-.78.83-.92 1.1-.02.06.03.13 0 .19-.04.08-.14.1-.18.18-.03.06.04.14 0 .19-.05.04-.14-.05-.19 0-.04.04.03.13 0 .18-.09.18-.64.56-.73.74-.03.05.04.14 0 .18-.05.05-.14-.04-.19 0-.08.09.06.26 0 .37-.08.16-.31.2-.37.37 0 .84.1.01-.18.55-.03.06 0 .13 0 .19v6.08c-.04.04-.14-.04-.18 0-.07.07.05.62 0 .74-.03.05-.15-.05-.19 0v.18c0 .06.04.14 0 .19-.1.1-.27.08-.37.18-.04.04.05.14 0 .19-.04.04-.14-.05-.18 0-.05.04.04.14 0 .18-.05.04-.14-.04-.19 0-.04.04 0 .12 0 .18 0 .13.06.26 0 .37-.02.06-.14-.04-.18 0-.04.05.03.13 0 .19-.08.15-.3.21-.37.37-.03.05.04.14 0 .18-.04.04-.13-.02-.18 0-.13.04-.28.09-.37.18-.05.05.03.13 0 .19-.42.84.07-.78-.37.55-.04.12 0 .76 0 .92 0 .1-.03.87 0 .92.2.4.2.01.55.19.06.03-.03.13 0 .18.04.08.12.13.19.19.11.12.56.62.73.73.12.08.26.11.37.19.07.05.1.14.19.18.05.03.13-.02.18 0 .77.39-.2 0 .19.37.04.05.12-.03.18 0 .08.04.1.15.18.19.06.02.16-.06.19 0 .05.1-.07.26 0 .37.07.1.25.1.37.18.07.05.1.14.18.18.06.03.13-.02.19 0 .15.08.2.3.36.37.18.09.37.14.56.19.06.01.14-.05.18 0 .1.1.09.27.19.37.04.04.12-.03.18 0 .08.03.1.14.18.18.06.03.83 0 .93 0 .06 0 .14.04.18 0 .1-.1.09-.27.18-.37.1-.09.26.06.37 0 .08-.04.12-.14.19-.18.67-.45.13.05.55-.37l.18-.19c.07-.06.11-.14.19-.18.1-.06.26.05.37 0 .08-.04.12-.12.18-.18.12-.13.27-.23.37-.37.03-.05-.04-.14 0-.19.04-.04.13.03.19 0 .07-.04.12-.12.18-.18s.14-.1.18-.19c.03-.05-.02-.13 0-.18.39-.77 0 .2.37-.19.05-.04-.02-.12 0-.18.05-.13.11-.25.19-.37.12-.18.36-.3.55-.37.06-.02.14.05.18 0 .1-.08-.05-.26 0-.37.04-.07.15-.1.19-.18.03-.05 0-.12 0-.18v-.19-1.29-2.03c0-.1.02-.69 0-.73-.04-.08-.15-.11-.19-.19-.05-.1.11-.31 0-.37-.1-.05-.28.09-.36 0-.19-.18.09-.37 0-.55-.08-.15-.3-.21-.37-.37-.03-.05.02-.13 0-.18-.08-.16-.32-.2-.37-.37v-.55c-.05-.05-.14.04-.19 0-.04-.05.03-.13 0-.19-.04-.08-.15-.1-.18-.18-.04-.12.05-.26 0-.37-.03-.06-.16.05-.18 0-.09-.17 0-.37 0-.55 0-.05.03-.54 0-.56-.11-.05-.26.06-.37 0-.06-.02 0-.12 0-.18 0-.19.05-.38 0-.55-.03-.09-.15-.11-.19-.19-.03-.05 0-.47 0-.55v-1.1-1.48-.19c0-.06-.04-.14 0-.18.1-.1.26-.1.37-.19.07-.04.1-.14.19-.18.05-.03.14.04.18 0 .04-.04-.04-.14 0-.18.04-.05.18-.07.18 0 0 .06-.24 0-.18 0 .12 0 .27.06.37 0 .11-.08.1-.26.18-.37-.02-.37.27-.09.37-.19.04-.04-.05-.15 0-.18.11-.06.25.04.37 0 .16-.06.21-.3.37-.37.05-.03.14.04.18 0 .05-.04-.04-.14 0-.18.05-.05.13.02.19 0 .07-.04.1-.15.18-.19.37-.18 0 .37.55 0 .12-.07.1-.27.19-.37.04-.04.14.05.18 0 .05-.04-.04-.14 0-.18.03-.02.3.02.37 0 .19-.05.37-.14.55-.19.12-.03.26.06.37 0 .46-.22-.06-.18.37-.18h.19c-.13 0-.46.09-.37 0 .66-.67.36.1.92-.18.05-.03-.04-.15 0-.19.04-.04.13.03.18 0 .24-.12.32-.44.56-.55.1-.06.25.04.36 0 .17-.06.22-.3.37-.37.06-.03.13.03.19 0 .08-.04.12-.25.18-.18.06.06-.24.24-.18.18l.37-.37c.06-.06.1-.14.18-.18.06-.03.16.05.19 0 .05-.11-.07-.27 0-.37.07-.12.27-.09.36-.19.1-.08-.08-.28 0-.36.05-.05.14.04.19 0 .09-.1-.1-.47 0-.56.04-.04.15.06.18 0 .06-.11-.06-.62 0-.74.23-.45.19.07.19-.36 0-.07-.06-.19 0-.19s0 .25 0 .19c0-1.05.12-.07-.19-.37-.04-.05.05-.14 0-.19-.04-.04-.15.06-.18 0-.06-.1.09-.28 0-.37-.09-.08-.26.06-.37 0-.06-.02-.06-.18 0-.18s.06.18 0 .18c-.09 0-.1-.14-.18-.18-.11-.05-.29.09-.37 0-.05-.04-.06-.18 0-.18s.04.22 0 .18c-.1-.1-.14-.24-.19-.37-.03-.1 0-.82 0-.92" stroke="#000"/><path d="M307.26 128.66c.83.2.56 0 .93.37.12.12.22.27.37.36.16.1.37.1.55.19.15.08.21.29.37.37.05.02.12-.02.18 0 1.34.44-.29-.06.55.37.08.03.52-.04.56 0 .1.1.07.28.18.36.27.2.47.19.74.19.06 0 .13-.03.18 0 .08.04.1.14.19.18.05.03.18-.06.18 0s-.23.05-.18 0c.1-.1.27-.08.37-.18.04-.04-.04-.13 0-.19.1-.14.27-.22.36-.36v-.56c-.03-.07-.14-.1-.18-.18-.03-.06 0-.12 0-.19 0-.04.03-1 0-1.1-.04-.13-.14-.24-.18-.37-.05-.13.05-.44 0-.55a5.9 5.9 0 00-.56-.56c-.05-.02-.14.05-.18 0-.04-.04.04-.14 0-.18-.04-.04-.12 0-.19 0-.12-.12-.27-.22-.36-.37-.04-.05.04-.14 0-.18-.1-.1-.26.05-.37 0-.08-.04-.11-.15-.19-.19-.05-.03-.14.05-.18 0-.05-.04.04-.14 0-.18-.05-.05-.12 0-.19 0h-.73c-.06 0-.14.04-.19 0-.04-.05.05-.14 0-.19-.04-.04-.13.03-.18 0-.13-.06-.3-.42-.37-.18-.18.54-.25 1.1-.37 1.66M323.49 117.41c-.25.06-.54.04-.74.19-.1.07.05.26 0 .37-.03.05-.13-.03-.19 0-.07.03-.1.13-.18.18-.12.08-.27.09-.37.18-.04.05.04.15 0 .19-.04.04-.14-.04-.18 0-.05.04.02.13 0 .18-.08.16-.3.22-.37.37-.03.06 0 .12 0 .19-.06.12-.11.25-.19.36-.04.08-.14.11-.18.19-.03.05.04.14 0 .18-.04.05-.14-.04-.19 0-.04.05 0 .13 0 .19v1.1c0 .07-.02.13 0 .19.04.08.15.1.19.18.03.06-.03.13 0 .19.04.07.14.1.18.18.03.06-.04.14 0 .19.05.04.16-.06.19 0 .05.1-.06.25 0 .36.03.06.14-.04.18 0 .09.1-.05.26 0 .37.21.43.22-.08.55.37.12.16.1.38.19.55.61.62-.09-.17.18.37.04.08.15.11.19.19.03.05-.05.14 0 .18.04.05.13-.03.18 0 .08.04.1.16.19.19.11.03.26-.06.37 0 .05.02-.02.12 0 .18.44 1.34-.06-.29.36.55.05.1-.04 1.18 0 1.3.02.05.14-.05.19 0 .24.24-.3.18.18.18M323.49 136.4H321.46c-.06 0-.14.04-.19 0-.04-.05.05-.14 0-.19-.08-.08-.26.06-.37 0-.07-.03-.24-.12-.18-.18s.27.18.18.18c-.33 0-.34-.22-.55-.36-.11-.08-.27-.1-.37-.19-.1-.1-.1-.25-.18-.37-.05-.07-.15-.1-.19-.18-.02-.06.05-.14 0-.19-.04-.04-.14.05-.18 0-.04-.04.04-.14 0-.18-.04-.04-.18-.06-.18 0 0 .09.18.27.18.18 0-.13-.14-.23-.18-.36-.02-.06.02-.13 0-.19-.04-.08-.16-.1-.19-.18 0-.84.09-.01-.18-.56-.03-.05.04-.14 0-.18-.1-.1-.27-.09-.37-.19-.05-.04.03-.12 0-.18-.04-.08-.15-.1-.19-.18-.02-.06 0-.13 0-.19v-.18-.74-1.1-.19c0-.06.03-.13 0-.18-.03-.08-.14-.11-.18-.19-.06-.1.05-.26 0-.37-.04-.07-.16-.1-.18-.18-.04-.12 0-.25 0-.37 0-.06.02-.13 0-.18-.04-.08-.15-.11-.19-.19-.05-.1.06-.26 0-.37-.08-.15-.33-.2-.37-.37-.04-.18.11-.4 0-.55-.11-.15-.4-.06-.55-.18-.17-.14-.24-.38-.37-.56.02-.36-.27-.08-.37-.18-.04-.04 0-.12 0-.19v-.18" stroke="#000"/><path d="M319.06 134.19h1.48c0-.06-.03-.13 0-.19.03-.08.15-.1.18-.18.04-.12-.09-.28 0-.37.09-.09.25.04.37 0 .16-.06.21-.3.37-.37.05-.03.13.03.18 0 .08-.04.1-.14.19-.18.05-.03.14.04.18 0 .04-.05 0-.13 0-.19.06-.06.11-.13.18-.18.12-.08.28-.09.37-.19.05-.04-.02-.12 0-.18.05-.13.11-.26.19-.37.1-.14.29-.21.37-.37.02-.05-.06-.18 0-.18s0 .24 0 .18c0-1.04.12-.06-.19-.37-.04-.04.05-.14 0-.18-.04-.04-.12 0-.18 0h-.37c-.06 0-.14.04-.19 0-.04-.04.05-.14 0-.19h-2.02c-.06 0-.14-.04-.19 0-.24.25.4.18-.18.37-.12.04-.25-.04-.37 0-.08.03-.1.15-.18.19-.11.05-.26-.06-.37 0-.08.04-.1.14-.19.18-.05.03-.14-.04-.18 0-.05.05.04.14 0 .19-.3.3-.19-.68-.19.36M234.27 108.38c.43 0 .39-.74.74-.92.25-.13.17.22.37-.18.03-.06-.04-.15 0-.19.09-.09.25.04.37 0 .13-.04.24-.14.37-.18.05-.02.13.02.18 0 .08-.04.1-.15.19-.19.05-.03.12.03.18 0 .08-.04.1-.14.18-.18.06-.03.13.03.19 0 .08-.04.1-.16.18-.19.1-.03.92 0 1.1 0 .07 0 .15.05.2 0 .09-.1.08-.27.18-.36.04-.05.12 0 .18 0h1.66c.12 0 .25-.04.37 0 .08.02.1.14.18.18.06.03 1.1 0 1.3 0h1.47c.04 0 .7.02.74 0 .07-.04.1-.15.18-.18.1-.06.94.04 1.1 0 .14-.04.24-.15.37-.19.06-.02.13.02.19 0 .19-.05.36-.14.55-.18.06-.02.12 0 .19 0 .44 0 .7.08 1.1-.19.26-.17.2-.28.37-.55.1-.15.25-.25.37-.37s.22-.27.37-.37c.11-.07.27-.09.37-.18.04-.05-.05-.14 0-.19.08-.08.31.11.37 0 .16-.14-.09-.38 0-.55.38-.77-.02.2.36-.18.05-.05-.02-.13 0-.19.04-.08.15-.1.19-.18.03-.06-.03-.13 0-.19.28-.56.1.3.55-.37.07-.1-.05-.25 0-.36.03-.06.14.04.19 0 .04-.05-.05-.15 0-.19.08-.09.28.09.36 0 .13-.12-.12-.24 0-.37.39-.38-.01.59.37-.18.03-.06-.04-.14 0-.19.05-.04.13.03.19 0 .07-.03.1-.15.18-.18.12-.04.28.09.37 0 .09-.09-.04-.25 0-.37.03-.08.15-.1.18-.18.06-.11-.05-.26 0-.37.04-.08.15-.1.19-.19.03-.05-.04-.14 0-.18.04-.04.14.04.18 0 .05-.04-.02-.13 0-.18.05-.14.14-.24.19-.37.02-.06-.05-.14 0-.19.04-.04.14.05.18 0 .04-.04-.04-.14 0-.18.04-.05.14.04.19 0 .08-.09-.11-.32 0-.37.1-.06.25.05.36 0 .06-.03-.02-.13 0-.18.04-.08.16-.1.19-.19.04-.12 0-.25 0-.37 0-.06-.03-.13 0-.18.04-.08.14-.1.18-.19.03-.05-.04-.14 0-.18.05-.04.14.04.19 0 .38-.38-.59.01.18-.37.06-.03.14.04.19 0 .04-.04-.03-.13 0-.18.03-.08.15-.1.18-.19.04-.11-.09-.28 0-.37.09-.08.26.06.37 0 .1-.05-.06-.26 0-.37.04-.07.14-.1.18-.18.03-.05-.04-.14 0-.18.05-.05.14.04.19 0 .08-.1-.09-.29 0-.37.04-.05.12 0 .18 0 0-.13-.05-.26 0-.37.03-.06.13.03.19 0 .36-.19 0-.43.36-.55.12-.04.26.05.37 0 .06-.03-.02-.13 0-.19.04-.08.13-.12.19-.18s.1-.15.18-.19c.06-.02.16.06.19 0 .05-.1-.06-.26 0-.37.05-.1.26.06.37 0 .07-.03.1-.14.18-.18.05-.03.12 0 .18 0 .13-.06.26-.1.37-.18.07-.05.1-.15.19-.19.1-.05.28.09.37 0 .04-.04-.05-.14 0-.18.04-.05.12.02.18 0 .08-.04.1-.15.18-.19.06-.03.13.02.19 0 .13-.04.24-.14.37-.18.06-.02.14.04.18 0 .04-.05-.04-.14 0-.19.04-.04.16.06.19 0 0-1.04-.13-.06.18-.36.04-.05-.04-.15 0-.19.04-.04.13.03.18 0 .16-.08.23-.27.37-.37.1-.4.38-.1.56-.18.07-.04.1-.15.18-.19.06-.02.14.05.18 0 .05-.04-.04-.14 0-.18.05-.04.15.04.19 0 .1-.1.09-.27.18-.37.05-.04.14.04.19 0 .04-.04-.05-.14 0-.18.1-.1.24-.14.37-.19.11-.04.28.09.36 0 .05-.04 0-.12 0-.18" stroke="#000"/><path d="M249.39 98.06c1.04 2.02-.42.46-.56.74-.05.1 0 .24 0 .37 0 .06.05.14 0 .18-.04.04-.14-.04-.18 0-.04.04.02.13 0 .18-.04.13-.14.24-.18.37-.02.06 0 .13 0 .19-.07.06-.15.1-.19.18-.03.06.05.14 0 .19-.22.22-.41.08-.55.36-.03.06.02.13 0 .19-.04.13-.1.25-.19.37a4.5 4.5 0 01-.55.55c-.05.03-.12-.02-.18 0-.13.04-.24.14-.37.18-.06.02-.13-.02-.19 0-.15.08-.2.3-.36.37-.06.03-.13 0-.19 0-.06.06-.1.15-.18.19-.19.09-.37-.19-.56 0-.08.08.06.26 0 .37-.02.05-.13-.03-.18 0-.61.6.17-.1-.37.18-.08.04-.1.15-.18.18-.11.06-.26-.05-.37 0-.08.04-.12.13-.19.19-.12 0-.25-.04-.36 0-.17.05-.22.29-.37.37-.06.03-.13 0-.19 0h-.18M299.7 112.99c-.42.37-.82.78-1.28 1.1-.05.04.04-.14 0-.18-.05-.04-.13 0-.19 0-.1 0-.87.03-.92 0-.08-.04-.1-.14-.18-.18-.05-.03-1.03 0-1.1 0-.07 0-.15.04-.2 0-.04-.05.05-.14 0-.19a2.28 2.28 0 00-.55 0c-.07.04-.1.16-.18.19-.17.05-.98-.06-1.1 0-.08.04-.1.15-.2.18h-.54c-.1.1-.1.27-.19.37-.04.04-.12 0-.18 0h-1.1c-.07 0-.15-.04-.2 0-.04.04.05.14 0 .18-.04.05-.12-.02-.18 0-.07.04-.1.15-.18.19-.06.03-.14-.05-.19 0-.04.04.05.14 0 .18h-.55c-.08.03-.1.15-.18.19-.11.05-.28-.09-.37 0-.04.04.03.13 0 .18-.04.08-.15.1-.19.19-.02.05.05.14 0 .18-.04.04-.15-.05-.18 0-.06.11.05.26 0 .37-.03.05-.14-.04-.18 0-.05.04 0 .12 0 .18-.13 0-.26-.05-.37 0-.06.03.02.13 0 .19-.04.07-.13.12-.19.18s-.1.15-.18.19c-.06.02-.13-.03-.19 0-.07.03-.1.14-.18.18-.06.03-.14-.04-.18 0-.05.04.01.13 0 .18-.05.13-.1.28-.19.37-.1.1-.24.14-.37.19-.06.02-.14-.05-.18 0-.05.04.04.14 0 .18-.05.05-.14-.04-.19 0-.04.05.05.14 0 .19-.04.04-.13-.03-.18 0-.08.04-.12.12-.18.18l-.19.18c-.06.07-.1.15-.18.19-.06.03-.16-.06-.19 0-.05.1.09.28 0 .37-.08.08-.25-.04-.37 0-.08.03-.1.14-.18.18-.06.03-.14-.04-.19 0-.04.05.05.14 0 .19-.04.04-.12-.03-.18 0-.08.04-.1.14-.18.18-.06.03-.14-.04-.19 0-.04.04.05.14 0 .19-.04.04-.14-.05-.18 0-.05.04.04.14 0 .18-.1.1-.3.07-.37.18-.07.1.04.26 0 .37-.03.08-.15.1-.19.19-.02.05.05.14 0 .18-.04.04-.14-.04-.18 0-.04.04.04.48 0 .55-.04.08-.15.11-.18.19-.03.05.02.12 0 .18-.05.13-.14.24-.19.37-.02.06.05.14 0 .19-.04.04-.16-.06-.18 0-.06.1 0 .24 0 .36 0 .07.04.15 0 .19-.05.04-.14-.04-.19 0-.09.1.1.46 0 .55-.08.09-.26-.05-.37 0-.05.03 0 .12 0 .19v.18c0 .08.03.5 0 .55-.03.08-.15.1-.18.19-.03.1 0 .92 0 1.1 0 .21.05.55 0 .74-.03.13-.14.24-.18.37-.06.15.05.82 0 .92-.04.08-.15.1-.19.19-.07.14.08.4 0 .55-.04.08-.16.1-.18.18-.08.25.06.66 0 .92-.05.2-.15.37-.19.56-.02.12.07.26 0 .37-.07.11-.27.08-.37.18-.04.04 0 .12 0 .18 0 .19.05.38 0 .56-.02.08-.15.1-.18.18-.04.12 0 .25 0 .37 0 .18.03.37 0 .55-.03.2-.14.37-.18.56-.02.06.02.13 0 .18-.04.08-.15.1-.19.18-.03.06 0 .13 0 .19v.18c0 .19.06.38 0 .56-.03.08-.14.1-.18.18-.02.03.01.55 0 .55-.06 0 0-.24 0-.18v.37c0 .06-.03.13 0 .18.04.08.13.11.18.19.15.23.23.5.37.73.11.2.24.38.37.56.05.07.14.1.18.18.03.06-.02.13 0 .19.2.38.3-.02.56.36.17.27.11.39.36.56.1.4.38.1.56.18.07.04.12.12.18.19.06.06.15.1.19.18.02.06-.05.14 0 .18.02.03.29-.01.36 0 .2.05.37.14.56.19.15.04.73 0 .92 0h8.11c.06 0 .13.03.18 0 .08-.04.11-.15.19-.19.1-.05.26.06.37 0 .07-.03.1-.14.18-.18.06-.03.13.03.19 0 .07-.04.1-.16.18-.18.12-.04.26.05.37 0 .05-.03-.05-.15 0-.19.04-.04.14.04.18 0 .05-.04-.04-.14 0-.18.09-.09.32.1.37 0 0-1.05-.12-.06.19-.37.04-.04-.05-.14 0-.19.04-.04.12.03.18 0 .08-.03.1-.15.18-.18.12-.04.26.05.37 0 .06-.03-.04-.14 0-.18.05-.05.14.04.19 0 .04-.05-.05-.15 0-.19.04-.04.14.04.18 0 .04-.04-.04-.14 0-.18.04-.05.14.04.19 0v-.56c.02-.08.14-.1.18-.18.03-.06-.04-.14 0-.18.04-.05.14.04.18 0 .05-.05 0-.13 0-.19 0-.15-.03-.84 0-.92.03-.06.15.04.19 0 .04-.04 0-.12 0-.18v-.19-2.21-.37c0-.06-.04-.14 0-.18.1-.1.27-.1.37-.19.04-.04 0-.12 0-.18v-1.1-.2c0-.05-.06-.18 0-.18s0 .25 0 .19c0-.84-.09-.01.18-.56.06-.11-.06-.62 0-.73.04-.08.15-.11.19-.19.03-.07-.04-.51 0-.55.04-.04.14.04.18 0 .09-.09-.04-.25 0-.37.04-.13.14-.24.18-.37.02-.06-.02-.13 0-.18.04-.08.15-.1.19-.19.03-.05-.04-.14 0-.18.04-.04.13.02.18 0 .13-.04.27-.09.37-.19.05-.04-.04-.14 0-.18.05-.04.13.03.19 0 .07-.04.1-.14.18-.18.06-.03.14.04.18 0 .1-.1.1-.28.19-.37.04-.05.13.03.18 0 .08-.04.11-.15.19-.19.05-.02.12 0 .18 0h1.85c.11 0 1.07-.02 1.1 0 1.07.72.14.1.37.56.04.07.15.1.18.18.03.06-.02.13 0 .18.04.08.15.11.19.19.05.1-.04.25 0 .37.04.13.14.24.18.37.04.11-.05.26 0 .37.04.07.15.1.19.18.07.15-.08.4 0 .55.04.08.15.1.18.19.04.1 0 .74 0 .92 0 .06-.04.14 0 .18.05.05.14-.04.19 0 .04.05 0 .13 0 .19v4.42c0 .13.02.68 0 .74-.04.08-.15.1-.19.18-.05.11.09.28 0 .37-.04.04-.14-.04-.18 0-.09.09.08.28 0 .37-.05.04-.16-.06-.19 0-.05.11.04.25 0 .37-.02.08-.14.1-.18.18-.03.06.03.13 0 .19-.04.07-.15.1-.19.18-.02.06.06.16 0 .19-.1.05-.25-.04-.36 0-.17.05-.22.29-.37.36-.06.03-.14-.04-.19 0-.22.23-.08.42-.37.56-.05.02-.14-.05-.18 0-.04.04.05.15 0 .18-.12.06-.67-.06-.74 0-.04.04.05.14 0 .19-.08.08-.28-.1-.37 0-.04.04.05.14 0 .18-.04.04-.13-.03-.18 0-.08.04-.1.16-.18.18-.12.04-.26-.05-.37 0-.06.03.04.15 0 .19-.05.04-.14-.04-.19 0-.1.1-.14.24-.18.37-.02.06.04.14 0 .18-.05.05-.13-.03-.19 0-.07.04-.1.15-.18.19-.06.02-.14-.05-.19 0-.04.04.05.14 0 .18-.04.04-.12-.03-.18 0-.08.04-.11.14-.18.18-.12.08-.24.15-.37.19-.06.02-.14-.04-.19 0-.04.04.05.14 0 .18-.04.05-.12 0-.18 0-.06.06-.14.12-.19.19-.1.17-.15.45-.36.55-.06.03-.14-.04-.19 0-.04.04.06.16 0 .19-.1.05-.25-.04-.37 0-.57.19.06.12-.18.36-.04.05-.13-.02-.19 0-.15.08-.2.3-.36.37-.06.03-.15-.04-.19 0-.1.1-.07.3-.18.37-.1.07-.26-.05-.37 0-.06.03.04.14 0 .19-.05.04-.13-.03-.19 0-.07.03-.1.14-.18.18-.06.03-.13-.03-.18 0-.16.08-.22.3-.37.37s-.4-.08-.56 0c-.05.03.05.14 0 .18-.04.05-.13-.02-.18 0-.28.14-.14.33-.37.56-.04.03-.48-.04-.55 0-.08.03-.1.15-.19.18-.14.05-1-.05-1.1 0-.08.04-.1.15-.19.18-.05.03-.14-.04-.18 0-.04.05.05.16 0 .19-.15.07-.4-.08-.55 0-.08.04-.11.14-.19.18-.05.03-.13-.02-.18 0-.08.04-.1.15-.19.19-.11.06-.8-.06-.92 0-.08.04-.1.14-.18.18-.06.03-.14-.04-.19 0-.1.1-.08.27-.18.37-.09.09-.25-.04-.37 0-.13.04-.24.14-.37.18-.12.04-.26-.05-.37 0-.08.04-.1.15-.18.19-.06.03-.13-.03-.19 0-.07.04-.1.14-.18.18-.11.06-.25-.04-.37 0-1.33.45.3-.05-.55.37-.06.03-.13-.03-.19 0-.07.04-.1.15-.18.19-.1.05-.43-.05-.55 0-.13.04-.24.14-.37.18-.06.02-.14-.04-.19 0-.1.1-.08.27-.18.37-.04.04-.13-.03-.19 0-.07.04-.1.14-.18.18-.05.03-.13-.02-.18 0-.08.04-.13.13-.19.19 0 .06.06.15 0 .18-.1.06-.25-.04-.37 0-.08.03-.1.15-.18.19-.06.02-.12 0-.19 0-.06.06-.1.14-.18.18-.05.03-.13-.03-.18 0-.08.04-.11.15-.19.18-.05.03-.14-.04-.18 0-.1.1-.07.3-.19.37-.55.37-.18-.18-.55 0-.08.04-.1.15-.18.19-.06.03-.13-.03-.19 0-.15.08-.21.29-.37.37-.05.02-.14-.05-.18 0-.05.04.05.15 0 .18-.11.06-.25-.04-.37 0-.08.03-.12.12-.18.19-.07.06-.14.1-.19.18-.08.11-.1.25-.18.37.02.36-.27.09-.37.18-.05.05.03.13 0 .19-.14.28-.33.14-.55.37-.05.04.02.12 0 .18-.04.08-.13.12-.19.18-.06.07-.1.15-.18.19-.06.03-.16-.06-.19 0-.05.1 0 .24 0 .37 0 .06.05.14 0 .18-.04.04-.13-.03-.18 0-.77.38.2-.01-.19.37-.04.04-.14-.04-.18 0-.04.04.04.14 0 .18-.11.12-.48.16-.55.37-.03.09.04.66 0 .74-.04.08-.15.1-.19.18-.03.06 0 .47 0 .56 0 .04.02.7 0 .73-.04.08-.14.11-.18.19-.06.1.05.26 0 .37-.04.08-.16.1-.19.18v.56c-.24.24-.18-.31-.18.18" stroke="#000"/><path d="M298.97 128.47c1.44-.21.14.69.37.92.1.1.27.1.37.19.04.04-.02.12 0 .18.04.2.13.37.18.56.03.12-.05.45 0 .55.04.08.15.1.19.18.05.12-.06.8 0 .92.04.08.14.11.18.19.06.1-.09.28 0 .37.04.04.14-.05.18 0 .07.06-.05.62 0 .73.03.06.15-.04.19 0 .09.1-.11.32 0 .37.1.06.26-.05.37 0 .05.03-.04.5 0 .56.04.07.14.1.18.18.03.06 0 .12 0 .19 0 .12-.04.25 0 .36.03.09.15.11.19.19.03.07-.04.51 0 .55.04.04.14-.04.18 0 .04.04 0 .12 0 .19 0 .1-.03.86 0 .92.04.07.15.1.19.18.02.06 0 .12 0 .19 0 .18-.04.37 0 .55.02.13.14.24.18.37.04.1 0 .57 0 .73 0 .07-.06.16 0 .19.1.05.26-.06.37 0 .05.03 0 .12 0 .18s.04.14 0 .19c-.09.08-.26-.06-.37 0-.08.04-.12.12-.18.18" stroke="#000"/><path d="M298.05 136.03l.74.18c0 .07-.05.14 0 .19.04.04.13-.03.18 0 .08.04.1.14.18.18.06.03.13-.02.19 0 .08.04.1.15.18.19.11.05.32-.11.37 0 .06.1-.08.28 0 .37.09.08.25-.04.37 0 .08.02.1.14.18.18.06.03.13-.03.19 0 .08.04.1.15.18.18.06.03.13-.02.19 0 .08.04.1.15.18.19.06.03.13-.03.19 0 .84.42-.79-.08.55.37.06.02.13-.03.18 0 .17.08.33.42.37.55.02.06-.04.14 0 .18.05.05.23-.04.19 0-.28.28-.62.5-.92.74M319.43 136.58c0 1.84.17.2-.18.92-.03.06.02.13 0 .19-.04.08-.15.1-.19.18-.05.11.06.26 0 .37-.04.08-.16.1-.18.19-.04.11.04.25 0 .36-.06.17-.3.22-.37.37-.06.11.09.28 0 .37-.11.11-.48.16-.55.37-.04.12.03.25 0 .37-.03.08-.15.1-.19.18-.03.06.03.13 0 .19-.08.15-.29.21-.37.37-.02.05.03.13 0 .18-.04.08-.14.1-.18.19-.23.45.53-.17-.19.55-.1.1-.27.09-.36.18-.1.09.05.26 0 .37-.08.16-.3.21-.37.37-.03.05 0 .12 0 .18 0 .13.04.26 0 .37-.06.17-.3.22-.37.37-.03.06.03.13 0 .19-.04.07-.12.12-.19.18-.06.06-.1.14-.18.18-.11.08-.3.07-.37.19-.07.1.03.25 0 .37-.31 1.24 0 0-.37.37-.04.04.03.13 0 .18-.04.08-.14.1-.18.18-.03.06.04.15 0 .19-.05.04-.16-.06-.19 0-.05.1.04.25 0 .37-.05.16-.29.21-.37.37-.02.05.05.14 0 .18-.1.1-.23.14-.36.18-.06.02-.14-.04-.19 0-.09.1.09.29 0 .37-.04.05-.14-.04-.18 0-.1.1-.14.24-.19.37-.02.06.05.14 0 .19-.04.04-.14-.05-.18 0-.04.04.03.13 0 .18-.38.77.01-.2-.37.18-.04.05.04.15 0 .19-.1.1-.25.1-.37.18-.07.05-.1.15-.18.19-.06.03-.16-.06-.19 0-.05.1.06.26 0 .37-.02.05-.14-.05-.18 0-.38.38.58-.02-.19.37-.25.12-.16-.23-.36.18-.03.05.05.16 0 .18-.11.06-.26-.04-.37 0-.09.03-.11.15-.19.19-.1.05-.28-.09-.37 0-.04.04.05.14 0 .18-.04.05-.14-.04-.18 0-.11.12-.16.48-.37.56-.13.04-.68-.07-.74 0-.04.04.05.14 0 .18-.04.04-.13-.03-.18 0-.08.04-.1.15-.18.18-.06.03-.13-.02-.19 0-.08.04-.1.15-.18.19-.06.03-.13-.02-.19 0-.13.04-.24.14-.37.18-.11.04-.26-.05-.37 0-.07.04-.1.15-.18.19-.05.02-.14-.05-.18 0-.05.04.04.14 0 .18-.05.04-.13-.03-.19 0-.2.1-.37.24-.55.37-.07.05-.1.15-.19.18-.05.03-.12-.01-.18 0-1.53.39.22 0-.92.37-.19.06-.37-.12-.55 0-.12.08-.1.27-.19.37-.09.09-.26-.05-.37 0-.3.16-.08.37-.55.37-.12 0-.25-.03-.37 0-.44.11-.27.16-.55.37-.18.13-.36.27-.55.37-.08.03-.52-.04-.56 0-.04.04.05.14 0 .18-.06.06-.6-.04-.74 0-.08.03-.1.16-.18.19-.84 0-.01-.1-.55.18-.12.06-.62-.06-.74 0-.05.03.04.14 0 .18-.04.05-.12 0-.18 0h-.74c-.04.05 0 .13 0 .19 0 .23.03.34-.19.55-.1.1-.27.09-.36.19-.1.08.12.37 0 .37-.07 0-.07-.19 0-.19.08 0 .1.15.18.19.06.02.12 0 .18 0H300.08c.12 0 .26.05.36 0 .16-.08.23-.28.37-.37.03-.02.5 0 .56 0 .07 0 .84-.04.92 0 .08.04.1.14.18.18.12.06.99-.06 1.1 0 .09.04.11.15.2.19.03.02.69 0 .73 0 .13 0 1.06-.03 1.1 0 .08.03.1.15.19.18.13.04.68-.06.74 0 .04.04-.05.14 0 .18.04.05.12 0 .18 0h4.98c.1 0 .85-.03.92 0 .08.04.1.15.18.19.06.03.13 0 .19 0h1.85c.05 0 .12-.03.18 0 .45.23-.07.18.36.18.12 0 .7-.04.74 0 .06.06-.14.1-.18.19-.03.05 0 .12 0 .18v.37c0 .06.03.13 0 .18-.04.08-.15.11-.19.19-.07.15.08.4 0 .55-.04.08-.15.1-.18.19-.04.11 0 .24 0 .36 0 .07.03.13 0 .19-.61.61.09-.18-.19.37-.03.07-.14.1-.18.18-.05.11.09.28 0 .37-.04.04-.16-.05-.18 0-.03.05 0 .96 0 1.1 0 .07.02.14 0 .19-.04.08-.15.1-.19.18-.03.06 0 .13 0 .19V167.37c0 .06.06.15 0 .18-.1.05-.28-.09-.37 0-.04.05.05.5 0 .55-.04.05-.14-.04-.18 0-.06.06.06.62 0 .74-.04.08-.16.1-.19.18-.03.1 0 .92 0 1.1 0 .07.03.14 0 .2-.03.07-.15.1-.18.18-.03.08.04.65 0 .74-.08.15-.3.2-.37.36-.03.06.03.13 0 .19-.04.08-.12.12-.18.18-.13.13-.23.27-.37.37-.05.04-.14-.04-.19 0-.04.04.03.13 0 .19-.02.04-.5.52-.55.55-.05.03-.12 0-.18 0h-1.48c-.06 0-.14.04-.18 0-.05-.05.04-.14 0-.19-.05-.04-.12 0-.19 0s-1.05.03-1.1 0c-.08-.03-.1-.14-.19-.18-.05-.03-.12.02-.18 0-.13-.04-.24-.14-.37-.18-.06-.02-.14.04-.18 0-.1-.1-.1-.28-.19-.37-.04-.05-.13.02-.18 0-.08-.04-.1-.15-.19-.19-.11-.06-.87.05-.92 0-.04-.04.05-.14 0-.18-.09-.09-.26.05-.37 0-.63-.32.57-.19-.73-.19h-1.11c-.06 0-.14.05-.18 0-.05-.04.05-.15 0-.18-.11-.06-.26.04-.37 0-.09-.03-.11-.15-.19-.18-.05-.03-.12 0-.18 0h-.19c-.08 0-.5.02-.55 0-.2-.1-.35-.27-.55-.37-.06-.03-.12 0-.19 0H301c-.06 0-.13.02-.19 0-.07-.04-.1-.15-.18-.19-.11-.05-.43.04-.55 0-.13-.04-.24-.14-.37-.18-.1-.04-.43 0-.56 0-.17 0-1.05.03-1.1 0-.08-.04-.1-.15-.19-.19-.05-.02-.12 0-.18 0h-1.11c-.06 0-.13.03-.18 0-.08-.04-.1-.14-.18-.18-.11-.06-.26.05-.37 0-.08-.04-.11-.15-.19-.19-.05-.02-.12 0-.18 0-.12 0-.25.04-.37 0-.08-.02-.1-.15-.18-.18-.04-.01-.7.03-.74 0-.15-.1-.23-.27-.37-.37-.04-.02-.84 0-.92 0h-1.1c-.2 0-.39.06-.56 0-.08-.03-.1-.15-.19-.18-.06-.02-1.07 0-1.1 0h-6.26c-.07 0-.15.04-.2 0-.04-.05.05-.14 0-.19-.08-.09-.45.1-.55 0-.04-.04.06-.15 0-.18-.1-.06-.25.04-.36 0-.09-.03-.11-.15-.19-.19-.15-.07-.4.08-.55 0-.08-.03-.1-.16-.19-.18-.17-.04-.36 0-.55 0-.06 0-.12.02-.18 0-.13-.04-.24-.14-.37-.18-.13-.05-.69.05-.74 0-.1-.1-.09-.28-.18-.37-.09-.09-.29.08-.37 0-.05-.05.04-.14 0-.19-.06-.06-.6.05-.74 0-.08-.02-.1-.14-.18-.18-.06-.03-.14.04-.19 0-.04-.04.03-.13 0-.19-.08-.15-.29-.2-.37-.36-.02-.06 0-.13 0-.19 0-.12.04-.25 0-.37-.02-.08-.14-.1-.18-.18-.03-.06.04-.14 0-.19-.04-.04-.14.05-.19 0-.08-.08.11-.31 0-.36-.1-.06-.25.05-.36 0-.06-.03 0-.13 0-.19 0-.18-.06-.38 0-.55.22-.69.18.22.18-.37M261.18 174.74l.37-.74c.06 0 .14.04.19 0 .04-.04-.02-.13 0-.18.04-.13.14-.24.18-.37.02-.06-.03-.13 0-.19.08-.15.3-.21.37-.37.03-.05-.04-.14 0-.18.04-.04.14.04.18 0 .05-.04-.05-.16 0-.18.11-.06.26.03.37 0 .36-.12.07-.32.19-.56.03-.05.12 0 .18 0h1.29c.06 0 .13-.03.19 0 .76.39-.2-.01.18.37.04.04.14-.04.19 0 .04.04-.05.14 0 .19.04.04.12-.03.18 0 .08.03.1.15.18.18.12.04.26-.06.37 0 .06.03-.03.13 0 .18.04.08.1.15.19.19.2.1.24-.18.37.18.03.12-.04.25 0 .37.02.08.14.1.18.19.03.05-.04.14 0 .18.04.04.14-.04.18 0 .05.04-.04.14 0 .18.05.05.13 0 .19 0h.37c.08 0 .5.03.55 0 .08-.03.1-.14.18-.18.11-.05.26.05.37 0 .2-.1.36-.27.56-.37.05-.03.12 0 .18 0 .12 0 .25.03.37 0 .27-.07.47-.31.74-.37.18-.03.37.05.55 0 .08-.02.1-.15.18-.18.12-.04.25.02.37 0 .2-.04.36-.15.56-.19.1-.02.7.03.73 0 .12-.07.09-.27.19-.36.04-.05.12 0 .18 0 .15 0 1.05.02 1.1 0 .06-.03-.04-.15 0-.19.05-.04.13 0 .2 0h1.28c.09.09-.09.28 0 .37.09.09.26-.06.37 0 .06.03-.04.14 0 .18.04.05.13-.02.18 0 .77.39-.2 0 .19.37.04.05.14-.04.18 0 .09.09-.05.26 0 .37.1.2.27.36.37.55.03.06-.02.13 0 .19.05.13.15.23.19.37.03.12-.04.25 0 .37.02.08.14.1.18.18.03.06 0 .12 0 .18 0 .13-.02.25 0 .37.04.2.14.37.18.56.03.12 0 .24 0 .36" stroke="#000"/><path d="M268.19 176.95c1.08-2.71-.1-.6.55-.92.08-.04.1-.16.19-.19.11-.04.25.06.36 0 .5-.24-.55-.18.19-.18h.18-.37 1.66c.13 0 .86-.03.93 0 .07.04.1.16.18.18.12.04.27-.06.37 0 .52.01.04.42.18.56.09.08.26-.06.37 0 .08.03.12.12.19.18l.18.18M281.46 176.4c.38-.56.37-.62.37-1.11 0-.06-.05-.14 0-.18.04-.05.16.05.18 0 .06-.11-.04-.26 0-.37.2-.58.13.06.37-.19.09-.08-.05-.26 0-.37.04-.07.15-.1.19-.18.02-.05-.05-.14 0-.18.04-.05.14.04.18 0 .04-.05 0-.13 0-.19 0-.12-.05-.26 0-.37.03-.05.13.02.18 0 .13-.04.28-.08.37-.18.05-.05-.04-.14 0-.19.05-.04.14.05.19 0 .04-.04-.05-.14 0-.18.02-.03.51-.02.55 0 .08.04.1.15.18.18.06.03.13-.02.19 0 .13.05.24.14.37.19.06.02.15-.06.18 0 .06.1-.05.26 0 .37.03.05.13-.03.19 0 .07.04.1.14.18.18.06.03.13-.03.18 0 .17.08.39.44.56.55.11.08.43.07.37.19s-.47-.28-.37-.19c.15.16.35.27.55.37.06.03.16-.05.19 0 .05.11 0 .25 0 .37 0 .06-.05.14 0 .19.38.38-.02-.59.36.18v.55a.42.42 0 01-.18.19c-.06.03-.16-.06-.18 0-.06.1.05.26 0 .37-.03.05-.13 0-.19 0h-.74" stroke="#000"/><path d="M288.46 176.95c.22-1.44-.68-.14-.92-.37-.04-.04.02-.13 0-.18-.04-.13-.14-.24-.18-.37-.02-.06.03-.13 0-.19-.39-.76.01.2-.37-.18-.04-.04.04-.14 0-.19-.04-.04-.14.05-.18 0-.05-.04.05-.15 0-.18-.11-.05-.26.04-.37 0-.09-.03-.13-.12-.19-.18l-.55-.56c-.06-.06-.11-.13-.19-.18-.1-.08-.25-.1-.36-.19-.08-.04-.11-.14-.19-.18-.05-.03-.14.04-.18 0-.05-.04.04-.14 0-.18-.05-.05-.14.04-.19 0-.04-.05.05-.15 0-.19-.04-.04-.12 0-.18 0-.06-.06-.14-.11-.19-.18-.07-.12-.07-.3-.18-.37-.1-.07-.26.05-.37 0-.05-.03.03-.13 0-.19a.42.42 0 00-.18-.18c-.06-.03-.13.03-.19 0-.15-.08-.21-.3-.37-.37-.05-.03-.14.04-.18 0-.04-.04.04-.14 0-.18-.04-.05-.14.04-.18 0-.05-.05 0-.13 0-.19-.07-.12-.07-.29-.19-.37-.1-.06-.26.06-.37 0-.05-.02.05-.14 0-.18-.04-.04-.13.03-.18 0-.08-.04-.1-.15-.19-.18-.05-.03-.13.02-.18 0-.08-.04-.12-.13-.18-.19-.07-.06-.15-.1-.19-.18-.03-.06.04-.14 0-.19-.04-.04-.12 0-.18 0-.13 0-.26.06-.37 0-.06-.03.02-.12 0-.18-.05-.13-.09-.27-.19-.37-.04-.04-.13.03-.18 0-.08-.04-.1-.15-.18-.19-.06-.02-.15.05-.19 0-.38-.38.58.02-.18-.36-.06-.03-.14.04-.19 0-.04-.05.06-.16 0-.19-.1-.05-.26.06-.37 0-.05-.03.05-.14 0-.18-.04-.05-.14.04-.18 0-.04-.05.04-.14 0-.19-.25-.24-.18.4-.37-.18-.04-.12.06-.26 0-.37-.03-.05-.14.04-.18 0-.05-.04.04-.14 0-.18-.05-.05-.14.04-.19 0-.04-.05.05-.14 0-.19-.04-.04-.14.05-.18 0-.09-.09.1-.31 0-.37-.11-.05-.26.06-.37 0 0-.19.04-.25-.19-.37-.1-.05-.3.11-.36 0-.06-.1.05-.25 0-.36-.03-.06-.13 0-.19 0h-.37.37-1.1c-.09 0-.5-.03-.56 0-.07.03-.1.14-.18.18-.12.06-.8-.06-.92 0-.08.04-.11.15-.19.18-.1.05-.8-.04-.92 0-.08.03-.1.15-.18.19-.06.03-.14-.04-.19 0-.04.04.05.14 0 .18-.08.09-.26-.05-.37 0-.15.08-.2.32-.37.37-.11.04-.25-.04-.36 0-.69.23.22.19-.37.19-.06 0-.16-.06-.19 0-.05.1.06.25 0 .36-.05.11-.26-.05-.37 0-.07.04-.1.15-.18.19-.05.03-.13-.02-.18 0-.13.04-.24.14-.37.18-.06.02-.13-.02-.19 0-.07.04-.1.15-.18.19-.06.03-1.03 0-1.1 0h-.74c-.05.04.04.14 0 .18-.05.05-.13 0-.19 0h-1.29c-.06 0-.18.06-.18 0s.24 0 .18 0h-1.84c-.06 0-.14-.04-.19 0-.04.05.06.16 0 .19-.1.05-.26-.06-.37 0-.05.02.03.13 0 .18a.42.42 0 01-.18.18c-.05.03-.16-.05-.18 0-.06.11.04.26 0 .37-.03.09-.15.11-.19.19-.03.05.03.13 0 .18-.22.44-.37-.11-.37.37" stroke="#000"/><path d="M275.38 167.55l.73-.55c0-.07-.02-.13 0-.19.04-.08.13-.12.19-.18s.1-.15.18-.19c.11-.05.32.11.37 0 .06-.1-.05-.26 0-.37.04-.07.37.1.55 0 .06-.02.01-.12 0-.18l-.18-1.29" stroke="#000"/><path d="M275.38 167.55c.19-1.35.18-.86.18-1.48 0-.06-.04-.14 0-.18.04-.04.12 0 .19 0 .06-.06.13-.11.18-.18.08-.12.14-.24.18-.37.02-.06-.04-.14 0-.19.39-.38-.01.59.37-.18.03-.06-.04-.14 0-.19.05-.04.13.03.19 0 .08-.04.12-.12.18-.18.12 0 .25.04.37 0 .08-.03.1-.15.18-.18.11-.06.29.08.37 0 .05-.05-.04-.15 0-.19.05-.04.13.03.19 0 .08-.04.1-.14.18-.18.06-.03.12 0 .19 0h1.1c.06 0 .13-.03.19 0 .07.04.1.13.18.18.12.08.26.1.37.19.14.1.21.29.37.36.05.03.14-.04.18 0 .05.05-.03.13 0 .19.04.08.14.11.19.18.18.27.11.39.37.56.11.07.25.1.36.18.08.05.11.15.19.18.05.03.13-.02.18 0 .08.04.1.15.19.19.1.05.26-.06.37 0 .07.04.1.14.18.18.06.03.12 0 .18 0 .19 0 .38-.04.56 0 .08.02.1.15.18.19.11.05.84-.06.92 0 .12.07.09.27.19.37.04.04.12 0 .18 0 .29 0 .9.04 1.1 0 .28-.06.48-.29.75-.37.05-.02.12.02.18 0 .08-.04.12-.13.18-.19.07-.06.15-.1.19-.18.08-.18.1-.38.18-.55.04-.08.13-.13.19-.19s.1-.13.18-.18c.12-.08.26-.11.37-.19.36.02.09-.27.18-.37.05-.04.16.06.19 0 .05-.1-.06-.25 0-.36.03-.06.14.04.18 0 .05-.05-.04-.15 0-.19.05-.04.14.04.19 0 .04-.04-.05-.14 0-.18.04-.05.14.04.18 0 .04-.04-.04-.48 0-.56.04-.07.15-.1.19-.18.02-.06 0-.76 0-.92v-1.3c0-.08.02-.49 0-.55-.04-.07-.15-.1-.19-.18-.03-.05 0-.12 0-.18 0-.13.04-.26 0-.37-.03-.09-.14-.1-.18-.19-.03-.05.04-.14 0-.18-.05-.04-.14.04-.19 0-.04-.04.03-.13 0-.19-.08-.15-.29-.2-.37-.36-.02-.06.06-.16 0-.19-.1-.05-.28.09-.36 0-.1-.09.05-.26 0-.37-.01-.02-.7.04-.74 0-.05-.04.04-.14 0-.18-.09-.09-.26.05-.37 0-.08-.04-.1-.16-.18-.19-.14-.04-.68.06-.74 0-.05-.04.04-.14 0-.18-.09-.09-.26.05-.37 0-.08-.04-.1-.15-.19-.18-.11-.06-.99.05-1.1 0-.08-.04-.1-.15-.19-.19-.05-.03-.12 0-.18 0h-.55c-.06 0-.14.04-.19 0-.04-.04.05-.14 0-.18H281.64c-.04-.05.05-.14 0-.19-.04-.04-.12 0-.18 0H280.35c-.06 0-.14.05-.18 0-.1-.1-.09-.27-.18-.37-.05-.04-.13 0-.19 0-.24 0-.5.08-.74 0-.05-.02.05-.14 0-.18-.08-.09-.26.05-.37 0-.07-.04-.1-.15-.18-.18-.05-.03-.12 0-.18 0h-1.29c-.07 0-.13.02-.19 0-.08-.04-.1-.16-.18-.19-.18-.06-.37 0-.56 0H273.17c-.07 0-.13-.03-.19 0-.08.04-.1.15-.18.19-.11.05-.26-.06-.37 0-.28.14-.15.32-.37.55-.72.72-.1-.04-.55.18-.08.04-.11.15-.19.19-.05.02-.14-.05-.18 0-.05.04.03.13 0 .18-.04.08-.15.1-.19.19-.12.25.23.16-.18.36-.5 0 .06-.06-.19.19-.04.04-.12 0-.18 0-.12.12-.27.22-.37.37-.03.05.05.14 0 .18-.04.04-.13-.03-.18 0-.08.04-.1.15-.19.19-.05.02-.14-.05-.18 0-.09.08.09.28 0 .36-.04.05-.14-.04-.19 0-.04.05.03.13 0 .19-.42.84.08-.78-.36.55-.04.11.04.35 0 .37-.11.06-.26-.05-.37 0-.06.03.02.13 0 .18-.61.62.08-.17-.19.37-.04.08-.15.1-.18.19-.04.11 0 .24 0 .37 0 .06.03.13 0 .18-.04.08-.15.1-.19.18-.02.06.05.15 0 .19-.04.04-.14-.04-.18 0-.03.03.02.48 0 .55-.04.13-.14.24-.18.37-.04.12.08.28 0 .37-.05.04-.15-.04-.19 0-.1.1.1.46 0 .55-.1.1-.27.09-.37.19-.04.04.02.12 0 .18-.44 1.34.06-.29-.37.55-.02.06.03.13 0 .19-.03.08-.12.12-.18.18s-.1.15-.18.19c-.06.02-.13 0-.19 0h-1.28c-.13 0-.46-.04-.56 0-.64.2-.14.18-.56.18-.43 0 .1-.04-.36.19-.06.02-.14-.05-.19 0-.45.44.06.27-.37.55-.11.07-.24.14-.37.18-.05.02-.14-.04-.18 0-.04.05.04.14 0 .19-.04.04-.13-.03-.18 0-.77.38.2-.02-.19.37-.04.04-.13-.03-.18 0-.29.14-.15.32-.37.55-.1.1-.27.09-.37.18-.04.04.04.48 0 .56-.04.07-.15.1-.18.18-.03.06.04.14 0 .18-.05.05-.16-.05-.19 0-.05.11.04.26 0 .37-.05.17-.29.22-.37.37-.02.06.05.14 0 .19-.04.04-.14-.05-.18 0-.25.24.39.17-.19.36-.11.04-.25-.05-.36 0-.06.03.02.13 0 .19-.04.08-.13.12-.19.18-.06 0-.16-.05-.18 0-.06.11.05.26 0 .37-.03.06-.14-.04-.19 0-.04.05.03.13 0 .19-.08.15-.29.21-.37.37-.02.05.05.14 0 .18-.38.38.02-.58-.36.18-.03.06.05.16 0 .19-.11.05-.27-.07-.37 0-.12.07-.11.25-.19.37-.05.07-.14.1-.18.18-.06.11.08.28 0 .37-.05.04-.13-.03-.19 0-.07.04-.1.15-.18.18-.48.24.15-.78-.19.56-.06.24-.68.33-.73.37-.05.03.03.13 0 .18-.39.77.01-.2-.37.18-.04.05.03.13 0 .19-.04.08-.12.12-.19.18-.06.07-.87.83-.92.92-.02.06.05.15 0 .19-.04.04-.14-.04-.18 0-.04.04.03.13 0 .18-.15.3-.62.19-.19.19" stroke="#000"/><path d="M282.57 157.96c-.13.25-.27.49-.37.74-.04.09 0 1.21 0 1.3 0 .05.04.13 0 .18-.05.04-.14-.05-.19 0-.04.04 0 .12 0 .18v.74c0 .06-.02.13 0 .18.04.08.13.12.19.19.06.06.1.14.18.18.06.03.13-.03.19 0 .07.04.12.12.18.18.18.07.38.1.55.19.2.1.38.23.56.37.07.05.1.15.18.18.12.04.25-.04.37 0 .08.03.1.17.18.19.22.05.66 0 .92 0 .09 0 .5.02.56 0 .17-.09.52-.7.55-.74.12-.16.48-.4.55-.55.06-.11-.04-.26 0-.37.05-.13.14-.24.19-.37.02-.06-.05-.14 0-.19.04-.04.14.05.18 0 .1-.09-.09-.46 0-.55.1-.1.31-.06.37-.18.08-.17-.04-.38 0-.56.02-.08.15-.1.19-.18.02-.05-.07-.18 0-.18.06 0 0 .24 0 .18v-1.1c-.43-.44-.37.33-.37-.19M262.47 166.63c-.27-.32-.32-.77-.55-1.1-.05-.08-.16-.11-.18-.2-.05-.13.06-.67 0-.73-.1-.1-.27-.09-.37-.18-.03-.03.02-.49 0-.56-.04-.13-.14-.24-.19-.37-.03-.11 0-.24 0-.37" stroke="#000"/><path d="M264.69 162.39h-2.4c-.06 0-.14-.05-.18 0-.05.04.04.14 0 .18-.13.13-.25-.12-.37 0-.05.05.04.14 0 .19-.09.08-.26-.06-.37 0-.08.04-.11.13-.19.18-.11.08-.23.14-.36.19-.12.03-.29-.1-.37 0-.1.1-.09.27-.19.36-.03.04-.48-.03-.55 0-.08.04-.1.16-.18.19-.18.06-.37 0-.56 0h-2.39c-.13 0-.27.07-.37 0-.12-.08-.11-.26-.19-.37-.05-.08-.67-.7-.73-.74-.06-.03-.14.05-.19 0-.04-.04.06-.15 0-.18-.1-.06-.26.05-.37 0-.05-.03 0-.13 0-.19v-.92c0-.06-.04-.14 0-.18.05-.05.14.04.19 0 .08-.09-.06-.26 0-.37.04-.08.15-.1.18-.19.04-.11-.05-.25 0-.36.03-.06.14.04.19 0 .08-.1-.06-.26 0-.37.07-.16.29-.22.36-.37.03-.06-.04-.14 0-.19.05-.04.15.05.19 0 .04-.04-.02-.12 0-.18.04-.13.14-.24.18-.37.02-.06-.04-.14 0-.18.1-.1.27-.09.37-.19.38-.38-.58.02.19-.37.05-.02.14.05.18 0 .09-.08-.09-.28 0-.36.04-.05.12 0 .18 0 0-.13-.03-.26 0-.37.03-.09.15-.11.19-.19.03-.05-.03-.13 0-.18.04-.08.14-.1.18-.19.03-.05-.06-.18 0-.18s0 .25 0 .18v-.36c0-.07.05-.15 0-.19-.04-.04-.18-.06-.18 0 0 .09.24.25.18.19-.12-.13-.22-.28-.37-.37-.05-.04-.14.04-.18 0-.1-.1-.14-.24-.18-.37-.02-.06.05-.16 0-.19-.11-.05-.29.09-.37 0-.06-.06.1-.14.18-.18.06-.03.14.04.19 0 .04-.04-.03-.13 0-.19.04-.07.14-.1.18-.18.03-.05-.04-.14 0-.18.04-.05.14.04.18 0 .05-.05-.01-.13 0-.19.05-.13.1-.27.19-.37.04-.04.14.05.18 0 .25-.24-.39-.17.19-.37 1.04 0 .06.13.37-.18.04-.04.14.04.18 0 .04-.04.04-.14 0-.18-.1-.1-.27-.1-.37-.19-.04-.04.05-.14 0-.18-.04-.05-.15.05-.18 0-.08-.15.07-.4 0-.56-.04-.07-.15-.1-.19-.18-.02-.05.03-.13 0-.18-.04-.08-.14-.11-.18-.19-.03-.05.04-.14 0-.18-.04-.05-.14.04-.19 0-.04-.05 0-.13 0-.19 0-.12.06-.26 0-.37-.02-.05-.14.05-.18 0-.06-.06.06-.79 0-.92-.04-.08-.14-.1-.18-.18-.03-.06 0-.12 0-.19-.13-.12-.28-.22-.37-.36-.04-.06.03-.13 0-.19-.08-.15-.3-.21-.37-.37-.06-.1.05-.26 0-.37-.04-.07-.16-.1-.19-.18-.03-.12 0-.25 0-.37 0-.06.03-.13 0-.18-.38-.77.02.2-.36-.19-.05-.04.04-.14 0-.18-.05-.05-.13 0-.19 0h-.37c-.13 0-.85-.04-.92 0-.08.04-.1.14-.18.18-.06.03-.13-.02-.19 0-.13.05-.24.14-.37.19-.1.03-.92 0-1.1 0-.12 0-.28-.1-.37 0-.09.08.05.26 0 .36-.03.06-.14.05-.18 0-.05-.04 0-.12 0-.18v-.18-.93-.36c0-.07.02-.13 0-.19-.04-.08-.15-.1-.19-.18-.03-.06 0-.47 0-.56 0-.11.02-.71 0-.73-.09-.09-.26.05-.37 0-.08-.04-.1-.15-.18-.19-.12-.06-.86.06-.92 0-.05-.04.04-.14 0-.18-.05-.04-.13 0-.19 0h-1.29c-.06 0-.13.03-.18 0-.08-.04-.1-.15-.19-.19-.1-.05-.26.06-.37 0-.07-.03-.1-.15-.18-.18-.12-.04-.25.04-.37 0-.08-.03-.1-.15-.18-.18-.06-.03-.14.04-.19 0-.04-.05 0-.13 0-.19 0-.12.06-.26 0-.37-.02-.05-.13.03-.18 0a.42.42 0 01-.19-.18c-.12-.26.23-.17-.18-.37-.06-.03-.12 0-.18 0h-.37c-.06 0-.14-.04-.19 0-.04.04.05.14 0 .18-.09.1-.46-.09-.55 0-.04.05.04.14 0 .19-.04.04-.14-.05-.18 0-.1.1-.07.3-.19.37-.1.07-.26-.06-.37 0-.05.02.05.14 0 .18-.04.04-.13-.03-.18 0-.2.1-.17.27-.37.37-.04.02-.53.03-.55 0-.05-.04 0-.12 0-.18" stroke="#000"/><path d="M242.94 143.96c-1.04-4.15 1.4.25 1.84-.19.04-.04-.04-.14 0-.18.1-.1.25-.11.37-.19.07-.05.1-.14.18-.18.06-.03.15.05.19 0 .1-.16.07-.4.18-.55.04-.06.13.02.19 0 .84-.43-.79.07.55-.37.06-.02.14.04.18 0 .05-.05-.04-.14 0-.19.05-.04.14.05.19 0 .04-.04-.05-.14 0-.18.04-.05.13.03.18 0 .08-.04.1-.15.19-.19.05-.02.13.03.18 0 .08-.04.1-.15.18-.18.12-.04.26.05.37 0 .06-.03-.04-.14 0-.19.05-.04.14.05.19 0 .22-.22.08-.4.37-.55.05-.03.13.03.18 0 .08-.04.1-.16.18-.18.18-.05.38.04.56 0 .08-.02.1-.15.18-.19.06-.02.13.03.19 0 .07-.04.1-.14.18-.18.06-.03.13.03.19 0 .07-.04.1-.15.18-.19.05-.02.12 0 .18 0 .13 0 .26.04.37 0 .08-.02.1-.14.19-.18.07-.04.51.04.55 0 .1-.1.09-.27.18-.37h.56c.08-.03.1-.14.18-.18.06-.03.13.02.19 0 .07-.04.1-.15.18-.19.1-.05.43.05.55 0 .13-.04.24-.14.37-.18.07-.03.53.03.55 0 .05-.04-.04-.14 0-.19.1-.08.26.06.37 0 .08-.03.1-.15.19-.18.08-.03.65.04.73 0 .08-.04.11-.15.19-.18.07-.04.51.03.55 0 .1-.1.07-.3.19-.37.1-.07.24 0 .36 0h.37c.44 0-.08.04.37-.19.11-.05.77.05.92 0 .13-.04.24-.14.37-.18.06-.02.13.02.19 0 .13-.04.24-.14.37-.19.07-.02.52.03.55 0 .04-.04-.05-.14 0-.18.09-.09.26.05.37 0 .07-.04.1-.16.18-.18.84 0 .01.08.55-.19.06-.03.13 0 .19 0 .18 0 1.07.02 1.1 0 .1-.07-.05-.26 0-.37.03-.05.5.04.56 0 .08-.04.1-.14.18-.18.17-.08.39.08.55 0 .06-.03-.04-.14 0-.19.1-.08.29.1.37 0 .05-.04-.04-.14 0-.18.09-.09.29.09.37 0 .05-.04-.04-.14 0-.18.05-.05.13.02.19 0 .07-.04.1-.15.18-.19.06-.03.14.04.19 0 .04-.04-.06-.16 0-.18.11-.06.67.06.73 0 .45-.9-.06-.16.37-.37.08-.04.1-.17.19-.19.04 0 .83.05.92 0 .07-.04.1-.14.18-.18.12-.06.8.06.92 0 .08-.04.1-.15.19-.18.05-.03.12.01.18 0 .13-.05.24-.16.37-.19.08-.02 1.06.02 1.1 0 .17-.06.23-.27.37-.37.04-.02.77 0 .93 0 .06 0 .14.05.18 0 .04-.04-.04-.14 0-.18.09-.09.26.05.37 0 .08-.04.1-.16.18-.19.18-.05.37 0 .56 0h2.39c.13 0 .26-.05.37 0 .16.08.23.28.37.37.1.07.26-.05.37 0 .08.04.11.14.18.19.12.07.26.1.37.18.07.05.1.15.19.19.05.02.13-.03.18 0 .16.07.21.29.37.36.05.03.14-.04.18 0 .05.05-.04.14 0 .19.05.04.13-.02.19 0 .13.04.24.14.37.18.05.02.15-.05.18 0 .06.11-.05.26 0 .37.03.06.14-.04.18 0 .05.04-.02.13 0 .19.08.15.3.2.37.36.03.06-.02.13 0 .19.08.15.28.22.37.37.08.11.07.29.19.37.1.06.26-.06.37 0 .05.02-.05.14 0 .18.04.04.12-.03.18 0 .08.04.12.12.18.18.07.07.14.12.19.19.36.16.07.5.18.74.03.05.14-.05.19 0 .04.04 0 .12 0 .18.12 0 .26-.05.37 0 .05.03-.03.13 0 .18.1.23.44.34.55.56.03.05-.05.14 0 .18.04.05.14-.04.18 0 .72.72-.04.1.19.55.04.08.14.11.18.19.06.1-.1.31 0 .37.11.05.26-.06.37 0 .06.03-.01.12 0 .18.05.2.14.37.18.55.02.06-.02.13 0 .19.08.15.33.2.37.37.05.18-.06.38 0 .55.02.06.14-.04.19 0 .03.04-.04.48 0 .55.04.08.12.13.18.19.12.18.27.35.37.55.03.06-.03.13 0 .19.04.07.15.1.18.18.03.05-.02.13 0 .18.04.08.15.11.19.19.06.12-.05.87 0 .92.04.04.14-.04.18 0 .05.04-.02.13 0 .18.04.08.15.11.19.19.03.05 0 .12 0 .18v.37c0 .12.12.37 0 .37-.13 0-.09-.46 0-.37.13.14.1.38.18.55.04.08.19.1.19.19 0 .14-.13.24-.19.37M256.94 157.6c.44-.13.85-.31 1.3-.37.03 0-.04.68 0 .73l.36.37c0 .06-.02.13 0 .19.23.45.19-.07.19.37 0 .06.05.15 0 .18-.11.05-.25 0-.37 0-.06 0-.14-.04-.18 0-.05.04.04.14 0 .18-.05.05-.25 0-.19 0h.74c.06 0 .13.03.18 0 .22-.1.33-.44.56-.55.05-.03.12 0 .18 0 .12 0 .25.04.37 0 .08-.03.1-.14.18-.18.11-.06.28.08.37 0 .1-.1.09-.27.19-.37.01-.02.87.01.92 0 .16-.06.21-.3.37-.37.05-.03.13.03.18 0 .08-.04.1-.15.18-.18.11-.06.26.03.37 0 .13-.05.24-.15.37-.19.06-.02.14.04.19 0 .04-.04-.05-.14 0-.18.08-.09.28.08.36 0 .05-.05-.04-.14 0-.19.05-.04.19-.06.19 0s-.23.05-.19 0c.1-.1.24-.14.37-.18.13-.05.7.05.74 0 .23-.23.09-.41.37-.55.05-.03.13.02.18 0 .08-.04.11-.15.19-.19.05-.03.14.04.18 0 .05-.04-.05-.16 0-.18.11-.06.25 0 .37 0 .06 0 .14.04.19 0 .04-.05-.05-.14 0-.19.04-.04.12 0 .18 0H268.37c.06 0 .13.02.19 0 .13-.04.24-.14.37-.18.11-.04.75 0 .92 0 .06 0 .14.04.18 0 .05-.05 0-.13 0-.19.19 0 .39.09.55 0 .13-.06.1-.27.19-.37.1-.09.46.1.55 0 .05-.04-.06-.16 0-.18.13-.04 1.08.03 1.1 0 .05-.04-.04-.14 0-.18.05-.05.15.04.2 0 .04-.05-.05-.14 0-.19h.55c.08-.03.1-.14.18-.18.05-.03.13.03.18 0 .08-.04.11-.15.19-.19.05-.02.12 0 .18 0h4.24c.06 0 .19-.06.19 0s-.25 0-.19 0h.55c.07 0 .15.05.19 0 .04-.04 0-.12 0-.18M257.31 145.8c.24.33-.11.75 0 1.1.03.09.15.11.19.19.03.05 0 .12 0 .18v.37c0 .43-.05-.08.18.37.06.11-.05.26 0 .37.04.08.15.1.19.18.08.18.13.37.18.56.02.06-.03.13 0 .18.04.08.15.1.19.19.02.05-.06.15 0 .18.1.05.3-.1.36 0 .99 1.47-.32.08 0 .74.62.6-.08-.18.19.37.04.07.16.1.18.18.05.18 0 .37 0 .55 0 .06-.04.14 0 .19.05.04.14-.05.19 0 .03.03-.04.48 0 .55.04.08.14.1.18.18.03.06 0 .13 0 .19 0 .12-.03.25 0 .37.03.13.14.24.19.37.01.05-.06.15 0 .18.1.06.25-.05.36 0 .06.03-.02.13 0 .18.05.13.1.28.19.37.04.05.18-.06.18 0s-.12 0-.18 0" stroke="#000"/><path d="M254.55 147.46c.3-.13.65-.19.92-.37.11-.08.1-.26.18-.37.05-.07.13-.12.19-.18.42-.42-.11.05.74-.37.07-.04.1-.15.18-.19.06-.02.13.04.18 0 .45-.3.24-.42.74-.55.84 0 .01.09.56-.18.1-.06.28.08.36 0 .05-.05-.05-.16 0-.19.17-.08.4.08.56 0 .07-.04.1-.14.18-.18.11-.06.26.05.37 0 .08-.04.1-.15.18-.19.06-.02.13.02.19 0 .63-.2.13-.18.55-.18h.19c.06 0 .13.03.18 0 .08-.04.1-.15.18-.19.11-.05.32.11.37 0 .06-.1 0-.24 0-.36 0-.07.05-.15 0-.19-.04-.04-.14.04-.18 0-.04-.04.03-.13 0-.18-.04-.08-.15-.11-.19-.19-.05-.1.1-.28 0-.37-.04-.04-.14.05-.18 0-.04-.04 0-.12 0-.18 0-.12.06-.26 0-.37-.03-.05-.14.04-.18 0-.1-.09.05-.26 0-.37-.04-.08-.15-.1-.19-.18-.03-.06.06-.16 0-.19-.1-.05-.26.06-.37 0-.1-.05.09-.28 0-.37-.04-.04-.12 0-.18 0 0-.12.05-.25 0-.36-.03-.06-.14.04-.19 0-.08-.1.06-.26 0-.37-.03-.08-.14-.1-.18-.19-.03-.05.03-.13 0-.18-.04-.08-.15-.1-.18-.19-.03-.05.04-.14 0-.18-.05-.04-.15.04-.19 0-.04-.04 0-.12 0-.18-.06-.13-.07-.3-.18-.37-.1-.07-.26.05-.37 0-.11-.06.05-.26 0-.37-.11-.22-.44-.33-.55-.55-.03-.06 0-.13 0-.19v-.37M251.78 140.08c-.4.8-.36.47-.36.93v.18c-.05.13-.16.24-.19.37-.03.12 0 .25 0 .37v3.5M256.76 155.75l.92-.92c.06-.06.1-.14.19-.18.25-.13.16.22.37-.19.12-.25-.23-.16.18-.37.05-.02.13.02.18 0 .13-.04.24-.14.37-.18.06-.02.16.05.19 0 0-1.05-.13-.06.18-.37.04-.04-.04-.14 0-.18.09-.1.26.05.37 0 .08-.04.1-.15.18-.19.06-.03.13 0 .19 0 .12 0 .25.04.37 0 .08-.03.1-.14.18-.18.06-.03.13.02.19 0 .07-.04.1-.15.18-.19.06-.02.12 0 .18 0 .2 0 .26-.04.37.19.03.05-.02.13 0 .18.1.2.29.35.37.55.05.12-.02.25 0 .37.04.2.14.37.19.56.06.24-.07.66 0 .92.02.08.14.1.18.18.07.15-.07.4 0 .56.42.84-.08-.79.37.55.04.11-.09.28 0 .37.1.1.27.08.37.18.09.1-.1.46 0 .55.04.05.12 0 .18 0" stroke="#000"/><path d="M260.08 141.38c-.62-2.8.96-.23 1.29-.56.03-.03-.03-.48 0-.55.04-.13.14-.24.18-.37.03-.07-.03-.52 0-.55.05-.05.13.02.19 0 .13-.05.25-.11.37-.19.14-.1.2-.29.36-.37.06-.02.16.06.19 0 .05-.1-.06-.25 0-.36.03-.06.13.02.18 0 .08-.04.13-.13.19-.19s.14-.1.18-.18c.03-.06-.04-.14 0-.19.1-.1.26-.1.37-.18.07-.05.12-.12.18-.19.07-.06.14-.1.19-.18.08-.11.1-.25.18-.37.05-.07.15-.1.19-.18.03-.06-.05-.14 0-.19.04-.04.14.05.18 0 .05-.04-.04-.14 0-.18.05-.05.13.02.19 0 .13-.05.27-.09.37-.19.04-.04-.05-.14 0-.18.04-.04.14.04.18 0 .04-.04-.04-.14 0-.18.04-.05.18-.07.18 0 0 .06-.18.06-.18 0 0-.14.1-.26.18-.37.05-.08.15-.11.19-.19.03-.05-.05-.23 0-.18.1.1.12.24.18.37" stroke="#000"/><path d="M262.47 139.35l.19.73c.06.07.14.11.18.19.03.05-.02.13 0 .18.04.08.15.11.19.19.08.17.13.36.18.55.02.06-.04.14 0 .19.11.1.48.15.55.36.04.12-.05.26 0 .37.03.06.15-.04.19 0 .04.05-.03.13 0 .19.38.76-.01-.2.37.18.04.04-.03.13 0 .19.17.33.14.1.37.18 1.33.44-.3-.05.55.37.05.03.12 0 .18 0 .07 0 .13.03.19 0 .15-.08.21-.3.37-.37.05-.03.14.04.18 0 .04-.04-.05-.16 0-.18.11-.06.25.03.37 0 .08-.03.1-.15.18-.19.06-.03.13.03.19 0 .08-.04.1-.14.18-.18.06-.03.16.05.19 0 .05-.11-.06-.26 0-.37.02-.06.12 0 .18 0H268.37c.06 0 .13.03.19 0 .07-.04.1-.15.18-.19.06-.02.13.03.19 0 .07-.04.1-.14.18-.18.06-.03.14.04.18 0 .05-.04-.05-.16 0-.18.15-.08.41.07.56 0 .08-.04.1-.15.18-.19.06-.03.14.04.19 0 .04-.04-.03-.13 0-.18.04-.08.13-.12.18-.19.06-.1.19-.5.37-.55.12-.04.26.05.37 0 .05-.03.04-.14 0-.19-.05-.04-.13.03-.19 0-.45-.22.07-.18-.37-.18-.49 0 .07.06-.18-.18-.04-.05-.13.02-.18 0-.08-.04-.11-.15-.19-.19-.05-.03-.14.05-.18 0-.05-.04.05-.16 0-.18-.11-.06-.27.07-.37 0-.12-.08-.1-.26-.19-.37-.04-.07-.12-.12-.18-.19-.21-.2-.26-.21-.37-.55-.02-.06.04-.14 0-.18-.04-.05-.14.04-.18 0-.1-.1-.13-.25-.19-.37-.12-.06-.27-.09-.37-.19-.04-.04.05-.14 0-.18-.04-.04-.14.04-.18 0-.04-.04.03-.13 0-.18-.08-.17-.44-.39-.55-.56a1.56 1.56 0 01-.19-.37c-.02-.05.05-.14 0-.18-.04-.04-.12.02-.18 0-1.34-.45.29.05-.55-.37-.06-.03-.13 0-.19 0l-.37-.18M271.88 134.56c-.58.62-.56.54-.56 1.1 0 .06.05.14 0 .19-.04.04-.14-.05-.18 0-.05.04 0 .12 0 .18V138.79c.08.1.28-.08.37 0 .04.05-.05.15 0 .19.04.04.12 0 .18 0h.92c.06 0 .19-.06.19 0s-.25 0-.19 0H274.27c.06 0 .14.04.19 0 .04-.04-.05-.14 0-.19.04-.04.14.05.18 0 .04-.03-.04-.48 0-.55.04-.08.16-.1.18-.18.04-.1 0-1.1 0-1.3 0-.05-.02-.12 0-.18.05-.13.15-.24.19-.37.03-.08-.02-.73 0-.73.1-.06.26.05.37 0 .05-.03-.04-.26 0-.37.44-1.34-.06.29.37-.55.02-.06-.03-.13 0-.19.03-.08.14-.1.18-.18.03-.06 0-.47 0-.56M267.64 154.65v-.74c.06-.06.15-.1.18-.19.08-.23-.08-.5 0-.73.03-.09.15-.1.18-.19.06-.11-.05-.62 0-.73.04-.08.15-.11.19-.19.03-.05-.04-.14 0-.18.04-.05.16.05.18 0 .06-.11-.07-.27 0-.37.08-.12.27-.09.37-.19.09-.08-.09-.28 0-.36.04-.05.14.04.19 0 .04-.05 0-.13 0-.19 0-.27-.05-.5.18-.74.04-.04.14.05.18 0 .1-.08-.05-.25 0-.36.12-.23.45-.34.56-.56.18-.37-.37 0 0-.55.07-.12.25-.1.37-.19.26.13.16-.34.18-.36.04-.05.14.04.18 0 .1-.1-.08-.29 0-.37.05-.05.13 0 .19 0 0-.06-.04-.14 0-.19.04-.04.16.06.18 0 .06-.1-.05-.26 0-.37.03-.05.14.05.19 0 .04-.04-.03-.12 0-.18.6-.61-.09.17.18-.37.2-.4.2 0 .56-.18.05-.03 0-.13 0-.19 0-.59-.05.32.18-.37.04-.11-.06-.25 0-.36.19 0 .25.04.37-.19 0-.49-.06.06.18-.18.05-.05-.04-.14 0-.19.05-.04.14.05.19 0 .24-.24-.4-.17.18-.37.12-.03.26.06.37 0 .05-.02-.04-.14 0-.18.04-.04.14.04.18 0 .1-.1.11-.25.19-.37.05-.07.14-.1.18-.18.03-.06-.04-.14 0-.19.05-.04.13.03.19 0 .07-.04.1-.14.18-.18.06-.03.14.04.19 0 .04-.05-.06-.16 0-.19.1-.05.25.04.36 0 .17-.05.22-.29.37-.36.08-.04.52.03.56 0 .49-.5-.19-.31.55-.56.1-.03.43 0 .55 0h1.3c.05 0 .12.03.18 0 .07-.04.1-.14.18-.18.12-.06.87.05.92 0 .05-.05-.04-.14 0-.19h.56c.59 0-.32.05.36-.18.15-.05 1 .05 1.11 0 .08-.04.1-.15.18-.19.12-.05.63.06.74 0 .08-.03.1-.14.19-.18.05-.03.12 0 .18 0s.18-.06.18 0-.24 0-.18 0h.37M272.98 153.9c.75.11.06-1.12.55-1.28.12-.04.29.09.37 0 .14-.14.08-.4.19-.55.03-.06.15.05.18 0 .06-.11-.05-.26 0-.37.2 0 .26.04.37-.19.05-.09-.1-.55 0-.55.12 0-.09.46 0 .37.14-.14.07-.4.18-.55.09-.11.25-.13.37-.19.13-.06.24-.14.37-.18.12-.04.26.05.37 0 .54-.27-.29-.19.55-.19" stroke="#000"/><path d="M278.14 152.07c0-.43-.9-.35-1.1-.74-.03-.06.02-.13 0-.19-.04-.07-.15-.1-.19-.18-.03-.06 0-.12 0-.18 0-.13.04-.26 0-.37-.03-.09-.14-.11-.18-.19-.03-.05.02-.13 0-.18-.04-.08-.15-.1-.19-.19-.02-.05.03-.13 0-.18-.04-.08-.14-.1-.18-.18-.03-.06.04-.15 0-.19-.04-.04-.16.06-.19 0-.05-.1.06-.26 0-.37-.02-.05-.14.05-.18 0-.04-.04 0-.12 0-.18-.12 0-.26.05-.37 0-.08-.04.07-.5 0-.56-.24-.24-.18.31-.18-.18 0-.06.04-.14 0-.18-.05-.05-.14.04-.19 0-.1-.1-.3-.31-.18-.37s.28.46.18.37c-1.1.15-.17-.55-.37-.74-.04-.04-.14.04-.18 0-.04-.04 0-.12 0-.19 0-.06-.04-.14 0-.18.04-.04.14.04.18 0 .05-.04-.04-.14 0-.18.25-.25.18.39.37-.19.04-.11-.04-.25 0-.37.06-.18.46-.3.56-.37.36.02.08-.27.18-.36.04-.05.13.02.18 0 .08-.04.11-.15.19-.19.05-.03.14.04.18 0 .05-.04-.04-.14 0-.18.09-.09.28.08.37 0 .05-.05-.04-.14 0-.19.05-.04.16.06.19 0 .05-.1-.1-.28 0-.37.18-.18.36.1.55 0 .08-.03.1-.14.18-.18.06-.03.13 0 .19 0h1.29c.06 0 .13.03.18 0 .05-.02.23-.33.37-.18v.55c.03.08.15.1.19.18.03.08-.04.52 0 .56.1.1.27.08.36.18.05.04-.02.13 0 .18.04.08.13.13.19.19 0 .12-.04.25 0 .37.03.08.14.1.18.18.06.11-.05.26 0 .37.04.08.15.1.19.18.02.06-.02.13 0 .19.04.19.13.36.18.55.02.06-.04.14 0 .19.04.04.87-.09.74.18-.06.12-.47-.28-.37-.18.4.4.39.36.74.36M235.56 137.69v1.84c0 .12.04.25 0 .37-.04.13-.14.24-.18.37-.04.12 0 .75 0 .92 0 .12-.02.72 0 .74.04.04.14-.05.18 0 .05.04-.04.14 0 .18.05.05.13-.03.19 0 .08.04.12.13.18.19s.15.1.19.18c.02.06-.05.14 0 .19.04.04.12-.02.18 0 .13.04.27.08.37.18.22.22.09.41.37.55.1.06.26-.05.37 0 .07.04.1.15.18.19.06.02.12 0 .19 0 .12.06.25.1.36.18.08.05.11.15.19.19.05.02.12 0 .18 0 .06.06.1.14.19.18.05.03.14-.04.18 0 .04.04-.03.13 0 .18.04.08.14.12.19.19.07.11.08.27.18.37.72.72.1-.05.55.18.08.04.13.12.19.19.06.06.14.1.18.18.03.06-.04.14 0 .18.05.05.13-.02.19 0 .15.08.2.32.36.37.12.04.29-.08.37 0 .09.09-.04.26 0 .37.03.08.15.1.19.19.03.05-.05.14 0 .18.04.04.14-.04.18 0 .05.04-.04.14 0 .18.05.05.12 0 .19 0 .08 0 .5.03.55 0 .08-.03.1-.15.18-.18.1-.03.92 0 1.1 0 .07 0 .14.03.2 0 .54-.27-.3-.18.55-.18h.18c.06 0 .16.05.19 0 .05-.11-.06-.26 0-.37.02-.06.12 0 .18 0 .18 0 1.05.02 1.1 0 .08-.04.11-.15.19-.19.11-.05.28.09.37 0 .04-.04-.04-.14 0-.18.04-.04.13.03.18 0 .08-.04.1-.16.19-.19.11-.03.25.04.37 0 .08-.02.1-.14.18-.18.06-.03.12 0 .18 0h1.29" stroke="#000"/><path d="M235.56 137.69c-.42.21-.23.18-.55.18-.06 0-.13.03-.18 0-.08-.04-.11-.14-.19-.18-.06-.03-.52.06-.55 0-.06-.11.09-.28 0-.37-.09-.09-.25.04-.37 0-.16-.05-.21-.3-.37-.37-.05-.03-.13.03-.18 0-.17-.08-.39-.44-.56-.55-.11-.08-.27-.09-.36-.19-.1-.1-.11-.25-.19-.36-.05-.08-.14-.11-.18-.19-.03-.05.02-.13 0-.18-.11-.22-.45-.34-.56-.56a2.68 2.68 0 01-.18-.55c-.02-.06.04-.14 0-.18-.01-.52-.42-.05-.55-.19-.05-.04.02-.13 0-.18-.42-.42-.05.04-.19-.37-.44-1.34.06.29-.37-.55-.05-.11.06-.26 0-.37-.04-.08-.14-.1-.18-.19-.03-.05 0-.82 0-.92v-2.21-1.47c0-.13-.03-.69 0-.74.04-.08.15-.1.18-.19.03-.05-.02-.13 0-.18.08-.16.3-.21.37-.37.23-.45-.53.17.19-.55.1-.1.27-.09.37-.19.04-.04-.05-.14 0-.18.04-.04.14.04.18 0 .04-.04-.03-.13 0-.19.04-.07.15-.1.18-.18.03-.05-.04-.14 0-.18.05-.05.15.04.19 0 .04-.05-.04-.14 0-.19.04-.04.14.05.18 0 .1-.1.11-.25.19-.37.1-.14.29-.21.37-.37.02-.05-.06-.15 0-.18.1-.05.25.06.36 0 .06-.03-.02-.13 0-.18.04-.08.15-.11.19-.19.03-.05-.04-.14 0-.18.04-.05.14.04.18 0 .05-.05-.02-.13 0-.19.05-.13.14-.24.19-.37.02-.05-.05-.14 0-.18.04-.04.14.04.18 0 .05-.04-.04-.14 0-.18.05-.05.13.02.19 0 .07-.04.1-.16.18-.19.12-.04.26.06.37 0 0-.37-.06-.06.18-.18.08-.04.13-.13.19-.19s.15-.1.18-.18c.04-.12-.05-.26 0-.37.03-.06.12 0 .19 0 .59 0-.32.04.36-.18.12-.04.26.03.37 0 .09-.03.11-.15.19-.19.05-.03.13.03.18 0 .08-.04.1-.14.19-.18.05-.03.13.02.18 0 .08-.04.1-.15.19-.19.05-.03.12.02.18 0 .13-.04.24-.14.37-.18.11-.04.24 0 .37 0h2.76c.06 0 .19-.06.19 0s-.25 0-.19 0c.12 0 .25-.04.37 0 .08.03.1.14.18.18.06.03.13-.03.19 0 .08.04.11.14.18.19.12.07.26.1.37.18.14.1.23.27.37.37.05.03.14-.04.18 0 .05.04-.02.13 0 .18.04.08.13.13.19.19s.11.13.18.18c.12.08.24.14.37.19.06.02.14-.05.19 0 .04.04-.05.14 0 .18.04.04.13-.03.18 0 .08.04.1.15.19.19.05.02.14-.05.18 0 .04.04-.02.12 0 .18l.18.37c.07 0 .14-.04.19 0 .04.04-.05.14 0 .18.1.1.25.11.37.19.16.1.39.47.55.55.05.03.14-.04.18 0 .05.04-.04.14 0 .18.05.05.16-.05.19 0 .05.11-.06.26 0 .37.03.06.12-.02.18 0 .13.05.27.09.37.19.04.04-.04.14 0 .18.04.05.14-.04.19 0 .04.05-.05.14 0 .19.04.04.14-.05.18 0 .04.04-.03.13 0 .18.08.16.31.2.37.37.04.12-.06.26 0 .37.03.05.14-.05.18 0 .09.08-.05.26 0 .37.04.07.15.1.19.18.02.06-.05.14 0 .18.04.05.14-.04.18 0 .05.05-.04.7 0 .74.09.09.26-.05.37 0 .06.03 0 .13 0 .19v.37c0 .06-.03.12 0 .18.04.08.15.1.18.18.06.12-.05 1 0 1.11.04.08.15.1.19.18.03.06 0 .13 0 .19V130.5c0 .12-.03.25 0 .37.05.19.14.36.18.55.04.15 0 .73 0 .92 0 .13.04.26 0 .37-.44 1.34.06-.29-.37.55-.02.06.05.15 0 .19-.04.04-.14-.04-.18 0-.04.04.06.16 0 .18-1.04 0-.06-.12-.37.19-.04.04-.14-.05-.18 0-.05.04.02.13 0 .18-.42.85.07-.78-.37.56-.02.05.04.14 0 .18-.04.04-.14-.04-.19 0-.04.04.05.14 0 .18-.04.05-.14-.04-.18 0-.04.05.04.14 0 .19-.04.04-.14-.05-.18 0-.05.04.05.15 0 .18-.17.11-.42.05-.56.19-.08.08.06.26 0 .37-.02.05-.13-.03-.18 0-.08.03-.12.12-.19.18l-.18.18c-.06.07-.1.16-.18.19-.12.04-.26-.04-.37 0-.17.05-.22.29-.37.37-.06.02-.13-.03-.19 0-.15.07-.2.29-.36.37-.06.02-.16-.06-.19 0-.05.1.09.28 0 .36-.09.1-.26-.05-.37 0-.05.03.05.15 0 .19-.08.09-.26-.06-.37 0-.07.04-.1.14-.18.18-.06.03-.14-.04-.19 0-.04.05.05.14 0 .19-.04.04-.12-.03-.18 0-.15.07-.2.31-.37.37-.08.02-.65-.05-.74 0-.07.03-.1.14-.18.18-.05.02-1.02 0-1.1 0-.07 0-.16-.05-.19 0-.05.11.05.26 0 .37-.03.05-.12 0-.18 0-.18 0-.82.03-.93 0-.08-.03-.1-.15-.18-.19-.11-.05-.26.06-.37 0-.08-.03-.1-.14-.18-.18-.06-.03-.14.04-.19 0-.04-.04.05-.14 0-.18-.04-.05-.12 0-.18 0-.12 0-.26.05-.37 0-.06-.03.04-.15 0-.19-.09-.09-.28.09-.37 0-.04-.04 0-.12 0-.18l-.74-.37" stroke="#000"/><path d="M248.65 131.24v1.1c0 .06.03.13 0 .19-.04.08-.16.1-.18.18-.04.12 0 .25 0 .37 0 .06.02.13 0 .18-.04.08-.15.11-.19.19-.07.15.08.4 0 .55-.04.08-.14.1-.18.19-.03.05 0 .12 0 .18 0 .12.04.25 0 .37-.03.08-.15.1-.19.18-.05.11.09.29 0 .37-.1.1-.27.09-.37.19-.08.08.1.28 0 .37-.04.04-.12 0-.18 0 0 .12.06.25 0 .36-.03.06-.14-.04-.18 0-.05.05.02.13 0 .19-.39.77 0-.2-.37.18-.05.05.04.14 0 .19-.05.04-.14-.05-.19 0-.04.04.03.13 0 .18-.14.28-.33.15-.55.37-.1.1-.1.25-.18.37-.05.07-.15.1-.19.18-.03.06.03.13 0 .19-.2.39-.17-.03-.37.37-.02.05.03.13 0 .18-.04.08-.15.1-.18.18-.04.12.05.26 0 .37-.25.5-.19-.55-.19.19M282.2 125.34c-.25 0-.51-.1-.74 0-.13.05-.1.25-.18.37-.1.14-.25.24-.37.37l-.19.18c-.06.06-.1.15-.18.18-.06.03-.12 0-.19 0-.12 0-.25-.03-.36 0-.09.03-.13.13-.19.19-.12.12-.2.3-.37.37-.17.07-.37-.05-.55 0-.09.02-.1.14-.19.18-.07.04-.84 0-.92 0h-2.58c-.1-.1-.07-.29-.18-.37-.09-.05-.81.06-.92 0-.08-.04-.11-.14-.19-.18-.08-.04-.65.03-.73 0-.09-.03-.11-.15-.19-.19-.05-.02-.14.05-.18 0-.05-.04.04-.14 0-.18-.05-.04-.13 0-.19 0h-.18c-.5 0 .06.06-.19-.18-.04-.05-.69.04-.73 0-.05-.05.04-.14 0-.19-.05-.04-.13.03-.19 0-.08-.04-.1-.14-.18-.18-.08-.04-.52.04-.56 0-.1-.1-.07-.3-.18-.37-.1-.07-.25.04-.37 0-.08-.03-.1-.15-.18-.19-.06-.02-.14.05-.19 0-.04-.04.05-.14 0-.18-.04-.04-.13.03-.18 0-.08-.04-.1-.15-.19-.18-.05-.03-.14.04-.18 0-.04-.05.04-.14 0-.19-.04-.04-.14.05-.18 0-.05-.04.05-.16 0-.18-.11-.06-.25 0-.37 0-.06 0-.14.04-.19 0-.04-.05.05-.14 0-.19-.04-.04-.14.05-.18 0-.1-.1-.11-.25-.19-.37-.04-.07-.12-.12-.18-.18s-.1-.15-.18-.18c-.06-.03-.15.04-.19 0-.04-.05.04-.15 0-.19-.1-.1-.25-.1-.37-.18-.07-.05-.1-.15-.18-.19-.06-.02-.14.05-.19 0-.04-.04.05-.14 0-.18-.04-.04-.15.05-.18 0-.06-.11.05-.26 0-.37-.03-.06-.13.01-.18 0-.2-.05-.4-.08-.56-.18-.05-.04.03-.13 0-.19-.04-.08-.12-.12-.18-.18s-.1-.15-.19-.19c-.05-.02-.14.05-.18 0-.04-.04.04-.14 0-.18-.04-.05-.12 0-.18 0-.07-.06-.14-.11-.19-.19a1.56 1.56 0 01-.18-.36c-.02-.06.04-.15 0-.19-.1-.1-.26-.1-.37-.18-.07-.05-.1-.15-.19-.19-.05-.03-.14.05-.18 0-.09-.08.05-.26 0-.37-.04-.07-.14-.1-.19-.18l-.18-.37c0-.06.03-.13 0-.18-.08-.16-.29-.22-.37-.37-.05-.11.09-.28 0-.37-.1-.1-.3-.07-.37-.19-.06-.1.04-.25 0-.36-.02-.09-.14-.11-.18-.19-.03-.05.03-.13 0-.18-.04-.08-.15-.1-.19-.19-.02-.05.05-.14 0-.18-.04-.04-.14.04-.18 0-.09-.09.06-.26 0-.37-.04-.08-.16-.1-.18-.18-.03-.09.04-.66 0-.74-.04-.08-.15-.1-.19-.19-.02-.04 0-1.02 0-1.1v-2.4-2.03c0-.16-.04-.8 0-.92.05-.13.14-.24.19-.37.02-.05-.03-.13 0-.18.1-.22.44-.33.55-.55.05-.11-.11-.32 0-.37.1-.06.28.09.37 0 .08-.09-.06-.26 0-.37.03-.06.14.04.18 0 .09-.09-.05-.26 0-.37.11-.22.44-.33.55-.55.03-.06 0-.12 0-.19.07-.12.11-.25.19-.36.3-.45.06.06.55-.19.06-.03-.03-.13 0-.18.04-.08.12-.13.19-.19l.55-.55c.06-.06.14-.11.18-.19.08-.1.1-.27.19-.36.1-.1.25-.11.37-.19.14-.1.21-.29.37-.37.05-.02.12.03.18 0 .77-.38-.2.02.18-.37.1-.08.29.1.37 0 .05-.04-.03-.13 0-.18-.16-.85.4-.21.56-.37.04-.04-.05-.14 0-.18.04-.05.14.04.18 0 .04-.05-.04-.14 0-.19.38-.38-.01.59.37-.18.03-.06-.04-.14 0-.19.04-.04.14.05.18 0 .05-.04-.04-.14 0-.18.05-.04.13.03.19 0 .07-.04.1-.16.18-.18.12-.04.27.06.37 0 .67-.45-.2-.27.37-.56.05-.02.13.03.18 0 .08-.04.11-.14.19-.18.05-.03.13.03.18 0 .08-.04.1-.16.19-.19.84 0 0 .1.55-.18.05-.03.14.04.18 0 .05-.04-.04-.14 0-.18.05-.05.13.02.19 0 .08-.04.1-.15.18-.19.06-.03.14.04.19 0 .1-.1.07-.3.18-.37 1.05 0 .06.13.37-.18.1-.1.46.09.55 0 .05-.05-.04-.14 0-.19.05-.04.13.03.19 0 .07-.03.1-.14.18-.18.06-.03.13.01.19 0 .18-.05.36-.15.55-.18.14-.03 1.02.04 1.1 0 .08-.04.11-.15.19-.19.05-.03.47 0 .55 0h2.95c.06 0 .13-.03.18 0 .23.11.34.44.56.55.1.06.25-.03.37 0 .75.25-.02.1.73.56.17.1.37.13.56.18.07.02.34-.02.37 0 .04.04-.05.14 0 .19.15.15.35.27.55.36.05.03.14-.04.18 0 .05.05-.04.15 0 .19.09.09.26-.06.37 0 .08.04.1.14.19.18.07.04.51-.03.55 0 .04.05-.06.16 0 .19.1.05.25-.04.37 0 .08.02.1.14.18.18.06.03.13-.03.19 0 .07.04.1.15.18.19.11.05.26-.06.37 0 .08.03.12.12.18.18.13 0 .26-.04.37 0 .4.13.01.3.19.55.07.12.25.11.36.19.08.05.12.13.19.18.11.08.25.11.37.19.07.04.12.12.18.18s.14.11.19.18c.07.12.1.26.18.37.25.38.43 0 .55.37.04.12-.05.26 0 .37.03.06.13-.02.19 0 .13.04.29.07.37.18.37.56-.19.19 0 .56.04.08.14.1.18.18.03.06-.03.13 0 .19.04.07.15.1.19.18.1.2-.1.17 0 .37.03.08.15.1.18.18.04.12-.04.26 0 .37.03.08.16.1.18.19.04.11-.05.26 0 .37.03.05.14-.05.19 0 .04.04-.03.12 0 .18.04.08.16.1.18.18.02.05-.02.9 0 .93.1.1.27.08.37.18.04.04-.03.13 0 .18.04.08.16.1.19.19v.55c.04.05.14-.04.18 0 .09.09-.09.28 0 .37.04.04.14-.04.18 0 .05.04 0 .12 0 .18 0 .25-.06.5 0 .74.03.09.15.1.19.19.04.07-.04.51 0 .55.04.04.14-.04.18 0 .05.04 0 .12 0 .18V114.1c0 .13.02 1.07 0 1.1-.2.34-.49.62-.73.92" stroke="#000"/><path d="M280.17 129.4h-1.84c-.13 0-.26.05-.37 0-.06-.03.04-.15 0-.19-.05-.04-.13 0-.19 0h-.92c-.07 0-.84-.04-.92 0-.08.04-.1.15-.18.18-.06.03-.13 0-.19 0h-1.48c-.05 0-.13.05-.18 0-.04-.04.05-.14 0-.18-.04-.04-.12.02-.18 0-.13-.04-.24-.14-.37-.18-.11-.04-.34.04-.37 0-.05-.11.06-.26 0-.37-.03-.06-.13.02-.18 0-.08-.04-.11-.15-.19-.19-.05-.03-.14.05-.18 0-.05-.04.04-.14 0-.18-.05-.05-.12 0-.19 0-.12 0-.26.05-.37 0-.05-.03.05-.14 0-.19-.09-.09-.46.1-.55 0-.04-.04.05-.14 0-.18-.09-.1-.46.1-.55 0-.04-.04.05-.16 0-.18-.15-.08-.4.07-.55 0-.08-.04-.11-.15-.19-.19-.05-.03-.16.06-.18 0-.06-.1.05-.26 0-.37-.03-.05-.14.05-.19 0-.04-.04.05-.14 0-.18-.04-.05-.13.03-.18 0-.08-.04-.12-.13-.19-.19-.12 0-.25.04-.36 0-.58-.19.06-.12-.19-.37-.12-.12-.24.13-.37 0-.04-.04.05-.14 0-.18-.04-.04-.12 0-.18 0-.06-.06-.14-.11-.19-.18-.06-.1-.18-.5-.36-.56-.12-.04-.26.06-.37 0-.06-.02.02-.13 0-.18-.08-.16-.3-.21-.37-.37-.03-.05.04-.14 0-.18-.05-.05-.14.04-.19 0-.04-.05.03-.13 0-.19-.03-.08-.15-.1-.18-.18-.04-.12.09-.28 0-.37-.14-.14-.42-.05-.55-.19-.09-.08.02-.24 0-.36-.04-.2-.14-.37-.19-.56-.01-.06.05-.14 0-.18-.04-.04-.14.04-.18 0-.05-.04.02-.13 0-.19-.05-.13-.14-.23-.19-.36-.02-.06.03-.13 0-.19-.04-.08-.14-.1-.18-.18-.03-.06.04-.14 0-.19-.1-.1-.27-.08-.37-.18-.38-.38.58.01-.18-.37-.06-.03-.19.06-.19 0s.19.06.19 0c0-.28-.23-.38-.37-.55-.2-.24-.37-.5-.56-.74M252.7 131.97c-.18-.24-.39-.47-.55-.73-.03-.06 0-.13 0-.19v-.18-1.1-.2c0-.05-.04-.13 0-.18.12-.1.48-.15.56-.36v-.56c.04-.04.14.05.18 0 .09-.08-.09-.28 0-.37.04-.04.14.05.18 0 .05-.04-.02-.13 0-.18.04-.08.15-.1.19-.18.03-.06.04-.23 0-.19-.1.1-.25.5-.19.37.13-.25.2-.52.37-.74.04-.05.19-.06.19 0s-.25 0-.19 0h.56c.06 0 .18-.06.18 0s-.18-.06-.18 0c0 .09.14.1.18.19.03.05-.03.13 0 .18.04.08.15.1.18.19.03.05 0 1.02 0 1.1V131.61c0 .06.05.14 0 .18-.04.04-.12-.02-.18 0-.13.04-.24.14-.37.18-.06.02-.14-.04-.18 0-.05.05.04.15 0 .19-.05.04-.13.01-.19 0-.25-.05-.49-.12-.73-.19z" stroke="#000"/><path d="M258.24 127.37c-.43-.07-.1-.84-.19-1.1-.04-.14-.14-.25-.18-.38-.04-.11.08-.28 0-.37-.05-.04-.14.05-.19 0-.04-.04.05-.14 0-.18-.1-.1-.27-.09-.37-.19-.04-.04.03-.12 0-.18-.04-.08-.14-.1-.18-.18-.03-.06 0-1.1 0-1.3 0-.3-.06-.18.37-.18.13 0 .85-.03.92 0 .08.04.1.16.18.19.12.03.26-.04.37 0 .17.05.22.29.37.36.06.03.14-.04.19 0 .04.05-.05.15 0 .19.04.04.14-.04.18 0 .1.1.14.24.18.37.02.06-.04.14 0 .18.05.05.13-.03.19 0 .08.04.11.14.18.19.12.07.27.08.37.18.04.04-.03.13 0 .18.04.08.15.11.19.19.02.05-.03.13 0 .18.03.08.15.1.18.19v.55c.04.04.14-.04.18 0 .1.09-.05.26 0 .37.04.08.15.1.19.18.06.12-.06.62 0 .74.03.06.14-.04.18 0 .1.1-.09.46 0 .55.05.05.14-.04.19 0 .04.05 0 .13 0 .19V129.2c0 .06.06.18 0 .18s.06-.18 0-.18c-.09 0-.1.15-.19.18-.05.03-.12 0-.18 0h-.19c-.06 0-.18.07-.18 0 0-.06.25 0 .18 0h-.36c-.13 0-.26.06-.37 0-.06-.02.04-.14 0-.18-.09-.09-.32.11-.37 0 0-1.04.12-.06-.19-.37-.04-.04.05-.14 0-.18-.04-.05-.18-.06-.18 0 0 .08.25.24.18.18-.12-.12-.22-.27-.36-.37-.1-.07-.29.09-.37 0-.05-.04.05-.15 0-.18-.11-.06-.26.04-.37 0-.08-.03-.1-.15-.19-.19-.05-.02-.14.05-.18 0-.04-.04.01-.12 0-.18-.05-.19-.12-.37-.18-.55z" fill="#000" stroke="#000"/><path d="M252.82 132.46c-.7-.18-1.01-.8-1.02-2.09 0-.66.08-1.29.18-1.39.1-.1.4-.63.69-1.19.44-.87.59-1.01 1.1-1.06.83-.08.97.38.97 3.1V132l-.58.3c-.6.29-.73.3-1.34.15zm1-1.16c0-.1-.03-.18-.08-.18-.04 0-.13.08-.2.18-.06.1-.02.19.09.19.1 0 .2-.09.2-.19zM259.8 129.4c-.3-.24-.8-.58-1.12-.74-.58-.3-1.3-1.62-1.07-1.98.06-.1-.1-.55-.37-1a2.61 2.61 0 01-.43-1.8c.06-1.09.2-1.17 1.53-.97.62.09 1 .32 1.81 1.1.92.9 1.08 1.17 1.5 2.58.3.94.47 1.89.43 2.36l-.06.79-.85.05c-.68.04-.95-.03-1.38-.39z" fill="#000" stroke="#000" stroke-width=".18"/><path d="M236.85 92.16l-.73-.55c-.13 0-.27.07-.37 0-.12-.08-.09-.27-.19-.37-.27 0-.14.04-.37-.18-.06-.07-.14-.11-.18-.19-.03-.05.04-.14 0-.18-.04-.05-.13.02-.18 0-.08-.04-.12-.14-.19-.19-.11-.07-.25-.1-.37-.18-.14-.1-.21-.3-.37-.37-.05-.03-.14.04-.18 0-.1-.1-.09-.27-.18-.37-.05-.04-.13.03-.19 0-.08-.04-.12-.12-.18-.18-.13 0-.25.04-.37 0-.08-.03-.12-.13-.19-.19-.06-.06-.14-.1-.18-.18-.03-.06.04-.14 0-.19-.04-.04-.13.03-.18 0-.77-.38.2.02-.19-.37-.04-.04-.16.06-.18 0-.06-.1 0-.24 0-.36v-.37-1.85c0-.14.03-.66 0-.73-.09-.2-.27-.36-.37-.56-.03-.05 0-.12 0-.18 0-.04.03-1.04 0-1.1-.23-.46-.19.06-.19-.38M235.56 94.19c-1.9.76-1.18.74-2.02.74-.07 0-.16.05-.19 0-.05-.11.09-.29 0-.37-.09-.09-.25.04-.37 0-.14-.05-.56-.66-.73-.74-.26-.13-.17.22-.37-.18-.03-.06.05-.16 0-.19-.11-.05-.27.07-.37 0-.52-.01-.05-.41-.19-.55-.04-.05-.14.04-.18 0-.04-.05.04-.14 0-.19-.04-.04-.13.03-.18 0-.08-.03-.11-.14-.19-.18-.05-.03-.14.04-.18 0-.05-.04.04-.14 0-.18-.05-.05-.13.01-.19 0-1.33-.45.3.05-.55-.37-.06-.03-.13.02-.18 0-.22-.1-.26-.39-.37-.56-.05-.07-.13-.12-.19-.18s-.11-.14-.18-.18c-.12-.08-.27-.1-.37-.19-.04-.04.04-.14 0-.18-.04-.05-.14.04-.19 0-.08-.09.04-.26 0-.37-.04-.13-.14-.24-.18-.37-.07-.2.08-.77 0-.92-.03-.06-.16.05-.18 0-.09-.17 0-.37 0-.56v-1.29M230.96 102.67h-2.03c-.5 0 .06.06-.19-.19H227.1c-.09 0-.5-.03-.56 0-.08.04-.1.16-.18.19-.05.01-.9-.02-.92 0-.05.04.04.14 0 .18-.05.05-.15-.04-.19 0-.97.98.94-.28-.74.55-.18.1-.55.65-.73.74-.46.23.16-.53-.56.19-.04.04.13 0 .19 0M228.93 107.1c-.25.24-.47.51-.74.73-.05.04-.12 0-.18 0-.13 0-.26-.06-.37 0-.06.03.04.14 0 .18-.09.09-.28-.08-.37 0-.04.05.04.14 0 .19-.04.04-.13-.03-.19 0-.07.04-.1.14-.18.18-.05.03-.16-.05-.18 0-.06.11.05.26 0 .37-.04.07-.37-.1-.56 0-.05.03.05.14 0 .18-.09.1-.46-.09-.55 0-.04.05.06.16 0 .19-.11.05-.25-.03-.37 0-.19.04-.36.15-.55.18-.1.02-1.22-.03-1.3 0-.07.04-.11.13-.18.19-.12 0-.25-.04-.36 0-.69.23.22.18-.37.18M269.11 78.34c-1.77-1.42-.49-.18-1.1-1.1-.1-.15-.3-.22-.37-.38-.03-.05.04-.14 0-.18-.1-.1-.28-.09-.37-.19-.05-.04.04-.14 0-.18-.05-.04-.14.04-.19 0-.04-.04.02-.13 0-.18-.2-.64-.18-.14-.18-.56M275.56 80.73c2.2.87.23-.76.55-.92.11-.05.26.06.37 0 .11-.05-.05-.26 0-.37.04-.07.15-.1.19-.18.02-.06 0-.12 0-.19v-.55-.18c0-.06-.03-.13 0-.19.04-.08.14-.1.18-.18.03-.06 0-.76 0-.92 0-.06-.04-.14 0-.19.05-.04.14.05.19 0 .04-.04 0-.12 0-.18v-1.1-.2c0-.05-.05-.13 0-.18.1-.1.27-.08.36-.18.02-.02 0-.85 0-.92M279.43 78.89l.19-.74c.06-.06.14-.1.18-.18.03-.06-.02-.13 0-.19.04-.13.14-.23.19-.36.01-.06-.05-.15 0-.19.1-.1.27-.09.36-.18.05-.05-.02-.13 0-.19.04-.08.15-.1.19-.18.05-.11-.09-.28 0-.37.04-.04.15.05.18 0 .06-.11 0-.25 0-.37v-.92M295.47 91.8c.24-.2.47-.4.74-.56.1-.06.25.05.36 0 .08-.04.11-.15.19-.18.05-.03.13.02.18 0 .85-.43-.78.07.56-.37.05-.02.13.02.18 0 .08-.04.1-.15.18-.19.11-.05.26.06.37 0 .08-.04.11-.14.19-.18.05-.03.93 0 1.1 0h.74c.12 0 .25-.03.37 0 .19.04.36.14.55.18.12.03.25 0 .37 0h1.1M295.28 103.04h1.66c.06 0 .13-.03.19 0 .07.03.1.15.18.18.1.04.75 0 .92 0 .06 0 .14-.04.19 0 .1.1.08.27.18.37h.55c.69.23-.22.18.37.18M289.57 84.6l.74-.36c0-.07-.05-.15 0-.19.38-.38-.02.58.37-.18.07-.15-.08-.4 0-.56.02-.05.14.05.18 0 .1-.09-.1-.46 0-.55.04-.04.14.04.18 0 .1-.09-.08-.28 0-.37.05-.04.15.05.19 0 .04-.04 0-.12 0-.18v-.92c0-.07-.04-.14 0-.19.04-.04.14.05.18 0 .07-.06-.06-.62 0-.74.03-.05.14.05.19 0 .04-.04 0-.12 0-.18V80" stroke="#000"/><circle cx="277.68" cy="112.34" r=".46" fill="#000" stroke="#000"/><circle cx="236.67" cy="128.1" r=".46" fill="#000" stroke="#000"/><rect width="102.67" height="102.67" x="221.56" y="73.94" ry="17.88" stroke="#000"/><g fill="#fff" stroke="#000" stroke-width="2.5"><path d="M13.32 334.07h319.24V228.28H13.32zM13.32 249.44h319.24M13.32 270.6h319.24M13.32 291.76h319.24M13.32 312.92h319.24M34.48 228.3v21.14M55.64 228.3v21.14M76.79 228.3v21.14M97.94 228.3v21.14M119.1 228.3v21.14M140.25 228.3v21.14M161.41 228.3v21.14M182.56 228.3v21.14M203.72 228.3v21.14M203.72 228.3v21.14M224.87 228.3v21.14M246.03 228.3v21.14M267.19 228.3v21.14M288.34 228.3v21.14M44.08 249.44v21.16M65.24 249.44v21.16M86.39 249.44v21.16M107.54 249.44v21.16M128.7 249.44v21.16M149.85 249.44v21.16M171.01 249.44v21.16M192.16 249.44v21.16M213.32 249.44v21.16M234.47 249.44v21.16M255.63 249.44v21.16M276.79 249.44v21.16M297.94 249.44v21.16M50.12 270.6v21.16M71.28 270.6v21.16M92.44 270.6v21.16M113.59 270.6v21.16M134.74 270.6v21.16M155.9 270.6v21.16M177.05 270.6v21.16M198.21 270.6v21.16M219.36 270.6v21.16M240.52 270.6v21.16M261.67 270.6v21.16M282.83 270.6v21.16M59.72 291.76v21.16M80.88 291.76v21.16M102.04 291.76v21.16M123.19 291.76v21.16M144.34 291.76v21.16M165.5 291.76v21.16M186.65 291.76v21.16M207.81 291.76v21.16M228.96 291.76v21.16M250.12 291.76v21.16M271.27 291.76v21.16M44.08 312.92v21.15M65.24 312.92v21.15M297.94 312.92v21.15M255.63 312.92v21.15M276.79 312.92v21.15M97.24 312.92v21.15M223.63 312.92v21.15" stroke-width="2"/></g><path stroke="#000" stroke-width="2" d="M38.62 71.44h115.74v62.04H38.62z"/><path d="M106.11 93.8q0 2.24-.8 4-.8 1.73-2.1 3.07-1.27 1.3-2.93 2.44-1.66 1.14-3.53 2.21v5.13h-4.08v-6.95l3.19-1.85q1.73-1 2.82-2.03 1.33-1.18 2.05-2.43.73-1.28.73-3.24 0-2.57-1.75-3.83-1.73-1.27-4.49-1.27-2.46 0-4.67.77-2.19.78-3.46 1.57h-.23v-4.65q1.6-.61 4.03-1.09 2.46-.5 4.65-.5 4.9 0 7.72 2.4 2.85 2.36 2.85 6.26zm-9 25.96h-4.65v-4.8h4.65z" font-size="46.67" aria-label="?" style="font-size:46.66666794px" font-weight="400" font-family="sans-serif" letter-spacing="0" word-spacing="0" fill="#000"/></svg>