<svg version="1.1" id="Layer_1" xmlns="http://www.w3.org/2000/svg" xmlns:xlink="http://www.w3.org/1999/xlink" x="0" y="0" viewBox="0 0 348 348" xml:space="preserve"><style>.st1{fill-opacity:0}.st2{fill:#fff}.st3,.st4{stroke:#000;stroke-miterlimit:10}.st3{stroke-width:2;stroke-linejoin:round;fill:none}.st4{fill:#fff}.st5{font-family:&apos;LucidaConsole&apos;}.st6{font-size:60px}</style><defs><path id="SVGID_1_" d="M0 0h348v348H0z"/></defs><clipPath id="SVGID_2_"><use xlink:href="#SVGID_1_" overflow="visible"/></clipPath><g clip-path="url(#SVGID_2_)"><path class="st1" d="M0 0h348v348H0V0z"/><path class="st2" d="M-6 0h348v348H-6V0z"/><path class="st1" d="M5.1 5.8H342v337.7H5.1V5.8z"/><path class="st3" d="M5.1 5.8H342v337.7H5.1V5.8z"/><path class="st2" d="M282.7 40.6c0-8.4 7-15.2 15.6-15.2 4.1 0 8.1 1.6 11 4.4 2.9 2.8 4.6 6.7 4.6 10.7 0 8.4-7 15.2-15.6 15.2s-15.6-6.8-15.6-15.1z"/><path class="st3" d="M282.7 40.6c0-8.4 7-15.2 15.6-15.2 4.1 0 8.1 1.6 11 4.4 2.9 2.8 4.6 6.7 4.6 10.7 0 8.4-7 15.2-15.6 15.2s-15.6-6.8-15.6-15.1z"/></g><path class="st4" d="M15 23.6h255.3v36.7H15zM15 78.2h255.3v255.3H15z"/><path class="st4" d="M18.3 81.6h121.3v121.3H18.3zM145.7 81.6H267v121.3H145.7zM18.3 208.9h121.3v121.3H18.3zM145.7 208.9H267v121.3H145.7z"/><text transform="translate(60.924 160.224)" class="st5 st6">A</text><text transform="translate(188.424 160.224)" class="st5 st6">B</text><text transform="translate(60.924 288.89)" class="st5 st6">C</text><text transform="translate(188.424 288.89)" class="st5 st6">D</text><text transform="translate(86.334 47.89)" class="st5" font-size="21">&lt;Display&gt;</text></svg>