<?xml version="1.0" encoding="utf-8"?>
<!-- Generator: Adobe Illustrator 21.0.1, SVG Export Plug-In . SVG Version: 6.00 Build 0)  -->
<svg version="1.1" id="Layer_1" xmlns="http://www.w3.org/2000/svg" xmlns:xlink="http://www.w3.org/1999/xlink" x="0px" y="0px"
	 viewBox="0 0 348 348" style="enable-background:new 0 0 348 348;" xml:space="preserve">
<style type="text/css">
	.st0{clip-path:url(#SVGID_2_);}
	.st1{fill-opacity:0;}
	.st2{fill:#FFFFFF;}
	.st3{fill:none;stroke:#000000;stroke-width:2;stroke-linejoin:round;stroke-miterlimit:10;}
	.st4{fill:#FFFFFF;stroke:#000000;stroke-miterlimit:10;}
	.st5{font-family:'LucidaConsole';}
	.st6{font-size:60px;}
	.st7{font-size:21px;}
</style>
<g>
	<defs>
		<rect id="SVGID_1_" y="0" width="348" height="348"/>
	</defs>
	<clipPath id="SVGID_2_">
		<use xlink:href="#SVGID_1_"  style="overflow:visible;"/>
	</clipPath>
	<g class="st0">
		<path class="st1" d="M0,0h348v348H0V0z"/>
		<path class="st2" d="M-6,0h348v348H-6V0z"/>
		<path class="st1" d="M5.1,5.8H342v337.7H5.1L5.1,5.8z"/>
		<path class="st3" d="M5.1,5.8H342v337.7H5.1L5.1,5.8z"/>
		<path class="st2" d="M282.7,40.6L282.7,40.6c0-8.4,7-15.2,15.6-15.2l0,0c4.1,0,8.1,1.6,11,4.4c2.9,2.8,4.6,6.7,4.6,10.7l0,0
			c0,8.4-7,15.2-15.6,15.2l0,0C289.7,55.7,282.7,48.9,282.7,40.6z"/>
		<path class="st3" d="M282.7,40.6L282.7,40.6c0-8.4,7-15.2,15.6-15.2l0,0c4.1,0,8.1,1.6,11,4.4c2.9,2.8,4.6,6.7,4.6,10.7l0,0
			c0,8.4-7,15.2-15.6,15.2l0,0C289.7,55.7,282.7,48.9,282.7,40.6z"/>
	</g>
</g>
<rect x="15" y="23.6" class="st4" width="255.3" height="36.7"/>
<rect x="15" y="78.2" class="st4" width="255.3" height="255.3"/>
<rect x="18.3" y="81.6" class="st4" width="121.3" height="121.3"/>
<rect x="145.7" y="81.6" class="st4" width="121.3" height="121.3"/>
<rect x="18.3" y="208.9" class="st4" width="121.3" height="121.3"/>
<rect x="145.7" y="208.9" class="st4" width="121.3" height="121.3"/>
<text transform="matrix(1 0 0 1 60.9239 160.2235)" class="st5 st6">A</text>
<text transform="matrix(1 0 0 1 188.4238 160.2235)" class="st5 st6">B</text>
<text transform="matrix(1 0 0 1 60.9238 288.89)" class="st5 st6">C</text>
<text transform="matrix(1 0 0 1 188.4238 288.89)" class="st5 st6">D</text>
<text transform="matrix(1 0 0 1 86.3335 47.89)" class="st5 st7">&lt;Display&gt;</text>
</svg>
