<svg width="348" height="348" xmlns="http://www.w3.org/2000/svg"><path fill="red" stroke="#000" stroke-width="2" fill-opacity=".3" d="M4 5h340v340H4z"/><circle fill="#fff" stroke="#000" stroke-width="2" stroke-dasharray="null" stroke-linejoin="null" stroke-linecap="null" cx="296.667" cy="38.667" r="15"/><path fill="#fff" stroke="#000" stroke-width="2" stroke-dasharray="null" stroke-linejoin="null" stroke-linecap="null" d="M14.25 16.5h130.062v51.75H14.25z"/><text stroke="#000" stroke-width="0" stroke-dasharray="null" stroke-linejoin="null" stroke-linecap="null" x="66.063" y="44.511" font-size="24" font-family="Monospace" text-anchor="middle" transform="matrix(1.53885 0 0 1.34545 -24.254 -8.809)">CHECK</text><path fill="#fff" stroke="#000" stroke-width="2" stroke-dasharray="null" stroke-linejoin="null" stroke-linecap="null" d="M54 101h236v236H54z"/><path stroke="#000" stroke-width="2" stroke-dasharray="null" stroke-linejoin="null" stroke-linecap="null" d="M14 110h109v23H14zm2 78h75v23H16z"/><path stroke="#000" stroke-width="2" stroke-dasharray="null" stroke-linejoin="null" stroke-linecap="null" d="M65 128h26v169.875H65zm75-25h23.5v30H140zm110 39h69v22h-69zm40.844 46.469h29v21h-29zM177 298h138v22H177zm-74.875-110H200v23h-97.875zM102 143h133v21H102zM16.5 298.312h107.438v22.5H16.5zm1.125-37.687H52.5v21.938H17.625z"/><path stroke="#000" stroke-width="2" stroke-dasharray="null" stroke-linejoin="null" stroke-linecap="null" d="M102.563 206.625h20.25v72h-20.25z"/><path stroke="#000" stroke-width="2" stroke-dasharray="null" stroke-linejoin="null" stroke-linecap="null" d="M118.875 224.766h112.5v24.609h-112.5z"/><path stroke="#000" stroke-width="2" stroke-dasharray="null" stroke-linejoin="null" stroke-linecap="null" d="M140.813 246h22.5v90h-22.5zM210 187.5h65.25v24.188H210z"/><path stroke="#000" stroke-width="2" stroke-dasharray="null" stroke-linejoin="null" stroke-linecap="null" d="M253.313 211.125h21.937v70.313h-21.937zm-74.25 50.062h74.25v20.25h-74.25zm.562-150.75h95.625v20.25h-95.625zm111.781 114.727h29v23.531h-29z"/></svg>