<svg xmlns="http://www.w3.org/2000/svg" viewBox="0 0 348 348" fill="none" version="1.1" id="svg849"><style id="style835"/><path d="M5.079 5.776h336.913v337.67H5.08z" stroke-width="2" stroke="#000" id="path845"/><path d="M282.734 40.554c0-8.376 6.966-15.165 15.56-15.165 4.126 0 8.084 1.597 11.001 4.441 2.918 2.844 4.558 6.702 4.558 10.724 0 8.376-6.966 15.165-15.56 15.165-8.593 0-15.559-6.79-15.559-15.165z" stroke-width="2" stroke="#000" id="path847"/><path id="rect897" fill="none" stroke="#000" stroke-width="1.59" d="M54.324 53.161h153.031v153.031H54.324z"/><path id="rect899" fill="#000" stroke="none" stroke-width="1.475" d="M61.353 59.741h22.108v22.108H61.353z"/><path id="rect901" fill="#000" stroke="none" stroke-width="1.475" d="M61.353 89.241h22.108v22.108H61.353z"/><path id="rect903" fill="#000" stroke="none" stroke-width="1.475" d="M61.353 118.741h22.108v22.108H61.353z"/><path id="rect905" fill="#000" stroke="none" stroke-width="1.475" d="M61.353 148.241h22.108v22.108H61.353z"/><path id="rect907" fill="#000" stroke="none" stroke-width="1.475" d="M61.353 177.74h22.108v22.108H61.353z"/><path id="rect909" fill="#000" stroke="none" stroke-width="1.475" d="M90.375 59.741h22.108v22.108H90.375z"/><path id="rect911" fill="#000" stroke="none" stroke-width="1.475" d="M90.375 89.241h22.108v22.108H90.375z"/><path id="rect913" fill="#000" stroke="none" stroke-width="1.475" d="M90.375 118.741h22.108v22.108H90.375z"/><path id="rect915" fill="#000" stroke="none" stroke-width="1.475" d="M90.375 148.241h22.108v22.108H90.375z"/><path id="rect917" fill="#000" stroke="none" stroke-width="1.475" d="M90.375 177.74h22.108v22.108H90.375z"/><path id="rect919" fill="#000" stroke="none" stroke-width="1.475" d="M119.396 59.741h22.108v22.108h-22.108z"/><path id="rect921" fill="#000" stroke="none" stroke-width="1.475" d="M119.396 89.241h22.108v22.108h-22.108z"/><path id="rect923" fill="#000" stroke="none" stroke-width="1.475" d="M119.396 118.741h22.108v22.108h-22.108z"/><path id="rect925" fill="#000" stroke="none" stroke-width="1.475" d="M119.396 148.241h22.108v22.108h-22.108z"/><path id="rect927" fill="#000" stroke="none" stroke-width="1.475" d="M119.396 177.74h22.108v22.108h-22.108z"/><path id="rect929" fill="#000" stroke="none" stroke-width="1.475" d="M148.418 59.741h22.108v22.108h-22.108z"/><path id="rect931" fill="#000" stroke="none" stroke-width="1.475" d="M148.418 89.241h22.108v22.108h-22.108z"/><path id="rect933" fill="#000" stroke="none" stroke-width="1.475" d="M148.418 118.741h22.108v22.108h-22.108z"/><path id="rect935" fill="#000" stroke="none" stroke-width="1.475" d="M148.418 148.241h22.108v22.108h-22.108z"/><path id="rect937" fill="#000" stroke="none" stroke-width="1.475" d="M148.418 177.74h22.108v22.108h-22.108z"/><path id="rect939" fill="#000" stroke="none" stroke-width="1.475" d="M177.599 59.741h22.108v22.108h-22.108z"/><path id="rect941" fill="#000" stroke="none" stroke-width="1.475" d="M177.599 89.241h22.108v22.108h-22.108z"/><path id="rect943" fill="#000" stroke="none" stroke-width="1.475" d="M177.599 118.741h22.108v22.108h-22.108z"/><path id="rect945" fill="#000" stroke="none" stroke-width="1.475" d="M177.599 148.241h22.108v22.108h-22.108z"/><path id="rect947" fill="#000" stroke="none" stroke-width="1.475" d="M177.599 177.74h22.108v22.108h-22.108z"/><g id="g1001" transform="translate(17.219 13.638) scale(.79511)" fill="none" stroke="#000" stroke-width="2" stroke-opacity="1"><g id="g975"><path id="path949" d="M39.536 69.948L17.378 82.74V57.155z"/><path id="path951" d="M39.535 109.248L17.378 122.04V96.455z"/><path id="path964" d="M39.535 146.648L17.378 159.44v-25.585z"/><path id="path966" d="M39.535 183.748L17.378 196.54v-25.585z"/><path id="path968" d="M39.535 221.148L17.378 233.94v-25.585z"/></g><g id="g987" transform="matrix(0 1 -.96804 0 283.83 1.263)"><path id="path977" d="M39.536 69.948L17.378 82.74V57.155z"/><path id="path979" d="M39.535 109.248L17.378 122.04V96.455z"/><path id="path981" d="M39.535 146.648L17.378 159.44v-25.585z"/><path id="path983" d="M39.535 183.748L17.378 196.54v-25.585z"/><path id="path985" d="M39.535 221.148L17.378 233.94v-25.585z"/></g></g><g id="g1027" transform="rotate(180 122.347 122.38) scale(.79511)" fill="none" stroke="#000" stroke-width="2" stroke-opacity="1"><g id="g1013"><path id="path1003" d="M39.536 69.948L17.378 82.74V57.155z"/><path id="path1005" d="M39.535 109.248L17.378 122.04V96.455z"/><path id="path1007" d="M39.535 146.648L17.378 159.44v-25.585z"/><path id="path1009" d="M39.535 183.748L17.378 196.54v-25.585z"/><path id="path1011" d="M39.535 221.148L17.378 233.94v-25.585z"/></g><g id="g1025" transform="matrix(0 1 -.96804 0 283.83 1.263)"><path id="path1015" d="M39.536 69.948L17.378 82.74V57.155z"/><path id="path1017" d="M39.535 109.248L17.378 122.04V96.455z"/><path id="path1019" d="M39.535 146.648L17.378 159.44v-25.585z"/><path id="path1021" d="M39.535 183.748L17.378 196.54v-25.585z"/><path id="path1023" d="M39.535 221.148L17.378 233.94v-25.585z"/></g></g><path id="rect1029" fill="none" stroke="#000" stroke-width="2" stroke-opacity="1" d="M253.895 134.682h63.865v63.865h-63.865z"/><path id="path1031" d="M308.88 156.933l-.097 19.162-13.618 13.481-19.162-.096-13.482-13.618.097-19.163 13.618-13.481 19.162.096z" fill="none" stroke="#000" stroke-width="2" stroke-opacity="1"/><g aria-label="RESET" transform="scale(.81661 1.22457)" id="text1035" style="line-height:1.25;-inkscape-font-specification:'Arial Rounded MT Bold, '" font-size="14.452" font-family="Arial Rounded MT Bold" fill="#000" stroke-width=".361"><path d="M328.997 135.937h-.734v3.324q0 .656-.29.966-.288.31-.754.31-.501 0-.776-.324-.276-.324-.276-.952v-7.96q0-.678.304-.981.303-.303.98-.303h3.409q.706 0 1.207.063.5.056.903.24.487.205.86.586.375.38.565.889.198.5.198 1.065 0 1.158-.656 1.85-.65.69-1.976.98.557.296 1.065.875.508.579.903 1.235.403.649.621 1.178.226.522.226.72 0 .205-.134.41-.127.197-.353.31-.225.12-.522.12-.353 0-.593-.17-.24-.162-.416-.416-.17-.254-.466-.748l-.84-1.397q-.45-.77-.81-1.171-.354-.403-.72-.55-.368-.15-.925-.15zm1.2-4.347h-1.934v2.844h1.877q.755 0 1.27-.127.515-.134.784-.445.275-.317.275-.868 0-.43-.219-.755-.219-.331-.607-.494-.367-.155-1.446-.155z" id="path1037"/><path d="M343.392 131.633h-4.72v2.54h4.346q.48 0 .713.219.24.211.24.564t-.233.579q-.233.218-.72.218h-4.347v2.943h4.883q.494 0 .741.233.254.226.254.607 0 .367-.254.6-.247.225-.74.225h-5.695q-.685 0-.988-.303-.296-.304-.296-.98V131.3q0-.452.134-.734.134-.29.416-.416.29-.134.734-.134h5.532q.501 0 .741.225.247.22.247.579 0 .367-.247.593-.24.219-.74.219z" id="path1039"/><path d="M354.076 137.256q0 .939-.487 1.687-.48.748-1.412 1.171-.931.424-2.208.424-1.531 0-2.526-.579-.706-.416-1.15-1.108-.438-.698-.438-1.355 0-.38.261-.649.268-.275.677-.275.332 0 .558.212.233.211.395.628.198.494.423.825.233.332.65.55.416.212 1.093.212.932 0 1.51-.43.586-.438.586-1.087 0-.515-.317-.832-.31-.325-.812-.494-.494-.17-1.327-.36-1.114-.261-1.87-.607-.747-.353-1.192-.953-.438-.607-.438-1.503 0-.854.466-1.517.466-.663 1.348-1.016.882-.36 2.075-.36.952 0 1.644.24.698.233 1.157.628.459.388.67.819.212.43.212.84 0 .373-.268.677-.261.296-.656.296-.36 0-.55-.176-.184-.184-.403-.593-.282-.586-.677-.91-.396-.332-1.27-.332-.812 0-1.313.36-.494.353-.494.854 0 .31.17.536.169.226.465.388.296.162.6.254.303.092 1.002.268.875.205 1.58.452.713.247 1.207.6.501.353.776.896.283.536.283 1.32z" id="path1041"/><path d="M362.67 131.633h-4.72v2.54h4.346q.48 0 .713.219.24.211.24.564t-.233.579q-.233.218-.72.218h-4.346v2.943h4.883q.494 0 .74.233.255.226.255.607 0 .367-.254.6-.247.225-.741.225h-5.695q-.684 0-.988-.303-.296-.304-.296-.98V131.3q0-.452.134-.734.134-.29.416-.416.29-.134.734-.134h5.532q.501 0 .741.225.247.22.247.579 0 .367-.247.593-.24.219-.74.219z" id="path1043"/><path d="M372.21 131.745h-2.286v7.516q0 .649-.289.966-.29.31-.748.31-.466 0-.762-.317-.29-.317-.29-.96v-7.515h-2.286q-.536 0-.797-.232-.261-.24-.261-.628 0-.403.268-.636.275-.232.79-.232h6.662q.543 0 .804.24.268.24.268.628t-.268.628q-.268.232-.804.232z" id="path1045"/></g><path id="path1048" d="M20.152 291.52l58.132-33.562v67.125z" fill="none" stroke="#000" stroke-width="2" stroke-opacity="1"/><path id="path1050" d="M321.284 291.52l-58.132-33.562v67.125z" fill="none" stroke="#000" stroke-width="2" stroke-opacity="1"/><path id="rect1052" fill="none" stroke="#000" stroke-width="2.178" stroke-opacity="1" d="M92.059 257.199h156.587v68.122H92.059z"/><path id="rect1054" d="M102.182 266.81v48.802h135.77V266.81zm14.663 11.799l13.17 22.807h-26.336zm25.9.002l12.507 12.505-12.507 12.505-12.506-12.505zm52.534.82a11.827 11.827 0 0111.826 11.828 11.827 11.827 0 01-11.826 11.826 11.827 11.827 0 01-11.827-11.826 11.827 11.827 0 0111.827-11.827zm20.142.428l5.974 5.236 5.974-5.236 5.972 5.972-6.11 5.974 6.11 5.974-5.972 5.974-5.974-6.112-5.974 6.112-5.972-5.974 6.11-5.974-6.11-5.974z" fill="#000" stroke="#000" stroke-width="2.269" stroke-opacity="1"/></svg>