<svg xmlns="http://www.w3.org/2000/svg" viewBox="0 0 348 348" fill="none"><path d="M5 5.8h337v337.6H5z" stroke-width="2" stroke="#000"/><path d="M282.7 40.6c0-8.4 7-15.2 15.6-15.2 4.1 0 8 1.6 11 4.4a15 15 0 0 1 4.6 10.8c0 8.3-7 15.1-15.6 15.1s-15.6-6.8-15.6-15.2z" stroke-width="2" stroke="#000"/><path style="marker:none" color="#000" stroke="#000" stroke-width="2.5" overflow="visible" d="M118.9 291.4h110.2V338H118.9z"/><g style="text-align:center;line-height:125%;-inkscape-font-specification:Calibri" font-size="32" font-weight="700" letter-spacing="0" word-spacing="0" text-anchor="middle" fill="#000" font-family="Trebuchet MS"><path d="M142.3 326.1l-6.1-9.4-2.6-.1v9.5h-4.2v-22.9a98.7 98.7 0 0 0 6.3-.2c5.8 0 8.7 2.2 8.7 6.7a6.5 6.5 0 0 1-4.2 6l6.8 10.4zm-8.7-19.3v6.3l1.7.1c1.7 0 3-.2 3.7-.7.8-.5 1.2-1.4 1.2-2.8 0-1.1-.4-2-1.2-2.4a9 9 0 0 0-4-.6h-1.4zM153 306.8v5.4h7.6v3.5H153v6.8h10.4v3.6h-14.5v-22.9h14.7v3.6zM166 324.9l1.5-3.7a8.2 8.2 0 0 0 4.8 1.7c2.4 0 3.6-.8 3.6-2.5 0-.8-.3-1.5-.9-2.2-.6-.7-1.7-1.5-3.5-2.4-1.7-.9-3-1.6-3.5-2.2-.6-.6-1-1.2-1.4-2-.3-.8-.5-1.7-.5-2.6 0-1.8.6-3.2 2-4.4 1.2-1.2 2.9-1.8 5-1.8 2.6 0 4.5.5 5.8 1.5l-1.3 3.5c-1.4-1-3-1.5-4.5-1.5a3 3 0 0 0-2.2.7c-.5.5-.8 1.2-.8 2 0 1.3 1.5 2.6 4.4 4 1.5.8 2.6 1.5 3.3 2.1.7.7 1.2 1.4 1.6 2.2.3.9.5 1.8.5 2.8 0 1.9-.7 3.4-2.2 4.6a9 9 0 0 1-5.9 1.8c-2.1 0-4-.5-5.8-1.6zM187.6 306.8v5.4h7.5v3.5h-7.5v6.8h10.3v3.6h-14.4v-22.9h14.6v3.6zM211 306.8v19.3h-4v-19.3h-7.3v-3.6h19v3.6z" style="-inkscape-font-specification:Trebuchet MS Bold"/></g><path style="marker:none" color="#000" stroke="#000" stroke-width="2.8" overflow="visible" d="M10.8 272H108v65.8H10.8z"/><g style="text-align:center;line-height:125%;-inkscape-font-specification:Calibri" font-size="32" font-weight="700" letter-spacing="0" word-spacing="0" text-anchor="middle" fill="#000" font-family="Trebuchet MS"><path d="M58.7 302.2h-3.3l-1.4 5h2.4v2.8h-3.1l-1.9 6.7h-3l1.8-6.7h-3.6l-1.8 6.7h-3l1.8-6.7h-2.2v-2.8h3l1.2-5h-2.4v-2.8h3.2l1.7-6.2h3l-1.7 6.2H53l1.7-6.2h3l-1.6 6.2h2.6zm-6.3 0h-3.7l-1.3 5H51zM77.5 302.2H74l-1.3 5h2.4v2.8H72l-1.8 6.7h-3L69 310h-3.6l-1.9 6.7h-3l1.8-6.7h-2.2v-2.8h3l1.3-5h-2.5v-2.8h3.2l1.7-6.2h3l-1.6 6.2h3.6l1.7-6.2h3l-1.6 6.2h2.6zm-6.4 0h-3.7l-1.3 5h3.7z" style="-inkscape-font-specification:Trebuchet MS Bold"/></g><path style="marker:none" color="#000" stroke="#000" stroke-width="2.8" overflow="visible" d="M240 272h97.2v65.8H240z"/><g style="text-align:center;line-height:125%;-inkscape-font-specification:Calibri" font-size="32" font-weight="700" letter-spacing="0" word-spacing="0" text-anchor="middle" fill="#000" font-family="Trebuchet MS"><path d="M287.9 302.2h-3.4l-1.3 5h2.4v2.8h-3.2l-1.8 6.7h-3l1.8-6.7h-3.6l-1.9 6.7h-3l1.8-6.7h-2.2v-2.8h3l1.3-5h-2.5v-2.8h3.2l1.7-6.2h3l-1.6 6.2h3.6l1.7-6.2h3l-1.6 6.2h2.6zm-6.4 0h-3.7l-1.3 5h3.7zM306.6 302.2h-3.3l-1.4 5h2.5v2.8h-3.2l-1.9 6.7h-3l1.8-6.7h-3.6l-1.8 6.7h-3l1.8-6.7h-2.2v-2.8h3l1.2-5h-2.4v-2.8h3.2l1.7-6.2h3l-1.6 6.2h3.5l1.7-6.2h3l-1.6 6.2h2.6zm-6.3 0h-3.7l-1.3 5h3.6z" style="-inkscape-font-specification:Trebuchet MS Bold"/></g><path style="marker:none" d="M124.6 115.3l46.6-14.4 59.5 58-76.9 32.7-38-29.2zM125.6 23l1.5-9.8L161 8.6l33.3 1-.5 5.7zM226.6 32.7l49.7 17 4.6 44.5-27.6-3.6L224 56.3zM294.8 132.7l9.7 4-5.1 60.6-18 5.1 1-34.9zM241.5 256.2l11.8-21.5-27.2-5.1-39.5 20-8.7 35.9zM70.7 47.6L44.1 92.2l-8.2 18 14.9-22.6 20-33.9zM32.8 150.1l3 22 12.4 33.4 10.8 18-5.2-38.5zM87.2 252.1l26.1 7.7 64 25.1-52.7-15.8-23.6-9.3z" color="#000" stroke="#000" stroke-width="2" overflow="visible" stroke-linejoin="round"/><path style="marker:none" d="M70.7 47.9l29.3-20L127 13.1M71 54l54.8-31.2L182 61l42-4.4M194 9.4l30.4 11.3 52.2 28.6M194 15.6L226.5 33" color="#000" stroke="#000" stroke-width="2" overflow="visible" stroke-linejoin="round"/><path style="marker:none" d="M125.8 22.8L96.8 87l-34 19.6-9.5 78M51.5 88l11.2 18.6M35.5 110.6l-2.5 41M96.4 87l28.7 28M182 60.9L171 101.1M253 90.6l-22 68.2-4 70.7M275.9 49.3l23.5 57.6 5.1 29.8M280.6 94.3l14.8 39.1M231 158.8l51 8.7M299 197.2l-42 49.7-16 9.4M281.3 202L253 234.8" color="#000" stroke="#000" stroke-width="2" overflow="visible" stroke-linejoin="round"/><path style="marker:none" d="M186.3 249.8l-37-18.2-38.7 7.3-57.3-54.4M153.7 191l-4.3 40.6M116 162l-62.4 22.2M59 223.3l28 28.6M111 238.9l2.8 20.3" color="#000" stroke="#000" stroke-width="2" overflow="visible" stroke-linejoin="round"/></svg>