<svg xmlns="http://www.w3.org/2000/svg" xml:space="preserve" fill="none" viewBox="0 0 348 348"><path stroke="#000" stroke-width="2" d="M5.08 5.78h336.91v337.67H5.08z"/><path stroke="#000" stroke-width="2" d="M282.73 40.55c0-8.37 6.97-15.16 15.56-15.16 4.13 0 8.09 1.6 11 4.44a14.97 14.97 0 0 1 4.56 10.72c0 8.38-6.96 15.17-15.56 15.17-8.59 0-15.56-6.8-15.56-15.17z"/><path stroke="#000" stroke-width=".82" d="M35.88 30.48h188.25v51.13H35.88z"/><path stroke="#000" stroke-width="1.31" d="M33.12 109.85h276.04v53.04H33.12z"/><path stroke="#000" d="M32.37 188.83h109.1v53.95H32.37zm-1.2 79.72h162.45v58.75H31.17zm199.62-1.8h62.94v59.94h-62.94z"/><path stroke="#000" stroke-width=".97" d="M165.43 188.21h38.4v54.58h-38.4z"/><path stroke="#000" stroke-width=".93" d="M222.36 187.59h82.8v54.62h-82.8z"/><path fill="#000" d="M79.8 157.85a11.19 11.19 0 0 1-4.01-4.09c-.74-1.46-2.45-9.62-3.8-18.13-2.76-17.31-2.62-18.94 1.86-21.4 2.24-1.22 9.72-1.34 98.6-1.53 95.65-.2 96.22-.2 99.5 1.4 5.42 2.62 5.55 3.64 2.7 21.53-1.35 8.51-3.06 16.67-3.8 18.13a11.24 11.24 0 0 1-4.03 4.1c-2.55 1.36-6.76 1.43-93.5 1.43-86.75 0-90.96-.07-93.51-1.44zm186.32-1.7c2.64-1.42 3.64-4.74 6.2-20.54 2.76-17.15 2.65-18.39-1.8-19.94-1.58-.55-33.35-.81-98.09-.81H76.68l-2.51 2.25-2.52 2.25 2.51 15.72c2.6 16.32 3.74 19.91 6.63 21.08 2.51 1.01 183.44 1 185.33-.01zM89.65 144.74c-.28-.29-.52-1.17-.52-1.95 0-1 .58-1.43 1.95-1.43 1.56 0 1.95.39 1.95 1.95 0 1.37-.43 1.95-1.43 1.95-.79 0-1.66-.24-1.95-.52zm14.81 0c-.28-.29-.52-1.17-.52-1.95 0-1 .58-1.43 1.95-1.43 1.56 0 1.95.39 1.95 1.95 0 1.37-.43 1.95-1.43 1.95-.79 0-1.66-.24-1.95-.52zm14.55-.71c-.33-.85.02-1.73.97-2.42 1.29-.94 1.61-.9 2.48.28 1.3 1.78.86 2.92-1.24 3.23-1.05.15-1.9-.26-2.2-1.09zm14.79-.05c-.3-.8.07-1.7.96-2.35 1.24-.9 1.63-.9 2.58.05.6.62.9 1.67.64 2.35-.62 1.62-3.55 1.58-4.18-.05zm15.9.78c-.92-.92-.61-3.21.5-3.63 1.57-.6 3.04.62 2.72 2.26-.29 1.5-2.26 2.34-3.22 1.37zm14.26-1.39c0-1.03.44-2.03.98-2.22 1.71-.6 2.92.32 2.92 2.24 0 1.47-.41 1.87-1.95 1.87s-1.95-.4-1.95-1.89zm15.33 1.37c-.29-.29-.52-1.17-.52-1.95 0-1 .58-1.43 1.95-1.43 1.56 0 1.95.39 1.95 1.95 0 1.37-.43 1.95-1.43 1.95-.79 0-1.66-.24-1.95-.52zm14.53-.76c-.3-.8.08-1.7.99-2.37 1.28-.94 1.6-.91 2.41.19.51.7.74 1.76.51 2.36-.58 1.51-3.31 1.38-3.91-.18zm15-.07c-.76-2 1.84-3.73 3.34-2.23.62.62.9 1.67.65 2.35-.63 1.64-3.34 1.57-3.99-.12zm14.9.24c-.59-1.54 1.52-3.64 3.05-3.05.67.26 1.09 1.18.95 2.11-.28 1.98-3.32 2.7-4 .94zm15.07-.7c0-2.07 1.49-3.1 3.07-2.12 1.52.94.63 3.5-1.32 3.79-1.4.2-1.75-.13-1.75-1.67zm15.33 1.29c-.29-.29-.52-1.17-.52-1.95 0-1 .58-1.43 1.95-1.43 1.56 0 1.95.39 1.95 1.95 0 1.37-.43 1.95-1.43 1.95-.79 0-1.66-.24-1.95-.52zm-172-14.69c-.53-.63-.75-1.67-.5-2.32.6-1.55 3.32-1.52 3.92.05.66 1.72.65 1.74-1 2.62-1.1.59-1.73.5-2.43-.35zm14.8 0c-1.38-1.66-.34-3.66 1.75-3.36 2.25.32 2.7 2.63.72 3.69-1.15.61-1.75.53-2.47-.33zm30.6.6c-.54-.18-.97-1.2-.97-2.27 0-1.56.33-1.9 1.75-1.69 1.09.16 1.84.88 1.99 1.9.24 1.7-1.05 2.67-2.77 2.07zm14.66-.17c-1.52-.94-.62-3.51 1.33-3.79 1.4-.2 1.74.13 1.74 1.67 0 2.07-1.48 3.1-3.07 2.12zm14.76-.43c-.52-.63-.74-1.67-.5-2.32.6-1.55 3.33-1.52 3.93.05.66 1.72.65 1.74-1 2.62-1.1.59-1.73.5-2.43-.35zm14.81 0c-1.38-1.66-.34-3.66 1.75-3.36 2.25.32 2.7 2.63.72 3.69-1.15.61-1.75.53-2.47-.33zm14.86-.3c-.4-.73-.43-1.79-.1-2.34.94-1.51 3.53-.7 3.8 1.19.3 2.16-2.67 3.08-3.7 1.15zm30.55.9c-.54-.18-.97-1.18-.97-2.22 0-1.49.4-1.88 1.94-1.88s1.95.4 1.95 1.86c0 1.92-1.2 2.85-2.92 2.25zm14.62-.58c-1.26-1.53-.44-3.52 1.45-3.52 2 0 2.67 2 1.18 3.48-1.46 1.46-1.44 1.46-2.63.04zm14.8-.02c-.52-.63-.74-1.67-.5-2.32.6-1.55 3.33-1.52 3.93.05.66 1.72.65 1.74-1 2.62-1.1.59-1.73.5-2.43-.35zm14.81 0c-1.38-1.66-.34-3.66 1.75-3.36 2.25.32 2.7 2.63.72 3.69-1.15.61-1.75.53-2.47-.33zm-149.89-.65a1.98 1.98 0 0 1 2.28-2.72c.8.15 1.58 1.06 1.71 2.02.2 1.4-.12 1.75-1.67 1.75-1.05 0-2.1-.47-2.32-1.05zm89.88-.96c0-1.63.32-1.95 1.75-1.75 1.13.16 1.84.88 2 2 .2 1.43-.12 1.76-1.75 1.76s-2-.37-2-2zM47.62 318.54c-2.73-7.82-3.23-11.95-3.23-26.89V276.4h135.6v14.88c.01 12.91-.2 15.77-1.57 21.52l-1.6 6.64h-64.44c-50.91 0-64.51-.19-64.76-.9zm127.22-2.5c2.17-4.25 3.03-11.6 2.83-24.22l-.2-12.91H46.9l-.2 12.91c-.18 11.24-.01 13.73 1.33 19.2l1.54 6.27h62.31c58.62 0 62.35-.08 62.96-1.26zm-30.73-7c0-5.62.11-6.1 1.44-6.1 1.32 0 1.43.48 1.43 6.1 0 5.62-.11 6.1-1.43 6.1-1.33 0-1.44-.48-1.44-6.1zm-85.37-.72v-4.66h9.32v9.32h-9.32zm6.45.36c0-1.91-.23-2.15-2.15-2.15-1.91 0-2.15.24-2.15 2.15s.24 2.15 2.15 2.15c1.92 0 2.15-.24 2.15-2.15zm3.74-.18.21-4.48 4.48-.22 4.49-.21v9.4h-9.4zm6.9 0c.2-1.77 0-1.97-1.98-1.97s-2.2.22-2.2 2.2c0 1.97.2 2.17 1.97 1.97 1.55-.18 2.03-.65 2.2-2.2zm3.71-.18v-4.66h9.33v9.32h-9.33zm6.46.36c0-1.91-.24-2.15-2.15-2.15-1.78 0-2.16.29-2.16 1.67 0 .92.22 1.89.48 2.15.27.27 1.23.48 2.16.48 1.38 0 1.67-.37 1.67-2.15zm4.3-.36v-4.66h8.61v9.32h-8.6Zm6.46.36c0-1.91-.24-2.15-2.15-2.15s-2.15.24-2.15 2.15.24 2.15 2.15 2.15 2.15-.24 2.15-2.15zm3.59-.36v-4.66h9.32v9.32h-9.32zm7.04.18c.2-1.77 0-1.97-1.97-1.97-1.98 0-2.2.22-2.2 2.2 0 1.97.2 2.17 1.97 1.97 1.55-.18 2.02-.65 2.2-2.2zm3.72-.18v-4.66h9.33v9.32h-9.33zm6.46.36c0-1.91-.24-2.15-2.16-2.15-1.91 0-2.15.24-2.15 2.15s.24 2.15 2.15 2.15c1.92 0 2.16-.24 2.16-2.15zm3.73-.18.21-4.48 4.49-.22 4.48-.21v9.4h-9.4zm7.03.18c0-1.91-.24-2.15-2.16-2.15-1.9 0-2.15.24-2.15 2.15s.24 2.15 2.15 2.15c1.92 0 2.16-.24 2.16-2.15zm3.58-.36v-4.66h9.33v9.32h-9.33zm7.05.18c.2-1.83.03-1.97-2.34-1.97-2.2 0-2.55.23-2.55 1.67 0 2.2.63 2.74 2.84 2.48 1.39-.16 1.87-.68 2.05-2.18zm-80.22-10.58v-4.3h9.32v8.6h-9.32zm6.45 0c0-1.92-.23-2.15-2.15-2.15-1.91 0-2.15.23-2.15 2.15 0 1.91.24 2.15 2.15 2.15 1.92 0 2.15-.24 2.15-2.15zm3.6 0v-4.3h9.32v8.6h-9.33zm7.17 0c0-1.92-.24-2.15-2.16-2.15-1.91 0-2.15.23-2.15 2.15 0 1.91.24 2.15 2.15 2.15 1.92 0 2.16-.24 2.16-2.15zm3.58 0v-4.3h9.33v8.6h-9.33zm6.46 0c0-1.92-.24-2.15-2.15-2.15-1.92 0-2.16.23-2.16 2.15 0 1.91.24 2.15 2.16 2.15 1.91 0 2.15-.24 2.15-2.15zm4.3 0v-4.3h8.61v8.6h-8.6Zm6.46 0c0-1.92-.24-2.15-2.15-2.15s-2.15.23-2.15 2.15c0 1.91.24 2.15 2.15 2.15s2.15-.24 2.15-2.15zm3.59 0v-4.3h9.32v8.6h-9.32zm7.17 0c0-1.92-.24-2.15-2.15-2.15s-2.15.23-2.15 2.15c0 1.91.24 2.15 2.15 2.15s2.15-.24 2.15-2.15zm3.59 0v-4.3h9.33v8.6h-9.33zm6.46 0c0-1.92-.24-2.15-2.16-2.15-1.91 0-2.15.23-2.15 2.15 0 1.91.24 2.15 2.15 2.15 1.92 0 2.16-.24 2.16-2.15zm3.58 0v-4.3h9.33v8.6h-9.33zm7.18 0c0-1.92-.24-2.15-2.16-2.15-1.9 0-2.15.23-2.15 2.15 0 1.91.24 2.15 2.15 2.15 1.92 0 2.16-.24 2.16-2.15zm3.58 0v-4.3h9.33v8.6h-9.33zm7.18 0c0-1.98-.2-2.15-2.51-2.15-2.31 0-2.51.17-2.51 2.15s.2 2.15 2.5 2.15c2.32 0 2.52-.17 2.52-2.15zm12.2 0c0-1.35.47-1.44 7.53-1.44 7.05 0 7.53.1 7.53 1.44 0 1.34-.48 1.43-7.53 1.43-7.06 0-7.54-.09-7.54-1.43zm-7.18-11.12c0-5.62.11-6.1 1.44-6.1 1.32 0 1.43.48 1.43 6.1 0 5.62-.11 6.1-1.43 6.1-1.33 0-1.44-.48-1.44-6.1zm-85.37.72v-4.67h9.32v9.33h-9.32zm6.45-.41c0-1.98-.2-2.18-1.97-1.97-1.55.17-2.02.65-2.2 2.2-.2 1.77 0 1.97 1.97 1.97 1.98 0 2.2-.22 2.2-2.2zm4.07 4.59c-.26-.26-.48-2.36-.48-4.66v-4.19h9.33v9.33h-4.19c-2.3 0-4.4-.22-4.66-.48zm6.7-4.54c0-1.92-.24-2.16-2.16-2.16-1.91 0-2.15.24-2.15 2.16 0 1.91.24 2.15 2.15 2.15 1.92 0 2.16-.24 2.16-2.15zm3.58.36v-4.67h9.33v9.33h-9.33zm6.46-.41c0-1.98-.2-2.18-1.97-1.97-1.55.17-2.03.65-2.2 2.2-.2 1.77 0 1.97 1.97 1.97 1.98 0 2.2-.22 2.2-2.2zm4.3.4v-4.66h8.61v9.33h-8.6Zm6.46-.35c0-1.92-.24-2.16-2.15-2.16s-2.15.24-2.15 2.16c0 1.91.24 2.15 2.15 2.15s2.15-.24 2.15-2.15zm3.59.36v-4.67h9.32v9.33h-9.32zm7.04-.18c-.18-1.55-.65-2.03-2.2-2.2-1.77-.2-1.97 0-1.97 1.97 0 1.98.22 2.2 2.2 2.2 1.97 0 2.17-.2 1.97-1.97zm3.72.18v-4.67h9.33v9.33h-9.33zm6.46-.41c0-1.98-.2-2.18-1.98-1.97-1.55.17-2.02.65-2.2 2.2-.2 1.77 0 1.97 1.98 1.97 1.97 0 2.2-.22 2.2-2.2zm4.06 4.59c-.26-.26-.48-2.36-.48-4.66v-4.19h9.33v9.33h-4.19c-2.3 0-4.4-.22-4.66-.48zm6.7-4.54c0-1.92-.24-2.16-2.16-2.16-1.9 0-2.15.24-2.15 2.16 0 1.91.24 2.15 2.15 2.15 1.92 0 2.16-.24 2.16-2.15zm3.58.36v-4.67h9.33v9.33h-9.33zm7.05-.18c-.2-1.67-.57-1.98-2.38-1.98-1.82 0-2.2.31-2.38 1.98-.21 1.83-.04 1.97 2.38 1.97s2.59-.14 2.38-1.97zm-84.26-50.8a8.54 8.54 0 0 1-3.38-3.42c-1.68-3.54-7.85-31.43-7.38-33.33.24-.93 1.48-2.44 2.77-3.36l2.34-1.67 37.18-.2c49.33-.26 46.17-1.9 40.96 21.09-1.86 8.18-3.9 15.98-4.54 17.33-2.22 4.68-2.55 4.73-35.8 4.7-25.63 0-30.18-.17-32.15-1.14zm64.09-1.9c.6-.5 1.44-1.4 1.9-2 .89-1.2 7.4-28.89 7.4-31.48 0-.89-.85-2.28-1.9-3.1-1.87-1.47-2.55-1.5-39.37-1.5H49.35l-1.77 1.77c-.98.98-1.77 2.41-1.77 3.2 0 2.55 6.48 29.87 7.36 31.05 2.24 2.99 1.9 2.96 33.78 2.96 23.56 0 31.02-.21 31.84-.9zm-11.45-10.46c-1.29-.45-1.11-2.84.25-3.36 1.52-.59 2.46.06 2.46 1.7 0 1.41-1.24 2.18-2.7 1.66zm-43.36-1.81c.15-1.07.73-1.63 1.68-1.63.94 0 1.52.56 1.67 1.63.19 1.33-.11 1.62-1.67 1.62-1.57 0-1.87-.3-1.68-1.62zm14.07.59c-.22-.57.09-1.43.68-1.92.86-.72 1.3-.68 2.2.24.63.62.92 1.48.65 1.92-.7 1.13-3.07.97-3.53-.24zm14.27.24c-.64-1.03 1.47-3.14 2.5-2.5 1.38.85.92 3.29-.6 3.29-.78 0-1.63-.36-1.9-.8zm-35.2-11.96c-.27-.27-.49-1.08-.49-1.8 0-.94.54-1.33 1.8-1.33 2.08 0 2.6 2.43.67 3.17-1.41.54-1.4.54-1.99-.04zm14.43 0c-.84-.84-.52-2.96.51-3.36 1.12-.42 2.62.78 2.62 2.1 0 .47-.51 1.06-1.14 1.3-1.42.54-1.4.54-1.99-.04zm13.98-.57c-1.08-1.3-.38-2.56 1.42-2.56.75 0 1.57.34 1.82.75.48.78-.85 2.86-1.82 2.86-.3 0-.94-.47-1.42-1.05zm14.49.39c-1.41-.9-.44-2.95 1.4-2.95 1.14 0 1.45.38 1.28 1.57-.26 1.8-1.23 2.3-2.68 1.38zm14.14.2c-.27-.28-.5-1.1-.5-1.83 0-.94.54-1.32 1.85-1.32 1.51 0 1.81.3 1.63 1.62-.23 1.6-2 2.5-2.98 1.53zm141.59 110.28c-4.87-1.2-8.46-3.27-12.24-7.06-15.35-15.35-7.03-40.68 14.62-44.5 8-1.4 16.16 1.26 22.35 7.28 15.24 14.85 7.3 40.55-13.77 44.55-4.4.83-6.75.77-10.96-.27zm11.9-1.4c6.26-1.03 13.79-7.06 16.75-13.44 7.07-15.19-2.41-33-18.74-35.22-16.67-2.27-30.35 11.46-28.08 28.18 1.4 10.38 10.26 19.28 20.73 20.83 3.4.5 4.4.47 9.33-.35zm-14-6.99a22.15 22.15 0 0 1-9-8.78c-1.2-2.24-1.48-3.87-1.49-8.41 0-5.02.2-6.03 1.97-9.2 9.14-16.51 34.48-11.26 35.97 7.45.4 5.08-.55 8.68-3.38 12.8-3.03 4.4-11.03 9.17-11.03 6.56 0-.67-.6-1.04-1.66-1.04-1.4 0-1.66-.31-1.66-1.99 0-1.55-.3-1.99-1.32-1.99-1.04 0-1.33.44-1.33 2 0 1.67-.26 1.98-1.66 1.98-1.03 0-1.65.38-1.65 1 0 1.3-.47 1.25-3.75-.38zm2.43-1.61c0-.62.63-1 1.66-1 1.4 0 1.65-.3 1.65-1.99 0-1.88.15-1.99 2.66-1.99 2.5 0 2.65.11 2.65 2 0 1.67.26 1.98 1.66 1.98 1.03 0 1.65.38 1.65 1 0 1.23.26 1.23 2.61.02 3.07-1.59 7.25-6.87 8.33-10.52 1.26-4.24 1.22-6.58-.2-10.72-1.1-3.22-1.2-3.32-4.1-3.65l-3-.33-.32-2.98c-.32-2.9-.43-3.02-3.65-4.15-3.82-1.35-9.78-1.12-12.9.5-1.61.82-1.97 1.47-2.14 3.81-.2 2.82-.21 2.82-3.19 3.15-2.9.33-3.01.43-4.11 3.65a22.34 22.34 0 0 0-1.16 5.35c-.08 5.5 3.97 12.63 8.88 15.62 2.45 1.5 3.02 1.54 3.02.25zm2.94-7.84c-.2-.52-.28-2.4-.16-4.18l.2-3.23h5.97v7.95l-2.82.2c-1.99.15-2.94-.07-3.2-.74zm4.35-3.43c0-1.88-.25-2.33-1.32-2.33-1.08 0-1.33.45-1.33 2.33 0 1.87.25 2.32 1.33 2.32 1.07 0 1.32-.45 1.32-2.32zm-9.94 0c0-1.22.35-1.66 1.32-1.66.98 0 1.33.44 1.33 1.66 0 1.21-.35 1.65-1.33 1.65-.97 0-1.32-.44-1.32-1.65zm14.58 0c0-1.22.36-1.66 1.33-1.66.97 0 1.32.44 1.32 1.66 0 1.21-.35 1.65-1.32 1.65-.97 0-1.33-.44-1.33-1.65zm-17.11-5.8c.13-.96.74-1.57 1.7-1.7 1.21-.18 1.5.1 1.5 1.48 0 1.39-.33 1.7-1.71 1.7-1.39 0-1.67-.27-1.5-1.49zm19.1-.17c0-1.33.33-1.66 1.66-1.66 1.32 0 1.66.33 1.66 1.66 0 1.32-.34 1.66-1.66 1.66-1.33 0-1.66-.34-1.66-1.66zm-12.6-8.62c0-1.33.34-1.66 1.66-1.66 1.33 0 1.66.33 1.66 1.66 0 1.33-.33 1.66-1.66 1.66-1.32 0-1.65-.33-1.65-1.66zm6.1.17c.13-.96.74-1.57 1.7-1.7 1.21-.18 1.49.1 1.49 1.48 0 1.4-.32 1.7-1.7 1.7-1.4 0-1.67-.27-1.5-1.48zm-12.72-2.24c0-.88-.18-.93-1-.25-.55.45-1 .94-1 1.08 0 .13.45.25 1 .25s1-.49 1-1.08zm24.53.83c0-.14-.45-.63-1-1.08-.81-.68-1-.63-1 .25 0 .6.45 1.08 1 1.08s1-.12 1-.25zm-94.98-46.17c-7.68-3.54-9.36-12.93-3.36-18.66a11.56 11.56 0 0 1 18.4 3.36c1.59 3.28 1.63 6.14.13 9.38-2.79 6.04-9.36 8.6-15.17 5.92zm9.3-1.24c8.98-4.08 6.92-17.63-2.97-19.48-3.36-.64-6.84.63-9.33 3.38-2.56 2.83-3.13 4.59-2.7 8.32.78 7.01 8.21 10.87 15 7.78zm-8.55-1.57c-4.79-2.5-6.25-7.78-3.36-12.11 6.06-9.07 19.55-1.42 14.87 8.43-1.9 4.02-7.46 5.79-11.5 3.68zm9.1-2.51c1.76-1.77 2.17-2.65 2.17-4.66 0-3.33-1.36-5.74-3.92-6.95-3.55-1.69-6.65-1.08-9.36 1.85-1.19 1.28-1.52 2.3-1.52 4.7 0 2.73.25 3.32 2.2 5.16 1.89 1.77 2.64 2.07 5.22 2.07 2.64 0 3.3-.27 5.2-2.17zm-8.88-1.92c-1.73-2.2-1.64-4.85.23-6.72 1.66-1.66 3.38-1.9 5.47-.8 3.09 1.65 3.76 4.79 1.6 7.52-.98 1.26-1.82 1.63-3.65 1.63-1.83 0-2.67-.37-3.65-1.63zm6.87-1.03c.8-1.25.53-3.67-.54-4.85-2.3-2.54-6.38-.65-6.38 2.96 0 1.6.37 2.23 1.68 2.92 1.77.93 4.3.43 5.24-1.03zm-5.95-17.16a11.43 11.43 0 0 1-7.69-6.25c-1.58-3.28-1.62-6.14-.13-9.38 4.3-9.3 16.8-9.3 21.1 0 3.96 8.58-3.86 17.78-13.28 15.63zm5.9-1.16c2.54-.7 6.44-4.63 7.06-7.1.22-.87.27-2.8.1-4.27-.79-7.01-8.23-10.87-15.01-7.78-7.94 3.6-7.53 15.3.67 18.92 2.26 1 4.22 1.06 7.19.23zm-6.86-2.26c-6.08-3.15-6.54-11.52-.83-15.05 1.68-1.04 2.79-1.25 5.24-1.02 8.12.78 10.75 11.15 3.96 15.6a8.75 8.75 0 0 1-8.37.47zm6.45-.8c2.99-1.14 4.64-3.57 4.64-6.86 0-2.58-.29-3.26-2.18-5.15-1.9-1.9-2.56-2.17-5.22-2.17-2.66 0-3.31.27-5.22 2.17-1.77 1.77-2.18 2.65-2.18 4.66 0 5.76 4.94 9.33 10.16 7.35zm-5.03-2.48c-4.49-1.8-2.85-9.24 2.04-9.24 4.54 0 6.8 5.2 3.65 8.35-1.56 1.56-3.34 1.84-5.69.9zm4.84-1.63c1.14-1.03 1.5-3.65.66-4.89a3.8 3.8 0 0 0-4.42-1.39c-1.88.72-2.49 1.58-2.5 3.55-.02 3.24 3.84 4.92 6.26 2.73zM237.14 215v-23.88h54.91v47.76h-54.91zm53.42 0v-22.38h-51.93l-.16 21.78c-.09 11.98-.03 22.13.13 22.54.23.6 5.73.72 26.13.6l25.83-.15zm-47.65 16.32c-.22-.22-.4-2.9-.4-5.97 0-4.56.16-5.57.9-5.57.67 0 .89-.73.89-2.99 0-2.25-.22-2.98-.9-2.98-.73 0-.9-1.06-.9-5.97 0-5.57-.07-5.97-1.19-5.97-1.06 0-1.19-.4-1.19-3.58v-3.58h14.33v3.58c0 3.18.13 3.58 1.19 3.58s1.2-.4 1.2-3.58v-3.58h15.51v3.58c0 3.42.07 3.58 1.5 3.58 1.42 0 1.49-.16 1.49-3.58v-3.58h14.33v3.58c0 3.42-.07 3.58-1.5 3.58h-1.49v5.97c0 4.9-.16 5.97-.9 5.97-.67 0-.89.73-.89 2.98 0 2.29.21 2.99.92 2.99.77 0 .89.9.74 5.82l-.17 5.82-21.53.15c-11.84.09-21.71-.02-21.94-.25zm10.94-7.96c0-3.98.23-6.57.6-6.57.36 0 .6 2.59.6 6.57 0 5.44.15 6.56.89 6.56s.9-1.12.9-6.56c0-3.98.23-6.57.6-6.57.35 0 .59 2.59.59 6.57 0 8.53 1.1 8.7 1.32.2.12-4.44.4-6.45.92-6.62.56-.19.74 1.34.74 6.37 0 8.57 1.1 8.77 1.33.25.11-4.44.4-6.45.91-6.62.57-.19.75 1.34.75 6.37 0 4.01.23 6.61.6 6.61.36 0 .6-2.6.6-6.61 0-5.03.17-6.56.74-6.37.52.17.8 2.18.91 6.62.23 8.52 1.33 8.32 1.33-.25 0-5.03.18-6.56.74-6.37.52.17.8 2.18.92 6.62.22 8.5 1.32 8.33 1.32-.2 0-3.98.24-6.57.6-6.57s.6 2.59.6 6.57c0 5.44.15 6.56.89 6.56s.9-1.12.9-6.56c0-3.98.23-6.57.6-6.57.35 0 .59 2.59.59 6.57v6.56h9.55v-4.47c0-3.58-.18-4.48-.9-4.48-.7 0-.9-.86-.9-4.18 0-3.31.2-4.18.9-4.18.73 0 .9-.93.9-4.77v-4.78h-13.73v-6.56h-13.13v6.56H244.3v4.78c0 3.84.17 4.77.9 4.77.7 0 .89.87.89 4.18 0 3.32-.19 4.18-.9 4.18s-.9.9-.9 4.48v4.47h9.56zm-.6-24.77v-2.1h-11.94v4.18h11.94zm35.22 0v-2.1h-11.94v4.18h11.94z"/><path fill="#000" d="m78.35 69.3-2 .9q-.87.43-2.31.88-1.22.38-2.66.64-1.42.28-3.14.28-3.24 0-5.9-.9-2.64-.91-4.6-2.85-1.92-1.9-3-4.82-1.08-2.94-1.08-6.82 0-3.68 1.04-6.58t3-4.9q1.9-1.94 4.58-2.96 2.7-1.02 5.98-1.02 2.4 0 4.78.58 2.4.58 5.31 2.04v4.7h-.3q-2.45-2.06-4.87-3T68 44.53q-2.26 0-4.08.74-1.8.72-3.22 2.26-1.38 1.5-2.16 3.8-.76 2.28-.76 5.28 0 3.14.84 5.4.86 2.26 2.2 3.68 1.4 1.48 3.26 2.2 1.88.7 3.96.7 2.86 0 5.36-.98 2.5-.98 4.67-2.94h.28zm24.34-9q0 5.47-2.8 8.63-2.8 3.15-7.5 3.15-4.74 0-7.54-3.15-2.78-3.16-2.78-8.62 0-5.46 2.78-8.62 2.8-3.18 7.54-3.18 4.7 0 7.5 3.18 2.8 3.16 2.8 8.62zm-3.88 0q0-4.33-1.7-6.43-1.7-2.12-4.72-2.12-3.06 0-4.76 2.12-1.68 2.1-1.68 6.44 0 4.2 1.7 6.38 1.7 2.16 4.74 2.16 3 0 4.7-2.14 1.72-2.16 1.72-6.4zm28.38 11.16h-3.76V58.75q0-1.54-.18-2.88-.18-1.36-.66-2.12-.5-.84-1.44-1.24-.94-.42-2.44-.42-1.54 0-3.22.76-1.68.76-3.22 1.94v16.67h-3.76V49.13h3.76v2.48q1.76-1.46 3.64-2.28 1.88-.82 3.86-.82 3.62 0 5.52 2.18 1.9 2.18 1.9 6.28zM146.45 44h-.2q-.62-.18-1.62-.36-1-.2-1.76-.2-2.42 0-3.52 1.08-1.08 1.06-1.08 3.86v.76h6.78v3.16h-6.66v19.17h-3.76V52.3h-2.54v-3.16h2.54v-.74q0-3.98 1.98-6.1 1.98-2.14 5.72-2.14 1.26 0 2.26.12 1.02.12 1.86.28zm6.42 1.4h-4.24v-3.9h4.24zm-.24 26.07h-3.76V49.13h3.76zM174 53.23h-.2q-.84-.2-1.64-.28-.78-.1-1.86-.1-1.74 0-3.36.78-1.62.76-3.12 1.98v15.85h-3.76V49.13h3.76v3.3q2.24-1.8 3.94-2.54 1.72-.76 3.5-.76.98 0 1.42.06.44.04 1.32.18zm36.14 18.23h-3.76V58.75q0-1.44-.14-2.78-.12-1.34-.54-2.14-.46-.86-1.32-1.3-.86-.44-2.48-.44-1.58 0-3.16.8-1.58.78-3.16 2 .06.46.1 1.08.04.6.04 1.2v14.3h-3.76V58.74q0-1.48-.14-2.8-.12-1.34-.54-2.14-.46-.86-1.32-1.28-.86-.44-2.48-.44-1.54 0-3.1.76-1.54.76-3.08 1.94v16.67h-3.76V49.13h3.76v2.48q1.76-1.46 3.5-2.28 1.76-.82 3.74-.82 2.28 0 3.86.96 1.6.96 2.38 2.66 2.28-1.92 4.16-2.76 1.88-.86 4.02-.86 3.68 0 5.42 2.24 1.76 2.22 1.76 6.22z" aria-label="Confirm"/></svg>