<svg xmlns="http://www.w3.org/2000/svg" fill="none" stroke="#000" stroke-width="2" viewBox="0 0 347 347"><path d="M5 5h337v337H5z"/><circle cx="298" cy="40" r="16"/><path stroke="none" d="M172 196q-8 0-12.4-3.8t-4.4-10.8h7.4q0 3.9 2.5 6 2.4 2.2 7 2.2 4.4 0 6.9-2.7 2.4-2.7 2.4-7.6 0-4.8-2.7-7.4-2.6-2.6-7.5-2.6t-9.1 2.3l.6-6q2.8-1.5 5.5-2 2.7-.6 5.5-.6 7.1 0 11 4.3 4 4.2 4 12 0 5.3-2 9-2 3.8-5.7 5.7-3.7 2-9 2zm-13.8-24.4.7-25.8h7.2l-.7 21.5-3.3 4.3zm4-19.3-.6-6.5h24v6.5z" aria-label="5" style="font-size:71.4137px;font-family:&quot;Cascadia Code&quot;;-inkscape-font-specification:&quot;Cascadia Code, Normal&quot;;font-variant-ligatures:no-contextual;font-variant-numeric:ordinal;fill:#000;stroke:none;stroke-width:12.0013"/></svg>