<svg xmlns="http://www.w3.org/2000/svg" viewBox="0 0 348 348" fill="none"><path d="M5.08 5.776h336.91v337.67H5.08z" stroke-width="2" stroke="#000"/><path d="M282.734 40.554c0-8.376 6.966-15.165 15.56-15.165 4.126 0 8.084 1.594 11 4.44 2.92 2.842 4.56 6.7 4.56 10.722 0 8.376-6.967 15.165-15.56 15.165-8.594 0-15.56-6.79-15.56-15.166z" stroke-width="2" stroke="#000"/><path d="M210 253a40 40 0 1 1-80 0 40 40 0 1 1 80 0zm80-80a40 40 0 1 1-80 0 40 40 0 1 1 80 0zm-80-80a40 40 0 1 1-80 0 40 40 0 1 1 80 0zm-80 80a40 40 0 1 1-80 0 40 40 0 1 1 80 0z" stroke="#000" stroke-width="2" stroke-linecap="square" stroke-miterlimit="10"/><path d="M154.25 110.18l13.29-17.907-11.72-16.453h5.414l6.235 8.813c1.297 1.828 2.218 3.234 2.765 4.219a44.866 44.866 0 0 1 2.72-3.915l6.913-9.117h4.946l-12.07 16.196 13.007 18.164h-5.625l-8.648-12.258a59.353 59.353 0 0 1-1.5-2.297c-.766 1.25-1.313 2.11-1.641 2.578l-8.625 11.977zM233.922 190.18l13.195-34.36h4.899l14.062 34.36h-5.18l-4.007-10.407h-14.368l-3.773 10.407zm9.914-14.11h11.648l-3.586-9.515c-1.093-2.89-1.906-5.266-2.437-7.125a43.801 43.801 0 0 1-1.852 6.562zM157.027 270.18v-34.36h12.891c2.625 0 4.73.348 6.316 1.043 1.586.696 2.828 1.766 3.727 3.211.898 1.446 1.348 2.957 1.348 4.535 0 1.47-.399 2.852-1.196 4.149-.797 1.297-2 2.344-3.61 3.14 2.079.61 3.677 1.649 4.794 3.118 1.117 1.468 1.676 3.203 1.676 5.203 0 1.61-.34 3.105-1.02 4.488-.68 1.383-1.52 2.45-2.52 3.2s-2.253 1.316-3.761 1.698c-1.508.383-3.356.575-5.543.575zm4.547-19.922h7.43c2.016 0 3.46-.133 4.336-.399 1.156-.343 2.027-.914 2.613-1.71.586-.797.879-1.797.879-3 0-1.141-.273-2.145-.82-3.012-.547-.867-1.328-1.461-2.344-1.782-1.016-.32-2.758-.48-5.227-.48h-6.867zm0 15.867h8.555c1.469 0 2.5-.055 3.094-.164 1.047-.188 1.922-.5 2.625-.938.703-.437 1.28-1.074 1.734-1.91.453-.836.68-1.8.68-2.894 0-1.281-.328-2.395-.985-3.34-.656-.945-1.566-1.61-2.73-1.992-1.164-.383-2.84-.574-5.027-.575h-7.946zM87.492 190.18v-14.555L74.25 155.82h5.531l6.774 10.36a104.08 104.08 0 0 1 3.492 5.812 126.078 126.078 0 0 1 3.75-6.07l6.656-10.102h5.297l-13.71 19.805v14.555z" fill="#000"/></svg>