<svg xmlns="http://www.w3.org/2000/svg" fill="none" viewBox="0 0 348 348"><path stroke="#000" stroke-width="2" d="M5 5.8h337v337.6H5z"/><path stroke="#000" stroke-width="2" d="M282.7 40.6c0-8.4 7-15.2 15.6-15.2 4.1 0 8 1.6 11 4.4a15 15 0 0 1 4.6 10.8c0 8.3-7 15.1-15.6 15.1s-15.6-6.8-15.6-15.2z"/><path stroke="#000" stroke-width="3" d="M40 207.9h105v100H40zm118.1 0h105v100h-105z"/><path fill="#000" stroke="#000" stroke-width="3" d="M40 95.9h223.1v99.8H40z"/><path fill="#4d4d4d" stroke="#000" stroke-width="3.1" d="M170.5 115.6h71.3v16h-71.3zm.3 22.6h71.3v16h-71.3zm0 21.8h71.3v16.2h-71.3z"/><path fill="#fff" stroke-width="1.3" d="M79 136.3L60 149l19 12.6v5.7l-23.4-15.6v-5.5L79 130.6zm23 3.9h-5.2l-1.5 11.2h5.2zm-2.6-19L97.6 135h5.1l1.9-14h3.1l-1.9 14h5.6v5.1h-6.3l-1.5 11.2h5.7v5.2H103l-1.9 13.9H98l1.9-14h-5.2l-1.9 14h-3l1.8-14H86v-5h6.3l1.5-11.3H88V135h6.5l2-14zm18.9 15.1v-5.7l23.4 15.6v5.5l-23.4 15.6v-5.7l18.9-12.6z"/><path fill="#000" stroke-width=".9" d="M57.8 257.5h3.5q2 0 3-1.6 1.1-1.6 1.1-4.5 0-3-1-4.6-1-1.5-3-1.5h-3.6zm-5.3 14.8v-2h2.6v-25h-2.6v-2.1H62q3 0 4.8 2.2 1.7 2.2 1.7 6 0 3.7-1.7 6-1.8 2.2-4.8 2.2h-4.2v10.7h3v2zm30.2-20.8v5.2h-1.5q0-1.5-.5-2.3-.6-.7-1.6-.7-1.8 0-2.8 1.8-1 1.8-1 5.3v9.5h3v2h-7.7v-2H73v-16.7h-2.4v-2h4.8v3.7q.8-2.2 2-3.2 1-1 2.7-1h1.3l1.4.4zm2.6-6.4q0-.9.5-1.5.4-.7 1-.7.7 0 1.1.7.5.6.5 1.5 0 1-.4 1.6-.5.6-1.1.6-.7 0-1.1-.6-.5-.7-.5-1.6zm3.2 25.2h2.3v2h-7.1v-2H86v-16.6h-2.3v-2.1h4.8zm17.2-14.7q.7-2.3 1.8-3.4 1.2-1.2 2.6-1.2 2.3 0 3.4 2 1 2 1 6.1v11.2h2.3v2H110v-2h2.1v-10.8q0-3.1-.6-4.5-.7-1.3-2.2-1.3-1.6 0-2.5 1.8-.9 1.8-.9 5.3v9.5h2.2v2h-6.8v-2h2.2v-10.9q0-3.1-.7-4.4-.6-1.3-2.1-1.3-1.7 0-2.5 1.8-.9 1.8-.9 5.3v9.5h2.2v2h-6.9v-2h2.2v-16.7h-2.3v-2h4.8v3.7q.7-2.1 1.8-3.2 1-1 2.4-1 1.6 0 2.7 1.1 1.2 1.2 1.5 3.4zm26.8 6.7h-10.7v.2q0 4.2 1.1 6.3 1.1 2.2 3.2 2.2 1.7 0 2.7-1.3 1-1.2 1.5-3.7h2q-.6 3.5-2.2 5.2-1.6 1.7-4.2 1.7-3.1 0-5-3-2-3-2-8 0-4.9 2-7.9 1.8-3 4.8-3 3.3 0 5 3 1.7 2.8 1.8 8.3zm-3-2q0-3.7-1-5.5-1-1.9-2.8-1.9-1.7 0-2.7 1.9-1 1.9-1.2 5.5z"/><path fill="#000" stroke-width=".7" d="M164.9 272.3v-2h1.7v-25H165v-2.1h3.3l7.9 23v-21h-1.8v-2h4.6v2h-2V273h-1l-8.4-24.6v22h1.8v2zM185 271q1.3 0 2-2.3t.7-6.8q0-4.4-.7-6.7t-2-2.3q-1.2 0-2 2.3-.6 2.3-.6 6.7 0 4.5.7 6.8t2 2.3zm0 1.9q-2 0-3.2-3-1.2-3-1.2-8t1.2-7.9q1.2-3 3.3-3 2 0 3.2 3 1.2 3 1.2 8t-1.2 8q-1.2 2.9-3.2 2.9zm7.4-19.2h-1.5v-2.1h1.5V245h1.6v6.5h3v2h-3v13.2q0 2.7.2 3.4.2.8.8.8.7 0 1-.8.3-.9.3-2.7h1.2q0 2.8-.7 4.1-.6 1.3-1.9 1.3-1.4 0-2-1.4-.5-1.3-.5-4.7zm15.3 3.8h2.4q1.3 0 2-1.6.6-1.6.6-4.5 0-3-.7-4.6-.6-1.5-2-1.5h-2.3zm-3.4 14.8v-2h1.7v-25h-1.7v-2.1h6.2q2 0 3 2.2 1.2 2.2 1.2 6 0 3.7-1.1 6-1.2 2.2-3.1 2.2h-2.8v10.7h2v2zm19.7-20.8v5.2h-1q0-1.5-.4-2.3-.3-.7-1-.7-1.2 0-1.8 1.8-.6 1.8-.6 5.3v9.5h1.8v2h-4.9v-2h1.5v-16.7H216v-2h3.2v3.7q.4-2.2 1.2-3.2.7-1 1.8-1h.8l1 .4zm1.7-6.4q0-.9.3-1.5.3-.7.7-.7.4 0 .7.7.3.6.3 1.5 0 1-.3 1.6-.3.6-.7.6-.4 0-.7-.6-.3-.7-.3-1.6zm2 25.2h1.6v2h-4.7v-2h1.5v-16.6h-1.5v-2.1h3.1zm11.3-14.7q.4-2.3 1.1-3.4.8-1.2 1.7-1.2 1.5 0 2.2 2 .7 2 .7 6.1v11.2h1.5v2h-4.5v-2h1.4v-10.8q0-3.1-.4-4.5-.4-1.3-1.4-1.3-1 0-1.7 1.8-.5 1.8-.5 5.3v9.5h1.4v2H236v-2h1.4v-10.9q0-3.1-.4-4.4-.5-1.3-1.4-1.3-1.1 0-1.7 1.8-.5 1.8-.5 5.3v9.5h1.4v2h-4.5v-2h1.5v-16.7h-1.6v-2h3.2v3.7q.4-2.1 1.1-3.2.7-1 1.6-1 1 0 1.8 1.1.7 1.2 1 3.4zm17.4 6.7h-7v.2q0 4.2.7 6.3.7 2.2 2.1 2.2 1 0 1.8-1.3.6-1.2 1-3.7h1.2q-.4 3.5-1.4 5.2-1 1.7-2.7 1.7-2 0-3.3-3-1.2-3-1.2-8 0-4.9 1.2-7.9t3.2-3q2 0 3.2 3 1.1 2.8 1.2 8.3zm-2-2q0-3.7-.6-5.5-.7-1.9-1.8-1.9-1.2 0-1.8 1.9-.6 1.9-.8 5.5z"/></svg>