<svg xmlns="http://www.w3.org/2000/svg" viewBox="0 0 348 348" fill="none"><path d="M5.08 5.776h336.91v337.67H5.08z" stroke-width="2" stroke="#000"/><path d="M282.734 40.554c0-8.376 6.966-15.165 15.56-15.165 4.126 0 8.084 1.594 11 4.44 2.92 2.842 4.56 6.7 4.56 10.722 0 8.376-6.967 15.165-15.56 15.165-8.594 0-15.56-6.79-15.56-15.166z" stroke-width="2" stroke="#000"/><path style="marker:none" d="M119.87 138.522a9.484 7.221 0 11-18.968 0 9.484 7.221 0 1118.968 0zm-31.36 66.653a9.484 7.221 0 11-18.97 0 9.484 7.221 0 1118.97 0zm75.762-10.513a9.484 7.221 0 11-18.969 0 9.484 7.221 0 1118.969 0zm46.762-52.562a9.484 7.221 0 11-18.968 0 9.484 7.221 0 1118.968 0zm51.838 51.112a9.484 7.221 0 11-18.969 0 9.484 7.221 0 1118.969 0zm43.862-42.412a9.484 7.221 0 11-18.968 0 9.484 7.221 0 1118.968 0zM117.51 264.625a9.484 7.221 0 11-18.97 0 9.484 7.221 0 1118.97 0zM83.797 290a9.484 7.221 0 11-18.969 0 9.484 7.221 0 1118.969 0zm117.45-27.913a9.484 7.221 0 11-18.969 0 9.484 7.221 0 1118.969 0zm-22.113 31.9a9.484 7.221 0 11-18.968 0 9.484 7.221 0 1118.968 0zM287.522 252.3a9.484 7.221 0 11-18.969 0 9.484 7.221 0 1118.969 0zm-25.738 35.162a9.484 7.221 0 11-18.968 0 9.484 7.221 0 1118.968 0z" color="#000" stroke="#000" stroke-width="1.5" overflow="visible"/><path d="M111.287 138.475c-36.975-32.987-61.625 34.8-30.45 65.613" stroke="#000" stroke-width="7.5" stroke-linecap="round" stroke-linejoin="round"/><path d="M201.912 141.375c-35.645-39.392-66.579 24.892-46.037 52.563m141.947-43.986c1.33-53.891-112.617 15.83-44.225 42.775m-145.153 70.247c-20.058-47.367-58.242 8.58-34.075 26.825m117.088-27.187c-27.309-69.48-67.305 22.354-21.75 31.537M276.644 252.1c-9.183-31.78-72.017-6.647-24.65 34.8" stroke="#000" stroke-width="7.5" stroke-linecap="round"/><path d="M244.325 227.287l47.125 78.3m-5.8-23.562l-11.962 7.25M88.087 150.438l-60.9-86.275m8.7 26.462l12.325-8.337" stroke="#000" stroke-width="4.5" stroke-linecap="round"/><path d="M27.188 64.162c-1.117-2.228-2.482-3.385-2.127-6.72.25-2.352.008-6.227 2.052-6.56 2.666-.433 4.285.698 6.837 1.373 2.546.673 4.164.009 6.776.428 1.184.19 3.798.215 4.034-.55.532-1.716 1.908-2.906 4.139-3.664 3.826-1.3 7.296-2.052 11.172-2.108 2.014-.029 4.776.808 6.688 1.395 2.803.859 4.837 1.953 7.868 2.117 2.492.135 4.555-.73 6.494-2.528 1.758-1.63 1.84-4.007.073-5.26-.213-.152-1.034-2.23-1.535-2.029m191.491 1.632c.071 9.436-.196 24.141 6.197 31.389 6.285 7.125 15.228 10.433 23.713 16.101 8.098 5.41 16.309 13.06 20.147 22.444 3.373 8.247 5.43 15.178 7.58 23.99 2.602 10.674 3.434 20.608 2.891 31.612-.583 11.808-3.64 24.043-6.164 35.03-3.022 13.152-5.076 22.65-7.067 34.385-1.872 11.04 1.066 21.072 5.787 30.912 4.336 9.04 8.546 24.52.242 32.397-6.505 6.172-14.537 7.48-23.803 8.184-3.994.303-6.134-1.014-9.223-2.907" stroke="#000" stroke-width="1.5" stroke-linecap="round"/><path style="marker:none" d="M82.197 39.445a2.832 2.016 0 11-5.664 0 2.832 2.016 0 115.664 0zm192.341 1.989a2.832 2.016 0 11-5.664 0 2.832 2.016 0 115.664 0z" color="#000" stroke="#000" stroke-linecap="round" stroke-linejoin="round" overflow="visible"/><path style="marker:none" color="#000" stroke="#000" stroke-width="1.5" stroke-linecap="round" stroke-linejoin="round" overflow="visible" d="M89.714 22.978h173.789v46.139H89.714z"/></svg>