<svg xmlns="http://www.w3.org/2000/svg" fill="none" viewBox="0 0 348 348"><path stroke="#000" stroke-width="2" d="M5 6h337v337H5z"/><path stroke="#000" stroke-width="2" d="M283 41c0-9 7-16 15-16 4 0 8 2 11 5s5 7 5 11c0 8-7 15-16 15-8 0-15-7-15-15z"/><g stroke="#000" stroke-width="3" color="#000"><path d="M117 41v24l-12 30m12-30 12 30"/><path d="m99 59 18-12 18 12m-6-30c0 7-5 12-12 12s-12-5-12-12c0-6 5-12 12-12 6 0 12 6 12 12z"/></g><g stroke="#000" stroke-width="3" color="#000"><path d="M198 41v24l-12 30m12-30 12 30"/><path d="m180 59 18-12 18 12m-6-30a12 12 0 1 1-24 0 12 12 0 1 1 24 0z"/></g><g stroke="#000" stroke-width="3" color="#000"><path d="M269 102v24l-12 30m12-30 12 30"/><path d="m251 120 18-12 19 12m-6-30a12 12 0 0 1-24 0c-1-7 5-12 11-12 7 0 13 5 13 12z"/></g><g stroke="#000" stroke-width="3" color="#000"><path d="M269 214v24l-12 30m12-30 12 30"/><path d="m251 232 18-12 19 12m-6-30a12 12 0 0 1-24 0c-1-7 5-12 11-12 7 0 13 5 13 12z"/></g><g stroke="#000" stroke-width="3" color="#000"><path d="M198 254v24l-12 30m12-30 12 31"/><path d="m180 272 18-12 18 12m-6-30a12 12 0 1 1-24 0c0-7 5-12 12-12 6 0 12 5 12 12z"/></g><g stroke="#000" stroke-width="3" color="#000"><path d="M117 254v24l-12 30m12-30 12 31"/><path d="m99 272 18-12 18 12m-6-30c0 7-5 12-12 12s-12-5-12-12 5-12 12-12c6 0 12 5 12 12z"/></g><g stroke="#000" stroke-width="3" color="#000"><path d="M46 214v24l-12 30m12-30 12 30"/><path d="m28 232 18-12 18 12m-6-30a12 12 0 1 1-24 0c0-7 5-12 12-12 6 0 12 5 12 12z"/></g><g stroke="#000" stroke-width="3" color="#000"><path d="M46 102v24l-12 30m12-30 12 30"/><path d="m28 120 18-12 18 12m-6-30a12 12 0 1 1-24 0c0-7 5-12 12-12 6 0 12 5 12 12z"/></g></svg>