<svg xmlns="http://www.w3.org/2000/svg" viewBox="0 0 348 348" fill="none"><path d="M5.079 5.776h336.913v337.67H5.08z" stroke-width="2" stroke="#000"/><path d="M282.734 40.554c0-8.376 6.966-15.165 15.56-15.165 4.126 0 8.084 1.597 11.001 4.441 2.918 2.844 4.558 6.702 4.558 10.724 0 8.376-6.966 15.165-15.56 15.165-8.593 0-15.559-6.79-15.559-15.165z" stroke-width="2" stroke="#000"/><circle cx="53.454" cy="60" r="22.767" stroke="#000" stroke-width="2.09"/><path fill="#000" stroke="#000" stroke-width="1.092" d="M32.773 112.592h282.453v94.817H32.773z"/><g aria-label="[DISPLAY]" style="line-height:1.25;-inkscape-font-specification:'Ostrich Sans'" font-weight="400" font-size="40" font-family="Aileron" letter-spacing="0" word-spacing="0" fill="#fff"><path d="M95.024 142.8h-6.52v34.4h6.52v-2.24h-4.2v-29.92h4.2zM112.77 146.56c-1.4-.16-2.04-.16-3.52-.16h-8.4V174h8.2c1.48 0 2.12 0 3.52-.16 6.4-.8 11.12-5.84 11.12-13.96 0-8.24-4.52-12.52-10.92-13.32zm-.56 24.44c-.88.16-1.92.2-3.36.2h-4.56v-22h4.76c1.44 0 2.48.04 3.36.2 4.68.76 7.52 4.36 7.52 10.48 0 6.52-3.04 10.36-7.72 11.12zM132.65 174v-27.6h-3.44V174zM148.316 145.84c-5.08 0-9.2 3-9.2 7.76 0 4.56 3.4 6.52 8.28 7.64 4.84 1.12 6.76 2.64 6.76 6 0 2.88-2.56 4.6-5.72 4.6-3.6 0-6.12-2.04-6.92-5.68h-3.68c.6 5.32 4.44 8.4 10.52 8.4 5.32 0 9.48-3.12 9.48-7.96 0-4.68-3.04-7.16-9.12-8.56-4.2-.96-5.92-2.24-5.92-5.24 0-2.88 2.32-4.24 5.24-4.24 3.48 0 5.52 2 5.84 5.48h3.68c-.52-4.72-3.52-8.2-9.24-8.2zM175.354 146.56c-1.24-.16-2.2-.16-3.6-.16h-8.56V174h3.44v-11.28h5.12c1.4 0 2.36 0 3.6-.16 4-.52 7.16-3.32 7.16-8s-2.76-7.44-7.16-8zm-.2 13.08c-.76.16-1.84.2-3.08.2h-5.44v-10.56h5.44c1.24 0 2.32.04 3.08.2 1.96.44 3.68 1.88 3.68 5.08s-1.72 4.64-3.68 5.08zM205.46 171.2h-14.92v-24.8h-3.44V174h18.36zM224.309 164.24l3.28 9.76h3.72l-9.52-27.6h-4.64l-9.92 27.6h3.68l3.24-9.76zm-9.2-2.8l4.28-12.32 4 12.32zM242.373 163.12l9.76-16.72h-3.88l-7.44 13.4-7.68-13.4h-3.96l9.76 16.72V174h3.44zM259.496 177.2v-34.4h-6.52v2.24h4.2v29.92h-4.2v2.24z" style="-inkscape-font-specification:Aileron"/></g><path stroke="#000" stroke-width="2.09" d="M32.705 234.524h62.771v62.771H32.705zM252.494 234.494h62.831v62.831h-62.831z"/><path d="M256.458 267.938c-.575-.567-.761-.964-.98-2.088-.186-.963-.032-3.278.319-4.783.12-.515.295-1.276.39-1.689 1.035-4.553.864-4.164 4.587-10.449.636-1.073 1.034-1.84 1.17-2.251.133-.404.437-.992.86-1.665.358-.572.903-1.52 1.208-2.105.306-.586.6-1.084.652-1.106.053-.023.05.513-.007 1.19-.49 5.853-.57 7.487-.434 9.006.251 2.81 1.25 6.076 2.445 7.99.33.53.88 1.513 1.222 2.186.342.672.805 1.525 1.03 1.895.407.67.407.675.142 1.072-.147.22-.748.805-1.337 1.302-1.593 1.343-3.357 2.157-5.844 2.698-1.778.387-2.85.305-4.1-.312-.495-.245-1.04-.612-1.324-.891zm35.988 17.404c-1.026-.733-1.458-1.23-1.954-2.247-.962-1.976-1.374-4.14-1.184-6.217.133-1.454.228-1.892.44-2.032.175-.116 2.537-.534 3.45-.61 1.186-.099 4.152-.715 5.4-1.122 2.36-.77 3.244-1.21 6.27-3.125 1.388-.878 2.767-1.993 4.2-3.397 1.81-1.773 2.682-2.53 2.717-2.36.016.076-.273.774-.642 1.552s-.828 1.84-1.02 2.359c-.217.584-1.269 2.727-2.76 5.622l-2.41 4.679-.911 1.02c-.502.561-1.143 1.356-1.425 1.767-.85 1.24-3.935 4.116-5.31 4.953-.723.439-1.493.528-2.508.292-.975-.227-1.31-.388-2.354-1.134z" stroke="#000" stroke-width="2.239"/><ellipse cx="-171.002" cy="267.22" rx="28.345" ry="14.688" transform="matrix(.82937 -.5587 .77178 .6359 0 0)" stroke="#000" stroke-width="2.548"/></svg>