<svg xmlns="http://www.w3.org/2000/svg" xml:space="preserve" fill="none" viewBox="0 0 348 348"><path stroke="#000" stroke-width="2" d="M5.079 5.776h336.913v337.67H5.08z"/><path stroke="#000" stroke-width="2" d="M282.734 40.554c0-8.376 6.966-15.165 15.56-15.165 4.126 0 8.084 1.597 11.001 4.441 2.918 2.844 4.558 6.702 4.558 10.724 0 8.376-6.966 15.165-15.56 15.165-8.593 0-15.559-6.79-15.559-15.165z"/><path fill="#000" fill-rule="evenodd" d="m 35.912109,129.31055 v 1.7539 H 34.15625 v 86.39453 h 1.755859 v 1.75391 h 52.603516 v -1.75391 h 1.755859 v -86.39453 h -1.755859 v -1.7539 z"/><rect width="52.603516" height="86.394531" x="35.912109" y="131.06445" fill="#fff1da" fill-rule="evenodd" rx="0" ry="0" style="font-variation-settings:normal;-inkscape-stroke:none"/><path fill="#000" fill-rule="evenodd" d="m 257.89585,129.31055 v 1.7539 h -1.75586 v 86.39453 h 1.75586 v 1.75391 h 52.60351 v -1.75391 h 1.75586 v -86.39453 h -1.75586 v -1.7539 z"/><rect width="52.603516" height="86.394531" x="257.89584" y="131.06445" fill="#fff1da" fill-rule="evenodd" rx="0" ry="0" style="font-variation-settings:normal;-inkscape-stroke:none"/><path fill="#000" fill-rule="evenodd" d="m 109.90669,129.31055 v 1.7539 h -1.75586 v 86.39453 h 1.75586 v 1.75391 h 52.60351 v -1.75391 h 1.75586 v -86.39453 h -1.75586 v -1.7539 z"/><rect width="52.603516" height="86.394531" x="109.90669" y="131.06445" fill="#fff1da" fill-rule="evenodd" rx="0" ry="0" style="font-variation-settings:normal;-inkscape-stroke:none"/><path fill="#000" fill-rule="evenodd" d="m 183.90127,129.31055 v 1.7539 h -1.75586 v 86.39453 h 1.75586 v 1.75391 h 52.60351 v -1.75391 h 1.75586 v -86.39453 h -1.75586 v -1.7539 z"/><rect width="52.603516" height="86.394531" x="183.90128" y="131.06445" fill="#fff1da" fill-rule="evenodd" rx="0" ry="0" style="font-variation-settings:normal;-inkscape-stroke:none"/><rect width="49.167999" height="82.992149" x="37.629868" y="132.76566" fill="#3861aa" fill-rule="evenodd" rx="0" ry="0" style="font-variation-settings:normal;-inkscape-stroke:none"/><rect width="49.167999" height="82.992149" x="259.61359" y="132.76566" fill="#bd5222" fill-rule="evenodd" rx="0" ry="0" style="font-variation-settings:normal;-inkscape-stroke:none"/><rect width="49.167999" height="82.992149" x="111.62445" y="132.76566" fill="#bd5222" fill-rule="evenodd" rx="0" ry="0" style="font-variation-settings:normal;-inkscape-stroke:none"/><rect width="49.167999" height="82.992149" x="185.61903" y="132.76566" fill="#6e9f1d" fill-rule="evenodd" rx="0" ry="0" style="font-variation-settings:normal;-inkscape-stroke:none"/></svg>