<svg xmlns="http://www.w3.org/2000/svg" xmlns:xlink="http://www.w3.org/1999/xlink" fill="none" viewBox="0 0 348 348"><defs><pattern xlink:href="#a" id="i" patternTransform="matrix(6.13 0 0 6.13 175.38 86.85)"/><pattern xlink:href="#b" id="a" patternTransform="matrix(6.13 0 0 6.13 36.18 86.85)"/><pattern xlink:href="#c" id="b" patternTransform="matrix(6.13 0 0 6.13 105.78 17.25)"/><pattern xlink:href="#c" id="h" patternTransform="matrix(6.13 0 0 6.13 -33.42 17.25)"/><pattern xlink:href="#d" id="c" patternTransform="matrix(6.13 0 0 6.13 -33.42 -52.35)"/><pattern xlink:href="#d" id="g" patternTransform="matrix(6.13 0 0 6.13 -4.25 86.85)"/><pattern id="d" width="2" height="1" patternTransform="scale(10)" patternUnits="userSpaceOnUse"><path fill="#000" d="M0-.5h1v2H0z"/></pattern><radialGradient xlink:href="#e" id="f" cx="25.3" cy="153.77" r="19.96" fx="25.3" fy="153.77" gradientTransform="matrix(.61 0 0 .58 123.69 -19.73)" gradientUnits="userSpaceOnUse"/><linearGradient id="e"><stop offset="0"/><stop offset=".31"/><stop offset=".31" stop-opacity="0"/><stop offset="1" stop-opacity="0"/></linearGradient></defs><path stroke="#000" stroke-width="2" d="M5.08 5.78h336.91v337.67H5.08z"/><path fill="#000" fill-opacity=".4" stroke="#000" stroke-linecap="round" stroke-linejoin="round" stroke-width="3" d="m69.6 34.8 30.14 17.4V87L69.6 104.4 39.46 87V52.2zm208.8 0 30.14 17.4V87l-30.14 17.4L248.26 87V52.2zm-139.2 69.6 30.14 17.4v34.8L139.2 174l-30.14-17.4v-34.8zm0 69.6 30.14 17.4v34.8l-30.14 17.4-30.14-17.4v-34.8zm0 69.6 30.14 17.4v34.8l-30.14 17.4-30.14-17.4V261zm0-208.8L174 69.6l-34.8 34.8-34.8-34.8Zm69.6 0 34.8 34.8-34.8 34.8L174 69.6Zm69.6 69.6 34.8 34.8-34.8 34.8-34.8-34.8zM69.6 243.6l34.8 34.8-34.8 34.8-34.8-34.8zm139.2 0 34.8 34.8-34.8 34.8-34.8-34.8zm-139.2 0-33.1-24.05 12.65-38.9h40.9l12.65 38.9zm208.8 0-33.1-24.05 12.65-38.9h40.9l12.65 38.9zM69.6 174l-30.14-52.2h60.28zm139.2 0-30.14-52.2h60.28zm0 69.6-30.14-52.2h60.28zm69.6 69.6L248.26 261h60.28z"/><path stroke="#000" stroke-width="2.43" d="m208.8 197.44 10.8 7.85-4.12 12.7h-13.36L198 205.3zm-69.6-69.6 9.84 5.68v11.36l-9.84 5.68-9.84-5.68v-11.36zm69.6-69.6 9.84 17.04h-19.68z"/><path fill="url(#f)" stroke="#000" stroke-width="2.43" d="m139.2 58.24 10.8 7.85-4.12 12.7h-13.36l-4.13-12.7z"/><path fill="url(#g)" stroke="#000" stroke-width="2.43" d="m69.6 197.44 11.36 11.36-11.36 11.36-11.36-11.36Z"/><path fill="url(#c)" stroke="#000" stroke-width="2.43" d="m69.6 58.24 9.84 5.68v11.36l-9.84 5.68-9.84-5.68V63.92z"/><path fill="#000" stroke="#000" stroke-width="2.43" d="m278.4 58.24 11.36 11.36-11.36 11.36-11.36-11.36Zm0 69.6 9.84 5.68v11.36l-9.84 5.68-9.84-5.68v-11.36z"/><path fill="url(#h)" stroke="#000" stroke-width="2.43" d="m69.6 127.84 9.84 5.68v11.36l-9.84 5.68-9.84-5.68v-11.36z"/><path fill="url(#b)" stroke="#000" stroke-width="2.43" d="m208.8 127.84 9.84 5.68v11.36l-9.84 5.68-9.84-5.68v-11.36z"/><path fill="url(#a)" stroke="#000" stroke-width="2.43" d="m139.2 197.44 9.84 5.68v11.36l-9.84 5.68-9.84-5.68v-11.36z"/><path fill="url(#i)" stroke="#000" stroke-width="2.43" d="m278.4 197.44 9.84 5.68v11.36l-9.84 5.68-9.84-5.68v-11.36z"/><path stroke="#000" stroke-width="2.43" d="m208.8 267.04 10.8 7.85-4.12 12.7h-13.36L198 274.9zm-69.6 0 9.84 5.68v11.36l-9.84 5.68-9.84-5.68v-11.36zm139.2 0 9.84 5.68v11.36l-9.84 5.68-9.84-5.68v-11.36z"/><path fill="#000" stroke="#000" stroke-width="2.43" d="m69.6 267.04 11.36 11.36-11.36 11.36-11.36-11.36Z"/></svg>