<svg xmlns="http://www.w3.org/2000/svg" fill="none" stroke="#000" stroke-width="2" viewBox="0 0 347 347"><path d="M5 5h337v337H5z"/><circle cx="298" cy="40" r="16"/><path fill="#000" stroke="none" d="M281.32 245.05q1.05 1.34.7 3.2-.35 1.6-1.74 4.26-1.4 2.4-5.57 5.6-4.17 3.45-9.04 7.18-4.53 3.46-9.05 6.13-4.52 2.4-8.7 3.46t-7.3-.53q-2.44-1.33-6.62-4.8-4.17-3.72-10.09-9.05-23.66 12.52-52.2 12.52-22.96 0-42.8-8-19.48-7.98-34.79-23.16-14.26-14.38-21.92-32.22-7.3-17.85-7.3-37.02 0-19.97 7.3-37.55 7.66-17.84 21.92-31.95 15.31-15.18 34.8-23.17 19.83-8.26 42.8-8.26 22.27 0 42.1 8.26 20.18 7.99 35.5 23.17 14.26 14.11 21.57 31.95 7.65 17.58 7.65 37.55 0 14.91-4.52 29.03-4.18 13.85-13.23 26.36zm-109.6-10.38q11.13 0 20.18-4.26-10.1-9.59-16.7-16.51-3.83-3.73-6.96-6.93-1.05-1.06-1.05-2.13 0-1.06.7-2.66 1.04-1.6 4.52-4.26 3.48-2.66 8.35-6.13 4.88-3.46 9.05-6.12 4.52-2.93 8-4.53 3.83-1.6 5.57-.53l20.18 16.51q2.09-5.86 3.13-11.98 1.4-6.4 1.4-12.52 0-12.78-4.53-23.97-4.52-11.45-12.52-19.97-7.66-8.79-17.75-13.58-10.1-5.06-21.57-5.06-11.49 0-21.92 5.06-10.44 4.8-18.1 13.58-7.65 8.52-12.18 19.97-4.52 11.19-4.52 23.97 0 12.52 4.52 23.97 4.53 11.18 12.18 19.7 7.66 8.53 18.1 13.59 10.43 4.79 21.92 4.79z" aria-label="Q"/></svg>