<svg viewBox="0 0 348 348" fill="none" xmlns="http://www.w3.org/2000/svg"><path d="M5 6h337v337H5z" stroke-width="2" stroke="#000"/><path d="M289 301c0-9 7-16 15-16 4 0 8 2 11 5s5 7 5 11c0 8-7 15-16 15-8 0-15-7-15-15z" stroke-width="2" stroke="#000"/><rect width="250.2" height="64" x="18.2" y="264.7" ry="0" stroke="#000" stroke-width="3.8"/><rect width="310.3" height="63.6" x="18.4" y="20.9" ry="0" stroke="#000" stroke-width="3.8"/><path stroke="#000" stroke-width="3.8" d="M18 97h249v153H18zM280 113h49v120h-49z"/><path stroke="#000" stroke-width="3.8" d="M32 110h60v60H32zM112 110h60v60h-60zM192 110h60v60h-60zM71 180h60v60H71zM151 180h60v60h-60zM286 122h37v26h-37zM286 160h37v26h-37zM286 198h37v26h-37z"/><path d="M56 120v14H41v11h15v15h11v-15h15v-11H67v-14H56zM241 134v11h-40v-11z" fill="#000" stroke="#000" stroke-width="3.8"/><path d="M97 188v10H87v8h10v11h8v-11h11v-8h-11v-10h-8zm-10 36v8h29v-8H87zM167 188v7h29v-7h-29zm10 15v11h-10v7h10v11h8v-11h11v-7h-11v-11h-8z" fill="#000" stroke="#000" stroke-width="2.7"/><ellipse cx="141.5" cy="139" rx="12" ry="18" stroke="#000" stroke-width="13.1"/><circle cx="304.3" cy="134.9" r="5.5" stroke="#000" stroke-width="1.9"/><circle cx="304.3" cy="134.9" r="9.3" stroke="#000" stroke-width="3.2"/><path d="M295 203v6h19v-6h-19zm0 10v6h19v-6h-19z" fill="#000" stroke="#000" stroke-width="1.7"/><path d="M313 163v5l-11 5 11 4v6l-18-7v-7z" fill="#000" stroke="#000" stroke-width=".9"/><path d="m50 52-5 5H35l-4-5 4-5h10zM94 52l-5 5H79l-5-5 5-5h10zM94 32l-5 5H79l-5-5 5-5h10zM94 72l-5 5H79l-5-5 5-5h10z" stroke="#000" stroke-width="3.8"/><path d="m74 72-5-5V57l5-5 5 5v10zM94 72l-5-5V57l5-5 5 5v10zM74 52l-5-5V37l5-5 5 5v10zM94 52l-5-5V37l5-5 5 5v10zM134 52l-5 5h-10l-5-5 5-5h10zM134 32l-5 5h-10l-5-5 5-5h10zM134 72l-5 5h-10l-5-5 5-5h10z" stroke="#000" stroke-width="3.8"/><path d="m114 72-5-5V57l5-5 5 5v10zM134 72l-5-5V57l5-5 5 5v10zM114 52l-5-5V37l5-5 5 5v10zM134 52l-5-5V37l5-5 5 5v10zM174 52l-5 5h-10l-5-5 5-5h10zM174 32l-5 5h-10l-5-5 5-5h10zM174 72l-5 5h-10l-5-5 5-5h10z" stroke="#000" stroke-width="3.8"/><path d="m154 72-5-5V57l5-5 5 5v10zM174 72l-5-5V57l5-5 5 5v10zM154 52l-5-5V37l5-5 5 5v10zM174 52l-5-5V37l5-5 5 5v10zM214 52l-5 5h-10l-5-5 5-5h10zM214 32l-5 5h-10l-5-5 5-5h10zM214 72l-5 5h-10l-5-5 5-5h10z" stroke="#000" stroke-width="3.8"/><path d="m194 72-5-5V57l5-5 5 5v10zM214 72l-5-5V57l5-5 5 5v10zM194 52l-5-5V37l5-5 5 5v10zM214 52l-5-5V37l5-5 5 5v10zM254 52l-5 5h-10l-5-5 5-5h10zM254 32l-5 5h-10l-5-5 5-5h10zM254 72l-5 5h-10l-5-5 5-5h10z" stroke="#000" stroke-width="3.8"/><path d="m234 72-5-5V57l5-5 5 5v10zM254 72l-5-5V57l5-5 5 5v10zM234 52l-5-5V37l5-5 5 5v10zM254 52l-5-5V37l5-5 5 5v10zM294 52l-5 5h-10l-5-5 5-5h10zM294 32l-5 5h-10l-5-5 5-5h10zM294 72l-5 5h-10l-5-5 5-5h10z" stroke="#000" stroke-width="3.8"/><path d="m274 72-5-5V57l5-5 5 5v10zM294 72l-5-5V57l5-5 5 5v10zM274 52l-5-5V37l5-5 5 5v10zM294 52l-5-5V37l5-5 5 5v10z" stroke="#000" stroke-width="3.8"/></svg>