<svg xmlns="http://www.w3.org/2000/svg" viewBox="0 0 348 348" fill="none"><path d="M5.079 5.776h336.913v337.67H5.08z" stroke-width="2" stroke="#000"/><path d="M282.734 40.554c0-8.376 6.966-15.165 15.56-15.165 4.126 0 8.084 1.597 11.001 4.441 2.918 2.844 4.558 6.702 4.558 10.724 0 8.376-6.966 15.165-15.56 15.165-8.593 0-15.559-6.79-15.559-15.165z" stroke-width="2" stroke="#000"/><rect style="opacity:1;fill:#fff;fill-opacity:.85148513;stroke:#000;stroke-width:1.07449222;stroke-linecap:square" width="89.628" height="145.022" x="158.268" y="66.633" ry="9.998" transform="rotate(10.76)"/><g transform="translate(52.32 57.737) scale(.84204)"><path style="opacity:1;fill:#fff;stroke:#000;stroke-width:.90868789;stroke-linecap:square" d="M189.85 269.238h36.127v51.484H189.85Zm100.128 0h36.127v51.484h-36.127z"/><rect ry="0" y="258.916" x="210.863" height="51.484" width="94.375" style="opacity:1;fill:#fff;stroke:#000;stroke-width:.89750993;stroke-linecap:square"/><g style="line-height:1.25;fill:#000;stroke:none;stroke-width:2.44461679"><path aria-label="1" style="stroke-width:2.44461679" d="M315.112 315.81v2.546h-19.99v-2.547q.16-.095.446-.286.286-.223.987-.987.732-.764 1.273-1.623.573-.86 1.018-2.292.446-1.464.446-3.056v-17.061l-3.088-3.088 3.088-3.087v-16.17q-1.114 0-2.228.445-1.114.414-1.942 1.019-.796.604-1.464 1.21-.637.572-.955.986l-.318.446.063-.414-.063.414h-2.547l2.547-15.82h18.557v27.884l3.088 3.087-3.088 3.088v17.061q0 1.592.414 3.024.446 1.432 1.05 2.356.605.89 1.21 1.591.637.669 1.05.955zm-3.215-7.99v-16.361l3.088-3.088 2.132 2.1-3.087 3.089v17.06q0 1.72.54 3.343-1.018-.923-1.686-2.45-.669-1.529-.828-2.611zm-13.496-35.269q-.796.51-1.56 1.21-.732.7-1.082 1.114l-.319.445h-2.514l.318-2.132h.096q.222-.319.636-.796.446-.51 1.751-1.528 1.337-1.019 2.674-1.432zm17.666 44.277q.477.637.987 1.146.54.51.86.7l.286.191v2.547h-20.022v-2.101h17.889zm-2.037-57.296v26.356l-2.133-2.005v-24.35z" transform="translate(67.19 103.271) scale(.6278)"/></g><path d="m210.863 310.4 15.115 10.322m79.261-10.322-15.261 10.322" style="fill:none;stroke:#000;stroke-width:1px;stroke-linecap:butt"/></g></svg>