<svg xmlns="http://www.w3.org/2000/svg" viewBox="0 0 348 348" fill="none"><path d="M5.079 5.776h336.913v337.67H5.08z" stroke-width="2" stroke="#000"/><path d="M282.734 40.554c0-8.376 6.966-15.165 15.56-15.165 4.126 0 8.084 1.597 11.001 4.441 2.918 2.844 4.558 6.702 4.558 10.724 0 8.376-6.966 15.165-15.56 15.165-8.593 0-15.559-6.79-15.559-15.165z" stroke-width="2" stroke="#000"/><g fill="#000"><path d="m70.8 96.808 2.339-.22c3.87-.403 9.71-2.523 12.638-4.627 1.33-.942 3.702-3.433 4.662-4.914 1.565-2.339 2.659-4.998 3.264-7.842.32-1.582.32-2.625-.016-4.46-.488-2.625-.202-3.887 1.026-4.61.842-.489 3.012-.791 7.64-1.06 2.457-.152 6.311-.421 8.583-.607 8.767-.723 12.217-.757 73.961-1.01 38.79-.15 42.34-.201 48.13-.74 4.998-.488 10.45-1.43 13.075-2.288 3.232-1.044 9.828-4.292 10.3-5.066.588-.959-2.39-2.49-7.64-3.938-3.164-.875-12.016-2.591-15.399-2.995-.471-.05-4.543-.404-9.07-.774-7.455-.606-9.138-.69-17.502-.842-5.099-.1-11.544-.252-14.321-.336-9.188-.303-18.343-.505-31.638-.673-12.756-.152-24.67-.37-38.958-.674-4.039-.084-7.303-.218-7.74-.336-1.869-.471-2.727-1.599-4.629-6.109-1.682-3.955-2.036-4.577-3.6-6.142a23.26 23.26 0 0 0-6.16-4.342c-2.794-1.346-5.453-2.137-10.518-3.147-5.267-1.06-5.166-1.043-11.78-1.01-7.068.034-8.784.185-12.621.993-7.136 1.515-9.054 2.188-13.076 4.544-3.5 2.07-4.46 2.76-5.924 4.258-3.887 3.988-5.368 8.498-4.358 13.227.723 3.349 3.281 5.503 8.414 7.05 2.289.69 4.291 1.01 8.296 1.364 3.955.32 4.544.404 4.898.656.269.202.201.253-.539.488-.454.152-1.616.438-2.592.623-3.517.69-6.176 1.683-7.909 2.928-2.02 1.447-4.678 4.746-5.789 7.186-.724 1.548-1.498 5.065-1.498 6.715.017 2.322 1.161 6.479 2.424 8.734 1.38 2.473 3.77 5.014 5.805 6.21 5.2 3.012 8.482 3.92 14.035 3.87 1.717-.017 3.417-.05 3.787-.084zm-3.635-7.035c-4.83-.841-9.02-2.995-11.595-5.99-1.178-1.364-1.43-1.835-1.952-3.518-.69-2.221-.488-4.055.69-6.395 1.11-2.187 2.12-3.08 4.964-4.425 3.703-1.734 5.873-2.323 10.047-2.66 5.133-.42 8.128.32 11.292 2.794 2.474 1.935 4.173 4.426 4.83 7.068.42 1.683.437 4.611.033 5.755-.404 1.128-1.716 3.13-2.675 4.04-.758.74-3.602 2.12-5.52 2.692-2.878.841-7.337 1.127-10.114.64zm30.224-29.45c-5.688-.1-6.984-.168-6.984-.403 0-.135 1.666-.505 3.786-.859 2.373-.387 6.8-.69 12.454-.824 6.176-.152 6.378-.152 8.363.168 1.296.202 1.498.37.943.724-.64.404-10.972 1.531-12.504 1.346-.286-.017-3.012-.101-6.058-.152zM83.085 51.96c-1.145-.169-4.342-.202-13.278-.169-12.487.05-13.025.034-15.297-.74-2.154-.724-3.669-1.935-4.51-3.55-.606-1.196-.572-3.131.067-4.494.252-.555.74-1.346 1.077-1.75 3.13-3.82 12.117-6.361 23.695-6.698 4.897-.151 7.791.101 11.157.926 1.447.353 3.5.858 4.56 1.11 4.645 1.094 6.395 2.02 9.307 4.897 1.06 1.06 1.38 1.498 1.817 2.541a8.48 8.48 0 0 1 .623 2.407c.084 1.094.067 1.212-.42 1.986-.674 1.026-.977 1.295-2.71 2.457-1.498.993-1.633 1.043-3.972 1.279-2.036.202-10.232.067-12.116-.202z"/><path fill="none" stroke="#000" stroke-width="3.2849845400000004" d="M97.812 99.602h158.409V258.01H97.812z"/><path d="M157.024 302.956a22.262 22.262 0 0 1-22.263 22.262 22.262 22.262 0 0 1-22.262-22.262 22.262 22.262 0 0 1 22.262-22.263 22.262 22.262 0 0 1 22.263 22.263zm-53.727 0a22.262 22.262 0 0 1-22.262 22.262 22.262 22.262 0 0 1-22.262-22.262 22.262 22.262 0 0 1 22.262-22.263 22.262 22.262 0 0 1 22.262 22.263zM300.839 302.956a22.262 22.262 0 0 1-22.263 22.262 22.262 22.262 0 0 1-22.262-22.262 22.262 22.262 0 0 1 22.262-22.263 22.262 22.262 0 0 1 22.263 22.263zm-53.727 0a22.262 22.262 0 0 1-22.262 22.262 22.262 22.262 0 0 1-22.263-22.262 22.262 22.262 0 0 1 22.263-22.263 22.262 22.262 0 0 1 22.262 22.263z" fill="none" stroke="#000" stroke-width="3.77937218"/></g></svg>