<svg xmlns="http://www.w3.org/2000/svg" fill="none" viewBox="0 0 348 348"><path stroke="#000" stroke-width="2" d="M5 5.8h337v337.6H5z"/><path stroke="#000" stroke-width="2" d="M282.7 40.6c0-8.4 7-15.2 15.6-15.2 4.1 0 8 1.6 11 4.4a15 15 0 0 1 4.6 10.8c0 8.3-7 15.1-15.6 15.1s-15.6-6.8-15.6-15.1z"/><text x="73.6" y="61.4" fill="#000"><tspan x="73.6" y="61.4" fill="#fff">&lt;DEPT&gt;</tspan></text><ellipse cx="-206.5" cy="228.1" fill="#fff" rx="35.5" ry="32.3"/><circle cx="-359.7" cy="177" r="22.9" fill="#fff"/><ellipse cx="-280" cy="199.9" fill="#fff" rx="80.8" ry="15.6"/><path stroke="#000" stroke-width="3" d="M16.7 15.4h253.4v69.9H16.7z"/><path fill="#000" d="M89.8 38.3a11.4 11.4 0 0 0-3.9-3c-1.5-.6-3-1-4.8-1-2.8.1-5.1 1-6.8 2.5a7.4 7.4 0 0 0-2.7 5.6c0 .9.2 1.9.7 3 .5 1 1.4 2 2.6 3 1.6 1 3.2 2 5.1 2.6a36 36 0 0 1 4.7 2.1c1 .7 1.7 1.4 2 2.1.4.8.6 1.5.6 2.2 0 1.4-.6 2.7-1.7 3.9a7.8 7.8 0 0 1-5.1 1.8c-1.7 0-3.2-.4-4.5-1a9 9 0 0 1-3-2.5v-.2l-.1-.3v-.2l-.2-.3-2.1 3.6a12 12 0 0 0 4.4 3c1.6.7 3.4 1 5.4 1 3.7-.1 6.4-1.1 8-3a8.8 8.8 0 0 0 2.4-6 7.5 7.5 0 0 0-2.4-5.6 18 18 0 0 0-5-3c-1.8-.6-3.5-1.4-5-2.1a6.8 6.8 0 0 1-2.6-2.5c-.4-.8-.6-1.5-.6-2.2 0-1.2.5-2.3 1.5-3.2 1-.8 2.3-1.3 4.1-1.3 1.5 0 2.8.3 3.8.8 1.1.6 2 1.3 2.6 2.2v.5l.2.3.2.1zm5.7-3.8V55c0 1 0 2.1.2 3.2a8.8 8.8 0 0 0 4.7 6.8 11 11 0 0 0 5.2 1.3 11 11 0 0 0 5.1-1.3 9 9 0 0 0 4.8-6.9c.2-1 .2-2.2.2-3.3V34.5h-3.3V55l-.1 2.4c-.1.7-.3 1.5-.7 2.3a6.4 6.4 0 0 1-2.5 2.7 6.7 6.7 0 0 1-7 0c-1-.6-1.8-1.5-2.4-2.7-.3-.8-.5-1.5-.6-2.3L99 55V35.7s0-.2.2-.3l.2-.3v-.7zm24.9 0v31.2h8.8l3.2-.1c1.1-.1 2.2-.4 3.2-.8a8.2 8.2 0 0 0 5.2-7.7A8.5 8.5 0 0 0 135 49a7.4 7.4 0 0 0 4.6-6.8c0-1.5-.4-2.8-1.1-4a7.6 7.6 0 0 0-3.4-2.8c-1-.4-2-.6-3-.7l-2.8-.2zm3.5 3h6.9l2.1.6a5 5 0 0 1 2.4 1.8 4.5 4.5 0 0 1 0 5c-.5.9-1.2 1.5-2.2 2l-2.2.5h-7.1zm0 12.9h7.4l2.3.7a6.2 6.2 0 0 1 2.7 8.7 5 5 0 0 1-2.5 2.2c-.6.3-1.3.5-2 .5l-2 .1h-6zM145 34.5v31.2h3.3V42.4l6.3 12.3h1.4l6.7-12.5v23.5h3.3V34.5h-2.6l-7.9 15.3-7.7-15.3zm27.4 0v3h5.8v25.3H172v3h16v-3h-6.4V37.5h6.2v-3zm22.2 0v3.1h8.8v28.1h3.5v-28h9.2v-3.2zM25.1 138.4c0-8.5 1-15.3 2.7-20.4 1.7-5.2 4.3-9.2 7.7-12a20 20 0 0 1 13-4.2 19.3 19.3 0 0 1 17.3 9c1.9 3 3.3 6.5 4.4 10.7 1 4.2 1.6 9.8 1.6 16.9a63 63 0 0 1-2.6 20.3 25.4 25.4 0 0 1-7.7 12 19.8 19.8 0 0 1-13 4.2c-7 0-12.3-2.5-16.3-7.4-4.7-6-7-15.7-7-29.1zm9 0c0 11.7 1.5 19.6 4.2 23.5 2.8 3.8 6.1 5.8 10.2 5.8 4 0 7.4-2 10.2-5.9 2.7-3.9 4-11.7 4-23.4 0-11.8-1.3-19.6-4-23.5-2.8-3.9-6.2-5.8-10.3-5.8-4 0-7.3 1.7-9.7 5.1-3 4.4-4.5 12.4-4.5 24.2zm53.5 0c0-8.5.8-15.3 2.6-20.4 1.7-5.2 4.3-9.2 7.8-12 3.4-2.8 7.7-4.2 13-4.2a19.3 19.3 0 0 1 17.3 9c1.8 3 3.3 6.5 4.3 10.7 1.1 4.2 1.7 9.8 1.7 16.9 0 8.4-1 15.2-2.6 20.3a25.4 25.4 0 0 1-7.8 12 19.8 19.8 0 0 1-13 4.2c-6.9 0-12.3-2.5-16.2-7.4-4.8-6-7.1-15.7-7.1-29.1zm9 0c0 11.7 1.4 19.6 4.1 23.5 2.8 3.8 6.2 5.8 10.2 5.8 4 0 7.4-2 10.2-5.9 2.7-3.9 4.1-11.7 4.1-23.4 0-11.8-1.4-19.6-4.1-23.5-2.8-3.9-6.2-5.8-10.3-5.8-4 0-7.2 1.7-9.7 5.1-3 4.4-4.5 12.4-4.5 24.2zm53.4 0c0-8.5.9-15.3 2.6-20.4 1.8-5.2 4.3-9.2 7.8-12 3.4-2.8 7.7-4.2 13-4.2a19.3 19.3 0 0 1 17.3 9c1.8 3 3.3 6.5 4.4 10.7 1 4.2 1.6 9.8 1.6 16.9 0 8.4-.9 15.2-2.6 20.3a25.4 25.4 0 0 1-7.7 12 19.8 19.8 0 0 1-13 4.2c-7 0-12.4-2.5-16.3-7.4-4.7-6-7-15.7-7-29.1zm9 0c0 11.7 1.4 19.6 4.2 23.5 2.7 3.8 6.1 5.8 10.1 5.8s7.5-2 10.2-5.9c2.8-3.9 4.2-11.7 4.2-23.4 0-11.8-1.4-19.6-4.2-23.5a12.1 12.1 0 0 0-10.3-5.8c-4 0-7.2 1.7-9.6 5.1-3 4.4-4.6 12.4-4.6 24.2zm53.4 0c0-8.5 1-15.3 2.6-20.4 1.8-5.2 4.4-9.2 7.8-12 3.4-2.8 7.8-4.2 13-4.2a19.3 19.3 0 0 1 17.3 9c1.8 3 3.3 6.5 4.4 10.7 1 4.2 1.6 9.8 1.6 16.9a63 63 0 0 1-2.6 20.3 25.4 25.4 0 0 1-7.7 12 19.8 19.8 0 0 1-13 4.2c-7 0-12.3-2.5-16.3-7.4-4.7-6-7-15.7-7-29.1zm9 0c0 11.7 1.4 19.6 4.2 23.5 2.7 3.8 6.1 5.8 10.2 5.8 4 0 7.4-2 10.2-5.9 2.7-3.9 4-11.7 4-23.4 0-11.8-1.3-19.6-4-23.5-2.8-3.9-6.2-5.8-10.3-5.8-4 0-7.3 1.7-9.7 5.1-3 4.4-4.5 12.4-4.5 24.2zm53.5 0c0-8.5.8-15.3 2.6-20.4 1.7-5.2 4.3-9.2 7.7-12a20 20 0 0 1 13-4.2 19.3 19.3 0 0 1 17.3 9c1.9 3 3.4 6.5 4.4 10.7 1.1 4.2 1.6 9.8 1.6 16.9 0 8.4-.8 15.2-2.5 20.3a25.4 25.4 0 0 1-7.8 12 19.8 19.8 0 0 1-13 4.2 20 20 0 0 1-16.3-7.4c-4.7-6-7-15.7-7-29.1zm9 0c0 11.7 1.4 19.6 4.1 23.5 2.8 3.8 6.2 5.8 10.2 5.8 4 0 7.4-2 10.2-5.9 2.7-3.9 4.1-11.7 4.1-23.4 0-11.8-1.4-19.6-4.1-23.5-2.8-3.9-6.2-5.8-10.3-5.8-4 0-7.2 1.7-9.7 5.1-3 4.4-4.5 12.4-4.5 24.2zM25.1 265.3a67 67 0 0 1 2.7-20.5c1.7-5.1 4.3-9.1 7.7-12 3.5-2.7 7.8-4.1 13-4.1a19.3 19.3 0 0 1 17.3 9 38 38 0 0 1 4.4 10.6c1 4.2 1.6 9.9 1.6 17 0 8.4-.8 15.1-2.6 20.3a25.4 25.4 0 0 1-7.7 12 19.8 19.8 0 0 1-13 4.2c-7 0-12.3-2.5-16.3-7.4-4.7-6-7-15.7-7-29.1zm9 0c0 11.7 1.5 19.5 4.2 23.4 2.8 4 6.1 5.9 10.2 5.9 4 0 7.4-2 10.2-6 2.7-3.8 4-11.6 4-23.3 0-11.8-1.3-19.7-4-23.5-2.8-3.9-6.2-5.8-10.3-5.8-4 0-7.3 1.7-9.7 5-3 4.4-4.5 12.5-4.5 24.3zm53.5 0c0-8.5.8-15.3 2.6-20.5 1.7-5.1 4.3-9.1 7.8-12 3.4-2.7 7.7-4.1 13-4.1a19.3 19.3 0 0 1 17.3 9c1.8 3 3.3 6.5 4.3 10.6 1.1 4.2 1.7 9.9 1.7 17 0 8.4-1 15.1-2.6 20.3a25.4 25.4 0 0 1-7.8 12 19.8 19.8 0 0 1-13 4.2c-6.9 0-12.3-2.5-16.2-7.4-4.8-6-7.1-15.7-7.1-29.1zm9 0c0 11.7 1.4 19.5 4.1 23.4 2.8 4 6.2 5.9 10.2 5.9 4 0 7.4-2 10.2-6 2.7-3.8 4.1-11.6 4.1-23.3 0-11.8-1.4-19.7-4.1-23.5-2.8-3.9-6.2-5.8-10.3-5.8-4 0-7.2 1.7-9.7 5-3 4.4-4.5 12.5-4.5 24.3zm53.4 0c0-8.5.9-15.3 2.6-20.5 1.8-5.1 4.3-9.1 7.8-12 3.4-2.7 7.7-4.1 13-4.1a19.3 19.3 0 0 1 17.3 9c1.8 3 3.3 6.5 4.4 10.6 1 4.2 1.6 9.9 1.6 17 0 8.4-.9 15.1-2.6 20.3a25.4 25.4 0 0 1-7.7 12 19.8 19.8 0 0 1-13 4.2c-7 0-12.4-2.5-16.3-7.4-4.7-6-7-15.7-7-29.1zm9 0c0 11.7 1.4 19.5 4.2 23.4 2.7 4 6.1 5.9 10.1 5.9s7.5-2 10.2-6c2.8-3.8 4.2-11.6 4.2-23.3 0-11.8-1.4-19.7-4.2-23.5a12.1 12.1 0 0 0-10.3-5.8c-4 0-7.2 1.7-9.6 5-3 4.4-4.6 12.5-4.6 24.3zm53.4 0c0-8.5 1-15.3 2.6-20.5 1.8-5.1 4.4-9.1 7.8-12 3.4-2.7 7.8-4.1 13-4.1a19.3 19.3 0 0 1 17.3 9c1.8 3 3.3 6.5 4.4 10.6 1 4.2 1.6 9.9 1.6 17 0 8.4-.8 15.1-2.6 20.3a25.4 25.4 0 0 1-7.7 12 19.8 19.8 0 0 1-13 4.2c-7 0-12.3-2.5-16.3-7.4-4.7-6-7-15.7-7-29.1zm9 0c0 11.7 1.4 19.5 4.2 23.4 2.7 4 6.1 5.9 10.2 5.9 4 0 7.4-2 10.2-6 2.7-3.8 4-11.6 4-23.3 0-11.8-1.3-19.7-4-23.5-2.8-3.9-6.2-5.8-10.3-5.8-4 0-7.3 1.7-9.7 5-3 4.4-4.5 12.5-4.5 24.3zm53.5 0c0-8.5.8-15.3 2.6-20.5 1.7-5.1 4.3-9.1 7.7-12 3.5-2.7 7.8-4.1 13-4.1a19.3 19.3 0 0 1 17.3 9c1.9 3 3.4 6.5 4.4 10.6 1.1 4.2 1.6 9.9 1.6 17 0 8.4-.8 15.1-2.5 20.3a25.4 25.4 0 0 1-7.8 12 19.8 19.8 0 0 1-13 4.2 20 20 0 0 1-16.3-7.4c-4.7-6-7-15.7-7-29.1zm9 0c0 11.7 1.4 19.5 4.1 23.4 2.8 4 6.2 5.9 10.2 5.9 4 0 7.4-2 10.2-6 2.7-3.8 4.1-11.6 4.1-23.3 0-11.8-1.4-19.7-4.1-23.5-2.8-3.9-6.2-5.8-10.3-5.8-4 0-7.2 1.7-9.7 5-3 4.4-4.5 12.5-4.5 24.3z"/><path stroke="#000" stroke-width=".7" d="M25.5 185h46v23.8h-46z"/><path fill="#000" d="M40.9 191.6v7.9c0 .4.2.8.4 1.1.3.6.7 1 1.2 1.2.5.3 1.1.4 1.7.4.7 0 1.2 0 1.8-.4a3 3 0 0 0 1.6-2.3v-7.9h-1v6.8l-.1.8-.2.8c-.2.4-.5.7-.9 1a2.3 2.3 0 0 1-2.3 0 2.6 2.6 0 0 1-1-1.7v-7.6l.1-.2zm8.5 0V202h1.2v-4.7h3.1a3 3 0 0 0 1-.3c.4-.3.8-.6 1-1 .3-.5.4-1 .4-1.6 0-.5-.1-1-.4-1.5a2 2 0 0 0-1-1 3 3 0 0 0-1-.4h-1zm1.2 1h2.7l.6.3.8.7a2 2 0 0 1 0 1.9l-.7.7-.6.2h-2.8z"/><path stroke="#000" stroke-width=".7" d="M87.5 185h46v23.8h-46z"/><path fill="#000" d="M102.9 191.6v7.9l.4 1.1c.3.6.7 1 1.2 1.2a4 4 0 0 0 1.8.4c.6 0 1.2 0 1.7-.4a3 3 0 0 0 1.6-2.3l.1-1.1v-6.8h-1.1v7.6c0 .3-.2.5-.3.8l-.8 1a2.3 2.3 0 0 1-2.4 0l-.8-1-.2-.8v-7.3l.1-.1v-.2zm8.6 0V202h1.2v-4.7h3a3 3 0 0 0 1-.3c.5-.3.8-.6 1-1 .3-.5.5-1 .5-1.6 0-.5-.2-1-.4-1.5-.3-.5-.7-.8-1.1-1a3 3 0 0 0-1-.4h-1zm1.2 1h2.6l.7.3.7.7a2 2 0 0 1 0 1.9c-.1.3-.4.5-.7.7l-.6.2h-2.7z"/><path stroke="#000" stroke-width=".7" d="M150.6 185h46v23.8h-46z"/><path fill="#000" d="M166 191.6v7.9c0 .4.2.8.4 1.1.3.6.7 1 1.2 1.2.6.3 1.1.4 1.8.4.6 0 1.2 0 1.7-.4a3 3 0 0 0 1.6-2.3v-7.9h-1v7.6l-.3.8-.8 1a2.3 2.3 0 0 1-2.4 0l-.8-1-.2-.8v-7.4l.1-.2zm8.5 0V202h1.3v-4.7h3a3 3 0 0 0 1-.3c.4-.3.8-.6 1-1 .3-.5.4-1 .4-1.6 0-.5 0-1-.3-1.5s-.7-.8-1.2-1a3 3 0 0 0-1-.4h-1zm1.3 1h2.6l.6.3c.4.2.6.4.8.7a2 2 0 0 1 0 1.9l-.7.7-.6.2h-2.7z"/><path stroke="#000" stroke-width=".7" d="M213.1 185h46v23.8h-46z"/><path fill="#000" d="M228.5 191.6v6.8l.1 1.1c0 .4.2.8.3 1.1.3.6.8 1 1.3 1.2.5.3 1.1.4 1.7.4.7 0 1.2 0 1.8-.4a3 3 0 0 0 1.6-2.3v-7.9h-1v6.8l-.1.8-.2.8c-.2.4-.5.7-.9 1a2.3 2.3 0 0 1-2.3 0c-.4-.3-.7-.6-.8-1l-.3-.8v-7.3l.1-.1v-.2zm8.6 0V202h1.2v-4.7h3.1a3 3 0 0 0 1-.3c.4-.3.8-.6 1-1 .3-.5.4-1 .4-1.6 0-.5-.1-1-.4-1.5-.2-.5-.6-.8-1.1-1a3 3 0 0 0-1-.4h-1zm1.2 1h2.7l.6.3c.3.2.6.4.7.7a2 2 0 0 1 0 1.9c-.1.3-.3.5-.6.7l-.6.2h-2.7z"/><path stroke="#000" stroke-width=".7" d="M275.2 185h46v23.8h-46z"/><path fill="#000" d="M290.6 191.6v7.9c0 .4.2.8.4 1.1.3.6.7 1 1.2 1.2.6.3 1.1.4 1.8.4.6 0 1.2 0 1.7-.4a3 3 0 0 0 1.6-2.3v-7.9h-1v7.6l-.3.8-.8 1a2.3 2.3 0 0 1-2.4 0l-.8-1-.2-.8v-7.4l.1-.2zm8.5 0V202h1.3v-4.7h3a3 3 0 0 0 1-.3c.4-.3.8-.6 1-1 .3-.5.4-1 .4-1.6 0-.5 0-1-.3-1.5s-.7-.8-1.2-1a3 3 0 0 0-1-.4h-1zm1.3 1h2.6l.6.3c.4.2.6.4.8.7a2 2 0 0 1 0 1.9l-.7.7-.6.2h-2.7z"/><path stroke="#000" stroke-width=".7" d="M25.5 309.4h46v23.8h-46z"/><path fill="#000" d="M32.5 316v10.6h2.2l1.2-.1c.4 0 .7-.2 1.1-.4.8-.3 1.3-1 1.7-1.8a7 7 0 0 0 .6-3c0-1-.1-2-.4-2.8a4 4 0 0 0-1.5-1.9c-.4-.2-.8-.4-1.2-.4-.4-.1-.8-.2-1.3-.1zm1 1H35l1 .1 1 .5c.4.5.8 1 1 1.7a7.5 7.5 0 0 1-.2 4.5 3 3 0 0 1-1 1.4l-1 .4h-2.1zm14.5 4.3c0-.5 0-1-.2-1.6a4 4 0 0 0-.5-1.8 4 4 0 0 0-1.3-1.5 3.2 3.2 0 0 0-3.4 0c-.6.3-1 .9-1.5 1.7a7 7 0 0 0-.6 3.2 7 7 0 0 0 .6 3.2 4 4 0 0 0 1.5 1.7 3.2 3.2 0 0 0 3.4 0c.5-.3 1-.8 1.3-1.5a6 6 0 0 0 .5-1.8l.1-1.6zm-3.8-4.3c.4 0 .8.2 1.2.4.4.3.7.7 1 1.3l.3 1.4a11.5 11.5 0 0 1 0 2.6c0 .5-.2 1-.4 1.4-.3.6-.6 1-1 1.1a2 2 0 0 1-1 .4c-.6 0-1.2-.3-1.8-1-.5-.7-.8-1.8-.8-3.5 0-1.5.3-2.6.8-3.2.6-.6 1.1-.9 1.7-.9zm4.5-1l1.7 10.6h.5l1.8-7 1.8 7h.5l1.6-10.5h-1l-1 7-1.6-6.3h-.4l-1.7 6.4-1.1-7.1zm9 10.6h1.1v-8.3l4.7 8.3h.9v-10.1a.4.4 0 0 1 0-.2v-.1l.1-.2h-1.3v7.8l-4.4-7.7h-1.1z"/><path stroke="#000" stroke-width=".7" d="M87.5 309.4h46v23.8h-46z"/><path fill="#000" d="M94.5 316v10.6H98l1.1-.4c.8-.4 1.4-1 1.8-1.9a7 7 0 0 0 .6-3c0-1-.2-2-.5-2.7a4 4 0 0 0-1.5-2l-1.1-.4-1.3-.1zm1.1 1.1H98l1 .6c.5.4.8 1 1 1.6a7.5 7.5 0 0 1-.2 4.6 3 3 0 0 1-1 1.3c-.4.2-.7.4-1 .4h-2zm14.4 4.3l-.1-1.7a5 5 0 0 0-.6-1.7c-.3-.7-.8-1.2-1.3-1.5a3.2 3.2 0 0 0-3.4 0c-.5.3-1 .8-1.4 1.6-.4.8-.7 1.9-.7 3.2 0 1.4.3 2.5.7 3.3a4 4 0 0 0 1.4 1.7 4 4 0 0 0 1.7.5c.6 0 1.2-.2 1.7-.5.5-.4 1-.9 1.4-1.6a6 6 0 0 0 .5-1.7v-1.6zm-3.7-4.3c.3 0 .7.1 1.1.4.4.2.7.6 1 1.2l.3 1.4a11.5 11.5 0 0 1 0 2.7c0 .4-.2 1-.4 1.4-.2.5-.5.9-.9 1a2 2 0 0 1-1 .4c-.7 0-1.3-.3-1.8-1-.6-.6-.9-1.8-1-3.4.1-1.6.4-2.6 1-3.2.5-.7 1-1 1.7-1zm4.5-1.1l1.6 10.7h.5l1.9-7 1.8 7h.4l1.7-10.6h-1l-1 7.1-1.7-6.3h-.3l-1.7 6.3-1.2-7.1zm8.9 10.6h1.2v-8.3l4.6 8.3h1v-10a.4.4 0 0 1 0-.3v-.2h-1.2v7.8l-4.4-7.8h-1.2z"/><path stroke="#000" stroke-width=".7" d="M150.6 309.4h46v23.8h-46z"/><path fill="#000" d="M157.6 316v10.6h2.2l1.2-.1c.4 0 .8-.2 1.1-.4.8-.3 1.3-1 1.7-1.8a7 7 0 0 0 .6-3c0-1-.1-2-.4-2.8a4 4 0 0 0-1.5-1.9c-.4-.2-.8-.4-1.2-.4-.4-.1-.8-.2-1.3-.1zm1.1 1h1.3l1 .1 1 .5c.4.5.8 1 1 1.7a7.5 7.5 0 0 1-.2 4.5 3 3 0 0 1-1 1.4l-1 .4h-2zm14.3 4.3v-1.6l-.6-1.8c-.3-.7-.8-1.2-1.3-1.5a3.2 3.2 0 0 0-3.4 0c-.6.3-1 .9-1.5 1.7a7 7 0 0 0-.6 3.2 7 7 0 0 0 .6 3.2 4 4 0 0 0 1.5 1.7 3.2 3.2 0 0 0 3.4 0c.5-.3 1-.8 1.3-1.5a6 6 0 0 0 .6-1.8v-1.6zm-3.7-4.3c.4 0 .8.2 1.2.4.4.3.7.7 1 1.3l.3 1.4a11.5 11.5 0 0 1 0 2.6c0 .5-.2 1-.4 1.4-.2.6-.5 1-1 1.1a2 2 0 0 1-1 .4c-.6 0-1.2-.3-1.8-1-.5-.7-.8-1.8-.8-3.5 0-1.5.3-2.6.8-3.2.6-.6 1.1-.9 1.7-.9zm4.5-1l1.7 10.6h.5l1.8-7 1.8 7h.5l1.7-10.5h-1l-1 7-1.7-6.3h-.4l-1.6 6.4-1.2-7.1zm9 10.6h1.1v-8.3l4.7 8.3h.9v-10.1a.4.4 0 0 1 0-.2l.1-.1v-.2h-1.2v7.8l-4.4-7.7h-1.2z"/><path stroke="#000" stroke-width=".7" d="M213.1 309.4h46v23.8h-46z"/><path fill="#000" d="M220.2 316v10.6h2.2l1.2-.1c.3 0 .7-.2 1-.4.8-.3 1.4-1 1.8-1.8a7 7 0 0 0 .6-3c0-1-.1-2-.5-2.8a4 4 0 0 0-1.4-1.9c-.4-.2-.8-.4-1.2-.4-.4-.1-.8-.2-1.3-.1zm1 1h1.3l1 .1 1 .5c.5.5.8 1 1 1.7a7.5 7.5 0 0 1-.1 4.5 3 3 0 0 1-1 1.4l-1 .4h-2.1zm14.4 4.3v-1.6l-.6-1.8c-.4-.7-.8-1.2-1.4-1.5a3.2 3.2 0 0 0-3.3 0c-.6.3-1 .9-1.5 1.7a7 7 0 0 0-.6 3.2 7 7 0 0 0 .6 3.2 4 4 0 0 0 1.5 1.7c.5.4 1.1.5 1.7.5.5 0 1.1-.1 1.6-.5.6-.3 1-.8 1.4-1.5a6 6 0 0 0 .5-1.8l.1-1.6zM232 317c.4 0 .8.2 1.2.4.4.3.7.7 1 1.3l.3 1.4a11.5 11.5 0 0 1 0 2.6c0 .5-.2 1-.4 1.4-.3.6-.6 1-1 1.1a2 2 0 0 1-1 .4c-.7 0-1.2-.3-1.8-1-.5-.7-.8-1.8-.9-3.5a5 5 0 0 1 .9-3.2c.5-.6 1.1-.9 1.7-.9zm4.4-1l1.7 10.6h.5l1.8-7 1.8 7h.5l1.6-10.5h-1l-1 7-1.6-6.3h-.4l-1.7 6.4-1.1-7.1zm9 10.6h1.1v-8.3l4.6 8.3h1v-10.1a.4.4 0 0 1 0-.2v-.3H251v7.8l-4.4-7.7h-1.1z"/><path stroke="#000" stroke-width=".7" d="M275.2 309.4h46v23.8h-46z"/><path fill="#000" d="M282.2 316v10.6h2.2l1.2-.1c.4 0 .8-.2 1.1-.4.8-.3 1.3-1 1.7-1.8a7 7 0 0 0 .6-3c0-1-.1-2-.4-2.8a4 4 0 0 0-1.5-1.9c-.4-.2-.8-.4-1.2-.4-.4-.1-.8-.2-1.3-.1zm1.1 1h1.3l1 .1 1 .5c.4.5.8 1 1 1.7a7.5 7.5 0 0 1-.2 4.5 3 3 0 0 1-1 1.4l-1 .4h-2zm14.4 4.3l-.1-1.6-.6-1.8c-.3-.7-.8-1.2-1.3-1.5a3.2 3.2 0 0 0-3.4 0c-.6.3-1 .9-1.5 1.7a7 7 0 0 0-.6 3.2 7 7 0 0 0 .6 3.2 4 4 0 0 0 1.5 1.7 3.2 3.2 0 0 0 3.4 0c.5-.3 1-.8 1.3-1.5a6 6 0 0 0 .6-1.8v-1.6zm-3.8-4.3c.4 0 .8.2 1.2.4.4.3.7.7 1 1.3l.3 1.4a11.5 11.5 0 0 1 0 2.6c0 .5-.2 1-.4 1.4-.2.6-.5 1-1 1.1a2 2 0 0 1-1 .4c-.6 0-1.2-.3-1.8-1-.5-.7-.8-1.8-.8-3.5 0-1.5.3-2.6.8-3.2.6-.6 1.2-.9 1.7-.9zm4.5-1l1.7 10.6h.5l1.8-7 1.8 7h.5l1.7-10.5h-1l-1 7-1.7-6.3h-.4l-1.6 6.4-1.2-7.1zm9 10.6h1.1v-8.3l4.7 8.3h.9v-10.1a.4.4 0 0 1 0-.2l.1-.1v-.2H313v7.8l-4.4-7.7h-1.2z"/></svg>