<svg xmlns="http://www.w3.org/2000/svg" viewBox="0 0 348 348" fill="none"><path d="M5.079 5.776h336.913v337.67H5.08z" stroke-width="2" stroke="#000"/><path d="M282.734 40.554c0-8.376 6.966-15.165 15.56-15.165 4.126 0 8.084 1.597 11.001 4.441 2.918 2.844 4.558 6.702 4.558 10.724 0 8.376-6.966 15.165-15.56 15.165-8.593 0-15.559-6.79-15.559-15.165z" stroke-width="2" stroke="#000"/><path d="M154.227 185.478l9.394-.165 6.592 75.647-39.39 3.626-63.764 5.604-4.12 11.701L34.92 287l-2.472-2.307 15.162-10.878.33-1.483-27.029 2.637-1.153-14.503-5.769-62.793 140.237-12.195" fill="#000" fill-rule="evenodd"/><path fill-rule="evenodd" fill="#fff" d="M65.299 267.58L60.7 279.313l-25.776 5.554 15.311-10.746.346-5.29-27.523 2.703-6.56-71.923 145.379-12.806 6.147 71.758L65.3 267.58"/><path fill-rule="evenodd" fill="#000" d="M190.767 173.906l-9.394-.165-6.592 75.648 39.389 3.625 63.765 5.604 4.12 11.701 28.017 5.11 2.473-2.308-15.163-10.877-.33-1.484 27.03 2.637 1.153-14.503 5.768-62.792-140.236-12.196"/><path d="M279.695 256.008l4.598 11.734 25.776 5.554-15.31-10.745-.347-5.29 27.524 2.702 6.559-71.923-145.378-12.805-6.148 71.758 102.726 9.015" fill="#fff" fill-rule="evenodd"/><g style="line-height:1.25;-inkscape-font-specification:'Rockwell Std';text-align:center" aria-label="12345" font-size="80" font-family="Rockwell Std" text-anchor="middle" fill="#000"><path d="M81.402 140.539V99.367h-7.421v-6.562h14.921v47.734h6.954v6.562H73.98v-6.562h7.421zM144.293 127.648l-.469 19.453H109.06q0-5.546 2.11-10.937 2.108-5.39 6.874-10.234 3.203-3.126 6.328-5.391 3.125-2.266 5.703-4.219 2.578-2.031 4.141-4.219 1.562-2.265 1.562-5.312 0-3.984-2.421-6.25-2.344-2.266-6.329-2.344-3.75 0-5.78 1.563-2.032 1.484-2.891 4.765-.782 3.282-.704 8.516h-7.187q-.547-7.344 1.484-12.031 2.11-4.688 6.016-6.875 3.906-2.266 8.984-2.266 6.25.156 10 2.422 3.672 2.266 5.313 5.625 1.562 3.437 1.562 6.719 0 2.89-1.093 5.703-1.172 2.812-3.907 5.547-2.812 2.734-6.172 5.078-3.437 2.422-6.718 4.922-3.36 2.5-5.782 5.468-2.421 2.97-3.203 6.797h20.391l.39-12.5h6.563zM165.543 122.101v-6.718h3.281q5 0 7.813-1.953 2.734-1.876 2.734-6.329 0-4.062-2.265-6.484-2.266-2.344-6.172-2.422-4.688.078-6.875 2.969-2.188 2.89-2.188 8.047h-7.5q-.234-5.39 1.64-9.219 1.876-3.906 5.47-6.016 3.671-2.03 8.671-2.109 4.844 0 8.594 1.64 3.75 1.563 5.86 4.766 2.109 3.125 2.109 7.89 0 4.142-2.11 7.423-2.03 3.281-5.546 4.922 5.156 1.562 7.656 4.843 2.5 3.204 2.5 8.282 0 5-2.344 8.671-2.344 3.672-6.484 5.626-4.219 2.03-9.922 2.109-5.39 0-9.61-2.031-4.218-2.032-6.64-6.25-2.422-4.297-2.344-11.016h7.11q.312 6.172 3.359 9.531 3.125 3.36 8.672 3.438 4.765-.078 7.578-2.656 2.812-2.579 2.89-6.954-.078-3.28-1.718-5.468-1.64-2.266-4.453-3.438-2.813-1.094-6.328-1.094h-3.438zM216.793 126.008v-21.485h-.156l-13.985 21.485h14.141zm0 6.562H198.59q-.469-1.797-1.328-3.36-.938-1.562-2.188-2.812l22.578-34.062h6.329v33.672h8.671v6.562h-8.671v7.969h4.921v6.562H211.09v-6.562h5.703v-7.969zM238.98 129.758h7.032q.781 5.78 3.672 8.828 2.968 3.047 7.734 3.125 4.922-.078 7.813-3.281 2.968-3.282 3.046-8.672-.078-5.313-2.734-8.36-2.734-2.968-7.344-3.047-3.28 0-5.937 1.563-2.735 1.562-5 4.844-1.328-1.25-2.656-2.188-1.329-.937-3.047-1.797l2.343-27.968h28.907v14.453h-6.719v-7.5h-16.64l-1.173 16.015q1.172-1.015 2.5-1.797 1.329-.703 2.657-1.25 1.406-.468 2.89-.703 1.485-.234 2.97-.234 5 0 8.75 2.266 3.75 2.265 5.858 6.25 2.11 3.984 2.11 9.374 0 5.079-2.031 9.22-2.032 4.14-6.172 6.562-4.14 2.5-10.39 2.578-8.438-.078-13.126-4.688-4.687-4.687-5.312-13.593z"/></g><g style="line-height:1.25;-inkscape-font-specification:'Lango Px';text-align:center" aria-label="LEFT" font-size="34.616" font-family="Lango Px" text-anchor="middle" fill="#000" stroke-width=".433"><path d="M68.937 216.234l.034-.003q.407-.002.773.306.397.27.463.638.06.3.188 1.375.094 1.077.26 2.59l.337 3.092q.172 1.58.317 2.857l.165 1.886q.014.168.133 1.142.153.97.346 2.413.194 1.442.394 2.952t.341 2.752l.263 1.844q.205.016.545.02l.64-.056.74-.064q.334-.063.469-.075l-.034.003q1.07-.195 1.697-.386.66-.227 1.088-.366.46-.176.931-.217.809-.07 1.287.363.513.43.587 1.272.007.474-.438.819-.479.347-1.171.577-.69.264-1.355.423-.698.163-1.068.195-.334.063-1.167.238-.803.138-1.639.279-.836.14-1.237.21-.193.118-.362.133-.165.048-.3.06-.539.047-1.067-.179-.532-.259-.725-.92-.041-.472-.052-.98-.007-.474-.054-1.013-.146-1.277-.336-2.686-.191-1.408-.376-2.75-.218-1.338-.318-2.483l-.153-1.75q-.145-1.278-.323-2.925-.177-1.647-.389-3.291-.177-1.648-.323-2.924-.145-1.277-.223-1.78-.04-.47-.228-1.065-.219-.558-.271-1.164-.005-.441.308-.74.347-.301.74-.471.395-.137.563-.151zM81.997 240.307l-2.351-22.293q-.19-.22-.24-.42-.055-.233-.039-.438-.047-.538.595-.968.674-.432 1.664-.756 1.024-.326 2.09-.555 1.065-.229 1.904-.336.836-.14 1.14-.167.609-.02.947.358.341.412.388.95.031.744-.38 1.086-.412.34-1.048.43-.634.124-1.31.149l-1.045.09q-.64.056-1.102.199-.432.105-.727.233l.17 1.953q.112 1.28.243 2.388.13 1.108.308 1.975.165-.048.365-.1.168-.014.232-.054l-.027.07q1.17-.203 1.837-.33.665-.16 1.066-.228.398-.103.836-.14.373 0 .633.25.293.245.429.64.167.36.19.629.02.609-.493.959-.546.353-1.312.522-.802.137-1.543.202l-.842.073q-.407.002-.71.028l-.27.024q-.134.012-.266.057.015.949.094 1.858l.153 1.751.164 1.886q.156 1.785.398 3.393.245 1.641.543 3.108 1.142-.133 2.312-.337 1.2-.24 2.294-.54.53-.148.892-.28.395-.137.563-.152.37-.032.697.21.327.244.558.563.201.356.225.625.048.946-.458 1.363-.54.42-1.242.55-.735.132-1.24.176l-.034.003q-.134.012-.502.078-.401.068-.867.177-.468.075-.87.144-.9.18-1.472.23-.536.08-.873.11l-.606.053q-.573.05-1.003-.218-.428-.234-.696-.584-.268-.35-.362-.647zM93.32 215.668l.771-.101q.101-.009.604-.087.502-.077 1.136-.2.634-.124 1.197-.275.564-.15 1.29-.384.727-.233 1.13-.268.27-.023.72.073.45.097.846.367.363.274.447.844.03.744-.709 1.215-.708.435-1.805.7-1.063.263-2.098.455t-1.663.383q.026.303.019.609-.01.272-.003.746.005.441.078 1.283.053.606.122 1.007l.062.708q.6-.12 1.262-.314.662-.193 1.164-.271.539-.047 1.073.246.5.295.593.966l.003.033q-.03.818-.506 1.198-.473.415-1.138.575-.664.16-1.24.176-.233.054-.493.178-.26.125-.294.128l.117 1.347.89 8.643q.098.738.252 1.335.184.561.252 1.336.066.367-.003.747-.066.412-.345.708-.28.296-.917.386-.168.014-.48-.06-.312-.075-.647-.419-.333-.31-.605-1.1-.083-.944-.152-2.125l-.185-2.122-.111-1.28-.112-1.28q-.08-.909-.213-2.05-.1-1.146-.224-2.187-.088-1.01-.175-1.613-.34-.005-.663-.214-.327-.243-.389-.95-.061-.707.212-1.07.277-.33.47-.449l-.009-.881-.076-.876q-.065-.74-.163-1.479-.132-.735-.295-1.433-.042-.098-.316-.515-.274-.418-.355-.954-.05-.572.227-.902.246-.293.678-.398.395-.136.769-.135zM108.39 216.491l-.803.138q-.802.138-1.565.34-.76.236-1.5.301-.91.08-1.453-.314-.546-.428-.623-1.303-.026-.304.048-.615.109-.315.375-.372 1.832-.398 3.103-.61 1.268-.247 2.435-.484 1.167-.238 2.695-.609 1.759-.458 2.564-.563.805-.104.974-.118.398-.103.912-.046.477.026.843.334.366.307.459.978.025.676-.285 1.009-.308.366-.773.474-.43.14-.766.169l-.505.044-.668.126q-.367.066-.57.084-.875.076-1.374.187-.53.148-.822.31l.035.404q.042.471.04.844l.068.775.105 1.212q.215 2.459.535 5.35.32 2.89.649 5.88.359 2.956.6 5.717l.023.27q.01.1.027.303.048.165.069.4.03.337-.067.787-.066.413-.377.745-.31.333-.916.386-.606.053-1.043-.283-.467-.298-.523-.938-.017-.202-.007-.474.01-.273 0-.78l-.773-8.858q-.17-1.953-.396-3.766-.223-1.779-.382-3.597l-.114-1.314q-.062-.707-.157-1.411l-.097-1.112z"/></g><g style="line-height:1.25;-inkscape-font-specification:'Lango Px';text-align:center" aria-label="RIGHT" font-size="37.067" font-family="Lango Px" text-anchor="middle" fill="#000" stroke-width=".463"><path d="M230.298 201.99q-1.222-.143-2.343.09-1.12.233-1.738.525-.07.284-.144.603l-.063.54q-.112.642-.156 1.33-.048.723-.095 1.118-.03.252-.044.687-.019.472.003.912 1.33-.464 2.634-1.331 1.336-.828 2.254-1.814.917-.985 1.014-1.812.038-.324-.408-.559-.41-.23-.914-.289zm-4.859 12.223l-1.08 10.771q-.112.643-.69.903-.58.297-1.156.23l-.216-.026q-.072-.008-.211-.061-.423-.123-.755-.708-.293-.618-.248-1.305.046-.396.168-.819.123-.423.127-.458.044-.068.146-.931.105-.899.28-2.081.14-1.186.257-2.193l.169-1.438q.227-1.942.339-3.824.07-1.85.17-3.625.1-2.102.032-4.005-.069-1.903.022-2.986.035-.615.38-1.377.304-.73.997-1.05.1.085.208.098.14.053.323.038.863.101 1.827-.041.929-.146 1.861-.329.964-.142 1.863-.036 1.007.118 2.035.676.988.59 1.646 1.505.626.875.531 1.994-.145.93-.78 1.986-.669 1.051-1.462 1.906-.792.854-1.35 1.263-.639.472-1.457.922-.859.483-1.628.83-.774.383-1.28.652 1.04 1.397 2.299 3.404 1.255 2.042 2.592 4.313 1.302 2.266 2.544 4.416 1.246 2.115 2.26 3.728.159.2.17.42.046.225.016.476-.075.647-.61 1.168-.53.484-1.254.436-.288-.034-.558-.211-.267-.214-.477-.603-.969-1.68-1.881-3.537-.944-1.896-2.087-3.962-1.138-2.102-2.687-4.434l-1.395-2.095z"/><path d="M236.01 226.022l-.005.036q.059-1.743.267-3.832.177-2.13.41-4.435l.557-4.746.556-4.745q.278-2.373.555-4.418l.43-3.668q.082-.39.403-.645.353-.213.573-.224.288.034.766.308.478.275.867.685.394.374.375.846l-.004.036q-.005.036-.07.283-.066.248-.211.559-.083.39-.226 1.613-.14 1.187-.344 2.62l-.299 2.553-.164 1.402-.607 5.177q-.284 2.737-.533 5.478-.284 2.737-.459 5.158-.042.36-.2.778-.159.42-.52.705-.358.25-.901.222-.643-.112-.943-.657-.337-.55-.274-1.09zM257.32 214.925l-.153 1.295q-.118 1.006-.519 2.563-.37 1.597-1.051 3.376-.643 1.747-1.623 3.272-.98 1.525-2.253 2.433-1.273.907-2.86.758-1.29-.188-2.288-.997-.994-.846-1.73-2.026-.741-1.143-1.218-2.365-.762-2.204-1.03-4.276-.262-2.108-.229-3.635.037-1.563.14-2.134.043-.36.163-1.074.084-.72.253-1.538.228-1.322.733-2.83.5-1.472 1.365-2.938.824-1.434 2.122-2.557 1.294-1.088 3.108-1.64.833-.267 1.569-.327.776-.091 1.064-.057.251.03.586.287.298.254.53.755.202.46.162 1.112-.025.216-.211.558-.19.379-.791.527-.412.098-.668.104-.256.007-.396-.046-.108-.013-.184.015l-.215-.026-.381.138q-.224.047-.533.193-2.004.931-3.116 2.331-1.108 1.365-1.59 2.985-.485 1.656-.643 3.314-.18 1.546-.157 2.897.028 1.316.255 2.8.235 1.413.67 2.994.47 1.586 1.202 2.802.696 1.211 1.713 1.55.76.052 1.455-.596.655-.615 1.217-1.68.562-1.063.998-2.288.435-1.224.74-2.282.271-1.062.419-1.7.021-.18.108-.607.082-.392.132-.823.087-.427.112-.643l.026-.216q-.94-.073-2.227.03-1.288.105-2.804.292-.112.023-.256.006l-.216-.025q-.75-.124-1.15-.754-.432-.67-.331-1.534.105-.898.674-1.087.605-.184 1.683-.058 1.235.036 2.011-.055.812-.087 1.552-.183.7-.064 1.64.01 1.254.183 1.782.646.561.503.657 1.244.09.776-.019 1.71zM267.692 215.048l.346-2.948q.198-1.69.373-3.492.174-1.802.356-3.348.122-1.042.4-1.556.28-.514 1.07-.421 1.075.162 1.439.788.364.626.208 1.336l-.235 1.066q-.263 3.177-.676 6.7-.444 3.483-.794 7.087-.345 3.567-.426 7.057-.045 3.493.387 6.642l-.004.036q.032.66-.503 1.18-.575.552-1.37.496-.499-.095-.753-.417-.285-.361-.415-.814-.097-.412-.135-.708-.272-3.276-.212-6.585.024-3.314.416-6.658.059-.503.162-1.074l.126-1.079-.143-.016-.88.042q-.66.032-1.504.08-.843.046-1.575.07l-1.104.089q-.076.647-.196 1.362-.12.715-.196 1.362-.124 1.37-.164 3.26.001 1.86-.222 3.765-.072.611-.49 1.073-.42.46-1.142.412-.751-.124-1.16-.682-.408-.558-.385-1.066l.198-1.69q.108-1.226.249-2.74l.265-2.885q.12-1.335.172-2.094-.45-.198-.683-.7-.233-.5-.172-1.332.1-.535.425-.825.325-.29.598-.44l.177-1.51q.068-.575.192-1.945.12-1.335.26-2.849.146-1.55.25-2.74.102-1.191.136-1.48.063-.538.537-.847.433-.278.937-.219.395.047.81.241.45.199.732.596.285.362.258.905-.07.284-.207 1.142-.133.823-.335 1.93-.167 1.11-.293 2.188-.163 1.074-.251 1.83-.068.575-.124 1.37-.061.83-.089 1.374l.54.064q.287.033.979.041.696-.027 1.503-.078.808-.052 1.476-.155.664-.068.861-.191zM279.75 208.26l-.872-.028q-.87-.03-1.715.017-.848.083-1.639-.01-.97-.113-1.455-.644-.48-.567-.37-1.501.037-.324.183-.635.182-.307.474-.309 2.007-.02 3.385.033 1.384.016 2.659.02 1.275.003 2.958-.054 1.944-.1 2.81-.035.868.065 1.048.086.44-.021.966.15.495.13.812.532.318.402.27 1.125-.12.715-.518.996-.402.318-.914.33-.48.054-.84.012l-.539-.064-.727-.012q-.4-.01-.615-.036-.935-.11-1.483-.1-.588.04-.928.146l-.05.431q-.06.503-.142.895l-.097.827-.152 1.294q-.307 2.624-.598 5.725-.29 3.1-.594 6.308-.263 3.177-.608 6.125l-.034.288-.038.323q.015.184-.015.436-.042.36-.24.81-.159.419-.556.7-.398.281-1.045.206-.647-.076-1.032-.522-.425-.415-.345-1.098.025-.215.095-.499.07-.283.169-.818l1.108-9.456q.244-2.085.4-4.035.152-1.914.38-3.855l.164-1.402q.088-.755.14-1.515l.14-1.186z"/></g><path fill-rule="evenodd" fill="#000" d="M222.904 281.504l1.328 38.17-104.119 3.62-1.328-38.17 104.119-3.62m-3.46 33.718l-.992-28.93-94.894 3.284.993 28.93 94.893-3.284m-28.74-19.486l-.19-5.518 11.239-.394.19 4.817-1.679.073 2.963 3.255 2.35-3.445-1.43.044-.175-4.817 9.356-.336.19 5.518-2.51.088-4.365 5.342 6.247 6.554 1.708-.059.19 5.489-11.371.38-.16-4.818 1.766-.058-3.24-3.722-2.716 3.926 1.78-.058.176 4.817-9.794.35-.19-5.503 1.883-.073 5.342-6.057-5.765-5.883-1.796.088m-10.188.35l-.19-5.517 9.254-.322.19 5.518-1.97.058.612 17.794-7.56.277-10.116-13.619h-.073l.277 8.087 2.058-.073.19 5.488-9.4.336-.19-5.503 2.029-.073-.423-11.94-2.03.073-.189-5.503 10.875-.365 8.758 11.677h.058l-.234-6.466-1.926.073m-47.454-3.97l14.626-.511.19 5.605-1.767.058.307 8.437q.175 5.11-2.321 7.547-2.292 2.277-7.196 2.438-4.759.16-7.211-2.088-2.365-2.204-2.51-6.598l4.787-.16q.073 2.19.963 2.934.672.57 2.146.525 1.547-.058 2.044-1.416.335-.89.262-2.715l-.306-8.597-3.81.146-.204-5.605m18.012 4.977l-2.146.073-.19-5.503 13.138-.452.19 5.517-2.132.073.409 11.926 2.131-.073.204 5.503-13.137.438-.204-5.489 2.16-.073-.423-11.94"/></svg>