<svg xmlns="http://www.w3.org/2000/svg" fill="none" viewBox="0 0 348 348"><path stroke="#000" stroke-width="2" d="M5.079 5.776h336.913v337.67H5.08z"/><path stroke="#000" stroke-width="2" d="M282.734 40.554c0-8.376 6.966-15.165 15.56-15.165 4.126 0 8.084 1.597 11.001 4.441 2.918 2.844 4.558 6.702 4.558 10.724 0 8.376-6.966 15.165-15.56 15.165-8.593 0-15.559-6.79-15.559-15.165z"/><g style="line-height:.95;-inkscape-font-specification:'Rockwell Std';text-align:center" aria-label="Ask the expert: ##" font-size="34.31" font-family="Rockwell Std" text-anchor="middle" fill="#000" stroke-width="1.608"><path d="M70.407 111.43l-3.083-9.783h-.301l-3.217 9.784h6.601zm.905 2.715h-8.377l-1.81 5.26h2.849v2.915H54.76v-2.915h2.814l6.4-17.758h-2.748v-2.613h11.895v2.613h-2.747l6.265 17.758h2.614v2.915h-9.114v-2.915h2.881l-1.708-5.26zM80.425 122.32v-5.562h2.848v.57q.235 1.206 1.24 1.91 1.039.67 2.647.703 1.541-.033 2.412-.57.905-.535.905-1.474-.033-1.072-.938-1.474-.905-.402-2.278-.57-1.408-.2-2.882-.603-1.474-.402-2.68-1.54-.57-.57-.905-1.375-.335-.804-.369-1.708.034-1.408.737-2.48.738-1.072 2.01-1.675 1.308-.603 2.95-.637 1.105 0 2.144.268 1.005.235 1.809.67v-.636h2.815v5.327h-2.815v-.971q-.704-1.04-1.608-1.508-.938-.503-2.178-.503-1.307.034-2.044.536-.77.536-.804 1.475.033.971 1.039 1.373.971.369 2.412.536 1.474.168 2.948.57 1.475.369 2.547 1.34.704.737 1.039 1.609.335.87.335 1.742-.067 2.245-1.743 3.585-1.675 1.34-4.49 1.374-1.306 0-2.345-.302-1.039-.268-1.91-.87v.87h-2.848zM98.519 119.506v-17.658h-2.915v-2.814h6.131v14.541l6.065-4.758v-.067h-2.714v-2.613h9.013v2.613h-2.513l-6.065 5.026 5.73 5.73h2.78v2.814h-4.12l-8.176-8.142v5.328h2.413v2.814H95.57v-2.814h2.949zM124.084 108.951v-2.814h2.077v-2.513l3.25-2.915v5.428h2.982v2.814h-2.982v9.382q.034 1.14.905 1.273.837.134 2.077-.301v2.848q-.57.2-1.206.335-.603.134-1.173.134-1.709 0-2.78-.871-1.04-.905-1.073-2.982v-9.818h-2.077zM137.084 119.506v-17.658h-2.915v-2.814h6.131v8.946q1.508-1.24 2.815-1.776 1.273-.57 2.58-.57 1.943-.033 3.183 1.106 1.24 1.106 1.273 3.82v8.946h2.781v2.814h-5.997v-11.09q0-1.206-.436-1.944-.436-.77-1.575-.804-.87 0-2.044.57-1.206.536-2.58 1.575v8.879h2.781v2.814h-8.946v-2.814h2.949zM158.025 112.704h10.253q-.268-1.307-1.039-2.312-.77-1.005-1.876-1.575-1.106-.57-2.413-.603-1.91.034-3.25 1.24-1.306 1.173-1.675 3.25zm13.503 2.312h-13.603q.368 2.379 1.809 3.686 1.44 1.273 3.753 1.306 1.574 0 2.948-.67 1.374-.703 2.279-1.977l2.814 1.24q-1.34 2.044-3.418 3.116-2.077 1.072-4.69 1.106-2.647-.034-4.691-1.106-2.01-1.106-3.183-3.015-1.14-1.944-1.173-4.457.033-2.647 1.273-4.557 1.24-1.943 3.15-2.982 1.943-1.038 4.087-1.072 2.279.034 4.256 1.106 1.943 1.106 3.15 3.217 1.206 2.077 1.239 5.059zM186.304 112.704h10.253q-.268-1.307-1.039-2.312-.77-1.005-1.876-1.575-1.106-.57-2.412-.603-1.91.034-3.25 1.24-1.307 1.173-1.676 3.25zm13.503 2.312h-13.603q.368 2.379 1.809 3.686 1.44 1.273 3.753 1.306 1.574 0 2.948-.67 1.374-.703 2.279-1.977l2.814 1.24q-1.34 2.044-3.418 3.116-2.077 1.072-4.69 1.106-2.647-.034-4.691-1.106-2.01-1.106-3.183-3.015-1.14-1.944-1.173-4.457.033-2.647 1.273-4.557 1.24-1.943 3.15-2.982 1.943-1.038 4.088-1.072 2.278.034 4.255 1.106 1.943 1.106 3.15 3.217 1.206 2.077 1.239 5.059zM210.63 115.887l-3.15 3.619h2.077v2.814h-7.874v-2.814h2.38l4.925-5.529-4.691-5.026h-2.178v-2.814h7.606v2.814h-2.01l2.914 3.116 2.815-3.116h-1.642v-2.814h7.64v2.814h-2.68l-4.424 5.026 5.093 5.529h2.078v2.814h-7.74v-2.814h2.278l-3.418-3.619zM226.444 114.446q0 1.575.637 2.815.67 1.24 1.81 1.91 1.138.703 2.646.737 2.38-.034 3.786-1.575 1.441-1.575 1.475-4.188-.034-1.575-.67-2.815-.67-1.24-1.81-1.943-1.139-.704-2.613-.737-1.508.033-2.714.77-1.173.738-1.877 2.044-.67 1.307-.67 2.982zm-3.183 12.33v-17.825h-2.714v-2.814h5.964v2.513h.067q1.072-1.374 2.513-2.078 1.441-.737 3.116-.737 2.312.034 4.088 1.106 1.776 1.072 2.815 2.949 1.005 1.91 1.005 4.422-.034 2.446-1.072 4.356-1.04 1.91-2.815 3.016-1.81 1.105-4.054 1.139-1.575 0-3.05-.637-1.44-.636-2.613-1.843v6.434h3.116v2.814h-9.314v-2.814h2.948zM246.414 112.704h10.253q-.268-1.307-1.04-2.312-.77-1.005-1.875-1.575-1.106-.57-2.413-.603-1.91.034-3.25 1.24-1.307 1.173-1.675 3.25zm13.503 2.312h-13.604q.369 2.379 1.81 3.686 1.44 1.273 3.752 1.306 1.575 0 2.949-.67 1.374-.703 2.278-1.977l2.815 1.24q-1.34 2.044-3.418 3.116-2.077 1.072-4.69 1.106-2.648-.034-4.692-1.106-2.01-1.106-3.183-3.015-1.139-1.944-1.172-4.457.033-2.647 1.273-4.557 1.24-1.943 3.15-2.982 1.943-1.038 4.087-1.072 2.279.034 4.255 1.106 1.944 1.106 3.15 3.217 1.206 2.077 1.24 5.059zM265.244 119.506V108.95h-3.25v-2.814h5.797v3.618h.067q.804-2.01 2.178-2.982 1.373-.938 2.915-.938h2.11v3.25h-1.708q-1.877 0-2.949.67-1.072.67-1.508 1.977-.435 1.274-.435 3.15v4.624h3.518v2.814h-9.918v-2.814h3.183zM276.603 108.951v-2.814h2.077v-2.513l3.25-2.915v5.428h2.982v2.814h-2.982v9.382q.034 1.14.905 1.273.837.134 2.077-.301v2.848q-.57.2-1.206.335-.603.134-1.173.134-1.709 0-2.78-.871-1.04-.905-1.073-2.982v-9.818h-2.077zM288.9 122.32V118.2h4.12v4.121h-4.12zm0-12.062v-4.121h4.12v4.121h-4.12zM161.309 140.273l-1.173 5.897h6.668l1.206-5.897h-6.701zm-7.271-2.346h5.36l1.375-6.7h2.479l-1.374 6.7h6.634l1.374-6.7h2.48l-1.374 6.7h3.082v2.346h-3.618l-1.173 5.897h4.791v2.345h-5.293l-1.408 6.701h-2.446l1.374-6.7h-6.668l-1.407 6.7h-2.446l1.374-6.7h-3.116v-2.346h3.652l1.206-5.897h-4.858v-2.346zM184.227 140.273l-1.173 5.897h6.668l1.206-5.897h-6.701zm-7.271-2.346h5.36l1.375-6.7h2.48l-1.375 6.7h6.635l1.373-6.7h2.48l-1.374 6.7h3.083v2.346h-3.62l-1.172 5.897h4.792v2.345h-5.294l-1.408 6.701h-2.446l1.374-6.7h-6.668l-1.407 6.7h-2.446l1.374-6.7h-3.116v-2.346h3.652l1.206-5.897h-4.858v-2.346z"/></g><path fill-rule="evenodd" fill="#000" d="M154.227 185.478l9.394-.165 6.592 75.647-39.39 3.626-63.764 5.604-4.12 11.701L34.92 287l-2.472-2.307 15.162-10.878.33-1.483-27.029 2.637-1.153-14.503-5.769-62.793 140.237-12.195"/><path d="M65.299 267.58L60.7 279.313l-25.776 5.554 15.311-10.746.346-5.29-27.523 2.703-6.56-71.923 145.379-12.806 6.147 71.758L65.3 267.58" fill="#fff" fill-rule="evenodd"/><g style="line-height:1.25;-inkscape-font-specification:'Rockwell Std';text-align:center" aria-label="FART SANDWICH" font-size="27.676" font-family="Lango Px" text-anchor="middle" fill="#000" stroke-width="1.297" font-weight="400"><path style="-inkscape-font-specification:'Lango Px'" d="M27.05 223.062l.617-.078q.08-.007.482-.067.402-.06.91-.156.507-.096.958-.215.451-.118 1.033-.301.581-.184.905-.21.215-.018.574.06.36.08.675.298.29.22.354.676.022.595-.57.969-.57.345-1.447.553-.85.205-1.68.355-.828.15-1.33.299.02.242.012.487-.009.218-.005.597.002.352.057 1.026.04.485.094.806l.046.565q.48-.093 1.01-.245t.932-.213q.431-.035.857.201.4.239.471.775l.002.027q-.027.653-.41.956-.38.33-.911.454-.532.125-.992.136-.187.043-.396.141-.208.099-.235.1l.088 1.078.677 6.914q.076.59.196 1.069.146.449.197 1.068.051.294-.005.597-.055.33-.28.566-.224.235-.734.304-.134.011-.383-.05-.25-.06-.516-.337-.265-.25-.48-.883-.062-.754-.112-1.699l-.14-1.697-.084-1.023-.084-1.024q-.06-.727-.162-1.64-.075-.917-.17-1.75-.067-.808-.134-1.29-.272-.005-.53-.174-.26-.195-.306-.76-.047-.567.174-.856.222-.262.377-.356l-.004-.705-.057-.7q-.049-.593-.125-1.183-.102-.589-.23-1.148-.033-.078-.25-.413-.218-.335-.28-.763-.038-.458.185-.72.197-.234.543-.317.317-.107.615-.104zM39.606 226.043q.009.108-.023.381-.002.299-.036.546-.007.244-.005.271-.043.14-.122.824-.055.655-.168 1.587-.088.902-.18 1.777-.09.875-.127 1.42.346-.082.8-.174.453-.091.848-.232.37-.112.553-.208-.022-.27-.098-.534-.074-.238-.182-.555-.375-1.27-.583-2.149-.21-.904-.348-1.598-.139-.694-.329-1.356zm3.652 5.828l.047.24q.262.223.39.457.157.258.18.527-.003.299-.076.739-.072.44-.041.817.055.673.283 1.468.204.824.42 1.484.077.265.294.925.19.662.44 1.401.226.768.41 1.35.183.581.221.713.036.106.074.238.038.133.049.268.058.375-.187.693-.218.316-.973.378-.594.022-.872-.39-.305-.408-.43-.94-.127-.559-.18-.88-.08-.292-.307-1.087-.226-.768-.501-1.803t-.498-2.101q-.25-1.064-.375-1.922-.37.112-1.006.3-.638.16-1.215.398-.577.237-.802.473-.219 1.618-.288 3.088-.071 1.443-.09 2.855.008.433-.34.814-.349.381-.805.446-.323.027-.556-.171-.233-.198-.363-.459-.157-.258-.175-.473-.009-.108-.004-.38.007-.244.043-.464.028-.328.076-1.064.075-.738.14-1.584.04-.844.092-1.527.028-.653.012-.841-.23-.171-.475-.504-.242-.305-.28-.763-.028-.676.309-.866.361-.22.685-.246.306-2.873.713-5.835.434-2.965.637-5.775.061-.249.196-.585.162-.339.41-.63.249-.265.626-.296.406-.006.839.31.435.345.58.794.806 2.537 1.456 5.168.65 2.631 1.217 5.242zM50.837 222.462q-.916.075-1.702.41-.786.337-1.194.642-.01.217-.017.462l.034.404q.013.487.082.997.07.536.095.832.016.189.07.51.055.348.135.667.905-.536 1.732-1.363.856-.803 1.383-1.66.526-.856.475-1.476-.02-.242-.381-.348-.335-.108-.712-.077zm-1.755 9.663l.797 8.043q.013.487-.37.762-.383.303-.814.338l-.161.014q-.054.004-.164-.014-.328-.027-.657-.407-.305-.409-.374-.918-.025-.297.003-.624.027-.328.025-.355.022-.056-.03-.702-.056-.674-.102-1.565l-.135-1.643-.089-1.078q-.12-1.454-.316-2.848-.22-1.365-.41-2.678-.236-1.554-.566-2.937-.331-1.383-.424-2.189-.065-.455.075-1.063.115-.58.575-.916.086.048.166.041.11.018.243-.02.646-.053 1.331-.3.658-.243 1.314-.514.685-.246 1.358-.301.754-.062 1.589.194.81.286 1.427.86.587.548.683 1.38.03.703-.278 1.569-.336.868-.79 1.61-.454.743-.802 1.124-.398.44-.93.89-.558.48-1.07.848-.51.394-.84.665.966.87 2.184 2.153 1.22 1.31 2.533 2.775 1.287 1.467 2.513 2.858 1.224 1.363 2.203 2.395.146.123.186.283.068.157.083.345.04.485-.275.945-.317.433-.853.504-.216.018-.44-.072-.227-.117-.437-.371-.958-1.087-1.899-2.312-.97-1.249-2.111-2.592-1.144-1.37-2.621-2.85l-1.33-1.327zM61.075 221.973l-.642.107q-.642.107-1.253.265-.608.186-1.2.235-.728.06-1.161-.257-.435-.344-.493-1.045-.02-.242.041-.491.088-.252.301-.296 1.466-.31 2.483-.475 1.015-.192 1.949-.378.934-.185 2.157-.475 1.408-.36 2.052-.44.645-.08.78-.091.318-.08.729-.033.381.023.673.27.291.247.363.784.017.54-.232.805-.248.292-.62.377-.344.11-.613.131l-.404.033-.535.099q-.294.051-.455.064-.7.058-1.1.145-.425.116-.658.244l.026.323q.031.377.029.676l.05.62q.03.35.08.969.162 1.966.407 4.279l.495 4.705q.276 2.363.457 4.572l.018.216.02.242q.038.133.053.321.022.27-.057.628-.054.33-.303.595-.25.264-.735.304-.484.04-.832-.23-.372-.24-.414-.752-.014-.162-.004-.38.009-.217.003-.623l-.583-7.084q-.128-1.563-.302-3.013-.171-1.423-.29-2.878l-.087-1.05q-.047-.566-.12-1.13l-.073-.888zM77.007 237.314l-.024.029q.148-.5.508-.747.361-.22.869-.316.61-.158 1.16-.393.553-.208.89-.724.34-.49.264-1.405-.122-1.156-.749-2.515-.627-1.358-1.429-2.865-.828-1.505-1.5-3.077t-.825-3.105q-.123-1.834.915-3.058 1.038-1.225 2.895-1.404.242-.02.597.005.33.054.617.247.287.194.322.625.056.673-.163.99-.193.286-.539.37-.348.055-.698.084-.702.03-1.208.479-.503.475-.43 1.69.122 1.155.605 2.417.51 1.26 1.194 2.641.582 1.145 1.137 2.293.556 1.148.976 2.306.392 1.134.483 2.238l.017.216q.077 1.268-.55 2.215-.627.946-1.61 1.515-.985.57-1.981.651-.297.024-.705.004t-.725-.239q-.314-.191-.354-.676l-.017-.215q.018-.11.058-.276zM87.769 222.083q.009.108-.023.382-.003.298-.037.545-.007.245-.004.272-.043.139-.123.823-.054.656-.167 1.587-.089.902-.18 1.777-.09.876-.127 1.421.346-.083.8-.174.453-.092.848-.233.37-.112.552-.208-.022-.27-.098-.534-.074-.238-.181-.555-.376-1.27-.583-2.148-.21-.905-.349-1.599-.138-.694-.328-1.356zm3.652 5.829l.047.24q.262.222.39.456.157.258.179.528-.003.298-.075.738t-.041.817q.055.673.283 1.468.203.824.42 1.484.076.265.293.925.19.663.44 1.401.227.768.41 1.35.184.581.222.714.035.105.073.238.038.132.05.267.057.375-.188.693-.218.317-.972.379-.595.021-.873-.39-.304-.409-.43-.94-.127-.56-.18-.88-.079-.293-.307-1.087-.225-.768-.5-1.803t-.499-2.102q-.25-1.064-.375-1.921l-1.005.3q-.638.16-1.215.397-.577.238-.802.473-.22 1.618-.288 3.088-.072 1.443-.091 2.855.008.433-.34.815-.348.38-.804.445-.323.027-.556-.17-.234-.199-.364-.46-.156-.258-.174-.473-.009-.108-.004-.38.007-.244.043-.464.027-.328.075-1.064.075-.738.141-1.584.04-.844.092-1.526.027-.653.012-.842-.231-.17-.475-.503-.243-.306-.28-.764-.029-.675.308-.866.362-.22.685-.246.306-2.873.714-5.835.434-2.964.637-5.774.06-.25.196-.586.162-.339.409-.63.25-.265.626-.296.407-.006.84.311.435.344.58.793.805 2.537 1.455 5.168.65 2.632 1.218 5.243zM105.063 236.173l.029.025q.046.566-.208 1.102-.256.509-.688.87-.458.363-.943.403-.27.022-.473-.151-.202-.146-.352-.324-.164-.339-.506-.88-.345-.568-.666-1.166-.35-.622-.474-1.154-.128-.234-.426-.887-.27-.656-.64-1.52l-.739-1.73q-.344-.893-.615-1.549-.271-.655-.345-.893l-1.578-4.345q.087 1.05.218 2.314.104 1.266.237 2.557l.195 2.37q.118 1.102.173 1.776l.064.78q.01.109.07.51l.122.831q.062.429.107.642.038.133.116.424.078.292.09.427.057.375.041.837-.016.463-.257.835-.242.345-.86.423-.675.029-.953-.382-.251-.414-.34-.84-.018-.216-.085-.698l-.136-.993q-.067-.482-.08-.644l-1.258-15.3q.003-.298.358-.599.355-.3.84-.34.592-.049.92.304.325.326.526.797.177.501.376.946.354.676.741 1.43.361.757.793 1.725.461.993 1.034 2.356.576 1.39 1.36 3.332.142.422.445 1.13.273.682.582 1.47l.638 1.494q-.29-1.875-.577-4.048t-.552-4.402q-.262-2.202-.476-4.137-.186-1.937-.304-3.365-.144-1.425.043-2.119.19-.666.998-.733.294-.05.662.136.397.211.488.99.002.353-.01.869-.014.49.07 1.513.075.916.235 2.204.158 1.262.357 2.683.2 1.448.369 2.844.171 1.423.269 2.608l.288 3.502q.008.108.1.561.092.454.217.986.127.559.218 1.012.092.454.103.589l.049.592zM108.008 217.897q.08.644.195 1.72.114 1.048.272 2.31.157 1.261.286 2.498.156 1.235.294 2.254.04.485.15 1.154.084.698.163 1.668.051.62.102 1.564.048.918.13 1.915 1.816-1.668 2.74-3.94.923-2.3.717-4.805-.146-1.778-.829-3.16-.654-1.356-1.806-2.183-.604-.412-1.218-.632-.615-.22-1.196-.363zm-2.06-2.298l.242-.02q.323-.027.624.003.298.002.79.043.545.037 1.355.323.781.261 1.54.578.733.347 1.166.664.661.46 1.32 1.22.66.76 1.172 1.72.511.935.705 1.977.083.345.143.747.06.402.067.483.208 2.532-.333 4.854-.542 2.323-1.794 4.243-1.281 1.895-3.262 3.197-.324.352-.843.638-.546.29-1.004.327-.514.015-.836-.284-.352-.323-.383-.7-.009-.434.292-.73.303-.269.643-.432-.007-.406-.042-.837l-.071-.862q-.11-1.347-.286-2.824-.15-1.48-.323-2.93-.173-1.45-.3-2.66-.153-1.207-.217-1.989l-.217-2.64-.16-1.939-.162.013q-.325 0-.502-.175-.18-.202-.224-.416-.074-.238-.083-.345-.017-.541.307-.893.325-.325.676-.354zM121.007 226.917q.038.132.098.534.087.4.123.83.03-.626.089-1.553.061-.9.146-1.856.059-.927.136-1.638.05-.71.06-.927.036-.22.034-.898 0-.65-.01-1.436.017-.788.022-1.385-.024-.622-.01-.786.135-.336.342-.462.235-.1.424-.116.808-.066 1.149.123.37.213.477.53l.215.633q.318.896.59 1.904.244.983.542 1.962.3 1.006.664 1.817.132.287.394.835l.508 1.233.567 1.282q.237.577.376.946.064-1.199.163-2.97.071-1.768.145-3.835.077-2.04.07-4.101.022-2.036-.068-3.791.149-.5.463-.635.315-.134.56-.127.567-.02.922.33.329.38.4.917l-.011.19-.66 17.71q-.045.437-.377.681-.308.215-.604.24-.46.01-1.068-.78-.607-.791-1.255-2.067-.645-1.248-1.218-2.611-.602-1.388-1.047-2.518-.448-1.156-.658-1.735l.01.134q.02.243.01.434l-.01.217-.954 8.513q-.12.2-.272.32-.18.124-.422.143-.324.027-.656-.054-.334-.108-.547-.39-.275-.383-.66-1.436-.358-1.056-.776-2.513l-.875-3.047q-.429-1.591-.874-3.046-.42-1.484-.834-2.562-.24-.604-.564-1.256-.354-.676-.448-1.481-.042-.187.017-.463.056-.303.424-.441.698-.085 1.197.037.47.124.775.858l.37 1.19q.27.981.648 2.279.38 1.325.733 2.652.38 1.324.648 2.278.295.952.367 1.164zM133.982 233.01l.002.026q-.214-1.284-.369-2.844-.185-1.585-.353-3.307l-.292-3.555-.293-3.556q-.146-1.778-.245-3.315l-.226-2.748q.002-.298.2-.532.227-.208.386-.248.216-.018.606.113.39.13.736.373.343.216.4.564l.001.027q.002.027-.009.217-.011.191-.072.44-.003.299.073 1.215.073.888.134 1.968l.158 1.913.086 1.05.319 3.879q.195 2.045.417 4.088.195 2.045.425 3.843.022.27-.032.6-.055.329-.277.591-.225.236-.627.296-.487.013-.787-.342-.327-.353-.36-.757zM142.833 212.675q.428-.063 1.059.021.655.055 1.252.385.624.329.926 1.036.067.157.08.319.038.132.045.213.024.622-.302.947-.326.325-.649.352-.649.026-.824-.122-.15-.178-.197-.418-.02-.243-.195-.39-.204-.174-.877-.119-1.104.091-1.862.777-.759.66-1.216 1.7-.459 1.014-.66 2.197-.23 1.158-.276 2.246-.044 1.116.022 1.924.058 1.026.41 2.352.325 1.303.943 2.554.643 1.221 1.627 1.981 1.012.758 2.415.67.379-.005.691-.166.34-.163.948-.675.173-.204.306-.242.157-.067.318-.08.541-.018.922.33.352.324.399.89.042.837-.54 1.346-.582.51-1.402.766-.792.255-1.44.281-1.592.104-2.84-.553-1.276-.681-2.186-1.854-.91-1.172-1.543-2.612-.607-1.441-.94-2.851-.333-1.41-.424-2.515-.135-1.643.152-3.43.287-1.785.998-3.363.736-1.606 1.95-2.682 1.188-1.047 2.91-1.215zM154.8 220.369l-.18-2.21q-.105-1.265-.243-2.61-.137-1.344-.233-2.503-.064-.78.065-1.198.128-.417.72-.466.811-.04 1.17.365.358.404.349.947l-.015.815q.276 2.364.493 5.004.188 2.615.463 5.304.273 2.662.728 5.228.482 2.564 1.263 4.805l.002.027q.121.478-.194.938-.34.489-.93.564-.379.004-.612-.193-.262-.223-.424-.535-.132-.288-.203-.499-.682-2.357-1.126-4.788-.471-2.43-.677-4.935-.031-.377-.04-.81l-.066-.808-.108.009-.637.16q-.479.121-1.09.28-.61.159-1.142.284l-.795.228q.04.485.057 1.026.018.54.058 1.026.11 1.021.36 2.41.275 1.361.392 2.789.038.458-.2.857-.239.4-.775.47-.568.02-.95-.328-.38-.349-.438-.724-.03-.35-.104-1.266-.103-.913-.223-2.042l-.23-2.15q-.11-.995-.183-1.559-.359-.079-.603-.411-.245-.333-.322-.95-.007-.406.189-.666.195-.26.373-.41l-.093-1.132q-.036-.431-.147-1.452-.109-.995-.229-2.124-.122-1.156-.222-2.043-.1-.886-.117-1.102-.034-.404.267-.7.277-.267.654-.298.296-.024.628.057.36.08.624.329.262.222.322.624-.009.218.017.866.024.622.04 1.462.041.837.107 1.645.04.81.086 1.376.036.43.112 1.021.077.618.138 1.02l.404-.034q.215-.018.722-.114.506-.122 1.09-.279.583-.156 1.057-.33.476-.149.602-.267z"/></g><path d="M190.767 173.906l-9.394-.165-6.592 75.648 39.389 3.625 63.765 5.604 4.12 11.701 28.017 5.11 2.473-2.308-15.163-10.877-.33-1.484 27.03 2.637 1.153-14.503 5.768-62.792-140.236-12.196" fill="#000" fill-rule="evenodd"/><path fill-rule="evenodd" fill="#fff" d="M279.695 256.008l4.598 11.734 25.776 5.554-15.31-10.745-.347-5.29 27.524 2.702 6.559-71.923-145.378-12.805-6.148 71.758 102.726 9.015"/><g style="line-height:1.25;-inkscape-font-specification:'Rockwell Std';text-align:center" aria-label="MEATLOAF CANDY" font-size="24" font-family="Lango Px" text-anchor="middle" fill="#000" stroke-width="1.297" font-weight="400"><path style="-inkscape-font-specification:'Lango Px'" d="M195.757 206.162l-.002.023q.113-.508.23-1.086.093-.557.336-.937.222-.405.738-.386.441.06.672.408.204.37.283.846.076.5.088.925-.003.329.044 1.18.071.852.125 1.914.077 1.065.115 2.032.062.97.06 1.557.032.473.072 1.135.04.662.1 1.349.062.687.107 1.278.047.569.046.874l.207 4.344-.017.21q.014.12.004.236-.015.187-.112.508l-.002.023q-.17.34-.436.435-.266.096-.428.059-.304-.025-.458-.155-.179-.11-.157-.084-.111-.08-.19-.274-.077-.195-.126-.457l-.144-6.268-.041-.638q-.053-.498-.099-1.09-.045-.591-.075-1.088-.053-.498-.061-.687l-.277-2.35q-.264.918-.624 2.159-.361 1.24-.776 2.57l-.747 2.502q-.38 1.191-.636 2.017-.281.847-.37 1.075-.146.34-.416.483-.273.165-.506.146-.442-.06-.65-.382-.233-.325-.338-.757-.083-.43-.15-.765l-.777-3.121q-.358-1.37-.589-2.565-.23-1.195-.372-2.053-.163-.883-.268-1.315-.186 1.113-.334 2.347-.174 1.256-.303 2.539-.127 1.26-.223 2.427l-.115 1.402q-.058.7-.061 1.312l-.002.023q-.052.348-.35.536-.295.163-.599.139-.652-.078-.793-.654-.164-.577-.072-1.416.046-.561.14-1.423.12-.884.254-1.932l.268-2.117q.135-1.071.239-2.05l.214-2.029q.061-.747.224-1.58.14-.859.294-1.575.155-.74.26-1.155.073-.323.328-.56.229-.217.535-.215.278.046.566.258.312.214.382.502.207.628.347 1.51.14.858.239 1.665.12.833.221 1.312.114.62.284 1.41.147.789.34 1.58l.304 1.46.2 1.004q.126.458.256 1.174.108.69.223 1.288.035-.138.066-.23.029-.068.031-.091.246-.709.537-1.673.314-.961.633-1.97.318-1.009.576-1.858.232-.827.364-1.287l.504-2.122q.07-.276.22-.687.15-.387.296-.728.12-.32.124-.366zM200.552 220.784l.993-15.51q-.104-.173-.115-.316-.01-.165.024-.303.031-.374.52-.592.511-.217 1.225-.323.738-.104 1.493-.136.755-.032 1.341-.007.588.001.798.018.419.058.606.356.185.32.154.695-.065.511-.386.697-.321.185-.767.172-.447.01-.913-.052l-.724-.06q-.444-.036-.776.007-.308.022-.524.075l-.111 1.355q-.073.887-.113 1.66-.04.773-.02 1.386.118-.014.26-.026.117.01.166-.01l-.027.045q.823-.003 1.294-.01.473-.032.755-.033.284-.023.588.002.255.044.403.244.172.203.219.489.072.264.057.451-.058.419-.45.598-.414.178-.957.204-.564 0-1.078-.042l-.584-.048q-.278-.046-.489-.064l-.186-.015q-.094-.008-.19.008-.1.65-.152 1.28l-.1 1.215-.107 1.309q-.102 1.238-.124 2.365-.024 1.15.008 2.187.796.042 1.62.04.848-.025 1.63-.102.38-.039.643-.088.286-.047.403-.037.257.02.452.225.194.204.315.45.096.266.08.453-.076.652-.471.878-.418.224-.913.23-.518.005-.868-.024l-.023-.002q-.094-.007-.353-.005-.282 0-.613.02-.329-.004-.61-.003-.637.018-1.034-.015-.376-.007-.61-.026l-.42-.035q-.397-.032-.66-.266-.265-.21-.408-.48-.142-.27-.171-.484zM213.87 208.968q-.008.093-.074.323-.045.255-.109.461-.04.209-.042.232-.057.113-.221.687-.14.553-.369 1.334-.203.76-.405 1.495-.201.736-.31 1.198.308-.022.709-.036.4-.014.759-.079.332-.043.502-.1.019-.233-.009-.47-.03-.215-.076-.5-.142-1.141-.195-1.922-.052-.803-.072-1.416-.02-.614-.089-1.207zm2.298 5.504l.006.212q.193.227.27.445.097.243.078.477-.045.255-.169.621-.124.366-.15.693-.049.584.034 1.296.057.734.15 1.33.027.237.119.832.069.594.178 1.262.085.688.16 1.212.074.523.088.642.015.095.03.214.013.119.003.236-.003.329-.258.566-.231.24-.885.186-.512-.065-.692-.456-.203-.393-.234-.866-.03-.497-.03-.779-.026-.26-.109-.973-.084-.689-.173-1.613-.088-.925-.128-1.869-.064-.945-.049-1.697l-.903.114q-.568.047-1.095.169-.528.121-.753.29-.417 1.354-.685 2.602-.265 1.224-.482 2.43-.054.371-.406.648-.352.277-.75.267-.28-.023-.452-.225t-.246-.443q-.098-.244-.082-.43.007-.094.05-.325.04-.209.103-.392.07-.276.215-.9.168-.62.345-1.335.152-.716.294-1.293.116-.554.13-.718-.174-.179-.336-.498-.164-.296-.13-.693.07-.582.386-.697.34-.137.62-.113.67-2.415 1.437-4.891.792-2.475 1.363-4.85.087-.205.25-.474.187-.266.44-.48.25-.192.578-.165.348.052.674.385.323.356.384.76.33 2.285.513 4.628.184 2.343.3 4.658zM223.05 207.724h-.565q-.565 0-1.11.05-.547.073-1.06.03-.631-.051-.957-.384-.323-.356-.273-.963.017-.21.104-.415.111-.202.3-.21 1.298-.058 2.192-.055.895-.02 1.72-.047.825-.026 1.913-.101 1.256-.109 1.818-.086.563.023.68.032.284-.023.628.076.323.073.538.326.214.253.2.722-.063.465-.314.656-.252.215-.583.234-.31.045-.543.026l-.35-.029-.472.009q-.258.002-.399-.01-.607-.05-.961-.032-.38.04-.598.116l-.023.28q-.027.327-.071.582l-.044.538-.07.84q-.14 1.706-.258 3.718-.118 2.013-.243 4.096-.099 2.061-.256 3.977l-.015.186-.018.21q.014.12 0 .283-.019.233-.137.53-.093.274-.344.465-.25.191-.671.156-.42-.034-.68-.314-.284-.259-.248-.702.012-.14.05-.326.039-.185.091-.533l.505-6.143q.112-1.355.169-2.62.055-1.242.158-2.504l.075-.91q.04-.491.058-.984l.063-.77zM231.62 205.865l.024.002q.279.046.493.3.24.23.242.49.006.212-.032.96-.062.748-.125 1.801l-.13 2.153q-.067 1.1-.116 1.99l-.108 1.308q-.01.117-.042.796-.009.681-.045 1.69-.035 1.008-.075 2.063-.04 1.055-.088 1.92l-.035 1.291q.138.035.37.078l.444.036.513.042q.236-.004.33.004l-.024-.002q.753-.009 1.205-.065.477-.079.786-.124.335-.066.662-.04.56.047.837.399.3.353.252.937-.05.325-.394.509-.368.181-.868.258-.502.1-.975.131-.496.03-.753.009-.236.004-.826.026h-1.152l-.87-.002q-.146.059-.263.05-.118.013-.212.005-.373-.03-.708-.246-.334-.24-.389-.714.027-.327.08-.676.05-.325.08-.698.05-.89.084-1.875t.064-1.923q.007-.94.072-1.734l.1-1.215q.05-.89.12-2.036.071-1.146.118-2.295.071-1.146.12-2.036.05-.89.056-1.242.027-.327-.032-.755-.084-.407-.05-.827.049-.302.298-.47.272-.165.56-.236.286-.047.403-.037zM242.833 211.655q-.89-.05-1.429.494-.561.541-.864 1.363-.303.822-.413 1.589-.133.765-.145 1.187-.075.911-.085 1.898.014.966.202 1.828.165.86.588 1.435.425.553 1.147.636.49.04.95-.11.484-.172.77-.502.585-.822.899-2.066.314-1.244.437-2.739.042-.514.035-1.29.019-.798-.148-1.635-.168-.813-.614-1.391-.468-.603-1.33-.697zm-.074-1.676q1.563.152 2.441.906.88.754 1.26 1.844.357 1.088.429 2.222.046 1.156-.031 2.09-.115 1.402-.457 2.691-.32 1.314-.92 2.323-.602 1.032-1.54 1.567-.915.56-2.202.477-1.376-.136-2.185-.885-.809-.748-1.187-1.861-.38-1.113-.443-2.341-.085-1.254.029-2.35.069-.84.241-1.79.174-.974.531-1.885.336-.937.913-1.665.577-.729 1.408-1.108.533-.19.96-.226.428-.06.753-.009zM252.505 212.144q-.008.094-.074.323-.044.255-.108.462-.041.208-.043.231-.056.113-.221.688-.14.553-.368 1.333-.204.76-.406 1.496-.201.736-.31 1.197.308-.022.709-.036.4-.014.759-.078.333-.044.502-.1.019-.234-.008-.471-.03-.214-.077-.5-.141-1.14-.195-1.921-.051-.804-.071-1.417-.02-.613-.09-1.207zm2.299 5.504l.006.212q.193.228.269.446.097.243.078.476-.044.255-.169.621-.124.366-.15.693-.049.584.034 1.297.057.733.15 1.329.027.237.12.833.068.593.178 1.26.084.69.159 1.213.074.524.088.643.016.095.03.214.013.118.003.235-.003.33-.258.567-.231.24-.885.186-.512-.066-.692-.457-.203-.393-.234-.866-.03-.496-.03-.778-.026-.261-.108-.973-.085-.69-.173-1.614-.089-.924-.129-1.868-.063-.946-.049-1.697-.332.043-.903.114-.568.047-1.095.168-.528.121-.753.291-.417 1.353-.684 2.601-.266 1.225-.482 2.43-.054.372-.406.648-.352.277-.751.268-.28-.023-.452-.225-.172-.203-.246-.444-.097-.243-.082-.43.008-.093.05-.325.04-.208.103-.391.07-.277.215-.9.169-.621.345-1.335.153-.717.294-1.293.116-.555.13-.719-.174-.178-.335-.497-.164-.296-.132-.693.072-.582.387-.697.34-.137.62-.114.67-2.414 1.437-4.891.792-2.475 1.363-4.85.088-.204.251-.473.187-.267.44-.481.25-.191.577-.165.349.053.674.385.324.356.384.76.33 2.285.514 4.629.183 2.343.299 4.657zM259.096 209.206l.539.02q.07.006.422.012.353.005.8-.005.448-.01.85-.048.404-.037.927-.112.524-.074.804-.051.187.015.483.134.296.118.535.35.217.229.207.628-.065.512-.625.748-.536.215-1.316.268-.757.055-1.487.066-.73.01-1.181.067-.018.21-.058.419-.039.185-.09.51-.047.302-.095.886-.035.42-.035.702l-.04.49q.424-.011.9-.066.474-.055.826-.05.374.03.705.293.308.26.293.73l-.002.023q-.116.555-.486.76-.371.228-.844.26-.473.031-.868-.025-.166.01-.358.065-.193.055-.216.053l-.077.934-.4 6.01q-.02.517.016.943.061.405.017.942.002.259-.09.51-.092.274-.318.444-.226.17-.671.156-.117-.01-.322-.096-.204-.088-.393-.362-.191-.25-.285-.823.054-.654.144-1.47l.121-1.471.073-.888.073-.888q.052-.63.094-1.426.065-.795.101-1.52.058-.701.07-1.124-.232-.042-.43-.223-.194-.204-.154-.695.04-.49.27-.707.228-.193.373-.251l.097-.604.05-.607q.042-.514.061-1.03-.004-.517-.034-1.014-.018-.072-.156-.389-.139-.317-.131-.693.032-.397.26-.59.202-.171.51-.193.286-.047.54-.002zM277.26 209.947q.376.007.903.168.553.14 1.017.507.487.369.645 1.017.036.144.024.284.014.119.008.189-.067.535-.392.767-.325.232-.605.21-.559-.07-.688-.222-.103-.173-.11-.385.018-.21-.11-.362-.15-.177-.734-.225-.958-.079-1.703.4-.743.457-1.281 1.283-.537.802-.876 1.786-.361.958-.555 1.882-.195.949-.253 1.65-.096.885.018 2.07.093 1.16.444 2.318.377 1.136 1.112 1.926.758.79 1.97.914.326.05.616-.043.313-.092.906-.443.177-.15.296-.164.144-.035.284-.024.465.062.742.414.255.327.215.817-.083.723-.653 1.075-.57.353-1.307.457-.714.106-1.273.037-1.376-.137-2.35-.875-.996-.764-1.608-1.896-.613-1.132-.95-2.454-.316-1.319-.4-2.572-.086-1.254-.007-2.211.117-1.425.616-2.913.498-1.487 1.33-2.736.857-1.27 2.047-2.019 1.165-.727 2.662-.628zM285.254 214.837q-.008.093-.074.323-.045.255-.109.461-.04.209-.042.232-.056.113-.221.687-.14.553-.369 1.334-.203.76-.405 1.495-.201.736-.31 1.198.308-.022.709-.036.4-.014.759-.079.332-.043.502-.1.019-.233-.009-.47-.03-.215-.076-.5-.141-1.141-.195-1.922-.051-.804-.072-1.417-.02-.613-.088-1.206zm2.298 5.503l.007.213q.192.227.269.445.097.243.078.477-.044.255-.169.62-.124.367-.15.694-.049.584.034 1.296.057.734.15 1.33.027.237.119.832.069.594.178 1.261.085.69.16 1.213.074.523.088.642.015.095.03.214.013.119.003.236-.003.329-.258.566-.231.24-.885.186-.512-.065-.692-.456-.203-.393-.234-.866-.03-.497-.03-.779-.026-.26-.108-.973-.085-.689-.174-1.613-.088-.925-.128-1.869-.063-.946-.049-1.697-.332.043-.903.114-.568.047-1.095.169-.528.12-.753.29-.417 1.354-.684 2.602-.266 1.224-.482 2.43-.054.371-.406.648-.352.277-.751.267-.28-.023-.452-.225t-.246-.443q-.098-.244-.082-.43.007-.094.05-.326.04-.208.103-.391.07-.276.215-.9.168-.62.345-1.335.153-.716.294-1.293.116-.555.13-.718-.174-.179-.336-.498-.163-.296-.13-.693.07-.582.386-.697.34-.137.62-.114.67-2.414 1.437-4.89.792-2.475 1.363-4.85.088-.205.25-.474.187-.267.44-.481.251-.191.578-.164.349.052.674.385.323.355.384.76.33 2.285.513 4.628.184 2.343.3 4.657zM298.053 229.34l.022.026q-.04.49-.334.913-.291.4-.712.647-.443.246-.864.211-.233-.02-.383-.196-.152-.154-.255-.327-.092-.313-.309-.825-.215-.535-.404-1.091-.21-.582-.243-1.055-.076-.218-.238-.819-.139-.6-.332-1.391l-.388-1.584q-.168-.814-.307-1.413-.139-.6-.168-.813l-.734-3.94q-.075.91-.142 2.01-.09 1.098-.16 2.22l-.168 2.056q-.056.96-.104 1.544l-.055.677q-.008.094-.013.446l-.013.728q-.008.376 0 .565.014.118.04.379.025.26.016.378-.004.329-.083.722-.08.393-.338.678-.257.26-.796.24-.582-.072-.761-.463-.157-.389-.173-.766.016-.187.027-.61l.024-.868q.012-.422.023-.562l1.091-13.268q.044-.255.39-.462.347-.206.767-.172.514.043.744.39.232.325.338.757.08.454.188.862.207.629.431 1.33.202.698.434 1.587.254.915.551 2.162.296 1.27.69 3.043.064.382.222 1.03.137.622.29 1.34l.334 1.368q.018-1.644.08-3.544.062-1.9.151-3.844.088-1.921.18-3.607.114-1.684.216-2.922.078-1.24.336-1.807.257-.543.958-.485.258-.002.547.21.31.236.277.916-.048.302-.131.742-.082.416-.155 1.304-.065.794-.11 1.919-.044 1.102-.076 2.345-.033 1.268-.086 2.486-.055 1.242-.14 2.27l-.25 3.036q-.007.094.007.495.014.4.046.874.03.496.043.897.014.4.005.518l-.042.513zM303.161 214.122q-.022.562-.076 1.499-.051.913-.095 2.014-.043 1.102-.108 2.178-.042 1.079-.068 1.97-.035.42-.036 1.009-.027.609-.096 1.45-.044.537-.135 1.353-.088.792-.16 1.656 1.79-1.17 2.903-2.983 1.116-1.837 1.294-4.01.127-1.54-.262-2.82-.367-1.252-1.236-2.123-.458-.438-.953-.713-.495-.276-.972-.48zm-1.437-2.258l.21.017q.28.023.534.091.255.044.67.149.461.109 1.114.468.63.334 1.234.713.579.4.904.733.501.488.957 1.23.457.744.76 1.639.304.871.322 1.79.022.307.017.66-.006.352-.011.422-.181 2.196-.973 4.106-.792 1.91-2.135 3.376-1.365 1.44-3.244 2.273-.327.255-.812.427-.507.17-.904.137-.442-.06-.676-.361-.256-.327-.229-.654.054-.372.354-.582.297-.188.61-.28.053-.348.084-.722l.061-.747q.096-1.168.155-2.457.082-1.286.14-2.551.056-1.266.12-2.319.039-1.055.095-1.732l.188-2.29.138-1.681-.14-.012q-.278-.046-.405-.221-.125-.198-.133-.387-.03-.214-.022-.308.062-.465.389-.72.325-.232.628-.207zM316.804 216.372l-3.214 7.92q-.202.454-.507 1.299-.328.843-.69 1.824-.338.96-.663 1.757-.3.798-.495 1.158-.198.407-.42.53-.244.121-.478.102-.444-.037-.682-.291-.216-.23-.308-.543-.092-.313-.07-.57.011-.14.042-.232.031-.091.037-.162.085-.18.375-.839.31-.633.712-1.517.424-.859.825-1.743.4-.86.688-1.495.312-.657.375-.84.056-.113.176-.432.12-.32.268-.683.148-.365.212-.571-.108-.409-.428-1.093-.295-.707-.675-1.796-.15-.46-.399-1.162-.248-.702-.58-1.529-.308-.825-.688-1.632-.06-.123-.094-.29-.057-.17-.038-.403.066-.512.364-.7.3-.21.626-.183.094.008.3.072.23.066.403.245.195.204.406.786.21.581.45 1.4.24.796.519 1.69.258.867.57 1.645l.058.146q.038.121.077.218.357-.911.595-1.526.24-.616.416-1.048.211-.57.555-1.318.344-.748.866-1.952.264-.636.552-.989.29-.376.78-.336.512.066.74.438.205.37.17.79-.033.397-.256.825-.223.429-.608 1.102-.363.7-.864 1.928z"/></g></svg>