<svg xmlns="http://www.w3.org/2000/svg" viewBox="0 0 348 348" fill="none"><path d="M5.079 5.776h336.913v337.67H5.08z" stroke-width="2" stroke="#000"/><path d="M282.734 40.554c0-8.376 6.966-15.165 15.56-15.165 4.126 0 8.084 1.597 11.001 4.441 2.918 2.844 4.558 6.702 4.558 10.724 0 8.376-6.966 15.165-15.56 15.165-8.593 0-15.559-6.79-15.559-15.165z" stroke-width="2" stroke="#000"/><path d="M104.784 22.489h112.062v44.63H104.784zM48.996 85.069h283.792v24.255H48.996z" opacity=".97" fill="#fff" stroke="#000" stroke-width="2.5" stroke-miterlimit="10"/><path d="M18.306 254.972h252.03v43.432H18.306z" opacity=".97" fill="#fff" stroke="#000" stroke-width="3.699" stroke-miterlimit="10"/><path d="M48.996 313.196h283.792v24.256H48.996z" opacity=".97" fill="#fff" stroke="#000" stroke-width="2.5" stroke-miterlimit="10"/><path d="M31.444 132.513H64.68v33.236H31.444zM80.491 132.513h33.236v33.236H80.491zM129.538 132.513h33.236v33.236h-33.236zM175.95 132.513h33.236v33.236H175.95zM222.361 132.513h33.237v33.236H222.36zM31.444 195.75H64.68v33.235H31.444zM80.491 195.75h33.236v33.235H80.491zM129.538 195.75h33.236v33.235h-33.236zM175.95 195.75h33.236v33.235H175.95zM222.361 195.75h33.237v33.235H222.36z" opacity=".97" fill="#fff" stroke="#000" stroke-width="3.294" stroke-miterlimit="10"/><path d="M324.056 147.154a16.009 16.009 0 0 1-16.01 16.01 16.009 16.009 0 0 1-16.008-16.01 16.009 16.009 0 0 1 16.009-16.008 16.009 16.009 0 0 1 16.009 16.008zM325.026 212.645a16.009 16.009 0 0 1-16.009 16.008 16.009 16.009 0 0 1-16.009-16.008 16.009 16.009 0 0 1 16.01-16.01 16.009 16.009 0 0 1 16.008 16.01zM324.54 273.778a16.009 16.009 0 0 1-16.008 16.008 16.009 16.009 0 0 1-16.009-16.008 16.009 16.009 0 0 1 16.009-16.01 16.009 16.009 0 0 1 16.009 16.01z" opacity=".97" fill="#fff" stroke="#000" stroke-width="2.5" stroke-miterlimit="10"/><path d="M13.463 83.978h23.526v23.526H13.463zM13.463 311.496h23.526v23.526H13.463z" opacity=".97" fill="#fff" stroke="#000" stroke-width="2.332" stroke-miterlimit="10"/><path d="M20.208 90.031c.124-.291.098-.584.098-.887 0-.066-.016-.134 0-.197.018-.072.076-.128.099-.197.03-.09-.03-.207 0-.296.015-.044.078-.057.098-.099.015-.03-.014-.069 0-.098.11-.218.062-.03.198-.099.118-.059.177-.236.295-.296.03-.014.07.015.099 0 .052-.026.144-.17.197-.197.03-.014.07.015.099 0 .041-.02.057-.078.098-.098.03-.015.252 0 .296 0h.591c.066 0 .139.03.198 0 .083-.042.12-.146.197-.197.027-.019.065 0 .098 0h2.169c.095 0 .562-.015.591 0 .042.02.057.077.099.098.03.015.066 0 .098 0 .07 0 .42-.018.493 0 .101.025.195.073.296.099.108.027.53-.031.592 0 .041.02.054.084.098.098.094.031.197 0 .296 0h.69c.059 0 .666-.012.69 0 .125.063.197.197.296.296.058.058.371.349.394.394.015.03-.015.07 0 .099.02.041.078.057.098.098.015.03 0 .066 0 .099 0 .1-.018.537 0 .591.015.044.078.057.099.099.015.03 0 .066 0 .099 0 .032.033.098 0 .098s0-.131 0-.098v4.534c0 .024-.005.386 0 .394.052.078.146.12.197.197.018.028 0 .55 0 .592v7.491c0 .089.016.462 0 .493-.02.042-.078.057-.098.099-.015.03 0 .066 0 .099v.69c0 .032.018.07 0 .098-.052.077-.132.132-.198.197-.032.033-.057.078-.098.099-.03.015-.07-.015-.099 0-.113.056-.137.206-.197.296-.026.038-.066.065-.098.098-.033.033-.06.073-.099.099-.061.04-.136.058-.197.098-.039.026-.055.084-.099.1-.062.02-.133-.017-.197 0-.071.017-.127.074-.197.098-.031.01-.066 0-.099 0-.102 0-.614-.02-.69 0-.07.017-.127.075-.197.098-.03.01-.065 0-.098 0h-3.45c-.07 0-.42-.018-.493 0-.101.025-.195.074-.296.099-.078.02-.33 0-.394 0h-.986c-.033 0-.099.033-.099 0s.132 0 .099 0c-.066 0-.135-.02-.197 0-.088.03-.114.155-.197.197-.03.015-.55 0-.592 0h-.591c-.033 0-.07.015-.099 0-.041-.02-.066-.066-.098-.099-.223-.222.029.06-.198-.394-.059-.118-.236-.177-.295-.296-.015-.029.014-.069 0-.098-.021-.042-.078-.057-.099-.099-.01-.022 0-.37 0-.394v-.592-9.463-2.957-.986c0-.068-.015-.364 0-.394.02-.042.078-.057.099-.099.014-.029 0-.065 0-.098 0-.066-.021-.135 0-.197.03-.088.155-.114.197-.197.015-.03-.015-.07 0-.099.02-.042.078-.057.098-.099.015-.029-.014-.069 0-.098.032-.063.416-.416.493-.493.327-.327-.046.093.099-.197.02-.042.066-.066.098-.099.033-.033.057-.077.099-.098.03-.015.071.018.099 0 .077-.052.122-.142.197-.197.059-.044.136-.058.197-.099.039-.026.057-.078.098-.099.063-.03.43.032.493 0 .244-.121-.034-.098.198-.098M16.462 324.934c.131-.132.243-.287.394-.395.085-.06.203-.052.296-.098.041-.021.06-.073.099-.099.06-.04.136-.058.197-.098.147-.099.236-.316.394-.395.059-.03.133.016.197 0 .179.06.183-.16.296-.197.062-.02.135.02.197 0 .075-.025.304-.349.394-.394.03-.015.07.014.099 0 .041-.021.066-.066.098-.099l.099-.098c.066-.066.12-.146.197-.198.061-.04.136-.057.197-.098.039-.026.057-.078.099-.099.03-.014.069.015.098 0 .042-.02.057-.078.099-.098.059-.03.142.036.197 0 .077-.052.114-.156.197-.198.118-.058.27.042.395 0 .044-.014.054-.083.098-.098.053-.018.311 0 .394 0h.986c.068 0 .365.015.395 0 .041-.02.057-.078.098-.099.03-.014.066 0 .099 0 .014 0 .476-.011.493 0 .077.052.12.146.197.197.03.02.446-.015.493 0 .044.015.057.078.098.099.03.015.07-.015.099 0 .041.02.054.084.098.099.063.02.132 0 .197 0 .033 0 .07-.015.099 0 .042.02.057.077.099.098.064.032.43-.031.492 0 .084.042.114.156.198.197.021.011.584.002.591 0 .044-.014.066-.065.099-.098.032-.033.083-.055.098-.099.019-.056 0-.4 0-.493v-.197c0-.033-.015-.069 0-.098.04-.082.346-.322.394-.395.019-.027-.01-.067 0-.098.238-.714-.028.155.198-.296.014-.03-.015-.07 0-.099.02-.041.065-.065.098-.098s.06-.073.099-.099c.06-.04.136-.058.197-.098.039-.026.054-.084.098-.1.063-.02.134.017.198 0 .178.06.183-.159.295-.196.053-.018.311 0 .395 0h1.873c.107 0 .429-.021.492 0 .07.023.126.08.198.098.063.016.131 0 .197 0 .033 0 .069-.014.098 0 .042.021.057.078.099.099.03.015.066 0 .098 0 .066 0 .135-.02.198 0 .044.015.057.078.098.099.03.014.07-.015.099 0 .052.026.244.243.295.295l.099.099c.033.033.078.057.099.099.027.054-.026.514 0 .591.014.044.077.057.098.099.011.022 0 .37 0 .394v.69c0 .033.018.071 0 .099-.051.077-.145.12-.197.197-.036.054.02.134 0 .197-.023.07-.075.127-.099.197-.02.062.021.135 0 .197-.046.14-.15.255-.197.394-.01.032.019.072 0 .099-.051.077-.141.123-.197.197-.217.05-.052.203-.098.296-.226.451.04-.418-.198.296-.01.03.019.07 0 .098-.051.077-.145.12-.197.197-.018.028.015.07 0 .099-.02.042-.078.057-.098.099-.03.058.03.138 0 .197-.021.041-.066.065-.099.098l-.098.099c-.152.151-.282.324-.493.394-.063.021-.139-.03-.197 0-.042.021-.057.078-.099.099-.03.014-.066 0-.099 0h-.887c-.044 0-.565.013-.591 0-.042-.021-.066-.066-.099-.099-.113-.113-.116-.137-.295-.197-.032-.01-.066 0-.1 0-.032-.033-.056-.078-.098-.099-.058-.029-.138.03-.197 0-.041-.02-.057-.077-.098-.098-.03-.015-.07.015-.099 0-.118-.06-.177-.237-.296-.296-.029-.015-.069.015-.098 0-.083-.041-.114-.155-.197-.197-.03-.015-.07.015-.099 0-.083-.042-.114-.156-.197-.197-.03-.015-.066 0-.099 0h-.197c-.222 0-.373-.01-.591.098-.042.021-.057.078-.099.099-.03.015-.069-.015-.098 0-.042.02-.057.078-.099.099-.058.029-.228-.023-.296 0-.714.238.156-.029-.295.197-.043.02-.454 0-.493 0h-.986c-.044 0-.266-.015-.296 0-.041.02-.057.078-.098.098-.03.015-.252 0-.296 0h-1.282c-.064 0-.24.019-.295 0-.07-.023-.128-.075-.197-.098-.056-.019-.231 0-.296 0h-.789c-.113 0-.292.025-.394 0-.071-.018-.127-.076-.197-.099-.094-.031-.202.031-.296 0-.044-.015-.057-.078-.098-.098-.063-.032-.43.032-.493 0-.046-.023-.337-.337-.395-.395-.327-.327.093.047-.197-.098-.097-.049-.297-.346-.394-.395-.03-.014-.07.015-.099 0-.083-.041-.114-.155-.197-.197-.03-.014-.066 0-.098 0h-.099" stroke="#000"/><path d="M23.855 322.075c-.538-1.346.09.035-.394-.69-.019-.027.014-.07 0-.099-.021-.041-.078-.057-.099-.098-.046-.093-.045-.207-.098-.296-.048-.08-.15-.117-.198-.197-.053-.09-.052-.203-.098-.296-.021-.041-.078-.057-.099-.098-.014-.03.015-.07 0-.1-.02-.04-.078-.056-.098-.098-.015-.03.014-.069 0-.098-.021-.042-.066-.066-.099-.099s-.057-.078-.098-.098c-.063-.032-.43.032-.493 0-.042-.021-.057-.078-.099-.1-.03-.014-.066 0-.098 0h-.198c-.095 0-.562-.014-.591 0a.226.226 0 0 0-.099.1c-.02.042 0 .453 0 .492v1.085c0 .033.033.098 0 .098s0-.065 0-.098c-.033.098-.073.195-.098.295-.049.194.091.007-.099.198M30.558 320.103c-.077-.338.389-.285.493-.492.015-.03-.015-.07 0-.099.02-.042.066-.066.098-.099l.1-.098.196-.197c.033-.033.078-.057.099-.099.014-.03-.015-.07 0-.099.041-.083.155-.114.197-.197.226-.453-.026-.171.197-.394M32.727 321.878c.91-1.137.035-.308.591-.493.088-.03.114-.156.197-.197.29-.145-.13.228.197-.099M23.855 322.075c.131.164.343.289.394.493.073.292-.23.228-.295.394-.05.126-.049.269-.099.394-.017.044-.078.057-.099.099-.014.03.015.07 0 .099-.053.106-.153.185-.197.295-.024.061.013.133 0 .197-.02.102-.073.195-.098.296-.008.032.01.068 0 .099-.024.07-.081.126-.099.197-.016.064 0 .131 0 .197 0 .033.015.07 0 .099-.02.041-.084.054-.098.098-.032.094 0 .197 0 .296" stroke="#000"/><path d="M20.8 321.878l-.494 1.38c0 .033.015.07 0 .098-.053.106-.144.19-.197.296-.015.03 0 .066 0 .099 0 .065.02.135 0 .197-.015.044-.084.054-.098.099-.02.056 0 .4 0 .492 0 .033.01.068 0 .099-.024.07-.076.127-.099.197-.02.062 0 .132 0 .197v.493M28.29 321.09c-.372.88-.393 1.081-.393 1.774 0 .065.02.134 0 .197-.024.07-.076.127-.099.197-.01.031 0 .066 0 .098v.198c0 .065.016.133 0 .197-.018.071-.075.127-.099.197-.01.031 0 .066 0 .099 0 .08.02.64 0 .69-.044.11-.144.19-.197.295-.015.03 0 .326 0 .395 0 .052.014.464 0 .492-.018.037-.278.206-.098.296.117.059.263 0 .394 0M21.39 325.722c.024.291-.277.318-.394.493-.04.061-.057.136-.098.197-.026.039-.084.055-.099.099-.02.062.021.135 0 .197-.015.045-.251.251-.296.296-.032.033-.065.131-.098.098s.131-.131.098-.098c-.426.426-.015-.026-.295.394-.052.077-.156.114-.197.197-.047.093-.066.197-.099.296M23.264 325.328V326.807c0 .032.018.07 0 .098-.052.077-.146.12-.198.197-.028.043.026.244 0 .296-.02.042-.087.054-.098.099-.034.135.032.362 0 .492-.025.101-.066.198-.099.296" stroke="#000"/><g aria-label="7.3" style="line-height:1.25;-inkscape-font-specification:sans-serif" font-weight="400" font-size="40" font-family="sans-serif" letter-spacing="0" word-spacing="0" fill="#000"><path d="M154.492 33.794l-13.164 24.727h-4.18l14.004-25.665h-16.563V29.44h19.903zM166.66 58.52h-4.668v-5.566h4.668zM191.855 44.517q.938.84 1.543 2.109.605 1.27.605 3.281 0 1.992-.722 3.653-.723 1.66-2.031 2.89-1.465 1.367-3.457 2.031-1.973.645-4.336.645-2.422 0-4.766-.586-2.344-.566-3.848-1.25v-4.082h.293q1.66 1.094 3.907 1.816 2.246.723 4.335.723 1.23 0 2.618-.41 1.386-.41 2.246-1.211.898-.86 1.328-1.895.45-1.035.45-2.617 0-1.562-.509-2.578-.488-1.035-1.367-1.62-.879-.606-2.129-.821-1.25-.235-2.695-.235h-1.758v-3.242h1.367q2.969 0 4.727-1.23 1.777-1.25 1.777-3.633 0-1.055-.45-1.836-.448-.8-1.25-1.309-.839-.507-1.796-.703-.957-.195-2.168-.195-1.855 0-3.945.664t-3.946 1.875h-.195v-4.082q1.387-.684 3.692-1.25 2.324-.586 4.492-.586 2.129 0 3.75.39 1.62.391 2.93 1.25 1.406.938 2.128 2.266.723 1.328.723 3.106 0 2.422-1.719 4.238-1.699 1.797-4.023 2.266v.273q.937.156 2.148.664 1.211.488 2.051 1.23z"/></g><g aria-label="MODULE" style="line-height:1.25;-inkscape-font-specification:sans-serif" font-weight="400" font-size="18.667" font-family="sans-serif" letter-spacing="0" word-spacing="0" fill="#000"><path d="M170.61 102.78h-1.804V91.086l-3.774 7.957h-1.075l-3.746-7.957v11.694h-1.686V89.208h2.46l3.619 7.556 3.5-7.556h2.507zM184.392 90.767q.83.911 1.267 2.233.446 1.321.446 2.999 0 1.677-.455 3.007-.447 1.322-1.258 2.206-.839.92-1.987 1.386-1.14.464-2.607.464-1.431 0-2.607-.474-1.166-.474-1.987-1.376-.82-.902-1.267-2.215-.437-1.312-.437-2.998 0-1.66.437-2.972.438-1.321 1.276-2.26.802-.893 1.987-1.367 1.194-.474 2.598-.474 1.458 0 2.616.483 1.167.474 1.978 1.358zm-.164 5.232q0-2.644-1.185-4.075-1.185-1.44-3.236-1.44-2.069 0-3.254 1.44-1.176 1.431-1.176 4.075 0 2.67 1.204 4.092 1.203 1.413 3.226 1.413 2.024 0 3.218-1.413 1.203-1.422 1.203-4.092zM200.433 96.008q0 1.85-.81 3.354-.803 1.504-2.143 2.333-.93.574-2.078.83-1.14.255-3.008.255h-3.427V89.208h3.39q1.988 0 3.155.292 1.175.282 1.987.784 1.385.866 2.16 2.306.774 1.44.774 3.418zm-1.886-.028q0-1.595-.556-2.688-.556-1.094-1.66-1.723-.801-.456-1.704-.629-.902-.182-2.16-.182h-1.695v10.472h1.695q1.304 0 2.27-.191.975-.191 1.786-.711 1.012-.647 1.513-1.704.51-1.058.51-2.644zM213.586 97.33q0 1.476-.328 2.579-.32 1.093-1.058 1.823-.701.692-1.64 1.011-.939.32-2.188.32-1.276 0-2.224-.338-.948-.337-1.595-.993-.738-.748-1.066-1.805-.32-1.057-.32-2.598v-8.12h1.806v8.211q0 1.103.145 1.741.155.638.51 1.158.402.592 1.085.893.693.3 1.66.3.975 0 1.658-.29.684-.302 1.094-.903.355-.52.501-1.185.155-.675.155-1.668v-8.258h1.805zM225.626 102.78h-8.586V89.208h1.805v11.968h6.781zM236.372 102.78h-8.941V89.208h8.941v1.604h-7.136v3.72h7.136v1.603h-7.136v5.04h7.136z" style="-inkscape-font-specification:'sans-serif, Normal';font-variant-ligatures:normal;font-variant-caps:normal;font-variant-numeric:normal;font-feature-settings:normal;text-align:start"/></g><g aria-label="MODULE" style="line-height:1.25;-inkscape-font-specification:sans-serif" font-weight="400" font-size="18.667" font-family="sans-serif" letter-spacing="0" word-spacing="0" fill="#000"><path d="M171.046 331.47h-1.805v-11.695l-3.773 7.957h-1.076l-3.746-7.957v11.694h-1.686v-13.572h2.461l3.618 7.556 3.5-7.556h2.507zM184.827 319.456q.83.912 1.267 2.233.447 1.322.447 2.999t-.456 3.008q-.447 1.321-1.258 2.205-.838.921-1.987 1.386-1.14.465-2.607.465-1.43 0-2.606-.474-1.167-.474-1.987-1.377-.82-.902-1.267-2.214-.438-1.313-.438-3 0-1.658.438-2.97.437-1.322 1.276-2.26.802-.894 1.987-1.368 1.194-.474 2.597-.474 1.459 0 2.616.483 1.167.474 1.978 1.358zm-.164 5.232q0-2.643-1.185-4.074-1.185-1.44-3.235-1.44-2.07 0-3.254 1.44-1.176 1.43-1.176 4.074 0 2.67 1.203 4.092 1.203 1.413 3.227 1.413 2.023 0 3.217-1.413 1.203-1.422 1.203-4.092zM200.869 324.697q0 1.85-.811 3.354-.802 1.504-2.142 2.333-.93.575-2.078.83-1.14.255-3.008.255h-3.427v-13.572h3.39q1.987 0 3.154.292 1.176.283 1.987.784 1.385.866 2.16 2.306.775 1.44.775 3.418zm-1.887-.027q0-1.595-.556-2.69-.556-1.093-1.659-1.722-.802-.456-1.704-.629-.902-.182-2.16-.182h-1.696v10.473h1.696q1.303 0 2.27-.192.975-.191 1.786-.71 1.011-.648 1.513-1.705.51-1.057.51-2.643zM214.021 326.019q0 1.476-.328 2.579-.319 1.094-1.057 1.823-.702.693-1.64 1.012-.94.319-2.188.319-1.276 0-2.224-.338-.948-.337-1.595-.993-.739-.747-1.067-1.805-.319-1.057-.319-2.597v-8.122h1.805v8.213q0 1.103.146 1.74.155.639.51 1.158.401.593 1.085.893.693.301 1.659.301.975 0 1.659-.292.683-.3 1.093-.902.356-.52.502-1.185.155-.674.155-1.668v-8.258h1.804zM226.062 331.47h-8.586v-13.573h1.804v11.968h6.782zM236.808 331.47h-8.942v-13.573h8.942v1.605h-7.137v3.718h7.137v1.605h-7.137v5.04h7.137z" style="-inkscape-font-specification:'sans-serif, Normal';font-variant-ligatures:normal;font-variant-caps:normal;font-variant-numeric:normal;font-feature-settings:normal;text-align:start"/></g><g style="line-height:1.25;-inkscape-font-specification:'sans-serif, Normal';font-variant-ligatures:normal;font-variant-caps:normal;font-variant-numeric:normal;font-feature-settings:normal;text-align:start"><path d="M53.804 159.6H42.26v-2.178h4.44v-14.294h-4.44v-1.948q.902 0 1.934-.143 1.03-.158 1.56-.444.66-.358 1.032-.903.387-.558.444-1.49h2.22v19.222h4.354z" aria-label="1" font-weight="400" font-size="29.333" font-family="sans-serif" letter-spacing="0" word-spacing="0" fill="#000"/></g><g style="line-height:1.25;-inkscape-font-specification:'sans-serif, Normal';font-variant-ligatures:normal;font-variant-caps:normal;font-variant-numeric:normal;font-feature-settings:normal;text-align:start"><path d="M104.816 159.6H90.38v-2.994l3.007-2.579q1.519-1.289 2.822-2.563 2.75-2.664 3.767-4.226 1.017-1.575 1.017-3.394 0-1.662-1.103-2.593-1.089-.945-3.05-.945-1.304 0-2.822.458-1.519.459-2.965 1.404h-.143v-3.008q1.016-.501 2.707-.916 1.704-.416 3.294-.416 3.28 0 5.142 1.59 1.862 1.576 1.862 4.283 0 1.217-.315 2.277-.301 1.046-.903 1.99-.558.889-1.317 1.748-.745.86-1.82 1.905-1.532 1.504-3.165 2.922-1.633 1.404-3.05 2.607h11.472z" aria-label="2" font-weight="400" font-size="29.333" font-family="sans-serif" letter-spacing="0" word-spacing="0" fill="#000"/></g><g style="line-height:1.25;-inkscape-font-specification:'sans-serif, Normal';font-variant-ligatures:normal;font-variant-caps:normal;font-variant-numeric:normal;font-feature-settings:normal;text-align:start"><path d="M151.145 149.33q.688.615 1.132 1.546.444.931.444 2.407 0 1.46-.53 2.678t-1.49 2.12q-1.074 1.002-2.535 1.49-1.446.472-3.18.472-1.775 0-3.494-.43-1.719-.415-2.822-.916v-2.994h.215q1.217.802 2.865 1.332 1.647.53 3.18.53.902 0 1.919-.3 1.017-.301 1.647-.889.659-.63.974-1.389.33-.759.33-1.92 0-1.145-.373-1.89-.358-.759-1.003-1.189-.644-.444-1.561-.601-.917-.172-1.977-.172h-1.289v-2.378h1.003q2.177 0 3.466-.902 1.303-.917 1.303-2.664 0-.773-.329-1.346-.33-.588-.917-.96-.616-.372-1.317-.516-.702-.143-1.59-.143-1.36 0-2.893.487-1.533.487-2.894 1.375h-.143v-2.993q1.017-.502 2.707-.917 1.705-.43 3.294-.43 1.562 0 2.75.287 1.19.286 2.149.916 1.031.688 1.561 1.662t.53 2.277q0 1.776-1.26 3.108-1.247 1.318-2.951 1.662v.2q.688.115 1.576.487.888.358 1.503.903z" aria-label="3" font-weight="400" font-size="29.333" font-family="sans-serif" letter-spacing="0" word-spacing="0" fill="#000"/></g><g style="line-height:1.25;-inkscape-font-specification:'sans-serif, Normal';font-variant-ligatures:normal;font-variant-caps:normal;font-variant-numeric:normal;font-feature-settings:normal;text-align:start"><path d="M199.509 153.598h-3.166v6.001h-2.75v-6.001h-10.212v-3.294l10.327-12.032h2.635v13.034h3.166zm-5.916-2.292v-9.625l-8.264 9.625z" aria-label="4" font-weight="400" font-size="29.333" font-family="sans-serif" letter-spacing="0" word-spacing="0" fill="#000"/></g><g style="line-height:1.25;-inkscape-font-specification:'sans-serif, Normal';font-variant-ligatures:normal;font-variant-caps:normal;font-variant-numeric:normal;font-feature-settings:normal;text-align:start"><path d="M246.85 152.824q0 1.49-.544 2.85-.545 1.361-1.49 2.292-1.031 1.003-2.464 1.547-1.417.53-3.294.53-1.747 0-3.366-.372-1.618-.358-2.735-.874v-3.022h.2q1.175.745 2.75 1.275 1.576.515 3.094.515 1.017 0 1.962-.286.96-.287 1.705-1.003.63-.616.945-1.475.33-.86.33-1.991 0-1.103-.387-1.862-.373-.76-1.046-1.217-.745-.545-1.819-.76-1.06-.229-2.378-.229-1.26 0-2.434.172-1.16.172-2.006.344v-10.986h12.834v2.507h-10.07v5.672q.617-.058 1.261-.086.645-.029 1.117-.029 1.733 0 3.037.301 1.303.286 2.392 1.031 1.145.788 1.776 2.034.63 1.246.63 3.122z" aria-label="5" font-weight="400" font-size="29.333" font-family="sans-serif" letter-spacing="0" word-spacing="0" fill="#000"/></g><g style="line-height:1.25;-inkscape-font-specification:'sans-serif, Normal';font-variant-ligatures:normal;font-variant-caps:normal;font-variant-numeric:normal;font-feature-settings:normal;text-align:start"><path d="M55.337 216.681q0 3.251-2.149 5.314-2.134 2.048-5.242 2.048-1.575 0-2.864-.487-1.29-.487-2.278-1.446-1.231-1.19-1.905-3.152-.658-1.962-.658-4.726 0-2.836.601-5.027.616-2.192 1.948-3.896 1.26-1.619 3.251-2.521 1.991-.917 4.64-.917.846 0 1.419.072.573.071 1.16.258v2.735h-.143q-.401-.215-1.218-.4-.802-.201-1.647-.201-3.08 0-4.913 1.933-1.833 1.92-2.134 5.2 1.203-.73 2.364-1.103 1.174-.387 2.707-.387 1.36 0 2.392.258 1.045.243 2.134 1.002 1.26.874 1.89 2.206.645 1.332.645 3.237zm-2.908.115q0-1.332-.4-2.206-.387-.874-1.29-1.518-.659-.459-1.46-.602-.803-.143-1.677-.143-1.217 0-2.263.286-1.045.287-2.148.888-.029.316-.043.616-.014.287-.014.73 0 2.264.458 3.582.473 1.303 1.29 2.062.658.63 1.417.931.774.286 1.676.286 2.077 0 3.266-1.26 1.188-1.275 1.188-3.652z" aria-label="6" font-weight="400" font-size="29.333" font-family="sans-serif" letter-spacing="0" word-spacing="0" fill="#000"/></g><g style="line-height:1.25;-inkscape-font-specification:'sans-serif, Normal';font-variant-ligatures:normal;font-variant-caps:normal;font-variant-numeric:normal;font-feature-settings:normal;text-align:start"><path d="M104.873 205.466L95.22 223.6h-3.065l10.27-18.82H90.277v-2.507h14.595z" aria-label="7" font-weight="400" font-size="29.333" font-family="sans-serif" letter-spacing="0" word-spacing="0" fill="#000"/></g><g style="line-height:1.25;-inkscape-font-specification:'sans-serif, Normal';font-variant-ligatures:normal;font-variant-caps:normal;font-variant-numeric:normal;font-feature-settings:normal;text-align:start"><path d="M153.18 217.655q0 2.764-2.163 4.598-2.149 1.833-5.415 1.833-3.466 0-5.528-1.79-2.048-1.79-2.048-4.584 0-1.776 1.03-3.208 1.032-1.447 2.908-2.292v-.086q-1.718-.916-2.549-2.005-.816-1.088-.816-2.721 0-2.406 1.976-4.01 1.977-1.605 5.027-1.605 3.194 0 5.1 1.533 1.904 1.532 1.904 3.896 0 1.446-.902 2.85-.902 1.39-2.65 2.177v.086q2.006.86 3.065 2.12 1.06 1.26 1.06 3.208zm-3.395-10.413q0-1.532-1.189-2.435-1.175-.916-3.008-.916-1.805 0-2.965.86-1.146.859-1.146 2.32 0 1.03.573 1.79.588.745 1.762 1.332.53.258 1.518.673 1.003.415 1.948.688 1.418-.946 1.963-1.963.544-1.017.544-2.349zm.444 10.685q0-1.317-.587-2.105-.573-.802-2.263-1.604-.674-.316-1.476-.588-.802-.272-2.134-.759-1.289.702-2.077 1.905-.773 1.203-.773 2.722 0 1.933 1.332 3.194 1.332 1.26 3.38 1.26 2.091 0 3.337-1.074 1.26-1.074 1.26-2.95z" aria-label="8" font-weight="400" font-size="29.333" font-family="sans-serif" letter-spacing="0" word-spacing="0" fill="#000"/></g><g style="line-height:1.25;-inkscape-font-specification:'sans-serif, Normal';font-variant-ligatures:normal;font-variant-caps:normal;font-variant-numeric:normal;font-feature-settings:normal;text-align:start"><path d="M199.591 210.458q0 2.793-.644 5.07-.63 2.277-1.92 3.881-1.303 1.633-3.265 2.521-1.962.888-4.612.888-.745 0-1.404-.086-.659-.071-1.174-.243v-2.736h.143q.415.215 1.174.416.76.186 1.69.186 3.166 0 4.956-1.89 1.805-1.906 2.091-5.243-1.332.802-2.506 1.146-1.175.344-2.564.344-1.318 0-2.392-.258-1.06-.258-2.134-1.003-1.26-.874-1.905-2.22-.63-1.346-.63-3.223 0-3.265 2.148-5.313 2.149-2.049 5.242-2.049 1.547 0 2.865.487 1.318.473 2.306 1.433 1.217 1.188 1.876 3.065.66 1.862.66 4.827zm-2.893-.616q0-2.22-.458-3.567-.459-1.346-1.26-2.09-.674-.645-1.447-.918-.774-.286-1.676-.286-2.063 0-3.266 1.29-1.189 1.288-1.189 3.623 0 1.36.387 2.22.387.86 1.304 1.504.644.444 1.417.601.774.144 1.72.144 1.116 0 2.262-.301t2.149-.874l.028-.587q.029-.301.029-.76z" aria-label="9" font-weight="400" font-size="29.333" font-family="sans-serif" letter-spacing="0" word-spacing="0" fill="#000"/></g><g style="line-height:1.25;-inkscape-font-specification:'sans-serif, Normal';font-variant-ligatures:normal;font-variant-caps:normal;font-variant-numeric:normal;font-feature-settings:normal;text-align:start"><path d="M246.993 212.929q0 5.743-1.805 8.436-1.79 2.678-5.571 2.678-3.839 0-5.615-2.721-1.761-2.722-1.761-8.365 0-5.686 1.79-8.393 1.79-2.721 5.586-2.721 3.838 0 5.6 2.764 1.776 2.75 1.776 8.322zm-3.767 6.502q.501-1.16.673-2.721.187-1.576.187-3.781 0-2.178-.187-3.782-.172-1.604-.687-2.721-.501-1.103-1.375-1.662-.86-.558-2.22-.558-1.347 0-2.235.558-.873.56-1.389 1.69-.487 1.06-.673 2.765-.172 1.704-.172 3.738 0 2.235.158 3.738.157 1.504.673 2.693.472 1.117 1.332 1.705.874.587 2.306.587 1.346 0 2.234-.559.888-.558 1.375-1.69z" aria-label="0" font-weight="400" font-size="29.333" font-family="sans-serif" letter-spacing="0" word-spacing="0" fill="#000"/></g><g style="line-height:1.25;-inkscape-font-specification:'sans-serif, Normal';font-variant-ligatures:normal;font-variant-caps:normal;font-variant-numeric:normal;font-feature-settings:normal;text-align:start"><path d="M316.381 155.977q-.788.343-1.432.644-.63.3-1.662.63-.873.272-1.905.459-1.016.2-2.248.2-2.32 0-4.225-.644-1.891-.66-3.295-2.049-1.375-1.36-2.148-3.451-.774-2.106-.774-4.885 0-2.635.745-4.712t2.149-3.509q1.36-1.39 3.28-2.12 1.933-.73 4.282-.73 1.719 0 3.423.415 1.719.416 3.81 1.461v3.366h-.215q-1.761-1.475-3.494-2.148-1.734-.674-3.71-.674-1.619 0-2.922.53-1.289.516-2.306 1.619-.988 1.074-1.547 2.721-.544 1.633-.544 3.781 0 2.25.601 3.868.616 1.618 1.576 2.635 1.003 1.06 2.335 1.576 1.346.5 2.836.5 2.048 0 3.838-.7 1.79-.703 3.352-2.106h.2z" aria-label="C" font-weight="400" font-size="29.333" font-family="sans-serif" letter-spacing="0" word-spacing="0" fill="#000"/></g><g style="line-height:1.25;-inkscape-font-specification:'sans-serif, Normal';font-variant-ligatures:normal;font-variant-caps:normal;font-variant-numeric:normal;font-feature-settings:normal;text-align:start"><path d="M318.526 212.283q0 2.908-1.275 5.271-1.26 2.364-3.365 3.667-1.461.902-3.266 1.303-1.79.401-4.727.401h-5.385v-21.327h5.328q3.122 0 4.956.459 1.847.444 3.122 1.232 2.177 1.36 3.395 3.623 1.217 2.263 1.217 5.371zm-2.965-.043q0-2.506-.873-4.225-.874-1.719-2.607-2.707-1.26-.716-2.679-.988-1.418-.287-3.394-.287h-2.664v16.457h2.664q2.048 0 3.566-.3 1.533-.301 2.808-1.118 1.59-1.017 2.377-2.678.802-1.661.802-4.154z" aria-label="D" font-weight="400" font-size="29.333" font-family="sans-serif" letter-spacing="0" word-spacing="0" fill="#000"/></g><g style="line-height:1.25;-inkscape-font-specification:'sans-serif, Normal';font-variant-ligatures:normal;font-variant-caps:normal;font-variant-numeric:normal;font-feature-settings:normal;text-align:start"><path d="M315.755 284.72h-14.05v-21.327h14.05v2.52H304.54v5.844h11.215v2.521H304.54v7.92h11.215z" aria-label="E" font-weight="400" font-size="29.333" font-family="sans-serif" letter-spacing="0" word-spacing="0" fill="#000"/></g></svg>