<svg xmlns="http://www.w3.org/2000/svg" viewBox="0 0 348 348" fill="none" stroke-linecap="square" stroke-miterlimit="10"><clipPath id="a"><path d="M0 0h348v348H0V0z"/></clipPath><g clip-path="url(#a)"><path d="M0 0h348v348H0z"/><path fill="#fff" d="M-6 0h348v348H-6z"/><path d="M5 5.8h337v337.6H5z"/><path stroke="#000" stroke-width="2" stroke-linejoin="round" stroke-linecap="butt" d="M5 5.8h337v337.6H5z"/><path fill="#fff" d="M282.7 40.6c0-8.4 7-15.2 15.6-15.2 4.1 0 8 1.6 11 4.4a15 15 0 014.6 10.8c0 8.3-7 15.1-15.6 15.1s-15.6-6.8-15.6-15.1z"/><path stroke="#000" stroke-width="2" stroke-linejoin="round" stroke-linecap="butt" d="M282.7 40.6c0-8.4 7-15.2 15.6-15.2 4.1 0 8 1.6 11 4.4a15 15 0 014.6 10.8c0 8.3-7 15.1-15.6 15.1s-15.6-6.8-15.6-15.1z"/></g><path fill="#fff" stroke="#000" d="M35.4 274.3h277.2v53.1H35.4z"/><path fill="#fff" stroke="#000" stroke-width="1.3" d="M18.7 255.5h310.6v79.7H18.7z"/><path fill="#fff" stroke="#000" d="M25.8 34.7h45.7v45.7H25.8zm63.4-1.5h45.7v45.7H89.2zm60.5 0h45.7v45.7h-45.7zm65.2-.8h45.7v45.7h-45.7zM27.3 100.7H73v45.7H27.3zm1.5 78.5h45.7v45.7H28.8zm62.8-77.4h45.7v45.7H91.6zm-.9 77.4h45.7v45.7H90.7zm64.9-77h45.7v45.7h-45.7zm0 75.5h45.7v45.7h-45.7z"/><path fill="#fff" stroke="#000" stroke-width="1.5" d="M213.3 103.7h103.4v45.7H213.3zm3.4 75.5h103.4v45.7H216.7z"/><flowRoot xml:space="preserve" style="line-height:125%" transform="matrix(.77877 0 0 .80632 312 103.6)" font-size="40" font-style="normal" font-weight="400" letter-spacing="0" word-spacing="0" fill="#000" fill-opacity="1" stroke="none" font-family="Sans"><flowRegion><path d="M-118.9 102.4H8v38.9h-126.9z"/></flowRegion><flowPara/></flowRoot><path d="M59.009 124.893q.937.84 1.543 2.11.605 1.27.605 3.281 0 1.992-.722 3.652-.723 1.66-2.031 2.89-1.465 1.368-3.458 2.032-1.972.645-4.335.645-2.422 0-4.766-.586-2.344-.567-3.848-1.25v-4.082h.293q1.66 1.094 3.906 1.816 2.247.723 4.336.723 1.23 0 2.618-.41 1.386-.41 2.246-1.211.898-.86 1.328-1.895.449-1.035.449-2.617 0-1.562-.508-2.578-.488-1.035-1.367-1.621-.879-.606-2.129-.82-1.25-.235-2.695-.235h-1.758v-3.242h1.367q2.969 0 4.727-1.23 1.777-1.25 1.777-3.633 0-1.055-.45-1.836-.448-.801-1.25-1.309-.839-.508-1.796-.703-.957-.195-2.168-.195-1.855 0-3.945.664t-3.946 1.875h-.195v-4.082q1.387-.684 3.692-1.25 2.324-.586 4.492-.586 2.129 0 3.75.39 1.62.391 2.93 1.25 1.406.938 2.128 2.266.723 1.328.723 3.105 0 2.422-1.719 4.239-1.699 1.797-4.023 2.265V123q.937.156 2.148.664 1.211.488 2.051 1.23z" aria-label="3" font-weight="400" font-size="40" font-family="Sans" letter-spacing="0" word-spacing="0" fill="#000"/><path d="M124.596 130.714h-4.316v8.183h-3.75v-8.183h-13.926v-4.493l14.082-16.406h3.594v17.774h4.316zm-8.066-3.125v-13.125l-11.27 13.125z" aria-label="4" font-weight="400" font-size="40" font-family="Sans" letter-spacing="0" word-spacing="0" fill="#000"/><path d="M189.015 129.356q0 2.031-.742 3.887-.743 1.855-2.032 3.125-1.406 1.367-3.359 2.11-1.934.722-4.492.722-2.383 0-4.59-.508-2.207-.488-3.73-1.191v-4.121h.273q1.602 1.015 3.75 1.738 2.148.703 4.219.703 1.386 0 2.675-.39 1.31-.391 2.325-1.368.86-.84 1.289-2.011.449-1.172.449-2.715 0-1.504-.527-2.54-.508-1.035-1.426-1.66-1.016-.742-2.48-1.035-1.446-.312-3.243-.312-1.719 0-3.32.234-1.582.235-2.734.469v-14.98h17.5v3.417h-13.73v7.735q.839-.078 1.718-.117.879-.04 1.523-.04 2.364 0 4.14.41 1.778.391 3.263 1.407 1.562 1.074 2.421 2.773.86 1.7.86 4.258z" aria-label="5" font-weight="400" font-size="40" font-family="Sans" letter-spacing="0" word-spacing="0" fill="#000"/><path d="M60.262 58.808q0 4.433-2.93 7.246-2.91 2.793-7.148 2.793-2.149 0-3.907-.664-1.757-.664-3.105-1.973-1.68-1.62-2.598-4.297-.898-2.676-.898-6.445 0-3.867.82-6.856.84-2.988 2.656-5.312 1.72-2.207 4.434-3.438 2.715-1.25 6.328-1.25 1.152 0 1.934.098.78.098 1.582.352v3.73h-.196q-.547-.293-1.66-.547-1.094-.273-2.246-.273-4.2 0-6.7 2.637-2.5 2.617-2.91 7.09 1.641-.997 3.223-1.504 1.602-.528 3.692-.528 1.855 0 3.262.352 1.425.332 2.91 1.367 1.718 1.191 2.578 3.008.879 1.816.879 4.414zm-3.965.156q0-1.816-.547-3.008-.527-1.191-1.758-2.07-.898-.625-1.992-.82-1.094-.196-2.285-.196-1.66 0-3.086.39-1.426.392-2.93 1.212-.039.43-.058.84-.02.39-.02.996 0 3.086.625 4.883.645 1.777 1.758 2.812.898.86 1.934 1.27 1.054.39 2.285.39 2.832 0 4.453-1.718 1.62-1.739 1.62-4.98z" aria-label="6" font-weight="400" font-size="40" font-family="Sans" letter-spacing="0" word-spacing="0" fill="#000"/><path d="M123.01 43.544l-13.164 24.727h-4.18l14.004-25.664h-16.562v-3.418h19.902z" aria-label="7" font-weight="400" font-size="40" font-family="Sans" letter-spacing="0" word-spacing="0" fill="#000"/><path d="M184.147 60.165q0 3.77-2.95 6.27-2.929 2.5-7.382 2.5-4.727 0-7.54-2.442-2.792-2.441-2.792-6.25 0-2.422 1.406-4.375 1.406-1.972 3.965-3.125v-.117q-2.344-1.25-3.477-2.734-1.113-1.485-1.113-3.711 0-3.281 2.695-5.469 2.696-2.187 6.856-2.187 4.355 0 6.953 2.09t2.598 5.312q0 1.973-1.23 3.887-1.231 1.894-3.614 2.968v.118q2.734 1.171 4.18 2.89 1.445 1.719 1.445 4.375zm-4.629-14.199q0-2.09-1.621-3.32-1.602-1.25-4.102-1.25-2.46 0-4.043 1.172-1.562 1.171-1.562 3.164 0 1.406.781 2.441.8 1.016 2.402 1.816.723.352 2.07.918 1.368.567 2.657.938 1.934-1.29 2.676-2.676.742-1.387.742-3.203zm.605 14.57q0-1.797-.8-2.87-.782-1.095-3.086-2.188-.918-.43-2.012-.801-1.094-.371-2.91-1.035-1.758.957-2.832 2.597-1.055 1.641-1.055 3.711 0 2.637 1.817 4.356 1.816 1.719 4.609 1.719 2.851 0 4.55-1.465 1.72-1.465 1.72-4.024z" aria-label="8" font-weight="400" font-size="40" font-family="Sans" letter-spacing="0" word-spacing="0" fill="#000"/><path d="M249.093 51.991q0 3.809-.879 6.914-.86 3.106-2.617 5.293-1.777 2.227-4.453 3.438-2.676 1.21-6.29 1.21-1.015 0-1.913-.116-.899-.098-1.602-.332v-3.73h.195q.567.292 1.602.566 1.035.253 2.305.253 4.316 0 6.757-2.578 2.461-2.597 2.852-7.148-1.816 1.094-3.418 1.562-1.602.47-3.496.47-1.797 0-3.262-.352-1.445-.352-2.91-1.368-1.719-1.191-2.598-3.027-.859-1.836-.859-4.394 0-4.454 2.93-7.247t7.148-2.793q2.11 0 3.906.665 1.797.644 3.145 1.953 1.66 1.62 2.559 4.18.898 2.538.898 6.581zm-3.945-.84q0-3.027-.625-4.863-.625-1.836-1.72-2.851-.917-.88-1.972-1.25-1.054-.39-2.285-.39-2.812 0-4.453 1.757-1.621 1.758-1.621 4.941 0 1.856.527 3.028.528 1.172 1.778 2.05.878.606 1.933.82 1.055.196 2.344.196 1.523 0 3.086-.41 1.562-.41 2.93-1.192l.039-.8q.039-.41.039-1.035z" aria-label="9" font-weight="400" font-size="40" font-family="Sans" letter-spacing="0" word-spacing="0" fill="#000"/><path d="M189.386 214.55h-19.688v-4.082l4.102-3.516q2.07-1.757 3.848-3.496 3.75-3.633 5.136-5.761 1.387-2.149 1.387-4.63 0-2.265-1.504-3.535-1.484-1.289-4.16-1.289-1.777 0-3.848.625-2.07.625-4.043 1.914h-.195v-4.101q1.387-.684 3.691-1.25 2.325-.566 4.493-.566 4.472 0 7.011 2.167 2.54 2.149 2.54 5.84 0 1.66-.43 3.106-.41 1.426-1.23 2.715-.762 1.21-1.798 2.382-1.015 1.172-2.48 2.598-2.09 2.05-4.316 3.984-2.227 1.915-4.16 3.555h15.644z" aria-label="2" font-weight="400" font-size="40" font-family="Sans" letter-spacing="0" word-spacing="0" fill="#000"/><path d="M121.471 214.296H105.73v-2.969h6.055v-19.492h-6.055v-2.656q1.23 0 2.637-.195 1.406-.215 2.129-.606.898-.488 1.406-1.23.527-.762.605-2.032h3.028v26.211h5.937z" aria-label="1" font-weight="400" font-size="40" font-family="Sans" letter-spacing="0" word-spacing="0" fill="#000"/><path d="M61.636 199.687q0 7.832-2.461 11.504-2.441 3.652-7.598 3.652-5.234 0-7.656-3.711-2.402-3.71-2.402-11.406 0-7.754 2.441-11.446 2.442-3.71 7.617-3.71 5.235 0 7.637 3.77 2.422 3.75 2.422 11.347zm-5.137 8.867q.684-1.582.918-3.711.254-2.148.254-5.156 0-2.969-.254-5.157-.234-2.187-.937-3.71-.684-1.504-1.875-2.266-1.172-.762-3.028-.762-1.836 0-3.047.762-1.19.762-1.894 2.305-.664 1.445-.918 3.77-.234 2.323-.234 5.097 0 3.047.214 5.097.215 2.051.918 3.672.645 1.524 1.817 2.325 1.191.8 3.144.8 1.836 0 3.047-.761 1.211-.762 1.875-2.305z" aria-label="0" font-weight="400" font-size="40" font-family="Sans" letter-spacing="0" word-spacing="0" fill="#000"/><path d="M314.925 142.388q-.938.293-2.053.481-1.098.188-1.965.188-3.027 0-4.602-1.923-1.575-1.924-1.575-6.169v-12.42h-2.248v-3.304h2.248v-6.712h3.327v6.712h6.868v3.304h-6.868v10.643q0 1.84.071 2.886.071 1.024.496 1.923.39.837 1.062 1.234.69.376 2.089.376.814 0 1.699-.272.885-.292 1.274-.48h.177zm-15.31-11.06h-14.568q0 2.153.548 3.763.549 1.589 1.505 2.614.92 1.003 2.177 1.505 1.274.502 2.797.502 2.018 0 4.053-.941 2.053-.962 2.92-1.882h.178v4.286q-1.682.837-3.434 1.401-1.752.565-3.682.565-4.92 0-7.682-3.136-2.761-3.158-2.761-8.95 0-5.729 2.637-9.095 2.655-3.367 6.974-3.367 4 0 6.16 2.76 2.177 2.76 2.177 7.841zm-3.24-3.012q-.018-3.094-1.328-4.788-1.292-1.694-3.947-1.694-2.673 0-4.266 1.861-1.575 1.861-1.787 4.621zm-18.09 7.548q0 3.2-2.248 5.249-2.23 2.049-6.107 2.049-2.195 0-4.035-.606-1.824-.628-3.063-1.36v-4.412h.177q1.576 1.401 3.505 2.238 1.93.815 3.7.815 2.194 0 3.433-.836 1.24-.836 1.24-2.635 0-1.38-.673-2.09-.673-.712-2.584-1.213-.708-.189-1.859-.44-1.133-.25-2.07-.543-2.603-.816-3.7-2.384-1.08-1.589-1.08-3.889 0-1.443.496-2.718.513-1.276 1.54-2.28.99-.982 2.513-1.547 1.54-.585 3.434-.585 1.77 0 3.575.523 1.824.501 3.027 1.233v4.203h-.177q-1.274-1.108-3.097-1.86-1.824-.775-3.576-.775-1.823 0-3.08.837-1.257.815-1.257 2.446 0 1.443.762 2.175.743.732 2.407 1.192.92.25 2.053.502 1.15.25 1.912.46 2.319.627 3.575 2.153 1.257 1.548 1.257 4.098zm-19.17-4.537h-14.567q0 2.154.548 3.764.55 1.589 1.505 2.614.92 1.003 2.177 1.505 1.275.502 2.797.502 2.018 0 4.053-.941 2.054-.962 2.92-1.882h.178v4.286q-1.682.837-3.434 1.401-1.752.565-3.682.565-4.92 0-7.682-3.136-2.761-3.158-2.761-8.95 0-5.729 2.637-9.095 2.655-3.367 6.974-3.367 4 0 6.16 2.76 2.177 2.76 2.177 7.841zm-3.239-3.01q-.018-3.095-1.327-4.79-1.293-1.693-3.948-1.693-2.672 0-4.266 1.861-1.575 1.861-1.787 4.621zm-15.594 14.28h-4.55l-8.814-12.378h-4.939v12.378h-3.504v-31.134h7.38q2.39 0 3.984.376 1.593.356 2.867 1.297 1.434 1.066 2.23 2.697.815 1.61.815 4.098 0 3.367-1.434 5.646-1.434 2.258-3.947 3.408zm-8.195-22.373q0-1.338-.408-2.363-.389-1.045-1.31-1.756-.76-.606-1.805-.836-1.044-.251-2.46-.251h-4.125v11.75h3.54q1.664 0 2.903-.334 1.24-.355 2.107-1.296.796-.878 1.168-2.007.39-1.15.39-2.907z" aria-label="Reset" font-weight="400" font-size="39.4" font-family="Sans" letter-spacing="0" word-spacing="0" fill="#000"/><path d="M312.081 218.55q-.671.28-1.47.46-.786.18-1.407.18-2.168 0-3.297-1.842-1.128-1.842-1.128-5.906v-11.893h-1.61v-3.163h1.61v-6.427h2.383v6.427h4.92v3.163h-4.92v10.191q0 1.762.051 2.763.05.981.355 1.842.279.8.76 1.181.495.36 1.497.36.583 0 1.217-.26.634-.28.913-.46h.127zm-11.942-25.908h-2.688v-3.904h2.688zm-.152 26.108h-2.384v-22.364h2.384zm-6.999 0h-2.383v-12.734q0-1.441-.09-2.783-.075-1.341-.341-2.142-.292-.861-.837-1.302-.545-.44-1.572-.44-1.002 0-2.003.8-1.002.782-2.004 2.003.039.46.064 1.081.025.6.025 1.201v14.316h-2.383v-12.734q0-1.482-.09-2.803-.075-1.341-.341-2.142-.292-.861-.837-1.282-.545-.44-1.572-.44-.976 0-1.965.76-.977.762-1.953 1.943v16.698h-2.383v-22.364h2.383v2.482q1.116-1.461 2.219-2.282 1.116-.82 2.37-.82 1.446 0 2.448.96 1.014.961 1.508 2.663 1.446-1.922 2.637-2.763 1.192-.86 2.549-.86 2.332 0 3.435 2.242 1.116 2.222 1.116 6.226zm-24.38-11.352q0 2.803-.507 5.045-.495 2.242-1.344 3.764-.9 1.582-1.978 2.382-1.077.781-2.37.781-1.205 0-2.105-.46-.9-.44-1.775-1.202l-.152 1.042h-2.232v-31.154h2.384v11.132q1.001-1.301 2.13-2.122 1.128-.84 2.535-.84 2.51 0 3.956 3.042 1.458 3.044 1.458 8.59zm-2.46.1q0-4.005-.836-6.067-.837-2.082-2.7-2.082-1.04 0-2.105.72-1.065.701-1.978 1.823v12.813q1.014.721 1.737 1.001.735.28 1.66.28 1.978 0 3.094-2.042 1.128-2.062 1.128-6.446zm-14.694 11.252h-2.383v-2.483q-1.204 1.502-2.307 2.302-1.103.801-2.435.801-2.231 0-3.473-2.142-1.243-2.162-1.243-6.327v-14.515h2.384v12.733q0 1.702.101 2.923.101 1.202.431 2.063.342.88.888 1.281.545.4 1.584.4.926 0 2.016-.76 1.103-.761 2.054-1.942v-16.698h2.383zm-15.581-8.51q0 1.742-.52 3.444-.507 1.702-1.432 2.883-1.015 1.282-2.371 2.002-1.344.721-3.246.721-2.041 0-3.677-.6-1.622-.601-3.309-1.782v-4.966h.178q1.433 1.882 3.309 2.903 1.876 1.022 3.525 1.022 2.332 0 3.625-1.382 1.306-1.381 1.306-3.684 0-1.982-.62-2.923-.61-.941-1.865-1.462-.95-.4-2.066-.66-1.103-.26-2.346-.66-2.51-.842-3.727-2.864-1.204-2.042-1.204-5.306 0-3.744 2.003-6.126 2.003-2.403 5.084-2.403 1.99 0 3.651.6 1.66.602 2.941 1.483v4.684h-.177q-1.078-1.441-2.84-2.382-1.75-.961-3.588-.961-2.016 0-3.246 1.321-1.217 1.322-1.217 3.404 0 1.862.609 2.923.608 1.061 2.142 1.622.812.28 2.308.68 1.496.401 2.535.821 2.105.881 3.17 2.663 1.065 1.782 1.065 4.986z" aria-label="Submit" font-weight="400" font-size="37.4" font-family="Sans" letter-spacing="0" word-spacing="0" fill="#000"/><path d="M300.16 300.511l-25.007 17.137v-6.013l19.72-13.195-19.72-13.195v-6.013l25.006 17.137zm-30.945-30.031l-11.354 27.927v21.813h-4.29v-21.112l-11.399-28.628h4.746l8.82 22.248 8.905-22.248zm-26.003 49.74h-4.572l-3.164-13.863h-13.955l-3.164 13.863h-4.355l11.745-49.74h5.72zm-9.058-19.542L228.5 276.26l-5.678 24.42zm-20.672 19.542h-20.413v-49.74h4.29v43.86h16.123zm-26.09-34.708q0 3.307-.759 6.147-.736 2.806-2.08 4.877-1.669 2.572-3.944 3.875-2.275 1.27-5.742 1.27h-4.29v18.54h-4.291V270.48h8.754q2.904 0 4.92.768 2.014.735 3.575 2.339 1.841 1.904 2.838 4.743 1.019 2.84 1.019 7.182zm-4.464.167q0-2.572-.585-4.476t-1.777-3.107q-1.04-1.035-2.384-1.47-1.322-.467-3.359-.467h-4.247v19.876h3.619q2.6 0 4.226-.702 1.625-.735 2.643-2.305 1.019-1.603 1.43-3.374.434-1.77.434-3.975zm-23.533 20.344q0 2.906-.889 5.746-.866 2.839-2.448 4.81-1.734 2.138-4.052 3.34-2.297 1.203-5.548 1.203-3.489 0-6.284-1.002-2.774-1.002-5.656-2.973v-8.285h.304q2.448 3.14 5.655 4.844 3.207 1.704 6.024 1.704 3.988 0 6.198-2.305 2.232-2.305 2.232-6.147 0-3.307-1.062-4.877-1.04-1.57-3.185-2.438-1.626-.669-3.532-1.103-1.886-.434-4.01-1.102-4.29-1.403-6.37-4.777-2.059-3.407-2.059-8.852 0-6.247 3.424-10.222 3.424-4.009 8.69-4.009 3.402 0 6.24 1.002 2.839 1.002 5.028 2.472v7.817h-.304q-1.842-2.405-4.854-3.975-2.99-1.604-6.132-1.604-3.446 0-5.548 2.205-2.08 2.205-2.08 5.679 0 3.107 1.04 4.877 1.04 1.77 3.662 2.706 1.387.467 3.944 1.136 2.557.668 4.334 1.37 3.597 1.469 5.418 4.442 1.82 2.973 1.82 8.318zm-30.792 14.197H115.86v-5.078h4.225v-39.584h-4.225v-5.078h12.742v5.078h-4.226v39.584h4.226zm-18.354-24.82q0 6.781-1.929 12.293-1.907 5.512-5.092 8.552-2.21 2.104-4.941 3.04-2.709.935-7.15.935h-8.149v-49.74h8.061q4.724 0 7.498 1.069 2.795 1.035 4.724 2.873 3.294 3.173 5.136 8.451 1.842 5.278 1.842 12.527zm-4.486-.1q0-5.846-1.322-9.855-1.322-4.008-3.944-6.313-1.907-1.67-4.052-2.305-2.145-.668-5.136-.668h-4.03v38.382h4.03q3.1 0 5.396-.701 2.319-.702 4.247-2.606 2.406-2.372 3.597-6.247 1.214-3.875 1.214-9.687zm-32.916 22.348L47.841 300.51v-4.142l25.006-17.137v6.013l-19.72 13.195 19.72 13.195z" aria-label="&lt;DISPLAY&gt;" font-weight="400" font-size="68.5" font-family="Sans" letter-spacing="0" word-spacing="0" fill="#000"/></svg>