<svg xmlns="http://www.w3.org/2000/svg" viewBox="0 0 348 348" fill="none"><path d="M5.079 5.776h336.913v337.67H5.08z" stroke-width="2" stroke="#000"/><path d="M282.734 40.554c0-8.376 6.966-15.165 15.56-15.165 4.126 0 8.084 1.597 11.001 4.441 2.918 2.844 4.558 6.702 4.558 10.724 0 8.376-6.966 15.165-15.56 15.165-8.593 0-15.559-6.79-15.559-15.165z" stroke-width="2" stroke="#000"/><path fill="#000" d="M19.907 24.33h225.61v43.5H19.907z"/><path d="M116.233 41.51q0-11.345 11.345-11.345h9.077Q148 30.165 148 41.51v9.077q0 11.345-11.345 11.345h-9.077q-11.345 0-11.345-11.345zm11.345-2.269q-2.269 0-2.269 2.27v9.076q0 2.269 2.27 2.269h9.076q2.269 0 2.269-2.27V41.51q0-2.269-2.27-2.269z" aria-label="0" font-weight="400" font-size="46.471" font-family="Fox Cavalier" letter-spacing="0" word-spacing="0" fill="#fff"/><ellipse ry="25.436" rx="26.542" cy="143.443" cx="120.213" fill="#fff" stroke="#000"/><path d="M246.846 143.731a26.542 25.436 0 0 1-26.543 25.436 26.542 25.436 0 0 1-26.542-25.436 26.542 25.436 0 0 1 26.542-25.436 26.542 25.436 0 0 1 26.543 25.436z" fill="#fff" stroke="#000"/><ellipse ry="25.436" rx="26.542" cy="217.668" cx="285.229" fill="#fff" stroke="#000"/><ellipse ry="25.436" rx="26.542" cy="296.309" cx="225.011" fill="#fff" stroke="#000"/><ellipse ry="25.436" rx="26.542" cy="298.419" cx="123.81" fill="#fff" stroke="#000"/><ellipse ry="25.436" rx="26.542" cy="220.529" cx="62.895" fill="#fff" stroke="#000"/><path d="M106.54 139.537q0-9.766 9.766-9.766h7.813q9.766 0 9.766 9.766v7.812q0 9.766-9.766 9.766h-7.813q-9.765 0-9.765-9.766zm9.766-1.953q-1.953 0-1.953 1.953v7.812q0 1.953 1.953 1.953h7.813q1.953 0 1.953-1.953v-7.812q0-1.953-1.953-1.953z" aria-label="0" font-weight="400" font-size="40" font-family="Fox Cavalier" letter-spacing="0" word-spacing="0" fill="#000"/><g style="line-height:1.25;-inkscape-font-specification:'Fox Cavalier'"><path d="M224.995 152.932q0 .371-.332.684-.332.312-.723.312-.938 0-2.813.02-1.875.02-2.812.02-.723 0-.703-.626l.02-.215q.273-7.46.273-9.043v-5.8q0-.547-.254-.547-.39 0-1.192.234-.78.235-1.191.235-.605 0-.605-.723 0-.664-.02-1.992-.02-1.328-.02-2.012 0-.39.489-.586 2.87-1.191 4.512-3.203.332-.41.566-.41.04 0 .234.039.743.156 2.207.488.782.098 2.286.352.273.078.273.43 0 .117-.04.41-.214 1.718-.214 8.418 0 2.246.02 6.757.039 4.512.039 6.758z" style="-inkscape-font-specification:'Berlin Sans FB Demi'" font-family="Berlin Sans FB Demi" aria-label="1" font-weight="400" font-size="40" letter-spacing="0" word-spacing="0" fill="#000"/></g><path d="M298.901 223.527v7.813h-27.344v-8.79q0-8.789 8.79-8.789h9.765q.977 0 .977-.976t-.977-.977h-18.555v-7.812h18.555q8.79 0 8.79 8.789t-8.79 8.789h-9.766q-.976 0-.976.976v.977z" aria-label="2" font-weight="400" font-size="40" font-family="Fox Cavalier" letter-spacing="0" word-spacing="0" fill="#000"/><path d="M229.894 290.45H211.34v-7.812h18.555q8.79 0 8.79 8.789 0 2.93-.977 4.882.976 1.954.976 4.883 0 8.79-8.789 8.79H211.34v-7.813h18.555q.977 0 .977-.977t-.977-.976H211.34v-7.813h18.555q.977 0 .977-.976 0-.977-.977-.977z" aria-label="3" font-weight="400" font-size="40" font-family="Fox Cavalier" letter-spacing="0" word-spacing="0" fill="#000"/><path d="M110.138 296.466v-11.719h7.813v11.72q0 1.952 1.953 1.952h7.812v-13.672h7.813v13.672h1.953v7.813h-1.953v5.86h-7.813v-5.86h-7.812q-9.766 0-9.766-9.766z" aria-label="4" font-weight="400" font-size="40" font-family="Fox Cavalier" letter-spacing="0" word-spacing="0" fill="#000"/><path d="M76.566 206.857v7.813h-19.53v1.953h10.741q8.79 0 8.79 8.789t-8.79 8.789H49.223v-7.813h18.554q.977 0 .977-.976 0-.977-.977-.977H49.223v-17.578z" aria-label="5" font-weight="400" font-size="40" font-family="Fox Cavalier" letter-spacing="0" word-spacing="0" fill="#000"/></svg>