<?xml version="1.0" encoding="UTF-8" standalone="no"?>
<svg
   xmlns:dc="http://purl.org/dc/elements/1.1/"
   xmlns:cc="http://creativecommons.org/ns#"
   xmlns:rdf="http://www.w3.org/1999/02/22-rdf-syntax-ns#"
   xmlns:svg="http://www.w3.org/2000/svg"
   xmlns="http://www.w3.org/2000/svg"
   xmlns:sodipodi="http://sodipodi.sourceforge.net/DTD/sodipodi-0.dtd"
   xmlns:inkscape="http://www.inkscape.org/namespaces/inkscape"
   version="1.0"
   width="348.000000pt"
   height="348.000000pt"
   viewBox="0 0 348.000000 348.000000"
   preserveAspectRatio="xMidYMid meet"
   id="svg18"
   sodipodi:docname="Refill_the_Beer.svg"
   inkscape:version="0.92.2 (5c3e80d, 2017-08-06)">
  <defs
     id="defs22" />
  <sodipodi:namedview
     pagecolor="#ffffff"
     bordercolor="#666666"
     borderopacity="1"
     objecttolerance="10"
     gridtolerance="10"
     guidetolerance="10"
     inkscape:pageopacity="0"
     inkscape:pageshadow="2"
     inkscape:window-width="1118"
     inkscape:window-height="822"
     id="namedview20"
     showgrid="false"
     inkscape:zoom="1.4385966"
     inkscape:cx="134.47586"
     inkscape:cy="281.95859"
     inkscape:window-x="0"
     inkscape:window-y="0"
     inkscape:window-maximized="0"
     inkscape:current-layer="svg18" />
  <metadata
     id="metadata2">
Created by potrace 1.15, written by Peter Selinger 2001-2017
<rdf:RDF>
  <cc:Work
     rdf:about="">
    <dc:format>image/svg+xml</dc:format>
    <dc:type
       rdf:resource="http://purl.org/dc/dcmitype/StillImage" />
  </cc:Work>
</rdf:RDF>
</metadata>
  <g
     transform="translate(0.000000,348.000000) scale(0.100000,-0.100000)"
     fill="#000000"
     stroke="none"
     id="g16">
    <path
       d="M40 1735 l0 -1695 1695 0 1695 0 0 1695 0 1695 -1695 0 -1695 0 0 -1695z m3370 0 l0 -1675 -1675 0 -1675 0 0 1675 0 1675 1675 0 1675 0 0 -1675z"
       id="path4" />
    <path
       d="M1340 3035 l0 -285 370 0 370 0 0 285 0 285 -370 0 -370 0 0 -285z m333 93 c13 -15 17 -38 17 -90 0 -60 -3 -72 -25 -93 -13 -14 -33 -25 -45 -25 -11 0 -32 11 -45 25 -22 21 -25 33 -25 90 0 74 11 102 43 115 29 11 58 3 80 -22z m158 22 c4 0 16 -14 25 -32 25 -48 16 -154 -15 -179 -31 -25 -57 -24 -86 5 -48 48 -39 176 15 203 14 7 31 11 38 8 8 -3 18 -5 23 -5z"
       id="path6" />
    <path
       d="M2160 3040 l0 -280 560 0 560 0 0 280 0 280 -560 0 -560 0 0 -280z m208 13 c-100 -137 -183 -250 -185 -252 -1 -2 -3 109 -3 247 l0 252 185 0 184 0 -181 -247z m373 205 c-17 -24 -102 -140 -189 -258 l-158 -215 -97 -3 c-53 -1 -97 0 -97 3 0 3 84 120 187 260 l187 255 98 0 99 0 -30 -42z m242 28 c-4 -7 -89 -124 -188 -260 l-180 -246 -98 0 c-80 0 -96 3 -90 13 4 8 89 125 188 260 l180 246 98 1 c81 0 97 -2 90 -14z m227 8 c0 -3 -84 -120 -187 -260 l-187 -254 -99 0 c-78 0 -97 3 -90 13 6 6 68 91 138 187 71 96 153 208 182 248 l54 72 94 0 c52 0 95 -3 95 -6z m50 -254 l0 -260 -195 0 c-107 0 -195 3 -195 6 0 11 373 514 381 514 5 0 9 -117 9 -260z"
       id="path8" />
    <path
       d="M142 3028 l3 -283 555 0 555 0 3 283 2 282 -560 0 -560 0 2 -282z m382 250 c-12 -19 -345 -471 -355 -482 -5 -6 -9 94 -9 242 l0 252 186 0 c145 0 184 -3 178 -12z m224 4 c-2 -5 -88 -124 -192 -265 l-188 -257 -95 0 c-61 0 -93 4 -91 10 2 6 86 125 188 265 l185 254 98 0 c54 1 97 -3 95 -7z m120 -144 c-61 -84 -149 -204 -195 -265 l-83 -113 -95 0 c-52 0 -95 2 -95 5 0 3 86 122 191 265 l191 260 99 0 99 0 -112 -152z m325 140 c-6 -7 -89 -121 -186 -254 -97 -133 -183 -247 -191 -253 -9 -8 -46 -11 -105 -9 l-92 3 193 263 192 262 99 0 c78 0 97 -3 90 -12z m47 -253 l0 -265 -196 0 c-144 0 -195 3 -192 12 7 19 372 517 381 518 4 0 7 -119 7 -265z"
       id="path10" />
    <path
       d="M860 2201 l0 -148 -59 -12 c-187 -37 -340 -214 -402 -466 -32 -126 -32 -314 0 -440 62 -252 215 -429 402 -466 l59 -12 0 -173 0 -174 855 0 855 0 0 1020 0 1020 -855 0 -855 0 0 -149z m1680 -876 l0 -985 -820 0 -820 0 0 173 0 173 -61 12 c-89 16 -146 48 -220 121 -76 76 -136 187 -170 316 -31 114 -31 326 0 440 34 129 94 240 170 316 74 73 131 105 220 121 l61 12 0 143 0 143 820 0 820 0 0 -985z"
       id="path12" />
    <path
       d="M843 1926 c-204 -64 -341 -360 -305 -659 32 -257 161 -442 335 -481 l27 -6 0 580 c0 319 -3 580 -7 579 -5 0 -27 -6 -50 -13z m17 -566 c0 -413 -2 -510 -13 -510 -24 0 -102 56 -141 101 -85 100 -130 240 -130 409 0 169 45 309 130 409 39 45 117 101 141 101 11 0 13 -97 13 -510z"
       id="path14" />
  </g>
  <ellipse
     style="fill:#ffffff;stroke:#000000;stroke-width:1.5;stroke-miterlimit:10;stroke-dasharray:none;stroke-opacity:1"
     id="path829"
     cx="161.92691"
     cy="44.006886"
     rx="3.7786016"
     ry="7.6032839" />
  <ellipse
     style="fill:#ffffff;stroke:#000000;stroke-width:1.5;stroke-miterlimit:10;stroke-dasharray:none;stroke-opacity:1"
     id="path835"
     cx="179.85222"
     cy="44.006886"
     rx="4.2854872"
     ry="7.4189615" />
  <ellipse
     style="fill:#ffffff;stroke:#000000;stroke-width:1.5;stroke-miterlimit:10;stroke-dasharray:none;stroke-opacity:1"
     id="path877"
     cx="179.85222"
     cy="44.029922"
     rx="3.0413136"
     ry="6.1056676" />
  <ellipse
     style="fill:#ffffff;stroke:#000000;stroke-width:1.5;stroke-miterlimit:10;stroke-dasharray:none;stroke-opacity:1"
     id="path879"
     cx="161.67346"
     cy="44.099045"
     rx="3.0182734"
     ry="6.3130293" />
  <ellipse
     style="fill:#ffffff;stroke:#000000;stroke-width:1.5;stroke-miterlimit:10;stroke-dasharray:none;stroke-opacity:1"
     id="path881"
     cx="179.71397"
     cy="43.407837"
     rx="2.3040254"
     ry="5.4835806" />
  <ellipse
     style="fill:#ffffff;stroke:#000000;stroke-width:1.5;stroke-miterlimit:10;stroke-dasharray:none;stroke-opacity:1"
     id="path883"
     cx="161.74258"
     cy="44.145126"
     rx="2.0736229"
     ry="4.9766951" />
  <ellipse
     style="fill:#ffffff;stroke:#000000;stroke-width:1.5;stroke-miterlimit:10;stroke-dasharray:none;stroke-opacity:1"
     id="path885"
     cx="179.59879"
     cy="43.5"
     rx="1.4976165"
     ry="4.2854872" />
  <ellipse
     style="fill:#ffffff;stroke:#000000;stroke-width:1.5;stroke-miterlimit:10;stroke-dasharray:none;stroke-opacity:1"
     id="path887"
     cx="161.81171"
     cy="44.191208"
     rx="0.89856988"
     ry="4.2854872" />
  <ellipse
     style="fill:#ffffff;stroke:#000000;stroke-width:1.5;stroke-miterlimit:10;stroke-dasharray:none;stroke-opacity:1"
     id="path889"
     cx="179.36838"
     cy="43.407837"
     rx="0.66816735"
     ry="3.5481992" />
  <ellipse
     style="fill:#ffffff;stroke:#000000;stroke-width:1.5;stroke-miterlimit:10;stroke-dasharray:none;stroke-opacity:1"
     id="path891"
     cx="161.85779"
     cy="44.168167"
     rx="0.48384535"
     ry="2.4192266" />
</svg>
