<svg xmlns="http://www.w3.org/2000/svg" viewBox="76 76 348 348"><path d="M80 80h340v340H80V80Z" style="stroke:#000;fill:none;stroke-width:2px"/><circle cx="375" cy="125" r="17" style="stroke:#000;fill:none;stroke-width:2px"/><path d="M364.5 85.8h21l18.2 10.5 10.5 18.2v21l-10.5 18.2-18.2 10.5h-21l-18.2-10.5-10.5-18.2v-21l10.5-18.2 18.2-10.5Z" style="stroke:#000;fill:none;stroke-width:2px"/><path d="m305 100 15 15v20l15 30 30 15h20l15 15v205H100V100h205Z" style="stroke:#000;fill:none;stroke-width:2px"/><path d="M144 152h34v34h-34zM178 152h34v34h-34zM212 152h34v34h-34zM246 152h34v34h-34zM110 186h34v34h-34zM144 186h34v34h-34zM178 186h34v34h-34zM212 186h34v34h-34zM246 186h34v34h-34zM280 152h34v34h-34zM280 186h34v34h-34zM314 186h34v34h-34zM110 220h34v34h-34zM144 220h34v34h-34zM178 220h34v34h-34zM212 220h34v34h-34zM246 220h34v34h-34zM280 220h34v34h-34zM314 220h34v34h-34zM110 254h34v34h-34zM144 254h34v34h-34zM178 254h34v34h-34zM212 254h34v34h-34zM246 254h34v34h-34zM280 254h34v34h-34zM314 254h34v34h-34zM110 288h34v34h-34zM144 288h34v34h-34zM178 288h34v34h-34zM212 288h34v34h-34zM246 288h34v34h-34zM280 288h34v34h-34zM314 288h34v34h-34zM110 322h34v34h-34zM144 322h34v34h-34zM178 322h34v34h-34zM212 322h34v34h-34zM246 322h34v34h-34zM280 322h34v34h-34zM314 322h34v34h-34zM144 356h34v34h-34zM178 356h34v34h-34zM212 356h34v34h-34zM246 356h34v34h-34zM280 356h34v34h-34z" style="stroke:#000;fill:none"/><path d="M261.158 167.237h-3.149l-.869 3.535h2.912v1.27h-3.245l-.982 3.958h-1.218l.981-3.958h-2.55l-.985 3.958h-1.219l.983-3.958H249v-1.27h3.148l.87-3.535h-2.912v-1.268h3.242l.993-3.969h1.219l-.994 3.969h2.554l.993-3.969h1.219l-.993 3.969h2.819v1.268Zm-4.339-.019h-2.59l-.89 3.573h2.59l.89-3.573Zm20.181.019h-3.147l-.871 3.535h2.912v1.27h-3.242l-.983 3.958h-1.22l.985-3.958h-2.555l-.984 3.958h-1.219l.985-3.958h-2.819v-1.27h3.15l.868-3.535h-2.912v-1.268h3.245l.99-3.969h1.222l-.992 3.969h2.549l.994-3.969h1.218l-.99 3.969H277v1.268Zm-4.339-.019h-2.591l-.889 3.573h2.591l.889-3.573ZM227.158 167.237h-3.149l-.869 3.535h2.912v1.27h-3.245l-.982 3.958h-1.218l.981-3.958h-2.55l-.985 3.958h-1.219l.983-3.958H215v-1.27h3.148l.87-3.535h-2.912v-1.268h3.242l.993-3.969h1.219l-.994 3.969h2.554l.993-3.969h1.219l-.993 3.969h2.819v1.268Zm-4.339-.019h-2.59l-.89 3.573h2.59l.89-3.573Zm20.181.019h-3.147l-.871 3.535h2.912v1.27h-3.242l-.983 3.958h-1.22l.985-3.958h-2.555l-.984 3.958h-1.219l.985-3.958h-2.819v-1.27h3.15l.868-3.535h-2.912v-1.268h3.245l.99-3.969h1.222l-.992 3.969h2.549l.994-3.969h1.218l-.99 3.969H243v1.268Zm-4.339-.019h-2.591l-.889 3.573h2.591l.889-3.573ZM193.158 167.237h-3.149l-.869 3.535h2.912v1.27h-3.245l-.982 3.958h-1.218l.981-3.958h-2.55l-.985 3.958h-1.219l.983-3.958H181v-1.27h3.148l.87-3.535h-2.912v-1.268h3.242l.993-3.969h1.219l-.994 3.969h2.554l.993-3.969h1.219l-.993 3.969h2.819v1.268Zm-4.339-.019h-2.59l-.89 3.573h2.59l.89-3.573Zm20.181.019h-3.147l-.871 3.535h2.912v1.27h-3.242l-.983 3.958h-1.22l.985-3.958h-2.555l-.984 3.958h-1.219l.985-3.958h-2.819v-1.27h3.15l.868-3.535h-2.912v-1.268h3.245l.99-3.969h1.222l-.992 3.969h2.549l.994-3.969h1.218l-.99 3.969H209v1.268Zm-4.339-.019h-2.591l-.889 3.573h2.591l.889-3.573ZM159.158 167.237h-3.149l-.869 3.535h2.912v1.27h-3.245l-.982 3.958h-1.218l.981-3.958h-2.55l-.985 3.958h-1.219l.983-3.958H147v-1.27h3.148l.87-3.535h-2.912v-1.268h3.242l.993-3.969h1.219l-.994 3.969h2.554l.993-3.969h1.219l-.993 3.969h2.819v1.268Zm-4.339-.019h-2.59l-.89 3.573h2.59l.89-3.573Zm20.181.019h-3.147l-.871 3.535h2.912v1.27h-3.242l-.983 3.958h-1.22l.985-3.958h-2.555l-.984 3.958h-1.219l.985-3.958h-2.819v-1.27h3.15l.868-3.535h-2.912v-1.268h3.245l.99-3.969h1.222l-.992 3.969h2.549l.994-3.969h1.218l-.99 3.969H175v1.268Zm-4.339-.019h-2.591l-.889 3.573h2.591l.889-3.573ZM295.158 167.237h-3.149l-.869 3.535h2.912v1.27h-3.245l-.982 3.958h-1.218l.981-3.958h-2.55l-.985 3.958h-1.219l.983-3.958H283v-1.27h3.148l.87-3.535h-2.912v-1.268h3.242l.993-3.969h1.219l-.994 3.969h2.554l.993-3.969h1.219l-.993 3.969h2.819v1.268Zm-4.339-.019h-2.59l-.89 3.573h2.59l.89-3.573Zm20.181.019h-3.147l-.871 3.535h2.912v1.27h-3.242l-.983 3.958h-1.22l.985-3.958h-2.555l-.984 3.958h-1.219l.985-3.958h-2.819v-1.27h3.15l.868-3.535h-2.912v-1.268h3.245l.99-3.969h1.222l-.992 3.969h2.549l.994-3.969h1.218l-.99 3.969H311v1.268Zm-4.339-.019h-2.591l-.889 3.573h2.591l.889-3.573ZM261.158 371.237h-3.149l-.869 3.535h2.912v1.27h-3.245l-.982 3.958h-1.218l.981-3.958h-2.55l-.985 3.958h-1.219l.983-3.958H249v-1.27h3.148l.87-3.535h-2.912v-1.268h3.242l.993-3.969h1.219l-.994 3.969h2.554l.993-3.969h1.219l-.993 3.969h2.819v1.268Zm-4.339-.019h-2.59l-.89 3.573h2.59l.89-3.573Zm20.181.019h-3.147l-.871 3.535h2.912v1.27h-3.242l-.983 3.958h-1.22l.985-3.958h-2.555l-.984 3.958h-1.219l.985-3.958h-2.819v-1.27h3.15l.868-3.535h-2.912v-1.268h3.245l.99-3.969h1.222l-.992 3.969h2.549l.994-3.969h1.218l-.99 3.969H277v1.268Zm-4.339-.019h-2.591l-.889 3.573h2.591l.889-3.573ZM227.158 371.237h-3.149l-.869 3.535h2.912v1.27h-3.245l-.982 3.958h-1.218l.981-3.958h-2.55l-.985 3.958h-1.219l.983-3.958H215v-1.27h3.148l.87-3.535h-2.912v-1.268h3.242l.993-3.969h1.219l-.994 3.969h2.554l.993-3.969h1.219l-.993 3.969h2.819v1.268Zm-4.339-.019h-2.59l-.89 3.573h2.59l.89-3.573Zm20.181.019h-3.147l-.871 3.535h2.912v1.27h-3.242l-.983 3.958h-1.22l.985-3.958h-2.555l-.984 3.958h-1.219l.985-3.958h-2.819v-1.27h3.15l.868-3.535h-2.912v-1.268h3.245l.99-3.969h1.222l-.992 3.969h2.549l.994-3.969h1.218l-.99 3.969H243v1.268Zm-4.339-.019h-2.591l-.889 3.573h2.591l.889-3.573ZM193.158 371.237h-3.149l-.869 3.535h2.912v1.27h-3.245l-.982 3.958h-1.218l.981-3.958h-2.55l-.985 3.958h-1.219l.983-3.958H181v-1.27h3.148l.87-3.535h-2.912v-1.268h3.242l.993-3.969h1.219l-.994 3.969h2.554l.993-3.969h1.219l-.993 3.969h2.819v1.268Zm-4.339-.019h-2.59l-.89 3.573h2.59l.89-3.573Zm20.181.019h-3.147l-.871 3.535h2.912v1.27h-3.242l-.983 3.958h-1.22l.985-3.958h-2.555l-.984 3.958h-1.219l.985-3.958h-2.819v-1.27h3.15l.868-3.535h-2.912v-1.268h3.245l.99-3.969h1.222l-.992 3.969h2.549l.994-3.969h1.218l-.99 3.969H209v1.268Zm-4.339-.019h-2.591l-.889 3.573h2.591l.889-3.573ZM159.158 371.237h-3.149l-.869 3.535h2.912v1.27h-3.245l-.982 3.958h-1.218l.981-3.958h-2.55l-.985 3.958h-1.219l.983-3.958H147v-1.27h3.148l.87-3.535h-2.912v-1.268h3.242l.993-3.969h1.219l-.994 3.969h2.554l.993-3.969h1.219l-.993 3.969h2.819v1.268Zm-4.339-.019h-2.59l-.89 3.573h2.59l.89-3.573Zm20.181.019h-3.147l-.871 3.535h2.912v1.27h-3.242l-.983 3.958h-1.22l.985-3.958h-2.555l-.984 3.958h-1.219l.985-3.958h-2.819v-1.27h3.15l.868-3.535h-2.912v-1.268h3.245l.99-3.969h1.222l-.992 3.969h2.549l.994-3.969h1.218l-.99 3.969H175v1.268Zm-4.339-.019h-2.591l-.889 3.573h2.591l.889-3.573ZM295.158 371.237h-3.149l-.869 3.535h2.912v1.27h-3.245l-.982 3.958h-1.218l.981-3.958h-2.55l-.985 3.958h-1.219l.983-3.958H283v-1.27h3.148l.87-3.535h-2.912v-1.268h3.242l.993-3.969h1.219l-.994 3.969h2.554l.993-3.969h1.219l-.993 3.969h2.819v1.268Zm-4.339-.019h-2.59l-.89 3.573h2.59l.89-3.573Zm20.181.019h-3.147l-.871 3.535h2.912v1.27h-3.242l-.983 3.958h-1.22l.985-3.958h-2.555l-.984 3.958h-1.219l.985-3.958h-2.819v-1.27h3.15l.868-3.535h-2.912v-1.268h3.245l.99-3.969h1.222l-.992 3.969h2.549l.994-3.969h1.218l-.99 3.969H311v1.268Zm-4.339-.019h-2.591l-.889 3.573h2.591l.889-3.573ZM125.158 201.237h-3.149l-.869 3.535h2.912v1.27h-3.245l-.982 3.958h-1.218l.981-3.958h-2.55l-.985 3.958h-1.219l.983-3.958H113v-1.27h3.148l.87-3.535h-2.912v-1.268h3.242l.993-3.969h1.219l-.994 3.969h2.554l.993-3.969h1.219l-.993 3.969h2.819v1.268Zm-4.339-.019h-2.59l-.89 3.573h2.59l.89-3.573Zm20.181.019h-3.147l-.871 3.535h2.912v1.27h-3.242l-.983 3.958h-1.22l.985-3.958h-2.555l-.984 3.958h-1.219l.985-3.958h-2.819v-1.27h3.15l.868-3.535h-2.912v-1.268h3.245l.99-3.969h1.222l-.992 3.969h2.549l.994-3.969h1.218l-.99 3.969H141v1.268Zm-4.339-.019h-2.591l-.889 3.573h2.591l.889-3.573ZM125.158 235.237h-3.149l-.869 3.535h2.912v1.27h-3.245l-.982 3.958h-1.218l.981-3.958h-2.55l-.985 3.958h-1.219l.983-3.958H113v-1.27h3.148l.87-3.535h-2.912v-1.268h3.242l.993-3.969h1.219l-.994 3.969h2.554l.993-3.969h1.219l-.993 3.969h2.819v1.268Zm-4.339-.019h-2.59l-.89 3.573h2.59l.89-3.573Zm20.181.019h-3.147l-.871 3.535h2.912v1.27h-3.242l-.983 3.958h-1.22l.985-3.958h-2.555l-.984 3.958h-1.219l.985-3.958h-2.819v-1.27h3.15l.868-3.535h-2.912v-1.268h3.245l.99-3.969h1.222l-.992 3.969h2.549l.994-3.969h1.218l-.99 3.969H141v1.268Zm-4.339-.019h-2.591l-.889 3.573h2.591l.889-3.573ZM125.158 269.237h-3.149l-.869 3.535h2.912v1.27h-3.245l-.982 3.958h-1.218l.981-3.958h-2.55l-.985 3.958h-1.219l.983-3.958H113v-1.27h3.148l.87-3.535h-2.912v-1.268h3.242l.993-3.969h1.219l-.994 3.969h2.554l.993-3.969h1.219l-.993 3.969h2.819v1.268Zm-4.339-.019h-2.59l-.89 3.573h2.59l.89-3.573Zm20.181.019h-3.147l-.871 3.535h2.912v1.27h-3.242l-.983 3.958h-1.22l.985-3.958h-2.555l-.984 3.958h-1.219l.985-3.958h-2.819v-1.27h3.15l.868-3.535h-2.912v-1.268h3.245l.99-3.969h1.222l-.992 3.969h2.549l.994-3.969h1.218l-.99 3.969H141v1.268Zm-4.339-.019h-2.591l-.889 3.573h2.591l.889-3.573ZM125.158 303.237h-3.149l-.869 3.535h2.912v1.27h-3.245l-.982 3.958h-1.218l.981-3.958h-2.55l-.985 3.958h-1.219l.983-3.958H113v-1.27h3.148l.87-3.535h-2.912v-1.268h3.242l.993-3.969h1.219l-.994 3.969h2.554l.993-3.969h1.219l-.993 3.969h2.819v1.268Zm-4.339-.019h-2.59l-.89 3.573h2.59l.89-3.573Zm20.181.019h-3.147l-.871 3.535h2.912v1.27h-3.242l-.983 3.958h-1.22l.985-3.958h-2.555l-.984 3.958h-1.219l.985-3.958h-2.819v-1.27h3.15l.868-3.535h-2.912v-1.268h3.245l.99-3.969h1.222l-.992 3.969h2.549l.994-3.969h1.218l-.99 3.969H141v1.268Zm-4.339-.019h-2.591l-.889 3.573h2.591l.889-3.573ZM125.158 337.237h-3.149l-.869 3.535h2.912v1.27h-3.245l-.982 3.958h-1.218l.981-3.958h-2.55l-.985 3.958h-1.219l.983-3.958H113v-1.27h3.148l.87-3.535h-2.912v-1.268h3.242l.993-3.969h1.219l-.994 3.969h2.554l.993-3.969h1.219l-.993 3.969h2.819v1.268Zm-4.339-.019h-2.59l-.89 3.573h2.59l.89-3.573Zm20.181.019h-3.147l-.871 3.535h2.912v1.27h-3.242l-.983 3.958h-1.22l.985-3.958h-2.555l-.984 3.958h-1.219l.985-3.958h-2.819v-1.27h3.15l.868-3.535h-2.912v-1.268h3.245l.99-3.969h1.222l-.992 3.969h2.549l.994-3.969h1.218l-.99 3.969H141v1.268Zm-4.339-.019h-2.591l-.889 3.573h2.591l.889-3.573ZM329.158 201.237h-3.149l-.869 3.535h2.912v1.27h-3.245l-.982 3.958h-1.218l.981-3.958h-2.55l-.985 3.958h-1.219l.983-3.958H317v-1.27h3.148l.87-3.535h-2.912v-1.268h3.242l.993-3.969h1.219l-.994 3.969h2.554l.993-3.969h1.219l-.993 3.969h2.819v1.268Zm-4.339-.019h-2.59l-.89 3.573h2.59l.89-3.573Zm20.181.019h-3.147l-.871 3.535h2.912v1.27h-3.242l-.983 3.958h-1.22l.985-3.958h-2.555l-.984 3.958h-1.219l.985-3.958h-2.819v-1.27h3.15l.868-3.535h-2.912v-1.268h3.245l.99-3.969h1.222l-.992 3.969h2.549l.994-3.969h1.218l-.99 3.969H345v1.268Zm-4.339-.019h-2.591l-.889 3.573h2.591l.889-3.573ZM329.158 235.237h-3.149l-.869 3.535h2.912v1.27h-3.245l-.982 3.958h-1.218l.981-3.958h-2.55l-.985 3.958h-1.219l.983-3.958H317v-1.27h3.148l.87-3.535h-2.912v-1.268h3.242l.993-3.969h1.219l-.994 3.969h2.554l.993-3.969h1.219l-.993 3.969h2.819v1.268Zm-4.339-.019h-2.59l-.89 3.573h2.59l.89-3.573Zm20.181.019h-3.147l-.871 3.535h2.912v1.27h-3.242l-.983 3.958h-1.22l.985-3.958h-2.555l-.984 3.958h-1.219l.985-3.958h-2.819v-1.27h3.15l.868-3.535h-2.912v-1.268h3.245l.99-3.969h1.222l-.992 3.969h2.549l.994-3.969h1.218l-.99 3.969H345v1.268Zm-4.339-.019h-2.591l-.889 3.573h2.591l.889-3.573ZM329.158 269.237h-3.149l-.869 3.535h2.912v1.27h-3.245l-.982 3.958h-1.218l.981-3.958h-2.55l-.985 3.958h-1.219l.983-3.958H317v-1.27h3.148l.87-3.535h-2.912v-1.268h3.242l.993-3.969h1.219l-.994 3.969h2.554l.993-3.969h1.219l-.993 3.969h2.819v1.268Zm-4.339-.019h-2.59l-.89 3.573h2.59l.89-3.573Zm20.181.019h-3.147l-.871 3.535h2.912v1.27h-3.242l-.983 3.958h-1.22l.985-3.958h-2.555l-.984 3.958h-1.219l.985-3.958h-2.819v-1.27h3.15l.868-3.535h-2.912v-1.268h3.245l.99-3.969h1.222l-.992 3.969h2.549l.994-3.969h1.218l-.99 3.969H345v1.268Zm-4.339-.019h-2.591l-.889 3.573h2.591l.889-3.573ZM329.158 303.237h-3.149l-.869 3.535h2.912v1.27h-3.245l-.982 3.958h-1.218l.981-3.958h-2.55l-.985 3.958h-1.219l.983-3.958H317v-1.27h3.148l.87-3.535h-2.912v-1.268h3.242l.993-3.969h1.219l-.994 3.969h2.554l.993-3.969h1.219l-.993 3.969h2.819v1.268Zm-4.339-.019h-2.59l-.89 3.573h2.59l.89-3.573Zm20.181.019h-3.147l-.871 3.535h2.912v1.27h-3.242l-.983 3.958h-1.22l.985-3.958h-2.555l-.984 3.958h-1.219l.985-3.958h-2.819v-1.27h3.15l.868-3.535h-2.912v-1.268h3.245l.99-3.969h1.222l-.992 3.969h2.549l.994-3.969h1.218l-.99 3.969H345v1.268Zm-4.339-.019h-2.591l-.889 3.573h2.591l.889-3.573ZM329.158 337.237h-3.149l-.869 3.535h2.912v1.27h-3.245l-.982 3.958h-1.218l.981-3.958h-2.55l-.985 3.958h-1.219l.983-3.958H317v-1.27h3.148l.87-3.535h-2.912v-1.268h3.242l.993-3.969h1.219l-.994 3.969h2.554l.993-3.969h1.219l-.993 3.969h2.819v1.268Zm-4.339-.019h-2.59l-.89 3.573h2.59l.89-3.573Zm20.181.019h-3.147l-.871 3.535h2.912v1.27h-3.242l-.983 3.958h-1.22l.985-3.958h-2.555l-.984 3.958h-1.219l.985-3.958h-2.819v-1.27h3.15l.868-3.535h-2.912v-1.268h3.245l.99-3.969h1.222l-.992 3.969h2.549l.994-3.969h1.218l-.99 3.969H345v1.268Zm-4.339-.019h-2.591l-.889 3.573h2.591l.889-3.573Z" style="stroke-width:2px"/></svg>