<svg xmlns="http://www.w3.org/2000/svg" viewBox="0 0 348 348" fill="none"><path d="M5 5.8h337v337.6H5z" stroke-width="2" stroke="#000"/><path d="M17.9 330.4H44v-26.2H17.8zM51.6 330.4h26.2v-26.2H51.6zM85.3 330.4h26.3v-26.2H85.3zm41.3 0h26.3v-26.2h-26.3zM160.3 330.4h26.3v-26.2h-26.3zM194.1 330.4h26.3v-26.2H194zM235.3 330.4h26.3v-26.2h-26.3zM269.1 330.4h26.3v-26.2H269zM302.9 330.4H329v-26.2h-26.3zM17.9 296.7H44v-26.3H17.8zM51.6 296.7h26.2v-26.3H51.6zM85.3 296.7h26.3v-26.3H85.3zM126.6 296.7h26.3v-26.3h-26.3zM160.3 296.7h26.3v-26.3h-26.3zM194.1 296.7h26.3v-26.3H194zm41.2 0h26.3v-26.3h-26.3zM269.1 296.7h26.3v-26.3H269zM302.9 296.7H329v-26.3h-26.3zM17.9 263H44v-26.3H17.8zM51.6 263h26.2v-26.3H51.6zM85.3 263h26.3v-26.3H85.3zM126.6 263h26.3v-26.3h-26.3zM160.3 263h26.3v-26.3h-26.3zM194.1 263h26.3v-26.3H194zM235.3 263h26.3v-26.3h-26.3zM269.1 263h26.3v-26.3H269zM302.9 263H329v-26.3h-26.3zM17.9 221.7H44v-26.3H17.8zM51.6 221.7h26.2v-26.3H51.6zM85.3 221.7h26.3v-26.3H85.3zM126.6 221.7h26.3v-26.3h-26.3zM160.3 221.7h26.3v-26.3h-26.3zM194.1 221.7h26.3v-26.3H194zM235.3 221.7h26.3v-26.3h-26.3zM269.1 221.7h26.3v-26.3H269zM302.9 221.7H329v-26.3h-26.3zM17.9 188H44v-26.3H17.8zM51.6 188h26.2v-26.3H51.6zM85.3 188h26.3v-26.3H85.3zM126.6 188h26.3v-26.3h-26.3zM160.3 188h26.3v-26.3h-26.3zM194.1 188h26.3v-26.3H194zM235.3 188h26.3v-26.3h-26.3zM269.1 188h26.3v-26.3H269zM302.9 188H329v-26.3h-26.3zM17.9 154.2H44V128H17.8zm33.7 0h26.2V128H51.6zM85.3 154.2h26.3V128H85.3zM126.6 154.2h26.3V128h-26.3zM160.3 154.2h26.3V128h-26.3zM194.1 154.2h26.3V128H194zm41.2 0h26.3V128h-26.3zM269.1 154.2h26.3V128H269zM302.9 154.2H329V128h-26.3zM17.9 113H44V86.7H17.8zM51.6 113h26.2V86.7H51.6zM85.3 113h26.3V86.7H85.3zM126.6 113h26.3V86.7h-26.3zM160.3 113h26.3V86.7h-26.3zM194.1 113h26.3V86.7H194zM235.3 113h26.3V86.7h-26.3zM269.1 113h26.3V86.7H269zM302.9 113H329V86.7h-26.3zM17.9 79.2H44V52.9H17.8zM51.6 79.2h26.2V52.9H51.6zM85.3 79.2h26.3V52.9H85.3zM126.6 79.2h26.3V52.9h-26.3zM160.3 79.2h26.3V52.9h-26.3zM194.1 79.2h26.3V52.9H194zM235.3 79.2h26.3V52.9h-26.3zM269.1 79.2h26.3V52.9H269zM302.9 79.2H329V52.9h-26.3zM17.9 45.5H44V19.2H17.8zM51.6 45.5h26.2V19.2H51.6zM85.3 45.5h26.3V19.2H85.3zM126.6 45.5h26.3V19.2h-26.3zM160.3 45.5h26.3V19.2h-26.3zM194.1 45.5h26.3V19.2H194zM235.3 45.5h26.3V19.2h-26.3zM269.1 45.5h26.3V19.2H269zM302.9 45.5H329V19.2h-26.3z" fill="#fff" stroke="#000"/><path d="M72.374 39.35v3.988H57.32q.245-2.262 1.468-4.279 1.222-2.033 4.829-5.38 2.904-2.705 3.56-3.667.887-1.33.887-2.629 0-1.437-.78-2.2-.763-.78-2.124-.78-1.344 0-2.14.81-.794.81-.916 2.69l-4.28-.428q.383-3.546 2.4-5.09 2.017-1.543 5.043-1.543 3.317 0 5.212 1.788 1.895 1.788 1.895 4.447 0 1.513-.55 2.889-.535 1.36-1.712 2.858-.78.993-2.812 2.858-2.033 1.864-2.583 2.475-.535.612-.87 1.192z" font-weight="700" aria-label="2" style="font-weight:bold;stroke-width:1.9562" font-size="31.299" font-family="Arial" fill="#000" stroke-width="1.956"/><path d="M17.8 79.2H44V52.9H17.8z" fill="#fff" stroke="#000"/><path d="M24.07 58.928V54.94h14.687v3.118q-1.818 1.788-3.698 5.135-1.88 3.347-2.873 7.122-.978 3.76-.963 6.724H27.08q.107-4.646 1.91-9.475 1.82-4.83 4.845-8.635z" font-weight="700" aria-label="7" style="font-weight:bold;stroke-width:1.9562" font-size="31.299" font-family="Arial" fill="#000" stroke-width="1.956"/><path d="M85.4 113h26.2V86.7H85.4z" fill="#fff" stroke="#000"/><path d="M91.762 105.657l4.157-.458q.153 1.268.795 1.88.642.611 1.696.611 1.33 0 2.262-1.223.932-1.222 1.192-5.073-1.62 1.88-4.05 1.88-2.644 0-4.57-2.033-1.91-2.048-1.91-5.319 0-3.408 2.018-5.486 2.032-2.094 5.165-2.094 3.408 0 5.594 2.644 2.185 2.629 2.185 8.665 0 6.144-2.277 8.864-2.277 2.72-5.93 2.72-2.628 0-4.248-1.39-1.62-1.406-2.079-4.188zm9.72-9.383q0-2.079-.963-3.225-.947-1.146-2.2-1.146-1.192 0-1.987.947-.78.933-.78 3.072 0 2.17.856 3.194.856 1.009 2.14 1.009 1.238 0 2.078-.978.856-.978.856-2.873z" font-weight="700" aria-label="9" style="font-weight:bold;stroke-width:1.9562" font-size="31.299" font-family="Arial" fill="#000" stroke-width="1.956"/><path d="M126.6 45.5h26.2V19.2h-26.2z" fill="#fff" stroke="#000"/><path d="M141.291 43.338V38.83h-9.17v-3.76l9.72-14.228h3.607v14.213h2.782v3.775h-2.782v4.508zm0-8.283v-7.657l-5.15 7.657z" font-weight="700" aria-label="4" style="font-weight:bold;stroke-width:1.9562" font-size="31.299" font-family="Arial" fill="#000" stroke-width="1.956"/><path d="M126.7 79.2h26.2V52.9h-26.2z" fill="#fff" stroke="#000"/><path d="M132.818 71.093l4.157-.504q.198 1.59 1.07 2.43.87.84 2.108.84 1.33 0 2.232-1.008.917-1.009.917-2.72 0-1.62-.871-2.568t-2.125-.948q-.825 0-1.971.321l.474-3.5q1.742.046 2.659-.748.917-.81.917-2.14 0-1.13-.673-1.803-.672-.673-1.788-.673-1.1 0-1.88.764-.779.765-.947 2.232l-3.958-.673q.412-2.032 1.238-3.24.84-1.222 2.323-1.91 1.497-.703 3.347-.703 3.163 0 5.073 2.017 1.575 1.65 1.575 3.73 0 2.949-3.225 4.706 1.925.413 3.072 1.85 1.161 1.436 1.161 3.469 0 2.95-2.155 5.028-2.155 2.078-5.364 2.078-3.041 0-5.043-1.742-2.002-1.757-2.323-4.585z" font-weight="700" aria-label="3" style="font-weight:bold;stroke-width:1.9562" font-size="31.299" font-family="Arial" fill="#000" stroke-width="1.956"/><path d="M160.3 113h26.2V86.7h-26.2z" fill="#fff" stroke="#000"/><path d="M177.559 110.838h-4.295V94.654q-2.353 2.2-5.547 3.255v-3.897q1.68-.55 3.652-2.079 1.972-1.543 2.705-3.591h3.485z" font-weight="700" aria-label="1" style="font-weight:bold;stroke-width:1.9562" font-size="31.299" font-family="Arial" fill="#000" stroke-width="1.956"/><path d="M235.4 45.5h26.2V19.2h-26.2z" fill="#fff" stroke="#000"/><path d="M256.22 26.42l-4.157.459q-.153-1.284-.795-1.895-.642-.612-1.666-.612-1.36 0-2.307 1.223-.933 1.223-1.177 5.09 1.605-1.896 3.989-1.896 2.69 0 4.6 2.048 1.925 2.048 1.925 5.288 0 3.438-2.017 5.517-2.017 2.078-5.18 2.078-3.394 0-5.579-2.628-2.185-2.644-2.185-8.65 0-6.16 2.277-8.88 2.277-2.72 5.914-2.72 2.552 0 4.218 1.437 1.681 1.42 2.14 4.141zm-9.735 9.369q0 2.093.962 3.24.963 1.13 2.201 1.13 1.192 0 1.987-.932.795-.932.795-3.056 0-2.186-.856-3.194-.856-1.024-2.14-1.024-1.238 0-2.094.978-.855.963-.855 2.858z" font-weight="700" aria-label="6" style="font-weight:bold;stroke-width:1.9562" font-size="31.299" font-family="Arial" fill="#000" stroke-width="1.956"/><path d="M302.8 45.5H329V19.2h-26.2z" fill="#fff" stroke="#000"/><path d="M312.754 31.25q-1.666-.703-2.43-1.926-.75-1.238-.75-2.705 0-2.506 1.743-4.142 1.758-1.635 4.982-1.635 3.194 0 4.952 1.635 1.773 1.636 1.773 4.142 0 1.559-.81 2.781-.81 1.208-2.277 1.85 1.864.748 2.827 2.185.978 1.437.978 3.316 0 3.103-1.987 5.044-1.971 1.94-5.257 1.94-3.057 0-5.09-1.604-2.399-1.895-2.399-5.196 0-1.819.902-3.332.902-1.528 2.843-2.353zm.886-4.325q0 1.283.718 2.002.734.718 1.941.718 1.223 0 1.957-.718.733-.734.733-2.018 0-1.207-.733-1.925-.719-.734-1.91-.734-1.239 0-1.972.734-.734.733-.734 1.94zm-.397 9.597q0 1.773.901 2.766.917.994 2.278.994 1.33 0 2.2-.948.871-.963.871-2.766 0-1.574-.886-2.522-.886-.962-2.247-.962-1.574 0-2.353 1.085-.764 1.085-.764 2.353z" font-weight="700" aria-label="8" style="font-weight:bold;stroke-width:1.9562" font-size="31.299" font-family="Arial" fill="#000" stroke-width="1.956"/><path d="M235.3 113h26.2V86.7h-26.2z" fill="#fff" stroke="#000"/><path d="M241.418 104.893l4.157-.504q.198 1.59 1.07 2.43.87.84 2.108.84 1.33 0 2.232-1.008.917-1.009.917-2.72 0-1.62-.871-2.568-.872-.948-2.125-.948-.825 0-1.971.321l.474-3.5q1.742.046 2.659-.748.917-.81.917-2.14 0-1.13-.673-1.803-.672-.673-1.788-.673-1.1 0-1.88.764-.779.765-.947 2.232l-3.958-.673q.412-2.032 1.238-3.24.84-1.222 2.323-1.91 1.497-.703 3.346-.703 3.164 0 5.074 2.017 1.575 1.65 1.575 3.73 0 2.949-3.225 4.706 1.925.413 3.072 1.85 1.161 1.436 1.161 3.469 0 2.95-2.155 5.028-2.155 2.078-5.364 2.078-3.041 0-5.043-1.742-2.002-1.757-2.323-4.585z" font-weight="700" aria-label="3" style="font-weight:bold;stroke-width:1.9562" font-size="31.299" font-family="Arial" fill="#000" stroke-width="1.956"/><path d="M269.1 113h26.2V86.7h-26.2z" fill="#fff" stroke="#000"/><path d="M275.37 92.728V88.74h14.687v3.118q-1.818 1.788-3.698 5.135-1.88 3.347-2.873 7.122-.978 3.76-.963 6.724h-4.142q.107-4.646 1.91-9.475 1.82-4.83 4.845-8.635z" font-weight="700" aria-label="7" style="font-weight:bold;stroke-width:1.9562" font-size="31.299" font-family="Arial" fill="#000" stroke-width="1.956"/><path d="M17.8 154.3H44V128H17.8z" fill="#fff" stroke="#000"/><path d="M24.162 146.957l4.157-.458q.153 1.268.795 1.88.642.611 1.696.611 1.33 0 2.262-1.223.932-1.222 1.192-5.073-1.62 1.88-4.05 1.88-2.644 0-4.57-2.033-1.91-2.048-1.91-5.319 0-3.408 2.018-5.486 2.032-2.094 5.165-2.094 3.408 0 5.594 2.644 2.185 2.629 2.185 8.665 0 6.144-2.277 8.864-2.277 2.72-5.93 2.72-2.628 0-4.248-1.39-1.62-1.406-2.079-4.188zm9.72-9.383q0-2.079-.963-3.225-.947-1.146-2.2-1.146-1.192 0-1.987.947-.78.933-.78 3.072 0 2.17.856 3.194.856 1.009 2.14 1.009 1.238 0 2.078-.978.856-.978.856-2.873z" font-weight="700" aria-label="9" style="font-weight:bold;stroke-width:1.9562" font-size="31.299" font-family="Arial" fill="#000" stroke-width="1.956"/><path d="M51.6 154.3h26.2V128H51.6z" fill="#fff" stroke="#000"/><path d="M72.42 135.22l-4.157.459q-.153-1.284-.795-1.895-.642-.612-1.666-.612-1.36 0-2.307 1.223-.933 1.223-1.177 5.09 1.605-1.896 3.989-1.896 2.69 0 4.6 2.048 1.925 2.048 1.925 5.288 0 3.438-2.017 5.517-2.017 2.078-5.18 2.078-3.394 0-5.579-2.628-2.185-2.644-2.185-8.65 0-6.16 2.277-8.88 2.277-2.72 5.914-2.72 2.552 0 4.218 1.437 1.681 1.42 2.14 4.141zm-9.735 9.369q0 2.093.962 3.24.963 1.13 2.201 1.13 1.192 0 1.987-.932.795-.932.795-3.056 0-2.186-.856-3.194-.856-1.024-2.14-1.024-1.238 0-2.094.978-.855.963-.855 2.858z" font-weight="700" aria-label="6" style="font-weight:bold;stroke-width:1.9562" font-size="31.299" font-family="Arial" fill="#000" stroke-width="1.956"/><path d="M85.4 154.2h26.2v-26.3H85.4z" fill="#fff" stroke="#000"/><path d="M102.659 152.038h-4.295v-16.184q-2.353 2.2-5.547 3.255v-3.897q1.68-.55 3.652-2.079 1.972-1.543 2.705-3.591h3.485z" font-weight="700" aria-label="1" style="font-weight:bold;stroke-width:1.9562" font-size="31.299" font-family="Arial" fill="#000" stroke-width="1.956"/><path d="M126.6 154.3h26.2V128h-26.2z" fill="#fff" stroke="#000"/><path d="M136.554 140.05q-1.666-.703-2.43-1.926-.75-1.238-.75-2.705 0-2.506 1.743-4.142 1.758-1.635 4.982-1.635 3.194 0 4.952 1.635 1.773 1.636 1.773 4.142 0 1.559-.81 2.781-.81 1.208-2.277 1.85 1.864.748 2.827 2.185.978 1.437.978 3.316 0 3.103-1.987 5.044-1.971 1.94-5.257 1.94-3.057 0-5.09-1.604-2.399-1.895-2.399-5.196 0-1.819.902-3.332.902-1.528 2.843-2.353zm.886-4.325q0 1.283.718 2.002.734.718 1.941.718 1.223 0 1.957-.718.733-.734.733-2.018 0-1.207-.733-1.925-.719-.734-1.91-.734-1.239 0-1.972.734-.734.733-.734 1.94zm-.397 9.597q0 1.773.901 2.766.917.994 2.278.994 1.33 0 2.2-.948.871-.963.871-2.766 0-1.574-.886-2.522-.886-.962-2.247-.962-1.574 0-2.353 1.085-.764 1.085-.764 2.353z" font-weight="700" aria-label="8" style="font-weight:bold;stroke-width:1.9562" font-size="31.299" font-family="Arial" fill="#000" stroke-width="1.956"/><path d="M160.4 154.3h26.2V128h-26.2z" fill="#fff" stroke="#000"/><path d="M175.091 152.138v-4.508h-9.17v-3.76l9.72-14.228h3.607v14.213h2.782v3.775h-2.782v4.508zm0-8.283v-7.657l-5.15 7.657z" font-weight="700" aria-label="4" style="font-weight:bold;stroke-width:1.9562" font-size="31.299" font-family="Arial" fill="#000" stroke-width="1.956"/><path d="M235.4 154.2h26.2v-26.3h-26.2z" fill="#fff" stroke="#000"/><path d="M241.67 133.928v-3.989h14.687v3.118q-1.818 1.788-3.698 5.135-1.88 3.347-2.873 7.122-.978 3.76-.963 6.724h-4.142q.107-4.646 1.91-9.475 1.82-4.83 4.845-8.635z" font-weight="700" aria-label="7" style="font-weight:bold;stroke-width:1.9562" font-size="31.299" font-family="Arial" fill="#000" stroke-width="1.956"/><path d="M302.8 154.2H329v-26.3h-26.2z" fill="#fff" stroke="#000"/><path d="M309.132 146.277l4.279-.444q.183 1.452 1.085 2.308.902.84 2.078.84 1.345 0 2.278-1.084.932-1.1.932-3.301 0-2.064-.932-3.088-.917-1.039-2.4-1.039-1.85 0-3.316 1.635l-3.485-.504 2.201-11.66h11.355v4.019h-8.1l-.672 3.805q1.436-.718 2.934-.718 2.858 0 4.845 2.078 1.987 2.079 1.987 5.395 0 2.766-1.605 4.936-2.186 2.965-6.067 2.965-3.103 0-5.059-1.665-1.956-1.666-2.338-4.478z" font-weight="700" aria-label="5" style="font-weight:bold;stroke-width:1.9562" font-size="31.299" font-family="Arial" fill="#000" stroke-width="1.956"/><path d="M17.8 188H44v-26.3H17.8z" fill="#fff" stroke="#000"/><path d="M38.574 181.85v3.988H23.52q.245-2.262 1.468-4.279 1.222-2.033 4.829-5.38 2.904-2.705 3.56-3.667.887-1.33.887-2.629 0-1.437-.78-2.2-.763-.78-2.124-.78-1.344 0-2.14.81-.794.81-.916 2.69l-4.28-.428q.383-3.546 2.4-5.09 2.017-1.543 5.043-1.543 3.317 0 5.212 1.788 1.895 1.788 1.895 4.447 0 1.513-.55 2.889-.535 1.36-1.712 2.858-.78.993-2.812 2.858-2.033 1.864-2.583 2.475-.535.612-.87 1.192z" font-weight="700" aria-label="2" style="font-weight:bold;stroke-width:1.9562" font-size="31.299" font-family="Arial" fill="#000" stroke-width="1.956"/><path d="M85.4 188h26.2v-26.3H85.4z" fill="#fff" stroke="#000"/><path d="M95.354 173.75q-1.666-.703-2.43-1.926-.75-1.238-.75-2.705 0-2.506 1.743-4.142 1.758-1.635 4.982-1.635 3.194 0 4.952 1.635 1.773 1.636 1.773 4.142 0 1.559-.81 2.781-.81 1.208-2.277 1.85 1.864.748 2.827 2.185.978 1.437.978 3.316 0 3.103-1.987 5.044-1.971 1.94-5.257 1.94-3.057 0-5.09-1.604-2.399-1.895-2.399-5.196 0-1.819.902-3.332.902-1.528 2.843-2.353zm.886-4.325q0 1.283.718 2.002.734.718 1.941.718 1.223 0 1.957-.718.733-.734.733-2.018 0-1.207-.733-1.925-.719-.734-1.91-.734-1.239 0-1.972.734-.734.733-.734 1.94zm-.397 9.597q0 1.773.901 2.766.917.994 2.278.994 1.33 0 2.2-.948.871-.963.871-2.766 0-1.574-.886-2.522-.886-.962-2.247-.962-1.574 0-2.353 1.085-.764 1.085-.764 2.353z" font-weight="700" aria-label="8" style="font-weight:bold;stroke-width:1.9562" font-size="31.299" font-family="Arial" fill="#000" stroke-width="1.956"/><path d="M160.4 188h26.2v-26.3h-26.2z" fill="#fff" stroke="#000"/><path d="M166.732 180.077l4.279-.444q.183 1.452 1.085 2.308.902.84 2.078.84 1.345 0 2.278-1.084.932-1.1.932-3.301 0-2.064-.932-3.088-.917-1.039-2.4-1.039-1.85 0-3.316 1.635l-3.485-.504 2.201-11.66h11.355v4.019h-8.1l-.672 3.805q1.436-.718 2.934-.718 2.858 0 4.845 2.078 1.987 2.079 1.987 5.395 0 2.766-1.605 4.936-2.186 2.965-6.067 2.965-3.103 0-5.059-1.665-1.956-1.666-2.338-4.478z" font-weight="700" aria-label="5" style="font-weight:bold;stroke-width:1.9562" font-size="31.299" font-family="Arial" fill="#000" stroke-width="1.956"/><path d="M194.2 188h26.2v-26.3h-26.2z" fill="#fff" stroke="#000"/><path d="M200.562 180.657l4.157-.458q.153 1.268.795 1.88.642.611 1.696.611 1.33 0 2.262-1.223.932-1.222 1.192-5.073-1.62 1.88-4.05 1.88-2.644 0-4.57-2.033-1.91-2.048-1.91-5.319 0-3.408 2.018-5.486 2.032-2.094 5.165-2.094 3.408 0 5.594 2.644 2.185 2.629 2.185 8.665 0 6.144-2.277 8.864-2.277 2.72-5.93 2.72-2.628 0-4.248-1.39-1.62-1.406-2.079-4.188zm9.72-9.383q0-2.079-.963-3.225-.947-1.146-2.2-1.146-1.192 0-1.987.947-.78.933-.78 3.072 0 2.17.856 3.194.856 1.009 2.14 1.009 1.238 0 2.078-.978.856-.978.856-2.873z" font-weight="700" aria-label="9" style="font-weight:bold;stroke-width:1.9562" font-size="31.299" font-family="Arial" fill="#000" stroke-width="1.956"/><path d="M235.3 188h26.2v-26.3h-26.2z" fill="#fff" stroke="#000"/><path d="M249.991 185.838v-4.508h-9.17v-3.76l9.72-14.228h3.607v14.213h2.782v3.775h-2.782v4.508zm0-8.283v-7.657l-5.15 7.657z" font-weight="700" aria-label="4" style="font-weight:bold;stroke-width:1.9562" font-size="31.299" font-family="Arial" fill="#000" stroke-width="1.956"/><path d="M269 221.7h26.2v-26.3H269z" fill="#fff" stroke="#000"/><path d="M286.259 219.538h-4.295v-16.184q-2.353 2.2-5.547 3.255v-3.897q1.68-.55 3.652-2.079 1.972-1.543 2.705-3.591h3.485z" font-weight="700" aria-label="1" style="font-weight:bold;stroke-width:1.9562" font-size="31.299" font-family="Arial" fill="#000" stroke-width="1.956"/><path d="M51.6 296.7h26.2v-26.3H51.6z" fill="#fff" stroke="#000"/><path d="M57.962 289.357l4.157-.458q.153 1.268.795 1.88.642.611 1.696.611 1.33 0 2.262-1.223.932-1.222 1.192-5.074-1.62 1.88-4.05 1.88-2.644 0-4.57-2.032-1.91-2.048-1.91-5.319 0-3.408 2.018-5.486 2.032-2.094 5.165-2.094 3.408 0 5.594 2.644 2.185 2.629 2.185 8.665 0 6.144-2.277 8.864-2.277 2.72-5.93 2.72-2.628 0-4.248-1.39-1.62-1.406-2.079-4.188zm9.72-9.383q0-2.079-.963-3.225-.947-1.146-2.2-1.146-1.192 0-1.987.947-.78.933-.78 3.072 0 2.17.856 3.194.856 1.009 2.14 1.009 1.238 0 2.078-.978.856-.978.856-2.873z" font-weight="700" aria-label="9" style="font-weight:bold;stroke-width:1.9562" font-size="31.299" font-family="Arial" fill="#000" stroke-width="1.956"/><path d="M85.3 296.7h26.2v-26.3H85.3z" fill="#fff" stroke="#000"/><path d="M106.12 277.62l-4.157.459q-.153-1.284-.795-1.895-.642-.612-1.666-.612-1.36 0-2.307 1.223-.933 1.223-1.177 5.09 1.605-1.896 3.989-1.896 2.69 0 4.6 2.048 1.925 2.048 1.925 5.288 0 3.438-2.017 5.517-2.017 2.078-5.18 2.078-3.394 0-5.579-2.628-2.185-2.644-2.185-8.65 0-6.16 2.277-8.88 2.277-2.72 5.914-2.72 2.552 0 4.218 1.437 1.681 1.42 2.14 4.141zm-9.735 9.369q0 2.093.962 3.24.963 1.13 2.201 1.13 1.192 0 1.987-.932.795-.932.795-3.056 0-2.186-.856-3.194-.856-1.024-2.14-1.024-1.238 0-2.094.978-.855.962-.855 2.858z" font-weight="700" aria-label="6" style="font-weight:bold;stroke-width:1.9562" font-size="31.299" font-family="Arial" fill="#000" stroke-width="1.956"/><path d="M51.6 330.4h26.2v-26.3H51.6z" fill="#fff" stroke="#000"/><path d="M68.859 328.238h-4.295v-16.184q-2.353 2.2-5.547 3.255v-3.897q1.68-.55 3.652-2.079 1.972-1.543 2.705-3.591h3.485z" font-weight="700" aria-label="1" style="font-weight:bold;stroke-width:1.9562" font-size="31.299" font-family="Arial" fill="#000" stroke-width="1.956"/><path d="M17.8 330.5H44v-26.3H17.8z" fill="#fff" stroke="#000"/><path d="M32.491 328.338v-4.508h-9.17v-3.76l9.72-14.228h3.607v14.213h2.782v3.775h-2.782v4.508zm0-8.283v-7.657l-5.15 7.657z" font-weight="700" aria-label="4" style="font-weight:bold;stroke-width:1.9562" font-size="31.299" font-family="Arial" fill="#000" stroke-width="1.956"/><path d="M126.6 296.7h26.2v-26.3h-26.2z" fill="#fff" stroke="#000"/><path d="M132.87 276.428v-3.989h14.687v3.118q-1.818 1.788-3.698 5.135-1.88 3.347-2.873 7.122-.978 3.76-.963 6.724h-4.142q.107-4.646 1.91-9.475 1.82-4.83 4.845-8.635z" font-weight="700" aria-label="7" style="font-weight:bold;stroke-width:1.9562" font-size="31.299" font-family="Arial" fill="#000" stroke-width="1.956"/><path d="M160.3 296.7h26.2v-26.3h-26.2z" fill="#fff" stroke="#000"/><path d="M166.418 288.593l4.157-.504q.198 1.59 1.07 2.43.87.84 2.108.84 1.33 0 2.232-1.008.917-1.009.917-2.72 0-1.62-.871-2.568-.872-.948-2.125-.948-.825 0-1.971.321l.474-3.5q1.742.046 2.659-.748.917-.81.917-2.14 0-1.13-.673-1.803-.672-.673-1.788-.673-1.1 0-1.88.764-.779.765-.947 2.232l-3.958-.673q.412-2.032 1.238-3.24.84-1.222 2.323-1.91 1.497-.703 3.346-.703 3.164 0 5.074 2.017 1.575 1.65 1.575 3.73 0 2.949-3.225 4.706 1.925.413 3.072 1.85 1.161 1.436 1.161 3.469 0 2.95-2.155 5.028-2.155 2.078-5.364 2.078-3.041 0-5.043-1.742-2.002-1.757-2.323-4.585z" font-weight="700" aria-label="3" style="font-weight:bold;stroke-width:1.9562" font-size="31.299" font-family="Arial" fill="#000" stroke-width="1.956"/><path d="M160.4 330.4h26.2v-26.3h-26.2z" fill="#fff" stroke="#000"/><path d="M170.354 316.15q-1.666-.703-2.43-1.926-.75-1.238-.75-2.705 0-2.506 1.743-4.142 1.758-1.635 4.982-1.635 3.194 0 4.952 1.635 1.773 1.636 1.773 4.142 0 1.559-.81 2.781-.81 1.208-2.277 1.85 1.864.748 2.827 2.185.978 1.437.978 3.316 0 3.103-1.987 5.044-1.971 1.94-5.257 1.94-3.057 0-5.09-1.604-2.399-1.895-2.399-5.196 0-1.819.902-3.332.902-1.528 2.843-2.353zm.886-4.325q0 1.283.718 2.002.734.718 1.941.718 1.223 0 1.957-.718.733-.734.733-2.018 0-1.207-.733-1.925-.719-.734-1.91-.734-1.239 0-1.972.734-.734.733-.734 1.94zm-.397 9.597q0 1.773.901 2.766.917.994 2.278.994 1.33 0 2.2-.948.871-.963.871-2.766 0-1.574-.886-2.522-.886-.962-2.247-.962-1.574 0-2.353 1.085-.764 1.085-.764 2.353z" font-weight="700" aria-label="8" style="font-weight:bold;stroke-width:1.9562" font-size="31.299" font-family="Arial" fill="#000" stroke-width="1.956"/><path d="M194.2 263h26.2v-26.3h-26.2z" fill="#fff" stroke="#000"/><path d="M211.459 260.838h-4.295v-16.184q-2.353 2.2-5.547 3.255v-3.897q1.68-.55 3.652-2.079 1.972-1.543 2.705-3.591h3.485z" font-weight="700" aria-label="1" style="font-weight:bold;stroke-width:1.9562" font-size="31.299" font-family="Arial" fill="#000" stroke-width="1.956"/><path d="M235.3 330.5h26.2v-26.3h-26.2z" fill="#fff" stroke="#000"/><path d="M241.662 323.157l4.157-.458q.153 1.268.795 1.88.642.611 1.696.611 1.33 0 2.262-1.223.932-1.222 1.192-5.073-1.62 1.88-4.05 1.88-2.644 0-4.57-2.033-1.91-2.048-1.91-5.319 0-3.408 2.018-5.486 2.032-2.094 5.165-2.094 3.408 0 5.594 2.644 2.185 2.629 2.185 8.665 0 6.144-2.277 8.864-2.277 2.72-5.93 2.72-2.628 0-4.248-1.39-1.62-1.406-2.079-4.188zm9.72-9.383q0-2.079-.963-3.225-.947-1.146-2.2-1.146-1.192 0-1.987.947-.78.933-.78 3.072 0 2.17.856 3.194.856 1.009 2.14 1.009 1.238 0 2.078-.978.856-.978.856-2.873z" font-weight="700" aria-label="9" style="font-weight:bold;stroke-width:1.9562" font-size="31.299" font-family="Arial" fill="#000" stroke-width="1.956"/><path d="M302.9 330.4h26.2v-26.3h-26.2z" fill="#fff" stroke="#000"/><path d="M309.018 322.293l4.157-.504q.198 1.59 1.07 2.43.87.84 2.108.84 1.33 0 2.232-1.008.917-1.009.917-2.72 0-1.62-.871-2.568-.872-.948-2.125-.948-.825 0-1.971.321l.474-3.5q1.742.046 2.659-.748.917-.81.917-2.14 0-1.13-.673-1.803-.672-.673-1.788-.673-1.1 0-1.88.764-.779.765-.947 2.232l-3.958-.673q.412-2.032 1.238-3.24.84-1.222 2.323-1.91 1.497-.703 3.346-.703 3.164 0 5.074 2.017 1.575 1.65 1.575 3.73 0 2.949-3.225 4.706 1.925.413 3.072 1.85 1.161 1.436 1.161 3.469 0 2.95-2.155 5.028-2.155 2.078-5.364 2.078-3.041 0-5.043-1.742-2.002-1.757-2.323-4.585z" font-weight="700" aria-label="3" style="font-weight:bold;stroke-width:1.9562" font-size="31.299" font-family="Arial" fill="#000" stroke-width="1.956"/></svg>