<svg xmlns="http://www.w3.org/2000/svg" xml:space="preserve" fill="none" stroke="#000" stroke-width="2" viewBox="0 0 347 347"><path d="M5 5h337v337H5z"/><circle cx="298" cy="40" r="16"/><path stroke-linecap="square" stroke-width="2.1" d="M25 216.2h297M25 195h297M25 173.5h297M25 152.1h297M25 130.6h297" paint-order="markers stroke fill"/><path stroke-linecap="square" stroke-width="3.2" d="M25 100.1h297v146.5H25z" paint-order="markers stroke fill"/><path fill="#000" stroke-linecap="square" d="M272.4 131.5a12.8 8.3 0 0 1-12.8 8.3 12.8 8.3 0 0 1-12.8-8.3 12.8 8.3 0 0 1 12.8-8.3 12.8 8.3 0 0 1 12.8 8.3zm-68 20.6a12.8 8.3 0 0 1-12.8 8.3 12.8 8.3 0 0 1-12.8-8.3 12.8 8.3 0 0 1 12.8-8.3 12.8 8.3 0 0 1 12.8 8.3zM169 195.6a12.8 8.3 0 0 1-12.7 8.3 12.8 8.3 0 0 1-12.8-8.3 12.8 8.3 0 0 1 12.8-8.3 12.8 8.3 0 0 1 12.7 8.3zm-34-22.3a12.8 8.3 0 0 1-12.7 8.3 12.8 8.3 0 0 1-12.8-8.3 12.8 8.3 0 0 1 12.8-8.3 12.8 8.3 0 0 1 12.8 8.3z" paint-order="markers stroke fill"/><path fill="#000" stroke-linecap="square" stroke-miterlimit="1" stroke-width=".1" d="M14 103.2s-3.4 17.6.6 29.3A79 79 0 0 0 34 163c-6.5 5.4-13 11.6-12.8 22.5 0 11.5 2.4 14.2 6.6 19.7 4.1 5.3 9.5 6.7 13.4 6.9 2.2 4.2 3.3 9.6 6.8 15.6a41 41 0 0 0 10 12.6c1.5 3.4 4.2 7.5 7.7 8.3 4.8 1 9.3.4 10.8-3 2-4.6.1-9.3-4.2-11.7-4.4-2.4-9.6-1.3-12.2 1.7A45 45 0 0 1 47 212c4.8-.9 11.6-4.6 14.7-8.7a27 27 0 0 0 4.6-21.6c-2-8-3.4-11.6-11.5-18.6 5.7-6.4 9.7-8.9 15.4-20.6 4.3-9 6-17 6.3-24.7.2-6.3-.1-10.1-1.8-15.2-9.4 5.5-11.9 8-17.3 15s-9.8 16-11 23c-1.5 7.5-1.7 17.7-2.3 19.8-.6-9.1-.2-12.8-2.8-21.9a52 52 0 0 0-14.5-25c-7.7-6.7-12.8-10.3-12.8-10.3z" paint-order="markers stroke fill"/><path fill="#fff" stroke-linecap="square" stroke-miterlimit="1" stroke-width=".1" d="M50.2 192.2v4.7q.1 1.1 1.1 1.2h1q1 0 1-1.2v-19.1q0-1.1-1-1.2h-1q-.6 0-1 .6L43.6 190v1.2q0 1 1.2 1.1zm0-3.1h-3l3-5.2zm-17.5 2.6q0 6.2 4.8 6.3c3 0 4.6-2.4 4.6-6.3v-9c0-3.8-1.5-6.2-4.6-6.2q-4.8.2-4.8 6.3zm3.2-9.2q0-3 1.6-2.8 1.4-.2 1.4 2.8v9.5q0 2.9-1.4 2.8-1.6.2-1.6-2.8z" paint-order="markers stroke fill"/></svg>