<svg viewBox="0 0 348 348" fill="none" xmlns="http://www.w3.org/2000/svg"><path d="M5 5.8h337v337.6H5z" stroke-width="2" stroke="#000"/><path d="M282.7 40.6c0-8.4 7-15.2 15.6-15.2 4.1 0 8 1.6 11 4.4a15 15 0 0 1 4.6 10.8c0 8.3-7 15.1-15.6 15.1s-15.6-6.8-15.6-15.1z" stroke-width="2" stroke="#000"/><path d="M92.8 74.3h107v84.8h-107z"/><path d="M36 74.2h191.6v52.6H36zm209.2 12.5h70V114h-70z" fill="#000" stroke="#000" stroke-width="1.6"/><circle cx="91.6" cy="40.5" r="21.6" stroke="#000" stroke-width="1.6"/><circle cx="172.3" cy="40.5" r="21.6" stroke="#000" stroke-width="1.6"/><path d="M55.8 165h24.4v24.3H55.8zm48 0h24.4v24.3H104zm50.6 0h24.3v24.3h-24.3zm48.9 0h24.3v24.3h-24.3zm49.4 0H277v24.3h-24.3zM55.8 211h24.4v24.3H55.8zm48 0h24.4v24.3H104zm50.6 0h24.3v24.3h-24.3zm48.9 0h24.3v24.3h-24.3zm49.4 0H277v24.3h-24.3z" stroke="#000" stroke-width="1.6"/><path d="M44.2 274.6h104.5v28.9H44.2zM185.5 274.6h102.8v28.9H185.5z" stroke="#000" stroke-width="1.7"/><path d="m48.6 101.6-1.8.6 1.8.7 6.3 3.2q.4.2.6.5.2.3.2.7v3l-14-7.2v-1.7l14-7.3v3.1q0 .4-.2.7l-.6.4zm36.2-.2q0 2.8-1 5.1-.9 2.3-2.5 4-1.7 1.7-4 2.6-2.5 1-5.3 1h-9.7V88.7H72q2.8 0 5.2 1 2.4.9 4 2.6 1.7 1.6 2.7 4 1 2.3 1 5zm-4.8 0q0-2.1-.6-3.8-.5-1.6-1.6-2.8-1-1.1-2.5-1.7-1.5-.6-3.3-.6h-5v17.8h5q1.8 0 3.3-.6 1.5-.6 2.5-1.8 1-1.1 1.6-2.8.6-1.6.6-3.7zM93.7 114H89V88.7h4.7zm19.2-20.8-.5.6-.6.1-.8-.2-1-.7-1.4-.6q-.8-.2-1.9-.2-1 0-1.7.2t-1.2.7q-.5.4-.8 1-.2.6-.2 1.3 0 .8.5 1.4.5.6 1.3 1 .8.5 1.9.8l2.1.7 2.2 1q1 .4 1.9 1.2.8.7 1.3 1.8t.5 2.7q0 1.7-.6 3.2-.6 1.5-1.7 2.7-1.2 1-2.8 1.7-1.6.6-3.7.6l-2.4-.2q-1.2-.2-2.3-.7l-2-1q-1-.6-1.7-1.4l1.4-2.3.5-.4.6-.1q.4 0 1 .3l1.1.8q.7.5 1.7.8 1 .4 2.2.4 2 0 3.1-1t1.1-2.7q0-1-.5-1.7-.5-.6-1.3-1l-1.9-.7-2-.7q-1.2-.3-2.2-.8-1-.5-1.9-1.3-.8-.8-1.3-2t-.5-2.9q0-1.4.5-2.7.6-1.3 1.6-2.3 1-1 2.6-1.7 1.6-.6 3.6-.6 2.2 0 4.1.7 1.9.7 3.2 2zm14 8.2q1.2 0 2.2-.4 1-.3 1.6-.9.6-.6 1-1.5.3-.8.3-2 0-1-.4-1.8-.3-.8-.9-1.4-.6-.5-1.6-.8-1-.3-2.3-.3h-3.5v9zm0-12.8q2.5 0 4.3.6 1.9.6 3 1.7 1.3 1 1.9 2.5.6 1.5.6 3.3 0 1.8-.6 3.4-.7 1.5-1.9 2.6t-3 1.7q-1.9.6-4.4.6h-3.5v9h-4.7V88.7Zm28.2 21.5v3.9h-14.8V88.7h4.7v21.5Zm16.8-5.7-3-8.4-.6-1.4-.5-1.6-.4 1.6-.5 1.4-3 8.4zm8.3 9.6h-3.6q-.6 0-1-.3l-.6-.8-1.9-5.2h-10.5l-1.9 5.2q-.1.4-.5.7-.4.4-1 .4h-3.7l10-25.4h4.8zm13.5-9.9v9.9H189v-9.9l-9.2-15.5h4.2q.6 0 1 .3l.5.8 4.7 8.4.7 1.4.5 1.4.5-1.4.7-1.4 4.6-8.4.6-.8q.4-.3 1-.3h4.2zm26.7-2.8v1.7l-13.9 7.3v-3.1q0-.4.2-.7.2-.3.6-.5l6.3-3.2 1.9-.7q-1-.2-1.9-.6l-6.3-3.3-.6-.4q-.2-.3-.2-.7v-3z"  fill="#fff" stroke="none" aria-label="&lt;DISPLAY&gt;" stroke-width="4.7"/><path d="m250.6 101.2-.7.3q.4 0 .7.2l2.2 1.1.2.2v1.3l-4.8-2.5v-.6l4.9-2.6v1.3l-.3.2zm12.7 0q0 1-.3 1.8t-1 1.4q-.5.6-1.4.9-.8.3-1.8.3h-3.4v-8.9h3.4q1 0 1.8.3.9.4 1.5 1 .6.5.9 1.4.3.8.3 1.8zm-1.7 0q0-.8-.2-1.3l-.5-1-1-.7q-.4-.2-1.1-.2h-1.7v6.3h1.7q.7 0 1.2-.2t.9-.6l.5-1q.2-.6.2-1.3zm4.8 4.4h-1.6v-8.9h1.6zm6.8-7.3q0 .2-.2.2h-.5l-.3-.2-.5-.2-.7-.1h-.6l-.4.3-.3.3v.5l.1.5.5.4.6.2.8.3.8.3.6.4.5.7q.2.4.2 1l-.2 1q-.2.6-.7 1-.3.4-1 .6-.5.2-1.2.2h-.9l-.8-.3-.7-.4-.6-.4.5-.8.2-.2h.5l.4.4.6.2.8.2q.7 0 1.1-.4.4-.3.4-1 0-.3-.2-.5l-.4-.4-.7-.2-.8-.3q-.3 0-.7-.3-.4-.1-.7-.4-.3-.3-.4-.7-.2-.4-.2-1l.2-1 .6-.8q.3-.4.9-.6.5-.2 1.2-.2.8 0 1.5.3.6.2 1.1.6zm5 2.9.7-.1.6-.3.3-.6.1-.6v-.7l-.4-.5-.6-.3-.8-.1H277v3.2zm0-4.5q.8 0 1.5.2t1 .6q.5.4.7.9.2.5.2 1.2 0 .6-.2 1.1l-.7 1q-.4.4-1 .6-.7.2-1.6.2H277v3.1h-1.7v-8.9zm9.9 7.6v1.3h-5.3v-8.9h1.7v7.6zm5.9-2-1.1-3-.2-.5-.2-.6-.1.6-.2.5-1 3zm2.9 3.3h-1.6l-.2-.3-.7-1.9h-3.7l-.7 1.9-.2.2-.3.1h-1.3l3.5-8.9h1.7zm4.8-3.4v3.4H300v-3.4l-3.2-5.5h1.4l.4.1.2.3 1.6 3 .2.5.2.4.2-.4.3-.5 1.6-3q0-.2.2-.3h1.8zm9.4-1v.6l-5 2.5v-1l.1-.3.2-.2 2.3-1.1.6-.2-.6-.3-2.3-1.1-.2-.2v-1.2z" aria-label="&lt;DISPLAY&gt;" fill="#fff" stroke-width="1.6"/><path d="M72.3 182.7v2h-8.5v-2h3v-9l.1-1.1-2.2 1.8-.4.2h-.6l-.2-.3-.8-1.1 4.7-4h2.1v13.5z" aria-label="1" fill="#000"/><path d="M120.6 181.8q.4 0 .6.3.3.2.3.6v1.6h-10.6v-.9l.1-.5.4-.6 4.7-4.7 1-1.1.8-1 .4-1.2q.2-.5.2-1.1l-.1-1-.5-.7q-.3-.3-.7-.4-.4-.2-1-.2l-.8.1-.7.4-.5.6-.3.7q-.2.5-.5.6-.3.2-.8.1l-1.4-.2q.1-1.1.6-2 .4-.8 1.1-1.4.7-.5 1.6-.8 1-.3 2-.3t1.9.3q.9.3 1.5.9.6.6 1 1.4.3.8.3 1.8l-.2 1.6-.7 1.3q-.4.7-1 1.3l-1.2 1.3-3.4 3.5 1-.2h.9z" aria-label="2" fill="#000"/><path d="M161.8 173.4q.2-1.1.6-2 .5-.8 1.2-1.4.7-.5 1.6-.8.9-.3 1.9-.3 1 0 2 .3.8.3 1.4.9.6.5 1 1.2.2.7.2 1.6l-.1 1.3-.5 1q-.3.4-.8.7l-1 .4q1.4.5 2 1.4.7.9.7 2.2 0 1.2-.4 2-.4 1-1.1 1.6l-1.7.9q-1 .3-2 .3-1.2 0-2-.3-1-.3-1.6-.8-.6-.5-1-1.3-.5-.7-.8-1.7l1.1-.5q.5-.2.9-.1.4 0 .6.4l.4.8.6.6.7.5 1 .1q.7 0 1.2-.2l.8-.5q.4-.4.5-.8l.2-.9-.1-1q-.1-.5-.5-.8l-1-.5q-.8-.2-2-.2v-1.8q1 0 1.7-.2l1-.5q.4-.3.5-.7.2-.4.2-1 0-1-.6-1.6-.6-.6-1.7-.6l-.8.2q-.4 0-.7.3l-.6.6-.3.7q-.2.5-.5.6-.3.2-.8.1z" aria-label="3" fill="#000"/><path d="M216.5 178.7v-5l.1-1.6-4.7 6.6zm4.3 0v1.5l-.2.4-.4.1h-1.4v3.8h-2.3v-3.8H210l-.4-.1-.3-.4-.3-1.4 7.3-9.7h2.5v9.6z" aria-label="4" fill="#000"/><path d="m263 175.3 1-.2h1q1.1 0 2 .3 1 .4 1.6 1 .6.7 1 1.5.3.9.3 1.9 0 1.2-.5 2.2-.4 1-1.1 1.8-.8.7-1.9 1-1 .5-2.3.5-.7 0-1.3-.2-.7-.1-1.3-.4l-1-.6-.9-.7.8-1q.3-.4.7-.4l.6.1.6.4.8.4 1.2.1q.7 0 1.3-.2.5-.2.9-.6.4-.5.5-1 .2-.6.2-1.3 0-1.3-.7-2t-2.2-.7q-1 0-2.2.4l-1.6-.4 1.2-7.5h7.7v1q0 .6-.4 1t-1.2.4h-4.2Z" aria-label="5" fill="#000"/><path d="m66.8 220.6-.6.7 1-.3q.5-.2 1.1-.2.9 0 1.7.3.8.3 1.5.9.6.6 1 1.4t.4 2q0 1.1-.4 2-.4 1-1.1 1.7-.8.7-1.8 1.1-1 .4-2.2.4-1.2 0-2.2-.4-1-.4-1.7-1-.7-.8-1-1.8-.4-1-.4-2.2 0-1 .4-2.2.5-1.2 1.4-2.4l3.7-5 .5-.4q.4-.2.9-.2h2.3zm.6 7.9q.6 0 1.1-.2l1-.6.5-1 .2-1q0-.7-.2-1.2-.2-.6-.6-1-.3-.3-.9-.5-.5-.2-1.1-.2-.6 0-1.1.2-.6.2-1 .6l-.5 1q-.2.4-.2 1 0 .7.2 1.2l.5.9q.4.4.9.6.5.2 1.2.2z" aria-label="6" fill="#000"/><path d="M121.1 215.7v2l-.3.5-5.9 12q-.1.4-.5.7-.3.2-.9.2h-1.9l6-11.7.4-.7.4-.6h-7.3q-.3 0-.5-.2l-.1-.4v-1.8z" aria-label="7" fill="#000"/><path d="M166.5 229q.7 0 1.2-.2l.8-.5.5-.8.2-1q0-1.3-.7-2-.7-.6-2-.6t-2 .7q-.6.6-.6 1.9l.2 1q.1.4.5.8l.8.5q.5.2 1.1.2zm0-11.8q-.6 0-1 .2l-.7.5q-.3.3-.4.7l-.1.8v1l.5.7q.2.3.7.5.4.2 1 .2.7 0 1.1-.2l.7-.5q.3-.3.4-.8l.1-.9-.1-.8-.5-.7q-.2-.3-.7-.5-.4-.2-1-.2zm2.6 5.6q1.4.5 2.1 1.4.7 1 .7 2.3 0 1-.4 1.9-.4.8-1.1 1.4-.7.6-1.7.9-1 .3-2.2.3-1.2 0-2.2-.3-1-.3-1.6-1-.7-.5-1.1-1.3-.4-.9-.4-1.9 0-1.4.6-2.3.7-1 2.1-1.4-1-.5-1.7-1.3-.5-.9-.5-2.1 0-.9.3-1.6.4-.8 1-1.4.7-.5 1.6-.8.9-.4 2-.4 1 0 1.9.4.9.3 1.5.8.7.6 1 1.4.4.7.4 1.6 0 1.2-.6 2-.5 1-1.7 1.4z" aria-label="8" fill="#000"/><path d="M213 220.3q0 1.3.7 2t2 .7q.6 0 1-.2.6-.2 1-.6.3-.3.4-.8l.2-1q0-.7-.2-1.2l-.5-.8-.9-.5-1-.2q-.6 0-1.1.2l-.8.5q-.4.4-.6.9l-.1 1zm3.6 4.9.3-.5.3-.4-1.2.5q-.6.2-1.3.2-.8 0-1.6-.3t-1.3-.8q-.6-.6-1-1.4-.4-.8-.4-2 0-1 .4-1.9.4-.9 1-1.6.8-.7 1.8-1 1-.5 2.1-.5 1.2 0 2.1.4 1 .4 1.6 1 .7.7 1 1.7.4 1 .4 2l-.1 1.4-.3 1.2-.6 1.2-.7 1.1-3.5 5q-.2.3-.6.5l-.8.1h-2.4z" aria-label="9" fill="#000"/><path d="M270.3 223.6q0 2-.4 3.5t-1.2 2.5q-.8 1-1.8 1.5-1 .4-2.2.4-1.3 0-2.3-.4-1-.5-1.8-1.5-.7-1-1.2-2.5-.4-1.4-.4-3.5 0-2 .4-3.5.5-1.5 1.2-2.4.8-1 1.8-1.5 1-.4 2.3-.4 1.2 0 2.2.4 1 .5 1.8 1.5t1.2 2.4q.4 1.5.4 3.5zm-2.7 0q0-1.6-.2-2.7-.3-1.1-.7-1.8-.4-.6-1-.9-.5-.3-1-.3-.6 0-1.1.3-.6.3-1 1-.4.6-.6 1.7-.3 1-.3 2.7t.3 2.8q.2 1.1.6 1.8.4.6 1 .9l1 .2 1.2-.2q.5-.3.9-1 .4-.6.7-1.7.2-1 .2-2.8z" aria-label="0" fill="#000"/><path d="m71.1 289.2-1.9-5.1-.3-.8-.3-1-.2 1-.3.8-1.9 5.1zm5 5.9H74q-.4 0-.6-.2-.3-.2-.4-.5l-1.2-3.1h-6.3l-1.2 3.1q0 .2-.3.4l-.6.2H61l6.1-15.4h3zm9.1-8.7-.2.3h-.7l-.5-.4-.6-.2q-.4-.2-1-.2t-1.2.3q-.5.2-.8.7-.4.5-.6 1.2l-.1 1.5q0 .8.2 1.5.1.7.5 1.2l.9.7 1 .2 1.1-.1.7-.4.4-.3q.2-.2.5-.2t.4.3l.8 1-1 .8-1 .5-1.1.3-1.2.1q-1 0-2-.4-.8-.3-1.5-1-.6-.8-1-1.8-.4-1.1-.4-2.4 0-1.2.3-2.3.4-1 1-1.8.7-.7 1.7-1.1 1-.5 2.3-.5 1.2 0 2.1.4 1 .4 1.7 1.2zm10 0-.1.3h-.8l-.4-.4-.7-.2q-.3-.2-.9-.2-.7 0-1.2.3-.5.2-.9.7l-.5 1.2-.1 1.5.1 1.5q.2.7.6 1.2.3.4.8.7.5.2 1.2.2l1-.1.6-.4.5-.3q.2-.2.5-.2t.4.3l.8 1-1 .8-1 .5-1.2.3-1.1.1q-1 0-2-.4-.8-.3-1.5-1-.7-.8-1-1.8-.4-1.1-.4-2.4 0-1.2.3-2.3.4-1 1-1.8.7-.7 1.7-1.1 1-.5 2.3-.5 1.2 0 2.1.4 1 .4 1.7 1.2zm9.4 2q0-.6-.2-1 0-.5-.4-.8-.3-.4-.7-.6l-1-.2q-1.2 0-1.8.7-.7.6-.9 1.8zm-5 1.5q0 .9.3 1.5.2.6.6 1 .4.4.9.6.5.2 1.2.2t1-.2l.9-.3.6-.3.5-.2q.3 0 .5.3l.7 1-1 .8-1 .5-1.3.3-1.2.1q-1.1 0-2-.4-1-.3-1.8-1-.7-.8-1.1-2-.5-1-.5-2.5 0-1 .4-2t1-1.8q.7-.7 1.7-1.1 1-.5 2.2-.5 1 0 2 .4.8.3 1.4 1 .6.6 1 1.5.4 1 .4 2.1 0 .6-.2.8 0 .2-.5.2zm12 2.3q.4.6 1 .8l1 .2q.7 0 1.2-.2t.8-.7l.5-1.2q.2-.7.2-1.6 0-1-.2-1.6-.1-.7-.4-1.1-.3-.4-.7-.6-.4-.2-1-.2-.8 0-1.3.3-.6.4-1.1 1zm-.2-6.6q.7-.8 1.6-1.2.8-.5 2-.5.9 0 1.6.4.7.4 1.3 1 .5.8.8 1.8.3 1 .3 2.4 0 1.2-.3 2.3-.4 1-1 1.8-.6.7-1.5 1.2-.8.4-1.9.4-1 0-1.6-.3-.6-.3-1.1-.8v4.5h-2.7v-14.5h1.6q.6 0 .7.5zm13.2 9.6q-1.5 0-2.2-.8-.8-.8-.8-2.2V286h-1.1l-.4-.2-.1-.4v-1l1.7-.3.6-3q0-.2.2-.3l.4-.1h1.3v3.4h3v1.9h-3v6q0 .4.3.7.2.3.7.3h.4l.3-.2.2-.1h.4l.1.2.8 1.3-1.3.7q-.7.2-1.5.2z" aria-label="Accept" fill="#000" stroke-width="1.6"/><path d="M212.9 287q.8 0 1.4-.2.6-.2 1-.6.4-.4.5-.8.2-.5.2-1.1 0-1.2-.7-1.8-.8-.7-2.4-.7h-1.8v5.2zm7.3 8h-2.6q-.7 0-1-.5l-3.3-5-.4-.4H211.1v6h-2.9v-15.5h4.7q1.6 0 2.7.4 1.1.3 1.8.9.8.5 1.1 1.4.3.8.3 1.8l-.2 1.4q-.2.7-.7 1.3-.4.6-1 1l-1.5.7.6.3.4.6zm7.6-6.7-.1-1-.4-.7q-.3-.4-.8-.6-.4-.2-1-.2-1.1 0-1.8.7-.7.6-.8 1.8zm-5 1.6q0 .9.3 1.5.2.6.6 1 .4.4 1 .6.5.2 1.1.2t1.1-.2l.8-.3.6-.3.5-.2q.4 0 .5.3l.8 1-1 .8-1.1.5-1.2.3-1.2.1q-1.2 0-2.1-.4-1-.3-1.8-1-.7-.8-1.1-2-.4-1-.4-2.5 0-1 .3-2 .4-1 1-1.8.8-.7 1.7-1.1 1-.5 2.2-.5 1 0 2 .4.8.3 1.5 1 .6.6 1 1.5.3 1 .3 2.1l-.1.8q-.2.2-.5.2zm12.1-5.8v11.3l-.2 1.4q-.2.6-.6 1-.4.5-1 .8-.7.3-1.7.3h-.7l-.6-.2v-1.4q0-.2.2-.3h.6l.6-.1.5-.3.2-.5v-12zm.4-3.2q0 .4-.2.7l-.3.5-.6.3-.6.2q-.4 0-.7-.2l-.5-.3-.4-.5-.1-.7.1-.6.4-.6.5-.3q.3-.2.7-.2l.6.2.6.3.3.6.2.6zm9.3 7.4-.1-1q-.1-.4-.4-.7-.3-.4-.8-.6-.4-.2-1-.2-1.1 0-1.8.7-.6.6-.8 1.8zm-5 1.6q0 .9.3 1.5l.6 1q.4.4 1 .6.5.2 1.1.2.7 0 1.1-.2l.8-.3.6-.3.5-.2q.4 0 .5.3l.8 1-1 .8-1.1.5-1.2.3-1.2.1q-1.2 0-2.1-.4-1-.3-1.7-1-.8-.8-1.2-2-.4-1-.4-2.5 0-1 .4-2 .3-1 1-1.8.7-.7 1.6-1.1 1-.5 2.3-.5 1 0 1.9.4.8.3 1.5 1 .6.6 1 1.5.3 1 .3 2.1l-.1.8q-.1.2-.5.2zm17.2-3.5q0 .2-.2.3h-.7l-.5-.4-.6-.2q-.4-.2-1-.2t-1.1.3q-.6.2-1 .7-.3.5-.4 1.2-.2.6-.2 1.5 0 .8.2 1.5l.5 1.2.9.7q.5.2 1.1.2l1-.1.7-.4.4-.3q.2-.2.5-.2t.5.3l.7 1-1 .8-1 .5-1.1.3-1.2.1q-1 0-1.9-.4-.9-.3-1.5-1-.7-.8-1.1-1.8-.4-1.1-.4-2.4 0-1.2.3-2.3.4-1 1-1.8.7-.7 1.7-1.1 1-.5 2.3-.5 1.2 0 2.2.4.9.4 1.6 1.2zm6.1 8.8q-1.4 0-2.2-.8-.7-.8-.7-2.2V286h-1.2q-.2 0-.3-.2-.2-.1-.2-.4v-1l1.8-.3.5-3 .2-.3.4-.1h1.4v3.4h3v1.9h-3v6q0 .4.2.7.3.3.7.3h.4l.3-.2.3-.1H264.8l.2.2.8 1.3-1.3.7-1.6.2z" aria-label="Reject" fill="#000" stroke-width="1.6"/></svg>