<svg xmlns="http://www.w3.org/2000/svg" xml:space="preserve" fill="none" viewBox="0 0 348 348"><path fill="#fff" d="M57.72 49.36V84.7h142.42V48.94Z"/><path fill="#000" d="m102.69 293.83.2 22.17 12.13 2.51H229l11.9-2.93v-21.45l-9.75-2.8H113.5Z"/><path stroke="#000" stroke-width="2" d="M5.08 5.78h336.91v337.67H5.08z"/><path stroke="#000" stroke-width="2" d="M282.73 40.55c0-8.37 6.97-15.16 15.56-15.16 4.13 0 8.09 1.6 11 4.44a14.97 14.97 0 0 1 4.56 10.72c0 8.38-6.96 15.17-15.56 15.17-8.59 0-15.56-6.8-15.56-15.17z"/><path fill="#000" d="m274.38 304.3-15.58 19.07 38.33-19.34-38.43-18.5zM84.9 285.57 69.65 304.3l15.84 18.93-38-18.82Z"/><path stroke="#000" stroke-width=".38" d="m113.46 186.23.15 16.16 6.33-.73 10.61-.63.05-14.17h-5.75z"/><path stroke="#000" stroke-width=".38" d="m119.94 201.66-.26 4.39.62.37 1.36-.58.05-4.29zm13.62-6.46h7v9.93h-7.03zm4.86 0v9.93z"/><path stroke="#000" stroke-width="3.78" d="M284.32 271.77V113.14H59.86V271.8z"/><path stroke="#000" stroke-width="3.78" d="M295.17 283.93V101H48.8v183z"/><path stroke="#000" stroke-width=".38" d="m284.32 143.37-21.76 3.55v105.71l21.76 4.6z"/><path stroke="#000" stroke-width=".38" d="m284.32 140.62-25.1 4.41-.63 106.98 3.97.62 21.76 4.6zm-85.86 8.08v42.5l17.89-.14-.15-45.77zm40.87 35.4s-1.47 1.87-2.15 3.7c-.67 1.83 1.26 4.13 1.26 4.13h4.05s1.44-1.43.97-3.4a36.2 36.2 0 0 0-1.47-4.39zM239.9 182.57v1.53l.76.02v-1.57z"/><path stroke="#000" stroke-width=".38" d="m239.9 182.57-4.55.76-.02-1.51 2.64-6.54 4.97-.18 2.24 4.39.81 3.3-5.33-.24zm-7.97 70.64 18.04 4.7v-65.06h1.65v-1.42h-22.66v1.55h1.43v2.8l-44.2-.58.07-2.3-2.74-.43-11.43-.14-.1 2.35-.65 29.21.96.3 7.91-6.8-.33-2.61 2.79-3.1.81-4.7h5.42l.44.7h10.2l.63.67 6.35-.1.29 1.2 20.04.5 3.8-.14v20.59l2.48 2.47 1.8 1.04.57 2.33.67.39-.35 1.34-2.25 3.9-1.47-.64 3.55 5.84-3.48 3.14z"/><path stroke="#000" stroke-width=".38" d="m171.34 223.9-1.9-.6-.9.3-.51.77-.85-.1-2.03 2.73-1.93-.08-4.8 4.07-13.12 6.09-2.54 2.8-.55 3.08-.63.5-.13 3.32-6.84 12.82 10.24.6.37-.85h5.21l8.43 2.5 3.73 2.08 17.57 5.47 3.47 1.3 5.92 1.08h44.05l-3.24-4.72.63-8.2 1.55-2.7-.61-2.95.24-3 3.48-3.14-3.55-5.84 1.47.63 2.25-3.89.35-1.34-.67-.4-.57-2.32-1.8-1.04-2.47-2.47v-20.6l-23.85-.35-.29-1.2s-6.04.44-6.35.1l-.63-.67h-10.2l-.44-.7h-5.42l-.81 4.7-2.8 3.1.34 2.6-7.91 6.8zm-61.02-25.35 2.36-.02.13 9.39-2.45-.04zm23.02-.21h-1.69l-.18 6.8h2.06z"/><path stroke="#000" stroke-width=".38" d="m66.8 213.66 6.6 2.09-6.76.94.13 31.81 13.88 10.43 33.59-14.09v-1.4l.94-.43.05-16.52 19.98-5.7.1 5.55 14.48 3.55.63-25.36-9.67-.89-.19 1.5h-9.1l-.19-1.15-9.6 1.18v.67l-1.37.58-.62-.37.03-.52-6.92.47.02 1.92-2.45-.04v-1.39l-43.67 4.83z"/><path stroke="#000" stroke-width=".38" d="m108.23 213.1 6.69 1.73.05 1.99 20.24-4.13.05-1.25-3.99-.16-.48-2.2zm70-27.07s-1.83 1.84-1.7 4.1c.14 2.25 1.27 2.27 1.27 2.27l1.95.02s1.23-.96 1.26-2.84c.02-1.88-1.65-3.48-1.65-3.48z"/><path stroke="#000" stroke-width=".38" d="M178.23 186.03v-.86h1.1v.93z"/><path stroke="#000" stroke-width=".38" d="M178.23 185.17h-2.88l.1-1.8 1.4-4.08h4.03l1.12 4.38v1.57z"/></svg>