<svg xmlns="http://www.w3.org/2000/svg" width="338.913" height="339.67" fill="none"><path stroke="#000" stroke-width="2" d="M1 1h336.913v337.67H1.001Z"/><path d="M20.246 15.886h298.535v73.861H20.246Z" style="fill:#000;stroke:#fff;stroke-width:1.80882"/><path d="M49.328 89.74h235.081v235.081H49.328Z" style="fill:#000;stroke:#fff;stroke-width:2.1754"/><path d="M76.103 123.842h44.772v45.179H76.103Zm64.106 0h44.772v45.179h-44.772zm63.087 0h44.772v45.179h-44.772ZM76.103 187.133h44.772v45.179H76.103Zm64.106 0h44.772v45.179h-44.772zm63.087 0h44.772v45.179h-44.772ZM76.103 250.22h44.772v45.179H76.103Zm64.106 0h44.772v45.179h-44.772zm63.087 0h44.772v45.179h-44.772z" style="fill:#000;stroke:#fff;stroke-width:2"/></svg>