<svg xmlns="http://www.w3.org/2000/svg" fill="none" stroke-linecap="square" stroke-miterlimit="10" width="338.91" height="339.67"><path d="M18.719 75.1H269.08v254.634H18.719z" stroke-linecap="butt" stroke-width="2.1" stroke="#000" fill-rule="evenodd" fill="#fff"/><path d="M87.562 117.477H83.44l-2.852-8.105H68.01l-2.851 8.105h-3.926L71.82 88.395h5.156zm-8.164-11.426L74.3 91.774l-5.117 14.277z" aria-label="A" font-weight="400" font-size="40" font-family="sans-serif" letter-spacing="0" word-spacing="0" fill="#000"/><path d="M226.566 108.532q0 2.168-.82 3.828-.82 1.66-2.208 2.734-1.64 1.29-3.613 1.836-1.953.547-4.98.547h-10.313V88.395h8.614q3.183 0 4.765.234 1.582.235 3.027.977 1.602.84 2.325 2.168.722 1.308.722 3.144 0 2.07-1.054 3.536-1.055 1.445-2.813 2.324v.156q2.95.606 4.649 2.598 1.699 1.972 1.699 5zm-6.504-13.106q0-1.054-.352-1.777-.351-.723-1.132-1.172-.918-.527-2.227-.645-1.31-.136-3.242-.136h-4.61v8.398h5q1.817 0 2.89-.176 1.075-.195 1.993-.78.918-.587 1.29-1.505.39-.937.39-2.207zm2.48 13.262q0-1.758-.527-2.793-.527-1.035-1.914-1.758-.938-.488-2.285-.625-1.328-.156-3.242-.156h-6.075v10.82h5.118q2.539 0 4.16-.254 1.62-.273 2.656-.976 1.094-.762 1.602-1.74.507-.975.507-2.52z" aria-label="B" font-weight="400" font-size="40" font-family="sans-serif" letter-spacing="0" word-spacing="0" fill="#000"/><path d="M82.405 312.367q-1.074.47-1.953.88-.86.41-2.266.859-1.191.37-2.597.625-1.387.273-3.067.273-3.164 0-5.761-.88-2.578-.897-4.493-2.792-1.875-1.855-2.93-4.707-1.054-2.87-1.054-6.66 0-3.593 1.016-6.425 1.015-2.833 2.93-4.786 1.855-1.894 4.472-2.89 2.637-.996 5.84-.996 2.344 0 4.668.566 2.344.566 5.195 1.992v4.59h-.293q-2.402-2.012-4.765-2.93-2.364-.918-5.059-.918-2.207 0-3.984.723-1.758.703-3.145 2.207-1.348 1.465-2.11 3.71-.741 2.228-.741 5.157 0 3.067.82 5.274.84 2.207 2.148 3.593 1.367 1.446 3.184 2.149 1.836.683 3.867.683 2.793 0 5.234-.957 2.442-.957 4.57-2.87h.274z" aria-label="C" font-weight="400" font-size="40" font-family="sans-serif" letter-spacing="0" word-spacing="0" fill="#000"/><path d="M229.515 299.965q0 3.965-1.739 7.188-1.718 3.222-4.59 5-1.992 1.23-4.453 1.777-2.441.547-6.445.547h-7.344v-29.082h7.266q4.258 0 6.758.625 2.52.605 4.258 1.68 2.968 1.855 4.628 4.94 1.66 3.087 1.66 7.325zm-4.043-.058q0-3.418-1.192-5.762-1.191-2.344-3.554-3.691-1.72-.977-3.653-1.348-1.933-.39-4.629-.39h-3.633v22.44h3.633q2.793 0 4.864-.41 2.09-.41 3.828-1.523 2.168-1.387 3.242-3.652 1.094-2.266 1.094-5.664z" aria-label="D" font-weight="400" font-size="40" font-family="sans-serif" letter-spacing="0" word-spacing="0" fill="#000" style="line-height:125%"/><path d="M109.148 75.103h9v32h-9z" fill="#fff" stroke="#000" stroke-width="2.1"/><circle cx="113.648" cy="110.381" fill="#fff" stroke="#000" stroke-width="2.496" r="9.802"/><path d="M242.66 51.565h-3.137l-6.08-7.226h-3.404v7.226h-2.417V33.389h5.09q1.648 0 2.747.22 1.098.207 1.977.756.989.623 1.538 1.575.562.94.562 2.393 0 1.965-.99 3.296-.988 1.318-2.721 1.99zm-5.651-13.061q0-.782-.281-1.38-.27-.61-.903-1.025-.525-.354-1.245-.488-.72-.147-1.697-.147h-2.844v6.86h2.44q1.148 0 2.003-.195.854-.207 1.453-.757.549-.512.805-1.172.269-.671.269-1.696zm-12.146 13.06h-2.576l-1.782-5.065h-7.861l-1.783 5.066h-2.453l6.616-18.176h3.223zm-5.103-7.14l-3.186-8.923-3.198 8.923zm-13.073 7.14H194.71V33.39h11.976v2.148h-9.56v4.98h9.56v2.15h-9.56v6.75h9.56zm-14.393 0h-11.5V33.39h2.418v16.028h9.082zm-14.941-1.317q-.671.293-1.22.55-.538.255-1.417.536-.744.232-1.623.39-.867.172-1.917.172-1.977 0-3.6-.55-1.612-.561-2.808-1.745-1.172-1.16-1.831-2.942-.66-1.795-.66-4.163 0-2.246.635-4.016t1.83-2.99q1.16-1.185 2.797-1.807 1.648-.623 3.65-.623 1.464 0 2.917.354 1.465.354 3.247 1.245v2.869h-.183q-1.502-1.257-2.98-1.831-1.476-.574-3.16-.574-1.38 0-2.49.452-1.1.44-1.966 1.38-.842.915-1.318 2.319-.464 1.39-.464 3.222 0 1.917.513 3.296.525 1.38 1.342 2.246.855.904 1.99 1.343 1.148.427 2.417.427 1.746 0 3.272-.598 1.526-.598 2.856-1.794h.17z" font-size="25" aria-label="CLEAR" font-weight="400" font-family="sans-serif" letter-spacing="0" word-spacing="0" fill="#000"/><path d="M127.084 51.565h-3.137l-7.19-8.093-1.807 1.929v6.164h-2.417V33.389h2.417v9.485l8.826-9.485h2.93l-8.118 8.545zm-18.055-1.318q-.672.293-1.221.55-.537.255-1.416.536-.745.232-1.624.39-.866.172-1.916.172-1.978 0-3.601-.55-1.612-.561-2.808-1.745-1.172-1.16-1.831-2.942-.66-1.795-.66-4.163 0-2.246.636-4.016.634-1.77 1.83-2.99 1.16-1.185 2.796-1.807 1.648-.623 3.65-.623 1.465 0 2.917.354 1.465.354 3.248 1.245v2.869h-.184q-1.501-1.257-2.978-1.831-1.477-.574-3.162-.574-1.38 0-2.49.452-1.1.44-1.965 1.38-.843.915-1.32 2.319-.461 1.39-.461 3.222 0 1.917.512 3.296.525 1.38 1.343 2.246.854.904 1.99 1.343 1.147.427 2.417.427 1.745 0 3.27-.598 1.527-.598 2.858-1.794h.17zm-17.884 1.318H79.17V33.389h11.975v2.148h-9.557v4.98h9.558v2.15h-9.558v6.75h9.558zm-16.87 0h-2.416v-8.898h-9.07v8.9h-2.417v-18.18h2.417v7.13h9.07v-7.13h2.417zM56.93 50.247q-.671.293-1.22.55-.538.255-1.417.536-.744.232-1.623.39-.867.172-1.917.172-1.977 0-3.6-.55-1.612-.561-2.81-1.745-1.17-1.16-1.83-2.942-.66-1.795-.66-4.163 0-2.246.636-4.016.635-1.77 1.83-2.99 1.16-1.185 2.796-1.807 1.648-.623 3.65-.623 1.465 0 2.918.354 1.465.354 3.247 1.245v2.869h-.183q-1.502-1.257-2.98-1.831-1.476-.574-3.16-.574-1.38 0-2.49.452-1.1.44-1.966 1.38-.842.915-1.318 2.319-.464 1.39-.464 3.222 0 1.917.513 3.296.524 1.38 1.342 2.246.855.904 1.99 1.343 1.148.427 2.417.427 1.746 0 3.272-.598 1.525-.598 2.856-1.794h.17z" font-size="25" aria-label="CHECK" font-weight="400" font-family="sans-serif" letter-spacing="0" word-spacing="0" fill="#000"/><path d="M35.469 18.477h98v48h-98zM154.33 18.477h98v48h-98z" stroke-width="2.1" stroke="#000"/><g stroke-width="2" stroke="#000"><path d="M1 1h336.91v337.67H1z"/><path d="M278.654 35.778c0-8.376 6.966-15.165 15.56-15.165 4.126 0 8.084 1.594 11 4.44 2.92 2.842 4.56 6.7 4.56 10.722 0 8.376-6.967 15.165-15.56 15.165-8.594 0-15.56-6.79-15.56-15.166z"/></g><path d="M169.647 75.103h9v32h-9z" fill="#fff" stroke="#000" stroke-width="2.1"/><circle cx="174.147" cy="110.381" fill="#fff" stroke="#000" stroke-width="2.496" r="9.802"/><path d="M109.148 329.731h9v-32h-9z" fill="#fff" stroke="#000" stroke-width="2.1"/><circle cx="113.648" cy="-293.453" fill="#fff" stroke="#000" stroke-width="2.496" transform="scale(1 -1)" r="9.802"/><g fill="#fff" stroke="#000"><path d="M169.647 329.731h9v-32h-9z" stroke-width="2.1"/><circle cx="174.147" cy="-293.453" stroke-width="2.496" transform="scale(1 -1)" r="9.802"/></g><g transform="rotate(90 271.03 271.36)" fill="#fff" stroke="#000"><path d="M169.647 329.731h9v-32h-9z" stroke-width="2.1"/><circle cx="174.147" cy="-293.453" stroke-width="2.496" transform="scale(1 -1)" r="9.802"/></g><g transform="matrix(0 1 1 0 -254.59 .33)" fill="#fff" stroke="#000"><path d="M169.647 329.731h9v-32h-9z" stroke-width="2.1"/><circle cx="174.147" cy="-293.453" stroke-width="2.496" transform="scale(1 -1)" r="9.802"/></g><path fill="#fff" stroke="#000" stroke-width="2.1" d="M64.4 149.477h159v50h-159z"/><path fill="#000" stroke="#000" stroke-width="2.1" d="M84.471 150.477h13v48h-13zM137.4 150.477h13v48h-13zM190.328 150.477h13v48h-13zM110.935 150.477h13v48h-13z"/><g transform="rotate(90 238.665 303.724)" fill="#fff" stroke="#000"><path d="M169.647 329.731h9v-32h-9z" stroke-width="2.1"/><circle cx="174.147" cy="-293.453" stroke-width="2.496" transform="scale(1 -1)" r="9.802"/></g><g transform="matrix(0 1 1 0 -254.59 65.059)" fill="#fff" stroke="#000"><path d="M169.647 329.731h9v-32h-9z" stroke-width="2.1"/><circle cx="174.147" cy="-293.453" stroke-width="2.496" transform="scale(1 -1)" r="9.802"/></g><path fill="#fff" stroke="#000" stroke-width="2.1" d="M64.4 214.206h159v50h-159z"/><path fill="#000" stroke="#000" stroke-width="2.1" d="M84.471 215.206h13v48h-13zM137.4 215.206h13v48h-13zM190.328 215.206h13v48h-13zM163.864 215.206h13v48h-13z"/></svg>