<svg xmlns="http://www.w3.org/2000/svg" fill="none" viewBox="0 0 348 348"><path stroke="#000" stroke-width="2" d="M5 5.8h337v337.6H5z"/><path stroke="#000" stroke-width="2" d="M282.7 40.6c0-8.4 7-15.2 15.6-15.2 4.1 0 8 1.6 11 4.4a15 15 0 014.6 10.8c0 8.3-7 15.1-15.6 15.1s-15.6-6.8-15.6-15.1z"/><path fill="#000" d="M91.6 53.3V21.2H261v64.3H91.6V53.3z"/><path fill="#fff" d="M107.4 51.2h19V57h-19v-5.8zM137.8 65h7.5v9h-7.5v-9zm23.1 0h7.4v9H161v-9zm23.1 0h7.4v9H184v-9zm23 0h7.5v9H207v-9zm18.9-13.8h19V57h-19v-5.8z"/><path fill="#323432" stroke="#000" stroke-miterlimit="10" stroke-width="2.2" d="M80.2 200.5v-22.7h194.4v45.4H80.2v-22.7z"/><ellipse cx="-206.5" cy="228.1" fill="#fff" rx="35.5" ry="32.3"/><circle cx="-359.7" cy="177" r="22.9" fill="#fff"/><circle cx="173.1" cy="279.2" r="25.7" fill="#323432" stroke="#000" stroke-miterlimit="10" stroke-width="2"/><path fill="#000" d="M23.8 283.2v-41h87.1v82H23.8v-41z"/><path fill="#fff" d="M72 278h-8.6l-2.4 9.8h8.5L72 278zm-4.4-16.7l-3.1 12.2h8.6l3-12.2h4.7l-3 12.2H87v4.5H76.7l-2.4 9.8h9.3v4.4H73l-3 12.2h-4.7l3-12.2h-8.6l-3 12.2H52l3-12.2h-9v-4.4h10.3l2.5-9.8h-9.5v-4.5h10.6l3-12.2h4.8z"/><path fill="#000" d="M237.5 283.2v-41h87.2v82h-87.2v-41z"/><path fill="#fff" d="M287.8 279h-8.5l-2.5 9.8h8.6l2.4-9.8zm-4.4-16.7l-3 12.2h8.5l3-12.2h4.8l-3 12.2h9v4.5h-10.2l-2.4 9.8h9.3v4.5H289l-3 12.1h-4.8l3-12.1h-8.5l-3 12.1h-4.8l3-12.1h-9.2v-4.5H272l2.5-9.8h-9.4v-4.5h10.6l3-12.2h4.7z"/><path fill="#787a78" stroke="#000" stroke-miterlimit="10" d="M46.2 135.8v-16h55.9v32H46.2v-16z"/><path fill="#fff" d="M60.4 127.2v18.7h5.3l2-.1c.6 0 1.2-.2 1.9-.5 1-.4 1.8-1 2.3-1.9a5 5 0 00-2.7-7.6 4.5 4.5 0 002.8-4c0-1-.3-1.7-.7-2.4a4.5 4.5 0 00-2-1.7 6 6 0 00-1.8-.4l-1.7-.1zm2.1 1.8h4.2l1.3.3c.6.3 1 .6 1.4 1.1a2.7 2.7 0 010 3 3 3 0 01-1.4 1.1l-1.3.4h-4.2zm0 7.7H67l1.4.4a3.7 3.7 0 011.6 5.3c-.4.5-.9 1-1.5 1.3a4 4 0 01-1.2.3h-4.8zm14.5-4.5v13.7h2v-6.7c0-.4 0-.8.2-1.3 0-.5.4-1.2.8-1.9a5 5 0 012-1.9c.7-.3 1.4-.4 1.9-.4s1 .1 1.4.3a2.6 2.6 0 011 1l.3.4 1-2c-.4-.5-1-.9-1.5-1.1-.7-.3-1.3-.4-2.1-.5-1 0-2 .3-2.9.8a5 5 0 00-2 2.2v-2.6z"/><path fill="#787a78" stroke="#000" stroke-miterlimit="10" d="M146.3 135.8v-16h55.9v32h-55.9v-16z"/><path fill="#fff" d="M159 127.2v1.8h5.3v17h2.1v-17h5.5v-1.8zm25 5l-3.5 5-3.6-5h-2.3l4.7 6.7-4.8 7h2.4l3.6-5.4 3.8 5.4h2.4l-5-7 4.4-6.7z"/><path fill="#242725" stroke="#000" stroke-miterlimit="10" d="M253.7 135.8v-16h55.9v32h-55.9v-16z"/><path fill="#fff" d="M269.2 126.1v18.7h2.1v-8.2h3.6l4.2 8.2h2.4l-4.4-8.3a5.4 5.4 0 003.8-5.2 5 5 0 00-2.6-4.5 7.4 7.4 0 00-3.6-.7h-5.5zm2.1 2h3.4c.8 0 1.5 0 2.3.4 1.2.6 1.8 1.8 1.8 3a3 3 0 01-1.7 2.9c-.7.3-1.4.4-2.2.4h-3.6V128zm24.2 4.9a6.8 6.8 0 00-5.1-2.2c-3.2 0-5.3 1.8-5.3 3.8 0 2.4 2.6 3.3 3.3 3.6l3.7 1.2c1.2.6 1.4 1.3 1.4 1.8 0 1.3-1.6 2.1-3.5 2.1a6 6 0 01-4.3-1.9l-.1-.3-.1-.3-1.3 2.2a8.5 8.5 0 005.8 2.2c3.8 0 5.7-2.3 5.7-4.3 0-1-.4-2.2-2-3.1-1.5-.9-3.8-1.2-5-1.8-1.2-.6-1.4-1.2-1.4-1.7 0-1 1.4-1.9 2.9-1.9 2 0 3.3 1.2 3.8 2v.2c0 .2.2.2.2.2l1.3-1.8z"/><circle cx="131.9" cy="32.6" r="7.1" fill="#fff" stroke="#000" stroke-miterlimit="10" stroke-width=".6"/><circle cx="149.9" cy="32.6" r="7.1" fill="#fff" stroke="#000" stroke-miterlimit="10" stroke-width=".6"/><circle cx="167.9" cy="32.6" r="7.1" fill="#fff" stroke="#000" stroke-miterlimit="10" stroke-width=".6"/><circle cx="185.2" cy="32.6" r="7.1" fill="#1c1d1c" stroke="#000" stroke-miterlimit="10" stroke-width=".6"/><circle cx="201.8" cy="32.6" r="7.1" fill="#1c1d1c" stroke="#000" stroke-miterlimit="10" stroke-width=".6"/><circle cx="217.8" cy="32.6" r="7.1" fill="#1c1d1c" stroke="#000" stroke-miterlimit="10" stroke-width=".6"/></svg>