<svg xmlns="http://www.w3.org/2000/svg" xml:space="preserve" fill="none" viewBox="0 0 348 348">
  <path stroke="#000" stroke-width="2" d="M5 5.8h337v337.7H5z"/>
  <ellipse cx="298.3" cy="40.5" stroke="#000" stroke-width="2" rx="15.9" ry="15.5"/>
  <rect width="205" height="205.4" x="38.3" y="-243.7" stroke="#000" stroke-width="2" rx="9.1" ry=".4" transform="scale(1 -1)"/>
  <path stroke="#000" stroke-width="2" d="m73.2 38.3-.6 205.2m34.9-205.1-.6 205m34.4-.1.2-204.8m34 204.7L175 38.7m34.8 204.5L209 38.5M38.3 72l204.8.2m0 34.3H38.6m-.2 34H243m.2 34.2H38.4m.2 34.4 204.4.1"/>
  <rect width="206.4" height="41.4" x="38.4" y="-297.1" stroke="#000" stroke-width="2" rx="1" ry=".4" transform="scale(1 -1)"/>
  <rect width="53.1" height="53.8" x="259.6" y="247.6" stroke="#000" stroke-width="2" rx="11.1" ry=".4"/>
  <path stroke="#000" stroke-width="2" d="m203.5 256 .2 40.6m-41.4 0V256m-41.4 0v40.6m-41.5 0V256"/>
  <rect width="77.8" height="78.9" x="250.2" y="128.6" fill="#000" stroke="#000" stroke-width="2" rx="16.3" ry=".6"/>
</svg>
