<svg viewBox="0 0 348 348" xmlns="http://www.w3.org/2000/svg"><defs><pattern id="pattern-0" width="20" height="20" patternUnits="userSpaceOnUse" viewBox="0 0 100 100"><path d="M0 0h50v100H0z"/></pattern><style id="bx-google-fonts">@import url(https://fonts.googleapis.com/css?family=Source+Serif+Pro:400,600,700);</style></defs><path fill-opacity="0" d="M0 0h348v348H0z"/><path fill="#fff" d="M-6 0h348v347.969H-6z"/><path fill-opacity="0" d="M5.079 5.776h336.913v337.669H5.079z" stroke="#000" stroke-linejoin="round"/><path stroke="#000" stroke-width="2" stroke-linejoin="round" d="M5.079 5.776h336.913v337.669H5.079z" fill="#fff"/><path fill="#fff" d="M282.734 40.554c0-8.376 6.966-15.165 15.559-15.165 4.127 0 8.085 1.597 11.002 4.441 2.918 2.844 4.558 6.702 4.558 10.724 0 8.376-6.966 15.165-15.56 15.165-8.593 0-15.559-6.789-15.559-15.165z"/><path stroke="#000" stroke-width="2" stroke-linejoin="round" d="M282.734 40.554c0-8.376 6.966-15.165 15.559-15.165 4.127 0 8.085 1.597 11.002 4.441 2.918 2.844 4.558 6.702 4.558 10.724 0 8.376-6.966 15.165-15.56 15.165-8.593 0-15.559-6.789-15.559-15.165z" fill="#fff"/><path fill-opacity="0" d="M38.37 95.737h107.213v100.189H38.37z"/><path stroke="#000" stroke-linejoin="round" d="M38.37 95.737h107.213v100.189H38.37z" fill="#fff"/><path fill-opacity="0" d="M152.48 95.737h107.213v100.189H152.48z"/><path stroke="#000" stroke-linejoin="round" d="M152.48 95.737h107.213v100.189H152.48z" fill="#fff"/><path fill-opacity="0" d="M38.37 206.521h107.213V306.71H38.37z"/><path stroke="#000" stroke-linejoin="round" d="M38.37 206.521h107.213V306.71H38.37z" fill="#fff"/><path fill-opacity="0" d="M152.48 206.521h107.213V306.71H152.48z"/><path stroke="#000" stroke-linejoin="round" d="M152.48 206.521h107.213V306.71H152.48z" fill="#fff"/><path stroke="#000" stroke-width="2" stroke-linejoin="round" d="M46.273 42.05c0-13.893 11.554-25.153 25.806-25.153 6.845 0 13.41 2.649 18.248 7.366 4.84 4.717 7.56 11.116 7.56 17.787 0 13.892-11.554 25.152-25.808 25.152-14.252 0-25.806-11.26-25.806-25.152z" fill="#fff"/><text x="76.43" y="170.735" font-family="Source Serif Pro" font-size="72" stroke="#000" stroke-linejoin="round">♩</text><text x="186.021" y="172.086" font-family="Source Serif Pro" font-size="72" stroke="#000" stroke-linejoin="round">♪</text><text x="61.715" y="281.181" font-family="Source Serif Pro" font-size="72" stroke="#000" stroke-linejoin="round">♫</text><text x="172.757" y="283.483" font-family="Source Serif Pro" font-size="72" stroke="#000" stroke-linejoin="round">♬</text></svg>