<svg xmlns="http://www.w3.org/2000/svg" xmlns:xlink="http://www.w3.org/1999/xlink" xml:space="preserve" fill="none" viewBox="0 0 348 348"><defs><linearGradient id="a"><stop offset="0" stop-color="#d9d9d9"/><stop offset=".25" stop-color="#fff"/><stop offset=".5" stop-color="#d9d9d9"/><stop offset=".75" stop-color="#999"/><stop offset="1" stop-color="#d9d9d9"/></linearGradient><linearGradient xlink:href="#a" id="c" x1="100.12038" x2="100.12038" y1="103.49213" y2="151.27765" gradientUnits="userSpaceOnUse"/><clipPath id="b" clipPathUnits="userSpaceOnUse"><rect width="306.20901" height="70.334999" x="-979.10498" y="91.782997" fill="#fff" fill-rule="evenodd" stroke-width="2" ry="4.3216367" style="font-variation-settings:normal;-inkscape-stroke:none"/></clipPath></defs><path stroke="#000" stroke-width="2" d="m 5.08,5.776 h 336.91 v 337.67 H 5.08 Z"/><path stroke="#000" stroke-width="2" d="M282.734 40.554c0-8.376 6.966-15.165 15.56-15.165 4.126 0 8.084 1.594 11 4.44 2.92 2.842 4.56 6.7 4.56 10.722 0 8.376-6.967 15.165-15.56 15.165-8.594 0-15.56-6.79-15.56-15.166z"/><rect width="225.2943" height="58.655285" x="16.895447" y="16.525055" fill="#1a1a1a" fill-rule="evenodd" ry="5.5563865" style="font-variation-settings:normal;-inkscape-stroke:none"/><rect width="314.20911" height="78.335472" x="16.895447" y="87.78347" fill="#1a1a1a" fill-rule="evenodd" ry="7.420681" style="font-variation-settings:normal;-inkscape-stroke:none"/><rect width="43.415421" height="43.415421" x="64.850586" y="173.00491" fill="#1a1a1a" fill-rule="evenodd" ry="11.521233" style="font-variation-settings:normal;-inkscape-stroke:none"/><rect width="43.415421" height="43.415421" x="-283.14941" y="173.00491" fill="#1a1a1a" fill-rule="evenodd" ry="11.521233" style="font-variation-settings:normal;-inkscape-stroke:none" transform="scale(-1 1)"/><rect width="43.415421" height="43.415421" x="-195.7077" y="173.00491" fill="#1a1a1a" fill-rule="evenodd" ry="11.521233" style="font-variation-settings:normal;-inkscape-stroke:none" transform="scale(-1 1)"/><rect width="314.20911" height="58.712917" x="16.895447" y="222.73859" fill="#1a1a1a" fill-rule="evenodd" ry="5.5618458" style="font-variation-settings:normal;-inkscape-stroke:none"/><rect width="38.744534" height="38.744534" x="21.524719" y="289.6329" stroke="#000" stroke-width="2" ry="0" style="-inkscape-stroke:none"/><path fill="#000" d="M49.531209 315.47599c1.272182 0 1.833439-1.34702.935428-2.24503l-4.078467-4.07847 4.078467-4.11588c.898011-.89801.336754-2.24503-.935428-2.24503h-.972845c-1.203384 0-5.607876 4.52423-6.473166 5.42548-.52384.52384-.52384 1.3096 0 1.87086 1.973306 1.9028 3.729811 4.17224 6.211244 5.38807zM38.770818 315.47599c1.272182 0 1.833439-1.34702.935428-2.24503l-4.078467-4.07847 4.078467-4.11588c.898011-.89801.336754-2.24503-.935428-2.24503h-.972845c-1.203384 0-5.607876 4.52423-6.473166 5.42548-.52384.52384-.52384 1.3096 0 1.87086 1.973306 1.9028 3.729811 4.17224 6.211244 5.38807z" aria-label="&lt;&lt;"/><rect width="38.744534" height="38.744534" x="-326.47522" y="289.6329" stroke="#000" stroke-width="2" ry="0" style="-inkscape-stroke:none" transform="scale(-1 1)"/><path fill="#000" d="M49.531209 315.47599c1.272182 0 1.833439-1.34702.935428-2.24503l-4.078467-4.07847 4.078467-4.11588c.898011-.89801.336754-2.24503-.935428-2.24503h-.972845c-1.203384 0-5.607876 4.52423-6.473166 5.42548-.52384.52384-.52384 1.3096 0 1.87086 1.973306 1.9028 3.729811 4.17224 6.211244 5.38807zM38.770818 315.47599c1.272182 0 1.833439-1.34702.935428-2.24503l-4.078467-4.07847 4.078467-4.11588c.898011-.89801.336754-2.24503-.935428-2.24503h-.972845c-1.203384 0-5.607876 4.52423-6.473166 5.42548-.52384.52384-.52384 1.3096 0 1.87086 1.973306 1.9028 3.729811 4.17224 6.211244 5.38807z" aria-label="&lt;&lt;" transform="matrix(-1 0 0 1 348 0)"/><rect width="38.744534" height="38.744534" x="-277.34558" y="289.6329" stroke="#000" stroke-width="2" ry="0" style="-inkscape-stroke:none" transform="scale(-1 1)"/><path fill="#000" d="m 255.79455,315.47599 c -1.27218,0 -1.83344,-1.34702 -0.93543,-2.24503 l 4.07847,-4.07847 -4.07847,-4.11588 c -0.89801,-0.89801 -0.33675,-2.24503 0.93543,-2.24503 h 0.97285 c 1.20338,0 5.60787,4.52423 6.47316,5.42548 0.52384,0.52384 0.52384,1.3096 0,1.87086 -1.9733,1.9028 -3.72981,4.17224 -6.21124,5.38807 z" aria-label="&lt;&lt;"/><rect width="38.744534" height="38.744534" x="70.654419" y="289.6329" stroke="#000" stroke-width="2" ry="0" style="-inkscape-stroke:none"/><path fill="#000" d="m 92.20545,315.47599 c 1.27218,0 1.83344,-1.34702 0.93543,-2.24503 l -4.07847,-4.07847 4.07847,-4.11588 c 0.89801,-0.89801 0.33675,-2.24503 -0.93543,-2.24503 H 91.2326 c -1.20338,0 -5.60787,4.52423 -6.47316,5.42548 -0.52384,0.52384 -0.52384,1.3096 0,1.87086 1.9733,1.9028 3.72981,4.17224 6.21124,5.38807 z" aria-label="&lt;&lt;"/><rect width="114.12823" height="38.744534" x="116.93591" y="289.6329" stroke="#000" stroke-width="1.99999" ry="0" style="-inkscape-stroke:none"/><path fill="#000" d="m 133.32817,314.25134 c 0,4.70279 2.20513,7.30677 6.1511,7.30677 5.27912,0 6.07654,-4.55471 6.07654,-7.30677 0.09,-1.04845 -0.35019,-1.54255 -1.30478,-1.86397 h -1.0811 c -1.11282,0.14097 -1.31942,0.90265 -1.34206,1.86397 0,1.34206 -0.1864,2.34861 -0.63375,2.94508 -0.33551,0.37279 -1.00654,0.67102 -1.71485,0.67102 -1.60302,0 -2.38588,-1.11838 -2.38588,-3.6161 v -10.55007 c 0,-2.49772 0.82014,-3.57882 2.38588,-3.57882 1.52845,0 2.3486,1.0811 2.3486,3.57882 -0.0922,1.06901 0.36992,1.54868 1.34206,1.86397 h 1.0811 c 1.09272,-0.15115 1.28261,-0.92062 1.30478,-1.86397 0,-2.54246 -0.72026,-7.26948 -6.07654,-7.26948 -3.49444,0 -6.1511,2.14064 -6.1511,7.26948 z m 14.76261,0 c 0,5.25454 2.71968,7.30677 6.11382,7.30677 2.98793,0 6.11382,-1.54059 6.11382,-7.30677 v -10.55007 c 0,-4.73448 -2.01309,-7.26948 -6.11382,-7.26948 -4.06346,0 -6.11382,2.57228 -6.11382,7.26948 z m 3.72794,-10.55007 c 0,-2.42316 0.74558,-3.57882 2.38588,-3.57882 1.60301,0 2.38588,1.0811 2.38588,3.57882 v 10.55007 c 0,2.535 -0.82015,3.6161 -2.38588,3.6161 -1.60302,0 -2.38588,-1.15566 -2.38588,-3.6161 z m 18.41602,17.85684 c 0.5592,0 1.15567,-0.48464 1.30478,-1.08111 l 1.23022,-8.27602 v 8.01507 c 0,0.74559 0.59647,1.34206 1.34206,1.34206 h 1.04383 c 0.74558,0 1.34205,-0.59647 1.34205,-1.34206 v -22.4422 c 0,-0.74559 -0.59647,-1.34206 -1.34205,-1.34206 h -1.11839 c -0.55919,0 -1.19294,0.48463 -1.30478,1.04382 l -2.90779,15.0236 -2.94507,-15.0236 c -0.11184,-0.55919 -0.70831,-1.04382 -1.2675,-1.04382 h -1.11838 c -0.74559,0 -1.34206,0.59647 -1.34206,1.34206 v 22.4422 c 0,0.74559 0.59647,1.34206 1.34206,1.34206 h 1.04382 c 0.70831,0 1.34206,-0.59647 1.34206,-1.34206 v -8.08963 l 1.2675,8.38786 c 0.11184,0.55919 0.70831,1.04383 1.2675,1.04383 z m 16.51481,0 c 0.55919,0 1.15566,-0.48464 1.30478,-1.08111 l 1.23022,-8.27602 v 8.01507 c 0,0.74559 0.59647,1.34206 1.34205,1.34206 h 1.04383 c 0.74559,0 1.34206,-0.59647 1.34206,-1.34206 v -22.4422 c 0,-0.74559 -0.59647,-1.34206 -1.34206,-1.34206 h -1.11838 c -0.55919,0 -1.19294,0.48463 -1.30478,1.04382 l -2.9078,15.0236 -2.94507,-15.0236 c -0.11184,-0.55919 -0.70831,-1.04382 -1.2675,-1.04382 h -1.11838 c -0.74559,0 -1.34206,0.59647 -1.34206,1.34206 v 22.4422 c 0,0.74559 0.59647,1.34206 1.34206,1.34206 h 1.04382 c 0.70831,0 1.34206,-0.59647 1.34206,-1.34206 v -8.08963 l 1.2675,8.38786 c 0.11184,0.55919 0.70831,1.04383 1.2675,1.04383 z m 13.08509,-23.78426 c 0,-0.74559 -0.63375,-1.34206 -1.34205,-1.34206 h -1.04383 c -0.74559,0 -1.34206,0.59647 -1.34206,1.34206 v 22.4422 c 0,0.74559 0.59647,1.34206 1.34206,1.34206 h 1.04383 c 0.7083,0 1.34205,-0.59647 1.34205,-1.34206 z m 2.38587,1.00654 c 0,0.74559 0.59647,1.34206 1.34206,1.34206 h 3.01963 v 20.05632 c 0,0.74559 0.59647,1.34206 1.34206,1.34206 h 1.00654 c 0.74559,0 1.34206,-0.59647 1.34206,-1.34206 v -20.05632 h 3.05691 c 0.74559,0 1.34206,-0.59647 1.34206,-1.34206 v -1.04382 c 0,-0.74559 -0.59647,-1.34206 -1.34206,-1.34206 h -9.7672 c -0.74559,0 -1.34206,0.59647 -1.34206,1.34206 z" aria-label="COMMIT"/><rect width="306.20901" height="70.334999" x="20.89502" y="91.782997" fill="#fff" fill-rule="evenodd" ry="4.3216367" style="font-variation-settings:normal;-inkscape-stroke:none"/><g fill-rule="evenodd" clip-path="url(#b)" paint-order="markers" transform="translate(1000)"><path fill="#ccc" d="m -1066.7185,71.107172 a 27.066071,27.066071 0 0 0 -27.0658,27.066211 27.066071,27.066071 0 0 0 10.7625,21.518647 21.433399,21.433399 0 0 0 -12.5915,19.51933 21.433399,21.433399 0 0 0 21.3183,21.42486 20.482429,20.482429 0 0 0 20.3781,19.02779 20.482429,20.482429 0 0 0 20.4824,-20.48249 20.482429,20.482429 0 0 0 -19.3237,-20.44621 21.433399,21.433399 0 0 0 -0.5663,-4.44636 10.899581,10.899581 0 0 0 10.6,-10.87834 10.899581,10.899581 0 0 0 -3.3098,-7.81853 27.066071,27.066071 0 0 0 6.382,-17.418697 27.066071,27.066071 0 0 0 -27.0662,-27.066211 z" transform="translate(100)"/><path fill="#f2f2f2" d="m -1068.8067,79.074861 a 19.50068,19.50068 0 0 0 -19.5003,19.500749 19.50068,19.50068 0 0 0 1.0388,6.16209 18.569614,18.569614 0 0 0 -11.1774,17.01123 18.569614,18.569614 0 0 0 7.3199,14.71592 18.569614,18.569614 0 0 0 -7.1129,14.56108 18.569614,18.569614 0 0 0 18.5695,18.56945 18.569614,18.569614 0 0 0 2.8222,-0.22785 18.569614,18.569614 0 0 0 17.5581,12.64228 18.569614,18.569614 0 0 0 18.5694,-18.56989 18.569614,18.569614 0 0 0 -18.5694,-18.56944 18.569614,18.569614 0 0 0 -0.5725,0.0407 14.845348,14.845348 0 0 0 1.5551,-6.55806 14.845348,14.845348 0 0 0 -4.1544,-10.29389 18.569614,18.569614 0 0 0 0.077,-0.20529 7.2933582,7.2933582 0 0 0 2.7847,0.56763 7.2933582,7.2933582 0 0 0 7.2933,-7.29337 7.2933582,7.2933582 0 0 0 -4.9476,-6.90359 19.50068,19.50068 0 0 0 7.9477,-15.649002 19.50068,19.50068 0 0 0 -19.5007,-19.50075 z" transform="translate(100)"/><g stroke-width=".999997"><path fill="#ccc" d="m -1066.7185,71.107172 a 27.066071,27.066071 0 0 0 -27.0658,27.066211 27.066071,27.066071 0 0 0 10.7625,21.518647 21.433399,21.433399 0 0 0 -12.5915,19.51933 21.433399,21.433399 0 0 0 21.3183,21.42486 20.482429,20.482429 0 0 0 20.3781,19.02779 20.482429,20.482429 0 0 0 20.4824,-20.48249 20.482429,20.482429 0 0 0 -19.3237,-20.44621 21.433399,21.433399 0 0 0 -0.5663,-4.44636 10.899581,10.899581 0 0 0 10.6,-10.87834 10.899581,10.899581 0 0 0 -3.3098,-7.81853 27.066071,27.066071 0 0 0 6.382,-17.418697 27.066071,27.066071 0 0 0 -27.0662,-27.066211 z" transform="rotate(180 -876.0005 126.95049)"/><path fill="#f2f2f2" d="m -1068.8067,79.074861 a 19.50068,19.50068 0 0 0 -19.5003,19.500749 19.50068,19.50068 0 0 0 1.0388,6.16209 18.569614,18.569614 0 0 0 -11.1774,17.01123 18.569614,18.569614 0 0 0 7.3199,14.71592 18.569614,18.569614 0 0 0 -7.1129,14.56108 18.569614,18.569614 0 0 0 18.5695,18.56945 18.569614,18.569614 0 0 0 2.8222,-0.22785 18.569614,18.569614 0 0 0 17.5581,12.64228 18.569614,18.569614 0 0 0 18.5694,-18.56989 18.569614,18.569614 0 0 0 -18.5694,-18.56944 18.569614,18.569614 0 0 0 -0.5725,0.0407 14.845348,14.845348 0 0 0 1.5551,-6.55806 14.845348,14.845348 0 0 0 -4.1544,-10.29389 18.569614,18.569614 0 0 0 0.077,-0.20529 7.2933582,7.2933582 0 0 0 2.7847,0.56763 7.2933582,7.2933582 0 0 0 7.2933,-7.29337 7.2933582,7.2933582 0 0 0 -4.9476,-6.90359 19.50068,19.50068 0 0 0 7.9477,-15.649002 19.50068,19.50068 0 0 0 -19.5007,-19.50075 z" transform="rotate(180 -876.0005 126.95049)"/></g></g><rect width="36.207134" height="36.207134" x="68.454712" y="176.60905" fill="#bfbfbf" fill-rule="evenodd" ry="7.4137945" style="font-variation-settings:normal;-inkscape-stroke:none"/><rect width="36.207134" height="36.207134" x="-279.54431" y="176.60905" fill="#bfbfbf" fill-rule="evenodd" ry="7.4137945" style="font-variation-settings:normal;-inkscape-stroke:none" transform="scale(-1 1)"/><rect width="36.207134" height="36.207134" x="-192.10309" y="176.60905" fill="#bfbfbf" fill-rule="evenodd" ry="7.4137945" style="font-variation-settings:normal;-inkscape-stroke:none" transform="scale(-1 1)"/><path fill="url(#c)" stroke="#1a1a1a" stroke-linejoin="round" stroke-width="7.5" d="m 79.04228,151.27765 h 30.83349 c 7.42051,0 11.25871,-2.81468 11.25871,-8.38006 v -7.8683 c 0,-3.96613 -1.47131,-6.26905 -4.73378,-7.67638 3.32644,-1.2794 4.73378,-3.64629 4.73378,-7.67639 v -7.74036 c 0,-5.9492 -3.64629,-8.44403 -11.13077,-8.44403 H 79.04228 v 13.30574 h 27.50706 v 4.92569 H 84.35178 v 11.32267 h 22.19756 v 4.92568 H 79.04228 Z" aria-label="3" paint-order="stroke markers"/><path fill="url(#c)" stroke="#1a1a1a" stroke-linejoin="round" stroke-width="7.5" d="m 234.79682,151.27765 h 17.59172 l 17.07997,-34.47978 v -13.30574 h -43.3716 v 13.30574 h 27.31515 z" aria-label="7" paint-order="stroke markers"/><path fill="url(#c)" stroke="#1a1a1a" stroke-linejoin="round" stroke-width="7.5" d="m 151.38616,138.22779 c 0,8.57197 3.90216,13.04986 11.57855,13.04986 h 22.06961 c 7.67639,0 11.57855,-4.47789 11.57855,-13.04986 v -21.87771 c 0,-8.95578 -3.64628,-12.85795 -11.57855,-12.85795 h -22.06961 c -7.93227,0 -11.57855,4.03011 -11.57855,12.85795 z m 14.96895,0.12794 v -21.87771 h 15.28881 v 21.87771 z" aria-label="0" paint-order="stroke markers"/></svg>