<svg xmlns="http://www.w3.org/2000/svg" viewBox="0 0 348 348" fill="none"><path d="M5.079 5.776h336.913v337.67H5.08z" stroke-width="2" stroke="#000"/><path d="M294.522 34.66c0-8.376 6.966-15.165 15.56-15.165 4.126 0 8.084 1.597 11 4.441 2.919 2.844 4.559 6.702 4.559 10.724 0 8.376-6.966 15.165-15.56 15.165-8.593 0-15.56-6.79-15.56-15.165z" stroke="#000" stroke-width="2"/><path d="M-165.665-157.329h378.216v440.731h-378.216z"/><path d="M17.301 84.437h179.127v179.126H17.3z" fill="#fff" stroke="#000" stroke-width=".894"/><path d="M255.955 149.613c0-7.16 5.954-12.963 13.3-12.963 3.528 0 6.911 1.365 9.405 3.795 2.494 2.432 3.896 5.73 3.896 9.168 0 7.16-5.955 12.964-13.301 12.964s-13.301-5.805-13.301-12.964z" stroke="#000" stroke-width="1.71"/><g fill="#fff" stroke="#000" stroke-width=".956" stroke-miterlimit="4.2"><path transform="matrix(1.17727 0 0 1.19314 -48.87 -37.857)" d="M289.91 138.015h-39.173l19.587-33.925z"/><path transform="matrix(1.01954 -.58863 .59657 1.0333 -45.777 178.381)" d="M289.91 138.015h-39.173l19.587-33.925z"/><path transform="matrix(.58863 1.01954 -1.0333 .59657 241.348 -165.011)" d="M289.91 138.015h-39.173l19.587-33.925z"/><path transform="matrix(-1.01954 .58863 -.59657 -1.0333 584.287 121.832)" d="M289.91 138.015h-39.173l19.587-33.925z"/></g><path d="M207.67 222.796h114.583v100.262H207.67z" fill="#fff" stroke="#000" stroke-width=".535"/><path fill="#fff" stroke="#000" stroke-width="1.049" stroke-miterlimit="4.2" d="M45.232 18.995h52.041v52.041H45.232zM111.274 18.995h52.041v52.041h-52.041z"/><g style="line-height:1.25;-inkscape-font-specification:sans-serif;text-align:center"><path d="M82.901 49.811q0 1.252-.325 2.26-.309.991-.83 1.756-.52.764-1.218 1.3-.7.537-1.447.878-.748.341-1.528.504-.764.162-1.447.162H59.8v-4.226h16.306q1.219 0 1.886-.716.682-.715.682-1.918 0-.585-.178-1.073-.18-.488-.52-.845-.326-.358-.814-.553-.471-.195-1.056-.195h-9.722q-1.024 0-2.21-.358-1.188-.374-2.212-1.186-1.008-.813-1.69-2.13-.667-1.317-.667-3.219t.666-3.203q.683-1.316 1.691-2.13 1.024-.828 2.211-1.186 1.187-.374 2.211-.374h14.387v4.227H66.384q-1.203 0-1.886.731-.666.732-.666 1.935 0 1.22.666 1.935.683.699 1.886.699h9.754q.683.016 1.447.195.764.162 1.512.52.764.358 1.447.91.683.537 1.203 1.3.536.765.845 1.757.31.991.31 2.243z" style="-inkscape-font-specification:Audiowide" font-family="Audiowide" aria-label="S" font-weight="400" font-size="33.294" letter-spacing="0" word-spacing="0" text-anchor="middle" fill="#000" stroke-width=".832"/></g><g style="line-height:1.25;-inkscape-font-specification:sans-serif;text-align:center"><path d="M149.024 41.195q0 1.447-.358 2.585-.357 1.138-.975 2.016-.602.861-1.398 1.479-.797.618-1.675 1.024-.861.39-1.755.57-.878.178-1.659.178l8.828 7.624h-6.535l-8.812-7.624h-3.04V44.82h9.56q.796-.065 1.446-.325.667-.276 1.138-.732.488-.455.748-1.089.26-.65.26-1.48V38.53q0-.358-.097-.537-.082-.195-.228-.276-.13-.098-.293-.114-.146-.016-.276-.016h-13.949V56.67h-4.226V35.49q0-.44.162-.83.163-.39.44-.682.292-.293.682-.455.39-.163.845-.163h16.046q1.414 0 2.39.52.975.504 1.577 1.285.617.764.878 1.658.276.894.276 1.674z" style="-inkscape-font-specification:Audiowide" font-family="Audiowide" aria-label="R" font-weight="400" font-size="33.294" letter-spacing="0" word-spacing="0" text-anchor="middle" fill="#000" stroke-width=".832"/></g><path fill="#fff" stroke="#000" stroke-width=".956" stroke-miterlimit="4.2" d="M52.845 291.695h20.332v20.332H52.845zM79.177 291.695h20.332v20.332H79.177zM105.509 291.695h20.332v20.332h-20.332zM131.841 291.695h20.332v20.332h-20.332z"/></svg>