<svg xmlns="http://www.w3.org/2000/svg" viewBox="0 0 348 348" fill="none"><path d="M5.079 5.776h336.913v337.67H5.08z" stroke-width="2" stroke="#000"/><path d="M294.522 34.66c0-8.376 6.966-15.165 15.56-15.165 4.126 0 8.084 1.597 11 4.441 2.919 2.844 4.559 6.702 4.559 10.724 0 8.376-6.966 15.165-15.56 15.165-8.593 0-15.56-6.79-15.56-15.165z" stroke="#000" stroke-width="2"/><path d="M-165.665-157.329h378.216v440.731h-378.216z"/><path fill="#fff" stroke="#000" d="M27.26 81.298h200.395v200.395H27.26zM67.044 298.638H95.04v27.996H67.044zM95.04 298.638h27.996v27.996H95.04zM123.037 298.638h27.996v27.996h-27.996z"/><path fill="#fff" stroke="#000" d="M151.033 298.638h27.996v27.996h-27.996zM66.307 21.622h50.835v50.835H66.307zM130.036 21.99h50.835v50.835h-50.835z"/><path d="M270.298 157.183c0-8.376 6.966-15.165 15.56-15.165 4.126 0 8.084 1.597 11.001 4.44 2.918 2.845 4.558 6.703 4.558 10.725 0 8.376-6.966 15.165-15.56 15.165-8.593 0-15.56-6.79-15.56-15.165z" stroke="#000" stroke-width="2"/><path d="M304.977 138.015h-38.24l19.12-33.117zM304.977 176.255v-38.24l33.117 19.12zM266.737 176.255h38.24l-19.12 33.117zM266.737 138.015v38.24l-33.116-19.12zM244.6 233.068h79.569v79.569H244.6z" fill="#fff" stroke="#000"/><text style="line-height:1.25" x="81.042" y="49.618" font-weight="400" font-size="40" font-family="sans-serif" letter-spacing="0" word-spacing="0" fill="#000"/><text style="line-height:1.25" x="72.201" y="65.09" font-weight="400" font-size="40" font-family="sans-serif" letter-spacing="0" word-spacing="0" fill="#000"/><text style="line-height:1.25" x="77.358" y="62.143" font-weight="400" font-size="40" font-family="sans-serif" letter-spacing="0" word-spacing="0" fill="#000"><tspan x="77.358" y="62.143">S</tspan></text><text style="line-height:1.25" x="139.982" y="62.879" font-weight="400" font-size="40" font-family="sans-serif" letter-spacing="0" word-spacing="0" fill="#000"><tspan x="139.982" y="62.879">R</tspan></text></svg>