<svg xmlns="http://www.w3.org/2000/svg" fill="none" viewBox="0 0 348 348"><path stroke="#000" stroke-width="2" d="M5.079 5.776h336.913v337.67H5.08z" fill="#742b00" fill-opacity=".373"/><path stroke="#000" stroke-width="2" d="M282.734 40.554c0-8.376 6.966-15.165 15.56-15.165 4.126 0 8.084 1.597 11.001 4.441 2.918 2.844 4.558 6.702 4.558 10.724 0 8.376-6.966 15.165-15.56 15.165-8.593 0-15.559-6.79-15.559-15.165z" fill="#fff"/><path transform="matrix(.5412 0 0 .6501 20.616 33.33)" d="M134.625 160.708c-16.666 25-50 25-66.667 0-16.667-25.002-16.667-75 0-100 16.667-24.999 50-24.999 66.667 0 16.666 24.998 16.666 75 0 100z" fill="#816100" stroke="#000" stroke-width="1.593" fill-opacity=".373"/><path transform="matrix(.46869 .2706 -.32505 .563 252.109 173.21)" d="M134.625 160.708c-16.666 25-50 25-66.667 0-16.667-25.002-16.667-75 0-100 16.667-24.999 50-24.999 66.667 0 16.666 24.998 16.666 75 0 100z" fill="#816100" fill-opacity=".373" stroke="#000" stroke-width="1.593"/><path transform="matrix(.52275 -.14007 .16826 .62794 16.72 209.565)" d="M134.625 160.708c-16.666 25-50 25-66.667 0-16.667-25.002-16.667-75 0-100 16.667-24.999 50-24.999 66.667 0 16.666 24.998 16.666 75 0 100z" fill="#816100" fill-opacity=".373" stroke="#000" stroke-width="1.593"/><path transform="matrix(.14007 -.52275 .62794 .16826 99.383 218.061)" d="M134.625 160.708c-16.666 25-50 25-66.667 0-16.667-25.002-16.667-75 0-100 16.667-24.999 50-24.999 66.667 0 16.666 24.998 16.666 75 0 100z" fill="#816100" fill-opacity=".373" stroke="#000" stroke-width="1.593"/><path transform="matrix(0 -.5412 .6501 0 183.185 161.945)" d="M134.625 160.708c-16.666 25-50 25-66.667 0-16.667-25.002-16.667-75 0-100 16.667-24.999 50-24.999 66.667 0 16.666 24.998 16.666 75 0 100z" fill="#816100" fill-opacity=".373" stroke="#000" stroke-width="1.593"/><path transform="rotate(-135 115.197 67.555) scale(.54119 .6501)" d="M134.625 160.708c-16.666 25-50 25-66.667 0-16.667-25.002-16.667-75 0-100 16.667-24.999 50-24.999 66.667 0 16.666 24.998 16.666 75 0 100z" fill="#816100" fill-opacity=".373" stroke="#000" stroke-width="1.593"/><path transform="matrix(-.2706 .46869 -.563 -.32505 172.842 175.497)" d="M134.625 160.708c-16.666 25-50 25-66.667 0-16.667-25.002-16.667-75 0-100 16.667-24.999 50-24.999 66.667 0 16.666 24.998 16.666 75 0 100z" fill="#816100" fill-opacity=".373" stroke="#000" stroke-width="1.593"/><path transform="matrix(.14007 .52275 -.62794 .16826 232.577 190.071)" d="M134.625 160.708c-16.666 25-50 25-66.667 0-16.667-25.002-16.667-75 0-100 16.667-24.999 50-24.999 66.667 0 16.666 24.998 16.666 75 0 100z" fill="#816100" fill-opacity=".373" stroke="#000" stroke-width="1.593"/><path transform="matrix(.2706 .46869 -.563 .32505 311.502 98.332)" d="M134.625 160.708c-16.666 25-50 25-66.667 0-16.667-25.002-16.667-75 0-100 16.667-24.999 50-24.999 66.667 0 16.666 24.998 16.666 75 0 100z" fill="#816100" fill-opacity=".373" stroke="#000" stroke-width="1.593"/></svg>