<svg width="348" height="348" xmlns="http://www.w3.org/2000/svg"><path fill-opacity=".01" stroke-width="2" stroke="#000" fill="red" d="M4 5h340v340H4z"/><circle r="15" cy="38.667" cx="296.667" fill-opacity=".01" stroke-linecap="null" stroke-linejoin="null" stroke-dasharray="null" stroke-width="2" stroke="#000" fill="red"/><g fill-opacity=".01" stroke-linecap="null" stroke-linejoin="null" stroke-dasharray="null" stroke-width="2" stroke="#000" fill="none"><path d="M126.563 43.063h74.812m-51.085 77.902l27.498-.244m-49.84-77.658l24.245 78.771m47.797-77.856l-23.553 78.772M202.968 287.249h-74.813m51.085-77.902l-27.497.244m49.839 77.658l-24.244-78.771m-47.797 77.856l23.552-78.772M285.668 127.53l-.116 74.813m-77.822-51.206l.2 27.498m77.736-49.719l-78.81 24.122m77.782 47.918l-78.735-23.675M43.187 205.261l.157-74.813m77.795 51.248l-.186-27.498M43.19 203.875l78.822-24.08m-77.755-47.959l78.721 23.717"/></g><g fill-opacity=".01" stroke-linecap="null" stroke-linejoin="null" stroke-dasharray="null" stroke-width="2" stroke="#000" fill="none"><path d="M224.907 52.358l52.736 53.063m-91.265 18.682l19.556 19.332m19.949-90.095l-38.78 72.724m88.914-20.98l-72.473 38.823M105.568 278.682L52.832 225.62m91.265-18.683l-19.556-19.331M104.592 277.7l38.78-72.724m-88.914 20.98l72.473-38.822M277.152 224.752l-53.145 52.654m-18.541-91.295l-19.361 19.527m90.063 20.089l-72.664-38.894m20.842 88.947l-38.71-72.534M51.09 107.558l53.173-52.626m18.491 91.304l19.372-19.515m-90.052-20.137l72.644 38.932m-20.796-88.959l38.671 72.555"/></g><circle r="1.521" cy="109.734" cx="163.312" stroke-linecap="null" stroke-linejoin="null" stroke-dasharray="null" stroke-width="2" stroke="#000" fill="none"/><circle r="1.521" cy="126.82" cx="203.813" stroke-linecap="null" stroke-linejoin="null" stroke-dasharray="null" stroke-width="2" stroke="#000" fill="none"/><circle r="1.521" cy="165.633" cx="219" stroke-linecap="null" stroke-linejoin="null" stroke-dasharray="null" stroke-width="2" stroke="#000" fill="none"/><circle r="1.521" cy="204.023" cx="202.547" stroke-linecap="null" stroke-linejoin="null" stroke-dasharray="null" stroke-width="2" stroke="#000" fill="none"/><circle r="1.521" cy="220.898" cx="165" stroke-linecap="null" stroke-linejoin="null" stroke-dasharray="null" stroke-width="2" stroke="#000" fill="none"/><circle r="1.521" cy="202.758" cx="127.031" stroke-linecap="null" stroke-linejoin="null" stroke-dasharray="null" stroke-width="2" stroke="#000" fill="none"/><circle r="1.521" cy="167.32" cx="110.578" stroke-linecap="null" stroke-linejoin="null" stroke-dasharray="null" stroke-width="2" stroke="#000" fill="none"/><circle r="1.521" cy="129.352" cx="125.344" stroke-linecap="null" stroke-linejoin="null" stroke-dasharray="null" stroke-width="2" stroke="#000" fill="none"/></svg>