<svg xmlns="http://www.w3.org/2000/svg" xmlns:xlink="http://www.w3.org/1999/xlink" viewBox="0 0 348 348"><defs><path id="a" d="m196 42-23 79h-25l-23-79z"/></defs><circle cx="296.7" cy="38.7" r="15" fill="none" stroke="#000" stroke-width="2"/><path fill="none" stroke="#000" stroke-width="2" d="m961 76-23 79h-25l-23-79zM4 5h340v340H4Z"/><g fill="none" stroke="#000" stroke-width="2" transform="translate(4)"><circle cx="160.6" cy="104" r="1.5"/><use xlink:href="#a"/></g><g fill="none" stroke="#000" stroke-width="2" transform="rotate(45 162 170)"><circle cx="160.6" cy="104" r="1.5"/><use xlink:href="#a"/></g><g fill="none" stroke="#000" stroke-width="2" transform="rotate(90 162 167)"><circle cx="160.6" cy="104" r="1.5"/><use xlink:href="#a"/></g><g fill="none" stroke="#000" stroke-width="2" transform="rotate(135 162 166)"><circle cx="160.6" cy="104" r="1.5"/><use xlink:href="#a"/></g><g fill="none" stroke="#000" stroke-width="2" transform="rotate(180 162 165)"><circle cx="160.6" cy="104" r="1.5"/><use xlink:href="#a"/></g><g fill="none" stroke="#000" stroke-width="2" transform="rotate(-135 162 164)"><circle cx="160.6" cy="104" r="1.5"/><use xlink:href="#a"/></g><g fill="none" stroke="#000" stroke-width="2" transform="rotate(-90 162 163)"><circle cx="160.6" cy="104" r="1.5"/><use xlink:href="#a"/></g><g fill="none" stroke="#000" stroke-width="2" transform="rotate(-45 162 160)"><circle cx="160.6" cy="104" r="1.5"/><use xlink:href="#a"/></g></svg>