<svg xmlns="http://www.w3.org/2000/svg" fill="none" stroke="#000" stroke-width="2" viewBox="0 0 347 347"><path d="M5 5h337v337H5z"/><path fill="#000" stroke-miterlimit="5" stroke-width="3.8" d="M45 111h259v192H45z"/><circle cx="298" cy="40" r="16"/><path fill="#fff" stroke-miterlimit="5" stroke-width="3.8" d="M43 45h84v47H43z"/><path fill="#000" stroke-miterlimit="5" stroke-width="3.8" d="M136 45h48v47h-48zm56 0h48v47h-48z"/><path fill="#fff" stroke="none" d="M110 176h62v62h-62zm66 0h62v62h-62zm-131 0h61v62H45zm197-65h62v62h-62zM110 241h62v61h-62zm66 0h62v61h-62zm66 0h62v61h-62zm-197 0h61v61H45z"/><path fill="#000" stroke="#262626" stroke-linecap="round" stroke-miterlimit="5" stroke-width="18.9" d="M75 271h132m0 0V140m65 0v66m-131-66v66m131 0H141"/><path fill="#fff" stroke="none" d="M110 111h62v62h-62zm66 0h62v62h-62zm66 65h62v62h-62z"/></svg>