<svg xmlns="http://www.w3.org/2000/svg" fill="none" viewBox="0 0 348 348"><path stroke="#000" stroke-width="2" d="M5.08 5.78h336.91v337.67H5.08z"/><path stroke="#000" stroke-width="2" d="M282.73 40.55c0-8.37 6.97-15.16 15.56-15.16 4.13 0 8.09 1.6 11 4.44a14.97 14.97 0 014.56 10.72c0 8.38-6.96 15.17-15.56 15.17-8.59 0-15.56-6.8-15.56-15.17z"/><path fill="#fff" stroke="#000" stroke-width="1.45" d="M26.25 78.29h136.62V214.9H26.25zm156.62 0H319.5V214.9H182.87z"/><path fill="#fff" stroke="#000" stroke-width="2.54" d="M27.05 239.08h292.27v70.88H27.05z"/><path fill="#000" d="M118.69 283.57l-.02.44q-.02.27-.19.36-.18.1-.23.31-.04.22-.04.44t-.02.4q-.02.16-.14.16-.1 0-.15-.03-.05-.06-.15-.06-.09 0-.18.1-.09.09-.09.18t.05.14q.08.04.08.13 0 .07-.28.18-.27.1-.62.19-.34.1-.67.16-.33.07-.44.07-.66 0-1.31-.23-.66-.24-1.28-.44-.75-.26-1.11-.84-.35-.59-.51-1.32-.17-.73-.26-1.5-.07-.76-.3-1.36-.08-.27-.08-.46 0-.18.03-.29.06-.13.11-.2l.11-.15q.06-.07.06-.14 0-.22-.13-.44t-.13-.58v-.39l.02-.4q0-.67-.13-1.11-.1-.44-.33-.8-.2-.37-.49-.73l-.62-.88q-.16.04-.35.04h-.34q-.37 0-.73-.04-.35-.04-.71-.04-.39 0-.79.08-.38.07-.78.07-.26 0-.51-.07-.26-.1-.52-.1-.3 0-.62.13-.3.11-.56.33-.26.2-.42.5-.15.27-.15.6v.58q0 1.59-.27 3.12l-.07.48q-.04.21-.04.47 0 .75.3 1.2.3.46.74.75.44.28.97.46t.96.38q.44.18.73.46.31.27.31.75 0 .18-.07.34-.05.15-.14.3-.24.38-.46.58-.2.18-.46.29-.23.11-.53.16l-.69.15q-.3.07-.66.1-.32.03-.65.03-.51 0-1-.13-.5-.11-1.01-.11-.38 0-.78.07l-.77.13q-.38.1-.77.15-.38.07-.76.07-.26 0-.57-.05-.3-.06-.55-.2-.25-.13-.43-.35-.17-.22-.17-.53 0-.26.13-.46t.33-.34q.22-.15.45-.24.24-.1.46-.11l.33-.02q.14 0 .23-.03.11-.04.22-.11l.26-.22.16-.15q.1-.05.22-.05l.18.01.19.02q.14 0 .29-.09.38-.22.55-.57.16-.34.22-.74.05-.42.05-.86.02-.44.11-.8.1-.4.1-.75 0-.64-.17-1.26-.15-.62-.15-1.26 0-.77.11-1.53.11-.77.11-1.54 0-.2-.02-.38v-.38q0-1.31.17-2.6.16-1.27.16-2.58 0-.37-.02-.71l-.05-.72-.08-.7q-.03-.45-.1-.9-.08-.46-.2-.91-.12-.46-.33-.8-.2-.37-.51-.6-.3-.23-.72-.23l-.2.02-.18.02q-.2 0-.33-.11-.13-.13-.2-.3-.07-.18-.1-.38t-.03-.34q0-.62.31-.92.33-.29.79-.4.47-.1 1-.09.55 0 .97-.03.47-.04.93-.17.47-.13.97-.13.7 0 1.4.19.7.18 1.4.18.59 0 1.14-.1.54-.1 1.1-.28.27-.1.48-.1.72 0 1.41.19.7.18 1.39.22.47.03.98.18.51.13.95.38.46.24.79.62.32.39.42.9.05.3.25.6.2.27.42.5.24.23.4.43.18.18.18.3 0 .14-.12.2-.11.06-.11.2 0 .1.1.21l.28.26q.15.14.26.33.12.16.12.36 0 .27-.18.5-.16.2-.16.47l.03.05.26-.07.03.04q.08.29.06.62v.56l-.02.77q-.02.42-.09.82-.07.4-.22.75-.14.34-.42.54-.16.13-.34.2-.17.06-.33.15-.17.07-.3.2-.12.13-.2.35-.09.3-.3.58-.22.28-.46.55-.22.26-.4.53-.17.27-.17.6 0 .53.24.99.25.45.46.93.2.49.29 1 .09.5.12 1 .06.51.08 1.03.03.5.1 1.02.04.22.17.73.15.49.35 1 .2.51.45.9.26.38.53.38.24 0 .39-.26.14-.25.27-.58l.31-.64q.18-.31.47-.42.57.06.94.22.38.16.58.46.2.27.27.69.1.4.1.95zm-5.46-16.79q0-.25-.11-.58-.11-.35-.27-.7-.17-.34-.37-.65-.18-.31-.36-.51-.39 0-.51-.06-.13-.05-.17-.13l-.09-.2q-.04-.1-.26-.22-.63-.3-1.15-.47-.5-.16-1.22-.16-.2 0-.4.1-.18.11-.33.11-.42 0-.82-.09-.4-.1-.82-.1-.6 0-1.24.14l-.84.2q-.42.1-.75.27-.33.19-.55.5-.2.3-.2.85 0 .57.11 1.12.13.54.13 1.1 0 .28-.09.54l-.16.5-.19.5q-.07.26-.07.53 0 .33.06.68.07.32.23.6.17.25.42.42.28.16.68.16.38 0 .73-.14.34-.17.73-.17.2 0 .38.11l.37.2.38.22q.2.1.44.1.18 0 .34-.04.17-.06.31-.13.7-.31 1.46-.55.79-.25 1.55-.25.2 0 .48-.22.27-.24.56-.59.3-.36.59-.78.29-.44.5-.86.25-.44.37-.78.15-.37.15-.57zm26.24 11.68q0 .25-.1.5-.07.21-.18.37-.09.17-.18.28-.07.1-.07.12 0 .19.1.39.14.2.14.44 0 .1-.1.14-.07.04-.16.04-.16 0-.27-.04.01.35.05.68.06.33.06.67 0 .53-.11.7-.1.14-.2.18l-.22.09q-.1.04-.1.33 0 .16-.23.42-.22.25-.55.5-.3.26-.66.45-.32.18-.53.18-.05 0-.12-.04l.02.31.01.31q0 .24-.14.33l-.33.15q-.27.13-.57.38l-.6.5q-.3.25-.64.43-.3.2-.65.2-.3 0-.55-.14-.24-.15-.57-.15-.29 0-.49.07l-.38.19q-.17.1-.35.18-.18.09-.42.09-.47 0-.95-.26-.47-.23-.91-.38-.26-.09-.55-.15-.29-.03-.56-.09-.28-.05-.53-.18-.24-.1-.42-.33-.39-.47-.9-.78-.5-.31-1.04-.59-.53-.27-1.02-.56-.5-.31-.86-.8-.27-.39-.62-.82-.34-.46-.65-.95-.3-.5-.5-1-.2-.52-.2-1.01 0-.37.08-.71l.14-.7q.1-.36.17-.7.07-.35.07-.72v-.2q0-.07-.06-.16-.05-.1-.12-.17-.06-.09-.13-.14l-.07-.08q-.04 0-.04.02.02-.16.1-.5.08-.34.2-.69.1-.36.21-.65.11-.31.2-.4l.2-.19q.11-.1.11-.27t-.02-.31l-.02-.33q0-.22.06-.25.05-.06.15-.06t.18-.02q.09-.03.18-.2l.31-.6q.16-.3.35-.53.18-.24.42-.44.23-.2.58-.38.3-.16.57-.4l.58-.48q.3-.23.58-.4.31-.16.66-.16.5 0 .95-.17.47-.18.95-.27l1.48-.2q.75-.11 1.51-.11.42 0 1.02.15.6.12 1.23.34.63.22 1.18.5.57.27.9.54v.06q0 .25-.1.53-.09.25-.09.5v.08q0 .04.04.04.31 0 .58-.08.3-.09.6-.09.04.31.28.42l.47.2q.22.11.4.4.2.28.37.64l.31.7q.16.34.31.56.15.22.26.53.12.3.2.62.09.33.12.66.04.3.04.58 0 .37-.14.62-.13.24-.3.44-.16.18-.3.37-.13.16-.13.38 0 .13.05.24.05.1.15.2.03-.02.14-.04.13-.02.13-.11v-.02q0-.14-.13-.27-.1-.13-.1-.31 0-.04.03-.11.04-.1.1-.1.1 0 .21.15.11.13.2.3.11.14.16.25.06.11.06.07l-.02-.01.02.16q.02.05.02.13zm-1.83.14q0-.29-.22-.34-.21-.08-.49-.1-.27-.01-.55-.05-.25-.03-.34-.27v-.18q0-.4-.11-.93-.1-.55-.24-1.1-.14-.57-.3-1.1l-.32-.96-.24-.68-.09-.25q-.14.03-.24.03-.3 0-.54-.12l-.51-.28q-.28-.14-.7-.27-.4-.13-1.07-.13-.75 0-1.48-.09-.73-.11-1.48-.11-1.02 0-1.92.47-.89.46-1.56 1.23-.68.75-1.06 1.7-.39.94-.39 1.91l.02.95q.02.53.1 1.08.07.53.23 1 .16.46.46.7v.5q.07.08.18.1h.24q.12 0 .22.03.09.02.14.15.24.67.62 1.04.38.34.82.6l.88.5q.44.23.8.7l.31-.01.31-.02q.59 0 1.13.09.57.07 1.13.07.6 0 1.08-.3.5-.32.84-.8l.4-.52q.18-.22.37-.4.2-.2.42-.37l.54-.4.26-.18q.16-.11.3-.24.17-.15.28-.27.11-.15.11-.28 0-.16-.05-.33-.04-.16-.04-.32 0-.19.06-.44.05-.26.16-.5.13-.23.3-.38.17-.16.43-.16.2 0 .4.09t.37.22q.03-.18.03-.28zm26.66 6.7q0 .33-.22.7-.2.36-.53.65-.3.31-.67.51-.37.2-.7.2-.56 0-1.1-.09-.56-.09-1.14-.09-.27 0-.64-.04-.35-.03-.5-.18-.41-.07-.61-.33-.2-.23-.37-.53-.14-.29-.33-.56-.16-.28-.5-.38-1.05.45-1.85.87-.78.42-1.57.73-.76.33-1.66.51-.87.2-2.1.2-.53 0-.76-.05-.22-.06-.35-.18-.11-.11-.22-.31-.09-.2-.36-.5-.15-.14-.3-.16-.12-.04-.25-.04h-.1q-.16 0-.3-.05-.13-.08-.2-.37-.06-.22-.22-.5-.17-.28-.38-.57-.2-.3-.42-.53-.22-.24-.4-.37l-.02-1.8q-.02-1.83.1-3.62t.13-3.61l-.01-.75q-.02-.5-.1-.98-.05-.5-.22-.88-.14-.4-.42-.47-.41-.1-.85-.08l-.84-.02q-.42-.01-.82-.12-.39-.11-.73-.48-.2-.2-.39-.5-.16-.28-.16-.6 0-.45.38-.76.4-.33.95-.53.55-.2 1.11-.29.57-.1.92-.1 1 0 1.9.32.9.3 1.65.97.04.03.04.07l-.02.04q.04.53.15 1.05.1.51.1 1.04 0 .3-.08.55-.08.26-.08.57 0 .3.08.62t.07.62q0 .2-.04.4-.03.2-.03.4 0 .57.13 1.11.12.53.12 1.1 0 .5-.1.97l-.26.93q-.13.47-.24.95-.1.45-.1.94 0 .68.26 1.26.28.59.73 1.02.46.42 1.04.68.6.24 1.26.24.57 0 .92-.11.36-.13.58-.28.22-.14.35-.25.14-.13.29-.13t.25.04l.26.02q.25 0 .42-.11.16-.11.3-.26l.26-.27q.15-.15.37-.2.42-.1.73-.24.31-.17.31-.66 0-.09.02-.16.03-.08.18-.08.1 0 .13.06.05.04.14.07.1-.07.13-.2l.07-.22q.1-.33.33-.58.26-.26.3-.58.03-.37.18-.68.14-.31.14-.66 0-.3-.16-.54-.17-.24-.17-.57 0-.36.13-.73.15-.36.15-.73l-.22-.33q-.1-.18-.1-.36 0-.31.12-.4.1-.11.1-.22 0-.17-.08-.33-.08-.18-.19-.35l-.2-.33q-.07-.16-.07-.34 0-.19.05-.35.08-.18.08-.38 0-.3-.15-.51-.13-.24-.34-.39-.2-.16-.48-.23-.25-.1-.5-.13-.47-.06-.8-.06-.32 0-.58-.07-.24-.1-.45-.31-.2-.22-.42-.71-.13-.3-.13-.5 0-.43.38-.69.4-.27.93-.4.53-.15 1.06-.18.55-.06.86-.06.29 0 .56.06.3.03.59.03.3 0 .6-.1.31-.13.62-.13.44 0 .71.25.28.24.42.64.17.38.22.9.05.49.05 1 0 .67-.05 1.28-.04.6-.04.96 0 .79.15 1.48.16.68.16 1.26 0 .18-.09.37l-.16.36-.18.37q-.08.18-.08.36 0 .15.06.26l.12 1.05q-.09.08-.1.19l-.02.2q0 .29.05.58.07.27.07.58 0 .35-.07.7-.07.33-.07.67 0 .84.56 1.3.59.44 1.37.44.44 0 .88-.15.13.27.35.5l.45.4q.22.2.37.45.16.26.16.62zm23.41.68q0 .25-.13.42-.12.16-.33.25-.18.1-.42.11-.21.04-.41.04-.28 0-.55-.04l-.55-.07q-.36.13-.87.25-.5.15-.9.15-.1 0-.22-.04-.09-.03-.18-.03-.31 0-.64.1-.3.13-.62.13-.53 0-1.02-.14-.48-.13-1-.17-.86-.07-1.34-.65-.45-.6-.49-1.43.57-.34 1.19-.47.64-.13 1.27-.13.37 0 .72.02l.73.05q-.06-1.36-.24-2.73-.18-1.37-.18-2.76l.01-.95q.04-.47.13-.95.1-.47.24-.93.14-.47.14-.95 0-.3-.09-.56-.09-.27-.23-.55-.13-.22-.17-.5-.03-.26-.09-.54-.05-.3-.16-.57-.11-.27-.37-.49-.24-.22-.67-.34-.44-.13-1.15-.13-.22 0-.66.07-.42.06-.88.17-.43.09-.84.23-.38.13-.52.28l-.24.25q-.13.17-.3.35-.14.16-.29.3-.14.14-.25.16l-.42.09q-.13.03-.22.1-.07.08-.13.23l-.18.38-.14.29q-.11.2-.22.2-.1 0-.13-.07-.04-.08-.13-.08-.04 0-.11.06l-.09.07v.51q-.13.15-.24.17-.09 0-.16.02-.06.01-.1.09l-.01.34q0 .2-.1.37-.08.16-.2.33l-.17.34q-.1.17-.1.39 0 .36.1.7.1.34.1.7 0 .24-.07.4-.07.17-.18.31-.1.13-.17.26t-.07.3q0 .26.1.48l.21.42q.11.22.2.46.11.24.11.5 0 .32-.07.65-.07.3-.07.64 0 .38.1.6.13.2.32.3.2.12.45.17.26.06.51.17.28.09.55.27.27.17.51.51l.11-.02q.31 0 .46.26.14.26.14.53 0 .25-.1.46-.12.18-.12.49 0 .22-.47.36-.48.15-1.08.22-.6.1-1.17.11-.54.04-.73.04l-.67-.02q-.44 0-1-.04-.55-.01-1.15-.07-.6-.05-1.12-.16-.5-.1-.87-.26-.35-.15-.44-.36-.1-.22-.18-.48-.1-.27-.1-.53 0-.27.13-.5.15-.21.35-.4.27-.25.6-.28.33-.06.64-.06l.62-.05q.31-.06.53-.3.24-.23.37-.74.14-.51.14-1.44 0-.24-.03-.48-.04-.25-.1-.47l-.09-.42-.03-.28q0-.1.05-.23l.15-.26q.09-.15.14-.31.08-.16.08-.36 0-.31-.13-.6-.11-.3-.11-.61 0-.25.09-.5.1-.23.1-.48 0-.2-.12-.39-.1-.18-.1-.4 0-.2.06-.4.08-.22.08-.44 0-.47-.11-.97l-.2-.98q-.11-.57-.42-.84-.3-.3-.68-.44-.38-.14-.8-.24-.42-.09-.77-.27-.34-.2-.58-.55-.22-.36-.22-1.05 0-.48.28-.73.29-.26.69-.37.4-.13.84-.15l.78-.01q.53 0 1.04.16.53.15 1.06.18.24.02.46.17.22.13.4.33.18.18.29.42.11.23.13.47 0 .1.07.4.07.27.17.57.1.29.21.53.13.22.26.22.1-.1.14-.2l.1-.24q.01-.11.23-.3l.51-.38.55-.38q.28-.18.38-.3.11-.12.17-.25l.13-.25q.07-.13.16-.2.11-.08.33-.08h.1q.2 0 .37-.16.19-.18.48-.4.3-.22.76-.39.48-.18 1.26-.18.68 0 1.35.04.68.02 1.28.18.62.16 1.15.51.55.35.95.97.31.49.51.73.2.23.33.45t.16.53q.06.31.06.93 0 .26.09.48l.2.45q.13.22.22.48.09.25.09.58 0 .64-.07 1.28-.08.62-.08 1.26 0 .45-.18.9-.16.43-.16.89 0 .22.1.42.12.2.12.45 0 .31-.08.64-.07.31-.07.62 0 .3.13.51.14.22.14.5 0 .14-.07.23-.05.1-.15.19l-.14.2q-.06.09-.06.23 0 .28.13.57.15.27.37.5.22.23.49.37.27.13.55.13.23 0 .4-.09.18-.1.38-.1.26 0 .46.21.22.2.36.5.17.29.24.6.1.3.1.5zm-3.94-6.88q0-.19-.13-.35-.1-.18-.3-.18-.2 0-.28.2-.07.18-.07.34 0 .2.07.39t.3.18q.17 0 .26-.1.11-.14.15-.45zm.31 3.5q0-.13-.1-.2-.1-.1-.2-.15-.05.11-.14.22l-.18.24-.18.26q-.07.12-.07.25 0 .15.09.22t.22.13q.01-.11.1-.22.11-.11.2-.24l.17-.24q.09-.12.09-.27zm-12.13-3.92q0-.13-.06-.31-.03-.19-.13-.35-.07-.18-.2-.3-.1-.12-.27-.12-.2 0-.35.13-.14.1-.36.1h-.07q-.06.2-.06.4l.02.1.02-.05q.05.2.22.3.16.12.34.2l.4.15q.2.08.35.2.15-.16.15-.45zm38.86 6.99q0 .23-.13.47-.1.24-.38.24-.2 0-.36-.04-.17-.05-.37-.05-.3 0-.3.1 0 .12-.05.24-.03.15-.27.26-.22.1-.95.1-.42 0-.84-.06-.4-.08-.82-.08-.3 0-.67.1-.15-.19-.33-.28l-.33-.2q-.15-.1-.26-.24-.1-.14-.1-.44 0-.2-.26-.2-.1 0-.18.02-.08.02-.17.02-.09 0-.16-.04-.06-.05-.06-.14 0-.04.02-.06-.38.02-.58.26l-.44.49q-.16.16-.35.26-.18.07-.38.12l-.4.17q-.2.09-.4.27-.17.17-.55.24-.38.09-.82.13-.42.05-.84.05l-.64.02q-.55 0-.9-.1-.32-.08-.6-.23l-.54-.3q-.3-.14-.75-.28-.5-.15-1.19-.55-.7-.4-1.33-.93-.62-.53-1.06-1.13-.44-.62-.44-1.19 0-.25-.12-.5-.11-.28-.3-.52-.16-.26-.34-.5-.18-.25-.3-.47-.34-.7-.45-1.46-.1-.76-.1-1.53 0-.71.12-1.35.1-.66.27-1.28l.33-1.26q.18-.62.33-1.3.09-.47.25-.7.17-.26.37-.44.22-.18.46-.35.25-.16.5-.47.12-.13.13-.22l.06-.17q.03-.07.1-.09.1-.03.34-.03.14 0 .22-.1.09-.09.16-.21l.13-.26q.07-.14.18-.22.11-.07.27-.1.17-.04.35-.06l.35-.04q.18-.02.33-.07.38-.17.62-.3l.47-.21q.24-.11.53-.17.3-.05.77-.05.62 0 1.22.16.62.15 1.22.33l1.2.35q.6.14 1.24.14.52 0 .8-.22.32-.21.47-.56.16-.35.2-.77.05-.42.05-.82 0-.71-.09-1.4-.1-.71-.13-1.4l-.16.07q-.18 0-.33-.1-.15-.1-.27-.22-.13-.12-.28-.21-.14-.11-.33-.11-.2 0-.25.1-.06.1-.18.19l-.42.03h-1.2q-.26 0-.6-.14-.3-.17-.6-.4-.29-.26-.49-.53-.18-.3-.18-.57 0-.23.15-.49.16-.27.38-.5.24-.21.51-.34.27-.15.53-.15.24 0 .44.13.2.11.44.11.4 0 .76-.13.38-.12.8-.12.42 0 .79.14.38.13.8.13l.62-.02.64-.02q.33 0 .66.06.34.05.64.22v.1q0 .26.05.52l.15.49q.09.24.14.47.08.24.08.5 0 .33-.17.64-.14.29-.14.63 0 .64.14 1.28.15.62.15 1.26l-.02 3.21q-.02 1.59-.02 3.21 0 1.65-.1 3.27-.12 1.6-.12 3.25 0 .6.06 1.37.05.74.29 1.42.24.66.7 1.11.47.46 1.29.46.16 0 .3-.02.17-.04.34-.04.23 0 .42.13.18.13.3.33.13.2.19.44.07.24.07.44zm-6.62-9.05q0-.68-.13-1.45-.11-.76-.42-1.42-.3-.67-.82-1.13-.51-.46-1.3-.5-.16-.01-.4-.14l-.45-.27q-.24-.15-.48-.26-.22-.13-.4-.13-.16 0-.3.08-.15.05-.3.14l-.3.15q-.14.05-.32.05-.31 0-.6-.03-.28-.04-.59-.04-.91 0-1.66.55-.73.55-1.26 1.37-.53.8-.82 1.75-.29.93-.29 1.71 0 .33.04.66.05.33.05.66 0 .22-.13.36-.1.13-.27.28-.15.12-.27.29-.11.14-.11.36h.14q.48 0 .73.19.28.16.4.45.15.28.22.64l.2.75q.11.36.31.7.22.36.62.63l.64.44q.37.24.75.44.4.2.79.34.4.13.76.13.59 0 1.15-.16.57-.19 1.15-.19.22 0 .48.06.42-.66.96-1.24.57-.6 1.37-.84l-.02-.4q0-.6.13-1.17l.31-1.19q.16-.6.3-1.24.14-.64.14-1.38zm39.2 8.44q0 .2-.08.39-.07.18-.17.36-.18.35-.34.55-.15.2-.31.3-.17.1-.37.12-.18.03-.44.03h-.62q-.14.06-.27.06-.16 0-.22-.15-.03-.12-.03-.29v-.16l.01-.15q0-.14-.05-.25-.04-.11-.2-.11-.28 0-.44.16-.15.15-.3.33-.12.18-.28.33-.17.16-.48.16-.36 0-.73-.1-.34-.12-.71-.15-.75-.06-1.5-.08l-1.5-.03q-.72-.04-1.47-.11-.73-.07-1.46-.24-.16-.04-.33-.05l-.3-.02q-.76 0-1.49.16-.7.15-1.6.15-.6 0-1.2.13-.6.12-1.21.12-.3 0-.68-.1-.38-.13-.74-.34-.35-.2-.6-.49-.24-.29-.24-.62 0-.24.22-.5.23-.26.54-.5.31-.26.62-.46l.51-.34q1.12.14 2.23.32 1.11.19 2.24.19.7 0 1.1-.17.42-.18.62-.47.22-.31.27-.71.08-.42.08-.9l-.02-.55v-.58q0-2.85.14-5.66.17-2.82.17-5.67 0-1.4-.07-2.8-.06-1.38-.26-2.77l-.5-.1q-.21-.06-.52-.06-.1 0-.1.02-.07-.07-.18-.07l-.18-.02q-.42 0-.8.12-.38.11-.79.11-.1 0-.18-.03l-.13-.1q-.05-.05-.14-.08-.07-.04-.2-.04-.6 0-1.2.13t-1.23.13q-.44 0-.88-.13-.42-.13-.76-.4.13-.28.13-.66 0-.3-.06-.57-.05-.29-.07-.58.13.05.27.05.28 0 .51-.12l.5-.31q.23-.19.49-.31.25-.15.53-.15.54 0 1.07.16.55.17 1.1.17.3 0 .53-.11.22-.13.38-.13.18 0 .27.11.11.11.31.11.3 0 .59-.11l.6-.22.6-.24q.31-.1.64-.1.46 0 .9.1.45.11.9.11.23 0 .45-.05h.01q-.03.09-.03.3 0 .25.07.45.1.2.18.42.11.22.19.53.09.3.09.78 0 .82.03 1.62.04.79.04 1.61 0 .42-.07.82-.06.38-.24.75.16.15.2.35.06.18.06.4v.29q0 .2.03.42.06.22.24.36l.02.2q0 .24-.1.42-.07.19-.16.35l-.18.33q-.07.16-.07.36 0 .42.1.86.13.42.13.9 0 .58-.07 1.16l-.16 1.15q-.1.57-.17 1.15-.07.57-.07 1.15 0 .15-.06.24-.03.1-.12.1l-.13-.05q0 .48.07.95l.15.95q.09.46.16.93.08.48.08.97v.25l-.02.26q0 .97.64 1.42.64.46 1.57.46.62 0 .93-.11.32-.13.47-.27l.26-.26q.09-.13.27-.13.53 0 1.08.13.56.11 1.1.17.26.03.54.03t.53.06q.25.03.47.14.22.11.4.39l.4.6q.24.33.24.67z"/><path fill="#fecb98" d="M85.94 194.6c-18.66-3.37-34.54-18-39.62-36.54-.95-3.47-1.13-5.48-1.14-12.63 0-7.82.11-8.89 1.41-13.15 5.36-17.56 18.2-30.37 35.19-35.1 1.93-.54 5.9-.93 11-1.09 6.81-.2 8.72-.08 12.9.84 5.2 1.14 12.34 4.28 17.41 7.64 8.91 5.91 16.12 16 19.5 27.3 1.64 5.5 2.27 16.82 1.25 22.64-2.99 17.17-15.32 31.59-32.35 37.8a49.09 49.09 0 01-25.55 2.3z"/><path fill="#97cafd" d="M85.94 194.6c-18.66-3.37-34.54-18-39.62-36.54-.95-3.47-1.13-5.48-1.14-12.63 0-7.82.11-8.89 1.41-13.15 5.36-17.56 18.2-30.37 35.19-35.1 1.93-.54 5.9-.93 11-1.09 6.81-.2 8.72-.08 12.9.84 5.2 1.14 12.34 4.28 17.41 7.64 8.91 5.91 16.12 16 19.5 27.3 1.64 5.5 2.27 16.82 1.25 22.64-2.99 17.17-15.32 31.59-32.35 37.8a49.09 49.09 0 01-25.55 2.3zm7.05-8.24c.17-.44.31-4 .31-7.9 0-3.9.45-11.15 1-16.1 1.06-9.6 1.45-11.78 2.1-11.78 1.05 0 1.37 3.55.46 5.25-.46.85-1.31 9.7-1.6 16.54-.06 1.47.99 5.19 2.84 10.1 1.55 4.13 5.7 6.22 7.1 3.59.63-1.18.44-6.7-.48-13.57-.69-5.11-1.28-23.46-.77-23.45.94 0 1.62 2.7 1.4 5.54-.14 1.63.2 7.48.72 13.01.88 9.25 1.07 10.22 2.36 12.17a10.06 10.06 0 002.67 2.79c1.1.58 1.4.55 2.3-.27 2.26-2.04 2.3-3.89.36-14.7-1.88-10.5-2.6-16.99-2.08-18.95.24-.9.6-1.12 1.66-.98 1.46.2 2.1 1.63 1.14 2.57-1 1-.6 7.8.94 16.01.83 4.4 1.67 8.3 1.88 8.63.25.4.72-.03 1.34-1.23.92-1.8.92-1.97-.03-6.14-.62-2.68-1.1-7.37-1.3-12.53-.17-4.53-.91-13-1.64-18.81-1.45-11.69-2.26-14.26-5.65-18-2.44-2.7-3.87-3.45-9.72-5.05a90.97 90.97 0 01-10.48-3.86c-6.77-3-7.32-2.99-10.94.4-3.05 2.86-6 8.34-6.99 12.97-1.09 5.16-1.02 5.55 1.3 7.19 1.68 1.19 2.05 1.76 2.06 3.16 0 .94.25 2.16.55 2.71.41.78.36 1.08-.26 1.31-.44.17-.8.67-.8 1.12 0 .44-.58 2.27-1.3 4.07-1.83 4.56-2.2 9.24-1 12.4.91 2.38 5.6 7.9 7.65 9 .93.5.96.31.75-3.87-.19-3.46-.53-4.96-1.62-7.06-1.66-3.2-1.73-3.83-.36-3.1.94.5.98.45.53-.75-.63-1.65.2-1.75 1.22-.14 1.17 1.85 1.87 6.21 2.42 15.07 1.04 16.94 1.23 18.11 3.15 20.33a13.86 13.86 0 002.74 2.52c1.57.83 3.71.72 4.07-.2zm3.4-37.6c0-.45.4-1.55.9-2.46.84-1.58.89-1.6 1.07-.43.27 1.8-.34 3.68-1.2 3.68a.78.78 0 01-.77-.8zm8.5-3.13c.87-2.9 1.1-3.16 1.55-1.78.55 1.76-.2 4.15-1.3 4.15-.9 0-.92-.14-.25-2.37zm7.48.02c0-1.03 1.76-5.38 2.18-5.38.48 0 .26 2.42-.43 4.77-.24.8-1.75 1.33-1.75.61z"/><path fill="#e7b98a" d="M86.27 194.67a51.32 51.32 0 01-39.97-36.9c-1.02-3.73-1.18-5.53-1.15-12.6.03-7.45.17-8.7 1.44-12.85 5.63-18.5 20.25-32.28 37.77-35.64 5.66-1.08 15.9-.94 21.48.29 5.08 1.12 12.45 4.4 17.42 7.76 8.97 6.06 16.23 16.39 19.54 27.81 1.4 4.82 1.98 16.88 1.06 21.79-3.7 19.5-17.8 34.38-37.58 39.63-5.09 1.35-14.88 1.7-20.01.71zm6.72-8.3c.17-.45.31-4.01.31-7.91 0-3.9.45-11.15 1-16.1 1.06-9.6 1.45-11.78 2.1-11.78 1.05 0 1.37 3.55.46 5.25-.46.85-1.31 9.7-1.6 16.54-.06 1.47.99 5.19 2.84 10.1 1.55 4.13 5.7 6.22 7.1 3.59.63-1.18.44-6.7-.48-13.57-.69-5.11-1.28-23.46-.77-23.45.94 0 1.62 2.7 1.4 5.54-.14 1.63.2 7.48.72 13.01.88 9.25 1.07 10.22 2.36 12.17a10.06 10.06 0 002.67 2.79c1.1.58 1.4.55 2.3-.27 2.26-2.04 2.3-3.89.36-14.7-1.88-10.5-2.6-16.99-2.08-18.95.24-.9.6-1.12 1.66-.98 1.46.2 2.1 1.63 1.14 2.57-1 1-.6 7.8.94 16.01.83 4.4 1.67 8.3 1.88 8.63.25.4.72-.03 1.34-1.23.92-1.8.92-1.97-.03-6.14-.62-2.68-1.1-7.37-1.3-12.53-.17-4.53-.91-13-1.64-18.81-1.45-11.69-2.26-14.26-5.65-18-2.44-2.7-3.87-3.45-9.72-5.05a90.97 90.97 0 01-10.48-3.86c-6.77-3-7.32-2.99-10.94.4-3.05 2.86-6 8.34-6.99 12.97-1.09 5.16-1.02 5.55 1.3 7.19 1.68 1.19 2.05 1.76 2.06 3.16 0 .94.25 2.16.55 2.71.41.78.36 1.08-.26 1.31-.44.17-.8.67-.8 1.12 0 .44-.58 2.27-1.3 4.07-1.83 4.56-2.2 9.24-1 12.4.91 2.38 5.6 7.9 7.65 9 .93.5.96.31.75-3.87-.19-3.46-.53-4.96-1.62-7.06-1.66-3.2-1.73-3.83-.36-3.1.94.5.98.45.53-.75-.63-1.65.2-1.75 1.22-.14 1.17 1.85 1.87 6.21 2.42 15.07 1.04 16.94 1.23 18.11 3.15 20.33a13.86 13.86 0 002.74 2.52c1.57.83 3.71.72 4.07-.2zm3.4-37.62c0-.44.4-1.54.9-2.45.84-1.58.89-1.6 1.07-.43.27 1.8-.34 3.68-1.2 3.68a.78.78 0 01-.77-.8zm8.5-3.12c.87-2.9 1.1-3.16 1.55-1.78.55 1.76-.2 4.15-1.3 4.15-.9 0-.92-.14-.25-2.37zm7.48.02c0-1.03 1.76-5.38 2.18-5.38.48 0 .26 2.42-.43 4.77-.24.8-1.75 1.33-1.75.61zm-41.02-5c.41-.63 1.15-2.6 1.64-4.35.72-2.62.76-3.35.23-4-1.21-1.45-2-.9-2.35 1.66-.98 7.3-2.09 6.7-1.9-1.03.28-12.07 2.64-19.22 8.17-24.76 3.08-3.1 3.3-3.2 7.8-3.71 2.55-.29 2.73-.23 3.2 1 .55 1.46 1.04 1.7 1.04.54 0-.42-.64-1.47-1.42-2.33-1.16-1.28-2.13-1.7-5.43-2.32l-4.02-.76-3.72 1.87a50.51 50.51 0 00-21.01 19.2l-1.7 2.8 3.15 2.88a94.47 94.47 0 016.07 6.23c2.9 3.32 8.34 8.25 9.1 8.25.22 0 .74-.52 1.15-1.16z"/><path fill="#98b0da" d="M86.27 194.67a51.32 51.32 0 01-39.97-36.9c-1.02-3.73-1.18-5.53-1.15-12.6.03-7.45.17-8.7 1.44-12.85 5.63-18.5 20.25-32.28 37.77-35.64 5.66-1.08 15.9-.94 21.48.29 5.08 1.12 12.45 4.4 17.42 7.76 8.97 6.06 16.23 16.39 19.54 27.81 1.4 4.82 1.98 16.88 1.06 21.79-3.7 19.5-17.8 34.38-37.58 39.63-5.09 1.35-14.88 1.7-20.01.71zm7.1-17.8c.28-8.9 1.53-22.32 2.31-24.9.47-1.54 1.5-.65 1.42 1.24-.04.96-.33 3.26-.64 5.1-.31 1.85-.76 5.9-1 9.02-.36 4.88-.29 6.15.55 9.02 2.02 6.99 3.1 9.23 4.83 10.05 2.58 1.22 4.24 1.02 4.63-.56.37-1.46.01-8.04-.77-14.12-.27-2.13-.64-8.16-.81-13.4-.31-9.45-.3-9.53.67-8.3.8 1 .94 1.84.76 4.38-.12 1.73.21 7.7.75 13.28.89 9.34 1.07 10.31 2.37 12.26.77 1.17 2 2.4 2.73 2.73 1.18.54 1.46.45 2.53-.8 1.94-2.25 1.97-4.07.2-13.52-1.71-9.24-2.62-17.22-2.2-19.45.22-1.08.51-1.3 1.63-1.18 1.11.13 1.33.38 1.19 1.38-.76 5.17-.59 9.4.63 15.92 2.21 11.87 2.13 11.67 3.63 8.51.8-1.68.79-2.05-.15-6.05-.64-2.73-1.1-7.16-1.3-12.27-.16-4.4-.9-12.98-1.65-19.07-1.53-12.51-2.22-14.6-6.13-18.66-1.95-2.03-2.97-2.62-6.07-3.52-6.22-1.8-11.14-3.57-15.05-5.43-2.05-.97-4.3-1.76-5-1.76-1.91 0-5.3 2.77-7.62 6.26a30.5 30.5 0 00-4.47 12.49c-.3 2.6-.28 2.67 1.73 4.28 1.75 1.4 2.1 2 2.33 4.12.16 1.37.1 2.72-.1 3-.22.28-1.12 2.76-2.02 5.5-1.9 5.86-2.11 9.91-.64 13.06.96 2.07 6.86 8.5 7.8 8.5.68 0 .62-5.72-.1-8.66a13.88 13.88 0 00-1.55-3.79c-1.1-1.58-1.34-3.1-.33-2.08.96.96 1.32.73 1.05-.67-.38-2 .34-1.53 1.43.92 1.03 2.34 1.62 7.2 2.75 22.86.67 9.3.68 9.35 2.3 11.31 2.03 2.47 3.53 3.33 5.5 3.17l1.55-.12zm3.04-28.22c0-.5.46-1.48 1.02-2.2l1-1.28.02 1.2c0 1.4-.86 3.18-1.56 3.18-.27 0-.49-.4-.48-.9zm8.48-2.58c.2-1.06.55-2.28.79-2.7.7-1.24 1.18 1.59.55 3.24-.82 2.15-1.77 1.77-1.34-.54zm7.65-.85c.15-.4.56-1.66.9-2.82.73-2.41 1.73-2.32 1.25.11-.6 2.94-.83 3.43-1.63 3.43-.47 0-.68-.3-.52-.72zm-41.19-4.56c.41-.64 1.15-2.6 1.64-4.36.72-2.62.76-3.35.23-4-1.21-1.45-2-.9-2.35 1.66-.98 7.3-2.09 6.7-1.9-1.03.28-12.07 2.64-19.22 8.17-24.76 3.08-3.1 3.3-3.2 7.8-3.71 2.55-.29 2.73-.23 3.2 1 .55 1.46 1.04 1.7 1.04.54 0-.42-.64-1.47-1.42-2.33-1.16-1.28-2.13-1.7-5.43-2.32l-4.02-.76-3.72 1.87a50.51 50.51 0 00-21.01 19.2l-1.7 2.8 3.15 2.88a94.47 94.47 0 016.07 6.23c2.9 3.32 8.34 8.25 9.1 8.25.22 0 .74-.52 1.15-1.16z"/><path fill="#bf9871" d="M89.44 195.1c-23.71-3.55-41.09-20.6-44.12-43.3-1.96-14.7 3.06-29.55 13.86-41a49.22 49.22 0 0122.08-13.33c5.8-1.57 16.44-1.94 22.53-.79 18.69 3.53 33.44 17.07 38.79 35.6 1.9 6.62 2.27 16.59.84 23.46-3.94 19.01-18.81 33.93-38.26 38.38-3.82.88-12.73 1.44-15.72.99zm3.92-18.23c.29-8.9 1.54-22.32 2.32-24.9.47-1.54 1.5-.65 1.42 1.24-.04.96-.33 3.26-.64 5.1-.31 1.85-.76 5.9-1 9.02-.36 4.88-.29 6.15.55 9.02 2.02 6.99 3.1 9.23 4.83 10.05 2.58 1.22 4.24 1.02 4.63-.56.37-1.46.01-8.04-.77-14.12-.27-2.13-.64-8.16-.81-13.4-.31-9.45-.3-9.53.67-8.3.8 1 .94 1.84.76 4.38-.12 1.73.21 7.7.75 13.28.89 9.34 1.07 10.31 2.37 12.26.77 1.17 2 2.4 2.73 2.73 1.18.54 1.46.45 2.53-.8 1.94-2.25 1.97-4.07.2-13.52-1.71-9.24-2.62-17.22-2.2-19.45.22-1.08.51-1.3 1.63-1.18 1.11.13 1.33.38 1.19 1.38-.76 5.17-.59 9.4.63 15.92 2.21 11.87 2.13 11.67 3.63 8.51.8-1.68.79-2.05-.15-6.05-.64-2.73-1.1-7.16-1.3-12.27-.16-4.4-.9-12.98-1.65-19.07-1.53-12.51-2.22-14.6-6.13-18.66-1.95-2.03-2.97-2.62-6.07-3.52-6.22-1.8-11.14-3.57-15.05-5.43-2.05-.97-4.3-1.76-5-1.76-1.91 0-5.3 2.77-7.62 6.26a30.5 30.5 0 00-4.47 12.49c-.3 2.6-.28 2.67 1.73 4.28 1.75 1.4 2.1 2 2.33 4.12.16 1.37.1 2.72-.1 3-.22.28-1.12 2.76-2.02 5.5-1.9 5.86-2.11 9.91-.64 13.06.96 2.07 6.86 8.5 7.8 8.5.68 0 .62-5.72-.1-8.66a13.88 13.88 0 00-1.55-3.79c-1.1-1.58-1.34-3.1-.33-2.08.96.96 1.32.73 1.05-.67-.38-2 .34-1.53 1.43.92 1.03 2.34 1.62 7.2 2.75 22.86.67 9.3.68 9.35 2.3 11.31 2.03 2.47 3.53 3.33 5.5 3.17l1.55-.12zm3.05-28.22c0-.5.46-1.48 1.02-2.2l1-1.28.02 1.2c0 1.4-.86 3.18-1.56 3.18-.27 0-.49-.4-.48-.9zm8.48-2.58c.2-1.06.55-2.28.79-2.7.7-1.24 1.18 1.59.55 3.24-.82 2.15-1.77 1.77-1.34-.54zm7.65-.85c.15-.4.56-1.66.9-2.82.73-2.41 1.73-2.32 1.25.11-.6 2.94-.83 3.43-1.63 3.43-.47 0-.68-.3-.52-.72zm-40.44-6.1c1.53-3.8 1.87-5.91 1.1-6.84-1.13-1.36-1.96-.86-2.31 1.42-.81 5.24-2.32 7.55-2.01 3.1.1-1.35.27-5 .4-8.13.34-8.86 2.54-14.73 7.47-20 2.9-3.1 4.14-3.74 7.94-4.12 2.88-.28 3.01-.24 3.54 1.1.3.75.66 1.1.78.77.4-1.08-1.28-3.61-2.77-4.18-.8-.3-2.92-.8-4.73-1.1l-3.3-.53-5.02 2.58a49.94 49.94 0 00-19.52 18.22l-1.75 2.91 4.84 5c8.03 8.3 12.53 12.49 13.42 12.5.53 0 1.23-.98 1.92-2.7z"/><path fill="#3297fd" d="M89.44 195.1c-23.71-3.55-41.09-20.6-44.12-43.3-1.96-14.7 3.06-29.55 13.86-41a49.22 49.22 0 0122.08-13.33c5.8-1.57 16.44-1.94 22.53-.79 18.69 3.53 33.44 17.07 38.79 35.6 1.9 6.62 2.27 16.59.84 23.46-3.94 19.01-18.81 33.93-38.26 38.38-3.82.88-12.73 1.44-15.72.99zm15.4-8.2c1.34-1.33 1.52-4.2.63-9.7-.47-2.87-1.07-9.87-1.35-15.54-.6-12.67-.6-12.11-.08-12.11.81 0 1.57 2.47 1.2 3.88-.35 1.28 1 19.91 1.72 23.83.34 1.88 3.76 5.8 5.06 5.8 1.25 0 2.88-2.02 3.26-4.06.22-1.17-.25-5-1.34-10.86-1.65-8.91-2.53-18.21-1.88-19.9.26-.7.47-.75 1.1-.23.42.35.76.44.76.21s.25-.17.56.14c.4.4.33 1-.26 2.14-1.11 2.16-1.03 4.4.48 12.76 1.73 9.53 2.33 12.06 2.87 12.06.24 0 .83-.73 1.3-1.63.8-1.54.78-1.94-.22-6.58-.71-3.29-1.15-7.68-1.33-13.18-.32-10.25-2.56-27.99-3.92-31.05-1.36-3.09-4.46-6.73-6.66-7.83a44.03 44.03 0 00-6.22-2.08c-4.28-1.12-13.69-4.81-14.67-5.74-.27-.25-1.36-.46-2.42-.46-3.88 0-9.78 7.68-11.5 15-1.24 5.26-1.1 6.23 1.22 8.09 1.73 1.4 2.03 1.95 2.22 4.08.11 1.36.03 2.81-.18 3.24a34.49 34.49 0 00-3.43 11.97c-.21 3.54-.09 4.3 1.12 6.76 1.42 2.91 6.39 8.07 7.76 8.07.95 0 .93.35.3-5.1-.33-2.86-.94-5.18-1.8-6.83-1.27-2.42-1.19-3.18.2-1.86.55.53.6.34.32-1.03-.44-2.04-.03-2.16.93-.25 1.11 2.22 1.83 6.94 2.38 15.59 1.06 16.76 1.08 16.89 2.67 19.08 1.94 2.68 3.6 3.7 5.7 3.5l1.7-.16.3-9.28c.34-10.75 1.92-25.58 2.81-26.47.56-.56 1.3 1.21 1.06 2.5l-.77 3.87a108.6 108.6 0 00-1.02 9.17c-.46 6.01-.4 6.9.54 10.06 2.07 6.85 3.11 8.89 5.06 9.92 2.24 1.18 2.82 1.22 3.82.21zm-8.45-38.15c0-.86 1.75-3.48 1.94-2.91.39 1.13-.37 3.2-1.17 3.2-.42 0-.77-.13-.77-.29zm8.3-1.6c.01-.53.35-1.76.74-2.75l.72-1.8-.11 2.53c-.06 1.49-.38 2.62-.75 2.75-.37.12-.63-.2-.6-.74zm8.1-1.52c-.13-.25.17-1.5.67-2.78l.92-2.32.03 1.83c.03 1.82-1.13 4.17-1.61 3.27zm-40.69-6.52c1.53-3.8 1.87-5.9 1.1-6.83-1.13-1.36-1.96-.86-2.31 1.42-.81 5.24-2.32 7.55-2.01 3.1.1-1.35.27-5 .4-8.13.34-8.86 2.54-14.73 7.47-20 2.9-3.1 4.14-3.74 7.94-4.12 2.88-.28 3.01-.24 3.54 1.1.3.75.66 1.1.78.77.4-1.08-1.28-3.61-2.77-4.18-.8-.3-2.92-.8-4.73-1.1l-3.3-.53-5.02 2.58a49.94 49.94 0 00-19.52 18.22l-1.75 2.91 4.84 5c8.03 8.3 12.53 12.49 13.42 12.5.53 0 1.23-.98 1.92-2.7z"/><path fill="#8585b4" d="M89.44 195.1c-23.71-3.55-41.09-20.6-44.12-43.3-1.96-14.7 3.06-29.55 13.86-41a49.22 49.22 0 0122.08-13.33c5.8-1.57 16.44-1.94 22.53-.79 18.69 3.53 33.44 17.07 38.79 35.6 1.9 6.62 2.27 16.59.84 23.46-3.94 19.01-18.81 33.93-38.26 38.38-3.82.88-12.73 1.44-15.72.99zm17.78-3.76c2.13-.6 6.3-2.3 9.28-3.75 4.98-2.44 5.88-3.12 11.34-8.62 8.83-8.9 12.53-16.17 13.9-27.36 1.11-9.13-.63-19.44-4.64-27.42-2.68-5.34-5.14-8.57-10.25-13.46-5.89-5.62-13-9.43-21.51-11.52-3.97-.98-17.12-1.15-20.29-.27-1.35.38-1.5.52-.61.56 3 .13 6.02 2.95 6.6 6.16.18 1.03.55 2.15.82 2.5.65.81 6.68 2.73 8.62 2.73 1.38 0 3.4.72 7.76 2.78 1.87.88 6.05 6.3 7.18 9.31a41.1 41.1 0 011.56 7.24c1.56 12.18 2.07 17.21 2.62 26.03.32 5.25.92 10.56 1.32 11.82 1.27 3.95 1 5.62-1.26 7.72-1.34 1.25-2.1 2.48-2.34 3.8a9.41 9.41 0 01-1.93 3.73c-1.94 2.21-3.82 2.35-6.07.46l-1.58-1.33v2.39c0 2.72-1.66 4.92-3.72 4.91-2.61 0-6.23-3.12-7.8-6.72l-.77-1.78-.04 3.44c-.07 5.03-1.88 6.2-6.6 4.28-3.68-1.5-6.85-8.07-6.85-14.18 0-1.61-.15-4-.32-5.31-.3-2.11-.58-2.53-2.46-3.63a27.8 27.8 0 01-4.77-4.05c-4.53-4.78-5.87-8.6-4.9-13.87l.54-2.89-4.23-4.33c-2.32-2.39-6.41-6.7-9.1-9.6-2.68-2.9-5.04-5.27-5.26-5.27-.54 0-2.84 7.5-3.56 11.62-.88 5.07-.34 15.98 1.06 21.11 2.28 8.4 8.19 17.26 15.74 23.61 5.97 5.02 12.65 8.2 20.84 9.9 5.1 1.07 16.74.67 21.68-.74zm-2.38-4.44c1.34-1.33 1.52-4.2.63-9.7-.47-2.87-1.07-9.87-1.35-15.54-.6-12.67-.6-12.11-.08-12.11.81 0 1.57 2.47 1.2 3.88-.35 1.28 1 19.91 1.72 23.83.34 1.88 3.76 5.8 5.06 5.8 1.25 0 2.88-2.02 3.26-4.06.22-1.17-.25-5-1.34-10.86-1.65-8.91-2.53-18.21-1.88-19.9.26-.7.47-.75 1.1-.23.42.35.76.44.76.21s.25-.17.56.14c.4.4.33 1-.26 2.14-1.11 2.16-1.03 4.4.48 12.76 1.73 9.53 2.33 12.06 2.87 12.06.24 0 .83-.73 1.3-1.63.8-1.54.78-1.94-.22-6.58-.71-3.29-1.15-7.68-1.33-13.18-.32-10.25-2.56-27.99-3.92-31.05-1.36-3.09-4.46-6.73-6.66-7.83a44.03 44.03 0 00-6.22-2.08c-4.28-1.12-13.69-4.81-14.67-5.74-.27-.25-1.36-.46-2.42-.46-3.88 0-9.78 7.68-11.5 15-1.24 5.26-1.1 6.23 1.22 8.09 1.73 1.4 2.03 1.95 2.22 4.08.11 1.36.03 2.81-.18 3.24a34.49 34.49 0 00-3.43 11.97c-.21 3.54-.09 4.3 1.12 6.76 1.42 2.91 6.39 8.07 7.76 8.07.95 0 .93.35.3-5.1-.33-2.86-.94-5.18-1.8-6.83-1.27-2.42-1.19-3.18.2-1.86.55.53.6.34.32-1.03-.44-2.04-.03-2.16.93-.25 1.11 2.22 1.83 6.94 2.38 15.59 1.06 16.76 1.08 16.89 2.67 19.08 1.94 2.68 3.6 3.7 5.7 3.5l1.7-.16.3-9.28c.34-10.75 1.92-25.58 2.81-26.47.56-.56 1.3 1.21 1.06 2.5l-.77 3.87a108.6 108.6 0 00-1.02 9.17c-.46 6.01-.4 6.9.54 10.06 2.07 6.85 3.11 8.89 5.06 9.92 2.24 1.18 2.82 1.22 3.82.21zm-8.45-38.15c0-.86 1.75-3.48 1.94-2.91.39 1.13-.37 3.2-1.17 3.2-.42 0-.77-.13-.77-.29zm8.3-1.6c.01-.53.35-1.76.74-2.75l.72-1.8-.11 2.53c-.06 1.49-.38 2.62-.75 2.75-.37.12-.63-.2-.6-.74zm8.1-1.52c-.13-.25.17-1.5.67-2.78l.92-2.32.03 1.83c.03 1.82-1.13 4.17-1.61 3.27zm-40.69-6.52c1.53-3.8 1.87-5.9 1.1-6.83-1.13-1.36-1.96-.86-2.31 1.42-.81 5.24-2.32 7.55-2.01 3.1.1-1.35.27-5 .4-8.13.34-8.86 2.54-14.73 7.47-20 2.9-3.1 4.14-3.74 7.94-4.12 2.88-.28 3.01-.24 3.54 1.1.3.75.66 1.1.78.77.4-1.08-1.28-3.61-2.77-4.18-.8-.3-2.92-.8-4.73-1.1l-3.3-.53-5.02 2.58a49.94 49.94 0 00-19.52 18.22l-1.75 2.91 4.84 5c8.03 8.3 12.53 12.49 13.42 12.5.53 0 1.23-.98 1.92-2.7z"/><path fill="#967759" d="M84.02 193.92c-24.95-5.84-41.56-28.9-38.67-53.71.98-8.48 3.18-14.51 7.9-21.74 6.93-10.6 16.82-17.93 28.45-21.08 6-1.62 19.3-1.61 25.26.01 8 2.18 17.38 7.44 22.64 12.7 5.75 5.75 11.07 15.07 13.25 23.21 1.53 5.7 1.66 17.72.27 23.68-4.2 17.88-18.32 32-36.73 36.66-6.25 1.58-16.23 1.7-22.37.27zm23.2-2.58c2.13-.6 6.3-2.3 9.28-3.75 4.98-2.44 5.88-3.12 11.34-8.62 8.83-8.9 12.53-16.17 13.9-27.36 1.11-9.13-.63-19.44-4.64-27.42-2.68-5.34-5.14-8.57-10.25-13.46-5.89-5.62-13-9.43-21.51-11.52-3.97-.98-17.12-1.15-20.29-.27-1.35.38-1.5.52-.61.56 3 .13 6.02 2.95 6.6 6.16.18 1.03.55 2.15.82 2.5.65.81 6.68 2.73 8.62 2.73 1.38 0 3.4.72 7.76 2.78 1.87.88 6.05 6.3 7.18 9.31a41.1 41.1 0 011.56 7.24c1.56 12.18 2.07 17.21 2.62 26.03.32 5.25.92 10.56 1.32 11.82 1.27 3.95 1 5.62-1.26 7.72-1.34 1.25-2.1 2.48-2.34 3.8a9.41 9.41 0 01-1.93 3.73c-1.94 2.21-3.82 2.35-6.07.46l-1.58-1.33v2.39c0 2.72-1.66 4.92-3.72 4.91-2.61 0-6.23-3.12-7.8-6.72l-.77-1.78-.04 3.44c-.07 5.03-1.88 6.2-6.6 4.28-3.68-1.5-6.85-8.07-6.85-14.18 0-1.61-.15-4-.32-5.31-.3-2.11-.58-2.53-2.46-3.63a27.8 27.8 0 01-4.77-4.05c-4.53-4.78-5.87-8.6-4.9-13.87l.54-2.89-4.23-4.33c-2.32-2.39-6.41-6.7-9.1-9.6-2.68-2.9-5.04-5.27-5.26-5.27-.54 0-2.84 7.5-3.56 11.62-.88 5.07-.34 15.98 1.06 21.11 2.28 8.4 8.19 17.26 15.74 23.61 5.97 5.02 12.65 8.2 20.84 9.9 5.1 1.07 16.74.67 21.68-.74zm-2.38-4.44c1.34-1.33 1.52-4.2.63-9.7-.47-2.87-1.07-9.87-1.35-15.54-.6-12.67-.6-12.11-.08-12.11.81 0 1.57 2.47 1.2 3.88-.35 1.28 1 19.91 1.72 23.83.34 1.88 3.76 5.8 5.06 5.8 1.25 0 2.88-2.02 3.26-4.06.22-1.17-.25-5-1.34-10.86-1.65-8.91-2.53-18.21-1.88-19.9.26-.7.47-.75 1.1-.23.42.35.76.44.76.21s.25-.17.56.14c.4.4.33 1-.26 2.14-1.11 2.16-1.03 4.4.48 12.76 1.73 9.53 2.33 12.06 2.87 12.06.24 0 .83-.73 1.3-1.63.8-1.54.78-1.94-.22-6.58-.7-3.29-1.15-7.68-1.33-13.18-.32-10.25-2.56-27.99-3.92-31.05-1.36-3.09-4.46-6.73-6.66-7.83a44.03 44.03 0 00-6.22-2.08c-4.28-1.12-13.69-4.81-14.67-5.74-.27-.25-1.36-.46-2.42-.46-3.88 0-9.78 7.68-11.5 15-1.24 5.26-1.1 6.23 1.22 8.09 1.73 1.4 2.03 1.95 2.22 4.08.11 1.36.03 2.81-.18 3.24a34.49 34.49 0 00-3.43 11.97c-.21 3.54-.09 4.3 1.12 6.76 1.42 2.91 6.39 8.07 7.76 8.07.95 0 .93.35.3-5.1-.33-2.86-.94-5.18-1.8-6.83-1.27-2.42-1.19-3.18.2-1.86.55.53.6.34.32-1.03-.44-2.04-.03-2.16.93-.25 1.11 2.22 1.83 6.94 2.38 15.59 1.06 16.76 1.08 16.89 2.67 19.08 1.94 2.68 3.6 3.7 5.7 3.5l1.7-.16.3-9.28c.34-10.75 1.92-25.58 2.81-26.47.56-.56 1.3 1.21 1.06 2.5l-.77 3.87a108.6 108.6 0 00-1.02 9.17c-.46 6.01-.4 6.9.54 10.06 2.07 6.85 3.11 8.89 5.06 9.92 2.24 1.18 2.82 1.22 3.82.21zm-8.45-38.15c0-.86 1.75-3.48 1.94-2.91.39 1.13-.37 3.2-1.17 3.2-.42 0-.77-.13-.77-.29zm8.3-1.6c.01-.53.35-1.76.74-2.75l.72-1.8-.11 2.53c-.06 1.49-.38 2.62-.75 2.75-.37.12-.63-.2-.6-.74zm8.1-1.52c-.13-.25.17-1.5.67-2.78l.92-2.32.03 1.83c.03 1.82-1.13 4.17-1.61 3.27zm-40.88-6a23.15 23.15 0 001.58-4.83c.3-1.85.18-2.23-.87-2.97-1.13-.79-1.23-.78-1.57.06-.2.5-.37 1.63-.4 2.5-.03 1.9-1 4.85-1.56 4.85-.22 0-.19-1.1.07-2.45.26-1.34.33-4.07.16-6.05-.64-7.43 2.35-16.42 7.27-21.86 2.95-3.26 4.84-4.18 8.65-4.18 2.44 0 2.83.15 3.16 1.16.3.96.41 1 .6.29.65-2.4-1.85-4.1-7.37-5.03-3.65-.6-3.7-.6-6.96 1.04-9.04 4.56-17.96 12.95-21.81 20.52l-.89 1.74 4.77 4.77c2.61 2.63 4.96 5.14 5.2 5.59.48.84 8 7.55 8.47 7.55.15 0 .82-1.21 1.5-2.7z"/><path fill="#246fd2" d="M84.02 193.92c-24.95-5.84-41.56-28.9-38.67-53.71.98-8.48 3.18-14.51 7.9-21.74 6.93-10.6 16.82-17.93 28.45-21.08 6-1.62 19.3-1.61 25.26.01 8 2.18 17.38 7.44 22.64 12.7 5.75 5.75 11.07 15.07 13.25 23.21 1.53 5.7 1.66 17.72.27 23.68-4.2 17.88-18.32 32-36.73 36.66-6.25 1.58-16.23 1.7-22.37.27zm23.2-2.58c2.13-.6 6.3-2.3 9.28-3.75 4.98-2.44 5.88-3.12 11.34-8.62 8.83-8.9 12.53-16.17 13.9-27.36 1.11-9.13-.63-19.44-4.64-27.42-2.68-5.34-5.14-8.57-10.25-13.46-5.89-5.62-13-9.43-21.51-11.52-3.97-.98-17.12-1.15-20.29-.27-1.35.38-1.5.52-.61.56 3 .13 6.02 2.95 6.6 6.16.18 1.03.55 2.15.82 2.5.65.81 6.68 2.73 8.62 2.73 1.38 0 3.4.72 7.76 2.78 1.87.88 6.05 6.3 7.18 9.31a41.1 41.1 0 011.56 7.24c1.56 12.18 2.07 17.21 2.62 26.03.32 5.25.92 10.56 1.32 11.82 1.27 3.95 1 5.62-1.26 7.72-1.34 1.25-2.1 2.48-2.34 3.8a9.41 9.41 0 01-1.93 3.73c-1.94 2.21-3.82 2.35-6.07.46l-1.58-1.33v2.39c0 2.72-1.66 4.92-3.72 4.91-2.61 0-6.23-3.12-7.8-6.72l-.77-1.78-.04 3.44c-.07 5.03-1.88 6.2-6.6 4.28-3.68-1.5-6.85-8.07-6.85-14.18 0-1.61-.15-4-.32-5.31-.3-2.11-.58-2.53-2.46-3.63a27.8 27.8 0 01-4.77-4.05c-4.53-4.78-5.87-8.6-4.9-13.87l.54-2.89-4.23-4.33c-2.32-2.39-6.41-6.7-9.1-9.6-2.68-2.9-5.04-5.27-5.26-5.27-.54 0-2.84 7.5-3.56 11.62-.88 5.07-.34 15.98 1.06 21.11 2.28 8.4 8.19 17.26 15.74 23.61 5.97 5.02 12.65 8.2 20.84 9.9 5.1 1.07 16.74.67 21.68-.74zm-2.58-4.16c1.48-.8 1.77-4.34.83-10.26-.77-4.9-2.13-26.75-1.69-27.2.11-.1.58.37 1.05 1.08.59.9.7 1.63.4 2.46-.41 1.09 1.04 21.6 1.73 24.5.4 1.67 4.04 5.3 5.32 5.3 1.38 0 2.68-1.94 3.02-4.5.15-1.12-.43-5.68-1.37-10.71-.9-4.82-1.76-11.27-1.92-14.33l-.3-5.57 1.5.24c.81.14 1.53.26 1.59.29.05.02-.24.84-.65 1.83-.4.98-.74 2.68-.74 3.77 0 3.53 3.45 21.76 4.12 21.76.2 0 .78-.93 1.29-2.07.9-2.01.9-2.2-.15-7.09a75.56 75.56 0 01-1.34-13c-.35-10.92-2.59-28.3-4-31.11-1.63-3.23-4.43-6.44-6.54-7.5a53.9 53.9 0 00-6.79-2.33 87.81 87.81 0 01-10-3.68c-6.85-3.07-7.89-3.03-11.37.46-4.26 4.25-7.5 11.65-7.5 17.11 0 1.9.22 2.27 1.94 3.38 1.7 1.1 1.97 1.56 2.25 3.82.17 1.42.14 2.8-.07 3.1-.22.27-1.11 2.62-2 5.2-2.18 6.4-2.21 10.72-.1 14.38 2.47 4.32 8.3 9.12 8.3 6.83-.03-3.86-1.18-9.56-2.33-11.53-1.28-2.19-1.18-2.94.23-1.62.56.54.62.38.32-.9-.32-1.4-.28-1.47.46-.75 1.23 1.2 2.23 7.02 2.85 16.47 1.2 18.59.9 16.86 3.6 19.68 2.13 2.2 2.66 2.49 4.57 2.49h2.15v-7.35c0-9.3 2.1-28.73 3.1-28.73.86 0 1.01 2.73.27 4.93a18.3 18.3 0 00-.8 4.9c0 1.42-.24 4.8-.54 7.5-.6 5.32-.57 5.47 2.46 13.74 1.08 2.92 1.59 3.65 3.17 4.48 2.21 1.18 2.42 1.2 3.68.53zm-8.25-38.43c0-.65 1.65-3.4 1.9-3.15.53.53-.45 3.43-1.16 3.43-.4 0-.74-.12-.74-.28zm8.54-2.42c.2-.92.55-2.14.78-2.7.32-.82.42-.63.45.85.03 2.19-.38 3.52-1.1 3.52-.3 0-.35-.68-.13-1.67zm7.98-.9c0-.43.33-1.7.74-2.84l.74-2.06.02 1.83a5.36 5.36 0 01-.73 2.84c-.57.76-.76.81-.77.23zm-41-5.8a23.15 23.15 0 001.58-4.83c.3-1.85.18-2.23-.87-2.97-1.13-.79-1.23-.78-1.57.06-.2.5-.37 1.63-.4 2.5-.03 1.9-1 4.85-1.56 4.85-.22 0-.19-1.1.07-2.45.26-1.34.33-4.07.16-6.05-.64-7.43 2.35-16.42 7.27-21.86 2.95-3.26 4.84-4.18 8.65-4.18 2.44 0 2.83.15 3.16 1.16.3.96.41 1 .6.29.65-2.4-1.85-4.1-7.37-5.03-3.65-.6-3.7-.6-6.96 1.04-9.04 4.56-17.96 12.95-21.81 20.52l-.89 1.74 4.77 4.77c2.61 2.63 4.96 5.14 5.2 5.59.48.84 8 7.55 8.47 7.55.15 0 .82-1.21 1.5-2.7z"/><path fill="#545a98" d="M84.02 193.92c-24.95-5.84-41.56-28.9-38.67-53.71.98-8.48 3.18-14.51 7.9-21.74 6.93-10.6 16.82-17.93 28.45-21.08 6-1.62 19.3-1.61 25.26.01 8 2.18 17.38 7.44 22.64 12.7 5.75 5.75 11.07 15.07 13.25 23.21 1.53 5.7 1.66 17.72.27 23.68-4.2 17.88-18.32 32-36.73 36.66-6.25 1.58-16.23 1.7-22.37.27zm21.4-2.08c13.3-3.23 22.64-10.1 30.28-22.27 11.04-17.57 7.83-42.67-7.36-57.7-8.67-8.59-18.87-13.07-31.23-13.71-6.8-.36-15.93.73-12.43 1.48 3.71.8 5.57 2.76 6.3 6.7.29 1.51.7 2 2.24 2.66a30.56 30.56 0 007.77 2.12c1.25.18 2.87.64 3.6 1.03.74.4 2.12 1 3.07 1.36 1.96.73 5.16 4.5 7.13 8.4 1.61 3.18 3.38 15.7 4.55 32.27.43 6.1 1.15 12.44 1.58 14.08 1 3.74.6 5.71-1.56 7.79a9.92 9.92 0 00-2.31 3.87c-.78 2.74-3.07 5.2-4.85 5.2-.71 0-2-.6-2.88-1.34l-1.58-1.33v2.25c0 3.28-1.08 4.54-3.88 4.54-2.77 0-5.32-1.99-7.21-5.62l-1.24-2.37-.02 3.31c-.04 4.89-1.48 6.04-5.75 4.61-2.5-.84-3.9-2.29-5.64-5.84-1.3-2.61-1.58-3.93-1.81-8.26-.42-7.75-.57-8.35-2.06-8.73-1.91-.48-8.1-6.86-9.54-9.83-.97-2-1.23-3.32-1.16-5.93.04-1.84.32-3.97.61-4.74.46-1.18.39-1.44-.45-1.7-.53-.17-3.24-2.8-6-5.83-6.71-7.37-11.67-12.47-12.12-12.47-.57 0-2.3 5.03-3.18 9.28-1.24 5.94-1.48 10.1-.87 15.46 1.3 11.5 4.98 19.3 13.11 27.76 7.14 7.43 15 11.8 24.78 13.76 5.12 1.03 15.33.9 20.1-.26zm-.78-4.66c1.48-.8 1.77-4.34.83-10.26-.77-4.9-2.13-26.75-1.69-27.2.11-.1.58.37 1.05 1.08.59.9.7 1.63.4 2.46-.41 1.09 1.04 21.6 1.73 24.5.4 1.67 4.04 5.3 5.32 5.3 1.38 0 2.68-1.94 3.02-4.5.15-1.12-.43-5.68-1.37-10.71-.9-4.82-1.76-11.27-1.92-14.33l-.3-5.57 1.5.24c.81.14 1.53.26 1.59.29.05.02-.24.84-.65 1.83-.4.98-.74 2.68-.74 3.77 0 3.53 3.45 21.76 4.12 21.76.2 0 .78-.93 1.29-2.07.9-2.01.9-2.2-.15-7.09a75.56 75.56 0 01-1.34-13c-.35-10.92-2.59-28.3-4-31.11-1.63-3.23-4.43-6.44-6.54-7.5a53.9 53.9 0 00-6.79-2.33 87.81 87.81 0 01-10-3.68c-6.85-3.07-7.89-3.03-11.37.46-4.26 4.25-7.5 11.65-7.5 17.11 0 1.9.22 2.27 1.94 3.38 1.7 1.1 1.97 1.56 2.25 3.82.17 1.42.14 2.8-.07 3.1-.22.27-1.11 2.62-2 5.2-2.18 6.4-2.21 10.72-.1 14.38 2.47 4.32 8.3 9.12 8.3 6.83-.03-3.86-1.18-9.56-2.33-11.53-1.28-2.19-1.18-2.94.23-1.62.56.54.62.38.32-.9-.32-1.4-.28-1.47.46-.75 1.23 1.2 2.23 7.02 2.85 16.47 1.2 18.59.9 16.86 3.6 19.68 2.13 2.2 2.66 2.49 4.57 2.49h2.15v-7.35c0-9.3 2.1-28.73 3.1-28.73.86 0 1.01 2.73.27 4.93a18.3 18.3 0 00-.8 4.9c0 1.42-.24 4.8-.54 7.5-.6 5.32-.57 5.47 2.46 13.74 1.08 2.92 1.59 3.65 3.17 4.48 2.21 1.18 2.42 1.2 3.68.53zm-8.25-38.43c0-.65 1.65-3.4 1.9-3.15.53.53-.45 3.43-1.16 3.43-.4 0-.74-.12-.74-.28zm8.54-2.42c.2-.92.55-2.14.78-2.7.32-.82.42-.63.45.85.03 2.19-.38 3.52-1.1 3.52-.3 0-.35-.68-.13-1.67zm7.98-.9c0-.43.33-1.7.74-2.84l.74-2.06.02 1.83a5.36 5.36 0 01-.73 2.84c-.57.76-.76.81-.77.23zm-41-5.8a23.15 23.15 0 001.58-4.83c.3-1.85.18-2.23-.87-2.97-1.13-.79-1.23-.78-1.57.06-.2.5-.37 1.63-.4 2.5-.03 1.9-1 4.85-1.56 4.85-.22 0-.19-1.1.07-2.45.26-1.34.33-4.07.16-6.05-.64-7.43 2.35-16.42 7.27-21.86 2.95-3.26 4.84-4.18 8.65-4.18 2.44 0 2.83.15 3.16 1.16.3.96.41 1 .6.29.65-2.4-1.85-4.1-7.37-5.03-3.65-.6-3.7-.6-6.96 1.04-9.04 4.56-17.96 12.95-21.81 20.52l-.89 1.74 4.77 4.77c2.61 2.63 4.96 5.14 5.2 5.59.48.84 8 7.55 8.47 7.55.15 0 .82-1.21 1.5-2.7z"/><path fill="#74614e" d="M85.05 194.12c-6.84-1.37-14.06-4.69-20.39-9.38a49.48 49.48 0 01-17.59-25.24c-1.29-4.2-1.4-5.23-1.42-13.82-.03-11 .43-13.17 4.61-21.65 6.98-14.15 18.48-23.49 33.09-26.87 6.3-1.47 17.47-1.25 23.9.46 19.9 5.28 34.1 21.73 36.56 42.32a48.14 48.14 0 01-14.52 40.97c-7.13 6.9-15.12 11.07-25.33 13.25-4.28.91-14.24.9-18.9-.04zm20.37-2.28c13.3-3.23 22.64-10.1 30.28-22.27 11.04-17.57 7.83-42.67-7.36-57.7-8.67-8.59-18.87-13.07-31.23-13.71-6.8-.36-15.93.73-12.43 1.48 3.71.8 5.57 2.76 6.3 6.7.29 1.51.7 2 2.24 2.66a30.56 30.56 0 007.77 2.12c1.25.18 2.87.64 3.6 1.03.74.4 2.12 1 3.07 1.36 1.96.73 5.16 4.5 7.13 8.4 1.61 3.18 3.38 15.7 4.55 32.27.43 6.1 1.15 12.44 1.58 14.08 1 3.74.6 5.71-1.56 7.79a9.92 9.92 0 00-2.31 3.87c-.78 2.74-3.07 5.2-4.85 5.2-.71 0-2-.6-2.88-1.34l-1.58-1.33v2.25c0 3.28-1.08 4.54-3.88 4.54-2.77 0-5.32-1.99-7.21-5.62l-1.24-2.37-.02 3.31c-.04 4.89-1.48 6.04-5.75 4.61-2.5-.84-3.9-2.29-5.64-5.84-1.3-2.61-1.58-3.93-1.81-8.26-.42-7.75-.57-8.35-2.06-8.73-1.91-.48-8.1-6.86-9.54-9.83-.97-2-1.23-3.32-1.16-5.93.04-1.84.32-3.97.61-4.74.46-1.18.39-1.44-.45-1.7-.53-.17-3.24-2.8-6-5.83-6.71-7.37-11.67-12.47-12.12-12.47-.57 0-2.3 5.03-3.18 9.28-1.24 5.94-1.48 10.1-.87 15.46 1.3 11.5 4.98 19.3 13.11 27.76 7.14 7.43 15 11.8 24.78 13.76 5.12 1.03 15.33.9 20.1-.26zm-.78-4.66c1.48-.8 1.77-4.34.83-10.26-.77-4.9-2.13-26.75-1.69-27.2.11-.1.58.37 1.05 1.08.59.9.7 1.63.4 2.46-.41 1.09 1.04 21.6 1.73 24.5.4 1.67 4.04 5.3 5.32 5.3 1.38 0 2.68-1.94 3.02-4.5.15-1.12-.43-5.68-1.37-10.71-.9-4.82-1.76-11.27-1.92-14.33l-.3-5.57 1.5.24c.81.14 1.53.26 1.59.29.05.02-.24.84-.65 1.83-.4.98-.74 2.68-.74 3.77 0 3.53 3.45 21.76 4.12 21.76.2 0 .78-.93 1.29-2.07.9-2.01.9-2.2-.15-7.09a75.56 75.56 0 01-1.34-13c-.35-10.92-2.59-28.3-4-31.11-1.63-3.23-4.43-6.44-6.54-7.5a53.9 53.9 0 00-6.79-2.33 87.81 87.81 0 01-10-3.68c-6.85-3.07-7.89-3.03-11.37.46-4.26 4.25-7.5 11.65-7.5 17.11 0 1.9.22 2.27 1.94 3.38 1.7 1.1 1.97 1.56 2.25 3.82.17 1.42.14 2.8-.07 3.1-.22.27-1.11 2.62-2 5.2-2.18 6.4-2.21 10.72-.1 14.38 2.47 4.32 8.3 9.12 8.3 6.83-.03-3.86-1.18-9.56-2.33-11.53-1.28-2.19-1.18-2.94.23-1.62.56.54.62.38.32-.9-.32-1.4-.28-1.47.46-.75 1.23 1.2 2.23 7.02 2.85 16.47 1.2 18.59.9 16.86 3.6 19.68 2.13 2.2 2.66 2.49 4.57 2.49h2.15v-7.35c0-9.3 2.1-28.73 3.1-28.73.86 0 1.01 2.73.27 4.93a18.3 18.3 0 00-.8 4.9c0 1.42-.24 4.8-.54 7.5-.6 5.32-.57 5.47 2.46 13.74 1.08 2.92 1.59 3.65 3.17 4.48 2.21 1.18 2.42 1.2 3.68.53zm-8.25-38.43c0-.65 1.65-3.4 1.9-3.15.53.53-.45 3.43-1.16 3.43-.4 0-.74-.12-.74-.28zm8.54-2.42c.2-.92.55-2.14.78-2.7.32-.82.42-.63.45.85.03 2.19-.38 3.52-1.1 3.52-.3 0-.35-.68-.13-1.67zm7.98-.9c0-.43.33-1.7.74-2.84l.74-2.06.02 1.83a5.36 5.36 0 01-.73 2.84c-.57.76-.76.81-.77.23zm-40.84-5.87a18.82 18.82 0 001.48-4.95c.26-2.17.16-2.55-.81-3.07-1.57-.84-2.11-.29-2.14 2.19a11.72 11.72 0 01-.68 3.7c-.57 1.33-.64.5-.46-5.92.23-8.42.96-12.16 3.32-17.01 2.03-4.17 6.65-8.96 9.12-9.45 3.43-.68 5.8-.43 6.09.65.14.55.58 1.12.98 1.27.9.35.9.18 0-1.98-1-2.4-2.53-3.26-7.03-3.96l-3.84-.6-3.87 1.94a64.25 64.25 0 00-6.96 4.14c-4.29 3.04-11 10.17-13.5 14.34l-2.08 3.49 8.96 9.03c4.93 4.97 9.25 8.95 9.6 8.85.35-.1 1.16-1.3 1.82-2.66z"/><path fill="#1d58ad" d="M85.05 194.12c-6.84-1.37-14.06-4.69-20.39-9.38a49.48 49.48 0 01-17.59-25.24c-1.29-4.2-1.4-5.23-1.42-13.82-.03-11 .43-13.17 4.61-21.65 6.98-14.15 18.48-23.49 33.09-26.87 6.3-1.47 17.47-1.25 23.9.46 19.9 5.28 34.1 21.73 36.56 42.32a48.14 48.14 0 01-14.52 40.97c-7.13 6.9-15.12 11.07-25.33 13.25-4.28.91-14.24.9-18.9-.04zm20.37-2.28c13.3-3.23 22.64-10.1 30.28-22.27 11.04-17.57 7.83-42.67-7.36-57.7-8.67-8.59-18.87-13.07-31.23-13.71-6.8-.36-15.93.73-12.43 1.48 3.71.8 5.57 2.76 6.3 6.7.29 1.51.7 2 2.24 2.66a30.56 30.56 0 007.77 2.12c1.25.18 2.87.64 3.6 1.03.74.4 2.12 1 3.07 1.36 1.96.73 5.16 4.5 7.13 8.4 1.61 3.18 3.38 15.7 4.55 32.27.43 6.1 1.15 12.44 1.58 14.08 1 3.74.6 5.71-1.56 7.79a9.92 9.92 0 00-2.31 3.87c-.78 2.74-3.07 5.2-4.85 5.2-.71 0-2-.6-2.88-1.34l-1.58-1.33v2.25c0 3.28-1.08 4.54-3.88 4.54-2.77 0-5.32-1.99-7.21-5.62l-1.24-2.37-.02 3.31c-.04 4.89-1.48 6.04-5.75 4.61-2.5-.84-3.9-2.29-5.64-5.84-1.3-2.61-1.58-3.93-1.81-8.26-.42-7.75-.57-8.35-2.06-8.73-1.91-.48-8.1-6.86-9.54-9.83-.97-2-1.23-3.32-1.16-5.93.04-1.84.32-3.97.61-4.74.46-1.18.39-1.44-.45-1.7-.53-.17-3.24-2.8-6-5.83-6.71-7.37-11.67-12.47-12.12-12.47-.57 0-2.3 5.03-3.18 9.28-1.24 5.94-1.48 10.1-.87 15.46 1.3 11.5 4.98 19.3 13.11 27.76 7.14 7.43 15 11.8 24.78 13.76 5.12 1.03 15.33.9 20.1-.26zm-12.06-5.56c.35-.9.43-3.43.23-6.83-.42-6.91 1.7-27.84 2.83-27.84.73 0 .78 2.25.1 4.29-.36 1.08-.9 5.49-1.2 9.8-.57 8.38-.49 8.97 2.24 16.32 1.34 3.61 2.13 4.5 4.66 5.27 1.89.56 2.11.52 3-.58 1.19-1.46 1.26-4.72.24-10.87-.4-2.41-.87-8.21-1.05-12.89a252.9 252.9 0 00-.6-11.08l-.28-2.58 1.02 1.26c.79.97.91 1.55.55 2.5-.66 1.74 1.31 23.83 2.3 25.73 2.27 4.38 5.28 5.5 7.04 2.6 1.4-2.29 1.3-4.7-.56-14.76-.94-5.05-1.62-10.56-1.68-13.44-.08-4.75-.05-4.87 1.08-4.82.63.02 1.28.07 1.43.1.15.03-.09.74-.52 1.58-.43.84-.78 2.79-.78 4.33 0 2.5 2.4 16.7 3.5 20.66l.42 1.51 1.13-1.83c1.33-2.14 1.4-3.76.35-7.63-.44-1.6-1-7.2-1.28-12.9-.65-13-2.6-28.38-4.01-31.55a22.7 22.7 0 00-3.8-5.22c-2.27-2.32-3.3-2.97-5.85-3.67-6.77-1.86-11.08-3.37-15.24-5.34-5.46-2.6-6.44-2.46-10.31 1.41-4.32 4.32-7.14 10.84-7.17 16.57-.01 2.16.16 2.48 2.06 3.87 1.65 1.2 2.03 1.78 1.86 2.78-.12.7-.02 1.78.22 2.41.24.64.25 1.23.02 1.32-.22.09-1.18 2.36-2.12 5.06-2.29 6.53-2.4 11.05-.39 14.5 1.36 2.31 7.2 8.18 8.16 8.18 1.45 0-.08-10.95-1.8-12.85-1.04-1.15-1.03-1.78.03-1.37.66.25.78.05.59-.96-.43-2.23.58-.87 1.42 1.93.44 1.47 1.03 5.93 1.3 9.9.83 12.29 1.6 20.6 1.96 21.2.88 1.48 3.8 4.4 4.85 4.81 2.22.9 3.47.62 4.05-.88zm3.9-39.04c1.03-2.13 1.33-2.08.88.17-.18.9-.64 1.62-1.03 1.62-.56 0-.53-.35.16-1.8zm7.7-.65c.2-.78.53-1.89.76-2.45.33-.85.4-.74.44.6.03 1.92-.4 3.26-1.07 3.26-.26 0-.31-.63-.12-1.41zm7.94-1.3c0-.06.33-1.17.74-2.44.52-1.68.73-1.96.75-1.03.04 1.76-.5 3.6-1.04 3.6-.26 0-.46-.05-.45-.12zm-40.83-5.73a18.82 18.82 0 001.48-4.95c.26-2.17.16-2.55-.81-3.07-1.57-.84-2.11-.29-2.14 2.19a11.72 11.72 0 01-.68 3.7c-.57 1.33-.64.5-.46-5.92.23-8.42.96-12.16 3.32-17.01 2.03-4.17 6.65-8.96 9.12-9.45 3.43-.68 5.8-.43 6.09.65.14.55.58 1.12.98 1.27.9.35.9.18 0-1.98-1-2.4-2.53-3.26-7.03-3.96l-3.84-.6-3.87 1.94a64.25 64.25 0 00-6.96 4.14c-4.29 3.04-11 10.17-13.5 14.34l-2.08 3.49 8.96 9.03c4.93 4.97 9.25 8.95 9.6 8.85.35-.1 1.16-1.3 1.82-2.66z"/><path fill="#152a8b" d="M85.05 194.12c-6.84-1.37-14.06-4.69-20.39-9.38a49.48 49.48 0 01-17.59-25.24c-1.29-4.2-1.4-5.23-1.42-13.82-.03-11 .43-13.17 4.61-21.65 6.98-14.15 18.48-23.49 33.09-26.87 6.3-1.47 17.47-1.25 23.9.46 19.9 5.28 34.1 21.73 36.56 42.32a48.14 48.14 0 01-14.52 40.97c-7.13 6.9-15.12 11.07-25.33 13.25-4.28.91-14.24.9-18.9-.04zm15.8-1.31A47.02 47.02 0 00129.43 178c5.76-6.26 8.83-11.52 11.13-19.01 1.27-4.17 1.38-5.26 1.38-13.3 0-8.09-.1-9.13-1.4-13.38-3.98-12.99-12.34-23.12-24.07-29.14-7.74-3.98-11.57-4.86-21.1-4.89-4.4 0-9.16.18-10.57.43l-2.58.45 2.56.66c3.2.82 5.68 3.35 6.18 6.3.26 1.55.69 2.22 1.73 2.7 2.12.98 5.89 2.06 7.2 2.06 1.08.01 5.88 1.78 8.83 3.26 1.53.77 4.95 5.33 6.33 8.46 1.33 3 3.25 17.36 4.3 32.1.42 6.1 1.13 12.43 1.57 14.06.94 3.53.68 4.67-1.6 7.08-.94 1-1.98 2.83-2.3 4.08-.7 2.62-3.02 5.2-4.69 5.2-.63 0-1.9-.57-2.8-1.27l-1.67-1.27-.25 2.65c-.3 3.07-1.24 4.01-4 4.01-2.41 0-5.69-2.7-7-5.79l-.95-2.2-.28 3.52c-.33 4.19-1.25 5.24-4.12 4.71-2.8-.51-4.36-1.54-5.9-3.86-2.2-3.34-2.94-6-3.21-11.59-.33-6.81-.41-7.1-2.2-7.89-2.7-1.18-7.68-6.45-9.18-9.7a14.9 14.9 0 01-.72-10.35c.42-1.41.35-1.7-.48-1.96-.53-.17-2.43-1.97-4.21-4a208.93 208.93 0 00-4.85-5.38c-.89-.91-2.38-2.54-3.31-3.61a52.2 52.2 0 00-3.9-3.9l-2.2-1.95-1.55 4.82c-4.78 14.91-2.63 30.41 5.86 42.38 2.94 4.13 10.6 11.44 14.44 13.76 5.22 3.16 12.03 5.48 19.84 6.76 2.6.43 7.24.34 11.16-.2zm-7.49-6.53c.35-.9.43-3.43.23-6.83-.42-6.91 1.7-27.84 2.83-27.84.73 0 .78 2.25.1 4.29-.36 1.08-.9 5.49-1.2 9.8-.57 8.38-.49 8.97 2.24 16.32 1.34 3.61 2.13 4.5 4.66 5.27 1.89.56 2.11.52 3-.58 1.19-1.46 1.26-4.72.24-10.87-.4-2.41-.87-8.21-1.05-12.89a252.9 252.9 0 00-.6-11.08l-.28-2.58 1.02 1.26c.79.97.91 1.55.55 2.5-.66 1.74 1.31 23.83 2.3 25.73 2.27 4.38 5.28 5.5 7.04 2.6 1.4-2.29 1.3-4.7-.56-14.76-.94-5.05-1.62-10.56-1.68-13.44-.08-4.75-.05-4.87 1.08-4.82.63.02 1.28.07 1.43.1.15.03-.09.74-.52 1.58-.43.84-.78 2.79-.78 4.33 0 2.5 2.4 16.7 3.5 20.66l.42 1.51 1.13-1.83c1.33-2.14 1.4-3.76.35-7.63-.44-1.6-1-7.2-1.28-12.9-.65-13-2.6-28.38-4.01-31.55a22.7 22.7 0 00-3.8-5.22c-2.27-2.32-3.3-2.97-5.85-3.67-6.77-1.86-11.08-3.37-15.24-5.34-5.46-2.6-6.44-2.46-10.31 1.41-4.32 4.32-7.14 10.84-7.17 16.57-.01 2.16.16 2.48 2.06 3.87 1.65 1.2 2.03 1.78 1.86 2.78-.12.7-.02 1.78.22 2.41.24.64.25 1.23.02 1.32-.22.09-1.18 2.36-2.12 5.06-2.29 6.53-2.4 11.05-.39 14.5 1.36 2.31 7.2 8.18 8.16 8.18 1.45 0-.08-10.95-1.8-12.85-1.04-1.15-1.03-1.78.03-1.37.66.25.78.05.59-.96-.43-2.23.58-.87 1.42 1.93.44 1.47 1.03 5.93 1.3 9.9.83 12.29 1.6 20.6 1.96 21.2.88 1.48 3.8 4.4 4.85 4.81 2.22.9 3.47.62 4.05-.88zm3.9-39.04c1.03-2.13 1.33-2.08.88.17-.18.9-.64 1.62-1.03 1.62-.56 0-.53-.35.16-1.8zm7.7-.65c.2-.78.53-1.89.76-2.45.33-.85.4-.74.44.6.03 1.92-.4 3.26-1.07 3.26-.26 0-.31-.63-.12-1.41zm7.94-1.3c0-.06.33-1.17.74-2.44.52-1.68.73-1.96.75-1.03.04 1.76-.5 3.6-1.04 3.6-.26 0-.46-.05-.45-.12zm-40.83-5.73a18.82 18.82 0 001.48-4.95c.26-2.17.16-2.55-.81-3.07-1.57-.84-2.11-.29-2.14 2.19a11.72 11.72 0 01-.68 3.7c-.57 1.33-.64.5-.46-5.92.23-8.42.96-12.16 3.32-17.01 2.03-4.17 6.65-8.96 9.12-9.45 3.43-.68 5.8-.43 6.09.65.14.55.58 1.12.98 1.27.9.35.9.18 0-1.98-1-2.4-2.53-3.26-7.03-3.96l-3.84-.6-3.87 1.94a64.25 64.25 0 00-6.96 4.14c-4.29 3.04-11 10.17-13.5 14.34l-2.08 3.49 8.96 9.03c4.93 4.97 9.25 8.95 9.6 8.85.35-.1 1.16-1.3 1.82-2.66z"/><path fill="#010365" d="M85.49 194.13C70 191.05 57.27 181.2 50 166.68c-3.56-7.11-4.32-10.83-4.32-21.25 0-8.36.1-9.36 1.39-13.55 7.23-23.5 28.84-38.12 52.51-35.54 24.42 2.67 42.5 21.38 44.47 46 .62 7.88-1.33 18.22-4.74 25-3.78 7.5-11.1 15.54-18.18 19.95a58.67 58.67 0 01-17.11 6.8c-4.77.99-13.7 1-18.53.04zm18.38-1.74c10.38-2.16 17.94-6.38 25.32-14.14 9.22-9.7 13.08-19.31 13.08-32.57 0-13.17-4.24-23.92-13.06-33.1C119.76 102.73 108.65 98 94.95 98a74 74 0 00-9.85.6l-3.4.6 2.72.62c3.73.85 6.3 3.47 6.3 6.4 0 .59.45 1.5.98 2.04 1 1 5.8 2.63 7.75 2.63.6 0 2.94.7 5.19 1.58 7.22 2.78 10.78 8.1 12.12 18.1a434.27 434.27 0 012.81 28.12c.3 4.6.78 8.97 1.06 9.7.28.73.5 2.34.5 3.56 0 1.9-.26 2.47-1.77 3.8a7.92 7.92 0 00-2.37 3.78c-1.24 4.62-3.8 6.43-6.7 4.72-.84-.5-1.52-1.08-1.52-1.3 0-.23-.24-.41-.52-.41s-.51.9-.51 2c0 6.75-7.62 5.95-11-1.17a19.72 19.72 0 00-1.52-2.9c-.1 0-.07 1.48.05 3.29.27 4.3-.36 5.48-2.94 5.48-4.1 0-5.79-1.25-8.26-6.1-1.17-2.28-2.1-8.3-2.1-13.56 0-2.67-.11-2.93-1.3-3.23-2.1-.53-8.31-6.77-9.84-9.9-1.21-2.48-1.34-3.23-1.11-6.53.15-2.04.42-4.08.6-4.53.23-.54-.09-1.03-.96-1.5-.7-.37-3.32-3.03-5.8-5.89a209.85 209.85 0 00-8.34-9.02l-3.82-3.81-.68 1.3a53.9 53.9 0 00-2.08 5.88c-1.26 4.13-1.4 5.37-1.42 12.82-.02 7 .16 8.9 1.15 12.63 3.24 12.11 12.64 23.92 23.71 29.77 9.97 5.26 21.33 6.99 31.79 4.82zm-10.5-6.11c.34-.9.42-3.43.22-6.83-.42-6.91 1.7-27.84 2.83-27.84.73 0 .78 2.25.1 4.29-.36 1.08-.9 5.49-1.2 9.8-.57 8.38-.49 8.97 2.24 16.32 1.34 3.61 2.13 4.5 4.66 5.27 1.89.56 2.11.52 3-.58 1.19-1.46 1.26-4.72.24-10.87-.4-2.41-.87-8.21-1.05-12.89a252.9 252.9 0 00-.6-11.08l-.28-2.58 1.02 1.26c.79.97.91 1.55.55 2.5-.66 1.74 1.31 23.83 2.3 25.73 2.27 4.38 5.28 5.5 7.04 2.6 1.4-2.29 1.3-4.7-.56-14.76-.94-5.05-1.62-10.56-1.68-13.44-.08-4.75-.05-4.87 1.08-4.82.63.02 1.28.07 1.43.1.15.03-.09.74-.52 1.58-.43.84-.78 2.79-.78 4.33 0 2.5 2.4 16.7 3.5 20.66l.42 1.51 1.13-1.83c1.33-2.14 1.4-3.76.35-7.63-.44-1.6-1-7.2-1.28-12.9-.65-13-2.6-28.38-4.01-31.55a22.7 22.7 0 00-3.8-5.22c-2.27-2.32-3.3-2.97-5.85-3.67-6.77-1.86-11.08-3.37-15.24-5.34-5.46-2.6-6.44-2.46-10.31 1.41-4.32 4.32-7.14 10.84-7.17 16.57-.01 2.16.16 2.48 2.06 3.87 1.65 1.2 2.03 1.78 1.86 2.78-.12.7-.02 1.78.22 2.41.24.64.25 1.23.02 1.32-.22.09-1.18 2.36-2.12 5.06-2.29 6.53-2.4 11.05-.39 14.5 1.36 2.31 7.2 8.18 8.16 8.18 1.45 0-.08-10.95-1.8-12.85-1.04-1.15-1.03-1.78.03-1.37.66.25.78.05.59-.96-.43-2.23.58-.87 1.42 1.93.44 1.47 1.03 5.93 1.3 9.9.83 12.29 1.6 20.6 1.96 21.2.88 1.48 3.8 4.4 4.85 4.81 2.22.9 3.47.62 4.05-.88zm3.9-39.04c1.02-2.13 1.32-2.08.87.17-.18.9-.64 1.62-1.03 1.62-.56 0-.53-.35.16-1.8zm7.7-.65c.19-.78.52-1.89.75-2.45.33-.85.4-.74.44.6.03 1.92-.4 3.26-1.07 3.26-.26 0-.31-.63-.12-1.41zm7.93-1.3c0-.06.33-1.17.74-2.44.52-1.68.73-1.96.75-1.03.04 1.76-.5 3.6-1.04 3.6-.26 0-.46-.05-.45-.12zm-40.78-5.74c.68-1.36 1.35-3.6 1.48-4.95.2-2.13.08-2.56-.87-3.06-1.48-.8-2.1-.3-2.11 1.67 0 1.6-.96 5.8-1.24 5.43-.08-.1.02-3.88.21-8.42.3-6.89.57-8.85 1.65-11.9 1.6-4.56 4.47-8.95 7.43-11.37 1.93-1.58 2.73-1.89 5.6-2.12 3.23-.26 3.35-.22 3.85 1.1.53 1.39 1.58 1.86 1.57.7 0-1.04-1.92-3.88-3.03-4.47-.57-.3-2.77-.82-4.9-1.15l-3.85-.6-3.77 1.81c-7.95 3.83-16.67 11.89-20.8 19.22l-1.74 3.08 4.53 4.4c2.5 2.42 5.21 5.2 6.05 6.2 2.13 2.54 7.57 7.23 8.18 7.05.29-.08 1.08-1.26 1.76-2.62z"/><path fill="#050606" d="M88.38 188.44c-1.8-.89-4.54-5.12-5.32-8.22a63.15 63.15 0 01-.87-7.82c-.34-5.5-.41-5.77-1.58-6.07-2.11-.53-8.1-6.65-9.7-9.9-1.3-2.66-1.42-3.34-1.17-6.6.16-2 .41-3.98.58-4.4.18-.49-.27-1.16-1.2-1.8-.8-.57-3.72-3.59-6.47-6.7a205.62 205.62 0 00-8.09-8.7c-1.7-1.65-2.99-3.1-2.88-3.21.27-.27 7.9 7.11 10.16 9.8a52.85 52.85 0 004.98 4.83c3.82 3.26 4.19 3.18 5.84-1.25 1.38-3.68 1.38-6.16.01-6.9-1.52-.81-1.87-.35-2.25 2.96-.62 5.45-1.15 4.34-.96-2.05.24-8.65.94-12.59 3-16.88 3.45-7.2 6.56-10.02 11.62-10.57 3.25-.34 3.36-.31 3.95.98.83 1.83 1.88 1.77 1.42-.08-.72-2.9-3.04-4.36-8-5.03-2.53-.34-2.7-.44-1.55-.88 1.68-.64 5.98-.14 7.53.88a7.9 7.9 0 013.26 5.31c.4 2.45 2.12 3.43 8.3 4.75 2.64.57 5.28 1.34 5.87 1.72.59.38 1.69.85 2.44 1.03.76.19 2.36 1.44 3.55 2.79a23.42 23.42 0 015.62 12.56c.25 2.1.81 6.7 1.26 10.25.45 3.54 1.14 11.2 1.55 17.01.4 5.81.99 11.22 1.3 12.02.3.8.56 2.4.56 3.56 0 1.79-.32 2.4-2.06 4.07-1.24 1.17-2.07 2.43-2.07 3.14 0 1.23-1.76 4.5-2.77 5.17-1.15.75-3.77.4-4.7-.64-1.35-1.5-1.64-1.3-1.93 1.31-.33 2.9-1.57 4.36-3.7 4.36-2.53 0-5.26-2.21-7.01-5.69-.85-1.69-1.69-3.07-1.85-3.07-.17 0-.15 1.33.04 2.96.2 1.72.12 3.56-.2 4.38-.47 1.25-.8 1.42-2.73 1.4-1.22 0-2.92-.35-3.78-.78zm4.98-2.16c.35-.9.43-3.43.23-6.83-.42-6.91 1.7-27.84 2.83-27.84.73 0 .78 2.25.1 4.29-.36 1.08-.9 5.49-1.2 9.8-.57 8.38-.49 8.97 2.24 16.32 1.34 3.61 2.13 4.5 4.66 5.27 1.89.56 2.11.52 3-.58 1.19-1.46 1.26-4.72.24-10.87-.4-2.41-.87-8.21-1.05-12.89a252.9 252.9 0 00-.6-11.08l-.28-2.58 1.02 1.26c.79.97.91 1.55.55 2.5-.66 1.74 1.31 23.83 2.3 25.73 2.27 4.38 5.28 5.5 7.04 2.6 1.4-2.29 1.3-4.7-.56-14.76-.94-5.05-1.62-10.56-1.68-13.44-.08-4.75-.05-4.87 1.08-4.82.63.02 1.28.07 1.43.1.15.03-.09.74-.52 1.58-.43.84-.78 2.79-.78 4.33 0 2.5 2.4 16.7 3.5 20.66l.42 1.51 1.13-1.83c1.33-2.14 1.4-3.76.35-7.63-.44-1.6-1-7.2-1.28-12.9-.65-13-2.6-28.38-4.01-31.55a22.7 22.7 0 00-3.8-5.22c-2.27-2.32-3.3-2.97-5.85-3.67-6.77-1.86-11.08-3.37-15.24-5.34-5.46-2.6-6.44-2.46-10.31 1.41-4.32 4.32-7.14 10.84-7.17 16.57-.01 2.16.16 2.48 2.06 3.87 1.65 1.2 2.03 1.78 1.86 2.78-.12.7-.02 1.78.22 2.41.24.64.25 1.23.02 1.32-.22.09-1.18 2.36-2.12 5.06-2.29 6.53-2.4 11.05-.39 14.5 1.36 2.31 7.2 8.18 8.16 8.18 1.45 0-.08-10.95-1.8-12.85-1.04-1.15-1.03-1.78.03-1.37.66.25.78.05.59-.96-.43-2.23.58-.87 1.42 1.93.44 1.47 1.03 5.93 1.3 9.9.83 12.29 1.6 20.6 1.96 21.2.88 1.48 3.8 4.4 4.85 4.81 2.22.9 3.47.62 4.05-.88zm3.9-39.04c1.03-2.13 1.33-2.08.88.17-.18.9-.64 1.62-1.03 1.62-.56 0-.53-.35.16-1.8zm7.7-.65c.2-.78.53-1.89.76-2.45.33-.85.4-.74.44.6.03 1.92-.4 3.26-1.07 3.26-.26 0-.31-.63-.12-1.41zm7.94-1.3c0-.06.33-1.17.74-2.44.52-1.68.73-1.96.75-1.03.04 1.76-.5 3.6-1.04 3.6-.26 0-.46-.05-.45-.12z"/><path fill="#fcfc81" d="M239.1 194.82c-9.08-2.38-15.33-5.93-22.33-12.67-7.67-7.4-11.84-14.34-14.2-23.66-1.58-6.22-1.79-16.92-.46-23.36 3.6-17.5 18.75-33.29 36.3-37.84 6.33-1.64 18.91-1.66 25.36-.03 13.7 3.45 26.67 14.33 32.85 27.53a51.08 51.08 0 012.5 36c-5.03 16.34-18.96 29.6-35.73 34-5.56 1.45-18.8 1.47-24.3.03z"/><path fill="#fcfc6b" d="M239.1 194.82c-9.08-2.38-15.33-5.93-22.33-12.67-7.67-7.4-11.84-14.34-14.2-23.66-1.58-6.22-1.79-16.92-.46-23.36 3.6-17.5 18.75-33.29 36.3-37.84 6.33-1.64 18.91-1.66 25.36-.03 13.7 3.45 26.67 14.33 32.85 27.53a51.08 51.08 0 012.5 36c-5.03 16.34-18.96 29.6-35.73 34-5.56 1.45-18.8 1.47-24.3.03zm10.97-16.77c-1.04-2.7-8.64-11.76-9.26-11.04-1.02 1.19-4.98 7.57-4.98 8.02 0 .33.4.77.9.98 6.1 2.56 14 3.77 13.34 2.04zm-17.17-32.6c.28-.48-1.6-8.85-3.8-16.82l-1.7-6.14-1.58 1.94c-4.45 5.41-7.04 11.3-7.76 17.63-.35 3.06-.32 3.2.84 3.41 2.1.4 13.76.39 14-.01zm30.16-1.82a49.48 49.48 0 012.3-6.06 51.67 51.67 0 002.67-7.7c1.2-4.99 1.58-5.68 3.16-5.68 3.39 0 4.55 2.46 4.05 8.6-.29 3.54-1.55 9.48-2.58 12.15-.32.83.15.9 5.7.9h6.04l-.37-3.47c-1.01-9.4-6.56-18.67-14.25-23.8l-3.19-2.14-1.2 2.03c-1.04 1.74-1.29 3.13-1.75 9.94a138.9 138.9 0 01-1.29 12.07c-.88 4.86-.9 5.37-.3 5.37.25 0 .7-1 1.01-2.2zm-24.89-19.28c-.83-4.9-1.8-7.37-2.9-7.37-.3 0-1 .24-1.57.54-.99.53-.97.6.47 2.24.82.94 2.14 3.59 2.95 5.9.8 2.3 1.56 4.1 1.68 3.97.13-.12-.16-2.5-.63-5.28z"/><path fill="#feca97" d="M239.1 194.82c-9.08-2.38-15.33-5.93-22.33-12.67-7.67-7.4-11.84-14.34-14.2-23.66-1.58-6.22-1.79-16.92-.46-23.36 3.6-17.5 18.75-33.29 36.3-37.84 6.33-1.64 18.91-1.66 25.36-.03 13.7 3.45 26.67 14.33 32.85 27.53a51.08 51.08 0 012.5 36c-5.03 16.34-18.96 29.6-35.73 34-5.56 1.45-18.8 1.47-24.3.03zm12.7-10.75c0-3.62-3.77-10.38-8.25-14.77-2.15-2.11-2.72-2.44-3.11-1.8l-4.28 6.7c-3.68 5.75-3.76 5.94-2.7 6.55 3.56 2.08 11.37 4.12 16.15 4.22 1.8.04 2.2-.12 2.2-.9zm-18.95-38.51c.39-.4-1.2-7.47-4-17.83-2.66-9.8-2.6-10.75.54-10.75 2.91 0 5.92 3.36 7.73 8.63.8 2.34 1.56 4.15 1.68 4.02.13-.12-.16-2.5-.63-5.28-.77-4.48-1.13-5.45-3.27-8.58a32.92 32.92 0 00-2.84-3.79c-1.22-.75-8.82 5.76-12.76 10.92-3.98 5.24-7.19 14.3-7.19 20.32v2.06l4 .18c7.54.33 16.45.38 16.74.1zm30.21-1.93a49.48 49.48 0 012.3-6.06 51.67 51.67 0 002.67-7.7c1.2-4.99 1.58-5.68 3.16-5.68 3.39 0 4.55 2.46 4.05 8.6-.29 3.54-1.55 9.48-2.58 12.15-.32.84.3.9 8.62.9h8.98l-.37-3.73c-.93-9.53-4.61-17.28-11.5-24.18-3.64-3.65-8.4-6.98-9.04-6.33-.26.26-1.53 2.4-2.83 4.75l-2.35 4.26-.53 7.85c-.3 4.32-.87 9.72-1.29 12.01-.88 4.86-.9 5.37-.3 5.37.25 0 .7-1 1.01-2.2z"/><path fill="#fdfc49" d="M243.3 195.63c-.28-.1-2.21-.59-4.28-1.07-16.48-3.78-30.73-17.47-36-34.57-1.35-4.34-1.43-5.17-1.42-14.15.01-8.86.11-9.85 1.4-14.06 2.57-8.39 5.9-13.84 12.58-20.63 8.83-8.98 17.74-13.45 29.54-14.82 16.25-1.89 30.8 3.32 42 15.04 4.85 5.09 8.47 10.57 10.58 16.05 7.64 19.82 2.34 42.16-13.24 55.8-6.66 5.85-11 8.35-18.74 10.8-3.87 1.23-5.4 1.42-13.14 1.6-4.82.12-9 .12-9.28.01zm19.5-3.15c3.8-.94 9.07-3.06 12-4.81 2.1-1.26 2.14-1.32 2.71-5.44 1.15-8.19.39-13.12-3.06-19.97-1.8-3.57-5.17-7.55-6.13-7.23-.5.17-.6-.03-.3-.74.22-.54 1.44-4.45 2.7-8.7 3.43-11.57 3.9-18.2 1.38-19.17-1.14-.44-2.09.93-2.53 3.62-.45 2.76-2.18 7.9-3.32 9.88a34.5 34.5 0 00-2.05 5.74l-1.17 4.2 3.67 5.29c2.01 2.91 3.66 5.63 3.66 6.03 0 .4.47 1.33 1.03 2.05 1.04 1.31 1.45 3.55.56 3-.27-.16-.57.11-.69.61-.12.52-.61-.43-1.14-2.18-1.06-3.53-4.75-9.53-9.14-14.9-3.09-3.76-3.55-4.85-4.49-10.6-.56-3.47-3.8-10.87-6.04-13.8-1.83-2.4-3.58-2.3-4.29.25-.8 2.85-.66 5.4.5 9.96a24.84 24.84 0 01.18 12.8c-.72 3.26-2.58 7.27-3.37 7.27-.4 0 .15-1.81 1.14-3.65.67-1.26-.08-1.32-1.86-.15-.7.46-1.43.7-1.6.53-.54-.54.86-1.8 2.65-2.4 1.3-.43 1.77-.93 2.02-2.15.62-3.1.3-8.66-.75-13.08-.8-3.34-.98-5.3-.73-7.65.42-3.91-.7-7.2-2.84-8.3-1.8-.94-2.07-.64-2.07 2.32 0 7.9 2.54 22.1 4.47 25.05.74 1.12.7 1.16-.82 1.12-1.2-.04-1.58-.29-1.58-1.04 0-1.99-2.6-11.13-4.84-17.03-2.34-6.14-4.03-8.83-6.37-10.09-2.52-1.36-2.49-.14.28 9.81 3.2 11.55 3.7 14.25 4.2 23.09l.4 6.95 2.52 2.05c7.3 5.93 13.9 14.48 15.23 19.73.68 2.72.33 10.76-.5 11.6-.34.33-.62.83-.62 1.1 0 .65 6.94.04 11-.97zm-11-8.41c0-3.62-3.77-10.38-8.25-14.77-2.15-2.11-2.72-2.44-3.11-1.8l-4.28 6.7c-3.68 5.75-3.76 5.94-2.7 6.55 3.56 2.08 11.37 4.12 16.15 4.22 1.8.04 2.2-.12 2.2-.9zm-18.95-38.51c.39-.4-1.2-7.47-4-17.83-2.66-9.8-2.6-10.75.54-10.75 2.91 0 5.92 3.36 7.73 8.63.8 2.34 1.56 4.15 1.68 4.02.13-.12-.16-2.5-.63-5.28-.77-4.48-1.13-5.45-3.27-8.58a32.92 32.92 0 00-2.84-3.79c-1.22-.75-8.82 5.76-12.76 10.92-3.98 5.24-7.19 14.3-7.19 20.32v2.06l4 .18c7.54.33 16.45.38 16.74.1zm30.21-1.93a49.48 49.48 0 012.3-6.06 51.67 51.67 0 002.67-7.7c1.2-4.99 1.58-5.68 3.16-5.68 3.39 0 4.55 2.46 4.05 8.6-.29 3.54-1.55 9.48-2.58 12.15-.32.84.3.9 8.62.9h8.98l-.37-3.73c-.93-9.53-4.61-17.28-11.5-24.18-3.64-3.65-8.4-6.98-9.04-6.33-.26.26-1.53 2.4-2.83 4.75l-2.35 4.26-.53 7.85c-.3 4.32-.87 9.72-1.29 12.01-.88 4.86-.9 5.37-.3 5.37.25 0 .7-1 1.01-2.2zm-2.28-3.71c1.13-7.02 1.9-19.15 1.31-20.68-.74-1.96-2.31-1.56-3.27.83-1.37 3.43-2.63 12.76-1.97 14.64.31.88.82 3.07 1.14 4.87.6 3.37 1.43 6.04 1.77 5.69.1-.11.56-2.52 1.02-5.35z"/><path fill="#dddd81" d="M243.3 195.63c-.28-.1-2.21-.59-4.28-1.07-16.48-3.78-30.73-17.47-36-34.57-1.35-4.34-1.43-5.17-1.42-14.15.01-8.86.11-9.85 1.4-14.06 2.57-8.39 5.9-13.84 12.58-20.63 8.83-8.98 17.74-13.45 29.54-14.82 16.25-1.89 30.8 3.32 42 15.04 4.85 5.09 8.47 10.57 10.58 16.05 7.64 19.82 2.34 42.16-13.24 55.8-6.66 5.85-11 8.35-18.74 10.8-3.87 1.23-5.4 1.42-13.14 1.6-4.82.12-9 .12-9.28.01zm19.5-3.15c3.8-.94 9.07-3.06 12-4.81 2.1-1.26 2.14-1.32 2.71-5.44 1.15-8.19.39-13.12-3.06-19.97-1.8-3.57-5.17-7.55-6.13-7.23-.5.17-.6-.03-.3-.74.22-.54 1.44-4.45 2.7-8.7 3.43-11.57 3.9-18.2 1.38-19.17-1.14-.44-2.09.93-2.53 3.62-.45 2.76-2.18 7.9-3.32 9.88a34.5 34.5 0 00-2.05 5.74l-1.17 4.2 3.67 5.29c2.01 2.91 3.66 5.63 3.66 6.03 0 .4.47 1.33 1.03 2.05 1.04 1.31 1.45 3.55.56 3-.27-.16-.57.11-.69.61-.12.52-.61-.43-1.14-2.18-1.06-3.53-4.75-9.53-9.14-14.9-3.09-3.76-3.55-4.85-4.49-10.6-.56-3.47-3.8-10.87-6.04-13.8-1.83-2.4-3.58-2.3-4.29.25-.8 2.85-.66 5.4.5 9.96a24.84 24.84 0 01.18 12.8c-.72 3.26-2.58 7.27-3.37 7.27-.4 0 .15-1.81 1.14-3.65.67-1.26-.08-1.32-1.86-.15-.7.46-1.43.7-1.6.53-.54-.54.86-1.8 2.65-2.4 1.3-.43 1.77-.93 2.02-2.15.62-3.1.3-8.66-.75-13.08-.8-3.34-.98-5.3-.73-7.65.42-3.91-.7-7.2-2.84-8.3-1.8-.94-2.07-.64-2.07 2.32 0 7.9 2.54 22.1 4.47 25.05.74 1.12.7 1.16-.82 1.12-1.2-.04-1.58-.29-1.58-1.04 0-1.99-2.6-11.13-4.84-17.03-2.34-6.14-4.03-8.83-6.37-10.09-2.52-1.36-2.49-.14.28 9.81 3.2 11.55 3.7 14.25 4.2 23.09l.4 6.95 2.52 2.05c7.3 5.93 13.9 14.48 15.23 19.73.68 2.72.33 10.76-.5 11.6-.34.33-.62.83-.62 1.1 0 .65 6.94.04 11-.97zm-11-7.38c0-4.66-3.26-10.91-8.25-15.8-2.15-2.11-2.72-2.44-3.11-1.8l-4.87 7.64a139.7 139.7 0 00-4.38 7.11c0 .49 6 2.9 9.53 3.82 1.99.53 5.3.97 7.35.98l3.73.03zm-18.95-39.54c.39-.4-1.2-7.47-4-17.83-2.66-9.8-2.6-10.75.54-10.75 2.91 0 5.92 3.36 7.73 8.63.8 2.34 1.56 4.15 1.68 4.02.13-.12-.16-2.5-.63-5.28-.88-5.13-2.09-7.55-6.6-13.2l-1.16-1.45-3.7 2.6c-9.23 6.47-15.78 17.9-16.94 29.53l-.35 3.46 5.34.17c10.82.34 17.8.38 18.09.1zm30.21-1.93a49.48 49.48 0 012.3-6.06 51.67 51.67 0 002.67-7.7c1.2-4.99 1.58-5.68 3.16-5.68 3.39 0 4.55 2.46 4.05 8.6-.29 3.54-1.55 9.48-2.58 12.15-.32.84.35.9 9.76.9h10.1v-2.34c0-3.4-1.41-9.78-3.03-13.65-1.9-4.55-5.23-9.35-9.3-13.43-3.03-3.03-8.46-7.17-9.4-7.17-.2 0-1.77 2.56-3.49 5.69l-3.13 5.7-.53 7.83a140.6 140.6 0 01-1.29 12c-.88 4.86-.9 5.37-.3 5.37.25 0 .7-1 1.01-2.2zm-2.28-3.71c1.13-7.02 1.9-19.15 1.31-20.68-.74-1.96-2.31-1.56-3.27.83-1.37 3.43-2.63 12.76-1.97 14.64.31.88.82 3.07 1.14 4.87.6 3.37 1.43 6.04 1.77 5.69.1-.11.56-2.52 1.02-5.35z"/><path fill="#f0b687" d="M243.3 195.63c-.28-.1-2.21-.59-4.28-1.07-16.48-3.78-30.73-17.47-36-34.57-1.35-4.34-1.43-5.17-1.42-14.15.01-8.86.11-9.85 1.4-14.06 2.57-8.39 5.9-13.84 12.58-20.63 8.83-8.98 17.74-13.45 29.54-14.82 16.25-1.89 30.8 3.32 42 15.04 4.85 5.09 8.47 10.57 10.58 16.05 7.64 19.82 2.34 42.16-13.24 55.8-6.66 5.85-11 8.35-18.74 10.8-3.87 1.23-5.4 1.42-13.14 1.6-4.82.12-9 .12-9.28.01zm19.5-3.15c3.8-.94 9.07-3.06 12-4.81 2.1-1.26 2.14-1.32 2.71-5.44 1.15-8.19.39-13.12-3.06-19.97-1.8-3.57-5.17-7.55-6.13-7.23-.5.17-.6-.03-.3-.74.22-.54 1.44-4.45 2.7-8.7 3.43-11.57 3.9-18.2 1.38-19.17-1.14-.44-2.09.93-2.53 3.62-.45 2.76-2.18 7.9-3.32 9.88a34.5 34.5 0 00-2.05 5.74l-1.17 4.2 3.67 5.29c2.01 2.91 3.66 5.63 3.66 6.03 0 .4.47 1.33 1.03 2.05 1.04 1.31 1.45 3.55.56 3-.27-.16-.57.11-.69.61-.12.52-.61-.43-1.14-2.18-1.06-3.53-4.75-9.53-9.14-14.9-3.09-3.76-3.55-4.85-4.49-10.6-.56-3.47-3.8-10.87-6.04-13.8-1.83-2.4-3.58-2.3-4.29.25-.8 2.85-.66 5.4.5 9.96a24.84 24.84 0 01.18 12.8c-.72 3.26-2.58 7.27-3.37 7.27-.4 0 .15-1.81 1.14-3.65.67-1.26-.08-1.32-1.86-.15-.7.46-1.43.7-1.6.53-.54-.54.86-1.8 2.65-2.4 1.3-.43 1.77-.93 2.02-2.15.62-3.1.3-8.66-.75-13.08-.8-3.34-.98-5.3-.73-7.65.42-3.91-.7-7.2-2.84-8.3-1.8-.94-2.07-.64-2.07 2.32 0 7.9 2.54 22.1 4.47 25.05.74 1.12.7 1.16-.82 1.12-1.2-.04-1.58-.29-1.58-1.04 0-1.99-2.6-11.13-4.84-17.03-2.34-6.14-4.03-8.83-6.37-10.09-2.52-1.36-2.49-.14.28 9.81 3.2 11.55 3.7 14.25 4.2 23.09l.4 6.95 2.52 2.05c7.3 5.93 13.9 14.48 15.23 19.73.68 2.72.33 10.76-.5 11.6-.34.33-.62.83-.62 1.1 0 .65 6.94.04 11-.97zm-11.15-8.67c-.17-1.8-.6-3.94-.96-4.76-1.81-4.21-7.53-10.83-12.99-15.04-4-3.09-4.45-4.32-4.45-11.99 0-7.13-.56-10.27-4.18-23.57-2.89-10.58-2.86-11.47.34-11.47 2.87 0 5.79 3.3 7.64 8.65.82 2.35 1.6 4.16 1.73 4.03.14-.14-.12-2.41-.57-5.05-.45-2.64-.68-5.32-.5-5.96.22-.85.07-1.16-.53-1.16-.46 0-2.12-1.74-3.7-3.88l-2.87-3.87-1.55.91c-5.55 3.27-11.97 10.34-15.16 16.68a44.05 44.05 0 00-4.14 14.52l-.34 3.48h2.04c1.13 0 3.47.15 5.22.33l3.17.33v2.65c0 3.57 1.22 8.05 3.23 11.85 1.9 3.58 7.52 9.74 10.62 11.64 1.15.71 2.1 1.5 2.11 1.75 0 .25-1.03 2.2-2.3 4.32a52.42 52.42 0 00-2.32 4.08c0 .46 6.09 2.89 9.53 3.8 1.99.52 5.33.96 7.42.97l3.81.03zm28-24.79c1.45-2.96 2.14-5.58 2.82-10.73l.33-2.45h9.73v-2.34c0-3.4-1.42-9.78-3.04-13.65-1.9-4.55-5.23-9.35-9.3-13.43-3.03-3.03-8.46-7.17-9.4-7.17-.2 0-1.47 1.95-2.83 4.33-1.92 3.39-2.64 4.25-3.25 3.92-.69-.36-.8.41-.92 5.84-.14 7.21-.91 15.03-1.97 20.1-.81 3.87-.42 5.73.6 2.89.36-.98.66-2.2.69-2.74.02-.53.93-2.96 2.03-5.41a57.8 57.8 0 002.88-8.02c1.38-5.56 1.6-5.97 3.27-5.97.92 0 1.94.5 2.72 1.34 1.17 1.25 1.24 1.66 1.12 6.4-.11 4.09-.5 6.32-2.03 11.43-2.77 9.33-2.78 9.75-.2 12.82a25.34 25.34 0 013.21 4.94c1.2 2.7 1.2 2.7 3.55-2.1zm-18.87-19.1c1.13-7.02 1.9-19.15 1.31-20.68-.74-1.96-2.31-1.56-3.27.83-1.37 3.43-2.63 12.76-1.97 14.64.31.88.82 3.07 1.14 4.87.6 3.37 1.43 6.04 1.77 5.69.1-.11.56-2.52 1.02-5.35zm-4.81-14.51c.66-4.74 1.88-8.27 3.15-9.17.98-.68.9-.75-1.46-1.16-3.73-.63-11.4-.47-14.56.32l-2.78.68 1.53.65c1.66.7 3.77 3.04 3.77 4.18 0 .48.66.7 2.02.7 2.38 0 4.26 1.6 6.23 5.32.7 1.3 1.33 2.28 1.43 2.19.1-.1.4-1.77.67-3.71z"/><path fill="#fdfd2f" d="M240.46 194.83c-11.25-2.42-21.1-8.7-28.65-18.23-6.63-8.38-9.94-17.44-10.39-28.44-.42-10.5 1.9-19.91 6.91-28.03 3.36-5.44 12.07-13.99 17.6-17.28 8.63-5.13 15.81-6.77 27.77-6.35 9.15.31 13.05 1.3 20.31 5.09 13.66 7.14 23.13 19.82 26.3 35.23.92 4.44.76 14.64-.3 19.59-3.5 16.42-15.8 30.72-31.38 36.45a58.77 58.77 0 01-8.06 2.25c-5.5 1-14.79.86-20.1-.28zm23.37-2.36c1.94-.5 5.64-1.97 8.24-3.27 5.43-2.74 5.25-2.4 5.81-11.14.39-6-.36-9.67-3.14-15.46-1.7-3.53-5.28-8-6.42-8-.39 0-.42-.29-.09-.9.27-.5 1.45-4.24 2.63-8.31 3.44-11.92 3.79-19.45.87-19.04-.82.12-1.29.77-1.79 2.48-2.02 6.92-2.96 9.7-3.76 11.09-.84 1.45-2.33 6.17-2.85 9.02-.17.95.49 2.3 2.57 5.21 2.56 3.58 6.52 10.83 6.52 11.92 0 .25-.21.32-.47.16-.27-.16-.57.11-.68.61-.12.5-.63-.53-1.14-2.3-1-3.44-5.35-10.6-9.03-14.83-2.58-2.95-4.11-6.02-4.14-8.25-.04-3.88-3.61-12.78-6.51-16.22-3.97-4.72-6.17 1.39-3.78 10.5 1.02 3.88 1.1 9.8.18 12.94-.65 2.19-2.94 6.96-3.35 6.96-.43 0 .1-1.77 1.1-3.65.67-1.24-.35-1.37-1.85-.24-1.2.9-1.77.99-1.77.25 0-.3 1.01-1 2.25-1.54 1.8-.8 2.32-1.33 2.58-2.61.65-3.23.31-9.36-.73-13.45-.81-3.17-.98-4.94-.72-7.57.4-4-.45-6.68-2.54-8.05-2.17-1.43-2.55-.64-2.22 4.58.72 11.53 2.25 19.81 4.2 22.8.85 1.28.41 1.68-.66.61-.48-.48-.61-.48-.61 0 0 .34-.24.62-.52.62s-.52-.64-.52-1.42c0-2.31-2.44-10.78-5-17.34-1.7-4.35-2.93-6.7-4.28-8.12-1.96-2.05-3.43-2.53-3.91-1.26-.16.4.87 4.87 2.28 9.93 2.92 10.45 4.2 17.68 4.24 23.94.01 2.38.3 4.94.64 5.7.34.76 1.99 2.44 3.66 3.73 5.72 4.4 11.49 11.8 13.3 17.05 1.1 3.16 1.16 9.03.14 11.86-.4 1.14-.74 2.15-.75 2.26-.02.49 8.82-.43 12.02-1.25zm-12.18-8.66c-.17-1.8-.6-3.94-.96-4.76-1.81-4.21-7.53-10.83-12.99-15.04-4-3.09-4.45-4.32-4.45-11.99 0-7.13-.56-10.27-4.18-23.57-2.89-10.58-2.86-11.47.34-11.47 2.87 0 5.79 3.3 7.64 8.65.82 2.35 1.6 4.16 1.73 4.03.14-.14-.12-2.41-.57-5.05-.45-2.64-.68-5.32-.5-5.96.22-.85.07-1.16-.53-1.16-.46 0-2.12-1.74-3.7-3.88l-2.87-3.87-1.55.91c-5.55 3.27-11.97 10.34-15.16 16.68a44.05 44.05 0 00-4.14 14.52l-.34 3.48h2.04c1.13 0 3.47.15 5.22.33l3.17.33v2.65c0 3.57 1.22 8.05 3.23 11.85 1.9 3.58 7.52 9.74 10.62 11.64 1.15.71 2.1 1.5 2.11 1.75 0 .25-1.03 2.2-2.3 4.32a52.42 52.42 0 00-2.32 4.08c0 .46 6.09 2.89 9.53 3.8 1.99.52 5.33.96 7.42.97l3.81.03zm28-24.79c1.45-2.96 2.14-5.58 2.82-10.73l.33-2.45h9.73v-2.34c0-3.4-1.42-9.78-3.04-13.65-1.9-4.55-5.23-9.35-9.3-13.43-3.03-3.03-8.46-7.17-9.4-7.17-.2 0-1.47 1.95-2.83 4.33-1.92 3.39-2.64 4.25-3.25 3.92-.69-.36-.8.41-.92 5.84-.14 7.21-.91 15.03-1.97 20.1-.81 3.87-.42 5.73.6 2.89.36-.98.66-2.2.69-2.74.02-.53.93-2.96 2.03-5.41a57.8 57.8 0 002.88-8.02c1.38-5.56 1.6-5.97 3.27-5.97.92 0 1.94.5 2.72 1.34 1.17 1.25 1.24 1.66 1.12 6.4-.11 4.09-.5 6.32-2.03 11.43-2.77 9.33-2.78 9.75-.2 12.82a25.34 25.34 0 013.21 4.94c1.2 2.7 1.2 2.7 3.55-2.1zm-18.86-18.87a171.1 171.1 0 001.3-12.5c.57-8.1.33-9.64-1.5-9.64-1.34 0-2.8 4.1-3.6 10.17-.54 4.06-.52 5.24.15 8a97.9 97.9 0 011.15 5.28c.36 2.11 1.17 4.11 1.53 3.76.1-.11.55-2.4.97-5.07zm-4.82-14.74c.66-4.74 1.88-8.27 3.15-9.17.98-.68.9-.75-1.46-1.16-3.73-.63-11.4-.47-14.56.32l-2.78.68 1.53.65c1.66.7 3.77 3.04 3.77 4.18 0 .48.66.7 2.02.7 2.38 0 4.26 1.6 6.23 5.32.7 1.3 1.33 2.28 1.43 2.19.1-.1.4-1.77.67-3.71z"/><path fill="#c9c975" d="M240.46 194.83c-11.25-2.42-21.1-8.7-28.65-18.23-6.63-8.38-9.94-17.44-10.39-28.44-.42-10.5 1.9-19.91 6.91-28.03 3.36-5.44 12.07-13.99 17.6-17.28 8.63-5.13 15.81-6.77 27.77-6.35 9.15.31 13.05 1.3 20.31 5.09 13.66 7.14 23.13 19.82 26.3 35.23.92 4.44.76 14.64-.3 19.59-3.5 16.42-15.8 30.72-31.38 36.45a58.77 58.77 0 01-8.06 2.25c-5.5 1-14.79.86-20.1-.28zm23.37-2.36c1.94-.5 5.64-1.97 8.24-3.27 5.43-2.74 5.25-2.4 5.81-11.14.39-6-.36-9.67-3.14-15.46-1.7-3.53-5.28-8-6.42-8-.39 0-.42-.29-.09-.9.27-.5 1.45-4.24 2.63-8.31 3.44-11.92 3.79-19.45.87-19.04-.82.12-1.29.77-1.79 2.48-2.02 6.92-2.96 9.7-3.76 11.09-.84 1.45-2.33 6.17-2.85 9.02-.17.95.49 2.3 2.57 5.21 2.56 3.58 6.52 10.83 6.52 11.92 0 .25-.21.32-.47.16-.27-.16-.57.11-.68.61-.12.5-.63-.53-1.14-2.3-1-3.44-5.35-10.6-9.03-14.83-2.58-2.95-4.11-6.02-4.14-8.25-.04-3.88-3.61-12.78-6.51-16.22-3.97-4.72-6.17 1.39-3.78 10.5 1.02 3.88 1.1 9.8.18 12.94-.65 2.19-2.94 6.96-3.35 6.96-.43 0 .1-1.77 1.1-3.65.67-1.24-.35-1.37-1.85-.24-1.2.9-1.77.99-1.77.25 0-.3 1.01-1 2.25-1.54 1.8-.8 2.32-1.33 2.58-2.61.65-3.23.31-9.36-.73-13.45-.81-3.17-.98-4.94-.72-7.57.4-4-.45-6.68-2.54-8.05-2.17-1.43-2.55-.64-2.22 4.58.72 11.53 2.25 19.81 4.2 22.8.85 1.28.41 1.68-.66.61-.48-.48-.61-.48-.61 0 0 .34-.24.62-.52.62s-.52-.64-.52-1.42c0-2.31-2.44-10.78-5-17.34-1.7-4.35-2.93-6.7-4.28-8.12-1.96-2.05-3.43-2.53-3.91-1.26-.16.4.87 4.87 2.28 9.93 2.92 10.45 4.2 17.68 4.24 23.94.01 2.38.3 4.94.64 5.7.34.76 1.99 2.44 3.66 3.73 5.72 4.4 11.49 11.8 13.3 17.05 1.1 3.16 1.16 9.03.14 11.86-.4 1.14-.74 2.15-.75 2.26-.02.49 8.82-.43 12.02-1.25zm-12.22-4.16c.45-1.79-.1-7.39-.92-9.26-1.81-4.21-7.53-10.83-12.99-15.04-4-3.09-4.45-4.32-4.45-11.99 0-7.13-.56-10.27-4.18-23.57-2.89-10.58-2.86-11.47.34-11.47 2.87 0 5.79 3.3 7.64 8.65.82 2.35 1.6 4.16 1.73 4.03.14-.14-.12-2.41-.57-5.05-.45-2.64-.68-5.32-.5-5.96.22-.85.08-1.16-.54-1.16-.69 0-5.89-6.4-7.52-9.25-1.05-1.84-10.79 6.75-15.26 13.45-4.18 6.28-6.9 14.41-6.91 20.67v2.97h3.01c1.66 0 4.44.15 6.19.33l3.17.33v2.65c0 3.57 1.22 8.05 3.23 11.85 1.9 3.58 7.51 9.74 10.62 11.64 1.15.71 2.1 1.48 2.11 1.72.02.43-3.27 6.14-5.09 8.82-1.24 1.84-1.08 2 4.28 4.13a37.1 37.1 0 0013.06 2.82c3.04.04 3.23-.03 3.55-1.3zm28.05-29.29c1.44-2.96 2.13-5.58 2.81-10.73l.33-2.45h12.4l-.36-3.73a49.1 49.1 0 00-3.88-14.77c-3.17-6.76-9.72-14.34-15.84-18.31l-3.43-2.23-3.08 5.57c-2.46 4.47-3.24 5.49-3.88 5.14-.71-.37-.83.33-.94 5.83-.14 7.21-.91 15.03-1.97 20.1-.81 3.87-.42 5.73.6 2.89.36-.98.66-2.2.69-2.74.02-.53.93-2.96 2.03-5.41a57.8 57.8 0 002.88-8.02c1.38-5.56 1.6-5.97 3.27-5.97.92 0 1.94.5 2.72 1.34 1.17 1.25 1.24 1.66 1.12 6.4-.11 4.09-.5 6.32-2.03 11.43-2.77 9.33-2.78 9.75-.2 12.82a25.34 25.34 0 013.21 4.94c1.2 2.7 1.2 2.7 3.55-2.1zm-18.87-18.87a171.1 171.1 0 001.3-12.5c.57-8.1.33-9.64-1.5-9.64-1.34 0-2.8 4.1-3.6 10.17-.54 4.06-.52 5.24.15 8a97.9 97.9 0 011.15 5.28c.36 2.11 1.17 4.11 1.53 3.76.1-.11.55-2.4.97-5.07zm-4.82-14.74c.66-4.74 1.88-8.27 3.15-9.17.98-.68.9-.75-1.46-1.16-3.73-.63-11.4-.47-14.56.32l-2.78.68 1.53.65c1.66.7 3.77 3.04 3.77 4.18 0 .48.66.7 2.02.7 2.38 0 4.26 1.6 6.23 5.32.7 1.3 1.33 2.28 1.43 2.19.1-.1.4-1.77.67-3.71z"/><path fill="#fdfd0c" d="M240.46 194.83c-11.25-2.42-21.1-8.7-28.65-18.23-6.63-8.38-9.94-17.44-10.39-28.44-.42-10.5 1.9-19.91 6.91-28.03 3.36-5.44 12.07-13.99 17.6-17.28 8.63-5.13 15.81-6.77 27.77-6.35 9.15.31 13.05 1.3 20.31 5.09 13.66 7.14 23.13 19.82 26.3 35.23.92 4.44.76 14.64-.3 19.59-3.5 16.42-15.8 30.72-31.38 36.45a58.77 58.77 0 01-8.06 2.25c-5.5 1-14.79.86-20.1-.28zm23.37-2.36c1.94-.5 5.65-1.97 8.25-3.27l4.72-2.38.6-3.35c1.04-5.93.84-11.33-.58-15.82-1.36-4.3-4.18-9.47-6.23-11.39-.7-.65-1.26-1.42-1.26-1.7 0-.3-.23-.39-.52-.21-.73.45-.74.5 1.81-8.05 3.62-12.13 4.1-20.04 1.21-20.04-1.12 0-1.64 1.03-2.77 5.58a44 44 0 01-2.13 6.18c-1.48 3.3-3.77 10.23-3.78 11.48 0 .46 1.26 2.59 2.8 4.74 2.95 4.11 4.41 6.63 4.41 7.6 0 .33.47 1.18 1.03 1.9 1.07 1.36 1.42 3.02.52 2.46-.29-.17-.54.1-.56.62-.02.51-.55-.58-1.17-2.42-1.28-3.75-4.65-9.23-9.15-14.83-3.07-3.83-3.6-5.1-4.53-10.94-.34-2.18-1.4-5.07-3-8.24-2.78-5.54-3.74-6.71-5.51-6.71-2.5 0-3.12 5.8-1.32 12.31a25.5 25.5 0 01-2.07 18.1c-1.21 2.19-1.45.73-.26-1.57.74-1.43.73-1.52-.2-1.52a2.4 2.4 0 00-1.61.77c-.36.43-.88.77-1.16.77-.92 0 .86-1.68 2.5-2.37 1.17-.5 1.7-1.12 1.94-2.3.64-3.2.3-9.52-.71-13.37a19.21 19.21 0 01-.7-7.47c.22-2.67.1-4.11-.48-5.5-.84-2-3.05-3.84-3.95-3.28-1.87 1.16 1.27 23.99 3.83 27.9.85 1.3.42 1.7-.66.62-.48-.48-.61-.48-.61 0 0 .34-.24.62-.52.62s-.52-.64-.52-1.42c0-2.12-2.67-11.53-5.01-17.65-1.48-3.88-2.64-6.04-4.1-7.6-2.16-2.32-4.29-2.95-4.29-1.27 0 .51 1.16 5.06 2.57 10.1 2.78 9.98 4.1 17.5 4.19 23.83a32 32 0 00.38 5.23c.19.65 1.78 2.3 3.54 3.65 5.85 4.53 11.76 12.04 13.64 17.35 1.1 3.14 1.19 8.99.15 11.85-.4 1.14-.74 2.15-.75 2.26-.02.49 8.82-.43 12.02-1.25zm-12.23-4.15c.57-2.24-.13-7.75-1.27-10.1-1.97-4.05-6.46-9.38-10.83-12.89-2.37-1.9-4.68-3.98-5.13-4.63-.63-.9-.9-3.16-1.18-9.69-.35-8.75-.95-11.75-5.53-28.02-.55-1.93-.88-3.96-.74-4.51.4-1.49 2.57-1.82 4.64-.7 2.4 1.29 3.71 3.25 5.65 8.45 1.84 4.91 2.13 4.15.9-2.38-.67-3.6-.69-4.52-.12-5.7 1.4-2.93 5.74-1.65 7.32 2.14.61 1.45.9 1.65 2.22 1.46 2.05-.3 4.42 1.75 6.3 5.48l1.48 2.9.34-2.59c.57-4.3 1.4-7.63 2.42-9.66 1.23-2.46 3.37-2.69 5.06-.55.98 1.24 1.05 1.82.78 5.8-.67 9.67-1.34 15.94-2.11 19.8-.54 2.73-.64 4.23-.29 4.58.35.35.7-.14 1.08-1.48.3-1.1.55-2.25.55-2.57 0-.32.93-2.66 2.05-5.2a55.95 55.95 0 002.87-8.18c1-4.32 1.93-5.89 3.51-5.89 1.22 0 3.03 1.62 3.6 3.21.69 1.97-.6 11.06-2.43 17.1-2.36 7.74-2.36 8.82-.06 11.5 1.72 2.02 4.94 8.09 5.6 10.57.28 1.08.47.94 2.2-1.61 3.1-4.59 4.73-9.43 5.62-16.67l.3-2.45h8.8l-.36-3.73a49.1 49.1 0 00-3.88-14.77c-3.17-6.77-9.72-14.34-15.86-18.33l-3.45-2.23-2.23 3.85c-1.73 2.98-2.43 3.77-3.1 3.52-10.72-4.15-20.32-4.26-29.54-.35l-2.23.95-2.54-3.4a590.7 590.7 0 00-2.7-3.6c-.41-.5-6.2 3.9-9.26 7.05-7.74 7.95-12.56 18.5-12.57 27.51v2.91l4.1.36 4.1.37.29 2.4c.9 7.3 2.55 12.1 5.81 16.89a45.37 45.37 0 0010.27 10.2l2.16 1.42-2.24 3.68c-2.6 4.24-2.73 3.97 3.03 6.26a37.1 37.1 0 0013.06 2.82c3.04.04 3.23-.03 3.54-1.3zm9.47-49.7c.3-2.12.76-7.18 1.04-11.23.55-7.77.3-9.38-1.47-9.38-1.39 0-2.54 3-3.49 9.06-.78 5-.78 5.73-.02 9.14.45 2.04.97 4.52 1.16 5.5.19 1 .58 2.28.88 2.84.51.97.57.93.96-.51.23-.85.66-3.29.94-5.41z"/><path fill="#a9a762" d="M240.46 194.83c-11.25-2.42-21.1-8.7-28.65-18.23-6.63-8.38-9.94-17.44-10.39-28.44-.42-10.5 1.9-19.91 6.91-28.03 3.36-5.44 12.07-13.99 17.6-17.28 8.63-5.13 15.81-6.77 27.77-6.35 9.15.31 13.05 1.3 20.31 5.09 13.66 7.14 23.13 19.82 26.3 35.23.92 4.44.76 14.64-.3 19.59-3.5 16.42-15.8 30.72-31.38 36.45a58.77 58.77 0 01-8.06 2.25c-5.5 1-14.79.86-20.1-.28zm10.7-4.14c.94-3.93.56-9.6-.81-12.43-2-4.09-6.46-9.4-10.85-12.93-2.37-1.9-4.68-3.98-5.13-4.63-.63-.9-.9-3.16-1.18-9.69-.35-8.75-.95-11.75-5.53-28.02-.55-1.93-.88-3.96-.74-4.51.4-1.49 2.57-1.82 4.64-.7 2.4 1.29 3.71 3.25 5.65 8.45 1.84 4.91 2.13 4.15.9-2.38-.67-3.6-.69-4.52-.12-5.7 1.4-2.93 5.74-1.65 7.32 2.14.61 1.45.9 1.65 2.22 1.46 2.05-.3 4.42 1.75 6.3 5.48l1.48 2.9.34-2.59c.57-4.3 1.4-7.63 2.42-9.66 1.23-2.46 3.37-2.69 5.06-.55.98 1.24 1.05 1.82.78 5.8-.67 9.67-1.34 15.94-2.11 19.8-.54 2.73-.64 4.23-.29 4.58.35.35.7-.14 1.08-1.48.3-1.1.55-2.25.55-2.57 0-.32.93-2.66 2.05-5.2a55.95 55.95 0 002.87-8.18c1-4.32 1.93-5.89 3.51-5.89 1.22 0 3.03 1.62 3.6 3.21.69 1.97-.6 11.06-2.43 17.1-2.36 7.74-2.36 8.82-.06 11.5 1.72 2.02 4.94 8.09 5.6 10.57.28 1.08.47.94 2.2-1.61 3.1-4.59 4.73-9.43 5.62-16.67l.3-2.45h12.98l-.34-3.58c-1.12-12.08-5.5-21.6-13.8-30-3.52-3.57-10.32-8.7-11.52-8.68-.29 0-1.55 1.96-2.81 4.34a65.23 65.23 0 01-3.1 5.4l-.8 1.07-3.62-1.26a36.7 36.7 0 00-26.62.68l-2.23.95-3.79-5.07c-4.31-5.77-3.7-5.66-8.95-1.64-10.71 8.2-18.42 22.84-18.45 35v2.12l6 .32c3.3.18 6.08.4 6.19.51.1.1.41 1.98.69 4.16a35.34 35.34 0 005.14 14.46c2.31 3.55 7.27 8.57 10.69 10.82l2.16 1.43-3.32 5.38a121 121 0 00-3.32 5.55c0 .44 8.35 3.92 11.1 4.61 4.51 1.15 5.34 1.26 8.73 1.18l3.09-.07zm12.67 1.78c1.94-.5 5.65-1.97 8.25-3.27l4.72-2.38.6-3.35c1.04-5.93.84-11.33-.58-15.82-1.36-4.3-4.18-9.47-6.23-11.39-.7-.65-1.26-1.42-1.26-1.7 0-.3-.23-.39-.52-.21-.73.45-.74.5 1.81-8.05 3.62-12.13 4.1-20.04 1.21-20.04-1.12 0-1.64 1.03-2.77 5.58a44 44 0 01-2.13 6.18c-1.48 3.3-3.77 10.23-3.78 11.48 0 .46 1.26 2.59 2.8 4.74 2.95 4.11 4.41 6.63 4.41 7.6 0 .33.47 1.18 1.03 1.9 1.07 1.36 1.42 3.02.52 2.46-.29-.17-.54.1-.56.62-.02.51-.55-.58-1.17-2.42-1.28-3.75-4.65-9.23-9.15-14.83-3.07-3.83-3.6-5.1-4.53-10.94-.34-2.18-1.4-5.07-3-8.24-2.78-5.54-3.74-6.71-5.51-6.71-2.5 0-3.12 5.8-1.32 12.31a25.5 25.5 0 01-2.07 18.1c-1.21 2.19-1.45.73-.26-1.57.74-1.43.73-1.52-.2-1.52a2.4 2.4 0 00-1.61.77c-.36.43-.88.77-1.16.77-.92 0 .86-1.68 2.5-2.37 1.17-.5 1.7-1.12 1.94-2.3.64-3.2.3-9.52-.71-13.37a19.21 19.21 0 01-.7-7.47c.22-2.67.1-4.11-.48-5.5-.84-2-3.05-3.84-3.95-3.28-1.87 1.16 1.27 23.99 3.83 27.9.85 1.3.42 1.7-.66.62-.48-.48-.61-.48-.61 0 0 .34-.24.62-.52.62s-.52-.64-.52-1.42c0-2.12-2.67-11.53-5.01-17.65-1.48-3.88-2.64-6.04-4.1-7.6-2.16-2.32-4.29-2.95-4.29-1.27 0 .51 1.16 5.06 2.57 10.1 2.78 9.98 4.1 17.5 4.19 23.83a32 32 0 00.38 5.23c.19.65 1.78 2.3 3.54 3.65 5.85 4.53 11.76 12.04 13.64 17.35 1.1 3.14 1.19 8.99.15 11.85-.4 1.14-.74 2.15-.75 2.26-.02.49 8.82-.43 12.02-1.25zm-2.76-53.84c.3-2.13.76-7.19 1.04-11.24.55-7.77.3-9.38-1.47-9.38-1.39 0-2.54 3-3.49 9.06-.78 5-.78 5.73-.02 9.14.45 2.04.97 4.52 1.16 5.5.19 1 .58 2.28.88 2.84.51.97.57.93.96-.51.23-.85.66-3.29.94-5.41z"/><path fill="#f66504" d="M240.46 194.83c-11.25-2.42-21.1-8.7-28.65-18.23-6.63-8.38-9.94-17.44-10.39-28.44-.42-10.5 1.9-19.91 6.91-28.03 3.36-5.44 12.07-13.99 17.6-17.28 8.63-5.13 15.81-6.77 27.77-6.35 9.15.31 13.05 1.3 20.31 5.09 13.66 7.14 23.13 19.82 26.3 35.23.92 4.44.76 14.64-.3 19.59-3.5 16.42-15.8 30.72-31.38 36.45a58.77 58.77 0 01-8.06 2.25c-5.5 1-14.79.86-20.1-.28zm10.37-2.47c.93-2.4 1.19-9.12.45-11.77-1.32-4.69-8.06-13.12-13.44-16.79-3.6-2.45-3.9-3.26-4.25-11.54-.35-8.12-.91-11.2-4.22-23.24-2.45-8.9-2.68-10.44-1.69-11.42 1.27-1.27 3.1-.67 5.56 1.83 1.93 1.95 2.72 3.32 3.92 6.83 1.66 4.85 2.25 4.27 1.29-1.26-1.22-6.97-.56-8.94 2.76-8.32 1.87.35 3.7 2.18 4.2 4.2.26 1 .55 1.13 1.99.9 2.13-.35 4.26 1.46 6.4 5.44 1.67 3.1 1.8 2.98 2.39-2.19.6-5.35 2.42-9.08 4.4-9.08.5 0 1.44.44 2.11.98 1.14.93 1.21 1.3 1.1 5.8-.16 6.62-1.05 15.4-2 19.92-.9 4.27-.55 6.57.61 3.97.38-.85.7-1.98.71-2.51.01-.53.96-3.06 2.1-5.62a65.3 65.3 0 003.09-8.79c1.15-4.63 1.68-5.5 3.32-5.5 1.3 0 2.55 1.18 3.27 3.09.84 2.21-.2 10.58-2.13 17-2.8 9.34-2.82 8.58.44 12.64 2.26 2.8 3.26 4.83 5.16 10.52l1.62 4.86 2.2-2.77c4.29-5.43 7.13-12.77 8.02-20.73l.33-2.97h8.84l-.34-3.58c-1.12-12.08-5.5-21.6-13.8-30-3.52-3.57-10.32-8.69-11.52-8.68-.29 0-1.4 1.62-2.49 3.6a31.51 31.51 0 01-2.13 3.61c-.09 0-1.45-.59-3.02-1.3-4.52-2.08-10.5-3-17.11-2.65-6.2.33-9.43 1.06-13.95 3.13-1.63.74-3 1.29-3.05 1.22-.05-.08-1.19-1.6-2.53-3.36-2.8-3.7-2.52-3.7-7.64.22-10.73 8.22-18.42 22.84-18.45 35.04v2.14l4.31.36 4.32.36.26 4.2c.67 10.5 7.42 21.81 16.76 28.05 1.48 1 2.7 2 2.7 2.24 0 .24-.82 1.72-1.82 3.28a38.8 38.8 0 00-2.08 3.54c-.48 1.22 9.08 5.09 15.24 6.16.71.12 2.63.25 4.27.3 2.8.06 3-.02 3.52-1.36zm13.09.1c3.14-.84 10.58-4.15 12.26-5.45.67-.52 1.12-2.15 1.66-5.95.74-5.3.58-7.99-.79-13.11-.82-3.09-4.5-10.08-5.88-11.17a5.38 5.38 0 01-1.48-1.82c-.2-.55-.6-.78-.96-.56-.42.26-.5.08-.24-.58.2-.52 1.4-4.56 2.67-8.97 3.37-11.73 3.66-18.6.8-18.6-1.34 0-1.98.95-2.62 3.9-.74 3.36-2.43 8.26-3.33 9.67-1.2 1.87-3.15 10.1-2.59 10.92 4.76 6.96 6.36 9.5 6.69 10.57.22.7.82 1.84 1.35 2.51 1.02 1.3 1.32 2.92.45 2.38-.29-.17-.54.1-.57.62-.02.51-.5-.55-1.06-2.35-1.13-3.65-4.95-9.83-9.36-15.17-2.8-3.39-3.95-5.9-3.96-8.65 0-2.07-1.5-6.58-3.47-10.53-2.72-5.42-3.57-6.44-5.34-6.44-1.19 0-1.65.31-2.08 1.42-.9 2.27-.72 6.25.5 10.83.98 3.73 1.06 4.78.63 8.5-.51 4.44-1.51 7.88-2.85 9.8-1 1.4-1 .56-.02-1.17.4-.7.75-1.46.76-1.68.03-.7-1.9-.4-2.56.4-.36.42-.88.76-1.16.76-.94 0 .87-1.69 2.56-2.4 1.87-.78 2.06-1.31 2.37-6.62.15-2.6-.13-5.05-1.01-8.8-.98-4.14-1.13-5.67-.76-7.66.73-3.9-.6-7.53-3.15-8.58-1.95-.81-2.56-.02-2.2 2.88.13 1.13.49 4.84.79 8.25.64 7.25 2.22 14.36 3.64 16.36.56.78.78 1.42.5 1.42-.27 0-.63-.22-.8-.5-.16-.26-.64-.36-1.06-.2-.55.22-.76-.1-.76-1.18-.02-2.3-1.79-8.58-4.49-15.9-1.97-5.34-2.89-7.13-4.57-8.89-2.34-2.45-4.34-2.94-4.34-1.08 0 .62 1.14 5.2 2.54 10.18 2.88 10.32 3.56 14.16 4.1 23.21l.4 6.42 2.02 1.55c4.04 3.09 10.87 10.52 13.08 14.23 3.34 5.63 4 12.14 1.79 17.73-.37.94-.17.97 4.2.66 2.54-.18 6-.7 7.7-1.16zm-2.61-55.38c.4-3.26.88-8.6 1.06-11.88.3-5.55.25-6-.73-6.9-1.39-1.25-2.3-.51-3.34 2.71-1.04 3.24-2.03 10.5-1.72 12.58.53 3.49 1.89 9.5 2.48 10.98l.6 1.53.46-1.55c.25-.85.78-4.21 1.19-7.47z"/><path fill="#797647" d="M251.1 191.1c.93-3.58.9-8.51-.09-11.3-1.64-4.68-8.13-12.56-13.17-16-3.6-2.45-3.9-3.26-4.25-11.54-.35-8.12-.91-11.2-4.22-23.24-2.45-8.9-2.68-10.44-1.69-11.42 1.27-1.27 3.1-.67 5.56 1.83 1.93 1.95 2.72 3.32 3.92 6.83 1.66 4.85 2.25 4.27 1.29-1.26-1.22-6.97-.56-8.94 2.76-8.32 1.87.35 3.7 2.18 4.2 4.2.26 1 .55 1.13 1.99.9 2.13-.35 4.26 1.46 6.4 5.44 1.67 3.1 1.8 2.98 2.39-2.19.6-5.35 2.42-9.08 4.4-9.08.5 0 1.44.44 2.11.98 1.14.93 1.21 1.3 1.1 5.8-.16 6.62-1.05 15.4-2 19.92-.9 4.27-.55 6.57.61 3.97.38-.85.7-1.98.71-2.51.01-.53.96-3.06 2.1-5.62a65.3 65.3 0 003.09-8.79c1.15-4.63 1.68-5.5 3.32-5.5 1.3 0 2.55 1.18 3.27 3.09.84 2.21-.2 10.58-2.13 17-2.8 9.34-2.82 8.58.44 12.64 2.26 2.8 3.26 4.83 5.16 10.52l1.62 4.86 2.2-2.77c4.29-5.43 7.13-12.77 8.02-20.73l.33-2.97h8.69l-.01 2.7c-.02 7.02-3.2 16.81-7.68 23.63-2.61 3.97-8.46 10.1-12.32 12.92l-2.23 1.62.28-1.75c1.42-8.82 1.4-10.98-.22-17.01-.82-3.09-4.5-10.08-5.88-11.17a5.38 5.38 0 01-1.48-1.82c-.2-.55-.6-.78-.96-.56-.42.26-.5.08-.24-.58.2-.52 1.4-4.56 2.67-8.97 3.37-11.73 3.66-18.6.8-18.6-1.34 0-1.98.95-2.62 3.9-.74 3.36-2.43 8.26-3.33 9.67-1.2 1.87-3.15 10.1-2.59 10.92 4.76 6.96 6.36 9.5 6.69 10.57.22.7.82 1.84 1.35 2.51 1.02 1.3 1.32 2.92.45 2.38-.29-.17-.54.1-.57.62-.02.51-.5-.55-1.06-2.35-1.13-3.65-4.95-9.83-9.36-15.17-2.8-3.39-3.95-5.9-3.96-8.65 0-3.01-3.45-11.54-6.29-15.55-1.4-1.99-3.82-1.99-4.6 0-.9 2.27-.72 6.25.5 10.83.98 3.73 1.06 4.78.63 8.5-.51 4.44-1.52 7.88-2.85 9.8-1 1.4-1 .56-.02-1.17.4-.7.74-1.46.75-1.68.04-.7-1.9-.4-2.55.4-.36.42-.88.76-1.16.76-.94 0 .87-1.69 2.56-2.4 1.87-.78 2.06-1.31 2.37-6.62.15-2.6-.13-5.05-1.01-8.8-.98-4.14-1.13-5.67-.76-7.66.73-3.9-.6-7.53-3.15-8.58-1.95-.81-2.56-.02-2.2 2.88.13 1.13.49 4.84.79 8.25.63 7.25 2.22 14.36 3.64 16.36.55.78.78 1.42.5 1.42-.27 0-.63-.22-.8-.5-.16-.26-.64-.36-1.06-.2-.55.22-.76-.1-.76-1.18-.02-2.3-1.79-8.58-4.49-15.9-1.97-5.34-2.89-7.13-4.57-8.89-2.34-2.45-4.34-2.94-4.34-1.08 0 .62 1.14 5.2 2.54 10.18 2.88 10.32 3.56 14.16 4.1 23.21l.4 6.42 2.02 1.55c3.98 3.04 10.87 10.52 13.01 14.12 3.16 5.33 3.97 10.7 2.4 15.99-.44 1.47-1.1 2.67-1.47 2.67-.56 0-.56-.48.02-2.69zm10.2-54.02c.41-3.26.89-8.6 1.07-11.88.3-5.55.25-6-.73-6.9-1.39-1.25-2.3-.51-3.34 2.71-1.04 3.24-2.03 10.5-1.72 12.58.53 3.49 1.89 9.5 2.48 10.98l.6 1.53.46-1.55c.25-.85.78-4.21 1.19-7.47zm-36.87 48.9c-7.2-5.16-12.77-11.53-16.37-18.75a42.43 42.43 0 01-4.55-16.96l-.32-5.1 3.25.33c1.78.19 3.76.34 4.39.34 1.06 0 1.16.3 1.4 4.26.68 10.56 7.4 21.85 16.77 28.1 1.48 1 2.7 2 2.7 2.22 0 .66-4.2 7.18-4.62 7.18-.2 0-1.4-.73-2.65-1.63zm5.21-77.87a49.97 49.97 0 01-2.5-3.6c-.29-.74 7.32-3.96 12.14-5.15 6.62-1.64 17.65-1.61 24.12.06 2.55.65 5.88 1.74 7.4 2.4l2.75 1.23-1.92 3.48a52.53 52.53 0 01-2.28 3.89c-.2.22-1.66-.2-3.24-.93-4.55-2.08-10.52-3-17.14-2.65-6.2.33-9.43 1.06-13.93 3.12a67.85 67.85 0 01-3.01 1.33 90.6 90.6 0 01-2.39-3.18z"/><path fill="#535330" d="M250.8 192.7c.96-1.79 1.27-10.2.48-12.63-1.11-3.38-5.36-9.12-9.54-12.88a534.76 534.76 0 01-5.98-5.44l-2-1.87v-5.6c-.02-7.65-.59-11.09-3.9-23.61-1.56-5.93-2.78-11.27-2.7-11.86.12-.82.6-1.1 2.06-1.22 1.57-.13 2.25.16 3.93 1.68 1.62 1.46 2.38 2.82 3.72 6.6 1.92 5.4 2.87 6.9 2.38 3.74-1.44-9.25-1.55-10.53-.96-11.83 1.12-2.44 5.15-1.04 6.62 2.3.73 1.65 1 1.82 2.88 1.82 1.75 0 2.33.29 3.58 1.79.82.99 1.98 2.8 2.58 4.02.6 1.23 1.24 2.04 1.44 1.8.2-.23.63-2.37.96-4.76.95-6.89 2.93-9.79 5.64-8.27 1.3.73 1.43 1.08 1.58 4.38.2 4.6-.72 15.7-1.8 21.45-1.28 6.76-.13 8.46 1.38 2.04a42.15 42.15 0 012.35-6.48c.94-2.02 2.1-5.3 2.59-7.26 1.62-6.6 2.99-7.81 5.72-5.08 1.3 1.31 1.33 1.43 1.05 6.83-.23 4.39-.72 6.92-2.42 12.61-1.23 4.11-1.99 7.56-1.8 8.15.18.57 1.43 2.5 2.78 4.28 2.85 3.76 5.56 10.67 6.06 15.42l.33 3.12 2.32-2.55c6.28-6.9 10.4-16.82 10.4-25.06v-2.49h6.7l-.01 2.7c-.01 3.94-1.68 11.42-3.55 15.91a48.82 48.82 0 01-10.37 15.26c-3.56 3.54-7.55 6.72-7.9 6.29-.1-.12.14-2.18.52-4.59.87-5.52.5-9.53-1.36-14.92-1.5-4.34-4.62-9.64-5.96-10.16-.42-.16-.75-.75-.75-1.32 0-.74-.24-.94-.84-.71-.6.23-.74.1-.52-.48.17-.44 1.37-4.41 2.67-8.82 2.96-10.02 3.61-16.4 1.86-18.15-1.58-1.57-2.55-.89-3.44 2.43-1.52 5.7-2.5 8.6-3.41 10.15-.5.87-1.27 2.84-1.69 4.38-.41 1.54-.98 3.54-1.25 4.43-.46 1.5-.25 1.98 2.74 6.3 1.78 2.59 3.54 5.45 3.9 6.38.38.92 1.1 2.23 1.62 2.9.51.68.93 1.6.92 2.07 0 .72-.07.73-.5.06-.4-.62-.51-.52-.55.51-.03.78-.42.02-1-1.91-1-3.44-5.13-10.17-9.28-15.15-3.35-4.03-3.43-4.2-4.08-8.98-.44-3.23-1.16-5.36-3.35-9.88-3.01-6.2-4.58-7.88-6.42-6.9-2.17 1.17-2.47 5-.9 11.53 1.16 4.8 1.26 5.93.84 9.48-.5 4.36-1.2 6.76-2.67 9.18-1.1 1.82-1.25 1.12-.17-.77.4-.7.74-1.46.75-1.68.04-.7-1.9-.4-2.55.4-.36.42-.9.76-1.23.75-.98-.03 2.25-2.56 3.28-2.56 1.06 0 1.32-.86 1.84-6.19.25-2.58.06-4.36-.81-7.73a23.3 23.3 0 01-.89-8.25c.27-4.3-.32-6.66-2.14-8.55-1.23-1.28-2.85-1.63-3.4-.74-.17.28.06 4.4.5 9.15.81 8.55 2.3 15.8 3.7 18.05.67 1.08.64 1.15-.46.98-.67-.1-1.23-.6-1.32-1.16-1.22-8.1-6.4-22.15-9.23-25.05-2.24-2.3-4.28-2.65-4.28-.75 0 .67 1.04 4.9 2.32 9.41 2.87 10.18 3.26 12.29 4.08 22.29l.67 8.03 2.26 1.78c5.23 4.13 11.04 10.77 13.37 15.3 2.21 4.3 2.28 4.58 2.27 9.16-.02 4.8-.76 7.5-2.2 7.97-.58.19-.59.02-.06-.97zm10.49-54.44c.42-3.06.92-8.59 1.12-12.29.32-6 .26-6.82-.55-7.62-1.2-1.22-1.89-.9-3.02 1.39-1.26 2.53-3 12.9-2.43 14.41.24.63.83 3.11 1.32 5.52.49 2.4 1.13 4.82 1.42 5.38.53.99.55.99.96-.11.23-.62.76-3.63 1.18-6.68zm-36.84 47.73c-12.58-9-20-21.53-20.93-35.38l-.32-4.77h6.34v2.02c0 2.92 1.27 9.1 2.61 12.67 2.73 7.27 9.15 15.28 15.82 19.74l2.71 1.81-1.47 2.6c-.8 1.43-1.7 2.68-1.97 2.77-.28.1-1.53-.57-2.79-1.46zm4.83-78.65c-2.57-3.3-2.63-3.13 1.58-5.07 6.44-2.98 11.78-4.03 20.43-4.04 8.06-.01 13.68 1.02 19.48 3.59l2.73 1.2-1.57 2.73c-.86 1.5-1.86 2.67-2.21 2.6-.36-.06-2.74-.85-5.29-1.76-4.15-1.48-5.38-1.68-11.7-1.88-8.96-.28-12.64.47-21.35 4.34-.32.14-1.26-.63-2.1-1.7z"/><path fill="#292817" d="M251.07 191.85c.88-2.46.9-10.14.03-12.5-1.55-4.23-7.72-11.36-14.77-17.06l-2.28-1.84-.35-7.95c-.38-8.89-.42-9.12-4.13-23.22-1.46-5.57-2.52-10.5-2.34-10.96.2-.54.94-.83 2.13-.83 2.8 0 5.43 2.67 6.96 7.05 3 8.56 3.63 8.88 2.34 1.2-.97-5.75-.74-8.54.72-9 1.94-.62 5.18 1.66 5.94 4.18.26.86.72 1.1 2.06 1.06 2.51-.07 4.05 1.2 6 4.97.96 1.84 1.9 3.26 2.07 3.15.18-.12.48-1.7.67-3.5.7-6.8 2.7-11.11 4.86-10.43 2.23.71 2.68 1.7 2.68 5.87a134 134 0 01-1.88 20c-.81 4.44-.72 6.77.24 6.18.24-.15.73-1.6 1.1-3.23a43.4 43.4 0 012.43-6.84 57.67 57.67 0 002.85-8.18c1.5-6.02 2.84-7.1 5.4-4.36 1.3 1.39 1.32 1.54 1.04 6.83-.23 4.33-.7 6.76-2.38 12.18-1.16 3.72-2.1 7.23-2.1 7.81 0 .58.9 2.2 2.01 3.6a35.22 35.22 0 017.11 18.58l.32 4.28 2.02-1.96c7.18-6.95 11.99-17.08 12.62-26.58l.3-4.5h4.49v1.99c0 3.26-1.44 10.53-2.89 14.58-2.78 7.79-9.95 17.4-16.46 22.04l-2.46 1.77.46-3.57c.26-1.96.45-5.3.43-7.44-.06-6.07-2.95-13.86-6.68-17.99-.98-1.09-1.78-2.26-1.78-2.61 0-.38-.35-.5-.83-.32-.64.24-.75.1-.45-.59.21-.5 1.4-4.39 2.66-8.64 2.7-9.2 3.45-15.85 2.03-18.02-1.74-2.65-3.2-1.13-4.42 4.62-.37 1.7-1.57 5.1-2.66 7.54-1.1 2.45-2 4.78-2 5.2 0 .4-.37 1.8-.82 3.12l-.81 2.4 3.4 4.74c1.86 2.61 3.66 5.64 3.98 6.73.33 1.08.75 1.97.95 1.97.36 0 1.56 2.34 1.53 2.99-.01.2-.26-.05-.55-.55-.3-.5-.72-.8-.95-.66-.23.15-.57-.48-.75-1.39-.45-2.24-4.01-8.05-7.9-12.88-4.08-5.08-4.6-6.1-5.2-10.47-.9-6.32-5.11-15.14-8-16.71-1.36-.75-1.5-.73-2.41.39-1.72 2.09-1.83 5.34-.38 11.4 1.11 4.62 1.25 6 .89 9.06-.4 3.47-2.4 9.88-2.92 9.36-.14-.13 0-.72.3-1.29.31-.57.56-1.17.56-1.33 0-.6-1.62-.27-2.98.6-1.2.77-1.3.78-.74.06a6.78 6.78 0 012.32-1.51c.92-.37 1.81-.9 2-1.17.19-.27.5-2.49.69-4.93a21.4 21.4 0 00-.78-8.8c-.9-3.47-1.06-5.2-.82-8.27.28-3.38.17-4.17-.84-6.18-.76-1.5-1.66-2.48-2.59-2.8-2.52-.86-2.63-.22-1.7 9.6.85 8.83 2.24 15.6 3.66 17.8.67 1.02.65 1.11-.3 1.04a1.42 1.42 0 01-1.25-1.13c-2.36-11.87-6.47-22.45-10.18-26.16-1.08-1.08-3.27-1.22-3.65-.23-.15.38.88 4.73 2.27 9.67 2.89 10.21 3.88 15.72 4.37 24.18l.34 5.93 2.64 2.32c13.57 11.9 18.2 21.75 14.47 30.8-.96 2.33-1.8 2.1-.96-.26zm10.2-53.22c.45-3.26.97-8.96 1.16-12.66.3-5.93.23-6.83-.54-7.6-1.33-1.33-2.15-1.07-3.13 1.01-1.35 2.83-3.01 13.42-2.37 15.08.28.73.87 3.14 1.3 5.35.93 4.67 1.76 6.59 2.37 5.47.21-.4.76-3.4 1.21-6.65zm-37.3 46.89c-12.04-8.69-19.36-21.37-20.44-35.4l-.33-4.28h4.12l.32 4.12c.72 9.35 4.3 17.67 10.8 25.04 2.16 2.46 8.96 8.15 10.26 8.6.54.17.5.6-.21 2.1-.5 1.05-1.07 1.89-1.3 1.88-.2-.01-1.66-.94-3.22-2.06zm4.15-79.84l-1.07-1.5 3.35-1.6c6.1-2.87 10.09-3.74 18.65-4.02 8.6-.29 12.54.18 18.73 2.25 5.04 1.67 5.51 2.13 4.4 4.29-.64 1.23-1.08 1.56-1.72 1.27-12.45-5.4-25.98-5.59-37.4-.53a24.54 24.54 0 01-3.45 1.34c-.23 0-.9-.67-1.49-1.5z"/><path fill="#030301" d="M250.95 193.13c.17-.5.57-2.41.9-4.26.77-4.45 0-8.77-2.23-12.55-1.95-3.31-8.78-10.66-12.3-13.25-1.41-1.03-2.67-2.46-3-3.4-.3-.88-.52-4.3-.48-7.59l.09-5.98.36 6.19c.2 3.4.54 6.58.74 7.06.2.48 1.8 1.92 3.55 3.2 5.92 4.37 12.51 13 13.79 18.05.87 3.48.43 10.56-.76 12.15-.57.76-.84.92-.66.38zm-26.48-7.44c-4.22-2.83-11.32-10.21-14.03-14.6-3.93-6.32-6.13-13.17-6.85-21.25-.3-3.4-.24-4 .43-4 .6 0 .87.83 1.1 3.48 1.25 13.96 7.4 24.92 18.74 33.45a333 333 0 004.15 3.1c.1.05-.03.46-.27.9-.39.7-.87.54-3.27-1.08zm53.28-1.72c1.03-6.9 1-10.52-.11-14.57-1.33-4.83-4.03-10.36-6.2-12.68-.88-.94-1.6-2.06-1.6-2.49 0-.67-.12-.68-.87-.07-.55.44-.73.47-.5.08.22-.35 1.43-4.18 2.7-8.5 3.45-11.7 3.75-20 .71-20-1.3 0-1.85.91-2.8 4.64-1.16 4.56-2.19 7.54-3.05 8.9-.4.64-1.36 3.28-2.13 5.87l-1.4 4.73 1.13 1.59c1.96 2.76.77 1.73-2.2-1.91-3.27-4-3.71-4.94-4.13-8.87l-.3-2.84.75 3.3c.78 3.42 1.66 5.03 2.35 4.33.7-.73 2.04-11.4 2.37-19 .34-7.85.08-8.99-2-8.99-1.5 0-2.78 3.5-3.82 10.46l-.9 6.08-2.18-4.19c-2.7-5.19-4.12-6.78-5.87-6.57-1.82.21-2.77 3.2-2.43 7.62.2 2.6.14 3-.24 1.8-.27-.84-.36-3.22-.19-5.28.25-3.07.12-4.16-.72-6.05-1.07-2.43-2.93-3.74-4.47-3.15-.78.3-.85.93-.6 5.1l.27 4.75-.77-4.32c-.92-5.16-.5-6.76 1.79-6.76 1.94 0 3.69 1.3 4.57 3.41.64 1.55.94 1.74 2.72 1.74 1.66 0 2.29.33 3.64 1.86.9 1.03 2.13 2.88 2.73 4.13.6 1.24 1.26 2.26 1.45 2.26.19 0 .5-1.45.7-3.22.47-4.24 1.28-7.53 2.28-9.28.99-1.73 3.08-1.9 4.47-.38.89.99.9 1.57.3 10.7-.34 5.3-1.04 11.66-1.55 14.11-.87 4.2-.74 6.11.42 6.11.23 0 .72-1.45 1.1-3.22a43.13 43.13 0 012.58-7.35 49.16 49.16 0 002.77-7.97c.48-2.12 1.12-4.15 1.42-4.51.92-1.11 2.85-.75 4.05.76 1.05 1.31 1.1 1.77.78 6.48-.24 3.67-.9 6.95-2.37 11.84-1.12 3.72-2.04 7.36-2.04 8.08 0 .8.86 2.35 2.14 3.89 4.33 5.2 6.78 12.43 6.84 20.22.02 2.9.18 5.28.34 5.29.58 0 8.04-8.03 9.6-10.31 4-5.91 6.46-12.63 7.36-20.1.29-2.4.53-4.66.53-5.02 0-.36.45-.66 1.02-.66.89 0 .99.28.79 2.2-.13 1.2-.36 3.5-.51 5.13-.33 3.48-2.44 10.44-4.27 14.06-3.03 6.02-8.7 12.77-14.51 17.27l-2.28 1.77zm-6.74-18.91c-.36-.13-.65-.6-.65-1.07 0-.77.08-.76.87.03.93.93.83 1.42-.22 1.04zm-2.5-5.47l-1.99-3.05c-.5-.78-.78-1.42-.6-1.42.43 0 4.13 5.64 3.87 5.9-.12.12-.7-.52-1.28-1.43zm-23.37-7.95c-.02-.35-.56-.67-1.2-.7-1.06-.05-1.03-.1.28-.62 1.85-.73 2.17-2 2.17-8.44 0-3.4.16-4.86.44-4.13.63 1.65.05 10.07-.87 12.47-.43 1.14-.8 1.78-.82 1.42zm-4.31-10.9a129.9 129.9 0 00-5.77-16.87c-1.23-2.8-3.81-5.35-5.45-5.35-.84 0-1.7.39-2.02.9-.48.79-.54.73-.41-.38.12-1.08.45-1.32 2.04-1.45 3-.25 5.43 2.54 7.62 8.7 2.05 5.8 2.57 6.54 2.66 3.8.04-1.11.27.04.51 2.56.45 4.65 2.2 11.89 3.15 13.06.37.46.32.65-.19.65-.47 0-1.19-1.88-2.14-5.62zm-7.98 1.54a164.7 164.7 0 00-2.76-11.49c-1.15-4.23-2-7.79-1.9-7.9.29-.28 4.41 14.7 5.1 18.47.3 1.65.46 3.38.37 3.86-.09.47-.46-.85-.81-2.94zm23.65-5.29a9.5 9.5 0 00-.35-1.8c-.28-.9-.27-.9.29-.03.32.5.48 1.32.36 1.8-.21.8-.24.8-.3.03zm-10.84-1.76c.02-.6.15-.72.31-.3.15.36.13.8-.04.98-.17.17-.3-.13-.27-.68zm-18.04-13.91c.02-.6.15-.73.31-.32.15.38.13.82-.04 1-.17.16-.3-.14-.27-.68zm.28-16.05c-.7-.7-.22-1.21 2.23-2.45 9.8-4.97 25.17-5.81 37.15-2.04 4.46 1.4 6.19 2.45 5.38 3.27-.38.38-1.6.1-4.12-.95-5.05-2.12-10.62-3.13-17.13-3.13-8.1 0-14.81 1.43-20.8 4.43-1.32.65-2.54 1.05-2.71.87z"/></svg>