<svg xmlns="http://www.w3.org/2000/svg" viewBox="0 0 348 348" fill="none"><path d="M5.079 5.776h336.913v337.67H5.08z" stroke-width="2" stroke="#000"/><path d="M282.734 40.554c0-8.376 6.966-15.165 15.56-15.165 4.126 0 8.084 1.597 11.001 4.441 2.918 2.844 4.558 6.702 4.558 10.724 0 8.376-6.966 15.165-15.56 15.165-8.593 0-15.559-6.79-15.559-15.165z" stroke-width="2" stroke="#000"/><path d="M190.96 192.435H18.43V19.904h172.53z" fill="#000"/><circle cx="266.898" cy="101.746" r="26.542" fill="#000"/><circle cx="266.599" cy="160.021" r="26.542" fill="#000"/><path d="M46.197 258.293l-17.61 10.167-17.61-10.167v-20.334l17.61-10.167 17.61 10.167zM82.141 257.594l-17.61 10.167-17.61-10.167V237.26l17.61-10.167 17.61 10.167zM117.645 257.594l-17.61 10.167-17.61-10.167V237.26l17.61-10.167 17.61 10.167zM153.061 257.594l-17.61 10.167-17.61-10.167V237.26l17.61-10.167 17.61 10.167zM189.094 257.594l-17.61 10.167-17.61-10.167V237.26l17.61-10.167 17.61 10.167zM225.302 257.594l-17.61 10.167-17.609-10.167V237.26l17.61-10.167 17.61 10.167zM260.806 257.594l-17.61 10.167-17.61-10.167V237.26l17.61-10.167 17.61 10.167zM296.222 257.594l-17.61 10.167-17.61-10.167V237.26l17.61-10.167 17.61 10.167zM332.255 257.594l-17.61 10.167-17.61-10.167V237.26l17.61-10.167 17.61 10.167zM64.484 289.283l-17.61 10.167-17.609-10.167v-20.334l17.61-10.167 17.61 10.167zM100.429 288.784l-17.61 10.167-17.61-10.167V268.45l17.61-10.167 17.61 10.167zM135.933 288.784l-17.61 10.167-17.61-10.167V268.45l17.61-10.167 17.61 10.167zM171.349 288.784l-17.61 10.167-17.61-10.167V268.45l17.61-10.167 17.61 10.167zM207.381 288.784l-17.61 10.167-17.61-10.167V268.45l17.61-10.167 17.61 10.167zM243.59 288.784l-17.61 10.167-17.61-10.167V268.45l17.61-10.167 17.61 10.167zM279.094 288.784l-17.61 10.167-17.61-10.167V268.45l17.61-10.167 17.61 10.167zM314.51 288.784L296.9 298.95l-17.61-10.167V268.45l17.61-10.167 17.61 10.167zM46.307 321.594l-17.61 10.167-17.609-10.167V301.26l17.61-10.167 17.61 10.167zM82.252 320.295l-17.61 10.167-17.61-10.167V299.96l17.61-10.167 17.61 10.167zM117.756 320.295l-17.61 10.167-17.61-10.167V299.96l17.61-10.167 17.61 10.167zM153.172 320.295l-17.61 10.167-17.61-10.167V299.96l17.61-10.167 17.61 10.167zM189.204 320.295l-17.61 10.167-17.61-10.167V299.96l17.61-10.167 17.61 10.167zM225.413 320.295l-17.61 10.167-17.61-10.167V299.96l17.61-10.167 17.61 10.167zM260.917 320.295l-17.61 10.167-17.61-10.167V299.96l17.61-10.167 17.61 10.167zM296.332 320.295l-17.61 10.167-17.609-10.167V299.96l17.61-10.167 17.61 10.167zM332.365 320.295l-17.61 10.167-17.61-10.167V299.96l17.61-10.167 17.61 10.167z" fill="#000"/></svg>