<svg xmlns="http://www.w3.org/2000/svg" fill="none" viewBox="0 0 348 348"><path stroke="#000" stroke-width="2" d="M5 5.8h337v337.6H5z"/><path stroke="#000" stroke-width="2" d="M282.7 40.6c0-8.4 7-15.2 15.6-15.2 4.1 0 8 1.6 11 4.4a15 15 0 014.6 10.8c0 8.3-7 15.1-15.6 15.1s-15.6-6.8-15.6-15.2z"/><path fill="#000" d="M157.6 313a3281 3281 0 00-42-25.8 1119.7 1119.7 0 01-31-18.9c-.3 0-28.3-16.8-28.8-17.3-.2-.1-.8-4.8-1.3-10.4a1887.6 1887.6 0 00-1.4-14.6 763.7 763.7 0 01-2.3-25.1l-1.6-17a3749.6 3749.6 0 00-1.6-17l-1.1-12.2a6118.2 6118.2 0 00-4.2-42.8c-.4-2.2-2.1-1.5 35-13.6l13.8-4.5a4916 4916 0 0141.4-13.3 270.5 270.5 0 0117-5.9c8.5-2.7 16-5.2 16.8-5.6 1.3-.5 1.7-.5 3 0l16.4 5.4a310.2 310.2 0 0117 6c.6 0 9.4 2.8 19.6 6.2L251 96c29.2 9.6 38.3 12.7 39.7 13.3 1.1.6 1.5 1 1.5 2a15274.6 15274.6 0 00-13.7 109.2 5108.9 5108.9 0 00-2 16c-.7 5-1.3 9.2-1.5 9.6-.2.5-14.5 10.5-27.4 19a900.3 900.3 0 00-20 13.7 16119.7 16119.7 0 00-28.9 19.9 9838.3 9838.3 0 00-19.8 13.5c-7.5 5.1-9.6 6.3-10.7 6.3-1 0-4-1.6-10.6-5.7zm8.9-17c0-10.8-.2-19.9-.4-20.1-.2-.3-2.2-1.6-4.5-3a5351 5351 0 01-20.3-11.7c-8.8-5.2-16.1-9.4-16.3-9.2-.2.2.7 35.1 1 37.8.3 1.8.4 1.9 6 5.3a81048 81048 0 0119.8 12c7.7 4.7 14.1 8.5 14.3 8.5.2 0 .4-8.8.4-19.6zm22.8 6.8c10.1-6.9 18.6-13 18.8-13.4.3-1 1.6-36.6 1.3-36.9a870 870 0 00-39.5 23.6c-.4.9.3 39.6.7 39.4.2 0 8.6-5.8 18.7-12.7zm-66.7-14.2c0-5.7-1.5-39.2-1.7-39.4l-35.6-20.7c-.8-.3-.9-2 .5 18.8l1 15c.2 3.9.5 5.3 1 5.8l16.3 10 16.7 10.2c1.3 1 1.8 1 1.8.3zM227 277l15.5-10.7c.8-.7 1-2.4 2.6-18.3 1-9.7 1.7-17.6 1.6-17.7-.2-.2-33 19.4-33.3 20-.2.2-.5 6.8-.8 14.5-.3 7.8-.6 16-.8 18.2-.1 2.2 0 4 .2 4s7-4.5 15-10zm-61-30.7l-.1-25-21.3-10.8a777 777 0 00-21.5-10.6c-.1.1.1 8.8.5 19.2l.7 23.7v4.6l6.8 4 20.6 12c7.7 4.6 14 8.2 14.2 8.1.1 0 .2-11.4.1-25.2zm23.5 13.9c10.3-6.1 19-11.4 19.5-11.8.6-.6.8-3.3 1.5-22a3848.7 3848.7 0 01.7-26.2l-24.5 12.2-9.8 5a91 91 0 00-7.2 3.8c-.8.7-.3 50.7.5 50.3l19.3-11.3zm-106.2 3.7L81 226.8c0-.7-1.6-1.9-7-5-11-6.6-19.7-11.5-20-11.4v3.8l1.1 11.6c2 20.6 2.2 23.2 2.5 23.7.3.6 25.1 15.8 25.7 15.8.1 0 .2-.7.1-1.4zm187-16.5c2.8-2 3-2.2 3.2-4.4l3.7-29.4c.1-.7 0-1.2-.1-1.2-.4 0-23.5 13.5-25.5 14.9-.7.5-1 1.3-1.3 3.1l-3 31.9c0 .7 7.2-4 23-14.9zm-39.6-11.7c8.8-5.2 16.2-9.7 16.3-9.9a930 930 0 004.3-45.5c-.1 0-5.4 2.4-11.6 5.5-19.6 9.8-24 12-24.4 12.7-.2.4-.6 7.8-1 16.5l-.8 23.3c-.2 6.5-.2 7.4.4 7.2.4-.1 8-4.5 16.8-9.8zm-109.9 4.5l-.8-23.4c-.4-15-.7-18.4-1.2-19-.6-.4-9.5-5-31.2-15.8l-6.2-3.1v1.4l2.5 39.8c.2 2 .5 3.8.8 4 .7.7 35.7 21.2 36 21.2.2 0 .3-2.3.1-5zm144-24.7l13-7.7a969.4 969.4 0 005.4-43.5l-14 6.7c-12.7 6.4-13.7 7-14 8.2l-2 20.6c-1 10.6-2 20.3-2 21.6-.3 2-.3 2.3.3 2l13.4-8zm-184.4 5.4l-1.4-22a198 198 0 00-2-22c-.6-.6-27.3-14-27.6-13.8-.1.2.5 7.8 3 34.6l.8 8.2 13.3 7.8 13.6 7.7c.2 0 .3-.2.3-.5zm113-15.5l17.9-9c.4-.4 2.3-50.4 2-50.7-.3-.2-43.7 18.3-44.4 19-.2.2-.2 11.8 0 26.6l.3 26.3 3.3-1.7 20.8-10.5zM165.6 195c-.1-12.3-.3-24.1-.5-26.3l-.3-4-11.2-5a70114.5 70114.5 0 01-32.4-13.8l.6 19.3.7 24.1c0 2.7.2 5.4.4 6 .3.8 3.1 2.3 12 6.8a68164.3 68164.3 0 0130.6 15.1V195zm-47-23.4c-.4-12.2-.8-23.4-1-25l-.2-2.6-3.5-1.5A39944.3 39944.3 0 0178 127c-.2.1.3 7.4 2.3 37.2.5 7.2 1 10.7 1.3 11a1854.1 1854.1 0 0037.7 18.8l-.6-22.5zm115 13.7c9.8-4.9 18-9.1 18.2-9.4.2-.3.7-4 1.1-8.3l2-19.6c1.6-17.3 2-20.7 1.7-21-.1-.1-4.6 1.8-28.7 12.2l-10.6 4.6-.3 3.2a6730 6730 0 01-1.6 40v7.2l18.2-8.9zm29.6-14.9a1434.7 1434.7 0 0120.1-10.2c.7-.6 1.4-5.4 4.7-31.6 1-8.5 1.8-15.6 1.7-15.7-.3-.3-28 11.6-28.8 12.3-.2.2-1.5 10.7-2.7 23.4-2.3 23.5-2.4 25.3-2 25.3l7-3.5zm-186 2c0-1.6-2.8-43.7-3-45.3-.2-1.9-.3-2-3.7-3.4-18.5-8-25.4-11-25.6-10.8-.5.4 3.7 45.6 4.2 46.1.4.4 27.4 14 27.8 14 .2 0 .3-.3.3-.6zm111.4-19.9c16.3-7 21.1-9.2 20.5-9.6-1.7-.9-41.1-15.9-41.8-15.9-.7 0-42 15.8-42.4 16.3-.4.3-.9 0 9.5 4.5a5760.4 5760.4 0 0132.3 13.9c.3 0 10.2-4.1 21.9-9.2zm-58.5-14.9a7396 7396 0 0025.7-10c3.6-1.3 6.3-2.6 6.1-2.8a6187.1 6187.1 0 00-38.4-14.7c-.9 0-42.2 14.4-42 14.7.5.4 37.6 16.5 38.3 16.5.4 0 5-1.6 10.3-3.7zm101.9-3.8l18.5-8c1.9-.8 2.3-1.1 1.8-1.4L243 121l-19.8-7a176 176 0 00-12-4c-.7 0-37.8 14.3-38.4 14.8a38 38 0 007.3 3.3c30.9 12 34.2 13.2 35 13 .6-.2 8.2-3.4 17-7.3zm-61-12l17.3-6.7c18.9-7.3 17.7-6.8 16.9-7.2-1.5-.8-36.8-13-37.7-13-.9 0-36.4 12.1-38.1 13-.8.4-2 0 15.7 6.7a2450.8 2450.8 0 0122 8.5l3.9-1.3zm-83.2-3c26-9 30.6-10.6 30.2-11l-14.6-5.8-14.3-5.5L69 103a590.6 590.6 0 00-20.6 7c-.2.2.2.5.9.8a716.5 716.5 0 0127.4 11.8l11.2-3.9zm185-2.5c7.5-3.3 13.6-6.1 13.4-6.3l-12.4-4.2a11145.8 11145.8 0 01-28-9.2 443.5 443.5 0 00-28.7 11c-1.2.4-1.1.5 16.5 6.6l16 5.6c4.4 1.6 8.3 2.7 8.7 2.6l14.4-6.1zM136 101.9a5041.9 5041.9 0 0125.9-9.2c0-.2-2.2-1-5-2l-14.6-5-9.7-3.5-7.9 2.6a54704.7 54704.7 0 01-30 10 2627.9 2627.9 0 0128.8 11.2c.3 0 6-1.8 12.5-4zm87.4-.4l14.3-5.5c1.3-.5 2.4-1 2.4-1.2 0-.2-1.2-.7-2.7-1.2a7040.3 7040.3 0 01-34.7-11.4l-14.7 5c-7.8 2.8-14.4 5-14.6 5-1.8 0 .7 1.1 9.9 4.3 22.1 7.8 27.3 9.6 27.8 9.6.2 0 5.8-2 12.3-4.6zm-48.9-13a1485.3 1485.3 0 0114.4-5 106 106 0 007.8-3A333 333 0 00168 71c-1 0-29 9-29.5 9.4-.3.3 27.9 10.4 29 10.5 0 0 3.3-1 7-2.4z"/><path fill="#000" d="M215 210l-.6 23.5 1.9-1.1.6-20.5 2.5-1.3-.2 7.3-2 1.1v2.1l1.7 9.8 2-1.2-1.7-9.5c.6-.3 1-.7 1.3-1 .3-.4.5-1.2.6-2.1l.3-8.4c0-1.4-.3-2-1-1.5L215 210zm8-4.2c0 2.7-.8 20-1 23.3l5.3-3 .2-3.2c4.3-2.4-7.8 4.4-3.4 2l.3-7.5 3-1.6v-3l-2.8 1.6.3-6.7 3.4-1.8.2-3-5.4 2.9zm8-4.2c-.7.4-1.2 1.3-1.3 2.7l-.3 5c0 .8.1 1.3.4 1.6l3.4 4.5-.2 4.6-2.4 1.3.3-4.8-2 1-.2 5.7c0 1.5.3 2 1 1.6l3.8-2.2c.8-.5 1.2-1.4 1.3-2.9l.4-5.6c0-.8 0-1.3-.3-1.6l-3.5-4.4.3-4 2.4-1.4-.3 4.3c.3-.2 1.7-1 2-1 0-1.7.2-3.5.3-5 .1-1.4-.2-1.9-1-1.5l-4 2.1zm6.8-3.5l-1.6 23 5.3-3 .2-3.2-3.4 2 .5-7.4 3-1.6.2-3-3 1.6.6-6.5 3.4-1.9.3-3-5.5 3zm6.3-3.4l-.3 3 2.2-1.1-1.7 19.8 1.9-1 1.8-19.9 2.1-1 .3-3-6.3 3.2z"/></svg>