<svg xmlns="http://www.w3.org/2000/svg" viewBox="0 0 348 348" fill="none"><path d="M5.08 5.776h336.91v337.67H5.08z" stroke-width="2" stroke="#000"/><path d="M282.734 40.554c0-8.376 6.966-15.165 15.56-15.165 4.126 0 8.084 1.594 11 4.44 2.92 2.842 4.56 6.7 4.56 10.722 0 8.376-6.967 15.165-15.56 15.165-8.594 0-15.56-6.79-15.56-15.166z" stroke-width="2" stroke="#000"/><path d="M157.562 312.936c-10.003-6.16-13.493-8.29-25.142-15.352-4.274-2.592-7.977-4.873-8.228-5.07-.252-.198-4.16-2.57-8.686-5.272-14.225-8.493-29.192-17.63-29.96-18.29-.407-.348-.862-.634-1.012-.634-.28 0-28.2-16.776-28.768-17.285-.173-.155-.742-4.87-1.264-10.476a1887.558 1887.558 0 00-1.401-14.531c-.249-2.386-.756-8.046-1.129-12.58-.372-4.532-.88-10.193-1.127-12.579-.249-2.385-.975-9.998-1.614-16.917a3749.637 3749.637 0 00-1.614-17.134c-.248-2.505-.756-7.97-1.129-12.145-.704-7.893-1.426-15.694-2.952-31.882-.495-5.249-1.031-10.147-1.192-10.886-.474-2.178-2.14-1.53 34.992-13.609 7.166-2.33 13.337-4.356 13.714-4.5.616-.236 12.245-4.042 33.247-10.881 4.081-1.33 7.794-2.417 8.251-2.417.458 0 1.04-.197 1.294-.438.254-.242 7.34-2.684 15.748-5.428 8.407-2.744 15.946-5.273 16.753-5.62 1.248-.535 1.694-.541 2.972-.044.827.322 8.189 2.784 16.36 5.47 8.17 2.687 15.125 5.086 15.455 5.33.329.245 1.06.492 1.624.55.564.056 9.346 2.876 19.515 6.265 10.169 3.39 23.117 7.682 28.774 9.54 29.204 9.591 38.304 12.65 39.656 13.326 1.136.568 1.485 1.029 1.485 1.958 0 .669-1.03 9.262-2.288 19.096-1.26 9.834-2.707 21.199-3.217 25.254-3.097 24.608-4.37 34.558-5.713 44.679-.633 4.771-1.242 9.65-1.354 10.844-.111 1.193-.619 5.39-1.127 9.326a5108.852 5108.852 0 00-2.04 16.05c-.612 4.89-1.245 9.184-1.405 9.542-.241.536-14.562 10.498-27.437 19.086-1.61 1.074-5.749 3.904-9.198 6.29-3.45 2.385-8.27 5.704-10.712 7.374-2.443 1.67-6.864 4.695-9.825 6.723-2.961 2.028-5.914 3.962-6.56 4.299-.648.336-1.383.845-1.634 1.131-.252.286-5.189 3.738-10.971 7.672a9838.33 9838.33 0 00-19.8 13.508c-7.505 5.137-9.567 6.35-10.743 6.321-1.055-.025-3.972-1.584-10.598-5.664zm8.906-16.965c-.003-10.795-.158-19.848-.342-20.118-.185-.269-2.222-1.573-4.527-2.897-2.305-1.324-11.422-6.636-20.261-11.804-8.839-5.17-16.17-9.303-16.294-9.186-.253.24.688 35.135 1.022 37.862.212 1.741.324 1.84 6.028 5.298a81048.03 81048.03 0 0119.753 11.986c7.669 4.654 14.097 8.468 14.286 8.475.188.007.34-8.82.335-19.616zm22.836 6.855c10.122-6.907 18.558-12.958 18.747-13.447.35-.908 1.643-36.6 1.335-36.858-.33-.275-39.208 22.964-39.485 23.602-.383.878.29 39.536.686 39.382.172-.068 8.595-5.773 18.717-12.68zm-66.714-14.229c-.019-5.665-1.486-39.203-1.724-39.4-.633-.525-34.874-20.39-35.602-20.655-.811-.295-.862-2.093.532 18.76.368 5.5.806 12.28.973 15.066.23 3.822.485 5.22 1.036 5.691.402.344 7.725 4.857 16.273 10.03 8.548 5.173 16.057 9.769 16.685 10.214 1.351.956 1.83 1.033 1.827.294zm104.478-11.596c8.032-5.483 15.022-10.314 15.534-10.736.845-.697 1.081-2.336 2.631-18.294.937-9.64 1.644-17.585 1.572-17.653-.234-.222-32.972 19.334-33.3 19.892-.176.297-.543 6.885-.816 14.638-.273 7.754-.613 15.903-.755 18.11-.142 2.207-.081 4.013.136 4.013.216 0 6.966-4.487 14.998-9.97zm-60.943-30.661l-.121-25.098-21.34-10.716c-11.736-5.894-21.404-10.655-21.483-10.58-.078.075.167 8.706.545 19.18.378 10.475.69 21.128.691 23.674l.003 4.628 6.743 3.945 20.684 12.105c7.669 4.49 14.046 8.116 14.171 8.06.126-.055.174-11.394.107-25.198zm23.435 13.83c10.308-6.08 19.084-11.368 19.502-11.754.667-.616.85-3.303 1.494-21.956.404-11.69.793-22.377.865-23.75.071-1.37.028-2.493-.097-2.493-.19 0-11.158 5.443-24.507 12.162l-9.828 4.947c-3.645 1.835-6.89 3.578-7.21 3.874-.779.722-.24 50.705.542 50.287.273-.146 8.931-5.24 19.24-11.318zM83.41 263.871c-.2-1.97-2.416-35.992-2.416-37.1 0-.698-1.594-1.848-6.97-5.027-11.031-6.521-19.75-11.444-20.021-11.304-.138.07-.102 1.752.08 3.736l1.062 11.632c1.879 20.587 2.15 23.187 2.475 23.738.317.538 25.108 15.724 25.682 15.732.139.002.187-.631.108-1.407zm186.896-16.439c2.941-2.049 3.042-2.182 3.311-4.386 1.98-16.201 3.528-28.53 3.702-29.492.118-.656.05-1.193-.154-1.193-.35 0-23.453 13.51-25.487 14.905-.713.489-1.045 1.325-1.262 3.181-.465 3.96-3.029 30.91-3.029 31.83 0 .771 7.184-3.882 22.919-14.845zm-39.508-11.687c8.852-5.24 16.21-9.705 16.35-9.92.228-.35 1.505-12.714 3.833-37.104.433-4.533.638-8.302.457-8.376-.182-.074-5.436 2.403-11.676 5.504-19.54 9.712-24.015 12.04-24.37 12.67-.19.337-.6 7.737-.912 16.445-.313 8.708-.699 19.202-.858 23.32-.254 6.551-.205 7.457.395 7.239.377-.137 7.929-4.537 16.78-9.778zm-109.865 4.486c-.134-2.803-.495-13.348-.803-23.433-.456-14.913-.683-18.445-1.22-18.926-.58-.52-9.547-5.08-31.173-15.85l-6.286-3.131-.002 1.445c-.002 1.389 1.987 32.333 2.555 39.746.152 1.98.514 3.802.804 4.05.73.622 35.65 21.125 36.048 21.164.176.017.21-2.262.077-5.065zm144.054-24.747c7.04-4.158 12.86-7.611 12.934-7.674.127-.108.859-5.701 4.193-32.05.781-6.174 1.321-11.32 1.2-11.435-.122-.115-6.402 2.886-13.955 6.67-12.792 6.41-13.75 6.97-13.969 8.183-.13.716-1.055 9.987-2.057 20.604-1.003 10.616-1.955 20.355-2.116 21.641-.242 1.924-.182 2.275.338 1.98.348-.198 6.392-3.76 13.432-7.919zM80.54 220.93c.002-.298-.632-10.204-1.41-22.014-.929-14.104-1.596-21.643-1.947-21.973-.73-.689-27.433-14.024-27.656-13.812-.16.152.512 7.794 3.042 34.605l.768 8.147 13.257 7.771c7.291 4.275 13.41 7.782 13.6 7.795.188.013.344-.22.346-.519zm112.906-15.514c9.68-4.827 17.755-8.91 17.945-9.072.383-.328 2.348-50.321 1.992-50.66-.234-.222-43.642 18.356-44.334 18.974-.225.2-.25 11.794-.058 26.634l.34 26.278 3.258-1.69c1.792-.929 11.177-5.638 20.857-10.464zm-27.782-10.547c-.07-12.246-.276-24.085-.458-26.308l-.33-4.044-11.2-4.865c-6.16-2.677-15.93-6.924-21.713-9.44-5.783-2.516-10.57-4.522-10.636-4.46-.068.063.19 8.781.57 19.374.382 10.592.694 21.442.694 24.11 0 2.67.193 5.332.428 5.919.329.821 3.081 2.39 12 6.84 6.364 3.175 15.789 7.88 20.943 10.454 5.154 2.574 9.473 4.681 9.6 4.683.125.002.171-10.017.102-22.263zm-46.974-23.322c-.391-12.263-.82-23.495-.95-24.96l-.239-2.661-3.511-1.517c-1.932-.834-10.791-4.668-19.688-8.52-8.896-3.854-16.24-6.944-16.32-6.868-.133.126.32 7.33 2.333 37.18.483 7.173.895 10.719 1.268 10.942.304.182 7.65 3.887 16.324 8.233 8.674 4.347 16.997 8.54 18.497 9.316 1.499.777 2.787 1.354 2.862 1.283.075-.072-.184-10.164-.576-22.428zm114.99 13.674c9.77-4.908 17.953-9.154 18.184-9.435.23-.28.754-4.024 1.162-8.318.409-4.294 1.265-13.078 1.903-19.52 1.72-17.375 2.014-20.79 1.803-20.99-.182-.172-4.669 1.722-28.708 12.12l-10.58 4.575-.298 3.232c-.165 1.778-.53 9.869-.812 17.98-.283 8.112-.643 18.018-.8 22.014-.157 3.996-.135 7.266.049 7.266s8.328-4.016 18.098-8.924zm29.623-14.876c3.69-1.876 9.59-4.831 13.11-6.566 3.52-1.735 6.687-3.406 7.036-3.713.685-.602 1.386-5.365 4.646-31.54 1.064-8.535 1.83-15.615 1.705-15.734-.265-.252-28.09 11.632-28.79 12.296-.259.245-1.472 10.76-2.697 23.365-2.289 23.56-2.426 25.305-1.982 25.305.143 0 3.28-1.536 6.972-3.413zm-185.967 2.004c0-1.658-2.797-43.795-3.011-45.37-.255-1.865-.29-1.897-3.765-3.412-18.486-8.06-25.384-10.962-25.59-10.766-.433.41 3.731 45.64 4.246 46.13.345.326 27.408 13.899 27.777 13.93.189.016.343-.214.343-.512zm111.348-19.918c16.36-7.055 21.113-9.275 20.525-9.588-1.696-.9-41.126-15.932-41.793-15.932-.705 0-41.97 15.798-42.447 16.25-.342.325-.825.093 9.508 4.559 14.173 6.124 26.449 11.454 29.256 12.702 1.383.615 2.772 1.134 3.088 1.154.315.02 10.154-4.095 21.863-9.145zm-58.515-14.914c5.26-2.039 11.725-4.551 14.365-5.583 2.64-1.032 7.74-3.004 11.336-4.383 3.595-1.379 6.372-2.653 6.17-2.831-.2-.179-3.758-1.636-7.907-3.238-17.138-6.62-20.109-7.764-24.876-9.583-2.746-1.048-5.281-1.905-5.634-1.905-.873 0-42.186 14.446-41.95 14.669.468.445 37.573 16.49 38.211 16.524.396.02 5.025-1.63 10.285-3.67zm101.904-3.774c8.8-3.809 17.13-7.405 18.513-7.99 1.913-.81 2.347-1.155 1.817-1.44-.384-.205-4.6-1.744-9.371-3.42l-19.851-6.973c-6.148-2.16-11.517-3.926-11.93-3.926-.78 0-37.879 14.183-38.495 14.717-.192.166 3.1 1.636 7.314 3.268 30.908 11.97 34.23 13.197 35.09 12.95.502-.143 8.113-3.377 16.913-7.186zm-60.975-12.067c1.857-.732 9.651-3.744 17.32-6.692 18.865-7.255 17.671-6.748 16.884-7.166-1.542-.819-36.851-13.07-37.73-13.092-.845-.02-36.392 12.2-38.101 13.1-.77.404-1.913-.083 15.748 6.715 7.04 2.71 14.754 5.705 17.142 6.656 2.389.951 4.572 1.748 4.852 1.77.28.022 2.028-.56 3.885-1.291zm-83.161-2.958c26.038-9.034 30.515-10.656 30.194-10.944-.187-.166-6.766-2.788-14.622-5.826l-14.282-5.523-20.23 6.603c-11.127 3.632-20.4 6.758-20.608 6.947-.208.19.203.549.914.798.71.25 7.154 3.004 14.32 6.123 7.165 3.118 13.067 5.67 13.114 5.673.048.002 5.088-1.73 11.2-3.851zm184.908-2.561c7.591-3.27 13.66-6.064 13.485-6.209-.174-.144-5.768-2.066-12.43-4.27-6.663-2.206-15.566-5.162-19.785-6.57-4.219-1.409-7.908-2.561-8.198-2.561-.518 0-11.278 4.065-22.073 8.339-3.017 1.194-6 2.36-6.628 2.592-1.26.464-1.14.513 16.457 6.645 4.4 1.533 11.6 4.055 15.999 5.603 4.4 1.55 8.308 2.718 8.685 2.597.377-.121 6.897-2.896 14.488-6.166zm-136.816-14.25c6.563-2.3 13.784-4.82 16.047-5.6 8.908-3.07 9.828-3.412 9.823-3.642-.003-.132-2.215-.99-4.914-1.91-2.7-.918-9.293-3.215-14.65-5.103l-9.742-3.434-7.858 2.57c-4.322 1.413-12.846 4.198-18.942 6.188-6.097 1.99-11.085 3.722-11.085 3.85 0 .126.565.442 1.256.701 2.95 1.107 18.527 7.162 22.513 8.751 2.389.952 4.63 1.75 4.981 1.772.352.022 6.009-1.842 12.571-4.142zm87.39-.408c6.52-2.525 12.934-4.992 14.253-5.483 1.32-.49 2.4-1.041 2.4-1.225 0-.183-1.182-.717-2.628-1.186-1.446-.469-9.768-3.22-18.493-6.112-8.725-2.894-16.059-5.26-16.296-5.26-.238 0-6.815 2.244-14.616 4.988-7.801 2.743-14.404 4.988-14.674 4.988-1.756 0 .762 1.092 9.91 4.298 22.172 7.772 27.33 9.546 27.8 9.564.27.01 5.823-2.047 12.343-4.572zm-48.895-13.02a1485.334 1485.334 0 0114.35-5.016c4.149-1.422 7.69-2.723 7.869-2.89.383-.357-27.326-9.619-28.78-9.619-1.031 0-28.896 8.965-29.473 9.482-.259.233 27.861 10.388 28.948 10.455.153.009 3.341-1.076 7.086-2.413z" fill="#000"/></svg>