<svg xmlns="http://www.w3.org/2000/svg" viewBox="0 0 348 348" fill="none"><path d="M5.079 5.776h336.913v337.67H5.08z" stroke-width="2" stroke="#000"/><path d="M282.734 40.554c0-8.376 6.966-15.165 15.56-15.165 4.126 0 8.084 1.597 11.001 4.441 2.918 2.844 4.558 6.702 4.558 10.724 0 8.376-6.966 15.165-15.56 15.165-8.593 0-15.559-6.79-15.559-15.165z" stroke-width="2" stroke="#000"/><path d="M14.266 22.783h35.432v35.432H14.266zm44.361 0h35.432v35.432H58.627zm44.361 0h35.432v35.432h-35.432zm44.362 0h35.432v35.432H147.35zm44.661 0h35.432v35.432h-35.432zm44.361 0h35.432v35.432h-35.432zm79.186 45.012v35.432h-35.433V67.795zm0 44.361v35.432h-35.432v-35.432zm0 44.362v35.432h-35.432v-35.432zm0 44.361v35.432h-35.432v-35.432zm0 44.661v35.432h-35.432V245.54zm0 44.361v35.432h-35.432v-35.432z" fill="#fff" stroke="#000" stroke-width="2.194"/><path d="M49.321 85.379a17.444 17.444 0 01-17.444 17.444 17.444 17.444 0 01-17.444-17.444 17.444 17.444 0 0117.444-17.444 17.444 17.444 0 0117.444 17.444zm43.8 0a17.444 17.444 0 01-17.444 17.444 17.444 17.444 0 01-17.444-17.444 17.444 17.444 0 0117.444-17.444 17.444 17.444 0 0117.444 17.444zm-43.8 44.5a17.444 17.444 0 01-17.444 17.444 17.444 17.444 0 01-17.444-17.444 17.444 17.444 0 0117.444-17.444 17.444 17.444 0 0117.444 17.444zm43.8 0a17.444 17.444 0 01-17.444 17.444 17.444 17.444 0 01-17.444-17.444 17.444 17.444 0 0117.444-17.444 17.444 17.444 0 0117.444 17.444zm44.6-44.5a17.444 17.444 0 01-17.444 17.444 17.444 17.444 0 01-17.444-17.444 17.444 17.444 0 0117.444-17.444 17.444 17.444 0 0117.444 17.444zm43.8 0a17.444 17.444 0 01-17.444 17.444 17.444 17.444 0 01-17.444-17.444 17.444 17.444 0 0117.444-17.444 17.444 17.444 0 0117.444 17.444zm-43.8 44.5a17.444 17.444 0 01-17.444 17.444 17.444 17.444 0 01-17.444-17.444 17.444 17.444 0 0117.444-17.444 17.444 17.444 0 0117.444 17.444zm43.8 0a17.444 17.444 0 01-17.444 17.444 17.444 17.444 0 01-17.444-17.444 17.444 17.444 0 0117.444-17.444 17.444 17.444 0 0117.444 17.444zm45.4-44.5a17.444 17.444 0 01-17.444 17.444 17.444 17.444 0 01-17.444-17.444 17.444 17.444 0 0117.444-17.444 17.444 17.444 0 0117.444 17.444zm43.8 0a17.444 17.444 0 01-17.444 17.444 17.444 17.444 0 01-17.444-17.444 17.444 17.444 0 0117.444-17.444 17.444 17.444 0 0117.444 17.444zm-43.8 44.5a17.444 17.444 0 01-17.444 17.444 17.444 17.444 0 01-17.444-17.444 17.444 17.444 0 0117.444-17.444 17.444 17.444 0 0117.444 17.444zm43.8 0a17.444 17.444 0 01-17.444 17.444 17.444 17.444 0 01-17.444-17.444 17.444 17.444 0 0117.444-17.444 17.444 17.444 0 0117.444 17.444zm-221.4 44.4a17.444 17.444 0 01-17.444 17.444 17.444 17.444 0 01-17.444-17.444 17.444 17.444 0 0117.444-17.444 17.444 17.444 0 0117.444 17.444zm43.8 0a17.444 17.444 0 01-17.444 17.444 17.444 17.444 0 01-17.444-17.444 17.444 17.444 0 0117.444-17.444 17.444 17.444 0 0117.444 17.444zm-43.8 44.5a17.444 17.444 0 01-17.444 17.444 17.444 17.444 0 01-17.444-17.444 17.444 17.444 0 0117.444-17.444 17.444 17.444 0 0117.444 17.444zm43.8 0a17.444 17.444 0 01-17.444 17.444 17.444 17.444 0 01-17.444-17.444 17.444 17.444 0 0117.444-17.444 17.444 17.444 0 0117.444 17.444zm44.6-44.5a17.444 17.444 0 01-17.444 17.444 17.444 17.444 0 01-17.444-17.444 17.444 17.444 0 0117.444-17.444 17.444 17.444 0 0117.444 17.444zm43.8 0a17.444 17.444 0 01-17.444 17.444 17.444 17.444 0 01-17.444-17.444 17.444 17.444 0 0117.444-17.444 17.444 17.444 0 0117.444 17.444zm-43.8 44.5a17.444 17.444 0 01-17.444 17.444 17.444 17.444 0 01-17.444-17.444 17.444 17.444 0 0117.444-17.444 17.444 17.444 0 0117.444 17.444zm43.8 0a17.444 17.444 0 01-17.444 17.444 17.444 17.444 0 01-17.444-17.444 17.444 17.444 0 0117.444-17.444 17.444 17.444 0 0117.444 17.444zm45.4-44.5a17.444 17.444 0 01-17.444 17.444 17.444 17.444 0 01-17.444-17.444 17.444 17.444 0 0117.444-17.444 17.444 17.444 0 0117.444 17.444zm43.8 0a17.444 17.444 0 01-17.444 17.444 17.444 17.444 0 01-17.444-17.444 17.444 17.444 0 0117.444-17.444 17.444 17.444 0 0117.444 17.444zm-43.8 44.5a17.444 17.444 0 01-17.444 17.444 17.444 17.444 0 01-17.444-17.444 17.444 17.444 0 0117.444-17.444 17.444 17.444 0 0117.444 17.444zm43.8 0a17.444 17.444 0 01-17.444 17.444 17.444 17.444 0 01-17.444-17.444 17.444 17.444 0 0117.444-17.444 17.444 17.444 0 0117.444 17.444zm-221.4 45.5a17.444 17.444 0 01-17.444 17.444 17.444 17.444 0 01-17.444-17.444 17.444 17.444 0 0117.444-17.444 17.444 17.444 0 0117.444 17.444zm43.8 0a17.444 17.444 0 01-17.444 17.444 17.444 17.444 0 01-17.444-17.444 17.444 17.444 0 0117.444-17.444 17.444 17.444 0 0117.444 17.444zm-43.8 44.5a17.444 17.444 0 01-17.444 17.444 17.444 17.444 0 01-17.444-17.444 17.444 17.444 0 0117.444-17.444 17.444 17.444 0 0117.444 17.444zm43.8 0a17.444 17.444 0 01-17.444 17.444 17.444 17.444 0 01-17.444-17.444 17.444 17.444 0 0117.444-17.444 17.444 17.444 0 0117.444 17.444zm44.6-44.5a17.444 17.444 0 01-17.444 17.444 17.444 17.444 0 01-17.444-17.444 17.444 17.444 0 0117.444-17.444 17.444 17.444 0 0117.444 17.444zm43.8 0a17.444 17.444 0 01-17.444 17.444 17.444 17.444 0 01-17.444-17.444 17.444 17.444 0 0117.444-17.444 17.444 17.444 0 0117.444 17.444zm-43.8 44.5a17.444 17.444 0 01-17.444 17.444 17.444 17.444 0 01-17.444-17.444 17.444 17.444 0 0117.444-17.444 17.444 17.444 0 0117.444 17.444zm43.8 0a17.444 17.444 0 01-17.444 17.444 17.444 17.444 0 01-17.444-17.444 17.444 17.444 0 0117.444-17.444 17.444 17.444 0 0117.444 17.444zm45.4-44.5a17.444 17.444 0 01-17.444 17.444 17.444 17.444 0 01-17.444-17.444 17.444 17.444 0 0117.444-17.444 17.444 17.444 0 0117.444 17.444zm43.8 0a17.444 17.444 0 01-17.444 17.444 17.444 17.444 0 01-17.444-17.444 17.444 17.444 0 0117.444-17.444 17.444 17.444 0 0117.444 17.444zm-43.8 44.5a17.444 17.444 0 01-17.444 17.444 17.444 17.444 0 01-17.444-17.444 17.444 17.444 0 0117.444-17.444 17.444 17.444 0 0117.444 17.444zm43.8 0a17.444 17.444 0 01-17.444 17.444 17.444 17.444 0 01-17.444-17.444 17.444 17.444 0 0117.444-17.444 17.444 17.444 0 0117.444 17.444z" fill="#fff" stroke="#000" stroke-width="2.619"/><path d="M276.879 40.554c0-11.528 9.587-20.872 21.415-20.872 5.679 0 11.126 2.198 15.141 6.112 4.016 3.915 6.273 9.224 6.273 14.76 0 11.528-9.587 20.872-21.415 20.872-11.827 0-21.414-9.345-21.414-20.872z" stroke="#000" stroke-width="2.268"/><path d="M29.844 38.315h-3.618l-1 4.085h3.347v1.467h-3.726l-1.13 4.574h-1.402l1.13-4.574h-2.933l-1.13 4.574H17.98l1.13-4.574h-3.238V42.4h3.618l1-4.085h-3.346v-1.467h3.726l1.14-4.585h1.402l-1.14 4.585h2.933l1.141-4.585h1.402l-1.141 4.585h3.237zm-4.986-.022H21.88l-1.022 4.129h2.977zm23.196.022h-3.618l-1 4.085h3.347v1.467h-3.727l-1.13 4.574h-1.401l1.13-4.574H38.72l-1.13 4.574h-1.402l1.13-4.574h-3.237V42.4H37.7l1-4.085h-3.347v-1.467h3.727l1.14-4.585h1.402l-1.14 4.585h2.933l1.14-4.585h1.402l-1.14 4.585h3.237zm-4.987-.022H40.09l-1.021 4.129h2.977zM74.144 38.315h-3.618l-1 4.085h3.347v1.467h-3.726l-1.13 4.574h-1.402l1.13-4.574h-2.933l-1.13 4.574H62.28l1.13-4.574h-3.238V42.4h3.618l1-4.085h-3.346v-1.467h3.726l1.14-4.585h1.403l-1.141 4.585h2.933l1.141-4.585h1.402l-1.141 4.585h3.237zm-4.986-.022H66.18l-1.022 4.129h2.977zm23.196.022h-3.618l-1 4.085h3.347v1.467h-3.727l-1.13 4.574h-1.401l1.13-4.574H83.02l-1.13 4.574h-1.402l1.13-4.574h-3.237V42.4H82l1-4.085h-3.347v-1.467h3.727l1.14-4.585h1.402l-1.14 4.585h2.933l1.14-4.585h1.402l-1.14 4.585h3.237zm-4.987-.022H84.39l-1.021 4.129h2.977zM118.544 38.315h-3.618l-1 4.085h3.347v1.467h-3.726l-1.13 4.574h-1.402l1.13-4.574h-2.933l-1.13 4.574h-1.402l1.13-4.574h-3.238V42.4h3.618l1-4.085h-3.347v-1.467h3.727l1.14-4.585h1.402l-1.14 4.585h2.933l1.14-4.585h1.402l-1.14 4.585h3.237zm-4.987-.022h-2.977l-1.02 4.129h2.976zm23.197.022h-3.618l-1 4.085h3.347v1.467h-3.727l-1.13 4.574h-1.402l1.13-4.574h-2.933l-1.13 4.574h-1.402l1.13-4.574h-3.237V42.4h3.618l1-4.085h-3.347v-1.467h3.726l1.141-4.585h1.402l-1.141 4.585h2.933l1.141-4.585h1.402l-1.141 4.585h3.238zm-4.987-.022h-2.977l-1.021 4.129h2.977z" aria-label="##" font-weight="400" font-size="22.251" letter-spacing="0" word-spacing="0" font-family="Gill Sans Nova" fill="#000"/><path d="M162.945 38.315h-3.618l-1 4.085h3.347v1.467h-3.727l-1.13 4.574h-1.402l1.13-4.574h-2.933l-1.13 4.574h-1.402l1.13-4.574h-3.237V42.4h3.618l1-4.085h-3.347v-1.467h3.726l1.141-4.585h1.402l-1.141 4.585h2.933l1.141-4.585h1.402l-1.141 4.585h3.238zm-4.987-.022h-2.977l-1.021 4.129h2.976zm23.196.022h-3.618l-1 4.085h3.347v1.467h-3.727l-1.13 4.574h-1.401l1.13-4.574h-2.934l-1.13 4.574h-1.401l1.13-4.574h-3.238V42.4h3.618l1-4.085h-3.347v-1.467h3.727l1.14-4.585h1.402l-1.14 4.585h2.933l1.14-4.585h1.402l-1.14 4.585h3.237zm-4.987-.022h-2.977l-1.021 4.129h2.977z" aria-label="##" font-weight="400" font-size="22.251" letter-spacing="0" word-spacing="0" font-family="Gill Sans Nova" fill="#000" stroke-width="2.086"/><path d="M207.644 38.315h-3.618l-1 4.085h3.347v1.467h-3.726l-1.13 4.574h-1.402l1.13-4.574h-2.933l-1.13 4.574h-1.402l1.13-4.574h-3.238V42.4h3.618l1-4.085h-3.346v-1.467h3.726l1.14-4.585h1.403l-1.141 4.585h2.933l1.141-4.585h1.402l-1.141 4.585h3.237zm-4.986-.022h-2.977l-1.022 4.129h2.977zm23.196.022h-3.618l-1 4.085h3.347v1.467h-3.727l-1.13 4.574h-1.401l1.13-4.574h-2.934l-1.13 4.574h-1.402l1.13-4.574h-3.237V42.4h3.618l1-4.085h-3.347v-1.467h3.727l1.14-4.585h1.402l-1.14 4.585h2.933l1.14-4.585h1.402l-1.14 4.585h3.237zm-4.987-.022h-2.977l-1.021 4.129h2.977z" aria-label="##" font-weight="400" font-size="22.251" letter-spacing="0" word-spacing="0" font-family="Gill Sans Nova" fill="#000"/><g word-spacing="0" letter-spacing="0" font-size="25.836" font-weight="400" font-family="Gill Sans Nova" fill="#000"><path aria-label="#" d="M39.881 82.766h-4.2l-1.161 4.743h3.885v1.703h-4.327l-1.312 5.31H31.14l1.312-5.31h-3.406l-1.312 5.31h-1.628l1.312-5.31h-3.759V87.51h4.2l1.161-4.743h-3.885v-1.703h4.327l1.325-5.324h1.627l-1.326 5.324h3.406l1.325-5.324h1.627l-1.324 5.324h3.759zm-5.79-.025h-3.457l-1.186 4.793h3.457zM83.741 82.766h-4.2l-1.161 4.743h3.885v1.703h-4.327l-1.312 5.31H75l1.312-5.31h-3.406l-1.312 5.31h-1.628l1.312-5.31h-3.759V87.51h4.2l1.161-4.743h-3.885v-1.703h4.327l1.325-5.324h1.627l-1.326 5.324h3.406l1.325-5.324h1.627l-1.324 5.324h3.759zm-5.79-.025h-3.457l-1.186 4.793h3.457zM128.201 82.766h-4.2l-1.161 4.743h3.885v1.703h-4.327l-1.312 5.31h-1.627l1.312-5.31h-3.406l-1.312 5.31h-1.628l1.312-5.31h-3.759V87.51h4.2l1.161-4.743h-3.885v-1.703h4.327l1.325-5.324h1.627l-1.325 5.324h3.406l1.325-5.324h1.627l-1.324 5.324h3.759zm-5.79-.025h-3.457l-1.186 4.793h3.457zM172.161 82.766h-4.2l-1.16 4.743h3.884v1.703h-4.327l-1.312 5.31h-1.627l1.312-5.31h-3.406l-1.312 5.31h-1.628l1.312-5.31h-3.759V87.51h4.2l1.161-4.743h-3.885v-1.703h4.327l1.325-5.324h1.627l-1.325 5.324h3.406l1.325-5.324h1.627l-1.324 5.324h3.76zm-5.79-.025h-3.457l-1.186 4.793h3.457zM217.421 82.766h-4.2l-1.161 4.743h3.885v1.703h-4.327l-1.312 5.31h-1.627l1.312-5.31h-3.406l-1.312 5.31h-1.628l1.312-5.31h-3.759V87.51h4.2l1.161-4.743h-3.885v-1.703h4.327l1.325-5.324h1.627l-1.325 5.324h3.406l1.325-5.324h1.627l-1.324 5.324h3.759zm-5.79-.025h-3.457l-1.186 4.793h3.457zM261.45 82.766h-4.2l-1.161 4.743h3.885v1.703h-4.327l-1.312 5.31h-1.627l1.312-5.31h-3.406l-1.312 5.31h-1.628l1.312-5.31h-3.76V87.51h4.2l1.162-4.743h-3.885v-1.703h4.327l1.325-5.324h1.627l-1.325 5.324h3.406l1.325-5.324h1.627l-1.324 5.324h3.759zm-5.79-.025h-3.457l-1.186 4.793h3.457z"/></g><path d="M251.944 38.315h-3.618l-1 4.085h3.347v1.467h-3.726l-1.13 4.574h-1.402l1.13-4.574h-2.933l-1.13 4.574h-1.402l1.13-4.574h-3.238V42.4h3.618l1-4.085h-3.347v-1.467h3.727l1.14-4.585h1.402l-1.14 4.585h2.933l1.14-4.585h1.402l-1.14 4.585h3.237zm-4.987-.022h-2.977l-1.02 4.129h2.976zm23.197.022h-3.618l-1 4.085h3.347v1.467h-3.727l-1.13 4.574h-1.402l1.13-4.574h-2.933l-1.13 4.574h-1.402l1.13-4.574h-3.237V42.4h3.618l1-4.085h-3.347v-1.467h3.726l1.141-4.585h1.402l-1.141 4.585h2.933l1.141-4.585h1.402l-1.141 4.585h3.238zm-4.987-.022h-2.977l-1.021 4.129h2.977z" aria-label="##" font-weight="400" font-size="22.251" letter-spacing="0" word-spacing="0" font-family="Gill Sans Nova" fill="#000"/><path d="M295.745 83.515h-3.618l-1 4.085h3.347v1.467h-3.727l-1.13 4.574h-1.402l1.13-4.574h-2.933l-1.13 4.574h-1.402l1.13-4.574h-3.237V87.6h3.618l1-4.085h-3.347v-1.467h3.726l1.141-4.585h1.402l-1.141 4.585h2.933l1.141-4.585h1.402l-1.141 4.585h3.238zm-4.987-.022h-2.977l-1.021 4.129h2.976zm23.196.022h-3.618l-1 4.085h3.347v1.467h-3.727l-1.13 4.574h-1.401l1.13-4.574h-2.934l-1.13 4.574h-1.401l1.13-4.574h-3.238V87.6h3.618l1-4.085h-3.347v-1.467h3.727l1.14-4.585h1.402l-1.14 4.585h2.933l1.14-4.585h1.402l-1.14 4.585h3.237zm-4.987-.022h-2.977l-1.021 4.129h2.977zM295.745 127.715h-3.618l-1 4.085h3.347v1.467h-3.727l-1.13 4.574h-1.402l1.13-4.574h-2.933l-1.13 4.574h-1.402l1.13-4.574h-3.237V131.8h3.618l1-4.085h-3.347v-1.467h3.726l1.141-4.585h1.402l-1.141 4.585h2.933l1.141-4.585h1.402l-1.141 4.585h3.238zm-4.987-.022h-2.977l-1.021 4.129h2.976zm23.196.022h-3.618l-1 4.085h3.347v1.467h-3.727l-1.13 4.574h-1.401l1.13-4.574h-2.934l-1.13 4.574h-1.401l1.13-4.574h-3.238V131.8h3.618l1-4.085h-3.347v-1.467h3.727l1.14-4.585h1.402l-1.14 4.585h2.933l1.14-4.585h1.402l-1.14 4.585h3.237zm-4.987-.022h-2.977l-1.021 4.129h2.977zM295.745 172.015h-3.618l-1 4.085h3.347v1.467h-3.727l-1.13 4.574h-1.402l1.13-4.574h-2.933l-1.13 4.574h-1.402l1.13-4.574h-3.237V176.1h3.618l1-4.085h-3.347v-1.467h3.726l1.141-4.585h1.402l-1.141 4.585h2.933l1.141-4.585h1.402l-1.141 4.585h3.238zm-4.987-.022h-2.977l-1.021 4.129h2.976zm23.196.022h-3.618l-1 4.085h3.347v1.467h-3.727l-1.13 4.574h-1.401l1.13-4.574h-2.934l-1.13 4.574h-1.401l1.13-4.574h-3.238V176.1h3.618l1-4.085h-3.347v-1.467h3.727l1.14-4.585h1.402l-1.14 4.585h2.933l1.14-4.585h1.402l-1.14 4.585h3.237zm-4.987-.022h-2.977l-1.021 4.129h2.977zM295.745 216.315h-3.618l-1 4.085h3.347v1.467h-3.727l-1.13 4.574h-1.402l1.13-4.574h-2.933l-1.13 4.574h-1.402l1.13-4.574h-3.237V220.4h3.618l1-4.085h-3.347v-1.467h3.726l1.141-4.585h1.402l-1.141 4.585h2.933l1.141-4.585h1.402l-1.141 4.585h3.238zm-4.987-.022h-2.977l-1.021 4.129h2.976zm23.196.022h-3.618l-1 4.085h3.347v1.467h-3.727l-1.13 4.574h-1.401l1.13-4.574h-2.934l-1.13 4.574h-1.401l1.13-4.574h-3.238V220.4h3.618l1-4.085h-3.347v-1.467h3.727l1.14-4.585h1.402l-1.14 4.585h2.933l1.14-4.585h1.402l-1.14 4.585h3.237zm-4.987-.022h-2.977l-1.021 4.129h2.977zM295.745 261.115h-3.618l-1 4.085h3.347v1.467h-3.727l-1.13 4.574h-1.402l1.13-4.574h-2.933l-1.13 4.574h-1.402l1.13-4.574h-3.237V265.2h3.618l1-4.085h-3.347v-1.467h3.726l1.141-4.585h1.402l-1.141 4.585h2.933l1.141-4.585h1.402l-1.141 4.585h3.238zm-4.987-.022h-2.977l-1.021 4.129h2.976zm23.196.022h-3.618l-1 4.085h3.347v1.467h-3.727l-1.13 4.574h-1.401l1.13-4.574h-2.934l-1.13 4.574h-1.401l1.13-4.574h-3.238V265.2h3.618l1-4.085h-3.347v-1.467h3.727l1.14-4.585h1.402l-1.14 4.585h2.933l1.14-4.585h1.402l-1.14 4.585h3.237zm-4.987-.022h-2.977l-1.021 4.129h2.977zM295.745 305.615h-3.618l-1 4.085h3.347v1.467h-3.727l-1.13 4.574h-1.402l1.13-4.574h-2.933l-1.13 4.574h-1.402l1.13-4.574h-3.237V309.7h3.618l1-4.085h-3.347v-1.467h3.726l1.141-4.585h1.402l-1.141 4.585h2.933l1.141-4.585h1.402l-1.141 4.585h3.238zm-4.987-.022h-2.977l-1.021 4.129h2.976zm23.196.022h-3.618l-1 4.085h3.347v1.467h-3.727l-1.13 4.574h-1.401l1.13-4.574h-2.934l-1.13 4.574h-1.401l1.13-4.574h-3.238V309.7h3.618l1-4.085h-3.347v-1.467h3.727l1.14-4.585h1.402l-1.14 4.585h2.933l1.14-4.585h1.402l-1.14 4.585h3.237zm-4.987-.022h-2.977l-1.021 4.129h2.977z" aria-label="##" font-weight="400" font-size="22.251" letter-spacing="0" word-spacing="0" font-family="Gill Sans Nova" fill="#000" stroke-width="2.086"/><g word-spacing="0" letter-spacing="0" font-size="25.836" font-weight="400" font-family="Gill Sans Nova" fill="#000"><path aria-label="#" d="M39.881 127.366h-4.2l-1.161 4.743h3.885v1.703h-4.327l-1.312 5.311H31.14l1.312-5.31h-3.406l-1.312 5.31h-1.628l1.312-5.31h-3.759v-1.704h4.2l1.161-4.743h-3.885v-1.703h4.327l1.325-5.324h1.627l-1.326 5.324h3.406l1.325-5.324h1.627l-1.324 5.324h3.759zm-5.79-.025h-3.457l-1.186 4.793h3.457zM83.741 127.366h-4.2l-1.161 4.743h3.885v1.703h-4.327l-1.312 5.311H75l1.312-5.31h-3.406l-1.312 5.31h-1.628l1.312-5.31h-3.759v-1.704h4.2l1.161-4.743h-3.885v-1.703h4.327l1.325-5.324h1.627l-1.326 5.324h3.406l1.325-5.324h1.627l-1.324 5.324h3.759zm-5.79-.025h-3.457l-1.186 4.793h3.457zM128.201 127.366h-4.2l-1.161 4.743h3.885v1.703h-4.327l-1.312 5.311h-1.627l1.312-5.31h-3.406l-1.312 5.31h-1.628l1.312-5.31h-3.759v-1.704h4.2l1.161-4.743h-3.885v-1.703h4.327l1.325-5.324h1.627l-1.325 5.324h3.406l1.325-5.324h1.627l-1.324 5.324h3.759zm-5.79-.025h-3.457l-1.186 4.793h3.457zM172.161 127.366h-4.2l-1.16 4.743h3.884v1.703h-4.327l-1.312 5.311h-1.627l1.312-5.31h-3.406l-1.312 5.31h-1.628l1.312-5.31h-3.759v-1.704h4.2l1.161-4.743h-3.885v-1.703h4.327l1.325-5.324h1.627l-1.325 5.324h3.406l1.325-5.324h1.627l-1.324 5.324h3.76zm-5.79-.025h-3.457l-1.186 4.793h3.457zM217.421 127.366h-4.2l-1.161 4.743h3.885v1.703h-4.327l-1.312 5.311h-1.627l1.312-5.31h-3.406l-1.312 5.31h-1.628l1.312-5.31h-3.759v-1.704h4.2l1.161-4.743h-3.885v-1.703h4.327l1.325-5.324h1.627l-1.325 5.324h3.406l1.325-5.324h1.627l-1.324 5.324h3.759zm-5.79-.025h-3.457l-1.186 4.793h3.457zM261.45 127.366h-4.2l-1.161 4.743h3.885v1.703h-4.327l-1.312 5.311h-1.627l1.312-5.31h-3.406l-1.312 5.31h-1.628l1.312-5.31h-3.76v-1.704h4.2l1.162-4.743h-3.885v-1.703h4.327l1.325-5.324h1.627l-1.325 5.324h3.406l1.325-5.324h1.627l-1.324 5.324h3.759zm-5.79-.025h-3.457l-1.186 4.793h3.457z"/></g><g word-spacing="0" letter-spacing="0" font-size="25.836" font-weight="400" font-family="Gill Sans Nova" fill="#000"><path aria-label="#" d="M39.881 171.866h-4.2l-1.161 4.743h3.885v1.703h-4.327l-1.312 5.311H31.14l1.312-5.31h-3.406l-1.312 5.31h-1.628l1.312-5.31h-3.759v-1.704h4.2l1.161-4.743h-3.885v-1.703h4.327l1.325-5.324h1.627l-1.326 5.324h3.406l1.325-5.324h1.627l-1.324 5.324h3.759zm-5.79-.025h-3.457l-1.186 4.793h3.457zM83.741 171.866h-4.2l-1.161 4.743h3.885v1.703h-4.327l-1.312 5.311H75l1.312-5.31h-3.406l-1.312 5.31h-1.628l1.312-5.31h-3.759v-1.704h4.2l1.161-4.743h-3.885v-1.703h4.327l1.325-5.324h1.627l-1.326 5.324h3.406l1.325-5.324h1.627l-1.324 5.324h3.759zm-5.79-.025h-3.457l-1.186 4.793h3.457zM128.201 171.866h-4.2l-1.161 4.743h3.885v1.703h-4.327l-1.312 5.311h-1.627l1.312-5.31h-3.406l-1.312 5.31h-1.628l1.312-5.31h-3.759v-1.704h4.2l1.161-4.743h-3.885v-1.703h4.327l1.325-5.324h1.627l-1.325 5.324h3.406l1.325-5.324h1.627l-1.324 5.324h3.759zm-5.79-.025h-3.457l-1.186 4.793h3.457zM172.161 171.866h-4.2l-1.16 4.743h3.884v1.703h-4.327l-1.312 5.311h-1.627l1.312-5.31h-3.406l-1.312 5.31h-1.628l1.312-5.31h-3.759v-1.704h4.2l1.161-4.743h-3.885v-1.703h4.327l1.325-5.324h1.627l-1.325 5.324h3.406l1.325-5.324h1.627l-1.324 5.324h3.76zm-5.79-.025h-3.457l-1.186 4.793h3.457zM217.421 171.866h-4.2l-1.161 4.743h3.885v1.703h-4.327l-1.312 5.311h-1.627l1.312-5.31h-3.406l-1.312 5.31h-1.628l1.312-5.31h-3.759v-1.704h4.2l1.161-4.743h-3.885v-1.703h4.327l1.325-5.324h1.627l-1.325 5.324h3.406l1.325-5.324h1.627l-1.324 5.324h3.759zm-5.79-.025h-3.457l-1.186 4.793h3.457zM261.45 171.866h-4.2l-1.161 4.743h3.885v1.703h-4.327l-1.312 5.311h-1.627l1.312-5.31h-3.406l-1.312 5.31h-1.628l1.312-5.31h-3.76v-1.704h4.2l1.162-4.743h-3.885v-1.703h4.327l1.325-5.324h1.627l-1.325 5.324h3.406l1.325-5.324h1.627l-1.324 5.324h3.759zm-5.79-.025h-3.457l-1.186 4.793h3.457z"/></g><g word-spacing="0" letter-spacing="0" font-size="25.836" font-weight="400" font-family="Gill Sans Nova" fill="#000"><path aria-label="#" d="M39.881 216.166h-4.2l-1.161 4.743h3.885v1.703h-4.327l-1.312 5.311H31.14l1.312-5.31h-3.406l-1.312 5.31h-1.628l1.312-5.31h-3.759v-1.704h4.2l1.161-4.743h-3.885v-1.703h4.327l1.325-5.324h1.627l-1.326 5.324h3.406l1.325-5.324h1.627l-1.324 5.324h3.759zm-5.79-.025h-3.457l-1.186 4.793h3.457zM83.741 216.166h-4.2l-1.161 4.743h3.885v1.703h-4.327l-1.312 5.311H75l1.312-5.31h-3.406l-1.312 5.31h-1.628l1.312-5.31h-3.759v-1.704h4.2l1.161-4.743h-3.885v-1.703h4.327l1.325-5.324h1.627l-1.326 5.324h3.406l1.325-5.324h1.627l-1.324 5.324h3.759zm-5.79-.025h-3.457l-1.186 4.793h3.457zM128.201 216.166h-4.2l-1.161 4.743h3.885v1.703h-4.327l-1.312 5.311h-1.627l1.312-5.31h-3.406l-1.312 5.31h-1.628l1.312-5.31h-3.759v-1.704h4.2l1.161-4.743h-3.885v-1.703h4.327l1.325-5.324h1.627l-1.325 5.324h3.406l1.325-5.324h1.627l-1.324 5.324h3.759zm-5.79-.025h-3.457l-1.186 4.793h3.457zM172.161 216.166h-4.2l-1.16 4.743h3.884v1.703h-4.327l-1.312 5.311h-1.627l1.312-5.31h-3.406l-1.312 5.31h-1.628l1.312-5.31h-3.759v-1.704h4.2l1.161-4.743h-3.885v-1.703h4.327l1.325-5.324h1.627l-1.325 5.324h3.406l1.325-5.324h1.627l-1.324 5.324h3.76zm-5.79-.025h-3.457l-1.186 4.793h3.457zM217.421 216.166h-4.2l-1.161 4.743h3.885v1.703h-4.327l-1.312 5.311h-1.627l1.312-5.31h-3.406l-1.312 5.31h-1.628l1.312-5.31h-3.759v-1.704h4.2l1.161-4.743h-3.885v-1.703h4.327l1.325-5.324h1.627l-1.325 5.324h3.406l1.325-5.324h1.627l-1.324 5.324h3.759zm-5.79-.025h-3.457l-1.186 4.793h3.457zM261.45 216.166h-4.2l-1.161 4.743h3.885v1.703h-4.327l-1.312 5.311h-1.627l1.312-5.31h-3.406l-1.312 5.31h-1.628l1.312-5.31h-3.76v-1.704h4.2l1.162-4.743h-3.885v-1.703h4.327l1.325-5.324h1.627l-1.325 5.324h3.406l1.325-5.324h1.627l-1.324 5.324h3.759zm-5.79-.025h-3.457l-1.186 4.793h3.457z"/></g><g word-spacing="0" letter-spacing="0" font-size="25.836" font-weight="400" font-family="Gill Sans Nova" fill="#000"><path aria-label="#" d="M39.881 261.866h-4.2l-1.161 4.743h3.885v1.703h-4.327l-1.312 5.311H31.14l1.312-5.31h-3.406l-1.312 5.31h-1.628l1.312-5.31h-3.759v-1.704h4.2l1.161-4.743h-3.885v-1.703h4.327l1.325-5.324h1.627l-1.326 5.324h3.406l1.325-5.324h1.627l-1.324 5.324h3.759zm-5.79-.025h-3.457l-1.186 4.793h3.457zM83.741 261.866h-4.2l-1.161 4.743h3.885v1.703h-4.327l-1.312 5.311H75l1.312-5.31h-3.406l-1.312 5.31h-1.628l1.312-5.31h-3.759v-1.704h4.2l1.161-4.743h-3.885v-1.703h4.327l1.325-5.324h1.627l-1.326 5.324h3.406l1.325-5.324h1.627l-1.324 5.324h3.759zm-5.79-.025h-3.457l-1.186 4.793h3.457zM128.201 261.866h-4.2l-1.161 4.743h3.885v1.703h-4.327l-1.312 5.311h-1.627l1.312-5.31h-3.406l-1.312 5.31h-1.628l1.312-5.31h-3.759v-1.704h4.2l1.161-4.743h-3.885v-1.703h4.327l1.325-5.324h1.627l-1.325 5.324h3.406l1.325-5.324h1.627l-1.324 5.324h3.759zm-5.79-.025h-3.457l-1.186 4.793h3.457zM172.161 261.866h-4.2l-1.16 4.743h3.884v1.703h-4.327l-1.312 5.311h-1.627l1.312-5.31h-3.406l-1.312 5.31h-1.628l1.312-5.31h-3.759v-1.704h4.2l1.161-4.743h-3.885v-1.703h4.327l1.325-5.324h1.627l-1.325 5.324h3.406l1.325-5.324h1.627l-1.324 5.324h3.76zm-5.79-.025h-3.457l-1.186 4.793h3.457zM217.421 261.866h-4.2l-1.161 4.743h3.885v1.703h-4.327l-1.312 5.311h-1.627l1.312-5.31h-3.406l-1.312 5.31h-1.628l1.312-5.31h-3.759v-1.704h4.2l1.161-4.743h-3.885v-1.703h4.327l1.325-5.324h1.627l-1.325 5.324h3.406l1.325-5.324h1.627l-1.324 5.324h3.759zm-5.79-.025h-3.457l-1.186 4.793h3.457zM261.45 261.866h-4.2l-1.161 4.743h3.885v1.703h-4.327l-1.312 5.311h-1.627l1.312-5.31h-3.406l-1.312 5.31h-1.628l1.312-5.31h-3.76v-1.704h4.2l1.162-4.743h-3.885v-1.703h4.327l1.325-5.324h1.627l-1.325 5.324h3.406l1.325-5.324h1.627l-1.324 5.324h3.759zm-5.79-.025h-3.457l-1.186 4.793h3.457z"/></g><g word-spacing="0" letter-spacing="0" font-size="25.836" font-weight="400" font-family="Gill Sans Nova" fill="#000"><path aria-label="#" d="M39.881 306.166h-4.2l-1.161 4.743h3.885v1.703h-4.327l-1.312 5.311H31.14l1.312-5.31h-3.406l-1.312 5.31h-1.628l1.312-5.31h-3.759v-1.704h4.2l1.161-4.743h-3.885v-1.703h4.327l1.325-5.324h1.627l-1.326 5.324h3.406l1.325-5.324h1.627l-1.324 5.324h3.759zm-5.79-.025h-3.457l-1.186 4.793h3.457zM83.741 306.166h-4.2l-1.161 4.743h3.885v1.703h-4.327l-1.312 5.311H75l1.312-5.31h-3.406l-1.312 5.31h-1.628l1.312-5.31h-3.759v-1.704h4.2l1.161-4.743h-3.885v-1.703h4.327l1.325-5.324h1.627l-1.326 5.324h3.406l1.325-5.324h1.627l-1.324 5.324h3.759zm-5.79-.025h-3.457l-1.186 4.793h3.457zM128.201 306.166h-4.2l-1.161 4.743h3.885v1.703h-4.327l-1.312 5.311h-1.627l1.312-5.31h-3.406l-1.312 5.31h-1.628l1.312-5.31h-3.759v-1.704h4.2l1.161-4.743h-3.885v-1.703h4.327l1.325-5.324h1.627l-1.325 5.324h3.406l1.325-5.324h1.627l-1.324 5.324h3.759zm-5.79-.025h-3.457l-1.186 4.793h3.457zM172.161 306.166h-4.2l-1.16 4.743h3.884v1.703h-4.327l-1.312 5.311h-1.627l1.312-5.31h-3.406l-1.312 5.31h-1.628l1.312-5.31h-3.759v-1.704h4.2l1.161-4.743h-3.885v-1.703h4.327l1.325-5.324h1.627l-1.325 5.324h3.406l1.325-5.324h1.627l-1.324 5.324h3.76zm-5.79-.025h-3.457l-1.186 4.793h3.457zM217.421 306.166h-4.2l-1.161 4.743h3.885v1.703h-4.327l-1.312 5.311h-1.627l1.312-5.31h-3.406l-1.312 5.31h-1.628l1.312-5.31h-3.759v-1.704h4.2l1.161-4.743h-3.885v-1.703h4.327l1.325-5.324h1.627l-1.325 5.324h3.406l1.325-5.324h1.627l-1.324 5.324h3.759zm-5.79-.025h-3.457l-1.186 4.793h3.457zM261.45 306.166h-4.2l-1.161 4.743h3.885v1.703h-4.327l-1.312 5.311h-1.627l1.312-5.31h-3.406l-1.312 5.31h-1.628l1.312-5.31h-3.76v-1.704h4.2l1.162-4.743h-3.885v-1.703h4.327l1.325-5.324h1.627l-1.325 5.324h3.406l1.325-5.324h1.627l-1.324 5.324h3.759zm-5.79-.025h-3.457l-1.186 4.793h3.457z"/></g></svg>