<svg xmlns="http://www.w3.org/2000/svg" viewBox="0 0 348 348" fill="none"><path d="M5.079 5.776h336.913v337.67H5.08z" stroke-width="2" stroke="#000"/><path fill="#000" stroke="#000" stroke-width="3.557" d="M138.923 20.416h68.036v47.269h-68.036z"/><path stroke="#000" stroke-width="2" d="M19.072 20.765h98.803v46.572H19.072zM228.515 20.135h98.803v46.572h-98.803z"/><path d="M26.872 67.337l19.945-45.312 20.766-.629-20.137 45.939zM68.872 67.337l19.945-45.312 20.766-.629-20.137 45.939zM19.072 20.765l7.358.631-7.551 19.508zM117.743 67.222l-7.358-.63 7.551-19.509zM236.448 66.821l19.944-45.31 20.767-.63-20.138 45.938zM278.448 66.821l19.944-45.31 20.767-.63-20.138 45.938zM228.647 20.25l7.359.63-7.552 19.509zM327.318 66.707l-7.358-.631 7.552-19.508z" fill="#000" stroke="#000"/><path fill="#fff" stroke="#000" stroke-width="5.669" d="M227.063 89.136h98.799v235.986h-98.799z"/><circle cx="115.678" cy="207.038" r="17.078" fill="#fff" stroke="#000" stroke-width="5.495"/><circle r="17.078" cy="207.038" cx="158.324" fill="#fff" stroke="#000" stroke-width="5.495"/><circle cx="200.971" cy="207.038" r="17.078" fill="#fff" stroke="#000" stroke-width="5.495"/><circle r="17.078" cy="207.038" cx="30.385" fill="#fff" stroke="#000" stroke-width="5.495"/><circle cx="73.032" cy="207.038" r="17.078" fill="#fff" stroke="#000" stroke-width="5.495"/><circle r="17.078" cy="163.038" cx="115.678" fill="#fff" stroke="#000" stroke-width="5.495"/><circle cx="158.324" cy="163.038" r="17.078" fill="#fff" stroke="#000" stroke-width="5.495"/><circle r="17.078" cy="163.038" cx="200.971" fill="#fff" stroke="#000" stroke-width="5.495"/><circle cx="30.385" cy="163.038" r="17.078" fill="#fff" stroke="#000" stroke-width="5.495"/><circle r="17.078" cy="163.038" cx="73.032" fill="#fff" stroke="#000" stroke-width="5.495"/><circle cx="115.678" cy="119.038" r="17.078" fill="#fff" stroke="#000" stroke-width="5.495"/><circle r="17.078" cy="119.038" cx="158.324" fill="#fff" stroke="#000" stroke-width="5.495"/><circle cx="200.971" cy="119.038" r="17.078" fill="#fff" stroke="#000" stroke-width="5.495"/><circle r="17.078" cy="119.038" cx="30.385" fill="#fff" stroke="#000" stroke-width="5.495"/><circle cx="73.032" cy="119.038" r="17.078" fill="#fff" stroke="#000" stroke-width="5.495"/><circle r="17.078" cy="295.038" cx="115.678" fill="#fff" stroke="#000" stroke-width="5.495"/><circle cx="158.324" cy="295.038" r="17.078" fill="#fff" stroke="#000" stroke-width="5.495"/><circle r="17.078" cy="295.038" cx="200.971" fill="#fff" stroke="#000" stroke-width="5.495"/><circle cx="30.385" cy="295.038" r="17.078" fill="#fff" stroke="#000" stroke-width="5.495"/><circle r="17.078" cy="295.038" cx="73.032" fill="#fff" stroke="#000" stroke-width="5.495"/><circle cx="115.678" cy="251.038" r="17.078" fill="#fff" stroke="#000" stroke-width="5.495"/><circle r="17.078" cy="251.038" cx="158.324" fill="#fff" stroke="#000" stroke-width="5.495"/><circle cx="200.971" cy="251.038" r="17.078" fill="#fff" stroke="#000" stroke-width="5.495"/><circle r="17.078" cy="251.038" cx="30.385" fill="#fff" stroke="#000" stroke-width="5.495"/><circle cx="73.032" cy="251.038" r="17.078" fill="#fff" stroke="#000" stroke-width="5.495"/><path d="M268.355 177.299c.83.032 1.66.043 2.49.053 1.967.026 3.93-.123 5.89-.244 2.432-.132 4.864-.267 7.293-.44a97.576 97.576 0 015.39-.25c1.04-.018 2.08-.016 3.119-.014.49 0 .98.003 1.471.003h2.916c.391.538-7.22 6.067-7.61 5.53H287.36l-.965-.002-1.47-.002c-1.035.001-2.07.006-3.104.034-1.791.053-3.58.15-5.367.283-2.431.16-4.864.297-7.297.434-1.975.12-3.953.236-5.932.185-.863-.02-1.744-.003-2.59-.192-.38-.546 7.338-5.924 7.719-5.378zM257.975 190.757c1.07.002 2.14.008 3.211-.028 2.809-.338 5.634-.5 8.456-.691 4.532-.24 9.07-.32 13.608-.375 2.816-.039 5.612.28 8.385.739 1.534.238 3.065.5 4.597.75 1.039.178 2.064.423 3.099.621.533.097 1.075.112 1.615.112.347-.004.693-.009 1.04-.01.317-.002.635-.002.952-.002h.478c.39.539-7.22 6.068-7.611 5.53h-.477l-.951.005a17.43 17.43 0 01-1.06-.019 11.27 11.27 0 01-1.705-.237c-1.023-.213-2.046-.43-3.078-.593-1.533-.246-3.061-.516-4.596-.748-2.745-.416-5.512-.671-8.292-.608-4.528.062-9.057.148-13.577.416-1.687.116-3.373.225-5.057.371-.086.007-2.258.212-2.452.227-.324.025-.648.04-.972.06-1.075.013-2.15.01-3.224.01-.391-.538 7.22-6.068 7.61-5.53z" fill="#000"/><path d="M273.534 191.615a60.731 60.731 0 01-.106 4.421c-.082 1.728-.338 3.455-.882 5.101-.122.367-.268.725-.401 1.087-.788 1.823-1.725 3.621-2.988 5.167-.257.314-.54.606-.81.91-.834.833-1.738 1.614-2.763 2.208a571.68 571.68 0 01-9.014 5.143c-.073.04-1.707.697-1.83.747-1.191.456-2.434.71-3.704.79-.397-.534 7.156-6.143 7.553-5.608 1.22-.18 2.404-.52 3.538-1.008 3.29-1.416 6.224-3.448-5.317 3.329-.324.19.664-.351.983-.55.854-.535 1.098-.782 1.873-1.426.63-.63 1.062-1.018 1.603-1.728.233-.306.435-.635.644-.957.633-.981 1.223-1.994 1.696-3.063.143-.342.298-.679.429-1.026.59-1.562.894-3.227.984-4.891.083-1.458.168-2.914.13-4.375-.302-.592 8.08-4.863 8.382-4.27zM294.263 191.322c.003 1.477.007 2.952-.032 4.428-.039.498-.058.998-.117 1.494a36.844 36.844 0 01-.702 3.898 45.055 45.055 0 01-1.185 4.265c-.237.707-.514 1.4-.77 2.1-1.042 2.591-2.311 5.091-3.87 7.412-.89 1.327-1.254 1.73-2.245 2.97-1.852 2.12-3.94 4.052-6.288 5.612-.408.271-.833.516-1.25.774-3.075 1.757-6.138 3.537-9.227 5.27-.354.199-.728.356-1.097.524a14.975 14.975 0 01-3.563 1.135c-.882.12-1.777.22-2.668.158-.168-.012-.912-.104-1.094-.126-.163-.03-.328-.055-.49-.091-.28-.064-.555-.15-.834-.215-.32-.074-.636-.128-.95-.222a3.915 3.915 0 00-.635-.138c-.38-.546 7.342-5.919 7.722-5.373.22.058.438.118.659.17.729.148 1.447.362 2.192.414 1.203.09 2.406.007 3.58-.28.693-.19.862-.22 1.554-.48 3.194-1.204 9.15-5.034-3.927 2.635 1.164-.658 1.45-.783 2.563-1.565 1.861-1.309 3.547-2.855 5.098-4.515.937-1.118 1.442-1.675 2.288-2.873 1.589-2.252 2.881-4.693 3.95-7.23.265-.683.55-1.36.794-2.05.5-1.415.869-2.73 1.223-4.187.279-1.146.589-2.613.753-3.795.066-.48.094-.965.14-1.447.056-1.467.05-2.933.045-4.4-.302-.593 8.08-4.864 8.383-4.272z" fill="#000"/></svg>