<svg xmlns="http://www.w3.org/2000/svg" fill="none" viewBox="0 0 348 348"><path stroke="#000" stroke-width="2" d="M5 5.8h337v337.6H5z"/><path stroke="#000" stroke-width="2" d="M282.7 40.6c0-8.4 7-15.2 15.6-15.2 4.1 0 8 1.6 11 4.4a15 15 0 0 1 4.6 10.8c0 8.3-7 15.1-15.6 15.1s-15.6-6.8-15.6-15.1z"/><path fill="#000" d="M18.5 26h217.4v64.3H18.5Z"/><path fill="#000" d="M20.1 112.6h74.4V242H20.2Zm105.6-.6H200v129.5h-74.3zm105.7-.3h74.4V241h-74.4z"/><path fill="#000" d="M124.6 272a16.5 17.2 0 0 1-16.6 17.2A16.5 17.2 0 0 1 91.5 272a16.5 17.2 0 0 1 16.5-17.2 16.5 17.2 0 0 1 16.6 17.2zm48.7-.2a16.5 17.2 0 0 1-16.5 17.2 16.5 17.2 0 0 1-16.5-17.2 16.5 17.2 0 0 1 16.5-17.2 16.5 17.2 0 0 1 16.5 17.2zm48 1a16.5 17.2 0 0 1-16.5 17.1 16.5 17.2 0 0 1-16.5-17.2 16.5 17.2 0 0 1 16.5-17.2 16.5 17.2 0 0 1 16.5 17.2zm46.8-.5a16.5 17.2 0 0 1-16.6 17.2 16.5 17.2 0 0 1-16.5-17.2 16.5 17.2 0 0 1 16.5-17.2 16.5 17.2 0 0 1 16.6 17.2zm-143 45.1a16.5 17.2 0 0 1-16.5 17.2A16.5 17.2 0 0 1 92 317.4a16.5 17.2 0 0 1 16.5-17.2 16.5 17.2 0 0 1 16.5 17.2Zm48.8-.2a16.5 17.2 0 0 1-16.6 17.2 16.5 17.2 0 0 1-16.5-17.2 16.5 17.2 0 0 1 16.5-17.2 16.5 17.2 0 0 1 16.6 17.2zm48 1a16.5 17.2 0 0 1-16.6 17.1 16.5 17.2 0 0 1-16.5-17.2 16.5 17.2 0 0 1 16.5-17.2 16.5 17.2 0 0 1 16.6 17.2zm46.7-.5a16.5 17.2 0 0 1-16.5 17.2 16.5 17.2 0 0 1-16.5-17.2 16.5 17.2 0 0 1 16.5-17.3 16.5 17.2 0 0 1 16.5 17.3z"/><path fill="#fff" d="M35.2 184.2h-6v-1.6h2v-12h-2V169h6v1.5h-2v12.1h2zm15.2-1.1-1 .4-1.2.5-1.4.3-1.6.1q-1.6 0-3-.4-1.3-.5-2.3-1.5-1-1-1.6-2.4-.5-1.5-.5-3.5 0-1.9.5-3.4.6-1.5 1.6-2.5t2.3-1.5q1.4-.5 3-.5 1.3 0 2.5.3t2.7 1v2.4h-.2q-1.2-1-2.5-1.5-1.2-.5-2.6-.5-1.1 0-2 .4-1 .4-1.7 1.2-.7.7-1.1 1.9-.4 1.2-.4 2.7 0 1.6.4 2.7.5 1.2 1.1 2 .8.7 1.7 1 1 .4 2 .4 1.5 0 2.8-.5 1.2-.5 2.3-1.5h.2zm14.1-12.4q1 1 1.5 2.5t.5 3.4q0 1.8-.5 3.3-.5 1.5-1.5 2.5-.9 1-2.2 1.5-1.2.6-2.9.6-1.6 0-2.9-.6-1.3-.5-2.2-1.5-1-1-1.4-2.5-.5-1.4-.5-3.3t.5-3.4q.4-1.4 1.4-2.5.9-1 2.2-1.5 1.3-.5 3-.5 1.5 0 2.8.5 1.3.5 2.2 1.5zm-.1 5.9q0-3-1.4-4.6-1.3-1.6-3.6-1.6t-3.6 1.6q-1.3 1.6-1.3 4.6 0 3 1.3 4.5 1.4 1.6 3.6 1.6 2.3 0 3.6-1.6 1.4-1.5 1.4-4.5zm16.8 7.6h-2.5l-7.2-13.6v13.6h-1.8V169h3l6.7 12.4V169h1.8z" aria-label="ICON"/><path fill="#fff" d="M140.6 183.9h-6v-1.6h2v-12h-2v-1.6h6v1.6h-2v12h2zm15.1-1.1-1 .5-1.2.4-1.3.3-1.6.2q-1.7 0-3-.5-1.4-.5-2.4-1.4-1-1-1.5-2.5-.6-1.5-.6-3.5 0-1.9.6-3.3.5-1.5 1.5-2.5t2.3-1.5q1.4-.6 3-.6 1.3 0 2.5.3t2.7 1v2.5h-.1q-1.3-1-2.5-1.6-1.3-.4-2.7-.4-1.1 0-2 .3-1 .4-1.7 1.2-.7.8-1 2-.5 1.1-.5 2.6 0 1.6.5 2.8.4 1.1 1 1.8.8.8 1.7 1.2 1 .3 2 .3 1.5 0 2.8-.5 1.3-.5 2.4-1.5h.1zm14.2-12.3q1 1 1.4 2.5.5 1.4.5 3.3t-.5 3.4q-.5 1.5-1.4 2.4-1 1-2.2 1.6-1.3.5-3 .5-1.6 0-2.9-.5-1.3-.5-2.2-1.6-1-1-1.4-2.4-.5-1.5-.5-3.4 0-1.8.5-3.3.5-1.5 1.4-2.5 1-1 2.2-1.6 1.4-.5 3-.5t2.9.5q1.3.6 2.2 1.6zm-.2 5.8q0-3-1.3-4.5-1.4-1.7-3.6-1.7-2.4 0-3.7 1.7-1.3 1.6-1.3 4.5 0 3 1.3 4.6 1.4 1.6 3.7 1.6t3.6-1.6q1.3-1.6 1.3-4.6zm16.9 7.6H184l-7.2-13.6V184h-2v-15.2h3.2l6.6 12.4v-12.4h1.9z" aria-label="ICON"/><path fill="#fff" d="M248.8 183.9h-6v-1.6h2v-12h-2v-1.6h6v1.6h-2v12h2zm15.1-1.1-1 .5-1.2.4-1.3.3-1.6.2q-1.7 0-3-.5-1.4-.5-2.4-1.4-1-1-1.5-2.5-.6-1.5-.6-3.5 0-1.9.6-3.3.5-1.5 1.5-2.5t2.3-1.5q1.4-.6 3-.6 1.3 0 2.5.3t2.7 1v2.5h-.1q-1.3-1-2.5-1.6-1.3-.4-2.7-.4-1.1 0-2 .3-1 .4-1.7 1.2-.7.8-1 2-.5 1.1-.5 2.6 0 1.6.5 2.8.4 1.1 1 1.8.8.8 1.7 1.2 1 .3 2 .3 1.5 0 2.8-.5 1.3-.5 2.4-1.5h.1zm14.2-12.3q1 1 1.4 2.5.5 1.4.5 3.3t-.5 3.4q-.5 1.5-1.4 2.4-1 1-2.2 1.6-1.3.5-3 .5-1.5 0-2.9-.5-1.3-.5-2.2-1.6-.9-1-1.4-2.4-.5-1.5-.5-3.4 0-1.8.5-3.3.5-1.5 1.4-2.5 1-1 2.2-1.6 1.4-.5 3-.5t2.9.5q1.3.6 2.2 1.6zm-.2 5.8q0-3-1.3-4.5-1.3-1.7-3.6-1.7-2.4 0-3.7 1.7-1.3 1.6-1.3 4.5 0 3 1.4 4.6 1.3 1.6 3.6 1.6 2.2 0 3.6-1.6 1.3-1.6 1.3-4.6zm16.9 7.6h-2.5l-7.2-13.6V184h-1.9v-15.2h3.1l6.6 12.4v-12.4h1.9z" aria-label="ICON"/><path fill="red" d="M55.1 72h-7.4V44.2h7.4v2h-5V70h5zm21.5-5.6h-3.5l-10-19v19h-2.7V45h4.4L74 62.5V45.2h2.6zm21.7-8.5q0 2.3-.6 4-.5 1.7-1.6 2.8-1.1 1.1-2.6 1.6-1.4.5-3.4.5t-3.5-.5q-1.5-.5-2.5-1.6-1.1-1.1-1.6-2.8-.5-1.6-.5-4V45h2.8v13q0 1.7.2 2.7.3 1 .8 1.8.6 1 1.7 1.4 1 .5 2.6.5 1.5 0 2.6-.4 1-.5 1.7-1.5.6-.8.8-1.8.2-1 .2-2.6V45h2.9zm24.3 8.5h-2.9V48l-5.9 12.4h-1.6l-6-12.4v18.3h-2.5V45.2h3.8l5.7 11.8 5.4-11.8h4zm21.7-6.5q0 1.5-.6 2.8-.6 1.2-1.6 2-1.2.9-2.7 1.3-1.4.4-3.6.4h-7.5V45h6.3q2.3 0 3.4.2 1.2.2 2.3.7 1.1.6 1.7 1.6.5 1 .5 2.3 0 1.5-.8 2.6-.8 1-2 1.7v.1q2.1.4 3.3 1.9 1.3 1.4 1.3 3.7zm-4.8-9.6q0-.8-.2-1.3-.3-.5-.8-.9-.7-.4-1.7-.4l-2.3-.1H131v6h5.9l1.4-.6q.7-.4 1-1.1.2-.7.2-1.6zm1.9 9.7q0-1.3-.4-2-.4-.8-1.4-1.4-.7-.3-1.7-.4l-2.4-.1h-4.4V64h3.7q1.9 0 3-.2 1.3-.2 2-.7.8-.6 1.2-1.3.4-.7.4-1.8zm20.9 6.4h-14V45h14v2.6H151v5.8h11.2V56H151v7.9h11.2zm22 0h-3.6l-7.1-8.5h-4v8.5h-2.8V45.2h6q1.8 0 3.1.2 1.3.3 2.3.9 1.2.7 1.8 1.8.7 1.1.7 2.8 0 2.3-1.2 3.9-1.1 1.5-3.1 2.3zM177.7 51q0-.9-.3-1.6-.3-.7-1-1.2-.7-.4-1.5-.6l-2-.1h-3.3v8h2.8q1.4 0 2.4-.2 1-.3 1.7-1 .6-.5 1-1.3.2-.8.2-2zm16.4 21h-7.4v-2h4.9V46.1h-5v-2h7.5z" aria-label="[NUMBER]"/></svg>