<svg xmlns="http://www.w3.org/2000/svg" fill="none" viewBox="0 0 348 348"><path fill="#fd6060" stroke="#000" d="M3.83 5.99h337.69v336.86H3.83z"/><path stroke="#000" stroke-width="2" d="M5.08 5.78h336.91v337.67H5.08z"/><path fill="#fff" stroke="#000" stroke-width="2" d="M282.73 40.55c0-8.37 6.97-15.16 15.56-15.16 4.13 0 8.09 1.6 11 4.44a14.97 14.97 0 0 1 4.56 10.72c0 8.38-6.96 15.17-15.56 15.17-8.59 0-15.56-6.8-15.56-15.17z"/><path fill="#fff" stroke="#000" d="M20.63 37.93h99.81v31.94H20.63z"/><path fill="#000" stroke="#000" d="M141.06 37.93h99.81v31.94h-99.81zM23.95 188.31h296.1v78.52H23.95z"/><path fill="#fff" stroke="#000" d="M26.62 287.45h37.26v35.27H26.62zm54.56 0h37.26v35.27H81.18zm51.23.33h37.26v35.27h-37.26zm51.9-.33h58.55v35.27h-58.55zm69.87-.33h58.55v35.27h-58.55z"/><path fill="#333" d="M41.8 305.42v-2.8h2.81v2.8Zm54.24-.04v-2.47h7.56v2.47Zm47.42 12.67v-1.77h16.31v1.77Zm50.64-3.49v-20.04h2.72l10.53 15.73v-15.73h2.54v20.04h-2.72l-10.52-15.75v15.75Zm15.54-9.76q0-4.99 2.68-7.82 2.68-2.82 6.91-2.82 2.78 0 5.01 1.33 2.23 1.32 3.4 3.7 1.16 2.37 1.16 5.38 0 3.04-1.23 5.45t-3.48 3.64q-2.26 1.24-4.87 1.24-2.83 0-5.06-1.37-2.23-1.36-3.38-3.73-1.14-2.36-1.14-5Zm2.73.04q0 3.62 1.95 5.71 1.95 2.08 4.89 2.08 2.99 0 4.93-2.1 1.93-2.11 1.93-5.98 0-2.45-.83-4.27-.82-1.83-2.42-2.83-1.59-1.01-3.57-1.01-2.82 0-4.85 1.94-2.03 1.93-2.03 6.46Zm50.65.8q0-4.99 2.68-7.82 2.68-2.82 6.92-2.82 2.78 0 5.01 1.33 2.22 1.32 3.39 3.7 1.17 2.37 1.17 5.38 0 3.04-1.23 5.45t-3.49 3.64q-2.25 1.24-4.86 1.24-2.83 0-5.06-1.37-2.23-1.36-3.38-3.73-1.15-2.36-1.15-5Zm2.74.04q0 3.62 1.95 5.71 1.94 2.08 4.88 2.08 3 0 4.93-2.1 1.94-2.11 1.94-5.98 0-2.45-.83-4.27-.83-1.83-2.42-2.83-1.59-1.01-3.58-1.01-2.81 0-4.84 1.94-2.03 1.93-2.03 6.46Zm14.27 9.72v-20.04h2.66v9.94l9.95-9.94h3.59l-8.4 8.12 8.77 11.92h-3.5l-7.13-10.14-3.28 3.19v6.95ZM37.09 63.89V43.85h7.56q2 0 3.05.19 1.48.24 2.47.93 1 .7 1.61 1.94.61 1.24.61 2.73 0 2.56-1.63 4.33-1.62 1.77-5.88 1.77h-5.14v8.15Zm2.65-10.51h5.18q2.57 0 3.65-.96t1.08-2.69q0-1.26-.63-2.16-.64-.89-1.68-1.18-.67-.18-2.47-.18h-5.13Zm13.55 10.51V43.85h2.66v17.67h9.87v2.37Zm14.22 0 7.7-20.04h2.86l8.2 20.04h-3.02l-2.34-6.07h-8.38l-2.2 6.07Zm5.79-8.23h6.79L78 50.11q-.96-2.53-1.42-4.16-.38 1.93-1.08 3.83Zm18.37 8.23V55.4l-7.72-11.55h3.23l3.95 6.04q1.09 1.7 2.03 3.39.91-1.57 2.19-3.54l3.88-5.89h3.09L94.33 55.4v8.49Z"/></svg>