<svg xmlns="http://www.w3.org/2000/svg" viewBox="0 0 348 348"><style>.st0,.st2{fill:none;stroke:#000;stroke-width:2}.st2{stroke-miterlimit:10}</style><path d="M342.4 343.1V6.2H4.7v336.9h337.7z" class="st0"/><ellipse cx="307.6" cy="42.4" class="st0" rx="15.5" ry="15.9"/><path stroke="#000" stroke-miterlimit="10" d="M23 195.7h298V89.8H23v105.9z"/><rect width="45.1" height="45.1" x="22.7" y="215.6" class="st0"/><rect width="45.1" height="45.1" x="215" y="215.6" class="st0"/><rect width="45.1" height="45.1" x="150.9" y="215.6" class="st0"/><rect width="45.1" height="45.1" x="86.8" y="215.6" class="st0"/><rect width="45.1" height="45.1" x="279" y="215.6" class="st0"/><rect width="45.1" height="45.1" x="23" y="280.6" class="st0"/><rect width="45.1" height="45.1" x="215.2" y="280.6" class="st0"/><rect width="45.1" height="45.1" x="151.1" y="280.6" class="st0"/><rect width="45.1" height="45.1" x="87" y="280.6" class="st0"/><rect width="45.1" height="45.1" x="279.3" y="280.6" class="st0"/><polygon points="22.7,26.5 71.7,26.5 95.9,50.7 71.7,75 22.7,75" class="st2"/><polygon points="131.3,26.5 155.3,50.5 131,74.7 82.8,74.7 106.7,50.8 82.6,26.5" class="st2"/><polygon points="250,26.6 274,50.6 249.8,74.9 201.5,74.9 225.5,50.9 201.3,26.6" class="st2"/><polygon points="190.7,26.6 214.7,50.6 190.4,74.9 142.1,74.9 166.1,50.9 142,26.6" class="st2"/></svg>