<svg xmlns="http://www.w3.org/2000/svg" fill="none" viewBox="0 0 348 456"><path stroke="#000" stroke-width="2" d="M5.08 5.78h336.91v337.67H5.08Z"/><path stroke="#000" stroke-width="2" d="M282.73 40.55c0-8.37 6.97-15.16 15.56-15.16 4.13 0 8.09 1.6 11 4.44a14.97 14.97 0 0 1 4.56 10.72c0 8.38-6.96 15.17-15.56 15.17-8.59 0-15.56-6.8-15.56-15.17z"/><path stroke="#000" stroke-width="1.75" d="M99.2 25.88h58.65V84.6H99.2zm0 119.75h58.65v58.72H99.2zM39.4 85.75h58.65v58.72H39.4zM159 25.88h58.65V84.6H159z"/><path stroke="#000" stroke-width="1.6" d="m286.86 93.44 37.85 37.85-37.85 37.85L249 131.29zm-.01 77.96 37.85 37.85-37.85 37.85L249 209.25zm.01 77.95 37.85 37.86-37.85 37.85L249 287.2z"/><path stroke="#000" stroke-width="1.72" d="M98.07 27.07v57.55H40.6ZM40.6 145.61h57.47v57.55z"/><path stroke="#000" stroke-width="1.75" d="M157.85 324.1H99.2v-58.72h58.65zm59.8-59.87H159v-58.72h58.65zM98.05 324.1H39.4v-58.72h58.65z"/><path stroke="#000" stroke-width="1.72" d="M158.99 322.9v-57.54h57.47zm57.47-118.53h-57.47v-57.54z"/><text xml:space="preserve" x="187.72" y="67.94" fill="#000" stroke-width="2" font-family="Century Gothic" font-size="37.33" font-weight="700" style="-inkscape-font-specification:&quot;Century Gothic Bold&quot;;text-align:center" text-anchor="middle"><tspan x="187.72" y="67.94">0</tspan></text><text xml:space="preserve" x="128.52" y="67.87" fill="#000" stroke-width="2" font-family="Century Gothic" font-size="37.33" font-weight="700" style="-inkscape-font-specification:&quot;Century Gothic Bold&quot;;text-align:center" text-anchor="middle"><tspan x="128.52" y="67.87">1</tspan></text><text xml:space="preserve" x="68.35" y="128.45" fill="#000" stroke-width="2" font-family="Century Gothic" font-size="37.33" font-weight="700" style="-inkscape-font-specification:&quot;Century Gothic Bold&quot;;text-align:center" text-anchor="middle"><tspan x="68.35" y="128.45">3</tspan></text><text xml:space="preserve" x="83.76" y="178.02" fill="#000" stroke-width="2" font-family="Century Gothic" font-size="37.33" font-weight="700" style="-inkscape-font-specification:&quot;Century Gothic Bold&quot;;text-align:center" text-anchor="middle"><tspan x="83.76" y="178.02">4</tspan></text><text xml:space="preserve" x="128.04" y="188.31" fill="#000" stroke-width="2" font-family="Century Gothic" font-size="37.33" font-weight="700" style="-inkscape-font-specification:&quot;Century Gothic Bold&quot;;text-align:center" text-anchor="middle"><tspan x="128.04" y="188.31">5</tspan></text><text xml:space="preserve" x="172.31" y="199.17" fill="#000" stroke-width="2" font-family="Century Gothic" font-size="37.33" font-weight="700" style="-inkscape-font-specification:&quot;Century Gothic Bold&quot;;text-align:center" text-anchor="middle"><tspan x="172.31" y="199.17">6</tspan></text><text xml:space="preserve" x="187.88" y="247.18" fill="#000" stroke-width="2" font-family="Century Gothic" font-size="37.33" font-weight="700" style="-inkscape-font-specification:&quot;Century Gothic Bold&quot;;text-align:center" text-anchor="middle"><tspan x="187.88" y="247.18">7</tspan></text><text xml:space="preserve" x="172.57" y="297.1" fill="#000" stroke-width="2" font-family="Century Gothic" font-size="37.33" font-weight="700" style="-inkscape-font-specification:&quot;Century Gothic Bold&quot;;text-align:center" text-anchor="middle"><tspan x="172.57" y="297.1">8</tspan></text><text xml:space="preserve" x="127.62" y="307.94" fill="#000" stroke-width="2" font-family="Century Gothic" font-size="37.33" font-weight="700" style="-inkscape-font-specification:&quot;Century Gothic Bold&quot;;text-align:center" text-anchor="middle"><tspan x="127.62" y="307.94">9</tspan></text><text xml:space="preserve" x="66.99" y="308.17" fill="#000" stroke-width="2" font-family="Century Gothic" font-size="37.33" font-weight="700" style="-inkscape-font-specification:&quot;Century Gothic Bold&quot;;text-align:center" text-anchor="middle"><tspan x="66.99" y="308.17">10</tspan></text><text xml:space="preserve" x="84.22" y="79.34" fill="#000" stroke-width="2" font-family="Century Gothic" font-size="37.33" font-weight="700" style="-inkscape-font-specification:&quot;Century Gothic Bold&quot;;text-align:center" text-anchor="middle"><tspan x="84.22" y="79.34">2</tspan></text><text xml:space="preserve" x="4.09" y="366.22" fill="#000" stroke-width="1.35" font-family="Century Gothic" font-size="21.49" font-weight="700" style="-inkscape-font-specification:&quot;Century Gothic Bold&quot;;text-align:start"><tspan x="4.09" y="366.22">Note: The numbers represent the</tspan><tspan x="4.09" y="393.08">&quot;positions&quot; of the buttons. These</tspan><tspan x="4.09" y="419.94">positions will be mentioned</tspan><tspan x="4.09" y="446.8">throughout this manual.</tspan></text></svg>