<svg xmlns="http://www.w3.org/2000/svg" fill="none" stroke-linecap="square" stroke-miterlimit="10" viewBox="0 0 348 348"><clipPath id="a"><path d="M0 0h348v348H0V0z"/></clipPath><g clip-path="url(#a)"><path d="M0 0h348v348H0z"/><path fill="#fff" d="M-6 0h348v347.97H-6z"/><path d="M5.08 5.78h336.91v337.67H5.08z"/><path stroke="#000" stroke-linecap="butt" stroke-linejoin="round" stroke-width="2" d="M5.08 5.78h336.91v337.67H5.08z"/><path fill="#fff" d="M282.73 40.55c0-8.37 6.97-15.16 15.56-15.16 4.13 0 8.09 1.6 11 4.44a14.97 14.97 0 0 1 4.56 10.72c0 8.38-6.96 15.17-15.56 15.17-8.59 0-15.56-6.8-15.56-15.17z"/><path stroke="#000" stroke-linecap="butt" stroke-linejoin="round" stroke-width="2" d="M282.73 40.55c0-8.37 6.97-15.16 15.56-15.16 4.13 0 8.09 1.6 11 4.44a14.97 14.97 0 0 1 4.56 10.72c0 8.38-6.96 15.17-15.56 15.17-8.59 0-15.56-6.8-15.56-15.17z"/></g><path stroke="#000" stroke-width="3" d="M20 20h240v150H20z"/><path stroke="#000" stroke-width="3" d="M30 30h220v130H30zm240 40h60v100h-60z"/><path stroke="#000" stroke-width="3" d="M280 80h40v20h-40zm0 30h40v20h-40zm0 30h40v20h-40zM20 180h150v43H20zm160 0h150v43H180zM20 233h150v43H20zm160 0h150v43H180zM20 286h310v43H20z"/></svg>