<svg xmlns="http://www.w3.org/2000/svg" viewBox="0 0 348 348" fill="none"><path d="M5.079 5.776h336.913v337.67H5.08z" stroke-width="2" stroke="#000"/><path d="M282.734 40.554c0-8.376 6.966-15.165 15.56-15.165 4.126 0 8.084 1.597 11.001 4.441 2.918 2.844 4.558 6.702 4.558 10.724 0 8.376-6.966 15.165-15.56 15.165-8.593 0-15.559-6.79-15.559-15.165z" stroke-width="2" stroke="#000"/><path d="M26.298 73.405h295.404v74.552H26.298z" fill="#fff" stroke="#000" stroke-width="3.15"/><path d="M46.248 87.337h-1.08v46.8h1.08z" stroke="#000" fill="#000" stroke-width=".65"/><path d="M90.23 104.621a2.619 2.619 0 11-5.237 0 2.619 2.619 0 015.238 0zm0-11.375a2.619 2.619 0 11-5.237 0 2.619 2.619 0 015.238 0zm-32.501 31.042c3.746-2.461 8.125-5.364 10.981-8.226 3.548-3.554 5.811-7.377 7.029-11.82.814-2.968 1.013-5.763.608-8.538-.516-3.542-2.621-6.09-5.729-6.555-2.493-.375-5.444.362-7.275 1.792-1.326 1.036-2.203 3.057-1.488 5.036 2.885-3.208 7.498-1.16 7.307 2.617-.12 2.355-2.239 3.965-4.727 3.965-3.58 0-5.77-2.46-5.662-5.272.25-6.447 6.505-9.603 11.976-9.603 7.587 0 11.887 4.625 12.322 11.229.368 5.59-2.5 10.568-6.501 14.65-4.495 4.585-13.13 9.065-18.53 11.744-.507.252-.774-.715-.311-1.02z" fill="#000"/><path d="M96.116 87.28h-1.08v46.8h1.08z" stroke="#000" fill="#000" fill-opacity=".984" stroke-width=".65"/><path d="M126.119 82.228c-1.093.014-2.276.259-3.481.768-3.673 1.55-6.208 4.987-5.443 7.666v37.772l1.085.284V92.357c1.83 1.608 5.385 1.838 8.528.51 3.854-1.628 5.628-4.98 4.476-7.707-.792-1.873-2.76-2.964-5.165-2.933z" fill="#000"/><path d="M151.634 87.094h-1.08v46.8h1.08z" stroke="#000" fill="#000" stroke-width=".65"/><path d="M183.031 98.91c-1.093.015-2.276.26-3.481.769-3.673 1.55-6.208 4.987-5.444 7.666v37.772l1.086.284V109.04c1.83 1.608 5.385 1.838 8.528.51 3.854-1.628 5.628-4.98 4.476-7.707-.792-1.873-2.76-2.964-5.165-2.933z" fill="#000"/><path d="M211.638 87.094h-1.08v46.8h1.08z" stroke="#000" fill="#000" stroke-width=".65"/><g stroke="#000" fill="#000"><path d="M323.998 0L0 .011v1.662h322.336v15.963H0v1.662h322.336v15.963H0v1.662h322.336v15.963H0v1.662h322.336v15.963H0v1.662l323.998-.094z" transform="matrix(.79482 0 0 .65 45.24 87.038)"/><path d="M248.892 92.655c-1.093.014-2.278.259-3.482.768-3.674 1.551-6.21 4.99-5.443 7.67v37.77l1.086.282v-36.362c1.059.93 2.693 1.405 4.492 1.375a10.93 10.93 0 004.035-.864c3.854-1.628 5.626-4.98 4.475-7.705-.791-1.876-2.759-2.966-5.163-2.935zm1.907 2.417c.825.055 1.453.305 1.757.762.812 1.218-.984 3.442-4.01 4.966-1.673.842-3.459 1.329-4.85 1.326-1.027 0-1.767-.275-2.099-.773-.812-1.218.984-3.44 4.01-4.964 1.892-.952 3.816-1.407 5.192-1.316zM235.215 81.932l-1.414.156v8.735l-2.708.719V83.17l-1.414.156v8.59l-1.963.52v3.614l1.963-.52v7.718l-1.963.52v3.613l1.963-.52v8.091l1.414-.156v-8.31l2.708-.718v7.948l1.414-.156v-8.168l1.974-.523v-3.612l-1.974.522v-7.718l1.974-.523v-3.613l-1.974.523zm-1.414 12.504v7.717l-2.708.718v-7.718z" stroke-width=".65"/></g><path d="M26.411 156.7h86.253v80.546H26.411z" fill="#fff" stroke="#000" stroke-width="3.202"/><g fill="#000"><path d="M0 72.162V70.5h72v1.662zm0-17.625v-1.662h72v1.662zm0-17.625V35.25h72v1.662zm0-17.625v-1.662h72v1.662zM0 1.662V0h72v1.662z" stroke="#000" transform="matrix(1.03594 0 0 .65 32.022 167.52)"/><path d="M106.802 167.572h-1.08v46.8h1.08zM32.91 167.572h-1.081v46.8h1.08z" stroke="#000" stroke-width=".65"/></g><path d="M66.589 185.7c-3.786 1.599-6.362 5.2-5.363 7.911v37.81l.95-.049c.412-5.865 2.09-7.691 4.328-10.486 2.164-2.702 5.492-6.03 6.11-10.807.666-5.155-1.888-10.07-3.426-13.545l-.766-.081c1.069 2.647 2.134 4.743 2.73 8.074.83 4.621-.924 8.78-3.608 11.523-1.407 1.437-3.268 2.485-5.233 2.802v-23.723c1.853 1.546 5.35 1.752 8.448.443 3.855-1.628 5.627-4.981 4.476-7.707-.792-1.875-2.76-2.965-5.165-2.934-1.094.015-2.277.26-3.481.769z" fill="#000"/><path d="M130.873 156.7h86.254v80.546h-86.254z" fill="#fff" stroke="#000" stroke-width="3.202"/><g fill="#000"><path d="M0 72.162V70.5h72v1.662zm0-17.625v-1.662h72v1.662zm0-17.625V35.25h72v1.662zm0-17.625v-1.662h72v1.662zM0 1.662V0h72v1.662z" stroke="#000" transform="matrix(1.03594 0 0 .65 136.706 167.52)"/><path d="M211.487 167.572h-1.08v46.8h1.08zM137.593 167.572h-1.08v46.8h1.08z" stroke="#000" stroke-width=".65"/></g><path d="M235.423 156.7h86.253v80.546h-86.253z" fill="#000" stroke="#000" stroke-width="3.202"/><g stroke="#fff" fill="#fff"><path d="M0 72.162V70.5h72v1.662zm0-17.625v-1.662h72v1.662zm0-17.625V35.25h72v1.662zm0-17.625v-1.662h72v1.662zM0 1.662V0h72v1.662z" transform="matrix(1.03594 0 0 .65 241.256 167.52)"/><path d="M242.143 167.572h-1.08v46.8h1.08zM316.036 167.572h-1.08v46.8h1.08z" stroke-width=".65"/></g><path d="M6.256 248.585h336.265" stroke="#000" stroke-width="2"/><circle cx="69.538" cy="296.558" r="39.101" fill="#fff" stroke="#000" stroke-width="3"/><path d="M69.538 255.957v26.589" stroke="#000" stroke-width="2.486"/><circle cx="174" cy="296.558" r="39.101" fill="#fff" stroke="#000" stroke-width="3"/><circle cx="278.55" cy="296.558" r="39.101" fill="#fff" stroke="#000" stroke-width="3"/><path d="M47.073 44.605q0 1.268-.597 2.507-.584 1.24-1.648 2.1-1.166.933-2.726 1.458-1.546.524-3.733.524-2.347 0-4.228-.437-1.866-.437-3.805-1.297v-3.616h.204q1.648 1.37 3.806 2.114 2.157.743 4.053.743 2.682 0 4.17-1.006 1.5-1.006 1.5-2.682 0-1.444-.713-2.129-.7-.685-2.144-1.064-1.093-.292-2.376-.481-1.268-.19-2.697-.481-2.887-.613-4.286-2.085-1.386-1.487-1.386-3.864 0-2.726 2.304-4.46 2.304-1.75 5.846-1.75 2.29 0 4.2.437 1.909.437 3.382 1.079v3.411h-.205q-1.239-1.05-3.265-1.735-2.012-.7-4.126-.7-2.318 0-3.733.963-1.4.962-1.4 2.478 0 1.356.7 2.129.7.773 2.465 1.18.933.205 2.653.497 1.72.291 2.916.597 2.42.642 3.645 1.94 1.224 1.297 1.224 3.63zM64.991 50.8h-2.74v-1.807q-1.386 1.093-2.654 1.677-1.269.583-2.8.583-2.565 0-3.994-1.56-1.429-1.575-1.429-4.607v-10.57h2.741v9.272q0 1.24.117 2.129.116.875.495 1.501.394.642 1.02.933.628.292 1.823.292 1.065 0 2.318-.554 1.269-.554 2.362-1.414v-12.16h2.741zm19.726-8.266q0 2.041-.583 3.674-.569 1.633-1.546 2.741-1.035 1.152-2.274 1.735-1.24.569-2.726.569-1.385 0-2.42-.336-1.036-.32-2.042-.874l-.175.758h-2.565V28.115h2.74v8.107q1.152-.948 2.45-1.546 1.297-.612 2.916-.612 2.886 0 4.548 2.216 1.677 2.216 1.677 6.254zm-2.828.073q0-2.916-.963-4.417-.962-1.516-3.105-1.516-1.196 0-2.42.524-1.225.51-2.275 1.327v9.33q1.167.526 1.998.73.845.204 1.91.204 2.274 0 3.557-1.487 1.298-1.502 1.298-4.695zm30.864 8.193h-2.741v-9.272q0-1.05-.102-2.026-.088-.977-.394-1.56-.335-.627-.962-.948-.627-.32-1.808-.32-1.152 0-2.303.583-1.152.568-2.304 1.458.044.335.073.787.03.437.03.875V50.8H99.5v-9.273q0-1.078-.102-2.04-.087-.978-.393-1.56-.336-.628-.963-.934-.626-.32-1.807-.32-1.123 0-2.26.554-1.123.554-2.245 1.414V50.8h-2.741V34.516h2.74v1.808q1.284-1.065 2.552-1.662 1.283-.598 2.726-.598 1.662 0 2.814.7 1.166.7 1.735 1.939 1.662-1.4 3.032-2.012 1.37-.627 2.93-.627 2.684 0 3.952 1.633 1.283 1.618 1.283 4.534zm8.223-19.01h-3.091v-2.844h3.09zM120.8 50.8h-2.741V34.517h2.74zm13.91-.145q-.773.204-1.692.335-.904.132-1.618.132-2.493 0-3.79-1.342-1.298-1.341-1.298-4.3v-8.66h-1.852v-2.304h1.852v-4.68h2.74v4.68h5.657v2.303h-5.656v7.421q0 1.283.058 2.012.058.714.408 1.341.32.584.875.86.568.263 1.72.263.67 0 1.4-.19.729-.204 1.05-.335h.145z" aria-label="Submit" font-weight="400" font-size="29.858" font-family="sans-serif" letter-spacing="0" word-spacing="0" fill="#000" stroke-width=".746"/><path stroke="#000" stroke-width="1.395" d="M25.42 19.176h114.205v41.017H25.42z"/><path d="M278.55 255.957v26.589M174 255.957v26.589" stroke="#000" stroke-width="2.486"/><path d="M175.692 196.26c-4.503 0-8.151 2.58-8.151 5.764 0 3.183 3.65 5.764 8.151 5.764 4.501 0 8.15-2.58 8.15-5.764s-3.649-5.764-8.15-5.764zm3.58 4.802c.755 2.817-.236 5.53-2.214 6.06-1.978.53-4.192-1.324-4.947-4.141-.754-2.816.237-5.529 2.214-6.059.24-.064.74-.089.74-.089 1.798 0 3.557 1.803 4.207 4.23zM156.037 207.545v-6.839c.136-.655 1.15-1.848 1.853-1.894 1.583-.102 2.372 1.873 1.649 3.893-.566 1.578-2.282 3.63-3.502 4.84zm5.052-3.148c.63-.603 1.951-2.236 1.714-4.258-.244-2.08-2.05-2.96-3.176-2.96-1.08 0-2.187.52-3.59 1.563V182.38l-1.362.15v27.67c2.716-2.49 4.075-3.567 6.414-5.802z" fill="#000"/><path d="M290.766 180.41c-3.786 1.6-6.362 5.202-5.363 7.912v37.81l.95-.049c.412-5.865 2.09-7.691 4.328-10.486 2.164-2.702 5.492-6.03 6.11-10.807.666-5.155-1.888-10.07-3.426-13.545l-.766-.081c1.069 2.647 2.134 4.743 2.73 8.074.83 4.621-.924 8.78-3.608 11.523-1.407 1.437-3.268 2.485-5.233 2.802V189.84c1.853 1.546 5.35 1.752 8.448.443 3.855-1.628 5.627-4.981 4.476-7.707-.792-1.875-2.76-2.965-5.165-2.934-1.094.015-2.277.26-3.481.769zM278.031 167.788l-1.414.156v8.735l-2.708.719v-8.372l-1.414.156v8.59l-1.963.52v3.614l1.963-.52v7.718l-1.963.52v3.613l1.963-.52v8.091l1.414-.156v-8.31l2.708-.719v7.949l1.414-.156v-8.168l1.974-.523v-3.613l-1.974.523v-7.718l1.974-.523v-3.613l-1.974.523zm-1.414 12.504v7.717l-2.708.718v-7.718z" fill="#fff"/></svg>