<svg xmlns="http://www.w3.org/2000/svg" fill="none" viewBox="0 0 348 348"><path stroke="#000" stroke-width="3" d="M5 5h337v337H5z"/><circle cx="300" cy="40" r="16" stroke="#000" stroke-width="3"/><path fill="#000" d="M33 112h34L50 80z"/><path fill="#888" d="M73 78h34v34H73z"/><path fill="#000" d="M113 112h34l-17-32z"/><circle cx="170" cy="95" r="18" fill="#888"/><path fill="#888" d="M193 112h34l-17-32z"/><path fill="#000" d="M233 78h34v34h-34zM33 118h34v34H33z"/><circle cx="90" cy="135" r="18" fill="#888"/><circle cx="130" cy="135" r="18" fill="#000"/><path fill="#888" d="M153 152h34l-17-32zM193 118h34v34h-34z"/><path fill="#000" d="M233 152h34l-17-32z"/><circle cx="50" cy="175" r="18" fill="#000"/><path fill="#000" d="M73 192h34l-17-32z"/><path fill="#888" d="M113 158h34v34h-34z"/><path fill="#000" d="M153 158h34v34h-34z"/><circle cx="210" cy="175" r="18" fill="#888"/><circle cx="250" cy="175" r="18" fill="#888"/><path fill="#888" d="M33 232h34l-17-32zM73 198h34v34H73z"/><circle cx="130" cy="215" r="18" fill="#888"/><path fill="#000" d="M153 198h34v34h-34zM193 232h34l-17-32z"/><path fill="#888" d="M233 232h34l-17-32z"/><circle cx="50" cy="255" r="18" fill="#000"/><circle cx="90" cy="255" r="18" fill="#888"/><path fill="#888" d="M113 272h34l-17-32z"/><circle cx="170" cy="255" r="18" fill="#000"/><path fill="#888" d="M193 238h34v34h-34z"/><circle cx="250" cy="255" r="18" fill="#000"/><path fill="#000" d="M33 278h34v34H33z"/><path fill="#888" d="M73 312h34l-17-32z"/><path fill="#000" d="M113 278h34v34h-34zM153 312h34l-17-32z"/><circle cx="210" cy="295" r="18" fill="#000"/><path fill="#888" d="M233 278h34v34h-34z"/></svg>