<?xml version="1.0" standalone="yes"?>

<svg version="1.1" viewBox="0.0 0.0 348.0 348.0" fill="none" stroke="none" stroke-linecap="square" stroke-miterlimit="10" xmlns="http://www.w3.org/2000/svg" xmlns:xlink="http://www.w3.org/1999/xlink">
	<clipPath id="p.0">
		<path d="m0 0l348.0 0l0 348.0l-348.0 0l0 -348.0z" clip-rule="nonzero"></path>
	</clipPath>
	<g clip-path="url(#p.0)">
		<path fill="#000000" fill-opacity="0.0" d="m0 0l348.0 0l0 348.0l-348.0 0z" fill-rule="nonzero"></path>
		<path fill="#ffffff" d="m-6.0 0l348.0 0l0 347.9685l-348.0 0z" fill-rule="nonzero"></path>
		<path fill="#000000" fill-opacity="0.0" d="m5.07874 5.7758217l336.9134 0l0 337.6693l-336.9134 0z" fill-rule="nonzero"></path>
		<path stroke="#000000" stroke-width="2.0" stroke-linejoin="round" stroke-linecap="butt" d="m5.07874 5.7758217l336.9134 0l0 337.6693l-336.9134 0z" fill-rule="nonzero"></path>
		<path fill="#ffffff" d="m282.73444 40.553925l0 0c0 -8.375591 6.966034 -15.165352 15.5590515 -15.165352l0 0c4.126526 0 8.084015 1.5977726 11.001923 4.441828c2.9178772 2.844057 4.557129 6.7014217 4.557129 10.723524l0 0c0 8.375595 -6.9660034 15.165356 -15.5590515 15.165356l0 0c-8.593018 0 -15.5590515 -6.7897606 -15.5590515 -15.165356z" fill-rule="nonzero"></path>
		<path stroke="#000000" stroke-width="2.0" stroke-linejoin="round" stroke-linecap="butt" d="m282.73444 40.553925l0 0c0 -8.375591 6.966034 -15.165352 15.5590515 -15.165352l0 0c4.126526 0 8.084015 1.5977726 11.001923 4.441828c2.9178772 2.844057 4.557129 6.7014217 4.557129 10.723524l0 0c0 8.375595 -6.9660034 15.165356 -15.5590515 15.165356l0 0c-8.593018 0 -15.5590515 -6.7897606 -15.5590515 -15.165356z" fill-rule="nonzero"></path>
	</g>
	<rect x="20" y="20" width="240" height="150" stroke="#000" stroke-width="3" />
	<rect x="30" y="30" width="220" height="130" stroke="#000" stroke-width="3" />
	<rect x="270" y="70" width="60" height="100" stroke="#000" stroke-width="3" />
	<rect x="280" y="80" width="40" height="20" stroke="#000" stroke-width="3" />
	<rect x="280" y="110" width="40" height="20" stroke="#000" stroke-width="3" />
	<rect x="280" y="140" width="40" height="20" stroke="#000" stroke-width="3" />
	<rect x="20" y="180" width="150" height="43" stroke="#000" stroke-width="3" />
	<rect x="180" y="180" width="150" height="43" stroke="#000" stroke-width="3" />
	<rect x="20" y="233" width="150" height="43" stroke="#000" stroke-width="3" />
	<rect x="180" y="233" width="150" height="43" stroke="#000" stroke-width="3" />
	<rect x="20" y="286" width="310" height="43" stroke="#000" stroke-width="3" />
	

	<text x="95" y="105" font-family="helvetica, sans-serif" font-size="30" fill="#000">[ TEXT ]</text>
</svg>