<svg xmlns="http://www.w3.org/2000/svg" viewBox="0 0 348 348" fill="none"><path d="M5.079 5.776h336.913v337.67H5.08z" stroke-width="2" stroke="#000"/><path d="M282.734 40.554c0-8.376 6.966-15.165 15.56-15.165 4.126 0 8.084 1.597 11.001 4.441 2.918 2.844 4.558 6.702 4.558 10.724 0 8.376-6.966 15.165-15.56 15.165-8.593 0-15.559-6.79-15.559-15.165z" stroke-width="2" stroke="#000"/><path d="M115.531 251.547H326.54v76.257H115.53z" fill="#fff" stroke="#000" stroke-width="1.985"/><path d="M15.93 22.178h83.925v47.935H15.93zM15.606 85.23h83.925v47.934H15.606zM15.606 151.029h83.925v47.935H15.606zM15.606 216.42h83.925v47.934H15.606zM15.606 279.87h83.925v47.934H15.606z" fill="#fff" stroke="#000" stroke-width=".992"/><path d="M263.98 104.978a39.336 39.336 0 01-39.337 39.336 39.336 39.336 0 01-39.336-39.336 39.336 39.336 0 0139.336-39.336 39.336 39.336 0 0139.336 39.336zM211.396 187.584a39.336 39.336 0 01-39.337 39.336 39.336 39.336 0 01-39.336-39.336 39.336 39.336 0 0139.336-39.336 39.336 39.336 0 0139.337 39.336zM319.418 186.29a39.336 39.336 0 01-39.336 39.336 39.336 39.336 0 01-39.336-39.336 39.336 39.336 0 0139.336-39.336 39.336 39.336 0 0139.336 39.336z" fill="#fff" stroke="#000" stroke-width="1.328"/><g aria-label="88" style="line-height:1.25;-inkscape-font-specification:Digital-7" font-size="71.623" font-family="Digital-7" fill="#b3b3b3" stroke-width="1.791"><path d="M153.971 36.052l2.605 2.604-2.605 2.605h-16.929l-2.604-2.605 2.604-2.604zm3.907 3.255l1.302 1.303V58.84q-.651 2.605-3.255 3.256l-1.954-5.21V43.215zm-3.256 22.79H135.09q-2.605-.651-3.256-3.256l5.209-1.953h15.627zm-22.789-4.558v-16.93l1.302-1.302 3.907 3.907v12.371zm20.836-37.114h-15.562l-5.209-1.953q.651-2.605 3.256-3.256h19.468zm-15.627 1.302v12.371l-3.907 3.907-1.302-1.302v-16.93zm16.93 12.371V20.425l1.953-5.209q2.604.651 3.255 3.256v18.23l-1.302 1.303zM187.83 36.052l2.604 2.604-2.605 2.605H170.9l-2.604-2.605 2.604-2.604zm3.906 3.255l1.302 1.303V58.84q-.65 2.605-3.255 3.256l-1.954-5.21V43.215zm-3.255 22.79h-19.534q-2.605-.651-3.256-3.256l5.21-1.953h15.626zm-22.79-4.558v-16.93l1.303-1.302 3.906 3.907v12.371zm20.836-37.114h-15.562l-5.209-1.953q.652-2.605 3.256-3.256h19.469zM170.9 21.727v12.371l-3.906 3.907-1.303-1.302v-16.93zm16.93 12.371V20.425l1.953-5.209q2.604.651 3.255 3.256v18.23l-1.302 1.303z"/></g><g aria-label="69" style="line-height:1.25;-inkscape-font-specification:Digital-7;text-align:start" font-size="71.623" font-family="Digital-7" fill="#000" stroke-width="1.791" text-anchor="middle"><path d="M153.992 36.206l2.604 2.604-2.604 2.605h-16.93l-2.604-2.605 2.605-2.604zm3.906 3.256l1.303 1.302v18.231q-.651 2.605-3.256 3.256l-1.953-5.21V43.369zm-3.255 22.789h-19.534q-2.604-.651-3.255-3.256l5.209-1.953h15.626zm-22.79-4.558v-16.93l1.303-1.301 3.907 3.906V55.74zm22.79-37.114h-17.515l-5.21-1.953q.652-2.605 3.256-3.256h21.422zm-17.58 1.302v12.372l-3.907 3.906-1.302-1.302v-16.93zM187.85 36.206l2.604 2.604-2.604 2.605h-16.93l-2.604-2.605 2.605-2.604zm3.907 3.256l1.302 1.302v18.231q-.651 2.605-3.256 3.256l-1.953-5.21V43.369zM188.5 62.25h-19.534q-2.604-.651-3.255-3.256l5.209-1.953h15.627zm-1.953-41.672h-15.562l-5.209-1.953q.651-2.605 3.256-3.256H188.5zm-15.627 1.302v12.372l-3.907 3.906-1.302-1.302v-16.93zm16.929 12.372V20.579l1.953-5.209q2.605.651 3.256 3.256v18.231l-1.302 1.302z" style="text-align:center"/></g></svg>