<svg xmlns="http://www.w3.org/2000/svg" fill="none" viewBox="0 0 348 348"><path stroke="#000" stroke-width="2" d="M5.08 5.78h336.91v337.67H5.08z"/><path stroke="#000" stroke-width="2" d="M282.73 40.55c0-8.37 6.97-15.16 15.56-15.16 4.13 0 8.09 1.6 11 4.44a14.97 14.97 0 0 1 4.56 10.72c0 8.38-6.96 15.17-15.56 15.17-8.59 0-15.56-6.8-15.56-15.17z"/><path fill="#000" d="M25.07 25.07h217.55v56.77H25.07z"/><path fill="#fff" d="m83.03 53.07 14.86-6.44v1.2L85.1 53.38 97.9 59v1.25l-14.87-6.5Zm28.43-9.41v6.48h-.51q-.25-1.87-.9-2.97-.63-1.1-1.82-1.76-1.19-.65-2.46-.65-1.44 0-2.38.89-.94.87-.94 1.99 0 .85.6 1.56.85 1.03 4.07 2.76 2.63 1.41 3.58 2.17.97.75 1.48 1.77.53 1.02.53 2.14 0 2.13-1.66 3.68-1.65 1.53-4.24 1.53-.82 0-1.54-.13-.43-.06-1.78-.5-1.34-.43-1.7-.43-.35 0-.55.2-.2.21-.3.86h-.5v-6.43h.5q.37 2.02.97 3.03.61 1 1.86 1.66 1.25.66 2.75.66 1.72 0 2.72-.91 1-.91 1-2.16 0-.69-.38-1.4-.37-.7-1.18-1.3-.53-.42-2.94-1.76-2.4-1.35-3.42-2.15-1.01-.8-1.54-1.77-.52-.97-.52-2.13 0-2.02 1.54-3.47 1.55-1.46 3.94-1.46 1.5 0 3.17.73.77.35 1.09.35.36 0 .58-.21.23-.22.37-.87zm8.69 1.44v7.41h4.12q1.6 0 2.14-.48.72-.64.8-2.24h.51v6.52h-.5q-.2-1.36-.4-1.75-.24-.48-.81-.76-.57-.28-1.74-.28h-4.12v6.18q0 1.24.11 1.52.11.26.39.43.28.15 1.05.15h3.18q1.59 0 2.3-.22.72-.22 1.39-.87.85-.86 1.75-2.59h.55l-1.61 4.7h-14.44v-.51h.66q.67 0 1.26-.32.44-.22.6-.66.16-.44.16-1.81V47.35q0-1.79-.36-2.2-.5-.55-1.66-.55h-.66v-.51h14.44l.2 4.1h-.53q-.3-1.48-.65-2.03-.35-.55-1.04-.84-.55-.21-1.95-.21zm17.3 0v7.41h4.12q1.6 0 2.14-.48.72-.64.8-2.24h.51v6.52h-.51q-.2-1.36-.39-1.75-.25-.48-.81-.76-.57-.28-1.74-.28h-4.12v6.18q0 1.24.11 1.52.11.26.39.43.27.15 1.05.15h3.18q1.58 0 2.3-.22.72-.22 1.38-.87.86-.86 1.76-2.59h.55l-1.62 4.7h-14.43v-.51h.66q.66 0 1.26-.32.44-.22.6-.66.16-.44.16-1.81V47.35q0-1.79-.36-2.2-.5-.55-1.66-.55h-.66v-.51h14.43l.21 4.1h-.54q-.29-1.48-.65-2.03-.34-.55-1.03-.84-.55-.21-1.95-.21zm11.87 17.72v-.51h.7q1.2 0 1.69-.76.3-.46.3-2.05V47.4q0-1.75-.38-2.2-.54-.6-1.6-.6h-.71v-.51h7.62q4.2 0 6.39.95 2.2.95 3.52 3.18 1.34 2.22 1.34 5.14 0 3.9-2.38 6.53-2.66 2.93-8.12 2.93zm5.35-1.35q1.75.38 2.94.38 3.2 0 5.32-2.25 2.11-2.25 2.11-6.1 0-3.89-2.11-6.13-2.12-2.23-5.43-2.23-1.25 0-2.83.4zm29.99-7.67-14.87 6.44v-1.2l12.81-5.55-12.8-5.6v-1.26l14.86 6.5z" aria-label="&lt;SEED&gt;"/><path fill="#000" d="M56.03 6.61h3.69V25.3h-3.69zm5.69 0h3.69V25.3h-3.69zm26.06 137.24h61.52v61.52H87.78zm110 0h61.52v61.52h-61.52z"/><path fill="#000" d="M116.71 81.07h3.65v63.08h-3.65zm110 .26h3.65v63.08h-3.65z"/><path fill="#fff" d="m97.34 174.27 14-6.07v1.13l-12.05 5.24 12.06 5.28v1.17l-14.01-6.12zm16.06 9.55 1.22-5.92h-2.23v-1.07h2.43l.9-4.47h-3.33v-1.04h3.58l1.19-5.92h1.08l-1.19 5.92h4.39l1.26-5.92h1.08l-1.23 5.92h2.2v1.04h-2.4l-.91 4.47h3.32v1.07h-3.54l-1.21 5.92h-1.06l1.19-5.92h-4.42l-1.23 5.92zm2.52-6.99h4.41l.94-4.47h-4.44zm23.81-1.87-14 6.06v-1.12l12.06-5.23-12.07-5.29v-1.18l14.01 6.12zm67.61-.69 14-6.07v1.13l-12.05 5.24 12.06 5.28v1.17l-14.01-6.12zm16.06 9.55 1.22-5.92h-2.23v-1.07h2.43l.9-4.47h-3.33v-1.04h3.58l1.19-5.92h1.08l-1.19 5.92h4.39l1.26-5.92h1.08l-1.23 5.92h2.2v1.04h-2.4l-.91 4.47h3.32v1.07h-3.54l-1.21 5.92h-1.06l1.19-5.92h-4.42l-1.23 5.92zm2.52-6.99h4.41l.94-4.47h-4.44zm23.81-1.87-14 6.06v-1.12l12.06-5.23-12.07-5.29v-1.18l14.01 6.12z" aria-label="&lt;#&gt;"/></svg>