<svg xmlns="http://www.w3.org/2000/svg" fill="#fff" viewBox="0 0 348 348"><path fill="#000" d="M5 6h337v337H5z"/><circle cx="298.3" cy="40.6" r="16.6"/><path d="M128 112v36h4v-28h8v8h12v-8h8v12h4v-20h-4v4h-4v8h-8v20h16v4h-20v-24h-8v-8h-4v-4zm48 0v20h4v-16h12v32h4v-16h12v16h4v-36h-4v16h-12v-16z"/><path id="a" d="M128 156v4h16v32h4v-16h8v4h-4v12h12v-12h-4v-4h4v-20h-4v8h-4v-8h-4v12h8v4h-12v-16h-20zm0 8v4h8v4h-8v20h12v-4h-8v-12h4v8h4v-20h-12zm28 20h4v4h-4v-4z"/><path d="M176 156h4v16h12v-16h20v36h-20v-4h16v-28h-12v16h-16v16h-4zm-48 44v20h20v-16h16v-4h-36zm4 4h12v12h-12v-12zm28 12v20h4v-20h-4zm-32 16v4h20v-4h-20zm48-32v4h4v-4h-4zm4 4v4h4v-4h-4zm4 4v4h4v-4h-4zm4 4v4h4v-4h-4zm4 4v4h4v-4h-4zm0-16v4h16v32h4v-36h-20zm-16 16v4h4v-4h-4zm4 4v4h4v-4h-4zm4 4v4h4v-4h-4zm4 4v4h4v-4h-4zm4 4v4h4v-4h-4zM44 128v20h4v-16h12v32h4v-32h16v-4H44zm32 16v20h4v-20h-4z"/><use href="#a" transform="translate(-84 36)"/><path d="M104 268v12h12v-12h-12zm12 12v4h4v-4h-4zm4 4v4h4v-4h-4zm4 4v4h4v-4h-4zm4 4v12h12v-12h-12zm-8-24v4h8v8h4v-8h4v16h4v-20h-20zm-12 4h4v4h-4v-4zm-4 12v20h20v-4h-16v-4h8v-4h-8v-8h-4zm28 12h4v4h-4v-4zm68-28v4h8v8h8v4h-16v20h20v-4h-16v-12h20v8h8v8h4v-4h-8v-8h-8v-12h8v-8h8v-4h-4v8h-12v-8h-4v8h-12v-8zm60-76v36h4v-16h16v-4h-16v-16zm16 0v4h16v28h-16v4h20v-36zm0-64v4h-4v4h4v12h4v-20zm-4 8h-4v4h4zm-4 4h-4v4h4zm-4 4h-4v4h4zm28-16v20h4v-20zm0 20h-4v4h4zm-4 4h-4v4h4zm-4 4h-4v4h4zm-4 4h-20v4h20zM200 56v36h36V56h-4v32h-28V56Zm16 0v20h4V56Zm-112 0v4h16v16h4V56h-20zm32 0v20h4V56h-4zm0 20h-4v4h4v-4zm-4 4h-4v4h4v-4zm-4 4h-4v4h4v-4zm-4 4h-4v4h4v-4zm-4 0v-4h-4v4h4zm-4-4v-4h-4v4h4zm-4-4v-4h-4v-4h-4v20h4V80h4z"/><circle cx="38" cy="234" r="6"/><circle cx="38" cy="122" r="6"/><circle cx="146" cy="98" r="6"/><circle cx="302" cy="122" r="6"/><circle cx="302" cy="170" r="6"/><circle cx="194" cy="262" r="6"/><circle cx="194" cy="310" r="6"/><circle cx="146" cy="262" r="6"/></svg>