<svg xmlns="http://www.w3.org/2000/svg" fill="none" viewBox="0 0 348 348"><path stroke="#000" stroke-width="2" d="M5 6h337v337H5z"/><path stroke="#000" stroke-width="2" d="M283 41c0-9 7-16 15-16 4 0 8 2 11 5a15 15 0 0 1 5 11c0 8-7 15-16 15s-15-7-15-15z"/><rect width="237.9" height="237.9" x="20" y="16" stroke="#000" stroke-width="2" ry=".2"/><rect width="48" height="197.6" x="274" y="128" stroke="#000" stroke-width="2" ry=".2"/><rect width="33" height="21.4" x="282" y="276" stroke="#000" stroke-width="2" ry=".2"/><rect width="33" height="21.4" x="282" y="236" stroke="#000" stroke-width="2" ry=".2"/><rect width="33" height="21.4" x="282" y="196" stroke="#000" stroke-width="2" ry=".2"/><rect width="33" height="21.4" x="282" y="156" stroke="#000" stroke-width="2" ry=".2"/><path stroke="#000" stroke-width="1.9" d="M101 259h78v78h-78z"/><circle cx="140.4" cy="298.4" r="32.6" stroke="#000" stroke-width="2.3"/><path stroke="#000" stroke-width="2" d="M107 265h67v67h-67zm-6-6 6 6m73-6-6 6m-67 67-6 5m73-5 6 5"/><path fill="#000" d="M115 305v1h-4v-16h4v1h-1v14h1zm15-13v1h-4v10h-2v-10h-3v-2h9v1zm9 10v1h-7l-1-1v-10l1-1h6v2h-4v3h4v2h-4v3h4l1 1zm10 0 1 1h-3l-2-5-3 5h-2v-1l3-5-3-5v-1h3l2 4 2-4h2v1l-2 5zm10-10v1h-3v10h-2v-10h-4v-2h9v1zm10 14h-4v-1h1v-14h-1v-1h4v1z" aria-label="[ TEXT ]"/><path stroke="#000" stroke-width="2" d="M57 107h34v55H57zm8-77 33 4-7 55-33-5zm0 211 33-5-7-54-33 4zm153-134h-34v55h34zm-7-78-34 4 7 55 34-4zm0 211-34-4 7-55 34 5z"/><path stroke="#000" stroke-width="5" d="M74 136c41-4 86 1 126 1M81 39c31 17 88 16 114 0M81 231c31-18 88-17 114 0M77 59c61 8 62 59 123 59"/><path stroke="#000" stroke-width="5" d="M198 59c-61 8-63 59-124 59m3 94c61-9 62-59 123-59"/><path stroke="#000" stroke-width="5" d="M196 212c-61-9-61-59-122-59m2-77c45 5 36 38 48 65 15 28 52 47 75 53"/><path stroke="#000" stroke-width="5" d="M199 76c-46 5-38 38-51 65-14 29-50 50-73 53"/><path fill="#000" d="M47 66v2H33v-1h-1v-1l1-1h5V45l-4 3-1 1v-1h-1v-2h1l6-4h3v23h5v1z" aria-label="1"/><path fill="#000" d="M47 148v1l-1 1H32v-1h-1v-2l1-1 5-5 3-4 1-2 1-2v-4l-1-1-1-1h-4l-2 1h-1l-1 1v-3l1-1 1-1h8l2 2 2 2v5l-1 2-2 3-4 4-4 5h12v1z" aria-label="2"/><path fill="#000" d="m47 222-1 3-1 3-3 1-4 1h-2l-2-1h-2l-1-1v-3h1l2 1 1 1h5l2-1 1-2v-3l-2-2-2-1h-5v-3h5l2-1 1-2v-3l-1-1-1-1-2-1-2 1h-2l-1 1-1 1v-3l1-1 1-1h8l2 1 1 2 1 3-1 2v2l-2 1-2 1 2 1 2 1 2 2v2z" aria-label="3"/><path fill="#000" d="M248 66v1l-1 1h-2v-1l-3-6h-10l-2 6h-1v1h-2l-1-1v-1l9-23v-1h4v1zm-11-21-4 13h8z" aria-label="A"/><path fill="#000" d="M246 142v2l-1 2-1 2-2 1h-2l-3 1h-6l-1-1v-25h10l3 2 1 2 1 2v2l-1 2-1 1-2 1 2 1 2 1 1 2v2zm-5-11v-2l-1-1-1-1h-6v8h6l1-1 1-2v-1zm2 11-1-2-1-1-1-1h-7v9h5l2-1h1l1-2 1-2z" aria-label="B"/><path fill="#000" d="M247 226v1l-1 1-2 1-2 1h-3l-4-1-4-2-2-4-1-6 1-6 2-4 4-2 5-1h4l1 1 1 1h1v3h-2l-1-1-2-1h-6l-2 2-2 4v8l2 3 2 2 4 1 2-1h2l2-1v-1h1v2z" aria-label="C"/></svg>