<svg xmlns="http://www.w3.org/2000/svg" fill="none" stroke="#000" stroke-width="2" viewBox="0 0 347 347"><path d="M5 5h337v337H5z"/><circle cx="298" cy="40" r="16"/><rect width="98.2" height="41" x="233.2" y="70.8" ry="6.4"/><ellipse cx="161" cy="65.3" rx="44.7" ry="43.4"/><path fill="#000" stroke="none" d="M16 17.8h71.3v95H16zm-4.2 100.1h323.3v219H11.8zm117-52c-.2 2-.9 4.5-2.9 5.3-1.4.3-3 .5-4.6.3-1.8.6-2-1.9-.1-1.9-.2-2.6 0-5.4-.4-8.1-2.5-1-.6-3 1.6-2.6l3 .3c2.3 1 3.5 3.6 3.2 6.1l.2.6zm-1.4-.6c-.2-1.3-.4-2.8-1.2-3.8-2.3-1.5-4.4 0-3.6 2.7.3 1.9-1.4 6.5 2 5.6 2-.3 2.6-2.3 2.7-4-.2-.2.2-.3 0-.5zm12.4-2.5c-.3 1.8-1.8 0-1.4-1 1-2.3-2.6-.7-3.2-1-1.4 0-2.9-.4-2.5 1.7-1.1 2.3 2.8 3.2 2.6.8.2-2 1.5.2 1 1.3.4 1.1-.1 5-1 2.1-1.3-1.8-3.3.3-2.5 2.1 0 2.1 4.5 1.6 5.6.5-.5-1 .5-4 1.3-1.6.4 2-.8 4.3-3.1 3.5-1.8-.2-5.6 1.5-6-.6 1.9-.7.8-2.6 1.2-4l.1-3.6c.8-2-3.6-3-.2-3.5 2.5.3 6-1.2 7.7.8l.4 2.5zm-7.4 2.1c-.1.9 2 1 .3.1zm18.1-2.4c-.1 2.3-1.8-.2-1.5-1.3.9-2.2-3.9-1.3-2.5.9.1 1.7 0 3.3.3 5-.8 1.2.5 2.9 2 2.8.2 2-3.7 1-5.2 1.4-1.5-1.7 1.7-1 1.8-2.6-.2-1.8.1-3.5-.2-5.3 1-2.2-.7-4.6-2.8-2.8 0 .8-.4 4.2-1 2.3-1-2.5.7-4.7 3.5-3.7 1.7.2 3.5-.5 5.2.2.6.8.2 2 .4 3zm10.6 3.1c-.4 1.3 0 3.1-1.1 4-.8.7-.8.2-.4 1a4.2 4.2 0 0 1-5.3.6 6 6 0 0 1-2.2-4.5c-.3-1.7-.4-3.1.2-4.7a3.2 3.2 0 0 1 3-2.6c2.2-1 5 .7 5.2 3.1.1 1 .6 2 .6 3.1zm-1.4 0c-.3-1.8-.3-4.5-2.6-4.6-1.9-.8-4 1.3-3.7 3.5 0 1-.2 2.4.3 3.4.6.7 1.2 1.6 2.2 2 2.7 1.2 4-2 3.8-4.3zm12.5-5.4c-.3.3-1.8.5-1.3 2l-.1 5.3c.1 1.3.7 5.1-1.6 3.3-1-1.9-1.7-3.9-2.4-5.9-.6-2.5-2-2.3-1.5.1 0 1.6-.4 1.8.1 3.1 0 1-.2 2.6 1.3 2.2.6 2-2.8 1.3-4 .9-.2-1.4 2.7-.7 1.6-2.9-.2-2.3 0-4.7-.5-7-3.6-1.3 2.3-3.8 2.5-.6a19 19 0 0 1 1.4 4c.8 1.4 1.1 2.8 1.8 4.1.8 1.2.4-1.3.5-1.6-.3-1.5 0-2.9-.3-4.3.6-2-1.3-2-1.9-3 .4-1.4 4-.7 4.4.3zm-8 10.6c-.6-.7-.5.2 0 0zm18.2 0c-.8 1-3 1.2-3.9 0 2.8-1.8-.8-3.9-2.4-2.2-1 1.3.8 1.7.7 2.7-1.2.4-6 .1-2.8-1.1a8 8 0 0 0 1-3.6c.6-1.1.1-1 .4-2.3.4-1.6.6-3.8 1.5-5 3.2-.7 2 3.9 3 5.7.8 2.1-.3 5.2 2.5 5.7zm-3.6-4.6c-.2-1.2-1.1-5.2-2-2.3-.2 1.6-.4 4.4 2 2.3zm12.9-3.7c-.2 2.3-1.9-.2-1.6-1.3.9-2.2-3.9-1.3-2.5.9.2 1.7 0 3.3.3 5-.8 1.2.5 2.9 2 2.8.2 2-3.6 1-5.2 1.4-1.5-1.7 1.8-1 1.8-2.6-.2-1.8.1-3.5-.2-5.3 1-2.2-.6-4.6-2.8-2.8 0 .8-.4 4.2-1 2.3-1-2.5.7-4.7 3.5-3.7 1.7.2 3.5-.5 5.2.2.6.8.2 2 .5 3zm10.7.3c-.2 1.8-1.8 0-1.3-1 1-2.3-2.7-.7-3.3-1-1.3 0-2.9-.4-2.5 1.7-1.1 2.3 2.8 3.2 2.7.8.1-2 1.4.2 1 1.3.3 1.1-.2 5-1 2.1-1.4-1.8-3.4.3-2.6 2.1 0 2.1 4.6 1.6 5.6.5-.5-1 .5-4 1.3-1.6.4 2-.8 4.3-3.1 3.5-1.7-.2-5.6 1.5-6-.6 1.9-.7.8-2.6 1.2-4l.1-3.6c.8-2-3.6-3-.2-3.5 2.5.3 6-1.2 7.7.8l.4 2.5zm-7.3 2.1c0 1.2 2.2.8 0 0zM262.6 97c0 1.4-1.3 2.2-2.9 1.5-2-.6-1.4-3.1-1.6-4.7.3-2.5-3.7-2.7-4.6-1.2 0 1.6-.8 4 1.5 4.3 1.8 1.7-2 2-3.1 1.7-1.3 1-3.5-1-1.2-1.1 2.1-.5 1.2-3.2 1.3-4.8 0-2.3.7-4.8-.2-7-1.4-.2-1.8-2.1.2-2 2.2 0 4.3-.2 6.4.1 1.6.4 2.5 2.3 2.4 3.7.9 1.1-.8 2.7-1.6 3.8.5 1.7.4 3.8 1.4 5.4.5-.4 1.7-1.9 2 0v.3zm-3.1-9.6c-.4-2.4-3.3-2.3-5.1-2-1.5.7-.7 3-.9 4.2 1.7.6 4.5.7 5.6-1.2l.4-1zm16 .8c-.1 1.7-2 .6-1.6-.6-.2-1.3.5-2.9-1.6-2-1.4 0-2.1 0-3.3.2-2-1-2.6 1-2.3 2.8-.5 2.2 1.4 2 3 1.7.3-1 .1-3.8 1.5-2-.2 1.7.2 3.7 0 5.7-1.5 1.6-.7-3-3-1.8-2.3 0-.9 2.9-1.4 4.3 1.7 1.2 4.5.6 6.5.2 1-.9 0-2.2.5-3.4 2.4-1 1.6 3.5.9 4.7-1.4.9-3.2.5-4.8.6-1.7-.3-5.8 1.6-5.7-.9 1.5-.7 1.7-2.3 1.3-3.8l.1-3c-.3-1.7 1-4.5-1.1-5.2-2.2-1.9 2.9-1.8 4-1.7 2.2.4 5.5-1.2 6.5 1.3.1 1.2.2 1.9.5 3zm-9 2.6c-.5.4 2 1.6.7.2l-.4-.1zm21.8 2.6c0 1.3-.1 2-.8 2.3 1.2.7-1.4 1.6-1.6 2.2-2 1.1-4.2 1-6.4.5-2.3 1-1.8-3.4-1.7-4.8-.2-2.5 1.9.5 1.3 1.6.5 1.7 3.1 2.8 4.9 1.9 1.9-.8 4-3.1 1.8-4.7-1.6-1.3-3.8-.4-5.5-1.6-1.6-.5-2.6-2.8-1.8-4.2.1-1.4 1.8-2 2.9-2.4 2 .1 3.9-.2 5.5 0 .2 1.5.5 3 .3 4.6-1.2 1.3-1.3-2.5-2.6-2.7-1.8-.9-5.3-.1-4.4 2.4 1 2 3.6 1.4 5.4 1.9 1.3.5 2.5 1.7 2.7 3zm13.4-5.2c0 1.7-2 .6-1.6-.6-.1-1.3.5-2.9-1.5-2-1.5 0-2.2 0-3.3.2-2-1-2.6 1-2.3 2.8-.5 2.2 1.4 2 2.9 1.7.4-1 .2-3.8 1.6-2-.2 1.7.1 3.7 0 5.7-1.5 1.6-.7-3-3-1.8-2.3 0-.9 2.9-1.4 4.3 1.7 1.2 4.5.6 6.4.2 1-.9 0-2.2.6-3.4 2.4-1 1.5 3.5.8 4.7-1.4.9-3.2.5-4.8.6-1.6-.3-5.7 1.6-5.6-.9 1.4-.7 1.7-2.3 1.2-3.8.2-1 0-2 .2-3-.4-1.7 1-4.5-1.2-5.2-2.2-1.9 3-1.8 4.1-1.7 2.1.4 5.5-1.2 6.5 1.3 0 1.2.2 1.9.4 3zm-9 2.6c-.4.4 2 1.6.8.2l-.4-.1-.4-.1zm22.2-3c-.1 2.5-1.8.4-1.9-1 .7-1.4-.4-2.8-2-2-1.9.4-1 2.9-1 4.4-.3 1.4.7 3.3 0 4.4-.2 1.9 1 3.2 2.8 3.2.5 2.4-3.4 1-5 1.8-1.6.6-2.4-1-1.5-1.6 2.3 0 2.5-2 2.3-3.9 0-2-.4-4.2-.1-6.2 1.2-2.7-4-2.9-3.7-.5.2.8-.3 3.7-1 2.3-.1-1.6-1.2-4.4.9-5.1l5.4.1c1.4-.1 3.2-.5 4.4.5.4 1.1.2 2.4.4 3.5z"/><g transform="translate(380.3 -285.6) scale(1.028)"><circle id="a" cx="-340.7" cy="410.1" r="12.7" fill="#fff" stroke="none" stroke-width="2.2"/><use href="#a" transform="translate(0 25.4)"/><use href="#a" transform="translate(0 50.7)"/><use href="#a" transform="translate(0 76.1)"/><use href="#a" transform="translate(0 101.5)"/><use href="#a" transform="translate(0 126.8)"/><use href="#a" transform="translate(0 152.2)"/><use href="#a" transform="translate(0 177.6)"/><use href="#a" transform="translate(25.4)"/><use href="#a" transform="translate(25.4 25.4)"/><use href="#a" transform="translate(25.4 50.7)"/><use href="#a" transform="translate(25.4 76.1)"/><use href="#a" transform="translate(25.4 101.5)"/><use href="#a" transform="translate(25.4 126.8)"/><use href="#a" transform="translate(25.4 152.2)"/><use href="#a" transform="translate(25.4 177.6)"/><use href="#a" transform="translate(50.7)"/><use href="#a" transform="translate(50.7 25.4)"/><use href="#a" transform="translate(50.7 50.7)"/><use href="#a" transform="translate(50.7 76.1)"/><use href="#a" transform="translate(50.7 101.5)"/><use href="#a" transform="translate(50.7 126.8)"/><use href="#a" transform="translate(50.7 152.2)"/><use href="#a" transform="translate(50.7 177.6)"/><use href="#a" transform="translate(76.1)"/><use href="#a" transform="translate(76.1 25.4)"/><use href="#a" transform="translate(76.1 50.7)"/><use href="#a" transform="translate(76.1 76.1)"/><use href="#a" transform="translate(76.1 101.5)"/><use href="#a" transform="translate(76.1 126.8)"/><use href="#a" transform="translate(76.1 152.2)"/><use href="#a" transform="translate(76.1 177.6)"/><use href="#a" transform="translate(101.5)"/><use href="#a" transform="translate(101.5 25.4)"/><use href="#a" transform="translate(101.5 50.7)"/><use href="#a" transform="translate(101.5 76.1)"/><use href="#a" transform="translate(101.5 101.5)"/><use href="#a" transform="translate(101.5 126.8)"/><use href="#a" transform="translate(101.5 152.2)"/><use href="#a" transform="translate(101.5 177.6)"/><use href="#a" transform="translate(126.8)"/><use href="#a" transform="translate(126.8 25.4)"/><use href="#a" transform="translate(126.8 50.7)"/><use href="#a" transform="translate(126.8 76.1)"/><use href="#a" transform="translate(126.8 101.5)"/><use href="#a" transform="translate(126.8 126.8)"/><use href="#a" transform="translate(126.8 152.2)"/><use href="#a" transform="translate(126.8 177.6)"/><use href="#a" transform="translate(152.2)"/><use href="#a" transform="translate(152.2 25.4)"/><use href="#a" transform="translate(152.2 50.7)"/><use href="#a" transform="translate(152.2 76.1)"/><use href="#a" transform="translate(152.2 101.5)"/><use href="#a" transform="translate(152.2 126.8)"/><use href="#a" transform="translate(152.2 152.2)"/><use href="#a" transform="translate(152.2 177.6)"/><use href="#a" transform="translate(177.6)"/><use href="#a" transform="translate(177.6 25.4)"/><use href="#a" transform="translate(177.6 50.7)"/><use href="#a" transform="translate(177.6 76.1)"/><use href="#a" transform="translate(177.6 101.5)"/><use href="#a" transform="translate(177.6 126.8)"/><use href="#a" transform="translate(177.6 152.2)"/><use href="#a" transform="translate(177.6 177.6)"/><use href="#a" transform="translate(203)"/><use href="#a" transform="translate(203 25.4)"/><use href="#a" transform="translate(203 50.7)"/><use href="#a" transform="translate(203 76.1)"/><use href="#a" transform="translate(203 101.5)"/><use href="#a" transform="translate(203 126.8)"/><use href="#a" transform="translate(203 152.2)"/><use href="#a" transform="translate(203 177.6)"/><use href="#a" transform="translate(228.3)"/><use href="#a" transform="translate(228.3 25.4)"/><use href="#a" transform="translate(228.3 50.7)"/><use href="#a" transform="translate(228.3 76.1)"/><use href="#a" transform="translate(228.3 101.5)"/><use href="#a" transform="translate(228.3 126.8)"/><use href="#a" transform="translate(228.3 152.2)"/><use href="#a" transform="translate(228.3 177.6)"/><use href="#a" transform="translate(253.7)"/><use href="#a" transform="translate(253.7 25.4)"/><use href="#a" transform="translate(253.7 50.7)"/><use href="#a" transform="translate(253.7 76.1)"/><use href="#a" transform="translate(253.7 101.5)"/><use href="#a" transform="translate(253.7 126.8)"/><use href="#a" transform="translate(253.7 152.2)"/><use href="#a" transform="translate(253.7 177.6)"/><use href="#a" transform="translate(279)"/><use href="#a" transform="translate(279 25.4)"/><use href="#a" transform="translate(279 50.7)"/><use href="#a" transform="translate(279 76.1)"/><use href="#a" transform="translate(279 101.5)"/><use href="#a" transform="translate(279 126.8)"/><use href="#a" transform="translate(279 152.2)"/><use href="#a" transform="translate(279 177.6)"/></g><path fill="#fff" stroke="none" d="M48.1 40.1v7.2h-7.2v7.2h-7.2v7.2h-7.2v14.4h28.8v14.4h14.4V76.1h7.2v-7.2h-7.2V40.1Zm0 14.4h7.2v14.4H40.9v-7.2h7.2z"/></svg>