<svg xmlns="http://www.w3.org/2000/svg" xml:space="preserve" fill="none" viewBox="0 0 512 512"><path fill="#7f7f7f" d="M90 166h16v16H90z" paint-order="stroke fill markers"/><path stroke="#000" stroke-width="2" d="M18 18h478v478H18Z"/><circle cx="448" cy="64" r="23" stroke="#000" stroke-width="2"/><path stroke="#000" stroke-miterlimit="10" stroke-width="2" d="M115 174h87m-87 4h87m-87-8h87m17 71h88m-88 4h88m-88-8h88m-88 42h186m-186 4h186m-186-8h186m-186-51h205m-205-4h205m-205-4h205m-14-49h13v13h-13Zm-17 0h13v13h-13Zm-290 34h108v193H103Zm258 188h59v19h-59Zm-63 0h59v19h-59Zm78-222h13v13h-13ZM83 187h346M83 160h346v266H83Zm136 135h145m-145 4h145m7 95h41m-41 8h41m-41-4h41m-107 0h47m-47 4h47m-47-8h47m-133-63h117m-117-4h117m-117-4h117m-117-32h145" paint-order="stroke fill markers"/><path fill="#000" d="M92 166v6h2v-6h-2zm2 6v2h2v-2h-2zm0 2h-2v8h2v-8zm2-8v2h2v-2h-2zm2 2v2h2v-2h-2zm2 0h2v-2h-2v2zm4 2v2h2v-2h-2zm-4 4v2h4v6h2v-8h-6zm-2 4v2h2v2h2v-4h-4z" paint-order="stroke fill markers"/></svg>