<svg xmlns="http://www.w3.org/2000/svg" viewBox="0 0 348 348" fill="none"><path d="M5.079 5.776h336.913v337.67H5.08z" stroke-width="2" stroke="#000"/><path d="M282.734 40.554c0-8.376 6.966-15.165 15.56-15.165 4.126 0 8.084 1.597 11.001 4.441 2.918 2.844 4.558 6.702 4.558 10.724 0 8.376-6.966 15.165-15.56 15.165-8.593 0-15.559-6.79-15.559-15.165z" stroke-width="2" stroke="#000"/><path stroke="#000" stroke-width=".8" d="M57.508 64.144h188.008v45.712H57.508zM57.877 134.186h188.008v45.712H57.877zM57.877 202.017h188.008v45.712H57.877zM57.877 269.847h188.008v45.712H57.877z"/><ellipse cx="282.381" cy="86.631" rx="16.22" ry="15.852" stroke="#000" stroke-width=".8"/><ellipse cx="281.644" cy="155.568" rx="16.22" ry="15.852" stroke="#000" stroke-width=".8"/><ellipse cx="282.381" cy="222.661" rx="16.22" ry="15.852" stroke="#000" stroke-width=".8"/><ellipse cx="282.381" cy="292.703" rx="16.22" ry="15.852" stroke="#000" stroke-width=".8"/></svg>