<svg xmlns="http://www.w3.org/2000/svg" viewBox="0 0 348 348" fill="none"><path d="M5 5.8h337v337.6H5z" stroke-width="2" stroke="#000"/><path d="M282.7 40.6c0-8.4 7-15.2 15.6-15.2 4.1 0 8 1.6 11 4.4a15 15 0 0 1 4.6 10.8c0 8.3-7 15.1-15.6 15.1s-15.6-6.8-15.6-15.1z" stroke-width="2" stroke="#000"/><path d="M17 18h101v101H17z" fill="#000"/><path d="M17 150h181v181H17z" fill="#000"/><path d="M53 22h29v29H53zm32 0h29v29H85zm-64 0h29v29H21zm32 32h29v29H53zm32 0h29v29H85zm-64 0h29v29H21zm32 32h29v29H53zm32 0h29v29H85zm-64 0h29v29H21z" fill="#fff"/><path d="M25 158h50v50H25zm58 0h50v50H83zm58 0h50v50h-50zM25 216h50v50H25zm58 0h50v50H83zm58 0h50v50h-50zM25 274h50v50H25zm58 0h50v50H83zm58 0h50v50h-50z" fill="#fff"/><path d="M214 223h50v50h-50z" fill="#00f" stroke="#000" stroke-width="2"/><path d="M214 165h50v50h-50z" fill="#ff0" stroke="#000" stroke-width="2"/><path d="M214 107h50v50h-50z" fill="red" stroke="#000" stroke-width="2"/><path d="M272 223h50v50h-50zm0-58h50v50h-50zm0-58h50v50h-50z" stroke="#000" stroke-width="2"/><circle cx="297" cy="132" r="19.1" fill="#fff" stroke="#000" stroke-width="1.7"/><path d="M323.5 215H264l29.8-51.5z" transform="matrix(.635 0 0 .7333 110.4 51.6)" fill="#fff" stroke="#000" stroke-width="2"/><path d="m-86.9 212.4-40.2-40.2L-87 132l40.2 40.2z" transform="matrix(.4802 0 0 .4802 338.7 165.3)" fill="#fff" stroke="#000" stroke-width="2"/><path d="M214.2 280.8h107.4v50H214.2z" fill="#000" stroke="#000" stroke-width="2.3"/><path d="M128.7 30.7h33.6v33.6h-33.6z" stroke="#000" stroke-width="1.3"/><path d="M323.5 215H264l29.8-51.5z" transform="matrix(.4274 0 0 .4935 20 -45.6)" fill="#000" stroke="#000" stroke-width="2"/><path d="M162.3 108.3h-33.6V74.7h33.6z" stroke="#000" stroke-width="1.3"/><path d="M323.5 215H264l29.8-51.5z" transform="matrix(-.4274 0 0 -.4935 271 184.8)" fill="#000" stroke="#000" stroke-width="2"/></svg>