<svg viewBox="0 0 348 348" fill="none" stroke-linecap="square" stroke-miterlimit="10" xmlns="http://www.w3.org/2000/svg"><clipPath id="a"><path d="M0 0h348v348H0V0z"/></clipPath><g clip-path="url(#a)"><path fill="#000" fill-opacity="0" d="M0 0h348v348H0z"/><path fill="#fff" d="M-6 0h348v347.969H-6z"/><path fill="#000" fill-opacity="0" d="M5.079 5.776h336.913v337.67H5.08z"/><path stroke="#000" stroke-width="2" stroke-linejoin="round" stroke-linecap="butt" d="M5.079 5.776h336.913v337.67H5.08z"/><path fill="#fff" d="M282.734 40.554c0-8.376 6.966-15.165 15.56-15.165 4.126 0 8.084 1.597 11.001 4.441 2.918 2.844 4.558 6.702 4.558 10.724 0 8.376-6.966 15.165-15.56 15.165-8.593 0-15.559-6.79-15.559-15.165z"/><path stroke="#000" stroke-width="2" stroke-linejoin="round" stroke-linecap="butt" d="M282.734 40.554c0-8.376 6.966-15.165 15.56-15.165 4.126 0 8.084 1.597 11.001 4.441 2.918 2.844 4.558 6.702 4.558 10.724 0 8.376-6.966 15.165-15.56 15.165-8.593 0-15.559-6.79-15.559-15.165z"/></g><path stroke="#000" stroke-width="3" d="M65 80h220v165H65z"/><path stroke="#000" stroke-width="3" d="M75 90h200v145H75z"/><circle cx="175" cy="290" r="20" stroke="#000" stroke-width="3"/><path d="M112 305l20-30H92l20 30m126 0l20-30h-40l20 30" stroke="#000" stroke-width="3"/><path d="M175 112.5h50a25 25 0 0025 25v50a25 25 0 00-25 25h-75a50 50 0 010-100h25" stroke="#000" stroke-width="10"/></svg>