<svg xmlns="http://www.w3.org/2000/svg" fill="none" stroke-linecap="square" stroke-miterlimit="10" viewBox="0 0 348 348"><defs><marker id="b" orient="auto" overflow="visible"><path fill="#fff" fill-rule="evenodd" stroke="#fcfcfc" stroke-width="1.1" d="m-10 0-4 4L0 0l-14-4 4 4z"/></marker></defs><clipPath id="a"><path d="M0 0h348v348H0V0z"/></clipPath><g clip-path="url(#a)"><path d="M0 0h348v348H0z"/><path fill="#fff" d="M-6 0h348v348H-6z"/><path d="M5 5.8h337v337.6H5z"/><path stroke="#000" stroke-linecap="butt" stroke-linejoin="round" stroke-width="2" d="M5 5.8h337v337.6H5z"/><path fill="#fff" d="M282.7 40.6c0-8.4 7-15.2 15.6-15.2 4.1 0 8 1.6 11 4.4a15 15 0 0 1 4.6 10.8c0 8.3-7 15.1-15.6 15.1s-15.6-6.8-15.6-15.1z"/><path stroke="#000" stroke-linecap="butt" stroke-linejoin="round" stroke-width="2" d="M282.7 40.6c0-8.4 7-15.2 15.6-15.2 4.1 0 8 1.6 11 4.4a15 15 0 0 1 4.6 10.8c0 8.3-7 15.1-15.6 15.1s-15.6-6.8-15.6-15.1z"/></g><path stroke="#000" stroke-width=".8" d="M38.4 38.7h34.2v34.2H38.4z" paint-order="stroke fill markers"/><path fill="#000" stroke="#000" stroke-width=".8" d="M72.6 38.7H107v34.2H72.6zm34.3 0H141v34.2h-34zm34.2 0h34.3v34.2H141z" paint-order="stroke fill markers"/><path stroke="#000" stroke-width=".8" d="M175.4 38.7h34.2v34.2h-34.2z" paint-order="stroke fill markers"/><path fill="#000" stroke="#000" stroke-width=".8" d="M38.4 73h34.2v34.2H38.4z" paint-order="stroke fill markers"/><path stroke="#000" stroke-width=".8" d="M72.6 73H107v34.2H72.6zm34.3 0H141v34.2h-34zm34.2 0h34.3v34.2H141z" paint-order="stroke fill markers"/><path fill="#000" stroke="#000" stroke-width=".8" d="M175.4 73h34.2v34.2h-34.2z" paint-order="stroke fill markers"/><path stroke="#000" stroke-width=".8" d="M38.4 107.2h34.2v34.2H38.4zm34.2 0H107v34.2H72.6zm34.3 0H141v34.2h-34zm34.2 0h34.3v34.2H141z" paint-order="stroke fill markers"/><path fill="#000" stroke="#000" stroke-width=".8" d="M175.4 107.2h34.2v34.2h-34.2z" paint-order="stroke fill markers"/><path stroke="#000" stroke-width=".8" d="M38.4 141.4h34.2v34.2H38.4zm34.2 0H107v34.2H72.6zm34.3 0H141v34.2h-34z" paint-order="stroke fill markers"/><path fill="#000" stroke="#000" stroke-width=".8" d="M141.1 141.4h34.3v34.2H141z" paint-order="stroke fill markers"/><path stroke="#000" stroke-width=".8" d="M175.4 141.4h34.2v34.2h-34.2zm-137 34.2h34.2V210H38.4zm34.2 0H107V210H72.6z" paint-order="stroke fill markers"/><path fill="#000" stroke="#000" stroke-width=".8" d="M106.9 175.6H141V210h-34z" paint-order="stroke fill markers"/><path stroke="#000" stroke-width=".8" d="M141.1 175.6h34.3V210H141zm34.3 0h34.2V210h-34.2zM38.4 210h34.2v34H38.4zm34.2 0H107v34H72.6z" paint-order="stroke fill markers"/><path fill="#000" stroke="#000" stroke-width=".8" d="M106.9 209.9H141V244h-34z" paint-order="stroke fill markers"/><path stroke="#000" stroke-width=".8" d="M141.1 209.9h34.3V244H141zm34.3 0h34.2V244h-34.2zM38.4 244h34.2v34.3H38.4zm34.2 0H107v34.3H72.6zm34.3 0H141v34.3h-34zm34.2 0h34.3v34.3H141zm34.3 0h34.2v34.3h-34.2zm-137 34.3h34.2v34.2H38.4zm34.2 0H107v34.2H72.6z" paint-order="stroke fill markers"/><path fill="#000" stroke="#000" stroke-width=".8" d="M106.9 278.4H141v34.2h-34z" paint-order="stroke fill markers"/><path stroke="#000" stroke-width=".8" d="M141.1 278.4h34.3v34.2H141zm34.3 0h34.2v34.2h-34.2z" paint-order="stroke fill markers"/><path fill="#000" stroke="#000" stroke-width="1.5" d="M238.8 70.8h68.4v68.4h-68.4z" paint-order="stroke fill markers"/><path fill="#000" stroke="#000" stroke-width="1.1" d="M238.5 138.5h69v34h-69z" paint-order="stroke fill markers"/><path stroke="#000" stroke-width="1.1" d="M238.5 210.5h69v34h-69zm0 34h69v33.9h-69z" paint-order="stroke fill markers"/><path fill="#000" d="M256 232.7q1.3 1.1 1.3 1.6l-.2.4q-.4.4-.9.4-.6 0-1.2-.5-2-1.5-3.7-2.3-2.5-1.3-3.9-1.5-.3 0-.6-.4l-.8.1h-.5q.4 2.8.4 4.6v1q0 1.9-.7 1.9-.4 0-.9-.6-.4-.6-.5-1.6l-.2-2.5-.5-4-.4-2.5-.4-2.4-.2-1-.1-.7q0-1.1 1-1.3h.5q.8-1.3 2.5-2 2.1-.7 3.8-.7h.5q2.1.1 3.5 1 .8.6 1.3 1.6.6 1 .6 2v.2q-.1 2-1.9 3.6-1 .9-2.8 1.8l-.8.4 2 .9q2.4 1.2 3.8 2.4zm-10.8-4 1.5-.5q2.1-.6 3.6-1.3 3-1.4 3.1-3.2v-.3q0-1-.6-1.6-.6-.6-1.8-.8l-1.3-.2q-1 0-2.2.3l-3 1.3-.3.2v.2q.8 3.8 1 5.8zm23.2 4.1q.8-.4 1.1-.4h.3l.1.4q0 .5-.5 1.1-1.2 1.5-3.5 2l-1.7.2h-.6q-1-.1-1.8-.4-.5-.1-1-.5-.5-.3-.9-.8-1.6-1.7-1.7-4.4 0-1.4.4-2.5.4-1.5 1.3-2.4 1.7-1.8 4-1.8l1 .1q1.5.3 2.5 1.4.6.9.6 1.8l-.2 1q-.5 1.4-2.1 2.9l-1.4 1.1q-1.7 1.3-2.8 1.4l.2.2q.3.3 1 .5.6.3 1.7.3 1.7-.1 4-1.2zm-8-3.6v.6q0 1 .3 1.8l2-1.5 1.7-1.4q1.3-1.1 1.4-1.9 0-.5-.3-.8-.3-.4-1-.5h-.5q-1.4 0-2.4.9-1 .8-1.2 2.8zm19.5 1q1.2.6 1.7 1.6.3.4.3 1 0 .7-.3 1.2-.3.6-1 1.2l-1 .6q-2 .8-4.5 1-1.3 0-1.3-.3 0-.5 1-1l3-1.2 1.4-.7q.4-.2.5-.6.1-.2-.1-.4-.3-.4-1-.4l-1.6-.1h-1.5q-1.7 0-3-.5-1.5-.7-2-2.2l-.1-1.2.2-1.4q.3-1 1.3-2l1.6-1.1q1.2-.6 2.9-1l1.5-.2h.3q.9 0 1.5.6.4.4.6.9l.2 1v.2q-.1.7-.7.8-.6.1-.9-.4-.5-.9-.8-1h-.2l-1.3.2q-1.3.3-2.3 1-1.4.8-1.7 1.8-.2.7 0 1.2t.6.7q.7.5 3 .5h1.8q1.3 0 2 .3zm13.4 2.6 1-.4h.4v.4q0 .5-.4 1.1-1.2 1.5-3.6 2l-1.7.2h-.6q-1-.1-1.7-.4-.5-.1-1-.5-.6-.3-1-.8-1.5-1.7-1.6-4.4 0-1.4.3-2.5.4-1.5 1.4-2.4 1.6-1.8 4-1.8l1 .1q1.5.3 2.4 1.4.6.9.6 1.8l-.1 1q-.6 1.4-2.2 2.9l-1.3 1.1q-1.8 1.3-2.9 1.4l.3.2q.3.3.9.5.6.3 1.8.3 1.7-.1 4-1.2zm-8-3.6v.6q0 1 .3 1.8l2-1.5 1.7-1.4q1.3-1.1 1.3-1.9 0-.5-.2-.8-.3-.4-1.1-.5h-.4q-1.4 0-2.4.9-1 .8-1.2 2.8zm17.4-7.5q1 .2 1.3.4.3.1.3.5v.2q-.3 1-1.4 1h-.2l-2.2-.2.1 2.2q.2 4.8.7 7.4 0 .7.5 2.2v.3l-.1.1v.3l-.3.4q-.3.1-.8-.2-.8-.5-1.2-2l-.6-3.3-.3-5-.1-2.2q-.5 0-1.2.4-.5.2-.6.5-.2.2-.6.2h-.8q-.8-.2-.8-.6 0-.5.4-.9.6-.8 1.6-1.2.9-.4 2-.6V219q0-1.8 1-1.8h.2q.6 0 .7.4.2.3.2 1.4v2.5q1.2 0 2.2.2z" aria-label="Reset"/><path fill="#fff" d="M275.5 156q.5 3.8.7 7.4v1.7q0 1.7-.5 1.7t-1-.6q-.3-.7-.5-2-.4-4.9-.8-7.7l-.4-2.4-.2-1-.3-.1-.1.2q-.7 1.3-1.6 1.3h-.3q-.7-.3-.7-.8t.6-1.5l.4-.5v-.2l.3-.2.5-.5q.6-.4 1.4-.5 1 0 1.7 1.7v.2l.1.1v.3l.3 1.1.4 2.3z" aria-label="1"/><path fill="#fff" stroke="#fcfcfc" stroke-linecap="butt" stroke-width=".9" marker-end="url(#b)" d="M247 102.5h50.7"/><path stroke="#000" stroke-width="1.1" d="M238.5 278.4h69v34h-69z" paint-order="stroke fill markers"/><path fill="#000" d="M249.7 299q.7.4 1 .8.6.5.7 1.3v.3q0 1-.8 2-1 1-2.5 1.4l-1.6.2q-1.1 0-2-.4-1.2-.5-1.8-1.6-.5-.8-.5-1.3 0-.3.2-.3h.1q.2 0 1.1.7 1.3 1 2.7 1h.3q.9 0 1.6-.4.7-.4 1-.8l.3-.4v-.2q-.2-.4-1.3-.7l-2-.5-.7-.2-.6-.2-.5-.2-.7-.2-.6-.2-.6-.4-.6-.4-.5-.5q-1.1-1-1.3-2.7l-.1-.9q0-.8.3-1.8.7-2.4 3-3.8 1.6-1 3.5-1 1 0 2.1.4 1.3.4 2 1.6.3.7.3 1.4t-.5.9q-.6 0-1-.5l-.2-.4-.5-.7-.5-.4q-1-.3-1.8-.3h-.1q-1.4 0-2.6.9-1.4 1-1.8 2.6l-.2 1.2v.5q.2 1 .6 1.5.9 1 3.2 1.6l1.7.5q1.4.3 2.2.7zm12.4-1.5q.1 2.4.5 4.1l.2.8.1.4-.2.6q-.2.4-.8.3-.3-.1-.6-.5t-.3-.7l-1 .7-.3.2q-.3 0-.5.2l-.6.2-.7.2-.8.1h-.3q-1.4 0-2.3-.5l-.6-.3-.6-.6-.4-.7-.3-.6q-.4-1.7-.4-3.8v-3.4q.3-1.7 1.3-1.7.8.2.8 1v.8q-.2 1-.2 2.7 0 2.4.3 3.6l.1.4.2.3.1.2h.1v.1l.2.1q.6.4 1.4.5h.2q.8 0 2-.4l1-.5.9-.4q-.4-1.6-.4-3.2l-.1-3.1v-1.4q0-1.1 1-1.1h.2q.5 0 .6.2.2.2.2.6v4.6zm11-4.6q.8 1.1.8 3v.2q-.2 1.8-.8 3-.6 1.2-1.7 2.2l-2.7 1.8q-.9.4-1.5.4l-.6-.1q0 .3-.4.3-1 0-1.3-2.1l-.2-2.4-.4-3.7-.4-2.5-.3-2.2-.2-1-.1-.7q0-1 .8-1.1h.4q.3 0 .5.2l.2 1 .7 4.2.6-.7 1.3-.8q1-.5 2.2-.5h.2q.8 0 1.5.3.9.3 1.4 1.2zm-1.2 3.3v-.4q0-1-.2-1.6-.3-.6-1-.9h-1.5l-1 .5-.8.5-.6.7-.4.5-.1.2.5 5v1.1l.4-.2.5-.2q1.5-.7 2.6-1.7 1.5-1.4 1.6-3.5zm18-2.4q.6 1 1 2.6.5 1.7.5 3.6 0 2-.3 3.2-.2.7-.7.7l-.3-.2q-.2-.1-.3-.5-.3-.9-.3-2.4 0-1.7-.3-3.3-.2-1.4-.7-2.3-.6-1.2-1.4-1.4h-.7q-.6 0-1 .4-.5.5-1 1.8l-.4 2.9v1.1q0 2.9-.7 2.9-.9-.1-1.1-2.1l-.3-3.4-.6-2q-.4-1-1-1.2l-.4-.1q-.6 0-1 .3-.6.5-.9 1.3-.3 1.1-.3 1.7v.4q.3 2.2.3 3.9 0 1.1-.2 1.5 0 .4-.5.4-.4 0-.8-.4-.3-.4-.4-1l-.4-4.5q-.4-3-.7-4l-.1-.5q0-.7.6-1h.5q.6 0 .8 1l.1.3v.2q.4-.5 1-.8.5-.5 1.3-.6h1.5q.8.2 1.4.9l.8 1.1v.2q.5-1 1.1-1.7l.7-.6 1-.3h1.6q1.7.3 2.7 2zm5.4 4q0 1.7.5 3.8l.1.7.2.4-.3.6q-.2.5-.8.3-.6-.2-1-1.1-.5-1.5-.6-4.5-.2-1.9-.2-4.1v-.2q0-1 1-1 .6 0 .8.3l.1.8.2 4zm-1.6-6.4q-.7-.3-.7-1 0-.3.3-.7.3-.4.8-.4.4 0 .8.3.5.4.5.9 0 .4-.3.7-.3.3-.9.3l-.5-.1zm10.4-.9q1 .2 1.2.4.3.1.3.4v.2q-.2 1-1.3 1h-.1l-2-.2.1 1.9q.2 4.4.6 6.7 0 .6.4 2v.6l-.3.3q-.3.2-.7-.1-.8-.5-1.1-1.8l-.5-3q-.3-2.3-.3-4.4l-.1-2q-.5 0-1 .3-.6.2-.7.5l-.4.1h-.8q-.7-.1-.7-.5t.4-.8q.5-.7 1.4-1.1.8-.4 1.7-.5V288q0-1.6 1-1.6h.1q.6 0 .7.3.2.3.2 1.3v2.2l2 .2z" aria-label="Submit"/><path fill="#000" d="m251.1 266.7 1 .1q.3 0 .5.2t.2.5q0 1.2-1.3 1.3l-3.6.2q-2.3.2-3.3.5-.6.2-1-.3h-.2q-.8-.5-1.2-1.8-.6-1.8-.9-7l-.1-4v-2.2h-.1q-.8 0-1-1l-.1-.5q0-.3.2-.4.2-.2.7-.3 2.3-.6 4.5-.7h1.6l2.8.1 1.5.4q.5.2.5.5v.1q-.3 1.2-1.6 1.2h-.2q-1.2-.2-3-.2h-1.4l-2.3.3v.1l.2 6.3v1q1-.3 3-.3 2.7 0 4.4.4 1 .1 1.2.3.4.1.4.5v.2q-.2 1-1.3 1h-1.7l-2.3-.2H245q-.7.1-1 .3h-.3l.4 3v.5l.2.5 3.3-.5h3zm19.1-9.4q.7 1 1.1 2.8.4 1.9.4 4 0 2.3-.2 3.5-.3.8-.8.8l-.3-.1q-.2-.2-.3-.7-.3-.9-.4-2.6 0-2-.3-3.6-.2-1.6-.7-2.6-.7-1.3-1.6-1.5l-.7-.1q-.7 0-1.2.5-.5.6-.9 2l-.5 3.2v1.3q0 3.2-.8 3.2-1 0-1.2-2.3-.1-2.7-.3-3.7l-.6-2.2q-.5-1.2-1.1-1.4l-.5-.1q-.6 0-1 .3-.7.5-1 1.5l-.3 1.8v.4q.3 2.4.3 4.3 0 1.3-.2 1.7-.1.5-.5.5-.5 0-.9-.5-.4-.4-.4-1.2 0-1-.5-4.9-.5-3.4-.8-4.5v-.6q0-.7.6-1l.5-.1q.7 0 1 1v.7l1-.9q.6-.5 1.4-.6l.9-.1.9.1q.7.2 1.4 1l.9 1.2v.2q.5-1.2 1.2-2l.8-.5q.4-.3 1-.4h1.8q1.7.3 2.8 2.2zm11.6-3.4q1.5.7 2.4 2.7.6 1.4.6 2.9 0 2-1 3.6-1.2 2-3.3 3-.8.5-2 .9l-1.5.2h-.5l.2 1.5q.2 1 .1 1.2l.3 2.5q0 .6-.4.8h-.2q-.5 0-1-.6-.4-.6-.6-1.7-.5-2.3-1-7.4l-.7-7v-.5q0-1.4 1-1.5h.2q.3 0 .5.2l.2.4.1.8q1.4-1.6 3.2-2.2l1.6-.2q.9 0 1.8.4zm-.2 8.7q1-1.2 1-3.2 0-.9-.3-1.8-.5-1.4-1.5-1.8l-.4-.1h-1.1l-.5.1q-1.1.5-2.2 1.8l-1 1.2.7 7.2.1-.1.2-.1 1-.5q.6-.4 1.3-.6l.5-.3.7-.4.3-.2.4-.3.5-.5.3-.4zm11.3-9 1.2.4q.4.2.4.5v.1q-.3 1.1-1.4 1.1h-.2l-2.1-.2v2.2q.3 4.9.7 7.4 0 .7.5 2.3v.2l-.1.2v.2l-.3.4q-.3.1-.8-.2-.8-.5-1.1-2-.3-.8-.6-3.3l-.3-5-.1-2.2-1.1.4q-.6.3-.7.5-.1.2-.5.2h-.9q-.7-.2-.7-.6 0-.4.4-.9.6-.7 1.6-1.2.8-.4 1.8-.5v-2.7q0-1.8 1.1-1.8h.1q.7 0 .8.4l.1 1.4v2.5q1.2 0 2.2.2zm11.3 1.8h.3q.8 0 1 2.2.5 3.6.5 6.2l-.2 3.4q-.2 1.6-.7 3l-.2.4-.2.4-.5.7-.5.6-.6.4q-1.7 1.3-3.7 1.3h-.4q-2.3-.3-3.6-1.5l-.5-.8q-.1-.4.1-.5h1.2l.5.2.8.2.9.2h.9q1 0 2-.4l.2-.2.3-.1.5-.4.3-.4q.2-.1.3-.5.5-.9.8-2.7v-.4q-.9.8-2 1.1-.8.3-1.6.3l-1.2-.1q-1-.1-1.7-.7-.6-.5-1-1.5-.8-1.8-1-5.4 0-2 .2-2.9.1-2 1.3-2 .9 0 .9 1v1l-.2 2.6v.5q0 2.7.6 4.2.4.8 1 1l1.2.2h.4q1.2-.2 2-1.2.7-.6 1.3-1.7l-.2-2.2q0-1-.2-1.9v-.9l-.1-1q0-1.5.8-1.7z" aria-label="Empty"/></svg>