<svg xmlns="http://www.w3.org/2000/svg" viewBox="0 0 348 348" fill="none"><path d="M5.079 5.776h336.913v337.67H5.08z" stroke-width="2" stroke="#000"/><path d="M282.734 40.554c0-8.376 6.966-15.165 15.56-15.165 4.126 0 8.084 1.597 11.001 4.441 2.918 2.844 4.558 6.702 4.558 10.724 0 8.376-6.966 15.165-15.56 15.165-8.593 0-15.559-6.79-15.559-15.165z" stroke-width="2" stroke="#000"/><path d="M30 28v40h170V28z" fill="#000" stroke="#000"/><path d="M50 128v40h250v-40z" fill="#000" stroke="#000" stroke-width="1.021"/><path d="M50 218v30h100v-30zm0 60v30h100v-30zm250-60H200v30h100zm-100 60v30h100v-30z" stroke="#000"/></svg>