<svg xmlns="http://www.w3.org/2000/svg" viewBox="0 0 600 600"><path fill="none" stroke="#000" stroke-width="5.4" d="M5.3 5.3H595V595H5.3z"/><path fill="none" stroke="#000" stroke-linejoin="round" stroke-width="4" d="M396.6 34.9h175.2v87.6H396.7z"/><path d="M296.1 93h-8.5v16.2h-7.4V93h-27.5v-8.9l27.8-32.3h7v35h8.6zm-16-6.2V61L258 87zm64.9-6.4q0 15.5-4.9 22.8-4.8 7.2-15 7.2-10.3 0-15-7.4-4.8-7.3-4.8-22.5 0-15.3 4.8-22.6 4.8-7.3 15-7.3 10.4 0 15.1 7.4 4.8 7.4 4.8 22.4zM334.9 98q1.3-3 1.8-7.3.5-4.2.5-10.2 0-5.8-.5-10.1-.5-4.4-1.9-7.4-1.3-3-3.7-4.4-2.3-1.5-6-1.5-3.6 0-6 1.5-2.3 1.5-3.7 4.5-1.3 2.9-1.8 7.4-.5 4.6-.5 10.1 0 6 .4 10 .5 4.1 1.8 7.3 1.3 3 3.6 4.6 2.4 1.6 6.2 1.6 3.7 0 6-1.5 2.5-1.5 3.8-4.6z" aria-label="40" style="-inkscape-font-specification:sans-serif"/><path fill="none" stroke="#000" stroke-linecap="round" stroke-linejoin="round" stroke-width="4" d="M396.8 122.3 435 35m3.7 87.3L476.9 35m3.7 87.3L518.8 35m-291.1-.5h144.6v89.4H227.7zm295.2 87.8L561.1 35"/><path fill="none" stroke="#000" stroke-linejoin="round" stroke-width="4" d="M30 35.8h175.2v87.6H30z"/><path fill="none" stroke="#000" stroke-linecap="round" stroke-linejoin="round" stroke-width="4" d="M30.1 123.2 68.3 36m3.7 87.3L110.2 36m3.7 87.3L152.1 36m4.1 87.3L194.4 36"/><rect width="552.3" height="368.4" x="23.1" y="166.6" fill="none" stroke="#000" stroke-width="4" ry="26.3"/><path fill="none" stroke="#000" stroke-width="4" d="m204.7 485.2 30.8-144.8 132.3 4.7 17.1 165s-98.6 45.6-180.2-24.9z"/><path fill="none" stroke="#000" stroke-width="4" d="m227.3 388.2 28.2-1.9 15-32 14.4 28 31 7-24.8 23.5 12.7 39.4-32.6-18-31 15.7 10.4-32.9zm8.3-49.7-20.7-71.9 81.7 5.2m-51.6-4.3s28.9-83.7 99.3-64.4"/><path fill="none" stroke="#000" stroke-width="4" d="M342.6 202.7c47.7 31 31.6 76.6 31.6 76.6l-8.3 64.5m-103.6-113s-23.2-33-7.6-34c0 0 20.7-.7 32.2 12.4"/><path fill="none" stroke="#000" stroke-width="4" d="m357.9 214.3 5.6-8.6-25.9-9s-1.1-12.8 16.6-15.2l9.8 23.9 31.5 11.4s-4.7 17.7-17.7 13.2L365 206m-82 316.3-2.9 11.1m28-10.7v11.8m26.5-11.7 1 11.6"/><path fill="none" stroke="#000" d="M279.7 240c-1.5-14-5.6-7.6-5.6-7.6s7-18.6 9.4 11.7c0 0-1.4 17.9-5.6 17"/><path fill="none" stroke="#000" d="M278.4 261.3s-9.8-10.3-2-22.6"/><path fill="none" stroke="#000" d="M279.9 240.6s-1.2-2.8-3.5-1.6"/><ellipse cx="276.8" cy="243.9" fill="none" stroke="#000" rx="1.8" ry="3.6"/><path fill="none" stroke="#000" d="M298.5 240c-1.5-14-5.6-7.6-5.6-7.6s7.1-18.6 9.5 11.7c0 0-1.5 17.9-5.7 17"/><path fill="none" stroke="#000" d="M297.2 261.3s-9.8-10.3-2-22.6"/><path fill="none" stroke="#000" d="M298.7 240.6s-1.2-2.8-3.5-1.6"/><ellipse cx="295.6" cy="243.9" fill="none" stroke="#000" rx="1.8" ry="3.6"/><path fill="none" stroke="#000" stroke-width="4" d="M293 207s74.4 48.3 81.4 71.4"/><path stroke="#000" stroke-width=".8" d="M277.4 259a17.5 17.5 0 0 1-3.3-9.8v-3.3l.2-.8.3.9c.9 2.4 2.9 2.8 4 .8.3-.7.4-1 .4-2.9 0-1.7 0-2.1-.4-2.8-.5-1-1-1.4-1.8-1.4-.3 0-.4 0-.2-.2l1-.1c.4 0 .7.1 1.2.7.6.7.7.8 1.1.6.5-.2.5-.4 0-4-.8-4.1-2-6.4-3.7-6.4-.5 0-.5 0-.2-.5 1.1-1.7 2.2-2.6 2.9-2.4 1.4.5 3 5.6 3.6 12.7l.4 3.5c.1.7-.5 5.5-1 8.3-.8 4.2-2 7.7-3 8.3-.5.3-.5.2-1.5-1.1zm18.8 0a18.3 18.3 0 0 1-3.3-11.3c0-1.8.4-3.3.4-2.4 0 .8.7 2 1.3 2.4 1.6 1.4 3.3-.6 3.3-3.8 0-2.3-.7-3.8-2-4.2l-.6-.1.6-.2c.7-.2 1.4.1 1.9.8.3.5.4.6.8.5l.5-.1c.2-.2-.5-4.5-.9-6-.7-2.6-1.9-4.3-3.1-4.3h-.4l.7-1.2c.8-1.2 1.7-1.8 2.3-1.7 1.6.6 3 6 3.9 14.6a53.3 53.3 0 0 1-2 14.7c-.7 1.8-1.6 3.5-2.2 3.6-.2 0-.6-.4-1.2-1.4z"/><rect width="225" height="43.8" x="50" y="458.1" fill="#fff" fill-rule="evenodd" stroke="#000" stroke-width="3" ry="12.1"/><rect width="249.4" height="46.5" x="312.8" y="456.8" fill="#fff" fill-opacity=".9" fill-rule="evenodd" stroke="#000" stroke-width="3" ry="12.8"/><path d="m75.5 483 5.6-.3q.2 1.3.7 2 1 1.2 2.6 1.2 1.3 0 2-.6.6-.6.6-1.4 0-.7-.6-1.3-.7-.6-3-1-3.9-1-5.5-2.4-1.7-1.4-1.7-3.7 0-1.4.9-2.7.8-1.3 2.5-2 1.7-.8 4.7-.8 3.6 0 5.5 1.3 2 1.4 2.3 4.3l-5.5.4q-.2-1.3-1-1.9-.7-.6-1.9-.6-1 0-1.5.5-.6.4-.6 1 0 .5.5.8.4.4 2 .7 3.8.9 5.4 1.7 1.7.9 2.5 2.1.7 1.3.7 2.8 0 1.8-1 3.4t-2.8 2.3q-1.8.8-4.6.8-4.8 0-6.7-1.8-1.9-2-2.1-4.8zm20-12.7h5.3v3.6h-5.3zm0 5.2h5.3v13.8h-5.3zm23.1-5.2v19h-4.9v-2q-1 1.3-1.9 1.7-1.1.6-2.5.6-2.8 0-4.3-2.1-1.5-2.2-1.5-5.2 0-3.4 1.6-5.2 1.7-1.9 4.2-1.9 1.2 0 2.2.5 1 .4 1.8 1.2v-6.6zm-5.2 12q0-1.5-.7-2.3-.7-.8-1.8-.8-.9 0-1.5.7t-.6 2.6q0 1.7.6 2.5.6.7 1.6.7t1.7-.7q.6-.8.6-2.6zm17.7-12h5.8v6.7h6.4v-6.7h6v19h-6v-7.7H137v7.7h-5.8zm21 12.2q0-3.2 2.2-5.2 2-2 5.7-2 4.1 0 6.2 2.3 1.7 2 1.7 4.8 0 3.2-2 5.2-2.2 2-5.9 2-3.3 0-5.4-1.7-2.5-2-2.5-5.4zm5.3 0q0 1.8.7 2.7.8.9 2 .9 1 0 1.8-1 .7-.8.7-2.7 0-1.8-.7-2.7-.7-.8-1.8-.8-1.2 0-2 .9-.7.8-.7 2.6zm19-7h2.4v4h-2.5v9.8H171v-9.9h-2v-3.8h2v-.7l.2-1.8q.2-1 .7-1.7.5-.6 1.4-1 1-.4 2.6-.4 1.4 0 4 .3l-.5 3.2-1.5-.1q-.7 0-1 .2-.4.2-.5.7v1.2zm11 0h2.4v4h-2.5v9.8H182v-9.9h-2v-3.8h2v-.7l.2-1.8q.2-1 .7-1.7.5-.6 1.4-1 .9-.4 2.6-.4 1.4 0 4 .3l-.5 3.2-1.6-.1q-.7 0-1 .2-.3.2-.4.7v1.2zm4.4 0h5v2q1-1.2 2-1.7t2.7-.6q1.6 0 2.6.6t1.5 1.8q1.3-1.4 2.3-1.9 1-.5 2.5-.5 2.3 0 3.5 1.4 1.2 1.3 1.2 4v8.7H210v-7.8q0-1-.4-1.4-.5-.7-1.3-.7-1 0-1.5.6-.6.7-.6 2.2v7.1h-5.3v-8.8q-.3-.5-.7-.8-.4-.4-1-.4-.8 0-1.4.7-.6.7-.6 2.3v7h-5.3zm31.3 4.5-5-.5q.2-1.3.8-2.1.5-.8 1.5-1.3.8-.4 2-.6 1.3-.3 2.8-.3 2.3 0 3.8.3 1.4.3 2.4 1.1.6.6 1 1.7.4 1 .4 2v6l.1 1.6.6 1.4h-5q-.3-.5-.3-.8l-.2-.9q-1 1-2 1.4-1.5.6-3.3.6-2.5 0-3.8-1.1-1.3-1.2-1.3-2.8 0-1.6 1-2.6.9-1 3.4-1.5 3-.6 3.8-.9l1.9-.6q0-1-.4-1.3-.4-.4-1.5-.4-1.2 0-1.9.4-.5.3-.8 1.2zm4.6 2.8-2.3.7q-1.6.4-2 .8-.5.4-.5 1t.4 1q.5.4 1.3.4 1 0 1.7-.4.7-.5 1-1 .4-.7.4-1.7zm8.3-7.3h4.9v2.3q1-1.4 2.2-2 1.1-.6 2.8-.6 2.1 0 3.4 1.3 1.2 1.3 1.2 4v8.8h-5.3v-7.6q0-1.3-.5-1.8-.4-.5-1.3-.5-1 0-1.6.7-.6.7-.6 2.6v6.6H236z" aria-label="Sid Hoffman"/><path d="m343 482.5 5-.3q.2 1.3.7 1.9.8 1 2.4 1 1.1 0 1.7-.5.6-.5.6-1.2t-.5-1.2q-.6-.5-2.8-1-3.5-.8-5-2.1t-1.5-3.3q0-1.3.8-2.5t2.3-1.9q1.6-.6 4.2-.6 3.3 0 5 1.2 1.8 1.2 2.1 3.9l-5 .3q-.2-1.2-.8-1.7-.7-.5-1.8-.5-1 0-1.4.4-.4.3-.4.9 0 .4.3.7.4.4 1.8.7 3.5.7 5 1.5t2.2 1.9q.7 1.1.7 2.5 0 1.7-1 3-.8 1.5-2.5 2.2-1.6.7-4.1.7-4.4 0-6-1.7-1.8-1.7-2-4.3zm18.1-11.5h4.8v3.3H361zm0 4.8h4.8v12.4H361zm21-4.8v17.2h-4.5v-1.8q-1 1.2-1.7 1.6-1 .5-2.3.5-2.6 0-4-2-1.3-1.9-1.3-4.6 0-3.1 1.5-4.8 1.5-1.6 3.8-1.6 1.1 0 2 .4 1 .3 1.6 1V471zm-4.8 11q0-1.5-.7-2.2-.6-.7-1.5-.7t-1.4.6q-.6.7-.6 2.4 0 1.5.6 2.2.6.7 1.4.7 1 0 1.6-.7.6-.7.6-2.3zm16-11h13.1v3.7h-7.8v3h6.7v3.5h-6.7v7h-5.3zm14.9 4.8h4.5v2q.6-1.3 1.3-1.8.7-.5 1.7-.5t2.3.7l-1.5 3.3q-.8-.3-1.3-.3-1 0-1.5.8-.7 1-.7 4v4.2h-4.8zm24.8 7.4h-9.6q.2 1.1.7 1.7.6.8 1.8.8.7 0 1.3-.3l.8-.8 4.7.4q-1 1.9-2.6 2.7-1.5.8-4.4.8-2.4 0-3.8-.7-1.5-.7-2.4-2.2-1-1.5-1-3.6 0-2.9 2-4.7 1.8-1.8 5.1-1.8 2.7 0 4.2.8 1.6.8 2.4 2.3.8 1.6.8 4zm-4.9-2.3q-.1-1.4-.7-2-.6-.6-1.6-.6-1.1 0-1.8 1-.4.5-.6 1.6zm7-5.1h4.5v2q1-1.2 2-1.8 1-.5 2.5-.5 2 0 3.1 1.2t1.1 3.6v8h-4.8v-7q0-1.1-.4-1.6t-1.2-.5q-.9 0-1.4.7t-.5 2.3v6h-4.8zm25.4 7.6 4.5.5q-.4 1.4-1.2 2.4-.9 1-2.2 1.6-1.3.6-3.4.6-2 0-3.3-.4-1.3-.3-2.3-1.2t-1.4-1.9q-.6-1.1-.6-3t.7-3.1q.5-1 1.3-1.7.8-.8 1.7-1.1 1.4-.6 3.6-.6 3 0 4.6 1 1.6 1.2 2.3 3.3l-4.5.6q-.2-.8-.8-1.2-.5-.4-1.5-.4-1.2 0-2 .8-.6.9-.6 2.6 0 1.5.7 2.3.7.8 1.8.8 1 0 1.6-.5.7-.4 1-1.4zm6.3-12.4h4.8v6.4q1-1 1.9-1.5 1-.4 2.3-.4 2 0 3 1.2 1.2 1.2 1.2 3.6v8h-4.8v-7q0-1.1-.5-1.6-.4-.5-1.2-.5-.9 0-1.4.7-.5.6-.5 2.3v6h-4.8zm16 4.8h4.5v1.8q1-1.1 2-1.6.9-.5 2.3-.5 1.5 0 2.3.5 1 .5 1.5 1.6 1-1.2 2-1.7 1-.4 2.3-.4 2 0 3.1 1.2 1.2 1.2 1.2 3.7v7.8h-4.8v-7q0-1-.4-1.3-.4-.7-1.2-.7-.8 0-1.3.6-.5.7-.5 2v6.4H491v-6.8l-.1-1.1-.5-.8q-.4-.3-1-.3-.7 0-1.3.6-.5.6-.5 2v6.4h-4.8zm28.3 4-4.5-.5q.2-1.2.7-1.9.5-.6 1.4-1.1.7-.4 1.8-.6 1.2-.2 2.5-.2 2.2 0 3.5.2 1.3.3 2.1 1 .6.6 1 1.5.3 1 .3 1.9v5.5l.1 1.3.5 1.3h-4.4l-.4-.7-.1-.8q-1 .9-2 1.3-1.2.5-2.9.5-2.2 0-3.3-1-1.2-1-1.2-2.6 0-1.4.8-2.3.9-1 3.1-1.4l3.5-.7 1.7-.6q0-.9-.4-1.2-.3-.4-1.3-.4-1.1 0-1.7.4-.5.3-.8 1.1zm4.2 2.5-2 .6q-1.5.4-2 .8-.3.4-.3.9t.4.9q.4.3 1.1.3.8 0 1.5-.3.7-.4 1-1 .3-.5.3-1.4zm7.5-6.5h4.4v2q1-1.2 2-1.8 1-.5 2.5-.5 2 0 3.1 1.2 1.2 1.2 1.2 3.6v8h-4.8v-7q0-1.1-.5-1.6-.4-.5-1.2-.5-.8 0-1.4.7t-.5 2.3v6h-4.8z" aria-label="Sid Frenchman"/></svg>