<svg xmlns="http://www.w3.org/2000/svg" fill="none" width="512" height="512"><path d="m57.4 102.6 45.2-45.2M57.4 86.6l29.2-29.2M57.4 70.6l13.2-13.2m48 0-61.2 61.2m77.2-61.2-61.2 61.2m77.2-61.2-61.2 61.2M58 58h124v60H58Zm108.6-.6-61.2 61.2m77.2-45.2-45.2 45.2m45.2-29.2-29.2 29.2m29.2-13.2-13.2 13.2m13.2-61.2-61.2 61.2" stroke="#000" stroke-width="4"/><path d="M18 18h476v476H18Z" stroke="#000" stroke-width="4"/><path stroke="#000" stroke-width="4" d="M58 154h396v300H58zm271.4-51.4 45.2-45.2m-45.2 29.2 29.2-29.2m-29.2 13.2 13.2-13.2m48 0-61.2 61.2m77.2-61.2-61.2 61.2m77.2-61.2-61.2 61.2M330 58h124v60H330Zm108.6-.6-61.2 61.2m77.2-45.2-45.2 45.2m45.2-29.2-29.2 29.2m29.2-13.2-13.2 13.2m13.2-61.2-61.2 61.2"/><path fill="#000" fill-rule="evenodd" d="M208 56h96v64h-96z"/><path d="M228 88q0-7 1.4-11.2 1.5-4.2 4.3-6.5t7-2.3q3.2 0 5.6 1.3 2.4 1.2 4 3.6 1.5 2.4 2.4 5.9.8 3.4.8 9.2 0 7-1.4 11.2-1.4 4.2-4.2 6.5-2.8 2.3-7.1 2.3-5.7 0-9-4-3.8-5-3.8-16Zm5 0q0 9.7 2.2 12.9 2.3 3.1 5.6 3.1t5.5-3.2q2.3-3.2 2.3-12.8 0-9.7-2.3-12.8-2.2-3.2-5.6-3.2-3.3 0-5.3 2.8Q233 78.4 233 88zm25.5 0q0-7 1.4-11.2 1.4-4.2 4.2-6.5 2.8-2.3 7.1-2.3 3.2 0 5.6 1.3 2.3 1.2 3.9 3.6 1.5 2.4 2.4 5.9.9 3.4.9 9.2 0 7-1.4 11.2-1.4 4.2-4.3 6.5-2.8 2.3-7 2.3-5.7 0-9-4-3.8-5-3.8-16zm4.9 0q0 9.7 2.3 12.9 2.2 3.1 5.5 3.1t5.6-3.2Q279 97.6 279 88q0-9.7-2.3-12.8-2.3-3.2-5.6-3.2t-5.3 2.8q-2.5 3.6-2.5 13.2z" style="line-height:1;-inkscape-font-specification:Arial;text-align:center" font-weight="400" font-size="54.7" font-family="Arial" letter-spacing="0" word-spacing="0" text-anchor="middle" fill="#fff"/><path d="M243.8 339.5c-71-11-97.3-99-43.7-146.7 50-44.5 129.5-15.1 139.4 51.5a84.8 84.8 0 0 1-95.7 95.2zm28.6-3A82.4 82.4 0 0 0 333.9 230a82.1 82.1 0 1 0-136.2 83.8 82.8 82.8 0 0 0 48.7 24c4.4.6 21-.2 26-1.3zm-28.2-31.9c-12-1.5-12.5-2-13-12.8-.5-9.5-.5-9.5-3.3-13.6a60 60 0 0 1-9-34.9c.2-6.4.2-6.4 3.3-12.4 3.5-7.1 4.3-7.8 9.4-7.9 3.3 0 3.5-.2 5.5-3.2 2.4-3.5 5.8-4.3 9.6-2.3 1.3.7 1.3.7 3.1-1 2.7-2.6 3.8-3.2 5.7-3.2 3.5 0 6.4.8 7.7 2.2 1.3 1.2 1.3 1.2 2.8.2 1.3-1 2-1 5.6-1 4 0 4 0 5.2-2 3.4-5.5 4.3-6.1 8.7-5.7 4 .4 4 .4 3.7 6-.2 4.9-.2 4.9 1.7 9.7 2.8 6.6 2.8 7.3 1.2 12.3a91.5 91.5 0 0 0-2.4 10.6 62.8 62.8 0 0 1-14.7 29.8c-3 3.4-3 3.4-2.7 12.8.2 9.4.2 9.4-5.5 12.7-7.2 4.2-12.2 5-22.6 3.7zm6-4-.5-5.1a88 88 0 0 1-.5-9.2c0-2.8-.2-5-.4-5-.6 0-1 .8-.3 1 .8.3-3.1 2.8-5.5 3.5-3.5 1-6.2 1-6.8-.4-1.3-2.7-1.7-1.3-1.7 5.3 0 8.7-.3 8.3 7.2 9.7 7.1 1.4 8.6 1.4 8.6.2zm4.2.3c-.1-1.3-.8-2-.8-.9 0 .7.1 1.2.4 1.2.2 0 .4-.1.4-.3zm7.8-1.6c1.8-1 1.8-1 2-4.4l.4-8.5c.3-5 .3-5-2.2-5.3-3.4-.4-5-1.3-4.9-2.5.1-.6-.1-1-.5-1.1-1.2-.2-1.8 14-.8 19.1.9 5 1.5 5.3 6 2.7zm4.2-6c0-.5-.2-.1-.2 1 0 1 .1 1.5.2 1v-2zm-12.9-10c0-.2-.1-.2-.4 0-.2 0-.4.6-.4 1.1 0 1 .7 0 .8-1zm-6.6-4.5c2.7-1.4 2.7-1.4 3.5-.2 2.2 3 1.7-2-.7-8-2.3-5.3-2.3-5.3-1.6-9.3.9-5 .7-5.2-1.6-.6-2.3 4.8-3.3 5-1.9.2 1.2-4 1.2-4.2 0-4.5a14 14 0 0 1-3.6-2.6c-2.3-2.1-2.8-2.4-4.5-2.4-2.3 0-3.1-.6-5.4-3.9-1.6-2.4-1.6-2.4-5.3-2.5-5.1-.2-5.5.2-4.6 3.9l2 9.1c2.3 11 4.5 16 8.6 20 3 2.9 10.2 3.3 15.1.8zm24.4-5.6c3.1-2.2 7.8-8 10.2-13 4.3-8.7 9-28.2 7-29-1.5-.7-1.9-1.6-1.3-3 .4-.8.3-1-.4-1.3-.9-.4-.8-.5.9-.7l1.8-.5c0-.4-1.8-5-2.4-6.3a4.8 4.8 0 0 0-1.8-1.8c-1.1-.6-1.2-5.3 0-7.4.5-1.2-1.7-1-3.7.3-4.1 3-5.3 18-1.3 18 .9 0 2.7 1.1 2.7 1.7 0 .3-1 .4-2.4.4-3 0-4.4 2.8-4 8.4.3 3.1.3 3.4-.3 2.9l-.8-.4c-2 2.7-2 3.5-.4 4.8a28 28 0 0 1 6.2 7.5c.6 2 .3 2.4-1 1.3-1-.9-1-.9-.6 0 .4 1.1.9 4.1.6 4.1l-3.6-5.1c-3.6-5.8-4.7-6.8-6-5.9-.6.4-2 .6-4 .6-3.4 0-4.5.3-4.5 1 0 1.6-2.5 3-6 3.5-5 .6-6.5 3.2-5.6 9 .4 2.8 4 10.2 5.4 11a16.3 16.3 0 0 0 15.3-.1zm-22.5-21.8c1-.5.8-2.5-.2-3.1-2.3-1.5-5.7 1-4.4 3 .4.7 3.5.7 4.6.1zm8-3.4c1.2-1.3.7-2.4-1.3-2.7-2-.3-2.2-.2-2.6 1.5-.4 1.9 2.4 2.8 3.9 1.2zm-13.5-3a8 8 0 0 1 2.8-.8c2.3-.3 2.3-.3 2.3-2.6s0-2.4-1.7-2.1c-3.2.6-4.6 0-3.7-1.4.4-.7 1.2-1 4-1.6 1.2-.2 1.2-.4 1-2.3l-.3-7.6c-.3-6.4-.7-7-4.5-7-4.6 0-7.2 4.5-5 9a48.9 48.9 0 0 1 3.7 18c0 2 0 2 .5.5.2-.8.6-1.8 1-2zm-7.6-1c.3-.4 1.2-.9 1.9-1 1.3-.3 1.4-.4 1-2.3-.3-1.4-.3-1.4-3-1.3-2.4.1-2.6 0-2.8-.9 0-.8 0-1 1.7-1 3.8 0 4.1-1 1.7-6.3-2-4.6-2.7-5.3-5-5.3-6.7 0-7 4.2-1.1 14.3 5.1 9 4.6 8.2 4.8 6.2a5.1 5.1 0 0 1 .8-2.4zm24.5-2.3c.2-4.2.2-5.4-.2-4.8-1.1 1.8-5 2.5-6.4 1.1-1.4-1.4-1.1-1.6 2.9-2 3.8-.2 3.8-.2 5.2-7.5 1.6-8.2 1.6-8.4.7-10-2.2-3.5-8.8-3.4-11 .3-1 1.6-1.4 22-.5 25 .2.8.4 1 .4.6.1-1.1 1.8-2 3.8-2 2.2 0 3 .5 3.9 3l.8 2s.3-2.6.4-5.7zm7.1 2.3c1.2-1.2.5-2-2.6-2.7-1.5-.4-2.6 1.4-1.6 2.5.6.8 3.5 1 4.2.2zm5.9-4.2a24 24 0 0 0 1-4.4 7 7 0 0 1 1.2-3.6c1.8-2.1 1.7-4.6-.9-14-.2-1-5-.7-6.2.2-.9.7-4 10.7-4.4 14.2-.2 1.5.6 1.8 5 1.9 3 0 3 0 2.2.9-1 1-5.2 1.2-6.6.2-1-.7-1-.7-1 1 0 1.9 0 1.9 2 1.7 2.4-.1 3.7 1.4 4.3 5 .3 2.2 2 .7 3.4-3zm-45 2c.6-.5-.2-1.2-2.3-1.8-1.2-.3-2.5-.8-3-1.1-.7-.3-1-.3-1.1.2-.3.8-.4 3 0 3.3.2.3 6-.1 6.4-.5zm-3.3-7a22.8 22.8 0 0 1-.4-1.4l-.4-.2c-.9 0-1.3 2-.5 2.5 1.3 1 1.8.7 1.3-.8z" fill="#000"/><path d="m158.6 206-56 50 56 50-22-50Zm193.1 0 56 50-56 50 22-50z" stroke="#000" stroke-width="4"/><path fill="#000" stroke="#000" stroke-width="4" d="M232 384.1h48V432h-48z"/><path d="m225.2 387-35.7 21 35.7 21.1-14-21zm61.5 0 35.7 21-35.7 21.1 14-21z" stroke="#000" stroke-width="4"/><g style="line-height:1.25;-inkscape-font-specification:OptimusPrinceps" font-weight="400" font-size="40" font-family="OptimusPrinceps"><path d="m270.8 423 .1-.1-.1-.2q-1.4-.1-2.4-.6-1-.6-1.6-1.8l-3-6-2.6-6.3-2.5-6.4-2.3-6.2-.4-1.2-.5-1.2h-.3l-2.1 5.7-2 5.7-2.8 7.7-2.9 7.6q-.5 1.4-1.6 2.2-1 .7-2.6 1l-.1.2h1.9l1.4-.1h4.1l.7.1h.7v-.3h-.7l-.7-.3-.6-.4q-.2-.3-.2-.7 0-.6.4-2l.9-2.8 1-2.9.8-2h8.5l2 5 1.9 5.1-2.2 1v.3h1.1l2-.1 2-.1h1.7q.4.2 1 .2h1zm-12.2-13h-7.3l1.5-4.7 1.6-4.7.3-1 .4-1.2z" style="-inkscape-font-specification:OptimusPrinceps" fill="#fff" aria-label="A"/></g></svg>