<?xml version="1.0" encoding="UTF-8" standalone="no"?>
<svg
   xmlns:dc="http://purl.org/dc/elements/1.1/"
   xmlns:cc="http://creativecommons.org/ns#"
   xmlns:rdf="http://www.w3.org/1999/02/22-rdf-syntax-ns#"
   xmlns:svg="http://www.w3.org/2000/svg"
   xmlns="http://www.w3.org/2000/svg"
   xmlns:sodipodi="http://sodipodi.sourceforge.net/DTD/sodipodi-0.dtd"
   xmlns:inkscape="http://www.inkscape.org/namespaces/inkscape"
   viewBox="0.0 0.0 348.0 348.0"
   fill="none"
   version="1.1"
   id="svg6"
   sodipodi:docname="Module Name.svg"
   inkscape:version="1.0.1 (3bc2e813f5, 2020-09-07)">
  <metadata
     id="metadata12">
    <rdf:RDF>
      <cc:Work
         rdf:about="">
        <dc:format>image/svg+xml</dc:format>
        <dc:type
           rdf:resource="http://purl.org/dc/dcmitype/StillImage" />
      </cc:Work>
    </rdf:RDF>
  </metadata>
  <defs
     id="defs10" />
  <sodipodi:namedview
     pagecolor="#ffffff"
     bordercolor="#666666"
     borderopacity="1"
     objecttolerance="10"
     gridtolerance="10"
     guidetolerance="10"
     inkscape:pageopacity="0"
     inkscape:pageshadow="2"
     inkscape:window-width="952"
     inkscape:window-height="1008"
     id="namedview8"
     showgrid="false"
     inkscape:zoom="1.7271286"
     inkscape:cx="168.21942"
     inkscape:cy="196.55718"
     inkscape:window-x="2879"
     inkscape:window-y="0"
     inkscape:window-maximized="0"
     inkscape:current-layer="svg6" />
  <path
     d="M5.079 5.776h336.913v337.67H5.08z"
     stroke-width="2"
     stroke="#000"
     id="path2" />
  <path
     d="M282.734 40.554c0-8.376 6.966-15.165 15.56-15.165 4.126 0 8.084 1.597 11.001 4.441 2.918 2.844 4.558 6.702 4.558 10.724 0 8.376-6.966 15.165-15.56 15.165-8.593 0-15.559-6.79-15.559-15.165z"
     stroke-width="2"
     stroke="#000"
     id="path4" />
  <rect
     style="fill:#000000;stroke-width:0.848748"
     id="rect14"
     width="28.658823"
     height="52.901405"
     x="16.347376"
     y="219.30421" />
  <rect
     style="fill:#000000;stroke-width:0.848748"
     id="rect14-7"
     width="28.658823"
     height="52.901405"
     x="73.665024"
     y="219.30421" />
  <rect
     style="fill:#000000;stroke-width:0.848748"
     id="rect14-2"
     width="28.658823"
     height="52.901405"
     x="45.006199"
     y="219.30421" />
  <rect
     style="fill:#000000;stroke-width:0.848748"
     id="rect14-5"
     width="28.658823"
     height="52.901405"
     x="115.0805"
     y="220.20145" />
  <rect
     style="fill:#000000;stroke-width:0.848748"
     id="rect14-56"
     width="28.658823"
     height="52.901405"
     x="143.73932"
     y="220.20145" />
  <rect
     style="fill:#000000;stroke-width:0.848748"
     id="rect14-9"
     width="28.658823"
     height="52.901405"
     x="201.05698"
     y="220.20145" />
  <rect
     style="fill:#000000;stroke-width:0.848748"
     id="rect14-24"
     width="28.658823"
     height="52.901405"
     x="172.39815"
     y="220.20145" />
  <rect
     style="fill:#000000;stroke-width:0.848748"
     id="rect14-3"
     width="28.658823"
     height="52.901405"
     x="249.98067"
     y="218.78043" />
  <rect
     style="fill:#000000;stroke-width:0.848748"
     id="rect14-23"
     width="28.658823"
     height="52.901405"
     x="278.6395"
     y="218.78043" />
  <rect
     style="fill:#000000;stroke-width:0.848748"
     id="rect14-31"
     width="28.658823"
     height="52.901405"
     x="307.29831"
     y="218.78043" />
  <path
     style="fill:none;stroke:#000000;stroke-width:1px;stroke-linecap:butt;stroke-linejoin:miter;stroke-opacity:1"
     d="M 16.347376,219.30421 H 45.006199 L 30.686771,188.75259 16.347376,219.30421"
     id="path159" />
  <path
     style="fill:none;stroke:#000000;stroke-width:1px;stroke-linecap:butt;stroke-linejoin:miter;stroke-opacity:1"
     d="m 115.0805,220.20145 h 28.65882 l -14.31943,-30.55162 -14.33939,30.55162"
     id="path159-4" />
  <path
     style="fill:none;stroke:#000000;stroke-width:1px;stroke-linecap:butt;stroke-linejoin:miter;stroke-opacity:1"
     d="M 73.665024,219.30421 H 102.32384 L 88.004414,188.75259 73.665024,219.30421"
     id="path159-1" />
  <path
     style="fill:none;stroke:#000000;stroke-width:1px;stroke-linecap:butt;stroke-linejoin:miter;stroke-opacity:1"
     d="m 45.006199,219.30421 h 28.65882 l -14.31943,-30.55162 -14.33939,30.55162"
     id="path159-6" />
  <path
     style="fill:none;stroke:#000000;stroke-width:1px;stroke-linecap:butt;stroke-linejoin:miter;stroke-opacity:1"
     d="m 143.73932,220.20145 h 28.65882 l -14.31943,-30.55162 -14.33939,30.55162"
     id="path159-4-3" />
  <path
     style="fill:none;stroke:#000000;stroke-width:1px;stroke-linecap:butt;stroke-linejoin:miter;stroke-opacity:1"
     d="m 172.39815,220.20145 h 28.65882 l -14.31943,-30.55162 -14.33939,30.55162"
     id="path159-4-9" />
  <path
     style="fill:none;stroke:#000000;stroke-width:1px;stroke-linecap:butt;stroke-linejoin:miter;stroke-opacity:1"
     d="m 201.05699,220.20145 h 28.65882 l -14.31943,-30.55162 -14.33939,30.55162"
     id="path159-4-1" />
  <path
     style="fill:none;stroke:#000000;stroke-width:1px;stroke-linecap:butt;stroke-linejoin:miter;stroke-opacity:1"
     d="m 249.98067,218.78043 h 28.65882 l -14.31943,-30.55162 -14.33939,30.55162"
     id="path159-4-7" />
  <path
     style="fill:none;stroke:#000000;stroke-width:1px;stroke-linecap:butt;stroke-linejoin:miter;stroke-opacity:1"
     d="m 278.6395,218.78043 h 28.65882 l -14.31943,-30.55162 -14.33939,30.55162"
     id="path159-4-5" />
  <path
     style="fill:none;stroke:#000000;stroke-width:1px;stroke-linecap:butt;stroke-linejoin:miter;stroke-opacity:1"
     d="m 307.2983,218.78043 h 28.65882 l -14.31943,-30.55162 -14.33939,30.55162"
     id="path159-4-96" />
  <path
     style="fill:none;stroke:#000000;stroke-width:1px;stroke-linecap:butt;stroke-linejoin:miter;stroke-opacity:1"
     d="m 307.29831,271.68182 h -28.65882 l 14.31943,30.55162 14.33939,-30.55162"
     id="path159-4-96-2" />
  <path
     style="fill:none;stroke:#000000;stroke-width:1px;stroke-linecap:butt;stroke-linejoin:miter;stroke-opacity:1"
     d="m 335.95713,271.68182 h -28.65882 l 14.31943,30.55162 14.33939,-30.55162"
     id="path159-4-96-2-1" />
  <path
     style="fill:none;stroke:#000000;stroke-width:1px;stroke-linecap:butt;stroke-linejoin:miter;stroke-opacity:1"
     d="m 229.71581,273.10284 h -28.65882 l 14.31943,30.55162 14.33939,-30.55162"
     id="path159-4-96-2-12" />
  <path
     style="fill:none;stroke:#000000;stroke-width:1px;stroke-linecap:butt;stroke-linejoin:miter;stroke-opacity:1"
     d="m 278.63949,271.68182 h -28.65882 l 14.31943,30.55162 14.33939,-30.55162"
     id="path159-4-96-2-6" />
  <path
     style="fill:none;stroke:#000000;stroke-width:1px;stroke-linecap:butt;stroke-linejoin:miter;stroke-opacity:1"
     d="m 201.05697,273.10284 h -28.65882 l 14.31943,30.55162 14.33939,-30.55162"
     id="path159-4-96-2-16" />
  <path
     style="fill:none;stroke:#000000;stroke-width:1px;stroke-linecap:butt;stroke-linejoin:miter;stroke-opacity:1"
     d="m 172.39814,273.10284 h -28.65882 l 14.31943,30.55162 14.33939,-30.55162"
     id="path159-4-96-2-7" />
  <path
     style="fill:none;stroke:#000000;stroke-width:1px;stroke-linecap:butt;stroke-linejoin:miter;stroke-opacity:1"
     d="M 143.73932,273.10284 H 115.0805 l 14.31943,30.55162 14.33939,-30.55162"
     id="path159-4-96-2-4" />
  <path
     style="fill:none;stroke:#000000;stroke-width:1px;stroke-linecap:butt;stroke-linejoin:miter;stroke-opacity:1"
     d="M 102.32385,272.20563 H 73.665024 l 14.319434,30.55162 14.339392,-30.55162"
     id="path159-4-96-2-8" />
  <path
     style="fill:none;stroke:#000000;stroke-width:1px;stroke-linecap:butt;stroke-linejoin:miter;stroke-opacity:1"
     d="m 73.665019,272.20563 h -28.65882 l 14.31943,30.55162 14.33939,-30.55162"
     id="path159-4-96-2-3" />
  <path
     style="fill:none;stroke:#000000;stroke-width:1px;stroke-linecap:butt;stroke-linejoin:miter;stroke-opacity:1"
     d="M 45.006197,272.20563 H 16.347376 l 14.319431,30.55162 14.33939,-30.55162"
     id="path159-4-96-2-9" />
  <rect
     style="fill:#000000;stroke-width:0.848748"
     id="rect14-5-3"
     width="28.658823"
     height="52.901405"
     x="114.64405"
     y="99.191353" />
  <rect
     style="fill:#000000;stroke-width:0.848748"
     id="rect14-56-6"
     width="28.658823"
     height="52.901405"
     x="143.30289"
     y="99.191353" />
  <rect
     style="fill:#000000;stroke-width:0.848748"
     id="rect14-9-8"
     width="28.658823"
     height="52.901405"
     x="200.62053"
     y="99.191353" />
  <rect
     style="fill:#000000;stroke-width:0.848748"
     id="rect14-24-3"
     width="28.658823"
     height="52.901405"
     x="171.96172"
     y="99.191353" />
  <path
     style="fill:none;stroke:#000000;stroke-width:1px;stroke-linecap:butt;stroke-linejoin:miter;stroke-opacity:1"
     d="m 114.64406,99.191365 h 28.65882 l -14.31943,-30.55162 -14.33939,30.55162"
     id="path159-4-94" />
  <path
     style="fill:none;stroke:#000000;stroke-width:1px;stroke-linecap:butt;stroke-linejoin:miter;stroke-opacity:1"
     d="m 143.30288,99.191365 h 28.65882 l -14.31943,-30.55162 -14.33939,30.55162"
     id="path159-4-3-9" />
  <path
     style="fill:none;stroke:#000000;stroke-width:1px;stroke-linecap:butt;stroke-linejoin:miter;stroke-opacity:1"
     d="m 171.96171,99.191365 h 28.65882 l -14.31943,-30.55162 -14.33939,30.55162"
     id="path159-4-9-3" />
  <path
     style="fill:none;stroke:#000000;stroke-width:1px;stroke-linecap:butt;stroke-linejoin:miter;stroke-opacity:1"
     d="m 200.62055,99.191365 h 28.65881 l -14.31943,-30.55162 -14.33938,30.55162"
     id="path159-4-1-5" />
  <path
     style="fill:none;stroke:#000000;stroke-width:1px;stroke-linecap:butt;stroke-linejoin:miter;stroke-opacity:1"
     d="m 229.27936,152.09275 h -28.65881 l 14.31942,30.55162 14.33939,-30.55162"
     id="path159-4-96-2-12-5" />
  <path
     style="fill:none;stroke:#000000;stroke-width:1px;stroke-linecap:butt;stroke-linejoin:miter;stroke-opacity:1"
     d="m 200.62053,152.09275 h -28.65882 l 14.31943,30.55162 14.33939,-30.55162"
     id="path159-4-96-2-16-9" />
  <path
     style="fill:none;stroke:#000000;stroke-width:1px;stroke-linecap:butt;stroke-linejoin:miter;stroke-opacity:1"
     d="m 171.9617,152.09275 h -28.65882 l 14.31943,30.55162 14.33939,-30.55162"
     id="path159-4-96-2-7-9" />
  <path
     style="fill:none;stroke:#000000;stroke-width:1px;stroke-linecap:butt;stroke-linejoin:miter;stroke-opacity:1"
     d="m 143.30288,152.09275 h -28.65882 l 14.31943,30.55162 14.33939,-30.55162"
     id="path159-4-96-2-4-3" />
  <circle
     style="fill:#000000"
     id="path361"
     cx="52.399109"
     cy="114.35165"
     r="17.080372" />
  <circle
     style="fill:#000000"
     id="path361-6"
     cx="278.49692"
     cy="114.06214"
     r="17.080372" />
  <ellipse
     style="fill:#ffffff;stroke-width:1.05529"
     id="path380"
     cx="52.399113"
     cy="114.06215"
     rx="14.185393"
     ry="13.895896" />
  <ellipse
     style="fill:#ffffff;stroke-width:1.05529"
     id="path380-2"
     cx="278.49692"
     cy="114.06215"
     rx="14.185393"
     ry="13.895896" />
  <ellipse
     style="fill:#000000"
     id="path399"
     cx="75.26944"
     cy="35.608234"
     rx="11.579913"
     ry="10.71142" />
  <ellipse
     style="fill:#ffffff"
     id="path399-3"
     cx="181.22563"
     cy="35.318737"
     rx="11.579913"
     ry="10.71142" />
  <ellipse
     style="fill:#ffffff;stroke-width:0.853913"
     id="path416"
     cx="75.26944"
     cy="35.608234"
     rx="8.1059389"
     ry="7.2374454" />
  <ellipse
     style="fill:#000000"
     id="path399-9"
     cx="196.27953"
     cy="35.318733"
     rx="11.579913"
     ry="10.71142" />
  <ellipse
     style="fill:#ffffff;stroke-width:0.853913"
     id="path416-5"
     cx="196.27953"
     cy="35.318733"
     rx="8.1059389"
     ry="7.2374454" />
</svg>
