<svg xmlns="http://www.w3.org/2000/svg" viewBox="0 0 348 348" fill="none"><path style="color:#000;fill:#000;" d="M4 5v339h339V5H4zm2 2h335v335H6V7z"/><g style="opacity:1"><path d="M70.6 123h205.8v103H70.6Z" style="color:#000;fill:#b3b3b3;"/><path d="M69 121.5v106h209v-106H69zm3 3h203v100H72v-100z" style="color:#000;fill:#000;"/></g><g style="opacity:1"><path d="M131.7 40h84.6v52.3h-84.6z" style="color:#000;fill:#b3b3b3;"/><path d="M130.2 38.5v55.3h87.6V38.5h-87.6zm3 3h81.6v49.3h-81.6V41.5z" style="color:#000;fill:#000;"/></g><g style="opacity:1"><path d="M212.4 286.5a39 39 0 1 1-77.8 0 39 39 0 0 1 77.8 0z" style="color:#000;fill:#b3b3b3;"/><path d="M173.5 246.1a40.4 40.4 0 1 0 0 80.9 40.4 40.4 0 0 0 0-80.9zm0 3a37.4 37.4 0 1 1 0 74.8 37.4 37.4 0 0 1 0-74.8z" style="color:#000;fill:#000;"/></g><g style="opacity:1"><path d="M108.5 286.5a39 39 0 1 1-77.8 0 39 39 0 0 1 77.8 0" style="color:#000;fill:#b3b3b3;" transform="translate(-.7)"/><path d="M69.6 246.1a40.4 40.4 0 1 0 40.4 40.7 1.5 1.5 0 0 0 0-.3 1.5 1.5 0 0 0 0-.3 40.4 40.4 0 0 0-40.4-40.1zm0 3a37.4 37.4 0 1 1 0 74.8 37.4 37.4 0 0 1 0-74.8z" style="color:#000;fill:#000;" transform="translate(-.7)"/></g><g style="opacity:1"><path d="M108.5 62.5a39 39 0 1 1-77.8 0 39 39 0 0 1 77.8 0" style="color:#000;fill:#b3b3b3;" transform="translate(-.7)"/><path d="M69.6 22A40.4 40.4 0 1 0 110 62.9a1.5 1.5 0 0 0 0-.3 1.5 1.5 0 0 0 0-.3A40.4 40.4 0 0 0 69.6 22zm0 3a37.4 37.4 0 1 1 0 74.9 37.4 37.4 0 0 1 0-74.8z" style="color:#000;fill:#000;" transform="translate(-.7)"/></g><g style="opacity:1"><path d="M318.6 286.5a39 39 0 1 1-77.8 0 39 39 0 0 1 77.8 0" style="color:#000;fill:#b3b3b3;" transform="translate(-.7)"/><path d="M279.7 246.1a40.4 40.4 0 1 0 40.4 40.7 1.5 1.5 0 0 0 0-.3 1.5 1.5 0 0 0 0-.3 40.4 40.4 0 0 0-40.4-40.1zm0 3a37.4 37.4 0 1 1 0 74.8 37.4 37.4 0 0 1 0-74.8z" style="color:#000;fill:#000;" transform="translate(-.7)"/></g><g style="opacity:1"><path d="M318.6 62.5a39 39 0 1 1-77.8 0 39 39 0 0 1 77.8 0" style="color:#000;fill:#b3b3b3;" transform="translate(-.7)"/><path d="M279.7 22a40.4 40.4 0 1 0 40.4 40.8 1.5 1.5 0 0 0 0-.3 1.5 1.5 0 0 0 0-.3 40.4 40.4 0 0 0-40.4-40.1zm0 3a37.4 37.4 0 1 1 0 74.9 37.4 37.4 0 0 1 0-74.8z" style="color:#000;fill:#000;" transform="translate(-.7)"/></g><g style="stroke-width:3.12391" aria-label="???"><g style="opacity:1"><path d="M132.8 189.2a27.7 27.7 0 0 1 3.3-13.4c1-1.5 2.1-3.3 3.6-5.3l2.6-3.7c.6-1 1.1-2 1.5-3.2.5-1.2.7-2.4.7-3.8 0-2.4-.7-4.2-1.9-5.5a6.5 6.5 0 0 0-5-2 6 6 0 0 0-5.1 2.5 11.4 11.4 0 0 0-1.9 6.8h-8.4a22 22 0 0 1 2-9.2c1.3-2.5 3-4.5 5.3-5.8 2.2-1.3 5-2 8-2 3.2 0 6 .6 8.3 1.8 2.3 1.2 4 3 5.2 5.2a17 17 0 0 1 1.9 8.2 16.4 16.4 0 0 1-2.6 9.3c-.7 1.1-1.7 2.5-3 4.1a53.6 53.6 0 0 0-3.2 4.7c-.9 1.3-1.6 2.9-2.2 4.8-.5 1.9-.8 4-.8 6.5zm-.2 6.5h8.7v8.7h-8.7z" style="color:#000;fill:#000;stroke-width:3.12391;"/><path d="M137.5 143a17 17 0 0 0-8.8 2.3 15 15 0 0 0-5.9 6.4c-1.3 2.8-2 6-2.2 9.8v1.7h11.6v-1.6c0-2.7.6-4.7 1.5-6 1-1.2 2-1.7 3.9-1.7 1.8 0 3 .5 3.9 1.4.9 1 1.4 2.4 1.4 4.5 0 1.2-.2 2.3-.5 3.3L141 166a97 97 0 0 1-2.5 3.6c-1.5 2-2.8 3.8-3.7 5.4a29.2 29.2 0 0 0-3.6 14.2v1.6h11.4v-1.6c0-2.3.3-4.4.8-6a18 18 0 0 1 2-4.5c.8-1.3 1.8-2.8 3.2-4.5a54 54 0 0 0 3-4.3 18.3 18.3 0 0 0 2.8-10v-.1c0-3.4-.6-6.4-2-9a13.7 13.7 0 0 0-5.9-5.8c-2.6-1.3-5.6-2-9-2zm0 3.2c3 0 5.5.5 7.6 1.6 2 1 3.5 2.5 4.6 4.5 1 2 1.6 4.5 1.6 7.5a15.2 15.2 0 0 1-2.4 8.4c-.6 1.1-1.6 2.5-2.8 4a55 55 0 0 0-3.4 4.8 22.8 22.8 0 0 0-3.1 10.6h-5.2a25.2 25.2 0 0 1 3-11l3.6-5.2 2.6-3.7c.7-1.1 1.3-2.3 1.7-3.6.5-1.3.7-2.8.7-4.3 0-2.7-.7-5-2.2-6.6a8.2 8.2 0 0 0-6.2-2.4c-2.6 0-4.9 1-6.4 3a12 12 0 0 0-2 6.3H124c.2-2.7.7-5 1.6-7 1.2-2.3 2.7-4 4.7-5.1 2-1.2 4.3-1.8 7.2-1.8zm-6.5 48v11.7h11.8v-11.8H131zm3.1 3h5.6v5.6h-5.6v-5.6z" style="color:#000;stroke-width:3.12391;"/></g><g style="opacity:1"><path d="M168.7 189.2a27.7 27.7 0 0 1 3.4-13.4c.9-1.5 2.1-3.3 3.6-5.3l2.6-3.7c.6-1 1.1-2 1.5-3.2.4-1.2.6-2.4.6-3.8 0-2.4-.6-4.2-1.8-5.5a6.5 6.5 0 0 0-5-2 6 6 0 0 0-5.2 2.5 11.4 11.4 0 0 0-1.8 6.8h-8.4a22 22 0 0 1 2-9.2c1.2-2.5 3-4.5 5.2-5.8 2.3-1.3 5-2 8-2 3.3 0 6 .6 8.4 1.8 2.3 1.2 4 3 5.2 5.2a17 17 0 0 1 1.8 8.2 16.4 16.4 0 0 1-2.6 9.3c-.7 1.1-1.6 2.5-2.9 4.1a53.6 53.6 0 0 0-3.3 4.7 22.4 22.4 0 0 0-3 11.3zm-.2 6.5h8.7v8.7h-8.7z" style="color:#000;fill:#000;stroke-width:3.12391;"/><path d="M173.5 143a17 17 0 0 0-8.8 2.3 15 15 0 0 0-5.9 6.4c-1.4 2.8-2 6-2.2 9.8v1.7h11.5v-1.6c0-2.7.6-4.7 1.6-6 1-1.2 2-1.7 3.8-1.7 1.9 0 3 .5 4 1.4.8 1 1.4 2.4 1.4 4.5 0 1.2-.2 2.3-.6 3.3-.3 1-.8 2-1.4 2.9l-2.5 3.6c-1.5 2-2.7 3.8-3.7 5.4a29.2 29.2 0 0 0-3.6 14.2v1.6h11.5v-1.6c0-2.3.3-4.4.8-6a18 18 0 0 1 2-4.5c.7-1.3 1.8-2.8 3.1-4.5a54 54 0 0 0 3-4.3 18.3 18.3 0 0 0 2.9-10v-.1c0-3.4-.7-6.4-2-9a13.7 13.7 0 0 0-6-5.8c-2.5-1.3-5.5-2-9-2zm0 3.2c3 0 5.5.5 7.5 1.6 2 1 3.6 2.5 4.6 4.5 1.1 2 1.7 4.5 1.7 7.5a15.2 15.2 0 0 1-2.4 8.4c-.7 1.1-1.6 2.5-2.8 4a55 55 0 0 0-3.4 4.8 22.8 22.8 0 0 0-3.1 10.6h-5.2a25.2 25.2 0 0 1 3-11c.9-1.5 2-3.2 3.5-5.2l2.7-3.7c.7-1.1 1.2-2.3 1.7-3.6.4-1.3.7-2.8.7-4.3 0-2.7-.7-5-2.3-6.6a8.2 8.2 0 0 0-6.2-2.4c-2.5 0-4.8 1-6.3 3a12 12 0 0 0-2 6.3H160c.2-2.7.8-5 1.7-7 1.1-2.3 2.7-4 4.6-5.1 2-1.2 4.4-1.8 7.3-1.8zm-6.5 48v11.7h11.8v-11.8H167zm3.1 3h5.6v5.6H170v-5.6z" style="color:#000;stroke-width:3.12391;"/></g><g style="opacity:1"><path d="M204.7 189.2a27.7 27.7 0 0 1 3.3-13.4l3.7-5.3 2.5-3.7c.6-1 1.2-2 1.6-3.2.4-1.2.6-2.4.6-3.8 0-2.4-.6-4.2-1.9-5.5a6.5 6.5 0 0 0-5-2 6 6 0 0 0-5.1 2.5 11.4 11.4 0 0 0-1.9 6.8h-8.4a22 22 0 0 1 2-9.2c1.3-2.5 3-4.5 5.3-5.8 2.3-1.3 5-2 8-2 3.2 0 6 .6 8.3 1.8 2.3 1.2 4 3 5.3 5.2a17 17 0 0 1 1.8 8.2 16.4 16.4 0 0 1-2.6 9.3c-.7 1.1-1.7 2.5-3 4.1a53.6 53.6 0 0 0-3.2 4.7 22.4 22.4 0 0 0-3 11.3zm-.2 6.5h8.7v8.7h-8.7z" style="color:#000;fill:#000;stroke-width:3.12391;"/><path d="M209.4 143a17 17 0 0 0-8.8 2.3 15 15 0 0 0-5.8 6.4c-1.4 2.8-2.1 6-2.2 9.8v1.7H204v-1.6c0-2.7.6-4.7 1.5-6 1-1.2 2-1.7 3.9-1.7s3 .5 3.9 1.4c.9 1 1.4 2.4 1.4 4.5 0 1.2-.2 2.3-.5 3.3-.4 1-.8 2-1.4 2.9l-2.5 3.6c-1.5 2-2.7 3.8-3.7 5.4a29.2 29.2 0 0 0-3.6 14.2v1.6h11.5v-1.6a18 18 0 0 1 2.7-10.5c.8-1.3 1.9-2.8 3.2-4.5a54 54 0 0 0 3-4.3 18.3 18.3 0 0 0 2.9-10v-.1c0-3.4-.7-6.4-2-9a13.7 13.7 0 0 0-6-5.8c-2.5-1.3-5.6-2-9-2zm0 3.2c3 0 5.6.5 7.6 1.6 2 1 3.5 2.5 4.6 4.5 1 2 1.6 4.5 1.6 7.5a15.2 15.2 0 0 1-2.4 8.4c-.6 1.1-1.6 2.5-2.8 4a55 55 0 0 0-3.4 4.8 22.8 22.8 0 0 0-3.1 10.6h-5.1a25.2 25.2 0 0 1 3-11c.9-1.5 2-3.2 3.5-5.2l2.6-3.7c.7-1.1 1.3-2.3 1.7-3.6.5-1.3.7-2.8.7-4.3 0-2.7-.7-5-2.2-6.6a8.2 8.2 0 0 0-6.2-2.4c-2.6 0-4.9 1-6.4 3a12 12 0 0 0-2 6.3H196c.2-2.7.7-5 1.7-7 1-2.3 2.6-4 4.6-5.1 2-1.2 4.3-1.8 7.2-1.8zm-6.5 48v11.7h11.9v-11.8h-11.9zm3.2 3h5.5v5.6h-5.5v-5.6z" style="color:#000;stroke-width:3.12391;"/></g></g><g style="stroke-width:1.54615" aria-label="???"><g style="opacity:1"><path d="M153.8 73.4a13.7 13.7 0 0 1 1.7-6.6 32.1 32.1 0 0 1 3-4.4c.4-.5.6-1 .8-1.6.2-.6.3-1.2.3-2 0-1.1-.3-2-.9-2.7-.6-.6-1.4-1-2.5-1-1 0-2 .5-2.5 1.3-.6.8-1 2-1 3.4h-4c0-1.8.3-3.3 1-4.6a6.6 6.6 0 0 1 2.5-2.8c1.1-.7 2.5-1 4-1 1.6 0 3 .3 4 .9a6 6 0 0 1 2.7 2.5c.6 1.2.9 2.5.9 4v.1a8.1 8.1 0 0 1-1.3 4.6 26 26 0 0 1-1.4 2l-1.7 2.3-1 2.4c-.3 1-.4 2-.4 3.2zm0 3.2h4.3V81h-4.4z" style="color:#000;fill:#000;stroke-width:1.54615;"/><path d="M156.2 50.6c-1.7 0-3.1.4-4.4 1.1a7.4 7.4 0 0 0-2.9 3.2c-.7 1.4-1 3-1 4.8v.9h5.7v-.8a5 5 0 0 1 .7-3c.5-.6 1-.8 2-.8.8 0 1.4.2 1.9.7.4.4.7 1.1.7 2.2a5 5 0 0 1-.3 1.6l-.7 1.4a47.8 47.8 0 0 1-3 4.5c-.6.9-1 1.9-1.3 3-.4 1.2-.5 2.6-.5 4v.8h5.7v-.8c0-1.1 0-2.1.3-3a9 9 0 0 1 1-2.2l1.6-2.2 1.5-2.1a9 9 0 0 0 1.4-5c0-1.7-.4-3.2-1-4.4a6.8 6.8 0 0 0-3-3c-1.2-.6-2.7-.9-4.4-.9zm0 1.5a8 8 0 0 1 3.7.8c1 .6 1.8 1.3 2.3 2.3.5 1 .8 2.2.8 3.7a7.5 7.5 0 0 1-1.2 4.2l-1.4 2-1.6 2.3a10.4 10.4 0 0 0-1.5 5.3h-2.6a11.3 11.3 0 0 1 1.4-5.5l1.8-2.6 1.3-1.8.9-1.8c.2-.6.3-1.4.3-2.1 0-1.3-.4-2.5-1.1-3.3a4 4 0 0 0-3-1.2c-1.4 0-2.5.5-3.2 1.5a6 6 0 0 0-1 3.1h-2.5c0-1.3.3-2.5.7-3.4.6-1.2 1.3-2 2.3-2.6 1-.6 2.2-.9 3.6-.9zM153 76v5.8h5.8V76H153zm1.5 1.5h2.8v2.8h-2.8v-2.8z" style="color:#000;stroke-width:1.54615;"/></g><g style="opacity:1"><path d="M171.6 73.4a13.7 13.7 0 0 1 1.7-6.6 32.1 32.1 0 0 1 3-4.4c.4-.5.6-1 .8-1.6.2-.6.3-1.2.3-2 0-1.1-.3-2-.9-2.7-.6-.6-1.4-1-2.5-1-1 0-2 .5-2.5 1.3-.6.8-1 2-1 3.4h-4c0-1.8.3-3.3 1-4.6a6.6 6.6 0 0 1 2.5-2.8c1.1-.7 2.4-1 4-1s3 .3 4 .9a6 6 0 0 1 2.7 2.5c.6 1.2.9 2.5.9 4v.1a8.1 8.1 0 0 1-1.3 4.6 26 26 0 0 1-1.4 2l-1.7 2.3-1 2.4c-.3 1-.4 2-.4 3.2zm0 3.2h4.3V81h-4.4z" style="color:#000;fill:#000;stroke-width:1.54615;"/><path d="M174 50.6c-1.7 0-3.1.4-4.4 1.1a7.4 7.4 0 0 0-2.9 3.2c-.7 1.4-1 3-1 4.8v.9h5.7v-.8a5 5 0 0 1 .7-3c.5-.6 1-.8 2-.8.8 0 1.4.2 1.8.7.5.4.7 1.1.7 2.2a5 5 0 0 1-.2 1.6l-.7 1.4a47.8 47.8 0 0 1-3 4.5c-.6.9-1 1.9-1.3 3-.4 1.2-.5 2.6-.5 4v.8h5.7v-.8c0-1.1 0-2.1.3-3a9 9 0 0 1 1-2.2l1.6-2.2 1.5-2.1a9 9 0 0 0 1.4-5c0-1.7-.4-3.2-1-4.4a6.8 6.8 0 0 0-3-3c-1.2-.6-2.7-.9-4.4-.9zm0 1.5a8 8 0 0 1 3.7.8c1 .6 1.8 1.3 2.3 2.3.5 1 .8 2.2.8 3.7a7.5 7.5 0 0 1-1.2 4.2l-1.4 2-1.6 2.3a10.4 10.4 0 0 0-1.5 5.3h-2.6a11.3 11.3 0 0 1 1.4-5.5l1.8-2.6 1.3-1.8c.4-.6.6-1.1.8-1.8.3-.6.4-1.4.4-2.1 0-1.3-.4-2.5-1.1-3.3a4 4 0 0 0-3-1.2c-1.4 0-2.5.5-3.2 1.5a6 6 0 0 0-1 3.1h-2.5c0-1.3.3-2.5.7-3.4.6-1.2 1.3-2 2.3-2.6 1-.6 2.2-.9 3.6-.9zM170.8 76v5.8h5.8V76h-5.8zm1.5 1.5h2.8v2.8h-2.8v-2.8z" style="color:#000;stroke-width:1.54615;"/></g><g style="opacity:1"><path d="M189.4 73.4a13.7 13.7 0 0 1 1.7-6.6 32.1 32.1 0 0 1 3-4.4c.4-.5.6-1 .8-1.6.2-.6.3-1.2.3-2 0-1.1-.3-2-.9-2.7-.6-.6-1.4-1-2.5-1-1 0-2 .5-2.5 1.3-.6.8-1 2-1 3.4h-4c0-1.8.3-3.3 1-4.6a6.6 6.6 0 0 1 2.5-2.8c1.1-.7 2.4-1 4-1s3 .3 4 .9a6 6 0 0 1 2.7 2.5c.6 1.2.9 2.5.9 4v.1a8.1 8.1 0 0 1-1.3 4.6 26 26 0 0 1-1.5 2l-1.6 2.3-1 2.4c-.3 1-.5 2-.5 3.2zm0 3.2h4.2V81h-4.3z" style="color:#000;fill:#000;stroke-width:1.54615;"/><path d="M191.8 50.6c-1.7 0-3.1.4-4.4 1.1a7.4 7.4 0 0 0-2.9 3.2c-.7 1.4-1 3-1 4.8v.9h5.6v-.8a5 5 0 0 1 .8-3c.5-.6 1-.8 2-.8.8 0 1.4.2 1.8.7.5.4.7 1.1.7 2.2a5 5 0 0 1-.2 1.6l-.7 1.4-1.2 1.8-1.9 2.7a14.5 14.5 0 0 0-1.8 7v.8h5.8v-.8c0-1.1 0-2.1.3-3a9 9 0 0 1 1-2.2l1.6-2.2 1.4-2.1a9 9 0 0 0 1.5-5c0-1.7-.4-3.2-1-4.4a6.8 6.8 0 0 0-3-3c-1.2-.6-2.7-.9-4.4-.9zm0 1.5a8 8 0 0 1 3.7.8c1 .6 1.8 1.3 2.3 2.3.5 1 .8 2.2.8 3.7a7.5 7.5 0 0 1-1.2 4.2l-1.4 2-1.6 2.3a10.4 10.4 0 0 0-1.5 5.3h-2.6a11.3 11.3 0 0 1 1.4-5.5l1.8-2.6 1.3-1.8c.3-.6.6-1.1.8-1.8.3-.6.4-1.4.4-2.1 0-1.3-.4-2.5-1.1-3.3a4 4 0 0 0-3-1.2c-1.4 0-2.5.5-3.2 1.5a6 6 0 0 0-1 3.1h-2.5c0-1.3.3-2.5.7-3.4.6-1.2 1.3-2 2.3-2.6 1-.6 2.2-.9 3.6-.9zM188.6 76v5.8h5.8V76h-5.8zm1.5 1.5h2.8v2.8H190v-2.8z" style="color:#000;stroke-width:1.54615;"/></g></g></svg>