<svg xmlns="http://www.w3.org/2000/svg" fill="none" viewBox="0 0 348 348"><path d="M5.166 5.166h337.668v337.668H5.167z" stroke="#000" stroke-width="2"/><path d="M136.835 15.22h74.33v56.882h-74.33z" fill="#000"/><path d="M157.634 43.67q0-4.064.827-6.532.844-2.485 2.485-3.829 1.656-1.343 4.156-1.343 1.844 0 3.234.75 1.39.734 2.297 2.14.906 1.39 1.422 3.407.516 2 .516 5.406 0 4.031-.829 6.515-.828 2.47-2.484 3.83-1.64 1.342-4.156 1.342-3.313 0-5.203-2.375-2.266-2.86-2.266-9.312zm2.89 0q0 5.64 1.312 7.514 1.328 1.86 3.266 1.86 1.937 0 3.25-1.875 1.328-1.875 1.328-7.5 0-5.656-1.328-7.516-1.313-1.86-3.281-1.86-1.938 0-3.094 1.641-1.453 2.094-1.453 7.735zm14.906 0q0-4.064.828-6.532.844-2.485 2.484-3.829 1.657-1.343 4.157-1.343 1.843 0 3.234.75 1.39.734 2.297 2.14.906 1.39 1.422 3.407.515 2 .515 5.406 0 4.031-.828 6.515-.828 2.47-2.484 3.83-1.64 1.342-4.156 1.342-3.313 0-5.203-2.375-2.266-2.86-2.266-9.312zm2.89 0q0 5.64 1.313 7.514 1.328 1.86 3.266 1.86 1.937 0 3.25-1.875 1.328-1.875 1.328-7.5 0-5.656-1.328-7.516-1.313-1.86-3.282-1.86-1.937 0-3.093 1.641-1.453 2.094-1.453 7.735z" fill="#fff"/><path d="M16.244 16.244h109.89v54.835H16.244zm0 54.948l39.686-54.08m-17.382 54.08l39.686-54.08m-17.382 54.08l39.686-54.08m-17.38 54.08l39.684-54.08m99.024-.868h109.89v54.835h-109.89zm0 54.948l39.685-54.079M244.17 71.192l39.685-54.079m-17.381 54.079l39.685-54.079m-17.381 54.079l39.685-54.079" stroke="#000" stroke-width="2"/><path fill="#fff" stroke="#000" stroke-width="4.6" stroke-linejoin="round" d="M43.923 119.72h264.32v74.552H43.923z"/><g aria-label="&lt;TEXT&gt;" style="line-height:1.25;-inkscape-font-specification:sans-serif" font-weight="400" font-size="40" font-family="sans-serif" letter-spacing="0" word-spacing="0" fill="#000"><path d="M116.5 167.86l-22.54-10.019v-2.422l22.54-10.02v3.516l-17.773 7.715 17.773 7.715zM146.383 143.72h-10.39v25.644h-3.868V143.72h-10.39v-3.438h24.648zM169.488 169.364h-19.16v-29.082h19.16v3.438h-15.293v7.969h15.293v3.437h-15.293v10.8h15.293zM197.828 140.282l-10.039 14.375 10.02 14.707h-4.473l-7.93-11.972-8.125 11.972h-4.218l10.136-14.53-9.902-14.552h4.453l7.832 11.817 8.008-11.817zM223.805 143.72h-10.39v25.644h-3.868V143.72h-10.39v-3.438h24.648zM251.617 157.841l-22.539 10.02v-3.516l17.774-7.715-17.774-7.715V145.4l22.54 10.02z"/></g><path fill="#fff" stroke="#000" stroke-width="1.7" stroke-linejoin="round" d="M41.288 250.678h61.195v60.826H41.288zM109.487 250.494h61.195v60.826h-61.195zM176.949 250.494h61.195v60.826h-61.195zM244.411 250.494h61.195v60.826h-61.195z"/><path fill="#fff" stroke="#000" stroke-width="1.7" stroke-linejoin="round" d="M61.195 255.102h22.119v7.373H61.195zM128.657 255.102h22.119v7.373h-22.119zM196.487 254.733h22.119v7.373h-22.119zM263.581 255.102H285.7v7.373h-22.119z"/><g aria-label="&lt;LETTER&gt;" style="line-height:1.25;-inkscape-font-specification:sans-serif" font-weight="400" font-size="14.176" font-family="sans-serif" letter-spacing="0" word-spacing="0" fill="#000" stroke-width=".354"><path d="M48.14 275.473l-3.64-7.225.536-.819 8.077.448-.778 1.189-6.329-.416 2.912 5.634zM54.965 280.669l-4.783-3.132 6.44-9.835 1.006.658-5.68 8.673 3.778 2.473zM60.95 284.588l-4.98-3.261 6.44-9.835 4.98 3.261-.761 1.162-3.975-2.602-1.765 2.694 3.975 2.603-.76 1.163-3.976-2.603-2.392 3.653 3.976 2.602zM73.62 280.493l-2.701-1.769-5.679 8.673-1.005-.658 5.679-8.673-2.701-1.768.761-1.163 6.407 4.196z"/><path d="M79.692 284.469L76.99 282.7l-5.679 8.673-1.005-.658 5.679-8.673-2.701-1.768.76-1.163 6.408 4.195zM80.019 297.074l-4.98-3.261 6.44-9.835 4.98 3.26-.761 1.163-3.976-2.602-1.764 2.694 3.975 2.603-.761 1.163-3.975-2.603-2.392 3.652 3.975 2.603zM87.873 302.216l-1.305-.854.032-5.566-1.416-.927-2.56 3.91-1.006-.658 6.44-9.835 2.117 1.386q.685.449 1.064.867.384.412.555.948.19.606.081 1.271-.099.662-.614 1.448-.696 1.063-1.579 1.514-.878.444-1.837.335zm2.277-8.606q.277-.423.372-.823.104-.403-.013-.8-.092-.335-.344-.604-.248-.275-.654-.541l-1.183-.775-2.43 3.712 1.015.665q.477.312.902.44.428.12.872-.014.41-.128.75-.415.35-.29.713-.845zM97.603 303.02l-8.077-.448.778-1.189 6.329.416-2.912-5.634.778-1.189 3.64 7.225z"/></g><g aria-label="&lt;LETTER&gt;" style="line-height:1.25;-inkscape-font-specification:sans-serif" font-weight="400" font-size="14.176" font-family="sans-serif" letter-spacing="0" word-spacing="0" fill="#000" stroke-width=".354"><path d="M115.799 274.841l-3.64-7.224.536-.82 8.078.449-.779 1.189-6.328-.417 2.911 5.635zM122.624 280.037l-4.782-3.131 6.44-9.835 1.005.658-5.679 8.673 3.777 2.473zM128.61 283.957l-4.98-3.262 6.44-9.834 4.98 3.26-.762 1.163-3.975-2.603-1.764 2.695 3.975 2.603-.761 1.162-3.976-2.602-2.391 3.652 3.975 2.603zM141.28 279.862l-2.702-1.769-5.678 8.673-1.006-.659 5.68-8.672-2.702-1.769.761-1.162 6.407 4.195z"/><path d="M147.351 283.837l-2.7-1.768-5.68 8.672-1.005-.658 5.679-8.672-2.7-1.769.76-1.162 6.407 4.195zM147.678 296.442l-4.98-3.26 6.44-9.836 4.98 3.261-.761 1.163-3.975-2.603-1.765 2.695 3.975 2.603-.76 1.162-3.976-2.603-2.392 3.653 3.975 2.603zM155.532 301.585l-1.305-.854.032-5.566-1.416-.927-2.56 3.91-1.006-.658 6.44-9.835 2.117 1.386q.686.449 1.065.867.383.411.554.948.19.606.082 1.27-.1.662-.614 1.448-.697 1.064-1.58 1.514-.878.444-1.836.336zm2.277-8.606q.277-.423.372-.823.105-.404-.012-.801-.093-.335-.345-.603-.248-.276-.654-.542l-1.183-.774-2.43 3.712 1.015.665q.477.312.902.44.429.12.872-.015.41-.128.75-.415.35-.29.713-.845zM165.262 302.389l-8.077-.448.779-1.19 6.328.417-2.912-5.634.779-1.189 3.64 7.225z"/></g><g aria-label="&lt;LETTER&gt;" style="line-height:1.25;-inkscape-font-specification:sans-serif" font-weight="400" font-size="14.176" font-family="sans-serif" letter-spacing="0" word-spacing="0" fill="#000" stroke-width=".354"><path d="M183.63 274.841l-3.64-7.224.536-.82 8.077.449-.778 1.189-6.329-.417 2.912 5.635zM190.455 280.037l-4.783-3.131 6.44-9.835 1.005.658-5.678 8.673 3.777 2.473zM196.44 283.957l-4.98-3.262 6.44-9.834 4.98 3.26-.761 1.163-3.975-2.603-1.765 2.695 3.975 2.603-.76 1.162-3.976-2.602-2.392 3.652 3.975 2.603zM209.11 279.862l-2.701-1.769-5.679 8.673-1.005-.659 5.679-8.672-2.701-1.769.76-1.162 6.408 4.195z"/><path d="M215.182 283.837l-2.701-1.768-5.679 8.672-1.005-.658 5.678-8.672-2.7-1.769.76-1.162 6.408 4.195zM215.509 296.442l-4.98-3.26 6.44-9.836 4.98 3.262-.762 1.162-3.975-2.603-1.764 2.695 3.975 2.603-.761 1.162-3.976-2.603-2.391 3.653 3.975 2.603zM223.363 301.585l-1.305-.854.032-5.566-1.416-.927-2.56 3.91-1.006-.658 6.44-9.835 2.117 1.386q.685.449 1.064.867.384.411.555.948.19.606.081 1.27-.1.662-.614 1.448-.696 1.064-1.579 1.514-.878.444-1.837.336zm2.277-8.606q.277-.423.372-.823.104-.404-.013-.801-.093-.335-.345-.603-.247-.276-.653-.542l-1.183-.774-2.43 3.712 1.015.665q.477.312.901.44.43.12.873-.015.41-.128.75-.415.35-.29.713-.845zM233.093 302.389l-8.077-.448.778-1.19 6.328.417-2.911-5.634.778-1.189 3.64 7.225z"/></g><g aria-label="&lt;LETTER&gt;" style="line-height:1.25;-inkscape-font-specification:sans-serif" font-weight="400" font-size="14.176" font-family="sans-serif" letter-spacing="0" word-spacing="0" fill="#000" stroke-width=".354"><path d="M251.46 275.579l-3.64-7.225.536-.819 8.078.448-.779 1.189-6.328-.416 2.911 5.634zM258.285 280.775l-4.782-3.132 6.44-9.835 1.005.658-5.679 8.673 3.777 2.473zM264.27 284.694l-4.98-3.261 6.44-9.835 4.98 3.26-.76 1.163-3.976-2.602-1.764 2.694 3.975 2.603-.761 1.163-3.976-2.603-2.391 3.652 3.975 2.603zM276.94 280.599l-2.7-1.769-5.68 8.673-1.005-.658 5.68-8.673-2.702-1.768.761-1.163 6.407 4.195z"/><path d="M283.012 284.575l-2.7-1.769-5.68 8.673-1.005-.659 5.679-8.672-2.7-1.769.76-1.162 6.407 4.195zM283.34 297.18l-4.981-3.261 6.44-9.835 4.98 3.26-.761 1.163-3.975-2.603-1.765 2.695 3.975 2.603-.76 1.163-3.976-2.603-2.392 3.652 3.975 2.603zM291.193 302.322l-1.305-.854.032-5.566-1.416-.927-2.56 3.91-1.006-.658 6.44-9.835 2.117 1.386q.686.449 1.065.867.383.411.554.948.19.606.082 1.27-.1.662-.614 1.448-.697 1.064-1.58 1.515-.878.444-1.836.335zm2.277-8.606q.277-.423.372-.823.105-.403-.012-.8-.093-.335-.345-.604-.248-.276-.654-.541l-1.183-.775-2.43 3.712 1.015.665q.477.312.902.44.429.12.872-.015.41-.127.75-.414.35-.29.713-.845zM300.923 303.126l-8.077-.448.779-1.189 6.328.416-2.912-5.634.779-1.189 3.64 7.225z"/></g></svg>