<svg xmlns="http://www.w3.org/2000/svg" viewBox="0 0 348 348" fill="none"><path d="M5.079 5.776h336.913v337.67H5.08z" stroke-width="2" stroke="#000"/><path d="M282.734 40.554c0-8.376 6.966-15.165 15.56-15.165 4.126 0 8.084 1.597 11.001 4.441 2.918 2.844 4.558 6.702 4.558 10.724 0 8.376-6.966 15.165-15.56 15.165-8.593 0-15.559-6.79-15.559-15.165z" stroke-width="2" stroke="#000"/><circle cx="173.051" cy="159.339" r="28.662" stroke="#000" stroke-width="2.104" stroke-miterlimit="10"/><circle r="28.662" cy="159.339" cx="114.593" stroke="#000" stroke-width="2.104" stroke-miterlimit="10"/><circle cx="56.136" cy="159.339" r="28.662" stroke="#000" stroke-width="2.104" stroke-miterlimit="10"/><circle r="28.662" cy="159.339" cx="231.508" stroke="#000" stroke-width="2.104" stroke-miterlimit="10"/><circle cx="289.966" cy="159.339" r="28.662" stroke="#000" stroke-width="2.104" stroke-miterlimit="10"/><path fill="#000" fill-rule="evenodd" stroke="#000" stroke-width=".684" d="M28.596 158.757h289.485v1.164H28.596z"/><circle r="28.662" cy="283.494" cx="173.051" stroke="#000" stroke-miterlimit="10"/><circle cx="114.593" cy="283.494" r="28.662" stroke="#000" stroke-miterlimit="10"/><circle r="28.662" cy="283.494" cx="56.136" stroke="#000" stroke-miterlimit="10"/><circle cx="231.508" cy="283.494" r="28.662" stroke="#000" stroke-miterlimit="10"/><circle r="28.662" cy="283.494" cx="289.966" stroke="#000" stroke-miterlimit="10"/><path fill="#000" fill-rule="evenodd" stroke="#000" stroke-width=".15" d="M27.862 282.916h290.586v1.159H27.862z"/><g style="line-height:125%"><path d="M52.976 267.397v9.345h1.05v-4.125h1.815l2.07 4.125h1.185l-2.16-4.155c1.125-.315 1.905-1.38 1.905-2.625 0-.93-.465-1.815-1.335-2.25-.585-.3-1.17-.315-1.785-.315h-2.745zm1.05.99h1.695c.39 0 .765.015 1.155.195.585.3.885.9.885 1.5s-.285 1.155-.825 1.425c-.36.18-.72.195-1.095.195h-1.815v-3.315z" style="-inkscape-font-specification:'Inconsolata Medium'" font-weight="500" font-family="Inconsolata" font-size="15" letter-spacing="0" word-spacing="0" fill="#000"/></g><g style="line-height:125%"><path d="M111.839 267.397v9.345h2.64c.63 0 1.275 0 1.92-.27 1.005-.435 1.56-1.35 1.56-2.31a2.55 2.55 0 00-1.74-2.415 2.256 2.256 0 001.38-2.055c0-.84-.48-1.65-1.365-2.025-.585-.255-1.17-.27-1.74-.27h-2.655zm1.035.9h1.47c.405 0 .825 0 1.245.165.615.255.945.78.945 1.32s-.315 1.05-.9 1.305c-.435.18-.885.18-1.305.18h-1.455v-2.97zm0 3.855h1.53c.465 0 .93.015 1.395.24.69.315 1.065.99 1.065 1.665s-.36 1.29-1.005 1.59c-.405.18-.795.18-1.2.18h-1.785v-3.675z" style="-inkscape-font-specification:'Inconsolata Medium'" font-weight="500" font-family="Inconsolata" font-size="15" letter-spacing="0" word-spacing="0" fill="#000"/></g><g style="line-height:125%"><path d="M173.52 267.322c-1.456 0-3.556 1.065-3.556 4.815 0 3.6 2.01 4.77 3.555 4.77 1.11 0 2.145-.585 2.73-1.545l-.765-.495c-.435.705-1.185 1.125-1.905 1.125-1.38 0-2.595-1.425-2.595-3.96 0-2.475 1.185-3.87 2.505-3.87.72 0 1.41.435 1.785 1.095.03.045.06.09.06.15 0 .045-.015.075-.015.12 0 .015 0 .09.075.135l.99-.48a3.13 3.13 0 00-2.865-1.86z" style="-inkscape-font-specification:'Inconsolata Medium'" font-weight="500" font-family="Inconsolata" font-size="15" letter-spacing="0" word-spacing="0" fill="#000"/></g><g style="line-height:125%"><path d="M227.842 267.397v9.36h.99v-7.005l1.89 3.705h.39l2.025-3.765v7.065h.99v-9.36h-.78l-2.355 4.575-2.325-4.575h-.825z" style="-inkscape-font-specification:'Inconsolata Medium'" font-weight="500" font-family="Inconsolata" font-size="15" letter-spacing="0" word-spacing="0" fill="#000"/></g><g style="line-height:125%"><path d="M293.658 272.092c0-.87-.06-2.025-.57-3.03-.615-1.2-1.68-1.755-2.7-1.755-1.395 0-3.36 1.08-3.36 4.755s1.935 4.83 3.375 4.83c1.005 0 2.085-.57 2.7-1.815.495-1.005.555-2.16.555-2.985zm-3.315-3.81c.66 0 1.47.39 1.905 1.485.315.78.36 1.68.36 2.46 0 .615-.03 1.575-.42 2.37-.435.915-1.155 1.275-1.785 1.275-1.05 0-2.34-.975-2.34-3.945 0-2.79 1.305-3.645 2.28-3.645z" style="-inkscape-font-specification:'Inconsolata Medium'" font-weight="500" font-family="Inconsolata" font-size="15" letter-spacing="0" word-spacing="0" fill="#000"/></g><g style="line-height:125%"><path d="M53.006 294.308v9.345H54.1v-4.125h1.83c.585 0 1.14-.015 1.71-.3.87-.435 1.32-1.335 1.32-2.28 0-.945-.45-1.86-1.335-2.31-.585-.315-1.17-.33-1.77-.33h-2.85zm1.095.99h1.755c.39 0 .765.015 1.155.195.57.3.885.9.885 1.5s-.3 1.155-.84 1.425c-.36.18-.72.195-1.08.195h-1.89l.015-3.315z" style="-inkscape-font-specification:'Inconsolata Medium'" font-weight="500" font-family="Inconsolata" font-size="15" letter-spacing="0" word-spacing="0" fill="#000"/></g><g style="line-height:125%"><path d="M114.536 294.218c-1.245 0-3.615.78-3.615 4.875 0 3.54 1.98 4.71 3.6 4.71.87 0 1.875-.315 2.745-.975v-3.645h-2.655v.9h1.695v2.235c-.525.375-1.125.57-1.68.57-.615 0-1.275-.24-1.785-.825-.78-.885-.885-2.205-.885-3.18 0-.87.105-1.71.465-2.4.48-.915 1.32-1.335 2.1-1.335.84 0 1.5.465 1.785 1.095.045.105.09.225.21.3l.735-.75c-.54-.975-1.56-1.575-2.715-1.575z" style="-inkscape-font-specification:'Inconsolata Medium'" font-weight="500" font-family="Inconsolata" font-size="15" letter-spacing="0" word-spacing="0" fill="#000"/></g><g style="line-height:125%"><path d="M170.354 294.308v9.36h5.595v-.9h-4.515v-7.95c0-.135.045-.18.09-.27.015-.045.06-.12.045-.24h-1.215z" style="-inkscape-font-specification:'Inconsolata Medium'" font-weight="500" font-family="Inconsolata" font-size="15" letter-spacing="0" word-spacing="0" fill="#000"/></g><g style="line-height:125%"><path d="M227.497 294.308l1.5 9.42h.42l1.635-6.18 1.605 6.18h.42l1.47-9.42h-.885l-.855 6.345-1.515-5.655h-.315l-1.5 5.64-1.02-6.33h-.96z" style="-inkscape-font-specification:'Inconsolata Medium'" font-weight="500" font-family="Inconsolata" font-size="15" letter-spacing="0" word-spacing="0" fill="#000"/></g><g style="line-height:125%"><path d="M287.013 294.308l2.88 5.67v3.675h1.14v-3.675l2.64-5.67h-1.11l-2.07 4.53-2.295-4.53h-1.185z" style="-inkscape-font-specification:'Inconsolata Medium'" font-weight="500" font-family="Inconsolata" font-size="15" letter-spacing="0" word-spacing="0" fill="#000"/></g><g transform="translate(0 -8)" stroke="#000" stroke-width="2"><path fill="#fff" fill-rule="evenodd" d="M143.403 31.335h58.246v58.246h-58.246z"/><circle r="2.765" cy="37.261" cx="172.341" fill="#000"/><circle cx="172.341" cy="84.392" r="2.765" fill="#000"/><circle r="2.765" cy="53.85" cx="150.222" fill="#000"/><circle cx="195.566" cy="53.85" r="2.765" fill="#000"/><circle cx="150.222" cy="67.434" r="2.765" fill="#000"/><circle r="2.765" cy="67.434" cx="195.566" fill="#000"/><circle r="2.765" cy="77.756" cx="158.701" fill="#000"/><circle cx="186.718" cy="77.756" r="2.765" fill="#000"/><circle cx="158.701" cy="44.265" r="2.765" fill="#000"/><circle r="2.765" cy="44.265" cx="186.718" fill="#000"/></g></svg>