<svg xmlns="http://www.w3.org/2000/svg" viewBox="0 0 348 348" fill="none">
    <path d="M5.08 5.776h336.91v337.67H5.08z" stroke-width="2" stroke="#000"/>
    <path d="M282.734 40.554c0-8.376 6.966-15.165 15.56-15.165 4.126 0 8.084 1.594 11 4.44 2.92 2.842 4.56 6.7 4.56 10.722 0 8.376-6.967 15.165-15.56 15.165-8.594 0-15.56-6.79-15.56-15.166z" stroke-width="2" stroke="#000"/>
    <g stroke="#000" stroke-width=".04" stroke-linejoin="round">
        <path d="M174 174l60.37 16.176 84.519-54.999-100.695-5.371zM174 174l16.176 60.37 89.89 45.696-45.696-89.89z" stroke-width="2"/>
        <path d="M174 174l-44.194 44.194 5.371 100.695 55-84.519z" stroke-width="2"/>
        <path d="M174 174l-60.37-16.176-84.519 54.999 100.695 5.371zM174 174l-16.176-60.37-89.89-45.696 45.696 89.89z" stroke-width="2"/>
        <path d="M174 174l44.194-44.194-5.371-100.695-55 84.519z" stroke-width="2"/>
    </g>
</svg>
