<svg xmlns="http://www.w3.org/2000/svg" viewBox="0 0 348 348" fill="none"><path d="M5.079 5.776h336.913v337.67H5.08z" stroke-width="2" stroke="#000"/><path d="M282.734 40.554c0-8.376 6.966-15.165 15.56-15.165 4.126 0 8.084 1.597 11.001 4.441 2.918 2.844 4.558 6.702 4.558 10.724 0 8.376-6.966 15.165-15.56 15.165-8.593 0-15.559-6.79-15.559-15.165z" stroke-width="2" stroke="#000"/><path stroke="#000" stroke-width="3" d="M108.832 140.832h130.335v130.335H108.832z"/><g stroke="#000" stroke-width="3"><path d="M57.922 167.727l16.702-16.703H41.355z"/><path fill="#fff" d="M40.752 179.15l17.205-17.205L75.16 179.15l-17.204 17.205z"/></g><path stroke="#000" stroke-width="3" d="M109.013 140.107h130.335v130.335H109.013z"/><g stroke="#000" stroke-width="3"><path d="M58.103 167L74.805 150.3h-33.27z"/><path fill="#fff" d="M40.933 178.424l17.205-17.204 17.204 17.204-17.204 17.205z"/></g><g stroke="#000" stroke-width="3"><path d="M97.244 90.311l16.702-16.702H80.677z"/><path fill="#fff" d="M80.074 101.735L97.28 84.53l17.205 17.205-17.205 17.204z"/></g><g stroke="#000" stroke-width="3"><path d="M173.922 71.205l16.702-16.702h-33.269z"/><path fill="#fff" d="M156.752 82.629l17.205-17.205L191.16 82.63l-17.204 17.204z"/></g><path stroke="#000" stroke-width="3" d="M238.757 141.785H108.422V272.12h130.335z"/><g stroke="#000" stroke-width="3"><path d="M289.667 168.68l-16.702-16.703h33.27z"/><path fill="#fff" d="M306.837 180.103l-17.204-17.205-17.205 17.205 17.205 17.204z"/></g><g stroke="#000" stroke-width="3"><path d="M289.487 167.954l-16.702-16.702h33.269z"/><path fill="#fff" d="M306.657 179.377l-17.205-17.205-17.205 17.205 17.205 17.205z"/></g><g stroke="#000" stroke-width="3"><path d="M250.345 91.264l-16.702-16.702h33.27z"/><path fill="#fff" d="M267.515 102.687l-17.204-17.204-17.205 17.204 17.205 17.205z"/></g></svg>