<svg xmlns="http://www.w3.org/2000/svg" fill="none" viewBox="0 0 348 348"><path stroke="#000" stroke-width="2" d="M5.08 5.776h336.91v337.67H5.08z"/><path stroke="#000" stroke-width="2" d="M282.734 40.554c0-8.376 6.966-15.165 15.56-15.165 4.126 0 8.084 1.594 11 4.44 2.92 2.842 4.56 6.7 4.56 10.722 0 8.376-6.967 15.165-15.56 15.165-8.594 0-15.56-6.79-15.56-15.166z"/><g color="#000"><path stroke="#000" stroke-width="2" d="M310.66 173.899c0 82.842-67.157 150-150 150s-150-67.158-150-150c0-82.843 67.157-150 150-150s150 67.157 150 150z"/><path d="M280.66 168.899c0 69.035-55.964 125-125 125-69.035 0-125-55.965-125-125 0-69.036 55.965-125 125-125 69.036 0 125 55.964 125 125z"/><path stroke="#000" stroke-width="2" d="M160.66 173.899L95.588 38.749m65.072 135.15L43.4 80.358m117.26 93.541L14.43 140.488m146.23 33.411L14.411 207.233m146.249-33.334l-117.31 93.48m117.31-93.48L95.517 309.015m65.143-135.116l-.078 150"/><path fill="#000" d="M52.698 279.11l-18.695-23.463 65.68-45.945 12.465 15.641zm56.331 36.42L82.005 302.5l39.247-69.89 18.016 8.686zM82.073 45.256l27.03-13.015 30.2 74.25-18.02 8.676zM34.045 92.084l18.709-23.452 59.42 53.797-12.472 15.635zm-22.958 63.027l6.683-29.246 76.876 22.693-4.455 19.498z"/><path stroke="#000" stroke-width="2" d="M160.66 173.899l65.073 135.15m-65.073-135.15l117.26 93.54m-117.26-93.54l146.232 33.41m-146.232-33.41l146.25-33.335m-146.25 33.335l117.31-93.48m-117.31 93.48l65.143-135.116M160.66 173.899l.079-150"/><path fill="silver" stroke="#000" stroke-width="2" d="M185.035 173.899c0 13.462-10.913 24.375-24.375 24.375s-24.375-10.913-24.375-24.375 10.913-24.375 24.375-24.375 24.375 10.913 24.375 24.375z"/><path fill="#000" d="M268.622 68.688l18.696 23.462-65.681 45.946-12.464-15.642zm-56.33-36.42l27.023 13.029-39.247 69.89-18.015-8.685zm26.956 270.274l-27.03 13.014-30.2-74.249 18.02-8.676zm48.027-46.828l-18.708 23.452-59.421-53.797 12.472-15.635zm22.958-63.027l-6.682 29.246-76.877-22.694 4.455-19.497z"/><path stroke="#000" stroke-width="3" d="M248.828 295.251l17.634 24.27m13.968 2.213c3.246 4.468 2.255 10.722-2.213 13.968-4.468 3.246-10.722 2.256-13.968-2.212-3.246-4.468-2.256-10.722 2.213-13.968 4.468-3.246 10.721-2.256 13.968 2.212zm-7.426-48.442l22.468 19.878m14.116-.863c4.136 3.66 4.523 9.98.863 14.116-3.66 4.136-9.979 4.523-14.115.863-4.137-3.66-4.523-9.98-.864-14.116 3.66-4.136 9.98-4.523 14.116-.863zm-17.735-45.687l26.239 14.545m13.594-3.899c4.83 2.678 6.576 8.764 3.898 13.595-2.677 4.83-8.764 6.575-13.594 3.898-4.83-2.678-6.576-8.764-3.898-13.594 2.677-4.83 8.764-6.576 13.594-3.899z"/></g></svg>