<svg xmlns="http://www.w3.org/2000/svg" viewBox="0 0 348 348" fill="none"><path d="M5.079 5.776h336.913v337.67H5.08z" stroke-width="2" stroke="#000"/><path d="M282.734 40.554c0-8.376 6.966-15.165 15.56-15.165 4.126 0 8.084 1.597 11.001 4.441 2.918 2.844 4.558 6.702 4.558 10.724 0 8.376-6.966 15.165-15.56 15.165-8.593 0-15.559-6.79-15.559-15.165z" stroke-width="2" stroke="#000"/><path d="M119.115 120.333H236.63v120.088H119.115z"/><path d="M146.564 110.897h46.32l18.596-47.732-42.105-42.843-44.029 42.554zM200.952 114.82l32.753 32.752 47.423-22.218V66.903h-58.78zM237.384 155.52v46.319l48.47 20.071 42.105-43.58-41.816-42.554zM232.708 209.031l-32.753 32.753 20.007 47.423h60.662l.737-60.254zM190.783 243.044h-46.32l-20.07 46.258 43.58 44.317 41.079-45.503zM136.395 239.122l-32.753-32.753-47.423 20.007v60.663h57.306zM99.963 198.422v-46.32l-47.733-20.07-42.842 43.58 41.816 44.028zM104.64 144.91l32.752-32.753-22.218-48.897-58.451 1.474v58.78z" stroke="#000" stroke-width="1.163"/><path d="M109.176 198.225V152.08l35.7-33.487h49.18l34.5 34.5v48.73l-32.376 31.638-53.89-.738z" stroke="#000" stroke-width="1.627"/><path d="M291.229 293.5h38.339v39.665l-39.076.827z" stroke="#000" stroke-width="1.059"/></svg>