<svg xmlns="http://www.w3.org/2000/svg" viewBox="0 0 348 348" fill="none"><path d="M5.079 5.776h336.913v337.67H5.08z" stroke-width="2" stroke="#000"/><path d="M282.734 40.554c0-8.376 6.966-15.165 15.56-15.165 4.126 0 8.084 1.597 11.001 4.441 2.918 2.844 4.558 6.702 4.558 10.724 0 8.376-6.966 15.165-15.56 15.165-8.593 0-15.559-6.79-15.559-15.165z" stroke-width="2" stroke="#000"/><path d="M181.476 154.801a18.884 13.666 0 0 1-9.442 11.835 18.884 13.666 0 0 1-18.884 0 18.884 13.666 0 0 1-9.442-11.835h18.884z" fill="#fff"/><g fill="#fff" stroke="#000" stroke-width="2"><path d="M204.306 107h-57.574l28.787-49.86zM146.732 263.76h57.574l-28.787 49.86z" transform="matrix(1.16422 0 0 1.15846 -28.823 -37.376)"/></g><g fill="#fff" stroke="#000" stroke-width="2"><path d="M204.306 107h-57.574l28.787-49.86zM146.732 263.76h57.574l-28.787 49.86z" transform="matrix(0 1.15846 -1.16422 0 391.341 -25.952)"/></g><g fill="#fff" stroke="#000" stroke-width="2"><path d="M204.306 107h-57.574l28.787-49.86zM146.732 263.76h57.574l-28.787 49.86z" transform="scale(-1.16422 -1.15846) rotate(-45 -396.223 409.987)"/></g><g fill="#fff" stroke="#000" stroke-width="2"><path d="M204.306 107h-57.574l28.787-49.86zM146.732 263.76h57.574l-28.787 49.86z" transform="scale(-1.16422 -1.15846) rotate(45 420.98 -377.724)"/></g><ellipse cx="174.861" cy="230.283" rx="11.588" ry="11.531" fill="#fff" stroke="#000" stroke-width="2.323"/><ellipse cy="178.152" cx="174.861" rx="11.588" ry="11.531" fill="#fff" stroke="#000" stroke-width="2.323"/><ellipse cx="174.861" cy="126.022" rx="11.588" ry="11.531" fill="#fff" stroke="#000" stroke-width="2.323"/></svg>