<svg xmlns="http://www.w3.org/2000/svg" viewBox="0 0 348 348" fill="none"><path d="M5.079 5.776h336.913v337.67H5.08z" stroke-width="2" stroke="#000"/><path d="M282.734 40.554c0-8.376 6.966-15.165 15.56-15.165 4.126 0 8.084 1.597 11.001 4.441 2.918 2.844 4.558 6.702 4.558 10.724 0 8.376-6.966 15.165-15.56 15.165-8.593 0-15.559-6.79-15.559-15.165z" stroke-width="2" stroke="#000"/><path d="M164.807 47.96l-58.424 57.551 20.056 16.568h81.968l22.671-21.8zM176.571 300.485l58.424-57.552-20.056-16.568h-81.968l-22.671 21.8zM42.285 178.406l57.551 58.423 16.568-20.056v-81.967l-21.8-22.672zM296.035 170.558l-57.552-58.424-16.568 20.056v81.968l21.8 22.671zM125.567 131.671l3.488 81.095 81.095-1.744v-78.479z" stroke="#000"/><path d="M162.138 14.002L12.26 176.092M324.229 163.879L162.138 14.002M324.229 163.879l-149.877 162.09M174.352 325.97L12.26 176.093" stroke="#000" stroke-width="1.146"/></svg>