<svg xmlns="http://www.w3.org/2000/svg" viewBox="0 0 348 348" fill="none"><path d="M5.08 5.776h336.91v337.67H5.08z" stroke-width="2" stroke="#000"/><path d="M282.734 40.554c0-8.376 6.966-15.165 15.56-15.165 4.126 0 8.084 1.594 11 4.44 2.92 2.842 4.56 6.7 4.56 10.722 0 8.376-6.967 15.165-15.56 15.165-8.594 0-15.56-6.79-15.56-15.166z" stroke-width="2" stroke="#000"/><path stroke="#000" stroke-width="2" stroke-miterlimit="10" d="M62.031 73.901h63v63h-63zm139.726 0h63v63h-63zM137.02 98.11h52.747v50.696H137.02zm16.68 159.627h19.031v57.094H153.7z"/><path fill="#fff" stroke="#000" stroke-width="2" stroke-miterlimit="10" d="M59.468 179.85h209.675v96.891H59.468z"/><path d="M103.273 93.484H83.79v23.834h19.303" stroke="#000" stroke-width="2" stroke-linecap="square"/><path d="M223.58 93.322v24.159m19.353-24.159v24.159m-18.526-12h17.828" stroke="#000" stroke-width="2" stroke-linecap="square" stroke-miterlimit="10"/></svg>