<svg xmlns="http://www.w3.org/2000/svg" viewBox="0 0 348 348" fill="none"><path d="M5.079 5.776h336.913v337.67H5.08z" stroke-width="2" stroke="#000"/><path d="M282.734 40.554c0-8.376 6.966-15.165 15.56-15.165 4.126 0 8.084 1.597 11.001 4.441 2.918 2.844 4.558 6.702 4.558 10.724 0 8.376-6.966 15.165-15.56 15.165-8.593 0-15.559-6.79-15.559-15.165z" stroke-width="2" stroke="#000"/><g fill-rule="evenodd" stroke="#000"><path d="M69.305 93.424c97.718-5.55 109.934 99.43 207.915 92.898M70.78 86.898c76.414 3.689 168.313-1.85 197.593 4.424M81.102 179.898c85.577 13.314 162.038 94.625 191.695 110.594M84.05 278.695c117.02-47.254 174.308-80.997 193.17-101.746M79.627 176.95c78.628-33.387 152.918-51.424 179.898-81.103" stroke-width="4" transform="matrix(1.01542 0 0 1.06174 .824 6.92)"/><path fill="#000" fill-opacity=".624" d="M57.712 79.305h38.339v38.339H57.712zM57.712 167.305h38.339v38.339H57.712zM57.712 255.305h38.339v38.339H57.712zM245.712 79.305h38.339v38.339h-38.339zM245.712 167.305h38.339v38.339h-38.339zM245.712 255.305h38.339v38.339h-38.339z" transform="matrix(1.01542 0 0 1.06174 .824 6.92)"/></g><g style="line-height:125%;text-align:center"><path d="M41.601 95.915l.176.176.37.352h.177l-.352 1.445.723 1.992.722.723v3.789q.528.488 1.426 4.336l.723.722-.176.176v.723l.176.722-.176.723 1.094 3.242h-.195l.546.899-.546.918q.625 0 1.093 2.168l-.175 1.25q0 .547 1.62 1.093l.528 1.446-.723.527h-.175l-.528-.351h-.37l-2.345.722h-.175l-.723-.176-.723.176h-.37l-.9-.547-3.788.547q-.938 0-1.446-.898v-.196q1.094-.664 1.094-2.343l-.371-1.25.176-.196-.352-1.62.176-.177v-.722h-1.621l-1.445.351q-.47-.351-1.797-.351l-.196-.176v-1.64q0-.352 1.094-.528l.723.723h1.25l.918-.196-.547-3.066.176-1.074q-.547 0-1.27-3.965l.195-.547-1.62-5.781.175-.528-.176-1.64q.137-1.074 1.075-1.074l.898.175 5.957-1.074zm-8.652 6.133h.175l.176.547-.176.527.176 1.817q0 2.363-1.074 3.789 0 2.265-1.445 5.058l.176.528-.176 1.27.176 1.269-.547.175.175 1.075-.527 1.445v.176q0 1.582 2.344 1.816h.351v.176q0 2.168-1.25 2.168h-2.168q-.605 0-1.27-.547l-2.519.547q-.703 0-1.27-1.992v-.352q2.169 0 2.169-1.992 1.66-1.66 3.066-5.762l-.176-.547 1.973-6.68.371-.37-.176-.528q0-2.207 1.446-3.613zm19.043-9.004q-.45-.137-.45-.234l-.625.156-.078-.078h-.078l-.469.156-.859-.078-2.344.469-1.953-.235-1.172.078-.078-.078-.312.078h-.938l-1.015-.312h-.625l-.782.234h-.078q-1.035 0-1.406-.234l-.547.156-1.562-.156q0 .117-1.094.234l-.703-.078h-.938q-2.05 0-2.265.313h-.391l-2.344-.39-.469.077-.859-.156-1.406.156h-.313l-1.172.313q-.859 0-1.093-.625.39-.586.39-1.25l-.078-.313q0-.547 1.094-.547l1.64.235q.294-.235.704-.235h.312q.39 0 .469.235l2.187-.235 1.641.47 1.25-.392v.079l1.016-.235.468.078.313-.078.234.235h.235l.234-.235.703.156 1.172-.156q.273.235 1.172.313l.39-.235.391.235.39-.078.313.078.547-.078 1.25.156 1.328-.313 1.094.157.469-.079h1.25l.703-.234.547.156.234-.078.547.156h.078l.078-.078 1.094.235.313-.078.78.156.938-.235h.235l.293.079v2.187zm0 35.899l-.274-.079-2.187.313-.078-.078-.391.078-.469-.078-1.172.156q-.605 0-1.406-.234h-.078q-.293.234-.547.234h-.234q-.469 0-.938-.469l-.937.157-.313-.079-.312.079h-.625q-.45.312-.703.312l-.625-.078h-.079l-.078.078-.39-.234-.47.234-.468-.156q-.293.234-.703.234h-.234l-.625-.234q-1.563 0-3.047.234-.723 0-1.25-.469 0 .313-1.094.391l-.469-.078-.547.156q-1.035-.156-1.25-.312h-.078l-.078.078-1.719-.156q-.996 0-1.25.312h-.156l-.312-.234-.47.156-.077-.078h-.235q-.488.156-1.875.234l-.546-.312v-.078l.078-.078q.312-.118.312-.235v-.078l-.234-.234.156-.547v-.078q0-.157-.234-.157v-.312l.312-.547q.899 0 1.563.234.898 0 1.172-.312h.39l1.328.234h.235l.86-.234q1.66.254 1.952.469h.313q.39 0 .468-.235h.079l.078.078h.312q0-.156 1.797-.39l.469.078h.078l.078-.078q.313.117.313.234l.546-.078h.547l2.032.39.78-.312v.078q.743 0 1.407-.234l.781.156q1.485 0 2.266-.312 1.562.547 2.11.547h.39q.937-.313 1.797-.391l.234.234h.235v-.156h.234q0 .234.39.234h.157l.078-.078.39.235h.235q.156-.157.625-.157l.39-.39 1.29.332v2.09z" style="-inkscape-font-specification:'Top Secret Bold';text-align:center" font-weight="700" font-family="Top Secret" font-size="40" letter-spacing="0" word-spacing="0" text-anchor="middle" fill="#000"/></g><g style="line-height:125%;text-align:center"><path d="M28.593 191.179l1.973.351 1.074-.176q.918.723 3.242.723v.176l-.547 2.52v.175q.352.352.352 1.445l.371.352-.371 6.64.547 1.798v1.62l.351 1.798q-.898 3.32-.898 5.019v.352l.723.898v.547q0 2.09-.899 2.695l-.898-.176h-.176l-.723.528q-.37-.352-1.972-.352l-.528-.547-.547.371-.351-.37h-.899l-1.972 1.074q-.196.546-1.094.546h-.176q-.351 0-1.074-2.148v-.371q0-.293 1.445-.899h.176l.176.196.547-.196v-1.601l-.196-1.094q.372-.254.547-3.77l-.547-2.5.196-.898v-1.074l-.371-1.445.37-1.25v-.176l-.195-2.168.196-1.797-.196-1.074.196-.528-.196-1.093.196-.899q0-.703-1.797-.703-.547-.664-.547-1.27l1.074-.898h.176l.547.371h.547q2.148-.449 2.148-.722zm8.438.175l2.87.176 1.25-.176q4.513 1.075 5.567 3.243 1.446 2.636 1.446 4.12 0 3.36-5.743 5.567v.176q3.047.371 3.047 1.074.684 1.64 2.52 2.344l.351 2.324v1.621l.176 1.25q-.43 0-1.074 2.344h-.352v.176l.176.547q-3.555 2.324-5.39 2.324h-.547q-.352 0-.352-.528h-1.797l-1.62.176q-.704-.176-.704-1.074v-.547q0-.351 1.797-.898l.898-2.325h-.195l.195-.195v-.898l.352-3.047q0-1.856-2.871-3.77l-.723-1.425.176-.547h.37q2.5 0 2.872-2.52v-1.25q-.547-.664-.547-2.52l.176-1.796q-.82-1.426-2.324-1.426-.547 0-.547-.371l.37-.703-.194-1.27.195-.176h.176zm14.843-2.812l-1.113-.215-.781.313v-.079q-.742 0-1.406.235l-.782-.156q-1.484 0-2.265.312-1.563-.547-2.11-.547h-.39q-.938.313-1.797.39l-.234-.234h-.235v.157h-.234q0-.235-.39-.235h-.157l-.078.078-.39-.234h-.235q-.156.156-.625.156l-.39.39-2.188-.546h-.078l-1.016.469-.078-.078h-.703q-.118 0-.235-.313l-1.718.235q-.43-.157-1.094-.157-.332 0-.703.235l-.47-.235h-.39l-.86.078-.937-.234q-.996.215-1.171.469l-.391-.235q-.606 0-1.172.547-.332-.078-.625-.39-.547-.118-.879-.235v-2.187l.332.078.078-.078.703.078.313-.156.312.156h.86l.625-.234h.078l.078.078 1.25-.313.781.39h.703l.782-.077.156.156.156-.156.938.078h.78l.392.078.234-.235.703.235.313-.078h.078l.078.078.469-.235.859.157.547-.078 1.094.312 2.187-.312.078.078.39-.078.47.078 1.171-.157q.606 0 1.407.235h.078q.293-.235.547-.235h.234q.469 0 .938.47l.937-.157.313.078.312-.078h.625q.45-.313.703-.313l.625.079h.078l.078-.079.391.235.469-.235.469.157q.293-.235.703-.235h.234l.625.235h.567v2.246zm-.058 36.172l-.41.058q-.274-.234-1.172-.312l-.39.234-.391-.234-.391.078-.313-.078-.546.078-1.25-.156-1.329.312-1.093-.156-.469.078h-1.25l-.703.234-.547-.156-.234.078-.547-.156h-.078l-.079.078-1.093-.234-.313.078-.781-.156-.938.234h-.234l-.625-.156-.078.078-.703-.078-.313.156-.312-.156h-.86l-.625.234h-.078l-.078-.078-1.25.313-.781-.391h-.703l-.781.078-.157-.156-.156.156-.937-.078h-.782l-.39-.078-.235.234-.703-.234-.312.078h-.078l-.079-.078-.468.234-.86-.156-.547.078-.82-.234v-2.09l.899.215h.078l1.015-.47.078.079h.704q.117 0 .234.313l1.719-.235q.43.156 1.093.156.332 0 .704-.234l.468.234h.39l.86-.078.938.235q.996-.215 1.172-.47l.39.235q.606 0 1.172-.547.332.079.625.391 1.328.293 1.328.469l.625-.156.078.078h.079l.468-.157.86.079 2.343-.47 1.954.235 1.171-.078.079.078.312-.078h.938l1.015.313h.625l.781-.235h.079q1.035 0 1.406.235l.547-.157 1.035.098v2.344z" style="-inkscape-font-specification:'Top Secret Bold';text-align:center" font-weight="700" font-family="Top Secret" font-size="40" letter-spacing="0" word-spacing="0" text-anchor="middle" fill="#000"/></g><g style="line-height:125%;text-align:center"><path d="M35.097 286.077l.527.176v1.582q0 1.21-1.777 1.406l.176.176-.527.898.175 1.23-.351.352v1.23l.176.176-.176.176v.176l.351 1.406v.528q-1.054 2.52-1.054 3.535l1.054 3.164-.351 1.055v1.25l.527 2.46-.527 1.583v.703q0 .937 2.48 3.007l-.351 1.23h-.176q-.918 0-1.602-.526h-.351l-1.582.175q-.84-.136-1.406-.879l-3.711-1.953.351-.879q-1.23-.273-1.23-.878l.175-.176v-.176l-1.757-4.395q.351-.78.351-2.832l-.527-2.812q0-3.73 2.11-4.766l.175-.176v-.175l-.527-.88q.449-.898 1.582-1.581.293-1.29 4.062-3.535 0-.41 3.711-1.055zm3.867.176q0 .468 2.657 1.406 1.23 0 2.285-1.23h.351q.88.449.88 1.582 0 .878-.352.878.351.43.527 2.832l-.176 2.989.528 1.406q-.508 1.25-1.582 1.25 0-.469-.88-.703l-1.406-4.766q-.449 0-1.425-1.23-.88-.137-.88-.528l.176-.722q-.878-.645-2.636-.88 0-1.933 1.054-1.933 0-.351.88-.351zm6.172 19.57l.176.176q-.215 2.734-1.055 4.043-1.23 0-1.23 1.426l-2.656.878v-.175l-1.934 1.933h-1.055q-.703-.293-.703-1.23v-.703q0-.313 4.57-2.305 1.954-4.043 3.887-4.043zm3.672 13.398l-.312.098-.235-.078-.469.156q0-.39-1.093-.469l-1.328.313h-.625l-.704-.078h-.078l-.078.078-.86-.078h-.39l-.234-.156h-.235l-.468.156-.235-.156q0 .156-1.64.234-.157-.156-.938-.234 0 .156-.703.234 0-.195-.86-.313h-.859l-.547.235-1.64-.313-.547.157h-.078l-.078-.078-.547.156-1.328-.235-.625.235h-.078l-.079-.078-1.171.156-1.094-.313-1.563.313-1.484-.078-.625.078q0-.137-.781-.156h-.547l-.156-.157v-.156l.156-.625v-.234l-.156-.235v-.312q0-.547.625-.625 1.503.078 1.64.234h.078l.078-.078.313.156q0-.293 2.344-.39l1.328.312h.312l.078-.078.079.078h.156l.39-.078.47.078h.312l1.015-.156.86.156h.78l.704.235 1.094-.235h.078l.703.078 1.094-.312.937.234h.782l.078-.078.078.078h.312l.703.078 2.344-.234.235.078.234-.078.312.078h.079l.078-.078.547.078.937-.156 1.25.156 1.172-.312.703.117v2.597zm0-35.644l-1.035.137q-.606 0-1.406-.235h-.078q-.293.235-.547.235h-.235q-.468 0-.937-.47l-.938.157-.312-.078-.313.078h-.625q-.449.313-.703.313l-.625-.078h-.078l-.078.078-.39-.235-.47.235-.468-.157q-.293.235-.703.235h-.235l-.625-.235q-1.562 0-3.047.235-.722 0-1.25-.469 0 .313-1.093.39l-.47-.077-.546.156q-1.035-.156-1.25-.313h-.078l-.078.078-1.719-.156q-.996 0-1.25.313h-.156l-.313-.235-.468.157-.079-.079h-.234q-.488.157-1.875.235l-.547-.313v-.078l.078-.078q.313-.117.313-.234v-.078l-.235-.235.157-.547v-.078q0-.156-.235-.156v-.312l.313-.547q.898 0 1.562.234.899 0 1.172-.312h.39l1.329.234h.234l.86-.234q1.66.253 1.953.468h.312q.39 0 .469-.234h.078l.078.078h.313q0-.156 1.797-.39l.468.077h.079l.078-.078q.312.118.312.235l.547-.078h.547l2.031.39.781-.312v.078q.743 0 1.407-.234l.78.156q1.485 0 2.267-.313 1.562.547 2.109.547h.39q.938-.312 1.797-.39l.235.234h.234v-.156h.235q0 .058.02.097v2.344z" style="-inkscape-font-specification:'Top Secret Bold';text-align:center" font-weight="700" font-family="Top Secret" font-size="40" letter-spacing="0" word-spacing="0" text-anchor="middle" fill="#000"/></g><g style="line-height:125%;text-align:center"><path d="M303.077 95.857l1.075 1.074.546-.176 1.25.176q2.54-.41 2.54-.899.41.371 2.167.371l.176.176v.723l-.176 2.344.176 1.27q-.547 0-.722 2.167l.898 2.695-.352 2.344.723 1.27-.547 2.168h.176l-.176.176v.546l.176 1.075q-.547 1.464-.547 2.714v1.973q.45.547.723 2.344 1.172.488 1.27.918-.313 1.62-.723 1.62l-.547-.546q-1.621.898-3.594.898l-1.992-.722q-3.34.547-4.688 1.27l-.195-.176v-1.817q.508-1.191 2.54-1.62l.175-1.25v-.196q-.899-.84-.899-2.696l.352-.722-.176-1.27v-1.62q.547-.684.547-1.622v-1.27l-.723-.722.352-3.965-.176-1.074q.547-.117.547-1.445v-1.27q-.723 0-.723-1.094h.176q-.293-.898-1.27-.898l-.722.195-.352-.547q0-2.656 2.715-2.89zm11.504-2.97l-1.758.333h-.546l-.547-.078q0 .117-.313.234l-.078-.078h-.078l-.469.078q-1.797-.234-1.797-.39h-.312l-.078.078h-.078q-.078-.235-.47-.235h-.312q-.293.215-1.953.469l-.86-.234h-.234l-1.328.234h-.39q-.274-.312-1.172-.312-.664.234-1.563.234l-.312-.547v-.312q.234 0 .234-.157v-.078l-.156-.547.234-.234v-.078q0-.117-.312-.235l-.078-.078v-.078l.547-.312q1.386.078 1.875.234h.234l.078-.078.469.156.312-.234h.157q.254.312 1.25.312l1.718-.156.078.078h.079q.214-.156 1.25-.312l.546.156.47-.078q1.093.078 1.093.39.527-.468 1.25-.468 1.484.234 3.047.234l.273-.098v2.188zm0 36.056q-.644.078-.879.273l-1.172-.156-.703.156-.234-.234h-.234l-.235.234-.312-.078-.47.078-1.015-.234v.078l-1.25-.39-1.64.468-2.188-.235q-.078.235-.469.235h-.312q-.41 0-.703-.235l-1.64.235q-1.095 0-1.095-.547l.079-.313q0-.664-.391-1.25.234-.625 1.094-.625l1.172.313h.312l1.406.156.86-.156.468.078 2.344-.39h.39q.216.312 2.266.312h.938l.703-.078q1.094.117 1.094.234l1.562-.156.254.078v2.148z" style="-inkscape-font-specification:'Top Secret Bold';text-align:center" font-weight="700" font-family="Top Secret" font-size="40" letter-spacing="0" word-spacing="0" text-anchor="middle" fill="#000"/></g><g style="line-height:125%;text-align:center"><path d="M307.765 191.179l.351.351v1.074q0 .743-1.25 1.797l1.602 1.953.371 1.973v.879q-1.074 1.035-1.074 1.621l-1.074 1.055-.723.195q-.684-.547-3.203-.723-.567-.468-1.778-2.675v-1.25l.176-.176-.176-.176v-.195q0-1.582 1.25-2.13 0-1.269 4.278-2.675.351-.898 1.25-.898zm1.953 0h.195q5.371.644 5.528 1.777 3.027 0 3.75 6.25v.547q0 .664-.723 1.777v.176l.176.176v.195q-.39 0-.703 2.129-2.325.684-2.325 2.324h-2.148q-.293 0-.527.899-.508 0-.899.527l-.176-.176h-.351q-.606 0-3.574 1.426l-1.075.176-.527-.176-2.324 1.074q0-.547 2.5-2.148.781-1.016 3.574-2.852 1.25-3.594 1.25-4.453l-.371-1.074v-.547l.195-2.852q-1.445-1.738-1.445-2.324v-.176l.195-1.601-.195-1.074zm9.648 18.75l.528 2.129q0 2.89-2.305 4.472-.195.508-3.574 2.676h-.176l-2.148-.527h-.176l-.547.351q-1.719 0-3.027-1.074h-.352l-.547.352h-.176q-.351 0-.351-.528h-1.602l-1.426-.351q-.878.527-2.324.527h-.547l-.351-.352q0-1.62.722-1.62.684 0 1.25-2.852 2.325-.703 2.676-1.778h.528q1.25.059 1.25.352l1.425-.352h.723q1.113 0 3.379 1.426l1.445.176 1.055-.352 1.426.176 2.324-2.676.898-.175zm3.047-21.778l-.215.059-.859-.078h-.39l-.47.234q-.37-.234-.702-.234-.665 0-1.094.156l-1.719-.234q-.117.312-.234.312h-.703l-.079.078-1.015-.468h-.078l-2.188.546-.39-.39q-.47 0-.625-.156h-.235l-.39.234-.079-.078h-.156q-.39 0-.39.234h-.235v-.156h-.234l-.235.234q-.859-.078-1.796-.39h-.391q-.547 0-2.11.547-.78-.313-2.265-.313l-.781.156q-.664-.234-1.407-.234v.078l-.78-.312-.274.058v-2.187l.351-.137h.235q.41 0 .703.234l.469-.156.468.234.391-.234.078.078h.078l.625-.078q.254 0 .703.313h.625l.313.078.312-.078.938.156q.469-.469.937-.469h.235q.254 0 .547.234h.078q.8-.234 1.406-.234l1.172.156.469-.078.39.078.078-.078 2.188.313 1.094-.313.546.078.86-.156.469.234.078-.078h.078l.312.078.703-.234.235.234.39-.078h.782l.937-.078.156.156.157-.156.78.078h.704l.45-.234v2.441zm0 35.977h-.82l-.938.078-.156-.156-.156.156-.781-.078h-.703l-.782.39-1.25-.312-.078.078h-.078l-.625-.234h-.86l-.312.156-.312-.156-.703.078-.079-.078-.625.156h-.234l-.937-.234-.782.156-.312-.078-1.094.234-.078-.078h-.078l-.547.156-.234-.078-.547.156-.703-.234h-1.25l-.47-.078-1.093.156-1.328-.312-1.25.156-.547-.078-.312.078-.391-.078-.39.234-.391-.234-.293.039v-2.149l.293.079q.37-.235 1.406-.235h.078l.781.235h.625l1.016-.313h.938l.312.078.078-.078 1.172.078 1.953-.234 2.344.469.86-.079.468.157h.078l.078-.078.625.156q0-.176 1.328-.469.293-.312.625-.39.567.546 1.172.546l.39-.234q.177.254 1.173.469l.937-.235.86.078h.39l.469-.234q.371.234.703.234.664 0 1.094-.156l.273.04v2.304z" style="-inkscape-font-specification:'Top Secret Bold';text-align:center" font-weight="700" font-family="Top Secret" font-size="40" letter-spacing="0" word-spacing="0" text-anchor="middle" fill="#000"/></g><g style="line-height:125%;text-align:center"><path d="M310.411 286.136l1.25.175.723-.175q5.234 1.796 5.234 2.343.45 1.035 1.446 1.621v.371h.175l-.175.176v.176l.898 3.613q-1.621 1.836-1.621 2.715-.606 0-3.418 3.242v.176l.898.176h.352l.176-.176q2.89 1.504 2.89 3.438 1.621.625 1.621 1.25 0 1.796-1.25 3.613 0 .86-.898 1.445-.82 2.11-3.262 2.89l-5.039.723-.37-1.62q1.093 0 1.444-1.641.547 0 .547-.528l-.175-2.539v-1.074l-.196-.176.547-2.168v-1.816q-1.66-1.973-3.613-1.973l-.352-.547v-.351q.254-.606 3.418-1.621v-1.446l.547-.917-.176-.528.352-1.816-.723-.723.196-.898-.196-.547.196-1.973q0-.37-1.446-1.27v-1.62zm-2.168.175l.723 1.27v.351q-1.621.196-2.344.723 0 1.23 2.149 3.438l.195.722v.176q-1.602 3.242-3.438 3.242-3.964-1.074-3.964-3.789l.351-.723-.176-1.445q0-1.308 1.817-1.426 0-1.093 1.62-1.64 0-.664 3.067-.899zm-2.715 17.5q0 .723 1.446.723 1.27.488 1.27 3.066h.175l-.723 1.641.176.898-1.797.899q0 .82 1.797 1.074l.196-.176.351.899-.351 1.094-.196-.176h-.176l-.898.351-4.336-1.992q-1.309-1.875-2.168-2.52v-.351h-.176l.723-3.086q1.445-.078 1.445-1.426 1.27-.82 3.242-.918zm17.54-20.703h-1.153l-.703.078q-1.094-.117-1.094-.234l-1.562.156-.547-.156q-.371.234-1.406.234h-.078l-.782-.234h-.625l-1.015.312h-.938l-.312-.078-.078.078-1.172-.078-1.953.235-2.344-.47-.86.079-.468-.156h-.078l-.078.078-.625-.156q0 .175-1.329.468-.293.313-.625.391-.566-.547-1.171-.547l-.391.235q-.176-.254-1.172-.47l-.723.177v-2.442l.332-.156 1.25.312.079-.078h.078l.625.235h.859l.312-.157.313.157.703-.078.078.078.625-.157h.235l.937.235.781-.156.313.078 1.094-.235.078.078h.078l.547-.156.234.078.547-.156.703.234h1.25l.469.078 1.094-.156 1.328.313 1.25-.157.547.079.312-.079.39.079.391-.235.39.235q.9-.079 1.173-.313l1.172.156.703-.156.234.234h.235l.234-.234.312.078.47-.078.527.117v2.383zm0 35.899q-.196-.078-.196-.215-.527.469-1.25.469-1.484-.235-3.047-.235l-.625.235h-.234q-.41 0-.703-.235l-.469.156-.469-.234-.39.234-.078-.078h-.078l-.625.078q-.254 0-.704-.312h-.625l-.312-.078-.313.078-.937-.156q-.469.468-.938.468h-.234q-.254 0-.547-.234h-.078q-.8.234-1.406.234l-1.172-.156-.469.078-.39-.078-.079.078-2.187-.312-1.094.312-.547-.078-.86.156-.468-.234-.078.078h-.078l-.313-.078-.703.234-.234-.234-.352.078v-2.305l1.446.196q.117-.313.234-.313h.703l.078-.078 1.016.469h.078l2.188-.547.39.39q.469 0 .625.157h.235l.39-.234.078.078h.157q.39 0 .39-.235h.235v.157h.234l.234-.235q.86.078 1.797.39h.39q.548 0 2.11-.546.781.312 2.266.312l.781-.156q.664.235 1.406.235v-.079l.782.313 2.03-.39h.548l.547.077q0-.117.312-.234l.078.078h.078l.469-.078q.586.078.977.137v2.422z" style="-inkscape-font-specification:'Top Secret Bold';text-align:center" font-weight="700" font-family="Top Secret" font-size="40" letter-spacing="0" word-spacing="0" text-anchor="middle" fill="#000"/></g></svg>