<svg xmlns="http://www.w3.org/2000/svg" fill="none" font-family="Arial" viewBox="0 0 348 348"><path stroke="#000" stroke-width="2" d="M5 5.8h337v337.6H5z"/><path stroke="#000" stroke-width="2" d="M282.7 40.6c0-8.4 7-15.2 15.6-15.2 4.1 0 8 1.6 11 4.4a15 15 0 014.6 10.8c0 8.3-7 15.1-15.6 15.1s-15.6-6.8-15.6-15.1z"/><path fill="#fff" stroke="#000" d="M17.627 63.754V16.357H77.89v94.937H17.627v-47.54z"/><text x="26.067" y="156.146" fill="#000" font-family="sans-serif" font-size="40" font-weight="400" letter-spacing="0" word-spacing="0" style="line-height:125%"><tspan x="26.067" y="156.146" fill="#fff" font-size="32.5">&gt;: â–</tspan></text><path fill="#fff" stroke="#000" d="M17.627 168.797V121.4H77.89v94.937H17.627v-47.54z"/><path fill="#fff" stroke="#000" stroke-width="2.121" d="M87.382 115.811V16.917h129.9v198.085h-129.9v-99.19z"/><path fill="#fff" stroke="#000" d="M17.627 273.754v-47.397H77.89v94.937H17.627v-47.54zm70 0v-47.397h60.264v94.937H87.627v-47.54zm70 0v-47.397h60.264v94.937h-60.264v-47.54z"/><g aria-label="MAINDISPLAY" style="line-height:125%" font-weight="400" font-size="25" font-family="sans-serif" letter-spacing="0" word-spacing="0" fill="#000" text-anchor="middle"><path d="M135.824 109.226h-2.417V93.564l-5.054 10.657h-1.44l-5.017-10.657v15.662h-2.258V91.05h3.295l4.847 10.12 4.687-10.12h3.357zM155.062 109.226h-2.575l-1.783-5.066h-7.86l-1.783 5.066h-2.454l6.617-18.176h3.222zm-5.102-7.141l-3.186-8.923-3.198 8.923zM164.23 109.226h-7.178v-1.855h2.38V92.905h-2.38V91.05h7.178v1.855h-2.38v14.466h2.38zM182.235 109.226h-2.99l-8.619-16.26v16.26h-2.258V91.05h3.748l7.86 14.843V91.05h2.26zM114.999 131.406q0 2.478-1.087 4.492-1.074 2.015-2.868 3.125-1.245.77-2.783 1.111-1.526.342-4.029.342h-4.59V122.3h4.541q2.662 0 4.224.39 1.575.379 2.661 1.05 1.856 1.16 2.893 3.089 1.038 1.928 1.038 4.577zm-2.527-.036q0-2.137-.745-3.601-.744-1.465-2.221-2.308-1.074-.61-2.283-.842-1.208-.244-2.893-.244h-2.27V138.4h2.27q1.746 0 3.04-.257 1.306-.256 2.392-.952 1.355-.866 2.026-2.282.684-1.416.684-3.54zM125.338 140.476h-7.177v-1.855h2.38v-14.466h-2.38V122.3h7.177v1.855h-2.38v14.466h2.38zM142.684 135.288q0 1.062-.5 2.1-.488 1.037-1.38 1.757-.976.782-2.282 1.221-1.294.44-3.125.44-1.965 0-3.54-.367-1.563-.366-3.186-1.086v-3.027h.17q1.38 1.147 3.187 1.77 1.806.622 3.393.622 2.246 0 3.491-.842 1.258-.842 1.258-2.246 0-1.209-.598-1.782-.586-.574-1.795-.892-.915-.244-1.99-.402-1.062-.16-2.258-.403-2.417-.513-3.589-1.746-1.16-1.245-1.16-3.235 0-2.282 1.93-3.735 1.928-1.465 4.894-1.465 1.917 0 3.516.366 1.6.367 2.832.904v2.856h-.17q-1.038-.879-2.735-1.453-1.685-.585-3.455-.585-1.94 0-3.125.805-1.172.806-1.172 2.075 0 1.136.586 1.783t2.063.988q.781.171 2.222.415 1.44.245 2.441.5 2.027.538 3.052 1.624 1.025 1.087 1.025 3.04zM158.456 127.793q0 1.208-.427 2.246-.415 1.025-1.172 1.782-.94.94-2.222 1.416-1.282.464-3.235.464h-2.417v6.775h-2.417V122.3h4.932q1.636 0 2.77.28 1.136.269 2.015.855 1.038.696 1.6 1.733.573 1.038.573 2.625zm-2.515.06q0-.939-.33-1.635-.329-.696-1-1.135-.586-.379-1.343-.537-.745-.171-1.892-.171h-2.393v7.263h2.039q1.465 0 2.38-.256.916-.269 1.49-.843.573-.585.805-1.232.244-.647.244-1.453zM173.153 140.476h-11.499V122.3h2.417v16.028h9.082zM189.901 140.476h-2.575l-1.783-5.066h-7.861l-1.782 5.066h-2.454l6.616-18.176h3.223zm-5.102-7.141l-3.186-8.923-3.199 8.923zM204.55 122.3l-6.397 10.205v7.971h-2.417v-7.715l-6.42-10.461h2.673l4.968 8.13 5.017-8.13z" style="text-align:center"/></g><g aria-label="RACE" style="line-height:125%" font-weight="400" font-size="12.5" font-family="sans-serif" letter-spacing="0" word-spacing="0" fill="#000" text-anchor="middle"><path d="M38.44 69.604h-1.568l-3.04-3.613H32.13v3.613H30.92v-9.088h2.546q.823 0 1.373.11.55.103.989.378.494.311.769.787.28.47.28 1.197 0 .982-.494 1.648-.494.659-1.361.995zm-2.825-6.53q0-.391-.14-.69-.135-.306-.452-.513-.263-.177-.623-.244-.36-.074-.848-.074H32.13v3.43h1.22q.574 0 1.002-.097.427-.104.726-.378.274-.257.403-.586.134-.336.134-.849zM46.778 69.604H45.49l-.89-2.533h-3.931l-.891 2.533H38.55l3.308-9.088h1.611zm-2.551-3.57l-1.593-4.462-1.6 4.461zM55.177 68.945q-.336.146-.61.274-.27.129-.709.269-.372.116-.811.195-.434.086-.959.086-.988 0-1.8-.275-.806-.28-1.404-.873-.586-.58-.916-1.47-.33-.898-.33-2.082 0-1.123.318-2.008t.916-1.495q.58-.592 1.397-.904.824-.31 1.825-.31.733 0 1.46.176.732.177 1.623.623v1.434h-.092q-.75-.629-1.49-.916-.738-.286-1.58-.286-.69 0-1.245.225-.55.22-.983.69-.42.458-.659 1.16-.232.696-.232 1.611 0 .958.257 1.648.262.69.67 1.123.428.452.996.671.574.214 1.208.214.873 0 1.636-.299.763-.3 1.428-.897h.086zM62.885 69.604h-5.987v-9.088h5.987v1.074h-4.779v2.49h4.78v1.075h-4.78v3.375h4.78z" style="text-align:center"/></g><g aria-label="WEAPON" style="line-height:125%" font-weight="400" font-size="12.5" font-family="sans-serif" letter-spacing="0" word-spacing="0" fill="#000" text-anchor="middle"><path d="M31.713 162.699l-2.362 9.088H27.99l-1.91-7.544-1.868 7.544h-1.33l-2.405-9.088h1.239l1.91 7.556 1.88-7.556h1.227l1.898 7.63 1.898-7.63zM39.477 171.787h-5.988v-9.088h5.988v1.074h-4.78v2.49h4.78v1.075h-4.78v3.375h4.78zM48.565 171.787h-1.288l-.891-2.533h-3.93l-.892 2.533h-1.227l3.308-9.088h1.612zm-2.551-3.57l-1.593-4.462-1.6 4.461zM55.89 165.445q0 .605-.214 1.124-.208.512-.586.89-.47.47-1.111.709-.641.232-1.618.232h-1.208v3.387h-1.209v-9.088h2.466q.818 0 1.386.14.567.135 1.007.427.518.348.8.867.286.519.286 1.312zm-1.258.031q0-.47-.165-.818t-.5-.568q-.293-.189-.672-.268-.372-.086-.946-.086h-1.196v3.632h1.02q.732 0 1.19-.128.457-.134.744-.421.287-.293.403-.617.122-.323.122-.726zM64.263 163.743q.556.61.849 1.495.299.885.299 2.008t-.306 2.014q-.299.885-.842 1.477-.561.617-1.33.928-.763.311-1.746.311-.958 0-1.746-.317-.78-.318-1.33-.922-.55-.604-.849-1.483-.293-.879-.293-2.008 0-1.11.293-1.99.293-.885.855-1.513.537-.599 1.33-.916.8-.317 1.74-.317.977 0 1.752.323.78.318 1.324.91zm-.11 3.503q0-1.77-.793-2.728-.794-.965-2.167-.965-1.385 0-2.179.965-.787.958-.787 2.728 0 1.788.805 2.74.806.947 2.161.947t2.155-.947q.805-.952.805-2.74zM74.26 171.787h-1.495l-4.309-8.13v8.13h-1.129v-9.088h1.874l3.93 7.422v-7.422h1.13z" style="text-align:center"/></g><g aria-label="ENEMY" style="line-height:125%" font-weight="400" font-size="12.5" font-family="sans-serif" letter-spacing="0" word-spacing="0" fill="#000" text-anchor="middle"><path d="M33.19 276.055h-5.987v-9.088h5.987v1.074h-4.779v2.49h4.78v1.075h-4.78v3.375h4.78zM42.046 276.055h-1.495l-4.31-8.13v8.13h-1.128v-9.088h1.874l3.93 7.422v-7.422h1.13zM50.45 276.055h-5.987v-9.088h5.988v1.074h-4.78v2.49h4.78v1.075h-4.78v3.375h4.78zM60.467 276.055h-1.209v-7.83l-2.527 5.328h-.72l-2.508-5.329v7.831h-1.13v-9.088h1.648l2.424 5.06 2.343-5.06h1.679zM69.353 266.967l-3.198 5.102v3.986h-1.208v-3.857l-3.21-5.231h1.336l2.484 4.065 2.509-4.065z" style="text-align:center"/></g><g aria-label="HOMECITY" style="line-height:125%" font-weight="400" font-size="12.5" font-family="sans-serif" letter-spacing="0" word-spacing="0" fill="#000" text-anchor="middle"><path d="M106.87 269.799h-1.208v-4.45h-4.534v4.45h-1.209v-9.088h1.209v3.564h4.534v-3.564h1.209zM116.093 261.755q.556.61.849 1.495.299.885.299 2.008t-.305 2.014q-.3.885-.843 1.477-.561.617-1.33.928-.763.311-1.746.311-.958 0-1.745-.317-.782-.318-1.331-.922-.55-.604-.848-1.483-.293-.879-.293-2.008 0-1.11.293-1.99.293-.885.854-1.513.537-.599 1.33-.916.8-.317 1.74-.317.977 0 1.752.323.781.318 1.324.91zm-.11 3.503q0-1.77-.793-2.728-.793-.965-2.167-.965-1.385 0-2.179.965-.787.958-.787 2.728 0 1.788.806 2.74.805.947 2.16.947t2.155-.947q.806-.952.806-2.74zM127.25 269.799h-1.208v-7.83l-2.527 5.328h-.72l-2.509-5.329v7.831h-1.129v-9.088h1.648l2.423 5.06 2.344-5.06h1.679zM135.692 269.799h-5.988v-9.088h5.988v1.074h-4.78v2.49h4.78v1.075h-4.78v3.375h4.78zM111.076 284.765q-.335.146-.61.274-.269.129-.708.269-.372.116-.812.195-.433.086-.958.086-.989 0-1.8-.275-.806-.28-1.404-.873-.586-.58-.916-1.47-.33-.898-.33-2.082 0-1.123.318-2.008.317-.885.915-1.495.58-.592 1.398-.904.824-.31 1.825-.31.732 0 1.459.176.732.177 1.623.623v1.434h-.091q-.751-.629-1.49-.916-.738-.286-1.58-.286-.69 0-1.245.225-.55.22-.983.69-.421.458-.66 1.16-.231.696-.231 1.611 0 .958.256 1.648.263.69.672 1.123.427.452.994.672.574.213 1.209.213.873 0 1.636-.299.763-.299 1.428-.897h.085zM116.002 285.424h-3.59v-.928h1.191v-7.232h-1.19v-.928h3.589v.928h-1.19v7.232h1.19zM124.553 277.41h-3.247v8.014h-1.209v-8.014h-3.247v-1.074h7.703zM132.219 276.336l-3.198 5.102v3.986h-1.209v-3.857l-3.21-5.231h1.336l2.484 4.065 2.509-4.065z" style="text-align:center"/></g><g aria-label="DRAGONSHOUT" style="line-height:125%" font-weight="400" font-size="12.5" font-family="sans-serif" letter-spacing="0" word-spacing="0" fill="#000" text-anchor="middle"><path d="M169.381 265.264q0 1.24-.543 2.246-.537 1.007-1.434 1.563-.623.384-1.392.555-.763.171-2.014.171h-2.295v-9.088h2.27q1.33 0 2.112.195.788.19 1.33.525.928.58 1.447 1.544.52.965.52 2.29zm-1.263-.018q0-1.068-.373-1.8-.372-.733-1.11-1.154-.538-.305-1.142-.421-.604-.123-1.446-.123h-1.136v7.013h1.136q.872 0 1.52-.128.652-.128 1.196-.476.677-.433 1.013-1.141.342-.708.342-1.77zM178.866 269.799h-1.569l-3.04-3.613h-1.702v3.613h-1.209v-9.088h2.546q.824 0 1.373.11.55.104.989.378.494.311.769.788.28.47.28 1.196 0 .982-.494 1.648-.494.659-1.361.995zm-2.826-6.53q0-.391-.14-.69-.135-.306-.452-.513-.262-.177-.623-.244-.36-.074-.848-.074h-1.422v3.43h1.22q.574 0 1.002-.097.427-.104.726-.379.275-.256.403-.585.134-.336.134-.849zM187.203 269.799h-1.288l-.89-2.533h-3.931l-.891 2.533h-1.227l3.308-9.088h1.611zm-2.55-3.57l-1.594-4.462-1.6 4.461zM196.163 269.128q-.744.341-1.63.598-.878.25-1.702.25-1.062 0-1.947-.293t-1.508-.879q-.628-.592-.97-1.477-.342-.891-.342-2.081 0-2.18 1.27-3.436 1.275-1.264 3.497-1.264.775 0 1.58.19.812.182 1.746.628v1.434h-.11q-.189-.146-.549-.384-.36-.238-.708-.397-.421-.19-.958-.311-.531-.128-1.209-.128-1.526 0-2.417.982-.885.977-.885 2.65 0 1.763.928 2.746.928.976 2.527.976.586 0 1.166-.116.586-.116 1.025-.299v-2.228h-2.435v-1.062h3.631zM205.05 261.755q.555.61.848 1.495.3.885.3 2.008t-.306 2.014q-.299.885-.842 1.477-.562.617-1.33.928-.763.311-1.746.311-.958 0-1.746-.317-.781-.318-1.33-.922-.55-.604-.849-1.483-.293-.879-.293-2.008 0-1.11.293-1.99.293-.885.855-1.513.537-.599 1.33-.916.8-.317 1.74-.317.976 0 1.752.323.78.318 1.324.91zm-.11 3.503q0-1.77-.793-2.728-.794-.965-2.167-.965-1.386 0-2.179.965-.787.958-.787 2.728 0 1.788.805 2.74.806.947 2.16.947 1.356 0 2.155-.947.806-.952.806-2.74zM215.048 269.799h-1.496l-4.309-8.13v8.13h-1.129v-9.088h1.874l3.93 7.422v-7.422h1.13zM173.861 282.83q0 .531-.25 1.05-.244.519-.69.879-.488.39-1.141.61-.647.22-1.563.22-.982 0-1.77-.183-.781-.183-1.593-.544v-1.513h.086q.69.574 1.593.885.903.311 1.697.311 1.123 0 1.745-.421.629-.421.629-1.123 0-.604-.3-.891-.292-.287-.897-.446-.457-.122-.994-.201-.531-.08-1.13-.202-1.208-.256-1.794-.872-.58-.623-.58-1.618 0-1.141.965-1.867.964-.733 2.447-.733.958 0 1.758.183t1.416.452v1.428h-.086q-.518-.44-1.367-.726-.842-.293-1.727-.293-.97 0-1.563.403-.586.402-.586 1.037 0 .568.293.891.293.324 1.032.495.39.085 1.11.207.721.122 1.221.25 1.014.269 1.526.812.513.543.513 1.52zM182.754 285.424h-1.209v-4.45h-4.535v4.45h-1.208v-9.088h1.208v3.564h4.535v-3.564h1.209zM191.976 277.38q.556.61.849 1.495.299.885.299 2.008t-.305 2.014q-.3.885-.843 1.477-.561.617-1.33.928-.763.311-1.746.311-.958 0-1.745-.317-.782-.318-1.331-.922-.55-.604-.848-1.483-.293-.879-.293-2.008 0-1.11.293-1.99.293-.885.854-1.513.537-.599 1.33-.916.8-.317 1.74-.317.977 0 1.752.323.781.318 1.324.91zm-.11 3.503q0-1.77-.793-2.728-.793-.965-2.167-.965-1.385 0-2.179.965-.787.958-.787 2.728 0 1.788.806 2.74.805.947 2.16.947t2.155-.947q.805-.952.805-2.74zM201.882 281.774q0 .989-.22 1.727-.213.733-.707 1.221-.47.464-1.1.678-.628.213-1.464.213-.854 0-1.49-.226-.634-.225-1.067-.665-.495-.5-.714-1.208-.214-.708-.214-1.74v-5.438h1.208v5.5q0 .738.098 1.165.104.427.342.775.269.397.726.598.464.202 1.111.202.653 0 1.111-.196.458-.201.732-.604.238-.348.336-.793.104-.452.104-1.117v-5.53h1.208zM210.677 277.41h-3.247v8.014h-1.208v-8.014h-3.247v-1.074h7.702z" style="text-align:center"/></g><path fill="#fff" stroke="#000" stroke-width=".787" d="M231.55 99.671v-17.31h102.185v34.674H231.551V99.67zm0 98v-17.31h102.185v34.674H231.551V197.67z"/><g style="line-height:125%"><path d="M296.037 107.295h-4.834l-11.108-15.308-11.084 15.357h-4.81l14.38-19.703h3.076z" style="text-align:center" font-size="50" text-anchor="middle" aria-label="^" font-weight="400" font-family="sans-serif" letter-spacing="0" word-spacing="0" fill="#000"/></g><g style="line-height:125%"><path d="M266.201 188.446h4.834l11.108 15.308 11.084-15.357h4.81l-14.38 19.703h-3.076z" style="text-align:center" font-size="50" text-anchor="middle" aria-label="^" font-weight="400" font-family="sans-serif" letter-spacing="0" word-spacing="0" fill="#000"/></g><path fill="#fff" stroke="#000" stroke-width=".946" d="M231.63 148.132v-25.04h102.026v50.156H231.63v-25.116z"/><g aria-label="SELECT" style="line-height:125%" font-weight="400" font-size="25" font-family="sans-serif" letter-spacing="0" word-spacing="0" fill="#000" text-anchor="middle"><path d="M249.458 150.522q0 1.062-.5 2.1-.489 1.037-1.38 1.757-.976.782-2.283 1.221-1.293.44-3.125.44-1.965 0-3.54-.367-1.562-.366-3.186-1.086v-3.027h.171q1.38 1.147 3.186 1.77 1.807.622 3.394.622 2.246 0 3.491-.842 1.257-.842 1.257-2.246 0-1.209-.598-1.782-.586-.574-1.794-.892-.916-.244-1.99-.402-1.062-.16-2.258-.403-2.417-.513-3.589-1.746-1.16-1.245-1.16-3.235 0-2.282 1.929-3.735 1.929-1.465 4.895-1.465 1.917 0 3.516.366 1.599.367 2.832.904v2.856h-.171q-1.038-.879-2.735-1.453-1.684-.585-3.454-.585-1.941 0-3.125.805-1.172.806-1.172 2.075 0 1.136.586 1.783t2.063.988q.781.171 2.222.415 1.44.245 2.44.5 2.027.538 3.053 1.624 1.025 1.087 1.025 3.04zM265.315 155.71H253.34v-18.176h11.975v2.148h-9.558v4.98h9.558v2.15h-9.558v6.75h9.558zM280.66 155.71h-11.5v-18.176h2.417v16.028h9.082zM295.051 155.71h-11.975v-18.176h11.975v2.148h-9.558v4.98h9.558v2.15h-9.558v6.75h9.558zM312.935 154.392q-.672.293-1.221.549-.537.256-1.416.537-.745.232-1.624.39-.866.172-1.916.172-1.978 0-3.601-.55-1.612-.561-2.808-1.745-1.172-1.16-1.83-2.942-.66-1.795-.66-4.163 0-2.246.635-4.016t1.83-2.99q1.16-1.185 2.796-1.807 1.648-.623 3.65-.623 1.465 0 2.918.354 1.464.354 3.247 1.245v2.869h-.183q-1.502-1.257-2.979-1.831-1.477-.574-3.162-.574-1.379 0-2.49.452-1.098.44-1.965 1.38-.842.915-1.319 2.319-.463 1.391-.463 3.222 0 1.917.512 3.296.525 1.38 1.343 2.246.855.903 1.99 1.343 1.147.427 2.417.427 1.745 0 3.271-.598 1.526-.598 2.857-1.794h.17zM329.34 139.682h-6.493v16.028h-2.417v-16.028h-6.494v-2.148h15.405z" style="text-align:center"/></g><path fill="#fff" stroke="#000" stroke-width="1.304" d="M230.766 273.22v-47.766h101.668v95.676H230.766v-47.91z"/><g aria-label="SUBMIT" style="line-height:125%" font-weight="400" font-size="25" font-family="sans-serif" letter-spacing="0" word-spacing="0" fill="#000" text-anchor="middle"><path d="M246.389 276.687q0 1.062-.5 2.1-.489 1.037-1.38 1.757-.977.782-2.283 1.221-1.294.44-3.125.44-1.965 0-3.54-.367-1.562-.366-3.186-1.086v-3.027h.171q1.38 1.147 3.186 1.77 1.807.622 3.394.622 2.246 0 3.49-.842 1.258-.842 1.258-2.246 0-1.209-.598-1.782-.586-.574-1.794-.892-.916-.244-1.99-.402-1.062-.16-2.259-.403-2.417-.513-3.588-1.746-1.16-1.245-1.16-3.235 0-2.282 1.929-3.735 1.928-1.465 4.895-1.465 1.916 0 3.515.366 1.6.367 2.832.904v2.856h-.17q-1.038-.879-2.735-1.453-1.685-.585-3.455-.585-1.94 0-3.125.805-1.171.806-1.171 2.075 0 1.136.586 1.783.585.647 2.062.988.782.171 2.222.415 1.44.245 2.442.5 2.026.538 3.051 1.624 1.026 1.087 1.026 3.04zM263.955 274.575q0 1.978-.44 3.455-.427 1.465-1.416 2.441-.94.928-2.197 1.355-1.257.427-2.93.427-1.709 0-2.978-.451-1.27-.452-2.137-1.33-.988-1.002-1.428-2.418-.427-1.416-.427-3.479V263.7h2.417v10.998q0 1.477.195 2.332.208.854.684 1.55.537.794 1.453 1.196.927.403 2.221.403 1.306 0 2.222-.39.915-.403 1.465-1.209.476-.696.671-1.587.208-.903.208-2.234v-11.06h2.417zM282.29 276.284q0 1.355-.513 2.393-.513 1.037-1.38 1.709-1.025.805-2.258 1.147-1.22.342-3.113.342h-6.445v-18.176h5.383q1.99 0 2.979.146.989.147 1.892.61 1.001.525 1.453 1.356.451.817.451 1.965 0 1.294-.659 2.21-.659.903-1.758 1.452v.098q1.844.378 2.906 1.623 1.062 1.233 1.062 3.125zm-4.065-8.19q0-.66-.22-1.112-.22-.451-.708-.732-.574-.33-1.392-.403-.818-.085-2.026-.085h-2.88v5.249h3.124q1.135 0 1.807-.11.671-.122 1.245-.488.574-.367.806-.94.244-.586.244-1.38zm1.55 8.288q0-1.099-.33-1.746t-1.196-1.098q-.586-.306-1.428-.391-.83-.098-2.027-.098h-3.796v6.763h3.198q1.587 0 2.6-.159 1.014-.17 1.66-.61.684-.476 1.002-1.086.317-.61.317-1.575zM301.906 281.875h-2.417v-15.662l-5.053 10.657h-1.44l-5.018-10.657v15.662h-2.258v-18.176h3.296l4.846 10.12 4.687-10.12h3.357zM313.222 281.875h-7.178v-1.855h2.38v-14.466h-2.38V263.7h7.178v1.855h-2.38v14.466h2.38zM330.324 265.847h-6.494v16.028h-2.417v-16.028h-6.494V263.7h15.405z" style="text-align:center"/></g></svg>