<svg xmlns="http://www.w3.org/2000/svg" fill="none" viewBox="0 0 348 348"><path stroke="#000" stroke-width="2" d="M5 5.8h337v337.6H5z"/><path stroke="#000" stroke-width="2" d="M282.7 40.6c0-8.4 7-15.2 15.6-15.2 4.1 0 8 1.6 11 4.4a15 15 0 0 1 4.6 10.8c0 8.3-7 15.1-15.6 15.1s-15.6-6.8-15.6-15.1z"/><ellipse cx="-206.5" cy="228.1" fill="#fff" rx="35.5" ry="32.3"/><circle cx="-359.7" cy="177" r="22.9" fill="#fff"/><ellipse cx="-280" cy="199.9" fill="#fff" rx="80.8" ry="15.6"/><g fill="#000"><path d="M88 156q-.6 0-1 .4-.3.3-.3.8t.2.9q.3.4.7.4l1.7.5 3.4.7q1.9.4 3.7 1 2 .5 3 1 2.2 1.3 4.3 3 2.1 1.7 3.8 4.2 1.6 2.4 2.6 5.7 1 3.1 1 7.3 0 5-1.8 9.2-1.7 4.2-4.7 7.3-3 3.1-7.3 5-4.1 1.8-8.9 1.8H63.8v-9.7h24.6q3 0 5.5-1t4.4-2.8q1.8-1.8 2.7-4.3 1-2.5 1-5.5 0-3.8-1.4-6.2-1.3-2.4-3.4-3.8-2-1.4-4.4-2-2.3-.8-4.3-1.2l-4.2-1.2q-2-.8-3.7-2-1.6-1.4-2.6-3.3-1-2-1-4.9 0-2.8.9-4.8.8-2 2.2-3.5 1.4-1.3 3.3-2 2-.7 4.2-.7h24v9.6L88 156zm-.4-12.3q-3 0-5.4 1-2.4 1-4.2 2.8-1.6 1.8-2.6 4.4-1 2.4-1 5.4 0 3.1 1.2 5.4 1 2.4 2.7 4 1.8 1.7 3.9 2.7 2 1 4 1.3l4.4 1q2.3.6 4.2 1.8 2 1.2 3.3 3.2 1.3 2 1.3 5.2 0 2.7-.9 4.8-.8 2-2.3 3.4-1.6 1.4-3.6 2.1-2 .7-4.2.7H63.8v-9.6h23.7q.6 0 .9-.4.4-.4.4-.9 0-1-1-1.4l-1.7-.3-3.4-.7-3.8-1q-1.9-.6-2.9-1.1-2.1-1.2-4.1-3-2-1.7-3.7-4-1.5-2.5-2.4-5.7-1-3.3-1-7.5 0-4.9 1.8-9.1 1.8-4.3 4.8-7.4 3-3.1 7.2-5 4.2-1.8 9-1.8h24v9.7h-24zm26.6 12.3q0-4.6 1.7-8.6t4.4-7q2.8-3 6.5-4.6 3.7-1.8 7.6-1.8h27.5v9.7h-26.4q-2.7 0-4.9 1-2.2 1.1-3.7 2.9-1.4 1.7-2.2 4-.8 2.1-.8 4.3v27.4q0 2.1.8 4.4.8 2.2 2.2 3.9 1.5 1.7 3.7 2.8 2.2 1.1 5 1.1h26.3v9.7h-27.5q-4 0-7.6-1.7-3.7-1.8-6.5-4.7-2.7-3-4.4-7-1.7-4-1.7-8.5v-27.4zm12.3 12.4v-11q0-2 .6-3.9.6-2 1.8-3.6 1.3-1.6 3.2-2.6 1.8-1 4.4-1h25.4v9.6h-25.2q-.4 0-1 .5-.4.5-.4 1.4v1h21v9.6h-29.8zm0 2.4h29.9v9.6h-21v1q0 .8.4 1.3.5.6.9.6h25.2v9.6h-25.4q-2.6 0-4.4-1-2-1-3.2-2.6-1.2-1.6-1.8-3.6-.6-2-.6-3.9v-11zm91.3 34.4h-32.6q-3.9 0-7.6-1.7-3.6-1.8-6.4-4.7-2.8-3-4.5-7-1.6-4-1.6-8.5v-27.4q0-4.5 1.6-8.5 1.7-4 4.5-7t6.4-4.6q3.7-1.8 7.6-1.8h32.6v9.7h-31.4q-2.8 0-5 1-2.1 1.1-3.6 2.9-1.5 1.7-2.3 4-.8 2.1-.8 4.3v27.4q0 2.1.8 4.4.8 2.2 2.3 3.9 1.5 1.7 3.6 2.8 2.2 1.1 5 1.1h23.3v-27.1h-21.6v-9.6h29.7v46.4zm-30.3-22h8q.5 0 .7-.4.3-.4.3-1 0-.5-.3-1-.2-.4-.7-.4h-7.4v-9.6h19v22.1h-19.8q-2.5 0-4.4-1-1.9-1-3.1-2.6-1.3-1.6-1.9-3.6-.6-2-.6-3.9v-24.4q0-2 .6-3.9.6-2 1.9-3.6 1.2-1.6 3.1-2.6 1.9-1 4.4-1h30.5v9.6h-30.3q-.4 0-.9.5-.4.5-.4 1.4v23.6q0 .8.4 1.3.5.6 1 .6z"/><path d="M243.2 196.7h30L255 145.6q-.3-.8-1.4-1.3-1-.6-2-.6-1.2 0-2.2.6-1 .5-1.2 1.3l-21 59.6h-9.6l22.4-63.3q.5-1.5 1.5-2.9t2.3-2.5q1.4-1.2 3.3-1.8 2-.7 4.4-.7 2.5 0 4.4.7 1.9.6 3.3 1.8 1.4 1 2.3 2.5 1 1.4 1.6 3l22.4 63.2h-42.2v-8.5zm0-2.6v-2.8l-4.7 13.9h-8.7l19.9-57.8q.1-.5.7-.8.5-.3 1-.3.6 0 1.1.3.6.3.8.8l16.5 46.7h-26.6zm8.2-27l-5.8 18.3h11.9l-6-18.2z"/></g></svg>