<svg xmlns="http://www.w3.org/2000/svg" height="512" width="512" fill="none"><path d="M18 18h476v476H18z" stroke="#000" stroke-width="4"/><circle r="22" cx="448" cy="64" stroke="#000" stroke-width="4"/><text style="line-height:1;-inkscape-font-specification:Oxanium;text-align:center" x="104" y="-132" font-size="53.333" font-family="Oxanium" letter-spacing="0" word-spacing="0" text-anchor="middle" fill="#000"/><g transform="translate(-2)"><path d="M46 74v60h140V74zm8 64v44h124v-44zm16 48v44h124v-44zm16 48v44h124v-44zm-8 48v44h124v-44zm-8 48v44h124v-44zm4 48v44h124v-44z" stroke="#000" stroke-width="4"/><path d="M52 88.558h3.963V101.2h14.401V88.558h3.964V119.4h-3.964v-14.688h-14.4V119.4H52zM94.104 91.388q-4.316 0-6.866 3.388-2.531 3.388-2.531 9.234 0 5.826 2.53 9.214 2.551 3.388 6.867 3.388 4.317 0 6.828-3.388 2.531-3.388 2.531-9.214 0-5.846-2.53-9.234-2.512-3.388-6.829-3.388zm0-3.388q6.161 0 9.85 4.359 3.688 4.338 3.688 11.651 0 7.293-3.688 11.652-3.689 4.338-9.85 4.338-6.18 0-9.888-4.338-3.688-4.339-3.688-11.652 0-7.313 3.688-11.651 3.708-4.36 9.888-4.36zM113.842 88.558h5.906l7.475 20.989 7.514-20.99h5.906v30.844h-3.865V92.317l-7.554 21.155h-3.983l-7.553-21.155v27.084h-3.846zM148.51 88.558h18.522v3.512h-14.558v9.13h13.95v3.513h-13.95v11.176h14.91v3.512H148.51zM176.017 114.153H180v5.248h-3.983zm0-25.595H180v13.53l-.392 7.376h-3.179l-.412-7.375z" style="line-height:1;-inkscape-font-specification:sans-serif;text-align:center" font-weight="400" font-size="42.667" font-family="sans-serif" text-anchor="middle" fill="#000"/><circle cx="136" cy="400" r="6" stroke="#000" stroke-width="4"/><circle cx="160" cy="400" r="6" stroke="#000" stroke-width="4"/><circle cx="112" cy="400" r="6" stroke="#000" stroke-width="4"/></g><g transform="translate(2)" stroke="#000" stroke-width="4"><path d="M214 298h60v140h-60z"/><circle cx="244" cy="408" r="22"/><path d="M222 366h44v12h-44zM222 346h44v12h-44zM222 326h44v12h-44zM222 306h44v12h-44z"/></g><path stroke="#000" stroke-width="4" d="M296 378h172v60H296z"/><path d="M401.336 427.336L382 416.675l-19.336 10.661L382 388.664zM457.337 427.336L438 416.675l-19.336 10.661L438 388.664zM345.336 427.336L326 416.675l-19.337 10.661L326 388.664z" stroke="#000" stroke-width="4" stroke-miterlimit="7.5"/><circle cx="352" cy="208" r="94" stroke="#000" stroke-width="4"/><path d="M348.522 202h6.567v1.34h-5.035v2.886q.364-.118.729-.173.364-.064.728-.064 2.07 0 3.28 1.08 1.209 1.08 1.209 2.926 0 1.9-1.242 2.956-1.242 1.049-3.503 1.049-.779 0-1.59-.126-.804-.126-1.665-.379v-1.6q.745.386 1.54.575.795.19 1.682.19 1.432 0 2.269-.718.836-.717.836-1.947t-.836-1.948q-.837-.717-2.27-.717-.67 0-1.341.142-.663.142-1.358.441z" style="line-height:1;-inkscape-font-specification:sans-serif;text-align:center" font-weight="400" font-size="21.333" font-family="sans-serif" text-anchor="middle" fill="#000"/><path d="M397.493 207.54q1.18.24 1.84.998.667.76.667 1.875 0 1.712-1.237 2.65-1.237.937-3.516.937-.765 0-1.579-.147-.805-.14-1.668-.426v-1.51q.684.379 1.497.572.814.194 1.701.194 1.547 0 2.352-.581.814-.581.814-1.689 0-1.022-.757-1.596-.748-.58-2.091-.58H394.1v-1.287h1.48q1.214 0 1.856-.457.643-.465.643-1.332 0-.891-.667-1.364-.66-.48-1.896-.48-.676 0-1.449.14-.773.139-1.7.433v-1.394q.935-.248 1.749-.372.822-.124 1.546-.124 1.872 0 2.963.813 1.09.806 1.09 2.185 0 .96-.578 1.627-.577.658-1.644.914z" aria-label="3" style="stroke-width:1.31189" font-weight="400" font-size="21.333" font-family="sans-serif" text-anchor="middle" fill="#000" stroke-width="1.312"/><path d="M414.05 212.658H420V214h-8v-1.342q.97-.94 2.641-2.519 1.68-1.586 2.11-2.044.819-.86 1.14-1.453.328-.6.328-1.176 0-.94-.708-1.532-.7-.592-1.832-.592-.801 0-1.696.26-.886.261-1.899.79v-1.61q1.03-.387 1.924-.585.895-.197 1.638-.197 1.957 0 3.122.916 1.165.916 1.165 2.447 0 .727-.296 1.382-.287.647-1.055 1.531-.21.23-1.341 1.327-1.131 1.09-3.19 3.055z" aria-label="2" style="stroke-width:1.2762" font-weight="400" font-size="21.333" font-family="sans-serif" text-anchor="middle" fill="#000" stroke-width="1.276"/><path d="M432.261 212.634h2.97v-9.155l-3.231.579v-1.48l3.213-.578h1.817v10.634H440V214h-7.739z" aria-label="1" style="stroke-width:1.22482" font-weight="400" font-size="21.333" font-family="sans-serif" text-anchor="middle" fill="#000" stroke-width="1.225"/><path d="M309.493 207.54q1.18.24 1.84.998.667.76.667 1.875 0 1.712-1.237 2.65-1.237.937-3.516.937-.765 0-1.579-.147-.805-.14-1.668-.426v-1.51q.684.379 1.497.572.814.194 1.701.194 1.547 0 2.352-.581.814-.581.814-1.689 0-1.022-.757-1.596-.748-.58-2.091-.58H306.1v-1.287h1.48q1.214 0 1.856-.457.643-.465.643-1.332 0-.891-.667-1.364-.66-.48-1.896-.48-.676 0-1.449.14-.773.139-1.7.433v-1.394q.935-.248 1.749-.372.822-.124 1.546-.124 1.872 0 2.963.813 1.09.806 1.09 2.185 0 .96-.578 1.627-.577.658-1.644.914z" aria-label="3" style="stroke-width:1.31189" font-weight="400" font-size="21.333" font-family="sans-serif" text-anchor="middle" fill="#000" stroke-width="1.312"/><path d="M286.05 212.658H292V214h-8v-1.342q.97-.94 2.641-2.519 1.68-1.586 2.11-2.044.819-.86 1.14-1.453.328-.6.328-1.176 0-.94-.708-1.532-.7-.592-1.832-.592-.801 0-1.696.26-.886.261-1.899.79v-1.61q1.03-.387 1.924-.585.895-.197 1.638-.197 1.957 0 3.122.916 1.165.916 1.165 2.447 0 .726-.296 1.382-.287.647-1.055 1.531-.21.23-1.341 1.327-1.131 1.09-3.19 3.055z" aria-label="2" style="stroke-width:1.2762" font-weight="400" font-size="21.333" font-family="sans-serif" text-anchor="middle" fill="#000" stroke-width="1.276"/><path d="M264.261 212.634h2.97v-9.155l-3.231.579v-1.48l3.213-.578h1.817v10.634H272V214h-7.739z" aria-label="1" style="stroke-width:1.22483" font-weight="400" font-size="21.333" font-family="sans-serif" text-anchor="middle" fill="#000" stroke-width="1.225"/><circle cx="352" cy="208" r="74" stroke="#000" stroke-width="4"/><circle cx="352" cy="208" r="54" stroke="#000" stroke-width="4"/><circle cx="352" cy="208" r="34" stroke="#000" stroke-width="4"/></svg>