<?xml version="1.0" encoding="UTF-8" standalone="no"?>
<svg
   xmlns:dc="http://purl.org/dc/elements/1.1/"
   xmlns:cc="http://creativecommons.org/ns#"
   xmlns:rdf="http://www.w3.org/1999/02/22-rdf-syntax-ns#"
   xmlns:svg="http://www.w3.org/2000/svg"
   xmlns="http://www.w3.org/2000/svg"
   xmlns:sodipodi="http://sodipodi.sourceforge.net/DTD/sodipodi-0.dtd"
   xmlns:inkscape="http://www.inkscape.org/namespaces/inkscape"
   height="512"
   width="512"
   inkscape:version="1.0.2-2 (e86c870879, 2021-01-15)"
   sodipodi:docname="Sorry Sliders.svg"
   id="svg6"
   version="1.1"
   fill="none"
   viewBox="0 0 512 512">
  <metadata
     id="metadata12">
    <rdf:RDF>
      <cc:Work
         rdf:about="">
        <dc:format>image/svg+xml</dc:format>
        <dc:type
           rdf:resource="http://purl.org/dc/dcmitype/StillImage" />
        <dc:title></dc:title>
      </cc:Work>
    </rdf:RDF>
  </metadata>
  <defs
     id="defs10">
    <inkscape:path-effect
       effect="bspline"
       id="path-effect1013"
       is_visible="true"
       weight="33.333333"
       steps="2"
       helper_size="0"
       apply_no_weight="true"
       apply_with_weight="true"
       only_selected="false"
       lpeversion="0" />
    <inkscape:path-effect
       effect="bspline"
       id="path-effect1011"
       is_visible="true"
       weight="33.333333"
       steps="2"
       helper_size="0"
       apply_no_weight="true"
       apply_with_weight="true"
       only_selected="false"
       lpeversion="0" />
    <inkscape:path-effect
       lpeversion="0"
       only_selected="false"
       apply_with_weight="true"
       apply_no_weight="true"
       helper_size="0"
       steps="2"
       weight="33.333333"
       is_visible="true"
       id="path-effect5221"
       effect="bspline" />
    <inkscape:path-effect
       lpeversion="0"
       only_selected="false"
       apply_with_weight="true"
       apply_no_weight="true"
       helper_size="0"
       steps="2"
       weight="33.333333"
       is_visible="true"
       id="path-effect5194"
       effect="bspline" />
    <inkscape:path-effect
       lpeversion="0"
       only_selected="false"
       apply_with_weight="true"
       apply_no_weight="true"
       helper_size="0"
       steps="2"
       weight="33.333333"
       is_visible="true"
       id="path-effect5140"
       effect="bspline" />
    <inkscape:path-effect
       lpeversion="0"
       only_selected="false"
       apply_with_weight="true"
       apply_no_weight="true"
       helper_size="0"
       steps="2"
       weight="33.333333"
       is_visible="true"
       id="path-effect4963"
       effect="bspline" />
    <inkscape:path-effect
       lpeversion="0"
       only_selected="false"
       apply_with_weight="true"
       apply_no_weight="true"
       helper_size="0"
       steps="2"
       weight="33.333333"
       is_visible="true"
       id="path-effect4872"
       effect="bspline" />
    <inkscape:path-effect
       lpeversion="0"
       only_selected="false"
       apply_with_weight="true"
       apply_no_weight="true"
       helper_size="0"
       steps="2"
       weight="33.333333"
       is_visible="true"
       id="path-effect4868"
       effect="bspline" />
    <inkscape:path-effect
       lpeversion="0"
       only_selected="false"
       apply_with_weight="true"
       apply_no_weight="true"
       helper_size="0"
       steps="2"
       weight="33.333333"
       is_visible="true"
       id="path-effect4671"
       effect="bspline" />
    <inkscape:path-effect
       lpeversion="0"
       only_selected="false"
       apply_with_weight="true"
       apply_no_weight="true"
       helper_size="0"
       steps="2"
       weight="33.333333"
       is_visible="true"
       id="path-effect4648"
       effect="bspline" />
    <inkscape:path-effect
       lpeversion="0"
       only_selected="false"
       apply_with_weight="true"
       apply_no_weight="true"
       helper_size="0"
       steps="2"
       weight="33.333333"
       is_visible="true"
       id="path-effect4671-9"
       effect="bspline" />
    <inkscape:path-effect
       lpeversion="0"
       only_selected="false"
       apply_with_weight="true"
       apply_no_weight="true"
       helper_size="0"
       steps="2"
       weight="33.333333"
       is_visible="true"
       id="path-effect4671-9-0"
       effect="bspline" />
    <inkscape:path-effect
       lpeversion="0"
       only_selected="false"
       apply_with_weight="true"
       apply_no_weight="true"
       helper_size="0"
       steps="2"
       weight="33.333333"
       is_visible="true"
       id="path-effect4671-0"
       effect="bspline" />
    <inkscape:path-effect
       lpeversion="0"
       only_selected="false"
       apply_with_weight="true"
       apply_no_weight="true"
       helper_size="0"
       steps="2"
       weight="33.333333"
       is_visible="true"
       id="path-effect4671-9-0-9"
       effect="bspline" />
    <inkscape:path-effect
       lpeversion="0"
       only_selected="false"
       apply_with_weight="true"
       apply_no_weight="true"
       helper_size="0"
       steps="2"
       weight="33.333333"
       is_visible="true"
       id="path-effect4963-6"
       effect="bspline" />
    <inkscape:path-effect
       lpeversion="0"
       only_selected="false"
       apply_with_weight="true"
       apply_no_weight="true"
       helper_size="0"
       steps="2"
       weight="33.333333"
       is_visible="true"
       id="path-effect4963-1"
       effect="bspline" />
    <inkscape:path-effect
       lpeversion="0"
       only_selected="false"
       apply_with_weight="true"
       apply_no_weight="true"
       helper_size="0"
       steps="2"
       weight="33.333333"
       is_visible="true"
       id="path-effect4963-1-3"
       effect="bspline" />
    <inkscape:path-effect
       lpeversion="0"
       only_selected="false"
       apply_with_weight="true"
       apply_no_weight="true"
       helper_size="0"
       steps="2"
       weight="33.333333"
       is_visible="true"
       id="path-effect4963-4"
       effect="bspline" />
    <inkscape:path-effect
       lpeversion="0"
       only_selected="false"
       apply_with_weight="true"
       apply_no_weight="true"
       helper_size="0"
       steps="2"
       weight="33.333333"
       is_visible="true"
       id="path-effect4963-1-3-5"
       effect="bspline" />
    <inkscape:path-effect
       lpeversion="0"
       only_selected="false"
       apply_with_weight="true"
       apply_no_weight="true"
       helper_size="0"
       steps="2"
       weight="33.333333"
       is_visible="true"
       id="path-effect4963-4-8"
       effect="bspline" />
    <inkscape:path-effect
       lpeversion="0"
       only_selected="false"
       apply_with_weight="true"
       apply_no_weight="true"
       helper_size="0"
       steps="2"
       weight="33.333333"
       is_visible="true"
       id="path-effect5221-5"
       effect="bspline" />
  </defs>
  <sodipodi:namedview
     inkscape:guide-bbox="true"
     showguides="true"
     inkscape:document-rotation="0"
     inkscape:current-layer="svg6"
     inkscape:window-maximized="1"
     inkscape:window-y="-8"
     inkscape:window-x="1016"
     inkscape:cy="256.2292"
     inkscape:cx="267.27084"
     inkscape:zoom="1.097949"
     inkscape:snap-page="true"
     inkscape:snap-text-baseline="true"
     inkscape:snap-object-midpoints="true"
     inkscape:snap-center="true"
     inkscape:snap-smooth-nodes="true"
     inkscape:snap-midpoints="true"
     inkscape:object-paths="true"
     inkscape:snap-intersection-paths="true"
     inkscape:snap-bbox-edge-midpoints="true"
     inkscape:snap-bbox-midpoints="true"
     inkscape:bbox-nodes="true"
     inkscape:bbox-paths="true"
     inkscape:snap-bbox="true"
     inkscape:showpageshadow="false"
     inkscape:pagecheckerboard="true"
     showgrid="false"
     id="namedview8"
     inkscape:window-height="1027"
     inkscape:window-width="1602"
     inkscape:pageshadow="2"
     inkscape:pageopacity="0"
     guidetolerance="10"
     gridtolerance="10"
     objecttolerance="10"
     borderopacity="1"
     bordercolor="#ff0000"
     pagecolor="#ffffff" />
  <path
     style="fill:none;fill-rule:evenodd;stroke:#000000;stroke-width:4;stroke-miterlimit:4;stroke-dasharray:none;fill-opacity:1"
     d="M 17.999975,17.999995 H 494.00002 V 494 H 17.999975 Z"
     id="rect1017-7" />
  <circle
     r="22"
     style="fill:none;fill-rule:evenodd;stroke:#000000;stroke-width:4;stroke-miterlimit:4;stroke-dasharray:none;fill-opacity:1"
     id="path1220-2"
     cx="448.00003"
     cy="63.999996" />
  <text
     xml:space="preserve"
     style="font-size:53.3333px;line-height:1;font-family:Oxanium;-inkscape-font-specification:Oxanium;text-align:center;letter-spacing:0px;word-spacing:0px;writing-mode:lr-tb;text-anchor:middle;fill:#000000;fill-opacity:1"
     x="104"
     y="-132"
     id="text967"><tspan
       sodipodi:role="line"
       id="tspan965"
       x="104"
       y="-132" /></text>
  <g
     id="g1433"
     transform="translate(-2.000001)">
    <path
       id="rect976"
       style="fill:none;fill-opacity:1;stroke:#000000;stroke-width:4.00001;stroke-miterlimit:4;stroke-dasharray:none;stroke-opacity:1"
       d="M 46.000007,74.000005 V 134.00001 H 186.00001 V 74.000005 Z m 8,64.000005 v 44 H 178.00001 v -44 z m 16,48 v 44 H 194.00001 v -44 z m 16.000004,48 v 44 H 210.00001 v -44 z m -8.000004,48 v 44 H 202.00001 v -44 z m -8,48 v 44 H 194.00001 v -44 z m 4,48 v 44 H 198.00001 v -44 z" />
    <path
       d="m 52.000236,88.557571 h 3.963216 V 101.20057 H 70.364434 V 88.557571 h 3.963207 V 119.40069 H 70.364434 V 104.71251 H 55.963452 v 14.68818 h -3.963216 z"
       style="font-style:normal;font-variant:normal;font-weight:normal;font-stretch:normal;font-size:42.6667px;line-height:1;font-family:sans-serif;-inkscape-font-specification:sans-serif;text-align:center;text-anchor:middle;fill:#000000;fill-opacity:1;stroke-width:0.999997"
       id="path1020" />
    <path
       d="m 94.104469,91.387785 q -4.316374,0 -6.866951,3.387993 -2.530961,3.387993 -2.530961,9.234342 0,5.82569 2.530961,9.21369 2.550577,3.38799 6.866951,3.38799 4.316373,0 6.827721,-3.38799 2.53096,-3.388 2.53096,-9.21369 0,-5.846349 -2.53096,-9.234342 -2.511348,-3.387993 -6.827721,-3.387993 z m 0,-3.387993 q 6.160631,0 9.849171,4.358945 3.68853,4.338279 3.68853,11.651383 0,7.29245 -3.68853,11.65139 -3.68854,4.33828 -9.849171,4.33828 -6.180253,0 -9.888414,-4.33828 -3.688535,-4.33829 -3.688535,-11.65139 0,-7.313104 3.688535,-11.651383 3.708161,-4.358945 9.888414,-4.358945 z"
       style="font-style:normal;font-variant:normal;font-weight:normal;font-stretch:normal;font-size:42.6667px;line-height:1;font-family:sans-serif;-inkscape-font-specification:sans-serif;text-align:center;text-anchor:middle;fill:#000000;fill-opacity:1;stroke-width:0.999997"
       id="path1022" />
    <path
       d="m 113.84205,88.557571 h 5.90558 l 7.47517,20.989029 7.51441,-20.989029 h 5.90557 v 30.843119 h -3.86511 V 92.317416 l -7.55364,21.154294 h -3.98283 l -7.55365,-21.154294 v 27.083274 h -3.8455 z"
       style="font-style:normal;font-variant:normal;font-weight:normal;font-stretch:normal;font-size:42.6667px;line-height:1;font-family:sans-serif;-inkscape-font-specification:sans-serif;text-align:center;text-anchor:middle;fill:#000000;fill-opacity:1;stroke-width:0.999997"
       id="path1024" />
    <path
       d="m 148.51036,88.557571 h 18.52115 v 3.511944 h -14.55794 v 9.131055 h 13.94973 v 3.51194 h -13.94973 v 11.17624 h 14.9111 v 3.51194 h -18.87431 z"
       style="font-style:normal;font-variant:normal;font-weight:normal;font-stretch:normal;font-size:42.6667px;line-height:1;font-family:sans-serif;-inkscape-font-specification:sans-serif;text-align:center;text-anchor:middle;fill:#000000;fill-opacity:1;stroke-width:0.999997"
       id="path1026" />
    <path
       d="m 176.0174,114.15344 h 3.98284 v 5.24725 h -3.98284 z m 0,-25.595869 h 3.98284 v 13.531319 l -0.3924,7.37507 h -3.17842 l -0.41202,-7.37507 z"
       style="font-style:normal;font-variant:normal;font-weight:normal;font-stretch:normal;font-size:42.6667px;line-height:1;font-family:sans-serif;-inkscape-font-specification:sans-serif;text-align:center;text-anchor:middle;fill:#000000;fill-opacity:1;stroke-width:0.999997"
       id="path1028" />
    <circle
       style="fill:none;fill-opacity:1;stroke:#000000;stroke-width:4;stroke-miterlimit:4;stroke-dasharray:none;stroke-opacity:1"
       id="path1087"
       cx="136.00021"
       cy="399.99979"
       r="6" />
    <circle
       style="fill:none;fill-opacity:1;stroke:#000000;stroke-width:4;stroke-miterlimit:4;stroke-dasharray:none;stroke-opacity:1"
       id="path1087-9"
       cx="160.00021"
       cy="399.99979"
       r="6" />
    <circle
       style="fill:none;fill-opacity:1;stroke:#000000;stroke-width:4;stroke-miterlimit:4;stroke-dasharray:none;stroke-opacity:1"
       id="path1087-7"
       cx="112.00022"
       cy="399.99979"
       r="6" />
  </g>
  <g
     id="g1422"
     transform="translate(1.999999)">
    <rect
       style="fill:none;fill-opacity:1;stroke:#000000;stroke-width:3.99999;stroke-miterlimit:4;stroke-dasharray:none;stroke-opacity:1"
       id="rect1165"
       width="60"
       height="140"
       x="214.00002"
       y="298" />
    <circle
       style="fill:none;fill-opacity:1;stroke:#000000;stroke-width:4;stroke-miterlimit:4;stroke-dasharray:none;stroke-opacity:1"
       id="path1167"
       cx="244.00002"
       cy="408"
       r="22" />
    <rect
       style="fill:none;fill-opacity:1;stroke:#000000;stroke-width:4;stroke-miterlimit:4;stroke-dasharray:none;stroke-opacity:1"
       id="rect1169"
       width="44"
       height="12"
       x="222.00002"
       y="366" />
    <rect
       style="fill:none;fill-opacity:1;stroke:#000000;stroke-width:4;stroke-miterlimit:4;stroke-dasharray:none;stroke-opacity:1"
       id="rect1169-9"
       width="44"
       height="12"
       x="222.00002"
       y="346" />
    <rect
       style="fill:none;fill-opacity:1;stroke:#000000;stroke-width:4;stroke-miterlimit:4;stroke-dasharray:none;stroke-opacity:1"
       id="rect1169-99"
       width="44"
       height="12"
       x="222.00002"
       y="326" />
    <rect
       style="fill:none;fill-opacity:1;stroke:#000000;stroke-width:4;stroke-miterlimit:4;stroke-dasharray:none;stroke-opacity:1"
       id="rect1169-9-2"
       width="44"
       height="12"
       x="222.00002"
       y="306" />
  </g>
  <rect
     style="fill:none;fill-opacity:1;stroke:#000000;stroke-width:4;stroke-miterlimit:4;stroke-dasharray:none;stroke-opacity:1"
     id="rect1253"
     width="172"
     height="60"
     x="296"
     y="378" />
  <path
     id="path1255-9"
     style="fill:none;fill-opacity:1;stroke:#000000;stroke-width:4;stroke-miterlimit:7.5;stroke-dasharray:none;stroke-opacity:1"
     d="m 401.33648,427.33618 -19.3365,-10.66142 -19.33647,10.66142 19.33648,-38.67237 z"
     sodipodi:nodetypes="ccccc" />
  <path
     id="path1255-9-0"
     style="fill:none;fill-opacity:1;stroke:#000000;stroke-width:4;stroke-miterlimit:7.5;stroke-dasharray:none;stroke-opacity:1"
     d="m 457.33695,427.33618 -19.3365,-10.66142 -19.33647,10.66142 19.33648,-38.67237 z"
     sodipodi:nodetypes="ccccc" />
  <path
     id="path1255-9-3"
     style="fill:none;fill-opacity:1;stroke:#000000;stroke-width:4;stroke-miterlimit:7.5;stroke-dasharray:none;stroke-opacity:1"
     d="m 345.33601,427.33618 -19.3365,-10.66142 -19.33647,10.66142 19.33648,-38.67237 z"
     sodipodi:nodetypes="ccccc" />
  <circle
     style="fill:none;stroke:#000000;stroke-width:4;stroke-miterlimit:4;stroke-dasharray:none;stroke-opacity:1"
     id="path970"
     cx="352.00003"
     cy="208"
     r="94" />
  <path
     d="m 348.52178,202.00002 h 6.56728 v 1.34033 h -5.03519 v 2.88567 q 0.36439,-0.11826 0.72877,-0.17345 0.3644,-0.0631 0.72879,-0.0631 2.07039,0 3.2795,1.08016 1.2091,1.08015 1.2091,2.92507 0,1.90013 -1.24222,2.95663 -1.24224,1.04862 -3.50311,1.04862 -0.77847,0 -1.59006,-0.12615 -0.80331,-0.12615 -1.66461,-0.37845 v -1.60052 q 0.74535,0.38634 1.54038,0.57556 0.79503,0.18922 1.68117,0.18922 1.43271,0 2.26914,-0.71747 0.83645,-0.71748 0.83645,-1.94744 0,-1.22994 -0.83645,-1.94742 -0.83643,-0.71747 -2.26914,-0.71747 -0.67081,0 -1.34163,0.14191 -0.66252,0.14193 -1.35817,0.44153 z"
     id="path1555"
     style="font-style:normal;font-variant:normal;font-weight:normal;font-stretch:normal;font-size:21.3333px;line-height:1;font-family:sans-serif;-inkscape-font-specification:sans-serif;text-align:center;text-anchor:middle;fill:#000000;fill-opacity:1;stroke:none;stroke-width:0.999999" />
  <g
     aria-label="3"
     id="text1505"
     style="font-style:normal;font-variant:normal;font-weight:normal;font-stretch:normal;font-size:21.3333px;line-height:1;font-family:sans-serif;-inkscape-font-specification:sans-serif;text-align:center;text-anchor:middle;fill:#000000;fill-opacity:1;stroke:none;stroke-width:1.31189"
     transform="matrix(0.78128281,0,0,0.74370543,89.936525,53.30926)">
    <path
       d="m 393.65629,207.38022 q 1.51041,0.32292 2.35416,1.34375 0.85417,1.02083 0.85417,2.52083 0,2.30208 -1.58333,3.56249 -1.58334,1.26042 -4.5,1.26042 -0.97916,0 -2.02083,-0.19792 -1.03125,-0.1875 -2.13541,-0.57291 v -2.03125 q 0.875,0.51041 1.91666,0.77083 1.04167,0.26042 2.17708,0.26042 1.97917,0 3.01041,-0.78125 1.04167,-0.78125 1.04167,-2.27083 0,-1.375 -0.96875,-2.14583 -0.95833,-0.78125 -2.67708,-0.78125 h -1.8125 v -1.72916 h 1.89583 q 1.55209,0 2.375,-0.61459 0.82292,-0.625 0.82292,-1.79166 0,-1.19791 -0.85417,-1.83333 -0.84375,-0.64583 -2.42708,-0.64583 -0.86458,0 -1.85416,0.1875 -0.98958,0.1875 -2.17708,0.58333 v -1.875 q 1.19791,-0.33333 2.23958,-0.5 1.05208,-0.16666 1.97916,-0.16666 2.39583,0 3.79166,1.09374 1.39583,1.08334 1.39583,2.9375 0,1.29166 -0.73958,2.1875 -0.73958,0.88541 -2.10416,1.22916 z"
       id="path1558"
       style="stroke-width:1.31189" />
  </g>
  <g
     aria-label="2"
     id="text1509"
     style="font-style:normal;font-variant:normal;font-weight:normal;font-stretch:normal;font-size:21.3333px;line-height:1;font-family:sans-serif;-inkscape-font-specification:sans-serif;text-align:center;text-anchor:middle;fill:#000000;fill-opacity:1;stroke:none;stroke-width:1.2762"
     transform="matrix(0.8101274,0,0,0.7578944,80.767607,50.357975)">
    <path
       d="m 411.39586,214.14584 h 7.34374 v 1.77083 h -9.87499 v -1.77083 q 1.19792,-1.23958 3.26041,-3.32291 2.07292,-2.09375 2.60417,-2.69791 1.01041,-1.13542 1.40624,-1.91667 0.40625,-0.79166 0.40625,-1.55208 0,-1.23958 -0.875,-2.02083 -0.86458,-0.78125 -2.26041,-0.78125 -0.98958,0 -2.09375,0.34375 -1.09374,0.34375 -2.34374,1.04167 v -2.125 q 1.27083,-0.51041 2.37499,-0.77083 1.10417,-0.26042 2.02083,-0.26042 2.41667,0 3.85417,1.20833 1.43749,1.20834 1.43749,3.22917 0,0.95833 -0.36458,1.82291 -0.35417,0.85417 -1.30208,2.02083 -0.26042,0.30208 -1.65625,1.75 -1.39583,1.4375 -3.93749,4.03124 z"
       id="path1561"
       style="stroke-width:1.2762" />
  </g>
  <g
     aria-label="1"
     id="text1513"
     style="font-style:normal;font-variant:normal;font-weight:normal;font-stretch:normal;font-size:21.3333px;line-height:1;font-family:sans-serif;-inkscape-font-specification:sans-serif;text-align:center;text-anchor:middle;fill:#000000;fill-opacity:1;stroke:none;stroke-width:1.22482"
     transform="matrix(0.86389357,0,0,0.77160048,59.886851,47.507085)">
    <path
       d="m 431.04169,214.00522 h 3.4375 v -11.86457 l -3.73958,0.75 v -1.91666 l 3.71874,-0.75 h 2.10417 v 13.78123 h 3.43749 v 1.77083 h -8.95832 z"
       id="path1564"
       style="stroke-width:1.22482" />
  </g>
  <g
     aria-label="3"
     id="text1505-6"
     style="font-style:normal;font-variant:normal;font-weight:normal;font-stretch:normal;font-size:21.3333px;line-height:1;font-family:sans-serif;-inkscape-font-specification:sans-serif;text-align:center;text-anchor:middle;fill:#000000;fill-opacity:1;stroke:none;stroke-width:1.31189"
     transform="matrix(0.78128281,0,0,0.74370543,64.040407,53.309274)">
    <path
       d="m 314.16666,207.38021 q 1.51042,0.32291 2.35417,1.34374 0.85416,1.02084 0.85416,2.52083 0,2.30208 -1.58333,3.5625 -1.58333,1.26041 -4.49999,1.26041 -0.97917,0 -2.02083,-0.19791 -1.03125,-0.1875 -2.13542,-0.57292 v -2.03125 q 0.875,0.51042 1.91667,0.77084 1.04166,0.26041 2.17708,0.26041 1.97916,0 3.01041,-0.78125 1.04167,-0.78125 1.04167,-2.27083 0,-1.37499 -0.96875,-2.14583 -0.95834,-0.78125 -2.67708,-0.78125 h -1.8125 v -1.72916 h 1.89583 q 1.55208,0 2.375,-0.61458 0.82291,-0.625 0.82291,-1.79167 0,-1.19791 -0.85416,-1.83333 -0.84375,-0.64583 -2.42708,-0.64583 -0.86458,0 -1.85417,0.1875 -0.98958,0.1875 -2.17708,0.58333 v -1.87499 q 1.19792,-0.33334 2.23958,-0.5 1.05209,-0.16667 1.97917,-0.16667 2.39583,0 3.79166,1.09375 1.39583,1.08333 1.39583,2.9375 0,1.29166 -0.73958,2.18749 -0.73959,0.88542 -2.10417,1.22917 z"
       id="path1567"
       style="stroke-width:1.31189" />
  </g>
  <g
     aria-label="2"
     id="text1509-6"
     style="font-style:normal;font-variant:normal;font-weight:normal;font-stretch:normal;font-size:21.3333px;line-height:1;font-family:sans-serif;-inkscape-font-specification:sans-serif;text-align:center;text-anchor:middle;fill:#000000;fill-opacity:1;stroke:none;stroke-width:1.2762"
     transform="matrix(0.8101274,0,0,0.7578944,52.902748,50.357983)">
    <path
       d="m 287.79167,214.14583 h 7.34374 v 1.77083 h -9.87499 v -1.77083 q 1.19792,-1.23959 3.26042,-3.32292 2.07291,-2.09374 2.60416,-2.69791 1.01041,-1.13541 1.40625,-1.91666 0.40625,-0.79167 0.40625,-1.55208 0,-1.23958 -0.875,-2.02083 -0.86458,-0.78125 -2.26042,-0.78125 -0.98958,0 -2.09374,0.34375 -1.09375,0.34375 -2.34375,1.04166 v -2.12499 q 1.27083,-0.51042 2.375,-0.77084 1.10416,-0.26041 2.02083,-0.26041 2.41666,0 3.85416,1.20833 1.4375,1.20833 1.4375,3.22916 0,0.95833 -0.36459,1.82291 -0.35416,0.85417 -1.30208,2.02084 -0.26041,0.30208 -1.65625,1.74999 -1.39583,1.4375 -3.93749,4.03125 z"
       id="path1570"
       style="stroke-width:1.2762" />
  </g>
  <g
     aria-label="1"
     id="text1513-7"
     style="font-style:normal;font-variant:normal;font-weight:normal;font-stretch:normal;font-size:21.3333px;line-height:1;font-family:sans-serif;-inkscape-font-specification:sans-serif;text-align:center;text-anchor:middle;fill:#000000;fill-opacity:1;stroke:none;stroke-width:1.22483"
     transform="matrix(0.86389357,0,0,0.77160048,35.93211,47.5071)">
    <path
       d="m 264.3021,214.0052 h 3.43749 v -11.86456 l -3.73957,0.75 v -1.91667 l 3.71874,-0.75 h 2.10416 v 13.78123 h 3.4375 v 1.77083 h -8.95832 z"
       id="path1573"
       style="stroke-width:1.22483" />
  </g>
  <circle
     style="fill:none;stroke:#000000;stroke-width:4;stroke-miterlimit:4;stroke-dasharray:none;stroke-opacity:1"
     id="path970-1"
     cx="352.00003"
     cy="208.00003"
     r="74" />
  <circle
     style="fill:none;stroke:#000000;stroke-width:4;stroke-miterlimit:4;stroke-dasharray:none;stroke-opacity:1"
     id="path970-1-5"
     cx="352.00003"
     cy="208"
     r="54" />
  <circle
     style="fill:none;stroke:#000000;stroke-width:4;stroke-miterlimit:4;stroke-dasharray:none;stroke-opacity:1"
     id="path970-1-5-4"
     cx="352.00003"
     cy="208"
     r="34" />
</svg>
