<svg xmlns="http://www.w3.org/2000/svg" xml:space="preserve" fill="none" stroke="#000" stroke-width="2" viewBox="0 0 347 347"><path fill="#000" stroke="#311d58" stroke-width="5.0731" d="M2.5365529 2.5365529h341.92688v341.92691H2.5365529z"/><path fill="#fff" stroke="none" d="M228.46211 81.99365h-2.28781v-1.429876h-.71496v-5.004595h-.71493v-5.00457h-.42896v.714927h-3.5747v.714951h-5.29057V69.12472h-.71494v-1.429878h-.71494v-1.000918h.71494v-.714939h.71494v-.714938h.71495v-.714951h.71492v-.714938h2.14484v-.714939h.71493v-.714939h2.14483v-1.858847h-.71494v-1.429877h-.71493v-2.144828h-.71496v-.714938h-.71493v-.714939h-.71495v-1.715857h.71495v-.714939h.71493v-1.429877h1.42989v-.71495h4.57562v.71495h2.14481v.714938h1.4299v.714939h.42895v-4.289644h.71495v-.42897h-.71495v-1.715857h6.00551v.714951h.71495v.714938h.71493v1.429877h.71494v2.144828h.71494v2.859754h5.43354v-.714938h2.43081v.714938h.71493v.714939h.71495v1.429888h.71493v3.145735h-.71493v.714939h-.71495v.714939h-.71493v.714938h-.71496v.714951h-.71492v.714938h-.71495v.714939h-.71494v.714938h-.71494v.428971h.71494v.714938h.71494v.714939h.71495v.714938h.71492v.714939h.71496v2.144829h.71493v.714937h.71495v.714939h.71493v2.430796h-.71493v1.429877h-.71495v.714951h-2.43079v-.714951h-2.85977v-.714938h-1.42988v-1.429878h-.71494v-.714939h-1.42988v-.714937h-1.85883v2.144815h-.71495v2.144828h-.71495v1.429877h-.71494v1.429889h-.71493v.714927h-.71494v.714951h-.71494v.714937h-1.4299v.714939zm-1.07242-1.000919h.21448v-.714938h1.71587v.714938h1.1439v-.714938h.71493v-.714939h1.42988v-1.429889h.71495v-1.429877h.71494v-2.144815h.71493v-1.429878h.71495v-1.143908h-.71495v-.714951h-.71493v-.714927h-.71494v-1.000918h1.00091v.714939h1.42989v.714937h3.5747v.714939h.71493v.714939h.71494v.71495h.71495v.714927h1.42988v.714951h4.00367v-1.429878h.71493v-.428971h-.71493v-.714937h-.71494v-1.429878h-.71495V69.12472h-.71493v-1.429878h-1.42989v-.714949h-.71494v-.714939h-4.28964v-1.000907h2.14482v-.714951h1.42988v-.428958h-.71494v-1.000919h2.14482v-.714939h1.42989v-1.429876h.71493v-.714951h.71495v-.714939h.71494v-.714938h.71493v-1.858848h-.71493v-1.429877h-.71494v-.714939h-1.85885v.714939h-5.71952v1.429877h-.71494v2.144828h-.71494v.714938h-.71493v.714939h-1.00093v-1.000919h.71494v-1.429877h.71493v-1.429878h.71495v-4.003674h-.71495v-2.144816h-.71493v-.714939h-.71494v-2.144827h-4.00366v2.144827h-.71496v1.143898h.71496v2.430808h-.71496v1.143896h.71496v.714939h.71494v.714951h.71494v.714937h.71494v2.144817h1.14389v-1.429878h1.00093v1.715858h-.71495v.714938h-.71494v1.858848h.42896v-.714938h1.00093v1.000906h-.71495v1.858848h.42897V62.40428h2.14482v-.714938h.71494v-.714938h.71495v-.714951h.71493v-.714939h.71494v-.714938h1.71587v1.000918h-.71495v.714939h-.71495v.714939h-1.42987v.714938h-.71494v1.429889h-1.42988v.714939h-.71493v.714938h-.71495v.428971h.71495v1.715846h-.71495v.714949h-1.71586v-1.429888h-.71494v-.714939h-.42896v1.858847h.71494v1.715858h-1.71586v-.714939h-.42896v3.574706h-1.00092v-5.290563h1.42988v-1.143909h-1.14392v.714939h-.71493v.714939h-1.71586v-1.000908h.71495v-1.429889h1.42988v-1.429877h.71493V61.97531h-.42897v.714951h-1.71584v-.714951h-.71495v-.714938h-.71494v-.714939h-.71494v-.714939h-.71493v-.714938h-.71496v-.714938h-.71493v-.714951h-.71495v-1.715845h1.00093v.714937h.71494v.714939h.71493v.714939h.71495v.714939h.71493v1.429877h.71495v.714951h1.85885v-.714951h1.71586v.714951h1.1439v-1.858848h-.71495v-1.429889h-.71493v-.714939h-.71495v-.714938h-.71493v-.714939h-.71495v-.714939h-.71493v-.714939h-.71495v-.714937h-1.42988v-.714951h-2.14482v-.714939h-2.57377v.714939h-1.42989v.714951h-.71494v.714937h-.71494v1.143898h1.42988v.714951h.71493v2.859754h.71496v.714938h.71493v.714939h.71495v1.000919h-.71495v1.143908h.71495v.714939h.71493v.714939h1.42988v.714938h1.85884v-.714938h1.00092v1.000918h-.71495v.714939h-.71493v.714939h-2.14482v.714939h-4.28964v.714949h-1.71586v-1.000918h.71493v-.714939h5.00459v-1.143909h-1.42988v-.714938h-3.28872v.714938h-1.42988v.714939h-2.14482v.714939h-.71495v1.858847h.71495v2.859766h3.28871v-.714937h3.57471v-.714939h1.42988v-.714951h1.00092v5.719533h.71493v2.859754h.71495v1.000918h-.71495v1.143909h.71495v1.429877zm2.85977-7.578368h-.50047v-1.000918h1.00091v1.000918zm12.15398-2.144827h-.50046v-.714927h-.71494v-.71495h-.71494v-.714939h-2.14482v-.714939h-1.42989v-1.000919h1.71587v.714939h2.14481v.714939h.71495v.714951h.71495v.714939h.71493v1.000906zm-16.44362-3.574694h-.50048v-1.000918h1.00092v1.000918zm9.29421-10.724114h-.50046v-1.715857h1.00093v1.715857zm-.71493 9.008257h.21447v-1.143909h-.42896v1.143909zm-77.85229 8.038021H154.399V72.58713h-.71496v-5.004595h-.71493v-5.00457h-.42896v.714927h-3.5747v.714951h-5.29057v-2.859767h-.71494v-1.429878h-.71494V58.71728h.71494v-.714939h.71494v-.714938h.71495v-.714951h.71492v-.714938h2.14484v-.714939h.71493v-.714939h2.14483v-1.858847h-.71494v-1.429877h-.71493v-2.144828h-.71496v-.714938h-.71493v-.714939h-.71495V45.84835h.71495v-.714939h.71493v-1.429877h1.42989v-.71495h4.57562v.71495h2.14481v.714938h1.4299v.714939h.42895v-4.289644h.71495v-.42897h-.71495V38.69894h6.00551v.714951h.71495v.714938h.71493v1.429877h.71494v2.144828h.71494v2.859754h5.43354v-.714938h2.43081v.714938h.71493v.714939h.71495v1.429888h.71493v3.145735h-.71493v.714939h-.71495v.714939h-.71493v.714938h-.71496v.714951h-.71492v.714938h-.71495v.714939h-.71494v.714938h-.71494v.428971h.71494v.714938h.71494v.714939h.71495v.714938h.71492v.714939h.71496v2.144829h.71493v.714937h.71495v.714939h.71493v2.430796h-.71493v1.429877h-.71495v.714951h-2.43079v-.714951h-2.85977v-.714938h-1.42988v-1.429878h-.71494v-.714939h-1.42988v-.714937h-1.85883v2.144815h-.71495v2.144828h-.71495v1.429877h-.71494v1.429889h-.71493v.714927h-.71494v.714951h-.71494v.714937h-1.4299v.714939zm-1.07242-1.000919h.21449v-.714938h1.71587v.714938h1.1439v-.714938h.71493v-.714939h1.42988v-1.429889h.71495v-1.429877h.71494v-2.144815h.71493v-1.429878h.71495v-1.143908h-.71495v-.714951h-.71493v-.714927h-.71494v-1.000918h1.00091v.714939h1.42989v.714937h3.5747v.714939h.71493v.714939h.71494v.71495h.71495v.714927h1.42988v.714951h4.00367v-1.429878h.71493v-.428971h-.71493v-.714937h-.71494v-1.429878h-.71495v-1.429889h-.71493v-1.429878h-1.42989v-.714949h-.71494v-.714939h-4.28964v-1.000907h2.14482v-.714951h1.42988v-.428958h-.71494v-1.000919h2.14482v-.714939h1.42989V52.99776h.71493v-.714951h.71495v-.714939h.71494v-.714938h.71493v-1.858848h-.71493v-1.429877h-.71494v-.714939h-1.85885v.714939h-5.71952v1.429877h-.71494v2.144828h-.71494v.714938h-.71493v.714939h-1.00093V51.56787h.71494v-1.429877h.71493v-1.429878h.71495v-4.003674h-.71495v-2.144816h-.71493v-.714939h-.71494v-2.144827h-4.00366v2.144827h-.71497v1.143898h.71497v2.430808h-.71497v1.143896h.71497v.714939h.71494v.714951h.71494v.714937h.71494v2.144817h1.14389v-1.429878h1.00093v1.715858h-.71495v.714938h-.71494v1.858848h.42896v-.714938h1.00093v1.000906h-.71495v1.858848h.42897v-1.429878h2.14482v-.714938h.71494v-.714938h.71495v-.714951h.71493v-.714939h.71494v-.714938h1.71587v1.000918h-.71495v.714939h-.71495v.714939h-1.42987v.714938h-.71494v1.429889h-1.42988v.714939h-.71493v.714938h-.71495v.428971h.71495v1.715846h-.71495v.714949h-1.71587V58.28831h-.71494v-.714939h-.42896v1.858847h.71494v1.715858h-1.71586v-.714939h-.42896v3.574706h-1.00092V58.71728h1.42988v-1.143909h-1.14392v.714939h-.71493v.714939h-1.71586v-1.000908h.71495v-1.429889h1.42988v-1.429877h.71493v-1.143909h-.42897v.714951h-1.71584v-.714951h-.71495v-.714938h-.71494v-.714939h-.71494v-.714939h-.71493v-.714938h-.71496v-.714938h-.71493v-.714951h-.71495v-1.715845h1.00093v.714937h.71494v.714939h.71493v.714939h.71495v.714939h.71493v1.429877h.71495v.714951h1.85885v-.714951h1.71586v.714951h1.1439v-1.858848h-.71495v-1.429889h-.71493v-.714939h-.71495v-.714938h-.71493v-.714939h-.71495v-.714939h-.71493v-.714939h-.71495v-.714937h-1.42988v-.714951h-2.14482v-.714939h-2.57377v.714939h-1.42989v.714951h-.71494v.714937h-.71494v1.143898h1.42988v.714951h.71493v2.859754h.71496v.714938h.71493v.714939h.71495v1.000919h-.71495v1.143908h.71495v.714939h.71493v.714939h1.42988v.714938h1.85884v-.714938h1.00092v1.000918h-.71495v.714939h-.71493v.714939h-2.14482v.714939h-4.28964v.714949h-1.71586V58.71728h.71493v-.714939h5.00459v-1.143909h-1.42988v-.714938h-3.28872v.714938h-1.42988v.714939h-2.14482v.714939h-.71495v1.858847h.71495v2.859766h3.28871v-.714937h3.57471v-.714939h1.42988v-.714951h1.00092v5.719533h.71493v2.859754h.71495v1.000918h-.71495v1.143909h.71495v1.429877zm2.85977-7.578368h-.50047v-1.000918h1.00091v1.000918zm12.15398-2.144827h-.50046v-.714927h-.71494v-.71495h-.71494v-.714939h-2.14482v-.714939h-1.42989v-1.000919h1.71587v.714939h2.14481v.714939h.71495v.714951h.71496v.714939h.71493v1.000906zm-16.44362-3.574694h-.50048V58.71728h1.00092v1.000918zm9.29421-10.724114h-.50046v-1.715857h1.00093v1.715857zm-.71493 9.008257h.21447v-1.143909h-.42896v1.143909zM93.000108 56.20818h-2.28781v-1.429876h-.71496v-5.004595h-.71493v-5.00457h-.42896v.714927h-3.5747v.714951h-5.29057V43.33925h-.71494v-1.429878h-.71494v-1.000918h.71494v-.714939h.71494v-.714938h.71495v-.714951h.71492v-.714938h2.14484v-.714939h.71493v-.714939h2.14483v-1.858847h-.71494v-1.429877h-.71493v-2.144828h-.71496v-.714938h-.71493v-.714939h-.71495v-1.715857h.71495v-.714939h.71493v-1.429877h1.42989v-.71495h4.57562v.71495h2.14481v.714938h1.4299v.714939h.42895v-4.289644h.71495v-.42897h-.71495v-1.715857h6.005512v.714951h.71495v.714938h.71493v1.429877h.71494v2.144828h.71494v2.859754h5.43354v-.714938h2.43081v.714938h.71493v.714939h.71495v1.429888h.71493v3.145735h-.71493v.714939h-.71495v.714939h-.71493v.714938h-.71496v.714951h-.71492v.714938h-.71495v.714939h-.71494v.714938h-.71494v.428971h.71494v.714938h.71494v.714939h.71495v.714938h.71492v.714939h.71496v2.144829h.71493v.714937h.71495v.714939h.71493v2.430796h-.71493v1.429877h-.71495v.714951h-2.43079v-.714951h-2.85977v-.714938h-1.42988v-1.429878h-.71494v-.714939h-1.42988v-.714937h-1.85883v2.144815h-.71495v2.144828h-.714952v1.429877h-.71494v1.429889h-.71493v.714927h-.71494v.714951h-.71494v.714937h-1.4299v.714939zm-1.07242-1.000919h.21449v-.714938h1.71587v.714938h1.1439v-.714938h.71493v-.714939h1.42988v-1.429889h.71495v-1.429877h.71494v-2.144815h.71493v-1.429878h.714952v-1.143908h-.714952v-.714951h-.71493v-.714927h-.71494v-1.000918h1.00091v.714939h1.429892v.714937h3.5747v.714939h.71493v.714939h.71494v.71495h.71495v.714927h1.42988v.714951h4.00367v-1.429878h.71493v-.428971h-.71493v-.714937h-.71494v-1.429878h-.71495V43.33925h-.71493v-1.429878h-1.42989v-.714949h-.71494v-.714939h-4.28964v-1.000907h2.14482v-.714951h1.42988v-.428958h-.71494v-1.000919h2.14482v-.714939h1.42989v-1.429876h.71493v-.714951h.71495v-.714939h.71494v-.714938h.71493v-1.858848h-.71493v-1.429877h-.71494v-.714939h-1.85885v.714939h-5.71952v1.429877h-.71494v2.144828h-.71494v.714938h-.71493v.714939h-1.00093v-1.000919h.71494v-1.429877h.71493v-1.429878h.71495v-4.003674h-.71495v-2.144816h-.71493v-.714939h-.71494v-2.144827h-4.003662v2.144827h-.71497v1.143898h.71497v2.430808h-.71497v1.143896h.71497v.714939h.71494v.714951h.71494v.714937h.71494v2.144817h1.14389v-1.429878h1.000932v1.715858h-.714952v.714938h-.71494v1.858848h.42896v-.714938h1.000932v1.000906h-.714952v1.858848h.428972V36.61881h2.14482v-.714938h.71494v-.714938h.71495v-.714951h.71493v-.714939h.71494v-.714938h1.71587v1.000918h-.71495v.714939h-.71495v.714939h-1.42987v.714938h-.71494v1.429889h-1.42988v.714939h-.71493v.714938h-.71495v.428971h.71495v1.715846h-.71495v.714949h-1.715872v-1.429888h-.71494v-.714939h-.42896v1.858847h.71494v1.715858h-1.71586v-.714939h-.42896v3.574706h-1.00092v-5.290563h1.42988v-1.143909h-1.14392v.714939h-.71493v.714939h-1.71586v-1.000908h.71495v-1.429889h1.42988v-1.429877h.71493V36.18984h-.42897v.714951h-1.71584v-.714951h-.71495v-.714938h-.71494v-.714939h-.71494v-.714939h-.71493v-.714938h-.71496v-.714938h-.71493v-.714951h-.71495v-1.715845h1.00093v.714937h.71494v.714939h.71493v.714939h.71495v.714939h.71493v1.429877h.71495v.714951h1.85885v-.714951h1.71586v.714951h1.1439v-1.858848h-.71495v-1.429889h-.71493v-.714939h-.71495v-.714938h-.71493v-.714939h-.71495v-.714939h-.71493v-.714939h-.71495v-.714937h-1.42988v-.714951h-2.14482v-.714939h-2.57377v.714939h-1.42989v.714951h-.71494v.714937h-.71494v1.143898h1.42988v.714951h.71493v2.859754h.71496v.714938h.71493v.714939h.71495v1.000919h-.71495v1.143908h.71495v.714939h.71493v.714939h1.42988v.714938h1.85884v-.714938h1.00092v1.000918h-.71495v.714939h-.71493v.714939h-2.14482v.714939h-4.28964v.714949h-1.71586v-1.000918h.71493v-.714939h5.00459v-1.143909h-1.42988v-.714938h-3.28872v.714938h-1.42988v.714939h-2.14482v.714939h-.71495v1.858847h.71495v2.859766h3.28871v-.714937h3.57471v-.714939h1.42988v-.714951h1.00092v5.719533h.71493v2.859754h.71495v1.000918h-.71495v1.143909h.71495v1.429877zm2.85977-7.578368h-.50047v-1.000918h1.00091v1.000918zm12.153982-2.144827h-.50046v-.714927h-.71494v-.71495h-.71494v-.714939h-2.14482v-.714939h-1.42989v-1.000919h1.71587v.714939h2.14481v.714939h.71495v.714951h.71496v.714939h.71493v1.000906zm-16.443622-3.574694h-.50048v-1.000918h1.00092v1.000918zm9.29421-10.724114h-.50046v-1.715857h1.000932v1.715857zm-.71493 9.008257h.21447v-1.143909h-.42896v1.143909zM39.945208 83.16202h-2.28781v-1.429876h-.71496v-5.004595h-.714931v-5.00457h-.428959v.714927h-3.574701v.714951h-5.29057V70.29309h-.71494v-1.429878h-.71494v-1.000918h.71494v-.714939h.71494v-.714938h.71495v-.714951h.714921v-.714938h2.14484v-.714939h.71493v-.714939h2.14483v-1.858847h-.71494v-1.429877h-.71493v-2.144828h-.71496v-.714938h-.71493v-.714939h-.71495v-1.715857h.71495v-.714939h.71493v-1.429877h1.42989v-.71495h4.57562v.71495h2.14481v.714938h1.4299v.714939h.42895v-4.289644h.71495v-.42897h-.71495v-1.715857H47.2376v.714951h.71495v.714938h.71493v1.429877h.71494v2.144828h.71494v2.859754h5.43354v-.714938h2.43081v.714938h.71493v.714939h.71495v1.429888h.71493v3.145735h-.71493v.714939h-.71495v.714939h-.71493v.714938h-.71496v.714951h-.71492v.714938h-.71495v.714939h-.71494v.714938H54.387v.428971h.71494v.714938h.71494v.714939h.71495v.714938h.71492v.714939h.71496V71.437h.71493v.714937h.71495v.714939h.71493v2.430796h-.71493v1.429877h-.71495v.714951h-2.43079v-.714951h-2.85977v-.714938H51.9562v-1.429878h-.71494v-.714939h-1.42988v-.714937h-1.85883v2.144815h-.71495V77.4425h-.71495v1.429877h-.71494v1.429889h-.71493v.714927h-.714942v.714951h-.71494v.714937h-1.4299v.714939zm-1.07242-1.000919h.21449v-.714938h1.71587v.714938h1.1439v-.714938h.71493v-.714939h1.42988v-1.429889h.71495v-1.429877h.714942v-2.144815h.71493v-1.429878h.71495v-1.143908h-.71495v-.714951h-.71493v-.714927h-.714942v-1.000918h1.000912V71.437h1.42989v.714937h3.5747v.714939h.71493v.714939h.71494v.71495h.71495v.714927h1.42988v.714951h4.00367v-1.429878h.71493v-.428971h-.71493v-.714937h-.71494v-1.429878h-.71495V70.29309h-.71493v-1.429878h-1.42989v-.714949h-.71494v-.714939h-4.28964v-1.000907h2.14482v-.714951h1.42988v-.428958h-.71494v-1.000919h2.14482v-.714939h1.42989v-1.429876h.71493v-.714951h.71495v-.714939h.71494v-.714938h.71493v-1.858848h-.71493v-1.429877h-.71494v-.714939h-1.85885v.714939h-5.71952v1.429877h-.71494v2.144828h-.71494v.714938h-.71493v.714939h-1.00093v-1.000919h.71494v-1.429877h.71493v-1.429878h.71495v-4.003674h-.71495v-2.144816h-.71493V50.9897h-.71494v-2.144827h-4.003662V50.9897h-.71497v1.143898h.71497v2.430808h-.71497v1.143896h.71497v.714939h.71494v.714951h.71494v.714937h.714942v2.144817h1.14389v-1.429878h1.00093v1.715858h-.71495v.714938h-.71494v1.858848h.42896v-.714938h1.00093v1.000906h-.71495v1.858848h.42897V63.57265h2.14482v-.714938h.71494v-.714938h.71495v-.714951h.71493v-.714939h.71494v-.714938h1.71587v1.000918h-.71495v.714939h-.71495v.714939h-1.42987v.714938h-.71494v1.429889h-1.42988v.714939h-.71493v.714938h-.71495v.428971h.71495v1.715846h-.71495v.714949h-1.71587v-1.429888h-.714942v-.714939h-.42896v1.858847h.714942v1.715858h-1.715862v-.714939h-.42896v3.574706h-1.00092v-5.290563h1.42988v-1.143909h-1.14392v.714939h-.71493v.714939h-1.71586v-1.000908h.71495v-1.429889h1.42988v-1.429877h.71493V63.14368h-.42897v.714951h-1.71584v-.714951h-.71495v-.714938h-.71494v-.714939h-.71494v-.714939h-.71493v-.714938h-.71496v-.714938h-.71493v-.714951h-.71495v-1.715845h1.00093v.714937h.71494v.714939h.71493v.714939h.71495v.714939h.71493v1.429877h.71495v.714951h1.85885v-.714951h1.71586v.714951h1.1439v-1.858848h-.71495v-1.429889h-.71493v-.714939h-.71495v-.714938h-.71493v-.714939h-.71495v-.714939h-.71493v-.714939h-.71495v-.714937h-1.42988v-.714951h-2.14482v-.714939h-2.57377v.714939h-1.42989v.714951h-.71494v.714937h-.71494v1.143898h1.42988v.714951h.71493v2.859754h.71496v.714938h.71493v.714939h.71495v1.000919h-.71495v1.143908h.71495v.714939h.71493v.714939h1.42988v.714938h1.85884v-.714938h1.00092v1.000918h-.71495v.714939h-.71493v.714939h-2.14482v.714939h-4.28964v.714949h-1.71586v-1.000918h.71493v-.714939h5.00459v-1.143909h-1.42988v-.714938h-3.28872v.714938h-1.42988v.714939h-2.14482v.714939h-.71495v1.858847h.71495v2.859766h3.28871V71.437h3.57471v-.714939h1.42988v-.714951h1.00092v5.719533h.71493v2.859754h.71495v1.000918h-.71495v1.143909h.71495v1.429877zm2.85977-7.578368h-.50047v-1.000918h1.00091v1.000918zm12.153982-2.144827h-.50046v-.714927h-.71494v-.71495h-.71494v-.714939h-2.14482v-.714939h-1.42989v-1.000919h1.71587v.714939h2.14481v.714939h.71495v.714951h.71496V71.437h.71493v1.000906zm-16.443623-3.574694h-.500479v-1.000918h1.000919v1.000918zm9.294213-10.724114h-.50046v-1.715857h1.00093v1.715857zm-.71493 9.008257h.21447v-1.143909h-.42896v1.143909zm254.7945 9.802499h-2.28781v-1.429876h-.71496v-5.004595h-.71493v-5.00457h-.42896v.714927h-3.5747v.714951h-5.29057v-2.859767h-.71494v-1.429878h-.71494v-1.000918h.71494v-.714939h.71494v-.714938h.71495V59.5053h.71492v-.714938h2.14484v-.714939h.71493v-.714939h2.14483v-1.858847h-.71494V54.07176h-.71493v-2.144828h-.71496v-.714938h-.71493v-.714939h-.71495v-1.715857h.71495v-.714939h.71493v-1.429877h1.42989v-.71495h4.57562v.71495h2.14481v.714938h1.4299v.714939h.42895v-4.289644h.71495v-.42897h-.71495v-1.715857h6.00551v.714951h.71495v.714938h.71493v1.429877h.71494v2.144828h.71494v2.859754h5.43354v-.714938h2.43081v.714938h.71493v.714939h.71495v1.429888h.71493v3.145735h-.71493v.714939h-.71495v.714939h-.71493v.714938h-.71496v.714951h-.71492v.714938h-.71495v.714939h-.71494v.714938h-.71494v.428971h.71494v.714938h.71494v.714939h.71495v.714938h.71492v.714939h.71496v2.144829h.71493v.714937h.71495v.714939h.71493v2.430796h-.71493v1.429877h-.71495v.714951h-2.43079v-.714951h-2.85977v-.714938h-1.42988v-1.429878h-.71494v-.714939h-1.42988v-.714937h-1.85883v2.144815h-.71495v2.144828h-.71495v1.429877h-.71494V74.0901h-.71493v.714927h-.71494v.714951h-.71494v.714937h-1.4299v.714939zm-1.07242-1.000919h.21449v-.714938h1.71587v.714938h1.1439v-.714938h.71493v-.714939h1.42988v-1.429889h.71495v-1.429877h.71494v-2.144815h.71493v-1.429878h.71495v-1.143908h-.71495v-.714951h-.71493v-.714927h-.71494v-1.000918h1.00091v.714939h1.42989v.714937h3.5747v.714939h.71493v.714939h.71494v.71495h.71495v.714927h1.42988v.714951h4.00367v-1.429878h.71493v-.428971h-.71493v-.714937h-.71494v-1.429878h-.71495v-1.429889h-.71493v-1.429878h-1.42989v-.714949h-.71494v-.714939h-4.28964v-1.000907h2.14482V59.5053h1.42988v-.428958h-.71494v-1.000919h2.14482v-.714939h1.42989v-1.429876h.71493v-.714951h.71495v-.714939h.71494v-.714938h.71493v-1.858848h-.71493v-1.429877h-.71494v-.714939h-1.85885v.714939h-5.71952v1.429877h-.71494v2.144828h-.71494v.714938h-.71493v.714939h-1.00093v-1.000919h.71494v-1.429877h.71493v-1.429878h.71495v-4.003674h-.71495v-2.144816h-.71493v-.714939h-.71494v-2.144827h-4.00366v2.144827h-.71497v1.143898h.71497v2.430808h-.71497v1.143896h.71497v.714939h.71494v.714951h.71494v.714937h.71494v2.144817h1.14389v-1.429878h1.00093v1.715858h-.71495v.714938h-.71494v1.858848h.42896v-.714938h1.00093v1.000906h-.71495v1.858848h.42897v-1.429878h2.14482v-.714938h.71494v-.714938h.71495v-.714951h.71493v-.714939h.71494v-.714938h1.71587v1.000918h-.71495v.714939h-.71495v.714939h-1.42987v.714938h-.71494v1.429889h-1.42988v.714939h-.71493v.714938h-.71495v.428971h.71495v1.715846h-.71495v.714949h-1.71587v-1.429888h-.71494v-.714939h-.42896v1.858847h.71494v1.715858h-1.71586v-.714939h-.42896v3.574706h-1.00092v-5.290563h1.42988v-1.143909h-1.14392v.714939h-.71493v.714939h-1.71586v-1.000908h.71495V59.5053h1.42988v-1.429877h.71493v-1.143909h-.42897v.714951h-1.71584v-.714951h-.71495v-.714938h-.71494v-.714939h-.71494v-.714939h-.71493v-.714938h-.71496v-.714938h-.71493v-.714951h-.71495v-1.715845h1.00093v.714937h.71494v.714939h.71493v.714939h.71495v.714939h.71493v1.429877h.71495v.714951h1.85885v-.714951h1.71586v.714951h1.1439V54.07176h-.71495v-1.429889h-.71493v-.714939h-.71495v-.714938h-.71493v-.714939h-.71495v-.714939h-.71493v-.714939h-.71495v-.714937h-1.42988v-.714951H297.099v-.714939h-2.57377v.714939h-1.42989v.714951h-.71494v.714937h-.71494v1.143898h1.42988v.714951h.71493v2.859754h.71496v.714938h.71493v.714939h.71495v1.000919h-.71495v1.143908h.71495v.714939h.71493v.714939h1.42988v.714938h1.85884v-.714938h1.00092v1.000918h-.71495v.714939h-.71493v.714939h-2.14482v.714939h-4.28964v.714949h-1.71586v-1.000918h.71493v-.714939h5.00459V59.79128h-1.42988v-.714938h-3.28872v.714938h-1.42988v.714939h-2.14482v.714939h-.71495v1.858847h.71495v2.859766h3.28871v-.714937h3.57471v-.714939h1.42988v-.714951h1.00092v5.719533h.71493v2.859754h.71495v1.000918h-.71495v1.143909h.71495v1.429877zm2.85977-7.578368h-.50047v-1.000918h1.00091v1.000918zm12.15398-2.144827h-.50046v-.714927h-.71494v-.71495h-.71494v-.714939h-2.14482v-.714939h-1.42989v-1.000919h1.71587v.714939h2.14481v.714939h.71495v.714951h.71496v.714939h.71493v1.000906zm-16.44362-3.574694h-.50048v-1.000918h1.00092v1.000918zm9.29421-10.724114h-.50046v-1.715857h1.00093v1.715857zm-.71493 9.008257h.21447V59.79128h-.42896v1.143909zm-20.78142 67.974051h-2.28781v-1.42987h-.71496v-5.0046h-.71493v-5.00457h-.42896v.71493h-3.5747v.71495h-5.29057v-2.85977h-.71494v-1.42988h-.71494v-1.00091h.71494v-.71494h.71494v-.71494h.71495v-.71495h.71492v-.71494h2.14484v-.71494h.71493v-.71494h2.14483v-1.85885h-.71494v-1.42988h-.71493v-2.14483h-.71496v-.71494h-.71493v-.71494h-.71495v-1.71585h.71495v-.71494h.71493v-1.42988h1.42989v-.71495h4.57562v.71495h2.14481v.714938h1.4299v.714942h.42895v-4.289647h.71495v-.42897h-.71495v-1.715857h6.00551v.714951h.71495v.714938h.71493v1.429877h.71494v2.144828h.71494v2.85975h5.43354v-.71493h2.43081v.71493h.71493v.71494h.71495v1.42989h.71493v3.14574h-.71493v.71494h-.71495v.71494h-.71493v.71494h-.71496v.71495h-.71492v.71494h-.71495v.71494h-.71494v.71494h-.71494v.42897h.71494v.71494h.71494v.71494h.71495v.71493h.71492v.71494h.71496v2.14483h.71493v.71494h.71495v.71494h.71493v2.43079h-.71493v1.42988h-.71495v.71495h-2.43079v-.71495h-2.85977v-.71494h-1.42988v-1.42988h-.71494v-.71493h-1.42988v-.71494h-1.85883v2.14481h-.71495v2.14483h-.71495v1.42988h-.71494v1.42989h-.71493v.71492h-.71494v.71496h-.71494v.71493h-1.4299v.71494zm-1.07242-1.00092h.21449v-.71494h1.71587v.71494h1.1439v-.71494h.71493v-.71493h1.42988v-1.42989h.71495v-1.42988h.71494v-2.14481h.71493v-1.42988h.71495v-1.14391h-.71495v-.71495h-.71493v-.71493h-.71494v-1.00092h1.00091v.71494h1.42989v.71494h3.5747v.71494h.71493v.71494h.71494v.71495h.71495v.71492h1.42988v.71495h4.00367v-1.42987h.71493v-.42897h-.71493v-.71494h-.71494v-1.42988h-.71495v-1.42989h-.71493v-1.42988h-1.42989v-.71495h-.71494v-.71493h-4.28964v-1.00091h2.14482v-.71495h1.42988v-.42896h-.71494v-1.00092h2.14482v-.71494h1.42989V107.89h.71493v-.71496h.71495v-.71494h.71494v-.71494h.71493v-1.85885h-.71493v-1.42988h-.71494v-.71494h-1.85885v.71494h-5.71952v1.42988h-.71494v2.14483h-.71494v.71494h-.71493v.71495h-1.00093v-1.00093h.71494v-1.42988h.71493v-1.42988h.71495v-4.003673h-.71495v-2.144816h-.71493v-.714939h-.71494v-2.144827h-4.00366v2.144827h-.71497v1.143898h.71497v2.43081h-.71497v1.14389h.71497v.71494h.71494v.71495h.71494v.71494h.71494v2.14482h1.14389v-1.42988h1.00093v1.71586h-.71495v.71494h-.71494v1.85885h.42896V107.89h1.00093v1.0009h-.71495v1.85885h.42897v-1.42988h2.14482v-.71494h.71494V107.89h.71495v-.71496h.71493v-.71494h.71494v-.71494h1.71587v1.00092h-.71495v.71494h-.71495v.71494h-1.42987v.71494h-.71494v1.42989h-1.42988v.71494h-.71493v.71494h-.71495v.42897h.71495v1.71584h-.71495v.71495h-1.71587v-1.42988h-.71494v-.71494h-.42896v1.85884h.71494v1.71586h-1.71586v-.71494h-.42896v3.57471h-1.00092v-5.29056h1.42988v-1.14391h-1.14392v.71494h-.71493v.71493h-1.71586v-1.0009h.71495v-1.42989h1.42988v-1.42988h.71493v-1.14391h-.42897v.71495h-1.71584v-.71495h-.71495v-.71494h-.71494v-.71494h-.71494v-.71494h-.71493v-.71494h-.71496v-.71493h-.71493v-.71496h-.71495v-1.71585h1.00093v.71494h.71494v.71494h.71493v.71494h.71495v.71494h.71493v1.42988h.71495v.71496h1.85885v-.71496h1.71586v.71496h1.1439v-1.85886h-.71495v-1.42989h-.71493v-.71494h-.71495v-.71494h-.71493v-.71494h-.71495v-.71494h-.71493v-.71493h-.71495v-.71494h-1.42988v-.714953h-2.14482v-.714939h-2.57377v.714939h-1.42989v.714953h-.71494v.71494h-.71494v1.14389h1.42988v.71495h.71493v2.85976h.71496v.71494h.71493v.71494h.71495v1.00092h-.71495v1.14391h.71495v.71494h.71493v.71494h1.42988v.71494h1.85884v-.71494h1.00092v1.00092h-.71495v.71494h-.71493v.71494h-2.14482v.71493h-4.28964v.71495h-1.71586v-1.00091h.71493v-.71494h5.00459v-1.14391h-1.42988v-.71494h-3.28872v.71494h-1.42988v.71494h-2.14482v.71494h-.71495v1.85884h.71495v2.85977h3.28871v-.71494h3.57471v-.71494h1.42988v-.71495h1.00092v5.71954h.71493v2.85975h.71495v1.00092h-.71495v1.14391h.71495v1.42987zm2.85977-7.57836h-.50047v-1.00092h1.00091v1.00092zm12.15398-2.14483h-.50046v-.71493h-.71494v-.71495h-.71494v-.71494h-2.14482v-.71494h-1.42989v-1.00092h1.71587v.71494h2.14481v.71494h.71495v.71495h.71496v.71494h.71493v1.00091zm-16.44362-3.5747h-.50048v-1.00091h1.00092v1.00091zm9.29421-10.72412h-.50046v-1.71586h1.00093v1.71586zm-.71493 9.00827h.21447v-1.14391h-.42896v1.14391zm-57.49704 30.17365h-2.28781v-1.42987h-.71496v-5.0046h-.71493v-5.00457h-.42896v.71493h-3.5747v.71495h-5.29057v-2.85977h-.71494v-1.42988h-.71494v-1.00091h.71494v-.71494h.71494v-.71494h.71495v-.71495h.71492v-.71494h2.14484v-.71494h.71493v-.71494h2.14483v-1.85885h-.71494v-1.42988h-.71493v-2.14483h-.71496v-.71494h-.71493v-.71494h-.71495v-1.71585h.71495v-.71494h.71493v-1.42988h1.42989v-.71494h4.57562v.71494h2.14481v.71494h1.4299v.71494h.42895v-4.28964h.71495v-.42897h-.71495v-1.71586h6.00551v.71495h.71495v.71494h.71493v1.42988h.71494v2.14482h.71494v2.85975h5.43354v-.71493h2.43081v.71493h.71493v.71494h.71495v1.42989h.71493v3.14574h-.71493v.71494h-.71495v.71494h-.71493v.71494h-.71496v.71495h-.71492v.71494h-.71495v.71494h-.71494v.71494h-.71494v.42897h.71494v.71494h.71494v.71494h.71495v.71493h.71492v.71494h.71496v2.14483h.71493v.71494h.71495v.71494h.71493v2.43079h-.71493v1.42988h-.71495v.71495h-2.43079v-.71495h-2.85977v-.71494h-1.42988v-1.42988h-.71494v-.71493h-1.42988v-.71494h-1.85883v2.14481h-.71495v2.14483h-.71495v1.42988h-.71494v1.42989h-.71493v.71492h-.71494v.71496h-.71494v.71493h-1.4299v.71494zm-1.07242-1.00092h.21449v-.71494h1.71587v.71494h1.1439v-.71494h.71493v-.71493h1.42988v-1.42989h.71495v-1.42988h.71494v-2.14481h.71493v-1.42988h.71495v-1.14391h-.71495v-.71495h-.71493v-.71493h-.71494v-1.00092h1.00091v.71494h1.42989v.71494h3.5747v.71494h.71493v.71494h.71494v.71495h.71495v.71492h1.42988v.71495h4.00367v-1.42987h.71493v-.42897h-.71493v-.71494h-.71494v-1.42988h-.71495v-1.42989h-.71493v-1.42988h-1.42989v-.71495h-.71494v-.71493h-4.28964v-1.00091h2.14482v-.71495h1.42988v-.42896h-.71494v-1.00092h2.14482v-.71494h1.42989v-1.42987h.71493v-.71496h.71495v-.71494h.71494v-.71494h.71493v-1.85885h-.71493v-1.42988h-.71494v-.71494h-1.85885v.71494h-5.71952v1.42988h-.71494v2.14483h-.71494v.71494h-.71493v.71495h-1.00093v-1.00093h.71494v-1.42988h.71493v-1.42988h.71495v-4.00367h-.71495v-2.14481h-.71493v-.71494h-.71494v-2.14483h-4.00366v2.14483h-.71497v1.1439h.71497v2.4308h-.71497v1.14389h.71497v.71494h.71494v.71495h.71494v.71494h.71494v2.14482h1.14389v-1.42988h1.00093v1.71586h-.71495v.71494h-.71494v1.85885h.42896v-.71493h1.00093v1.0009h-.71495v1.85885h.42897v-1.42988h2.14482v-.71494h.71494v-.71493h.71495v-.71496h.71493v-.71494h.71494v-.71494h1.71587v1.00092h-.71495v.71494h-.71495v.71494h-1.42987v.71494h-.71494v1.42989h-1.42988v.71494h-.71493v.71494h-.71495v.42897h.71495v1.71584h-.71495v.71495h-1.71587v-1.42988h-.71494v-.71494h-.42896v1.85884h.71494v1.71586h-1.71586v-.71494h-.42896v3.57471h-1.00092v-5.29056h1.42988v-1.14391h-1.14392v.71494h-.71493v.71493h-1.71586v-1.0009h.71495v-1.42989h1.42988v-1.42988h.71493v-1.14391h-.42897v.71495h-1.71584v-.71495h-.71495v-.71494h-.71494v-.71494h-.71494v-.71494h-.71493v-.71494h-.71496v-.71493h-.71493v-.71496h-.71495v-1.71585h1.00093v.71494h.71494v.71494h.71493v.71494h.71495v.71494h.71493v1.42988h.71495v.71496h1.85885v-.71496h1.71586v.71496h1.1439v-1.85886h-.71495v-1.42989h-.71493v-.71494h-.71495v-.71494h-.71493v-.71494h-.71495v-.71494h-.71493v-.71493h-.71495v-.71494h-1.42988v-.71495h-2.14482v-.71494h-2.57377v.71494h-1.42989v.71495h-.71494v.71494h-.71494v1.14389h1.42988v.71495h.71493v2.85976h.71496v.71494h.71493v.71494h.71495v1.00092h-.71495v1.14391h.71495v.71494h.71493v.71494h1.42988v.71494h1.85884v-.71494h1.00092v1.00092h-.71495v.71494h-.71493v.71494h-2.14482v.71493h-4.28964v.71495H225.255v-1.00091h.71493v-.71494h5.00459v-1.14391h-1.42988v-.71494h-3.28872v.71494h-1.42988v.71494h-2.14482v.71494h-.71495v1.85884h.71495v2.85977h3.28871v-.71494h3.57471v-.71494h1.42988v-.71495h1.00092v5.71954h.71493v2.85975h.71495v1.00092h-.71495v1.14391h.71495v1.42987zm2.85977-7.57836h-.50047v-1.00092h1.00091v1.00092zm12.15398-2.14483h-.50046v-.71493h-.71494v-.71495h-.71494v-.71494h-2.14482v-.71494h-1.42989v-1.00092h1.71587v.71494h2.14481v.71494h.71495v.71495h.71496v.71494h.71493v1.00091zm-16.44362-3.5747h-.50048v-1.00091h1.00092v1.00091zm9.29421-10.72412h-.50046v-1.71586h1.00093v1.71586zm-.71493 9.00827h.21447v-1.14391h-.42896v1.14391zm-116.35417-1.8121h-2.28781v-1.42987h-.71496v-5.0046h-.71493v-5.00457h-.42896v.71493h-3.5747v.71495h-5.29057v-2.85977h-.71494v-1.42988h-.71494v-1.00091h.71494v-.71494h.71494v-.71494h.71495v-.71495h.71492v-.71494h2.14484v-.71494h.71493v-.71494h2.14483v-1.85885h-.71494v-1.42988h-.71493v-2.14483h-.71496v-.714937h-.71493v-.71494h-.71495v-1.71585h.71495v-.71494h.71493v-1.42988h1.42989v-.71494h4.57562v.71494h2.14481v.71494h1.4299v.71494h.42895v-4.28964h.71495v-.42897h-.71495v-1.71586h6.00551v.71495h.71495v.71494h.71493v1.42988h.71494v2.14482h.71494v2.85975h5.43354v-.71493h2.43081v.71493h.71493v.71494h.71495v1.42989h.71493v3.145737h-.71493v.71494h-.71495v.71494h-.71493v.71494h-.71496v.71495h-.71492v.71494h-.71495v.71494h-.71494v.71494h-.71494v.42897h.71494v.71494h.71494v.71494h.71495v.71493h.71492v.71494h.71496v2.14483h.71493v.71494h.71495v.71494h.71493v2.43079h-.71493v1.42988h-.71495v.71495h-2.43079v-.71495h-2.85977v-.71494h-1.42988v-1.42988h-.71494v-.71493h-1.42988v-.71494h-1.85883v2.14481h-.71495v2.14483h-.71495v1.42988h-.71494v1.42989h-.71493v.71492h-.71494v.71496h-.71494v.71493h-1.4299v.71494zm-1.07242-1.00092h.21449v-.71494h1.71587v.71494h1.1439v-.71494h.71493v-.71493h1.42988v-1.42989h.71495v-1.42988h.71494v-2.14481h.71493v-1.42988h.71495v-1.14391h-.71495v-.71495h-.71493v-.71493h-.71494v-1.00092h1.00091v.71494h1.42989v.71494h3.5747v.71494h.71493v.71494h.71494v.71495h.71495v.71492h1.42988v.71495h4.00367v-1.42987h.71493v-.42897h-.71493v-.71494h-.71494v-1.42988h-.71495v-1.42989h-.71493v-1.42988h-1.42989v-.71495h-.71494v-.71493h-4.28964v-1.00091h2.14482v-.71495h1.42988v-.42896h-.71494v-1.00092h2.14482v-.71494h1.42989v-1.42987h.71493v-.71496h.71495v-.71494h.71494v-.71494h.71493v-1.85885h-.71493v-1.429877h-.71494v-.71494h-1.85885v.71494h-5.71952v1.429877h-.71494v2.14483h-.71494v.71494h-.71493v.71495h-1.00093v-1.00093h.71494v-1.42988h.71493v-1.429877h.71495v-4.00367h-.71495v-2.14481h-.71493v-.71494h-.71494v-2.14483h-4.00366v2.14483h-.71497v1.1439h.71497v2.4308h-.71497v1.14389h.71497v.71494h.71494v.71495h.71494v.71494h.71494v2.144817h1.14389v-1.42988h1.00093v1.71586h-.71495v.71494h-.71494v1.85885h.42896v-.71493h1.00093v1.0009h-.71495v1.85885h.42897v-1.42988h2.14482v-.71494h.71494v-.71493h.71495v-.71496h.71493v-.71494h.71494v-.71494h1.71587v1.00092h-.71495v.71494h-.71495v.71494h-1.42987v.71494h-.71494v1.42989h-1.42988v.71494h-.71493v.71494h-.71495v.42897h.71495v1.71584h-.71495v.71495h-1.71587v-1.42988h-.71494v-.71494h-.42896v1.85884h.71494v1.71586h-1.71586v-.71494h-.42896v3.57471h-1.00092v-5.29056h1.42988v-1.14391h-1.14392v.71494h-.71493v.71493h-1.71586v-1.0009h.71495v-1.42989h1.42988v-1.42988h.71493v-1.14391h-.42897v.71495h-1.71584v-.71495h-.71495v-.71494h-.71494v-.71494h-.71494v-.71494h-.71493v-.71494h-.71496v-.71493h-.71493v-.71496h-.71495v-1.715847h1.00093v.71494h.71494v.714937h.71493v.71494h.71495v.71494h.71493v1.42988h.71495v.71496h1.85885v-.71496h1.71586v.71496h1.1439v-1.85886h-.71495v-1.42989h-.71493v-.71494h-.71495v-.714937h-.71493v-.71494h-.71495v-.71494h-.71493v-.71493h-.71495v-.71494h-1.42988v-.71495h-2.14482v-.71494h-2.57377v.71494h-1.42989v.71495h-.71494v.71494h-.71494v1.14389h1.42988v.71495h.71493v2.859757h.71496v.71494h.71493v.71494h.71495v1.00092h-.71495v1.14391h.71495v.71494h.71493v.71494h1.42988v.71494h1.85884v-.71494h1.00092v1.00092h-.71495v.71494h-.71493v.71494h-2.14482v.71493h-4.28964v.71495h-1.71586v-1.00091h.71493v-.71494h5.00459v-1.14391h-1.42988v-.71494h-3.28872v.71494h-1.42988v.71494h-2.14482v.71494h-.71495v1.85884h.71495v2.85977h3.28871v-.71494h3.57471v-.71494h1.42988v-.71495h1.00092v5.71954h.71493v2.85975h.71495v1.00092h-.71495v1.14391h.71495v1.42987zm2.85977-7.57836h-.50047v-1.00092h1.00091v1.00092zm12.15398-2.14483h-.50046v-.71493h-.71494v-.71495h-.71494v-.71494h-2.14482v-.71494h-1.42989v-1.00092h1.71587v.71494h2.14481v.71494h.71495v.71495h.71496v.71494h.71493v1.00091zm-16.44362-3.5747h-.50048v-1.00091h1.00092v1.00091zm9.29421-10.72412h-.50046v-1.715857h1.00093v1.715857zm-.71493 9.00827h.21447v-1.14391h-.42896v1.14391zm-83.1881 30.11024h-2.28781v-1.42987h-.71496v-5.0046h-.71493v-5.00457h-.42896v.71493h-3.5747v.71495H34.292v-2.85977h-.71494v-1.42988h-.71494v-1.00091h.71494v-.71494h.71494v-.71494h.71495v-.71495h.71492v-.71494h2.14484v-.71494h.71493v-.71494h2.14483v-1.85885h-.71494v-1.42988h-.71493v-2.14483h-.71496v-.71494h-.71493v-.71494h-.71495v-1.71585h.71495v-.71494h.71493v-1.42988h1.42989v-.71494h4.57562v.71494h2.14481v.71494h1.4299v.71494h.42895v-4.28964h.71495v-.42897h-.71495v-1.71586h6.00551v.71495h.71495v.71494h.71493v1.42988h.71494v2.14482h.71494v2.85975h5.43354v-.71493h2.43081v.71493h.71493v.71494h.71495v1.42989h.71493v3.14574h-.71493v.71494h-.71495v.71494h-.71493v.71494h-.71496v.71495h-.71492v.71494h-.71495v.71494h-.71494v.71494h-.71494v.42897h.71494v.71494h.71494v.71494h.71495v.71493h.71492v.71494h.71496v2.14483h.71493v.71494h.71495v.71494h.71493v2.43079h-.71493v1.42988h-.71495v.71495h-2.43079v-.71495H60.7448v-.71494h-1.42988v-1.42988h-.71494v-.71493H57.1701v-.71494h-1.85883v2.14481h-.71495v2.14483h-.71495v1.42988h-.71494v1.42989h-.71493v.71492h-.71494v.71496h-.71494v.71493h-1.4299v.71494zm-1.07242-1.00092h.21449v-.71494h1.71587v.71494h1.1439v-.71494h.71493v-.71493h1.42988v-1.42989h.71495v-1.42988h.71494v-2.14481h.71493v-1.42988h.71495v-1.14391h-.71495v-.71495h-.71493v-.71493h-.71494v-1.00092h1.00091v.71494h1.42989v.71494h3.5747v.71494h.71493v.71494h.71494v.71495h.71495v.71492h1.42988v.71495h4.00367v-1.42987h.71493v-.42897h-.71493v-.71494h-.71494v-1.42988h-.71495v-1.42989h-.71493v-1.42988h-1.42989v-.71495h-.71494v-.71493h-4.28964v-1.00091h2.14482v-.71495h1.42988v-.42896h-.71494v-1.00092h2.14482v-.71494h1.42989v-1.42987h.71493v-.71496h.71495v-.71494h.71494v-.71494h.71493v-1.85885h-.71493v-1.42988h-.71494v-.71494h-1.85885v.71494h-5.71952v1.42988h-.71494v2.14483h-.71494v.71494h-.71493v.71495h-1.00093v-1.00093h.71494v-1.42988h.71493v-1.42988h.71495v-4.00367h-.71495v-2.14481h-.71493v-.71494h-.71494v-2.14483h-4.00366v2.14483h-.71497v1.1439h.71497v2.4308h-.71497v1.14389h.71497v.71494h.71494v.71495h.71494v.71494h.71494v2.14482h1.14389v-1.42988h1.00093v1.71586h-.71495v.71494h-.71494v1.85885h.42896v-.71493h1.00093v1.0009h-.71495v1.85885h.42897v-1.42988h2.14482v-.71494h.71494v-.71493h.71495v-.71496h.71493v-.71494h.71494v-.71494h1.71587v1.00092h-.71495v.71494h-.71495v.71494h-1.42987v.71494h-.71494v1.42989h-1.42988v.71494h-.71493v.71494h-.71495v.42897h.71495v1.71584h-.71495v.71495h-1.71587v-1.42988h-.71494v-.71494h-.42896v1.85884h.71494v1.71586h-1.71586v-.71494h-.42896v3.57471h-1.00092v-5.29056h1.42988v-1.14391h-1.14392v.71494h-.71493v.71493h-1.71586v-1.0009h.71495v-1.42989h1.42988v-1.42988h.71493v-1.14391h-.42897v.71495h-1.71584v-.71495h-.71495v-.71494h-.71494v-.71494h-.71494v-.71494h-.71493v-.71494h-.71496v-.71493h-.71493v-.71496h-.71495v-1.71585h1.00093v.71494h.71494v.71494h.71493v.71494h.71495v.71494h.71493v1.42988h.71495v.71496h1.85885v-.71496h1.71586v.71496h1.1439v-1.85886h-.71495v-1.42989h-.71493v-.71494h-.71495v-.71494h-.71493v-.71494h-.71495v-.71494h-.71493v-.71493h-.71495v-.71494h-1.42988v-.71495h-2.14482v-.71494h-2.57377v.71494h-1.42989v.71495h-.71494v.71494h-.71494v1.14389h1.42988v.71495h.71493v2.85976h.71496v.71494h.71493v.71494h.71495v1.00092h-.71495v1.14391h.71495v.71494h.71493v.71494h1.42988v.71494h1.85884v-.71494h1.00092v1.00092h-.71495v.71494h-.71493v.71494h-2.14482v.71493h-4.28964v.71495h-1.71586v-1.00091h.71493v-.71494h5.00459v-1.14391h-1.42988v-.71494h-3.28872v.71494h-1.42988v.71494h-2.14482v.71494h-.71495v1.85884h.71495v2.85977h3.28871v-.71494h3.57471v-.71494h1.42988v-.71495h1.00092v5.71954h.71493v2.85975h.71495v1.00092h-.71495v1.14391h.71495v1.42987zm2.85977-7.57836h-.50047v-1.00092h1.00091v1.00092zm12.15398-2.14483h-.50046v-.71493h-.71494v-.71495h-.71494v-.71494H57.1701v-.71494h-1.42989v-1.00092h1.71587v.71494h2.14481v.71494h.71495v.71495h.71496v.71494h.71493v1.00091zm-16.44362-3.5747h-.50048v-1.00091h1.00092v1.00091zm9.29421-10.72412h-.50046v-1.71586h1.00093v1.71586zm-.71493 9.00827h.21447v-1.14391h-.42896v1.14391zm8.433165 77.37189h-2.28781v-1.42987h-.71496v-5.0046h-.71493v-5.00457h-.42896v.71493h-3.5747v.71495h-5.29057v-2.85977h-.71494v-1.42988h-.71494v-1.00091h.71494v-.71494h.71494v-.71494h.71495v-.71495h.71492v-.71494h2.14484v-.71494h.71493v-.71494h2.14483v-1.85885h-.71494v-1.42988h-.71493v-2.14483h-.71496v-.71494h-.71493v-.71494h-.71495v-1.71585h.71495v-.71494h.71493v-1.42988h1.42989v-.71494h4.57562v.71494h2.14481v.71494h1.4299v.71494h.42895v-4.28964h.71495v-.42897h-.71495v-1.71586h6.00551v.71495h.71495v.71494h.71493v1.42988h.71494v2.14482h.71494v2.85975h5.43354v-.71493h2.43081v.71493h.71493v.71494h.71495v1.42989h.71493v3.14574h-.71493v.71494h-.71495v.71494h-.71493v.71494h-.71496v.71495h-.71492v.71494h-.71495v.71494h-.71494v.71494h-.71494v.42897h.71494v.71494h.71494v.71494h.71495v.71493h.71492v.71494h.71496v2.14483h.71493v.71494h.71495v.71494h.71493v2.43079h-.71493v1.42988h-.71495v.71495h-2.43079v-.71495h-2.85977v-.71494h-1.42988v-1.42988h-.71494v-.71493h-1.42988v-.71494h-1.85883v2.14481h-.71495v2.14483h-.71495v1.42988h-.71494v1.42989h-.71493v.71492h-.71494v.71496h-.71494v.71493h-1.4299v.71494zm-1.07242-1.00092h.21449v-.71494h1.71587v.71494h1.1439v-.71494h.71493v-.71493h1.42988v-1.42989h.71495v-1.42988h.71494v-2.14481h.71493v-1.42988h.71495v-1.14391h-.71495v-.71495h-.71493v-.71493h-.71494v-1.00092h1.00091v.71494h1.42989v.71494h3.5747v.71494h.71493v.71494h.71494v.71495h.71495v.71492h1.42988v.71495h4.00367v-1.42987h.71493v-.42897h-.71493v-.71494h-.71494v-1.42988h-.71495v-1.42989h-.71493v-1.42988h-1.42989v-.71495h-.71494v-.71493h-4.28964v-1.00091h2.14482v-.71495h1.42988v-.42896h-.71494v-1.00092h2.14482v-.71494h1.42989v-1.42987h.71493v-.71496h.71495v-.71494h.71494v-.71494h.71493v-1.85885h-.71493v-1.42988h-.71494v-.71494h-1.85885v.71494h-5.71952v1.42988h-.71494v2.14483h-.71494v.71494h-.71493v.71495h-1.00093v-1.00093h.71494v-1.42988h.71493v-1.42988h.71495v-4.00367h-.71495v-2.14481h-.71493v-.71494h-.71494v-2.14483h-4.00366v2.14483h-.71497v1.1439h.71497v2.4308h-.71497v1.14389h.71497v.71494h.71494v.71495h.71494v.71494h.71494v2.14482h1.14389v-1.42988h1.00093v1.71586h-.71495v.71494h-.71494v1.85885h.42896v-.71493h1.00093v1.0009h-.71495v1.85885h.42897v-1.42988h2.14482v-.71494h.71494v-.71493h.71495v-.71496h.71493v-.71494h.71494v-.71494h1.71587v1.00092h-.71495v.71494h-.71495v.71494h-1.42987v.71494h-.71494v1.42989h-1.42988v.71494h-.71493v.71494h-.71495v.42897h.71495v1.71584h-.71495v.71495h-1.71587v-1.42988h-.71494v-.71494h-.42896v1.85884h.71494v1.71586h-1.71586v-.71494h-.42896v3.57471h-1.00092v-5.29056h1.42988v-1.14391h-1.14392v.71494h-.71493v.71493h-1.71586v-1.0009h.71495v-1.42989h1.42988v-1.42988h.71493v-1.14391h-.42897v.71495h-1.71584v-.71495h-.71495v-.71494h-.71494v-.71494h-.71494v-.71494h-.71493v-.71494h-.71496v-.71493h-.71493v-.71496h-.71495v-1.71585h1.00093v.71494h.71494v.71494h.71493v.71494h.71495v.71494h.71493v1.42988h.71495v.71496h1.85885v-.71496h1.71586v.71496h1.1439v-1.85886h-.71495v-1.42989h-.71493v-.71494h-.71495v-.71494h-.71493v-.71494h-.71495v-.71494h-.71493v-.71493h-.71495v-.71494h-1.42988v-.71495h-2.14482v-.71494h-2.57377v.71494h-1.42989v.71495h-.71494v.71494h-.71494v1.14389h1.42988v.71495h.71493v2.85976h.71496v.71494h.71493v.71494h.71495v1.00092h-.71495v1.14391h.71495v.71494h.71493v.71494h1.42988v.71494h1.85884v-.71494h1.00092v1.00092h-.71495v.71494h-.71493v.71494h-2.14482v.71493h-4.28964v.71495h-1.71586v-1.00091h.71493v-.71494h5.00459v-1.14391h-1.42988v-.71494h-3.28872v.71494h-1.42988v.71494h-2.14482v.71494h-.71495v1.85884h.71495v2.85977h3.28871v-.71494h3.57471v-.71494h1.42988v-.71495h1.00092v5.71954h.71493v2.85975h.71495v1.00092h-.71495v1.14391h.71495v1.42987zm2.85977-7.57836h-.50047v-1.00092h1.00091v1.00092zm12.15398-2.14483h-.50046v-.71493h-.71494v-.71495h-.71494v-.71494h-2.14482v-.71494h-1.42989v-1.00092h1.71587v.71494h2.14481v.71494h.71495v.71495h.71496v.71494h.71493v1.00091zm-16.44362-3.5747h-.50048v-1.00091h1.00092v1.00091zm9.29421-10.72412h-.50046v-1.71586h1.00093v1.71586zm-.71493 9.00827h.21447v-1.14391h-.42896v1.14391zm57.145825 30.11024h-2.28781v-1.42987h-.71496v-5.0046h-.71493v-5.00457h-.42896v.71493h-3.5747v.71495h-5.29057v-2.85977h-.71494v-1.42988h-.71494v-1.00091h.71494v-.71494h.71494v-.71494h.71495v-.71495h.71492v-.71494h2.14484v-.71494h.71493v-.71494h2.14483v-1.85885h-.71494v-1.42988h-.71493v-2.14483h-.71496v-.71494h-.71493v-.71494h-.71495v-1.71585h.71495v-.71494h.71493v-1.42988h1.42989v-.71494h4.57562v.71494h2.14481v.71494h1.4299v.71494h.42895v-4.28964h.71495v-.42897h-.71495v-1.71586h6.00551v.71495h.71495v.71494h.71493v1.42988h.71494v2.14482h.71494v2.85975h5.43354v-.71493h2.43081v.71493h.71493v.71494h.71495v1.42989h.71493v3.14574h-.71493v.71494h-.71495v.71494h-.71493v.71494h-.71496v.71495h-.71492v.71494h-.71495v.71494h-.71494v.71494h-.71494v.42897h.71494v.71494h.71494v.71494h.71495v.71493h.71492v.71494h.71496v2.14483h.71493v.71494h.71495v.71494h.71493v2.43079h-.71493v1.42988h-.71495v.71495h-2.43079v-.71495h-2.85977v-.71494h-1.42988v-1.42988h-.71494v-.71493h-1.42988v-.71494h-1.85883v2.14481h-.71495v2.14483h-.71495v1.42988h-.71494v1.42989h-.71493v.71492h-.71494v.71496h-.71494v.71493h-1.4299v.71494zm-1.07242-1.00092h.21449v-.71494h1.71587v.71494h1.1439v-.71494h.71493v-.71493h1.42988v-1.42989h.71495v-1.42988h.71494v-2.14481h.71493v-1.42988h.71495v-1.14391h-.71495v-.71495h-.71493v-.71493h-.71494v-1.00092h1.00091v.71494h1.42989v.71494h3.5747v.71494h.71493v.71494h.71494v.71495h.71495v.71492h1.42988v.71495h4.00367v-1.42987h.71493v-.42897h-.71493v-.71494h-.71494v-1.42988h-.71495v-1.42989h-.71493v-1.42988h-1.42989v-.71495h-.71494v-.71493h-4.28964v-1.00091h2.14482v-.71495h1.42988v-.42896h-.71494v-1.00092h2.14482v-.71494h1.42989v-1.42987h.71493v-.71496h.71495v-.71494h.71494v-.71494h.71493v-1.85885h-.71493v-1.42988h-.71494v-.71494h-1.85885v.71494h-5.71952v1.42988h-.71494v2.14483h-.71494v.71494h-.71493v.71495h-1.00093v-1.00093h.71494v-1.42988h.71493v-1.42988h.71495v-4.00367h-.71495v-2.14481h-.71493v-.71494h-.71494v-2.14483h-4.00366v2.14483h-.71497v1.1439h.71497v2.4308h-.71497v1.14389h.71497v.71494h.71494v.71495h.71494v.71494h.71494v2.14482h1.14389v-1.42988h1.00093v1.71586h-.71495v.71494h-.71494v1.85885h.42896v-.71493h1.00093v1.0009h-.71495v1.85885h.42897v-1.42988h2.14482v-.71494h.71494v-.71493h.71495v-.71496h.71493v-.71494h.71494v-.71494h1.71587v1.00092h-.71495v.71494h-.71495v.71494H135.904v.71494h-.71494v1.42989h-1.42988v.71494h-.71493v.71494h-.71495v.42897h.71495v1.71584h-.71495v.71495h-1.71587v-1.42988h-.71494v-.71494h-.42896v1.85884h.71494v1.71586h-1.71586v-.71494h-.42896v3.57471h-1.00092v-5.29056h1.42988v-1.14391h-1.14392v.71494h-.71493v.71493h-1.71586v-1.0009h.71495v-1.42989h1.42988v-1.42988h.71493v-1.14391h-.42897v.71495h-1.71584v-.71495h-.71495v-.71494h-.71494v-.71494h-.71494v-.71494h-.71493v-.71494h-.71496v-.71493h-.71493v-.71496h-.71495v-1.71585h1.00093v.71494h.71494v.71494h.71493v.71494h.71495v.71494h.71493v1.42988h.71495v.71496h1.85885v-.71496h1.71586v.71496h1.1439v-1.85886h-.71495v-1.42989h-.71493v-.71494h-.71495v-.71494h-.71493v-.71494h-.71495v-.71494h-.71493v-.71493h-.71495v-.71494h-1.42988v-.71495h-2.14482v-.71494h-2.57377v.71494h-1.42989v.71495h-.71494v.71494h-.71494v1.14389h1.42988v.71495h.71493v2.85976h.71496v.71494h.71493v.71494h.71495v1.00092h-.71495v1.14391h.71495v.71494h.71493v.71494h1.42988v.71494h1.85884v-.71494h1.00092v1.00092h-.71495v.71494H123.75v.71494h-2.14482v.71493h-4.28964v.71495h-1.71586v-1.00091h.71493v-.71494h5.00459v-1.14391h-1.42988v-.71494h-3.28872v.71494h-1.42988v.71494h-2.14482v.71494h-.71495v1.85884h.71495v2.85977h3.28871v-.71494h3.57471v-.71494h1.42988v-.71495h1.00092v5.71954h.71493v2.85975h.71495v1.00092h-.71495v1.14391h.71495v1.42987zm2.85977-7.57836h-.50047v-1.00092h1.00091v1.00092zm12.15398-2.14483h-.50046v-.71493h-.71494v-.71495h-.71494v-.71494h-2.14482v-.71494h-1.42989v-1.00092h1.71587v.71494h2.14481v.71494h.71495v.71495h.71496v.71494h.71493v1.00091zm-16.44362-3.5747h-.50048v-1.00091h1.00092v1.00091zm9.29421-10.72412h-.50046v-1.71586h1.00093v1.71586zm-.71493 9.00827h.21447v-1.14391h-.42896v1.14391zm42.84297-23.16276h-2.28781v-1.42987h-.71496v-5.0046h-.71493v-5.00457h-.42896v.71493h-3.5747v.71496h-5.29057v-2.85977h-.71494v-1.42989h-.71494v-1.00091h.71494v-.71494h.71494v-.71494h.71495v-.71495h.71492v-.71494h2.14484v-.71494h.71493v-.71494h2.14483v-1.85885h-.71494v-1.42988h-.71493v-2.14483h-.71496v-.71494h-.71493v-.71494h-.71495v-1.71585h.71495v-.71494h.71493v-1.42988h1.42989v-.71494h4.57562v.71494h2.14481v.71494h1.4299v.71494h.42895v-4.28964h.71495v-.42897h-.71495v-1.71586h6.00551v.71495h.71495v.71494h.71493v1.42988h.71494v2.14482h.71494v2.85975h5.43354v-.71493h2.43081v.71493h.71493v.71494h.71495v1.42989h.71493v3.14574h-.71493v.71494h-.71495v.71494h-.71493v.71494h-.71496v.71495h-.71492v.71494h-.71495v.71494h-.71494v.71494h-.71494v.42897h.71494v.71494h.71494v.71494h.71495v.71493h.71492v.71494h.71496v2.14483h.71493v.71494h.71495v.71494h.71493v2.43079h-.71493v1.42989h-.71495v.71495h-2.43079v-.71495h-2.85977v-.71494h-1.42988v-1.42989h-.71494v-.71493h-1.42988v-.71494h-1.85883v2.14481h-.71495v2.14483h-.71495v1.42988h-.71494v1.42989h-.71493v.71492h-.71494v.71496h-.71494v.71493h-1.4299v.71494zm-1.07242-1.00092h.21449v-.71494h1.71587v.71494h1.1439v-.71494h.71493v-.71493h1.42988v-1.42989h.71495v-1.42988h.71494v-2.14481h.71493v-1.42988h.71495v-1.14391h-.71495v-.71495h-.71493v-.71493h-.71494v-1.00092h1.00091v.71494h1.42989v.71494h3.5747v.71494h.71493v.71495h.71494v.71495h.71495v.71492h1.42988v.71495h4.00367v-1.42987h.71493v-.42897h-.71493v-.71494h-.71494v-1.42988h-.71495v-1.42989h-.71493v-1.42989h-1.42989v-.71495h-.71494v-.71493h-4.28964v-1.00091h2.14482v-.71495h1.42988v-.42896h-.71494v-1.00092h2.14482v-.71494h1.42989v-1.42987h.71493v-.71496h.71495v-.71494h.71494v-.71494h.71493v-1.85885h-.71493v-1.42988h-.71494v-.71494h-1.85885v.71494h-5.71952v1.42988h-.71494v2.14483h-.71494v.71494h-.71493v.71495h-1.00093v-1.00093h.71494v-1.42988h.71493v-1.42988h.71495v-4.00367h-.71495v-2.14481h-.71493v-.71494h-.71494v-2.14483h-4.00366v2.14483h-.71497v1.1439h.71497v2.4308h-.71497v1.14389h.71497v.71494h.71494v.71495h.71494v.71494h.71494v2.14482h1.14389v-1.42988h1.00093v1.71586h-.71495v.71494h-.71494v1.85885h.42896v-.71493h1.00093v1.0009h-.71495v1.85885h.42897v-1.42988h2.14482v-.71494h.71494v-.71493h.71495v-.71496h.71493v-.71494h.71494v-.71494h1.71587v1.00092h-.71495v.71494h-.71495v.71494h-1.42987v.71494h-.71494v1.42989h-1.42988v.71494h-.71493v.71494h-.71495v.42897h.71495v1.71584h-.71495v.71495h-1.71587v-1.42988h-.71494v-.71494h-.42896v1.85884h.71494v1.71586h-1.71586v-.71494h-.42896v3.57471h-1.00092v-5.29056h1.42988v-1.14391h-1.14392v.71494h-.71493v.71493h-1.71586v-1.0009h.71495v-1.42989h1.42988v-1.42988h.71493v-1.14391h-.42897v.71495h-1.71584v-.71495h-.71495v-.71494h-.71494v-.71494h-.71494v-.71494h-.71493v-.71494h-.71496v-.71493h-.71493v-.71496h-.71495v-1.71585h1.00093v.71494h.71494v.71494h.71493v.71494h.71495v.71494h.71493v1.42988h.71495v.71496h1.85885v-.71496h1.71586v.71496h1.1439v-1.85886h-.71495v-1.42989h-.71493v-.71494h-.71495v-.71494h-.71493v-.71494h-.71495v-.71494h-.71493v-.71493h-.71495v-.71494h-1.42988v-.71495h-2.14482v-.71494h-2.57377v.71494h-1.42989v.71495h-.71494v.71494h-.71494v1.14389h1.42988v.71495h.71493v2.85976h.71496v.71494h.71493v.71494h.71495v1.00092h-.71495v1.14391h.71495v.71494h.71493v.71494h1.42988v.71494h1.85884v-.71494h1.00092v1.00092h-.71495v.71494h-.71493v.71494h-2.14482v.71493h-4.28964v.71495h-1.71586v-1.00091h.71493v-.71494h5.00459v-1.14391h-1.42988v-.71494h-3.28872v.71494h-1.42988v.71494h-2.14482v.71494h-.71495v1.85884h.71495v2.85977h3.28871v-.71494h3.57471v-.71494h1.42988v-.71495h1.00092v5.71954h.71493v2.85975h.71495v1.00092h-.71495v1.14391h.71495v1.42987zm2.85977-7.57836h-.50047v-1.00092h1.00091v1.00092zm12.15398-2.14483h-.50046v-.71493h-.71494v-.71495h-.71494v-.71494h-2.14482v-.71494h-1.42989v-1.00092h1.71587v.71494h2.14481v.71494h.71495v.71495h.71496v.71494h.71493v1.00091zm-16.44362-3.5747h-.50048v-1.00091h1.00092v1.00091zm9.29421-10.72412h-.50046v-1.71586h1.00093v1.71586zm-.71493 9.00827h.21447v-1.14391h-.42896v1.14391zm51.54905 44.20582h-2.28781v-1.42987h-.71496v-5.0046h-.71493v-5.00457h-.42896v.71493h-3.5747v.71496h-5.29057v-2.85977h-.71494v-1.42989h-.71494v-1.00091h.71494v-.71494h.71494v-.71494h.71495v-.71495h.71492v-.71494h2.14484v-.71494h.71493v-.71494h2.14483v-1.85885h-.71494v-1.42988h-.71493v-2.14483h-.71496v-.71494h-.71493v-.71494h-.71495v-1.71585h.71495V174.92h.71493v-1.42988h1.42989v-.71494h4.57562v.71494h2.14481v.71494h1.4299v.71494h.42895v-4.28964h.71495v-.42897h-.71495v-1.71586h6.00551v.71495h.71495v.71494h.71493v1.42988h.71494v2.14482h.71494v2.85975h5.43354v-.71493h2.43081v.71493h.71493v.71494h.71495v1.42989h.71493v3.14574h-.71493v.71494h-.71495v.71494h-.71493v.71494h-.71496v.71495h-.71492v.71494h-.71495v.71494h-.71494v.71494h-.71494v.42897h.71494v.71494h.71494v.71494h.71495v.71493h.71492v.71494h.71496v2.14483h.71493v.71494h.71495v.71494h.71493v2.43079h-.71493v1.42989h-.71495v.71495h-2.43079v-.71495h-2.85977v-.71494h-1.42988v-1.42989h-.71494v-.71493h-1.42988v-.71494h-1.85883v2.14481h-.71495v2.14483h-.71495v1.42988h-.71494v1.42989h-.71493v.71492h-.71494v.71496h-.71494v.71493h-1.4299v.71494zm-1.07242-1.00092h.21449v-.71494h1.71587v.71494h1.1439v-.71494h.71493v-.71493h1.42988v-1.42989h.71495v-1.42988h.71494v-2.14481h.71493v-1.42988h.71495v-1.14391h-.71495v-.71495h-.71493v-.71493h-.71494v-1.00092h1.00091v.71494h1.42989v.71494h3.5747v.71494h.71493v.71495h.71494v.71495h.71495v.71492h1.42988v.71495h4.00367v-1.42987h.71493v-.42897h-.71493v-.71494h-.71494v-1.42988h-.71495v-1.42989h-.71493v-1.42989h-1.42989v-.71495h-.71494v-.71493h-4.28964V187.074h2.14482v-.71495h1.42988v-.42896h-.71494v-1.00092h2.14482v-.71494h1.42989v-1.42987h.71493v-.71496h.71495v-.71494h.71494v-.71494h.71493v-1.85885h-.71493v-1.42988h-.71494v-.71494h-1.85885v.71494h-5.71952v1.42988h-.71494v2.14483h-.71494v.71494h-.71493v.71495h-1.00093v-1.00093h.71494v-1.42988h.71493v-1.42988h.71495v-4.00367h-.71495v-2.14481h-.71493v-.71494h-.71494v-2.14483h-4.00366v2.14483h-.71497v1.1439h.71497v2.4308h-.71497v1.14389h.71497v.71494h.71494v.71495h.71494v.71494h.71494v2.14482h1.14389v-1.42988h1.00093v1.71586h-.71495v.71494h-.71494v1.85885h.42896v-.71493h1.00093v1.0009h-.71495v1.85885h.42897v-1.42988h2.14482v-.71494h.71494v-.71493h.71495v-.71496h.71493v-.71494h.71494v-.71494h1.71587v1.00092h-.71495v.71494h-.71495v.71494H242.45v.71494h-.71494v1.42989h-1.42988v.71494h-.71493v.71494h-.71495v.42897h.71495v1.71584h-.71495v.71495h-1.71587v-1.42988h-.71494v-.71494h-.42896v1.85884h.71494v1.71586h-1.71586v-.71494h-.42896v3.57471h-1.00092v-5.29056h1.42988v-1.14391h-1.14392v.71494h-.71493v.71493h-1.71586v-1.0009h.71495v-1.42989h1.42988v-1.42988h.71493v-1.14391h-.42897v.71495h-1.71584v-.71495h-.71495v-.71494h-.71494v-.71494h-.71494v-.71494h-.71493v-.71494h-.71496v-.71493h-.71493v-.71496h-.71495v-1.71585h1.00093v.71494h.71494v.71494h.71493v.71494h.71495v.71494h.71493v1.42988h.71495v.71496h1.85885v-.71496h1.71586v.71496h1.1439v-1.85886h-.71495v-1.42989h-.71493v-.71494h-.71495v-.71494h-.71493v-.71494h-.71495v-.71494h-.71493v-.71493h-.71495v-.71494h-1.42988v-.71495h-2.14482v-.71494h-2.57377v.71494h-1.42989v.71495h-.71494v.71494h-.71494v1.14389h1.42988v.71495h.71493v2.85976h.71496v.71494h.71493v.71494h.71495v1.00092h-.71495v1.14391h.71495v.71494h.71493v.71494h1.42988v.71494h1.85884v-.71494h1.00092v1.00092h-.71495v.71494h-.71493v.71494h-2.14482v.71493h-4.28964v.71495h-1.71586v-1.00091h.71493v-.71494h5.00459v-1.14391h-1.42988v-.71494h-3.28872v.71494h-1.42988v.71494h-2.14482v.71494h-.71495v1.85884h.71495v2.85977h3.28871v-.71494h3.57471v-.71494h1.42988v-.71495h1.00092v5.71954h.71493v2.85975h.71495v1.00092h-.71495v1.14391h.71495v1.42987zm2.85977-7.57836h-.50047v-1.00092h1.00091v1.00092zm12.15398-2.14483h-.50046v-.71493h-.71494v-.71495h-.71494v-.71494h-2.14482v-.71494h-1.42989v-1.00092h1.71587v.71494h2.14481v.71494h.71495v.71495h.71496v.71494h.71493v1.00091zm-16.44362-3.5747h-.50048v-1.00091h1.00092v1.00091zm9.29421-10.72412h-.50046v-1.71586h1.00093v1.71586zm-.71493 9.00827h.21447v-1.14391h-.42896v1.14391zm59.01142 19.53855h-2.28781v-1.42987h-.71496v-5.0046h-.71493v-5.00457h-.42896v.71493h-3.5747v.71496h-5.29057v-2.85977h-.71494v-1.42989h-.71494v-1.00091h.71494v-.71494h.71494v-.71494h.71495v-.71495h.71492v-.71494h2.14484v-.71494h.71493v-.71494h2.14483v-1.85885h-.71494v-1.42988h-.71493v-2.14483h-.71496v-.71494h-.71493v-.71494h-.71495v-1.71585h.71495v-.71494h.71493v-1.42988h1.42989v-.71494h4.57562v.71494h2.14481v.71494h1.4299v.71494h.42895v-4.28964h.71495v-.42897h-.71495v-1.71586h6.00551v.71495h.71495v.71494h.71493v1.42988h.71494v2.14482h.71494v2.85975h5.43354v-.71493h2.43081v.71493h.71493v.71494h.71495v1.42989h.71493v3.14574h-.71493v.71494h-.71495v.71494h-.71493v.71494h-.71496v.71495h-.71492v.71494h-.71495v.71494h-.71494v.71494h-.71494v.42897h.71494v.71494h.71494v.71494h.71495v.71493h.71492v.71494h.71496v2.14483h.71493v.71494h.71495v.71494h.71493v2.43079h-.71493v1.42989h-.71495v.71495h-2.43079v-.71495h-2.85977v-.71494h-1.42988v-1.42989h-.71494v-.71493h-1.42988v-.71494h-1.85883v2.14481h-.71495v2.14483h-.71495v1.42988h-.71494v1.42989h-.71493v.71492h-.71494v.71496h-.71494v.71493h-1.4299v.71494zm-1.07242-1.00092h.21449v-.71494h1.71587v.71494h1.1439v-.71494h.71493v-.71493h1.42988v-1.42989h.71495v-1.42988h.71494v-2.14481h.71493v-1.42988h.71495v-1.14391h-.71495v-.71495h-.71493v-.71493h-.71494v-1.00092h1.00091v.71494h1.42989v.71494h3.5747v.71494h.71493v.71495h.71494v.71495h.71495v.71492h1.42988v.71495h4.00367v-1.42987h.71493v-.42897h-.71493v-.71494h-.71494v-1.42988h-.71495v-1.42989h-.71493v-1.42989h-1.42989v-.71495h-.71494v-.71493h-4.28964v-1.00091h2.14482v-.71495h1.42988v-.42896h-.71494v-1.00092h2.14482v-.71494h1.42989v-1.42987h.71493v-.71496h.71495v-.71494h.71494v-.71494h.71493v-1.85885h-.71493v-1.42988h-.71494v-.71494h-1.85885v.71494h-5.71952v1.42988h-.71494v2.14483h-.71494v.71494h-.71493v.71495h-1.00093v-1.00093h.71494v-1.42988h.71493v-1.42988h.71495v-4.00367h-.71495v-2.14481h-.71493v-.71494h-.71494v-2.14483h-4.00366v2.14483h-.71497v1.1439h.71497v2.4308h-.71497v1.14389h.71497v.71494h.71494v.71495h.71494v.71494h.71494v2.14482h1.14389v-1.42988h1.00093v1.71586h-.71495v.71494h-.71494v1.85885h.42896v-.71493h1.00093v1.0009h-.71495v1.85885h.42897v-1.42988h2.14482v-.71494h.71494v-.71493h.71495v-.71496h.71493v-.71494h.71494v-.71494h1.71587v1.00092h-.71495v.71494h-.71495v.71494h-1.42987v.71494h-.71494v1.42989h-1.42988v.71494h-.71493v.71494h-.71495v.42897h.71495v1.71584h-.71495v.71495h-1.71587v-1.42988h-.71494v-.71494h-.42896v1.85884h.71494v1.71586h-1.71586v-.71494h-.42896v3.57471h-1.00092v-5.29056h1.42988v-1.14391h-1.14392v.71494h-.71493v.71493h-1.71586v-1.0009h.71495v-1.42989h1.42988v-1.42988h.71493v-1.14391h-.42897v.71495h-1.71584v-.71495h-.71495v-.71494h-.71494v-.71494h-.71494v-.71494h-.71493v-.71494h-.71496v-.71493h-.71493v-.71496h-.71495v-1.71585h1.00093v.71494h.71494v.71494h.71493v.71494h.71495v.71494h.71493v1.42988h.71495v.71496h1.85885v-.71496h1.71586v.71496h1.1439v-1.85886h-.71495v-1.42989h-.71493v-.71494h-.71495v-.71494h-.71493v-.71494h-.71495v-.71494h-.71493v-.71493h-.71495v-.71494h-1.42988v-.71495h-2.14482v-.71494h-2.57377v.71494h-1.42989v.71495h-.71494v.71494h-.71494v1.14389h1.42988v.71495h.71493v2.85976h.71496v.71494h.71493v.71494h.71495v1.00092h-.71495v1.14391h.71495v.71494h.71493v.71494h1.42988v.71494h1.85884v-.71494h1.00092v1.00092h-.71495v.71494h-.71493v.71494h-2.14482v.71493h-4.28964v.71495h-1.71586v-1.00091h.71493v-.71494h5.00459v-1.14391h-1.42988v-.71494h-3.28872v.71494h-1.42988v.71494h-2.14482v.71494h-.71495v1.85884h.71495v2.85977h3.28871v-.71494h3.57471v-.71494h1.42988v-.71495h1.00092v5.71954h.71493v2.85975h.71495v1.00092h-.71495v1.14391h.71495v1.42987zm2.85977-7.57836h-.50047v-1.00092h1.00091v1.00092zm12.15398-2.14483h-.50046v-.71493h-.71494v-.71495h-.71494v-.71494h-2.14482v-.71494h-1.42989v-1.00092h1.71587v.71494h2.14481v.71494h.71495v.71495h.71496v.71494h.71493v1.00091zm-16.44362-3.5747h-.50048v-1.00091h1.00092v1.00091zm9.29421-10.72412h-.50046v-1.71586h1.00093v1.71586zm-.71493 9.00827h.21447v-1.14391h-.42896v1.14391zm-16.23409 88.15086h-2.28781v-1.42987h-.71496v-5.0046h-.71493v-5.00457h-.42896v.71493h-3.5747v.71496h-5.29057v-2.85977h-.71494v-1.42989h-.71494v-1.00091h.71494v-.71494h.71494v-.71494h.71495v-.71495h.71492v-.71494h2.14484v-.71494h.71493v-.71494h2.14483v-1.85885h-.71494v-1.42988h-.71493v-2.14483h-.71496v-.71494h-.71493v-.71494h-.71495v-1.71585h.71495v-.71494h.71493v-1.42988h1.42989v-.71494h4.57562v.71494h2.14481v.71494h1.4299v.71494h.42895v-4.28964h.71495v-.42897h-.71495v-1.71586h6.00551v.71495h.71495v.71494h.71493v1.42988h.71494v2.14482h.71494v2.85975h5.43354v-.71493h2.43081v.71493h.71493v.71494h.71495v1.42989h.71493v3.14574h-.71493v.71494h-.71495v.71494h-.71493v.71494h-.71496v.71495h-.71492v.71494h-.71495v.71494h-.71494v.71494h-.71494v.42897h.71494v.71494h.71494v.71494h.71495v.71493h.71492v.71494h.71496v2.14483h.71493v.71494h.71495v.71494h.71493v2.43079h-.71493v1.42989h-.71495v.71495h-2.43079v-.71495h-2.85977v-.71494h-1.42988v-1.42989h-.71494v-.71493h-1.42988v-.71494h-1.85883v2.14481h-.71495v2.14483h-.71495v1.42988h-.71494v1.42989h-.71493v.71492h-.71494v.71496h-.71494v.71493h-1.4299v.71494zm-1.07242-1.00092h.21449v-.71494h1.71587v.71494h1.1439v-.71494h.71493v-.71493h1.42988v-1.42989h.71495v-1.42988h.71494v-2.14481h.71493v-1.42988h.71495v-1.14391h-.71495v-.71495h-.71493v-.71493h-.71494v-1.00092h1.00091v.71494h1.42989v.71494h3.5747v.71494h.71493v.71495h.71494v.71495h.71495v.71492h1.42988v.71495h4.00367v-1.42987h.71493v-.42897h-.71493v-.71494h-.71494v-1.42988h-.71495v-1.42989h-.71493v-1.42989h-1.42989v-.71495h-.71494v-.71493h-4.28964v-1.00091h2.14482v-.71495h1.42988v-.42896h-.71494v-1.00092h2.14482v-.71494h1.42989v-1.42987h.71493v-.71496h.71495v-.71494h.71494v-.71494h.71493v-1.85885h-.71493v-1.42988h-.71494v-.71494h-1.85885v.71494h-5.71952v1.42988h-.71494v2.14483h-.71494v.71494h-.71493v.71495h-1.00093v-1.00093h.71494v-1.42988h.71493v-1.42988h.71495v-4.00367h-.71495v-2.14481h-.71493v-.71494h-.71494v-2.14483h-4.00366v2.14483h-.71497v1.1439h.71497v2.4308h-.71497v1.14389h.71497v.71494h.71494v.71495h.71494v.71494h.71494v2.14482h1.14389v-1.42988h1.00093v1.71586h-.71495v.71494h-.71494v1.85885h.42896v-.71493h1.00093v1.0009h-.71495v1.85885h.42897v-1.42988h2.14482v-.71494h.71494v-.71493h.71495v-.71496h.71493v-.71494h.71494v-.71494h1.71587v1.00092h-.71495v.71494h-.71495v.71494h-1.42987v.71494h-.71494v1.42989h-1.42988v.71494h-.71493v.71494h-.71495v.42897h.71495v1.71584h-.71495v.71495h-1.71587V263.735h-.71494v-.71494h-.42896v1.85884h.71494v1.71586h-1.71586v-.71494h-.42896v3.57471h-1.00092v-5.29056h1.42988v-1.14391H288.802v.71494h-.71493v.71493h-1.71586v-1.0009h.71495v-1.42989h1.42988v-1.42988h.71493v-1.14391h-.42897v.71495h-1.71584v-.71495h-.71495v-.71494h-.71494v-.71494h-.71494v-.71494h-.71493v-.71494h-.71496v-.71493h-.71493v-.71496h-.71495v-1.71585h1.00093v.71494h.71494v.71494h.71493v.71494h.71495v.71494h.71493v1.42988h.71495v.71496h1.85885v-.71496h1.71586v.71496h1.1439v-1.85886h-.71495v-1.42989h-.71493v-.71494h-.71495v-.71494h-.71493v-.71494h-.71495v-.71494h-.71493v-.71493h-.71495v-.71494h-1.42988v-.71495h-2.14482v-.71494h-2.57377v.71494h-1.42989v.71495h-.71494v.71494h-.71494v1.14389h1.42988v.71495h.71493v2.85976h.71496v.71494h.71493v.71494h.71495v1.00092h-.71495v1.14391h.71495v.71494h.71493v.71494h1.42988v.71494h1.85884v-.71494h1.00092v1.00092h-.71495v.71494h-.71493v.71494h-2.14482v.71493h-4.28964v.71495h-1.71586v-1.00091h.71493v-.71494h5.00459v-1.14391h-1.42988v-.71494h-3.28872v.71494h-1.42988v.71494h-2.14482v.71494h-.71495v1.85884h.71495v2.85977h3.28871v-.71494h3.57471v-.71494h1.42988v-.71495h1.00092v5.71954h.71493v2.85975h.71495v1.00092h-.71495v1.14391h.71495v1.42987zm2.85977-7.57836h-.50047v-1.00092h1.00091v1.00092zm12.15398-2.14483h-.50046v-.71493h-.71494v-.71495h-.71494v-.71494h-2.14482v-.71494h-1.42989v-1.00092h1.71587v.71494h2.14481v.71494h.71495v.71495h.71496v.71494h.71493v1.00091zm-16.44362-3.5747h-.50048v-1.00091h1.00092v1.00091zm9.29421-10.72412h-.50046v-1.71586h1.00093v1.71586zm-.71493 9.00827h.21447v-1.14391h-.42896v1.14391zm-36.34103 63.4836h-2.28781v-1.42987h-.71496v-5.0046h-.71493v-5.00457h-.42896v.71493h-3.5747v.71496h-5.29057v-2.85977h-.71494v-1.42989h-.71494v-1.00091h.71494v-.71494h.71494v-.71494h.71495v-.71495h.71492v-.71494h2.14484v-.71494h.71493v-.71494h2.14483v-1.85885h-.71494v-1.42988h-.71493v-2.14483h-.71496v-.71494h-.71493v-.71494h-.71495v-1.71585h.71495v-.71494h.71493v-1.42988h1.42989v-.71494h4.57562v.71494h2.14481v.71494h1.4299v.71494h.42895v-4.28964h.71495v-.42897h-.71495v-1.71586h6.00551v.71495h.71495v.71494h.71493v1.42988h.71494v2.14482h.71494v2.85975h5.43354v-.71493h2.43081v.71493h.71493v.71494h.71495v1.42989h.71493v3.14574h-.71493v.71494h-.71495v.71494h-.71493v.71494h-.71496v.71495h-.71492v.71494h-.71495v.71494h-.71494v.71494h-.71494v.42897h.71494v.71494h.71494v.71494h.71495v.71493h.71492v.71494h.71496v2.14483h.71493v.71494h.71495v.71494h.71493v2.43079h-.71493v1.42989h-.71495v.71495h-2.43079v-.71495h-2.85977v-.71494h-1.42988v-1.42989h-.71494v-.71493h-1.42988v-.71494h-1.85883v2.14481h-.71495v2.14483h-.71495v1.42988h-.71494v1.42989h-.71493v.71492h-.71494v.71496h-.71494v.71493h-1.4299v.71494zm-1.07242-1.00092h.21449v-.71494h1.71587v.71494h1.1439v-.71494h.71493v-.71493h1.42988v-1.42989h.71495v-1.42988h.71494v-2.14481h.71493v-1.42988h.71495v-1.14391h-.71495v-.71495h-.71493v-.71493h-.71494v-1.00092h1.00091v.71494h1.42989v.71494h3.5747v.71494h.71493v.71495h.71494v.71495h.71495v.71492h1.42988v.71495h4.00367v-1.42987h.71493v-.42897h-.71493v-.71494h-.71494v-1.42988h-.71495v-1.42989h-.71493v-1.42989h-1.42989v-.71495h-.71494v-.71493h-4.28964v-1.00091h2.14482v-.71495h1.42988v-.42896h-.71494v-1.00092h2.14482v-.71494h1.42989v-1.42987h.71493v-.71496h.71495v-.71494h.71494v-.71494h.71493v-1.85885h-.71493v-1.42988h-.71494v-.71494h-1.85885v.71494h-5.71952v1.42988h-.71494v2.14483h-.71494v.71494h-.71493v.71495h-1.00093v-1.00093h.71494v-1.42988h.71493v-1.42988h.71495v-4.00367h-.71495v-2.14481h-.71493v-.71494h-.71494v-2.14483h-4.00366v2.14483h-.71497v1.1439h.71497v2.4308h-.71497v1.14389h.71497v.71494h.71494v.71495h.71494v.71494h.71494v2.14482h1.14389v-1.42988h1.00093v1.71586h-.71495v.71494h-.71494v1.85885h.42896v-.71493h1.00093v1.0009h-.71495v1.85885h.42897v-1.42988h2.14482v-.71494h.71494v-.71493h.71495v-.71496h.71493v-.71494h.71494v-.71494h1.71587v1.00092h-.71495v.71494h-.71495v.71494h-1.42987v.71494h-.71494v1.42989h-1.42988v.71494h-.71493v.71494h-.71495v.42897h.71495v1.71584h-.71495v.71495h-1.71587v-1.42988h-.71494v-.71494h-.42896v1.85884h.71494v1.71586h-1.71586v-.71494h-.42896v3.57471H258.252v-5.29056h1.42988V310.489h-1.14392v.71494h-.71493v.71493h-1.71586v-1.0009h.71495v-1.42989h1.42988v-1.42988h.71493v-1.14391h-.42897v.71495h-1.71584v-.71495h-.71495v-.71494h-.71494v-.71494h-.71494v-.71494h-.71493v-.71494h-.71496v-.71493h-.71493v-.71496h-.71495v-1.71585h1.00093v.71494h.71494v.71494h.71493v.71494h.71495v.71494h.71493v1.42988h.71495v.71496h1.85885v-.71496h1.71586v.71496h1.1439v-1.85886h-.71495v-1.42989h-.71493v-.71494h-.71495v-.71494h-.71493v-.71494h-.71495v-.71494h-.71493v-.71493h-.71495v-.71494h-1.42988v-.71495h-2.14482v-.71494h-2.57377v.71494h-1.42989v.71495h-.71494v.71494h-.71494v1.14389h1.42988v.71495h.71493v2.85976h.71496v.71494h.71493v.71494h.71495v1.00092h-.71495v1.14391h.71495v.71494h.71493v.71494h1.42988v.71494h1.85884v-.71494h1.00092v1.00092h-.71495v.71494h-.71493v.71494h-2.14482v.71493h-4.28964v.71495h-1.71586v-1.00091h.71493v-.71494h5.00459v-1.14391h-1.42988v-.71494h-3.28872v.71494h-1.42988v.71494h-2.14482v.71494h-.71495v1.85884h.71495v2.85977h3.28871v-.71494h3.57471v-.71494h1.42988v-.71495h1.00092v5.71954h.71493v2.85975h.71495v1.00092h-.71495v1.14391h.71495v1.42987zm2.85977-7.57836h-.50047v-1.00092h1.00091v1.00092zm12.15398-2.14483h-.50046v-.71493h-.71494v-.71495h-.71494v-.71494h-2.14482v-.71494h-1.42989v-1.00092h1.71587v.71494h2.14481v.71494h.71495v.71495h.71496v.71494h.71493v1.00091zm-16.44362-3.5747h-.50048v-1.00091h1.00092v1.00091zm9.29421-10.72412h-.50046v-1.71586h1.00093v1.71586zm-.71493 9.00827h.21447v-1.14391h-.42896v1.14391zm-78.83506-49.07375h-2.28781v-1.42987h-.71496v-5.0046h-.71493v-5.00457h-.42896v.71493h-3.5747v.71496h-5.29057v-2.85977h-.71494v-1.42989h-.71494v-1.00091h.71494v-.71494h.71494v-.71494h.71495v-.71495h.71492v-.71494h2.14484v-.71494h.71493v-.71494h2.14483V240.396h-.71494v-1.42988h-.71493v-2.14483h-.71496v-.71494h-.71493v-.71494h-.71495v-1.71585h.71495v-.71494h.71493v-1.42988h1.42989v-.71494h4.57562v.71494h2.14481v.71494h1.4299v.71494h.42895v-4.28964h.71495v-.42897h-.71495v-1.71586h6.00551v.71495h.71495v.71494h.71493v1.42988h.71494v2.14482h.71494v2.85975h5.43354v-.71493h2.43081v.71493h.71493v.71494h.71495v1.42989h.71493v3.14574h-.71493v.71494h-.71495v.71494h-.71493v.71494h-.71496v.71495h-.71492v.71494h-.71495v.71494h-.71494v.71494h-.71494v.42897h.71494v.71494h.71494v.71494h.71495v.71493h.71492v.71494h.71496v2.14483h.71493v.71494h.71495v.71494h.71493v2.43079h-.71493v1.42989h-.71495v.71495h-2.43079v-.71495h-2.85977v-.71494h-1.42988v-1.42989h-.71494V252.55h-1.42988v-.71494h-1.85883v2.14481h-.71495v2.14483h-.71495v1.42988h-.71494v1.42989h-.71493v.71492h-.71494v.71496h-.71494v.71493h-1.4299v.71494zm-1.07242-1.00092h.21449v-.71494h1.71587v.71494h1.1439v-.71494h.71493v-.71493h1.42988v-1.42989h.71495v-1.42988h.71494v-2.14481h.71493v-1.42988h.71495v-1.14391h-.71495v-.71495h-.71493v-.71493h-.71494v-1.00092h1.00091v.71494h1.42989v.71494h3.5747v.71494h.71493v.71495h.71494v.71495h.71495v.71492h1.42988v.71495h4.00367v-1.42987h.71493v-.42897h-.71493v-.71494h-.71494v-1.42988h-.71495v-1.42989h-.71493v-1.42989h-1.42989v-.71495h-.71494v-.71493h-4.28964v-1.00091h2.14482v-.71495h1.42988v-.42896h-.71494v-1.00092h2.14482v-.71494h1.42989v-1.42987h.71493v-.71496h.71495v-.71494h.71494v-.71494h.71493v-1.85885h-.71493v-1.42988h-.71494v-.71494h-1.85885v.71494h-5.71952v1.42988h-.71494v2.14483h-.71494v.71494h-.71493v.71495h-1.00093v-1.00093h.71494v-1.42988h.71493v-1.42988h.71495v-4.00367h-.71495v-2.14481h-.71493v-.71494h-.71494v-2.14483h-4.00366v2.14483h-.71497v1.1439h.71497v2.4308h-.71497v1.14389h.71497v.71494h.71494v.71495h.71494v.71494h.71494v2.14482h1.14389v-1.42988h1.00093v1.71586h-.71495v.71494h-.71494v1.85885h.42896v-.71493h1.00093v1.0009h-.71495v1.85885h.42897v-1.42988h2.14482v-.71494h.71494v-.71493h.71495v-.71496h.71493v-.71494h.71494v-.71494h1.71587v1.00092h-.71495v.71494h-.71495v.71494h-1.42987v.71494h-.71494v1.42989h-1.42988v.71494h-.71493v.71494h-.71495v.42897h.71495v1.71584h-.71495v.71495h-1.71587v-1.42988h-.71494v-.71494h-.42896v1.85884h.71494v1.71586h-1.71586v-.71494h-.42896v3.57471h-1.00092v-5.29056h1.42988v-1.14391h-1.14392v.71494h-.71493v.71493h-1.71586v-1.0009h.71495v-1.42989h1.42988v-1.42988h.71493v-1.14391h-.42897v.71495h-1.71584v-.71495h-.71495v-.71494h-.71494v-.71494h-.71494v-.71494h-.71493v-.71494h-.71496v-.71493h-.71493v-.71496h-.71495v-1.71585h1.00093v.71494h.71494v.71494h.71493v.71494h.71495v.71494h.71493v1.42988h.71495v.71496h1.85885v-.71496h1.71586v.71496h1.1439v-1.85886h-.71495v-1.42989h-.71493v-.71494h-.71495v-.71494h-.71493v-.71494h-.71495v-.71494h-.71493v-.71493h-.71495v-.71494h-1.42988v-.71495h-2.14482v-.71494h-2.57377v.71494h-1.42989v.71495h-.71494v.71494h-.71494v1.14389h1.42988v.71495h.71493v2.85976h.71496v.71494h.71493v.71494h.71495v1.00092h-.71495v1.14391h.71495v.71494h.71493v.71494h1.42988v.71494h1.85884v-.71494h1.00092v1.00092h-.71495v.71494h-.71493v.71494h-2.14482v.71493h-4.28964v.71495h-1.71586v-1.00091h.71493v-.71494h5.00459v-1.14391h-1.42988v-.71494h-3.28872v.71494h-1.42988v.71494h-2.14482v.71494h-.71495v1.85884h.71495v2.85977h3.28871v-.71494h3.57471v-.71494h1.42988v-.71495h1.00092v5.71954h.71493v2.85975h.71495v1.00092h-.71495v1.14391h.71495v1.42987zm2.85977-7.57836h-.50047v-1.00092h1.00091v1.00092zm12.15398-2.14483h-.50046v-.71493h-.71494v-.71495h-.71494v-.71494h-2.14482v-.71494h-1.42989v-1.00092h1.71587v.71494h2.14481v.71494h.71495v.71495h.71496v.71494h.71493v1.00091zm-16.44362-3.5747h-.50048v-1.00091h1.00092v1.00091zm9.29421-10.72412h-.50046v-1.71586h1.00093v1.71586zm-.71493 9.00827h.21447v-1.14391h-.42896v1.14391zm-51.68034 73.84799h-2.28781v-1.42987h-.71496v-5.0046h-.71493v-5.00457h-.42896v.71493h-3.5747v.71496h-5.29057v-2.85977h-.71494v-1.42989h-.71494v-1.00091h.71494v-.71494h.71494v-.71494h.71495v-.71495h.71492v-.71494h2.14484v-.71494h.71493v-.71494h2.14483v-1.85885h-.71494v-1.42988h-.71493v-2.14483h-.71496v-.71494h-.71493v-.71494h-.71495v-1.71585h.71495v-.71494h.71493v-1.42988h1.42989v-.71494h4.57562v.71494h2.14481v.71494h1.4299v.71494h.42895v-4.28964h.71495v-.42897h-.71495v-1.71586h6.00551v.71495h.71495v.71494h.71493v1.42988h.71494v2.14482h.71494v2.85975h5.43354v-.71493h2.43081v.71493h.71493v.71494h.71495v1.42989h.71493v3.14574h-.71493v.71494h-.71495v.71494h-.71493v.71494h-.71496v.71495h-.71492v.71494h-.71495v.71494h-.71494v.71494h-.71494v.42897h.71494v.71494h.71494v.71494h.71495v.71493h.71492v.71494h.71496v2.14483h.71493v.71494h.71495v.71494h.71493v2.43079h-.71493v1.42989h-.71495v.71495h-2.43079v-.71495h-2.85977v-.71494h-1.42988v-1.42989h-.71494v-.71493h-1.42988v-.71494h-1.85883v2.14481h-.71495v2.14483h-.71495v1.42988h-.71494v1.42989h-.71493v.71492h-.71494v.71496h-.71494v.71493h-1.4299v.71494zm-1.07242-1.00092h.21449v-.71494h1.71587v.71494h1.1439v-.71494h.71493v-.71493h1.42988v-1.42989h.71495v-1.42988h.71494v-2.14481h.71493v-1.42988h.71495v-1.14391h-.71495v-.71495h-.71493v-.71493h-.71494v-1.00092h1.00091v.71494h1.42989v.71494h3.5747v.71494h.71493v.71495h.71494v.71495h.71495v.71492h1.42988v.71495h4.00367v-1.42987h.71493v-.42897h-.71493v-.71494h-.71494v-1.42988h-.71495v-1.42989h-.71493v-1.42989h-1.42989v-.71495h-.71494v-.71493h-4.28964v-1.00091h2.14482v-.71495h1.42988v-.42896h-.71494v-1.00092h2.14482v-.71494h1.42989v-1.42987h.71493v-.71496h.71495v-.71494h.71494v-.71494h.71493v-1.85885h-.71493v-1.42988h-.71494v-.71494h-1.85885v.71494h-5.71952v1.42988h-.71494v2.14483h-.71494v.71494h-.71493v.71495h-1.00093v-1.00093h.71494v-1.42988h.71493v-1.42988h.71495v-4.00367h-.71495v-2.14481h-.71493v-.71494h-.71494v-2.14483h-4.00366v2.14483h-.71497v1.1439h.71497v2.4308h-.71497v1.14389h.71497v.71494h.71494v.71495h.71494v.71494h.71494v2.14482h1.14389v-1.42988h1.00093v1.71586h-.71495v.71494h-.71494v1.85885h.42896v-.71493h1.00093v1.0009h-.71495v1.85885h.42897v-1.42988h2.14482v-.71494h.71494v-.71493h.71495v-.71496h.71493v-.71494h.71494v-.71494h1.71587v1.00092h-.71495v.71494h-.71495v.71494h-1.42987v.71494h-.71494v1.42989h-1.42988v.71494h-.71493v.71494h-.71495v.42897h.71495v1.71584h-.71495v.71495h-1.71587v-1.42988h-.71494v-.71494h-.42896v1.85884h.71494v1.71586h-1.71586v-.71494h-.42896v3.57471h-1.00092v-5.29056h1.42988v-1.14391h-1.14392v.71494h-.71493v.71493h-1.71586v-1.0009h.71495V302.233h1.42988v-1.42988h.71493v-1.14391h-.42897v.71495h-1.71584v-.71495h-.71495v-.71494h-.71494v-.71494h-.71494v-.71494h-.71493v-.71494h-.71496v-.71493h-.71493v-.71496h-.71495v-1.71585h1.00093v.71494h.71494v.71494h.71493v.71494h.71495v.71494h.71493v1.42988h.71495v.71496h1.85885v-.71496h1.71586v.71496h1.1439v-1.85886h-.71495v-1.42989h-.71493v-.71494h-.71495v-.71494h-.71493v-.71494h-.71495v-.71494h-.71493v-.71493h-.71495v-.71494h-1.42988v-.71495h-2.14482v-.71494h-2.57377v.71494h-1.42989v.71495h-.71494v.71494h-.71494v1.14389h1.42988v.71495h.71493v2.85976h.71496v.71494h.71493v.71494h.71495v1.00092h-.71495v1.14391h.71495v.71494h.71493v.71494h1.42988v.71494h1.85884v-.71494h1.00092v1.00092h-.71495v.71494h-.71493v.71494h-2.14482v.71493h-4.28964v.71495h-1.71586v-1.00091h.71493v-.71494h5.00459v-1.14391h-1.42988v-.71494h-3.28872v.71494h-1.42988v.71494h-2.14482v.71494h-.71495v1.85884h.71495v2.85977h3.28871v-.71494h3.57471v-.71494h1.42988v-.71495h1.00092v5.71954h.71493v2.85975h.71495v1.00092h-.71495v1.14391h.71495v1.42987zm2.85977-7.57836h-.50047v-1.00092h1.00091v1.00092zm12.15398-2.14483h-.50046v-.71493h-.71494v-.71495h-.71494v-.71494h-2.14482v-.71494h-1.42989v-1.00092h1.71587v.71494h2.14481v.71494h.71495v.71495h.71496v.71494h.71493v1.00091zm-16.44362-3.5747h-.50048v-1.00091h1.00092v1.00091zm9.29421-10.72412h-.50046v-1.71586h1.00093v1.71586zm-.71493 9.00827h.21447v-1.14391h-.42896v1.14391zM60.155782 317.1901h-2.28781v-1.42987h-.71496v-5.0046h-.71493v-5.00457h-.42896v.71493h-3.5747v.71496h-5.29057v-2.85977h-.71494v-1.42989h-.71494v-1.00091h.71494v-.71494h.71494v-.71494h.71495v-.71495h.71492v-.71494h2.14484v-.71494h.71493v-.71494h2.14483v-1.85885h-.71494V294.312h-.71493v-2.14483h-.71496v-.71494h-.71493v-.71494h-.71495v-1.71585h.71495v-.71494h.71493v-1.42988h1.42989v-.71494h4.57562v.71494h2.14481v.71494h1.4299v.71494h.42895v-4.28964h.71495v-.42897h-.71495v-1.71586h6.00551v.71495h.71495v.71494h.71493v1.42988h.71494v2.14482h.71494v2.85975h5.43354v-.71493h2.43081v.71493h.71493v.71494h.71495v1.42989h.71493v3.14574h-.71493v.71494h-.71495v.71494h-.71493v.71494h-.71496v.71495h-.71492v.71494h-.71495v.71494h-.71494v.71494h-.71494v.42897h.71494v.71494h.71494v.71494h.71495v.71493h.71492v.71494h.71496v2.14483h.71493v.71494h.71495v.71494h.71493v2.43079h-.71493v1.42989h-.71495v.71495h-2.43079v-.71495h-2.85977v-.71494h-1.42988v-1.42989h-.71494v-.71493h-1.42988v-.71494h-1.85883v2.14481h-.71495v2.14483h-.71495v1.42988h-.71494v1.42989h-.71493v.71492h-.71494v.71496h-.71494v.71493h-1.4299v.71494zm-1.07242-1.00092h.21449v-.71494h1.71587v.71494h1.1439v-.71494h.71493v-.71493h1.42988v-1.42989h.71495v-1.42988h.71494v-2.14481h.71493v-1.42988h.71495v-1.14391h-.71495v-.71495h-.71493v-.71493h-.71494v-1.00092h1.00091v.71494h1.42989v.71494h3.5747v.71494h.71493v.71495h.71494v.71495h.71495v.71492h1.42988v.71495h4.00367v-1.42987h.71493v-.42897h-.71493v-.71494h-.71494v-1.42988h-.71495v-1.42989h-.71493v-1.42989h-1.42989v-.71495h-.71494v-.71493h-4.28964v-1.00091h2.14482v-.71495h1.42988v-.42896h-.71494v-1.00092h2.14482v-.71494h1.42989v-1.42987h.71493v-.71496h.71495v-.71494h.71494v-.71494h.71493v-1.85885h-.71493v-1.42988h-.71494v-.71494h-1.85885v.71494h-5.71952v1.42988h-.71494v2.14483h-.71494v.71494h-.71493v.71495h-1.00093v-1.00093h.71494v-1.42988h.71493v-1.42988h.71495v-4.00367h-.71495v-2.14481h-.71493v-.71494h-.71494v-2.14483h-4.00366v2.14483h-.71497v1.1439h.71497v2.4308h-.71497v1.14389h.71497v.71494h.71494v.71495h.71494v.71494h.71494v2.14482h1.14389v-1.42988h1.00093v1.71586h-.71495v.71494h-.71494v1.85885h.42896v-.71493h1.00093v1.0009h-.71495v1.85885h.42897v-1.42988h2.14482v-.71494h.71494v-.71493h.71495v-.71496h.71493v-.71494h.71494v-.71494h1.71587v1.00092h-.71495v.71494h-.71495v.71494h-1.42987v.71494h-.71494v1.42989h-1.42988v.71494h-.71493v.71494h-.71495v.42897h.71495v1.71584h-.71495v.71495h-1.71587v-1.42988h-.71494v-.71494h-.42896v1.85884h.71494v1.71586h-1.71586v-.71494h-.42896v3.57471h-1.00092v-5.29056h1.42988v-1.14391h-1.14392v.71494h-.71493v.71493h-1.71586v-1.0009h.71495v-1.42989h1.42988v-1.42988h.71493v-1.14391h-.42897v.71495h-1.71584v-.71495h-.71495v-.71494h-.71494v-.71494h-.71494v-.71494h-.71493v-.71494h-.71496v-.71493h-.71493v-.71496h-.71495v-1.71585h1.00093v.71494h.71494v.71494h.71493v.71494h.71495v.71494h.71493v1.42988h.71495v.71496h1.85885v-.71496h1.71586v.71496h1.1439V294.312h-.71495v-1.42989h-.71493v-.71494h-.71495v-.71494h-.71493v-.71494h-.71495v-.71494h-.71493v-.71493h-.71495v-.71494h-1.42988v-.71495h-2.14482v-.71494h-2.57377v.71494h-1.42989v.71495h-.71494v.71494h-.71494v1.14389h1.42988v.71495h.71493v2.85976h.71496v.71494h.71493v.71494h.71495v1.00092h-.71495v1.14391h.71495v.71494h.71493v.71494h1.42988v.71494h1.85884v-.71494h1.00092v1.00092h-.71495v.71494h-.71493v.71494h-2.14482v.71493h-4.28964v.71495h-1.71586v-1.00091h.71493v-.71494h5.00459v-1.14391h-1.42988v-.71494h-3.28872v.71494h-1.42988v.71494h-2.14482v.71494h-.71495v1.85884h.71495v2.85977h3.28871v-.71494h3.57471v-.71494h1.42988v-.71495h1.00092v5.71954h.71493v2.85975h.71495v1.00092h-.71495v1.14391h.71495v1.42987zm2.85977-7.57836h-.50047v-1.00092h1.00091v1.00092zm12.15398-2.14483h-.50046v-.71493h-.71494v-.71495h-.71494v-.71494h-2.14482v-.71494h-1.42989v-1.00092h1.71587v.71494h2.14481v.71494h.71495v.71495h.71496v.71494h.71493v1.00091zm-16.44362-3.5747h-.50048v-1.00091h1.00092v1.00091zm9.29421-10.72412h-.50046v-1.71586h1.00093v1.71586zm-.71493 9.00827h.21447v-1.14391h-.42896v1.14391zm-10.015461-36.42918h-2.28781v-1.42987h-.71496v-5.0046h-.71493v-5.00457h-.42896v.71493h-3.5747v.71496h-5.29057v-2.85977h-.71494v-1.42989h-.71494v-1.00091h.71494v-.71494h.71494v-.71494h.71495v-.71495h.71492v-.71494h2.14484v-.71494h.71493v-.71494h2.14483v-1.85885h-.71494v-1.42988h-.71493v-2.14483h-.71496v-.71494h-.71493v-.71494h-.71495v-1.71585h.71495v-.71494h.71493v-1.42988h1.42989v-.71494h4.57562v.71494h2.14481v.71494h1.4299v.71494h.42895v-4.28964h.71495v-.42897h-.71495v-1.71586h6.00551v.71495h.71495v.71494h.71493v1.42988h.71494v2.14482h.71494v2.85975h5.43354v-.71493h2.43081v.71493h.71493v.71494h.71495v1.42989h.71493v3.14574h-.71493v.71494h-.71495v.71494h-.71493v.71494h-.71496v.71495h-.71492v.71494h-.71495v.71494h-.71494v.71494h-.71494v.42897h.71494v.71494h.71494v.71494h.71495v.71493h.71492v.71494h.71496v2.14483h.71493v.71494h.71495v.71494h.71493v2.43079h-.71493v1.42989h-.71495v.71495h-2.43079v-.71495h-2.85977v-.71494h-1.42988v-1.42989h-.71494v-.71493h-1.42988v-.71494h-1.85883v2.14481h-.71495v2.14483h-.71495v1.42988h-.71494v1.42989h-.71493v.71492h-.71494v.71496h-.71494v.71493h-1.4299v.71494zm-1.07242-1.00092h.21449v-.71494h1.71587v.71494h1.1439v-.71494h.71493v-.71493h1.42988v-1.42989h.71495v-1.42988h.71494v-2.14481h.71493v-1.42988h.71495v-1.14391h-.71495v-.71495h-.71493v-.71493h-.71494v-1.00092h1.00091v.71494h1.42989v.71494h3.5747v.71494h.71493v.71495h.71494v.71495h.71495v.71492h1.42988v.71495h4.00367v-1.42987h.71493v-.42897h-.71493v-.71494h-.71494v-1.42988h-.71495v-1.42989h-.71493v-1.42989h-1.42989v-.71495h-.71494v-.71493h-4.28964v-1.00091h2.14482v-.71495h1.42988v-.42896h-.71494v-1.00092h2.14482v-.71494h1.42989v-1.42987h.71493v-.71496h.71495v-.71494h.71494v-.71494h.71493v-1.85885h-.71493v-1.42988h-.71494v-.71494h-1.85885v.71494h-5.71952v1.42988h-.71494v2.14483h-.71494v.71494h-.71493v.71495h-1.00093v-1.00093h.71494v-1.42988h.71493v-1.42988h.71495v-4.00367h-.71495v-2.14481h-.71493v-.71494h-.71494v-2.14483h-4.00366v2.14483h-.71497v1.1439h.71497v2.4308h-.71497v1.14389h.71497v.71494h.71494v.71495h.71494v.71494h.71494v2.14482h1.14389v-1.42988h1.00093v1.71586h-.71495v.71494h-.71494v1.85885h.42896v-.71493h1.00093v1.0009h-.71495v1.85885h.42897v-1.42988h2.14482v-.71494h.71494v-.71493h.71495v-.71496h.71493v-.71494h.71494v-.71494h1.71587v1.00092h-.71495v.71494h-.71495v.71494h-1.42987v.71494h-.71494v1.42989h-1.42988v.71494h-.71493v.71494h-.71495v.42897h.71495v1.71584h-.71495v.71495h-1.71587v-1.42988h-.71494v-.71494h-.42896v1.85884h.71494v1.71586h-1.71586v-.71494h-.42896v3.57471h-1.00092v-5.29056h1.42988v-1.14391h-1.14392v.71494h-.71493v.71493h-1.71586v-1.0009h.71495v-1.42989h1.42988v-1.42988h.71493v-1.14391h-.42897v.71495h-1.71584v-.71495h-.71495v-.71494h-.71494v-.71494h-.71494v-.71494h-.71493v-.71494h-.71496v-.71493h-.71493v-.71496h-.71495v-1.71585h1.00093v.71494h.71494v.71494h.71493v.71494h.71495v.71494h.71493v1.42988h.71495v.71496h1.85885v-.71496h1.71586v.71496h1.1439v-1.85886h-.71495v-1.42989h-.71493v-.71494h-.71495v-.71494h-.71493v-.71494h-.71495v-.71494h-.71493v-.71493h-.71495v-.71494h-1.42988v-.71495h-2.14482v-.71494h-2.57377v.71494h-1.42989v.71495h-.71494v.71494h-.71494v1.14389h1.42988v.71495h.71493v2.85976h.71496v.71494h.71493v.71494h.71495v1.00092h-.71495v1.14391h.71495v.71494h.71493v.71494h1.42988v.71494h1.85884v-.71494h1.00092v1.00092h-.71495v.71494h-.71493v.71494h-2.14482v.71493h-4.28964v.71495h-1.71586v-1.00091h.71493v-.71494h5.00459v-1.14391h-1.42988v-.71494h-3.28872v.71494h-1.42988v.71494h-2.14482v.71494h-.71495v1.85884h.71495v2.85977h3.28871v-.71494h3.57471v-.71494h1.42988v-.71495h1.00092v5.71954h.71493v2.85975h.71495v1.00092h-.71495v1.14391h.71495v1.42987zm2.85977-7.57836h-.50047v-1.00092h1.00091v1.00092zm12.15398-2.14483h-.50046v-.71493h-.71494v-.71495h-.71494v-.71494h-2.14482v-.71494h-1.42989v-1.00092h1.71587v.71494h2.14481v.71494h.71495v.71495h.71496v.71494h.71493v1.00091zm-16.44362-3.5747h-.50048v-1.00091h1.00092v1.00091zm9.29421-10.72412h-.50046v-1.71586h1.00093v1.71586zm-.71493 9.00827h.21447v-1.14391h-.42896v1.14391z"/></svg>