<svg xmlns="http://www.w3.org/2000/svg" fill="none" viewBox="0 0 348 348"><path stroke="#000" stroke-width="2" d="M5.08 5.78h336.91v337.67H5.08z"/><ellipse cx="298.29" cy="40.55" stroke="#000" stroke-width="2" rx="15.9" ry="15.51"/><rect width="111.25" height="118.05" x="25.6" y="71.33" stroke="#000009" stroke-linecap="round" stroke-linejoin="round" stroke-width="3.65" ry="5.22"/><rect width="111.25" height="118.05" x="163.43" y="71.33" stroke="#000009" stroke-linecap="round" stroke-linejoin="round" stroke-width="3.65" ry="5.22"/><rect width="111.25" height="118.05" x="25.6" y="208.49" stroke="#000009" stroke-linecap="round" stroke-linejoin="round" stroke-width="3.65" ry="5.22"/><rect width="111.25" height="118.05" x="163.43" y="208.49" stroke="#000009" stroke-linecap="round" stroke-linejoin="round" stroke-width="3.65" ry="5.22"/><path fill="#000" d="M63.75 180.17a5.96 5.96 0 0 1-2.32-1.43c-.91-.81-1.03-.87-1.26-.68-.07.07-.4.22-.75.35l-.62.22-.86-.4c-.47-.23-1.2-.7-1.62-1.07l-.78-.65v-1.06c0-.8-.06-1.14-.26-1.42-.79-1.1.24-3.16 1.76-3.52.36-.09.38-.14.49-1.25.06-.64.12-3.76.12-6.92v-5.76l-1.33-.54a6 6 0 0 1-2.1-1.24l-.76-.7.09-1.21.1-1.21-.44-.22a34.76 34.76 0 0 0-3-1.13c-.05 0 .02.2.15.44.14.25.28.92.33 1.6.06.76.17 1.26.33 1.47l.6.77c.64.85.62 1.5-.08 2.17-.51.5-1.24.51-2.16.07l-.66-.32v.35c0 .51.34 1.6.71 2.33.27.52.3.68.17.96-.28.58-1.08.86-2.46.87-1.06 0-1.28-.04-1.72-.33a2.1 2.1 0 0 0-.7-.32c-.28 0-.91-.77-1.32-1.61-.29-.6-.36-1-.41-2.19-.1-2.35.41-4.54 1.45-6.15.63-.98.63-1.24 0-7.15l-.5-4.6c0-.01-.46-.23-1.04-.48a3.73 3.73 0 0 1-1.27-.8c-.4-.56-.43-1.98-.09-3.67.44-2.18.94-3.72 1.57-4.84.3-.54.55-1.06.55-1.17 0-.1-.24-.5-.54-.87-.68-.86-.86-1.43-.86-2.73 0-1.31-.2-1.69-1.7-3.15a8.8 8.8 0 0 1-1.35-1.58c-.14-.33-.18-1-.15-2.63l.03-2.19-.4-.58a38.3 38.3 0 0 0-1.48-1.87c-.59-.7-1.29-1.61-1.56-2.01-.46-.7-.49-.8-.58-2.35a8.41 8.41 0 0 0-.3-2.09c-.12-.25-.71-1.16-1.3-2-.6-.85-1.35-2.06-1.67-2.69-.53-1.04-.58-1.23-.57-2.21 0-.91.06-1.2.43-1.95a4.42 4.42 0 0 1 2.18-2.28c1-.48 1.19-.75 1.38-1.87.39-2.35.83-3 2.75-4.02.75-.4 1.52-.92 1.7-1.14.17-.22.62-1.07.99-1.88.77-1.68 1.8-3.23 2.55-3.82a5.18 5.18 0 0 1 3.33-1.18c1.1-.05 1.57.01 3.43.44 2.5.57 2.58.56 4.78-.23 1.42-.51 1.55-.53 2.69-.47.66.04 2.05.26 3.1.5 2.81.63 3.52.65 5.47.14 1.17-.3 2.05-.44 3.17-.5 1.5-.06 1.59-.05 3.34.48 2.72.81 3.84 1 5.65.92a7.83 7.83 0 0 0 2.18-.3c.5-.2 1.04-.25 2.46-.25 1.61 0 2 .04 3.24.38 1.96.54 2.79.57 4.52.15a9.3 9.3 0 0 1 5.25.05 7.4 7.4 0 0 0 4.03.2 9.43 9.43 0 0 1 3.88.02 5.03 5.03 0 0 1 2.34 2.11c.17.33.4 1.07.53 1.65.2.9.2 1.28.07 2.6-.09.84-.33 2.29-.53 3.21a6.54 6.54 0 0 0 .23 4.5c.62 1.9.62 3.5-.01 5.76-.82 2.92-.87 3.17-.8 4.22.04.55.17 1.34.3 1.74.59 1.93.41 3.99-.63 7.24-.73 2.25-.86 3.72-.48 5.24.27 1.12.32 3.33.08 3.91-.18.45-.15.45.82.1 2.53-.92 3.73-.44 4.14 1.66.1.5.12.52.55.44a7.5 7.5 0 0 0 1.32-.5c1.36-.63 1.94-1.37 3.68-4.68a99.01 99.01 0 0 0 3.86-8.38c.07-.2-.07-.37-.62-.73a4.53 4.53 0 0 1-2.1-4.94 4.78 4.78 0 0 1 1.29-2.65c1.16-1.2 2.17-1.41 3.42-.73l.74.4.24-.81c.71-2.42 2.17-4.8 3.92-6.39 1.17-1.06 2.16-1.51 3.32-1.51.92 0 1.35.18 1.62.66.29.54.27.76-.15 1.62-.26.55-.8 1.15-2.07 2.35a19.3 19.3 0 0 0-1.97 2.04l-.25.43.55.52c.38.36.63.74.78 1.25.18.6.3.77.7.94.52.24.94.93.94 1.55 0 .56-.43 1.68-1.28 3.32-1.3 2.5-3.04 3.94-5.07 4.15-.9.1-.99.17-1.25.94-.81 2.44-4.25 9.77-5.4 11.53-1.16 1.76-2 2.25-4.74 2.75l-1.64.3-.16.62c-.63 2.4-2.51 3.32-6 2.93l-1.01-.12-.15.52-.37 1.3c-.16.58-.39.95-.88 1.45l-.65.67-.25 4.24c-.31 5.34-.64 9.65-.75 9.82-.04.07-.73.13-1.53.13s-2.78.04-4.42.09l-2.97.08v.35c0 1.08-.66 1.92-1.9 2.44-.38.16-1.48.42-2.45.58l-1.77.3-.03.86a342 342 0 0 1-.27 4.48c-.13 2-.24 4.76-.25 6.14v2.53l.87.74c.48.4 1.01.97 1.18 1.26.17.29.36.53.41.53.06 0 .53-.2 1.06-.44a4 4 0 0 1 2.25-.44c1.17 0 1.33.04 1.95.4a3.1 3.1 0 0 1 1.54 2.82c0 1.61-.96 2.9-2.7 3.65a5 5 0 0 1-3.76.11c-.54-.2-1.3-.52-1.7-.73-.67-.37-.72-.38-1.19-.19-.96.4-3.23-.04-4.1-.8-.46-.37-.54-.54-.65-1.3a8.34 8.34 0 0 0-.37-1.48c-.45-1.14.1-2.75 1.3-3.75l.65-.55.1-4.18a119.23 119.23 0 0 1 .48-8.48l.1-1.35-1-.37c-1.77-.67-2.56-1.48-2.37-2.44l.07-.33H76.2c-1.25 0-3.71.04-5.47.1-2.84.07-3.18.1-3.1.3.06.11.13.56.17.99l.07.78-.66.58c-1.1.98-3.1 1.77-5.08 2.02l-.72.09-.18 4.71c-.1 2.6-.16 5.63-.12 6.76.06 1.99.07 2.05.4 2.27.51.34 1.09.95 1.7 1.8l.53.75.75-.2c.9-.22 2.26-.15 2.96.17a4.46 4.46 0 0 1 2.07 1.97c.8 1.78-.36 4.22-2.34 4.93a6.7 6.7 0 0 1-3.44.08zm2.24-3.98c.52-.17.6-.57.15-.8-.43-.22-1.1.08-1.1.49 0 .18.1.33.24.37l.26.07c0 .01.21-.05.45-.13zm23.5-2c.67-.39.88-.66.69-.89-.42-.48-1.81.05-1.81.68 0 .57.36.63 1.12.2zm-29.1-3.04c.22-.26.27-.46.2-.7-.05-.2-.13-.89-.18-1.55l-.09-1.2-.45-.02a8.93 8.93 0 0 1-.95-.11l-.5-.1v1.67c0 1.7.06 1.92.64 2.22.5.26 1 .18 1.33-.2zm23.3-1.41c.07-.1.1-.77.07-1.54l-.06-1.38h-.61c-.33 0-.7-.04-.83-.08-.19-.07-.22.09-.22 1.2 0 1.74.1 1.96.9 1.96.33 0 .67-.07.75-.16zm-23.44-3.24v-.6l-.84-.04-.85-.04v.54c0 .3.05.6.1.64.05.05.43.09.84.09h.75v-.6zm23.26-.3c.14-.05.22-.24.22-.57v-.48l-.85-.01-.84-.01v.5c0 .27.08.53.18.57.25.1 1.03.1 1.29 0zm-23.48-.8c.16-.06.22-.26.22-.7v-.63l-.84.05-.85.04v.58c0 .34.08.61.18.65.25.1 1.03.1 1.29 0zm23.7-1.4v-.66h-1.69v1.34h1.69zM60 163.58c.2-.14.26-.71.4-3.36.1-1.75.15-3.2.12-3.23a6.2 6.2 0 0 0-1-.1l-.93-.06-.05 3.36c-.03 2.19 0 3.39.1 3.45.22.16 1.12.12 1.36-.06zm23.74-.67c.05-.16.36-7.42.32-7.46a3.41 3.41 0 0 0-.8-.12l-.75-.06-.1 1.05c-.05.58-.13 2.31-.18 3.84l-.1 2.78h.8a5 5 0 0 0 .8-.03zm-37.47-3.04a5.11 5.11 0 0 1-.84-2.6c-.09-.76-.07-.9.13-.98.12-.05.25-.06.29-.02.03.03.13.53.21 1.1.2 1.36.47 1.99 1.07 2.49.58.48 1.28.54 1.66.13.25-.25.24-.29-.18-1.05-.86-1.54-1.04-3.14-.4-3.73.17-.17.28-.1.88.56.98 1.1 1.67 1.25 2.1.46.31-.58.27-.71-.57-1.62-.77-.84-.77-.85-.77-1.73 0-1.3-.33-2.07-1.26-2.96-1.2-1.15-1.35-1.75-1.63-6.75a80.9 80.9 0 0 0-.28-4.08 4.54 4.54 0 0 0-.91-.12c-.75-.05-.84-.03-.84.2 0 .13.12 1.6.27 3.26.16 1.66.32 3.98.38 5.16l.1 2.15-.54 1c-1.35 2.55-1.77 4.9-1.27 7.14.11.5.3 1.04.44 1.21.2.26.22.27.13.03-.2-.52-.27-2.34-.1-2.34.23 0 .4.44.58 1.4.21 1.13.66 1.94 1.19 2.15.24.1.46.15.5.12.02-.03-.13-.29-.34-.58zm31.66-18.2c.17-.21.38-.54.47-.74.14-.33.11-.42-.24-.81-.23-.24-.62-.76-.88-1.14l-.47-.7-.37.26-1.85 1.34c-.81.6-1.61 1.12-1.78 1.16-.45.1-3.08-.78-5.46-1.85-3.3-1.48-4.24-1.77-5.83-1.78-.87 0-1.94.1-3.06.31l-1.72.32v3.98l2.56.05c1.41.03 6.11.03 10.44 0l7.87-.04.32-.37zm-21.84.06c.04-.17.08-1.1.08-2.06 0-1.73 0-1.75-.38-2.1a4.46 4.46 0 0 0-3.47-.83l-1.98.13c-.48.02-.57.07-.6.35-.08.45-.63.96-1.44 1.32l-.7.32v1.54l1.51.33a132.97 132.97 0 0 0 6.8 1.28c.05.01.13-.12.18-.28zm43.46.08c.26-.1.29-.36.23-2.3l-.05-1.77h-.45a6.7 6.7 0 0 1-1.35-.27c-1.18-.34-2.24-.34-4.15.02-2.75.51-2.3.31-5.38 2.46-1.35.94-1.43.96-2.3.57-.42-.19-1.32-.8-2.01-1.36-.7-.56-1.32-1-1.38-.99a7.2 7.2 0 0 0-.8 1.23c-.67 1.18-.67 1.19-.47 1.74.11.3.23.58.27.62.18.17 4.15.24 10.58.18 3.9-.04 7.17-.1 7.26-.13zm-24.96-2.6c1-.7 1.82-1.3 1.82-1.35 0-.05-.81-.2-1.82-.32-2.25-.3-4.63-.23-6.19.18-.58.15-1.24.29-1.47.3-.35 0-.23.1.77.55a41.1 41.1 0 0 0 4.9 1.95c.1-.02 1-.6 2-1.3zm13.64.1c1.6-1.16 1.6-1.16 1.53-1.22-.19-.17-3.66-.75-4.45-.75-1.1 0-2 .12-2 .27 0 .14 2.2 1.9 2.8 2.26.28.15.6.28.74.28.13 0 .75-.38 1.38-.84zm-40.36-1.38c.36-.1.8-.33.97-.5.3-.31.31-.37.16-1.58-.17-1.48-.6-3.66-.9-4.61a8.88 8.88 0 0 0-1.52-2.59 1.59 1.59 0 0 0-1.76-.34c-.63.29-1.36 1.25-1.71 2.25a23.3 23.3 0 0 0-.85 5.41v1.18l.52.28c1.47.79 3.41.97 5.09.5zm35.01-1.13a8.82 8.82 0 0 1 3.24-.36c.73.04 1.87.21 2.53.37 1.65.4 3.46.4 5.13-.01 1.08-.27 1.62-.32 3.66-.33 2.65 0 2.8-.05 3.5-.92.86-1.08 1.2-2.61 1.2-5.6 0-.71.1-1.82.22-2.45.2-1.16.35-1.58 1.19-3.42.6-1.33.66-2.05.28-3.77-.57-2.63-.55-3.18.28-6.24.9-3.26 1.02-4.61.63-6.77-.34-1.9-.3-2.95.22-5.23.58-2.53.62-4.25.14-6.9l-.33-1.88.3-3.28c.35-4.03.27-4.89-.62-6-.8-1-2.25-1.28-4.59-.92-1.85.29-3.04.27-4.46-.08-1.64-.4-3.41-.39-5.42.02-2.04.42-3.37.4-5.33-.05a11.67 11.67 0 0 0-5.77-.15c-3.02.5-3.91.44-6.89-.4-2.14-.62-2.33-.65-3.94-.65-1.3 0-1.96.07-2.88.3-1.94.48-3.25.5-5.71.1-2.66-.44-3.8-.44-5.87-.01a9.49 9.49 0 0 1-4.68.04 17.6 17.6 0 0 0-2.65-.3c-1.92-.02-2.33.33-4.23 3.71-1.28 2.28-1.88 2.98-3.41 3.98-1.52 1-1.9 1.51-2.6 3.5-.42 1.16-.6 1.47-1.03 1.84-1.97 1.64-2.48 2.45-2.5 3.99v.95l1.27 1.87 1.51 2.23c.48.74.81 1.77 1.13 3.56.37 2.05.59 2.55 2 4.59 1.29 1.88 1.6 2.96 1.6 5.47 0 1.54.13 1.83 1.34 3.11 1.42 1.52 1.84 2.2 2.26 3.62.86 2.97 1.07 3.4 1.61 3.26.5-.13 1.51.34 2.02.94.9 1.06 1.31 2.14 1.99 5.23.25 1.17.48 2.14.51 2.17.03.02.81.08 1.74.12.98.04 2.42.22 3.44.42 1.85.37 2.14.38 6.47.11a12.4 12.4 0 0 1 3.1.2c1.9.31 2.72.28 4.9-.2 2.08-.45 4.76-.28 7.32.48 1.4.41 3.7.32 6.18-.26zm-23.87-2.06c-.8-.8-.64-2.34.37-3.65a3.82 3.82 0 0 1 2.3-1.26c.7 0 1.5.4 1.83.91.64 1 .31 2.36-.82 3.4-.72.67-1.4.92-2.48.92-.76 0-.94-.05-1.2-.32zm-3.84-.78c-.13-.21-.22-1.11-.27-2.86l-.08-2.55-.76-2-.75-2.02-.01-3.02c-.02-3.26-.07-3.56-.94-5.8-1.04-2.68-1.13-3.15-1.24-6.33-.1-2.86-.12-2.98-.56-4.15-1.03-2.73-1.03-2.72-.97-4.3.1-3.17.05-4.52-.22-5.3-.34-.95-.95-2.12-1.62-3.06a7.74 7.74 0 0 1-1.7-5.22c0-1.05-.3-2.67-.63-3.43-.12-.26-.2-.58-.2-.71 0-.2.04-.2.27.07.43.5.8 1.85 1.13 4.07.39 2.61.67 3.45 1.61 4.82 1.34 1.92 1.66 3.06 1.97 6.9.26 3.26.39 4.04.95 5.75.43 1.33.43 1.37.45 4.56.02 3.62.03 3.64 1.29 6.45a9.04 9.04 0 0 1 .98 5.06c-.1 2.14.05 3.2.8 5.63l.58 1.9.07 2.88c.05 1.59.07 2.9.06 2.93-.02.02-.11-.1-.21-.27zm39.57-2.51c-.66-.4-.83-1-.53-2.02.5-1.68 2.42-2.63 3.79-1.86.8.45 1 1.41.5 2.46-.65 1.37-2.58 2.1-3.76 1.42zm-21.9-.1c-2.76-.47-5.28-1.5-6.27-2.57a8.13 8.13 0 0 1-1.75-3.52c-.27-1.24-.55-9.5-.44-12.43l.08-2.04h-.97c-1.03 0-1.33-.16-.9-.47.34-.25 1.14-.25 2.33 0 1.19.23 2.58.97 2.32 1.22-.04.04-.33-.05-.64-.2a2.76 2.76 0 0 0-.93-.28c-.67 0-.4.94.58 2.1 1.14 1.35 3.33 2.33 6.41 2.87 2.27.4 11.57.52 15.45.2a37.6 37.6 0 0 0 2.86-.3c.16-.06-.09-.27-.87-.75-.6-.36-1.35-.86-1.66-1.1-.5-.38-.7-.44-1.72-.52-1.14-.1-3.79-.66-4-.86-.06-.06 1.55-.1 3.58-.1 3.02 0 3.9-.04 4.86-.24 2.29-.47 5.19-1.55 6.38-2.37a3.74 3.74 0 0 0 1.6-2.39c.09-.65.06-.71-.36-1.1a2.94 2.94 0 0 0-1.88-.67c-.58 0-1.7.39-4.94 1.75-3.22 1.34-5.18 2-6.87 2.33-2.04.4-3.9.44-3.9.08 0-.06.48-.16 1.06-.21a3.48 3.48 0 0 0 1.05-.18c0-.05-.37-.31-.82-.6a11.42 11.42 0 0 1-2.96-2.73l-.46-.69-.67.83a11.04 11.04 0 0 1-6.58 3.85c-.84.13-.96.19-1.54.8-.34.37-.75.67-.9.67-.24 0-.21-.08.22-.62.93-1.16.94-1.7.05-2.68-2.02-2.2-6.5-3.37-8.34-2.18-.9.58-1.18 1.83-.64 2.83.14.28.2.5.13.5-.66 0-1.31-1.1-1.19-1.99.1-.7.64-1.64 1.12-1.93l.34-.22-.41-.78a9.43 9.43 0 0 1-.25-7.6 11.53 11.53 0 0 1 2.43-3.65l.9-.74.47-.38-.85-1.5a20.7 20.7 0 0 1-.85-1.58c0-.18 1.41-.73 1.53-.6.06.07.39.75.73 1.5.54 1.2.66 1.38.9 1.3a90 90 0 0 1 2.8-.66l.4-.08-.12-1.17c-.06-.64-.12-1.38-.12-1.64v-.47l.81-.07c.45-.03.85-.04.88 0 .04.03.06.79.06 1.69v1.63l1.57.15c.87.09 1.6.13 1.64.1.03-.04.24-.68.46-1.43.22-.75.43-1.4.48-1.44.12-.12 1.69.3 1.66.45-.01.07-.3.77-.66 1.56l-.63 1.43.93.51c1.06.6 2.27 1.8 3 2.98l.5.82.54-.74c.78-1.08 1.88-1.97 3.8-3.08.2-.12.17-.3-.41-1.72-.36-.87-.65-1.6-.65-1.63 0-.02.28-.1.62-.18.34-.08.7-.18.82-.23.16-.05.31.28.67 1.51.26.87.48 1.6.5 1.62.01.02.36-.03.77-.12a21 21 0 0 1 1.74-.24l1-.08.09-1.54.1-1.7c.01-.11.26-.14.83-.08.44.04.82.08.84.1.02 0-.06.74-.18 1.61l-.2 1.69c0 .05.67.31 1.5.58 1.18.4 1.52.46 1.61.32.07-.1.45-.73.85-1.42.4-.68.77-1.24.82-1.24.2 0 1.4.7 1.4.82 0 .06-.45.73-1.01 1.48l-1.01 1.37.63.55a10.45 10.45 0 0 1 3.29 5.24 11.1 11.1 0 0 1-.47 5.85l-.28.76.54.2c.67.26 1.49.94 1.78 1.48.5.92-.13 2.45-1.46 3.57-1.24 1.04-4.6 2.35-7.04 2.74l-1.93.31-.7.12.98.6c.54.35 1.55.93 2.24 1.3l1.26.7-.49.18c-.39.16-2.53.48-3.16.49-.1 0-.18.75-.23 2.29a13.74 13.74 0 0 1-.2 2.4c-.07.07-1.15.16-2.42.21-2.15.1-2.3.11-2.4.38-.14.34-.61 2.83-1.04 5.46a9.5 9.5 0 0 1-.57 2.33c-.62.9-3.42 1.55-6.65 1.53-1.14 0-2.59-.1-3.2-.2zm6.92-1.08.46-.1-.5-.81a8.54 8.54 0 0 0-.87-1.16 6.5 6.5 0 0 0-2.77-1.32c-.83-.16-2.61-.08-2.61.12 0 .05.18.27.41.48.58.52.4.68-.32.26-2.49-1.45-4.68-2.07-6.64-1.87-.66.07-.9.14-.9.29 0 .44.74 1.66 1.32 2.17 1.27 1.12 2.47 1.49 6.4 1.97 1.52.2 5.12.17 6.02-.03zm-.23-9.02h.68v-1.33c0-.72-.04-1.6-.09-1.94l-.09-.62-1.2-.01c-.67-.01-1.8-.06-2.5-.1l-1.29-.1-.08.68a20.3 20.3 0 0 0-.09 2.04v1.36l.95.06a22 22 0 0 0 1.99 0l1.72-.04zm8.98-2.1v-2.1l-1.87.1a48.5 48.5 0 0 0-2.46.16l-.6.08v.7c0 .39-.03 1.25-.08 1.93l-.1 1.23h5.11zm-15.76-9.79a10.3 10.3 0 0 0 5-3.13 8.81 8.81 0 0 0 1.47-9.03 9.1 9.1 0 0 0-2.5-3.6c-1.77-1.59-3.41-2.15-6.28-2.16-5.42-.01-9.11 2.84-9.9 7.64a9.02 9.02 0 0 0 .67 5.34l.41.83 1.55-.06a9.23 9.23 0 0 1 4.68.86c1.61.77 3.09 2.36 3.09 3.33 0 .33.03.34.52.26.3-.04.87-.17 1.3-.28zm-.55-4.42a4.57 4.57 0 0 1-2.32-2.32 4.01 4.01 0 0 1 2.17-4.87c.51-.24.88-.3 1.84-.3 1.05 0 1.27.04 1.85.37a4 4 0 0 1 2.08 3.52 3.5 3.5 0 0 1-1.35 2.86c-.87.74-1.52 1-2.58 1.06a2.7 2.7 0 0 1-1.69-.32zm2.59-.37c2.31-.67 3.3-3.32 1.91-5.15a4.01 4.01 0 0 0-4.19-1.16c-1.62.64-2.2 1.45-2.2 3.08 0 .92.04 1.15.37 1.68a4.02 4.02 0 0 0 3 1.73c.25 0 .74-.08 1.1-.18zm-1.88-1.19c-.89-.43-1.2-.89-1.18-1.76.01-.9.49-1.77 1.15-2.14a3 3 0 0 1 2.58.02c.83.49 1.14 1.1 1.07 2.05-.1 1.31-.98 2.13-2.28 2.13-.47 0-.94-.1-1.34-.3zm13.33 5.68c1.92-.46 3.17-.91 7.18-2.55a38.66 38.66 0 0 1 3.18-1.22c.3 0 .89-1.32 1.15-2.61.27-1.35.17-3.24-.25-4.63-1.04-3.5-4.13-5.97-8.07-6.43-3.65-.43-7.68 1.36-9.42 4.2-.4.65-.4.65-.18 1.34.43 1.3.54 2.04.54 3.44 0 1.45-.33 3.04-.8 3.9-.21.4-.2.43.25 1.15.25.4.87 1.13 1.38 1.62.88.86 2.83 2.18 3.2 2.18.11 0 .93-.18 1.84-.4zm-1-3.69a3.98 3.98 0 0 1-2.29-5.65 3.6 3.6 0 0 1 2.02-1.77 4.12 4.12 0 0 1 5.4 5.41 3.9 3.9 0 0 1-3.54 2.16 4.66 4.66 0 0 1-1.6-.15zm3.1-.85c1.03-.46 1.82-1.93 1.67-3.12-.17-1.34-1.17-2.6-2.33-2.93a4.71 4.71 0 0 0-2.59.07c-1.1.53-2.06 1.92-2.06 2.99 0 .53.36 1.45.77 1.96a4.11 4.11 0 0 0 4.54 1.03zm-2.36-.73a2.24 2.24 0 0 1-1.78-2.02c-.1-.76.2-1.43.87-1.92.47-.34.66-.39 1.47-.39.81 0 1 .05 1.47.39 1.46 1.06 1.17 3.09-.56 3.85-.63.28-.77.28-1.47.1zM48.6 129.87c-.64-.78-.06-3.54.93-4.44.57-.51 1.5-.82 1.85-.62 1.35.78.51 3.9-1.36 5.02-.79.48-1.05.49-1.42.04zm9.91-1.34c-.32-.3-.27-.62.2-1.24.78-1.02 1.74-1.33 2.22-.72.3.36.2.8-.28 1.32-.71.77-1.69 1.07-2.14.64zm37.21-3.98c-1.08-.6-1.23-2.3-.37-4.13.73-1.53 2.14-2.32 3.63-2 1.22.26 2 .84 2.31 1.73.76 2.17-1.3 4.4-4.2 4.53-.7.03-1.16 0-1.37-.13zm-48.32-3.1c-1.11-1.06-1.85-4.16-1.51-6.38.3-1.93.84-2.55 2.28-2.55 2.08 0 3.1 1.1 3.1 3.35-.01 2.44-1 4.8-2.38 5.67-.51.32-1.09.3-1.49-.08zm-5-8.77c-.7-.36-1.13-1.27-1.22-2.56a5.66 5.66 0 0 1 .83-3.39c1-1.79 2.92-2.08 3.71-.56.4.75.37 2.74-.04 4-.54 1.67-1.5 2.75-2.43 2.75-.2 0-.57-.1-.84-.24zm22.27-4.37c-.08-.22.04-.48.23-.48.2 0 .57.41.49.55-.13.2-.63.14-.72-.07zm2.51-.44a.3.3 0 0 1-.17-.26c0-.3.76-.18.82.12.04.23-.25.3-.65.14zm-4.53-1.24c0-.2.23-.29.48-.2.34.13.27.33-.13.33-.2 0-.35-.06-.35-.13zm-21.16-6.92c-.93-.46-1.57-1.4-1.96-2.87-.39-1.4.02-3.85.84-5.1a6.06 6.06 0 0 1 1.91-1.68c.95-.47 2.15.34 2.6 1.74.72 2.32-.52 6.74-2.18 7.82-.56.36-.65.36-1.2.09zM55.54 96c-.65-.34-.8-.89-.42-1.6.44-.8 1.85-1.08 2.45-.46.27.27.3.41.23.82-.14.68-.44 1.08-.95 1.25-.55.18-.95.18-1.3 0zm-1.05-4.44c-1.43-.7-1.89-2.02-1.28-3.74.85-2.4 2.68-3.28 5.28-2.52 1.26.38 1.97 1 2.27 1.98.57 1.86-.71 3.6-3.2 4.33a4.4 4.4 0 0 1-3.07-.05zm44.62-1.63c-.75-.72-.29-2.72.86-3.68a2.84 2.84 0 0 1 2.91-.4c.59.3.87 1.47.54 2.29-.62 1.57-3.35 2.7-4.3 1.79zm8.32 42.37c1.16-.26 1.53-.56 1.82-1.47.21-.7.25-.68-.82-.54-.62.08-.65.1-.7.57l-.03.49-.3-.45a5.08 5.08 0 0 1-.62-3.08c.19-1.25 1.04-2.19 1.15-1.26.04.32.11.37.63.4.44.04.6 0 .67-.18.12-.3-.26-1.37-.64-1.8-.43-.5-1.44-.42-2.75.22-1.5.72-2.05 1.26-2.43 2.4a12.92 12.92 0 0 0-.36 4.42l.1.64 1.64-.07c.9-.04 2.1-.17 2.64-.3zm2.38-3.17c1.46-.16 3.62-.74 4.37-1.18.24-.14.85-.82 1.35-1.51 1.7-2.34 2.72-4.3 4.96-9.6l1.37-3.25.93.02c.82.03 1.04-.03 1.82-.42 1.27-.65 2.55-2.21 3.7-4.5.9-1.76.78-2.35-.53-2.83-1.06-.38-2.3-.02-3.5 1.04-1.28 1.12-1.4 3.15-.2 3.4.99.2 1.62-.24 2.73-1.96.7-1.08.86-.75.21.4-.88 1.57-1.75 2.3-2.76 2.3-.85-.01-1.44-.64-1.66-1.77-.1-.47-.1-.48-.7-.41-1.1.12-2.49-.58-2.94-1.5-.35-.69-.17-.8.44-.25 1.2 1.05 2.4 1.28 3.14.59.5-.48.5-.56.07-1.44-.61-1.26-1.96-2.21-2.83-2-1.06.25-2.26 2.15-2.41 3.81-.14 1.64.46 2.87 1.95 3.94.44.32.62.56.65.84.1 1.06-3.13 7.97-5.58 11.9-1.15 1.85-2.2 2.42-5.21 2.85a5.5 5.5 0 0 0-1.58.37c-.06.09-.11.45-.11.81v.65l.45-.07 1.87-.23zm11.17-18.84c0-.3.56-1.02.72-.92.22.13.14.58-.16.86-.34.33-.56.35-.56.06zm5.49-5.26c.4-.03.75-.14.79-.23.13-.32-.23-.71-.87-.94-.54-.2-.77-.21-1.53-.1-.94.16-1.85.62-2 1.01-.04.14.08.5.28.82l.36.58 1.12-.54a6.6 6.6 0 0 1 1.85-.6zm-2.38-1.93c.29-.13.78-.27 1.1-.32.55-.09.62-.15 1.02-.9.62-1.18.85-1.43 2.6-2.91 1.6-1.35 1.93-1.82 1.59-2.21-.28-.32-1.5-.25-2.37.14-1.68.74-2.63 1.83-4.18 4.78a36.27 36.27 0 0 0-1.04 2.06c0 .05.17-.02.39-.15.2-.14.61-.36.9-.49zm102.81 76.86c-2.07-.76-3.64-2.4-6.25-6.5l-.94-1.48-1.4-.43c-2.36-.7-2.95-1.5-2.26-2.95l.28-.6a118.48 118.48 0 0 1-6.96-.69 53.6 53.6 0 0 0-3.87-.4c-.05.03.01.41.13.84.32 1.13.06 1.49-1.41 1.9l-1.13.33-.2.75c-.5 2-1.86 4.28-3.05 5.16a4.9 4.9 0 0 1-3.2 1.04c-2.66-.01-4.65-1.41-6.57-4.61-.8-1.33-1.7-3.56-1.7-4.2 0-.22-.32-.47-1.19-.93-2.26-1.18-2.69-2.02-1.79-3.5.4-.67 1.35-3.56 1.35-4.13 0-.1-.37-.54-.83-.97-1.99-1.9-3.77-6.2-4.16-10.05a14.9 14.9 0 0 1 .67-4.88c.1-.3.2-1.26.22-2.14.06-2.5.9-4.3 3.02-6.44l1.08-1.1-.41-.31c-.96-.7-4.8-4.91-7.61-8.34-3.63-4.4-6.39-8.42-8.07-11.74-1.36-2.67-1.57-3.4-1.6-5.44 0-1.63.03-1.86.4-2.37.57-.8 1.16-1.04 2.41-1.03 2.34.03 5.46 1.57 12.77 6.32 5.22 3.4 13.72 8.18 14.53 8.18.25 0 1.52-2.1 2.73-4.52l.76-1.52-.35-.75c-.5-1.08-.6-2.8-.25-4.24a10.04 10.04 0 0 1 2.9-4.56 7.72 7.72 0 0 1 3.76-1.64l.92-.09.71-1.33c.6-1.13.67-1.35.45-1.45-.46-.19-.3-.6.4-1.03.38-.24.51-.36.3-.28-.56.2-1.1.18-1.22-.05-.13-.25.41-.52 1.47-.75.43-.1.77-.2.77-.25 0-.2 3.28-4.53 4.42-5.82 4.33-4.91 10.73-9.23 15.37-10.37 4.3-1.06 6.2 1.44 4.7 6.2-.33 1.03-.55 1.35-1.8 2.73-2.43 2.68-2.27 2.02-2.26 9.2.02 7.34.25 9.82 1.56 16.24.53 2.65 1.47 5.48 1.81 5.48.08 0 2.27-1.25 4.85-2.77 9.34-5.51 14.35-7.94 20.18-9.77 3.39-1.07 4.85-1.19 6.2-.52 1.4.7 1.8 1.7 1.33 3.38-.9 3.2-4.3 7.23-12.88 15.23a615.3 615.3 0 0 0-10.04 9.52l-.4.42.83 1.45a13.53 13.53 0 0 1 1.9 5.52c.11.93.31 2.13.45 2.69.48 1.89.49 2.4.09 4.39a14.1 14.1 0 0 1-2.1 5.58c-1.8 2.97-3.22 4.62-5.35 6.27-.77.6-1.5 1.22-1.63 1.4-.17.25-.22.91-.18 2.48.1 3.59.1 3.66-.39 4.04-.23.2-1 .54-1.7.78l-1.27.43-.5 1.79a18.86 18.86 0 0 1-2.08 5 7.19 7.19 0 0 1-3.53 2.45c-1.32.24-2 .2-3.2-.25zm3.43-.61c1.13-.42 2.7-2.2 3.49-3.93.5-1.09 1.27-3.74 1.13-3.84a5.3 5.3 0 0 0-1.23.2c-2.8.68-6.42.94-9.78.7-1.24-.08-2.4-.18-2.58-.22-.3-.06-.3-.02.06.64 1.81 3.45 4.66 6.34 6.53 6.63.9.14 1.66.09 2.38-.18zm-32.39-3.47c.7-.34 2.27-1.84 2.8-2.67a8.14 8.14 0 0 0 1.06-2.6c0-.17-.33-.2-2.04-.22a28.26 28.26 0 0 1-8.79-1.46l-1.34-.45.12.5a19.2 19.2 0 0 0 1.86 3.99c.67.97 2 2.29 2.71 2.68 1.07.58 2.69.68 3.62.23zm-4.28-2.78c-.57-.5-.65-1.43-.12-1.43.24 0 .52.44.72 1.1.11.39-.28.61-.6.33zm35.85-1.5c.37-.08.37-.1.1-.5-.37-.55-.5-2.87-.23-3.87a3.09 3.09 0 0 1 4.53-1.84c1.09.58 1.73.65 2.1.23.58-.65-.1-1.45-1.71-2.08-.85-.33-1.04-.47-1.25-.95-.42-.95-.12-1.37 2.02-2.9 2.55-1.83 3.2-2.1 5.32-2.17 1.4-.04 1.8 0 2.52.23.48.16.9.28.92.28.14 0 2.14-3.19 2.6-4.15.81-1.72 1.66-5.02 1.66-6.49 0-.14-.4.06-1.16.57a52.26 52.26 0 0 1-9.4 4.6 78.42 78.42 0 0 1-8.71 2.47c-1.17.25-3.66.68-5.54.96-3.3.49-3.54.5-7.3.5h-3.87l-.42.85a5.17 5.17 0 0 1-4.48 3.08c-1.66.09-2.14-.15-3.1-1.57-1.08-1.58-1.3-1.53-1.3.27 0 1.6-.16 1.85-1.33 2.14-.83.2-4.55.07-5.68-.2-1-.23-3.66-1.2-4.39-1.6-.84-.46-1.27-1.1-1.27-1.88 0-.86.2-1.14 1.45-2.12.59-.46.96-.86.92-1-.1-.43-.82-.35-1.9.22-.61.33-1.23.55-1.53.55-.73 0-1.7-.69-2.05-1.44a5.67 5.67 0 0 1-.11-3.11l.16-.6-1.5-1.07a27 27 0 0 1-2.07-1.6l-.57-.54v1.31c-.01.72.16 2.13.36 3.14.68 3.25 1.68 5.03 3.93 6.91a34.53 34.53 0 0 0 9.03 5.22c1.5.6 4.83 1.56 7.44 2.14 2.66.59 8.45 1.39 10.86 1.5l1.77.08v-.82c0-.64.06-.83.26-.83.63 0 .9 1.25.66 2.94-.1.67-.1 1.26 0 1.45.29.55 3.06 1.33 5.72 1.62 1.23.13 5.96.18 6.54.06zm4.42-.62c2.04-.53 4.38-1.34 4.75-1.66.29-.24.29-.37-.04-2.06-.2-1-.4-2.15-.46-2.57-.1-.75-.1-.76-.54-.6-.3.1-.5.1-.63 0-.13-.08.23-.39 1.1-.92a20.8 20.8 0 0 0 4.4-3.66l.88-1-.69-.27a7.34 7.34 0 0 0-4.12.03c-1.05.36-4.38 2.69-4.76 3.33-.36.62-.08 1.01 1.07 1.56 1.13.53 1.7 1 1.92 1.63.23.6.06 1.1-.5 1.42-.62.36-1.53.27-2.74-.27-1.12-.5-1.5-.52-2.32-.06-1.08.6-1.29 1.18-1.15 3.2.14 2.19.36 2.53 1.53 2.39a21.4 21.4 0 0 0 2.3-.5zm-31.58-1.65a8.46 8.46 0 0 0 1.78-.5c.56-.28.6-.34.52-.88-.14-.98-.48-1.17-3.39-1.95-4.7-1.25-9.03-2.96-12.03-4.75l-1.58-.95v.48c0 .68-.5 2.35-1.01 3.4-.25.5-.45.95-.45 1 0 .2 1.63 1.36 2.6 1.84a34.8 34.8 0 0 0 5.27 1.84c2.66.64 6.16.84 8.29.47zm-1.09-8.73.64-.23v-1.3c.02-1.43.27-1.84 1.12-1.84.79 0 1.17.27 1.79 1.28.69 1.11 1.2 1.4 2.5 1.4 1.03 0 1.79-.38 2.68-1.34.62-.67 1.4-2.08 1.22-2.2-.04-.04-.97-.16-2.06-.28a67.09 67.09 0 0 1-9.1-1.48 70.41 70.41 0 0 1-10.84-3.59 4.5 4.5 0 0 0-1.47-.48c-.24.29-.3 2.15-.1 2.8.25.77.79 1.35 1.25 1.35.17 0 .75-.22 1.29-.49 1.27-.63 2.37-.75 2.8-.3.16.17.3.5.3.74 0 .34-.17.52-.84.92-1.16.7-1.53 1.19-1.53 2.04 0 .67.06.75.81 1.3.92.65 3.57 1.57 5.41 1.88 1.36.23 3.23.15 4.13-.18zm21.78-5.16a64.13 64.13 0 0 0 17-4.57c4.92-2.09 8.74-4.6 7.71-5.06-.08-.04-.76.33-1.5.83a31.1 31.1 0 0 1-8.25 4.15c-3.1 1.14-8.78 2.81-11.15 3.28-3.8.75-4.69.82-11.43.82-5.28 0-6.56-.04-8.17-.25a59 59 0 0 1-12.66-3.03c-4.53-1.6-7.18-3.07-9.62-5.34-.78-.71-1.5-1.41-1.61-1.55-.18-.23-.23-.18-.34.37-.13.6-.1.67.74 1.54a15.84 15.84 0 0 0 4.25 3.17c2.1 1.16 4.74 2.17 8.71 3.33a65.8 65.8 0 0 0 11.82 2.43c5.34.6 9.62.57 14.5-.12zm-1.54-1.16c2.38-.19 4.23-.49 6.8-1.09 4.61-1.08 10.3-2.97 13.3-4.42 1.92-.93 5.1-3.04 5.52-3.68.53-.78.44-2.83-.18-4.38a17.34 17.34 0 0 0-1.94-3.68c-.29-.28-.31-.27-1.72 1.03-1.42 1.3-1.74 1.55-1.88 1.45-.12-.09 1.01-1.49 2.75-3.4 1.97-2.17 4.42-4.57 11.43-11.16 5.25-4.94 8.01-7.84 10.26-10.78 1.49-1.96 2.04-3.04 2.17-4.23.1-.94.1-.94-.55-1.42-1.12-.83-2.53-.8-5.4.1a59.64 59.64 0 0 0-6.8 2.64c-7.22 3.2-13.9 6.92-23.27 12.99-.44.28-.84.48-.9.44-.23-.17.64-1 2.42-2.28l1.93-1.4-.74-1.85c-1.2-2.97-1.77-5.12-2.52-9.4-.36-2.12-.57-15.57-.26-17.26.22-1.22.46-1.61 2.2-3.55a9.36 9.36 0 0 0 2.37-4.37c.4-1.56-.16-2.73-1.51-3.22-.63-.23-.74-.23-1.79-.03-2.7.5-5.8 2.12-9.95 5.14a39.28 39.28 0 0 0-8.71 8.87l-.95 1.3.57-.15c.43-.1.62-.1.78.02.17.12.07.25-.41.55-.65.4-.64.5.02.24.3-.11.44-.1.65.06.25.18.23.25-.25.6a6.1 6.1 0 0 1-1.64.69l-1.1.3-1 1.57-1 1.57.66.17c1.4.37 2.92 1.43 3.34 2.33.04.08.54-.17 1.1-.56 2.34-1.62 4.66-1.78 7.04-.5 2.16 1.17 3.11 4.5 2.05 7.16a9.12 9.12 0 0 1-4.69 4.61 8.6 8.6 0 0 1-1.86.43 6.23 6.23 0 0 1-4.8-1.78l-.56-.6-.9.62c-2.4 1.66-5.51 1.76-7.62.25-.74-.53-.71-.54-1.16.48a46.62 46.62 0 0 1-3.67 6.42c-2.7 3.77-5.2 6.73-10.48 12.44-4.8 5.2-4.93 5.39-5.1 8.42l-.1 1.81.53.67c.82 1.02 4 3.54 5.5 4.36 2.44 1.34 3.94 1.93 8.63 3.38 4.42 1.36 7.48 1.85 14.22 2.28 1.3.08 7.37-.05 9.17-.2zm-21.03-3.93a5.8 5.8 0 0 1-2.3-1.2c-.47-.43-.65-1.33-.38-1.85.27-.51.5-.46.42.1-.04.26-.02.62.04.8.16.48 1.13 1.25 1.99 1.57 1.15.43 1.94.36 3.77-.34a7 7 0 0 1 1.6-.5c0 .25-1.55 1.09-2.48 1.35a4.3 4.3 0 0 1-2.66.07zm.49-1.9c-1.28-.19-1.8-1.4-.8-1.9.7-.38 1.14-.36.52.02-.63.38-.82.92-.42 1.21.33.25.54.27 1.68.23.58-.02.77.02.77.17 0 .32-.66.42-1.75.27zm11.55-4c0-.45.51-1.16.79-1.1.33.09.35.43.05.96-.32.57-.84.65-.84.14zM189 140.1c-.14-.17.4-.88.74-.97.48-.14.63-.1.63.15 0 .51-1.08 1.16-1.37.82zm11.35-7.28c0-.27.8-.87 1.16-.87.52 0 .5.28-.04.67-.59.44-1.12.53-1.12.2zm5.93-3.01a14.13 14.13 0 0 1-6.37-2.34c-.92-.65-1.32-1.19-1-1.34.1-.04.57.2 1.06.54l.88.61 1.26-1c2.12-1.66 3.21-3.63 3.1-5.58l-.05-.98-1.04-.5a3.57 3.57 0 0 1-1.05-.64c0-.19.1-.17 1.05.19 1.62.6 3.46.81 6.94.8 2.61 0 3.49-.05 4.9-.3 3.59-.6 8.24-1.92 9.44-2.67l.46-.28-.59-.09c-1-.15-1.28-.72-.35-.72.8 0 3.93 1.58 3.93 1.99 0 .22-.25.18-1-.2-.37-.18-.7-.32-.72-.3-.02.03-.18.55-.36 1.18-.4 1.4-.94 2.48-2.03 4.07-2.77 4.04-6.93 6.5-12.41 7.36-1.61.26-4.54.35-6.05.2zm6.06-.86c1.8-.27 3.76-.88 5.45-1.7 1.72-.82 2.98-1.64 2.82-1.83-.16-.19-1.51-.25-2.83-.14-1.46.14-4.04.89-4.95 1.45-.37.24-.68.39-.68.34 0-.17.43-.68.86-1.02l.45-.36-.86-.1c-2.27-.25-5.7.96-7 2.46-.63.73-.64.79-.17.9 1.47.34 4.66.34 6.91 0zm37.3-3.81c-.16-.2.4-.91.83-1.08.7-.28.83.06.26.67-.5.53-.87.67-1.1.4zm-26.6-24.56a22.2 22.2 0 0 0-2.13-1.18c-1.42-.71-1.64-.87-1.41-1.01.15-.1.56-.14.9-.11l.64.05-.39-.3c-.32-.25-.34-.34-.15-.5.32-.3.59-.27 1.82.19 1.31.49 2.72 1.44 2.72 1.85 0 .34-.2.36-.93.08l-.55-.2.4.51c.7.88-.01 1.34-.93.62zm4.44-10.98c.26-.77 1.37-1.5 1.37-.9 0 .4-.78 1.26-1.14 1.26-.29 0-.33-.06-.23-.36zm-39.5 43.06c1.56-1.47 7.73-8.67 10.34-12.08l.57-.75-.86-.3c-1.31-.47-6.13-3.1-9.66-5.3l-5.41-3.34c-6-3.72-10.1-5.63-11.53-5.37-1.8.34-2.07 2.54-.7 5.55 2.06 4.5 3.88 7.3 9.07 14 2.35 3.02 7.04 8.09 7.48 8.09.09 0 .4-.23.7-.5zm-3.01-15.95c-.9-.3-1.1-.73-.27-.59.79.14 1.52.46 1.45.62-.11.25-.37.24-1.18-.03zm34.36-1.74c3.34-1.2 5.56-4.92 4.82-8.09a4.88 4.88 0 0 0-3.01-3.43c-.9-.3-2.47-.32-3.56-.05-1.76.45-3.88 2.35-4.71 4.22a7.24 7.24 0 0 0-.04 5.08c.64 1.35 1.68 2.12 3.5 2.55.68.17 2.12.03 3-.28zm-2.77-4.21a1.7 1.7 0 0 1-.62-.74c-.43-1.07.62-2.54 1.83-2.54a1.52 1.52 0 0 1 1.48 2.1c-.37 1-1.82 1.64-2.7 1.18zm-6.86 3.6a7.6 7.6 0 0 0 1.71-.92l.81-.6-.26-.71c-.62-1.7-.13-4.16 1.2-5.96.35-.46.62-.94.62-1.07 0-.37-.97-1.42-1.67-1.81-1.9-1.07-4.1-.9-6.2.46-2.33 1.5-3.71 4.45-3.22 6.86.39 1.95 1.3 3.14 2.82 3.72 1.47.56 2.64.57 4.19.03zm-1.22-4.33c-.77-.45-.94-.95-.62-1.77.35-.9.86-1.31 1.59-1.31.8 0 1.2.2 1.43.72.38.86-.16 2.07-1.08 2.42-.69.26-.78.25-1.32-.06zm-96.16 207.43a58.08 58.08 0 0 1-11.05-1.56l-3.78-.82-.75.12c-4.34.73-12.2 1.65-17.29 2.03-2.12.16-5.92.15-8.3-.03-3.25-.25-7.97-1.04-8.99-1.5-.37-.18-.37-.19-.28-1.3.18-2.1 1.39-3.79 4-5.59.56-.39.82-.67 1.15-1.24.88-1.55 2.86-2.8 5.26-3.35a7.47 7.47 0 0 1 4.3.06 3.85 3.85 0 0 1 2.7 3.37c.06.5.17.87.3.94.16.1.45.12 1.8.12a19.66 19.66 0 0 0 7.89-1.45l.65-.3.33-1.14a27.6 27.6 0 0 0 .17-15.5c-.43-1.43-.6-1.6-2.95-2.77a8.95 8.95 0 0 1-2.28-1.5 10.9 10.9 0 0 1-1.1-1.07c-.13-.22.1-.23-3.12.15-4.72.57-7.7.4-11.74-.67a28.15 28.15 0 0 1-5.95-2.48c-.83-.55-1.47-1.33-1.5-1.86-.03-.3-.02-.32.65-.46.38-.08 1.22-.2 1.88-.26 2.56-.22 7.2-.72 7.2-.76 0-.08-3.22-1.1-6.85-2.15a69.11 69.11 0 0 1-7.49-2.44c-2.4-1-4.2-2.1-4.58-2.82-.21-.41-.05-.61 1.04-1.32 1.29-.83 4.5-2.17 12.2-5.11l3.3-1.26-.07-.62c-.08-.77.11-.93 1.62-1.3 4.4-1.04 11.88-3.45 12.22-3.93l.73-1.02a6.25 6.25 0 0 1 1.89-1.82c.2-.12.37-.25.37-.29 0-.04-.22-.26-.49-.49a60.6 60.6 0 0 1-1.72-1.59 46.18 46.18 0 0 0-2.78-2.38 56 56 0 0 1-2.27-1.86c-.53-.48-.82-.66-1.07-.69-.2-.02-1.09.01-1.99.07-2.5.17-5.03.23-6.54.16-4.93-.22-9.94-.78-11.72-1.32-1.46-.43-2.31-1.32-2.17-2.27.1-.72.63-1.13 2.05-1.6a17.5 17.5 0 0 1 4.83-.96c1.33-.03 1.7-.1 1.57-.26a7.07 7.07 0 0 0-1.48-.91l-.52-.25-1.86.17c-5.45.5-8.35.63-11.11.5-7.75-.35-13.55-1.88-15.95-4.2-1.88-1.82-1.94-4.29-.16-6.62 3.05-4 13.43-8.82 23.6-10.97a69.1 69.1 0 0 1 15.48-1.57c4.02 0 5.26.07 8.46.53 4.9.7 8.62 1.7 10.93 2.94 1.95 1.04 2.88 2.13 2.88 3.36 0 .88-.14 1.19-1.02 2.2-.9 1.02-1.03 1.45-.54 1.86.2.17.93.54 1.63.84 2.15.9 3.42 1.7 4 2.5.26.36.27.37 1.19.49.5.07 1.04.18 1.2.26.4.21.36.76-.07 1.02-.3.18-.32.24-.2.71.08.28.14.85.14 1.26 0 .6-.05.77-.28.92-.16.1-.25.2-.2.23.06.02.9-.03 1.89-.11 3.1-.28 4.57-.12 5.9.63 1.18.67 1.58 1.87.92 2.78l-.3.4.83.7c2.07 1.7 3.1 3.61 3.1 5.78 0 1.58-.5 2.28-2.13 3.03-2.72 1.23-6.98 1.47-10.2.56-2.54-.7-4.13-1.71-5.47-3.46-.62-.8-.7-.87-1.04-.85-.83.05-3.95.42-4.04.48-.09.07.1.54 1.02 2.62.2.46.62 1.2.92 1.64.3.44.78 1.2 1.08 1.68.3.48.74 1.08.98 1.34l.43.47 1.42.16c2.28.25 4.3.67 5.2 1.09.2.08.72.52 1.17.97.76.74.92.84 1.7 1.11 1.2.43 3.16 1 5.62 1.66 1.16.3 2.92.8 3.91 1.08.99.28 2.12.56 2.53.62.4.07.77.17.82.23.06.06.06.3 0 .53l-.1.4 6.7 1.92c3.68 1.04 7 2.04 7.38 2.2.8.34 1.26.73 1.27 1.07 0 .3-.62 1.3-1.34 2.13-.3.36-1.67 1.63-3.03 2.83-2.62 2.3-3.2 2.84-3.01 2.8l1.6-.34a7.5 7.5 0 0 1 2.4-.3c.87.03.98.05 1.51.3.8.4 1.09.88 1.09 1.84 0 .93-.21 1.3-1.29 2.33-2.76 2.63-6.68 4.03-11.3 4.03a17.41 17.41 0 0 1-5.72-.94c-.03 0-.06.5-.07 1.13-.02 1.9-.31 2.44-1.93 3.62a5.2 5.2 0 0 0-1.89 2.36c-.25.55-.77 1.58-1.15 2.3-2.12 3.93-2.8 6.3-2.8 9.77 0 1.13.07 2.5.18 3.05.2 1.13.9 3.58 1.1 3.9l.12.2 3.03.01c3.24.02 4.59-.04 5.81-.27.56-.1.78-.18.84-.3.32-.6.72-1.24 1-1.59.8-.99 2.53-1.92 4.26-2.28a6.9 6.9 0 0 1 2.12-.16c2.37.06 4.5.68 5.64 1.65a4.88 4.88 0 0 1 .93 6.39c-.28.42-.34.7-.36 1.87-.04 1.53-.24 1.99-1.21 2.77-.54.43-.72.47-3.23.69-3.38.3-9.37.44-12.21.3zm3.18-.72c.2-.18.5-.49.65-.69a3.52 3.52 0 0 1 2.74-1.47c.68 0 1.41.22 1.82.56.33.26.32.91-.02 1.3-.13.17-.25.3-.25.32 0 .06 1.14.02 1.42-.04.25-.06.3-.14.3-.46 0-.81.78-1.59 1.8-1.8.46-.1.63-.1 1.18-.03 1.15.15 1.48.6 1.03 1.44-.12.2-.15.38-.07.38.36 0 .87-.34 1.1-.74a3.8 3.8 0 0 0 .18-3.5c-.58-1.32-2.24-2.65-3.94-3.14-.71-.2-.76-.2-2.15-.17a18.53 18.53 0 0 0-3.44.4c-1.98.56-3.58 2.06-4.6 4.3-.62 1.34-.6 1.31-.84 1.31-.12 0-.35-.14-.5-.3-.22-.26-.25-.43-.16-1.03.05-.4.14-.85.2-1l.1-.3-.73.04-1.42.08c-.38.02-.94.1-1.25.2-.3.09-.74.18-.96.2-.22.03-.8.21-1.3.4-.99.4-1.8.54-1.98.34-.18-.2.28-.5 1.2-.82 1.02-.34 1.1-.45.68-.88a17.05 17.05 0 0 1-3.8-9.65c-.14-1.7 0-4.37.3-5.49a30.9 30.9 0 0 1 2.91-6.55c.4-.69.7-1.27.65-1.3a30.95 30.95 0 0 1-4.56.7c-.46.02-.57.15-.73.92-.1.44-.34 1.48-.55 2.31-.78 3.09-.86 3.64-1 7.91-.23 6.28-.54 10.22-1.03 12.91l-.22 1.2.5.2a64.3 64.3 0 0 0 6.66 1.39c2.17.3 8.02.84 9.28.86.36 0 .48-.04.8-.31zm6.3-3.25c-1.19-.13-1.84-.67-1.95-1.6-.08-.72.08-1.04.73-1.48 1.87-1.26 4.87.09 3.86 1.74-.67 1.1-1.44 1.49-2.65 1.34zm-5.25-1.1c0-.08.04-.1.1-.04.04.05.03.1-.02.13-.05.02-.09-.02-.08-.09zm-36.92 4.26c2.64-.16 5.56-.4 7.12-.6.6-.08 2.69-.41 4.62-.74a279.13 279.13 0 0 1 5.58-.89c.17-.07.23-.42.28-1.46.04-.75.15-1.8.24-2.34.09-.54.23-3.43.31-6.44.18-6.75.46-9.9 1.19-13.71.36-1.87.42-1.93 2.03-2.05 3.77-.29 6.91-1.2 8.3-2.4 1.07-.9 1.22-1.31 1.22-3.34 0-1.34-.05-1.78-.2-1.85-.16-.07-.84 0-3.6.4-5.14.74-7.5.9-13.07.92l-3.9.02-1.06.7c-.58.38-1.42.83-1.86 1l-.8.32.24.52c.34.71 1.07 1.32 2.71 2.25 3.21 1.82 3.55 2.3 3.82 5.49.35 4.01.06 8.14-.88 12.67-.5 2.37-1.46 3.64-3.53 4.65-.62.3-2.28.85-2.84.94-.2.03-.27.11-.27.32 0 .23-.05.27-.26.23a86.4 86.4 0 0 0-3.8-.43c-.7-.05-.82-.04-.95.07-.12.09-.06.2.24.45.39.33.6 1.01.36 1.12-.28.12-.64-.1-1.58-.94a13.97 13.97 0 0 0-4.3-2.72c-2.4-1.02-3.45-1.14-5.8-.63a7.02 7.02 0 0 0-2.98 1.3c-1.9 1.4-2.94 2.93-3.21 4.74-.18 1.19.2 1.68.54.71a1.9 1.9 0 0 1 1.26-1.16c.16-.04.64-.07 1.06-.07.65 0 .83.03 1.25.22.27.12.56.3.65.4.22.26.2.85-.05 1.45l-.2.49.4.09c.53.11 2.18.27 2.3.22.06-.03.02-.18-.09-.35-.48-.74.2-1.71 1.21-1.71.92 0 2.26.58 2.78 1.21.12.16.23.48.23.72v.44l1.52-.05c.84-.03 2.53-.1 3.77-.18zM68.6 312.1a2.88 2.88 0 0 1-1.62-1.2c-.34-.7.5-1.73 1.62-2l.58-.12.7.15c1.38.32 2.03.86 1.92 1.63-.11.87-1.25 1.67-2.39 1.67a4.1 4.1 0 0 1-.8-.13zm5.75-.25c0-.07.04-.09.1-.04.04.05.03.11-.02.13-.05.02-.09-.02-.08-.09zm-.14-.7c0-.09.03-.12.07-.08.05.05.05.12 0 .17-.04.05-.07 0-.07-.08zm-.16-.73c0-.1.04-.13.08-.09.04.05.04.13 0 .17-.04.05-.08.01-.08-.08zm-.17-.58c0-.08.05-.1.1-.04.04.05.04.1-.02.13-.05.02-.09-.02-.08-.09zm34.8 1.82a29.7 29.7 0 0 1 2.1-.17c.8-.04 1.57-.08 1.7-.1.13-.02.36-.2.51-.38.45-.55 2.1-1.7 3.07-2.1a14.4 14.4 0 0 1 7.51-.78c1.2.2 2.4.78 3.75 1.82l.65.5-.08-1.27c-.16-2.51-1.33-4.08-3.37-4.52a7.5 7.5 0 0 0-2.6-.11 9.05 9.05 0 0 0-4.03 1.82c-.46.39-1.04 1.24-1.04 1.5s-1.26.74-2.43.95c-.9.15-1.05.16-4.57.14-3.2-.01-3.65 0-3.74.1-.12.13.17.8.59 1.36.3.39 1.23 1.34 1.32 1.34l.66-.1zm-23.59-1.49c1.59-.32 3.3-1.14 3.53-1.69l.1-.22-.5.18c-1.82.66-6.95 1.23-8.7.97-.86-.13-1.22-.55-1.66-1.98-.55-1.79-.96-2.33-2-2.65a4.1 4.1 0 0 0-1.47-.2c-.47 0-1.08.05-1.38.1a7.35 7.35 0 0 0-4.15 2.53l-.12.18.62-.14c.9-.2 2.77-.13 3.93.13 1.1.25 2.88 1.03 4.53 1.97l1.35.77 1.92.14c2.19.16 2.84.15 4-.09zm-4.96-25.38c3.09-.33 5.43-1.07 7.34-2.31 1.93-1.26 2.3-2.4 1.25-3.8-.8-1.07-2.32-2.06-4.55-2.96-2.87-1.16-6-1.96-12.69-3.22-3.64-.68-9.83-2.26-10.5-2.67-.33-.2-.3-.43.08-.52.27-.06.48-.02 1.34.23 1.01.31 2.24.6 2.32.57l.44-.4a12.1 12.1 0 0 1 2.77-1.74 96.23 96.23 0 0 1 7.3-3.2c.42-.04.43-.08.14-.37a8.11 8.11 0 0 0-2.5-1.03c-.32-.03-.64.03-1.7.35-5.9 1.77-10.72 3.58-14.28 5.37-2.67 1.34-3.1 1.7-2.72 2.2.33.42 2.51 1.59 4.84 2.59 3.24 1.39 5.2 2 10.1 3.14 4.52 1.06 5.6 1.43 6.83 2.3 1.06.74 1.84 2.05 1.84 3.08 0 .41-.25.7-.74.86-.27.1-.27.1 0-.04s.26-.14-.86-.23c-1.72-.13-2.45-.3-2.82-.65-.2-.2-.27-.37-.2-.52.14-.33.93-.75 1.8-.96.43-.1.78-.2.78-.23s-.35-.05-.77-.05c-1.7 0-2.78-.4-2.62-.96.04-.16.13-.33.19-.4.1-.1-.04-.09-.88.06-2.3.4-5.93.76-7.78.76h-.84l.1.42c.36 1.46 4.67 3.37 9.31 4.12 2.39.39 5.33.47 7.68.21zm-13.03-3.34c-1.42-.53-.95-1.13 1.08-1.38a6.06 6.06 0 0 1 2.67.22c1.1.3 1.3.74.53 1.1-.45.23-.47.23-2.09.25l-1.63.02zm52.1.91c3.55-.28 6.04-1.12 8.33-2.82 1.3-.97 1.98-2.12 1.98-3.34 0-.61-.26-.92-.97-1.14-.42-.13-.43-.13-1.33 0-.5.06-1.62.29-2.5.49l-1.59.37-.71.63c-.84.75-1.2 1.4-.9 1.6.1.07.24.07.59.01 1-.16 2.1.1 2.1.52 0 .29-1.08 1.23-1.41 1.23a7.5 7.5 0 0 1-2.1-.61c-.98-.5-1.08-.88-.48-1.77.68-1 1.29-1.61 3.67-3.7a57.77 57.77 0 0 0 4.45-4.22c1.06-.97 1.34-1.36 1.33-1.89 0-.89-.89-1.27-6.4-2.8a634.6 634.6 0 0 1-4.57-1.28 29.4 29.4 0 0 0-2.58-.66c-.4-.04-.47-.01-.9.34-.25.21-.73.56-1.05.78-.33.21-.59.43-.58.47 0 .11 7 2.65 8.23 3 1.05.28 1.39.5 1.23.76-.13.23-.52.27-1.17.1-.54-.13-.57-.13-.76-.01a124.73 124.73 0 0 0-8.36 5.59l-1.08.83.1.46c.13.68.65 2.02 1.27 3.25.3.6.5 1.12.45 1.16-.06.03-.5.18-1 .33-.5.14-.95.32-.99.39-.15.25.29.55 1.52 1.03 2.43.96 3.48 1.1 6.17.9zm4.07-4.9c-.89-.33-.58-.93.78-1.52 1.1-.48 2.65-.57 3.12-.18.47.37-.4 1.43-1.4 1.72a4.8 4.8 0 0 1-2.5-.03zm5.63-.47c0-.08.04-.1.1-.05.04.05.03.11-.02.13-.05.03-.09-.01-.08-.08zm.18-.6c0-.15.03-.2.07-.12.04.08.04.2 0 .27-.04.06-.07 0-.07-.15zm-46.58-3.3c.06-.4.36-1.86.66-3.24.87-3.95 1.06-5.37.73-5.37-.21 0-1.22.55-2.5 1.35-.61.38-1.33.8-1.59.93l-.47.24h-1.6a7.27 7.27 0 0 1-3.39-.54 1.8 1.8 0 0 0-.54-.16c-.09 0-.41.14-.71.3-.3.17-1.42.66-2.5 1.09-2.82 1.14-4.32 2-4.63 2.67-.1.21-.08.22 1.52.62 2.78.7 6.79 1.53 10.77 2.22 2.1.37 3.9.66 3.98.65.09-.01.2-.35.27-.75zm29.8.16a50.45 50.45 0 0 0 4.6-3.07 63.36 63.36 0 0 1 2.55-1.75c.29-.17.53-.35.53-.4 0-.15-1.87-1.06-3.31-1.6-.75-.29-2.03-.74-2.85-1l-1.49-.5-.74.12c-1.2.17-1.67.14-2.9-.2a30.52 30.52 0 0 0-2.87-.68c-.02 0 .38.77.89 1.69.5.92 1.55 2.88 2.32 4.36 1.74 3.34 1.92 3.65 2.12 3.65.04 0 .56-.28 1.14-.62zM94.7 257.5c-.3-.41-1.37-1.87-2.39-3.23-2.49-3.34-3.03-4.1-3.75-5.33-.34-.57-.78-1.25-.98-1.51-.43-.56-.04-.53-3.94-.24-3.58.26-3.68.27-3.68.35 0 .12 1.33 1.39 3.95 3.78 3.43 3.13 4.34 4.02 4.34 4.28 0 .11.13.3.3.42.38.27 2.84 1.11 4.64 1.59a18.08 18.08 0 0 1 2.02.65c.02 0-.2-.34-.5-.76zm10.91-7.49c1.17-.1 2.67-.42 3.28-.72 1.29-.63 1.86-1.59 1.86-3.1 0-1.65-.76-3.44-1.93-4.53-.86-.8-2.5-1.8-4.08-2.5a20.21 20.21 0 0 0-7.75-1.87c-2.7-.14-6.83-.15-7.03-.02-.08.06-.15.33-.15.6 0 .5 0 .51.7.87 1.09.57 1.96 1.7 3.36 4.36 1.04 1.98 1.65 2.92 2.35 3.67 1.61 1.73 4.22 2.91 7.08 3.21 1.03.1 1.29.11 2.31.03zm-28.44-2.95c4.86-.2 11.36-.9 14.8-1.58 1.14-.23 1.16-.23 1.07-.45-.68-1.75-.64-1.7-1.57-1.46-.83.2-5.22.73-8.85 1.03-5.88.5-12.43.6-17.55.28-.92-.06-1.75-.09-1.84-.06-.08.02-.25.14-.37.27-.43.43-1.02.18-.82-.35.1-.25 1.27-.95 1.97-1.16.54-.17 1.3-.18 1.64-.04.35.15.32.17-.46.42-.39.12-.7.25-.7.28 0 .03.8.11 1.76.18a121.18 121.18 0 0 0 22.2-.98c1.4-.2 3.55-.66 3.55-.76 0-.16-1.22-2.16-1.7-2.8-.53-.68-.87-.93-1.1-.83-.09.04-.4.31-.7.62-.3.3-.77.69-1.03.85-.62.39-2.1.8-3.65 1.02-1.1.15-1.55.18-3.23.18-1.73 0-2.09-.02-3.09-.17-6.16-.95-9.83-3.88-10.15-8.09a3.64 3.64 0 0 0-.19-1.15c-.05 0-.58.2-1.16.44-.96.4-1.1.44-1.31.34-.22-.1-.2-.12.1-.3a43.9 43.9 0 0 1 4.23-1.77 72.4 72.4 0 0 1 12.82-2.9c2.31-.29 3.83-.39 6.4-.4h2.43l.67-.71c1.55-1.61 1.94-2.72 1.3-3.72a6.38 6.38 0 0 0-1.97-1.78 24.4 24.4 0 0 0-4.14-1.65c-4.2-1.21-10.35-1.97-15.98-1.97-7.85 0-15.46 1.47-23.8 4.59-6.26 2.35-11.34 5.94-12.77 9.06a4.02 4.02 0 0 0-.06 3.15c.81 1.53 2.52 2.67 5.36 3.6a42.05 42.05 0 0 0 12.85 1.8c2.52 0 3.65-.09 6.94-.5a50.1 50.1 0 0 1 2.84-.3c.53 0 1.4.45 2.46 1.28.5.39 1.02.77 1.17.84.23.11.67.16 2.47.25 3.44.18 4.12.26 3.93.47-.09.1-.23.1-.77.07-.36-.02-2-.05-3.63-.08a45.84 45.84 0 0 0-4.45.07c-2.45.19-4.24.67-5.74 1.54-.91.53-.92.82-.03 1.58.67.57 1.03.72 2.25.95 1.53.28 5.43.65 8.44.8 1.62.08 7.3.08 9.16 0zm-37.34-17.31c-.1-.05-.19-.12-.19-.17a3 3 0 0 1 1.01-.7c.27-.09.82-.06 1.02.04.15.08.08.17-.41.49-.61.39-1.06.5-1.43.34zm31.25-2.19c.08-.16 2.25-.81 4.04-1.21a47.8 47.8 0 0 1 9.03-1.09c2.33-.08 3.29-.01 3.8.26.27.15.28.19.08.27-.2.08-.34.09-.9.02-.52-.06-1.08-.06-2.4 0-4.53.2-8.81.76-12.26 1.63-1.07.27-1.47.3-1.39.12zm-25.97-.12c-.26-.13 0-.38.56-.54.82-.23 1.35.17.63.48-.45.19-.9.21-1.2.06zm-2.78-.78c-.33-.14-.2-.37.3-.55.63-.23 1.19-.29 1.5-.15.21.09.2.12-.2.34-.24.14-.63.3-.87.35-.52.11-.5.11-.73.01zm23.6-.7c-.37-.07-.18-.21.93-.72 2.8-1.3 5.64-1.81 13.73-2.52 2.93-.26 6.69-.24 7.32.03.37.16-.21.22-2.48.26-3.46.06-7.7.44-12.16 1.07-2.3.34-3.03.52-5.44 1.37l-1.64.55-.25-.04zm-16.11-2.86c-.3-.16-.03-.52.51-.66.57-.15.87-.16 1.26-.03.26.08.25.1-.3.43-.6.36-1.1.45-1.47.26zm16 .02c-.18-.13.37-.4 1.68-.81a38.06 38.06 0 0 1 10.51-1.57c2.46-.07 5.14.1 4.85.3-.04.03-.91.07-1.94.1-3.17.06-6.32.3-9 .68-1.6.23-2.49.42-4.19.91-1.58.46-1.76.5-1.9.4zm-7.58-.74c-.15-.12-.1-.17.37-.37.6-.26 1.1-.3 1.34-.1.12.1.05.17-.41.36-.64.28-1.05.31-1.3.11zm4.7-.3c-.27-.13 0-.32.87-.57l.71-.22.38.17.39.16-.34.18c-.61.34-1.64.48-2.01.29zm5.35-1.67c-.48-.15-.3-.34.49-.5a4.3 4.3 0 0 1 1.96-.04c.27.14-.11.38-.83.53a3.3 3.3 0 0 1-1.62 0zm-4.69-.6-.43-.16.3-.15a4.27 4.27 0 0 1 1.39-.34c.12 0 .39.06.6.13l.36.13-.67.28c-.37.15-.77.27-.9.27a2.6 2.6 0 0 1-.65-.16zm18.32 21.22c2.25-.16 4.15-.79 5.18-1.72.84-.75 1.04-1.3.94-2.54-.1-1.37-.27-1.58-1.25-1.58-.45 0-1.36.17-1.35.25l.37 1.1c.67 1.86.68 1.74-.04 2.02-.8.31-1.75.4-2.35.2-.35-.11-.43-.21-.6-.73a7.66 7.66 0 0 0-1-1.88c-.19-.22-.54-.2-2.36.15-2.69.51-7.7 1.75-7.88 1.94-.18.2 1.56 1.33 2.8 1.83 1.25.49 2.6.76 4.57.92 1.37.11 1.8.12 2.97.04zm25.01-2.05c.17-.78 0-1.09-.76-1.42a5.48 5.48 0 0 0-1.28-.35 24.54 24.54 0 0 0-4.14-.06l-.7.1 1.01.22c2.01.44 4.3 1.22 5.18 1.78.2.13.42.23.48.23.05 0 .15-.22.21-.5zm-33.24-2.08c4.7-1 9.56-1.88 11.75-2.11 1.65-.18 2.03-.28 2.03-.53 0-.31-.15-.41-.64-.41-.68 0-1.14-.3-2.32-1.54-1.26-1.33-1.4-1.45-2.4-2.05a9.05 9.05 0 0 0-2.3-1.07c-.36-.08-.65-.03-3.92.66a59.41 59.41 0 0 0-6.5 1.64c-.76.28-.88 2.43-.22 3.9.28.62.82 1.4 1.4 2.03l.17.19.6-.16c.33-.1 1.4-.34 2.35-.55zm2.91-1.91c-.23-.16 1.25-.52 4.44-1.07 1.3-.23 1.71-.28 2.04-.23.86.13.2.44-1.33.6-.5.06-1.6.24-2.44.4-1.67.34-2.52.43-2.7.3zm21.58 1.69c.62-.4.78-.94.57-1.87-.1-.43-.25-.81-.33-.85a4.14 4.14 0 0 0-1.5.16c-.05.03.02.42.15.85s.24.96.24 1.17c0 .44-.12.5-1.27.56l-.91.08c-.52.07.26.15 1.44.15h1.2l.4-.25zm-5.28.08c.7-.02 1.13-.07 1.13-.12 0-.04-.18-.43-.4-.87-.35-.73-.72-1.18-.95-1.18-.33 0-2.1.23-2.6.34-.59.13-.6.15-.5.38.08.2.36 1.27.38 1.5 0 .03.71.02 2.94-.05zm-1.76-2.57c2.2-.3 4.93-.6 6.47-.69 1.38-.08 1.9-.2 1.9-.45 0-.17-.6-.4-1.02-.41-.78 0-1.2-.16-1.64-.6-.88-.88-2.07-1.63-4.6-2.9l-1.55-.79h-1.35c-2.58 0-7.46.29-7.87.46-.08.04.19.24.64.49 1.92 1.05 3.86 2.55 4.65 3.6.5.65.32.64 2.68.2a29.6 29.6 0 0 1 3.8-.46c.23 0 .54.05.71.1.3.1.3.1 0 .23-.3.12-3.28.55-4.53.65-.84.07-.94.17-.53.53.2.17.43.3.51.28l1.73-.24zm112.96 83.16c-4.83-.08-7.45-.19-7.94-.33-1.82-.53-2.32-1.48-1.22-2.31.52-.4.64-.71.85-2.31.39-2.85 1.71-5.12 3.53-6.05 1.22-.62 3.42-1.1 5.82-1.25l1.89-.12v-.71c.02-1.11.86-4.25 1.31-4.86.22-.3.7-.66 1.08-.8.66-.24.67-.25 1.1-3.37.4-3.08.4-3.14-.06-3.48a6.53 6.53 0 0 1-1.92-3.28c-.1-.81-.16-.89-.91-1.08-1.13-.29-3.1-1.86-3.77-3l-.55-.96h-1.57c-1.96 0-3.1-.38-4.9-1.64-1.76-1.24-2.75-2.73-2.93-4.43-.08-.71-.2-1.3-.29-1.3-.73 0-3.04.85-3.93 1.45-.6.4-1.7 1.02-2.42 1.35a36.9 36.9 0 0 0-3.79 2.3c-2.97 2.04-3.8 2.36-6.12 2.36-1.33 0-2.01-.1-3.07-.45a9.87 9.87 0 0 1-4.54-3.18c-.62-.89-.7-1.18-.7-2.63 0-1.52.06-1.72.84-2.79.45-.63 1.59-1.73 2.51-2.44 2.66-2.04 2.7-2.43.43-4.13-2-1.5-2.38-2.74-1.32-4.18.53-.71 2.21-1.63 3.44-1.87 1.55-.3 2.66-.08 3.6.75.66.57.76.8.82 1.87.07 1.38.5 1.85 1.96 2.2 1.1.25 2.44.1 4.7-.52 1.58-.43 6.5-1.48 9.67-2.06a2.6 2.6 0 0 0 1.65-.87c1.08-1.14 4.18-2.35 6.82-2.65.5-.06.85-.18.77-.27-.32-.37.24-.9 1.32-1.23 1.53-.48 3.83-.47 5.73.04.78.21 1.48.34 1.56.28.07-.05.26-.54.42-1.08.27-.96.3-1 1.12-1.05.47-.03.91-.13.99-.22.24-.28 2.88-.5 7.22-.61l4.18-.1-2.66-2.5c-3.4-3.2-4.68-4.94-4.8-6.54-.26-3.15 2.98-5.4 7.3-5.05l1.42.1.76-.73c.42-.4 1.16-1.3 1.65-2.01.87-1.27.88-1.3.82-3.3-.06-2.19.18-2.8 1.32-3.32 1.58-.73 4.51.6 4.5 2.02 0 .22-.27.81-.6 1.31-.34.5-.61.95-.61.99 0 .04.42.07.93.07 3.47 0 8.72 1.35 12.17 3.13l1.5.78.7-.52a9.65 9.65 0 0 1 3.34-1.35c1.58-.32 3.28.7 2.99 1.8-.29 1.06-2.15 1.95-5.21 2.5-.57.1-1.04.24-1.04.32 0 .08-.22 1.02-.48 2.1a20.32 20.32 0 0 0-.5 2.34c0 .23.44.75 1 1.2 1.38 1.09 2.38 2.36 2.57 3.25.41 1.94-1.33 3.35-6.37 5.15l-1.83.66 2.74.72c3.74.97 5.56 1.56 5.56 1.79 0 .1.45.32 1 .48l.98.29-.08.97-.07.97.98.2c2.6.56 5.6 2.06 8.02 4 2.58 2.08 3.57 3.98 3.57 6.83 0 3.71-2.46 7.34-6.32 9.32l-1.67.85.11 1.5c.16 2.05-.42 3.17-2.38 4.52-1.74 1.2-3.36 1.6-5.77 1.45-1.58-.1-3.76-.65-4.26-1.07-.43-.37-.7-.29-.7.22 0 .78-.96 1.9-2.1 2.48-.97.48-1.07.6-.96 1.07.14.58.6 2.86.6 3.03.01.06.36.2.78.33 1.12.33 1.66 1.35 2.11 4.01l.39 2.25 2.35.19c2.97.23 4.54.7 5.98 1.78a7.1 7.1 0 0 1 2.8 5.78c0 1.1.09 1.32.63 1.78.5.42.61.66.55 1.3-.06.72-.15.82-.94 1.1-1.22.41-7.82.63-18.97.63-8.53 0-8.87 0-9.34-.34-.76-.53-.67-1.61.2-2.21.65-.46.67-.53.49-1.57-.1-.6-.26-3.18-.35-5.72-.17-4.91-.02-6.1.88-7.32.4-.53.47-.86.36-1.55-.28-1.74.12-1.57-3.95-1.6-3.13-.01-5.93-.22-7.01-.5-.23-.07-.38.27-.54 1.26-.22 1.33-.22 1.36.42 1.8 1.15.8 1.28 1.68 1.1 7.56a61.97 61.97 0 0 1-.38 6.21c-.22.86-.2.92.49 1.4.8.57.98 1.58.37 2.17-.33.31-.7.33-6.53.35-3.4 0-9.43-.04-13.4-.1zm18.19-5.01c.1-1.16.12-4.07.07-6.47-.11-4.98-.26-5.54-1.67-6.02-1.26-.44-6.1-.88-8.48-.78-2.47.1-2.8.28-3.31 1.72-.47 1.32-.96 4.01-.77 4.23.08.1.45.17.82.17 1.31 0 4.67.86 4.67 1.2a13 13 0 0 1-2.26-.3c-3.05-.55-7.19-.5-9.16.11a7.46 7.46 0 0 0-3.7 2.64c-.51.76-1.14 2.86-1.31 4.38l-.1.92 7.1-.1a254 254 0 0 1 17.65.37c.19.02.33-.65.45-2.07zm-8-.03c-.21-2.02-1.01-3.2-2.7-4-1.54-.71-2.48-.9-5.35-1.02a10 10 0 0 1-2.39-.24c0-.08 1.1-.15 2.44-.15 5.27 0 8.41 1.54 8.71 4.27.06.52-.04 1.34-.23 1.8l-.33.86zm5.06-2.5c-.88-.24-1.16-.67-1.28-1.95-.26-2.85 1.76-4.78 3.2-3.04.69.81.7 3.1.03 4.04-.57.8-1.26 1.14-1.95.95zm22.11 4.28c2.75-.1 7.73-.12 11.05-.06l6.05.12-.01-.67a12.05 12.05 0 0 0-1.23-4.26 7.15 7.15 0 0 0-3.96-3.03c-1.12-.35-1.64-.4-4.33-.4-2.15 0-3.48.09-4.52.3l-2.07.39-.61.1.55-.34c.58-.36 2.92-.95 4.52-1.15.87-.1.92-.14.8-.65l-.52-2.25c-.22-.94-.56-2-.76-2.35-.32-.56-.48-.64-1.48-.75-1.55-.16-6.48.04-8.2.33-1.83.32-2.74.92-3.08 2.03-.29.94-.34 7.4-.1 10.8l.16 2.2 1.37-.1c.75-.05 3.62-.17 6.37-.26zm-.32-.6a5.6 5.6 0 0 1-.34-1.47c-.25-2.11 1.05-3.68 3.84-4.59 1.16-.38 1.74-.45 4.33-.5 3.67-.08 4.07.22.48.36-3.05.12-4.84.55-6.1 1.45-1.22.88-1.67 1.75-1.86 3.55-.1 1.05-.22 1.44-.35 1.2zm-6-3.97c-1.1-.77-1.52-2.56-.98-4.08.56-1.55 1.96-1.7 2.94-.3.8 1.14.84 3.55.06 4.27-.7.66-1.19.69-2.02.1zm1.5-10.68c1.19-.24 2.8-.4 4.89-.46 2.72-.08 3.1-.12 3-.36-.06-.16-.18-.82-.28-1.48a6.8 6.8 0 0 0-.25-1.3c-.04-.06-1.1.14-2.35.45-1.24.3-3.36.73-4.7.95-1.35.22-2.48.41-2.52.43-.11.05.24 2.12.35 2.12l1.86-.35zm-15.85-.61c.33-1.68.26-1.87-.8-2.1a41.4 41.4 0 0 1-6.48-2.31 8.94 8.94 0 0 0-1.26-.57 28 28 0 0 0-.44 2l-.52 2.5-.12.54 3.12.1c1.71.06 3.72.22 4.46.35 1.92.35 1.87.36 2.04-.51zm15.21-2.21c5.64-.79 8.83-1.73 9.96-2.95.7-.76 3.19-7.26 5.23-13.7l.23-.71-.84.24c-1.2.36-4.26.77-5.63.77-1.81 0-1.86-.06-1.53-1.73.16-.79.36-2.78.45-4.43l.16-3 2.95-.19c3.7-.24 6.59-.8 6.79-1.33.16-.42.2-3.53.04-3.53l-3.11.51c-8.5 1.45-17.25 1.06-26.66-1.18l-2.8-.66.25.62c.31.8.08 2.43-.45 3.15-1.18 1.61-2.46 2.24-6.32 3.14l-2.44.56-.16 2.02a31.1 31.1 0 0 1-.82 4.43c-1.4 5.15-1.64 6.39-1.67 8.3-.04 2.35.32 3.26 1.92 4.78 3.43 3.26 12.35 5.7 19.65 5.38 1.01-.04 3.17-.27 4.8-.5zm20.45-4.57c1.34-.28 3.37-1.7 3.76-2.64.34-.8.4-2.77.08-3.12-.17-.2-.3-.19-.79.03-.32.14-1.16.4-1.88.56-1.13.25-1.28.34-1.16.65.07.2.14.46.14.58 0 .11.16.21.35.21.46 0 1.78.8 1.56.94-.08.06-.38.03-.65-.07-.83-.31-1.36-.2-1.82.35-.54.67-.7.59-.43-.23.18-.57.12-.97-.37-2.41-.14-.4-.1-.48.27-.43 1.05.13 1.04-2.15-.02-3.71-.78-1.16-1.44-1.74-2.33-2.07-.57-.2-.74-.21-.8-.04-.06.12-.6 1.73-1.23 3.57a71.11 71.11 0 0 1-1.72 4.62c-.55 1.2-.56 1.3-.2 1.7 1.28 1.4 4.52 2.07 7.24 1.51zm2.7-6.38c1.04-.42 2.5-1.08 3.22-1.46 1.2-.63 1.31-.75 1.31-1.37 0-1.21-.9-2.56-2.4-3.6a6.86 6.86 0 0 0-4.35-1.36c-.82 0-1.21.14-2.6.98-1.42.84-1.6 1-1.24 1.16a6.67 6.67 0 0 1 2.96 2.44c.82 1.17.92 1.44.92 2.64 0 .74.06 1.34.13 1.34s.99-.35 2.04-.77zm-78.5-2.91c.56-.27 1.78-1.18 2.72-2.01a12.26 12.26 0 0 1 3.42-2.29c3.42-1.54 4.94-3 4.94-4.78 0-1.23-.53-2.14-2.13-3.62-1.53-1.42-2.26-1.64-5.9-1.78-3.44-.14-4.22-.35-5.12-1.43-.53-.64-.61-.92-.55-1.98.06-1.12 0-1.27-.52-1.56-1.22-.7-3.63-.25-4.93.92-1.22 1.1-.67 3.03 1.15 4 2.1 1.12 2.03 2.3-.23 4.35-3.11 2.82-3.75 3.82-3.5 5.51.3 1.97 2.08 3.69 4.88 4.68a6.7 6.7 0 0 0 3.25.55 5.49 5.49 0 0 0 2.52-.56zm-2.07-7.88c.3-1.5.44-1.78 1.47-2.7a7.15 7.15 0 0 1 4.32-1.83c.76 0 .72.04-.7.52-1.91.65-3.4 1.66-4.1 2.78-1.2 1.95-1.1 1.81-.99 1.23zm87.76 5.9c.87-1.18 1.24-2 1.6-3.61.14-.58.07-.68-.97-1.32a8.72 8.72 0 0 0-5.2-1.2c-2.5.1-3.71.6-4.6 1.86l-.73 1.02h1.13c3.04 0 6.11 2.19 6.53 4.64l.15.9.57-.5c.32-.27 1-1.08 1.52-1.78zm-16.7-1.6a12.8 12.8 0 0 0 1.55-.42c.32-.15 1.36-3.52 2.06-6.67.32-1.46.32-1.59-.04-1.48-1.08.33-4.3.77-6.32.87l-2.25.11-.01 2.76a23.54 23.54 0 0 1-.33 4.02l-.32 1.26 2.22-.1c1.22-.04 2.77-.2 3.44-.35zm-1.6-1.83c-.5-.38-.98-.95-1.07-1.27a1.45 1.45 0 0 0-.5-.78c-.8-.45-.12-1.43 1.1-1.62.54-.08.86-.29 1.17-.74.55-.83 1.52-.9 1.85-.12.14.33.5.61.98.77.82.28.82.3.45 2.06-.2 1-1.02 2.12-1.67 2.3-.84.22-1.43.07-2.3-.6zm6.93.02c1.98-1.28 2.24-2.43.68-3-1.31-.47-1.38-.41-1.94 1.69a26.94 26.94 0 0 0-.53 2.16c0 .25.37.07 1.8-.85zm-57.96-2.89c1.26-.42 1.8-1.54 1.67-3.46a4.3 4.3 0 0 0-.85-2.58c-.93-1.39-2.67-2.72-3.55-2.72-.34 0-2.25.38-4.25.85s-3.68.86-3.75.86c-.07 0 .58.27 1.46.6a7.31 7.31 0 0 1 3.9 2.9c1.22 1.78 1.4 3.3.57 4.82-.12.23 2.26-.4 4.8-1.27zm70.97.23a7.96 7.96 0 0 0-2.2-4.41c-1.03-1.05-1.07-1.07-2.06-1.03-2.58.12-5.38 1.43-6.4 3-.58.9-.6 1.55-.05 2.35l.42.62 1.35-.48a9.4 9.4 0 0 1 7.62.45 7.2 7.2 0 0 0 1.27.6c.12 0 .14-.48.05-1.1zm-65.96-1.43 2.93-.65.42-.76c1.2-2.2-.15-5.49-2.87-6.94l-.85-.46-3.18.48-3.18.48.86.5a6.22 6.22 0 0 1 3.3 5.39c0 .73-.16 1.62-.34 1.97-.18.36-.26.65-.17.64.08 0 1.47-.3 3.08-.65zm55.03-1.51c.97-1.3 3.95-2.79 5.66-2.8 1.4-.01 1.33-.27-.32-1.22-2.74-1.58-6.02-2.8-6.26-2.32-.05.11-.25.28-.43.37-.24.13-.4.97-.58 3a32.44 32.44 0 0 1-.46 3.6c-.12.42-.2.77-.17.77l.89.28.86.27.16-.65c.1-.35.39-.94.65-1.3zm-47.82.08c2.9-.55 2.9-.55 3.34-1.24.32-.5.44-1.1.44-2.23 0-1.34-.1-1.67-.66-2.42a6.25 6.25 0 0 0-2.67-2.23c-.65-.23-.97-.22-3.45.11-1.51.2-2.9.4-3.08.44-.22.05 0 .32.7.85 2.22 1.7 3.24 4.48 2.37 6.45-.22.48-.27.82-.12.82.13 0 1.54-.25 3.13-.55zm5.9-1.15c2.78-.67 4.49-1.56 5.1-2.67a5.1 5.1 0 0 0-.01-3.25c-.32-.67-1.67-1.57-2.6-1.74-.68-.12-5.85.04-6.97.21l-.66.1 1.02.55a5.9 5.9 0 0 1 1.94 1.8c.81 1.1.92 1.38.92 2.5a5.4 5.4 0 0 1-.74 2.76c0 .14.73.05 2-.26zm31.07-4.04c2.9-.27 8.4-1.18 8.8-1.46.2-.15.7-2.22.56-2.33-.04-.02-.8.14-1.68.36-2.13.54-4.83.89-8.7 1.12-6.9.41-15.01-.52-21.54-2.48-2.25-.68-6.93-2.52-7.76-3.05-.3-.2-.59-.32-.63-.28-.13.1-.9 2.33-.9 2.59 0 .3 1.88 1.1 2.94 1.25 1.14.17 2.58.7 2.97 1.08.96.96 9.73 2.93 14.85 3.33 2.24.18 8.53.1 11.1-.13zm-31.23-4.54a.58.58 0 0 0-.39-.17c-.12 0-.23.08-.23.17 0 .1.18.17.39.17.2 0 .3-.07.23-.17zm27.12-2.49c4.61-.94 9.35-2.7 10.79-4 1.41-1.3.96-2.72-1.44-4.5l-1.31-.99-1.78.22c-1.48.19-1.9.32-2.5.78-.9.7-2.73 1.27-4.07 1.3a2.55 2.55 0 0 1-1.78-.5c-1-.67-2.11-1.93-2.31-2.6-.13-.41-.39-.6-1.18-.85a25.73 25.73 0 0 1-4-2.33c-3.22-2.15-3.9-2.48-5.52-2.64-3.26-.31-6.1 1.48-6.1 3.85 0 1.83 1.26 3.53 5.64 7.62 3.3 3.08 4.1 3.7 5.64 4.29 2.8 1.06 5.88 1.17 9.92.35zm-5.64-.26c-4.84-.43-8.5-4.36-9.1-9.76-.17-1.57-.2-1.62-.79-1.63-1-.02-1.22-.06-1.22-.24 0-.1.37-.17.81-.17.44 0 1.38-.2 2.09-.45 1.47-.52 1.95-.4.92.21l-.7.42.7.72c3.34 3.43 11.68 5.91 18.02 5.36l1.41-.13-.16-.75c-.1-.5-.07-.76.1-.76.14 0 .26.13.26.3 0 .16.43.76.97 1.32 1 1.06 1.1 1.4.24.86-.29-.18-.57-.25-.68-.16l-1.22 1.05a20.92 20.92 0 0 1-6 3.22 16.2 16.2 0 0 1-5.65.59zm4.28-.71c.47-.1 1.18-.3 1.58-.44l.72-.26-.83-.48-.83-.49-.46.54c-.44.5-.51.52-1.68.43-1.76-.15-5.38-.95-5.9-1.3-.42-.3-.43-.35-.06-.96.2-.36.33-.69.27-.73a10.2 10.2 0 0 0-2.93-.14l-.63.1.47.65c.72 1 2.6 2.36 3.8 2.77 1.9.65 4.32.76 6.48.3zm.45-2.66c.56-.83 1.01-1.58 1.01-1.68 0-.1-.61-.25-1.36-.35l-1.36-.17-.71.98c-.69.95-1.2 1.39-1.2 1.01 0-.1.27-.57.6-1.03.34-.47.61-.9.61-.98 0-.07-.57-.3-1.28-.5l-1.28-.37L235 254c-.67.93-1.14 1.74-1.05 1.8a43.6 43.6 0 0 0 5.58 1.08c.56.02.75-.15 1.65-1.48zm2.63-4.52c.55-.18 1.2-.47 1.43-.65.4-.32.38-.34-.53-.67a38.38 38.38 0 0 0-5.77-1.22c-.4 0-.45.08-.32.52.2.67 1.55 2 2.35 2.3.7.27 1.39.2 2.84-.28zm3.26-2.84c1.34-.48 2.03-1.32 1.9-2.37-.18-1.6-1.87-2.61-4.01-2.4-1.7.16-2.03.35-2.04 1.18 0 .44-.22 1-.58 1.43-.58.7-.58.72-.12 1.24.98 1.14 3.1 1.53 4.85.92zm-2.87-1.8c-.69-.47-.17-1.33.8-1.33.66 0 1.1.31 1.1.77s-.44.77-1.1.77c-.28 0-.64-.09-.8-.2zm-3.6.4c1.04-.41 1.83-1.47 1.83-2.43.01-1.02-.74-1.83-2.2-2.35-2.02-.73-4.24-.18-5.17 1.3-.92 1.45-.04 2.96 2.12 3.66 1.1.36 2.24.3 3.43-.18zm-3.28-1.8c-.73-.62.32-1.58 1.4-1.29.6.17.76.97.25 1.33-.4.28-1.3.26-1.65-.04zm-18.47-13.19c-.85-.26-1.08-.55-1.08-1.4 0-.32-.06-.58-.13-.58s-.56.15-1.07.34c-1.25.45-2.75.6-3.4.36-1.03-.39-1.71-2.42-1.38-4.12.22-1.12.98-1.75 2.9-2.43a33.7 33.7 0 0 0 1.59-.58c.04-.03-.15-.26-.43-.52-1.01-.9-.5-1.63 2.19-3.08 3.76-2.02 6.04-2.27 8.2-.9.52.34.52.34.68 0 .3-.65 1.54-1.23 2.66-1.22 1.17 0 5.48.73 6.51 1.1 1.55.57 2 2 .87 2.72l-.6.37.59.34c1.3.76.96 1.45-2.16 4.28-1.69 1.53-2.89 2.05-4.46 1.93-.93-.08-1.06-.04-1.18.3-.34.94-4.38 2.77-6.93 3.15-1.66.24-2.43.23-3.37-.06zm5.2-1.24c2.35-.7 3.98-1.65 3.98-2.3 0-.22-.42-.84-.92-1.36l-.92-.95-1.1.34c-.6.18-1.88.37-2.84.41l-1.75.08-.73 1.14a8.1 8.1 0 0 0-.89 1.79c-.4 1.64 1.52 1.95 5.18.85zm-8.95-.9a7.77 7.77 0 0 0 4.04-2.16c.85-.93.86-.97.43-1.3-.25-.2-.5-.72-.57-1.23-.13-.87-.14-.89-.98-.93-1.33-.06-4.4 1.08-4.96 1.84-.61.83-.5 3.06.17 3.58.53.41.67.42 1.87.2zm17.12-2.43c.82-.4 4.36-3.66 4.36-4 0-.61-1.99-.86-4.69-.59-1.89.2-1.93.21-2.3.82-.2.35-.86.98-1.48 1.42l-1.12.8 1.48 1.07c1.35.97 1.55 1.05 2.25.96.42-.06 1.1-.28 1.5-.48zm-11.48-4.52a12.05 12.05 0 0 1 4.66-1.73c.82-.1.92-.16.92-.61 0-.66-1.11-1.45-2.27-1.6-1.04-.13-2.54.3-5.18 1.5-2.3 1.05-2.71 1.39-2.42 1.98.22.45 1.96 1.24 2.75 1.24.2 0 .89-.36 1.54-.78zm12.62-.94c2.35-.4 2.86-.56 3.23-1.04.6-.78-.75-1.45-4.09-2.04-3.27-.58-4.16-.45-4.8.68-.62 1.08-.54 1.5.33 1.63.4.06.98.34 1.28.6.68.6 1.3.63 4.05.17z"/></svg>