<svg xmlns="http://www.w3.org/2000/svg" fill="none" viewBox="0 0 348 348"><path d="M130.73 257.11v-12h12v-12h72v12h12v12zm-12-12v-72h12v12h12v48h-12v12zm108 0v-12h-12v-48h12v-12h12v72zm-96-72v-12h12v-12h72v12h12v12zm-12-12v-72h12v12h12v48h-12v12zm108 0v-12h-12v-48h12v-12h12v72zm-84-60v-12h-12v-12h96v12h-12v12z" aria-label="8" font-weight="400" font-size="192" font-family="Clandesdyne Pixelated Digital Clock" letter-spacing="1" word-spacing="1" stroke="#000"/><path stroke="#000" stroke-width="2" d="M5.079 5.416h336.913v337.67H5.08z"/><path stroke="#000" stroke-width="2" d="M282.374 40.554c0-8.376 6.966-15.165 15.56-15.165 4.126 0 8.084 1.597 11.001 4.441 2.918 2.844 4.558 6.702 4.558 10.724 0 8.376-6.966 15.165-15.56 15.165-8.593 0-15.559-6.79-15.559-15.165z"/><path opacity=".998" stroke="#000" stroke-width="2.444" d="M96.212 49.589h164.174v240.325H96.212z"/><g stroke="#000"><path opacity=".998" stroke-width="2.269" d="M5.235 118.233H53.72v1.812H5.235z" transform="matrix(1.20685 0 0 1 .336 -5.41)"/><path opacity=".998" fill="#000" fill-rule="evenodd" stroke-width="1.725" d="M51.427 114.418h27.999v1.812H51.427z" transform="matrix(1.20685 0 0 1 .336 -5.41)"/></g><g stroke="#000"><path opacity=".998" stroke-width="2.269" d="M5.21 132.285h48.485v1.812H5.21z" transform="matrix(1.20685 0 0 1 .336 -4.507)"/><path opacity=".998" fill="#000" fill-rule="evenodd" stroke-width="1.725" d="M51.402 128.467h27.999v1.812H51.402z" transform="matrix(1.20685 0 0 1 .336 -4.507)"/></g><g stroke="#000"><path opacity=".998" stroke-width="2.269" d="M5.26 88.18h48.485v1.812H5.26z" transform="matrix(1.20685 0 0 1 .336 -5.266)"/><path opacity=".998" fill="#000" fill-rule="evenodd" stroke-width="1.725" d="M51.451 84.366H79.45v1.812H51.451z" transform="matrix(1.20685 0 0 1 .336 -5.266)"/></g><g stroke="#000"><path opacity=".998" stroke-width="2.269" d="M5.235 102.233H53.72v1.812H5.235z" transform="matrix(1.20685 0 0 1 .336 -4.363)"/><path opacity=".998" fill="#000" fill-rule="evenodd" stroke-width="1.725" d="M51.427 98.415h27.999v1.812H51.427z" transform="matrix(1.20685 0 0 1 .336 -4.363)"/></g><g stroke="#000"><path opacity=".998" stroke-width="2.269" d="M5.235 118.233H53.72v1.812H5.235z" transform="matrix(1.20685 0 0 1 .336 -65.226)"/><path opacity=".998" fill="#000" fill-rule="evenodd" stroke-width="1.725" d="M51.427 114.418h27.999v1.812H51.427z" transform="matrix(1.20685 0 0 1 .336 -65.226)"/></g><g stroke="#000"><path opacity=".998" stroke-width="2.269" d="M5.21 132.285h48.485v1.812H5.21z" transform="matrix(1.20685 0 0 1 .336 -64.322)"/><path opacity=".998" fill="#000" fill-rule="evenodd" stroke-width="1.725" d="M51.402 128.467h27.999v1.812H51.402z" transform="matrix(1.20685 0 0 1 .336 -64.322)"/></g><g stroke="#000"><path opacity=".998" stroke-width="2.269" d="M5.235 118.233H53.72v1.812H5.235z" transform="matrix(1.20685 0 0 1 .276 54.404)"/><path opacity=".998" fill="#000" fill-rule="evenodd" stroke-width="1.725" d="M51.427 114.418h27.999v1.812H51.427z" transform="matrix(1.20685 0 0 1 .276 54.404)"/></g><g stroke="#000"><path opacity=".998" stroke-width="2.269" d="M5.21 132.285h48.485v1.812H5.21z" transform="matrix(1.20685 0 0 1 .276 55.308)"/><path opacity=".998" fill="#000" fill-rule="evenodd" stroke-width="1.725" d="M51.402 128.467h27.999v1.812H51.402z" transform="matrix(1.20685 0 0 1 .276 55.308)"/></g><g stroke="#000"><path opacity=".998" stroke-width="2.269" d="M5.26 88.18h48.485v1.812H5.26z" transform="matrix(1.20685 0 0 1 .276 54.55)"/><path opacity=".998" fill="#000" fill-rule="evenodd" stroke-width="1.725" d="M51.451 84.366H79.45v1.812H51.451z" transform="matrix(1.20685 0 0 1 .276 54.55)"/></g><g stroke="#000"><path opacity=".998" stroke-width="2.269" d="M5.235 102.233H53.72v1.812H5.235z" transform="matrix(1.20685 0 0 1 .276 55.452)"/><path opacity=".998" fill="#000" fill-rule="evenodd" stroke-width="1.725" d="M51.427 98.415h27.999v1.812H51.427z" transform="matrix(1.20685 0 0 1 .276 55.452)"/></g><g stroke="#000"><path opacity=".998" stroke-width="2.269" d="M5.235 118.233H53.72v1.812H5.235z" transform="matrix(1.20685 0 0 1 .366 144.127)"/><path opacity=".998" fill="#000" fill-rule="evenodd" stroke-width="1.725" d="M51.427 114.418h27.999v1.812H51.427z" transform="matrix(1.20685 0 0 1 .366 144.127)"/></g><g stroke="#000"><path opacity=".998" stroke-width="2.269" d="M5.21 132.285h48.485v1.812H5.21z" transform="matrix(1.20685 0 0 1 .366 145.03)"/><path opacity=".998" fill="#000" fill-rule="evenodd" stroke-width="1.725" d="M51.402 128.467h27.999v1.812H51.402z" transform="matrix(1.20685 0 0 1 .366 145.03)"/></g><g stroke="#000"><path opacity=".998" stroke-width="2.269" d="M5.26 88.18h48.485v1.812H5.26z" transform="matrix(1.20685 0 0 1 .366 144.272)"/><path opacity=".998" fill="#000" fill-rule="evenodd" stroke-width="1.725" d="M51.451 84.366H79.45v1.812H51.451z" transform="matrix(1.20685 0 0 1 .366 144.272)"/></g><g stroke="#000"><path opacity=".998" stroke-width="2.269" d="M5.235 102.233H53.72v1.812H5.235z" transform="matrix(1.20685 0 0 1 .366 145.175)"/><path opacity=".998" fill="#000" fill-rule="evenodd" stroke-width="1.725" d="M51.427 98.415h27.999v1.812H51.427z" transform="matrix(1.20685 0 0 1 .366 145.175)"/></g><g stroke="#000"><path opacity=".998" stroke-width="2.269" d="M5.235 118.233H53.72v1.812H5.235z" transform="matrix(1.20685 0 0 1 .366 84.312)"/><path opacity=".998" fill="#000" fill-rule="evenodd" stroke-width="1.725" d="M51.427 114.418h27.999v1.812H51.427z" transform="matrix(1.20685 0 0 1 .366 84.312)"/></g><g stroke="#000"><path opacity=".998" stroke-width="2.269" d="M5.21 132.285h48.485v1.812H5.21z" transform="matrix(1.20685 0 0 1 .366 85.215)"/><path opacity=".998" fill="#000" fill-rule="evenodd" stroke-width="1.725" d="M51.402 128.467h27.999v1.812H51.402z" transform="matrix(1.20685 0 0 1 .366 85.215)"/></g><g stroke="#000"><path opacity=".998" stroke-width="2.269" d="M5.26 88.18h48.485v1.812H5.26z" transform="matrix(1.20685 0 0 1 .43 204.087)"/><path opacity=".998" fill="#000" fill-rule="evenodd" stroke-width="1.725" d="M51.451 84.366H79.45v1.812H51.451z" transform="matrix(1.20685 0 0 1 .43 204.087)"/></g><g fill="#000" fill-rule="evenodd" stroke="#000"><path opacity=".998" stroke-width="1.725" d="M97.025 21.167v28h-1.812v-28z"/><path opacity=".998" stroke-width="1.48" d="M93.68 6.006v17.362h-2.155V6.006z"/></g><g fill="#000" fill-rule="evenodd" stroke="#000"><path opacity=".998" stroke-width="1.725" d="M115.214 21.167v28h-1.812v-28z"/><path opacity=".998" stroke-width="1.48" d="M111.868 6.006v17.362h-2.154V6.006z"/></g><g fill="#000" fill-rule="evenodd" stroke="#000"><path opacity=".998" stroke-width="1.725" d="M133.403 21.167v28h-1.812v-28z"/><path opacity=".998" stroke-width="1.48" d="M130.057 6.006v17.362h-2.154V6.006z"/></g><g fill="#000" fill-rule="evenodd" stroke="#000"><path opacity=".998" stroke-width="1.725" d="M151.591 21.167v28h-1.812v-28z"/><path opacity=".998" stroke-width="1.48" d="M148.245 6.006v17.362h-2.154V6.006z"/></g><g fill="#000" fill-rule="evenodd" stroke="#000"><path opacity=".998" stroke-width="1.725" d="M169.78 21.167v28h-1.812v-28z"/><path opacity=".998" stroke-width="1.48" d="M166.434 6.006v17.362h-2.154V6.006z"/></g><g fill="#000" fill-rule="evenodd" stroke="#000"><path opacity=".998" stroke-width="1.725" d="M187.969 21.167v28h-1.812v-28z"/><path opacity=".998" stroke-width="1.48" d="M184.623 6.006v17.362h-2.154V6.006z"/></g><g fill="#000" fill-rule="evenodd" stroke="#000"><path opacity=".998" stroke-width="1.725" d="M206.158 21.167v28h-1.812v-28z"/><path opacity=".998" stroke-width="1.48" d="M202.812 6.006v17.362h-2.154V6.006z"/></g><g fill="#000" fill-rule="evenodd" stroke="#000"><path opacity=".998" stroke-width="1.725" d="M224.346 21.167v28h-1.812v-28z"/><path opacity=".998" stroke-width="1.48" d="M221 6.006v17.362h-2.154V6.006z"/></g><g fill="#000" fill-rule="evenodd" stroke="#000"><path opacity=".998" stroke-width="1.725" d="M242.535 21.167v28h-1.812v-28z"/><path opacity=".998" stroke-width="1.48" d="M239.19 6.006v17.362h-2.155V6.006z"/></g><g fill="#000" fill-rule="evenodd" stroke="#000"><path opacity=".998" stroke-width="1.725" d="M260.724 21.167v28h-1.812v-28z"/><path opacity=".998" stroke-width="1.48" d="M257.378 6.006v17.362h-2.154V6.006z"/></g><g fill="#000" fill-rule="evenodd" stroke="#000"><path opacity=".998" stroke-width="1.725" d="M51.427 114.418h27.999v1.812H51.427z" transform="matrix(0 1.19538 1 0 140.969 246.561)"/><path opacity=".998" stroke-width="1.48" d="M36.266 117.764h17.362v2.154H36.266z" transform="matrix(0 1.19538 1 0 140.969 246.561)"/></g><g fill="#000" fill-rule="evenodd" stroke="#000"><path opacity=".998" stroke-width="1.725" d="M51.427 114.418h27.999v1.812H51.427z" transform="matrix(0 1.19538 1 0 122.679 246.21)"/><path opacity=".998" stroke-width="1.48" d="M36.266 117.764h17.362v2.154H36.266z" transform="matrix(0 1.19538 1 0 122.679 246.21)"/></g><g fill="#000" fill-rule="evenodd" stroke="#000"><path opacity=".998" stroke-width="1.725" d="M51.427 114.418h27.999v1.812H51.427z" transform="matrix(0 1.19538 1 0 104.389 246.21)"/><path opacity=".998" stroke-width="1.48" d="M36.266 117.764h17.362v2.154H36.266z" transform="matrix(0 1.19538 1 0 104.389 246.21)"/></g><g fill="#000" fill-rule="evenodd" stroke="#000"><path opacity=".998" stroke-width="1.725" d="M51.427 114.418h27.999v1.812H51.427z" transform="matrix(0 1.19538 1 0 86.099 246.21)"/><path opacity=".998" stroke-width="1.48" d="M36.266 117.764h17.362v2.154H36.266z" transform="matrix(0 1.19538 1 0 86.099 246.21)"/></g><g fill="#000" fill-rule="evenodd" stroke="#000"><path opacity=".998" stroke-width="1.725" d="M51.427 114.418h27.999v1.812H51.427z" transform="matrix(0 1.19538 1 0 67.809 246.21)"/><path opacity=".998" stroke-width="1.48" d="M36.266 117.764h17.362v2.154H36.266z" transform="matrix(0 1.19538 1 0 67.809 246.21)"/></g><g fill="#000" fill-rule="evenodd" stroke="#000"><path opacity=".998" stroke-width="1.725" d="M51.427 114.418h27.999v1.812H51.427z" transform="matrix(0 1.19538 1 0 49.519 246.21)"/><path opacity=".998" stroke-width="1.48" d="M36.266 117.764h17.362v2.154H36.266z" transform="matrix(0 1.19538 1 0 49.519 246.21)"/></g><g fill="#000" fill-rule="evenodd" stroke="#000"><path opacity=".998" stroke-width="1.725" d="M51.427 114.418h27.999v1.812H51.427z" transform="matrix(0 1.19538 1 0 31.229 246.21)"/><path opacity=".998" stroke-width="1.48" d="M36.266 117.764h17.362v2.154H36.266z" transform="matrix(0 1.19538 1 0 31.229 246.21)"/></g><g fill="#000" fill-rule="evenodd" stroke="#000"><path opacity=".998" stroke-width="1.725" d="M51.427 114.418h27.999v1.812H51.427z" transform="matrix(0 1.19538 1 0 12.939 246.21)"/><path opacity=".998" stroke-width="1.48" d="M36.266 117.764h17.362v2.154H36.266z" transform="matrix(0 1.19538 1 0 12.939 246.21)"/></g><g fill="#000" fill-rule="evenodd" stroke="#000"><path opacity=".998" stroke-width="1.725" d="M51.427 114.418h27.999v1.812H51.427z" transform="matrix(0 1.19538 1 0 -5.351 246.21)"/><path opacity=".998" stroke-width="1.48" d="M36.266 117.764h17.362v2.154H36.266z" transform="matrix(0 1.19538 1 0 -5.351 246.21)"/></g><g fill="#000" fill-rule="evenodd" stroke="#000"><path opacity=".998" stroke-width="1.725" d="M51.427 114.418h27.999v1.812H51.427z" transform="matrix(0 1.19538 1 0 -23.641 246.21)"/><path opacity=".998" stroke-width="1.48" d="M36.266 117.764h17.362v2.154H36.266z" transform="matrix(0 1.19538 1 0 -23.641 246.21)"/></g><g stroke="#000"><path opacity=".998" stroke-width="2.269" d="M5.235 118.233H53.72v1.812H5.235z" transform="matrix(-1.07703 0 0 1 346.41 -3.95)"/><path opacity=".998" fill="#000" fill-rule="evenodd" stroke-width="1.725" d="M51.427 114.418h27.999v1.812H51.427z" transform="matrix(-1.07703 0 0 1 346.41 -3.95)"/></g><g stroke="#000"><path opacity=".998" stroke-width="2.269" d="M5.21 132.285h48.485v1.812H5.21z" transform="matrix(-1.07703 0 0 1 346.41 -3.047)"/><path opacity=".998" fill="#000" fill-rule="evenodd" stroke-width="1.725" d="M51.402 128.467h27.999v1.812H51.402z" transform="matrix(-1.07703 0 0 1 346.41 -3.047)"/></g><g stroke="#000"><path opacity=".998" stroke-width="2.269" d="M5.26 88.18h48.485v1.812H5.26z" transform="matrix(-1.07703 0 0 1 346.41 -3.805)"/><path opacity=".998" fill="#000" fill-rule="evenodd" stroke-width="1.725" d="M51.451 84.366H79.45v1.812H51.451z" transform="matrix(-1.07703 0 0 1 346.41 -3.805)"/></g><g stroke="#000"><path opacity=".998" stroke-width="2.269" d="M5.235 102.233H53.72v1.812H5.235z" transform="matrix(-1.07703 0 0 1 346.41 -2.902)"/><path opacity=".998" fill="#000" fill-rule="evenodd" stroke-width="1.725" d="M51.427 98.415h27.999v1.812H51.427z" transform="matrix(-1.07703 0 0 1 346.41 -2.902)"/></g><g stroke="#000"><path opacity=".998" stroke-width="2.269" d="M5.21 132.285h48.485v1.812H5.21z" transform="matrix(-1.07703 0 0 1 346.41 -62.862)"/><path opacity=".998" fill="#000" fill-rule="evenodd" stroke-width="1.725" d="M51.402 128.467h27.999v1.812H51.402z" transform="matrix(-1.07703 0 0 1 346.41 -62.862)"/></g><g stroke="#000"><path opacity=".998" stroke-width="2.269" d="M5.235 118.233H53.72v1.812H5.235z" transform="matrix(-1.07703 0 0 1 346.464 55.865)"/><path opacity=".998" fill="#000" fill-rule="evenodd" stroke-width="1.725" d="M51.427 114.418h27.999v1.812H51.427z" transform="matrix(-1.07703 0 0 1 346.464 55.865)"/></g><g stroke="#000"><path opacity=".998" stroke-width="2.269" d="M5.21 132.285h48.485v1.812H5.21z" transform="matrix(-1.07703 0 0 1 346.464 56.768)"/><path opacity=".998" fill="#000" fill-rule="evenodd" stroke-width="1.725" d="M51.402 128.467h27.999v1.812H51.402z" transform="matrix(-1.07703 0 0 1 346.464 56.768)"/></g><g stroke="#000"><path opacity=".998" stroke-width="2.269" d="M5.26 88.18h48.485v1.812H5.26z" transform="matrix(-1.07703 0 0 1 346.464 56.01)"/><path opacity=".998" fill="#000" fill-rule="evenodd" stroke-width="1.725" d="M51.451 84.366H79.45v1.812H51.451z" transform="matrix(-1.07703 0 0 1 346.464 56.01)"/></g><g stroke="#000"><path opacity=".998" stroke-width="2.269" d="M5.235 102.233H53.72v1.812H5.235z" transform="matrix(-1.07703 0 0 1 346.464 56.913)"/><path opacity=".998" fill="#000" fill-rule="evenodd" stroke-width="1.725" d="M51.427 98.415h27.999v1.812H51.427z" transform="matrix(-1.07703 0 0 1 346.464 56.913)"/></g><g stroke="#000"><path opacity=".998" stroke-width="2.269" d="M5.235 118.233H53.72v1.812H5.235z" transform="matrix(-1.07703 0 0 1 346.384 145.588)"/><path opacity=".998" fill="#000" fill-rule="evenodd" stroke-width="1.725" d="M51.427 114.418h27.999v1.812H51.427z" transform="matrix(-1.07703 0 0 1 346.384 145.588)"/></g><g stroke="#000"><path opacity=".998" stroke-width="2.269" d="M5.21 132.285h48.485v1.812H5.21z" transform="matrix(-1.07703 0 0 1 346.384 146.49)"/><path opacity=".998" fill="#000" fill-rule="evenodd" stroke-width="1.725" d="M51.402 128.467h27.999v1.812H51.402z" transform="matrix(-1.07703 0 0 1 346.384 146.49)"/></g><g stroke="#000"><path opacity=".998" stroke-width="2.269" d="M5.26 88.18h48.485v1.812H5.26z" transform="matrix(-1.07703 0 0 1 346.384 145.732)"/><path opacity=".998" fill="#000" fill-rule="evenodd" stroke-width="1.725" d="M51.451 84.366H79.45v1.812H51.451z" transform="matrix(-1.07703 0 0 1 346.384 145.732)"/></g><g stroke="#000"><path opacity=".998" stroke-width="2.269" d="M5.235 102.233H53.72v1.812H5.235z" transform="matrix(-1.07703 0 0 1 346.384 146.636)"/><path opacity=".998" fill="#000" fill-rule="evenodd" stroke-width="1.725" d="M51.427 98.415h27.999v1.812H51.427z" transform="matrix(-1.07703 0 0 1 346.384 146.636)"/></g><g stroke="#000"><path opacity=".998" stroke-width="2.269" d="M5.235 118.233H53.72v1.812H5.235z" transform="matrix(-1.07703 0 0 1 346.384 85.773)"/><path opacity=".998" fill="#000" fill-rule="evenodd" stroke-width="1.725" d="M51.427 114.418h27.999v1.812H51.427z" transform="matrix(-1.07703 0 0 1 346.384 85.773)"/></g><g stroke="#000"><path opacity=".998" stroke-width="2.269" d="M5.21 132.285h48.485v1.812H5.21z" transform="matrix(-1.07703 0 0 1 346.384 86.676)"/><path opacity=".998" fill="#000" fill-rule="evenodd" stroke-width="1.725" d="M51.402 128.467h27.999v1.812H51.402z" transform="matrix(-1.07703 0 0 1 346.384 86.676)"/></g><g stroke="#000"><path opacity=".998" stroke-width="2.269" d="M5.26 88.18h48.485v1.812H5.26z" transform="matrix(-1.07703 0 0 1 345.957 205.547)"/><path opacity=".998" fill="#000" fill-rule="evenodd" stroke-width="1.725" d="M51.451 84.366H79.45v1.812H51.451z" transform="matrix(-1.07703 0 0 1 345.957 205.547)"/></g><g style="line-height:1;-inkscape-font-specification:'Clandesdyne Pixelated Digital Clock, Normal';font-variant-ligatures:normal;font-variant-caps:normal;font-variant-numeric:normal;font-variant-east-asian:normal" aria-label="sporadic" font-weight="400" font-size="26.667" font-family="Clandesdyne Pixelated Digital Clock" letter-spacing="1" word-spacing="1" fill="#000"><path d="M141.599 69.854v-.833h.833v-.833h5v.833h.833v.833zm6.666-.833v-.833h-.833v-3.334h.833v-.833h.834v5zm-6.666-5v-.833h.833v-.834h5v.834h.833v.833zm-.834-.833v-5h.834v.833h.833v3.333h-.833v.834zm1.667-4.167v-.833h-.833v-.834h6.666v.834h-.833v.833zM150.432 69.021v-5h.833v.833h.834v3.334h-.834v.833zm.833-5v-.833h.834v-.834h5v.834h.833v.833zm-.833-.833v-5h.833v.833h.834v3.333h-.834v.834zm7.5 0v-.834h-.833v-3.333h.833v-.833h.833v5zM152.1 59.02v-.833h-.834v-.834h6.667v.834h-.833v.833zM160.932 69.854v-.833h.833v-.833h5v.833h.834v.833zm-.833-.833v-5h.833v.833h.833v3.334h-.833v.833zm7.5 0v-.833h-.834v-3.334h.834v-.833h.833v5zm-7.5-5.833v-5h.833v.833h.833v3.333h-.833v.834zm7.5 0v-.834h-.834v-3.333h.834v-.833h.833v5zm-5.834-4.167v-.833h-.833v-.834h6.667v.834h-.834v.833zM176.432 69.021v-.833h-.833v-.834h-.834v-.833h.834v-.833h.833v.833h.833v.833h.834v1.667zm-6.667 0v-5h.834v.833h.833v3.334h-.833v.833zm.834-5v-.833h.833v-.834h5v.834h.833v.833zm-.834-.833v-5h.834v.833h.833v3.333h-.833v.834zm7.5 0v-.834h-.833v-3.333h.833v-.833h.834v5zm-5.833-4.167v-.833h-.833v-.834h6.666v.834h-.833v.833zM179.432 69.021v-5h.833v.833h.834v3.334h-.834v.833zm7.5 0v-.833h-.833v-3.334h.833v-.833h.833v5zm-6.667-5v-.833h.834v-.834h5v.834h.833v.833zm-.833-.833v-5h.833v.833h.834v3.333h-.834v.834zm7.5 0v-.834h-.833v-3.333h.833v-.833h.833v5zM181.1 59.02v-.833h-.834v-.834h6.667v.834h-.833v.833zM189.932 69.854v-.833h.833v-.833h3.334v.833h.833v.833zm-.833-.833v-5h.833v.833h.833v3.334h-.833v.833zm5.833 0v-2.5h.833v-1.667h.834v-.833h.833v3.333h-.833v1.667zm-5.833-5.833v-5h.833v.833h.833v3.333h-.833v.834zm7.5 0v-.834h-.834v-1.666h-.833v-2.5h1.667v1.666h.833v3.334zm-5.834-4.167v-.833h-.833v-.834h5v.834h-.833v.833zM202.932 69.021v-.833h-.833v-3.334h.833v-.833h.833v5zm0-5.833v-.834h-.833v-3.333h.833v-.833h.833v5zM209.265 69.854v-.833h.834v-.833h5v.833h.833v.833zm-.833-.833v-5h.833v.833h.834v3.334h-.834v.833zm0-5.833v-5h.833v.833h.834v3.333h-.834v.834zm1.667-4.167v-.833h-.834v-.834h6.667v.834h-.833v.833z"/></g><g style="line-height:1;-inkscape-font-specification:'Clandesdyne Pixelated Digital Clock, Normal';font-variant-ligatures:normal;font-variant-caps:normal;font-variant-numeric:normal;font-variant-east-asian:normal" aria-label="segments" font-weight="400" font-size="26.667" font-family="Clandesdyne Pixelated Digital Clock" letter-spacing="1" word-spacing="1" fill="#000"><path d="M140.777 280.145v-.833h.833v-.833h5v.833h.834v.833zm6.667-.833v-.833h-.834v-3.334h.834v-.833h.833v5zm-6.667-5v-.833h.833v-.834h5v.834h.834v.833zm-.833-.833v-5h.833v.833h.833v3.333h-.833v.834zm1.666-4.167v-.833h-.833v-.834h6.667v.834h-.834v.833zM150.444 280.145v-.833h.833v-.833h5v.833h.833v.833zm-.834-.833v-5h.834v.833h.833v3.334h-.833v.833zm.834-5v-.833h.833v-.834h5v.834h.833v.833zm-.834-.833v-5h.834v.833h.833v3.333h-.833v.834zm1.667-4.167v-.833h-.833v-.834h6.666v.834h-.833v.833zM160.11 280.145v-.833h.834v-.833h5v.833h.833v.833zm-.833-.833v-5h.833v.833h.834v3.334h-.834v.833zm7.5 0v-.833h-.833v-3.334h.833v-.833h.833v5zm-2.5-4.167v-.833h-.833v-.833h3.333v.833h-.833v.833zm-5-1.666v-5h.833v.833h.834v3.333h-.834v.834zm1.667-4.167v-.833h-.834v-.834h6.667v.834h-.833v.833zM168.944 279.312v-5h.833v.833h.833v3.334h-.833v.833zm7.5 0v-.833h-.834v-3.334h.834v-.833h.833v5zm-4.167-7.5v-.833h-.833v-.834h3.333v.834h-.833v.833zm-3.333 1.667v-5h.833v.833h.833v3.333h-.833v.834zm7.5 0v-.834h-.834v-3.333h.834v-.833h.833v5zm-5.834-4.167v-.833h-.833v-.834h2.5v.834h1.667v-.834h2.5v.834h-.834v.833zM179.444 280.145v-.833h.833v-.833h5v.833h.833v.833zm-.834-.833v-5h.834v.833h.833v3.334h-.833v.833zm.834-5v-.833h.833v-.834h5v.834h.833v.833zm-.834-.833v-5h.834v.833h.833v3.333h-.833v.834zm1.667-4.167v-.833h-.833v-.834h6.666v.834h-.833v.833zM188.277 279.312v-5h.833v.833h.834v3.334h-.834v.833zm7.5 0v-.833h-.833v-3.334h.833v-.833h.833v5zm-3.333-4.167v-.833h-.834v-.833h-.833v-1.667h1.667v.833h.833v.834h.833v1.666zm-4.167-1.666v-5h.833v.833h.834v3.333h-.834v.834zm7.5 0v-.834h-.833v-3.333h.833v-.833h.833v5zM202.11 279.312v-.833h-.833v-3.334h.833v-.833h.834v5zm-2.5-10v-.833h-.833v-.834h3.333v.834h-.833v.833zm2.5 4.167v-.834h-.833v-3.333h.833v-.833h.834v-.834h2.5v.834h-.834v.833h-1.666v4.167zM208.444 280.145v-.833h.833v-.833h5v.833h.833v.833zm6.666-.833v-.833h-.833v-3.334h.833v-.833h.834v5zm-6.666-5v-.833h.833v-.834h5v.834h.833v.833zm-.834-.833v-5h.834v.833h.833v3.333h-.833v.834zm1.667-4.167v-.833h-.833v-.834h6.666v.834h-.833v.833z"/></g></svg>