<svg version="1.1" id="Layer_1" xmlns="http://www.w3.org/2000/svg" x="0" y="0" viewBox="0 0 348 348" xml:space="preserve"><style>.st0,.st1{stroke:#000}.st0{stroke-width:2;fill:none}.st1{fill:#fff;stroke-miterlimit:10}</style><path class="st0" d="M5.1 5.8H342v337.7H5.1V5.8z"/><path class="st0" d="M282.7 40.6c0-8.4 7-15.2 15.6-15.2 4.1 0 8.1 1.6 11 4.4 2.9 2.8 4.6 6.7 4.6 10.7 0 8.4-7 15.2-15.6 15.2s-15.6-6.8-15.6-15.1z"/><circle class="st1" cx="29" cy="37.6" r="12.3"/><circle class="st1" cx="95.1" cy="37.6" r="12.3"/><circle class="st1" cx="162" cy="37.6" r="12.3"/><circle class="st1" cx="228.5" cy="37.6" r="12.3"/><circle class="st1" cx="62.2" cy="88.4" r="12.3"/><circle class="st1" cx="128.4" cy="88.4" r="12.3"/><circle class="st1" cx="195.2" cy="88.4" r="12.3"/><circle class="st1" cx="261.7" cy="88.4" r="12.3"/><circle class="st1" cx="28.6" cy="145" r="12.3"/><circle class="st1" cx="94.8" cy="145" r="12.3"/><circle class="st1" cx="161.6" cy="145" r="12.3"/><circle class="st1" cx="228.1" cy="145" r="12.3"/><circle class="st1" cx="62.2" cy="202.7" r="12.3"/><circle class="st1" cx="128.4" cy="202.7" r="12.3"/><circle class="st1" cx="195.2" cy="202.7" r="12.3"/><circle class="st1" cx="261.7" cy="202.7" r="12.3"/><circle class="st1" cx="28.6" cy="252.4" r="12.3"/><circle class="st1" cx="94.8" cy="252.4" r="12.3"/><circle class="st1" cx="161.6" cy="252.4" r="12.3"/><circle class="st1" cx="228.1" cy="252.4" r="12.3"/><circle class="st1" cx="62.2" cy="317.1" r="12.3"/><circle class="st1" cx="128.4" cy="317.1" r="12.3"/><circle class="st1" cx="195.2" cy="317.1" r="12.3"/><circle class="st1" cx="261.7" cy="317.1" r="12.3"/></svg>