<svg xmlns="http://www.w3.org/2000/svg" fill="none" viewBox="0 0 348 348"><path stroke="#000" stroke-width="2" d="M5.079 5.776h336.913v337.67H5.08z"/><path stroke="#000" stroke-width="2" d="M282.734 40.554c0-8.376 6.966-15.165 15.56-15.165 4.126 0 8.084 1.597 11.001 4.441 2.918 2.844 4.558 6.702 4.558 10.724 0 8.376-6.966 15.165-15.56 15.165-8.593 0-15.559-6.79-15.559-15.165z"/><path stroke="#000" d="M21.066 19.345h122.752v45.374H21.066zm127.006 0h122.752v45.374H148.072z"/><path fill="#333" d="M63.519 49.751q-1.973 0-3.418-.908-1.445-.918-2.226-2.539-.782-1.621-.782-3.75v-.234q0-2.149.782-3.76.79-1.621 2.158-2.53 1.367-.908 3.105-.908 1.66 0 2.813.381 1.162.381 1.982 1.026v2.87h-1.582l-.205-2.06q-.479-.312-1.172-.469-.693-.166-1.64-.166-1.221 0-2.198.703-.976.704-1.543 1.963-.566 1.25-.566 2.93v.254q0 1.7.517 2.969.528 1.26 1.534 1.963 1.005.693 2.441.693.977 0 1.65-.166.674-.176 1.192-.45v-3.34l-2.725-.097V42.71h4.649v5.508q-.616.576-1.768 1.055-1.142.478-2.998.478zm11.729 0q-1.465 0-2.53-.683-1.054-.694-1.63-1.905-.577-1.22-.577-2.783v-.215q0-1.562.576-2.773.577-1.22 1.631-1.914 1.065-.694 2.51-.694 1.465 0 2.52.694 1.064.693 1.64 1.904.576 1.211.576 2.783v.215q0 1.572-.576 2.793-.576 1.211-1.63 1.895-1.055.683-2.51.683zm0-1.504q.918 0 1.533-.498.625-.508.937-1.377.323-.879.323-1.992v-.215q0-1.113-.323-1.982-.312-.879-.937-1.377-.625-.508-1.553-.508-.918 0-1.543.508-.625.498-.937 1.377-.313.869-.313 1.982v.215q0 1.113.313 1.992.312.87.937 1.377.635.498 1.563.498zm9.814 1.504q-1.65 0-2.51-.8-.86-.811-.86-2.276 0-1.006.548-1.748.556-.752 1.601-1.162 1.045-.42 2.5-.42h1.885V42.31q0-.957-.586-1.485-.576-.527-1.63-.527-.665 0-1.153.166-.488.156-.889.44l-.205 1.474H82.28v-2.422q.713-.576 1.66-.869.947-.303 2.1-.303 1.923 0 3.017.918 1.094.918 1.094 2.627v5.488q.01.196.03.391l1.025.108v1.23H88.44q-.088-.43-.137-.771-.049-.342-.068-.684-.557.713-1.397 1.191-.83.47-1.777.47zm.283-1.611q.957 0 1.748-.46.791-.458 1.133-1.103v-1.914h-1.953q-1.328 0-1.992.635-.664.635-.664 1.416 0 .693.43 1.065.43.36 1.298.36zm7.256 1.406v-1.23l1.592-.274V35.825l-1.592-.273v-1.24h3.516v13.73l1.591.274v1.23zM181.015 49.751q-2.139 0-3.574-.937-1.426-.938-2.149-2.569-.713-1.63-.713-3.7v-.206q0-2.09.752-3.71.752-1.632 2.158-2.57 1.407-.937 3.36-.937 1.377 0 2.52.43 1.142.43 1.894 1.094v3.066h-1.533l-.205-2.246q-.313-.244-.723-.41-.4-.166-.899-.254-.488-.088-1.064-.088-1.396 0-2.363.723-.967.713-1.465 1.972-.498 1.26-.498 2.91v.225q0 1.787.527 3.057.537 1.26 1.553 1.924 1.025.664 2.49.664.684 0 1.338-.166t1.084-.43l.215-1.982h1.504v3.086q-.801.498-1.914.78-1.114.274-2.295.274zm5.859-.205v-1.23l1.592-.274V35.825l-1.592-.273v-1.24h3.516v6.074q.547-.762 1.338-1.182.79-.42 1.757-.42 1.7 0 2.637 1.016.938 1.016.938 3.125v5.117l1.592.274v1.23h-5.108v-1.23l1.592-.274v-5.136q0-1.31-.567-1.934-.556-.625-1.67-.625-.79 0-1.445.38-.644.372-1.064 1.016v6.3l1.592.273v1.23zm17.754.205q-1.465 0-2.549-.664-1.084-.674-1.68-1.865-.585-1.191-.585-2.754v-.43q0-1.504.615-2.685.625-1.192 1.65-1.875 1.035-.694 2.256-.694 1.426 0 2.383.586.967.586 1.455 1.65.488 1.055.488 2.491v1.201h-6.855l-.03.049q.02 1.016.352 1.807.342.78.977 1.23.634.45 1.523.45.977 0 1.71-.274.741-.283 1.278-.772l.752 1.25q-.566.547-1.504.928-.927.371-2.236.371zm-2.764-6.543h4.873v-.254q0-.761-.273-1.357-.264-.606-.8-.947-.528-.352-1.329-.352-.644 0-1.172.381-.527.371-.869 1.016-.342.644-.45 1.464zm13.457 6.543q-1.435 0-2.5-.664-1.064-.674-1.65-1.865-.586-1.191-.586-2.754v-.41q0-1.504.567-2.695.566-1.192 1.63-1.885 1.065-.694 2.54-.694 1.279 0 2.236.42.967.42 1.62 1.153l.05 2.539h-1.504l-.332-1.846q-.332-.342-.83-.547-.498-.205-1.172-.205-.86 0-1.514.508-.644.508-1.006 1.357-.361.85-.361 1.895v.41q0 1.152.332 2.002.342.85.967 1.318.635.46 1.504.46.976 0 1.62-.538.645-.537.792-1.474h1.728l.02.058q-.049.908-.537 1.7-.489.79-1.397 1.279-.898.478-2.217.478zm5.547-.205v-1.23l1.592-.274V35.825l-1.592-.273v-1.24h3.516v13.73l1.592.274v1.23zm6.787 0v-1.23l1.075-.127-.03-.04-3.056-3.945.996-1.533 4.267 5.41 1.524.235v1.23zm-3.408-3.056l-.713-1.514 4.59-4.57.049-.06-1.133-.126v-1.24h4.551v1.24l-1.357.254z"/><path stroke="#000" d="M86.985 114.064h32.005v45.374H86.985zm-52.261 105.31h44.969v45.374H34.724z"/><path fill="#333" d="M43.239 101.663q-1.299 0-2.5-.38-1.201-.382-2.295-1.173v-3.037h1.494l.322 2.237q.635.39 1.377.605.743.215 1.602.215.977 0 1.65-.293.684-.303 1.045-.83.362-.528.362-1.23 0-.655-.313-1.153-.312-.498-1.035-.87-.713-.38-1.953-.663-1.465-.342-2.48-.908-1.007-.577-1.534-1.387-.517-.82-.517-1.875 0-1.113.586-1.992.595-.88 1.65-1.387 1.055-.508 2.46-.508 1.495 0 2.638.46 1.152.448 1.894 1.093v2.842h-1.494l-.322-2.032q-.44-.351-1.094-.585-.654-.235-1.621-.235-.82 0-1.445.293-.625.283-.977.8-.352.518-.352 1.222 0 .615.313 1.074.322.459 1.035.81.723.342 1.924.645 2.246.557 3.398 1.65 1.162 1.084 1.162 2.686 0 1.142-.615 2.031-.615.879-1.738 1.377-1.113.498-2.627.498zm11.396 0q-1.464 0-2.548-.664-1.084-.674-1.68-1.865-.586-1.192-.586-2.754v-.43q0-1.504.615-2.685.625-1.192 1.65-1.875 1.036-.694 2.256-.694 1.426 0 2.383.586.967.586 1.455 1.65.489 1.055.489 2.49v1.202h-6.856l-.03.049q.02 1.015.352 1.806.342.782.977 1.231.635.45 1.523.45.977 0 1.71-.274.742-.283 1.279-.772l.752 1.25q-.567.547-1.504.928-.928.371-2.237.371zm-2.763-6.543h4.873v-.254q0-.762-.274-1.357-.263-.606-.8-.947-.528-.352-1.329-.352-.644 0-1.171.38-.528.372-.87 1.016-.341.645-.449 1.465zm8.193 6.338v-1.23l1.592-.274V87.737l-1.592-.273v-1.24h3.516v13.73l1.592.274v1.23zm11.094.205q-1.465 0-2.549-.664-1.084-.674-1.68-1.865-.586-1.192-.586-2.754v-.43q0-1.504.616-2.685.625-1.192 1.65-1.875 1.035-.694 2.256-.694 1.426 0 2.383.586.967.586 1.455 1.65.488 1.055.488 2.49v1.202h-6.855l-.03.049q.02 1.015.352 1.806.342.782.976 1.231.635.45 1.524.45.976 0 1.709-.274.742-.283 1.28-.772l.751 1.25q-.566.547-1.504.928-.928.371-2.236.371zm-2.764-6.543h4.873v-.254q0-.762-.273-1.357-.264-.606-.801-.947-.527-.352-1.328-.352-.645 0-1.172.38-.527.372-.87 1.016-.34.645-.448 1.465zm13.457 6.543q-1.435 0-2.5-.664-1.064-.674-1.65-1.865-.586-1.192-.586-2.754v-.41q0-1.504.566-2.696.567-1.191 1.631-1.884 1.065-.694 2.54-.694 1.279 0 2.236.42.966.42 1.62 1.153l.05 2.539h-1.504l-.332-1.846q-.332-.342-.83-.547-.499-.205-1.172-.205-.86 0-1.514.508-.645.508-1.006 1.357-.361.85-.361 1.895v.41q0 1.152.332 2.002.342.85.967 1.318.634.46 1.503.46.977 0 1.622-.538.644-.537.79-1.475h1.73l.019.059q-.05.908-.537 1.7-.489.79-1.397 1.279-.898.478-2.217.478zm9.375-.039q-1.172 0-1.865-.684-.684-.693-.684-2.207v-6.416h-1.67v-1.425h1.67v-2.55h1.924v2.55h2.295v1.425h-2.295v6.416q0 .762.303 1.123.303.362.81.362.342 0 .762-.059.42-.068.655-.117l.263 1.26q-.42.127-1.035.224-.605.098-1.133.098zM44.935 207.975q-1.973 0-3.418-.908-1.445-.918-2.226-2.54-.782-1.62-.782-3.75v-.234q0-2.148.782-3.76.79-1.62 2.158-2.529 1.367-.908 3.105-.908 1.66 0 2.813.381 1.162.38 1.982 1.025v2.872h-1.582l-.205-2.061q-.479-.313-1.172-.469-.693-.166-1.64-.166-1.221 0-2.198.703-.976.703-1.543 1.963-.566 1.25-.566 2.93v.254q0 1.699.517 2.969.528 1.26 1.534 1.962 1.005.694 2.441.694.977 0 1.65-.166.674-.176 1.192-.45v-3.34l-2.725-.097v-1.416h4.649v5.508q-.616.576-1.768 1.055-1.142.478-2.998.478zm6.641-.205v-1.23l1.591-.274v-7.549l-1.591-.273v-1.24h3.31l.166 1.347.02.186q.449-.81 1.103-1.27.664-.459 1.514-.459.303 0 .615.059.322.049.46.098l-.255 1.787-1.338-.078q-.761-.05-1.279.351-.518.39-.8 1.055v5.986l1.591.274v1.23zm12.939.205q-1.465 0-2.53-.684-1.054-.693-1.63-1.904-.576-1.22-.576-2.783v-.215q0-1.562.576-2.773.576-1.221 1.63-1.914 1.065-.694 2.51-.694 1.465 0 2.52.694 1.065.693 1.64 1.904.577 1.21.577 2.783v.215q0 1.572-.576 2.793-.576 1.21-1.631 1.894-1.055.684-2.51.684zm0-1.504q.918 0 1.533-.498.625-.508.938-1.377.322-.879.322-1.992v-.215q0-1.113-.322-1.982-.313-.88-.938-1.377-.625-.508-1.552-.508-.918 0-1.543.508-.625.498-.938 1.377-.312.869-.312 1.982v.215q0 1.113.312 1.992.313.87.938 1.377.634.498 1.562.498zm10.85 1.504q-1.719 0-2.686-1.103-.967-1.104-.967-3.438v-4.717l-1.21-.273v-1.24h3.134v6.25q0 1.689.498 2.324.498.635 1.553.635 1.025 0 1.69-.41.673-.42 1.015-1.182v-6.104l-1.416-.273v-1.24h3.34v9.062l1.21.274v1.23h-2.939l-.127-1.563q-.498.85-1.289 1.31-.78.458-1.806.458zm7.217 3.858v-1.24l1.494-.274v-11.602l-1.592-.273v-1.24h3.242l.176 1.289q.527-.723 1.28-1.104.76-.38 1.757-.38 1.309 0 2.236.712.928.703 1.416 1.983.489 1.27.489 2.978v.205q0 1.524-.498 2.666-.489 1.143-1.407 1.787-.918.635-2.207.635-.976 0-1.719-.322-.732-.332-1.25-.977v3.643l1.68.273v1.24zm5.79-5.362q1.368 0 2.07-.996.704-.996.704-2.588v-.205q0-1.21-.313-2.129-.312-.928-.937-1.455-.615-.527-1.543-.527-.82 0-1.406.37-.586.372-.948 1.016v5.147q.362.654.938 1.016.586.351 1.436.351zm11.231 1.299v-1.23l1.592-.274v-11.201l-1.592-.274v-1.24h6.132q2.227 0 3.477.967 1.26.957 1.26 2.88 0 .948-.605 1.7-.596.742-1.582 1.104.859.175 1.474.693.615.508.948 1.25.341.732.341 1.611 0 1.953-1.27 2.989-1.269 1.025-3.437 1.025zm3.516-1.504h3.222q1.319 0 2.041-.644.733-.655.733-1.846 0-.84-.274-1.436-.263-.595-.82-.918-.547-.322-1.387-.322h-3.515zm0-6.67h3.115q1.035 0 1.67-.596.644-.605.644-1.64 0-1.152-.722-1.719-.723-.576-2.09-.576h-2.617zm11.621 12.442q-.225 0-.586-.059-.362-.049-.557-.098l.195-1.513q.166.02.46.029.292.02.4.02.615 0 .996-.47.39-.468.723-1.279l.459-1.113-3.74-8.955-1.133-.156v-1.24h4.433v1.24l-1.28.195 2.061 5.283.498 1.377h.059l2.441-6.66-1.347-.195v-1.24h4.345v1.24l-1.093.156-4.16 10.791q-.293.762-.713 1.357-.41.606-1.016.948-.596.341-1.445.341z"/><path stroke="#000" d="M26.719 114.064h57.123v45.374H26.719zm165.405 0h32.005v45.374h-32.005zm-60.266 0h57.123v45.374h-57.123zm163.295 0h32.005v45.374h-32.005zm-60.266 0h57.123v45.374h-57.123z"/></svg>