<svg xmlns="http://www.w3.org/2000/svg" width="348" height="348" fill="none"><path d="M5.08 5.78h336.91v337.67H5.08z" stroke-width="2" stroke="#000"/><path d="M282.73 40.55c0-8.37 6.97-15.16 15.56-15.16 4.13 0 8.09 1.6 11 4.44a14.97 14.97 0 0 1 4.56 10.72c0 8.38-6.96 15.17-15.56 15.17-8.59 0-15.56-6.8-15.56-15.17z" stroke-width="2" stroke="#000"/><path stroke="#000" d="M21.07 19.04h122.75v45.37H21.07zm127 .61h122.75v45.37H148.07z"/><g aria-label="Goal" style="white-space:pre" font-size="20" font-family="Roboto Slab" fill="#333"><path d="M70.4 47.95q-1.2.54-2.62.95-1.4.4-2.72.4-1.7 0-3.12-.47-1.41-.46-2.4-1.4-1.01-.95-1.56-2.37-.55-1.42-.55-3.33 0-3.48 2.03-5.5 2.05-2.01 5.6-2.01 1.24 0 2.53.3 1.3.3 2.8 1v2.3h-.18q-.3-.24-.88-.62-.58-.38-1.14-.63-.67-.3-1.53-.5-.85-.2-1.93-.2-2.44 0-3.87 1.57-1.42 1.56-1.42 4.24 0 2.82 1.49 4.4 1.48 1.55 4.04 1.55.94 0 1.87-.18.93-.19 1.64-.48V43.4h-3.9v-1.7h5.81zM82.92 43.57q0 2.67-1.37 4.21-1.36 1.54-3.66 1.54-2.31 0-3.68-1.54-1.36-1.54-1.36-4.2 0-2.68 1.36-4.22 1.37-1.55 3.68-1.55 2.3 0 3.66 1.55 1.37 1.54 1.37 4.21zm-1.9 0q0-2.12-.82-3.14-.83-1.04-2.3-1.04-1.5 0-2.33 1.04-.82 1.02-.82 3.14 0 2.05.83 3.12.83 1.05 2.31 1.05 1.47 0 2.3-1.04.84-1.06.84-3.13zM94.25 49.02h-1.83v-1.16l-.66.47q-.41.29-.8.47-.46.22-1.06.37-.6.15-1.4.15-1.47 0-2.5-.97-1.02-.98-1.02-2.5 0-1.23.53-2 .54-.77 1.52-1.2 1-.45 2.4-.6 1.4-.16 3-.24v-.28q0-.63-.23-1.04-.22-.4-.63-.64-.39-.22-.93-.3-.55-.08-1.15-.08-.72 0-1.6.2-.9.18-1.84.54h-.1v-1.86q.54-.15 1.55-.33 1.02-.17 2-.17 1.16 0 2 .2.86.18 1.49.64.61.45.94 1.16.32.71.32 1.77zm-1.83-2.69V43.3l-1.98.14q-1.13.1-1.8.29-.79.22-1.28.7-.48.47-.48 1.3 0 .94.56 1.42.57.46 1.73.46.97 0 1.77-.37.8-.38 1.48-.9zM99.66 49.02h-1.84v-15.2h1.84z" style="white-space:pre"/></g><g aria-label="Check" style="white-space:pre" font-size="20" font-family="Roboto Slab" fill="#333"><path d="m186.98 49.19-.97.43q-.43.21-1.14.43-.6.19-1.3.32-.69.13-1.53.13-1.58 0-2.88-.44-1.29-.44-2.24-1.4-.94-.92-1.47-2.35-.53-1.43-.53-3.33 0-1.8.51-3.2.5-1.42 1.47-2.4.92-.95 2.23-1.45 1.32-.5 2.92-.5 1.17 0 2.34.29 1.17.28 2.6 1V39h-.15q-1.2-1-2.39-1.47-1.18-.45-2.53-.45-1.1 0-1.99.36-.88.35-1.57 1.1-.67.73-1.05 1.86-.38 1.1-.38 2.57 0 1.54.41 2.64.42 1.1 1.08 1.8.68.72 1.6 1.07.9.34 1.92.34 1.4 0 2.62-.47 1.22-.48 2.29-1.44h.13zM198.71 50.24h-1.83v-6.21q0-.75-.1-1.4-.08-.67-.31-1.04-.25-.41-.7-.6-.47-.21-1.2-.21-.75 0-1.57.37-.82.37-1.57.95v8.14h-1.84v-15.2h1.84v5.5q.86-.71 1.77-1.11.92-.4 1.89-.4 1.77 0 2.7 1.06.92 1.07.92 3.07zM211.38 44.98h-8.04q0 1 .3 1.75t.83 1.22q.51.47 1.2.7.7.24 1.55.24 1.11 0 2.23-.44 1.14-.45 1.62-.88h.1v2q-.93.4-1.9.66-.97.26-2.03.26-2.72 0-4.24-1.46-1.52-1.48-1.52-4.18 0-2.68 1.45-4.25 1.47-1.57 3.85-1.57 2.2 0 3.4 1.29 1.2 1.29 1.2 3.66zm-1.79-1.41q0-1.45-.73-2.24-.71-.79-2.18-.79-1.47 0-2.35.87-.87.87-.99 2.16zM222.23 49.56q-.92.44-1.75.68-.82.24-1.75.24-1.18 0-2.17-.34-.98-.35-1.69-1.05-.7-.7-1.1-1.78-.39-1.07-.39-2.5 0-2.69 1.46-4.2 1.48-1.53 3.9-1.53.93 0 1.83.26.9.27 1.66.65v2.04h-.1q-.84-.66-1.74-1-.89-.36-1.74-.36-1.56 0-2.47 1.05-.9 1.05-.9 3.08 0 1.97.88 3.04.9 1.05 2.5 1.05.55 0 1.13-.14.57-.15 1.03-.38.4-.21.75-.43l.56-.4h.1zM234.5 50.24h-2.43l-4.37-4.78-1.2 1.14v3.64h-1.83v-15.2h1.84v9.75l5.3-5.46h2.31l-5.07 5.04z" style="white-space:pre"/></g><path stroke="#000" d="M104.72 104.12h44.97v45.37h-44.97zm74.95.4h44.97v45.37h-44.97zm74.14 0h44.97v45.37h-44.97zm-149.09 56.52h44.97v45.37h-44.97zm74.95.4h44.97v45.37h-44.97zm74.14 0h44.97v45.37h-44.97zm-149.09 57.93h44.97v45.37h-44.97zm74.95.41h44.97v45.37h-44.97zm74.14 0h44.97v45.37h-44.97zm-149.09 58.74h75.35v45.37h-75.35zm135.11-.2h75.35v45.37h-75.35z" style="fill:#fff"/><g aria-label="Where" style="white-space:pre" font-size="20" font-family="Roboto Slab" fill="#333"><path d="m56.6 173.23-3.77 14.54h-2.18l-3.06-12.07-2.99 12.07h-2.12l-3.85-14.54h1.98l3.06 12.09 3-12.1h1.97l3.04 12.22 3.03-12.21zM68.42 187.77H66.6v-6.21q0-.75-.09-1.4-.09-.67-.32-1.04-.25-.41-.7-.6-.46-.21-1.2-.21-.75 0-1.57.37-.82.37-1.57.95v8.14H59.3v-15.2h1.84v5.5q.86-.71 1.78-1.11.91-.4 1.88-.4 1.77 0 2.7 1.06.92 1.07.92 3.07zM81.09 182.5h-8.04q0 1.01.3 1.76t.84 1.22q.5.47 1.2.7.7.24 1.54.24 1.11 0 2.24-.44 1.13-.45 1.6-.88h.1v2q-.92.4-1.89.66-.97.26-2.03.26-2.72 0-4.24-1.46-1.52-1.48-1.52-4.18 0-2.68 1.45-4.25 1.47-1.57 3.85-1.57 2.2 0 3.4 1.29 1.2 1.29 1.2 3.66zm-1.79-1.4q0-1.45-.73-2.24-.71-.79-2.18-.79-1.47 0-2.35.87-.87.87-.99 2.16zM90.68 178.86h-.1q-.4-.1-.8-.13-.38-.05-.9-.05-.86 0-1.65.38-.79.37-1.52.97v7.74h-1.84v-10.9h1.84v1.6q1.1-.88 1.92-1.24.84-.37 1.71-.37.48 0 .7.03l.64.09zM101.56 182.5h-8.04q0 1.01.3 1.76t.83 1.22q.51.47 1.2.7.7.24 1.55.24 1.11 0 2.23-.44 1.14-.45 1.62-.88h.1v2q-.93.4-1.9.66-.97.26-2.03.26-2.72 0-4.24-1.46-1.52-1.48-1.52-4.18 0-2.68 1.45-4.25 1.47-1.57 3.85-1.57 2.2 0 3.4 1.29 1.2 1.29 1.2 3.66zm-1.79-1.4q0-1.45-.73-2.24-.71-.79-2.18-.79-1.47 0-2.35.87-.87.87-.99 2.16z" style="white-space:pre"/></g><g aria-label="Limit" style="white-space:pre" font-size="20" font-family="Roboto Slab" fill="#333"><path d="M50.1 305.66h-9.2v-14.54h1.93v12.82h7.26zM53.85 292.93h-2.07v-1.9h2.07zm-.12 12.73H51.9v-10.9h1.83zM73.23 305.66h-1.84v-6.21q0-.7-.07-1.36-.06-.65-.26-1.04-.23-.42-.65-.64-.42-.21-1.2-.21t-1.55.39q-.77.38-1.54.97l.05.53.02.59v6.98h-1.84v-6.21q0-.72-.07-1.37-.06-.65-.26-1.04-.23-.42-.65-.63-.42-.21-1.2-.21-.76 0-1.52.37-.75.37-1.5.95v8.14H57.3v-10.9h1.84v1.2q.85-.71 1.7-1.11.86-.4 1.83-.4 1.11 0 1.88.47.79.47 1.17 1.3 1.11-.94 2.03-1.35.92-.42 1.96-.42 1.8 0 2.65 1.1.86 1.08.86 3.03zM78.73 292.93h-2.07v-1.9h2.07zm-.11 12.73h-1.84v-10.9h1.84zM87.86 305.56q-.52.14-1.14.23-.6.08-1.08.08-1.67 0-2.54-.9-.87-.9-.87-2.87v-5.8H81v-1.55h1.24v-3.13h1.84v3.13h3.79v1.54h-3.8v4.98q0 .85.05 1.34.04.48.27.9.21.4.59.58.38.17 1.15.17.45 0 .94-.12.48-.14.7-.23h.1z" style="white-space:pre"/></g><g aria-label="Skip" style="white-space:pre" font-size="20" font-family="Roboto Slab" fill="#333"><path d="M201.36 302.32q0 .85-.4 1.68t-1.1 1.4q-.79.63-1.83.98t-2.5.35q-1.57 0-2.83-.29-1.25-.3-2.55-.87v-2.42h.14q1.1.92 2.54 1.42 1.45.5 2.72.5 1.8 0 2.8-.68 1-.67 1-1.8 0-.96-.48-1.42-.47-.46-1.44-.72-.73-.2-1.59-.32-.85-.12-1.8-.32-1.94-.41-2.88-1.4-.92-1-.92-2.58 0-1.83 1.54-3 1.54-1.16 3.92-1.16 1.53 0 2.8.29 1.29.3 2.27.72v2.29h-.13q-.83-.7-2.2-1.17-1.34-.46-2.75-.46-1.56 0-2.5.64t-.94 1.66q0 .9.47 1.43.47.51 1.65.79.62.13 1.77.33 1.16.2 1.96.4 1.62.43 2.44 1.3.82.87.82 2.43zM214.22 306.47h-2.42l-4.38-4.78-1.19 1.14v3.64h-1.83v-15.2h1.83v9.75l5.3-5.46h2.32l-5.07 5.04zM218.13 293.74h-2.07v-1.9h2.07zm-.12 12.73h-1.84v-10.9h1.84zM231.18 300.88q0 1.33-.38 2.44-.38 1.09-1.07 1.85-.65.72-1.52 1.12-.87.4-1.85.4-.85 0-1.54-.2-.69-.18-1.4-.57v4.57h-1.84v-14.93h1.84v1.14q.73-.61 1.64-1.02.92-.42 1.95-.42 1.98 0 3.07 1.5 1.1 1.48 1.1 4.12zm-1.9.05q0-1.97-.66-2.95-.68-.97-2.07-.97-.8 0-1.6.34t-1.53.9v6.18q.78.35 1.34.48.56.12 1.28.12 1.53 0 2.39-1.03.86-1.04.86-3.07z" style="white-space:pre"/></g><path style="fill:#fff;fill-opacity:1;stroke:#fff;stroke-width:1;stroke-linecap:square;stroke-linejoin:miter;stroke-miterlimit:4;stroke-dasharray:none;stroke-opacity:1;paint-order:normal" d="M99.576 96.192h216.878v56.826H99.576z"/><g aria-label="Select" style="font-size:20px;font-family:'Roboto Slab';white-space:pre;fill:#333" font-size="20"><path d="M49.84 97.31q0 .85-.4 1.68t-1.1 1.4q-.79.63-1.83.98t-2.5.35q-1.57 0-2.83-.29-1.25-.3-2.55-.87v-2.42h.14q1.1.92 2.54 1.42 1.45.5 2.72.5 1.8 0 2.8-.68 1-.67 1-1.8 0-.96-.48-1.42-.47-.46-1.44-.72-.73-.2-1.59-.32-.85-.12-1.8-.32-1.94-.41-2.88-1.4-.92-1-.92-2.58 0-1.83 1.54-3 1.54-1.16 3.92-1.16 1.53 0 2.8.29 1.29.3 2.27.72v2.29h-.13q-.83-.7-2.2-1.17-1.34-.46-2.75-.46-1.56 0-2.5.64t-.94 1.66q0 .9.47 1.43.47.51 1.65.79.62.13 1.77.33 1.16.2 1.96.4 1.62.43 2.44 1.3.82.87.82 2.43zM61.93 96.2h-8.04q0 1 .3 1.75t.84 1.22q.5.47 1.2.7.7.24 1.54.24 1.11 0 2.24-.44 1.13-.45 1.6-.88h.1v2q-.92.4-1.89.66-.97.26-2.03.26-2.72 0-4.24-1.46-1.52-1.48-1.52-4.18 0-2.68 1.45-4.25 1.47-1.57 3.85-1.57 2.2 0 3.4 1.29 1.2 1.29 1.2 3.66zm-1.79-1.41q0-1.45-.73-2.24-.71-.79-2.18-.79-1.47 0-2.35.87-.87.87-.99 2.16zM66.57 101.46h-1.84v-15.2h1.84zM79.27 96.2h-8.03q0 1 .3 1.75t.83 1.22q.5.47 1.2.7.7.24 1.54.24 1.12 0 2.24-.44 1.13-.45 1.61-.88h.1v2q-.93.4-1.9.66-.96.26-2.03.26-2.71 0-4.24-1.46-1.52-1.48-1.52-4.18 0-2.68 1.46-4.25 1.46-1.57 3.84-1.57 2.21 0 3.4 1.29 1.2 1.29 1.2 3.66zm-1.78-1.41q-.01-1.45-.74-2.24-.7-.79-2.17-.79-1.48 0-2.36.87-.87.87-.98 2.16zM90.12 100.78q-.92.44-1.75.68-.82.24-1.74.24-1.19 0-2.17-.34-.99-.35-1.7-1.05-.7-.7-1.1-1.78-.38-1.07-.38-2.5 0-2.69 1.46-4.2 1.47-1.53 3.89-1.53.93 0 1.83.26.91.27 1.66.65v2.04h-.1q-.83-.66-1.73-1-.9-.36-1.74-.36-1.56 0-2.47 1.05-.9 1.05-.9 3.08 0 1.97.88 3.04.89 1.05 2.49 1.05.56 0 1.13-.14.58-.15 1.04-.39.4-.2.75-.42l.56-.4h.1zM98.15 101.36q-.52.14-1.13.23-.6.08-1.09.08-1.67 0-2.54-.9-.86-.9-.86-2.87v-5.8h-1.25v-1.55h1.25v-3.13h1.83v3.13h3.79v1.54h-3.79v4.98q0 .85.04 1.34.04.48.27.9.22.4.59.58.38.17 1.15.17.45 0 .94-.12.49-.14.7-.23h.1z" style="white-space:pre" transform="translate(0 -9.75)"/></g><path style="stroke:#000" d="M26.72 103.9h57.12v45.37H26.72Zm165.4.62h32.01v45.37h-32.01zm-60.26-.46h57.12v45.37h-57.12zm163.29.67h32.01v45.37h-32.01zm-60.26-.47h57.12v45.37h-57.12z"/><path style="fill:#fff;fill-opacity:1;stroke:#000;stroke-width:1;stroke-linecap:square;stroke-linejoin:miter;stroke-miterlimit:4;stroke-dasharray:none;stroke-opacity:1;paint-order:normal" d="M86.918 104.17h32.94v45.469h-32.94z"/><path style="fill:#fff;fill-opacity:1;stroke:#fff;stroke-width:1;stroke-linecap:square;stroke-linejoin:miter;stroke-miterlimit:4;stroke-dasharray:none;stroke-opacity:1;paint-order:normal" d="M170.479 215.579h143.369v53.698H170.479z"/><g aria-label="Group By" style="font-style:normal;font-variant:normal;font-weight:400;font-stretch:normal;font-size:19.23362541px;line-height:1.25;font-family:Arial;-inkscape-font-specification:Arial;text-align:center;letter-spacing:0;word-spacing:0;writing-mode:lr-tb;text-anchor:middle;fill:#333;fill-opacity:1;stroke:none;stroke-width:.10017513"><path d="M26.946 245.17q-1.146.526-2.507.92-1.353.385-2.62.385-1.635 0-2.996-.45-1.362-.451-2.32-1.353-.967-.91-1.493-2.272-.526-1.372-.526-3.203 0-3.353 1.953-5.287 1.963-1.944 5.381-1.944 1.193 0 2.433.29 1.249.283 2.686.968v2.207h-.17q-.29-.225-.845-.592-.554-.366-1.089-.61-.648-.291-1.474-.479-.817-.197-1.86-.197-2.348 0-3.719 1.512-1.362 1.502-1.362 4.076 0 2.714 1.428 4.226 1.427 1.502 3.888 1.502.901 0 1.794-.178.901-.178 1.577-.46v-3.428h-3.747v-1.634h5.588zM36.6 237.638h-.093q-.395-.094-.77-.131-.367-.047-.874-.047-.817 0-1.578.366-.76.357-1.465.93v7.447h-1.765v-10.49h1.765v1.55q1.052-.846 1.85-1.193.808-.357 1.644-.357.46 0 .667.028.206.019.62.084zM47.222 240.963q0 2.563-1.315 4.047-1.314 1.484-3.521 1.484-2.226 0-3.541-1.484-1.305-1.484-1.305-4.047 0-2.564 1.305-4.048 1.315-1.493 3.54-1.493 2.208 0 3.522 1.493 1.315 1.484 1.315 4.048zm-1.822 0q0-2.038-.798-3.024-.798-.996-2.216-.996-1.437 0-2.236.996-.788.986-.788 3.024 0 1.972.798 2.995.798 1.015 2.226 1.015 1.408 0 2.207-1.005.807-1.014.807-3.005zM58.66 246.203h-1.765v-1.164q-.892.704-1.709 1.08-.817.375-1.803.375-1.653 0-2.573-1.005-.92-1.014-.92-2.967v-6.81h1.765v5.974q0 .798.075 1.37.075.564.32.968.253.413.657.601t1.174.188q.685 0 1.493-.357.817-.357 1.521-.91v-7.833h1.766zM71.368 240.831q0 1.277-.367 2.339-.366 1.051-1.033 1.784-.62.695-1.465 1.08-.836.376-1.775.376-.817 0-1.484-.179-.657-.178-1.343-.554v4.395h-1.765v-14.36H63.9v1.1q.705-.592 1.578-.986.883-.404 1.878-.404 1.897 0 2.95 1.437 1.06 1.427 1.06 3.972zm-1.822.047q0-1.897-.648-2.836-.648-.94-1.991-.94-.761 0-1.531.33-.77.328-1.475.863v5.945q.752.338 1.287.46.545.122 1.23.122 1.475 0 2.301-.995.827-.996.827-2.949zM91.568 241.902q0 1.042-.394 1.84-.394.799-1.061 1.315-.79.62-1.738.883-.939.263-2.394.263h-4.96v-13.984h4.143q1.53 0 2.291.113.76.113 1.456.47.77.403 1.117 1.042.348.63.348 1.512 0 .995-.507 1.7-.508.695-1.353 1.117v.075q1.418.292 2.235 1.25.817.948.817 2.404zm-3.127-6.302q0-.507-.169-.854-.169-.348-.545-.564-.441-.254-1.07-.31-.63-.066-1.56-.066h-2.216v4.039h2.405q.873 0 1.39-.085.516-.094.957-.375.442-.282.62-.724.188-.45.188-1.06zm1.193 6.377q0-.845-.254-1.343-.253-.498-.92-.845-.45-.235-1.099-.3-.639-.076-1.559-.076h-2.92v5.203h2.46q1.22 0 2-.122.78-.132 1.278-.47.525-.366.77-.836.244-.47.244-1.211zM103.139 235.713l-6.124 14.36h-1.887l1.953-4.377-4.179-9.983h1.916l3.221 7.776 3.25-7.776z" style="font-style:normal;font-variant:normal;font-weight:400;font-stretch:normal;font-family:sans-serif;-inkscape-font-specification:sans-serif;fill:#333;stroke-width:.10017513"/></g></svg>