<svg xmlns="http://www.w3.org/2000/svg" viewBox="0 0 348 348" fill="none"><path d="M5.079 5.776h336.913v337.67H5.08z" stroke-width="2" stroke="#000"/><path d="M282.734 40.554c0-8.376 6.966-15.165 15.56-15.165 4.126 0 8.084 1.597 11.001 4.441 2.918 2.844 4.558 6.702 4.558 10.724 0 8.376-6.966 15.165-15.56 15.165-8.593 0-15.559-6.79-15.559-15.165z" stroke-width="2" stroke="#000"/><path stroke="#000" stroke-width="2.304" stroke-linecap="round" d="M17.335 102.422h38.223v38.223H17.335zM55.558 102.422h38.223v38.223H55.558zM93.781 102.422h38.223v38.223H93.781z"/><path stroke="#000" stroke-width="2.304" stroke-linecap="round" d="M132.004 102.422h38.223v38.223h-38.223zM170.227 102.422h38.223v38.223h-38.223zM208.45 102.422h38.223v38.223H208.45zM17.335 140.645h38.223v38.223H17.335zM55.558 140.645h38.223v38.223H55.558zM93.781 140.645h38.223v38.223H93.781z"/><path stroke="#000" stroke-width="2.304" stroke-linecap="round" d="M132.004 140.645h38.223v38.223h-38.223zM170.227 140.645h38.223v38.223h-38.223zM208.45 140.645h38.223v38.223H208.45zM17.335 178.868h38.223v38.223H17.335zM55.558 178.868h38.223v38.223H55.558zM93.781 178.868h38.223v38.223H93.781z"/><path stroke="#000" stroke-width="2.304" stroke-linecap="round" d="M132.004 178.868h38.223v38.223h-38.223zM170.227 178.868h38.223v38.223h-38.223zM208.45 178.868h38.223v38.223H208.45zM17.335 217.091h38.223v38.223H17.335zM55.558 217.091h38.223v38.223H55.558zM93.781 217.091h38.223v38.223H93.781z"/><path stroke="#000" stroke-width="2.304" stroke-linecap="round" d="M132.004 217.091h38.223v38.223h-38.223zM170.227 217.091h38.223v38.223h-38.223zM208.45 217.091h38.223v38.223H208.45zM17.335 255.314h38.223v38.223H17.335zM55.558 255.314h38.223v38.223H55.558z"/><path stroke="#000" stroke-width="2.304" stroke-linecap="round" d="M93.781 255.314h38.223v38.223H93.781z"/><path stroke="#000" stroke-width="2.304" stroke-linecap="round" d="M132.004 255.314h38.223v38.223h-38.223zM170.227 255.314h38.223v38.223h-38.223zM208.45 255.314h38.223v38.223H208.45zM17.335 293.537h38.223v38.223H17.335zM55.558 293.537h38.223v38.223H55.558zM93.781 293.537h38.223v38.223H93.781z"/><path stroke="#000" stroke-width="2.304" stroke-linecap="round" d="M132.004 293.537h38.223v38.223h-38.223zM170.227 293.537h38.223v38.223h-38.223zM208.45 293.537h38.223v38.223H208.45z"/><path stroke="#000" stroke-width="3.826" stroke-linecap="round" d="M18.003 19.703h185.613v67.536H18.003z"/><path stroke="#000" stroke-width="2.304" stroke-linecap="round" d="M228.51 28.968h22.157v49.006H228.51z"/><path d="M204.597 43.343c14.618 8.83 24.803-18.383 35.39-.737M205.703 65.038c15.416 3.115 21.601 10.84 33.916-1.474" stroke="#000" stroke-width="4.4" stroke-linecap="round"/><path stroke="#000" stroke-width="2.141" stroke-linecap="round" d="M262.843 111.505h62.301v20.056h-62.301zM262.843 149.728h62.301v20.056h-62.301zM262.843 187.951h62.301v20.056h-62.301zM262.843 226.174h62.301v20.056h-62.301zM262.843 264.397h62.301v20.056h-62.301zM262.843 302.62h62.301v20.056h-62.301z"/><g aria-label="2.72" style="line-height:1.25;-inkscape-font-specification:Mate;text-align:center" font-weight="400" font-size="59.886" font-family="Digital Display" letter-spacing="0" word-spacing="0" text-anchor="middle" fill="#000" stroke-width="1.497"><path d="M100.751 74.627l-1.738-2.015 3.476-4.03h8.691l3.477 4.03-1.739 2.015zm-2.607-3.022l-1.738-2.015V55.486l1.738-2.015 3.476 4.03v10.074l-3.476 4.03zm4.345-15.112l-2.607-3.022 2.607-3.022h8.691l2.608 3.022-2.608 3.022zm13.037-3.022l-3.477-4.03V39.367l3.477-4.03 1.738 2.015v14.104l-1.738 2.015zm-13.037-15.112l-3.476-4.03 1.738-2.014h12.167l1.739 2.014-3.477 4.03zM130.952 74.627l-2.607-3.022 2.607-3.022h1.738l2.608 3.022-2.608 3.022zM165.498 71.605l-3.476-4.03V57.501l3.476-4.03 1.739 2.015V69.59l-1.739 2.015zm-17.381-18.134l-1.739-2.015V37.352l1.739-2.015 3.476 4.03V49.44l-3.476 4.03zm17.381 0l-3.476-4.03V39.367l3.476-4.03 1.739 2.015v14.104l-1.739 2.015zm-13.036-15.112l-3.476-4.03 1.738-2.014h12.167l1.738 2.014-3.476 4.03zM175.71 74.627l-1.738-2.015 3.476-4.03h8.691l3.477 4.03-1.738 2.015zm-2.607-3.022l-1.738-2.015V55.486l1.738-2.015 3.476 4.03v10.074l-3.476 4.03zm4.345-15.112l-2.607-3.022 2.607-3.022h8.691l2.608 3.022-2.608 3.022zm13.037-3.022l-3.477-4.03V39.367l3.477-4.03 1.738 2.015v14.104l-1.738 2.015zm-13.037-15.112l-3.476-4.03 1.738-2.014h12.168l1.738 2.014-3.477 4.03z" style="-inkscape-font-specification:'Digital Display'"/></g><g aria-label="632" style="line-height:1.25;-inkscape-font-specification:Mate;text-align:center" font-weight="400" font-size="31.012" font-family="Digital Display" letter-spacing="0" word-spacing="0" text-anchor="middle" fill="#000" stroke-width=".775"><path d="M32.841 78.835l-.969-.97 1.938-1.938h4.846l1.938 1.939-.969.969zm-1.453-1.454l-.97-.97v-6.783l.97-.97 1.938 1.94v4.845l-1.938 1.938zm9.69 0l-1.937-1.938v-4.846l1.938-1.938.969.969v6.784l-.97.969zm-9.69-8.722l-.97-.97v-6.783l.97-.97 1.938 1.939v4.846l-1.938 1.938zm9.69 0l-1.937-1.938v-4.846l1.938-1.938.969.969v6.784l-.97.969zM33.81 61.39l-1.938-1.938.97-.969h6.783l.97.97-1.939 1.937zM46.772 78.835l-.969-.97 1.939-1.938h4.845l1.938 1.939-.969.969zM45.32 77.38l-.97-.97v-6.783l.97-.97 1.938 1.94v4.845l-1.938 1.938zm9.691 0l-1.938-1.938v-4.846l1.938-1.938.97.969v6.784l-.97.969zm-7.268-7.268l-1.454-1.454 1.454-1.454h4.845l1.454 1.454-1.454 1.454zm-2.423-1.454l-.97-.97v-6.783l.97-.97 1.938 1.939v4.846l-1.938 1.938zm2.423-7.269l-1.939-1.938.97-.969h6.783l.97.97-1.939 1.937zM60.704 78.835l-.97-.97 1.939-1.938h4.845l1.939 1.939-.97.969zm8.237-1.454l-1.938-1.938v-4.846l1.938-1.938.97.969v6.784l-.97.969zm-7.268-7.268l-1.454-1.454 1.454-1.454h4.845l1.454 1.454-1.454 1.454zm7.268-1.454l-1.938-1.938v-4.846l1.938-1.938.97.969v6.784l-.97.969zm-7.268-7.269l-1.938-1.938.969-.969h6.784l.969.97-1.939 1.937zM74.635 78.835l-.97-.97 1.939-1.938h4.846l1.938 1.939-.97.969zM73.18 77.38l-.969-.97v-6.783l.97-.97 1.937 1.94v4.845l-1.938 1.938zm2.423-7.268l-1.454-1.454 1.454-1.454h4.846l1.453 1.454-1.453 1.454zm7.268-1.454l-1.938-1.938v-4.846l1.938-1.938.97.969v6.784l-.97.969zm-7.268-7.269l-1.938-1.938.969-.969h6.784l.969.97-1.938 1.937z" style="-inkscape-font-specification:'Digital Display'"/></g><path stroke="#000" stroke-width="2.492" stroke-linecap="round" d="M26.636 26.268h61.007v25.918H26.636z"/><g aria-label="2.72" style="line-height:1.25;-inkscape-font-specification:Mate;text-align:center" font-weight="400" font-size="31.012" font-family="Digital Display" letter-spacing="0" word-spacing="0" text-anchor="middle" fill="#000" stroke-width=".775"><path d="M32.851 49.403l-.97-.97 1.94-1.938h4.845l1.938 1.938-.969.97zm-1.454-1.454l-.969-.97v-6.783l.97-.97 1.938 1.939v4.846l-1.939 1.938zm2.423-7.269l-1.454-1.453 1.454-1.454h4.846l1.454 1.454-1.454 1.453zm7.269-1.453l-1.939-1.939v-4.845l1.939-1.938.969.969v6.784l-.97.969zm-7.269-7.269l-1.938-1.938.97-.97h6.783l.97.97-1.94 1.938zM49.69 49.403l-1.454-1.454 1.454-1.454h.969l1.453 1.454-1.453 1.454zM68.951 47.949l-1.938-1.938v-4.846l1.938-1.938.97.969v6.784l-.97.969zm-9.691-8.722l-.97-.97v-6.783l.97-.97 1.938 1.939v4.845l-1.938 1.939zm9.691 0l-1.938-1.939v-4.845l1.938-1.938.97.969v6.784l-.97.969zm-7.268-7.269l-1.939-1.938.97-.97h6.783l.97.97-1.939 1.938zM74.645 49.403l-.97-.97 1.939-1.938h4.845l1.939 1.938-.97.97zm-1.454-1.454l-.97-.97v-6.783l.97-.97 1.938 1.939v4.846l-1.938 1.938zm2.423-7.269l-1.454-1.453 1.454-1.454h4.845l1.454 1.454-1.454 1.453zm7.268-1.453l-1.938-1.939v-4.845l1.938-1.938.97.969v6.784l-.97.969zm-7.268-7.269l-1.938-1.938.969-.97h6.784l.969.97-1.939 1.938z" style="-inkscape-font-specification:'Digital Display'"/></g></svg>