<svg xmlns="http://www.w3.org/2000/svg" fill="none" viewBox="0 0 348 348"><path stroke="#000" stroke-width="2" d="M5.079 5.776h336.913v337.67H5.08z"/><path stroke="#000" stroke-width="2" d="M282.734 40.554c0-8.376 6.966-15.165 15.56-15.165 4.126 0 8.084 1.597 11.001 4.441 2.918 2.844 4.558 6.702 4.558 10.724 0 8.376-6.966 15.165-15.56 15.165-8.593 0-15.559-6.79-15.559-15.165z"/><path fill="#fff" d="M120.915 161.466a54.56 64.144 0 01-33.487 59.167 54.56 64.144 0 01-59.355-13.464l38.283-45.703z"/><path d="M166.153 225.729h157.78v63.407h-157.78z" fill-rule="evenodd" fill="#000"/><ellipse fill="#000" ry="35.483" rx="36.008" cy="261.839" cx="72.839"/><path d="M212.792 100.476q0 29.577-10.519 43.444-10.435 13.793-32.475 13.793-22.374 0-32.726-14.014-10.269-14.015-10.269-43.076 0-29.282 10.436-43.223 10.436-14.014 32.559-14.014 22.374 0 32.642 14.235 10.352 14.162 10.352 42.855zm-21.956 33.486q2.922-5.974 3.924-14.014 1.085-8.113 1.085-19.472 0-11.212-1.085-19.473-1.002-8.261-4.007-14.014-2.922-5.68-8.015-8.556-5.009-2.877-12.94-2.877-7.848 0-13.024 2.877-5.092 2.876-8.098 8.703-2.838 5.459-3.923 14.236-1.002 8.777-1.002 19.251 0 11.507.918 19.251.918 7.745 3.924 13.867 2.755 5.753 7.764 8.777 5.093 3.025 13.441 3.025 7.847 0 13.024-2.877 5.176-2.877 8.014-8.704z" aria-label="0" font-weight="400" font-size="160.71" font-family="sans-serif" letter-spacing="0" word-spacing="0" fill="#000" stroke-width="4.018"/></svg>