<svg xmlns="http://www.w3.org/2000/svg" fill="none" viewBox="0 0 348 348"><path stroke="#000" stroke-width="2" d="M5 5.8h337v337.6H5z"/><path stroke="#000" stroke-width="2" d="M282.7 40.6c0-8.4 7-15.2 15.6-15.2 4.1 0 8 1.6 11 4.4a15 15 0 0 1 4.6 10.8c0 8.3-7 15.1-15.6 15.1s-15.6-6.8-15.6-15.1z"/><rect width="58.5" height="53.6" x="85.7" y="-7.5" fill="#fff" stroke="#000" stroke-opacity=".9" stroke-width="3.4" ry="0" transform="matrix(.85828 .51319 -.50138 .86523 0 0)"/><rect width="75.3" height="71.1" x="70.2" y="100.7" fill="#fff" stroke="#000" stroke-opacity=".9" stroke-width="4.4" ry="0" transform="matrix(.91462 -.40432 .36895 .92945 0 0)"/><rect width="90.1" height="88.6" x="1.4" y="140.4" fill="#fff" stroke="#000" stroke-opacity=".9" stroke-width="5.3" ry="0" transform="matrix(.90551 -.42432 .3507 .93649 0 0)"/><rect width="79.4" height="71.7" x="188.1" y="44.1" fill="#fff" stroke="#000" stroke-opacity=".9" stroke-width="4.5" ry="0" transform="matrix(.91783 .39697 -.35991 .93299 0 0)"/><rect width="85.6" height="75.2" x="-93.6" y="214.6" fill="#fff" stroke="#000" stroke-opacity=".9" stroke-width="4.8" ry="0" transform="matrix(.8719 -.48968 .52814 .84916 0 0)"/><rect width="92.5" height="83.3" x="196.8" y="-40" fill="#fff" stroke="#000" stroke-opacity=".9" stroke-width="5.3" ry="0" transform="matrix(.9183 .39589 -.36092 .9326 0 0)"/><rect width="80.1" height="72.2" x="115.2" y="231.8" fill="#fff" stroke="#000" stroke-opacity=".9" stroke-width="4.6" ry="0" transform="matrix(.91508 -.40327 .41105 .91161 0 0)"/><rect width="76.9" height="69.3" x="135" y="71.7" fill="#fff" stroke="#000" stroke-opacity=".9" stroke-width="4.4" ry="0" transform="matrix(.99605 .08882 -.04909 .9988 0 0)"/><rect width="79.4" height="71.7" x="224.3" y="78.7" fill="#fff" stroke="#000" stroke-opacity=".9" stroke-width="4.5" ry="0" transform="matrix(.86224 .5065 -.47158 .88183 0 0)"/><rect width="79.4" height="71.7" x="162.9" y="258.3" fill="#fff" stroke="#000" stroke-opacity=".9" stroke-width="4.5" ry="0" transform="matrix(.99426 -.10702 .14673 .98918 0 0)"/></svg>