<svg version="1.1" id="Layer_1" xmlns="http://www.w3.org/2000/svg" xmlns:xlink="http://www.w3.org/1999/xlink" x="0" y="0" viewBox="0 0 348 348" xml:space="preserve"><style>.st0,.st1{stroke:#000}.st0{stroke-width:2;fill:none}.st1{fill:#fff;stroke-miterlimit:10}</style><path class="st0" d="M5.1 5.8H342v337.7H5.1V5.8z"/><path class="st0" d="M282.7 40.6c0-8.4 7-15.2 15.6-15.2 4.1 0 8.1 1.6 11 4.4 2.9 2.8 4.6 6.7 4.6 10.7 0 8.4-7 15.2-15.6 15.2s-15.6-6.8-15.6-15.1z"/><path class="st1" d="M180.8 187.4h129.7v129.7H180.8z"/><image width="1920" height="352" xlink:href="../../../1920px-Getty_Images_Logo.svg.png" transform="matrix(.03593 0 0 .03593 237.876 287.787)" overflow="visible"/><path class="st1" d="M21.5 187.4h129.7v129.7H21.5z"/><image width="1920" height="352" xlink:href="../../../1920px-Getty_Images_Logo.svg.png" transform="matrix(.03593 0 0 .03593 78.557 287.787)" overflow="visible"/><path class="st1" d="M21.5 31h129.7v129.7H21.5z"/><image width="1920" height="352" xlink:href="../../../1920px-Getty_Images_Logo.svg.png" transform="matrix(.03593 0 0 .03593 78.557 131.368)" overflow="visible"/></svg>