<svg xmlns="http://www.w3.org/2000/svg" width="666.7" height="666.7" version="1.0" viewBox="0 0 500 500"><path d="m49 49-1 202 1 201h403V49l-202-1-202 1zm395 201v194H56V56h388v194z"/><path d="M394 65c-9 3-15 8-19 17-3 5-3 7-3 13 1 16 13 27 29 27 17 0 29-12 29-29 0-16-11-28-27-29l-9 1zm13 8c5 1 11 7 13 11 6 11 0 26-13 30-21 6-36-20-20-36 6-6 12-7 20-5zM213 121a144 144 0 0 0-77 20c-2 3-2 4 0 7l8 18 5 16-7 10c-12 17-13 20-12 21 0 2 1 2 5 2l8-2c3 0 3 0 3 2-5 12-7 37-5 52a110 110 0 0 0 114 93c28-1 54-13 74-33 13-14 23-31 28-50 2-8 2-11 2-27s0-18-2-27l-2-10 4 1c7 2 11 1 11-1 1-1-1-4-12-21l-7-10 5-16 8-18c2-3 2-4 0-7a154 154 0 0 0-79-20h-72zm38 70h8c4-3 39 5 68 15l17 5 3 7a98 98 0 0 1 4 49c-1 2-3 2-22 2h-22v-3c-1-3-3-5-5-3-2 1-2 3-2 12v10h-40v-10c0-9 0-11-2-12-2-2-4 0-5 3-1 2-1 2-4 2s-4 0-4-2c-1-3-3-5-5-3-2 1-2 3-2 12v10h-40v-10c0-9 0-11-2-12-2-2-4 0-5 3v3h-21l-21-1-1-14a83 83 0 0 1 6-36v-4a2888 2888 0 0 0 38-15c2 0 2 1 2 3 1 5 2 4 3 0v-4l13-3a108 108 0 0 1 41-4zm-60 93v7l25 1h28l1-9v-7h7l1 8v8h54v-16h21l20 1c0 3-5 16-6 15l-1 1c3 3-21 34-24 32l-1 1c1 1-9 9-19 14a102 102 0 0 1-144-60l-2-4h40v8z"/><path d="m303 217 2 1h1l-3-1zM299 223v6l1 5 5-1 5 1c2 2 0 4-4 5-4 2-5 4-1 3 7 0 11-6 8-10l-7-2c-4 0-4 0-4-2 0-3 1-3 5-3 6-1 5-2-1-3l-7 1zM225 258c-3 3-5 4-10 3l-3-1-1-1-2-1c-3-2-6-2-7 0s-1 3 2 6c4 4 9 5 16 4s15-8 12-11c-2-3-4-2-7 1zM266 256l-1 2c0 2 4 7 7 9l16 1 2-1 1 1v1-1l3-5c3-2 3-3 2-5s-4-2-6 0c-5 4-14 4-17 0-2-3-5-4-7-2zM247 260c-1 1 0 1 0 0 2 0 3-1 1-1l-2 1z"/></svg>