<svg xmlns="http://www.w3.org/2000/svg" fill="none" stroke-linecap="butt" viewBox="0 0 348 348"><path stroke="#000" stroke-width="2" d="M282.7 40.6c0-8.4 7-15.2 15.6-15.2 4.1 0 8 1.6 11 4.4a15 15 0 0 1 4.6 10.8c0 8.3-7 15.1-15.6 15.1s-15.6-6.8-15.6-15.1zM5.1 5.8H342v337.6H5Z"/><path stroke="#000" stroke-miterlimit="4" stroke-width="2" d="M20 25h240v300H20z"/><path stroke="#000" stroke-miterlimit="4" stroke-width="4" d="M80 25v300m60-300v300m60-300v300M20 85h240M20 145h240M20 205h240M20 265h240"/><path fill="#000" d="M60 49c-.5 0-1.3 0-2.3.3-3 1.5-4.5 3.6-4.5 6.4v.3c0 1 .5 2.4 1.3 4 .4.9 1.2 1.9 2.4 2.9h-.1a10 10 0 0 0-3.4-.6h-.2l-2.5.3c-3.4 1.1-5 3.3-5 6.6 0 .8.1 1.6.4 2.6 1.5 2.8 3.5 4.2 6.1 4.2 3.5 0 5.8-2 7.2-5.8h.1c0 4.7-.6 7.9-1.8 9.7l.2.1h4.3v-.1c-1.2-1.5-1.7-4.7-1.7-9.4v-.2C62 74 64.3 76 67.7 76l2.3-.4c2.9-1.4 4.4-3.6 4.4-6.4a8 8 0 0 0-.5-2.7 7.2 7.2 0 0 0-7-4.2h-.4c-1.1 0-2.2.2-3.3.6l1.2-1.2c1.7-2.3 2.5-4.2 2.5-5.8a9 9 0 0 0-.3-2.3C65.2 50.5 63 49 60 49zm180 0c-.5 0-1.3 0-2.3.3-3 1.5-4.4 3.6-4.4 6.4v.3a9.7 9.7 0 0 0 3.6 6.9h-.1a10 10 0 0 0-3.4-.6h-.2l-2.4.3c-3.5 1.1-5.2 3.3-5.2 6.6 0 .8.2 1.6.5 2.6 1.5 2.8 3.5 4.2 6.2 4.2 3.4 0 5.7-2 7.1-5.8h.1c0 4.7-.6 7.9-1.8 9.7l.2.1h4.3v-.1c-1.2-1.5-1.7-4.7-1.7-9.4v-.2c1.4 3.8 3.8 5.7 7.2 5.7l2.3-.4c2.9-1.4 4.4-3.6 4.4-6.4a8 8 0 0 0-.5-2.7 7.2 7.2 0 0 0-7-4.2h-.4c-1.1 0-2.2.2-3.3.6l1.2-1.2c1.7-2.3 2.5-4.2 2.5-5.8a9 9 0 0 0-.3-2.3c-1.4-3.1-3.6-4.7-6.6-4.7zm-120 60a99.5 99.5 0 0 1-8.5 11.5c-2.6 2.8-3.9 5.5-3.9 8v1l.2 1.5c1 2.9 2.9 4.3 5.5 4.3 1.7 0 3.2-.9 4.4-2.7l1-1.9h.8c0 4-.6 7-1.8 9.2v.1h4.5a19 19 0 0 1-1.7-9v-.3h.9c1.3 3.1 3 4.6 5.2 4.6a6 6 0 0 0 2.4-.4c2.3-1.4 3.4-3.2 3.4-5.5v-.8c0-1.1-.3-2.3-.8-3.5-.1-.8-1.8-3-5.1-7-3-3.8-5.2-6.9-6.5-9.2zm60 0c-.5 0-1.3 0-2.3.3-3 1.5-4.4 3.6-4.4 6.4v.3a9.7 9.7 0 0 0 3.6 6.9h-.1a10 10 0 0 0-3.4-.6h-.2l-2.4.3c-3.5 1.1-5.2 3.3-5.2 6.6 0 .8.2 1.6.5 2.6 1.5 2.8 3.5 4.2 6.2 4.2 3.4 0 5.7-2 7.1-5.8h.1c0 4.7-.6 7.9-1.8 9.7l.2.1h4.3v-.1c-1.2-1.5-1.7-4.7-1.7-9.4v-.2c1.4 3.8 3.8 5.7 7.2 5.7l2.3-.4c2.9-1.4 4.4-3.6 4.4-6.4a8 8 0 0 0-.5-2.7 7.2 7.2 0 0 0-7-4.2h-.4c-1.1 0-2.2.2-3.3.6l1.2-1.2c1.7-2.3 2.5-4.2 2.5-5.8a9 9 0 0 0-.3-2.3c-1.4-3.1-3.6-4.7-6.6-4.7zm0 60a99.5 99.5 0 0 1-8.5 11.5c-2.6 2.8-3.9 5.5-3.9 8v1l.2 1.5c1 2.9 2.9 4.3 5.5 4.3 1.7 0 3.2-.9 4.4-2.7l1-1.9h.8c0 4-.6 7-1.8 9.2v.1h4.5a19 19 0 0 1-1.7-9v-.3h.9c1.3 3.1 3 4.6 5.2 4.6a6 6 0 0 0 2.4-.4c2.3-1.4 3.4-3.2 3.4-5.5v-.8c0-1.1-.3-2.3-.8-3.5-.1-.8-1.8-3-5.1-7-3-3.8-5.2-6.9-6.5-9.2zm60 0a99.5 99.5 0 0 1-8.5 11.5c-2.6 2.8-3.9 5.5-3.9 8v1l.2 1.5c1 2.9 2.9 4.3 5.5 4.3 1.7 0 3.2-.9 4.4-2.7l1-1.9h.8c0 4-.6 7-1.8 9.2v.1h4.5a19 19 0 0 1-1.7-9v-.3h.9c1.3 3.1 3 4.6 5.2 4.6a6 6 0 0 0 2.4-.4c2.3-1.4 3.4-3.2 3.4-5.5v-.8c0-1.1-.3-2.3-.8-3.5-.1-.8-1.8-3-5.1-7-3-3.8-5.2-6.9-6.5-9.2zm0 60a99.5 99.5 0 0 1-8.5 11.5c-2.6 2.8-3.9 5.5-3.9 8v1l.2 1.5c1 2.9 2.9 4.3 5.5 4.3 1.7 0 3.2-.9 4.4-2.7l1-1.9h.8c0 4-.6 7-1.8 9.2v.1h4.5a19 19 0 0 1-1.7-9v-.3h.9c1.3 3.1 3 4.6 5.2 4.6a6 6 0 0 0 2.4-.4c2.3-1.4 3.4-3.2 3.4-5.5v-.8c0-1.1-.3-2.3-.8-3.5-.1-.8-1.8-3-5.1-7-3-3.8-5.2-6.9-6.5-9.2z"/><path fill="#484848" d="m120 49-9.6 12.4c-1.6 2-2.4 3-2.4 3.2A760.5 760.5 0 0 0 120 80l12-15.4c0-.2-.6-.9-1.5-2L120 48.8zm60 0-9.6 12.4c-1.6 2-2.4 3-2.4 3.2A760.5 760.5 0 0 0 180 80l12-15.4c0-.2-.6-.9-1.5-2L180 48.8zM52.4 109a7.7 7.7 0 0 0-7.7 7.9c0 3 1.1 5.9 3.5 8.7L59.9 140h.1l11-13.2c3-3.2 4.4-6.5 4.4-10a9 9 0 0 0-.7-3.2c-1.8-3.1-4-4.7-7-4.7a7 7 0 0 0-5 2.3 12.5 12.5 0 0 0-2.7 5.6 9 9 0 0 0-1-3c-1.6-3.3-3.8-4.9-6.6-4.9zm180 0a7.7 7.7 0 0 0-7.7 7.9c0 3 1.1 5.9 3.5 8.7l11.7 14.4h.1l11-13.2c3-3.2 4.4-6.5 4.4-10a9 9 0 0 0-.7-3.2c-1.8-3.1-4-4.7-7-4.7a7 7 0 0 0-5 2.3 12.5 12.5 0 0 0-2.7 5.6 9 9 0 0 0-1-3c-1.6-3.3-3.8-4.9-6.6-4.9zM60 169l-9.6 12.4c-1.6 2-2.4 3-2.4 3.2A760.5 760.5 0 0 0 60 200l12-15.4c0-.2-.6-.9-1.5-2L60 168.8zm52.4 0a7.7 7.7 0 0 0-7.7 7.9c0 3 1.1 5.9 3.5 8.7l11.7 14.4h.1l11-13.2c3-3.2 4.4-6.5 4.4-10a9 9 0 0 0-.7-3.2c-1.8-3.1-4-4.7-7-4.7a7 7 0 0 0-5 2.3 12.5 12.5 0 0 0-2.7 5.6 9 9 0 0 0-1-3c-1.6-3.3-3.8-4.9-6.6-4.9zm-60 60a7.7 7.7 0 0 0-7.7 7.9c0 3 1.1 5.9 3.5 8.7L59.9 260h.1l11-13.2c3-3.2 4.4-6.5 4.4-10a9 9 0 0 0-.7-3.2c-1.8-3.1-4-4.7-7-4.7a7 7 0 0 0-5 2.3 12.5 12.5 0 0 0-2.7 5.6 9 9 0 0 0-1-3c-1.6-3.3-3.8-4.9-6.6-4.9zm67.6 0-9.6 12.4c-1.6 2-2.4 3-2.4 3.2a760.5 760.5 0 0 0 12 15.4l12-15.4c0-.2-.6-.9-1.5-2L120 228.8zm60 0-9.6 12.4c-1.6 2-2.4 3-2.4 3.2a760.5 760.5 0 0 0 12 15.4l12-15.4c0-.2-.6-.9-1.5-2L180 228.8zM60 289l-9.6 12.4c-1.6 2-2.4 3-2.4 3.2A760.5 760.5 0 0 0 60 320l12-15.4c0-.2-.6-.9-1.5-2L60 288.8zm52.4 0a7.7 7.7 0 0 0-7.7 7.9c0 3 1.1 5.9 3.5 8.7l11.7 14.4h.1l11-13.2c3-3.2 4.4-6.5 4.4-10a9 9 0 0 0-.7-3.2c-1.8-3.1-4-4.7-7-4.7a7 7 0 0 0-5 2.3 12.5 12.5 0 0 0-2.7 5.6 9 9 0 0 0-1-3c-1.6-3.3-3.8-4.9-6.6-4.9zm60 0a7.7 7.7 0 0 0-7.7 7.9c0 3 1.1 5.9 3.5 8.7l11.7 14.4h.1l11-13.2c3-3.2 4.4-6.5 4.4-10a9 9 0 0 0-.7-3.2c-1.8-3.1-4-4.7-7-4.7a7 7 0 0 0-5 2.3 12.5 12.5 0 0 0-2.7 5.6 9 9 0 0 0-1-3c-1.6-3.3-3.8-4.9-6.6-4.9zm60 0a7.7 7.7 0 0 0-7.7 7.9c0 3 1.1 5.9 3.5 8.7l11.7 14.4h.1l11-13.2c3-3.2 4.4-6.5 4.4-10a9 9 0 0 0-.7-3.2c-1.8-3.1-4-4.7-7-4.7a7 7 0 0 0-5 2.3 12.5 12.5 0 0 0-2.7 5.6 9 9 0 0 0-1-3c-1.6-3.3-3.8-4.9-6.6-4.9z"/><path fill="#000" d="M31.2 29.1c-1 0-1.7.3-2.4 1-.6.7-1 1.4-1 2.4v9.1c0 1 .4 1.8 1 2.4.7.7 1.5 1 2.4 1h5.3a3 3 0 0 0 2.4-1 3 3 0 0 0 1-2.4V38c0-.7-.2-1.2-.7-1.7-.5-.5-1-.7-1.7-.7h-6.3c-.3 0-.5-.2-.5-.5v-2.6c0-.3.2-.5.5-.5h8.2c.3 0 .5-.2.5-.5v-2c0-.2-.2-.4-.5-.4h-8.2zm15 0a3 3 0 0 0-2.4 1c-.7.7-1 1.4-1 2.4v9.1a3 3 0 0 0 1 2.4 3 3 0 0 0 2.4 1h5.3c1 0 1.7-.3 2.4-1 .6-.6 1-1.4 1-2.4v-9.1c0-1-.4-1.7-1-2.4-.7-.7-1.5-1-2.4-1h-5.3zm45 0c-1 0-1.7.3-2.4 1-.6.7-1 1.4-1 2.4v9.1c0 1 .4 1.8 1 2.4.7.7 1.5 1 2.4 1h5.3a3 3 0 0 0 2.4-1 3 3 0 0 0 1-2.4V38c0-.7-.2-1.2-.7-1.7-.5-.5-1-.7-1.7-.7h-6.3c-.3 0-.5-.2-.5-.5v-2.6c0-.3.2-.5.5-.5h8.2c.3 0 .5-.2.5-.5v-2c0-.2-.2-.4-.5-.4h-8.2zm57.2 0c-.4 0-.5.2-.5.5v2c0 .2.1.4.5.4h8.2c.3 0 .4.2.4.5V35c0 .3-.1.5-.4.5h-8.3c-.3 0-.4.1-.4.4v2c0 .3.1.4.4.4h8.3c.3 0 .4.2.4.6v2.6c0 .4-.1.5-.4.5h-8.2c-.4 0-.5.2-.5.5v2c0 .2.1.4.5.4h8.2c.9 0 1.7-.3 2.3-1a3 3 0 0 0 1-2.4V39c0-1-.4-1.6-1.3-2 .9-.5 1.3-1.3 1.3-2.2v-2.4c0-1-.3-1.7-1-2.4-.6-.7-1.4-1-2.3-1h-8.2zm14.9 0c-.3 0-.5.2-.5.5v2c0 .2.2.4.5.4h6.8c.3 0 .5.2.5.5v12c0 .3.1.5.5.5h1.9c.3 0 .5-.2.5-.5v-13c0-.6-.3-1.2-.8-1.7-.4-.4-1-.7-1.6-.7h-7.8zm45 0c-.3 0-.4.2-.4.5V35c0 1 .3 1.7 1 2.4.6.6 1.4 1 2.3 1h5.4c.3 0 .4.1.4.4v2.7c0 .4-.1.5-.4.5h-5.4c-.3 0-.5-.1-.5-.5V40c0-.3-.1-.5-.4-.5h-2c-.3 0-.4.2-.4.5v1.5a3 3 0 0 0 1 2.4c.6.7 1.4 1 2.3 1h5.4c.9 0 1.7-.3 2.3-1a3 3 0 0 0 1-2.4V39c0-.9-.3-1.7-1-2.3-.6-.7-1.4-1-2.3-1h-5.4c-.3 0-.4-.2-.4-.5v-2.6c0-.3.1-.5.4-.5h8.2c.4 0 .5-.2.5-.5v-2c0-.2-.1-.4-.5-.4h-11zm15 0c-.3 0-.5.2-.5.5v2c0 .2.2.4.5.4h6.8c.3 0 .5.2.5.5v12c0 .3.1.5.5.5h1.9c.3 0 .5-.2.5-.5v-13c0-.6-.3-1.2-.8-1.7-.4-.4-1-.7-1.6-.7h-7.8zM46.2 32h5.3c.3 0 .5.2.5.5v9.1c0 .4-.2.5-.5.5h-5.3c-.4 0-.5-.1-.5-.5v-9.1c0-.3.1-.5.5-.5zm-15 6.4h5.3c.4 0 .5.2.5.5v2.7c0 .4-.1.5-.5.5h-5.3c-.3 0-.5-.1-.5-.5V39c0-.3.2-.5.5-.5zm60 0h5.3c.4 0 .5.2.5.5v2.7c0 .4-.1.5-.5.5h-5.3c-.3 0-.5-.1-.5-.5V39c0-.3.2-.5.5-.5zm-60 50.7c-1 0-1.7.3-2.4 1-.6.7-1 1.4-1 2.4V96a2.4 2.4 0 0 0 2.5 2.4h6.2c.4 0 .5.2.5.5v2.6c0 .4-.1.5-.5.5h-8.2c-.3 0-.4.2-.4.5v2c0 .2.1.4.4.4h8.2a3 3 0 0 0 2.4-1 3 3 0 0 0 1-2.4v-9.1c0-1-.3-1.7-1-2.4a3 3 0 0 0-2.4-1h-5.3zm12 0c-.3 0-.4.2-.4.5v2c0 .2.1.4.5.4h1.2v12.5c0 .3.1.5.4.5h2c.3 0 .4-.2.4-.5v-15c0-.2-.1-.4-.4-.4h-3.6zm48 0c-1 0-1.7.3-2.4 1-.6.7-1 1.4-1 2.4V96a2.4 2.4 0 0 0 2.5 2.4h6.2c.4 0 .5.2.5.5v2.6c0 .4-.1.5-.5.5h-8.2c-.3 0-.4.2-.4.5v2c0 .2.1.4.4.4h8.2a3 3 0 0 0 2.4-1 3 3 0 0 0 1-2.4v-9.1c0-1-.3-1.7-1-2.4a3 3 0 0 0-2.4-1h-5.3zm12 0c-.3 0-.4.2-.4.5V95c0 1 .3 1.7 1 2.4.6.6 1.4 1 2.3 1h5.4c.3 0 .5.1.5.4v2.7c0 .4-.2.5-.5.5h-5.4c-.3 0-.4-.1-.4-.5V100c0-.3-.2-.5-.5-.5h-2c-.3 0-.4.2-.4.5v1.5a3 3 0 0 0 1 2.4c.6.7 1.4 1 2.3 1h5.4c1 0 1.7-.3 2.4-1 .6-.6 1-1.4 1-2.4V99c0-.9-.4-1.7-1-2.3-.7-.7-1.5-1-2.4-1h-5.3c-.4 0-.5-.2-.5-.5v-2.6c0-.3.1-.5.5-.5h8.2c.3 0 .5-.2.5-.5v-2c0-.2-.2-.4-.6-.4h-11zm45.1 0c-.3 0-.4.2-.4.5V95c0 1 .3 1.7 1 2.4.6.6 1.4 1 2.3 1h5.4c.3 0 .4.1.4.4v2.7c0 .4-.1.5-.4.5h-5.4c-.3 0-.5-.1-.5-.5V100c0-.3-.1-.5-.4-.5h-2c-.3 0-.4.2-.4.5v1.5a3 3 0 0 0 1 2.4c.6.7 1.4 1 2.3 1h5.4c.9 0 1.7-.3 2.3-1a3 3 0 0 0 1-2.4V99c0-.9-.3-1.7-1-2.3-.6-.7-1.4-1-2.3-1h-5.4c-.3 0-.4-.2-.4-.5v-2.6c0-.3.1-.5.4-.5h8.2c.4 0 .5-.2.5-.5v-2c0-.2-.1-.4-.5-.4h-11zm17.9 0a3 3 0 0 0-2.4 1c-.7.7-1 1.4-1 2.4v9.1a3 3 0 0 0 1 2.4 3 3 0 0 0 2.4 1h5.3c1 0 1.7-.3 2.4-1 .6-.6 1-1.4 1-2.4v-9.1c0-1-.4-1.7-1-2.4-.7-.7-1.5-1-2.4-1h-5.3zm42.1 0c-.3 0-.4.2-.4.5v2c0 .2.1.4.4.4h1.2v12.5c0 .3.2.5.5.5h2c.3 0 .4-.2.4-.5v-15c0-.2-.1-.4-.5-.4h-3.6zm10.4 0a3 3 0 0 0-2.4 1c-.7.7-1 1.4-1 2.4v9.1a3 3 0 0 0 1 2.4 3 3 0 0 0 2.4 1h5.3c1 0 1.7-.3 2.4-1 .6-.6 1-1.4 1-2.4v-9.1c0-1-.4-1.7-1-2.4-.7-.7-1.5-1-2.4-1h-5.3zm14.9 0c-1 0-1.7.3-2.4 1-.6.7-1 1.4-1 2.4v9.1c0 1 .4 1.8 1 2.4.7.7 1.5 1 2.4 1h5.3c1 0 1.7-.3 2.4-1 .6-.6 1-1.4 1-2.4v-9.1c0-1-.4-1.7-1-2.4-.7-.7-1.5-1-2.4-1h-5.3zM31.2 92h5.3c.4 0 .5.2.5.5v2.7c0 .3-.1.5-.5.5h-5.3c-.3 0-.5-.2-.5-.5v-2.7c0-.3.2-.5.5-.5zm60 0h5.3c.4 0 .5.2.5.5v2.7c0 .3-.1.5-.5.5h-5.3c-.3 0-.5-.2-.5-.5v-2.7c0-.3.2-.5.5-.5zm75 0h5.3c.3 0 .5.2.5.5v9.1c0 .4-.2.5-.5.5h-5.3c-.4 0-.5-.1-.5-.5v-9.1c0-.3.1-.5.5-.5zm52.5 0h5.3c.3 0 .5.2.5.5v9.1c0 .4-.2.5-.5.5h-5.3c-.4 0-.5-.1-.5-.5v-9.1c0-.3.1-.5.5-.5zm14.9 0h5.3c.3 0 .5.2.5.5v9.1c0 .4-.2.5-.5.5h-5.3c-.3 0-.5-.1-.5-.5v-9.1c0-.3.2-.5.5-.5zM31.2 149c-.9 0-1.7.3-2.3 1-.7.7-1 1.4-1 2.4v1.5c0 .3.1.5.5.5h1.9c.3 0 .5-.2.5-.5v-1.5c0-.3.1-.5.4-.5h5.4c.3 0 .4.2.4.5v4c0 .2-.1.4-.4.4h-5.4c-.9 0-1.7.3-2.3 1-.7.6-1 1.4-1 2.3v1.4a3 3 0 0 0 1 2.4c.6.7 1.4 1 2.3 1h8.2c.4 0 .5-.2.5-.5v-1.9c0-.3-.1-.5-.5-.5h-8.2c-.3 0-.4-.1-.4-.5v-1.4c0-.3.1-.4.4-.4h5.4c.9 0 1.7-.4 2.3-1 .7-.7 1-1.5 1-2.4v-4a3 3 0 0 0-1-2.3c-.6-.7-1.4-1-2.3-1h-5.4zm57.2 0c-.4 0-.5.2-.5.5v2c0 .2.1.4.5.4h6.8c.3 0 .5.2.5.5v12c0 .3.1.5.4.5h2c.3 0 .4-.2.4-.5v-13c0-.6-.2-1.2-.7-1.7-.4-.4-1-.7-1.7-.7h-7.7zm16.4 0c-1 0-1.7.3-2.4 1s-1 1.4-1 2.4v9.1a3 3 0 0 0 1 2.4c.7.7 1.4 1 2.4 1h5.3c1 0 1.7-.3 2.4-1 .6-.6 1-1.4 1-2.4v-9.1c0-1-.4-1.7-1-2.4-.7-.7-1.5-1-2.4-1h-5.3zm43.6 0c-.4 0-.5.2-.5.5v2c0 .2.1.4.5.4h6.8c.3 0 .5.2.5.5v12c0 .3.1.5.4.5h2c.3 0 .4-.2.4-.5v-13c0-.6-.2-1.2-.7-1.7-.4-.4-1-.7-1.7-.7h-7.7zm13.5 0c-.3 0-.5.2-.5.5v5.5c0 1 .3 1.7 1 2.4.6.6 1.4 1 2.4 1h5.3c.3 0 .5.1.5.4v2.7c0 .4-.2.5-.5.5h-5.3c-.4 0-.5-.1-.5-.5V160c0-.3-.2-.5-.5-.5h-2c-.2 0-.4.2-.4.5v1.5a3 3 0 0 0 1 2.4 3 3 0 0 0 2.4 1h5.3c1 0 1.7-.3 2.4-1 .6-.6 1-1.4 1-2.4V159c0-.9-.4-1.7-1-2.3-.7-.7-1.5-1-2.4-1h-5.3c-.3 0-.5-.2-.5-.5v-2.6c0-.3.2-.5.5-.5h8.2c.3 0 .5-.2.5-.5v-2c0-.2-.2-.4-.6-.4h-11zm46.4 0c-.3 0-.4.2-.4.5v5.5c0 1 .3 1.7 1 2.4.6.6 1.4 1 2.3 1h5.4c.3 0 .4.1.4.4v2.7c0 .4-.1.5-.4.5h-5.4c-.3 0-.5-.1-.5-.5V160c0-.3-.1-.5-.4-.5h-2c-.3 0-.4.2-.4.5v1.5a3 3 0 0 0 1 2.4c.6.7 1.4 1 2.3 1h5.4c.9 0 1.7-.3 2.3-1a3 3 0 0 0 1-2.4V159c0-.9-.3-1.7-1-2.3-.6-.7-1.4-1-2.3-1h-5.4c-.3 0-.4-.2-.4-.5v-2.6c0-.3.1-.5.4-.5h8.2c.4 0 .5-.2.5-.5v-2c0-.2-.1-.4-.5-.4h-11zm17.8 0c-.9 0-1.7.3-2.3 1-.7.7-1 1.4-1 2.4v9.1a3 3 0 0 0 1 2.4c.6.7 1.4 1 2.3 1h5.4c.9 0 1.7-.3 2.3-1a3 3 0 0 0 1-2.4V158c0-.7-.2-1.2-.7-1.7-.5-.5-1-.7-1.7-.7h-6.3c-.3 0-.4-.2-.4-.5v-2.6c0-.3.1-.5.4-.5h8.3c.3 0 .4-.2.4-.5v-2c0-.2-.1-.4-.4-.4H226zm-121.3 3h5.3c.3 0 .5.2.5.5v9.1c0 .4-.2.5-.5.5h-5.3c-.3 0-.5-.1-.5-.5v-9.1c0-.3.2-.5.5-.5zm121.3 6.4h5.4c.3 0 .5.2.5.5v2.7c0 .4-.2.5-.5.5H226c-.3 0-.4-.1-.4-.5V159c0-.3.1-.5.4-.5zM31.2 209.1c-1 0-1.7.3-2.4 1-.6.7-1 1.4-1 2.4v3.6a2.4 2.4 0 0 0 2.5 2.4h6.2c.4 0 .5.2.5.5v2.6c0 .4-.1.5-.5.5h-8.2c-.3 0-.4.2-.4.5v2c0 .2.1.4.4.4h8.2a3 3 0 0 0 2.4-1 3 3 0 0 0 1-2.4v-9.1c0-1-.3-1.7-1-2.4a3 3 0 0 0-2.4-1h-5.3zm12 0c-.2 0-.4.2-.4.5v2c0 .2.2.4.5.4H50c.3 0 .5.2.5.5v12c0 .3.1.5.5.5h2c.3 0 .5-.2.5-.5v-13c0-.6-.3-1.2-.8-1.7-.4-.4-1-.7-1.6-.7h-7.8zm48 0c-1 0-1.7.3-2.4 1-.6.7-1 1.4-1 2.4v3.6a2.4 2.4 0 0 0 2.5 2.4h6.2c.4 0 .5.2.5.5v2.6c0 .4-.1.5-.5.5h-8.2c-.3 0-.4.2-.4.5v2c0 .2.1.4.4.4h8.2a3 3 0 0 0 2.4-1 3 3 0 0 0 1-2.4v-9.1c0-1-.3-1.7-1-2.4a3 3 0 0 0-2.4-1h-5.3zm12 0c-.3 0-.4.2-.4.5v2c0 .2.1.4.5.4h1.2v12.5c0 .3.1.5.4.5h2c.3 0 .4-.2.4-.5v-15c0-.2-.1-.4-.4-.4h-3.6zm45.2 0c-.4 0-.5.2-.5.5v2c0 .2.1.4.5.4h8.2c.3 0 .4.2.4.5v2.6c0 .3-.1.5-.4.5h-8.3c-.3 0-.4.1-.4.4v2c0 .3.1.4.4.4h8.3c.3 0 .4.2.4.6v2.6c0 .4-.1.5-.4.5h-8.2c-.4 0-.5.2-.5.5v2c0 .2.1.4.5.4h8.2c.9 0 1.7-.3 2.3-1a3 3 0 0 0 1-2.4v-2.5c0-1-.4-1.6-1.3-2 .9-.5 1.3-1.3 1.3-2.2v-2.4c0-1-.3-1.7-1-2.4-.6-.7-1.4-1-2.3-1h-8.2zm14.9 0c-.4 0-.5.2-.5.5v2c0 .2.1.4.5.4h1.2v12.5c0 .3.1.5.4.5h2c.3 0 .4-.2.4-.5v-15c0-.2-.1-.4-.4-.4h-3.6zm48 0c-1 0-1.8.3-2.5 1-.6.7-1 1.4-1 2.4v3.6a2.4 2.4 0 0 0 2.5 2.4h6.2c.4 0 .5.2.5.5v2.6c0 .4-.1.5-.5.5h-8.2c-.3 0-.4.2-.4.5v2c0 .2.1.4.4.4h8.2a3 3 0 0 0 2.4-1 3 3 0 0 0 1-2.4v-9.1c0-1-.3-1.7-1-2.4a3 3 0 0 0-2.4-1h-5.3zm12 0c-.4 0-.5.2-.5.5v9.2c0 .9.3 1.7 1 2.3.6.7 1.4 1 2.3 1h5.4c.3 0 .5.2.5.5v2c0 .2.1.4.5.4h1.9c.3 0 .5-.2.5-.5v-15l-.3-.2-.2-.2h-2c-.3 0-.4.2-.4.5v9.2c0 .3-.2.4-.5.4H226c-.3 0-.4-.1-.4-.4v-9.2c0-.3-.2-.5-.5-.5h-2zm-192 2.9h5.2c.4 0 .5.2.5.5v2.7c0 .3-.1.5-.5.5h-5.3c-.3 0-.5-.2-.5-.5v-2.7c0-.3.2-.5.5-.5zm60 0h5.2c.4 0 .5.2.5.5v2.7c0 .3-.1.5-.5.5h-5.3c-.3 0-.5-.2-.5-.5v-2.7c0-.3.2-.5.5-.5zm120 0h5.2c.4 0 .5.2.5.5v2.7c0 .3-.1.5-.5.5h-5.3c-.3 0-.5-.2-.5-.5v-2.7c0-.3.2-.5.5-.5zM31.2 269c-1 0-1.8.3-2.5 1-.6.7-1 1.4-1 2.4v9.1c0 1 .4 1.8 1 2.4.7.7 1.5 1 2.4 1h5.3a3 3 0 0 0 2.4-1 3 3 0 0 0 1-2.4V278c0-.7-.2-1.2-.7-1.7-.5-.5-1-.7-1.7-.7h-6.3c-.3 0-.5-.2-.5-.5v-2.6c0-.3.2-.5.5-.5h8.2c.3 0 .5-.2.5-.5v-2c0-.2-.2-.4-.5-.4h-8.2zm12 0c-.3 0-.5.2-.5.5v2c0 .2.2.4.5.4h8.2c.3 0 .5.2.5.5v2.6c0 .3-.2.5-.5.5h-8.2c-.4 0-.5.1-.5.4v2c0 .3.1.4.5.4h8.2c.3 0 .5.2.5.6v2.6c0 .4-.2.5-.5.5h-8.2c-.3 0-.5.2-.5.5v2c0 .2.2.4.5.4h8.2c1 0 1.7-.3 2.4-1 .6-.6 1-1.4 1-2.4V279c0-1-.5-1.6-1.3-2 .8-.5 1.3-1.3 1.3-2.2v-2.4c0-1-.4-1.7-1-2.4-.7-.7-1.5-1-2.4-1h-8.2zm48 0c-1 0-1.8.3-2.5 1-.6.7-1 1.4-1 2.4v9.1c0 1 .4 1.8 1 2.4.7.7 1.5 1 2.4 1h5.3a3 3 0 0 0 2.4-1 3 3 0 0 0 1-2.4V278c0-.7-.2-1.2-.7-1.7-.5-.5-1-.7-1.7-.7h-6.3c-.3 0-.5-.2-.5-.5v-2.6c0-.3.2-.5.5-.5h8.2c.3 0 .5-.2.5-.5v-2c0-.2-.2-.4-.5-.4h-8.2zm12 0c-.4 0-.5.2-.5.5v5.5c0 1 .3 1.7 1 2.4.6.6 1.4 1 2.3 1h5.4c.3 0 .5.1.5.4v2.7c0 .4-.2.5-.5.5H106c-.3 0-.4-.1-.4-.5V280c0-.3-.2-.5-.5-.5h-2c-.3 0-.4.2-.4.5v1.5a3 3 0 0 0 1 2.4c.6.7 1.4 1 2.3 1h5.4c1 0 1.7-.3 2.4-1 .6-.6 1-1.4 1-2.4V279c0-.9-.4-1.7-1-2.3-.7-.7-1.5-1-2.4-1h-5.3c-.4 0-.5-.2-.5-.5v-2.6c0-.3.1-.5.5-.5h8.2c.3 0 .5-.2.5-.5v-2c0-.2-.2-.4-.6-.4h-11zm45 0c-.3 0-.4.2-.4.5v2c0 .2.1.4.4.4h1.2v12.5c0 .3.2.5.5.5h2c.3 0 .4-.2.4-.5v-15c0-.2-.1-.4-.5-.4h-3.6zm7.5 0c-.4 0-.5.2-.5.5v9.2c0 .9.3 1.7 1 2.3.6.7 1.4 1 2.3 1h5.4c.3 0 .5.2.5.5v2c0 .2.1.4.4.4h2c.3 0 .4-.2.4-.5v-15l-.2-.2-.2-.2h-2c-.3 0-.5.2-.5.5v9.2c0 .3-.1.4-.4.4h-5.4c-.3 0-.4-.1-.4-.4v-9.2c0-.3-.2-.5-.5-.5h-2zm55.4 0c-.9 0-1.7.3-2.3 1-.7.7-1 1.4-1 2.4v1.5c0 .3.1.5.5.5h1.9c.3 0 .5-.2.5-.5v-1.5c0-.3.1-.5.4-.5h5.4c.3 0 .4.2.4.5v4c0 .2-.1.4-.4.4h-5.4c-.9 0-1.7.3-2.3 1-.7.6-1 1.4-1 2.3v1.4a3 3 0 0 0 1 2.4c.6.7 1.4 1 2.3 1h8.2c.4 0 .5-.2.5-.5v-1.9c0-.3-.1-.5-.5-.5h-8.2c-.3 0-.4-.1-.4-.5v-1.4c0-.3.1-.4.4-.4h5.4c.9 0 1.7-.4 2.3-1 .7-.7 1-1.5 1-2.4v-4a3 3 0 0 0-1-2.3c-.6-.7-1.4-1-2.3-1h-5.4zm15 0a3 3 0 0 0-2.4 1c-.7.7-1 1.4-1 2.4v9.1a3 3 0 0 0 1 2.4c.6.7 1.4 1 2.3 1h5.4c.9 0 1.7-.3 2.3-1a3 3 0 0 0 1-2.4V278c0-.7-.2-1.2-.7-1.7-.5-.5-1-.7-1.7-.7H226c-.3 0-.4-.2-.4-.5v-2.6c0-.3.1-.5.4-.5h8.3c.3 0 .4-.2.4-.5v-2c0-.2-.1-.4-.4-.4H226zm-195 9.3h5.3c.4 0 .5.2.5.5v2.7c0 .4-.1.5-.5.5h-5.3c-.3 0-.5-.1-.5-.5V279c0-.3.2-.5.5-.5zm60 0h5.3c.4 0 .5.2.5.5v2.7c0 .4-.1.5-.5.5h-5.3c-.3 0-.5-.1-.5-.5V279c0-.3.2-.5.5-.5zm135 0h5.3c.3 0 .5.2.5.5v2.7c0 .4-.2.5-.5.5H226c-.3 0-.4-.1-.4-.5V279c0-.3.1-.5.4-.5z"/></svg>