<svg xmlns="http://www.w3.org/2000/svg" fill="none" stroke="#000" stroke-width="2" viewBox="0 0 347 347"><path fill="#040404" stroke="none" d="M347 347H0V0h347Z"/><path stroke="#fff" d="M5 5h337v337H5Z"/><path stroke="#fff" d="M314 40a16 16 0 0 1-16 16 16 16 0 0 1-16-16 16 16 0 0 1 16-16 16 16 0 0 1 16 16Z"/><path fill="#fff" stroke="#fff" stroke-width="1.09" d="M190.78 144.71h-8.64l-8.64-14.96-8.64 14.96h-8.64l17.28-29.92z"/><path fill="#fff" stroke="#fff" stroke-width="1.54" d="M197.88 117.61H185.7L173.5 96.5l-12.19 21.11h-12.2l24.39-42.23z"/><path fill="#fff" stroke="#fff" stroke-width="1.09" d="M156.22 203.38h8.64l8.64 14.96 8.64-14.96h8.64L173.5 233.3z"/><path fill="#fff" stroke="#fff" stroke-width="1.54" d="M149.12 230.48h12.19l12.19 21.12 12.19-21.12h12.2l-24.39 42.23z"/><path fill="#fff" stroke="#fff" stroke-width="1.09" d="M203.38 190.78v-8.64l14.96-8.64-14.96-8.64v-8.64l29.92 17.28z"/><path fill="#fff" stroke="#fff" stroke-width="1.54" d="M230.48 197.88V185.7l21.12-12.19-21.12-12.19v-12.2l42.23 24.39z"/><path fill="#fff" stroke="#fff" stroke-width="1.09" d="M144.71 156.22v8.64l-14.96 8.64 14.96 8.64v8.64l-29.92-17.28z"/><path stroke="#fff" stroke-width="4.25" d="M193.86 193.86h-40.72v-40.72h40.72z"/><path fill="#fff" stroke="#fff" stroke-width="1.54" d="M117.61 149.12v12.19L96.5 173.5l21.1 12.19v12.2L75.39 173.5Z"/><path fill="#fff" stroke="#fff" d="M75.27 141.83v15.83L47.84 173.5l27.43 15.84v15.83L20.4 173.5Zm197.55 63.34v-15.83l27.43-15.84-27.43-15.84v-15.83l54.86 31.67z"/><path fill="#fff" stroke="#fff" stroke-width="1.54" d="m137.55 103.07-8.62 8.62-23.55-6.31 6.3 23.55-8.61 8.62-12.62-47.1zm106.38 34.48-8.62-8.62 6.31-23.55-23.55 6.3-8.62-8.61 47.1-12.62z"/><path fill="#fff" stroke="none" d="M113.45 62.9H17V17h96.45z"/><path fill="#040404" stroke="none" d="M109.13 59.01h-87.8V20.9h87.8z"/><path fill="#f8ffff" stroke="#fff" stroke-width="1.25" d="m48.41 42.02 2.44-.67c.8 1.57.93 3.47.27 5.17a6.18 6.18 0 0 1-11.85-1.46H36.6a8.88 8.88 0 0 0 5.44 7.33 8.79 8.79 0 0 0 11.51-4.83c.94-2.3.84-4.77-1.17-9.34l-5.7 1.53Zm-.53-8.14-2.6.7-1.4-.53a2.42 2.42 0 0 1-1.34-3.07 2.29 2.29 0 0 1 3.07-1.27c.9.37 1.5 1.27 1.5 2.17h2.6a5.07 5.07 0 0 0-3.06-4.67 5.05 5.05 0 0 0-6.54 2.73 4.93 4.93 0 0 0 1.33 5.67l2.34 2.14 5.8-1.57zm17.61 3.47v-2.77l-2.66.73v-5.33H74V27.3H60.16v8.74l-2.67.73v2.74zm-5.33 14.98H74v-2.67H62.83v-6.04l2.66-.73v-2.77l-8 2.2v2.74l2.67-.7zm25.18-14.98v-2.77l-2.67.73v-5.33h11.18V27.3H80.01v8.74l-2.67.73v2.74zm-5.33 14.98h13.84v-2.67H82.67v-6.04l2.67-.73v-2.77l-8 2.2v2.74l2.67-.7z" aria-label="SEE"/><path fill="#fff" stroke="#fff" stroke-width="1.54" d="m210.54 243.93 8.62-8.62 23.55 6.31-6.3-23.55 8.61-8.62 12.62 47.1zm-107.47-33.39 8.62 8.62-6.31 23.55 23.55-6.3 8.62 8.61-47.1 12.62z"/><path fill="#fff" stroke="none" d="m20.7 326.44-1.75-1.5 1.75-1.46v-4.7l-2.9-2.47H12v17.26h5.74l2.96-2.46zm-5.8-2.73v-4.94h2.9v4.94zm0 7.4v-5.16h2.9v5.16zm16.85-12.34-2.9-2.46h-5.8v17.26h5.8l2.9-2.46zm-5.8 12.34v-12.34h2.9v12.34zm16.21-4.69-1.75-1.5 1.75-1.48v-4.67l-2.9-2.46h-5.83l2.91 2.46h2.91v4.94h-2.9v2.44h2.9v4.96h-2.9l-2.92 2.46h5.82l2.91-2.46zm10.9-7.65-2.88-2.46h-2.91l-2.91 2.46v12.34l2.9 2.46h2.92l2.88-2.46zm-5.8 12.34v-12.34h2.92v12.34zm14.22-14.8h-2.89v14.8h-2.91l-2.91 2.46h5.82l2.89-2.46zm10.9 0h-2.91v7.42h-2.91v-7.42h-2.89v7.42l2.89 2.44h2.9v4.94h-2.9l-2.89 2.46h5.8l2.9-2.46zm2.3 0v2.46h5.17l-5 14.8h3.03l5.52-17.26Zm20 14.8h-1.16v-12.34l-2.89-2.46h-2.9l-2.92 2.46v12.34l2.91 2.46h6.96zm-6.96 0v-12.34h2.91v12.34zm13.86 0h-2.9v-4.94h2.9l2.91-2.44v-4.96l-2.9-2.46h-5.83l2.91 2.46h2.91v4.96h-2.9l-2.92 2.44v7.4h8.73zm13.37-7.38h-5.82v-4.96h5.82v-2.46h-8.73v7.42l2.91 2.44h2.91v4.94h-5.82l2.91 2.46h2.91l2.91-2.46zm10.61 2.42-2.91-2.44h-2.91v-4.94h2.91l2.91-2.46h-5.82l-2.89 2.46v4.94l2.89 2.44h2.91v4.96h-2.91l-2.89 2.46h5.8l2.91-2.46zm9.72-9.84h-8.68v2.46h2.86v14.8h2.9v-14.8h2.92zm10.06 0h-2.88v14.8h-2.91v-14.8h-2.91v14.8l2.9 2.46h2.92l2.88-2.46zm11.2 14.8h-5.8v-4.96h2.9l2.9-2.44h-5.8v-4.94h5.8v-2.46h-8.7v17.26h8.7zm10.98-12.48-2.89-2.32h-2.9l-2.9 2.32v14.94h2.9v-7.4h2.9v7.4h2.89zm-5.8 5.03v-5.03h2.91v5.03zm17.05-4.89-2.91-2.46h-5.8v17.26h2.91v-7.4h2.89l2.9-2.44zm-5.8 4.96v-4.96h2.89v4.96zm10.31 0v-4.96h5.3v-2.46h-8.21v17.26h2.91v-7.4h2.4l2.9-2.44zm15.3 0h-2.33l-2.9 2.44h2.34v4.94h-2.91v-12.34h5.67v-2.46h-5.67l-2.91 2.46v12.34l2.9 2.46h5.8zm7.69-.15 2.76-7.27h-2.83l-1.36 4.68-1.38-4.68h-2.99l2.74 7.54-2.81 9.72h2.81l1.43-6.24 1.48 6.24h2.96zm19.1-7.27h-4.65l-2.61 11.34-2.91-11.34h-4.34v17.26h2.9v-12.33l2.9 12.33h2.9l2.9-12.33v12.33h2.9zm5.34 14.8v-12.34h5.58v-2.46h-5.58l-2.9 2.46v12.34l2.9 2.46h2.92l2.88-2.46zm16.58-14.8h-2.91v7.42h-2.89v-7.42h-2.9v17.26h2.9v-7.4h2.89v7.4h2.91zm7.82 0-1.43 10.36-1.43-10.36h-3.01l2.91 17.26h2.91l2.86-17.26zm10.06 7.45 3.98-7.45h-3.48l-2.89 6.34v-6.34h-2.91v17.26h2.91v-8.06l2.89 8.06h3.48zm15.12-7.45h-2.59v9.47l-3.67-9.47h-3.01v17.26h2.61v-10.55l3.98 10.55h2.68zm8.32 9.86 2.9-2.44v-4.96l-2.9-2.46h-5.8v17.26h2.91v-7.4l2.89 7.4h2.9zm-2.89-2.44v-4.96h2.89v4.96zm16.13 7.38h-4.6l4.6-14.8h-8.48v2.46h4.73l-4.93 14.8h8.68zm4.81-14.8h-2.9v17.26h2.9zm17.1 0h-2.91v14.8h-2.91v-14.8h-2.89v14.8h-2.91v-14.8h-2.89v14.8l2.89 2.46h8.7l2.92-2.46zm8.33 14.8h-2.88v-14.8h-2.94v17.26h8.74z" aria-label="BD3OJY7Q25STUEAPFGXMCHVKNRZIWL"/></svg>