<svg xmlns="http://www.w3.org/2000/svg" viewBox="0 0 348 348" fill="none"><path d="M5.079 5.776h336.913v337.67H5.08z" stroke-width="2" stroke="#000" fill="#351616"/><path d="M282.734 40.554c0-8.376 6.966-15.165 15.56-15.165 4.126 0 8.084 1.597 11.001 4.441 2.918 2.844 4.558 6.702 4.558 10.724 0 8.376-6.966 15.165-15.56 15.165-8.593 0-15.559-6.79-15.559-15.165z" stroke-width="2" stroke="#000" fill="#351616" style="fill:#fff"/><path opacity=".98" fill="#4d4d4d" stroke="#000" stroke-width="1.333" stroke-linejoin="round" d="M59.438 20.644h148.195v53.822H59.438z"/><path opacity=".98" fill="#000" stroke="#000" stroke-width="1.032" stroke-linejoin="round" d="M66.907 29.643h133.257v35.825H66.907z"/><path opacity=".98" fill="#000" stroke="#000" stroke-width="1.333" stroke-linejoin="round" d="M18.84 90.457h229.39v229.39H18.84z"/><path opacity=".98" fill="#2f2f2f" stroke="#000" stroke-width="1.629" stroke-linejoin="round" d="M138.592 100.209H240.48v101.888H138.592zm-112 0H128.48v101.888H26.592zm112 108H240.48v101.888H138.592zm-112 0H128.48v101.888H26.592z"/><path d="M32.559 106.176h44.606v44.606H32.559zm45.347 0h44.606v44.606H77.906zm-45.347 45.347h44.606v44.606H32.559zm45.347 0h44.606v44.606H77.906z" stroke-linejoin="round" stroke-width="1.563" stroke="#232323" fill="#c17272" opacity=".98" style="stroke-width:1.563;stroke-miterlimit:4;stroke-dasharray:none;fill:#232323"/><g stroke-linejoin="round"><path opacity=".98" fill="#333" stroke="#1a1a1a" stroke-width="1.222" d="M156.763 118.989h25.546v64.327h-25.546z"/><path opacity=".98" fill="#000" stroke="#000" stroke-width="1.333" d="M168.102 119.481h2.867v63.343h-2.867z"/><path opacity=".98" fill="#333" stroke="#333" stroke-width=".812" d="M168.695 96.896h1.681v29.936h-1.681z"/><circle r="2.802" cy="95.659" cx="169.536" opacity=".98" fill="red" stroke="maroon" stroke-width="1.333"/></g><g transform="translate(4.454)" stroke-linejoin="round"><path opacity=".98" fill="#333" stroke="#1a1a1a" stroke-width="1.222" d="M192.308 118.989h25.546v64.327h-25.546z"/><path opacity=".98" fill="#000" stroke="#000" stroke-width="1.333" d="M203.648 119.481h2.867v63.343h-2.867z"/><path opacity=".98" fill="#333" stroke="#333" stroke-width=".812" d="M204.241 96.896h1.681v29.936h-1.681z"/><circle r="2.802" cy="95.659" cx="205.081" opacity=".98" fill="red" stroke="maroon" stroke-width="1.333"/></g><rect width="82.945" height="6.041" x="36.063" y="248.132" ry="0" opacity=".98" fill="#000" stroke="#000" stroke-width="1.079" stroke-linejoin="round"/><rect width="82.945" height="6.041" x="36.063" y="230.399" ry="0" opacity=".98" fill="#000" stroke="#000" stroke-width="1.079" stroke-linejoin="round"/><rect width="82.945" height="6.041" x="36.063" y="265.865" ry="0" opacity=".98" fill="#000" stroke="#000" stroke-width="1.079" stroke-linejoin="round"/><path opacity=".98" fill="#894444" stroke="#500" stroke-width="1.333" stroke-linejoin="round" d="M60.853 284.918h33.366v15.64H60.853z"/><path d="M65.785 226.956h23.5v12.791h-23.5zm0 17.801h23.5v12.791h-23.5zm0 17.733h23.5v12.791h-23.5z" stroke-linejoin="round" stroke-width="1.076" stroke="#280b0b" fill="#501616" opacity=".98"/><circle cx="175.535" cy="259.152" r="30.759" opacity=".98" fill="#653232" stroke="#280b0b" stroke-width="1.333" stroke-linejoin="round"/><path d="m175.535 229.402-5.142 8.907a21.491 21.491 0 0 0-16.348 20.843 21.491 21.491 0 0 0 21.49 21.493 21.491 21.491 0 0 0 21.492-21.493 21.491 21.491 0 0 0-16.347-20.84l-5.145-8.91z" opacity=".98" fill="#501616" stroke="#280b0b" stroke-width="1.851" stroke-linejoin="round"/><rect width="19.907" height="59.72" x="213.206" y="229.292" ry="9.953" stroke-linejoin="round" stroke-width="1.333" stroke="#280b0b" fill="#894444" opacity=".98"/><path style="opacity:1;fill:#c17272;stroke:none;stroke-width:.97822672" d="M40.373 106.974a7.02 7.02 0 0 0-7.034 7.037v36.009h43.038v-43.046H54.858Z"/><path style="opacity:1;fill:#c17272;stroke:none;stroke-width:.97822672" d="M121.726 114.012a7.02 7.02 0 0 0-7.037-7.034H78.68v43.038h43.046v-21.519z"/><path style="opacity:1;fill:#c17272;stroke:none;stroke-width:.97822672" d="M114.682 195.344a7.02 7.02 0 0 0 7.034-7.037v-36.009H78.678v43.046h21.519z"/><path style="opacity:1;fill:#c17272;stroke:none;stroke-width:.97822672" d="M33.33 188.306a7.02 7.02 0 0 0 7.037 7.034H76.375v-43.038H33.33v21.519z"/><rect style="opacity:1;fill:#333;stroke:#1a1a1a;stroke-width:4" width="38.021" height="206.114" x="264.893" y="102.461" ry="0"/><rect style="opacity:1;fill:red;stroke:#b40000;stroke-width:2.811" width="28.298" height="136.76" x="269.755" y="166.022" ry="0"/></svg>