<svg xmlns="http://www.w3.org/2000/svg" xml:space="preserve" fill="none" viewBox="0 0 348 348"><path stroke="#330" stroke-width="2" d="M342 5.8H5v337.6h337z"/><path fill="#330" fill-rule="evenodd" d="M31.4 32.1v11l10.8-11zm24 0-24 24.1v13.4L68.8 32Zm26.6 0L31.4 82.7h13.4l50.6-50.6Zm26.6 0L58 82.7h13.4l45.2-45.2V32Zm8 18.6-32 32h13.3l18.7-18.6zm0 26.6-5.4 5.4h5.4z"/><path stroke="#330" stroke-width="2" d="M31.4 32.1h85.2v50.6H31.4Zm94.5-1.1h95.3v73.6H126Z"/><path fill="#330" d="M137 46.8h73v42h-73z"/><path fill="#fff" d="m194 66.5-3.6-3.6v-7.3L194 52h1.2v14.5zm0 16.8-3.6-3.6v-7.2L194 69h1.2v14.4zm-42.2-16.8V52h1.2l3.7 3.6V63l-3.7 3.6zm4.9 3.6-2.4-2.4 2.4-2.4h9.6l2.4 2.4-2.4 2.4zm13.2 13.2-3.6-3.6v-7.2l3.6-3.6h1.2v14.4z"/><path fill="#330" fill-rule="evenodd" d="M230.4 32.1v11l10.8-11zm24 0-24 24.1v13.4L267.8 32Zm26.6 0-50.6 50.6h13.4l50.6-50.6zm26.6 0L257 82.7h13.4l45.2-45.2V32Zm8 18.6-32 32h13.3l18.7-18.6zm0 26.6-5.4 5.4h5.4z"/><path stroke="#330" stroke-width="2" d="M230.4 32.1h85.2v50.6h-85.2z"/><path fill="#4d4d00" fill-rule="evenodd" stroke="#330" stroke-width="2" d="M78.01 139.32H270v191.99H78.01z"/><path fill="#ffffb3" fill-rule="evenodd" stroke="#330" stroke-width="2" d="M144.83 206.15h58.33v58.33h-58.33z"/><path stroke="#330" stroke-width="2" d="M151.63 212.94h44.74v44.74h-44.74zM144.83 206.15l6.8 6.8m44.74 44.73 6.8 6.8m0-58.33-6.8 6.8m-44.74 44.73-6.8 6.8"/><path fill="#ffffb3" fill-rule="evenodd" stroke="#330" stroke-width="2" d="M203.17 206.15h58.33v58.33h-58.33z"/><path stroke="#330" stroke-width="2" d="M209.96 212.94h44.74v44.74h-44.74zM203.17 206.15l6.8 6.8m44.73 44.73 6.8 6.8m0-58.33-6.8 6.8m-44.74 44.73-6.8 6.8"/><path fill="#ffffb3" fill-rule="evenodd" stroke="#330" stroke-width="2" d="M203.17 147.81h58.33v58.33h-58.33z"/><path stroke="#330" stroke-width="2" d="M209.96 154.61h44.74v44.74h-44.74zM203.17 147.81l6.8 6.8m44.73 44.74 6.8 6.8m0-58.34-6.8 6.8m-44.74 44.74-6.8 6.8"/><path fill="#ffffb3" fill-rule="evenodd" stroke="#330" stroke-width="2" d="M144.83 147.81h58.33v58.33h-58.33z"/><path stroke="#330" stroke-width="2" d="M151.63 154.61h44.74v44.74h-44.74zM144.83 147.81l6.8 6.8m44.74 44.74 6.8 6.8m0-58.34-6.8 6.8m-44.74 44.74-6.8 6.8"/><path fill="#ffffb3" fill-rule="evenodd" stroke="#330" stroke-width="2" d="M86.5 147.81h58.33v58.33H86.5z"/><path stroke="#330" stroke-width="2" d="M93.3 154.61h44.74v44.74H93.3zM86.5 147.81l6.8 6.8m44.74 44.74 6.8 6.8m-.01-58.34-6.8 6.8M93.3 199.35l-6.8 6.8"/><path fill="#ffffb3" fill-rule="evenodd" stroke="#330" stroke-width="2" d="M86.5 206.15h58.33v58.33H86.5z"/><path stroke="#330" stroke-width="2" d="M93.3 212.94h44.74v44.74H93.3zM86.5 206.15l6.8 6.8m44.74 44.73 6.8 6.8m-.01-58.33-6.8 6.8M93.3 257.68l-6.8 6.8"/><path fill="#ffffb3" fill-rule="evenodd" stroke="#330" stroke-width="2" d="M86.5 264.48h58.33v58.33H86.5z"/><path stroke="#330" stroke-width="2" d="M93.3 271.28h44.74v44.74H93.3zM86.5 264.48l6.8 6.8m44.74 44.74 6.8 6.8m-.01-58.34-6.8 6.8M93.3 316.02l-6.8 6.8"/><path fill="#ffffb3" fill-rule="evenodd" stroke="#330" stroke-width="2" d="M144.83 264.48h58.33v58.33h-58.33z"/><path stroke="#330" stroke-width="2" d="M151.63 271.28h44.74v44.74h-44.74zM144.83 264.48l6.8 6.8m44.74 44.74 6.8 6.8m0-58.34-6.8 6.8m-44.74 44.74-6.8 6.8"/><path fill="#330" fill-rule="evenodd" d="M208.26 269.58h48.14v48.14h-48.14z"/><path fill="#fff" d="m169.85 66.5-3.6-3.6v-7.3l3.6-3.6h1.2v14.5z"/></svg>