<svg viewBox="0 0 348 348" fill="none" xmlns="http://www.w3.org/2000/svg"><path d="M5.079 5.776h336.913v337.67H5.08z" stroke-width="2" stroke="#000"/><path d="M282.734 40.554c0-8.376 6.966-15.165 15.56-15.165 4.126 0 8.084 1.597 11.001 4.441 2.918 2.844 4.558 6.702 4.558 10.724 0 8.376-6.966 15.165-15.56 15.165-8.593 0-15.559-6.79-15.559-15.165z" stroke-width="2" stroke="#000"/><g transform="translate(2.426 -.872)"><rect style="fill:#fff;stroke:#000;stroke-width:1.47493" width="58.998" height="58.998" x="17.765" y="274.21" ry="10.488"/><rect style="fill:#fff;stroke:#000;stroke-width:1.47493" width="58.998" height="58.998" x="80.529" y="274.21" ry="10.488"/><rect style="fill:#fff;stroke:#000;stroke-width:1.47493" width="58.998" height="58.998" x="143.293" y="274.21" ry="10.488"/><rect style="fill:#fff;stroke:#000;stroke-width:1.47493" width="58.998" height="58.998" x="206.057" y="274.21" ry="10.488"/><rect style="fill:#fff;stroke:#000;stroke-width:1.47493" width="58.998" height="58.998" x="268.821" y="274.21" ry="10.488"/></g><g transform="translate(2.426 -64.133)"><rect style="fill:#fff;stroke:#000;stroke-width:1.47493" width="58.998" height="58.998" x="17.765" y="274.21" ry="10.488"/><rect style="fill:#fff;stroke:#000;stroke-width:1.47493" width="58.998" height="58.998" x="80.529" y="274.21" ry="10.488"/><rect style="fill:#fff;stroke:#000;stroke-width:1.47493" width="58.998" height="58.998" x="143.293" y="274.21" ry="10.488"/><rect style="fill:#fff;stroke:#000;stroke-width:1.47493" width="58.998" height="58.998" x="206.057" y="274.21" ry="10.488"/><rect style="fill:#fff;stroke:#000;stroke-width:1.47493" width="58.998" height="58.998" x="268.821" y="274.21" ry="10.488"/></g><g transform="translate(2.426 -127.393)"><rect style="fill:#fff;stroke:#000;stroke-width:1.47493" width="58.998" height="58.998" x="17.765" y="274.21" ry="10.488"/><rect style="fill:#fff;stroke:#000;stroke-width:1.47493" width="58.998" height="58.998" x="80.529" y="274.21" ry="10.488"/><rect style="fill:#fff;stroke:#000;stroke-width:1.47493" width="58.998" height="58.998" x="143.293" y="274.21" ry="10.488"/><rect style="fill:#fff;stroke:#000;stroke-width:1.47493" width="58.998" height="58.998" x="206.057" y="274.21" ry="10.488"/><rect style="fill:#fff;stroke:#000;stroke-width:1.47493" width="58.998" height="58.998" x="268.821" y="274.21" ry="10.488"/></g><g transform="translate(2.426 -190.654)"><rect style="fill:#fff;stroke:#000;stroke-width:1.47493" width="58.998" height="58.998" x="17.765" y="274.21" ry="10.488"/><rect style="fill:#fff;stroke:#000;stroke-width:1.47493" width="58.998" height="58.998" x="80.529" y="274.21" ry="10.488"/><rect style="fill:#fff;stroke:#000;stroke-width:1.47493" width="58.998" height="58.998" x="143.293" y="274.21" ry="10.488"/><rect style="fill:#fff;stroke:#000;stroke-width:1.47493" width="58.998" height="58.998" x="206.057" y="274.21" ry="10.488"/><rect style="fill:#fff;stroke:#000;stroke-width:1.47493" width="58.998" height="58.998" x="268.821" y="274.21" ry="10.488"/></g><g transform="translate(2.426 -.872)"><rect style="fill:#fff;stroke:#000;stroke-width:1.47493" width="58.998" height="58.998" x="17.765" y="21.168" ry="10.488"/><rect style="fill:#fff;stroke:#000;stroke-width:1.47493" width="58.998" height="58.998" x="80.529" y="21.168" ry="10.488"/><rect style="fill:#fff;stroke:#000;stroke-width:1.47493" width="58.998" height="58.998" x="143.293" y="21.168" ry="10.488"/><rect style="fill:#fff;stroke:#000;stroke-width:1.47493" width="58.998" height="58.998" x="206.057" y="21.168" ry="10.488"/></g></svg>