<svg xmlns="http://www.w3.org/2000/svg" fill="none" viewBox="0 0 348 348"><path stroke="#000" stroke-width="2" d="M5.08 5.78h336.91v337.67H5.08z"/><path stroke="#000" stroke-width="2" d="M282.73 40.55c0-8.37 6.97-15.16 15.56-15.16 4.13 0 8.09 1.6 11 4.44a14.97 14.97 0 0 1 4.56 10.72c0 8.38-6.96 15.17-15.56 15.17-8.59 0-15.56-6.8-15.56-15.17zm-111.78-4.76V5.78h4.62v30.11zm4.62.11s4.03.52 3.37 3.47c-.67 2.96-2.76 2.07-2.76 2.07v10.98s7-.53 5.69 2.66c-1.3 3.19-4.73 2.75-4.73 2.75v22.36s23.42.3 20.86 4.74c-2.56 4.45-19.22-1.2-19.22-1.2v106.89s-.96 24.84-5.74 26.25c-4.8 1.41-5.34-26.33-5.34-26.33V83.86s-19.23 6.13-19 1.47c.22-4.66 20.4-5.03 20.4-5.03V57.9s-4.44.59-4.44-3.11c0-3.7 4.96-2.96 4.96-2.96V41.46s-3.03-.28-2.18-2.57c.85-2.29 3.51-3.1 3.51-3.1zM88.25 257.65h168.98v51.87H88.25z"/><path stroke="#000" stroke-width="2" d="M147.69 268.53h51.5v34.51h-51.5z"/></svg>