<svg xmlns="http://www.w3.org/2000/svg" viewBox="0 0 348 348" fill="none"><path d="M5.079 5.776h336.913v337.67H5.08z" stroke-width="2" stroke="#000"/><path d="M282.734 40.554c0-8.376 6.966-15.165 15.56-15.165 4.126 0 8.084 1.597 11.001 4.441 2.918 2.844 4.558 6.702 4.558 10.724 0 8.376-6.966 15.165-15.56 15.165-8.593 0-15.559-6.79-15.559-15.165z" stroke-width="2" stroke="#000"/><path transform="rotate(45)" fill="#fff" stroke="#000" stroke-width="3.737" d="M166.624-80.863h173.04v173.04h-173.04z"/><path d="M113.572 120.856L234.425 244.62M117.212 246.804l122.309-119.396" stroke="#000" stroke-width="3.78"/><path d="M115.756 204.932c29.096-4.293-40.09-25.87-18.594-5.8 21.497 20.072-4.77-47.474-7.059-18.152-2.29 29.321 34.143-33.33 9.791-16.837-24.351 16.491 47.346 5.913 19.269-2.843-28.077-8.757 24.896 40.703 14.236 13.292s-16.3 44.842-1.516 19.418c14.785-25.424-45.222 15.215-16.127 10.922zM179.882 143.039c29.095-4.293-40.091-25.87-18.594-5.8 21.497 20.072-4.77-47.474-7.06-18.152-2.289 29.321 34.143-33.33 9.791-16.838-24.351 16.492 47.346 5.914 19.269-2.843-28.077-8.756 24.896 40.704 14.236 13.293s-16.3 44.842-1.516 19.418c14.785-25.425-45.222 15.214-16.126 10.922zM244.676 204.932c29.096-4.293-40.091-25.87-18.594-5.8 21.497 20.072-4.77-47.474-7.06-18.152-2.289 29.321 34.143-33.33 9.792-16.837-24.352 16.491 47.345 5.913 19.268-2.843-28.076-8.757 24.896 40.703 14.237 13.292-10.66-27.411-16.3 44.842-1.516 19.418s-45.223 15.215-16.127 10.922zM179.882 266.075c29.095-4.293-40.091-25.87-18.594-5.799 21.497 20.072-4.77-47.474-7.06-18.153-2.289 29.322 34.143-33.329 9.791-16.837-24.351 16.492 47.346 5.913 19.269-2.843-28.077-8.756 24.896 40.703 14.236 13.292-10.66-27.41-16.3 44.843-1.516 19.418 14.785-25.424-45.222 15.215-16.126 10.922z" stroke="#000" stroke-width="2.268"/></svg>