<svg xmlns="http://www.w3.org/2000/svg" viewBox="0 0 348 348" fill="none" id="svg2985"><path d="M5 5.8h337v337.6H5z" stroke-width="2" stroke="#000" id="path2987"/><path d="M282.7 40.6c0-8.4 7-15.2 15.6-15.2 4 0 8 1.6 11 4.4 3 3 4.6 6.7 4.6 10.8 0 8.3-7 15-15.7 15-8.6 0-15.6-6.7-15.6-15z" stroke-width="2" stroke="#000" id="path2989"/><rect id="rect2999-9" width="128.5" height="128.5" x="40.3" y="106.1" ry="25.7" color="#000" fill="#fff" stroke="#000" stroke-width="2" overflow="visible"/><rect id="rect2999-48" width="128.5" height="128.5" x="181.7" y="106.1" ry="25.7" color="#000" fill="#fff" stroke="#000" stroke-width="2" overflow="visible"/><rect id="rect3822" width="270" height="40" x="40" y="276" ry="0" color="#000" fill="#fff" stroke="#000" stroke-width="2" overflow="visible"/><g style="text-align:center;line-height:125%;-inkscape-font-specification:Special Elite" id="text4031" font-size="32" letter-spacing="0" word-spacing="0" text-anchor="middle" fill="#000" font-family="Special Elite"><path d="M116.5 283.7c0 .3 0 .5-.2.6l-.4.3H114.6h-.5l-.6.2c-.3 0-.5.2-.7.3l-.3.4v2.9c-.2 0-.2.3-.2.4v.7c.2.2.2.4.2.6v1.5l.2.7-.2.7-.2.6v1c.2.2.2.5.2.8V301l-.2.4v.3l.2.3s0 .2.2.3v1.9c0 .5 0 1-.2 1.3v1.8c0 .2.2.2.4.3h1.4c.2 0 .4 0 .5.2.3 0 .4 0 .6.3v.5c0 .3 0 .6-.2.7l-1 .2h-1l-1.4-.3h-.4-.3c-.4 0-.7 0-1-.2l-.2-.8v-1-1-1l-.2-1v-.7-.5-1c.2-.2.3-.5.3-.8v-.4-.4-.5-.5-.5-.5l-.2-.5v-.6-1c.2-.4.2-.8.2-1.2v-1-.8-.5-.5-.3l-.2-.3v-.8c.2-.2.2-.4.2-.6v-1l-.2-1.2c0-.3 0-.6.2-1v-1-.5-.5-.7s0-.3.2-.5c0-.2.2-.3.4-.4h4c.2-.2.4-.2.6-.2.4 0 .6 0 1 .2 0 0 .3.4.3.7z" id="path4036"/><path d="M136.5 306.5v.4h-.3l-.4.2h-.4H133.7c-.2.2-.5.3-.7.3h-.2-.2-.5-1.4c-.2 0-.5 0-.8-.2-.5 0-.8-.2-1-.5-.4-.4-.5-.8-.5-1.2l1-.5h2.3c0-.7 0-1.5-.2-2.2l-.2-2.4v-.8c0-.3 0-.6.2-.8 0-.3 0-.6.2-.8v-.8-.5c0-.2 0-.3-.2-.5v-.4l-.2-.5v-.5c-.2 0-.3-.3-.4-.4l-.6-.3h-1-.6c-.2 0-.5 0-.7.2-.4 0-.6 0-.8.2-.3 0-.4.2-.5.2 0 0 0 .2-.2.3 0 0-.2 0-.3.2l-.2.2s-.2 0-.2.2h-.4-.2v.3s-.2 0-.2.2c0 0 0 .2-.2.3 0 0 0 .2-.2.2 0 0 0-.2-.2-.2v.6l-.3.2h-.2v.7s-.2 0-.2.2c0 0 0 .2-.2.3v2.1c-.2 0-.2.2-.3.3 0 .3 0 .4.2.5 0 .2 0 .3.2.4v.3c.2 0 .2.3.2.4v1.6s0 .2.3.3h.2l.5.3h.4l.6.6c.3 0 .4 0 .5.2.2 0 .2.3.2.4v.4c-.2 0-.2.2-.2.4 0 0 0 .3-.4.3l-1 .2h-1.5-3.3l-.8-.3c-.3 0-.4-.2-.4-.3 0-.3 0-.4-.2-.5v-.5-.4l.3-.4.5-.2h1.1c.2 0 .4-.2.5-.4l.3-.6c.2-.3.2-.7.2-1.2v-.4-.4l-.2-.4v-.2-.2s0-.2.2-.3v-.3l.2-.3c0-.2 0-.4-.2-.5v-.7-.4-.5-.3-.4-.3-.4-.7l-.2-1c0-.2-.2-.4-.4-.6 0-.2-.3-.3-.6-.4-.2 0-.4 0-.6-.2h-.7l-.5-.6-.2-1s0-.4.3-.5c0-.2.3-.4.5-.4h.8l.6-.2c.3 0 .6 0 1 .2h.8l.4.3s.3 0 .4.2c0 0 0 .2.2.3v.4l.2.3v.5c.2 0 .2.3.3.4l.2.2.2-.2v-.2-.2c.3 0 .4-.2.6-.4l.4-.3h.4v-.4c.2 0 .2 0 .2-.2h.2c0-.2 0-.2.2-.2s.3 0 .4-.2l.5-.3.5-.3 1-.2h1.2c.4 0 .8 0 1 .2.5 0 .8.3 1 .5.4 0 .7.3 1 .7 0 .3.3.5.4.6.2 0 .3.3.4.4v1.4l.2.4s0 .2.2.3c0 .2 0 .3.2.4v2.8c0 .3 0 .5-.2.8l-.2.8v.3c.2 0 .2.3.2.4V303.5l-.2.2V304.2l.4.5.4.3h1.5l.3.6s0 .3.2.5v.5zm-3.3-6v-.2h-.4-.2v.7h.4l.2-.4zm.2 3s-.2 0-.2-.2v.2c-.2 0-.2 0-.3.2-.2 0-.2.2-.3.2v.3h.2l.2-.2.2-.2v-.2zm-10.4-3.2v-.3-.3c-.2 0-.2-.2-.3-.3h-.2-.3-.5v.5l.2.2h.3c0 .2.2.2.3.3h.3v-.2z" id="path4038"/><path d="M157.2 306s0 .3-.2.5c0 .2-.3.4-.5.6 0 .3-.3.4-.5.5l-.6.2h-1l-1-.2h-1l-.6-.4c-.2 0-.3-.2-.4-.4 0 0 0-.3-.2-.5 0 0-.3 0-.5-.2l-1.7.8-1.3.6-1.4.4-1.8.2h-.7l-.2-.2s0-.2-.2-.3c0 0 0-.2-.3-.4 0-.2 0-.2-.2-.3h-.2-.3s0-.2-.2-.3c0-.2 0-.3-.2-.5 0-.2 0-.4-.2-.6l-.3-.4c-.2 0-.3-.2-.4-.3V303c0-1 0-2 .2-3v-3-.7-.8c0-.3 0-.6-.2-.8 0-.2-.2-.4-.3-.4H139c-.2 0-.5 0-.7-.2-.2 0-.4 0-.6-.3-.2 0-.3-.2-.4-.4l-.2-.5c0-.3 0-.5.3-.7l1-.3c.2-.2.5-.2.8-.3h.8c.6 0 1 0 1.6.2.4.2 1 .4 1.3.8 0 .4 0 .7.2 1v4.6c.2.3.2.6.2 1v.7c0 .3-.2.6-.3.8 0 .3 0 .6-.2.8v2l.8.8c.2.4.5.5 1 .7l1 .2c.3 0 .5 0 .7-.2.2 0 .4 0 .5-.2l.3-.3h1.1c0-.2 0-.2.2-.3l.2-.3h.4l.6-.3c.2 0 .2-.3.2-.6 0-.2 0-.2.2-.2h.4v-.2c0-.2.2-.4.3-.5l.4-.6v-.6c.2-.2.2-.4.2-.6v-.5c-.2 0-.2-.3-.2-.4v-.7l.2-.6s0-.2-.2-.3v-.3-.3-.4-.3c-.2 0-.2-.2-.3-.3v-.3-.3-.3-.3c0-.2 0-.3-.3-.4l-.4-.2H148.6l-.4-.4-.3-.6v-.4c0-.2 0-.4.2-.6l.8-.3 1-.2h3.5l.3.6.2 1V296.8c.2.3.2.7.2 1v.3s0 .2-.2.3v.3c-.2 0-.2.2-.2.3v.2l.2 1-.2.2v.5l.2.5v.6l-.2.6c0 .4.2.7.5 1 .5.2.8.4 1.3.4.2 0 .5 0 .7-.2 0 .2.2.3.3.5.2 0 .3.2.4.3.2 0 .3.3.3.4l.2.5z" id="path4040"/><path d="M178 306.2v.3l-.3.5v.4h-.4-1.7c-.4.2-.8.2-1 .2h-.6l-.5-.2c-.2 0-.3 0-.5-.2h-.4c-.3 0-.5-.2-.6-.4l-.2-.6c0-.3 0-.5.2-.7l.5-.6.5-1c.2-.2.3-.6.3-1 0-1 0-2.2-.2-3.2v-3.5-.6c0-.3 0-.5-.2-.7l-.4-.4-.6-.2-.7.5-.5.5s0 .3-.2.5l-.2 1-.2 1v1c-.2.2-.2.5-.3.8V301.6l.2 1.2v1.7l.4.2c.2 0 .4.2.5.3.2 0 .3.3.4.4v.4c0 .3 0 .6-.3.8l-.8.2h-.3-.2-.3s-.2 0-.3.2h-.4l-.3.2c-.4 0-.7 0-1-.2h-1l-.2-.2v-.3-.3c-.2 0-.2-.2-.2-.3v-.5c.2 0 .3-.2.4-.3 0 0 .3 0 .4-.2l.4-.3.3-.6v-.8-.5-.4l-.2-.4v-.6-.8c.2-.3.2-.5.2-.8v-.6c-.2-.2-.2-.3-.2-.5v-.4c.2 0 .2-.2.2-.3v-.3-.4-.4l-.2-.6v-.6l.2-.5v-.4l-.3-.3-.5-.2h-.8c-.2 0-.3.2-.5.3l-.4.3c0 .3-.3.4-.4.5v.3s0 .2-.2.3c0 0 0 .2-.2.2 0 0-.2 0-.3.2h-.2v.5h.2v1.7s0 .3-.2.5v2.3h.2v.2c.2 0 .2.2.2.4V305.2c0 .3.2.3.3.4h.3s.2 0 .3.2l.2.2v1c-.2 0-.3.2-.5.3l-2 .5H160h-.3l-.2-.3v-.7c0-.2 0-.4.2-.6l.6-.7c.2 0 .4-.3.6-.5l.2-.6v-.3-.3-.3s0-.2.2-.3v-.6l-.2-.6c0-.3 0-.5-.2-.7v-.6-1.4c.2-.5.2-1 .2-1.5v-.8-.8-.8l-.3-.5-.5-.4-.7-.3c-.2 0-.3-.2-.4-.4-.2 0-.2-.3-.2-.5v-.3l.5-.2h.3l.3-.4h1.1c.3 0 .6.2.8.3l.7.3h1.2l.8-.5c.3 0 .7-.2 1-.4l1.2-.2h.6l.5.4.5.4.4.5 1-.7 1-.4 1-.2h1.8l.6.6c0 .3.3.5.4.8l.3 1 .3.8c0 .2 0 .5.2.7v1.1c-.2 0-.2.3-.3.4v2.9l.2.5v.6l-.2.4-.2.5V302l.6 1.5c0 .2 0 .5.4.7.2 0 .4.3.6.5.3 0 .5.3.6.5.2.2.3.4.3.7z" id="path4042"/><path d="M195.8 299l-.2.4-.4.2c0 .2.2.4.3.5l.2.7v.5l-.2.4-.2.4-.2.4-.2 1-.6 1-.7 1.2-.6.7-.4.2h-.4c0 .2-.3.2-.4.2h-.4l-.7.5-.8.2h-.4l-.3-.2s0-.2-.2-.2h-.8c-.2.2-.4.2-.6.2H186.3c-.5 0-1 0-1.3-.2l-1-1-.4.3s-.2 0-.2.2h-.2v-.2h-.4l-.2.2v.2h-.4-.3c-.2 0-.3 0-.3-.2v-.3l.2-.3c0-.3-.2-.4-.2-.5v-.4-.3-.4-.5s0-.3-.2-.4v-.5c-.2-.2-.2-.4-.2-.6v-.6l.3-.6v-.2l-.2-.3v-.2-.4-.6-.5-1-.7-1-1.2-.4-.4c.2 0 .2-.2.3-.4v-.4-.8c0-.3 0-.5-.2-.8v-.8l-.2-1v-.4-.5c0-.4 0-.7-.2-1l-.6-.5-.8-.2h-1c0-.2-.3-.2-.5-.4s-.2-.4-.2-.8c0-.2 0-.5.3-.6 0-.2.3-.3.5-.4l.7-.2h2.3c.5.2 1 .3 1.6.3 0 0 .2 0 .2.2v5.5c0 .3 0 .5.2.8 0 .3 0 .5.2.7 0 .2.2.2.3.2h.3l.2-.2.3-.3h.3c.3-.2.5-.3.8-.3.3-.2.6-.2.8-.2h.3c.2 0 .3-.2.4-.3h.3c0-.2.2-.2.3-.2h.5l.4.2s0 .2.3.2h.4l.6.2h.7l.2.2s0 .2.2.2c0 0 .3 0 .4.2h.7l.4.3s.3 0 .4.3c.2 0 .4.2.5.4l.4.4.3.7.3 1.3.6 1.2.4.8.2 1zm-1.6.5s0-.2-.2-.3c0 0-.2 0-.3-.2h-.3v-.4l.2-.2s0-.4-.2-.6l-.4-.7v-.3c0-.2 0-.3-.2-.4 0 0 0-.2-.2-.3l-.3-.3c-.2 0-.3-.2-.3-.2h-.2c0-.2 0-.2-.2-.3 0 0 0-.2-.2-.3 0-.3 0-.4-.2-.5h-.3l-.4-.2h-.4l-1-.5h-1c-.8 0-1.4 0-1.8.2-.5.2-1 .5-1.2 1-.3.3-.6.8-.7 1.3l-.4 1.8v.8c0 .3 0 .5-.2.8v.7c-.2.3-.2.5-.2.8v.5c.3.2.4.4.4.7v.6l.2.6c0 .2.3.3.5.4.2 0 .3 0 .4.2h.3v.4c.2 0 .2.2.3.3h.7c.2-.2.5-.2.7-.2 0 0 0 .2.2.3 0 0 .3 0 .4.2h2.2c.2 0 .4-.2.5-.3.2 0 .3-.2.4-.4l.6-.6.6-.3.6-.3c.2 0 .3-.3.4-.6 0-.4.3-.7.4-1l.2-1.3v-.3l-.2-.4.4.3H194.2z" id="path4044"/><path d="M213 303.6v.8l-.4.5-.5.3c0 .2-.3.3-.4.5-.2 0-.3.2-.4.3l-.4.2h-.3c0 .2-.3.2-.4.3l-.5.3-.4.2-.3.2h-.7l-1.2.3h-1.3-.2-.7c-.2-.2-.3-.2-.5-.2h-.4l-.4-.3-.3-.3-.5-.2-1.6-1c-.5-.5-1-1-1.2-1.4l-.8-1.5c-.2-.5-.4-1-.5-1.8l-.2-1.3c0-.6.2-1 .4-1.6v-.8-1l.5-1 .6-1.2c.2-.3.4-.5.6-.5 0 0 .2 0 .3-.2v-.2s0-.2.2-.3l.3-.2h.4c0-.2.3-.2.4-.3.4 0 .8-.3 1.2-.4l1-.4c.4 0 .7 0 1-.2h2l.6.3.6.3.6.4h.4c0 .2.3.2.5.3l.4.5c.3 0 .5.3.7.5l.7.5.2.7v.4h.2V295.7c.2 0 .3.2.4.3.2 0 .3 0 .4.3l-.2.4v.5c.2.2.2.3.2.5v1.2s0 .2-.2.3c0 0-.3 0-.4.2 0 0-.3 0-.4.2v.3h-.3H210c-.4-.2-.8-.3-1.3-.3h-1.4c-.5.2-1 .2-1.5.2H203h-.7c-.3 0-.5.2-.8.3-.3 0-.5 0-.6.2v.2c0 .5 0 1 .4 1.5.2.5.6 1 1 1.4.6.5 1 .8 1.7 1 .7.4 1.2.5 1.8.5.4 0 .7 0 1 .2.4 0 .7 0 1 .2.3 0 .6-.3.8-.5l.7-.6.6-.6.6-.7H212c0-.2.2-.2.3-.2h.7v.8zm-2.3-6.3v-.4c0-.3 0-.4-.2-.6v-1s0-.4-.2-.7v.2h-.2-.3c0-.2-.2-.3-.3-.4-.4 0-.7-.3-1-.5-.4 0-.7 0-1-.3l-1-.2H205l-.8.3c-.2 0-.4 0-.5.2-.2 0-.3 0-.4.3-.2 0-.4.2-.6.4l-.3.2h-.4s-.2 0-.3.2c0 0-.2 0-.3.2l-.3.7v1.3l.6.3.6.3h7.8c.2-.2.3-.3.5-.3s.2-.2.2-.4z" id="path4046"/><path d="M232.6 295.5c0 .2 0 .4-.2.5 0 .2 0 .3-.2.5l-.3.4c-.2 0-.3 0-.3.3h-.3-1.7c-.3 0-.5 0-.7-.2-.3 0-.4-.3-.5-.5l-.2-.8v-.8-1h-.2-.2c0 .2 0 .2-.2.2h-.3c0-.2 0-.2-.2-.2h-.5l-.7.5-.6.5-.2.6h-.6l-.6.5-.3.4-.3.6c0 .2 0 .4-.2.6 0 .2-.2.4-.3.5l-.4.8c-.2.3-.2.5-.2.8 0 .4 0 .8.2 1l.2 1.3V304c0 .2.3.4.5.5l.5.2h2v.2c.2 0 0 0 0 0v.8h.5l.3-.4h.2V306h-.2v.5c0 .2 0 .2-.2.3h-.6l-.3-.2v-.2h-.4-.2-.2-.2v.8h-.2-.2-1.4l-1.3-.2-.6.3h-.6-.3v-.2h-.3-1.4c0 .2-.3.2-.5.2h-.6-.4-.4c-.3 0-.4-.2-.5-.3v-.5-.3l.4-.4s0-.2.3-.3l.2-.2h2l.7-.4.5-.8c.2-.2.3-.5.3-.8v-.4-.4-.8-.8-1.2-1-1-1.2-.6l-.2-1-.3-.7c0-.3-.3-.4-.5-.4h-1.4H216.3l-.5-.5c-.2 0-.3-.3-.3-.5v-.7c.2 0 .3-.3.4-.3l.3-.2H221c.2 0 .4.2.5.4l.2.5c0 .2 0 .3.2.5l.5.2h.3l.3-.3h.2l.3-.2c.2 0 .4 0 .6-.2.2 0 .4-.3.6-.4l.6-.3c.2-.2.4-.2.6-.2h.5c.2 0 .4 0 .6-.2.2 0 .4 0 .6-.2l.3-.3 1 .3c.4 0 .8.3 1 .5l1 .6c.3.3.4.6.5 1 0 0 0 .3.2.5l.2.4c0 .2.2.4.3.5v.5z" id="path4048"/><path d="M240.3 295c0 .2 0 .6-.2 1v4.3c.2 0 .2.2.2.3v.8c-.2.2-.2.4-.2.7v1l.2 1.2v.7l-.2.6v2.3s0 .3-.2.5c0 .2-.2.3-.4.4h-.7-.3-3c-.2.2-.4.2-.6.2-.3 0-.6 0-1-.2l-.2-.7v-.6l.6-.3h1.6c.2 0 .4 0 .6-.2.3 0 .5-.2.7-.3l.3-.4v-.4-.4-.4-.4-.5-.5-.3c.2 0 .2-.2.2-.4v-.7c-.2-.2-.2-.4-.2-.6v-.4-.4-.7l-.2-.7.2-.7.2-.6v-1c-.2-.2-.2-.5-.2-.8v-.7-1-.7-1-.3-.5-.5-.5-.5l.2-.4c0-.3 0-.4-.2-.6l-.2-.5v-.3-.3-.6-.5c0-.5 0-1 .2-1.3v-1.3-.5c-.3-.3-.4-.3-.7-.3H235c-.2 0-.4-.2-.5-.3-.2-.2-.2-.4-.2-.7 0-.3 0-.6.3-.7l1-.2h1l1.4.3h.7c.4 0 .7 0 1 .2l.2.8v3c.2.4.2.7.2 1v2.2c-.2.2-.2.5-.2.8v2.8l.2.5v.6z" id="path4050"/></g><g id="g3009" color="#000" fill="#fff" stroke="#000"><path d="M160.3 39.6c8.3 0 15 6.7 15 15s-6.7 15-15 15-15-6.7-15-15 6.7-15 15-15z" id="path3824" stroke-width="2" overflow="visible"/><path id="path3051" d="M160.3 64.6v-20l-50-5v30z" overflow="visible"/><path id="rect3821" overflow="visible" d="M105.3 69.6v-30h5v30z"/></g></svg>