<svg xmlns="http://www.w3.org/2000/svg" viewBox="0 0 348 348" fill="none"><path d="M5.079 5.776h336.913v337.67H5.08z" stroke-width="2" stroke="#000"/><path d="M282.734 40.554c0-8.376 6.966-15.165 15.56-15.165 4.126 0 8.084 1.597 11.001 4.441 2.918 2.844 4.558 6.702 4.558 10.724 0 8.376-6.966 15.165-15.56 15.165-8.593 0-15.559-6.79-15.559-15.165z" stroke-width="2" stroke="#000"/><path fill="#000" stroke="#fff" d="M36.864 22.119h103.22v57.508H36.864zM85.525 150.407h70.78v106.169h-70.78zM191.695 150.407h70.78v106.169h-70.78zM141.56 143.034l-41.183.183 20.432-35.756zM247.674 141.807l-41.183.184 20.433-35.757zM101.69 264.197l44.672.752-22.987 38.31zM207.69 264.82l44.671.751-22.986 38.31z"/></svg>