<svg xmlns="http://www.w3.org/2000/svg" xmlns:xlink="http://www.w3.org/1999/xlink" fill="none" stroke="#000" stroke-width="2" viewBox="0 0 347 347"><path stroke="#404040" d="M5 5h337v337H5z"/><circle cx="298" cy="40" r="16"/><path stroke="#404040" stroke-width="1.59" d="M261.68 195.62v22.17m0-91.09v22.53M85.32 193.3v22.17m0-91.1v24.86"/><path stroke-linecap="round" stroke-width=".63" d="M41.47 127.27h263.89v88.06H41.47z"/><rect width="15.94" height="15.94" x="33.28" y="119.07" fill="#ededed" stroke-width=".63" ry="4.05"/><rect width="15.94" height="15.94" x="55.31" y="119.07" fill="#999" stroke-width=".63" ry="4.05"/><rect width="15.94" height="15.94" x="99.39" y="119.07" fill="#999" stroke-width=".63" ry="4.05"/><rect width="15.94" height="15.94" x="143.47" y="119.07" fill="#999" stroke-width=".63" ry="4.05"/><rect width="15.94" height="15.94" x="77.35" y="119.07" fill="#adadad" stroke-width=".63" ry="4.05"/><rect width="15.94" height="15.94" x="121.43" y="119.07" fill="#ededed" stroke-width=".63" ry="4.05"/><rect width="15.94" height="15.94" x="165.51" y="119.07" fill="#ededed" stroke-width=".63" ry="4.05"/><rect width="15.94" height="15.94" x="187.54" y="119.07" fill="#999" stroke-width=".63" ry="4.05"/><rect width="15.94" height="15.94" x="209.58" y="119.07" fill="#ededed" stroke-width=".63" ry="4.05"/><rect width="15.94" height="15.94" x="231.62" y="119.07" fill="#999" stroke-width=".63" ry="4.05"/><rect width="15.94" height="15.94" x="253.71" y="119.07" fill="#adadad" stroke-width=".63" rx="4.05" ry="4.05"/><rect width="15.94" height="15.94" x="99.39" y="207.28" fill="#999" stroke-width=".63" rx="4.05" ry="4.05"/><rect width="15.94" height="15.94" x="143.47" y="207.28" fill="#999" stroke-width=".63" rx="4.05" ry="4.05"/><rect width="15.94" height="15.94" x="77.35" y="207.28" fill="#adadad" stroke-width=".63" rx="4.05" ry="4.05"/><rect width="15.94" height="15.94" x="121.43" y="207.28" fill="#ededed" stroke-width=".63" rx="4.05" ry="4.05"/><rect width="15.94" height="15.94" x="165.51" y="207.28" fill="#ededed" stroke-width=".63" rx="4.05" ry="4.05"/><rect width="15.94" height="15.94" x="187.54" y="207.28" fill="#999" stroke-width=".63" rx="4.05" ry="4.05"/><rect width="15.94" height="15.94" x="209.58" y="207.28" fill="#ededed" stroke-width=".63" rx="4.05" ry="4.05"/><rect width="15.94" height="15.94" x="231.62" y="207.28" fill="#999" stroke-width=".63" rx="4.05" ry="4.05"/><rect width="15.94" height="15.94" x="253.71" y="207.28" fill="#adadad" stroke-width=".63" rx="4.05" ry="4.05"/><rect width="15.94" height="15.94" x="33.28" y="141.11" fill="#999" stroke-width=".63" ry="4.05"/><rect width="15.94" height="15.94" x="33.28" y="163.15" fill="#ededed" stroke-width=".63" ry="4.05"/><rect width="15.94" height="15.94" x="33.28" y="185.24" fill="#999" stroke-width=".63" rx="4.05" ry="4.05"/><rect width="15.94" height="15.94" x="33.28" y="207.28" fill="#ededed" stroke-width=".63" rx="4.05" ry="4.05"/><rect width="15.94" height="15.94" x="55.31" y="207.28" fill="#999" stroke-width=".63" rx="4.05" ry="4.05"/><rect width="15.94" height="15.94" x="275.75" y="119.07" fill="#999" stroke-width=".63" rx="4.05" ry="4.05"/><rect width="15.94" height="15.94" x="297.79" y="185.24" fill="#999" stroke-width=".63" rx="4.05" ry="4.05"/><rect width="15.94" height="15.94" x="297.79" y="119.07" fill="#ededed" stroke-width=".63" rx="4.05" ry="4.05"/><rect width="15.94" height="15.94" x="297.79" y="163.15" fill="#ededed" stroke-width=".63" rx="4.05" ry="4.05"/><rect width="15.94" height="15.94" x="297.79" y="141.11" fill="#999" stroke-width=".63" rx="4.05" ry="4.05"/><rect width="15.94" height="15.94" x="297.79" y="207.28" fill="#ededed" stroke-width=".63" rx="4.05" ry="4.05"/><rect width="15.94" height="15.94" x="275.75" y="207.28" fill="#999" stroke-width=".63" rx="4.05" ry="4.05"/><rect width="15.94" height="15.94" x="77.35" y="185.24" fill="#a1a1a1" stroke="#404040" stroke-width="1.59" rx="4.05" ry="4.05"/><rect width="15.94" height="15.94" x="77.35" y="141.11" fill="#a1a1a1" stroke="#404040" stroke-width="1.59" ry="4.05"/><rect width="15.94" height="15.94" x="253.71" y="185.24" fill="#a1a1a1" stroke="#404040" stroke-width="1.59" rx="4.05" ry="4.05"/><rect width="15.94" height="15.94" x="253.71" y="141.11" fill="#a1a1a1" stroke="#404040" stroke-width="1.59" rx="4.05" ry="4.05"/><circle cx="173.17" cy="171.03" r="26.44" fill="#fff" stroke="#999" stroke-linecap="square" stroke-width="1.9"/><path fill="#326896" stroke="none" d="M173.17 149.4a24.66 24.66 0 0 0-2.48 10.81c0 3.88.89 7.55 2.48 10.82a24.66 24.66 0 0 0 2.47-10.82c0-3.87-.89-7.54-2.47-10.8z"/><path fill="#646464" stroke="none" d="M154.44 160.21a24.6 24.6 0 0 0 8.13 7.55c3.35 1.94 6.97 3 10.6 3.27a24.83 24.83 0 0 0-18.73-10.82z"/><path fill="#2e8a38" stroke="none" d="M154.44 181.84a24.66 24.66 0 0 0 10.6-3.27 24.66 24.66 0 0 0 8.13-7.54 24.66 24.66 0 0 0-10.6 3.26 24.66 24.66 0 0 0-8.13 7.55z"/><path fill="#797e2a" stroke="none" d="M173.17 192.65a24.66 24.66 0 0 0 2.47-10.81c0-3.88-.89-7.55-2.47-10.81a24.66 24.66 0 0 0-2.48 10.8c0 3.88.89 7.55 2.48 10.82z"/><path fill="#963232" stroke="none" d="M191.89 181.84a24.66 24.66 0 0 0-8.12-7.55c-3.36-1.94-6.98-3-10.6-3.26a24.78 24.78 0 0 0 18.72 10.81z"/><path fill="#793296" stroke="none" d="M191.89 160.21a24.66 24.66 0 0 0-10.6 3.27 24.66 24.66 0 0 0-8.12 7.55 24.66 24.66 0 0 0 10.6-3.27 24.66 24.66 0 0 0 8.12-7.55z"/><circle cx="85.32" cy="105.17" r="8.81" fill="#999" stroke-width=".63"/><circle cx="261.68" cy="105.17" r="8.81" fill="#ccc" stroke-width=".63"/><circle cx="85.32" cy="237.36" r="8.81" fill="#666" stroke-width=".63"/><circle cx="261.68" cy="237.36" r="8.81" fill="#333" stroke-width=".63"/><path fill="#999" stroke-width=".7" d="M38.14 114.52c0 2.1 1.04 1.74 1.04 3.83 0 2.8-2.44 3.5-2.44 9.77 0 3.49 2.1 3.14 4.54 3.14s4.53.35 4.53-3.14c0-6.28-2.44-6.98-2.44-9.77 0-2.09 1.05-1.74 1.05-3.83 0-2.1-1.05-3.14-3.14-3.14-2.1 0-3.14 1.05-3.14 3.14z"/><rect width="15.94" height="15.94" x="33.28" y="207.28" fill="#ededed" stroke-width=".63" rx="4.05" ry="4.05"/><rect width="50.12" height="83.2" x="55.44" y="249.71" fill="#fff" rx="4.05" ry="4.05"/><rect width="50.12" height="83.2" x="103.13" y="249.71" fill="#fff" rx="4.05" ry="4.05"/><rect width="50.12" height="83.2" x="150.83" y="249.71" fill="#fff" rx="4.05" ry="4.05"/><rect width="50.12" height="83.2" x="198.52" y="249.71" fill="#fff" rx="4.05" ry="4.05"/><rect width="50.12" height="83.2" x="246.22" y="249.71" fill="#fff" rx="4.05" ry="4.05"/><g transform="matrix(.08 0 0 .08 22.86 22.04)"><rect width="600" height="1000" y="52.36" fill="#fff" stroke-width="6.02" rx="40" ry="40"/><rect width="550" height="950" x="25" y="77.36" fill="#000" stroke="none" ry="25"/><path stroke="#fff" stroke-width="21.69" d="m300 77.36 275 475-275 475-275-475Z"/><path stroke="#fff" stroke-width="12.05" d="m25 77.36 550 950m0-950-550 950m275-725 150 250-150 275-150-275z"/><path stroke="#fff" stroke-width="9.04" d="M300 77.36v225"/><path stroke="#fff" stroke-width="12.05" d="M450 552.36h125"/><path stroke="#fff" stroke-width="9.04" d="M300 827.36v200"/><path stroke="#fff" stroke-width="12.05" d="M150 552.36H25"/><path stroke="#fff" stroke-width="9.04" d="M300 302.36v525m150-275H150"/></g><path id="a" fill="#000" stroke="none" stroke-width="5" d="M103.2 96.1v18.14h3.21v-1.38h-1.35V97.49h1.35v-1.4h-3.21zm48.26 0v1.4h1.37v15.36h-1.37v1.38h3.24V96.1h-3.24zm-43.55 1.97v13.27h1.85v-9.86l.05-.01 5.03 9.87h1.84V98.07h-1.84v9.82l-.05.02-5.03-9.84h-1.85zm14.57 0-4.08 13.27h1.88l.96-3.36h4.23l.97 3.36h1.87l-4.04-13.27h-1.79zm7.27 0v13.27h1.84v-5.1l-.18-5.1h.06l3.18 10.2h1.22l3.2-10.21h.05l-.17 5.11v5.1h1.83V98.07h-2.39l-3.1 10.82h-.06l-3.1-10.82h-2.38zm13.57 0v13.27h7.55v-1.4h-5.7v-4.76h4.92v-1.42h-4.92V99.5h5.65v-1.42h-7.5zm-19.98 2.65h.05l1.66 5.8h-3.38l1.67-5.8z"/><use xlink:href="#a" transform="translate(0 132.19)"/><use xlink:href="#a" transform="translate(90.4 132.19)"/><use xlink:href="#a" transform="translate(90.4)"/><path id="b" fill="#000" stroke="none" stroke-width="5" d="M68.84 260.34v4.16h1.79v-1.75h19.76v1.75h1.78v-4.16H68.84zm9.85 5.4a7.9 7.9 0 0 0-5.27 1.72 5.5 5.5 0 0 0-2.05 4.43v4.68h17.06v-4.68c0-1.82-.68-3.3-2.04-4.43a7.9 7.9 0 0 0-5.27-1.73h-2.43zm-.02 2.36h2.45c1.62 0 2.95.35 3.97 1.04a3.23 3.23 0 0 1 1.53 2.83v2.23H73.2v-2.23c0-1.2.5-2.14 1.53-2.83a6.83 6.83 0 0 1 3.94-1.04zm9.49 10.98c-.26.26-.6.44-1.05.55-.46.1-.95.16-1.47.16h-1.49a5.2 5.2 0 0 0-2.55.57 3.1 3.1 0 0 0-1.48 1.84 4.12 4.12 0 0 0-3.89-2.4c-1.56 0-2.76.45-3.6 1.33a5.3 5.3 0 0 0-1.25 3.75v5.31h17.05v-2.38h-7.35v-3.22c0-.76.28-1.35.83-1.78a3.56 3.56 0 0 1 2.27-.66h1.44c.58 0 1.13-.03 1.65-.1.52-.08.9-.25 1.16-.52v-2.45h-.27zm-11.88 3.1c.95 0 1.69.24 2.21.7.52.45.78 1.16.78 2.12v2.81H73.2v-2.93c0-.9.26-1.58.8-2.02.54-.45 1.3-.67 2.28-.67zm12.15 9.92-17.06 5.2v2.3l17.06 5.25v-2.41l-4.31-1.24v-5.44l4.31-1.24v-2.42zm-6.2 4.2v4.34l-7.45-2.14v-.07l7.45-2.13zm-5.73 9.8c-1.76.02-3.1.48-4 1.38-.92.9-1.38 2.18-1.38 3.85a5 5 0 0 0 1.7 3.96c1.13.99 2.7 1.48 4.72 1.48h4.74c2.01 0 3.58-.5 4.7-1.5a5.1 5.1 0 0 0 1.7-4c0-1.65-.47-2.92-1.4-3.82-.94-.9-2.26-1.35-3.96-1.36l-.07.04v2.26c1.27.02 2.19.25 2.77.72.57.45.85 1.17.85 2.15 0 1-.4 1.78-1.18 2.33-.8.55-1.93.82-3.41.82H77.5a5.95 5.95 0 0 1-3.38-.8 2.6 2.6 0 0 1-1.18-2.28c0-1 .3-1.74.88-2.21.58-.47 1.5-.72 2.74-.74v-2.25l-.07-.04zm-7.66 12.04v4.14h23.33v-4.14h-1.78v1.74H70.63v-1.74h-1.8z"/><use xlink:href="#b" transform="translate(47.7)"/><use xlink:href="#b" transform="translate(95.39)"/><use xlink:href="#b" transform="translate(143.08)"/><use xlink:href="#b" transform="translate(190.78)"/></svg>