<svg fill="none" stroke-linecap="square" stroke-miterlimit="10" viewBox="0 0 348 348" xmlns="http://www.w3.org/2000/svg"><clipPath id="a"><path d="M0 0h348v348H0V0z"/></clipPath><g clip-path="url(#a)"><path d="M0 0h348v348H0z" fill="none"/><path d="M-6 0h348v347.97H-6z" fill="#fff"/><path d="M5.079 5.776h336.91v337.67H5.079z" fill="none"/><path d="M5.079 5.776h336.91v337.67H5.079z" stroke="#000" stroke-linecap="butt" stroke-linejoin="round" stroke-width="2"/><path d="M282.73 40.554c0-8.376 6.966-15.165 15.559-15.165 4.127 0 8.084 1.598 11.002 4.442 2.918 2.844 4.557 6.701 4.557 10.724 0 8.375-6.966 15.165-15.559 15.165s-15.559-6.79-15.559-15.165z" fill="#fff"/><path d="M282.73 40.554c0-8.376 6.966-15.165 15.559-15.165 4.127 0 8.084 1.598 11.002 4.442 2.918 2.844 4.557 6.701 4.557 10.724 0 8.375-6.966 15.165-15.559 15.165s-15.559-6.79-15.559-15.165z" stroke="#000" stroke-linecap="butt" stroke-linejoin="round" stroke-width="2"/><path d="M173.305 18.958L311.367 157.02l-34.731 34.732-34.732 34.731-69.463 69.464-34.516-34.516L34.376 157.882l34.732-34.732 34.731-34.731 34.732-34.732zM54.741 309.94h232.52v24.503H54.741z" stroke="#121212" stroke-linecap="butt" stroke-linejoin="bevel" stroke-miterlimit="4" stroke-width="3.024"/><g fill="#000"><g aria-label="&lt;CHIP CODE&gt;"><path d="M69.53 159.056v-2.625l15.172-6.407v2.797L72.67 157.76l12.03 4.984v2.797zM105.283 161.046l3.031.765q-.953 3.735-3.437 5.703-2.47 1.953-6.047 1.953-3.703 0-6.031-1.5-2.313-1.515-3.532-4.375-1.203-2.86-1.203-6.14 0-3.578 1.36-6.235 1.375-2.672 3.89-4.047 2.531-1.39 5.563-1.39 3.437 0 5.78 1.75t3.267 4.922l-2.985.703q-.797-2.5-2.312-3.64-1.516-1.141-3.813-1.141-2.64 0-4.422 1.265-1.765 1.266-2.484 3.406-.719 2.125-.719 4.391 0 2.922.844 5.11.86 2.171 2.656 3.25 1.797 1.078 3.89 1.078 2.548 0 4.313-1.47 1.766-1.468 2.39-4.359zM112.153 169.076V146.17h3.031v9.406h11.906v-9.406h3.031v22.906h-3.03v-10.797h-11.907v10.797zM135.703 169.076V146.17h3.031v22.906zM144.063 169.076V146.17h8.64q2.282 0 3.485.218 1.687.282 2.828 1.078 1.14.782 1.828 2.203.703 1.422.703 3.125 0 2.922-1.86 4.954-1.859 2.015-6.718 2.015h-5.875v9.313zm3.031-12.016h5.922q2.938 0 4.172-1.094 1.234-1.094 1.234-3.078 0-1.438-.734-2.453-.719-1.032-1.906-1.36-.766-.203-2.828-.203h-5.86zM190.093 161.046l3.031.765q-.953 3.735-3.437 5.703-2.47 1.953-6.047 1.953-3.703 0-6.031-1.5-2.313-1.515-3.532-4.375-1.203-2.86-1.203-6.14 0-3.578 1.36-6.235 1.375-2.672 3.89-4.047 2.531-1.39 5.563-1.39 3.437 0 5.78 1.75t3.266 4.922l-2.984.703q-.797-2.5-2.312-3.64-1.516-1.141-3.813-1.141-2.64 0-4.422 1.265-1.765 1.266-2.484 3.406-.719 2.125-.719 4.391 0 2.922.844 5.11.86 2.171 2.656 3.25 1.797 1.078 3.89 1.078 2.548 0 4.313-1.47 1.766-1.468 2.39-4.359zM195.953 157.916q0-5.704 3.062-8.922 3.063-3.235 7.907-3.235 3.172 0 5.718 1.516 2.547 1.515 3.875 4.234 1.344 2.703 1.344 6.14 0 3.485-1.406 6.235t-3.984 4.172q-2.579 1.406-5.563 1.406-3.234 0-5.781-1.562-2.547-1.563-3.86-4.266-1.312-2.703-1.312-5.719zm3.125.046q0 4.141 2.219 6.532 2.234 2.375 5.593 2.375 3.422 0 5.625-2.407 2.22-2.406 2.22-6.828 0-2.797-.954-4.875-.937-2.093-2.765-3.234-1.813-1.156-4.079-1.156-3.218 0-5.546 2.219-2.313 2.203-2.313 7.375zM221.753 169.076V146.17h7.89q2.672 0 4.079.328 1.968.453 3.359 1.64 1.813 1.531 2.703 3.922.906 2.375.906 5.438 0 2.609-.609 4.625-.61 2.015-1.563 3.343-.953 1.313-2.093 2.079-1.125.75-2.735 1.14-1.594.39-3.672.39zm3.031-2.704h4.89q2.266 0 3.548-.421 1.297-.422 2.062-1.188 1.078-1.078 1.672-2.89.61-1.829.61-4.422 0-3.594-1.188-5.516-1.172-1.938-2.86-2.594-1.218-.469-3.921-.469h-4.813zM244.933 169.076V146.17h16.562v2.703h-13.531v7.015h12.672v2.688h-12.672v7.797h14.062v2.703zM280.703 159.056l-15.172 6.484v-2.797l12.016-4.984-12.016-4.938v-2.797l15.172 6.406z"/></g><path d="M61 125.732l10.691-10.69 5.53 5.529-10.69 10.69zM95.733 91l10.69-10.691 5.53 5.53-10.69 10.69zM130.465 56.268l10.69-10.69 5.53 5.529-10.69 10.69zM268.527 194.33l10.691-10.69 5.53 5.53-10.691 10.69zM233.796 229.062l10.69-10.69 5.53 5.53-10.69 10.69zM199.063 263.795l10.691-10.691 5.53 5.53-10.691 10.69zM135.347 253.321l10.691 10.69-5.53 5.53-10.69-10.69zM100.833 218.807l10.691 10.69-5.53 5.53-10.69-10.69zM66.312 184.286l10.691 10.69-5.53 5.53-10.69-10.69zM205.238 45.36l10.69 10.692-5.53 5.53-10.69-10.692zM239.759 79.882l10.69 10.69-5.53 5.53-10.69-10.69zM274.273 114.396l10.69 10.69-5.53 5.53-10.69-10.69z"/></g></g></svg>