<?xml version="1.0" encoding="UTF-8"?>
<svg fill="none" viewBox="0 0 348 348" xmlns="http://www.w3.org/2000/svg">
<path d="M5.079 5.776h336.913v337.67H5.08z" stroke="#000" stroke-width="2"/>
<path d="m282.73 40.554c0-8.376 6.966-15.165 15.56-15.165 4.126 0 8.084 1.597 11.001 4.441 2.918 2.844 4.558 6.702 4.558 10.724 0 8.376-6.966 15.165-15.56 15.165-8.593 0-15.559-6.79-15.559-15.165z" stroke="#000" stroke-width="2"/>
<path d="M40.692 19.922H60.19V39.42H40.692zm56.571-.42h19.498V39H97.263zm53.799.021h19.498v19.498h-19.498zm55.218-.153h19.498v19.498H206.28zM40.942 294.255H60.44v19.498H40.942zm56.571-.421h19.498v19.498H97.513zm53.799.021h19.498v19.498h-19.498zm55.218-.152h19.498v19.498H206.53z" fill="#000" fill-rule="evenodd"/>
<path d="M24.161 83.503h53.832v53.832H24.161z" fill="#000" fill-rule="evenodd" stroke-width=".77737"/>
<path d="M26.704 85.622h48.322v47.898H26.704z" fill="#fff" fill-rule="evenodd"/>
<path d="M79.597 83.65h53.832v53.832H79.597z" fill="#000" fill-rule="evenodd" stroke-width=".77737"/>
<path d="M82.14 85.77h48.322v47.898H82.14z" fill="#fff" fill-rule="evenodd"/>
<path d="m134.98 83.708h53.832v53.832h-53.832z" fill="#000" fill-rule="evenodd" stroke-width=".77737"/>
<path d="m137.52 85.827h48.322v47.898h-48.322z" fill="#fff" fill-rule="evenodd"/>
<path d="m190.13 83.848h53.832v53.832h-53.832z" fill="#000" fill-rule="evenodd" stroke-width=".77737"/>
<path d="m192.68 85.967h48.322v47.898h-48.322z" fill="#fff" fill-rule="evenodd"/>
<path d="m23.877 140.76h53.832v53.832h-53.832z" fill="#000" fill-rule="evenodd" stroke-width=".77737"/>
<path d="M26.42 142.882h48.322v47.898H26.42z" fill="#fff" fill-rule="evenodd"/>
<path d="M79.313 140.91h53.832v53.832H79.313z" fill="#000" fill-rule="evenodd" stroke-width=".77737"/>
<path d="m81.856 143.03h48.322v47.898h-48.322z" fill="#fff" fill-rule="evenodd"/>
<path d="m134.7 140.97h53.832v53.832h-53.832z" fill="#000" fill-rule="evenodd" stroke-width=".77737"/>
<path d="m137.24 143.09h48.322v47.898h-48.322z" fill="#fff" fill-rule="evenodd"/>
<path d="m189.85 141.11h53.832v53.832h-53.832z" fill="#000" fill-rule="evenodd" stroke-width=".77737"/>
<path d="m192.39 143.23h48.322v47.898h-48.322z" fill="#fff" fill-rule="evenodd"/>
<path d="M23.748 197.363H77.58v53.832H23.748z" fill="#000" fill-rule="evenodd" stroke-width=".77737"/>
<path d="m26.291 199.48h48.322v47.898h-48.322z" fill="#fff" fill-rule="evenodd"/>
<path d="M79.184 197.51h53.832v53.832H79.184z" fill="#000" fill-rule="evenodd" stroke-width=".77737"/>
<path d="M81.727 199.63h48.322v47.898H81.727z" fill="#fff" fill-rule="evenodd"/>
<path d="m134.57 197.57h53.832v53.832h-53.832z" fill="#000" fill-rule="evenodd" stroke-width=".77737"/>
<path d="m137.11 199.69h48.322v47.898h-48.322z" fill="#fff" fill-rule="evenodd"/>
<path d="m189.72 197.71h53.832v53.832h-53.832z" fill="#000" fill-rule="evenodd" stroke-width=".77737"/>
<path d="m192.26 199.83h48.322v47.898h-48.322z" fill="#fff" fill-rule="evenodd"/>
<path d="m145.39 56.799a11.021 11.021 0 0 1-11.021 11.021 11.021 11.021 0 0 1-11.021-11.021 11.021 11.021 0 0 1 11.021-11.021 11.021 11.021 0 0 1 11.021 11.021zm-55.525 52.761a11.021 11.021 0 0 1-11.021 11.021 11.021 11.021 0 0 1-11.021-11.021 11.021 11.021 0 0 1 11.021-11.021 11.021 11.021 0 0 1 11.021 11.021zm55.572 0.288a11.021 11.021 0 0 1-11.021 11.021 11.021 11.021 0 0 1-11.021-11.021 11.021 11.021 0 0 1 11.021-11.021 11.021 11.021 0 0 1 11.021 11.021zm54.12-0.218a11.021 11.021 0 0 1-11.021 11.021 11.021 11.021 0 0 1-11.021-11.021 11.021 11.021 0 0 1 11.021-11.021 11.021 11.021 0 0 1 11.021 11.021zm-110.15 56.038a11.021 11.021 0 0 1-11.021 11.021 11.021 11.021 0 0 1-11.021-11.021 11.021 11.021 0 0 1 11.021-11.021 11.021 11.021 0 0 1 11.021 11.021zm55.573 0.287a11.021 11.021 0 0 1-11.021 11.021 11.021 11.021 0 0 1-11.021-11.021 11.021 11.021 0 0 1 11.021-11.021 11.021 11.021 0 0 1 11.021 11.021zm54.119-0.218a11.021 11.021 0 0 1-11.021 11.021 11.021 11.021 0 0 1-11.021-11.021 11.021 11.021 0 0 1 11.021-11.021 11.021 11.021 0 0 1 11.021 11.021zm-110.09 56.951a11.021 11.021 0 0 1-11.021 11.021 11.021 11.021 0 0 1-11.021-11.021 11.021 11.021 0 0 1 11.021-11.021 11.021 11.021 0 0 1 11.021 11.021zm55.572 0.288a11.021 11.021 0 0 1-11.021 11.021 11.021 11.021 0 0 1-11.021-11.021 11.021 11.021 0 0 1 11.021-11.021 11.021 11.021 0 0 1 11.021 11.021zm54.12-0.218a11.021 11.021 0 0 1-11.021 11.021 11.021 11.021 0 0 1-11.021-11.021 11.021 11.021 0 0 1 11.021-11.021 11.021 11.021 0 0 1 11.021 11.021z" fill="#000" fill-rule="evenodd" stroke-width=".12854"/>
<path d="M50.865 38.149v46.626l55.951 50.017.848 63.157 108.511 50.865.848 51.712m-55.951-262.59v46.627l55.951 50.017-167.43 63.58 56.8 51.713.847 50.017" fill="none" stroke="#000" stroke-width="5" style="paint-order:markers fill stroke"/>
<path d="m106.68 35.36v49.168l-56.8 51.29 112.33 63.156-113.6 50.441 0.424 53.832m167.14-264.68 0.847 47.296-58.918 48.924 57.647 63.157-53.409 52.136-0.847 47.474" fill="none" stroke="#000" stroke-width="5" style="paint-order:markers fill stroke"/>
<path d="m264.07 123.77h67.82v80.536h-67.82z" fill="#000" stroke="#000" stroke-width="4.3" style="paint-order:markers fill stroke"/>
<path d="m266.25 159.85h63.474v41.432h-63.474z" fill="#fff" stroke="#000" stroke-width="5.2549" style="paint-order:markers fill stroke"/>
<path d="M282.885 148.254h-1.811v-11.737l-3.787 7.986h-1.08l-3.76-7.986v11.737h-1.692v-13.621h2.47l3.632 7.583 3.513-7.583h2.515zm12.23-5.105q0 2.498-1.28 3.943-1.28 1.445-3.43 1.445-2.168 0-3.449-1.445-1.271-1.445-1.271-3.943 0-2.497 1.271-3.942 1.28-1.455 3.449-1.455 2.15 0 3.43 1.455 1.28 1.445 1.28 3.942zm-1.774 0q0-1.985-.777-2.945-.778-.97-2.16-.97-1.399 0-2.176.97-.769.96-.769 2.945 0 1.921.778 2.918.777.988 2.168.988 1.372 0 2.15-.978.786-.988.786-2.928zm13.136-5.113-4.134 10.218h-1.73l-4.107-10.218h1.867l3.165 8.132 3.137-8.132zm10.64 5.287h-7.53q0 .942.284 1.647.284.695.778 1.143.476.44 1.125.659.659.22 1.445.22 1.043 0 2.095-.412 1.061-.421 1.51-.824h.091v1.876q-.869.366-1.775.613-.905.247-1.902.247-2.543 0-3.97-1.373-1.427-1.38-1.427-3.915 0-2.506 1.363-3.98 1.372-1.472 3.604-1.472 2.067 0 3.183 1.208 1.125 1.207 1.125 3.43zm-1.675-1.317q-.009-1.354-.686-2.095-.668-.741-2.04-.741-1.381 0-2.204.814-.814.814-.924 2.022zm11.581 3.302q0 1.4-1.161 2.296-1.153.897-3.156.897-1.135 0-2.086-.266-.942-.274-1.583-.594v-1.93h.092q.814.613 1.811.978.997.357 1.912.357 1.134 0 1.775-.366.64-.366.64-1.152 0-.604-.348-.915-.347-.311-1.335-.53-.366-.083-.96-.193-.586-.11-1.07-.238-1.346-.356-1.913-1.042-.558-.696-.558-1.702 0-.631.256-1.19.266-.557.796-.996.512-.43 1.3-.677.795-.256 1.774-.256.915 0 1.848.228.942.22 1.564.54v1.839h-.092q-.658-.485-1.6-.814-.943-.339-1.848-.339-.942 0-1.592.366-.65.357-.65 1.07 0 .632.394.952.384.32 1.244.521.476.11 1.061.22.595.11.988.2 1.198.275 1.848.943.65.677.65 1.793z" fill="#fff" stroke-width="6.7133" style="paint-order:markers fill stroke" aria-label="Moves"/>
<path d="m309.63 176.58h-6.122l-1.691 6.913h5.662v2.482h-6.306l-1.912 7.74h-2.371l1.912-7.74h-4.964l-1.912 7.74h-2.372l1.912-7.74h-5.479v-2.482h6.123l1.691-6.913h-5.663v-2.482h6.306l1.93-7.758h2.373l-1.93 7.758h4.963l1.93-7.758h2.372l-1.93 7.758h5.478zm-8.438-0.036h-5.038l-1.728 6.986h5.038z" fill="#000" stroke-width="13.492" style="paint-order:markers fill stroke" aria-label="#"/>
</svg>
