<svg xmlns="http://www.w3.org/2000/svg" fill="none" viewBox="0 0 348 348"><defs/><path stroke="#000" stroke-width="2" d="M5.079 5.776h336.913v337.67H5.08z"/><path stroke="#000" stroke-width="2" d="M282.734 40.554c0-8.376 6.966-15.165 15.56-15.165 4.126 0 8.084 1.597 11.001 4.441 2.918 2.844 4.558 6.702 4.558 10.724 0 8.376-6.966 15.165-15.56 15.165-8.593 0-15.559-6.79-15.559-15.165z"/><path stroke="#000" stroke-width="1.5" d="M13.429748 108.35953H239.63782v226.71634H13.43042z"/><path stroke="#000" stroke-width="1.24283" d="M21.645782 117.44002H231.00849v209.83312H21.646404z"/><path stroke="#000" stroke-width="1.5" d="M52.784204 90.657363H184.9912v-71.56354H52.784597z"/><path stroke="#000" stroke-width=".416326" d="M57.542812 90.166851v17.550899M57.542812 90.445284V107.9962M61.675828 90.580153v17.550897M61.675828 90.858586V108.4095M180.23259 90.166851v17.550899M180.23259 90.445284V107.9962M176.09957 90.580153v17.550897M176.09957 90.858586V108.4095"/><circle cx="287.28018" cy="138.65314" r="21.334133" fill="none" stroke="#000"/><circle cx="287.28018" cy="-306.06003" r="21.334133" fill="none" stroke="#000" transform="scale(1 -1)"/><circle cx="287.28018" cy="-222.35663" r="21.334133" fill="none" stroke="#000" transform="scale(1 -1)"/><ellipse cx="287.28018" cy="138.53528" fill="none" stroke="#000" stroke-width=".498649" rx="10.667742" ry="10.608814"/><ellipse cx="287.28018" cy="-306.17789" fill="none" stroke="#000" stroke-width=".498649" rx="10.667742" ry="10.608814" transform="scale(1 -1)"/><ellipse cx="287.28018" cy="-222.35663" fill="none" stroke="#000" stroke-width=".498649" rx="10.667742" ry="10.608814" transform="scale(1 -1)"/></svg>