<svg xmlns="http://www.w3.org/2000/svg" viewBox="0 0 348 348" fill="none"><path d="M5.079 5.776h336.913v337.67H5.08z" stroke-width="2" stroke="#000"/><path d="M282.734 40.554c0-8.376 6.966-15.165 15.56-15.165 4.126 0 8.084 1.597 11.001 4.441 2.918 2.844 4.558 6.702 4.558 10.724 0 8.376-6.966 15.165-15.56 15.165-8.593 0-15.559-6.79-15.559-15.165z" stroke-width="2" stroke="#000"/><circle r=".007" fill="#000"/><circle cx="-.01" cy="-.015" r=".007" fill="#fff"/><circle cx=".01" cy="-.015" r=".007" fill="#fff"/><circle cx="-.02" cy="-.03" r=".007" fill="#fff"/><circle cy="-.03" r=".007" fill="#fff"/><circle cx=".02" cy="-.03" r=".007" fill="#fff"/><circle cx="-.03" cy="-.045" r=".007" fill="#000"/><circle cx="-.01" cy="-.045" r=".007" fill="#fff"/><circle cx=".01" cy="-.045" r=".007" fill="#fff"/><circle cx=".03" cy="-.045" r=".007" fill="#000"/><circle r="16.474" cx="157.209" cy="220.932" fill="#fff" stroke="#000" stroke-width="3"/><circle cx="133.674" cy="185.629" r="16.474" fill="#fff" stroke="#000" stroke-width="3"/><circle cx="180.744" cy="185.629" r="16.474" fill="#fff" stroke="#000" stroke-width="3"/><circle cx="110.139" cy="150.327" r="16.474" fill="#fff" stroke="#000" stroke-width="3"/><circle cy="150.327" r="16.474" cx="157.209" fill="#fff" stroke="#000" stroke-width="3"/><circle cx="204.278" cy="150.327" r="16.474" fill="#fff" stroke="#000" stroke-width="3"/><circle cx="86.604" cy="115.024" r="16.474" stroke="#000" stroke-width="3"/><circle cx="133.674" cy="115.024" r="16.474" fill="#fff" stroke="#000" stroke-width="3"/><circle cx="180.744" cy="115.024" r="16.474" fill="#fff" stroke="#000" stroke-width="3"/><circle cx="227.813" cy="115.024" r="16.474" stroke="#000" stroke-width="3"/><circle cx="279.156" cy="275.797" r="38.2" fill="none" stroke="#000" stroke-width="3"/><circle cx="270.235" cy="249.876" r="4.723" fill="none" stroke="#000" stroke-width="3"/><circle cx="260.475" cy="260.895" r="4.723" fill="none" stroke="#000" stroke-width="3"/><circle cx="274.328" cy="262.364" r="4.723" fill="none" stroke="#000" stroke-width="3"/></svg>