<svg version="1.0" xmlns="http://www.w3.org/2000/svg" viewBox="0 0 500 500"><path d="M19 255v220h449V35H19v220zm446 0v217H22V38h443v217z"/><path d="M410 55c-10 3-20 11-23 20-4 12-1 26 8 35 7 6 12 8 22 8s15-2 22-9c10-9 12-24 7-36-4-7-10-13-17-16-5-2-14-3-19-2zm19 5c18 8 22 33 8 47-6 6-10 7-20 7-7 1-9 0-13-2-7-4-10-7-13-14-8-16 2-35 20-40 4-1 13 0 18 2zM251 59a1976 1976 0 0 1-23 60l26 1c19 1 25 0 26-1s-1-8-14-36c-9-18-11-24-13-24h-2zm11 26 11 25 2 6h-42l9-21 11-28 9 18zM131 132v3l1 118v117a10363 10363 0 0 0 235 1c5 3 5 7 4-120l-1-119a4698 4698 0 0 0-239 0zm235 118v115H137V136h229v115zM382 222c-1 2 0 51 1 52s27-9 54-21c10-4 9-4-18-17l-36-15-1 1zm33 17 19 10-46 19-2 1v-42l4 2c3 0 14 5 25 10zM90 239l-30 12v3c1 2 48 23 53 25 9 2 8 4 8-24 0-25 0-28-2-28l-29 12zm26 35c-1 1-16-6-42-18l-7-3 24-10 25-10v41zM222 383l1 5c2 7 24 54 26 55l2-1a585 585 0 0 0 23-60l-26-1c-21 0-25 0-26 2zm47 3-10 25-10 24-2-5a1563 1563 0 0 0-19-44 318 318 0 0 1 41 0z"/></svg>