<svg xmlns="http://www.w3.org/2000/svg" fill="none" viewBox="0 0 348 348"><path stroke="#000" stroke-width="2" d="M5.08 5.78h336.91v337.67H5.08z"/><path stroke="#000" stroke-width="2" d="M282.73 40.55c0-8.37 6.97-15.16 15.56-15.16 4.13 0 8.09 1.6 11 4.44a14.97 14.97 0 0 1 4.56 10.72c0 8.38-6.96 15.17-15.56 15.17-8.59 0-15.56-6.8-15.56-15.17zm-46.32 5.01c0-5.94 4.95-10.76 11.05-10.76 2.93 0 5.74 1.13 7.8 3.15a10.63 10.63 0 0 1 3.24 7.61 10.9 10.9 0 0 1-11.04 10.77c-6.1 0-11.05-4.82-11.05-10.77zm13.47 30.77c0-5.94 4.94-10.76 11.04-10.76 2.93 0 5.74 1.13 7.81 3.15a10.63 10.63 0 0 1 3.24 7.61c0 5.95-4.95 10.76-11.05 10.76-6.1 0-11.04-4.81-11.04-10.76zm29.63 17.39c0-5.95 4.95-10.77 11.05-10.77 2.93 0 5.74 1.13 7.8 3.15a10.63 10.63 0 0 1 3.24 7.62c0 5.94-4.94 10.76-11.04 10.76-6.1 0-11.05-4.82-11.05-10.76z"/><path stroke="#000" stroke-width="1.87" d="M25.94 25.94h90.75v90.75H25.94Zm101.88 0h90.75v90.75h-90.75zM25.94 127.82h90.75v90.75H25.94Zm101.88 0h90.75v90.75h-90.75z"/><path stroke="#000" stroke-width="2" d="M26.42 230.44h293.55v89.28H26.42Z"/><path stroke="#000" stroke-width="1.87" d="M229.7 127.82h90.76v90.75H229.7z"/><path fill="#000" d="M53.14 247.17h1.66l3.32 8.62h-1.7l-.68-1.77h-3.52l-.7 1.77h-1.7zm.84 2.29-1.15 2.96h2.3zm5.23-.04h1.6v.65q.54-.46.98-.63.45-.19.9-.19.96 0 1.62.67.56.56.56 1.66v4.21h-1.59V253q0-1.13-.1-1.5-.1-.38-.36-.58-.25-.2-.63-.2-.48 0-.83.33-.35.32-.48.9-.07.3-.07 1.3v2.55h-1.6zm6.5 0h1.63l1.66 4 1.83-4h1.64l-4 8.7h-1.65l1.31-2.8zm11.65-2.63q.42 0 .72.3.3.31.3.75 0 .42-.3.73-.3.3-.7.3-.44 0-.74-.3-.3-.32-.3-.76 0-.42.3-.72t.72-.3zm-.8 2.63h1.6v6.37h-1.6zm3.05 0h1.6v.65q.54-.46.98-.63.44-.19.9-.19.95 0 1.62.67.55.56.55 1.66v4.21h-1.58V253q0-1.13-.1-1.5-.1-.38-.36-.58-.25-.2-.63-.2-.48 0-.84.33-.34.32-.48.9-.07.3-.07 1.3v2.55h-1.6zm15.27 0h1.6v6.37h-1.6v-.67q-.47.45-.94.64-.47.2-1.02.2-1.24 0-2.14-.96-.9-.96-.9-2.38 0-1.48.87-2.42.87-.95 2.12-.95.57 0 1.08.22.5.22.93.65zm-1.68 1.31q-.75 0-1.24.53-.5.52-.5 1.34 0 .83.5 1.36.51.53 1.24.53.76 0 1.26-.52.5-.53.5-1.38 0-.83-.5-1.34-.5-.52-1.26-.52zm12.15-.42-1 .99q-.6-.6-1.09-.6-.27 0-.42.12-.15.11-.15.28 0 .13.1.24.1.1.47.3l.59.29q.93.45 1.27.93.35.47.35 1.11 0 .85-.63 1.42-.62.57-1.67.57-1.4 0-2.23-1.1l.99-1.06q.28.32.65.53.38.2.68.2.31 0 .5-.15.2-.16.2-.36 0-.37-.7-.72l-.54-.27q-1.54-.78-1.54-1.95 0-.75.58-1.29t1.5-.54q.61 0 1.16.28.55.27.93.78zm7.76 2.76h-5.14q.12.68.6 1.08t1.23.4q.9 0 1.54-.63l1.35.64q-.5.71-1.2 1.06-.7.34-1.68.34-1.5 0-2.44-.95-.94-.94-.94-2.37 0-1.46.93-2.42.95-.97 2.37-.97 1.5 0 2.45.97.94.96.94 2.54zm-1.6-1.26q-.16-.53-.63-.87-.46-.33-1.08-.33-.67 0-1.17.37-.32.24-.59.83zm2.52-2.4h1.37v.81q.23-.47.6-.72.36-.25.8-.25.31 0 .65.17l-.5 1.38q-.27-.15-.46-.15-.37 0-.62.46-.26.46-.26 1.8l.01.3v2.58h-1.59zm4.84-2.62q.42 0 .72.3.3.31.3.75 0 .42-.3.73-.29.3-.7.3-.43 0-.74-.3-.3-.32-.3-.76 0-.42.3-.72t.72-.3zm-.8 2.63h1.6v6.37h-1.6zm9.44 3.65h-5.14q.11.68.6 1.08.48.4 1.23.4.9 0 1.54-.63l1.35.64q-.5.71-1.2 1.06-.71.34-1.68.34-1.5 0-2.44-.95-.95-.94-.95-2.37 0-1.46.94-2.42.94-.97 2.36-.97 1.5 0 2.45.97.95.96.95 2.54zm-1.6-1.26q-.16-.53-.63-.87-.47-.33-1.08-.33-.67 0-1.17.37-.32.24-.59.83zm6.8-1.5-1 .99q-.6-.6-1.09-.6-.27 0-.42.12-.15.11-.15.28 0 .13.09.24.1.1.48.3l.59.29q.92.45 1.27.93.34.47.34 1.11 0 .85-.62 1.42t-1.67.57q-1.4 0-2.23-1.1l.98-1.06q.29.32.66.53.38.2.67.2.32 0 .51-.15.2-.16.2-.36 0-.37-.7-.72l-.54-.27q-1.55-.78-1.55-1.95 0-.75.58-1.29.6-.54 1.5-.54.62 0 1.17.28.55.27.93.78zm7.73-1.06q.9 0 1.69.46.8.45 1.24 1.22.45.77.45 1.67 0 .9-.46 1.69-.44.78-1.21 1.23-.78.44-1.7.44-1.38 0-2.35-.97-.97-.98-.97-2.38 0-1.5 1.1-2.49.96-.87 2.2-.87zm.02 1.51q-.75 0-1.24.52-.5.52-.5 1.33 0 .83.5 1.34.48.52 1.23.52t1.25-.52q.5-.52.5-1.34 0-.82-.5-1.33-.48-.52-1.24-.52zm3.9-1.34h.57q0-1.26.04-1.48.06-.53.44-.84.38-.3 1.07-.3.5 0 1.13.22v1.22q-.35-.1-.57-.1-.28 0-.41.12-.1.09-.1.36v.8h1.01v1.36h-1.01v5.01h-1.6v-5.01h-.57zm11.38.89-.99.99q-.6-.6-1.1-.6-.27 0-.42.12-.15.11-.15.28 0 .13.1.24.1.1.47.3l.59.29q.93.45 1.27.93.35.47.35 1.11 0 .85-.63 1.42-.62.57-1.67.57-1.4 0-2.23-1.1l.99-1.06q.28.32.65.53.39.2.68.2.31 0 .5-.15.2-.16.2-.36 0-.37-.7-.72l-.54-.27q-1.54-.78-1.54-1.95 0-.75.58-1.29t1.5-.54q.61 0 1.16.28.55.27.93.78zm1.57-3.24h1.6v2.35h.94v1.38h-.95v5h-1.59v-5h-.82v-1.38h.82zm8.12 2.35h1.59v6.37h-1.6v-.67q-.46.45-.94.64-.47.2-1.02.2-1.23 0-2.14-.96-.9-.96-.9-2.38 0-1.48.87-2.42.88-.95 2.13-.95.57 0 1.07.22.5.22.94.65zm-1.69 1.31q-.74 0-1.23.53-.5.52-.5 1.34 0 .83.5 1.36.5.53 1.24.53.76 0 1.25-.52.5-.53.5-1.38 0-.83-.5-1.34-.5-.52-1.26-.52zm4.9-1.31h1.59v.65q.55-.46.98-.63.45-.19.91-.19.95 0 1.61.67.56.56.56 1.66v4.21h-1.58V253q0-1.13-.1-1.5-.1-.38-.36-.58-.26-.2-.63-.2-.49 0-.84.33-.34.32-.48.9-.07.3-.07 1.3v2.55h-1.6zm11.9-2.46h1.6v8.83h-1.6v-.67q-.46.45-.93.64-.47.2-1.02.2-1.24 0-2.14-.96-.9-.96-.9-2.38 0-1.48.87-2.42.87-.95 2.12-.95.57 0 1.08.22.5.22.93.65zm-1.67 3.77q-.75 0-1.24.53-.5.52-.5 1.34 0 .83.5 1.36.51.53 1.24.53.76 0 1.26-.52.5-.53.5-1.38 0-.83-.5-1.34-.5-.52-1.26-.52zm9.6-1.31h1.6v6.37h-1.6v-.67q-.47.45-.94.64-.47.2-1.02.2-1.24 0-2.14-.96-.9-.96-.9-2.38 0-1.48.87-2.42.87-.95 2.12-.95.57 0 1.08.22.5.22.93.65zm-1.68 1.31q-.75 0-1.24.53-.49.52-.49 1.34 0 .83.5 1.36.5.53 1.23.53.76 0 1.26-.52.5-.53.5-1.38 0-.83-.5-1.34-.5-.52-1.26-.52zm4.52-1.31h1.37v.8q.22-.47.59-.72t.8-.25q.32 0 .66.17l-.5 1.38q-.28-.15-.46-.15-.37 0-.63.46-.25.46-.25 1.8v2.88h-1.58zm8.92-2.46h1.6v8.83h-1.6v-.67q-.47.45-.94.64-.47.2-1.02.2-1.24 0-2.14-.96-.9-.96-.9-2.38 0-1.48.87-2.42.87-.95 2.12-.95.57 0 1.08.22.5.22.93.65zm-1.68 3.77q-.75 0-1.24.53-.49.52-.49 1.34 0 .83.5 1.36.5.53 1.23.53.76 0 1.26-.52.5-.53.5-1.38 0-.83-.5-1.34-.5-.52-1.26-.52zm5.52-3.94q.42 0 .72.3.3.31.3.75 0 .42-.3.73-.3.3-.71.3-.43 0-.73-.3-.3-.32-.3-.76 0-.42.3-.72t.72-.3zm-.8 2.63h1.6v6.37h-1.6zm2.77 0h4.9l-2.88 5.02h2.71v1.35h-5.17l2.89-5.02h-2.45zm12.18 3.65h-5.13q.1.68.59 1.08.48.4 1.23.4.9 0 1.54-.63l1.35.64q-.5.71-1.2 1.06-.7.34-1.67.34-1.5 0-2.45-.95-.94-.94-.94-2.37 0-1.46.94-2.42.94-.97 2.36-.97 1.5 0 2.45.97.94.96.94 2.54zm-1.6-1.26q-.16-.53-.63-.87-.46-.33-1.08-.33-.66 0-1.17.37-.31.24-.58.83zm7.61-4.85h1.6v8.83h-1.6v-.67q-.47.45-.94.64-.47.2-1.02.2-1.24 0-2.14-.96-.9-.96-.9-2.38 0-1.48.87-2.42.87-.95 2.12-.95.57 0 1.08.22.5.22.93.65zm-1.68 3.77q-.75 0-1.24.53-.49.52-.49 1.34 0 .83.5 1.36.5.53 1.23.53.76 0 1.26-.52.5-.53.5-1.38 0-.83-.5-1.34-.5-.52-1.26-.52zm8.24-1.31h1.62v3.07q0 .9.12 1.25.13.34.4.54.27.19.67.19t.67-.19q.28-.2.42-.56.1-.28.1-1.18v-3.12h1.6v2.7q0 1.67-.26 2.28-.32.75-.95 1.16-.63.4-1.6.4-1.04 0-1.7-.47-.64-.47-.9-1.3-.19-.59-.19-2.12zm7.21 0h1.6v.65q.54-.46.98-.63.44-.19.9-.19.96 0 1.62.67.55.56.55 1.66v4.21h-1.58V253q0-1.13-.1-1.5-.1-.38-.36-.58-.25-.2-.63-.2-.48 0-.84.33-.34.32-.48.9-.07.3-.07 1.3v2.55H238zm7.83-2.63q.42 0 .72.3.3.31.3.75 0 .42-.3.73-.3.3-.71.3-.43 0-.73-.3-.3-.32-.3-.76 0-.42.3-.72t.72-.3zm-.8 2.63h1.6v6.37h-1.6zm3.24-2.35h1.6v2.35h.94v1.38h-.95v5h-1.59v-5h-.82v-1.38h.82zm7.3 3.24-.98.99q-.6-.6-1.1-.6-.27 0-.42.12-.15.11-.15.28 0 .13.1.24.1.1.47.3l.59.29q.92.45 1.27.93.34.47.34 1.11 0 .85-.62 1.42t-1.67.57q-1.4 0-2.23-1.1l.99-1.06q.28.32.65.53.38.2.68.2.31 0 .5-.15.2-.16.2-.36 0-.37-.7-.72l-.54-.27q-1.54-.78-1.54-1.95 0-.75.58-1.29t1.49-.54q.62 0 1.17.28.55.27.93.78zm3.98-.9h.57q0-1.25.04-1.47.06-.53.44-.84.38-.3 1.07-.3.5 0 1.13.22v1.22q-.35-.1-.57-.1-.28 0-.41.12-.1.09-.1.36v.8h1.01v1.36h-1.01v5.01h-1.6v-5.01h-.57zm7.11-.16q.9 0 1.7.46.8.45 1.24 1.22.44.77.44 1.67 0 .9-.45 1.69-.44.78-1.22 1.23-.77.44-1.7.44-1.37 0-2.34-.97-.97-.98-.97-2.38 0-1.5 1.1-2.49.96-.87 2.2-.87zm.03 1.51q-.75 0-1.25.52-.49.52-.49 1.33 0 .83.49 1.34.5.52 1.24.52.75 0 1.25-.52t.5-1.34q0-.82-.5-1.33-.48-.52-1.24-.52zm4.29-1.34h1.37v.8q.22-.47.59-.72t.8-.25q.32 0 .66.17l-.5 1.38q-.28-.15-.46-.15-.37 0-.63.46-.25.46-.25 1.8v2.88h-1.58zm7.56 0h1.62v3.07q0 .9.12 1.25.12.34.4.54.27.19.67.19t.67-.19q.28-.2.42-.56.1-.28.1-1.18v-3.12h1.6v2.7q0 1.67-.26 2.28-.32.75-.95 1.16-.63.4-1.6.4-1.04 0-1.7-.47-.64-.47-.9-1.3-.19-.59-.19-2.12zm11.11.89-.99.99q-.6-.6-1.1-.6-.27 0-.42.12-.15.11-.15.28 0 .13.1.24.1.1.47.3l.59.29q.93.45 1.27.93.35.47.35 1.11 0 .85-.63 1.42-.62.57-1.67.57-1.4 0-2.23-1.1l.99-1.06q.28.32.65.53.39.2.68.2.31 0 .5-.15.2-.16.2-.36 0-.37-.7-.72l-.54-.27q-1.54-.78-1.54-1.95 0-.75.58-1.29t1.5-.54q.61 0 1.16.28.55.27.93.78zm7.76 2.76h-5.14q.12.68.6 1.08t1.23.4q.9 0 1.54-.63l1.35.64q-.5.71-1.2 1.06-.7.34-1.68.34-1.5 0-2.44-.95-.94-.94-.94-2.37 0-1.46.94-2.42.94-.97 2.36-.97 1.5 0 2.45.97.94.96.94 2.54zm-1.6-1.26q-.16-.53-.63-.87-.46-.33-1.08-.33-.66 0-1.17.37-.32.24-.58.83zM34.2 262.07h1.59v2.35h.95v1.38h-.95v5h-1.6v-5h-.81v-1.38h.82zm6.4 2.18q.9 0 1.69.46.8.45 1.24 1.22.45.77.45 1.67 0 .9-.46 1.69-.44.78-1.21 1.23-.78.44-1.71.44-1.37 0-2.34-.97-.97-.98-.97-2.38 0-1.5 1.1-2.49.96-.87 2.2-.87zm.02 1.51q-.75 0-1.24.52-.5.52-.5 1.33 0 .83.49 1.34.5.52 1.24.52.75 0 1.25-.52t.5-1.34q0-.82-.5-1.33-.48-.52-1.24-.52zm9.37-1.34h1.6v5.46q0 1.62-.65 2.38-.88 1.03-2.63 1.03-.94 0-1.58-.23-.64-.24-1.08-.7-.44-.45-.65-1.1h1.76q.24.27.6.4.38.15.88.15.65 0 1.04-.2.4-.2.55-.52.16-.31.16-1.09-.42.42-.88.61-.46.18-1.05.18-1.28 0-2.17-.92-.88-.93-.88-2.35 0-1.51.93-2.43.85-.84 2.03-.84.55 0 1.04.21.5.2.98.66zm-1.66 1.33q-.75 0-1.24.5-.5.51-.5 1.28 0 .8.5 1.3.51.52 1.27.52.75 0 1.23-.5t.48-1.3q0-.8-.48-1.3-.49-.5-1.26-.5zm11.26 2.32h-5.14q.11.68.6 1.08.48.4 1.23.4.9 0 1.54-.63l1.35.64q-.5.71-1.2 1.06-.71.34-1.68.34-1.5 0-2.44-.95-.95-.94-.95-2.37 0-1.46.94-2.42.95-.97 2.36-.97 1.51 0 2.45.97.95.96.95 2.54zm-1.6-1.26q-.16-.53-.63-.87-.46-.33-1.08-.33-.67 0-1.17.37-.32.24-.59.83zm3.09-4.74h1.6v2.35h.94v1.38h-.95v5h-1.6v-5h-.81v-1.38h.82zm3.4-.11h1.6v3.1q.47-.4.94-.6.47-.2.96-.2.95 0 1.6.65.56.57.56 1.67v4.21h-1.58V268q0-1.1-.1-1.5-.11-.38-.37-.58-.25-.2-.62-.2-.5 0-.84.33-.35.32-.48.88-.07.29-.07 1.31v2.56h-1.6zm13.6 6.1h-5.15q.11.69.6 1.1.48.4 1.23.4.9 0 1.54-.64l1.35.64q-.5.71-1.2 1.06-.71.34-1.68.34-1.5 0-2.44-.95-.94-.94-.94-2.37 0-1.46.93-2.42.95-.97 2.36-.97 1.51 0 2.45.97.95.96.95 2.54zm-1.61-1.25q-.16-.53-.63-.87-.46-.33-1.08-.33-.67 0-1.17.37-.32.24-.59.83zm2.52-2.4h1.37v.81q.22-.47.6-.72.36-.25.8-.25.31 0 .65.17l-.5 1.38q-.28-.15-.46-.15-.37 0-.63.46-.25.46-.25 1.8v2.88H79zm4.98 4.76 1.14.57-1.44 2.48-.8-.38zm9.85-3.86-.99.99q-.6-.6-1.1-.6-.26 0-.42.12-.15.11-.15.28 0 .13.1.24.1.1.48.3l.58.29q.93.45 1.27.93.35.47.35 1.11 0 .85-.63 1.42-.62.57-1.67.57-1.4 0-2.23-1.1l.99-1.06q.28.32.66.53.38.2.67.2.32 0 .5-.15.2-.16.2-.36 0-.37-.7-.72l-.53-.27q-1.55-.78-1.55-1.95 0-.75.58-1.29.59-.54 1.5-.54.61 0 1.16.28.55.27.93.78zm1.37-.9h1.62v3.08q0 .9.12 1.25.13.34.4.54.27.19.67.19t.67-.19q.28-.2.42-.56.1-.28.1-1.18v-3.12h1.6v2.7q0 1.67-.26 2.28-.32.75-.95 1.16-.63.4-1.6.4-1.04 0-1.7-.47-.64-.47-.9-1.3-.19-.59-.19-2.12zm13.45 1.3-1.33.73q-.38-.4-.74-.54-.37-.16-.86-.16-.9 0-1.45.54-.55.54-.55 1.37 0 .82.53 1.33.53.52 1.4.52 1.07 0 1.67-.73l1.26.86q-1.03 1.33-2.9 1.33-1.68 0-2.63-1t-.95-2.33q0-.93.46-1.7.46-.78 1.29-1.23.83-.45 1.86-.45.95 0 1.7.39.76.37 1.24 1.07zm1.45-3.75h1.58v3.1q.47-.4.95-.6.47-.2.96-.2.95 0 1.6.65.56.57.56 1.67v4.21h-1.58V268q0-1.1-.1-1.5-.11-.38-.37-.58-.25-.2-.63-.2-.48 0-.83.33-.35.32-.49.88-.07.29-.07 1.31v2.56h-1.58zm15.26 2.46h1.6v6.37h-1.6v-.67q-.47.45-.94.64-.47.2-1.02.2-1.24 0-2.14-.96-.9-.96-.9-2.38 0-1.48.87-2.42.87-.95 2.12-.95.57 0 1.08.22.5.22.93.65zm-1.68 1.31q-.75 0-1.24.53-.49.52-.49 1.34 0 .83.5 1.36.5.53 1.23.53.76 0 1.26-.52.5-.53.5-1.38 0-.83-.5-1.34-.5-.52-1.26-.52zm8.8-.42-1 .99q-.6-.6-1.1-.6-.26 0-.41.12-.16.11-.16.28 0 .13.1.24.1.1.48.3l.58.29q.93.45 1.27.93.35.47.35 1.11 0 .85-.63 1.42-.62.57-1.67.57-1.4 0-2.22-1.1l.98-1.06q.28.32.66.53.38.2.67.2.32 0 .51-.15.2-.16.2-.36 0-.37-.7-.72l-.54-.27q-1.55-.78-1.55-1.95 0-.75.58-1.29.59-.54 1.5-.54.62 0 1.16.28.55.27.93.78zm9.44-.9h1.6v6.38h-1.6v-.67q-.47.45-.94.64-.47.2-1.02.2-1.24 0-2.14-.96-.9-.96-.9-2.38 0-1.48.87-2.42.87-.95 2.12-.95.57 0 1.08.22.5.22.93.65zm-1.68 1.32q-.75 0-1.24.53-.5.52-.5 1.34 0 .83.5 1.36.51.53 1.24.53.76 0 1.26-.52.5-.53.5-1.38 0-.83-.5-1.34-.5-.52-1.26-.52zm8.24-1.31h1.62v3.07q0 .9.12 1.25.12.34.4.54.27.19.67.19t.67-.19q.28-.2.42-.56.1-.28.1-1.18v-3.12h1.6v2.7q0 1.67-.26 2.28-.32.75-.95 1.16-.63.4-1.6.4-1.04 0-1.7-.47-.64-.47-.9-1.3-.19-.59-.19-2.12zm11.11.89-.99.99q-.6-.6-1.1-.6-.26 0-.42.12-.15.11-.15.28 0 .13.1.24.1.1.47.3l.6.29q.92.45 1.26.93.35.47.35 1.11 0 .85-.63 1.42-.62.57-1.67.57-1.4 0-2.23-1.1l.99-1.06q.28.32.66.53.38.2.67.2.32 0 .5-.15.2-.16.2-.36 0-.37-.7-.72l-.53-.27q-1.55-.78-1.55-1.95 0-.75.58-1.29t1.5-.54q.61 0 1.16.28.55.27.93.78zm1.37-.9h1.62v3.08q0 .9.12 1.25.13.34.4.54.27.19.67.19t.67-.19q.28-.2.42-.56.1-.28.1-1.18v-3.12h1.6v2.7q0 1.67-.26 2.28-.32.75-.95 1.16-.63.4-1.6.4-1.04 0-1.7-.47-.64-.47-.9-1.3-.19-.59-.19-2.12zm11.92 0h1.6v6.38h-1.6v-.67q-.47.45-.94.64-.47.2-1.02.2-1.24 0-2.14-.96-.9-.96-.9-2.38 0-1.48.87-2.42.87-.95 2.12-.95.57 0 1.08.22.5.22.93.65zm-1.68 1.32q-.75 0-1.24.53-.49.52-.49 1.34 0 .83.5 1.36.5.53 1.23.53.76 0 1.26-.52.5-.53.5-1.38 0-.83-.5-1.34-.5-.52-1.26-.52zm4.72-3.77h1.6v8.83h-1.6zm2.88 0h1.6v8.83h-1.6zm2.34 2.46h1.63l1.66 4 1.83-4h1.64l-4 8.7h-1.65l1.31-2.8zm12.61 0v.7q.43-.43.94-.65.5-.22 1.08-.22 1.24 0 2.12.95.87.94.87 2.42 0 1.42-.9 2.38t-2.14.96q-.55 0-1.03-.2-.47-.2-.94-.64v3h-1.59v-8.7zm1.68 1.31q-.75 0-1.25.52-.5.51-.5 1.34 0 .85.5 1.38.5.52 1.25.52.73 0 1.23-.53t.5-1.36q0-.82-.49-1.34-.49-.53-1.24-.53zm9.37-1.31h1.59v6.37h-1.6v-.67q-.46.45-.94.64-.47.2-1.02.2-1.23 0-2.14-.96-.9-.96-.9-2.38 0-1.48.87-2.42.88-.95 2.13-.95.57 0 1.07.22.5.22.94.65zm-1.69 1.31q-.74 0-1.23.53-.5.52-.5 1.34 0 .83.5 1.36.5.53 1.24.53.76 0 1.25-.52.5-.53.5-1.38 0-.83-.5-1.34-.5-.52-1.26-.52zm11.14-.02-1.33.73q-.38-.4-.75-.54-.36-.16-.85-.16-.9 0-1.46.54-.55.54-.55 1.37 0 .82.54 1.33.53.52 1.4.52 1.07 0 1.67-.73l1.26.86q-1.03 1.33-2.9 1.33-1.68 0-2.63-1t-.95-2.33q0-.93.46-1.7.46-.78 1.29-1.23.83-.45 1.86-.45.94 0 1.7.39.76.37 1.24 1.07zm1.45-3.75h1.6v5.09l2.36-2.63h2l-2.74 3.06 3.07 3.31H220l-2.71-2.93v2.93h-1.6zm11.66 2.46h1.6v6.37h-1.6v-.67q-.47.45-.94.64-.47.2-1.02.2-1.24 0-2.14-.96-.9-.96-.9-2.38 0-1.48.87-2.42.87-.95 2.12-.95.57 0 1.08.22.5.22.93.65zm-1.68 1.31q-.75 0-1.24.53-.49.52-.49 1.34 0 .83.5 1.36.5.53 1.23.53.76 0 1.26-.52.5-.53.5-1.38 0-.83-.5-1.34-.5-.52-1.26-.52zm9.6-1.31h1.6v5.46q0 1.62-.65 2.38-.88 1.03-2.64 1.03-.93 0-1.57-.23-.64-.24-1.08-.7-.44-.45-.65-1.1h1.76q.24.27.6.4.38.15.88.15.64 0 1.04-.2.39-.2.55-.52.16-.31.16-1.09-.42.42-.88.61-.47.18-1.05.18-1.28 0-2.17-.92-.88-.93-.88-2.35 0-1.51.93-2.43.85-.84 2.03-.84.55 0 1.04.21.49.2.98.66zm-1.66 1.33q-.75 0-1.24.5-.5.51-.5 1.28 0 .8.5 1.3.51.52 1.27.52.75 0 1.23-.5t.48-1.3q0-.8-.48-1.3-.49-.5-1.26-.5zm11.26 2.32h-5.14q.11.68.6 1.08.48.4 1.23.4.9 0 1.54-.63l1.35.64q-.5.71-1.2 1.06-.71.34-1.68.34-1.5 0-2.44-.95-.95-.94-.95-2.37 0-1.46.94-2.42.95-.97 2.36-.97 1.5 0 2.45.97.95.96.95 2.54zm-1.6-1.26q-.16-.53-.63-.87-.47-.33-1.08-.33-.67 0-1.17.37-.32.24-.59.83zm7.6-4.85h1.6v8.83h-1.6v-.67q-.46.45-.94.64-.47.2-1.02.2-1.23 0-2.14-.96-.9-.96-.9-2.38 0-1.48.87-2.42.88-.95 2.13-.95.57 0 1.07.22.5.22.94.65zm-1.68 3.77q-.74 0-1.23.53-.5.52-.5 1.34 0 .83.5 1.36.5.53 1.24.53.76 0 1.25-.52.5-.53.5-1.38 0-.83-.5-1.34-.5-.52-1.26-.52zm7.5-1.31h.56q0-1.26.04-1.48.07-.53.44-.84.38-.3 1.07-.3.5 0 1.13.22v1.22q-.35-.1-.57-.1-.28 0-.41.12-.1.09-.1.36v.8h1.01v1.36h-1.01v5.01h-1.6v-5.01h-.57zm4.1 0h1.62v3.07q0 .9.13 1.25.12.34.39.54.27.19.67.19t.68-.19q.28-.2.41-.56.1-.28.1-1.18v-3.12h1.6v2.7q0 1.67-.26 2.28-.32.75-.95 1.16-.62.4-1.59.4-1.05 0-1.7-.47-.64-.47-.9-1.3-.2-.59-.2-2.12zm7.21 0h1.6v.65q.54-.46.98-.63.45-.19.9-.19.96 0 1.62.67.56.56.56 1.66v4.21h-1.59V268q0-1.13-.1-1.5-.1-.38-.36-.58-.25-.2-.62-.2-.5 0-.84.33-.35.32-.48.9-.07.3-.07 1.3v2.55H268zm13.44 1.29-1.33.73q-.37-.4-.74-.54-.36-.16-.86-.16-.9 0-1.45.54-.55.54-.55 1.37 0 .82.53 1.33.54.52 1.4.52 1.08 0 1.67-.73l1.26.86q-1.02 1.33-2.9 1.33-1.67 0-2.63-1-.95-1-.95-2.33 0-.93.47-1.7.46-.78 1.29-1.23.83-.45 1.85-.45.95 0 1.7.39.76.37 1.24 1.07zm1.64-3.64h1.6v2.35h.94v1.38h-.95v5h-1.6v-5h-.81v-1.38h.82zm4.03-.28q.42 0 .72.3.3.31.3.75 0 .42-.3.73-.3.3-.7.3-.44 0-.74-.3-.3-.32-.3-.76 0-.42.3-.72t.72-.3zm-.8 2.63h1.6v6.37h-1.6zm6.04-.17q.9 0 1.7.46.8.45 1.24 1.22.45.77.45 1.67 0 .9-.46 1.69-.44.78-1.21 1.23-.78.44-1.71.44-1.37 0-2.34-.97-.97-.98-.97-2.38 0-1.5 1.1-2.49.96-.87 2.2-.87zm.03 1.51q-.75 0-1.24.52-.5.52-.5 1.33 0 .83.49 1.34.5.52 1.24.52.75 0 1.25-.52t.5-1.34q0-.82-.5-1.33-.48-.52-1.24-.52zm4.66-1.34h1.6v.65q.54-.46.98-.63.45-.19.9-.19.96 0 1.62.67.56.56.56 1.66v4.21h-1.59V268q0-1.13-.1-1.5-.1-.38-.36-.58-.25-.2-.63-.2-.48 0-.83.33-.35.32-.48.9-.07.3-.07 1.3v2.55h-1.6zm11.91 0h1.6v6.37h-1.6v-.67q-.47.45-.94.64-.47.2-1.02.2-1.24 0-2.14-.96-.9-.96-.9-2.38 0-1.48.87-2.42.88-.95 2.12-.95.58 0 1.08.22.5.22.93.65zm-1.68 1.31q-.74 0-1.23.53-.5.52-.5 1.34 0 .83.5 1.36.5.53 1.24.53.75 0 1.25-.52.5-.53.5-1.38 0-.83-.5-1.34-.5-.52-1.26-.52zm4.72-3.77h1.6v8.83H312zM40.9 279.42h1.59v6.37h-1.6v-.67q-.47.45-.94.64-.47.2-1.02.2-1.24 0-2.14-.96-.9-.96-.9-2.38 0-1.48.87-2.42.87-.95 2.12-.95.58 0 1.08.22.5.22.93.65zm-1.69 1.31q-.74 0-1.24.53-.49.52-.49 1.34 0 .83.5 1.36.5.53 1.24.53.75 0 1.25-.52.5-.53.5-1.38 0-.83-.5-1.34-.5-.52-1.26-.52zm8.8-.42-1 .99q-.6-.6-1.1-.6-.26 0-.41.12-.16.11-.16.28 0 .13.1.24.1.1.48.3l.58.29q.93.45 1.28.93.34.47.34 1.11 0 .85-.62 1.42-.63.57-1.67.57-1.4 0-2.23-1.1l.98-1.06q.28.32.66.53.38.2.67.2.32 0 .51-.15.2-.16.2-.36 0-.37-.7-.72l-.54-.27q-1.55-.78-1.55-1.95 0-.75.58-1.29.59-.54 1.5-.54.62 0 1.16.28.55.27.93.78zm5.27 0-.99.99q-.6-.6-1.1-.6-.26 0-.41.12-.16.11-.16.28 0 .13.1.24.1.1.48.3l.58.29q.93.45 1.28.93.34.47.34 1.11 0 .85-.63 1.42-.62.57-1.67.57-1.39 0-2.22-1.1l.98-1.06q.28.32.66.53.38.2.67.2.32 0 .51-.15.2-.16.2-.36 0-.37-.7-.72l-.54-.27q-1.55-.78-1.55-1.95 0-.75.58-1.29.59-.54 1.5-.54.62 0 1.16.28.55.27.93.78zm7.77 2.76H55.9q.11.68.6 1.08.48.4 1.23.4.9 0 1.54-.63l1.35.64q-.5.71-1.21 1.06-.7.34-1.67.34-1.5 0-2.44-.95-.95-.94-.95-2.37 0-1.46.94-2.42.94-.97 2.36-.97 1.5 0 2.45.97.94.96.94 2.54zm-1.6-1.26q-.17-.53-.63-.87-.47-.33-1.08-.33-.67 0-1.17.37-.32.24-.6.83zm2.88-2.4h1.6v.74q.42-.45.91-.67.5-.23 1.1-.23.6 0 1.08.3.48.29.77.85.38-.56.93-.85.56-.3 1.22-.3.68 0 1.2.32.5.32.73.83.23.5.23 1.66v3.73h-1.61v-3.23q0-1.08-.27-1.47-.27-.38-.81-.38-.41 0-.74.23-.32.24-.48.65-.16.41-.16 1.33v2.87h-1.6v-3.08q0-.86-.14-1.24-.12-.39-.37-.57-.26-.2-.61-.2-.4 0-.73.25-.32.23-.49.66-.15.43-.15 1.35v2.83h-1.6zm12.88-2.45v3.16q.43-.43.94-.65.5-.22 1.08-.22 1.24 0 2.12.95.87.94.87 2.42 0 1.42-.9 2.38t-2.14.96q-.55 0-1.03-.2-.47-.2-.94-.64v.67h-1.59v-8.83zm1.68 3.77q-.75 0-1.25.52-.5.51-.5 1.34 0 .85.5 1.38.5.52 1.25.52.73 0 1.23-.53t.5-1.36q0-.82-.49-1.34-.49-.53-1.24-.53zm4.48-3.77h1.6v8.83h-1.6zm2.34 2.46h1.64l1.65 4 1.83-4h1.64l-4 8.7h-1.64l1.3-2.8zm14.02-.17q.9 0 1.7.46.8.45 1.24 1.22.44.77.44 1.67 0 .9-.45 1.69-.44.78-1.22 1.23-.77.44-1.7.44-1.37 0-2.34-.97-.97-.98-.97-2.38 0-1.5 1.1-2.49.96-.87 2.2-.87zm.03 1.51q-.75 0-1.25.52-.49.52-.49 1.33 0 .83.49 1.34.5.52 1.24.52.75 0 1.25-.52t.5-1.34q0-.82-.5-1.33-.48-.52-1.24-.52zm3.9-1.34h.57q0-1.26.04-1.48.06-.53.44-.84.38-.3 1.07-.3.5 0 1.13.22v1.22q-.35-.1-.57-.1-.28 0-.41.12-.1.09-.1.36v.8h1.01v1.36h-1.01v5.01h-1.6v-5.01h-.57zm13.86 3.65h-5.14q.12.68.6 1.08t1.23.4q.9 0 1.54-.63l1.35.64q-.5.71-1.2 1.06-.71.34-1.68.34-1.5 0-2.44-.95-.94-.94-.94-2.37 0-1.46.93-2.42.95-.97 2.37-.97 1.5 0 2.44.97.95.96.95 2.54zm-1.6-1.26q-.16-.53-.63-.87-.46-.33-1.08-.33-.67 0-1.17.37-.32.24-.59.83zm2.73-4.85h1.6v8.83h-1.6zm9.43 6.1h-5.14q.11.69.6 1.1.48.4 1.23.4.9 0 1.54-.64l1.35.64q-.5.71-1.2 1.06-.71.34-1.68.34-1.5 0-2.44-.95-.94-.94-.94-2.37 0-1.46.93-2.42.95-.97 2.36-.97 1.51 0 2.45.97.95.96.95 2.54zm-1.6-1.25q-.16-.53-.63-.87-.46-.33-1.08-.33-.67 0-1.17.37-.32.24-.59.83zm9.14-1.1-1.33.73q-.38-.4-.75-.54-.36-.16-.85-.16-.9 0-1.46.54-.55.54-.55 1.37 0 .82.54 1.33.53.52 1.4.52 1.07 0 1.67-.73l1.26.86q-1.03 1.33-2.9 1.33-1.68 0-2.64-1-.94-1-.94-2.33 0-.93.46-1.7.46-.78 1.29-1.23.83-.45 1.85-.45.95 0 1.71.39.76.37 1.24 1.07zm1.63-3.64h1.6v2.35h.94v1.38h-.95v5h-1.59v-5h-.82v-1.38h.82zm3.03 2.35h1.37v.8q.22-.47.6-.72.36-.25.8-.25.31 0 .65.17l-.5 1.38q-.28-.15-.46-.15-.37 0-.63.46-.25.46-.25 1.8v2.88h-1.58zm7.2-.17q.91 0 1.7.46.8.45 1.24 1.22.45.77.45 1.67 0 .9-.45 1.69-.45.78-1.22 1.23-.78.44-1.7.44-1.38 0-2.35-.97-.97-.98-.97-2.38 0-1.5 1.1-2.49.96-.87 2.2-.87zm.03 1.51q-.74 0-1.24.52t-.5 1.33q0 .83.5 1.34.48.52 1.23.52t1.25-.52q.5-.52.5-1.34 0-.82-.5-1.33-.48-.52-1.24-.52zm4.66-1.34h1.6v.65q.54-.46.98-.63.45-.19.91-.19.95 0 1.61.67.56.56.56 1.66v4.21h-1.58V283q0-1.13-.1-1.5-.1-.38-.37-.58-.25-.2-.62-.2-.49 0-.84.33-.35.32-.48.9-.07.3-.07 1.3v2.55h-1.6zm7.83-2.63q.42 0 .72.3.3.31.3.75 0 .42-.3.73-.29.3-.7.3-.43 0-.74-.3-.3-.32-.3-.76 0-.42.3-.72t.72-.3zm-.8 2.63h1.6v6.37h-1.6zm9.3 1.29-1.34.73q-.37-.4-.74-.54-.36-.16-.86-.16-.9 0-1.45.54-.55.54-.55 1.37 0 .82.53 1.33.54.52 1.4.52 1.08 0 1.67-.73l1.26.86q-1.02 1.33-2.9 1.33-1.67 0-2.63-1-.95-1-.95-2.33 0-.93.47-1.7.46-.78 1.28-1.23.84-.45 1.86-.45.95 0 1.7.39.76.37 1.24 1.07zm11.03 0-1.33.73q-.37-.4-.74-.54-.37-.16-.86-.16-.9 0-1.45.54-.55.54-.55 1.37 0 .82.53 1.33.53.52 1.4.52 1.07 0 1.67-.73l1.26.86q-1.02 1.33-2.9 1.33-1.67 0-2.63-1-.95-1-.95-2.33 0-.93.46-1.7.47-.78 1.3-1.23.83-.45 1.85-.45.95 0 1.7.39.76.37 1.24 1.07zm4.44-1.46q.9 0 1.7.46.79.45 1.23 1.22.45.77.45 1.67 0 .9-.45 1.69-.45.78-1.22 1.23-.77.44-1.7.44-1.38 0-2.35-.97-.97-.98-.97-2.38 0-1.5 1.1-2.49.96-.87 2.2-.87zm.02 1.51q-.74 0-1.24.52t-.5 1.33q0 .83.5 1.34.49.52 1.24.52t1.24-.52q.5-.52.5-1.34 0-.82-.5-1.33-.48-.52-1.24-.52zm4.65-1.34h1.6v.73q.42-.45.92-.67.5-.23 1.1-.23.59 0 1.07.3.48.29.77.85.39-.56.94-.85.55-.3 1.2-.3.69 0 1.2.32.52.32.74.83.23.5.23 1.66v3.73h-1.61v-3.23q0-1.08-.27-1.47-.27-.38-.8-.38-.42 0-.75.23-.32.24-.48.65-.16.41-.16 1.33v2.87h-1.6v-3.08q0-.86-.14-1.24-.12-.39-.37-.57-.25-.2-.61-.2-.4 0-.73.25-.32.23-.48.66-.16.43-.16 1.35v2.83h-1.6zm12.88 0v.7q.44-.43.94-.65.5-.22 1.08-.22 1.25 0 2.12.95.87.94.87 2.42 0 1.42-.9 2.38t-2.14.96q-.55 0-1.02-.2-.48-.2-.95-.64v3h-1.59v-8.7zm1.68 1.31q-.75 0-1.25.52-.5.51-.5 1.34 0 .85.5 1.38.5.52 1.25.52.74 0 1.23-.53.5-.53.5-1.36 0-.82-.48-1.34-.5-.53-1.25-.53zm7.65-1.48q.9 0 1.7.46.8.45 1.24 1.22.44.77.44 1.67 0 .9-.45 1.69-.45.78-1.22 1.23-.77.44-1.7.44-1.37 0-2.35-.97-.96-.98-.96-2.38 0-1.5 1.1-2.49.95-.87 2.2-.87zm.02 1.51q-.74 0-1.24.52t-.5 1.33q0 .83.5 1.34.49.52 1.24.52t1.25-.52q.5-.52.5-1.34 0-.82-.5-1.33-.48-.52-1.25-.52zm4.67-1.34h1.6v.65q.54-.46.98-.63.44-.19.9-.19.95 0 1.62.67.55.56.55 1.66v4.21h-1.58V283q0-1.13-.1-1.5-.1-.38-.36-.58-.25-.2-.63-.2-.49 0-.84.33-.34.32-.48.9-.07.3-.07 1.3v2.55h-1.6zm13.59 3.65h-5.14q.1.68.59 1.08t1.24.4q.9 0 1.54-.63l1.34.64q-.5.71-1.2 1.06-.7.34-1.67.34-1.5 0-2.45-.95-.94-.94-.94-2.37 0-1.46.94-2.42.94-.97 2.36-.97 1.5 0 2.45.97.94.96.94 2.54zm-1.61-1.26q-.16-.53-.63-.87-.46-.33-1.07-.33-.67 0-1.18.37-.31.24-.58.83zm2.9-2.4h1.6v.66q.54-.46.98-.63.44-.19.9-.19.96 0 1.62.67.55.56.55 1.66v4.21h-1.58V283q0-1.13-.1-1.5-.1-.38-.36-.58-.25-.2-.63-.2-.48 0-.83.33-.35.32-.49.9-.07.3-.07 1.3v2.55h-1.59zm7.4-2.34h1.59v2.35h.95v1.38h-.95v5h-1.6v-5h-.82v-1.38h.83zm7.3 3.24-.99.99q-.6-.6-1.1-.6-.26 0-.42.12-.15.11-.15.28 0 .13.1.24.1.1.48.3l.58.29q.93.45 1.27.93.35.47.35 1.11 0 .85-.63 1.42-.62.57-1.67.57-1.4 0-2.22-1.1l.98-1.06q.28.32.66.53.38.2.67.2.32 0 .51-.15.2-.16.2-.36 0-.37-.7-.72l-.54-.27q-1.55-.78-1.55-1.95 0-.75.58-1.29.59-.54 1.5-.54.62 0 1.16.28.55.27.93.78zm3.97-.9h.57q0-1.25.04-1.47.07-.53.44-.84.38-.3 1.08-.3.5 0 1.12.22v1.22q-.35-.1-.57-.1-.28 0-.4.12-.1.09-.1.36v.8h1v1.36h-1v5.01h-1.6v-5.01h-.58zm7.12-.16q.9 0 1.7.46.79.45 1.23 1.22.45.77.45 1.67 0 .9-.45 1.69-.45.78-1.22 1.23-.77.44-1.7.44-1.38 0-2.35-.97-.97-.98-.97-2.38 0-1.5 1.1-2.49.96-.87 2.2-.87zm.02 1.51q-.74 0-1.24.52t-.5 1.33q0 .83.5 1.34.49.52 1.24.52t1.24-.52q.5-.52.5-1.34 0-.82-.5-1.33-.48-.52-1.24-.52zm4.29-1.34h1.37v.8q.22-.47.6-.72.36-.25.8-.25.31 0 .65.17l-.5 1.38q-.28-.15-.46-.15-.37 0-.63.46-.25.46-.25 1.8v2.88h-1.58zm7.56 0h1.62v3.07q0 .9.12 1.25.13.34.4.54.27.19.67.19t.68-.19q.28-.2.41-.56.1-.28.1-1.18v-3.12h1.6v2.7q0 1.67-.26 2.28-.32.75-.95 1.16-.62.4-1.59.4-1.05 0-1.7-.47-.64-.47-.9-1.3-.2-.59-.2-2.12zm11.11.89-.99.99q-.6-.6-1.1-.6-.26 0-.41.12-.16.11-.16.28 0 .13.1.24.1.1.48.3l.58.29q.93.45 1.28.93.34.47.34 1.11 0 .85-.63 1.42-.62.57-1.67.57-1.39 0-2.22-1.1l.98-1.06q.28.32.66.53.38.2.67.2.32 0 .51-.15.2-.16.2-.36 0-.37-.7-.72l-.54-.27q-1.55-.78-1.55-1.95 0-.75.58-1.29.59-.54 1.5-.54.62 0 1.16.28.55.27.93.78zm7.77 2.76h-5.14q.11.68.6 1.08.48.4 1.23.4.9 0 1.54-.63l1.35.64q-.5.71-1.21 1.06-.7.34-1.67.34-1.5 0-2.44-.95-.95-.94-.95-2.37 0-1.46.94-2.42.94-.97 2.36-.97 1.5 0 2.45.97.94.96.94 2.54zm-1.6-1.26q-.17-.53-.63-.87-.47-.33-1.08-.33-.67 0-1.17.37-.32.24-.6.83zm5.54-2.4h1.57l1.28 3.64 1.38-3.63h.96l1.35 3.58 1.28-3.58h1.58l-2.33 6.37h-1.01l-1.36-3.63-1.4 3.63h-1zm10.93-2.62q.43 0 .73.3.3.31.3.75 0 .42-.3.73-.3.3-.71.3-.43 0-.74-.3-.3-.32-.3-.76 0-.42.3-.72t.72-.3zm-.8 2.63h1.6v6.37h-1.6zm3.25-2.35h1.6v2.35h.94v1.38h-.95v5h-1.6v-5h-.81v-1.38h.82zm3.4-.11h1.6v3.1q.46-.4.94-.6.47-.2.96-.2.95 0 1.6.65.56.57.56 1.67v4.21h-1.58V283q0-1.1-.1-1.5-.11-.38-.37-.58-.25-.2-.63-.2-.48 0-.83.33-.35.32-.48.88-.07.29-.07 1.31v2.56h-1.6zm-192.23 17.3q.9 0 1.7.45.79.45 1.23 1.22.45.77.45 1.67 0 .9-.45 1.69-.45.78-1.22 1.23-.77.44-1.7.44-1.38 0-2.35-.97-.97-.98-.97-2.38 0-1.5 1.1-2.49.96-.87 2.2-.87zm.02 1.5q-.74 0-1.24.52t-.5 1.33q0 .83.5 1.34.49.52 1.24.52t1.24-.52q.5-.52.5-1.34 0-.82-.49-1.33-.49-.52-1.25-.52zm4.86-3.7h1.6v2.36h.94v1.38h-.95v5h-1.6v-5h-.81v-1.38h.82zm3.4-.1h1.6v3.1q.47-.4.94-.6.47-.2.96-.2.95 0 1.6.65.56.57.56 1.67v4.21h-1.58V298q0-1.1-.1-1.5-.11-.38-.37-.58-.25-.2-.62-.2-.5 0-.84.33-.35.32-.48.88-.07.29-.07 1.31v2.56h-1.6zm13.6 6.1h-5.15q.11.69.6 1.1.48.4 1.23.4.9 0 1.54-.64l1.35.64q-.5.71-1.2 1.06-.71.34-1.68.34-1.5 0-2.44-.95-.94-.94-.94-2.37 0-1.46.93-2.42.95-.97 2.36-.97 1.51 0 2.45.97.95.96.95 2.54zm-1.61-1.25q-.16-.53-.63-.87-.46-.33-1.08-.33-.67 0-1.17.37-.32.24-.59.83zm2.52-2.4h1.37v.81q.22-.47.6-.72.36-.25.8-.25.31 0 .65.17l-.5 1.38q-.28-.15-.46-.15-.37 0-.62.46-.26.46-.26 1.8v2.88h-1.58zm11.47.9-.99.99q-.6-.6-1.1-.6-.26 0-.41.12-.16.11-.16.28 0 .13.1.24.1.1.48.3l.58.29q.93.45 1.28.93.34.47.34 1.11 0 .85-.63 1.42-.62.57-1.67.57-1.4 0-2.22-1.1l.98-1.06q.28.32.66.53.38.2.67.2.32 0 .51-.15.2-.16.2-.36 0-.37-.7-.72l-.54-.27q-1.55-.78-1.55-1.95 0-.75.58-1.29.59-.54 1.5-.54.62 0 1.16.28.55.27.93.78zm1.37-.9h1.62v3.08q0 .9.13 1.25.12.34.39.54.27.19.67.19t.68-.19q.28-.2.41-.56.1-.28.1-1.18v-3.12h1.6v2.7q0 1.67-.26 2.28-.32.75-.95 1.16-.62.4-1.59.4-1.05 0-1.7-.47-.64-.47-.9-1.3-.2-.59-.2-2.12zm13.45 1.3-1.33.73q-.37-.4-.74-.54-.37-.16-.86-.16-.9 0-1.45.54-.55.54-.55 1.37 0 .82.53 1.33.53.52 1.4.52 1.07 0 1.67-.73l1.26.86q-1.02 1.33-2.9 1.33-1.67 0-2.63-1-.95-1-.95-2.33 0-.93.46-1.7.47-.78 1.3-1.23.83-.45 1.85-.45.95 0 1.7.39.76.37 1.24 1.07zm1.45-3.75h1.59v3.1q.47-.4.94-.6.48-.2.96-.2.95 0 1.6.65.56.57.56 1.67v4.21h-1.58V298q0-1.1-.1-1.5-.1-.38-.37-.58-.25-.2-.62-.2-.49 0-.84.33-.35.32-.48.88-.07.29-.07 1.31v2.56h-1.6zm15.26 2.46h1.6v6.37h-1.6v-.67q-.47.45-.94.64-.47.2-1.02.2-1.24 0-2.14-.96-.9-.96-.9-2.38 0-1.48.87-2.42.88-.95 2.12-.95.58 0 1.08.22.5.22.93.65zm-1.68 1.31q-.74 0-1.23.53-.5.52-.5 1.34 0 .83.5 1.36.5.53 1.24.53.75 0 1.25-.52.5-.53.5-1.38 0-.83-.5-1.34-.5-.52-1.26-.52zm8.8-.42-1 .99q-.6-.6-1.09-.6-.27 0-.42.12-.15.11-.15.28 0 .13.09.24.1.1.48.3l.59.29q.92.45 1.27.93.34.47.34 1.11 0 .85-.62 1.42t-1.67.57q-1.4 0-2.23-1.1l.98-1.06q.29.32.66.53.38.2.67.2.32 0 .51-.15.2-.16.2-.36 0-.37-.7-.72l-.54-.27q-1.55-.78-1.55-1.95 0-.75.58-1.29.59-.54 1.5-.54.62 0 1.16.28.56.27.94.78zm5.28 0-1 .99q-.6-.6-1.09-.6-.27 0-.42.12-.15.11-.15.28 0 .13.09.24.1.1.48.3l.59.29q.92.45 1.27.93.34.47.34 1.11 0 .85-.62 1.42-.63.57-1.67.57-1.4 0-2.23-1.1l.98-1.06q.28.32.66.53.38.2.67.2.32 0 .51-.15.2-.16.2-.36 0-.37-.7-.72l-.54-.27q-1.55-.78-1.55-1.95 0-.75.58-1.29.59-.54 1.5-.54.62 0 1.16.28.55.27.94.78zm7.76 2.76h-5.14q.11.68.6 1.08.48.4 1.23.4.9 0 1.54-.63l1.35.64q-.5.71-1.21 1.06-.7.34-1.67.34-1.5 0-2.44-.95-.95-.94-.95-2.37 0-1.46.94-2.42.94-.97 2.36-.97 1.5 0 2.45.97.95.96.95 2.54zm-1.6-1.26q-.16-.53-.63-.87-.47-.33-1.08-.33-.67 0-1.17.37-.32.24-.59.83zm2.88-2.4h1.6v.74q.42-.45.92-.67.5-.23 1.1-.23.59 0 1.07.3.48.29.77.85.38-.56.94-.85.55-.3 1.2-.3.69 0 1.2.32.52.32.74.83.23.5.23 1.66v3.73h-1.61v-3.23q0-1.08-.27-1.47-.27-.38-.8-.38-.42 0-.75.23-.32.24-.48.65-.16.41-.16 1.33v2.87h-1.6v-3.08q0-.86-.14-1.24-.12-.39-.37-.57-.25-.2-.61-.2-.4 0-.73.25-.32.23-.48.66-.16.43-.16 1.35v2.83h-1.6zm12.88-2.45v3.16q.43-.43.94-.65.5-.22 1.08-.22 1.25 0 2.12.95.87.94.87 2.42 0 1.42-.9 2.38t-2.14.96q-.55 0-1.03-.2-.47-.2-.94-.64v.67h-1.59v-8.83zm1.68 3.77q-.75 0-1.25.52-.5.51-.5 1.34 0 .85.5 1.38.5.52 1.25.52.74 0 1.23-.53.5-.53.5-1.36 0-.82-.48-1.34-.5-.53-1.25-.53zm4.49-3.77h1.6v8.83h-1.6zm3.67-.17q.42 0 .72.3.3.31.3.75 0 .42-.3.73-.3.3-.7.3-.44 0-.74-.3-.3-.32-.3-.76 0-.42.3-.72t.72-.3zm-.8 2.63h1.6v6.37h-1.6zm9.44 3.65h-5.14q.1.68.59 1.08t1.24.4q.9 0 1.54-.63l1.34.64q-.5.71-1.2 1.06-.7.34-1.67.34-1.5 0-2.45-.95-.94-.94-.94-2.37 0-1.46.94-2.42.94-.97 2.36-.97 1.5 0 2.45.97.94.96.94 2.54zm-1.6-1.26q-.17-.53-.64-.87-.46-.33-1.07-.33-.67 0-1.18.37-.31.24-.58.83zm6.8-1.5-1 .99q-.6-.6-1.1-.6-.26 0-.41.12-.16.11-.16.28 0 .13.1.24.1.1.48.3l.58.29q.93.45 1.27.93.35.47.35 1.11 0 .85-.63 1.42-.62.57-1.67.57-1.4 0-2.22-1.1l.98-1.06q.28.32.66.53.38.2.67.2.32 0 .51-.15.2-.16.2-.36 0-.37-.7-.72l-.54-.27q-1.55-.78-1.55-1.95 0-.75.58-1.29.59-.54 1.5-.54.62 0 1.16.28.55.27.93.78z" aria-label="Any in a series of standardized units for use together, such as a usually packaged functional assembly of electronic components for use with other such assemblies"/><path fill="#000" d="M52.54 45.97h10.73q10.38 0 15.42 2.59Q83.74 51.1 87 56.9q3.27 5.78 3.27 13.51 0 5.5-1.85 10.12-1.8 4.6-5.04 7.63-3.2 3.04-6.95 4.2-3.75 1.17-13 1.17h-10.9Zm9.02 8.73v29.97h4.2q6.2 0 8.99-1.42 2.81-1.43 4.59-4.79 1.78-3.36 1.78-8.27 0-7.57-4.24-11.74-3.81-3.75-12.25-3.75Z" aria-label="D"/><path fill="#000" d="m289.13 155.76-6.7 5.92q-3.52-4.91-7.17-4.91-1.78 0-2.91.97-1.14.93-1.14 2.13 0 1.2.81 2.26 1.1 1.42 6.63 6.11 5.17 4.33 6.27 5.47 2.75 2.78 3.88 5.33 1.17 2.52 1.17 5.53 0 5.85-4.05 9.66-4.04 3.82-10.53 3.82-5.08 0-8.86-2.49-3.75-2.49-6.44-7.82l7.6-4.6q3.43 6.31 7.89 6.31 2.33 0 3.91-1.36 1.59-1.36 1.59-3.13 0-1.62-1.2-3.24-1.2-1.61-5.27-4.94-7.76-6.34-10.02-9.77-2.27-3.46-2.27-6.88 0-4.95 3.75-8.47 3.79-3.56 9.32-3.56 3.55 0 6.75 1.65 3.23 1.65 6.99 6.01z" aria-label="S"/><path fill="#000" stroke-width="0" d="m59.8 141.75-2.04 1.95q-2.08-2.2-4.7-2.2-2.2 0-3.7 1.5t-1.5 3.7q0 1.54.66 2.73.67 1.19 1.89 1.87 1.22.68 2.71.68 1.27 0 2.33-.47 1.05-.48 2.31-1.74l1.99 2.07q-1.7 1.66-3.22 2.3-1.51.64-3.45.64-3.58 0-5.86-2.26-2.28-2.28-2.28-5.82 0-2.3 1.03-4.08 1.05-1.79 2.98-2.87 1.94-1.09 4.17-1.09 1.9 0 3.65.8 1.77.81 3.04 2.3zm1.58 1.3h2.44v1.42q.4-.84 1.06-1.28.66-.44 1.44-.44.55 0 1.16.3l-.89 2.45q-.5-.25-.82-.25-.66 0-1.12.81-.45.81-.45 3.2l.01.55v4.59h-2.83zm7.5 0h2.87v5.46q0 1.6.22 2.22.22.62.7.96.5.35 1.2.35.71 0 1.2-.34.5-.34.74-1 .18-.49.18-2.1v-5.55h2.86v4.8q0 2.98-.47 4.07-.58 1.34-1.7 2.06-1.1.7-2.83.7-1.87 0-3.02-.83t-1.62-2.32q-.34-1.04-.34-3.76zm24.2 6.5h-9.15q.2 1.2 1.05 1.93.87.7 2.2.7 1.6 0 2.75-1.11l2.4 1.12q-.9 1.28-2.15 1.9-1.25.6-2.98.6-2.67 0-4.35-1.68-1.68-1.7-1.68-4.23 0-2.6 1.67-4.3 1.68-1.73 4.2-1.73 2.69 0 4.37 1.72 1.68 1.72 1.68 4.53zm-2.86-2.25q-.28-.95-1.12-1.54-.82-.6-1.92-.6-1.19 0-2.08.67-.57.42-1.05 1.47zm4.86-8.64h2.85v15.74h-2.85zM30.52 181.1v-15.34h2.41q2.1 0 3.07.27 1.38.36 2.2 1.36.8.99.8 2.33 0 .88-.37 1.6-.37.7-1.2 1.33 1.4.66 2.04 1.65.65.98.65 2.33 0 1.3-.67 2.36-.66 1.06-1.72 1.6-1.05.51-2.9.51zm2.92-12.56v3.24h.64q1.07 0 1.58-.45.52-.45.52-1.22 0-.72-.5-1.14-.48-.43-1.48-.43zm0 5.85v3.93h.73q1.82 0 2.45-.46.63-.46.63-1.34 0-.99-.74-1.56-.74-.57-2.46-.57zm14.5-4.93q1.6 0 3.01.8 1.42.8 2.21 2.19.8 1.37.8 2.97t-.8 3q-.8 1.4-2.18 2.2-1.38.78-3.03.78-2.45 0-4.18-1.74-1.72-1.74-1.72-4.22 0-2.66 1.95-4.43 1.71-1.55 3.94-1.55zm.04 2.68q-1.33 0-2.21.93-.88.92-.88 2.36 0 1.48.87 2.4.87.92 2.2.92 1.34 0 2.23-.93.89-.93.89-2.4 0-1.45-.88-2.36-.87-.92-2.22-.92zm13.63-2.68q1.61 0 3.02.8 1.42.8 2.21 2.19.8 1.37.8 2.97t-.81 3q-.8 1.4-2.17 2.2-1.38.78-3.04.78-2.44 0-4.17-1.74-1.72-1.74-1.72-4.22 0-2.66 1.95-4.43 1.71-1.55 3.93-1.55zm.04 2.68q-1.32 0-2.2.93-.88.92-.88 2.36 0 1.48.86 2.4.88.92 2.21.92 1.34 0 2.23-.93.88-.93.88-2.4 0-1.45-.87-2.36-.87-.92-2.23-.92zm8-6.77h2.85v15.73h-2.84zm16.8 10.88H77.3q.2 1.21 1.06 1.93.86.71 2.2.71 1.6 0 2.74-1.11l2.4 1.12q-.9 1.28-2.15 1.9-1.25.6-2.97.6-2.67 0-4.35-1.68-1.68-1.7-1.68-4.23 0-2.6 1.67-4.3 1.68-1.73 4.2-1.73 2.68 0 4.36 1.72 1.68 1.71 1.68 4.53zm-2.85-2.24q-.29-.95-1.12-1.54-.83-.6-1.92-.6-1.19 0-2.09.67-.56.42-1.04 1.47zm13.55-4.26h2.83v11.35h-2.83v-1.2q-.84.8-1.68 1.15-.84.35-1.82.35-2.2 0-3.8-1.7-1.61-1.72-1.61-4.25 0-2.63 1.55-4.3 1.56-1.69 3.78-1.69 1.02 0 1.92.39.9.38 1.66 1.16zm-3 2.34q-1.32 0-2.2.94-.87.93-.87 2.39 0 1.47.88 2.42.9.95 2.2.95 1.35 0 2.24-.93.88-.94.88-2.45 0-1.48-.88-2.4-.9-.92-2.25-.92zm8.71-2.34h2.84v1.16q.97-.81 1.75-1.13.8-.32 1.62-.32 1.7 0 2.87 1.18 1 1 1 2.96v7.5h-2.82v-4.97q0-2.04-.2-2.7-.17-.67-.63-1.02-.45-.35-1.12-.35-.86 0-1.49.58-.61.58-.85 1.6-.13.53-.13 2.3v4.56h-2.84zm-57.9 22.72h2.88l2.21 9.8 2.75-9.8h2.43l2.77 9.8 2.2-9.8h2.87l-3.45 15.34h-2.8l-2.83-9.92-2.78 9.92h-2.77zm21.2-.68q.75 0 1.29.54t.54 1.31q0 .77-.53 1.3-.54.54-1.28.54-.76 0-1.3-.54-.53-.55-.53-1.34 0-.75.53-1.28t1.28-.53zm-1.43 4.67h2.86v11.35h-2.86zm4.77 0h2.44v1.43q.4-.84 1.06-1.28.65-.44 1.44-.44.55 0 1.15.3l-.88 2.44q-.5-.25-.83-.25-.66 0-1.11.82-.45.81-.45 3.19v5.15H69.5zm18.87 6.5h-9.15q.2 1.21 1.06 1.93.86.71 2.2.71 1.6 0 2.74-1.12l2.4 1.13q-.9 1.27-2.15 1.89-1.25.6-2.97.6-2.67 0-4.35-1.68-1.68-1.69-1.68-4.22 0-2.6 1.67-4.3 1.68-1.73 4.2-1.73 2.68 0 4.36 1.72 1.68 1.71 1.68 4.53zm-2.86-2.24q-.28-.95-1.11-1.55-.83-.6-1.92-.6-1.2 0-2.09.68-.56.41-1.04 1.47zm12.12-2.67-1.77 1.76q-1.07-1.06-1.95-1.06-.48 0-.75.2t-.27.5q0 .24.17.43.17.2.85.53l1.05.52q1.64.81 2.26 1.66.62.84.62 1.98 0 1.51-1.12 2.52-1.1 1.01-2.97 1.01-2.49 0-3.97-1.94l1.75-1.9q.5.58 1.17.94.68.36 1.2.36.57 0 .91-.27.34-.27.34-.63 0-.66-1.24-1.28l-.96-.48q-2.75-1.39-2.75-3.48 0-1.34 1.03-2.3 1.05-.95 2.66-.95 1.1 0 2.08.49.98.48 1.66 1.39z" aria-label="Cruel Boolean Wires"/><path fill="#000" stroke-width="0" d="M133.98 149.23h3.16l3.92 11.82 3.97-11.82h3.11l2.86 16.95h-3.11l-1.82-10.7-3.6 10.7h-2.85l-3.56-10.7-1.86 10.7h-3.14zm25.14 4.1q1.77 0 3.33.88 1.56.89 2.44 2.4.87 1.53.87 3.29 0 1.77-.88 3.32-.88 1.54-2.4 2.42-1.52.86-3.35.86-2.7 0-4.6-1.91-1.9-1.92-1.9-4.67 0-2.93 2.15-4.9 1.88-1.7 4.34-1.7zm.04 2.95q-1.46 0-2.44 1.03-.97 1.01-.97 2.6 0 1.64.96 2.65.97 1.02 2.44 1.02 1.48 0 2.46-1.03t.98-2.64q0-1.61-.97-2.61-.96-1.02-2.46-1.02zm18.43-7.47h3.14v17.37h-3.14v-1.33q-.92.88-1.85 1.27-.92.38-2 .38-2.43 0-4.2-1.88-1.78-1.89-1.78-4.68 0-2.9 1.71-4.76 1.72-1.86 4.17-1.86 1.13 0 2.12.43 1 .43 1.83 1.28zm-3.3 7.42q-1.46 0-2.43 1.03-.97 1.03-.97 2.64 0 1.62.98 2.67.99 1.05 2.43 1.05 1.49 0 2.47-1.02.97-1.04.97-2.71 0-1.64-.97-2.65-.98-1.01-2.48-1.01zm9.6-2.58h3.18v6.03q0 1.76.25 2.46.24.67.77 1.05.54.39 1.32.39.79 0 1.33-.37.55-.38.82-1.1.2-.55.2-2.32v-6.14h3.15v5.3q0 3.29-.52 4.5-.63 1.47-1.87 2.27-1.23.78-3.13.78-2.06 0-3.34-.92-1.27-.92-1.79-2.57-.36-1.14-.36-4.15zm13.84-4.84h3.14v17.37h-3.14zm11.88 4.51q1.77 0 3.32.89 1.57.89 2.45 2.4.87 1.53.87 3.29 0 1.77-.88 3.32-.88 1.54-2.4 2.42-1.52.86-3.35.86-2.7 0-4.61-1.91-1.9-1.92-1.9-4.67 0-2.93 2.15-4.9 1.9-1.7 4.35-1.7zm.04 2.96q-1.46 0-2.44 1.03-.97 1.01-.97 2.6 0 1.64.96 2.65.97 1.02 2.44 1.02t2.45-1.03q.98-1.03.98-2.64t-.96-2.61q-.96-1.02-2.46-1.02zm-63.63 22.44h3.15l3.92 11.82 3.97-11.82h3.11l2.86 16.95h-3.11l-1.82-10.7-3.6 10.7h-2.85l-3.56-10.7-1.86 10.7h-3.14zm28.5 4.41h3.14v12.54h-3.14v-1.33q-.92.88-1.85 1.27-.92.38-2 .38-2.43 0-4.2-1.88-1.78-1.89-1.78-4.69 0-2.9 1.71-4.75 1.72-1.86 4.17-1.86 1.13 0 2.12.43 1 .42 1.83 1.28zm-3.3 2.58q-1.46 0-2.43 1.04-.97 1.03-.97 2.64 0 1.62.98 2.67 1 1.05 2.43 1.05 1.49 0 2.47-1.03.97-1.03.97-2.7 0-1.64-.97-2.65-.98-1.02-2.48-1.02zm9.08-2.58h9.61l-5.64 9.88h5.32v2.66h-10.16l5.67-9.87h-4.8zm23.94 7.18h-10.1q.22 1.34 1.16 2.13.96.78 2.44.78 1.76 0 3.02-1.23l2.65 1.25q-.99 1.4-2.37 2.08-1.38.67-3.28.67-2.95 0-4.8-1.86-1.86-1.86-1.86-4.66 0-2.87 1.84-4.76 1.86-1.9 4.65-1.9 2.96 0 4.81 1.9 1.86 1.9 1.86 5zm-3.15-2.48q-.31-1.04-1.24-1.7-.9-.66-2.11-.66-1.32 0-2.3.74-.63.46-1.16 1.62z" aria-label="Modulo Maze"/><path fill="#000" stroke-width="0" d="m143.59 52.57-2.25 1.99q-1.19-1.66-2.42-1.66-.6 0-.97.33-.38.31-.38.72 0 .4.27.76.37.48 2.22 2.05 1.74 1.46 2.11 1.84.93.93 1.3 1.8.4.84.4 1.85 0 1.97-1.36 3.25t-3.54 1.28q-1.7 0-2.98-.83-1.26-.84-2.16-2.63l2.55-1.55q1.15 2.12 2.65 2.12.78 0 1.32-.45.53-.46.53-1.06 0-.54-.4-1.09-.4-.54-1.77-1.66-2.61-2.13-3.37-3.28-.76-1.16-.76-2.32 0-1.66 1.26-2.84 1.27-1.2 3.13-1.2 1.2 0 2.27.55 1.09.56 2.35 2.03zm4.03-2.88q.78 0 1.34.56.56.57.56 1.37 0 .8-.55 1.36-.56.55-1.33.55-.8 0-1.36-.56-.55-.58-.55-1.4 0-.78.55-1.33.56-.55 1.34-.55zm-1.49 4.87h2.98v11.82h-2.98zm5.64 0h2.98v1.35q.76-.83 1.68-1.25.94-.4 2.04-.4t2 .53q.89.55 1.43 1.6.7-1.05 1.73-1.6 1.03-.54 2.25-.54 1.26 0 2.22.59.95.59 1.37 1.53.42.95.42 3.08v6.93h-2.99v-6q0-2-.5-2.72-.5-.71-1.5-.71-.76 0-1.37.43-.6.44-.89 1.2-.3.77-.3 2.46v5.34h-2.98v-5.73q0-1.58-.24-2.29-.23-.72-.7-1.07-.46-.34-1.13-.34-.74 0-1.35.44-.6.44-.9 1.23-.3.8-.3 2.5v5.26h-2.97zm26.5-.3q1.67 0 3.14.83 1.48.84 2.3 2.27.83 1.43.83 3.1 0 1.67-.84 3.13-.82 1.45-2.26 2.28-1.43.82-3.16.82-2.54 0-4.35-1.8-1.8-1.82-1.8-4.41 0-2.77 2.04-4.62 1.78-1.6 4.1-1.6zm.04 2.78q-1.38 0-2.3.97-.91.96-.91 2.46 0 1.54.9 2.5.91.95 2.3.95 1.4 0 2.32-.96.92-.97.92-2.5 0-1.51-.91-2.46-.9-.96-2.32-.96zm8.65-2.48h2.96v1.2q1.01-.85 1.83-1.17.82-.34 1.68-.34 1.76 0 3 1.23 1.02 1.04 1.02 3.09v7.81h-2.93V61.2q0-2.12-.2-2.82-.18-.7-.66-1.05-.47-.37-1.16-.37-.9 0-1.56.6-.64.6-.89 1.67-.13.55-.13 2.4v4.75h-2.96zm15.16.9h-1.7l-.6-5.47h2.9zm10.34.75-1.83 1.83q-1.12-1.1-2.04-1.1-.5 0-.78.21t-.28.52q0 .24.17.45.19.2.9.54l1.08.55q1.72.85 2.36 1.73.64.88.64 2.06 0 1.58-1.16 2.63-1.15 1.06-3.1 1.06-2.59 0-4.13-2.03l1.83-1.99q.52.61 1.21 1 .71.36 1.25.36.59 0 .95-.28t.36-.65q0-.69-1.3-1.34l-1-.5q-2.87-1.44-2.87-3.62 0-1.4 1.08-2.39 1.09-1 2.77-1 1.15 0 2.17.51 1.02.5 1.72 1.45zM155.83 80.4l-2.25 1.98q-1.18-1.65-2.41-1.65-.6 0-.98.32t-.38.72q0 .4.27.76.37.48 2.23 2.06 1.74 1.45 2.1 1.83.93.94 1.31 1.8.4.84.4 1.86 0 1.96-1.37 3.25-1.35 1.28-3.54 1.28-1.7 0-2.98-.84-1.26-.84-2.16-2.63l2.55-1.54q1.16 2.12 2.66 2.12.78 0 1.31-.46t.53-1.05q0-.55-.4-1.1-.4-.53-1.77-1.65-2.6-2.13-3.37-3.29-.76-1.16-.76-2.31 0-1.66 1.26-2.85 1.27-1.2 3.13-1.2 1.2 0 2.27.56 1.09.55 2.35 2.02zm2.86 1.98h3v5.7q0 1.66.23 2.31.23.64.73 1t1.25.36q.73 0 1.25-.35.52-.36.77-1.04.18-.51.18-2.19v-5.79h2.98v5.01q0 3.1-.49 4.24-.6 1.4-1.76 2.14-1.16.74-2.96.74-1.94 0-3.15-.87-1.2-.87-1.68-2.42-.35-1.08-.35-3.92zm13.35 0H175v1.36q.77-.84 1.69-1.25.93-.41 2.03-.41 1.11 0 2 .54.9.54 1.44 1.59.7-1.05 1.72-1.6 1.04-.53 2.25-.53 1.26 0 2.22.58.96.59 1.37 1.54.42.94.42 3.07v6.94h-2.98v-6q0-2.01-.5-2.72-.5-.72-1.5-.72-.76 0-1.37.44-.6.43-.9 1.2-.29.76-.29 2.46v5.34h-2.99v-5.73q0-1.59-.24-2.3-.22-.71-.7-1.06-.46-.35-1.12-.35-.74 0-1.35.45-.6.43-.9 1.23-.3.79-.3 2.5v5.26h-2.97zm28.18 1.65-1.84 1.84q-1.12-1.11-2.03-1.11-.5 0-.78.22-.29.2-.29.52 0 .24.18.45.18.2.89.54l1.09.54q1.71.85 2.36 1.73.64.88.64 2.07 0 1.57-1.17 2.63-1.15 1.05-3.1 1.05-2.58 0-4.12-2.02l1.82-2q.52.62 1.22 1 .7.37 1.25.37.59 0 .94-.28.36-.29.36-.66 0-.68-1.29-1.33l-1-.5q-2.87-1.45-2.87-3.62 0-1.4 1.08-2.4t2.77-1q1.15 0 2.16.52 1.02.5 1.73 1.44z" aria-label="Simon's Sums"/></svg>