<svg xmlns="http://www.w3.org/2000/svg" viewBox="0 0 348 348" fill="none"><path d="M5.08 5.776h336.91v337.67H5.08z" stroke-width="2" stroke="#000"/><path d="M282.734 40.554c0-8.376 6.966-15.165 15.56-15.165 4.126 0 8.084 1.594 11 4.44 2.92 2.842 4.56 6.7 4.56 10.722 0 8.376-6.967 15.165-15.56 15.165-8.594 0-15.56-6.79-15.56-15.166z" stroke-width="2" stroke="#000"/><circle style="fill:#dcdcff;fill-opacity:1;stroke:#000;stroke-width:4.29775" cx="52.554" cy="187.548" r="35.815"/><circle style="fill:#dcdcff;fill-opacity:1;stroke:#000;stroke-width:4.29775" cx="133.208" cy="187.548" r="35.815"/><circle style="fill:#dcdcff;fill-opacity:1;stroke:#000;stroke-width:4.29775" cx="213.862" cy="187.548" r="35.815"/><circle style="fill:#dcdcff;fill-opacity:1;stroke:#000;stroke-width:4.29775" cx="294.516" cy="187.548" r="35.815"/><circle style="fill:#46465f;fill-opacity:1;stroke:#000;stroke-width:1.30828" cx="52.554" cy="244.58" r="10.902"/><circle style="fill:#46465f;fill-opacity:1;stroke:#000;stroke-width:2.97682" cx="52.554" cy="293.71" r="24.807"/><circle style="fill:#46465f;fill-opacity:1;stroke:#000;stroke-width:2.97682" cx="294.516" cy="293.71" r="24.807"/><circle style="fill:#46465f;fill-opacity:1;stroke:#000;stroke-width:2.97682" cx="133.208" cy="293.71" r="24.807"/><circle style="fill:#46465f;fill-opacity:1;stroke:#000;stroke-width:2.97682" cx="213.862" cy="293.71" r="24.807"/><circle style="fill:#46465f;fill-opacity:1;stroke:#000;stroke-width:1.30828" cx="294.516" cy="244.58" r="10.902"/><circle style="fill:#46465f;fill-opacity:1;stroke:#000;stroke-width:1.30828" cx="213.862" cy="244.58" r="10.902"/><circle style="fill:#46465f;fill-opacity:1;stroke:#000;stroke-width:1.30828" cx="133.208" cy="244.58" r="10.902"/><circle style="fill:#f0f0ff;fill-opacity:1;stroke:#000;stroke-width:6.70787" cx="172.378" cy="88.47" r="55.899"/><path style="fill:#000400;fill-opacity:1;stroke:none;stroke-width:3" d="M151.378 58.47v60l50-30z"/></svg>