<svg xmlns="http://www.w3.org/2000/svg" viewBox="0 0 348 348" fill="none" stroke-linecap="square" stroke-miterlimit="10">
    <path d="M5 8h335v335H5z" stroke="#000" stroke-width="2" stroke-linecap="butt" stroke-linejoin="round"/>
    <path color="#000" stroke="#000" stroke-width="3" stroke-linecap="round" stroke-linejoin="round" stroke-miterlimit="8.364" d="M235 28h90v60h-90zm-110 0h95v80h-95z"/>
    <path d="M265 28l-30 30m60-30l-60 60m90-60l-60 60m60-30l-30 30" stroke="#000" stroke-width="3" stroke-linecap="round" stroke-linejoin="round" stroke-miterlimit="8.364"/>
    <path color="#000" stroke="#000" stroke-width="3" stroke-linecap="round" stroke-linejoin="round" stroke-miterlimit="8.364" d="M19.913 28.275h90v60h-90z"/>
    <path d="M49.913 28.275l-30 30m60-30l-60 60m90-60l-60 60m60-30l-30 30" stroke="#000" stroke-width="3" stroke-linecap="round" stroke-linejoin="round" stroke-miterlimit="8.364"/>
    <path color="#000" stroke="#000" stroke-width="3" stroke-linecap="round" stroke-linejoin="round" stroke-miterlimit="8.364" d="M20 138h195v185H20z"/>
    <path color="#000" stroke="#000" stroke-width="3" stroke-linecap="round" stroke-linejoin="round" stroke-miterlimit="8.364" d="M25 298h20v20H25zm25 0h20v20H50zm25 0h20v20H75zm-25-25h20v20H50zm75 25h20v20h-20zm25 0h20v20h-20zm0-25h20v20h-20zm0-25h20v20h-20zm80-90h40v40h-40zm50 0h40v40h-40zm-50 55h40v40h-40zm50 0h40v40h-40zm-45 50h80v40h-80z"/>
    <path d="M262.5 178H240" stroke="#000" stroke-width="3" stroke-linecap="butt" stroke-linejoin="round"/>
    <path d="M240 178l10 10m0-20l-10 10" stroke="#000" stroke-width="3" stroke-linejoin="round"/>
    <path d="M287.5 178H310" color="#000" stroke="#000" stroke-width="3" stroke-linecap="butt" stroke-linejoin="round" overflow="visible"/>
    <path d="M300 168l10 10m-10 10l10-10" color="#000" stroke="#000" stroke-width="3" stroke-linejoin="round" overflow="visible"/>
    <path d="M252.5 245.5c7.5 0 12.5-5 12.5-12.5s-5-12.5-12.5-12.5-12.5 5-12.5 12.5v2.5" stroke="#000" stroke-width="3" stroke-linecap="butt"/>
    <path d="M247.5 233l-7.5 7.5-7.5-7.5z" fill="#000"/>
    <path d="M297.5 245.5c-7.5 0-12.5-5-12.5-12.5s5-12.5 12.5-12.5 12.5 5 12.5 12.5v2.5" stroke="#000" stroke-width="3" stroke-linecap="butt"/>
    <path d="M302.5 233h15l-7.5 7.5z" fill="#000"/>
    <path d="M271.25 268v21.438L252.5 280.5v7.5l20.813 10.844a3.813 3.813 0 0 0 3.375 0L297.5 288v-7.5l-18.75 8.938V268z" color="#000" fill="#000"/>
</svg>
