<svg xmlns="http://www.w3.org/2000/svg" fill="none" stroke-linecap="square" stroke-miterlimit="10" width="348" height="348"><rect width="100%" height="100%"/><path d="M0 0h348v348H0z"/><path d="M5.07874 5.77582h336.9134v337.6693H5.07874z"/><path d="M5.07874 5.77582h336.9134v337.6693H5.07874z" stroke="#000" stroke-width="2" stroke-linecap="butt" stroke-linejoin="round"/><path d="M282.73444 40.55392c0-8.3756 6.96603-15.16535 15.55905-15.16535 4.1265 0 8.084 1.59778 11.0019 4.44183 2.9179 2.84406 4.5571 6.70142 4.5571 10.72352 0 8.3756-6.966 15.16536-15.5591 15.16536s-15.5591-6.78976-15.5591-15.16535z" stroke="#000" stroke-width="2" stroke-linecap="butt" stroke-linejoin="round"/><path color="#000" fill="#fff" stroke="#222" stroke-width="2" stroke-linejoin="round" d="M52.7317 81h43v44h-43z"/><path d="M88.33328 116.85742H75.3645v-1.38672c1.0677-.02604 1.93033-.12695 2.5879-.30273.65753-.17578.9863-.44596.98632-.81055 0-.1953-.14975-.59895-.4492-1.21094-.2995-.61197-.68363-1.29556-1.15236-2.05078-.52085-.83332-1.13934-1.81314-1.85547-2.93945-.7162-1.1263-1.4258-2.20377-2.1289-3.23242-1.1459 1.51043-2.448 3.33008-3.9063 5.45898-1.4584 2.129-2.1875 3.3822-2.1875 3.7598 0 .4297.1985.7455.5957.9473.3971.2019 1.2728.3288 2.6269.3809v1.3868H60.1301v-1.3867c.33854-.026.77148-.0748 1.29883-.1464.52732-.0716.96026-.192 1.2988-.3613.6771-.3646 1.2207-.7584 1.63088-1.1816.4102-.4231.8236-.9212 1.2403-1.4941.8334-1.1458 1.9011-2.5748 3.2032-4.2871 1.3021-1.7122 2.4544-3.2714 3.4571-4.6777-.7552-1.1067-1.7187-2.5097-2.8906-4.209-1.1718-1.6992-2.4218-3.5188-3.75-5.4589-.5599-.8203-.9993-1.3997-1.3183-1.7383-.319-.3385-.7454-.6315-1.2793-.8789-.3125-.1432-.7454-.2571-1.2988-.3418-.5534-.0846-.9928-.1399-1.3183-.166V89.143h12.832v1.3867c-.7552.02604-1.5398.12045-2.3535.2832-.8138.1628-1.2207.41342-1.2207.75193 0 .2474.1628.68034.4883 1.2988.3255.6185.7096 1.2793 1.1523 1.9824.4557.7292.9635 1.5365 1.5235 2.4219.5599.8854 1.2435 1.90754 2.0508 3.0664 1.4714-1.9922 2.7409-3.78907 3.8086-5.39065 1.0677-1.60156 1.6016-2.6432 1.6016-3.125 0-.41666-.2441-.72265-.7324-.918-.4883-.1953-1.3119-.319-2.4707-.3711v-1.3868h10.3321v1.38673c-.3255.0131-.752.0619-1.2793.1465-.5274.0847-.9668.2051-1.3183.3614-.6771.3256-1.18163.6771-1.5137 1.0547-.3321.3776-.778.9245-1.3379 1.6406-1.0417 1.3412-2.002 2.6009-2.88082 3.7793-.87894 1.1784-1.9369 2.614-3.17384 4.3066 1.04164 1.4844 2.20375 3.1706 3.4863 5.0586 1.2825 1.8881 2.5097 3.6914 3.6816 5.4102.40364.586.8659 1.1426 1.38674 1.67.5208.5274.9439.8887 1.2695 1.084.3124.1823.7324.2962 1.2597.3418.5273.0456.9733.0749 1.3379.0879z" fill="#000"/><path color="#000" fill="#fff" stroke="#222" stroke-width="2" stroke-linejoin="round" d="M115.14362 80.6748h43v44h-43z"/><path d="M150.7452 116.53222h-12.96876v-1.38672c1.0677-.02604 1.93032-.12695 2.5879-.30273.65753-.17578.9863-.44597.98632-.81055-.00002-.1953-.14976-.59896-.44922-1.21094-.2995-.61197-.6836-1.29557-1.15234-2.05078-.52085-.83333-1.13934-1.81314-1.85547-2.93945-.71616-1.1263-1.4258-2.20377-2.1289-3.23242-1.14585 1.51042-2.44793 3.33008-3.90626 5.45898-1.45834 2.129-2.1875 3.3822-2.1875 3.7598 0 .4297.19856.7455.5957.9473.39713.2019 1.2728.3288 2.62696.3809v1.3868h-10.35156v-1.3867c.33854-.026.77148-.0748 1.29883-.1464.52734-.0716.96028-.192 1.29882-.3613.67708-.3646 1.2207-.7584 1.63086-1.1816.41016-.4232.82357-.9212 1.24024-1.4941.83333-1.1458 1.90103-2.5748 3.20312-4.2871 1.30208-1.7122 2.45442-3.2714 3.45703-4.6777-.75522-1.1067-1.71876-2.5097-2.89062-4.2089-1.17188-1.6992-2.42188-3.5188-3.75-5.459-.5599-.8203-.99935-1.3997-1.31836-1.7383-.3191-.3385-.7455-.6314-1.2793-.8789-.3125-.1432-.7455-.2571-1.2989-.3418-.5534-.0846-.9929-.1399-1.3184-.166v-1.3868h12.832v1.3867c-.7552.0261-1.5398.1205-2.3535.2833-.8138.1628-1.2207.4135-1.2207.752 0 .2474.1627.6804.4883 1.2988.3255.6185.7096 1.2793 1.1523 1.9824.4557.7292.9635 1.5365 1.5234 2.4219.5599.8854 1.2435 1.9076 2.0508 3.0664 1.4713-1.9922 2.7408-3.789 3.8086-5.3906 1.0677-1.6015 1.6015-2.6432 1.6015-3.125 0-.4166-.2442-.7226-.7324-.918-.4883-.1953-1.3119-.319-2.4707-.3711v-1.3867h10.332v1.3867c-.3256.0131-.752.0619-1.2793.1465-.5274.0847-.9668.2051-1.3184.3614-.6771.3256-1.1817.6772-1.5137 1.0547-.3321.3777-.7781.9245-1.3379 1.6407-1.0417 1.3412-2.002 2.6009-2.8809 3.7793-.879 1.1784-1.9369 2.6139-3.1739 4.3066 1.0416 1.4844 2.2038 3.1706 3.4863 5.0586 1.2825 1.888 2.5097 3.6914 3.6816 5.4102.4036.586.8658 1.1426 1.3867 1.6699.5208.5274.944.8887 1.2695 1.084.3125.1823.7324.2963 1.2598.3418.5273.0456.9733.0749 1.3379.0879z" fill="#000"/><path color="#000" fill="#fff" stroke="#222" stroke-width="2" stroke-linejoin="round" d="M177.55554 80.3496h43v44h-43z"/><path d="M213.1571 116.207h-12.96875v-1.3867c1.0677-.02605 1.93033-.12696 2.5879-.30274.65753-.17578.9863-.44597.98632-.81055-.00002-.1953-.14976-.5989-.44922-1.2109-.2995-.6119-.6836-1.2955-1.15234-2.0508-.5208-.8333-1.1393-1.8131-1.8554-2.9394s-1.4258-2.2037-2.1289-3.2324c-1.1458 1.5105-2.4479 3.3301-3.9062 5.459s-2.1875 3.3822-2.1875 3.7598c0 .4297.1986.7455.5957.9473.3972.2018 1.2728.3288 2.627.3809v1.3867H184.954v-1.3867c.33853-.026.77147-.0749 1.29882-.1465.52736-.0716.9603-.192 1.29885-.3613.67708-.3645 1.2207-.7584 1.63086-1.1816.41016-.4231.82357-.9212 1.24024-1.4941.83333-1.1458 1.90103-2.5748 3.20312-4.2871 1.302-1.7122 2.4544-3.2715 3.457-4.6777-.7553-1.1067-1.7188-2.5097-2.8907-4.2089-1.1719-1.6992-2.4219-3.5189-3.75-5.459-.5599-.8203-.9994-1.3997-1.3184-1.7383-.319-.3385-.7455-.6314-1.2793-.8789-.3125-.1432-.7455-.2571-1.2988-.3418-.5534-.0846-.9929-.1399-1.3184-.166v-1.3867h12.832v1.3867c-.7552.0261-1.5398.1205-2.3535.2832-.8138.1628-1.2207.4134-1.2207.752 0 .2474.1627.6804.4883 1.2989.3255.6185.7096 1.2793 1.1523 1.9824.4557.7292.9635 1.5365 1.5234 2.4219.5598.8855 1.2434 1.9076 2.0507 3.0664 1.4713-1.9921 2.7408-3.789 3.8086-5.3906 1.0677-1.6015 1.6015-2.6432 1.6015-3.125 0-.4166-.2442-.7226-.7324-.9179-.4883-.1953-1.3119-.319-2.4707-.3711v-1.3867h10.3321v1.3867c-.3256.0131-.752.0619-1.2793.1465-.5274.0847-.9669.2051-1.3184.3613-.6771.3255-1.1817.6771-1.5137 1.0547-.3321.3776-.778.9245-1.3379 1.6406-1.0417 1.3412-2.002 2.6009-2.8809 3.7793-.8789 1.1784-1.9369 2.614-3.1738 4.3067 1.0416 1.4844 2.2037 3.1706 3.4863 5.0586 1.2825 1.888 2.5097 3.6914 3.6816 5.41017.4036.5859.8658 1.14257 1.3867 1.6699.5208.5273.944.88867 1.2695 1.084.3125.1823.7324.2962 1.2598.3418.5273.0456.9733.0749 1.3379.0879z" fill="#000"/><path color="#000" fill="#fff" stroke="#222" stroke-width="2" stroke-linejoin="round" d="M239.96747 80.0244h43v44h-43z"/><path d="M275.56903 115.8818h-12.96875v-1.3867c1.0677-.02605 1.93032-.12696 2.5879-.30274.65752-.17578.9863-.44596.98632-.81055-.00002-.1953-.14976-.5989-.44922-1.2109-.2995-.612-.6836-1.2955-1.15234-2.0508-.52085-.8333-1.13934-1.8131-1.85547-2.9394-.71616-1.1263-1.4258-2.2037-2.1289-3.2324-1.14585 1.5105-2.44794 3.3301-3.90626 5.459-1.4583 2.1289-2.1875 3.3822-2.1875 3.7598 0 .4297.1986.7455.5958.9473.3971.2019 1.2728.3288 2.627.3809v1.3867H247.366v-1.3867c.33855-.026.7715-.0748 1.29883-.1465.52735-.0716.9603-.192 1.29883-.3613.67708-.3645 1.2207-.7584 1.63086-1.1816.41015-.4231.82356-.9212 1.24024-1.4941.8333-1.1458 1.901-2.5748 3.2031-4.2871 1.30206-1.7122 2.4544-3.2714 3.45702-4.6777-.7552-1.1068-1.71872-2.5097-2.8906-4.209-1.1719-1.6992-2.4219-3.5188-3.75-5.459-.5599-.8203-.99934-1.3997-1.31834-1.7383-.31902-.3385-.74545-.6315-1.2793-.8789-.3125-.1432-.74544-.2571-1.29883-.3418-.5533-.0846-.9928-.1399-1.3183-.166v-1.387h12.8321v1.3867c-.7552.0261-1.5397.1205-2.3535.2832-.8138.1628-1.2207.4135-1.2207.752 0 .2474.1628.6804.4883 1.2989.3255.6185.7097 1.2793 1.1524 1.9824.4557.7291.9636 1.5364 1.5235 2.4218.5599.8854 1.2435 1.9075 2.0508 3.0664 1.4714-1.9922 2.7409-3.7891 3.8086-5.3906 1.0677-1.6016 1.6016-2.6432 1.6016-3.125 0-.4167-.2441-.7227-.7324-.918-.4883-.1953-1.3118-.319-2.4707-.3711V88.167h10.3321v1.3867c-.3255.01305-.752.06188-1.2793.1465-.5273.08465-.9668.2051-1.3183.36132-.6771.32555-1.1816.6771-1.5136 1.0547-.332.37762-.778.9245-1.3379 1.6406-1.0416 1.34118-2.0019 2.60094-2.8808 3.7793-.879 1.1784-1.9369 2.61396-3.1739 4.30665 1.0417 1.4844 2.2038 3.1706 3.4863 5.0586 1.2826 1.88802 2.5098 3.6914 3.6817 5.41015.4037.58594.8659 1.14258 1.3867 1.66992.5208.52735.944.88868 1.2695 1.084.3125.18228.7324.2962 1.2598.34178.5273.04558.9733.07487 1.3379.0879z" fill="#000"/><path color="#000" fill="#fff" stroke="#222" stroke-width="2" stroke-linejoin="round" d="M52.7317 145.39024h43v44h-43z"/><path d="M88.33328 181.24767H75.3645v-1.38672c1.0677-.02604 1.93033-.12695 2.5879-.30274.65753-.1757.9863-.4459.98632-.8105 0-.1953-.14975-.5989-.4492-1.2109-.2995-.612-.68363-1.2955-1.15236-2.0508-.52085-.8333-1.13934-1.8131-1.85547-2.9394-.7162-1.1263-1.4258-2.2037-2.1289-3.2324-1.1459 1.5105-2.448 3.3301-3.9063 5.459-1.4584 2.1289-2.1875 3.3822-2.1875 3.7598 0 .4297.1985.7455.5957.9473.3971.2018 1.2728.3288 2.6269.3809v1.3868H60.1301v-1.3868c.33854-.026.77148-.0748 1.29883-.1465.52732-.0716.96026-.192 1.2988-.3613.6771-.3645 1.2207-.7584 1.63088-1.1816.4102-.4231.8236-.9212 1.2403-1.4941.8334-1.1458 1.9011-2.5748 3.2032-4.2871 1.3021-1.7122 2.4544-3.2714 3.4571-4.6777-.7552-1.1067-1.7187-2.5097-2.8906-4.209-1.1718-1.6992-2.4218-3.5188-3.75-5.4589-.5599-.8203-.9993-1.3997-1.3183-1.7383-.319-.3385-.7454-.6315-1.2793-.8789-.3125-.1432-.7454-.2572-1.2988-.3418-.5534-.0846-.9928-.14-1.3183-.166v-1.3868h12.832v1.3868c-.7552.0261-1.5398.1205-2.3535.2832-.8138.1628-1.2207.4135-1.2207.752 0 .2474.1628.6804.4883 1.2988.3255.6185.7096 1.2793 1.1523 1.9825.4557.7292.9635 1.5365 1.5235 2.4219.5599.8855 1.2435 1.9076 2.0508 3.0664 1.4714-1.9921 2.7409-3.789 3.8086-5.3906 1.0677-1.6015 1.6016-2.6432 1.6016-3.125 0-.4166-.2441-.7226-.7324-.918-.4883-.1953-1.3119-.319-2.4707-.3711v-1.3867h10.3321v1.3867c-.3255.0131-.752.0619-1.2793.1465-.5274.0847-.9668.2051-1.3183.3613-.6771.3256-1.18163.6771-1.5137 1.0547-.3321.3777-.778.9245-1.3379 1.6407-1.0417 1.34113-2.002 2.6009-2.88082 3.7793-.87894 1.1784-1.9369 2.6139-3.17384 4.3066 1.04164 1.4844 2.20375 3.1706 3.4863 5.0586 1.2825 1.888 2.5097 3.6914 3.6816 5.4101.40364.58595.8659 1.1426 1.38674 1.66993.5208.52735.9439.88868 1.2695 1.084.3124.18228.7324.2962 1.2597.3418.5273.04556.9733.07486 1.3379.08788z" fill="#000"/><path color="#000" fill="#fff" stroke="#222" stroke-width="2" stroke-linejoin="round" d="M115.14362 145.39024h43v44h-43z"/><path d="M150.7452 181.24767h-12.96876v-1.38672c1.0677-.02604 1.93032-.12695 2.5879-.30274.65753-.1757.9863-.4459.98632-.8105-.00002-.1953-.14976-.5989-.44922-1.2109-.2995-.612-.6836-1.2955-1.15234-2.0508-.52085-.8333-1.13934-1.8131-1.85547-2.9394-.71616-1.1263-1.4258-2.2037-2.1289-3.2324-1.14585 1.5105-2.44793 3.3301-3.90626 5.459-1.45834 2.1289-2.1875 3.3822-2.1875 3.7598 0 .4297.19856.7455.5957.9473.39713.2018 1.2728.3288 2.62696.3809v1.3868h-10.35156v-1.3868c.33854-.026.77148-.0748 1.29883-.1465.52734-.0716.96028-.192 1.29882-.3613.67708-.3645 1.2207-.7584 1.63086-1.1816.41016-.4231.82357-.9212 1.24024-1.4941.83333-1.1458 1.90103-2.5748 3.20312-4.2871 1.30208-1.7122 2.45442-3.2714 3.45703-4.6777-.75522-1.1067-1.71876-2.5097-2.89062-4.209-1.17188-1.6992-2.42188-3.5188-3.75-5.4589-.5599-.8203-.99935-1.3997-1.31836-1.7383-.3191-.3385-.7455-.6315-1.2793-.8789-.3125-.1432-.7455-.2572-1.2989-.3418-.5534-.0846-.9929-.14-1.3184-.166v-1.3868h12.832v1.3868c-.7552.0261-1.5398.1205-2.3535.2832-.8138.1628-1.2207.4135-1.2207.752 0 .2474.1627.6804.4883 1.2988.3255.6185.7096 1.2793 1.1523 1.9825.4557.7292.9635 1.5365 1.5234 2.4219.5599.8855 1.2435 1.9076 2.0508 3.0664 1.4713-1.9921 2.7408-3.789 3.8086-5.3906 1.0677-1.6015 1.6015-2.6432 1.6015-3.125 0-.4166-.2442-.7226-.7324-.918-.4883-.1953-1.3119-.319-2.4707-.3711v-1.3867h10.332v1.3867c-.3256.0131-.752.0619-1.2793.1465-.5274.0847-.9668.2051-1.3184.3613-.6771.3256-1.1817.6771-1.5137 1.0547-.3321.3777-.7781.9245-1.3379 1.6407-1.0417 1.34113-2.002 2.6009-2.8809 3.7793-.879 1.1784-1.9369 2.6139-3.1739 4.3066 1.0416 1.4844 2.2038 3.1706 3.4863 5.0586 1.2825 1.888 2.5097 3.6914 3.6816 5.4101.4036.58595.8658 1.1426 1.3867 1.66993.5208.52735.944.88868 1.2695 1.084.3125.18228.7324.2962 1.2598.3418.5273.04556.9733.07486 1.3379.08788z" fill="#000"/><path color="#000" fill="#fff" stroke="#222" stroke-width="2" stroke-linejoin="round" d="M177.55554 145.39024h43v44h-43z"/><path d="M213.1571 181.24767h-12.96875v-1.38672c1.0677-.02604 1.93033-.12695 2.5879-.30274.65753-.1757.9863-.4459.98632-.8105-.00002-.1953-.14976-.5989-.44922-1.2109-.2995-.612-.6836-1.2955-1.15234-2.0508-.5208-.8333-1.1393-1.8131-1.8554-2.9394s-1.4258-2.2037-2.1289-3.2324c-1.1458 1.5105-2.4479 3.3301-3.9062 5.459s-2.1875 3.3822-2.1875 3.7598c0 .4297.1986.7455.5957.9473.3972.2018 1.2728.3288 2.627.3809v1.3868H184.954v-1.3868c.33853-.026.77147-.0748 1.29882-.1465.52736-.0716.9603-.192 1.29885-.3613.67708-.3645 1.2207-.7584 1.63086-1.1816.41016-.4231.82357-.9212 1.24024-1.4941.83333-1.1458 1.90103-2.5748 3.20312-4.2871 1.302-1.7122 2.4544-3.2714 3.457-4.6777-.7553-1.1067-1.7188-2.5097-2.8907-4.209-1.1719-1.6992-2.4219-3.5188-3.75-5.4589-.5599-.8203-.9994-1.3997-1.3184-1.7383-.319-.3385-.7455-.6315-1.2793-.8789-.3125-.1432-.7455-.2572-1.2988-.3418-.5534-.0846-.9929-.14-1.3184-.166v-1.3868h12.832v1.3868c-.7552.0261-1.5398.1205-2.3535.2832-.8138.1628-1.2207.4135-1.2207.752 0 .2474.1627.6804.4883 1.2988.3255.6185.7096 1.2793 1.1523 1.9825.4557.7292.9635 1.5365 1.5234 2.4219.5598.8855 1.2434 1.9076 2.0507 3.0664 1.4713-1.9921 2.7408-3.789 3.8086-5.3906 1.0677-1.6015 1.6015-2.6432 1.6015-3.125 0-.4166-.2442-.7226-.7324-.918-.4883-.1953-1.3119-.319-2.4707-.3711v-1.3867h10.3321v1.3867c-.3256.0131-.752.0619-1.2793.1465-.5274.0847-.9669.2051-1.3184.3613-.6771.3256-1.1817.6771-1.5137 1.0547-.3321.3777-.778.9245-1.3379 1.6407-1.0417 1.34113-2.002 2.6009-2.8809 3.7793-.8789 1.1784-1.9369 2.6139-3.1738 4.3066 1.0416 1.4844 2.2037 3.1706 3.4863 5.0586 1.2825 1.888 2.5097 3.6914 3.6816 5.4101.4036.58595.8658 1.1426 1.3867 1.66993.5208.52735.944.88868 1.2695 1.084.3125.18228.7324.2962 1.2598.3418.5273.04556.9733.07486 1.3379.08788z" fill="#000"/><path color="#000" fill="#fff" stroke="#222" stroke-width="2" stroke-linejoin="round" d="M239.96747 145.39024h43v44h-43z"/><path d="M275.56903 181.24767h-12.96875v-1.38672c1.0677-.02604 1.93032-.12695 2.5879-.30274.65752-.1757.9863-.4459.98632-.8105-.00002-.1953-.14976-.5989-.44922-1.2109-.2995-.612-.6836-1.2955-1.15234-2.0508-.52085-.8333-1.13934-1.8131-1.85547-2.9394-.71616-1.1263-1.4258-2.2037-2.1289-3.2324-1.14585 1.5105-2.44794 3.3301-3.90626 5.459s-2.1875 3.3822-2.1875 3.7598c0 .4297.1986.7455.5958.9473.3971.2018 1.2728.3288 2.627.3809v1.3868H247.366v-1.3868c.33855-.026.7715-.0748 1.29883-.1465.52735-.0716.9603-.192 1.29883-.3613.67708-.3645 1.2207-.7584 1.63086-1.1816.41015-.4231.82356-.9212 1.24024-1.4941.8333-1.1458 1.901-2.5748 3.2031-4.2871 1.30206-1.7122 2.4544-3.2714 3.45702-4.6777-.7552-1.1067-1.71872-2.5097-2.8906-4.209-1.1719-1.6992-2.4219-3.5188-3.75-5.4589-.5599-.8203-.99934-1.3997-1.31834-1.7383-.31902-.3385-.74545-.6315-1.2793-.8789-.3125-.1432-.74544-.2572-1.29883-.3418-.5533-.0846-.9928-.14-1.3183-.166v-1.3868h12.8321v1.3868c-.7552.0261-1.5397.1205-2.3535.2832-.8138.1628-1.2207.4135-1.2207.752 0 .2474.1628.6804.4883 1.2988.3255.6185.7097 1.2793 1.1524 1.9825.4557.7292.9636 1.5365 1.5235 2.4219.5599.8855 1.2435 1.9076 2.0508 3.0664 1.4714-1.9921 2.7409-3.789 3.8086-5.3906 1.0677-1.6015 1.6016-2.6432 1.6016-3.125 0-.4166-.2441-.7226-.7324-.918-.4883-.1953-1.3118-.319-2.4707-.3711v-1.3867h10.3321v1.3867c-.3255.0131-.752.0619-1.2793.1465-.5273.0847-.9668.2051-1.3183.3613-.6771.3256-1.1816.6771-1.5136 1.0547-.332.3777-.778.9245-1.3379 1.6407-1.0416 1.34113-2.0019 2.6009-2.8808 3.7793-.879 1.1784-1.9369 2.6139-3.1739 4.3066 1.0417 1.4844 2.2038 3.1706 3.4863 5.0586 1.2826 1.888 2.5098 3.6914 3.6817 5.4101.4037.58595.8659 1.1426 1.3867 1.66993.5208.52735.944.88868 1.2695 1.084.3125.18228.7324.2962 1.2598.3418.5273.04556.9733.07486 1.3379.08788z" fill="#000"/><path color="#000" fill="#fff" stroke="#222" stroke-width="2" stroke-linejoin="round" d="M52.7317 210.26828h43v44h-43z"/><path d="M88.33328 246.1257H75.3645v-1.38672c1.0677-.02604 1.93033-.12695 2.5879-.30273.65753-.17578.9863-.44596.98632-.81055 0-.1953-.14975-.59895-.4492-1.21094-.2995-.61197-.68363-1.29556-1.15236-2.05078-.52085-.83332-1.13934-1.81314-1.85547-2.93945-.7162-1.1263-1.4258-2.20377-2.1289-3.23242-1.1459 1.5105-2.448 3.3301-3.9063 5.459-1.4584 2.1289-2.1875 3.3822-2.1875 3.7598 0 .4297.1985.7455.5957.9473.3971.2019 1.2728.3288 2.6269.3809v1.3867H60.1301v-1.3867c.33854-.026.77148-.0748 1.29883-.1465.52732-.0716.96026-.192 1.2988-.3613.6771-.3646 1.2207-.7584 1.63088-1.1816.4102-.4231.8236-.9212 1.2403-1.4941.8334-1.1458 1.9011-2.5748 3.2032-4.2871 1.3021-1.7122 2.4544-3.2715 3.4571-4.6777-.7552-1.1067-1.7187-2.5097-2.8906-4.209-1.1718-1.6992-2.4218-3.5188-3.75-5.4589-.5599-.8203-.9993-1.3997-1.3183-1.7383-.319-.3385-.7454-.6315-1.2793-.8789-.3125-.1432-.7454-.2571-1.2988-.3418-.5534-.0846-.9928-.1399-1.3183-.166v-1.3868h12.832v1.3867c-.7552.0261-1.5398.1205-2.3535.2832-.8138.1628-1.2207.4135-1.2207.752 0 .2475.1628.6804.4883 1.2989.3255.6185.7096 1.2794 1.1523 1.9825.4557.7292.9635 1.5365 1.5235 2.4219.5599.8855 1.2435 1.9076 2.0508 3.0664 1.4714-1.9921 2.7409-3.789 3.8086-5.3906 1.0677-1.6015 1.6016-2.6432 1.6016-3.125 0-.4166-.2441-.7226-.7324-.918-.4883-.1953-1.3119-.319-2.4707-.3711v-1.3867h10.3321v1.3867c-.3255.0131-.752.0619-1.2793.1465-.5274.0847-.9668.2051-1.3183.3613-.6771.3255-1.18163.6771-1.5137 1.0547-.3321.3776-.778.9245-1.3379 1.6406-1.0417 1.3412-2.002 2.6009-2.88082 3.7793-.87894 1.1784-1.9369 2.6139-3.17384 4.3066 1.04164 1.4844 2.20375 3.1706 3.4863 5.0586 1.2825 1.8881 2.5097 3.6914 3.6816 5.4102.40364.5859.8659 1.1426 1.38674 1.6699.5208.5274.9439.8887 1.2695 1.084.3124.1823.7324.2962 1.2597.3418.5273.0456.9733.0749 1.3379.0879z" fill="#000"/><path color="#000" fill="#fff" stroke="#222" stroke-width="2" stroke-linejoin="round" d="M115.14362 210.26828h43v44h-43z"/><path d="M150.7452 246.1257h-12.96876v-1.38672c1.0677-.02604 1.93032-.12695 2.5879-.30273.65753-.17578.9863-.44596.98632-.81055-.00002-.1953-.14976-.59895-.44922-1.21094-.2995-.61197-.6836-1.29556-1.15234-2.05078-.52085-.83332-1.13934-1.81314-1.85547-2.93945-.71616-1.1263-1.4258-2.20377-2.1289-3.23242-1.14585 1.5105-2.44793 3.3301-3.90626 5.459-1.45834 2.1289-2.1875 3.3822-2.1875 3.7598 0 .4297.19856.7455.5957.9473.39713.2019 1.2728.3288 2.62696.3809v1.3867h-10.35156v-1.3867c.33854-.026.77148-.0748 1.29883-.1465.52734-.0716.96028-.192 1.29882-.3613.67708-.3646 1.2207-.7584 1.63086-1.1816.41016-.4231.82357-.9212 1.24024-1.4941.83333-1.1458 1.90103-2.5748 3.20312-4.2871 1.30208-1.7122 2.45442-3.2715 3.45703-4.6777-.75522-1.1067-1.71876-2.5097-2.89062-4.209-1.17188-1.6992-2.42188-3.5188-3.75-5.4589-.5599-.8203-.99935-1.3997-1.31836-1.7383-.3191-.3385-.7455-.6315-1.2793-.8789-.3125-.1432-.7455-.2571-1.2989-.3418-.5534-.0846-.9929-.1399-1.3184-.166v-1.3868h12.832v1.3867c-.7552.0261-1.5398.1205-2.3535.2832-.8138.1628-1.2207.4135-1.2207.752 0 .2475.1627.6804.4883 1.2989.3255.6185.7096 1.2794 1.1523 1.9825.4557.7292.9635 1.5365 1.5234 2.4219.5599.8855 1.2435 1.9076 2.0508 3.0664 1.4713-1.9921 2.7408-3.789 3.8086-5.3906 1.0677-1.6015 1.6015-2.6432 1.6015-3.125 0-.4166-.2442-.7226-.7324-.918-.4883-.1953-1.3119-.319-2.4707-.3711v-1.3867h10.332v1.3867c-.3256.0131-.752.0619-1.2793.1465-.5274.0847-.9668.2051-1.3184.3613-.6771.3255-1.1817.6771-1.5137 1.0547-.3321.3776-.7781.9245-1.3379 1.6406-1.0417 1.3412-2.002 2.6009-2.8809 3.7793-.879 1.1784-1.9369 2.6139-3.1739 4.3066 1.0416 1.4844 2.2038 3.1706 3.4863 5.0586 1.2825 1.8881 2.5097 3.6914 3.6816 5.4102.4036.5859.8658 1.1426 1.3867 1.6699.5208.5274.944.8887 1.2695 1.084.3125.1823.7324.2962 1.2598.3418.5273.0456.9733.0749 1.3379.0879z" fill="#000"/><path color="#000" fill="#fff" stroke="#222" stroke-width="2" stroke-linejoin="round" d="M177.55554 210.26828h43v44h-43z"/><path d="M213.1571 246.1257h-12.96875v-1.38672c1.0677-.02604 1.93033-.12695 2.5879-.30273.65753-.17578.9863-.44596.98632-.81055-.00002-.1953-.14976-.59895-.44922-1.21094-.2995-.61197-.6836-1.29556-1.15234-2.05078-.5208-.83332-1.1393-1.81314-1.8554-2.93945-.7161-1.1263-1.4258-2.20377-2.1289-3.23242-1.1458 1.5105-2.4479 3.3301-3.9062 5.459s-2.1875 3.3822-2.1875 3.7598c0 .4297.1986.7455.5957.9473.3972.2019 1.2728.3288 2.627.3809v1.3867H184.954v-1.3867c.33853-.026.77147-.0748 1.29882-.1465.52736-.0716.9603-.192 1.29885-.3613.67708-.3646 1.2207-.7584 1.63086-1.1816.41016-.4231.82357-.9212 1.24024-1.4941.83333-1.1458 1.90103-2.5748 3.20312-4.2871 1.302-1.7122 2.4544-3.2715 3.457-4.6777-.7553-1.1067-1.7188-2.5097-2.8907-4.209-1.1719-1.6992-2.4219-3.5188-3.75-5.4589-.5599-.8203-.9994-1.3997-1.3184-1.7383-.319-.3385-.7455-.6315-1.2793-.8789-.3125-.1432-.7455-.2571-1.2988-.3418-.5534-.0846-.9929-.1399-1.3184-.166v-1.3868h12.832v1.3867c-.7552.0261-1.5398.1205-2.3535.2832-.8138.1628-1.2207.4135-1.2207.752 0 .2475.1627.6804.4883 1.2989.3255.6185.7096 1.2794 1.1523 1.9825.4557.7292.9635 1.5365 1.5234 2.4219.5598.8855 1.2434 1.9076 2.0507 3.0664 1.4713-1.9921 2.7408-3.789 3.8086-5.3906 1.0677-1.6015 1.6015-2.6432 1.6015-3.125 0-.4166-.2442-.7226-.7324-.918-.4883-.1953-1.3119-.319-2.4707-.3711v-1.3867h10.3321v1.3867c-.3256.0131-.752.0619-1.2793.1465-.5274.0847-.9669.2051-1.3184.3613-.6771.3255-1.1817.6771-1.5137 1.0547-.3321.3776-.778.9245-1.3379 1.6406-1.0417 1.3412-2.002 2.6009-2.8809 3.7793-.8789 1.1784-1.9369 2.6139-3.1738 4.3066 1.0416 1.4844 2.2037 3.1706 3.4863 5.0586 1.2825 1.8881 2.5097 3.6914 3.6816 5.4102.4036.5859.8658 1.1426 1.3867 1.6699.5208.5274.944.8887 1.2695 1.084.3125.1823.7324.2962 1.2598.3418.5273.0456.9733.0749 1.3379.0879z" fill="#000"/><path color="#000" fill="#fff" stroke="#222" stroke-width="2" stroke-linejoin="round" d="M239.96747 210.26828h43v44h-43z"/><path d="M275.56903 246.1257h-12.96875v-1.38672c1.0677-.02604 1.93032-.12695 2.5879-.30273.65752-.17578.9863-.44596.98632-.81055-.00002-.1953-.14976-.59895-.44922-1.21094-.2995-.61197-.6836-1.29556-1.15234-2.05078-.52085-.83332-1.13934-1.81314-1.85547-2.93945-.71616-1.1263-1.4258-2.20377-2.1289-3.23242-1.14585 1.5105-2.44794 3.3301-3.90626 5.459s-2.1875 3.3822-2.1875 3.7598c0 .4297.1986.7455.5958.9473.3971.2019 1.2728.3288 2.627.3809v1.3867H247.366v-1.3867c.33855-.026.7715-.0748 1.29883-.1465.52735-.0716.9603-.192 1.29883-.3613.67708-.3646 1.2207-.7584 1.63086-1.1816.41015-.4231.82356-.9212 1.24024-1.4941.8333-1.1458 1.901-2.5748 3.2031-4.2871 1.30206-1.7122 2.4544-3.2715 3.45702-4.6777-.7552-1.1067-1.71872-2.5097-2.8906-4.209-1.1719-1.6992-2.4219-3.5188-3.75-5.4589-.5599-.8203-.99934-1.3997-1.31834-1.7383-.31902-.3385-.74545-.6315-1.2793-.8789-.3125-.1432-.74544-.2571-1.29883-.3418-.5533-.0846-.9928-.1399-1.3183-.166v-1.3868h12.8321v1.3867c-.7552.0261-1.5397.1205-2.3535.2832-.8138.1628-1.2207.4135-1.2207.752 0 .2475.1628.6804.4883 1.2989.3255.6185.7097 1.2794 1.1524 1.9825.4557.7292.9636 1.5365 1.5235 2.4219.5599.8855 1.2435 1.9076 2.0508 3.0664 1.4714-1.9921 2.7409-3.789 3.8086-5.3906 1.0677-1.6015 1.6016-2.6432 1.6016-3.125 0-.4166-.2441-.7226-.7324-.918-.4883-.1953-1.3118-.319-2.4707-.3711v-1.3867h10.3321v1.3867c-.3255.0131-.752.0619-1.2793.1465-.5273.0847-.9668.2051-1.3183.3613-.6771.3255-1.1816.6771-1.5136 1.0547-.332.3776-.778.9245-1.3379 1.6406-1.0416 1.3412-2.0019 2.6009-2.8808 3.7793-.879 1.1784-1.9369 2.6139-3.1739 4.3066 1.0417 1.4844 2.2038 3.1706 3.4863 5.0586 1.2826 1.8881 2.5098 3.6914 3.6817 5.4102.4037.5859.8659 1.1426 1.3867 1.6699.5208.5274.944.8887 1.2695 1.084.3125.1823.7324.2962 1.2598.3418.5273.0456.9733.0749 1.3379.0879z" fill="#000"/></svg>