<svg xmlns="http://www.w3.org/2000/svg" fill="none" viewBox="0 0 348 348"><path stroke="#000" stroke-width="2" d="M5 5.8h337v337.6H5z"/><path stroke="#000" stroke-width="2" d="M282.7 40.6c0-8.4 7-15.2 15.6-15.2 4.1 0 8 1.6 11 4.4a15 15 0 014.6 10.8c0 8.3-7 15.1-15.6 15.1s-15.6-6.8-15.6-15.1z"/><path fill="#000" d="M216.86 71.17a15.35 15.35 0 01-6.37-6.77c-.7-1.59-1.18-2.02-2.67-2.4a7.28 7.28 0 00-3.6 0c-3.98 1.04-4.39 1.04-4.39 0 0-1.33.5-2.5.95-2.22.2.13 1.14-.09 2.07-.48 2.04-.85 5.95-.92 7.67-.13.83.38 1.66 1.46 2.42 3.18a17.73 17.73 0 001.96 3.5c.86.96 3.36 2.34 5.31 2.94 1.06.33.97.13-.77-1.76-1.08-1.17-2.12-2.64-2.32-3.27-.2-.62-.84-1.77-1.43-2.56-.58-.78-1.6-2.91-2.24-4.74-.93-2.63-1.44-3.4-2.43-3.76-1.67-.6-6.57.25-9.57 1.67-1.28.6-2.54 1.2-2.8 1.31-.26.12-.08-.24.41-.79 1.55-1.74 4.87-2.68 9.54-2.69h4.26l1.28 3.65c2.2 6.25 1.93 6.06 8.44 6.06 6.4 0 6.33.05 8.1-5.11 1.7-4.92 1.8-5 6.55-4.73 4.31.25 7.73 1.37 9.05 2.97.4.48.5.77.24.65l-2.8-1.32c-3.01-1.42-7.9-2.27-9.58-1.67-1 .35-1.51 1.15-2.5 3.85-.68 1.87-1.7 4-2.24 4.75a10.6 10.6 0 00-1.35 2.47c-.2.62-1.24 2.09-2.32 3.26-1.76 1.9-1.84 2.1-.78 1.78a10.95 10.95 0 006.97-5.94c.84-1.67 2-3.3 2.6-3.64 1.5-.82 5.74-.78 7.8.07.93.4 1.86.6 2.06.48.45-.27.95.89.95 2.17 0 1.1-.66 1.14-3.32.2-4.08-1.44-5.78-.94-7.36 2.18-2.76 5.44-6.73 8.03-12.28 7.99-2.57-.02-3.84-.28-5.5-1.15zm10.83-1c2.59-1.28 4.52-3.38 6.2-6.7.56-1.1 1.43-2.22 1.93-2.49 1.3-.7 4.33-.6 6.6.2 2.43.86 2.58.26.22-.87-2.37-1.13-5.79-1.44-7.26-.65-.65.34-1.68 1.68-2.3 2.98-2.25 4.8-5.53 6.99-10.5 7.01-4.92.03-8.23-2.18-10.5-7.01-1.35-2.86-2.73-3.69-5.65-3.39-2.12.23-5.65 1.6-5.65 2.2 0 .16 1.24 0 2.75-.37 4.22-1.03 6.38-.3 7.89 2.68 1.72 3.39 3.5 5.27 6.17 6.51a11.4 11.4 0 0010.1-.1zm-2.8-4.22c1.08-1.16 1.96-2.34 1.96-2.6 0-.3-1.68-.49-4.27-.49s-4.26.2-4.26.49c0 .57 3.75 4.73 4.26 4.73.2 0 1.24-.96 2.31-2.13zm-28.85-6.62c0-1.34 1.94-5.86 3.34-7.8l1.4-1.94h-1.18c-1.48 0-1.55-1.05-.22-3.23l.96-1.58-1.42-1.62c-2.32-2.64-4.44-11.37-4.2-17.28l.14-3.54 1.6-.15c2-.2 10.68 4.03 15.14 7.36l3 2.24 8 .02 8 .01 2.98-2.25c4.06-3.07 12.78-7.47 14.8-7.47 1.93 0 2.17.5 2.17 4.56 0 5.76-2.38 14.55-4.55 16.81l-1.2 1.26.97 1.6c1.34 2.19 1.28 3.26-.17 3.26h-1.15l1.58 2.35c1.95 2.9 3.4 7.01 2.72 7.7-.32.32-1.08.27-2.3-.15-2.51-.85-3.01-1.3-3.01-2.66 0-1.24.23-1.27 3.2-.35.68.22 1.06.13 1.06-.22 0-.32-.26-.41-.6-.22-.32.19-.44.18-.25-.03.32-.36-1.42-3.49-2.86-5.14-1.26-1.45-1.1-2.23.48-2.23h1.43l-1-1.68c-1.3-2.2-1.25-2.72.35-4.32 2.57-2.57 5.7-18.23 3.86-19.36-1.35-.83-11.19 4.15-16.06 8.14-1.41 1.15-2.85 2-3.2 1.86-1.45-.56-9.17-.78-12-.35-2.77.43-3.21.38-4.27-.45-5.53-4.31-13.83-8.91-16.43-9.1-1.3-.09-1.35-.02-1.5 2.47-.27 4.93 2.47 15.49 4.43 17.03 1.43 1.13 1.47 1.9.18 4.08l-1 1.68h1.43c1.58 0 1.75.78.48 2.23-1.44 1.65-3.18 4.78-2.85 5.14.18.2.06.22-.26.03-.34-.2-.6-.1-.6.22 0 .35.38.44 1.07.22 2.98-.92 3.2-.9 3.2.38 0 1.33-.4 1.69-2.84 2.56-2.18.77-2.85.75-2.85-.1zm4.62-1.83c1.32-.84.48-1.15-1.27-.46-2.34.92-3.09 2.16-.82 1.36.83-.28 1.77-.7 2.1-.9zm47.04.7c0-.23-.85-.74-1.9-1.15-1.04-.41-1.89-.58-1.89-.37 0 .54 1.03 1.3 2.13 1.57 1.51.38 1.66.37 1.66-.05zm-35.44-7.92c-.85-.6-1.05-1.2-1.05-3.12 0-3.23.6-4.2 2.59-4.2 2.26 0 3.1 1.03 3.1 3.82 0 3.62-2.15 5.24-4.64 3.5zm3.12-1.26c1.27-1.27.34-5.11-1.25-5.11-1.3 0-1.97.97-1.97 2.84 0 1.83.67 2.84 1.9 2.84.4 0 1-.25 1.32-.57zm13.84 1.05c-.7-.7-.95-1.58-.95-3.29 0-2.8.83-3.82 3.1-3.82 2 0 2.59.97 2.59 4.2 0 1.92-.2 2.52-1.06 3.12-1.41.99-2.54.93-3.68-.21zm3.22-1.05c.31-.3.57-1.33.57-2.27 0-2.67-2.21-3.97-3.3-1.93-1.12 2.1-.33 4.77 1.4 4.77.42 0 1.02-.25 1.33-.57zm-31.67-9.5c-1.47-3.39-2.81-8.7-2.82-11.14-.01-1.66.14-2.01.89-2.01 2.02 0 12.37 6.34 12.37 7.58 0 .41-.62 1.1-1.37 1.55-.75.44-2.55 2.09-4 3.66-1.45 1.57-2.94 2.85-3.32 2.85-.37 0-1.16-1.12-1.75-2.49zm4.07-.97a36.15 36.15 0 013.52-3.33l1.66-1.3-1.37-1.12a64.76 64.76 0 00-8.94-5.27c-.68-.26-.82-.04-.82 1.2 0 2.91 2.84 11.86 3.76 11.86.18 0 1.17-.92 2.2-2.04zm34.4.58a24.82 24.82 0 00-3.91-3.63c-.76-.44-1.37-1.14-1.37-1.55 0-1.24 10.34-7.58 12.37-7.58.72 0 .9.34.9 1.78-.03 4.41-3.22 13.89-4.68 13.83-.42-.02-1.92-1.3-3.31-2.85zm4.6-.87c1.17-2.7 2.42-7.72 2.43-9.7 0-1.08-.15-1.28-.82-1.03-1.5.56-7.53 4.11-8.93 5.27l-1.38 1.12 1.66 1.3c.91.72 2.5 2.21 3.52 3.33 1.03 1.12 2.01 2.04 2.2 2.04.18 0 .78-1.05 1.33-2.33z"/><path stroke="#000" d="M139.49 57.55h10v10l20-20-20-20v10h-20v20h10z"/><path stroke="#000" stroke-width="1.05" d="M96.74 36.47H86.25V25.98L65.28 46.96l20.97 20.97V57.44h20.98V36.47H96.74z"/><rect width="115.72" height="187.24" x="185.32" y="111.53" fill="#fff" stroke="#000" stroke-linejoin="round" stroke-width="5" ry="23.48"/></svg>