<svg xmlns="http://www.w3.org/2000/svg" viewBox="0 0 348 348" fill="none"><path d="M5.08 5.776h336.91v337.67H5.08z" stroke-width="2" stroke="#000"/><path stroke-miterlimit="8.364" d="M17.978 25.187h90v60h-90z" color="#000" stroke="#000" stroke-width="3" stroke-linecap="round" stroke-linejoin="round"/><path d="M47.978 25.187l-30 30m60-30l-60 60m90-60l-60 60m60-30l-30 30" stroke-miterlimit="8.364" stroke="#000" stroke-width="3" stroke-linecap="round" stroke-linejoin="round"/><path stroke-miterlimit="8.364" d="M236.776 25.187h90v60h-90z" color="#000" stroke="#000" stroke-width="3" stroke-linecap="round" stroke-linejoin="round"/><path d="M266.776 25.187l-30 30m60-30l-60 60m90-60l-60 60m60-30l-30 30" stroke-miterlimit="8.364" stroke="#000" stroke-width="3" stroke-linecap="round" stroke-linejoin="round"/><path fill="#1a1a1a" stroke="#000" stroke-width="2" stroke-linecap="round" stroke-linejoin="round" stroke-miterlimit="1" d="M124.657 31.164h94.791v54.537h-94.791z"/><g style="line-height:1.25;-inkscape-font-specification:'Copperplate Gothic Bold, '"><path d="M170.216 63.333H165.9v8.184h-3.75v-8.184h-13.926v-4.492l14.082-16.406h3.594v17.773h4.316zm-8.066-3.125V47.083l-11.27 13.125zm32.832-3.242q0 7.832-2.46 11.504-2.442 3.652-7.599 3.652-5.234 0-7.656-3.71-2.402-3.711-2.402-11.407 0-7.754 2.441-11.445 2.442-3.711 7.617-3.711 5.235 0 7.637 3.77 2.422 3.75 2.422 11.347zm-5.137 8.867q.684-1.582.918-3.71.254-2.149.254-5.157 0-2.969-.254-5.156-.234-2.188-.937-3.711-.684-1.504-1.875-2.266-1.172-.761-3.028-.761-1.835 0-3.046.761-1.192.762-1.895 2.305-.664 1.445-.918 3.77-.234 2.324-.234 5.097 0 3.047.215 5.098.214 2.05.918 3.672.644 1.523 1.816 2.324 1.191.8 3.144.8 1.836 0 3.047-.761 1.211-.762 1.875-2.305z" style="-inkscape-font-specification:sans-serif" aria-label="40" font-weight="400" font-size="40" font-family="sans-serif" letter-spacing="0" word-spacing="0" fill="#fff"/></g><g transform="matrix(.91365 0 0 .91365 14.857 16.923)"><circle r="89.109" cy="217.053" cx="172.053" stroke="#000" stroke-width="2.906" stroke-linecap="round"/><g style="line-height:1.25;-inkscape-font-specification:Mate;text-align:center" aria-label="Foe" font-weight="400" font-size="40" font-family="sans-serif" letter-spacing="0" word-spacing="0" text-anchor="middle" fill="#000"><path style="-inkscape-font-specification:sans-serif" d="M154.483 202.29h-19.035v10.618h16.356v4.449h-16.356v18.125h-5.006v-37.641h24.041zM182.645 221.376q0 6.901-3.54 10.896-3.539 3.994-9.48 3.994-5.99 0-9.53-3.994-3.514-3.995-3.514-10.896 0-6.901 3.514-10.895 3.54-4.02 9.53-4.02 5.941 0 9.48 4.02 3.54 3.994 3.54 10.895zm-4.905 0q0-5.486-2.148-8.14-2.15-2.68-5.966-2.68-3.868 0-6.017 2.68-2.123 2.654-2.123 8.14 0 5.309 2.148 8.064 2.15 2.73 5.992 2.73 3.792 0 5.94-2.704 2.174-2.73 2.174-8.09zM213.663 221.856h-20.805q0 2.604.783 4.55.784 1.922 2.149 3.16 1.315 1.214 3.11 1.82 1.82.608 3.994.608 2.881 0 5.789-1.138 2.932-1.163 4.17-2.275h.254v5.182q-2.402 1.011-4.905 1.694-2.502.682-5.258.682-7.028 0-10.971-3.791-3.944-3.818-3.944-10.82 0-6.927 3.767-10.997 3.792-4.07 9.96-4.07 5.713 0 8.797 3.337 3.11 3.337 3.11 9.48zm-4.626-3.64q-.026-3.741-1.896-5.789-1.846-2.047-5.638-2.047-3.817 0-6.092 2.25-2.25 2.25-2.553 5.586z"/></g></g></svg>