<svg xmlns="http://www.w3.org/2000/svg" xmlns:xlink="http://www.w3.org/1999/xlink" fill="none" viewBox="0 0 348 348"><defs><path id="a" d="M41.86087 45.391304h182.06957v66.069565H41.86087z"/></defs><defs><use xlink:href="#a"/><use xlink:href="#a" id="b"/></defs><path stroke="#000" stroke-width="2" d="M5.08 5.78h336.91v337.67H5.08z"/><path fill="#000" stroke="#646464" stroke-width="5" d="M27.5 28.5h215v100h-215z"/><circle cx="175" cy="225" r="105" fill="#c8c8c8" stroke="#000" stroke-width="6.29" transform="translate(34.92 55.8) scale(.79474)"/><path stroke="#000" stroke-width="2" d="M282.73 40.55c0-8.37 6.97-15.16 15.56-15.16 4.13 0 8.09 1.6 11 4.44a14.97 14.97 0 0 1 4.56 10.72c0 8.38-6.96 15.17-15.56 15.17-8.59 0-15.56-6.8-15.56-15.17z"/><g fill="#fff" aria-label="?¿?¿?¿" font-family="Bahnschrift" font-size="40" font-weight="400" style="line-height:1.25;-inkscape-font-specification:'Bauhaus 93, ';text-align:center;white-space:pre;shape-inside:url(#a)" text-anchor="middle" transform="translate(-68.170965 -31.151761) scale(1.52432)"><path d="M88.129883 74.874235q0-2.070313.46875-3.691406.46875-1.621094 1.132812-2.734375.664063-1.113282 1.738282-2.558594.78125-1.074219 1.230468-1.757813.449219-.703125.742188-1.542968.292969-.859375.292969-1.835938v-.01953q0-1.699219-.878907-2.636719-.859375-.9375-2.421875-.9375-1.582031 0-2.460937 1.171875-.859375 1.152344-.878906 3.28125v.01953h-4.042969v-.01953q.07813-2.578125.976562-4.394531.898438-1.835938 2.519532-2.792969 1.621093-.957031 3.847656-.957031 2.324219 0 3.984375.859375 1.660156.859375 2.519531 2.5.878906 1.621094.878906 3.925781v.01953q0 1.386719-.371093 2.5-.351563 1.113282-.878907 1.933594-.507812.820313-1.40625 1.992188-.976562 1.25-1.582031 2.226562-.605469.957031-1.015625 2.324219-.410156 1.347656-.410156 3.125zm-.09766 3.105469h4.179687v4.179687h-4.179687zM108.67676 90.401579q-2.32422 0-3.98438-.859375-1.66015-.859375-2.53906-2.5-.85937-1.621094-.85937-3.925782v-.01953q0-1.386719.35156-2.5.37109-1.113281.8789-1.933594.52735-.820312 1.42579-1.992187.97656-1.25 1.58203-2.207031.60547-.976563 1.01562-2.324219.41016-1.367188.41016-3.144531h3.98437q0 2.070312-.46875 3.691406-.46875 1.621094-1.13281 2.734375-.66406 1.113281-1.73828 2.558594-.78125 1.074218-1.23047 1.777343-.44922.683594-.74219 1.542969-.29297.839844-.29297 1.816406v.01953q0 1.699218.85938 2.636718.87891.9375 2.44141.9375 1.58203 0 2.4414-1.171875.87891-1.152343.89844-3.28125v-.01953h4.04297v.01953q-.0781 2.578125-.97656 4.394532-.89844 1.835937-2.51954 2.792968-1.62109.957032-3.84765.957032zm2.36328-24.511719h-4.17969v-4.179688h4.17969zM121.87988 74.874235q0-2.070313.46875-3.691406.46875-1.621094 1.13282-2.734375.66406-1.113282 1.73828-2.558594.78125-1.074219 1.23047-1.757813.44921-.703125.74218-1.542968.29297-.859375.29297-1.835938v-.01953q0-1.699219-.8789-2.636719-.85938-.9375-2.42188-.9375-1.58203 0-2.46094 1.171875-.85937 1.152344-.8789 3.28125v.01953h-4.04297v-.01953q.0781-2.578125.97656-4.394531.89844-1.835938 2.51953-2.792969 1.6211-.957031 3.84766-.957031 2.32422 0 3.98437.859375 1.66016.859375 2.51953 2.5.87891 1.621094.87891 3.925781v.01953q0 1.386719-.37109 2.5-.35157 1.113282-.87891 1.933594-.50781.820313-1.40625 1.992188-.97656 1.25-1.58203 2.226562-.60547.957031-1.01563 2.324219-.41015 1.347656-.41015 3.125zm-.0977 3.105469h4.17968v4.179687h-4.17968zM142.42676 90.401579q-2.32422 0-3.98438-.859375-1.66015-.859375-2.53906-2.5-.85937-1.621094-.85937-3.925782v-.01953q0-1.386719.35156-2.5.37109-1.113281.8789-1.933594.52735-.820312 1.42579-1.992187.97656-1.25 1.58203-2.207031.60547-.976563 1.01562-2.324219.41016-1.367188.41016-3.144531h3.98437q0 2.070312-.46875 3.691406-.46875 1.621094-1.13281 2.734375-.66406 1.113281-1.73828 2.558594-.78125 1.074218-1.23047 1.777343-.44922.683594-.74219 1.542969-.29297.839844-.29297 1.816406v.01953q0 1.699218.85938 2.636718.87891.9375 2.44141.9375 1.58203 0 2.4414-1.171875.87891-1.152343.89844-3.28125v-.01953h4.04297v.01953q-.0781 2.578125-.97656 4.394532-.89844 1.835937-2.51954 2.792968-1.62109.957032-3.84765.957032zm2.36328-24.511719h-4.17969v-4.179688h4.17969zM155.62988 74.874235q0-2.070313.46875-3.691406.46875-1.621094 1.13282-2.734375.66406-1.113282 1.73828-2.558594.78125-1.074219 1.23047-1.757813.44921-.703125.74218-1.542968.29297-.859375.29297-1.835938v-.01953q0-1.699219-.8789-2.636719-.85938-.9375-2.42188-.9375-1.58203 0-2.46094 1.171875-.85937 1.152344-.8789 3.28125v.01953h-4.04297v-.01953q.0781-2.578125.97656-4.394531.89844-1.835938 2.51953-2.792969 1.6211-.957031 3.84766-.957031 2.32422 0 3.98437.859375 1.66016.859375 2.51953 2.5.87891 1.621094.87891 3.925781v.01953q0 1.386719-.37109 2.5-.35157 1.113282-.87891 1.933594-.50781.820313-1.40625 1.992188-.97656 1.25-1.58203 2.226562-.60547.957031-1.01563 2.324219-.41015 1.347656-.41015 3.125zm-.0977 3.105469h4.17968v4.179687h-4.17968zM176.17676 90.401579q-2.32422 0-3.98438-.859375-1.66015-.859375-2.53906-2.5-.85937-1.621094-.85937-3.925782v-.01953q0-1.386719.35156-2.5.37109-1.113281.8789-1.933594.52735-.820312 1.42579-1.992187.97656-1.25 1.58203-2.207031.60547-.976563 1.01562-2.324219.41016-1.367188.41016-3.144531h3.98437q0 2.070312-.46875 3.691406-.46875 1.621094-1.13281 2.734375-.66406 1.113281-1.73828 2.558594-.78125 1.074218-1.23047 1.777343-.44922.683594-.74219 1.542969-.29297.839844-.29297 1.816406v.01953q0 1.699218.85938 2.636718.87891.9375 2.44141.9375 1.58203 0 2.4414-1.171875.87891-1.152343.89844-3.28125v-.01953h4.04297v.01953q-.0781 2.578125-.97656 4.394532-.89844 1.835937-2.51954 2.792968-1.62109.957032-3.84765.957032zm2.36328-24.511719h-4.17969v-4.179688h4.17969z" style="-inkscape-font-specification:Bahnschrift;text-align:center"/></g><g fill="#ffe9ab" aria-label="?" font-family="Bauhaus 93" font-size="40" style="line-height:1.25;-inkscape-font-specification:'Bauhaus 93, ';text-align:center;white-space:pre;shape-inside:url(#b)" text-anchor="middle" transform="matrix(3.34238 0 0 3.34238 -268.55618 7.9571776)"><path fill="#313131" d="M130.12207 74.874235q0-2.070313.46875-3.691406.46875-1.621094 1.13281-2.734375.66407-1.113282 1.73828-2.558594.78125-1.074219 1.23047-1.757813.44922-.703125.74219-1.542968.29297-.859375.29297-1.835938v-.01953q0-1.699219-.87891-2.636719-.85937-.9375-2.42187-.9375-1.58203 0-2.46094 1.171875-.85937 1.152344-.87891 3.28125v.01953h-4.04296v-.01953q.0781-2.578125.97656-4.394531.89844-1.835938 2.51953-2.792969 1.62109-.957031 3.84766-.957031 2.32421 0 3.98437.859375 1.66016.859375 2.51953 2.5.87891 1.621094.87891 3.925781v.01953q0 1.386719-.3711 2.5-.35156 1.113282-.8789 1.933594-.50781.820313-1.40625 1.992188-.97656 1.25-1.58203 2.226562-.60547.957031-1.01563 2.324219-.41015 1.347656-.41015 3.125zm-.0977 3.105469h4.17969v4.179687h-4.17969z" font-family="Bahnschrift" font-weight="400" style="-inkscape-font-specification:Bahnschrift;text-align:center"/></g></svg>