<svg version="1.1" id="Layer_1" xmlns="http://www.w3.org/2000/svg" x="0" y="0" viewBox="0 0 348 348" xml:space="preserve"><style>.st0{fill:none;stroke:#000;stroke-width:2}.st1{fill:#fff}.st2{fill:none;stroke-miterlimit:10}.st2,.st3,.st4{stroke:#000}.st3{stroke-miterlimit:10}.st4{stroke-width:2}</style><path class="st0" d="M5.1 5.8H342v337.7H5.1V5.8z"/><path class="st0" d="M282.7 40.6c0-8.4 7-15.2 15.6-15.2 4.1 0 8.1 1.6 11 4.4a15 15 0 014.6 10.7c0 8.4-7 15.2-15.6 15.2s-15.6-6.8-15.6-15.1z"/><path class="st1" d="M214 85.7c0 5.5-4.5 10-10 10h-60c-5.5 0-10-4.5-10-10V25.8c0-5.5 4.5-10 10-10h60c5.5 0 10 4.5 10 10v59.9z"/><path class="st2" d="M214 85.7c0 5.5-4.5 10-10 10h-60c-5.5 0-10-4.5-10-10V25.8c0-5.5 4.5-10 10-10h60c5.5 0 10 4.5 10 10v59.9z"/><path class="st1" d="M210 81.7c0 5.5-4.5 10-10 10h-52c-5.5 0-10-4.5-10-10v-52c0-5.5 4.5-10 10-10h52c5.5 0 10 4.5 10 10v52z"/><path class="st2" d="M210 81.7c0 5.5-4.5 10-10 10h-52c-5.5 0-10-4.5-10-10v-52c0-5.5 4.5-10 10-10h52c5.5 0 10 4.5 10 10v52z"/><path class="st3" d="M98 144.6h52.1v52.1H98z"/><path class="st1" d="M147.5 184.1c0 5.5-4.5 10-10 10h-26.9c-5.5 0-10-4.5-10-10v-26.9c0-5.5 4.5-10 10-10h26.9c5.5 0 10 4.5 10 10v26.9z"/><path class="st2" d="M147.5 184.1c0 5.5-4.5 10-10 10h-26.9c-5.5 0-10-4.5-10-10v-26.9c0-5.5 4.5-10 10-10h26.9c5.5 0 10 4.5 10 10v26.9z"/><path class="st3" d="M197.9 144.6H250v52.1h-52.1z"/><path class="st1" d="M247.4 184.1c0 5.5-4.5 10-10 10h-26.9c-5.5 0-10-4.5-10-10v-26.9c0-5.5 4.5-10 10-10h26.9c5.5 0 10 4.5 10 10v26.9z"/><path class="st2" d="M247.4 184.1c0 5.5-4.5 10-10 10h-26.9c-5.5 0-10-4.5-10-10v-26.9c0-5.5 4.5-10 10-10h26.9c5.5 0 10 4.5 10 10v26.9z"/><path class="st1" d="M192.5 179.1c0 5.5-4.5 10-10 10h-17c-5.5 0-10-4.5-10-10v-17c0-5.5 4.5-10 10-10h17c5.5 0 10 4.5 10 10v17z"/><path class="st2" d="M192.5 179.1c0 5.5-4.5 10-10 10h-17c-5.5 0-10-4.5-10-10v-17c0-5.5 4.5-10 10-10h17c5.5 0 10 4.5 10 10v17z"/><path class="st1" d="M190.7 177.3c0 5.5-4.5 10-10 10h-13.3c-5.5 0-10-4.5-10-10V164c0-5.5 4.5-10 10-10h13.3c5.5 0 10 4.5 10 10v13.3z"/><path class="st2" d="M190.7 177.3c0 5.5-4.5 10-10 10h-13.3c-5.5 0-10-4.5-10-10V164c0-5.5 4.5-10 10-10h13.3c5.5 0 10 4.5 10 10v13.3z"/><path class="st4" d="M121.6 170.6c0-1.3 1.1-2.4 2.5-2.4.7 0 1.3.3 1.8.7.5.5.7 1.1.7 1.7 0 1.3-1.1 2.4-2.5 2.4s-2.5-1.1-2.5-2.4zM221.5 169.9c0-1.3 1.1-2.4 2.5-2.4.7 0 1.3.3 1.8.7.5.5.7 1.1.7 1.7 0 1.3-1.1 2.4-2.5 2.4s-2.5-1-2.5-2.4z"/><path class="st1" d="M248.2 285.9c0 5.5-4.5 10-10 10H109.8c-5.5 0-10-4.5-10-10V226c0-5.5 4.5-10 10-10h128.4c5.5 0 10 4.5 10 10v59.9z"/><path class="st2" d="M248.2 285.9c0 5.5-4.5 10-10 10H109.8c-5.5 0-10-4.5-10-10V226c0-5.5 4.5-10 10-10h128.4c5.5 0 10 4.5 10 10v59.9z"/><g><path class="st1" d="M240.9 282c0 5.5-4.5 10-10 10H117.1c-5.5 0-10-4.5-10-10v-52c0-5.5 4.5-10 10-10h113.7c5.5 0 10 4.5 10 10v52z"/><path class="st2" d="M240.9 282c0 5.5-4.5 10-10 10H117.1c-5.5 0-10-4.5-10-10v-52c0-5.5 4.5-10 10-10h113.7c5.5 0 10 4.5 10 10v52z"/></g><path class="st3" d="M145.3 296.3h10.4v47.5h-10.4zM192.7 296.3h10.4v47.5h-10.4zM169 296.3h10.4v47.5H169z"/><path class="st2" d="M248.2 246.8s9.8 9.3 0 19.1M252.5 256.4l20.4-20.4"/></svg>