<svg version="1.1" id="Layer_1" xmlns="http://www.w3.org/2000/svg" x="0" y="0" viewBox="0 0 348 348" xml:space="preserve"><style>.st0{fill:none;stroke:#000;stroke-width:2}.st1{fill:red}.st2{fill:#ff003d}</style><path d="M0 0h348l1.2 348H0z"/><path class="st0" d="M5.1 5.8H342v337.7H5.1V5.8z"/><path class="st0" d="M282.7 40.6c0-8.4 7-15.2 15.6-15.2 4.1 0 8.1 1.6 11 4.4s4.6 6.7 4.6 10.7c0 8.4-7 15.2-15.6 15.2s-15.6-6.8-15.6-15.1z"/><path class="st1" d="M168.7 10.8h-46.4L99.1 51l23.2 40.2h46.4L191.9 51z"/><path d="M165.9 15.8h-40.7L104.8 51l20.4 35.2h40.7L186.2 51z"/><path class="st1" d="M169.2 93.8h-46.4L99.6 134l23.2 40.2h46.4l23.2-40.2z"/><path d="M166.3 98.8h-40.6L105.3 134l20.4 35.2h40.6l20.4-35.2z"/><path class="st1" d="M169 176.8h-46.4L99.4 217l23.2 40.1H169l23.2-40.1z"/><path d="M166.1 181.7h-40.7L105.1 217l20.3 35.2h40.7l20.4-35.2z"/><path class="st1" d="M169.4 259.8H123L99.8 300l23.2 40.2h46.4l23.2-40.2z"/><path d="M166.6 264.7h-40.7L105.5 300l20.4 35.2h40.7l20.3-35.2z"/><path class="st1" d="M95.6 51.6H49.2L26 91.8 49.2 132h46.4l23.2-40.2z"/><path d="M92.7 56.5H52L31.7 91.8 52 127h40.7l20.4-35.2z"/><path class="st1" d="M96 134.6H49.6l-23.2 40.2L49.6 215H96l23.3-40.2z"/><path d="M93.2 139.5H52.5l-20.3 35.3L52.5 210h40.7l20.3-35.2z"/><path class="st1" d="M95.8 217.6H49.4l-23.2 40.1 23.2 40.2h46.4l23.2-40.2z"/><path d="M93 222.5H52.3l-20.4 35.2L52.3 293H93l20.3-35.3z"/><path class="st1" d="M242.6 51.6h-46.4L173 91.8l23.2 40.2h46.4l23.2-40.2z"/><path d="M239.8 56.6h-40.7l-20.4 35.2 20.4 35.2h40.7l20.3-35.2z"/><path class="st1" d="M243.1 134.6h-46.4l-23.2 40.2 23.2 40.2h46.4l23.2-40.2z"/><path d="M240.2 139.6h-40.7l-20.3 35.2 20.3 35.3h40.7l20.4-35.3z"/><path class="st1" d="M242.8 217.6h-46.4l-23.2 40.2 23.2 40.2h46.4l23.2-40.2z"/><path d="M240 222.5h-40.7l-20.4 35.3 20.4 35.2H240l20.3-35.2z"/><path class="st2" d="M127.9 30.2c.6-1.3 1.5-1.9 2.6-2 1.9 0 3.7 1.3 5.4 3.8.1.2.3.5.4.7 2.2 3.8 5.1 5.9 8.7 6.3.4 0 .7.1 1 .1 3.4 0 6.1-1.6 8.1-4.8.4-.6.7-1.2 1-1.8 1-2.2 1.9-3.4 2.8-3.8.4-.1.8-.2 1.3-.2s.8 0 1.1.1c1.8.2 2.9.8 3.1 1.7.1.4.1.8.1 1.2v.4c0 .2-.1.4-.1.5-.1 1.8-1.3 4.4-3.4 7.6-.3.4-.5.8-.8 1.1-2.1 2.9-3.3 5.4-3.8 7.4 0 .2-.1.4-.1.5 0 1 .2 1.5.5 1.6.5 0 1.9-.9 4-2.5 2.5-1.9 5-3 7.6-3.5.4-.1.7-.1.9-.1.2 0 .4 0 .8-.1h.6c1.4 0 2.2.4 2.5 1.2.1.5.2 1.3.2 2.5 0 2.1-.4 3.4-1.3 3.8-.1 0-.2.1-.3.1-.3 0-.8.1-1.6.2s-1.4.1-1.6.2c-1.3.1-3.7 2-7.1 5.6-3.4 3.6-5.1 6.1-5.2 7.4 0 1.6.5 3.5 1.4 5.5.5 1.1.8 2 .8 2.7 0 .9-.6 2-1.7 3.2l-2.4 2.7-2.9-3.3c-1.3-1.6-2.1-3.4-2.5-5.3-.3-1.9-.4-5.4-.4-10.6 0-7.2-.3-11.3-1-12.2-.3-.3-.6-.5-1-.5-.8 0-1.3.9-1.6 2.7-.2 1.6-.3 4.6-.3 9.1 0 6.7-.4 11.2-1.3 13.4-.3.8-.7 1.6-1.2 2.4-1.6 2.5-2.9 3.9-3.8 4-.8 0-1.9-.8-3.3-2.3-1-1.1-1.5-2-1.6-2.6 0-.5.3-1 .8-1.4.9-.9 1.4-2.5 1.6-4.9v-.8c0-2.3-.9-4.6-2.7-6.8-.6-.7-1.4-1.5-2.3-2.4-2.5-2.5-4.8-4.2-7-5.1-.4-.1-.7-.2-.9-.3-1.8-.3-2.8-1.2-3.2-2.9-.1-.4-.2-.7-.2-1.1 0-.1 0-.2-.1-.4v-.5c0-1.8.5-2.9 1.5-3.3.4-.1.8-.2 1.2-.2 2.4 0 5.1 1 8.3 3 1 .6 1.8 1.3 2.5 1.9l2.9 2.7V48c0-2.1-.7-4-2-5.5l-.5-.5c-2-1.8-3.5-4.3-4.5-7.4-.3-1.1-.5-2-.5-2.8.3-.8.4-1.2.5-1.6zm12.1-3.8c.7-1.5 1.5-2.5 2.5-2.7.5-.1 1.1-.2 1.8-.2.8 0 1.5 0 2 .1 2.4.2 3.9.6 4.4 1.4.3.5.5 1.4.7 2.6 0 .3.1.6.1 1 0 2.8-1 4.7-3.1 5.7-.7.4-1.5.5-2.3.5-1.9 0-3.6-.9-5.2-2.6-1.1-1.2-1.6-2.3-1.6-3.1 0-.8.3-1.7.7-2.7zM130.7 124.8c2.1-1.3 5.3-2.1 9.8-2.3 1.7-.1 3.9-.1 6.5-.1 8.5 0 14.2.8 17.1 2.3 2.7 1.5 4.4 4.3 5 8.3.2 1.7.3 3.8.3 6.2 0 5.4.6 8.9 1.8 10.7.7 1.1 1.1 1.9 1.1 2.3 0 .8-.8 1.8-2.2 3.1l-3 2.8-2.7-3.5c-1.4-1.8-2.2-4.1-2.5-6.9-.1-1.5-.2-3.4-.2-5.8 0-5.1-.3-8.1-1-9.2-.4-.5-.9-1-1.5-1.4-1.6-.9-2.9-1.3-3.8-1.4-.8 0-1.3 2.6-1.4 7.8v.9c0 6.1.5 10.1 1.4 11.8.5.9.7 1.6.7 2.2 0 .9-.6 1.9-1.8 3-1.3 1.2-2.4 1.9-3.3 1.9-.2 0-.3 0-.5-.1-2.1-1.3-3.6-4.6-4.6-10.1-.5-2.7-.7-5.5-.7-8.3v-9h-4.4c-2.5 0-4.9 1-7.4 2.9-.8.7-1.8 1.5-2.8 2.4l-5.8 5.3-2.7-2.7-2.7-2.7 3.8-4c2.3-2.4 4.8-4.5 7.4-6.2 0-.2.1-.2.1-.2zm-.4-14.9c1-1 2.4-1.5 4-1.5 2.5 0 4.4.8 5.9 2.5.9 1 1.3 2 1.3 3 0 3.5-1.7 5.5-5.1 5.9-.4 0-.8.1-1.2.1-1.9 0-3.5-.4-4.6-1.3l-.2-.2c-1-1-1.4-2.4-1.4-4.2-.1-1.9.4-3.3 1.3-4.3zm15.2 0c1-1 2.3-1.4 3.8-1.4 2.4 0 4.3.9 5.9 2.6 1 1.1 1.4 2.3 1.4 3.5 0 2.4-1.2 4-3.5 4.8-.9.3-1.8.4-2.8.4-1.9 0-3.5-.4-4.6-1.3l-.2-.2c-1-1-1.4-2.4-1.4-4.2 0-1.8.5-3.2 1.4-4.2zM142.7 193.1c.1-.5.9-.7 2.4-.7.5 0 1 0 1.2.1 2.1.2 3.3 1.1 3.7 2.7 0 .2.1.4.1.6.2 1.3.8 2.2 1.7 2.7.2.1.4.1.6.1 2.2 0 5.4 1.4 9.6 4.3 2.5 1.8 4.5 3.5 5.9 5.3 3.2 3.9 5.3 8.5 6.3 14 .3 1.5.4 2.8.4 4.1 0 3.4-1 5.4-2.7 5.9-1 .3-1.8.4-2.5.4-1.9 0-3.1-1.1-3.5-3.3-.1-.9-.2-1.9-.2-3.1 0-5.9-2-10.8-5.9-14.7-3.5-3.5-7.8-5.2-12.8-5.2-6.2 0-11.2 2.1-15.2 6.4-2.7 3-4.4 6.7-5 11-.6 4.6-1.2 7.2-1.7 7.9-.4.5-.9.7-1.5.7-.5 0-1.1-.1-1.7-.2-1.5-.3-2.5-.8-2.8-1.6-.3-.7-.5-2.4-.5-4.9 0-6.1 2.2-11.8 6.4-17.1 3.6-4.5 7.9-7.5 12.8-9.2 2.3-.8 3.7-1.7 4.4-2.9 0-.1.1-.3.1-.4.2-1 .3-2 .4-2.9zm-5.4 18.9c2-1.1 5-1.8 9-2h1.6c2.8 0 5 .5 6.5 1.5 1 .6 2.3 1.8 4 3.5 2.3 2.3 3.7 4 4.2 5.1.5 1 .7 2.5.7 4.3 0 .5 0 1.8-.1 3.6 0 .7-.1 1.7-.1 3 0 3.7.2 6 .6 7 .1.3.2.7.2 1.1 0 1.3-.5 2.4-1.2 3.3-.9 1.1-1.5 1.7-1.8 1.7-.4 0-1.4-.8-2.9-2.5v-.1l-.1-.1-.1-.1-.1-.1v-.1l-.1-.1-.1-.1c-1.6-1.8-2.6-3.4-2.8-4.8-.1-.5-.1-1.1-.1-1.7 0-.5.1-1.7.3-3.7.1-1.2.2-2.4.2-3.4 0-5.5-1.9-8.7-5.8-9.6-.8-.2-1.7-.3-2.7-.3h-.1c-3.1 0-5.5 1.3-7.1 4-1 1.6-1.4 3.4-1.4 5.4 0 2.2-.3 3.5-.8 3.9-.5.4-1.8.6-3.7.6h-4.4l.8-5.4c.8-6.9 3.3-11.6 7.4-13.9zm4.5 9.7c1-1 2.4-1.5 4.1-1.5 2 0 3.7.7 5.1 2 1.3 1.4 2 2.5 2 3.4 0 .9-.5 2.1-1.2 3.5-1.2 1.5-3 2.4-5.5 2.5-1.9 0-3.4-.5-4.4-1.5-1-1-1.4-2.4-1.4-4.2-.1-1.9.4-3.3 1.3-4.2zM120.4 284.6c1.2-.9 2.8-1.4 4.8-1.5 3.2 0 5.3 1.2 6.1 3.7.2.6.3 1.3.3 2 0 2.8-1.3 4.6-4 5.3-.7.2-1.5.3-2.4.3-2 0-3.5-.4-4.6-1.3l-.2-.2c-1-1-1.4-2.4-1.4-4.2.1-1.8.5-3.2 1.4-4.1zm10.2-15.1l2.8-2.9 5.7 5.7 5.8 5.7 6-6 6.1-6.1 2.8 2.8 2.8 2.8-6.6 7c-3.5 3.8-5.6 6.6-6.2 8.5-.3.9-.4 1.8-.4 2.7 0 2.1.5 3.6 1.6 4.6.7.7 1.9 1.5 3.5 2.5 4.1 2.4 6.9 5.8 8.4 10.2.5 1.6.9 3.5 1.2 5.5.4 3.1 1.4 5.9 3 8.5.1.2.2.4.3.5l2.5 3.6-2.6 2.7c-1.3 1.3-2.2 2-2.7 2s-1.5-.7-2.8-1.8c-2.5-2.3-4.4-5.6-5.5-9.8-.5-1.7-.7-3.3-.7-4.8 0-2.6-1.3-5.2-3.8-7.8-2.3-2.4-4.6-3.6-6.8-3.6-4 0-6.9 2.1-8.9 6.4-.9 1.9-1.5 4-1.8 6.4-.5 3.8-1.9 7.7-4.1 11.5-1.4 2.4-2.5 3.6-3.4 3.6-.8 0-2.1-1-3.8-2.9-1-1.2-1.5-2-1.6-2.6 0-.8.6-1.9 1.8-3.3.1 0 .1-.1.1-.1 1.1-1.2 2.1-3.9 2.9-8.1.1-.5.2-1 .3-1.4.9-5.7 3-10 6.3-12.8 1.2-1 2.6-1.9 4.2-2.7 1.7-.9 2.7-1.9 3.1-3 .2-.8.3-2 .3-3.5 0-2.4-.6-4.4-1.8-6.1-.9-1.2-2.4-2.8-4.5-4.9l-6.3-6.3 2.8-2.7zm10.9 39.3c1.2-1 2.3-1.5 3.3-1.5 1.3 0 2.8.8 4.6 2.3 1.5 1.3 2.3 2.3 2.3 3.1 0 .6-.4 1.6-1.2 3-1.3 2.5-3.1 3.9-5.5 4.1-.2 0-.4.1-.6.1-1.9 0-3.4-.9-4.5-2.5-.9-1.2-1.3-2.5-1.3-3.7.2-1.9 1.2-3.5 2.9-4.9zm18.9-24.7c1.3-1.5 2.9-2.3 4.7-2.3 2.1 0 3.8.9 4.9 2.8.6 1 .9 2.2.9 3.3v.4c0 .2-.1.3-.1.4-.2 2.4-1.4 4.1-3.5 5-.7.3-1.5.4-2.3.4-1.6 0-3-.6-4.2-1.6-1.5-1.4-2.3-2.8-2.4-4.3.1-1.4.7-2.7 2-4.1zM59.8 63.4c.4-.9 1.5-1.3 3.3-1.3h.4c.2 0 .3.1.5.1l3.5.3.4 14.6c0 1.3.1 3 .1 5.2 0 7.3-.8 12.7-2.5 16.3-1.3 2.8-3.8 6-7.4 9.6l-6.4 6.3-2.8-2.8-2.8-2.8 5.2-5.3c4-4.1 6.5-7.6 7.7-10.2.2-.6.3-1 .3-1.4-.1-.4-1.7-.8-4.8-1.3-3.1-.5-5.8-2-8.1-4.4-1.4-1.5-2.1-3-2.1-4.3v-.3c0-.1.1-.2.1-.3.3-1.5 1.3-2.4 3.2-2.7.4-.1.7-.1 1.1-.1 1.7 0 3 .6 3.8 1.7s2 1.7 3.3 1.8c.3 0 .5 0 .5-.1 1-.2 1.7-.9 2-2.2.3-1.1.5-3.3.6-6.6.2-5.5.5-8.8.9-9.8zm7.8 45.2c1.3-1.4 2.5-2.1 3.5-2.3 1.5 0 3.1.9 5.1 2.7 1.3 1.3 2 2.4 2 3.3 0 1.8-1 3.5-2.9 5.1-1.4 1.1-2.7 1.7-4 1.7-2.6 0-4.4-1-5.3-3.1-.3-.8-.5-1.6-.5-2.4.1-1.9.8-3.5 2.1-5zm9-46c.4-.4 1.3-.5 2.8-.5.6 0 1 0 1.4.1 1.4.1 2.3.5 2.6 1.2.5.9.8 3.7 1 8.5.4 6.7 1.5 10.2 3.3 10.4.9 0 2-.6 3.1-1.7 1.5-1.3 3.2-2 5.2-2 1.8 0 2.9.6 3.4 1.7.1.5.2.9.2 1.3 0 2.1-1.4 4.3-4.1 6.4-2.7 2.1-5.5 3.2-8.3 3.2-1.6 0-2.4.6-2.5 1.6 0 1.8 2.2 4.9 6.5 9.4 3.2 3.4 5 5.5 5.3 6.1.2.4.3.8.3 1 0 .5-.5 1.3-1.4 2.3-1.4 1.5-2.6 2.3-3.5 2.3-1.1 0-2.9-1.2-5.3-3.7l-.3-.3c-4.1-4.3-6.8-7.6-8-10C76.8 97 76 92.7 75.8 87c0-1.8-.1-4.2-.1-7.2 0-10.3.3-16 .9-17.2zM50.7 166.5c.9-1 1.6-1.5 2-1.5.6 0 1.9 1 3.8 3 .2.2.4.5.6.7l4.2 4.6-.4 14.9-.4 14.9h-3.1c-1.3 0-2.1-.3-2.5-.8-.5-.8-1-4-1.2-9.6 0-.8-.1-1.9-.1-3.2-.4-8.1-1.1-13.1-2.1-14.9-.3-.4-.5-.8-.8-1-1.4-1.5-2.1-2.7-2.1-3.5 0-.9.7-2.1 2.1-3.6zm12-19.9c2.8-1.7 5.8-2.5 9-2.5 5.1 0 9.6 1.9 13.6 5.7 2.7 2.6 4.6 5.7 5.7 9.3.2.8.3 1.3.3 1.6 0 .6-.6 1-1.8 1.1h-1.9c-2.3 0-4.1-.7-5.3-2-.5-.5-1-1.2-1.5-2-1.2-1.9-2.7-3.3-4.6-4.4-.5-.2-.8-.4-1.2-.5-.7-.2-1.4-.3-2.3-.3-3 0-5.6 1-7.8 2.9-1 1-1.7 2-2 3-.4 1.6-1.1 2.6-2.1 2.9-.7.2-1.7.3-3.1.3-2.5 0-3.8-.4-4.2-1.3-.1-.3-.1-.5-.1-.8 0-2.3 1.3-5.1 4-8.4 1.9-2 3.6-3.5 5.3-4.6zm5.1 25.7c1-1 2.3-1.5 3.9-1.5 2.1 0 3.9.8 5.3 2.4 1 1 1.4 2.3 1.4 3.6 0 2-.9 3.8-2.8 5.1-1.1.8-2.2 1.2-3.3 1.2-1.4 0-2.5-.5-3.5-1.4-1.6-1.5-2.5-3.4-2.5-5.5 0-1.6.5-2.9 1.5-3.9zm0 19c1-1 2.3-1.4 3.8-1.4 2.4 0 4.4.8 5.9 2.5.9 1 1.4 2.1 1.4 3.3 0 1.1-1 2.7-2.9 4.7-1.4 1.4-2.4 2.1-3.1 2.1-.8 0-2-.7-3.8-2-1.8-1.4-2.7-3.2-2.7-5.4 0-1.5.5-2.8 1.4-3.8zm18.5-21.4c2-2.5 3.6-3.9 4.7-4 1 0 2.1.7 3.5 1.9 1 1 1.6 1.7 1.6 2.1 0 .5-.6 1.3-1.6 2.5-1.2 1.3-2 4.5-2.4 9.5-.1 1.9-.3 4.3-.4 7.2l-.7 14h-7.6v-14.6c0-7.8.3-12.7.8-14.7.5-1.2 1.1-2.5 2.1-3.9zM68.4 227.7c.4-.4 1.3-.5 2.7-.5.6 0 1 0 1.4.1 1.8.2 2.9 1 3.3 2.3.1.4.2.9.3 1.4.3 2.2 1.5 3.5 3.5 4.1 1.7.4 4 1.8 6.8 4.2.3.2.5.4.7.5 3 2.7 4.5 5.6 4.6 8.5 0 2.6-1.1 5.2-3.3 7.7l-3.3 4 6.6 7.1 6.7 7-4 4c-2 2-3.2 3-3.8 3.1-.1 0-.3.1-.4.1-.5 0-1.3-.6-2.5-1.6-1.3-1.3-2-2.5-2-3.7 0-.3 0-.5.1-.5 0-.1.1-.3.1-.4 0-1.4-1.3-3.6-3.8-6.6-2.9-3.4-4.3-6.3-4.3-8.9 0-2.2 1.1-4.6 3.1-7.1 1.7-2.1 2.6-3.9 2.7-5.3 0-.2 0-.4-.1-.5-.8-1.9-3.2-3.2-7.2-4-1.5-.3-2.9-.4-4.4-.4-3.5 0-6.2.7-8 1.9-1.7 1.3-2.6 2.4-2.7 3.5 0 1 .8 2.4 2.4 4 1.4 1.5 2.4 3.4 3.1 5.9.1.3.2.5.2.8.1.8.2 1.4.2 2 0 1.5-.9 3.3-2.7 5.5-.5.6-1.2 1.4-2 2.2-2.7 2.9-4.1 4.9-4.1 6.1 0 .2.1.4.3.5.3.2.5.5.5.9 0 .7-.7 1.8-1.9 3.1l-2.9 3.1-4.2-4.1-4.2-4 6.3-6.1c4.2-4 6.3-6.9 6.3-8.5 0-.9-.5-1.6-1.4-2.1-.9-.5-1.9-2.2-3.1-5 0-.1-.1-.2-.1-.2-.8-1.9-1.2-3.3-1.2-4.1 0-.9.5-2.3 1.4-4 1.2-2.4 3.4-4.6 6.6-6.6 2.3-1.5 4.3-2.3 5.9-2.3 1.2-.1 1.9-.6 1.9-1.4 0-.5-.1-1-.3-1.6-.2-.7-.3-1.4-.3-2.1.1-1.1.2-1.7.5-2zm.6 40c1.9-.8 3.1-1.2 3.6-1.2.7 0 1.9.6 3.5 1.8 1.6 1.2 2.5 2.7 2.5 4.6 0 2-.9 3.6-2.7 4.8-1 .7-2.2 1-3.3 1-.8 0-1.5-.1-2.3-.4-2.1-.7-3.4-2.2-4-4.5-.1-.5-.2-1-.2-1.5.1-2.3 1.1-3.8 2.9-4.6zm-1.3-21.1c1-1.1 2.6-1.7 4.8-1.7 2.4 0 4.1.7 5.2 1.8.7.9 1.1 2 1.1 3.1 0 2.1-.9 3.8-2.6 5-.6.4-1.3.7-1.9.9-.6.2-1.4.3-2.2.3-1.4 0-2.4-.2-3.2-.7-1.5-1.2-2.3-2.9-2.4-5.1.1-1.5.4-2.7 1.2-3.6zM198.5 84.8c1.2-1.3 2.2-2 3-2 1.2.1 2.8 1.6 4.8 4.6 1.4 2 2.2 4.2 2.5 6.6.2 2.1.3 6.1.3 12v14.5h-7.6v-12.4c0-6.9-.4-11.5-1.2-13.8-.4-1-.8-1.9-1.4-2.9-1.3-2.1-1.9-3.5-1.9-4.1 0-.5.5-1.3 1.5-2.5zm3.5-18.3c.5-1.2 1.8-1.9 3.8-1.9 2 0 3.3.6 4 1.8.1.1.2.3.2.4 1.3 3.7 3.7 6.2 7 7.4 1.1.4 2.3.6 3.4.6 3.7 0 6.7-1.7 8.9-5.1.3-.5.6-.9.8-1.4 1-2 2-3.1 3.1-3.4.4-.1.8-.1 1.3-.1.4 0 .7 0 1 .1 1.7.2 2.7.7 3 1.4.1.3.1.7.1 1.1 0 .5 0 .8-.1 1-.4 3.5-2.5 7-6.5 10.5-.7.5-1.3 1.1-2 1.6-2.4 1.7-5.3 2.6-8.7 2.6-4.9 0-9.2-1.5-13.1-4.4-2.1-1.6-3.7-3.4-4.7-5.5-1.2-2.5-1.8-4.5-1.8-6 .2-.2.2-.4.3-.7zm14.3-6.6c1.5-1 2.8-1.6 4-1.6 1.4 0 2.8.8 4.4 2.1 1.4 1.3 2 2.7 2 4.3 0 2.1-.9 3.7-2.8 4.9-1 .6-2.2 1-3.3 1-.8 0-1.5-.1-2.3-.4-2-.7-3.3-2.2-3.8-4.4-.1-.5-.2-1.1-.2-1.6 0-1.9.7-3.3 2-4.3zm-.1 30c1.5-1.5 2.7-2.3 3.8-2.3 1.2 0 2.7.8 4.5 2.3 1.5 1.3 2.2 2.8 2.3 4.5 0 2.1-1 3.7-2.9 4.7-.5.3-1.1.5-1.7.7-.9.2-1.5.3-1.9.3-2.4 0-4.2-1-5.3-2.9-.5-.9-.7-1.8-.7-2.7 0-1.7.7-3.2 1.9-4.6zm0 19c1.4-1.5 2.7-2.2 3.8-2.3 1 0 2.4.7 4.2 1.8 1.7 1.3 2.5 2.7 2.6 4.4 0 1.5-.9 3.1-2.5 4.6-1.3 1.1-2.6 1.7-4 1.7-2 0-3.7-.9-4.8-2.8-.6-1-1-2.1-1-3.2 0-1.5.6-2.9 1.7-4.2zm19.9-23.6c1.6-1.8 2.8-2.7 3.5-2.7.7 0 1.8.8 3.1 2.3 1 1.1 1.5 1.9 1.5 2.5 0 .7-.7 1.8-2 3.4-1.3 1.7-2 3.7-2.3 6.1-.2 2-.3 5.4-.3 10.4v13.2h-8.8V107c0-7.6.4-12.8 1.3-15.4.7-1.9 2-4 4-6.3zM211.1 152.4c5.4-5.5 8.5-8.4 9.3-8.5.6.1 3.9 3.2 9.9 9.4 5.2 5.5 8.2 9.6 9 12.4.2.7.3 1.4.3 2 0 2-.9 4.1-2.7 6.3-1.6 2-2.5 3.6-2.5 4.8 0 1.2.9 2.8 2.5 5 1.5 1.8 2.9 2.8 4.2 2.8.3 0 .5 0 .7-.1.4-.1.7-.1.8-.1 1.3 0 2.6.7 3.8 2 1 1.1 1.5 1.9 1.5 2.4 0 .7-1 2-2.9 4-2.1 2.2-3.5 3.4-4.3 3.5h-.1c-.5-.3-3.2-3-7.9-8.2-4.1-4.5-6.5-8-7-10.2-.1-.5-.1-1-.1-1.4 0-1.8 1.1-4 3.1-6.4 1.5-1.9 2.3-3.3 2.3-4.4 0-1.5-1.3-3.5-4-6.3-.6-.6-1.3-1.3-2.1-2l-4.6-4.4-5.7 5.6c-3.7 3.6-5.6 5.9-5.7 6.7 0 .8 1.1 2.5 3.2 5 2 2.4 3.1 4.5 3.1 6.3 0 2.2-1.7 5.3-5.1 9.1-.8.9-1.7 1.9-2.7 2.9l-7.8 8.1-4.2-4c-2.1-2.2-3.3-3.6-3.3-4.3 0-.5.5-1.3 1.3-2.2 1.1-1.2 2.3-1.8 3.7-1.8.3 0 .5 0 .6.1.1 0 .3.1.4.1 1.6 0 3.4-1.1 5.3-3.2 1.8-2 2.7-3.3 2.7-4.2 0-.5-.3-1.1-.8-1.8-2.8-3.9-4.2-7.3-4.2-10.3 0-1 .1-1.8.4-2.5.6-1.8 3.2-5 7.6-9.8.6-1 1.3-1.7 2-2.4zm4.4 37.4c1-1 2.5-1.4 4.6-1.4 2.5 0 4.2.7 5.3 1.8.7.8 1 1.9 1 3.1 0 2.1-.8 3.8-2.4 5-.5.4-1.1.7-1.6.8-.7.1-1.3.2-1.9.2-2.5 0-4.4-1-5.7-2.9-.6-.9-.9-1.9-.9-2.9-.1-1.3.5-2.5 1.6-3.7zm.5-26.5c1.5-1 2.8-1.6 4-1.6 1.4 0 2.8.8 4.4 2.1 1.4 1.3 2 2.7 2 4.4 0 2-.9 3.7-2.7 4.8-1 .6-2.2 1-3.3 1-.8 0-1.5-.1-2.3-.4-2-.7-3.3-2.1-3.9-4.3-.1-.6-.2-1.2-.2-1.7 0-1.9.7-3.4 2-4.3zM192.8 247.3c1-2.1 2.8-3.2 5.2-3.2 2.3 0 4 .9 5.3 2.6.7 1 1.1 2.1 1.1 3.3 0 3.3-1.7 5.2-5 5.7-.5 0-1 .1-1.5.1-2.5 0-4.3-1-5.3-3.1-.4-.8-.5-1.6-.5-2.4 0-1.1.2-2.1.7-3zm19.8.7c1.6-.7 5.5-1.1 11.7-1.2h1.3c4.4 0 7.4.4 9 1.3.7.4 1.5 1 2.4 1.7 1.5 1.4 2.5 2.7 3 4 .5 1.6.9 5.4 1.3 11.5.2 3.8.3 6.4.3 8 0 3.4-.6 5.7-1.6 6.9-.9 1-1.6 1.6-2 1.6-.5-.1-1.3-.8-2.3-2.1-1.2-1.5-1.9-4.3-2.1-8.2 0-1.3-.1-2.9-.1-4.6-.1-5.9-.4-9.2-1-10-.6 0-2.4 1.5-5.5 4.6l-.5.5c-2.5 2.5-4.1 4.8-4.7 6.8-.4 1.2-.7 2.9-1 5-.4 3.5-.8 5.5-1.4 6.1-.5.4-1.3.6-2.5.6-1.4 0-2.3-.3-2.7-1-.4-.8-.7-3.1-.9-7-.1-2-.1-3.3-.1-3.8 0-2.4.5-4.3 1.5-5.8.5-.8 1.5-1.9 2.9-3.4 2.4-2.7 3.6-4.3 3.6-4.6-.1-.4-.8-.5-2-.5-2 0-5 2.1-8.9 6.1-2.8 2.9-4.6 5.1-5.2 6.6-.5 1.3-.9 3.5-1.1 6.4-.2 3.6-.5 5.7-1 6.3-.5.5-1.5.8-3.3.8-1.9 0-3-.4-3.5-1.1-.3-.6-.5-1.7-.7-3.3-.1-.9-.1-2-.1-3.4 0-4.3 1.2-8.1 3.5-11.5 1.1-1.5 2.5-3.3 4.3-5.1 3.5-3.7 6.4-6.3 8.7-7.7.4-.4.6-.5.7-.5zm19-11.4c1.5-1.6 3.3-2.4 5.3-2.5 2 0 3.6.9 4.7 2.5.8 1.2 1.2 2.4 1.2 3.8 0 2.2-.9 3.8-2.7 4.7-.2.1-.5.3-.7.3-1 .4-1.9.5-2.8.5-2.5 0-4.4-1-5.7-2.9-.6-.9-.9-1.8-.9-2.8.1-1.3.6-2.5 1.6-3.6z"/><path d="M271.6 210v-11.7h50.1c3.1 0 5.5-.8 7.2-2.4 1.7-1.6 2.5-3.7 2.5-6.3 0-2.9-.8-5-2.5-6.5-1.7-1.4-4-2.2-7.2-2.2h-50.1v-37.8h67.6v11.7h-55.5v16.3h38.1c6.7 0 11.9 1.6 15.4 4.8 3.5 3.2 5.3 8 5.3 14.5 0 2.8-.4 5.4-1.3 7.8-.9 2.4-2.1 4.5-3.9 6.2-1.7 1.7-3.9 3.1-6.4 4.1-2.6 1-5.6 1.5-9.1 1.5h-50.2z" fill="#fff"/></svg>