<svg xmlns="http://www.w3.org/2000/svg" xmlns:xlink="http://www.w3.org/1999/xlink" fill="none" font-family="Arial" viewBox="0 0 348 348"><defs><linearGradient id="a"><stop offset="0" stop-color="#0d0d37"/><stop offset="1" stop-color="#00002f"/></linearGradient><linearGradient xlink:href="#a" id="b" x1="4" x2="343" y1="174.6" y2="174.6" gradientUnits="userSpaceOnUse"/></defs><path fill="url(#b)" stroke="#000" stroke-width="2" d="M5 5.8h337v337.6H5z"/><g stroke="#000" stroke-miterlimit="10" stroke-width="2"><path fill="#ccc" d="M199.06 103.14a23.1 23.1 0 0 1-11.57 20.03 23.1 23.1 0 0 1-23.13 0 23.1 23.1 0 0 1-11.56-20.03h23.13zM243.48 141.24a23.1 23.1 0 0 1-22.34 6 23.1 23.1 0 0 1-16.36-16.37 23.1 23.1 0 0 1 5.99-22.34l16.35 16.36zM247.8 199.08a23.1 23.1 0 0 1-20.03-11.57 23.1 23.1 0 0 1 0-23.13 23.1 23.1 0 0 1 20.03-11.57v23.13z"/><path fill="#6e6e6e" d="M209.7 243.5a23.1 23.1 0 0 1-5.99-22.35 23.1 23.1 0 0 1 16.36-16.35 23.1 23.1 0 0 1 22.34 5.98l-16.35 16.36z"/></g><circle cx="175.17" cy="174.91" r="17.76" stroke="#000" stroke-miterlimit="10" stroke-width="1.46"/><g stroke="#000" stroke-miterlimit="10"><path fill="#090909" stroke-width="1.89" d="M150.95 249.4a23.1 23.1 0 0 1 11.57-20.03 23.1 23.1 0 0 1 23.13 0 23.1 23.1 0 0 1 11.56 20.03h-23.13zM106.53 211.3a23.1 23.1 0 0 1 22.34-5.99 23.1 23.1 0 0 1 16.36 16.36 23.1 23.1 0 0 1-5.99 22.34l-16.35-16.36z"/><path fill="#ccc" stroke-width="1.89" d="M102.2 153.47a23.1 23.1 0 0 1 20.04 11.56 23.1 23.1 0 0 1 0 23.13 23.1 23.1 0 0 1-20.03 11.57V176.6z"/><path fill="#6e6e6e" stroke-width="1.89" d="M140.3 109.05a23.1 23.1 0 0 1 6 22.34 23.1 23.1 0 0 1-16.36 16.35 23.1 23.1 0 0 1-22.34-5.98l16.35-16.36z"/></g><path fill="#6e6e6e" stroke="#000" stroke-linejoin="round" stroke-miterlimit="10" stroke-width="2" d="m165 73 25 40h-50z" color="#000" overflow="visible" style="marker:none" transform="translate(-32.12 -52.5)scale(1.25)"/><path fill="#6e6e6e" stroke="#000" stroke-width="2" d="m242.78 105.22-10.6 45.96-35.36-35.36Z" color="#000" overflow="visible" style="marker:none" transform="translate(-32.12 -52.5)scale(1.25)"/><path fill="#090909" stroke="#000" stroke-width="2" d="m275 183-40 25v-50z" color="#000" overflow="visible" style="marker:none" transform="translate(-32.12 -52.5)scale(1.25)"/><path fill="#6e6e6e" stroke="#000" stroke-width="2" d="m242.78 260.78-45.96-10.6 35.36-35.36Z" color="#000" overflow="visible" style="marker:none" transform="translate(-32.12 -52.5)scale(1.25)"/><path fill="#ccc" stroke="#000" stroke-width="2" d="m165 293-25-40h50zM87.22 260.78l10.6-45.96 35.36 35.36Z" color="#000" overflow="visible" style="marker:none" transform="translate(-32.12 -52.5)scale(1.25)"/><path fill="#090909" stroke="#000" stroke-width="2" d="m55 183 40-25v50z" color="#000" overflow="visible" style="marker:none" transform="translate(-32.12 -52.5)scale(1.25)"/><path fill="#6e6e6e" stroke="#000" stroke-width="2" d="m87.22 105.22 45.96 10.6-35.36 35.36Z" color="#000" overflow="visible" style="marker:none" transform="translate(-32.12 -52.5)scale(1.25)"/></svg>