<svg xmlns="http://www.w3.org/2000/svg" fill="none" viewBox="0 0 348 348"><path stroke="#000" stroke-width="2" d="M5.079 5.776h336.913v337.67H5.08z"/><path stroke="#000" stroke-width="2" d="M282.734 40.554c0-8.376 6.966-15.165 15.56-15.165 4.126 0 8.084 1.597 11.001 4.441 2.918 2.844 4.558 6.702 4.558 10.724 0 8.376-6.966 15.165-15.56 15.165-8.593 0-15.559-6.79-15.559-15.165z"/><path stroke="#000" stroke-linecap="square" stroke-width="1.999" d="M21.079 42.685h183.385v45.846H21.079z"/><circle cx="241.459" cy="64.699" r="22.923" stroke="#000" stroke-linecap="square" stroke-width="1.999"/><path stroke="#000" stroke-linecap="square" stroke-width="1.833" d="M47.623 108.975h78.717v44.182H47.623zm86.554 0h78.717v44.182h-78.717zm86.554 0h78.717v44.182h-78.717zM47.623 162.836h78.717v44.182H47.623zm86.554 0h78.717v44.182h-78.717zm86.554 0h78.717v44.182h-78.717zM47.623 218.941h78.717v44.182H47.623zm86.554 0h78.717v44.182h-78.717zm86.554 0h78.717v44.182h-78.717zm-173.108 53.86h78.717v44.182H47.623zm86.554 0h78.717v44.182h-78.717zm86.554 0h78.717v44.182h-78.717z"/></svg>