<svg xmlns="http://www.w3.org/2000/svg" fill="none" viewBox="0 0 348 348"><path fill="#000" d="M10 33h327v20H10z"/><path stroke="#000" stroke-width="2" d="M5 5.8h337v337.6H5z"/><path stroke="#000" d="M302 287a35 35 0 01-35 35.1 35 35 0 01-35.2-35A35 35 0 01267 252a35 35 0 0135 35zm-93 0a35 35 0 01-35 35.1 35 35 0 01-35-35 35 35 0 0135-35.1 35 35 0 0135 35zm-92.8 0A35 35 0 0181 322.1a35 35 0 01-35-35A35 35 0 0181 252a35 35 0 0135 35zM302 194.1a35 35 0 01-35 35.1 35 35 0 01-35.2-35A35 35 0 01267 159a35 35 0 0135 35zm-93 0a35 35 0 01-35 35.1 35 35 0 01-35-35 35 35 0 0135-35.1 35 35 0 0135 35zm-92.8 0A35 35 0 0181 229.2a35 35 0 01-35-35A35 35 0 0181 159a35 35 0 0135 35zM302 101.2a35 35 0 01-35 35 35 35 0 01-35.2-35 35 35 0 0135.1-35 35 35 0 0135 35zm-93 0a35 35 0 01-35 35 35 35 0 01-35-35 35 35 0 0135-35 35 35 0 0135 35zm-92.8 0a35 35 0 01-35.1 35 35 35 0 01-35-35 35 35 0 0135-35 35 35 0 0135 35z"/><path stroke="#000" d="M10 33h327v305H10z"/><path fill="#fdfdfd" d="M40 50.5l10-15 10 15z"/><path stroke="#fff" d="M30 48V38"/><circle cx="30" cy="38" r="1.3" fill="#fff"/><circle cx="30" cy="48" r="1.3" fill="#fff"/><path stroke="#fff" d="M27 40s-.2 3 3 3c3.4 0 3-3 3-3"/><circle cx="71.2" cy="42.4" r="7.5" fill="#fff" stroke="#fff"/><path fill="#fff" d="M234.7 37.4V39a10.6 10.6 0 0110.6 10.6h1.7a12.4 12.4 0 00-12.3-12.3zm0 3.5v1.7a7 7 0 017 7.1h1.8a8.8 8.8 0 00-8.8-8.8zm4.7 6.4a2.4 2.4 0 01-2.3 2.4 2.4 2.4 0 01-2.4-2.4A2.4 2.4 0 01237 45a2.4 2.4 0 012.3 2.4zM255 40.5v5h5l2.5 2.5V38l-2.5 2.5z"/><path stroke="#fff" stroke-linecap="round" stroke-width="1.5" d="M265 45.5v-5"/><path fill="#fff" d="M275 50.5h9.2V36.8h-2.3v-1.3h-4.6v1.3H275zm24.6-7.2q-1.1 0-1.8.6-.6.6-.6 1.6 0 1.1.6 1.7.7.6 1.8.6t1.8-.6q.6-.6.6-1.7 0-1-.6-1.6-.7-.6-1.8-.6zm-1.6-.7q-1-.2-1.6-1-.5-.6-.5-1.6 0-1.4 1-2.2 1-.9 2.7-.9 1.7 0 2.7.9 1 .8 1 2.2 0 1-.5 1.7-.6.7-1.6 1 1.1.2 1.8 1 .6.7.6 1.8 0 1.7-1 2.6-1 1-3 1t-3-1q-1-.9-1-2.6 0-1 .6-1.8.7-.8 1.8-1zm-.6-2.5q0 1 .6 1.4.6.5 1.6.5t1.6-.5q.6-.5.6-1.4 0-.9-.6-1.4-.6-.5-1.6-.5t-1.6.5q-.6.5-.6 1.4zm9.2 6.7h1.6v2h-1.6zm0-6.2h1.6v2h-1.6zm5.2-3.4h6.2v1.3h-4.7v2.8l.7-.1h.7q2 0 3 1 1.2 1 1.2 2.9t-1.2 3q-1.2 1-3.3 1l-1.5-.2-1.6-.3V47l1.5.5q.7.2 1.6.2 1.3 0 2.1-.7t.8-2q0-1.1-.8-1.8-.8-.8-2.1-.8l-1.3.2-1.3.4zm13.6 6.1q-1.1 0-1.8.6-.6.6-.6 1.6 0 1.1.6 1.7.7.6 1.8.6t1.8-.6q.6-.6.6-1.7 0-1-.6-1.6-.7-.6-1.8-.6zm-1.6-.7q-1-.2-1.6-1-.5-.6-.5-1.6 0-1.4 1-2.2 1-.9 2.7-.9 1.7 0 2.7.9 1 .8 1 2.2 0 1-.6 1.7-.5.7-1.5 1 1.1.2 1.7 1 .7.7.7 1.8 0 1.7-1 2.6-1 1-3 1t-3-1q-1-.9-1-2.6 0-1 .6-1.8.7-.8 1.8-1zm-.6-2.5q0 1 .6 1.4.6.5 1.6.5t1.6-.5q.5-.5.5-1.4 0-.9-.5-1.4-.6-.5-1.6-.5t-1.6.5q-.6.5-.6 1.4z"/><circle cx="286.3" cy="21.8" r="8.8" stroke="#000"/><ellipse cx="176.3" cy="20.5" stroke="#000" rx="33.8" ry="5"/><circle cx="286.3" cy="21.8" r="4.2" stroke="#000"/><circle cx="120" cy="20.5" r="5" stroke="#000"/><circle cx="92.5" cy="20.5" r="5" stroke="#000"/><circle cx="38.8" cy="19.3" r="8.8" stroke="#000"/></svg>