<svg xmlns="http://www.w3.org/2000/svg" viewBox="0 0 348 348" fill="none"><path d="M5.079 5.776h336.913v337.67H5.08z" stroke-width="2" stroke="#000"/><path d="M282.734 40.554c0-8.376 6.966-15.165 15.56-15.165 4.126 0 8.084 1.597 11.001 4.441 2.918 2.844 4.558 6.702 4.558 10.724 0 8.376-6.966 15.165-15.56 15.165-8.593 0-15.559-6.79-15.559-15.165z" stroke-width="2" stroke="#000"/><g transform="translate(90.69 71.9) scale(.10663)"><rect transform="scale(-1)" ry="68.296" y="-339.348" x="-339.704" height="331.052" width="331.052" fill="#fff" stroke="#000" stroke-width="4"/><rect transform="rotate(90)" ry="0" y="-339.694" x="119.612" height="330.632" width="108.42" stroke="#000" stroke-width="3.998"/><rect transform="scale(-1)" ry="0" y="-339.704" x="-228.75" height="220.14" width="109.145" fill="#fff" stroke="#000" stroke-width="3.997"/><path fill="#fff" d="M252.052 121.585v104.416h-44.21V121.585zm-110 0v104.416h-44.21V121.585z"/></g><g transform="rotate(90 -9.368 62.528) scale(.10604)"><rect transform="rotate(90)" ry="68.296" y="-339.526" x="8.474" height="331.052" width="331.052" fill="#fff" stroke="#000" stroke-width="4"/><rect ry="0" y="8.122" x="119.428" height="220.223" width="109.144" stroke="#000" stroke-width="3.273"/><rect transform="rotate(90)" ry="0" y="-339.88" x="119.428" height="220.424" width="109.143" fill="#fff" stroke="#000" stroke-width="3.275"/><path fill="#fff" d="M121.07 96.126h105.801v44.21H121.07z"/></g><g transform="translate(165.342 71.9) scale(.10663)"><rect transform="scale(-1)" ry="68.296" y="-339.348" x="-339.704" height="331.052" width="331.052" fill="#fff" stroke="#000" stroke-width="4"/><rect transform="rotate(90)" ry="0" y="-339.694" x="119.612" height="330.632" width="108.42" stroke="#000" stroke-width="3.998"/><rect transform="scale(-1)" ry="0" y="-339.704" x="-228.75" height="220.14" width="109.145" fill="#fff" stroke="#000" stroke-width="3.997"/><path fill="#fff" d="M252.052 121.585v104.416h-44.21V121.585zm-110 0v104.416h-44.21V121.585z"/></g><g transform="rotate(180 138.46 54.492) scale(.10604)"><rect transform="rotate(90)" ry="68.296" y="-339.526" x="8.474" height="331.052" width="331.052" fill="#fff" stroke="#000" stroke-width="4"/><rect ry="0" y="8.122" x="119.428" height="220.223" width="109.144" stroke="#000" stroke-width="3.273"/><rect transform="rotate(90)" ry="0" y="-339.88" x="119.428" height="220.424" width="109.143" fill="#fff" stroke="#000" stroke-width="3.275"/><path fill="#fff" d="M121.07 96.126h105.801v44.21H121.07z"/></g><g transform="rotate(-90 193.182 -46.84) scale(.10604)"><rect transform="rotate(90)" ry="68.296" y="-339.526" x="8.474" height="331.052" width="331.052" fill="#fff" stroke="#000" stroke-width="4"/><rect ry="0" y="8.122" x="119.428" height="220.223" width="109.144" stroke="#000" stroke-width="3.273"/><rect transform="rotate(90)" ry="0" y="-339.88" x="119.428" height="220.424" width="109.143" fill="#fff" stroke="#000" stroke-width="3.275"/><path fill="#fff" d="M121.07 96.126h105.801v44.21H121.07z"/></g><g transform="rotate(180 45.214 91.706) scale(.10604)"><rect transform="rotate(90)" ry="68.296" y="-339.526" x="8.474" height="331.052" width="331.052" fill="#fff" stroke="#000" stroke-width="4"/><rect ry="0" y="8.122" x="119.428" height="220.223" width="109.144" stroke="#000" stroke-width="3.273"/><rect transform="rotate(90)" ry="0" y="-339.88" x="119.428" height="220.424" width="109.143" fill="#fff" stroke="#000" stroke-width="3.275"/><path fill="#fff" d="M121.07 96.126h105.801v44.21H121.07z"/></g><g transform="rotate(-90 137.176 46.464) scale(.10663)"><rect transform="scale(-1)" ry="68.296" y="-339.348" x="-339.704" height="331.052" width="331.052" fill="#fff" stroke="#000" stroke-width="4"/><rect transform="rotate(90)" ry="0" y="-339.694" x="119.612" height="330.632" width="108.42" stroke="#000" stroke-width="3.998"/><rect transform="scale(-1)" ry="0" y="-339.704" x="-228.75" height="220.14" width="109.145" fill="#fff" stroke="#000" stroke-width="3.997"/><path fill="#fff" d="M252.052 121.585v104.416h-44.21V121.585zm-110 0v104.416h-44.21V121.585z"/></g><g transform="rotate(90 65.224 211.8) scale(.10663)"><rect transform="scale(-1)" ry="68.296" y="-339.348" x="-339.704" height="331.052" width="331.052" fill="#fff" stroke="#000" stroke-width="4"/><rect transform="rotate(90)" ry="0" y="-339.694" x="119.612" height="330.632" width="108.42" stroke="#000" stroke-width="3.998"/><rect transform="scale(-1)" ry="0" y="-339.704" x="-228.75" height="220.14" width="109.145" fill="#fff" stroke="#000" stroke-width="3.997"/><path fill="#fff" d="M252.052 121.585v104.416h-44.21V121.585zm-110 0v104.416h-44.21V121.585z"/></g><g transform="rotate(90 46.448 230.44) scale(.10604)"><rect transform="rotate(90)" ry="68.296" y="-339.526" x="8.474" height="331.052" width="331.052" fill="#fff" stroke="#000" stroke-width="4"/><rect ry="0" y="8.122" x="119.428" height="220.223" width="109.144" stroke="#000" stroke-width="3.273"/><rect transform="rotate(90)" ry="0" y="-339.88" x="119.428" height="220.424" width="109.143" fill="#fff" stroke="#000" stroke-width="3.275"/><path fill="#fff" d="M121.07 96.126h105.801v44.21H121.07z"/></g><g transform="matrix(0 -.10604 .10604 0 53.525 258.04)"><rect transform="rotate(90)" ry="68.296" y="-339.526" x="8.474" height="331.052" width="331.052" fill="#fff" stroke="#000" stroke-width="4"/><rect ry="0" y="8.122" x="119.428" height="220.223" width="109.144" stroke="#000" stroke-width="3.273"/><rect transform="rotate(90)" ry="0" y="-339.88" x="119.428" height="220.424" width="109.143" fill="#fff" stroke="#000" stroke-width="3.275"/><path fill="#fff" d="M121.07 96.126h105.801v44.21H121.07z"/></g><g transform="rotate(180 63.919 129.106) scale(.10663)"><rect transform="scale(-1)" ry="68.296" y="-339.348" x="-339.704" height="331.052" width="331.052" fill="#fff" stroke="#000" stroke-width="4"/><rect transform="rotate(90)" ry="0" y="-339.694" x="119.612" height="330.632" width="108.42" stroke="#000" stroke-width="3.998"/><rect transform="scale(-1)" ry="0" y="-339.704" x="-228.75" height="220.14" width="109.145" fill="#fff" stroke="#000" stroke-width="3.997"/><path fill="#fff" d="M252.052 121.585v104.416h-44.21V121.585zm-110 0v104.416h-44.21V121.585z"/></g><g transform="translate(128.14 221.287) scale(.10604)" stroke="#000" stroke-width="4"><rect ry="68.296" y="8.474" x="8.474" height="331.052" width="331.052" fill="#fff"/><rect ry="0" y="8.485" x="119.791" height="331.035" width="108.418"/></g><g transform="rotate(90 -9.308 211.778) scale(.10663)"><rect transform="scale(-1)" ry="68.296" y="-339.348" x="-339.704" height="331.052" width="331.052" fill="#fff" stroke="#000" stroke-width="4"/><rect transform="rotate(90)" ry="0" y="-339.694" x="119.612" height="330.632" width="108.42" stroke="#000" stroke-width="3.998"/><rect transform="scale(-1)" ry="0" y="-339.704" x="-228.75" height="220.14" width="109.145" fill="#fff" stroke="#000" stroke-width="3.997"/><path fill="#fff" d="M252.052 121.585v104.416h-44.21V121.585zm-110 0v104.416h-44.21V121.585z"/></g><g transform="rotate(90 9.205 230.492) scale(.10604)"><rect transform="rotate(90)" ry="68.296" y="-339.526" x="8.474" height="331.052" width="331.052" fill="#fff" stroke="#000" stroke-width="4"/><rect ry="0" y="8.122" x="119.428" height="220.223" width="109.144" stroke="#000" stroke-width="3.273"/><rect transform="rotate(90)" ry="0" y="-339.88" x="119.428" height="220.424" width="109.143" fill="#fff" stroke="#000" stroke-width="3.275"/><path fill="#fff" d="M121.07 96.126h105.801v44.21H121.07z"/></g><g transform="rotate(180 45.214 147.649) scale(.10604)"><rect transform="rotate(90)" ry="68.296" y="-339.526" x="8.474" height="331.052" width="331.052" fill="#fff" stroke="#000" stroke-width="4"/><rect ry="0" y="8.122" x="119.428" height="220.223" width="109.144" stroke="#000" stroke-width="3.273"/><rect transform="rotate(90)" ry="0" y="-339.88" x="119.428" height="220.424" width="109.143" fill="#fff" stroke="#000" stroke-width="3.275"/><path fill="#fff" d="M121.07 96.126h105.801v44.21H121.07z"/></g><g transform="translate(128.14 258.582) scale(.10604)" stroke="#000" stroke-width="4"><rect ry="68.296" y="8.474" x="8.474" height="331.052" width="331.052" fill="#fff"/><rect ry="0" y="8.485" x="119.791" height="331.035" width="108.418"/></g><g transform="rotate(-90 267.772 27.752) scale(.10604)"><rect transform="rotate(90)" ry="68.296" y="-339.526" x="8.474" height="331.052" width="331.052" fill="#fff" stroke="#000" stroke-width="4"/><rect ry="0" y="8.122" x="119.428" height="220.223" width="109.144" stroke="#000" stroke-width="3.273"/><rect transform="rotate(90)" ry="0" y="-339.88" x="119.428" height="220.424" width="109.143" fill="#fff" stroke="#000" stroke-width="3.275"/><path fill="#fff" d="M121.07 96.126h105.801v44.21H121.07z"/></g><g transform="matrix(0 -.10604 .10604 0 53.525 332.63)"><rect transform="rotate(90)" ry="68.296" y="-339.526" x="8.474" height="331.052" width="331.052" fill="#fff" stroke="#000" stroke-width="4"/><rect ry="0" y="8.122" x="119.428" height="220.223" width="109.144" stroke="#000" stroke-width="3.273"/><rect transform="rotate(90)" ry="0" y="-339.88" x="119.428" height="220.424" width="109.143" fill="#fff" stroke="#000" stroke-width="3.275"/><path fill="#fff" d="M121.07 96.126h105.801v44.21H121.07z"/></g><g transform="rotate(180 63.919 166.4) scale(.10663)"><rect transform="scale(-1)" ry="68.296" y="-339.348" x="-339.704" height="331.052" width="331.052" fill="#fff" stroke="#000" stroke-width="4"/><rect transform="rotate(90)" ry="0" y="-339.694" x="119.612" height="330.632" width="108.42" stroke="#000" stroke-width="3.998"/><rect transform="scale(-1)" ry="0" y="-339.704" x="-228.75" height="220.14" width="109.145" fill="#fff" stroke="#000" stroke-width="3.997"/><path fill="#fff" d="M252.052 121.585v104.416h-44.21V121.585zm-110 0v104.416h-44.21V121.585z"/></g><g transform="translate(16.26 295.729) scale(.10604)"><rect transform="rotate(90)" ry="68.296" y="-339.526" x="8.474" height="331.052" width="331.052" fill="#fff" stroke="#000" stroke-width="4"/><rect ry="0" y="8.122" x="119.428" height="220.223" width="109.144" stroke="#000" stroke-width="3.273"/><rect transform="rotate(90)" ry="0" y="-339.88" x="119.428" height="220.424" width="109.143" fill="#fff" stroke="#000" stroke-width="3.275"/><path fill="#fff" d="M121.07 96.126h105.801v44.21H121.07z"/></g><g transform="rotate(180 101.245 166.4) scale(.10663)"><rect transform="scale(-1)" ry="68.296" y="-339.348" x="-339.704" height="331.052" width="331.052" fill="#fff" stroke="#000" stroke-width="4"/><rect transform="rotate(90)" ry="0" y="-339.694" x="119.612" height="330.632" width="108.42" stroke="#000" stroke-width="3.998"/><rect transform="scale(-1)" ry="0" y="-339.704" x="-228.75" height="220.14" width="109.145" fill="#fff" stroke="#000" stroke-width="3.997"/><path fill="#fff" d="M252.052 121.585v104.416h-44.21V121.585zm-110 0v104.416h-44.21V121.585z"/></g><g transform="rotate(-90 286.42 46.4) scale(.10604)"><rect transform="rotate(90)" ry="68.296" y="-339.526" x="8.474" height="331.052" width="331.052" fill="#fff" stroke="#000" stroke-width="4"/><rect ry="0" y="8.122" x="119.428" height="220.223" width="109.144" stroke="#000" stroke-width="3.273"/><rect transform="rotate(90)" ry="0" y="-339.88" x="119.428" height="220.424" width="109.143" fill="#fff" stroke="#000" stroke-width="3.275"/><path fill="#fff" d="M121.07 96.126h105.801v44.21H121.07z"/></g><g transform="translate(165.345 146.594) scale(.10663)"><rect transform="scale(-1)" ry="68.296" y="-339.348" x="-339.704" height="331.052" width="331.052" fill="#fff" stroke="#000" stroke-width="4"/><rect transform="rotate(90)" ry="0" y="-339.694" x="119.612" height="330.632" width="108.42" stroke="#000" stroke-width="3.998"/><rect transform="scale(-1)" ry="0" y="-339.704" x="-228.75" height="220.14" width="109.145" fill="#fff" stroke="#000" stroke-width="3.997"/><path fill="#fff" d="M252.052 121.585v104.416h-44.21V121.585zm-110 0v104.416h-44.21V121.585z"/></g><g transform="rotate(90 27.93 249.094) scale(.10663)"><rect transform="scale(-1)" ry="68.296" y="-339.348" x="-339.704" height="331.052" width="331.052" fill="#fff" stroke="#000" stroke-width="4"/><rect transform="rotate(90)" ry="0" y="-339.694" x="119.612" height="330.632" width="108.42" stroke="#000" stroke-width="3.998"/><rect transform="scale(-1)" ry="0" y="-339.704" x="-228.75" height="220.14" width="109.145" fill="#fff" stroke="#000" stroke-width="3.997"/><path fill="#fff" d="M252.052 121.585v104.416h-44.21V121.585zm-110 0v104.416h-44.21V121.585z"/></g><g transform="rotate(-90 99.864 83.706) scale(.10663)"><rect transform="scale(-1)" ry="68.296" y="-339.348" x="-339.704" height="331.052" width="331.052" fill="#fff" stroke="#000" stroke-width="4"/><rect transform="rotate(90)" ry="0" y="-339.694" x="119.612" height="330.632" width="108.42" stroke="#000" stroke-width="3.998"/><rect transform="scale(-1)" ry="0" y="-339.704" x="-228.75" height="220.14" width="109.145" fill="#fff" stroke="#000" stroke-width="3.997"/><path fill="#fff" d="M252.052 121.585v104.416h-44.21V121.585zm-110 0v104.416h-44.21V121.585z"/></g><g transform="rotate(-90 137.16 121.001) scale(.10663)"><rect transform="scale(-1)" ry="68.296" y="-339.348" x="-339.704" height="331.052" width="331.052" fill="#fff" stroke="#000" stroke-width="4"/><rect transform="rotate(90)" ry="0" y="-339.694" x="119.612" height="330.632" width="108.42" stroke="#000" stroke-width="3.998"/><rect transform="scale(-1)" ry="0" y="-339.704" x="-228.75" height="220.14" width="109.145" fill="#fff" stroke="#000" stroke-width="3.997"/><path fill="#fff" d="M252.052 121.585v104.416h-44.21V121.585zm-110 0v104.416h-44.21V121.585z"/></g><g transform="rotate(-90 118.512 102.354) scale(.10663)"><rect transform="scale(-1)" ry="68.296" y="-339.348" x="-339.704" height="331.052" width="331.052" fill="#fff" stroke="#000" stroke-width="4"/><rect transform="rotate(90)" ry="0" y="-339.694" x="119.612" height="330.632" width="108.42" stroke="#000" stroke-width="3.998"/><rect transform="scale(-1)" ry="0" y="-339.704" x="-228.75" height="220.14" width="109.145" fill="#fff" stroke="#000" stroke-width="3.997"/><path fill="#fff" d="M252.052 121.585v104.416h-44.21V121.585zm-110 0v104.416h-44.21V121.585z"/></g><g transform="rotate(-90 81.215 65.06) scale(.10663)"><rect transform="scale(-1)" ry="68.296" y="-339.348" x="-339.704" height="331.052" width="331.052" fill="#fff" stroke="#000" stroke-width="4"/><rect transform="rotate(90)" ry="0" y="-339.694" x="119.612" height="330.632" width="108.42" stroke="#000" stroke-width="3.998"/><rect transform="scale(-1)" ry="0" y="-339.704" x="-228.75" height="220.14" width="109.145" fill="#fff" stroke="#000" stroke-width="3.997"/><path fill="#fff" d="M252.052 121.585v104.416h-44.21V121.585zm-110 0v104.416h-44.21V121.585z"/></g><g transform="rotate(90 -102.636 155.799) scale(.10604)" stroke="#000" stroke-width="4"><rect ry="68.296" y="8.474" x="8.474" height="331.052" width="331.052" fill="#fff"/><rect ry="0" y="8.485" x="119.791" height="331.035" width="108.418"/></g><g transform="translate(53.525 183.913) scale(.10604)" stroke="#000" stroke-width="4"><rect ry="68.296" y="8.474" x="8.474" height="331.052" width="331.052" fill="#fff"/><rect ry="0" y="8.485" x="119.791" height="331.035" width="108.418"/></g><g transform="rotate(90 -9.447 99.875) scale(.10604)" stroke="#000" stroke-width="4"><rect ry="68.296" y="8.474" x="8.474" height="331.052" width="331.052" fill="#fff"/><rect ry="0" y="8.485" x="119.791" height="331.035" width="108.418"/></g><g transform="rotate(90 9.212 81.215) scale(.10604)" stroke="#000" stroke-width="4"><rect ry="68.296" y="8.474" x="8.474" height="331.052" width="331.052" fill="#fff"/><rect ry="0" y="8.485" x="119.791" height="331.035" width="108.418"/></g><g transform="translate(90.774 109.439) scale(.10604)"><rect transform="rotate(90)" ry="68.296" y="-339.526" x="8.474" height="331.052" width="331.052" fill="#fff" stroke="#000" stroke-width="4"/><rect ry="0" y="8.122" x="119.428" height="220.223" width="109.144" stroke="#000" stroke-width="3.273"/><rect transform="rotate(90)" ry="0" y="-339.88" x="119.428" height="220.424" width="109.143" fill="#fff" stroke="#000" stroke-width="3.275"/><path fill="#fff" d="M121.07 96.126h105.801v44.21H121.07z"/></g><g transform="rotate(-90 155.873 65.06) scale(.10604)"><rect transform="rotate(90)" ry="68.296" y="-339.526" x="8.474" height="331.052" width="331.052" fill="#fff" stroke="#000" stroke-width="4"/><rect ry="0" y="8.122" x="119.428" height="220.223" width="109.144" stroke="#000" stroke-width="3.273"/><rect transform="rotate(90)" ry="0" y="-339.88" x="119.428" height="220.424" width="109.143" fill="#fff" stroke="#000" stroke-width="3.275"/><path fill="#fff" d="M121.07 96.126h105.801v44.21H121.07z"/></g><g transform="rotate(90 -65.451 193.131) scale(.10604)"><rect transform="rotate(90)" ry="68.296" y="-339.526" x="8.474" height="331.052" width="331.052" fill="#fff" stroke="#000" stroke-width="4"/><rect ry="0" y="8.122" x="119.428" height="220.223" width="109.144" stroke="#000" stroke-width="3.273"/><rect transform="rotate(90)" ry="0" y="-339.88" x="119.428" height="220.424" width="109.143" fill="#fff" stroke="#000" stroke-width="3.275"/><path fill="#fff" d="M121.07 96.126h105.801v44.21H121.07z"/></g><g transform="rotate(90 -9.434 174.441) scale(.10604)"><rect transform="rotate(90)" ry="68.296" y="-339.526" x="8.474" height="331.052" width="331.052" fill="#fff" stroke="#000" stroke-width="4"/><rect ry="0" y="8.122" x="119.428" height="220.223" width="109.144" stroke="#000" stroke-width="3.273"/><rect transform="rotate(90)" ry="0" y="-339.88" x="119.428" height="220.424" width="109.143" fill="#fff" stroke="#000" stroke-width="3.275"/><path fill="#fff" d="M121.07 96.126h105.801v44.21H121.07z"/></g><g transform="rotate(179.738 82.522 91.78) scale(.10604)"><rect transform="rotate(90)" ry="68.296" y="-339.526" x="8.474" height="331.052" width="331.052" fill="#fff" stroke="#000" stroke-width="4"/><rect ry="0" y="8.122" x="119.428" height="220.223" width="109.144" stroke="#000" stroke-width="3.273"/><rect transform="rotate(90)" ry="0" y="-339.88" x="119.428" height="220.424" width="109.143" fill="#fff" stroke="#000" stroke-width="3.275"/><path fill="#fff" d="M121.07 96.126h105.801v44.21H121.07z"/></g><g transform="rotate(179.738 82.522 54.453) scale(.10604)"><rect transform="rotate(90)" ry="68.296" y="-339.526" x="8.474" height="331.052" width="331.052" fill="#fff" stroke="#000" stroke-width="4"/><rect ry="0" y="8.122" x="119.428" height="220.223" width="109.144" stroke="#000" stroke-width="3.273"/><rect transform="rotate(90)" ry="0" y="-339.88" x="119.428" height="220.424" width="109.143" fill="#fff" stroke="#000" stroke-width="3.275"/><path fill="#fff" d="M121.07 96.126h105.801v44.21H121.07z"/></g><g transform="rotate(-90 137.202 9.061) scale(.10604)"><rect transform="rotate(90)" ry="68.296" y="-339.526" x="8.474" height="331.052" width="331.052" fill="#fff" stroke="#000" stroke-width="4"/><rect ry="0" y="8.122" x="119.428" height="220.223" width="109.144" stroke="#000" stroke-width="3.273"/><rect transform="rotate(90)" ry="0" y="-339.88" x="119.428" height="220.424" width="109.143" fill="#fff" stroke="#000" stroke-width="3.275"/><path fill="#fff" d="M121.07 96.126h105.801v44.21H121.07z"/></g><g transform="rotate(180 82.582 166.4) scale(.10663)"><rect transform="scale(-1)" ry="68.296" y="-339.348" x="-339.704" height="331.052" width="331.052" fill="#fff" stroke="#000" stroke-width="4"/><rect transform="rotate(90)" ry="0" y="-339.694" x="119.612" height="330.632" width="108.42" stroke="#000" stroke-width="3.998"/><rect transform="scale(-1)" ry="0" y="-339.704" x="-228.75" height="220.14" width="109.145" fill="#fff" stroke="#000" stroke-width="3.997"/><path fill="#fff" d="M252.052 121.585v104.416h-44.21V121.585zm-110 0v104.416h-44.21V121.585z"/></g><g transform="rotate(90 9.19 193.181) scale(.10604)" stroke="#000" stroke-width="4"><rect ry="68.296" y="8.474" x="8.474" height="331.052" width="331.052" fill="#fff"/><rect ry="0" y="8.485" x="119.791" height="331.035" width="108.418"/></g><g transform="translate(165.467 258.582) scale(.10604)" stroke="#000" stroke-width="4"><rect ry="68.296" y="8.474" x="8.474" height="331.052" width="331.052" fill="#fff"/><rect ry="0" y="8.485" x="119.791" height="331.035" width="108.418"/></g><g transform="rotate(90 46.485 155.886) scale(.10604)" stroke="#000" stroke-width="4"><rect ry="68.296" y="8.474" x="8.474" height="331.052" width="331.052" fill="#fff"/><rect ry="0" y="8.485" x="119.791" height="331.035" width="108.418"/></g><g transform="rotate(90 27.963 211.833) scale(.10663)"><rect transform="scale(-1)" ry="68.296" y="-339.348" x="-339.704" height="331.052" width="331.052" fill="#fff" stroke="#000" stroke-width="4"/><rect transform="rotate(90)" ry="0" y="-339.694" x="119.612" height="330.632" width="108.42" stroke="#000" stroke-width="3.998"/><rect transform="scale(-1)" ry="0" y="-339.704" x="-228.75" height="220.14" width="109.145" fill="#fff" stroke="#000" stroke-width="3.997"/><path fill="#fff" d="M252.052 121.585v104.416h-44.21V121.585zm-110 0v104.416h-44.21V121.585z"/></g><g transform="translate(202.672 146.594) scale(.10663)"><rect transform="scale(-1)" ry="68.296" y="-339.348" x="-339.704" height="331.052" width="331.052" fill="#fff" stroke="#000" stroke-width="4"/><rect transform="rotate(90)" ry="0" y="-339.694" x="119.612" height="330.632" width="108.42" stroke="#000" stroke-width="3.998"/><rect transform="scale(-1)" ry="0" y="-339.704" x="-228.75" height="220.14" width="109.145" fill="#fff" stroke="#000" stroke-width="3.997"/><path fill="#fff" d="M252.052 121.585v104.416h-44.21V121.585zm-110 0v104.416h-44.21V121.585z"/></g><g transform="rotate(90 65.148 174.549) scale(.10604)" stroke="#000" stroke-width="4"><rect ry="68.296" y="8.474" x="8.474" height="331.052" width="331.052" fill="#fff"/><rect ry="0" y="8.485" x="119.791" height="331.035" width="108.418"/></g><g transform="rotate(90 83.808 155.89) scale(.10604)" stroke="#000" stroke-width="4"><rect ry="68.296" y="8.474" x="8.474" height="331.052" width="331.052" fill="#fff"/><rect ry="0" y="8.485" x="119.791" height="331.035" width="108.418"/></g><g transform="rotate(180 119.847 147.742) scale(.10604)" stroke="#000" stroke-width="4"><rect ry="68.296" y="8.474" x="8.474" height="331.052" width="331.052" fill="#fff"/><rect ry="0" y="8.485" x="119.791" height="331.035" width="108.418"/></g><g transform="rotate(-90 267.814 65.122) scale(.10663)"><rect transform="scale(-1)" ry="68.296" y="-339.348" x="-339.704" height="331.052" width="331.052" fill="#fff" stroke="#000" stroke-width="4"/><rect transform="rotate(90)" ry="0" y="-339.694" x="119.612" height="330.632" width="108.42" stroke="#000" stroke-width="3.998"/><rect transform="scale(-1)" ry="0" y="-339.704" x="-228.75" height="220.14" width="109.145" fill="#fff" stroke="#000" stroke-width="3.997"/><path fill="#fff" d="M252.052 121.585v104.416h-44.21V121.585zm-110 0v104.416h-44.21V121.585z"/></g><g transform="translate(289.662 93.125) scale(.10604)"><rect transform="rotate(90)" ry="68.296" y="-339.526" x="8.474" height="331.052" width="331.052" fill="#fff" stroke="#000" stroke-width="4"/><rect ry="0" y="8.122" x="119.428" height="220.223" width="109.144" stroke="#000" stroke-width="3.273"/><rect transform="rotate(90)" ry="0" y="-339.88" x="119.428" height="220.424" width="109.143" fill="#fff" stroke="#000" stroke-width="3.275"/><path fill="#fff" d="M121.07 96.126h105.801v44.21H121.07z"/></g><path fill="#333" stroke="#000" stroke-width="2" d="M291.169 177.634h33.887v50.57h-33.887z"/><path fill="#333" stroke="#000" stroke-width="2" d="M291.169 210.204h33.887v50.57h-33.887z"/><path fill="#b3b3b3" stroke="#000" stroke-width="2" d="M291.169 242.774h33.887v50.57h-33.887z"/><circle cx="308.113" cy="260.77" r="10.688" fill="#f2f2f2" stroke="#000" stroke-width=".9"/><path d="M304.113 259.746l.387-1.101h2.202l1.14-3.227h1.102l-1.14 3.227h2.028l1.14-3.227h1.102l-1.14 3.227H313l-.386 1.1h-2.068l-.695 2.03h2.26l-.386 1.1h-2.26l-1.14 3.247h-1.102l1.14-3.246h-2.029l-1.14 3.246h-1.101l1.14-3.246h-2.01l.387-1.101h2.01l.695-2.03zm3.304 0l-.695 2.029h2.028l.696-2.03z" aria-label="#" font-weight="400" font-size="19.321" font-family="Mate" letter-spacing="0" word-spacing="0" text-anchor="middle" fill="#000"/><path stroke="#000" stroke-width=".9" d="M41.46 19.555h20.854v38.058H41.46z"/><path stroke="#000" stroke-width=".867" d="M100.389 19.538v19.323H62.298V19.538z"/><path stroke="#000" stroke-width=".9" d="M100.372 19.555h20.854v38.058h-20.854z"/><path stroke="#000" stroke-width=".867" d="M100.372 38.29v19.323H62.281V38.29z"/><path d="M57.897 42.893v1.981l-12.02-5.35v-1.881l12.02-5.35v1.982L48.024 38.6zm19.137-7.683h-1.981l5.349-12.02h1.882l5.35 12.02h-1.982l-4.326-9.874zm8.601 6.732h1.982l-5.35 12.019h-1.882l-5.349-12.02h1.981l4.326 9.874zm19.155-7.667v-1.981l12.018 5.349v1.882l-12.019 5.35v-1.982l9.873-4.326z" aria-label="&lt;" font-weight="400" font-size="33.02" font-family="Mate" letter-spacing="0" word-spacing="0" text-anchor="middle" fill="#000"/><path stroke="#000" stroke-width=".9" d="M155.226 19.555h38.058v38.058h-38.058zm50.058 0h38.058v38.058h-38.058z"/><path d="M163.083 38.043A12.386 12.386 0 00175.47 50.43a12.386 12.386 0 0012.386-12.387 12.386 12.386 0 00-12.386-12.386 12.386 12.386 0 00-12.387 12.386z" stroke="#000" stroke-width="1.003401"/><path d="M178.724 40.727l-12.729-5.986-8.043 11.115 12.729 5.985z" fill="#fff"/><path d="M162.036 39.87l-3.282-6.431 9.49 2.743z" fill="#000"/><g><path d="M235.39 38.043a12.386 12.386 0 01-12.387 12.387 12.386 12.386 0 01-12.387-12.387 12.386 12.386 0 0112.387-12.386 12.386 12.386 0 0112.386 12.386z" stroke="#000" stroke-width="1.003401"/><path d="M219.749 40.727l12.729-5.986 8.043 11.115-12.729 5.985z" fill="#fff"/><path d="M236.437 39.87l3.282-6.431-9.49 2.743z" fill="#000"/></g></svg>