<svg width="348" height="348" xmlns="http://www.w3.org/2000/svg"><path fill="none" d="M-1-1h350v350H-1z"/><g><path d="M5.079 5.776h336.913v337.67H5.08L5.079 5.776z" stroke-width="2" stroke="#000" fill="none"/><path fill="none" d="M282.734 40.554c0-8.376 6.966-15.165 15.56-15.165 4.126 0 8.084 1.597 11.001 4.441 2.918 2.844 4.558 6.702 4.558 10.724 0 8.376-6.966 15.165-15.56 15.165-8.593 0-15.559-6.79-15.559-15.165zM174.778 143.566c52.155-136.44 256.501 0 0 175.423-256.502-175.423-52.156-311.863 0-175.423z" stroke-width="2" stroke="#000"/></g></svg>