<?xml version="1.0" encoding="UTF-8" standalone="no"?>
<svg
   xmlns:dc="http://purl.org/dc/elements/1.1/"
   xmlns:cc="http://creativecommons.org/ns#"
   xmlns:rdf="http://www.w3.org/1999/02/22-rdf-syntax-ns#"
   xmlns:svg="http://www.w3.org/2000/svg"
   xmlns="http://www.w3.org/2000/svg"
   xmlns:sodipodi="http://sodipodi.sourceforge.net/DTD/sodipodi-0.dtd"
   xmlns:inkscape="http://www.inkscape.org/namespaces/inkscape"
   version="1.1"
   viewBox="0.0 0.0 348.0 348.0"
   fill="none"
   stroke="none"
   stroke-linecap="square"
   stroke-miterlimit="10"
   id="svg2"
   inkscape:version="0.91 r13725"
   sodipodi:docname="F135.tmp.svg">
  <metadata
     id="metadata57">
    <rdf:RDF>
      <cc:Work
         rdf:about="">
        <dc:format>image/svg+xml</dc:format>
        <dc:type
           rdf:resource="http://purl.org/dc/dcmitype/StillImage" />
      </cc:Work>
    </rdf:RDF>
  </metadata>
  <defs
     id="defs55" />
  <sodipodi:namedview
     pagecolor="#ffffff"
     bordercolor="#666666"
     borderopacity="1"
     objecttolerance="10"
     gridtolerance="10"
     guidetolerance="10"
     inkscape:pageopacity="0"
     inkscape:pageshadow="2"
     inkscape:window-width="640"
     inkscape:window-height="480"
     id="namedview53"
     showgrid="false"
     inkscape:object-nodes="true"
     inkscape:current-layer="g7" />
  <clipPath
     id="p.0">
    <path
       d="m0 0l348.0 0l0 348.0l-348.0 0l0 -348.0z"
       clip-rule="nonzero"
       id="path5" />
  </clipPath>
  <g
     clip-path="url(#p.0)"
     id="g7">
    <path
       d="m-6.0 0l348.0 0l0 347.9685l-348.0 0z"
       id="path11"
       fill-rule="nonzero"
       fill="#ffffff" />
    <path
       fill="#000000"
       fill-opacity="0.0"
       d="m0 0l348.0 0l0 348.0l-348.0 0z"
       fill-rule="nonzero"
       id="path9" />
    <path
       fill="#000000"
       fill-opacity="0.0"
       d="m5.07874 5.7758217l336.9134 0l0 337.66928l-336.9134 0z"
       fill-rule="nonzero"
       id="path13" />
    <path
       stroke="#000000"
       stroke-width="2.0"
       stroke-linejoin="round"
       stroke-linecap="butt"
       d="m5.07874 5.7758217l336.9134 0l0 337.66928l-336.9134 0z"
       fill-rule="nonzero"
       id="path15" />
    <path
       fill="#ffffff"
       d="m282.73444 40.553925l0 0c0 -8.375591 6.966034 -15.165352 15.5590515 -15.165352l0 0c4.126526 0 8.084015 1.5977726 11.001923 4.441828c2.9178772 2.844057 4.557129 6.7014217 4.557129 10.723524l0 0c0 8.375595 -6.9660034 15.165356 -15.5590515 15.165356l0 0c-8.593018 0 -15.5590515 -6.7897606 -15.5590515 -15.165356z"
       fill-rule="nonzero"
       id="path17" />
    <path
       stroke="#000000"
       stroke-width="2.0"
       stroke-linejoin="round"
       stroke-linecap="butt"
       d="m282.73444 40.553925l0 0c0 -8.375591 6.966034 -15.165352 15.5590515 -15.165352l0 0c4.126526 0 8.084015 1.5977726 11.001923 4.441828c2.9178772 2.844057 4.557129 6.7014217 4.557129 10.723524l0 0c0 8.375595 -6.9660034 15.165356 -15.5590515 15.165356l0 0c-8.593018 0 -15.5590515 -6.7897606 -15.5590515 -15.165356z"
       fill-rule="nonzero"
       id="path19" />
    <path
       fill="#000000"
       fill-opacity="0.0"
       d="m47.026245 61.745407l29.16536 0l0 225.73228l-29.16536 0z"
       fill-rule="nonzero"
       id="path21" />
    <path
       fill="#000000"
       fill-opacity="0.0"
       d="m257.56955 106.58793l29.165344 0l0 178.20474l-29.165344 0z"
       fill-rule="nonzero"
       id="path25" />
    <path
       fill="#000000"
       fill-opacity="0.0"
       d="m61.6063 94.05481c10.847099 -2.326851 19.528023 12.062485 30.566925 13.165352c24.493225 2.4470444 49.259254 -2.853485 73.83202 -1.4094467c11.687805 0.68683624 20.134766 12.74498 31.509186 15.519684c25.011337 6.1013184 50.6969 9.060364 76.183716 12.695541"
       fill-rule="evenodd"
       id="path29" />
    <path
       fill="#000000"
       fill-opacity="0.0"
       d="m65.367455 130.26443c24.469223 -11.123505 52.597984 13.950012 79.47506 13.637787c23.982635 -0.27859497 49.307022 -7.900284 71.95276 0c18.927505 6.603134 43.66768 30.634155 57.842514 16.45932"
       fill-rule="evenodd"
       id="path33" />
    <path
       fill="#000000"
       fill-opacity="0.0"
       d="m62.076115 163.18391c13.594257 -1.7824554 28.332623 -9.683853 40.913387 -4.233597c8.545235 3.7019806 7.230156 21.33052 16.45932 22.574814c30.325989 4.0885925 61.216156 -1.6049805 91.703415 -4.233597c21.870361 -1.8856659 43.41594 7.994751 65.36745 7.994751"
       fill-rule="evenodd"
       id="path37" />
    <path
       fill="#000000"
       fill-opacity="0.0"
       d="m61.133858 190.4596c14.410118 -0.9737854 29.280548 -5.961746 43.26509 -2.3516998c11.184219 2.8871613 21.443314 9.520508 32.921257 10.816269c22.413116 2.5302582 45.28653 2.3772125 67.24672 7.524933c11.842621 2.7760468 21.626816 5.8235016 29.157486 6.1128693c13.792221 0.529953 29.040268 -7.58667 41.383194 -1.4094543"
       fill-rule="evenodd"
       id="path41" />
    <rect
       style="opacity:1;fill:#000000;fill-opacity:1;stroke:#000000;stroke-width:2;stroke-linecap:butt;stroke-linejoin:round;stroke-miterlimit:3;stroke-dasharray:none;stroke-opacity:1"
       id="rect4185"
       width="243.10751"
       height="126.58357"
       x="23.472448"
       y="23.996387" />
    <rect
       style="opacity:1;fill:#000000;fill-opacity:1;stroke:#000000;stroke-width:2;stroke-linecap:butt;stroke-linejoin:round;stroke-miterlimit:3;stroke-dasharray:none;stroke-opacity:1"
       id="rect4187"
       width="299.69287"
       height="40.238483"
       x="23.053297"
       y="167.76514" />
    <rect
       y="223.93135"
       x="83.756096"
       height="48"
       width="48"
       id="rect4191"
       style="opacity:1;fill:#ffffff;fill-opacity:1;stroke:#000000;stroke-width:2;stroke-linecap:butt;stroke-linejoin:round;stroke-miterlimit:3;stroke-dasharray:none;stroke-opacity:1" />
    <rect
       y="223.93135"
       x="216.2439"
       height="48"
       width="48"
       id="rect4195"
       style="opacity:1;fill:#ffffff;fill-opacity:1;stroke:#000000;stroke-width:2;stroke-linecap:butt;stroke-linejoin:round;stroke-miterlimit:3;stroke-dasharray:none;stroke-opacity:1" />
    <rect
       style="opacity:1;fill:#ffffff;fill-opacity:1;stroke:#000000;stroke-width:2;stroke-linecap:butt;stroke-linejoin:round;stroke-miterlimit:3;stroke-dasharray:none;stroke-opacity:1"
       id="rect4197"
       width="48"
       height="48"
       x="274.48782"
       y="223.93135" />
    <rect
       y="251.80487"
       x="25.512186"
       height="48"
       width="48"
       id="rect4201"
       style="opacity:1;fill:#ffffff;fill-opacity:1;stroke:#000000;stroke-width:2;stroke-linecap:butt;stroke-linejoin:round;stroke-miterlimit:3;stroke-dasharray:none;stroke-opacity:1" />
    <rect
       style="opacity:1;fill:#ffffff;fill-opacity:1;stroke:#000000;stroke-width:2;stroke-linecap:butt;stroke-linejoin:round;stroke-miterlimit:3;stroke-dasharray:none;stroke-opacity:1"
       id="rect4203"
       width="48"
       height="48"
       x="83.756096"
       y="279.67841" />
    <rect
       y="251.80487"
       x="142"
       height="48"
       width="48"
       id="rect4205"
       style="opacity:1;fill:#ffffff;fill-opacity:1;stroke:#000000;stroke-width:2;stroke-linecap:butt;stroke-linejoin:round;stroke-miterlimit:3;stroke-dasharray:none;stroke-opacity:1" />
    <rect
       style="opacity:1;fill:#ffffff;fill-opacity:1;stroke:#000000;stroke-width:2;stroke-linecap:butt;stroke-linejoin:round;stroke-miterlimit:3;stroke-dasharray:none;stroke-opacity:1"
       id="rect4207"
       width="48"
       height="48"
       x="216.2439"
       y="279.67841" />
    <rect
       y="279.67841"
       x="274.48782"
       height="48"
       width="48"
       id="rect4209"
       style="opacity:1;fill:#ffffff;fill-opacity:1;stroke:#000000;stroke-width:2;stroke-linecap:butt;stroke-linejoin:round;stroke-miterlimit:3;stroke-dasharray:none;stroke-opacity:1" />
    <g
       style="font-style:normal;font-variant:normal;font-weight:normal;font-stretch:normal;font-size:96px;font-family:Arial;-inkscape-font-specification:Arial;text-align:center;text-anchor:middle;opacity:1;fill:#ffffff;fill-opacity:1;stroke:none;stroke-width:2;stroke-linecap:butt;stroke-linejoin:round;stroke-miterlimit:3;stroke-dasharray:none;stroke-opacity:1"
       id="text4211">
      <path
         d="m 58.089417,122.91599 -8.4375,0 0,-53.765622 q -3.046875,2.90625 -8.015625,5.8125 -4.921875,2.90625 -8.859375,4.359375 l 0,-8.15625 q 7.078125,-3.328125 12.375,-8.0625 5.296875,-4.734375 7.5,-9.1875 l 5.4375,0 0,68.999997 z"
         style=""
         id="path4255" />
      <path
         d="m 81.011292,107.02537 8.109375,-0.75 q 1.03125,5.71875 3.9375,8.29687 2.90625,2.57813 7.453123,2.57813 3.89063,0 6.79688,-1.78125 2.95312,-1.78125 4.82812,-4.73438 1.875,-3 3.14063,-8.0625 1.26562,-5.062497 1.26562,-10.312497 0,-0.5625 -0.0469,-1.6875 -2.53125,4.03125 -6.9375,6.5625 -4.35938,2.484375 -9.46875,2.484375 -8.531253,0 -14.437503,-6.1875 -5.90625,-6.1875 -5.90625,-16.3125 0,-10.453125 6.140625,-16.828125 6.1875,-6.375 15.468748,-6.375 6.70313,0 12.23438,3.609375 5.57812,3.609375 8.4375,10.3125 2.90625,6.65625 2.90625,19.3125 0,13.171872 -2.85938,21.000002 -2.85937,7.78125 -8.53125,11.85937 -5.625,4.07813 -13.21875,4.07813 -8.062498,0 -13.171873,-4.45313 -5.109375,-4.5 -6.140625,-12.60937 z M 115.55817,76.697243 q 0,-7.265625 -3.89063,-11.53125 -3.84375,-4.265625 -9.28125,-4.265625 -5.624998,0 -9.796873,4.59375 -4.171875,4.59375 -4.171875,11.90625 0,6.5625 3.9375,10.6875 3.984375,4.078125 9.796878,4.078125 5.85937,0 9.60937,-4.078125 3.79688,-4.125 3.79688,-11.390625 z"
         style=""
         id="path4257" />
      <path
         d="m 137.87067,76.744118 0,-9.609375 9.60937,0 0,9.609375 z m 0,40.171872 0,-9.60937 9.60937,0 0,9.60937 z"
         id="path4259"
         inkscape:connector-curvature="0"
         sodipodi:nodetypes="cccccccccc" />
      <path
         d="m 186.85504,122.91599 0,-16.45312 -29.8125,0 0,-7.734377 31.35938,-44.53125 6.89062,0 0,44.53125 9.28125,0 0,7.734377 -9.28125,0 0,16.45312 -8.4375,0 z m 0,-24.187497 0,-30.984375 -21.51562,30.984375 21.51562,0 z"
         style=""
         id="path4261" />
      <path
         d="m 213.80817,63.197243 0,-8.109375 44.48437,0 0,6.5625 q -6.5625,6.984375 -13.03125,18.5625 -6.42187,11.578125 -9.9375,23.812502 -2.53125,8.625 -3.23437,18.89062 l -8.67188,0 q 0.14063,-8.10937 3.1875,-19.59375 3.04688,-11.484372 8.71875,-22.124997 5.71875,-10.6875 12.14063,-18 l -33.65625,0 z"
         style=""
         id="path4263" />
    </g>
    <g
       style="font-style:normal;font-variant:normal;font-weight:normal;font-stretch:normal;font-size:34.68421555px;font-family:Arial;-inkscape-font-specification:Arial;text-align:center;text-anchor:middle;opacity:1;fill:#000000;fill-opacity:1;stroke:none;stroke-width:2;stroke-linecap:butt;stroke-linejoin:round;stroke-miterlimit:3;stroke-dasharray:none;stroke-opacity:1"
       id="text4215">
      <path
         d="m 154.76479,289.08242 0,-26.5551 26.47042,13.27755 -26.47042,13.27755 z"
         style=""
         id="path4275" />
    </g>
    <g
       transform="scale(-1,1)"
       style="font-style:normal;font-variant:normal;font-weight:normal;font-stretch:normal;font-size:34.68421555px;font-family:Arial;-inkscape-font-specification:Arial;text-align:center;text-anchor:middle;opacity:1;fill:#000000;fill-opacity:1;stroke:none;stroke-width:2;stroke-linecap:butt;stroke-linejoin:round;stroke-miterlimit:3;stroke-dasharray:none;stroke-opacity:1"
       id="text4219">
      <path
         d="m -60.747395,289.08242 0,-26.5551 26.470424,13.27755 -26.470424,13.27755 z"
         style=""
         id="path4281" />
    </g>
    <g
       transform="matrix(0,-1,-1,0,0,0)"
       style="font-style:normal;font-variant:normal;font-weight:normal;font-stretch:normal;font-size:34.68421555px;font-family:Arial;-inkscape-font-specification:Arial;text-align:center;text-anchor:middle;opacity:1;fill:#000000;fill-opacity:1;stroke:none;stroke-width:2;stroke-linecap:butt;stroke-linejoin:round;stroke-miterlimit:3;stroke-dasharray:none;stroke-opacity:1"
       id="text4223">
      <path
         d="m -259.16656,-94.478546 0,-26.555104 26.47042,13.27755 -26.47042,13.277554 z"
         style=""
         id="path4272" />
    </g>
    <g
       transform="matrix(0,1,-1,0,0,0)"
       style="font-style:normal;font-variant:normal;font-weight:normal;font-stretch:normal;font-size:34.68421555px;font-family:Arial;-inkscape-font-specification:Arial;text-align:center;text-anchor:middle;opacity:1;fill:#000000;fill-opacity:1;stroke:none;stroke-width:2;stroke-linecap:butt;stroke-linejoin:round;stroke-miterlimit:3;stroke-dasharray:none;stroke-opacity:1"
       id="text4227">
      <path
         d="m 292.44318,-94.478546 0,-26.555104 26.47042,13.27755 -26.47042,13.277554 z"
         style=""
         id="path4278" />
    </g>
    <g
       style="font-style:normal;font-variant:normal;font-weight:normal;font-stretch:normal;font-size:36px;font-family:Arial;-inkscape-font-specification:Arial;text-align:center;text-anchor:middle;opacity:1;fill:#000000;fill-opacity:1;stroke:none;stroke-width:2;stroke-linecap:butt;stroke-linejoin:round;stroke-miterlimit:3;stroke-dasharray:none;stroke-opacity:1"
       id="text4231">
      <path
         d="m 286.35925,316.56317 9.89649,-25.76953 3.67383,0 10.54687,25.76953 -3.88477,0 -3.00585,-7.80469 -10.7754,0 -2.83007,7.80469 -3.6211,0 z m 7.43555,-10.58203 8.73633,0 -2.68946,-7.13672 q -1.23046,-3.25195 -1.82812,-5.34375 -0.49219,2.47852 -1.38867,4.92188 l -2.83008,7.55859 z"
         style=""
         id="path4266" />
    </g>
    <g
       style="font-style:normal;font-variant:normal;font-weight:normal;font-stretch:normal;font-size:36px;font-family:Arial;-inkscape-font-specification:Arial;text-align:center;text-anchor:middle;opacity:1;fill:#000000;fill-opacity:1;stroke:none;stroke-width:2;stroke-linecap:butt;stroke-linejoin:round;stroke-miterlimit:3;stroke-dasharray:none;stroke-opacity:1"
       id="text4235">
      <path
         d="m 230.78674,316.56317 0,-25.76953 9.66797,0 q 2.95313,0 4.72852,0.79102 1.79297,0.77343 2.79492,2.4082 1.01953,1.61719 1.01953,3.39258 0,1.65234 -0.89648,3.11133 -0.89649,1.45898 -2.70703,2.35546 2.33789,0.68555 3.58593,2.33789 1.26563,1.65235 1.26563,3.90235 0,1.81055 -0.77344,3.375 -0.75586,1.54687 -1.88086,2.39062 -1.125,0.84375 -2.83008,1.28321 -1.6875,0.42187 -4.14843,0.42187 l -9.82618,0 z m 3.41016,-14.9414 5.57227,0 q 2.26757,0 3.25195,-0.29883 1.30078,-0.38672 1.95117,-1.28321 0.66797,-0.89648 0.66797,-2.25 0,-1.2832 -0.61524,-2.25 -0.61523,-0.98437 -1.75781,-1.33593 -1.14258,-0.36914 -3.91992,-0.36914 l -5.15039,0 0,7.78711 z m 0,11.90039 6.41602,0 q 1.65234,0 2.32031,-0.12305 1.17773,-0.21094 1.96875,-0.70313 0.79101,-0.49218 1.30078,-1.42382 0.50976,-0.94922 0.50976,-2.17969 0,-1.44141 -0.73828,-2.4961 -0.73828,-1.07226 -2.05664,-1.49414 -1.30078,-0.43945 -3.76172,-0.43945 l -5.95898,0 0,8.85938 z"
         style=""
         id="path4269" />
    </g>
    <path
       style="font-style:normal;font-variant:normal;font-weight:normal;font-stretch:normal;font-size:36px;font-family:Arial;-inkscape-font-specification:Arial;text-align:center;text-anchor:middle;opacity:1;fill:#000000;fill-opacity:1;stroke:none;stroke-width:2;stroke-linecap:butt;stroke-linejoin:round;stroke-miterlimit:3;stroke-dasharray:none;stroke-opacity:1"
       d="M 305.82422 238.64844 L 305.82422 248.42188 L 291.88477 248.42188 L 295.98047 244.32617 L 293.87109 242.2168 L 286.96289 249.125 L 286.96289 250.70703 L 293.87109 257.61523 L 295.98047 255.50586 L 291.88477 251.41016 L 308.8125 251.41016 L 308.8125 238.64844 L 305.82422 238.64844 z "
       id="text4239" />
    <path
       style="font-style:normal;font-variant:normal;font-weight:normal;font-stretch:normal;font-size:36px;font-family:Arial;-inkscape-font-specification:Arial;text-align:center;text-anchor:middle;opacity:1;fill:#000000;fill-opacity:1;stroke:none;stroke-width:2;stroke-linecap:butt;stroke-linejoin:round;stroke-miterlimit:3;stroke-dasharray:none;stroke-opacity:1"
       d="m 237.72241,240.23214 -6.91015,6.9082 0,1.58203 6.91015,6.9082 2.10938,-2.10937 -4.09766,-4.0957 13.94141,0 0,-2.98828 -13.94141,0 4.09766,-4.09571 -2.10938,-2.10937 z"
       id="text4243"
       inkscape:connector-curvature="0" />
    <path
       style="font-style:normal;font-variant:normal;font-weight:800;font-stretch:normal;font-size:36px;font-family:'FOT-Rowdy Std';-inkscape-font-specification:'FOT-Rowdy Std Ultra-Bold';text-align:center;text-anchor:middle;opacity:1;fill:#ffffff;fill-opacity:1;stroke:none;stroke-width:2;stroke-linecap:butt;stroke-linejoin:round;stroke-miterlimit:3;stroke-dasharray:none;stroke-opacity:1"
       d="M 46.759766 171.24805 L 38.083984 185.82812 L 44.384766 183.70312 L 44.384766 203.61133 L 49.099609 203.61133 L 49.099609 183.70312 L 55.472656 185.75586 L 46.759766 171.24805 z M 82.759766 171.24805 L 74.083984 185.82812 L 80.384766 183.70312 L 80.384766 203.61133 L 85.099609 203.61133 L 85.099609 183.70312 L 91.472656 185.75586 L 82.759766 171.24805 z M 116.38477 171.24805 L 116.38477 191.19141 L 110.08398 189.03125 L 118.75977 203.61133 L 127.47266 189.14062 L 121.09961 191.22852 L 121.09961 171.24805 L 116.38477 171.24805 z M 152.38477 171.24805 L 152.38477 191.19141 L 146.08398 189.03125 L 154.75977 203.61133 L 163.47266 189.14062 L 157.09961 191.22852 L 157.09961 171.24805 L 152.38477 171.24805 z M 189.10352 178.77148 L 174.52344 187.44727 L 189.06836 196.16016 L 186.94336 189.78711 L 206.96094 189.78711 L 206.96094 185.07227 L 187.01562 185.07227 L 189.10352 178.77148 z M 228.41602 178.77148 L 230.53906 185.07227 L 210.56055 185.07227 L 210.56055 189.78711 L 230.53906 189.78711 L 228.48828 196.16016 L 242.99609 187.44727 L 228.41602 178.77148 z M 261.10352 178.77148 L 246.52344 187.44727 L 261.06836 196.16016 L 258.94336 189.78711 L 278.96094 189.78711 L 278.96094 185.07227 L 259.01562 185.07227 L 261.10352 178.77148 z M 300.41602 178.77148 L 302.53906 185.07227 L 282.56055 185.07227 L 282.56055 189.78711 L 302.53906 189.78711 L 300.48828 196.16016 L 314.99609 187.44727 L 300.41602 178.77148 z "
       id="text4249" />
  </g>
</svg>
