<svg xmlns="http://www.w3.org/2000/svg" viewBox="0 0 348 348" fill="none"><path d="M5.079 5.776h336.913v337.67H5.08z" stroke-width="2" stroke="#000"/><path d="M282.734 40.554c0-8.376 6.966-15.165 15.56-15.165 4.126 0 8.084 1.597 11.001 4.441 2.918 2.844 4.558 6.702 4.558 10.724 0 8.376-6.966 15.165-15.56 15.165-8.593 0-15.559-6.79-15.559-15.165z" stroke-width="2" stroke="#000"/><path fill="#fff" stroke="#000" d="M18.112 16.818h219.926v52.394H18.112z"/><path fill="#fff" stroke="#000" stroke-width="1.127" d="M18.175 75.275H298.13v52.267H18.175z"/><path fill="#fff" stroke="#000" d="M17.332 147.508h58.31v58.31h-58.31zM81.355 147.508h58.31v58.31h-58.31zM145.378 147.508h58.31v58.31h-58.31zM209.402 147.508h58.31v58.31h-58.31zM273.425 147.508h58.31v58.31h-58.31zM17.332 211.818h58.31v58.31h-58.31zM81.355 211.818h58.31v58.31h-58.31zM145.378 211.818h58.31v58.31h-58.31zM209.402 211.818h58.31v58.31h-58.31zM273.425 211.818h58.31v58.31h-58.31z"/><circle cx="27.275" cy="309.076" r="10.42" fill="#fff" stroke="#000" stroke-width="1.193"/><circle cx="59.306" cy="309.075" r="10.42" fill="#fff" stroke="#000" stroke-width="1.193"/><circle cx="92.688" cy="309.075" r="10.42" fill="#fff" stroke="#000" stroke-width="1.193"/><circle cx="124.72" cy="309.075" r="10.42" fill="#fff" stroke="#000" stroke-width="1.193"/><circle cx="157.234" cy="309.075" r="10.42" fill="#fff" stroke="#000" stroke-width="1.193"/><circle cx="189.265" cy="309.075" r="10.42" fill="#fff" stroke="#000" stroke-width="1.193"/><circle cx="222.647" cy="309.075" r="10.42" fill="#fff" stroke="#000" stroke-width="1.193"/><circle cx="254.679" cy="309.075" r="10.42" fill="#fff" stroke="#000" stroke-width="1.193"/><circle cx="288.736" cy="309.075" r="10.42" fill="#fff" stroke="#000" stroke-width="1.193"/><circle cx="320.768" cy="309.075" r="10.42" fill="#fff" stroke="#000" stroke-width="1.193"/></svg>