<svg xmlns="http://www.w3.org/2000/svg" viewBox="0 0 348 348" fill="none"><path d="M5.079 5.776h336.913v337.67H5.08z" stroke-width="2" stroke="#000"/><path d="M294.522 34.66c0-8.376 6.966-15.165 15.56-15.165 4.126 0 8.084 1.597 11 4.441 2.919 2.844 4.559 6.702 4.559 10.724 0 8.376-6.966 15.165-15.56 15.165-8.593 0-15.56-6.79-15.56-15.165z" stroke="#000" stroke-width="2"/><path d="M-165.665-157.329h378.216v440.731h-378.216z"/><rect width="163.558" height="54.519" x="92.093" y="104.137" ry="0" fill="#fff" stroke="#000"/><rect width="33.89" height="33.89" x="44.205" y="177.812" ry="0" fill="#fff" stroke="#000"/><rect width="33.89" height="33.89" x="89.146" y="178.548" ry="0" fill="#fff" stroke="#000"/><rect width="33.89" height="33.89" x="135.193" y="177.443" ry="0" fill="#fff" stroke="#000"/><rect width="33.89" height="33.89" x="180.134" y="178.18" ry="0" fill="#fff" stroke="#000"/><rect width="33.89" height="33.89" x="225.076" y="178.18" ry="0" fill="#fff" stroke="#000"/><rect width="33.89" height="33.89" x="270.017" y="178.917" ry="0" fill="#fff" stroke="#000"/></svg>