<svg xmlns="http://www.w3.org/2000/svg" viewBox="0 0 348 348" fill="none"><path d="M5.079 5.776h336.913v337.67H5.08z" stroke-width="2" stroke="#000"/><path d="M282.734 40.554c0-8.376 6.966-15.165 15.56-15.165 4.126 0 8.084 1.597 11.001 4.441 2.918 2.844 4.558 6.702 4.558 10.724 0 8.376-6.966 15.165-15.56 15.165-8.593 0-15.559-6.79-15.559-15.165z" stroke-width="2" stroke="#000"/><circle cx="115" cy="128" r="74.509" fill="#fff" stroke="#000" stroke-width=".983"/><circle cx="115" cy="128" fill="#fff" stroke="#000" stroke-width=".842" r="49.579"/><circle cx="115" cy="128" fill="#fff" stroke="#000" stroke-width=".77" r="24.615"/><circle cx="62.5" cy="285.5" fill="#fff" stroke="#000" stroke-width=".946" r="12.027"/><circle cx="62.5" cy="285.5" r="4.569" fill="#fff" stroke="#000" stroke-width=".863"/><circle cy="285.5" cx="92.5" fill="#fff" stroke="#000" stroke-width=".946" r="12.027"/><circle r="4.569" cy="285.5" cx="92.5" fill="#fff" stroke="#000" stroke-width=".863"/><circle cy="285.5" cx="122.5" fill="#fff" stroke="#000" stroke-width=".946" r="12.027"/><circle r="4.569" cy="285.5" cx="122.5" fill="#fff" stroke="#000" stroke-width=".863"/><circle cx="152.5" cy="285.5" fill="#fff" stroke="#000" stroke-width=".946" r="12.027"/><circle cx="152.5" cy="285.5" r="4.569" fill="#fff" stroke="#000" stroke-width=".863"/><circle cy="255.5" cx="62.5" fill="#fff" stroke="#000" stroke-width=".946" r="12.027"/><circle r="4.569" cy="255.5" cx="62.5" fill="#fff" stroke="#000" stroke-width=".863"/><circle cx="92.5" cy="255.5" fill="#fff" stroke="#000" stroke-width=".946" r="12.027"/><circle cx="92.5" cy="255.5" r="4.569" fill="#fff" stroke="#000" stroke-width=".863"/><circle cx="122.5" cy="255.5" fill="#fff" stroke="#000" stroke-width=".946" r="12.027"/><circle cx="122.5" cy="255.5" r="4.569" fill="#fff" stroke="#000" stroke-width=".863"/><circle cy="255.5" cx="152.5" fill="#fff" stroke="#000" stroke-width=".946" r="12.027"/><circle r="4.569" cy="255.5" cx="152.5" fill="#fff" stroke="#000" stroke-width=".863"/><path fill="#fff" stroke="#000" stroke-width=".946" d="M250.473 238.473h9.054v59.054h-9.054zM220.473 238.473h9.054v59.054h-9.054zM280.473 238.473h9.054v59.054h-9.054z"/><path fill="#fff" stroke="#000" stroke-width=".734" d="M210.367 238.367h29.266v19.266h-29.266zM240.367 278.367h29.266v19.266h-29.266zM270.367 258.367h29.266v19.266h-29.266z"/><path fill="#fff" stroke="#000" stroke-width="1.01" d="M227.282 153.012l66.64-17.856 8.796 32.832-66.639 17.856z"/></svg>