<svg xmlns="http://www.w3.org/2000/svg" fill="none" viewBox="0 0 348 348"><path stroke="#000" stroke-width="2" d="M5.08 5.78h336.91v337.67H5.08z"/><circle cx="175" cy="225" r="105" fill="#ababab" stroke="#000" stroke-width="6.29" transform="translate(34.92 55.8) scale(.79474)"/><path stroke="#000" stroke-width="2" d="M282.73 40.55c0-8.37 6.97-15.16 15.56-15.16 4.13 0 8.09 1.6 11 4.44a14.97 14.97 0 014.56 10.72c0 8.38-6.96 15.17-15.56 15.17-8.59 0-15.56-6.8-15.56-15.17z"/><path fill="#cdcdcd" d="M27.5 97.5h215v30h-215z"/><path fill="#2d2d2d" d="M27.5 32.5h215v30h-215z"/><path fill="#686868" stroke="#000" d="M27.5 32.5H80l30 25V100l-35 27.5H27.5z"/><path fill="#484848" stroke="#000" d="M185 60l-25-2.5v0l22.5-18.75z"/><path fill="gray" stroke="#000" d="M182.5 38.75l7.5-6.25h5V60h-12.5z"/><path fill="#5a5a5a" stroke="#000" d="M110 100V57.5h82.5V100z"/><path fill="#9d9d9d" stroke="#000" d="M242.5 32.5v95h-50v-95z"/><path fill="#010101" d="M25 30v100h220V30zm5 5h210v90H30z"/></svg>