<svg xmlns="http://www.w3.org/2000/svg" xml:space="preserve" viewBox="0 0 348 348" fill="none" stroke="#000" paint-order="stroke fill markers"><path stroke-width="15" d="M90 274.9 45.49 73.78s-7.24-1.64-9.59-11.31c-2.35-9.68-1.72-12.3-1.72-12.3s-14.38.31-14.75-4.67c-.38-4.98 13.03-6.4 13.03-6.4s-2.02-9.5 1.96-10.07c3.99-.58 6.4 12.29 6.4 12.29l2.95 7.38s35.48-20.4 135.49-19.93c100 .47 128.35 15.5 128.35 15.5s4.6-19.36 9.84-19.19c5.24.17 3.93 9.1 3.93 9.1s11.92-1.67 11.8 5.65c-.11 7.33-13.52 5.66-13.52 5.66s2.05 19.1-.5 25.08c-2.54 5.98-9.83 9.84-9.83 9.84l-41.3 187.12s-3.6 51.23-83.61 53.11C104.4 322.52 90 274.91 90 274.91z"/><path stroke-width="6" d="M38.77 43.64s4 26.08 24.7 36.34c20.68 10.26 60.85 20 72.67 20.7 11.83.69-15.47 8.34 65.03 6.08s37.3-4.39 64.4-11.7c19.47-5.24 51.05-14.04 52.79-29.86 1.74-15.82-3.48-26.43-3.48-26.43"/><path fill="#000" stroke="none" d="M145.71 94.76h106.06v22.6H145.71z"/><path stroke-width="12" d="M35.4 55.82s-6.5 32.15 143.12 33.2c149.62 1.03 147.29-36.9 147.29-36.9"/><ellipse cx="-27.45" cy="199.93" stroke-width="6" rx="34.47" ry="50.77" transform="matrix(.63 -.78 .65 .76 0 0)"/><path fill="#fff" stroke-width="6" d="M153.62 156.57c37.4 9.76 79.33 14.75 114.92 10.61-5.18 23.42-11.75 38.66-19.73 63.72-31.1 3.5-70.28 1.06-112.15-17.73 9.95-29.22 9.83-34.04 16.96-56.6z" paint-order="fill stroke markers"/></svg>