<svg xmlns="http://www.w3.org/2000/svg" fill="none" font-family="Arial" viewBox="0 0 348 348"><path stroke="#000" stroke-width="2" d="M5 5.8h337v337.6H5z"/><path stroke="#000" stroke-width="2" d="M282.7 40.6c0-8.4 7-15.2 15.6-15.2 4.1 0 8 1.6 11 4.4a15 15 0 014.6 10.8c0 8.3-7 15.1-15.6 15.1s-15.6-6.8-15.6-15.1z"/><path fill="#fff" stroke="#000" stroke-width="1.797" d="M17.335 184.426V32.643h237.516v304.021H17.335V184.426z"/><path fill="#fff" stroke="#000" d="M59.27 103.414V80.895h41.713V126H59.27v-22.585zM165.759 103.414V80.895h41.712V126h-41.712v-22.585zM59.27 188.865v-22.518h41.713v45.104H59.27v-22.586zM165.759 188.865v-22.518h41.712v45.104h-41.712v-22.586zM59.27 272.145v-22.518h41.713v45.104H59.27v-22.586zM165.759 272.145v-22.518h41.712v45.104h-41.712v-22.586z"/><ellipse cx="296.207" cy="293.78" stroke="#000" stroke-miterlimit="10" stroke-width="2.672" rx="27.303" ry="26.188"/><path fill="#fff" stroke="#000" stroke-width=".367" d="M288.871 292.985v-8.259h15.298v16.542h-15.298v-8.283z"/></svg>