<svg xmlns="http://www.w3.org/2000/svg" fill="none" viewBox="0 0 348 348"><path stroke="#000" stroke-width="2" d="M5 5.8h337v337.6H5z"/><path stroke="#000" stroke-width="2" d="M282.7 40.6c0-8.4 7-15.2 15.6-15.2 4.1 0 8 1.6 11 4.4a15 15 0 0 1 4.6 10.8c0 8.3-7 15.1-15.6 15.1s-15.6-6.8-15.6-15.1z"/><ellipse cx="274.6" cy="-79.8" fill="red" stroke="#000" stroke-miterlimit="10" stroke-width="2" rx="18.7" ry="38.6" transform="rotate(90)"/><ellipse cx="274.6" cy="-266.3" fill="#00f" stroke="#000" stroke-miterlimit="10" stroke-width="2" rx="18.7" ry="38.6" transform="rotate(90)"/><path fill="#000" fill-rule="evenodd" stroke="#000" stroke-width=".9" d="M44.2 32.4h230.2v31.1H44.2z"/><path fill="#404045" fill-rule="evenodd" stroke="#000" stroke-width="2" d="M61.2 40.6h88.5v14H61.2z"/><ellipse cx="50.1" cy="47.9" fill="#404045" stroke="#000" stroke-width="2" rx="23.6" ry="22.9"/><path fill="#000" d="M23.3 144q1.8-1.4 4.2-1.8 2.4-.4 4.3 0l4 .9 3 .6q1.1.2 1.6-.6.6-2 1.4-.8.7.9.7 3 0 3-1.7 3.3-1.6.3-5.8-2-4.2-2.2-7.8-.8-3.6 1.3-3.6 5 0 2.3 1.6 4 1.7 1.6 8 5.4 8.6 5.3 11 10 2.4 4.7-.8 10-2.6 4.2-6.9 5.2-4.2 1-12.6-.8-2.2-.4-2.7-1-.3-.8-.3-4v-4.3l1.6 2.4q1.6 2.3 3.2 3.4 1.5 1.1 3.9 1.6 2 .4 4.8-.4 2.7-.8 3.6-2.2 1-1.5.6-4.4-.3-2.8-1.8-4.1-.7-.7-1-1.5-.5-.8-.3-1.3t-1.8-2q-2-1.4-5.3-3.3l-7.5-4.1v-6.8q0-4.6.3-6 .4-1.3 2-2.7zm24.1 16l.6-13.3h6q2.5 0 5.2.4t4 1l3.2 1.3V168l-2.7 1q-2.7 1.2-7.5 1l-4.8-.5v7.7q0 5.8.9 7.8.8 2 3.1 2 .7 0 1.2.2.5.3.5.6 0 .4-1.5.7-1.5.2-3.6.2h-5.2V181q0-7.7.6-21zm12.6-7.8q-2-2-3.7-2.4-1.6-.5-3.7.3-1.2.5-1.2 8.9v8.3h3.7q3.5 0 5.6-2.3 2-2.3 2-6.3 0-2.2-.6-3.5-.5-1.4-2.1-3zm13.7-7.5q0-.9 12.3-.9h12v4.8q0 4.5-.7 4.5t-2-3l-.7-1.2-.7-.9q-.5-.4-1-.5l-1.4-.3-2.2-.1-3.2-.3-7.7-.2v16h5.1q5.2 0 7.2-1 2.1-1.2 2.9.2.7 1.2.5 5.6l-.3 5-3.2-7H78.5v8.4q0 7.2.5 8.1.4.6 1.9 1 2.4.6 8.6 0 4.6-.4 6.7-1.6 2.1-1.2 3.1-4 .4-1 1-.5 1 .8-.8 6-1.8 5.1-2.9 5.1-.5 0-.9-.2-.4-.3-.4-.7 0-1-9.9-1-9.8 0-9.8 1 0 .4-1.1.7-1 .2-2.6.2-3.6 0-3.7-1 0-.6 2.2-1.2l2.4-.6v-18.3q0-10.4-.3-14.4-.2-4-1-4.3-3.5-1-3.6-1.5 0-.4 1.7-.6h.6q1.4-.1 2.5-.5 1-.4 1-.8zm36.7 13.7v-14.6h4.7q2 0 3.3.3 1.5.3 1.5.7 0 .4-.6.7-.5.3-1.2.3-2.3 0-3.1 2-.8 1.8-.8 7.5v7.3h18.1l-.4-9.3-.3-5.2.1-2.7q.2-1.1.5-1.3.3-.3.9-.3 1 0 1.2 1.2.6 2.1.6 20v21H132q-2.4 0-2.7-.5-.2-.7 1.4-2.7 1.3-1.8 1.3-9.1v-7.4h-17.8v8q0 4.8.3 6.6.3 1.7 1.1 2 .6.2 1 .8.4.6.4 1 0 .8-1.6 1.1-1.5.3-5.9.3-7.5 0-7.5-1t1.7-1q2 0 3-1.5 1-1.6 1-5.2 0-2.5.2-3.5.3-1 1.2-1 .9 0 1.1-2.6.2-2.7.2-12zm31.7-13.7q0-.9 12.3-.9h12.1v4.8q0 4.5-.7 4.5t-2-3l-.7-1.2-.7-.9q-.5-.4-.9-.5l-1.5-.3-2.2-.1-3.2-.3-7.7-.2v16h5.1q5.2 0 7.2-1 2.1-1.2 2.9.2.7 1.2.5 5.6l-.3 5-3.2-7h-12.2v8.4q0 7.2.5 8.1.4.6 1.9 1 2.4.6 8.6 0 4.6-.4 6.7-1.6 2.1-1.2 3.1-4 .4-1 1-.5 1 .8-.8 6-1.8 5.1-2.9 5.1-.5 0-.9-.2-.4-.3-.4-.7 0-1-9.9-1-9.8 0-9.8 1 0 .4-1.1.7-1 .2-2.6.2-3.6 0-3.7-1 0-.6 2.2-1.2l2.4-.6v-18.3q0-10.4-.3-14.4-.2-4-1-4.3-3.5-1-3.6-1.5 0-.4 1.7-.6h.6q1.4-.1 2.5-.5 1-.4 1-.8zm32.9 18.8v-20.6h2.2q1.4 0 3.6 2.4 2.8 3 16.9 21.3l4.2 5.4.2-12.4q.3-12.3-.2-13.6-.2-.4-.9-.8-.6-.4-1.4-.4-1.9 0-2.5-1-.3-.5 1.3-.7 1-.2 2.5-.2h4.2v21.9q0 18.9-.5 20-.3.7-1.1-.3l-24.1-31-.3 15v9.5q0 3.6.4 5.6.5 2 1.1 2.8.8.6 2 .6 2 0 2 1.8 0 1.4-1.2 1.7-1.1.3-6 .3-4.7 0-5.8-.3-1.2-.3-1.2-1.7 0-1.8 1.8-1.8.7 0 1.4-.4.7-.5 1-1 .5-1.6.5-22.1zm31.5 22.5v-40.2h11.1l2.4.1 1.8.3q.5.1 1.2.8.7.7.8 1.1l.3 1.8.2 2.3v4.2q0 6.6-.4 8.3-.3 1.6-1.5 2.2-1.3.6-1 1.5.3 1.2 4.4 7.2 3.2 4.6 5 6.6 2 2 4 2.7 1.4.6 2.5 1.3 1 .6 1 1 0 .3-1.6.5t-4 .2h-5.5l-6.8-9.8q-6.4-9.3-8.3-9.8-1-.2-1.5 1.5-.4 1.5-.4 5.3 0 5.3.8 7.2.9 1.9 3.1 1.9 1.7 0 1.7 1 0 .9-4.7.9h-4.6zm11.5-36.4q-1.7-.9-4-1-2.4-.2-3.1.5-.7.7-.7 8.5v7.8h3.4q2.8 0 5.2-1.8 2.3-1.8 3.2-4.3.9-2.6 0-5.3-1-2.7-4-4.4zm30.3-6.6q1.2-.5 4-.7 3-.2 6.4.1 3.4.3 6 2 2.8 1.6 3 4.5.4 2.4 2.2 2.4 1.2 0 1.5 1.2.3 1.6.3 11.4l-.1 9.2q-.2 2.3-.6 3.6-.5 1.2-1.8 2.8-3.5 4.2-9.6 5.8-6 1.7-11-.2-2.7-1-5.7-4l-3-3v-28.3l3-2.9q3-3 5.4-3.9zm12.1 3.2q-4.3-2.3-8.3-.9-4 1.4-6.5 6-2.5 4.5-2.6 12.2 0 7.6 2.4 12.5 1.7 3.5 4.4 5.3 2.7 2 5.5 2 2.9 0 5.6-1.9 2.7-1.9 4.3-5.3 1.3-2.6 1.6-5 .3-2.3 0-7.8-.2-7.5-1.8-11.4-1.5-4-4.6-5.7zm13.5 11.1l.6-13.5h6.4q6.5 0 9.3 1.5l2.7 1.5v18.5l-3.3 1q-3.3 1.2-7.5.9l-4.2-.3v7.5q0 5.9.8 7.8.9 2 3.2 2 .7 0 1.2.3.5.2.5.7 0 .3-1.6.6-1.5.3-3.6.3h-5.1v-7.8q0-7.7.6-21zm12-8.4q-3.3-3-6.8-1.5-1.2.4-1.2 8.7v8.4h3.8q2.1 0 3.3-.5 1.2-.5 2.4-2 2-2.7 1.6-6.8-.4-4-3-6.3zm14.3-4.2q0-.9 12.2-.9h12.2v4.8q0 4.5-.8 4.5-.6 0-2-3-.4-.9-.7-1.2-.1-.4-.6-.9l-1-.5-1.4-.3-2.2-.1-3.2-.3-7.8-.2v16h5.2q5.2 0 7.2-1 2.1-1.2 2.9.2.7 1.2.5 5.6l-.3 5-3.2-7h-12.3v8.4q0 7.2.6 8.1.3.6 1.8 1 2.5.6 8.7 0 4.5-.4 6.6-1.6 2.2-1.2 3.2-4 .4-1 1-.5 1 .8-.9 6-1.7 5.1-2.8 5.1l-1-.2q-.3-.3-.3-.7 0-1-9.9-1-9.8 0-9.8 1 0 .4-1.1.7-1.1.2-2.7.2-3.6 0-3.6-1-.1-.6 2.2-1.2l2.4-.6v-18.3q0-10.4-.3-14.4-.2-4-1-4.3-3.6-1-3.6-1.5-.1-.4 1.7-.6h.6q1.4-.1 2.5-.5 1-.4 1-.8z"/></svg>