<svg xmlns="http://www.w3.org/2000/svg" viewBox="0 0 358 726" fill="none"><path d="M5.08 5.776h336.91v337.67H5.08z" stroke="#000" stroke-width="2"/><path d="M282.734 40.554c0-8.376 6.966-15.165 15.56-15.165 4.126 0 8.084 1.592 11 4.44 2.92 2.84 4.56 6.7 4.56 10.72 0 8.376-6.967 15.165-15.56 15.165-8.594 0-15.56-6.79-15.56-15.166z" stroke="#000" stroke-width="2"/><g transform="matrix(140 0 0 140 155 180)"><path d="M0 0l.843-.707M0 0l1.034-.376M0 0h1.1M0 0l1.034.376M0 0l.843.707" stroke="#000" stroke-width=".1"/><circle r="1" fill="#fff" stroke="#000" stroke-width=".01"/><path d="M-.086.104L-.08.07l-.03.005.616-.53-.073.014.165-.094-.11.153.022-.073z" fill="#000"/><path d="M-.05-.092l.033.014.026-.026.1.602.044-.06-.03.15L.037.463.103.5zM.41-.55H.39v-.184H.38l.01-.083h.02zm.333.294H.637V-.27L.72-.44v-.063H.664v.06H.64v-.062c0-.005.002-.01.006-.013C.65-.522.654-.524.66-.524h.064c.006 0 .01.002.014.006.003.003.005.008.005.013v.057c0 .007-.002.015-.006.023l-.07.148h.076zm.11.38C.852.13.85.135.846.14.843.14.84.143.833.143h-.07c-.003 0-.01 0-.01-.003C.747.134.745.13.745.124V.057H.77v.066h.058V.04L.78.007V0l.05-.035v-.068H.77v.06H.747v-.062c0-.005 0-.01.005-.013.004-.004.01-.006.015-.006h.068c.005 0 .01.002.013.006.004.003.006.008.006.013v.065c0 .01-.004.016-.01.02L.81.003l.032.022c.007.005.01.012.01.02zM.75.475H.73v.07H.706v-.07H.63V.462L.697.276H.72L.66.454h.05V.357h.02v.097h.02zm-.3.344C.45.823.448.828.445.83.44.836.437.838.43.838H.366C.36.838.356.835.352.83.348.83.347.824.347.82V.75H.37v.066h.056V.69h-.08L.35.57h.098v.02H.374L.37.67h.06c.007 0 .01 0 .015.004C.448.677.45.682.45.688zm-.4.107C.05.93.05.935.047.94L.032.943h-.068c-.006 0-.01 0-.014-.003C-.053.934-.055.93-.055.924v-.23c0-.005.002-.01.005-.013.004-.003.008-.005.014-.005H.03c.007 0 .012.002.015.006C.05.686.05.69.05.696v.06H.026v-.06H-.03v.1h.06c.006 0 .01 0 .014.006C.05.806.05.81.05.816zM.028.923V.817H-.03v.106zM-.347.58l-.057.257h-.024L-.372.59H-.43v.04h-.023V.57h.106v.01zM-.64.525c0 .005-.003.01-.007.014-.003 0-.008.003-.013.003h-.07c-.008 0-.01 0-.016-.003C-.748.534-.75.53-.75.524V.438c0-.008.003-.014.01-.017l.025-.015L-.74.388C-.746.384-.75.378-.75.37V.296c0-.005.003-.01.006-.013C-.74.278-.736.276-.73.276h.07c.005 0 .01.002.013.006.003.003.005.008.005.013V.37c0 .01-.003.014-.01.018l-.024.016.026.017c.006.006.01.01.01.02zm-.026-.15v-.08h-.06v.078l.03.02zm0 .148v-.09l-.03-.02-.03.02v.09zM-.75.125c0 .005-.002.01-.005.014-.005 0-.008.003-.015.003h-.066c-.004 0-.01 0-.014-.003C-.853.134-.855.13-.855.124v-.06h.024v.058h.055v-.1h-.063c-.006 0-.01 0-.014-.004C-.855.014-.857.01-.857.004v-.11c0-.005.002-.01.005-.013.003-.003.007-.005.013-.005h.07c.006 0 .01.002.014.006.003.004.005.01.005.014zM-.774.003v-.106h-.058v.106zm.014-.26h-.024V-.44h-.01l.015-.082h.02zm.156-.02c0 .007-.002.01-.005.016-.002 0-.007.003-.012.003h-.07c-.007 0-.01-.002-.015-.005-.003-.005-.005-.01-.005-.015v-.23c0-.005.002-.01.005-.013.004-.004.008-.006.014-.006h.07c.006 0 .01.002.015.006.004.003.006.008.006.013zm-.024 0v-.226h-.06v.226zm.203-.273H-.45v-.184h-.01l.016-.082h.02zm.073 0h-.024v-.184h-.01l.015-.082h.017zm.292-.106h-.023v-.186h-.01l.015-.082h.02zm.147 0H-.02V-.67l.083-.17v-.063H.008v.06h-.024v-.062c0-.005.002-.01.006-.013.003-.004.008-.006.013-.006h.065c.005 0 .01.002.014.006.003.003.005.008.005.013v.057c0 .007-.002.015-.007.023l-.07.148h.077z" fill="#000"/></g><path d="M270 86h80v590H250" stroke="gray" stroke-width="5"/><path d="M270 276v120h-20" stroke="gray" stroke-width="5"/><path d="M290 226v240h-40" stroke="gray" stroke-width="5"/><text style="text-align:end;line-height:80%;-inkscape-font-specification:Special Elite" x="240" y="406" font-size="36" letter-spacing="0" word-spacing="0" text-anchor="end" fill="#000" font-family="Special Elite"><tspan x="240" y="406">hours</tspan> <tspan x="240" y="434.8">forward</tspan></text><text style="text-align:end;line-height:80%;-inkscape-font-specification:Special Elite" x="240" y="476" font-size="36" letter-spacing="0" word-spacing="0" text-anchor="end" fill="#000" font-family="Special Elite"><tspan x="240" y="476">minutes</tspan> <tspan x="240" y="504.8">forward</tspan></text><path d="M300 176h10v360h-60" stroke="gray" stroke-width="5"/><path d="M290 126h40v480h-80" stroke="gray" stroke-width="5"/><text style="text-align:end;line-height:80%;-inkscape-font-specification:Special Elite" x="240" y="616" font-size="36" letter-spacing="0" word-spacing="0" text-anchor="end" fill="#000" font-family="Special Elite"><tspan x="240" y="616">minutes</tspan> <tspan x="240" y="644.8">backward</tspan></text><text style="text-align:end;line-height:80%;-inkscape-font-specification:Special Elite" x="240" y="686" font-size="36" letter-spacing="0" word-spacing="0" text-anchor="end" fill="#000" font-family="Special Elite"><tspan x="240" y="686">hours</tspan> <tspan x="240" y="714.8">backward</tspan></text><text style="text-align:end;line-height:80%;-inkscape-font-specification:Special Elite" x="240" y="546" font-size="36" letter-spacing="0" word-spacing="0" text-anchor="end" fill="#000" font-family="Special Elite"><tspan x="240" y="546">submit</tspan> <tspan x="300" y="574.8">(hold for reset)</tspan></text></svg>