<svg xmlns="http://www.w3.org/2000/svg" fill="none" viewBox="0 0 348 348"><path stroke="#000" stroke-width="2" d="M5 5.8h337v337.6H5z"/><path stroke="#000" stroke-width="2" d="M282.7 40.6c0-8.4 7-15.2 15.6-15.2 4.1 0 8 1.6 11 4.4a15 15 0 0 1 4.6 10.8c0 8.3-7 15.1-15.6 15.1s-15.6-6.8-15.6-15.1z"/><path fill="#000" d="M18.57 52.27V29.54h244.6v45.52H18.57v-22.8z"/><path fill="#fff" d="M84.95 53.65v-2.46l14.22-6v2.61L87.9 52.43l11.28 4.67v2.63zm18.19 9.39V41.56h7.4c1.67 0 2.94.1 3.82.31 1.23.28 2.28.8 3.15 1.54a8.74 8.74 0 0 1 2.54 3.67c.57 1.49.85 3.19.85 5.1a15 15 0 0 1-.57 4.34c-.39 1.26-.87 2.3-1.47 3.13a7.78 7.78 0 0 1-1.95 1.94c-.71.48-1.57.84-2.57 1.08-1 .25-2.15.37-3.45.37zm2.84-2.54h4.59c1.42 0 2.53-.13 3.33-.4.8-.26 1.45-.63 1.93-1.1a6.77 6.77 0 0 0 1.57-2.72c.38-1.14.57-2.52.57-4.14 0-2.25-.37-3.97-1.1-5.18a5.57 5.57 0 0 0-2.7-2.42c-.76-.3-1.98-.44-3.67-.44h-4.52zm18.9 2.54V41.56h15.53v2.54h-12.69v6.57h11.88v2.52h-11.88v7.31h13.19v2.54zm19.98 0V41.56h8.1c1.43 0 2.52.07 3.27.2a5.35 5.35 0 0 1 4.37 3.08c.44.9.65 1.87.65 2.93a6.6 6.6 0 0 1-1.74 4.64c-1.16 1.26-3.26 1.9-6.3 1.9h-5.5v8.73zm2.84-11.27h5.56c1.83 0 3.13-.34 3.9-1.02a3.65 3.65 0 0 0 1.16-2.89c0-.9-.22-1.67-.68-2.3a3.18 3.18 0 0 0-1.8-1.27 11.6 11.6 0 0 0-2.64-.2h-5.5zm22.66 11.27V44.1h-7.07v-2.54h17.02v2.54h-7.1v18.94zm26.43-9.39l-14.22 6.08V57.1l11.26-4.67-11.26-4.63v-2.62l14.22 6z"/><path fill="#000" d="M17.53 126.75v-22.73h294.65v45.52H17.53v-22.8zM18.57 308v-22.73h244.6v45.52H18.57v-22.8z"/><path fill="#fff" d="M84.95 309.38v-2.46l14.22-6v2.61l-11.28 4.63 11.28 4.67v2.63zm18.19 9.39v-21.48h7.4c1.67 0 2.94.1 3.82.31 1.23.28 2.28.8 3.15 1.54a8.74 8.74 0 0 1 2.54 3.67c.57 1.49.85 3.19.85 5.1a15 15 0 0 1-.57 4.34c-.39 1.26-.87 2.3-1.47 3.13a7.78 7.78 0 0 1-1.95 1.94c-.71.48-1.57.84-2.57 1.08-1 .25-2.15.37-3.45.37zm2.84-2.54h4.59c1.42 0 2.53-.13 3.33-.4.8-.26 1.45-.63 1.93-1.1a6.77 6.77 0 0 0 1.57-2.72c.38-1.14.57-2.52.57-4.14 0-2.25-.37-3.97-1.1-5.18a5.57 5.57 0 0 0-2.7-2.42c-.76-.3-1.98-.44-3.67-.44h-4.52zm18.9 2.54v-21.48h15.53v2.54h-12.69v6.57h11.88v2.52h-11.88v7.31h13.19v2.54zm19.02-6.9l2.68-.24c.12 1.08.42 1.96.88 2.65a4.84 4.84 0 0 0 2.16 1.67 8.3 8.3 0 0 0 3.3.63 7.9 7.9 0 0 0 2.87-.48 3.98 3.98 0 0 0 1.85-1.32c.4-.57.61-1.18.61-1.84 0-.68-.2-1.26-.59-1.77a4.41 4.41 0 0 0-1.93-1.27 37.8 37.8 0 0 0-3.82-1.04 19.53 19.53 0 0 1-4.15-1.34 5.81 5.81 0 0 1-2.29-2 4.9 4.9 0 0 1-.75-2.68c0-1.08.3-2.1.92-3.04a5.71 5.71 0 0 1 2.7-2.14c1.18-.49 2.49-.73 3.93-.73 1.6 0 3 .25 4.22.77a6.07 6.07 0 0 1 2.8 2.26c.65 1 1 2.12 1.06 3.38l-2.73.2a4.4 4.4 0 0 0-1.49-3.07c-.84-.7-2.09-1.04-3.74-1.04-1.72 0-2.97.32-3.76.95a2.83 2.83 0 0 0-1.18 2.27c0 .78.28 1.41.84 1.9.55.5 1.97 1.02 4.28 1.54 2.31.52 3.9.98 4.76 1.37a6.51 6.51 0 0 1 2.77 2.19c.6.88.89 1.9.89 3.05s-.33 2.22-.98 3.23a6.46 6.46 0 0 1-2.82 2.36c-1.23.56-2.6.84-4.14.84-1.94 0-3.57-.28-4.89-.85a6.84 6.84 0 0 1-3.09-2.55 7.25 7.25 0 0 1-1.18-3.86zm26.46 6.9v-18.94h-7.07v-2.54h17.02v2.54h-7.1v18.94zm26.43-9.39l-14.22 6.08v-2.63l11.26-4.67-11.26-4.63v-2.62l14.22 6z"/><path fill="#000" d="M17.53 182.75v-22.73h294.65v45.52H17.53v-22.8zm0 56v-22.73h294.65v45.52H17.53v-22.8z"/><circle cx="297.16" cy="307.34" r="25.66" stroke="#000" stroke-width="3.73"/></svg>