<svg xmlns="http://www.w3.org/2000/svg" fill="none" viewBox="0 0 348 348"><path stroke="#000" stroke-width="2" d="M5.08 5.78h336.91v337.67H5.08z"/><path fill="#000" stroke="#646464" stroke-width="5" d="M27.5 28.5h215v100h-215z"/><path stroke="#000" stroke-width="2" d="M282.73 40.55c0-8.37 6.97-15.16 15.56-15.16 4.13 0 8.09 1.6 11 4.44a14.97 14.97 0 014.56 10.72c0 8.38-6.96 15.17-15.56 15.17-8.59 0-15.56-6.8-15.56-15.17z"/><path fill="#dcdcdc" stroke="#000" stroke-width="2.12" d="M128 140h45v90h-45zm45 0h45v90h-45zm60 100h45v90h-45zm45 0h45v90h-45zm-255 0h45v90H23zm45 0h45v90H68zm60 0h45v90h-45zm45 0h45v90h-45zM23 140h45v90H23zm45 0h45v90H68zm165 0h45v90h-45zm45 0h45v90h-45z"/><circle cx="173" cy="185" r="33.98" fill="#fff" stroke="#282828" stroke-width="4"/><path fill="#fff" d="M94.88 100.75l21.13-28.17q1.83-2.41 2.83-5 1.04-2.62 1.04-4.87v-.08q0-3.63-2.12-5.63-2.13-2-6.05-2-3.7 0-6 2.2-2.29 2.18-2.79 6.18v.04h-8.79v-.04q.75-5.21 3.04-8.88 2.34-3.7 6-5.62 3.67-1.96 8.46-1.96 5.42 0 9.25 1.87 3.83 1.84 5.83 5.38t2 8.54v.04q0 3.2-1.33 6.7t-3.7 6.76l-17.55 23.83h22.92v8.09H94.88zm62.29 8q-8.5 0-12.91-4.54-4.38-4.54-4.38-12.67V64q0-8.17 4.42-12.67 4.41-4.54 12.87-4.54 8.5 0 12.88 4.5 4.41 4.5 4.41 12.71v27.54q0 8.17-4.41 12.71-4.42 4.5-12.88 4.5zm0-8.08q4.5 0 6.63-2.34 2.16-2.37 2.16-6.79V64q0-4.42-2.12-6.75-2.13-2.37-6.67-2.37t-6.66 2.37q-2.13 2.33-2.13 6.75v27.54q0 4.42 2.13 6.8 2.16 2.33 6.66 2.33z"/></svg>