<?xml version="1.0" encoding="UTF-8" standalone="no"?>
<svg
   xmlns:dc="http://purl.org/dc/elements/1.1/"
   xmlns:cc="http://creativecommons.org/ns#"
   xmlns:rdf="http://www.w3.org/1999/02/22-rdf-syntax-ns#"
   xmlns:svg="http://www.w3.org/2000/svg"
   xmlns="http://www.w3.org/2000/svg"
   xmlns:sodipodi="http://sodipodi.sourceforge.net/DTD/sodipodi-0.dtd"
   xmlns:inkscape="http://www.inkscape.org/namespaces/inkscape"
   viewBox="0 0 348 348"
   fill="none"
   font-family="Arial"
   id="svg2"
   version="1.1"
   inkscape:version="0.91 r13725"
   sodipodi:docname="The Jewelled Vault.svg">
  <metadata
     id="metadata86">
    <rdf:RDF>
      <cc:Work
         rdf:about="">
        <dc:format>image/svg+xml</dc:format>
        <dc:type
           rdf:resource="http://purl.org/dc/dcmitype/StillImage" />
        <dc:title />
      </cc:Work>
    </rdf:RDF>
  </metadata>
  <defs
     id="defs84" />
  <sodipodi:namedview
     pagecolor="#ffffff"
     bordercolor="#666666"
     borderopacity="1"
     objecttolerance="10"
     gridtolerance="10"
     guidetolerance="10"
     inkscape:pageopacity="0"
     inkscape:pageshadow="2"
     inkscape:window-width="1440"
     inkscape:window-height="793"
     id="namedview82"
     showgrid="false"
     inkscape:zoom="0.95906437"
     inkscape:cx="-19.801798"
     inkscape:cy="106.75506"
     inkscape:window-x="13"
     inkscape:window-y="22"
     inkscape:window-maximized="0"
     inkscape:current-layer="svg2" />
  <ellipse
     ry="42.189163"
     rx="43.876728"
     cy="169.74698"
     cx="174.52438"
     id="ellipse4155"
     style="fill:#000000;fill-opacity:0.14649682;stroke:#000000;stroke-width:1.07898998;stroke-linejoin:miter;stroke-miterlimit:10;stroke-dasharray:none;stroke-opacity:1" />
  <ellipse
     style="fill:#000000;fill-opacity:0.19745226;stroke:#000000;stroke-width:1.60558939;stroke-linejoin:miter;stroke-miterlimit:10;stroke-dasharray:none;stroke-opacity:1"
     id="ellipse4157"
     cx="174.52438"
     cy="169.74698"
     rx="65.290695"
     ry="62.779518" />
  <ellipse
     ry="84.399391"
     rx="87.775368"
     cy="169.74698"
     cx="174.52438"
     id="ellipse4165"
     style="fill:#000000;fill-opacity:0.19745226;stroke:#000000;stroke-width:2.15851879;stroke-linejoin:miter;stroke-miterlimit:10;stroke-dasharray:none;stroke-opacity:1" />
  <ellipse
     style="fill:#000000;fill-opacity:0.19745226;stroke:#000000;stroke-width:2.79043818;stroke-linejoin:miter;stroke-miterlimit:10;stroke-dasharray:none;stroke-opacity:1"
     id="ellipse4167"
     cx="174.52438"
     cy="169.74698"
     rx="113.47214"
     ry="109.10782" />
  <ellipse
     ry="134.84576"
     rx="140.23961"
     cy="169.74698"
     cx="174.52438"
     id="ellipse4169"
     style="fill:#000000;fill-opacity:0.19745226;stroke:#000000;stroke-width:3.44868755;stroke-linejoin:miter;stroke-miterlimit:10;stroke-dasharray:none;stroke-opacity:1" />
  <path
     d="m 5,5.8 337,0 0,337.6 -337,0 z"
     id="path4"
     inkscape:connector-curvature="0"
     style="stroke:#000000;stroke-width:2" />
  <path
     d="m 284.7,40.6 c 0,-8.4 7,-15.2 15.6,-15.2 4.1,0 8,1.6 11,4.4 a 15,15 0 0 1 4.6,10.8 c 0,8.3 -7,15.1 -15.6,15.1 -8.6,0 -15.6,-6.8 -15.6,-15.1 z"
     id="path6"
     inkscape:connector-curvature="0"
     style="stroke:#000000;stroke-width:2" />
  <ellipse
     style="fill:#000000;fill-opacity:1;stroke:#000000;stroke-width:0.47340059;stroke-linejoin:miter;stroke-miterlimit:10;stroke-dasharray:none;stroke-opacity:1"
     id="ellipse4181"
     cx="174.52438"
     cy="169.74698"
     rx="19.25066"
     ry="18.51025" />
  <ellipse
     style="fill:#000000;fill-opacity:0.40764334;stroke:#000000;stroke-width:0.21010086;stroke-linejoin:miter;stroke-miterlimit:10;stroke-dasharray:none;stroke-opacity:1"
     id="ellipse4173"
     cx="228.7439"
     cy="169.74698"
     rx="8.5436735"
     ry="8.2150707" />
  <ellipse
     ry="8.2150707"
     rx="8.5436735"
     cy="169.74698"
     cx="250.64024"
     id="ellipse4175"
     style="fill:#000000;fill-opacity:0.66878979;stroke:#000000;stroke-width:0.21010086;stroke-linejoin:miter;stroke-miterlimit:10;stroke-dasharray:none;stroke-opacity:1" />
  <ellipse
     style="fill:#000000;fill-opacity:0.1592357;stroke:#000000;stroke-width:0.21010086;stroke-linejoin:miter;stroke-miterlimit:10;stroke-dasharray:none;stroke-opacity:1"
     id="ellipse4177"
     cx="274.62195"
     cy="169.74698"
     rx="8.5436735"
     ry="8.2150707" />
  <ellipse
     ry="8.2150707"
     rx="8.5436735"
     cy="169.74698"
     cx="301.73169"
     id="ellipse4179"
     style="fill:#000000;fill-opacity:1;stroke:#000000;stroke-width:0.21010086;stroke-linejoin:miter;stroke-miterlimit:10;stroke-dasharray:none;stroke-opacity:1" />
  <ellipse
     ry="8.2150707"
     rx="8.5436735"
     cy="169.74698"
     cx="49.402439"
     id="ellipse4182"
     style="fill:#000000;fill-opacity:0.40764334;stroke:#000000;stroke-width:0.21010086;stroke-linejoin:miter;stroke-miterlimit:10;stroke-dasharray:none;stroke-opacity:1" />
  <ellipse
     style="fill:#000000;fill-opacity:0.66878979;stroke:#000000;stroke-width:0.21010086;stroke-linejoin:miter;stroke-miterlimit:10;stroke-dasharray:none;stroke-opacity:1"
     id="ellipse4184"
     cx="73.384155"
     cy="169.74698"
     rx="8.5436735"
     ry="8.2150707" />
  <ellipse
     ry="8.2150707"
     rx="8.5436735"
     cy="169.74698"
     cx="98.408546"
     id="ellipse4186"
     style="fill:#000000;fill-opacity:0.1592357;stroke:#000000;stroke-width:0.21010086;stroke-linejoin:miter;stroke-miterlimit:10;stroke-dasharray:none;stroke-opacity:1" />
  <ellipse
     style="fill:#000000;fill-opacity:1;stroke:#000000;stroke-width:0.21010086;stroke-linejoin:miter;stroke-miterlimit:10;stroke-dasharray:none;stroke-opacity:1"
     id="ellipse4188"
     cx="120.30488"
     cy="169.74698"
     rx="8.5436735"
     ry="8.2150707" />
  <ellipse
     style="fill:#000000;fill-opacity:0.1592357;stroke:#000000;stroke-width:0.21010086;stroke-linejoin:miter;stroke-miterlimit:10;stroke-dasharray:none;stroke-opacity:1"
     id="ellipse4190"
     cx="47.753071"
     cy="-174.52438"
     rx="8.5436735"
     ry="8.2150707"
     transform="matrix(0,1,-1,0,0,0)" />
  <ellipse
     ry="8.2150707"
     rx="8.5436735"
     cy="-174.52438"
     cx="73.734795"
     id="ellipse4192"
     style="fill:#000000;fill-opacity:0.40764334;stroke:#000000;stroke-width:0.21010086;stroke-linejoin:miter;stroke-miterlimit:10;stroke-dasharray:none;stroke-opacity:1"
     transform="matrix(0,1,-1,0,0,0)" />
  <ellipse
     style="fill:#000000;fill-opacity:1;stroke:#000000;stroke-width:0.21010086;stroke-linejoin:miter;stroke-miterlimit:10;stroke-dasharray:none;stroke-opacity:1"
     id="ellipse4194"
     cx="96.759201"
     cy="-174.52438"
     rx="8.5436735"
     ry="8.2150707"
     transform="matrix(0,1,-1,0,0,0)" />
  <ellipse
     ry="8.2150707"
     rx="8.5436735"
     cy="-174.52438"
     cx="116.65553"
     id="ellipse4196"
     style="fill:#000000;fill-opacity:0.66878979;stroke:#000000;stroke-width:0.21010086;stroke-linejoin:miter;stroke-miterlimit:10;stroke-dasharray:none;stroke-opacity:1"
     transform="matrix(0,1,-1,0,0,0)" />
  <ellipse
     transform="matrix(0,1,-1,0,0,0)"
     ry="8.2150707"
     rx="8.5436735"
     cy="-174.52438"
     cx="220.75307"
     id="ellipse4198"
     style="fill:#000000;fill-opacity:0.1592357;stroke:#000000;stroke-width:0.21010086;stroke-linejoin:miter;stroke-miterlimit:10;stroke-dasharray:none;stroke-opacity:1" />
  <ellipse
     transform="matrix(0,1,-1,0,0,0)"
     style="fill:#000000;fill-opacity:0.40764334;stroke:#000000;stroke-width:0.21010086;stroke-linejoin:miter;stroke-miterlimit:10;stroke-dasharray:none;stroke-opacity:1"
     id="ellipse4200"
     cx="242.73479"
     cy="-174.52438"
     rx="8.5436735"
     ry="8.2150707" />
  <ellipse
     transform="matrix(0,1,-1,0,0,0)"
     ry="8.2150707"
     rx="8.5436735"
     cy="-174.52438"
     cx="265.75919"
     id="ellipse4202"
     style="fill:#000000;fill-opacity:1;stroke:#000000;stroke-width:0.21010086;stroke-linejoin:miter;stroke-miterlimit:10;stroke-dasharray:none;stroke-opacity:1" />
  <ellipse
     transform="matrix(0,1,-1,0,0,0)"
     style="fill:#000000;fill-opacity:0.66878979;stroke:#000000;stroke-width:0.21010086;stroke-linejoin:miter;stroke-miterlimit:10;stroke-dasharray:none;stroke-opacity:1"
     id="ellipse4204"
     cx="289.65552"
     cy="-174.52438"
     rx="8.5436735"
     ry="8.2150707" />
  <ellipse
     style="fill:#000000;fill-opacity:0.40764334;stroke:#000000;stroke-width:0.65906447;stroke-linejoin:miter;stroke-miterlimit:10;stroke-dasharray:none;stroke-opacity:1"
     id="ellipse4206"
     cx="36.933701"
     cy="313.2529"
     rx="26.800613"
     ry="25.769819" />
  <ellipse
     ry="25.769819"
     rx="26.800613"
     cy="313.2529"
     cx="310.2858"
     id="ellipse4208"
     style="fill:#000000;fill-opacity:0.40764334;stroke:#000000;stroke-width:0.65906447;stroke-linejoin:miter;stroke-miterlimit:10;stroke-dasharray:none;stroke-opacity:1" />
  <ellipse
     ry="25.769819"
     rx="26.800613"
     cy="34.497128"
     cx="36.933701"
     id="ellipse4210"
     style="fill:#000000;fill-opacity:0.40764334;stroke:#000000;stroke-width:0.65906447;stroke-linejoin:miter;stroke-miterlimit:10;stroke-dasharray:none;stroke-opacity:1" />
  <g
     style="font-style:normal;font-weight:normal;font-size:22.60517502px;line-height:125%;font-family:sans-serif;letter-spacing:0px;word-spacing:0px;fill:#000000;fill-opacity:1;stroke:none;stroke-width:1px;stroke-linecap:butt;stroke-linejoin:miter;stroke-opacity:1"
     id="text4212">
    <path
       d="m 305.50028,316.01113 -0.82783,4.22743 -11.40192,0 5.86101,-7.00892 -5.7396,-7.00893 10.96042,0 0.15453,3.27819 -0.4967,0 q -0.2649,-1.20311 -0.89405,-1.74396 -0.62915,-0.54084 -2.04197,-0.54084 l -3.90734,0 4.06187,5.36431 -4.87866,5.71752 6.21422,0 q 0.92716,0 1.49008,-0.55188 0.56293,-0.56292 0.94924,-1.73292 l 0.4967,0 z"
       style="font-style:normal;font-variant:normal;font-weight:normal;font-stretch:normal;font-size:22.60517502px;line-height:125%;font-family:Greek;-inkscape-font-specification:'Greek, Normal';text-align:start;writing-mode:lr-tb;text-anchor:start"
       id="path4207" />
    <path
       d="m 316.2841,315.98906 q 0,1.05961 -0.38632,1.93159 -0.38632,0.87198 -1.04858,1.44594 -0.66226,0.56292 -1.5232,0.87197 -0.8499,0.29802 -1.79914,0.29802 -1.51217,0 -2.89188,-1.09273 -0.011,0.54085 -0.011,2.68216 0,2.15235 -0.011,2.58282 l -1.78811,0 0,-17.15256 q 0,-0.37529 0.25387,-0.83887 0.2649,-0.47462 0.72849,-0.9382 0.47462,-0.46358 1.28037,-0.77264 0.80575,-0.32009 1.76603,-0.32009 0.49669,0 1.0265,0.0993 0.52981,0.0993 1.10377,0.3532 0.57396,0.24283 1.01547,0.61811 0.45254,0.37529 0.73952,0.98236 0.29802,0.59603 0.29802,1.33556 0,0.48566 -0.11038,0.89405 -0.11038,0.40839 -0.24283,0.6733 -0.13245,0.25387 -0.43047,0.55188 -0.28698,0.29802 -0.46358,0.44151 -0.1766,0.13245 -0.56292,0.41943 1.45697,0.8499 2.25169,2.15235 0.80575,1.29141 0.80575,2.7815 z m -2.32895,0 q -0.0552,-0.80575 -0.2318,-1.47905 -0.16556,-0.68434 -0.33113,-1.05962 -0.15452,-0.38632 -0.45254,-0.78368 -0.29802,-0.39735 -0.4084,-0.49669 -0.0993,-0.11038 -0.38631,-0.36425 -0.12142,0.0662 -0.54085,0.19868 -0.4084,0.12142 -0.75056,0.12142 -0.97132,0 -0.97132,-0.77264 0,-0.46358 0.2649,-0.69537 0.27595,-0.2318 0.70642,-0.2318 0.36424,0 0.58499,0.0442 0.2318,0.0331 0.41944,0.0993 0.19867,0.0662 0.2649,0.0883 0.56292,-0.26491 0.73952,-0.86094 0.18765,-0.59604 0.18765,-1.61151 0,-1.04858 -0.57396,-1.79914 -0.56293,-0.75056 -1.755,-0.75056 -0.58499,0 -1.0265,0.22075 -0.43047,0.22076 -0.65122,0.55189 -0.22076,0.32009 -0.33113,0.61811 -0.0993,0.28698 -0.0993,0.52981 l 0.0221,10.5741 q 0.36425,0.2649 0.70641,0.50773 0.35321,0.23179 0.65123,0.41943 0.29801,0.1766 0.60707,0.28698 0.30905,0.0993 0.59603,0.0993 0.4084,0 0.80576,-0.0993 0.39735,-0.11038 0.77263,-0.36424 0.38632,-0.26491 0.66226,-0.65123 0.27595,-0.38631 0.41944,-0.98235 0.15452,-0.60707 0.0993,-1.35763 z"
       style="font-style:normal;font-variant:normal;font-weight:normal;font-stretch:normal;font-size:22.60517502px;line-height:125%;font-family:Greek;-inkscape-font-specification:'Greek, Normal';text-align:start;writing-mode:lr-tb;text-anchor:start"
       id="path4209" />
    <path
       d="m 318.19362,309.95144 1.77706,0 q -0.0442,7.54978 0,7.70431 0.17661,0.65122 0.77264,1.12584 0.60707,0.46358 1.31348,0.46358 0.59604,0 1.22519,-0.38632 0.62915,-0.39735 1.14792,-1.2031 l 0,-7.70431 1.76603,0 0,7.70431 q 0,0.9382 0.30905,1.49008 0.32009,0.55189 0.72849,0.55189 0.3532,0 0.6733,-0.37528 0.33113,-0.38632 0.40839,-1.02651 l 0.4967,0 q -0.11038,1.2583 -0.75057,1.92056 -0.62914,0.65122 -1.60046,0.65122 -0.7616,0 -1.35763,-0.52981 -0.59604,-0.51877 -0.6733,-1.39074 -0.59604,0.62914 -1.37971,1.00442 -0.77264,0.37529 -1.49009,0.37529 -0.98235,0 -1.74395,-0.69538 0,4.67998 -0.62915,5.50781 l -1.81018,0 q 0.81679,-0.82783 0.81679,-4.60272 l 0,-10.58514 z"
       style="font-style:normal;font-variant:normal;font-weight:normal;font-stretch:normal;font-size:22.60517502px;line-height:125%;font-family:Greek;-inkscape-font-specification:'Greek, Normal';text-align:start;writing-mode:lr-tb;text-anchor:start"
       id="path4211" />
  </g>
  <g
     style="font-style:normal;font-weight:normal;font-size:22.60517502px;line-height:125%;font-family:sans-serif;letter-spacing:0px;word-spacing:0px;fill:#000000;fill-opacity:1;stroke:none;stroke-width:1px;stroke-linecap:butt;stroke-linejoin:miter;stroke-opacity:1"
     id="text4216">
    <path
       d="m 30.658089,310.20531 q 0,0.82783 -0.242829,1.49009 -0.242829,0.65122 -0.61811,1.08169 -0.375281,0.43047 -0.982354,0.75056 -0.607072,0.30906 -1.169994,0.47462 -0.551884,0.15453 -1.346598,0.24283 -0.794713,0.0883 -1.357635,0.11038 -0.551884,0.0221 -1.335559,0.0221 l 0,3.75282 q 0,0.43047 0.07726,0.73952 0.0883,0.30906 0.198679,0.46358 0.121414,0.15453 0.320093,0.25387 0.209716,0.0883 0.364243,0.11038 0.165565,0.011 0.419432,0.0442 0.264904,0.0221 0.408394,0.0442 l 0,0.45254 -5.827896,0 0,-0.45254 q 0.165565,-0.0221 0.397356,-0.0331 0.231792,-0.0221 0.375281,-0.0331 0.14349,-0.011 0.320093,-0.0442 0.187641,-0.0442 0.298018,-0.0993 0.110377,-0.0552 0.220753,-0.16556 0.121415,-0.11038 0.187641,-0.27594 0.06623,-0.16557 0.09934,-0.41944 0.04415,-0.25386 0.04415,-0.58499 l 0,-9.62486 q 0,-0.37528 -0.06623,-0.64019 -0.05519,-0.27594 -0.231792,-0.55188 -0.165565,-0.28698 -0.562921,-0.44151 -0.386319,-0.15453 -0.971317,-0.15453 l 0,-0.49669 5.220825,0 q 1.313484,0 2.351026,0.2649 1.04858,0.26491 1.66669,0.6733 0.629148,0.40839 1.026505,0.96028 0.408394,0.55188 0.562922,1.05962 0.154527,0.50773 0.154527,1.0265 z m -2.14131,-0.0552 q 0,-0.77264 -0.419432,-1.39075 -0.419432,-0.61811 -1.059618,-0.96027 -0.629148,-0.34217 -1.280371,-0.51878 -0.651223,-0.1766 -1.225183,-0.1766 -0.927165,0 -0.927165,0.34217 l 0,5.93827 q 0.706411,0 1.214145,-0.0221 0.518771,-0.0331 1.059617,-0.11038 0.540847,-0.0773 0.916128,-0.22075 0.375281,-0.14349 0.717449,-0.38632 0.353206,-0.24283 0.551885,-0.585 0.209716,-0.34217 0.33113,-0.81679 0.121415,-0.47462 0.121415,-1.09273 z"
       style="font-style:normal;font-variant:normal;font-weight:normal;font-stretch:normal;font-size:22.60517502px;line-height:125%;font-family:Greek;-inkscape-font-specification:'Greek, Normal';text-align:start;writing-mode:lr-tb;text-anchor:start"
       id="path4217" />
    <path
       d="m 43.594254,311.67332 -4.039792,0 q 0.529809,0.4084 0.883015,0.71745 0.353205,0.30906 0.750562,0.73953 0.408394,0.43047 0.640186,0.83886 0.231791,0.40839 0.386319,0.9382 0.165565,0.52981 0.165565,1.10377 0,2.00886 -1.468012,3.26716 -1.456974,1.25829 -3.708662,1.25829 -1.048579,0 -1.942632,-0.38632 -0.883014,-0.38632 -1.479049,-1.00443 -0.596035,-0.61811 -1.015467,-1.40178 -0.419432,-0.78368 -0.607073,-1.55632 -0.18764,-0.78367 -0.18764,-1.51216 0,-1.44593 0.816788,-2.60489 0.816789,-1.15896 2.141311,-1.77707 1.324522,-0.61811 2.880835,-0.61811 l 5.783746,0 0,1.99782 z m -3.211966,4.49234 q 0,-1.32452 -0.816788,-2.67112 -0.816789,-1.35764 -1.754992,-1.82122 -1.644615,0 -2.660082,0.83887 -1.004429,0.83886 -1.004429,2.16338 0,0.72849 0.253867,1.58943 0.264904,0.86094 0.695374,1.63358 0.43047,0.77263 1.092731,1.2914 0.662261,0.50774 1.390748,0.50774 1.23622,0 2.019896,-1.07066 0.783675,-1.08169 0.783675,-2.4614 z"
       style="font-style:normal;font-variant:normal;font-weight:normal;font-stretch:normal;font-size:22.60517502px;line-height:125%;font-family:Greek;-inkscape-font-specification:'Greek, Normal';text-align:start;writing-mode:lr-tb;text-anchor:start"
       id="path4219" />
    <path
       d="m 48.892343,311.93823 -1.313485,0 q -0.706411,0 -1.158956,0.41943 -0.452545,0.41943 -0.971316,1.5232 l -0.496696,0 q 0.06623,-0.43047 0.209716,-0.91613 0.14349,-0.49669 0.430469,-1.05962 0.28698,-0.57396 0.662261,-1.01546 0.375282,-0.45255 0.938203,-0.75057 0.562922,-0.29801 1.203108,-0.29801 l 5.055259,0 0,2.09716 -3.267154,0 q 0,0.75056 -0.110377,2.24065 -0.09934,1.47905 -0.09934,2.07508 0,1.14792 0.364243,1.77707 0.375281,0.62915 0.927166,0.62915 0.430469,0 0.794713,-0.45255 0.375281,-0.46358 0.441507,-1.20311 l 0.452545,0 q 0,0.0993 0.02207,0.3201 0.03311,0.22075 0.03311,0.30905 0,1.23622 -0.695374,2.11924 -0.684336,0.87197 -1.754991,0.87197 -0.386319,0 -0.684337,-0.14349 -0.298017,-0.14349 -0.518771,-0.37528 -0.209716,-0.23179 -0.364243,-0.64018 -0.14349,-0.41944 -0.231791,-0.82783 -0.0883,-0.40839 -0.121415,-1.04858 -0.02207,-0.65122 -0.02207,-1.19207 0,-0.55188 0.04415,-1.37971 0.04415,-0.83886 0.0883,-1.46801 0.05519,-0.64019 0.14349,-1.6115 z"
       style="font-style:normal;font-variant:normal;font-weight:normal;font-stretch:normal;font-size:22.60517502px;line-height:125%;font-family:Greek;-inkscape-font-specification:'Greek, Normal';text-align:start;writing-mode:lr-tb;text-anchor:start"
       id="path4221" />
  </g>
  <text
     xml:space="preserve"
     style="font-style:normal;font-weight:normal;font-size:18.37217522px;line-height:125%;font-family:sans-serif;letter-spacing:0px;word-spacing:0px;fill:#000000;fill-opacity:1;stroke:none;stroke-width:1px;stroke-linecap:butt;stroke-linejoin:miter;stroke-opacity:1"
     x="27.667299"
     y="24.446369"
     id="text4220"
     sodipodi:linespacing="125%"
     transform="scale(1.0647938,0.93914897)"><tspan
       sodipodi:role="line"
       id="tspan4222"
       x="27.667299"
       y="24.446369">N</tspan></text>
  <text
     sodipodi:linespacing="125%"
     id="text4224"
     y="62.014706"
     x="28.795189"
     style="font-style:normal;font-weight:normal;font-size:18.45347214px;line-height:125%;font-family:sans-serif;letter-spacing:0px;word-spacing:0px;fill:#000000;fill-opacity:1;stroke:none;stroke-width:1px;stroke-linecap:butt;stroke-linejoin:miter;stroke-opacity:1"
     xml:space="preserve"
     transform="scale(1.0695055,0.93501156)"><tspan
       y="62.014706"
       x="28.795189"
       id="tspan4226"
       sodipodi:role="line">S</tspan></text>
  <text
     xml:space="preserve"
     style="font-style:normal;font-weight:normal;font-size:17.25420952px;line-height:125%;font-family:sans-serif;letter-spacing:0px;word-spacing:0px;fill:#000000;fill-opacity:1;stroke:none;stroke-width:1px;stroke-linecap:butt;stroke-linejoin:miter;stroke-opacity:1"
     x="50.383507"
     y="40.471611"
     id="text4228"
     sodipodi:linespacing="125%"><tspan
       sodipodi:role="line"
       id="tspan4230"
       x="50.383507"
       y="40.471611">E</tspan></text>
  <text
     sodipodi:linespacing="125%"
     id="text4232"
     y="37.532295"
     x="12.183521"
     style="font-style:normal;font-weight:normal;font-size:16.00108719px;line-height:125%;font-family:sans-serif;letter-spacing:0px;word-spacing:0px;fill:#000000;fill-opacity:1;stroke:none;stroke-width:1px;stroke-linecap:butt;stroke-linejoin:miter;stroke-opacity:1"
     xml:space="preserve"
     transform="scale(0.92737289,1.0783149)"><tspan
       y="37.532295"
       x="12.183521"
       id="tspan4234"
       sodipodi:role="line">W</tspan></text>
  <ellipse
     style="fill:#000000;fill-opacity:0.19745226;stroke:#000000;stroke-width:4.02794695;stroke-linejoin:miter;stroke-miterlimit:10;stroke-dasharray:none;stroke-opacity:1"
     id="ellipse4171"
     cx="174.52438"
     cy="169.74698"
     rx="163.79498"
     ry="157.49515" />
  <g
     style="font-style:normal;font-variant:normal;font-weight:normal;font-stretch:normal;font-size:40px;line-height:125%;font-family:greek;-inkscape-font-specification:greek;letter-spacing:0px;word-spacing:0px;fill:#000000;fill-opacity:1;stroke:none;stroke-width:1px;stroke-linecap:butt;stroke-linejoin:miter;stroke-opacity:1"
     id="text4173">
    <path
       d="m 175.93796,22.977118 q -0.0806,-0.913086 -0.32227,-1.799317 -0.22827,-0.899658 -0.65796,-1.785889 -0.41626,-0.899658 -1.14135,-1.450195 -0.7251,-0.550537 -1.65162,-0.550537 -1.19506,0 -1.92016,1.356201 -0.71167,1.356201 -0.85938,3.97461 0,2.443847 0.7251,3.934326 0.73853,1.490478 2.05444,1.490478 0.95337,0 1.85303,-0.926513 0.91309,-0.926514 1.40991,-2.121582 0.51026,-1.195069 0.51026,-2.121582 z m 5.54565,2.390136 q 0,0.899658 -0.0806,1.557617 -0.0671,0.644532 -0.26856,1.208497 -0.18799,0.550537 -0.56396,0.832519 -0.37598,0.281982 -0.92652,0.281982 -0.37597,0 -0.71167,-0.214843 -0.33569,-0.201416 -0.61767,-0.590821 -0.26856,-0.402832 -0.46997,-0.76538 -0.20142,-0.375977 -0.46997,-0.926514 -0.26856,-0.550537 -0.42969,-0.83252 -0.0537,0.134278 -0.14771,0.362549 -0.094,0.228272 -0.49682,0.805664 -0.38941,0.563965 -0.88623,1.00708 -0.49683,0.429688 -1.36963,0.792237 -0.85938,0.362548 -1.87989,0.362548 -1.43676,0 -2.53784,-0.523681 -1.08764,-0.523682 -1.73218,-1.42334 -0.64453,-0.899658 -0.96679,-1.987305 -0.32227,-1.101074 -0.32227,-2.336425 0,-1.24878 0.36255,-2.43042 0.36255,-1.195069 1.03394,-2.161866 0.68481,-0.966796 1.75903,-1.557617 1.08765,-0.59082 2.40356,-0.59082 0.42969,0 0.85938,0.09399 0.44311,0.08057 1.03393,0.375977 0.59083,0.29541 1.07422,0.778808 0.4834,0.483399 0.92652,1.383057 0.44311,0.899658 0.67138,2.094726 l 1.57105,-4.404296 2.41699,0 -2.96753,7.976074 q 0,0.738525 0.64453,1.785888 0.64453,1.047364 1.27564,1.047364 0.37597,0 0.73852,-0.496826 0.36255,-0.496827 0.52368,-1.503907 l 0.55054,0 z"
       style="font-size:27.5px"
       id="path4195" />
  </g>
  <g
     style="font-style:normal;font-variant:normal;font-weight:normal;font-stretch:normal;font-size:40px;line-height:125%;font-family:greek;-inkscape-font-specification:greek;letter-spacing:0px;word-spacing:0px;fill:#000000;fill-opacity:1;stroke:none;stroke-width:1px;stroke-linecap:butt;stroke-linejoin:miter;stroke-opacity:1"
     id="text4181">
    <path
       d="m 174.91745,310.55087 -2.75269,0 q -0.094,1.36963 -0.17456,2.26929 -0.0671,0.88623 -0.17456,1.96045 -0.094,1.06079 -0.18798,1.73218 -0.0806,0.65796 -0.21485,1.42334 -0.12085,0.75195 -0.25513,1.19507 -0.13427,0.44311 -0.32226,0.88623 -0.17456,0.44311 -0.38941,0.67138 -0.21484,0.22827 -0.48339,0.36255 -0.25513,0.14771 -0.5774,0.14771 -0.56396,0 -1.0205,-0.37598 -0.45655,-0.3894 -0.45655,-0.95337 0,-0.52368 0.25513,-0.99365 0.25513,-0.46997 0.56396,-0.76538 0.30884,-0.29541 0.60425,-0.7251 0.30884,-0.44312 0.38941,-0.89966 0.2417,-1.39648 0.52368,-3.66577 l 0.29541,-2.26929 q -0.46997,0 -0.68482,0.0134 -0.21484,0 -0.53711,0.0269 -0.30883,0.0134 -0.46997,0.0806 -0.16113,0.0671 -0.3894,0.17456 -0.22827,0.094 -0.41626,0.28199 -0.17456,0.17456 -0.40283,0.41626 -0.21485,0.22827 -0.4834,0.57739 l -0.55054,0 q 0.26856,-0.77881 0.4834,-1.26221 0.21484,-0.4834 0.61768,-1.04736 0.40283,-0.56397 0.89965,-0.87281 0.51026,-0.32226 1.3025,-0.5371 0.80566,-0.21485 1.83959,-0.21485 l 8.12378,0 0,2.36328 -3.38379,0 q -0.0806,0.81909 -0.0806,2.09473 0,1.27563 0.0403,2.68555 0.0403,1.40991 0.0403,1.75903 0,0.57739 0.46998,1.07422 0.46997,0.49682 1.00708,0.49682 0.45654,0 0.8728,-0.42968 0.42969,-0.44312 0.64453,-1.32935 l 0.60425,0 q 0,0.7251 -0.17456,1.40991 -0.16114,0.68482 -0.49683,1.31592 -0.33569,0.61768 -0.93994,0.99365 -0.59082,0.37598 -1.38306,0.37598 -0.52368,0 -0.93994,-0.20142 -0.41626,-0.20141 -0.69824,-0.53711 -0.26856,-0.33569 -0.46997,-0.84594 -0.18799,-0.51026 -0.29541,-1.06079 -0.10742,-0.56397 -0.14771,-1.24878 -0.0403,-0.69825 -0.0268,-1.34278 0.0134,-0.65796 0.0537,-1.40991 0.0537,-0.76538 0.10742,-1.38306 0.0671,-0.6311 0.13428,-1.32934 0.0806,-0.75195 0.10742,-1.08765 z"
       style="font-size:27.5px"
       id="path4214" />
  </g>
  <g
     style="font-style:normal;font-variant:normal;font-weight:normal;font-stretch:normal;font-size:40px;line-height:125%;font-family:greek;-inkscape-font-specification:greek;letter-spacing:0px;word-spacing:0px;fill:#000000;fill-opacity:1;stroke:none;stroke-width:1px;stroke-linecap:butt;stroke-linejoin:miter;stroke-opacity:1"
     id="text4185">
    <path
       d="m 28.262326,167.65491 q 0,0.79223 -0.201416,1.65161 -0.187988,0.84595 -0.644531,1.73218 -0.443115,0.88623 -1.101074,1.57104 -0.657959,0.68482 -1.691895,1.12793 -1.020508,0.44312 -2.269287,0.44312 -1.383057,0 -2.510986,-0.51026 -1.12793,-0.51025 -1.866455,-1.38305 -0.725098,-0.87281 -1.12793,-2.01416 -0.389404,-1.15479 -0.389404,-2.45728 0,-1.71875 0.71167,-3.23608 0.71167,-1.51734 2.027588,-2.45728 1.315918,-0.95337 2.927246,-0.95337 1.71875,0 3.128662,0.89966 1.42334,0.89966 2.215576,2.39014 0.792236,1.49047 0.792236,3.1958 z m -2.336426,0.30884 q 0,-2.61841 -1.033935,-4.27002 -1.033936,-1.65162 -2.84668,-1.65162 -1.114502,0 -1.879883,0.7251 -0.76538,0.71167 -1.087646,1.74561 -0.308838,1.03393 -0.308838,2.26928 0,3.12867 1.154785,4.78028 1.168213,1.65161 2.860108,1.65161 1.020507,0 1.759033,-0.80566 0.738525,-0.8191 1.060791,-1.97388 0.322265,-1.16821 0.322265,-2.4707 z"
       style="font-size:27.5px"
       id="path4189" />
  </g>
  <g
     style="font-style:normal;font-variant:normal;font-weight:normal;font-stretch:normal;font-size:40px;line-height:125%;font-family:greek;-inkscape-font-specification:greek;letter-spacing:0px;word-spacing:0px;fill:#000000;fill-opacity:1;stroke:none;stroke-width:1px;stroke-linecap:butt;stroke-linejoin:miter;stroke-opacity:1"
     id="text4189">
    <path
       d="m 331.05194,167.9906 q 0,0.3894 -0.0671,0.85938 -0.0671,0.46997 -0.2417,1.08764 -0.17456,0.60425 -0.45654,1.18164 -0.28198,0.5774 -0.75195,1.14136 -0.45655,0.56396 -1.06079,0.98022 -0.59082,0.41626 -1.4502,0.67139 -0.85937,0.26856 -1.87988,0.26856 -2.30957,0 -3.78662,-1.55762 -1.47705,-1.57105 -1.47705,-3.81348 0,-1.22192 0.32226,-2.229 0.32227,-1.02051 0.79224,-1.62476 0.46997,-0.61767 1.1145,-1.1145 0.64453,-0.49683 1.14136,-0.7251 0.51025,-0.2417 1.04736,-0.45654 0.53711,-0.22827 0.67139,-0.30884 -0.25513,-0.25512 -1.04737,-0.95337 -0.79223,-0.69824 -1.31591,-1.18164 -0.51026,-0.49682 -0.9668,-1.20849 -0.45654,-0.7251 -0.45654,-1.32935 0,-1.14136 0.95337,-1.85303 0.96679,-0.71167 2.64526,-0.71167 0.30884,0 0.81909,0.0537 0.51025,0.0403 1.27564,0.21485 0.7788,0.16113 1.42334,0.41626 0.64453,0.2417 1.10107,0.7251 0.46997,0.46997 0.46997,1.07421 0,0.95337 -1.12793,0.95337 -0.46997,0 -0.91309,-0.2417 -0.42968,-0.25512 -0.81909,-0.60424 -0.37597,-0.34913 -0.79223,-0.69825 -0.41626,-0.34912 -1.02051,-0.59082 -0.60425,-0.25512 -1.30249,-0.25512 -0.44312,0 -0.76538,0.20141 -0.30884,0.18799 -0.44312,0.46997 -0.12085,0.28199 -0.17456,0.46997 -0.0403,0.18799 -0.0403,0.29541 0,0.4834 0.46997,1.00708 0.46997,0.51026 1.22192,1.02051 0.76538,0.51026 1.67847,1.08765 0.92651,0.56396 1.8396,1.30249 0.91309,0.7251 1.66504,1.55762 0.76538,0.83252 1.23535,1.9873 0.46997,1.14136 0.46997,2.43042 z m -2.59155,0.73853 q 0,-1.2085 -0.37598,-2.30957 -0.36255,-1.10108 -0.83252,-1.73218 -0.46997,-0.63111 -0.83252,-0.99365 -0.34912,-0.37598 -0.40283,-0.37598 -0.76538,0 -1.46362,0.55054 -0.68482,0.53711 -1.12793,1.32934 -0.42969,0.79224 -0.68482,1.62476 -0.2417,0.81909 -0.2417,1.43677 0,2.08129 0.99366,3.42407 1.00708,1.34277 2.02758,1.34277 1.24878,0 2.09473,-1.30249 0.84595,-1.31592 0.84595,-2.99438 z"
       style="font-size:27.5px"
       id="path4201" />
  </g>
  <g
     style="font-style:normal;font-variant:normal;font-weight:normal;font-stretch:normal;font-size:40px;line-height:125%;font-family:greek;-inkscape-font-specification:greek;letter-spacing:0px;word-spacing:0px;fill:#000000;fill-opacity:1;stroke:none;stroke-width:1px;stroke-linecap:butt;stroke-linejoin:miter;stroke-opacity:1"
     id="text4193">
    <path
       d="m 279.21542,76.848732 5.81421,-12.32666 q -0.21484,-2.13501 -0.92651,-3.222656 -0.71167,-1.087647 -1.55762,-1.087647 -0.65796,0 -1.26221,0.644531 -0.59082,0.644532 -0.84594,1.71875 l -0.61768,0 q 0.12085,-2.135009 0.8728,-3.289795 0.76539,-1.168212 1.77247,-1.168212 1.0205,0 1.9873,1.315918 0.9668,1.30249 1.53076,3.746337 l 2.22901,9.54712 q 0.29541,1.248779 0.91308,1.866455 0.61768,0.604248 1.31592,0.604248 0.53711,0 0.93994,-0.510254 0.41626,-0.523682 0.57739,-1.584473 l 0.60425,0 q 0.094,2.054443 -0.67139,3.14209 -0.76538,1.074219 -1.92016,1.074219 -0.89966,0 -1.58447,-0.644532 -0.68482,-0.644531 -0.9668,-2.000732 -0.14771,-0.698242 -0.49683,-2.202148 -0.34912,-1.517334 -0.55053,-2.484131 -0.20142,-0.980225 -0.38941,-2.081299 l -4.12231,8.942871 -2.64527,0 z"
       style="font-size:27.5px"
       id="path4198" />
  </g>
  <g
     style="font-style:normal;font-variant:normal;font-weight:normal;font-stretch:normal;font-size:40px;line-height:125%;font-family:greek;-inkscape-font-specification:greek;letter-spacing:0px;word-spacing:0px;fill:#000000;fill-opacity:1;stroke:none;stroke-width:1px;stroke-linecap:butt;stroke-linejoin:miter;stroke-opacity:1"
     id="text4197">
    <path
       d="m 56.806385,64.334084 2.161865,0 q -0.05371,9.18457 0,9.372558 0.214844,0.792236 0.939942,1.369629 0.738525,0.563965 1.5979,0.563965 0.725098,0 1.490479,-0.469971 0.76538,-0.483398 1.396484,-1.463623 l 0,-9.372558 2.148437,0 0,9.372558 q 0,1.141358 0.375977,1.812744 0.389404,0.671387 0.88623,0.671387 0.429688,0 0.819092,-0.456543 0.402832,-0.469971 0.496826,-1.248779 l 0.604249,0 q -0.134278,1.530761 -0.913086,2.336426 -0.765381,0.792236 -1.947022,0.792236 -0.926514,0 -1.651611,-0.644531 -0.725098,-0.631104 -0.819092,-1.691895 -0.725098,0.765381 -1.678467,1.221924 -0.939941,0.456543 -1.812744,0.456543 -1.195068,0 -2.121582,-0.845947 0,5.693359 -0.765381,6.700439 l -2.202148,0 q 0.993652,-1.00708 0.993652,-5.599365 l 0,-12.877197 z"
       style="font-size:27.5px"
       id="path4192" />
  </g>
  <g
     style="font-style:normal;font-variant:normal;font-weight:normal;font-stretch:normal;font-size:40px;line-height:125%;font-family:greek;-inkscape-font-specification:greek;letter-spacing:0px;word-spacing:0px;fill:#000000;fill-opacity:1;stroke:none;stroke-width:1px;stroke-linecap:butt;stroke-linejoin:miter;stroke-opacity:1"
     id="text4201">
    <path
       d="m 62.057362,262.90622 1.571045,0 0,11.77612 q 1.342773,-0.13427 2.067871,-1.70532 0.738525,-1.57104 0.738525,-4.25659 0.08057,-2.12158 0.12085,-2.43042 0.214843,-2.10816 1.356201,-2.92725 0.913086,-0.64453 2.510986,-0.64453 l 0.966797,0 0.214844,0.60425 q -0.483399,0.0403 -0.859375,0.26855 -0.375977,0.21485 -0.617676,0.63111 -0.241699,0.41626 -0.402832,0.81909 -0.161133,0.3894 -0.268555,1.02051 -0.09399,0.6311 -0.134277,1.03393 -0.04028,0.40283 -0.09399,1.07422 -0.04028,0.65796 -0.06714,0.89966 0,1.36963 -0.469971,2.60498 -0.46997,1.23535 -1.248779,2.0813 -0.765381,0.84595 -1.772461,1.34277 -0.993652,0.49683 -2.041015,0.49683 l 0,5.38452 -1.571045,0 0,-5.38452 q -1.047364,0 -2.054444,-0.49683 -0.993652,-0.49682 -1.772461,-1.34277 -0.778808,-0.84595 -1.248779,-2.0813 -0.469971,-1.23535 -0.469971,-2.60498 -0.02686,-0.32227 -0.05371,-0.91309 -0.02686,-0.59082 -0.06714,-1.04736 -0.02686,-0.46997 -0.09399,-1.04736 -0.06714,-0.59082 -0.228272,-1.02051 -0.147705,-0.42969 -0.389404,-0.81909 -0.241699,-0.40283 -0.657959,-0.63111 -0.402832,-0.22827 -0.939942,-0.26855 l 0.201416,-0.60425 0.95337,0 q 0.657959,0 1.208496,0.12085 0.550537,0.12085 0.939941,0.29541 0.402832,0.16113 0.71167,0.49683 0.308838,0.32226 0.496826,0.60425 0.201416,0.26855 0.335693,0.75195 0.147706,0.4834 0.214844,0.80566 0.06714,0.30884 0.09399,0.89966 0.04028,0.59082 0.04028,0.89966 0.01343,0.30884 0.01343,0.92651 0,0.13428 0,0.20142 0,2.68555 0.71167,4.25659 0.71167,1.57105 2.054444,1.70532 l 0,-11.77612 z"
       style="font-size:27.5px"
       id="path4224" />
  </g>
  <g
     style="font-style:normal;font-variant:normal;font-weight:normal;font-stretch:normal;font-size:40px;line-height:125%;font-family:greek;-inkscape-font-specification:greek;letter-spacing:0px;word-spacing:0px;fill:#000000;fill-opacity:1;stroke:none;stroke-width:1px;stroke-linecap:butt;stroke-linejoin:miter;stroke-opacity:1"
     id="text4205">
    <path
       d="m 290.151,269.32468 q 0,2.68554 -1.65161,4.39087 -1.65161,1.70532 -4.43115,1.8396 l 0,5.4248 -1.78589,0 0,-5.4248 q -2.65869,-0.12085 -4.39087,-1.98731 -1.71875,-1.86645 -1.71875,-4.73999 0,-1.22192 0.32227,-2.24243 0.32226,-1.03394 0.85937,-1.71875 0.53711,-0.69824 1.23535,-1.18164 0.69824,-0.4834 1.43677,-0.69824 0.73852,-0.21485 1.49048,-0.21485 l 0,0.49683 q -1.46363,0.98022 -2.12158,2.29614 -0.65796,1.30249 -0.65796,3.18237 0,4.76685 3.54492,5.65308 l 0,-8.84888 q 0,-1.15478 0.93994,-1.96045 0.95337,-0.81909 1.97388,-0.81909 0.92651,0 1.79931,0.45655 0.88623,0.45654 1.58448,1.27563 0.71167,0.80566 1.14135,2.06787 0.42969,1.26221 0.42969,2.75269 z m -2.12158,0.2417 q 0,-1.74561 -0.91309,-3.20923 -0.89966,-1.46363 -1.97387,-1.46363 -0.53711,0 -0.80567,0.38941 -0.26855,0.37598 -0.26855,0.92651 l 0,8.19092 q 3.96118,-0.73853 3.96118,-4.83398 z"
       style="font-size:27.5px"
       id="path4204" />
  </g>
</svg>
