<svg xmlns="http://www.w3.org/2000/svg" fill="none" viewBox="0 0 348 348"><path stroke="#000" stroke-width="2" d="M5 5.8h337v337.6H5z"/><path stroke="#000" stroke-width="2" d="M282.7 40.6c0-8.4 7-15.2 15.6-15.2 4.1 0 8 1.6 11 4.4a15 15 0 0 1 4.6 10.8c0 8.3-7 15.1-15.6 15.1s-15.6-6.8-15.6-15.1z"/><path fill="#000" d="M235 327.5c-7.9-.6-13.8-1.8-28.4-5.7-12.5-3.4-18.8-5-23.7-6-6-1.1-6.6-1.2-11.1-3.3-5.8-2.5-12.2-5.8-24.6-12.4-12.9-7-21.3-11.2-27.4-14a254 254 0 0 1-36.6-22c-4.3-3.2-7.9-6.6-15.3-14.4a77.8 77.8 0 0 1-16.8-24.6 74.8 74.8 0 0 0-13.4-21.7 94.4 94.4 0 0 1-16.3-23.9C20 176 20 174.3 20 162.6c.1-12.3.3-13.9 2-17.5 2.5-5.3 5.6-9.3 16.1-20.5a71.4 71.4 0 0 0 17.9-25c6.3-13.8 12-23 18.1-29.4a57 57 0 0 1 15.9-12.6c4.6-2 13.4-2.4 48.7-2.1 40.9.3 67.6 1.4 82.7 3.3 25.5 3.3 41.8 7.2 52.8 12.7a81.4 81.4 0 0 1 26 20.3c2.3 3.3 3.2 5.8 3.5 10 .7 9.5 2.2 14.1 6.4 18.7 1 1 2.5 2.6 3.6 3.3 5.1 4 9.8 11 11.2 17.2.8 3.6 1 9.3.8 18.3-.3 12.4-.4 13-7.2 27.2-4.2 9-5.3 12-6 17.1-1.1 9-.8 54.9.7 78.7.7 12.7.3 15.5-3 21.6a42.1 42.1 0 0 1-17.4 18 34.5 34.5 0 0 1-16 5.5c-3 .3-37.6.4-42 0zm35.7-5.6a43 43 0 0 0 17-5.6 32 32 0 0 0 9.1-6.5c4.3-4.3 8.6-11.1 9.8-15.5.7-2.3.7-7.4.2-13.9-1-10.9-1.1-20.3-1-49.3.3-31 .3-32 1.9-37.2.4-1.4 2.7-6.8 5.1-12.1 6.3-13.8 6.8-15.6 6.6-27-.2-7.5-.8-11.8-2.1-14.9-1-2.3-4.6-6.6-8.6-10.5-4.6-4.5-7-7.6-8.6-11.2-1.4-3.2-2.5-8-2.5-11 0-2.6-.6-5.7-1.6-8.4-.8-2.1-1.3-3-3.4-5.3a93 93 0 0 0-30.4-19c-5.5-2-6.8-2.1-29.9-2.3a220 220 0 0 1-38-2.2c-28-3.6-36-3.8-48.7-1.2-14.6 3-37 14.4-52.8 26.8-3 2.4-6.3 4.4-6.6 4.1-.6-.6 4.5-4.9 13.1-11a121.9 121.9 0 0 1 33.9-18.5 79 79 0 0 1 15.3-4c7.9-1.2 25.3-1 35.3.6 14.5 2.2 30.3 3.5 45.2 3.7 7.4 0 9.9 0 10.2-.4.3-.3 0-.5-1-1-3.5-1.7-17.3-3.5-37-4.7a886 886 0 0 0-54.3-1.7c-33.9-.5-44-.3-49.6.7-5.5 1-11.7 5.2-18.4 12.5a96.8 96.8 0 0 0-16.4 27 100.3 100.3 0 0 1-11.1 20c0 .5 2.7 1 9 1.2 3.7.1 6.7.3 6.6.4l-5.8.8c-9.9 1-15 2.2-17.5 4a69.3 69.3 0 0 0-13.4 16.1 25.8 25.8 0 0 0-5 17.3c.1 5 .8 8.5 2.7 13.5a40 40 0 0 0 13.4 18.5l4.3 2.3c3 1.5 4.6 2.7 4.2 3.1-.1.2-1.4 0-2.7-.4a8 8 0 0 0-2.7-.4c-.2.3.4 1.3 3 4.5a77 77 0 0 1 9.6 16.8c5.3 11.4 8.4 16 16.2 24.1a99.7 99.7 0 0 0 22.3 18.7c11 7.1 20.2 12.3 28.4 16.1 4.8 2.2 15.3 7.7 29.8 15.5 17.3 9.3 22 11.2 31 13.1 4 .9 15.4 4 28.8 7.8 17.1 4.9 24.8 6 45 6.2 5.1 0 10.5 0 12-.2zm-34-24.5c-24.1-1.1-37-2.8-57.8-7.5-21-4.8-30.3-7.7-44.3-13.6-13-5.4-36.6-18.3-46-25-2.6-1.8-3.4-2.6-2.5-2.6.9 0 7 3.2 14.7 7.7 18.9 11 33.1 18 45.9 22.8a481 481 0 0 0 56.4 13.5c13 2.1 31.8 3.4 51.7 3.6 10.7.2 11.2.1 14-.6 3-.8 6.4-2.6 12.3-6.4 8.8-5.7 10.2-7.4 11-13l.5-2.6.1 4c0 5.2-.3 6-2.5 8-2 2-10 7.3-13.8 9.3-5.2 2.8-5.3 2.8-20 2.7-7 0-15.9-.1-19.7-.3zm-7.5-10c-18-.6-44.6-2.7-51.9-4.1-9.3-1.9-24.4-7.8-44.4-17.6-13-6.4-31-16.7-30.4-17.4.3-.3 5.6 2.2 12.9 6 25.2 13 35.4 17.8 50.6 23.6a81 81 0 0 0 27.1 5.3c24.6 1.9 50 2.9 55.6 2.2a45.4 45.4 0 0 0 24.7-11.7c2.8-2.6 4.7-3.9 5-3.5.4.4-.3 1.6-2.3 4A39.2 39.2 0 0 1 255 286a128 128 0 0 1-25.7 1.3zm-27.4-11.5c-.8-.1 5.4-.2 14-.1 8.4 0 14.4.2 13.3.3-2.5.3-25.2.1-27.3-.2zm-4-8.5a182 182 0 0 1-37.4-5.2 101 101 0 0 1-31.1-12.8A191.8 191.8 0 0 1 100 225a175 175 0 0 1-18-25.4c-4.5-7.3-7.2-11.3-9-13.6-1.5-1.7-2-3-1.4-4 .5-1 .4-2.3-.2-4.6-1.3-4.5-2.3-5.2-8.3-5.6-5.2-.3-6.7-.7-7.4-1.9-.4-.8-.4-.9.1-1.7.8-1.1.7-1 6.3-3.4 7.4-3.1 8.7-4.5 10.3-11 .9-3.6 2.3-6 3.6-6 .8-.1 1.2 0 1.8 1 .4.6.9 1.7 1 2.5.7 2.6 4 5.3 12.1 10a263 263 0 0 0 46 20c38.2 13.4 52 16.6 77.5 18.4 9.7.6 20.4 0 27.5-1.6 15.2-3.4 29.4-11.5 32.8-18.7 1.3-2.8 2.1-5.8 2.7-10.2 1.2-7.9 2-9.9 4.1-9.3 1 .2 2.3 3 2.3 4.6 0 2 1.2 5.3 2.6 6.9 1.6 2 2.4 4.1 3.3 9.4 1.3 7.5 1.7 12.5 1.8 24.8.1 21.4-1 29.9-5 39-4.3 9.6-8.6 13.8-17.7 17.2a136 136 0 0 1-33.7 5.7c-6.2.4-30 .5-37.5 0zm13.5-6.7c.8-.2 1.3-.7 1.7-1.5.8-2 2.8-12.9 2.7-15.3-.1-2.8-.6-3.2-4.9-3.7-7.8-.8-12-1.4-14.7-2-4-1-4-1-4.5.4a79.8 79.8 0 0 0-1 19.2c.5 2 1.2 2.5 3.5 2.9 3.1.4 16 .5 17.2 0zm17.9.2a6 6 0 0 0 2.8-1.1 38 38 0 0 0 7.1-15.5c-.3-1.2-2-1.6-7.9-1.7-7 0-7 0-8.3 4.2-1 3.3-2.3 10-2.3 12.1 0 2 .5 2.3 3.8 2.4 1.5 0 3.7-.2 4.8-.4zm-47.5-2.4c1.4-.8 1.9-2.4 2.3-8 .2-2.9.3-7 .3-9-.2-6-.4-6.2-7.6-8.4-6.1-1.9-11.3-3.7-17-6-2.4-1-4.9-1.8-5.6-1.8-1.4 0-1.4 0-1.7 4.2-.2 3.9-.8 5.8-3.1 10.8-3.1 6.7-3.4 8.5-1.4 9.9 2.5 1.7 15.4 5.7 24.1 7.4 6.5 1.3 8.5 1.5 9.7.9zm67.6.1c2.6-.7 3.1-1.2 3.1-3 0-1.9.9-4.5 3.2-9.5l1.9-4.6c0-.9-.6-.9-3-.2l-4 .8c-2.7.4-3.5 1.6-6.2 10.2-1.7 5.4-2 6.4-1.5 6.9.3.4 4.5 0 6.5-.6zm16.1-3.5c4-1.3 6-2.1 7.1-3.2 1.3-1.2 1-1.7-1-1.7-2.8 0-3.3-2-1.8-7.6 1-4 1-4.5 0-4.6-1 0-2.5 1.6-4 4.2-2.3 3.7-6.3 13-6 13.7.3.5 2.5.1 5.7-.8zm14.3-12.6c3.8-9.6 4.5-12.6 1.8-8.1-3 4.9-5.8 12.3-5.4 13.9.5 1.5 1.3.3 3.6-5.8zm-141.1 2.4c1.9-1 6.7-13 7.1-17.8.4-3.8-1-5.4-5.9-7-3.2-1-9.4-3.6-16.3-7a84 84 0 0 0-6.9-3.2c-2-.6-2.3 0-2.6 4-.2 3.6-1 6.3-2.4 8.3-2 2.7-1.3 3.7 9.5 11.9 8.4 6.4 15.5 11.3 16.3 11.3l1.2-.5zm-33-26.7c1.1-.6 1.7-2.3 1.7-5.3 0-4.7-.8-7.5-3.1-9.7a57 57 0 0 0-16.5-8.5c0 .5 4 7 8 13 4.1 6 8 10.8 8.7 10.9l1.1-.4zm84.5 0c.6-.6.7-1 .6-4.6 0-6.7-.7-8.1-4.4-9.6-3-1-24.6-6-25.9-5.8-.4 0-.9.5-1.2 1.3a80.5 80.5 0 0 0-2.8 11.5c0 1.6 2.3 2.9 8.5 4.6a78.3 78.3 0 0 0 20.8 3.5c3.4 0 3.7-.1 4.4-.8zm28.4.6c1.2-.7 1.3-1.7.6-5.7-1-5.3-1-5.2-3.9-5.7a121 121 0 0 0-13.6-1.6c-3.8 0-4 .2-4 5.4-.3 6.3 0 7.2 3.2 7.8 2.3.5 16.7.3 17.7-.2zm22.5 0c5.2-.6 8.4-1.3 9-2.1.7-.8.6-2.2-.7-6.6-1.2-4.2-1.4-4.4-5.3-4.4a92 92 0 0 0-15.6 2.2c-2 .7-2.5 1.5-2.5 3.9 0 3.3.4 5.8 1.3 6.6.8.7 1 .8 5.2.8a91 91 0 0 0 8.6-.4zm21-2c2.7-.5 3.9-1.7 4.7-4.6 1-2.8 1.1-9.1.5-11.7-.8-3.1-1.5-3.1-7-.2-4.6 2.4-4.9 3.1-3.8 8 .3 1.4.7 3.6.8 4.9 0 1.3.3 2.8.5 3.5.3 1.2 0 1.2 4.3.2zm15.8-6c3-2 3.2-3.2 1.1-10.1-2-6.8-3.6-10.1-4.5-9.1-1 1.1-.2 17.3 1 19.4.6 1 .7 1 2.4-.1zM149.3 209c.7-1.5 2.6-10 2.7-11.7 0-2.8 0-2.9-19.7-9.5l-12.7-4.3c-4.6-1.6-5.7-1.8-6.2-1.1-.6.8-.8 3.3-.4 4.7 1.4 4.8 9.5 14 12.3 14.1 1.4 0 6.8 2 14.1 5.1 10 4.4 9.2 4.2 9.9 2.7zm-43-15.9c.4-1.4 0-10.6-.3-12a9.3 9.3 0 0 0-3.8-4.7c-2.8-2-19.1-11-21.7-12-2-.7-2.4-.7-3.1-.2-.7.4-.8.6-.8 2.8 0 2.5.6 4.8 2 8.2 1.4 3.3 4.4 6.4 8.7 9.1 5 3.1 17.5 9.6 18.5 9.7.2 0 .5-.4.6-.9zm177.8-4c0-.9-1.7-4.6-2.3-5.2-1.2-1-1 1.3.4 4 1 1.7 1.8 2.3 1.9 1.2zm-231.3 4l-3.7-1.5c-8.8-3.8-12.3-8-13.5-16.3-1.3-8.6-1.4-25.1-.3-29.8A29.9 29.9 0 0 1 46 130.3c2-1.4 4.3-2 9-2.4a119 119 0 0 1 17.3.1c.6.3.6.3 0 .3l-8 .7c-8.1.7-15.3 1.7-16.7 2.3a41 41 0 0 0-9.4 12.5 26.4 26.4 0 0 0-2 10.7c-.2 6 .2 14 1 19.4.8 4.6 2.2 7.8 4.4 10 1.6 1.6 2.6 2.3 9.1 6.2 4.8 3 5.5 3.9 2.2 3zm158.2.7c-4.8-1.7-6.6-5.2-4.1-8 1.2-1.3 2.3-1.2 4.4.4 2.1 1.6 3.7 1.6 6.3.2 4.5-2.4 11.3-11 11.3-14.4 0-2.7-2.1-6-4.3-6.7-1.6-.5-4.6-2.8-6.2-4.8-2.2-2.7-2.7-4.5-2.9-11.3-.3-7.7-.3-7.7-5.5-10.8-3-1.7-5.2-3.8-5.2-4.8 0-1.2 3-2.5 6.1-2.5 2 0 5-.8 6.8-1.7.8-.5 2.8-1.9 4.4-3.2 7.8-6.2 13.3-7.8 27-7.7 7.7 0 9.7.4 12.9 2.3 2 1.2 4.9 4 5.8 5.5 1 1.8.8 2.8-.7 4.4-1.1 1.2-1.7 1.5-3.5 2-3.2.7-8 1.4-14 2-13.8 1.2-23.4 3.6-26.2 6.4-1.3 1.4-1.6 3-1.2 7.6.4 4 1.2 6.2 2.6 7.7.5.6 2.8 2.3 5 3.9 5.3 3.7 10 7.7 14.1 12 3.6 3.7 5.6 5 7.8 5.5 2.7.5 6 2.6 8.4 5.1 2 2.3 1 2.1-4-.5a56 56 0 0 0-10.4-4.7c-2.2-.7-3-.4-4.6 1.7-1.3 1.6-2 1.8-3 .8-1.2-1-2.5-.9-4 .4-.8.5-3.8 3.6-6.7 6.6-6.5 6.9-7.2 7.3-11.6 7.3-2 0-3.5-.3-4.8-.7zm43.3-67.8c-.3-.3-1.7-.4-4.6-.4-2.9 0-4.2 0-4.5.3-.3.4.6.5 4.5.5 4 0 4.9 0 4.6-.4zm-89 60.4c-2.7-1.5-5-3.9-5.4-5.9-.6-2-.6-9.6-.1-11.9.7-2.9 3.4-5.3 7.1-6.3 3-.8 9-.5 10.7.5 2 1.1 2.2 2.5.8 3.9-1 1-1.3 1-4.9 1.7-3 .6-5.5 1.3-6.5 2-1.5 1-1.7 4.2-.6 6.7.3.5 1.1 1.8 2 2.7 1.7 2 2 3.3 1.3 5.1-1 2.7-1.9 3-4.5 1.5zM49.7 183a22.5 22.5 0 0 1-4-8 33.2 33.2 0 0 1 5.2-30.8c3.4-4.6 8.3-8.2 12.7-9.2a60 60 0 0 1 14.2-.2c5 .6 7.5 1.5 12.3 4a66.5 66.5 0 0 0 22.6 8c2.7.1 3.6 0 6-.7 5.9-1.6 12-5.1 15.4-8.8 2.2-2.5 4.6-3 6.2-1.3 1.6 1.6.5 4.2-3.2 8-4 4.2-9 7.4-13.7 8.8-2 .6-3.2.7-9 .6-5.8 0-7-.1-10-.8a82 82 0 0 1-22.9-9.7c-1.2-1-4.5-1.5-9.2-1.3-4.7.2-8 .9-10.6 2.3a27.4 27.4 0 0 0-9.4 12.3c-1.6 3.8-2 5.5-1.8 8.6.2 2.5.5 4 2.6 10.7.5 1.7 1 4 1.1 5.1.2 2 .1 2.2-.6 3-1.2 1.3-2.4 1.1-3.9-.6zm245.4 2c.1-.3 3.1-2 6.7-4 3.6-1.9 7-3.9 7.7-4.4 2.6-2.1 3.8-5 5.4-13.3 1-5.3 1-9.3-.2-13.1-1.7-5.2-3-7.1-7.4-10.4a50.9 50.9 0 0 1-5.6-4.8c-3.7-4-4.5-4.2-15.9-4-8.5 0-12.3-.3-13.1-1.2-.5-.5-.4-.6.1-1.2.5-.7.8-.7 2.8-.5a72.8 72.8 0 0 0 11.9 1c9.9 0 12.1.7 16 4.3 2.9 2.8 6.5 5.7 7.6 6.3 1.2.5 3.3 4 4.8 8.3 1.1 2.9 1.2 3.2 1.2 7.8a51.4 51.4 0 0 1-3 18.6c-1.4 3.1-5.8 6.3-12.5 9.1-4 1.7-6.7 2.3-6.5 1.5zm-119.4-2c-.9-1-1.3-2.4-1.3-4.3 0-4 1.3-4.6 9-4.5 7.4 0 11.7 1.3 13.4 3.7.5.9.5 1 0 1.8-.7 1.2-2.7 1.5-8.9 1.5-6 0-7.6.2-9 1.6-1.3 1.2-2.3 1.2-3.2.2zm123-8.6c-.4-.5 0-1 3.2-4.6 2.3-2.6 3.6-4.2 3.8-5 .5-1.7.3-6-.5-11.5-1-6.4-1.7-7.7-5.7-10-4.3-2.3-6.5-4.4-4.7-4.4 1 0 5.4 1.7 7.5 3 1.5 1 2.3 1.6 2.7 2.5a51 51 0 0 1 2 22.7c-1.4 3.2-7.2 8.4-8.2 7.3zm-168.3-4.2c.2-1.2 2-1.6 8.3-2 13.7-.6 15.5-.9 16.5-2.8.5-.9.5-1.2.2-2-.5-1.2-.2-2 .6-2 1.3 0 2 3.4 1 5.4-1 2.2-3.6 2.7-18 3.7-9.2.6-8.7.6-8.6-.3zm132.7-8.2c-7-.7-10.9-2.2-12.9-5.3-1-1.7-1.2-3.7-.4-5 .8-1.2 3.5-.9 7.1 1 3 1.5 4.7 1.8 6.4.9a87 87 0 0 0 4.9-3.4c6.2-4.6 8.5-5.4 15.2-5.3 8.6 0 14.4 2.4 16.2 6.6.8 1.8.7 3-.4 4.2-1 1.2-2.5 1-6-1-3.9-2.2-6.4-2.9-11-2.7-1.8 0-4 .3-4.5.5-1.6.5-3.7 2.8-4.7 5.3-1 2.2-2.2 3.6-3.6 3.9-1.4.3-4.7.4-6.3.3zm-96.5-20.5c-5.9-3.3-9.4-5-12.3-6.2a56.8 56.8 0 0 0-33.3-2.3 24.7 24.7 0 0 1-11.3.6c-2.5-1-4.7-3.4-4.7-5.2 0-.4.4-1.6 1-2.8 2-4.3 8.6-10.2 13.9-12.3a74 74 0 0 1 28.9-4c7.3.4 11.2 1.5 17.6 5.2a50.2 50.2 0 0 1 16 13.1c.5 1.3.5 5.1-.1 6.5-.3.7-1.4 2-2.5 3.2a36.6 36.6 0 0 1-8.7 6.3c-.4 0-2.3-1-4.5-2.1zm5.8-7.8c1.2-.5 2-1.7 2-2.8 0-1.1-3.1-4.6-6.1-6.7-6-4.3-16.5-8.4-18-7-.3.2-.5.9-.5 1.5s-.3 2.3-.7 3.7c-.6 2.7-.6 2.7 0 3.2a6 6 0 0 0 2.7.8c2.5.3 5.5 1.3 8.9 3.2 3.1 1.8 8 4.1 9 4.3 1.4.3 1.6.3 2.7-.2zm-55-7.4c2.7-.8 4.4-2 4.5-2.9.1-.6 0-.7-.9-.8-2 0-2.9.1-4.2.8-1.2.6-3.5 3-3.5 3.7 0 .4 1.6 0 4.2-.8zm-20.3 9.3c-.3-1 0-2 1-2.3 1-.4 3-.4 3.3 0 .1.3-1.4 1.5-3.2 2.5-.9.5-1 .5-1.1-.2zm-4.5-5.1c-2.3-.4-5-2-5.2-3 0-.5.2-.7 1.1-1 2-.5 4.4-1 8.3-1.5 3.6-.5 4.7-.4 3.2.2-5.7 2.4-7.5 3.2-7.2 3.7l2 .7c3.3.7 3.4.8 2 1-1.5.3-2 .3-4.2-.1zm126.9-12.4c-.3-2.9-.2-8.9.2-10.9.5-2.4 1.7-5.1 2.7-6 1.8-1.5 2.1.3.6 3.2-1.6 3-2.4 6.2-2.9 11.2-.4 4-.4 4.2-.6 2.5zm-115.8-7.3c-.6-1.2 4.8-7.3 10.9-12.2 11.4-9.2 24.1-12.5 47.8-12.3 9.2 0 14.9.8 14.3 1.8-.2.3-2.6.4-9.2.2-14.4-.5-23.3.2-31 2.2-11.4 3-18.2 6.9-27.4 16-3.6 3.7-5 4.9-5.4 4.3zm165.2-.2l-1.5-3.7c-1.8-4.5-5.2-7.8-12-11.6-4.5-2.4-5.8-2.7-12.2-2.5-6.5.1-13.5.9-19.3 2-5.1 1-7 1.2-7.8.9-.8-.4.4-1.4 2.4-2a161 161 0 0 1 27.2-3c4.5 0 6.7.6 11 2.9 8 4.2 11.6 8 12.8 13.2.5 2.2.6 5 .2 5l-.8-1.2zm-91.4-4.6c-.8-4.2-2.8-9-4.9-11.7-3.9-5.2-2.5-6.3 1.7-1.4 2.3 2.8 3.7 5.8 4 9 .4 3.1.4 7.4 0 7.4-.1 0-.5-1.5-.8-3.3zm-82.9 2c0-.6 3.7-5.2 6.1-7.7 7-7.2 15.3-12.5 26.9-17.4a112.3 112.3 0 0 1 56.4-5.3c15.2 3 19.5 3.4 32.4 3.5 10.4 0 19.3-.4 29-1.5 2.5-.2 7.1-.5 10.3-.5 5.6 0 5.7 0 7.5 1 1.7 1 3.9 3 3.9 3.7 0 .9-1.2.6-3.8-1l-2.9-1.6-4-.2c-2.6 0-6.4.1-10.7.5a204.3 204.3 0 0 1-27.4 1.3c-14.4 0-19.7-.6-32.1-2.9-9.2-1.7-13-2-21.6-1.9-18 .3-31.6 3.6-44.9 10.9-7.3 4-12 7.5-17.5 13a37 37 0 0 1-7.3 6.4c-.2 0-.3-.1-.3-.3z"/></svg>