<svg xmlns="http://www.w3.org/2000/svg" viewBox="0 0 348 348" fill="none" font-family="Arial"><path d="M5 5.8h337v337.6H5z" stroke-width="2" stroke="#000"/><path d="M282.7 40.6c0-8.4 7-15.2 15.6-15.2 4.1 0 8 1.6 11 4.4a15 15 0 0 1 4.6 10.8c0 8.3-7 15.1-15.6 15.1s-15.6-6.8-15.6-15.1z" stroke-width="2" stroke="#000"/><path d="M16.4 147.3V114H261v66.7H16.4v-33.4z" fill="#000"/><ellipse cx="309.5" cy="149.3" rx="24.9" ry="22.8" fill="#fff" stroke="#000" stroke-width="1.1"/><ellipse ry="22.8" rx="24.9" cy="224.1" cx="308.5" fill="#fff" stroke="#000" stroke-width="1.1"/><ellipse cx="307.9" cy="297.9" rx="24.9" ry="22.8" fill="#fff" stroke="#000" stroke-width="1.1"/><g aria-label="&lt;LYRIC1&gt;" style="line-height:0%;-inkscape-font-specification:'Keep on Truckin\'FW, Normal';text-align:start" font-weight="400" font-size="40" font-family="Keep on Truckin\'FW" fill="#fff"><path d="M68.6 157.4q0 .2-.6.36-.56.16-.88.16-.28 0-1.52-.52l-16.72-7.08q-.28-.12-.88-.68-.56-.6-.56-.84 0-1 .04-2 .08-1.72.28-1.8l18.76-7.96q1.4-.6 1.68-.6.4 0 .4 3.92l-.64.88q0 .6-2.12 1.52l-11.04 4.68 11.6 4.88q2.2.96 2.2 1.52zM86.65 161.72l-2.04.08q-1.84.24-4.8.16-5.04-.12-4.84-.12-5.04 0-5.04-3.76 0-.84 1.08-3.04 1.2-2.4 1.4-3.48.8-4.8.8-9.48-.04-4.6-1.2-5.56-.36-.2-1-.6-.48-.48-.48-1.36 0-1.64 2.08-2.44 1.72-.68 4.24-.64 3.56.04 5 .84 1.24.64 1.24 1.96 0 .8-.4 1.16-.36.36-.76.68-.4.32-.6.88-.72 1.72-.72 4.84 0 4.36.08 4.84.88 5.48 2.64 5.48 1.16 0 2.24-.72 1.6-1.04 2.16-1.28 1.08-.44 1.6-.44t1.04.36q.96.68 1.12.96.32.64.32 2.68 0 5.08-1.52 7.04-.8 1-2.24 1-.24 0-.76-.04-.44-.04-.64 0zM108.425 145.72q1.2 7.92 2.12 9.16.52.56 1.08 1.2.56.64.56 1.28 0 3.28-1.68 4.04-1.24.6-6.8.6-4.48 0-5.96-.88-1.48-.92-1.48-3.48 0-.6.72-1.32.92-.88 1.08-1.16.52-1.04 1.2-4.96.6-3.36.76-5.16 0-.16-.6-1.04-.76-1.08-1.16-2.16-.72-1.32-1.72-3.32-.4-.52-1.16-1.08l-1.28-.92q-.36-.2-1-.6-.44-.48-.44-1.36 0-1.64 2.08-2.44 1.68-.68 4.24-.64 3.52.04 5 .84 1.2.64 1.2 1.96 0 .8-.36 1.16-.36.36-.76.68-.4.32-.64.84-.2.52-.08 1.12.48 2.48 2.12 2.48.6 0 1.48-1.44.2-.72.68-1.68.36-.72.36-.96 0-.12-.16-.2-.12-.08-.52-.36-.48-.48-.48-1.36 0-3.08 6.32-3.08 4.88 0 4.88 2.48 0 .8-.4 1.16-.36.36-.72.64-.32.28-1.28.68-1.48.56-1.88.84-.36.28-1 1.16-2.32 2.52-2.88 3.28-1.44 1.88-1.44 3.32v.68zM129.726 135.6q-.52 0-.96.4-.4.36-.32.88l.32 4.12q.08 1.04.72 1.04 1.2 0 1.92-1.16.64-1.04.64-2.32 0-2.96-2.32-2.96zm-.12 12.4q.84 5.68 1.72 6.88.52.56 1.08 1.2.56.64.56 1.28 0 3.28-1.64 4.04-1.28.6-6.84.6-4.56 0-6.08-.84-1.48-.88-1.36-3.52.04-.6.76-1.32.88-.88 1.04-1.16.56-1.12 1.36-5.8.72-4.2 1.08-7.96-.12-4.08-1.08-4.88-.36-.2-1-.6-.48-.48-.48-1.36 0-1.64 2.08-2.44 1.68-.68 4.24-.64.92.04 1.68.08 3.56-.16 4.48-.16 3.32 0 5.84 1.32 3.12 1.6 3.12 4.64 0 3.8-4.08 6.04.4 1.24 1.72 1.84 1.96.88 2 .88 1.64 1.36 2.44 2.84.72 1.32 1.2 3.56.68 3.32 2.04 5.64.08.16 1.04 1.16.72.76.72 1.28 0 .4-.68.8-.48.28-.96.6-.72.04-2.36.32-1.36.24-2.32.24-4.16 0-5.72-3.28-.76-1.6-1.44-6.76-.6-4.32-2.04-5.6-.48-.4-1.16-.24-1.12.28-.96 1.32zM151.972 141.4q-.04-4.04-1.08-4.88-.36-.2-1-.6-.48-.48-.48-1.36 0-1.64 2.08-2.44 1.72-.68 4.24-.64 3.56.04 5 .84 1.24.64 1.24 1.96 0 .8-.4 1.16-.36.36-.76.68-.4.32-.6.88-.72 1.76-.72 5.36v.2q.36 3.44 1.12 7.24.8 4.28 1.4 5.08.52.56 1.08 1.2.6.64.6 1.28 0 3.28-1.68 4.04-1.28.6-6.84.6-4.48 0-5.96-.88-1.48-.92-1.48-3.48 0-.6.76-1.32.92-.88 1.04-1.16.56-1.12 1.36-5.8.72-4.2 1.08-7.96zM187.521 153.16q0 4.16-2.72 6.4-2.52 2.12-6.72 2.12-5.48 0-9.28-4.36-3.6-4.16-3.6-9.8 0-5.8 3.56-10.76 3.92-5.48 9.52-5.48 1.88 0 3.64 1 1.8.96 2.2.96.24 0 .6-.32.4-.32.68-.28 1.64.08 2.04 2.52.16.76.16 3.36 0 1.24-1.04 2.16-1.04.88-2.24.88-1.16 0-2.08-1.8-.92-1.8-2.12-1.8-2.36 0-3.88 1.88-1.36 1.68-1.36 3.72 0 5.56 4.2 5.56 1.04 0 3.28-1.36 2.28-1.4 3-1.4.44 0 .72.32 1.44 1.72 1.44 6.48zM208.913 157.96q.24 4.12-7.84 4.12-1.44 0-3.64-.16-2.16-.16-2.56-.16-1.84 0-3.36-1.24-1.48-1.24-1.28-2.96.16-1.12 1.28-1.88.88-.48 1.72-.96 1.12-.84 2.24-5.72 1-4.28 1-6.48 0-2.16-.4-2.4-1.24-.36-2.44-.68-1.04-.4-.72-1.44.84-2.4 4.56-3.68 2.8-.96 5.92-.96 1.12 0 2.08.72.96.68.92 1.72-.04 1.08-.56 1.32-.8.32-1 .64-.52.88-.52 3.56 0 8.24 1.24 12.48.44 1.48 1.96 2.04 1.28.52 1.4 2.12zM234.455 148.8q0 .24-.64.84t-.92.72l-17.6 7.44q-1.32.6-1.6.6-.4 0-.4-3.92l.64-.88q0-.6 2.08-1.52l11.08-4.64-11.6-4.88q-2.2-1-2.2-1.56v-1.68q0-2.88.4-2.88.28 0 1.68.6l18.76 7.96q.2.08.28 1.8.04 1 .04 2z" style="line-height:125%;-inkscape-font-specification:'Keep on Truckin\'FW, Normal';text-align:start"/></g><path d="M16.4 221.3V188H261v66.7H16.4v-33.4z" fill="#000"/><g aria-label="&lt;LYRIC2&gt;" style="line-height:0%;-inkscape-font-specification:'Keep on Truckin\'FW, Normal';text-align:start" font-weight="400" font-size="40" font-family="Keep on Truckin\'FW" fill="#fff"><path d="M68.6 231.4q0 .2-.6.36-.56.16-.88.16-.28 0-1.52-.52l-16.72-7.08q-.28-.12-.88-.68-.56-.6-.56-.84 0-1 .04-2 .08-1.72.28-1.8l18.76-7.96q1.4-.6 1.68-.6.4 0 .4 3.92l-.64.88q0 .6-2.12 1.52l-11.04 4.68 11.6 4.88q2.2.96 2.2 1.52zM86.65 235.72l-2.04.08q-1.84.24-4.8.16-5.04-.12-4.84-.12-5.04 0-5.04-3.76 0-.84 1.08-3.04 1.2-2.4 1.4-3.48.8-4.8.8-9.48-.04-4.6-1.2-5.56-.36-.2-1-.6-.48-.48-.48-1.36 0-1.64 2.08-2.44 1.72-.68 4.24-.64 3.56.04 5 .84 1.24.64 1.24 1.96 0 .8-.4 1.16-.36.36-.76.68-.4.32-.6.88-.72 1.72-.72 4.84 0 4.36.08 4.84.88 5.48 2.64 5.48 1.16 0 2.24-.72 1.6-1.04 2.16-1.28 1.08-.44 1.6-.44t1.04.36q.96.68 1.12.96.32.64.32 2.68 0 5.08-1.52 7.04-.8 1-2.24 1-.24 0-.76-.04-.44-.04-.64 0zM108.425 219.72q1.2 7.92 2.12 9.16.52.56 1.08 1.2.56.64.56 1.28 0 3.28-1.68 4.04-1.24.6-6.8.6-4.48 0-5.96-.88-1.48-.92-1.48-3.48 0-.6.72-1.32.92-.88 1.08-1.16.52-1.04 1.2-4.96.6-3.36.76-5.16 0-.16-.6-1.04-.76-1.08-1.16-2.16-.72-1.32-1.72-3.32-.4-.52-1.16-1.08l-1.28-.92q-.36-.2-1-.6-.44-.48-.44-1.36 0-1.64 2.08-2.44 1.68-.68 4.24-.64 3.52.04 5 .84 1.2.64 1.2 1.96 0 .8-.36 1.16-.36.36-.76.68-.4.32-.64.84-.2.52-.08 1.12.48 2.48 2.12 2.48.6 0 1.48-1.44.2-.72.68-1.68.36-.72.36-.96 0-.12-.16-.2-.12-.08-.52-.36-.48-.48-.48-1.36 0-3.08 6.32-3.08 4.88 0 4.88 2.48 0 .8-.4 1.16-.36.36-.72.64-.32.28-1.28.68-1.48.56-1.88.84-.36.28-1 1.16-2.32 2.52-2.88 3.28-1.44 1.88-1.44 3.32v.68zM129.726 209.6q-.52 0-.96.4-.4.36-.32.88l.32 4.12q.08 1.04.72 1.04 1.2 0 1.92-1.16.64-1.04.64-2.32 0-2.96-2.32-2.96zm-.12 12.4q.84 5.68 1.72 6.88.52.56 1.08 1.2.56.64.56 1.28 0 3.28-1.64 4.04-1.28.6-6.84.6-4.56 0-6.08-.84-1.48-.88-1.36-3.52.04-.6.76-1.32.88-.88 1.04-1.16.56-1.12 1.36-5.8.72-4.2 1.08-7.96-.12-4.08-1.08-4.88-.36-.2-1-.6-.48-.48-.48-1.36 0-1.64 2.08-2.44 1.68-.68 4.24-.64.92.04 1.68.08 3.56-.16 4.48-.16 3.32 0 5.84 1.32 3.12 1.6 3.12 4.64 0 3.8-4.08 6.04.4 1.24 1.72 1.84 1.96.88 2 .88 1.64 1.36 2.44 2.84.72 1.32 1.2 3.56.68 3.32 2.04 5.64.08.16 1.04 1.16.72.76.72 1.28 0 .4-.68.8-.48.28-.96.6-.72.04-2.36.32-1.36.24-2.32.24-4.16 0-5.72-3.28-.76-1.6-1.44-6.76-.6-4.32-2.04-5.6-.48-.4-1.16-.24-1.12.28-.96 1.32zM151.972 215.4q-.04-4.04-1.08-4.88-.36-.2-1-.6-.48-.48-.48-1.36 0-1.64 2.08-2.44 1.72-.68 4.24-.64 3.56.04 5 .84 1.24.64 1.24 1.96 0 .8-.4 1.16-.36.36-.76.68-.4.32-.6.88-.72 1.76-.72 5.36v.2q.36 3.44 1.12 7.24.8 4.28 1.4 5.08.52.56 1.08 1.2.6.64.6 1.28 0 3.28-1.68 4.04-1.28.6-6.84.6-4.48 0-5.96-.88-1.48-.92-1.48-3.48 0-.6.76-1.32.92-.88 1.04-1.16.56-1.12 1.36-5.8.72-4.2 1.08-7.96zM187.521 227.16q0 4.16-2.72 6.4-2.52 2.12-6.72 2.12-5.48 0-9.28-4.36-3.6-4.16-3.6-9.8 0-5.8 3.56-10.76 3.92-5.48 9.52-5.48 1.88 0 3.64 1 1.8.96 2.2.96.24 0 .6-.32.4-.32.68-.28 1.64.08 2.04 2.52.16.76.16 3.36 0 1.24-1.04 2.16-1.04.88-2.24.88-1.16 0-2.08-1.8-.92-1.8-2.12-1.8-2.36 0-3.88 1.88-1.36 1.68-1.36 3.72 0 5.56 4.2 5.56 1.04 0 3.28-1.36 2.28-1.4 3-1.4.44 0 .72.32 1.44 1.72 1.44 6.48zM192.873 211.96q0-2.12 2.6-3.4 2.12-1.08 4.52-1.08 2.96 0 5.24 1.16 2.88 1.44 2.88 4.12 0 1.92-1.6 3.8-.56.64-3.16 2.92-1.84 1.6-2.16 2.68.32.96 1.72 1.12h2.16q3.88 0 4.16.4.56.24.56 1.68 0 .48-.08 1.28-.08.76-.08.92 0 2.92-.52 5.28-.84 3.76-2.76 3.76-1.12 0-1.88-1.04-6.08.6-6.88.6-4 0-5.76-.96-2.48-1.28-2.48-4.84 0-.96 1.88-3.6 1.24-1.72 2.52-3.4l3.2-4.24q2.04-2.92 2.04-4.72 0-.6-.36-1.32-.36-.72-.92-.72-.44 0-1.08.68-.64.68-.76.72-.4.08-.76.08-.6 0-1.32-.4-.68-.44-.84-1-.08-.2-.08-.48zM234.455 222.8q0 .24-.64.84t-.92.72l-17.6 7.44q-1.32.6-1.6.6-.4 0-.4-3.92l.64-.88q0-.6 2.08-1.52l11.08-4.64-11.6-4.88q-2.2-1-2.2-1.56v-1.68q0-2.88.4-2.88.28 0 1.68.6l18.76 7.96q.2.08.28 1.8.04 1 .04 2z" style="line-height:125%;-inkscape-font-specification:'Keep on Truckin\'FW, Normal';text-align:start"/></g><path d="M16.4 297.3V264H261v66.7H16.4v-33.4z" fill="#000"/><g aria-label="&lt;LYRIC3&gt;" style="line-height:0%;-inkscape-font-specification:'Keep on Truckin\'FW, Normal';text-align:start" font-weight="400" font-size="40" font-family="Keep on Truckin\'FW" fill="#fff"><path d="M68.6 307.4q0 .2-.6.36-.56.16-.88.16-.28 0-1.52-.52l-16.72-7.08q-.28-.12-.88-.68-.56-.6-.56-.84 0-1 .04-2 .08-1.72.28-1.8l18.76-7.96q1.4-.6 1.68-.6.4 0 .4 3.92l-.64.88q0 .6-2.12 1.52l-11.04 4.68 11.6 4.88q2.2.96 2.2 1.52zM86.65 311.72l-2.04.08q-1.84.24-4.8.16-5.04-.12-4.84-.12-5.04 0-5.04-3.76 0-.84 1.08-3.04 1.2-2.4 1.4-3.48.8-4.8.8-9.48-.04-4.6-1.2-5.56-.36-.2-1-.6-.48-.48-.48-1.36 0-1.64 2.08-2.44 1.72-.68 4.24-.64 3.56.04 5 .84 1.24.64 1.24 1.96 0 .8-.4 1.16-.36.36-.76.68-.4.32-.6.88-.72 1.72-.72 4.84 0 4.36.08 4.84.88 5.48 2.64 5.48 1.16 0 2.24-.72 1.6-1.04 2.16-1.28 1.08-.44 1.6-.44t1.04.36q.96.68 1.12.96.32.64.32 2.68 0 5.08-1.52 7.04-.8 1-2.24 1-.24 0-.76-.04-.44-.04-.64 0zM108.425 295.72q1.2 7.92 2.12 9.16.52.56 1.08 1.2.56.64.56 1.28 0 3.28-1.68 4.04-1.24.6-6.8.6-4.48 0-5.96-.88-1.48-.92-1.48-3.48 0-.6.72-1.32.92-.88 1.08-1.16.52-1.04 1.2-4.96.6-3.36.76-5.16 0-.16-.6-1.04-.76-1.08-1.16-2.16-.72-1.32-1.72-3.32-.4-.52-1.16-1.08l-1.28-.92q-.36-.2-1-.6-.44-.48-.44-1.36 0-1.64 2.08-2.44 1.68-.68 4.24-.64 3.52.04 5 .84 1.2.64 1.2 1.96 0 .8-.36 1.16-.36.36-.76.68-.4.32-.64.84-.2.52-.08 1.12.48 2.48 2.12 2.48.6 0 1.48-1.44.2-.72.68-1.68.36-.72.36-.96 0-.12-.16-.2-.12-.08-.52-.36-.48-.48-.48-1.36 0-3.08 6.32-3.08 4.88 0 4.88 2.48 0 .8-.4 1.16-.36.36-.72.64-.32.28-1.28.68-1.48.56-1.88.84-.36.28-1 1.16-2.32 2.52-2.88 3.28-1.44 1.88-1.44 3.32v.68zM129.726 285.6q-.52 0-.96.4-.4.36-.32.88l.32 4.12q.08 1.04.72 1.04 1.2 0 1.92-1.16.64-1.04.64-2.32 0-2.96-2.32-2.96zm-.12 12.4q.84 5.68 1.72 6.88.52.56 1.08 1.2.56.64.56 1.28 0 3.28-1.64 4.04-1.28.6-6.84.6-4.56 0-6.08-.84-1.48-.88-1.36-3.52.04-.6.76-1.32.88-.88 1.04-1.16.56-1.12 1.36-5.8.72-4.2 1.08-7.96-.12-4.08-1.08-4.88-.36-.2-1-.6-.48-.48-.48-1.36 0-1.64 2.08-2.44 1.68-.68 4.24-.64.92.04 1.68.08 3.56-.16 4.48-.16 3.32 0 5.84 1.32 3.12 1.6 3.12 4.64 0 3.8-4.08 6.04.4 1.24 1.72 1.84 1.96.88 2 .88 1.64 1.36 2.44 2.84.72 1.32 1.2 3.56.68 3.32 2.04 5.64.08.16 1.04 1.16.72.76.72 1.28 0 .4-.68.8-.48.28-.96.6-.72.04-2.36.32-1.36.24-2.32.24-4.16 0-5.72-3.28-.76-1.6-1.44-6.76-.6-4.32-2.04-5.6-.48-.4-1.16-.24-1.12.28-.96 1.32zM151.972 291.4q-.04-4.04-1.08-4.88-.36-.2-1-.6-.48-.48-.48-1.36 0-1.64 2.08-2.44 1.72-.68 4.24-.64 3.56.04 5 .84 1.24.64 1.24 1.96 0 .8-.4 1.16-.36.36-.76.68-.4.32-.6.88-.72 1.76-.72 5.36v.2q.36 3.44 1.12 7.24.8 4.28 1.4 5.08.52.56 1.08 1.2.6.64.6 1.28 0 3.28-1.68 4.04-1.28.6-6.84.6-4.48 0-5.96-.88-1.48-.92-1.48-3.48 0-.6.76-1.32.92-.88 1.04-1.16.56-1.12 1.36-5.8.72-4.2 1.08-7.96zM187.521 303.16q0 4.16-2.72 6.4-2.52 2.12-6.72 2.12-5.48 0-9.28-4.36-3.6-4.16-3.6-9.8 0-5.8 3.56-10.76 3.92-5.48 9.52-5.48 1.88 0 3.64 1 1.8.96 2.2.96.24 0 .6-.32.4-.32.68-.28 1.64.08 2.04 2.52.16.76.16 3.36 0 1.24-1.04 2.16-1.04.88-2.24.88-1.16 0-2.08-1.8-.92-1.8-2.12-1.8-2.36 0-3.88 1.88-1.36 1.68-1.36 3.72 0 5.56 4.2 5.56 1.04 0 3.28-1.36 2.28-1.4 3-1.4.44 0 .72.32 1.44 1.72 1.44 6.48zM197.513 302.08q.84-1.56.84-2.72 0-1.04-.68-1.84-.36-.36-2.32-1.24-1.48-.68-1.64-1.88.44-1.2 2.68-1.88 2-.6 2.04-2.24.04-2.36-2.6-2.36-1.28 0-2.24.88-.96.84-1.44.84-.64 0-1.32-.44-.64-.44-.64-1 0-2.32 2.96-3.8 2.6-1.24 5.92-1.24 7.04 0 7.2 5.4.04 1.36-.72 2.4-.48.68-1.56 2.08l2.08 1.28q1.68 1.12 2.6 2.72 1.28 2.24 1.28 5.68 0 10.56-12.12 10.28-3.68-.12-6.16-1.64-2.6-1.64-2.48-4.08.12-2.16 1.72-2.56 1.68-.12 3.36-.28 2.16-.36 3.24-2.36zM234.455 298.8q0 .24-.64.84t-.92.72l-17.6 7.44q-1.32.6-1.6.6-.4 0-.4-3.92l.64-.88q0-.6 2.08-1.52l11.08-4.64-11.6-4.88q-2.2-1-2.2-1.56v-1.68q0-2.88.4-2.88.28 0 1.68.6l18.76 7.96q.2.08.28 1.8.04 1 .04 2z" style="line-height:125%;-inkscape-font-specification:'Keep on Truckin\'FW, Normal';text-align:start"/></g><g font-weight="400" font-size="30" font-family="Keep on Truckin\'FW" fill="#000"><g aria-label="The Festive" style="line-height:0%;-inkscape-font-specification:'Keep on Truckin\'FW, Normal';text-align:start"><path d="M39.297 36.726q.666 2.572 1.523 4.996.933 2.747 1.395 3.227.445.361.928.778.513.412.58.888.344 2.435-.824 3.176-.888.58-5.017 1.163-3.297.465-4.518-.029-1.196-.528-1.464-2.429-.063-.445.426-1.06.59-.75.65-.97.324-.925.432-4.454.128-3.382-.033-6.025-.037-.692-.334-3.225l-.47-.115q-.387.054-.583.809-.274 1.069-.554 1.442-.583.809-1.89.994-1.099.155-1.526-.512-.271-.416-.452-1.694-.188-1.336.408-2.905.652-1.82 1.81-1.983.417-.058 1.282.062.861.09 1.277.032 4.99-.705 6.663-1.093.144-.05.39-.237.247-.186.455-.215 1.247-.176 2.37 1.332.969 1.287 1.166 2.683.356 2.525-1.545 2.793-1.07.151-1.95-1.149-.884-1.329-1.567-1.232l-.28.16q.227.968.948 3.714zM45.338 31.813q-.704-.264-.742-.319-.394-.217-.482-.84-.168-1.189 1.442-2.446 2.043-1.622 4.242-1.932.89-.126.906 1.053l.025 5.329q.02.785.97.65.06-.008 1.309-1.032 1.245-1.055 2.582-1.243 1.633-.231 2.756 1.065.182.216 1.655 4.856.874 2.755 1.713 5.484.19.488.906 1.478.711.96.766 1.346.293 2.08-4.43 2.747-1.337.188-2.3-.19-1.19-.5-1.367-1.747-.105-.742-.092-3.229.008-2.515-.164-3.733-.406-2.882-1.924-3.546-1.307.184-.963 2.62.13.921.617 3.73.105.531.558 1.376.453.845.524 1.35.239 1.693-1.253 3.146-1.325 1.339-3.078 1.586-1.248.176-2.261-.135-1.298-.393-1.453-1.492-.092-.653.245-1.7.435-1.425.512-1.74.763-5.106-.166-10.186-.353-2.071-1.053-2.306zM72.332 39.273q.462-.156 1.231-.72.684-.52 1.13-.583.831-.118 1.505.363.7.447.817 1.278.357 2.525-1.28 4.453-1.611 1.894-4.166 2.255-3.267.46-5.53-1.825-2.045-2.044-2.519-5.401-.487-3.446 1.037-6.388 1.724-3.243 5.05-3.712 2.407-.34 4.136.749 1.86 1.161 2.192 3.508.138.98-.86 1.636-.887.58-2.343.785-1.693.24-2.897-.136-.348-.102-.586-.069-.416.06-.565.504-.043.34.007.696.139.98 1.08 1.847.97.863 1.967.844zm-2.542-7.7q-.742.104-1.303.638-.536.5-.435 1.213.08.564 1.179.409 1.93-.273 2.037-.379.352-.08.277-.614-.093-.654-.627-1.003-.504-.353-1.128-.265zM87.966 28.31l-.004-.03q-.454-2.996-1.314-3.511-.289-.11-.806-.34-.407-.307-.499-.96-.172-1.218 1.289-2.03 1.206-.686 3.082-.92.148-.022.45-.034l.415-.058 2.05-.29q1.04-.147 3.026-.67 1.982-.552 2.933-.686 1.248-.176 2.187 1.327.74 1.168.946 2.623.13.921-.168 1.6-.337.835-1.168.952-.713.101-1.332-.63-.914-1.113-1.279-1.334-1.004-.676-2.663-.412-2.042.35-1.89 1.419.155 1.099 1.1 1.571.844.396 2.002.233.238-.034.586-.356.344-.351.612-.39.475-.066.974 3.469.063.445-.154.84-.217.394-.663.457-.326.046-1.153-.656-.826-.701-1.687-.58-.683.097-.799.568-.055.25.04 1.145.402 3.7 1.585 6.715.245.662 1.928 1.848 1.517 1.089 1.558 2.022.049.993-1.763 1.25-.475.066-1.409.107-.93.07-1.315.125l-5.577.848q-1.515.214-1.724-1.271-.084-.594.511-1.527l.953-1.407q.69-1.127.47-2.46zM110.218 33.924q.462-.157 1.231-.72.684-.52 1.13-.583.831-.118 1.505.363.7.446.817 1.278.356 2.525-1.28 4.453-1.611 1.894-4.166 2.254-3.267.462-5.53-1.825-2.045-2.044-2.52-5.4-.486-3.446 1.038-6.388 1.724-3.243 5.05-3.713 2.407-.34 4.136.75 1.86 1.16 2.192 3.508.138.98-.86 1.636-.887.58-2.343.785-1.693.24-2.897-.136-.348-.102-.586-.069-.416.059-.565.504-.043.34.007.696.139.98 1.08 1.847.97.863 1.967.843zm-2.542-7.7q-.743.104-1.303.638-.536.5-.435 1.212.08.565 1.179.41 1.93-.273 2.037-.379.352-.08.276-.615-.092-.653-.626-1.002-.504-.353-1.128-.265zM115.615 26.557q-.277-1.961 1.049-3.3 1.186-1.258 3.206-1.543 2.524-.356 4.372 1.14 1.496 1.152 1.634 2.133.164 1.158-1.53 1.397-.831.118-1.712-.97-.88-1.088-1.415-1.012-.357.05-.646.364-.263.28-.213.636.113.802 1.851 1.526 2.413.992 3.303 1.715 1.88 1.522 2.263 4.225.314 2.228-1.31 4.033-1.517 1.699-3.745 2.013-6.06.856-6.857-4.788-.188-1.337.762-1.471.268-.038.743.107.5.111.767.074 1.13-.16.97-1.289-.11-.772-1.694-2.124-1.589-1.381-1.798-2.866zM140.538 32.612q.256 1.812-1.426 3.2-1.41 1.17-3.342 1.442-4.901.692-5.555-3.942-.18-1.278-.007-3.908.174-2.63-.014-3.967-.18-1.277-.872-1.452-.632.029-1.235.053-.704-.052-.868-.998-.21-1.061.18-1.51.26-.31 1.003-.415.089-.012.271-.008l.268-.037q.89-.126 1.155-.618.412-.725.622-2.027.21-1.302.427-1.696.409-.755 1.508-.91 1.93-.273 2.183 1.51.025.178.05.568l.08.565q.13.92.519 1.32.635.637 1.467.52.149-.02.441-.093.293-.071.412-.088.683-.096.864 1.18.163 1.16-.995 1.323-.149.02-.446.063-.301.012-.45.033-1.604.227-1.323 2.217.18 1.277 1.094 3.45 1.056 2.548 1.913 2.821.653.12 1.28.274.658.15.796 1.13zM146.525 14.436q.18 1.277-1.086 2.395-1.1 1.004-2.437 1.193-1.159.163-2.036-.258-1.013-.524-1.169-1.623-.163-1.158 1.17-2.225 1.14-.949 2.417-1.129 1.07-.15 1.942.24 1.06.427 1.199 1.407zm-6.462 8.093q-.201-1.426 1.99-2.856 1.941-1.274 3.664-1.517.564-.08 1.166.532.627.578.583 1.13.118.831-.008 2.515-.096 1.68.026 2.542.256 1.812 1.808 4.652 1.552 2.841 1.56 2.9.206 1.456-1.463 2.51-1.312.791-2.976 1.026-1.752.248-3.143-.162-1.802-.533-2.02-2.078-.03-.208.653-2.668.708-2.493.495-4.644-.108-.985-.48-1.902-.199-.335-.563-.769-.416-.153-.806-.34-.39-.188-.486-.871zM153.356 23.44q-.648-.727-2.12-1.277-.703-.264-.737-.29-.369-.25-.457-.874-.167-1.188 1.443-2.446 1.635-1.291 3.562-1.806.522-.164.998-.231 1.752-.248 1.924.97.055.386.184 1.943.129 1.558.179 1.914.084.594.524 1.35.55.892 1.085.817.564-.08.846-1.09.268-.886.176-1.54-.059-.415-.503-1.2-.444-.786-.503-1.202-.159-1.129 1.068-1.878.952-.558 2.259-.743 3.03-.428 3.285 1.384.101.713-.732 1.891-1.008 1.445-1.132 1.857-.11.288-1.67 6.628-1.328 5.399-1.744 5.67-.527.347-.943.406-2.138.302-6.252-8.661-.528-1.38-.74-1.593zM176.358 24.585q.463-.156 1.232-.72.684-.52 1.13-.583.831-.118 1.505.363.7.447.817 1.278.356 2.525-1.28 4.453-1.611 1.894-4.166 2.255-3.268.461-5.53-1.825-2.045-2.044-2.52-5.401-.486-3.446 1.038-6.388 1.723-3.243 5.05-3.712 2.407-.34 4.136.749 1.86 1.161 2.192 3.508.138.98-.86 1.636-.888.58-2.343.785-1.693.24-2.898-.136-.347-.102-.585-.069-.416.06-.565.504-.043.34.007.696.139.98 1.08 1.847.97.863 1.966.844zm-2.541-7.7q-.743.104-1.304.638-.535.5-.434 1.213.08.564 1.178.409 1.931-.273 2.038-.379.352-.08.276-.614-.092-.654-.626-1.003-.504-.353-1.128-.265z" style="line-height:125%;-inkscape-font-specification:'Keep on Truckin\'FW, Normal';text-align:start"/></g><g aria-label="KTaNE" style="line-height:0%;-inkscape-font-specification:'Keep on Truckin\'FW, Normal';text-align:start"><path d="M74.823 65.95q1.914 5.856 2.683 6.64.454.351.947.756.522.4.6.873.403 2.427-.747 3.196-.873.6-4.987 1.283-3.58.595-4.784-.057-.448.044-.601-.509-.463-.592-.655-1.746-.073-.444.4-1.07.573-.764.628-.986 1.166-3.782.116-10.48-.526-2.985-1.398-3.478-.291-.104-.814-.322-.384-.3-.492-.952-.202-1.213 1.24-2.06 1.159-.71 3.058-.995 2.609-.402 3.802.008.967.326 1.129 1.303.098.592-.154.907-.222.311-.479.597-.227.28-.336.725-.158.695-.11 1.72.207 1.061.917.943 2.427-.402 1.956-3.243-.074-.444-.542-.884-.468-.439-.542-.883-.182-1.095 1.072-1.79 1.085-.605 3.71-1.101 1.622-.3 2.19-.181.98.232 1.24 1.618.158.947-1.001 1.474l-1.786.6q-.844.414-1.486 1.676-.919 1.795-.506 4.099.427 2.392 4.317 5.122 2.474 1.718 4.83 2.726.524.217 2.25 1.087.23.113.462.592.261.474.31.77.177 1.065-.617 1.592-.523.33-1.796.541l-3.463.575q-1.124.186-1.948-.194-1.045-.435-2.902-3.38-1.517-2.546-3.064-5.088-1.68-2.61-2.42-2.487-.153-.005-.222.128t-.005.335zM100.175 60.163q.728 2.555 1.644 4.958.999 2.723 1.472 3.192.454.35.947.755.522.4.6.873.403 2.427-.746 3.196-.874.6-4.988 1.283-3.285.545-4.517.08-1.208-.498-1.523-2.392-.073-.444.4-1.07.573-.764.628-.986.301-.932.324-4.463.046-3.384-.178-6.022-.054-.69-.412-3.216l-.474-.104q-.385.064-.563.823-.247 1.075-.519 1.455-.562.823-1.865 1.039-1.095.181-1.538-.475-.28-.41-.492-1.682-.221-1.332.337-2.915.608-1.834 1.763-2.025.414-.069 1.282.03.863.07 1.277.001 4.972-.825 6.635-1.253.143-.054.385-.246.241-.192.449-.226 1.243-.207 2.4 1.274 1 1.263 1.232 2.654.417 2.516-1.477 2.83-1.066.177-1.977-1.101-.916-1.308-1.597-1.195l-.276.167q.25.962 1.038 3.69zM120.829 67.288q.28 1.687-1.19 2.904-1.254 1.06-3.06 1.36-.799.132-1.696-.145-.902-.306-1.198-.257-.415.069-1.258.482-.82.38-1.293.458-1.657.275-2.998-.84-1.34-1.116-1.62-2.803-.413-2.486 1.048-4.675 1.393-2.056 3.786-3.03.29-.08.819-.38.557-.305.415-1.163-.33-1.983-1.454-1.796-.68.112-1.061.936-.356.789-.687 1.543-.558.853-1.593 1.025-.563.093-.992-.292-.399-.39-.492-.952-.324-1.954 1.778-3.397 1.638-1.123 3.917-1.501 2.96-.491 4.147.802.75.848 1.167 3.364l.073.444q.359 2.16.876 3.26.182.366 1.36 2.512 1.201 2.112 1.206 2.141zm-7.672-3.714q-.132-.8-.354-.854-.05-.113-.227-.084-.74.123-1.041.873-.306.72-.184 1.46.26 1.568 1.385 1.381.415-.068.539-.97.104-.657.02-1.16l-.054-.325q-.064-.203-.084-.321zM129.474 58.768q.123.74.984 2.635.887 1.86 1.251 2.225.395.36.819.716.527.43.694.888.187.577.266 1.05.216 1.303-.643 1.993-.7.542-2.669.96-.897.27-3.975.78-1.184.197-2.506-.07-1.159-.203-1.632-.854-.409-.45-.521-1.13l-.04-.237-.054-.326q-.064-.384.252-.862l.568-.794q.328-3.521.232-6.485-.063-2.392-.263-4.336-.29-2.84-1.398-3.478-.291-.104-.814-.321-.414-.296-.522-.947-.201-1.214 1.24-2.061 1.159-.71 3.058-.994 3.236-.476 4.295.23 1.544.687 3.243 3.963 1.861 3.522 3.237 4.48.34.218.675.04.282-.503.14-1.36-.054-.326-.256-.992l-.025-.148-.04-.055q-.206-.695-.457-1.475-.778-1.574-2.055-2.304-.29-.104-.813-.322-.385-.3-.493-.952-.201-1.213 1.24-2.06 1.16-.71 3.058-.994 2.61-.403 3.803.007.966.326 1.128 1.303.098.592-.124.903-.222.31-.479.596-.256.286-.365.73-.252.68-.5 1.39-.35 1.184-.124 2.545l.063.385q.33 1.618 1.733 4.76 1.32 3.005 1.61 4.751.382 2.308.145 3.26-.39 1.494-2.344 1.818-2.16.359-4.373-2.163-.567-.666-3.291-4.806-1.71-2.606-2.716-2.439-.326.054-.242.557zM144.154 49.582q-.433-1.51-1.034-1.836-.291-.103-.814-.32-.414-.297-.522-.948-.201-1.214 1.24-2.06 1.189-.715 3.058-.995.355-.059 1.075-.117.75-.064 1.135-.128 1.006-.167 3.26-.693 2.255-.526 3.202-.683 1.272-.211 2.248 1.27.739 1.154.98 2.604.151.917-.1 1.598-.346.848-1.175.985-.8.133-1.484-.514-1.01-.957-1.504-1.18-1.222-.587-3.353-.234l-.651.108q-.277.168-.297.78-.025.216.01.423.162.977 1.242 1.437.946.39 2.13.193.237-.039.508-.418.301-.385.538-.424.444-.074.552.577.172 1.036.063 2.027-.164 1.396-.904 1.519-.473.078-1.04-.588-.537-.671-1.366-.534-.947.158-.687 1.726.614 3.7 4.905 2.988.178-.03.548-.182.37-.153.587-.128.212-.005.36-.03.74-.122 1.096-.911.385-.794.68-.843.445-.074.869.464.423.538.507 1.041.049.296.314 1.53.29 1.198.423 1.997.6 3.61-.704 4.922-.498.478-3.695 1.008-.888.147-2.422.432-1.267.241-2.486.413l-5.568.893q-1.515.221-1.75-1.2-.094-.562.277-1.08.617-.862.676-1.054l.415-.982q.301-.749-.057-3.457l-1.03-7.675q-.103-.986-.255-1.721z" style="line-height:125%;-inkscape-font-specification:'Keep on Truckin\'FW, Normal';text-align:start"/></g><g aria-label="Jukebox!" style="line-height:0%;-inkscape-font-specification:'Keep on Truckin\'FW, Normal';text-align:start"><path d="M63.396 91.131q-.458-3.026-1.318-3.54-.289-.111-.806-.341-.377-.31-.47-.964-.171-1.218 1.29-2.03 1.176-.681 3.081-.92 2.618-.34 3.801.1.959.349 1.097 1.33.084.593-.175.903-.23.305-.493.584-.234.276-.354.717-.35 1.382.028 4.056l-.009-.06q.223 1.15.893 3.964.599 2.521.8 3.947.453 3.209-1.074 5.272-1.526 2.064-4.705 2.513-3.178.448-5.174-.815-2.128-1.336-2.568-4.455-.122-.861.139-2.019.312-1.438 1.033-1.691.344-.14.612-.177.831-.118 1.585.927.783 1.041 1.734.907 2.346-.332 1.7-4.906-.1-.713-.563-3.132-.072-.08-.084-.17zM72.656 92.641q-.704-.264-.737-.29-.37-.25-.457-.874-.164-1.159 1.417-2.412 2.068-1.656 4.237-1.962.92-.13.936 1.05l.02 5.723q.046.327.114.59.6 1.673 2.114 1.459.268-.038.59-.114.637-.211.923-1.19.222-.79.117-1.532-.189-1.337-.803-1.826-.585-.493-.669-1.087-.226-1.604 1.244-2.781 1.249-1.025 2.972-1.268.742-.105 1.344.295.598.37.698 1.083.185 1.307.227 3.967.038 2.63.223 3.938.08.564.897 1.206.848.638.894.965.235 1.663-.668 3.639-.996 2.17-2.6 2.397-.268.038-1.005-.464-.708-.506-1.005-.464-.267.037-1.38.74-1.112.702-2.093.84-5.466.772-6.15-4.07-.234-1.663-.292-5.078-.404-2.216-1.108-2.48zM89.217 85q-.737-.289-.805-.34-.365-.221-.453-.845-.168-1.188 1.442-2.446 2.044-1.621 4.242-1.932.891-.126.906 1.054l.038 5.63q.063.233.105.53.088.624.621 1.61.605 1.065 1.097 1.117.526.077 1.096-.821.498-.767.61-1.48-.174-.37-.233-.785-.227-1.392.898-2.005.62-.33 1.932-.485 1.196-.109 2.282.071 1.552.266 1.674 1.127.1.713-1.492 2.09-1.946 1.668-2.24 2.164.062.87 1.863 2.464l3.38 2.916q1.886 1.763 2.045 2.892.256 1.812-1.48 2.603-.455.215-3.188.813-1.914.392-3.13-1.133-.668-.875-1.64-3.465-.916-2.415-1.628-3.163l-.161-.068q-.162.356-.116.682.067.476.164.947.127.467.152.645.054.386.21 1.273.151.857.218 1.333.361 2.554-.515 3.647-.234.276-1.54.673-1.075.333-1.669.417-1.307.184-2.405-.297-.937-.413-1.071-1.363-.072-.505.104-1.409.137-.746.27-1.522.351-2.232.131-5.079-.013-.089-.564-5.07l-.03.004Q89.95 85.26 89.217 85zM117.094 92.305q.462-.156 1.231-.72.684-.52 1.13-.583.832-.117 1.505.363.7.447.817 1.279.357 2.525-1.28 4.452-1.611 1.894-4.166 2.255-3.267.461-5.53-1.825-2.045-2.044-2.519-5.4-.486-3.447 1.037-6.388 1.724-3.243 5.05-3.713 2.407-.34 4.136.75 1.86 1.16 2.192 3.507.139.98-.86 1.636-.887.58-2.343.786-1.693.239-2.897-.136-.348-.103-.586-.07-.416.06-.565.505-.043.339.008.695.138.98 1.078 1.848.97.863 1.968.843zm-2.542-7.7q-.742.105-1.303.638-.536.5-.435 1.213.08.564 1.179.41 1.93-.273 2.037-.38.352-.08.277-.614-.093-.654-.627-1.002-.504-.353-1.128-.265zM129.595 83.965q-1.13.16-.894 1.823.587 4.16 1.087 4.482.267.175.683.116.891-.126 1.27-1.3.29-.95.144-1.99-.147-1.04-.705-1.99-.694-1.266-1.585-1.14zm-7.627-3.589q-.738-.29-.806-.34-.364-.221-.452-.845-.168-1.188 1.412-2.442 2.073-1.626 4.272-1.936.89-.126.906 1.054l-.01.789q-.02 1.578.09 4.714-.043.127-.03.216.05.356.538.166 1.453-1.083 1.619-1.198 1.002-.626 1.864-.748 2.109-.297 4.089 2.998 1.62 2.68 1.969 5.145.524 3.714-.952 6.134-1.596 2.649-5.19 3.156-1.485.21-3.445-.15l-3.359-.616q-.22-.06-.382-.128-.423-.213-.554-.497-.313-.714-.326-.803-.075-.534.343-1.866-.025-.39-.115-4.892-.085-2.957-.362-4.918-.385-2.733-1.119-2.993zM138.406 87.993q-.457-3.238 1.148-6.464 1.8-3.556 4.92-3.997 3.178-.449 5.625 2.296 2.164 2.452 2.638 5.808.428 3.03-1.235 5.84-1.753 3.035-4.724 3.455-3.475.49-5.729-1.524-2.144-1.879-2.643-5.414zm8.744-2.234q-.21-1.486-.814-2.976-.845-2.122-1.826-1.984-.683.097-.922.979-.205.695-.096 1.467.193 1.367.807 2.492.816 1.49 1.945 1.331.445-.063.696-.431.277-.403.21-.878zM152.625 79.987q-.201-1.426 2.08-2.87 1.945-1.243 3.608-1.478.773-.11.877.633.093.654.082 2.08-.015 1.395.081 2.078.151 1.07 1.211 1.496.616-.572 1.467-1.844 1.004-1.474.924-2.039-.03-.208-.322-.56-.292-.353-.325-.59-.218-1.545 2.128-1.877 2.258-.318 2.468 1.167.08.564-.516 1.285-.833.966-.901 1.127-.808 1.356-1.613 2.742-1.055 1.755-1.06 2.786-.006 1.03 1.332 2.144.62.52 2.514 1.706.657.362 1.31.694.767.497.85 1.091.286 2.02-3.19 2.511l-1.515.214q-2.822.398-3.065-1.325-.071-.505.311-1.013.379-.538.337-.835-.063-.446-.457-1.087-.397-.671-.78-.587-.424.424-.762 1.895-.342 1.442-.262 2.007.21 1.485-2.85 1.917-2.406.34-2.616-1.146-.088-.623.58-1.263.879-.851.994-1.11.761-1.259 1.519-2.547.961-1.56.9-2.642-.03-.632-1.118-1.478-.844-.608-1.662-1.25-.173-.158-1.513-.847-.945-.473-1.046-1.185zM177.137 70.83q.176 1.247-.628 2.845-.681 1.4-.685 3.52-.03 2.58-.14 3.08-.099.378-.68.763-.582.385-.968.44-1.486.21-1.795.162-1.15-.2-1.38-1.623l-.349-2.465q-.164-1.159-1.32-2.692-1.155-1.534-1.268-2.76-.15-1.494 1.278-2.755 1.262-1.148 2.806-1.366 1.515-.214 3.105.53 1.819.865 2.024 2.32zm1.407 16.828q.252 1.783-.777 2.867-.918 1.008-2.7 1.26-1.575.222-2.63-.598-1.05-.791-1.273-2.366-.218-1.544.6-3.265.944-1.891 2.4-2.097 1.545-.218 2.904 1.257 1.25 1.338 1.476 2.942z" style="line-height:125%;-inkscape-font-specification:'Keep on Truckin\'FW, Normal';text-align:start"/></g></g></svg>