<svg xmlns="http://www.w3.org/2000/svg" xml:space="preserve" fill="none" stroke="#000" stroke-width="2" viewBox="0 0 347 347"><path d="M5 5h337v337H5z"/><circle cx="298" cy="40" r="16"/><path fill="#000" stroke-width="1.94" d="M170.81 92.8C167.75 96 95.8 171.67 95.8 213.3c0 42.46 34.53 76.98 77 76.98 42.46 0 76.98-34.53 76.98-76.98 0-41.64-71.97-117.3-75.03-120.5a2.8 2.8 0 0 0-3.93 0zm1.96 192.05c-39.45 0-71.55-32.11-71.55-71.57 0-35.78 59.85-102.03 71.55-114.63 11.7 12.6 71.56 78.86 71.56 114.63 0 39.46-32.1 71.57-71.56 71.57z"/><path fill="#060606" stroke-width="6.6" d="M28.3 22.43h192.58V62H28.3z"/><path fill="#fff" stroke="#fff" stroke-width=".84" d="M78.18 53.84V37.92c0-4.54-2.73-7.78-6.34-8.34-.5-.04-5.27-.09-5.74-.09-1.7 0-4.53 4.07-4.53 4.07.14-.14.41-.23.88-.32a4.28 4.28 0 0 0-.28 1.71v23.7c0 1.8-.37 3.33-1.43 4.3.5-.32 1.1-.64 1.7-1.06h6.67c5.14 0 9.07-2.36 9.07-8.05zm-7.3 4.72h-4.54c-.42 0-.84.04-1.16.09a7.43 7.43 0 0 0 .32-2.17V33c2-.1 4.17-.05 4.77-.05 2.04 0 4.63 1.2 4.63 6.9v14.3c0 3.66-3.06 4.4-4.03 4.4zm12.9-2.36V30.42c0-.51.56-1.07.56-1.07-3.38 2-3.8 3.38-3.8 5.1v24.2c0 1.71-.37 3.2-1.43 4.17 1.85-.88 4.67-2.64 4.67-6.62zm17.68-2.92c0-4.35-6.7-10.37-10.5-14.67-3.43-3.8-1.8-5.55-.6-6.76.69-.04 1.62-.09 2.82-.09 3.89 0 6.57 2.68 5.23 5.55 0 0 2.64-1.85 2.82-3.28.14-6.44-7.36-4.77-7.87-4.77-.6.19-2.22 1.3-3.28 2.08l-.19-.04c-.78.41-6.01 4.16-2.73 8.33 3.24 4.16 13.66 13.1 11.16 18.28-.8.6-2.04 1.34-3.01 1.34-4.3 0-7.18-4.07-7.04-4.77-1.52.56-3 2.5-3 2.5.5 2.09 4.58 5.33 7.72 5.33 2.83 0 6.02-4.21 6.95-5.51l-.1.05a5.08 5.08 0 0 0 1.62-3.57zm11.44-23.7-4.59-.09c-.78 0-1.66.79-2.45 1.67a4.72 4.72 0 0 0-1.39 1.85l-.37.56c.05-.05.14-.1.23-.14a5.85 5.85 0 0 0-.14 1.3v24.01c0 1.76-.41 3.29-1.48 4.26 1.9-1.2 4.72-2.68 4.72-6.71v-6.71h3.06c.23 0 .42 0 .6-.05 4.49-.28 7.4-2.13 7.4-7.87v-2.82c0-5.74-1.01-9.26-5.6-9.26zm-1.44 16.71h-2.54c-.56 0-1.02.05-1.49.23V33.01c1.16-.05 2.27-.05 2.78-.05 4.44 0 5 1.9 5 7.36V42c0 3.1-1.67 4.3-3.75 4.3zm24.07 12.5h-10.46a5.03 5.03 0 0 0-1.2.14c.18-.56.27-1.16.27-1.9V34.4c0-1.76-.41-2.78-3.8-4.9 0 0 .56.6.56 1.1v28.42c0 1.76-.37 3.29-1.48 4.26.6-.42 1.34-.79 2.04-1.25h11.1c1.53 0 2.6-.88 4.45-3.8 0 0-.79.56-1.48.56zm19.16 2.82V38.33c0-6.57-4.17-9.2-8.42-9.2-1.4 0-3.57 2.44-4.3 3.37-2.23 1.85-2.55 3.29-2.55 4.81v21.11c0 1.8-.37 3.33-1.49 4.35 1.9-1.2 4.82-2.27 4.82-5.97v-8.7H149c1.01 0 1.62-.14 2.36-.93v9.77c0 2.04.41 3.47 3.88 5.78 0 0-.55-.6-.55-1.1zm-3.33-16.84h-6.2c-1.07 0-1.62.18-2.41 1.01V32.64c0-.18.09-.42.18-.6 3.01-1.25 8.43.18 8.43 7.31zm18.32-11.67-3.8 9.72c-.04.1-.08.19-.08.28l-3.94-11.02c-.46-1.2-1.15-2.63-2.31-2.5-1.71.14-3.38 2.92-3.38 2.92s2.04-.74 3.06 2.31l5 13.8a6.6 6.6 0 0 0-.2 1.75v11.07c0 .74-.55 1.38-.55 1.38 3.38-2.22 3.8-3.56 3.8-5.46v-11.1c.32-.37.7-.93.97-1.67l5-12.54c.65-1.67 1.8-2.46 1.8-2.46-3.1-.37-4.44 1.3-5.37 3.52z" aria-label="DISPLAY" transform="scale(1.09 .92)"/><path fill="#fff" stroke="#fff" stroke-width="1.21" d="M165.64 283.44a71.18 71.18 0 0 1-56-39.54c-6.01-12.36-8.36-26.71-6.21-37.91 3.01-15.7 14.66-36.97 35.16-64.2 11.55-15.33 32.94-40.65 34.34-40.65 1.41 0 23.72 26.55 35.2 41.89 23.7 31.67 35.17 55.02 35.18 71.55 0 12.28-4.9 27.5-12.43 38.59-3.37 4.96-11.03 12.84-16.32 16.78-13.67 10.2-32.36 15.35-48.92 13.5z"/><path fill="#fff" stroke="#fff" stroke-width="1.21" d="M161.53 283.13c-33.7-5.98-58.94-35.25-58.92-68.34 0-8.08 1.23-13.68 5.02-22.96 8.96-21.9 32.15-54.77 62.55-88.64l2.63-2.93 3.04 3.22c1.67 1.78 7.47 8.5 12.89 14.95 31.06 37 48.55 65.03 53.46 85.7 4.82 20.3-5.13 47.05-23.3 62.61-15.9 13.62-37.77 19.86-57.38 16.39z"/><path fill="#fff" stroke="#fff" stroke-width="1.21" d="M166.46 284.04c-17.2-1.54-34.36-10.41-46.6-24.1-15.55-17.4-21.46-41.92-14.87-61.74 7.16-21.55 27.8-52.42 59.35-88.76l8.32-9.59 4.05 4.3c5.2 5.54 19.5 22.65 27.12 32.46 23.67 30.47 37.24 55.38 39.5 72.55 1.9 14.43-3.76 33.1-14.3 47.12-3.4 4.51-11.45 12.24-15.93 15.28-13.62 9.25-30.94 13.88-46.64 12.48z"/><path fill="#fff" stroke="#fff" stroke-width="1.21" d="M163.28 284c-9.54-1.38-21.89-6.37-30.68-12.4-5.82-4-14.25-12.43-18.18-18.18-9.89-14.49-14.2-32.2-11.54-47.4 3.74-21.4 24.43-54 61.93-97.58l7.85-9.12 3.11 3.4c15.57 17.04 34.4 40.94 45.68 57.98 17.78 26.86 24.49 45.86 21.95 62.14-1.58 10.07-6.34 22.07-12.26 30.91-3.34 4.98-10.68 12.56-16.14 16.67-13.88 10.44-35 15.99-51.72 13.58z"/><path fill="#fff" stroke="#fff" stroke-width="1.21" d="M160.06 283.7c-8.6-1.86-19.37-6.44-26.88-11.41-5.01-3.32-13.45-11.44-17.56-16.9-12.98-17.24-16.95-39.18-10.6-58.68 5.25-16.17 21.68-42.12 44.52-70.36 8.42-10.4 22.88-27.3 23.27-27.18.61.2 13.08 14.52 20.57 23.66 15.64 19.06 29.3 38.23 37.2 52.22 15.32 27.06 17.21 44.13 7.39 66.59a72.7 72.7 0 0 1-22.74 28.82c-8.46 6.37-20.2 11.33-31.42 13.27-6.48 1.12-18.53 1.1-23.75-.03z"/><path fill="#fff" stroke="#fff" stroke-width="1.21" d="M159.18 283.78c-8.6-1.9-21.37-7.7-28.1-12.76-25.75-19.31-35.75-50.76-24.9-78.27 7.93-20.08 27.68-48.85 57.39-83.59 8.8-10.28 8.94-10.42 10.12-9.38a241 241 0 0 1 8.32 9.27c35.6 40.94 57.02 74.71 61.36 96.74 3.25 16.5-2.54 36.33-15.38 52.62-10.17 12.91-25.63 22-43.21 25.4-5.44 1.06-20.77 1.04-25.6-.03z"/><path fill="#fff" stroke="#fff" stroke-width="1.21" d="M163.87 284.68c-5.92-.55-12.82-2.75-21.19-6.75-8.07-3.85-12.56-6.87-18.26-12.26-19.67-18.6-27.24-43.7-20.35-67.45 4.08-14.07 17.87-37.08 37.32-62.29 7.35-9.52 22.68-28.03 27.8-33.58 2.98-3.2 3.46-3.51 4.43-2.84 1.51 1.04 14.47 15.98 22.73 26.2 27.68 34.27 43.07 60.36 47.25 80.09 3.74 17.64-4.14 41-19.18 56.9a62.05 62.05 0 0 1-18.63 13.97c-6.82 3.49-13.03 5.73-19.48 7.02-5.38 1.07-16.32 1.56-22.44.99z"/><path fill="#3b3b3b" stroke-width="1.23" d="M160.73 286.56c-8.02-1.47-20.48-6.82-28.72-12.32-5.7-3.81-13.33-11.16-17.98-17.32-4.45-5.9-9.93-17.3-11.8-24.56-1.91-7.36-2.53-18.18-1.46-25.53 2.08-14.32 11.55-33 29.72-58.56 10.95-15.43 38.66-49.54 41.44-51.04 1.41-.76 1.58-.6 9.05 7.87 20.36 23.13 39.58 49.02 50.43 67.94 7.73 13.49 13.12 27.42 14.29 36.97 2.22 18.13-6.92 41.21-22.39 56.55-9.01 8.93-22.77 16.25-36.04 19.18-4.7 1.03-22.4 1.58-26.54.82z"/></svg>