<svg xmlns="http://www.w3.org/2000/svg" fill="none" viewBox="0 0 348 348"><path d="M5.166 5.166h337.668v337.668H5.167z" stroke="#000" stroke-width="2"/><path d="M292.269 40.554c0-8.382 6.795-15.177 15.177-15.177a15.173 15.173 0 0 1 15.177 15.177c0 8.383-6.795 15.177-15.178 15.177-8.381 0-15.176-6.795-15.176-15.177z" stroke="#000" stroke-width="2"/><path d="M65.446 38.014h179.878v39.581H65.446z" stroke="#f9f9f9" fill="#1a1a1a"/><path d="M124.496 71.925h-3.515v-22.4c-.847.806-1.957 1.613-3.33 2.421-1.374.807-2.608 1.412-3.701 1.816v-3.398c1.966-.925 3.684-2.045 5.156-3.36 1.47-1.315 2.513-2.59 3.125-3.828h2.265zm9.044-7.557l3.515-.47c.403 1.993 1.09 3.429 2.06 4.307.97.88 2.151 1.319 3.545 1.319 1.653 0 3.05-.573 4.19-1.72 1.14-1.145 1.708-2.564 1.708-4.257 0-1.614-.527-2.946-1.582-3.994-1.055-1.048-2.396-1.572-4.024-1.572-.664 0-1.49.13-2.48.39l.39-3.085c.235.026.424.039.567.039 1.497 0 2.845-.391 4.043-1.172 1.198-.782 1.797-1.986 1.797-3.614 0-1.29-.436-2.356-1.309-3.203-.872-.846-1.998-1.27-3.379-1.27-1.366 0-2.505.43-3.417 1.29-.911.86-1.497 2.148-1.757 3.867l-3.517-.625c.43-2.357 1.407-4.183 2.93-5.478 1.524-1.296 3.419-1.944 5.684-1.944 1.563 0 3.002.335 4.317 1.006 1.315.67 2.32 1.585 3.017 2.744.697 1.159 1.045 2.39 1.045 3.692a6.044 6.044 0 0 1-.997 3.378c-.664 1.016-1.647 1.823-2.95 2.422 1.694.39 3.01 1.202 3.946 2.432.938 1.23 1.406 2.77 1.406 4.62 0 2.5-.91 4.618-2.734 6.357-1.823 1.738-4.128 2.607-6.914 2.607-2.512 0-4.6-.75-6.26-2.246-1.66-1.498-2.606-3.438-2.841-5.82zm22.265 0l3.516-.47c.403 1.993 1.09 3.429 2.06 4.307.97.88 2.152 1.319 3.545 1.319 1.654 0 3.05-.573 4.19-1.72 1.138-1.145 1.708-2.564 1.708-4.257 0-1.614-.528-2.946-1.582-3.994s-2.395-1.572-4.023-1.572c-.664 0-1.49.13-2.48.39l.39-3.085c.235.026.423.039.567.039 1.497 0 2.845-.391 4.043-1.172 1.198-.782 1.797-1.986 1.797-3.614 0-1.29-.437-2.356-1.31-3.203-.871-.846-1.998-1.27-3.378-1.27-1.367 0-2.506.43-3.418 1.29-.911.86-1.497 2.148-1.758 3.867l-3.515-.625c.43-2.357 1.406-4.183 2.93-5.478 1.523-1.296 3.417-1.944 5.683-1.944 1.562 0 3 .335 4.316 1.006 1.315.67 2.32 1.585 3.018 2.744.696 1.159 1.045 2.39 1.045 3.692a6.044 6.044 0 0 1-.996 3.378c-.664 1.016-1.647 1.823-2.95 2.422 1.693.39 3.008 1.202 3.946 2.432.937 1.23 1.406 2.77 1.406 4.62 0 2.5-.911 4.618-2.734 6.357-1.823 1.738-4.128 2.607-6.914 2.607-2.513 0-4.6-.75-6.26-2.246-1.66-1.498-2.608-3.438-2.842-5.82zm22.48-17.325v-3.38h18.536V46.4c-1.823 1.94-3.63 4.518-5.42 7.734s-3.174 6.524-4.15 9.922c-.704 2.395-1.153 5.02-1.348 7.87h-3.614c.04-2.251.482-4.973 1.329-8.163a42.868 42.868 0 0 1 3.642-9.229c1.582-2.963 3.265-5.46 5.049-7.49z" fill="#f2f2f2"/><path d="M43.34 119.135v22.338h22.73v-22.338H43.34zm79.53 0v22.338h22.73v-22.338h-22.73zm79.53 0v22.338h22.73v-22.338H202.4zm79.53 0v22.338h22.73v-22.338h-22.73zM43.34 189.383v22.338h22.73v-22.338H43.34zm79.53 0v22.338h22.73v-22.338h-22.73zm79.53 0v22.338h22.73v-22.338H202.4zm79.53 0v22.338h22.73v-22.338h-22.73zM43.34 259.63v22.338h22.73V259.63H43.34zm79.53 0v22.338h22.73V259.63h-22.73z" fill="#ccc" stroke="#ccc"/><path d="M202.4 259.63h22.73v22.338H202.4z" fill="#999" stroke="#999"/><path d="M281.93 259.63h22.73v22.338h-22.73z" fill="gray" stroke="gray"/><path d="M213.854 122.574c-.764 0-1.442.153-2.032.46a3.84 3.84 0 0 0-1.463 1.343c-.385.59-.648 1.298-.787 2.125h2.157c.09-.424.234-.777.431-1.059.183-.268.433-.483.725-.625a2.24 2.24 0 0 1 .969-.203c.632 0 1.12.164 1.464.49.343.326.516.788.516 1.385v.47c0 .647-.164 1.147-.49 1.5-.327.355-.785.532-1.375.532h-1.073v2.02h1.073c.673 0 1.194.208 1.562.62.368.414.553.998.553 1.755v.459c0 .68-.195 1.209-.584 1.584-.389.375-.934.56-1.635.56-.445 0-.832-.067-1.162-.203a1.871 1.871 0 0 1-.807-.619c-.208-.277-.344-.633-.406-1.063h-2.168c.105.826.353 1.535.746 2.122a3.818 3.818 0 0 0 1.557 1.341c.645.31 1.393.465 2.24.465.916 0 1.7-.163 2.35-.49a3.366 3.366 0 0 0 1.482-1.428c.34-.625.512-1.378.512-2.26v-.25c0-.979-.229-1.785-.684-2.416-.455-.633-1.094-1.037-1.921-1.218.75-.256 1.33-.667 1.74-1.229.409-.563.615-1.223.615-1.98v-.25c0-1.25-.358-2.219-1.074-2.907-.715-.687-1.725-1.03-3.031-1.03zm-79.61.078c-.799 0-1.503.162-2.115.485a3.891 3.891 0 0 0-1.494 1.406c-.386.614-.64 1.357-.766 2.225v.011h2.197v-.011c.083-.667.316-1.183.698-1.547.382-.365.882-.547 1.5-.547.653 0 1.157.167 1.511.5.354.333.532.801.532 1.406v.02c0 .375-.084.78-.254 1.214-.17.434-.41.853-.715 1.256l-5.28 7.041v1.844h8.542v-2.021h-5.729l4.385-5.96a7.195 7.195 0 0 0 .928-1.685 4.713 4.713 0 0 0 .332-1.678v-.011c0-.833-.167-1.545-.5-2.135a3.25 3.25 0 0 0-1.457-1.348c-.64-.309-1.41-.465-2.313-.465h-.002zm-79.523.078l-2.157 1.438v2.197l2.157-1.322v12.834h2.125V122.73H54.72zm238.789 0l-5.084 10.971v1.842h6.531v2.334h2.074v-2.334h1.135v-1.967h-1.135v-4.615h-2.074v4.615h-4.219l4.96-10.846h-2.188zm-.215 70.092c-.853 0-1.603.164-2.25.494a3.606 3.606 0 0 0-1.5 1.399c-.353.6-.531 1.297-.531 2.088v.363c0 .615.168 1.22.484 1.748.303.533.748.969 1.285 1.264-.632.34-1.135.844-1.513 1.511a4.251 4.251 0 0 0-.569 2.133v.25c0 .84.189 1.581.567 2.217a3.802 3.802 0 0 0 1.61 1.47c.696.348 1.5.52 2.417.52.916 0 1.722-.172 2.416-.52a3.798 3.798 0 0 0 1.61-1.47c.377-.636.568-1.377.568-2.217v-.25a4.19 4.19 0 0 0-.578-2.13 3.925 3.925 0 0 0-1.538-1.514 3.292 3.292 0 0 0 1.309-1.25 3.36 3.36 0 0 0 .494-1.762v-.363c0-.791-.176-1.488-.531-2.088a3.606 3.606 0 0 0-1.5-1.399c-.645-.33-1.395-.494-2.25-.494zm-242.502.078v7.979h1.937c.257-.375.559-.666.899-.875.34-.208.694-.31 1.062-.31.681 0 1.205.226 1.577.681.37.455.556 1.092.556 1.912v1.27c0 .827-.185 1.467-.556 1.922-.372.455-.897.683-1.577.683-.59 0-1.07-.155-1.437-.465-.368-.309-.591-.74-.668-1.297v-.01H50.46v.01c.125.8.372 1.483.744 2.053a3.677 3.677 0 0 0 1.45 1.3c.593.3 1.273.45 2.036.45.896 0 1.663-.183 2.301-.547a3.537 3.537 0 0 0 1.457-1.59c.333-.694.5-1.53.5-2.51v-1.27c0-.98-.16-1.816-.482-2.51-.322-.695-.797-1.222-1.418-1.583-.622-.362-1.37-.543-2.244-.543a3.016 3.016 0 0 0-1.887.678v-3.406h5.594V192.9h-7.719zm85.853 0l-2.292.002-3.293 6.522c-.05.097-.097.197-.145.297-.313.682-.55 1.395-.707 2.129a8.489 8.489 0 0 0-.2 1.771v.012c0 .965.165 1.788.495 2.472a3.48 3.48 0 0 0 1.443 1.563c.631.358 1.393.535 2.282.535s1.65-.18 2.287-.54a3.488 3.488 0 0 0 1.447-1.585c.33-.694.496-1.527.496-2.5v-.012c0-.95-.146-1.764-.438-2.441-.292-.677-.722-1.194-1.285-1.549-.562-.354-1.234-.53-2.02-.53-.443 0-.83.09-1.163.27-.116.063-.21.147-.307.227l3.4-6.643zm73 .079v4.197h2.125V195h3.852l-3.914 13.125h2.258l3.918-13.25v-1.896h-8.239zm83.649 1.884a2.32 2.32 0 0 1 1.125.266c.322.172.587.435.762.756.18.326.27.7.27 1.125v.144c0 .445-.092.84-.272 1.18-.18.34-.434.601-.76.785a2.243 2.243 0 0 1-1.125.276 2.245 2.245 0 0 1-1.125-.276 1.924 1.924 0 0 1-.762-.781 2.428 2.428 0 0 1-.27-1.162v-.156a2.297 2.297 0 0 1 .272-1.135c.18-.326.433-.578.76-.756a2.32 2.32 0 0 1 1.125-.266zm-159.172 6.225v.002c.71 0 1.255.231 1.637.693.382.461.574 1.115.574 1.963v.012c0 .77-.185 1.362-.549 1.78-.365.415-.882.624-1.556.624-.666 0-1.181-.206-1.545-.619-.365-.413-.55-1.005-.55-1.775v-.012c0-.848.173-1.506.52-1.97.348-.466.837-.698 1.47-.698zm159.172.351c.492 0 .928.096 1.303.29.363.182.664.467.869.818.205.35.306.76.306 1.224v.145c0 .458-.101.863-.306 1.213a2.1 2.1 0 0 1-.87.818c-.374.195-.81.293-1.302.293-.493 0-.928-.096-1.303-.287a2.08 2.08 0 0 1-.869-.807 2.33 2.33 0 0 1-.307-1.207v-.156c-.009-.43.097-.855.307-1.23.204-.353.505-.64.87-.824.374-.194.809-.29 1.302-.29zm-159.06 61.616c-1.41 0-2.483.378-3.22 1.13-.735.755-1.105 1.811-1.105 3.172v6.885c0 1.354.367 2.41 1.1 3.166.733.757 1.807 1.137 3.224 1.137v-.002c1.41 0 2.483-.375 3.22-1.129.735-.753 1.105-1.812 1.105-3.172v-6.885c0-1.367-.367-2.427-1.1-3.177-.733-.75-1.808-1.125-3.225-1.125zm80.097.013c-1.132 0-2.1.173-2.904.52-.806.347-1.42.853-1.84 1.516-.42.663-.631 1.464-.631 2.402v.012c0 1.07.226 1.892.678 2.472.45.58.995.98 1.63 1.2.636.218 1.461.413 2.475.587l.155.032a.231.231 0 0 0 .068.011.22.22 0 0 1 .068.012c.688.125 1.248.261 1.682.41.408.133.774.372 1.062.69.274.309.412.726.412 1.254v.01c0 .743-.3 1.318-.906 1.724-.604.407-1.455.61-2.552.61a6.623 6.623 0 0 1-2.26-.376 5.973 5.973 0 0 1-1.906-1.125l-1.323 1.625c.485.411 1.018.76 1.588 1.041a7.831 7.831 0 0 0 1.828.625 9.932 9.932 0 0 0 2.073.21c1.174 0 2.173-.172 3.003-.516.83-.344 1.465-.844 1.903-1.5.437-.656.656-1.445.656-2.37v-.021c0-.994-.206-1.776-.62-2.348a3.595 3.595 0 0 0-1.542-1.246c-.614-.257-1.38-.478-2.297-.666l-.113-.021a3.524 3.524 0 0 1-.272-.053c-.785-.153-1.399-.298-1.84-.441a2.659 2.659 0 0 1-1.103-.662c-.295-.3-.443-.709-.443-1.23v-.01c0-.758.288-1.342.86-1.755.574-.413 1.377-.62 2.411-.62.59.001 1.174.11 1.725.318a7.069 7.069 0 0 1 1.724.953l1.21-1.688a8.927 8.927 0 0 0-1.509-.879 7.945 7.945 0 0 0-1.55-.527 7.267 7.267 0 0 0-1.6-.176v-.004zm-159.623.08c-.889 0-1.648.182-2.283.543a3.493 3.493 0 0 0-1.45 1.584c-.33.694-.494 1.53-.494 2.51v.01c0 .882.15 1.658.452 2.328.302.67.727 1.189 1.275 1.557.549.368 1.183.552 1.906.552.48 0 .896-.075 1.246-.224a1.55 1.55 0 0 0 .366-.229l-3.381 6.672h2.293l3.226-6.49a4.06 4.06 0 0 0 .137-.275c.042-.094.083-.186.125-.276.253-.59.451-1.204.594-1.83.138-.614.207-1.19.207-1.732v-.01c0-.986-.164-1.83-.494-2.531-.33-.701-.812-1.236-1.444-1.604-.632-.368-1.391-.553-2.281-.553v-.002zm233.064.073v15.156h2.125v-6.406h3.164l3.233 6.406h2.521l-3.496-6.637a4.22 4.22 0 0 0 .762-.31 3.831 3.831 0 0 0 1.545-1.537c.368-.663.553-1.43.553-2.297 0-.867-.183-1.634-.547-2.297a3.79 3.79 0 0 0-1.541-1.537c-.663-.36-1.432-.54-2.307-.54h-3.887v-.001h-2.125zm-153.539 1.855c.757 0 1.313.196 1.668.588.354.393.532.957.532 1.693v6.885c0 .736-.18 1.302-.538 1.694-.357.393-.912.587-1.662.587-.75 0-1.305-.194-1.662-.587-.358-.392-.537-.958-.537-1.694v-6.885c0-.736.177-1.3.531-1.693.354-.392.911-.588 1.668-.588zm-79.525.115c.667 0 1.185.22 1.549.657.365.438.545 1.053.545 1.853v.01c0 .819-.18 1.455-.545 1.906-.364.451-.882.678-1.549.678-.673 0-1.192-.224-1.557-.672-.365-.448-.545-1.08-.545-1.9v-.01c0-.805.18-1.425.545-1.863.365-.437.884-.657 1.557-.657v-.002zm235.19.051h3.968c.38-.008.754.093 1.078.291.315.2.564.489.72.828.175.387.263.81.255 1.235.008.425-.08.847-.256 1.234a1.915 1.915 0 0 1-.723.828 1.997 1.997 0 0 1-1.074.291h-3.969v-4.707z" fill="#000"/></svg>