<svg xmlns="http://www.w3.org/2000/svg" viewBox="0 0 348 348" fill="none"><path d="M5.079 5.776h336.913v337.67H5.08z" stroke-width="2" stroke="#000"/><path d="M282.734 40.554c0-8.376 6.966-15.165 15.56-15.165 4.126 0 8.084 1.597 11.001 4.441 2.918 2.844 4.558 6.702 4.558 10.724 0 8.376-6.966 15.165-15.56 15.165-8.593 0-15.559-6.79-15.559-15.165z" stroke-width="2" stroke="#000"/><path d="M179.144 25.703h2.684v19.09h-2.684zm39.188 33.854a37.846 37.846 0 01-37.846 37.846 37.846 37.846 0 01-37.846-37.846 37.846 37.846 0 0137.846-37.847 37.846 37.846 0 0137.846 37.847zm8.088 0a45.934 45.934 0 01-45.934 45.933 45.934 45.934 0 01-45.934-45.933 45.934 45.934 0 0145.934-45.934 45.934 45.934 0 0145.934 45.934zM179.144 247.603h2.684v19.089h-2.684zm39.188 33.853a37.846 37.846 0 01-37.846 37.847 37.846 37.846 0 01-37.846-37.847 37.846 37.846 0 0137.846-37.846 37.846 37.846 0 0137.846 37.846zm8.088 0a45.934 45.934 0 01-45.934 45.934 45.934 45.934 0 01-45.934-45.934 45.934 45.934 0 0145.934-45.933 45.934 45.934 0 0145.934 45.933z" fill="none" stroke="#000" stroke-width="3"/><path d="M138.12 128.141h84.731v84.73h-84.73zm-5.06-5.06h94.85v94.85h-94.85zm0 0h94.85v94.85h-94.85zm-68.867 13.572h2.685v19.09h-2.685zm39.189 33.853a37.846 37.846 0 01-37.847 37.847 37.846 37.846 0 01-37.846-37.847 37.846 37.846 0 0137.846-37.846 37.846 37.846 0 0137.847 37.846zm8.087 0a45.934 45.934 0 01-45.933 45.934 45.934 45.934 0 01-45.934-45.934 45.934 45.934 0 0145.933-45.933 45.934 45.934 0 0145.934 45.933zm176.724-33.853h2.685v19.09h-2.685zm39.189 33.853a37.846 37.846 0 01-37.847 37.847 37.846 37.846 0 01-37.846-37.847 37.846 37.846 0 0137.846-37.846 37.846 37.846 0 0137.847 37.846zm8.087 0a45.934 45.934 0 01-45.934 45.934 45.934 45.934 0 01-45.933-45.934 45.934 45.934 0 0145.933-45.933 45.934 45.934 0 0145.934 45.933z" fill="none" stroke="#000" stroke-width="2.68"/></svg>