<svg xmlns="http://www.w3.org/2000/svg" xml:space="preserve" fill="none" viewBox="0 0 512 512"><path stroke="#000" stroke-width="4" d="M18 18h476v476H18Z"/><path fill="#000" d="m48.53 74.58-10.1-26.4h-.17q.13 1.3.22 3.54.08 2.2.08 4.6v18.26H35V44.46h5.71l9.45 24.68h.17l9.62-24.68h5.67v30.12H61.8V56.06q0-2.2.08-4.34l.22-3.5h-.18L51.7 74.58zm34.05 0H71.5v-2.2l3.6-.8V47.5l-3.6-.84v-2.2h11.08v2.2l-3.6.84v24.08l3.6.8zm30.49-15.35q0 7.63-4.25 11.51-4.21 3.84-11.77 3.84h-8.54V44.46h9.44q4.6 0 7.99 1.7 3.44 1.68 5.28 4.97 1.85 3.29 1.85 8.1zm-4.08.12q0-6.03-3.05-8.81-3-2.83-8.55-2.83h-5.02v23.62h4.17q12.45 0 12.45-11.98zm35.17 15.23h-4.51l-16.4-25.01h-.18l.22 3.67q.13 2.19.13 4.51v16.83h-3.57V44.46h4.47l16.36 24.93h.17l-.13-2.02q-.04-1.35-.13-2.91-.04-1.6-.04-3v-17h3.6zm16.96 0h-11.08v-2.2l3.6-.8V47.5l-3.6-.84v-2.2h11.08v2.2l-3.6.84v24.08l3.6.8zm19.24-15.9h10.6v14.76q-2.49.8-5.02 1.18-2.53.38-5.75.38-4.77 0-8.03-1.86-3.27-1.9-4.99-5.35-1.67-3.5-1.67-8.27 0-4.68 1.85-8.14 1.89-3.5 5.45-5.4 3.56-1.94 8.59-1.94 2.58 0 4.85.47 2.32.46 4.3 1.3l-1.46 3.3q-1.64-.68-3.7-1.19-2.02-.55-4.2-.55-5.5 0-8.6 3.3-3.04 3.24-3.04 8.85 0 3.59 1.16 6.37 1.2 2.74 3.73 4.3 2.54 1.52 6.66 1.52 2.02 0 3.43-.21 1.42-.21 2.58-.5v-8.95h-6.74zm41.39 15.9h-3.86V60.53h-15.72v14.05h-3.86V44.46h3.86V57.2h15.72V44.46h3.86zm18.08 0h-3.86V47.8h-9.58v-3.34h22.98v3.34h-9.54zm38.87 0-10.1-26.4h-.17q.13 1.3.22 3.54.08 2.2.08 4.6v18.26h-3.56V44.46h5.7l9.46 24.68h.17l9.62-24.68h5.67v30.12h-3.83V56.06q0-2.2.09-4.34l.21-3.5h-.17l-10.22 26.36Zm52.17-15.1q0 4.68-1.63 8.18-1.6 3.46-4.77 5.4-3.13 1.94-7.73 1.94-4.77 0-7.94-1.94-3.14-1.94-4.68-5.44-1.55-3.5-1.55-8.18 0-4.6 1.55-8.06 1.54-3.5 4.68-5.44 3.17-1.94 7.98-1.94 4.6 0 7.73 1.94 3.14 1.9 4.73 5.4 1.63 3.46 1.63 8.14zm-24.22 0q0 5.7 2.45 8.98 2.45 3.25 7.64 3.25 5.2 0 7.6-3.25 2.45-3.29 2.45-8.98 0-5.7-2.4-8.9-2.41-3.25-7.6-3.25-5.24 0-7.7 3.25-2.44 3.2-2.44 8.9zm39.42 15.1h-3.86V47.8h-9.58v-3.34h22.97v3.34h-9.53zm40.07-15.1q0 4.68-1.64 8.18-1.59 3.46-4.76 5.4Q376.6 75 372 75q-4.77 0-7.95-1.94-3.13-1.94-4.68-5.44-1.54-3.5-1.54-8.18 0-4.6 1.54-8.06 1.55-3.5 4.68-5.44 3.18-1.94 7.99-1.94 4.6 0 7.73 1.94 3.13 1.9 4.72 5.4 1.64 3.46 1.64 8.14zm-24.22 0q0 5.7 2.44 8.98 2.45 3.25 7.65 3.25t7.6-3.25q2.45-3.29 2.45-8.98 0-5.7-2.4-8.9-2.41-3.25-7.61-3.25-5.24 0-7.69 3.25-2.44 3.2-2.44 8.9zm39.46-15.02q5.71 0 8.42 2.15 2.74 2.11 2.74 6.42 0 2.4-.9 4t-2.32 2.58q-1.37.97-2.92 1.47l8.42 13.5h-4.5l-7.44-12.44h-6.1v12.44h-3.86V44.46Zm-.22 3.3h-4.38v11.17h4.6q3.74 0 5.45-1.43 1.72-1.48 1.72-4.3 0-2.96-1.8-4.18-1.8-1.27-5.59-1.27zm27.1 26.82h-11.08v-2.2l3.6-.8V47.5l-3.6-.84v-2.2h11.08v2.2l-3.6.84v24.08l3.6.8zm23.32-8.06q0 4-2.96 6.24-2.97 2.24-8 2.24-2.57 0-4.76-.38t-3.65-1.05v-3.63q1.55.67 3.82 1.22 2.32.55 4.77.55 3.4 0 5.15-1.3 1.76-1.31 1.76-3.55 0-1.48-.64-2.49-.64-1.01-2.23-1.85-1.6-.85-4.34-1.86-3.95-1.4-5.93-3.42-1.97-2.02-1.97-5.52 0-2.36 1.24-4.1 1.25-1.72 3.44-2.65 2.19-.93 5.1-.93 2.5 0 4.6.47 2.1.46 3.87 1.22l-1.2 3.25q-1.6-.68-3.48-1.14-1.9-.47-3.87-.47-2.87 0-4.33 1.23-1.46 1.18-1.46 3.16 0 1.52.64 2.53.64 1.01 2.1 1.86 1.46.8 3.95 1.68 2.71.97 4.56 2.11 1.89 1.1 2.83 2.66.99 1.56.99 3.92zm15.89 8.06h-3.87V47.8h-9.57v-3.34H477v3.34h-9.53z"/><path stroke="#000" stroke-width="4" d="M30 18v476M482 18v476M30 90h452M30 431h452m-329 19v35"/><path fill="#000" d="M164.81 465.7H162v-.97l1.11-2.5q.32-.7.54-1.26.23-.56.34-1.09.11-.52.11-1.17 0-.78-.2-1.17-.21-.41-.55-.41-.31 0-.55.23-.23.24-.47.66l-.28-.77q.25-.47.57-.78.33-.33.73-.33.6 0 .94.67.35.67.35 1.83 0 .74-.14 1.39-.13.65-.38 1.28-.24.63-.57 1.33l-.89 1.94v.06h2.15zm1.95-5.79q.65 0 1.04.73.4.72.4 2.04 0 1.47-.43 2.31-.42.83-1.17.83-.33 0-.62-.13t-.48-.38v-1.1q.21.3.52.46.3.16.59.16.47 0 .75-.49.3-.5.3-1.54 0-.92-.26-1.41-.26-.5-.81-.5-.17 0-.38.06-.22.07-.35.14l-.26-.37.16-4.45h2.13v1.05h-1.68l-.1 2.74.27-.1q.17-.05.38-.05zm4.59-3.91h.32v1.29q.56.05.86.72.33.72.35 1.7h-.67q0-.72-.14-1.03-.14-.3-.4-.3v5.3q.26.05.45-.36.16-.36.16-1.4h.72q-.07 1.4-.42 2.17-.28.62-.9.67V466h-.33v-1.24q-.5-.1-.82-.82-.42-.93-.42-2.84 0-2.11.4-2.99.35-.77.84-.82zm0 2.37q-.17 0-.3.31-.3.67-.3 2.42 0 1.6.27 2.22.14.3.33.36zm-9.75 11.69q.46 0 .66.28.2.3.2.81 0 .31-.08.58-.08.27-.28.44-.2.16-.55.16h-.26v1.46H161v-3.73zm-.02.4h-.3v1.47h.24q.33 0 .49-.17.16-.17.16-.58 0-.37-.14-.54-.15-.18-.45-.18zm3.11-.4v2.41q0 .39-.1.7-.1.3-.3.5-.2.17-.5.17-.42 0-.65-.38-.22-.38-.22-1v-2.4h.3v2.42q0 .45.14.7.15.25.45.25.31 0 .45-.27t.14-.69v-2.41zm1.91 2.73q0 .5-.23.77-.22.28-.6.28-.19 0-.35-.05-.16-.05-.27-.13v-.45q.11.09.28.15.18.07.36.07.25 0 .38-.16.14-.16.14-.44 0-.18-.05-.3-.05-.13-.17-.24-.12-.1-.32-.23-.3-.17-.45-.42-.15-.25-.15-.68 0-.3.1-.51.1-.21.26-.33.16-.11.38-.11.18 0 .34.05.16.06.3.15l-.1.4q-.12-.08-.26-.13-.14-.06-.29-.06-.21 0-.32.15-.11.15-.11.4 0 .18.05.3.04.13.15.23.11.1.3.21.2.12.34.26t.21.33q.08.2.08.49zm2.21 1h-.29v-1.74h-1.17v1.74h-.3v-3.73h.3v1.57h1.17v-1.57h.3zm2.19 0h-.29v-3.32H170v-.41h1.71v.41h-.7zm3-1.87q0 .58-.12 1.01-.12.43-.36.67-.23.24-.58.24t-.6-.24q-.23-.24-.34-.68-.12-.43-.12-1 0-.58.12-1 .11-.44.35-.68.24-.24.6-.24.34 0 .57.24.24.24.36.67.12.43.12 1zm-1.81 0q0 .7.18 1.1.18.41.57.41.4 0 .57-.4.18-.4.18-1.11 0-.7-.18-1.1-.18-.4-.56-.4-.4 0-.58.4-.18.4-.18 1.1zm-9.03 3.36q.42 0 .63.27.2.26.2.79 0 .3-.07.5-.06.2-.17.31-.1.12-.22.19l.63 1.67h-.34l-.55-1.54h-.46V479h-.29v-3.73zm-.02.4h-.33v1.4h.35q.28 0 .4-.19.13-.18.13-.53 0-.36-.13-.52-.14-.15-.42-.15zm2.66 3.32h-1.28v-3.72h1.28v.41h-.99v1.17h.94v.4h-.94v1.34h1zm.38 1q-.08 0-.14-.02l-.1-.05v-.4l.1.04.13.02q.08 0 .15-.05.08-.06.12-.19.05-.12.05-.36v-3.71h.29v3.67q0 .54-.17.8-.16.25-.43.25zm2.48-1h-1.28v-3.72h1.28v.41h-1v1.17h.94v.4h-.93v1.34h1zm1.49-3.36q-.37 0-.58.4-.21.4-.21 1.1 0 .7.2 1.1.2.4.59.4.14 0 .28-.03l.27-.1v.4q-.13.08-.27.11-.14.04-.33.04-.35 0-.58-.23-.23-.24-.35-.67-.12-.44-.12-1.02 0-.57.13-1 .12-.43.37-.67.25-.24.6-.24.37 0 .64.22l-.12.4q-.1-.08-.24-.15-.13-.06-.28-.06zm1.77 3.36h-.29v-3.3h-.71v-.42h1.72v.41h-.72zM95 352a17 17 0 0 0-17 17 17 17 0 0 0 13 16.48V424H71v8h48v-8H99v-38.52A17 17 0 0 0 112 369a17 17 0 0 0-17-17Z"/><path stroke="#000" stroke-width="4" d="M384 450v35"/><path fill="#000" d="M395.81 465.7H393v-.97l1.11-2.5q.32-.7.54-1.26.23-.56.34-1.09.11-.52.11-1.17 0-.78-.2-1.17-.21-.41-.55-.41-.31 0-.55.23-.23.24-.47.66l-.28-.77q.25-.47.57-.78.33-.33.73-.33.6 0 .94.67.35.67.35 1.83 0 .74-.14 1.39-.13.65-.38 1.28-.24.63-.57 1.33l-.89 1.94v.06h2.15zm1.95-5.79q.65 0 1.04.73.4.72.4 2.04 0 1.47-.43 2.31-.42.83-1.17.83-.33 0-.62-.13t-.48-.38v-1.1q.21.3.52.46.3.16.59.16.47 0 .75-.49.3-.5.3-1.54 0-.92-.26-1.41-.26-.5-.81-.5-.17 0-.38.06-.22.07-.35.14l-.26-.37.16-4.45h2.13v1.05h-1.68l-.1 2.74.27-.1q.17-.05.38-.05zm4.59-3.91h.32v1.29q.56.05.86.72.33.72.35 1.7h-.67q0-.72-.14-1.03-.14-.3-.4-.3v5.3q.26.05.45-.36.16-.36.16-1.4h.72q-.07 1.4-.42 2.17-.28.62-.9.67V466h-.33v-1.24q-.5-.1-.82-.82-.42-.93-.42-2.84 0-2.11.4-2.99.35-.77.84-.82zm0 2.37q-.17 0-.3.31-.3.67-.3 2.42 0 1.6.27 2.22.14.3.33.36zm-9.75 11.69q.46 0 .66.28.2.3.2.81 0 .31-.08.58-.08.27-.28.44-.2.16-.55.16h-.26v1.46H392v-3.73zm-.02.4h-.3v1.47h.24q.33 0 .49-.17.16-.17.16-.58 0-.37-.14-.54-.15-.18-.45-.18zm3.11-.4v2.41q0 .39-.1.7-.1.3-.3.5-.2.17-.5.17-.42 0-.65-.38-.22-.38-.22-1v-2.4h.3v2.42q0 .45.14.7.15.25.45.25.31 0 .45-.27t.14-.69v-2.41zm1.91 2.73q0 .5-.23.77-.22.28-.6.28-.19 0-.35-.05-.16-.05-.27-.13v-.45q.11.09.28.15.18.07.36.07.25 0 .38-.16.14-.16.14-.44 0-.18-.05-.3-.05-.13-.17-.24-.12-.1-.32-.23-.3-.17-.45-.42-.15-.25-.15-.68 0-.3.1-.51.1-.21.26-.33.16-.11.38-.11.18 0 .34.05.16.06.3.15l-.1.4q-.12-.08-.26-.13-.14-.06-.29-.06-.21 0-.32.15-.11.15-.11.4 0 .18.05.3.04.13.15.23.11.1.3.21.2.12.34.26t.21.33q.08.2.08.49zm2.21 1h-.29v-1.74h-1.17v1.74h-.3v-3.73h.3v1.57h1.17v-1.57h.3zm2.19 0h-.29v-3.32H401v-.41h1.71v.41h-.7zm3-1.87q0 .58-.12 1.01-.12.43-.36.67-.23.24-.58.24t-.6-.24q-.23-.24-.34-.68-.12-.43-.12-1 0-.58.12-1 .11-.44.35-.68.24-.24.6-.24.34 0 .57.24.24.24.36.67.12.43.12 1zm-1.81 0q0 .7.18 1.1.18.41.57.41.4 0 .57-.4.18-.4.18-1.11 0-.7-.18-1.1-.18-.4-.56-.4-.4 0-.58.4-.18.4-.18 1.1zm-9.03 3.36q.42 0 .63.27.2.26.2.79 0 .3-.07.5-.06.2-.17.31-.1.12-.22.19l.63 1.67h-.34l-.55-1.54h-.46V479h-.29v-3.73zm-.02.4h-.33v1.4h.35q.28 0 .4-.19.13-.18.13-.53 0-.36-.13-.52-.14-.15-.42-.15zm2.66 3.32h-1.28v-3.72h1.28v.41h-.99v1.17h.94v.4h-.94v1.34h1zm.38 1q-.08 0-.14-.02l-.1-.05v-.4l.1.04.13.02q.08 0 .15-.05.08-.06.12-.19.05-.12.05-.36v-3.71h.29v3.67q0 .54-.17.8-.16.25-.43.25zm2.48-1h-1.28v-3.72h1.28v.41h-1v1.17h.94v.4h-.93v1.34h1zm1.49-3.36q-.37 0-.58.4-.21.4-.21 1.1 0 .7.2 1.1.2.4.59.4.14 0 .28-.03l.27-.1v.4q-.13.08-.27.11-.14.04-.33.04-.35 0-.58-.23-.23-.24-.35-.67-.12-.44-.12-1.02 0-.57.13-1 .12-.43.37-.67.25-.24.6-.24.37 0 .64.22l-.12.4q-.1-.08-.24-.15-.13-.06-.28-.06zm1.77 3.36h-.29v-3.3h-.71v-.42h1.72v.41h-.72zM326 352a17 17 0 0 0-17 17 17 17 0 0 0 13 16.48V424h-20v8h48v-8h-20v-38.52A17 17 0 0 0 343 369a17 17 0 0 0-17-17Z"/><path stroke="#000" stroke-width="4" d="M148 447h34v41h-34z"/><path stroke="#000" stroke-width="4" d="M158 452h19v31h-19z"/><path fill="#000" d="M149 427h32v4h-32zm45 0h32v4h-32z"/><path stroke="#000" stroke-width="4" d="M379 447h34v41h-34z"/><path stroke="#000" stroke-width="4" d="M389 452h19v31h-19z"/><path fill="#000" d="M380 427h32v4h-32zm45 0h32v4h-32z"/><path stroke="#000" stroke-width="4" d="M56 90h410v322H56z"/><path fill="#000" d="M56 236h410v26H56zm102-75h68v25h-68zm-102 0h68v25H56zm307 0h68v25h-68zm-102 0h68v25h-68zM158 312h68v25h-68zm-102 0h68v25H56zm307 0h68v25h-68zm-102 0h68v25h-68zM56 90h410v21H56zm0 297h410v25H56zm4.5-273.5v5h5v-5zm5 5v5h5v-5zm5 0h5v-5h-5zm5 0v5h5v-5zm5 0h5v-5h-5zm5 0v5h5v-5zm5 0h5v-5h-5zm5 0v5h5v-5zm5 0h5v-5h-5zm5 0v5h5v-5zm5 0h5v-5h-5zm5 0v5h5v-5zm5 0h5v-5h-5zm5 0v5h5v-5zm0 5h-5v5h5zm0 5v5h5v-5zm0 5h-5v5h5zm0 5v5h5v-5zm0 5h-5v5h5zm0 5v5h5v-5zm0 5h-5v5h5zm-5 0v-5h-5v5zm-5 0h-5v5h5zm-5 0v-5h-5v5zm-5 0h-5v5h5zm-5 0v-5h-5v5zm-5 0h-5v5h5zm-5 0v-5h-5v5zm-5 0h-5v5h5zm-5 0v-5h-5v5zm-5 0h-5v5h5zm-5 0v-5h-5v5zm-5 0h-5v5h5zm0-5v-5h-5v5zm0-5h5v-5h-5zm0-5v-5h-5v5zm0-5h5v-5h-5zm0-5v-5h-5v5zm5 0h5v-5h-5zm5 0v5h5v-5zm5 0h5v-5h-5zm5 0v5h5v-5zm5 0h5v-5h-5zm5 0v5h5v-5zm5 0h5v-5h-5zm5 0v5h5v-5zm5 0h5v-5h-5zm5 0v5h5v-5zm0 5h-5v5h5zm0 5v5h5v-5zm0 5h-5v5h5zm-5 0v-5h-5v5zm-5 0h-5v5h5zm-5 0v-5h-5v5zm-5 0h-5v5h5zm-5 0v-5h-5v5zm-5 0h-5v5h5zm-5 0v-5h-5v5zm-5 0h-5v5h5zm0-5v-5h-5v5zm5 0h5v-5h-5zm10 0h5v-5h-5zm10 0h5v-5h-5zm-34.5 50v10h-5v25h5v10h15v-5h20v5h15v-5h10v-5h5v-25h-5v-5h-10v-5h-15v5H81v-5zm-.5 76v10h-5v25h5v10h15v-5h20v5h15v-5h10v-5h5v-25h-5v-5h-10v-5h-15v5h-20v-5zm0 75v10h-5v25h5v10h15v-5h20v5h15v-5h10v-5h5v-25h-5v-5h-10v-5h-15v5h-20v-5z"/><path stroke="#000" stroke-width="4" d="M18 106h12m452 0h12M18 414h12m452 0h12"/></svg>