<svg xmlns="http://www.w3.org/2000/svg" fill="none" viewBox="0 0 348 348"><path stroke="#000" stroke-width="2" d="M5 5.8h337v337.6H5z"/><path stroke="#000" stroke-width="2" d="M282.7 40.6c0-8.4 7-15.2 15.6-15.2 4.1 0 8 1.6 11 4.4a15 15 0 0 1 4.6 10.8c0 8.3-7 15.1-15.6 15.1s-15.6-6.8-15.6-15.2z"/><path fill="#000" d="M79.4 79.4v189.2h189.2V79.4zm66.4 21h2.5c1.7 0 3.1 1.3 3.1 3v39.9c0 4.6 1.4 7.4 5.7 7.4 4.5 0 5.7-3.2 5.7-7.4v-39.8c0-1.8 1.4-3.2 3-3.2h2.5c1.7 0 3.1 1.4 3.1 3.2v39.8c0 9.8-4.2 16-14.3 16-10.5 0-14.4-6.7-14.4-16v-39.8c0-1.8 1.4-3.2 3.1-3.2zm45.7 0c9.4 0 14.4 6 14.4 17v1.3c0 1.8-1.4 3.2-3.2 3.2h-2.4a3.1 3.1 0 0 1-3.2-3.2v-1.2c0-5.8-1.8-8.4-5.6-8.4-3.7 0-5.7 2-5.7 6.6 0 4.4 4.3 7.8 8.5 11.1 5.7 4.5 11.6 9 11.6 17.5 0 9.8-5.2 15-14.4 15-9.7 0-14.5-5.6-14.5-17V141c0-1.7 1.4-3.1 3.2-3.1h2.4c1.7 0 3.2 1.4 3.2 3.1v1.2c0 4.1.8 6.2 2 7.2 1 1 2.4 1.2 3.7 1.2 3.6 0 5.6-1.6 5.6-6.3 0-4-4-7.3-8.3-10.6-5.7-4.5-11.8-9.2-11.8-17.9 0-9.9 5.2-15.6 14.5-15.6zm-79 0h9.4c10.6 0 15.4 5.6 15.4 17 0 11.2-4.8 16.8-15.4 16.8h-4v22c0 1.8-1.4 3.2-3 3.2h-2.5a3.1 3.1 0 0 1-3.1-3.2v-52.6c0-1.8 1.4-3.2 3.1-3.2zm102.5 0h2.5c1.7 0 3.1 1.4 3.1 3.2v22h9.7v-22c0-1.8 1.4-3.2 3.2-3.2h2.4c1.8 0 3.2 1.4 3.2 3.2v52.7c0 1.7-1.4 3.1-3.2 3.1h-2.4a3.1 3.1 0 0 1-3.2-3.2v-22h-9.7v22c0 1.8-1.4 3.2-3.1 3.2H215a3.1 3.1 0 0 1-3.1-3.2v-52.6c0-1.8 1.4-3.2 3.1-3.2zm-97 8.7v16.4h3.9c4.7 0 6.6-2.5 6.6-8.2 0-5.8-2-8.2-6.6-8.2zm90.9 78.7h2.4c1.8 0 3.2 1.4 3.2 3.2v40.7c0 1.6-1.4 3.1-3.2 3.1H209c-1.7 0-3.1-1.5-3.1-3.1V191c0-1.8 1.4-3.2 3-3.2zm-69.2.1h2.6c1.3 0 2.7 1.2 3 2.5l6.9 35.2 6.8-35.2c.3-1.3 1.7-2.5 3-2.5h2.7c1.7 0 3.1 1.4 3.1 3.2v52.7c0 1.7-1.4 3.1-3.1 3.1h-2.5a3.1 3.1 0 0 1-3.1-3.2V225l-2.9 19.5c-.4 1.4-1.8 2.5-3 2.5h-2a3.3 3.3 0 0 1-3-2.5l-3-19.6v19c0 1.7-1.4 3.1-3 3.1h-2.5a3.1 3.1 0 0 1-3.2-3.2v-52.6c0-1.8 1.4-3.2 3.2-3.2zm38.8 0h19c1.7 0 3 1.4 3 3.2v2.3c0 1.8-1.3 3.2-3 3.2H184V213h11c1.7 0 3.1 1.4 3.1 3.2v2.4c0 1.7-1.4 3.1-3.1 3.1h-11v16.5h13.3c1.8 0 3.2 1.4 3.2 3.2v2.3c0 1.8-1.4 3.2-3.2 3.2h-18.9a3.1 3.1 0 0 1-3.1-3.2v-52.6c0-1.8 1.4-3.2 3.1-3.2zm30.4 49.3h2.4c1.8 0 3.2 1.4 3.2 3.1v3.4c0 1.7-1.4 3.1-3.2 3.1H209c-1.7 0-3.1-1.4-3.1-3.1v-3.4c0-1.7 1.4-3.1 3-3.1z"/></svg>