<svg xmlns="http://www.w3.org/2000/svg" fill="none" font-family="Arial" viewBox="0 0 348 348"><path stroke="#000" stroke-width="2" d="M5 5.8h337v337.6H5z"/><path stroke="#000" stroke-width="2" d="M282.7 40.6c0-8.4 7-15.2 15.6-15.2 4.1 0 8 1.6 11 4.4a15 15 0 014.6 10.8c0 8.3-7 15.1-15.6 15.1s-15.6-6.8-15.6-15.1z"/><path fill="#000" stroke="#000" d="M14.499 64.797V17.4h60.264v94.937H14.5v-47.54z"/><text x="36.056" y="77.648" fill="#000" font-family="sans-serif" font-size="52.914" font-weight="400" letter-spacing="0" transform="scale(.75594 1.32285)" word-spacing="0" style="line-height:125%"><tspan style="-inkscape-font-specification:'arial Bold'" x="36.056" y="77.648" fill="#fff" font-family="arial" font-size="82.678" font-weight="700">0</tspan></text><path fill="#000" stroke="#000" d="M80.188 64.797V17.4h60.264v94.937H80.188v-47.54z"/><text style="line-height:125%" x="122.953" y="77.648" fill="#000" font-family="sans-serif" font-size="52.914" font-weight="400" letter-spacing="0" transform="scale(.75594 1.32285)" word-spacing="0"><tspan style="-inkscape-font-specification:'arial Bold'" x="122.953" y="77.648" fill="#fff" font-family="arial" font-size="82.678" font-weight="700">1</tspan></text><path fill="#fff" stroke="#000" d="M144.834 64.797V17.4h60.264v94.937h-60.264v-47.54z"/><text style="line-height:125%" x="208.471" y="77.648" fill="#000" font-family="sans-serif" font-size="52.914" font-weight="400" letter-spacing="0" transform="scale(.75594 1.32285)" word-spacing="0"><tspan style="-inkscape-font-specification:'arial Bold'" x="208.471" y="77.648" font-family="arial" font-size="82.678" font-weight="700">0</tspan></text><path fill="#fff" stroke="#000" d="M210.523 64.797V17.4h60.264v94.937h-60.264v-47.54z"/><text x="295.368" y="77.648" fill="#000" font-family="sans-serif" font-size="52.914" font-weight="400" letter-spacing="0" transform="scale(.75594 1.32285)" word-spacing="0" style="line-height:125%"><tspan style="-inkscape-font-specification:'arial Bold'" x="295.368" y="77.648" font-family="arial" font-size="82.678" font-weight="700">8</tspan></text><path fill="#000" fill-rule="evenodd" stroke="#000" d="M13.555 121.738h315.933v50.049H13.555z"/><text x="26.067" y="156.146" fill="#000" font-family="sans-serif" font-size="40" font-weight="400" letter-spacing="0" word-spacing="0" style="line-height:125%"><tspan x="26.067" y="156.146" fill="#fff" font-size="32.5">&gt;: ▐</tspan></text><path fill="#000" fill-rule="evenodd" stroke="#000" stroke-width="1.07" d="M31.316 188.505h280.412v132.351H31.316z"/><path fill="#68777b" fill-opacity=".994" fill-rule="evenodd" stroke="#000" stroke-width="1.146" d="M37.086 193.672h37.715v36.39H37.086zM37.086 235.931h37.715v36.39H37.086zM83.317 193.672h37.715v36.39H83.317zM83.317 235.931h37.715v36.39H83.317zM129.548 193.672h37.715v36.39h-37.715zM129.548 235.931h37.715v36.39h-37.715zM175.779 193.672h37.715v36.39h-37.715zM175.779 235.931h37.715v36.39h-37.715zM222.011 193.672h37.715v36.39h-37.715zM222.011 235.931h37.715v36.39h-37.715zM268.242 193.672h37.715v36.39h-37.715zM268.242 235.931h37.715v36.39h-37.715z"/><path fill="#68777b" fill-opacity=".994" fill-rule="evenodd" stroke="#000" stroke-width="2.307" d="M103.322 277.41h138.832v40.044H103.322z"/><text x="121.418" y="292.865" fill="#000" font-family="sans-serif" font-size="48.763" font-weight="400" letter-spacing="0" transform="scale(.95686 1.04508)" word-spacing="0" style="line-height:125%"><tspan style="-inkscape-font-specification:arial" x="121.418" y="292.865" fill="#fff" font-family="arial" font-size="24.382">EXECUTE</tspan></text></svg>