<svg xmlns="http://www.w3.org/2000/svg" fill="none" stroke-linecap="square" stroke-miterlimit="10" viewBox="0 0 348 348"><path stroke="#000" stroke-linecap="butt" stroke-linejoin="round" stroke-width="2" d="M5 5.8h337v337.6H5z"/><path fill="#000" d="M133.8 15.7h74.4v56.8h-74.4z"/><path fill="#fff" d="M154.5 44c0-2.6.3-4.8.9-6.4.5-1.7 1.4-3 2.5-3.9a6.4 6.4 0 0 1 4.1-1.3c1.2 0 2.3.2 3.2.7 1 .5 1.7 1.2 2.3 2.2.6.9 1.1 2 1.5 3.4.3 1.3.5 3.1.5 5.4a21 21 0 0 1-.9 6.5c-.5 1.7-1.3 3-2.4 3.8-1.1 1-2.5 1.4-4.2 1.4-2.2 0-4-.8-5.2-2.4-1.5-1.9-2.3-5-2.3-9.3zm3 0c0 3.9.4 6.4 1.2 7.6 1 1.2 2 1.9 3.3 1.9 1.3 0 2.4-.7 3.3-2 .8-1.2 1.3-3.7 1.3-7.4 0-3.8-.5-6.3-1.3-7.5-1-1.3-2-1.9-3.3-1.9-1.3 0-2.3.6-3.1 1.7-1 1.4-1.5 4-1.5 7.7zm14.8 0c0-2.6.3-4.8.9-6.4.5-1.7 1.4-3 2.4-3.9a6.4 6.4 0 0 1 4.2-1.3c1.2 0 2.3.2 3.2.7 1 .5 1.7 1.2 2.3 2.2.6.9 1.1 2 1.5 3.4.3 1.3.5 3.1.5 5.4 0 2.7-.3 4.8-.9 6.5-.5 1.7-1.3 3-2.4 3.8-1.1 1-2.5 1.4-4.2 1.4-2.2 0-4-.8-5.2-2.4-1.5-1.9-2.3-5-2.3-9.3zm3 0c0 3.9.4 6.4 1.2 7.6 1 1.2 2 1.9 3.3 1.9 1.3 0 2.4-.7 3.3-2 .8-1.2 1.3-3.7 1.3-7.4 0-3.8-.5-6.3-1.3-7.5-1-1.3-2-1.9-3.3-1.9-1.3 0-2.3.6-3.1 1.7-1 1.4-1.5 4-1.5 7.7z"/><path fill="#000" d="M278.8 14.3h48.7v38.2h-48.7zM225.7 14.3h48.7v38.2h-48.7zM225.7 58.5h48.7v38.2h-48.7zM278.8 58.5h48.7v38.2h-48.7zM28.9 14.3h48.7v38.2H28.9zM28.9 58.5h48.7v38.2H28.9z" paint-order="markers stroke fill" style="marker:none"/><path stroke="#000" stroke-linecap="butt" stroke-linejoin="round" stroke-miterlimit="4" stroke-width="2" d="M83.9 60.5H110v13.6H83.9zM83.9 81.1H110v13.6H83.9z" paint-order="markers stroke fill" style="marker:none"/><path fill="#000" fill-opacity=".2" d="M21.8 104.4h304.3v230.5H21.8z" paint-order="markers stroke fill" style="marker:none"/><path fill="#000" d="M56 131.6h52.2v37.2H56zM148.4 131.6h52.2v37.2h-52.2zM240.8 131.6H293v37.2h-52.2zM56 202.6h52.2v37.2H56zM148.4 202.6h52.2v37.2h-52.2zM240.8 202.6H293v37.2h-52.2zM56 273.7h52.2v37.2H56zM148.4 273.7h52.2v37.2h-52.2zM240.8 273.7H293v37.2h-52.2z" paint-order="markers stroke fill" style="marker:none"/></svg>