<svg xmlns="http://www.w3.org/2000/svg" fill="none" viewBox="0 0 342.9 390.3"><g stroke="#000" stroke-width="2"><path d="M3 27.5h337V365H3Z"/><path d="M280.7 62.2c0-8.3 7-15.1 15.5-15.1a16 16 0 0 1 11 4.4 15 15 0 0 1 4.6 10.7c0 8.4-7 15.2-15.6 15.2s-15.5-6.8-15.5-15.2z"/></g><path fill="#000" d="M21.2 388.3h255V2h-255Z"/><path fill="gray" d="M55.7 190.6h186v9h-186Z"/><path fill="#fff" d="M267.3 11.3H30.2v175h237.1ZM30.2 379h237.1V204H30.2Z"/><path stroke="#000" stroke-width="2" d="M41 44.8h58.5v64.7H41.1Zm215.4 0H198v64.7h58.4zM38 216.5h221.5v36.6H38Zm218.8 110.3v25.8m-27-25.8v25.8m-27-25.8v25.8m-27-25.8v25.8m-27-25.8v25.8m-27-25.8v25.8m-27-25.8v25.8m-27.1-25.8v25.8m-27-25.8v25.8m0-25.8h216.1v25.8H40.7Zm-4.4 31.8h224.9v16.2H36.3ZM38 180h221.5v-51.3H38Z"/><path fill="#000" d="M55.8 150.6v-.9h3.6v1zm-1-.9v-1h1v1zm4.6 0v-1h1v1zm-5.5-1v-4.5h1v4.6zm1-4.5v-1h.9v1zm4.5 0v-1h1v1zm-3.6-1v-.9h3.6v1zm7.3 7.4v-.9H66v1zm-.9-.9v-1h1v1zm3.7 0v-1h.9v1zm-4.6-1V146h.9v2.8zm5.5 0V146h1v2.8zm-4.6-2.7v-.9h1v1zm3.7 0v-.9h.9v1zm-2.8-.9v-1H66v1zm8.3 5.5v-5.5h1v5.5zm2.8 0v-5.5h.9v5.5zm-5.6 0v-6.4h2.8v.9h-1.8v5.5zm3.7-5.5v-1h1.9v1zm7.4 4.6v-1h1v1zm1-1V147h.8v1.9zm-1-1.8v-.9h1v1zm-3.7 3.7v-8.3h1v2.8h2.7v1h-2.8v3.6h2.8v1zm6.5 0v-6.4h.9v6.4zm0-7.3v-1h.9v1zm6.4 7.3v-5.5h1v5.5zm-4.6 0v-6.4h4.6v.9h-3.7v5.5zm7.4 0v-.9h3.6v1zm3.6-.9v-1h1v1zm-4.6 0v-4.6h1v1.8h3.6v-1.8h1v2.8h-4.6v1.8zm1-4.6v-1h3.6v1zm10.6 5.5v-.9h3.6v1zm-1-.9v-4.6h-.9v-1h1v-.8h.9v.9h3.6v.9h-3.6v4.6zm10.2 1v-3.8h.9v3.7zm-1-3.8v-.9h1v1zm-1.8-.9v-.9h1.8v1zm-1.8 4.6v-8.3h.9v3.7h.9v1h-1v3.6zm11-4.6v-.9h1v1zm-4.6 4.6v-6.4h1v.9h.8v1h-.9v4.5zm1.8-5.5v-1h2.8v1zm5.6 5.5v-.9h3.7v1zm3.7-.9v-1h.9v1zm-4.7 0v-4.6h1v1.8h3.7v-1.8h.9v2.8h-4.6v1.8zm1-4.6v-1h3.7v1zm6.4 5.5v-.9h3.7v1zm3.7-.9v-1h1v1zm-4.6 0v-4.6h1v1.8h3.6v-1.8h1v2.8H127v1.8zm1-4.6v-1h3.6v1zm8.7 5.5v-6.4h.9v6.4zm0-7.3v-1h.9v1zm6.4 7.3v-5.5h1v5.5zm-4.6 0v-6.4h4.6v.9h-3.7v5.5zm7.4 1.9v-1h3.7v1zm-1-1v-.9h1v1zm1-1.8v-1h.9v1zm-1-1V146h1v2.8zm1-2.7v-.9h.9v1zm3.7 5.5v-.9H146v-.9h2.8v-4.6H146v-1h3.7v7.4zm6.4-5.5v-.9h1v1zm-4.6 4.6v-6.4h1v.9h.8v1h-.9v4.5zm1.8-5.5v-1h2.8v1zm5.6 5.5v-.9h3.6v1zm3.6-.9v-1h1v1zm-4.6 0v-4.6h1v1.8h3.6v-1.8h1v2.8H158v1.8zm1-4.6v-1h3.6v1zm6.4 4.6v-1h1v1zm-1-1V147h1v1.9zm1-1.8v-.9h1v1zm1 3.7v-.9h2.7V146h-2.8v-.9h2.8v-2.8h1v8.3zm4.5 0v-6.4h1v6.4zm0-7.3v-1h1v1zm2.8 7.3v-.9h3.7v1zm3.7-.9v-1h.9v1zm-4.6 0v-4.6h.9v1.8h3.7v-1.8h.9v2.8h-4.6v1.8zm.9-4.6v-1h3.7v1zm10.1 5.5v-5.5h1v5.5zm-4.6 0v-6.4h4.6v.9h-3.7v5.5zm8.3 0v-.9h3.7v1zm-1-.9v-4.6h-.8v-1h.9v-.8h.9v.9h3.7v.9h-3.7v4.6zm6.5 1v-1h3.7v1zm-.9-1v-1h1v1zm4.6 0V148h1v1.8zM192 148v-1h3.7v1zm-.9-1v-1.8h1v1.8zm4.6-.9v-.9h1v1zm-3.7-.9v-1h3.7v1zm10.6 5.5v-.9h3.7v1zm-.9-.9v-4.6h-1v-1h1v-.8h1v.9h3.6v.9h-3.7v4.6zm7.4 1v-1h2.7v1zm-1-1v-1h1v1zm3.7 0v-1h1v1zm-4.6-1V146h1v2.8zm5.5 0V146h1v2.8zm-4.6-2.7v-.9h1v1zm3.7 0v-.9h1v1zm-2.7-.9v-1h2.7v1zm12.4 4.6v-1h1v1zm1-1V147h.8v1.9zm-1-1.8v-.9h1v1zm-3.7 3.7v-8.3h1v2.8h2.7v1h-2.8v3.6h2.8v1zm11-4.6v-.9h1v1zm-4.5 4.6v-6.4h.9v.9h.9v1h-1v4.5zm1.8-5.5v-1h2.8v1zm5.5 5.5v-.9h3.7v1zm3.7-.9v-1h1v1zm-4.6 0v-4.6h1v1.8h3.6v-1.8h1v2.8h-4.7v1.8zm1-4.6v-1h3.6v1zm6.4 5.5v-.9h.9v1zm3.6 0v-.9h1v1zm-2.7-.9V148h1v1.8zm1.8 0V148h1v1.8zm-.9-1.8v-2h1v1.9zm-2.8 1.8v-5.5h1v5.5zm5.6 0v-5.5h.9v5.5zM95.8 164.6v-1h3.7v1zm4.6 0v-1h1v1zm-5.5-1V161h1v2.8zm4.6 0V161h-3.7v-1h3.7v-.8h1v4.6zm-3.7-4.5v-1h3.7v1zm11.5 5.5v-1h3.7v1zm-.9-1v-4.5h-1v-1h1v-.9h1v1h3.6v.9h-3.7v4.6zm6.4 1v-1h3.7v1zm4.6 0v-1h1v1zm-5.5-1V161h1v2.8zm4.6 0V161h-3.7v-1h3.7v-.8h1v4.6zm-3.7-4.5v-1h3.7v1zm7.4 5.5v-1h3.7v1zm-1-1v-.8h1v.9zm4.7 0v-1.8h1v1.9zm-3.7-1.8v-.9h3.7v1zm-1-.9v-1.8h1v1.8zm4.7-1v-.8h1v.9zm-3.7-.8v-1h3.7v1zm7.4 5.5v-1h3.7v1zm-1-1v-4.5h-.9v-1h1v-.9h.9v1h3.7v.9h-3.7v4.6zm5.6 2.8v-.9h1.8v1zm1.8-.9v-.9h1v1zm1-.9v-1h.9v1zm-1-1v-.8h1v.9zm-.9-.8v-1.9h1v1.9zm-1-1.9v-2.7h1v2.7zm3.8 2.8v-5.5h.9v5.5zm8.7 0v-1h1v1zm1-1V160h.8v2.8zm-1-2.7v-1h1v1zm-3.7 6.4v-8.2h3.7v.9h-2.8v4.6h2.8v.9h-2.8v1.8zm8.3-1.8v-1h2.8v1zm-1-1v-.8h1v.9zm3.8 0v-.8h.9v.9zm-4.6-.8V160h.9v2.8zm5.5 0V160h1v2.8zm-4.6-2.8v-1h1v1zm3.7 0v-1h.9v1zm-2.8-1v-.8h2.8v.9zm7.4 5.6v-1h3.7v1zm-1-1v-4.5h-.9v-1h1v-.9h.9v1h3.7v.9h-3.7v4.6zm10.6 1v-1h2.8v1zm-.9-1v-.8h1v.9zm3.7 0v-.8h1v.9zm-4.6-.8V160h1v2.8zm5.5 0V160h1v2.8zm-4.6-2.8v-1h1v1zm3.7 0v-1h1v1zm-2.8-1v-.8h2.8v.9zm7.4 5.6V160h-1.8v-1h1.8v-1.8h1v1.9h2.7v.9h-2.8v4.6zm1-7.4v-.9h2.7v1zm8.7 7.4v-1h3.7v1zm-1-1v-4.5h-.9v-1h1v-.9h.9v1h3.7v.9h-3.7v4.6zm6.5 1v-1h3.7v1zm3.7-1v-.8h1v.9zm-4.6 0v-4.5h.9v1.8h3.7v-1.8h1v2.7h-4.7v1.9zm.9-4.5v-1h3.7v1zm6.4 5.5v-1h3.7v1zm4.7 0v-1h.9v1zm-5.6-1V161h1v2.8zm4.6 0V161h-3.6v-1h3.6v-.8h1v4.6zm-3.6-4.5v-1h3.6v1zm6.4 5.5v-1.8h1v1.8zm0-2.8v-5.5h1v5.5zM63.6 238v-6.4h.9v3.7h4.6v-3.7h1v6.4h-1v-1.8h-4.6v1.8zm.9-6.4v-1h1v1zm3.7 0v-1h.9v1zm-2.8-1v-.8h2.8v.9zm6.5 6.5v-.9h.9v1zm-1-.9v-1.8h1v1.8zm1-1.8v-1h.9v1zm.9 3.6v-.9h2.8v-3.7h-2.8v-.9h2.8v-2.7h.9v8.2zm5.5-.9v-.9h1v1zm-1-.9v-1.8h1v1.8zm1-1.8v-1h1v1zm1 3.6v-.9H82v-3.7h-2.8v-.9H82v-2.7h1v8.2zm7.8 0v-6.4h.9v6.4zm0-7.3v-1h.9v1zm6.4 7.3v-5.5h1v5.5zm-4.6 0v-6.4h4.6v1h-3.7v5.4zm7.4 1.9v-1h3.7v1zm-1-1v-.9h1v1zm1-1.8v-.9h.9v1zm-1-.9v-2.8h1v2.8zm1-2.8v-.9h.9v1zm3.7 5.6v-1h-2.8v-.9h2.8v-4.6h-2.8v-.9h3.7v7.4zm6.4-5.6v-.9h1v1zm-4.6 4.6v-6.4h1v1h.8v.8h-.9v4.6zm1.8-5.5v-.9h2.8v1zm5.6 5.5v-.9h3.6v1zm3.6-.9v-.9h1v1zm-4.6 0v-4.6h1v1.9h3.6v-1.9h1v2.8h-4.6v1.8zm1-4.6v-.9h3.6v1zm6.4 4.6v-.9h1v1zm-1-.9v-1.8h1v1.8zm1-1.8v-1h1v1zm1 3.6v-.9h2.7v-3.7h-2.8v-.9h2.8v-2.7h1v8.2zm4.5 0v-6.4h1v6.4zm0-7.3v-1h1v1zm2.8 7.3v-.9h3.7v1zm3.7-.9v-.9h.9v1zm-4.6 0v-4.6h.9v1.9h3.7v-1.9h.9v2.8h-4.6v1.8zm.9-4.6v-.9h3.7v1zM134 238v-5.5h1v5.5zm-4.6 0v-6.4h4.6v1h-3.7v5.4zm8.3 0v-.9h3.7v1zm-1-.9v-4.6h-.8v-.9h.9v-1h.9v1h3.7v1h-3.7v4.5zm6.5 1v-1h3.7v1zm-.9-1v-.9h1v1zm4.6 0v-1.8h1v1.8zm-3.7-1.8v-1h3.7v1zm-.9-1v-1.8h1v1.9zm4.6-.9v-.9h1v1zm-3.7-.9v-.9h3.7v1zm10.6 5.5v-.9h3.7v1zm-1-.9v-4.6h-.8v-.9h.9v-1h1v1h3.6v1h-3.7v4.5zm7.5 1v-1h2.7v1zm-1-1v-.9h1v1zm3.7 0v-.9h1v1zm-4.6-.9v-2.8h1v2.8zm5.5 0v-2.8h1v2.8zm-4.6-2.8v-.9h1v1zm3.7 0v-.9h1v1zm-2.7-.9v-.9h2.7v1zm10.5 5.5v-.9h3.7v1zm-.9-.9v-4.6h-.9v-.9h1v-1h.8v1h3.7v1h-3.7v4.5zm10.2 1v-3.7h.9v3.6zm-1-3.7v-1h1v1zm-1.8-1v-.9h1.8v1zm-1.8 4.6v-8.2h.9v3.6h.9v1h-1v3.6zm7.3 0v-.9h3.7v1zm3.7-.9v-.9h1v1zm-4.6 0v-4.6h1v1.9h3.6v-1.9h1v2.8h-4.7v1.8zm1-4.6v-.9h3.6v1zm10.5 5.5v-.9h3.7v1zm-1-.9v-4.6h-.8v-.9h.9v-1h1v1h3.6v1h-3.7v4.5zm6.5 1v-1h3.7v1zm3.7-1v-.9h1v1zm-4.6 0v-4.6h1v1.9h3.6v-1.9h1v2.8h-4.7v1.8zm1-4.6v-.9h3.6v1zm6.4 5.5v-.9h3.7v1zm4.6 0v-.9h.9v1zm-5.5-.9v-2.7h.9v2.7zm4.6 0v-2.7h-3.7v-1h3.7v-.9h.9v4.6zm-3.7-4.6v-.9h3.7v1zm10.1 4.6v-.9h1v1zm1-.9v-2.8h.8v2.8zm-1-2.8v-.9h1v1zm-3.7 6.5v-8.3h3.7v1h-2.8v4.5h2.8v1h-2.8v1.8zm8.3-1.9v-.9h2.8v1zm-1-.9v-.9h1v1zm3.8 0v-.9h.9v1zm-4.6-.9v-2.8h.9v2.8zm5.5 0v-2.8h1v2.8zm-4.6-2.8v-.9h1v1zm3.7 0v-.9h.9v1zm-2.8-.9v-.9h2.8v1zm7.4 5.5v-.9h3.7v1zm-1-.9v-4.6h-.9v-.9h1v-1h.9v1h3.7v1h-3.7v4.5zm5.6 1v-1.9h1.8v1.8zm73.9 80.4v1.5h-1.4v1.4h-1.5v1.5h-1.5v1.5h-1.5v1.5h-8.9v9h9v1.4h1.4v1.5h1.5v1.5h1.5v1.5h1.5v1.4h1.5v-23.7Zm9 0v1.5h1.5v-1.5zm1.5 1.5v1.4h1.5V320zm1.5 1.4v4.5h1.5v-4.5zm1.5 4.5v9h1.4v-9zm0 9H318v4.4h1.5zm-1.5 4.4h-1.5v1.5h1.5zm-1.5 1.5H315v1.4h1.5zm-4.5-19.4v1.5h1.5v-1.5zm1.5 1.5v1.5h1.5V323zm1.5 1.5v11.9h1.5v-11.9zm0 11.9h-1.5v1.5h1.5zm-1.5 1.5H312v1.5h1.5zm-4.4-13.4v1.5h1.4v-1.5zm1.4 1.5v3h1.5v-3zm1.5 3v3h1.5v-3zm0 3h-1.5v3h1.5zm-1.5 3h-1.4v1.4h1.4z"/><path fill="#fff" d="M292.7 327.4v6h1.5v-3h1.5v-1.5h-1.5v-1.5zm3 3v1.4h1.5v-1.4zm1.5 0h1.5v3h1.4v-6h-1.4v1.5h-1.5z"/></svg>