<svg xmlns="http://www.w3.org/2000/svg" fill="none" viewBox="0 0 348 348"><circle cx="170" cy="178" r="157.525" fill="#bbb"/><path d="M174.495 149.547l14.93-50.157M213.333 110.71l14.93-50.158M259.939 134.012l14.93-50.157M221.1 172.85l14.931-50.157M174.495 266.061l14.93-50.158M213.333 227.223l14.93-50.157M259.939 250.526l14.93-50.158M221.1 289.364l14.931-50.158M57.982 266.061l14.93-50.158M96.82 227.223l14.93-50.157M143.425 250.526l14.93-50.158M104.587 289.364l14.93-50.158M57.982 149.547l14.93-50.157M96.82 110.71l14.93-50.158M143.425 134.012l14.93-50.157M104.587 172.85l14.93-50.157" stroke="#000" stroke-width="2.702"/><path d="M104.587 289.364h116.514M104.587 172.85h116.514m-77.676 77.676H259.94m0-116.514v116.514M143.425 134.012H259.94M143.425 250.526V134.012m0 0l-38.838 38.838m155.352-38.838L221.1 172.85m38.838 77.676L221.1 289.364m-77.676-38.838l-38.838 38.838M57.982 266.06h116.513m0-116.514v116.514M57.982 149.547h116.513M57.982 266.061V149.547m38.838 77.676h116.513m0-116.513v116.513M96.82 110.71h116.513M96.82 227.223V110.71m0 0l-38.838 38.837m155.351-38.837l-38.838 38.837m38.838 77.676l-38.838 38.838M96.82 227.223l-38.838 38.838M96.82 110.71l46.605 23.302m69.908-23.302l46.606 23.302M57.982 149.547l46.605 23.303m69.908-23.303l46.606 23.303M96.82 227.223l46.605 23.303" stroke="#000" stroke-width="3.107"/><circle cx="96.82" cy="227.223" r="7.768" fill="#ddd" stroke="#000" stroke-width=".777"/><path d="M213.333 227.223l46.606 23.303M57.982 266.06l46.605 23.303m69.908-23.303l46.606 23.303" stroke="#000" stroke-width="3.107"/><circle cx="96.82" cy="110.71" r="7.768" fill="#ddd" stroke="#000" stroke-width=".777"/><circle cx="213.333" cy="110.71" r="7.768" fill="#ddd" stroke="#000" stroke-width=".777"/><circle cx="213.333" cy="227.223" r="7.768" fill="#ddd" stroke="#000" stroke-width=".777"/><circle cx="143.425" cy="134.012" r="7.768" fill="#ddd" stroke="#000" stroke-width=".777"/><circle cx="259.939" cy="134.012" r="7.768" fill="#ddd" stroke="#000" stroke-width=".777"/><circle cx="143.425" cy="250.526" r="7.768" fill="#ddd" stroke="#000" stroke-width=".777"/><circle cx="259.939" cy="250.526" r="7.768" fill="#ddd" stroke="#000" stroke-width=".777"/><circle cx="57.982" cy="149.547" r="7.768" fill="#ddd" stroke="#000" stroke-width=".777"/><circle cx="174.495" cy="149.547" r="7.768" fill="#ddd" stroke="#000" stroke-width=".777"/><circle cx="57.982" cy="266.061" r="7.768" fill="#ddd" stroke="#000" stroke-width=".777"/><circle cx="174.495" cy="266.061" r="7.768" fill="#ddd" stroke="#000" stroke-width=".777"/><path d="M221.1 172.85v116.514" stroke="#000" stroke-width="3.107"/><circle cx="221.101" cy="172.85" r="7.768" fill="#ddd" stroke="#000" stroke-width=".777"/><circle cx="221.101" cy="289.364" r="7.768" fill="#ddd" stroke="#000" stroke-width=".777"/><path d="M104.587 289.364V172.85" stroke="#000" stroke-width="3.107"/><circle cx="104.587" cy="172.85" r="7.768" fill="#ddd" stroke="#000" stroke-width=".777"/><circle cx="104.587" cy="289.364" r="7.768" fill="#ddd" stroke="#000" stroke-width=".777"/><path d="M119.517 239.206h116.514M119.517 122.693h116.514m-77.676 77.675H274.87m0-116.513v116.513M158.355 83.855H274.87M158.355 200.368V83.855m0 0l-38.838 38.838M274.87 83.855l-38.838 38.838m38.838 77.675l-38.838 38.838m-77.676-38.838l-38.838 38.838m-46.605-23.303h116.514m0-116.513v116.513M72.912 99.39h116.514M72.912 215.903V99.39m38.838 77.676h116.513m0-116.514v116.514M111.75 60.552h116.513M111.75 177.066V60.552m0 0L72.912 99.39m155.351-38.838L189.426 99.39m38.837 77.676l-38.837 38.837m-77.676-38.837l-38.838 38.837M111.75 60.552l46.605 23.303m69.908-23.303l46.606 23.303M72.912 99.39l46.605 23.303m69.909-23.303l46.605 23.303M111.75 177.066l46.605 23.302" stroke="#000" stroke-width="3.107"/><path d="M5.08 5.776h336.91v337.67H5.08z" stroke-width="2" stroke="#000"/><path stroke="#000" stroke-width="2" d="M282.734 40.554c0-8.376 6.966-15.165 15.56-15.165 4.126 0 8.084 1.594 11 4.44 2.92 2.842 4.56 6.7 4.56 10.722 0 8.376-6.967 15.165-15.56 15.165-8.594 0-15.56-6.79-15.56-15.166z"/><circle cx="111.75" cy="177.066" r="7.768" fill="#ddd" stroke="#000" stroke-width=".777"/><path d="M228.263 177.066l46.606 23.302M72.912 215.903l46.605 23.303m69.909-23.303l46.605 23.303" stroke="#000" stroke-width="3.107"/><circle cx="111.75" cy="60.552" r="7.768" fill="#ddd" stroke="#000" stroke-width=".777"/><circle cx="228.263" cy="60.552" r="7.768" fill="#ddd" stroke="#000" stroke-width=".777"/><circle cx="228.263" cy="177.066" r="7.768" fill="#ddd" stroke="#000" stroke-width=".777"/><circle cx="158.355" cy="83.855" r="7.768" fill="#ddd" stroke="#000" stroke-width=".777"/><circle cx="274.869" cy="83.855" r="7.768" fill="#ddd" stroke="#000" stroke-width=".777"/><circle cx="158.355" cy="200.368" r="7.768" fill="#ddd" stroke="#000" stroke-width=".777"/><circle cx="274.869" cy="200.368" r="7.768" fill="#ddd" stroke="#000" stroke-width=".777"/><circle cx="72.912" cy="99.39" r="7.768" fill="#ddd" stroke="#000" stroke-width=".777"/><circle cx="189.426" cy="99.39" r="7.768" fill="#ddd" stroke="#000" stroke-width=".777"/><circle cx="72.912" cy="215.903" r="7.768" fill="#ddd" stroke="#000" stroke-width=".777"/><circle cx="189.426" cy="215.903" r="7.768" fill="#ddd" stroke="#000" stroke-width=".777"/><path d="M236.031 122.693v116.513" stroke="#000" stroke-width="3.107"/><circle cx="236.031" cy="122.692" r="7.768" fill="#ddd" stroke="#000" stroke-width=".777"/><circle cx="236.031" cy="239.206" r="7.768" fill="#ddd" stroke="#000" stroke-width=".777"/><path d="M119.517 239.206V122.693" stroke="#000" stroke-width="3.107"/><circle cx="119.517" cy="122.692" r="7.768" fill="#ddd" stroke="#000" stroke-width=".777"/><circle cx="119.517" cy="239.206" r="7.768" fill="#ddd" stroke="#000" stroke-width=".777"/></svg>