<svg xmlns="http://www.w3.org/2000/svg" xml:space="preserve" viewBox="0 0 89.7 89.9"><g transform="translate(-9.0067398,-82.548701)"><g fill="none" stroke="#000" stroke-width=".6"><path d="M9.3 82.8h89.1v89.4H9.3Z"/><path d="M82.7 92a4 4 0 0 1 4.2-4c1 0 2 .4 2.9 1.2A4 4 0 0 1 91 92a4 4 0 0 1-4.1 4 4 4 0 0 1-4.2-4z"/></g><ellipse cx="41.4" cy="117.8" stroke="#1a1a1a" stroke-width=".3" rx="27.5" ry="27"/><path stroke="#000" stroke-width=".3" d="M18.6 154.4h22.8v10.1H18.6z"/><path fill="gray" fill-rule="evenodd" d="M41.5 95.3c.3 2.6 0 5.3.1 8 .2 2-.4 4.3.4 6 2.1-.4 2-3.6 3.4-5a14 14 0 0 1 4.9-4.8 9.9 9.9 0 0 1 9.6 4.2c1.4 1.4 2.4 3.4-.3 4l-10.3 6c0 2.4 3.6.3 5.2.9 2.6 0 5.4.2 7.5 1.8a7.6 7.6 0 0 1 2 6.1c0 2.4-1.1 4.5-2.3 6.5-2-.3-3.7-1.9-5.6-2.8-2.4-1.3-4.7-2.7-7.2-3.9-1.7 1.2 1 2.7 1.5 4a16 16 0 0 1 2.8 8c-1.5 3.7-5.3 6-9.2 6.1-1.5.4-3.2.3-2.7-1.7v-12.1c-2.6-.6-2.3 3.6-4 4.9a14.4 14.4 0 0 1-4.7 4.7c-2.8.4-5.8-.3-7.9-2.4-1-1.3-4-3.4-2.8-5l11.7-6.8c0-2.4-3.7-.3-5.4-.8-2.6-.2-5.6-.2-7.6-2.1a8.6 8.6 0 0 1-1.7-6.5 13 13 0 0 1 2.3-6c2 .5 3.7 2 5.5 2.8l7 3.9c2.3-.9-1.3-3-1.6-4.5a14 14 0 0 1-2.4-7.3 9.8 9.8 0 0 1 8.3-6.1c1-.2 2.4-.5 3.5 0zM40.2 114c-2.5.7-3.7 4.3-2 6.3 1.5 2.2 5 2.1 6.4 0 1.7-2 .8-5-1.4-6-1-.6-2-.6-3-.3z"/><path fill="#ececec" stroke-width="1.1" d="m24.6 156.6-.7.7h-2.3l-.7-.7zm.1 3.7v2.7l-.7-.7v-1.8l.5-.5zm-.7-1v-1.8l.7-.7v2.7l-.2.3zm5.6-2.7-.7.7h-2.3l-.7-.7zm0 6.5h-3.7l.7-.7H29zm-3.8-3.6v-2.7l.7.7v1.8l-.4.5zm3.9.8v2.7l-.7-.7v-1.8l.4-.5zm-.7-.8.3.4-.3.3h-2.5l-.3-.3.3-.4zm3.4-.6q-.7 0-1.1-.4-.5-.5-.5-1.2t.4-1.1q.5-.4 1.2-.4.8 0 1.2.4.5.4.5 1.1 0 .7-.5 1.2-.4.4-1.2.4zm0-.6q.5 0 .8-.3.2-.3.2-.7 0-.4-.2-.7-.3-.3-.8-.3t-.7.3q-.2.3-.2.7 0 .4.2.7.2.3.7.3zm6.6-1.7-.6.7H36l-.7-.7zm-3.1 3.9v1.8l-.7.7v-2.7l.2-.3zm-.7-1v-2.7l.7.7v1.8l-.5.5zm3.1 0 .4.4-.4.3H36l-.3-.3.3-.4z" aria-label="75°F"/><circle cx="67.7" cy="92.7" r="5.7" stroke="#1a1a1a" stroke-width=".3"/><circle cx="67.7" cy="92.7" r="4.7" fill="#e6e6e6" stroke="#666" stroke-width=".2"/><path fill="#b3b3b3" stroke="#333" stroke-width=".3" d="M74.6 137.7h12.8v12.9H74.6zm-8 15.9h12.9v12.9H66.6zm15.9 0h12.9v12.9H82.5z"/></g></svg>