<svg version="1.0" xmlns="http://www.w3.org/2000/svg" width="464" height="464" viewBox="0 0 348 348"><path d="M4 174.5V344h339V5H4v169.5zm337 0V342H6V7h335v167.5z"/><path d="M294.5 25c-4.6 1-7.9 3.5-10.3 7.9-5.6 9.8.4 21.5 11.9 23.6 7.2 1.3 16.8-5.3 18.4-12.6 2.5-11.1-8.5-21.5-20-18.9zm11.4 3.9c9.5 6.7 9 18.7-1 23.9-9.7 5.1-20.9-1.4-20.9-12.1 0-6.7 3.1-10.9 9.7-13.2 4.4-1.5 8.8-1 12.2 1.4zM157.6 50.7c-.4.9-.6 7.5-.5 14.7l.1 12.9-5.3 2.2c-20.7 8.4-36.6 21.3-48.3 38.7-36.4 54.8-16.5 130.6 41.6 157.7 23.8 11.2 53.3 12 76.8 2.2 26.3-10.9 46.5-31.3 57-57.5 6.3-15.6 7.5-22.4 7.4-41.6 0-15.6-.3-18.6-2.7-27.5-5.4-20.5-18.7-41.8-34.1-54.7-8.5-7.2-19.9-14-28.3-17l-6.3-2.3V49h-28.4c-25.8 0-28.4.2-29 1.7zM212 63.3v11.4h-52V52h52v11.3zm-9 15.8c17.4 2.8 34.1 11.5 48.5 25.1 14.5 13.8 24 29.8 29.2 49.3 2.3 8.8 2.6 11.9 2.7 26 0 13.4-.3 17.5-2.2 24.8-6.2 24.8-19 44.8-37.5 58.8-31.8 24.1-73 26.3-106.9 5.8-15-9.1-31.3-27.6-38.8-44.2-18.6-41-9.3-90.4 22.7-120.8 13.5-12.8 33.5-22.9 49.8-25.2 6.3-.9 26.3-.6 32.5.4z"/><path d="M221.8 125.8c-2.6.9-5.2 2.2-5.8 2.8-.6.6-1 3.7-.8 7.3l.3 6.1 3.6-2.6c5.4-3.8 10.6-4.7 14.9-2.6 4.6 2.2 6.4 6.2 6.4 14.2 0 8.5-2.7 14.3-9.9 21.9l-5.5 5.8V198h8v-14.1l5.3-6.2c7.6-9 10-15.1 10.5-26.5.3-7.2 0-10.5-1.3-13.8-4.5-11.9-13.5-15.9-25.7-11.6zM179.1 127c-3 1.1-5.6 2.1-5.8 2.4-.2.2-.3 3.3-.1 6.9l.3 6.6 4.2-2.8c7.9-5.3 14.2-4.9 18.7 1.2 1.7 2.3 2.1 4.3 2.1 10-.1 9.1-2.5 14.7-9.8 22.5l-5.4 5.7.5 9.7.4 9.8h6.8v-14.2l5-5.6c9.5-10.6 13.2-22.5 11-35.1-1.3-7.5-2.7-10.6-6.7-14.3-5.5-5.2-12-6.1-21.2-2.8zM137.1 128c-3 1.1-5.6 2.1-5.8 2.4-.2.2-.3 3.3-.1 6.9l.3 6.6 4.4-2.9c8.8-5.9 15.9-4.9 19.4 2.8 4.1 9.4.5 22.2-8.7 31.2l-4.6 4.4V200h7.9l-.6-6.9-.6-7 5.2-5.8c6.2-7 9.7-13.7 11.2-21.8 2.1-11.6-1.5-24.8-8.2-29.5-4.5-3.3-12.6-3.7-19.8-1zM225 218v7h9v-14h-9v7zM183 219v7h9v-14h-9v7zM142 220v7h8v-14h-8v7z"/></svg>