<svg xmlns="http://www.w3.org/2000/svg" fill="none" viewBox="0 0 512 512"><path stroke="#000" stroke-width="4" d="M17.999975 17.999995H494.00002V494H17.999975Z"/><path stroke="#000" stroke-width="4" d="M470.00003 63.999996a22 22 0 0 1-22 22 22 22 0 0 1-22-22 22 22 0 0 1 22-22 22 22 0 0 1 22 22z"/><path stroke="#000" stroke-width="4" d="M270 116.00003a14 14 0 0 1-14 14 14 14 0 0 1-14-14 14 14 0 0 1 14-14 14 14 0 0 1 14 14zm0 280a14 14 0 0 1-14 14 14 14 0 0 1-14-14 14 14 0 0 1 14-14 14 14 0 0 1 14 14zm123.47416962-169.947551a14 14 0 0 1-17.64102742-8.9885567 14 14 0 0 1 8.9885567-17.64102742 14 14 0 0 1 17.64102741 8.9885567 14 14 0 0 1-8.98855669 17.64102742zm-266.29584783 86.52470946a14 14 0 0 1-17.64102742-8.9885567 14 14 0 0 1 8.98855669-17.64102742 14 14 0 0 1 17.64102742 8.9885567 14 14 0 0 1-8.9885567 17.64102742zm220.59051338-163.22836992a14 14 0 0 1-19.49819897 3.43805715 14 14 0 0 1-3.43805715-19.49819897 14 14 0 0 1 19.49819897-3.43805715 14 14 0 0 1 3.43805715 19.49819897zM187.16741411 378.71138383a14 14 0 0 1-19.49819896 3.43805715A14 14 0 0 1 164.231158 362.651242a14 14 0 0 1 19.49819896-3.43805715 14 14 0 0 1 3.43805715 19.49819897zm198.62200146-68.3909889a14 14 0 0 1-9.29505662-17.4814737 14 14 0 0 1 17.4814737-9.2950566 14 14 0 0 1 9.29505661 17.48147369 14 14 0 0 1-17.4814737 9.29505661zm-267.7653031-81.86417079a14 14 0 0 1-9.29505661-17.4814737 14 14 0 0 1 17.4814737-9.2950566 14 14 0 0 1 9.2950566 17.48147369 14 14 0 0 1-17.48147369 9.29505661zm208.93951126 149.03523888a14 14 0 0 1 3.09725122-19.55523037 14 14 0 0 1 19.55523037 3.09725122 14 14 0 0 1-3.09725122 19.55523037 14 14 0 0 1-19.55523037-3.09725122zM162.38382628 150.96663906a14 14 0 0 1 3.09725122-19.55523037 14 14 0 0 1 19.55523037 3.09725121 14 14 0 0 1-3.09725121 19.55523037 14 14 0 0 1-19.55523038-3.09725121zM194 194h124v124H194Z" paint-order="markers fill stroke"/><path stroke="#000" stroke-width="4" d="M302.00003 173h-96.00002m0 12h96.00002m3.99999 2a6.0000052 8.0000048 0 0 1-6.00001-8 6.0000052 8.0000048 0 0 1 6.00001-8 6.0000052 8.0000048 0 0 1 6.00001 8 6.0000052 8.0000048 0 0 1-6.00001 8zM202 187a6.0000052 8.0000048 0 0 1-6-8 6.0000052 8.0000048 0 0 1 6-8 6.0000052 8.0000048 0 0 1 6.00001 8A6.0000052 8.0000048 0 0 1 202 187Zm104.00001 140h-96.00002m0 12h96.00002M310 341a6.0000052 8.0000048 0 0 1-6.00001-8A6.0000052 8.0000048 0 0 1 310 325a6.0000052 8.0000048 0 0 1 6.00001 8A6.0000052 8.0000048 0 0 1 310 341Zm-104.00002 0a6.0000052 8.0000048 0 0 1-6-8 6.0000052 8.0000048 0 0 1 6-8 6.0000052 8.0000048 0 0 1 6.00001 8 6.0000052 8.0000048 0 0 1-6.00001 8zM339 302.00003v-96.00002m-12 0v96.00002m-2 3.99999a6.0000052 8.0000048 90 0 1 8-6.00001 6.0000052 8.0000048 90 0 1 8 6.00001 6.0000052 8.0000048 90 0 1-8 6.00001 6.0000052 8.0000048 90 0 1-8-6.00001zM325 202a6.0000052 8.0000048 90 0 1 8-6 6.0000052 8.0000048 90 0 1 8 6 6.0000052 8.0000048 90 0 1-8 6.00001A6.0000052 8.0000048 90 0 1 325 202ZM185 306.00001v-96.00002m-12 0v96.00002M171 310a6.0000052 8.0000048 90 0 1 8-6.00001A6.0000052 8.0000048 90 0 1 187 310a6.0000052 8.0000048 90 0 1-8 6.00001A6.0000052 8.0000048 90 0 1 171 310Zm0-104.00002a6.0000052 8.0000048 90 0 1 8-6 6.0000052 8.0000048 90 0 1 8 6 6.0000052 8.0000048 90 0 1-8 6.00001 6.0000052 8.0000048 90 0 1-8-6.00001z"/><path stroke="#000" stroke-width="4" d="M448.27951 385.27283a30 30 0 0 1-30 30 30 30 0 0 1-30-30 30 30 0 0 1 30-30 30 30 0 0 1 30 30z" paint-order="markers fill stroke"/><path fill="#000" d="m240 250-8 6 8 6h32l8-6-8-6zm-10-42 8 8v32l-8 6-4-4v-38zm0 96 8-8v-32l-8-6-4 4v38zm52-96-8 8v32l8 6 4-4v-38zm0 96-8-8v-32l8-6 4 4v38zm-2-98-8 8h-32l-8-8 4-4h40zm0 100-8-8h-32l-8 8 4 4h40z" paint-order="markers fill stroke"/></svg>