<svg xmlns="http://www.w3.org/2000/svg" viewBox="0 0 348 348" fill="none"><path d="M5.079 5.776h336.913v337.67H5.08z" stroke-width="2" stroke="#000"/><path d="M282.734 40.554c0-8.376 6.966-15.165 15.56-15.165 4.126 0 8.084 1.597 11.001 4.441 2.918 2.844 4.558 6.702 4.558 10.724 0 8.376-6.966 15.165-15.56 15.165-8.593 0-15.559-6.79-15.559-15.165z" stroke-width="2" stroke="#000"/><path stroke="#000" d="M18.316 23.985h247.263v36.632H18.316z"/><path d="M51.954 37.005l-20.156 7.167 20.156 7.13v3.554l-25.039-9.082v-3.242l25.04-9.082zm12.11-6.231V53.45h4.765q6.036 0 8.828-2.735 2.813-2.734 2.813-8.632 0-5.86-2.813-8.575-2.792-2.734-8.828-2.734zm-3.946-3.242h8.106q8.476 0 12.441 3.535 3.965 3.516 3.965 11.016 0 7.539-3.984 11.074-3.985 3.535-12.422 3.535h-8.106zm30.782 0h3.945v29.16H90.9zm29.277.957v3.848q-2.246-1.075-4.238-1.602-1.992-.527-3.848-.527-3.223 0-4.98 1.25-1.739 1.25-1.739 3.554 0 1.934 1.153 2.93 1.172.977 4.414 1.582l2.383.488q4.414.84 6.503 2.97 2.11 2.108 2.11 5.663 0 4.238-2.852 6.426-2.832 2.187-8.32 2.187-2.07 0-4.414-.468-2.324-.47-4.824-1.387V51.34q2.402 1.348 4.707 2.032 2.304.683 4.53.683 3.38 0 5.216-1.328 1.836-1.328 1.836-3.789 0-2.148-1.328-3.36-1.309-1.21-4.317-1.816l-2.402-.468q-4.414-.88-6.387-2.754-1.973-1.875-1.973-5.215 0-3.867 2.715-6.094 2.735-2.226 7.52-2.226 2.05 0 4.18.37 2.128.372 4.355 1.114zm11.855 2.285v10.957h4.961q2.754 0 4.258-1.426 1.504-1.425 1.504-4.062 0-2.617-1.504-4.043-1.504-1.426-4.258-1.426zm-3.945-3.242h8.906q4.903 0 7.403 2.226 2.52 2.207 2.52 6.485 0 4.316-2.52 6.523-2.5 2.207-7.403 2.207h-4.96v11.719h-3.946zm24.141 0h3.945v25.84h14.2v3.32h-18.145zm32.949 3.887l-5.352 14.511h10.723zm-2.227-3.887h4.473l11.113 29.16h-4.101l-2.656-7.48h-13.145l-2.656 7.48h-4.16zm12.696 0h4.238l8.086 11.992 8.027-11.992h4.239l-10.313 15.273v13.887h-3.965V42.805zm28.769 9.473V33.45l25.04 9.082v3.242l-25.04 9.082v-3.555l20.117-7.129z" fill="#000"/><path stroke="#000" stroke-width="1.269" d="M18.171 284.304h309.913v47.051H18.171z"/><path stroke="#000" d="M135.549 288.692h68.902v36.632h-68.902zm97.188-.075h68.902v36.632h-68.902zm-192 0h68.902v36.632H40.737z"/><path stroke="#000" stroke-width="1.12" d="M19.217 154.451h309.897v36.632H19.217z"/><path d="M110.301 158.955v3.848q-2.246-1.075-4.238-1.602-1.992-.527-3.848-.527-3.222 0-4.98 1.25-1.738 1.25-1.738 3.554 0 1.934 1.152 2.93 1.172.977 4.414 1.582l2.383.488q4.414.84 6.504 2.97 2.11 2.108 2.11 5.663 0 4.238-2.853 6.426-2.832 2.187-8.32 2.187-2.07 0-4.414-.468-2.324-.47-4.824-1.387v-4.063q2.402 1.348 4.707 2.032 2.305.683 4.531.683 3.38 0 5.215-1.328 1.836-1.328 1.836-3.789 0-2.148-1.328-3.36-1.309-1.21-4.317-1.816l-2.402-.468q-4.414-.88-6.387-2.754-1.972-1.875-1.972-5.215 0-3.867 2.715-6.094 2.734-2.226 7.52-2.226 2.05 0 4.179.37 2.129.372 4.355 1.114zm7.461-.957h3.965v17.715q0 4.687 1.7 6.758 1.698 2.05 5.507 2.05 3.79 0 5.488-2.05 1.7-2.07 1.7-6.758v-17.715h3.964V176.2q0 5.703-2.832 8.613-2.812 2.91-8.32 2.91-5.527 0-8.36-2.91-2.812-2.91-2.812-8.613zm33.692 15.234v10.684h6.328q3.183 0 4.707-1.309 1.543-1.328 1.543-4.043 0-2.734-1.543-4.023-1.524-1.309-4.707-1.309zm0-11.992v8.79h5.84q2.89 0 4.296-1.075 1.426-1.094 1.426-3.32 0-2.207-1.426-3.301-1.406-1.094-4.297-1.094zm-3.946-3.242h10.078q4.512 0 6.954 1.875 2.44 1.875 2.44 5.332 0 2.676-1.25 4.258-1.25 1.582-3.67 1.972 2.91.625 4.51 2.618 1.622 1.972 1.622 4.94 0 3.907-2.656 6.036-2.657 2.129-7.559 2.129h-10.469zm27.422 0h5.88l7.44 19.844 7.48-19.844h5.88v29.16h-3.848v-25.605l-7.52 20h-3.964l-7.52-20v25.605h-3.828zm34.531 0h3.946v29.16h-3.946zm7.754 0h24.668v3.32h-10.351v25.84h-3.965v-25.84h-10.352z" fill="#000"/></svg>