<svg xmlns="http://www.w3.org/2000/svg" viewBox="0 0 348 348" fill="none"><path d="M114.934 188.008v100.271h5.162v-42.966h121.59v-5.022h-121.59v-52.283h-5.162z" opacity=".98" fill="#fff" stroke="#000" stroke-width="2.927" stroke-linejoin="round"/><path d="M5.079 5.776h336.913v337.67H5.08z" stroke-width="2" stroke="#000"/><path d="M282.734 40.554c0-8.376 6.966-15.165 15.56-15.165 4.126 0 8.084 1.597 11.001 4.441 2.918 2.844 4.558 6.702 4.558 10.724 0 8.376-6.966 15.165-15.56 15.165-8.593 0-15.559-6.79-15.559-15.165z" stroke-width="2" stroke="#000"/><circle cx="117.515" cy="118.212" r="73.317" opacity=".98" fill="#fff" stroke="#000" stroke-width="2.667" stroke-linejoin="round"/><path opacity=".98" fill="#fff" stroke="#000" stroke-width="3" stroke-linejoin="round" d="M39.078 278.304h156.875v45.599H39.078z"/><path opacity=".98" fill="#fff" stroke="#000" stroke-width="2.711" stroke-linejoin="round" d="M274.729 264.541h43.478v43.478h-43.478zM274.729 221.063h43.478v43.478h-43.478z"/><path opacity=".98" fill="#fff" stroke="#000" stroke-width="2.711" stroke-linejoin="round" d="M274.729 177.585h43.478v43.478h-43.478z"/><path opacity=".98" fill="#fff" stroke="#000" stroke-width="2.711" stroke-linejoin="round" d="M231.252 177.585h43.478v43.478h-43.478z"/><path opacity=".98" fill="#fff" stroke="#000" stroke-width="2.711" stroke-linejoin="round" d="M231.252 221.063h43.478v43.478h-43.478zM231.252 264.541h43.478v43.478h-43.478z"/><circle cx="117.515" cy="118.212" r="33.344" opacity=".98" fill="#fff" stroke="#000" stroke-width="2.667" stroke-linejoin="round"/></svg>
