<svg xmlns="http://www.w3.org/2000/svg" viewBox="0 0 348 348" fill="none"><defs><marker orient="auto" refY="0" refX="0" id="f" overflow="visible"><path d="M4 0l2-2-7 2 7 2-2-2z" fill-rule="evenodd" stroke="#000" stroke-width=".4pt"/></marker><marker orient="auto" refY="0" refX="0" id="d" overflow="visible"><path d="M4 0l2-2-7 2 7 2-2-2z" fill-rule="evenodd" stroke="#000" stroke-width=".4pt"/></marker><marker orient="auto" refY="0" refX="0" id="e" overflow="visible"><path d="M4 0l2-2-7 2 7 2-2-2z" fill-rule="evenodd" stroke="#000" stroke-width=".4pt"/></marker><marker orient="auto" refY="0" refX="0" id="c" overflow="visible"><path d="M4 0l2-2-7 2 7 2-2-2z" fill-rule="evenodd" stroke="#000" stroke-width=".4pt"/></marker><marker orient="auto" refY="0" refX="0" id="b" overflow="visible"><path d="M4 0l2-2-7 2 7 2-2-2z" fill-rule="evenodd" stroke="#000" stroke-width=".4pt"/></marker><marker orient="auto" refY="0" refX="0" id="a" overflow="visible"><path d="M5.23 2.42L-1.32.01 5.23-2.4a4.1 4.1 0 000 4.82z" fill-rule="evenodd" stroke-width=".38" stroke-linejoin="round" stroke="#000"/></marker></defs><path d="M5.08 5.78h336.91v337.67H5.08z" stroke-width="2" stroke="#000"/><path d="M282.73 40.55c0-8.37 6.97-15.16 15.56-15.16 4.13 0 8.09 1.6 11 4.44a14.97 14.97 0 014.56 10.72c0 8.38-6.96 15.17-15.56 15.17-8.59 0-15.56-6.8-15.56-15.17z" stroke-width="2" stroke="#000"/><ellipse cx="145.27" cy="64.22" rx="17.53" ry="16.91" fill="#000" fill-opacity=".34" stroke="#000" stroke-width="1.75"/><ellipse cx="173.18" cy="166" rx="52.28" ry="54.33" fill="#000" fill-opacity=".33" stroke="#000" stroke-width="3.4"/><ellipse cx="277.42" cy="199.88" rx="17.53" ry="16.91" fill="#000" fill-opacity=".34" stroke="#000" stroke-width="1.75"/><ellipse cx="203.14" cy="264.5" rx="17.53" ry="16.91" fill="#000" fill-opacity=".34" stroke="#000" stroke-width="1.75"/><ellipse cx="205.19" cy="64.02" rx="17.53" ry="16.91" fill="#000" fill-opacity=".34" stroke="#000" stroke-width="1.75"/><ellipse cx="277.42" cy="144.07" rx="17.53" ry="16.91" fill="#000" fill-opacity=".34" stroke="#000" stroke-width="1.75"/><ellipse cx="139.12" cy="264.91" rx="17.53" ry="16.91" fill="#000" fill-opacity=".34" stroke="#000" stroke-width="1.75"/><ellipse cx="69.76" cy="143.34" rx="17.53" ry="16.91" fill="#000" fill-opacity=".34" stroke="#000" stroke-width="1.75"/><ellipse cx="68.53" cy="199.47" rx="17.53" ry="16.91" stroke-width="1.75" stroke="#000" fill-opacity=".34" fill="#000"/><path d="M154.05 73.92h-2.75l-1.9-5.4h-8.38l-1.9 5.4h-2.62l7.05-19.39H147zm-5.44-7.62l-3.4-9.52-3.41 9.52z" aria-label="A" font-weight="400" font-size="26.67" font-family="sans-serif" letter-spacing="0" word-spacing="0" fill="#000"/><path d="M212.5 67.75q0 1.44-.55 2.55-.54 1.1-1.47 1.82-1.1.86-2.4 1.23-1.3.36-3.33.36h-6.87V54.33h5.74q2.12 0 3.18.15 1.05.16 2.02.65 1.06.56 1.55 1.45.48.87.48 2.1 0 1.37-.7 2.35-.7.96-1.88 1.55v.1q1.97.4 3.1 1.74 1.13 1.31 1.13 3.33zM208.16 59q0-.7-.23-1.18t-.75-.78q-.62-.35-1.49-.43-.87-.1-2.16-.1h-3.07v5.6h3.33q1.21 0 1.93-.11.71-.13 1.32-.52.62-.4.86-1 .26-.63.26-1.48zm1.66 8.84q0-1.17-.35-1.86-.35-.69-1.28-1.17-.62-.33-1.52-.42-.89-.1-2.16-.1h-4.05v7.21h3.4q1.7 0 2.78-.17 1.08-.18 1.77-.65.73-.5 1.07-1.16.34-.65.34-1.68z" aria-label="B" font-weight="400" font-size="26.67" font-family="sans-serif" letter-spacing="0" word-spacing="0" fill="#000"/><path d="M285.46 152.36q-.72.31-1.3.58-.58.28-1.52.58-.8.24-1.73.41-.92.18-2.04.18-2.11 0-3.84-.58-1.72-.6-3-1.86-1.25-1.24-1.95-3.14-.7-1.91-.7-4.44 0-2.4.67-4.28.68-1.89 1.95-3.2 1.24-1.26 2.99-1.92 1.75-.66 3.89-.66 1.56 0 3.11.37 1.57.38 3.47 1.33v3.06h-.2q-1.6-1.34-3.18-1.95-1.57-.61-3.37-.61-1.47 0-2.66.48-1.17.47-2.1 1.47-.9.98-1.4 2.47-.5 1.49-.5 3.44 0 2.04.55 3.52.56 1.47 1.44 2.4.9.95 2.12 1.42 1.22.46 2.58.46 1.86 0 3.49-.64 1.62-.64 3.04-1.91h.19z" aria-label="C" font-weight="400" font-size="26.67" font-family="sans-serif" letter-spacing="0" word-spacing="0" fill="#000"/><path d="M285.6 199.9q0 2.64-1.15 4.8-1.15 2.14-3.06 3.33-1.33.82-2.97 1.18-1.63.36-4.3.36h-4.9V190.2h4.85q2.84 0 4.5.42 1.68.4 2.84 1.12 1.98 1.23 3.09 3.29 1.1 2.06 1.1 4.88zm-2.69-.04q0-2.28-.8-3.84-.79-1.56-2.36-2.46-1.15-.65-2.44-.9-1.29-.26-3.09-.26h-2.42v14.96h2.42q1.87 0 3.25-.27 1.4-.28 2.55-1.02 1.45-.92 2.16-2.43.73-1.51.73-3.78z" aria-label="D" font-weight="400" font-size="26.67" font-family="sans-serif" letter-spacing="0" word-spacing="0" fill="#000"/><path d="M209.52 274.19h-12.77V254.8h12.77v2.3h-10.2v5.3h10.2v2.3h-10.2v7.2h10.2z" aria-label="E" font-weight="400" font-size="26.67" font-family="sans-serif" letter-spacing="0" word-spacing="0" fill="#000"/><path d="M145.31 257.5h-9.8v5.47h8.42v2.3h-8.43v9.33h-2.57V255.2h12.38z" aria-label="F" font-weight="400" font-size="26.67" font-family="sans-serif" letter-spacing="0" word-spacing="0" fill="#000"/><path d="M77.17 207.72q-1.58.73-3.47 1.27-1.88.54-3.64.54-2.26 0-4.15-.63-1.89-.62-3.22-1.87-1.34-1.26-2.07-3.15-.73-1.9-.73-4.44 0-4.65 2.71-7.33 2.72-2.7 7.46-2.7 1.66 0 3.38.4 1.73.4 3.72 1.35v3.06h-.23q-.4-.31-1.18-.82-.76-.51-1.5-.85-.9-.4-2.05-.66-1.13-.28-2.58-.28-3.26 0-5.16 2.1-1.89 2.08-1.89 5.65 0 3.76 1.98 5.86 1.98 2.08 5.4 2.08 1.25 0 2.48-.25 1.25-.24 2.2-.63v-4.76h-5.2v-2.26h7.74z" aria-label="G" font-weight="400" font-size="26.67" font-family="sans-serif" letter-spacing="0" word-spacing="0" fill="#000"/><path d="M77.18 153.04H74.6v-9.5h-9.67v9.5h-2.58v-19.39h2.58v7.6h9.67v-7.6h2.58z" aria-label="H" font-weight="400" font-size="26.67" font-family="sans-serif" letter-spacing="0" word-spacing="0" fill="#000"/><text style="line-height:1.25" x="163.71" y="175.67" transform="scale(1.00017 .99983)" font-weight="400" font-size="26.67" font-family="sans-serif" letter-spacing="0" word-spacing="0" fill="#000"><tspan x="163.71" y="175.67">3</tspan></text><path d="M262.23 132.96L151.84 79.61" stroke="#000" marker-start="url(#a)"/><path d="M84.54 133.78l120.24-54.17" stroke="#000" marker-start="url(#b)"/><path d="M277 182.2l-.4-21.74" stroke="#000" marker-start="url(#c)"/><path d="M139.94 247.05l118.6-48.02" stroke="#000" marker-start="url(#d)"/><path d="M274.13 217.5l-54.58 42.68" stroke="#000" marker-start="url(#e)"/><path d="M121.47 258.54L85.36 197.8" stroke="#000" marker-start="url(#f)"/></svg>