<svg xmlns="http://www.w3.org/2000/svg" viewBox="0 0 348 348" fill="none"><defs><marker orient="auto" refY="0" refX="0" id="f" overflow="visible"><path d="M4 0l2-2-7 2 7 2-2-2z" fill-rule="evenodd" stroke="#000" stroke-width=".4pt"/></marker><marker orient="auto" refY="0" refX="0" id="d" overflow="visible"><path d="M4 0l2-2-7 2 7 2-2-2z" fill-rule="evenodd" stroke="#000" stroke-width=".4pt"/></marker><marker orient="auto" refY="0" refX="0" id="e" overflow="visible"><path d="M4 0l2-2-7 2 7 2-2-2z" fill-rule="evenodd" stroke="#000" stroke-width=".4pt"/></marker><marker orient="auto" refY="0" refX="0" id="c" overflow="visible"><path d="M4 0l2-2-7 2 7 2-2-2z" fill-rule="evenodd" stroke="#000" stroke-width=".4pt"/></marker><marker orient="auto" refY="0" refX="0" id="b" overflow="visible"><path d="M4 0l2-2-7 2 7 2-2-2z" fill-rule="evenodd" stroke="#000" stroke-width=".4pt"/></marker><marker orient="auto" refY="0" refX="0" id="a" overflow="visible"><path d="M5.231 2.42L-1.324.01 5.23-2.401C4.184-.978 4.19.969 5.231 2.42z" fill-rule="evenodd" stroke-width=".375" stroke-linejoin="round" stroke="#000"/></marker></defs><path d="M5.079 5.776h336.913v337.67H5.08z" stroke-width="2" stroke="#000"/><path d="M282.734 40.554c0-8.376 6.966-15.165 15.56-15.165 4.126 0 8.084 1.597 11.001 4.441 2.918 2.844 4.558 6.702 4.558 10.724 0 8.376-6.966 15.165-15.56 15.165-8.593 0-15.559-6.79-15.559-15.165z" stroke-width="2" stroke="#000"/><ellipse cx="145.274" cy="64.224" rx="17.526" ry="16.911" fill="#000" fill-opacity=".341" stroke="#000" stroke-width="1.746"/><ellipse cx="173.179" cy="165.998" rx="52.277" ry="54.329" fill="#000" fill-opacity=".329" stroke="#000" stroke-width="3.402"/><ellipse cx="277.415" cy="199.882" rx="17.526" ry="16.911" fill="#000" fill-opacity=".34" stroke="#000" stroke-width="1.746"/><ellipse cx="203.137" cy="264.496" rx="17.526" ry="16.911" fill="#000" fill-opacity=".34" stroke="#000" stroke-width="1.746"/><ellipse cx="205.189" cy="64.019" rx="17.526" ry="16.911" fill="#000" fill-opacity=".34" stroke="#000" stroke-width="1.746"/><ellipse cx="277.415" cy="144.071" rx="17.526" ry="16.911" fill="#000" fill-opacity=".34" stroke="#000" stroke-width="1.746"/><ellipse cx="139.118" cy="264.906" rx="17.526" ry="16.911" fill="#000" fill-opacity=".34" stroke="#000" stroke-width="1.746"/><ellipse cx="69.764" cy="143.344" rx="17.526" ry="16.911" fill="#000" fill-opacity=".34" stroke="#000" stroke-width="1.746"/><ellipse cx="68.533" cy="199.471" rx="17.526" ry="16.911" fill="#000" fill-opacity=".34" stroke="#000" stroke-width="1.746"/><text style="line-height:1.25" x="135.813" y="72.728" transform="scale(1.00017 .99983)" font-weight="400" font-size="26.667" font-family="sans-serif" letter-spacing="0" word-spacing="0" fill="#000"><tspan x="135.813" y="72.728">A</tspan></text><text style="line-height:1.25" x="195.718" y="71.508" transform="scale(1.00017 .99983)" font-weight="400" font-size="26.667" font-family="sans-serif" letter-spacing="0" word-spacing="0" fill="#000"><tspan x="195.718" y="71.508">B</tspan></text><text style="line-height:1.25" x="267.112" y="152.354" transform="scale(1.00017 .99983)" font-weight="400" font-size="26.667" font-family="sans-serif" letter-spacing="0" word-spacing="0" fill="#000"><tspan x="267.112" y="152.354">C</tspan></text><text style="line-height:1.25" x="268.342" y="208.985" transform="scale(1.00017 .99983)" font-weight="400" font-size="26.667" font-family="sans-serif" letter-spacing="0" word-spacing="0" fill="#000"><tspan x="268.342" y="208.985">D</tspan></text><text style="line-height:1.25" x="194.487" y="273.798" transform="scale(1.00017 .99983)" font-weight="400" font-size="26.667" font-family="sans-serif" letter-spacing="0" word-spacing="0" fill="#000"><tspan x="194.487" y="273.798">E</tspan></text><text style="line-height:1.25" x="130.478" y="274.189" transform="scale(1.00017 .99983)" font-weight="400" font-size="26.667" font-family="sans-serif" letter-spacing="0" word-spacing="0" fill="#000"><tspan x="130.478" y="274.189">F</tspan></text><text style="line-height:1.25" x="57.854" y="208.509" transform="scale(1.00017 .99983)" font-weight="400" font-size="26.667" font-family="sans-serif" letter-spacing="0" word-spacing="0" fill="#000"><tspan x="57.854" y="208.509">G</tspan></text><text style="line-height:1.25" x="60.316" y="154.327" transform="scale(1.00017 .99983)" font-weight="400" font-size="26.667" font-family="sans-serif" letter-spacing="0" word-spacing="0" fill="#000"><tspan x="60.316" y="154.327">H</tspan></text><text style="line-height:1.25" x="163.714" y="175.672" transform="scale(1.00017 .99983)" font-weight="400" font-size="26.667" font-family="sans-serif" letter-spacing="0" word-spacing="0" fill="#000"><tspan x="163.714" y="175.672">3</tspan></text><path d="M262.231 132.962L151.84 79.613" stroke="#000" marker-start="url(#a)"/><path d="M84.538 133.783l120.24-54.17" stroke="#000" marker-start="url(#b)"/><path d="M277.005 182.208l-.41-21.75" stroke="#000" marker-start="url(#c)"/><path d="M139.939 247.047l118.599-48.014" stroke="#000" marker-start="url(#d)"/><path d="M274.132 217.5l-54.58 42.68" stroke="#000" marker-start="url(#e)"/><path d="M121.472 258.538l-36.113-60.736" stroke="#000" marker-start="url(#f)"/></svg>