<svg viewBox="0 0 348 348" fill="none" xmlns="http://www.w3.org/2000/svg"><path d="M5 5.8h337v337.6H5z" stroke-width="2" stroke="#000"/><path d="M282.7 40.6c0-8.4 7-15.2 15.6-15.2 4.1 0 8 1.6 11 4.4a15 15 0 0 1 4.6 10.8c0 8.3-7 15.1-15.6 15.1s-15.6-6.8-15.6-15.1z" stroke-width="2" stroke="#000"/><path d="M83.8 228.2h47.6v47.6H83.8Zm0-67.8h47.6v47.5H83.8Zm0-67.9h47.6v47.6H83.8Zm127.1 135.7h47.5v47.6H211Zm0-67.8h47.5v47.5H211Zm0-67.9h47.5v47.6H211Z" stroke="#000" stroke-width="2.45"/><path d="M172.1 119.1h-6.7v11.5h-3.7v-28.4h9.4q4.8 0 7.4 2.2 2.6 2.1 2.6 6.3 0 2.7-1.5 4.7-1.4 2-4 2.9l6.7 12v.3h-4zm-6.7-3h5.8q2.8 0 4.4-1.5 1.7-1.5 1.7-3.9 0-2.6-1.6-4t-4.5-1.4h-5.8z" aria-label="R" fill="#000"/><path d="M182.1 190.1q-.5 4.5-3.3 7-2.8 2.4-7.5 2.4-5 0-8-3.6-3.1-3.6-3.1-9.6v-2.8q0-4 1.4-7t4-4.6q2.6-1.6 6-1.6 4.6 0 7.3 2.6 2.7 2.5 3.2 7h-3.8q-.5-3.4-2.1-5-1.6-1.5-4.6-1.5-3.5 0-5.6 2.7-2 2.6-2 7.5v2.8q0 4.6 1.9 7.3 2 2.8 5.4 2.8 3.1 0 4.8-1.4 1.7-1.5 2.2-5z" aria-label="C" fill="#000"/><path d="M162.3 266.3v-28.4h8q3.7 0 6.6 1.6 2.9 1.6 4.4 4.7 1.6 3 1.6 7v1.7q0 4-1.6 7.1-1.5 3-4.4 4.6-2.9 1.7-6.7 1.7zm3.8-25.3v22.2h3.9q4.3 0 6.7-2.7 2.5-2.7 2.5-7.6v-1.7q0-4.8-2.3-7.5t-6.5-2.7z" aria-label="D" fill="#000"/><path d="M126.2 184.4a18.8 18.8 0 0 1-18.8 18.8 18.8 18.8 0 0 1-18.8-18.8 18.8 18.8 0 0 1 18.8-18.8 18.8 18.8 0 0 1 18.8 18.8z" fill="#646464" stroke="#646464" stroke-width="2.41"/><path d="m107.7 169.3 8.2 8.2v4l-6.7-6.7v23.4h-2.9v-23.4l-6.7 6.8v-4.1z" aria-label="🡑" fill="#fff"/><path d="M253.6 184.7a18.8 18.8 0 0 1-18.8 18.8 18.8 18.8 0 0 1-18.8-18.8 18.8 18.8 0 0 1 18.8-18.8 18.8 18.8 0 0 1 18.8 18.8Z" fill="#646464" stroke="#646464" stroke-width="2.41"/><path d="m235.1 169.5 8.2 8.2v4.1l-6.7-6.7v23.4h-3V175l-6.6 6.7v-4z" aria-label="🡑" fill="#fff"/><path d="M253.4 116.2a18.8 18.8 0 0 1-18.8 18.8 18.8 18.8 0 0 1-18.8-18.8 18.8 18.8 0 0 1 18.8-18.8 18.8 18.8 0 0 1 18.8 18.8Z" fill="#646464" stroke="#646464" stroke-width="2.41"/><path d="m235 101 8 8.3v4l-6.6-6.7V130h-3v-23.4l-6.7 6.7v-4z" aria-label="🡑" fill="#fff"/><path d="M126.4 116.6a18.8 18.8 0 0 1-18.8 18.7 18.8 18.8 0 0 1-18.8-18.7 18.8 18.8 0 0 1 18.8-18.8 18.8 18.8 0 0 1 18.8 18.8Z" fill="#646464" stroke="#646464" stroke-width="2.41"/><path d="m108 101.4 8.1 8.2v4l-6.7-6.7v23.4h-2.9v-23.4l-6.7 6.8v-4.1z" aria-label="🡑" fill="#fff"/><path d="m124.53 118.42-3.84 6.02-2.54.59 3.27-4.97-14.32 3.31-.43-1.85 14.32-3.3-5.13-3.13 2.53-.59z" aria-label="🡑" font-size="25.12" fill="#fff"/><path d="m86.22 271.35 11.03-19.11 10.93-19.11 11.1 19.13 10.98 19.01-21.91-.01z" fill="#323232"/><path fill="#fff" d="m109.9 242-.5 18.4h-2.9l-.4-18.3Zm-.2 25.3h-3.5v-3.6h3.5z" aria-label="!"/></svg>