<svg xmlns="http://www.w3.org/2000/svg" xmlns:xlink="http://www.w3.org/1999/xlink" fill="none" stroke="#000" stroke-width="2" viewBox="0 0 347 347"><defs><linearGradient id="a"><stop offset="0" stop-color="#0067ff"/><stop offset="1" stop-color="#02a1af"/></linearGradient><linearGradient xlink:href="#a" id="b" x1="250" x2="50" y1="250" y2="50" gradientUnits="userSpaceOnUse"/></defs><path d="M5 5h337v337H5z"/><circle cx="298" cy="40" r="16"/><path fill="#000" stroke-linecap="round" d="M20 280h300v45.06H20z"/><path fill="url(#b)" stroke-linecap="round" stroke-width="1.88" d="M20 20h230v230H20z" style="mix-blend-mode:normal" transform="matrix(1.06 0 0 1.06 -1.18 -1.18)"/><path fill="#fffffe" fill-rule="evenodd" stroke="none" d="M53.53 119.7v8.83h8.82v35.3h8.83v-35.3H80v-8.82ZM80 137.35v26.47h8.82v-17.64h8.83v-8.83Zm26.47 8.83v17.64h8.82v-17.64Zm0-17.65v8.82h8.82v-8.82Zm17.65 8.82v26.47h17.64V155h-8.82v-8.82h8.82v-8.83Zm26.47 0v26.47h26.47v-26.47H159.4v8.83h8.83V155h-8.83v-17.65Zm35.29 0v26.47h8.83v-17.64h8.82v17.64h8.82v-26.47Zm35.3 17.65v8.82H230V155Z"/><path fill="#fff" stroke="none" stroke-width="4.43" d="M128.41 302.52c-1.37 0-1.3 2.33 0 2.33h.82v1c0 1.52-.49 2.24-1.5 2.24-1.02 0-1.5-.72-1.5-2.24v-6.64c0-1.08.2-1.64.53-1.92.26-.25.65-.3.98-.3.32 0 .7.05.98.3.28.26.51.82.51 1.92v.32c0 .47.37.84.84.84h.68c.44 0 .81-.37.81-.84v-.32c0-2.96-1.26-4.53-3.82-4.53-2.57 0-3.85 1.57-3.85 4.53v6.64c0 2.94 1.28 4.55 3.85 4.55 2.56 0 3.82-1.59 3.82-4.55v-2.5a.83.83 0 0 0-.81-.83zm5.67-7.84a.84.84 0 0 0-.84.84v14.04c0 .47.37.84.84.84h5.04c.46 0 .84-.37.84-.84v-.63a.84.84 0 0 0-.84-.84h-3.57v-4.4h2.94c.46 0 .84-.38.84-.85v-.63a.84.84 0 0 0-.84-.83h-2.94v-4.39h3.57c.46 0 .84-.37.84-.84v-.63a.84.84 0 0 0-.84-.84zm14.29 15.72c.47 0 .84-.37.84-.84v-14.04a.84.84 0 0 0-.84-.84h-.65a.84.84 0 0 0-.84.84v7.7l-3.24-8.02a.94.94 0 0 0-.77-.52h-.56a.85.85 0 0 0-.84.84v14.04c0 .47.4.84.84.84h.68c.44 0 .84-.37.84-.84v-7.7l3.24 8.03c.1.25.49.5.77.5zm3.5-15.72a.84.84 0 0 0-.84.84v14.04c0 .47.37.84.84.84h5.04c.46 0 .84-.37.84-.84v-.63a.84.84 0 0 0-.84-.84h-3.57v-4.4h2.94c.46 0 .84-.38.84-.85v-.63a.84.84 0 0 0-.84-.83h-2.94v-4.39h3.57c.46 0 .84-.37.84-.84v-.63a.84.84 0 0 0-.84-.84zm14.93 10.96c0-1.21-.33-2.17-1-2.89l.18-.19c.72-.72.98-1.88.98-3.33 0-3.12-1-4.57-3.87-4.57h-2.94a.84.84 0 0 0-.84.84v14.04c0 .46.37.84.84.84h.65c.44 0 .82-.38.82-.84v-5.72h1.05c1.14 0 1.8.66 1.8 1.82v3.9c0 .46.37.84.83.84h.65c.47 0 .84-.38.84-.84zm-5.18-8.65h1.47c1.2 0 1.56.65 1.56 2.24 0 1.59-.68 2.24-1.98 2.24h-1.05zM174 309.75c.1.35.47.65.81.65h.68c.56 0 .93-.5.82-1.03l-3.22-14.03c-.07-.35-.47-.66-.82-.66h-.51c-.35 0-.72.3-.82.66l-2.12 9.11-1.12 4.95a.8.8 0 0 0 .82 1h.68a.9.9 0 0 0 .81-.65l.82-3.64h2.38zm-1.98-9.68c.44 1.98.4 2.61.65 3.73h-1.3zm3.54-3.92c0 .47.37.84.84.84h1.89v12.55c0 .46.37.84.84.84h.63c.46 0 .84-.38.84-.84v-12.55h1.9c.48 0 .85-.37.85-.84v-.65a.84.84 0 0 0-.84-.84h-6.11a.84.84 0 0 0-.84.84zm11.68-.63c0-.46-.4-.84-.84-.84h-.65a.84.84 0 0 0-.84.84v14.04c0 .47.37.84.84.84h.65c.45 0 .84-.37.84-.84zm8.46 14.88c.47 0 .85-.37.85-.84v-14.04a.84.84 0 0 0-.84-.84h-.66a.84.84 0 0 0-.84.84v7.7l-3.24-8.02c-.09-.26-.46-.52-.77-.52h-.56a.85.85 0 0 0-.83.84v14.04c0 .47.4.84.83.84h.68c.44 0 .84-.37.84-.84v-7.7l3.24 8.03c.1.25.5.5.77.5zm7.21-7.88c-1.37 0-1.3 2.33 0 2.33h.82v1c0 1.52-.5 2.24-1.5 2.24-1.02 0-1.51-.72-1.51-2.24v-6.64c0-1.08.21-1.64.54-1.92.25-.25.65-.3.98-.3.32 0 .7.05.97.3.28.26.52.82.52 1.92v.32c0 .47.37.84.84.84h.67c.45 0 .82-.37.82-.84v-.32c0-2.96-1.26-4.53-3.82-4.53-2.57 0-3.85 1.57-3.85 4.53v6.64c0 2.94 1.28 4.55 3.85 4.55 2.56 0 3.82-1.59 3.82-4.55v-2.5a.83.83 0 0 0-.82-.83zm7.09 6.15c0-.46-.4-.84-.84-.84h-.68a.85.85 0 0 0-.84.84v.89c0 .47.4.84.84.84h.68c.44 0 .84-.37.84-.84zm3.05 0c0-.46-.4-.84-.83-.84h-.68a.85.85 0 0 0-.84.84v.89c0 .47.4.84.84.84h.68c.44 0 .83-.37.83-.84zm3.05 0a.85.85 0 0 0-.83-.84h-.68a.85.85 0 0 0-.84.84v.89c0 .47.4.84.84.84h.68c.44 0 .84-.37.84-.84z" aria-label="Generating..."/><path fill="#c1eee8" fill-rule="evenodd" stroke-linecap="round" stroke-width="1.31" d="M282.22 187.07h39.4v39.4h-39.4zm0-6.57h39.4l-19.7-19.7zm0 52.53h39.4l-19.7 19.7z"/><path fill="#000" fill-rule="evenodd" stroke="none" d="M274.83 110h13.54v30.95h-13.54zm20.31 0h13.54v30.95h-13.54zm20.32 0H329v30.95h-13.54z"/></svg>