<svg width="339" height="339.7" viewBox="0 0 89.69 89.88" xmlns="http://www.w3.org/2000/svg"><g fill="none"><path stroke="#000" stroke-width=".52916" d="M.26.26h89.17v89.35H.26zm73.48 9.21a4.08 4.08 0 0 1 4.13-4.02c1.08 0 2.11.42 2.9 1.16a3.97 3.97 0 0 1 1.2 2.86c0 2.2-1.85 4-4.1 4a4.07 4.07 0 0 1-4.13-4z"/><path d="m8.16 32.96 56.3-.03v6.81l-56.22.02v6.9l56.23-.03v7.1l-56.25.03v6.89l56.22-.02v7.08l-56.18.03v7.12l56.18-.02m-7.1-48.63.02 55.84h-6.8l-.04-55.76h-6.89l.03 55.66h-7.1l-.03-55.68h-6.89l.03 55.65h-7.09l-.03-55.6h-7.12l.03 55.6m-7.24-.13V26.27l56.25-.02v55.88z" stroke="#000" stroke-width=".47"/></g></svg>