<svg xmlns="http://www.w3.org/2000/svg" viewBox="0 0 348 348" fill="none" version="1.1" id="svg849"><style id="style835"/><path d="M5.079 5.776h336.913v337.67H5.08z" stroke-width="2" stroke="#000" id="path845"/><path d="M282.734 40.554c0-8.376 6.966-15.165 15.56-15.165 4.126 0 8.084 1.597 11.001 4.441 2.918 2.844 4.558 6.702 4.558 10.724 0 8.376-6.966 15.165-15.56 15.165-8.593 0-15.559-6.79-15.559-15.165z" stroke-width="2" stroke="#000" id="path847"/><path id="path840" d="M174.045 21.309a105.351 105.351 0 00-94.85 59.5 105.351 105.351 0 00-59.502 94.851 105.351 105.351 0 0059.502 94.85 105.351 105.351 0 0094.85 59.5 105.351 105.351 0 0094.85-59.5 105.351 105.351 0 0059.501-94.85 105.351 105.351 0 00-59.501-94.851 105.351 105.351 0 00-94.85-59.5z" fill="none" stroke="#000" stroke-width="5.669" stroke-miterlimit="4" stroke-dasharray="none"/><path d="M171.121 200.836c-4.656-.248-8.698-1.077-13.348-2.737-4.384-1.564-4.348-1.541-5.08-3.301-1.703-4.09-2.812-7.958-3.432-11.97-.512-3.31-.613-8.985-.221-12.341.572-4.897 2.01-10.353 3.688-13.983l.714-1.545 1.625-.68c6.46-2.7 11.939-3.798 18.94-3.797 6.275.001 11.581.929 16.843 2.944 4.078 1.562 3.755 1.317 4.668 3.532 2.46 5.97 3.5 10.838 3.683 17.234.125 4.415-.101 7.282-.882 11.167-.58 2.877-1.969 7.264-3.026 9.552l-.715 1.547-2.749 1.087c-6.478 2.56-13.493 3.675-20.708 3.29z" id="path858" fill="none" stroke="#000" stroke-width="3.78" stroke-miterlimit="4" stroke-dasharray="none"/><path d="M171.121 91.855c-4.656-.248-8.698-1.077-13.348-2.737-4.384-1.564-4.348-1.541-5.08-3.301-1.703-4.09-2.812-7.958-3.432-11.97-.512-3.31-.613-8.985-.221-12.341.572-4.897 2.01-10.353 3.688-13.983l.714-1.545 1.625-.68c6.46-2.7 11.939-3.798 18.94-3.797 6.275.001 11.581.929 16.843 2.944 4.078 1.562 3.755 1.317 4.668 3.532 2.46 5.97 3.5 10.838 3.683 17.234.125 4.415-.101 7.282-.882 11.167-.58 2.877-1.969 7.264-3.026 9.552l-.715 1.547-2.749 1.087c-6.478 2.56-13.493 3.675-20.708 3.29z" id="path865" fill="none" stroke="#000" stroke-width="3.78" stroke-miterlimit="4" stroke-dasharray="none"/><path d="M171.121 309.817c-4.656-.248-8.698-1.077-13.348-2.737-4.384-1.564-4.348-1.541-5.08-3.301-1.703-4.09-2.812-7.958-3.432-11.97-.512-3.31-.613-8.984-.221-12.341.572-4.897 2.01-10.353 3.688-13.983l.714-1.545 1.625-.68c6.46-2.7 11.939-3.798 18.94-3.797 6.275.001 11.581.929 16.843 2.944 4.078 1.562 3.755 1.317 4.668 3.532 2.46 5.97 3.5 10.838 3.683 17.234.125 4.415-.101 7.282-.882 11.167-.58 2.877-1.969 7.264-3.026 9.552l-.715 1.547-2.749 1.087c-6.478 2.56-13.493 3.675-20.708 3.29z" id="path867" fill="none" stroke="#000" stroke-width="3.78" stroke-miterlimit="4" stroke-dasharray="none"/><path d="M257.86 172.797c.249-4.655 1.077-8.697 2.737-13.348 1.565-4.383 1.542-4.348 3.302-5.08 4.09-1.703 7.958-2.812 11.97-3.432 3.309-.511 8.984-.613 12.341-.22 4.897.571 10.353 2.01 13.983 3.687l1.545.714.68 1.625c2.7 6.46 3.798 11.939 3.796 18.94 0 6.276-.928 11.582-2.943 16.843-1.562 4.079-1.318 3.755-3.533 4.668-5.97 2.46-10.838 3.501-17.233 3.683-4.415.126-7.282-.1-11.167-.882-2.877-.579-7.264-1.968-9.552-3.025l-1.548-.715-1.086-2.75c-2.56-6.478-3.675-13.493-3.291-20.708z" id="path873" fill="none" stroke="#000" stroke-width="3.78" stroke-miterlimit="4" stroke-dasharray="none"/><path d="M39.899 172.797c.248-4.655 1.076-8.697 2.736-13.348 1.565-4.383 1.542-4.348 3.302-5.08 4.09-1.703 7.958-2.812 11.97-3.432 3.309-.511 8.984-.613 12.341-.22 4.897.571 10.353 2.01 13.983 3.687l1.545.714.68 1.625c2.7 6.46 3.798 11.939 3.796 18.94 0 6.276-.928 11.582-2.943 16.843-1.562 4.079-1.318 3.755-3.533 4.668-5.97 2.46-10.838 3.501-17.233 3.683-4.415.126-7.282-.1-11.167-.882-2.877-.579-7.264-1.968-9.552-3.025l-1.548-.715-1.086-2.75c-2.56-6.478-3.675-13.493-3.291-20.708z" id="path875" fill="none" stroke="#000" stroke-width="3.78" stroke-miterlimit="4" stroke-dasharray="none"/><path d="M94.39 118.307c.247-4.656 1.076-8.698 2.736-13.348 1.565-4.384 1.542-4.348 3.302-5.08 4.09-1.703 7.957-2.812 11.97-3.432 3.308-.512 8.984-.613 12.34-.221 4.897.572 10.353 2.01 13.983 3.688l1.546.714.679 1.625c2.7 6.46 3.798 11.939 3.797 18.94 0 6.275-.929 11.581-2.944 16.842-1.562 4.08-1.317 3.756-3.532 4.669-5.97 2.46-10.838 3.5-17.234 3.683-4.415.125-7.282-.101-11.166-.883-2.878-.578-7.265-1.968-9.553-3.025l-1.547-.715-1.087-2.749c-2.56-6.478-3.675-13.493-3.29-20.708z" id="path891" fill="none" stroke="#000" stroke-width="3.78" stroke-miterlimit="4" stroke-dasharray="none"/><path d="M203.37 118.307c.248-4.656 1.077-8.698 2.737-13.348 1.565-4.384 1.542-4.348 3.302-5.08 4.09-1.703 7.957-2.812 11.97-3.432 3.308-.512 8.984-.613 12.34-.221 4.897.572 10.354 2.01 13.983 3.688l1.546.714.679 1.625c2.7 6.46 3.798 11.939 3.797 18.94 0 6.275-.929 11.581-2.944 16.842-1.562 4.08-1.317 3.756-3.532 4.669-5.97 2.46-10.838 3.5-17.234 3.683-4.415.125-7.282-.101-11.166-.883-2.878-.578-7.265-1.968-9.553-3.025l-1.547-.715-1.087-2.749c-2.56-6.478-3.675-13.493-3.29-20.708z" id="path893" fill="none" stroke="#000" stroke-width="3.78" stroke-miterlimit="4" stroke-dasharray="none"/><path d="M94.39 227.288c.247-4.656 1.076-8.698 2.736-13.348 1.565-4.384 1.542-4.348 3.302-5.08 4.09-1.703 7.957-2.812 11.97-3.432 3.308-.512 8.984-.613 12.34-.221 4.897.572 10.353 2.01 13.983 3.688l1.546.714.679 1.625c2.7 6.46 3.798 11.939 3.797 18.94 0 6.275-.929 11.581-2.944 16.842-1.562 4.08-1.317 3.756-3.532 4.669-5.97 2.46-10.838 3.5-17.234 3.683-4.415.125-7.282-.101-11.166-.883-2.878-.578-7.265-1.968-9.553-3.025l-1.547-.715-1.087-2.749c-2.56-6.478-3.675-13.493-3.29-20.708z" id="path895" fill="none" stroke="#000" stroke-width="3.78" stroke-miterlimit="4" stroke-dasharray="none"/><path d="M203.37 227.288c.248-4.656 1.077-8.698 2.737-13.348 1.565-4.384 1.542-4.348 3.302-5.08 4.09-1.703 7.957-2.812 11.97-3.432 3.308-.512 8.984-.613 12.34-.221 4.897.572 10.354 2.01 13.983 3.688l1.546.714.679 1.625c2.7 6.46 3.798 11.939 3.797 18.94 0 6.275-.929 11.581-2.944 16.842-1.562 4.08-1.317 3.756-3.532 4.669-5.97 2.46-10.838 3.5-17.234 3.683-4.415.125-7.282-.101-11.166-.883-2.878-.578-7.265-1.968-9.553-3.025l-1.547-.715-1.087-2.749c-2.56-6.478-3.675-13.493-3.29-20.708z" id="path897" fill="none" stroke="#000" stroke-width="3.78" stroke-miterlimit="4" stroke-dasharray="none"/><g aria-label="1" id="text901" style="line-height:1.25;-inkscape-font-specification:'Lucida Console'" font-size="40" font-family="Lucida Console"><path d="M174.79 72.989v-2.89h7.714V47.617l-7.715 1.738v-2.383l11.563-3.613v26.738h7.715v2.89z" id="path909"/></g><g aria-label="1" id="text857" style="line-height:1.25;-inkscape-font-specification:'Arial Rounded MT Bold, '" font-style="normal" font-variant="normal" font-weight="400" font-stretch="normal" font-size="40" font-family="Arial Rounded MT Bold" fill="#000"><path d="M170.296 75.789l3.554-17.774q-5.722 3.809-7.44 3.809-.821 0-1.329-.645-.488-.664-.313-1.523.196-.996.899-1.465.723-.469 2.46-1.211 2.579-1.113 4.24-2.344 1.679-1.23 3.066-2.754 1.406-1.523 1.796-1.875.41-.351 1.329-.351 1.035 0 1.503.8.47.801.176 2.208l-4.472 22.363q-.782 3.926-3.457 3.926-1.192 0-1.758-.801-.567-.8-.254-2.363z" id="path912" font-style="italic"/></g><g aria-label="2" id="text861" style="line-height:1.25;-inkscape-font-specification:'Arial Rounded MT Bold, '" font-style="normal" font-variant="normal" font-weight="400" font-stretch="normal" font-size="40" font-family="Arial Rounded MT Bold" fill="#000"><path d="M114.323 127.855h10.195q1.524 0 2.188.625.684.625.469 1.7-.176.956-.957 1.62-.762.664-2.051.664h-14.375q-1.465 0-2.129-.8-.645-.82-.43-1.914.137-.704.899-1.856.761-1.172 1.523-1.836 3.125-2.695 5.606-4.61 2.48-1.933 3.496-2.538 1.816-1.133 3.105-2.266 1.309-1.152 2.09-2.344.8-1.21 1.035-2.363.254-1.25-.156-2.226-.39-.997-1.309-1.543-.918-.547-2.129-.547-2.558 0-4.472 2.246-.254.293-.977 1.601-.703 1.309-1.426 2.012-.722.703-1.835.703-.977 0-1.504-.644-.508-.645-.274-1.758.274-1.348 1.172-2.813.898-1.465 2.324-2.656 1.446-1.191 3.438-1.914 1.992-.742 4.472-.742 2.989 0 4.903.937 1.25.625 2.07 1.72.82 1.093 1.094 2.538.293 1.426-.02 2.969-.468 2.422-2.07 4.414-1.602 1.973-3.086 3.105-1.465 1.114-4.883 3.516t-4.785 3.73q-.566.528-1.21 1.27z" id="path915" font-style="italic"/></g><g aria-label="3" id="text865" style="line-height:1.25;-inkscape-font-specification:'Arial Rounded MT Bold, '" font-style="normal" font-variant="normal" font-weight="400" font-stretch="normal" font-size="40" font-family="Arial Rounded MT Bold" fill="#000"><path d="M228.494 115.18q1.797 0 3.3-1.055 1.524-1.055 1.915-3.028.293-1.504-.528-2.578-.82-1.094-2.578-1.094-1.191 0-2.03.332-.821.332-1.388.88-.566.546-1.132 1.406-.567.859-1.055 1.62-.274.41-.84.645-.547.235-1.21.235-.782 0-1.31-.625-.527-.645-.312-1.7.195-1.015 1.035-2.129.84-1.132 2.227-2.148 1.386-1.016 3.261-1.621 1.895-.625 4.063-.625 1.894 0 3.34.527 1.465.508 2.422 1.485.957.976 1.289 2.265.332 1.29.02 2.774-.391 1.953-1.524 3.359-1.114 1.387-2.969 2.715 1.367.82 2.188 1.875.84 1.055 1.113 2.344.273 1.27-.02 2.754-.351 1.777-1.406 3.437-1.035 1.66-2.695 2.969-1.64 1.289-3.692 2.031-2.05.723-4.355.723-2.344 0-4.043-.84-1.68-.84-2.637-2.09-.937-1.27-1.289-2.617-.332-1.348-.156-2.227.215-1.133 1.074-1.816.879-.703 1.973-.703.547 0 .996.332.449.312.508.761.468 2.715 1.367 4.043.898 1.309 3.008 1.309 1.21 0 2.46-.586 1.25-.605 2.208-1.777.976-1.172 1.27-2.715.468-2.285-.528-3.574-.996-1.309-3.223-1.309-.39 0-1.23.078-.82.078-1.055.078-1.074 0-1.563-.527-.468-.547-.273-1.504.176-.937.996-1.504.82-.586 2.207-.586z" id="path918" font-style="italic"/></g><g aria-label="4" id="text869" style="line-height:1.25;-inkscape-font-specification:'Arial Rounded MT Bold, '" font-style="normal" font-variant="normal" font-weight="400" font-stretch="normal" font-size="40" font-family="Arial Rounded MT Bold" fill="#000"><path d="M64.972 183.984l.742-3.633h-9.805q-1.855 0-2.617-.84t-.469-2.285q.059-.371.274-.742.214-.39.566-.8.371-.43.742-.821.371-.39.918-.957l13.106-13.848q1.289-1.367 2.07-1.972.781-.625 1.7-.625 2.968 0 2.284 3.398l-3.027 15.117h.84q1.504 0 2.324.41.84.41.566 1.797-.234 1.133-1.074 1.66-.84.508-2.324.508h-1.191l-.743 3.633q-.293 1.504-1.113 2.246-.8.723-1.914.723-1.094 0-1.621-.742-.527-.762-.234-2.227zm-6.797-8.008h8.398l2.285-11.348z" id="path921" font-style="italic"/></g><g aria-label="5" id="text873" style="line-height:1.25;-inkscape-font-specification:'Arial Rounded MT Bold, '" font-style="normal" font-variant="normal" font-weight="400" font-stretch="normal" font-size="40" font-family="Arial Rounded MT Bold" fill="#000"><path d="M182.36 162.656h-9.277l-2.382 6.328q3.066-1.484 5.41-1.484 1.875 0 3.36.703 1.503.703 2.48 1.953.976 1.23 1.347 2.93.371 1.699-.02 3.652-.566 2.832-2.304 5.156t-4.414 3.692q-2.656 1.367-5.781 1.367-3.496 0-5.43-1.29-1.914-1.288-2.48-2.949-.567-1.68-.332-2.93.156-.761.918-1.445.78-.683 1.738-.683 1.64 0 2.07 1.894.43 1.739 1.563 2.715 1.132.957 2.773.957 1.504 0 2.793-.781 1.29-.781 2.168-2.148.898-1.368 1.25-3.106.371-1.875-.039-3.203-.39-1.328-1.367-1.973-.977-.664-2.344-.664-1.68 0-2.5.41-.8.41-2.363 1.446-1.563 1.015-2.442 1.015-.957 0-1.562-.683-.586-.703-.41-1.582.02-.098.468-1.328l3.516-9.356q.606-1.68 1.504-2.441.898-.762 2.578-.762h10.313q3.046 0 2.578 2.324-.196 1.016-1.075 1.64-.859.626-2.304.626z" id="path924" font-style="italic"/></g><g aria-label="6" id="text877" style="line-height:1.25;-inkscape-font-specification:'Arial Rounded MT Bold, '" font-style="normal" font-variant="normal" font-weight="400" font-stretch="normal" font-size="40" font-family="Arial Rounded MT Bold" fill="#000"><path d="M279.231 170.976q1.64-1.582 3.34-2.344 1.719-.761 3.652-.761 1.856 0 3.282.703 1.445.683 2.363 1.972.937 1.27 1.23 3.008.293 1.739-.078 3.633-.547 2.754-2.265 5-1.7 2.246-4.22 3.516-2.5 1.25-5.35 1.25-3.282 0-5.352-1.602-2.051-1.601-2.696-4.726-.625-3.145.274-7.676.742-3.692 2.09-6.602 1.347-2.91 3.144-4.824 1.817-1.914 4.043-2.89 2.227-.977 4.824-.977 2.5 0 4.2.976 1.718.977 2.382 2.422.684 1.446.43 2.774-.156.8-.898 1.465-.742.644-1.68.644-.82 0-1.426-.508-.586-.527-.742-1.445-.215-1.172-1.055-1.875-.82-.723-2.109-.723-1.035 0-2.187.606-1.133.586-2.051 1.601-1.836 2.07-3.145 7.383zm2.832 12.129q1.973 0 3.574-1.602 1.622-1.62 2.149-4.238.351-1.777 0-3.047-.332-1.289-1.27-1.953-.918-.683-2.187-.683-1.211 0-2.442.644-1.23.645-2.148 1.875-.918 1.211-1.25 2.852-.527 2.636.488 4.394 1.016 1.758 3.086 1.758z" id="path927" font-style="italic"/></g><g aria-label="7" id="text881" style="line-height:1.25;-inkscape-font-specification:'Arial Rounded MT Bold, '" font-style="normal" font-variant="normal" font-weight="400" font-stretch="normal" font-size="40" font-family="Arial Rounded MT Bold" fill="#000"><path d="M114.374 213.005h13.008q1.875 0 2.597.586.723.586.47 1.934-.177.82-1.427 2.167-1.25 1.348-2.851 2.989-1.582 1.62-3.399 4.043-1.816 2.422-3.632 5.918-.782 1.543-1.192 2.558-.39 1.016-.957 2.637-.547 1.621-.898 2.48-.801 1.993-1.72 2.774-.898.762-2.148.762-1.19 0-1.757-.82-.547-.84-.215-2.462.234-1.25 1.191-3.398.957-2.148 2.754-5.137 1.797-3.008 4.2-6.152 2.421-3.164 5.507-6.29h-10.449q-1.64 0-2.324-.585-.684-.606-.43-1.875.254-1.348 1.191-1.738.938-.391 2.48-.391z" id="path930" font-style="italic"/></g><g aria-label="8" id="text885" style="line-height:1.25;-inkscape-font-specification:'Arial Rounded MT Bold, '" font-style="normal" font-variant="normal" font-weight="400" font-stretch="normal" font-size="40" font-family="Arial Rounded MT Bold" fill="#000"><path d="M220.633 219.597q.39-1.953 1.796-3.671 1.407-1.739 3.672-2.774 2.266-1.035 5.02-1.035 2.324 0 3.965.605 1.64.606 2.597 1.68.957 1.055 1.25 2.402.313 1.329 0 2.833-.37 1.914-1.66 3.417-1.289 1.504-3.437 2.461 1.543.645 2.422 1.7.878 1.035 1.152 2.422.293 1.367-.04 3.046-.487 2.461-2.089 4.473-1.582 1.992-4.121 3.125-2.54 1.133-5.664 1.133-3.242 0-5.313-1.133-2.07-1.133-2.851-3.105-.782-1.993-.293-4.454 1.054-5.253 6.406-7.207-3.633-1.875-2.812-5.918zm11.406 12.93q.312-1.523-.098-2.656-.39-1.133-1.406-1.738-.996-.606-2.402-.606-1.993 0-3.614 1.328-1.62 1.328-2.09 3.711-.312 1.524.098 2.696.41 1.152 1.367 1.796.977.625 2.324.625 1.368 0 2.579-.644 1.23-.645 2.09-1.817.859-1.171 1.152-2.695zm-1.543-16.68q-1.836 0-3.184 1.153-1.347 1.133-1.719 2.93-.332 1.66.606 2.773.937 1.094 2.754 1.094.918 0 1.719-.293.82-.293 1.445-.801.644-.527 1.074-1.23.45-.723.625-1.583.235-1.152-.117-2.07-.332-.918-1.172-1.445-.82-.528-2.031-.528z" id="path933" font-style="italic"/></g><g aria-label="9" id="text889" style="line-height:1.25;-inkscape-font-specification:'Arial Rounded MT Bold, '" font-style="normal" font-variant="normal" font-weight="400" font-stretch="normal" font-size="40" font-family="Arial Rounded MT Bold" fill="#000"><path d="M178.527 281.632q-1.582 1.524-3.34 2.305-1.738.762-3.672.762-1.836 0-3.28-.703-1.446-.723-2.364-1.993-.899-1.289-1.192-2.988-.273-1.719.098-3.594.41-2.011 1.465-3.808 1.074-1.817 2.637-3.145 1.582-1.328 3.535-2.07 1.953-.742 4.14-.742 2.52 0 4.297.918 1.797.918 2.793 2.676.996 1.738 1.192 4.394.195 2.656-.469 6.016-.762 3.75-2.09 6.62-1.328 2.852-3.183 4.806-1.836 1.933-4.063 2.89-2.227.938-4.805.938-2.539 0-4.218-.957-1.68-.977-2.364-2.403-.683-1.445-.43-2.773.176-.82.9-1.465.741-.645 1.679-.645.86 0 1.445.489.586.468.742 1.426.196 1.171 1.055 1.894.86.703 2.11.703 1.113 0 2.206-.566 1.114-.567 2.032-1.602 1.816-2.09 3.144-7.383zm.762-5.976q.254-1.328.117-2.442-.137-1.132-.625-1.953-.488-.82-1.309-1.289-.8-.469-1.875-.469-1.855 0-3.476 1.602-1.602 1.582-2.13 4.2-.507 2.597.47 4.14.976 1.543 2.949 1.543 1.21 0 2.441-.625 1.23-.645 2.168-1.856.938-1.21 1.27-2.851z" id="path936" font-style="italic"/></g><path id="rect891" d="M163.421 83.265h21.185a.8.8 0 01.803.802.8.8 0 01-.803.803h-21.185a.8.8 0 01-.802-.803.8.8 0 01.802-.802z" fill="#000" stroke="#000" stroke-width="1.983"/><path id="rect893" d="M108.121 137.665h21.185a.8.8 0 01.803.802.8.8 0 01-.803.803h-21.185a.8.8 0 01-.803-.803.8.8 0 01.803-.802z" fill="#000" stroke="#000" stroke-width="1.983"/><path id="rect895" d="M218.121 137.665h21.185a.8.8 0 01.803.802.8.8 0 01-.803.803h-21.185a.8.8 0 01-.803-.803.8.8 0 01.803-.802z" fill="#000" stroke="#000" stroke-width="1.983"/><path id="rect897" d="M54.121 191.665h21.185a.8.8 0 01.803.802.8.8 0 01-.803.803H54.121a.8.8 0 01-.803-.803.8.8 0 01.803-.802z" fill="#000" stroke="#000" stroke-width="1.983"/><path id="rect899" d="M164.121 191.665h21.185a.8.8 0 01.803.802.8.8 0 01-.803.803h-21.185a.8.8 0 01-.803-.803.8.8 0 01.803-.802z" fill="#000" stroke="#000" stroke-width="1.983"/><path id="rect901" d="M108.121 246.565h21.185a.8.8 0 01.803.802.8.8 0 01-.803.803h-21.185a.8.8 0 01-.803-.803.8.8 0 01.803-.802z" fill="#000" stroke="#000" stroke-width="1.983"/><path id="rect903" d="M218.121 246.565h21.185a.8.8 0 01.803.802.8.8 0 01-.803.803h-21.185a.8.8 0 01-.803-.803.8.8 0 01.803-.802z" fill="#000" stroke="#000" stroke-width="1.983"/><path id="rect905" d="M272.421 191.665h21.185a.8.8 0 01.803.802.8.8 0 01-.803.803h-21.185a.8.8 0 01-.802-.803.8.8 0 01.802-.802z" fill="#000" stroke="#000" stroke-width="1.983"/><path id="rect907" d="M162.721 301.264h21.185a.8.8 0 01.803.803.8.8 0 01-.803.803h-21.185a.8.8 0 01-.803-.803.8.8 0 01.803-.803z" fill="#000" stroke="#000" stroke-width="1.983"/><circle id="path948" cx="173.552" cy="121.083" r="10.427" fill="none" stroke="#000" stroke-width="3.78"/><circle id="circle950" cx="119.652" cy="175.952" r="10.427" fill="none" stroke="#000" stroke-width="3.78"/><circle id="circle952" cx="227.552" cy="175.083" r="10.427" fill="none" stroke="#000" stroke-width="3.78"/><circle id="circle954" cx="173.652" cy="229.952" r="10.427" fill="none" stroke="#000" stroke-width="3.78"/><path id="rect956" fill="#000" stroke="#000" stroke-width="5.5" d="M11.988 65.003l53.53-52.376 24.693 25.237L36.68 90.239z"/><path id="rect960" fill="#000" stroke="#000" stroke-width="5.5" d="M37.53 258.322l52.375 53.53-25.237 24.693-52.375-53.532z"/><path id="rect962" fill="#000" stroke="#000" stroke-width="5.5" d="M310.669 258.322l-52.376 53.531 25.237 24.692 52.375-53.531z"/><path id="rect964" fill="#fff" stroke="#000" stroke-width="1" stroke-miterlimit="4" stroke-dasharray="none" d="M55.376 280.081l11.98 11.982-21.504 21.504-11.98-11.981z"/><path id="rect966" fill="#b3b3b3" stroke="#000" stroke-width="1" stroke-miterlimit="4" stroke-dasharray="none" d="M38.176 262.081l11.981 11.982-21.504 21.504-11.982-11.981z"/><path id="rect968" fill="#b3b3b3" stroke="#000" stroke-width="1" stroke-miterlimit="4" stroke-dasharray="none" d="M72.876 298.08l11.981 11.982-21.504 21.505-11.982-11.982z"/><path id="rect970" fill="#fff" stroke="#000" stroke-width="1" stroke-miterlimit="4" stroke-dasharray="none" d="M292.152 280.081l-11.981 11.982 21.504 21.504 11.981-11.981z"/><path id="rect972" fill="#b3b3b3" stroke="#000" stroke-width="1" stroke-miterlimit="4" stroke-dasharray="none" d="M309.353 262.081l-11.981 11.982 21.504 21.504 11.981-11.981z"/><path id="rect974" fill="#b3b3b3" stroke="#000" stroke-width="1" stroke-miterlimit="4" stroke-dasharray="none" d="M274.652 298.082l-11.98 11.98 21.504 21.505 11.98-11.98z"/></svg>