<svg xmlns="http://www.w3.org/2000/svg" viewBox="0 0 348 348" fill="none"><path d="M5.08 5.776h336.91v337.67H5.08z" stroke-width="2" stroke="#000"/><path d="M282.734 40.554c0-8.376 6.966-15.165 15.56-15.165 4.126 0 8.084 1.594 11 4.44 2.92 2.842 4.56 6.7 4.56 10.722 0 8.376-6.967 15.165-15.56 15.165-8.594 0-15.56-6.79-15.56-15.166z" stroke-width="2" stroke="#000"/><path style="marker:none" color="#000" stroke="#000" stroke-width="1.5" overflow="visible" d="M88.98 21.739h174.494v46.994H88.98z"/><g color="#000" stroke="#000"><path d="M142.453 203.404c0 28.879-23.411 52.29-52.29 52.29-28.88 0-52.29-23.411-52.29-52.29 0-28.879 23.41-52.29 52.29-52.29 28.878 0 52.29 23.411 52.29 52.29z" style="marker:none" stroke-width="1.42751106" overflow="visible"/><path style="marker:none" stroke-width="1.079" overflow="visible" d="M84.622 183.2h12.485v45.322H84.622z"/></g><g color="#000" stroke="#000"><path d="M309.419 203.404c0 28.879-23.411 52.29-52.29 52.29-28.88 0-52.29-23.411-52.29-52.29 0-28.879 23.41-52.29 52.29-52.29 28.878 0 52.29 23.411 52.29 52.29z" style="marker:none" stroke-width="1.42751106" overflow="visible"/><path style="marker:none" stroke-width="1.079" overflow="visible" d="M251.588 183.2h12.485v45.322h-12.485z"/></g></svg>