<svg xmlns="http://www.w3.org/2000/svg" viewBox="0 0 200 200"><path fill="none" stroke="#000" d="m200 100-49.7 86.2H50.7L1 99.9l49.8-86.2h99.6z"/><path fill="none" stroke="#000" stroke-width="1.1" d="M19 150a18.2 18.2 0 0 0-1.2 0H1v15.7a18.2 18.2 0 0 0-.2 2.5A18.2 18.2 0 0 0 19 186.4a18.2 18.2 0 0 0 .2 0h18.2v-18.2h-.1A18.2 18.2 0 0 0 18.9 150z"/><circle cx="18.9" cy="168.2" r="12.7" fill="none" stroke="#000"/><path d="M3.4 106v43.4h1V106Zm3.5 5.7v38h1v-38zm3.2 4.6v33.4h1v-33.4z" color="#000" style="-inkscape-stroke:none"/><path fill="none" stroke="#000" d="M37.6 184.5v-9.6H44l5.6 9.7z"/><g transform="matrix(-1 0 0 1 200.7 .2)"><path fill="none" stroke="#000" stroke-width="1.1" d="M19 150a18.2 18.2 0 0 0-1.2 0H1v15.7a18.2 18.2 0 0 0-.2 2.5A18.2 18.2 0 0 0 19 186.4a18.2 18.2 0 0 0 .2 0h18.2v-18.2h-.1A18.2 18.2 0 0 0 18.9 150z"/><circle cx="18.9" cy="168.2" r="12.7" fill="none" stroke="#000"/><path d="M3.4 106v43.4h1V106Zm3.5 5.7v38h1v-38zm3.2 4.6v33.4h1v-33.4z" color="#000" style="-inkscape-stroke:none"/><path fill="none" stroke="#000" d="M37.6 184.5v-9.6H44l5.6 9.7z"/></g><path fill="none" stroke="#000" d="M50.6 13.5 151 186.1m50-86.3H.5m150.4-86.3L50.6 186.1M153.2 100 127 145.5H74L47.8 99.9 74 54.3h53z"/><path fill="none" stroke="#000" d="m60.4 13.8 40.3 69.3 40.4-69.5"/><path d="m60.6 13.8-3.3 12.6 7.7 12L67.6 27Zm13.8 22.7L71 49.2l3 5.2.1-.1h6l1.2-4.4-6.9-13.4zm4.6 26h9.2l5.3 9.3h-8.7zm9.5 15.8h9.3l5.3 9.4h-8.8z"/><path d="M112.8 78.4h-9.2l-5.3 9.3h8.7zm9.6-15.7H113l-5.3 9.3h8.8zM141 13.8l3.3 12.6-7.2 11.4-3.1-10.7zm-13.8 22.7 3.4 12.7-3 5.2-.2-.1h-6l-1.2-4.4z"/><path fill="none" stroke="#000" d="m60.4 185.5 40.3-69.3 40.4 69.5"/><path d="m60.6 185.5-3.3-12.7 7.1-11.3 3.2 10.7zm13.8-22.8L71 150.1l3-5.3.1.2h6l1.2 4.4zm4.6-25.9h9.2l5.3-9.3h-8.7zm9.5-15.8h9.3l5.3-9.4h-8.8z"/><path d="M112.8 120.9h-9.2l-5.3-9.3h8.7zm9.6 15.7H113l-5.3-9.3h8.8zm18.6 48.9 3.3-12.7-7.2-11.3-3.1 10.7zm-13.8-22.8 3.4-12.6-3-5.3-.2.2h-6l-1.2 4.4z"/><path fill="none" stroke="#000" d="m155 21.8-40 69.5 80.5.2"/><path d="m155 22-12.6 3.3-6.1 12 10.7-2.7zm-12.8 23.2-12.6 3.4-3 5.3h.2l3 5.2 4.4-1.2zm-20.2 17 4.7 8-5.4 9.2-4.4-7.6zm-9 16.1 4.7 8-5.4 9.3L108 88z"/><path d="m125.2 99.5-4.6-8h-10.7l4.4 7.6zm18.4.4-4.7-8h-10.7l4.4 7.6zm51.6-8.4-9.3 9.2-13.3-.5 7.6-8zm-26.6-.5-9.2 9.2h-6v-.2l-3-5.2 3.2-3.2z"/><path fill="none" stroke="#000" d="m6.3 107.6 80.1.3-40 69.7"/><path d="m6.4 107.8 9.2-9.3 13.3.6-7.5 8zm26.6.6 9.2-9.3h6v.1l3 5.3-3.2 3.2zm24.7-9.1 4.6 8H73l-4.4-7.6zm18.5.4 4.6 8h10.7l-4.3-7.7z"/><path d="m88.4 120.7-4.6-8 5.4-9.3 4.4 7.6zm-8.8 16.1-4.6-8 5.4-9.3 4.4 7.6zm-33.1 40.5 12.7-3.4 6-11.9-10.6 2.7zM59.3 154l12.7-3.4 3-5.2h-.2l-3-5.2-4.4 1.2z"/><path fill="none" stroke="#000" d="m195.4 107.5-80.2.3 40 69.8"/><path d="m195.3 107.8-9.3-9.3-13.3.5 7.6 8zm-26.6.5-9.2-9.3h-6.1l.1.2-3 5.2 3.2 3.2zm-24.7-9-4.6 8h-10.8l4.4-7.7zm-18.5.3-4.7 8h-10.7l4.4-7.7z"/><path d="m113.3 120.7 4.6-8-5.4-9.3-4.4 7.6zm8.7 16 4.7-8-5.4-9.2-4.4 7.6zm33.2 40.6-12.7-3.4-6.1-12 10.7 2.7zM142.3 154l-12.6-3.4-3-5.3h.1l3-5.2 4.5 1.2z"/><path fill="none" stroke="#000" d="m46.7 21.7 39.9 69.6-80.4.2"/><path d="m46.6 21.9 12.7 3.4 6 12.4-10.6-3.1Zm12.8 23.3 12.7 3.4 3 5.2h-.2L72 59l-4.5-1zm20.2 16.9-4.7 8 5.5 9.3 4.4-7.6zm9 16.2-4.7 8 5.5 9.3 4.3-7.6z"/><path d="m76.4 99.4 4.7-8h10.7L87.4 99zm-18.3.4 4.6-8h10.8L69 99.5zM6.5 91.4l9.2 9.3L29 100l-7.5-8zm26.5-.5 9.3 9.2h6v-.1l3-5.2-3.2-3.3z"/><path fill="none" stroke="#000" stroke-width=".9" d="m195.4 82.6 4.5-22.5-17.7-30.8-21-6.3z"/><path d="m184 37 9.7 16.8-6.2 10.4-16-27.6z"/><path fill="none" stroke="#000" stroke-width=".9" d="m159.2 28.6 4-2.3 6.2 10.7-4 2.7m16.9 29.8 4-2.3 6.1 10.8-4 2.6"/></svg>