<svg viewBox="0 0 348 348" fill="none" xmlns="http://www.w3.org/2000/svg"><path d="M342 6H5v337h337Z" stroke-width="2" stroke="#000"/><path d="M289 51c0-5 4-10 9-10 3 0 5 2 7 3 2 2 3 4 3 7 0 5-5 9-10 9s-9-4-9-9z" stroke-width="1.9" stroke="#000"/><path stroke="#000" stroke-width="1.9" d="M263 16h70v70h-70zM206 51c0-5 4-10 9-10 3 0 6 2 7 3 2 2 3 4 3 7 0 5-4 9-10 9-5 0-9-4-9-9z"/><path stroke="#000" stroke-width="1.9" d="M180 16h70v70h-70zM123 51c0-5 5-10 10-10 3 0 5 2 6 3 2 2 4 4 4 7 0 5-5 9-10 9s-10-4-10-9z"/><path stroke="#000" stroke-width="1.9" d="M97 16h70v70H97zM40 51c0-5 5-10 10-10 3 0 5 2 7 3 1 2 3 4 3 7 0 5-5 9-10 9s-10-4-10-9z"/><path stroke="#000" stroke-width="1.9" d="M15 16h70v70H15zM289 133c0-5 4-9 9-9 3 0 5 1 7 3 2 1 3 4 3 6 0 6-5 10-10 10s-9-4-9-10z"/><path stroke="#000" stroke-width="1.9" d="M263 98h70v71h-70zM206 133c0-5 4-9 9-9 3 0 6 1 7 3 2 1 3 4 3 6 0 6-4 10-10 10-5 0-9-4-9-10z"/><path stroke="#000" stroke-width="1.9" d="M180 98h70v71h-70zM123 133c0-5 5-9 10-9 3 0 5 1 6 3 2 1 4 4 4 6 0 6-5 10-10 10s-10-4-10-10z"/><path stroke="#000" stroke-width="1.9" d="M97 98h70v71H97zM40 133c0-5 5-9 10-9 3 0 5 1 7 3l3 6c0 6-5 10-10 10s-10-4-10-10z"/><path stroke="#000" stroke-width="1.9" d="M15 98h70v71H15zM289 216c0-5 4-9 9-9 3 0 5 1 7 3 2 1 3 4 3 6 0 6-5 9-10 9s-9-3-9-9z"/><path stroke="#000" stroke-width="1.9" d="M263 181h70v70h-70zM206 216c0-5 4-9 9-9 3 0 6 1 7 3 2 1 3 4 3 6 0 6-4 9-10 9-5 0-9-3-9-9z"/><path stroke="#000" stroke-width="1.9" d="M180 181h70v70h-70zM123 216c0-5 5-9 10-9 3 0 5 1 6 3 2 1 4 4 4 6 0 6-5 9-10 9s-10-3-10-9z"/><path stroke="#000" stroke-width="1.9" d="M97 181h70v70H97zM40 216c0-5 5-9 10-9 3 0 5 1 7 3l3 6c0 6-5 9-10 9s-10-3-10-9z"/><path stroke="#000" stroke-width="1.9" d="M15 181h70v70H15zM289 299c0-5 4-10 9-10 3 0 5 2 7 3 2 2 3 4 3 7 0 5-5 9-10 9s-9-4-9-9z"/><path stroke="#000" stroke-width="1.9" d="M263 264h70v70h-70zM206 299c0-5 4-10 9-10 3 0 6 2 7 3 2 2 3 4 3 7 0 5-4 9-10 9-5 0-9-4-9-9z"/><path stroke="#000" stroke-width="1.9" d="M180 264h70v70h-70zM123 299c0-5 5-10 10-10 3 0 5 2 6 3 2 2 4 4 4 7 0 5-5 9-10 9s-10-4-10-9z"/><path stroke="#000" stroke-width="1.9" d="M97 264h70v70H97zM40 299c0-5 5-10 10-10 3 0 5 2 7 3 1 2 3 4 3 7 0 5-5 9-10 9s-10-4-10-9z"/><path stroke="#000" stroke-width="1.9" d="M15 264h70v70H15z"/><path d="M49 19h6c1 1 0 2-2 2s-2 0-2 3v3l1 1 2 1-2 1-1 3c0 2 1 3 2 3 2 0 3 1 2 2H45c-1-1 0-2 2-2 1 0 2-1 2-3s-1-3-2-3v-2c2-1 2-1 1-4 0-3 0-3-2-3l-2-1 2-1h3zM82 56h-2l-1-1-2 1H65l-2-3c-2-3-1-5 3-7h15l1 4c-1 1-1 0-3-1l-7-1c-6 0-7 1-7 3s0 2 2 3h10l3-2h2v4zM45 82v-6a2110 2110 0 0 0 3-13h3l1 3 1 4c3 10 3 11 2 11l-5 1-4 1-1-1zm7-2v-2a234 234 0 0 0-3-8 583 583 0 0 1-1 10h4zM18 49l5-3h10l4 3c1 2 1 4-1 6l-10 2-5-1-3-2v-5zm3 4c0 1 2 2 6 2 5 0 8-2 8-4 0-1 0-2-2-2l-5-1-7 1c-1 2-2 3 0 4zm6-4 1 1v3c-1 1-2 0-2-2l1-2zM138 20l-2 4-1 4c-1 1 0 2 1 5l2 5h-2l-2-3-1-3-1 3-2 3c-1 1-2 0-1-2l2-7-2-7-1-2h2l2 3 1 3 2-3c1-3 2-4 3-3zM101 46h18l1 1v4l-1 4-5 1h-12l-1-1v-1l2-1 7 1h6l1-1 1-3-1-2-8-1h-8v-1zM164 51l-2 1-3 1-3 3-5 1-5-1-1-1h4c4 0 7-1 7-2l1-1h-6l-6-1v-1h6l6-1-1-1-7-1-4-1 4-1c6-1 9 1 10 3l3 1 2 1v1zM132 82l-2-2c-2-2-3-3-3-6 0-4 1-7 4-9l1-1h2l1 1c4 1 6 9 3 13l-2 2-2 2h-2zm0-8-1-6h-1l-1 3v4l3 4v-5zm4 4 1-5-1-4c-1-2-1-2-2-1v5l1 6 1-1zM221 19v6a2110 2110 0 0 0-4 13h-2l-1-2-1-5-3-10 1-1 4-1h6zm-7 3v1a234 234 0 0 0 3 8 584 584 0 0 1 1-9h-4zM183 52l1-5v-1c1-1 1 0 1 2 0 1 1 2 4 2h3v-2l1-1 2 1c0 2 1 2 3 2s2-1 2-2c0-2 2-3 2-2l1 5-1 5c0 1-2 0-2-2 0-1 0-2-2-2-3 0-3 0-3 2h-3c0-2 0-2-4-2-2 0-3 1-3 3l-1 1-1-1v-3zM210 82c-1 0-1-1 1-1l1-1-1-2c-2-3-1-8 0-12l2-2c3-2 6-1 7 3 2 2 2 9 1 11v4h-4v-2c2-2 2-3 2-7 0-6-1-7-3-7s-2 0-3 2l-1 5 1 5 2 3v2l-5-1zM246 56h-17l-2-1v-4l1-4 6-1h8l4-1 1 1-1 2h-15l-1 1v5l8 1h8v1zM303 19v18l-1 1-4 1-4-1-1-6V20l1-1h1l1 2-1 8v6h1l3 1h2l1-8v-8l1-1zM267 50l2-3c1-1 2-2 5-2 4-1 8 1 9 3l1 2v2l-1 1c-1 4-9 5-13 3l-2-2-2-2c-1-1-1-1 1-2zm7-1h6v-1l-3-1h-4l-3 2h4zm-3 5 4 1 5-1 1-2h-6c-5 0-6 0-5 1l1 1zM330 53l-5 3h-10c-3 0-3-1-4-3s-1-4 1-5c1-2 5-3 10-3l5 1 3 2v5zm-3-4-6-1c-5-1-9 1-9 3l2 3h5l7-1c2-1 2-3 1-4zm-6 4h-2l1-4c1-1 1 0 1 2v2zM298 82l-1-2-1-3-3-2-1-6 1-5h1v3l2 8h1v-5l1-6 1-1v6l1 6h1l1-8 1-4 1 5c1 5-1 8-3 9l-2 3v2h-1zM55 102v18l-1 1h-4l-4-1-1-5v-13h2l1 2-1 7v6l1 1h5l1-8v-8h1zM37 138c-1 1-1 0-4-1l-5-2-5 2c-4 2-4 2-5 1v-2l4-1 2-2-2-1-4-1c-1-2 0-2 2-2l7 3 8-3h1l1 2-4 1-3 1 4 2c3 1 4 2 3 3zM81 134l-2 1-3 1-2 3-6 1-5-1v-2h3c4 1 7 0 8-1v-1h-5l-6-1-1-1h6l6-1v-1c-2-1-4-2-8-1l-4-1 5-2c5 0 8 1 10 4l2 1 2 1v1zM48 164l-2-2-2-6c-1-4 1-7 3-9l2-1h2l1 1c3 1 5 9 3 13l-2 2-2 2h-3zm0-8v-6h-1l-1 3v4l2 4v-5zm5 4v-5l-1-4c0-2-1-2-1-1v5l1 6 1-1zM138 102v1l-1 1 1 2c1 4 1 8-1 12l-2 2c-3 2-5 1-7-3v-14l-1-1h5l-1 2c-2 2-2 3-2 7 1 6 1 8 4 8l3-3v-5l-1-5-1-2v-2h4zM101 129h5a2108 2108 0 0 0 14 3l-1 3-2 1-4 1-11 2-2-5v-4l1-1zm2 7h1a234 234 0 0 0 9-3 583 583 0 0 1-10-2v5zM127 165v-9l1-9 1-1h4l4 1v5l1 9v4h-3v-2l1-7v-6l-1-1-3-1-2 1-1 8v8h-2zM164 135l-4 4h-10l-4-3v-6l11-2 5 1c2 0 2 1 2 2v4zm-2-4-7-1c-4 0-8 1-8 3s1 2 2 3l5 1c4 0 6 0 7-2 2-1 2-2 1-4zm-6 4h-2l1-3c1-1 1-1 1 1v2zM247 135c-1 2-2 3-5 4h-10l-4-3c-1-2-1-4 1-6l10-2 5 1c2 0 2 1 3 2v4zm-3-4-6-1c-5 0-8 1-8 3s0 2 2 3l5 1c4 0 5 0 7-2v-4zm-6 4h-1v-3c1-1 2-1 2 1l-1 2zM221 102v6a2110 2110 0 0 0-4 13h-2l-1-3-1-4-3-11h1l4-1 4-1 2 1zm-7 2v2a234 234 0 0 0 3 8 584 584 0 0 1 1-10h-4zM183 133l2-1 3-1 2-3h11v2h-3c-4-1-7 0-8 1v1h5l6 1 1 1h-6l-6 1v1c2 1 4 2 8 1l4 1-5 2c-5 0-8-1-9-4l-3-1-2-1v-1zM211 165l1-4 2-4-2-5-1-5h2l2 3 1 3 1-3 1-3c2-1 2 0 2 2l-3 7 3 7v2h-2l-1-3-1-3-2 3c-1 3-2 5-3 3zM266 134v-5c1-1 2 0 2 1 0 2 0 3 4 3h2l1-2 1-1 1 1c1 2 1 2 3 2s3-1 3-2c0-2 1-3 2-2v9c-1 2-2 1-2-1s-1-2-3-2l-3 1c0 2-1 2-2 0l-4-1c-3 0-3 1-3 2l-1 2-1-2v-3zM330 139h-2l-1-1-2 1c-3 1-8 1-12-1l-2-2c-2-3-1-5 3-7h14l1-1 1 5-3-1c-2-2-3-2-7-2-6 1-7 2-7 4 0 1 0 2 2 3h5l5-1 3-1h2v4zM293 166v-6a2110 2110 0 0 0 4-13h2l1 2 1 4 2 11-4 2h-6zm7-3v-1a234 234 0 0 0-3-9 583 583 0 0 1-1 10h4zM299 102v2l2 3 2 2 1 6v5h-2v-3l-1-8h-1l-1 5v6l-1 1-1-6v-6h-1c-1 1-2 4-1 8l-1 4c-1 0-2-1-2-5 0-5 1-8 4-10l1-2v-2h2zM51 185v2c0 2 1 3 2 3l2 2 1 6v5h-2v-3l-1-8h-1l-1 6v5l-1 1-1-6v-6h-2l-1 8c1 3 0 4-1 4l-1-4c0-6 1-9 3-10s2-1 2-3v-2h2zM81 222h-5a2108 2108 0 0 0-14-4l1-2 2-1 4-1 11-3v1l2 4v4l-1 2zm-2-7h-1a234 234 0 0 0-9 3 583 583 0 0 1 10 1v-4zM45 248v-2h1l-1-3v-12l3-2c3-1 5-1 7 3v14l1 2h-5l1-3c1-2 2-3 1-7 0-6-1-7-3-7-1 0-2 0-3 2v5l1 6 1 2v2h-4zM18 217v-6l2 2c0 2 0 2 4 2h2l1-1 1-1 1 1 3 1c2 0 3 0 3-2s1-3 2-1v9c-1 1-2 1-2-1s-1-2-3-2l-3 1c0 2-1 2-2 0l-4-1c-3 0-3 0-3 2l-1 2-1-2v-3zM101 212l5-1a2108 2108 0 0 0 14 4l-1 2-2 1-4 2-11 2v-1l-2-4v-4l1-1zm2 6h1a234 234 0 0 0 9-3 583 583 0 0 1-10-1v4zM138 185l-2 4-1 5 1 4 2 5h-2l-2-3-1-3-1 3-2 3c-1 1-2 0-1-1l2-8-2-7-1-2h2l2 3 1 3 2-3c1-3 2-4 3-3zM164 217l-2 3-6 2c-4 1-7-1-9-3l-1-2v-2l1-1c1-4 9-5 13-3l2 2 2 2v2zm-8 1h-6v1l3 1h4l4-2h-5zm4-5-5-1-4 1-2 2h6l6-1-1-1zM127 248c-1-1 0-2 1-2h1l-1-3c-2-3-1-8 0-12l2-2c3-1 6-1 7 3 2 3 2 9 1 12v4h-4v-3c2-2 2-3 2-7 0-6-1-7-3-7s-2 0-3 2l-1 5 1 6 2 2v2h-5zM183 216h2l3-2 2-2 6-1h5v2h-3l-8 1v1l5 1h6l1 1-6 1h-6v1c2 2 4 2 8 2h4c0 1-1 2-5 2-5 0-8-1-9-4l-3-1h-2v-2zM247 216v6l-2-2c0-2 0-2-3-2h-3l-1 1-1 1-1-1c-1-1-1-2-3-2s-3 1-3 3c0 1-1 2-2 1v-9c1-2 2-1 2 1s1 2 3 2l3-1c1-2 2-2 2 0l4 1c3 0 3 0 3-2l1-2c1 0 2 1 1 2v3zM218 185l3 4v10c-1 3-1 4-3 4-2 2-4 1-6 0l-2-10 1-6 2-2h5zm-4 2c-1 1-2 3-2 7s2 8 4 8l2-2 1-5-1-7c-2-2-3-2-4-1zm4 6-1 2h-3c-1-1 0-2 2-2h2zM214 247l-2-2-3-6c0-4 1-7 4-9l1-1h3v1c4 1 6 9 3 13l-2 2-2 2h-2zm0-8v-6h-2v7l2 4v-5zm5 4v-5l-1-4-1-1v11l2-1zM266 211c1-1 2-1 2 1h3c3-2 8-2 12 0l2 2c2 3 1 6-3 7-2 2-9 2-12 1h-4v-4h3c2 2 3 2 7 2 6 0 7-1 7-3s0-2-2-3l-5-1-6 1-2 2h-2v-5zM299 185v2l2 3 2 2 1 6v5h-2v-3l-1-8h-1l-1 5v6l-1 1-1-6v-6h-1c-2 2-2 4-2 8v4c-1 0-2-1-2-5 0-5 1-8 4-9l1-3v-2h2zM329 217l-2 3-5 2c-4 1-8-1-9-3l-2-2c-1 0-1-2 1-2l1-1c1-4 8-5 13-3l2 2 1 2v2zm-8 1h-6l1 1 3 1h4l3-2h-5zm4-5-4-1-5 1c-1 1-2 1-1 2h6l5-1-1-1zM293 247v-18l1-1h4l4 1 1 5v13h-2v-15l-1-1h-5l-1 8v8h-1zM55 267v6a2110 2110 0 0 0-4 13h-2l-1-2-1-5-2-10v-1l4-1h6zm-7 3v1a234 234 0 0 0 3 8 584 584 0 0 1 1-9h-4zM62 295c1-1 1-1 5 1l4 2 5-2c4-2 4-2 5-1v1l-4 2-2 1 3 2 3 1c1 1 0 2-2 1l-7-2-7 2-2 1-1-2 4-1 3-1-4-2c-3-1-4-3-3-3zM19 294h17l1 1 1 4-1 4-6 1h-8l-4 1-1-1v-2h16v-1l1-3v-2l-8-1h-8v-1zM50 330l-1-2-1-3-3-2-1-6 1-5h2v3c-1 4 0 7 1 8h1v-5l1-6 1-1v6l1 6h1l1-8 1-4 1 5c1 5-1 8-3 10l-1 2-1 2h-1zM138 268v1l-1 1 1 2c1 3 1 8-1 12l-2 2c-3 2-5 1-7-3v-14l-1-1h5l-1 2c-2 2-2 3-2 7 1 6 1 7 4 7 1 0 2 0 3-2v-5l-1-5-1-3v-2l4 1zM164 300l-2 2c-2 2-3 3-6 3-4 0-7-1-9-4l-1-1v-2l1-1c1-4 9-6 13-3l2 2 2 2v2zm-8 0h-6v2l3 1 4-1 4-2h-5zm4-4-5-1-4 1-2 2h6l6-1-1-1zM101 297l4-3h10l4 3v6l-10 2-6-1-2-2v-5zm2 4c1 1 3 2 7 2s8-2 8-4l-2-2-5-1-7 1c-2 2-2 3-1 4zm6-3h2v3c-1 1-2 0-2-2v-1zM133 330h-5c-1-1 0-1 1-1 2 0 2-1 2-4v-3l-1-1-1-1 1-1c1 0 2-1 2-3s-1-3-2-3l-2-1 5-1h4c2 1 1 2-1 2s-2 1-2 3l1 3c2 1 2 2 0 2l-1 4c0 3 1 4 2 4l2 1-2 1-3-1zM215 267h6l-2 2c-2 0-2 0-2 3v3l1 1 1 1-1 1-1 3c0 2 0 3 2 3 1 0 2 1 1 2h-9c-2-1-1-2 1-2s2-1 2-3l-1-3c-2-1-2-2 0-2l1-4c0-3 0-3-2-3l-2-1c0-1 1-2 2-1h3zM183 294h6a2108 2108 0 0 0 13 3v3l-2 1-5 1-10 2h-1l-1-5v-5zm3 7h1a234 234 0 0 0 8-3 583 583 0 0 1-9-2v5zM247 304h-9l-9-1-1-1v-4l1-3 5-1 9-1h3l1 1v2h-9l-6-1-1 1-1 3 1 3h8l8 1v1zM215 331l-1-2-1-3-3-3v-10c1-1 1-2 2-1v4c-1 4 0 7 1 7h1v-5l1-6h1v5l1 6h1c1-1 2-3 1-7l1-4 2 4c0 6-1 9-4 10l-1 2-1 3h-1zM300 268l2 2 3 5c0 4-2 8-4 9l-2 2-2-1-1-1c-3-1-5-8-3-13l3-2 1-1h3zm0 7v7l1-1 1-3v-4c0-2-1-3-2-3v4zm-5-3v4l1 5 1 1v-6l-1-5-1 1zM266 294h2v1l3-1h12l2 3c2 3 1 5-3 7h-14l-2 1v-5l3 1c2 1 3 2 7 1 6 0 7-1 7-3 0-1 0-2-2-3h-5l-6 1-2 1h-2v-4zM294 330l1-4 2-5-2-5c-2-3-2-4-1-4h2l1 3 1 3 2-3 1-4c1 0 2 0 1 2l-2 7 2 8 1 2h-2l-1-4-1-3-2 4c-1 3-2 4-3 3zM330 301l-5 3h-10c-3 0-3-1-4-3v-5c2-2 6-3 11-3l5 1 3 2v5zm-3-4-7-1c-4-1-8 1-8 3l2 3h5l7-1c2-1 2-3 1-4zm-6 4h-2l1-4c1-1 1 0 1 2v2z" fill="#000"/></svg>