<svg xmlns="http://www.w3.org/2000/svg" viewBox="0 0 348 348" fill="none"><path d="M5.079 5.776h336.913v337.67H5.08z" stroke-width="2" stroke="#000"/><path fill="#000" d="M133.843 15.667h74.33v56.882h-74.33z"/><path fill="#fff" d="M154.54 44.09c0-2.709.276-4.886.827-6.531.563-1.657 1.391-2.933 2.485-3.829 1.104-.895 2.49-1.343 4.156-1.343 1.23 0 2.307.25 3.234.75.927.49 1.692 1.203 2.297 2.14.604.927 1.078 2.062 1.422 3.407.344 1.333.516 3.135.516 5.406 0 2.687-.276 4.859-.829 6.515-.552 1.647-1.38 2.923-2.484 3.829-1.093.895-2.479 1.343-4.156 1.343-2.209 0-3.943-.792-5.203-2.375-1.51-1.907-2.266-5.01-2.266-9.312zm2.89 0c0 3.76.437 6.265 1.312 7.515.885 1.24 1.974 1.86 3.266 1.86 1.291 0 2.375-.625 3.25-1.875.885-1.25 1.328-3.75 1.328-7.5 0-3.77-.443-6.276-1.328-7.516-.875-1.24-1.969-1.86-3.281-1.86-1.292 0-2.323.547-3.094 1.641-.969 1.396-1.453 3.974-1.453 7.735zm14.906 0c0-2.709.276-4.886.828-6.531.563-1.657 1.39-2.933 2.484-3.829 1.105-.895 2.49-1.343 4.157-1.343 1.229 0 2.307.25 3.234.75.927.49 1.692 1.203 2.297 2.14.604.927 1.078 2.062 1.422 3.407.343 1.333.515 3.135.515 5.406 0 2.687-.276 4.859-.828 6.515-.552 1.647-1.38 2.923-2.484 3.829-1.093.895-2.479 1.343-4.156 1.343-2.209 0-3.943-.792-5.203-2.375-1.51-1.907-2.266-5.01-2.266-9.312zm2.89 0c0 3.76.438 6.265 1.313 7.515.885 1.24 1.974 1.86 3.266 1.86 1.291 0 2.375-.625 3.25-1.875.885-1.25 1.328-3.75 1.328-7.5 0-3.77-.443-6.276-1.328-7.516-.875-1.24-1.97-1.86-3.282-1.86-1.291 0-2.322.547-3.093 1.641-.969 1.396-1.453 3.974-1.453 7.735z"/><path stroke-linejoin="round" stroke-width="2" stroke="#000" d="M15.262 17.706h109.89v54.835H15.262Z"/><path d="m15.262 72.654 39.686-54.08"/><path stroke-linejoin="round" stroke-width="2" stroke="#000" d="m15.262 72.654 39.686-54.08"/><path d="m37.566 72.654 39.686-54.08"/><path stroke-linejoin="round" stroke-width="2" stroke="#000" d="m37.566 72.654 39.686-54.08"/><path d="m59.87 72.654 39.686-54.08"/><path stroke-linejoin="round" stroke-width="2" stroke="#000" d="m59.87 72.654 39.686-54.08"/><path d="m82.175 72.654 39.685-54.08"/><path stroke-linejoin="round" stroke-width="2" stroke="#000" d="m82.175 72.654 39.685-54.08m95.004-1.94h109.89v54.835h-109.89z"/><path d="m216.864 71.581 39.685-54.078"/><path stroke-linejoin="round" stroke-width="2" stroke="#000" d="m216.864 71.581 39.685-54.078"/><path d="m239.168 71.581 39.685-54.078"/><path stroke-linejoin="round" stroke-width="2" stroke="#000" d="m239.168 71.581 39.685-54.078"/><path d="m261.472 71.581 39.685-54.078"/><path stroke-linejoin="round" stroke-width="2" stroke="#000" d="m261.472 71.581 39.685-54.078"/><path d="m283.776 71.581 39.685-54.078"/><path stroke-linejoin="round" stroke-width="2" stroke="#000" d="m283.776 71.581 39.685-54.078"/><g transform="translate(-6.39 -.116)"><rect style="fill:#000;fill-rule:evenodd;stroke:none;stroke-width:3.23486;stroke-linecap:square;stroke-dashoffset:271;paint-order:fill markers stroke" width="43.132" height="43.132" x="43.782" y="168.617" ry="6.622"/><g style="font-size:40px;line-height:1.25;font-family:'mono 07_65';-inkscape-font-specification:'mono 07_65';fill:#fff" aria-label="0"><path style="font-style:normal;font-variant:normal;font-weight:400;font-stretch:normal;font-family:'Roboto Mono';-inkscape-font-specification:'Roboto Mono'" d="M74.606 193.582v-6.797q0-2.754-.645-4.844-.644-2.11-1.836-3.535-1.21-1.406-2.93-2.129-1.718-.723-3.866-.723-2.13 0-3.848.723-1.7.723-2.89 2.129-1.212 1.426-1.856 3.535-.645 2.09-.645 4.844v6.797q0 2.754.645 4.863.664 2.09 1.875 3.496 1.191 1.426 2.91 2.148 1.719.723 3.848.723 2.148 0 3.867-.723 1.719-.722 2.91-2.148 1.191-1.406 1.816-3.496.645-2.11.645-4.863zm-13.047-2.344V185.925q0-1.582.234-2.734.254-1.152.762-1.875.469-.684 1.153-1.016.703-.351 1.62-.351.82 0 1.465.273.665.254 1.114.801.586.684.879 1.836.312 1.133.351 2.734zm7.578 3.164q0 1.582-.254 2.754-.234 1.152-.722 1.894-.47.704-1.172 1.055-.703.332-1.621.332-.996 0-1.72-.39-.722-.391-1.19-1.192-.41-.664-.645-1.66-.215-.996-.254-2.285l7.578-5.625v1.816z"/></g><rect ry="7.45" y="136.645" x="43.782" height="29.67" width="43.132" style="fill:#000;fill-rule:evenodd;stroke:none;stroke-width:2.68297;stroke-linecap:square;stroke-dashoffset:271;paint-order:fill markers stroke"/><g style="fill:#fff"><path d="M44.239 130.37h42.219v42.22h-42.22Z" fill="none"/><path d="m57.274 157.478 8.074-8.056 8.074 8.056 2.48-2.48-10.554-10.555-10.555 10.555Z"/></g><rect transform="scale(1 -1)" style="fill:#000;fill-rule:evenodd;stroke:none;stroke-width:2.68297;stroke-linecap:square;stroke-dashoffset:271;paint-order:fill markers stroke" width="43.132" height="29.67" x="43.782" y="-243.621" ry="7.45"/><g style="fill:#fff"><path fill="none" d="M44.239 249.896h42.219v-42.22h-42.22Z"/><path d="m57.274 222.788 8.074 8.056 8.074-8.056 2.48 2.48-10.554 10.555-10.555-10.555Z"/></g></g><g transform="translate(39.627 -.116)"><rect ry="6.622" y="168.617" x="43.782" height="43.132" width="43.132" style="fill:#000;fill-rule:evenodd;stroke:none;stroke-width:3.23486;stroke-linecap:square;stroke-dashoffset:271;paint-order:fill markers stroke"/><g style="font-size:40px;line-height:1.25;font-family:'mono 07_65';-inkscape-font-specification:'mono 07_65';fill:#fff"><path d="M74.606 193.582v-6.797q0-2.754-.645-4.844-.644-2.11-1.836-3.535-1.21-1.406-2.93-2.129-1.718-.723-3.866-.723-2.13 0-3.848.723-1.7.723-2.89 2.129-1.212 1.426-1.856 3.535-.645 2.09-.645 4.844v6.797q0 2.754.645 4.863.664 2.09 1.875 3.496 1.191 1.426 2.91 2.148 1.719.723 3.848.723 2.148 0 3.867-.723 1.719-.722 2.91-2.148 1.191-1.406 1.816-3.496.645-2.11.645-4.863zm-13.047-2.344V185.925q0-1.582.234-2.734.254-1.152.762-1.875.469-.684 1.153-1.016.703-.351 1.62-.351.82 0 1.465.273.665.254 1.114.801.586.684.879 1.836.312 1.133.351 2.734zm7.578 3.164q0 1.582-.254 2.754-.234 1.152-.722 1.894-.47.704-1.172 1.055-.703.332-1.621.332-.996 0-1.72-.39-.722-.391-1.19-1.192-.41-.664-.645-1.66-.215-.996-.254-2.285l7.578-5.625v1.816z" style="font-style:normal;font-variant:normal;font-weight:400;font-stretch:normal;font-family:'Roboto Mono';-inkscape-font-specification:'Roboto Mono'" aria-label="0"/></g><rect style="fill:#000;fill-rule:evenodd;stroke:none;stroke-width:2.68297;stroke-linecap:square;stroke-dashoffset:271;paint-order:fill markers stroke" width="43.132" height="29.67" x="43.782" y="136.645" ry="7.45"/><g style="fill:#fff"><path fill="none" d="M44.239 130.37h42.219v42.22h-42.22Z"/><path d="m57.274 157.478 8.074-8.056 8.074 8.056 2.48-2.48-10.554-10.555-10.555 10.555Z"/></g><rect ry="7.45" y="-243.621" x="43.782" height="29.67" width="43.132" style="fill:#000;fill-rule:evenodd;stroke:none;stroke-width:2.68297;stroke-linecap:square;stroke-dashoffset:271;paint-order:fill markers stroke" transform="scale(1 -1)"/><g style="fill:#fff"><path d="M44.239 249.896h42.219v-42.22h-42.22Z" fill="none"/><path d="m57.274 222.788 8.074 8.056 8.074-8.056 2.48 2.48-10.554 10.555-10.555-10.555Z"/></g></g><g transform="translate(85.644 -.116)"><rect style="fill:#000;fill-rule:evenodd;stroke:none;stroke-width:3.23486;stroke-linecap:square;stroke-dashoffset:271;paint-order:fill markers stroke" width="43.132" height="43.132" x="43.782" y="168.617" ry="6.622"/><g style="font-size:40px;line-height:1.25;font-family:'mono 07_65';-inkscape-font-specification:'mono 07_65';fill:#fff" aria-label="0"><path style="font-style:normal;font-variant:normal;font-weight:400;font-stretch:normal;font-family:'Roboto Mono';-inkscape-font-specification:'Roboto Mono'" d="M74.606 193.582v-6.797q0-2.754-.645-4.844-.644-2.11-1.836-3.535-1.21-1.406-2.93-2.129-1.718-.723-3.866-.723-2.13 0-3.848.723-1.7.723-2.89 2.129-1.212 1.426-1.856 3.535-.645 2.09-.645 4.844v6.797q0 2.754.645 4.863.664 2.09 1.875 3.496 1.191 1.426 2.91 2.148 1.719.723 3.848.723 2.148 0 3.867-.723 1.719-.722 2.91-2.148 1.191-1.406 1.816-3.496.645-2.11.645-4.863zm-13.047-2.344V185.925q0-1.582.234-2.734.254-1.152.762-1.875.469-.684 1.153-1.016.703-.351 1.62-.351.82 0 1.465.273.665.254 1.114.801.586.684.879 1.836.312 1.133.351 2.734zm7.578 3.164q0 1.582-.254 2.754-.234 1.152-.722 1.894-.47.704-1.172 1.055-.703.332-1.621.332-.996 0-1.72-.39-.722-.391-1.19-1.192-.41-.664-.645-1.66-.215-.996-.254-2.285l7.578-5.625v1.816z"/></g><rect ry="7.45" y="136.645" x="43.782" height="29.67" width="43.132" style="fill:#000;fill-rule:evenodd;stroke:none;stroke-width:2.68297;stroke-linecap:square;stroke-dashoffset:271;paint-order:fill markers stroke"/><g style="fill:#fff"><path d="M44.239 130.37h42.219v42.22h-42.22Z" fill="none"/><path d="m57.274 157.478 8.074-8.056 8.074 8.056 2.48-2.48-10.554-10.555-10.555 10.555Z"/></g><rect transform="scale(1 -1)" style="fill:#000;fill-rule:evenodd;stroke:none;stroke-width:2.68297;stroke-linecap:square;stroke-dashoffset:271;paint-order:fill markers stroke" width="43.132" height="29.67" x="43.782" y="-243.621" ry="7.45"/><g style="fill:#fff"><path fill="none" d="M44.239 249.896h42.219v-42.22h-42.22Z"/><path d="m57.274 222.788 8.074 8.056 8.074-8.056 2.48 2.48-10.554 10.555-10.555-10.555Z"/></g></g><g transform="translate(131.66 -.116)"><rect ry="6.622" y="168.617" x="43.782" height="43.132" width="43.132" style="fill:#000;fill-rule:evenodd;stroke:none;stroke-width:3.23486;stroke-linecap:square;stroke-dashoffset:271;paint-order:fill markers stroke"/><g style="font-size:40px;line-height:1.25;font-family:'mono 07_65';-inkscape-font-specification:'mono 07_65';fill:#fff"><path d="M74.606 193.582v-6.797q0-2.754-.645-4.844-.644-2.11-1.836-3.535-1.21-1.406-2.93-2.129-1.718-.723-3.866-.723-2.13 0-3.848.723-1.7.723-2.89 2.129-1.212 1.426-1.856 3.535-.645 2.09-.645 4.844v6.797q0 2.754.645 4.863.664 2.09 1.875 3.496 1.191 1.426 2.91 2.148 1.719.723 3.848.723 2.148 0 3.867-.723 1.719-.722 2.91-2.148 1.191-1.406 1.816-3.496.645-2.11.645-4.863zm-13.047-2.344V185.925q0-1.582.234-2.734.254-1.152.762-1.875.469-.684 1.153-1.016.703-.351 1.62-.351.82 0 1.465.273.665.254 1.114.801.586.684.879 1.836.312 1.133.351 2.734zm7.578 3.164q0 1.582-.254 2.754-.234 1.152-.722 1.894-.47.704-1.172 1.055-.703.332-1.621.332-.996 0-1.72-.39-.722-.391-1.19-1.192-.41-.664-.645-1.66-.215-.996-.254-2.285l7.578-5.625v1.816z" style="font-style:normal;font-variant:normal;font-weight:400;font-stretch:normal;font-family:'Roboto Mono';-inkscape-font-specification:'Roboto Mono'" aria-label="0"/></g><rect style="fill:#000;fill-rule:evenodd;stroke:none;stroke-width:2.68297;stroke-linecap:square;stroke-dashoffset:271;paint-order:fill markers stroke" width="43.132" height="29.67" x="43.782" y="136.645" ry="7.45"/><g style="fill:#fff"><path fill="none" d="M44.239 130.37h42.219v42.22h-42.22Z"/><path d="m57.274 157.478 8.074-8.056 8.074 8.056 2.48-2.48-10.554-10.555-10.555 10.555Z"/></g><rect ry="7.45" y="-243.621" x="43.782" height="29.67" width="43.132" style="fill:#000;fill-rule:evenodd;stroke:none;stroke-width:2.68297;stroke-linecap:square;stroke-dashoffset:271;paint-order:fill markers stroke" transform="scale(1 -1)"/><g style="fill:#fff"><path d="M44.239 249.896h42.219v-42.22h-42.22Z" fill="none"/><path d="m57.274 222.788 8.074 8.056 8.074-8.056 2.48 2.48-10.554 10.555-10.555-10.555Z"/></g></g><g transform="translate(177.677 -.116)"><rect style="fill:#000;fill-rule:evenodd;stroke:none;stroke-width:3.23486;stroke-linecap:square;stroke-dashoffset:271;paint-order:fill markers stroke" width="43.132" height="43.132" x="43.782" y="168.617" ry="6.622"/><g style="font-size:40px;line-height:1.25;font-family:'mono 07_65';-inkscape-font-specification:'mono 07_65';fill:#fff" aria-label="0"><path style="font-style:normal;font-variant:normal;font-weight:400;font-stretch:normal;font-family:'Roboto Mono';-inkscape-font-specification:'Roboto Mono'" d="M74.606 193.582v-6.797q0-2.754-.645-4.844-.644-2.11-1.836-3.535-1.21-1.406-2.93-2.129-1.718-.723-3.866-.723-2.13 0-3.848.723-1.7.723-2.89 2.129-1.212 1.426-1.856 3.535-.645 2.09-.645 4.844v6.797q0 2.754.645 4.863.664 2.09 1.875 3.496 1.191 1.426 2.91 2.148 1.719.723 3.848.723 2.148 0 3.867-.723 1.719-.722 2.91-2.148 1.191-1.406 1.816-3.496.645-2.11.645-4.863zm-13.047-2.344V185.925q0-1.582.234-2.734.254-1.152.762-1.875.469-.684 1.153-1.016.703-.351 1.62-.351.82 0 1.465.273.665.254 1.114.801.586.684.879 1.836.312 1.133.351 2.734zm7.578 3.164q0 1.582-.254 2.754-.234 1.152-.722 1.894-.47.704-1.172 1.055-.703.332-1.621.332-.996 0-1.72-.39-.722-.391-1.19-1.192-.41-.664-.645-1.66-.215-.996-.254-2.285l7.578-5.625v1.816z"/></g><rect ry="7.45" y="136.645" x="43.782" height="29.67" width="43.132" style="fill:#000;fill-rule:evenodd;stroke:none;stroke-width:2.68297;stroke-linecap:square;stroke-dashoffset:271;paint-order:fill markers stroke"/><g style="fill:#fff"><path d="M44.239 130.37h42.219v42.22h-42.22Z" fill="none"/><path d="m57.274 157.478 8.074-8.056 8.074 8.056 2.48-2.48-10.554-10.555-10.555 10.555Z"/></g><rect transform="scale(1 -1)" style="fill:#000;fill-rule:evenodd;stroke:none;stroke-width:2.68297;stroke-linecap:square;stroke-dashoffset:271;paint-order:fill markers stroke" width="43.132" height="29.67" x="43.782" y="-243.621" ry="7.45"/><g style="fill:#fff"><path fill="none" d="M44.239 249.896h42.219v-42.22h-42.22Z"/><path d="m57.274 222.788 8.074 8.056 8.074-8.056 2.48 2.48-10.554 10.555-10.555-10.555Z"/></g></g><g transform="translate(223.694 -.116)"><rect ry="6.622" y="168.617" x="43.782" height="43.132" width="43.132" style="fill:#000;fill-rule:evenodd;stroke:none;stroke-width:3.23486;stroke-linecap:square;stroke-dashoffset:271;paint-order:fill markers stroke"/><g style="font-size:40px;line-height:1.25;font-family:'mono 07_65';-inkscape-font-specification:'mono 07_65';fill:#fff"><path d="M74.606 193.582v-6.797q0-2.754-.645-4.844-.644-2.11-1.836-3.535-1.21-1.406-2.93-2.129-1.718-.723-3.866-.723-2.13 0-3.848.723-1.7.723-2.89 2.129-1.212 1.426-1.856 3.535-.645 2.09-.645 4.844v6.797q0 2.754.645 4.863.664 2.09 1.875 3.496 1.191 1.426 2.91 2.148 1.719.723 3.848.723 2.148 0 3.867-.723 1.719-.722 2.91-2.148 1.191-1.406 1.816-3.496.645-2.11.645-4.863zm-13.047-2.344V185.925q0-1.582.234-2.734.254-1.152.762-1.875.469-.684 1.153-1.016.703-.351 1.62-.351.82 0 1.465.273.665.254 1.114.801.586.684.879 1.836.312 1.133.351 2.734zm7.578 3.164q0 1.582-.254 2.754-.234 1.152-.722 1.894-.47.704-1.172 1.055-.703.332-1.621.332-.996 0-1.72-.39-.722-.391-1.19-1.192-.41-.664-.645-1.66-.215-.996-.254-2.285l7.578-5.625v1.816z" style="font-style:normal;font-variant:normal;font-weight:400;font-stretch:normal;font-family:'Roboto Mono';-inkscape-font-specification:'Roboto Mono'" aria-label="0"/></g><rect style="fill:#000;fill-rule:evenodd;stroke:none;stroke-width:2.68297;stroke-linecap:square;stroke-dashoffset:271;paint-order:fill markers stroke" width="43.132" height="29.67" x="43.782" y="136.645" ry="7.45"/><g style="fill:#fff"><path fill="none" d="M44.239 130.37h42.219v42.22h-42.22Z"/><path d="m57.274 157.478 8.074-8.056 8.074 8.056 2.48-2.48-10.554-10.555-10.555 10.555Z"/></g><rect ry="7.45" y="-243.621" x="43.782" height="29.67" width="43.132" style="fill:#000;fill-rule:evenodd;stroke:none;stroke-width:2.68297;stroke-linecap:square;stroke-dashoffset:271;paint-order:fill markers stroke" transform="scale(1 -1)"/><g style="fill:#fff"><path d="M44.239 249.896h42.219v-42.22h-42.22Z" fill="none"/><path d="m57.274 222.788 8.074 8.056 8.074-8.056 2.48 2.48-10.554 10.555-10.555-10.555Z"/></g></g><path transform="scale(-1 1)" d="M-39.758 292.955a18.91 18.91 0 0 1 18.285 14.088 18.91 18.91 0 0 1-8.959 21.273 18.91 18.91 0 0 1-22.855-3.237 18.91 18.91 0 0 1-2.698-22.925" style="fill:none;fill-rule:evenodd;stroke:#000;stroke-width:4.21433;stroke-linecap:square;stroke-miterlimit:4;stroke-dasharray:none;stroke-dashoffset:271;paint-order:fill markers stroke"/><g style="font-size:40px;line-height:1.25;font-family:'mono 07_65';-inkscape-font-specification:'mono 07_65';fill:#000" aria-label="15"><path style="font-style:normal;font-variant:normal;font-weight:400;font-stretch:normal;font-family:'Roboto Mono';-inkscape-font-specification:'Roboto Mono'" d="M55.358 312.995v-28.437h-.293l-12.383 4.472v4.727l7.188-2.578v21.816zM66.315 298.991l4.336 1.075q.313-.313.664-.586.352-.293.801-.508.45-.215 1.035-.352.586-.136 1.387-.136 1.191 0 2.07.37.88.372 1.465 1.055.586.684.86 1.641.292.937.292 2.07 0 1.153-.234 2.149-.215.996-.684 1.718-.488.723-1.27 1.133-.76.41-1.855.41-1.777 0-2.93-1.015-1.132-1.016-1.327-2.871h-5.352q.059 1.972.879 3.515.84 1.524 2.168 2.578 1.328 1.055 3.027 1.602 1.719.547 3.555.547 2.422 0 4.2-.762 1.777-.762 2.948-2.07 1.172-1.309 1.739-3.027.566-1.72.566-3.633 0-2.246-.586-4.024-.586-1.777-1.68-3.008-1.113-1.23-2.734-1.875-1.601-.664-3.652-.664-1.446 0-2.559.372-1.113.37-1.719.722l.684-6.25h11.309v-4.61H67.936z" transform="translate(6.518 155.788) scale(.52204)"/></g></svg>