<svg fill="none" stroke="#000" stroke-width="2" version="1.1" viewBox="0 0 347 347" xmlns="http://www.w3.org/2000/svg"><rect x="5" y="5" width="337" height="337"/><circle cx="298" cy="40" r="16"/><g fill="#000000" fill-rule="evenodd" stroke="none"><path d="m225 295h35v35h-35zm0-41h35v35h-35zm0-41h35v35h-35zm0-41h35v35h-35zm0-41h35v35h-35zm0-41h35v35h-35zm-41 205h35v35h-35zm0-41h35v35h-35zm0-41h35v35h-35zm0-41h35v35h-35zm0-41h35v35h-35zm0-41h35v35h-35zm-41 205h35v35h-35zm0-41h35v35h-35zm0-41h35v35h-35zm0-41h35v35h-35zm0-41h35v35h-35zm0-41h35v35h-35zm-41 205h35v35h-35zm0-41h35v35h-35zm0-41h35v35h-35zm0-41h35v35h-35zm0-41h35v35h-35zm0-41h35v35h-35zm-41 205h35v35h-35zm0-41h35v35h-35zm0-41h35v35h-35zm0-41h35v35h-35zm0-41h35v35h-35zm0-41h35v35h-35zm-41 205h35v35h-35zm0-41h35v35h-35zm0-41h35v35h-35zm0-41h35v35h-35zm0-41h35v35h-35zm0-41h35v35h-35z" stop-color="#000000"/><path d="m20 20v60h240v-60h-240zm109 13c2.8 0 5.4.67 7.6 2 2.3 1.3 4 3.2 5.2 5.6 1.2 2.4 1.8 5.1 1.8 8.2 0 3.1-.62 5.9-1.9 8.3-1.2 2.4-3 4.3-5.3 5.6-2.3 1.2-4.8 1.9-7.4 1.9-2.9 0-5.4-.69-7.7-2.1s-4-3.3-5.1-5.7c-1.2-2.4-1.8-4.9-1.8-7.6 0-5.1 1.4-9 4.1-12 2.7-2.9 6.2-4.3 11-4.3zm-66 .54h8.3v3.1h-4.5v33h4.5v3.1h-8.3v-39zm9.5 0h4.1l4.6 20c.5 2.1.93 4.2 1.3 6.2.78-3.3 1.2-5.1 1.4-5.6l5.8-21h4.9l4.4 15c1.1 3.8 1.9 7.4 2.4 11 .39-1.9.9-4.1 1.5-6.6l4.8-20h4.1l-8.4 31h-3.9l-6.4-23c-.54-1.9-.86-3.1-.96-3.6-.32 1.4-.62 2.6-.9 3.6l-6.5 23h-4.1l-8.1-31zm76 0h14c2.7 0 4.8.28 6.2.83 1.4.54 2.5 1.5 3.4 2.9s1.3 2.9 1.3 4.6c0 2.2-.7 4-2.1 5.5s-3.6 2.4-6.5 2.8c1.1.51 1.9 1 2.4 1.5 1.2 1.1 2.3 2.4 3.4 4.1l5.3 8.3h-5.1l-4-6.4c-1.2-1.8-2.2-3.2-2.9-4.2-.76-.97-1.5-1.7-2.1-2-.6-.39-1.2-.66-1.8-.81-.46-.097-1.2-.14-2.2-.14h-4.7v14h-4v-31zm31 0h11c2.4 0 4.2.15 5.4.44 1.8.4 3.2 1.1 4.5 2.2 1.6 1.4 2.8 3.1 3.6 5.2.81 2.1 1.2 4.5 1.2 7.2 0 2.3-.27 4.4-.81 6.2-.54 1.8-1.2 3.3-2.1 4.5-.85 1.2-1.8 2.1-2.8 2.8-1 .67-2.2 1.2-3.6 1.5-1.4.35-3 .52-4.9.52h-11v-31zm28 0h8.3v39h-8.3v-3.1h4.5v-33h-4.5v-3.1zm-79 2.9c-2.9 0-5.3.99-7.4 3-2.1 2-3.1 5.2-3.1 9.8 0 3.7.98 6.6 3 8.7 2 2.1 4.5 3.2 7.5 3.2 3 0 5.5-1.1 7.5-3.2 2-2.1 3-5.2 3-9.1 0-2.5-.42-4.7-1.3-6.5-.83-1.9-2.1-3.3-3.7-4.3-1.6-1-3.4-1.5-5.4-1.5zm24 .44v10h8.7c1.8 0 3.3-.19 4.3-.56 1-.39 1.8-1 2.4-1.8.54-.85.81-1.8.81-2.8 0-1.4-.53-2.6-1.6-3.6-1-.93-2.7-1.4-5-1.4h-9.7zm31 .23v23h6.5c2 0 3.6-.19 4.7-.56 1.2-.38 2.1-.9 2.8-1.6.96-.96 1.7-2.2 2.2-3.9.54-1.6.81-3.6.81-5.9 0-3.2-.53-5.6-1.6-7.4-1-1.7-2.3-2.9-3.8-3.5-1.1-.42-2.8-.62-5.2-.62h-6.4z" stop-color="#000000"/><path d="m270 110v60h60v-60zm20 19h3.3l9.4 23h-3.5l-2.7-6.9h-9.6l-2.5 6.9h-3.2zm26 0h3v23h-3zm-25 2.4c-.29 1.5-.7 2.9-1.2 4.4l-2.5 6.7h7.8l-2.4-6.3c-.73-1.9-1.3-3.5-1.6-4.8zm12 11h8.6v2.8h-8.6zm-33 38v60h60v-60zm43 18c1.7 0 3.2.28 4.5.83 1.3.54 2.3 1.3 3 2.4.7 1.1 1.1 2.3 1.1 3.6l-2.9.22c-.16-1.4-.69-2.5-1.6-3.3-.9-.74-2.2-1.1-4-1.1-1.8 0-3.2.34-4 1-.83.67-1.2 1.5-1.2 2.4 0 .82.3 1.5.89 2 .58.53 2.1 1.1 4.6 1.6 2.5.55 4.2 1 5.1 1.5 1.3.61 2.3 1.4 3 2.3.64.94.95 2 .95 3.2 0 1.2-.35 2.4-1 3.5-.7 1.1-1.7 1.9-3 2.5-1.3.59-2.8.89-4.4.89-2.1 0-3.8-.3-5.2-.91-1.4-.6-2.5-1.5-3.3-2.7-.79-1.2-1.2-2.6-1.2-4.1l2.9-.25c.14 1.1.45 2.1.94 2.8.5.73 1.3 1.3 2.3 1.8 1 .45 2.2.67 3.5.67 1.2 0 2.2-.17 3.1-.52.89-.34 1.5-.81 2-1.4.44-.6.66-1.3.66-2 0-.72-.21-1.3-.62-1.9-.42-.54-1.1-.99-2.1-1.4-.61-.24-2-.61-4.1-1.1-2.1-.51-3.6-.99-4.4-1.4-1.1-.57-1.9-1.3-2.5-2.1-.53-.85-.8-1.8-.8-2.9 0-1.2.33-2.2.98-3.2.66-1 1.6-1.8 2.9-2.3 1.3-.52 2.7-.78 4.2-.78zm-27 .39h3v16c0 1.9-.23 3.4-.7 4.5-.46 1.1-1.2 1.9-2.2 2.4-1 .55-2.2.83-3.5.83-2 0-3.6-.58-4.6-1.7-1.1-1.2-1.6-2.9-1.5-5.2l2.7-.38c.073 1.8.4 2.9.98 3.6.58.65 1.4.97 2.4.97.76 0 1.4-.17 2-.52.55-.35.93-.83 1.1-1.4.21-.6.31-1.6.31-2.9zm6.5 13h8.6v2.8h-8.6zm-23 38v60h60v-60zm6.8 19h18v2.7h-7.6v20h-3v-20h-7.5zm30 0h16v2.7l-13 16-1.4 1.6h15v2.7h-18v-2.8l12-15c.83-1 1.6-1.9 2.4-2.7h-13zm-12 13h8.6v2.8h-8.6z" stop-color="#000000"/></g></svg>
