<svg xmlns="http://www.w3.org/2000/svg" fill="none" viewBox="0 0 348 348"><path fill="#999" stroke="#999" stroke-width=".91" d="M40.05 33.65h223.37v4.66H40.05z"/><path stroke="#000" stroke-width="2" d="M5.08 5.78h336.91v337.67H5.08z"/><path stroke="#000" stroke-width="2" d="M282.73 40.55c0-8.37 6.97-15.16 15.56-15.16 4.13 0 8.09 1.6 11 4.44a14.97 14.97 0 0 1 4.56 10.72c0 8.38-6.96 15.17-15.56 15.17-8.59 0-15.56-6.8-15.56-15.17z"/><path fill="silver" stroke="#000" d="M5.08 5.78v337.67z" opacity=".51"/><path fill="#000" d="M43.6 322.03h-2.57v-9.5h-9.68v9.5h-2.58v-19.39h2.58v7.6h9.68v-7.6h2.57z" aria-label="H"/><path stroke="#000" stroke-width="2.25" d="M17.2 293.35h37.97v37.97H17.2z"/><path fill="#000" d="m90.66 302.64-6.69 9.59 6.68 9.8h-2.98l-5.29-7.98-5.42 7.98h-2.8l6.75-9.69-6.6-9.7h2.97l5.22 7.88 5.34-7.88z" aria-label="X"/><path stroke="#000" stroke-width="2.25" d="M63.42 293.35h37.97v37.97H63.42z"/><path fill="#000" d="M136.84 304.93h-6.92v17.1h-2.58v-17.1h-6.93v-2.29h16.43z" aria-label="T"/><path stroke="#000" stroke-width="2.25" d="M109.64 293.35h37.97v37.97h-37.97z"/><path fill="#000" d="M182.24 322.03h-3.19l-9.2-17.34v17.34h-2.4v-19.39h4l8.38 15.84v-15.84h2.41z" aria-label="N"/><path stroke="#000" stroke-width="2.25" d="M155.86 293.35h37.97v37.97h-37.97z"/><path fill="#000" d="M227.62 304.87q1.18 1.3 1.81 3.19.64 1.89.64 4.28 0 2.4-.65 4.3-.64 1.89-1.8 3.15-1.2 1.32-2.84 1.98-1.63.66-3.72.66-2.05 0-3.73-.67-1.66-.68-2.84-1.97t-1.8-3.16q-.63-1.88-.63-4.29 0-2.37.62-4.24.63-1.89 1.83-3.23 1.14-1.28 2.84-1.95 1.7-.68 3.7-.68 2.09 0 3.74.69 1.67.68 2.83 1.94zm-.23 7.47q0-3.77-1.7-5.82-1.69-2.05-4.62-2.05-2.96 0-4.65 2.05-1.68 2.05-1.68 5.82 0 3.82 1.72 5.85 1.72 2.02 4.61 2.02 2.89 0 4.6-2.02 1.72-2.03 1.72-5.85z" aria-label="O"/><path stroke="#000" stroke-width="2.25" d="M202.08 293.35h37.97v37.97h-37.97z"/><path fill="#000" d="m275.32 320.62-1.3.59q-.57.27-1.51.57-.8.25-1.73.42-.93.18-2.05.18-2.1 0-3.84-.58-1.72-.6-3-1.87-1.24-1.23-1.95-3.13-.7-1.92-.7-4.44 0-2.4.68-4.29t1.95-3.19q1.24-1.26 2.98-1.92 1.76-.67 3.9-.67 1.56 0 3.1.38 1.57.38 3.47 1.33v3.06h-.2q-1.6-1.34-3.17-1.96-1.57-.6-3.37-.6-1.47 0-2.66.47-1.17.47-2.1 1.47-.9.98-1.4 2.48-.5 1.48-.5 3.44 0 2.04.55 3.51.56 1.47 1.43 2.4.92.96 2.13 1.43 1.22.46 2.57.46 1.87 0 3.5-.64 1.62-.64 3.04-1.92h.18z" aria-label="C"/><path stroke="#000" stroke-width="2.25" d="M248.3 293.35h37.97v37.97H248.3z"/><path fill="#000" d="M44.96 275.81h-2.74l-1.9-5.4h-8.39l-1.9 5.4h-2.62l7.06-19.39h3.44zm-5.44-7.61-3.4-9.52-3.4 9.51z" aria-label="A"/><path stroke="#000" stroke-width="2.25" d="M17.2 247.13h37.97v37.97H17.2z"/><path fill="#000" d="m91.18 256.42-7.05 19.4h-3.44l-7.06-19.4h2.76l6.08 17.06 6.08-17.06z" aria-label="V"/><path stroke="#000" stroke-width="2.25" d="M63.42 247.13h37.97v37.97H63.42z"/><path fill="#000" d="M136.65 275.81h-3.35l-6.48-7.7h-3.64v7.7h-2.57v-19.39h5.43q1.75 0 2.93.24 1.17.22 2.1.8 1.06.67 1.64 1.69.6 1 .6 2.55 0 2.1-1.05 3.51-1.06 1.4-2.9 2.13zm-6.03-13.93q0-.83-.3-1.47-.29-.65-.97-1.1-.56-.37-1.32-.52-.77-.15-1.81-.15h-3.04v7.32h2.6q1.23 0 2.14-.21.91-.22 1.55-.81.59-.55.86-1.25.29-.72.29-1.81z" aria-label="R"/><path stroke="#000" stroke-width="2.25" d="M109.64 247.13h37.97v37.97h-37.97z"/><path fill="#000" d="M182.32 270.28q0 1.13-.54 2.24-.52 1.1-1.47 1.87-1.04.84-2.43 1.3-1.38.47-3.34.47-2.1 0-3.77-.39t-3.4-1.16v-3.23h.18q1.47 1.23 3.4 1.9 1.93.66 3.62.66 2.4 0 3.72-.9 1.35-.9 1.35-2.4 0-1.29-.64-1.9-.63-.61-1.92-.95-.97-.26-2.12-.43-1.13-.17-2.4-.43-2.59-.54-3.84-1.86-1.23-1.33-1.23-3.45 0-2.44 2.05-3.98 2.06-1.57 5.23-1.57 2.04 0 3.75.4 1.7.38 3.02.96v3.04h-.19q-1.1-.93-2.91-1.55-1.8-.62-3.69-.62-2.07 0-3.33.86-1.25.86-1.25 2.21 0 1.21.63 1.9t2.2 1.06q.83.18 2.36.44 1.54.26 2.61.53 2.16.58 3.25 1.74 1.1 1.16 1.1 3.24z" aria-label="S"/><path stroke="#000" stroke-width="2.25" d="M155.86 247.13h37.97v37.97h-37.97z"/><path fill="#000" d="M228.82 275.81h-3.34l-7.67-8.63-1.93 2.06v6.57h-2.58v-19.39h2.58v10.12l9.42-10.12h3.12l-8.66 9.12z" aria-label="K"/><path stroke="#000" stroke-width="2.25" d="M202.08 247.13h37.97v37.97h-37.97z"/><path fill="#000" d="M42.58 229.6H29.8v-19.4h12.77v2.3H32.39v5.3h10.2v2.3h-10.2v7.2h10.2z" aria-label="E"/><path stroke="#000" stroke-width="2.25" d="M17.2 200.91h37.97v37.97H17.2z"/><path fill="#000" d="M89.97 229.6H74.84v-2.4l11.89-14.7H75.28v-2.3h14.4v2.34l-12 14.76h12.3z" aria-label="Z"/><path stroke="#000" stroke-width="2.25" d="M63.42 200.91h37.97v37.97H63.42z"/><path fill="#000" d="M134.82 212.5h-9.8v5.47h8.42v2.29H125v9.33h-2.58v-19.38h12.39z" aria-label="F"/><path stroke="#000" stroke-width="2.25" d="M109.64 200.91h37.97v37.97h-37.97z"/><path fill="#000" d="M183.48 229.6h-2.58v-16.71l-5.39 11.37h-1.54l-5.35-11.37v16.7h-2.4V210.2h3.5l5.18 10.8 5-10.8h3.58z" aria-label="M"/><path stroke="#000" stroke-width="2.25" d="M155.86 200.91h37.97v37.97h-37.97z"/><path fill="#000" d="M229.25 219.92q0 2.64-1.16 4.79-1.14 2.15-3.06 3.33-1.32.82-2.96 1.19-1.63.36-4.3.36h-4.9v-19.38h4.85q2.84 0 4.5.41 1.68.4 2.84 1.12 1.98 1.24 3.09 3.3 1.1 2.05 1.1 4.88zm-2.7-.04q0-2.28-.79-3.84t-2.37-2.46q-1.14-.65-2.43-.9-1.29-.26-3.09-.26h-2.42v14.96h2.42q1.86 0 3.24-.27 1.4-.28 2.56-1.02 1.44-.92 2.16-2.43.73-1.51.73-3.78z" aria-label="D"/><path stroke="#000" stroke-width="2.25" d="M202.08 200.91h37.97v37.97h-37.97z"/><path fill="#000" d="M44.83 181.93q-1.6.73-3.48 1.27-1.87.54-3.63.54-2.27 0-4.15-.63-1.9-.62-3.22-1.87-1.34-1.26-2.07-3.15-.73-1.9-.73-4.44 0-4.65 2.7-7.33 2.73-2.7 7.47-2.7 1.65 0 3.37.4 1.73.4 3.72 1.35v3.06h-.23q-.4-.32-1.17-.82-.77-.51-1.51-.85-.9-.4-2.05-.66-1.13-.28-2.57-.28-3.26 0-5.16 2.1-1.89 2.08-1.89 5.65 0 3.76 1.98 5.86 1.98 2.08 5.4 2.08 1.24 0 2.48-.24 1.25-.25 2.19-.64v-4.76h-5.2v-2.26h7.75z" aria-label="G"/><path stroke="#000" stroke-width="2.25" d="M17.2 154.7h37.97v37.97H17.2z"/><path fill="#000" d="M86.98 178.2q0 2.55-1.57 3.93-1.54 1.38-4.16 1.38-.63 0-1.67-.12-1.04-.1-1.74-.26v-2.4h.14q.53.18 1.31.37.79.2 1.6.2 1.2 0 1.9-.28.72-.27 1.06-.78.35-.52.45-1.27.1-.76.1-1.75v-11.31h-4.1v-2.06h6.68z" aria-label="J"/><path stroke="#000" stroke-width="2.25" d="M63.42 154.7h37.97v37.97H63.42z"/><path fill="#000" d="M134.76 183.37h-12.27V164h2.58v17.1h9.69z" aria-label="L"/><path stroke="#000" stroke-width="2.25" d="M109.64 154.7h37.97v37.97h-37.97z"/><path fill="#000" d="m182.97 163.99-6.82 10.88v8.5h-2.58v-8.23L166.72 164h2.85l5.3 8.67 5.35-8.67z" aria-label="Y"/><path stroke="#000" stroke-width="2.25" d="M155.86 154.7h37.97v37.97h-37.97z"/><path fill="#000" d="M233.05 163.99 228 183.37h-2.9l-4.08-16.09-3.98 16.1h-2.84l-5.13-19.4h2.64l4.08 16.13 4-16.12h2.62l4.05 16.27 4.05-16.27z" aria-label="W"/><path stroke="#000" stroke-width="2.25" d="M202.08 154.7h37.97v37.97h-37.97z"/><path fill="#000" d="M40.02 137.16h-7.66v-1.98h2.54v-15.43h-2.54v-1.98h7.66v1.98h-2.54v15.43h2.54z" aria-label="I"/><path fill="#000" d="M89.72 131.2q0 1.44-.55 2.54-.54 1.11-1.47 1.83-1.1.86-2.4 1.22-1.31.37-3.33.37H75.1v-19.4h5.74q2.12 0 3.18.16 1.05.16 2.01.65 1.07.56 1.55 1.45.49.87.49 2.1 0 1.38-.7 2.35-.71.97-1.88 1.55v.1q1.96.41 3.1 1.74 1.13 1.31 1.13 3.33zm-4.34-8.74q0-.7-.23-1.19-.24-.48-.76-.78-.6-.35-1.48-.43-.87-.1-2.16-.1h-3.08v5.6h3.34q1.2 0 1.92-.11.72-.13 1.33-.52.62-.4.86-1 .26-.63.26-1.48zm1.66 8.84q0-1.18-.36-1.87-.35-.69-1.27-1.17-.63-.32-1.52-.41-.89-.1-2.17-.1h-4.05v7.2h3.42q1.69 0 2.77-.16 1.08-.19 1.77-.65.73-.51 1.07-1.16.34-.65.34-1.68z" aria-label="B"/><path fill="#000" d="M134.97 123.63q0 1.29-.46 2.4-.44 1.09-1.25 1.9-1 1-2.37 1.5t-3.45.5h-2.58v7.23h-2.57v-19.4h5.26q1.74 0 2.95.3 1.21.3 2.15.92 1.1.74 1.7 1.85.62 1.1.62 2.8zm-2.68.06q0-1-.36-1.74-.35-.75-1.06-1.21-.63-.4-1.44-.58-.8-.18-2.01-.18h-2.56v7.75h2.18q1.56 0 2.54-.28.97-.28 1.59-.9.6-.62.86-1.3.26-.7.26-1.56z" aria-label="P"/><path fill="#000" d="M184.04 139.55q-.78.2-1.55.27-.75.1-1.55.1-2.26 0-3.64-1.25-1.37-1.24-1.49-3.56-.3.05-.6.07l-.57.02q-2.04 0-3.72-.67-1.67-.68-2.84-1.97t-1.81-3.17q-.63-1.87-.63-4.28 0-2.37.63-4.24.62-1.9 1.82-3.23 1.15-1.28 2.84-1.96 1.7-.67 3.71-.67 2.09 0 3.74.69 1.67.67 2.83 1.94 1.18 1.3 1.8 3.19.64 1.89.64 4.28 0 3.56-1.46 6-1.44 2.43-3.89 3.4.05 1.49.7 2.3.65.83 2.37.83.54 0 1.27-.17.74-.16 1.05-.29h.35zm-3.07-14.44q0-3.78-1.7-5.82-1.69-2.06-4.61-2.06-2.96 0-4.65 2.06-1.68 2.05-1.68 5.82 0 3.82 1.72 5.85 1.71 2.02 4.6 2.02 2.9 0 4.6-2.02 1.72-2.03 1.72-5.85z" aria-label="Q"/><path fill="#000" d="M228.5 129.17q0 2.1-.46 3.68-.46 1.57-1.51 2.6-1 1-2.35 1.45-1.34.46-3.12.46-1.83 0-3.18-.48-1.35-.49-2.28-1.42-1.05-1.07-1.52-2.58-.46-1.51-.46-3.71v-11.6h2.58v11.73q0 1.57.2 2.49.23.9.74 1.65.57.85 1.55 1.27.99.43 2.37.43 1.39 0 2.37-.41.97-.43 1.56-1.3.5-.73.72-1.68.22-.97.22-2.39v-11.8h2.58z" aria-label="U"/><path stroke="#000" stroke-width="2.25" d="M248.3 200.91v84.2h37.97v-84.2zM17.2 108.48h37.97v37.97H17.2zm46.22 0h37.97v37.97H63.42zm46.22 0h37.97v37.97h-37.97zm46.22 0h37.97v37.97h-37.97zm46.22 0h37.97v37.97h-37.97zm46.22 0v84.19h37.97v-84.2z"/><path fill="#000" stroke="#000" stroke-width="2.93" d="M41.06 49.78H262.4v48.86H41.06z"/><path fill="#fff" d="M72.47 88.4h-18.7V60.02h18.7v3.35H57.54v7.78h14.93v3.36H57.54v10.54h14.93zm27.66-28.38-9.8 14.03 9.78 14.35h-4.37L88 76.72 80.07 88.4h-4.11l9.89-14.18-9.67-14.2h4.35l7.65 11.53 7.81-11.53zm23.68 8.58q0 1.88-.67 3.5-.65 1.6-1.83 2.79-1.47 1.46-3.47 2.2-2 .73-5.05.73H109V88.4h-3.77V60.02h7.7q2.55 0 4.33.44 1.77.42 3.14 1.33 1.62 1.09 2.5 2.7.9 1.63.9 4.1zm-3.93.1q0-1.48-.52-2.56-.51-1.09-1.56-1.78-.91-.59-2.1-.83-1.16-.27-2.95-.27H109V74.6h3.19q2.28 0 3.71-.4 1.43-.42 2.33-1.32.9-.91 1.26-1.92.38-1.01.38-2.27zm26.88 19.7H128.8V60.02h3.77v25.03h14.19zm24.55-25.12q1.74 1.9 2.65 4.67.94 2.76.94 6.27 0 3.5-.96 6.3-.93 2.75-2.63 4.6-1.75 1.93-4.15 2.9-2.39.97-5.46.97-2.99 0-5.45-.99-2.44-.99-4.15-2.88-1.72-1.88-2.65-4.63-.92-2.74-.92-6.27 0-3.47.92-6.22.91-2.76 2.66-4.72 1.68-1.87 4.16-2.86 2.5-1 5.43-1 3.05 0 5.47 1.02 2.45.99 4.14 2.84zm-.34 10.94q0-5.53-2.48-8.52-2.48-3.01-6.77-3.01-4.32 0-6.8 3-2.46 3-2.46 8.53 0 5.59 2.51 8.56 2.52 2.95 6.75 2.95 4.24 0 6.73-2.95 2.52-2.97 2.52-8.56zm33.9.02q0 3.87-1.7 7.01-1.68 3.15-4.48 4.88-1.95 1.2-4.35 1.74-2.38.53-6.29.53h-7.17V60.02h7.1q4.15 0 6.6.6 2.45.6 4.15 1.65 2.9 1.8 4.52 4.82 1.62 3.01 1.62 7.15zm-3.95-.06q0-3.33-1.16-5.62t-3.47-3.6q-1.68-.96-3.57-1.32-1.89-.38-4.52-.38h-3.54v21.9h3.54q2.73 0 4.75-.4 2.04-.4 3.74-1.48 2.11-1.36 3.16-3.57 1.07-2.21 1.07-5.53zM229.7 88.4H211V60.02h18.7v3.35h-14.93v7.78h14.93v3.36h-14.93v10.54h14.93z"/><path fill="#fff" stroke="#000" stroke-width="2" d="M47.9 25.81h9.9v6.78h-9.9zm-7.3 6.78h24.5v6.77H40.6z"/><circle cx="45.46" cy="40.23" r="2.87" fill="#fff" stroke="#000" stroke-width="2"/><circle cx="60.23" cy="40.23" r="2.87" fill="#fff" stroke="#000" stroke-width="2"/></svg>