<svg xmlns="http://www.w3.org/2000/svg" viewBox="0 0 135.467 135.467" height="512" width="512"><defs><path id="a" d="M53.673 7.182h30.238v19.277H53.673z"/></defs><path d="M.733.733h134v134h-134z" fill="#fff" stroke="#000" stroke-width="1.467"/><path d="M.747.747H134.72V33.12H.747z" fill="#fff" stroke="#000" stroke-width="1.493"/><path d="M42.333.756h50.65v32.128h-50.65z" fill="#fff" stroke="#000" stroke-width="1.5"/><g aria-label="0" style="line-height:1.25;text-align:center;white-space:pre;shape-inside:url(#a)" font-weight="400" font-size="16.933" font-family="sans-serif" text-anchor="middle"><path d="M66.175 16.47q0 3.316-1.042 4.87-1.033 1.547-3.216 1.547-2.216 0-3.241-1.571-1.017-1.571-1.017-4.829 0-3.282 1.033-4.845 1.034-1.571 3.225-1.571 2.216 0 3.233 1.596 1.025 1.587 1.025 4.804zM64 20.225q.29-.67.389-1.57.107-.91.107-2.183 0-1.257-.107-2.183-.1-.926-.397-1.571-.29-.637-.794-.96-.496-.322-1.281-.322-.778 0-1.29.323-.505.322-.802.975-.281.612-.389 1.596-.099.984-.099 2.158 0 1.29.091 2.158.09.868.389 1.555.272.644.769.983.504.34 1.33.34.778 0 1.29-.323.513-.322.794-.976zM76.957 16.47q0 3.316-1.042 4.87-1.034 1.547-3.217 1.547-2.215 0-3.24-1.571-1.018-1.571-1.018-4.829 0-3.282 1.034-4.845 1.033-1.571 3.224-1.571 2.216 0 3.233 1.596 1.026 1.587 1.026 4.804zm-2.175 3.754q.29-.67.389-1.57.107-.91.107-2.183 0-1.257-.107-2.183-.1-.926-.397-1.571-.29-.637-.794-.96-.496-.322-1.282-.322-.777 0-1.29.323-.504.322-.801.975-.282.612-.389 1.596-.1.984-.1 2.158 0 1.29.092 2.158.09.868.388 1.555.273.644.77.983.504.34 1.33.34.778 0 1.29-.323.513-.322.794-.976z" style="text-align:center"/></g><path d="M.747 33.12L13.229 1.512M10.196 33.12L22.679 1.512M29.85 32.364L42.334.756M18.89 32.364L31.371.756M93.146 33.098L105.63 1.489M102.596 33.098l12.482-31.609M122.25 32.342L134.734.733M111.29 32.342L123.771.733" fill="none" stroke="#000" stroke-width="1.323"/><path d="M8.062 53.57h119.343v22.506H8.062zM8.062 86.643h119.343v22.506H8.062z" fill="#fff" stroke="#000" stroke-width="1.307"/></svg>