<svg xmlns="http://www.w3.org/2000/svg" fill="none" viewBox="0 0 348 348"><path fill="#000" d="M164.3 49v-5h-2.2v3.6h-2V41h1v1.7h1.7v-4.9h-1.7v1.7h-1v-6.2h2v3.2h2.2v-4.8H156v1.6h.8v14.3h-.8V49zm10.2 0v-1.3h-.7l-2.6-5.9 2.3-3.9h.5v-1.4h-2.7V38h.5l-1.2 2.3-1-2.3h.8v-1.4h-5V38h.8l2.3 5.6-2.3 4.2h-.8V49h3v-1.4h-.7l1.5-2.5 1 2.5h-.6V49zm9.7-6.4q0-3.1-.8-4.7-.9-1.6-2.5-1.6-.6 0-1 .2l-.7.8-.1-.8h-3.7V38h.8v13.6h-.8V53h4.7v-1.4h-.8v-3q.6.5 1 .6.4.2.9.2.7 0 1.2-.4.6-.5 1-1.4.4-.9.6-2 .2-1.3.2-2.9zm-3-.4V45q0 1-.2 1.6l-.3.9q-.2.2-.5.2t-.5-.2q-.2-.2-.3-.7l-.1-1.5v-5q0-1 .2-1.4 0-.5.2-.7.2-.2.5-.2t.5.3q.2.2.3.7l.2 1.3v2zm12.2 3-1.3-.2q-.3 1.3-.7 2-.5.6-1.3.6t-1.2-.7q-.3-.7-.3-2.4v-1.4h4.7v-.7q0-3-1-4.6-1-1.6-3-1.6-1.8 0-2.9 1.7-1 1.6-1 4.8 0 3 1.1 4.8 1.1 1.8 3 1.8 1.6 0 2.7-1.1t1.2-3zm-3-3.3h-1.8v-2q0-1.2.3-1.8.2-.6.7-.6.8 0 .8 2zm11.8-3.4q0-1-.5-1.6-.6-.6-1.4-.6-1 0-1.8 1l-.1-.8h-3.8V38h.8v9.8h-.8V49h4.8v-1.4h-1v-7.2l.1-1q0-.4.2-.7 0-.3.3-.6l.5-.6-.3.8v.6q0 .8.3 1.2.4.4 1 .4.8 0 1.2-.6.5-.6.5-1.5zm6 9.2-.5-1q-.3.4-.5.4-.4 0-.4-.7V38h1.2v-1.4h-1.2v-3h-3.1v3h-1V38h1v7.8q0 1.8.5 2.6.6.9 1.8.9 1.4 0 2.2-1.5zm8-1.9q0-.9-.3-1.6l-.9-1.3-1-1.1-1.1-1-.9-1q-.3-.5-.3-1t.3-.8q.3-.4.6-.4 1.2 0 1.2 2.4v.3h1.9v-3.8h-1.3l-.3.4q-.5-.4-1-.5l-.8-.1q-.7 0-1.2.2-.6.3-1 .8l-.7 1.1q-.2.7-.2 1.5 0 .9.3 1.6l.8 1.3 1 1.1q.7.5 1.1 1l.8 1q.4.4.4.9 0 1-1 1h-.6q-.3-.2-.4-.5l-.3-.9V45h-1.8v4h1.4l.1-.4 1 .6 1 .1q.7 0 1.3-.2l1-.8.6-1q.3-.7.3-1.5z" aria-label="Experts" style="text-decoration-thickness:initial"/><path stroke="#000" stroke-width="2" d="M5 5.8h337v337.7H5Z"/><path stroke="#000" stroke-width="2" d="M314.2 40.5a15.9 15.5 0 0 1-16 15.6 15.9 15.5 0 0 1-15.8-15.6A15.9 15.5 0 0 1 298.3 25a15.9 15.5 0 0 1 15.9 15.5"/><path stroke="#000" stroke-linecap="round" stroke-linejoin="round" stroke-width="2" d="M138.1 236.3s5.6-2.9 7.6-5.2a20 20 0 0 0 2.3-5.3l23.3 2.6 2.3-2.6 2.3 2.6 23.3-2.6s1.1 3.8 2.3 5.3c2 2.3 7.6 5.2 7.6 5.2v72.5s-15.6 2.8-22.7 6.1c-4.7 2.2-12.8 8.7-12.8 8.7s-8.1-6.5-12.8-8.7c-7.1-3.3-22.7-6.1-22.7-6.1zm-101 0s5.6-2.9 7.6-5.2a20 20 0 0 0 2.3-5.3l23.3 2.6 2.3-2.6 2.3 2.6 23.3-2.6s1.1 3.8 2.3 5.3c2 2.3 7.6 5.2 7.6 5.2v72.5s-15.6 2.8-22.7 6.1c-4.7 2.2-12.8 8.7-12.8 8.7s-8-6.5-12.8-8.7c-7.1-3.3-22.7-6.1-22.7-6.1zm202.4 0s5.6-2.9 7.6-5.2a20 20 0 0 0 2.3-5.3l23.3 2.6 2.3-2.6 2.3 2.6 23.3-2.6s1.1 3.8 2.3 5.3c2 2.3 7.6 5.2 7.6 5.2v72.5s-15.6 2.8-22.7 6.1c-4.7 2.2-12.8 8.7-12.8 8.7s-8.1-6.5-12.8-8.7c-7.1-3.3-22.7-6.1-22.7-6.1zM138.1 114.9s5.6-2.9 7.6-5.2a20 20 0 0 0 2.3-5.3l23.3 2.6 2.3-2.6 2.3 2.6 23.3-2.6s1.1 3.8 2.3 5.3c2 2.3 7.6 5.2 7.6 5.2v72.5s-15.6 2.8-22.7 6.1c-4.7 2.2-12.8 8.7-12.8 8.7s-8.1-6.5-12.8-8.7c-7.1-3.3-22.7-6.1-22.7-6.1zm-101 0s5.6-2.9 7.6-5.2a20 20 0 0 0 2.3-5.3l23.3 2.6 2.3-2.6L75 107l23.3-2.6s1.1 3.8 2.3 5.3c2 2.3 7.6 5.2 7.6 5.2v72.5s-15.6 2.8-22.7 6.1c-4.7 2.2-12.8 8.7-12.8 8.7s-8-6.5-12.8-8.7c-7.1-3.3-22.7-6.1-22.7-6.1zm202.4 0s5.6-2.9 7.6-5.2a20 20 0 0 0 2.3-5.3l23.3 2.6 2.3-2.6 2.3 2.6 23.3-2.6s1.1 3.8 2.3 5.3c2 2.3 7.6 5.2 7.6 5.2v72.5s-15.6 2.8-22.7 6.1c-4.7 2.2-12.8 8.7-12.8 8.7s-8.1-6.5-12.8-8.7c-7.1-3.3-22.7-6.1-22.7-6.1z"/><path stroke="#000" stroke-width="2" d="M16.2 16H116v49H16.2Z"/><path stroke="#000" stroke-width="2" d="M21.2 21H111v39H21.2Z"/><path stroke="#000" stroke-linecap="round" stroke-linejoin="round" stroke-width="2" d="m16.2 16 5 5m94.8-5-5 5m0 39.1 5 5m-94.8-5-5 5"/><path stroke="#000" stroke-width="2" d="M136.2 16H236v49h-99.8Z"/><path stroke="#000" stroke-width="2" d="M141.2 21H231v39h-89.8Z"/><path stroke="#000" stroke-linecap="round" stroke-linejoin="round" stroke-width="2" d="m136.2 16 5 5m94.8-5-5 5m0 39.1 5 5m-94.8-5-5 5"/><path fill="#000" d="M48.2 49v-1.4h-.8V33.3h.8v-1.6h-5l-1.3 8.4-1.1-8.4h-5.2v1.6h.9v14.3h-.9V49h3.2v-1.5H38v-11L39.8 49H42l2-12.4v10.9h-.8V49zm5.4-15.2q0-.8-.6-1.4-.5-.6-1.3-.6l-.8.2-.6.4q-.3.3-.4.7-.2.3-.2.7l.2.8q.1.4.4.6.2.3.6.4l.8.2q.8 0 1.3-.6.6-.6.6-1.4zm.5 15.3v-1.4h-.7V36.5h-4V38h.8v9.8h-.7V49zm8.4-3.3q0-.9-.4-1.6-.3-.7-.8-1.3l-1.1-1.1-1-1-1-1-.2-1q0-.5.2-.8.3-.4.7-.4 1.1 0 1.1 2.4v.3h2v-3.8h-1.4l-.2.4-1-.5-.9-.1-1.2.2-1 .8q-.4.5-.6 1.1-.2.7-.2 1.5 0 .9.3 1.6.3.7.8 1.3l1 1.1 1.1 1 .8 1q.3.4.3.9 0 1-1 1h-.6l-.4-.5-.2-.9V45h-1.8v4H57l.2-.4 1 .6 1 .1q.7 0 1.2-.2.6-.3 1-.8.5-.5.7-1 .3-.7.3-1.5zm8.3 0q0-.9-.4-1.6-.3-.7-.8-1.3l-1-1.1-1.2-1-.8-1q-.3-.5-.3-1t.3-.8q.2-.4.6-.4 1.2 0 1.2 2.4v.3h1.8v-3.8H69l-.2.4-1-.5-.8-.1q-.7 0-1.3.2t-1 .8l-.6 1.1q-.2.7-.2 1.5 0 .9.3 1.6.3.7.8 1.3l1 1.1 1.1 1 .8 1q.3.4.3.9 0 1-1 1h-.6l-.4-.5-.2-.9V45h-2v4h1.3l.2-.4 1 .6 1 .1q.7 0 1.2-.2.6-.3 1-.8.5-.5.7-1 .3-.7.3-1.5zm5.1-12q0-.8-.5-1.4-.6-.6-1.4-.6l-.8.2-.6.4q-.3.3-.4.7-.2.3-.2.7l.2.8q.1.4.4.6l.6.4.8.2q.8 0 1.4-.6.5-.6.5-1.4zm.6 15.3v-1.4h-.8V36.5h-4V38h.9v9.8h-.8V49zm9.5-6.3q0-3.3-1-4.9-1-1.6-3.2-1.6-2 0-3.2 1.6-1 1.7-1 4.9t1 4.9q1.1 1.6 3.2 1.6t3.2-1.6q1-1.7 1-5zM82.8 46l-.1 1q0 .4-.2.6 0 .2-.3.3l-.4.1q-.5 0-.7-.4-.2-.4-.2-1.6v-6.8q0-1 .2-1.4.2-.4.7-.4.5 0 .7.4.3.4.3 1.6zm13.8 3v-1.4h-.8v-8q0-1.2-.3-1.9-.2-.7-.6-1-.4-.4-.8-.4l-.8-.1q-.6 0-1 .2l-1.2.8v-.8h-3.9V38h.8v9.8h-.8V49H92v-1.4h-.8v-7.3q0-1.2.2-1.7.2-.4.8-.4.4 0 .5.3V49z" aria-label="Mission" style="text-decoration-thickness:initial"/><circle cx="255.8" cy="56.7" r="2.5" fill="#222326" fill-rule="evenodd" paint-order="markers fill stroke" style="font-variation-settings:normal"/></svg>