<svg xmlns="http://www.w3.org/2000/svg" viewBox="0 0 348 348" fill="none" stroke-linecap="square" stroke-miterlimit="10"><path d="M0 0h348v348H0Z"/><path d="M-6 0h348v347.969H-6Z" style="fill:#fff"/><path d="M5.079 5.776h336.913v337.67H5.08Z"/><path d="M5.079 5.776h336.913v337.67H5.08Z" style="stroke:#000;stroke-width:2;stroke-linecap:butt;stroke-linejoin:round"/><path d="M282.734 40.554c0-8.376 6.966-15.165 15.56-15.165 4.126 0 8.084 1.597 11.001 4.441 2.918 2.844 4.558 6.702 4.558 10.724 0 8.376-6.966 15.165-15.56 15.165-8.593 0-15.559-6.79-15.559-15.165z" style="fill:#fff"/><path d="M282.734 40.554c0-8.376 6.966-15.165 15.56-15.165 4.126 0 8.084 1.597 11.001 4.441 2.918 2.844 4.558 6.702 4.558 10.724 0 8.376-6.966 15.165-15.56 15.165-8.593 0-15.559-6.79-15.559-15.165z" style="stroke:#000;stroke-width:2;stroke-linecap:butt;stroke-linejoin:round"/><path d="M38.37 95.737h107.213v100.189H38.37Z"/><path d="M38.37 95.737h107.213v100.189H38.37Z" style="stroke:#000;stroke-linecap:butt;stroke-linejoin:round;fill:gray"/><path d="M152.48 95.737h107.213v100.189H152.48Z"/><path d="M152.48 95.737h107.213v100.189H152.48Z" style="stroke:#000;stroke-linecap:butt;stroke-linejoin:round;fill:gray"/><path d="M38.37 206.52h107.213v100.19H38.37Z"/><path d="M38.37 206.52h107.213v100.19H38.37Z" style="stroke:#000;stroke-linecap:butt;stroke-linejoin:round;fill:gray"/><path d="M152.48 206.52h107.213v100.19H152.48Z"/><path d="M152.48 206.52h107.213v100.19H152.48Z" style="stroke:#000;stroke-linecap:butt;stroke-linejoin:round;fill:gray"/><g style="line-height:1.25;-inkscape-font-specification:Arial"><path d="M72.769 168.102V122.29h15.78q5.345 0 8.157.656 3.937.906 6.719 3.281 3.625 3.063 5.406 7.844 1.813 4.75 1.813 10.875 0 5.219-1.22 9.25-1.218 4.031-3.124 6.687-1.906 2.625-4.188 4.157-2.25 1.5-5.468 2.28-3.188.782-7.344.782zm6.062-5.406h9.781q4.532 0 7.094-.844 2.594-.844 4.125-2.375 2.156-2.156 3.344-5.781 1.219-3.656 1.219-8.844 0-7.187-2.376-11.031-2.343-3.875-5.718-5.188-2.438-.937-7.844-.937h-9.625z" aria-label="D" font-weight="400" font-size="64" letter-spacing="0" word-spacing="0" style="font-weight:400;font-size:64px;font-family:Arial;letter-spacing:0;word-spacing:0;fill:#000"/></g><g style="line-height:1.25;-inkscape-font-specification:Arial"><path d="M192.383 168.102V122.29h6.062v40.406h22.563v5.406z" aria-label="L" font-weight="400" font-size="64" letter-spacing="0" word-spacing="0" style="font-weight:400;font-size:64px;font-family:Arial;letter-spacing:0;word-spacing:0;fill:#000"/></g><g style="line-height:1.25;-inkscape-font-specification:Arial"><path d="M73.535 280.169v-5.625L97.004 245.2q2.5-3.125 4.75-5.437H76.191v-5.406h32.813v5.406l-25.719 31.781-2.781 3.219h29.25v5.406z" aria-label="Z" font-weight="400" font-size="64" letter-spacing="0" word-spacing="0" style="font-weight:400;font-size:64px;font-family:Arial;letter-spacing:0;word-spacing:0;fill:#000"/></g><g style="line-height:1.25;-inkscape-font-specification:Arial"><path d="m184.126 278.797 17.594-45.813h6.531l18.75 45.813h-6.906l-5.344-13.875h-19.156l-5.031 13.875zm13.219-18.813h15.531l-4.781-12.687q-2.188-5.781-3.25-9.5-.875 4.406-2.469 8.75z" aria-label="A" font-weight="400" font-size="64" letter-spacing="0" word-spacing="0" style="font-weight:400;font-size:64px;font-family:Arial;letter-spacing:0;word-spacing:0;fill:#000"/></g><path d="M38.339 28.017h221.186v47.186H38.339Z" style="fill:#fff;stroke:#000"/><path d="M80.663 63.407v-11.32l-10.3-15.404h4.302l5.269 8.058q1.458 2.26 2.716 4.52 1.203-2.096 2.916-4.721l5.177-7.857h4.12L84.2 52.087v11.32zm17.481 0V36.683h19.323v3.154h-15.786v8.185h14.784v3.135H101.68v9.096h16.406v3.154zm24.719 0V36.683h3.536v23.57h13.162v3.154zm20.781 0V36.683h3.536v23.57h13.162v3.154zm19.851-13.016q0-6.653 3.573-10.408 3.573-3.774 9.224-3.774 3.7 0 6.672 1.769 2.971 1.768 4.52 4.94 1.568 3.153 1.568 7.164 0 4.065-1.64 7.273-1.64 3.208-4.649 4.867-3.007 1.64-6.49 1.64-3.773 0-6.744-1.822-2.971-1.823-4.502-4.977-1.532-3.153-1.532-6.672zm3.646.055q0 4.83 2.589 7.62 2.606 2.77 6.526 2.77 3.992 0 6.562-2.807 2.589-2.807 2.589-7.966 0-3.263-1.112-5.687-1.094-2.443-3.227-3.773-2.114-1.35-4.758-1.35-3.755 0-6.471 2.59-2.698 2.57-2.698 8.603zm31.117 12.961-7.091-26.724h3.628l4.065 17.518q.656 2.753 1.13 5.47 1.02-4.285 1.203-4.941l5.086-18.047h4.265l3.829 13.526q1.44 5.031 2.078 9.461.51-2.534 1.33-5.815l4.193-17.172h3.555L218.2 63.407h-3.41l-5.632-20.362q-.71-2.552-.839-3.135-.419 1.84-.783 3.135l-5.67 20.362z" aria-label="YELLOW" style="font-weight:400;font-size:37.33300018px;line-height:1.25;font-family:Arial;-inkscape-font-specification:Arial;letter-spacing:0;word-spacing:0;fill:#000" font-weight="400" font-size="37.333" letter-spacing="0" word-spacing="0"/></svg>