<svg xmlns="http://www.w3.org/2000/svg" viewBox="0 0 89.69 89.85" height="339.6" width="339"><path stroke="#000" stroke-width=".53" d="M.26.26h89.17V89.6H.26z" fill="none"/><path stroke="#000" stroke-width=".53" d="M73.74 9.47a4.08 4.08 0 014.13-4.02c1.08 0 2.11.42 2.9 1.16A3.97 3.97 0 0182 9.45a4.08 4.08 0 01-4.12 4.02 4.08 4.08 0 01-4.13-4.02z" fill="none"/><path fill="#6e6e6e" stroke="#000" d="M20.37 38.15V53.5h15.35V38.15z" stroke-width=".26"/><path fill="#c7c7c7" stroke="#000" d="M52.12 54.03v15.34h15.35V54.03z" stroke-width=".26"/><path stroke="#000" d="M52.12 69.9v15.35h15.35V69.9zm-15.87 0v15.35h15.34V69.9zm-15.88 0v15.35h15.35V69.9zm-15.87 0v15.35h15.34V69.9zm31.75-15.87v15.34h15.34V54.03zm-15.88 0v15.34h15.35V54.03zm-15.87 0v15.34h15.34V54.03zm47.62-15.88V53.5h15.35V38.15zm-15.87 0V53.5h15.34V38.15zm-31.75 0V53.5h15.34V38.15zm47.62-15.87v15.34h15.35V22.28zm-15.87 0v15.34h15.34V22.28zm-15.88 0v15.34h15.35V22.28zm-15.87 0v15.34h15.34V22.28z" stroke-width=".26"/><g style="line-height:1.25" aria-label="Cor" font-weight="400" font-size="7.06" font-family="sans-serif" fill="#fff" stroke-width=".26"><path d="M42.44 79.62l-.34.15q-.15.08-.4.15-.21.07-.46.12-.24.04-.54.04-.56 0-1.02-.15-.45-.16-.79-.5-.33-.32-.52-.82-.18-.51-.18-1.18 0-.63.18-1.13.18-.5.51-.85.33-.33.8-.5.46-.18 1.02-.18.42 0 .83.1.4.1.91.35v.8h-.05q-.42-.35-.84-.5-.42-.17-.9-.17-.38 0-.7.13-.3.12-.55.39-.24.25-.37.65t-.13.91q0 .54.14.93.15.39.38.63.24.26.56.38.33.12.68.12.5 0 .93-.16.43-.17.8-.51h.05zM46.64 78.07q0 .94-.48 1.48-.48.55-1.3.55-.8 0-1.3-.55-.47-.54-.47-1.48t.48-1.49q.48-.54 1.3-.54.8 0 1.29.54.48.55.48 1.49zm-.67 0q0-.75-.29-1.11-.3-.37-.81-.37-.53 0-.82.37-.3.36-.3 1.1 0 .73.3 1.1.3.38.82.38.51 0 .8-.37.3-.37.3-1.1zM50.05 76.85h-.03q-.15-.04-.29-.05-.13-.02-.32-.02-.3 0-.58.14-.28.13-.53.34v2.73h-.65v-3.85h.65v.57q.38-.31.67-.44.3-.13.6-.13l.25.01q.08 0 .23.03z"/></g><g style="line-height:1.25" aria-label="Cor" font-weight="400" font-size="7.06" font-family="sans-serif" fill="#fff" stroke-width=".26"><path d="M42.53 48.23l-.34.16q-.15.07-.4.15-.2.07-.46.11-.24.05-.54.05-.56 0-1.01-.16-.46-.15-.8-.49-.33-.33-.51-.83-.19-.5-.19-1.17 0-.64.18-1.14.18-.5.52-.84.32-.34.78-.51.47-.18 1.03-.18.42 0 .83.1t.91.35v.81h-.05q-.42-.35-.84-.51-.41-.17-.89-.17-.39 0-.7.13-.31.13-.56.4-.24.25-.37.65-.13.39-.13.9 0 .55.14.94.15.39.38.63.24.26.56.38.33.12.69.12.49 0 .92-.17.43-.17.8-.5h.05zM46.73 46.68q0 .94-.48 1.49-.48.54-1.29.54-.82 0-1.3-.54-.48-.55-.48-1.49t.48-1.48q.48-.55 1.3-.55.81 0 1.3.55.47.54.47 1.48zm-.66 0q0-.74-.3-1.1-.29-.37-.8-.37-.54 0-.83.36-.29.37-.29 1.11 0 .73.3 1.1.29.37.81.37t.81-.36q.3-.38.3-1.1zM50.14 45.46h-.03l-.28-.04q-.14-.02-.32-.02-.3 0-.58.13-.28.13-.54.34v2.74h-.65v-3.85h.65v.57q.38-.31.68-.44.3-.13.6-.13h.25l.22.04z"/></g><g style="line-height:1.25" aria-label="Cor" font-weight="400" font-size="7.06" font-family="sans-serif" fill="#fff" stroke-width=".26"><path d="M26.5 32.33l-.35.16q-.15.07-.4.15-.2.06-.45.11t-.54.05q-.56 0-1.02-.16-.46-.16-.8-.49-.32-.33-.51-.83-.19-.5-.19-1.18 0-.63.18-1.13.18-.5.52-.84.33-.34.79-.51.46-.18 1.03-.18.41 0 .82.1.42.1.92.35v.81h-.05q-.43-.35-.84-.51-.42-.17-.9-.17-.39 0-.7.13-.3.13-.55.39-.24.26-.38.66-.13.39-.13.9 0 .55.15.94.15.38.38.63.24.25.56.38.32.12.68.12.5 0 .92-.17.43-.17.81-.5h.05zM30.7 30.78q0 .94-.48 1.49-.49.54-1.3.54t-1.3-.54q-.47-.55-.47-1.49t.48-1.48q.48-.55 1.3-.55.8 0 1.29.55.48.54.48 1.48zm-.67 0q0-.75-.3-1.1-.29-.37-.8-.37-.53 0-.83.36-.29.36-.29 1.11 0 .73.3 1.1.3.37.81.37.52 0 .81-.37.3-.37.3-1.1zM34.1 29.56h-.03l-.28-.05-.32-.01q-.3 0-.58.13-.28.13-.54.34v2.73h-.65v-3.84h.65v.56q.39-.3.68-.43.3-.13.6-.13h.25l.23.04z"/></g><g style="line-height:1.25" aria-label="Cor" font-weight="400" font-size="7.06" font-family="sans-serif" fill="#fff" stroke-width=".26"><path d="M42.4 63.6l-.34.16-.4.15q-.21.06-.46.1-.25.06-.54.06-.56 0-1.02-.16-.45-.16-.8-.5-.32-.32-.5-.82-.2-.5-.2-1.18 0-.63.18-1.13.18-.5.52-.84.33-.34.79-.51.46-.18 1.03-.18.41 0 .82.1.42.1.92.35v.81h-.05q-.43-.35-.84-.52-.42-.16-.9-.16-.38 0-.7.13-.3.12-.55.39-.24.26-.37.65-.14.4-.14.91 0 .54.15.93.15.4.38.64.24.25.56.38.32.12.68.12.5 0 .93-.17.43-.17.8-.5h.05zM46.6 62.05q0 .94-.48 1.49-.48.54-1.3.54-.81 0-1.3-.54-.47-.55-.47-1.49t.48-1.48q.48-.55 1.3-.55.8 0 1.29.55.48.54.48 1.48zm-.67 0q0-.75-.3-1.1-.28-.37-.8-.37-.53 0-.82.36-.3.36-.3 1.11 0 .72.3 1.1.3.37.82.37.51 0 .8-.37.3-.37.3-1.1zM50 60.83h-.03l-.28-.05-.32-.01q-.3 0-.58.13-.28.13-.54.34v2.73h-.64v-3.85h.64v.57q.39-.3.68-.43.3-.14.6-.14l.25.01.23.04z"/></g><g style="line-height:1.25" aria-label="Cor" font-weight="400" font-size="7.06" font-family="sans-serif" fill="#fff" stroke-width=".26"><path d="M42.4 32.6l-.34.15q-.16.08-.4.16-.21.06-.46.1-.25.05-.54.05-.56 0-1.02-.15-.45-.16-.8-.5-.32-.32-.5-.82-.2-.51-.2-1.18 0-.63.18-1.13.18-.5.52-.85.33-.33.79-.5.46-.18 1.03-.18.41 0 .82.1.42.1.92.35v.81h-.05q-.43-.36-.84-.52-.42-.16-.9-.16-.38 0-.7.13-.3.12-.55.39-.24.26-.37.65-.14.4-.14.91 0 .54.15.93.15.4.38.64.24.25.56.38.32.12.68.12.5 0 .93-.17.43-.17.8-.51h.05zM46.6 31.05q0 .94-.48 1.48-.48.55-1.3.55-.81 0-1.3-.55-.47-.54-.47-1.48t.48-1.49q.48-.54 1.3-.54.8 0 1.29.54.48.55.48 1.49zm-.67 0q0-.75-.3-1.11-.28-.37-.8-.37-.53 0-.82.37-.3.36-.3 1.1 0 .73.3 1.1.3.38.82.38.51 0 .8-.37.3-.37.3-1.1zM50 29.83h-.03l-.28-.05q-.13-.02-.32-.02-.3 0-.58.14-.28.13-.54.34v2.73h-.64v-3.85h.64v.57q.39-.3.68-.44.3-.13.6-.13l.25.01.23.03z"/></g><g style="line-height:1.25" aria-label="Cor" font-weight="400" font-size="7.06" font-family="sans-serif" fill="#fff" stroke-width=".26"><path d="M58.28 79.76q-.2.08-.35.16-.15.07-.4.15-.2.06-.46.1-.24.06-.54.06-.55 0-1.01-.16-.46-.16-.8-.5-.33-.32-.51-.82-.19-.5-.19-1.18 0-.63.18-1.13.18-.5.52-.84.33-.34.79-.51.46-.18 1.03-.18.41 0 .82.1t.92.35v.81h-.05q-.43-.35-.84-.52-.42-.16-.9-.16-.39 0-.7.13-.31.12-.55.39-.24.26-.38.65-.13.4-.13.91 0 .54.15.93.14.4.38.64.24.25.56.38.32.12.68.12.5 0 .92-.17.43-.17.8-.5h.06zM62.48 78.21q0 .94-.48 1.49-.49.54-1.3.54t-1.3-.54q-.47-.55-.47-1.49t.47-1.48q.49-.55 1.3-.55t1.3.55q.48.54.48 1.48zm-.67 0q0-.75-.3-1.1-.29-.37-.8-.37-.53 0-.83.36-.29.36-.29 1.11 0 .72.3 1.1.29.37.81.37t.81-.37q.3-.37.3-1.1zM65.89 77h-.04l-.28-.06-.32-.01q-.3 0-.58.13-.28.13-.54.34v2.73h-.65v-3.85h.65v.57q.39-.3.68-.43.3-.14.6-.14.17 0 .25.02l.23.03z"/></g><g style="line-height:1.25" aria-label="Cor" font-weight="400" font-size="7.06" font-family="sans-serif" fill="#fff" stroke-width=".26"><path d="M58.37 48.38l-.34.15-.4.15q-.21.07-.46.11-.25.05-.54.05-.56 0-1.02-.15-.45-.16-.8-.5-.32-.32-.5-.83-.2-.5-.2-1.17 0-.64.18-1.13.18-.5.52-.85.33-.33.79-.5.47-.18 1.03-.18.41 0 .82.1.42.1.92.35v.8h-.05q-.43-.35-.84-.51-.42-.16-.9-.16-.38 0-.7.13-.3.12-.55.38-.24.26-.37.66-.14.4-.14.9 0 .55.15.94.15.39.38.63.24.26.56.38.32.12.68.12.5 0 .93-.17.43-.16.8-.5h.05zM62.57 46.83q0 .94-.48 1.48-.48.55-1.3.55-.81 0-1.3-.55-.47-.54-.47-1.48t.48-1.49q.48-.55 1.3-.55.8 0 1.29.55.48.55.48 1.49zm-.67 0q0-.75-.3-1.11-.28-.37-.8-.37-.53 0-.82.37-.3.36-.3 1.1 0 .73.3 1.1.3.38.82.38.51 0 .8-.37.3-.37.3-1.1zM65.98 45.6h-.04l-.28-.04q-.13-.02-.32-.02-.3 0-.58.14-.28.13-.54.34v2.73h-.64V44.9h.64v.57q.39-.31.68-.44.3-.13.6-.13l.25.01q.08 0 .23.03z"/></g><g style="line-height:1.25" aria-label="Cor" font-weight="400" font-size="7.06" font-family="sans-serif" stroke-width=".26"><path d="M58.24 63.74l-.35.16q-.15.07-.4.15-.2.07-.46.11-.24.05-.54.05-.56 0-1.01-.16-.46-.15-.8-.49-.33-.33-.51-.83-.19-.5-.19-1.17 0-.64.18-1.14.18-.5.52-.84.32-.34.78-.51.47-.18 1.04-.18.4 0 .82.1.41.1.92.35v.81h-.06q-.42-.35-.84-.51-.41-.17-.89-.17-.39 0-.7.13-.31.13-.56.4-.23.25-.37.65-.13.39-.13.9 0 .55.14.94.15.39.38.63.24.25.57.38.32.12.68.12.49 0 .92-.17.43-.17.8-.5h.06zM62.44 62.2q0 .93-.49 1.48-.48.54-1.29.54-.82 0-1.3-.54-.48-.55-.48-1.49t.48-1.48q.48-.55 1.3-.55.81 0 1.3.55.48.54.48 1.48zm-.67 0q0-.75-.3-1.12-.29-.36-.8-.36-.54 0-.83.36-.29.37-.29 1.11 0 .73.3 1.1.29.37.81.37t.81-.36q.3-.38.3-1.1zM65.84 60.97h-.03l-.28-.04q-.14-.02-.32-.02-.3 0-.58.13-.28.13-.54.34v2.74h-.65v-3.85h.65v.57q.38-.31.68-.44.3-.13.6-.13h.25l.22.04z"/></g><g style="line-height:1.25" aria-label="Cor" font-weight="400" font-size="7.06" font-family="sans-serif" fill="#fff" stroke-width=".26"><path d="M58.24 32.74l-.35.16q-.15.07-.4.15-.2.06-.46.11-.24.05-.54.05-.56 0-1.01-.16-.46-.16-.8-.49-.33-.33-.51-.83-.19-.5-.19-1.18 0-.63.18-1.13.18-.5.52-.84.32-.34.78-.51.47-.18 1.04-.18.4 0 .82.1.41.1.92.35v.81h-.06q-.42-.35-.84-.51-.41-.17-.89-.17-.39 0-.7.13-.31.13-.56.4-.23.25-.37.65-.13.39-.13.9 0 .55.14.94.15.38.38.63.24.25.57.38.32.12.68.12.49 0 .92-.17.43-.17.8-.5h.06zM62.44 31.2q0 .93-.49 1.48-.48.54-1.29.54-.82 0-1.3-.54-.48-.55-.48-1.49t.48-1.48q.48-.55 1.3-.55.81 0 1.3.55.48.54.48 1.48zm-.67 0q0-.76-.3-1.12-.29-.36-.8-.36-.54 0-.83.36-.29.36-.29 1.11 0 .73.3 1.1.29.37.81.37t.81-.37q.3-.37.3-1.1zM65.84 29.97h-.03l-.28-.05-.32-.01q-.3 0-.58.13-.28.13-.54.34v2.73h-.65v-3.84h.65v.56q.38-.3.68-.43.3-.13.6-.13h.25l.22.04z"/></g><g style="line-height:1.25" aria-label="Cor" font-weight="400" font-size="7.06" font-family="sans-serif" fill="#fff" stroke-width=".26"><path d="M10.57 79.9l-.35.15q-.15.07-.4.15-.2.07-.45.11-.25.05-.55.05-.55 0-1.01-.15-.46-.16-.8-.5-.32-.32-.51-.83-.19-.5-.19-1.17 0-.64.18-1.14.18-.5.52-.84.33-.33.79-.5.46-.19 1.03-.19.41 0 .82.1.42.1.92.36v.8h-.05q-.43-.35-.84-.51-.42-.16-.9-.16-.39 0-.7.12-.3.13-.55.4-.24.25-.38.65-.13.4-.13.9 0 .55.15.94.15.39.38.63.24.26.56.38.32.12.68.12.5 0 .92-.17.43-.17.81-.5h.05zM14.77 78.35q0 .94-.48 1.48-.49.55-1.3.55t-1.3-.55q-.47-.54-.47-1.48t.48-1.49q.48-.55 1.3-.55.8 0 1.29.55.48.55.48 1.49zm-.67 0q0-.75-.3-1.11-.29-.37-.8-.37-.53 0-.83.37-.29.36-.29 1.1 0 .73.3 1.1.29.38.81.38t.81-.37q.3-.37.3-1.1zM18.18 77.13h-.04q-.14-.04-.28-.05-.14-.02-.32-.02-.3 0-.58.13-.28.14-.54.35v2.73h-.65v-3.85h.65v.57q.39-.31.68-.44.3-.13.6-.13l.25.01.23.03z"/></g><g style="line-height:1.25" aria-label="Cor" font-weight="400" font-size="7.06" font-family="sans-serif" fill="#fff" stroke-width=".26"><path d="M10.66 48.51l-.34.16-.4.15q-.21.06-.46.1-.25.06-.54.06-.56 0-1.02-.16-.45-.16-.8-.5-.32-.32-.5-.82-.2-.5-.2-1.18 0-.63.18-1.13.18-.5.52-.84.33-.34.8-.51.46-.18 1.02-.18.41 0 .82.1.42.1.92.35v.81h-.05q-.42-.35-.84-.52-.42-.16-.9-.16-.38 0-.7.13-.3.12-.55.39-.24.26-.37.65-.13.4-.13.91 0 .54.14.93.15.4.38.64.24.25.56.38.32.12.68.12.5 0 .93-.17.43-.17.8-.5h.05zM14.86 46.96q0 .94-.48 1.49-.48.54-1.3.54-.81 0-1.3-.54-.47-.55-.47-1.49t.48-1.48q.48-.55 1.3-.55.8 0 1.29.55.48.54.48 1.48zm-.67 0q0-.75-.29-1.1-.3-.37-.81-.37-.53 0-.82.36-.3.36-.3 1.11 0 .72.3 1.1.3.37.82.37.51 0 .8-.37.3-.37.3-1.1zM18.27 45.74h-.04l-.28-.05-.32-.01q-.3 0-.58.13-.28.13-.54.34v2.73h-.64v-3.84h.64v.56q.4-.3.68-.43.3-.13.6-.13h.25l.23.04z"/></g><g style="line-height:1.25" aria-label="Cor" font-weight="400" font-size="7.06" font-family="sans-serif" fill="#fff" stroke-width=".26"><path d="M10.53 63.88l-.35.15q-.15.08-.4.16-.2.06-.45.1-.25.05-.54.05-.56 0-1.02-.15-.46-.16-.8-.5-.32-.32-.51-.82-.19-.51-.19-1.18 0-.63.18-1.13.18-.5.52-.85.33-.33.79-.5.46-.18 1.03-.18.41 0 .82.1.42.1.92.35v.8h-.05q-.43-.35-.84-.5-.42-.17-.9-.17-.39 0-.7.13-.3.12-.55.39-.24.25-.38.65-.13.4-.13.91 0 .54.15.93t.38.63q.24.26.56.38.32.12.68.12.5 0 .92-.16.43-.17.81-.51h.05zM14.73 62.33q0 .94-.48 1.48-.49.55-1.3.55t-1.3-.55q-.47-.54-.47-1.48t.48-1.49q.48-.54 1.3-.54.8 0 1.29.54.48.55.48 1.49zm-.67 0q0-.75-.3-1.11-.29-.37-.8-.37-.53 0-.83.37-.29.36-.29 1.1 0 .73.3 1.1.3.38.81.38.52 0 .81-.37.3-.37.3-1.1zM18.14 61.1h-.04l-.28-.04q-.14-.02-.32-.02-.3 0-.58.14-.28.13-.54.34v2.73h-.65V60.4h.65v.57q.39-.31.68-.44.3-.13.6-.13l.25.01.23.03z"/></g><g style="line-height:1.25" aria-label="Cor" font-weight="400" font-size="7.06" font-family="sans-serif" fill="#fff" stroke-width=".26"><path d="M10.53 32.35l-.35.15q-.15.07-.4.15-.2.07-.45.11-.25.05-.54.05-.56 0-1.02-.15-.46-.16-.8-.5-.32-.32-.51-.83-.19-.5-.19-1.17 0-.64.18-1.14.18-.5.52-.84.33-.33.79-.51t1.03-.18q.41 0 .82.1.42.1.92.36v.8h-.05q-.43-.35-.84-.51-.42-.16-.9-.16-.39 0-.7.12-.3.13-.55.4-.24.25-.38.65-.13.4-.13.9 0 .55.15.94.15.39.38.63.24.26.56.38.32.12.68.12.5 0 .92-.17.43-.17.81-.5h.05zM14.73 30.8q0 .94-.48 1.48-.49.54-1.3.54t-1.3-.54q-.47-.54-.47-1.48 0-.95.48-1.49.48-.55 1.3-.55.8 0 1.29.55.48.54.48 1.49zm-.67 0q0-.75-.3-1.11-.29-.37-.8-.37-.53 0-.83.37-.29.36-.29 1.1 0 .73.3 1.1.3.38.81.38.52 0 .81-.37.3-.37.3-1.1zM18.14 29.58h-.04q-.14-.04-.28-.05-.14-.02-.32-.02-.3 0-.58.13-.28.14-.54.35v2.73h-.65v-3.85h.65v.57q.39-.31.68-.44.3-.13.6-.13l.25.01.23.03z"/></g><g style="line-height:1.25" aria-label="Cor" font-weight="400" font-size="7.06" font-family="sans-serif" fill="#fff" stroke-width=".26"><path d="M26.47 79.5l-.34.15q-.15.07-.4.15-.21.07-.46.11-.24.05-.54.05-.56 0-1.02-.16-.45-.15-.79-.49-.33-.33-.52-.83-.18-.5-.18-1.17 0-.64.18-1.14.18-.5.51-.84.33-.34.8-.51.46-.18 1.02-.18.42 0 .83.1.4.1.91.35v.81h-.05q-.42-.35-.84-.51-.42-.16-.9-.16-.38 0-.7.12-.3.13-.55.4-.24.25-.37.65-.13.39-.13.9 0 .55.14.94.15.39.38.63.24.26.56.38.33.12.68.12.5 0 .93-.17.43-.17.8-.5h.05zM30.67 77.94q0 .94-.48 1.49-.48.54-1.3.54-.8 0-1.3-.54-.47-.55-.47-1.49t.48-1.48q.48-.55 1.3-.55.8 0 1.29.55.48.54.48 1.48zm-.67 0q0-.74-.29-1.1-.3-.37-.81-.37-.53 0-.82.36-.3.37-.3 1.11 0 .73.3 1.1.3.37.82.37.51 0 .8-.36.3-.38.3-1.1zM34.08 76.72h-.03l-.29-.04q-.13-.02-.32-.02-.3 0-.58.13-.28.13-.53.34v2.74h-.65v-3.85h.65v.57q.38-.31.67-.44.3-.13.6-.13h.25l.23.04z"/></g><g style="line-height:1.25" aria-label="Cor" font-weight="400" font-size="7.06" font-family="sans-serif" fill="#fff" stroke-width=".26"><path d="M26.56 48.11l-.34.15q-.15.08-.4.16-.21.06-.46.1-.24.05-.54.05-.56 0-1.01-.15-.46-.16-.8-.5-.33-.32-.51-.82-.19-.51-.19-1.18 0-.63.18-1.13.18-.5.52-.85.32-.33.78-.5.47-.18 1.03-.18.42 0 .83.1t.91.35v.8h-.05q-.42-.35-.84-.5-.41-.17-.89-.17-.39 0-.7.13-.31.12-.56.39-.24.26-.37.65-.13.4-.13.91 0 .54.14.93.15.4.38.64.24.25.56.37.33.13.69.13.49 0 .92-.17.43-.17.8-.51h.05zM30.76 46.56q0 .94-.48 1.48-.48.55-1.29.55-.82 0-1.3-.55-.48-.54-.48-1.48t.48-1.49q.48-.54 1.3-.54.81 0 1.3.54.47.55.47 1.49zm-.66 0q0-.75-.3-1.11-.29-.37-.8-.37-.54 0-.83.37-.29.36-.29 1.1 0 .73.3 1.1.29.38.81.38t.81-.37q.3-.37.3-1.1zM34.17 45.34h-.03q-.15-.04-.28-.05-.14-.02-.32-.02-.3 0-.58.14-.28.13-.54.34v2.73h-.65v-3.85h.65v.57q.38-.3.68-.44.3-.13.6-.13l.25.01.22.03z"/></g><g style="line-height:1.25" aria-label="Cor" font-weight="400" font-size="7.06" font-family="sans-serif" fill="#fff" stroke-width=".26"><path d="M26.43 63.48l-.34.15-.4.15q-.21.07-.46.11-.25.05-.54.05-.56 0-1.02-.15-.45-.16-.8-.5-.32-.32-.5-.83-.2-.5-.2-1.17 0-.64.18-1.14.18-.5.52-.84.33-.33.79-.5.46-.18 1.03-.18.41 0 .82.1.42.1.92.35v.8h-.05q-.43-.35-.84-.51-.42-.16-.9-.16-.38 0-.7.12-.3.13-.55.4-.24.25-.37.65-.14.4-.14.9 0 .55.15.94.15.39.38.63.24.26.56.38.32.12.68.12.5 0 .93-.17.43-.17.8-.5h.05zM30.63 61.93q0 .94-.48 1.48-.48.55-1.3.55-.81 0-1.3-.55-.47-.54-.47-1.48t.48-1.49q.48-.55 1.3-.55.8 0 1.29.55.48.55.48 1.49zm-.67 0q0-.75-.3-1.11-.28-.37-.8-.37-.53 0-.82.37-.3.36-.3 1.1 0 .73.3 1.1.3.38.82.38.51 0 .8-.37.3-.37.3-1.1zM34.04 60.7H34l-.28-.04q-.13-.02-.32-.02-.3 0-.58.14-.28.13-.54.34v2.73h-.64V60h.64v.57q.39-.31.68-.44.3-.13.6-.13l.25.01q.08 0 .23.03z"/></g></svg>