<svg xmlns="http://www.w3.org/2000/svg" fill="none" viewBox="0 0 348 348"><defs/><path stroke="#7f0000" stroke-width="3.33333333" d="M5.079 5.776h336.913v337.67H5.08z"/><path fill="#555" fill-opacity=".33333334" stroke="#7f0000" stroke-width="2" d="M297.28518 33.733133c0-8.376 6.966-15.165 15.56-15.165 4.126 0 8.084 1.597 11.001 4.441 2.918 2.844 4.558 6.702 4.558 10.724 0 8.376-6.966 15.165-15.56 15.165-8.593 0-15.559-6.79-15.559-15.165z"/><path fill="#585858" stroke="#000" stroke-linecap="square" stroke-width="2.41070771" d="M247.46458 219.66736A117.56828 117.56828 0 01129.8963 337.23564 117.56828 117.56828 0 0112.328018 219.66736 117.56828 117.56828 0 01129.8963 102.09908a117.56828 117.56828 0 01117.56828 117.56828z"/><path fill="#0f0" stroke="#000" stroke-linecap="square" stroke-width="2.76968551" d="M180 308a100.75549 100.75549 0 01-100.755493 0l50.377743-87.25682z"/><path fill="#0ff" stroke="#000" stroke-linecap="square" stroke-width="2.76968551" d="M79.244507 308a100.75549 100.75549 0 01-50.377747-87.25683l100.75549.00001z"/><path fill="#ff0" stroke="#000" stroke-linecap="square" stroke-width="2.76968551" d="M28.86676 220.74317a100.75549 100.75549 0 0150.377746-87.25681l50.377744 87.25682z"/><path fill="#ff0200" stroke="#000" stroke-linecap="square" stroke-width="2.76968551" d="M79.244511 133.48636a100.75549 100.75549 0 01100.755489 0l-50.37775 87.25682z"/><path fill="#f0f" stroke="#000" stroke-linecap="square" stroke-width="2.76968551" d="M180 133.48636a100.75549 100.75549 0 0150.37775 87.25682h-100.7555z"/><path fill="#00f" stroke="#000" stroke-linecap="square" stroke-width="2.76968551" d="M230.37775 220.74318A100.75549 100.75549 0 01180 308l-50.37775-87.25682z"/><path fill="#fff" stroke="#000" stroke-linecap="square" stroke-width="2.41070771" d="M181.69213 220.74318a52.069874 52.069874 0 01-52.06988 52.06987 52.069874 52.069874 0 01-52.06987-52.06987 52.069874 52.069874 0 0152.06987-52.06987 52.069874 52.069874 0 0152.06988 52.06987z"/><path fill="#000" stroke="#666" stroke-linecap="square" stroke-width="1.33333337" d="M152.95768 88A7.9576783 7.9576783 0 01145 95.957678 7.9576783 7.9576783 0 01137.04232 88 7.9576783 7.9576783 0 01145 80.042322 7.9576783 7.9576783 0 01152.95768 88z"/><path fill="#001" stroke="#7f0000" stroke-linecap="square" stroke-width="1.95565867" d="M10.123423 16.276397v39.110044l19.555022 19.555023H274.11622V35.831419L254.5612 16.276397z"/><path fill="#001" stroke="#7f0000" stroke-linecap="square" stroke-width="1.94562721" d="M274.1413 74.966543h38.90944l19.45471 19.454717V337.6052h-38.90943l-19.45472-19.45473z"/><g fill="#fff" aria-label="&lt;display text&gt;" font-family="sans-serif" font-size="32" font-weight="400" letter-spacing="0" style="line-height:1.25;text-align:center" text-anchor="middle" word-spacing="0" writing-mode="vertical-lr"><path d="M295.589 108.73119l8.01562-18.031254h1.9375l8.01563 18.031254h-2.8125l-6.17188-14.218754-6.17187 14.218754zM294.38587 129.96556v-2.9375h1.82813q-1.09375-1.26562-1.70313-2.64062-.60937-1.375-.60937-2.98438 0-3.125 2.40625-4.96875 2.40625-1.82812 6.67187-1.82812 2.21875 0 3.95313.625 1.73437.64062 2.95312 1.71875 1.1875 1.0625 1.8125 2.46875.625 1.42187.625 2.9375 0 1.375-.29687 2.4375-.28125 1.0625-.89063 2.23437h7.5625v2.9375zm4.29688-2.9375h10.01562q.53125-1.1875.73438-2.125.20312-.9375.20312-2.04687 0-2.46875-1.71875-3.84375t-4.875-1.375q-3.10937 0-4.73437 1.0625-1.60938 1.0625-1.60938 3.40625 0 1.25.54688 2.53125.5625 1.28125 1.4375 2.39062zM314.76087 138.90306v-3.3125h3.04688v3.3125zm-20.375-.1875v-2.9375H311.839v2.9375zM299.41712 156.99681q-2.39062 0-3.92187-1.98437-1.53125-1.96875-1.53125-5.39063 0-1.9375.45312-3.5625.46875-1.60937 1.01563-2.70312h3.29687v.15625q-1.04687 1.39062-1.67187 3.09375-.60938 1.70312-.60938 3.26562 0 1.9375.625 3.03125t1.96875 1.09375q1.03125 0 1.5625-.59375t.90625-2.28125q.14063-.625.32813-1.64062.1875-1 .40625-1.82813.60937-2.29687 1.78125-3.26562 1.1875-.95313 2.90625-.95313 1.07812 0 2.03125.4375.95312.45313 1.70312 1.35938.73438.875 1.15625 2.21875.4375 1.35937.4375 3.03125 0 1.5625-.39062 3.15625-.375 1.60937-.92188 2.67187h-3.14062v-.15625q.82812-1.125 1.39062-2.73437.57813-1.60938.57813-3.15625 0-1.60938-.625-2.71875-.60938-1.10938-1.82813-1.10938-1.07812 0-1.625.67188-.54687.65625-.89062 2.125-.1875.8125-.375 1.8125-.1875 1.01562-.34375 1.6875-.46875 2.04687-1.60938 3.15625-1.15625 1.10937-3.0625 1.10937zM303.32337 176.55931q-2.125 0-3.89062-.60937-1.75-.60938-2.96875-1.71875-1.15625-1.03125-1.79688-2.4375-.625-1.39063-.625-2.95313 0-1.35937.29688-2.46875.29687-1.09375.92187-2.23437h-7.3125v-2.9375H311.839v2.9375h-1.82813q.98438 1.17187 1.64063 2.625.67187 1.46875.67187 3.125 0 3.15625-2.39062 4.90625-2.375 1.76562-6.60938 1.76562zm-.0781-3.03125q3.15625 0 4.71875-1.07812 1.5625-1.07813 1.5625-3.3125 0-1.26563-.54688-2.54688-.54687-1.28125-1.4375-2.45312h-9.89062q-.5625 1.25-.76563 2.14062-.20312.90625-.20312 2.04688 0 2.45312 1.65625 3.82812t4.90625 1.375zM294.38587 184.10619v-2.9375h24.3125v2.9375zM294.38587 203.48119v-2.92188h1.85938q-.26563-.39062-.75-1.0625-.46875-.65625-.75-1.28125-.35938-.73437-.59375-1.6875-.25-.95312-.25-2.23437 0-2.35938 1.5625-4 1.5625-1.64063 3.98437-1.64063 1.98438 0 3.20313.84375 1.23437.85938 1.9375 2.4375.70312 1.59375.95312 3.82813.25 2.23437.375 4.79687h.45313q1 0 1.65625-.35937.65625-.34375 1.03125-1 .35937-.625.48437-1.5t.125-1.82813q0-1.15625-.3125-2.57812-.29687-1.42188-.875-2.9375v-.15625h2.98438q.23437.85937.51562 2.48437.28125 1.625.28125 3.20313 0 1.84375-.3125 3.20312-.29687 1.375-1.03125 2.375-.71875.98438-1.85937 1.5-1.14063.51563-2.82813.51563zm4.29688-2.92188h4.85937q-.0781-1.34375-.23437-3.17187-.15625-1.8125-.45313-2.875-.35937-1.26563-1.125-2.04688-.75-.78125-2.07812-.78125-1.5 0-2.26563.90625-.75.90625-.75 2.76563 0 1.54687.59375 2.82812.60938 1.28125 1.45313 2.375zM311.839 224.23119l-23.89063-10.1875v-3.14063l7.28125 3.25 16.60938-6.95312v3.1875l-12.9375 5.35937 12.9375 5.40625zM294.54212 248.38744q-.21875-.82813-.35937-1.8125-.14063-.96875-.14063-1.73438 0-2.67187 1.4375-4.0625 1.4375-1.39062 4.60938-1.39062h9.28125v-1.98438h2.46875v1.98438h5.01562v2.9375H311.839v6.0625h-2.46875v-6.0625h-7.95313q-1.375 0-2.15625.0625-.76562.0625-1.4375.4375-.625.34375-.92187.9375-.28125.60937-.28125 1.84375 0 .71875.20312 1.5.21875.78125.35938 1.125v.15625zM302.80775 266.54369v-12.85938q-1.60938 0-2.8125.48438-1.1875.48437-1.95313 1.32812-.75.8125-1.125 1.92188-.375 1.125-.375 2.46875 0 1.78125.70313 3.57812.71875 1.8125 1.40625 2.57813v.15625h-3.20313q-.625-1.48438-1.04687-3.03125-.42188-1.54688-.42188-3.25 0-4.34375 2.34375-6.78125 2.35938-2.4375 6.6875-2.4375 4.28125 0 6.79688 2.32812 2.51562 2.34375 2.51562 6.15625 0 3.53125-2.0625 5.4375-2.0625 1.92188-5.85937 1.92188zm2.25-2.85938q2.3125-.0156 3.57812-1.17187 1.26563-1.14063 1.26563-3.48438 0-2.35937-1.39063-3.76562-1.39062-1.39063-3.45312-1.57813zM294.38587 286.10619v-3.70313l6.70313-4.95312-6.70313-4.98438v-3.42187l8.70313 6.8125 8.75-6.75v3.70312l-6.59375 4.92188 6.59375 4.9375v3.4375l-8.59375-6.85938zM294.54212 298.99681q-.21875-.82812-.35937-1.8125-.14063-.96875-.14063-1.73437 0-2.67188 1.4375-4.0625 1.4375-1.39063 4.60938-1.39063h9.28125v-1.98437h2.46875v1.98437h5.01562v2.9375H311.839v6.0625h-2.46875v-6.0625h-7.95313q-1.375 0-2.15625.0625-.76562.0625-1.4375.4375-.625.34375-.92187.9375-.28125.60938-.28125 1.84375 0 .71875.20312 1.5.21875.78125.35938 1.125v.15625zM303.60462 321.87181l-8.01562-18.03125h2.8125l6.17187 14.21875 6.17188-14.21875h2.8125l-8.01563 18.03125z"/></g><g stroke="#fff" stroke-linecap="square"><path stroke-width=".9658914505288" d="M50.08957089 66.36031861h17.38605235V48.97426626H50.08957089M73.27096946 48.97426626v17.38605235h17.38605235V48.97426626M113.83842038 66.36031861V48.97426626H96.45236803v17.38605235M137.01983264 48.97426626h-17.38605235v17.38605235h17.38605235M50.08957089 43.17892004h17.38605235V25.79286769H50.08957089zM73.27096946 43.17892004l8.69302618-17.38605235 8.69302617 17.38605235M96.45236803 25.79286769l17.38605235 8.69302618-17.38605235 8.69302617M137.01983264 25.79286769l-8.69302617 17.38605235-8.69302618-17.38605235M142.81517886 66.36031861h17.38605235V48.97426626h-17.38605235M165.99657743 48.97426626v17.38605235h17.38605235V48.97426626M206.56404204 66.36031861V48.97426626h-17.38605235v17.38605235M229.74544061 48.97426626h-17.38605235v17.38605235h17.38605235M142.81517886 43.17892004h17.38605235V25.79286769h-17.38605235z"/><path stroke-width=".9664998389306001" d="M165.99657743 43.17892004l8.69302618-17.38605235 8.69302617 17.38605235"/><path stroke-width=".9658914505288" d="M189.17798969 25.79286769l17.38605235 8.69302618-17.38605235 8.69302617M229.74544061 25.79286769l-8.69302617 17.38605235-8.69302618-17.38605235"/><path fill="#fff" stroke-width=".9658914505288" d="M154.4058713 34.48589387a2.8976753 2.8976753 0 01-2.89767995 2.89767995 2.8976753 2.8976753 0 01-2.89767996-2.89767995 2.8976753 2.8976753 0 012.89767996-2.89767996 2.8976753 2.8976753 0 012.89767995 2.89767996z"/><path fill="#000" stroke-width=".9658914505288" d="M154.40588499 57.66731982a2.8976753 2.8976753 0 01-2.89766626 2.89767995 2.8976753 2.8976753 0 01-2.89767996-2.89767995 2.8976753 2.8976753 0 012.89767996-2.89767996 2.8976753 2.8976753 0 012.89766626 2.89767996z"/><path fill="#fff" stroke-width=".9658914505288" d="M154.40588499 57.66731982a2.8976753 2.8976753 0 01-2.89766626 2.89767995 2.8976753 2.8976753 0 01-2.89767996-2.89767995 2.8976753 2.8976753 0 012.89767996-2.89767996 2.8976753 2.8976753 0 012.89766626 2.89767996zM177.58726987 37.38357382a2.8976753 2.8976753 0 01-2.89767995 2.89767996 2.8976753 2.8976753 0 01-2.89766627-2.89767996 2.8976753 2.8976753 0 012.89766627-2.89767995 2.8976753 2.8976753 0 012.89767995 2.89767995zM177.58726987 57.66731982a2.8976753 2.8976753 0 01-2.89767995 2.89767995 2.8976753 2.8976753 0 01-2.89766627-2.89767995 2.8976753 2.8976753 0 012.89766627-2.89767996 2.8976753 2.8976753 0 012.89767995 2.89767996zM197.87100218 34.48589387a2.8976753 2.8976753 0 01-2.89766627 2.89767995 2.8976753 2.8976753 0 01-2.89767995-2.89767995 2.8976753 2.8976753 0 012.89767995-2.89767996 2.8976753 2.8976753 0 012.89766627 2.89767996zM200.76868213 57.66731982a2.8976753 2.8976753 0 01-2.89766626 2.89767995 2.8976753 2.8976753 0 01-2.89767996-2.89767995 2.8976753 2.8976753 0 012.89767996-2.89767996 2.8976753 2.8976753 0 012.89766626 2.89767996zM223.95009439 31.58821391a2.8976753 2.8976753 0 01-2.89767995 2.89767996 2.8976753 2.8976753 0 01-2.89767996-2.89767996 2.8976753 2.8976753 0 012.89767996-2.89766626 2.8976753 2.8976753 0 012.89767995 2.89766626zM223.9500807 57.66731982a2.8976753 2.8976753 0 01-2.89767995 2.89767995 2.8976753 2.8976753 0 01-2.89766627-2.89767995 2.8976753 2.8976753 0 012.89766627-2.89767996 2.8976753 2.8976753 0 012.89767995 2.89767996z"/></g></svg>