<svg xmlns="http://www.w3.org/2000/svg" viewBox="0 0 348 348" fill="none"><path d="M5.079 5.776h336.913v337.67H5.08z" stroke="#000" stroke-width="2"/><path d="M282.734 40.554c0-8.376 6.966-15.165 15.56-15.165 4.126 0 8.084 1.597 11.001 4.441 2.918 2.844 4.558 6.702 4.558 10.724 0 8.376-6.966 15.165-15.56 15.165-8.593 0-15.559-6.79-15.559-15.165z" stroke-width="2" stroke="#000"/><path stroke="#000" d="M17.695 26.542h258.051v97.322H17.695z"/><path fill="#000" stroke="#000" stroke-width="1.149" d="M17.349 140.18h308.83v42.573H17.349z"/><path stroke="#000" stroke-width="1.183" d="M286.159 76.77h41.105v42.58h-41.105z"/><text style="line-height:1.25" x="402.618" y="81.594" transform="scale(.71862 1.39156)" font-weight="400" font-size="30.202" font-family="sans-serif" letter-spacing="0" word-spacing="0" fill="#000" stroke-width=".755"><tspan x="402.618" y="81.594">H+</tspan></text><path stroke="#000" stroke-width=".96" d="M52.756 220.449h31.286v36.864H52.756zm-35.976 0h31.286v36.864H16.78zm71.952 0h31.286v36.864H88.732zm35.976 0h31.286v36.864h-31.286zm35.977 0h31.286v36.864h-31.286zm35.976 0h31.286v36.864h-31.286zm35.976 0h31.286v36.864h-31.286zm35.976 0h31.286v36.864h-31.286zm35.976 0h31.286v36.864h-31.286zM53.378 273.534h31.286v36.864H53.378zm-35.976 0h31.286v36.864H17.402zm71.952 0h31.286v36.864H89.354zm35.976 0h31.286v36.864H125.33zm35.976 0h31.286v36.864h-31.286zm35.976 0h31.286v36.864h-31.286zm35.977 0h31.286v36.864h-31.286zm35.976 0h31.286v36.864h-31.286zm35.976 0h31.286v36.864h-31.286z"/></svg>