<svg xmlns="http://www.w3.org/2000/svg" fill="none" viewBox="0 0 348 348"><path stroke="#000" stroke-width="2" d="M5 5.8h337v337.6H5z"/><path stroke="#000" stroke-width="2" d="M282.7 40.6c0-8.4 7-15.2 15.6-15.2 4.1 0 8 1.6 11 4.4a15 15 0 0 1 4.6 10.8c0 8.3-7 15.1-15.6 15.1s-15.6-6.8-15.6-15.1z"/><path stroke="#000" d="M34 29.5h191.6v50.1H34zM22 283.1h73v47.2H22Zm76.5 0h73v47.2h-73Zm76.6 0H248v47.2h-73zm76.5 0h73v47.2h-73zM53.9 152.8h39.2v56.7H53.9Z"/><path fill="#000" d="M51 40.9h.5q.8.2.8 1.5V44q-.7 1-8.3 4.7l-1 1 3.3 2q2.2-2.3 4.4-2.3H52q5.1 0 6.3 6.8l-.3 2.3q4 1.8 4 3.5-1.9 2.2-9.6 6.8 0 2-.5 2h-.6q-.7-.2-.7-1.5v-.5q0-1.8 7-5.2l2-1.8Q58.2 60 56.8 60q0 1.7-5.2 2.9-5.8 0-6.8-7 0-.7.6-2.7-3.6-2-4.5-3.3 0-2.4 9.7-6.5v-2.1q0-.5.5-.5zm-4.4 15v.3q.8 5 5 5 4.8-1 4.8-5-.8-5-4.1-5h-1.6q-3.2 0-4.1 4.7zm5.2-1.2q1 .3 1 .7v1.3q0 .4-.8.8h-1q-.5 0-1-1.6.3-1.2 1.8-1.2zm33.8-13.8h1.9q7.4 0 9.2 10-.5 4-2.7 6.5l5.4 5q3.4-3.8 5-12.3 0-.8.7-.8h.4q.6 0 1.2 1.5 0 12.7-13.8 18.8-3 .8-6.2 1.2-13.8 0-19.2-14.6-.7-1.5-.7-4.2v-1.6q0-.5 1.1-1.1h.4q1 0 2 7.3l2.6 5q.6 0 5.4-5.4-1.5-2.6-1.5-4.6v-2q2-8.7 8.8-8.7zm-6.2 8.8v1.5q1.5 7 7 7 6.2 0 7.6-7.8-1.6-6.9-6.9-6.9H86q-6.6 1.4-6.6 6.2zm6.6-1.2h1q.6 0 1.6 1.6v1.1q0 .6-1.6 1.6h-1q-.6 0-1.6-1.6 0-2 1.6-2.7zm-6.2 10-4.6 5q5.6 4.6 10 4.6v-7.7q-1.1 0-5.4-1.9zm8 2v7.2H89q2.7 0 8-3v-.4q-4.2-5-5.3-5-2 1.1-3.8 1.1zm34-19.5q6.6 1.4 6.6 6h1.4q1.6.3 1.6.9v.6q0 .5-3 .8 0 4-5.8 6.1-.3 0-.3.3v.8q5.4 0 6.4 7.5-1.7 6.6-6.7 6.6h-1q-4.8 0-6.6-6h-2q-.4 0-.8-.9v-.5q0-.6.5-.6h2.3q0-4 6-6.4v-.5l-3.5-2q-2.5-2.3-2.5-5.8v-.3q0-5.6 7.4-6.6zm-5.6 6.9v.6q0 4 5.3 5 4.7 0 5.2-5.9 0-3.6-5.2-4.7h-.3q-5 1-5 5zm5.3-1.4q1.2.6 1.3 1.1v1.1q0 .4-.8.9h-1q-.4 0-1.1-1.1 0-2 1.7-2zM116.2 63v.8q1 5 4.4 5h1.1q4.1 0 5-5.3-1-5.2-5.2-5.2-5.3 1-5.3 4.7zm39.2-22q6.9 0 12.4 4.4 0-.5 3-3h.7q.5 0 1.1 1.1v.4l-3.3 3.8q4 5.2 4 11.6 0 6.7-4.4 10.8h-.8q-.5 0-1-1.1 3.7-4.9 3.7-10.1-2.6-15.4-14.3-15.4v6.4l5.7 3.4q2.6 3.2 2.6 7.5 0 7-9.4 9-10.1-1.1-10.1-10.2 1.7-9 8.6-9v-7q-9.7 0-14.6 14.2v1.8q0 3.8 3 10.5l-1.1.8h-.8q-1.9 0-3.7-11.3 0-5.2 4.1-11.2V48q-3-2.8-3-4.5 1.2-.7 1.9-.7 0 .5 3 3h.3q5.4-4.9 12.4-4.9zm-7.5 19q1.1 7 7.1 7 7.2-1.1 7.2-7-1.2-7.2-7.2-7.2-7 1.1-7 7.1zm7.1-2.2q1.2 0 2.3 2.2 0 1.1-2.3 2.3-1 0-2.2-2.3 0-1.1 2.2-2.2zM185 41h.5q.4 0 .9.8V49q4.7 0 6 6.8-1.3 6.8-6 6.8 0 .3-.3.3l.3.5v5.8q0 1.3-.9 1.6h-.5q-.5 0-.5-.6V63q-4.6 0-6.3-6.5V56q1-7 5.7-7 0-.3.6-.3v-7.4q0-.5.5-.5zm-4.9 14.6v.6q1 4.9 5 4.9h.2q5.1-.8 5.1-5.2-.9-5.1-5.1-5.1-5.2.8-5.2 4.8zm5.2-1.3q1.2.5 1.4 1v1.2q-.2.5-1.4 1-1.6 0-1.6-1.9.5-1 1.6-1.3zm12.6-13.4H220q.8 0 .8.7v1q0 .8-.8.8h-10v9.3q7.9 2 7.9 7.8v2.9q0 5.4-8.2 7.5h-1.8q-8.2-1.8-8.2-8.2v-1.8q2-8.2 7.8-8.2v-9.3H198q-.5 0-1-1v-.5q0-.5 1-1zm4.3 20.3v1.1q1 6 6 6h1.8q4 0 5.8-6.4-1.6-7-6.8-7-6.8 1-6.8 6.3zm6-1.4h1.1q.6 0 1.5 1.4v1.1q0 .6-1.5 1.4h-1q-.6 0-1.5-1.4v-1q0-.6 1.5-1.5zM73 98.3l-23.2 45.2h3L72.7 124 92 143.5h3.8L73 98.3zm50 0-23.3 45.2h3.1l19.7-19.5 19.5 19.5h3.9l-23-45.2zm50 0-23.3 45.2h3l19.8-19.5 19.5 19.5h3.8L173 98.3zm49.9 0-23.3 45.2h3.1l19.7-19.5 19.5 19.5h3.9l-23-45.2zm50 0-23.3 45.2h3l19.8-19.5 19.5 19.5h3.8l-22.9-45.2zm-223.1 120L73 263.5l23-45.2h-3.8l-19.5 19.5L53 218.3h-3.1zm50 0 23.2 45.2 22.9-45.2H142l-19.5 19.5-19.7-19.5h-3zm49.9 0 23.2 45.2 23-45.2h-4l-19.4 19.5-19.7-19.5h-3.1zm50 0 23.2 45.2 22.9-45.2h-3.9l-19.5 19.5-19.7-19.5h-3zm49.9 0 23.2 45.2 23-45.2h-3.9l-19.5 19.5-19.7-19.5h-3.1z"/><path stroke="#000" d="M252.6 152.8h39.1v56.7h-39.1zm-49.6 0h39v56.7h-39zm-49.8 0h39.2v56.7h-39.2zm-49.6 0h39.1v56.7h-39.1z"/><path fill="#000" d="M72.4 167.1h1.8q7 0 8.6 9.4-.4 3.7-2.5 6.1l5 4.7q3.3-3.5 4.7-11.5.1-.8.7-.8h.4q.5 0 1 1.5 0 11.8-12.9 17.6-2.8.7-5.7 1-13 0-18-13.6-.7-1.4-.7-4v-1.4q0-.5 1-1h.4q1 0 1.8 6.8l2.5 4.6q.6 0 5-5-1.4-2.4-1.4-4.3v-1.8q2-8.3 8.3-8.3zm-5.7 8.3v1.4q1.3 6.5 6.4 6.5 5.9 0 7.2-7.2-1.5-6.4-6.5-6.4h-1q-6.1 1.2-6.1 5.7zm6-1h1.1q.6 0 1.5 1.4v1q0 .6-1.5 1.5h-1q-.6 0-1.5-1.5 0-1.9 1.5-2.5zm-5.7 9.3-4.3 4.6q5.2 4.4 9.3 4.4v-7.2q-1 0-5-1.8zm7.6 1.8v6.8h1q2.5 0 7.6-2.9v-.3q-4-4.7-5-4.7-1.9 1-3.6 1zm63.4-18.4q.6 0 .6 1-2.2 24.5-2.9 24.5l-.6.4q-1.4-1-6.7-5.5-1.5 1-4.8 1.6-8.2-1.6-8.2-8v-.9q0-1.3 1-3.5l-4.3-3.2-2.5 21.4-.6.3h-.3q-.5 0-1-1 2.2-24.2 2.9-24.2h1l6 5.1q2-2.6 6-2.6h.7q6.2 0 7.6 8.3 0 2.4-1.9 5.1l4.1 3.5q2.3-21 3-22.3zm-20.4 13.4v1q0 4 6 5.4 5.1 0 6-6.4 0-4.6-6-6-6 1.2-6 6zm6.3-1.6q1.3.5 1.3 1v1.6q0 .4-1 1H123q-1.3-.7-1.3-2 .5-1.6 2.2-1.6zm48.8-11.8q8.3 0 12.7 8.3 1.4 3 1.4 5.9 0 9.8-11 13.6l-2.8.3q-10.1 0-14-11l-.2-3.2q0-9.3 10.5-13.3zm-12 14.2q0 8.2 9.4 11.6l1.7.3v-4.8q-4.8 0-6.2-6.5v-1.4q1.4-6.6 6.5-6.6h1.4q6.5 1.5 6.5 6.6v1.4q-1.4 6.5-6.2 6.5v4.8q5.7 0 10.2-7.4.9-3.4.9-4.8 0-8.4-9.7-11.6l-2.5-.3q-8.3 0-11.6 9.7zm6.6-.3q1.3 5.7 5.4 5.7 5.4-1.2 5.4-4.5v-2q0-3.3-4.8-4.3h-1q-5 1.2-5 5.1zm5-1.4h1q.4 0 1 1.1v.9q0 .4-1 1.1h-1q-.3 0-1-1.1v-.9q0-.4 1-1.1zm50-12.5h.7q.6.1.6.7v11q3 0 5.8 3.2 4.6 0 5.5-7.8 0-1.6.6-1.6h.7q.2 0 1 1-1.3 10.6-6.8 10.6.6 1.7.6 2.6-1.5 8.4-7.7 8.4h-1.6q-5.8 0-7.4-7.8v-1l.3-2.2q-6.8-1.6-6.8-11l1-.6h.3q.9 0 2 6.5 2 2.9 3.8 2.9h.7q3.4-3.3 5.8-3.3v-10.6q0-.5 1-1zm-5.8 19v1.7q0 3.7 5.8 5.4 5.4 0 6.5-6.7 0-4.3-6.2-5.8-6 1.4-6 5.5zm5.5-1h.3q2 .3 2 1v1.3q0 .6-1.3 1.3-2.3 0-2.3-1.9.6-1.5 1.3-1.6zm65-18q.6 0 .6 1-2.2 24.5-2.9 24.5l-.6.4q-1.4-1-6.7-5.5-1.5 1-4.8 1.6-8.2-1.6-8.2-8v-.9q0-1.3 1-3.5l-4.2-3.2-2.6 21.4-.6.3h-.3q-.5 0-1-1 2.2-24.2 2.9-24.2h1l6 5.1q2-2.6 6-2.6h.7q6.2 0 7.6 8.3 0 2.4-1.9 5.1l4.1 3.5q2.3-21 3-22.3zm-20.4 13.4v1q0 4 6 5.4 5.1 0 6-6.4 0-4.6-6-6-6 1.2-6 6zm6.4-1.6q1.2.5 1.2 1v1.6q0 .4-1 1H272q-1.3-.7-1.3-2 .5-1.6 2.3-1.6z"/></svg>