<svg xmlns="http://www.w3.org/2000/svg" fill="none" viewBox="0 0 348 348"><path stroke="#000" stroke-width="2" d="M5.5 5.2h337v337.6H5.5z"/><path stroke="#000" stroke-width="2" d="M283.2 40c0-8.4 7-15.2 15.6-15.2 4 0 8 1.6 11 4.4a15 15 0 014.5 10.7c0 8.4-7 15.2-15.5 15.2-8.6 0-15.6-6.8-15.6-15.2z"/><path stroke="#000" stroke-width="3" d="M30.7 24H156v120.9H30.7z"/><path fill="#000" d="M205.5 39.5l-.2.4-.5.3-.5.2-.4.2-.3.2-.3.2-.2.2-.3.2h-.9q-.2 0-.3.2-.2.1-.3.4-.2.3-.2.7l-.2.7q0 .3-.3.5-.2.2-.6.2 0 .3.2.5l.3.5.3.4.2.5-.1.5-.1.5v1.2l.1.8q.2.4.2.9l-.1.5-.1.5.1 1.7q.2.8.2 1.7v1.3q-.2.7-.6 1.2 0 .3.2.5l.2.4.1.5q.2.2.2.6l-.1 1q0 .6-.3 1.2l-.5 1q-.3.4-.8.4h-.1v.1l.1.6q.2.2.2.5l-.2.4-.4.5-.5.4-.4.4-.3.4-.2.3-.3.2-.4.2q-.6 0-1 .3l-.8.4-.8.4-1.1.1h-.7l-.7-.2-.6-.2-.7-.1h-1.4l-.2-.1q-.1-.2-.4-.3l-.4-.1-.5-.2-.4-.1q-.4-.1-.7-.5l-.7-.7-.5-.8-.3-.8-.3-1.4-.2-1.5-.2-1.4q0-.8-.2-1.5l-.2-.6v-1.5l.3-1.7.1-1.8-.1-2.4-.1-2.3v-.9l.2-.8.1-.8v-.2l-.1-.3q-.3-.5-.3-1v-1q-.2-.9-.5-1.3-.2-.3-.7-.5l-.9-.3q-.5-.1-1-.5l-.3-.3-.1-.3q0-.3.3-.6.4-.3.9-.4l1-.3h3.3q.6-.2 1.3-.2h.8l1.1.4 1 .4q.4.3.4.7 0 .4-.3.8l-.7.8-.9.8-.9.8-.7 1q-.2.6-.2 1.3v1.7L187 48q-.2.8-.2 1.7l.2 1.2.2.8v.7l-.1.5v.6l-.1.5-.2.4-.2.3-.1.3.2-.1h.4l.2.3v.5l.2 1 .2 1.1-.1 1v1.8q0 .4.5.7l.2.2.2.5.3.5.2.3.6.4.5.3q.4 0 .6.2l.5.5.5.4.6.3.5.5q.2.2.2.5v-.4.4l.1-.2.2-.3.2-.2.2-.1h.2l.1.3v.4l-.1.4h.4l.4-.3.3-.3.1-.5q0-.2-.2-.3h-1q0-.4.3-.6l.4-.3.6-.2.6-.2.7-.5.5-.6.4-.6.6-.6V58q.2-.4.2-1l-.1-.7-.1-.8v-.7l.2-.8-.1-1.1-.1-1.2.1-1.5q.2-.7.2-1.5l-.2-2q-.2-.9-.2-1.9V44l.2-.5.3-.1-.4-.3-.6-.5-.4-.6-.2-.5h-1l-.5-.3-.5-.2-.5-.1h-.2l-.2-1-.2-1q0-.4.2-.7l.6-.3q.3-.2.7-.2h3l.8-.1q.3-.2.7-.2h.5l.5.3.6.2.5.2h1.7l.8.2q.4.1.7.4l.3.4.2.4zM229 57l-.1 2.2-.2 2-.4-.2-.3-.1-.4.1-.2.4q0 .3.2.3l.5.1h.3l-.2.5-.3.5-.4.5-.4.4-.3.3-.3.5-.3.3-.4.2-.3-.1-.3-.1q-.3 0-.3.2v.7l-.5.3-1 .3-1.3.4-1 .4-1.8.6-1.8.2q-.7 0-1.3-.2l-1.3-.3-1.2-.4-1.3-.2h-.7q-.5.1-.7.3l-.2.3q-.1.2-.3.2h-.2l-.3-.2q-.5-.2-.8-.6l-.6-1-.3-.9-.1-1v-.7l.1-.7v-1l-.2-1 .1-.7.1-.7v-.5q-.2-.2-.2-.5l.1-.3q.2-.1.2-.3v-1.8l.1-.4.3-.1q.4 0 .8.4l.7 1.1.5 1.2.2 1v.2h-.3l.2.5.1.4v.5l-.1.5v.4l.2.3.3.4.3.2h.3l.5.1q.4.6 1 1.1l1 1 1.9.3 1.8.1q.8 0 1.3-.2.6-.1 1-.4l1-.6 1-.7.7-.5.8-.5.7-.5.5-.7.5-.5.2-.6v-.2l-.1-1.3V57l-.3-.9-.6-.5-.7-.5-.8-.5q-.4-.4-.9-.5l-1-.1-1-.1q-.5 0-1-.4h-.5l-.4.1h-.6l-.6-.2-.7-.2-.6-.2h-.7l-.4-.1-.5-.2-.6-.4q-1-.7-2.3-1L211 50l-.5-.2-.4-.3q0-.3-.3-.8l-.4-1-.3-1.2-.1-.7v-1q.2-.4.6-.7l.1-.1.1-.2-.2-.2-.1-.2v-.1l.5-1 .6-.7.8-.7.8-.6.4-.5.5-.4h1.1l.3-.1.2-.3.2-.1.5-.1h6.3l.7.2.7.1.5-.1.3-.3q0-.2.2-.3.1-.2.4-.2.5 0 1 .3l.8.3V40l.3.7.2.7.1.7v.8l.1.6.2.3q0 .2-.2.3l-.1.3v1.1l.1 1V48l-.3.6q-.2.3-.4.3-.4 0-.6-.3l-.5-.5q-.3-.2-.4-.6l-.2-.7-.2-.7-.3-.7-.6-1-.6-1-.4-.5-.4-.1-.4-.1h-.6l-.7-.3q-.4 0-.7-.2l-.8-.2h-.7l-1.2.1-1.3.5-1.2.6-1.1.4q-.6 1.1-.6 2.4 0 1 .2 1.5.2.6.6 1l.8.7 1 .6 1 .5 1.2.1h2.2l.6.3.7.3h2.1l.5.1.5.3.4.3.5.2.7.4.5.3.4.5.5.6q.2.4.6.7l.6.7v.4l.1.4.2.3.3.1v.9zm25.1 9l-.1.4-.3.4-.5.3h-1l-.2.2-.1.2-.2.2-.4.1H250q-.4.3-.8.3l-1-.2q-.8 0-1.5-.3-.7-.2-1.2-.6-.6-.3-.6-.8 0-.3.4-.7l1-.8.8-1q.4-.6.4-1.3l-.1-.8-.5-.8q-.2-.4-.6-.7l-.6-.6h-.3l-1.2.1-1 .1h-.7q-.3-.1-.4-.5l-1 .5-1.1.4-.5.2-.3.2v.2l-.2.5-.1.4v.3l-.1.5-.2.3-.2.2-.1.4v.4q0 .4.2.5.1.2.4.3l.5.2.4.2q.3.1.4.4l.4.6.3.6v.6h-.2l-1.7.2-1.6.1-1.6.2h-2.5l-1-.1q-.6 0-1-.3-.4-.2-.4-.6 0-.5.2-.8l.5-.4.7-.4.8-.2.8-.3.6-.3q.3-.2.4-.7l.3-1 .2-1 .1-.9v-.9l.2-.2.3-.4h.1v-.3l.1-.7.1-.4.2-.3.2-.1.1-.3-.1-.5-.2-.6.1-.3.2-.2.2-.2v-.6l-.1-.5v-.2l.3-.1.3-.1.1-.1-.2-.1q-.3 0-.3.2l-.2-.2-.1-.3v-.4q.2-.1.3-.4l.3-.5v-1.5l-.2-.8.1-.5.2-.4.3-.3.2-.5.1-.8v-.9l.1-.8q0-.5.3-.8l.3-.6.2-.4.1-.4.1-.6.3-1.2q.3-.5.3-1.1v-.8l.2-.6q0-.2.3-.4l.8-.4 1-.2 1.1-.1h1.3q0 .4.3.7l.4.5.4.6q.3.2.4.6v1l.4.7.2.6-.1.9q-.2.4-.2.9l.2.9.4 1.3.4 1.4.3 1 .2 1.6q0 .8.3 1.6l.4 1.7.3 1.7q0 .8.2 1.5l.3 1.5.4 1.5.1 1.6v.7q0 .3-.3.6l1 1q.5.7 1 1l.7.2.9.2q.4 0 .7.2.4.2.4.5zm-8.7-11.2l-.1-.5-.3-.7-.3-.8q-.2-.4-.2-.9l-.2-1-.2-1.2v-1l-.3-1-.5-.8q-.3-.3-1-.3l-.1.2-.3.1-.2.1q-.2 0-.3.2v.1l-.1.7-.3.7-.2.7v2.9l-.3.6-.1.5-.1.6v1q0 .5.2.8l.4.5.8.1h1l1.2-.3q.6-.2 1-.6.5-.3.5-.7z"/><path stroke="#000" stroke-width="2" d="M171.5 24h92.9v56h-92.9zm-.6 66.9h92.9v54.6h-92.9z"/><path fill="#000" d="M90.4 107.2q-.3.8-.9 1.4l-1.2.7-1.6.4h-3.8l-2.2-.4-1.5-.1-1.7-.2q-.8-.2-1.4-.6-.6-.4-.6-1.2 0-1 .4-1.4.4-.5 1-.7.5-.2 1.2-.2t1.3-.2l1-.7q.4-.5.4-1.6l-.2-1.4-.3-1.4-.3-1.3v-1.4l.2-1q.3-.6.3-1.2 0-1.2-.2-2.3l-.6-2.2q-.3-.7-.3-1.3 0-.6.2-1.1.3-.6.3-1.2 0-.8-.3-1.6-.2-.7-.2-1.6l.2-2 .2-2.2-.1-1.7-.5-1.8-.5-1.7q-.2-1-.5-1.6-.7.3-1.2.9-.5.5-.8 1.2l-.5 1.5-.3 1.5q-.2 1.6-.8 3-.6 1.4-.8 3l-.4 3.6q0 1.9-.2 3.7 0 1.8-.4 3.6-.3 1.8-1.1 3.5l-.4 1.3-.1 1.2v2.2q0 1.2-.2 1.8l-.5 1-.7.8q-.3.3-.4 1-.1.7-.7 1-.5.4-1.2.6l-1.4.3-1.2.4q-.4-1-1-1.7l-1-1.6q-.6-1-.8-2-.1-1-.5-2l-.3-.8-.4-.7-.3-.7q-.2-.4-.2-1v-.7l.1-.9q0-.9-.3-2l-1-3.8q-.6-2-.7-4l-.4-3.9q0-2-.8-3.8l-.8-1.7q-.5-.8-.8-1.7l-.1-.6-.2-.9q0-.5-.2-.8-.1-.4-.3-.4-.2.1-.3.4l-.4 1-.3.5-.3.3-.5.7q-.4.4-.4 1 0 .8.4 1.7.4.8.4 1.7l-.1 1q-.2.3-.2.8 0 1 .3 2.2.4 1.1.4 2.2 0 1-.3 1.8t-.3 1.7q0 1 .2 1.9.3.8.3 1.8 0 .8-.2 1.5l-.4 1.4L53 99l-.1 1.5q0 1.6.6 2.3.6.6 1.5 1l1.8.7q1 .3 1.6 1.2-.4.6-.5 1.3l-.6 1.2-.6.7-.7.3-.7.1q-.4 0-.8.3-.4.2-.6.5l-.3.3-.5.3h-2.2l-1.3-.2-1.4.2q-.6.2-1.3.2-.9 0-1.7-.3-.8-.3-1.5-.8-.6-.5-1-1.2-.4-.8-.4-1.7 0-1.3.6-2 .5-.7 1.3-1l1.8-.8 1.9-.7.2-1.4v-3.6q-.2-1.1-.2-2.3l.2-1.4q.2-.7.2-1.5l-.2-.8q-.5-1.4-.7-2.7v-4.2l.5-1.2.4-1.3.1-1.3-.1-2.3-.2-2.4q0-.8.2-1.5l.1-1.5q0-.8-.3-1.5t-.3-1.5q0-.6.3-1t.3-1q0-.3-.3-.6t-.3-1v-1.2l.1-1.1q0-1.2-.4-1.9t-1-1q-.5-.4-1.2-.5l-1.2-.4-1-.4q-.3-.2-.3-.8 0-.5.5-1l1.5-1 1.8-1 1.9-.9 1.4-.6.7-.4.5.4h1.2l.6.1.6.4.3.3.5.4 1 .4q1.4.4 2.2 1.1.7.7.7 2.3v.9l-.1.8 1 2.8.2.9.2.8q.5.4.7 1l.3 1.6.2 1.5v1.4l.5 1.7q.3.8.3 1.7 0 .6-.2 1.1l-.2 1.1q0 1 .3 2l.6 2q.4.9.6 1.9l.4 2V86l.3 2.2.5 2.4q.2 1.3.6 2.3l.8 1.7q.5.7 1.1.7.7 0 1-.4l.2-1v-1q.1-.6.6-.8.4-.3.7-1l.5-1.5.3-1.6.1-1.2.1-4.2.1-4.3q0-2.1.4-4.2.2-2.1.8-4l.4-.6.3-.6.4-.6.1-.6-.1-.4-.3-.3-.2-.2-.1-.3v-.3l.3-.2q.6-.6.7-1.7l.2-2.4v-2.5q.1-1.2.6-2l.9.1 1-.2 1-.5 1-.4q.5-.2 1.1-.2h.9q.7 0 1.4-.3.6-.4 1.3-.4l.3.1.2.3.1.2.3.1 1.3-.1 1.4-.2.7.1.5.5q.3.5.9.6l1 .3q.6.1 1 .4.4.2.4.9 0 1.3-.6 1.8-.7.5-1.6.7l-1.7.3q-.8.2-1.2.8-.4.6-.4 1.4-.1.8-.4 1.5l-.2.6-.1.6.1 1.2.4 1.2.4 1.1.3 1.2q.2 2 .2 4.2l-.1 2.4-.3 2.5-.3 2.5-.1 2.4q0 1-.6 1.5v1l.1 2.2.4 2.3.3 2.2q.2 1 .2 2.2 0 1.5-.5 3-.4 1.5-.4 3 0 1.1.5 1.8.4.7 1.7.7h1l1.2-.2 1.1.2q.6 0 1 .5v.5l.2.6v.5q0 .1-.2 0zM54.4 69l-.2-1.5q-.2-.7-.9-1.1v1.4l.1 1.2q.2.6 1 .7V69zm30.4 36q0-.2-.3-.4l-.6-.1h-.3l-.4.1-.4.2-.1.3q0 .2.3.3h1.3q.5 0 .5-.4zm-17.1-5.4h-.6q-.6 0-1.1.2-.5.3-.5 1v.5h.6q.6 0 1.1-.2.5-.3.5-1zm73-28.4l-.2.7-.5 1-.5 1q-.2.5-.4.6h-.3l-.3.1h-.4.2q-1 0-1.7-.3t-1.1-1.2l-.3-.5-.3-.9-.2-.8-.1-.7v-.6l.1-.7-.2-2.4q-.3-1.1-.3-2.3 0-.8.2-1.5.2-.8.7-1.4h-.2q-.4 0-.7-.3-.3-.3-.9-.3-1.5 0-2.9.4-1.4.3-3 .3H125q-1.3 0-2.4.2-1.2.3-2.3.3l.2-.2.3-.3-.3-.1h-.3q-.3 0-.6.3-.2.3-.6.4l-1.2.2h-2.4q-.8 0-1.5-.2l-1.4-.4q-.6-.3-.6-.9-.5.1-.6.4l-.3.6-.2.6q-.2.2-.8.3-1.1 0-1.4.7-.3.6-.3 1.4v11.8l.5 2q.3.7.8.9h1.4l2.6-.2q1.3-.3 2.7-.3l1 .1 1 .2q.7 0 1.1-.7.5-.8.6-1.7l.2-2v-5.3h.2q1 0 1.8.4.9.3 1.8.3h.6q0 .7.3 1.5l.2 1.6q0 1-1 1.3l.5 1 .2 1.2-.1.9-.1.8q0 .4.2.6.3.2.3.5 0 .4-.4 1.1-.3.7-.3 1.5l.1 1.8.4 1.9.3 2q.2 1 .2 2.1l-.1 1.3q0 .7-.3 1.3-.2.6-.6 1-.3.6-.9 1l-1.2-.5-.9-.9-.5-1.2-.2-1.3-.2-1.9q0-.8-.4-1.4-.3-.6-1.4-1-1-.3-3.2-.3l-1.7.1q-1.2.1-2.3.4-1.1.3-2 .8-.8.6-.8 1.4v1l.2.8v3.7l.2 2q0 1.2-.4 2.3-.2 1-.2 2.2 0 1.3.6 2t1.5 1l2 .6h2q2 0 3.8-.2 1.8-.2 3.7-.2l2.3.1 2.4.1h2q1 0 2-.4 1-.3 1.7-.9.8-.6 1-1.7 0-.3.2-.5l.3-.2.4-.2q.2-.1.2-.4l-.2-.7-.4-.8-.1-1.5v-1.5q0-1.2.3-2 .4-.9.4-2v-1q0-.2.3-.5l.8-.4 1-.3.6-.1q1 0 1.6.7.7.7 1 1.6l.4 2 .2 1.8-.2 2.8-.6 3-.7 3.2q-.4 1.5-.9 2.6l-.4.8-.5.5-.6.3-.6.6q-.3.3-1.2.4l-1.8.1h-2.4q-1.3 0-2.1.3t-1.5.3q-.5 0-.7-.2-.1-.2-.4-.2-.3 0-.5.2-.3.2-.7.2h-2l-5.8.1-5.7.3q-2 0-4 .5-2 .4-3.9.4l-1.6-.2q-.9-.1-1.7-.5-.8-.3-1.3-.9-.6-.6-.6-1.5t.7-1.6q.6-.8 1.4-1.5l1.9-1.2 1.5-1v-2.4l.2-1.1q0-.4.4-.8.3-.5.3-.9l-.1-.5-.2-.5-.6-1.9-.1-2v-2.2l.2-1 .4-1.2-.3-.8-.2-.9.5-5.5v-.4l.1-.7.1-.7q0-.9-.3-1.7-.3-1-.3-1.8l.1-.8.4-.9.3-1 .2-1.4q0-.6-.3-1-.2-.3-.2-.8l.2-1q.2-.4.2-1 0-.8-.3-1.5l-.6-1.4-.7-1.5q-.2-.6-.6-1-.3-.4-1-.5-.5-.2-1.7-.3-.5 0-1-.3t-.9-.8l-.6-1-.2-1q0-.7.6-1.2.7-.5 1.6-.8l2.2-.5 2.3-.2 2.1-.2 1.5-.1 1.5-.2h1.5l3 .1 3.1.1q1.7 0 3.2-.3 1.6-.3 3.3-.3 1.4 0 2.9.3 1.4.3 2.8.3t2.7-.3 2.7-.3h1.1l1.6 1.6 1.2 1.3q.6.6.9 1.5.3.9.5 2.3v2.5q0 .7.2 1.2.2.6.6.7 0 .5-.5.5 0 .6.2 1.1l.4 1.2.3 1 .2 1.1zM107 80.8h-.4l-.3.4q1.5.9 2.4 1.7L110 84l.8.5q.2 0 .4-.5.3-.7 0-1.3-.5-.6-1.2-1-.7-.5-1.6-.7-.8-.3-1.4-.3zm109.9 54.5l-.2.6-.4.5-.6.4-.5.2h-.4l-.4-.1q-.2 0-.3.2l-.2.3-.2.3-.5.1h-.9l-1 .1-1 .2-1.4-.1-1.9-.5q-1-.3-1.6-.7-.7-.5-.7-1.1 0-.5.5-1l1.2-1 1.1-1.3q.6-.8.6-1.7 0-.6-.3-1.2l-.5-1-.8-.9-.9-.7h-1.9l-1.4.2h-.8q-.4-.2-.5-.6l-1.5.6-1.4.6-.7.2-.3.2-.1.4-.2.6-.1.5v.5q0 .3-.2.5 0 .2-.3.4l-.2.4q-.2.2-.2.5l.1.4v.1q0 .4.2.7l.5.3.7.3q.4 0 .6.2.3.2.5.6l.5.8.4.8.1.7v.2h-2.5l-2.2.3-2.1.2h-3.2l-1.5-.1q-.7-.1-1.2-.4-.6-.3-.6-.8 0-.6.3-1t.7-.6l1-.5 1-.3 1-.3.8-.5q.3-.2.6-.8l.3-1.4.3-1.4.1-1v-.4l.1-.4v-.5l.1-.2.4-.6.2-.1.1-.3v-1q0-.3.2-.4l.2-.4.3-.2.2-.4q0-.4-.2-.7-.3-.3-.3-.7 0-.2.2-.3 0-.2.2-.3l.3-.3v-1l-.2-.6q0-.2.2-.3l.3-.2h.3q.2 0 .2-.2l-.3-.1q-.3 0-.3.3l-.4-.3-.1-.4.1-.5.3-.5.4-.7.1-1-.2-1-.1-1.1v-.6l.4-.5.3-.5.3-.6.2-1v-2.3l.4-1 .4-.8.3-.5.2-.6.1-.8.4-1.5.4-1.6v-1l.2-.7q.2-.4.5-.6l1-.5 1.4-.3 1.4-.1h1.7q0 .5.3.9l.6.7.6.7q.3.4.4.9l.2 1.2q0 .5.4 1 .2.3.2.8 0 .6-.2 1.1l-.1 1.2.2 1.2.5 1.8.6 1.8.4 1.3q.2 1 .2 2.2 0 1 .4 2l.6 2.3.3 2.2q0 1 .3 2l.4 2 .5 2q.2 1 .2 2.1l-.1.9q0 .4-.4.7l1.3 1.5q.8.8 1.5 1.2.2.2.8.3l1.2.2q.6.1 1 .4.5.2.5.6zm-11.5-14.7l-.1-.6-.5-.9-.4-1-.2-1.2q0-.8-.2-1.5l-.3-1.5-.1-1.3q0-.7-.3-1.3-.2-.7-.7-1-.4-.5-1.3-.5 0 .2-.2.3l-.3.2h-.3l-.3.3v.2l-.2 1-.4.8-.3 1v3.6l-.3 1-.3.6v2.2q0 .6.2 1t.6.6q.3.2 1 .2l1.2-.1 1.7-.4 1.4-.7q.6-.4.6-1zm44 9.1l-.2.6-.1.7.1.5.1.6v.7l-.3 1-.2 1-.3.5h-.8q0 .6-.3 1.2-1 .5-1.8.6l-1.6.2h-3.3q-.7.1-1.5.6h-1.5l-1-.3-1-.2-1-.1-1.5-.2-1.5-.1h-1l-1 .3-1.1.2-1 .1-1-.1-1-.1-1.7.1-1.7.2q-1.2 0-2-.6-.7-.5-.7-1.8l.2-.8q.7-1.2 1.3-1.7.7-.5 1.3-.7l1.2-.3q.5 0 1-.3.3-.3.6-1 .2-.6.2-2 0-1.6-.3-3.1-.2-1.6-.2-3.3l.1-1.5.2-1.6-.1-2.6-.1-2.7q0-1-.3-1.8l-.2-1.8v-1l.2-1v-1.7l-.2-1.6-.2-.8q0-.4-.3-.7-.2-.4-.5-.5-.4-.2-1-.2l-.9.1-1 .2h-.5l-.6-.2-.2-.4-.2-.5-.3-.4-.5-.3.6-1 .5-1.3q.3-.6.8-1 .4-.4 1-.4l1 .2q.4.3 1 .3t1.2-.3q.6-.3 1.3-.3.5 0 1 .4l.9-.1h.5l.5.1q.9 0 1.6-.2l1.6-.2 1.3.1 1.1.5 1.2.5 1.2.4v.7l-.2 1-.2 1q-.2.7-.5.9l-.8.1h-1l-2 .2q-1 .1-1.9.4-.3.5-.3 1.2l.1 1 .2 1-.5-.2-.6-.1-.4.2-.1.5.1.3.3.2.4.1h.4v.6l-.2 2-.2 2v1.1l-.1.5h-.9q-.2.1-.2.3v.6l.1.3h.8q.2.1.2.3v.6l-.1.5q0 .7.3 1.4t.3 1.4q0 .7-.2 1.3l-.2 1.3.1.8.3.8.3.8.1.8q0 .6-.2 1.1l-.2 1.1v.4l.3 1.5q0 .9.3 1.7.3.7.8 1.3.4.5 1.3.5t1.7-.2q.8-.3 1.6-.3l1 .1 1 .3 1 .3 1 .1q.9 0 1.7-.2l1.6-.3q1.1-.2 1.7-.8.6-.5.6-1.8 0-1.2-.3-2.3-.3-1.2-.3-2.4 0-.8.2-1.4l.7-1.3 1.3-.2q1.2 0 1.7.8.5.7.5 1.8 0 .5-.2.7-.2.1-.2.3l.1.2.3.2.2.3.1.4-.1.3v.7l-.1.9v.8l.1.6z"/><path stroke="#000" stroke-width="2" d="M283.8 124.5c0-8.4 7-15.2 15.5-15.2 4.2 0 8.1 1.6 11 4.5a15 15 0 014.6 10.7c0 8.4-7 15.2-15.6 15.2s-15.5-6.8-15.5-15.2z"/><path fill="#000" d="M307.1 131.3v.3l-.1.3q-.2 0-.2.2v.6h-.5v.4l-.1.1-.5.2-.5.1h-.3l-1-.1-.8-.3q-.6-.2-.8-.6l-.4-1-.2-1q0-.6-.2-1v-.7l.1-.1v-.4l-.1-.4v-1.4l-.3-.6-.4-.5-.4-.6h-3.8l-.4.3-.3.3-.1.5v.4l-.2 2.2v.3l-.1.4q0 .5.2.8.2.4.5.6l.7.3.7.3.5.3q.3.2.3.5l-.1.3-.1.2-.3.4-.4.2-.3.1-.5.1-.5.1H295l-.7-.1h-.6l-.5.1-.5.1h-1l-.4-.1-.3-.3-.1-.3v-.4l.3-.2.3-.2h.6l.2-.1h.1l.2-.2.1-.1h.4l.2-.1.4-.4.2-.6v-.6l.1-.5v-1.5l-.1-.9v-1l.1-1.2v-.5l.1-1.9.1-1.8v-1.5l-.2-.7-.1-.6-.2-.6-.4-.4q-.2-.2-.5-.2h-.5l-.2-.2v-.6q0-.4.2-.6l.5-.3h1.4l.7-.2.7-.1 1 .1 1 .2.8-.1.8-.2h1.3l1 .2.7.1.7.3.6.5.3.6.2.4.3.4.2.3.2.2-.1.2-.1.1v.1l.3.2.2.3v.5q-.2.1-.2.3h.2v2q0 .3-.2.5 0 .3-.3.4l-.2.2h-.2l-.2.2-.2.3-.2.4-.3.4-.3.3-.1.5.1.7.4.6.2.8v.7l.1.7v.7l.2.6.2.7.4.6.3.3q.2 0 .3-.2l.2-.4.2-.5.4-.3q.4 0 .6.2l.5.3.2.5v.7zm-3.9-12v-.4l-.2-.5-.3-.5-.3-.3h-.3l-.2-.2v-.1l-.2-.2-.8-.3-.9-.1h-.3l-.2.1h-.6l-.6-.1h-.9l-.6.2-.5.2-.4.4-.1.6v.8l.1.8v.4l-.1.3-.2.4v.8q0 .3.2.5l.3.3h1l.5-.1h.3l.2.2.3.1.3.1h.3l.2-.1 1-.4 1.1-.2.4-.1.4-.5.4-.5.4-.6.2-.6.1-.4z"/><path stroke="#000" stroke-width="2" d="M50 198h60v60H50zm60 0h60v60h-60zm60 0h60v60h-60zm60 0h60v60h-60zM50 258h60v60H50zm60 0h60v60h-60zm60 0h60v60h-60zm60 0h60v60h-60z"/><circle cx="80" cy="228" r="25" fill="#3d3d3d"/><path fill="#3d3d3d" d="M117.5 205.5h45v45h-45z"/><path fill="#3d3d3d" fill-rule="evenodd" d="M175 228l25-25 25 25-25 25zM237.5 250.5l10-45h25l10 45zm-180 60l10-45h35l-10 45zM117.5 310.5L140 263l22.5 47.5z"/><path fill="#3d3d3d" d="M187.7 263q6.8 0 10.7 7.9 1.4 3 1.5 4.7 1.3-5.4 4.3-9 3.7-3.6 8.2-3.6 7 0 11.2 7.5 1.1 2.8 1.1 5.2 0 8.4-7 16L200 313h-.2l-18.9-23q-5.6-6.9-5.6-14.2 0-7 6.7-11.2 2.8-1.5 5.7-1.5zM260 261.8l6.5 20h21l-17 12.4 6.5 20-17-12.3-17 12.3 6.4-20-16.9-12.4h21z"/></svg>