<svg xmlns="http://www.w3.org/2000/svg" fill="none" viewBox="0 0 348 348"><path stroke="#000" stroke-width="2" d="M342 6v337H5V6Z"/><path d="M140-328h68v48h-68z" style="fill:#000;fill-opacity:1;stroke:#000;stroke-width:3.55694;stroke-miterlimit:4;stroke-dasharray:none;stroke-opacity:1" transform="rotate(90)"/><path d="M20-327h99v46H20zM230-328h98v47h-98z" style="fill:none;fill-opacity:1;stroke:#000;stroke-width:2;stroke-miterlimit:4;stroke-dasharray:none;stroke-opacity:1" transform="rotate(90)"/><path d="m281 28 45 20 1 21-46-20zM281 70l45 20 1 21-46-20zM327 20v8l-20-8zM281 119l1-8 19 8zM281 238l46 19v21l-46-20zM281 280l46 19v21l-46-20zM328 230l-1 7-19-7zM281 328l1-7 20 8z" style="fill:#000;stroke:#000;stroke-width:1px;stroke-linecap:butt;stroke-linejoin:miter;stroke-opacity:1"/><path d="M12 13h199v322H12z" style="fill:none;stroke-width:1.97;stroke:#000"/><path d="M26 27h171v270H26z" style="fill:none;stroke:#000;stroke-width:2;stroke-miterlimit:4;stroke-dasharray:none"/><g aria-label="&lt;DISPLAY&gt;" style="font-size:24.6841px;line-height:1.25;font-family:Bahnschrift;-inkscape-font-specification:Bahnschrift;text-align:center;text-anchor:middle;fill:#000;stroke-width:.925652"><path d="M62 47h-4l7-6v3zm3 5-7-5h4l3 2zM70 53h4l3-1 1-3v-6l-1-3-3-1h-4v-3h4l3 1 2 2 1 4v6l-1 3q0 2-2 3h-7Zm-1-17h2v19h-2zM86 55h-3V36h3zM95 56l-3-1-2-1-1-1 1-2 2 2h3l2-1 1-2v-1l-1-1-2-1-3-1-2-1-1-3 1-3 2-2 3-1h2l2 1 1 1-1 2-2-1h-4l-1 3v1l1 1 2 1h1l2 1 2 1 1 3-1 3-2 2-3 1zM105 45h6l1-1v-4l-1-1h-6v-3h5l2 1 2 2 1 3-1 3q0 2-2 2l-2 1h-5zm-1-9h2v19h-2zM118 36h2v19h-2zm1 17h9v2h-9zM135 36h2l6 19h-2l-5-15-4 15h-3zm-3 13h9v2h-9zM150 48v7h-3v-7l-5-12h3l3 9 4-9h2zM156 41l7 6h-4l-3-3zm3 6h4l-7 5v-3z"/></g><g aria-label="&lt;WORD&gt;" style="font-size:24.2643px;line-height:1.25;font-family:Bahnschrift;-inkscape-font-specification:Bahnschrift;text-align:center;text-anchor:middle;fill:#000;stroke-width:.909911"><path d="M32 97h-4l7-6v3zm3 5-7-5h4l3 2zM45 86h1l4 15 2-15h3l-4 19h-2l-3-13-3 13h-2l-4-19h2l3 15zM62 106l-3-1-2-3-1-3v-6l1-3 2-3 3-1 3 1 2 3 1 3v6l-1 3-2 3-3 1zm0-3 2-1 1-1V91l-1-2h-4l-1 2v10l1 1 2 1zM72 95h5l1-1 1-1v-3l-1-1h-6v-3h5l2 1 2 2 1 3-1 3-2 2h-7zm-1-9h2v19h-2zm5 11 2-1 4 9h-2zM87 103h3l3-1 1-3v-6l-1-3-3-1h-3v-3h3l3 1 2 2 1 4v6l-1 3q0 2-2 3h-6Zm-2-17h2v19h-2zM99 91l8 6h-4l-4-3zm4 6h4l-8 5v-3Z"/></g><g aria-label="&lt;WORD&gt;" style="font-size:24.2643px;line-height:1.25;font-family:Bahnschrift;-inkscape-font-specification:Bahnschrift;text-align:center;text-anchor:middle;fill:#000;stroke-width:.909911"><path d="M32 149h-4l7-6v3zm3 5-7-5h4l3 2zM45 138h1l4 15 2-15h3l-4 19h-2l-3-13-3 13h-2l-4-19h2l3 15zM62 158l-3-1-2-3-1-3v-6l1-3 2-3 3-1 3 1 2 3 1 3v6l-1 3-2 3-3 1zm0-3 2-1 1-1v-10l-1-2h-4l-1 2v10l1 1 2 1zM72 147h5l1-1 1-1v-3l-1-1h-6v-3h5l2 1 2 2 1 3-1 3-2 2h-7zm-1-9h2v19h-2zm5 11 2-1 4 9h-2zM87 155h3l3-1 1-3v-6l-1-3-3-1h-3v-3h3l3 1 2 2 1 4v6l-1 3q0 2-2 3h-6zm-2-17h2v19h-2zM99 143l8 6h-4l-4-3zm4 6h4l-8 5v-3z"/></g><g aria-label="&lt;WORD&gt;" style="font-size:24.2643px;line-height:1.25;font-family:Bahnschrift;-inkscape-font-specification:Bahnschrift;text-align:center;text-anchor:middle;fill:#000;stroke-width:.909911"><path d="M32 203h-4l7-6v3zm3 5-7-5h4l3 2zM45 192h1l4 15 2-15h3l-4 19h-2l-3-13-3 13h-2l-4-19h2l3 15zM62 212l-3-1-2-3-1-3v-6l1-3 2-3 3-1 3 1 2 3 1 3v6l-1 3-2 3-3 1zm0-3 2-1 1-1v-10l-1-2h-4l-1 2v10l1 1 2 1zM72 201h5l1-1 1-1v-3l-1-1h-6v-3h5l2 1 2 2 1 3-1 3-2 2h-7zm-1-9h2v19h-2zm5 11 2-1 4 9h-2zM87 209h3l3-1 1-3v-6l-1-3-3-1h-3v-3h3l3 1 2 2 1 4v6l-1 3q0 2-2 3h-6zm-2-17h2v19h-2zM99 197l8 6h-4l-4-3zm4 6h4l-8 5v-3z"/></g><g aria-label="&lt;WORD&gt;" style="font-size:24.2643px;line-height:1.25;font-family:Bahnschrift;-inkscape-font-specification:Bahnschrift;text-align:center;text-anchor:middle;fill:#000;stroke-width:.909911"><path d="M32 255h-4l7-6v3zm3 5-7-5h4l3 2zM45 244h1l4 15 2-15h3l-4 19h-2l-3-13-3 13h-2l-4-19h2l3 15zM62 264l-3-1-2-3-1-3v-6l1-3 2-3 3-1 3 1 2 3 1 3v6l-1 3-2 3-3 1zm0-3 2-1 1-1v-10l-1-2h-4l-1 2v10l1 1 2 1zM72 253h5l1-1 1-1v-3l-1-1h-6v-3h5l2 1 2 2 1 3-1 3-2 2h-7zm-1-9h2v19h-2zm5 11 2-1 4 9h-2zM87 261h3l3-1 1-3v-6l-1-3-3-1h-3v-3h3l3 1 2 2 1 4v6l-1 3q0 2-2 3h-6zm-2-17h2v19h-2zM99 249l8 6h-4l-4-3zm4 6h4l-8 5v-3z"/></g><g aria-label="&lt;WORD&gt;" style="font-size:24.2643px;line-height:1.25;font-family:Bahnschrift;-inkscape-font-specification:Bahnschrift;text-align:center;text-anchor:middle;fill:#000;stroke-width:.909911"><path d="M120 97h-4l7-6v3zm3 5-7-5h4l3 2zM133 86h1l4 15 2-15h3l-4 19h-2l-3-13-3 13h-2l-4-19h2l3 15zM150 106l-3-1-2-3-1-3v-6l1-3 2-3 3-1 3 1 2 3 1 3v6l-1 3-2 3-3 1zm0-3 2-1 1-1V91l-1-2h-4l-1 2v10l1 1 2 1zM160 95h5l1-1 1-1v-3l-1-1h-6v-3h5l2 1 2 2 1 3-1 3-2 2h-7zm-1-9h2v19h-2zm5 11 2-1 4 9h-2zM175 103h3l3-1 1-3v-6l-1-3-3-1h-3v-3h3l3 1 2 2 1 4v6l-1 3q0 2-2 3h-6zm-2-17h2v19h-2zM187 91l8 6h-4l-4-3zm4 6h4l-8 5v-3Z"/></g><g aria-label="&lt;WORD&gt;" style="font-size:24.2643px;line-height:1.25;font-family:Bahnschrift;-inkscape-font-specification:Bahnschrift;text-align:center;text-anchor:middle;fill:#000;stroke-width:.909911"><path d="M120 149h-4l7-6v3zm3 5-7-5h4l3 2zM133 138h1l4 15 2-15h3l-4 19h-2l-3-13-3 13h-2l-4-19h2l3 15zM150 158l-3-1-2-3-1-3v-6l1-3 2-3 3-1 3 1 2 3 1 3v6l-1 3-2 3-3 1zm0-3 2-1 1-1v-10l-1-2h-4l-1 2v10l1 1 2 1zM160 147h5l1-1 1-1v-3l-1-1h-6v-3h5l2 1 2 2 1 3-1 3-2 2h-7zm-1-9h2v19h-2zm5 11 2-1 4 9h-2zM175 155h3l3-1 1-3v-6l-1-3-3-1h-3v-3h3l3 1 2 2 1 4v6l-1 3q0 2-2 3h-6zm-2-17h2v19h-2zM187 143l8 6h-4l-4-3zm4 6h4l-8 5v-3z"/></g><g aria-label="&lt;WORD&gt;" style="font-size:24.2643px;line-height:1.25;font-family:Bahnschrift;-inkscape-font-specification:Bahnschrift;text-align:center;text-anchor:middle;fill:#000;stroke-width:.909911"><path d="M120 203h-4l7-6v3zm3 5-7-5h4l3 2zM133 192h1l4 15 2-15h3l-4 19h-2l-3-13-3 13h-2l-4-19h2l3 15zM150 212l-3-1-2-3-1-3v-6l1-3 2-3 3-1 3 1 2 3 1 3v6l-1 3-2 3-3 1zm0-3 2-1 1-1v-10l-1-2h-4l-1 2v10l1 1 2 1zM160 201h5l1-1 1-1v-3l-1-1h-6v-3h5l2 1 2 2 1 3-1 3-2 2h-7zm-1-9h2v19h-2zm5 11 2-1 4 9h-2zM175 209h3l3-1 1-3v-6l-1-3-3-1h-3v-3h3l3 1 2 2 1 4v6l-1 3q0 2-2 3h-6zm-2-17h2v19h-2zM187 197l8 6h-4l-4-3zm4 6h4l-8 5v-3z"/></g><g aria-label="&lt;WORD&gt;" style="font-size:24.2643px;line-height:1.25;font-family:Bahnschrift;-inkscape-font-specification:Bahnschrift;text-align:center;text-anchor:middle;fill:#000;stroke-width:.909911"><path d="M120 255h-4l7-6v3zm3 5-7-5h4l3 2zM133 244h1l4 15 2-15h3l-4 19h-2l-3-13-3 13h-2l-4-19h2l3 15zM150 264l-3-1-2-3-1-3v-6l1-3 2-3 3-1 3 1 2 3 1 3v6l-1 3-2 3-3 1zm0-3 2-1 1-1v-10l-1-2h-4l-1 2v10l1 1 2 1zM160 253h5l1-1 1-1v-3l-1-1h-6v-3h5l2 1 2 2 1 3-1 3-2 2h-7zm-1-9h2v19h-2zm5 11 2-1 4 9h-2zM175 261h3l3-1 1-3v-6l-1-3-3-1h-3v-3h3l3 1 2 2 1 4v6l-1 3q0 2-2 3h-6zm-2-17h2v19h-2zM187 249l8 6h-4l-4-3zm4 6h4l-8 5v-3z"/></g><rect width="64.1" height="31.1" x="79.6" y="300.5" ry="12" style="fill:none;stroke:#000;stroke-width:1.9991;stroke-miterlimit:4;stroke-dasharray:none"/><rect width="22.7" height="22.7" x="86.1" y="304.6" ry="5" style="fill:none;stroke:#000;stroke-width:1.964;stroke-miterlimit:4;stroke-dasharray:none"/><rect width="22.7" height="22.7" x="114.8" y="304.6" ry="5" style="fill:none;stroke:#000;stroke-width:1.964;stroke-miterlimit:4;stroke-dasharray:none"/><path d="M98 317v7h-2v-7l-5-9h3l3 7 4-7h2z" aria-label="Y" style="font-size:23.1212px;line-height:1.25;font-family:Bahnschrift;-inkscape-font-specification:Bahnschrift;text-align:center;text-anchor:middle;fill:#000;stroke-width:.867043"/><path d="M120 308h2l8 12v1-13h2v16h-2l-8-12 1-1v13h-3z" aria-label="N" style="font-size:23.1212px;line-height:1.25;font-family:Bahnschrift;-inkscape-font-specification:Bahnschrift;text-align:center;text-anchor:middle;fill:#000;stroke-width:.867043"/></svg>