<?xml version="1.0" encoding="UTF-8" standalone="no"?>
<svg
   xmlns:dc="http://purl.org/dc/elements/1.1/"
   xmlns:cc="http://creativecommons.org/ns#"
   xmlns:rdf="http://www.w3.org/1999/02/22-rdf-syntax-ns#"
   xmlns:svg="http://www.w3.org/2000/svg"
   xmlns="http://www.w3.org/2000/svg"
   id="svg95"
   stroke-miterlimit="10"
   stroke-linecap="square"
   stroke="none"
   fill="none"
   viewBox="0.0 0.0 348.0 348.0"
   version="1.1">
  <metadata
     id="metadata101">
    <rdf:RDF>
      <cc:Work
         rdf:about="">
        <dc:format>image/svg+xml</dc:format>
        <dc:type
           rdf:resource="http://purl.org/dc/dcmitype/StillImage" />
      </cc:Work>
    </rdf:RDF>
  </metadata>
  <defs
     id="defs99" />
  <clipPath
     id="p.0">
    <path
       id="path2"
       clip-rule="nonzero"
       d="m0 0l348.0 0l0 348.0l-348.0 0l0 -348.0z" />
  </clipPath>
  <g
     id="g81"
     clip-path="url(#p.0)">
    <path
       id="path5"
       fill-rule="nonzero"
       d="M 0,0 H 348 V 348 H 0 Z"
       fill-opacity="0"
       fill="#000000" />
    <path
       id="path7"
       fill-rule="nonzero"
       d="M -6,0 H 348.01575 V 347.9685 H -6 Z"
       fill="#ffffff" />
    <path
       id="path9"
       fill-rule="nonzero"
       d="m 5.07874,5.7758217 h 336.9134 V 343.44512 H 5.07874 Z"
       fill-opacity="0"
       fill="#000000" />
    <path
       id="path11"
       fill-rule="nonzero"
       d="m 5.07874,5.7758217 h 336.9134 V 343.44512 H 5.07874 Z"
       stroke-linecap="butt"
       stroke-linejoin="round"
       stroke-width="2"
       stroke="#000000" />
    <path
       id="path13"
       fill-rule="nonzero"
       d="m 133.84251,15.666667 h 74.33072 v 56.881886 h -74.33072 z"
       fill="#000000" />
    <path
       id="path15"
       fill-rule="nonzero"
       d="m 154.53912,44.089794 q 0,-4.0625 0.82812,-6.53125 0.84375,-2.484375 2.48438,-3.828125 1.65625,-1.34375 4.15625,-1.34375 1.84375,0 3.23437,0.75 1.39063,0.734375 2.29688,2.140625 0.90625,1.390625 1.42187,3.40625 0.51563,2 0.51563,5.40625 0,4.03125 -0.82813,6.515625 -0.82812,2.46875 -2.48437,3.828125 -1.64063,1.34375 -4.15625,1.34375 -3.3125,0 -5.20313,-2.375 -2.26562,-2.859375 -2.26562,-9.3125 z m 2.89062,0 q 0,5.640625 1.3125,7.515625 1.32813,1.859375 3.26563,1.859375 1.9375,0 3.25,-1.875 1.32812,-1.875 1.32812,-7.5 0,-5.65625 -1.32812,-7.515625 -1.3125,-1.859375 -3.28125,-1.859375 -1.9375,0 -3.09375,1.640625 -1.45313,2.09375 -1.45313,7.734375 z m 14.90625,0 q 0,-4.0625 0.82813,-6.53125 0.84375,-2.484375 2.48437,-3.828125 1.65625,-1.34375 4.15625,-1.34375 1.84375,0 3.23438,0.75 1.39062,0.734375 2.29687,2.140625 0.90625,1.390625 1.42188,3.40625 0.51562,2 0.51562,5.40625 0,4.03125 -0.82812,6.515625 -0.82813,2.46875 -2.48438,3.828125 -1.64062,1.34375 -4.15625,1.34375 -3.3125,0 -5.20312,-2.375 -2.26563,-2.859375 -2.26563,-9.3125 z m 2.89063,0 q 0,5.640625 1.3125,7.515625 1.32812,1.859375 3.26562,1.859375 1.9375,0 3.25,-1.875 1.32813,-1.875 1.32813,-7.5 0,-5.65625 -1.32813,-7.515625 -1.3125,-1.859375 -3.28125,-1.859375 -1.9375,0 -3.09375,1.640625 -1.45312,2.09375 -1.45312,7.734375 z"
       fill="#ffffff" />
    <path
       id="path17"
       fill-rule="nonzero"
       d="M 15.262467,17.706038 H 125.15223 v 54.83464 H 15.262467 Z"
       fill="#ffffff" />
    <path
       id="path19"
       fill-rule="nonzero"
       d="M 15.262467,17.706038 H 125.15223 v 54.83464 H 15.262467 Z"
       stroke-linecap="butt"
       stroke-linejoin="round"
       stroke-width="2"
       stroke="#000000" />
    <path
       id="path21"
       fill-rule="nonzero"
       d="M 15.262467,72.65354 54.947507,18.5748"
       fill-opacity="0"
       fill="#000000" />
    <path
       id="path23"
       fill-rule="nonzero"
       d="M 15.262467,72.65354 54.947507,18.5748"
       stroke-linecap="butt"
       stroke-linejoin="round"
       stroke-width="2"
       stroke="#000000" />
    <path
       id="path25"
       fill-rule="nonzero"
       d="M 37.56649,72.65354 77.251533,18.5748"
       fill-opacity="0"
       fill="#000000" />
    <path
       id="path27"
       fill-rule="nonzero"
       d="M 37.56649,72.65354 77.251533,18.5748"
       stroke-linecap="butt"
       stroke-linejoin="round"
       stroke-width="2"
       stroke="#000000" />
    <path
       id="path29"
       fill-rule="nonzero"
       d="M 59.870514,72.65354 99.555557,18.5748"
       fill-opacity="0"
       fill="#000000" />
    <path
       id="path31"
       fill-rule="nonzero"
       d="M 59.870514,72.65354 99.555557,18.5748"
       stroke-linecap="butt"
       stroke-linejoin="round"
       stroke-width="2"
       stroke="#000000" />
    <path
       id="path33"
       fill-rule="nonzero"
       d="M 82.17454,72.65354 121.85958,18.5748"
       fill-opacity="0"
       fill="#000000" />
    <path
       id="path35"
       fill-rule="nonzero"
       d="M 82.17454,72.65354 121.85958,18.5748"
       stroke-linecap="butt"
       stroke-linejoin="round"
       stroke-width="2"
       stroke="#000000" />
    <path
       id="path37"
       fill-rule="nonzero"
       d="M 32.97638,83.031494 H 315.02362 V 325.3937 H 32.97638 Z"
       fill="#ffffff" />
    <path
       id="path39"
       fill-rule="nonzero"
       d="M 32.97638,83.031494 H 315.02362 V 325.3937 H 32.97638 Z"
       stroke-linecap="butt"
       stroke-linejoin="round"
       stroke-width="2"
       stroke="#000000" />
    <path
       id="path41"
       fill-rule="nonzero"
       d="m 216.86351,16.633858 h 109.88975 v 54.83465 H 216.86351 Z"
       fill="#ffffff" />
    <path
       id="path43"
       fill-rule="nonzero"
       d="m 216.86351,16.633858 h 109.88975 v 54.83465 H 216.86351 Z"
       stroke-linecap="butt"
       stroke-linejoin="round"
       stroke-width="2"
       stroke="#000000" />
    <path
       id="path45"
       fill-rule="nonzero"
       d="M 216.86351,71.58137 256.54855,17.502627"
       fill-opacity="0"
       fill="#000000" />
    <path
       id="path47"
       fill-rule="nonzero"
       d="M 216.86351,71.58137 256.54855,17.502627"
       stroke-linecap="butt"
       stroke-linejoin="round"
       stroke-width="2"
       stroke="#000000" />
    <path
       id="path49"
       fill-rule="nonzero"
       d="M 239.16754,71.58137 278.85257,17.502627"
       fill-opacity="0"
       fill="#000000" />
    <path
       id="path51"
       fill-rule="nonzero"
       d="M 239.16754,71.58137 278.85257,17.502627"
       stroke-linecap="butt"
       stroke-linejoin="round"
       stroke-width="2"
       stroke="#000000" />
    <path
       id="path53"
       fill-rule="nonzero"
       d="M 261.47156,71.58137 301.15662,17.502627"
       fill-opacity="0"
       fill="#000000" />
    <path
       id="path55"
       fill-rule="nonzero"
       d="M 261.47156,71.58137 301.15662,17.502627"
       stroke-linecap="butt"
       stroke-linejoin="round"
       stroke-width="2"
       stroke="#000000" />
    <path
       id="path57"
       fill-rule="nonzero"
       d="M 283.7756,71.58137 323.46063,17.502627"
       fill-opacity="0"
       fill="#000000" />
    <path
       id="path59"
       fill-rule="nonzero"
       d="M 283.7756,71.58137 323.46063,17.502627"
       stroke-linecap="butt"
       stroke-linejoin="round"
       stroke-width="2"
       stroke="#000000" />
    <path
       id="path61"
       fill-rule="nonzero"
       d="M 44.490814,88.11811 H 303.48294 V 252.05512 H 44.490814 Z"
       fill="#000000" />
    <path
       id="path63"
       fill-rule="nonzero"
       d="m 113.77165,267.51697 h 49.25984 v 45.48032 h -49.25984 z"
       stroke-linecap="butt"
       stroke-linejoin="round"
       stroke-width="1"
       stroke="#000000" />
    <path
       id="path65"
       fill-rule="nonzero"
       d="m 182.79527,267.51697 h 49.25984 v 45.48032 h -49.25984 z"
       fill-opacity="0"
       fill="#000000" />
    <path
       id="path67"
       fill-rule="nonzero"
       d="m 182.79527,267.51697 h 49.25984 v 45.48032 h -49.25984 z"
       stroke-linecap="butt"
       stroke-linejoin="round"
       stroke-width="1"
       stroke="#000000" />
    <path
       id="path69"
       fill-rule="nonzero"
       d="m 260.08136,270.74014 h 36.72443 v 25.63782 h -36.72443 z"
       fill="#ffffff" />
    <path
       id="path71"
       fill-rule="nonzero"
       d="m 260.08136,270.74014 h 36.72443 v 25.63782 h -36.72443 z"
       stroke-linecap="butt"
       stroke-linejoin="round"
       stroke-width="2"
       stroke="#000000" />
    <path
       id="path73"
       fill-rule="nonzero"
       d="m 265.46457,305.50656 v 0 c 0,-2.35699 1.91071,-4.26773 4.2677,-4.26773 v 0 c 1.1319,0 2.21741,0.44965 3.01773,1.25 0.80035,0.80035 1.25,1.88586 1.25,3.01773 v 0 c 0,2.35699 -1.91074,4.26773 -4.26773,4.26773 v 0 c -2.35699,0 -4.2677,-1.91074 -4.2677,-4.26773 z"
       fill="#ffffff" />
    <path
       id="path75"
       fill-rule="nonzero"
       d="m 265.46457,305.50656 v 0 c 0,-2.35699 1.91071,-4.26773 4.2677,-4.26773 v 0 c 1.1319,0 2.21741,0.44965 3.01773,1.25 0.80035,0.80035 1.25,1.88586 1.25,3.01773 v 0 c 0,2.35699 -1.91074,4.26773 -4.26773,4.26773 v 0 c -2.35699,0 -4.2677,-1.91074 -4.2677,-4.26773 z"
       stroke-linecap="butt"
       stroke-linejoin="round"
       stroke-width="2"
       stroke="#000000" />
    <path
       id="path77"
       fill-rule="nonzero"
       d="m 282.8084,305.50656 v 0 c 0,-2.35699 1.91071,-4.26773 4.2677,-4.26773 v 0 c 1.13187,0 2.21738,0.44965 3.01773,1.25 0.80035,0.80035 1.25,1.88586 1.25,3.01773 v 0 c 0,2.35699 -1.91074,4.26773 -4.26773,4.26773 v 0 c -2.35699,0 -4.2677,-1.91074 -4.2677,-4.26773 z"
       fill="#ffffff" />
    <path
       id="path79"
       fill-rule="nonzero"
       d="m 282.8084,305.50656 v 0 c 0,-2.35699 1.91071,-4.26773 4.2677,-4.26773 v 0 c 1.13187,0 2.21738,0.44965 3.01773,1.25 0.80035,0.80035 1.25,1.88586 1.25,3.01773 v 0 c 0,2.35699 -1.91074,4.26773 -4.26773,4.26773 v 0 c -2.35699,0 -4.2677,-1.91074 -4.2677,-4.26773 z"
       stroke-linecap="butt"
       stroke-linejoin="round"
       stroke-width="2"
       stroke="#000000" />
  </g>
  <g
     style="font-size:42px;font-family:'DejaVu Sans', sans-serif;text-anchor:middle;fill:#ffffff"
     id="text85"
     aria-label="[ 文字 ]">
    <path
       id="path103"
       d="m 105.83203,106.08984 h 8.69531 v 2.93262 h -4.92187 v 31.58203 h 4.92187 v 2.93262 h -8.69531 z" />
    <path
       id="path105"
       d="m 153.49219,131.4375 q -8.20313,7.05469 -16.89844,9.67969 l -1.47656,-3.9375 q 8.69531,-2.46094 15.58593,-8.36719 -5.74218,-6.23437 -7.71093,-14.4375 h -7.875 v -3.11719 h 15.75 v -6.23437 h 3.60937 q 1.64063,0.32812 0.16406,1.3125 v 4.92187 h 15.91407 v 3.11719 h -7.71094 q -1.3125,7.71094 -6.89063,14.4375 5.74219,5.08594 15.25782,7.54687 l -1.47657,3.9375 q -8.36718,-2.13281 -16.24218,-8.85937 z m -0.16407,-5.25 q 4.92188,-5.90625 6.07032,-11.8125 h -12.79688 q 0.98438,5.57813 6.72656,11.8125 z" />
    <path
       id="path107"
       d="m 196.96875,123.23438 v 2.13281 h 16.07812 v 3.11718 H 196.96875 V 138 q 0,2.625 -2.625,2.625 h -4.42969 l -0.82031,-3.11719 h 3.9375 q 0.65625,0 0.65625,-0.65625 v -8.36719 H 176.625 v -3.11718 h 17.0625 v -4.26563 l 1.64062,0.32813 4.59375,-3.11719 h -15.75 v -3.11719 h 19.03125 l 0.65625,-0.65625 2.78907,2.78907 -0.98438,0.32812 z m -0.16406,-14.60157 h 15.25781 v 8.20313 h -3.28125 V 111.75 h -27.72656 v 5.41406 h -3.28125 v -8.53125 h 15.25781 v -4.42968 h 3.60937 q 1.64063,0.32812 0.16407,1.3125 z" />
    <path
       id="path109"
       d="m 242.14746,106.08984 v 37.44727 h -8.69531 v -2.93262 h 4.90137 v -31.58203 h -4.90137 v -2.93262 z" />
  </g>
  <g
     style="font-size:24px;font-family:'DejaVu Sans', sans-serif;text-anchor:middle;fill:#000000"
     id="text89"
     aria-label="是">
    <path
       id="path112"
       d="m 127.40625,297.1875 q 3.65625,-1.59375 4.96875,-6.5625 l 2.0625,0.5625 q 0.375,0.375 -0.28125,0.46875 l -0.65625,1.6875 q 1.78125,2.0625 3.84375,2.71875 v -6.375 h -9.1875 v -1.78125 h 20.25 v 1.78125 h -9.1875 v 2.15625 h 6.75 v 1.78125 h -6.75 v 3 H 148.5 l -0.46875,1.78125 h -7.5 q -5.0625,0 -7.78125,-3.46875 -1.875,2.90625 -4.21875,4.03125 z m 15.75,-15.5625 v -1.78125 H 133.125 v 1.78125 z m 1.875,4.78125 H 131.25 v -8.0625 h 13.78125 z m -1.875,-1.5 V 283.125 H 133.125 v 1.78125 z" />
  </g>
  <g
     style="font-size:24px;font-family:'DejaVu Sans', sans-serif;text-anchor:middle;fill:#000000"
     id="text93"
     aria-label="否">
    <path
       id="path115"
       d="m 207.0625,283.96875 q -3.5625,3.84375 -9.09375,5.8125 l -0.65625,-1.96875 q 6.84375,-2.625 10.125,-7.3125 h -9.65625 v -1.78125 h 20.25 V 280.5 h -8.25 l -0.84375,1.3125 v 6.9375 h -1.875 z M 213.25,296.25 v -4.6875 h -10.5 v 4.6875 z m -10.5,2.90625 h -1.875 v -9.375 h 14.25 v 9.09375 h -1.875 v -0.84375 h -10.5 z M 211,283.3125 q 4.125,1.40625 7.40625,3.84375 l -1.125,1.78125 q -3.75,-2.625 -7.3125,-4.03125 z" />
  </g>
</svg>
