<svg xmlns="http://www.w3.org/2000/svg" fill="none" stroke-linecap="square" stroke-miterlimit="10" viewBox="0 0 348 348"><path stroke="#000" stroke-width="6.3" d="M181.6 66.8h42.8v42.8h-42.8z"/><path stroke="#000" stroke-width="6.3" d="M140 66.8h42.8v42.8H140z"/><path stroke="#000" stroke-width="6.3" d="M98.5 66.8h42.8v42.8H98.5z"/><path stroke="#000" stroke-width="6.3" d="M57 66.8h42.8v42.8H57zM181.6 25.2h42.8V68h-42.8z"/><path stroke="#000" stroke-width="6.3" d="M140 25.2h42.8V68H140z"/><path stroke="#000" stroke-width="6.3" d="M98.5 25.2h42.8V68H98.5z"/><path stroke="#000" stroke-width="6.3" d="M57 25.2h42.8V68H57z"/><path stroke="#000" stroke-linecap="butt" stroke-linejoin="round" stroke-width="2" d="M5 5.8h337v337.6H5z"/><path stroke="#000" stroke-linecap="butt" stroke-linejoin="round" stroke-width="2" d="M282.7 40.6c0-8.4 7-15.2 15.6-15.2 4.1 0 8 1.6 11 4.4a15 15 0 0 1 4.6 10.8c0 8.3-7 15.1-15.6 15.1s-15.6-6.8-15.6-15.1z"/><path fill="#000" d="M40.4 150.1H49v193.2h-8.6z"/><circle cx="44.5" cy="138.9" r="10" fill="#000"/><path fill="#000" d="M50.2 164.6h22.7v5.1H50.2zM50.2 258.5h22.7v5.1H50.2z"/><path stroke="#000" stroke-width="5.8" d="M73 158.7h192.1v37.2H73zM73 195.9h192.1v37.2H73z"/><path stroke="#000" stroke-width="5.8" d="M73 233h192.1v37.2H73z"/></svg>