<svg fill="none" viewBox="0 0 348 348" xmlns="http://www.w3.org/2000/svg"><defs><linearGradient id="a" x1="-140.75" x2="-101.21" y1="132.44" y2="132.44" gradientTransform="matrix(3.9612 0 0 2.7875 570.59 -271.23)" gradientUnits="userSpaceOnUse"><stop offset="0"/></linearGradient></defs><g stroke="#000"><path d="M5.079 5.776h336.913v337.67H5.08z" stroke-width="2"/><path d="M282.73 40.554c0-8.376 6.966-15.165 15.56-15.165 4.126 0 8.084 1.597 11.001 4.441 2.918 2.844 4.558 6.702 4.558 10.724 0 8.376-6.966 15.165-15.56 15.165-8.593 0-15.559-6.79-15.559-15.165z" stroke-width="2"/><path d="M13.6 197.247h320.8v21.8H13.6z" fill="#fff" stroke-width="2.29"/><path d="M14.388 332.01h319.24V226.23H14.388zm.008-84.623h319.24m-319.24 21.16h319.24m-319.24 21.16h319.24m-319.24 21.151h319.24m-298.09-84.624v21.152m21.16-21.152v21.152m21.152-21.152v21.152m21.152-21.152v21.152m21.16-21.152v21.152m21.152-21.152v21.152m21.16-21.152v21.152m21.152-21.152v21.152m21.152-21.152v21.152m0-21.152v21.152m21.152-21.152v21.152m21.16-21.152v21.152m21.16-21.152v21.152m21.152-21.152v21.152m-244.26.001v21.16m21.16-21.16v21.16m21.152-21.16v21.16m21.152-21.16v21.16m21.16-21.16v21.16m21.152-21.16v21.16m21.16-21.16v21.16m21.152-21.16v21.16m21.152-21.16v21.16m21.152-21.16v21.16m21.16-21.16v21.16m21.16-21.16v21.16m21.152-21.16v21.16m-247.82 0v21.15m21.152-21.15v21.15m21.16-21.15v21.15m21.152-21.15v21.15m21.152-21.15v21.15m21.16-21.15v21.15m21.152-21.15v21.15m21.16-21.15v21.15m21.152-21.15v21.15m21.152-21.15v21.15m21.152-21.15v21.15m21.16-21.15v21.15m-223.1.01v21.151m21.152-21.151v21.151m21.16-21.151v21.151m21.152-21.151v21.151m21.152-21.151v21.151m21.16-21.151v21.151m21.152-21.151v21.151m21.16-21.151v21.151m21.152-21.151v21.151m21.152-21.151v21.151m21.152-21.151v21.151m-227.19 0v21.152m21.16-21.152v21.152m232.7-21.152v21.152M256.7 310.858v21.152m21.16-21.152v21.152M98.31 310.858v21.152m126.39-21.152v21.152" fill="#fff" stroke-width="2"/><path d="M181.78 45.523c0-5.313 4.165-9.62 9.303-9.62 2.467 0 4.833 1.014 6.577 2.818s2.725 4.25 2.725 6.802c0 5.313-4.165 9.619-9.303 9.619-5.137 0-9.302-4.307-9.302-9.62z" stroke-width="1.232"/><path d="M181.72 103.64c0-4.689 3.9-8.49 8.71-8.49 2.31 0 4.526.895 6.158 2.487a8.382 8.382 0 0 1 2.552 6.003c0 4.688-3.9 8.489-8.71 8.489s-8.71-3.801-8.71-8.49zm.129 51.338c0-4.688 3.9-8.489 8.71-8.489 2.31 0 4.526.894 6.158 2.486a8.382 8.382 0 0 1 2.552 6.003c0 4.689-3.9 8.49-8.71 8.49s-8.71-3.802-8.71-8.49z" stroke-width="1.12"/></g><g stroke-width=".13"><path d="M244.9 174.5c-1.054-.176-2.592-.854-3.45-1.52-1.438-1.115-2.2-2.213-2.815-4.055l-.305-.911-.042-8.692c-.034-6.793-.005-8.855.127-9.441.122-.539.155-1.592.119-3.745-.028-1.647-.057-15.418-.065-30.602-.014-26.61-.006-27.633.228-28.324.867-2.561 2.866-4.503 5.413-5.26.948-.28 3.232-.282 4.185 0 .613.18 1.6.607 4.484 1.94l1.497.687a164579.38 164579.38 0 0 0 13.218 6.085c1.289.594 3.34 1.53 4.558 2.082s3.356 1.53 4.753 2.177a1516.5 1516.5 0 0 0 6.511 3.002 120222.928 120222.928 0 0 1 15.106 6.933c.68.311 2.468 1.135 3.972 1.83a820.01 820.01 0 0 0 4.167 1.912c2.571 1.164 3.672 2.243 4.376 4.288.332.967.376 2.574.114 4.18-.187 1.154-.107 4.816.123 5.564.187.607.193 17.652.008 18.638-.216 1.144-.908 2.434-1.768 3.293-.682.681-1.095.928-3.634 2.166a3798.461 3798.461 0 0 1-15.431 7.452c-.895.428-4.265 2.054-7.488 3.613-8.025 3.882-9.602 4.642-10.809 5.209-.573.269-2.155 1.03-3.516 1.691s-4.584 2.215-7.162 3.452a4993.33 4993.33 0 0 0-8.644 4.157c-2.818 1.36-4.216 1.964-4.86 2.1-.845.177-2.227.224-2.97.1z" fill="#afecf4"/><path d="M243.79 173.97c-.575-.195-1.35-.55-1.72-.789-.93-.598-2.17-1.96-2.652-2.914-.864-1.711-.817-1.132-.865-10.835-.025-5.045.006-8.894.073-8.96.067-.067.234.21.399.663.773 2.12 2.553 3.815 4.834 4.603.685.236 1.134.293 2.344.294 1.814.002 2.071-.076 5.21-1.594 1.253-.607 3.597-1.734 5.208-2.506 1.612-.772 4.044-1.944 5.405-2.605 1.36-.661 2.943-1.423 3.516-1.694.573-.27 2.038-.973 3.255-1.561 1.218-.589 2.859-1.38 3.646-1.758.788-.378 2.4-1.155 3.581-1.725l9.246-4.46 9.311-4.493c1.218-.588 3.591-1.73 5.274-2.535 7.863-3.767 8.792-4.252 9.483-4.954.36-.365.848-1.04 1.086-1.498.238-.46.474-.793.524-.742.05.05.106 3.93.122 8.622.03 8.435.027 8.539-.25 9.376-.365 1.096-.735 1.688-1.6 2.565-.804.813.152.325-14.053 7.171-12.265 5.911-12.034 5.8-18.36 8.852-3.045 1.468-6.18 2.979-6.968 3.356-.787.377-4.186 2.016-7.553 3.642-10.259 4.954-13.646 6.541-14.285 6.694-.336.08-1.185.144-1.888.143-1.043-.002-1.468-.068-2.323-.358zm.46-24.971c-1.291-.356-2.345-.98-3.41-2.022-1.199-1.172-1.873-2.428-2.07-3.855-.076-.544-.11-11.417-.09-27.912l.036-27.021.307-.912c.81-2.398 2.46-4.076 4.825-4.907 1.055-.37 2.977-.458 4.043-.184.696.179 6.935 2.898 7.363 3.21.072.051.54.269 1.042.483.81.345 7.665 3.486 10.223 4.684.537.252 1.21.56 1.497.685.287.125 1.342.609 2.344 1.075 1.56.726 2.825 1.307 7.163 3.29.358.164 1.487.685 2.51 1.158 1.022.472 1.88.859 1.907.859.027 0 .743.327 1.592.727.85.4 1.778.833 2.065.962.286.13.93.425 1.432.657.501.232 2.318 1.066 4.037 1.854 4.697 2.15 6.27 2.874 7.488 3.447.608.286 1.37.639 1.693.783 6.9 3.1 8.156 3.739 8.952 4.554 2.05 2.1 2.31 5.453.614 7.916-.846 1.228-1.326 1.556-4.423 3.026a1253.41 1253.41 0 0 0-8.92 4.3c-2.259 1.095-2.544 1.233-14.455 6.968-4.691 2.26-9.584 4.618-10.874 5.241-1.29.624-3.721 1.795-5.404 2.604-1.683.809-4.458 2.15-6.167 2.981s-3.122 1.511-3.143 1.511-1.552.74-3.404 1.642c-4.63 2.257-4.734 2.294-6.56 2.349-1.057.031-1.707-.014-2.213-.153z" fill="#60deea"/><path d="M243.85 173.9c-2.466-.84-4.37-2.88-5.003-5.362-.167-.654-.198-2.066-.198-9.018 0-4.533.046-8.242.102-8.242.056 0 .284.37.507.821.915 1.857 2.997 3.487 5.12 4.01.99.244 2.883.21 3.842-.068.43-.125 2.971-1.282 5.648-2.57 6.786-3.269 8.464-4.077 12.258-5.9 1.826-.879 8.33-4.015 14.455-6.97a13451.94 13451.94 0 0 1 12.827-6.186c.93-.446 4.183-2.014 7.227-3.484 9.477-4.575 8.844-4.218 9.7-5.476l.424-.624.083 3.099c.215 8.115.241 12.107.087 13.022-.266 1.577-1.077 2.973-2.266 3.899-.477.372-4.623 2.433-11.088 5.511-.716.341-3.031 1.456-5.144 2.477a4165.134 4165.134 0 0 1-12.436 5.995c-.716.34-2.357 1.13-3.646 1.754s-4.659 2.25-7.488 3.612l-7.032 3.389c-10.465 5.049-12.96 6.228-13.553 6.404-1.08.32-3.352.272-4.425-.094z" fill="#46c3f0"/><path d="M244.09 173.93c-2.624-.749-4.686-2.99-5.245-5.698-.234-1.136-.292-8.619-.066-8.619.071 0 .13.117.13.26 0 .143.187.656.415 1.14.56 1.186 2.172 2.813 3.362 3.392 1.645.8 3.56 1.024 5.285.617 1.006-.238 1.548-.49 12.62-5.865 1.29-.626 2.755-1.33 3.256-1.562s1.908-.907 3.126-1.496c1.217-.59 3.678-1.775 5.469-2.635 1.79-.86 4.955-2.386 7.032-3.392s4.48-2.163 5.34-2.573c.859-.41 2.558-1.228 3.776-1.82 2.092-1.014 3.133-1.517 7.162-3.453 4.139-1.989 5.396-2.597 8.334-4.03 1.72-.839 3.39-1.648 3.712-1.8.885-.415 2.277-1.868 2.732-2.85l.381-.824.003 4.102c.002 2.256-.054 4.349-.124 4.651-.328 1.423-1.42 2.97-2.573 3.646-.52.305-2.152 1.105-7.646 3.746-.788.378-2.43 1.17-3.647 1.76s-2.8 1.352-3.516 1.694c-.716.342-2.415 1.162-3.776 1.822-1.361.66-3.002 1.451-3.646 1.757-.645.306-5.392 2.593-10.548 5.083s-10.08 4.862-10.94 5.273c-1.863.89-4.025 1.929-7.031 3.382-7.048 3.406-8.749 4.196-9.412 4.369-1.025.267-2.886.23-3.964-.077z" fill="#37aadf"/></g><g stroke-width=".652"><path d="M94.245 164.53c-6.302-2.017-9.737-7.178-8.308-12.483.776-2.884 4.844-6.79 7.729-7.425 1.112-.244 2.178-.696 2.369-1.004 1.5-2.428 9.142-3.454 13.839-1.858 3.673 1.247 3.917 1.571 4.75 6.304 1.067 6.052.713 8.592-1.374 9.86-.929.565-2.836 1.777-4.238 2.695-5.836 3.818-10.881 5.155-14.767 3.911zm7.773-1.956c5.804-2.635 6.432-9.595 1.342-14.872-1.807-1.874-2.45-2.12-5.545-2.12-5.311 0-8.804 2.315-9.957 6.597-1.26 4.677 1.838 9.353 7.217 10.897 3.236.928 3.898.88 6.943-.502zm8.683-5.007c0-1.55-1.137-.978-1.465.737-.253 1.324-.143 1.496.576.899.49-.406.89-1.142.89-1.636zm-22.284-21.545c-1.317-.162-2.76-.733-3.206-1.27-1.264-1.524-2.49-8.932-2.96-17.897-.354-6.719-.237-8.771.651-11.444 1.108-3.337 5.727-10.694 11.506-18.328 3.778-4.99 4.792-8.097 4.423-13.546-.458-6.774-3.912-11.506-9.282-12.717-3.293-.743-4.431.39-5.336 5.307-.628 3.415-.602 4.32.148 5.169 2.08 2.355.601 4.95-5.507 9.655-4.011 3.09-4.676 3.165-15.103 1.691-4.342-.614-7.443-1.406-8.477-2.165-6.214-4.563-6.798-17.26-1.295-28.162 2.764-5.475 5.836-8.628 10.882-11.169 2.38-1.198 4.791-2.551 5.358-3.005s2.085-1.692 3.373-2.749c3.221-2.643 5.078-3.261 12.982-4.322 6.254-.84 6.915-.826 7.635.153.627.853 1.435.986 3.96.651 1.744-.231 3.379-.214 3.631.04.253.252 3.166.513 6.474.578 9.752.193 12.496 1.353 9.925 4.194-1.094 1.21-1.066 1.286.736 2.002 3.238 1.286 3.833 1.734 3.74 2.814-.05.578.316 1.051.815 1.051 1.39 0 3.661 2.587 3.239 3.689-.303.789.005.896 1.58.55 2.979-.655 2.34.206-1.468 1.98l-3.424 1.594 2.81.006c1.545.003 2.644.275 2.441.603-.202.328-.074.695.287.815 1.165.389 1.95 4.306 1.019 5.08-.927.769-.576 3.942.437 3.942.364 0 .468-.712.237-1.63-.236-.94-.127-1.63.256-1.63.69 0 .897.82.698 2.77-.064.633.321 1.142.865 1.142 1.535 0 1.75.915 1.018 4.33-.374 1.743-.738 5.119-.809 7.502-.095 3.167-.454 4.692-1.335 5.665-1.03 1.138-1.099 1.655-.471 3.555.971 2.943.51 3.897-2.933 6.073-1.998 1.263-2.89 2.272-2.89 3.27 0 1.42-5.492 7.384-6.847 7.435-.71.027-2.493 3.725-3.297 6.838-.52 2.017-.485 5.236.109 9.781.224 1.723.02 3.04-.604 3.88-.84 1.13-.801 1.466.35 3.023 2.394 3.238-.15 6.697-7.735 10.512-4.57 2.299-5.725 2.6-10.668 2.783-3.048.113-6.62.073-7.938-.088zm14.03-3.807c-.059-1.435-.323-6.192-.588-10.572-.644-10.642-.15-11.89 8.24-20.813 7.401-7.871 10.041-12.537 10.998-19.44 2.138-15.422-6.642-32.775-19.646-38.828-15.238-7.093-33.147-5.576-41.495 3.514-7.102 7.734-9.924 21.921-5.981 30.067 1.82 3.76 3.452 4.572 11.023 5.493 3.375.41 6.335.868 6.578 1.018s.439-2.282.436-5.405c-.006-6.209.801-8.85 3.787-12.391 3.272-3.88 9.662-6.073 14.86-5.098 2.932.55 7.528 4.55 9.032 7.861 1.619 3.564 1.61 10.25-.018 13.73-.671 1.435-3.455 5.69-6.186 9.456-7.294 10.056-9.143 14.087-9.415 20.525-.276 6.56 1.455 20.18 2.834 22.284 1.002 1.53 1.238 1.569 8.338 1.39l7.307-.184zm8.255-2.352c0-.32-.44-.583-.978-.583s-.978.431-.978.958c0 .583.382.811.978.582.538-.206.978-.637.978-.957zm-3.65-3.725c-.344-.53-2.87 1.605-2.87 2.424 0 .612.508.393 1.502-.646.826-.863 1.441-1.664 1.367-1.778zm-.935-2.643c-.018-.892-.174-.86-.979.204-1.246 1.648-1.232 2.71.021 1.669.538-.447.969-1.29.958-1.873zm5.237-7.985c0-.36-.293-.471-.652-.25s-.652.697-.652 1.056.293.47.652.249.652-.697.652-1.055zm-7.38-3.958c-.208-.52-.362-.366-.394.394-.028.687.126 1.072.343.856.217-.217.24-.78.051-1.25zm11.292-10.963c0-.828-1.978-.828-3.26 0-.742.48-.467.634 1.141.642 1.166.005 2.12-.284 2.12-.642zm2.935-4.565c.221-.358-.037-.652-.575-.652-.538 0-1.16.294-1.381.652s.037.652.575.652c.538 0 1.16-.293 1.38-.652zm3.788-2.892c.784-.594.939-1.045.46-1.34-.761-.47-2.618.737-2.618 1.704 0 .809.785.677 2.158-.364zM77.445 80.95c0-.359-.293-.471-.652-.25-.358.222-.652.697-.652 1.056s.294.47.652.249c.359-.222.652-.697.652-1.055zm5.217-5.83c0-.338-.293-.614-.652-.614s-.652.457-.652 1.016c0 .56.293.836.652.614.359-.222.652-.68.652-1.017zm-7.173-.218c0-.141-.44-.426-.978-.632s-.978-.091-.978.256c0 .348.44.632.978.632s.978-.115.978-.256zm53.285-2.493c.28-1.838-.42-1.137-.792.793-.157.814-.091 1.286.146 1.05.237-.238.528-1.067.646-1.843zm-50.677-3.197c0-.359-.293-.47-.652-.249-.359.222-.652.696-.652 1.055s.293.47.652.25c.359-.222.652-.697.652-1.056zm54.123-1.227c0-.359-.13-.652-.288-.652s-.468.293-.69.652c-.222.359-.092.652.287.652.38 0 .691-.293.691-.652zm-50.211-2.116c0-.364-.432-.293-.978.16-.538.446-.978 1.105-.978 1.464 0 .363.432.293.978-.16.538-.447.978-1.105.978-1.464zm41.408.16c-.222-.359-.696-.652-1.055-.652s-.47.293-.25.652.697.652 1.056.652.47-.294.249-.652zm8.115-2.025c-.364-.68-.98-1.236-1.37-1.236-.468 0-.436.33.095.97.443.533.619 1.455.391 2.049-.344.896-.249.941.566.265.729-.605.81-1.128.318-2.048zm-52.7.231c.812-1.034.789-1.057-.246-.246-.627.492-1.14 1.006-1.14 1.141 0 .537.535.192 1.387-.895zm44.586-.815c.221-.358.11-.652-.25-.652s-.833.294-1.055.652-.11.652.25.652.833-.293 1.055-.652zm-41.734-.652c.221-.358.092-.652-.288-.652s-.69.294-.69.652c0 .359.129.652.287.652.158 0 .469-.293.69-.652zm46.13-4.346c-.45-.181-.665-.578-.478-.881.188-.303-.003-.764-.423-1.023-.476-.295-.588-.19-.298.28.26.422.09.758-.388.763-.62.008-.586.183.124.643.538.347 1.272.613 1.63.59.36-.023.284-.19-.166-.372zm-5.05-.87c.223-.36.11-.653-.248-.653s-.834.294-1.055.652-.11.653.249.653.833-.294 1.055-.653zm-4.238-3.223c0-.337-.293-.795-.652-1.016-.358-.222-.652.054-.652.613 0 .56.294 1.017.652 1.017s.652-.276.652-.614zm2.283-.038c.221-.359.092-.652-.288-.652s-.69.293-.69.652.129.652.287.652c.158 0 .469-.293.69-.652zm5.366-1.698c-.217-.217-.78-.24-1.25-.052-.52.209-.366.363.394.394.687.029 1.073-.125.856-.342zm-2.718-4.674c-.218-.218-.904.133-1.523.781-1.076 1.127-1.058 1.144.398.398.837-.43 1.344-.96 1.125-1.179zm-2.24.014c.812-1.034.789-1.057-.245-.246-1.086.852-1.432 1.387-.895 1.387.135 0 .649-.513 1.141-1.14zm4.427-2.12c-.024-.644-.227-.533-.597.327-.77 1.793-.77 2.822 0 1.63.348-.538.616-1.418.597-1.956zm-1.9.407c0-.136-.514-.65-1.142-1.141-1.034-.812-1.057-.788-.246.246.852 1.086 1.387 1.431 1.387.895zm-11.087-7.867c0-.158-.293-.469-.652-.69-.359-.222-.652-.092-.652.287 0 .38.293.69.652.69s.652-.128.652-.287zm-35.389-1.41c-.217-.217-.779-.24-1.25-.052-.52.208-.365.363.394.394.688.029 1.073-.126.856-.342zm12.93-3.373c-.511-.511-4.928 1.8-4.928 2.579 0 .309 1.202-.051 2.672-.8 1.469-.75 2.484-1.55 2.256-1.779zm7.805 1.936c-.2-.2-.727 0-1.17.446-.638.644-.564.719.366.365.643-.245 1.005-.61.804-.81zm18.928.47c.241-.39.1-1.048-.315-1.462-.569-.569-.895-.523-1.334.189-.622 1.005-.309 1.982.636 1.982.316 0 .772-.32 1.013-.71zm-3.78-1.085c.393-1.199-2.771-1.02-3.796.214-.752.907-.594 1.003 1.337.815 1.205-.117 2.311-.58 2.459-1.028zm-30.49-1.855l2.935-.884-2.934.387c-2.709.358-6.521 1.829-6.521 2.516 0 .161.807-.028 1.793-.421.986-.393 3.114-1.112 4.727-1.598zm8.953-1.31c-.217-.217-.779-.24-1.25-.051-.52.208-.365.362.394.394.688.028 1.073-.126.856-.343z" fill="#c2c2c2"/><path d="M94.725 164.57c-2.951-.754-4.506-1.746-6.758-4.31-1.687-1.923-2.045-2.881-2.045-5.472 0-4.297 1.95-7.044 6.852-9.65 2.15-1.143 4.76-2.536 5.8-3.097 2.127-1.146 9.849-1.417 10.497-.368.221.358 1.134.652 2.028.652 2.058 0 3.29 2.723 3.893 8.612.438 4.28-.277 7.038-1.827 7.038-.412 0-1.356.567-2.096 1.26-2.065 1.932-9.046 5.184-11.866 5.528-1.387.169-3.403.082-4.479-.193zm7.03-1.615c3.27-1.383 4.57-3.283 4.866-7.11.228-2.939-.009-3.839-1.704-6.476-1.513-2.355-2.54-3.215-4.45-3.724-4.865-1.297-9.967.963-12.167 5.39-1.629 3.278-1.004 6.313 1.896 9.214 3.334 3.334 7.676 4.35 11.56 2.706zm8.946-5.843c0-1.654-.956-.78-1.65 1.51-.442 1.454-.382 1.531.578.735.59-.49 1.072-1.5 1.072-2.245zM89.84 135.803c-3.821-.294-4.316-.499-5.082-2.105-1.067-2.234-2.748-15.55-2.748-21.758 0-4.159.288-5.246 2.595-9.806 1.427-2.821 4.685-7.917 7.24-11.324 5.977-7.971 7.282-10.846 7.282-16.043 0-6.943-3.566-12.314-9.32-14.038-2.25-.674-2.743-.622-3.883.41-.74.669-1.306.855-1.306.428a.745.745 0 0 0-.732-.753c-.507 0-.483.3.077.974.485.585.638 1.694.383 2.772-.908 3.824-.907 5.98.003 6.734 1.116.927 1.145 2.41.083 4.29-1.147 2.033-7.668 7.22-9.725 7.736-1.879.472-12.07-.61-16.678-1.769-3.436-.864-5.64-3.343-6.977-7.845-1.318-4.439-1.253-7.756.268-13.704 2.418-9.456 6.628-15.422 13.2-18.707 2.203-1.1 4.415-2 4.917-2 .502 0 .73-.296.507-.657s.126-.85.776-1.088c.65-.238 2.17-1.282 3.375-2.322 2.944-2.539 4.655-3.119 11.176-3.79 3.048-.314 6.22-.767 7.048-1.008 1.164-.338 1.583-.144 1.844.855.307 1.176.631 1.239 3.597.7 2.204-.4 3.534-.365 4.105.109.477.396 3.222.66 6.308.606 9.39-.164 12.613 1.13 10.002 4.014-1.383 1.529-1.312 1.626 2.008 2.736 1.753.586 2.553 1.223 2.492 1.984-.05.617.243 1.142.652 1.167.408.025.156.314-.562.641-1.191.545-1.163.59.326.534 3.192-.12 3.32-.013 3.162 2.653-.083 1.413-.35 2.447-.59 2.298-.243-.15-.315-1.086-.162-2.08.241-1.569.179-1.652-.468-.629-.41.65-.565 1.653-.344 2.23.222.578.026 1.289-.434 1.58-.505.321.306.536 2.043.542 1.584.006 2.694.195 2.468.422s.018 1.025.543 1.775c1.044 1.49 1.275 4.06.412 4.593-.299.185-.409 1.251-.245 2.37.328 2.233 1.164 1.886 1.623-.673.216-1.206.315-1.005.38.777.05 1.324.429 2.616.843 2.872.493.305.574.177.235-.372-.346-.56-.217-.734.388-.524.995.345.918 5.179-.113 7.105-.313.585-.404 2.494-.202 4.243.309 2.671.111 3.554-1.235 5.52-1.447 2.116-1.516 2.506-.712 4.04 1.21 2.311.226 4.305-3.059 6.196-1.84 1.059-2.576 1.917-2.576 3.004 0 1.35-4.917 6.809-6.876 7.633-.79.332-2.621 4.136-3.421 7.109-.67 2.49-.632 4.905.135 8.56.35 1.67.201 2.936-.503 4.3-.901 1.741-.899 2.032.024 2.955 2.87 2.87-.104 7.31-7.328 10.939-5.252 2.638-9.1 3.216-17.238 2.59zm12.564-1.012c.735-.281.82-.953.397-3.097-.298-1.506-.738-6.268-.978-10.583-.559-10.04.068-11.594 8.07-19.993 9.62-10.1 11.556-14.316 11.465-24.98-.157-18.464-11.268-32.579-28.988-36.827-12.908-3.094-27.576.05-33.128 7.1-8.53 10.834-9.636 29.697-1.974 33.659 1.09.563 4.535 1.31 7.656 1.66 3.12.35 6.136.779 6.7.953.875.27.962-.17.597-3.02-.914-7.121 1.495-13.736 6.202-17.031 3.57-2.5 9.125-3.623 12.665-2.563 5.777 1.73 9.832 7.469 9.832 13.91 0 5.23-1.319 8.274-6.822 15.741-2.688 3.648-6.068 8.93-7.51 11.737-2.533 4.932-2.621 5.319-2.61 11.412.016 8.334 1.623 19.543 3.023 21.09.913 1.009 2.116 1.193 7.772 1.193 3.681 0 7.115-.162 7.63-.36zm8.149-4.734c.142-.426-.207-.775-.774-.775s-1.033.465-1.033 1.033c0 1.152 1.404.95 1.807-.258zm-3.466-3.925c-.491-.572-2.905 1.376-2.905 2.345 0 .894.294.796 1.545-.512.85-.89 1.462-1.714 1.36-1.833zm-.972-2.961c-.022-1.307-.078-1.293-.955.243-1.221 2.135-1.221 2.97 0 1.956.538-.447.967-1.436.955-2.2zm5.23-7.745c.004-.27-.284-.49-.643-.49s-.647.66-.642 1.468c.008 1.186.131 1.28.642.489.348-.538.637-1.198.642-1.467zm-6.928-3.424c.207-.538.091-.978-.256-.978s-.632.44-.632.978.116.978.257.978c.14 0 .425-.44.631-.978zm10.85-11.292c0-.547-.632-.784-1.743-.652-2.427.287-2.6 1.51-.213 1.51 1.183 0 1.956-.339 1.956-.858zm3.019-5.144c-.538-.537-2.367.324-2.367 1.114 0 .483.417.473 1.36-.032.748-.4 1.201-.887 1.007-1.082zm3.802-2.375c.866-.633.984-1.013.422-1.36-.808-.5-2.678.663-2.678 1.666 0 .824.873.705 2.256-.306zm2.96-8.381c0-1.054-.192-1.242-.725-.71-.4.4-.529 1.046-.288 1.435.675 1.092 1.013.85 1.013-.725zm-47.901-3.174c.701-1.135-.098-1.376-.992-.298-.515.62-.564.994-.132.994.382 0 .887-.313 1.124-.696zm50.51.044c0-.359-.13-.652-.288-.652-.158 0-.469.293-.69.652s-.093.652.287.652.69-.294.69-.652zM74.51 75.81c-.222-.359.127-.686.776-.728 1.1-.07 1.103-.096.03-.375-.631-.165-.98-.571-.776-.903s.062-.602-.318-.602c-.758 0-.95 2.13-.256 2.825.658.658 1 .521.544-.217zm7.932-1.586c-.216-.562-.915-.988-1.554-.947-.996.065-1.009.117-.09.36.73.195.961.74.726 1.718-.273 1.136-.173 1.273.482.662.455-.424.651-1.231.436-1.793zm46.304-1.633c.197-1.293.084-1.398-.756-.701-1.157.96-1.333 2.84-.232 2.473.416-.139.86-.936.988-1.772zm-51.302.72c0-.85-.776-1.414-1.406-1.025-.675.417-.093 1.568.792 1.568.337 0 .614-.245.614-.544zm-2.083-4.365c-.2-.201-.565.16-.81.804-.354.93-.279 1.004.365.365.446-.442.646-.968.445-1.17zm2.735.63c0-.558-.294-.835-.652-.613-.359.222-.652.68-.652 1.017 0 .337.293.613.652.613s.652-.457.652-1.016zm54.395-2.01c.357-.931.26-.955-.746-.184-.635.487-1.278.969-1.427 1.07-.15.102.186.185.745.185.56 0 1.202-.482 1.428-1.07zm-50.878-.613c.612-1.595.48-1.806-.583-.924-1.084.9-1.297 1.956-.395 1.956.32 0 .76-.464.978-1.032zm42.129-.598c-.909-1.095-1.957-1.295-1.957-.374 0 .332.514.738 1.142.902s1.25.333 1.384.374c.133.042-.123-.364-.57-.902zm-45.81-.326c-.089-.359.131-.58.49-.49.358.09.571.406.473.701-.099.296.136.343.52.105.487-.3.493-.682.022-1.25-.373-.449-.46-1.08-.194-1.402.265-.322-.17-.035-.969.637-.798.671-1.295 1.475-1.103 1.786.476.77.962.714.762-.087zm53.819-.163c.366-1.022-.662-3.098-1.534-3.098-.417 0-.398.475.053 1.318.388.725.528 1.605.31 1.956-.216.351-.108.639.242.639s.768-.367.929-.815zm-2.347-1.264c-.208-.52-.362-.365-.394.394-.028.688.126 1.073.343.856.216-.217.24-.779.051-1.25zm-5.988-1.182c.222-.358.11-.652-.249-.652s-.833.294-1.055.652-.11.652.249.652.833-.293 1.055-.652zm-41.734-.652c.222-.358.092-.652-.288-.652s-.69.294-.69.652c0 .359.13.652.287.652.159 0 .47-.293.691-.652zm45.972-1.304c0-.359-.31-.652-.69-.652-.38 0-.51.293-.288.652s.532.652.69.652c.159 0 .288-.293.288-.652zm-.022-3.953c-.372-.695-.83-1.264-1.017-1.264-.188 0-.16.294.061.652.222.36-.072.653-.652.653-1.516 0-.687.999.93 1.12 1.147.087 1.251-.091.678-1.161zm-4.368-.612c.614-.717.826-1.304.471-1.304s-1.232.587-1.95 1.304c-.812.813-.99 1.305-.47 1.305.458 0 1.335-.587 1.95-1.305zm-1.805-.652c.222-.358.11-.652-.249-.652s-.833.294-1.055.652c-.222.359-.11.652.25.652s.833-.293 1.054-.652zm-2.934-2.282c0-.538-.276-.978-.614-.978-.822 0-1.411 1.018-.89 1.54.734.734 1.504.446 1.504-.562zm2.608-.295c0-.299-.407-.7-.904-.89-.633-.244-.807.027-.578.9.307 1.176 1.482 1.168 1.482-.01zm6.122-1.217c.182-.294-.535-.407-1.592-.252-1.057.155-1.921.395-1.921.534 0 .497 3.19.24 3.513-.282zm-3.513-4.45c0-.205-.422-.21-.938-.013-.521.2-1.027-.068-1.14-.604-.158-.743-.39-.666-1.01.338-.694 1.122-.657 1.245.27.89.76-.292.925-.17.564.415-.404.653-.22.672.87.087.761-.407 1.384-.907 1.384-1.113zm-5.217-.63c0-.539-1.266-.844-1.557-.374-.188.304.085.554.607.554.523 0 .95-.08.95-.18zm4.8-1.885c-.409-1.066-1.54-1.345-1.54-.38 0 .494.457.831 1.773 1.306.078.029-.026-.388-.233-.926zm-8.37-2.809c-.2-.2-.726 0-1.169.446-.639.644-.564.718.365.365.643-.245 1.005-.61.805-.81zm1.437-1.172c-.217-.216-.78-.24-1.25-.051-.52.208-.366.362.394.394.688.028 1.073-.126.856-.343zm4.415-.258c.222-.359.263-.652.092-.652s-.779-.18-1.35-.399c-.76-.291-.93-.117-.636.652.457 1.19 1.296 1.367 1.894.4zm-7.023-1.046c-.217-.217-.78-.24-1.25-.051-.52.208-.366.362.394.394.687.028 1.072-.126.856-.343zm-.476-1.819c0-.14-.44-.425-.978-.631-.538-.207-.978-.091-.978.256s.44.632.978.632.978-.116.978-.257zm-36.428-1.561c-.47-.157-1.165.025-1.544.404-.484.484-.23.568.855.285.882-.23 1.178-.526.69-.69zm13.16-3.215c-.993-.339-4.772 1.605-4.772 2.454 0 .357 1.247.01 2.772-.771 1.524-.782 2.424-1.539 2-1.683zm7.944 2.424c.222-.358.11-.652-.249-.652s-.833.294-1.055.652-.11.653.249.653.833-.294 1.055-.653zm14.542-.13c1.258-1.258.915-1.826-1.104-1.826-3.123 0-3.15 1.876-.037 2.533.197.042.71-.277 1.141-.707zm4.37-.53c0-1.398-1.896-1.196-2.17.23-.168.872.097 1.138.969.97.66-.127 1.2-.668 1.2-1.2zm-12.37-.675c.507-.823-2.352-1.485-3.115-.722-.472.472-.203.567.881.31 1.528-.364 1.534-.35.257.655-1.284 1.012-1.281 1.022.173.655.813-.205 1.624-.609 1.803-.898zm-24.148-.81c1.793-.567 3.847-1.163 4.565-1.324 1.052-.235.99-.306-.326-.364-2.215-.098-6.551 1.157-8.148 2.358-.72.541-.868.844-.33.673.538-.172 2.446-.776 4.239-1.343zm11.235-2.161c-.217-.217-.779-.24-1.25-.052-.52.209-.365.363.394.394.688.029 1.073-.125.856-.342zm35.39 16.106c0-.542 2.674-1.517 3.07-1.12.108.106-.54.529-1.438.938-.898.41-1.633.491-1.633.182z" fill="#9e9e9e"/><path d="M92.443 163.76c-8.113-3.235-8.69-13.975-.958-17.843 1.423-.712 4.008-2.12 5.743-3.127 2.48-1.44 3.875-1.807 6.52-1.714 3.83.135 7.109 1.118 6.58 1.973-.196.317.119.576.7.576.58 0 .873-.293.651-.652-.221-.359-.102-.652.265-.652 1.09 0 1.932 2.167 2.736 7.035.844 5.11.452 7.809-1.227 8.442-.617.232-2.286 1.261-3.71 2.287-5.66 4.077-12.596 5.55-17.3 3.675zm9.366-.819c5.988-2.502 6.734-10.199 1.539-15.882-3.92-4.287-13.842-1.11-15.8 5.058-1.196 3.766 1.428 8.492 5.822 10.487 3.191 1.45 5.552 1.544 8.44.337zm8.871-5.864c-.02-1.36-.04-1.363-.978-.122-1.329 1.758-1.314 3.429.021 2.32.538-.446.969-1.435.957-2.198zm-24.987-22.102c-1.57-1.15-3.178-11.294-3.278-20.693-.077-7.198.004-7.67 2.012-11.763 1.151-2.345 4.298-7.257 6.993-10.915 2.696-3.658 5.468-7.762 6.16-9.12 4.273-8.375.446-19.296-7.608-21.71-2.555-.765-2.877-.72-4.276.594-.833.782-1.536 1.783-1.565 2.225-.028.442-.203 2.178-.389 3.859-.242 2.185-.072 3.276.595 3.83 1.633 1.355 1.016 3.227-2.097 6.364-1.666 1.68-2.823 2.686-2.57 2.238.253-.449.149-.815-.23-.815s-.691.394-.691.877c0 1.215-1.935 2.778-4.068 3.284-2.667.633-16.712-1.382-19.019-2.729-7.6-4.438-6.838-22.239 1.41-32.973 2.402-3.125 8.05-7.085 11.243-7.881.897-.224.032.388-1.92 1.36-6.695 3.329-11.12 9.329-13.384 18.146-1.178 4.588-1.3 11.644-.256 14.764 1.877 5.607 4.477 7.194 13.278 8.104 2.152.222 4.5.543 5.217.712 1.237.292 1.304-.025 1.304-6.131 0-6.022.127-6.643 1.956-9.58 2.78-4.461 7.578-7.082 13.081-7.144 3.523-.04 4.478.224 6.915 1.914 3.595 2.492 6.416 7.779 6.41 12.014-.004 4.278-.97 7.178-3.749 11.272-13.999 20.621-13.522 19.458-12.998 31.728.358 8.383 1.585 16.432 2.672 17.525.269.27 3.913.657 8.1.858l7.61.367-7.864.122c-5.486.086-8.204-.127-8.992-.703zm-8.548-53.341c.702-1.136-.098-1.376-.992-.299-.514.62-.564.994-.131.994.381 0 .887-.313 1.123-.695zm-2.722-5.989c-.324-.539-.111-.508.63.093.615.5 1.307.72 1.537.49.23-.231.06-.42-.38-.42s-.618-.293-.396-.652c.222-.358.092-.652-.288-.652-.875 0-.898-2.957-.036-4.568.371-.694.404-1.376.075-1.579-.318-.197-.906.943-1.306 2.532-.914 3.628-.926 5.571-.037 5.571.38 0 .47-.366.201-.815zm8.12-.645c-.114-.803-.756-1.565-1.427-1.693-.766-.146-1.052.037-.77.493.247.4.694.574.995.388.3-.186.393.25.205.967-.2.764-.02 1.306.432 1.306.428 0 .68-.652.565-1.461zm1.215-1.27c-.208-.52-.362-.366-.394.394-.028.687.126 1.072.343.856.217-.217.24-.78.051-1.25zm-5.941-.452c0-1.099-.304-1.198-2.33-.76-.245.054 1.96 1.986 2.268 1.986.034 0 .062-.552.062-1.226zm4.844-1.382c0-.359-.13-.652-.288-.652s-.469.293-.69.652c-.222.358-.092.652.287.652.38 0 .69-.294.69-.652zm-4.075-2.445c.399-1.2-1.585-.996-2.048.21-.274.715-.065.962.691.815.597-.116 1.207-.577 1.357-1.025zm3.335-3.131c.215-1.107.122-1.134-.928-.272-1.065.874-1.135.834-.801-.461.28-1.092.132-1.33-.646-1.03-.665.255-.85.126-.54-.375.744-1.204-.345-.889-1.306.378-1.157 1.524-1.129 2.344.065 1.885.536-.205 1.343.045 1.794.556 1.045 1.185 2.057.894 2.362-.681zm-4.077-1.064c.188-.305.616-.386.95-.18.853.528.757.734-.343.734-.522 0-.795-.25-.607-.554zm3.839-2.49c.221-.358.11-.651-.25-.651s-.833.293-1.054.652c-.222.358-.11.652.249.652s.833-.294 1.055-.652zm3.26-1.304c.222-.358-.054-.652-.613-.652-.56 0-1.017.294-1.017.652s.276.653.614.653c.337 0 .795-.294 1.016-.653zm18.156 72.871c.044-.448-.319-4.274-.805-8.502-1.553-13.506-.828-15.764 8.08-25.177 6.999-7.393 9.034-10.6 10.396-16.378 1.947-8.263.687-17.059-3.735-26.072-6.337-12.915-19.07-20.218-35.256-20.218-5.343 0-5.772-.09-4.623-.969 1.154-.884 1.073-.905-.917-.24-1.346.45-1.889.91-1.416 1.201.438.272-.285.644-1.697.873-1.353.22-2.605.255-2.78.08-.94-.94 7.902-6.84 10.169-6.785.641.016.03.434-1.36.93-2.725.97-5.075 2.8-2.69 2.093 9.222-2.733 9.79-2.959 7.553-3.005-3.852-.08-1.916-.516 4.44-.998 5.629-.428 6.087-.375 5.692.657-.382.993-.112 1.068 2.354.657 1.531-.255 3.371-.414 4.088-.352.718.061 3.945.206 7.173.322 10.483.375 13.465 1.644 10.16 4.321l-1.47 1.19 1.524.59c4.866 1.884 5.225 2.108 4.869 3.037-.203.53-.012.986.425 1.014.437.028-.014.347-1.003.708-1.907.697-1.853 1.42.19 2.513 1.012.542 1.18.48.871-.323-.21-.546-.716-1.022-1.126-1.058-.41-.036-.012-.283.885-.549 1.97-.584 3.267.282 3.24 2.161-.025 1.59-1.418 3.67-2.459 3.67-.387 0-.84.22-1.008.489-.166.269 1.21.385 3.06.258 1.848-.126 3.152-.014 2.895.25-.256.263-.036 1.092.49 1.842 1.096 1.565 1.246 3.781.32 4.708-.385.384-.416 1.402-.081 2.576.373 1.304.671 1.62.91.962.94-2.595 1.098-2.8.878-1.145-.143 1.074.167 2.117.774 2.608.803.65.91.651.522.004-.269-.448-.21-.815.132-.815 1.841 0 1.148 5.422-.735 5.741-1.008.17-1.058.022-.365-1.088.642-1.028.631-1.493-.052-2.317-1.176-1.417-1.669-1.3-2.534.599-.409.896-.477 1.63-.153 1.63.325 0 .725-.514.889-1.141.197-.752.352-.53.455.652.087.986.23 2.086.32 2.445s.2.835.245 1.058c.045.223.454.097.91-.281.656-.545.81.237.74 3.781-.07 3.47-.397 4.86-1.466 6.22-1.038 1.318-1.22 2.046-.74 2.943.995 1.86.752 4.232-.555 5.415-.656.593-1.416 1.079-1.69 1.079-1.176 0-3.33 2.38-3.117 3.443.234 1.161-5.628 7.642-6.912 7.642-.347 0-.803.514-1.013 1.142-.211.627-.65 1.58-.975 2.119-2.014 3.33-2.468 7.566-1.285 11.989.663 2.478.614 3.117-.352 4.59-1.017 1.552-1.028 1.845-.117 3.145 1.678 2.396 1.236 4.563-1.47 7.205-1.36 1.328-2.932 2.415-3.495 2.415-.562 0-2.104.734-3.425 1.63-2.767 1.878-2.878 1.91-2.772.815zm7.275-4.401c0-.478-.366-.992-.815-1.141-.485-.162-.815.3-.815 1.14s.33 1.304.815 1.142c.449-.15.815-.663.815-1.141zm-2.934-4.041c0-.305-.734-.073-1.63.514-.897.588-1.63 1.526-1.63 2.085 0 .784.373.666 1.63-.514.896-.843 1.63-1.781 1.63-2.085zm-1.246-2.308c.347-.911.497-1.79.334-1.953-.289-.29-2.348 3.28-2.348 4.07 0 .917 1.433-.589 2.014-2.117zm4.506-2.78c0-.359-.31-.652-.69-.652-.38 0-.51.293-.288.652.222.358.533.652.691.652.158 0 .288-.294.288-.652zm-6.52-2.609c0-.358-.13-.652-.288-.652-.158 0-.469.294-.69.652s-.093.652.287.652.69-.293.69-.652zm7.163-2.771c.005-.27-.284-.49-.643-.49s-.647.661-.642 1.468c.008 1.186.131 1.28.642.489.348-.538.637-1.198.643-1.467zm-6.928-3.424c.207-.538.091-.978-.256-.978s-.632.44-.632.978.116.978.257.978c.14 0 .425-.44.631-.978zm8.894-6.56c0-.558-.298-.831-.663-.606-.364.225-.494.683-.287 1.017.559.904.95.735.95-.41zm1.956-4.612c0-1.036-2.352-1.54-3.205-.685-1.118 1.117-.849 1.424 1.249 1.424 1.076 0 1.956-.333 1.956-.74zm2.523-4.375c.4-.481.536-1.065.303-1.298-.49-.49-2.174.751-2.174 1.601 0 .859 1.048.69 1.871-.303zm4.298-3.264c.905-.661 1-1.003.385-1.383-.49-.303-1.368.047-2.2.879-1.075 1.074-1.16 1.383-.385 1.383.55 0 1.54-.395 2.2-.879zm2.96-8.38c0-1.054-.193-1.243-.725-.71-.4.4-.529 1.045-.288 1.435.675 1.091 1.013.849 1.013-.726zm2.609-3.13c0-.36-.13-.653-.288-.653-.158 0-.469.294-.69.652s-.093.652.287.652.69-.293.69-.652zm.342-7.174c1.193 0 1.707-.956 1.21-2.251-.376-.979-.509-.976-1.633.042-.673.609-1.2 1.722-1.172 2.473.028.752.2 1 .38.551.181-.448.728-.815 1.215-.815zm-3.929-2.608c.222-.359.092-.652-.287-.652-.38 0-.69.293-.69.652s.128.652.287.652.469-.294.69-.652zm7.293-.775c-.209-.52-.363-.365-.394.394-.029.688.125 1.073.342.856.217-.216.24-.779.052-1.25zm-7.477-2.605c-.995-.994-1.6-.389-1.049 1.048.304.79.631.913 1.124.42s.471-.921-.075-1.468zm-.16-2.514c-1.231-.778-1.938-.787-1.938-.023 0 .62 2.037 1.305 2.59.87.168-.132-.125-.514-.653-.847zm-.7-2.178c.584-.703.477-.968-.49-1.221-.953-.25-1.162-.045-.915.898.382 1.461.448 1.476 1.405.323zm4.63-2.726c0-.56-.297-.832-.662-.607s-.494.683-.288 1.016c.56.905.95.736.95-.41zm-3.586-.94c.222-.358.092-.652-.287-.652-.38 0-.69.294-.69.652s.128.652.287.652.469-.293.69-.652zm-3.11-1.046c-.217-.217-.78-.24-1.25-.051-.52.208-.366.362.393.394.688.028 1.073-.126.856-.343zm6.674-1.605c-.55-1.028-.845-1.113-1.564-.45-1.106 1.023-.853 1.483.886 1.614 1.148.087 1.252-.091.678-1.164zm-3.453-.227c.317-.346.136-.393-.437-.112-.589.288-.524.107.163-.457 1.392-1.14 1.458-1.77.186-1.77-.525 0-1.27.587-1.653 1.305-.384.717-1.017 1.304-1.407 1.304-.504 0-.5-.251.013-.87.574-.692.319-.869-1.25-.869-1.085 0-1.63.212-1.21.47.418.26.574.773.345 1.143-.52.84 4.474.704 5.25-.144zm-5.654-3.317c0-.538.294-.978.653-.978s.578.264.489.587c-.22.792 1.053.98 1.315.194.114-.34-.267-.802-.846-1.024-1.283-.493-3.753.72-3.22 1.58.592.958 1.61.732 1.61-.359zm9.605-.386c-.635-.37-1.004-.917-.819-1.216.185-.299-.118-.717-.672-.93-.555-.213-.85-.13-.656.183.194.313-.368.708-1.248.876-.88.168-1.716-.019-1.859-.415-.143-.396-.511-.484-.819-.196-.898.843 1.202 1.789 3.09 1.393.952-.2 1.923-.053 2.158.327.235.38.776.681 1.203.67.427-.01.257-.322-.378-.692zm-5.203-4.685c.448-.347.815-.934.815-1.304s-.544-.181-1.21.421c-.68.616-1.68.915-2.282.684-1.033-.397-1.485.401-.683 1.204.443.443 2.147-.067 3.36-1.005zm-5.23-.213c-.217-.217-.78-.24-1.25-.052-.52.208-.366.363.394.394.687.028 1.073-.126.856-.342zm4.387-.866c.206-.333.077-.79-.288-1.016-.364-.225-.667-.026-.672.444-.008.68-.124.674-.57-.031-.355-.559-.713-.64-.973-.219-.226.366-.043.815.408.996 1.277.515 1.69.48 2.095-.174zm3.614-1.675c0-2.475-.96-2.388-1.144.104-.101 1.382.089 2.102.49 1.854.36-.222.654-1.104.654-1.958zm-11.748-.527c.005-.29-.283-.347-.642-.125-.358.222-.647.9-.642 1.506.01.95.098.967.642.124.348-.538.637-1.215.642-1.505zm4.81 1.18c.207-.539.128-.979-.176-.979-.303 0-.917.44-1.363.978-.661.797-.628.978.176.978.544 0 1.157-.44 1.364-.978zm-3.17-1.631c.222-.359.093-.652-.287-.652s-.69.293-.69.652c0 .359.129.652.287.652.158 0 .469-.293.69-.652zm-.15-2.608c.613-.718.813-1.305.443-1.305-.37 0-1.303.587-2.073 1.305-1.013.944-1.136 1.304-.444 1.304.526 0 1.46-.587 2.073-1.304zm4.909-2.052c-.465-.295-1.286-.518-1.824-.495-.666.028-.718.146-.163.37.448.181.815.78.815 1.333 0 .832.173.86 1.009.166.806-.669.839-.945.163-1.374zm-18.126.095c0-.358-.13-.652-.288-.652s-.468.294-.69.652c-.222.36-.092.653.287.653.38 0 .691-.294.691-.653zm11.738 0c0-.358-.457-.652-1.017-.652s-.835.294-.613.652c.221.36.679.653 1.016.653.338 0 .614-.294.614-.653zm-10.433-2.608c0-.359-.13-.652-.288-.652s-.468.293-.69.652-.092.652.287.652c.38 0 .691-.293.691-.652zm9.26-.13c-.609-.609-.957-.609-1.565 0-.609.608-.435.782.782.782s1.391-.174.783-.782zm-14.741-2.152c2.034-1.886 1.308-2.186-.877-.363-1.362 1.136-1.867 1.993-1.175 1.993.161 0 1.084-.734 2.052-1.63zm-9.68-.32c2.388-1.455 2.642-1.964.978-1.96-1.434.005-5.466 3.202-4.076 3.232.538.011 1.932-.56 3.098-1.271zm15.29.854c-.64-.256-.57-.544.285-1.17 1.051-.768 1.025-.864-.357-1.303-.908-.288-1.786-.164-2.242.317-.58.612-.382.693.881.36 1.439-.38 1.487-.342.411.329-.986.614-1.048.867-.326 1.325.491.311 1.187.547 1.545.524.359-.023.27-.194-.197-.382zm8.87-.339c1.269-1.268.91-1.825-1.174-1.825-1.075 0-1.956.284-1.956.631 0 .348-.44.463-.978.256-.538-.206-.978-.033-.978.385 0 .419.234.616.52.44.286-.178.946-.053 1.467.277 1.286.813 2.169.767 3.1-.164zm4.404.074c.748-1.21-.816-2.222-1.963-1.27-.554.459-1.006 1.092-1.006 1.407 0 .82 2.447.707 2.97-.137zm-33.944-.595c.51-.826-.353-.826-1.63 0-.843.544-.826.633.125.642.606.005 1.284-.284 1.505-.642zm28.19-2.35c-.217-.217-.78-.24-1.25-.052-.52.208-.366.363.393.394.688.028 1.073-.126.856-.343zm-20.365-.91c1.258-.541 1.253-.563-.124-.607-.786-.025-1.61.248-1.832.606-.477.772.161.772 1.956 0zm37.17 14.997c1.792-.77 2.822-.77 1.63 0-.538.348-1.419.616-1.957.597-.645-.024-.534-.227.326-.597z" fill="#7a7a7a"/><path d="M91.484 163c-3.936-2.23-5.744-5.304-5.385-9.157.395-4.241 2.023-6.18 7.558-9 2.57-1.31 5.085-2.724 5.59-3.142 1.055-.877 7.04-.806 9.617.114 1.216.433 1.629.938 1.354 1.654-.298.777-.114.922.75.591.629-.241 1.284-.439 1.455-.439.172 0 .102-.339-.154-.753-.278-.45-.18-.576.246-.313 1.086.671 2.948 9.87 2.352 11.623-.281.829-.453 1.727-.382 1.996.07.269-.238.416-.686.326-.449-.09-.761.145-.696.522.066.377-.447 1.04-1.14 1.473-1.121.7-1.262.605-1.262-.848 0-.9-.272-1.636-.604-1.636s-.726-.514-.874-1.141c-.148-.628-.222.396-.164 2.275.086 2.788-.113 3.486-1.083 3.794-.653.207-1.187.7-1.187 1.093s-.18.538-.398.32c-.219-.22-1.461.172-2.762.869-3.33 1.785-8.778 1.686-12.145-.22zm12.715-1.464c3.787-3.628 3.683-9.188-.255-13.681-5.923-6.76-18.64-.249-16.464 8.427.553 2.2 3.215 5.21 5.76 6.507 3.322 1.695 8.5 1.103 10.96-1.254zm9.192-7.655c-.644-.64-.72-.565-.365.365.244.643.61 1.005.81.804.2-.2 0-.727-.445-1.17zm-4.646-3.087c0-.359-.13-.652-.287-.652s-.47.293-.691.652c-.222.359-.092.652.288.652s.69-.293.69-.652zm-3.912-6.52a.654.654 0 0 0-.652-.653.654.654 0 0 0-.653.652c0 .359.294.652.653.652a.654.654 0 0 0 .652-.652zm3.912-.94c0-.159-.293-.47-.652-.691-.359-.222-.652-.092-.652.287 0 .38.293.691.652.691s.652-.13.652-.288zm-23.049-8.51c-.534-.534-1.137-1.78-1.34-2.77-.824-4.04-1.67-10.613-2.08-16.18-.693-9.423.977-13.356 11.957-28.162 4.372-5.896 5.86-10.392 5.1-15.41-.941-6.213-6.176-11.779-11.104-11.807-1.556-.009-2.673-.27-2.483-.58.19-.31 1.44-.416 2.777-.237 7.917 1.062 13.068 8.043 12.199 16.531-.429 4.183-1.788 6.802-7.574 14.592-2.531 3.407-5.706 8.396-7.055 11.086-2.35 4.684-2.45 5.154-2.378 11.101.087 7.243 1.339 17.019 2.562 20.003.804 1.961 1.08 2.1 4.651 2.322l3.798.237-4.03.123c-2.832.087-4.317-.165-5-.848zm11.475.505c.986-.15 2.6-.15 3.587 0 .986.15.179.272-1.794.272-1.972 0-2.78-.123-1.793-.272zm5.934-.679c.168-.272-.129-3.72-.66-7.662-1.153-8.577-.862-14.115.93-17.621.727-1.424 4.123-5.575 7.547-9.225 3.424-3.65 6.83-7.823 7.57-9.273 8.304-16.276-.168-40.555-16.92-48.488-6.087-2.883-13.125-4.493-19.797-4.53-2.96-.017-4.758-.256-4.257-.566 1.437-.888.235-1.344-1.652-.626-1.08.41-1.58.96-1.292 1.425.328.53 0 .63-1.102.336-.863-.231-1.8-.424-2.081-.429-.687-.012 3.403-3.536 5.197-4.478 2.365-1.241 2.638-.834.368.55-1.165.71-2.119 1.402-2.119 1.537 0 .134 2.529-.522 5.62-1.458 5.244-1.589 5.473-1.73 3.424-2.106-1.771-.325-1.463-.42 1.591-.489 2.743-.062 3.658.125 3.317.677-.322.52-.11.624.667.326.626-.24 1.48-.457 1.9-.482.419-.026.175-.298-.543-.607-1.048-.45-.829-.569 1.121-.606 1.898-.036 2.343.167 2.05.932-.439 1.143 1.543 1.312 4.714.403 1.225-.351 2.447-.329 3.138.058 1.068.597 1.065.684-.055 1.533-.652.495-.84.909-.418.92.423.011 1.194-.404 1.713-.924 1.852-1.851 15.268-1.234 15.924.733.138.411-.375 1.33-1.139 2.041-1.585 1.478-1.172 1.964 2.623 3.082 2.684.791 3.355 3.241 1.085 3.962-1.325.42-1.323.443.182 1.662.84.68 1.704 1.057 1.922.84.217-.218-.125-.777-.761-1.242-1.07-.782-1.034-.87.486-1.16 3.572-.682 3.94 3.469.51 5.774l-2.117 1.423 3.748-.24c2.87-.184 3.47-.079 2.559.451-1.823 1.06-5.091 1.891-4.654 1.183.208-.335-.063-.61-.6-.61-1.82 0-1.798 1.302.033 1.998 1.282.488 1.887.488 2.05 0 .302-.91 1.626-.885 2.558.047.552.553.544.96-.033 1.608-2.58 2.892-2.588 2.916-1.392 3.79.63.46.948 1.154.708 1.543-.24.388-.17.87.158 1.073 1.168.722 1.585-3.553.456-4.682-.173-.173.111-.741.632-1.262 1.095-1.095 1.24-2.158.295-2.158-.359 0-.652-.44-.652-.979 0-1.297.638-1.236 1.7.163 1.048 1.38 1.183 4.076.204 4.076-1.155 0 .056 4.028 1.598 5.317 1.698 1.42 2.829 1.568 1.715.226-.468-.564-.532-.978-.15-.978 1.775 0 1.119 5.433-.693 5.74-.997.17-1.054.015-.389-1.05.625-1 .58-1.536-.23-2.692-1.295-1.849-1.862-.93-1.21 1.962.28 1.243.432 2.792.336 3.444-.157 1.069-.066 1.088.918.197 1.011-.915 1.084-.66.992 3.471-.079 3.523-.414 4.884-1.593 6.48-1.157 1.564-1.318 2.195-.716 2.797.428.428.778 1.588.778 2.578 0 1.441-.65 2.226-3.256 3.933-2.476 1.62-3.166 2.419-2.877 3.328.273.862-.56 2.098-2.977 4.415-1.846 1.77-3.566 3.218-3.822 3.218-.612 0-2.41 3.573-3.443 6.847-.905 2.865-.858 5.402.159 8.636.517 1.646.436 2.576-.367 4.184-.922 1.849-.927 2.227-.049 3.567.54.825.982 2.184.982 3.02 0 1.771-4.375 6.35-6.068 6.35-1.202 0-3.431 1.118-4.876 2.445-.982.903-1.692 1.09-1.217.322zm7.534-4.32c.58-.699.511-.993-.3-1.305-1.514-.581-1.593-.536-1.593.902 0 1.516.823 1.691 1.893.402zm-3.221-4.464c.013-.262-.71-.141-1.607.267-1.13.515-1.629 1.261-1.627 2.432l.003 1.688 1.604-1.956c.882-1.076 1.614-2.17 1.627-2.431zm-.984-3.112l.437-1.63-1.33 1.63c-1.578 1.933-1.97 4.182-.452 2.585.5-.525 1.105-1.688 1.345-2.585zm-1.352-2.316c.223-.58.113-.842-.256-.614-.355.22-.645.675-.645 1.012 0 .938.467.732.9-.398zm5.62.36c0-.359-.31-.652-.69-.652-.38 0-.51.293-.288.652.221.359.532.652.69.652.159 0 .288-.293.288-.652zm-6.521-2.608a.654.654 0 0 0-.652-.653.654.654 0 0 0 0 1.304.654.654 0 0 0 .652-.651zm6.777-1.684c.526-1.369.502-1.577-.18-1.577-.317 0-.73.587-.917 1.304-.403 1.54.523 1.77 1.097.273zm-5.027-3.003c-.208-.52-.363-.366-.394.394-.029.687.126 1.072.342.855.217-.216.24-.779.052-1.25zm-1.213-2.051c.305-1.574-.97-1.34-1.388.254-.223.853-.073 1.249.413 1.087.42-.14.859-.744.975-1.341zm8.334-6.78c-.663-.663-1.21.335-.666 1.215.411.665.565.666.786.003.15-.453.097-1-.12-1.217zm2.215-3.787c0-1.178-1.969-1.756-3.018-.885-1.361 1.13-1.085 1.554 1.063 1.63 1.165.042 1.955-.259 1.955-.745zm2.934-4.866c.968-1.07 1.004-1.305.202-1.305-.538 0-1.51.587-2.158 1.305-.968 1.069-1.005 1.304-.203 1.304.538 0 1.51-.587 2.159-1.304zm3.95-2.882c.695-.508 1.045-1.144.776-1.413-.558-.558-3.748.972-3.748 1.796 0 .843 1.574.64 2.972-.383zm2.897-7.878c0-.897-.294-1.63-.652-1.63-.729 0-.894 2.15-.218 2.826.72.718.87.511.87-1.196zm4.564 0c0-.538-.115-.978-.256-.978s-.425.44-.631.978-.092.978.256.978c.347 0 .631-.44.631-.978zm-1.956-3.586c0-.36-.13-.653-.287-.653-.159 0-.47.294-.691.653s-.092.652.288.652.69-.294.69-.652zm-.334-6.534c-.167-.27.28-.644.994-.83 1.182-.31 1.955-3.07.859-3.07-.953 0-2.823 2.227-2.823 3.362 0 .661-.431 1.203-.958 1.203-.595 0-.811.38-.571 1.006.342.893.522.883 1.594-.087.665-.602 1.072-1.314.905-1.584zm-2.926-4.185c0-.473.66-1.35 1.467-1.95l1.467-1.09-1.535.315c-1.321.271-1.494.101-1.241-1.222.213-1.116-.05-1.627-.957-1.864-1.192-.312-1.199-.408-.151-2.006.662-1.012.81-1.68.373-1.68-.4 0-.727.325-.727.722 0 .398-.428.558-.95.358-.741-.285-.834-.049-.42 1.071.291.79.401 1.803.243 2.251-.158.451.248.838.91.867.685.03.847.192.38.38-.449.181-.816.762-.816 1.291s.24.814.535.633c.293-.182.4.576.238 1.684-.204 1.392-.067 1.873.444 1.557.407-.251.74-.844.74-1.317zm6.966.163c-.208-.52-.363-.366-.394.394-.028.687.126 1.072.342.856.217-.217.24-.78.052-1.25zm-1.75-5.964c0-.478-.44-.87-.978-.87-1.031 0-1.271.577-.543 1.305.72.72 1.521.49 1.521-.435zm-4.564-5.395c0-.141-.44-.257-.978-.257s-.979.285-.979.632c0 .347.44.463.979.256.538-.206.978-.49.978-.631zm-3.792-.944c.126-.378.795-.77 1.486-.872 1.446-.212 2.825-2.051 2.09-2.786-.273-.273-.996-.196-1.607.171-.612.367-2.104.608-3.316.537-1.27-.076-1.856.084-1.384.376.452.28.62.834.373 1.232-.265.43.033.73.731.735 1 .009 1.031.106.202.642-.846.547-.831.634.109.642.597.006 1.19-.299 1.316-.677zm.531-4.479c.479-.135-2.106-2.007-2.771-2.007-.311 0-.357.34-.1.753.287.467.178.576-.288.288-.892-.551-2.222.121-1.75.885.264.429 3.493.482 4.91.081zm.507-4.978c.797-.558 1.45-1.337 1.45-1.731s-.656-.157-1.456.526c-1.311 1.118-1.364 1.123-.531.051.792-1.02.794-1.272.01-1.756-1.184-.732-2.358.255-2.751 2.315-.367 1.916 1.03 2.17 3.278.595zm-2.095-1.784c.245-.643.61-1.005.81-.805.201.201 0 .727-.445 1.17-.644.639-.719.564-.365-.365zm-1.946 1.003c-.18-.179.11-1.169.643-2.199.533-1.03.775-1.874.54-1.874-.786 0-2.844 2.768-2.487 3.345.193.312.04.568-.34.568s-.69.266-.69.59c0 .326.598.435 1.33.244.731-.191 1.183-.494 1.004-.674zm7.447-2.442c0-2.475-.961-2.388-1.144.103-.101 1.383.088 2.102.49 1.854.36-.222.654-1.103.654-1.958zm-10.056-1.47c-.146-.147-.913.08-1.704.504-.969.518-1.294.535-.996.052.244-.394.133-.717-.247-.717-.773 0-.876.716-.314 2.18.318.827.628.765 1.952-.386.866-.752 1.455-1.488 1.309-1.634zm-.377-1.348c1.48-.67 1.48-2.073 0-2.073-.718 0-1.304-.294-1.304-.652s-.514-.643-1.142-.632c-1.043.02-1.035.101.097.958 1.024.775 1.095 1.11.41 1.936-.677.814-.664.99.066.952.492-.025 1.335-.245 1.873-.489zm5.588-1.494c.554-.897-.905-1.886-2.654-1.798-1.095.055-1.12.114-.163.364.628.164 1.141.717 1.141 1.229 0 1.105 1.04 1.232 1.676.205zm-18.304-1.231c.221-.359.11-.652-.25-.652s-.833.293-1.055.652c-.221.358-.11.652.25.652s.833-.294 1.055-.652zm.978-2.609c0-.358-.13-.652-.288-.652s-.469.294-.69.652-.093.652.287.652.69-.293.69-.652zm9.455 0c-.222-.358-.826-.652-1.343-.652s-.94.294-.94.652.605.652 1.343.652c.739 0 1.162-.293.94-.652zm-15.618-.6c-.204-.33.416-1.218 1.377-1.975 1.428-1.122 1.59-1.52.89-2.171-.68-.629-.763-.625-.4.019.253.448.223.821-.068.83-.29.007-1.26.592-2.157 1.299-1.382 1.088-1.481 1.383-.652 1.931 1.228.813 1.48.83 1.01.067zm-8.183-1.659c.896-.1 1.832-.219 2.078-.265.247-.046.408-.627.358-1.29-.077-1.03-.418-1.132-2.34-.699-1.237.28-2.865 1.153-3.618 1.942l-1.369 1.434 1.63-.47a23.636 23.636 0 0 1 3.26-.652zm.326-1.001c.221-.359.696-.652 1.055-.652s.47.293.249.652-.697.652-1.055.652-.471-.294-.25-.652zm14.02 1.304c-.836-.54-.813-.634.163-.642.627-.006 1.14-.304 1.14-.662 0-.836-.42-.822-2.086.07-1.083.58-1.17.835-.447 1.294.497.315 1.197.572 1.556.572s.212-.284-.326-.632zm8.75.256c1.72-.66 1.198-2.208-.762-2.258-1.59-.04-1.645-.11-.49-.606 1.245-.535 1.238-.563-.162-.607-.854-.026-1.467.341-1.467.88 0 .508-.179 1.388-.396 1.956-.419 1.09 1.247 1.414 3.277.635zm4.719-.61c.212-.554.189-1.203-.052-1.444-.534-.534-2.483.621-2.836 1.682-.387 1.159 2.44.926 2.887-.238zm-33.684-.298c.869-.562.869-.632 0-.632-.538 0-1.419.284-1.957.632-.87.562-.87.632 0 .632.538 0 1.419-.284 1.957-.632zm25.105 0c.221-.359.092-.652-.288-.652s-.69.293-.69.652.129.652.287.652c.158 0 .469-.293.69-.652zm-12.064-1.235c0-.593-2.508-.76-2.86-.19-.151.245.43.49 1.292.54.862.053 1.567-.105 1.567-.35zm-28.04 48.785c-1.913-.446-1.754-.485.978-.24l3.26.293v-6.358c0-5.537.204-6.715 1.582-9.12 1.607-2.805 4.77-5.416 8.054-6.648 1.704-.639 1.769-.6 1.092.665-.671 1.254-.618 1.292.797.563 1.253-.645 1.375-.631.702.081-.449.475-.815 1.702-.815 2.727s-.253 1.708-.562 1.518c-.308-.191-.341.854-.073 2.323.269 1.468.846 2.89 1.283 3.161 1.273.787.116 3.331-2.812 6.185-1.465 1.427-2.441 2.234-2.168 1.793.273-.443.186-.803-.195-.803-.38 0-.69.404-.69.898s-.488 1.301-1.085 1.794c-.98.809-1.012.758-.326-.53 1.116-2.094.931-2.373-.615-.933-.755.704-1.178 1.595-.94 1.982s.145.702-.208.702c-.354 0-.777-.514-.941-1.142-.225-.858-.317-.778-.374.326-.083 1.609-1.528 1.794-5.944.763zm8.472-7.304c.002-.28-.435-.678-.973-.885-1.118-.429-1.292-2.997-.325-4.803.413-.771.424-1.364.03-1.607-.808-.5-2.073 4.211-1.884 7.018.136 2.022.253 2.127 1.647 1.481.825-.382 1.502-.924 1.505-1.204zm5.874-.545c0-.718-.294-1.123-.653-.902s-.652.99-.652 1.708.294 1.122.652.9c.36-.22.653-.99.653-1.706zm.6-3.216c-1.057-.653-2.356-.127-2.848 1.154-.58 1.511.27 1.984 1.224.68.95-1.298 1.632-.883 1.773 1.078.063.866.2.675.379-.527.16-1.08-.065-2.099-.528-2.385zm-5.339 1.263c.057-.758-.073-1.201-.29-.984-.217.216-.764.087-1.217-.289-.61-.506-.782-.407-.666.384.12.814 1.06 1.85 2.045 2.256.014.006.071-.61.128-1.367zm.684-3.739c.187-.56-.127-.796-.87-.652-.64.124-1.294.62-1.454 1.103-.187.561.126.796.87.652.639-.124 1.293-.62 1.454-1.103zm3.315-3.068c.206-1.064.096-1.111-.815-.355-1.247 1.034-1.402 2.243-.239 1.856.449-.15.923-.825 1.054-1.501zm-1.869-.718c0-.483.343-.879.76-.879.42 0 .575-.186.347-.414s-1.23.11-2.228.753l-1.813 1.167 1.286-1.453c.816-.923 1.806-1.354 2.712-1.181 1.02.195 1.326.012 1.075-.641-.193-.503-.777-.75-1.298-.55s-1.197.363-1.502.363-1.167.86-1.917 1.913l-1.362 1.913 1.97-.056c1.19-.034 1.97-.404 1.97-.935zm-21.34 16.094c-3.12-.741-5.067-2.247-6.32-4.888-5.024-10.587.64-28.876 10.706-34.567.538-.304-.405.684-2.096 2.195-5.451 4.875-8.968 13.977-8.982 23.245-.013 8.846 2.91 12.875 10.1 13.92 3.125.454 3.387.571 1.304.581-1.434.007-3.554-.212-4.711-.487zm72.305-22.19c0-.897.148-1.263.33-.815.18.448.18 1.182 0 1.63-.182.448-.33.082-.33-.815zM79.93 32.32c.47-.188 1.033-.165 1.25.051.217.217-.169.371-.856.343-.76-.031-.914-.186-.394-.394z" fill="#575757"/><path d="M91.804 163.02c-4.047-2.068-5.556-4.384-5.556-8.525 0-5.31 1.51-6.928 10.097-10.822 1.25-.567 2.67-1.402 3.155-1.857.614-.574 2.008-.703 4.575-.424 2.03.222 4.099.422 4.596.446.498.024 1.045.581 1.217 1.238.222.85.76 1.114 1.865.913 1.186-.215 1.63.055 1.876 1.142 1.784 7.875 1.798 9.375.082 8.716-.506-.194-.745.46-.697 1.912.046 1.367-.236 2.208-.74 2.208-.447 0-.98.366-1.187.815s-.217.176-.025-.604c.206-.842-.022-1.637-.563-1.956-.501-.296-1.068-.978-1.26-1.516-.192-.538-.302.522-.243 2.355.102 3.21.02 3.375-2.192 4.435-1.264.605-3.032 1.522-3.928 2.037-2.501 1.435-7.734 1.193-11.072-.513zm11.082-.4c1.56-.833 2.65-2.118 3.476-4.098 1.614-3.866.653-7.655-2.82-11.128-2.112-2.112-2.881-2.467-5.317-2.455-6.704.034-11.293 4.265-10.802 9.96.598 6.939 9.041 11.154 15.463 7.722zm6.278-12.153c.87-.869.864-1.092-.047-2.002-.931-.932-1.025-.899-1.025.364 0 .764-.29 1.21-.644.991-.37-.228-.48.033-.256.614.482 1.257.743 1.262 1.972.033zm-1.486-4.218c-.36-.36-1.517 1.322-1.532 2.224-.005.337.406.044.915-.651.509-.696.786-1.404.617-1.573zm-2.61-1.65c-.397-1.035-1.54-1.357-1.54-.435 0 .69.713 1.413 1.392 1.413.288 0 .354-.44.148-.978zm1.72-.978c0-.36-.293-.653-.652-.653s-.652.294-.652.653.294.652.652.652.652-.294.652-.652zm1.957-.288c0-.158-.294-.469-.652-.69-.36-.222-.653-.093-.653.287s.294.69.653.69.652-.129.652-.287zm-22.726-8.116c-2.054-1.301-4.658-21.997-3.446-27.39.816-3.633 4.573-10.257 9.862-17.386 5.606-7.558 6.405-9.115 6.92-13.497.635-5.409-.968-10.085-4.607-13.44-1.61-1.484-3.448-2.722-4.084-2.75-.659-.03-.811-.191-.355-.376 1.185-.48 5.721 2.276 7.33 4.452 1.752 2.369 3.28 6.628 3.28 9.136 0 4.405-1.573 7.898-6.933 15.392-3.005 4.201-6.562 9.828-7.905 12.504-2.406 4.796-2.44 4.97-2.35 12.064.098 7.79 1.647 18.798 2.848 20.246.41.495 1.824 1.013 3.142 1.152l2.396.253-2.609.1c-1.434.054-3.005-.152-3.49-.46zm13.108.129c.627-.164 1.654-.164 2.282 0 .628.164.114.298-1.141.298s-1.77-.134-1.141-.298zm4.02-.764c.185-.301-.122-4.04-.683-8.307-1.123-8.531-.912-13.372.72-16.527.587-1.137 3.808-5.012 7.157-8.612 8.87-9.534 11.422-14.983 11.438-24.414.029-17.329-10.936-32.505-26.762-37.039-4.886-1.4-15.894-2.938-16.16-2.258-.119.306-.476.556-.794.556-.317 0-.395-.474-.173-1.053.329-.857.112-.966-1.162-.586-.86.257-1.894.882-2.297 1.389-.539.68-1.138.76-2.282.302-1.132-.454-1.243-.632-.41-.663.628-.022 1.141-.324 1.141-.67 0-.717 4.527-3.937 5.531-3.933.366.001-.323.604-1.529 1.34-3.028 1.845-2.204 2.216 1.62.727 1.75-.681 4.355-1.478 5.79-1.771l2.608-.533-2.282-.449c-2.226-.438-2.208-.451.745-.535 2.103-.06 3.139.203 3.39.86.215.558-.121 1.097-.822 1.32-1.52.482-3.803 2.951-2.73 2.951.432 0 1.684-.464 2.782-1.032 1.097-.568 1.799-.714 1.559-.326-.24.388-.135.706.234.706s.501.44.295.978c-.207.538-.05.978.346.978.397 0 .744-.22.77-.489.027-.269.175-1.167.328-1.996.2-1.079.048-1.367-.537-1.016-.622.374-.616.242.025-.549.689-.85.689-1.102 0-1.378-.68-.273-.679-.348.011-.39.47-.028.673-.344.451-.703-.228-.369.312-.652 1.245-.652 1.266 0 1.552.25 1.235 1.079-.357.928-.039 1.028 2.28.717 3.418-.459 3.326.402-.358 3.34-3.034 2.42-3.537 3.145-1.385 1.993.959-.513 1.518-.531 1.81-.058.271.438.77.466 1.385.078.708-.448.736-.61.107-.618-.47-.006-.66-.324-.423-.707.237-.383.806-.552 1.264-.377.457.176 1.127.025 1.487-.335.438-.438 1.124-.367 2.075.214 1.247.762 1.54.71 2.392-.435.864-1.16.86-1.328-.04-1.515-1.63-.34-1.159-1.42.62-1.42.897 0 1.635.367 1.64.815.007.553.234.501.705-.163.532-.748.6-.545.29.87-.246 1.123-.157 1.695.227 1.458.347-.215.725.274.84 1.086.164 1.146.7 1.524 2.397 1.686 1.523.146 2.045-.018 1.722-.542-.264-.426-1.139-.582-2.023-.36-.858.216-1.56.112-1.56-.23 0-.341.807-.713 1.794-.827 1.308-.15 1.851-.62 2.01-1.734.186-1.32.008-1.471-1.305-1.11-1.222.336-1.31.285-.45-.259 1.057-.667 6.658-.025 7.548.864.224.224-.252 1.11-1.057 1.966-.89.948-1.2 1.722-.792 1.975.37.229.507.847.305 1.373-.229.597.027.957.68.957.577 0 1.049.465 1.049 1.033 0 .568.348.916.774.774 1.431-.477 1.304-1.803-.23-2.418-.838-.336-1.17-.629-.738-.652 1.127-.059 4.106 1.38 4.106 1.983 0 .28-.593.926-1.319 1.434-1.433 1.004-1.157 3.063.41 3.063 1.04 0 1.234 1.679.265 2.278-.357.22-.486-.016-.289-.53.454-1.182-1.376-1.926-2.2-.894-.34.427-.822 1.437-1.07 2.244-.518 1.691.145 1.84 3.234.723 1.73-.626 2.01-1.014 1.764-2.446-.162-.935-.762-2.072-1.334-2.526-.882-.699-.702-.787 1.186-.58 1.224.134 2.336.651 2.47 1.15.199.743.133.75-.368.037-.493-.7-.692-.659-1.028.217-.688 1.793-.491 3.054.398 2.556.449-.251.375.015-.164.592-.539.576-2.153 1.477-3.587 2.002-1.433.525-2.093.975-1.465 1 .627.025 1.14.346 1.14.712s.756 1.01 1.678 1.43c1.332.607 1.788.585 2.216-.109.847-1.37 2.799-.293 2.303 1.27-.228.72-.133 1.308.211 1.308.906 0 1.621-2.215.803-2.488-.81-.27-.94-2.077-.147-2.077.298 0 .934.734 1.414 1.63.72 1.345.724 1.908.022 3.22-.739 1.38-.973 1.465-1.787.651-1.312-1.312-1.828-1.178-2.681.694-.408.896-1.074 1.63-1.479 1.63s-.58.404-.39.899c.463 1.206-.762 2.34-2.079 1.923-.844-.268-.878-.206-.163.304.495.352.697.967.451 1.366-.246.398-.12.725.281.725s.556.28.345.622c-.5.808.303 4.022.91 3.646.256-.158.338.582.182 1.643-.234 1.594-.093 1.858.808 1.512.621-.239.933-.83.724-1.373-.229-.596.124-1.083.94-1.296 1.673-.438 1.702-1.494.04-1.494-.915 0-1.196-.361-1.015-1.304.162-.84-.1-1.304-.733-1.304-.722 0-.863-.392-.527-1.468.252-.806.75-1.654 1.106-1.883s.482-.683.28-1.01c-.56-.906.606-2.39 1.463-1.86.497.307.54.729.127 1.227-.414.499-.338 1.158.223 1.925.775 1.06.914.939 1.516-1.306.55-2.051.735-2.247 1.088-1.147.234.728 1.288 1.902 2.341 2.608 1.17.784 1.917 1.855 1.918 2.75 0 .808-.121 1.468-.271 1.468s-.81.201-1.467.448c-1.06.397-1.091.321-.284-.671.72-.885.753-1.466.16-2.768-1.08-2.37-1.913-1.415-1.597 1.832l.345 3.542c.04.414.464.603.942.42.51-.197.87.115.87.752 0 .597-.294.905-.653.683-.358-.221-.652.219-.652.978s.294 1.2.652.979c1.354-.837.683 4.447-.76 5.983-1.21 1.29-1.303 1.74-.652 3.17 1.354 2.97.923 4.056-2.497 6.295-2.41 1.578-3.161 2.431-2.891 3.282.553 1.742-5.198 7.206-7.093 6.74-.787-.194-1.068-.186-.625.018.61.281.53.873-.324 2.44-2.478 4.539-3.139 7.719-2.522 12.128.42 2.998.36 4.823-.212 6.405-.677 1.872-.641 2.387.237 3.358.57.63 1.037 1.773 1.037 2.539 0 1.713-3.477 5.79-5.42 6.356-2.484.723-5.013 1.906-5.013 2.345 0 .232-.456.598-1.012.811s-.86.142-.674-.158zm7.554-4.33c.447-.537.653-.977.46-.977-.194 0-.779-.164-1.299-.363-.59-.227-1.077.14-1.296.978-.417 1.591.926 1.82 2.135.363zm-3.26-4.271c0-.847-.76-.744-2.12.289-.627.476-1.14 1.537-1.14 2.357 0 1.48.01 1.479 1.63-.269.896-.967 1.63-2.037 1.63-2.377zm-1.327-1.228c.863-1.613.875-3.504.018-2.975-.361.224-1.102 1.268-1.647 2.321-.873 1.689-.875 1.915-.018 1.915.534 0 1.275-.567 1.647-1.261zm6.544-1.06c0-.559-.294-.835-.653-.613-.358.221-.652.679-.652 1.016 0 .338.294.614.652.614s.653-.458.653-1.017zm-7.59-3.222c.207-.538.123-.978-.186-.978-.31 0-.731.44-.937.978s-.123.978.186.978c.31 0 .73-.44.937-.978zm5.633-.038c0-.56-.293-.835-.652-.614-.358.222-.652.68-.652 1.017s.294.613.652.613c.359 0 .652-.457.652-1.016zm-6.52-2.647c0-.538-.294-.797-.653-.575-.358.222-.652.843-.652 1.381s.294.797.652.575c.359-.221.652-.843.652-1.38zm7.543-2.704c-.747-.747-2.325.585-2.305 1.945l.022 1.488 1.298-1.56c.715-.857 1.158-1.7.985-1.873zm-5.794-1.58c-.208-.52-.363-.366-.394.394-.028.688.126 1.073.343.856.216-.217.24-.78.051-1.25zm-1.213-2.05c.305-1.574-.97-1.34-1.387.253-.224.854-.073 1.25.413 1.087.42-.14.858-.743.974-1.34zm8.593-5.979c0-.538-.294-.978-.652-.978s-.653.44-.653.978.294.978.653.978.652-.44.652-.978zm2.426-4.672c.456-1.366-2.692-1.546-4.009-.23-1.24 1.24-1.224 1.254 1.26 1.096 1.383-.089 2.62-.478 2.75-.866zm2.66-4.261c1.144-1.145.958-1.826-.499-1.826-.705 0-1.595.587-1.98 1.304-.58 1.084-.495 1.304.5 1.304.658 0 1.548-.352 1.979-.782zm4.019-3.428c1.099-1.324.215-2.63-1.062-1.57-.772.641-1.076.634-1.49-.037-.343-.554-.522-.26-.522.857 0 1.923 1.747 2.35 3.074.75zm-.628-4.92c0-.358-.13-.651-.288-.651-.158 0-.469.293-.69.652s-.093.652.287.652.69-.293.69-.652zm3.42-2.934c.209-1.093.019-1.63-.576-1.63-.909 0-1.236 2.043-.453 2.826.64.64.688.584 1.029-1.196zm4.405-.077c0-.537-.294-.796-.652-.575-.36.222-.653.844-.653 1.381 0 .538.294.797.653.576.358-.222.652-.844.652-1.382zm-1.957-.249a.654.654 0 0 0-.652-.652c-.358 0-.652.294-.652.652s.294.653.652.653a.654.654 0 0 0 .652-.653zm0-2.934c.881-1.062.67-1.194-.924-.582-.568.217-1.032.658-1.032.978 0 .902 1.057.688 1.956-.396zm-.143-6.465c1.872-1.984 2.785-4.294 1.697-4.294-.846 0-4.818 3.915-4.022 3.964.655.04.66.123.023.38-.883.356-1.14 2.176-.306 2.176.28 0 1.453-1.001 2.608-2.226zm1.72-7.788c-.227-.589-.82-1.071-1.32-1.071-.5 0-.932-.514-.96-1.141-.036-.787-.16-.867-.403-.258-.194.485.343 1.547 1.192 2.36 1.73 1.656 2.093 1.682 1.49.11zm.38-2.663c0-.517-.274-1.108-.607-1.315-.776-.479-1.555.742-1.024 1.603.6.97 1.63.788 1.63-.288zm-4.565-1.342c0-.538-.115-.979-.256-.979s-.425.44-.632.979c-.206.537-.091.978.256.978.348 0 .632-.44.632-.978zm-1.578-6.358c.862.513 1.578-.005 1.578-1.142 0-.869-.435-1.304-1.304-1.304-.718 0-1.304.284-1.304.632s-.444.461-.987.253c-1.016-.39-2.926.788-2.926 1.803 0 .315.514.596 1.141.624.689.031.816.183.322.382-.45.182-.64.62-.42.976.228.369 1.09-.004 2.013-.871.888-.834 1.737-1.443 1.887-1.353zm-4.498-2.046c-.239-.62.023-.807.834-.595 1.533.4 2.232-.742 1.052-1.72-.595-.494-1.624-.576-2.948-.233-2.004.52-2.017.548-.871 1.981 1.295 1.62 2.469 1.964 1.933.567zm-.445-7.36c0-.576.514-1.428 1.141-1.894 1.087-.807 1.087-.903 0-2.005-.929-.943-1.14-.977-1.14-.185 0 1.045-2.29 3.32-2.815 2.796-.174-.174-.51-.003-.746.38-.236.382-.101.695.3.695.4 0 .547.294.326.652s-.221.947 0 1.306c.586.947 2.934-.45 2.934-1.746zm-1.751-2.821c.604 0 1.099-.292 1.099-.649 0-.369-1.053-.516-2.445-.342l-2.446.307 2.243-.844c2.818-1.06 3.375-2.385 1.003-2.385-1.094 0-2.236.614-3.036 1.63-.705.897-1.701 1.63-2.213 1.63s-.93.285-.93.632.513.448 1.14.223.939-.185.692.09c-.248.274-.101.882.326 1.35.632.694 1.024.621 2.122-.395.74-.686 1.84-1.247 2.445-1.247zm-8.085-3.076c.15-.101-.185-.185-.745-.185s-1.202.482-1.428 1.07c-.357.933-.26.957.746.185a58.834 58.834 0 0 1 1.427-1.07zm-6.14-1.489c.222-.358-.219-.652-.978-.652s-1.2.294-.978.652c.221.359.662.652.978.652.316 0 .756-.293.978-.652zm11.738 0c.23-.371-.332-.652-1.304-.652s-1.534.281-1.304.652c.221.359.808.652 1.304.652s1.082-.293 1.304-.652zm-10.759-2.608c0-.359-.13-.652-.288-.652s-.468.293-.69.652-.092.652.287.652c.38 0 .691-.293.691-.652zm-14.346-1.304c0-.359-.13-.652-.288-.652-.158 0-.468.293-.69.652s-.092.652.287.652c.38 0 .691-.294.691-.652zm28.04-1.343c0-.831-.448-1.266-1.304-1.266-.718 0-1.304.123-1.304.273s-.169.711-.374 1.247c-.233.607.074 1.076.815 1.243 1.626.367 2.167-.007 2.167-1.497zm-10.433.326c0-.56-.293-.835-.652-.614-.359.222-.652.68-.652 1.017 0 .338.293.614.652.614s.652-.458.652-1.017zm-23.122-.33c.691-1.12.108-1.2-1.983-.276l-1.956.865 1.754.053c.966.029 1.949-.26 2.185-.643zm13.015-1.262c.166-.269-.431-.489-1.328-.489s-1.766.22-1.933.49c-.166.268.432.488 1.328.488s1.767-.22 1.933-.489zM71.712 83.184c.954-.25 1.058-.88.729-4.4-.56-5.992.643-10.197 3.932-13.75 1.487-1.608 3.82-3.374 5.184-3.925 2.426-.98 2.466-.973 1.779.31-.555 1.037-.517 1.242.181.974.66-.253.81.165.593 1.645-.16 1.092-.512 1.984-.781 1.984-.709 0 .313 5.018 1.252 6.15.57.687.601 1.285.11 2.13-.602 1.035-.687.97-.704-.548-.026-2.251-1.662-2.83-3.318-1.173-1.18 1.18-1.212 1.414-.312 2.315.551.55 1.002 1.25 1.002 1.553 0 1.295-.858 2.615-1.7 2.615-.5 0-.909.423-.909.94 0 .517-.325 1.14-.722 1.386-.492.304-.572-.024-.252-1.034l.47-1.48-1.477 1.376c-.812.756-1.726 1.222-2.03 1.034-.304-.189-.553.262-.553 1 0 1.049-.393 1.326-1.793 1.267-1.049-.044-1.332-.197-.681-.368zM74.838 77c0-.419.193-.568.429-.332.604.604 2.246-.88 1.79-1.618-.206-.334-.051-.997.344-1.474.396-.477.537-1.344.313-1.928-.483-1.257.432-1.397 1.608-.245.675.66.678.472.016-1-.47-1.044-1.253-1.743-1.843-1.647-.565.093-1.378-.052-1.807-.32-.523-.33-1.005.32-1.463 1.972-.869 3.127-.891 7.352-.04 7.352.36 0 .653-.342.653-.76zm.108-3.804c-.12-2.205.856-3.782 1.424-2.303.225.586.14.9-.191.695-.33-.204-.723.441-.873 1.434-.259 1.71-.277 1.72-.36.174zm7.065-6.997c0-.592-.38-.822-.978-.592-.538.206-.978.09-.978-.257s.31-.631.69-.631.47-.367.201-.815c-.39-.65-.287-.652.51-.006 1.301 1.052 2.071.288.895-.888-1.159-1.16-3.71-.264-5.165 1.813-1.338 1.91-1.324 2.57.041 2.047.806-.31.95-.178.557.51-.428.749-.362.77.35.11 1.2-1.114 1.92-1.023 1.92.243 0 .866.178.911.979.246.538-.446.978-1.247.978-1.78zm-3.913-1.074c0-.136.514-.65 1.142-1.142 1.034-.81 1.057-.788.246.247-.852 1.086-1.388 1.431-1.388.895zm-10.258 17.4c.635-.165 1.515-.154 1.957.025.441.178-.078.314-1.154.3-1.076-.013-1.437-.16-.803-.324zm-5.868-.651c.634-.166 1.514-.155 1.956.024.441.178-.078.314-1.154.3-1.076-.013-1.437-.16-.802-.324zm-5.92-1.293c-3.095-1.526-4.84-5.326-5.199-11.32-.355-5.947.576-10.797 3.097-16.127 1.919-4.059 6.331-9.443 8.783-10.72.74-.384.004.494-1.636 1.953-5.533 4.922-9.102 13.788-9.143 22.716-.034 7.514 1.906 11.755 6.256 13.675 1.076.475 1.516.869.978.874-.538.006-1.949-.467-3.135-1.052zm26.416-3.893c.563-.229.603-.79.145-1.995-.351-.923-.517-1.799-.37-1.947s.573.602.944 1.666c.689 1.975.46 2.737-.795 2.645-.426-.03-.395-.178.076-.37zm48.553-17.185c0-.897.148-1.264.329-.815.18.448.18 1.182 0 1.63-.181.448-.33.081-.33-.815zm-43.956.22c.448-.181 1.182-.181 1.63 0 .448.18.081.329-.815.329-.897 0-1.264-.148-.815-.33zm11.9-24.234c0-.421.328-.766.729-.766.407 0 .578-.575.387-1.304-.216-.828-.02-1.304.538-1.304 1.605 0 1.587 1.096-.043 2.627-.886.832-1.61 1.168-1.61.747zm9.834-1.798c.03-.76.185-.914.394-.394.188.47.165 1.033-.052 1.25-.217.216-.37-.169-.342-.856z" fill="#333"/></g><path d="M13.063 15.298h156.61v165.31H13.063z" stroke="url(#a)" stroke-width="3.323"/></svg>