<svg xmlns="http://www.w3.org/2000/svg" viewBox="0 0 348 348">
  <style>
    .st0{fill:none;stroke:#000;stroke-width:2}
  </style>
  <path d="M5.1 5.8H342v337.7H5.1V5.8z" class="st0"/>
  <ellipse cx="298.3" cy="40.5" class="st0" rx="15.9" ry="15.5"/>
  <path d="M17.5 18.3h220.4v69.8H17.5z"/>
  <path fill="#fff" stroke="#000" stroke-width="1.37" d="M144.1 149.3h58.6v58.6h-58.6v-58.6z"/>
  <path fill="#fff" stroke="#000" stroke-width="1.37" d="M144.1 219.4h58.6V278h-58.6v-58.6z"/>
  <path fill="#fff" stroke="#000" stroke-width="1.37" d="M75.2 219.4h58.6V278H75.2v-58.6z"/>
  <path fill="#fff" stroke="#000" stroke-width="1.37" d="M212.8 219.4h58.6V278h-58.6v-58.6z"/>
  <path d="m166.5 187.9-4.9-18.5h2.5l2.8 12.1c.3 1.3.6 2.5.8 3.8.5-2 .7-3.1.8-3.4l3.5-12.5h3l2.7 9.4c.7 2.3 1.1 4.5 1.4 6.6.2-1.2.5-2.5.9-4l2.9-11.9h2.5l-5.1 18.5h-2.4l-3.9-14.1c-.3-1.2-.5-1.9-.6-2.2-.2.9-.4 1.6-.5 2.2L169 188h-2.5z"/>
  <path d="m166.1 252 2.3-.2c.1.9.4 1.7.8 2.3.4.6 1 1.1 1.9 1.4s1.8.5 2.8.5c.9 0 1.8-.1 2.5-.4s1.2-.7 1.6-1.1.5-1 .5-1.6c0-.6-.2-1.1-.5-1.5-.3-.4-.9-.8-1.7-1.1-.5-.2-1.6-.5-3.3-.9-1.7-.4-2.9-.8-3.6-1.2-.9-.5-1.5-1-2-1.7-.4-.7-.7-1.5-.7-2.3 0-.9.3-1.8.8-2.6s1.3-1.4 2.3-1.9c1-.4 2.2-.6 3.4-.6 1.4 0 2.6.2 3.6.7s1.9 1.1 2.4 2 .9 1.8.9 2.9l-2.4.2c-.1-1.2-.6-2.1-1.3-2.7-.7-.6-1.8-.9-3.2-.9-1.5 0-2.6.3-3.2.8-.7.5-1 1.2-1 2 0 .7.2 1.2.7 1.6.5.4 1.7.9 3.7 1.3 2 .5 3.4.8 4.1 1.2 1.1.5 1.9 1.1 2.4 1.9s.8 1.6.8 2.6-.3 1.9-.8 2.8-1.4 1.5-2.4 2c-1.1.5-2.2.7-3.6.7-1.7 0-3.1-.2-4.2-.7-1.1-.5-2-1.2-2.7-2.2s-.9-2.1-.9-3.3z"/>
  <path d="m95.8 257.9 7.1-18.5h2.6l7.6 18.5h-2.8l-2.2-5.6h-7.7l-2 5.6h-2.6zm5.4-7.6h6.3l-1.9-5.1c-.6-1.6-1-2.8-1.3-3.8-.2 1.2-.6 2.4-1 3.5l-2.1 5.4z"/>
  <path d="M234.4 257.9v-18.5h6.4c1.4 0 2.5.1 3.3.3 1.1.2 2 .7 2.7 1.3 1 .8 1.7 1.9 2.2 3.2s.7 2.8.7 4.4c0 1.4-.2 2.7-.5 3.7-.3 1.1-.8 2-1.3 2.7-.5.7-1.1 1.3-1.7 1.7-.6.4-1.3.7-2.2.9-.9.2-1.9.3-3 .3h-6.6zm2.5-2.1h4c1.2 0 2.2-.1 2.9-.3s1.2-.5 1.7-1c.6-.6 1-1.4 1.4-2.3s.5-2.2.5-3.6c0-1.9-.3-3.4-1-4.5-.6-1-1.4-1.7-2.3-2.1-.7-.3-1.7-.4-3.2-.4H237v14.2z"/>
</svg>