<svg xmlns="http://www.w3.org/2000/svg" fill="none" stroke-linecap="square" stroke-miterlimit="10" viewBox="0 0 348 348"><path fill="#fdfdfd" d="M0 174.662V1.475h348V347.85H0z"/><path fill="#cbcbcb" d="M0 174.662V1.475h348V347.85H0zm343.824 0V5.632H4.176v338.061h339.648zM278.4 218.306V105.387h51.504v225.837H278.4zm50.112 0V106.773h-48.72v223.065h48.72zm-43.152 0V112.315h37.584v211.981H285.36zm-257.52 50.57v-23.553h47.328v47.107H27.84zm54.288 0v-23.553h47.328v47.107H82.128zm45.936 0v-22.168H83.52v44.336h44.544zm8.352 0v-23.553h47.328v47.107h-47.328zm54.288 0v-23.553h47.328v47.107h-47.328zm45.936 0v-22.168h-44.544v44.336h44.544zm-208.8-78.973v-23.554h47.328v47.107H27.84zm45.936 0v-22.168H29.232v44.336h44.544zm8.352 0v-23.554h47.328v47.107H82.128zm45.936 0v-22.168H83.52v44.336h44.544zm8.352 0v-23.554h47.328v47.107h-47.328zm45.936 0v-22.168h-44.544v44.336h44.544zm8.352 0v-23.554h47.328v47.107h-47.328zm45.936 0v-22.168h-44.544v44.336h44.544zM26.448 76.985V33.34h235.248v87.287H26.448zm232.464 0V36.112H29.232v81.745h229.68zm44.214-27.8c-10.627-5.74-10.453-23.456.284-28.982 11.7-6.022 25.102 1.732 25.102 14.524 0 12.81-13.84 20.693-25.386 14.457zm13.649-2.632c6.9-2.869 9.807-9.881 6.934-16.725-4.505-10.73-19.297-10.73-23.802 0-1.813 4.32-1.813 5.477 0 9.794 1.337 3.187 3.65 5.584 6.63 6.873 5.663 2.448 4.508 2.442 10.239.06z"/><path fill="#959595" d="M0 174.662V1.475h348V347.85H0zm343.824 0V5.632H4.176v338.061h339.648zM278.4 218.306V105.387h51.504v225.837H278.4zm50.112 0V106.773h-48.72v223.065h48.72zm-43.152 0V112.315h37.584v211.981H285.36zm-257.52 50.57v-23.553h47.328v47.107H27.84zm45.936 0v-22.168H29.232v44.336h44.544zm8.352 0v-23.553h47.328v47.107H82.128zm45.936 0v-22.168H83.52v44.336h44.544zm8.352 0v-23.553h47.328v47.107h-47.328zm45.936 0v-22.168h-44.544v44.336h44.544zm8.352 0v-23.553h47.328v47.107h-47.328zm45.936 0v-22.168h-44.544v44.336h44.544zm-208.8-78.973v-23.554h47.328v47.107H27.84zm45.936 0v-22.168H29.232v44.336h44.544zm8.352 0v-23.554h47.328v47.107H82.128zm45.936 0v-22.168H83.52v44.336h44.544zm8.352 0v-23.554h47.328v47.107h-47.328zm45.936 0v-22.168h-44.544v44.336h44.544zm8.352 0v-23.554h47.328v47.107h-47.328zm45.936 0v-22.168h-44.544v44.336h44.544zM26.448 76.985V33.34h235.248v87.287H26.448zm232.464 0V36.112H29.232v81.745h229.68zm46.632-26.883c-6.196-2.708-9.744-8.338-9.744-15.46 0-5.82.65-7.435 4.55-11.319 6.595-6.563 16.321-6.563 22.915 0 3.917 3.9 4.551 5.488 4.551 11.404 0 5.837-.65 7.52-4.306 11.16-4.596 4.575-12.761 6.49-17.966 4.215zm15.976-6.403c4.941-4.915 4.784-13.185-.348-18.292-8.405-8.367-22.525-2.593-22.525 9.21 0 12.363 13.99 17.92 22.873 9.082z"/><path fill="#737373" d="M0 174.662V1.475h348V347.85H0zm343.824 0V5.632H4.176v338.061h339.648zM278.4 218.306V105.387h51.504v225.837H278.4zm50.112 0V106.773h-48.72v223.065h48.72zm-43.152 0V112.315h37.584v211.981H285.36zm-257.52 50.57v-23.553h47.328v47.107H27.84zm45.936 0v-22.168H29.232v44.336h44.544zm8.352 0v-23.553h47.328v47.107H82.128zm45.936 0v-22.168H83.52v44.336h44.544zm8.352 0v-23.553h47.328v47.107h-47.328zm45.936 0v-22.168h-44.544v44.336h44.544zm8.352 0v-23.553h47.328v47.107h-47.328zm45.936 0v-22.168h-44.544v44.336h44.544zm-208.8-78.973v-23.554h47.328v47.107H27.84zm45.936 0v-22.168H29.232v44.336h44.544zm8.352 0v-23.554h47.328v47.107H82.128zm45.936 0v-22.168H83.52v44.336h44.544zm8.352 0v-23.554h47.328v47.107h-47.328zm45.936 0v-22.168h-44.544v44.336h44.544zm8.352 0v-23.554h47.328v47.107h-47.328zm45.936 0v-22.168h-44.544v44.336h44.544zM26.448 76.985V33.34h235.248v87.287H26.448zm232.464 0V36.112H29.232v81.745h229.68zm44.96-28.347c-4.795-2.91-8.768-9.213-8.768-13.911 0-7.45 9.052-16.61 16.425-16.621 7.88-.013 16.973 8.891 16.973 16.621 0 7.73-9.093 16.634-16.973 16.621-1.76-.003-5.206-1.222-7.657-2.71zm17.648-4.94c4.941-4.914 4.784-13.184-.348-18.291-8.405-8.367-22.525-2.593-22.525 9.21 0 12.363 13.99 17.92 22.873 9.082z"/><path fill="#535353" d="M0 174.662V1.475h348V347.85H0zm343.824 0V5.632H4.176v338.061h339.648zM278.4 218.306V105.387h51.504v225.837H278.4zm50.112 0V106.773h-48.72v223.065h48.72zM27.84 268.876v-23.553h47.328v47.107H27.84zm45.936 0v-22.168H29.232v44.336h44.544zm8.352 0v-23.553h47.328v47.107H82.128zm45.936 0v-22.168H83.52v44.336h44.544zm8.352 0v-23.553h47.328v47.107h-47.328zm45.936 0v-22.168h-44.544v44.336h44.544zm8.352 0v-23.553h47.328v47.107h-47.328zm45.936 0v-22.168h-44.544v44.336h44.544zm-208.8-78.973v-23.554h47.328v47.107H27.84zm45.936 0v-22.168H29.232v44.336h44.544zm8.352 0v-23.554h47.328v47.107H82.128zm45.936 0v-22.168H83.52v44.336h44.544zm8.352 0v-23.554h47.328v47.107h-47.328zm45.936 0v-22.168h-44.544v44.336h44.544zm8.352 0v-23.554h47.328v47.107h-47.328zm45.936 0v-22.168h-44.544v44.336h44.544zM26.448 76.985V33.34h235.248v87.287H26.448zm232.464 0V36.112H29.232v81.745h229.68zm45.936-28.002c-13.28-6.758-11.57-25.38 2.723-29.642 7.413-2.21 15.013 1.455 18.73 9.036 2.415 4.924 2.48 5.938.696 10.958-3.501 9.857-13.326 14.137-22.149 9.648zm16.147-5.112c3.41-3.394 4.733-5.949 4.733-9.144 0-6.161-7.73-13.855-13.92-13.855-3.21 0-5.777 1.316-9.187 4.71-6.422 6.393-6.422 11.897 0 18.29 6.422 6.391 11.952 6.391 18.374 0z"/><path fill="#000" d="M101.404 56.349L91.177 96.874h-6.098l-8.286-33.64-8.094 33.64h-5.96L52.32 56.349h5.551l8.203 33.694 8.15-33.694h5.495l8.23 34.02 8.148-34.02zm.464 40.525l13.727-40.525h6.671l13.727 40.525h-5.715l-3.691-11.322h-15.558l-3.692 11.32zm23.214-15.922l-6.288-19.105-6.262 19.105zm26.114 16.658c-2.953 0-5.464-.305-7.533-.913a37.122 36.948 0 0 1-5.838-2.245v-6.75h.383a19.596 19.504 0 0 0 6.07 3.878c2.261.916 4.44 1.375 6.535 1.375 2.99 0 5.25-.622 6.782-1.865 1.53-1.243 2.296-2.88 2.296-4.912 0-1.615-.4-2.93-1.203-3.947-.801-1.015-2.077-1.769-3.828-2.259a62.05 61.761 0 0 0-3.446-.897 158.501 157.761 0 0 1-3.909-.953c-1.403-.363-2.662-.825-3.773-1.388a10.638 10.588 0 0 1-2.953-2.205 9.557 9.513 0 0 1-1.955-3.142c-.466-1.208-.699-2.6-.699-4.179 0-3.284 1.286-6.037 3.856-8.26 2.57-2.222 5.852-3.333 9.843-3.333 2.28 0 4.435.226 6.468.68 2.032.453 3.915 1.097 5.647 1.932v6.45h-.411c-1.293-1.179-2.953-2.209-4.977-3.088a15.745 15.671 0 0 0-6.37-1.32c-2.517 0-4.548.584-6.098 1.756-1.55 1.169-2.324 2.707-2.324 4.612 0 1.724.456 3.092 1.367 4.11.912 1.016 2.233 1.759 3.965 2.23 1.148.31 2.552.66 4.21 1.048a74.023 73.677 0 0 1 4.13 1.076c2.806.853 4.858 2.14 6.152 3.865 1.294 1.724 1.941 3.846 1.941 6.368 0 1.58-.323 3.14-.97 4.68-.647 1.543-1.554 2.85-2.721 3.92a14.243 14.177 0 0 1-4.444 2.722c-1.65.635-3.713.953-6.193.953zm29.339-.736V61.14h-13.671v-4.792h32.758v4.79H185.95v35.735zm23.189 0V56.349h25.456v4.79h-20.042v11.105h18.676v4.79h-18.676v15.05h20.043v4.789zM55.868 204.538H44.58v-2.955h3.71v-23.036h-3.71v-2.955h11.29v2.955h-3.711v23.036h3.71zM117.446 176.115l-10 28.946h-4.179l-10-28.946h4.14l8.047 24.028 8.047-24.028zM171.472 204.862h-4.433l-7.09-11.585-7.206 11.585h-4.18l9.238-14.483-8.965-14.463h4.414l6.953 11.373 7.051-11.374h4.2l-9.102 14.27zM224.77 204.538h-16.855v-28.946h3.867v25.525h12.989zM122.877 254.545l-7.305 28.946h-4.356l-5.918-24.028-5.78 24.028h-4.259l-7.441-28.946h3.964l5.86 24.067 5.82-24.067h3.926l5.878 24.3 5.821-24.3zM225.363 282.634h-5.02l-9.218-11.508h-4.414v11.508h-3.867v-28.946h7.5c1.667 0 3.063.09 4.19.272a8.261 8.261 0 0 1 3.212 1.263 7.262 7.228 0 0 1 2.412 2.508c.592 1.024.889 2.295.889 3.812 0 2.125-.541 3.9-1.62 5.325-1.082 1.427-2.554 2.482-4.415 3.169zm-8.36-20.801c0-.842-.149-1.59-.448-2.245a3.806 3.788 0 0 0-1.387-1.604 5.377 5.377 0 0 0-1.914-.768c-.729-.149-1.634-.223-2.714-.224h-3.83v10.926h3.4c1.106 0 2.102-.097 2.987-.292a4.579 4.557 0 0 0 2.266-1.205 5.038 5.014 0 0 0 1.24-1.944c.267-.752.402-1.632.402-2.644z"/></svg>