<?xml version="1.0" encoding="UTF-8" standalone="no"?>
<svg
   xmlns:dc="http://purl.org/dc/elements/1.1/"
   xmlns:cc="http://creativecommons.org/ns#"
   xmlns:rdf="http://www.w3.org/1999/02/22-rdf-syntax-ns#"
   xmlns:svg="http://www.w3.org/2000/svg"
   xmlns="http://www.w3.org/2000/svg"
   xmlns:sodipodi="http://sodipodi.sourceforge.net/DTD/sodipodi-0.dtd"
   xmlns:inkscape="http://www.inkscape.org/namespaces/inkscape"
   viewBox="0 0 348 348"
   fill="none"
   font-family="Arial"
   version="1.1"
   id="svg40"
   sodipodi:docname="Weird Al Yankovic.svg"
   inkscape:version="0.92.4 (5da689c313, 2019-01-14)">
  <metadata
     id="metadata46">
    <rdf:RDF>
      <cc:Work
         rdf:about="">
        <dc:format>image/svg+xml</dc:format>
        <dc:type
           rdf:resource="http://purl.org/dc/dcmitype/StillImage" />
      </cc:Work>
    </rdf:RDF>
  </metadata>
  <defs
     id="defs44" />
  <sodipodi:namedview
     pagecolor="#ffffff"
     bordercolor="#666666"
     borderopacity="1"
     objecttolerance="10"
     gridtolerance="10"
     guidetolerance="10"
     inkscape:pageopacity="0"
     inkscape:pageshadow="2"
     inkscape:window-width="640"
     inkscape:window-height="662"
     id="namedview42"
     showgrid="false"
     inkscape:zoom="0.67816092"
     inkscape:cx="174"
     inkscape:cy="174"
     inkscape:window-x="0"
     inkscape:window-y="0"
     inkscape:window-maximized="0"
     inkscape:current-layer="svg40" />
  <path
     d="M5 5.8h337v337.6H5z"
     stroke-width="2"
     stroke="#000"
     id="path2" />
  <path
     d="M282.7 40.6c0-8.4 7-15.2 15.6-15.2 4.1 0 8 1.6 11 4.4a15 15 0 0 1 4.6 10.8c0 8.3-7 15.1-15.6 15.1s-15.6-6.8-15.6-15.1z"
     stroke-width="2"
     stroke="#000"
     id="path4" />
  <path
     d="M16.4 147.3V114H261v66.7H16.4v-33.4z"
     fill="#000"
     id="path6" />
  <ellipse
     cx="309.5"
     cy="149.3"
     rx="24.9"
     ry="22.8"
     fill="#fff"
     stroke="#000"
     stroke-width="1.1"
     id="ellipse8" />
  <ellipse
     ry="22.8"
     rx="24.9"
     cy="224.1"
     cx="308.5"
     fill="#fff"
     stroke="#000"
     stroke-width="1.1"
     id="ellipse10" />
  <ellipse
     cx="307.9"
     cy="297.9"
     rx="24.9"
     ry="22.8"
     fill="#fff"
     stroke="#000"
     stroke-width="1.1"
     id="ellipse12" />
  <g
     aria-label="&lt;LYRIC1&gt;"
     style="font-weight:400;font-size:40px;line-height:0%;-inkscape-font-specification:'Keep on Truckin\'FW, Normal';text-align:start;fill:#000000"
     id="text16"
     transform="translate(-8)">
    <path
       d="M 73.900002,160.0961 51.360939,150.07657 v -2.42188 l 22.539063,-10.01953 v 3.51563 l -17.773438,7.71484 17.773438,7.71484 z"
       style="line-height:125%;-inkscape-font-specification:'Keep on Truckin\'FW, Normal';text-align:start;fill:#ffffff"
       id="path3783"
       inkscape:connector-curvature="0" />
    <path
       d="M 101.43906,161.60001 H 83.040627 v -29.08204 h 3.867187 v 25.64454 h 14.531246 z"
       style="line-height:125%;-inkscape-font-specification:'Keep on Truckin\'FW, Normal';text-align:start;fill:#ffffff"
       id="path3785"
       inkscape:connector-curvature="0" />
    <path
       d="m 122.76719,132.51797 -10.23438,16.32813 v 12.75391 h -3.86718 V 149.25626 L 98.392189,132.51797 h 4.277341 l 7.94922,13.00782 8.02735,-13.00782 z"
       style="line-height:125%;-inkscape-font-specification:'Keep on Truckin\'FW, Normal';text-align:start;fill:#ffffff"
       id="path3787"
       inkscape:connector-curvature="0" />
    <path
       d="m 150.85313,161.60001 h -5.01953 l -9.72657,-11.5625 h -5.44922 v 11.5625 h -3.86718 v -29.08204 h 8.14453 q 2.63672,0 4.39453,0.35157 1.75781,0.33203 3.16406,1.21093 1.58203,0.9961 2.46094,2.51954 0.89844,1.5039 0.89844,3.82812 0,3.14453 -1.58203,5.27344 -1.58204,2.10937 -4.35547,3.18359 z m -9.04297,-20.89844 q 0,-1.25 -0.44922,-2.20703 -0.42969,-0.97657 -1.44531,-1.64063 -0.83985,-0.5664 -1.99219,-0.78125 -1.15234,-0.23437 -2.71484,-0.23437 h -4.55079 v 10.97656 h 3.90625 q 1.83594,0 3.20313,-0.3125 1.36719,-0.33203 2.32422,-1.21094 0.8789,-0.82031 1.28906,-1.875 0.42969,-1.07422 0.42969,-2.71484 z"
       style="line-height:125%;-inkscape-font-specification:'Keep on Truckin\'FW, Normal';text-align:start;fill:#ffffff"
       id="path3789"
       inkscape:connector-curvature="0" />
    <path
       d="m 164.85703,161.60001 h -11.48437 v -2.96875 h 3.80859 v -23.14454 h -3.80859 v -2.96875 h 11.48437 v 2.96875 h -3.80859 v 23.14454 h 3.80859 z"
       style="line-height:125%;-inkscape-font-specification:'Keep on Truckin\'FW, Normal';text-align:start;fill:#ffffff"
       id="path3791"
       inkscape:connector-curvature="0" />
    <path
       d="m 193.93906,159.49063 q -1.07421,0.46875 -1.95312,0.87891 -0.85938,0.41015 -2.26563,0.85937 -1.1914,0.3711 -2.59765,0.625 -1.38672,0.27344 -3.06641,0.27344 -3.16406,0 -5.76172,-0.87891 -2.57812,-0.89843 -4.49218,-2.79297 -1.875,-1.85546 -2.92969,-4.70703 -1.05469,-2.87109 -1.05469,-6.66015 0,-3.59375 1.01563,-6.42578 1.01562,-2.83204 2.92968,-4.78516 1.85547,-1.89453 4.47266,-2.89063 2.63672,-0.99609 5.83984,-0.99609 2.34375,0 4.66797,0.56641 2.34375,0.5664 5.19531,1.99218 v 4.58985 h -0.29296 q -2.40235,-2.01172 -4.76563,-2.92969 -2.36328,-0.91797 -5.05859,-0.91797 -2.20703,0 -3.98438,0.72266 -1.75781,0.70312 -3.14453,2.20703 -1.34766,1.46484 -2.10937,3.71094 -0.74219,2.22656 -0.74219,5.15625 0,3.0664 0.82031,5.27343 0.83984,2.20704 2.14844,3.59375 1.36719,1.44532 3.18359,2.14844 1.83594,0.6836 3.86719,0.6836 2.79297,0 5.23437,-0.95704 2.44141,-0.95703 4.57032,-2.87109 h 0.27343 z"
       style="line-height:125%;-inkscape-font-specification:'Keep on Truckin\'FW, Normal';text-align:start;fill:#ffffff"
       id="path3793"
       inkscape:connector-curvature="0" />
    <path
       d="m 216.7125,161.60001 h -15.74219 v -2.96875 h 6.05469 v -19.49219 h -6.05469 v -2.65625 q 1.23047,0 2.63672,-0.19531 1.40625,-0.21485 2.12891,-0.60547 0.89844,-0.48828 1.40625,-1.23047 0.52734,-0.76172 0.60547,-2.03125 h 3.02734 v 26.21094 h 5.9375 z"
       style="line-height:125%;-inkscape-font-specification:'Keep on Truckin\'FW, Normal';text-align:start;fill:#ffffff"
       id="path3795"
       inkscape:connector-curvature="0" />
    <path
       d="m 248.78281,150.07657 -22.53906,10.01953 v -3.51563 l 17.77344,-7.71484 -17.77344,-7.71484 v -3.51563 l 22.53906,10.01953 z"
       style="line-height:125%;-inkscape-font-specification:'Keep on Truckin\'FW, Normal';text-align:start;fill:#ffffff"
       id="path3797"
       inkscape:connector-curvature="0" />
  </g>
  <path
     d="M16.4 221.3V188H261v66.7H16.4v-33.4z"
     fill="#000"
     id="path18" />
  <g
     aria-label="&lt;LYRIC2&gt;"
     style="font-weight:400;font-size:40px;line-height:0%;-inkscape-font-specification:'Keep on Truckin\'FW, Normal';text-align:start;fill:#000000"
     id="text22"
     transform="translate(-8)">
    <path
       d="M 73.900002,234.0961 51.360939,224.07657 v -2.42188 l 22.539063,-10.01953 v 3.51563 l -17.773438,7.71484 17.773438,7.71484 z"
       style="line-height:125%;-inkscape-font-specification:'Keep on Truckin\'FW, Normal';text-align:start;fill:#ffffff"
       id="path3800"
       inkscape:connector-curvature="0" />
    <path
       d="M 101.43906,235.60001 H 83.040627 v -29.08204 h 3.867187 v 25.64454 h 14.531246 z"
       style="line-height:125%;-inkscape-font-specification:'Keep on Truckin\'FW, Normal';text-align:start;fill:#ffffff"
       id="path3802"
       inkscape:connector-curvature="0" />
    <path
       d="m 122.76719,206.51797 -10.23438,16.32813 v 12.75391 h -3.86718 V 223.25626 L 98.392189,206.51797 h 4.277341 l 7.94922,13.00782 8.02735,-13.00782 z"
       style="line-height:125%;-inkscape-font-specification:'Keep on Truckin\'FW, Normal';text-align:start;fill:#ffffff"
       id="path3804"
       inkscape:connector-curvature="0" />
    <path
       d="m 150.85313,235.60001 h -5.01953 l -9.72657,-11.5625 h -5.44922 v 11.5625 h -3.86718 v -29.08204 h 8.14453 q 2.63672,0 4.39453,0.35157 1.75781,0.33203 3.16406,1.21093 1.58203,0.9961 2.46094,2.51954 0.89844,1.5039 0.89844,3.82812 0,3.14453 -1.58203,5.27344 -1.58204,2.10937 -4.35547,3.18359 z m -9.04297,-20.89844 q 0,-1.25 -0.44922,-2.20703 -0.42969,-0.97657 -1.44531,-1.64063 -0.83985,-0.5664 -1.99219,-0.78125 -1.15234,-0.23437 -2.71484,-0.23437 h -4.55079 v 10.97656 h 3.90625 q 1.83594,0 3.20313,-0.3125 1.36719,-0.33203 2.32422,-1.21094 0.8789,-0.82031 1.28906,-1.875 0.42969,-1.07422 0.42969,-2.71484 z"
       style="line-height:125%;-inkscape-font-specification:'Keep on Truckin\'FW, Normal';text-align:start;fill:#ffffff"
       id="path3806"
       inkscape:connector-curvature="0" />
    <path
       d="m 164.85703,235.60001 h -11.48437 v -2.96875 h 3.80859 v -23.14454 h -3.80859 v -2.96875 h 11.48437 v 2.96875 h -3.80859 v 23.14454 h 3.80859 z"
       style="line-height:125%;-inkscape-font-specification:'Keep on Truckin\'FW, Normal';text-align:start;fill:#ffffff"
       id="path3808"
       inkscape:connector-curvature="0" />
    <path
       d="m 193.93906,233.49063 q -1.07421,0.46875 -1.95312,0.87891 -0.85938,0.41015 -2.26563,0.85937 -1.1914,0.3711 -2.59765,0.625 -1.38672,0.27344 -3.06641,0.27344 -3.16406,0 -5.76172,-0.87891 -2.57812,-0.89843 -4.49218,-2.79297 -1.875,-1.85546 -2.92969,-4.70703 -1.05469,-2.87109 -1.05469,-6.66015 0,-3.59375 1.01563,-6.42578 1.01562,-2.83204 2.92968,-4.78516 1.85547,-1.89453 4.47266,-2.89063 2.63672,-0.99609 5.83984,-0.99609 2.34375,0 4.66797,0.56641 2.34375,0.5664 5.19531,1.99218 v 4.58985 h -0.29296 q -2.40235,-2.01172 -4.76563,-2.92969 -2.36328,-0.91797 -5.05859,-0.91797 -2.20703,0 -3.98438,0.72266 -1.75781,0.70312 -3.14453,2.20703 -1.34766,1.46484 -2.10937,3.71094 -0.74219,2.22656 -0.74219,5.15625 0,3.0664 0.82031,5.27343 0.83984,2.20704 2.14844,3.59375 1.36719,1.44532 3.18359,2.14844 1.83594,0.6836 3.86719,0.6836 2.79297,0 5.23437,-0.95704 2.44141,-0.95703 4.57032,-2.87109 h 0.27343 z"
       style="line-height:125%;-inkscape-font-specification:'Keep on Truckin\'FW, Normal';text-align:start;fill:#ffffff"
       id="path3810"
       inkscape:connector-curvature="0" />
    <path
       d="m 218.37266,235.60001 h -19.6875 v -4.08204 q 2.05078,-1.75781 4.10156,-3.51562 2.07031,-1.75781 3.84766,-3.49609 3.75,-3.63282 5.13672,-5.76172 1.38671,-2.14844 1.38671,-4.62891 0,-2.26562 -1.5039,-3.53516 -1.48438,-1.28906 -4.16016,-1.28906 -1.77734,0 -3.84765,0.625 -2.07032,0.625 -4.04297,1.91406 h -0.19532 v -4.10156 q 1.38672,-0.68359 3.69141,-1.25 2.32422,-0.5664 4.49219,-0.5664 4.47265,0 7.01172,2.16796 2.53906,2.14844 2.53906,5.83985 0,1.66015 -0.42969,3.10547 -0.41015,1.42578 -1.23047,2.71484 -0.76172,1.21094 -1.79687,2.38281 -1.01563,1.17188 -2.48047,2.59766 -2.08984,2.05078 -4.31641,3.98437 -2.22656,1.91407 -4.16015,3.55469 h 15.64453 z"
       style="line-height:125%;-inkscape-font-specification:'Keep on Truckin\'FW, Normal';text-align:start;fill:#ffffff"
       id="path3812"
       inkscape:connector-curvature="0" />
    <path
       d="m 248.78281,224.07657 -22.53906,10.01953 v -3.51563 l 17.77344,-7.71484 -17.77344,-7.71484 v -3.51563 l 22.53906,10.01953 z"
       style="line-height:125%;-inkscape-font-specification:'Keep on Truckin\'FW, Normal';text-align:start;fill:#ffffff"
       id="path3814"
       inkscape:connector-curvature="0" />
  </g>
  <path
     d="M16.4 297.3V264H261v66.7H16.4v-33.4z"
     fill="#000"
     id="path24" />
  <g
     aria-label="&lt;LYRIC3&gt;"
     style="font-weight:400;font-size:40px;line-height:0%;-inkscape-font-specification:'Keep on Truckin\'FW, Normal';text-align:start;fill:#000000"
     id="text28"
     transform="translate(-8)">
    <path
       d="M 73.900002,310.0961 51.360939,300.07657 v -2.42188 l 22.539063,-10.01953 v 3.51563 l -17.773438,7.71484 17.773438,7.71484 z"
       style="line-height:125%;-inkscape-font-specification:'Keep on Truckin\'FW, Normal';text-align:start;fill:#ffffff"
       id="path3817"
       inkscape:connector-curvature="0" />
    <path
       d="M 101.43906,311.60001 H 83.040627 v -29.08204 h 3.867187 v 25.64454 h 14.531246 z"
       style="line-height:125%;-inkscape-font-specification:'Keep on Truckin\'FW, Normal';text-align:start;fill:#ffffff"
       id="path3819"
       inkscape:connector-curvature="0" />
    <path
       d="m 122.76719,282.51797 -10.23438,16.32813 v 12.75391 h -3.86718 V 299.25626 L 98.392189,282.51797 h 4.277341 l 7.94922,13.00782 8.02735,-13.00782 z"
       style="line-height:125%;-inkscape-font-specification:'Keep on Truckin\'FW, Normal';text-align:start;fill:#ffffff"
       id="path3821"
       inkscape:connector-curvature="0" />
    <path
       d="m 150.85313,311.60001 h -5.01953 l -9.72657,-11.5625 h -5.44922 v 11.5625 h -3.86718 v -29.08204 h 8.14453 q 2.63672,0 4.39453,0.35157 1.75781,0.33203 3.16406,1.21093 1.58203,0.9961 2.46094,2.51954 0.89844,1.5039 0.89844,3.82812 0,3.14453 -1.58203,5.27344 -1.58204,2.10937 -4.35547,3.18359 z m -9.04297,-20.89844 q 0,-1.25 -0.44922,-2.20703 -0.42969,-0.97657 -1.44531,-1.64063 -0.83985,-0.5664 -1.99219,-0.78125 -1.15234,-0.23437 -2.71484,-0.23437 h -4.55079 v 10.97656 h 3.90625 q 1.83594,0 3.20313,-0.3125 1.36719,-0.33203 2.32422,-1.21094 0.8789,-0.82031 1.28906,-1.875 0.42969,-1.07422 0.42969,-2.71484 z"
       style="line-height:125%;-inkscape-font-specification:'Keep on Truckin\'FW, Normal';text-align:start;fill:#ffffff"
       id="path3823"
       inkscape:connector-curvature="0" />
    <path
       d="m 164.85703,311.60001 h -11.48437 v -2.96875 h 3.80859 v -23.14454 h -3.80859 v -2.96875 h 11.48437 v 2.96875 h -3.80859 v 23.14454 h 3.80859 z"
       style="line-height:125%;-inkscape-font-specification:'Keep on Truckin\'FW, Normal';text-align:start;fill:#ffffff"
       id="path3825"
       inkscape:connector-curvature="0" />
    <path
       d="m 193.93906,309.49063 q -1.07421,0.46875 -1.95312,0.87891 -0.85938,0.41015 -2.26563,0.85937 -1.1914,0.3711 -2.59765,0.625 -1.38672,0.27344 -3.06641,0.27344 -3.16406,0 -5.76172,-0.87891 -2.57812,-0.89843 -4.49218,-2.79297 -1.875,-1.85546 -2.92969,-4.70703 -1.05469,-2.87109 -1.05469,-6.66015 0,-3.59375 1.01563,-6.42578 1.01562,-2.83204 2.92968,-4.78516 1.85547,-1.89453 4.47266,-2.89063 2.63672,-0.99609 5.83984,-0.99609 2.34375,0 4.66797,0.56641 2.34375,0.5664 5.19531,1.99218 v 4.58985 h -0.29296 q -2.40235,-2.01172 -4.76563,-2.92969 -2.36328,-0.91797 -5.05859,-0.91797 -2.20703,0 -3.98438,0.72266 -1.75781,0.70312 -3.14453,2.20703 -1.34766,1.46484 -2.10937,3.71094 -0.74219,2.22656 -0.74219,5.15625 0,3.0664 0.82031,5.27343 0.83984,2.20704 2.14844,3.59375 1.36719,1.44532 3.18359,2.14844 1.83594,0.6836 3.86719,0.6836 2.79297,0 5.23437,-0.95704 2.44141,-0.95703 4.57032,-2.87109 h 0.27343 z"
       style="line-height:125%;-inkscape-font-specification:'Keep on Truckin\'FW, Normal';text-align:start;fill:#ffffff"
       id="path3827"
       inkscape:connector-curvature="0" />
    <path
       d="m 215.81406,297.5961 q 0.9375,0.83984 1.54297,2.10937 0.60547,1.26954 0.60547,3.28125 0,1.99219 -0.72265,3.65235 -0.72266,1.66015 -2.03125,2.89062 -1.46485,1.36719 -3.45704,2.03125 -1.97265,0.64453 -4.33593,0.64453 -2.42188,0 -4.76563,-0.58593 -2.34375,-0.56641 -3.84765,-1.25 v -4.08203 h 0.29296 q 1.66016,1.09375 3.90625,1.8164 2.2461,0.72266 4.33594,0.72266 1.23047,0 2.61719,-0.41016 1.38672,-0.41015 2.24609,-1.21094 0.89844,-0.85937 1.32813,-1.89453 0.44922,-1.03515 0.44922,-2.61718 0,-1.5625 -0.50782,-2.57813 -0.48828,-1.03516 -1.36718,-1.62109 -0.87891,-0.60547 -2.12891,-0.82032 -1.25,-0.23437 -2.69531,-0.23437 h -1.75781 v -3.24219 h 1.36718 q 2.96875,0 4.72657,-1.23047 1.77734,-1.25 1.77734,-3.63281 0,-1.05469 -0.44922,-1.83594 -0.44922,-0.80078 -1.25,-1.30859 -0.83984,-0.50781 -1.79687,-0.70313 -0.95704,-0.19531 -2.16797,-0.19531 -1.85547,0 -3.94532,0.66406 -2.08984,0.66407 -3.94531,1.875 h -0.19531 v -4.08203 q 1.38672,-0.68359 3.69141,-1.25 2.32421,-0.58593 4.49218,-0.58593 2.12891,0 3.75,0.39062 1.6211,0.39063 2.92969,1.25 1.40625,0.9375 2.12891,2.26563 0.72265,1.32812 0.72265,3.10546 0,2.42188 -1.71875,4.23829 -1.69922,1.79687 -4.02343,2.26562 v 0.27344 q 0.9375,0.15625 2.14843,0.66406 1.21094,0.48828 2.05078,1.23047 z"
       style="line-height:125%;-inkscape-font-specification:'Keep on Truckin\'FW, Normal';text-align:start;fill:#ffffff"
       id="path3829"
       inkscape:connector-curvature="0" />
    <path
       d="m 248.78281,300.07657 -22.53906,10.01953 v -3.51563 l 17.77344,-7.71484 -17.77344,-7.71484 v -3.51563 l 22.53906,10.01953 z"
       style="line-height:125%;-inkscape-font-specification:'Keep on Truckin\'FW, Normal';text-align:start;fill:#ffffff"
       id="path3831"
       inkscape:connector-curvature="0" />
  </g>
  <g
     font-size="30"
     font-weight="400"
     font-family="Keep on Truckin\'FW"
     fill="#000"
     id="g38">
    <g
       aria-label="Weird Al"
       transform="rotate(-8.037 -9.888 -60.748)"
       style="line-height:0%;-inkscape-font-specification:'Keep on Truckin\'FW, Normal';text-align:start"
       id="text32">
      <path
         d="M 43.076429,47.977478 37.407484,69.789001 H 34.140882 L 29.555922,51.683533 25.0735,69.789001 H 21.88014 L 16.108656,47.977478 h 2.973633 l 4.584961,18.134766 4.511718,-18.134766 h 2.944336 l 4.555664,18.310547 4.555664,-18.310547 z"
         style="line-height:125%;-inkscape-font-specification:'Keep on Truckin\'FW, Normal';text-align:start"
         id="path3751" />
      <path
         d="M 59.350843,61.893494 H 47.295179 q 0,1.508789 0.454102,2.636718 0.454101,1.113282 1.245117,1.831055 0.761719,0.703125 1.801758,1.054688 1.054687,0.351562 2.314453,0.351562 1.669922,0 3.354492,-0.65918 1.699219,-0.673828 2.416992,-1.318359 h 0.146485 v 3.00293 q -1.391602,0.585937 -2.841797,0.981445 -1.450195,0.395508 -3.046875,0.395508 -4.072266,0 -6.357422,-2.197266 -2.285156,-2.211914 -2.285156,-6.269531 0,-4.013672 2.182617,-6.37207 2.197266,-2.358399 5.771484,-2.358399 3.310547,0 5.097657,1.933594 1.801757,1.933594 1.801757,5.493164 z m -2.680664,-2.109375 q -0.01465,-2.167969 -1.098632,-3.354493 -1.069336,-1.186523 -3.266602,-1.186523 -2.211914,0 -3.530273,1.303711 -1.303711,1.303711 -1.479493,3.237305 z"
         style="line-height:125%;-inkscape-font-specification:'Keep on Truckin\'FW, Normal';text-align:start"
         id="path3753" />
      <path
         d="m 66.484632,50.687439 h -3.105468 v -2.856445 h 3.105468 z M 66.308851,69.789001 H 63.554945 V 53.426697 h 2.753906 z"
         style="line-height:125%;-inkscape-font-specification:'Keep on Truckin\'FW, Normal';text-align:start"
         id="path3755" />
      <path
         d="m 81.997328,56.429626 h -0.146485 q -0.615234,-0.146484 -1.201171,-0.205078 -0.57129,-0.07324 -1.362305,-0.07324 -1.274414,0 -2.460938,0.571289 -1.186523,0.556641 -2.285156,1.450196 v 11.61621 H 71.787367 V 53.426697 h 2.753906 v 2.416992 q 1.640625,-1.318359 2.885742,-1.860352 1.259766,-0.55664 2.563477,-0.55664 0.717773,0 1.040039,0.04395 0.322266,0.0293 0.966797,0.131836 z"
         style="line-height:125%;-inkscape-font-specification:'Keep on Truckin\'FW, Normal';text-align:start"
         id="path3757" />
      <path
         d="m 97.890882,69.789001 h -2.753906 v -1.713867 q -1.186523,1.025391 -2.475586,1.59668 -1.289062,0.571289 -2.797851,0.571289 -2.929688,0 -4.658203,-2.255859 -1.713868,-2.25586 -1.713868,-6.254883 0,-2.080078 0.585938,-3.706055 0.600586,-1.625976 1.611328,-2.768555 0.996094,-1.113281 2.314453,-1.699218 1.333008,-0.585938 2.753906,-0.585938 1.289063,0 2.285157,0.278321 0.996093,0.263671 2.094726,0.83496 v -7.089843 h 2.753906 z m -2.753906,-4.02832 v -9.389648 q -1.113281,-0.498047 -1.992187,-0.688477 -0.878907,-0.19043 -1.918946,-0.19043 -2.314453,0 -3.603515,1.611329 -1.289063,1.611328 -1.289063,4.570312 0,2.915039 0.996094,4.438477 0.996094,1.508789 3.193359,1.508789 1.171875,0 2.373047,-0.512696 1.201172,-0.527343 2.241211,-1.347656 z"
         style="line-height:125%;-inkscape-font-specification:'Keep on Truckin\'FW, Normal';text-align:start"
         id="path3759" />
      <path
         d="m 131.27467,69.789001 h -3.09082 L 126.04518,63.7099 h -9.43359 l -2.13868,6.079101 h -2.94433 l 7.93945,-21.811523 h 3.86719 z m -6.12305,-8.569335 -3.82324,-10.708008 -3.83789,10.708008 z"
         style="line-height:125%;-inkscape-font-specification:'Keep on Truckin\'FW, Normal';text-align:start"
         id="path3761" />
      <path
         d="m 137.14869,69.789001 h -2.7539 V 46.996033 h 2.7539 z"
         style="line-height:125%;-inkscape-font-specification:'Keep on Truckin\'FW, Normal';text-align:start"
         id="path3763" />
    </g>
    <g
       aria-label="Yankovic"
       transform="rotate(-9.42 -7.812 -51.94)"
       style="line-height:0%;-inkscape-font-specification:'Keep on Truckin\'FW, Normal';text-align:start"
       id="text36">
      <path
         d="M 31.098141,85.097473 23.422359,97.343567 V 106.909 h -2.90039 V 97.651184 L 12.816891,85.097473 h 3.208008 l 5.961914,9.75586 6.020507,-9.75586 z"
         style="line-height:125%;-inkscape-font-specification:'Keep on Truckin\'FW, Normal';text-align:start"
         id="path3766" />
      <path
         d="m 44.560055,106.909 h -2.739258 v -1.74317 q -0.366211,0.24903 -0.996094,0.70313 -0.615234,0.43945 -1.201172,0.70312 -0.688476,0.33692 -1.582031,0.55664 -0.893555,0.23438 -2.094726,0.23438 -2.211915,0 -3.75,-1.46485 -1.538086,-1.46484 -1.538086,-3.73535 0,-1.86035 0.791015,-3.002927 0.805664,-1.157226 2.285156,-1.816406 1.494141,-0.65918 3.588868,-0.893555 2.094726,-0.234375 4.49707,-0.351562 v -0.424805 q 0,-0.9375 -0.336914,-1.552734 -0.322266,-0.615235 -0.9375,-0.966797 -0.585938,-0.336914 -1.40625,-0.454102 -0.820313,-0.117187 -1.713867,-0.117187 -1.083985,0 -2.416992,0.292968 -1.333008,0.278321 -2.753907,0.820313 h -0.146484 v -2.797852 q 0.805664,-0.219726 2.329101,-0.483398 1.523438,-0.263672 3.00293,-0.263672 1.728516,0 3.00293,0.292969 1.289062,0.27832 2.226562,0.966797 0.922852,0.673828 1.40625,1.743164 0.483399,1.069336 0.483399,2.651367 z m -2.739258,-4.02832 v -4.555668 q -1.259766,0.07324 -2.973633,0.219727 -1.699219,0.146484 -2.695312,0.424804 -1.186524,0.336915 -1.918946,1.054687 -0.732422,0.70313 -0.732422,1.94824 0,1.40625 0.84961,2.12403 0.849609,0.70312 2.592773,0.70312 1.450196,0 2.651367,-0.55664 1.201172,-0.57129 2.226563,-1.3623 z"
         style="line-height:125%;-inkscape-font-specification:'Keep on Truckin\'FW, Normal';text-align:start"
         id="path3768" />
      <path
         d="M 63.573727,106.909 H 60.81982 v -9.31641 q 0,-1.127929 -0.131836,-2.109375 -0.131835,-0.996093 -0.483398,-1.552734 -0.366211,-0.615234 -1.054687,-0.908203 -0.688477,-0.307617 -1.78711,-0.307617 -1.12793,0 -2.358398,0.55664 -1.230469,0.556641 -2.358399,1.420899 V 106.909 H 49.892086 V 90.546692 h 2.753906 v 1.816406 q 1.289063,-1.069336 2.666016,-1.669922 1.376953,-0.600586 2.827148,-0.600586 2.651368,0 4.042969,1.59668 1.391602,1.59668 1.391602,4.599609 z"
         style="line-height:125%;-inkscape-font-specification:'Keep on Truckin\'FW, Normal';text-align:start"
         id="path3770" />
      <path
         d="m 83.729977,106.909 h -3.632813 l -6.5625,-7.163089 -1.787109,1.699219 V 106.909 H 68.993649 V 84.116028 h 2.753906 v 14.61914 l 7.954101,-8.188476 h 3.47168 l -7.602539,7.558594 z"
         style="line-height:125%;-inkscape-font-specification:'Keep on Truckin\'FW, Normal';text-align:start"
         id="path3772" />
      <path
         d="m 100.28271,98.735168 q 0,3.999022 -2.05078,6.313482 -2.050781,2.31445 -5.493164,2.31445 -3.47168,0 -5.522461,-2.31445 -2.036133,-2.31446 -2.036133,-6.313482 0,-3.999023 2.036133,-6.313476 2.050781,-2.329102 5.522461,-2.329102 3.442383,0 5.493164,2.329102 2.05078,2.314453 2.05078,6.313476 z m -2.841796,0 q 0,-3.17871 -1.245117,-4.716796 -1.245117,-1.552735 -3.457031,-1.552735 -2.241211,0 -3.486328,1.552735 -1.230469,1.538086 -1.230469,4.716796 0,3.076172 1.245117,4.672852 1.245117,1.58203 3.47168,1.58203 2.197265,0 3.442383,-1.56738 1.259765,-1.58203 1.259765,-4.687502 z"
         style="line-height:125%;-inkscape-font-specification:'Keep on Truckin\'FW, Normal';text-align:start"
         id="path3774" />
      <path
         d="M 118.47607,90.546692 111.85498,106.909 h -2.76856 l -6.57715,-16.362308 h 2.98828 l 5.06836,13.022458 5.02442,-13.022458 z"
         style="line-height:125%;-inkscape-font-specification:'Keep on Truckin\'FW, Normal';text-align:start"
         id="path3776" />
      <path
         d="m 125.03857,87.807434 h -3.10547 v -2.856445 h 3.10547 z M 124.86279,106.909 h -2.75391 V 90.546692 h 2.75391 z"
         style="line-height:125%;-inkscape-font-specification:'Keep on Truckin\'FW, Normal';text-align:start"
         id="path3778" />
      <path
         d="m 142.44091,105.88361 q -1.37695,0.65918 -2.62207,1.02539 -1.23046,0.36621 -2.62207,0.36621 -1.77246,0 -3.25195,-0.5127 -1.47949,-0.52734 -2.53418,-1.58203 -1.06934,-1.05469 -1.65527,-2.66601 -0.58594,-1.61133 -0.58594,-3.764653 0,-4.013672 2.19727,-6.298828 2.21191,-2.285156 5.83007,-2.285156 1.40625,0 2.75391,0.395507 1.3623,0.395508 2.49023,0.966797 v 3.061524 h -0.14648 q -1.25977,-0.981446 -2.60742,-1.508789 -1.33301,-0.527344 -2.60742,-0.527344 -2.34375,0 -3.70606,1.582031 -1.34765,1.567383 -1.34765,4.614258 0,2.958983 1.31835,4.555663 1.33301,1.58203 3.73536,1.58203 0.83496,0 1.69921,-0.21972 0.86426,-0.21973 1.55274,-0.57129 0.60059,-0.30762 1.12793,-0.64453 0.52734,-0.35157 0.83496,-0.60059 h 0.14648 z"
         style="line-height:125%;-inkscape-font-specification:'Keep on Truckin\'FW, Normal';text-align:start"
         id="path3780" />
    </g>
  </g>
</svg>
