<svg xmlns="http://www.w3.org/2000/svg" fill="none" viewBox="0 0 512 512"><path stroke="#000" stroke-width="4" d="M17.999975 17.999995H494.00002V494H17.999975Z"/><path stroke="#000" stroke-width="4" d="M470.00003 63.999996a22 22 0 0 1-22 22 22 22 0 0 1-22-22 22 22 0 0 1 22-22 22 22 0 0 1 22 22z"/><path stroke="#000" stroke-linecap="round" stroke-width="4" d="M466.00002 256A210.00002 210.00002 0 0 1 256 466.00002 210.00002 210.00002 0 0 1 45.999985 256 210.00002 210.00002 0 0 1 256 45.999985 210.00002 210.00002 0 0 1 466.00002 256Z" paint-order="markers fill stroke"/><path stroke="#000" stroke-width="4" d="m300.55033 278.69953 99.79273 50.84693M111.65694 182.45354l99.79273 50.84693m21.8508 67.24986-50.84693 99.79273m147.09292-288.68612-50.84693 99.79273m-.00001 89.10066 50.84693 99.79273m-147.0929-288.68612 50.84693 99.79273m-21.85081 67.24985-99.79273 50.84693m288.68612-147.0929-99.79273 50.84693m4.83409 14.87779 110.62109-17.52068M95.994491 281.34241l110.621089-17.52068m57.20615 41.56269 17.52068 110.62109M230.65759 95.994491l17.52068 110.621089m57.20615 57.20614 110.62109 17.52066M95.994487 230.65762l110.621093 17.52066m41.5627 57.20614-17.52066 110.62109m50.68476-320.011024L263.82172 206.61558m27.53362 84.73976 79.19596 79.19596M141.4487 141.4487l79.19596 79.19596m0 70.71068L141.4487 370.5513m229.1026-229.1026-79.19596 79.19596M418 256a162 162 0 0 1-162 162A162 162 0 0 1 94 256 162 162 0 0 1 256 94a162 162 0 0 1 162 162Zm-112 0a50 50 0 0 1-50 50 50 50 0 0 1-50-50 50 50 0 0 1 50-50 50 50 0 0 1 50 50z"/><path fill="#000" d="M262 448a6 6 0 0 1-6 6 6 6 0 0 1-6-6 6 6 0 0 1 6-6 6 6 0 0 1 6 6zm0-370a6 6 0 0 1-6 6 6 6 0 0 1-6-6 6 6 0 0 1 6-6 6 6 0 0 1 6 6zm178 178a6 6 0 0 1-6 6 6 6 0 0 1-6-6 6 6 0 0 1 6-6 6 6 0 0 1 6 6zm-356 0a6 6 0 0 1-6 6 6 6 0 0 1-6-6 6 6 0 0 1 6-6 6 6 0 0 1 6 6zm50.37763224 130.10764635a6 6 0 0 1-8.48528137 0 6 6 0 0 1 0-8.48528138 6 6 0 0 1 8.48528137 0 6 6 0 0 1 0 8.48528138zm251.73001411-251.73001411a6 6 0 0 1-8.48528138 0 6 6 0 0 1 0-8.48528137 6 6 0 0 1 8.48528138 0 6 6 0 0 1 0 8.48528137zm.00002121 251.73003532a6 6 0 0 1-8.48528137 0 6 6 0 0 1 0-8.48528137 6 6 0 0 1 8.48528137 0 6 6 0 0 1 0 8.48528137zM134.37763224 134.37763224a6 6 0 0 1-8.48528137 0 6 6 0 0 1 0-8.48528137 6 6 0 0 1 8.48528137 0 6 6 0 0 1 0 8.48528137zm37.81852261 278.77489869a6 6 0 0 1-8.19615242 2.19615242 6 6 0 0 1-2.19615243-8.19615242 6 6 0 0 1 8.19615243-2.19615242 6 6 0 0 1 2.19615242 8.19615242zm178.0000015-308.30504634a6 6 0 0 1-8.19615242 2.19615242 6 6 0 0 1-2.19615243-8.19615242 6 6 0 0 1 8.19615243-2.19615243 6 6 0 0 1 2.19615242 8.19615243zm65.15252187 243.15252187a6 6 0 0 1-8.19615242 2.19615242 6 6 0 0 1-2.19615242-8.19615242 6 6 0 0 1 8.19615242-2.19615242 6 6 0 0 1 2.19615242 8.19615242zm-308.3050524-178.000005a6 6 0 0 1-8.19615243 2.19615242 6 6 0 0 1-2.19615242-8.19615242 6 6 0 0 1 8.19615242-2.19615242 6 6 0 0 1 2.19615243 8.19615242zM85.61812055 307.86535747a6 6 0 0 1-7.34846923-4.2426407 6 6 0 0 1 4.2426407-7.34846922 6 6 0 0 1 7.34846922 4.24264069 6 6 0 0 1-4.24264069 7.34846923zm343.86960768-92.13958368a6 6 0 0 1-7.34846922-4.2426407 6 6 0 0 1 4.24264068-7.34846922 6 6 0 0 1 7.34846923 4.24264069 6 6 0 0 1-4.24264069 7.34846923zM303.62270186 433.73036607a6 6 0 0 1-7.34846922-4.24264069 6 6 0 0 1 4.24264068-7.34846923 6 6 0 0 1 7.34846923 4.2426407 6 6 0 0 1-4.24264069 7.34846922zM211.48311663 89.8607526a6 6 0 0 1-7.34846923-4.2426407 6 6 0 0 1 4.24264069-7.34846922 6 6 0 0 1 7.34846923 4.24264068 6 6 0 0 1-4.24264069 7.34846923zm138.71304225 317.2917732a6 6 0 0 1-2.19615242 8.19615242 6 6 0 0 1-8.19615242-2.19615242 6 6 0 0 1 2.19615242-8.19615242 6 6 0 0 1 8.19615242 2.19615242zm-178.000005-308.3050524a6 6 0 0 1-2.19615242 8.19615242 6 6 0 0 1-8.19615242-2.19615243 6 6 0 0 1 2.19615242-8.19615242 6 6 0 0 1 8.19615242 2.19615242zm243.15252947 65.15252903a6 6 0 0 1-2.19615242 8.19615242 6 6 0 0 1-8.19615242-2.19615242 6 6 0 0 1 2.19615242-8.19615243 6 6 0 0 1 8.19615242 2.19615243zM107.043637 342.00000393a6 6 0 0 1-2.19615241 8.19615242 6 6 0 0 1-8.19615243-2.19615242 6 6 0 0 1 2.19615243-8.19615243 6 6 0 0 1 8.19615242 2.19615243zm108.68213679 87.4877243a6 6 0 0 1-7.34846923 4.2426407 6 6 0 0 1-4.24264069-7.34846924 6 6 0 0 1 7.34846923-4.24264068 6 6 0 0 1 4.24264069 7.34846922zm92.13958368-343.86960768a6 6 0 0 1-7.34846923 4.24264069 6 6 0 0 1-4.24264069-7.34846923 6 6 0 0 1 7.34846923-4.24264069 6 6 0 0 1 4.24264069 7.34846923zm125.8650086 218.00458131a6 6 0 0 1-7.34846923 4.2426407 6 6 0 0 1-4.24264069-7.34846924 6 6 0 0 1 7.34846923-4.24264068 6 6 0 0 1 4.24264069 7.34846922zM89.8607526 211.48311663a6 6 0 0 1-7.34846924 4.24264069 6 6 0 0 1-4.24264068-7.34846923 6 6 0 0 1 7.34846922-4.24264069 6 6 0 0 1 4.2426407 7.34846923zm148.85424744 221.77721452a6 6 0 0 1-6.7318263 5.16551204 6 6 0 0 1-5.16551204-6.7318263 6 6 0 0 1 6.7318263-5.16551204 6 6 0 0 1 5.16551204 6.7318263zm46.4673219-352.95436089a6 6 0 0 1-6.7318263 5.16551203 6 6 0 0 1-5.16551205-6.7318263 6 6 0 0 1 6.7318263-5.16551204 6 6 0 0 1 5.16551205 6.7318263zm153.2435225 199.71085691a6 6 0 0 1-6.7318263 5.16551204 6 6 0 0 1-5.16551204-6.7318263 6 6 0 0 1 6.7318263-5.16551204 6 6 0 0 1 5.16551204 6.7318263zm-352.9543609-46.46732189a6 6 0 0 1-6.7318263 5.16551204 6 6 0 0 1-5.16551204-6.7318263 6 6 0 0 1 6.7318263-5.16551204 6 6 0 0 1 5.16551204 6.7318263zm32.96418252 135.57015403a6 6 0 0 1-8.41268862-1.10755146 6 6 0 0 1 1.10755147-8.41268862 6 6 0 0 1 8.41268862 1.10755147 6 6 0 0 1-1.10755147 8.41268861zM400.8694552 152.40059059a6 6 0 0 1-8.41268861-1.10755147 6 6 0 0 1 1.10755147-8.41268862 6 6 0 0 1 8.41268861 1.10755147 6 6 0 0 1-1.10755147 8.41268862zm-32.85733639 249.57644847a6 6 0 0 1-8.41268861-1.10755147 6 6 0 0 1 1.10755146-8.41268861 6 6 0 0 1 8.41268862 1.10755147 6 6 0 0 1-1.10755147 8.41268861zM151.29303182 119.54322612a6 6 0 0 1-8.41268861-1.10755147 6 6 0 0 1 1.10755146-8.41268862 6 6 0 0 1 8.41268862 1.10755147 6 6 0 0 1-1.10755147 8.41268862zm1.10755877 281.32622908a6 6 0 0 1-8.41268862 1.10755147 6 6 0 0 1-1.10755147-8.41268861 6 6 0 0 1 8.41268862-1.10755147 6 6 0 0 1 1.10755147 8.41268861zm216.71906872-282.43378914a6 6 0 0 1-8.41268861 1.10755147 6 6 0 0 1-1.10755147-8.41268862 6 6 0 0 1 8.41268862-1.10755147 6 6 0 0 1 1.10755146 8.41268862zm32.85737975 249.57645275a6 6 0 0 1-8.41268861 1.10755147 6 6 0 0 1-1.10755147-8.41268862 6 6 0 0 1 8.41268861-1.10755146 6 6 0 0 1 1.10755147 8.41268861zM119.54322612 151.29303182a6 6 0 0 1-8.41268862 1.10755147 6 6 0 0 1-1.10755147-8.41268862 6 6 0 0 1 8.41268862-1.10755146 6 6 0 0 1 1.10755147 8.41268861zM80.30597125 285.18232166a6 6 0 0 1-6.73182632-5.16551202 6 6 0 0 1 5.16551201-6.73182632 6 6 0 0 1 6.73182633 5.16551201 6 6 0 0 1-5.16551202 6.73182633zm352.95436074-46.46732313a6 6 0 0 1-6.73182633-5.16551201 6 6 0 0 1 5.16551202-6.73182633 6 6 0 0 1 6.73182632 5.16551202 6 6 0 0 1-5.16551201 6.73182632zM280.01680888 438.42584607a6 6 0 0 1-6.73182633-5.16551201 6 6 0 0 1 5.16551202-6.73182633 6 6 0 0 1 6.73182632 5.16551202 6 6 0 0 1-5.16551201 6.73182632zM233.54948575 85.47148534a6 6 0 0 1-6.73182632-5.16551202 6 6 0 0 1 5.16551201-6.73182632 6 6 0 0 1 6.73182633 5.16551201 6 6 0 0 1-5.16551202 6.73182633zm96.11143362 332.68295392a6 6 0 0 1-3.2471766 7.83937779 6 6 0 0 1-7.8393778-3.2471766 6 6 0 0 1 3.24717661-7.8393778 6 6 0 0 1 7.83937779 3.2471766zM193.4256251 89.25334416a6 6 0 0 1-3.2471766 7.8393778 6 6 0 0 1-7.83937779-3.24717661 6 6 0 0 1 3.2471766-7.83937779 6 6 0 0 1 7.8393778 3.2471766zm232.56821158 96.33291507a6 6 0 0 1-3.2471766 7.83937779 6 6 0 0 1-7.8393778-3.2471766 6 6 0 0 1 3.2471766-7.8393778 6 6 0 0 1 7.8393778 3.2471766zM97.0927231 321.82156115a6 6 0 0 1-3.2471766 7.83937779 6 6 0 0 1-7.83937779-3.2471766 6 6 0 0 1 3.2471766-7.8393778 6 6 0 0 1 7.8393778 3.2471766zm96.33291392 100.92509892a6 6 0 0 1-7.8393778 3.2471766 6 6 0 0 1-3.2471766-7.83937778 6 6 0 0 1 7.8393778-3.2471766 6 6 0 0 1 3.2471766 7.83937778zM329.66093894 93.8455465a6 6 0 0 1-7.8393778 3.2471766 6 6 0 0 1-3.2471766-7.83937779 6 6 0 0 1 7.8393778-3.2471766 6 6 0 0 1 3.2471766 7.8393778zm96.33287811 232.56819627a6 6 0 0 1-7.8393778 3.2471766 6 6 0 0 1-3.2471766-7.83937779 6 6 0 0 1 7.8393778-3.2471766 6 6 0 0 1 3.2471766 7.83937779zM97.09272195 190.1784485a6 6 0 0 1-7.83937779 3.2471766 6 6 0 0 1-3.2471766-7.83937779 6 6 0 0 1 7.83937779-3.2471766 6 6 0 0 1 3.2471766 7.83937779z" paint-order="markers fill stroke"/><path stroke="#000" stroke-linecap="round" stroke-width="4" d="M81.999969 448.00003a18 18 0 0 1-18 18 18 18 0 0 1-18-18 18 18 0 0 1 18-18 18 18 0 0 1 18 18zm-4-44a18 18 0 0 1-18 18 18 18 0 0 1-18-18 18 18 0 0 1 18-18 18 18 0 0 1 18 18zm48.000001 48a18 18 0 0 1-18 18 18 18 0 0 1-18.000001-18 18 18 0 0 1 18.000001-18 18 18 0 0 1 18 18zM54.82841352 97.25482605l42.4264097-42.4264097 22.627417 22.627417-42.4264097 42.4264097z" paint-order="markers fill stroke"/><path stroke="#000" stroke-linecap="round" stroke-width="3.99999" d="M52.82840441 66.97057398 66.9705469 52.8284315l11.31371557 11.31371557-14.14214249 14.14214248Z" paint-order="markers fill stroke"/><path fill="#000" d="m333.88276 152.1235-7.23571-5.17932 1.24892-1.74478 9.7297 6.96453-1.24891 1.74478q-2.05453.37649-5.556.97455-3.51907.60098-4.4686.82159-1.79633.40609-2.73733.89668-.95861.4935-1.49491 1.24273-.87424 1.22135-.56311 2.60821.30088 1.37952 1.67617 2.36396.97502.69792 2.30538 1.13797 1.3201.43269 3.04393.62663l-1.4987 2.09374q-1.61212-.39338-2.8837-.91553-1.27159-.52215-2.17477-1.16865-2.38111-1.7044-2.94526-3.90877-.56414-2.20438.86109-4.19548.67588-.94424 1.64486-1.53897.95137-.59182 2.70816-1.07278.46963-.11398 2.8661-.55615 2.38912-.43192 6.72269-1.19494zm4.90631-2.75587-8.13888-5.82582 1.24892-1.74478 6.24015 4.4667 2.68884-3.7564q-.56179-.16929-1.0648-.42071-.51036-.24113-.96196-.56438-2.56585-1.83664-3.05783-4.31532-.49197-2.47869 1.22712-4.88032 1.77052-2.47348 4.29446-2.7468 2.51661-.26305 5.31852 1.74256.96476.69058 1.85303 1.57475.878.87683 1.71031 1.9693l-1.49136 2.08348q-.56372-1.1641-1.37269-2.11569-.80897-.95159-1.90715-1.73767-1.77557-1.27096-3.48072-1.07899-1.70513.19197-2.85119 1.79306-1.14607 1.60109-.778 3.27706.36807 1.67597 2.14364 2.94693.83133.59507 1.79491 1.0054.95331.40298 2.0946.63008zM185.71381 343.70301l9.85287 7.05269-.63181.88266-15.89936 10.45878-2.16558-1.55013 14.95382-9.83174-7.35886-5.26748zm-9.1334 23.16845q-1.60109-1.14606-3.54327-.14587-1.92457.99727-4.18731 4.1584-2.25539 3.15086-2.58621 5.30446-.31321 2.15068 1.28787 3.29674 1.61136 1.15341 3.53593.15614 1.94218-1.00019 4.19757-4.15105 2.26274-3.16114 2.57595-5.31181.33083-2.1536-1.28053-3.30701zm1.17545-1.64214q2.57611 1.84399 2.46892 4.85615-.0896 3.00925-2.86658 6.88881-2.76965 3.86931-5.59665 4.93463-2.80939 1.06241-5.3855-.78157-2.57612-1.84399-2.48653-4.85324.10719-3.01216 2.87684-6.88146 2.777-3.87957 5.58638-4.94198 2.827-1.06532 5.40312.77866zm-13.87999-40.84479-11.9226.69482 3.77913 5.211zm1.40557-1.8457 1.88216 2.59528-9.94178 7.20999 1.57834 2.17636-1.71656 1.24489-1.57834-2.17636-3.59661 2.60834-1.48943-2.05375 3.59661-2.60834-4.99438-6.88669 1.99244-1.44496zm-21.60251 7.91759 5.87617 8.1026-1.737 1.25971-4.50532-6.21233-3.73965 2.71208q.4793.33842.87687.73613.40778.3903.73382.83988 1.85252 2.55441 1.53457 5.06136-.31795 2.50695-2.70888 4.24091-2.46245 1.78582-4.94313 1.24612-2.47045-.54711-4.4934-3.33652-.69655-.96046-1.25925-2.08035-.55529-1.10967-.99897-2.40943l2.07418-1.50425q.16624 1.28268.63239 2.44142.46614 1.15873 1.25901 2.25202 1.28194 1.76766 2.96017 2.12533 1.67821.35766 3.27217-.79831 1.59395-1.15597 1.77535-2.86226.18138-1.7063-1.10056-3.47396-.60021-.82763-1.38434-1.52187-.77673-.68404-1.78744-1.26073zm221.28244-147.109-1.88005 1.36345q-.19533-1.0433-.57918-1.98107-.38385-.93776-.93961-1.70409-1.48201-2.04353-3.62922-2.12344-2.16485-.0827-5.07564 1.79438 1.3085-.0446 2.43801.52387 1.12951.56851 1.92979 1.67201 1.65985 2.28876 1.25119 4.62763-.42629 2.33606-2.82744 4.07743-2.35006 1.70431-4.77808 1.34471-2.42802-.35961-4.10269-2.66879-1.91921-2.64638-.89367-5.51058 1.00792-2.86701 4.87019-5.66801 3.60683-2.61575 7.00764-2.46271 3.38319.15024 5.48024 3.04183.56316.77654.98788 1.68467.42472.90813.74064 1.98871zm-9.44662.58308q-1.00776-1.3896-2.5434-1.50766-1.54305-.12828-3.19831 1.07215-1.64504 1.19302-2.00247 2.69957-.37507 1.50374.6327 2.89334 1.00777 1.3896 2.56103 1.51046 1.53563.11806 3.18067-1.07496 1.65527-1.20043 2.02011-2.69675.35744-1.50655-.65033-2.89615zm10.68226-8.01206q1.15597 1.59395 3.31489 1.25999 2.14128-.33676 5.28832-2.61906 3.13682-2.27489 4.13234-4.21301.97791-1.94094-.17805-3.53489-1.16338-1.60417-3.30467-1.26741-2.15892.33396-5.29573 2.60884-3.14704 2.2823-4.12494 4.22323-.99554 1.93813.16784 3.54231zm-1.63482 1.18561q-1.85993-2.56464-.80474-5.38797 1.03756-2.82614 4.89983-5.62714 3.85205-2.79359 6.8709-2.90925 3.00122-.11846 4.86115 2.44617 1.85992 2.56463.82237 5.39077-1.05519 2.82333-4.90724 5.61692-3.86227 2.801-6.86349 2.91947-3.01886.11565-4.87878-2.44897zM256.22088 377.07917q-1.71656 0-2.7263 1.17382-.99713 1.17382-.99713 3.21855 0 2.03211.99713 3.21856 1.00974 1.17382 2.7263 1.17382t2.71368-1.17382q1.00975-1.18645 1.00975-3.21856 0-2.04473-1.00975-3.21855-.99712-1.17382-2.71368-1.17382zm5.06133-7.9896v2.32241q-.95926-.45438-1.94375-.69419-.97188-.23982-1.93114-.23982-2.52435 0-3.86226 1.70394-1.32529 1.70394-1.51461 5.14969.74468-1.0981 1.86802-1.6787 1.12334-.59322 2.47387-.59322 2.8399 0 4.48073 1.72918 1.65345 1.71657 1.65345 4.68268 0 2.90301-1.71656 4.65744-1.71656 1.75443-4.56908 1.75443-3.26905 0-4.99823-2.49911-1.72918-2.51173-1.72918-7.27014 0-4.46812 2.12046-7.11869 2.12046-2.66319 5.69242-2.66319.95926 0 1.93114.18932.98449.18933 2.04472.56797zM256 392.48783q-1.969 0-2.96612 1.94376-.9845 1.93113-.9845 5.81864 0 3.87488.9845 5.81864Q254.031 408 256 408q1.98162 0 2.96611-1.93113.99712-1.94376.99712-5.81864 0-3.88751-.99712-5.81864-.98449-1.94376-2.96611-1.94376zm0-2.01948q3.16806 0 4.83414 2.51173 1.6787 2.49912 1.6787 7.27015 0 4.75841-1.6787 7.27015-1.66608 2.49911-4.83414 2.49911-3.16807 0-4.84677-2.49911-1.66608-2.51174-1.66608-7.27015 0-4.77103 1.66608-7.27015 1.6787-2.51173 4.84677-2.51173zm5.28852-265.57496v2.32241q-.95926-.45439-1.94375-.6942-.9845-.23981-1.93114-.23981-2.52435 0-3.84964 1.69132-1.33791 1.70394-1.52723 5.16231.73206-1.08548 1.8554-1.66608 1.12334-.5806 2.48649-.5806 2.82728 0 4.48073 1.70394 1.64083 1.71656 1.64083 4.68268 0 2.90301-1.71656 4.65744-1.71656 1.75442-4.56908 1.75442-3.26905 0-4.98561-2.51173-1.72918-2.49911-1.72918-7.27015 0-4.45548 2.12046-7.11868 2.10784-2.65058 5.6798-2.65058.95926 0 1.94376.18933.98449.18933 2.04472.56798zm-5.07395 7.98959q-1.71656 0-2.71368 1.17383-1.00975 1.17382-1.00975 3.21855 0 2.03211 1.00975 3.20593.99712 1.18645 2.71368 1.18645t2.7263-1.18645q.99712-1.17382.99712-3.20593 0-2.04473-.99712-3.21855-1.00974-1.17383-2.7263-1.17383zM256 119.53166q1.96899 0 2.96612-1.94376.9845-1.93113.9845-5.81864 0-3.87489-.9845-5.81863-.99713-1.93114-2.96612-1.93114-1.98162 0-2.96612 1.93114-.99712 1.94375-.99712 5.81863 0 3.88751.99712 5.81864.9845 1.94376 2.96612 1.94376zm0 2.01948q-3.16807 0-4.83414-2.51173-1.6787-2.49912-1.6787-7.27015 0-4.75841 1.6787-7.27014Q252.83193 102 256 102q3.16806 0 4.84676 2.49912 1.66608 2.51173 1.66608 7.27014 0 4.77103-1.66608 7.27015-1.6787 2.51173-4.84676 2.51173zm35.29784 18.33564q-1.61966-.93771-2.20973-2.43004-.60206-1.49624-.0404-3.22481.86203-2.65287 3.1586-3.51246 2.29657-.8596 5.65768.23257 1.12837.36665 2.25465.98479 1.11819.60222 2.24628 1.45983l-.76061 2.34077q-.8172-.91584-1.92009-1.606-1.10287-.69015-2.41131-1.11531-2.28075-.74111-3.76168-.22698-1.49294.51024-2.05072 2.2268-.51488 1.58453.31285 2.83557.81181 1.25915 2.79247 1.90275l2.08869.6787-.6475 1.99265-2.18472-.7099q-1.78859-.58119-2.96703-.1811-1.18235.41209-1.61921 1.75654-.44857 1.38045.29782 2.43254.73048 1.06019 2.55508 1.65308.99633.32375 2.20691.47823 1.21059.15448 2.72726.143l-.7021 2.16071q-1.50528-.0644-2.76808-.26243-1.27481-.2019-2.34316-.54905-2.76091-.89714-3.95988-2.68023-1.20286-1.77108-.50856-3.90779.48367-1.48849 1.6714-2.24389 1.18383-.74339 2.88507-.62854zm6.87874-13.67459q1.87261.60849 3.42162-.93197 1.53309-1.53236 2.73447-5.22958 1.19748-3.68521.86186-5.83806-.35152-2.14475-2.22414-2.75324-1.88462-.6124-3.41772.91997-1.549 1.54046-2.74648 5.22567-1.20138 3.69722-.84985 5.84197.33562 2.15285 2.22024 2.76524zm-.62409 1.92064q-3.013-.97905-3.8213-3.88271-.82421-2.89556.65021-7.43306 1.47051-4.52548 3.84326-6.39549 2.35683-1.86191 5.36982-.88287 3.01299.97905 3.83721 3.87461.8083 2.90366-.66222 7.42915-1.47442 4.53749-3.83125 6.3994-2.37274 1.87001-5.38573.89097zm-76.85034 243.99988q1.61965.93771 2.20972 2.43004.60207 1.49624.0404 3.22481-.86202 2.65287-3.15859 3.51246-2.29658.85959-5.65768-.23257-1.12838-.36666-2.25466-.98479-1.11818-.60223-2.24628-1.45984l.76062-2.34077q.8172.91584 1.92008 1.606 1.10288.69015 2.41131 1.11532 2.28075.74111 3.76168.22697 1.49294-.51024 2.05072-2.2268.51488-1.58453-.31285-2.83557-.81182-1.25915-2.79247-1.90274l-2.08869-.6787.6475-1.99266 2.18472.7099q1.78859.58119 2.96703.1811 1.18235-.41209 1.61922-1.75653.44857-1.38045-.29782-2.43254-.73048-1.0602-2.55508-1.65308-.99633-.32375-2.20692-.47824-1.21058-.15448-2.72725-.143l.7021-2.1607q1.50527.0644 2.76807.26243 1.27481.2019 2.34316.54905 2.76091.89713 3.95988 2.68022 1.20287 1.77109.50857 3.90779-.48368 1.48849-1.6714 2.2439-1.18383.74339-2.88507.62854zm-6.87874 13.67458q-1.87261-.60849-3.42161.93197-1.5331 1.53236-2.73448 5.22958-1.19748 3.68521-.86186 5.83807.35153 2.14475 2.22414 2.75324 1.88462.61239 3.41772-.91997 1.549-1.54046 2.74648-5.22567 1.20138-3.69722.84985-5.84197-.33562-2.15286-2.22024-2.76525zm.62409-1.92063q3.013.97905 3.8213 3.88271.82421 2.89556-.6502 7.43305-1.47052 4.52549-3.84326 6.3955-2.35684 1.86191-5.36983.88286-3.01299-.97904-3.83721-3.8746-.8083-2.90367.66222-7.42915 1.47442-4.5375 3.83125-6.3994 2.37274-1.87001 5.38573-.89097zm157.12744-90.61717q-.53284 1.63177.26956 2.956.80632 1.31224 2.75005 1.94695 1.93172.63079 3.36908.0512 1.42928-.59549 1.96212-2.22726.53284-1.63176-.27348-2.944-.81441-1.32815-2.74613-1.95894-1.94372-.63471-3.373-.0392-1.42536.5835-1.9582 2.21526zm-6.02382-7.29138 2.20768.72091q-.7297.77082-1.26326 1.63225-.52966.84942-.82742 1.7613-.78359 2.39965.42087 4.2004 1.20839 1.78874 4.42515 3.03832-.81269-1.04877-1.01591-2.29684-.21522-1.25199.204-2.5358.88154-2.69962 3.03464-3.72264 2.14502-1.03893 4.96462-.11821 2.7596.90113 3.89452 3.07749 1.13492 2.17636.24947 4.88798-1.01476 3.10756-3.92718 3.97557-2.92442.86409-7.44777-.61298-4.2474-1.38696-6.10882-4.22544-1.87342-2.84241-.76464-6.23792.29776-.91187.77942-1.77697.48558-.8771 1.17463-1.76742zm20.60277 12.2844q-.6112 1.87173.92701 3.42296 1.53014 1.53532 5.22562 2.74205 3.68347 1.20281 5.8368.87031 2.14527-.34842 2.75647-2.22015.61512-1.88373-.91503-3.41905-1.53821-1.55123-5.22168-2.75404-3.69548-1.20674-5.84074-.85832-2.15333.33251-2.76845 2.21624zm-1.91973-.62687q.98341-3.01158 3.88824-3.81568 2.89675-.82001 7.4321.66097 4.52336 1.47707 6.38993 3.85252 1.85849 2.35953.87508 5.3711-.9834 3.01157-3.88015 3.83159-2.90483.8041-7.42819-.67297-4.53535-1.48099-6.39384-3.84052-1.86658-2.37545-.88317-5.38701zm-250.02072-84.70967-2.76216 8.45879-2.03971-.66605 3.71423-11.37438 2.03971.66605q.97723 1.84604 2.60113 5.0053 1.63198 3.17517 2.12807 4.01432.92777 1.59089 1.67876 2.34067.75907.7657 1.63494 1.05171 1.4278.46624 2.65678-.24777 1.22506-.70201 1.75007-2.30978.3722-1.13984.39157-2.54095.0154-1.38911-.31829-3.09141l2.44765.79926q.10992 1.65577-.005 3.02554-.11535 1.36977-.46013 2.42562-.90897 2.7836-2.84144 3.98488-1.93249 1.20128-4.26015.4412-1.10385-.36046-1.96258-1.10558-.85064-.72922-1.83792-2.25988-.25-.41357-1.39276-2.56593-1.13076-2.14846-3.16235-6.05161zm-4.27239-3.9046-3.10694 9.51464-2.03971-.66605 2.38212-7.29496-4.39137-1.43397q.008.58669-.0808 1.14204-.0764.55927-.2488 1.0872-.97949 2.99957-3.19527 4.21456-2.21579 1.21498-5.02339.29818-2.89158-.94422-3.91166-3.26897-1.00808-2.32083.0615-5.59637.36829-1.12784.94422-2.24098.57201-1.10115 1.36343-2.22359l2.43565.79534q-.94053.88787-1.60461 1.94567-.66409 1.05781-1.08331 2.34162-.6778 2.07571.0183 3.64407.69613 1.56836 2.56787 2.17956 1.87173.6112 3.35929-.24409 1.48756-.85529 2.16536-2.931.31736-.97186.41875-2.01424.0975-1.03039-.0294-2.18713zm238.44634 52.46904-.0746-10.00879 2.14565-.016.0572 7.67383 4.61944-.0344q-.19346-.55393-.28595-1.10862-.10511-.55458-.10925-1.10993-.0235-3.15535 1.69187-5.01097 1.7154-1.85562 4.66881-1.87764 3.04177-.0227 4.74715 1.85792 1.69277 1.8807 1.71846 5.32635.009 1.18642-.18387 2.42482-.19282 1.22578-.58692 2.54142l-2.56215.0191q.60998-1.14054.90386-2.35446.29388-1.21391.28381-2.5644-.0163-2.18351-1.17433-3.44972-1.15805-1.2662-3.127-1.25152-1.96894.0147-3.10799 1.29801-1.13904 1.28333-1.12276 3.46684.008 1.02233.24242 2.04297.23472 1.00802.72224 2.06465zm22.13547-.16503-.0746-10.0088 2.14564-.016.0572 7.67383 4.61944-.0344q-.19347-.55392-.28595-1.10861-.10511-.55459-.10925-1.10993-.0235-3.15536 1.69187-5.01098 1.71539-1.85562 4.66881-1.87764 3.04176-.0227 4.74715 1.85792 1.69277 1.88071 1.71846 5.32635.009 1.18642-.18388 2.42482-.19281 1.22579-.58691 2.54143l-2.56216.0191q.60998-1.14054.90386-2.35445.29388-1.21392.28381-2.56441-.0163-2.18351-1.17433-3.44971-1.15805-1.2662-3.127-1.25152-1.96893.0147-3.10798 1.298-1.13905 1.28333-1.12277 3.46684.008 1.02234.24243 2.04298.23471 1.00802.72223 2.06464zM133.627 255.87939q-.0136-1.81749-.99321-2.85782-.97957-1.02771-2.68346-1.01501-1.7039.0127-2.66803 1.05491-.96404 1.05483-.95049 2.87231.0135 1.81749.99322 2.85782.99228 1.04024 2.68355 1.02763 1.70389-.0127 2.66793-1.06753.96413-1.0422.95049-2.87231zm1.06643-2.55762q.39166-1.64379 1.5081-2.57354 1.11652-.91712 2.73207-.92916 2.25924-.0169 3.58382 1.57629 1.32467 1.60576 1.34556 4.40771.021 2.81458-1.27969 4.42729-1.30068 1.61271-3.55992 1.62956-1.61554.012-2.74571-.90095-1.13009-.90037-1.54612-2.52552-.41539 1.84593-1.65728 2.87758-1.24181 1.04427-3.04667 1.05773-2.73885.0204-4.21546-1.64732-1.4765-1.65511-1.49975-4.7726-.0232-3.1175 1.42833-4.80706 1.45167-1.67695 4.19052-1.69737 1.80485-.0135 3.0621 1.01219 1.25723 1.02564 1.7001 2.86517zm4.01927-.964q-1.46408.0109-2.2777.92577-.81352.92748-.80119 2.58089.0122 1.64078.83949 2.55603.82736.92787 2.29144.91696 1.46409-.0109 2.27752-.95103.81352-.92748.80129-2.56826-.0123-1.6534-.83959-2.56865-.82717-.90263-2.29126-.89171zm-19.18131 3.62671q-.0147-1.96894-1.96581-2.95154-1.93842-.97007-5.82582-.94109-3.87478.0289-5.81114 1.02785-1.92365 1.01149-1.90897 2.98043.0148 1.98157 1.9532 2.95164 1.95113.9826 5.82591.95371 3.8874-.029 5.81105-1.04047 1.93636-.99896 1.92158-2.98053zm2.01943-.0151q.0236 3.16797-2.47562 4.85273-2.48653 1.69728-7.25743 1.73285-4.75828.0355-7.28246-1.62444-2.51147-1.6474-2.53509-4.81538-.0236-3.16798 2.46291-4.86526 2.49925-1.68475 7.25753-1.72023 4.77089-.0356 7.28236 1.61182 2.52418 1.65993 2.5478 4.82791zm157.18161 87.22799 9.518-3.09663.66385 2.04043-7.29754 2.37422 1.42921 4.39292q.46953-.35186.97032-.60769.49686-.26784 1.02498-.43966 3.00063-.97623 5.28797.098 2.28735 1.07422 3.20111 3.88281.94109 2.89261-.33602 5.08669-1.28102 2.18208-4.55771 3.24814-1.12824.36706-2.36696.55771-1.22673.18674-2.59995.20877l-.7927-2.43652q1.27156.23668 2.51753.14987 1.24596-.0868 2.53023-.50465 2.07644-.67556 2.93334-2.16218.8569-1.48663.24773-3.35903-.60917-1.87239-2.17677-2.57022-1.56761-.69783-3.64405-.0223-.97221.3163-1.87412.84864-.88991.52844-1.74974 1.31256zm19.36287 42.38039q-1.87239.60918-2.21923 2.76605-.33874 2.14098.86398 5.83776 1.19882 3.68477 2.73638 5.22857 1.54566 1.5279 3.41806.91873 1.8844-.61308 2.22313-2.75406.34684-2.15687-.85198-5.84165-1.20272-3.69678-2.74838-5.22467-1.53756-1.54381-3.42196-.93073zm-.6248-1.9204q3.01264-.98015 5.37406.89291 2.36952 1.85714 3.84559 6.39409 1.47217 4.52495.65292 7.43282-.81115 2.89195-3.82379 3.8721-3.01263.98014-5.38215-.877-2.36142-1.87305-3.83359-6.39801-1.47607-4.53695-.66492-7.42891.81925-2.90786 3.83188-3.888zm-6.22371-19.12963q-1.87239.60917-2.21923 2.76605-.33874 2.14097.86398 5.83775 1.19883 3.68478 2.73639 5.22858 1.54566 1.5279 3.41805.91873 1.8844-.61308 2.22314-2.75406.34683-2.15688-.85199-5.84165-1.20272-3.69679-2.74838-5.22468-1.53756-1.5438-3.42196-.93072zm-.62479-1.92041q3.01263-.98014 5.37405.89291 2.36952 1.85714 3.84559 6.3941 1.47217 4.52495.65292 7.43281-.81115 2.89196-3.82379 3.8721-3.01263.98014-5.38215-.877-2.36142-1.87305-3.83359-6.398-1.47607-4.53696-.66492-7.42891.81925-2.90786 3.83189-3.88801zm-67.6038-199.90209q-1.86142.19414-3.21631-.6658-1.36689-.85605-1.92921-2.58441-.86299-2.65256.48889-4.69841 1.35189-2.04587 4.71259-3.13926 1.12824-.36706 2.40269-.5295 1.25854-.17055 2.67529-.14038l.76147 2.34049q-1.19955-.26011-2.49743-.16967-1.29788.0904-2.60616.51607-2.28048.74194-3.17585 2.02872-.90738 1.29068-.34897 3.00704.51545 1.58434 1.92065 2.10936 1.3971.54093 3.37752-.10338l2.08845-.67947.64822 1.99242-2.18446.71071q-1.78838.58184-2.50618 1.59848-.71391 1.02864-.27656 2.37292.44907 1.38029 1.67148 1.79224 1.21431.42786 3.03869-.16569.99621-.32411 2.06616-.91113t2.28985-1.48827l.70289 2.16045q-1.25532.83315-2.3931 1.41568-1.14977.58644-2.218.93398-2.76058.89814-4.77894.16114-2.01445-.725-2.70953-2.86145-.48422-1.48831.0321-2.79778.52026-1.29746 1.96373-2.2051zm-9.38197-36.32326q1.8724-.60917 2.21923-2.76605.33874-2.14097-.86398-5.83775-1.19882-3.68478-2.73638-5.22858-1.54566-1.5279-3.41806-.91873-1.88439.61308-2.22313 2.75406-.34684 2.15688.85198 5.84165 1.20273 3.69679 2.74838 5.22468 1.53756 1.5438 3.42196.93072zm.6248 1.92041q-3.01264.98014-5.37406-.89291-2.36952-1.85714-3.84559-6.3941-1.47217-4.52495-.65292-7.43281.81115-2.89196 3.82379-3.8721 3.01263-.98014 5.38215.877 2.36142 1.87305 3.83359 6.398 1.47607 4.53696.66492 7.42891-.81925 2.90786-3.83188 3.88801zm6.22371 19.12963q1.87239-.60917 2.21923-2.76605.33874-2.14098-.86398-5.83776-1.19882-3.68477-2.73639-5.22857-1.54566-1.5279-3.41805-.91873-1.8844.61308-2.22313 2.75406-.34684 2.15688.85198 5.84165 1.20272 3.69678 2.74838 5.22468 1.53756 1.5438 3.42196.93072zm.62479 1.9204q-3.01263.98015-5.37405-.8929-2.36952-1.85715-3.84559-6.3941-1.47217-4.52495-.65292-7.43282.81115-2.89195 3.82379-3.8721 3.01263-.98014 5.38215.877 2.36142 1.87306 3.83359 6.39801 1.47607 4.53695.66492 7.42891-.81925 2.90786-3.83189 3.888zm108.08453 203.4502q1.71062-.75919 3.26478-.35942 1.56438.39235 2.6327 1.86277 1.63957 2.25668.98515 4.61991-.65442 2.36324-3.51356 4.44053-.95986.69738-2.12194 1.24525-1.14446.55067-2.50135.95925l-1.44668-1.99119q1.22127-.12283 2.42787-.60944 1.20659-.48661 2.31961-1.29527 1.94014-1.40959 2.39463-2.9099.46471-1.50773-.59619-2.96794-.9793-1.34788-2.47794-1.41355-1.49585-.0833-3.18071 1.14081l-1.77675 1.29089-1.23154-1.69507 1.85845-1.35024q1.52147-1.10541 1.89044-2.29397.36156-1.19877-.46936-2.34243-.85317-1.17429-2.14304-1.18882-1.28708-.0322-2.83919 1.0955-.84753.61577-1.68406 1.50436-.83653.88861-1.71869 2.12238l-1.3354-1.83802q.93689-1.17993 1.8393-2.0852.91264-.91269 1.82144-1.57297 2.34858-1.70635 4.49587-1.6283 2.13987.0678 3.46043 1.88544.91995 1.26619.83298 2.6711-.0944 1.39469-1.18725 2.70354zm7.02002 13.6026q-1.59295 1.15734-1.25713 3.31597.33862 2.14099 2.62364 5.28605 2.2776 3.13485 4.21658 4.1287 1.94179.97623 3.53474-.18111 1.60316-1.16477 1.26455-3.30577-.33583-2.15862-2.61343-5.29347-2.28502-3.14506-4.2268-4.12129-1.93898-.99385-3.54215.17092zm-1.18702-1.6338q2.56302-1.86214 5.38726-.8094 2.82704 1.03511 5.63138 4.89496 2.79693 3.84963 2.91519 6.86838.12106 3.00112-2.44196 4.86327-2.56302 1.86214-5.39006.82703-2.82424-1.05275-5.62116-4.90238-2.80434-3.85985-2.92541-6.86097-.11826-3.01875 2.44476-4.88089zM194.37679 162.16407l-8.09751 5.88319-1.26122-1.73592 6.20843-4.51069-2.71531-3.7373q-.338.47959-.73537.8775-.38994.40812-.83924.73455-2.55281 1.85473-5.06003 1.53894-2.50723-.31577-4.24325-2.7052-1.78796-2.46091-1.25041-4.94205.54497-2.47093 3.33264-4.49629.95986-.69737 2.07926-1.26104 1.10919-.55626 2.40856-1.00106l1.50604 2.07288q-1.28254.16735-2.44087.6345-1.15833.46714-2.25093 1.26096-1.76654 1.28347-2.12276 2.962-.35621 1.67852.80114 3.27148 1.15734 1.59295 2.8638 1.77287 1.70645.17991 3.47299-1.10356.82712-.60093 1.52069-1.38566.68336-.77732 1.25918-1.78853zm-18.59087-16.56928q1.59296-1.15735 1.25713-3.31597-.33861-2.14099-2.62363-5.28605-2.2776-3.13485-4.21659-4.1287-1.94178-.97624-3.53473.18111-1.60317 1.16477-1.26454 3.30576.33582 2.15863 2.61342 5.29347 2.28502 3.14507 4.2268 4.12129 1.93898.99386 3.54214-.17091zm1.18703 1.6338q-2.56302 1.86214-5.38727.8094-2.82703-1.03511-5.63137-4.89496-2.79693-3.84963-2.9152-6.86838-.12105-3.00112 2.44197-4.86327 2.56301-1.86214 5.39005-.82703 2.82425 1.05274 5.62117 4.90238 2.80434 3.85984 2.9254 6.86097.11827 3.01875-2.44475 4.88089zm166.77406 179.07592 5.88319-8.09751 1.73591 1.26122-4.51069 6.20843 3.73731 2.71531q.17326-.56057.42822-1.0618.24474-.50864.57117-.95794 1.85473-2.55281 4.33682-3.02725 2.4821-.47446 4.87153 1.26156 2.4609 1.78795 2.71638 4.31377.24526 2.5184-1.7801 5.30607-.69738.95985-1.58781 1.84185-.88301.87179-1.98133 1.69635l-2.07289-1.50604q1.16805-.55548 2.12534-1.35771.95728-.80222 1.7511-1.89482 1.28347-1.76655 1.10356-3.473-.17992-1.70645-1.77287-2.8638-1.59295-1.15734-3.27148-.80113-1.67854.35622-2.962 2.12276-.60094.82711-1.01806 1.78776-.40972.95044-.64487 2.0901zm22.6582 9.90957q-1.15735 1.59295-.17091 3.54215.98364 1.93156 4.12871 4.21659 3.13484 2.2776 5.28605 2.62363 2.14841.32841 3.30576-1.26455 1.16477-1.60316.18112-3.53473-.98644-1.9492-4.12129-4.2268-3.14506-2.28502-5.29347-2.61342-2.1512-.34604-3.31597 1.25713zm-1.6338-1.18703q1.86214-2.56301 4.87348-2.43454 3.00853.11085 6.86838 2.9152 3.84963 2.79692 4.89496 5.63137 1.04253 2.81683-.81961 5.37985-1.86214 2.56301-4.87068 2.45217-3.01134-.12848-6.86097-2.9254-3.85985-2.80434-4.90238-5.62117-1.04532-2.83446.81682-5.39748zM162.51838 190.10979l-4.35472-11.12058-3.78363 5.20772zm2.19038.76454-1.8844 2.59365-9.93554-7.21858-1.58022 2.17499-1.71549-1.24638 1.58023-2.17499-3.59436-2.61145 1.4912-2.05246 3.59436 2.61145 5.00033-6.88237 1.99119 1.44668zm-19.11396-15.08842q1.15735-1.59295.17091-3.54215-.98364-1.93156-4.12871-4.21658-3.13484-2.2776-5.28605-2.62364-2.14841-.3284-3.30576 1.26455-1.16477 1.60316-.18112 3.53473.98644 1.9492 4.12129 4.2268 3.14506 2.28502 5.29347 2.61342 2.1512.34604 3.31597-1.25713zm1.6338 1.18703q-1.86215 2.56302-4.87348 2.43454-3.00854-.11085-6.86838-2.91519-3.84964-2.79692-4.89496-5.63138-1.04253-2.81682.81961-5.37984 1.86215-2.56302 4.87068-2.45218 3.01134.12848 6.86097 2.92541 3.85985 2.80434 4.90238 5.62116 1.04532 2.83446-.81682 5.39748zm-6.12231 118.50605q.19158 1.86168-.67023 3.21539-.85793 1.36572-2.58707 1.92565-2.65374.85934-4.69773-.49536-2.044-1.3547-3.13276-4.71691-.36551-1.12875-.5262-2.40341-.16881-1.25878-.13669-2.67549l2.34154-.75824q-.26177 1.1992-.17311 2.4972.0886 1.29799.51247 2.60686.7388 2.2815 2.02435 3.17864 1.28944.90917 3.00656.35312 1.58505-.51327 2.11201-1.91775.54285-1.39635-.0987-3.37766l-.67658-2.08937 1.9933-.64548.7077 2.18544q.57937 1.78918 1.59503 2.50837 1.02766.71532 2.37254.27982 1.38091-.44717 1.79454-1.66901.42953-1.21372-.16151-3.03892-.32274-.99665-.90828-2.06741-.58555-1.07076-1.48512-2.2919l2.16142-.69991q.83142 1.25647 1.41238 2.39504.58486 1.15059.93093 2.21929.89434 2.76182.15456 4.77916-.72777 2.01345-2.86518 2.70559-1.48898.48216-2.79774-.036-1.29674-.52204-2.20239-1.96676zm-14.82046-3.20747 3.08352 9.52226-2.04135.66104-2.36416-7.3008-4.39488 1.42316q.35121.47001.60635.97115.26715.49723.43824 1.02559.97211 3.00197-.10527 5.28783-1.07737 2.28587-3.88721 3.19576-2.8939.93711-5.08623-.34302-2.18031-1.28403-3.24185-4.56218-.36551-1.12875-.55445-2.36773-.18505-1.22698-.20519-2.60023l2.4376-.78936q-.23843 1.27125-.15333 2.51733.0851 1.24608.50116 2.53092.6727 2.07737 2.15815 2.93632 1.48544.85895 3.35868.25235 1.87322-.60659 2.57322-2.17323.69998-1.56665.0273-3.64401-.31496-.97264-.84606-1.87529-.52721-.89064-1.31014-1.75154zM364.30528 219.043l11.55339 3.02495-1.98309-6.12402zm-1.9073 1.32077-.98766-3.05 11.68368-3.78344-.82823-2.55767 2.01732-.65326.82824 2.55768 4.22678-1.36873.78157 2.4136-4.22678 1.36872 2.6208 8.09332-2.34154.75824zm23.28012-6.51705q.60659 1.87324 2.76299 2.22304 2.1405.34169 5.83894-.85595 3.68642-1.19374 5.23234-2.72918 1.53002-1.54354.92343-3.41678-.61048-1.88524-2.75099-2.22692-2.1564-.34981-5.84282.84394-3.69844 1.19763-5.22846 2.74118-1.54592 1.53543-.93543 3.42067zm-1.92127.62215q-.97599-3.01398.90031-5.37282 1.8604-2.36696 6.39939-3.83678 4.52697-1.46594 7.4337-.64268 2.89084.81514 3.86683 3.82911.976 3.01398-.88441 5.38094-1.8763 2.35884-6.40327 3.82478-4.53898 1.46982-7.42982.65469-2.90673-.82326-3.88273-3.83724z" font-family="sans-serif" font-size="40" style="line-height:1.25;-inkscape-font-specification:sans-serif;text-align:center" text-anchor="middle"/><path fill="#000" d="M266.68945 261.44736a12 12 0 0 1-2.20507 3.03711 12 12 0 0 1-3.04493 2.18945l3.64063 7.14648a20 20 0 0 0 8.74023-8.74023zm-21.36328-.008-7.14648 3.64063a20 20 0 0 0 8.74023 8.74023l3.64063-7.14648a12 12 0 0 1-3.04493-2.18945 12 12 0 0 1-2.18945-3.04493zm19.75391-23.25976-3.64063 7.14648a12 12 0 0 1 3.04493 2.18945 12 12 0 0 1 2.20507 3.03711l7.13086-3.63281a20 20 0 0 0-8.74023-8.74023zm-18.16016 0a20 20 0 0 0-8.74023 8.74023l7.14648 3.64063a12 12 0 0 1 2.18945-3.04493 12 12 0 0 1 3.04493-2.18945z" paint-order="markers fill stroke"/><path fill="#000" d="M252.56641 252.42285q-1.28907 0-2.05079.96094-.75585.96094-.75585 2.61914 0 1.65234.75585 2.61328.76172.96094 2.05079.96094 1.28906 0 2.03906-.96094.75586-.96094.75586-2.61328 0-1.6582-.75586-2.61914-.75-.96094-2.03906-.96094zm0-.96094q1.83984 0 2.9414 1.23633 1.10156 1.23047 1.10156 3.30469 0 2.06836-1.10156 3.30469-1.10156 1.23047-2.9414 1.23047-1.84571 0-2.95313-1.23047-1.10156-1.23047-1.10156-3.30469t1.10156-3.30469q1.10742-1.23633 2.95313-1.23633zm5.89453.15821h5.02734v.99609h-3.84375v2.57813h3.46875v.99609h-3.46875v4.17773h-1.18359z" aria-label="OF" font-size="12" style="line-height:1;-inkscape-font-specification:sans-serif;text-align:center" text-anchor="middle"/><path stroke="#000" stroke-linecap="round" stroke-width="4" d="M276 256a20 20 0 0 1-20 20 20 20 0 0 1-20-20 20 20 0 0 1 20-20 20 20 0 0 1 20 20z" paint-order="markers fill stroke"/><path stroke="#000" stroke-linecap="round" stroke-width="4" d="M268 256a12.000001 11.999998 0 0 1-12 12 12.000001 11.999998 0 0 1-12-12 12.000001 11.999998 0 0 1 12-12 12.000001 11.999998 0 0 1 12 12z" paint-order="markers fill stroke"/><path fill="#000" d="M-93.385315 312.57501h1.792969l2.759765 11.0918 2.750977-11.0918h1.995117l2.759766 11.0918 2.750976-11.0918h1.801758l-3.295898 13.12207h-2.232422l-2.768555-11.39062-2.794922 11.39062h-2.232422z" aria-label="W" font-size="18" style="line-height:1;-inkscape-font-specification:sans-serif;text-align:center" text-anchor="middle" transform="rotate(-58.415)"/><path fill="#000" d="M106.65638 305.10376h1.77539v5.37891h6.45117v-5.37891h1.77539v13.12207h-1.77539v-6.24902h-6.45117v6.24902h-1.77539z" aria-label="H" font-size="18" style="line-height:1;-inkscape-font-specification:sans-serif;text-align:center" text-anchor="middle" transform="rotate(-27.19)"/><path fill="#000" d="M352.3541 23.660217h8.29687v1.494141h-6.52148v3.884766h6.24902v1.49414h-6.24902v4.754883h6.67968v1.494141h-8.45507z" aria-label="E" font-size="18" style="line-height:1;-inkscape-font-specification:sans-serif;text-align:center" text-anchor="middle" transform="rotate(34.753)"/><path fill="#000" d="M268.41623 198.7778h8.29687v1.49414h-6.52148v3.88477h6.24902v1.49414h-6.24902v4.75488h6.67969v1.49414h-8.45508z" aria-label="E" font-size="18" style="line-height:1;-inkscape-font-specification:sans-serif;text-align:center" text-anchor="middle" transform="rotate(3.772)"/><path fill="#000" d="M346.59866-141.43425h1.77539v11.62793h6.38965v1.49414h-8.16504z" aria-label="L" font-size="18" style="line-height:1;-inkscape-font-specification:sans-serif;text-align:center" text-anchor="middle" transform="rotate(61.028)"/><path fill="#000" d="M322.98575-127.51636h7.54101v1.49414h-5.76562v3.86719h5.20312v1.49414h-5.20312v6.2666h-1.77539z" aria-label="F" font-size="18" style="line-height:1;-inkscape-font-specification:sans-serif;text-align:center" text-anchor="middle" transform="rotate(70.335)"/><path fill="#000" d="M361.64752 17.043472q-1.93359 0-3.07617 1.441407-1.13379 1.441406-1.13379 3.92871 0 2.478516 1.13379 3.919922 1.14258 1.441407 3.07617 1.441407 1.9336 0 3.0586-1.441407 1.13378-1.441406 1.13378-3.919922 0-2.487304-1.13378-3.92871-1.125-1.441407-3.0586-1.441407zm0-1.441406q2.75977 0 4.41211 1.854492 1.65235 1.845703 1.65235 4.957031 0 3.10254-1.65235 4.957032-1.65234 1.845703-4.41211 1.845703-2.76855 0-4.42969-1.845703-1.65234-1.845703-1.65234-4.957032 0-3.111328 1.65234-4.957031 1.66114-1.854492 4.42969-1.854492z" aria-label="O" font-size="18" style="line-height:1;-inkscape-font-specification:sans-serif;text-align:center" text-anchor="middle" transform="rotate(46.769)"/><path fill="#000" d="M354.19189 131.81064q.57129.19336 1.10743.82617.54492.63281 1.08984 1.74023l1.80176 3.58594h-1.90723l-1.67871-3.36621q-.65039-1.31836-1.26562-1.74902-.60645-.43067-1.66114-.43067h-1.93359v5.5459h-1.77539v-13.12207h4.00781q2.25 0 3.35742.94043 1.10742.94043 1.10742 2.83887 0 1.23926-.58007 2.05664-.57129.81738-1.66993 1.13379zm-4.44726-5.51074v4.6582h2.23242q1.2832 0 1.93359-.58887.65918-.59765.65918-1.74902t-.65918-1.73145q-.65039-.58886-1.93359-.58886z" aria-label="R" font-size="18" style="line-height:1;-inkscape-font-specification:sans-serif;text-align:center" text-anchor="middle" transform="rotate(29.286)"/><path fill="#000" d="M250.7851 284.2981h11.10058v1.49414h-4.6582v11.62793h-1.78418v-11.62793h-4.6582z" aria-label="T" font-size="18" style="line-height:1;-inkscape-font-specification:sans-serif;text-align:center" text-anchor="middle"/><path fill="#000" d="M110.13207 371.90125h1.78418v7.97167q0 2.10938.76465 3.04102.76465.92285 2.47852.92285 1.70507 0 2.46972-.92285.76465-.93164.76465-3.04102v-7.97167h1.78418v8.1914q0 2.56641-1.27441 3.87598-1.26563 1.30957-3.74414 1.30957-2.48731 0-3.76172-1.30957-1.26563-1.30957-1.26563-3.87598z" aria-label="U" font-size="18" style="line-height:1;-inkscape-font-specification:sans-serif;text-align:center" text-anchor="middle" transform="rotate(-26.504)"/><path fill="#000" d="M-5.7689852-403.67709h2.390625l5.8183594 10.97754v-10.97754h1.7226563v13.12207h-2.390625l-5.8183594-10.97754v10.97754h-1.7226563z" aria-label="N" font-size="18" style="line-height:1;-inkscape-font-specification:sans-serif;text-align:center" text-anchor="middle" transform="rotate(134.68)"/><path fill="#000" d="M-213.79056 326.84622h8.29688v1.49414h-6.52149v3.88477h6.24903v1.49414h-6.24903v4.75488h6.67969v1.49414h-8.45508z" aria-label="E" font-size="18" style="line-height:1;-inkscape-font-specification:sans-serif;text-align:center" text-anchor="middle" transform="rotate(-79.534)"/><path fill="#000" d="m256 406-6.92773 16c-1.94166 3.36217-1.18894 7.63311 1.78515 10.12891 2.97415 2.49584 7.31101 2.49584 10.28516 0 2.97409-2.4958 3.72681-6.76674 1.78515-10.12891z" paint-order="markers fill stroke"/><path stroke="#000" stroke-width="2" d="m58.485265 66.970574 8.485281-8.485282m-5.656854 11.313709 8.485281-8.485282m-5.656854 11.313709 8.485281-8.485281"/><path stroke="#000" stroke-width="2.00001" d="m84.35013 95.663832-8.48528 8.485278m3.181979-13.788579-8.48528 8.48528m1.237434-10.076268 14.142136 14.142137M68.970557 91.597969 83.112693 105.7401m11.136931-19.975762-8.48528 8.48528m3.181979-13.78858-8.48528 8.485279m1.237433-10.076268 14.142136 14.142137M78.87005 81.698475l14.142137 14.142136m11.136933-19.975766-8.485283 8.48528m3.181979-13.788581-8.48528 8.48528m1.237434-10.076268 14.14214 14.142136m-16.970566-11.31371 14.142136 14.142136"/><path fill="#000" d="M65.103485 395.81448v2.3086q-1.347656-.64453-2.542969-.96094-1.195312-.31641-2.308593-.31641-1.933594 0-2.988282.75-1.042968.75-1.042968 2.13282 0 1.16015.691406 1.75781.703125.58594 2.648437.94922l1.429688.29297q2.648437.5039 3.902344 1.78125 1.265625 1.26562 1.265625 3.39843 0 2.54297-1.710938 3.85547-1.699219 1.3125-4.992187 1.3125-1.242188 0-2.648438-.28125-1.394531-.28125-2.894531-.83203v-2.4375q1.441406.80859 2.824219 1.21875 1.382812.41016 2.71875.41016 2.027343 0 3.128906-.79688 1.101562-.79687 1.101562-2.27344 0-1.28906-.796875-2.01562-.785156-.72656-2.589843-1.08984l-1.441407-.28125q-2.648437-.52735-3.832031-1.65235-1.183594-1.125-1.183594-3.1289 0-2.32032 1.628907-3.65625 1.640625-1.33594 4.511718-1.33594 1.230469 0 2.507813.22265 1.277344.22266 2.613281.66797z" aria-label="S" font-size="24" style="line-height:1;-inkscape-font-specification:sans-serif;text-align:center" text-anchor="middle"/><path fill="#000" d="m62.664032 456.74808-6.679688-17.4961h2.472657l5.542968 14.73047 5.554688-14.73047h2.460937l-6.667968 17.4961z" aria-label="V" font-size="24" style="line-height:1;-inkscape-font-specification:sans-serif;text-align:center" text-anchor="middle"/><path fill="#000" d="M99.996063 443.25198h3.527347l4.46484 11.90625 4.48828-11.90625h3.52735v17.4961h-2.3086V445.3848l-4.51172 12h-2.3789l-4.51172-12v15.36328h-2.296877z" aria-label="M" font-size="24" style="line-height:1;-inkscape-font-specification:sans-serif;text-align:center" text-anchor="middle"/><path fill="#000" d="M446.4137 443.26843a7.1999998 7.1999998 0 0 1-1.32304 1.82226 7.1999998 7.1999998 0 0 1-1.82696 1.31367l2.18438 4.28789a12 12 0 0 0 5.24414-5.24414zm-12.81797-.0048-4.28789 2.18437a12 12 0 0 0 5.24414 5.24414l2.18438-4.28789a7.1999998 7.1999998 0 0 1-1.82696-1.31367 7.1999998 7.1999998 0 0 1-1.31367-1.82695zm11.85235-13.95586-2.18438 4.28789a7.1999998 7.1999998 0 0 1 1.82696 1.31367 7.1999998 7.1999998 0 0 1 1.32304 1.82226l4.27852-2.17968a12 12 0 0 0-5.24414-5.24414zm-10.8961 0a12 12 0 0 0-5.24414 5.24414l4.28789 2.18438a7.1999998 7.1999998 0 0 1 1.31367-1.82696 7.1999998 7.1999998 0 0 1 1.82696-1.31367z" paint-order="markers fill stroke"/><path fill="#000" d="M437.93986 437.85372q-.77344 0-1.23047.57657-.45351.57656-.45351 1.57148 0 .99141.45351 1.56797.45703.57656 1.23047.57656.77344 0 1.22344-.57656.45351-.57656.45351-1.56797 0-.99492-.45351-1.57148-.45-.57657-1.22344-.57657zm0-.57656q1.10391 0 1.76485.7418.66093.73828.66093 1.98281 0 1.24102-.66093 1.98281-.66094.73828-1.76485.73828-1.10742 0-1.77187-.73828-.66094-.73828-.66094-1.98281t.66094-1.98281q.66445-.7418 1.77187-.7418zm3.53672.09492h3.01641v.59766h-2.30625v1.54687h2.08125v.59766h-2.08125v2.50664h-.71016z" aria-label="OF" font-size="7.2" style="line-height:1;-inkscape-font-specification:sans-serif;text-align:center" text-anchor="middle"/><path stroke="#000" stroke-linecap="round" stroke-width="4" d="M452.00003 440.00001a12 12 0 0 1-12 12 12 12 0 0 1-12-12 12 12 0 0 1 12-12 12 12 0 0 1 12 12z" paint-order="markers fill stroke"/><path stroke="#000" stroke-linecap="round" stroke-width="4" d="M447.20003 440.00001a7.2000004 7.1999986 0 0 1-7.2 7.2 7.2000004 7.1999986 0 0 1-7.2-7.2 7.2000004 7.1999986 0 0 1 7.2-7.2 7.2000004 7.1999986 0 0 1 7.2 7.2z" paint-order="markers fill stroke"/><path fill="#000" d="M-148.02928 573.27117h1.07578l1.65586 6.65508 1.65058-6.65508h1.19707l1.65586 6.65508 1.65059-6.65508h1.08105l-1.97754 7.87324h-1.33945l-1.66113-6.83438-1.67696 6.83438h-1.33945z" aria-label="W" font-size="10.8" style="line-height:1;-inkscape-font-specification:sans-serif;text-align:center" text-anchor="middle" transform="rotate(-58.415 8.3662577 -2.36626953)"/><path fill="#000" d="M185.2841 560.60301h1.06523v3.22735h3.8707v-3.22735h1.06524v7.87325h-1.06524v-3.74942h-3.8707v3.74942h-1.06523z" aria-label="H" font-size="10.8" style="line-height:1;-inkscape-font-specification:sans-serif;text-align:center" text-anchor="middle" transform="rotate(-27.19 15.40542925 -9.40547628)"/><path fill="#000" d="M601.63334 84.736728h4.97812v.896484h-3.91289v2.33086h3.74942v.896484h-3.74942v2.85293h4.00781v.896484h-5.07304z" aria-label="E" font-size="10.8" style="line-height:1;-inkscape-font-specification:sans-serif;text-align:center" text-anchor="middle" transform="rotate(34.753 -6.58670177 12.5867647)"/><path fill="#000" d="M459.28971 380.61174h4.97812v.89649h-3.91289v2.33086h3.74942v.89648h-3.74942v2.85293h4.00782v.89649h-5.07305z" aria-label="E" font-size="10.8" style="line-height:1;-inkscape-font-specification:sans-serif;text-align:center" text-anchor="middle" transform="rotate(3.772 -88.1007608 94.1012313)"/><path fill="#000" d="M589.09034-194.34753h1.06524v6.97676h3.83379v.89648h-4.89903z" aria-label="L" font-size="10.8" style="line-height:1;-inkscape-font-specification:sans-serif;text-align:center" text-anchor="middle" transform="rotate(61.028 -2.09016091 8.09020136)"/><path fill="#000" d="M552.19805-246.19491h4.52461v.89648h-3.45938v2.32031h3.12188v.89649h-3.12188v3.75996h-1.06523z" aria-label="F" font-size="10.8" style="line-height:1;-inkscape-font-specification:sans-serif;text-align:center" text-anchor="middle" transform="rotate(70.335 -1.25789042 7.25792671)"/><path fill="#000" d="M613.345-2.0152843q-1.16016 0-1.84571.8648438-.68027.86484375-.68027 2.3572266 0 1.4871094.68027 2.3519532.68555.8648437 1.84571.8648437 1.16015 0 1.83515-.8648437.68027-.8648438.68027-2.3519532 0-1.49238285-.68027-2.3572266-.675-.8648438-1.83515-.8648438zm0-.8648437q1.65585 0 2.64726 1.1126953.99141 1.10742188.99141 2.9742188 0 1.8615235-.99141 2.9742188-.99141 1.1074219-2.64726 1.1074219-1.66114 0-2.65782-1.1074219-.9914-1.1074219-.9914-2.9742188 0-1.86679692.9914-2.9742188.99668-1.1126953 2.65782-1.1126953z" aria-label="O" font-size="10.8" style="line-height:1;-inkscape-font-specification:sans-serif;text-align:center" text-anchor="middle" transform="rotate(46.769 -3.93772416 9.93777385)"/><path fill="#000" d="M594.24011 186.48448q.34278.11602.66446.4957.32695.37969.6539 1.04415l1.08106 2.15156h-1.14434l-1.00723-2.01973q-.39023-.79101-.75937-1.04941-.36387-.2584-.99668-.2584h-1.16016v3.32754h-1.06523v-7.87324h2.40469q1.35 0 2.01445.56425.66445.56426.66445 1.70332 0 .74356-.34804 1.23399-.34278.49043-1.00196.68027zm-2.66836-3.30644v2.79492h1.33946q.76992 0 1.16015-.35332.39551-.3586.39551-1.04942t-.39551-1.03886q-.39023-.35332-1.16015-.35332z" aria-label="R" font-size="10.8" style="line-height:1;-inkscape-font-specification:sans-serif;text-align:center" text-anchor="middle" transform="rotate(29.286 -8.4817948 14.4818672)"/><path fill="#000" d="M430.87106 450.97887h6.66035v.89648h-2.79492v6.97676h-1.07051v-6.97676h-2.79492z" aria-label="T" font-size="10.8" style="line-height:1;-inkscape-font-specification:sans-serif;text-align:center" text-anchor="middle" transform="translate(6.00003 6)"/><path fill="#000" d="M191.87863 599.20305h1.0705v4.78301q0 1.26562.45879 1.82461.45879.55371 1.48711.55371 1.02305 0 1.48184-.55371.45879-.55899.45879-1.82461v-4.78301h1.0705v4.91485q0 1.53984-.76464 2.32558-.75938.78574-2.24649.78574-1.49238 0-2.25703-.78574-.75937-.78574-.75937-2.32558z" aria-label="U" font-size="10.8" style="line-height:1;-inkscape-font-specification:sans-serif;text-align:center" text-anchor="middle" transform="rotate(-26.504 15.73855988 -9.73860858)"/><path fill="#000" d="M-1.2492279-638.74556H.18514709l3.49101571 6.58653v-6.58653h1.0335937v7.87325h-1.434375l-3.49101567-6.58653v6.58653H-1.2492279Z" aria-label="N" font-size="10.8" style="line-height:1;-inkscape-font-specification:sans-serif;text-align:center" text-anchor="middle" transform="rotate(134.68 1.74755935 4.25246191)"/><path fill="#000" d="M-353.07394 522.778h4.97813v.89649h-3.91289v2.33086h3.74941v.89648h-3.74941v2.85293h4.00781v.89649h-5.07305z" aria-label="E" font-size="10.8" style="line-height:1;-inkscape-font-specification:sans-serif;text-align:center" text-anchor="middle" transform="rotate(-79.534 6.60494835 -.60495138)"/><path stroke="#000" stroke-linecap="round" stroke-width="4" d="M470.00003 440a29.999998 29.999998 0 0 1-30 30 29.999998 29.999998 0 0 1-30-30 29.999998 29.999998 0 0 1 30-30 29.999998 29.999998 0 0 1 30 30z" paint-order="markers fill stroke"/></svg>