<svg xmlns="http://www.w3.org/2000/svg" fill="none" viewBox="0 0 512 512"><path stroke="#000" stroke-width="4" d="M18 18h476v476H18Z"/><path stroke="#000" stroke-width="4" d="M470 64a22 22 0 0 1-22 22 22 22 0 0 1-22-22 22 22 0 0 1 22-22 22 22 0 0 1 22 22z"/><path stroke="#000" stroke-linecap="round" stroke-width="4" d="M466 256a210 210 0 0 1-210 210A210 210 0 0 1 46 256 210 210 0 0 1 256 46a210 210 0 0 1 210 210Z" paint-order="markers fill stroke"/><path stroke="#000" stroke-width="4" d="m300.55 278.7 99.8 50.85m-288.7-147.1 99.8 50.85m21.85 67.25-50.85 99.8m147.1-288.7-50.85 99.8m0 89.1 50.85 99.8m-147.1-288.7 50.85 99.8m-21.85 67.25-99.8 50.85m288.7-147.1-99.8 50.85m4.83 14.88 110.63-17.52M95.99 281.34l110.63-17.52m57.2 41.56 17.52 110.63M230.66 95.99l17.52 110.63m57.2 57.2 110.63 17.52M95.99 230.66l110.63 17.52m41.56 57.2-17.52 110.63m50.68-320.02-17.52 110.63m27.54 84.74 79.2 79.2M141.44 141.44l79.2 79.2m0 70.7-79.2 79.2m229.1-229.1-79.2 79.2M418 256a162 162 0 0 1-162 162A162 162 0 0 1 94 256 162 162 0 0 1 256 94a162 162 0 0 1 162 162Zm-112 0a50 50 0 0 1-50 50 50 50 0 0 1-50-50 50 50 0 0 1 50-50 50 50 0 0 1 50 50z"/><path fill="#000" d="M262 448a6 6 0 0 1-6 6 6 6 0 0 1-6-6 6 6 0 0 1 6-6 6 6 0 0 1 6 6zm0-370a6 6 0 0 1-6 6 6 6 0 0 1-6-6 6 6 0 0 1 6-6 6 6 0 0 1 6 6zm178 178a6 6 0 0 1-6 6 6 6 0 0 1-6-6 6 6 0 0 1 6-6 6 6 0 0 1 6 6zm-356 0a6 6 0 0 1-6 6 6 6 0 0 1-6-6 6 6 0 0 1 6-6 6 6 0 0 1 6 6zm50.38 130.1a6 6 0 0 1-8.49 0 6 6 0 0 1 0-8.48 6 6 0 0 1 8.49 0 6 6 0 0 1 0 8.49zM386.1 134.39a6 6 0 0 1-8.49 0 6 6 0 0 1 0-8.49 6 6 0 0 1 8.49 0 6 6 0 0 1 0 8.49zm0 251.73a6 6 0 0 1-8.49 0 6 6 0 0 1 0-8.49 6 6 0 0 1 8.49 0 6 6 0 0 1 0 8.49zM134.38 134.38a6 6 0 0 1-8.49 0 6 6 0 0 1 0-8.49 6 6 0 0 1 8.49 0 6 6 0 0 1 0 8.49zm37.82 278.77a6 6 0 0 1-8.2 2.2 6 6 0 0 1-2.2-8.2 6 6 0 0 1 8.2-2.2 6 6 0 0 1 2.2 8.2zm178-308.3a6 6 0 0 1-8.2 2.2 6 6 0 0 1-2.2-8.2 6 6 0 0 1 8.2-2.2 6 6 0 0 1 2.2 8.2zM415.35 348a6 6 0 0 1-8.2 2.2 6 6 0 0 1-2.2-8.2 6 6 0 0 1 8.2-2.2 6 6 0 0 1 2.2 8.2zm-308.3-178a6 6 0 0 1-8.2 2.2 6 6 0 0 1-2.2-8.2 6 6 0 0 1 8.2-2.2 6 6 0 0 1 2.2 8.2zM85.61 307.87a6 6 0 0 1-7.35-4.25 6 6 0 0 1 4.24-7.35 6 6 0 0 1 7.35 4.25 6 6 0 0 1-4.24 7.35zm343.87-92.14a6 6 0 0 1-7.35-4.25 6 6 0 0 1 4.24-7.35 6 6 0 0 1 7.35 4.25 6 6 0 0 1-4.24 7.35zm-125.87 218a6 6 0 0 1-7.35-4.24 6 6 0 0 1 4.25-7.35 6 6 0 0 1 7.35 4.24 6 6 0 0 1-4.25 7.35zM211.48 89.86a6 6 0 0 1-7.35-4.24 6 6 0 0 1 4.25-7.35 6 6 0 0 1 7.35 4.24 6 6 0 0 1-4.25 7.35zm138.72 317.3a6 6 0 0 1-2.2 8.19 6 6 0 0 1-8.2-2.2 6 6 0 0 1 2.2-8.2 6 6 0 0 1 8.2 2.2zm-178-308.31a6 6 0 0 1-2.2 8.2 6 6 0 0 1-8.2-2.2 6 6 0 0 1 2.2-8.2 6 6 0 0 1 8.2 2.2zM415.35 164a6 6 0 0 1-2.2 8.2 6 6 0 0 1-8.2-2.2 6 6 0 0 1 2.2-8.2 6 6 0 0 1 8.2 2.2zm-308.3 178a6 6 0 0 1-2.2 8.2 6 6 0 0 1-8.2-2.2 6 6 0 0 1 2.2-8.2 6 6 0 0 1 8.2 2.2zm108.68 87.49a6 6 0 0 1-7.35 4.24 6 6 0 0 1-4.25-7.35 6 6 0 0 1 7.35-4.24 6 6 0 0 1 4.25 7.35zm92.14-343.87a6 6 0 0 1-7.35 4.24 6 6 0 0 1-4.25-7.35 6 6 0 0 1 7.35-4.24 6 6 0 0 1 4.25 7.35zm125.86 218a6 6 0 0 1-7.35 4.25 6 6 0 0 1-4.24-7.35 6 6 0 0 1 7.35-4.25 6 6 0 0 1 4.24 7.35zM89.86 211.48a6 6 0 0 1-7.35 4.25 6 6 0 0 1-4.24-7.35 6 6 0 0 1 7.35-4.25 6 6 0 0 1 4.24 7.35zm148.86 221.78a6 6 0 0 1-6.74 5.17 6 6 0 0 1-5.16-6.74 6 6 0 0 1 6.73-5.16 6 6 0 0 1 5.17 6.73zm46.46-352.95a6 6 0 0 1-6.73 5.16 6 6 0 0 1-5.17-6.73 6 6 0 0 1 6.74-5.17 6 6 0 0 1 5.16 6.74zM438.43 280a6 6 0 0 1-6.74 5.17 6 6 0 0 1-5.16-6.73 6 6 0 0 1 6.73-5.16 6 6 0 0 1 5.17 6.73zM85.47 233.56a6 6 0 0 1-6.73 5.17 6 6 0 0 1-5.17-6.74 6 6 0 0 1 6.74-5.16 6 6 0 0 1 5.16 6.73zm32.97 135.57a6 6 0 0 1-8.42-1.1 6 6 0 0 1 1.11-8.42 6 6 0 0 1 8.41 1.1 6 6 0 0 1-1.1 8.42zM400.87 152.4a6 6 0 0 1-8.41-1.1 6 6 0 0 1 1.1-8.42 6 6 0 0 1 8.42 1.1 6 6 0 0 1-1.11 8.42zM368 401.98a6 6 0 0 1-8.41-1.11 6 6 0 0 1 1.1-8.41 6 6 0 0 1 8.42 1.1 6 6 0 0 1-1.1 8.42zM151.3 119.54a6 6 0 0 1-8.41-1.1 6 6 0 0 1 1.1-8.42 6 6 0 0 1 8.42 1.11 6 6 0 0 1-1.1 8.41zm1.11 281.33a6 6 0 0 1-8.41 1.1 6 6 0 0 1-1.11-8.4 6 6 0 0 1 8.41-1.11 6 6 0 0 1 1.11 8.4zm216.72-282.43a6 6 0 0 1-8.41 1.1 6 6 0 0 1-1.11-8.4 6 6 0 0 1 8.41-1.12 6 6 0 0 1 1.11 8.42zM401.98 368a6 6 0 0 1-8.42 1.11 6 6 0 0 1-1.1-8.41 6 6 0 0 1 8.4-1.11 6 6 0 0 1 1.12 8.41zM119.54 151.3a6 6 0 0 1-8.4 1.11 6 6 0 0 1-1.12-8.41 6 6 0 0 1 8.42-1.11 6 6 0 0 1 1.1 8.41zM80.31 285.2a6 6 0 0 1-6.74-5.17 6 6 0 0 1 5.17-6.74 6 6 0 0 1 6.73 5.17 6 6 0 0 1-5.16 6.73zm352.95-46.48a6 6 0 0 1-6.73-5.16 6 6 0 0 1 5.16-6.73 6 6 0 0 1 6.74 5.16 6 6 0 0 1-5.17 6.73zM280.02 438.43a6 6 0 0 1-6.74-5.17 6 6 0 0 1 5.17-6.73 6 6 0 0 1 6.73 5.16 6 6 0 0 1-5.16 6.74zM233.55 85.47a6 6 0 0 1-6.73-5.16 6 6 0 0 1 5.16-6.74 6 6 0 0 1 6.73 5.17 6 6 0 0 1-5.16 6.73zm96.11 332.68a6 6 0 0 1-3.25 7.84 6 6 0 0 1-7.84-3.24 6 6 0 0 1 3.25-7.84 6 6 0 0 1 7.84 3.24zM193.43 89.25a6 6 0 0 1-3.25 7.84 6 6 0 0 1-7.84-3.24 6 6 0 0 1 3.25-7.84 6 6 0 0 1 7.84 3.24zm232.56 96.34a6 6 0 0 1-3.24 7.84 6 6 0 0 1-7.84-3.25 6 6 0 0 1 3.24-7.84 6 6 0 0 1 7.84 3.25zM97.1 321.82a6 6 0 0 1-3.24 7.84 6 6 0 0 1-7.84-3.25 6 6 0 0 1 3.24-7.84 6 6 0 0 1 7.84 3.25zm96.34 100.93a6 6 0 0 1-7.84 3.24 6 6 0 0 1-3.25-7.84 6 6 0 0 1 7.84-3.24 6 6 0 0 1 3.25 7.84zm136.23-328.9a6 6 0 0 1-7.84 3.24 6 6 0 0 1-3.25-7.84 6 6 0 0 1 7.84-3.24 6 6 0 0 1 3.25 7.84zM426 326.4a6 6 0 0 1-7.84 3.25 6 6 0 0 1-3.24-7.84 6 6 0 0 1 7.84-3.25 6 6 0 0 1 3.24 7.84zM97.1 190.18a6 6 0 0 1-7.84 3.25 6 6 0 0 1-3.24-7.84 6 6 0 0 1 7.84-3.25 6 6 0 0 1 3.24 7.84z" paint-order="markers fill stroke"/><path stroke="#000" stroke-linecap="round" stroke-width="4" d="M82 448a18 18 0 0 1-18 18 18 18 0 0 1-18-18 18 18 0 0 1 18-18 18 18 0 0 1 18 18zm-4-44a18 18 0 0 1-18 18 18 18 0 0 1-18-18 18 18 0 0 1 18-18 18 18 0 0 1 18 18zm48 48a18 18 0 0 1-18 18 18 18 0 0 1-18-18 18 18 0 0 1 18-18 18 18 0 0 1 18 18zM54.83 97.25l42.42-42.42 22.63 22.63-42.42 42.42zM52.83 66.97l14.14-14.14 11.31 11.31-14.14 14.14Z" paint-order="markers fill stroke"/><path fill="#000" d="m333.88 152.12-7.23-5.18 1.25-1.74 9.73 6.96-1.25 1.75q-2.06.38-5.56.97-3.52.6-4.47.82-1.8.41-2.74.9-.95.5-1.49 1.24-.87 1.23-.56 2.61.3 1.38 1.67 2.37.98.7 2.3 1.13 1.33.44 3.05.63l-1.5 2.1q-1.6-.4-2.88-.92-1.27-.52-2.17-1.17-2.39-1.7-2.95-3.9-.56-2.21.86-4.2.68-.95 1.65-1.54.95-.6 2.7-1.08l2.87-.55 6.72-1.2zm4.9-2.75-8.13-5.83 1.25-1.74 6.24 4.46 2.69-3.75q-.56-.17-1.07-.42-.5-.24-.96-.57-2.56-1.83-3.06-4.31-.49-2.48 1.23-4.88 1.77-2.48 4.3-2.75 2.51-.26 5.31 1.74.97.7 1.86 1.58.87.87 1.7 1.97l-1.48 2.08q-.57-1.16-1.38-2.12-.8-.95-1.9-1.73-1.78-1.27-3.48-1.08-1.71.19-2.86 1.8-1.14 1.6-.77 3.27.36 1.67 2.14 2.94.83.6 1.8 1.01.95.4 2.09.63zM185.72 343.7l9.86 7.06-.64.88-15.9 10.46-2.16-1.55 14.95-9.83-7.36-5.27zm-9.13 23.17q-1.6-1.14-3.54-.14-1.93 1-4.19 4.15-2.26 3.15-2.59 5.3-.31 2.16 1.3 3.3 1.6 1.16 3.53.16 1.94-1 4.2-4.15 2.26-3.16 2.57-5.31.33-2.16-1.28-3.3zm1.18-1.64q2.57 1.84 2.46 4.86-.08 3-2.86 6.88-2.77 3.87-5.6 4.94-2.8 1.06-5.38-.78-2.58-1.85-2.49-4.86.1-3 2.88-6.88 2.77-3.88 5.58-4.94 2.83-1.06 5.4.78zm-13.88-40.85-11.93.7 3.78 5.21zm1.4-1.84 1.88 2.6-9.94 7.2 1.58 2.18-1.72 1.25-1.57-2.18-3.6 2.6-1.5-2.05 3.6-2.6-4.99-6.9 2-1.44zm-21.6 7.92 5.88 8.1-1.74 1.26-4.5-6.21-3.75 2.7q.48.35.88.74.4.4.73.84 1.86 2.56 1.54 5.07-.32 2.5-2.71 4.24-2.46 1.78-4.94 1.24-2.47-.54-4.5-3.33-.7-.96-1.26-2.08-.55-1.11-1-2.41l2.08-1.5q.17 1.28.63 2.43.47 1.16 1.26 2.26 1.28 1.76 2.96 2.12 1.68.36 3.27-.8 1.6-1.15 1.78-2.86.18-1.7-1.1-3.47-.6-.83-1.39-1.53-.77-.68-1.78-1.26zm221.28-147.11-1.88 1.36q-.2-1.04-.58-1.98-.38-.94-.94-1.7-1.48-2.05-3.63-2.13-2.16-.08-5.07 1.8 1.3-.05 2.44.52 1.13.57 1.93 1.67 1.66 2.3 1.25 4.63-.43 2.34-2.83 4.08-2.35 1.7-4.78 1.34-2.43-.36-4.1-2.67-1.92-2.64-.9-5.5 1.01-2.87 4.87-5.68 3.61-2.61 7.01-2.46 3.39.15 5.48 3.04.57.78 1 1.69.42.9.73 1.99zm-9.45.58q-1-1.39-2.54-1.5-1.54-.14-3.2 1.06-1.64 1.2-2 2.7-.37 1.5.63 2.9 1.01 1.39 2.56 1.5 1.54.13 3.18-1.07 1.66-1.2 2.03-2.7.35-1.5-.66-2.89zm10.69-8.01q1.15 1.6 3.31 1.26 2.14-.34 5.29-2.62 3.14-2.28 4.13-4.21.98-1.94-.18-3.54t-3.3-1.27q-2.16.34-5.3 2.61-3.14 2.29-4.12 4.23-1 1.93.17 3.54zm-1.64 1.18q-1.86-2.56-.8-5.38 1.04-2.83 4.9-5.63 3.85-2.8 6.87-2.91 3-.12 4.86 2.45 1.86 2.56.82 5.39-1.05 2.82-4.9 5.61-3.87 2.8-6.87 2.92-3.02.12-4.88-2.45zM256.22 377.08q-1.72 0-2.73 1.17-1 1.18-1 3.22 0 2.03 1 3.22 1.01 1.17 2.73 1.17t2.71-1.17q1.01-1.19 1.01-3.22 0-2.04-1-3.22-1-1.17-2.72-1.17zm5.06-7.99v2.32q-.96-.45-1.94-.7-.97-.23-1.93-.23-2.53 0-3.86 1.7t-1.52 5.15q.75-1.1 1.87-1.68 1.12-.59 2.47-.59 2.84 0 4.48 1.73 1.66 1.72 1.66 4.68 0 2.9-1.72 4.66-1.72 1.75-4.57 1.75-3.27 0-5-2.5t-1.73-7.27q0-4.46 2.12-7.11 2.12-2.67 5.7-2.67.96 0 1.93.2.98.18 2.04.56zm-5.28 23.4q-1.97 0-2.97 1.94-.98 1.93-.98 5.82 0 3.88.98 5.82 1 1.93 2.97 1.93 1.98 0 2.97-1.93 1-1.94 1-5.82 0-3.89-1-5.82-.99-1.94-2.97-1.94zm0-2.02q3.17 0 4.83 2.51 1.68 2.5 1.68 7.27 0 4.76-1.68 7.27-1.66 2.5-4.83 2.5t-4.85-2.5q-1.66-2.51-1.66-7.27 0-4.77 1.66-7.27 1.68-2.51 4.85-2.51zm5.29-265.58v2.33q-.96-.46-1.95-.7-.98-.24-1.93-.24-2.52 0-3.85 1.7t-1.52 5.16q.73-1.09 1.85-1.67 1.13-.58 2.49-.58 2.83 0 4.48 1.7 1.64 1.72 1.64 4.69 0 2.9-1.72 4.65-1.71 1.76-4.57 1.76-3.26 0-4.98-2.51-1.73-2.5-1.73-7.27 0-4.46 2.12-7.12 2.1-2.65 5.68-2.65.96 0 1.94.19.99.18 2.05.56zm-5.08 8q-1.71 0-2.7 1.17-1.02 1.17-1.02 3.22 0 2.03 1.01 3.2 1 1.19 2.71 1.19t2.73-1.19q1-1.17 1-3.2 0-2.05-1-3.22-1-1.18-2.73-1.18zm-.21-13.36q1.97 0 2.97-1.94.98-1.93.98-5.82 0-3.88-.98-5.82-1-1.93-2.97-1.93-1.98 0-2.97 1.93-1 1.94-1 5.82 0 3.89 1 5.82.99 1.94 2.97 1.94zm0 2.02q-3.17 0-4.83-2.51-1.68-2.5-1.68-7.27 0-4.76 1.68-7.27 1.66-2.5 4.83-2.5t4.85 2.5q1.66 2.51 1.66 7.27 0 4.77-1.66 7.27-1.68 2.51-4.85 2.51zm35.3 18.34q-1.62-.94-2.21-2.43-.6-1.5-.04-3.23.86-2.65 3.16-3.51 2.3-.86 5.65.23 1.13.37 2.26.99 1.12.6 2.24 1.46l-.76 2.34q-.81-.92-1.92-1.6-1.1-.7-2.4-1.12-2.29-.74-3.77-.23-1.5.5-2.05 2.23-.51 1.58.31 2.83.82 1.26 2.8 1.9l2.08.68-.64 2-2.19-.71q-1.79-.59-2.96-.19-1.19.42-1.62 1.76-.45 1.38.3 2.43.72 1.06 2.55 1.66 1 .32 2.2.48 1.22.15 2.73.14l-.7 2.16q-1.5-.07-2.77-.26-1.27-.2-2.34-.55-2.76-.9-3.96-2.68-1.2-1.77-.5-3.91.48-1.49 1.66-2.24 1.19-.75 2.89-.63zm6.88-13.68q1.87.61 3.42-.93 1.53-1.53 2.73-5.23 1.2-3.68.86-5.84-.35-2.14-2.22-2.75-1.88-.61-3.42.92-1.55 1.54-2.74 5.22-1.2 3.7-.85 5.85.33 2.15 2.22 2.76zm-.63 1.92q-3.01-.98-3.82-3.88-.82-2.9.65-7.43 1.47-4.53 3.84-6.4 2.36-1.86 5.37-.88 3.02.98 3.84 3.87.81 2.9-.66 7.43-1.47 4.54-3.83 6.4-2.37 1.87-5.39.9zm-76.85 244q1.62.94 2.21 2.43.6 1.5.04 3.23-.86 2.65-3.16 3.51-2.3.86-5.65-.23-1.13-.37-2.26-.99-1.12-.6-2.24-1.46l.76-2.34q.81.92 1.92 1.6 1.1.7 2.4 1.12 2.29.74 3.77.23 1.5-.51 2.05-2.23.51-1.58-.31-2.83-.82-1.26-2.8-1.9l-2.08-.68.64-2 2.19.71q1.79.58 2.96.18 1.19-.4 1.62-1.75.45-1.38-.3-2.43-.72-1.06-2.55-1.66-1-.32-2.2-.48-1.22-.15-2.73-.14l.7-2.16q1.5.07 2.77.26 1.27.2 2.34.55 2.76.9 3.96 2.68 1.2 1.77.5 3.91-.48 1.49-1.66 2.24-1.19.75-2.89.63zm-6.88 13.68q-1.87-.61-3.42.93-1.53 1.53-2.73 5.23-1.2 3.68-.86 5.84.35 2.14 2.22 2.75 1.88.61 3.42-.92 1.55-1.54 2.74-5.23 1.2-3.7.85-5.84-.33-2.15-2.22-2.76zm.63-1.92q3.01.98 3.82 3.88.82 2.9-.65 7.43-1.47 4.53-3.84 6.4-2.36 1.86-5.37.88-3.02-.98-3.84-3.87-.81-2.9.66-7.43 1.47-4.54 3.83-6.4 2.37-1.87 5.39-.9zm157.12-90.62q-.53 1.63.27 2.96.81 1.3 2.75 1.94 1.94.63 3.37.05 1.43-.6 1.97-2.22.53-1.64-.28-2.95-.81-1.33-2.74-1.96-1.95-.63-3.38-.04-1.42.59-1.96 2.22zm-6.02-7.3 2.2.73q-.72.77-1.25 1.63-.53.85-.83 1.76-.79 2.4.42 4.2 1.2 1.8 4.42 3.04-.8-1.05-1.01-2.3-.22-1.25.2-2.53.88-2.7 3.04-3.72 2.14-1.04 4.96-.12 2.76.9 3.9 3.08 1.13 2.17.25 4.88-1.02 3.11-3.93 3.98-2.93.86-7.45-.61-4.25-1.4-6.1-4.23-1.88-2.84-.77-6.24.3-.9.78-1.77.48-.88 1.17-1.77zm20.6 12.3q-.6 1.86.93 3.42 1.53 1.53 5.23 2.74 3.68 1.2 5.83.87 2.15-.35 2.76-2.22.61-1.89-.92-3.42-1.53-1.55-5.22-2.76-3.7-1.2-5.84-.85-2.15.33-2.77 2.21zm-1.92-.63q.99-3.02 3.9-3.82 2.89-.82 7.42.66 4.53 1.48 6.4 3.85 1.85 2.36.87 5.37-.98 3.02-3.88 3.84-2.9.8-7.43-.68-4.53-1.48-6.4-3.84-1.86-2.37-.88-5.38zm-250.02-84.71-2.76 8.45-2.04-.66 3.72-11.38 2.04.67 2.6 5q1.63 3.18 2.12 4.02.93 1.6 1.68 2.34.76.77 1.64 1.05 1.43.47 2.66-.25 1.22-.7 1.75-2.3.37-1.15.39-2.55.01-1.39-.32-3.09l2.45.8q.1 1.66 0 3.03-.12 1.37-.47 2.42-.9 2.79-2.84 3.99-1.93 1.2-4.26.44-1.1-.36-1.96-1.1-.85-.74-1.84-2.27-.25-.41-1.4-2.56l-3.16-6.05zm-4.27-3.9-3.1 9.5-2.05-.66 2.39-7.3-4.4-1.43q.01.59-.08 1.14-.07.56-.24 1.09-.98 3-3.2 4.21-2.22 1.22-5.02.3-2.9-.94-3.91-3.27-1.01-2.32.06-5.6.37-1.12.94-2.23.57-1.1 1.36-2.23l2.44.8q-.94.89-1.6 1.94-.67 1.06-1.09 2.35-.68 2.07.02 3.64.7 1.57 2.57 2.18 1.87.61 3.36-.24 1.49-.86 2.16-2.94.32-.97.42-2.01.1-1.03-.03-2.19zm238.45 52.46-.08-10 2.15-.02.06 7.67 4.62-.03q-.2-.56-.3-1.11-.1-.56-.1-1.11-.02-3.16 1.7-5.01 1.7-1.86 4.66-1.88 3.04-.02 4.75 1.86 1.69 1.88 1.72 5.32 0 1.19-.19 2.43-.2 1.22-.58 2.54l-2.57.02q.61-1.14.9-2.36.3-1.21.3-2.56-.03-2.18-1.18-3.45-1.16-1.27-3.13-1.25-1.97.01-3.1 1.3-1.15 1.28-1.13 3.46 0 1.02.24 2.05.24 1 .72 2.06zm22.13-.16-.07-10.01 2.14-.02.06 7.67 4.62-.03q-.2-.55-.29-1.1-.1-.56-.1-1.12-.03-3.15 1.69-5.01 1.71-1.86 4.67-1.88 3.04-.02 4.74 1.86 1.7 1.88 1.72 5.33.01 1.18-.18 2.42-.2 1.23-.59 2.54l-2.56.02q.6-1.14.9-2.35.3-1.22.29-2.57-.02-2.18-1.18-3.45-1.16-1.26-3.12-1.25-1.97.02-3.11 1.3t-1.13 3.47q.01 1.02.25 2.04.23 1 .72 2.06zm-256.9-5.45q0-1.82-.99-2.86-.98-1.03-2.68-1.01-1.7 0-2.67 1.05-.96 1.06-.95 2.87.02 1.82 1 2.86.99 1.04 2.68 1.03 1.7-.01 2.67-1.07.96-1.04.95-2.87zm1.07-2.56q.4-1.64 1.51-2.57 1.12-.92 2.73-.93 2.26-.02 3.59 1.58 1.32 1.6 1.34 4.4.02 2.82-1.28 4.43-1.3 1.61-3.56 1.63-1.61.01-2.74-.9-1.13-.9-1.55-2.53-.41 1.85-1.66 2.88-1.24 1.05-3.04 1.06-2.74.02-4.22-1.65-1.47-1.65-1.5-4.77-.02-3.12 1.43-4.8 1.45-1.69 4.2-1.7 1.8-.02 3.05 1 1.26 1.03 1.7 2.87zm4.02-.96q-1.46 0-2.27.92-.82.93-.8 2.58 0 1.65.83 2.56.83.93 2.3.92 1.46-.01 2.27-.95.82-.93.8-2.57 0-1.66-.84-2.57-.82-.9-2.29-.9zm-19.18 3.62q-.01-1.96-1.96-2.95-1.94-.97-5.83-.94-3.88.03-5.81 1.03-1.93 1.01-1.91 2.98.01 1.98 1.95 2.95 1.95.98 5.83.96 3.89-.03 5.81-1.04 1.94-1 1.92-2.99zm2.02-.01q.02 3.17-2.47 4.85-2.5 1.7-7.26 1.73-4.76.04-7.28-1.62-2.52-1.65-2.54-4.81-.02-3.17 2.46-4.87 2.5-1.68 7.26-1.72 4.77-.04 7.28 1.61 2.53 1.66 2.55 4.83zm157.18 87.23 9.52-3.1.66 2.04-7.3 2.38 1.44 4.39q.47-.35.97-.6.5-.28 1.02-.45 3-.98 5.29.1 2.29 1.07 3.2 3.88.94 2.9-.34 5.09-1.28 2.18-4.55 3.25-1.13.36-2.37.55-1.23.2-2.6.21l-.8-2.43q1.28.23 2.52.15 1.25-.09 2.53-.5 2.08-.68 2.94-2.17.85-1.49.25-3.36-.61-1.87-2.18-2.57-1.57-.7-3.64-.02-.98.31-1.88.85-.89.53-1.75 1.3zm19.37 42.38q-1.88.6-2.22 2.76-.34 2.14.86 5.84 1.2 3.69 2.74 5.23 1.54 1.53 3.41.92 1.89-.61 2.23-2.76.34-2.15-.85-5.84-1.2-3.7-2.75-5.22-1.54-1.55-3.42-.93zm-.63-1.92q3.01-.98 5.37.89 2.37 1.86 3.85 6.4 1.47 4.52.65 7.43-.8 2.89-3.82 3.87-3.01.98-5.38-.88-2.36-1.87-3.84-6.4-1.47-4.53-.66-7.42.82-2.91 3.83-3.9zm-6.22-19.13q-1.88.6-2.22 2.76-.34 2.14.86 5.84 1.2 3.69 2.74 5.23 1.54 1.53 3.42.92t2.22-2.76q.35-2.15-.85-5.84-1.2-3.7-2.75-5.22-1.54-1.55-3.42-.93zm-.63-1.92q3.01-.98 5.38.89 2.37 1.86 3.84 6.4 1.47 4.52.65 7.43-.8 2.89-3.82 3.87-3.01.98-5.38-.88-2.36-1.87-3.83-6.4-1.48-4.53-.67-7.42.82-2.91 3.83-3.9zm-67.6-199.9q-1.86.19-3.22-.67-1.36-.86-1.93-2.58-.86-2.66.5-4.7 1.34-2.05 4.7-3.14 1.13-.37 2.4-.53 1.27-.17 2.68-.14l.76 2.34q-1.2-.26-2.5-.17t-2.6.51q-2.28.75-3.18 2.03-.9 1.3-.34 3.01.51 1.58 1.92 2.1 1.4.55 3.37-.1l2.1-.67.64 1.99-2.18.71q-1.8.58-2.51 1.6-.71 1.03-.28 2.37.45 1.38 1.67 1.8 1.22.42 3.04-.17 1-.33 2.07-.91t2.29-1.5l.7 2.17q-1.25.83-2.4 1.41-1.14.6-2.2.94-2.77.9-4.79.16-2.01-.73-2.7-2.86-.5-1.49.02-2.8.52-1.3 1.97-2.2zm-9.38-36.33q1.87-.6 2.22-2.76.33-2.15-.87-5.84t-2.73-5.23q-1.55-1.53-3.42-.92-1.89.61-2.23 2.75-.34 2.16.86 5.85 1.2 3.7 2.74 5.22 1.54 1.55 3.43.93zm.62 1.92q-3.01.98-5.37-.9-2.37-1.85-3.85-6.38-1.47-4.53-.65-7.44.81-2.89 3.82-3.87t5.38.88q2.37 1.87 3.84 6.4 1.47 4.53.66 7.42-.82 2.91-3.83 3.9zm6.22 19.13q1.88-.6 2.22-2.76.34-2.15-.86-5.84t-2.74-5.23q-1.54-1.53-3.41-.92-1.89.61-2.23 2.75-.34 2.16.85 5.85 1.2 3.7 2.75 5.22 1.54 1.55 3.42.93zm.63 1.92q-3.01.98-5.37-.89-2.37-1.86-3.85-6.4-1.47-4.52-.65-7.43.8-2.89 3.82-3.87 3.01-.98 5.38.88 2.36 1.87 3.84 6.4 1.47 4.53.66 7.42-.82 2.91-3.83 3.9zM329.19 352.8q1.71-.76 3.27-.36t2.63 1.87q1.64 2.25.99 4.62-.66 2.36-3.52 4.44-.96.7-2.12 1.24-1.14.55-2.5.96l-1.45-1.99q1.22-.12 2.43-.61 1.2-.49 2.32-1.3 1.94-1.4 2.4-2.9.46-1.51-.6-2.97-.98-1.35-2.48-1.42-1.5-.08-3.18 1.14l-1.78 1.3-1.23-1.7 1.86-1.35q1.52-1.1 1.9-2.3.35-1.2-.48-2.34-.85-1.17-2.14-1.19-1.29-.03-2.84 1.1-.85.62-1.68 1.5-.84.9-1.72 2.13l-1.34-1.84q.94-1.18 1.84-2.09.91-.9 1.82-1.57 2.35-1.7 4.5-1.63 2.14.07 3.46 1.89.92 1.26.83 2.67-.1 1.4-1.19 2.7zm7.02 13.6q-1.59 1.16-1.25 3.32.34 2.14 2.62 5.29 2.28 3.13 4.22 4.13 1.94.97 3.53-.19 1.6-1.16 1.27-3.3-.34-2.16-2.62-5.3-2.28-3.14-4.22-4.12-1.94-.99-3.55.18zm-1.18-1.63q2.56-1.86 5.38-.8 2.83 1.03 5.64 4.89 2.8 3.85 2.91 6.87.12 3-2.44 4.86-2.56 1.86-5.4.83-2.82-1.06-5.61-4.9-2.8-3.87-2.93-6.87-.12-3.02 2.45-4.88zm-140.65-202.6-8.1 5.88-1.26-1.74 6.2-4.5-2.7-3.75q-.35.48-.74.88-.4.4-.84.74-2.56 1.85-5.06 1.53-2.51-.31-4.25-2.7-1.78-2.46-1.25-4.94.55-2.47 3.34-4.5.96-.7 2.07-1.26 1.11-.56 2.41-1l1.5 2.07q-1.27.17-2.43.64-1.16.46-2.25 1.26-1.77 1.28-2.13 2.96-.35 1.68.8 3.27 1.16 1.6 2.87 1.77 1.7.18 3.47-1.1.83-.6 1.52-1.39.69-.77 1.26-1.78zm-18.6-16.58q1.6-1.15 1.26-3.31-.34-2.14-2.62-5.29-2.28-3.13-4.22-4.13-1.94-.97-3.53.19-1.6 1.16-1.27 3.3.34 2.16 2.62 5.3 2.28 3.14 4.22 4.12 1.94.99 3.55-.18zm1.2 1.64q-2.57 1.86-5.4.8-2.82-1.03-5.63-4.89-2.8-3.85-2.91-6.87-.12-3 2.44-4.86 2.56-1.86 5.4-.83 2.82 1.06 5.61 4.9 2.8 3.87 2.93 6.87.12 3.02-2.45 4.88zM343.74 326.3l5.88-8.1 1.74 1.27-4.51 6.2 3.73 2.72q.18-.56.43-1.06t.57-.96q1.86-2.55 4.34-3.03 2.48-.47 4.87 1.27 2.46 1.78 2.72 4.31.24 2.52-1.78 5.3-.7.97-1.6 1.85-.87.87-1.97 1.7l-2.08-1.51q1.17-.56 2.13-1.36t1.75-1.9q1.28-1.76 1.1-3.47-.18-1.7-1.77-2.86-1.6-1.16-3.27-.8-1.68.35-2.96 2.12-.6.83-1.02 1.79-.4.95-.64 2.09zm22.66 9.91q-1.16 1.6-.18 3.55.99 1.93 4.13 4.21 3.14 2.28 5.29 2.63 2.15.32 3.3-1.27 1.17-1.6.19-3.53-.99-1.95-4.13-4.23-3.14-2.28-5.29-2.61-2.15-.35-3.31 1.25zm-1.64-1.18q1.86-2.57 4.87-2.44 3.01.11 6.87 2.92 3.85 2.8 4.9 5.63 1.04 2.82-.82 5.38-1.86 2.56-4.87 2.45-3.01-.13-6.86-2.92-3.86-2.8-4.9-5.63-1.05-2.83.81-5.4zM162.52 190.1l-4.36-11.12-3.78 5.2zm2.19.76-1.89 2.6-9.93-7.22-1.58 2.17-1.72-1.24 1.58-2.18-3.6-2.6 1.5-2.06 3.6 2.61 5-6.88 1.99 1.44zm-19.12-15.08q1.16-1.6.18-3.55-.99-1.93-4.13-4.21-3.14-2.28-5.29-2.63-2.15-.32-3.3 1.27-1.17 1.6-.19 3.53 1 1.95 4.13 4.23 3.14 2.28 5.29 2.61 2.15.35 3.31-1.25zm1.64 1.18q-1.86 2.57-4.87 2.44-3.01-.11-6.87-2.92-3.85-2.8-4.9-5.63-1.04-2.82.82-5.38 1.86-2.56 4.87-2.45 3.01.13 6.86 2.92 3.86 2.8 4.9 5.63 1.05 2.83-.81 5.4zm-6.12 118.5q.19 1.87-.67 3.22-.86 1.37-2.6 1.93-2.64.86-4.69-.5-2.04-1.35-3.13-4.71-.37-1.13-.53-2.4-.17-1.26-.13-2.68l2.34-.76q-.26 1.2-.18 2.5.1 1.3.52 2.6.74 2.29 2.02 3.18 1.29.91 3 .36 1.6-.52 2.12-1.92.54-1.4-.1-3.38l-.68-2.09 2-.64.7 2.18q.58 1.8 1.6 2.51 1.03.72 2.37.28 1.38-.45 1.8-1.67.43-1.21-.16-3.04-.33-1-.91-2.07-.59-1.07-1.49-2.29l2.16-.7q.84 1.26 1.42 2.4.58 1.15.93 2.22.9 2.76.15 4.78-.73 2.01-2.86 2.7-1.5.48-2.8-.03-1.3-.53-2.2-1.97zm-14.82-3.2 3.08 9.52-2.04.66-2.37-7.3-4.4 1.43q.36.47.62.97t.43 1.02q.98 3-.1 5.3-1.08 2.28-3.89 3.19-2.9.93-5.09-.35-2.18-1.28-3.24-4.56-.36-1.13-.55-2.37-.19-1.22-.2-2.6l2.43-.79q-.24 1.28-.15 2.52.08 1.25.5 2.53.67 2.08 2.16 2.94 1.48.86 3.36.25 1.87-.6 2.57-2.17.7-1.57.03-3.65-.32-.97-.85-1.87-.53-.9-1.31-1.75zm238.02-73.23 11.55 3.03-1.98-6.13zm-1.91 1.32-.99-3.05 11.68-3.78-.82-2.56 2.01-.65.83 2.56 4.23-1.37.78 2.41-4.23 1.37 2.62 8.1-2.34.75zm23.28-6.51q.6 1.87 2.76 2.22 2.14.34 5.84-.86 3.69-1.19 5.23-2.73 1.53-1.54.93-3.41-.61-1.89-2.76-2.23-2.15-.35-5.84.84-3.7 1.2-5.23 2.75-1.54 1.53-.93 3.42zm-1.92.62q-.98-3.02.9-5.37 1.86-2.37 6.4-3.84 4.52-1.47 7.43-.64 2.9.81 3.87 3.83.97 3.01-.89 5.38-1.87 2.36-6.4 3.82-4.54 1.47-7.43.66-2.9-.83-3.88-3.84z" style="line-height:1.25"/><path fill="#000" d="M266.69 261.45a12 12 0 0 1-2.2 3.03 12 12 0 0 1-3.05 2.2l3.64 7.14a20 20 0 0 0 8.74-8.74zm-21.36-.01-7.15 3.64a20 20 0 0 0 8.74 8.74l3.64-7.15a12 12 0 0 1-3.04-2.19 12 12 0 0 1-2.2-3.04zm19.75-23.26-3.64 7.15a12 12 0 0 1 3.04 2.19 12 12 0 0 1 2.2 3.03l7.14-3.63a20 20 0 0 0-8.74-8.74zm-18.16 0a20 20 0 0 0-8.74 8.74l7.15 3.64a12 12 0 0 1 2.19-3.04 12 12 0 0 1 3.04-2.2z" paint-order="markers fill stroke"/><path fill="#000" d="M252.57 252.42q-1.3 0-2.05.96-.76.96-.76 2.62 0 1.66.76 2.62.76.96 2.05.96 1.29 0 2.04-.96t.75-2.62q0-1.66-.75-2.62-.75-.96-2.04-.96zm0-.96q1.84 0 2.94 1.24 1.1 1.23 1.1 3.3t-1.1 3.3q-1.1 1.24-2.94 1.24-1.85 0-2.96-1.23-1.1-1.23-1.1-3.3t1.1-3.31q1.11-1.24 2.96-1.24zm5.9.16h5.02v1h-3.85v2.57h3.47v1h-3.47v4.18h-1.18z" aria-label="OF" style="line-height:1"/><path stroke="#000" stroke-linecap="round" stroke-width="4" d="M276 256a20 20 0 0 1-20 20 20 20 0 0 1-20-20 20 20 0 0 1 20-20 20 20 0 0 1 20 20z" paint-order="markers fill stroke"/><path stroke="#000" stroke-linecap="round" stroke-width="4" d="M268 256a12 12 0 0 1-12 12 12 12 0 0 1-12-12 12 12 0 0 1 12-12 12 12 0 0 1 12 12z" paint-order="markers fill stroke"/><path fill="#000" d="M-93.39 312.58h1.8l2.76 11.09 2.75-11.1h2l2.75 11.1 2.75-11.1h1.8l-3.29 13.13h-2.23l-2.77-11.4-2.8 11.4h-2.23z" aria-label="W" style="line-height:1" transform="rotate(-58.41)"/><path fill="#000" d="M106.66 305.1h1.77v5.38h6.45v-5.38h1.78v13.13h-1.78v-6.25h-6.45v6.25h-1.77z" aria-label="H" style="line-height:1" transform="rotate(-27.19)"/><path fill="#000" d="M352.35 23.66h8.3v1.5h-6.52v3.88h6.25v1.5h-6.25v4.75h6.68v1.5h-8.46z" aria-label="E" style="line-height:1" transform="rotate(34.75)"/><path fill="#000" d="M268.42 198.78h8.3v1.5h-6.53v3.88h6.25v1.5h-6.25v4.75h6.68v1.49h-8.45z" aria-label="E" style="line-height:1" transform="rotate(3.77)"/><path fill="#000" d="M346.6-141.43h1.77v11.62h6.4v1.5h-8.17z" aria-label="L" style="line-height:1" transform="rotate(61.03)"/><path fill="#000" d="M322.99-127.52h7.54v1.5h-5.77v3.86h5.2v1.5h-5.2v6.27H323z" aria-label="F" style="line-height:1" transform="rotate(70.33)"/><path fill="#000" d="M361.65 17.04q-1.94 0-3.08 1.44-1.13 1.45-1.13 3.93 0 2.48 1.13 3.92 1.14 1.44 3.08 1.44 1.93 0 3.06-1.44 1.13-1.44 1.13-3.92t-1.13-3.93q-1.13-1.44-3.06-1.44zm0-1.44q2.76 0 4.41 1.86 1.65 1.84 1.65 4.95 0 3.1-1.65 4.96-1.65 1.85-4.41 1.85-2.77 0-4.43-1.85-1.65-1.85-1.65-4.96 0-3.1 1.65-4.95 1.66-1.86 4.43-1.86z" aria-label="O" style="line-height:1" transform="rotate(46.77)"/><path fill="#000" d="M354.2 131.81q.56.2 1.1.83.54.63 1.09 1.74l1.8 3.58h-1.9l-1.69-3.36q-.65-1.32-1.26-1.75-.6-.43-1.66-.43h-1.94v5.54h-1.77v-13.12h4q2.26 0 3.36.94 1.11.94 1.11 2.84 0 1.24-.58 2.06-.57.81-1.67 1.13zm-4.46-5.51v4.66h2.24q1.28 0 1.93-.6.66-.59.66-1.74t-.66-1.73q-.65-.59-1.93-.59z" aria-label="R" style="line-height:1" transform="rotate(29.29)"/><path fill="#000" d="M250.79 284.3h11.1v1.5h-4.66v11.62h-1.79v-11.63h-4.65z" aria-label="T" style="line-height:1"/><path fill="#000" d="M110.13 371.9h1.79v7.97q0 2.11.76 3.04.77.93 2.48.93 1.7 0 2.47-.93.76-.93.76-3.04v-7.97h1.79v8.2q0 2.56-1.28 3.87-1.26 1.3-3.74 1.3-2.49 0-3.76-1.3-1.27-1.31-1.27-3.88z" aria-label="U" style="line-height:1" transform="rotate(-26.5)"/><path fill="#000" d="M-5.77-403.68h2.4l5.81 10.98v-10.98h1.72v13.12H1.77l-5.82-10.97v10.97h-1.72z" aria-label="N" style="line-height:1" transform="rotate(134.68)"/><path fill="#000" d="M-213.8 326.85h8.3v1.49h-6.52v3.89h6.25v1.49h-6.25v4.75h6.68v1.5h-8.45z" aria-label="E" style="line-height:1" transform="rotate(-79.53)"/><path fill="#000" d="m256 406-6.93 16a8 8 0 1 0 13.86 0z" paint-order="markers fill stroke"/><path stroke="#000" stroke-width="2" d="m58.49 66.97 8.48-8.48m-5.66 11.3 8.49-8.48m-5.66 11.32 8.49-8.49M84.35 95.66l-8.49 8.49m3.19-13.79-8.49 8.49m1.24-10.08 14.14 14.14M68.97 91.6l14.14 14.14m11.14-19.98-8.49 8.49m3.19-13.79-8.49 8.49m1.24-10.08 14.14 14.14M78.87 81.7l14.14 14.14m11.14-19.98-8.49 8.49m3.19-13.79-8.49 8.49m1.24-10.08 14.14 14.14M88.77 71.8l14.14 14.14"/><path fill="#000" d="M65.1 395.81v2.31q-1.34-.64-2.54-.96-1.2-.31-2.3-.31-1.94 0-3 .75-1.04.75-1.04 2.13 0 1.16.7 1.76.7.58 2.64.95l1.43.29q2.65.5 3.9 1.78 1.27 1.27 1.27 3.4 0 2.54-1.71 3.85-1.7 1.32-5 1.32-1.24 0-2.64-.29-1.4-.28-2.9-.83v-2.43q1.44.8 2.83 1.21 1.38.41 2.72.41 2.02 0 3.12-.8 1.1-.79 1.1-2.27 0-1.29-.8-2.01-.78-.73-2.58-1.1l-1.44-.27q-2.65-.53-3.83-1.66-1.19-1.12-1.19-3.12 0-2.32 1.63-3.66 1.64-1.34 4.51-1.34 1.23 0 2.51.23 1.28.22 2.61.66z" aria-label="S" style="line-height:1"/><path fill="#000" d="m62.66 456.75-6.68-17.5h2.48L64 453.98l5.55-14.73h2.47l-6.67 17.5z" aria-label="V" style="line-height:1"/><path fill="#000" d="M100 443.25h3.52l4.47 11.9 4.49-11.9H116v17.5h-2.3v-15.37l-4.52 12h-2.38l-4.5-12v15.37H100z" aria-label="M" style="line-height:1"/><path fill="#000" d="M446.41 443.27a7.2 7.2 0 0 1-1.32 1.82 7.2 7.2 0 0 1-1.83 1.31l2.19 4.3a12 12 0 0 0 5.24-5.25zm-12.81 0-4.3 2.18a12 12 0 0 0 5.25 5.24l2.19-4.29a7.2 7.2 0 0 1-1.83-1.3 7.2 7.2 0 0 1-1.31-1.84zm11.85-13.96-2.19 4.29a7.2 7.2 0 0 1 1.83 1.3 7.2 7.2 0 0 1 1.32 1.83l4.28-2.18a12 12 0 0 0-5.24-5.24zm-10.9 0a12 12 0 0 0-5.24 5.24l4.29 2.19a7.2 7.2 0 0 1 1.3-1.83 7.2 7.2 0 0 1 1.84-1.31z" paint-order="markers fill stroke"/><path fill="#000" d="M437.94 437.85q-.77 0-1.23.58-.45.58-.45 1.57 0 1 .45 1.57.46.58 1.23.58t1.22-.58q.46-.58.46-1.57 0-1-.46-1.57-.45-.58-1.22-.58zm0-.57q1.1 0 1.76.74.67.74.67 1.98t-.67 1.98q-.66.74-1.76.74t-1.77-.74q-.66-.73-.66-1.98t.66-1.98q.66-.74 1.77-.74zm3.54.1h3.01v.59h-2.3v1.55h2.08v.6h-2.08v2.5h-.71z" aria-label="OF" style="line-height:1"/><path stroke="#000" stroke-linecap="round" stroke-width="4" d="M452 440a12 12 0 0 1-12 12 12 12 0 0 1-12-12 12 12 0 0 1 12-12 12 12 0 0 1 12 12z" paint-order="markers fill stroke"/><path stroke="#000" stroke-linecap="round" stroke-width="4" d="M447.2 440a7.2 7.2 0 0 1-7.2 7.2 7.2 7.2 0 0 1-7.2-7.2 7.2 7.2 0 0 1 7.2-7.2 7.2 7.2 0 0 1 7.2 7.2z" paint-order="markers fill stroke"/><path fill="#000" d="M-148.03 573.27h1.08l1.65 6.66 1.65-6.66h1.2l1.66 6.66 1.65-6.66h1.08l-1.98 7.87h-1.34l-1.66-6.83-1.68 6.83h-1.34z" aria-label="W" style="line-height:1" transform="rotate(-58.41 8.37 -2.37)"/><path fill="#000" d="M185.28 560.6h1.07v3.23h3.87v-3.23h1.07v7.88h-1.07v-3.75h-3.87v3.75h-1.07z" aria-label="H" style="line-height:1" transform="rotate(-27.19 15.4 -9.4)"/><path fill="#000" d="M601.63 84.74h4.98v.9h-3.91v2.32h3.75v.9h-3.75v2.85h4v.9h-5.07z" aria-label="E" style="line-height:1" transform="rotate(34.75 -6.59 12.59)"/><path fill="#000" d="M459.29 380.61h4.98v.9h-3.92v2.33h3.75v.9h-3.75v2.85h4.01v.9h-5.07z" aria-label="E" style="line-height:1" transform="rotate(3.77 -88.1 94.1)"/><path fill="#000" d="M589.09-194.35h1.07v6.98h3.83v.9h-4.9z" aria-label="L" style="line-height:1" transform="rotate(61.03 -2.09 8.09)"/><path fill="#000" d="M552.2-246.2h4.52v.9h-3.46v2.32h3.13v.9h-3.13v3.76h-1.06z" aria-label="F" style="line-height:1" transform="rotate(70.33 -1.26 7.26)"/><path fill="#000" d="M613.35-2.02q-1.17 0-1.85.87-.68.86-.68 2.36 0 1.48.68 2.35.68.86 1.84.86 1.17 0 1.84-.86.68-.87.68-2.35 0-1.5-.68-2.36-.67-.87-1.83-.87zm0-.86q1.65 0 2.64 1.11 1 1.11 1 2.98 0 1.86-1 2.97-.99 1.1-2.65 1.1t-2.65-1.1q-1-1.1-1-2.97t1-2.98q1-1.11 2.65-1.11z" aria-label="O" style="line-height:1" transform="rotate(46.77 -3.94 9.94)"/><path fill="#000" d="M594.24 186.48q.34.12.66.5.33.38.66 1.04l1.08 2.16h-1.14l-1.01-2.02q-.4-.8-.76-1.05-.37-.26-1-.26h-1.16v3.33h-1.06v-7.88h2.4q1.35 0 2.02.57.66.56.66 1.7 0 .74-.35 1.23-.34.5-1 .68zm-2.67-3.3v2.8h1.34q.77 0 1.16-.36.4-.36.4-1.05t-.4-1.04q-.39-.35-1.16-.35z" aria-label="R" style="line-height:1" transform="rotate(29.29 -8.48 14.48)"/><path fill="#000" d="M430.87 450.98h6.66v.9h-2.8v6.97h-1.06v-6.97h-2.8z" aria-label="T" style="line-height:1" transform="translate(6 6)"/><path fill="#000" d="M191.88 599.2h1.07V604q0 1.26.46 1.82.46.55 1.49.55 1.02 0 1.48-.55.46-.56.46-1.82v-4.79h1.07v4.92q0 1.54-.77 2.32-.76.79-2.24.79-1.5 0-2.26-.79-.76-.78-.76-2.32z" aria-label="U" style="line-height:1" transform="rotate(-26.5 15.74 -9.74)"/><path fill="#000" d="M-1.25-638.75H.2l3.49 6.6v-6.6H4.7v7.88H3.28l-3.5-6.59v6.59h-1.03Z" aria-label="N" style="line-height:1" transform="rotate(134.68 1.75 4.25)"/><path fill="#000" d="M-353.07 522.78h4.97v.9h-3.9V526h3.74v.9H-352v2.84h4v.9h-5.06z" aria-label="E" style="line-height:1" transform="rotate(-79.53 6.6 -.6)"/><path stroke="#000" stroke-linecap="round" stroke-width="4" d="M470 440a30 30 0 0 1-30 30 30 30 0 0 1-30-30 30 30 0 0 1 30-30 30 30 0 0 1 30 30z" paint-order="markers fill stroke"/></svg>