<svg xmlns="http://www.w3.org/2000/svg" width="600" height="600"><path fill="none" stroke="#000" stroke-width="5.429" d="M5.267 5.276h589.689v589.68H5.267z"/><ellipse cx="556.78" cy="47.017" rx="22.881" ry="23.473" fill="none" stroke="#000" stroke-width="5.571"/><path d="M221.833 221.925h156.23v156.23h-156.23z" stroke="#000" stroke-width="5.366"/><path d="M371.927 186.607l-71.979-.042-71.982-.041 35.983-65.792L299.93 54.94l35.999 65.834z" fill-opacity=".513" stroke="#000" stroke-width="5.496"/><path d="M421.031 371.978l-.066-71.93-.066-71.933 64.245 36.055 64.245 36.056-64.179 35.876z" fill-opacity=".513" stroke="#000" stroke-width="5.427"/><path d="M178.718 228.06l-.034 71.981-.031 71.983-63.926-35.972L50.8 300.08l63.957-36.011z" fill-opacity=".513" stroke="#000" stroke-width="5.418"/><path d="M227.994 414.21l71.954-.167 71.956-.17-35.908 65.717-35.909 65.716-36.046-65.547z" fill-opacity=".513" stroke="#000" stroke-width="5.488"/><path d="M234.387 181.979c.204-.507 14.925-27.566 32.713-60.132 23.93-43.81 32.66-58.872 33.566-57.908.673.716 15.427 27.4 32.787 59.295l32.02 58.83c.252.46-29.223.836-65.5.836s-65.79-.415-65.586-.921zM423.792 300c0-36.19.248-65.8.552-65.8.775 0 115.765 64.57 116.758 65.563.699.7-114.67 66.036-116.603 66.036-.39 0-.707-29.61-.707-65.799zM267.136 478.501c-17.769-32.426-32.49-59.507-32.714-60.179-.292-.876 18.24-1.222 65.578-1.222 39.285 0 65.835.412 65.613 1.018-.989 2.706-65.129 119.398-65.613 119.371-.307-.017-15.096-26.561-32.864-58.988z" fill="#fff"/></svg>