<?xml version="1.0" encoding="UTF-8" standalone="no"?>
<svg xmlns:dc="http://purl.org/dc/elements/1.1/" xmlns:cc="http://creativecommons.org/ns#" xmlns:rdf="http://www.w3.org/1999/02/22-rdf-syntax-ns#" xmlns:svg="http://www.w3.org/2000/svg" xmlns="http://www.w3.org/2000/svg" id="svg89" stroke-miterlimit="10" stroke-linecap="square" stroke="none" fill="none" viewBox="0.0 0.0 348.0 348.0" version="1.1">
  <metadata id="metadata95">
    <rdf:RDF>
      <cc:Work rdf:about="">
        <dc:format>image/svg+xml</dc:format>
        <dc:type rdf:resource="http://purl.org/dc/dcmitype/StillImage"/>
      </cc:Work>
    </rdf:RDF>
  </metadata>
  <defs id="defs93"/>
  <clipPath id="p.0">
    <path id="path2" clip-rule="nonzero" d="m0 0l348.0 0l0 348.0l-348.0 0l0 -348.0z"/>
  </clipPath>
  <g id="g59" clip-path="url(#p.0)">
    <path id="path5" fill-rule="nonzero" d="M 0,0 H 348 V 348 H 0 Z" fill-opacity="0" fill="#000000"/>
    <path id="path7" fill-rule="nonzero" d="M -6,0 H 342 V 347.9685 H -6 Z" fill="#ffffff"/>
    <path id="path9" fill-rule="nonzero" d="m 5.07874,5.7758217 h 336.9134 V 343.44512 H 5.07874 Z" fill-opacity="0" fill="#000000"/>
    <path id="path11" fill-rule="nonzero" d="m 5.07874,5.7758217 h 336.9134 V 343.44512 H 5.07874 Z" stroke-linecap="butt" stroke-linejoin="round" stroke-width="2" stroke="#000000"/>
    <path id="path13" fill-rule="nonzero" d="m 282.73444,40.553925 v 0 c 0,-8.375591 6.96603,-15.165352 15.55905,-15.165352 v 0 c 4.12653,0 8.08402,1.597773 11.00192,4.441828 2.91788,2.844057 4.55713,6.701422 4.55713,10.723524 v 0 c 0,8.375595 -6.966,15.165356 -15.55905,15.165356 v 0 c -8.59302,0 -15.55905,-6.789761 -15.55905,-15.165356 z" fill="#ffffff"/>
    <path id="path15" fill-rule="nonzero" d="m 282.73444,40.553925 v 0 c 0,-8.375591 6.96603,-15.165352 15.55905,-15.165352 v 0 c 4.12653,0 8.08402,1.597773 11.00192,4.441828 2.91788,2.844057 4.55713,6.701422 4.55713,10.723524 v 0 c 0,8.375595 -6.966,15.165356 -15.55905,15.165356 v 0 c -8.59302,0 -15.55905,-6.789761 -15.55905,-15.165356 z" stroke-linecap="butt" stroke-linejoin="round" stroke-width="2" stroke="#000000"/>
    <path id="path17" fill-rule="nonzero" d="M 34.771652,25.389738 H 267.18112 v 67.55905 H 34.771652 Z" fill="#000000"/>
    <path id="path19" fill-rule="nonzero" d="M 34.771652,25.389738 H 267.18112 v 67.55905 H 34.771652 Z" stroke-linecap="butt" stroke-linejoin="round" stroke-width="2" stroke="#000000"/>
    <path id="path21" fill-rule="nonzero" d="M 34.771652,202.31795 H 141.41733 v 44.81891 H 34.771652 Z" stroke-linecap="butt" stroke-linejoin="round" stroke-width="1" stroke="#000000"/>
    <path id="path23" fill-rule="nonzero" d="M 34.771652,125.22639 H 141.41733 v 44.8189 H 34.771652 Z" fill-opacity="0" fill="#000000"/>
    <path id="path25" fill-rule="nonzero" d="M 34.771652,125.22639 H 141.41733 v 44.8189 H 34.771652 Z" stroke-linecap="butt" stroke-linejoin="round" stroke-width="1" stroke="#000000"/>
    <path id="path27" fill-rule="nonzero" d="M 34.771652,270.60397 H 141.41733 v 44.81891 H 34.771652 Z" fill-opacity="0" fill="#000000"/>
    <path id="path29" fill-rule="nonzero" d="M 34.771652,270.60397 H 141.41733 v 44.81891 H 34.771652 Z" stroke-linecap="butt" stroke-linejoin="round" stroke-width="1" stroke="#000000"/>
    <path id="path31" fill-rule="nonzero" d="m 157.40683,202.31795 h 106.64566 v 44.81891 H 157.40683 Z" fill-opacity="0" fill="#000000"/>
    <path id="path33" fill-rule="nonzero" d="m 157.40683,202.31795 h 106.64566 v 44.81891 H 157.40683 Z" stroke-linecap="butt" stroke-linejoin="round" stroke-width="1" stroke="#000000"/>
    <path id="path35" fill-rule="nonzero" d="m 157.40683,125.22639 h 106.64566 v 44.8189 H 157.40683 Z" fill-opacity="0" fill="#000000"/>
    <path id="path37" fill-rule="nonzero" d="m 157.40683,125.22639 h 106.64566 v 44.8189 H 157.40683 Z" stroke-linecap="butt" stroke-linejoin="round" stroke-width="1" stroke="#000000"/>
    <path id="path39" fill-rule="nonzero" d="m 157.40683,270.60397 h 106.64566 v 44.81891 H 157.40683 Z" fill-opacity="0" fill="#000000"/>
    <path id="path41" fill-rule="nonzero" d="m 157.40683,270.60397 h 106.64566 v 44.81891 H 157.40683 Z" stroke-linecap="butt" stroke-linejoin="round" stroke-width="1" stroke="#000000"/>
    <path id="path43" fill-rule="nonzero" d="m 277.46194,106.3832 h 52.66141 v 209.03937 h -52.66141 z" fill="#000000"/>
    <path id="path45" fill-rule="nonzero" d="m 277.46194,106.3832 h 52.66141 v 209.03937 h -52.66141 z" stroke-linecap="butt" stroke-linejoin="round" stroke-width="2" stroke="#000000"/>
    <path id="path47" fill-rule="nonzero" d="m 290.06036,245.11285 h 27.46457 v 16.47244 h -27.46457 z" fill="#ffffff"/>
    <path id="path49" fill-rule="nonzero" d="m 290.06036,245.11285 h 27.46457 v 16.47244 h -27.46457 z" stroke-linecap="butt" stroke-linejoin="round" stroke-width="2" stroke="#000000"/>
    <path id="path51" fill-rule="nonzero" d="m 290.06036,208.9029 h 27.46457 v 16.47243 h -27.46457 z" fill="#ffffff"/>
    <path id="path53" fill-rule="nonzero" d="m 290.06036,208.9029 h 27.46457 v 16.47243 h -27.46457 z" stroke-linecap="butt" stroke-linejoin="round" stroke-width="2" stroke="#000000"/>
    <path id="path55" fill-rule="nonzero" d="m 290.06036,281.32285 h 27.46457 v 16.47244 h -27.46457 z" fill="#ffffff"/>
    <path id="path57" fill-rule="nonzero" d="m 290.06036,281.32285 h 27.46457 v 16.47244 h -27.46457 z" stroke-linecap="butt" stroke-linejoin="round" stroke-width="2" stroke="#000000"/>
  </g>
  <g style="font-size:32px;font-family:'DejaVu Sans', sans-serif;text-anchor:middle;fill:#ffffff" id="text63" aria-label="[ 提示 ]">
    <path id="path97" d="m 98.0625,45.6875 h 6.625 v 2.234375 h -3.75 v 24.0625 h 3.75 v 2.234375 h -6.625 z"/>
    <path id="path99" d="m 134.375,65.75 q 0.875,1.5 3.5,3 v -8.5 H 130 v -2.375 h 18.125 v 2.375 h -7.75 V 63 h 5.875 v 2.375 h -5.875 v 4.25 q 1.125,0.25 2.875,0.25 h 5.125 L 148,72.25 h -5 q -6.125,0 -9.5,-4.125 -2.25,3.5 -4.375,4.625 l -1.625,-2 q 4.625,-3.5 5.25,-9.125 l 2.625,0.625 q 0.875,0.5 -0.25,0.75 z m -8.25,-7.25 2.5,-0.875 0.5,2.125 -3,1.25 v 9.5 q 0,2 -2,2 h -2.5 l -0.375,-2.375 h 1.875 q 0.5,0 0.5,-0.5 v -7.75 L 120.75,63 q -0.25,0.875 -0.5,0.375 l -0.75,-2.875 4.125,-1.25 v -7.375 h -3.5 V 49.5 h 3.5 V 44.125 H 126 q 1,0.125 0.125,0.75 V 49.5 h 3.625 v 2.375 h -3.625 z m 5.75,-13.25 h 13.875 v 10.5 h -13.875 z m 2.125,2 v 2.25 h 9.625 v -2.25 z m 0,4.25 v 2.25 h 9.625 V 51.5 Z"/>
    <path id="path101" d="m 173,59.125 q 2.5,4.125 6.875,7.25 l -2.125,2.375 q -4.125,-3.375 -7,-8.125 z M 167.625,69.5 q 0,2.25 -2.125,2.25 H 162 L 161.5,69 h 2.75 q 0.5,0 0.5,-0.5 V 56.75 H 152.5 V 54 h 26.875 v 2.75 h -11.75 z m -11,-20.125 v -2.75 h 19 v 2.75 z m -4.125,17.5 q 3.5,-2.5 6.125,-7.625 l 2.5,1.375 q 1,0.625 -0.375,0.875 -2.125,4.5 -6.25,7.75 z"/>
    <path id="path103" d="m 201.92187,45.6875 v 28.53125 h -6.625 v -2.234375 h 3.73438 v -24.0625 h -3.73438 V 45.6875 Z"/>
  </g>
  <g style="font-size:20px;font-family:'DejaVu Sans', sans-serif;text-anchor:middle;fill:#000000" id="text67" aria-label="[ 文字 ]">
    <path id="path106" d="m 54.539062,138.80469 h 4.140625 v 1.39648 h -2.34375 v 15.03906 h 2.34375 v 1.39649 h -4.140625 z"/>
    <path id="path108" d="m 77.234375,150.875 q -3.90625,3.35937 -8.046875,4.60937 l -0.703125,-1.875 Q 72.625,152.4375 75.90625,149.625 73.171875,146.65625 72.234375,142.75 h -3.75 v -1.48438 h 7.5 v -2.96875 h 1.71875 q 0.78125,0.15625 0.07813,0.625 v 2.34375 h 7.578125 V 142.75 H 81.6875 q -0.625,3.67187 -3.28125,6.875 2.734375,2.42187 7.265625,3.59375 l -0.703125,1.875 q -3.984375,-1.01563 -7.734375,-4.21875 z m -0.07813,-2.5 Q 79.5,145.5625 80.046875,142.75 h -6.09375 q 0.46875,2.65625 3.203125,5.625 z"/>
    <path id="path110" d="m 97.9375,146.96875 v 1.01562 h 7.65625 v 1.48438 H 97.9375 V 154 q 0,1.25 -1.25,1.25 H 94.578125 L 94.1875,153.76562 h 1.875 q 0.3125,0 0.3125,-0.3125 v -3.98437 H 88.25 v -1.48438 h 8.125 v -2.03125 l 0.78125,0.15625 2.1875,-1.48437 h -7.5 v -1.48438 h 9.0625 l 0.3125,-0.3125 1.32813,1.32813 -0.46875,0.15625 z m -0.07813,-6.95313 H 105.125 v 3.90625 h -1.5625 V 141.5 H 90.359375 v 2.57812 h -1.5625 v -4.0625 H 96.0625 v -2.10937 h 1.71875 q 0.78125,0.15625 0.07813,0.625 z"/>
    <path id="path112" d="m 119.45117,138.80469 v 17.83203 h -4.14062 v -1.39649 h 2.33398 v -15.03906 h -2.33398 v -1.39648 z"/>
  </g>
  <g style="font-size:20px;font-family:'DejaVu Sans', sans-serif;text-anchor:middle;fill:#000000" id="text71" aria-label="[ 文字 ]">
    <path id="path115" d="m 54.539062,215.80469 h 4.140625 v 1.39648 h -2.34375 v 15.03906 h 2.34375 v 1.39649 h -4.140625 z"/>
    <path id="path117" d="m 77.234375,227.875 q -3.90625,3.35937 -8.046875,4.60937 l -0.703125,-1.875 Q 72.625,229.4375 75.90625,226.625 73.171875,223.65625 72.234375,219.75 h -3.75 v -1.48438 h 7.5 v -2.96875 h 1.71875 q 0.78125,0.15625 0.07813,0.625 v 2.34375 h 7.578125 V 219.75 H 81.6875 q -0.625,3.67187 -3.28125,6.875 2.734375,2.42187 7.265625,3.59375 l -0.703125,1.875 q -3.984375,-1.01563 -7.734375,-4.21875 z m -0.07813,-2.5 Q 79.5,222.5625 80.046875,219.75 h -6.09375 q 0.46875,2.65625 3.203125,5.625 z"/>
    <path id="path119" d="m 97.9375,223.96875 v 1.01562 h 7.65625 v 1.48438 H 97.9375 V 231 q 0,1.25 -1.25,1.25 H 94.578125 L 94.1875,230.76562 h 1.875 q 0.3125,0 0.3125,-0.3125 v -3.98437 H 88.25 v -1.48438 h 8.125 v -2.03125 l 0.78125,0.15625 2.1875,-1.48437 h -7.5 v -1.48438 h 9.0625 l 0.3125,-0.3125 1.32813,1.32813 -0.46875,0.15625 z m -0.07813,-6.95313 H 105.125 v 3.90625 h -1.5625 V 218.5 H 90.359375 v 2.57812 h -1.5625 v -4.0625 H 96.0625 v -2.10937 h 1.71875 q 0.78125,0.15625 0.07813,0.625 z"/>
    <path id="path121" d="m 119.45117,215.80469 v 17.83203 h -4.14062 v -1.39649 h 2.33398 v -15.03906 h -2.33398 v -1.39648 z"/>
  </g>
  <g style="font-size:20px;font-family:'DejaVu Sans', sans-serif;text-anchor:middle;fill:#000000" id="text75" aria-label="[ 文字 ]">
    <path id="path124" d="m 54.539062,283.80469 h 4.140625 v 1.39648 h -2.34375 v 15.03906 h 2.34375 v 1.39649 h -4.140625 z"/>
    <path id="path126" d="m 77.234375,295.875 q -3.90625,3.35937 -8.046875,4.60937 l -0.703125,-1.875 Q 72.625,297.4375 75.90625,294.625 73.171875,291.65625 72.234375,287.75 h -3.75 v -1.48438 h 7.5 v -2.96875 h 1.71875 q 0.78125,0.15625 0.07813,0.625 v 2.34375 h 7.578125 V 287.75 H 81.6875 q -0.625,3.67187 -3.28125,6.875 2.734375,2.42187 7.265625,3.59375 l -0.703125,1.875 q -3.984375,-1.01563 -7.734375,-4.21875 z m -0.07813,-2.5 Q 79.5,290.5625 80.046875,287.75 h -6.09375 q 0.46875,2.65625 3.203125,5.625 z"/>
    <path id="path128" d="m 97.9375,291.96875 v 1.01562 h 7.65625 v 1.48438 H 97.9375 V 299 q 0,1.25 -1.25,1.25 H 94.578125 L 94.1875,298.76562 h 1.875 q 0.3125,0 0.3125,-0.3125 v -3.98437 H 88.25 v -1.48438 h 8.125 v -2.03125 l 0.78125,0.15625 2.1875,-1.48437 h -7.5 v -1.48438 h 9.0625 l 0.3125,-0.3125 1.32813,1.32813 -0.46875,0.15625 z m -0.07813,-6.95313 H 105.125 v 3.90625 h -1.5625 V 286.5 H 90.359375 v 2.57812 h -1.5625 v -4.0625 H 96.0625 v -2.10937 h 1.71875 q 0.78125,0.15625 0.07813,0.625 z"/>
    <path id="path130" d="m 119.45117,283.80469 v 17.83203 h -4.14062 v -1.39649 h 2.33398 v -15.03906 h -2.33398 v -1.39648 z"/>
  </g>
  <g style="font-size:20px;font-family:'DejaVu Sans', sans-serif;text-anchor:middle;fill:#000000" id="text79" aria-label="[ 文字 ]">
    <path id="path133" d="m 177.53906,138.80469 h 4.14063 v 1.39648 h -2.34375 v 15.03906 h 2.34375 v 1.39649 h -4.14063 z"/>
    <path id="path135" d="m 200.23437,150.875 q -3.90625,3.35937 -8.04687,4.60937 l -0.70313,-1.875 q 4.14063,-1.17187 7.42188,-3.98437 -2.73438,-2.96875 -3.67188,-6.875 h -3.75 v -1.48438 h 7.5 v -2.96875 h 1.71875 q 0.78125,0.15625 0.0781,0.625 v 2.34375 h 7.57812 V 142.75 h -3.67187 q -0.625,3.67187 -3.28125,6.875 2.73437,2.42187 7.26562,3.59375 l -0.70312,1.875 q -3.98438,-1.01563 -7.73438,-4.21875 z m -0.0781,-2.5 q 2.34375,-2.8125 2.89062,-5.625 h -6.09375 q 0.46875,2.65625 3.20313,5.625 z"/>
    <path id="path137" d="m 220.9375,146.96875 v 1.01562 h 7.65625 v 1.48438 H 220.9375 V 154 q 0,1.25 -1.25,1.25 h -2.10938 l -0.39062,-1.48438 h 1.875 q 0.3125,0 0.3125,-0.3125 v -3.98437 h -8.125 v -1.48438 h 8.125 v -2.03125 l 0.78125,0.15625 2.1875,-1.48437 h -7.5 v -1.48438 h 9.0625 l 0.3125,-0.3125 1.32812,1.32813 -0.46875,0.15625 z m -0.0781,-6.95313 h 7.26563 v 3.90625 h -1.5625 V 141.5 h -13.20313 v 2.57812 h -1.5625 v -4.0625 h 7.26563 v -2.10937 h 1.71875 q 0.78125,0.15625 0.0781,0.625 z"/>
    <path id="path139" d="m 242.45117,138.80469 v 17.83203 h -4.14062 v -1.39649 h 2.33398 v -15.03906 h -2.33398 v -1.39648 z"/>
  </g>
  <g style="font-size:20px;font-family:'DejaVu Sans', sans-serif;text-anchor:middle;fill:#000000" id="text83" aria-label="[ 文字 ]">
    <path id="path142" d="m 177.53906,215.80469 h 4.14063 v 1.39648 h -2.34375 v 15.03906 h 2.34375 v 1.39649 h -4.14063 z"/>
    <path id="path144" d="m 200.23437,227.875 q -3.90625,3.35937 -8.04687,4.60937 l -0.70313,-1.875 q 4.14063,-1.17187 7.42188,-3.98437 -2.73438,-2.96875 -3.67188,-6.875 h -3.75 v -1.48438 h 7.5 v -2.96875 h 1.71875 q 0.78125,0.15625 0.0781,0.625 v 2.34375 h 7.57812 V 219.75 h -3.67187 q -0.625,3.67187 -3.28125,6.875 2.73437,2.42187 7.26562,3.59375 l -0.70312,1.875 q -3.98438,-1.01563 -7.73438,-4.21875 z m -0.0781,-2.5 q 2.34375,-2.8125 2.89062,-5.625 h -6.09375 q 0.46875,2.65625 3.20313,5.625 z"/>
    <path id="path146" d="m 220.9375,223.96875 v 1.01562 h 7.65625 v 1.48438 H 220.9375 V 231 q 0,1.25 -1.25,1.25 h -2.10938 l -0.39062,-1.48438 h 1.875 q 0.3125,0 0.3125,-0.3125 v -3.98437 h -8.125 v -1.48438 h 8.125 v -2.03125 l 0.78125,0.15625 2.1875,-1.48437 h -7.5 v -1.48438 h 9.0625 l 0.3125,-0.3125 1.32812,1.32813 -0.46875,0.15625 z m -0.0781,-6.95313 h 7.26563 v 3.90625 h -1.5625 V 218.5 h -13.20313 v 2.57812 h -1.5625 v -4.0625 h 7.26563 v -2.10937 h 1.71875 q 0.78125,0.15625 0.0781,0.625 z"/>
    <path id="path148" d="m 242.45117,215.80469 v 17.83203 h -4.14062 v -1.39649 h 2.33398 v -15.03906 h -2.33398 v -1.39648 z"/>
  </g>
  <g style="font-size:20px;font-family:'DejaVu Sans', sans-serif;text-anchor:middle;fill:#000000" id="text87" aria-label="[ 文字 ]">
    <path id="path151" d="m 177.53906,283.80469 h 4.14063 v 1.39648 h -2.34375 v 15.03906 h 2.34375 v 1.39649 h -4.14063 z"/>
    <path id="path153" d="m 200.23437,295.875 q -3.90625,3.35937 -8.04687,4.60937 l -0.70313,-1.875 q 4.14063,-1.17187 7.42188,-3.98437 -2.73438,-2.96875 -3.67188,-6.875 h -3.75 v -1.48438 h 7.5 v -2.96875 h 1.71875 q 0.78125,0.15625 0.0781,0.625 v 2.34375 h 7.57812 V 287.75 h -3.67187 q -0.625,3.67187 -3.28125,6.875 2.73437,2.42187 7.26562,3.59375 l -0.70312,1.875 q -3.98438,-1.01563 -7.73438,-4.21875 z m -0.0781,-2.5 q 2.34375,-2.8125 2.89062,-5.625 h -6.09375 q 0.46875,2.65625 3.20313,5.625 z"/>
    <path id="path155" d="m 220.9375,291.96875 v 1.01562 h 7.65625 v 1.48438 H 220.9375 V 299 q 0,1.25 -1.25,1.25 h -2.10938 l -0.39062,-1.48438 h 1.875 q 0.3125,0 0.3125,-0.3125 v -3.98437 h -8.125 v -1.48438 h 8.125 v -2.03125 l 0.78125,0.15625 2.1875,-1.48437 h -7.5 v -1.48438 h 9.0625 l 0.3125,-0.3125 1.32812,1.32813 -0.46875,0.15625 z m -0.0781,-6.95313 h 7.26563 v 3.90625 h -1.5625 V 286.5 h -13.20313 v 2.57812 h -1.5625 v -4.0625 h 7.26563 v -2.10937 h 1.71875 q 0.78125,0.15625 0.0781,0.625 z"/>
    <path id="path157" d="m 242.45117,283.80469 v 17.83203 h -4.14062 v -1.39649 h 2.33398 v -15.03906 h -2.33398 v -1.39648 z"/>
  </g>
</svg>