<svg xmlns="http://www.w3.org/2000/svg" fill="none" viewBox="0 0 348 348"><defs><path id="a" d="M126 71h133v116H126z"/><path id="b" d="M126 71h133v116H126z"/><path id="c" d="M126 71h133v116H126z"/></defs><path d="M4 5v339h339V5H4zm2 2h335v335H6V7z" overflow="visible" fill="#000"/><path d="M298 24c-9 0-16 8-16 17 0 8 7 16 16 16s17-8 17-16c0-5-2-9-5-12s-7-5-12-5zm0 2c4 0 8 2 11 5 2 2 4 6 4 10 0 7-7 14-15 14s-14-7-14-14c0-8 6-15 14-15zM22 28v88h207V28H22zm4 4h199v80H26V32z" overflow="visible" fill="#000"/><g style="shape-inside:url(#a)" transform="translate(-48 -35)" aria-label="&lt;A&gt;"><path d="M140 109h-12l21-12v7zm9 13-21-13h12l9 6z" overflow="visible" fill="#000"/><path d="m150 96-22 13h-2 1l-1 1h2l22 13v-8l-9-6 9-5v-8zm-1 2v6l-10 5h-9l19-11zm-19 12h9l10 5v6l-19-11z" overflow="visible"/><path d="M171 85h6l16 45h-7l-12-36-13 36h-7zm-9 29h24v6h-24z" overflow="visible" fill="#000"/><path d="M171 84v1l-17 46h8l3-10h18l3 10h8l-17-47h-6zm0 1h5l17 45h-6l-3-9h2v-7h-5l-7-22-8 22h-4v7h2l-3 9h-6l16-45zm3 10 6 19h-13l7-19zm-11 20h3l-2 5h-1v-5zm4 0h14l1 5h-17l2-5zm15 0h3v5h-2l-1-5z" overflow="visible"/><g><path d="m199 97 21 12h-11l-10-5zm10 12h11l-21 13v-7Z" overflow="visible" fill="#000"/><path d="M198 96v8l10 5-10 6v8l22-13h2l-1-1h1-2l-22-13zm1 2 19 11h-9l-10-5v-6zm10 12h9l-19 11v-6l10-5z" overflow="visible"/></g></g><path d="M22 142v89h207v-89H22zm4 4h199v81H26v-81z" overflow="visible" fill="#000"/><g style="shape-inside:url(#b)" transform="translate(-48 79)" aria-label="&lt;B&gt;"><path d="M140 109h-12l21-12v7zm9 13-21-13h12l9 6z" overflow="visible" fill="#000"/><path d="m150 96-22 13h-2 1l-1 1h2l22 13v-8l-9-6 9-5v-8zm-1 2v6l-10 5h-9l19-11zm-19 12h9l10 5v6l-19-11z" overflow="visible"/><path d="M162 124h13c3 0 5 0 7-2 1-1 2-2 2-5l-1-4-2-2-5-1h-14v-6h14l6-2 1-5c0-2 0-3-2-5l-6-1h-13v-6h15l7 1 4 5 2 6-1 5-3 3-4 2a10 10 0 0 1 7 6l2 5-2 6-5 5-7 1h-15zm-3-39h6v45h-6z" overflow="visible" fill="#000"/><path d="M158 84v47h19l7-2c3-1 4-2 5-4l2-7-1-5-3-4-4-2 4-2 2-3 1-5-1-7-5-4-7-2h-19zm1 1h3v6h3v13h-3v6h3v14h-3v6h-3V85zm4 0h2v5h-2v-5zm3 0h11l7 2 4 4a13 13 0 0 1 1 10l-3 4-4 1v1l4 2 3 4 1 5-2 6-4 4-7 2h-11v-5h9l7-2c2-1 3-3 3-6l-1-4-3-3-5-1h-10v-4h10l6-2 2-6-2-5-7-2h-9v-5zm0 6h9l6 2 2 4c0 3-1 4-2 5s-2 2-5 2h-10V91zm-3 14h2v4h-2v-4zm3 5h10l5 1 2 2 1 4-2 5-7 2h-9v-14zm-3 15h2v5h-2v-5z" overflow="visible"/><g><path d="m199 97 21 12h-12l-9-5zm9 12h12l-21 13v-7Z" overflow="visible" fill="#000"/><path d="M198 96v8l9 5-9 6v8l22-13h2l-1-1h1-2l-22-13zm1 2 19 11h-9l-10-5v-6zm10 12h9l-19 11v-6l10-5z" overflow="visible"/></g></g><path d="M333 83h-89v207h89V83zm-4 4v199h-81V87h81z" overflow="visible" fill="#000"/><g style="shape-inside:url(#c)" transform="rotate(90 191 205)" aria-label="&lt;C&gt;"><path d="M140 109h-12l21-12v7zm9 13-21-13h12l9 6z" overflow="visible" fill="#000"/><path d="m150 96-22 13h-2 1l-1 1h2l22 13v-8l-9-6 9-5v-8zm-1 2v6l-10 5h-9l19-11zm-19 12h9l10 5v6l-19-11z" overflow="visible"/><path d="m174 131-9-2-5-6c-2-3-2-6-2-9v-13c0-3 0-6 2-9l5-6 9-2a15 15 0 0 1 12 7c2 2 3 4 3 7h-6l-2-4a9 9 0 0 0-7-3l-5 1-4 4-1 5v13l1 5 4 4 5 1a9 9 0 0 0 7-3l2-4h6c0 3-1 5-3 7a15 15 0 0 1-12 7z" overflow="visible" fill="#000"/><path d="m174 84-9 2-6 6-2 9v13l2 9 6 6 9 2c2 0 5 0 7-2l6-4 3-8h-8l-2 4-3 2-3 1-5-1-3-4-1-5v-13l1-5 3-4 5-1 3 1 3 2 2 4h8l-3-8-6-4c-2-2-5-2-7-2zm0 1 7 1 5 5 3 6h-6a10 10 0 0 0-5-6l-4-1-6 1-3 4-1 6v13l1 6 3 4 6 1a10 10 0 0 0 9-7h6l-3 6-5 5-7 1c-3 0-6 0-8-2-3-1-5-3-6-6l-2-8v-13l2-8c1-3 3-5 6-6 2-2 5-2 8-2z" overflow="visible"/><g><path d="m197 97 21 12h-11l-10-5zm10 12h11l-21 13v-7Z" overflow="visible" fill="#000"/><path d="M197 96v8l9 5-9 6v8l21-13h2l-1-1h1-2l-21-13zm1 2 18 11h-9l-9-5v-6zm9 12h9l-18 11v-6l9-5z" overflow="visible"/></g></g><path d="m74 247-2 1-36 21v44l38 22 37-22v-44l-37-22zm0 7 31 19v36l-31 19-32-19v-36l32-19z" overflow="visible" fill="#000"/><g aria-label="W"><path d="M72.5 271h3l9 31.5 6-31.5h6l-9 39h-6L74 283l-7.5 27h-6l-9-39h6l6 31.5z" overflow="visible" fill="#000"/><path d="m50 269.5 10.5 42h6L74 286l7.5 25.5h6l10.5-42h-7.5l-6 30-7.5-30h-6v1.5l-7.5 28.5-6-30H50zm1.5 1.5H56l7.5 31.5H65l7.5-31.5h3l7.5 31.5h1.5L92 271h4.5L86 310h-4.5L74 280l-7.5 30H62l-10.5-39z" overflow="visible"/></g><path d="m170 247-2 1-36 21v44l38 22 38-22v-44l-38-22zm0 7 32 19v36l-32 19-32-19v-36l32-19z" overflow="visible" fill="#000"/><g aria-label="D"><path d="M160 305.5h9l7.5-3 1.5-6v-12l-1.5-6-7.5-1.5h-9v-6h9l7.5 1.5 6 4.5 1.5 7.5v12l-1.5 7.5c-1.5 3-3 4.5-6 4.5L169 310h-9zm-3-34.5h4.5v39H157z" overflow="visible" fill="#000"/><path d="M155.5 269.5v42H169l9-1.5 4.5-6 3-7.5v-12l-3-7.5-4.5-4.5-9-3h-13.5zm1.5 1.5h3v6h1.5v27H160v6h-3v-39zm4.5 0v4.5-4.5zm1.5 0h6l7.5 3c3 0 4.5 1.5 4.5 4.5l3 6v12l-3 7.5-4.5 4.5-7.5 1.5h-6v-4.5h6l7.5-1.5 3-7.5v-12l-3-6-7.5-3h-6V271zm0 6h6l6 1.5 3 6v12l-3 6-6 1.5h-6v-27zm-1.5 28.5v4.5-4.5z" overflow="visible"/></g></svg>