<svg xmlns="http://www.w3.org/2000/svg" fill="none" viewBox="0 0 348 348"><defs><filter id="a" width="400" height="400" x="-1" y="-1" color-interpolation-filters="sRGB" filterUnits="userSpaceOnUse"><feGaussianBlur result="blur" stdDeviation="1 1"/></filter></defs><path fill="#8e8e8e" d="M29 204h285v114H29z"/><path stroke="#000" stroke-width="2" d="M5.08 5.78h336.91v337.67H5.08z"/><path stroke="#000" stroke-width="2" d="M282.73 40.55c0-8.37 6.97-15.16 15.56-15.16 4.13 0 8.09 1.6 11 4.44a14.96 14.96 0 014.56 10.72c0 8.38-6.96 15.17-15.56 15.17-8.59 0-15.56-6.8-15.56-15.17z"/><path stroke="#000" stroke-width="5" d="M48 204c3.65 10.17-7.68 17.97-6.1 27.18 4.79 5.76 4.04 13.12 6.37 20.1 1.82 9.6 1.16 18.8-3.45 27.36 4.35 5.9 3.27 13.71 3.13 21.07M67 204c5.28 8.14-1.67 18.2-1.05 27.16 0 11.89-.65 23.76-1.9 35.43.44 8.57 3.68 16.36 4.6 24.71-.8 2.45 1.36 13.21-1.65 7.7m19-95c1.56 10.48.83 21.19.31 31.73-4.8 9.5-3.35 20.76-2.54 31.09-3.3 7.14 1.23 8.73 2.35 10.9C86.26 286.16 86 299 86 299m19-95c2 12.52.85 26.97 1 37.93.15 10.97-.3 18.32-1.18 27.82-.88 9.5.12 19.5.18 29.25m19-95c2.68 10.18-5.48 20.03.72 29.44 7.12 10.77-.29 23.97 1.9 35.86-2.02 8.5 5.81 16.02-.12 23.52 1.02 2.72-1.74 15.11-2.5 6.18m19-95c2.76 11.7-7.67 21.5-4.63 33.19 2.51 4.97 6.8 8.43 2.46 14.69-1.11 9.74-.34 19.79 5.05 28.26 2.94 8.17-2.88 15.97-2.57 22.62M162 204c.93 11.34.07 22.63-5.52 32.73 1.25 10.04 7.1 19.45 3.39 30.12-.92 9.3 2.78 18.13 5.85 26.56.4 2.05-3.72 5.59-3.72 5.59m19-95c-1.08 13.58.73 27.54-2.82 40.81-3.9 7.14-8.79 13.96-7.3 22.9.3 9.08 8.48 15.27 9.31 23.42-2.09 3 2.94 15.17.81 7.87m19-95c.88 8.77-.97 17.88-1.97 26.86-.18 10.85-1.03 21.92.46 32.67 1.62 7.36 10.36 12.7 3.71 20.57-.31 6.02-5.09 16.65-2.2 20.27M219 204c-1.5 3.42-1.11 11.43-2.47 11.86-.84 6.74-2.77 20.24 2.16 28.52 1.3 9.97-.14 20.2 1.43 30.2 1.4 8.94 2.43 16.77-2.28 22.77M238 204c5.03 7.29-1.94 18.25 2.27 27.18.6 10.34-2.26 21.37 3.53 30.8 7.25 8.1-1.13 17.78-1.39 26.77-2.45 5.06-.12 14.62-4.41 16.63M257 204c.91 12.49-.63 25 2.6 37.17.05 10.52-3.23 20.83-1.7 31.4-.94 9.07-2.45 19.6-5.69 26.98M276 204c-.45 10.88-1.14 21.94.61 32.73 1.22 7.8 4.01 16.4 1.1 24.3-1.72 9.99-1.7 20.66-4.13 30.72M295 204c.53 12.99.56 26.05.06 39.02a79.9 79.9 0 001.2 26.98c.65 12.25-2.24 24.51-4 36.4"/><path stroke="#fff" stroke-width="2" d="M46.99 204c3.65 10.17-7.68 17.97-6.1 27.18 4.79 5.76 4.04 13.12 6.37 20.1 1.82 9.6 1.17 18.8-3.45 27.36 4.35 5.9 3.27 13.71 3.13 21.07M65.99 204c5.28 8.14-1.67 18.2-1.05 27.16 0 11.89-.65 23.76-1.9 35.43.44 8.57 3.68 16.36 4.6 24.71-.8 2.45 1.36 13.21-1.65 7.7m19-95c1.57 10.48.83 21.19.32 31.73-4.8 9.5-3.36 20.76-2.55 31.09-3.3 7.14 1.23 8.73 2.35 10.9.14 8.43-.12 21.28-.12 21.28m19-95c2 12.52.85 26.97 1 37.93.16 10.97-.3 18.32-1.18 27.82-.88 9.5.12 19.5.18 29.25m19-95c2.69 10.18-5.48 20.03.72 29.44 7.12 10.77-.29 23.97 1.9 35.86-2.02 8.5 5.81 16.02-.12 23.52 1.02 2.72-1.74 15.11-2.5 6.18m19-95c2.76 11.7-7.67 21.5-4.63 33.19 2.51 4.97 6.8 8.43 2.46 14.69-1.11 9.74-.34 19.79 5.05 28.26 2.94 8.17-2.88 15.97-2.57 22.62M160.99 204c.93 11.34.07 22.63-5.52 32.73 1.25 10.04 7.1 19.45 3.39 30.12-.92 9.3 2.78 18.13 5.85 26.56.4 2.05-3.72 5.59-3.72 5.59m19-95c-1.08 13.58.73 27.54-2.82 40.81-3.9 7.14-8.79 13.96-7.3 22.9.3 9.08 8.48 15.27 9.31 23.42-2.09 3 2.94 15.17.81 7.87m19-95c.88 8.77-.97 17.88-1.97 26.86-.18 10.85-1.03 21.92.47 32.67 1.6 7.36 10.35 12.7 3.7 20.57-.31 6.02-5.09 16.65-2.2 20.27m19-100.37c-1.5 3.42-1.11 11.43-2.47 11.86-.84 6.74-2.77 20.24 2.17 28.52 1.29 9.97-.15 20.2 1.43 30.2 1.4 8.94 2.42 16.77-2.28 22.77M236.99 204c5.03 7.29-1.94 18.25 2.27 27.18.6 10.34-2.26 21.37 3.53 30.8 7.25 8.1-1.13 17.78-1.39 26.77-2.45 5.06-.12 14.62-4.41 16.63m19-101.38c.91 12.49-.63 25 2.6 37.17.05 10.52-3.23 20.83-1.7 31.4-.93 9.07-2.45 19.6-5.69 26.98M274.99 204c-.44 10.88-1.14 21.94.61 32.73 1.22 7.8 4.02 16.4 1.1 24.3-1.72 9.99-1.7 20.66-4.13 30.72M293.99 204c.53 12.99.56 26.05.06 39.02a79.9 79.9 0 001.2 26.98c.65 12.25-2.24 24.51-4 36.4" filter="url(#a)"/><path fill="#000" d="M29 33v57h95V33H29zm23.75 20.9h47.5v15.2h-47.5V53.9z"/><path stroke="#000" stroke-width="2" d="M152.5 33h76l9.5 9.5v38l-9.5 9.5h-76l-9.5-9.5v-38z"/><path fill="#d4d4d4" d="M29 109h285v100H29z"/><path fill="#000" d="M51.42 178.48v19.14h-5.47v-13.67h-1.37v-5.47zM60.85 166.74q0-5.47 4.1-5.47h2.73v-1.37h-6.83v-5.47h8.2q4.1 0 4.1 5.47v1.37q0 5.47-4.1 5.47h-2.73v1.36h6.83v5.47h-12.3zM79.85 183.95v-5.47h8.2q4.1 0 4.1 5.47v1.36q0 1.37-1.02 2.74 1.02 1.37 1.02 2.73v1.37q0 5.47-4.1 5.47h-8.2v-5.47h6.83v-1.37h-4.1v-5.47h4.1v-1.36zM100.4 154.43h4.78l-.86 6.84h1.36v-6.84h5.47v19.14h-5.47v-6.83h-6.83zM117.85 178.48h12.3v5.47h-6.83v1.36h2.73q4.1 0 4.1 5.47v1.37q0 5.47-4.1 5.47h-8.2v-5.47h6.83v-1.37h-2.73q-4.1 0-4.1-5.47zM142.32 166.74v1.36h1.36v-1.36zm-5.47-6.84q0-5.47 4.1-5.47h8.2v5.47h-6.83v1.37h2.73q4.1 0 4.1 5.47v1.36q0 5.47-4.1 5.47h-4.1q-4.1 0-4.1-5.47zM164.05 197.62h-6.15l2.88-13.67h-4.93v-5.47h12.3zM178.96 173.57q-4.1 0-4.1-5.47v-1.36q0-1.37 1.36-2.74-1.37-1.37-1.37-2.73v-1.37q0-5.47 4.1-5.47h4.1q4.1 0 4.1 5.47v1.37q0 1.36-1.36 2.73 1.36 1.37 1.36 2.74v1.36q0 5.47-4.1 5.47zm1.36-13.67v1.37h1.37v-1.37zm1.37 8.2v-1.36h-1.37v1.36zM200.68 185.31v-1.36h-1.36v1.36zm-2.73 5.47q-4.1 0-4.1-5.47v-1.36q0-5.47 4.1-5.47h4.1q4.1 0 4.1 5.47v13.67h-5.47v-6.84z" paint-order="stroke fill markers"/><path fill="#000" stroke-width="5" d="M215.58 154.43v19.14h-5.47V159.9h-1.36v-5.47zm5.47 19.14q-4.1 0-4.1-5.47v-8.2q0-5.47 4.1-5.47h4.1q4.1 0 4.1 5.47v8.2q0 5.47-4.1 5.47zm1.37-13.67v8.2h1.37v-8.2zM237.32 178.48v19.14h-5.47v-13.67h-1.37v-5.47zm8.2 0v19.14h-5.47v-13.67h-1.37v-5.47zM253.58 154.43v19.14h-5.47V159.9h-1.36v-5.47zm1.37 12.31q0-5.47 4.1-5.47h2.74v-1.37h-6.84v-5.47h8.2q4.1 0 4.1 5.47v1.37q0 5.47-4.1 5.47h-2.73v1.36h6.83v5.47h-12.3zM272.58 178.48v19.14h-5.47v-13.67h-1.36v-5.47zm1.37 5.47v-5.47h8.2q4.1 0 4.1 5.47v1.36q0 1.37-1.02 2.74 1.02 1.37 1.02 2.73v1.37q0 5.47-4.1 5.47h-8.2v-5.47h6.84v-1.37h-4.1v-5.47h4.1v-1.36zM291.58 154.43v19.14h-5.47V159.9h-1.36v-5.47zm2.92 0h4.78l-.86 6.84h1.37v-6.84h5.46v19.14h-5.46v-6.83h-6.84z" paint-order="stroke fill markers"/></svg>