<svg xmlns="http://www.w3.org/2000/svg" fill="none" viewBox="0 0 348 348"><path stroke="#000" stroke-width="2" d="M5 5.8h337v337.6H5z"/><path stroke="#000" stroke-width="2" d="M282.7 40.6c0-8.4 7-15.2 15.6-15.2 4.1 0 8 1.6 11 4.4a15 15 0 0 1 4.6 10.8c0 8.3-7 15.1-15.6 15.1s-15.6-6.8-15.6-15.1z"/><path d="M38.4 68.9h106.3v106.3H38.4ZM163.4 68.9h106.4v106.3H163.4ZM38.4 196h106.3v106.4H38.4ZM163.4 196h106.4v106.4H163.4Z" style="stroke:#000;stroke-width:2"/><path d="M38.4 68.9c30.2-.3 27.7-29.7 52.4-30.3 24.7-.7 24 28.8 53.9 30.3" style="fill:none;stroke:#000;stroke-width:2;stroke-miterlimit:4;stroke-dasharray:none"/><path d="M104.3 54a13 12.5 0 0 1-13 12.5 13 12.5 0 0 1-13-12.5 13 12.5 0 0 1 13-12.4 13 12.5 0 0 1 13 12.4Z" style="stroke:#000;stroke-width:1.84437"/><path d="M163.4 68.9c30.2-.3 27.8-29.7 52.5-30.3 24.7-.7 23.9 28.8 53.9 30.3" style="fill:none;stroke:#000;stroke-width:2;stroke-miterlimit:4;stroke-dasharray:none"/><path d="M229.4 54a13 12.5 0 0 1-13 12.5 13 12.5 0 0 1-13-12.5 13 12.5 0 0 1 13-12.4 13 12.5 0 0 1 13 12.4Z" style="stroke:#000;stroke-width:1.84437"/><path d="M38.4 302.4c30.2.3 27.7 29.6 52.4 30.3 24.7.7 24-28.8 53.9-30.3" style="fill:none;stroke:#000;stroke-width:2;stroke-miterlimit:4;stroke-dasharray:none"/><ellipse cx="91.3" cy="-317.2" rx="13" ry="12.5" style="fill:none;stroke:#000;stroke-width:1.84437;stroke-miterlimit:4;stroke-dasharray:none" transform="scale(1 -1)"/><path d="M163.4 302.4c30.2.3 27.8 29.6 52.5 30.3 24.7.7 23.9-28.8 53.9-30.3" style="fill:none;stroke:#000;stroke-width:2;stroke-miterlimit:4;stroke-dasharray:none"/><ellipse cx="216.4" cy="-317.2" rx="13" ry="12.5" style="fill:none;stroke:#000;stroke-width:1.84437;stroke-miterlimit:4;stroke-dasharray:none" transform="scale(1 -1)"/><path d="M48.1 91.7h-2.6v-16l-2.7 1.6v-2.7l2.7-1.8H48z" aria-label="1" style="font-size:26.6667px;line-height:1.25;font-family:Bahnschrift;-inkscape-font-specification:Bahnschrift;text-align:center;text-anchor:middle;fill:#000"/><path d="m40.8 129.4 6.6-8.8q.6-.7.9-1.5.3-.9.3-1.6 0-1.1-.6-1.7-.7-.7-2-.7-1 0-1.8.7-.7.7-.9 2h-2.7q.2-1.7 1-2.8.7-1.2 1.8-1.8 1.1-.6 2.6-.6 1.7 0 3 .6 1.1.6 1.8 1.7.6 1 .6 2.6 0 1-.4 2.1l-1.2 2.2-5.5 7.4h7.2v2.5H40.8Z" aria-label="2" style="font-size:26.6667px;line-height:1.25;font-family:Bahnschrift;-inkscape-font-specification:Bahnschrift;text-align:center;text-anchor:middle;fill:#000"/><path d="M45.8 172q-1.6 0-2.8-.6-1.2-.6-2-1.7-.7-1.1-.8-2.7h2.7q0 .8.5 1.3.4.6 1 .8.6.3 1.4.3 1.3 0 2-.7.8-.7.8-2v-.6q0-1.4-.7-2.2-.7-.8-2-.8h-1.3v-2.5H46q1 0 1.7-.6.6-.7.6-2v-.5q0-1.1-.7-1.7-.6-.6-1.8-.6-.7 0-1.2.2l-1 .8q-.3.5-.4 1.3h-2.7q.2-1.5 1-2.6.7-1.2 1.8-1.7 1-.6 2.5-.6 2.5 0 3.8 1.3 1.3 1.3 1.3 3.6v.3q0 1.5-.7 2.5-.8 1-2.2 1.5 1.6.4 2.4 1.6.9 1.2.9 3v.3q0 1.7-.7 2.8-.6 1.2-1.8 1.8-1.3.6-3 .6z" aria-label="3" style="font-size:26.6667px;line-height:1.25;font-family:Bahnschrift;-inkscape-font-specification:Bahnschrift;text-align:center;text-anchor:middle;fill:#000"/><path d="M134 72.8h2.3l7 19h-2.9l-5.2-15.3-5.3 15.2h-2.8zM130.3 85h10v2.6h-10z" aria-label="A" style="font-size:26.6667px;line-height:1.25;font-family:Bahnschrift;-inkscape-font-specification:Bahnschrift;text-align:center;text-anchor:middle;fill:#000"/><path d="M130.5 129.3h5q2.1 0 3-.8 1-.8 1-2.2 0-1-.4-1.7-.3-.6-1-1t-1.9-.4h-5.7v-2.4h5.7q1.5 0 2.3-.7.7-.7.7-2 0-1.4-.8-2.1-.9-.7-2.5-.7h-5.4v-2.5h5.9q1.8 0 3 .6 1.3.6 1.9 1.8.6 1.1.6 2.7 0 1-.4 1.9-.4.8-1.1 1.4-.8.6-2 .8 1.2.2 2 .8.9.7 1.3 1.6.4 1 .4 2.1 0 1.6-.6 2.8-.7 1.2-2 1.8-1.2.6-3 .6h-6zm-1.6-16.5h2.6v19H129z" aria-label="B" style="font-size:26.6667px;line-height:1.25;font-family:Bahnschrift;-inkscape-font-specification:Bahnschrift;text-align:center;text-anchor:middle;fill:#000"/><path d="M135.5 172q-2 0-3.5-1-1.5-.8-2.3-2.4-.8-1.6-.8-3.7v-5.2q0-2.1.8-3.7t2.3-2.5q1.5-.9 3.5-.9 1.6 0 3 .7 1.3.7 2.2 2 1 1.2 1.3 3h-2.7q-.3-1-.9-1.7-.5-.7-1.3-1-.8-.4-1.6-.4-1.2 0-2 .6-1 .5-1.4 1.5-.5 1-.5 2.4v5.2q0 1.3.5 2.3.5 1 1.3 1.6.9.5 2 .5.9 0 1.7-.3.8-.4 1.3-1 .6-.8.9-1.7h2.7q-.3 1.7-1.3 3-.9 1.2-2.3 2-1.3.6-3 .6z" aria-label="C" style="font-size:26.6667px;line-height:1.25;font-family:Bahnschrift;-inkscape-font-specification:Bahnschrift;text-align:center;text-anchor:middle;fill:#000"/><path d="m40.1 213.3 6.4-13.7h2.7L43 213h9.3v2.5H40.1Zm8.2-6h2.6v11.2h-2.6z" aria-label="4" style="font-size:26.6667px;line-height:1.25;font-family:Bahnschrift;-inkscape-font-specification:Bahnschrift;text-align:center;text-anchor:middle;fill:#000"/><path d="M46 258.7q-1.4 0-2.5-.6-1.1-.5-1.9-1.6-.6-1-.9-2.6h2.7q.1 1 .8 1.7.7.5 1.8.5 1.3 0 2-.8.7-.9.7-2.4v-1.6q0-1.6-.7-2.4-.7-.9-2-.9-.7 0-1.3.4-.7.4-1.1 1.1H41v-10h9.7v2.6h-7v4.2q.5-.4 1.1-.6.6-.2 1.3-.2 1.6 0 2.8.7 1.1.6 1.7 2 .6 1.2.6 3v1.7q0 1.8-.6 3.1t-1.8 2q-1.2.7-2.9.7z" aria-label="5" style="font-size:26.6667px;line-height:1.25;font-family:Bahnschrift;-inkscape-font-specification:Bahnschrift;text-align:center;text-anchor:middle;fill:#000"/><path d="M46 298.7q-1.6 0-2.8-.7-1.2-.7-1.8-2-.6-1.2-.6-3l.2-2.3q.2-1.1.7-2.2l.2-.4.2-.4 4-8.1h3l-4.9 9.4v-.5q.4-.6 1-1 .6-.3 1.4-.3 1.5 0 2.6.7 1 .7 1.6 2 .5 1.2.5 3t-.6 3.1q-.6 1.3-1.8 2-1.2.7-2.9.7zm0-2.6q1.3 0 2-.8.7-.7.7-2.2 0-1.6-.8-2.4-.7-1-2-1-1.2 0-1.8 1-.7.8-.7 2.4 0 1.5.7 2.3.7.7 2 .7z" aria-label="6" style="font-size:26.6667px;line-height:1.25;font-family:Bahnschrift;-inkscape-font-specification:Bahnschrift;text-align:center;text-anchor:middle;fill:#000"/><path d="M130.6 216h4.2q2.1 0 3.3-1.1 1.1-1.1 1.1-3.1v-5.6q0-2-1.1-3-1.2-1.1-3.3-1.1h-4.2v-2.5h4.2q2.2 0 3.9.7 1.6.8 2.4 2.4.9 1.5.9 3.6v5.4q0 2.1-.9 3.7-.8 1.5-2.5 2.3-1.6.8-3.9.8h-4.1zm-1.8-16.4h2.6v18.9h-2.6z" aria-label="D" style="font-size:26.6667px;line-height:1.25;font-family:Bahnschrift;-inkscape-font-specification:Bahnschrift;text-align:center;text-anchor:middle;fill:#000"/><path d="M129.5 239.6h2.7v18.9h-2.7zm1.3 16.4h10.9v2.5h-10.9zm0-8.2h9.5v2.5h-9.5zm0-8.2h10.9v2.5h-10.9z" aria-label="E" style="font-size:26.6667px;line-height:1.25;font-family:Bahnschrift;-inkscape-font-specification:Bahnschrift;text-align:center;text-anchor:middle;fill:#000"/><path d="M130 279.6h2.7v18.9h-2.6zm1.4 8.4h9.1v2.5h-9.1zm0-8.4H142v2.5h-10.6z" aria-label="F" style="font-size:26.6667px;line-height:1.25;font-family:Bahnschrift;-inkscape-font-specification:Bahnschrift;text-align:center;text-anchor:middle;fill:#000"/><path d="m176.2 75.2-5 16.5h-2.7l4.9-16.4h-4.9V78H166v-5.2h10.3z" aria-label="7" style="font-size:26.6667px;line-height:1.25;font-family:Bahnschrift;-inkscape-font-specification:Bahnschrift;text-align:center;text-anchor:middle;fill:#000"/><path d="M171.2 132q-1.8 0-3-.7-1.4-.7-2-1.9-.8-1.2-.8-2.7v-.3q0-1.5.7-2.7.7-1.3 2-2-1-.5-1.7-1.5-.6-1-.6-2.2v-.4q0-1.5.7-2.6.6-1.2 1.9-1.8 1.2-.6 2.8-.6 1.6 0 2.8.6 1.2.6 1.9 1.8.6 1 .6 2.6v.4q0 1.2-.6 2.2-.6 1-1.6 1.6 1.2.6 1.9 1.9.7 1.2.7 2.7v.3q0 1.5-.7 2.7-.7 1.2-2 1.9-1.3.6-3 .6zm0-2.6q.9 0 1.6-.4.7-.4 1-1 .5-.7.5-1.5v-.2q0-.9-.4-1.5-.4-.7-1.1-1-.7-.4-1.6-.4-1 0-1.7.3-.7.4-1 1-.4.7-.4 1.6v.2q0 .9.3 1.5.4.7 1.1 1 .7.4 1.7.4zm0-8.6q.8 0 1.4-.3.6-.4 1-1 .3-.6.3-1.5v-.2q0-.8-.4-1.4-.3-.6-1-1-.5-.2-1.3-.2t-1.4.3q-.7.3-1 1-.3.5-.3 1.3v.2q0 .9.3 1.5t1 1q.6.3 1.4.3z" aria-label="8" style="font-size:26.6667px;line-height:1.25;font-family:Bahnschrift;-inkscape-font-specification:Bahnschrift;text-align:center;text-anchor:middle;fill:#000"/><path d="M173 162.3v.5q-.4.6-1 .9-.7.3-1.6.3-1.3 0-2.4-.7-1-.7-1.6-2-.5-1.2-.5-2.9 0-1.8.6-3.1t1.8-2q1.2-.7 2.9-.7 1.6 0 2.8.7 1.2.7 1.8 2 .6 1.3.6 3.2l-.2 2.1q-.3 1.2-.8 2.3l-.1.4-.2.3-4 8.1h-2.9zm-1.8-.8q1.2 0 1.9-.8.7-.9.7-2.4t-.7-2.3q-.7-.8-2-.8-1.2 0-1.9.8t-.7 2.3q0 1.6.7 2.4.7.8 2 .8z" aria-label="9" style="font-size:26.6667px;line-height:1.25;font-family:Bahnschrift;-inkscape-font-specification:Bahnschrift;text-align:center;text-anchor:middle;fill:#000"/><path d="M267 81.5v3.3q0 2.1-.9 3.8-.8 1.6-2.3 2.5-1.5.8-3.5.8t-3.5-.8q-1.5-.8-2.3-2.3-.9-1.6-.9-3.5v-5.6q0-2.1.9-3.7.8-1.6 2.3-2.5 1.5-.9 3.5-.9 1.6 0 3 .7 1.3.7 2.3 2 .9 1.2 1.2 3H264q-.2-1-.8-1.7-.5-.7-1.3-1-.7-.4-1.5-.4-1.2 0-2.1.6-.9.5-1.4 1.5-.4 1-.4 2.4v5.6q0 1.2.4 2.1.5 1 1.4 1.4 1 .5 2.1.5 1.2 0 2-.5 1-.5 1.5-1.5.4-1 .4-2.4V84h-3.8v-2.6Z" aria-label="G" style="font-size:26.6667px;line-height:1.25;font-family:Bahnschrift;-inkscape-font-specification:Bahnschrift;text-align:center;text-anchor:middle;fill:#000"/><path d="M264.3 112.8h2.7v19h-2.7zm-10.7 0h2.6v19h-2.6zm1.6 8.3h10.6v2.6h-10.6z" aria-label="H" style="font-size:26.6667px;line-height:1.25;font-family:Bahnschrift;-inkscape-font-specification:Bahnschrift;text-align:center;text-anchor:middle;fill:#000"/><path d="M261.6 171.7H259v-18.9h2.6z" aria-label="I" style="font-size:26.6667px;line-height:1.25;font-family:Bahnschrift;-inkscape-font-specification:Bahnschrift;text-align:center;text-anchor:middle;fill:#000"/><g aria-label="10" style="font-size:26.6667px;line-height:1.25;font-family:Bahnschrift;-inkscape-font-specification:Bahnschrift;text-align:center;text-anchor:middle;fill:#000"><path d="M170.4 218.5h-2.7v-16L165 204v-2.8l2.7-1.7h2.7zM180 218.7q-2.6 0-4-1.4-1.3-1.5-1.3-4v-8.6q0-2.6 1.4-4 1.3-1.4 4-1.4 2.6 0 4 1.4t1.4 4v8.6q0 2.6-1.4 4t-4 1.4zm0-2.5q1.5 0 2.2-.8.6-.7.6-2.1v-8.6q0-1.4-.6-2.1-.7-.8-2.1-.8-1.4 0-2.1.8-.7.7-.7 2v8.7q0 1.4.7 2.1.7.8 2 .8z"/></g><g aria-label="11" style="font-size:26.6667px;line-height:1.25;font-family:Bahnschrift;-inkscape-font-specification:Bahnschrift;text-align:center;text-anchor:middle;fill:#000"><path d="M170.7 258.5h-2.6v-16l-2.7 1.6v-2.8l2.7-1.7h2.6zM179.6 258.5h-2.7v-16l-2.7 1.6v-2.8l2.7-1.7h2.7z"/></g><g aria-label="12" style="font-size:26.6667px;line-height:1.25;font-family:Bahnschrift;-inkscape-font-specification:Bahnschrift;text-align:center;text-anchor:middle;fill:#000"><path d="M170.5 298.5H168v-16l-2.7 1.6v-2.8l2.7-1.7h2.6zM174.5 296.2l6.6-8.8 1-1.6.2-1.5q0-1.2-.6-1.8-.7-.6-2-.6-1 0-1.8.7-.7.6-.9 1.9h-2.7q.2-1.6 1-2.8.7-1.1 1.8-1.7 1.2-.6 2.7-.6 1.7 0 2.9.5 1.2.6 1.8 1.7.6 1.1.6 2.7 0 1-.4 2.1-.4 1-1.2 2.1L178 296h7.2v2.5h-10.7z"/></g><path d="M258.8 218.7q-1.5 0-2.8-.6-1.3-.6-2-1.8l2.1-1.5q.4.6 1 1 .8.3 1.7.3 1.5 0 2.4-1 .8-.9.8-2.6v-13h2.7v13q0 2-.7 3.3-.7 1.4-2 2.1-1.3.8-3.2.8z" aria-label="J" style="font-size:26.6667px;line-height:1.25;font-family:Bahnschrift;-inkscape-font-specification:Bahnschrift;text-align:center;text-anchor:middle;fill:#000"/><path d="m256.2 250.2 8.3-10.6h3.3l-12 14.6Zm-2.1-10.6h2.6v18.9h-2.6zm5.2 8.8 2.1-2 7.2 12h-3.3z" aria-label="K" style="font-size:26.6667px;line-height:1.25;font-family:Bahnschrift;-inkscape-font-specification:Bahnschrift;text-align:center;text-anchor:middle;fill:#000"/><path d="M255 279.6h2.7v18.9H255zm1.3 16.4h10.9v2.5h-10.9z" aria-label="L" style="font-size:26.6667px;line-height:1.25;font-family:Bahnschrift;-inkscape-font-specification:Bahnschrift;text-align:center;text-anchor:middle;fill:#000"/><path d="m51.4 82.6 74.2 74.1M56.2 122.8l68-39.3M56.2 162.8l68-39.3M54.5 290l70-79.9M56.2 251.6h65.7M179.4 82.1h70.5M187.6 208.4l61.8 40.6M187.2 249.4h61.4M187.2 290.5l61.4-41" style="fill:#000;stroke:#000;stroke-width:2;stroke-miterlimit:4;stroke-dasharray:none"/><path d="M91.4 308.3c-8.6 0-9 0-9 1.2s.4 1.3 6.5 1.3c5.7 0 6.5.2 6.1 1a6 6 0 0 0-.4 1.7c0 .4-1.1.5-3.1.2-3.7-.5-5.9 0-5.9 1.3 0 1.5 2.6 2.4 5.6 2.1 2.4-.3 3 0 3.8 1 .9 1.3 1.3 3.7.6 3.7a14 14 0 0 1-2.4-1.3c-2.5-1.6-4.8-1.7-6.8-.3-2.4 1.7-1.5 5 1.8 6.3 3 1 7.5-.4 9.3-2.9 1.3-1.9 1.3-5 0-6.9-.8-1-.9-1.7-.4-2.2.4-.4.8-1.4.8-2.2 0-1 .3-1.5 1.3-1.5.8 0 1.2-.4 1.2-1.3 0-1.2-.4-1.2-9-1.2zm-1.8 13.5h.2c1.5 0 3.7 1.5 3.1 2.1-.7.8-3.9.5-4.6-.4-.9-1-.4-1.7 1.3-1.7zM216.4 308c-8 0-8.4 0-8.4 1.3 0 1.2.4 1.3 5.7 1.3 6 0 6.9.4 6.2 2.5-.3 1-.6 1-3 .4-3.6-1-6 .4-6 3.5 0 3 2.6 4.4 6.4 3.4 3.1-.9 3.5-.6 2.2 1.6-.8 1.5-1.4 1.8-3.8 1.8a17 17 0 0 1-4.3-.6c-1.2-.4-1.5-.3-1.5.8 0 1 .6 1.5 2.1 2 3.6 1 7.6.4 9.4-1.7 1.3-1.5 1.5-2.2 1.2-4.7-.5-4.2.2-9 1.2-9 .5 0 1-.6 1-1.3 0-1.2-.5-1.3-8.4-1.3zm-1.3 7.8c1 0 2.2.5 2.2 1.2 0 .6-.7 1-1.7 1.2-1.8.2-3-1-2-2 .4-.3.9-.4 1.5-.4zM210.4 46.5v3c0 2.4-.3 3.3-1.3 3.9-2.4 1.5-1.3 5.6 2 6.8 3.6 1.3 8.3-.8 8.3-3.8 0-1.4.3-1.6 2.6-1.6 2.2 0 2.6-.2 2.6-1.3 0-1-.4-1.2-2.6-1.2-2.3 0-2.6-.2-2.6-1.7 0-1.4.3-1.6 3-1.6 2.4 0 2.8-.2 2.8-1.3 0-1.2-.4-1.2-7.4-1.2zM215 49c1.7 0 2 .3 2 1.6 0 1.4-.3 1.7-2 1.7-1.6 0-2-.3-2-1.7 0-1.3.4-1.6 2-1.6zm-.9 5.8c3 0 3.7.9 2 2.5-1 1-4 1-5-.2-1.1-1.5-.1-2.3 3-2.3zM97.3 44.8c-.7 0-1.4.3-1.5.6-.2.5-1 .5-2.3 0C87 43.2 81 49.7 85 54.6c.7 1 1 2.1.9 2.7-.6 1.5.8 4.6 2.5 5.4.8.4 2.6.6 4 .4 1.4-.2 3.3-.3 4.3-.3h1.8v-9c0-8.5 0-9-1.2-9zm-6.4 2c1.5 0 3.2.8 4 2.1.7 1 1 2.6.9 4.3l-.2 2.8-3.4-4.3c-2.7-3.4-3.2-4.4-2.4-4.7.3-.2.7-.2 1.1-.2zm-3.6 2.5c.5 0 2.8 2.8 2.8 3.3 0 .3-.6.8-1.3 1.2-1 .6-1.4.5-1.9-1-.6-1.4-.3-3.5.4-3.5zm4.2 6.3c.5 0 1 .5 2.1 1.9 1.8 2.2 1.8 2.3.7 3.2-1.4 1-3.4 1-4.7.3-1.2-.8-.7-4 .9-5 .4-.3.7-.4 1-.4z" style="fill:#000;stroke-width:.644004"/></svg>