<svg xmlns="http://www.w3.org/2000/svg" viewBox="0 0 348 348" fill="none"><path d="M5.08 5.78h336.91v337.67H5.08z" stroke="#000" stroke-width="2"/><path d="M282.73 40.55c0-8.37 6.97-15.16 15.56-15.16 4.13 0 8.09 1.6 11 4.44a14.97 14.97 0 014.56 10.72c0 8.38-6.96 15.17-15.56 15.17-8.59 0-15.56-6.8-15.56-15.17zM65.88 83.34h215.31v32.32H65.88zM65.88 26.91h160.98v32.21H65.88z" stroke-width="2" stroke="#000"/><path stroke="#000" stroke-width="2.29" d="M51.24 207.91h30.47v30.47H51.24z"/><path stroke="#000" stroke-width="2" d="M61 287.26h10.95v10.95H61z"/><circle cx="280.6" cy="292.74" r="10.43" stroke="#000" stroke-width="2"/><path stroke="#000" stroke-width="2" d="M108.27 169.05h130.52v108.17H108.27z"/><path stroke="#000" stroke-width="2" d="M120.67 179.33h105.72v87.62H120.67z"/><path stroke="#000" stroke-width="2.29" d="M265.37 207.91h30.47v30.47h-30.47z"/><g aria-label="Row" style="line-height:1.25;-inkscape-font-specification:sans-serif" font-weight="400" font-size="26.67" font-family="sans-serif" letter-spacing="0" word-spacing="0" fill="#000"><path d="M136.3 52.5h-3.34l-6.49-7.7h-3.63v7.7h-2.58V33.13h5.43q1.76 0 2.93.23 1.18.23 2.11.81 1.06.67 1.64 1.68.6 1 .6 2.55 0 2.1-1.05 3.52-1.06 1.4-2.9 2.12zm-6.02-13.92q0-.84-.3-1.48-.29-.65-.97-1.09-.56-.38-1.32-.52-.77-.16-1.81-.16h-3.04v7.32h2.6q1.23 0 2.14-.2.91-.23 1.55-.81.59-.55.86-1.25.29-.72.29-1.81zM150.38 45.24q0 3.56-1.82 5.61-1.82 2.06-4.88 2.06-3.1 0-4.91-2.06-1.81-2.05-1.81-5.6 0-3.56 1.8-5.62 1.83-2.07 4.92-2.07 3.06 0 4.88 2.07 1.82 2.06 1.82 5.61zm-2.52 0q0-2.82-1.11-4.2-1.1-1.37-3.07-1.37-2 0-3.1 1.38-1.1 1.37-1.1 4.2 0 2.73 1.1 4.15 1.12 1.4 3.1 1.4 1.95 0 3.06-1.4 1.12-1.4 1.12-4.16zM172.48 37.96l-3.8 14.55h-2.26L162.7 41.3l-3.72 11.2h-2.25l-3.83-14.54h2.56l2.67 11.27 3.63-11.27h2.02l3.72 11.27 2.53-11.27z"/></g><g aria-label="Aboard" style="line-height:1.25;-inkscape-font-specification:sans-serif" font-weight="400" font-size="26.67" font-family="sans-serif" letter-spacing="0" word-spacing="0" fill="#000"><path d="M144.9 109.43h-2.74l-1.9-5.4h-8.38l-1.9 5.4h-2.62l7.05-19.39h3.44zm-5.43-7.62l-3.4-9.52-3.41 9.52zM160.46 102.05q0 1.82-.52 3.28-.51 1.46-1.38 2.44-.93 1.03-2.04 1.55-1.1.51-2.43.51-1.24 0-2.16-.3-.93-.28-1.83-.78l-.15.68h-2.3V89.17h2.45v7.24q1.03-.85 2.2-1.38 1.15-.55 2.6-.55 2.57 0 4.06 1.98 1.5 1.98 1.5 5.59zm-2.53.06q0-2.6-.86-3.94-.86-1.36-2.77-1.36-1.07 0-2.16.47-1.1.46-2.04 1.18v8.34q1.05.47 1.79.65.75.18 1.7.18 2.04 0 3.18-1.33 1.16-1.34 1.16-4.19zM176.67 102.16q0 3.56-1.83 5.61-1.82 2.06-4.88 2.06-3.08 0-4.9-2.06-1.82-2.05-1.82-5.6 0-3.56 1.81-5.62 1.83-2.07 4.91-2.07 3.06 0 4.88 2.07 1.83 2.06 1.83 5.61zm-2.53 0q0-2.82-1.1-4.19-1.11-1.38-3.08-1.38-2 0-3.1 1.38-1.1 1.37-1.1 4.2 0 2.73 1.12 4.15 1.1 1.4 3.08 1.4 1.95 0 3.06-1.4 1.12-1.4 1.12-4.16zM191.77 109.43h-2.43v-1.55l-.89.62q-.55.4-1.07.63-.6.3-1.4.5-.8.2-1.87.2-1.96 0-3.33-1.3t-1.37-3.32q0-1.65.7-2.67.72-1.03 2.04-1.61 1.33-.59 3.19-.8 1.86-.2 4-.31v-.38q0-.83-.3-1.38-.29-.55-.84-.86-.52-.3-1.25-.4-.73-.1-1.52-.1-.96 0-2.15.25-1.18.25-2.45.73h-.13V95.2q.72-.2 2.07-.43 1.36-.24 2.67-.24 1.54 0 2.67.26 1.15.25 1.98.86.82.6 1.25 1.55.43.95.43 2.36zm-2.43-3.58v-4.05q-1.12.06-2.65.2-1.5.12-2.4.37-1.05.3-1.7.94-.65.62-.65 1.73 0 1.25.76 1.89.75.62 2.3.62 1.29 0 2.36-.5 1.06-.5 1.98-1.2zM205.59 97.55h-.13q-.55-.13-1.07-.18-.5-.06-1.21-.06-1.14 0-2.19.5t-2.03 1.3v10.32h-2.45V94.88h2.45v2.15q1.46-1.17 2.56-1.65 1.12-.5 2.28-.5.64 0 .93.04l.86.12zM219.71 109.43h-2.44v-1.53q-1.06.92-2.2 1.42-1.15.51-2.5.51-2.6 0-4.13-2-1.53-2-1.53-5.56 0-1.85.53-3.3.53-1.44 1.43-2.46.88-.99 2.05-1.5 1.19-.53 2.45-.53 1.15 0 2.03.25.89.23 1.87.74v-6.3h2.44zm-2.44-3.58V97.5q-1-.44-1.77-.61-.79-.17-1.71-.17-2.06 0-3.2 1.43-1.15 1.43-1.15 4.06 0 2.6.89 3.95.88 1.34 2.83 1.34 1.05 0 2.11-.45 1.07-.47 2-1.2z"/></g><g aria-label="🡄🡆" style="line-height:1.25;-inkscape-font-specification:sans-serif" font-weight="400" font-size="26.67" font-family="sans-serif" letter-spacing="0" word-spacing="0" fill="#000"><path d="M56.84 223.14l9.63-9.64v4.82h9.64v9.64h-9.64v4.81zM290.24 223.14l-9.64-9.64v4.82h-9.64v9.64h9.64v4.81z"/></g></svg>