<svg xmlns="http://www.w3.org/2000/svg" fill="none" stroke="#000" stroke-width="2" viewBox="0 0 347 347"><path fill="#fff" d="M5 5h337v337H5z"/><circle cx="298" cy="40" r="16"/><path fill="#505050" fill-rule="evenodd" stroke="#e6e6ff" stroke-linejoin="round" stroke-width="5.4" d="M65 66.7h210V169H65z"/><path fill="#fff" stroke="none" d="M124.1 101.7V99h16.2v21.5h5.4v5.4h-5.4v10.8h-10.8V126H108v-10.8h5.4v-5.3h5.3v-5.4h5.4zm5.4 13.4v-5.4h-5.4v5.4h-5.4v5.4h10.8zm27-13.4V99h27v5.4h5.4V115h-5.4v5.5H178v5.3h-10.8v5.4h21.6v5.4H151V126h5.4v-5.4h5.4v-5.4h10.8v-5.3h5.4v-5.4h-16.2v5.4H151v-5.4h5.4zm48.6 0V99h16.1v5.4h5.5v5.4h5.3v16.1h-5.4v5.4h-5.4v5.4h-16.1v-5.4h-5.4V126h-5.4v-16.2h5.4v-5.4h5.4zm10.8 5.4v-2.7H205v21.5h5.4v5.4h10.7v-21.6h-5.4z" aria-label="420"/><path fill="#efd1a9" fill-rule="evenodd" stroke-linejoin="round" d="M56 226h25v25H56zm30 0h25v25H86zm30 0h25v25h-25zm30 0h25v25h-25zm30 0h25v25h-25zm30 0h25v25h-25zm30 0h25v25h-25zm30 0h25v25h-25zm30 0h25v25h-25zm-270 0h25v25H26zm15 30h25v25H41zm30 0h25v25H71zm30 0h25v25h-25zm30 0h25v25h-25zm30 0h25v25h-25zm30 0h25v25h-25zm30 0h25v25h-25zm30 0h25v25h-25zm30 0h25v25h-25zM56 286h25v25H56zm60 0h25v25h-25zm-30 0h25v25H86zm60 0h25v25h-25zm30 0h25v25h-25zm30 0h25v25h-25zm30 0h25v25h-25zm30 0h25v25h-25z"/><path fill="#000" stroke="none" d="m34.6 234.9 1.1.6-.2.6q-.7-.2-1.4-.8-.8.4-1.7.4-.9 0-1.6-.4-.7-.4-1.1-1.2-.4-.8-.4-1.8t.4-1.8 1.1-1.2q.7-.4 1.6-.4 1 0 1.7.4.7.5 1.1 1.2.4.8.4 1.8 0 .8-.3 1.5-.2.6-.7 1.1zm-2-1.1q.8.2 1.3.6.8-.7.8-2.1 0-.8-.3-1.4-.2-.6-.8-1-.5-.3-1.1-.3-1 0-1.7.7-.6.7-.6 2t.6 2q.7.7 1.7.7l.8-.2-.8-.4z" aria-label="Q"/><path fill="#000" stroke="none" d="m60 235.8-1.8-6.6h1l1 4.3.2 1.4.3-1.2 1.3-4.5h1l1 3.3.5 2.4.3-1.5 1-4.2h1l-1.9 6.6h-.8l-1.4-5-.2-.8-.2.8-1.4 5z" aria-label="W"/><path fill="#000" stroke="none" d="M90 235.8v-6.6h4.8v.8H91v2h3.7v.8H91v2.2h4v.8z" aria-label="E"/><path fill="#000" stroke="none" d="M119.6 235.8v-6.6h3q.8 0 1.3.2.4.1.7.6.3.5.3 1 0 .7-.5 1.2-.4.5-1.4.6l.5.3.8 1 1.1 1.7h-1l-1-1.4-.6-.9-.4-.4-.4-.2h-1.5v3zm.9-3.7h1.8l1-.1q.3-.1.5-.4l.2-.6q0-.5-.4-.8t-1-.3h-2.1z" aria-label="R"/><path fill="#000" stroke="none" d="M152 235.8V230h-2v-.8h5.2v.8H153v5.8z" aria-label="T"/><path fill="#000" stroke="none" d="M182 235.8V233l-2.5-3.8h1l1.3 2 .7 1.1.7-1.2 1.3-2h1l-2.6 4v2.7z" aria-label="Y"/><path fill="#000" stroke="none" d="M214.2 229.1h.9v3.9q0 1-.2 1.5-.3.6-.8 1-.6.4-1.6.4t-1.5-.4q-.6-.3-.8-.9-.3-.6-.3-1.6v-4h.9v3.9l.1 1.2q.2.4.6.7.4.2 1 .2.9 0 1.3-.5.4-.4.4-1.6z" aria-label="U"/><path fill="#000" stroke="none" d="M242 235.8v-6.6h1v6.6z" aria-label="I"/><path fill="#000" stroke="none" d="M269.3 232.6q0-1.7 1-2.6.8-1 2.2-1 1 0 1.7.5.7.4 1 1.2.5.8.5 1.8t-.4 1.8-1.2 1.2q-.7.4-1.6.4-1 0-1.7-.4-.7-.5-1-1.3-.5-.7-.5-1.6zm1 0q0 1.2.6 1.9t1.6.7q1 0 1.6-.7.7-.7.7-2 0-.8-.3-1.4-.3-.6-.8-1-.5-.3-1.2-.3-1 0-1.6.7t-.7 2.1z" aria-label="O"/><path fill="#000" stroke="none" d="M300 235.8v-6.6h3.5q.5.1.8.4.3.2.5.6.2.4.2.9 0 .9-.5 1.4-.5.6-2 .6H301v2.7zm.9-3.5h1.7q.8 0 1.2-.3.3-.3.3-.9 0-.4-.2-.7-.2-.3-.5-.4h-2.5z" aria-label="P"/><path fill="#000" stroke="none" d="m44.4 265.8 2.5-6.6h1l2.7 6.6h-1l-.8-2h-2.7l-.8 2zm2-2.7h2.2l-.7-1.8-.5-1.4-.4 1.3z" aria-label="A"/><path fill="#000" stroke="none" d="M74.9 263.7h.8q0 .4.3.7.2.3.6.5l1 .2 1-.1q.4-.1.5-.4l.2-.6q0-.3-.2-.5-.2-.3-.6-.4l-1.2-.3-1.2-.5q-.5-.2-.8-.6-.2-.3-.2-.8t.3-1q.3-.4.8-.6l1.2-.2q.8 0 1.3.2.6.2 1 .7l.2 1-.8.1q0-.6-.5-1-.4-.3-1.1-.3-.8 0-1.2.4-.3.2-.3.7 0 .3.2.5.3.3 1.3.5l1.5.4q.6.3.9.7.2.4.2 1 0 .5-.3 1-.3.4-.8.7-.6.2-1.3.2-1 0-1.5-.2-.6-.3-1-.8-.3-.5-.3-1.2z" aria-label="S"/><path fill="#000" stroke="none" d="M104.8 265.8v-6.6h3.4q.6.2 1 .6.5.4.8 1 .2.8.2 1.7l-.1 1.3-.5 1-.6.6-.8.3-1 .1zm.8-.8h2.5l.6-.4q.3-.3.5-.9l.1-1.2q0-1-.3-1.6-.4-.6-.8-.8l-1.2-.1h-1.4z" aria-label="D"/><path fill="#000" stroke="none" d="M135.3 265.8v-6.6h4.4v.8h-3.6v2h3.1v.8h-3v3z" aria-label="F"/><path fill="#000" stroke="none" d="M167.8 263.2v-.8h2.8v2.5l-1.4.8-1.4.2q-1 0-1.8-.4t-1.2-1.2q-.4-.8-.4-1.8t.4-1.8q.4-.8 1.2-1.2.8-.4 1.7-.4.8 0 1.4.2.5.2.9.7l.5 1-.8.3-.4-.8q-.2-.3-.6-.5-.4-.2-1-.2l-1 .2-.7.5q-.3.3-.4.7-.3.6-.3 1.3 0 .9.3 1.5.4.6 1 .8.5.3 1.2.3l1-.2q.6-.2.9-.5v-1.2z" aria-label="G"/><path fill="#000" stroke="none" d="M194.9 265.8v-6.6h.9v2.7h3.4v-2.7h.9v6.6h-.9v-3.1h-3.4v3.1z" aria-label="H"/><path fill="#000" stroke="none" d="m225.7 263.9.8-.1q0 .7.3 1 .2.3.7.3.3 0 .5-.2.3-.1.4-.4v-5.4h1v4.5q0 .9-.3 1.3-.2.5-.6.7-.4.3-1 .3-1 0-1.4-.5-.4-.5-.4-1.5z" aria-label="J"/><path fill="#000" stroke="none" d="M254.8 265.8v-6.6h.8v3.3l3.3-3.3h1.2l-2.8 2.7 3 4H259l-2.4-3.4-1 1v2.3z" aria-label="K"/><path fill="#000" stroke="none" d="M285.4 265.8v-6.6h1v5.8h3.2v.8z" aria-label="L"/><path fill="#000" stroke="none" d="M59.9 295.8v-.8l3.4-4.2q.3-.5.7-.8h-3.7v-.8H65v.8l-3.7 4.6-.4.4H65v.8z" aria-label="Z"/><path fill="#000" stroke="none" d="m89.5 295.8 2.5-3.4-2.2-3.2h1l1.2 1.7.6.8.5-.8 1.3-1.7h1l-2.4 3.1 2.5 3.5h-1l-1.7-2.4q-.2-.1-.3-.4l-.3.5-1.7 2.3z" aria-label="X"/><path fill="#000" stroke="none" d="m124.5 293.5 1 .2q-.3 1-1 1.7-.8.5-1.8.5t-1.8-.4q-.6-.4-1-1.3-.3-.8-.3-1.7 0-1 .4-1.8t1-1.2q.8-.4 1.7-.4 1 0 1.7.5t1 1.4l-1 .2q-.2-.7-.6-1-.5-.4-1.1-.4-.8 0-1.3.4t-.7 1q-.2.6-.2 1.3 0 .8.2 1.4.3.7.8 1 .5.3 1.1.3.8 0 1.3-.4.5-.5.7-1.3z" aria-label="C"/><path fill="#000" stroke="none" d="m152 295.8-2.5-6.6h1l1.6 4.8.4 1 .3-1 1.8-4.8h1l-2.7 6.6z" aria-label="V"/><path fill="#000" stroke="none" d="M180 295.8v-6.6h2.5q.7 0 1.2.2t.7.6q.3.4.3.9 0 .4-.3.8-.2.4-.7.6.7.2 1 .6.3.4.3 1 0 .5-.2.9t-.5.6l-.7.3-1 .1zm.9-3.8h1.4l.8-.1q.4-.1.5-.3l.2-.6-.1-.6-.5-.3-1-.1h-1.3zm0 3h2.2q.3 0 .5-.2l.4-.3v-.6l-.1-.6q-.2-.3-.5-.4l-1-.1H181z" aria-label="B"/><path fill="#000" stroke="none" d="M209.9 295.8v-6.6h.9l3.5 5.2v-5.2h.8v6.6h-.9l-3.5-5.2v5.2z" aria-label="N"/><path fill="#000" stroke="none" d="M239.3 295.8v-6.6h1.4l1.5 4.7.3 1 .4-1.1 1.6-4.6h1.2v6.6h-.9v-5.5l-2 5.5h-.7l-2-5.6v5.6z" aria-label="M"/><path fill="#000" stroke="none" d="m270.4 296 .4-2h-.8v-.7h1l.3-1.6H270v-.7h1.4l.4-2h.7l-.4 2h1.4l.4-2h.7l-.4 2h.8v.7h-1l-.3 1.6h1.3v.7h-1.4l-.4 2h-.7l.4-2h-1.4l-.4 2zm1.2-2.7h1.4l.4-1.6h-1.5z" aria-label="#"/><path fill="#00c800" fill-rule="evenodd" stroke-linejoin="round" stroke-width="1.8" d="M70.4 180.8H155v32H70.4z"/><path fill="#fff" stroke="none" d="m84.7 199.2 1.6-.2q.1 1 .5 1.7.5.6 1.4 1 .9.4 2 .4 1 0 1.7-.3t1.1-.8q.4-.6.4-1.2t-.3-1q-.4-.5-1.2-.8l-2.3-.7q-1.9-.4-2.6-.8-1-.5-1.4-1.2-.4-.7-.4-1.6 0-1 .5-1.9.6-.8 1.7-1.3 1-.4 2.4-.4t2.5.4q1.2.5 1.8 1.4.6 1 .6 2l-1.7.2q-.1-1.2-.9-1.9-.7-.6-2.3-.6-1.5 0-2.3.6-.7.5-.7 1.4 0 .7.5 1.1.5.5 2.7 1 2 .4 2.9.8 1.1.5 1.7 1.3.5.8.5 1.9 0 1-.6 2-.6.9-1.7 1.4-1.1.5-2.6.5-1.7 0-3-.5-1.1-.5-1.8-1.5-.7-1.1-.7-2.4zm18.8 4.2V202q-1.1 1.6-3 1.6-.9 0-1.6-.3-.7-.3-1-.8-.4-.5-.6-1.2v-7.5h1.5v5.4l.1 1.7q.2.6.7 1 .5.3 1.2.3t1.4-.3q.6-.4.9-1 .2-.7.2-2v-5h1.6v9.5zm5.4 0h-1.5v-13.1h1.7v4.7q1-1.3 2.6-1.3.8 0 1.6.3.8.4 1.3 1 .5.7.8 1.6.3.9.3 1.9 0 2.5-1.2 3.8-1.2 1.3-3 1.3-1.6 0-2.6-1.4zm0-4.8q0 1.7.5 2.5.8 1.2 2 1.2 1.1 0 1.9-1 .7-.8.7-2.7 0-1.8-.7-2.7-.7-.9-1.8-.9t-1.8 1q-.8.8-.8 2.6zm8.7 4.8v-9.5h1.5v1.3q.4-.7 1.2-1 .7-.5 1.7-.5t1.7.4q.7.5 1 1.3 1-1.7 2.9-1.7 1.4 0 2.2.8.7.7.7 2.4v6.5H129v-6l-.1-1.4q-.2-.4-.6-.7-.4-.2-1-.2-1 0-1.6.7-.7.6-.7 2v5.6h-1.6v-6.2q0-1-.4-1.6-.4-.5-1.3-.5-.7 0-1.3.3-.5.4-.8 1-.2.8-.2 2v5zm15.3-11.3v-1.8h1.6v1.8zm0 11.3v-9.5h1.6v9.5zm7.6-1.4.2 1.4-1.2.1q-.9 0-1.3-.3-.5-.2-.7-.7-.2-.4-.2-1.9v-5.5H136V194h1.2v-2.4l1.6-1v3.4h1.6v1.2h-1.6v6.5l.3.3.6.1h.7z" aria-label="Submit"/><path fill="#c80000" fill-rule="evenodd" stroke-linejoin="round" stroke-width="1.8" d="M175.4 180H260v32h-84.6z"/><path fill="#fff" stroke="none" d="m206 198 1.7.4q-.5 2.1-2 3.3-1.4 1-3.4 1-2.1 0-3.5-.8-1.3-.8-2-2.5-.7-1.6-.7-3.5 0-2 .8-3.6.8-1.5 2.2-2.3 1.5-.8 3.2-.8 2 0 3.3 1 1.4 1 1.9 2.8l-1.7.4q-.5-1.4-1.3-2-.9-.7-2.2-.7-1.5 0-2.6.7-1 .8-1.4 2-.4 1.2-.4 2.5 0 1.7.5 3t1.5 1.8q1 .6 2.3.6 1.4 0 2.4-.8 1-.9 1.4-2.5zm3.6 4.6v-13.2h1.6v13.2zm10.6-3.1 1.7.2q-.4 1.5-1.5 2.3-1 .8-2.7.8-2 0-3.3-1.3-1.2-1.3-1.2-3.6 0-2.4 1.2-3.7 1.3-1.3 3.2-1.3 2 0 3.1 1.3 1.3 1.2 1.3 3.6v.4h-7.1q0 1.6.9 2.4.7.9 2 .9.8 0 1.4-.5.7-.5 1-1.5zm-5.3-2.6h5.4q-.1-1.2-.6-1.8-.8-1-2-1t-2 .8q-.7.8-.8 2zm15.2 4.5q-.9.8-1.7 1-.8.4-1.8.4-1.5 0-2.4-.8-.8-.7-.8-2 0-.6.3-1.2t.8-1l1.2-.5 1.4-.2q2-.3 2.9-.6v-.4q0-1-.5-1.4-.6-.5-1.8-.5-1.1 0-1.7.4-.5.4-.8 1.4l-1.5-.2q.2-1 .7-1.7.5-.6 1.4-1 1-.2 2.1-.2 1.3 0 2 .2.8.3 1.1.8.4.4.5 1l.1 1.5v2.2l.1 2.8.4 1.2h-1.7l-.3-1.2zm-.1-3.6-2.6.6q-1 .1-1.4.3-.5.2-.7.6-.2.3-.2.7 0 .7.5 1 .5.5 1.4.5 1 0 1.7-.4t1-1.1q.3-.6.3-1.6zm4.1 4.8V193h1.4v1.4q.6-1 1-1.3.5-.4 1.1-.4.8 0 1.7.6l-.6 1.5q-.6-.4-1.2-.4-.5 0-1 .3-.3.3-.5 1-.3.8-.3 1.8v5z" aria-label="Clear"/></svg>