<svg xmlns="http://www.w3.org/2000/svg" viewBox="0 0 89.671 89.871" height="339.67" width="338.913"><g fill="none" stroke="#000" stroke-width="2"><path d="M.265.265h89.141v89.341H.265z" stroke-width=".52916"/><path d="M73.727 9.466c0-2.216 1.844-4.012 4.117-4.012a4.17 4.17 0 012.911 1.175 3.962 3.962 0 011.206 2.837c0 2.216-1.843 4.013-4.117 4.013-2.273 0-4.117-1.797-4.117-4.013z" stroke-width=".52916"/></g><path fill="none" stroke="#000" stroke-width=".265" d="M8.332 67.091h71.495v16.704H8.332zM8.4 45.108h71.494v16.704H8.4zM8.4 23.192h71.494v16.704H8.4z"/><path stroke="#000" stroke-width=".265" d="M8.332 5.753H61.92V18.85H8.332z"/><g style="line-height:1.25" aria-label="Button A" font-weight="400" font-size="10.583" font-family="sans-serif" stroke-width=".265"><path d="M27.464 33.454q0 .574-.217 1.013-.217.44-.584.724-.434.34-.956.485-.517.145-1.318.145h-2.728v-7.695h2.279q.842 0 1.26.062.42.062.802.259.423.222.614.573.192.347.192.832 0 .548-.28.936-.278.382-.744.615v.041q.78.16 1.23.687.45.522.45 1.323zm-1.72-3.467q0-.28-.094-.47-.093-.192-.3-.31-.242-.14-.589-.171-.346-.036-.858-.036h-1.22v2.222h1.324q.48 0 .765-.047.284-.051.527-.206.243-.155.34-.398.104-.248.104-.584zm.655 3.509q0-.465-.14-.74-.139-.273-.506-.464-.248-.13-.604-.166-.352-.041-.858-.041h-1.607v2.863h1.354q.672 0 1.1-.067.43-.073.703-.259.29-.201.424-.46.134-.258.134-.666zM33.624 35.821h-.972v-.64q-.49.387-.94.594-.45.206-.992.206-.91 0-1.416-.553-.507-.558-.507-1.633V30.05h.972v3.286q0 .44.041.755.041.31.176.532.14.228.361.33.223.104.646.104.378 0 .822-.196.45-.197.837-.501v-4.31h.972zM38.533 35.77q-.274.072-.6.118-.32.047-.573.047-.884 0-1.344-.476-.46-.475-.46-1.524v-3.07H34.9v-.816h.656V28.39h.972v1.659h2.005v.816h-2.005v2.63q0 .455.02.714.021.253.145.475.114.207.31.305.202.093.61.093.238 0 .496-.067.259-.072.372-.119h.052zM42.708 35.77q-.273.072-.599.118-.32.047-.574.047-.883 0-1.343-.476-.46-.475-.46-1.524v-3.07h-.656v-.816h.656V28.39h.971v1.659h2.005v.816h-2.005v2.63q0 .455.021.714.02.253.145.475.113.207.31.305.201.093.61.093.237 0 .496-.067.258-.072.372-.119h.052zM48.806 32.938q0 1.41-.723 2.227-.724.816-1.938.816-1.225 0-1.948-.816-.719-.817-.719-2.227 0-1.411.719-2.228.723-.821 1.948-.821 1.214 0 1.938.821.723.817.723 2.228zm-1.002 0q0-1.122-.44-1.664-.439-.548-1.22-.548-.79 0-1.229.548-.434.542-.434 1.664 0 1.085.44 1.648.438.558 1.224.558.775 0 1.214-.553.445-.558.445-1.653zM55.142 35.821h-.972v-3.287q0-.397-.046-.744-.047-.351-.17-.547-.13-.218-.373-.32-.243-.11-.63-.11-.398 0-.832.197-.434.196-.832.501v4.31h-.972v-5.772h.972v.64q.454-.377.94-.589.486-.211.998-.211.935 0 1.426.563.49.563.49 1.623zM66.877 35.821h-1.09l-.754-2.145h-3.328l-.755 2.145h-1.039l2.801-7.695h1.365zm-2.16-3.023L63.37 29.02l-1.354 3.778z"/></g><g style="line-height:1.25" aria-label="Button B" font-weight="400" font-size="10.583" font-family="sans-serif" stroke-width=".265"><path d="M27.082 54.995q0 .574-.217 1.013-.217.439-.584.723-.434.341-.956.486-.516.145-1.317.145h-2.729v-7.695h2.279q.842 0 1.26.062.42.062.802.258.424.223.615.574.191.346.191.832 0 .548-.28.935-.278.383-.743.615v.042q.78.16 1.23.687.45.522.45 1.323zm-1.72-3.468q0-.279-.094-.47-.093-.191-.3-.31-.242-.14-.588-.17-.347-.037-.858-.037h-1.22v2.222h1.323q.48 0 .765-.046.284-.052.527-.207.243-.155.341-.398.103-.248.103-.584zm.656 3.51q0-.466-.14-.74-.14-.274-.506-.465-.248-.129-.605-.165-.351-.041-.858-.041h-1.607v2.862h1.354q.672 0 1.1-.067.43-.072.704-.258.289-.202.423-.46.135-.259.135-.667zM33.242 57.362h-.971v-.641q-.491.387-.94.594-.45.207-.993.207-.91 0-1.416-.553-.506-.558-.506-1.633v-3.747h.971v3.287q0 .44.041.755.042.31.176.532.14.227.362.33.222.104.646.104.377 0 .821-.197.45-.196.838-.5v-4.31h.971zM38.151 57.31q-.274.072-.6.119-.32.046-.573.046-.883 0-1.343-.475-.46-.475-.46-1.525v-3.07h-.657v-.816h.657v-1.658h.971v1.658h2.005v.817h-2.005v2.63q0 .455.021.713.02.254.145.476.113.206.31.305.201.093.61.093.237 0 .496-.068.258-.072.372-.118h.051zM42.327 57.31q-.274.072-.6.119-.32.046-.573.046-.884 0-1.344-.475-.46-.475-.46-1.525v-3.07h-.656v-.816h.656v-1.658h.972v1.658h2.005v.817h-2.005v2.63q0 .455.02.713.021.254.145.476.114.206.31.305.202.093.61.093.238 0 .496-.068.258-.072.372-.118h.052zM48.425 54.478q0 1.41-.724 2.227-.723.817-1.938.817-1.224 0-1.948-.817-.718-.816-.718-2.227 0-1.41.718-2.227.724-.822 1.948-.822 1.215 0 1.938.822.724.816.724 2.227zm-1.003 0q0-1.121-.44-1.664-.438-.548-1.219-.548-.79 0-1.23.548-.434.543-.434 1.664 0 1.085.44 1.649.439.558 1.224.558.775 0 1.215-.553.444-.558.444-1.654zM54.76 57.362h-.971v-3.287q0-.398-.047-.744-.046-.351-.17-.548-.13-.217-.373-.32-.242-.109-.63-.109-.398 0-.832.197-.434.196-.832.5v4.31h-.971V51.59h.971v.641q.455-.377.94-.589.486-.212.998-.212.935 0 1.426.564.491.563.491 1.622zM66.232 54.995q0 .574-.217 1.013-.217.439-.584.723-.434.341-.956.486-.517.145-1.318.145H60.43v-7.695h2.279q.842 0 1.26.062.42.062.802.258.424.223.615.574.19.346.19.832 0 .548-.278.935-.28.383-.744.615v.042q.78.16 1.23.687.45.522.45 1.323zm-1.72-3.468q0-.279-.094-.47-.093-.191-.3-.31-.242-.14-.588-.17-.347-.037-.858-.037h-1.22v2.222h1.323q.48 0 .765-.046.284-.052.527-.207.243-.155.341-.398.103-.248.103-.584zm.656 3.51q0-.466-.14-.74-.14-.274-.506-.465-.248-.129-.605-.165-.351-.041-.858-.041h-1.607v2.862h1.354q.672 0 1.1-.067.43-.072.704-.258.289-.202.423-.46.135-.259.135-.667z"/></g><g style="line-height:1.25" aria-label="Button C" font-weight="400" font-size="10.583" font-family="sans-serif" stroke-width=".265"><path d="M27.082 76.911q0 .574-.217 1.013-.217.44-.584.723-.434.341-.956.486-.516.145-1.317.145h-2.729v-7.695h2.279q.842 0 1.26.062.42.062.802.259.424.222.615.573.191.346.191.832 0 .548-.28.935-.278.383-.743.615v.042q.78.16 1.23.687.45.522.45 1.323zm-1.72-3.467q0-.28-.094-.47-.093-.192-.3-.31-.242-.14-.588-.171-.347-.037-.858-.037h-1.22v2.223h1.323q.48 0 .765-.047.284-.052.527-.207.243-.155.341-.398.103-.248.103-.584zm.656 3.508q0-.465-.14-.739-.14-.274-.506-.465-.248-.129-.605-.165-.351-.041-.858-.041h-1.607v2.862h1.354q.672 0 1.1-.067.43-.072.704-.258.289-.202.423-.46.135-.258.135-.667zM33.242 79.278h-.971v-.641q-.491.388-.941.594-.45.207-.992.207-.91 0-1.416-.553-.506-.558-.506-1.633v-3.746h.971v3.286q0 .44.041.755.042.31.176.532.14.227.362.33.222.104.646.104.377 0 .821-.196.45-.197.838-.502v-4.31h.971zM38.151 79.226q-.274.072-.6.119-.32.046-.573.046-.883 0-1.343-.475-.46-.475-.46-1.524v-3.07h-.657v-.816h.657v-1.66h.971v1.66h2.005v.816h-2.005v2.63q0 .455.021.713.02.254.145.476.113.207.31.305.201.093.61.093.237 0 .496-.067.258-.073.372-.12h.051zM42.327 79.226q-.274.072-.6.119-.32.046-.573.046-.884 0-1.344-.475-.46-.475-.46-1.524v-3.07h-.656v-.816h.656v-1.66h.972v1.66h2.005v.816h-2.005v2.63q0 .455.02.713.021.254.145.476.114.207.31.305.202.093.61.093.238 0 .496-.067.258-.073.372-.12h.052zM48.425 76.394q0 1.411-.724 2.227-.723.817-1.938.817-1.224 0-1.948-.817-.718-.816-.718-2.227 0-1.41.718-2.227.724-.822 1.948-.822 1.215 0 1.938.822.724.816.724 2.227zm-1.003 0q0-1.121-.44-1.664-.438-.548-1.219-.548-.79 0-1.23.548-.434.543-.434 1.664 0 1.085.44 1.649.439.558 1.224.558.775 0 1.215-.553.444-.558.444-1.654zM54.76 79.278h-.971V75.99q0-.398-.047-.744-.046-.351-.17-.548-.13-.217-.373-.32-.242-.109-.63-.109-.398 0-.832.197-.434.196-.832.501v4.31h-.971v-5.772h.971v.64q.455-.377.94-.589.486-.212.998-.212.935 0 1.426.564.491.563.491 1.622zM66.372 78.72q-.284.124-.517.232-.227.109-.6.228-.315.098-.687.165-.367.072-.811.072-.837 0-1.525-.232-.682-.238-1.188-.74-.496-.49-.775-1.245-.28-.76-.28-1.762 0-.95.27-1.7.268-.75.775-1.266.49-.501 1.183-.765.698-.263 1.545-.263.62 0 1.235.15.62.15 1.375.527v1.214h-.078q-.635-.532-1.26-.775-.626-.243-1.34-.243-.583 0-1.053.191-.465.186-.832.584-.357.388-.558.982-.197.59-.197 1.364 0 .812.217 1.396.222.583.569.95.361.383.842.569.486.18 1.023.18.74 0 1.385-.253.646-.253 1.21-.76h.072z"/></g><g style="line-height:1.25" aria-label="[Display]" font-weight="400" font-size="8.059" font-family="sans-serif" stroke-width=".201" fill="#fff"><path d="M19.446 16.353h-1.973v-7.95h1.973v.584h-1.313v6.783h1.313zM25.635 11.721q0 .829-.338 1.502-.334.673-.892 1.045-.387.257-.865.371-.474.114-1.252.114H20.86V8.677h1.412q.827 0 1.313.13.49.127.827.351.577.388.899 1.033.323.645.323 1.53zm-.786-.012q0-.714-.231-1.204-.232-.49-.69-.771-.335-.204-.71-.282-.376-.082-.9-.082h-.705v4.69h.705q.543 0 .945-.086.406-.086.744-.318.421-.29.63-.764.212-.473.212-1.183zM27.566 9.432h-.805v-.796h.805zm-.046 5.321h-.713v-4.558h.713zM31.967 13.44q0 .624-.482 1.024-.478.4-1.309.4-.47 0-.865-.119-.39-.122-.656-.265v-.861h.038q.338.273.751.437.414.159.793.159.47 0 .736-.164.266-.163.266-.514 0-.27-.144-.408-.145-.139-.554-.237-.152-.036-.399-.085-.243-.05-.444-.106-.557-.16-.793-.466-.231-.31-.231-.759 0-.281.106-.53.11-.25.33-.445.213-.192.539-.302.33-.114.736-.114.38 0 .767.102.39.098.648.24v.82h-.038q-.273-.216-.664-.362-.39-.151-.766-.151-.39 0-.66.163-.27.159-.27.477 0 .282.163.425.16.143.517.232.197.05.44.098.246.05.41.09.497.123.766.42.27.302.27.8zM36.722 12.419q0 .555-.148 1.016-.148.457-.418.776-.25.302-.592.469-.337.163-.717.163-.33 0-.6-.077-.265-.078-.542-.241v1.91h-.713v-6.24h.713v.477q.285-.257.638-.428.356-.176.758-.176.767 0 1.192.625.429.62.429 1.726zm-.736.02q0-.824-.262-1.232-.262-.408-.805-.408-.307 0-.618.143t-.596.375v2.584q.304.146.52.2.22.053.497.053.596 0 .93-.433.334-.433.334-1.282zM38.554 14.753h-.713v-6.35h.713zM43.267 14.753h-.71v-.485q-.094.07-.258.196-.159.122-.31.196-.18.093-.41.155-.232.065-.543.065-.573 0-.971-.408-.399-.408-.399-1.04 0-.52.205-.837.209-.323.592-.507.387-.183.93-.248.542-.066 1.164-.098v-.119q0-.26-.087-.432-.083-.172-.243-.27-.151-.094-.364-.126-.212-.033-.444-.033-.28 0-.626.082-.345.077-.713.228h-.038v-.78q.208-.06.603-.134.395-.073.778-.073.448 0 .778.081.334.078.576.27.24.187.365.485t.125.739zm-.71-1.122v-1.27q-.326.021-.77.062-.44.04-.698.118-.307.094-.497.294-.19.196-.19.543 0 .392.22.592.22.196.672.196.376 0 .687-.155.31-.16.576-.38zM48.253 10.195l-2.474 6.24h-.763l.79-1.902-1.69-4.338h.775l1.301 3.379 1.313-3.38zM51.106 16.353h-1.973v-.583h1.313V8.987h-1.313v-.584h1.973z"/></g></svg>