<svg xmlns="http://www.w3.org/2000/svg" fill="none" viewBox="0 0 348 348"><path stroke="#000" stroke-width="2" d="M5 6h337v337H5z"/><path stroke="#000" stroke-width="2" d="M283 41c0-9 7-16 15-16 4 0 8 2 11 5s5 7 5 11c0 8-7 15-16 15-8 0-15-7-15-15z"/><path stroke="#000" stroke-width="2.2" d="M169 245a63 63 0 0 1-63 62 63 63 0 0 1-63-62 63 63 0 0 1 63-63 63 63 0 0 1 63 63z"/><path stroke="#000" stroke-width="2.2" d="M246 245a63 63 0 0 1-62 62 63 63 0 0 1-63-62 63 63 0 0 1 63-63 63 63 0 0 1 62 63z"/><path stroke="#000" stroke-width="2.2" d="M208 177a63 63 0 0 1-63 63 63 63 0 0 1-63-63 63 63 0 0 1 63-63 63 63 0 0 1 63 63z"/><path stroke="#000" stroke-width="2.2" d="M195 245a89 89 0 0 1-89 88 89 89 0 0 1-89-88 89 89 0 0 1 89-89 89 89 0 0 1 89 89z"/><path stroke="#000" stroke-width="2.2" d="M234 177a89 89 0 0 1-89 89 89 89 0 0 1-89-89 89 89 0 0 1 89-89 89 89 0 0 1 89 89Z"/><path stroke="#000" stroke-width="2.2" d="M273 245a89 89 0 0 1-89 88 89 89 0 0 1-89-88 89 89 0 0 1 89-89 89 89 0 0 1 89 89zM312 130a25 25 0 0 1-25 24 25 25 0 0 1-24-24 25 25 0 0 1 24-25 25 25 0 0 1 25 25z"/><path stroke="#000" stroke-width="2.4" d="M329 130a42 42 0 0 1-41 41 42 42 0 0 1-42-41 42 42 0 0 1 42-42 42 42 0 0 1 41 42z"/><path stroke="#000" stroke-width="2" d="M18 20h245v49H18z"/><path stroke="#000" stroke-width="2" d="M28 29h227v31H28z"/></svg>