<svg xmlns="http://www.w3.org/2000/svg" fill="none" stroke="#000" stroke-width="2" viewBox="0 0 347 347"><path d="M5 5h337v337H5z"/><circle cx="298" cy="40" r="16"/><path stroke-width="1.7" d="M10.96 142.5h35.65v62.01H10.96z"/><path stroke-width="1.7" d="M16.77 154.7H40.8v37.59H16.77z"/><path stroke="#ff0" stroke-width="3.19" d="M16.77 175.05V154.7H40.8v20.35"/><path stroke="#ff0" stroke-width="3.41" d="M29.17 154.7v-13.93"/><path stroke-width="1.7" d="M52.33 142.5h35.65v62.01H52.33z"/><path stroke-width="1.7" d="M58.14 154.7h24.03v37.59H58.14z"/><path stroke="red" stroke-width="3.19" d="M58.14 175.05V154.7h24.03v20.35"/><path stroke="red" stroke-width="3.41" d="M70.54 154.7v-13.93"/><path stroke-width="1.7" d="M93.7 142.5h35.65v62.01H93.7z"/><path stroke-width="1.7" d="M99.52 154.7h24.03v37.59H99.52z"/><path stroke="green" stroke-width="3.19" d="M99.52 175.05V154.7h24.02v20.35"/><path stroke="green" stroke-width="3.41" d="M111.92 154.7v-13.93"/><path stroke-width="1.7" d="M135.07 142.5h35.65v62.01h-35.65z"/><path stroke-width="1.7" d="M140.89 154.7h24.03v37.59h-24.03z"/><path stroke="#00f" stroke-width="3.19" d="M140.89 175.05V154.7h24.03v20.35"/><path stroke="#00f" stroke-width="3.41" d="M153.29 154.7v-13.93"/><path stroke-width="1.7" d="M176.45 142.5h35.65v62.01h-35.65z"/><path stroke-width="1.7" d="M182.26 154.7h24.03v37.59h-24.03z"/><path stroke="#ff0" stroke-width="3.19" d="M182.26 175.05V154.7h24.03v20.35"/><path stroke="#ff0" stroke-width="3.41" d="M194.66 154.7v-13.93"/><path stroke-width="1.7" d="M217.82 142.5h35.65v62.01h-35.65z"/><path stroke-width="1.7" d="M223.63 154.7h24.03v37.59h-24.03z"/><path stroke="red" stroke-width="3.19" d="M223.63 175.05V154.7h24.03v20.35"/><path stroke="red" stroke-width="3.41" d="M236.03 154.7v-13.93"/><path stroke-width="1.7" d="M259.19 142.5h35.65v62.01h-35.65z"/><path stroke-width="1.7" d="M265 154.7h24.03v37.59H265z"/><path stroke="green" stroke-width="3.19" d="M265 175.05V154.7h24.03v20.35"/><path stroke="green" stroke-width="3.41" d="M277.4 154.7v-13.93"/><path stroke-width="1.7" d="M300.56 142.5h35.65v62.01h-35.65z"/><path stroke-width="1.7" d="M306.38 154.7h24.03v37.59h-24.03z"/><path stroke="#00f" stroke-width="3.19" d="M306.38 175.05V154.7h24.03v20.35"/><path stroke="#00f" stroke-width="3.41" d="M318.78 154.7v-13.93"/></svg>