<svg viewBox="0 0 348 348" fill="none" xmlns="http://www.w3.org/2000/svg"><path d="M5.079 5.776h336.913v337.67H5.08z" stroke-width="2" stroke="#000"/><path d="M282.734 40.554c0-8.376 6.966-15.165 15.56-15.165 4.126 0 8.084 1.597 11.001 4.441 2.918 2.844 4.558 6.702 4.558 10.724 0 8.376-6.966 15.165-15.56 15.165-8.593 0-15.559-6.79-15.559-15.165z" stroke-width="2" stroke="#000"/><rect width="45.127" height="45.127" x="25.793" y="277.605" ry="4.174" fill="#fff" stroke="#000" stroke-width="2.5"/><rect width="45.127" height="45.127" x="26.829" y="75.529" ry="4.174" fill="#fff" stroke="#000" stroke-width="2.502"/><rect width="45.127" height="45.127" x="227.87" y="75.528" ry="4.174" fill="#fff" stroke="#000" stroke-width="2.5"/><rect width="45.127" height="45.127" x="227.87" y="276.57" ry="4.174" fill="#fff" stroke="#000" stroke-width="2.5"/><path d="M66.06 96.953l-8.75 3.802 4.675 8.317-8.877-3.498-2.575 9.186-3.803-8.75-8.317 4.675 3.498-8.876-9.186-2.576 8.75-3.803-4.674-8.317 8.876 3.499 2.575-9.187 3.803 8.75 8.317-4.674-3.498 8.876z" fill="#fff" stroke="#000" stroke-width="1.25268"/><path d="M248.088 113.8l-2.597-9.493-9.833-.392 6.921-6.996-4.577-8.712 9.52 2.497 5.256-8.32 2.597 9.493 9.834.392-6.922 6.995 4.577 8.712-9.52-2.496z" fill="#fff" stroke="#000" stroke-width="1.253"/><path d="M65.975 302.76l-12.305 4.554-7.905 10.473-4.554-12.306-10.473-7.905 12.306-4.553 7.905-10.473 4.553 12.305z" fill="#fff" stroke="#000" stroke-width="1.2530743199999999"/><path d="M268.266 289.21l-12.871 18.84-22.795 1.007 12.871-18.84z" fill="#fff" stroke="#000" stroke-width="1.2529015"/><rect width="210.667" height="210.667" x="44.579" y="93.279" ry="19.485" fill="#fff" stroke="#000" stroke-width="2.002"/><path d="M62.837 98.807v.005a12.858 12.858 0 00-12.667 13.363v12.835h25.77v-13.104h-.003v-13.1zM249.666 111.696h-.006a12.858 12.858 0 00-13.363-12.666h-12.834v25.768h13.103v-.002h13.1z" fill="#fff" stroke="#000" stroke-width=".8"/><rect width="26.202" height="26.202" x="78.867" y="98.822" ry="0" fill="#fff" stroke="#000" stroke-width=".8"/><rect width="26.202" height="26.202" x="107.786" y="98.807" ry="0" fill="#fff" stroke="#000" stroke-width=".8"/><rect width="26.202" height="26.202" x="136.706" y="98.807" ry="0" fill="#fff" stroke="#000" stroke-width=".8"/><rect width="26.202" height="26.202" x="165.625" y="98.807" ry="0" fill="#fff" stroke="#000" stroke-width=".8"/><rect width="26.202" height="26.202" x="194.544" y="98.807" ry="0" fill="#fff" stroke="#000" stroke-width=".8"/><path d="M236.988 298.419v-.006a12.858 12.858 0 0012.678-12.885c0-.16-.006-.32-.012-.478v-12.834h-25.768v13.103h.002v13.1zM50.159 285.53h.005a12.858 12.858 0 0012.885 12.678c.16 0 .32-.006.478-.012h12.835v-25.769H63.258v.002h-13.1z" fill="#fff" stroke="#000" stroke-width=".8"/><rect width="26.202" height="26.202" x="-220.957" y="-298.404" ry="0" transform="scale(-1)" fill="#fff" stroke="#000" stroke-width=".8"/><rect width="26.202" height="26.202" x="-192.038" y="-298.418" ry="0" transform="scale(-1)" fill="#fff" stroke="#000" stroke-width=".8"/><rect width="26.202" height="26.202" x="-163.119" y="-298.418" ry="0" transform="scale(-1)" fill="#fff" stroke="#000" stroke-width=".8"/><rect width="26.202" height="26.202" x="-134.2" y="-298.418" ry="0" transform="scale(-1)" fill="#fff" stroke="#000" stroke-width=".8"/><rect width="26.202" height="26.202" x="-105.28" y="-298.418" ry="0" transform="scale(-1)" fill="#fff" stroke="#000" stroke-width=".8"/><rect width="26.202" height="26.202" x="50.054" y="127.751" ry="0" fill="#fff" stroke="#000" stroke-width=".8"/><rect width="26.202" height="26.202" x="78.973" y="127.737" ry="0" fill="#fff" stroke="#000" stroke-width=".8"/><rect width="26.202" height="26.202" x="107.892" y="127.737" ry="0" fill="#fff" stroke="#000" stroke-width=".8"/><rect width="26.202" height="26.202" x="136.811" y="127.737" ry="0" fill="#fff" stroke="#000" stroke-width=".8"/><rect width="26.202" height="26.202" x="165.731" y="127.737" ry="0" fill="#fff" stroke="#000" stroke-width=".8"/><rect width="26.202" height="26.202" x="194.65" y="127.737" ry="0" fill="#fff" stroke="#000" stroke-width=".8"/><rect width="26.202" height="26.202" x="223.569" y="127.675" ry="0" fill="#fff" stroke="#000" stroke-width=".8"/><rect width="26.202" height="26.202" x="50.054" y="156.651" ry="0" fill="#fff" stroke="#000" stroke-width=".8"/><rect width="26.202" height="26.202" x="78.973" y="156.636" ry="0" fill="#fff" stroke="#000" stroke-width=".8"/><rect width="26.202" height="26.202" x="107.892" y="156.636" ry="0" fill="#fff" stroke="#000" stroke-width=".8"/><rect width="26.202" height="26.202" x="136.811" y="156.636" ry="0" fill="#fff" stroke="#000" stroke-width=".8"/><rect width="26.202" height="26.202" x="165.731" y="156.636" ry="0" fill="#fff" stroke="#000" stroke-width=".8"/><rect width="26.202" height="26.202" x="194.65" y="156.636" ry="0" fill="#fff" stroke="#000" stroke-width=".8"/><rect width="26.202" height="26.202" x="223.569" y="156.575" ry="0" fill="#fff" stroke="#000" stroke-width=".8"/><rect width="26.202" height="26.202" x="50.054" y="185.55" ry="0" fill="#fff" stroke="#000" stroke-width=".8"/><rect width="26.202" height="26.202" x="78.973" y="185.535" ry="0" fill="#fff" stroke="#000" stroke-width=".8"/><rect width="26.202" height="26.202" x="107.892" y="185.535" ry="0" fill="#fff" stroke="#000" stroke-width=".8"/><rect width="26.202" height="26.202" x="136.811" y="185.535" ry="0" fill="#fff" stroke="#000" stroke-width=".8"/><rect width="26.202" height="26.202" x="165.731" y="185.535" ry="0" fill="#fff" stroke="#000" stroke-width=".8"/><rect width="26.202" height="26.202" x="194.65" y="185.535" ry="0" fill="#fff" stroke="#000" stroke-width=".8"/><rect width="26.202" height="26.202" x="223.569" y="185.474" ry="0" fill="#fff" stroke="#000" stroke-width=".8"/><rect width="26.202" height="26.202" x="50.054" y="214.449" ry="0" fill="#fff" stroke="#000" stroke-width=".8"/><rect width="26.202" height="26.202" x="78.973" y="214.434" ry="0" fill="#fff" stroke="#000" stroke-width=".8"/><rect width="26.202" height="26.202" x="107.892" y="214.434" ry="0" fill="#fff" stroke="#000" stroke-width=".8"/><rect width="26.202" height="26.202" x="136.811" y="214.434" ry="0" fill="#fff" stroke="#000" stroke-width=".8"/><rect width="26.202" height="26.202" x="165.731" y="214.434" ry="0" fill="#fff" stroke="#000" stroke-width=".8"/><rect width="26.202" height="26.202" x="194.65" y="214.434" ry="0" fill="#fff" stroke="#000" stroke-width=".8"/><rect width="26.202" height="26.202" x="223.569" y="214.373" ry="0" fill="#fff" stroke="#000" stroke-width=".8"/><rect width="26.202" height="26.202" x="50.054" y="243.348" ry="0" fill="#fff" stroke="#000" stroke-width=".8"/><rect width="26.202" height="26.202" x="78.973" y="243.333" ry="0" fill="#fff" stroke="#000" stroke-width=".8"/><rect width="26.202" height="26.202" x="107.892" y="243.333" ry="0" fill="#fff" stroke="#000" stroke-width=".8"/><rect width="26.202" height="26.202" x="136.811" y="243.333" ry="0" fill="#fff" stroke="#000" stroke-width=".8"/><rect width="26.202" height="26.202" x="165.731" y="243.333" ry="0" fill="#fff" stroke="#000" stroke-width=".8"/><rect width="26.202" height="26.202" x="194.65" y="243.333" ry="0" fill="#fff" stroke="#000" stroke-width=".8"/><rect width="26.202" height="26.202" x="223.569" y="243.272" ry="0" fill="#fff" stroke="#000" stroke-width=".8"/></svg>