<svg xmlns="http://www.w3.org/2000/svg" xml:space="preserve" fill="none" stroke-linecap="square" stroke-miterlimit="10" viewBox="0 0 348 348"><clipPath id="a"><path d="M0 0h348v348H0V0z"/></clipPath><g clip-path="url(#a)"><path d="M0 0h348v348H0z"/><path fill="#fff" d="M-6 0h354.02v347.97H-6z"/><path fill="#000" d="M80.3 230.5h77.44a8.79 8.79 0 0 1 8.8 8.81v15.25a8.79 8.79 0 0 1-8.8 8.81H80.3a8.79 8.79 0 0 1-8.81-8.8V239.3a8.79 8.79 0 0 1 8.8-8.8zm119.88-.08h77.42a8.79 8.79 0 0 1 8.81 8.8v15.26a8.79 8.79 0 0 1-8.8 8.8h-77.43a8.79 8.79 0 0 1-8.81-8.8v-15.25a8.79 8.79 0 0 1 8.8-8.81z"/><path d="M5.08 5.78h336.91v337.67H5.08z"/><path stroke="#000" stroke-linecap="butt" stroke-linejoin="round" stroke-width="2" d="M5.08 5.78h336.91v337.67H5.08z"/><path fill="#000" d="M133.84 15.67h74.33v56.88h-74.33z"/><path fill="#fff" d="M15.26 17.7h109.9v54.84H15.25z"/><path stroke="#000" stroke-linecap="butt" stroke-linejoin="round" stroke-width="2" d="M15.26 17.7h109.9v54.84H15.25z"/><path d="m15.26 72.65 39.69-54.08"/><path stroke="#000" stroke-linecap="butt" stroke-linejoin="round" stroke-width="2" d="m15.26 72.65 39.69-54.08"/><path d="m37.57 72.65 39.68-54.08"/><path stroke="#000" stroke-linecap="butt" stroke-linejoin="round" stroke-width="2" d="m37.57 72.65 39.68-54.08"/><path d="m59.87 72.65 39.69-54.08"/><path stroke="#000" stroke-linecap="butt" stroke-linejoin="round" stroke-width="2" d="m59.87 72.65 39.69-54.08"/><path d="m82.17 72.65 39.69-54.08"/><path stroke="#000" stroke-linecap="butt" stroke-linejoin="round" stroke-width="2" d="m82.17 72.65 39.69-54.08"/><path fill="#fff" d="M216.86 16.63h109.9v54.84h-109.9z"/><path stroke="#000" stroke-linecap="butt" stroke-linejoin="round" stroke-width="2" d="M216.86 16.63h109.9v54.84h-109.9z"/><path d="m216.86 71.58 39.69-54.08"/><path stroke="#000" stroke-linecap="butt" stroke-linejoin="round" stroke-width="2" d="m216.86 71.58 39.69-54.08"/><path d="m239.17 71.58 39.68-54.08"/><path stroke="#000" stroke-linecap="butt" stroke-linejoin="round" stroke-width="2" d="m239.17 71.58 39.68-54.08"/><path d="m261.47 71.58 39.69-54.08"/><path stroke="#000" stroke-linecap="butt" stroke-linejoin="round" stroke-width="2" d="m261.47 71.58 39.69-54.08"/><path d="m283.78 71.58 39.68-54.08"/><path stroke="#000" stroke-linecap="butt" stroke-linejoin="round" stroke-width="2" d="m283.78 71.58 39.68-54.08"/><path d="M182.8 267.52h49.25V313H182.8z"/><path fill="#fff" d="M260.08 270.74h36.73v25.64h-36.73zm5.39 34.77a4.27 4.27 0 1 1 8.53 0 4.27 4.27 0 1 1-8.53 0zm17.34 0a4.27 4.27 0 0 1 8.53 0 4.27 4.27 0 1 1-8.53 0z"/><path fill="#fff" d="M168.99 54.25h-13.53v-3.28l2.82-2.82q1.42-1.42 2.64-2.81 2.58-2.92 3.53-4.63.96-1.73.96-3.72 0-1.82-1.04-2.84-1.02-1.04-2.86-1.04-1.22 0-2.64.5-1.42.5-2.78 1.54h-.13v-3.29q.95-.55 2.53-1 1.6-.46 3.09-.46 3.07 0 4.82 1.74 1.74 1.73 1.74 4.7 0 1.33-.3 2.49-.27 1.14-.84 2.18-.52.97-1.23 1.91-.7.94-1.7 2.1-1.44 1.64-2.97 3.2l-2.86 2.85h10.75zm17.44-11.69q0 6.3-1.69 9.24-1.68 2.94-5.22 2.94-3.6 0-5.26-2.99-1.65-2.97-1.65-9.16 0-6.23 1.68-9.2 1.68-2.97 5.23-2.97 3.6 0 5.25 3.02 1.66 3.02 1.66 9.12zm-3.53 7.12q.47-1.27.63-2.98.18-1.72.18-4.14 0-2.38-.18-4.14-.16-1.76-.64-2.98-.47-1.21-1.29-1.82-.8-.61-2.08-.61-1.26 0-2.1.6-.81.62-1.3 1.86-.45 1.16-.62 3.03-.16 1.86-.16 4.1 0 2.44.14 4.09.15 1.64.63 2.95.45 1.22 1.25 1.86.82.65 2.16.65 1.26 0 2.1-.61.83-.62 1.28-1.86z" aria-label="20"/><path fill="#242022" d="M56.7 109.7c-2.54.65-3.79 3-3.97 5.63-.33 4.92 1.2 9.61.55 14.61-.77 6.02-3.66 11.84-3.4 17.97.15 3.85 2.03 7.58 3.61 10.96a170.4 170.4 0 0 0 8.7 15.83c3.61 6 8.13 11.85 15.57 10.15 10.57-2.42 14.38-16.1 19.7-24.46 2.53-3.98 6.19-7.52 6.96-12.48.87-5.58-1.96-10.84-1.9-16.44.07-5.72 4.48-12.6.4-17.91-2.41-3.13-7.3-1.58-10.36-.78-7.03 1.84-14.59 1.64-21.63-.02-4.48-1.05-9.56-4.25-14.23-3.05m17.08 9.88h.28c2.1 7.66-7.51 2.58-9.96 1.49-.89-.4-1.9-.73-2.85-.35-2.38.95-3.49 5.55-4.84 7.7-.47-1.25-.06-2.72.3-3.97.27-.96.63-1.9 1.16-2.74 3.77-6.07 8.8-.4 13.34.35 1.55.25 2.61-.9 2.56-2.48m25.9 11.27h-.28c-1.01-3.34-2.2-7.95-5.97-8.73a5.9 5.9 0 0 0-2.85.14c-2.36.72-10.9 6.86-9.68-.55.83.7 1.7 1.96 2.85 1.96 1.45 0 2.79-1.87 3.98-2.6 3.38-2.08 7.77-2.14 10.19 1.56.65 1 1.1 2.18 1.42 3.34.44 1.6.35 3.24.35 4.87m-26.76 7.31c-5.42-3.81-9.51-3.49-15.65-2.13 1.89-3.78 7.46-9.47 11.95-6.67 2.57 1.6 3.48 5.86 3.7 8.8m23.91.3c-5.82-2.58-9.18-1.8-15.09-.3.24-2.03.3-4.4 1.55-6.07 4.57-6.13 12.13 1.15 13.54 6.38m-19.64-.92c1.87 2.97 4.2 6.35 4.27 10.05-1.24-.13-2.48-1.14-3.7-1.02-1.17.1-2.15 1.38-3.37.66-2.98-1.77 1.34-8.25 2.8-9.69m-11.95 9.14v.3c-3.1 2.52-3.73 4.87-3.7 8.83h-.29c-.78-4.41-.16-7.29 3.99-9.13m23.05 2.13-.28.3.28-.3m.57.3c3.5 1.79 4.56 4.68 3.42 8.53h-.29c.64-3.68-.68-6-3.41-8.22l.28-.3m1.14 3.65c0 7.21-6.3 17.52-13.95 17.02-7.27-.48-14.6-11.62-12.52-19.15 3.2.98 5.85 3.37 9.1 4.34 5.71 1.69 11.93-.35 17.37-2.21m-21.63 17.35c5.54 4.22 11.19 3.33 16.8 0-2.73 4.9-9.26 6.23-13.67 3.33-1.18-.77-2.8-1.83-3.13-3.33zm183.67-59.24c-2.53.65-3.78 3-3.96 5.62-.33 4.92 1.19 9.62.55 14.62-.77 6.02-3.66 11.84-3.4 17.96.15 3.86 2.03 7.58 3.61 10.96a170.54 170.54 0 0 0 8.7 15.83c3.61 6 8.13 11.85 15.57 10.15 10.57-2.41 14.38-16.1 19.7-24.46 2.52-3.98 6.19-7.51 6.96-12.48.87-5.57-1.96-10.84-1.9-16.44.07-5.72 4.48-12.59.39-17.9-2.4-3.13-7.28-1.59-10.35-.79-7.04 1.84-14.59 1.65-21.63-.01-4.48-1.06-9.56-4.25-14.24-3.06m17.08 9.89h.29c2.1 7.65-7.52 2.57-9.97 1.48-.88-.4-1.9-.72-2.84-.34-2.38.95-3.5 5.54-4.84 7.69-.48-1.25-.06-2.71.3-3.96.27-.96.63-1.9 1.15-2.74 3.78-6.07 8.81-.4 13.35.34 1.55.26 2.61-.89 2.56-2.47m25.9 11.26h-.28c-1.02-3.34-2.2-7.95-5.98-8.72a5.9 5.9 0 0 0-2.84.13c-2.36.73-10.9 6.87-9.68-.54.82.69 1.7 1.96 2.84 1.96 1.46 0 2.8-1.87 3.99-2.6 3.38-2.08 7.77-2.14 10.18 1.56.66 1 1.1 2.17 1.43 3.34.44 1.59.34 3.23.34 4.87m-26.75 7.3c-5.42-3.8-9.51-3.48-15.66-2.12 1.9-3.79 7.46-9.48 11.95-6.67 2.57 1.6 3.49 5.86 3.7 8.8m23.92.3c-5.82-2.58-9.18-1.8-15.09-.3.24-2.04.3-4.4 1.54-6.08 4.58-6.13 12.14 1.16 13.55 6.38m-19.64-.91c1.87 2.97 4.2 6.35 4.27 10.05-1.24-.14-2.48-1.15-3.7-1.03-1.18.11-2.15 1.4-3.38.66-2.97-1.77 1.34-8.25 2.8-9.68m-11.95 9.13v.3c-3.09 2.53-3.72 4.88-3.7 8.84h-.28c-.78-4.42-.16-7.29 3.98-9.14m23.06 2.13-.29.31.29-.3m.57.3c3.5 1.78 4.55 4.68 3.41 8.52h-.28c.64-3.68-.69-5.99-3.42-8.22l.29-.3m1.14 3.65c0 7.22-6.3 17.53-13.95 17.02-7.28-.47-14.6-11.62-12.53-19.15 3.2.99 5.85 3.38 9.11 4.34 5.7 1.7 11.92-.34 17.37-2.2m-21.64 17.35c5.55 4.22 11.2 3.32 16.8 0-2.73 4.9-9.25 6.22-13.67 3.33-1.18-.78-2.79-1.84-3.13-3.33z"/><path fill="#212121" d="M101.9 192.21c-1.29 3.11-1.73 5.18 0 8.23 2.06-.42 4.37-1.44 6.47-1.42 4.02.05 11.56 4.04 11.56-4.07 5.24-3.4 8.44-17.04 7.4-22.85 4.62-1.57 5.83-7.15 1.83-10.2-5.2-3.98-14.07-6.69-20.79-7.07-2.4-.14-4.28 1.27-6.47 1.97-4.2 1.35-9.57 2.31-12.71 5.83-3.93 4.4-3.53 17.33-.62 22.17 1.89 3.14 9.9 6.43 13.33 7.41m16.18-33.82-3.7 7.77h.46c2.05-5.2 5.54-8.18 11.1-5.49v.46h-2.31v.46c4.88.04 10.44 5.75 4.14 9.06-5.72 3-10.85-3.28-6.92-8.15-3.41 2.5-3.2 4.79-1.38 8.23l-2.78.91v.46l4.63-.46c-1.62 3.24-6.07 3.82-9.25 5.03v.46l13.87-4.57c1.7 6.62-2.74 15.07-5.9 20.56-1.19 2.06-2 4.77-4.28 5.93-1.92.98-4.09.06-6-.44l.92-2.74c-3.22-.7-5.51.62-7.4 3.2h-.92c-3.15-6.52 8.6-11.22 13.4-8.69l-3.23-1.83c.77-2.12 1.67-3.38.46-5.48v-.46l9.25-5.94v-.46c-3.75 1.6-7.74 5.88-12.02 5.49 1.19-5.69 2.17-7.29 8.32-7.77v-.46l-4.62-.46-2.77 1.37.46-3.2h-.46c-.9 4.55-.6 9.07-3.7 12.8 1.8.61 2.12 1.87 2.3 3.66h.47l-.92-5.03c3.66.58 4.74 3.92 1.67 6.42-2.85 2.3-7.77 3.09-10.92 1.35v-.45h2.77v-.46c-13.5-2.8-2.59-16.64-1.38-24.68h-.47c-2 8.34-7.48 13.98-5.08 22.85-7.56-1.16-2.53-15.21-2.31-20.11h-.47l-1.85 17.37c-4.88-2.43-3.8-13.4-2.71-17.83.6-2.43 2.46-6.26 5.49-4.57 1.73-3.56 3.9-3.6 7.4-4.54 1.89-.5 3.6-1.83 5.54-2.1 3.47-.46 7.75 1.76 11.1 2.53m-24.97 4.11-.46.91h.92l-.46-.91m8.48 1.68.15.3-.15-.3m10.02 6.55.46.45-.46-.45m2.3 1.83.47.45-.46-.45m-2.31 4.57.46.45-.46-.45m4.16 13.25.46.46-.46-.46m4.16 5.49-.46.45.46-.45m-10.63.45c-1.2 2.19-3.3 2.2-5.55 2.75a7.08 7.08 0 0 1 5.55-2.75m9.7.92-.46.45z"/><path fill="#000" d="M141.3 293.53h77.43a8.79 8.79 0 0 1 8.8 8.81v15.25a8.79 8.79 0 0 1-8.8 8.8H141.3a8.79 8.79 0 0 1-8.8-8.8v-15.25a8.79 8.79 0 0 1 8.8-8.81zm104.7 0h77.43a8.79 8.79 0 0 1 8.81 8.81v15.25a8.79 8.79 0 0 1-8.8 8.8H246a8.79 8.79 0 0 1-8.81-8.8v-15.25a8.79 8.79 0 0 1 8.8-8.81zm-216-1.02h77.43a8.79 8.79 0 0 1 8.8 8.81v15.25a8.79 8.79 0 0 1-8.8 8.81H29.99a8.79 8.79 0 0 1-8.81-8.8v-15.26a8.79 8.79 0 0 1 8.8-8.8z"/><path fill="#fff" d="M96.92 238.9h9.09v-4.22h-9.09zm5.1-2.1q0-.6.5-1.09.49-.5 1.21-.5.64 0 1.17.45.54.46.54 1.14 0 .6-.49 1.11-.5.47-1.22.47-.65 0-1.2-.45-.5-.48-.5-1.13zm-4.54 0q0-.6.5-1.09.48-.5 1.21-.5.64 0 1.16.45.55.46.55 1.14 0 .6-.5 1.11-.5.47-1.2.47-.66 0-1.2-.45-.52-.48-.52-1.13zm-.56 19.8h9.09v-4.21h-9.09zm5.1-2.1q0-.61.5-1.12.5-.47 1.21-.47.64 0 1.17.46.54.45.54 1.13 0 .59-.49 1.08-.49.5-1.22.5-.65 0-1.2-.45-.5-.47-.5-1.13zm-4.54 0q0-.61.5-1.12.5-.47 1.21-.47.64 0 1.16.46.55.45.55 1.13 0 .59-.5 1.08-.48.5-1.2.5-.66 0-1.2-.45-.52-.47-.52-1.13zm3.7-14.82v9.77q0 .54.14.69.14.13.7.13h1.53v1.29h-1.69q-1.1 0-1.61-.54-.48-.58-.48-1.44v-9.9zm4.82-.77h9.09v-4.23H106zm5.11-2.11q0-.6.49-1.09.5-.5 1.22-.5.63 0 1.16.45.55.46.55 1.14 0 .6-.5 1.11-.5.47-1.21.47-.66 0-1.2-.45-.51-.48-.51-1.13zm-4.54 0q0-.6.49-1.09.49-.5 1.22-.5.63 0 1.16.45.54.46.54 1.14 0 .6-.49 1.11-.5.47-1.21.47-.66 0-1.2-.45-.51-.48-.51-1.13zm-.56 19.8h9.08v-4.21H106zm5.1-2.1q0-.61.49-1.12.51-.47 1.22-.47.63 0 1.16.46.55.45.55 1.13 0 .59-.5 1.08-.48.5-1.21.5-.66 0-1.2-.45-.51-.47-.51-1.13zm-4.54 0q0-.61.49-1.12.5-.47 1.22-.47.63 0 1.16.46.54.45.54 1.13 0 .59-.49 1.08-.49.5-1.21.5-.66 0-1.2-.45-.51-.47-.51-1.13zm2.09-14.82h3.98v1.3h-2.6v6.93h2.6v1.18h-2.6v.71q0 .27.14.39.15.08.51.08h1.95v1.29h-2.04q-.92 0-1.43-.46-.51-.45-.51-1.32v-.69h-1.2l-.78-1.18h1.98zm6.43-.77h9.08v-4.23h-9.08zm5.1-2.11q0-.6.5-1.09.49-.5 1.21-.5.64 0 1.17.45.54.46.54 1.14 0 .6-.49 1.11-.5.47-1.22.47-.65 0-1.2-.45-.5-.48-.5-1.13zm-4.54 0q0-.6.5-1.09.48-.5 1.21-.5.64 0 1.16.45.55.46.55 1.14 0 .6-.5 1.11-.5.47-1.2.47-.66 0-1.2-.45-.52-.48-.52-1.13zm-.56 19.8h9.08v-4.21h-9.08zm5.1-2.1q0-.61.5-1.12.5-.47 1.21-.47.64 0 1.17.46.54.45.54 1.13 0 .59-.49 1.08-.49.5-1.22.5-.65 0-1.2-.45-.5-.47-.5-1.13zm-4.54 0q0-.61.5-1.12.5-.47 1.21-.47.64 0 1.16.46.55.45.55 1.13 0 .59-.5 1.08-.48.5-1.2.5-.66 0-1.2-.45-.52-.47-.52-1.13zm2.55-14.82h3.98v1.3h-2.6v6.93h2.6v1.18h-2.6v2.47h-1.38v-2.47H117l-.78-1.18h1.98zm5.97-.77h9.09v-4.23h-9.09zm5.11-2.11q0-.6.49-1.09.5-.5 1.22-.5.63 0 1.16.45.55.46.55 1.14 0 .6-.5 1.11-.5.47-1.21.47-.66 0-1.2-.45-.51-.48-.51-1.13zm-4.54 0q0-.6.49-1.09.49-.5 1.22-.5.63 0 1.16.45.54.46.54 1.14 0 .6-.49 1.11-.5.47-1.21.47-.66 0-1.2-.45-.51-.48-.51-1.13zm-.57 19.8h9.09v-4.21h-9.09zm5.11-2.1q0-.61.49-1.12.51-.47 1.22-.47.63 0 1.16.46.55.45.55 1.13 0 .59-.5 1.08-.48.5-1.21.5-.66 0-1.2-.45-.51-.47-.51-1.13zm-4.54 0q0-.61.49-1.12.5-.47 1.22-.47.63 0 1.16.46.54.45.54 1.13 0 .59-.49 1.08-.49.5-1.21.5-.66 0-1.2-.45-.51-.47-.51-1.13zm6.12-14.73v1.3h-1.52v10.57h-1.4v-10.57h-1.51v-1.3z" aria-label="LEFT"/><path fill="#fff" stroke-width="1.24" d="M222.6 240.31h7.43v-3.71h-7.44zm4.17-1.85q0-.52.4-.95.4-.45 1-.45.52 0 .95.4.45.4.45 1 0 .53-.4.98-.42.42-1 .42-.54 0-.98-.4-.42-.42-.42-1zm-3.72 0q0-.52.4-.95.4-.45 1-.45.52 0 .95.4.45.4.45 1 0 .53-.4.98-.42.42-1 .42-.53 0-.98-.4-.42-.42-.42-1zm-.46 17.43h7.44v-3.71h-7.44zm4.18-1.86q0-.53.4-.98.42-.42 1-.42.52 0 .95.4.45.4.45 1 0 .52-.4.95-.4.45-1 .45-.54 0-.98-.4-.42-.42-.42-1zm-3.72 0q0-.53.4-.98.42-.42 1-.42.52 0 .95.4.45.4.45 1 0 .52-.4.95-.4.45-1 .45-.53 0-.98-.4-.42-.42-.42-1zm1.42-13.33q1.62.45 2.67 1.68.5.6.78 1.38.3.78.3 1.62 0 .88-.3 1.58-.24.71-.9 1.42.62 0 .9.38.3.35.3.93v1.9h-1.13v-1.7q0-.26-.12-.35-.1-.09-.36-.12h-1.01v2.17h-1.13v-2.17h-.99l-.64-1.04h1.63zm1.13 7.68q.5-.3.98-1.04.24-.34.37-.8t.13-1.04q0-.44-.03-.6-.01-.16-.08-.4-.12-.43-.38-.86-.47-.77-1-1.11zm4.43-8.07h3.72v-3.71h-3.72zm.46-1.85q0-.52.4-.95.4-.45 1-.45.52 0 .95.4.45.4.45 1 0 .53-.4.98-.42.41-1 .41-.54 0-.98-.4-.42-.41-.42-1zm-.46 17.43h3.72v-3.72h-3.72zm.46-1.86q0-.53.4-.98.42-.42 1-.42.52 0 .95.4.45.4.45 1 0 .52-.4.95-.4.45-1 .45-.54 0-.98-.4-.42-.42-.42-1zm1.85-13.1v10.44h-1.13v-10.45zm1.4-.62h7.45v-3.71h-7.44zm4.19-1.85q0-.52.4-.95.4-.45 1-.45.52 0 .95.4.45.4.45 1 0 .53-.4.98-.42.41-1 .41-.54 0-.98-.4-.42-.41-.42-1zm-3.72 0q0-.52.4-.95.4-.45 1-.45.52 0 .95.4.45.4.45 1 0 .53-.4.98-.42.41-1 .41-.54 0-.98-.4-.42-.41-.42-1zm-.46 17.43h7.44v-3.72h-7.44zm4.18-1.86q0-.53.4-.98.42-.42 1-.42.52 0 .95.4.45.4.45 1 0 .52-.4.95-.4.45-1 .45-.54 0-.98-.4-.42-.42-.42-1zm-3.72 0q0-.53.4-.98.42-.42 1-.42.52 0 .95.4.45.4.45 1 0 .52-.4.95-.4.45-1 .45-.54 0-.98-.4-.42-.42-.42-1zm4.88-13.39v1.2q-1.31.59-2.1 1.72-.77 1.11-.77 2.63 0 1.35.49 2.24.5.9 1.25 1.47v-3.6h1.13v5.5q-1.88-.67-2.95-2.15-.53-.76-.8-1.62-.25-.86-.25-1.83 0-2 1.16-3.46 1.07-1.37 2.84-2.1zm2.1-.33h7.43v-3.71h-7.43zm4.18-1.85q0-.52.4-.95.4-.45 1-.45.51 0 .95.4.44.4.44 1 0 .53-.4.98-.42.41-1 .41-.53 0-.98-.4-.41-.41-.41-1zm-3.72 0q0-.52.4-.95.4-.45 1-.45.52 0 .95.4.44.4.44 1 0 .53-.4.98-.41.41-1 .41-.53 0-.98-.4-.41-.41-.41-1zm-.46 17.43h7.43v-3.72h-7.43zm4.18-1.86q0-.53.4-.98.41-.42 1-.42.51 0 .95.4.44.4.44 1 0 .52-.4.95-.4.45-1 .45-.53 0-.98-.4-.41-.42-.41-1zm-3.72 0q0-.53.4-.98.42-.42 1-.42.52 0 .95.4.44.4.44 1 0 .52-.4.95-.4.45-1 .45-.53 0-.98-.4-.41-.42-.41-1zm1.53-13.03h1.13v7.24h1.49V241h1.13v10.45h-1.13v-2.17h-1.49v2.17h-1.13v-2.17h-.98l-.64-1.04h1.62zm5.44-.69h7.44v-3.71h-7.44zm4.18-1.85q0-.52.4-.95.4-.45 1-.45.52 0 .95.4.45.4.45 1 0 .53-.4.98-.42.42-1 .42-.53 0-.98-.4-.42-.42-.42-1zm-3.72 0q0-.52.4-.95.4-.45 1-.45.52 0 .96.4.44.4.44 1 0 .53-.4.98-.42.42-1 .42-.53 0-.98-.4-.42-.42-.42-1zm-.46 17.43h7.44v-3.71h-7.44zm4.18-1.86q0-.53.4-.98.42-.42 1-.42.52 0 .95.4.45.4.45 1 0 .52-.4.95-.4.45-1 .45-.53 0-.98-.4-.42-.42-.42-1zm-3.72 0q0-.53.4-.98.42-.42 1-.42.52 0 .96.4.44.4.44 1 0 .52-.4.95-.4.45-1 .45-.53 0-.98-.4-.42-.42-.42-1zm5.02-12.96v1.15h-1.25v9.3h-1.15v-9.3h-1.23v-1.15z" aria-label="RIGHT" font-family="Showtime" font-size="14.87" style="-inkscape-font-specification:Showtime"/><path fill="#fff" d="M54.63 301.13h8.1v-4.27h-8.1zm4.56-2.13q0-.6.44-1.1.43-.51 1.08-.51.57 0 1.04.46.49.46.49 1.14 0 .62-.44 1.13-.46.48-1.09.48-.58 0-1.07-.46-.45-.48-.45-1.15zm-4.06 0q0-.6.44-1.1.44-.51 1.09-.51.56 0 1.04.46t.48 1.14q0 .62-.44 1.13-.45.48-1.08.48-.59 0-1.07-.46-.46-.48-.46-1.15zm-.5 20.03h8.1v-4.27h-8.1zm4.56-2.14q0-.61.44-1.13.45-.47 1.08-.47.57 0 1.04.46.49.46.49 1.14 0 .6-.44 1.1-.44.5-1.09.5-.58 0-1.07-.45-.45-.48-.45-1.15zm-4.06 0q0-.61.44-1.13.45-.47 1.09-.47.56 0 1.04.46t.48 1.14q0 .6-.44 1.1-.43.5-1.08.5-.59 0-1.07-.45-.46-.48-.46-1.15zM56.85 302h3.81l-2.53 10.7h2.35v1.3h-3.9l2.5-10.69h-2.23zm5.89-.87h4.05v-4.27h-4.05zm.5-2.13q0-.6.44-1.1.44-.51 1.09-.51.56 0 1.03.46.49.46.49 1.14 0 .62-.44 1.13-.45.48-1.08.48-.59 0-1.07-.46-.46-.48-.46-1.15zm-.5 20.03h4.05v-4.27h-4.05zm.5-2.14q0-.61.44-1.13.45-.47 1.09-.47.56 0 1.03.46.49.46.49 1.14 0 .6-.44 1.1-.44.5-1.08.5-.59 0-1.07-.45-.46-.48-.46-1.15zm2.01-15.06v12h-1.23v-12zm1.54-.7h8.11v-4.27h-8.1zm4.56-2.13q0-.6.44-1.1.43-.51 1.08-.51.57 0 1.04.46.49.46.49 1.14 0 .62-.44 1.13-.45.48-1.09.48-.58 0-1.07-.46-.45-.48-.45-1.15zm-4.05 0q0-.6.43-1.1.44-.51 1.09-.51.57 0 1.04.46.48.46.48 1.14 0 .62-.43 1.13-.46.48-1.09.48-.58 0-1.07-.46-.45-.48-.45-1.15zm-.5 20.03h8.1v-4.27h-8.1zm4.55-2.14q0-.61.44-1.13.45-.47 1.08-.47.57 0 1.04.46.49.46.49 1.14 0 .6-.44 1.1-.44.5-1.09.5-.58 0-1.07-.45-.45-.48-.45-1.15zm-4.05 0q0-.61.43-1.13.46-.47 1.09-.47.57 0 1.04.46.48.46.48 1.14 0 .6-.43 1.1-.44.5-1.09.5-.58 0-1.07-.45-.45-.48-.45-1.15zm1.59-15.32q1.76.57 2.93 1.95.57.68.86 1.54.3.85.3 1.88 0 .47-.06.87-.05.39-.18.82-.22.78-.66 1.4-.81 1.17-1.96 1.82v2.24h-1.24zm1.23 8.78q.47-.3 1.03-1.16.59-.85.59-2.1 0-1.23-.52-2.1-.5-.89-1.1-1.32z" aria-label="ZIP"/><path fill="#fff" d="M163.41 301.58h9.2v-4.36h-9.2zm5.17-2.18q0-.61.5-1.12.49-.52 1.23-.52.64 0 1.17.47.55.47.55 1.17 0 .63-.5 1.15-.5.5-1.22.5-.67 0-1.22-.48-.51-.49-.51-1.17zm-4.6 0q0-.61.5-1.12.5-.52 1.23-.52.64 0 1.17.47.56.47.56 1.17 0 .63-.5 1.15-.51.5-1.23.5-.66 0-1.22-.48-.51-.49-.51-1.17zm-.57 20.46h9.2v-4.36h-9.2zm5.17-2.18q0-.62.5-1.15.5-.49 1.23-.49.64 0 1.17.47.55.48.55 1.17 0 .61-.5 1.12-.49.52-1.22.52-.67 0-1.22-.47-.51-.49-.51-1.17zm-4.6 0q0-.62.5-1.15.51-.49 1.23-.49.64 0 1.17.47.56.48.56 1.17 0 .61-.5 1.12-.5.52-1.23.52-.66 0-1.22-.47-.51-.49-.51-1.17zm1.95-15.2h4.32l-2.87 10.93h2.67v1.32h-4.43l2.83-10.92h-2.52zm6.67-.9h9.2v-4.36h-9.2zm5.17-2.18q0-.61.5-1.12.5-.52 1.23-.52.64 0 1.18.47.55.47.55 1.17 0 .63-.5 1.15-.51.5-1.23.5-.66 0-1.21-.48-.52-.49-.52-1.17zm-4.6 0q0-.61.5-1.12.5-.52 1.23-.52.65 0 1.18.47.55.47.55 1.17 0 .63-.5 1.15-.51.5-1.23.5-.66 0-1.21-.48-.52-.49-.52-1.17zm-.57 20.46h9.2v-4.36h-9.2zm5.17-2.18q0-.62.5-1.15.51-.49 1.23-.49.64 0 1.18.47.55.48.55 1.17 0 .61-.5 1.12-.5.52-1.23.52-.66 0-1.21-.47-.52-.49-.52-1.17zm-4.6 0q0-.62.5-1.15.52-.49 1.23-.49.65 0 1.18.47.55.48.55 1.17 0 .61-.5 1.12-.5.52-1.23.52-.66 0-1.21-.47-.52-.49-.52-1.17zm4.2-15.58q1.14 0 1.69.7.55.68.55 1.63v10.25h-1.4v-2.54h-1.74v2.54h-1.4v-2.54h-1.22l-.79-1.23h2v-6.38q0-1.07.62-1.75.6-.68 1.69-.68zm-.02 1.33q-.46 0-.7.3-.18.31-.18.78v6.4h1.74v-6.38q0-.47-.16-.79-.2-.31-.7-.31zm4.45-1.85h9.2v-4.36h-9.2zm5.17-2.18q0-.61.5-1.12.49-.52 1.22-.52.65 0 1.18.47.55.47.55 1.17 0 .63-.5 1.15-.5.5-1.23.5-.66 0-1.2-.48-.52-.49-.52-1.17zm-4.6 0q0-.61.5-1.12.5-.52 1.23-.52.64 0 1.17.47.56.47.56 1.17 0 .63-.5 1.15-.52.5-1.23.5-.66 0-1.22-.48-.51-.49-.51-1.17zm-.57 20.46h9.2v-4.36h-9.2zm5.17-2.18q0-.62.5-1.15.5-.49 1.22-.49.65 0 1.18.47.55.48.55 1.17 0 .61-.5 1.12-.49.52-1.23.52-.66 0-1.2-.47-.52-.49-.52-1.17zm-4.6 0q0-.62.5-1.15.51-.49 1.23-.49.64 0 1.17.47.56.48.56 1.17 0 .61-.5 1.12-.5.52-1.23.52-.66 0-1.22-.47-.51-.49-.51-1.17zm1.8-15.65q2 .58 3.33 2 .64.7.97 1.56.33.88.33 1.92 0 .5-.05.9-.06.4-.2.83-.26.8-.76 1.43-.92 1.2-2.22 1.87v2.28h-1.4zm1.4 8.97q.53-.31 1.18-1.18.66-.88.66-2.15 0-1.26-.59-2.15-.57-.9-1.25-1.34z" aria-label="ZAP"/><path fill="#fff" d="M268.36 300.85h9v-4.59h-9zm5.05-2.3q0-.64.49-1.17.48-.55 1.2-.55.63 0 1.15.5.54.5.54 1.23 0 .66-.48 1.21-.5.51-1.2.51-.66 0-1.2-.5-.5-.5-.5-1.22zm-4.5 0q0-.64.49-1.17.48-.55 1.2-.55.63 0 1.16.5.54.5.54 1.23 0 .66-.49 1.21-.5.51-1.2.51-.65 0-1.2-.5-.5-.5-.5-1.22zm-.55 21.55h9v-4.59h-9zm5.05-2.3q0-.65.49-1.2.5-.52 1.2-.52.63 0 1.15.5.54.5.54 1.23 0 .64-.48 1.17-.49.55-1.2.55-.66 0-1.2-.5-.5-.5-.5-1.22zm-4.5 0q0-.65.49-1.2.5-.52 1.2-.52.63 0 1.16.5.54.5.54 1.23 0 .64-.49 1.17-.48.55-1.2.55-.65 0-1.2-.5-.5-.5-.5-1.22zm1.91-16.01h4.23l-2.8 11.52h2.6v1.4h-4.34l2.77-11.5h-2.46zm6.53-.94h9v-4.59h-9zm5.06-2.3q0-.64.48-1.17.49-.55 1.2-.55.64 0 1.16.5.54.5.54 1.23 0 .66-.49 1.21-.5.51-1.2.51-.65 0-1.19-.5-.5-.5-.5-1.22zm-4.5 0q0-.64.48-1.17.49-.55 1.21-.55.63 0 1.15.5.54.5.54 1.23 0 .66-.49 1.21-.5.51-1.2.51-.65 0-1.19-.5-.5-.5-.5-1.22zm-.56 21.55h9v-4.59h-9zm5.06-2.3q0-.65.48-1.2.5-.52 1.2-.52.64 0 1.16.5.54.5.54 1.23 0 .64-.49 1.17-.48.55-1.2.55-.65 0-1.19-.5-.5-.5-.5-1.22zm-4.5 0q0-.65.48-1.2.5-.52 1.21-.52.63 0 1.15.5.54.5.54 1.23 0 .64-.49 1.17-.48.55-1.2.55-.65 0-1.19-.5-.5-.5-.5-1.22zm3.87-16.43q1.04 0 1.63.7.62.7.62 1.6v9.05q0 1.03-.67 1.63-.67.57-1.58.57-1.08 0-1.7-.62-.59-.64-.59-1.54v-9.11q0-1.05.65-1.66.67-.62 1.64-.62zm-.02 1.4q-.45 0-.69.29-.21.27-.21.84v8.5q0 .58.2.85.21.26.73.26.47 0 .67-.28.2-.29.2-.84v-8.54q0-.55-.24-.81-.21-.28-.66-.28zm4.59-1.92h9v-4.59h-9zm5.05-2.3q0-.64.49-1.17.48-.55 1.2-.55.63 0 1.15.5.54.5.54 1.23 0 .66-.48 1.21-.5.51-1.2.51-.66 0-1.2-.5-.5-.5-.5-1.22zm-4.5 0q0-.64.49-1.17.49-.55 1.2-.55.63 0 1.16.5.54.5.54 1.23 0 .66-.49 1.21-.5.51-1.2.51-.65 0-1.2-.5-.5-.5-.5-1.22zm-.55 21.55h9v-4.59h-9zm5.05-2.3q0-.65.49-1.2.5-.52 1.2-.52.63 0 1.15.5.54.5.54 1.23 0 .64-.48 1.17-.49.55-1.2.55-.66 0-1.2-.5-.5-.5-.5-1.22zm-4.5 0q0-.65.49-1.2.5-.52 1.2-.52.63 0 1.16.5.54.5.54 1.23 0 .64-.49 1.17-.49.55-1.2.55-.65 0-1.2-.5-.5-.5-.5-1.22zm1.77-16.47q1.96.6 3.25 2.1.63.73.96 1.65.32.92.32 2.02 0 .51-.05.94-.06.42-.2.88-.25.84-.74 1.5-.9 1.27-2.18 1.97v2.4h-1.36zm1.36 9.44q.53-.33 1.16-1.25.64-.91.64-2.26 0-1.32-.57-2.26-.56-.95-1.23-1.41z" aria-label="ZOP"/></g></svg>