<svg xmlns="http://www.w3.org/2000/svg" fill="none" viewBox="0 0 348 348"><path stroke="#000" stroke-width="2" d="M5 5.8h337v337.6H5z"/><path stroke="#000" stroke-width="2" d="M282.7 40.6c0-8.4 7-15.2 15.6-15.2 4.1 0 8 1.6 11 4.4a15 15 0 0 1 4.6 10.8c0 8.3-7 15.1-15.6 15.1s-15.6-6.8-15.6-15.1z"/><circle cx="84.3" cy="39.5" r="20.7" fill="#fff" stroke="#000" stroke-width="2"/><path fill="#fff" stroke="#000" stroke-width="2" d="m77.6 28.4 17.2 10.2-17.4 9.9Zm49.1-9.7h94.6v39.8h-94.6z"/><path fill="#fff" stroke="#000" stroke-width="2" d="M133.6 25.1h80.8v27h-80.8zM30.7 78.5h286.6v44.9H30.7Z"/><path fill="#fff" stroke="#000" stroke-width="2" d="M39.4 85.8h269.2v29.8H39.4Z"/><circle cx="115.1" cy="161.2" r="26" fill="#fff" stroke="#000" stroke-width="2"/><circle cx="228.8" cy="161.7" r="26" fill="#fff" stroke="#000" stroke-width="2"/><ellipse cx="23.1" cy="228.4" fill="#fff" stroke="#000" stroke-width="2" rx="10.8" ry="11.5"/><path fill="#000" d="M87.3 94h-7.7v5.4h3.3q.4 0 .8.3.3.3.3.8 0 .4-.3.8-.3.3-.8.3h-3.3v5.3h7.7q.5 0 .8.4.3.3.3.7 0 .5-.3.8-.4.3-.8.3h-10V92h10q.4 0 .8.3.3.3.3.8 0 .4-.3.8-.4.3-.8.3zm-3-6.8h.4q.5 0 .8.3.3.3.3.8 0 .7-.6 1l-4 1.8h-.5q-.4 0-.7-.3-.3-.3-.3-.7 0-.7.6-1zm9.1 20.8V92h7.8q1.3 0 2.3 1 1 1 1 2.3v4q0 1.4-1 2.4t-2.3 1h-5.5v5.4q0 .5-.4.8-.3.3-.7.3-.5 0-.8-.3-.4-.3-.4-.8zm2.3-7.7h5.5q.4 0 .8-.3.3-.3.3-.7v-4.1q0-.5-.3-.8-.4-.3-.8-.3h-5.5zm23.7-6.3h-7.7v5.4h3.3q.5 0 .8.3.3.3.3.8 0 .4-.3.8-.3.3-.8.3h-3.3v5.3h7.7q.5 0 .8.4.3.3.3.7 0 .5-.3.8-.3.3-.8.3h-9.9V92h9.9q.5 0 .8.3.3.3.3.8 0 .4-.3.8-.3.3-.8.3zm6.2 15.1V93q0-.5.3-.8.3-.3.8-.3.4 0 .7.3.3.3.3.8v14h7.8q.4 0 .7.3.4.3.4.7 0 .5-.4.8-.3.3-.7.3zm16 0V93q0-.5.3-.8.4-.3.8-.3.5 0 .8.3.3.3.3.8v14h7.7q.5 0 .8.3.3.3.3.7 0 .5-.3.8-.3.3-.8.3zm26-15.1h-7.7v5.4h3.3q.4 0 .8.3.3.3.3.8 0 .4-.3.8-.4.3-.8.3h-3.3v5.3h7.7q.4 0 .8.4.3.3.3.7 0 .5-.3.8-.4.3-.8.3h-10V92h10q.4 0 .8.3.3.3.3.8 0 .4-.3.8-.4.3-.8.3zm17.1 6.4v1q0 .4-.3.8-.3.3-.8.3h-8.8q-.4 0-.8-.3-.3-.4-.3-.8v-1q0-.4.3-.7.4-.4.8-.4h8.8q.4 0 .8.3.3.3.3.8zm9.5-1.8v-.5l-2.3-3.2V108q0 .5-.3.8-.3.3-.8.3-.4 0-.7-.3-.4-.3-.4-.8V92h2.9l2.6 3.9 2.8-4h2.8V108q0 .5-.4.8-.3.3-.7.3-.5 0-.8-.3-.3-.3-.3-.8V95l-2.2 3v.6q0 .5-.4.8-.3.3-.7.3-.5 0-.8-.3-.3-.3-.3-.8zm19.8-5.1 2.3 4.9q.5 1 .5 2.1 0 1.2-.5 2.2l-2.4 4.8q-.7 1.6-2.6 1.6-.8 0-1.5-.4-.7-.5-1-1.2l-2.5-4.8q-.5-1-.5-2.2 0-1.2.5-2.1l2.4-5q.8-1.5 2.6-1.5t2.6 1.6zm-3.4 1-2.3 4.7q-.3.6-.3 1.3 0 .7.3 1.4l2.4 4.6q.2.4.6.4.4 0 .7-.4l2.3-4.6q.3-.7.3-1.4t-.3-1.3l-2.3-4.6q-.2-.5-.7-.5-.4 0-.7.5zm12.4-2.6h8.8q.4 0 .8.3.3.3.3.8 0 .4-.3.8-.4.3-.8.3h-3.3v12.8h3.3q.5 0 .8.4.3.3.3.7 0 .5-.3.8-.4.3-.8.3H223q-.5 0-.8-.3-.3-.3-.3-.8 0-.4.3-.7.3-.4.8-.4h3.3V94.1H223q-.5 0-.8-.3-.3-.4-.3-.8 0-.5.3-.8.3-.3.8-.3zm37.6 17.2h-.7q-.8 0-1.6-.5-.9-.5-1.2-1l-2.5-5q-.5-1-.5-2.1 0-1.2.5-2.1l2.5-4.8q.4-.7 1.1-1.2.8-.5 1.5-.5h4.3q.5 0 .8.3.3.3.3.8 0 .4-.3.8-.3.3-.8.3h-4q-.6 0-.9.6l-2.4 4.5q-.3.5-.3 1.3 0 .7.3 1.3l2.3 4.5q.4.6 1.1.6h4q.4 0 .7.4.4.3.4.7 0 .5-.4.8-.3.3-.8.3h-1.1v3.6q0 .4-.3.8-.3.3-.8.3h-4.4q-.4 0-.8-.3-.3-.4-.3-.8 0-.5.3-.8.3-.3.8-.3h3.3zm9.5-1.5 4.5-15q.2-.7 1-.7.9 0 1 .7l4.4 15.1v.3q0 .5-.2.8-.4.3-.8.3-.8 0-1-.8l-1-3h-4.9l-1 3.2q0 .2-.3.4l-.6.2q-.5 0-.8-.3-.3-.3-.3-.8v-.4zm5.5-10.7-1.8 6.3h3.6z" aria-label="ÉPELLE-MOI ÇA"/><ellipse cx="65.7" cy="228.4" fill="#fff" stroke="#000" stroke-width="2" rx="10.8" ry="11.5"/><ellipse cx="108.4" cy="228.4" fill="#fff" stroke="#000" stroke-width="2" rx="10.8" ry="11.5"/><ellipse cx="151.1" cy="228.4" fill="#fff" stroke="#000" stroke-width="2" rx="10.8" ry="11.5"/><ellipse cx="193.8" cy="228.4" fill="#fff" stroke="#000" stroke-width="2" rx="10.8" ry="11.5"/><ellipse cx="236.5" cy="228.4" fill="#fff" stroke="#000" stroke-width="2" rx="10.8" ry="11.5"/><ellipse cx="279.2" cy="228.4" fill="#fff" stroke="#000" stroke-width="2" rx="10.8" ry="11.5"/><ellipse cx="321.9" cy="228.4" fill="#fff" stroke="#000" stroke-width="2" rx="10.8" ry="11.5"/><ellipse cx="23.1" cy="260.2" fill="#fff" stroke="#000" stroke-width="2" rx="10.8" ry="11.5"/><ellipse cx="65.7" cy="260.2" fill="#fff" stroke="#000" stroke-width="2" rx="10.8" ry="11.5"/><ellipse cx="108.3" cy="260.2" fill="#fff" stroke="#000" stroke-width="2" rx="10.8" ry="11.5"/><ellipse cx="151" cy="260.2" fill="#fff" stroke="#000" stroke-width="2" rx="10.8" ry="11.5"/><ellipse cx="193.7" cy="260.2" fill="#fff" stroke="#000" stroke-width="2" rx="10.8" ry="11.5"/><ellipse cx="236.4" cy="260.2" fill="#fff" stroke="#000" stroke-width="2" rx="10.8" ry="11.5"/><ellipse cx="279.1" cy="260.2" fill="#fff" stroke="#000" stroke-width="2" rx="10.8" ry="11.5"/><ellipse cx="321.9" cy="260.2" fill="#fff" stroke="#000" stroke-width="2" rx="10.8" ry="11.5"/><ellipse cx="23.1" cy="292.1" fill="#fff" stroke="#000" stroke-width="2" rx="10.8" ry="11.5"/><ellipse cx="65.7" cy="292.1" fill="#fff" stroke="#000" stroke-width="2" rx="10.8" ry="11.5"/><ellipse cx="108.4" cy="292.1" fill="#fff" stroke="#000" stroke-width="2" rx="10.8" ry="11.5"/><ellipse cx="151.1" cy="292.1" fill="#fff" stroke="#000" stroke-width="2" rx="10.8" ry="11.5"/><ellipse cx="193.8" cy="292.1" fill="#fff" stroke="#000" stroke-width="2" rx="10.8" ry="11.5"/><ellipse cx="236.5" cy="292.1" fill="#fff" stroke="#000" stroke-width="2" rx="10.8" ry="11.5"/><ellipse cx="279.2" cy="292.1" fill="#fff" stroke="#000" stroke-width="2" rx="10.8" ry="11.5"/><ellipse cx="321.9" cy="292.1" fill="#fff" stroke="#000" stroke-width="2" rx="10.8" ry="11.5"/><ellipse cx="23.1" cy="324" fill="#fff" stroke="#000" stroke-width="2" rx="10.8" ry="11.5"/><ellipse cx="65.7" cy="324" fill="#fff" stroke="#000" stroke-width="2" rx="10.8" ry="11.5"/><ellipse cx="108.4" cy="324" fill="#fff" stroke="#000" stroke-width="2" rx="10.8" ry="11.5"/><ellipse cx="151.1" cy="324" fill="#fff" stroke="#000" stroke-width="2" rx="10.8" ry="11.5"/><ellipse cx="193.8" cy="324" fill="#fff" stroke="#000" stroke-width="2" rx="10.8" ry="11.5"/><ellipse cx="236.5" cy="324" fill="#fff" stroke="#000" stroke-width="2" rx="10.8" ry="11.5"/><ellipse cx="279.2" cy="324" fill="#fff" stroke="#000" stroke-width="2" rx="10.8" ry="11.5"/><ellipse cx="321.9" cy="324" fill="#fff" stroke="#000" stroke-width="2" rx="10.8" ry="11.5"/><path fill="#000" d="M160.3 29.1h1.2q.5 0 .9.4.3.3.3.8t-.3.9q-.4.3-.9.3v8h8.5q.5 0 .9.3.3.4.3.9v6.2q0 .5-.3.9-.4.3-.9.3h-9.7q-.5 0-.8-.3-.4-.4-.4-.9V30.3q0-.5.4-.8.3-.4.8-.4zm1.2 12.8v3.8h7.3v-3.8zm15.3 3.9V31.4q0-1 .7-1.6.6-.7 1.6-.7h7.5q1 0 1.6.7.7.6.7 1.6v14.4q0 1-.7 1.6-.7.7-1.6.7H179q-1 0-1.7-.7-.6-.7-.6-1.6zm9.7-.1V31.5h-7.3v14.2z" aria-label="60"/></svg>