<svg xmlns="http://www.w3.org/2000/svg" version="1.0" viewBox="0 0 1293.8 1293.8"><path d="m643.5 19.1-628.3.6-.3 628.2c-.2 438 0 628.6.8 629.4 1.4 1.4 1257.2 1.8 1258.4.6.3-.5.9-1060.9.5-1257.2 0-2.1 16.2-2.1-631.1-1.6zm622.6 6.3c1.7.6 1.8 49.3 1.6 624.6l-.4 624H23.1l-.4-623.6c-.2-498.3 0-624 1.2-624.8 1.6-1 1239.4-1.2 1242.2-.2zM108.3 75.8a51 51 0 0 0-28.8 25.3l-3.6 7.5v1076.7l3.6 7.3c4.8 9.5 13.3 18 22.7 22.6l7.4 3.7h336.6l7.3-3.7a52 52 0 0 0 22.7-22.6l3.6-7.3V108.6l-3.6-7.5a52.8 52.8 0 0 0-22.7-22.7l-7.4-3.6-166.5-.2c-135.5-.1-167.4.1-171.3 1.2zm96.5 120.6c5.8 5.9 12.8 12 15.5 13.6 5.3 3.2 5.8 4.9 2.5 8.3-3.8 3.7-10.3 2.3-16-3-6.5-6.3-6.4-7-6.8 51.9-.3 59.4 0 56.8-7.6 56.8s-7.3 2.6-7.7-56.8c-.3-58.8-.2-58.2-6.7-52-5.8 5.4-12.3 6.8-16 3-3.4-3.3-2.8-5 2.5-8.2 2.7-1.5 9.7-7.7 15.5-13.6a64 64 0 0 1 12.4-10.8c.9 0 6.5 4.9 12.4 10.8zm169.8 0c5.9 5.9 12.9 12 15.6 13.6 5.2 3.2 5.8 4.9 2.4 8.3-3.7 3.7-10.2 2.3-16-3-6.5-6.3-6.4-7-6.7 51.9-.3 59.4 0 56.8-7.6 56.8s-7.4 2.6-7.7-56.8c-.3-58.8-.2-58.2-6.7-52-5.8 5.4-12.3 6.8-16 3-3.4-3.3-2.8-5 2.5-8.2 2.7-1.5 9.6-7.7 15.5-13.6a61 61 0 0 1 12.4-10.8c.9 0 6.5 4.9 12.3 10.8zM204.7 393.3c5.9 5.8 12.9 12 15.6 13.6 5.3 3.2 5.8 4.9 2.4 8.2-3.7 3.7-10.2 2.4-16-3-6.4-6.2-6.3-6.9-6.7 52-.3 59.4 0 56.8-7.6 56.8s-7.3 2.6-7.7-56.8c-.3-58.9-.2-58.2-6.7-52-5.8 5.4-12.3 6.7-16 3-3.4-3.4-2.8-5 2.5-8.2a122 122 0 0 0 15.5-13.6 61 61 0 0 1 12.4-10.8c.9 0 6.5 4.8 12.3 10.8zm171 0c5.9 5.8 12.9 12 15.6 13.6 5.3 3.2 5.8 4.9 2.4 8.2-3.7 3.7-10.2 2.4-16-3-6.5-6.2-6.3-6.9-6.7 52-.3 59.4 0 56.8-7.6 56.8s-7.3 2.6-7.7-56.8c-.3-58.9-.2-58.2-6.7-52-5.8 5.4-12.3 6.7-16 3-3.4-3.4-2.8-5 2.5-8.2 2.7-1.6 9.7-7.7 15.5-13.6a61 61 0 0 1 12.4-10.8 64 64 0 0 1 12.4 10.8zm-171 189c5.9 5.8 12.9 12 15.6 13.6 5.3 3.2 5.8 4.8 2.4 8.2-3.7 3.7-10.2 2.4-16-3-6.4-6.2-6.3-6.9-6.7 52-.3 59.4 0 56.8-7.6 56.8s-7.3 2.6-7.7-56.8c-.3-58.9-.2-58.2-6.7-52-5.8 5.4-12.3 6.7-16 3-3.4-3.4-2.8-5 2.5-8.2 2.7-1.6 9.6-7.8 15.5-13.6a61 61 0 0 1 12.4-10.8c.9 0 6.5 4.8 12.3 10.8zm171 0c5.9 5.8 12.9 12 15.6 13.6 5.3 3.2 5.8 4.8 2.4 8.2-3.7 3.7-10.2 2.4-16-3-6.5-6.2-6.3-6.9-6.7 52-.3 59.4 0 56.8-7.6 56.8s-7.3 2.6-7.7-56.8c-.3-58.9-.2-58.2-6.7-52-5.8 5.4-12.3 6.7-16 3-3.4-3.4-2.8-5 2.5-8.2 2.7-1.6 9.7-7.8 15.5-13.6a61 61 0 0 1 12.4-10.8 64 64 0 0 1 12.4 10.8zm-171 196.9c5.9 5.8 12.9 12 15.6 13.6 5.3 3.1 5.8 4.8 2.4 8.2-3.7 3.7-10.2 2.4-16-3-6.4-6.2-6.3-6.9-6.7 52-.3 59.3 0 56.7-7.6 56.7s-7.3 2.6-7.7-56.8c-.3-58.8-.2-58.1-6.7-52-5.8 5.5-12.3 6.8-16 3.1-3.4-3.4-2.8-5 2.5-8.2 2.7-1.6 9.6-7.8 15.5-13.6a61 61 0 0 1 12.4-10.8c.9 0 6.5 4.8 12.3 10.8zm171 0c5.9 5.8 12.9 12 15.6 13.6 5.3 3.1 5.8 4.8 2.4 8.2-3.7 3.7-10.2 2.4-16-3-6.5-6.2-6.3-6.9-6.7 52-.3 59.3 0 56.7-7.6 56.7s-7.3 2.6-7.7-56.8c-.3-58.8-.2-58.1-6.7-52-5.8 5.5-12.3 6.8-16 3.1-3.4-3.4-2.8-5 2.5-8.2 2.7-1.6 9.7-7.8 15.5-13.6a61 61 0 0 1 12.4-10.8 64 64 0 0 1 12.4 10.8zM204.8 976a133 133 0 0 0 15.6 13.7c5.3 3.1 5.8 4.8 2.4 8.2-3.7 3.7-10.2 2.3-16-3-6.4-6.3-6.3-7-6.7 52-.3 59.3 0 56.7-7.6 56.7s-7.3 2.6-7.7-56.8c-.3-58.8-.2-58.2-6.7-52-5.8 5.4-12.3 6.8-16 3-3.4-3.3-2.8-5 2.5-8.1a125 125 0 0 0 15.5-13.7 61 61 0 0 1 12.4-10.8c.9 0 6.5 4.9 12.3 10.8zm170 0c5.8 5.9 12.8 12 15.5 13.7 5.2 3.1 5.8 4.8 2.4 8.2-3.7 3.7-10.2 2.3-16-3-6.5-6.3-6.4-7-6.7 52-.3 59.3 0 56.7-7.7 56.7s-7.3 2.6-7.6-56.8c-.3-58.8-.2-58.2-6.8-52-5.7 5.4-12.2 6.8-16 3-3.3-3.3-2.7-5 2.5-8.1 2.8-1.6 9.7-7.8 15.6-13.7a61 61 0 0 1 12.4-10.8c.8 0 6.5 4.9 12.3 10.8zM1095 93.8a59.2 59.2 0 0 0-27.8 99.4c32.4 32.4 89.5 16.4 100-28a59.7 59.7 0 0 0-72.2-71.4zm27.2 4.6a54.2 54.2 0 0 1 26.5 90.5 55 55 0 0 1-92.9-25.2c-9.8-38.4 27.7-75.3 66.4-65.3z"/></svg>