<svg xmlns="http://www.w3.org/2000/svg" viewBox="0 0 828 823">
  <style> .st5{fill:#1c0035} </style>
  <path class="st5" d="M323.9 709.9c-2 .9-3.9 1.9-5.9 2.8-15.2 8.9-31.7 14.4-48.5 19.5-18.9 5.8-37.6 3.1-56.6 2-13.8-.8-27-3.8-39.7-9.1-14.7-6.1-27.1-15.6-37.8-27.2-12.1-13-22.1-27.6-29.2-44-5.9-13.6-10.2-27.7-11.4-42.6-.5-6.1-2.9-16.2-2.5-22.3.7-12 4-17.8 7.6-28.2 5-14.5 10.8-28.8 16.2-43.2 2.5-1.4 4.2-.5 5.1 2.1-6.1 15.7-12.3 31.4-18.1 47.3-2.7 7.5-5.2 14.6-5.4 21.1-.2 7 2 21.9 3.3 31.7 2.4 18.2 9.4 34.8 19.2 50.1 9.3 14.5 20.3 27.7 34.3 38.3 11.1 8.4 23 14.6 36.5 17.4 10.7 2.2 21.7 3.3 32.6 4.3 15.8 1.4 31.4 2 47-3 16-5 31.6-10.6 46-19.2 1.5-1 3.1-2 4.6-3 10.6-8 21.2-16.1 31.9-24.1l3.9-3.3 26.7-25.8c.8 1.7 1.5 3.4 2.3 5.1-8.8 8.7-17.5 17.4-26.3 26.1-1.3 1.1-2.5 2.2-3.8 3.4-10.6 8.1-21.3 15.9-32 23.8z"/>
  <path class="st5" d="M590.5 486.9c-7.9-10.3-15.8-20.6-23.7-30.8 1.8-.6 3.6-1.2 5.3-1.8 4.3 5.9 8.5 12 13 17.8 3.7 4.7 7.9 9.1 11.9 13.7.9 1.4 1.9 2.8 2.8 4.1.4.8.7 1.7 1.2 2.5 4.5 7.4 8.9 14.9 13.4 22.3 1.2 1.8 2.4 3.6 3.7 5.5 4.4 12.8 8.8 25.5 13.1 38.3l.6 3.7c0 .5.1 1.1.1 1.6-.3 1.1-.7 2.1-.7 3.2-.4 12.4-12.1 23.7-24.4 23.1-2.9-.1-5.7-1.2-8.5-1.9-2.2-.3-4.4-.7-6.7-1-10-2.1-19.9-4.1-29.9-6.2-1.4-.4-2.8-.7-4.3-1.1-2.7-.3-5.4-.8-8.2-1-6.9-.4-9.7 1-11.8 7.4-1.6 4.7-2.3 9.7-3.4 14.5l-.9 3.8c-2.7 9.7-5.5 19.5-8.2 29.2-.7 1.7-1.4 3.4-2 5.1-2.2 4.5-4.2 9.1-6.7 13.5-5.6 9.8-14.3 12.8-24 8.5-1.9-.9-3.8-1.7-5.8-2.6-1.4-.9-2.8-1.8-4.2-2.6-1.5-1.2-2.8-3-4.5-3.5-5.7-1.9-9.1-6.1-12.6-10.5-4-4.9-8.1-9.8-12.2-14.7.7-1.7 1.4-3.4 2-5.1 9.2 9.8 16.8 21.4 29.2 27.9 1.5 1 3 1.9 4.5 2.9 2.4 1.3 4.6 2.9 7.1 4 5.4 2.4 10.4 1.6 13.4-3.2 3.5-5.6 6-11.8 9-17.7l1.8-5.8 8.1-29.2c.3-1.2.7-2.4 1-3.7.6-2.2 1.5-4.3 1.9-6.5 2.1-12.1 9-18.2 20.8-16.8 1.3.2 2.6 0 4-.1 1.8.4 3.7.7 5.5 1.1 1.7.5 3.4 1 5.1 1.4 8.6 1.9 17.2 3.7 25.7 5.5l6.3 1.5c8.1 1.8 15.8 3.3 22.4-4.3 4.4-5 7.1-11.2 5.3-16.5-.1-1.8-.2-3.5-.2-5.3-1.9-13.4-7.5-25.3-13.8-37-.9-1.8-1.7-3.5-2.6-5.3-5.3-8-10.5-16-15.8-24-1.1-1.2-2.1-2.5-3.1-3.9zM119 511.2c5.6-9.3 11.3-18.6 16.9-27.9 1.1-1.5 2.3-3 3.4-4.5 2.6-3.2 5-6.6 7.7-9.7 6.8-7.7 13.7-15.4 20.5-23 .9-.8 1.8-1.5 2.7-2.3 8.3-7.3 16.7-14.6 25-21.9 1.5-1.3 3.1-2.6 4.6-3.9 1.5-1 3-2 4.5-2.9 4.2-3 8.3-6 12.5-9 1.3-1 2.7-2 4-3 2.2-1.4 4.6-2.5 6.5-4.2 7.9-7.1 16-14 23.3-21.7 4.8-5.1 6.8-12 3.6-18.8-2.9-6.1-6.8-11.6-10.2-17.4-1.1-1.5-2.2-2.9-3.3-4.4-3.9-6.4-7.8-12.7-11.7-19.1l-2.9-4.4c-7.6-15.5-19.7-28.4-26-44.6-.6-1.6-1.1-3.2-1.7-4.8-3.6-9.6-7.2-19.2-10.8-28.9 2 0 4 .1 6 .1l10.2 27.9c.7 1.9 1.5 3.8 2.2 5.6 1.2 3.2 1.8 6.6 3.6 9.4 6.9 10.9 14.1 21.6 21.2 32.4 1.2 1.7 2.4 3.3 3.6 5 4 6.5 8.1 13.1 12.1 19.6.8 1.5 1.5 2.9 2.3 4.4 1.2 1.9 2.7 3.7 3.6 5.8 2.5 5.7 5.8 11.4 7 17.5 2.1 10.4-4.2 17.8-11.1 24.4-7 6.6-14.5 12.8-21.7 19.2l-4.6 3.4-12.7 8.8c-1.6 1-3.1 2-4.7 3-2.4 1.6-5.1 2.9-7.3 4.9-7.5 6.8-14.9 13.8-22.3 20.7-1 .9-2 1.7-3 2.6-9.4 10.4-18.9 20.7-28.3 31.1l-3.7 4.6c-5.4 9.5-10.9 19-16.3 28.6-1.2-.8-3-1.7-4.7-2.6z"/>
  <path class="st5" d="m336 195.8 4.3 3.1c6.5 5 13.1 10 19.6 15-.6 1.7-1.3 3.4-1.9 5-6.3-4.5-12.7-9-19-13.6l-4.3-3.4c-9.5-7.2-19-14.3-28.4-21.5l-3.9-2.4c-2-1.1-3.8-2.3-5.9-3.2-10.7-4.7-21.5-9.4-32.3-14-2-.7-4-1.3-6-2-18.5-6.1-36.1-5.7-52.2 6.8-10.5 8.1-16.2 18.9-17.7 31.8-1.2 10.6.8 21.1 3.8 31.3H187c-1.2-9.4-3.4-18.8-3.4-28.2 0-20.7 10.7-35.4 28.7-44.7 12.8-6.6 26.5-7 40.4-3.9 2.1.5 4.1 1.2 6.1 1.7 1.8.5 3.6 1 5.5 1.5 1.5.6 3.1 1.1 4.6 1.7l34.8 14.7c1.4.9 2.7 1.8 4.1 2.7M573 282.1c2.5-3.8 5.3-7.3 7.3-11.3 2.6-5.4 4.5-11.1 6.6-16.6l2.1-6c.7-1.4 1.3-2.8 2-4.2l6-20.6c.3-1.3.7-2.7 1-4 .9-3.6 2.3-7.1 2.5-10.7.7-8.3.9-16.7 1.2-25.1 0-1.9-.1-3.9-.1-5.8-3-19.7-11-36.8-26.8-49.5-17.4-13.9-34.8-12.6-52.8-2.4-2 1.1-3.9 2.3-5.9 3.5-.4-1.7-.9-3.5-1.3-5.2 8-3.3 15.8-7 24-9.7 10.6-3.5 20.8-1.1 30.3 4 20.2 11 30.2 29.4 35.9 50.7.7 2.5 1.3 5.1 1.9 7.6.1 1.6.2 3.2.4 4.8-1 12.1-2.1 24.2-3.1 36.4-.3 1.4-.7 2.8-1 4.1l-8.1 26.7c-.6 1.8-1.3 3.6-1.9 5.4-3.9 9.5-7.8 19.1-11.7 28.6-2.9-.3-5.7-.5-8.5-.7z"/>
  <path class="st5" d="M426.9 215.9c-2 2-4 4-6 6.1-5.9 4.1-11.4 9-17.8 11.9-4.2 1.9-9.9 1.6-14.7 1.2-9.8-.9-17.9-5.9-25.2-12.1.6-1.7 1.3-3.3 1.9-5 5.6 3.4 11 7.4 17 10.1 14.3 6.6 23.7 1.6 34.2-8.8 1-1 2-2.2 3-3.3 1.9-1.9 3.8-3.7 5.6-5.6 8.8-10 17.6-19.9 26.4-29.9 1-.9 2-1.8 2.9-2.8 7.7-7.7 15.5-15.4 23.2-23.1l3.8-3.8 24.1-19.9c1.2-1 2.5-2 3.8-3 .6 1.7 1.2 3.4 1.9 5.1l-27.1 23.2-3.8 3.8c-7.9 8-15.9 16-23.8 23.9-1.1.8-2.1 1.6-3.2 2.4M577 288.9c-9 8.4-13.3 19.8-19.3 30.1-.9 2-1.7 4.1-2.6 6.1-6.5 11.1-10.7 23.2-13 35.8-4.6 25.5 2.5 48.7 15.2 70.6 3.4 5.9 7.3 11.5 10.9 17.3-2.1.6-4.1 1-5.5 1-10.1-15-19.2-31.5-23.7-49.1-5.8-22.3-3.6-44.1 5.6-65.2 1.5-3.4 2.8-6.9 4.2-10.4.8-1.7 1.6-3.5 2.4-5.2 5.9-10.6 11.9-21.3 17.8-31.9 2.7.4 5.3.7 8 .9z"/>
  <path class="st5" d="M448 622c-5.1-4.4-9.6-10.1-17.4-8.9-6.8 1-10.6 6.4-14.9 10.9l-3.3 3.9L392 654c-1-2-1.9-3.9-2.9-5.9 6.8-8.5 13.6-16.9 20.4-25.4 1.2-1.4 2.5-2.7 3.7-4.1 3-2.5 5.8-5.4 9.2-7.4 8.6-5.2 16-4.4 23.8 2.2l4.1 3.5c-.8 1.7-1.6 3.4-2.3 5.1z"/>
</svg>