<svg xmlns="http://www.w3.org/2000/svg" xmlns:xlink="http://www.w3.org/1999/xlink" version="1.0" width="32" height="32" viewBox="0 0 24 24"><defs><g id="b"><path transform="rotate(18 3.157 -.5)" id="a" d="M.5 1L0 0v1z"/><use transform="scale(-1 1)" xlink:href="#a" width="100%" height="100%"/></g><g fill="#fff" transform="translate(1235 1050) scale(300.3)" id="c"><use xlink:href="#b" width="100%" height="100%"/><use transform="rotate(72)" xlink:href="#b" width="100%" height="100%"/><use transform="rotate(-72)" xlink:href="#b" width="100%" height="100%"/><use transform="rotate(144)" xlink:href="#b" width="100%" height="100%"/><use transform="rotate(-144)" xlink:href="#b" width="100%" height="100%"/></g><g id="d"><use xlink:href="#c" width="100%" height="100%"/><use x="1235" xlink:href="#c" width="100%" height="100%"/><use x="2470" xlink:href="#c" width="100%" height="100%"/><use x="3705" xlink:href="#c" width="100%" height="100%"/><use x="4940" xlink:href="#c" width="100%" height="100%"/></g></defs><path d="M8.49 23.982c-.592-.02-.796-.051-.824-.125-.042-.11.027-.702.287-2.44.097-.651.239-1.638.315-2.194.075-.555.186-1.3.245-1.655.06-.355.087-.684.06-.731-.133-.234-.792-1.219-1.805-2.698-1.952-2.85-3.005-4.416-3.123-4.646-.182-.353-.14-.504.322-1.152.239-.335.575-.815.747-1.065.866-1.26 2.424-3.454 2.555-3.598.062-.07.169-.126.236-.126.112 0 4.269 1.807 5.009 2.177.198.1.336.224.377.341.076.218-.073 1.393-.199 1.564-.095.13-.37.187-1.661.344-1.238.15-1.39.104-2.117-.646-.276-.285-.532-.5-.568-.477-.08.048.072.672.217.898.286.444.176.65-.396.743-.436.071-.602.164-.489.275.036.036.557.251 1.158.478.807.304 1.137.464 1.268.613.098.111.179.221.18.245.001.023.155.305.343.626 2.882 4.952 2.817 4.833 2.765 5.042-.026.105-.204.28-.462.455-.23.156-.399.316-.375.355.024.038.205.06.402.048l.36-.022-.018.662c-.01.364-.096 1.618-.192 2.786-.288 3.48-.31 3.714-.373 3.815-.056.09-2.767.16-4.244.108zm5.052-.01c-.276-.032-.348-.223-.3-.802.141-1.705.254-2.974.285-3.215.02-.154.097-.935.172-1.736.074-.801.167-1.489.205-1.527.047-.047.175-.046.387.002.174.04.332.048.351.018.019-.03-.15-.364-.373-.74-.224-.376-.636-1.076-.915-1.555a49.52 49.52 0 00-.665-1.114c-.086-.134-.556-.928-1.045-1.763-.615-1.052-.867-1.542-.816-1.592.05-.05.262-.047.688.01.498.066.796.162 1.556.502 1.5.672 1.541.698 2.342 1.518.494.507.8.768.898.768.163 0 .45-.19 1.77-1.172.473-.351.888-.64.922-.64.139 0 .13.247-.045 1.301-.43 2.58-.93 3.836-1.996 5.004l-.489.536.041 3.013c.038 2.76.032 3.022-.075 3.11-.09.074-.411.096-1.411.096a31.6 31.6 0 01-1.487-.022zm2.08-12.242c-.508-.545-.607-.685-.557-.795.034-.073.347-.44.695-.815.349-.375.766-.836.928-1.023.162-.187.339-.385.393-.44.055-.054.416-.455.802-.89.387-.435.744-.807.793-.826.173-.066 1.78 1.818 1.78 2.088 0 .096-.224.295-1.634 1.453-.606.498-1.372 1.133-1.702 1.41-.33.277-.663.503-.74.502-.084-.002-.383-.264-.757-.664zm-2.303-1.464a20.343 20.343 0 01-1.007-.486c-.096-.096.259-.62 1.839-2.718 1.947-2.587 1.996-2.645 2.145-2.56.224.128 2 1.9 2 1.995 0 .155-.074.244-2.58 3.08-.407.46-.799.906-.871.992-.204.243-.461.192-1.526-.303zM10.32 9.115c-1.17-.44-1.32-.523-1.225-.677.047-.077.13-.079.46-.01.437.09.831.06 1.775-.14 1.283-.27 1.379-.25 1.145.243-.149.314-.8 1.012-.939 1.007-.056-.003-.603-.193-1.216-.423zm2.857-2.456c.03-.49.023-.84-.02-.916-.038-.068-.425-.299-.86-.513-.464-.228-.801-.436-.814-.503-.02-.109 1.597-2.619 1.755-2.724.24-.158.418-.036 1.493 1.024l1.091 1.077-.11.197c-.06.109-.5.697-.975 1.309-.476.611-.99 1.276-1.14 1.477-.426.566-.479.512-.42-.428zm-2.404-2.187c-.425-.143-2.552-1.088-2.593-1.153-.08-.126-.083-.123.481-.887l1.02-1.387C10.287.22 10.49 0 10.64 0c.14 0 .77.451 1.582 1.13.48.402.57.51.534.635-.057.196-1.705 2.678-1.803 2.714a.325.325 0 01-.18-.007z"/></svg>