<svg xmlns="http://www.w3.org/2000/svg" width="32" height="32" viewBox="0 0 8.467 8.467"><g transform="translate(0 -288.533)" stroke="#000"><path fill="#e90303" stroke-width=".265" stroke-linecap="round" stroke-linejoin="round" d="M4.233 289.29l3.476 3.476-3.476 3.476-3.476-3.476z"/><path d="M4.21 290.201l-1.52 1.704s-.418.535.317.552c.199.004.413.005.63.007l-.002.006h1.149l-.002-.006c.217-.002.431-.003.63-.007.735-.017.317-.552.317-.552l-1.52-1.704z" fill="#ba0000" stroke-linejoin="round" stroke-width=".26458"/><path d="M3.319 292.395s.89-2.26 1.736 0" fill="#e90303" stroke-width=".265"/><ellipse cx="4.233" cy="294.231" rx=".366" ry=".886" fill="#800" stroke-width=".265" stroke-linecap="round" stroke-linejoin="round"/><path d="M3.867 294.231s-.312-.172-.377-.639c-.065-.466-.626-.065-.626-.065s-.52.254.325.502.458.418.836.931M4.6 294.231s.311-.172.376-.639c.065-.466.626-.065.626-.065s.52.254-.325.502c-.844.248-.458.418-.836.931" fill="#800" stroke-width=".265"/></g></svg>