<svg xmlns="http://www.w3.org/2000/svg" viewBox="0 0 8.467 8.467" height="32" width="32"><path d="M7.736 7.16H.73l1.752-3.034 1.751-3.034 1.752 3.034z" fill="none" stroke="#454e04" stroke-width=".589" stroke-linecap="round" stroke-linejoin="round"/><path d="M7.382 6.96H1.084L2.66 4.233l1.574-2.727 1.575 2.727z" fill="#688b17" stroke="#ecf34b" stroke-width=".529" stroke-linecap="round" stroke-linejoin="round"/><g color="#000"><path style="solid-color:#000;solid-opacity:1" d="M5.005 5.355c0 .371-.362.672-.807.672-.446 0-.808-.301-.808-.672 0-.372.362-.673.808-.673.445 0 .807.301.807.673z" overflow="visible" fill="#1d2c00"/><path style="solid-color:#000;solid-opacity:1" d="M5.463 4.206c-.52.606-1.979.16-2.192 1.015-.153.61.115.862.926 1.11.756-.345.808-.976 1.558-1.622-.292-.522-.18-.332-.292-.503zm-1.266.77c.314 0 .514.199.514.38 0 .18-.2.376-.514.376-.313 0-.511-.196-.511-.377 0-.18.198-.378.511-.378z" overflow="visible" fill="#9bc552"/></g><path d="M3.892 3.606s1.704.802 1.904 1.787c.2.986-1.57.936-1.754.902-.183-.033-1.637-.384-1.336-1.136.3-.751 1.22-.484 1.22-.484" fill="none" stroke="#d99e45" stroke-width=".529" stroke-linecap="round"/></svg>
