<svg xmlns="http://www.w3.org/2000/svg" width="339" height="245.151" viewBox="0 0 89.694 64.863"><g transform="matrix(.26458 0 0 .26458 -1.058 -1.26)" fill="none"><path d="M4.85 5.61h337.3v243.452H4.85z" stroke="#000" stroke-width="1.699"/><circle r="17" cy="67" cx="50" transform="matrix(1.05146 0 0 -1.05146 -7.025 200.448)" stroke="#000" stroke-width="2.533"/><path d="M54.1 129.998h-17l-8.4 80h33.7z" fill="#fff" stroke="#000" stroke-width="3"/><circle r="17" cy="67" cx="50" transform="translate(57.2 59.552) scale(1.05146)" stroke="#000" stroke-width="2.533"/><path d="M101.4 129.998h16.8l8.4 80H93z" fill="#fff" stroke="#000" stroke-width="3"/><circle r="17" cy="67" cx="50" transform="matrix(1.05146 0 0 -1.05146 121.428 200.448)" stroke="#000" stroke-width="2.533"/><path d="M182.4 129.998h-16.8l-8.4 80h33.6z" fill="#fff" stroke="#000" stroke-width="3"/><circle r="17" cy="67" cx="50" transform="matrix(1.05146 0 0 -1.05146 185.655 200.448)" stroke="#000" stroke-width="2.534"/><path d="M229.8 130h16.8l8.5-80h-33.6z" fill="#fff" stroke="#000" stroke-width="3"/><circle r="17.875" cy="130" cx="302.455" stroke="#000" stroke-width="2.665"/><path d="M294 129.998h17l8.3 80h-33.7z" fill="#fff" stroke="#000" stroke-width="3"/><path d="M6.133 127.28V6.819H341V247.74H6.133zM64.227 211.5c.006-.208-1.509-15.075-3.366-33.037l-3.377-32.658 2.175-2.444c8.57-9.638 6.164-24.465-4.928-30.378-9.82-5.234-22.08-1.16-26.799 8.904-1.187 2.533-1.343 3.482-1.343 8.17 0 4.822.132 5.572 1.456 8.268.8 1.631 2.402 3.953 3.558 5.16l2.102 2.193-3.417 32.47c-1.88 17.857-3.424 32.752-3.432 33.1-.012.494 4.052.63 18.673.63 10.278 0 18.692-.17 18.698-.378zm64.147-.252c.007-.348-1.515-15.218-3.382-33.046l-3.394-32.413 2.087-2.265c7.329-7.95 7.24-19.562-.206-27.174-9.25-9.456-25.336-6.688-31.26 5.38-1.358 2.762-1.486 3.48-1.486 8.327 0 4.788.138 5.583 1.418 8.19.78 1.588 2.417 3.915 3.637 5.171l2.22 2.284-3.246 31.194c-1.785 17.157-3.368 32.047-3.517 33.089l-.271 1.894h18.694c14.611 0 18.696-.138 18.706-.631zm64.145-.253c.007-.486-1.506-15.384-3.364-33.107l-3.378-32.222 2.024-2.123c5.54-5.809 7.017-13.165 4.17-20.773-1.37-3.665-5.688-8.392-9.224-10.101-4.93-2.382-11.348-2.624-16.17-.61-12.448 5.201-15.94 21.656-6.61 31.16l2.26 2.302-3.281 31.538c-1.805 17.345-3.387 32.276-3.516 33.178l-.236 1.642h18.656c17.426 0 18.657-.058 18.67-.884zm128.51-1.515c-.168-1.32-1.742-16.26-3.496-33.199l-3.19-30.8 2.042-2.03c9.228-9.175 6.09-25.801-5.868-31.09-7.775-3.44-16.46-1.655-22.22 4.565-4.583 4.95-6.281 11.364-4.673 17.643.942 3.675 2.192 5.913 5.026 9l1.973 2.149-3.357 31.944c-1.846 17.57-3.353 32.455-3.349 33.08l.008 1.137h37.411zm-74.62-61.945c3.853-1.767 7.732-5.703 9.633-9.775 1.17-2.508 1.357-3.561 1.361-7.703.005-4.328-.148-5.12-1.559-8.082-.86-1.805-2.527-4.268-3.704-5.473l-2.139-2.19 3.33-31.65c1.83-17.407 3.435-32.275 3.564-33.039l.236-1.389h-18.675c-17.447 0-18.676.058-18.683.884-.004.486 1.497 15.376 3.335 33.09l3.344 32.204-2.152 2.14c-1.183 1.177-2.852 3.618-3.708 5.423-1.385 2.921-1.555 3.784-1.545 7.829.015 5.614 1.282 9.17 4.57 12.827 4.372 4.863 8.6 6.677 15.104 6.482 3.745-.112 5.1-.39 7.688-1.578z" fill="#000" fill-opacity=".241"/></g></svg>