<svg xmlns="http://www.w3.org/2000/svg" width="339" height="245.151" viewBox="0 0 89.694 64.863"><g transform="matrix(.26458 0 0 .26458 -1.058 -1.26)" fill="none"><path d="M4.85 5.61h337.3v243.452H4.85z" stroke="#000" stroke-width="1.699"/><circle r="17" cy="67" cx="50" transform="matrix(1.05146 0 0 -1.05146 -7.025 200.448)" stroke="#000" stroke-width="2.533"/><path d="M54.1 129.998h-17l-8.4 80h33.7z" fill="#fff" stroke="#000" stroke-width="3"/><circle r="17" cy="67" cx="50" transform="translate(57.2 59.552) scale(1.05146)" stroke="#000" stroke-width="2.533"/><path d="M118.2 130h-16.8L93 50h33.6z" fill="#fff" stroke="#000" stroke-width="3"/><circle r="17" cy="67" cx="50" transform="matrix(1.05146 0 0 -1.05146 121.428 200.448)" stroke="#000" stroke-width="2.533"/><path d="M182.4 129.998h-16.8l-8.4 80h33.6z" fill="#fff" stroke="#000" stroke-width="3"/><circle r="17" cy="67" cx="50" transform="matrix(1.05146 0 0 -1.05146 185.655 200.448)" stroke="#000" stroke-width="2.533"/><path d="M246.8 129.998H230l-8.5 80h33.6z" fill="#fff" stroke="#000" stroke-width="3"/><circle r="17.875" cy="130" cx="302.455" stroke="#000" stroke-width="2.944"/><path d="M310.9 130h-17l-8.3-80h33.7z" fill="#fff" stroke="#000" stroke-width="3"/><path d="M5.962 127.28V6.819h334.866V247.74H5.962zm58.084 83.158c0-.793-1.486-15.72-3.303-33.17l-3.302-31.728 1.962-2.059c2.706-2.84 3.974-5.125 4.944-8.911 1.608-6.28-.09-12.692-4.674-17.643-9.431-10.186-25.686-7.646-31.652 4.948-1.451 3.063-1.603 3.84-1.603 8.183 0 4.196.177 5.178 1.414 7.828.777 1.667 2.426 4.062 3.663 5.323l2.25 2.292-3.272 31.295c-1.8 17.213-3.394 32.148-3.543 33.19l-.272 1.894h37.388zm128.526-.452c-.154-1.042-1.744-15.96-3.534-33.15l-3.254-31.255 2.091-2.08c9.277-9.225 6.173-25.835-5.818-31.14-7.775-3.439-16.46-1.654-22.22 4.566-4.282 4.625-6.027 10.429-4.926 16.382.73 3.947 2.145 6.769 4.972 9.913l2.318 2.578-3.388 32.409c-1.863 17.824-3.379 32.692-3.368 33.04.015.493 4.105.63 18.713.63h18.694zm64.38 1.01c-.02-.486-1.553-15.392-3.41-33.124l-3.376-32.24 2.083-2.173c1.145-1.196 2.736-3.507 3.535-5.136 1.32-2.692 1.453-3.446 1.453-8.265 0-4.67-.157-5.635-1.318-8.082-4.835-10.189-16.955-14.252-26.824-8.992-7.146 3.81-11.275 12.012-9.994 19.851.651 3.985 3.064 8.798 5.525 11.021l1.976 1.786-3.493 32.74c-1.922 18.007-3.495 32.91-3.497 33.12-.002.207 8.407.378 18.685.378 17.474 0 18.686-.058 18.654-.884zm48.786-61.79c8.361-1.546 14.604-7.903 15.993-16.285.98-5.918-1.066-12.286-5.285-16.444l-2.17-2.138 3.408-32.168c1.875-17.692 3.417-32.566 3.427-33.052.017-.826-1.204-.884-18.738-.884h-18.756l.274 2.147c.15 1.18 1.705 16.042 3.453 33.026l3.18 30.88-2.592 2.836c-10.007 10.949-4.173 28.747 10.47 31.94 3.601.787 3.822.79 7.336.141zm-187.79-1.67c3.854-1.767 7.732-5.703 9.633-9.775 1.171-2.508 1.357-3.561 1.362-7.703.005-4.328-.148-5.12-1.56-8.082-.86-1.805-2.52-4.262-3.688-5.458l-2.125-2.175 3.306-31.665c1.82-17.416 3.417-32.29 3.55-33.054l.244-1.389h-18.675c-17.445 0-18.676.058-18.687.884-.007.486 1.499 15.38 3.345 33.099l3.358 32.215-2.146 2.13c-1.18 1.172-2.855 3.608-3.722 5.413-1.417 2.952-1.573 3.742-1.544 7.829.04 5.635 1.312 9.217 4.558 12.827 4.372 4.863 8.6 6.677 15.103 6.482 3.745-.112 5.1-.39 7.689-1.578z" fill="#000" fill-opacity=".241"/></g></svg>