<svg xmlns="http://www.w3.org/2000/svg" width="339" height="245.151" viewBox="0 0 89.694 64.863"><g transform="matrix(.26458 0 0 .26458 -1.058 -1.26)" fill="none" stroke="#000"><path d="M4.85 5.61h337.3v243.452H4.85z" stroke-width="1.699"/><circle r="17" cy="67" cx="50" transform="matrix(1.05146 0 0 -1.05146 -7.025 200.448)" stroke-width="2.533"/><path d="M37 130h17l8.4-80H28.7z" fill="#fff" stroke-width="3"/><circle r="17" cy="67" cx="50" transform="translate(57.2 59.552) scale(1.05146)" stroke-width="2.533"/><path d="M101.4 129.998h16.8l8.4 80H93z" fill="#fff" stroke-width="3"/><circle r="17" cy="67" cx="50" transform="matrix(1.05146 0 0 -1.05146 121.428 200.448)" stroke-width="2.533"/><path d="M182.4 129.998h-16.8l-8.4 80h33.6z" fill="#fff" stroke-width="3"/><circle r="17" cy="67" cx="50" transform="matrix(1.05146 0 0 -1.05146 185.655 200.448)" stroke-width="2.533"/><path d="M246.8 129.998H230l-8.5 80h33.6z" fill="#fff" stroke-width="3"/><circle r="17.875" cy="130" cx="302.455" stroke-width="2.944"/><path d="M310.9 130h-17l-8.3-80h33.7z" fill="#fff" stroke-width="3"/><path d="M5.912 127.28V6.819h335.37V247.74H5.912zm122.464 82.706c-.155-1.042-1.748-15.978-3.54-33.193l-3.26-31.298 2.247-2.29c1.236-1.258 2.883-3.652 3.66-5.319 1.237-2.65 1.415-3.632 1.415-7.828 0-4.343-.153-5.12-1.604-8.183-3.773-7.965-11.897-12.313-20.488-10.965-4.549.714-7.952 2.548-11.164 6.017-4.583 4.95-6.282 11.364-4.673 17.643.977 3.813 2.238 6.072 5.015 8.984l2.034 2.132-3.394 32.466c-1.866 17.856-3.385 32.75-3.374 33.097.015.493 4.105.63 18.713.63h18.694zm64.172-.253c-.166-1.18-1.754-16.076-3.529-33.101l-3.225-30.955 2.206-2.27c1.214-1.25 2.845-3.57 3.625-5.159 1.28-2.607 1.417-3.402 1.417-8.19 0-4.846-.128-5.565-1.484-8.328-6.02-12.261-22.424-14.846-31.63-4.983-7.176 7.689-7.104 18.895.172 26.788l2.096 2.275-3.41 32.656c-1.875 17.96-3.4 32.827-3.39 33.035.01.208 8.442.379 18.737.379h18.719zm64.25-.252c-.152-1.32-1.701-16.184-3.442-33.031l-3.164-30.632 2.103-2.39c1.157-1.314 2.731-3.667 3.498-5.228 1.253-2.553 1.394-3.375 1.394-8.142 0-4.688-.156-5.637-1.344-8.17-4.718-10.064-16.978-14.138-26.798-8.904-11.152 5.945-13.556 21.284-4.772 30.452l2.31 2.411-3.246 30.618c-1.786 16.839-3.388 31.696-3.56 33.016l-.313 2.399H257.075zm49.747-60.463c15.092-3.198 20.569-21.984 9.605-32.948l-1.844-1.844 3.405-32.616c1.873-17.94 3.397-32.788 3.387-32.996-.018-.366-37.394-.564-37.394-.198 0 .099 1.476 14.361 3.281 31.693 1.805 17.332 3.283 32.186 3.283 33.01.001 1.06-.578 2.09-1.985 3.535-10.436 10.71-4.695 29.19 10.068 32.41 3.67.801 4.211.798 8.194-.046zm-252.551-1.674c4.179-2.059 7.962-6.048 9.569-10.09.896-2.255 1.156-3.919 1.165-7.449.011-4.045-.16-4.908-1.544-7.829-.856-1.805-2.514-4.235-3.684-5.399l-2.128-2.115 3.465-32.987L64.3 48.488l-18.666-.133c-10.266-.073-18.71-.073-18.765 0-.055.073 1.45 14.972 3.342 33.108l3.441 32.975-2.078 2.128c-1.144 1.17-2.783 3.605-3.643 5.41-1.411 2.961-1.564 3.754-1.56 8.082.005 4.135.192 5.197 1.354 7.686 1.61 3.448 5.42 7.672 8.198 9.09 4.043 2.062 5.522 2.394 10.155 2.278 4.001-.1 4.969-.316 7.915-1.768z" fill="#000" fill-opacity=".239" stroke-width="1.345" stroke-opacity=".239"/></g></svg>