<svg xmlns="http://www.w3.org/2000/svg" width="339" height="245.151" viewBox="0 0 89.694 64.863"><g transform="matrix(.26458 0 0 .26458 -1.058 -1.26)" fill="none"><path d="M4.85 5.61h337.3v243.452H4.85z" stroke="#000" stroke-width="1.699"/><circle r="17" cy="67" cx="50" transform="matrix(1.05146 0 0 -1.05146 -7.025 200.448)" stroke="#000" stroke-width="2.533"/><path d="M37 130h17l8.4-80H28.7z" fill="#fff" stroke="#000" stroke-width="3"/><circle r="17" cy="67" cx="50" transform="translate(57.2 59.552) scale(1.05146)" stroke="#000" stroke-width="2.533"/><path d="M101.4 129.998h16.8l8.4 80H93z" fill="#fff" stroke="#000" stroke-width="3"/><circle r="17" cy="67" cx="50" transform="matrix(1.05146 0 0 -1.05146 121.428 200.448)" stroke="#000" stroke-width="2.533"/><path d="M182.4 129.998h-16.8l-8.4 80h33.6z" fill="#fff" stroke="#000" stroke-width="3"/><circle r="17" cy="67" cx="50" transform="matrix(1.05146 0 0 -1.05146 185.655 200.448)" stroke="#000" stroke-width="2.533"/><path d="M246.8 129.998H230l-8.5 80h33.6z" fill="#fff" stroke="#000" stroke-width="3"/><circle r="17.875" cy="130" cx="302.455" stroke="#000" stroke-width="2.944"/><path d="M294 129.998h17l8.3 80h-33.7z" fill="#fff" stroke="#000" stroke-width="3"/><path d="M5.861 127.28V6.819h335.371V247.74H5.86zm122.493 82.453c-.166-1.18-1.762-16.104-3.545-33.163l-3.243-31.016 2.077-2.066c1.143-1.137 2.782-3.544 3.641-5.35 1.43-3.002 1.562-3.714 1.547-8.333-.014-4.524-.168-5.366-1.48-8.07-6.037-12.448-22.433-14.881-31.835-4.726-6.946 7.503-6.88 18.426.16 26.255l2.31 2.57-3.401 32.644c-1.87 17.955-3.393 32.815-3.384 33.023.01.208 8.441.379 18.737.379h18.719zm64.379 2.02c-.004-.069-1.566-14.945-3.472-33.058l-3.465-32.933 2.142-2.235c1.178-1.23 2.797-3.57 3.598-5.2 1.324-2.697 1.456-3.447 1.456-8.27 0-4.67-.158-5.634-1.318-8.08-1.907-4.018-5.027-7.28-8.684-9.08-17.156-8.442-34.55 8.924-26.113 26.071.84 1.707 2.387 3.88 3.44 4.83l1.911 1.728-3.412 32.293c-1.876 17.761-3.42 32.69-3.432 33.177-.019.826 1.199.884 18.667.884 10.279 0 18.685-.057 18.682-.126zm64.158-.504c.004-.348-1.506-15.22-3.356-33.05l-3.362-32.416 2.163-2.433c8.575-9.642 6.168-24.446-4.938-30.366-9.82-5.234-22.08-1.16-26.798 8.904-1.188 2.533-1.344 3.482-1.344 8.17 0 4.822.132 5.572 1.456 8.268.8 1.631 2.447 4 3.659 5.265l2.203 2.299-3.284 31.1c-1.806 17.106-3.416 31.954-3.577 32.996l-.293 1.894h18.732c14.645 0 18.734-.138 18.74-.631zm64.145-.253c.004-.486-1.496-15.383-3.333-33.103l-3.34-32.22 2.276-2.432c5.609-5.997 6.904-14.143 3.43-21.569-5.493-11.738-21.036-14.922-30.521-6.253-8.224 7.516-8.753 20.015-1.19 28.133l2.25 2.415-3.46 32.578c-1.902 17.917-3.467 32.748-3.477 32.956-.01.208 8.392.379 18.67.379 17.458 0 18.688-.058 18.695-.884zm-267.333-63.46c3.853-1.767 7.732-5.703 9.633-9.775 1.17-2.508 1.357-3.561 1.361-7.703.005-4.341-.146-5.119-1.586-8.158-.876-1.848-2.524-4.292-3.664-5.431l-2.072-2.072 3.274-31.44c1.8-17.291 3.378-32.178 3.506-33.08l.231-1.642H27.074v1.419c0 .78 1.481 15.702 3.291 33.159l3.291 31.74-1.824 1.817c-7.095 7.07-7.51 18.933-.92 26.262 4.371 4.863 8.6 6.677 15.103 6.482 3.744-.112 5.099-.39 7.688-1.578z" fill="#000" fill-opacity=".241"/></g></svg>