<svg xmlns="http://www.w3.org/2000/svg" width="339" height="245.151" viewBox="0 0 89.694 64.863"><g transform="matrix(.26458 0 0 .26458 -1.058 -1.26)" fill="none"><path d="M4.85 5.61h337.3v243.452H4.85z" stroke="#000" stroke-width="1.699"/><circle r="17" cy="67" cx="50" transform="matrix(1.05146 0 0 -1.05146 -7.025 200.448)" stroke="#000" stroke-width="2.533"/><path d="M37 130h17l8.4-80H28.7z" fill="#fff" stroke="#000" stroke-width="3"/><circle r="17" cy="67" cx="50" transform="translate(57.2 59.552) scale(1.05146)" stroke="#000" stroke-width="2.533"/><path d="M101.4 129.998h16.8l8.4 80H93z" fill="#fff" stroke="#000" stroke-width="3"/><circle r="17" cy="67" cx="50" transform="matrix(1.05146 0 0 -1.05146 121.428 200.448)" stroke="#000" stroke-width="2.533"/><path d="M182.4 129.998h-16.8l-8.4 80h33.6z" fill="#fff" stroke="#000" stroke-width="3"/><circle r="17" cy="67" cx="50" transform="matrix(1.05146 0 0 -1.05146 185.655 200.448)" stroke="#000" stroke-width="2.533"/><path d="M229.8 130h16.8l8.5-80h-33.6z" fill="#fff" stroke="#000" stroke-width="3"/><circle r="17.875" cy="130" cx="302.455" stroke="#000" stroke-width="2.944"/><path d="M294 129.998h17l8.3 80h-33.7z" fill="#fff" stroke="#000" stroke-width="3"/><path d="M5.78 127.28V6.819h335.37V247.74H5.779zM128.497 211.5c-.008-.208-1.563-15.091-3.457-33.073l-3.444-32.695 2.128-2.22c1.17-1.222 2.783-3.556 3.584-5.187 1.324-2.696 1.456-3.446 1.456-8.268 0-4.67-.157-5.635-1.318-8.082-1.907-4.017-5.027-7.28-8.684-9.079-17.156-8.442-34.55 8.924-26.112 26.071.84 1.707 2.395 3.887 3.456 4.846l1.93 1.744-3.437 32.53c-1.89 17.89-3.443 32.813-3.45 33.16-.01.494 4.054.632 18.675.632 10.278 0 18.681-.17 18.673-.379zm64.131-.505c-.016-.486-1.558-15.383-3.428-33.104l-3.4-32.22 2.227-2.324c8.714-9.095 6.26-24.438-4.857-30.364-9.82-5.234-22.08-1.16-26.798 8.904-1.188 2.533-1.344 3.482-1.344 8.17 0 4.822.132 5.572 1.456 8.268.801 1.631 2.418 3.97 3.595 5.197l2.138 2.232-3.456 32.684c-1.9 17.976-3.461 32.854-3.468 33.062-.007.208 8.397.379 18.676.379 17.472 0 18.686-.058 18.66-.884zm128.318-.558c0-.793-1.482-15.676-3.293-33.073l-3.292-31.631 2.08-2.08c7.707-7.707 7.082-21.652-1.278-28.502-9.989-8.185-24.578-5.182-30.188 6.215-1.555 3.157-1.657 3.695-1.657 8.68 0 4.834.131 5.582 1.456 8.28.8 1.63 2.44 3.992 3.644 5.249l2.189 2.284-3.253 31.116c-1.79 17.114-3.375 31.968-3.524 33.01l-.272 1.894h37.388zM53.799 147.581c3.817-1.83 7.367-5.45 9.263-9.442 1.419-2.989 1.559-3.736 1.558-8.334 0-4.54-.146-5.35-1.453-8.013-.799-1.63-2.428-3.98-3.62-5.224l-2.167-2.262 3.213-30.636c1.767-16.85 3.347-31.716 3.511-33.036l.299-2.399H45.698c-18.69 0-18.706.001-18.706 1.065 0 .586 1.498 15.477 3.327 33.09l3.327 32.025-2.533 2.772c-9.407 10.293-4.805 26.974 8.65 31.36 1.353.44 3.786.637 6.675.539 3.682-.125 5.08-.41 7.361-1.505zm192.485.05c5.689-2.62 9.785-7.958 11.038-14.385 1.124-5.764-.977-12.58-5.126-16.632-1.29-1.259-1.96-2.366-1.96-3.235 0-.726 1.477-15.17 3.282-32.096 1.805-16.926 3.282-31.286 3.283-31.911v-1.137H219.49l.238 1.642c.13.902 1.695 15.763 3.475 33.022l3.237 31.38-2.18 2.276c-6.444 6.725-7.13 17.324-1.62 25.035 1.958 2.74 5.553 5.408 9.02 6.694 3.922 1.453 10.706 1.15 14.624-.654z" fill="#000" fill-opacity=".241"/></g></svg>