<svg xmlns="http://www.w3.org/2000/svg" width="339" height="245.151" viewBox="0 0 89.694 64.863"><g transform="matrix(.26458 0 0 .26458 -1.058 -1.26)" fill="none"><path d="M4.85 5.61h337.3v243.452H4.85z" stroke="#000" stroke-width="1.699"/><circle r="17" cy="67" cx="50" transform="matrix(1.05146 0 0 -1.05146 -7.025 200.448)" stroke="#000" stroke-width="2.533"/><path d="M37 130h17l8.4-80H28.7z" fill="#fff" stroke="#000" stroke-width="3"/><circle r="17" cy="67" cx="50" transform="translate(57.2 59.552) scale(1.05146)" stroke="#000" stroke-width="2.533"/><path d="M101.4 129.998h16.8l8.4 80H93z" fill="#fff" stroke="#000" stroke-width="3"/><circle r="17" cy="67" cx="50" transform="matrix(1.05146 0 0 -1.05146 121.428 200.448)" stroke="#000" stroke-width="2.533"/><path d="M165.6 130h16.8l8.4-80h-33.6z" fill="#fff" stroke="#000" stroke-width="3"/><circle r="17" cy="67" cx="50" transform="matrix(1.05146 0 0 -1.05146 185.655 200.448)" stroke="#000" stroke-width="2.533"/><path d="M246.8 129.998H230l-8.5 80h33.6z" fill="#fff" stroke="#000" stroke-width="3"/><circle r="17.875" cy="130" cx="302.455" stroke="#000" stroke-width="2.944"/><path d="M310.9 130h-17l-8.3-80h33.7z" fill="#fff" stroke="#000" stroke-width="3"/><path d="M5.871 127.28V6.819h335.371V247.74H5.87zm122.495 82.453c-.165-1.18-1.764-16.1-3.552-33.156l-3.252-31.009 2.084-2.073c7.669-7.626 7.016-21.505-1.334-28.347-8.112-6.647-19.652-5.845-26.788 1.864-6.964 7.521-6.9 18.398.155 26.245l2.304 2.563-3.399 32.651c-1.869 17.958-3.388 32.822-3.377 33.03.012.208 8.446.379 18.74.379h18.72zm128.544 1.768c.01-.208-1.501-15.08-3.356-33.048l-3.372-32.67 2.164-2.433c8.56-9.625 6.148-24.457-4.938-30.366-9.82-5.234-22.08-1.16-26.798 8.904-1.188 2.533-1.344 3.482-1.344 8.17 0 4.822.132 5.572 1.456 8.268.8 1.631 2.445 3.998 3.655 5.26l2.198 2.295-3.26 30.853c-1.793 16.969-3.395 31.819-3.56 33l-.298 2.146h18.718c10.296 0 18.726-.17 18.735-.379zm49.665-62.498c4.383-.928 7.09-2.515 10.32-6.05 3.583-3.92 4.862-7.367 4.877-13.148.01-4.045-.16-4.91-1.552-7.858-.86-1.822-2.534-4.322-3.72-5.556l-2.157-2.243 3.358-32.325c1.847-17.779 3.354-32.61 3.348-32.956-.008-.494-4.09-.632-18.698-.632-10.278 0-18.677.17-18.665.379.013.208 1.563 15.039 3.445 32.956l3.422 32.578-2.14 2.332c-8.912 9.713-6.387 25.137 5.037 30.756 4.99 2.455 7.981 2.857 13.125 1.767zm-252.862-1.467c3.853-1.767 7.732-5.703 9.633-9.775 1.17-2.508 1.357-3.561 1.361-7.703.005-4.328-.148-5.12-1.559-8.082-.86-1.805-2.515-4.256-3.677-5.445l-2.112-2.163 3.284-31.425c1.807-17.284 3.39-32.164 3.52-33.066l.234-1.642H27.084v1.556c0 .856 1.482 15.777 3.293 33.157l3.293 31.6-1.826 1.82c-7.137 7.113-7.551 18.892-.922 26.264 4.371 4.863 8.6 6.677 15.103 6.482 3.745-.112 5.1-.39 7.688-1.578zm128.671-.051c3.826-1.834 7.242-5.237 9.138-9.105 1.351-2.756 1.48-3.481 1.48-8.323 0-4.66-.16-5.64-1.312-8.08-.721-1.529-2.34-3.917-3.598-5.308l-2.287-2.529 3.19-30.553c1.753-16.805 3.323-31.633 3.489-32.953l.3-2.399H174.08c-17.485 0-18.704.058-18.687.884.01.486 1.554 15.373 3.43 33.083l3.412 32.199-1.882 1.838c-4.139 4.041-6.406 10.928-5.477 16.637 1.193 7.327 5.884 13.007 12.772 15.463 4.051 1.444 10.752 1.056 14.737-.854z" fill="#000" fill-opacity=".241"/></g></svg>