<svg xmlns="http://www.w3.org/2000/svg" width="339" height="245.151" viewBox="0 0 89.694 64.863"><g transform="matrix(.26458 0 0 .26458 -1.058 -1.26)" fill="none"><path d="M4.85 5.61h337.3v243.452H4.85z" stroke="#000" stroke-width="1.699"/><circle r="17" cy="67" cx="50" transform="matrix(1.05146 0 0 -1.05146 -7.025 200.448)" stroke="#000" stroke-width="2.533"/><path d="M37 130h17l8.4-80H28.7z" fill="#fff" stroke="#000" stroke-width="3"/><circle r="17" cy="67" cx="50" transform="translate(57.2 59.552) scale(1.05146)" stroke="#000" stroke-width="2.533"/><path d="M101.4 129.998h16.8l8.4 80H93z" fill="#fff" stroke="#000" stroke-width="3"/><circle r="17" cy="67" cx="50" transform="matrix(1.05146 0 0 -1.05146 121.428 200.448)" stroke="#000" stroke-width="2.533"/><path d="M165.6 130h16.8l8.4-80h-33.6z" fill="#fff" stroke="#000" stroke-width="3"/><circle r="17" cy="67" cx="50" transform="matrix(1.05146 0 0 -1.05146 185.655 200.448)" stroke="#000" stroke-width="2.533"/><path d="M246.8 129.998H230l-8.5 80h33.6z" fill="#fff" stroke="#000" stroke-width="3"/><circle r="17.875" cy="130" cx="302.455" stroke="#000" stroke-width="2.944"/><path d="M294 129.998h17l8.3 80h-33.7z" fill="#fff" stroke="#000" stroke-width="3"/><path d="M5.696 127.28V6.819h335.37V247.74H5.696zm122.712 83.716c-.011-.486-1.547-15.39-3.413-33.12l-3.393-32.235 2.212-2.309c8.7-9.08 6.236-24.427-4.87-30.348-9.821-5.234-22.081-1.16-26.8 8.904-1.187 2.533-1.343 3.482-1.343 8.17 0 4.822.132 5.572 1.456 8.268.8 1.631 2.425 3.977 3.61 5.213l2.153 2.248-3.48 32.92a30200.067 30200.067 0 00-3.482 33.047c-.002.07 8.405.126 18.683.126 17.47 0 18.687-.058 18.667-.884zm128.307-.758c-.002-.902-1.478-15.815-3.281-33.14l-3.279-31.497 2.489-2.723c3.437-3.76 4.758-7.32 4.758-12.82 0-5.676-1.314-9.089-5.056-13.13-9.431-10.187-25.686-7.647-31.652 4.947-1.455 3.07-1.603 3.83-1.594 8.183.008 4.173.192 5.193 1.413 7.828.773 1.667 2.456 4.101 3.74 5.41l2.336 2.378-3.384 31.967c-1.86 17.581-3.377 32.477-3.37 33.102l.013 1.137H256.719l-.003-1.642zm64.327-.252c-.127-1.042-1.679-15.907-3.449-33.033l-3.217-31.14 2.17-2.263c1.192-1.246 2.823-3.598 3.622-5.227 1.32-2.692 1.453-3.446 1.453-8.265 0-4.708-.153-5.63-1.365-8.217-1.656-3.534-5.845-7.83-9.126-9.362-5.915-2.76-11.54-2.708-17.382.161-10.862 5.336-14.15 19.263-6.886 29.16.972 1.323 2.217 2.721 2.768 3.107.99.694.967 1.016-2.32 32.195-1.826 17.322-3.32 32.234-3.319 33.136l.001 1.642h37.28zm-267.09-62.492c3.822-1.87 7.212-5.263 9.1-9.11 1.357-2.762 1.485-3.48 1.485-8.326 0-4.66-.16-5.64-1.312-8.082-.721-1.528-2.332-3.914-3.578-5.303l-2.267-2.525 3.434-32.325c1.888-17.779 3.442-32.61 3.452-32.956.014-.495-4.046-.632-18.67-.632-10.278 0-18.693.17-18.7.379-.008.208 1.506 15.087 3.363 33.064l3.378 32.685-2.07 2.246c-8.157 8.85-6.786 22.634 2.923 29.362 3.587 2.486 6.753 3.324 11.893 3.146 3.826-.131 5.063-.397 7.57-1.623zm128.104.136c7.784-3.584 12.542-12.431 11.096-20.636-.72-4.094-2.28-7.234-5.083-10.237l-2.278-2.441 3.41-32.662c1.876-17.964 3.402-32.832 3.392-33.04-.01-.208-8.431-.379-18.713-.379h-18.694l.273 1.894c.15 1.042 1.73 15.903 3.511 33.024l3.239 31.13-2.179 2.273c-6.442 6.724-7.127 17.324-1.618 25.034 1.958 2.74 5.553 5.408 9.02 6.694 3.922 1.453 10.706 1.15 14.624-.654z" fill="#000" fill-opacity=".241"/></g></svg>