<svg xmlns="http://www.w3.org/2000/svg" width="339" height="245.151" viewBox="0 0 89.694 64.863"><g transform="matrix(.26458 0 0 .26458 -1.058 -1.26)" fill="none" stroke="#000"><path d="M4.85 5.61h337.3v243.452H4.85z" stroke-width="1.699"/><circle r="17" cy="67" cx="50" transform="matrix(1.05146 0 0 -1.05146 -7.025 200.448)" stroke-width="2.533"/><path d="M37 130h17l8.4-80H28.7z" fill="#fff" stroke-width="3"/><circle r="17" cy="67" cx="50" transform="translate(57.2 59.552) scale(1.05146)" stroke-width="2.533"/><path d="M118.2 130h-16.8L93 50h33.6z" fill="#fff" stroke-width="3"/><circle r="17" cy="67" cx="50" transform="matrix(1.05146 0 0 -1.05146 121.428 200.448)" stroke-width="2.533"/><path d="M182.4 129.998h-16.8l-8.4 80h33.6z" fill="#fff" stroke-width="3"/><circle r="17" cy="67" cx="50" transform="matrix(1.05146 0 0 -1.05146 185.655 200.448)" stroke-width="2.533"/><path d="M246.8 129.998H230l-8.5 80h33.6z" fill="#fff" stroke-width="3"/><circle r="17.875" cy="130" cx="302.455" stroke-width="2.944"/><path d="M294 129.998h17l8.3 80h-33.7z" fill="#fff" stroke-width="3"/><path d="M5.82 127.28V6.819h335.372V247.74H5.82zm186.861 83.969c-.01-.348-1.566-15.23-3.458-33.074l-3.44-32.442 2.129-2.22c1.17-1.222 2.783-3.556 3.584-5.187 1.324-2.696 1.456-3.446 1.456-8.268 0-4.688-.156-5.637-1.344-8.17-6.977-14.884-28.216-14.884-35.193 0-1.188 2.533-1.344 3.482-1.344 8.17 0 4.67.158 5.64 1.328 8.134.73 1.557 2.335 3.883 3.566 5.168l2.239 2.336-3.424 32.46c-1.883 17.854-3.432 32.745-3.44 33.093-.013.494 4.05.63 18.671.63 14.623 0 18.684-.136 18.67-.63zm64.167-.253c.003-.486-1.5-15.378-3.337-33.093l-3.342-32.21 2.12-2.3c8.678-9.414 6.239-24.455-4.931-30.409-9.87-5.26-21.989-1.197-26.824 8.992-1.161 2.447-1.318 3.411-1.318 8.082 0 4.819.132 5.573 1.453 8.265.799 1.63 2.454 4.007 3.677 5.283l2.223 2.321-3.3 31.335c-1.815 17.234-3.423 32.074-3.573 32.976l-.274 1.642h18.711c17.481 0 18.711-.058 18.715-.884zm64.145-.253c.003-.625-1.489-15.524-3.314-33.11l-3.32-31.974 2.13-2.119c1.172-1.165 2.833-3.596 3.69-5.401 1.402-2.95 1.56-3.77 1.563-8.081.004-4.347-.147-5.117-1.6-8.183-7.062-14.909-27.892-15.208-35.125-.505-1.554 3.16-1.657 3.699-1.657 8.68 0 4.68.158 5.647 1.328 8.142.73 1.557 2.357 3.906 3.616 5.22l2.288 2.388-3.218 30.893c-1.77 16.992-3.354 31.86-3.52 33.04l-.303 2.147h37.438l.005-1.137zM54.056 147.378c8.738-4.489 12.904-14.37 9.855-23.377-1.114-3.293-3.81-7.509-5.606-8.767-.942-.66-.888-1.401 2.305-31.943C62.408 66.094 64 51.171 64.15 50.13l.272-1.894H27.034v1.3c0 .715 1.491 15.612 3.313 33.105l3.313 31.805-2.52 2.757c-3.37 3.689-4.764 7.336-4.816 12.603-.047 4.874.956 8.084 3.616 11.571 2.49 3.263 4.864 5.12 8.505 6.653 2.618 1.101 3.572 1.234 7.782 1.08 4.172-.152 5.194-.378 7.829-1.731zm64.042.15c3.715-1.781 7.428-5.48 9.272-9.239 1.302-2.653 1.437-3.426 1.437-8.231 0-4.823-.132-5.573-1.456-8.27-.8-1.63-2.427-3.978-3.614-5.217l-2.159-2.252 3.206-30.643c1.763-16.853 3.34-31.722 3.506-33.042l.3-2.399h-18.706c-13.16 0-18.705.163-18.705.55 0 .303 1.477 14.549 3.283 31.658 1.805 17.108 3.283 31.796 3.283 32.639 0 1.101-.56 2.106-1.987 3.572-2.445 2.51-4.286 6.148-5.078 10.036-1.487 7.299 2.46 16.074 8.935 19.87 3.654 2.14 6.063 2.693 11.01 2.526 3.73-.127 5.07-.406 7.473-1.558z" fill="#000" fill-opacity=".239" stroke-width="1.345" stroke-opacity=".239"/></g></svg>