<svg id="Layer_1" data-name="Layer 1" xmlns="http://www.w3.org/2000/svg" viewBox="0 0 891.93 1485.99"><defs><style>.cls-1,.cls-4,.cls-5{fill:#fff;}.cls-2,.cls-3{fill:none;}.cls-2,.cls-3,.cls-4{stroke:#231f20;}.cls-2,.cls-3,.cls-4,.cls-5{stroke-miterlimit:10;}.cls-2{stroke-width:10px;}.cls-3,.cls-4,.cls-5{stroke-width:11px;}.cls-5{stroke:#000;}</style></defs><path class="cls-1" d="M1234.35,886.76a.76.76,0,0,1-.78,1H1081.24c-.55,0-1.45,0-2,0,0,0-13.62.62-13.62-12.1V747.11c0-12.72,13.63-10.22,13.63-10.22a18.75,18.75,0,0,0,2,.23l119.46,6.16a1.42,1.42,0,0,1,1.23,1Z" transform="translate(-503.36 -203.17)"/><path class="cls-2" d="M1234.35,886.76a.76.76,0,0,1-.78,1H1081.24c-.55,0-1.45,0-2,0,0,0-13.62.62-13.62-12.1V747.11c0-12.72,13.63-10.22,13.63-10.22a18.75,18.75,0,0,0,2,.23l119.46,6.16a1.42,1.42,0,0,1,1.23,1Z" transform="translate(-503.36 -203.17)"/><path class="cls-1" d="M1350.55,887.74H1278.4a149.79,149.79,0,0,1-8.86-26l-19.76-89.15a89,89,0,0,1-.88-27.5s.28-1.75,25.2.26l35.1,2.83c7.67.62,17.78,6.13,22.46,12.24C1331.66,760.41,1371.55,812.51,1350.55,887.74Z" transform="translate(-503.36 -203.17)"/><path class="cls-2" d="M1350.55,887.74H1278.4a149.79,149.79,0,0,1-8.86-26l-19.76-89.15a89,89,0,0,1-.88-27.5s.28-1.75,25.2.26l35.1,2.83c7.67.62,17.78,6.13,22.46,12.24C1331.66,760.41,1371.55,812.51,1350.55,887.74Z" transform="translate(-503.36 -203.17)"/><path class="cls-1" d="M1274.14,1050.05c2,8-3.08,14.54-11.33,14.54H1105.36c-8.25,0-21.74-.36-30-.81,0,0-9.76-.53-9.76-15.26V943.39c0-16.74,10.08-18.92,10.08-18.92a168.93,168.93,0,0,1,29.66-3.18h121.29c8.25,0,16.65,6.55,18.67,14.55Z" transform="translate(-503.36 -203.17)"/><path class="cls-2" d="M1274.14,1050.05c2,8-3.08,14.54-11.33,14.54H1105.36c-8.25,0-21.74-.36-30-.81,0,0-9.76-.53-9.76-15.26V943.39c0-16.74,10.08-18.92,10.08-18.92a168.93,168.93,0,0,1,29.66-3.18h121.29c8.25,0,16.65,6.55,18.67,14.55Z" transform="translate(-503.36 -203.17)"/><path class="cls-1" d="M1373.59,1063.28h-26.42c-8.8,0-22.51-.1-30.46-.22l-1.76-7.73-24.52-107.76c-2-8.59-4.76-21-6.25-27.59h61.24c8.8,0,19.92,6,24.71,13.42C1370.13,933.4,1405.73,988.28,1373.59,1063.28Z" transform="translate(-503.36 -203.17)"/><path class="cls-2" d="M1373.59,1063.28h-26.42c-8.8,0-22.51-.1-30.46-.22l-1.76-7.73-24.52-107.76c-2-8.59-4.76-21-6.25-27.59h61.24c8.8,0,19.92,6,24.71,13.42C1370.13,933.4,1405.73,988.28,1373.59,1063.28Z" transform="translate(-503.36 -203.17)"/><path class="cls-1" d="M1284.34,1248.46a1,1,0,0,1-1,1h-202c-20.6,0-16-14.44-16-14.44a7.69,7.69,0,0,0,.3-2V1136a10,10,0,0,0-.24-2s-4.66-18.88,15.94-18.88h202a1,1,0,0,1,1,1Z" transform="translate(-503.36 -203.17)"/><path class="cls-2" d="M1284.34,1248.46a1,1,0,0,1-1,1h-202c-20.6,0-16-14.44-16-14.44a7.69,7.69,0,0,0,.3-2V1136a10,10,0,0,0-.24-2s-4.66-18.88,15.94-18.88h202a1,1,0,0,1,1,1Z" transform="translate(-503.36 -203.17)"/><path class="cls-1" d="M1370.52,1115.11h0s19.6.5,19.6,12.85v107.45s3.12,14-19.61,14h-49.28V1115.12h49.27Z" transform="translate(-503.36 -203.17)"/><path class="cls-2" d="M1370.52,1115.11h0s19.6.5,19.6,12.85v107.45s3.12,14-19.61,14h-49.28V1115.12h49.27Z" transform="translate(-503.36 -203.17)"/><path class="cls-1" d="M1252.9,1297.21H1075.41s-9.79,0-9.79,21v88a179.1,179.1,0,0,1-1.34,19.91s-1.51,11.06,21,11.06H1208c5.11,0,14.94-8.58,14.94-8.58a45.58,45.58,0,0,0,10.89-16l34.14-95.84c1.84-5.18,1.33-13.44-1.14-18.35C1266.79,1298.44,1266.18,1297.21,1252.9,1297.21Z" transform="translate(-503.36 -203.17)"/><path class="cls-2" d="M1252.9,1297.21H1075.41s-9.79,0-9.79,21v88a179.1,179.1,0,0,1-1.34,19.91s-1.51,11.06,21,11.06H1208c5.11,0,14.94-8.58,14.94-8.58a45.58,45.58,0,0,0,10.89-16l34.14-95.84c1.84-5.18,1.33-13.44-1.14-18.35C1266.79,1298.44,1266.18,1297.21,1252.9,1297.21Z" transform="translate(-503.36 -203.17)"/><path class="cls-1" d="M1355.77,1297.21h-34.52c-14.37,0-17.25,16.19-17.25,16.19v0l-38.5,108.46c-4.36,12.29,21.24,15.33,21.24,15.33h34.53s10.44-3.2,12.32-10.19l32-119v0S1364.34,1298.29,1355.77,1297.21Z" transform="translate(-503.36 -203.17)"/><path class="cls-3" d="M1355.77,1297.21h-34.52c-14.37,0-17.25,16.19-17.25,16.19v0l-38.5,108.46c-4.36,12.29,21.24,15.33,21.24,15.33h34.53s10.44-3.2,12.32-10.19l32-119v0S1364.34,1298.29,1355.77,1297.21Z" transform="translate(-503.36 -203.17)"/><path class="cls-4" d="M1164.37,1567.8l35.5-80.1c4.05-9.15-25.16-12.75-25.16-12.75h-76s-33.18,5.08-33.18,24v52.26s1.52,28.32,33.18,28.32h34.47S1159.28,1579.29,1164.37,1567.8Z" transform="translate(-503.36 -203.17)"/><path class="cls-4" d="M1296.3,1475H1265c-11.4,0-20.5,17.39-20.5,17.39l-32.63,69.75s-7.57,17.39,9,17.39h35.66s12.29-2.93,14.81-10.72l25-77.3S1304,1475,1296.3,1475Z" transform="translate(-503.36 -203.17)"/><path class="cls-1" d="M856.29,888.51a.76.76,0,0,0,.78,1H1009.4c.55,0,1.45,0,2,0,0,0,13.61.62,13.61-12.1V748.86c0-12.72-13.62-10.22-13.62-10.22a19.25,19.25,0,0,1-2,.23L889.94,745a1.4,1.4,0,0,0-1.22,1Z" transform="translate(-503.36 -203.17)"/><path class="cls-2" d="M856.29,888.51a.76.76,0,0,0,.78,1H1009.4c.55,0,1.45,0,2,0,0,0,13.61.62,13.61-12.1V748.86c0-12.72-13.62-10.22-13.62-10.22a19.25,19.25,0,0,1-2,.23L889.94,745a1.4,1.4,0,0,0-1.22,1Z" transform="translate(-503.36 -203.17)"/><path class="cls-1" d="M740.09,889.49h72.14a149,149,0,0,0,8.87-26l19.76-89.15a88.72,88.72,0,0,0,.87-27.5s-.27-1.75-25.19.26l-35.1,2.83c-7.67.62-17.78,6.13-22.46,12.24C759,762.16,719.08,814.26,740.09,889.49Z" transform="translate(-503.36 -203.17)"/><path class="cls-2" d="M740.09,889.49h72.14a149,149,0,0,0,8.87-26l19.76-89.15a88.72,88.72,0,0,0,.87-27.5s-.27-1.75-25.19.26l-35.1,2.83c-7.67.62-17.78,6.13-22.46,12.24C759,762.16,719.08,814.26,740.09,889.49Z" transform="translate(-503.36 -203.17)"/><path class="cls-1" d="M816.5,1051.8c-2,8,3.08,14.54,11.33,14.54H985.27c8.25,0,21.74-.36,30-.81,0,0,9.76-.53,9.76-15.26V945.14c0-16.74-10.08-18.92-10.08-18.92A168.83,168.83,0,0,0,985.27,923H864c-8.25,0-16.66,6.55-18.67,14.55Z" transform="translate(-503.36 -203.17)"/><path class="cls-2" d="M816.5,1051.8c-2,8,3.08,14.54,11.33,14.54H985.27c8.25,0,21.74-.36,30-.81,0,0,9.76-.53,9.76-15.26V945.14c0-16.74-10.08-18.92-10.08-18.92A168.83,168.83,0,0,0,985.27,923H864c-8.25,0-16.66,6.55-18.67,14.55Z" transform="translate(-503.36 -203.17)"/><path class="cls-1" d="M717.05,1065h26.42c8.8,0,22.5-.1,30.46-.21l1.76-7.74L800.2,949.32c1.95-8.58,4.77-21,6.25-27.59H745.22c-8.8,0-19.92,6-24.71,13.43C720.51,935.16,684.9,990,717.05,1065Z" transform="translate(-503.36 -203.17)"/><path class="cls-2" d="M717.05,1065h26.42c8.8,0,22.5-.1,30.46-.21l1.76-7.74L800.2,949.32c1.95-8.58,4.77-21,6.25-27.59H745.22c-8.8,0-19.92,6-24.71,13.43C720.51,935.16,684.9,990,717.05,1065Z" transform="translate(-503.36 -203.17)"/><path class="cls-1" d="M806.3,1250.21a1,1,0,0,0,1,1h202c20.6,0,16-14.44,16-14.44a7.71,7.71,0,0,1-.31-2v-97.1a10,10,0,0,1,.24-2s4.67-18.88-15.93-18.88h-202a1,1,0,0,0-1,1Z" transform="translate(-503.36 -203.17)"/><path class="cls-2" d="M806.3,1250.21a1,1,0,0,0,1,1h202c20.6,0,16-14.44,16-14.44a7.71,7.71,0,0,1-.31-2v-97.1a10,10,0,0,1,.24-2s4.67-18.88-15.93-18.88h-202a1,1,0,0,0-1,1Z" transform="translate(-503.36 -203.17)"/><path class="cls-1" d="M720.11,1116.86h0s-19.59.5-19.59,12.85v107.45s-3.12,14,19.6,14h49.28V1116.87H720.11Z" transform="translate(-503.36 -203.17)"/><path class="cls-2" d="M720.11,1116.86h0s-19.59.5-19.59,12.85v107.45s-3.12,14,19.6,14h49.28V1116.87H720.11Z" transform="translate(-503.36 -203.17)"/><path class="cls-1" d="M837.74,1299.11h177.49s9.78,0,9.78,21.05v88a179.11,179.11,0,0,0,1.35,19.91s1.5,11.06-21,11.06H882.67c-5.1,0-14.93-8.59-14.93-8.59a45.27,45.27,0,0,1-10.89-16l-34.14-95.83c-1.85-5.18-1.34-13.44,1.13-18.35C823.84,1300.34,824.46,1299.11,837.74,1299.11Z" transform="translate(-503.36 -203.17)"/><path class="cls-2" d="M837.74,1299.11h177.49s9.78,0,9.78,21.05v88a179.11,179.11,0,0,0,1.35,19.91s1.5,11.06-21,11.06H882.67c-5.1,0-14.93-8.59-14.93-8.59a45.27,45.27,0,0,1-10.89-16l-34.14-95.83c-1.85-5.18-1.34-13.44,1.13-18.35C823.84,1300.34,824.46,1299.11,837.74,1299.11Z" transform="translate(-503.36 -203.17)"/><path class="cls-1" d="M734.87,1299.11h34.51c14.37,0,17.26,16.19,17.26,16.19v0l38.5,108.46c4.37,12.29-21.23,15.33-21.23,15.33H769.37s-10.43-3.2-12.31-10.19l-32-119v0S726.3,1300.18,734.87,1299.11Z" transform="translate(-503.36 -203.17)"/><path class="cls-3" d="M734.87,1299.11h34.51c14.37,0,17.26,16.19,17.26,16.19v0l38.5,108.46c4.37,12.29-21.23,15.33-21.23,15.33H769.37s-10.43-3.2-12.31-10.19l-32-119v0S726.3,1300.18,734.87,1299.11Z" transform="translate(-503.36 -203.17)"/><path class="cls-4" d="M926.26,1569.7l-35.49-80.1c-4.06-9.15,25.15-12.75,25.15-12.75h76s33.18,5.08,33.18,24v52.25s-1.52,28.32-33.18,28.32H957.48S931.36,1581.19,926.26,1569.7Z" transform="translate(-503.36 -203.17)"/><path class="cls-4" d="M794.33,1476.85h31.32c11.39,0,20.5,17.39,20.5,17.39L878.77,1564s7.58,17.39-8.94,17.39H834.16s-12.28-2.92-14.81-10.72l-25-77.29S786.67,1476.85,794.33,1476.85Z" transform="translate(-503.36 -203.17)"/><rect class="cls-1" x="352.71" y="1415.91" width="378.5" height="64.58" rx="11"/><rect class="cls-3" x="352.71" y="1415.91" width="378.5" height="64.58" rx="11"/><path class="cls-5" d="M705.35,208.67c-108.52,0-196.49,88-196.49,196.5s88,196.49,196.49,196.49,196.5-88,196.5-196.49S813.88,208.67,705.35,208.67Zm0,375.28A178.78,178.78,0,1,1,884.14,405.17,178.79,178.79,0,0,1,705.35,584Z" transform="translate(-503.36 -203.17)"/><path class="cls-1" d="M843.89,687.16h390.68s-109.91-247.1-87.7-292.29c0,0,19.15-96.51,56.68-96.51,0,0,28.34-19.15,0-47.49H835.71S672,461.51,659.77,676.75c0,0-51.16,202.93-19.06,553.71H668.1s-39.6-828.3,167.62-824.13L890.37,408h0S1003,493.41,843.89,687.16Z" transform="translate(-503.36 -203.17)"/><path class="cls-3" d="M843.89,687.16h390.68s-109.91-247.1-87.7-292.29c0,0,19.15-96.51,56.68-96.51,0,0,28.34-19.15,0-47.49H835.71S672,461.51,659.77,676.75c0,0-51.16,202.93-19.06,553.71H668.1s-39.6-828.3,167.62-824.13L890.37,408h0S1003,493.41,843.89,687.16Z" transform="translate(-503.36 -203.17)"/></svg>