<svg xmlns="http://www.w3.org/2000/svg" width="50mm" height="100mm" viewBox="0 0 50 100"><path d="M2.5 97.5l7.5-15 7.5 15z"/><path d="M25 32.5l-7.5-15-7.5 15z" fill="#a50"/><path d="M25 32.5l-7.5 15-7.5-15z" fill="#5a0"/><path d="M25 82.5l-7.5 15-7.5-15z" fill="#550"/><path d="M10 82.5l7.5-15 7.5 15z" fill="#aa0"/><path d="M32.5 97.5l-7.5-15-7.5 15z" fill="#aa5"/><path d="M17.5 17.5l7.5 15 7.5-15z" fill="#f50"/><path d="M32.5 47.5l-7.5-15-7.5 15z" fill="#5f0"/><path d="M40 32.5l-7.5-15-7.5 15z" fill="#fa5"/><path d="M25 32.5l7.5 15 7.5-15z" fill="#af5"/><path d="M40 82.5l-7.5 15-7.5-15z" fill="#ffa"/><path d="M46.939 97.153L40 83.276l-6.939 13.877z" fill="#fff" stroke="#000" stroke-width=".694"/><path d="M17.5 67.5l7.5 15 7.5-15z" fill="#ff0"/><path d="M40 82.5l-7.5-15-7.5 15z" fill="#ff5"/><path d="M32.5 17.5L25 2.5l-7.5 15z" fill="#fa0"/><path d="M32.5 47.5l-7.5 15-7.5-15z" fill="#af0"/><path fill="none" d="M32.5 32.5h-15v15h15z"/><text style="line-height:1.25;-inkscape-font-specification:'Special Elite'" x="38.627" y="291.301" font-weight="400" font-size="5.644" font-family="Special Elite" letter-spacing="0" word-spacing="0" stroke-width=".265" transform="translate(0 -197)"/><text style="line-height:1.25" x="35.976" y="293.245" font-weight="400" font-size="5.644" font-family="sans-serif" letter-spacing="0" word-spacing="0" stroke-width=".265" transform="translate(0 -197)"><tspan x="35.976" y="293.245">Wt</tspan></text><text y="285.224" x="28.166" style="line-height:1.25" font-weight="400" font-size="5.644" font-family="sans-serif" letter-spacing="0" word-spacing="0" stroke-width=".265" transform="translate(0 -197)"><tspan y="285.224" x="28.166">We</tspan></text><text style="line-height:1.25" x="29.01" y="277.837" font-weight="400" font-size="5.644" font-family="sans-serif" letter-spacing="0" word-spacing="0" stroke-width=".265" transform="translate(0 -197)"><tspan x="29.01" y="277.837">Le</tspan></text><text y="270.449" x="22.256" style="line-height:1.25" font-weight="400" font-size="5.644" font-family="sans-serif" letter-spacing="0" word-spacing="0" stroke-width=".265" transform="translate(0 -197)"><tspan y="270.449" x="22.256">Yl</tspan></text><text style="line-height:1.25" x="13.813" y="278.048" font-weight="400" font-size="5.644" font-family="sans-serif" letter-spacing="0" word-spacing="0" stroke-width=".265" transform="translate(0 -197)"><tspan x="13.813" y="278.048">Yk</tspan></text><text y="293.034" x="21.201" style="line-height:1.25" font-weight="400" font-size="5.644" font-family="sans-serif" letter-spacing="0" word-spacing="0" stroke-width=".265" transform="translate(0 -197)"><tspan y="293.034" x="21.201">Bd</tspan></text><text style="line-height:1.25" x="13.813" y="285.224" font-weight="400" font-size="5.644" font-family="sans-serif" letter-spacing="0" word-spacing="0" stroke-width=".265" transform="translate(0 -197)"><tspan x="13.813" y="285.224">Ol</tspan></text><text y="292.823" x="6.003" style="line-height:1.25" font-weight="400" font-size="5.644" font-family="sans-serif" letter-spacing="0" word-spacing="0" fill="azure" stroke-width=".265" transform="translate(0 -197)"><tspan y="292.823" x="6.003">Bk</tspan></text><text y="235.04" x="28.939" style="line-height:1.25" font-weight="400" font-size="5.644" font-family="sans-serif" letter-spacing="0" word-spacing="0" stroke-width=".265" transform="translate(0 -197)"><tspan y="235.04" x="28.939">Mi</tspan></text><text style="line-height:1.25" x="28.725" y="227.652" font-weight="400" font-size="5.644" font-family="sans-serif" letter-spacing="0" word-spacing="0" stroke-width=".265" transform="translate(0 -197)"><tspan x="28.725" y="227.652">Be</tspan></text><text y="220.264" x="21.441" style="line-height:1.25" font-weight="400" font-size="5.644" font-family="sans-serif" letter-spacing="0" word-spacing="0" stroke-width=".265" transform="translate(0 -197)"><tspan y="220.264" x="21.441">Ac</tspan></text><text style="line-height:1.25" x="13.649" y="227.863" font-weight="400" font-size="5.644" font-family="sans-serif" letter-spacing="0" word-spacing="0" stroke-width=".265" transform="translate(0 -197)"><tspan x="13.649" y="227.863">Bn</tspan></text><text y="249.928" x="21.655" style="line-height:1.25" font-weight="400" font-size="5.644" font-family="sans-serif" letter-spacing="0" word-spacing="0" stroke-width=".265" transform="translate(0 -197)"><tspan y="249.928" x="21.655">Pe</tspan></text><text style="line-height:1.25" x="14.586" y="235.04" font-weight="400" font-size="5.644" font-family="sans-serif" letter-spacing="0" word-spacing="0" stroke-width=".265" transform="translate(0 -197)"><tspan x="14.586" y="235.04">Lf</tspan></text><text style="line-height:1.25" x="22.393" y="243" font-weight="400" font-size="5.644" font-family="sans-serif" letter-spacing="0" word-spacing="0" stroke-width=".265" transform="translate(0 -197)"><tspan x="22.393" y="243">Li</tspan></text><text style="line-height:1.25" x="20.912" y="212.856" font-weight="400" font-size="5.644" font-family="sans-serif" letter-spacing="0" word-spacing="0" stroke-width=".265" transform="translate(0 -197)"><tspan x="20.912" y="212.856">Gd</tspan></text></svg>