<svg xmlns="http://www.w3.org/2000/svg" viewBox="0 0 403.3 491.5"><g fill="none" stroke="#000" stroke-width="2"><path stroke-linejoin="round" d="m71 357.2-19.4 14-24-.1-19.3-14.2L1 334l7.5-22.8 19.5-14 24 .1 19.3 14.3 7.3 22.8z"/><path d="m28 297.3-.4 73.8M52 297.4l-.4 73.8m-43-59.9 62.7.3M1 334l77.6.5M8.3 356.9l62.7.3"/></g><g fill="none" stroke="#000" stroke-width="2"><path stroke-linejoin="round" d="m178.3 357.2-19.5 14-24-.1-19.3-14.2-7.3-22.8 7.5-22.8 19.5-14 24 .2 19.3 14.2 7.3 22.8z"/><path d="m108.2 334 77.6.5m-70-23.2 19 59.8m-19.3-14.2 19.7-59.6m23.6 74 19.7-59.7m-.2 45.6-19.1-59.8"/></g><g fill="none" stroke="#000" stroke-width="2"><path stroke-linejoin="round" d="m287.1 61-19.5 13.9-24-.1-19.3-14.2-7.2-22.9 7.5-22.7L244 1l24 .1 19.2 14.2 7.3 22.9z"/><path d="M224.6 15 287 61m-62.8-.4 63-45.3m-43.6 59.5L268 1m-.4 73.8L244.1 1m-27 36.7 77.5.5"/></g><g fill="none" stroke="#000"><path stroke-linejoin="round" stroke-width="2" d="M285.5 456 266 470l-24-.1-19.3-14.2-7.3-22.9 7.6-22.7 19.4-14 24 .1 19.3 14.2 7.3 22.9z"/><path stroke-width="2" d="m222.7 455.7 63-45.3"/><path stroke-width=".3" d="M285.5 456z"/><path stroke-width="2" d="m223 410 62.5 46m-70-23.2 77.5.4m-50.6-37.1-.4 73.8m24.4-73.7L266 470"/></g><g fill="none" stroke="#000" stroke-width="2"><path stroke-linejoin="round" d="M71 61 51.6 74.8l-24-.1L8.3 60.6 1 37.7 8.5 15 28 1l24 .1 19.3 14.2 7.3 22.9z"/><path d="M71.3 15.3 71 61M1 37.7l77.6.5M28 1l-.4 73.8M8.3 60.6 52 1M51.6 75l-43-60"/></g><g fill="none" stroke="#000" stroke-width="2"><path stroke-linejoin="round" d="m286.3 258.5-19.5 14-24-.2-19.3-14.2-7.2-22.8 7.5-22.8 19.5-14 24 .2 19.2 14.2 7.3 22.8z"/><path d="m216.3 235.3 77.5.4m-50.6-37.2 43.3 14.4m-19.3-14.2-43.4 13.8m-.3 45.6 43.3 14.3m-24 0 43.5-14"/></g><g fill="none" stroke="#000" stroke-width="2"><path stroke-linejoin="round" d="m286.7 159.7-19.5 14-24-.2-19.3-14.2-7.2-22.8 7.5-22.8 19.5-14 24 .2 19.2 14.2 7.3 22.8z"/><path d="m216.7 136.5 77.5.4m-70-23.2-.3 45.6m63-45.2-.2 45.6m-43-60-.4 73.8m24.3-73.6-.4 73.8"/></g><g fill="none" stroke="#000" stroke-width="2"><path stroke-linejoin="round" d="m178.7 258.5-19.5 14-24-.2-19.3-14.2-7.3-22.8 7.6-22.8 19.4-14 24 .2 19.3 14.2 7.3 22.8z"/><path d="M135.6 198.5 179 213m-43.7 59.4 43.5-13.8m-62.8-.4 43.7-59.4m-43.4 13.8 43 60m-50.6-37.2 77.6.4"/></g><g fill="none" stroke="#000" stroke-width="2"><path stroke-linejoin="round" d="m394.3 159.7-19.5 14-24-.2-19.2-14.2-7.3-22.8 7.5-22.8 19.5-14 24 .2 19.3 14.2 7.2 22.8z"/><path d="m374.8 173.7-43.2-14.3m.2-45.7 43.4-13.8m19.1 59.8.3-45.6m-43.3-14.3-.4 73.7m-26.6-37 77.5.4"/></g><g fill="none" stroke="#000" stroke-width="2"><path stroke-linejoin="round" d="m394.7 61-19.4 13.9-24-.1L332 60.6l-7.3-22.9 7.5-22.7 19.5-14 24 .1L395 15.3l7.2 22.9z"/><path d="m324.7 37.7 77.6.5m-51 36.6L395 15.3M375.6 1.1 332 60.6m43.2 14.3-43-60m62.5 46L351.7 1"/></g><g fill="none" stroke="#000" stroke-width="2"><path stroke-linejoin="round" d="m393.5 357.2-19.5 14-24-.1-19.2-14.2-7.3-22.8 7.5-22.8 19.5-14 24 .1 19.3 14.3 7.2 22.8z"/><path d="m331 311.3 19 59.8m.5-73.8L330.7 357m-7.2-22.8 77.5.4m-26.6-37-.4 73.7m19.8-59.6-.3 45.6"/></g><g fill="none" stroke="#000" stroke-width="2"><path stroke-linejoin="round" d="m179 159.7-19.4 14-24-.2-19.3-14.2-7.3-22.8 7.6-22.8 19.4-14 24 .2 19.3 14.2 7.3 22.8z"/><path d="m136 99.8 23.6 73.9m.4-73.8-24.4 73.6m-19-59.7-.3 45.6m63-45.3-.2 45.6m-70-23.2 77.5.4"/></g><g fill="none" stroke="#000" stroke-width="2"><path stroke-linejoin="round" d="m71 159.7-19.4 14-24-.2-19.3-14.2L1 136.5l7.5-22.7 19.5-14 24 .1 19.3 14.2 7.3 22.8z"/><path d="M28 99.8 8.3 159.3m.2-45.6 62.8.4M1 136.5l77.6.4M52 100l-.4 73.8m-24-.2L71 159.7"/></g><g fill="none" stroke="#000" stroke-width="2"><path stroke-linejoin="round" d="m177.8 456-19.4 14-24-.1-19.3-14.2-7.3-22.9 7.5-22.7 19.5-14 24 .1 19.3 14.2 7.3 22.9z"/><path d="m115.3 410 43.5-13.8m-51 36.6 26.6 37m-19.3-14.1 19.7-59.6m23.6 73.9 27-36.8m-7.6 22.8.3-45.6"/></g><g fill="none" stroke="#000" stroke-width="2"><path stroke-linejoin="round" d="m71 456-19.4 14-24-.1-19.3-14.2L1 432.8l7.5-22.7L28 396l24 .1 19.3 14.2 7.3 22.9z"/><path d="m8.3 455.7 70.3-22.4m-27 36.7.4-73.8M1 432.8l27-36.7M8.5 410l19.1 59.8M71 456l.3-45.6"/></g><g fill="none" stroke="#000" stroke-width="2"><path stroke-linejoin="round" d="m285.9 357.2-19.5 14-24-.1-19.3-14.2-7.3-22.8 7.6-22.8 19.4-14 24 .2 19.3 14.2 7.3 22.8z"/><path d="m266.8 297.4-.4 73.8m19.7-59.6-.2 45.6m-43.5 13.9 51-36.6m-70.3 22.4.3-45.6m-7.6 22.8 27-36.8"/></g><path fill="none" stroke="#000" stroke-linecap="round" stroke-width="2" d="m27.6 272.3 24 .1m19.4-14-19.4 14m-24 0L8.3 258M1 235.3l7.5-22.8m0 0 19.5-14m0 0 24 .2m19.3 14.2 7.3 22.8M1 235.3 8.3 258M52 198.7l19.3 14.2m-62.8-.4 70 23.2M1 235.3l70 23.2M8.3 258l43.3 14.3m19.4-14-43.4 14m43.7-59.5L28 198.5m24 .2 26.6 37"/><path fill="none" stroke="#000" stroke-width="2" d="m394.2 212.9-19.4-14.2m-24-.2-19.4 14m0 0-7.5 22.8m0 0 7.3 22.8m0 0 19.3 14.2m0 0 24 .1m19.4-14-19.5 14m27-36.7-77.5-.4m27-36.8 24 .2m26.5 37-26.6-37m-.4 73.7 27-36.7m-7.5 22.8-62.5-46m-.2 45.6 63-45.2m-43.7 59.4.4-73.8"/><g fill="none" stroke="#000"><path stroke-linejoin="round" stroke-width="2" d="M179.5 61 160 74.8l-24-.1-19.3-14.2-7.3-22.9L117 15l19.4-14 24 .1 19.3 14.2 7.3 22.9z"/><path stroke-width="2" d="m160 74.9 27-36.7"/><path stroke-width=".3" d="M179.7 15.3Z"/><path stroke-width="2" d="m179.5 61 .2-45.7M136 74.8 117 15m-7.6 22.7 51-36.6m-43.7 59.5L136.4 1"/></g><path d="M39 84.4V90l-.1 1.5h-1.6v.9h5v-.8l-1.6-.1V83l-3.5.4.1.8z" aria-label="1"/><path d="M144.2 92.3h7.2V91h-5.9l1.7-1.1c1.4-1 4-2.3 4-4.3 0-1.9-2-2.5-3.6-2.5-1.1 0-2.1.3-3.2.6l.1 1.8.8-.1.1-1c.6-.2 1.3-.5 2-.5 1 0 2 .6 2 1.8 0 1-.8 1.9-1.5 2.5l-3.7 2.8z" aria-label="2"/><path d="m254.4 84 .1-.8a3.2 3.2 0 0 1 2-.6c1 0 2 .6 2 1.7s-1.3 2-2.2 2.5l-1.6-.1-.3 1.3h.4a7 7 0 0 1 2.6.5c.8.3 1.4 1.1 1.4 2a2.3 2.3 0 0 1-2.4 2.3 5.5 5.5 0 0 1-2-.5v-1h-.9v2c.9.2 1.8.3 2.8.3 1 0 2-.2 3-.8a3.2 3.2 0 0 0 1.2-2.4c0-1.8-1.5-3-3-3.4 1.1-.5 2.6-1.5 2.6-2.9 0-1.7-1.8-2.3-3.2-2.3-1.1 0-2.4.2-3.4.7l.1 1.6z" aria-label="3"/><path d="M367.3 90.8v1.8h-.9v1h3.3l-.1-.9-.8-.1v-1.7h2.3v-1.2h-2.3v-7.8h-.8l-6.8 8v.8zm-4.7-1.3 4.7-5.5v5.6z" aria-label="4"/><path d="m36.7 187.2 1-.1c1 0 2 .1 2.7.6 1 .5 1.3 1.2 1.3 2.2a2.6 2.6 0 0 1-2.7 2.6c-.6 0-1.1 0-1.7-.4v-.7l-1-.1v1.7c.9.2 1.8.4 2.7.4 1.2 0 2.3-.3 3.1-1a3.8 3.8 0 0 0 1.2-2.8c0-1.4-.7-2.6-2-3.3a7.6 7.6 0 0 0-3.5-.6h-.1v-2.5H43v-1.5h-6.2z" aria-label="5"/><path d="M150.5 179.7a6.3 6.3 0 0 0-2.7-.6c-3.4 0-5 3-5 6 0 2.7 1 5.8 4.1 5.8 2.4 0 4.1-1.9 4.1-4.2a3.4 3.4 0 0 0-3.5-3.6c-1.3 0-2.4.7-3 1.7a7 7 0 0 1 .6-3c.7-1.3 1.3-1.9 2.7-1.9.6 0 1.2.2 1.7.5v1h.9zM147 184c1.6 0 2.4 1.6 2.4 3.1 0 1.4-.6 3-2.2 3-1.8 0-2.7-1.8-2.7-3.4 0-1.4 1-2.7 2.4-2.7z" aria-label="6"/><path d="M251.4 181.8h6.6l-2.5 3.3a27.5 27.5 0 0 0-2.4 3.5 9 9 0 0 0-1.1 3.4l2-.2a8.3 8.3 0 0 1 1.3-4.4l4-6v-1h-8z" aria-label="7"/><path d="M362.8 183.3c-1.3.6-2.5 1.7-2.5 3.2 0 2.1 2 3.2 3.9 3.2 1 0 2.1-.3 3-1a3.4 3.4 0 0 0 1.1-2.4c0-1.6-1.6-2.6-2.8-3.2 1.2-.5 2.4-1.4 2.4-2.8 0-1.7-1.9-2.4-3.3-2.4-1.7 0-3.6.9-3.6 2.8 0 1.1.9 2 1.8 2.6zm2-.6c-.8-.5-2.3-1.2-2.3-2.4 0-1.1 1-1.6 2-1.6s2 .5 2 1.6-.8 2-1.7 2.4zm-.4 1.7 1.6 1c.5.4.7.8.7 1.5 0 1.2-1.2 2-2.3 2-.6 0-1.1-.1-1.6-.6a2.8 2.8 0 0 1 .7-4.5z" aria-label="8"/><path d="M36.2 292.3c.7.4 1.9.6 2.7.6 3.4 0 5-3 5-6.1 0-2.6-1.1-5.7-4.2-5.7-2.4 0-4 1.9-4 4.2a3.4 3.4 0 0 0 3.5 3.6c1.2 0 2.4-.7 3-1.7a7 7 0 0 1-.7 3c-.6 1.2-1.3 1.9-2.7 1.9-.6 0-1.1-.2-1.6-.5l-.1-1h-.8zm3.5-4.3c-1.7 0-2.4-1.6-2.4-3.1 0-1.4.6-3 2.2-3 1.7 0 2.6 1.8 2.6 3.3 0 1.5-.8 2.8-2.4 2.8z" aria-label="9"/><path d="M141.3 282.4v6.9l-1.6.1-.1.8h5v-.8H143l-.1-1.6v-6.7l-3.4.4v.8zm9.3-1.3c-2.8 0-4.2 2-4.2 4.6 0 2.7 1.4 4.8 4.2 4.8 2.9 0 4.3-2 4.3-4.8s-1.4-4.6-4.2-4.6zm0 1c2 0 2.6 2 2.6 3.6s-.6 3.7-2.5 3.7c-2 0-2.6-2-2.6-3.6s.6-3.7 2.6-3.7z" aria-label="10"/><path d="M251.8 281v7h-1.6l-.1 1h5.1l-.1-.9-1.5-.1-.1-1.5V279.7l-3.4.4.1.8zm6.5 0v7h-1.6l-.1 1h5v-.9l-1.6-.1v-8.3l-3.4.4v.8z" aria-label="11"/><path d="M359 281.1v5.5l-.1 1.5-1.5.1-.1.8h5v-.8l-1.6-.1v-8.3l-3.4.4v.8zm5 8h7.2v-1.4h-5.9l1.7-1c1.5-1 4-2.4 4-4.3 0-2-2-2.6-3.5-2.6-1.2 0-2.2.3-3.3.6l.2 1.8.8-.1v-.9a4.2 4.2 0 0 1 2-.6c1 0 2 .6 2 1.8 0 1-.8 1.9-1.5 2.5l-3.6 2.8z" aria-label="12"/><path d="M34.7 381v7l-1.6.1-.1.8h5v-.8h-1.6v-8.3l-3.4.4v.8zm5.8 1 .1-.8a3.2 3.2 0 0 1 2-.6c1 0 2 .6 2 1.6 0 1.2-1.3 2-2.2 2.5h-1.6l-.3 1.3h.4c.8 0 1.8.1 2.6.5.7.3 1.4 1 1.4 2a2.3 2.3 0 0 1-2.4 2.3 5.5 5.5 0 0 1-2-.5v-1h-.9l-.1 1.9c1 .2 2 .4 2.9.4 1 0 2-.2 2.9-.8.7-.6 1.3-1.5 1.3-2.5 0-1.7-1.5-3-3-3.3 1.1-.5 2.5-1.5 2.5-3 0-1.6-1.7-2.2-3.1-2.2a9 9 0 0 0-3.4.6l.1 1.7z" aria-label="13"/><path d="M142 381v5.5l-.1 1.5-1.6.1v.8h5v-.8h-1.6v-8.3l-3.5.4.1.8zm10.4 7.7v1.8h-.8l-.1.9h3.3v-.8l-.9-.1v-1.7h2.3v-1.2h-2.3v-7.8h-.8l-6.7 8v.7zm-4.7-1.4 4.7-5.4v5.6z" aria-label="14"/><path d="M250 379.8v5.4l-.1 1.5h-1.5l-.1.9h5v-.8l-1.6-.1v-8.3l-3.5.4.1.8zm5.5 4.2h1c1 0 2 0 2.7.6 1 .5 1.3 1.2 1.3 2.1a2.6 2.6 0 0 1-2.7 2.7c-.6 0-1.1 0-1.7-.4l-.1-.7-.8-.1-.1 1.7c.9.2 1.8.4 2.7.4 1.1 0 2.3-.3 3-1a3.8 3.8 0 0 0 1.3-2.8c0-1.4-.7-2.6-2-3.3a7.6 7.6 0 0 0-3.5-.6h-.1V380h5.2v-1.5h-6.2z" aria-label="15"/><path d="M357.1 379.9v6.9h-1.6v1h5l-.1-1h-1.5l-.1-1.5V378.5l-3.4.4.1.9zm13-3.3a6.3 6.3 0 0 0-2.8-.5c-3.4 0-5 3-5 6 0 2.7 1.1 5.8 4.2 5.8 2.4 0 4-1.9 4-4.2a3.4 3.4 0 0 0-3.5-3.6c-1.2 0-2.4.7-3 1.7 0-1 .2-2.1.7-3 .6-1.3 1.3-2 2.7-2 .6 0 1.1.3 1.6.6l.1 1h.9zm-3.6 4.4c1.7 0 2.4 1.6 2.4 3s-.6 3.1-2.2 3.1c-1.7 0-2.6-1.8-2.6-3.4 0-1.4.9-2.7 2.4-2.7z" aria-label="16"/><path d="M34.6 481.1v5.4l-.1 1.6h-1.6v.9h5v-.8l-1.6-.1-.1-1.6v-6.7l-3.4.4.1.8zm4.3.3h6.6l-2.5 3.3a27.5 27.5 0 0 0-2.4 3.5 9 9 0 0 0-1.1 3.3h2a8.3 8.3 0 0 1 1.3-4.5l4-6v-1h-7.9z" aria-label="17"/><path d="M141 481.1v5.4l-.2 1.6h-1.5l-.1.9h5.1l-.1-.8-1.5-.1-.1-1.6v-6.7l-3.4.4.1.8zm7.5 1.7c-1.3.6-2.5 1.7-2.5 3.2 0 2 2 3.2 3.9 3.2 1 0 2-.3 2.9-1a3.4 3.4 0 0 0 1.2-2.4c0-1.6-1.6-2.6-2.8-3.2 1.2-.5 2.3-1.5 2.3-2.9 0-1.6-1.8-2.3-3.2-2.3-1.8 0-3.6.9-3.6 2.8 0 1 .9 2 1.8 2.6zm2-.6c-.9-.5-2.4-1.2-2.4-2.4 0-1.1 1-1.6 2-1.6s2 .5 2 1.6-.7 1.9-1.6 2.4zm-.4 1.7c.5.2 1.1.6 1.5 1 .5.4.8.8.8 1.5 0 1.2-1.2 2-2.3 2-.7 0-1.2-.1-1.7-.6a2.8 2.8 0 0 1 .8-4.5z" aria-label="18"/><path d="M250 479.8v5.4l-.1 1.5-1.6.1v.9h5v-.9h-1.6v-8.3l-3.5.4.1.8zm5.7 10c.8.4 1.9.5 2.7.5 3.4 0 5-3 5-6 0-2.7-1-5.8-4.2-5.8-2.4 0-4 1.9-4 4.2a3.4 3.4 0 0 0 3.5 3.6 3.6 3.6 0 0 0 3-1.7 7 7 0 0 1-.7 3c-.6 1.2-1.3 1.9-2.6 1.9-.6 0-1.2-.2-1.7-.5v-1h-1zm3.5-4.4c-1.7 0-2.4-1.6-2.4-3.1 0-1.4.6-3 2.2-3 1.7 0 2.6 1.8 2.6 3.3 0 1.5-.8 2.8-2.4 2.8z" aria-label="19"/></svg>