<svg height="110" width="110" xmlns="http://www.w3.org/2000/svg"><g display="block"><path d="M24.98 81.86l-1.77-10c-.03 0-.09-.08-.16-.22-.18-.25-.7-.57-1.55-.96a14.74 14.74 0 01-2.89-2.14 116 116 0 01-3.69-3.21 21.12 21.12 0 01-2.35-2.68c-2.18-3-3.4-6.61-3.64-10.86-.36-4.1 1.3-8.18 4.98-12.25 3.7-4.06 8.71-5.97 15.03-5.72 2.35.14 5.11.71 8.29 1.71l3.15 1.29c1.1.39 2.2.8 3.27 1.23.57.28 1.07.57 1.5.85a9.67 9.67 0 01-.27-2.24 9.7 9.7 0 012.94-7.12c2-1.96 4.38-2.96 7.17-3 2.78 0 5.15 1 7.1 3a9.63 9.63 0 012.95 7.06c0 .57-.07 1.32-.21 2.25.5-.32.98-.59 1.44-.8 1.64-.72 3.8-1.55 6.47-2.52a32.13 32.13 0 018.3-1.76c6.3-.29 11.3 1.62 14.97 5.72 3.6 4.07 5.28 8.15 5.03 12.25-.28 4.25-1.51 7.87-3.69 10.86a21.67 21.67 0 01-2.4 2.73c-.9.82-2.1 1.87-3.59 3.16a17.4 17.4 0 01-3 2.14c-.82.39-1.3.7-1.44.96a.63.63 0 01-.1.16c-.04.04-.06.07-.06.1l-1.71 10.07 3.53 13.2c-1.78 1.61-5.78 2.93-11.98 3.96a132.08 132.08 0 01-21.5 1.55c-8.27 0-15.55-.53-21.82-1.6-6.28-1.1-10.22-2.48-11.82-4.12l3.53-13.05"/><path fill="#fff" d="M57.24 68.34c6.44.11 11.11.12 15.22.65 4.12.52 7.82 1.14 11.12 1.86a61.99 61.99 0 016.85-5.8c2.5-1.82 4.26-3.4 5.27-4.7 1.8-2.44 2.7-5.47 2.7-9.1 0-3.34-1.23-6-2.83-8.24-2.9-4.24-6.87-6.47-12.78-6.47-3.43 0-7.03.75-10.78 2.24-3.4 1.36-5.87 2.82-7.4 4.4-3.18 3.05-4.91 7.4-6.37 12.4a23.71 23.71 0 00-.95 6.58c-.03 2.06-.05 4.1-.06 6.17M81.48 78.8c-6.57-1.82-15.3-2.73-26.21-2.73-10.98 0-19.83.93-26.53 2.78l.8 3.77C36.28 80.88 44.86 80 55.27 80c10.38 0 18.83.86 25.35 2.57l.85-3.76m2 14.18l-.93-4.38c-6.96-1.6-16.96-2.53-27.48-2.53-10.4 0-20 .8-26.98 2.4l-1.71 4.48c6.77-2.07 16.95-3.1 28.75-3.1 5.67 0 10.93.28 15.78.85s9.43 1.39 12.57 2.28m-28.3-37.61c.27-1.09.5-1.84.69-2.27.39-1.5.83-2.78 1.34-3.82.23-.65.55-1.41.98-2.27.9-1.75 1.72-3.54 2.43-5.38l1.05-2.84c.3-.77.47-1.6.47-2.5 0-1.9-.68-3.49-2.04-4.8a6.71 6.71 0 00-4.92-2.03c-4.6 0-6.9 2.3-6.9 6.89 0 .89.15 1.73.46 2.5.85 2.5 1.51 4.25 1.98 5.21.79 1.78 1.62 3.54 2.48 5.28.5 1.25.92 2.52 1.28 3.82l.7 2.21m-29 18.36s12.57-2.6 29.1-2.58c16.51.02 28.44 2.2 28.44 2.2l-.97 8.68 3.11 12.21s-6.43 2.54-21.04 3.67c-14.6 1.13-13.56.73-24.68-.4-11.12-1.14-15.9-3.4-15.9-3.4l3.48-12.13"/><path d="M56.88 26.39h-3.8v-7.01h-4.44c-1.22 0-1.82-.59-1.82-1.77v-.05c0-1.18.6-1.77 1.82-1.77h4.44v-4.54c0-1.25.64-1.88 1.92-1.88 1.25 0 1.88.63 1.88 1.88v4.54h4.6c1.17 0 1.76.6 1.76 1.77v.05c0 1.18-.59 1.77-1.76 1.77l-4.55.05-.05 6.96"/><path fill="#fff" d="M53.63 68.38c0-1.5-.03-3.56-.1-6.18a28.36 28.36 0 00-.85-6.63c-1.53-5.02-3.86-9.06-6.97-12.13-1.6-1.58-4.08-3.04-7.42-4.39a29.7 29.7 0 00-10.84-2.24c-5.91 0-10.3 2.11-13.15 6.35-1.6 2.24-2.41 5.06-2.41 8.42 0 3.68.9 6.68 2.7 9.05.94 1.35 2.73 3.02 5.4 5a84.78 84.78 0 016.73 5.5 124.9 124.9 0 0111.01-1.84c4.12-.54 9.42-.83 15.9-.91"/></g></svg>