<svg height="110" width="110" xmlns="http://www.w3.org/2000/svg"><defs><filter id="a" x="-.01" y="-.01" width="1.02" height="1.02" color-interpolation-filters="sRGB"><feColorMatrix type="hueRotate" values="180" result="color1"/><feColorMatrix values="-1 0 0 0 1 0 -1 0 0 1 0 0 -1 0 1 -0.21 -0.72 -0.07 2 0" result="color2"/></filter><filter id="c" x="-.01" y="-.07" width="1.02" height="1.14" color-interpolation-filters="sRGB"><feColorMatrix type="hueRotate" values="180" result="color1"/><feColorMatrix values="-1 0 0 0 1 0 -1 0 0 1 0 0 -1 0 1 -0.21 -0.72 -0.07 2 0" result="color2"/></filter><filter id="b" x="-.01" y="-.03" width="1.02" height="1.07" color-interpolation-filters="sRGB"><feColorMatrix type="hueRotate" values="180" result="color1"/><feColorMatrix values="-1 0 0 0 1 0 -1 0 0 1 0 0 -1 0 1 -0.21 -0.72 -0.07 2 0" result="color2"/></filter></defs><g display="block" stroke="#fff"><path d="M97.16 32.37c-2.03 0-3.76-.7-5.19-2.08a7.07 7.07 0 01-2.14-5.2 7 7 0 012.14-5.13 6.98 6.98 0 015.2-2.19c1.99 0 3.7.73 5.13 2.2a7 7 0 012.14 5.13 7.1 7.1 0 01-2.14 5.19 7.1 7.1 0 01-5.14 2.08m-84.4 0A7.16 7.16 0 015.5 25.1c0-2 .7-3.71 2.08-5.14a6.98 6.98 0 015.2-2.19c2.03 0 3.75.73 5.18 2.2a7 7 0 012.14 5.13c0 2.03-.71 3.76-2.14 5.19a7.16 7.16 0 01-5.19 2.08m64.7-5.88a7.16 7.16 0 01-7.27-7.27c0-2 .7-3.71 2.08-5.14a7.07 7.07 0 015.2-2.14 7.1 7.1 0 015.18 2.14 7 7 0 012.14 5.14c0 2.03-.71 3.76-2.14 5.19a7.16 7.16 0 01-5.19 2.08m-45 0c-2.03 0-3.76-.7-5.19-2.08a7.07 7.07 0 01-2.14-5.2 7 7 0 012.14-5.13 7.07 7.07 0 015.2-2.14 7 7 0 015.13 2.14 7 7 0 012.14 5.14 7.1 7.1 0 01-2.14 5.19 7.1 7.1 0 01-5.14 2.08m55.4 68.9c-1.75 1.53-5.67 2.81-11.77 3.84a127.12 127.12 0 01-21.08 1.56c-8.1 0-15.2-.54-21.34-1.6-6.13-1.08-10-2.42-11.6-4.02l3.36-12.84-1.5-8.4-4.7-8.18-4.55-33.27 2.62-1.02 14.66 24.71.32-29.42 3.64-.64L47.1 55.69l5.7-30.26.29-1.57h3.7l5.98 31.72L73.84 26.1l3.7.64.31 29.42L92.56 31.4l2.52 1.18-4.44 33.1-4.76 8.2-1.5 8.5 3.48 13M54.72 23.8a7.16 7.16 0 01-7.27-7.28c0-2 .7-3.7 2.08-5.13a7.07 7.07 0 015.2-2.14c2.02 0 3.75.71 5.18 2.14a7 7 0 012.14 5.13c0 2.04-.71 3.76-2.14 5.2a7.16 7.16 0 01-5.19 2.08" stroke-width="2.1" filter="url(#a)"/><path fill="#fff" d="M81.07 88.42c-1.08.15-15.7-2.4-26.21-2.4-10.41 0-19.11.8-26.1 2.4l-1.63 5.3c6.78-2.06 16.08-3.1 27.88-3.1 5.67 0 10.87-.07 15.72.5 4.85.58 10.79 1.86 11.36 1.74m-.47-15.13c-6.56-1.82-15.56-2.77-26.47-2.77-10.98 0-19.83.92-26.53 2.78l.72 4.52c6.74-1.75 15.32-2.62 25.73-2.62 10.38 0 18.83.85 25.35 2.56" filter="url(#b)"/><path fill="#fff" d="M85.25 67.5c-2.3-1.29-7.13-1.96-12.52-2.64a134.91 134.91 0 00-17.76-1.07c-6.35 0-12.16.34-17.44 1.02-5.28.64-9.43 1.5-12.46 2.57l2.59 3.72c3-.9 6.88-1.54 11.66-1.93 4.77-.4 10-.59 15.67-.59s10.9.2 15.73.6c4.81.38 8.72 1.04 11.7 1.97" filter="url(#c)"/></g></svg>