<svg xmlns="http://www.w3.org/2000/svg" viewBox="0 0 135 135"><defs><clipPath id="a"><path fill="#0f0" d="m43 0 17 18-17 17-18-17z"/></clipPath><clipPath id="b"><path fill="#0f0" d="m93 0 17 18-17 17-18-17z"/></clipPath><clipPath id="c"><path fill="#0f0" d="m55 70 35 35-35 35-18-17 18-18-18-18 18-17"/></clipPath><clipPath id="d"><path fill="#0f0" d="m118 100 18 17-18 18-18-18z"/></clipPath><clipPath id="e"><path fill="red" d="M55 5h25v25h25v25H80v25H55z"/></clipPath><clipPath id="f"><path fill="#00f" d="M30 30h25v50H5V55h25V30"/></clipPath></defs><g fill="none" stroke="#000" stroke-miterlimit="5"><path stroke-linecap="round" stroke-width="1.3" d="M5 5h125v125H5z"/><path stroke-width=".7" d="M30 5v25H5M55 5v25H30M80 5v25h25v25H80v25H55V30m50 0V5m25 25h-25m-75 0v25H5m50 25H5m125-25h-25m25 25h-25v25H80V80m-50 0v25H5m50 25v-25H30m100 0h-25m-75 0v25m50-25v25m25-25v25"/><g stroke-width="2.1" clip-path="url(#a)" transform="rotate(-45 42.5 17.5)"><path d="M10-20v75m5-75v75m5-75v75m5-75v75m5-75v75m5-75v75m5-75v75m5-75v75m5-75v75m5-75v75m5-75v75m5-75v75m5-75v75m5-75v75"/></g><g stroke-width="2.1" clip-path="url(#b)" transform="rotate(-45 92.5 17.5)"><path d="M60-20v75m5-75v75m5-75v75m5-75v75m5-75v75m5-75v75m5-75v75m5-75v75m5-75v75m5-75v75m5-75v75m5-75v75m5-75v75m5-75v75"/></g><g stroke-width="2.1" clip-path="url(#c)" transform="rotate(-45 55 105)"><path d="M10 55v100m5-100v100m5-100v100m5-100v100m5-100v100m5-100v100m5-100v100m5-100v100m5-100v100m5-100v100m5-100v100m5-100v100m5-100v100m5-100v100m5-100v100m5-100v100m5-100v100m5-100v100m5-100v100"/></g><g stroke-width="2.1" clip-path="url(#d)" transform="rotate(-45 118 118)"><path d="M85 80v75m5-75v75m5-75v75m5-75v75m5-75v75m5-75v75m5-75v75m5-75v75m5-75v75m5-75v75m5-75v75m5-75v75m5-75v75m5-75v75"/></g><path stroke-width="2.1" d="M10 30V5m5 25V5m5 25V5m5 25V5"/><g stroke-width="2.1" clip-path="url(#e)"><path d="M60 80V5m5 75V5m5 75V5m5 75V5m5 75V5m5 75V5m5 75V5m5 75V5m5 75V5"/></g><path stroke-width="2.1" d="M105 35h25m-25 5h25m-25 5h25m-25 5h25"/><g stroke-width="2.1" clip-path="url(#f)"><path d="M5 35h50M5 40h50M5 45h50M5 50h50M5 55h50M5 60h50M5 65h50M5 70h50M5 75h50"/></g><path stroke-width="2.1" d="M105 85h25m-25 5h25m-25 5h25m-25 5h25M5 110h25m-25 5h25m-25 5h25m-25 5h25m5-20v25m5-25v25m5-25v25m5-25v25m35-25v25m5-25v25m5-25v25m5-25v25"/></g></svg>