<svg xmlns="http://www.w3.org/2000/svg" viewBox="2 2 128.3 128.3"><defs><filter id="a" width="1.4" height="1.4" x="-.1" y="-.1"><feGaussianBlur stdDeviation="4.1"/></filter></defs><g><path fill="#888" d="M1 1h130v130H1z"/><path fill="red" d="M284 0v26h27V0Zm27 26v27h26V26Zm26 0h27V0h-27zm-79 53v27h26V79Zm26 27v26h27v-26zm-26 0h-27v26h27z" filter="url(#a)" transform="translate(-231)"/><path fill="#00f" d="M258 0v26h26V0Zm53 0v26h26V0Zm-53 106v26h26v-26zm53 0v26h26v-26z" filter="url(#a)" transform="translate(-231)"/><path fill="#fff" d="M337 26v27H231v53h27V79h106V26Z" filter="url(#a)" transform="translate(-231)"/><path fill="#0f0" d="M231 0v53h80V26h-53V0Zm53 79v27h53v26h27V79Z" filter="url(#a)" transform="translate(-231)"/></g></svg>