<svg xmlns="http://www.w3.org/2000/svg" width="512" height="512" viewBox="0 0 135.467 135.467"><defs><clipPath clipPathUnits="userSpaceOnUse" id="a"><path style="fill:#fff;fill-rule:evenodd;stroke:#fff;stroke-width:8.68872;stroke-linecap:square;stroke-miterlimit:4;stroke-dasharray:none;stroke-dashoffset:271;paint-order:stroke fill markers" d="m97.42 91.807-45.862 7.264-21.08-41.373L63.31 24.865l41.373 21.08Z" transform="rotate(9.001 79.275 -4.697) scale(1.15092)"/></clipPath></defs><path style="fill:#000;fill-rule:evenodd;stroke:#000;stroke-width:17.3774;stroke-linecap:square;stroke-miterlimit:4;stroke-dasharray:none;stroke-dashoffset:271;paint-order:stroke fill markers" d="m97.42 91.807-45.862 7.264-21.08-41.373L63.31 24.865l41.373 21.08Z" transform="rotate(9.001 79.275 -4.697) scale(1.15092)"/><path transform="rotate(9.001 79.275 -4.697) scale(1.15092)" d="m97.42 91.807-45.862 7.264-21.08-41.373L63.31 24.865l41.373 21.08Z" style="fill:#7f7f7f;fill-rule:evenodd;stroke:#7f7f7f;stroke-width:8.68872;stroke-linecap:square;stroke-miterlimit:4;stroke-dasharray:none;stroke-dashoffset:271;paint-order:stroke fill markers;stroke-opacity:1;fill-opacity:1"/><path transform="rotate(9.001 83.025 -4.993) scale(1.15092)" d="m97.42 91.807-45.862 7.264-21.08-41.373L63.31 24.865l41.373 21.08Z" style="fill:#fff;fill-rule:evenodd;stroke:none;stroke-width:8.68872;stroke-linecap:square;stroke-miterlimit:4;stroke-dasharray:none;stroke-dashoffset:271;paint-order:stroke fill markers"/><path style="fill:#000;fill-rule:evenodd;stroke:none;stroke-width:9.14125;stroke-linecap:square;stroke-miterlimit:4;stroke-dasharray:none;stroke-dashoffset:271;paint-order:stroke fill markers" clip-path="url(#a)" d="M0 0h67.733v135.467H0z" transform="translate(0 -.59)"/></svg>