<svg xmlns="http://www.w3.org/2000/svg" width="100" height="100"><path color="#000" fill="none" stroke="#000" stroke-linecap="round" overflow="visible" d="M10 70h25v25H10zm55 0h25v25H65zM25 5h50v50H25z"/><text style="text-align:center;line-height:125%;-inkscape-font-specification:Arial" x="50" y="987.36218" font-size="14" letter-spacing="0" word-spacing="0" text-anchor="middle" font-family="Arial" transform="translate(0 -952.362)"><tspan x="50" y="987.36218">TOP</tspan></text><path d="M30 80H20v-2.5l-5 5 5 5V85h10zm40 5v-5h10v-2.5l5 5-5 5V85zM32.5 65c-12.5 0-20-7.5-20-17.5" fill="none" stroke="#000"/><path d="M12.5 42.5l2.5 5h-5z"/><path d="M67.5 65.0002c12.5 0 20-7.5 20-17.50002" fill="none" stroke="#000"/><path d="M87.5 42.50018l2.5 5h-5z"/></svg>