<svg viewBox="0 0 500 500" xmlns="http://www.w3.org/2000/svg" fill-rule="evenodd" clip-rule="evenodd" stroke-linejoin="round" stroke-miterlimit="2"><path d="M249.687 469.71c-62.058 0-114.087-21.313-156.086-63.312C51.603 364.4 30.29 312.371 30.29 250.313c0-62.058 21.313-114.086 63.311-156.712 42-41.999 94.028-63.311 156.086-63.311 62.058 0 114.713 21.312 156.712 63.311 41.998 41.999 63.311 94.654 63.311 156.712 0 62.058-21.313 114.087-63.311 156.085-42.626 42-94.654 63.312-156.712 63.312zm0-420.615c-56.417 0-104.057 19.432-142.295 58.297-38.864 38.864-58.297 86.505-58.297 142.921 0 56.417 19.433 104.057 58.297 142.295 38.238 38.864 85.878 58.297 142.295 58.297 56.416 0 104.056-19.433 142.92-58.297 38.866-38.238 58.298-85.878 58.298-142.295 0-57.043-19.432-104.683-57.67-143.548-38.865-38.238-86.505-57.67-143.548-57.67z" fill-rule="nonzero"/></svg>