<svg viewBox="0 0 250 250" xmlns="http://www.w3.org/2000/svg"><path xmlns="http://www.w3.org/2000/svg" stroke="#000" stroke-width="10" fill="none" d="M0 0h250M0 0v250M250 0v250M0 250h250"/><circle xmlns="http://www.w3.org/2000/svg" cx="25" cy="25" r="10" stroke="#000" fill="gray"/><circle xmlns="http://www.w3.org/2000/svg" cx="75" cy="25" r="10" stroke="#000" fill="gray"/><circle xmlns="http://www.w3.org/2000/svg" cx="125" cy="25" r="10" stroke="#000" fill="gray"/><circle xmlns="http://www.w3.org/2000/svg" cx="175" cy="25" r="10" stroke="#000" fill="gray"/><circle xmlns="http://www.w3.org/2000/svg" cx="225" cy="25" r="10" stroke="#000" fill="gray"/><circle xmlns="http://www.w3.org/2000/svg" cx="25" cy="75" r="10" stroke="#000" fill="gray"/><circle xmlns="http://www.w3.org/2000/svg" cx="75" cy="75" r="10" stroke="#000" fill="#fff"/><circle xmlns="http://www.w3.org/2000/svg" cx="125" cy="75" r="10" stroke="#000" fill="gray"/><circle xmlns="http://www.w3.org/2000/svg" cx="175" cy="75" r="10" stroke="#000" fill="gray"/><circle xmlns="http://www.w3.org/2000/svg" cx="225" cy="75" r="10" stroke="#000" fill="gray"/><circle xmlns="http://www.w3.org/2000/svg" cx="25" cy="125" r="10" stroke="#000" fill="gray"/><circle xmlns="http://www.w3.org/2000/svg" cx="75" cy="125" r="10" stroke="#000" fill="gray"/><circle xmlns="http://www.w3.org/2000/svg" cx="125" cy="125" r="10" stroke="#000" fill="gray"/><circle xmlns="http://www.w3.org/2000/svg" cx="175" cy="125" r="10" stroke="#000" fill="gray"/><circle xmlns="http://www.w3.org/2000/svg" cx="225" cy="125" r="10" stroke="#000" fill="gray"/><circle xmlns="http://www.w3.org/2000/svg" cx="25" cy="175" r="10" stroke="#000" fill="#fff"/><circle xmlns="http://www.w3.org/2000/svg" cx="75" cy="175" r="10" stroke="#000" fill="gray"/><circle xmlns="http://www.w3.org/2000/svg" cx="125" cy="175" r="10" stroke="#000" fill="#fff"/><circle xmlns="http://www.w3.org/2000/svg" cx="175" cy="175" r="10" stroke="#000" fill="gray"/><circle xmlns="http://www.w3.org/2000/svg" cx="225" cy="175" r="10" stroke="#000" fill="#fff"/><circle xmlns="http://www.w3.org/2000/svg" cx="25" cy="225" r="10" stroke="#000" fill="#fff"/><circle xmlns="http://www.w3.org/2000/svg" cx="75" cy="225" r="10" stroke="#000" fill="gray"/><circle xmlns="http://www.w3.org/2000/svg" cx="125" cy="225" r="10" stroke="#000" fill="gray"/><circle xmlns="http://www.w3.org/2000/svg" cx="175" cy="225" r="10" stroke="#000" fill="gray"/><circle xmlns="http://www.w3.org/2000/svg" cx="225" cy="225" r="10" stroke="#000" fill="gray"/></svg>