<svg xmlns="http://www.w3.org/2000/svg" width="600" height="500" version="1"><g fill-rule="evenodd"><path d="M325 210a25 25 0 11-50 0 25 25 0 1150 0z"/><rect width="70" height="160" x="265" y="240" rx="20" ry="21.333"/></g><rect width="70" height="20" x="240" y="-360" fill-rule="evenodd" rx="10" ry="10" transform="rotate(90)"/><path fill-rule="evenodd" stroke="#000" d="M355 300v200h-10V300z"/><path fill="#ff0" fill-rule="evenodd" d="M255 410h90v90h-90v-90z"/><path fill="red" fill-rule="evenodd" d="M345 410v90h-90l90-90z"/><path fill="none" stroke="#000" stroke-linejoin="round" d="M255 410h90v90h-90v-90z"/><rect width="70" height="20" x="-10" y="-363.553" fill-rule="evenodd" rx="10" ry="10" transform="rotate(135)"/><path fill-rule="evenodd" stroke="#000" d="M218.18 288.89L76.759 430.313l-7.071-7.071 141.42-141.421z"/><path fill="#ff0" fill-rule="evenodd" d="M204.038 430.312l-63.64 63.64-63.64-63.64 63.64-63.64 63.64 63.64z"/><path fill="red" fill-rule="evenodd" d="M140.398 493.952l-63.64-63.64 63.64-63.64v127.28z"/><path fill="none" stroke="#000" stroke-linejoin="round" d="M204.038 430.312l-63.64 63.64-63.64-63.64 63.64-63.64 63.64 63.64z"/></svg>