<svg xmlns="http://www.w3.org/2000/svg" xmlns:xlink="http://www.w3.org/1999/xlink" stroke-width=".5" fill="#000" viewBox="0 0 90.81 84.19"><defs><filter id="a" width="1.06" height="1.06" x="-.03" y="-.03"><feGaussianBlur stdDeviation="1"/></filter></defs><g transform="translate(-10.82 -4.2)"><rect width="85.99" height="79.38" x="13.23" y="6.61" fill="#fff5" filter="url(#a)" ry="13.74"/><g stroke="#000"><path fill="#ff4646" d="M19.84 16.54h6.61v6.61h-6.61zm0 6.61h6.61v6.61h-6.61zm6.62 0h6.61v6.61h-6.61zm0 6.62h6.61v6.61h-6.61zm0 6.61h6.61v6.61h-6.61zm6.61-6.61h6.61v6.61h-6.61z"/><path fill="#5256ff" d="M46.3 19.84h6.61v6.61H46.3zm6.62 0h6.61v6.61h-6.61zm0-6.61h6.61v6.61h-6.61zm0 13.23h6.61v6.61h-6.61zm6.61 0h6.61v6.61h-6.61zm-6.61 6.61h6.61v6.61h-6.61z"/><path fill="#00ff24" d="M72.76 23.15h6.61v6.61h-6.61zm0-6.61h6.61v6.61h-6.61zm6.62 6.61h6.61v6.61h-6.61zm0 6.62h6.61v6.61h-6.61zm6.61 0h6.61v6.61h-6.61zm0 6.61h6.61v6.61h-6.61z"/><path fill="#ff0" d="M19.84 49.61h6.61v6.61h-6.61zm6.62 0h6.61v6.61h-6.61zm0 6.61h6.61v6.61h-6.61zm0 6.62h6.61v6.61h-6.61zm6.61 0h6.61v6.61h-6.61zm0 6.61h6.61v6.61h-6.61z"/><path fill="orange" d="M72.76 56.22h6.61v6.61h-6.61zm6.62 0h6.61v6.61h-6.61zm0-6.61h6.61v6.61h-6.61zm6.61 6.61h6.61v6.61h-6.61zm-6.61 6.62h6.61v6.61h-6.61zm0 6.61h6.61v6.61h-6.61z"/><path fill="#f0f" d="M49.61 52.92h6.61v6.61h-6.61zm0 6.61h6.61v6.61h-6.61zm6.61 0h6.61v6.61h-6.61zm0 6.62h6.61v6.61h-6.61zm0 6.61h6.61v6.61h-6.61zM49.61 46.3h6.61v6.61h-6.61z"/></g><path id="b" d="M24.52 20.62q0 .34-.14.61-.15.28-.4.48-.25.2-.6.3-.34.12-.74.12l-.22-.01-.22-.01-.23-.02-.2-.03v-.54l.43.07q.24.02.49.02.27 0 .5-.07.21-.07.37-.19.15-.12.24-.3.08-.17.08-.38 0-.42-.3-.61-.3-.2-.87-.2h-.85v-2.3h2.42v.53h-1.86v1.26h.4q.32 0 .63.06.3.06.54.2.24.15.39.4.14.24.14.61z"/><path id="c" d="M24.55 27.31q0 .3-.12.56-.12.26-.36.45-.24.2-.6.31-.37.11-.86.11-.27 0-.48-.02-.21-.01-.4-.04v-.54q.21.04.45.06.24.02.49.02.33 0 .57-.06.24-.06.4-.17.15-.12.22-.28.06-.16.06-.36 0-.2-.08-.33-.08-.14-.23-.23-.15-.1-.36-.14-.2-.05-.46-.05h-.5v-.49h.51q.2 0 .37-.05.17-.05.29-.15.12-.1.18-.25t.06-.33q0-.37-.22-.53-.22-.17-.64-.17-.23 0-.47.05-.24.04-.52.13v-.52l.25-.07.26-.06.27-.03.25-.02q.36 0 .63.08t.46.22q.18.15.27.36.1.2.1.46 0 .39-.2.65t-.55.41q.18.03.35.11.17.09.3.22.14.13.23.3.08.18.08.4z"/><path id="d" d="M31.3 27.25q0 .31-.1.58-.12.28-.32.48-.21.2-.5.32-.3.11-.65.11-.37 0-.66-.12-.28-.12-.47-.36-.2-.25-.3-.63-.1-.37-.1-.88 0-.35.05-.67.04-.33.15-.61.1-.29.27-.53.17-.23.43-.4t.6-.27q.35-.1.81-.1h.45v.53h-.49q-.4 0-.7.1-.3.1-.5.27t-.3.42q-.1.25-.13.56l-.02.14q.22-.13.5-.2.29-.08.62-.08.34 0 .6.1.25.1.42.27.18.18.26.43.09.25.09.54zm-.62.04q0-.2-.05-.37-.05-.17-.16-.28-.1-.12-.27-.18-.16-.07-.39-.07-.13 0-.26.03-.14.02-.27.06l-.24.1-.22.12q0 .44.07.74.06.3.18.48t.3.25q.18.08.41.08.2 0 .36-.06.17-.07.29-.2.12-.12.18-.3.07-.17.07-.4z"/><path id="e" d="M31.48 34.3h-.77v1h-.62v-1h-2.16v-.53l1.92-2.98h.86v2.98h.77zm-1.39-2.93-1.56 2.4h1.56z"/><path id="g" d="M31.21 41.9H28.4v-.55h1.15v-3.29l-1.07.59-.23-.51 1.44-.76h.53v3.97h1z"/><path id="f" d="M37.87 35.3H34.9v-.54l1.16-1.16q.3-.28.47-.5.18-.2.28-.37.1-.17.13-.32.04-.15.04-.33 0-.16-.05-.31-.04-.15-.13-.27-.1-.11-.25-.18-.14-.06-.35-.06-.29 0-.52.13-.24.12-.43.33l-.33-.4q.25-.27.58-.43.34-.16.78-.16.3 0 .54.09.25.09.43.26t.28.41q.1.24.1.55 0 .26-.07.48-.07.22-.21.44-.14.22-.35.45-.21.24-.5.52l-.82.8h2.19z"/><use xlink:href="#b" transform="translate(33.07 9.92)"/><use xlink:href="#c" transform="translate(39.7 3.34)"/><use xlink:href="#d" transform="translate(26.47 -9.92)"/><use xlink:href="#e" transform="translate(26.52 -9.9)"/><use xlink:href="#f" transform="translate(13.23 -9.86)"/><use xlink:href="#g" transform="translate(26.5 -3.27)"/><use xlink:href="#b" transform="translate(66.15 13.23)"/><use xlink:href="#c" transform="translate(59.54 6.65)"/><use xlink:href="#d" transform="translate(46.31)"/><use xlink:href="#e" transform="translate(46.37 -13.2)"/><use xlink:href="#f" transform="translate(46.3 -6.55)"/><use xlink:href="#g" transform="translate(59.57 .04)"/><use xlink:href="#b" transform="translate(6.61 33.07)"/><use xlink:href="#c" transform="translate(.01 26.49)"/><use xlink:href="#d" transform="translate(.01 33.07)"/><use xlink:href="#e" transform="translate(6.68 33.1)"/><use xlink:href="#f" transform="translate(-6.62 33.13)"/><use xlink:href="#g" transform="translate(6.65 33.11)"/><use xlink:href="#b" transform="translate(29.77 29.77)"/><use xlink:href="#c" transform="translate(29.78 36.41)"/><use xlink:href="#d" transform="translate(23.16 29.77)"/><use xlink:href="#e" transform="translate(29.83 29.8)"/><use xlink:href="#f" transform="translate(23.15 36.44)"/><use xlink:href="#g" transform="translate(29.8 36.42)"/><use xlink:href="#b" transform="translate(59.53 39.69)"/><use xlink:href="#c" transform="translate(59.54 39.72)"/><use xlink:href="#d" transform="translate(59.54 33.07)"/><use xlink:href="#e" transform="translate(52.98 19.87)"/><use xlink:href="#f" transform="translate(39.68 26.52)"/><use xlink:href="#g" transform="translate(52.95 33.11)"/></g></svg>