<svg xmlns="http://www.w3.org/2000/svg" fill="none" stroke="#000" stroke-width="2" viewBox="0 0 86 86"><circle cx="298" cy="40" r="16"/><rect width="38.1" height="78.1" x="-7.7" y="20.7" stroke-width="1.8" ry="6" transform="rotate(-34.268802)"/><path fill="#000" stroke-linecap="round" stroke-miterlimit="5" stroke-width="1.8" d="M30 52 56 34"/><circle cx="21" cy="30.3" r="3.5" fill="#000" stroke="none" transform="rotate(-34.268802)"/><circle cx="1.5" cy="50.7" r="3.5" fill="#000" stroke="none" transform="rotate(-34.268802)"/><circle cx="11.3" cy="40.5" r="3.5" fill="#000" stroke="none" transform="rotate(-34.268802)"/><circle cx="1.5" cy="30.3" r="3.5" fill="#000" stroke="none" transform="rotate(-34.268802)"/><circle cx="21" cy="50.7" r="3.5" fill="#000" stroke="none" transform="rotate(-34.268802)"/><circle cx="21.1" cy="68.8" r="3.5" fill="#000" stroke="none" transform="rotate(-34.268802)"/><circle cx="11.3" cy="68.8" r="3.5" fill="#000" stroke="none" transform="rotate(-34.268802)"/><circle cx="1.5" cy="68.8" r="3.5" fill="#000" stroke="none" transform="rotate(-34.268802)"/><circle cx="1.5" cy="79" r="3.5" fill="#000" stroke="none" transform="rotate(-34.268802)"/><circle cx="21.1" cy="79" r="3.5" fill="#000" stroke="none" transform="rotate(-34.268802)"/><circle cx="1.5" cy="89.2" r="3.5" fill="#000" stroke="none" transform="rotate(-34.268802)"/><circle cx="11.3" cy="89.2" r="3.5" fill="#000" stroke="none" transform="rotate(-34.268802)"/><circle cx="21.1" cy="89.2" r="3.5" fill="#000" stroke="none" transform="rotate(-34.268802)"/></svg>