<svg xmlns="http://www.w3.org/2000/svg" fill="none" stroke="#000" stroke-width="2" viewBox="0 0 86 86"><circle cx="298" cy="40" r="16"/><path stroke-linecap="round" stroke-linejoin="round" stroke-miterlimit="5" stroke-width="1.8" d="m11.7 56.9-2.2-4-4 2L12 67.2l4-2.1-2.1-4M13.6 50.7l6.3 12.1 4-2M28 58.6l-6.3-12.1 4-2.1 6.4 12M24.8 52.5l4-2M36 54.4l4.1-2.2-3.2-6-4 2.1-3.2-6 4-2.2M44.2 50.1l4-2.1-3.2-6-4 2-3.2-6 4-2.1M45.9 33.8l6.3 12M56.3 43.7l-6.4-12 4-2.2M53 37.7l4.1-2.1M58 27.4l6.3 12.1M66 23.2l-4 2 6.4 12.2 4-2.1M65.2 31.3l4-2M70 21l6.5 12.1 2-1 1-3.1-4.3-8-3.1-1zM3.4 51 72 14.8M14 71.1l68.6-36"/></svg>