<svg xmlns="http://www.w3.org/2000/svg" fill="none" stroke="#000" stroke-width="2" viewBox="0 0 18 18"><circle cx="298" cy="40" r="16"/><circle cx="9" cy="9" r="7.3" stroke-linecap="round" stroke-miterlimit="5" stroke-width="1.8"/><path stroke-linecap="round" stroke-miterlimit="5" stroke-width="1.8" d="M12.9 11.2 5 6.8M9 13.5v-9M5.1 11.2 13 6.8M5.1 6.8c1.9 1.6 1.8 3 0 4.4M9 4.5C8.5 7 7.2 7.6 5.1 6.8M12.9 6.8c-2.4.7-3.6 0-3.9-2.3"/><path stroke-linecap="round" stroke-miterlimit="5" stroke-width="1.8" d="M12.9 11.2c-1.9-1.6-1.8-3 0-4.4M9 13.5c.5-2.4 1.8-3.1 3.9-2.3M5.1 11.2c2.4-.7 3.6 0 3.9 2.3"/></svg>