<svg xmlns="http://www.w3.org/2000/svg" fill="none" stroke="#000" stroke-width="2" viewBox="0 0 86 86"><circle cx="298" cy="40" r="16"/><circle cx="43" cy="43" r="38.8" stroke-linecap="round" stroke-linejoin="round" stroke-miterlimit="5" stroke-width="1.8"/><path stroke-linecap="round" stroke-miterlimit="5" stroke-width="1.7" d="M45.3 7.8c4-.3 8.2.6 12.5 3l-4.9 10.7c-4-1.6-6-1.8-8.1-2zM54.8 28c1.4 1.2 2.8 2.2 4 4.5l7.6-5c-2-2.9-4-5.2-6.4-6.2zM59 36.6l8.2-3.2c1.6 2.6 2.2 5.5 2.1 8.7h-9a23 23 0 0 0-1.2-5.5ZM67.5 44.6l12 .5c-.2 4.3-.8 8.5-3 12.4l-10.8-5c1-2.5 1.6-5.1 1.8-8zM50.8 64.1c2.6-.7 4.7-2.3 6.7-3.8l7.3 8.4c-3 2.7-6.3 4.7-10 5.7zM41.7 78.3a21 21 0 0 1-12.5-3.1L34 64.5c4 1.7 6 1.9 8.2 2.1zM32.2 58c-1.4-1-2.8-2-4-4.4l-7.7 4.9c2 3 4.1 5.2 6.4 6.2zM27.9 49.5l-8.1 3.1a14.8 14.8 0 0 1-2.2-8.6h9a23 23 0 0 0 1.3 5.5zM19.4 41.5l-12-.5c.2-4.3.9-8.5 3-12.4l10.9 5c-1 2.5-1.7 5.1-1.9 8zM36.1 22c-2.5.6-4.6 2.3-6.7 3.8l-7.3-8.4c3-2.7 6.3-4.8 10-5.7z"/></svg>