<svg viewBox="0 0 600 600" xmlns="http://www.w3.org/2000/svg" fill-rule="evenodd" clip-rule="evenodd" stroke-linecap="round" stroke-linejoin="round" stroke-miterlimit="1.5"><circle cx="326.584" cy="336.883" r="72.303" fill="none" stroke="#000" stroke-width="5.26" transform="matrix(.94996 0 0 .94996 -10.24 -20.024)"/><path d="M146.032 79.267c-17.556-.345-35.472 12.55-46.978 23.837-47.274 46.373-52.646 120.428-31.73 180.784 3.98 11.484 11.637 21.918 18.854 32.43 6.096 8.878 11.94 17.774 13.424 27.964.987 6.775-.715 13.226-3.282 19.564-3.032 7.486-7.289 14.796-10.953 22.136-8.822 17.675-14.107 35.46-.233 55.13 6.436 9.125 15.86 14.997 26.593 18.785 14.226 5.021 30.827 6.3 44.2 8.06 47.884 6.3 102.699 5.761 148.125 23.202 27.484 10.553 48.212 32.45 70.326 50.765 24.383 20.194 50.294 36.25 86.09 32.937 13.169-1.219 26.506-4.352 38.71-9.468 16.259-6.815 26.994-18.097 35.68-33.169 21.903-38.006 6.211-73.346-16.635-108.344-10.486-16.063-22.369-32.082-31.88-48.374-8.914-15.27-15.774-30.73-16.751-46.79-2.321-38.164 9.414-78.579 14.231-118.187 5.14-42.264 2.663-83.566-28.796-120.785-17.948-21.234-35.268-30.597-51.922-33.098-16.666-2.502-32.906 1.937-48.987 9.378-14.728 6.815-29.357 16.153-44.2 24.012-13.652 7.229-27.454 13.245-41.81 14.018-18.898 1.018-41.766-4.955-63.215-11.094-23.121-6.618-44.723-13.415-58.861-13.693zm-.315 15.998c13.174.259 33.23 6.91 54.773 13.077 23.216 6.645 48.023 12.79 68.478 11.69 25.907-1.396 50.522-17.09 74.914-30.701 19.27-10.754 38.342-20.304 58.402-16.601 13.118 2.42 26.418 10.655 40.524 27.342 28.223 33.391 29.743 70.608 25.131 108.526-4.933 40.571-16.695 81.998-14.317 121.09 2.175 35.77 29.316 69.41 51.203 102.938 19.389 29.701 34.758 59.355 16.17 91.608-6.862 11.908-15.158 21.019-28.003 26.403-10.717 4.493-22.434 7.222-33.999 8.292-31.06 2.875-53.252-11.805-74.41-29.328-23.428-19.402-45.678-42.199-74.797-53.379-46.561-17.876-102.692-17.671-151.772-24.128-10.438-1.374-22.992-2.337-34.595-5.353-10.046-2.612-19.446-6.68-25.21-14.852-9.762-13.84-4.733-26.325 1.474-38.762 8.242-16.514 18.373-33.152 15.752-51.15-1.83-12.566-8.55-23.767-16.067-34.716-6.396-9.315-13.4-18.435-16.926-28.612-18.97-54.738-15.057-122.067 27.816-164.122 8.814-8.646 22.01-19.527 35.459-19.262z"/></svg>