<svg viewBox="0 0 600 600" xmlns="http://www.w3.org/2000/svg" fill-rule="evenodd" clip-rule="evenodd" stroke-linecap="round" stroke-linejoin="round" stroke-miterlimit="1.5"><circle cx="326.584" cy="336.883" r="72.303" fill="none" stroke="#000" stroke-width="5.26" transform="matrix(.94996 0 0 .94996 -10.24 -20.024)"/><path d="M271.583 36.992c-25.091 5.68-52.286 13.758-72.177 26.446-15.402 9.822-28.189 22.72-39.64 36.436-56.69 67.904-30.978 146.891-.588 219.264 8.209 19.549 18.905 39.371 22.053 60.393 4.781 31.923-9.428 77.63-10.549 117.319-.617 21.901 2.623 42.066 13.481 57.898 10.98 16.008 29.748 27.989 61.166 32.325 13.858 1.913 29.144.736 42.66-2.453 34.425-8.124 44.764-28.906 48.976-53.77 2.47-14.578 2.59-30.712 5.095-46.12 4.396-27.042 15.122-54.397 28.716-78.515 20.065-35.6 43.52-68.092 70.668-99.142 26.523-30.334 55.684-54.726 72.701-91.797 32.292-70.345 4.039-142.857-70.28-173.317-22.682-9.297-47.486-16.05-72.224-17.662-34.153-2.226-71.508 6.23-100.058 12.695zm3.533 15.605C302.37 46.427 338 38.138 370.6 40.263c23.021 1.5 46.09 7.85 67.197 16.5 65.144 26.7 90.112 90.177 61.808 151.838-16.353 35.624-44.72 58.791-70.206 87.94-27.879 31.886-51.956 65.26-72.562 101.818-14.505 25.734-25.878 54.949-30.57 83.805-2.499 15.37-2.613 31.469-5.078 46.014-3.187 18.819-10.82 34.72-36.875 40.87-11.66 2.75-24.842 3.826-36.797 2.175-25.559-3.527-41.227-12.502-50.16-25.525-9.052-13.2-11.196-30.138-10.68-48.397 1.146-40.63 15.272-87.459 10.377-120.14-3.342-22.316-14.41-43.465-23.123-64.217-28.112-66.947-54.322-140.003-1.883-202.815 10.41-12.47 21.962-24.272 35.962-33.202 18.471-11.782 43.806-19.055 67.106-24.33z"/></svg>