<svg viewBox="0 0 600 600" xmlns="http://www.w3.org/2000/svg" fill-rule="evenodd" clip-rule="evenodd" stroke-linecap="round" stroke-linejoin="round" stroke-miterlimit="1.5"><circle cx="326.584" cy="336.883" r="72.303" fill="none" stroke="#000" stroke-width="5.26" transform="matrix(.94996 0 0 .94996 -10.24 -20.024)"/><path d="M93.91 216.53c-37.02 20.742-56.942 67.237-65.097 109.406-4.323 22.36-9.118 48.091 3.136 68.928 12.593 21.41 28.75 26.894 45.48 30.365 13.296 2.76 27.123 3.613 38.519 14.884 3.203 3.167 5.493 10.997 8.485 20.126 5.522 16.843 11.933 37.743 21.758 50.555 20.864 27.203 61.005 45.562 103.432 53.364 42.097 7.741 86.245 5.128 115.225-8.223 33.7-15.524 54.525-40.005 70.402-68.378 15.172-27.112 25.73-57.84 39.367-87.192 12.304-26.477 27.65-51.385 43.73-75.698 13.724-20.75 30.448-39.832 37.54-64.177 4.367-14.997 4.068-29.384 2.759-43.77-1.187-13.04-3.243-26.067-2.566-39.625.981-19.61 13.74-39.612 20.216-58.89 4.654-13.856 6.354-27.37 1.31-40.18-3.379-8.585-9.794-16.978-20.874-24.844-7.004-4.972-14.836-8.372-22.938-11.109-14.68-4.96-26.355.11-35.666 9.417-7.761 7.755-13.72 18.722-18.344 27.705-8.735 16.966-16.986 35.364-27.791 51.45-10.102 15.035-22.458 28.041-40.06 35.312-38.515 15.91-83.862 11.448-124.578 12.896-65.02 2.314-150.804 13.788-193.444 37.678zm7.821 13.959c41.017-22.98 123.649-33.42 186.193-35.647 42.549-1.514 89.87 2.528 130.117-14.098 20.655-8.532 35.38-23.536 47.232-41.179 11.149-16.594 19.724-35.543 28.737-53.048 3.937-7.648 8.821-17.109 15.428-23.711 5.055-5.052 11.266-8.268 19.235-5.575 6.624 2.237 13.07 4.931 18.796 8.997 7.967 5.655 12.82 11.485 15.25 17.658 3.67 9.326 1.798 19.137-1.59 29.223-6.927 20.62-19.98 42.213-21.028 63.187-.717 14.325 1.357 28.097 2.611 41.876 1.132 12.433 1.588 24.881-2.187 37.842-6.636 22.783-22.68 40.409-35.523 59.826-16.52 24.978-32.255 50.582-44.895 77.784-13.466 28.982-23.838 59.349-38.82 86.12-14.276 25.511-32.83 47.7-63.133 61.659-26.56 12.236-67.056 14.114-105.637 7.02-38.25-7.036-74.82-22.841-93.63-47.366-8.87-11.565-14.266-30.597-19.25-45.802-4.012-12.242-8.142-22.27-12.439-26.518-11.37-11.246-24.418-14.808-37.719-17.442-15.702-3.11-31.95-4.498-43.739-24.542-10.264-17.453-4.838-39.052-1.217-57.78 7.295-37.726 24.087-79.928 57.208-98.484z"/></svg>