<svg viewBox="0 0 600 600" xmlns="http://www.w3.org/2000/svg" fill-rule="evenodd" clip-rule="evenodd" stroke-linecap="round" stroke-linejoin="round" stroke-miterlimit="1.5"><circle cx="326.584" cy="336.883" r="72.303" fill="none" stroke="#000" stroke-width="5.26" transform="matrix(.94996 0 0 .94996 -10.24 -20.024)"/><path d="M305.861 186.724c-6.488 6.07-15.598 8.716-25.233 9.776-16.314 1.796-34.2-1.126-46.419-3.452-33.723-6.421-82.931-16.33-122.67-7.915-28.483 6.03-52.3 21.115-63.81 51.99-12.753 34.209-6.288 59.329 6.764 82.375 11.943 21.086 29.913 40.263 42.283 63.98 8.12 15.57 5.104 29.318 3.43 42.743-2.113 16.922-2.718 33.405 12.162 51.593 11.18 13.665 34.012 19.733 50.119 24.48 47.183 13.907 97.665 19.87 146.456 23.722 19.61 1.549 39.945 2.356 59.657 1.09 26.539-1.707 56.913-4.87 78.367-22.397 13.476-11.009 22.775-27.143 29.438-45.165 9.347-25.283 13.538-54.304 18.347-76.206 13.183-60.034 31.001-118.14 46.426-177.553 7.45-28.694 20.816-60.6 17.34-90.972-8.15-71.223-68.206-120.75-140.922-96.765-39.654 13.08-60.771 49.195-75.599 86.375-8.348 20.936-14.74 42.078-21.888 58.786-4.269 9.98-8.668 18.297-14.248 23.515zm10.93 11.686c6.913-6.466 12.739-16.542 18.029-28.91 7.192-16.812 13.639-38.083 22.04-59.15 13.088-32.823 30.74-65.56 65.748-77.107 62.164-20.504 113.046 22.5 120.015 83.39 3.258 28.466-9.95 58.238-16.932 85.131-15.475 59.61-33.34 117.91-46.566 178.142-4.674 21.287-8.643 49.518-17.727 74.09-5.625 15.215-13.177 29.029-24.554 38.323-18.895 15.436-45.898 17.317-69.27 18.82-18.958 1.218-38.512.415-57.372-1.073-47.7-3.767-97.064-9.524-143.191-23.12-7.169-2.111-15.904-4.365-24.086-7.628-7.106-2.835-13.85-6.353-18.174-11.636-11.347-13.87-10.279-26.576-8.669-39.48 2.046-16.398 4.798-33.105-5.12-52.123-10.075-19.316-23.746-35.71-35.053-52.476-15.35-22.76-26.088-46.284-13.187-80.892 11.82-31.707 39.97-42.369 71.029-44.463 33.569-2.265 70.639 5.41 97.465 10.517 13.465 2.564 33.186 5.62 51.163 3.639 13.227-1.456 25.503-5.662 34.412-13.994z"/></svg>