<svg viewBox="0 0 9 9" xmlns="http://www.w3.org/2000/svg" fill-rule="evenodd" clip-rule="evenodd" stroke-linecap="round" stroke-linejoin="round" stroke-miterlimit="1.5"><circle cx="326.584" cy="336.883" r="72.303" fill="none" stroke="#000" stroke-width="5.26" transform="matrix(.0132 0 0 .0132 -.142 -.278)"/><path d="M2.77.494c-.325.01-.698.19-.904.367-.788.676-.878 1.918-.675 2.87.039.18.094.36.184.522.22.401.531.575.861.713.298.123.613.214.876.451.136.124.215.285.28.454.074.188.132.385.22.562.4.803 1.195 1.615 2.168 1.572.317-.013.56-.174.746-.4.174-.21.297-.48.385-.726.252-.7.281-1.493.306-2.227.02-.57.057-1.14-.1-1.696a1.56 1.56 0 00-.171-.425c-.261-.406-.655-.467-1.094-.478-.383-.01-.8.02-1.167-.2-.32-.19-.476-.523-.712-.793C3.643.682 3.177.48 2.77.494zm.008.222c.348-.012.745.166 1.027.49.252.287.426.635.766.839.4.24.856.22 1.275.23.363.01.697.04.913.376.07.11.11.24.145.365.15.534.11 1.082.091 1.629-.024.711-.049 1.48-.293 2.159-.08.223-.19.469-.348.66-.146.178-.334.309-.584.32-.885.038-1.595-.72-1.96-1.45-.085-.17-.14-.362-.21-.544-.079-.201-.176-.39-.34-.538-.282-.255-.618-.358-.938-.492-.287-.119-.561-.266-.753-.614a1.673 1.673 0 01-.16-.462c-.188-.879-.126-2.03.602-2.655.175-.15.49-.304.767-.313z"/></svg>