<svg viewBox="0 0 9 9" xmlns="http://www.w3.org/2000/svg" fill-rule="evenodd" clip-rule="evenodd" stroke-linecap="round" stroke-linejoin="round" stroke-miterlimit="1.5"><circle cx="326.584" cy="336.883" r="72.303" fill="none" stroke="#000" stroke-width="5.26" transform="matrix(.0132 0 0 .0132 -.142 -.278)"/><path d="M3.263 2.124c-.181.067-.382.05-.582.03-.228-.023-.456-.053-.66-.011-.354.072-.634.323-.833.653A2.669 2.669 0 00.842 4.37c.023.183.077.362.124.543.042.165.077.33.066.5-.01.142-.081.315-.159.497-.086.202-.18.414-.227.614-.072.306-.039.584.235.779.158.112.351.155.55.148.28-.01.573-.116.784-.24.285-.167.503-.368.724-.532.302-.224.612-.37 1.148-.214.165.049.339.16.52.292.291.214.598.485.903.68.373.24.747.362 1.094.195.42-.203.586-.674.595-1.113.016-.678-.168-1.3-.046-1.982.144-.807.602-1.651.657-2.435.031-.438-.184-1.068-.554-1.324C7.014.611 6.686.54 6.397.52c-.678-.044-1.295.295-1.834.686-.509.37-.945.785-1.3.918zm.077.208c.37-.138.825-.563 1.353-.946.498-.36 1.063-.685 1.69-.644.25.016.536.073.747.219.313.216.485.754.458 1.126-.054.776-.511 1.611-.654 2.411-.123.693.059 1.327.043 2.016-.008.359-.126.752-.47.918-.28.135-.576.01-.877-.182-.302-.193-.604-.46-.891-.672-.205-.15-.403-.271-.589-.326-.627-.184-.99-.014-1.343.248-.215.16-.427.357-.704.52a1.522 1.522 0 01-.68.209.663.663 0 01-.413-.107c-.246-.175-.191-.45-.092-.733.121-.342.318-.699.336-.962.025-.37-.146-.722-.19-1.084-.053-.42.054-1 .315-1.433.165-.274.393-.49.687-.55.183-.037.387-.006.593.015.234.024.47.036.681-.043z"/></svg>