<svg viewBox="0 0 2500 2500" xmlns="http://www.w3.org/2000/svg" fill-rule="evenodd" clip-rule="evenodd" stroke-linecap="round" stroke-linejoin="round" stroke-miterlimit="1.5"><circle cx="326.584" cy="336.883" r="72.303" fill="none" stroke="#000" stroke-width="5.26" transform="matrix(3.95816 0 0 3.95816 -42.669 -83.435)"/><path d="M764.213 151.231c-73.973 40.404-125.03 117.958-152.889 208.886-40.197 131.195-31.982 289.462 16.39 392.154 24.047 51.053 60.49 99.054 91.32 149.036 26.988 43.746 49.813 88.999 50.609 140.993 1.503 98.23-53.408 158.464-109.358 214.278-67.377 67.213-135.68 129.688-147.57 222.287-8.108 63.14 18.753 112.097 53.525 158.548 27.17 36.294 60.027 70.518 72.493 114.067 19.235 67.209 19.497 120.233 25.124 175.48 6.165 60.59 17.943 123.645 61.361 207.266 66.39 127.872 196.255 221.103 342.347 265.083 145.656 43.853 306.881 38.596 435.54-27.418 263.678-135.287 427.315-391.846 581.401-630.99 78.242-121.435 163.946-269.072 161.025-418.468-2.027-103.548-49.841-177.745-109.751-245.403-53.333-60.233-116.839-114.746-157.771-185.413-35.128-60.66-54.134-129.118-74.867-196.939-22.488-73.575-46.924-146.41-91.124-209.99C1681.2 296.513 1418.51 166.01 1177.75 120.537c-163.805-30.943-317.204-21.922-413.538 30.694zm31.954 58.51c85.951-46.942 223.064-51.3 369.212-23.695 224.164 42.341 470.1 161.492 591.901 336.696 40.217 57.855 61.643 124.478 82.109 191.429 22.226 72.704 43.273 145.829 80.933 210.855 43.156 74.516 109.311 132.69 165.547 196.2 49.663 56.085 91.325 116.674 93.006 202.509 2.673 136.5-78.925 270.106-150.412 381.055-147.908 229.557-302.687 477.924-555.796 607.79-113.96 58.468-256.862 61.74-385.886 22.896-128.588-38.719-243.957-119.413-302.397-231.968-46.372-89.309-51.882-152.35-57.2-216.773-3.918-47.458-7.761-95.61-24.36-153.6-14.676-51.288-51.218-92.936-83.214-135.676-24.398-32.59-46.46-65.799-40.773-110.102 9.99-77.778 71.94-127.128 128.532-183.578 68.018-67.85 130.76-143.086 128.934-262.5-.983-64.258-27.174-120.906-60.528-174.974-29.51-47.842-64.731-93.577-87.749-142.44-42.454-90.127-48.24-229.08-12.962-344.218 22.456-73.294 61.478-137.338 121.103-169.905z"/></svg>