<svg width="612" height="792" viewBox="0 0 40 40" xmlns="http://www.w3.org/2000/svg"><path class="Stem" fill="none" stroke="#000" stroke-width=".65" stroke-linecap="round" stroke-linejoin="bevel" d="M16.848 14.348v14.841"/><path class="Note" d="M22.832 12.256a.745.745 0 00-.254-.567.804.804 0 00-.586-.253c-.39 0-1.178.39-2.363 1.17-1.224.795-1.973 1.361-2.246 1.7a.91.91 0 00-.215.566c0 .221.085.411.254.567a.763.763 0 00.586.253c.377 0 1.172-.39 2.383-1.171 1.198-.781 1.94-1.347 2.226-1.7a.853.853 0 00.215-.565m-1.035-1.445c1.12 0 1.68.48 1.68 1.445 0 .469-.137 1.015-.411 1.64-.273.612-.638 1.081-1.093 1.406-1.003.677-2.259 1.015-3.77 1.015-1.12 0-1.68-.48-1.68-1.445 0-.43.137-.97.411-1.621.26-.625.625-1.1 1.093-1.425 1.003-.678 2.26-1.015 3.77-1.015"/></svg>