<svg width="612" height="792" viewBox="0 0 140 50" xmlns="http://www.w3.org/2000/svg"><path class="StaffLines" fill="none" stroke="#000" stroke-width=".4" stroke-linejoin="bevel" d="M4.945 17.143h130.11"/><path class="BarLine" d="M125.821 15.444a1.095 1.095 0 01-.332-.801c0-.313.111-.58.332-.801.222-.221.489-.332.801-.332.313 0 .58.111.801.332.221.221.332.488.332.801 0 .312-.111.579-.332.801a1.092 1.092 0 01-.801.332c-.312 0-.579-.111-.801-.332M125.821 20.444a1.093 1.093 0 01-.332-.801c0-.312.111-.579.332-.801.222-.221.489-.332.801-.332.313 0 .58.111.801.332.221.222.332.489.332.801 0 .313-.111.579-.332.801a1.092 1.092 0 01-.801.332c-.312 0-.579-.111-.801-.332"/><path class="BarLine" fill="none" stroke="#000" stroke-width=".8" stroke-linejoin="bevel" d="M130.155 7.142v20.001"/><path class="BarLine" fill="none" stroke="#000" stroke-width="2.5" stroke-linejoin="bevel" d="M133.806 7.142v20.001"/><path class="Stem" fill="none" stroke="#000" stroke-width=".65" stroke-linecap="round" stroke-linejoin="bevel" d="M114.231 18.082v14.062M103.369 18.082v14.062M92.507 18.082v14.062M64.618 17.927v12.342M43.607 18.082v12.187"/><path class="Note" d="M118.3 14.389c.625 0 1.153.163 1.582.488.404.352.606.794.606 1.328 0 .899-.462 1.739-1.387 2.52-.937.781-1.94 1.172-3.008 1.172-.625 0-1.152-.163-1.582-.489a1.687 1.687 0 01-.605-1.328c0-.898.469-1.738 1.406-2.519.912-.782 1.908-1.172 2.988-1.172M107.438 14.389c.625 0 1.153.163 1.583.488.403.352.605.794.605 1.328 0 .899-.462 1.739-1.387 2.52-.937.781-1.94 1.172-3.008 1.172-.625 0-1.152-.163-1.582-.489a1.687 1.687 0 01-.605-1.328c0-.898.469-1.738 1.406-2.519.912-.782 1.908-1.172 2.988-1.172M96.577 14.389c.625 0 1.152.163 1.582.488.403.352.605.794.605 1.328 0 .899-.462 1.739-1.387 2.52-.937.781-1.94 1.172-3.007 1.172-.625 0-1.153-.163-1.582-.489a1.685 1.685 0 01-.606-1.328c0-.898.469-1.738 1.406-2.519.912-.782 1.908-1.172 2.989-1.172M70.601 15.834a.74.74 0 00-.254-.566.8.8 0 00-.586-.254c-.39 0-1.178.39-2.363 1.172-1.224.794-1.972 1.36-2.246 1.699a.908.908 0 00-.215.566c0 .222.085.41.254.567a.766.766 0 00.586.254c.378 0 1.172-.391 2.383-1.172 1.198-.781 1.94-1.348 2.226-1.699a.855.855 0 00.215-.567m-1.035-1.445c1.12 0 1.68.482 1.68 1.445 0 .469-.137 1.016-.41 1.641-.274.612-.638 1.081-1.094 1.406-1.003.677-2.259 1.016-3.77 1.016-1.119 0-1.679-.482-1.679-1.446 0-.429.136-.97.41-1.621.26-.625.625-1.1 1.094-1.426 1.002-.677 2.259-1.015 3.769-1.015M47.676 14.389c.625 0 1.153.163 1.582.488.404.352.606.794.606 1.328 0 .899-.462 1.739-1.387 2.52-.937.781-1.94 1.172-3.008 1.172-.625 0-1.152-.163-1.582-.489a1.687 1.687 0 01-.605-1.328c0-.898.469-1.738 1.406-2.519.912-.782 1.908-1.172 2.988-1.172"/><path class="Clef" d="M17.95 22.143h-1.836c-.143 0-.215-.065-.215-.196v-9.609c0-.13.072-.195.215-.195h1.836c.13 0 .195.065.195.195v9.609c0 .131-.065.196-.195.196m-4.414 0H11.68c-.13 0-.195-.065-.195-.196v-9.609c0-.13.065-.195.195-.195h1.856c.143 0 .215.065.215.195v9.609c0 .131-.072.196-.215.196"/><path class="TimeSig" d="M31.023 7.396c.391 0 .723-.045.996-.136.274-.092.449-.137.527-.137a.29.29 0 01.215.078.29.29 0 01.078.137.3.3 0 01-.039.117l-5.683 6.601h3.34v-2.617c0-.169.045-.312.136-.429.157-.131.287-.209.391-.235.169-.078.378-.26.625-.547.208-.234.456-.644.742-1.23.039-.078.098-.117.176-.117.156 0 .247.091.273.273v4.902h1.426c.182 0 .287.098.313.293 0 .196-.105.293-.313.293H32.8v.157c0 .521.131.963.391 1.328.299.364.651.547 1.055.547.156 0 .234.078.234.234 0 .156-.078.234-.234.234-.274 0-.716-.039-1.328-.117-.56-.091-.997-.136-1.309-.136-.326 0-.762.045-1.309.136-.586.078-1.022.117-1.308.117-.156 0-.235-.078-.235-.234 0-.156.079-.234.235-.234.403 0 .755-.183 1.054-.547.274-.365.411-.807.411-1.328v-.157h-3.34c-.222 0-.378-.052-.469-.156a.37.37 0 01-.156-.312c0-.039.097-.176.293-.41a9.88 9.88 0 00.703-.958c.286-.442.56-.898.82-1.367a7.772 7.772 0 00.684-1.836 8 8 0 00.293-2.148c0-.208.091-.313.273-.313.039 0 .124.02.254.059.039.013.121.033.244.059.124.026.225.052.303.078.234.039.456.058.664.058"/><path class="TimeSig" d="M31.023 17.397c.391 0 .723-.046.996-.137.274-.091.449-.136.527-.136a.29.29 0 01.215.078.288.288 0 01.078.136.308.308 0 01-.039.118l-5.683 6.601h3.34V21.44a.68.68 0 01.136-.43c.157-.13.287-.208.391-.234.169-.078.378-.261.625-.547.208-.234.456-.645.742-1.23.039-.079.098-.118.176-.118.156 0 .247.091.273.274v4.902h1.426c.182 0 .287.098.313.293 0 .195-.105.293-.313.293H32.8v.156c0 .521.131.964.391 1.328.299.365.651.547 1.055.547.156 0 .234.078.234.235 0 .156-.078.234-.234.234-.274 0-.716-.039-1.328-.117-.56-.091-.997-.137-1.309-.137-.326 0-.762.046-1.309.137-.586.078-1.022.117-1.308.117-.156 0-.235-.078-.235-.234 0-.157.079-.235.235-.235.403 0 .755-.182 1.054-.547.274-.364.411-.807.411-1.328v-.156h-3.34c-.222 0-.378-.052-.469-.156a.371.371 0 01-.156-.313c0-.039.097-.175.293-.41.221-.26.455-.579.703-.957.286-.443.56-.898.82-1.367a7.772 7.772 0 00.684-1.836 8 8 0 00.293-2.148c0-.209.091-.313.273-.313.039 0 .124.02.254.059.039.013.121.032.244.058.124.026.225.052.303.078.234.039.456.059.664.059"/><path class="Beam" fill-rule="evenodd" d="M92.182 30.894h22.374v2.5H92.182v-2.5"/><path class="Tuplet" d="M101.944 39.037c1.593-.26 2.39-.814 2.39-1.66 0-.274-.082-.494-.245-.66-.163-.167-.378-.25-.645-.25-.407 0-.78.223-1.12.67l-.16-.05a1.99 1.99 0 01.685-.775c.29-.19.608-.285.955-.285.4 0 .733.122 1 .365.267.244.4.552.4.925 0 .34-.108.613-.325.82-.217.206-.628.426-1.235.66v.03c.64.293.96.79.96 1.49 0 .693-.257 1.293-.77 1.8-.513.506-1.187.76-2.02.76-.747 0-1.12-.197-1.12-.59 0-.26.147-.39.44-.39.167 0 .39.1.67.3.28.2.51.3.69.3.36 0 .668-.152.925-.455.257-.304.385-.699.385-1.185 0-.627-.157-1.06-.47-1.3-.313-.24-.777-.36-1.39-.36v-.16"/></svg>