<svg width="612" height="792" viewBox="0 0 140 50" xmlns="http://www.w3.org/2000/svg"><path class="StaffLines" fill="none" stroke="#000" stroke-width=".4" stroke-linejoin="bevel" d="M4.945 21.884h130.11"/><path class="BarLine" d="M125.821 20.185a1.092 1.092 0 01-.332-.801c0-.312.111-.579.332-.8.222-.222.489-.332.801-.332.313 0 .58.11.801.332.221.221.332.488.332.8 0 .313-.111.58-.332.801a1.088 1.088 0 01-.801.332c-.312 0-.579-.11-.801-.332M125.821 25.185a1.091 1.091 0 01-.332-.8c0-.313.111-.58.332-.801.222-.221.489-.332.801-.332.313 0 .58.111.801.332.221.221.332.488.332.801 0 .312-.111.579-.332.8a1.089 1.089 0 01-.801.333c-.312 0-.579-.111-.801-.333"/><path class="BarLine" fill="none" stroke="#000" stroke-width=".8" stroke-linejoin="bevel" d="M130.155 11.884v20.001"/><path class="BarLine" fill="none" stroke="#000" stroke-width="2.5" stroke-linejoin="bevel" d="M133.806 11.884v20.001"/><path class="Stem" fill="none" stroke="#000" stroke-width=".65" stroke-linecap="round" stroke-linejoin="bevel" d="M94.452 22.668V35.01M71.954 22.824V35.01M57.781 22.824v14.061M43.607 22.824v14.061"/><path class="Note" d="M100.435 20.576a.744.744 0 00-.253-.567.808.808 0 00-.586-.254c-.391 0-1.179.391-2.364 1.172-1.224.795-1.972 1.361-2.246 1.7a.908.908 0 00-.215.566c0 .221.085.41.254.566.157.17.352.254.586.254.378 0 1.172-.39 2.383-1.172 1.198-.781 1.94-1.347 2.227-1.699a.855.855 0 00.214-.566M99.4 19.13c1.12 0 1.68.482 1.68 1.446 0 .469-.137 1.015-.41 1.64-.274.612-.638 1.081-1.094 1.407-1.002.677-2.259 1.015-3.769 1.015-1.12 0-1.68-.481-1.68-1.445 0-.43.137-.97.41-1.621.26-.625.625-1.1 1.094-1.426 1.002-.677 2.259-1.016 3.769-1.016M76.024 19.13c.625 0 1.152.163 1.582.489.404.351.606.794.606 1.328 0 .898-.463 1.738-1.387 2.519-.938.782-1.94 1.172-3.008 1.172-.625 0-1.153-.162-1.582-.488a1.686 1.686 0 01-.606-1.328c0-.899.469-1.738 1.407-2.52.911-.781 1.907-1.172 2.988-1.172M61.85 19.13c.625 0 1.153.163 1.582.489.404.351.606.794.606 1.328 0 .898-.463 1.738-1.387 2.519-.938.782-1.94 1.172-3.008 1.172-.625 0-1.152-.162-1.582-.488a1.685 1.685 0 01-.605-1.328c0-.899.468-1.738 1.406-2.52.911-.781 1.907-1.172 2.988-1.172M47.677 19.13c.625 0 1.152.163 1.582.489.403.351.605.794.605 1.328 0 .898-.462 1.738-1.387 2.519-.937.782-1.94 1.172-3.008 1.172-.625 0-1.152-.162-1.582-.488a1.688 1.688 0 01-.605-1.328c0-.899.469-1.738 1.406-2.52.912-.781 1.908-1.172 2.989-1.172"/><path class="Clef" d="M17.95 26.884h-1.836c-.143 0-.215-.065-.215-.195V17.08c0-.131.072-.196.215-.196h1.836c.13 0 .195.065.195.196v9.609c0 .13-.065.195-.195.195m-4.414 0h-1.855c-.131 0-.196-.065-.196-.195V17.08c0-.131.065-.196.196-.196h1.855c.143 0 .215.065.215.196v9.609c0 .13-.072.195-.215.195"/><path class="TimeSig" d="M31.023 12.138c.391 0 .723-.046.996-.137.274-.091.449-.136.528-.136.091 0 .162.026.214.078a.29.29 0 01.079.136.297.297 0 01-.04.118l-5.683 6.601h3.34v-2.617a.68.68 0 01.136-.43c.157-.13.287-.208.391-.234.169-.078.378-.261.625-.547.208-.234.456-.645.742-1.23.039-.079.098-.118.176-.118.156 0 .247.091.273.274v4.902h1.426c.183 0 .287.098.313.293 0 .195-.104.293-.313.293H32.8v.156c0 .521.131.964.391 1.328.3.365.651.547 1.055.547.156 0 .234.078.234.235 0 .156-.078.234-.234.234-.274 0-.716-.039-1.328-.117-.56-.091-.996-.137-1.309-.137-.325 0-.762.046-1.309.137-.585.078-1.022.117-1.308.117-.156 0-.235-.078-.235-.234 0-.157.079-.235.235-.235.404 0 .755-.182 1.055-.547.273-.364.41-.807.41-1.328v-.156h-3.34c-.221 0-.378-.052-.469-.156a.371.371 0 01-.156-.313c0-.039.098-.175.293-.41.221-.26.456-.579.703-.957.286-.443.56-.898.82-1.367a7.772 7.772 0 00.684-1.836 8 8 0 00.293-2.148c0-.209.091-.313.273-.313.039 0 .124.02.254.059.039.013.121.032.244.058.124.026.225.052.303.078.234.039.456.059.664.059"/><path class="TimeSig" d="M31.023 22.139c.391 0 .723-.046.996-.137.274-.091.449-.137.528-.137.091 0 .162.026.214.078a.293.293 0 01.079.137.289.289 0 01-.04.117l-5.683 6.602h3.34v-2.617c0-.17.045-.313.136-.43.157-.13.287-.208.391-.234.169-.079.378-.261.625-.547.208-.235.456-.645.742-1.231.039-.078.098-.117.176-.117.156 0 .247.091.273.273v4.903h1.426c.183 0 .287.097.313.293 0 .195-.104.293-.313.293H32.8v.156c0 .521.131.963.391 1.328.3.365.651.547 1.055.547.156 0 .234.078.234.234 0 .157-.078.235-.234.235-.274 0-.716-.039-1.328-.117-.56-.092-.996-.137-1.309-.137-.325 0-.762.045-1.309.137-.585.078-1.022.117-1.308.117-.156 0-.235-.078-.235-.235 0-.156.079-.234.235-.234.404 0 .755-.182 1.055-.547.273-.365.41-.807.41-1.328v-.156h-3.34c-.221 0-.378-.052-.469-.157a.37.37 0 01-.156-.312c0-.039.098-.176.293-.41.221-.261.456-.58.703-.957a24.1 24.1 0 00.82-1.367 7.772 7.772 0 00.684-1.836c.195-.703.293-1.42.293-2.149 0-.208.091-.312.273-.312.039 0 .124.019.254.058.039.013.121.033.244.059.124.026.225.052.303.078.234.039.456.059.664.059"/><path class="Beam" fill-rule="evenodd" d="M43.282 35.635h14.824v2.5H43.282v-2.5"/></svg>