<?xml version="1.0" encoding="utf-8"?>
<svg width="612px" height="792px" viewBox="0 0 40 40" xmlns="http://www.w3.org/2000/svg">
  <title>Rhythm Reference</title>
  <desc>Generated by MuseScore 2.0.3</desc>
  <polyline class="Stem" fill="none" stroke="#000000" stroke-width="0.65" stroke-linecap="round" stroke-linejoin="bevel" points="15.026 14.943 15.026 29.629"/>
  <path class="Note" d="M 19.096 11.25 C 19.721 11.25 20.248 11.412 20.678 11.738 C 21.081 12.089 21.283 12.532 21.283 13.066 C 21.283 13.964 20.821 14.804 19.896 15.586 C 18.959 16.367 17.956 16.757 16.889 16.757 C 16.264 16.757 15.736 16.595 15.307 16.269 C 14.903 15.918 14.701 15.475 14.701 14.941 C 14.701 14.043 15.17 13.203 16.106 12.421 C 17.019 11.64 18.015 11.25 19.096 11.25"/>
  <path class="NoteDot" d="M 23.366 12.304 C 23.145 12.083 23.034 11.816 23.034 11.504 C 23.034 11.191 23.145 10.924 23.366 10.703 C 23.587 10.481 23.854 10.371 24.167 10.371 C 24.479 10.371 24.745 10.481 24.966 10.703 C 25.188 10.924 25.299 11.191 25.299 11.504 C 25.299 11.816 25.188 12.083 24.966 12.304 C 24.745 12.526 24.479 12.636 24.167 12.636 C 23.854 12.636 23.587 12.526 23.366 12.304"/>
</svg>