<svg xmlns="http://www.w3.org/2000/svg" viewBox="0 0 348 348" fill="none"><path style="fill:#000;stroke-width:.734581" d="M113.955 318.687C84.76 314.704 57.368 300.226 38 277.869c-8.587-9.105-15.322-19.661-20.642-30.633-5.921-12.22-9.914-25.838-11.503-39.442C4.681 187.304 4.1 166 11.518 146.656c3.388-10.519 8.563-20.12 14.665-29.534C40.958 96.21 61.095 78.534 84.78 68.758c28.307-11.726 61.01-12.916 90.132-2.953 16.554 4.725 32.44 13.178 47.227 22.375 22.654-21.325 44.45-43.642 67.61-64.378 13.622 1.737 22.857 16.647 34.051 25.236 5.407 4.025 16.981 12.647 20.624 18.226 3.642 5.578-7.853 13.861-7.853 13.861-22.555 25.611-47.714 52.575-71.362 77.86 1.492 27.884 2.28 56.936-9.48 82.842-15.585 37.992-51.087 66.807-91.418 74.623-16.48 3.813-33.593 3.186-50.356 2.237zm23.277-53.521c62.065-64.018 124.793-127.405 186.79-191.483-5.708-10.35-21.504-21.665-30.958-30.812 0 0-120.631 115.622-164.735 158.02-13.87-6.719-24.1-22.79-36.835-32.802-8.827-8.16-16.417-19.412-28.235-7.32C39.1 182.332 37.061 180 40.65 190.433c27.365 28.099 55.612 55.368 83.959 82.473 4.606 5.185 8.883-6.08 12.624-7.74z"/></svg>