<svg xmlns="http://www.w3.org/2000/svg" viewBox="0 0 348 348" fill="none"><path style="fill:#000;stroke-width:.737943" d="M157.925 345.52c-17.79-1.444-35.428-4.886-51.895-11.484-18.721-7.567-35.952-18.16-50.29-32.704-28.123-26.08-46.082-62.764-49.186-100.89-4.142-22.447-.641-45.402 3.11-67.618 5.026-15.653 10.309-31.55 19.195-45.715 21.066-33.934 52.44-62.233 90.586-75.185C162.746-2.243 212.731.1 252.142 23.984c31.609 18.824 57.48 47.251 73.9 80.13 12.24 24.469 18.9 52.229 17.526 79.937 1.804 47.447-23.002 93.159-59.742 122.373-20.046 16.26-43.399 28.74-68.554 34.23-18.452 5.167-38.25 5.835-57.347 4.866zm31.212-19.986c25.945-4.464 51.997-13.475 73.014-29.864 16.823-7.811-.932-13.975-8.804-19.673-25.776-17.029-50.337-36.471-79.181-48.23-11.575.17-21.477 8.99-31.24 13.673-23.285 14.827-46.534 30.09-69.366 46.122 19.53 14.031 41.79 23.539 64.225 31.76 16.603 5.26 33.798 8.946 51.352 6.212zM70.582 276.12c10.642-24.391 20.895-48.907 28.21-74.47 5.719-12.095 10.012-26.812-7.58-30.78-19.765-11.133-39.506-22.849-59.615-33.031-3.91 15.514-7.335 31.848-6.82 48.173.967 18.29 8.295 35.282 15.599 51.733 7.271 15.03 15.775 29.927 25.86 42.91 2.172-.464 3.975-2.338 4.346-4.535zm207.65 3.344c16.474-19.833 27.796-43.486 35.897-67.51 6.642-21.806 6.24-45.357.238-67.3 1.861-24.537-17.615 3.791-27.208 6.741-15.52 11.176-31.888 21.215-47.346 32.513-.72 13.154 8.824 25.673 12.33 38.584 8.507 19.32 16.236 39.232 23.947 58.66zm-145.77-155.188c7.184-19.872 13.262-40.324 22.576-59.014 5.37-6.975 16.61-71.068 24.213-26.657 12.344 25.667 25.73 56.826 35.649 83.598 9.526 9.485 30.4 1.552 44.124 4.154 15.717-1.091 34.694 2.156 48.44-1.712-9.051-34.193-38.09-58.518-67.235-75.875-18.574-10.773-38.964-18.93-60.718-19.935-16.18-1.65-32.562 1.695-47.538 7.437-33.802 14.59-65.925 36.713-86.434 67.653-1.722 5.853-17.619 24.173-3.833 22.46 30.173.38 60.348-.24 90.52-.449l.136-.954z"/></svg>