<svg xmlns="http://www.w3.org/2000/svg" viewBox="0 0 348 348" fill="none"><path style="fill:#000;stroke-width:.776211" d="M113.31 317.88c-9.727-7.702-21.197-25.989-30.254-26.507-4.664 9.496 3.172 42.065-12.128 23.007-12.706-13.069-26.831-25.084-38.37-39.11-1.783-27.397.573-55.11-1.245-82.564-7.663-6.088-29.86 31.394-26.444 5.548.038-15.592-1.152-31.536-.097-46.967 10.976-27.347 38.142-42.296 55.49-64.834 1.257-12.82-43.97 2.285-21.99-16.381C50.304 56.82 62.61 43.815 74.789 30.697c27.082-.291 54.343.835 81.28-.7-2.644-9.832-31.655-29.507-6.34-26.615 17.722.586 36.504-4.694 53.399 2.23 24.304 12.356 38.925 36.855 58.702 54.565 8.533-7.114-3.38-44.005 11.644-26.645 13.049 13.234 27.086 25.382 40.568 38.116 2.222 27.968.337 56.342 2.948 84.177 10.677.492 27.46-33.06 26.138-5.688 3.124 36.861-13.536 73.65-41.11 97.837-6.203 6.925-27.607 19.006-5.605 18.124 9.345.398 29.543-1.368 13.825 10.378-13.208 13.3-25.103 28.812-41.041 38.818-26.123 3.314-52.732 1.302-78.858 3.385-1.347 9.932 23.584 22.148 18.174 27.62-22.319.48-44.645.24-66.968.299l-28.234-28.717zm77.525 21.243c-3.187-11.85-23.1-24.266-32.423-36.036-24.01-23.239-47.378-47.2-71.956-69.816-3.386 12.079-1.178 25.782-1.764 38.609-1.733 11.793 12.599 17.485 18.307 25.969 20.713 22.182 47.678 43.033 79.675 41.732 2.717-.032 5.482.107 8.161-.458zm77.274-31.277c10.738-9.845 23.54-20.727 30.249-32.758a4680.75 4680.75 0 0 0-147.512-.34c5.703 13.207 18.525 23.012 29.33 32.45 25.593 2.697 51.649.882 77.424 1.105 3.5-.131 7.027-.035 10.509-.457zM73.045 228.614c-.413-24.713.859-49.557-.931-74.188-11.221 6.654-20.384 18.261-30.388 27.427-4.286 4.326-1.055 11.798-2.06 17.498l-.007 73.895c10.748 9.809 20.754 21.85 32.455 29.556 1.79-24.61.518-49.495.931-74.188zm164.862 12.031c11.209-13.412 31.545-23.675 26.848-44.059.115-21.215.025-42.43.015-63.645-18.349-17.755-35.757-36.79-56.452-51.83l-66.95-.008c-22.393 15.34-40.185 36.187-59.827 54.752.42 26.115-1.177 52.437 1.159 78.381 16.833 17.197 33.074 35.252 51.108 51.107 26.478.527 52.965.125 79.448.14 8.217-8.279 16.437-16.564 24.652-24.838zm37.172 21.02c25.186-22.28 49.322-49.067 58.524-82.16.633-7.996 3.653-32.444-8.148-16.308-32.4 32.34-64.512 64.987-96.242 97.984 14.39 2.505 30.972 1.925 45.866.484zm11.021-76.13c13.05-10.634 25.15-22.785 20.537-41.116-.022-22.606.408-45.249-.668-67.828-9.68-8.259-22.718-28.417-32.335-27.106-.437 48.353-.617 96.724.12 145.072 4.492.528 8.648-6.525 12.346-9.023zM38.677 165.546c26.03-26.307 52.406-52.295 77.825-79.193-15.249-2.11-37.413-7.026-49.57 5.166-18.436 18.56-36.798 37.192-55.207 55.777.43 14.108-1.417 28.74 1.179 42.414 9.278-6.532 17.252-16.252 25.773-24.164zm222.23-50.698c-.803-18.222 7.415-41.516-9.766-54.242-16.351-16.889-33.015-33.47-49.559-50.17-16.051.267-32.129-.022-48.157.924 33.49 35.003 68.555 68.56 103.035 102.615 1.282-.194 3.657 6.027 4.447.873zm-67.743-42.742c-2.155-11.355-21.543-23.77-32.827-31.946-22.52-3.44-45.635-1.102-68.4-1.593-20.94-5.14-26.405 19.494-40.179 29.63.904 8.42 25.107 2.43 34.783 4.375 35.54-.067 71.09.257 106.623-.466Z"/></svg>