<svg xmlns="http://www.w3.org/2000/svg" width="1166.362" height="1166.362" viewBox="0 0 308.6 308.6"><g transform="translate(4.3 4.3)"><path fill="none" stroke="#000" stroke-width="4.6" stroke-miterlimit="10" d="M-2-2h304v304H-2z"/><path d="M0 60h60v60H0zM0 180h60v60H0zM60 0h60v60H60zM60 120h60v60H60zM60 240h60v60H60zM120 60h60v60h-60zM120 180h60v60h-60zM180 0h60v60h-60zM180 120h60v60h-60zM180 240h60v60h-60zM240 60h60v60h-60zM240 180h60v60h-60z"/><text style="line-height:1.25" x="120.207" y="174.276" font-weight="400" font-size="66.467" font-family="sans-serif" stroke-width="1.662"><tspan x="120.207" y="174.276">♗</tspan></text><circle cx="210" cy="90" r="10" fill="#a8a77b"/><circle cx="90" cy="90" r="10" fill="#a8a77b"/><circle cx="90" cy="210" r="10" fill="#a8a77b"/><circle cx="210" cy="210" r="10" fill="#a8a77b"/><circle cx="270" cy="30" r="10" fill="#a8a77b"/><circle cx="270" cy="270" r="10" fill="#a8a77b"/><circle cx="30" cy="270" r="10" fill="#a8a77b"/><circle cx="30" cy="30" r="10" fill="#a8a77b"/></g></svg>