<svg xmlns="http://www.w3.org/2000/svg" width="1166.362" height="1166.362" viewBox="0 0 308.6 308.6"><g transform="translate(4.3 4.3)"><path fill="none" stroke="#000" stroke-width="4.6" stroke-miterlimit="10" d="M-2-2h304v304H-2z"/><path d="M0 60h60v60H0zM0 180h60v60H0zM60 0h60v60H60zM60 120h60v60H60zM60 240h60v60H60zM120 60h60v60h-60zM120 180h60v60h-60zM180 0h60v60h-60zM180 120h60v60h-60zM180 240h60v60h-60zM240 60h60v60h-60zM240 180h60v60h-60z"/><path d="M147.728 142.892q.033-.097.098-.194-1.136-1.396-2.792-2.305-2.401-1.33-4.933-1.33-2.531 0-4.933 1.33-2.369 1.299-3.732 3.733-1.363 2.401-1.363 4.998 0 2.629 1.33 4.998 1.331 2.369 3.733 3.667.714.454 1.46.714h11.132zm4.576 15.611h11.1q.779-.26 1.493-.714 2.401-1.298 3.7-3.667 1.33-2.37 1.33-4.998 0-2.597-1.363-4.998-1.33-2.434-3.732-3.733-2.37-1.33-4.933-1.33-2.5 0-4.901 1.33-1.688.91-2.791 2.305.065.097.097.194zm-14.572 3.343v9.834H162.3v-9.834zm-2.661 12.43v-12.43q-1.363-.422-2.597-1.136-2.239-1.753-3.991-4.933-1.753-3.18-1.753-6.653 0-3.505 1.785-6.686 1.785-3.213 4.998-4.933 3.213-1.72 6.588-1.72 2.597 0 5.063 1.006v-.065q0-1.168.584-2.174.585-1.039 1.623-1.623.422-.227.941-.357v-1.753h-3.505v-2.272h3.505v-2.823h3.408v2.823h3.505v2.272h-3.505v1.753q.52.13.941.357 1.006.584 1.59 1.623.617 1.006.617 2.174v.065q2.467-1.006 5.03-1.006 3.376 0 6.589 1.72 3.213 1.72 4.998 4.933 1.785 3.18 1.785 6.686 0 3.472-1.753 6.653-1.752 3.18-3.959 4.933-1.266.714-2.596 1.136v12.43zm11.91-37.29q0 .811.39 1.525.422.682 1.136 1.104.747.389 1.493.389.779 0 1.493-.39.746-.421 1.136-1.103.39-.714.39-1.525 0-.78-.39-1.493-.39-.747-1.136-1.104-.714-.39-1.493-.39-.746 0-1.493.39-.714.357-1.136 1.104-.39.714-.39 1.493z" aria-label="♔" font-weight="400" font-size="66.467" font-family="sans-serif" stroke-width="1.662"/><circle cx="150" cy="90" r="10" fill="#a8a77b"/><circle cx="210" cy="90" r="10" fill="#a8a77b"/><circle cx="90" cy="90" r="10" fill="#a8a77b"/><circle cx="90" cy="150" r="10" fill="#a8a77b"/><circle cx="150" cy="210" r="10" fill="#a8a77b"/><circle cx="90" cy="210" r="10" fill="#a8a77b"/><circle cx="210" cy="210" r="10" fill="#a8a77b"/><circle cx="210" cy="150" r="10" fill="#a8a77b"/></g></svg>