<svg xmlns="http://www.w3.org/2000/svg" width="700.6" height="317.4" viewBox="0 0 185.4 84"><g transform="translate(.3 -13.7)"><path stroke-width=".3" d="M7.9 33.5h4.5v.9l-3.6 4.1h3.6v.8H7.7v-.9l3.6-4.1H8zm10.9 2.7v.4h-4.4q.1 1 .6 1.5.6.5 1.5.5h1l1-.5v.9l-1 .3-1 .2q-1.4 0-2.2-.9-.9-.8-.9-2.1 0-1.5.8-2.3.8-.8 2-.8 1.3 0 2 .7.6.8.6 2zm-1-.3q0-.8-.4-1.3-.4-.4-1.1-.4-.8 0-1.3.4-.5.5-.5 1.3zm5.9-1.5l-.3-.1H23q-.8 0-1.3.4-.4.6-.4 1.5v3.1h-1v-5.8h1v.9q.3-.5.8-.8.5-.2 1.2-.2h.4zm3.1-.2q-.8 0-1.2.6-.5.6-.5 1.6t.4 1.6q.5.6 1.3.6.7 0 1.2-.6.4-.6.4-1.6t-.4-1.6q-.5-.6-1.2-.6zm0-.8q1.2 0 2 .8.6.8.6 2.2 0 1.4-.7 2.2-.7.9-2 .9-1.2 0-1.9-.9-.7-.8-.7-2.2 0-1.4.7-2.2.7-.8 2-.8zm-13.3 14q-.8 0-1.2.6-.4.6-.4 1.6t.4 1.6q.4.6 1.2.6.8 0 1.2-.6.5-.6.5-1.6t-.5-1.6q-.4-.6-1.2-.6zm0-.8q1.3 0 2 .8t.7 2.2q0 1.4-.7 2.2-.7.9-2 .9-1.2 0-2-.9-.6-.8-.6-2.2 0-1.4.7-2.2.7-.8 2-.8zm9.1 2.4v3.5h-1V49q0-.8-.3-1.2-.3-.4-1-.4t-1.2.5q-.4.5-.4 1.3v3.3h-1v-5.8h1v.9q.3-.5.8-.8.4-.2 1-.2 1 0 1.6.6.5.6.5 1.8zm6.8.4v.4h-4.3q0 1 .5 1.5.6.5 1.5.5h1l1.1-.5v.9l-1 .3-1.1.2q-1.4 0-2.2-.9-.8-.8-.8-2.1 0-1.5.7-2.3.8-.8 2.1-.8 1.2 0 1.9.7.6.8.6 2zm-1-.3q0-.8-.4-1.3-.4-.4-1-.4-.9 0-1.4.4-.4.5-.5 1.3zm-15.8 9.3V60h2v.7h-2V64q0 .7.2.9.2.2.8.2h1v.8h-1q-1 0-1.5-.4-.4-.4-.4-1.5v-3.2H11V60h.7v-1.6zm2.7 1.6h1l1.1 4.5 1.2-4.5h1.1l1.2 4.5 1.2-4.5h1l-1.5 5.8h-1.2L19.2 61l-1.3 4.8h-1zm11.5.7q-.8 0-1.2.6-.5.6-.5 1.6t.4 1.6q.5.6 1.3.6.7 0 1.2-.6.4-.6.4-1.6t-.4-1.6q-.5-.6-1.2-.6zm0-.8q1.2 0 2 .8.6.8.6 2.2 0 1.4-.7 2.2-.7.9-2 .9-1.2 0-1.9-.9-.7-.8-.7-2.2 0-1.4.7-2.2.7-.8 2-.8zM3.9 71.6v1.6h2v.7h-2v3.2q0 .7.2.9.2.2.8.2h1v.8h-1q-1.2 0-1.6-.4Q3 78.2 3 77v-3.2h-.7v-.7H3v-1.6zm8.1 3.9V79h-1v-3.5q0-.8-.4-1.2-.3-.4-1-.4t-1.1.5q-.5.5-.5 1.3V79H7v-8h1v3q.3-.5.8-.8l1-.2q1 0 1.6.6.5.6.5 1.8zm5.2-1.5h-.8q-.8 0-1.2.4-.5.6-.5 1.5V79h-1v-5.8h1v.9q.3-.5.8-.8.5-.2 1.2-.2h.5zm5.8 1.9v.4h-4.5q.1 1 .6 1.5.6.5 1.5.5h1l1-.5v.9l-1 .3-1 .2q-1.4 0-2.3-.9-.8-.8-.8-2.1 0-1.5.8-2.3.8-.8 2-.8 1.3 0 2 .7.6.8.6 2zm-1-.3q0-.8-.5-1.3-.4-.4-1.1-.4-.8 0-1.3.4-.5.5-.5 1.3zm7.4.3v.4h-4.3q0 1 .5 1.5.6.5 1.5.5h1l1.1-.5v.9l-1 .3-1.1.2q-1.4 0-2.2-.9-.8-.8-.8-2.1 0-1.5.7-2.3.8-.8 2.1-.8 1.2 0 1.9.7.6.8.6 2zm-1-.3q0-.8-.4-1.3-.4-.4-1-.4-.9 0-1.4.4-.4.5-.5 1.3zm-15.8 8.5v.8h-.9q-.5 0-.7.2-.2.3-.2.8v.5h1.6v.7h-1.6v5.1h-1v-5H9v-.8h1V86q0-1 .4-1.4.5-.5 1.4-.5zm3.1 2.9q-.8 0-1.2.7-.5.6-.5 1.6t.5 1.6q.4.6 1.2.6.7 0 1.2-.6.4-.6.4-1.6t-.4-1.6q-.5-.6-1.2-.6zm0-.7q1.2 0 2 .8.6.8.6 2.2 0 1.4-.7 2.2-.7.9-2 .9-1.2 0-1.9-.9-.7-.8-.7-2.2 0-1.4.7-2.2.7-.8 2-.8zm4.1 3.7v-3.6h1v3.5q0 .8.3 1.2.3.4 1 .4t1.2-.5q.4-.5.4-1.3v-3.3h1v5.8h-1v-.9q-.3.5-.8.8-.5.3-1 .3-1 0-1.6-.7-.5-.6-.5-1.8zm2.4-3.7zm7.8 1l-.4-.1h-.4q-.8 0-1.2.4-.4.6-.4 1.5v3.1h-1v-5.8h1v.9q.3-.5.7-.8.5-.2 1.2-.2h.5zM111.6 33.8v5.8h-1v-5H108v5h-1v-5h-.8v-.8h.9v-.4q0-1 .4-1.4.5-.5 1.4-.5h1v.8h-1q-.5 0-.7.2-.2.3-.2.8v.5zm-1-2.2h1v1.2h-1zm2.4 2.2h1l1.7 4.9 1.9-4.9h1l-2.2 5.8H115zm11.8 2.7v.4h-4.3q0 1 .5 1.5.6.5 1.5.5h1l1.1-.5v.9l-1 .3-1.1.2q-1.4 0-2.2-.9-.8-.8-.8-2.1 0-1.5.7-2.3.8-.8 2.1-.8 1.2 0 1.9.7.6.8.6 2zm-1-.3q0-.8-.4-1.3-.4-.4-1-.4-.9 0-1.4.4-.4.5-.5 1.3zm-8.4 11v.9l-.9-.3-.9-.1q-.7 0-1 .2-.4.2-.4.6 0 .4.3.6l1 .3h.3q1 .3 1.4.7.5.4.5 1.1 0 .8-.7 1.3-.6.5-1.7.5l-1-.1-1-.3v-1l1 .4 1 .2q.7 0 1-.3.4-.2.4-.6 0-.4-.3-.6-.2-.2-1.1-.4l-.4-.1q-.8-.2-1.2-.6-.4-.4-.4-1 0-.8.6-1.3.5-.4 1.6-.4h1l.9.3zm1.8-.2h1v5.8h-1zm0-2.3h1V46h-1zM125 47l-2.2 2.8 2.3 3h-1.2l-1.7-2.3-1.6 2.3h-1.2l2.3-3-2-2.8h1l1.6 2 1.5-2zM98.5 60.4v.9l-.8-.3-1-.1q-.6 0-1 .2-.3.2-.3.6 0 .4.2.6l1 .3h.4q1 .3 1.4.7.4.4.4 1.1 0 .8-.6 1.3t-1.8.5l-1-.1-1-.3v-1l1 .4 1 .2q.7 0 1-.3.5-.2.5-.6 0-.4-.3-.6l-1.2-.4-.3-.1q-.9-.2-1.3-.6-.4-.4-.4-1 0-.8.6-1.3.6-.4 1.7-.4h1l.8.3zm6.8 2.5v.4H101q.1 1 .6 1.5.6.5 1.5.5h1l1-.5v.9l-1 .3-1 .2q-1.4 0-2.3-.9-.8-.8-.8-2.1 0-1.5.8-2.3.8-.8 2-.8 1.3 0 2 .7.6.8.6 2zm-1-.3q0-.8-.4-1.3-.4-.4-1.1-.4-.8 0-1.3.4-.5.5-.5 1.3zm1.9-2.4h1l1.8 4.9 1.8-4.9h1l-2.1 5.8h-1.3zm11.9 2.7v.4h-4.4q0 1 .6 1.5t1.5.5h1l1-.5v.9l-1 .3-1 .2q-1.4 0-2.3-.9-.8-.8-.8-2.1 0-1.5.8-2.3.8-.8 2-.8t2 .7q.6.8.6 2zm-1-.3q0-.8-.4-1.3-.4-.4-1.1-.4-.8 0-1.3.4-.5.5-.5 1.3zm7.4-.1V66h-1v-3.5q0-.8-.3-1.2-.3-.4-1-.4t-1.2.5q-.4.5-.4 1.3V66h-1v-5.8h1v.9q.3-.5.8-.8l1-.2q1 0 1.6.6.5.6.5 1.8zm-20.2 13.7v.4h-4.4q0 1 .6 1.5.5.5 1.5.5h1l1-.5v.9l-1 .3-1 .2q-1.5 0-2.3-.9-.8-.8-.8-2.1 0-1.5.8-2.3.7-.8 2-.8 1.2 0 1.9.7.7.8.7 2zm-1-.3q0-.8-.4-1.3-.4-.4-1.1-.4-.8 0-1.3.4-.5.5-.6 1.3zm2.5-2.4h1v5.8h-1zm0-2.3h1v1.3h-1zm6.8 5.1q0-1-.4-1.6-.5-.5-1.2-.5-.8 0-1.2.5-.5.6-.5 1.6t.5 1.6q.4.6 1.2.6.7 0 1.2-.6.4-.5.4-1.6zm1 2.3q0 1.5-.7 2.2-.7.7-2 .7h-1l-.8-.3v-1l.8.4.8.1q1 0 1.4-.5.5-.5.5-1.4v-.5q-.3.5-.8.7-.4.3-1 .3-1.1 0-1.8-.8-.6-.8-.6-2.2 0-1.3.6-2.1.7-.8 1.7-.8.7 0 1.1.2.5.3.8.8v-.9h1zm6.7-2.8v3.5h-1v-3.5q0-.8-.2-1.2-.4-.4-1-.4-.8 0-1.2.5-.5.5-.5 1.3v3.3h-1v-8h1v3.1l.8-.8q.5-.2 1.1-.2 1 0 1.5.6t.5 1.8zm2.9-3.9v1.6h2v.7h-2v3.2q0 .7.2.9.2.2.8.2h1v.8h-1q-1.1 0-1.6-.4-.4-.4-.4-1.5v-3.2h-.7v-.7h.7v-1.6zM108.3 89v3.5h-1V89q0-.8-.3-1.2-.3-.4-1-.4t-1.2.5q-.4.5-.4 1.3v3.3h-1v-5.8h1v.9q.3-.5.8-.8l1-.2q1 0 1.6.6.5.6.5 1.8zm1.9-2.3h1v5.8h-1zm0-2.3h1v1.3h-1zM118 89v3.5h-1V89q0-.8-.3-1.2-.3-.4-1-.4t-1.2.5q-.4.5-.4 1.3v3.3h-1v-5.8h1v.9q.3-.5.8-.8.4-.2 1-.2 1 0 1.6.6.5.6.5 1.8zm6.8.4v.4h-4.3q0 1 .5 1.5.6.5 1.5.5h1l1.1-.5v.9l-1 .3-1.1.2q-1.4 0-2.2-.9-.8-.8-.8-2.1 0-1.5.7-2.3.8-.8 2.1-.8 1.2 0 1.9.7.6.8.6 2zm-1-.3q0-.8-.4-1.3-.4-.4-1-.4-.9 0-1.4.4-.4.5-.5 1.3z"/><path stroke="#000" stroke-miterlimit="10" stroke-width=".6" d="M35.2 35H44v2.3h-8.8zm11.4 0h8.8v2.3h-8.8zm11.5 0h8.8v2.3h-8.8zm11.4 0h8.8v2.3h-8.8zm11.4 0h8.8v2.3h-8.8z"/><circle cx="36.9" cy="49.7" r="1.9" stroke="#000" stroke-miterlimit="10" stroke-width=".7"/><path stroke="#000" stroke-miterlimit="10" stroke-width=".6" d="M42.5 48.4h8.8v2.3h-8.8zm12 0h8.8v2.3h-8.8zm11.4 0h8.8v2.3h-8.8zm11.4 0h8.8v2.3h-8.8zm-27 13.2h8.8v2.3h-8.8zm11.9 0H71v2.3h-8.8zm11.5 0h8.8v2.3h-8.8z"/><circle cx="133.2" cy="36.3" r="1.9" stroke="#000" stroke-miterlimit="10" stroke-width=".7"/><circle cx="140.3" cy="36.3" r="1.9" stroke="#000" stroke-miterlimit="10" stroke-width=".7"/><circle cx="147.3" cy="36.4" r="1.9" stroke="#000" stroke-miterlimit="10" stroke-width=".7"/><circle cx="154.7" cy="36.5" r="1.9" stroke="#000" stroke-miterlimit="10" stroke-width=".7"/><circle cx="161.7" cy="36.5" r="1.9" stroke="#000" stroke-miterlimit="10" stroke-width=".7"/><circle cx="36.9" cy="62.9" r="1.9" stroke="#000" stroke-miterlimit="10" stroke-width=".7"/><circle cx="43.9" cy="62.9" r="1.9" stroke="#000" stroke-miterlimit="10" stroke-width=".7"/><circle cx="36.7" cy="76.3" r="1.9" stroke="#000" stroke-miterlimit="10" stroke-width=".7"/><circle cx="43.7" cy="76.3" r="1.9" stroke="#000" stroke-miterlimit="10" stroke-width=".7"/><circle cx="50.7" cy="76.5" r="1.9" stroke="#000" stroke-miterlimit="10" stroke-width=".7"/><path stroke="#000" stroke-miterlimit="10" stroke-width=".6" d="M56.3 75.2h8.8v2.3h-8.8zm11.9 0H77v2.3h-8.8z"/><circle cx="36.6" cy="89.3" r="1.9" stroke="#000" stroke-miterlimit="10" stroke-width=".7"/><circle cx="43.6" cy="89.3" r="1.9" stroke="#000" stroke-miterlimit="10" stroke-width=".7"/><circle cx="50.7" cy="89.4" r="1.9" stroke="#000" stroke-miterlimit="10" stroke-width=".7"/><circle cx="58.1" cy="89.4" r="1.9" stroke="#000" stroke-miterlimit="10" stroke-width=".7"/><path stroke="#000" stroke-miterlimit="10" stroke-width=".6" d="M63.4 88.3h8.8v2.3h-8.8zm68.1-39.7h8.8v2.3h-8.8zm0 13.4h8.8v2.3h-8.8zm12 0h8.8v2.3h-8.8zm-12 12.9h8.8v2.3h-8.8zm12 0h8.8v2.3h-8.8zm11.4 0h8.8v2.3h-8.8zm-23.4 13.9h8.8v2.3h-8.8zm12 0h8.8v2.3h-8.8zm11.4 0h8.8v2.3h-8.8zm11.4 0h8.8v2.3h-8.8z"/><circle cx="145.6" cy="49.8" r="1.9" stroke="#000" stroke-miterlimit="10" stroke-width=".7"/><circle cx="152.6" cy="49.8" r="1.9" stroke="#000" stroke-miterlimit="10" stroke-width=".7"/><circle cx="159.7" cy="49.9" r="1.9" stroke="#000" stroke-miterlimit="10" stroke-width=".7"/><circle cx="167.1" cy="50" r="1.9" stroke="#000" stroke-miterlimit="10" stroke-width=".7"/><circle cx="157.9" cy="63.2" r="1.9" stroke="#000" stroke-miterlimit="10" stroke-width=".7"/><circle cx="164.9" cy="63.3" r="1.9" stroke="#000" stroke-miterlimit="10" stroke-width=".7"/><circle cx="172" cy="63.4" r="1.9" stroke="#000" stroke-miterlimit="10" stroke-width=".7"/><circle cx="169" cy="75.9" r="1.9" stroke="#000" stroke-miterlimit="10" stroke-width=".7"/><circle cx="176" cy="76" r="1.9" stroke="#000" stroke-miterlimit="10" stroke-width=".7"/><circle cx="180.3" cy="89.8" r="1.9" stroke="#000" stroke-miterlimit="10" stroke-width=".7"/><path stroke-width=".3" d="M40.8 18.5v6H42q1.6 0 2.4-.7.7-.7.7-2.3 0-1.5-.7-2.2-.8-.8-2.4-.8zm-1-.8h2q2.3 0 3.4 1 1 .8 1 2.8 0 2-1 3-1 .9-3.3.9h-2.2zm8 1.9h1v5.8h-1zm0-2.3h1v1.3h-1zm6.8 5.1q0-1-.4-1.6-.5-.5-1.2-.5-.8 0-1.2.5-.5.6-.5 1.6t.5 1.6q.4.6 1.2.6.7 0 1.2-.6.4-.5.4-1.6zm1 2.3q0 1.5-.7 2.2-.7.7-2 .7h-1l-.8-.3v-1l.8.4.8.1q1 0 1.4-.5.5-.5.5-1.4v-.5q-.3.5-.8.7-.4.3-1 .3-1.1 0-1.8-.8-.6-.8-.6-2.2 0-1.3.6-2.1.7-.8 1.7-.8.7 0 1.1.2.5.3.8.8v-.9h1zm1.9-5.1h1v5.8h-1zm0-2.3h1v1.3h-1zm3.9.7v1.6h2v.7h-2v3.2q0 .7.2.9.2.2.8.2h1v.8h-1q-1.1 0-1.6-.4-.4-.4-.4-1.5v-3.2h-.7v-.7h.7V18zm6.9 1.8v.9l-.8-.3-1-.1q-.6 0-1 .2t-.4.6q0 .4.3.6l1 .3h.3q1 .3 1.5.7.4.4.4 1.1 0 .8-.6 1.3-.7.5-1.8.5l-1-.1-1-.3v-1l1 .4 1 .2q.7 0 1-.3.4-.2.4-.6 0-.4-.2-.6l-1.2-.4-.3-.1q-.9-.2-1.3-.6-.4-.4-.4-1 0-.8.6-1.3.6-.4 1.6-.4h1l.9.3zm5.2-.2h1v5.8h-1zm0-2.3h1v1.3h-1zm7.8 4.6v3.5h-1v-3.5q0-.8-.3-1.2-.3-.4-1-.4t-1.2.5q-.4.5-.4 1.3v3.3h-1v-5.8h1v.9q.3-.5.8-.8.4-.2 1-.2 1 0 1.6.6.5.6.5 1.8zm5.3-4.2h1.6l2 5.2 2-5.2h1.5v7.7h-1v-6.8l-2 5.3h-1.1l-2-5.3v6.8h-1zM98 20.3q-.8 0-1.3.6-.4.6-.4 1.6t.4 1.6q.5.6 1.2.6.8 0 1.3-.6.4-.6.4-1.6t-.4-1.6q-.5-.6-1.3-.6zm0-.8q1.2 0 1.9.8t.7 2.2q0 1.4-.7 2.2-.7.9-2 .9-1.2 0-2-.9-.6-.8-.6-2.2 0-1.4.7-2.2.7-.8 2-.8zm7.5 1l-.3-.1h-.4q-.8 0-1.3.4-.4.6-.4 1.5v3.1h-1v-5.8h1v.9q.3-.5.8-.8.5-.2 1.2-.2h.4zm4.7-.7v.9l-.8-.3-.9-.1q-.7 0-1 .2-.4.2-.4.6 0 .4.2.6l1 .3h.4q1 .3 1.4.7.5.4.5 1.1 0 .8-.7 1.3-.6.5-1.7.5l-1-.1-1-.3v-1l1 .4 1 .2q.7 0 1-.3.4-.2.4-.6 0-.4-.3-.6-.2-.2-1.1-.4l-.4-.1q-.8-.2-1.2-.6-.4-.4-.4-1 0-.8.5-1.3.6-.4 1.7-.4h1l.8.3zm6.8 2.5v.4h-4.3q0 1 .5 1.5.6.5 1.5.5h1l1.1-.5v.9l-1 .3-1.1.2q-1.4 0-2.2-.9-.8-.8-.8-2.1 0-1.5.7-2.3.8-.8 2.1-.8 1.2 0 1.9.7.6.8.6 2zm-1-.3q0-.8-.4-1.3-.4-.4-1-.4-.9 0-1.4.4-.4.5-.5 1.3zm11.8-3.7v1l-1.1-.7q-.6-.2-1.3-.2-1.3 0-2 .8t-.7 2.3q0 1.6.7 2.4.7.8 2 .8.7 0 1.3-.3.6-.2 1.1-.7v1.1q-.5.4-1.2.6-.6.2-1.3.2-1.7 0-2.7-1.1-1-1.1-1-3 0-1.8 1-2.9 1-1 2.7-1l1.3.1q.7.2 1.2.6zm3.8 2q-.7 0-1.2.6-.4.6-.4 1.6t.4 1.6q.5.6 1.2.6.8 0 1.2-.6.5-.6.5-1.6t-.5-1.6q-.4-.6-1.2-.6zm0-.8q1.3 0 2 .8t.7 2.2q0 1.4-.7 2.2-.7.9-2 .9-1.2 0-2-.9-.6-.8-.6-2.2 0-1.4.7-2.2.7-.8 2-.8zm8.1 1v-3.2h1v8.1h-1v-.9q-.3.5-.8.8-.4.3-1 .3-1.1 0-1.8-.9-.6-.8-.6-2.2 0-1.4.6-2.2.7-.8 1.7-.8.7 0 1.1.2.5.3.8.8zm-3.3 2q0 1 .5 1.7.4.6 1.2.6.7 0 1.1-.6.5-.6.5-1.7 0-1-.5-1.6-.4-.6-1.1-.6-.8 0-1.2.6-.5.6-.5 1.6zm11.2-.2v.4h-4.4q0 1 .6 1.5.5.5 1.4.5h1.1l1-.5v.9l-1 .3-1.1.2q-1.4 0-2.2-.9-.8-.8-.8-2.1 0-1.5.7-2.3.8-.8 2.1-.8 1.2 0 1.9.7.7.8.7 2zm-1-.3q0-.8-.4-1.3-.5-.4-1.2-.4-.8 0-1.2.4-.5.5-.6 1.3z"/></g></svg>