<svg xmlns="http://www.w3.org/2000/svg" xml:space="preserve" viewBox="0 0 608 456"><g stroke="#000" stroke-miterlimit="6.7" stroke-width="2" paint-order="markers fill stroke"><path fill="none" d="M1 153h50v50H1zm50 0h50v50H51z"/><path fill-opacity=".5" d="M101 153h50v50h-50z"/><path fill="none" d="M1 203h50v50H1zm50 0h50v50H51zm50 0h50v50h-50zM1 253h50v50H1zm50 0h50v50H51zm50 0h50v50h-50z"/></g><g fill="#1c6cf0" fill-opacity=".3" stroke="#000" stroke-miterlimit="6.7" stroke-width="2" paint-order="markers fill stroke"><path d="M153 153h50v50h-50zm50 0h50v50h-50zm50 0h50v50h-50zm-100 50h50v50h-50zm50 0h50v50h-50zm50 0h50v50h-50z"/><path fill="#000" fill-opacity=".5" d="M153 253h50v50h-50z"/><path d="M203 253h50v50h-50zm50 0h50v50h-50z"/></g><g stroke="#000" stroke-miterlimit="6.7" stroke-width="2" paint-order="markers fill stroke"><path fill="none" d="M153 1h50v50h-50zm50 0h50v50h-50z"/><path fill-opacity=".5" d="M253 1h50v50h-50z"/><path fill="none" d="M153 51h50v50h-50zm50 0h50v50h-50zm50 0h50v50h-50zm-100 50h50v50h-50zm50 0h50v50h-50zm50 0h50v50h-50z"/></g><g stroke="#000" stroke-miterlimit="6.7" stroke-width="2" paint-order="markers fill stroke"><path fill="none" d="M153 305h50v50h-50zm50 0h50v50h-50zm50 0h50v50h-50zm-100 50h50v50h-50zm50 0h50v50h-50zm50 0h50v50h-50zm-100 50h50v50h-50zm50 0h50v50h-50z"/><path fill-opacity=".5" d="M253 405h50v50h-50z"/></g><g stroke="#000" stroke-miterlimit="6.7" stroke-width="2" paint-order="markers fill stroke"><path fill="none" d="M305 153h50v50h-50z"/><path fill-opacity=".5" d="M355 153h50v50h-50z"/><path fill="none" d="M405 153h50v50h-50zm-100 50h50v50h-50zm50 0h50v50h-50zm50 0h50v50h-50zm-100 50h50v50h-50zm50 0h50v50h-50zm50 0h50v50h-50z"/></g><g stroke="#000" stroke-miterlimit="6.7" stroke-width="2" paint-order="markers fill stroke"><path fill="none" d="M457 153h50v50h-50zm50 0h50v50h-50zm50 0h50v50h-50zm-100 50h50v50h-50z"/><path fill-opacity=".5" d="M507 203h50v50h-50z"/><path fill="none" d="M557 203h50v50h-50zm-100 50h50v50h-50zm50 0h50v50h-50zm50 0h50v50h-50z"/></g><path fill="none" stroke="#000" stroke-dasharray="8 4" stroke-miterlimit="6.7" stroke-opacity=".5" stroke-width="4" d="m482 278-102-50m50-50 52 100m-102-50 50-50m-202 0 50 202m0 0 102-152m-152-50 152 50M26 278l202-100m202 0L278 76M26 278l252 102" paint-order="markers fill stroke"/><g paint-order="markers fill stroke"><circle cx="482" cy="278" r="8"/><circle cx="380" cy="228" r="8"/><circle cx="278" cy="380" r="8"/><circle cx="278" cy="76" r="8"/><circle cx="430" cy="178" r="8"/><circle cx="228" cy="178" r="8"/><circle cx="26" cy="278" r="8"/></g></svg>