<svg xmlns="http://www.w3.org/2000/svg" viewBox="0 0 348 348" fill="none" stroke-linecap="square" stroke-miterlimit="10">
  <circle cx="25.84" cy="24.171" r="5.88" fill="#000" stroke="#000" stroke-width="1.072"/>
  <circle cx="68.238" cy="24.352" r="5.88" fill="#000" stroke="#000" stroke-width="1.072"/>
  <circle cx="110.395" cy="24.088" r="5.88" fill="#000" stroke="#000" stroke-width="1.072"/>
  <circle cx="152.793" cy="24.269" r="5.88" fill="#000" stroke="#000" stroke-width="1.072"/>
  <circle cx="195.682" cy="24.256" r="5.88" fill="#000" stroke="#000" stroke-width="1.072"/>
  <circle cx="238.08" cy="24.438" r="5.88" fill="#000" stroke="#000" stroke-width="1.072"/>
  <circle cx="280.238" cy="24.173" r="5.88" fill="#000" stroke="#000" stroke-width="1.072"/>
  <circle cx="322.637" cy="24.354" r="5.88" fill="#000" stroke="#000" stroke-width="1.072"/>
  <circle cx="25.879" cy="67.009" r="5.88" fill="#000" stroke="#000" stroke-width="1.072"/>
  <circle cx="68.278" cy="67.19" r="5.88" fill="#000" stroke="#000" stroke-width="1.072"/>
  <circle cx="110.435" cy="66.926" r="5.88" fill="#000" stroke="#000" stroke-width="1.072"/>
  <circle cx="152.833" cy="67.107" r="5.88" fill="#000" stroke="#000" stroke-width="1.072"/>
  <circle cx="195.721" cy="67.093" r="5.88" fill="#000" stroke="#000" stroke-width="1.072"/>
  <circle cx="238.12" cy="67.274" r="5.88" fill="#000" stroke="#000" stroke-width="1.072"/>
  <circle cx="280.278" cy="67.011" r="5.88" fill="#000" stroke="#000" stroke-width="1.072"/>
  <circle cx="322.676" cy="67.192" r="5.88" fill="#000" stroke="#000" stroke-width="1.072"/>
  <circle cx="25.357" cy="110.379" r="5.88" fill="#000" stroke="#000" stroke-width="1.072"/>
  <circle cx="67.755" cy="110.561" r="5.88" fill="#000" stroke="#000" stroke-width="1.072"/>
  <circle cx="109.914" cy="110.297" r="5.88" fill="#000" stroke="#000" stroke-width="1.072"/>
  <circle cx="152.312" cy="110.478" r="5.88" fill="#000" stroke="#000" stroke-width="1.072"/>
  <circle cx="195.2" cy="110.464" r="5.88" fill="#000" stroke="#000" stroke-width="1.072"/>
  <circle cx="237.599" cy="110.645" r="5.88" fill="#000" stroke="#000" stroke-width="1.072"/>
  <circle cx="279.756" cy="110.382" r="5.88" fill="#000" stroke="#000" stroke-width="1.072"/>
  <circle cx="322.154" cy="110.563" r="5.88" fill="#000" stroke="#000" stroke-width="1.072"/>
  <circle cx="25.397" cy="153.216" r="5.88" fill="#000" stroke="#000" stroke-width="1.072"/>
  <circle cx="67.795" cy="153.398" r="5.88" fill="#000" stroke="#000" stroke-width="1.072"/>
  <circle cx="109.953" cy="153.134" r="5.88" fill="#000" stroke="#000" stroke-width="1.072"/>
  <circle cx="152.352" cy="153.315" r="5.88" fill="#000" stroke="#000" stroke-width="1.072"/>
  <circle cx="195.24" cy="153.302" r="5.88" fill="#000" stroke="#000" stroke-width="1.072"/>
  <circle cx="237.638" cy="153.483" r="5.88" fill="#000" stroke="#000" stroke-width="1.072"/>
  <circle cx="279.796" cy="153.219" r="5.88" fill="#000" stroke="#000" stroke-width="1.072"/>
  <circle cx="322.194" cy="153.401" r="5.88" fill="#000" stroke="#000" stroke-width="1.072"/>
  <circle cx="24.681" cy="195.342" r="5.88" fill="#000" stroke="#000" stroke-width="1.072"/>
  <circle cx="67.079" cy="195.523" r="5.88" fill="#000" stroke="#000" stroke-width="1.072"/>
  <circle cx="109.236" cy="195.259" r="5.88" fill="#000" stroke="#000" stroke-width="1.072"/>
  <circle cx="151.634" cy="195.44" r="5.88" fill="#000" stroke="#000" stroke-width="1.072"/>
  <circle cx="194.523" cy="195.427" r="5.88" fill="#000" stroke="#000" stroke-width="1.072"/>
  <circle cx="236.921" cy="195.608" r="5.88" fill="#000" stroke="#000" stroke-width="1.072"/>
  <circle cx="279.079" cy="195.344" r="5.88" fill="#000" stroke="#000" stroke-width="1.072"/>
  <circle cx="321.478" cy="195.526" r="5.88" fill="#000" stroke="#000" stroke-width="1.072"/>
  <circle cx="24.72" cy="238.179" r="5.88" fill="#000" stroke="#000" stroke-width="1.072"/>
  <circle cx="67.119" cy="238.36" r="5.88" fill="#000" stroke="#000" stroke-width="1.072"/>
  <circle cx="109.276" cy="238.097" r="5.88" fill="#000" stroke="#000" stroke-width="1.072"/>
  <circle cx="194.562" cy="238.265" r="5.88" fill="#000" stroke="#000" stroke-width="1.072"/>
  <circle cx="236.961" cy="238.445" r="5.88" fill="#000" stroke="#000" stroke-width="1.072"/>
  <circle cx="279.119" cy="238.181" r="5.88" fill="#000" stroke="#000" stroke-width="1.072"/>
  <circle cx="321.517" cy="238.363" r="5.88" fill="#000" stroke="#000" stroke-width="1.072"/>
  <circle cx="24.198" cy="281.55" r="5.88" fill="#000" stroke="#000" stroke-width="1.072"/>
  <circle cx="66.596" cy="281.731" r="5.88" fill="#000" stroke="#000" stroke-width="1.072"/>
  <circle cx="108.754" cy="281.467" r="5.88" fill="#000" stroke="#000" stroke-width="1.072"/>
  <circle cx="151.153" cy="281.649" r="5.88" fill="#000" stroke="#000" stroke-width="1.072"/>
  <circle cx="194.041" cy="281.636" r="5.88" fill="#000" stroke="#000" stroke-width="1.072"/>
  <circle cx="236.44" cy="281.817" r="5.88" fill="#000" stroke="#000" stroke-width="1.072"/>
  <circle cx="278.597" cy="281.552" r="5.88" fill="#000" stroke="#000" stroke-width="1.072"/>
  <circle cx="320.995" cy="281.733" r="5.88" fill="#000" stroke="#000" stroke-width="1.072"/>
  <circle cx="24.238" cy="324.388" r="5.88" fill="#000" stroke="#000" stroke-width="1.072"/>
  <circle cx="108.794" cy="324.305" r="5.88" fill="#000" stroke="#000" stroke-width="1.072"/>
  <circle cx="151.193" cy="324.487" r="5.88" fill="#000" stroke="#000" stroke-width="1.072"/>
  <circle cx="194.081" cy="324.473" r="5.88" fill="#000" stroke="#000" stroke-width="1.072"/>
  <circle cx="236.479" cy="324.654" r="5.88" fill="#000" stroke="#000" stroke-width="1.072"/>
  <circle cx="278.636" cy="324.39" r="5.88" fill="#000" stroke="#000" stroke-width="1.072"/>
  <circle cx="321.035" cy="324.571" r="5.88" fill="#000" stroke="#000" stroke-width="1.072"/>
  <path d="M123 256.843H180.8v10.322H123z" fill="#000" stroke="#000" stroke-width="1.072"/>
  <path d="M123.163 91.729h9.977V256.68h-9.977z" fill="#000" stroke="#000" stroke-width="1.937"/>
  <path d="M170.497 206.164H180.8v50.68h-10.303z" fill="#000" stroke="#000" stroke-width="1.091"/>
  <path d="M170.435 206.102h44.575v10.446h-44.575z" fill="#000" stroke="#000" stroke-width=".947"/>
  <path d="M214.946 42.911h9.458v173.701h-9.458z" fill="#000" stroke="#000" stroke-width="1.935"/>
  <path d="M123.163 168.5h40.17v10.492h-40.17zm54.638-40.8h40.17v10.493h-40.17z" fill="#000" stroke="#000" stroke-width=".902"/>
  <path d="M83.574 84.58h77.584v10.492H83.574z" fill="#000" stroke="#000" stroke-width="1.252"/>
  <path d="M41.635 43.292h182.389v9.56H41.635z" fill="#000" stroke="#000" stroke-width="1.833"/>
  <path d="M41.944 43.6h9.361v299.352h-9.361z" fill="#000" stroke="#000" stroke-width="2.527"/>
  <path d="M83.574 84.58h9.076V343.3h-9.076z" fill="#000" stroke="#000" stroke-width="2.314"/>
  <path d="M41.944 332.528h46.778v10.425H41.944z" fill="#000" stroke="#000" stroke-width=".969"/>
  <path fill="red" stroke="#000" stroke-width="4.002" d="M55.486 305.217h24.062v24.062H55.486z"/>
  <circle cx="151.903" cy="238.376" r="15.24" fill="#00c500" stroke="#000" stroke-width="4.396"/>
</svg>
