<svg xmlns="http://www.w3.org/2000/svg" viewBox="0 0 348 348" fill="none" stroke-linecap="square" stroke-miterlimit="10">
  <circle cx="29.834" cy="31.999" r="5.783" fill="#000" stroke="#000" stroke-width="1.054"/>
  <circle cx="71.533" cy="32.177" r="5.783" fill="#000" stroke="#000" stroke-width="1.054"/>
  <circle cx="112.995" cy="31.918" r="5.783" fill="#000" stroke="#000" stroke-width="1.054"/>
  <circle cx="154.694" cy="32.096" r="5.783" fill="#000" stroke="#000" stroke-width="1.054"/>
  <circle cx="238.574" cy="32.262" r="5.783" fill="#000" stroke="#000" stroke-width="1.054"/>
  <circle cx="280.037" cy="32.001" r="5.783" fill="#000" stroke="#000" stroke-width="1.054"/>
  <circle cx="321.736" cy="32.179" r="5.783" fill="#000" stroke="#000" stroke-width="1.054"/>
  <circle cx="29.873" cy="74.13" r="5.783" fill="#000" stroke="#000" stroke-width="1.054"/>
  <circle cx="71.572" cy="74.309" r="5.783" fill="#000" stroke="#000" stroke-width="1.054"/>
  <circle cx="113.034" cy="74.049" r="5.783" fill="#000" stroke="#000" stroke-width="1.054"/>
  <circle cx="154.733" cy="74.227" r="5.783" fill="#000" stroke="#000" stroke-width="1.054"/>
  <circle cx="238.613" cy="74.392" r="5.783" fill="#000" stroke="#000" stroke-width="1.054"/>
  <circle cx="280.076" cy="74.132" r="5.783" fill="#000" stroke="#000" stroke-width="1.054"/>
  <circle cx="321.775" cy="74.311" r="5.783" fill="#000" stroke="#000" stroke-width="1.054"/>
  <circle cx="29.359" cy="116.786" r="5.783" fill="#000" stroke="#000" stroke-width="1.054"/>
  <circle cx="71.058" cy="116.964" r="5.783" fill="#000" stroke="#000" stroke-width="1.054"/>
  <circle cx="112.521" cy="116.705" r="5.783" fill="#000" stroke="#000" stroke-width="1.054"/>
  <circle cx="154.22" cy="116.883" r="5.783" fill="#000" stroke="#000" stroke-width="1.054"/>
  <circle cx="196.401" cy="116.869" r="5.783" fill="#000" stroke="#000" stroke-width="1.054"/>
  <circle cx="238.1" cy="117.047" r="5.783" fill="#000" stroke="#000" stroke-width="1.054"/>
  <circle cx="279.562" cy="116.788" r="5.783" fill="#000" stroke="#000" stroke-width="1.054"/>
  <circle cx="321.261" cy="116.966" r="5.783" fill="#000" stroke="#000" stroke-width="1.054"/>
  <circle cx="29.398" cy="158.916" r="5.783" fill="#000" stroke="#000" stroke-width="1.054"/>
  <circle cx="71.097" cy="159.094" r="5.783" fill="#000" stroke="#000" stroke-width="1.054"/>
  <circle cx="112.56" cy="158.835" r="5.783" fill="#000" stroke="#000" stroke-width="1.054"/>
  <circle cx="154.259" cy="159.013" r="5.783" fill="#000" stroke="#000" stroke-width="1.054"/>
  <circle cx="196.44" cy="159.001" r="5.783" fill="#000" stroke="#000" stroke-width="1.054"/>
  <circle cx="238.139" cy="159.179" r="5.783" fill="#000" stroke="#000" stroke-width="1.054"/>
  <circle cx="279.601" cy="158.919" r="5.783" fill="#000" stroke="#000" stroke-width="1.054"/>
  <circle cx="321.3" cy="159.098" r="5.783" fill="#000" stroke="#000" stroke-width="1.054"/>
  <circle cx="28.694" cy="200.347" r="5.783" fill="#000" stroke="#000" stroke-width="1.054"/>
  <circle cx="70.393" cy="200.526" r="5.783" fill="#000" stroke="#000" stroke-width="1.054"/>
  <circle cx="111.855" cy="200.265" r="5.783" fill="#000" stroke="#000" stroke-width="1.054"/>
  <circle cx="153.554" cy="200.443" r="5.783" fill="#000" stroke="#000" stroke-width="1.054"/>
  <circle cx="195.735" cy="200.431" r="5.783" fill="#000" stroke="#000" stroke-width="1.054"/>
  <circle cx="237.434" cy="200.609" r="5.783" fill="#000" stroke="#000" stroke-width="1.054"/>
  <circle cx="278.897" cy="200.35" r="5.783" fill="#000" stroke="#000" stroke-width="1.054"/>
  <circle cx="320.596" cy="200.528" r="5.783" fill="#000" stroke="#000" stroke-width="1.054"/>
  <circle cx="28.733" cy="242.478" r="5.783" fill="#000" stroke="#000" stroke-width="1.054"/>
  <circle cx="70.432" cy="242.656" r="5.783" fill="#000" stroke="#000" stroke-width="1.054"/>
  <circle cx="111.894" cy="242.397" r="5.783" fill="#000" stroke="#000" stroke-width="1.054"/>
  <circle cx="153.593" cy="242.575" r="5.783" fill="#000" stroke="#000" stroke-width="1.054"/>
  <circle cx="195.774" cy="242.562" r="5.783" fill="#000" stroke="#000" stroke-width="1.054"/>
  <circle cx="237.473" cy="242.739" r="5.783" fill="#000" stroke="#000" stroke-width="1.054"/>
  <circle cx="278.936" cy="242.48" r="5.783" fill="#000" stroke="#000" stroke-width="1.054"/>
  <circle cx="320.635" cy="242.658" r="5.783" fill="#000" stroke="#000" stroke-width="1.054"/>
  <circle cx="28.219" cy="285.133" r="5.783" fill="#000" stroke="#000" stroke-width="1.054"/>
  <circle cx="69.918" cy="285.312" r="5.783" fill="#000" stroke="#000" stroke-width="1.054"/>
  <circle cx="111.38" cy="285.052" r="5.783" fill="#000" stroke="#000" stroke-width="1.054"/>
  <circle cx="153.08" cy="285.23" r="5.783" fill="#000" stroke="#000" stroke-width="1.054"/>
  <circle cx="195.261" cy="285.218" r="5.783" fill="#000" stroke="#000" stroke-width="1.054"/>
  <circle cx="236.96" cy="285.396" r="5.783" fill="#000" stroke="#000" stroke-width="1.054"/>
  <circle cx="278.422" cy="285.135" r="5.783" fill="#000" stroke="#000" stroke-width="1.054"/>
  <circle cx="320.121" cy="285.314" r="5.783" fill="#000" stroke="#000" stroke-width="1.054"/>
  <circle cx="28.258" cy="327.265" r="5.783" fill="#000" stroke="#000" stroke-width="1.054"/>
  <circle cx="69.957" cy="327.443" r="5.783" fill="#000" stroke="#000" stroke-width="1.054"/>
  <circle cx="111.42" cy="327.184" r="5.783" fill="#000" stroke="#000" stroke-width="1.054"/>
  <circle cx="153.119" cy="327.362" r="5.783" fill="#000" stroke="#000" stroke-width="1.054"/>
  <circle cx="195.3" cy="327.348" r="5.783" fill="#000" stroke="#000" stroke-width="1.054"/>
  <circle cx="236.999" cy="327.526" r="5.783" fill="#000" stroke="#000" stroke-width="1.054"/>
  <circle cx="278.461" cy="327.267" r="5.783" fill="#000" stroke="#000" stroke-width="1.054"/>
  <circle cx="320.16" cy="327.445" r="5.783" fill="#000" stroke="#000" stroke-width="1.054"/>
  <path d="M82.201 46.332h136.145v10.223H82.201z" fill="#000" stroke="#000" stroke-width="1.638"/>
  <path d="M256.623 7.613h8.851v333.496h-8.851z" fill="#000" stroke="#000" stroke-width="2.594"/>
  <path d="M167.717-.754h98.027v9.827h-98.027z" fill="#000" stroke="#000" stroke-width="1.362"/>
  <path d="M212.813 46.635h9.144v254.276h-9.144z" fill="#000" stroke="#000" stroke-width="2.302"/>
  <path d="M168.46 335.934h98.032v10.223h-98.033z" fill="#000" stroke="#000" stroke-width="1.39"/>
  <path d="M141.895 96.666h69.886v10.223h-69.886z" fill="#000" stroke="#000" stroke-width="1.174"/>
  <path d="M167.717-.754h10.241V56.98h-10.241z" fill="#000" stroke="#000" stroke-width="1.161"/>
  <path d="M81.781 45.913h9.69v139.564h-9.69z" fill="#000" stroke="#000" stroke-width="1.756"/>
  <path d="M81.85 175.322h97.705v10.086H81.85z" fill="#000" stroke="#000" stroke-width="1.378"/>
  <path d="M131.472 96.666h10.422v44.006h-10.422z" fill="#000" stroke="#000" stroke-width="1.023"/>
  <path d="M132.04 133.906h79.605v10.15H132.04z" fill="#000" stroke="#000" stroke-width="1.248"/>
  <path d="M169.758 176.064h10.423v44.007h-10.423z" fill="#000" stroke="#000" stroke-width="1.023"/>
  <path d="M90.338 218.273h89.437v10.079H90.338z" fill="#000" stroke="#000" stroke-width="1.318"/>
  <path d="M132.486 258.747h80.907v9.89h-80.907z" fill="#000" stroke="#000" stroke-width="1.242"/>
  <path d="M83.972 218.574H94.08v90.785H83.972z" fill="#000" stroke="#000" stroke-width="1.447"/>
  <path d="M83.972 299.47h80.907v9.89H83.972z" fill="#000" stroke="#000" stroke-width="1.242"/>
  <path d="M164.893 299.485h10.392v46.824h-10.392z" fill="#000" stroke="#000" stroke-width="1.054"/>
  <path fill="red" stroke="#000" stroke-width="4.771" d="M182.257 13.442h28.682v28.682h-28.682z"/>
  <circle cx="192.165" cy="76.793" r="16.263" fill="#00c500" stroke="#000" stroke-width="4.691"/>
</svg>
