<svg xmlns="http://www.w3.org/2000/svg" width="900" height="900" viewBox="0 0 900 900"><defs><marker id="Z" orient="auto" overflow="visible"><path fill-rule="evenodd" stroke="#000" stroke-linejoin="round" stroke-width=".375" d="M5.23115268 2.42024112L-1.3243737.00960795l6.55552674-2.41063263C4.183854-.97778814 4.18988856.96944646 5.23115268 2.42024112z"/></marker><marker id="Y" orient="auto" overflow="visible"><path fill-rule="evenodd" stroke="#000" stroke-linejoin="round" stroke-width=".375" d="M-5.23115268-2.42024112L1.3243737-.00960795l-6.55552674 2.41063263c1.04729904-1.42323654 1.04126448-3.37047114 3.6e-7-4.8212658z"/></marker><marker id="T" orient="auto" overflow="visible"><path fill-rule="evenodd" stroke="#000" stroke-linejoin="round" stroke-width=".375" d="M-5.23115268-2.42024112L1.3243737-.00960795l-6.55552674 2.41063263c1.04729904-1.42323654 1.04126448-3.37047114 3.6e-7-4.8212658z"/></marker><marker id="U" orient="auto" overflow="visible"><path fill-rule="evenodd" stroke="#000" stroke-linejoin="round" stroke-width=".375" d="M5.23115268 2.42024112L-1.3243737.00960795l6.55552674-2.41063263C4.183854-.97778814 4.18988856.96944646 5.23115268 2.42024112z"/></marker><marker id="V" orient="auto" overflow="visible"><path fill-rule="evenodd" stroke="#000" stroke-linejoin="round" stroke-width=".375" d="M-5.23115268-2.42024112L1.3243737-.00960795l-6.55552674 2.41063263c1.04729904-1.42323654 1.04126448-3.37047114 3.6e-7-4.8212658z"/></marker><marker id="W" orient="auto" overflow="visible"><path fill-rule="evenodd" stroke="#000" stroke-linejoin="round" stroke-width=".375" d="M5.23115268 2.42024112L-1.3243737.00960795l6.55552674-2.41063263C4.183854-.97778814 4.18988856.96944646 5.23115268 2.42024112z"/></marker><marker id="R" orient="auto" overflow="visible"><path fill-rule="evenodd" stroke="#000" stroke-linejoin="round" stroke-width=".375" d="M-5.23115268-2.42024112L1.3243737-.00960795l-6.55552674 2.41063263c1.04729904-1.42323654 1.04126448-3.37047114 3.6e-7-4.8212658z"/></marker><marker id="S" orient="auto" overflow="visible"><path fill-rule="evenodd" stroke="#000" stroke-linejoin="round" stroke-width=".375" d="M5.23115268 2.42024112L-1.3243737.00960795l6.55552674-2.41063263C4.183854-.97778814 4.18988856.96944646 5.23115268 2.42024112z"/></marker><marker id="P" orient="auto" overflow="visible"><path fill-rule="evenodd" stroke="#000" stroke-linejoin="round" stroke-width=".375" d="M-5.23115268-2.42024112L1.3243737-.00960795l-6.55552674 2.41063263c1.04729904-1.42323654 1.04126448-3.37047114 3.6e-7-4.8212658z"/></marker><marker id="Q" orient="auto" overflow="visible"><path fill-rule="evenodd" stroke="#000" stroke-linejoin="round" stroke-width=".375" d="M5.23115268 2.42024112L-1.3243737.00960795l6.55552674-2.41063263C4.183854-.97778814 4.18988856.96944646 5.23115268 2.42024112z"/></marker><marker id="b" orient="auto" overflow="visible"><path fill-rule="evenodd" stroke="#000" stroke-width=".53333335" d="M-4 0l-2 2 7-2-7-2z"/></marker><marker id="c" orient="auto" overflow="visible"><path fill-rule="evenodd" stroke="#000" stroke-width=".53333335" d="M-4 0l-2 2 7-2-7-2z"/></marker><marker id="d" orient="auto" overflow="visible"><path fill-rule="evenodd" stroke="#000" stroke-width=".53333335" d="M-4 0l-2 2 7-2-7-2z"/></marker><marker id="e" orient="auto" overflow="visible"><path fill-rule="evenodd" stroke="#000" stroke-width=".53333335" d="M-4 0l-2 2 7-2-7-2z"/></marker><marker id="f" orient="auto" overflow="visible"><path fill-rule="evenodd" stroke="#000" stroke-width=".53333335" d="M-4 0l-2 2 7-2-7-2z"/></marker><clipPath id="a"><rect width="200" height="200" y="-225.04724" fill="none" stroke="#000" stroke-width="3" rx="0" ry="0"/></clipPath><clipPath id="k"><rect width="200" height="200" y="-225.04724" fill="none" stroke="#000" stroke-width="3" rx="0" ry="0"/></clipPath><marker id="l" orient="auto" overflow="visible"><path fill-rule="evenodd" stroke="#000" stroke-width=".53333335" d="M-4 0l-2 2 7-2-7-2z"/></marker><marker id="m" orient="auto" overflow="visible"><path fill-rule="evenodd" stroke="#000" stroke-width=".53333335" d="M-4 0l-2 2 7-2-7-2z"/></marker><marker id="n" orient="auto" overflow="visible"><path fill-rule="evenodd" stroke="#000" stroke-width=".53333335" d="M-4 0l-2 2 7-2-7-2z"/></marker><marker id="o" orient="auto" overflow="visible"><path fill-rule="evenodd" stroke="#000" stroke-width=".53333335" d="M-4 0l-2 2 7-2-7-2z"/></marker><marker id="p" orient="auto" overflow="visible"><path fill-rule="evenodd" stroke="#000" stroke-width=".53333335" d="M-4 0l-2 2 7-2-7-2z"/></marker><clipPath id="g"><rect width="200" height="200" y="-225.04724" fill="none" stroke="#000" stroke-width="3" rx="0" ry="0"/></clipPath><marker id="h" orient="auto" overflow="visible"><path fill-rule="evenodd" stroke="#000" stroke-width=".53333335" d="M-4 0l-2 2 7-2-7-2z"/></marker><marker id="i" orient="auto" overflow="visible"><path fill-rule="evenodd" stroke="#000" stroke-width=".53333335" d="M-4 0l-2 2 7-2-7-2z"/></marker><marker id="j" orient="auto" overflow="visible"><path fill-rule="evenodd" stroke="#000" stroke-width=".53333335" d="M-4 0l-2 2 7-2-7-2z"/></marker><clipPath id="q"><rect width="200" height="200" y="-225.04724" fill="none" stroke="#000" stroke-width="3" rx="0" ry="0"/></clipPath><marker id="r" orient="auto" overflow="visible"><path fill-rule="evenodd" stroke="#000" stroke-width=".53333335" d="M-4 0l-2 2 7-2-7-2z"/></marker><marker id="s" orient="auto" overflow="visible"><path fill-rule="evenodd" stroke="#000" stroke-width=".53333335" d="M-4 0l-2 2 7-2-7-2z"/></marker><marker id="t" orient="auto" overflow="visible"><path fill-rule="evenodd" stroke="#000" stroke-width=".53333335" d="M-4 0l-2 2 7-2-7-2z"/></marker><clipPath id="u"><rect width="200" height="200" y="-225.04724" fill="none" stroke="#000" stroke-width="3" rx="0" ry="0"/></clipPath><marker id="v" orient="auto" overflow="visible"><path fill-rule="evenodd" stroke="#000" stroke-width=".53333335" d="M-4 0l-2 2 7-2-7-2z"/></marker><marker id="w" orient="auto" overflow="visible"><path fill-rule="evenodd" stroke="#000" stroke-width=".53333335" d="M-4 0l-2 2 7-2-7-2z"/></marker><marker id="x" orient="auto" overflow="visible"><path fill-rule="evenodd" stroke="#000" stroke-width=".53333335" d="M-4 0l-2 2 7-2-7-2z"/></marker><marker id="y" orient="auto" overflow="visible"><path fill-rule="evenodd" stroke="#000" stroke-width=".53333335" d="M-4 0l-2 2 7-2-7-2z"/></marker><marker id="z" orient="auto" overflow="visible"><path fill-rule="evenodd" stroke="#000" stroke-width=".53333335" d="M-4 0l-2 2 7-2-7-2z"/></marker><clipPath id="A"><rect width="200" height="200" y="-225.04724" fill="none" stroke="#000" stroke-width="3" rx="0" ry="0"/></clipPath><marker id="B" orient="auto" overflow="visible"><path fill-rule="evenodd" stroke="#000" stroke-width=".53333335" d="M-4 0l-2 2 7-2-7-2z"/></marker><marker id="C" orient="auto" overflow="visible"><path fill-rule="evenodd" stroke="#000" stroke-width=".53333335" d="M-4 0l-2 2 7-2-7-2z"/></marker><marker id="D" orient="auto" overflow="visible"><path fill-rule="evenodd" stroke="#000" stroke-width=".53333335" d="M-4 0l-2 2 7-2-7-2z"/></marker><clipPath id="E"><rect width="200" height="200" y="-225.04724" fill="none" stroke="#000" stroke-width="3" rx="0" ry="0"/></clipPath><marker id="F" orient="auto" overflow="visible"><path fill-rule="evenodd" stroke="#000" stroke-width=".53333335" d="M-4 0l-2 2 7-2-7-2z"/></marker><marker id="G" orient="auto" overflow="visible"><path fill-rule="evenodd" stroke="#000" stroke-width=".53333335" d="M-4 0l-2 2 7-2-7-2z"/></marker><marker id="H" orient="auto" overflow="visible"><path fill-rule="evenodd" stroke="#000" stroke-width=".53333335" d="M-4 0l-2 2 7-2-7-2z"/></marker><marker id="I" orient="auto" overflow="visible"><path fill-rule="evenodd" stroke="#000" stroke-width=".53333335" d="M-4 0l-2 2 7-2-7-2z"/></marker><marker id="J" orient="auto" overflow="visible"><path fill-rule="evenodd" stroke="#000" stroke-width=".53333335" d="M-4 0l-2 2 7-2-7-2z"/></marker><clipPath id="K"><rect width="200" height="200" y="-225.04724" fill="none" stroke="#000" stroke-width="3" rx="0" ry="0"/></clipPath><marker id="L" orient="auto" overflow="visible"><path fill-rule="evenodd" stroke="#000" stroke-width=".53333335" d="M-4 0l-2 2 7-2-7-2z"/></marker><marker id="M" orient="auto" overflow="visible"><path fill-rule="evenodd" stroke="#000" stroke-width=".53333335" d="M-4 0l-2 2 7-2-7-2z"/></marker><marker id="N" orient="auto" overflow="visible"><path fill-rule="evenodd" stroke="#000" stroke-width=".53333335" d="M-4 0l-2 2 7-2-7-2z"/></marker><clipPath id="O"><rect width="200" height="200" y="-225.04724" fill="none" stroke="#000" stroke-width="3" rx="0" ry="0"/></clipPath><clipPath id="X"><rect width="200" height="200" y="-225.04724" fill="none" stroke="#000" stroke-width="3" rx="0" ry="0"/></clipPath></defs><g transform="translate(0 325.04724)"><g fill="none" stroke="#000" clip-path="url(#a)" transform="translate(12.5 -87.5)"><path d="M50-225.04724v200m50-200v200m50-200v200m-150-150h200m-200 50h200m-200 50h200"/><path stroke-width="5" marker-end="url(#b)" d="M175-200.04724l-50-50"/><path stroke-width="5" marker-end="url(#c)" d="M175-.0472393L125-50.047239"/><path stroke-width="5" marker-end="url(#d)" d="M25.000001-100.04724l-50-50"/><path stroke-width="5" marker-end="url(#e)" d="M225-100.04724l-50-50"/><path stroke-width="5" marker-end="url(#f)" d="M125-100.04724l-49.999999-50"/></g><g fill="none" stroke="#000" clip-path="url(#g)" transform="translate(237.5 -87.499999)"><path d="M50-225.04724v200m50-200v200m50-200v200m-150-150h200m-200 50h200m-200 50h200"/><path stroke-width="5" marker-end="url(#h)" d="M75-200.04724v-50"/><path stroke-width="5" marker-end="url(#i)" d="M75-.047241v-50.000001"/><path stroke-width="5" marker-end="url(#j)" d="M75-100.04724v-50"/></g><g fill="none" stroke="#000" clip-path="url(#k)" transform="translate(462.5 -87.5)"><path d="M50-225.04724v200m50-200v200m50-200v200m-150-150h200m-200 50h200m-200 50h200"/><path stroke-width="5" marker-end="url(#l)" d="M175-100.04724l50-50"/><path stroke-width="5" marker-end="url(#m)" d="M-25-100.04724l50-50"/><path stroke-width="5" marker-end="url(#n)" d="M75-200.04724l50-50"/><path stroke-width="5" marker-end="url(#o)" d="M75-.047241l50-50"/><path stroke-width="5" marker-end="url(#p)" d="M75-100.04724l50-50"/></g><g fill="none" stroke="#000" clip-path="url(#q)" transform="translate(687.5 -87.5)"><path d="M50-225.04724v200m50-200v200m50-200v200m-150-150h200m-200 50h200m-200 50h200"/><path stroke-width="5" marker-end="url(#r)" d="M175-150.04724h50"/><path stroke-width="5" marker-end="url(#s)" d="M-25-150.04724h50"/><path stroke-width="5" marker-end="url(#t)" d="M75-150.04724h50"/></g><g fill="none" stroke="#000" clip-path="url(#u)" transform="translate(12.5 137.5)"><path d="M50-225.04724v200m50-200v200m50-200v200m-150-150h200m-200 50h200m-200 50h200"/><path stroke-width="5" marker-end="url(#v)" d="M175-150.04724l50 50"/><path stroke-width="5" marker-end="url(#w)" d="M-25-150.04724l50 50"/><path stroke-width="5" marker-end="url(#x)" d="M75-250.04724l50 50"/><path stroke-width="5" marker-end="url(#y)" d="M75-50.047241L125-.04724"/><path stroke-width="5" marker-end="url(#z)" d="M75-150.04724l50 50"/></g><g fill="none" stroke="#000" clip-path="url(#A)" transform="translate(237.5 137.5)"><path d="M50-225.04724v200m50-200v200m50-200v200m-150-150h200m-200 50h200m-200 50h200"/><path stroke-width="5" marker-end="url(#B)" d="M125-250.04724v50"/><path stroke-width="5" marker-end="url(#C)" d="M125-50.04724V-.047242"/><path stroke-width="5" marker-end="url(#D)" d="M125-150.04724v50"/></g><g fill="none" stroke="#000" clip-path="url(#E)" transform="translate(462.5 137.5)"><path d="M50-225.04724v200m50-200v200m50-200v200m-150-150h200m-200 50h200m-200 50h200"/><path stroke-width="5" marker-end="url(#F)" d="M225-150.04724l-50 50"/><path stroke-width="5" marker-end="url(#G)" d="M25-150.04724l-50 50"/><path stroke-width="5" marker-end="url(#H)" d="M125-250.04724l-50 50"/><path stroke-width="5" marker-end="url(#I)" d="M125-50.04724l-50 50"/><path stroke-width="5" marker-end="url(#J)" d="M125-150.04724l-50 50"/></g><g fill="none" stroke="#000" clip-path="url(#K)" transform="translate(687.5 137.5)"><path d="M50-225.04724v200m50-200v200m50-200v200m-150-150h200m-200 50h200m-200 50h200"/><path stroke-width="5" marker-end="url(#L)" d="M225-100.04724h-50"/><path stroke-width="5" marker-end="url(#M)" d="M25-100.04724h-50"/><path stroke-width="5" marker-end="url(#N)" d="M125-100.04724H75"/></g><g fill="none" clip-path="url(#O)" transform="translate(12.5 362.5)"><path stroke="gray" d="M50-225.04724v200m100-200v200m-150-150h200m-200 50h200m-200 50h200"/><path stroke="#000" stroke-width="2" d="M100-225.04724v200"/><path stroke="#000" stroke-width="5" marker-end="url(#P)" marker-start="url(#Q)" d="M50-125.04724s25-25 50-25 50 25 50 25"/></g><g fill="none" clip-path="url(#O)" transform="translate(237.5 362.5)"><path stroke="gray" d="M50-225.04724v200m100-200v200m-150-150h200m-200 100h200m-100-150v200"/><path stroke="#000" stroke-width="5" marker-end="url(#R)" marker-start="url(#S)" d="M100-175.04724s25 25 25 50-25 50-25 50"/><path stroke="#000" stroke-width="2" d="M0-125.04724h200"/></g><g fill="none" clip-path="url(#O)" transform="translate(462.5 362.5)"><path stroke="gray" d="M50-225.04724v200m100-200v200m-150-150h200m-200 50h200m-200 50h200m-100-150v200"/><path stroke="#000" stroke-width="5" marker-end="url(#T)" marker-start="url(#U)" d="M50-75.04724s0-50 25-75 75-25 75-25"/><path stroke="#000" stroke-width="2" d="M0-225.04724l200 200"/></g><g fill="none" clip-path="url(#O)" transform="translate(687.5 362.5)"><path stroke="gray" d="M50-225.04724v200m100-200v200m-150-150h200m-200 50h200m-200 50h200m-100-150v200"/><path stroke="#000" stroke-width="5" marker-end="url(#V)" marker-start="url(#W)" d="M50-175.04724s50 0 75 25 25 75 25 75"/><path stroke="#000" stroke-width="2" d="M200-225.04724l-200 200"/></g><g clip-path="url(#X)" transform="translate(12.5 587.5)"><path fill="none" stroke="#000" d="M50-225.04724v200m100-200v200m-150-150h200m-200 50h200m-200 50h200m-100-150v200"/><path fill="none" stroke="#000" stroke-width="5" marker-end="url(#Y)" d="M164.95191-87.547241a75 75 0 0 1-84.363338 34.944437A75 75 0 0 1 25-125.04724a75 75 0 0 1 55.58857-72.44444 75 75 0 0 1 84.36333 34.94444"/><circle cx="100" cy="-125.04724" r="40" fill="#fff" fill-opacity=".8627451"/><text x="99.90625" y="-109.73474" font-family="Special Elite" font-size="43" text-anchor="middle"><tspan x="99.90625" y="-109.73474">90°</tspan></text></g><g clip-path="url(#X)" transform="translate(237.5 587.5)"><path fill="none" stroke="#000" d="M50-225.04724v200m100-200v200m-150-150h200m-200 50h200m-200 50h200m-100-150v200"/><path fill="none" stroke="#000" stroke-width="5" marker-start="url(#Z)" d="M164.95191-87.547241a75 75 0 0 1-84.363338 34.944437A75 75 0 0 1 25-125.04724a75 75 0 0 1 55.58857-72.44444 75 75 0 0 1 84.36333 34.94444"/><circle cx="100" cy="-125.04724" r="40" fill="#fff" fill-opacity=".8627451"/><text x="99.90625" y="-109.73474" font-family="Special Elite" font-size="43" text-anchor="middle"><tspan x="99.90625" y="-109.73474">90°</tspan></text></g><g clip-path="url(#X)" transform="translate(462.5 587.5)"><path fill="none" stroke="#000" d="M50-225.04724v200m100-200v200m-150-150h200m-200 50h200m-200 50h200m-100-150v200"/><path fill="none" stroke="#000" stroke-width="5" marker-end="url(#Y)" d="M164.95191-87.547241a75 75 0 0 1-84.363338 34.944437A75 75 0 0 1 25-125.04724a75 75 0 0 1 55.58857-72.44444 75 75 0 0 1 84.36333 34.94444"/><circle cx="100" cy="-125.04724" r="40" fill="#fff" fill-opacity=".8627451"/><text x="99.90625" y="-109.73474" font-family="Special Elite" font-size="43" text-anchor="middle"><tspan x="99.90625" y="-109.73474">180°</tspan></text></g><g clip-path="url(#a)" transform="translate(687.5 587.5)"><path fill="none" stroke="#000" d="M50-225.04724v200m50-200v200m50-200v200m-150-150h200m-200 50h200m-200 50h200"/><circle cx="75" cy="-150.04724" r="12.5"/></g><rect width="200" height="200" x="12.5" y="-312.54724" fill="none" stroke="#000" stroke-width="3" rx="0" ry="0"/><rect width="200" height="200" x="237.5" y="-312.54724" fill="none" stroke="#000" stroke-width="3" rx="0" ry="0"/><rect width="200" height="200" x="462.5" y="-312.54724" fill="none" stroke="#000" stroke-width="3" rx="0" ry="0"/><rect width="200" height="200" x="687.5" y="-312.54724" fill="none" stroke="#000" stroke-width="3" rx="0" ry="0"/><rect width="200" height="200" x="12.5" y="-87.547241" fill="none" stroke="#000" stroke-width="3" rx="0" ry="0"/><rect width="200" height="200" x="237.5" y="-87.547241" fill="none" stroke="#000" stroke-width="3" rx="0" ry="0"/><rect width="200" height="200" x="462.5" y="-87.547241" fill="none" stroke="#000" stroke-width="3" rx="0" ry="0"/><rect width="200" height="200" x="687.5" y="-87.547241" fill="none" stroke="#000" stroke-width="3" rx="0" ry="0"/><rect width="200" height="200" x="12.5" y="137.45276" fill="none" stroke="#000" stroke-width="3" rx="0" ry="0"/><rect width="200" height="200" x="237.5" y="137.45276" fill="none" stroke="#000" stroke-width="3" rx="0" ry="0"/><rect width="200" height="200" x="462.5" y="137.45276" fill="none" stroke="#000" stroke-width="3" rx="0" ry="0"/><rect width="200" height="200" x="687.5" y="137.45276" fill="none" stroke="#000" stroke-width="3" rx="0" ry="0"/><rect width="200" height="200" x="12.5" y="362.45276" fill="none" stroke="#000" stroke-width="3" rx="0" ry="0"/><rect width="200" height="200" x="237.5" y="362.45276" fill="none" stroke="#000" stroke-width="3" rx="0" ry="0"/><rect width="200" height="200" x="462.5" y="362.45276" fill="none" stroke="#000" stroke-width="3" rx="0" ry="0"/><rect width="200" height="200" x="687.5" y="362.45276" fill="none" stroke="#000" stroke-width="3" rx="0" ry="0"/></g></svg>