<svg xmlns="http://www.w3.org/2000/svg" viewBox="3.97 3.97 18.52 18.52"><path fill="#222" fill-opacity=".75" stroke="#222" stroke-linecap="round" stroke-linejoin="bevel" stroke-width=".27" d="M17.2 13.23a3.97 3.97 0 0 1-3.97 3.97 3.97 3.97 0 0 1-3.97-3.97 3.97 3.97 0 0 1 3.97-3.97 3.97 3.97 0 0 1 3.97 3.97z"/><g fill="none" stroke="#222" stroke-linecap="round"><path stroke-dasharray="0.26499999,0.52999997" stroke-width=".27" d="M6.62 13.23h13.22"/><path stroke-dasharray="0.265, 0.53" stroke-linejoin="bevel" stroke-width=".27" d="M19.84 13.23a6.62 6.62 0 0 1-6.61 6.61 6.62 6.62 0 0 1-6.61-6.61 6.62 6.62 0 0 1 6.6-6.62 6.62 6.62 0 0 1 6.62 6.62z"/><path stroke-dasharray="0.26499999,0.52999997" stroke-width=".27" d="M13.23 6.62v13.22"/><path stroke-linejoin="round" stroke-width=".13" d="M8.47 12.7H7.4m.26-.27-.26.27.26.26"/></g><path fill="#222" d="M7.96 11.76v.77h.22v.04l-.03.01H7.7l-.01-.03v-.02h.22v-.7l-.18.06H7.7l-.01-.02v-.02l.03-.01z" aria-label="1"/><path fill="none" stroke="#222" stroke-linecap="round" stroke-linejoin="round" stroke-width=".13" d="M19.05 12.7h-1.06m.8.27.26-.27-.27-.26"/><path fill="#222" d="M18.31 12.53h.42v-.05h.05q.02 0 0 .03v.08h-.52v-.08l.32-.3.1-.11.04-.06v-.05q0-.07-.05-.13-.05-.05-.13-.05-.07 0-.13.04-.05.04-.07.1l-.01.02h-.04v-.02q0-.03.03-.08t.1-.08q.05-.03.12-.03.1 0 .17.07t.07.16v.06l-.05.07-.1.12-.32.29z" aria-label="2"/><path fill="none" stroke="#222" stroke-linecap="round" stroke-linejoin="round" stroke-width=".13" d="m8.58 7.83-.75.75m0-.38v.38h.37"/><path fill="#222" d="M8.05 7.64q.08.03.12.09.04.06.04.12 0 .1-.08.17-.08.08-.2.08-.07 0-.15-.03-.07-.03-.1-.06l-.01-.03v-.01l.02-.01h.03q.1.08.21.08.1 0 .16-.05.06-.07.06-.14 0-.05-.03-.1-.03-.04-.09-.06-.06-.03-.12-.03h-.03V7.6h.07q.08 0 .12-.05.05-.04.05-.1 0-.06-.05-.11t-.13-.05l-.1.02q-.05.02-.08.06l-.01.01H7.7v-.02q0-.03.05-.07.08-.05.18-.05.1 0 .17.06t.07.15q0 .05-.04.1-.03.05-.09.08z" aria-label="3"/><path fill="none" stroke="#222" stroke-linecap="round" stroke-linejoin="round" stroke-width=".13" d="m17.88 7.83.75.75m-.37 0h.37V8.2"/><path fill="#222" d="M18.63 7.85h-.36V7.8l.3-.52h.12v.53h.07v.04l-.03.01h-.04v.17h.04l.03.01v.04h-.26v-.04h.13zm0-.05v-.48h-.03l-.27.48z" aria-label="4"/><path fill="none" stroke="#222" stroke-linecap="round" stroke-linejoin="round" stroke-width=".13" d="M12.7 8.47V7.4m.27.26-.27-.26-.26.26"/><path fill="#222" d="M12.02 7.84v.27l.1-.03.08-.01q.1 0 .17.07t.07.19q0 .13-.08.2-.08.09-.2.09-.07 0-.14-.04l-.1-.06-.02-.03.01-.02.02-.01.02.01q.1.1.22.1.09 0 .15-.07t.06-.17q0-.1-.05-.15-.05-.06-.14-.06-.08 0-.17.05h-.04l-.01-.02v-.36h.41v.05h-.03z" aria-label="5"/><path fill="none" stroke="#222" stroke-linecap="round" stroke-linejoin="round" stroke-width=".13" d="M12.7 19.05v-1.06m-.27.8.27.26.26-.27"/><path fill="#222" d="M11.98 18.32q.05-.08.1-.11.05-.04.12-.04.09 0 .15.08t.07.17q0 .1-.06.18-.06.08-.17.08-.07 0-.13-.04t-.1-.14q-.04-.1-.04-.24 0-.1.04-.2.03-.06.08-.11l.12-.09q.07-.03.15-.03.06 0 .1.02v.05h-.04l-.06-.01q-.13 0-.23.1-.1.11-.1.26v.07zm.01.09q.03.12.08.17.05.05.12.05.07 0 .13-.06.05-.06.05-.15 0-.08-.06-.14-.05-.05-.11-.05t-.12.05q-.04.04-.09.13z" aria-label="6"/></svg>