<svg xmlns="http://www.w3.org/2000/svg" xml:space="preserve" display="block" style="width:90%;margin:0 auto" viewBox="0 0 400 550"><path fill="#141f2c" d="M-230-155h860v860h-860z"/><path fill="#fff" d="m20 10-4 4 4 4h36l4-4-4-4H20zm130 0-4 4 4 4h36l4-4-4-4h-36zm65 0-4 4 4 4h36l4-4-4-4h-36zm130 0-4 4 4 4h36l4-4-4-4h-36zM14 16l-4 4v16l4 4 4-4V20l-4-4zm48 0-4 4v16l4 4 4-4V20l-4-4zm65 0-4 4v16l4 4 4-4V20l-4-4zm65 0-4 4v16l4 4 4-4V20l-4-4zm65 0-4 4v16l4 4 4-4V20l-4-4zm17 0-4 4v16l4 4 4-4V20l-4-4zm48 0-4 4v16l4 4 4-4V20l-4-4zm17 0-4 4v16l4 4 4-4V20l-4-4zM52 20l-8 10v6h4l8-10v-6h-4zm98 18-4 4 4 4h12l4-4-4-4h-12zm24 0-4 4 4 4h12l4-4-4-4h-12zm41 0-4 4 4 4h12l4-4-4-4h-12zm24 0-4 4 4 4h12l4-4-4-4h-12zm41 0-4 4 4 4h12l4-4-4-4h-12zm24 0-4 4 4 4h12l4-4-4-4h-12zm41 0-4 4 4 4h12l4-4-4-4h-12zm24 0-4 4 4 4h12l4-4-4-4h-12zM14 44l-4 4v16l4 4 4-4V48l-4-4zm48 0-4 4v16l4 4 4-4V48l-4-4zm65 0-4 4v16l4 4 4-4V48l-4-4zm17 0-4 4v16l4 4 4-4V48l-4-4zm113 0-4 4v16l4 4 4-4V48l-4-4zm65 0-4 4v16l4 4 4-4V48l-4-4zm65 0-4 4v16l4 4 4-4V48l-4-4zM28 48l-8 10v6h4l8-10v-6h-4zm-8 18-4 4 4 4h36l4-4-4-4H20zm130 0-4 4 4 4h36l4-4-4-4h-36zm65 0-4 4 4 4h36l4-4-4-4h-36zm130 0-4 4 4 4h36l4-4-4-4h-36zM38 79.300781c-2.699991 0-4 1.898447-4 5.398438 0 3.599988 1.300009 5.5 4 5.5s4-2.000012 4-5.5c0-3.499991-1.300009-5.398438-4-5.398438zm130 0c-2.2 0-3.60078 1.298832-3.80078 3.298828l1.40039.59961c.2-1.499998 1.00078-2.398438 2.30078-2.398438 1.2 0 2 .79844 2 1.898438 0 1.699996-1.40039 3.200006-5.40039 6V90h7.30078v-1.5h-5c3.5-2.199996 4.79883-3.900395 4.79883-5.900391 0-1.799996-1.29961-3.298828-3.59961-3.298828zm65.09961 0c-1.7 0-3.09961.79844-3.59961 2.398438l1.59961.601562c.2-.999998.9-1.5 2-1.5s1.80117.499612 1.70117 1.59961c0 1.099998-.6 1.599609-2 1.599609h-.40039v1.400391h.5c1.5 0 2.19922.400002 2.19922 1.5 0 .999998-.8 1.798828-2 1.798828-1.4 0-2.00039-.69844-2.40039-1.898438l-1.5.798828c.6 1.699998 1.90078 2.59961 3.80078 2.59961 2.3 0 3.80078-1.300004 3.80078-3 0-1.599998-1.00117-2.5-2.20117-2.5 1 0 2-.999612 2-2.59961 0-1.599996-1.2-2.798828-3.5-2.798828zm-129.19922.09961c-.6.799998-2.40117 1.8-3.20117 2L101 82.800781c1-.2 1.99922-.8 2.69922-1.5V90h1.60156V79.400391h-1.40039zm194.5 0-4.70117 7v1h5.20117V90H300.5v-2.599609h1.80078V86H300.5v-6.599609h-2.09961zm61.79883 0-.69922 6 1.40039.099609c.5-.599998 1.19922-.900391 2.19922-.900391 1.3 0 2 .700004 2 2 0 1.399998-.79961 2.09961-2.09961 2.09961-1.4 0-1.89922-.699221-2.19922-1.699219l-1.60156.800781c.7 1.599998 1.90078 2.398438 3.80078 2.398438 2.3 0 3.80078-1.299614 3.80078-3.59961 0-1.999996-1.30078-3.40039-3.30078-3.40039-1.1 0-1.90039.300392-2.40039.90039v-.298828l.40039-2.90039h4.80078v-1.5h-6.10156zM38 80.699219c1.499996 0 2.300781 1.400006 2.300781 4 0 2.699991-.800785 4-2.300781 4-1.499996 0-2.300781-1.300009-2.300781-4 0-2.599994.800785-4 2.300781-4zm260.90039 0H299l-.09961 1.701172V86h-3.5l2.5-3.5 1-1.800781zM20 100l-4 4 4 4h36l4-4-4-4H20zm65 0-4 4 4 4h36l4-4-4-4H85zm65 0-4 4 4 4h36l4-4-4-4h-36zm65 0-4 4 4 4h36l4-4-4-4h-36zm65 0-4 4 4 4h36l4-4-4-4h-36zm65 0-4 4 4 4h36l4-4-4-4h-36zm-331 6-4 4v16l4 4 4-4v-16l-4-4zm65 0-4 4v16l4 4 4-4v-16l-4-4zm48 0-4 4v16l4 4 4-4v-16l-4-4zm17 0-4 4v16l4 4 4-4v-16l-4-4zm48 0-4 4v16l4 4 4-4v-16l-4-4zm17 0-4 4v16l4 4 4-4v-16l-4-4zm48 0-4 4v16l4 4 4-4v-16l-4-4zm17 0-4 4v16l4 4 4-4v-16l-4-4zm48 0-4 4v16l4 4 4-4v-16l-4-4zm65 0-4 4v16l4 4 4-4v-16l-4-4zm-28 4v16l4 4 4-4v-16h-8zM20 128l-4 4 4 4h12l4-4-4-4H20zm24 0-4 4 4 4h12l4-4-4-4H44zm106 0-4 4 4 4h12l4-4-4-4h-12zm24 0-4 4 4 4h12l4-4-4-4h-12zm41 0-4 4 4 4h12l4-4-4-4h-12zm24 0-4 4 4 4h12l4-4-4-4h-12zm41 0-4 4 4 4h12l4-4-4-4h-12zm24 0-4 4 4 4h12l4-4-4-4h-12zm65 0-4 4 4 4h12l4-4-4-4h-12zm-355 6-4 4v16l4 4 4-4v-16l-4-4zm48 0-4 4v16l4 4 4-4v-16l-4-4zm65 0-4 4v16l4 4 4-4v-16l-4-4zm17 0-4 4v16l4 4 4-4v-16l-4-4zm48 0-4 4v16l4 4 4-4v-16l-4-4zm65 0-4 4v16l4 4 4-4v-16l-4-4zm17 0-4 4v16l4 4 4-4v-16l-4-4zm48 0-4 4v16l4 4 4-4v-16l-4-4zm41 0-4 4v16h8v-16l-4-4zm24 0-4 4v16l4 4 4-4v-16l-4-4zM20 156l-4 4 4 4h36l4-4-4-4H20zm130 0-4 4 4 4h36l4-4-4-4h-36zm65 0-4 4 4 4h36l4-4-4-4h-36zm130 0-4 4 4 4h36l4-4-4-4h-36zM38.300781 169.40039c-2.399991 0-4.201172 1.80039-4.201172 5.40039 0 3.3 1.501181 5.5 4.201172 5.5 2.299994 0 3.699219-1.4 3.699219-3.5 0-2-1.400006-3.40039-3.5-3.40039-1.199997 0-2.400784.59883-2.800781 1.79883v-.29883c0-2.3 1.001568-4 2.601562-4 1.099997 0 1.700003.5 2 1.5l1.5-.80078c-.599997-1.6-1.700396-2.19922-3.40039-2.19922h-.09961zm129.699219 0c-2.1 0-3.5.99883-3.5 2.79883 0 1.1.59961 2.00039 1.59961 2.40039-1.3.4-2 1.40117-2 2.70117 0 1.8 1.5 3 4 3 2.4 0 4-1.2 4-3 0-1.4-.8-2.30117-2-2.70117 1-.4 1.5-1.30039 1.5-2.40039 0-1.7-1.39961-2.79883-3.59961-2.79883zm64.80078 0c-2.3 0-3.80078 1.3-3.80078 3.5 0 2 1.49961 3.40039 3.59961 3.40039 1.1 0 2.50078-.50078 2.80078-1.80078v.09961c0 2.6-.59961 4.20117-2.59961 4.20117-1.4 0-1.80156-.70117-2.10156-1.70117l-1.59961.80078c.6 1.6 1.80117 2.40039 3.70117 2.40039 2.7 0 4.19922-1.8 4.19922-5.5 0-3.3-1.49922-5.40039-4.19922-5.40039zm130.29883 0L359 169.5V180h4.19922c2.5 0 3.80078-1.1 3.80078-3 0-1.1-.79961-2.10078-2.09961-2.30078a2.2 2.2 0 0 0 1.90039-2.39844c0-1.8-1.20117-2.90039-3.70117-2.90039zM99 169.5v1.5h6.30078a13 13 0 0 0-3.60156 9.09961h1.70117c0-3.5.99922-6.39961 3.69922-9.09961v-1.5H99zm198 0-4 10.59961h1.80078l1-2.79883h4.39844l1 2.79883H303L299 169.5h-2zm-129 1.30078c1.2 0 1.90039.59961 1.90039 1.59961s-.70039 1.5-1.90039 1.5c-1 0-1.80078-.6-1.80078-1.5 0-1 .70078-1.59961 1.80078-1.59961zm64.80078 0v.09961c1.3 0 2 .8 2 2 0 1.1-.7 1.90039-2 1.90039s-2-.7-2-2c0-1.2.7-2 2-2zM298 171l.5 1.5 1.19922 3.40039h-3.39844L297.5 172.5l.5-1.5zm62.59961 0H363c1.3 0 2 .5 2 1.5s-.7 1.59961-2 1.59961h-2.40039V171zm-322.298829 3.80078v.09961c1.299997 0 2 .70039 2 1.90039 0 1.3-.700003 2-2 2-1.299994 0-2-.8-2-2 0-1.1.700006-2 2-2zm129.699219.5c1.4 0 2.30078.69883 2.30078 1.79883 0 1-.90078 1.70117-2.30078 1.70117-1.3 0-2.19922-.60117-2.19922-1.70117S166.7 175.30078 168 175.30078zm192.59961.19922h2.70117c1.3 0 2 .59961 2 1.59961s-.7 1.59961-2 1.59961h-2.70117V175.5zM20 190l-4 4 4 4h36l4-4-4-4H20zm65 0-4 4 4 4h36l4-4-4-4H85zm65 0-4 4 4 4h36l4-4-4-4h-36zm65 0-4 4 4 4h36l4-4-4-4h-36zm65 0-4 4 4 4h36l4-4-4-4h-36zm-266 6-4 4v16l4 4 4-4v-16l-4-4zm113 0-4 4v16l4 4 4-4v-16l-4-4zm17 0-4 4v16l4 4 4-4v-16l-4-4zm65 0-4 4v16l4 4 4-4v-16l-4-4zm65 0-4 4v16l4 4 4-4v-16l-4-4zm65 0-4 4v16l4 4 4-4v-16l-4-4zm48 0-4 4v16l4 4 4-4v-16l-4-4zm-288 4v16l4 4 4-4v-16h-8zm51 18-4 4 4 4h12l4-4-4-4h-12zm24 0-4 4 4 4h12l4-4-4-4h-12zm41 0-4 4 4 4h12l4-4-4-4h-12zm24 0-4 4 4 4h12l4-4-4-4h-12zm65 0-4 4 4 4h12l4-4-4-4h-12zm41 0-4 4 4 4h12l4-4-4-4h-12zm24 0-4 4 4 4h12l4-4-4-4h-12zm-355 6-4 4v16l4 4 4-4v-16l-4-4zm89 0-4 4v16h8v-16l-4-4zm24 0-4 4v16l4 4 4-4v-16l-4-4zm17 0-4 4v16l4 4 4-4v-16l-4-4zm65 0-4 4v16l4 4 4-4v-16l-4-4zm65 0-4 4v16l4 4 4-4v-16l-4-4zm48 0-4 4v16l4 4 4-4v-16l-4-4zm17 0-4 4v16l4 4 4-4v-16l-4-4zm48 0-4 4v16l4 4 4-4v-16l-4-4zM20 246l-4 4 4 4h36l4-4-4-4H20zm65 0-4 4 4 4h36l4-4-4-4H85zm65 0-4 4 4 4h36l4-4-4-4h-36zm130 0-4 4 4 4h36l4-4-4-4h-36zM38.5 259.40039c-2.999994 0-5 2.00039-5 5.40039s2.000006 5.5 5 5.5c1.999996 0 3.700783-1 4.300781-3l-1.601562-.5c-.4 1.3-1.399221 2-2.699219 2-1.999996 0-3.199219-1.5-3.199219-4s1.298832-4 3.298828-4c1.299998 0 2.000002.59844 2.5 1.89844L42.699219 262c-.7-1.7-2.099223-2.59961-4.199219-2.59961zm63.90039 0-3.800781.09961V270h3.800781c3.3 0 5.19922-1.90078 5.19922-5.30078 0-3.4-1.99922-5.29883-5.19922-5.29883zm69.59961 0-7.80078.09961V270H172v-1.5h-6v-3.09961h4.59961V264H166v-3h6v-1.59961zm64.90039 0-7.59961.09961V270H231v-4.5h4.59961V264H231v-3h5.90039v-1.59961zm61.40039 0c-3 0-5 2.00039-5 5.40039s2 5.5 5 5.5c1.5 0 2.49961-.6 3.09961-1.5v1.29883h1.40039v-5.5H298v1.5h3.19922v.30078c0 1.6-1.19883 2.40039-2.79883 2.40039-2.2 0-3.30078-1.5-3.30078-4s1.30078-4 3.30078-4c1.3 0 2.29922.69883 2.69922 1.79883l1.59961-.69922c-.8-1.7-2.19844-2.5-4.39844-2.5zm62.09961 0-1.80078.09961V270h1.80078v-4.59961h5.19922V270h1.70117v-10.59961h-1.70117v4.5h-5.19922v-4.5zm-260 1.59961h2c2.2 0 3.40039 1.40078 3.40039 3.80078 0 2.5-1.20039 3.79883-3.40039 3.79883h-2V261zM20 280l-4 4 4 4h36l4-4-4-4H20zm107 6-4 4v16l4 4 4-4v-16l-4-4zm17 0-4 4v16l4 4 4-4v-16l-4-4zm65 0-4 4v16l4 4 4-4v-16l-4-4zm65 0-4 4v16l4 4 4-4v-16l-4-4zm48 0-4 4v16l4 4 4-4v-16l-4-4zm17 0-4 4v16l4 4 4-4v-16l-4-4zm48 0-4 4v16l4 4 4-4v-16l-4-4zm-353 4v16l4 4 4-4v-16h-8zm148 0-8 10v6h4l8-10v-6h-4zm98 0v6l8 10h4v-6l-8-10h-4zm32 0-8 10v6h4l8-10v-6h-4zm33 0v6l8 10h4v-6l-8-10h-4zm-195 18-4 4 4 4h12l4-4-4-4h-12zm-112 6-4 4v16h8v-16l-4-4zm41 0-4 4v16l4 4 4-4v-16l-4-4zm48 0-4 4v16l4 4 4-4v-16l-4-4zm17 0-4 4v16l4 4 4-4v-16l-4-4zm65 0-4 4v16l4 4 4-4v-16l-4-4zm65 0-4 4v16l4 4 4-4v-16l-4-4zm24 0-4 4v16h8v-16l-4-4zm24 0-4 4v16l4 4 4-4v-16l-4-4zm17 0-4 4v16l4 4 4-4v-16l-4-4zm48 0-4 4v16l4 4 4-4v-16l-4-4zm-213 4v6l8 10h4v-6l-8-10h-4zm195 0v6l8 10h4v-6l-8-10h-4zM20 336l-4 4 4 4h36l4-4-4-4H20zm65 0-4 4 4 4h36l4-4-4-4H85zm130 0-4 4 4 4h36l4-4-4-4h-36zM39 349.40039l-1.900391.09961V360H39v-10.59961zm126.30078 0-1.70117.09961V360h1.70117v-3.19922L167 354.90039 170.40039 360h2l-4.09961-6.19922 4-4.40039h-2.10156l-4.89844 5.29883v-5.29883zm129.79883 0-2.5.09961V360h1.59961v-6.09961l-.09961-3L297.30078 360h1.39844l3.20117-9v9h1.5v-10.59961h-2.5l-2.09961 6.19922-.80078 2.5-.69922-2.5-2.20117-6.19922zm65.59961 0-2 .09961V360h1.5v-8.59961l1 2L365.30078 360h2v-10.59961h-1.60156v6.90039L365.80078 358l-1-2-4.10156-6.59961zM104.90039 349.5v6.5c0 1.8-.49961 2.80078-2.09961 2.80078-1.5 0-2.00117-.90117-1.70117-2.70117l-1.699219.30078c-.4 2.3.800389 3.90039 3.400389 3.90039 2.4 0 3.79883-1.5 3.79883-4V349.5h-1.69922zm124.29883 0V360h7.60156v-1.5h-5.90039v-9h-1.70117zM20 370l-4 4 4 4h36l4-4-4-4H20zm65 0-4 4 4 4h36l4-4-4-4H85zm65 0-4 4 4 4h36l4-4-4-4h-36zm65 0-4 4 4 4h36l4-4-4-4h-36zm65 0-4 4 4 4h36l4-4-4-4h-36zm65 0-4 4 4 4h36l4-4-4-4h-36zm-331 6-4 4v16l4 4 4-4v-16l-4-4zm48 0-4 4v16l4 4 4-4v-16l-4-4zm17 0-4 4v16l4 4 4-4v-16l-4-4zm48 0-4 4v16l4 4 4-4v-16l-4-4zm17 0-4 4v16l4 4 4-4v-16l-4-4zm48 0-4 4v16l4 4 4-4v-16l-4-4zm17 0-4 4v16l4 4 4-4v-16l-4-4zm48 0-4 4v16l4 4 4-4v-16l-4-4zm17 0-4 4v16l4 4 4-4v-16l-4-4zm6 4v6l8 10h4v-6l-8-10h-4zm79 0v16l4 4 4-4v-16h-8zM85 398l-4 4 4 4h12l4-4-4-4H85zm24 0-4 4 4 4h12l4-4-4-4h-12zm106 0-4 4 4 4h12l4-4-4-4h-12zm24 0-4 4 4 4h12l4-4-4-4h-12zm41 0-4 4 4 4h12l4-4-4-4h-12zm24 0-4 4 4 4h12l4-4-4-4h-12zm-290 6-4 4v16l4 4 4-4v-16l-4-4zm48 0-4 4v16l4 4 4-4v-16l-4-4zm17 0-4 4v16l4 4 4-4v-16l-4-4zm65 0-4 4v16l4 4 4-4v-16l-4-4zm48 0-4 4v16l4 4 4-4v-16l-4-4zm17 0-4 4v16l4 4 4-4v-16l-4-4zm113 0-4 4v16l4 4 4-4v-16l-4-4zm41 0-4 4v16h8v-16l-4-4zm-189 4v6l8 10h4v-6l-8-10h-4zm65 0v6l8 10h4v-6l-8-10h-4zm65 0v6l8 10h4v-6l-8-10h-4zM20 426l-4 4 4 4h36l4-4-4-4H20zm130 0-4 4 4 4h36l4-4-4-4h-36zm130 0-4 4 4 4h36l4-4-4-4h-36zM38 439.40039c-2.999991 0-5 2.00039-5 5.40039s2.000009 5.5 5 5.5 5-2.1 5-5.5c0-3.3-2.000009-5.40039-5-5.40039zm65.19922 0-4.099611.09961V450h1.701171v-4h2.39844c2.2 0 3.70117-1.20078 3.70117-3.30078 0-2-1.50117-3.29883-3.70117-3.29883zm64.80078 0c-3 0-5 2.00039-5 5.40039 0 3.1 1.60078 5.09844 4.30078 5.39844 0 2.2 1.39922 3 3.19922 3 1 0 2-.19922 2.5-.69922l-.5-1.40039c-.4.4-1.1.59961-2 .59961-1 0-1.70039-.2-1.90039-1.5 2.7-.2 4.40039-2.29844 4.40039-5.39844 0-3.3-2-5.40039-5-5.40039zm65 0-4.30078.09961V450h1.70117v-4.19922h2.29883L235.30078 450h2l-2.90039-4.40039a3 3 0 0 0 2.29883-3c0-2-1.39922-3.19922-3.69922-3.19922zm65.09961 0c-2.6 0-4.09961 1.39922-4.09961 3.19922 0 1.7 1 2.59961 4 3.09961 2 .4 2.59961.80156 2.59961 1.60156 0 1-1.00039 1.5-2.40039 1.5-1.6 0-2.69844-.60039-3.39844-1.90039l-1.20117 1.19922c.8 1.3 2.29961 2.20117 4.59961 2.20117 2.5 0 4.20117-1.20156 4.20117-3.10156 0-1.7-1.00039-2.59961-3.90039-3.09961-2-.4-2.69922-.79922-2.69922-1.69922 0-.9.79883-1.5 2.29883-1.5s2.3.49883 3 1.79883l1.20117-1.19922c-.9-1.4-2.20117-2.09961-4.20117-2.09961zM358.5 439.5v1.5h3.59961v9.09961h1.80078v-9H367.5V439.5h-9zM38 440.80078v.09961c1.999994 0 3.199219 1.4 3.199219 4 0 2.4-1.199225 3.90039-3.199219 3.90039-1.999994 0-3.199219-1.5-3.199219-4s1.199225-4 3.199219-4zm130 0v.09961c2 0 3.19922 1.4 3.19922 4 0 2.4-1.19922 3.90039-3.19922 3.90039s-3.19922-1.5-3.19922-4 1.19922-4 3.19922-4zM100.80078 441h2.09961c1.5 0 2.19922.60078 2.19922 1.80078 0 1.2-.69922 1.89844-2.19922 1.89844h-2L100.80078 441zm129.59961 0h2.40039c1.4 0 2.09961.59922 2.09961 1.69922 0 1.2-.7 1.80078-2 1.80078h-2.5V441zM345 460l-4 4 4 4h36l4-4-4-4h-36zm-331 6-4 4v16l4 4 4-4v-16l-4-4zm48 0-4 4v16l4 4 4-4v-16l-4-4zm17 0-4 4v16l4 4 4-4v-16l-4-4zm65 0-4 4v16l4 4 4-4v-16l-4-4zm48 0-4 4v16l4 4 4-4v-16l-4-4zm-75 4-8 10v6h4l8-10v-6h-4zm47 0v16l4 4 4-4v-16h-8zm51 0v6l8 10h4v-6l-8-10h-4zm32 0-8 10v6h4l8-10v-6h-4zm33 0v6l8 10h4v-6l-8-10h-4zm32 0-8 10v6h4l8-10v-6h-4zm65 0-8 10v6h4l8-10v-6h-4zM14 494l-4 4v16l4 4 4-4v-16l-4-4zm48 0-4 4v16l4 4 4-4v-16l-4-4zm17 0-4 4v16l4 4 4-4v-16l-4-4zm65 0-4 4v16l4 4 4-4v-16l-4-4zm48 0-4 4v16l4 4 4-4v-16l-4-4zm106 0-4 4v16h8v-16l-4-4zm-205 4-8 10v6h4l8-10v-6h-4zm65 0-8 10v6h4l8-10v-6h-4zm16 0v6l8 10h4v-6l-8-10h-4zm49 0-8 10v6h4l8-10v-6h-4zm16 0v6l8 10h4v-6l-8-10h-4zm114 0-8 10v6h4l8-10v-6h-4zM20 516l-4 4 4 4h36l4-4-4-4H20zm325 0-4 4 4 4h36l4-4-4-4h-36zM33.699219 529.40039V536c0 2.8 1.500787 4.19922 4.300781 4.19922S42.300781 538.8 42.300781 536v-6.59961h-1.701172v6.29883c0 2-.799613 3-2.599609 3-1.799996 0-2.599609-1-2.599609-3v-6.29883h-1.701172zm64.40039 0L102 540h2l4-10.59961h-2l-2.5 7-.59961 2.19922-.59961-2.09961-2.499999-7-1.701172-.09961zm62.599611 0 3 10.59961h2.10156l1.69922-6.30078.5-2.5.5 2.5L170.19922 540h2l3.10156-10.59961h-1.70117l-2.40039 9.29883-2.29883-9.29883h-1.80078l-2.29883 9.19922-2.30078-9.19922h-1.80078zm68 0 3.40039 5.19922L228.40039 540h2L233 535.90039 235.59961 540h2L234 534.59961l3.40039-5.19922h-1.80078l-2.40039 4-2.5-4h-2zm64.70117 0L297.09961 536v4h1.70117v-4l3.79883-6.59961h-1.90039l-1.89844 3.40039L298 534.40039l-.80078-1.59961-2-3.40039h-1.79883zm65.5 0v1.5h6.19922l-6.40039 7.69922V540h8.60156v-1.5h-6.60156l6.40039-7.69922v-1.40039h-8.19922z"/><path fill="#293e57" d="m85 10-4 4 4 4h36l4-4-4-4H85zm195 0-4 4 4 4h36l4-4-4-4h-36zM79 16l-4 4v16l4 4 4-4V20l-4-4zm65 0-4 4v16l4 4 4-4V20l-4-4zm65 0-4 4v16l4 4 4-4V20l-4-4zm178 0-4 4v16l4 4 4-4V20l-4-4zM20 20v6l8 10h4v-6l-8-10h-4zm14 0v16l4 4 4-4V20h-8zm51 0v6l8 10h4v-6l-8-10h-4zm14 0v16l4 4 4-4V20h-8zm18 0-8 10v6h4l8-10v-6h-4zm33 0v6l8 10h4v-6l-8-10h-4zm14 0v16l4 4 4-4V20h-8zm18 0-8 10v6h4l8-10v-6h-4zm33 0v6l8 10h4v-6l-8-10h-4zm14 0v16l4 4 4-4V20h-8zm18 0-8 10v6h4l8-10v-6h-4zm33 0v6l8 10h4v-6l-8-10h-4zm14 0v16l4 4 4-4V20h-8zm18 0-8 10v6h4l8-10v-6h-4zm33 0v6l8 10h4v-6l-8-10h-4zm14 0v16l4 4 4-4V20h-8zm18 0-8 10v6h4l8-10v-6h-4zM20 38l-4 4 4 4h12l4-4-4-4H20zm24 0-4 4 4 4h12l4-4-4-4H44zm41 0-4 4 4 4h12l4-4-4-4H85zm24 0-4 4 4 4h12l4-4-4-4h-12zm-71 6-4 4v16h8V48l-4-4zm41 0-4 4v16l4 4 4-4V48l-4-4zm24 0-4 4v16h8V48l-4-4zm65 0-4 4v16h8V48l-4-4zm24 0-4 4v16l4 4 4-4V48l-4-4zm17 0-4 4v16l4 4 4-4V48l-4-4zm24 0-4 4v16h8V48l-4-4zm41 0-4 4v16l4 4 4-4V48l-4-4zm24 0-4 4v16h8V48l-4-4zm41 0-4 4v16l4 4 4-4V48l-4-4zm24 0-4 4v16h8V48l-4-4zM44 48v6l8 10h4v-6l-8-10h-4zm49 0-8 10v6h4l8-10v-6h-4zm16 0v6l8 10h4v-6l-8-10h-4zm49 0-8 10v6h4l8-10v-6h-4zm16 0v6l8 10h4v-6l-8-10h-4zm49 0-8 10v6h4l8-10v-6h-4zm16 0v6l8 10h4v-6l-8-10h-4zm49 0-8 10v6h4l8-10v-6h-4zm16 0v6l8 10h4v-6l-8-10h-4zm49 0-8 10v6h4l8-10v-6h-4zm16 0v6l8 10h4v-6l-8-10h-4zM85 66l-4 4 4 4h36l4-4-4-4H85zm195 0-4 4 4 4h36l4-4-4-4h-36zM62 106l-4 4v16l4 4 4-4v-16l-4-4zm277 0-4 4v16l4 4 4-4v-16l-4-4zm-319 4v6l8 10h4v-6l-8-10h-4zm14 0v16l4 4 4-4v-16h-8zm18 0-8 10v6h4l8-10v-6h-4zm33 0v6l8 10h4v-6l-8-10h-4zm14 0v16l4 4 4-4v-16h-8zm18 0-8 10v6h4l8-10v-6h-4zm33 0v6l8 10h4v-6l-8-10h-4zm14 0v16l4 4 4-4v-16h-8zm18 0-8 10v6h4l8-10v-6h-4zm33 0v6l8 10h4v-6l-8-10h-4zm14 0v16l4 4 4-4v-16h-8zm18 0-8 10v6h4l8-10v-6h-4zm33 0v6l8 10h4v-6l-8-10h-4zm14 0v16l4 4 4-4v-16h-8zm18 0-8 10v6h4l8-10v-6h-4zm33 0v6l8 10h4v-6l-8-10h-4zm32 0-8 10v6h4l8-10v-6h-4zM85 128l-4 4 4 4h12l4-4-4-4H85zm24 0-4 4 4 4h12l4-4-4-4h-12zm236 0-4 4 4 4h12l4-4-4-4h-12zm-307 6-4 4v16h8v-16l-4-4zm41 0-4 4v16l4 4 4-4v-16l-4-4zm24 0-4 4v16h8v-16l-4-4zm65 0-4 4v16h8v-16l-4-4zm41 0-4 4v16l4 4 4-4v-16l-4-4zm24 0-4 4v16h8v-16l-4-4zm65 0-4 4v16h8v-16l-4-4zm41 0-4 4v16l4 4 4-4v-16l-4-4zm-311 4-8 10v6h4l8-10v-6h-4zm16 0v6l8 10h4v-6l-8-10h-4zm49 0-8 10v6h4l8-10v-6h-4zm16 0v6l8 10h4v-6l-8-10h-4zm49 0-8 10v6h4l8-10v-6h-4zm16 0v6l8 10h4v-6l-8-10h-4zm49 0-8 10v6h4l8-10v-6h-4zm16 0v6l8 10h4v-6l-8-10h-4zm49 0-8 10v6h4l8-10v-6h-4zm16 0v6l8 10h4v-6l-8-10h-4zm49 0-8 10v6h4l8-10v-6h-4zm16 0v6l8 10h4v-6l-8-10h-4zM85 156l-4 4 4 4h36l4-4-4-4H85zm195 0-4 4 4 4h36l4-4-4-4h-36zm65 34-4 4 4 4h36l4-4-4-4h-36zm-283 6-4 4v16l4 4 4-4v-16l-4-4zm17 0-4 4v16l4 4 4-4v-16l-4-4zm113 0-4 4v16l4 4 4-4v-16l-4-4zm65 0-4 4v16l4 4 4-4v-16l-4-4zm65 0-4 4v16l4 4 4-4v-16l-4-4zm-302 4v6l8 10h4v-6l-8-10h-4zm14 0v16l4 4 4-4v-16h-8zm18 0-8 10v6h4l8-10v-6h-4zm33 0v6l8 10h4v-6l-8-10h-4zm32 0-8 10v6h4l8-10v-6h-4zm33 0v6l8 10h4v-6l-8-10h-4zm14 0v16l4 4 4-4v-16h-8zm18 0-8 10v6h4l8-10v-6h-4zm33 0v6l8 10h4v-6l-8-10h-4zm14 0v16l4 4 4-4v-16h-8zm18 0-8 10v6h4l8-10v-6h-4zm33 0v6l8 10h4v-6l-8-10h-4zm14 0v16l4 4 4-4v-16h-8zm18 0-8 10v6h4l8-10v-6h-4zm33 0v6l8 10h4v-6l-8-10h-4zm14 0v16l4 4 4-4v-16h-8zm18 0-8 10v6h4l8-10v-6h-4zM20 218l-4 4 4 4h12l4-4-4-4H20zm24 0-4 4 4 4h12l4-4-4-4H44zm41 0-4 4 4 4h12l4-4-4-4H85zm24 0-4 4 4 4h12l4-4-4-4h-12zm171 0-4 4 4 4h12l4-4-4-4h-12zm-242 6-4 4v16h8v-16l-4-4zm24 0-4 4v16l4 4 4-4v-16l-4-4zm17 0-4 4v16l4 4 4-4v-16l-4-4zm89 0-4 4v16h8v-16l-4-4zm24 0-4 4v16l4 4 4-4v-16l-4-4zm41 0-4 4v16h8v-16l-4-4zm24 0-4 4v16l4 4 4-4v-16l-4-4zm41 0-4 4v16h8v-16l-4-4zm65 0-4 4v16h8v-16l-4-4zm-335 4-8 10v6h4l8-10v-6h-4zm16 0v6l8 10h4v-6l-8-10h-4zm49 0-8 10v6h4l8-10v-6h-4zm16 0v6l8 10h4v-6l-8-10h-4zm49 0-8 10v6h4l8-10v-6h-4zm16 0v6l8 10h4v-6l-8-10h-4zm49 0-8 10v6h4l8-10v-6h-4zm16 0v6l8 10h4v-6l-8-10h-4zm49 0-8 10v6h4l8-10v-6h-4zm16 0v6l8 10h4v-6l-8-10h-4zm49 0-8 10v6h4l8-10v-6h-4zm16 0v6l8 10h4v-6l-8-10h-4zm-154 18-4 4 4 4h36l4-4-4-4h-36zm130 0-4 4 4 4h36l4-4-4-4h-36zM85 280l-4 4 4 4h36l4-4-4-4H85zm65 0-4 4 4 4h36l4-4-4-4h-36zm65 0-4 4 4 4h36l4-4-4-4h-36zm65 0-4 4 4 4h36l4-4-4-4h-36zm65 0-4 4 4 4h36l4-4-4-4h-36zm-331 6-4 4v16l4 4 4-4v-16l-4-4zm48 0-4 4v16l4 4 4-4v-16l-4-4zm17 0-4 4v16l4 4 4-4v-16l-4-4zm113 0-4 4v16l4 4 4-4v-16l-4-4zm65 0-4 4v16l4 4 4-4v-16l-4-4zm-237 4v6l8 10h4v-6l-8-10h-4zm32 0-8 10v6h4l8-10v-6h-4zm33 0v6l8 10h4v-6l-8-10h-4zm14 0v16l4 4 4-4v-16h-8zm18 0-8 10v6h4l8-10v-6h-4zm33 0v6l8 10h4v-6l-8-10h-4zm14 0v16l4 4 4-4v-16h-8zm51 0v6l8 10h4v-6l-8-10h-4zm14 0v16l4 4 4-4v-16h-8zm18 0-8 10v6h4l8-10v-6h-4zm47 0v16l4 4 4-4v-16h-8zm65 0v16l4 4 4-4v-16h-8zm18 0-8 10v6h4l8-10v-6h-4zM20 308l-4 4 4 4h12l4-4-4-4H20zm24 0-4 4 4 4h12l4-4-4-4H44zm41 0-4 4 4 4h12l4-4-4-4H85zm24 0-4 4 4 4h12l4-4-4-4h-12zm65 0-4 4 4 4h12l4-4-4-4h-12zm41 0-4 4 4 4h12l4-4-4-4h-12zm24 0-4 4 4 4h12l4-4-4-4h-12zm41 0-4 4 4 4h12l4-4-4-4h-12zm24 0-4 4 4 4h12l4-4-4-4h-12zm41 0-4 4 4 4h12l4-4-4-4h-12zm24 0-4 4 4 4h12l4-4-4-4h-12zm-355 6-4 4v16l4 4 4-4v-16l-4-4zm48 0-4 4v16l4 4 4-4v-16l-4-4zm41 0-4 4v16h8v-16l-4-4zm65 0-4 4v16h8v-16l-4-4zm24 0-4 4v16l4 4 4-4v-16l-4-4zm41 0-4 4v16h8v-16l-4-4zm24 0-4 4v16l4 4 4-4v-16l-4-4zm106 0-4 4v16h8v-16l-4-4zm-335 4-8 10v6h4l8-10v-6h-4zm16 0v6l8 10h4v-6l-8-10h-4zm49 0-8 10v6h4l8-10v-6h-4zm16 0v6l8 10h4v-6l-8-10h-4zm49 0-8 10v6h4l8-10v-6h-4zm65 0-8 10v6h4l8-10v-6h-4zm16 0v6l8 10h4v-6l-8-10h-4zm49 0-8 10v6h4l8-10v-6h-4zm16 0v6l8 10h4v-6l-8-10h-4zm49 0-8 10v6h4l8-10v-6h-4zm-203 18-4 4 4 4h36l4-4-4-4h-36zm130 0-4 4 4 4h36l4-4-4-4h-36zm65 0-4 4 4 4h36l4-4-4-4h-36zm-23 40-4 4v16l4 4 4-4v-16l-4-4zm17 0-4 4v16l4 4 4-4v-16l-4-4zm48 0-4 4v16l4 4 4-4v-16l-4-4zm-367 4v6l8 10h4v-6l-8-10h-4zm14 0v16l4 4 4-4v-16h-8zm18 0-8 10v6h4l8-10v-6h-4zm33 0v6l8 10h4v-6l-8-10h-4zm14 0v16l4 4 4-4v-16h-8zm18 0-8 10v6h4l8-10v-6h-4zm33 0v6l8 10h4v-6l-8-10h-4zm14 0v16l4 4 4-4v-16h-8zm18 0-8 10v6h4l8-10v-6h-4zm33 0v6l8 10h4v-6l-8-10h-4zm14 0v16l4 4 4-4v-16h-8zm18 0-8 10v6h4l8-10v-6h-4zm47 0v16l4 4 4-4v-16h-8zm18 0-8 10v6h4l8-10v-6h-4zm33 0v6l8 10h4v-6l-8-10h-4zm32 0-8 10v6h4l8-10v-6h-4zM20 398l-4 4 4 4h12l4-4-4-4H20zm24 0-4 4 4 4h12l4-4-4-4H44zm106 0-4 4 4 4h12l4-4-4-4h-12zm24 0-4 4 4 4h12l4-4-4-4h-12zm171 0-4 4 4 4h12l4-4-4-4h-12zm24 0-4 4 4 4h12l4-4-4-4h-12zm-331 6-4 4v16h8v-16l-4-4zm65 0-4 4v16h8v-16l-4-4zm24 0-4 4v16l4 4 4-4v-16l-4-4zm41 0-4 4v16h8v-16l-4-4zm65 0-4 4v16h8v-16l-4-4zm24 0-4 4v16l4 4 4-4v-16l-4-4zm17 0-4 4v16l4 4 4-4v-16l-4-4zm24 0-4 4v16h8v-16l-4-4zm41 0-4 4v16l4 4 4-4v-16l-4-4zm48 0-4 4v16l4 4 4-4v-16l-4-4zm-359 4-8 10v6h4l8-10v-6h-4zm16 0v6l8 10h4v-6l-8-10h-4zm49 0-8 10v6h4l8-10v-6h-4zm16 0v6l8 10h4v-6l-8-10h-4zm49 0-8 10v6h4l8-10v-6h-4zm65 0-8 10v6h4l8-10v-6h-4zm65 0-8 10v6h4l8-10v-6h-4zm65 0-8 10v6h4l8-10v-6h-4zm16 0v6l8 10h4v-6l-8-10h-4zM85 426l-4 4 4 4h36l4-4-4-4H85zm130 0-4 4 4 4h36l4-4-4-4h-36zm130 0-4 4 4 4h36l4-4-4-4h-36zM20 460l-4 4 4 4h36l4-4-4-4H20zm65 0-4 4 4 4h36l4-4-4-4H85zm65 0-4 4 4 4h36l4-4-4-4h-36zm65 0-4 4 4 4h36l4-4-4-4h-36zm65 0-4 4 4 4h36l4-4-4-4h-36zm-153 6-4 4v16l4 4 4-4v-16l-4-4zm82 0-4 4v16l4 4 4-4v-16l-4-4zm48 0-4 4v16l4 4 4-4v-16l-4-4zm17 0-4 4v16l4 4 4-4v-16l-4-4zm48 0-4 4v16l4 4 4-4v-16l-4-4zm17 0-4 4v16l4 4 4-4v-16l-4-4zm48 0-4 4v16l4 4 4-4v-16l-4-4zm-367 4v6l8 10h4v-6l-8-10h-4zm14 0v16l4 4 4-4v-16h-8zm18 0-8 10v6h4l8-10v-6h-4zm33 0v6l8 10h4v-6l-8-10h-4zm14 0v16l4 4 4-4v-16h-8zm51 0v6l8 10h4v-6l-8-10h-4zm32 0-8 10v6h4l8-10v-6h-4zm47 0v16l4 4 4-4v-16h-8zm65 0v16l4 4 4-4v-16h-8zm51 0v6l8 10h4v-6l-8-10h-4zm14 0v16l4 4 4-4v-16h-8zM20 488l-4 4 4 4h12l4-4-4-4H20zm24 0-4 4 4 4h12l4-4-4-4H44zm41 0-4 4 4 4h12l4-4-4-4H85zm24 0-4 4 4 4h12l4-4-4-4h-12zm41 0-4 4 4 4h12l4-4-4-4h-12zm24 0-4 4 4 4h12l4-4-4-4h-12zm41 0-4 4 4 4h12l4-4-4-4h-12zm24 0-4 4 4 4h12l4-4-4-4h-12zm41 0-4 4 4 4h12l4-4-4-4h-12zm24 0-4 4 4 4h12l4-4-4-4h-12zm41 0-4 4 4 4h12l4-4-4-4h-12zm24 0-4 4 4 4h12l4-4-4-4h-12zm-331 6-4 4v16h8v-16l-4-4zm65 0-4 4v16h8v-16l-4-4zm24 0-4 4v16l4 4 4-4v-16l-4-4zm41 0-4 4v16h8v-16l-4-4zm41 0-4 4v16l4 4 4-4v-16l-4-4zm24 0-4 4v16h8v-16l-4-4zm24 0-4 4v16l4 4 4-4v-16l-4-4zm17 0-4 4v16l4 4 4-4v-16l-4-4zm48 0-4 4v16l4 4 4-4v-16l-4-4zm17 0-4 4v16l4 4 4-4v-16l-4-4zm24 0-4 4v16h8v-16l-4-4zm24 0-4 4v16l4 4 4-4v-16l-4-4zm-359 4-8 10v6h4l8-10v-6h-4zm16 0v6l8 10h4v-6l-8-10h-4zm65 0v6l8 10h4v-6l-8-10h-4zm179 0-8 10v6h4l8-10v-6h-4zm16 0v6l8 10h4v-6l-8-10h-4zm65 0v6l8 10h4v-6l-8-10h-4zM85 516l-4 4 4 4h36l4-4-4-4H85zm65 0-4 4 4 4h36l4-4-4-4h-36zm65 0-4 4 4 4h36l4-4-4-4h-36zm65 0-4 4 4 4h36l4-4-4-4h-36z"/></svg>