<?xml version="1.0" encoding="UTF-8" standalone="no"?>
<!-- Created with Inkscape (http://www.inkscape.org/) -->

<svg
   xmlns:dc="http://purl.org/dc/elements/1.1/"
   xmlns:cc="http://creativecommons.org/ns#"
   xmlns:rdf="http://www.w3.org/1999/02/22-rdf-syntax-ns#"
   xmlns:svg="http://www.w3.org/2000/svg"
   xmlns="http://www.w3.org/2000/svg"
   xmlns:sodipodi="http://sodipodi.sourceforge.net/DTD/sodipodi-0.dtd"
   xmlns:inkscape="http://www.inkscape.org/namespaces/inkscape"
   width="17.653mm"
   height="9.6266003mm"
   viewBox="0 0 17.653 9.6265999"
   version="1.1"
   id="svg8"
   sodipodi:docname="Breve.svg"
   inkscape:version="0.92.4 (5da689c313, 2019-01-14)">
  <defs
     id="defs2" />
  <sodipodi:namedview
     id="base"
     pagecolor="#ffffff"
     bordercolor="#666666"
     borderopacity="1.0"
     inkscape:pageopacity="0.0"
     inkscape:pageshadow="2"
     inkscape:zoom="3.040625"
     inkscape:cx="30.436067"
     inkscape:cy="10.018637"
     inkscape:document-units="mm"
     inkscape:current-layer="layer1"
     showgrid="false"
     inkscape:window-width="1366"
     inkscape:window-height="705"
     inkscape:window-x="-8"
     inkscape:window-y="-8"
     inkscape:window-maximized="1" />
  <metadata
     id="metadata5">
    <rdf:RDF>
      <cc:Work
         rdf:about="">
        <dc:format>image/svg+xml</dc:format>
        <dc:type
           rdf:resource="http://purl.org/dc/dcmitype/StillImage" />
        <dc:title></dc:title>
      </cc:Work>
    </rdf:RDF>
  </metadata>
  <g
     inkscape:label="Layer 1"
     inkscape:groupmode="layer"
     id="layer1"
     transform="translate(-25.408703,-172.43984)">
    <g
       aria-label="ï—"
       style="font-style:normal;font-variant:normal;font-weight:normal;font-stretch:normal;font-size:25.39999962px;line-height:1.25;font-family:'Opus Std';-inkscape-font-specification:'Opus Std';letter-spacing:0px;word-spacing:0px;fill:#000000;fill-opacity:1;stroke:none;stroke-width:0.26458332"
       id="text817">
      <path
         d="m 40.140703,172.43984 h 1.016 v 9.6266 h -1.016 z m -11.811,4.826 q 0,-1.4986 1.8288,-2.4892 1.8542,-1.016 4.2164,-1.016 2.159,0 3.9624,1.0414 1.8034,1.0414 1.8034,2.4638 0,1.6002 -1.651,2.4892 -1.6256,0.9144 -4.3942,0.9144 -2.5146,0 -4.1402,-0.9398 -1.6256,-0.9144 -1.6256,-2.4638 z m 0,-4.826 v 9.6266 h -1.016 v -9.6266 z m 9.0932,6.0706 q 0,-0.889 -0.5842,-2.0066 -0.5842,-1.143 -1.3462,-1.651 -0.7366,-0.508 -1.9558,-0.508 -2.4384,0 -2.4384,1.9558 0,0.9652 0.7366,2.2098 0.508,0.9398 1.1176,1.3462 0.6096,0.4064 1.4732,0.4064 1.2954,0 2.1336,-0.4826 0.8636,-0.4826 0.8636,-1.27 z m -10.9982,-6.0706 v 9.6266 h -1.016 v -9.6266 z m 16.637,9.6266 h -1.016 v -9.6266 h 1.016 z"
         style="stroke-width:0.26458332"
         id="path871"
         inkscape:connector-curvature="0" />
    </g>
  </g>
</svg>
