<?xml version="1.0" encoding="UTF-8" standalone="no"?>
<!-- Created with Inkscape (http://www.inkscape.org/) -->

<svg
   xmlns:dc="http://purl.org/dc/elements/1.1/"
   xmlns:cc="http://creativecommons.org/ns#"
   xmlns:rdf="http://www.w3.org/1999/02/22-rdf-syntax-ns#"
   xmlns:svg="http://www.w3.org/2000/svg"
   xmlns="http://www.w3.org/2000/svg"
   xmlns:sodipodi="http://sodipodi.sourceforge.net/DTD/sodipodi-0.dtd"
   xmlns:inkscape="http://www.inkscape.org/namespaces/inkscape"
   width="8.2507782mm"
   height="11.77846mm"
   viewBox="0 0 8.2507782 11.778459"
   version="1.1"
   id="svg8"
   sodipodi:docname="C Clef.svg"
   inkscape:version="0.92.4 (5da689c313, 2019-01-14)">
  <defs
     id="defs2" />
  <sodipodi:namedview
     id="base"
     pagecolor="#ffffff"
     bordercolor="#666666"
     borderopacity="1.0"
     inkscape:pageopacity="0.0"
     inkscape:pageshadow="2"
     inkscape:zoom="3.040625"
     inkscape:cx="12.236092"
     inkscape:cy="22.821143"
     inkscape:document-units="mm"
     inkscape:current-layer="layer1"
     showgrid="false"
     inkscape:window-width="1366"
     inkscape:window-height="705"
     inkscape:window-x="-8"
     inkscape:window-y="-8"
     inkscape:window-maximized="1" />
  <metadata
     id="metadata5">
    <rdf:RDF>
      <cc:Work
         rdf:about="">
        <dc:format>image/svg+xml</dc:format>
        <dc:type
           rdf:resource="http://purl.org/dc/dcmitype/StillImage" />
        <dc:title></dc:title>
      </cc:Work>
    </rdf:RDF>
  </metadata>
  <g
     inkscape:label="Layer 1"
     inkscape:groupmode="layer"
     id="layer1"
     transform="translate(-30.224113,-171.18611)">
    <g
       aria-label="B"
       style="font-style:normal;font-variant:normal;font-weight:normal;font-stretch:normal;font-size:11.71985626px;line-height:1.25;font-family:'Opus Std';-inkscape-font-specification:'Opus Std';letter-spacing:0px;word-spacing:0px;fill:#000000;fill-opacity:1;stroke:none;stroke-width:0.12208183"
       id="text817">
      <path
         d="m 35.744166,182.96457 q -0.878989,0 -1.500142,-0.48052 -0.609432,-0.48051 -0.609432,-1.25402 0,-0.37504 0.269556,-0.71491 0.281277,-0.32816 0.644592,-0.32816 0.386756,0 0.679752,0.30472 0.292996,0.30471 0.292996,0.70319 0,0.2344 -0.210957,0.43363 -0.210957,0.21096 -0.421915,0.33988 -0.199237,0.14064 -0.199237,0.18752 0,0.38675 0.902429,0.38675 0.79695,0 1.101666,-0.50395 0.304716,-0.49224 0.304716,-1.85174 0,-0.84383 -0.316436,-1.45326 -0.304716,-0.59771 -0.77351,-0.59771 -0.82039,0 -1.68766,1.39466 -0.117198,-0.92587 -0.410195,-1.48842 -0.292996,-0.56256 -0.691471,-0.56256 -0.117199,0 -0.222677,0.0352 v 5.39114 h -0.468795 v -11.67298 h 0.468795 v 5.56693 q 0.117198,0.0234 0.164078,0.0234 0.433634,0 0.75007,-0.60943 0.316437,-0.60943 0.410195,-1.50014 1.031348,1.2423 1.62906,1.2423 0.515674,0 0.808671,-0.55083 0.304716,-0.55083 0.304716,-1.42982 0,-1.39467 -0.339876,-1.8283 -0.339876,-0.44535 -1.336064,-0.44535 -0.77351,0 -0.77351,0.30471 0,0.0938 0.257837,0.21096 0.421915,0.18752 0.574273,0.37503 0.164078,0.1758 0.164078,0.43364 0,0.36331 -0.292997,0.70319 -0.281276,0.32816 -0.632872,0.32816 -0.445355,0 -0.738351,-0.30472 -0.292996,-0.30472 -0.292996,-0.76179 0,-0.62115 0.410195,-1.16027 0.492234,-0.64459 1.640779,-0.64459 1.300905,0 2.062695,0.65631 0.761791,0.65632 0.761791,1.8283 0,1.10167 -0.644592,1.9455 -0.632872,0.84383 -1.523582,0.84383 -0.949308,0 -1.418102,-0.32816 h -0.0586 q -0.175798,0 -0.304717,0.24612 -0.117198,0.24612 -0.117198,0.58599 0,0.4688 0.128918,0.82039 0.128919,0.36332 0.328156,0.36332 0.668032,-0.63288 1.312624,-0.63288 1.019628,0 1.675939,0.87899 0.668032,0.89071 0.668032,2.1213 0,1.1837 -0.714911,1.81658 -0.714911,0.63287 -2.015814,0.63287 z m -5.520053,-11.73158 h 1.464982 v 11.67298 h -1.464982 z"
         style="stroke-width:0.12208183"
         id="path874"
         inkscape:connector-curvature="0" />
    </g>
  </g>
</svg>
