<?xml version="1.0" encoding="UTF-8" standalone="no"?>
<!-- Created with Inkscape (http://www.inkscape.org/) -->

<svg
   xmlns:dc="http://purl.org/dc/elements/1.1/"
   xmlns:cc="http://creativecommons.org/ns#"
   xmlns:rdf="http://www.w3.org/1999/02/22-rdf-syntax-ns#"
   xmlns:svg="http://www.w3.org/2000/svg"
   xmlns="http://www.w3.org/2000/svg"
   xmlns:sodipodi="http://sodipodi.sourceforge.net/DTD/sodipodi-0.dtd"
   xmlns:inkscape="http://www.inkscape.org/namespaces/inkscape"
   width="9.5249996mm"
   height="11.887199mm"
   viewBox="0 0 9.5249996 11.887199"
   version="1.1"
   id="svg8"
   inkscape:version="0.92.4 (5da689c313, 2019-01-14)"
   sodipodi:docname="Common Time.svg">
  <defs
     id="defs2" />
  <sodipodi:namedview
     id="base"
     pagecolor="#ffffff"
     bordercolor="#666666"
     borderopacity="1.0"
     inkscape:pageopacity="0.0"
     inkscape:pageshadow="2"
     inkscape:zoom="6.08125"
     inkscape:cx="-15.527559"
     inkscape:cy="10.292116"
     inkscape:document-units="mm"
     inkscape:current-layer="layer1"
     showgrid="false"
     inkscape:window-width="1366"
     inkscape:window-height="705"
     inkscape:window-x="-8"
     inkscape:window-y="-8"
     inkscape:window-maximized="1" />
  <metadata
     id="metadata5">
    <rdf:RDF>
      <cc:Work
         rdf:about="">
        <dc:format>image/svg+xml</dc:format>
        <dc:type
           rdf:resource="http://purl.org/dc/dcmitype/StillImage" />
        <dc:title></dc:title>
      </cc:Work>
    </rdf:RDF>
  </metadata>
  <g
     inkscape:label="Layer 1"
     inkscape:groupmode="layer"
     id="layer1"
     transform="translate(-25.408703,-171.29684)">
    <g
       aria-label="c"
       style="font-style:normal;font-variant:normal;font-weight:normal;font-stretch:normal;font-size:25.39999962px;line-height:1.25;font-family:'Opus Std';-inkscape-font-specification:'Opus Std';letter-spacing:0px;word-spacing:0px;fill:#000000;fill-opacity:1;stroke:none;stroke-width:0.26458332"
       id="text817">
      <path
         d="m 35.033703,180.00904 q -0.3048,1.1938 -1.524,2.1844 -1.2192,0.9906 -2.4384,0.9906 -2.4384,0 -4.0132,-1.778 -1.5494,-1.7526 -1.5494,-4.3688 0,-2.54 1.4732,-4.1402 1.4986,-1.6002 3.937,-1.6002 1.6764,0 2.8448,0.6858 1.1938,0.6858 1.1938,1.778 0,0.6604 -0.4826,1.1176 -0.4826,0.4318 -1.1176,0.4318 -0.7112,0 -1.27,-0.4318 -0.5334,-0.4572 -0.5334,-1.1176 0,-0.889 0.9398,-1.7526 -0.5588,-0.127 -0.9652,-0.127 -1.4986,0 -2.3876,1.3462 -0.8636,1.3208 -0.8636,3.4798 0,2.2606 0.9398,4.0132 0.9398,1.778 2.3368,1.778 1.651,0 3.4798,-2.4892 z"
         style="stroke-width:0.26458332"
         id="path819" />
    </g>
  </g>
</svg>
