<?xml version="1.0" encoding="UTF-8" standalone="no"?>
<!-- Created with Inkscape (http://www.inkscape.org/) -->

<svg
   xmlns:dc="http://purl.org/dc/elements/1.1/"
   xmlns:cc="http://creativecommons.org/ns#"
   xmlns:rdf="http://www.w3.org/1999/02/22-rdf-syntax-ns#"
   xmlns:svg="http://www.w3.org/2000/svg"
   xmlns="http://www.w3.org/2000/svg"
   xmlns:sodipodi="http://sodipodi.sourceforge.net/DTD/sodipodi-0.dtd"
   xmlns:inkscape="http://www.inkscape.org/namespaces/inkscape"
   width="6.6802001mm"
   height="19.659599mm"
   viewBox="0 0 6.6802001 19.659599"
   version="1.1"
   id="svg8"
   sodipodi:docname="Quarter Rest.svg"
   inkscape:version="0.92.4 (5da689c313, 2019-01-14)">
  <defs
     id="defs2" />
  <sodipodi:namedview
     id="base"
     pagecolor="#ffffff"
     bordercolor="#666666"
     borderopacity="1.0"
     inkscape:pageopacity="0.0"
     inkscape:pageshadow="2"
     inkscape:zoom="3.040625"
     inkscape:cx="15.42889"
     inkscape:cy="63.141486"
     inkscape:document-units="mm"
     inkscape:current-layer="layer1"
     showgrid="false"
     inkscape:window-width="1366"
     inkscape:window-height="705"
     inkscape:window-x="-8"
     inkscape:window-y="-8"
     inkscape:window-maximized="1" />
  <metadata
     id="metadata5">
    <rdf:RDF>
      <cc:Work
         rdf:about="">
        <dc:format>image/svg+xml</dc:format>
        <dc:type
           rdf:resource="http://purl.org/dc/dcmitype/StillImage" />
        <dc:title></dc:title>
      </cc:Work>
    </rdf:RDF>
  </metadata>
  <g
     inkscape:label="Layer 1"
     inkscape:groupmode="layer"
     id="layer1"
     transform="translate(-25.408703,-167.02964)">
    <g
       aria-label=""
       style="font-style:normal;font-variant:normal;font-weight:normal;font-stretch:normal;font-size:25.39999962px;line-height:1.25;font-family:'Opus Std';-inkscape-font-specification:'Opus Std';letter-spacing:0px;word-spacing:0px;fill:#000000;fill-opacity:1;stroke:none;stroke-width:0.26458332"
       id="text817">
      <path
         d="m 32.088903,182.32044 q -1.143,-0.508 -2.159,-0.508 -0.9906,0 -1.651,0.4826 -0.635,0.4826 -0.635,1.3462 0,1.3462 1.6002,2.8956 -0.0254,0.1524 -0.2032,0.1524 -0.6096,0 -2.1336,-1.4224 -1.4986,-1.397 -1.4986,-2.6162 0,-1.1684 0.7112,-2.0828 0.7112,-0.889 1.8288,-0.889 0.7112,0 1.524,0.4318 -0.3556,-0.5588 -0.8382,-1.1684 -0.4826,-0.5842 -1.4224,-1.6764 -0.9144,-1.1176 -1.6256,-1.9812 2.6162,-2.3876 2.6162,-4.3688 0,-0.2794 -0.1016,-0.6096 -0.1016,-0.3556 -0.2794,-0.6858 -0.1524,-0.3302 -0.3556,-0.6604 -0.1778,-0.3556 -0.381,-0.635 -0.2032,-0.2794 -0.381,-0.508 -0.1524,-0.2286 -0.254,-0.3556 l -0.1016,-0.1016 q 0,-0.254 0.4318,-0.3302 l 4.5212,6.1976 q -2.3876,2.8702 -2.3876,4.2164 0,0.5842 0.5334,1.397 0.5334,0.8128 1.397,1.8542 0.889,1.0414 1.2446,1.6256 z"
         style="stroke-width:0.26458332"
         id="path883"
         inkscape:connector-curvature="0" />
    </g>
  </g>
</svg>
