<svg viewBox="0 0 300 500" xmlns="http://www.w3.org/2000/svg" fill-rule="evenodd" clip-rule="evenodd" stroke-linejoin="round" stroke-miterlimit="2"><path d="M88.646 374.104c-14.847 0-28.311-3.582-40.393-10.744-12.081-7.163-21.615-17.834-28.602-32.013-6.987-14.179-10.481-31.501-10.481-51.966 0-22.803 3.93-42.245 11.791-58.324 7.86-16.079 18.122-29.528 30.786-40.345 12.663-10.817 26.419-19.587 41.266-26.311l9.17 15.348c-11.644 7.601-21.543 15.933-29.694 24.996-8.151 9.063-14.338 20.319-18.559 33.767-4.221 13.448-6.332 30.551-6.332 51.308 0 21.926 3.421 39.029 10.262 51.308 6.842 12.279 17.831 18.418 32.97 18.418 11.353 0 21.324-4.239 29.912-12.717 8.588-8.478 12.882-22.658 12.882-42.538 0-15.202-1.31-39.613-3.93-73.234l36.245-3.947 3.93 2.193a3284.506 3284.506 0 00-3.057 42.537c-.873 13.449-1.31 24.266-1.31 32.451 0 36.837 13.683 55.255 41.048 55.255 14.556 0 25.91-6.212 34.061-18.637 8.152-12.425 12.227-29.309 12.227-50.65 0-21.342-2.183-38.737-6.55-52.185-4.367-13.449-10.553-24.631-18.559-33.548-8.006-8.917-17.831-17.176-29.476-24.777l8.734-15.348c14.556 6.724 28.239 15.494 41.048 26.311 12.809 10.817 23.144 24.266 31.004 40.345 7.861 16.079 11.791 35.667 11.791 58.763 0 18.711-3.494 35.155-10.481 49.335-6.987 14.179-16.666 25.215-29.039 33.108-12.373 7.894-26.71 11.841-43.013 11.841-15.138 0-27.802-4.239-37.991-12.718-10.19-8.478-17.468-21.634-21.834-39.467-4.076 18.418-11.427 31.72-22.053 39.906-10.626 8.186-23.217 12.279-37.773 12.279z" fill-rule="nonzero"/></svg>