<svg viewBox="0 0 300 500" xmlns="http://www.w3.org/2000/svg" fill-rule="evenodd" clip-rule="evenodd" stroke-linejoin="round" stroke-miterlimit="2"><path d="M48.48 263.156c0 29.82 7.529 52.112 22.585 66.876 15.056 14.763 36.178 22.876 63.367 24.338l3.508-179.797c-31.866.585-54.743 8.99-68.629 25.215-13.887 16.226-20.831 37.348-20.831 63.368zm203.04 1.315c0-29.527-7.675-51.6-23.023-66.217-15.349-14.618-36.617-22.512-63.806-23.681l.438 179.797c28.651-1.169 50.212-9.502 64.683-24.996 14.472-15.495 21.708-37.129 21.708-64.903zM128.293 447.338l5.262-73.234c-40.929-1.462-71.846-11.914-92.749-31.355-20.903-19.442-31.355-45.095-31.355-76.962 0-13.156 2.485-26.312 7.455-39.468 4.97-13.155 12.572-25.069 22.804-35.74 10.232-10.671 23.534-19.295 39.906-25.873 16.372-6.578 35.959-10.013 58.763-10.305l1.316-62.272h24.557v62.272c42.099 1.169 73.673 11.474 94.723 30.916 21.049 19.441 31.574 45.388 31.574 77.839 0 12.863-2.339 25.727-7.017 38.59-4.678 12.864-11.986 24.631-21.926 35.302-9.94 10.671-22.804 19.368-38.591 26.093-15.787 6.724-34.936 10.378-57.447 10.963l4.385 69.726-34.644 8.332-7.016-4.824z" fill-rule="nonzero"/></svg>