<svg viewBox="0 0 300 500" xmlns="http://www.w3.org/2000/svg" fill-rule="evenodd" clip-rule="evenodd" stroke-linejoin="round" stroke-miterlimit="2"><path d="M141.916 374.104c-19.505 0-36.463-4.239-50.873-12.718-14.411-8.478-25.619-20.537-33.625-36.178-8.005-15.641-12.008-33.84-12.008-54.597 0-24.85 5.094-45.388 15.284-61.613 10.189-16.226 24.163-28.505 41.921-36.837 17.758-8.332 37.7-12.644 59.825-12.937l115.284-2.631 1.747 35.083-87.336-7.017c16.011 8.186 27.729 19.88 35.152 35.082 7.424 15.203 11.136 31.428 11.136 48.677 0 20.173-4.149 38.225-12.446 54.159-8.297 15.933-19.723 28.504-34.279 37.713-14.556 9.209-31.15 13.814-49.782 13.814zM83.838 270.611c0 27.189 5.531 47.873 16.594 62.052 11.062 14.179 25.327 21.268 42.794 21.268 17.176 0 31.296-7.162 42.358-21.488 11.063-14.325 16.594-36.69 16.594-67.094 0-11.987-1.31-23.608-3.93-34.864-2.62-11.255-7.205-21.268-13.755-30.039-6.551-8.77-15.939-15.056-28.166-18.857-22.999 1.755-40.83 10.087-53.494 24.997-12.663 14.91-18.995 36.251-18.995 64.025z" fill-rule="nonzero"/></svg>