<svg xmlns="http://www.w3.org/2000/svg" viewBox="0 0 48 24"><g fill="none" stroke="#222"><circle cx="-28" cy="19.46" r="1" transform="scale(-1 1)"/><circle cx="12.54" cy="16" r="1" transform="matrix(0 1 1 0 0 0)"/><path d="M27 19.46h-6"/><circle cx="5.14" cy="-33.98" r="1" transform="scale(1 -1) rotate(60)"/><path d="m28.5 18.6 3-5.2"/><circle cx="26.86" cy="7.59" r="1" transform="scale(1 -1) rotate(-60)"/><path d="m16.5 13.4 3 5.2m5.5-6.06h6"/><circle cx="12.54" cy="24" r="1" transform="matrix(0 1 1 0 0 0)"/><path d="m24.5 13.4 3 5.2M17 12.54h6m.5.86-3 5.2"/><circle cx="-24" cy="4.54" r="1" transform="scale(-1 1)"/><path d="M24 5.54v6"/></g></svg>