<svg xmlns="http://www.w3.org/2000/svg" viewBox="0 0 48 24"><g fill="none" stroke="#222"><circle cx="-12" cy="12" r="1" transform="scale(-1 1)"/><path d="M19 12h-6"/><circle cx=".39" cy="23.32" r="1" transform="scale(-1 1) rotate(60)"/><path d="m23.5 5.94-3 5.2"/><circle cx="24.39" cy="18.25" r="1" transform="scale(1 -1) rotate(-60)"/><path d="m24.5 5.94 3 5.2"/><circle cx="-18.93" cy="-24" r="1" transform="matrix(0 -1 -1 0 0 0)"/><path d="m24.5 18.06 3-5.2m-4 5.2-3-5.2M21 12h6"/><circle cx="-5.07" cy="-24" r="1" transform="matrix(0 -1 -1 0 0 0)"/><circle cx="36" cy="12" r="1"/><path d="M29 12h6"/></g></svg>