<svg xmlns="http://www.w3.org/2000/svg" viewBox="0 0 48 24"><g fill="none" stroke="#222"><circle cx="12" cy="15.46" r="1"/><circle cx="-36" cy="15.46" r="1" transform="scale(-1 1)"/><circle cx="8.54" cy="24" r="1" transform="matrix(0 1 1 0 0 0)"/><path d="M13 15.46h6m16 0h-6"/><circle cx="3.39" cy="25.05" r="1" transform="scale(-1 1) rotate(60)"/><path d="m23.5 9.4-3 5.2"/><circle cx="27.39" cy="16.52" r="1" transform="scale(1 -1) rotate(-60)"/><path d="m24.5 9.4 3 5.2m-.5.86h-6"/><circle cx="8.54" cy="16" r="1" transform="matrix(0 1 1 0 0 0)"/><path d="m16.5 9.4 3 5.2M17 8.54h6"/></g></svg>