<svg width="353" height="115mm" viewBox="0 0 93.4 115" xmlns="http://www.w3.org/2000/svg"><path fill="#005" d="M0 0h93.4v115H0z"/><path d="M70.8 15.7a23.7 8.3 0 0 0-12.7-7.4 23.7 8.3 0 0 0-24.5.5 23.7 8.3 0 0 0-10.1 7.9M70.8 100.4a23.7 8.3 0 0 1-12.7 7.3 23.7 8.3 0 0 1-24.5-.5 23.7 8.3 0 0 1-10.1-7.8" fill="none" stroke="#fff" stroke-width="3.6"/><path d="M13.6 34a8.3 23.7 0 0 1-7.4 12.8 8.3 23.7 0 0 1 .6 24.5 8.3 23.7 0 0 1 7.8 10.1M25 100.8H13.7V79.7M25 15.3H13.7v20.5M80.4 34a8.3 23.7 0 0 1 7.3 12.8 8.3 23.7 0 0 1-.5 24.5 8.3 23.7 0 0 1-7.8 10.1M69 100.8h11.3V79.7M69 15.3h11.3v20.5" fill="none" stroke="#fff" stroke-width="3.6"/><circle cx="27.9" cy="38.5" r="8.5" fill="none" stroke="#fff" stroke-width="1.2"/><path d="M19.8 23.6h55.4M19.8 93h55.4" fill="none" stroke="#fff" stroke-width="4.1"/><circle cx="27.9" cy="38.5" r="5.9" fill="#fff" stroke="#fff" stroke-width="1.2"/><path d="M20.4 8H6.8v24.1M73.7 8h13.6v24.1M20.4 108H6.8V83.3M73.7 108h13.6V83.3" fill="none" stroke="#fff" stroke-width="4.6"/><circle cx="47" cy="38.5" r="8.5" fill="none" stroke="#fff" stroke-width="1.2"/><circle cx="47" cy="38.5" r="5.9" fill="#fff" stroke="#fff" stroke-width="1.2"/><circle cx="66.3" cy="38.5" r="8.5" fill="none" stroke="#fff" stroke-width="1.2"/><circle cx="66.2" cy="38.5" r="5.9" fill="#fff" stroke="#fff" stroke-width="1.2"/><circle cx="27.9" cy="57.8" r="8.5" fill="none" stroke="#fff" stroke-width="1.2"/><circle cx="27.9" cy="57.7" r="5.9" fill="#fff" stroke="#fff" stroke-width="1.2"/><circle cx="66.7" cy="57.8" r="8.5" fill="none" stroke="#fff" stroke-width="1.2"/><circle cx="66.6" cy="57.7" r="5.9" fill="#fff" stroke="#fff" stroke-width="1.2"/><circle cx="27.9" cy="76.9" r="8.5" fill="none" stroke="#fff" stroke-width="1.2"/><circle cx="27.9" cy="76.9" r="5.9" fill="#fff" stroke="#fff" stroke-width="1.2"/><circle cx="47" cy="76.9" r="8.5" fill="none" stroke="#fff" stroke-width="1.2"/><circle cx="47" cy="76.9" r="5.9" fill="#fff" stroke="#fff" stroke-width="1.2"/><circle cx="66.3" cy="76.9" r="8.5" fill="none" stroke="#fff" stroke-width="1.2"/><circle cx="66.2" cy="76.9" r="5.9" fill="#fff" stroke="#fff" stroke-width="1.2"/><circle cx="47.2" cy="57.8" r="8.5" fill="none" stroke="#fff" stroke-width="1.2"/><circle cx="47.1" cy="57.7" r="5.9" fill="#fff" stroke="#fff" stroke-width="1.2"/></svg>