<svg width="353" height="115mm" viewBox="0 0 93.4 115" xmlns="http://www.w3.org/2000/svg"><path fill="#025" d="M0 0h93.4v115H0z"/><path d="M20.4 8H6.8v24.1M73.7 8h13.6v24.1M20.4 108H6.8V83.3M73.7 108h13.6V83.3" fill="none" stroke="#fff" stroke-width="4.6"/><path d="M15.9 58.4h60.8" fill="none" stroke="#fff" stroke-width="4.3"/><path fill="none" stroke="#fff" stroke-width="4" d="M6.4 45.2h81.1v26.7H6.4z"/><path d="M22.8 5.8v4.6h48.4V5.8zM22.8 12.7v4.6h48.4v-4.6zM22.8 20.1v4.6h48.4V20zM22.8 90.8v4.6h48.4v-4.6zM22.8 98.2v4.6h48.4v-4.6zM22.8 105.6v4.6h48.4v-4.6z" color="#000" fill="#fff" style="font-feature-settings:normal;font-variant-alternates:normal;font-variant-caps:normal;font-variant-east-asian:normal;font-variant-ligatures:normal;font-variant-numeric:normal;font-variant-position:normal;font-variation-settings:normal;inline-size:0;isolation:auto;mix-blend-mode:normal;shape-margin:0;shape-padding:0;text-decoration-color:#000;text-decoration-line:none;text-decoration-style:solid;text-indent:0;text-orientation:mixed;text-transform:none;white-space:normal"/><circle cx="15.9" cy="22.5" r="3.6" fill="none" stroke="#fff" stroke-width="4"/><circle cx="78.3" cy="22.5" r="3.6" fill="none" stroke="#fff" stroke-width="4"/><circle cx="15.9" cy="92.9" r="3.6" fill="none" stroke="#fff" stroke-width="4"/><circle cx="78.3" cy="92.9" r="3.6" fill="none" stroke="#fff" stroke-width="4"/><path d="M16 25.7V37h62.4V26.3M16 90.7V79.6h62.4v10.6" fill="none" stroke="#fff" stroke-width="4"/></svg>