<svg width="353" height="115mm" viewBox="0 0 93.4 115" xmlns="http://www.w3.org/2000/svg"><path fill="#025" d="M0 0h93.4v115H0Z"/><path d="M56.52 110.4c7.4-1.1 13.6-3.8 15.2-6.5l.5-.8h10.2V83.6l1-.6c5.9-3.6 9-21.8 6.1-36.4-1.2-6.5-3.7-11.6-6.4-13l-.7-.4V14h-10.2l-.6-1c-.7-1.1-2.3-2.3-4.7-3.4a57 57 0 0 0-39.4 0c-2.4 1.1-4.7 2.9-5 3.9-.2.4-.5.5-5.3.5h-5.2v19l-.9.5c-3.9 2.5-6.6 10-7.3 20.6-1 13 2.3 25.9 7.2 29l1 .6v19.4h5.2c4.9 0 5.1 0 5.3.5.3 1 2.6 2.7 4.8 3.8 3.5 1.7 8 2.8 13.7 3.4a95 95 0 0 0 15.5-.4zm-16.1-3.3a35 35 0 0 1-13-3.7c-1.7-1-2-1.4-2.1-2.7l-.2-1.1-4.7-.1h-4.6V80h-1.5c-1.3 0-1.5 0-2.2-1-1.7-1.7-3.1-5.4-4-10.7-.9-4.2-1-14.8-.2-19.2 1-5.4 2.5-9.7 4.3-11.6.7-.8 1-1 2.2-1h1.4V17.8h4.6l4.7-.2.2-1.1c.1-1 .4-1.4 1-2 2-1.6 6.1-3.1 11.3-4 3.8-.7 15-.7 19 0 7.6 1.2 12.1 3.5 12.6 6.1l.1 1 4.7.1h4.7v18.9h1.2c.9 0 1.4.1 2 .6 1.6 1.4 3.4 6 4.4 11.7.7 3.7.7 15.2 0 19-1 5.4-2.5 9.6-4.2 11.5-.7.7-1 .8-2.1.8h-1.3v19.2h-4.7l-4.7.2-.1 1c-.1.5-.5 1.3-1 1.8-1.6 1.7-6.1 3.4-11.4 4.3-3 .5-13.4.8-16.4.4zm13.6-6.4a30 30 0 0 0 8.6-2.4c1.3-.7 2.7-1.9 6.5-5.7l4.7-4.8-1.4-1.5-1.3-1.4-4.9 4.8c-5.2 5.1-5.5 5.3-9.3 6.3-1.7.4-5.5 1-6.8 1h-.7v-9.2l14.8-8.5 14.8-8.7V46.4l-14.8-9.3-14.7-9.3v-4.3l-.2-4.3 2.2.2c4.8.3 9.2 1.7 11 3.3.6.5.7.6.3 1-1.4 1.5-1.7 5-.8 7a6.9 6.9 0 0 0 6.2 4.2c2.2 0 3.5-.5 4.9-1.7a7 7 0 0 0 0-10.7 6.5 6.5 0 0 0-5.1-1.6c-1.6 0-1.7 0-2.3-.7-3.5-4.5-17.8-6.5-28.9-4-5 1.1-6 1.8-11.3 7.2l-4.7 4.8 1.3 1.5 1.3 1.3 4.7-4.6c4.2-4.2 4.9-4.7 6.3-5.3a35 35 0 0 1 8.4-1.7l2.3-.2v8.7l-15.6 9-15.6 9v12.2l.1 12.3 15.7 8.7 15.7 8.8V97h-1.1c-1.9 0-6.5-.7-8.5-1.4s-4-1.7-3.8-2c1.2-2.2 1.5-4.9.8-6.8a7 7 0 0 0-11.8-2.2c-1.5 1.6-1.9 2.7-1.8 5 .1 1.7.3 2.3 1 3.4 1.4 2.4 4.6 3.9 7.2 3.3 1.1-.3 1.2-.2 2.3.8 3.7 3.2 14.5 4.9 24.3 3.6zm-30-9.3c-2.4-2.5.5-6.4 3.7-4.8 2.7 1.4 1.6 5.7-1.5 5.7-1 0-1.4-.2-2.1-1zm17.8-10.2-5.7-3.2 5.7-3.4 5.7-3.3 5.2 3 5.6 3.2c.2.2-1.3 1.2-5.3 3.6l-5.6 3.2-5.6-3zm-16-8.9c-3.3-1.8-6-3.4-6-3.5-.1-.3 11.5-6.3 12.1-6.3.4 0 11.4 6.2 11.4 6.5 0 .1-11.2 6.6-11.4 6.6l-6-3.3zm31.3 0a89 89 0 0 1-5.4-3.3 77.7 77.7 0 0 1 10.9-6l5.5 3.2 4.9 3c-.4.4-10.2 6.1-10.4 6.1zm-15-8.8-5.5-3.3a37 37 0 0 1 5.3-3l5.3-2.8 5.3 3c3 1.6 5.3 3 5.3 3.1 0 .2-10.1 6.1-10.3 6.1zm19.7-5.5-13.7-7.7-.8-.4-14.5 7.4-14.8 7.5a97 97 0 0 1-.1-8.3v-8.3l14.5-8.4c8-4.7 14.8-8.5 15-8.5l14 8.7 13.6 8.7V57c0 4.6 0 8.3-.2 8.3zm6.5-1.6c2.3-1 3.4-2.8 3.2-5.3-.1-2.2-1-3.6-3-4.5a4.6 4.6 0 0 0-4.3 0l-1.7.4-7.7-4.5-7.4-4.2-1.4.6-7.6 4-6.4 3.4-1.3-.4c-1.9-.6-2.7-.6-4.3.2-1.9.9-2.8 2.3-3 4.5 0 2.5 1 4.4 3.3 5.3a5.3 5.3 0 0 0 7.3-4.8v-1.3l6.4-3.5 6.7-3.4c.2 0 3.4 1.7 7.1 3.9l6.8 4v1c0 3.4 4 6 7.3 4.5zm-2.9-4c-.6-.7-.5-1.6.2-2 .6-.5.7-.5 1.3 0 .8.4 1 1.4.2 2-.6.6-1.2.6-1.7 0zm-37.6-.6c-.6-.7-.5-1.5.3-2 .6-.4.7-.4 1.3 0 .8.5.8 1.5.2 2-.7.7-1.2.6-1.8 0zm39.4-21.2c-.3 0-.8-.5-1.2-1-.8-1-.6-3 .3-3.9 1.4-1.4 4-1 4.9.7 1.3 2.6-1.3 5.4-4 4.2zm-46.7 78v-2.3H9.42V95.1l-.1-11.2h-2.3l-2.4-.1v27h16Zm69.3-11.3V83.8h-4.7v22.5h-11.1v4.5h15.9zM9.42 21.7l.1-11h11.1V6.3h-16v26.5l2.4-.1h2.3zm80.5-2.2V6.3h-16v4.5h11.2v10.8c0 6 0 10.9.2 11h4.4z" fill="#fff"/></svg>