<svg width="353" height="115mm" viewBox="0 0 93.4 115" xmlns="http://www.w3.org/2000/svg"><path fill="#025" d="M0 0h93.4v115H0z"/><path d="M21.8-17.2a5 5 0 0 0 .2 3.5c.5 1.1 1.3 2 2.3 2.9 2.1 1.6 5 2.8 8.9 3.7 7.5 1.8 17.1 2 25.2.5 4-.7 7.4-1.8 9.9-3.2 2.5-1.5 4.3-3.4 4.3-5.9H69c0 .6-.6 1.7-2.5 2.8-2 1-5 2.1-8.7 2.8a61.9 61.9 0 0 1-23.8-.5c-3.5-.8-6-2-7.5-3-.7-.6-1.1-1.1-1.3-1.5-.1-.4-.2-.6 0-1z" transform="scale(1 -1)" color="#000" fill="#fff"/><path d="M22.3 99.3a5 5 0 0 0 .2 3.6c.5 1.1 1.3 2 2.3 2.8 2.1 1.6 5.1 2.9 8.9 3.8 7.6 1.8 17.2 2 25.3.5 4-.7 7.3-1.8 9.8-3.3 2.5-1.4 4.3-3.3 4.3-5.8h-3.6c0 .6-.6 1.6-2.5 2.8-2 1-5 2.1-8.7 2.8a61.9 61.9 0 0 1-23.8-.5c-3.4-.8-6-2-7.5-3-.7-.6-1-1.2-1.2-1.5-.2-.4-.2-.6-.1-1z" color="#000" fill="#fff"/><path d="M12 13.5v19a8.6 8.6 0 0 0-4.2 4.1 31.2 31.2 0 0 0-3.3 9.9C3 54.5 3.2 64 5 71.7c1 3.8 2.2 6.8 3.8 8.9.8 1 1.7 1.8 2.8 2.3l.4.1v19.6h13.5V99h-10V79.7h-2.4c-.4-.2-1-.6-1.5-1.3a21 21 0 0 1-3.1-7.5C6.8 63.9 6.6 54.6 8 47c.7-3.8 1.7-6.8 2.9-8.7 1-2 2.1-2.5 2.7-2.5h2V17H25v-3.6z" color="#000" fill="#fff"/><g color="#000"><path d="M-34 80.4a23.7 8.3 0 0 1-12.8 7.3 23.7 8.3 0 0 1-24.5-.5 23.7 8.3 0 0 1-10.1-7.8M-100.8 69v11.3h21.1M-15.3 69v11.3h-20.5" fill="#025" transform="rotate(-90)"/><path d="M-102.6 69.1v13H-83v.3c.6 1 1.4 2 2.4 2.8 2.1 1.6 5 2.8 8.9 3.7 7.6 1.9 17.1 2 25.2.6 4-.8 7.4-1.9 9.9-3.3 1.8-1 3.3-2.4 4-4h19.1v-13H-17v9.4h-18.7v1.8c0 .6-.7 1.6-2.6 2.7-2 1.1-5 2.2-8.7 2.9a61.9 61.9 0 0 1-23.8-.5c-3.5-.9-6-2-7.5-3.1-.7-.6-1.1-1.1-1.3-1.5v-2.3H-99V69Z" fill="#fff" transform="rotate(-90)"/></g><path d="M4.5 5.7v26.4H9V10.4h11.3V5.7ZM73.7 5.7v4.7H85V32h4.6V5.7ZM4.5 83.3v27h15.9v-4.6H9V83.3ZM85 83.3v22.4H73.7v4.6h16v-27Z" color="#000" fill="#fff"/><path d="m134.1 46.6-75.9 75.8c-4.4-.7-9-1-13.7-1v14.8c25 0 47.2 12.2 61.5 31.3A52.2 52.2 0 0 0 68 218.2a52.2 52.2 0 0 0 38.1 51A76.8 76.8 0 0 1 45 300.5v14.8c48.7-.2 88.4-39.5 92.3-88.9h31v44.3A78.5 78.5 0 0 0 98 337.6H55.5v15.6h57v-9.6a63.5 63.5 0 0 1 126.8 6.4h.5v4.2h59.4v-16h-45.5a78.7 78.7 0 0 0-70.4-67.3v-44.4h32.9c3.9 49.3 42.8 88.7 90.7 89v-14.8a75 75 0 0 1-60.1-31.6 52.3 52.3 0 0 0 37.5-50.8c0-24-15.9-44.5-37.5-50.5a75 75 0 0 1 60.5-31.6v-14.7a87 87 0 0 0-11 .7l-75.5-75.5L210 57.3l69 68.9a96.3 96.3 0 0 0-63 85h-78.8c-2.7-39-27.8-71.9-62-84.4l69.5-69.5-10.7-10.7zM177 50l-5.3 5.3-65 65 70.3 70.3 70.3-70.3L177 50zm0 21.4 17.8 17.8-18.1 18-17.8-17.7 18.1-18.1zm28.5 28.5 20.4 20.4-18 18.1-20.5-20.4 18-18.1zm-57.3.3 17.8 17.8-20.2 20-17.7-17.7 20-20.1zm28.5 28.5L197 149l-20 20.1-20.6-20.4 20.2-20.1zm-62.2 52.6a85.3 85.3 0 0 1 0 74.1A36.5 36.5 0 0 1 83 218.3c0-19.4 13.8-35 31.4-37zm124.3.1a36.5 36.5 0 0 1 30.5 36.9 36.5 36.5 0 0 1-30.5 37 86.9 86.9 0 0 1 0-73.9z" transform="scale(.26458)" color="#000" fill="#fff"/><path d="M46.8 80c-6.4 0-11.7 5.2-11.7 11.7a11.7 11.7 0 0 0 23.4 0c0-6.5-5.2-11.7-11.7-11.7zm0 4c4.3 0 7.7 3.4 7.7 7.7 0 4.3-3.4 7.7-7.7 7.7a7.7 7.7 0 0 1-7.7-7.7c0-4.3 3.4-7.7 7.7-7.7z" color="#000" fill="#fff"/></svg>