<svg xmlns="http://www.w3.org/2000/svg" width="537.098" height="688.526" viewBox="0 0 142.107 182.173"><g aria-label="Cylinder" style="line-height:1.25;-inkscape-font-specification:'Tw Cen MT Condensed Extra Bold, ';text-align:center" font-weight="400" font-size="16.933" font-family="Tw Cen MT Condensed Extra Bold" letter-spacing="0" word-spacing="0" text-anchor="middle" stroke-width=".265"><path d="M50.699 137.997v2.62q-.794.257-1.422.257-2.175 0-3.531-1.629-1.348-1.637-1.348-4.3 0-2.471 1.365-4.076 1.364-1.612 3.447-1.612.81 0 1.489.215v2.63q-.72-.24-1.356-.24-.976 0-1.62.893-.646.893-.646 2.273 0 1.489.645 2.357.653.86 1.736.86.53 0 1.24-.248zM51.294 132.994h2.373l.604 1.977q.314 1.041.545 2.042h.042q.19-.951.314-1.364l.802-2.655h2.406l-3.241 10.74H52.74l.976-3.232zM59.52 128.951h2.407v11.65H59.52zM63.82 130.712q0-.529.372-.9.372-.373.893-.373.53 0 .902.372t.372.901q0 .521-.372.902-.372.372-.902.372-.512 0-.893-.372-.372-.38-.372-.902zm.066 2.282h2.407v7.607h-2.407zM70.584 132.994v1.034h.041q.843-1.282 2.059-1.282.794 0 1.257.53.47.529.47 1.43v5.895h-2.405v-4.688q0-.388-.182-.637-.182-.248-.471-.248-.77 0-.77.968v4.605h-2.397v-7.607zM79.976 128.951h2.39v11.65H79.96v-1h-.033q-.802 1.256-1.81 1.256-1.06 0-1.712-1.107-.645-1.108-.645-2.96 0-1.844.661-2.944.662-1.1 1.745-1.1.984 0 1.81 1.133zm0 7.789q0-1.877-.91-1.877-.933 0-.933 1.993 0 .884.248 1.372.256.48.702.48.414 0 .654-.513.24-.513.24-1.455zM87.765 138.278h2.026q-.579 2.563-2.894 2.563-1.447 0-2.29-1.1-.844-1.1-.844-3.034 0-1.803.844-2.886.843-1.091 2.24-1.091.844 0 1.62.529.778.52 1.134 1.39.355.867.397 2.736h-4.01q.05 1.695.942 1.695.306 0 .546-.223.24-.224.29-.58zm-1.744-2.2h1.744q-.025-.802-.223-1.182-.199-.388-.629-.388-.48 0-.686.372-.206.372-.206 1.198zM93.702 132.994v1.274h.033q.86-1.489 1.81-1.489.141 0 .39.05v2.356q-.44-.074-.811-.074-1.323 0-1.323 1.712v3.778h-2.398v-7.607z" style="-inkscape-font-specification:'Tw Cen MT Condensed Extra Bold, ';text-align:center"/></g><path d="M108.63 35.518a39.31 12.851 0 01-39.212 12.851 39.31 12.851 0 01-39.406-12.788A39.31 12.851 0 0169.03 22.667a39.31 12.851 0 0139.597 12.724" fill="#fff" stroke="#000" stroke-width="1.5"/><path d="M108.628 35.391v69.674M30.311 35.391v69.674M30.311 105.065c17.035 17.387 62.795 17.387 78.317 0" fill="none" stroke="#000" stroke-width="1.5"/><path d="M108.628 104.065c-20.058-14.363-59.014-14.363-78.317 0" fill="none" stroke="#000" stroke-width="1.5" stroke-dasharray="3.00000008,3.00000008"/></svg>