<svg xmlns="http://www.w3.org/2000/svg" viewBox="0 0 142.107 128"><g aria-label="Double Hyperbolic Cylinder" stroke-width=".265"></g><path d="M21.546 46.286c26.25 25.123 24.576 36.347 0 52.917M86.31 61.54c-22.508 16.57-21.902 34.209 0 52.917" fill="none" stroke="#000" stroke-width="1.5"/><path d="M40.09 74.73l29.935 8.018 32.072-20.312" fill="none" stroke="#000" stroke-width="1.5"/><path d="M101.568 61.987L71.634 53.97 39.56 74.282" fill="none" stroke="#000" stroke-width="1.5" stroke-dasharray="3,3"/><path d="M26.067 105.942c26.726-26.785 37.416-12.281 53.986 12.294M81.667 54.708C54.941 81.493 44.251 66.989 27.681 42.413M21.546 46.286l.905-5.232 5.23 1.36M86.188 114.364l-.904 5.232-5.231-1.36M81.667 54.708l7.066 1.848-2.423 4.984" fill="none" stroke="#000" stroke-width="1.5"/><path d="M26.19 106.036l-7.067-1.849 2.423-4.984" fill="none" stroke="#000" stroke-width="1.5"/><path d="M51.149 29.354c26.25 25.123 24.575 36.347 0 52.917" fill="none" stroke="#000" stroke-width="1.5" stroke-dasharray="3,3"/><path d="M115.913 44.608c-22.509 16.57-21.903 34.21 0 52.917" fill="none" stroke="#000" stroke-width="1.5"/><path d="M55.67 89.01c26.726-26.785 37.416-12.281 53.986 12.295" fill="none" stroke="#000" stroke-width="1.5" stroke-dasharray="3,3"/><path d="M115.79 97.432l-.904 5.232-5.23-1.36" fill="none" stroke="#000" stroke-width="1.5"/><path d="M52.053 24.122l-.904 5.232" fill="none" stroke="#000" stroke-width="1.5" stroke-dasharray="3,3"/><path d="M52.053 24.122l5.23 1.36" fill="none" stroke="#000" stroke-width="1.5"/><path d="M55.792 89.104l-7.066-1.848 2.423-4.985" fill="none" stroke="#000" stroke-width="1.5" stroke-dasharray="3,3"/><path d="M22.45 41.054l29.603-16.932M27.681 42.413l29.603-16.931M111.27 37.776l7.066 1.848-2.423 4.984M81.667 54.708l29.603-16.932M86.898 56.067L116.5 39.135" fill="none" stroke="#000" stroke-width="1.5"/><path d="M19.123 104.187l29.603-16.931" fill="none" stroke="#000" stroke-width="1.5" stroke-dasharray="3,3"/><path d="M26.067 105.942L55.669 89.01M86.188 114.364l29.602-16.932M85.284 119.596l29.602-16.932" fill="none" stroke="#000" stroke-width="1.5"/><path d="M21.546 46.286L51.15 29.354" fill="none" stroke="#000" stroke-width="1.5" stroke-dasharray="3,3"/><path d="M86.31 61.54l29.603-16.932" fill="none" stroke="#000" stroke-width="1.5"/><path d="M21.546 99.203L51.15 82.271M80.053 118.236l29.603-16.931" fill="none" stroke="#000" stroke-width="1.5" stroke-dasharray="3,3"/><path d="M84.992 51.745c12.472.178 22.892-7.198 26.278-13.97" fill="none" stroke="#000" stroke-width="1.5" stroke-dasharray="3,1.5"/><path d="M56.127 25.553c6.949 12.829 21.916 28.33 28.865 25.658" fill="none" stroke="#000" stroke-width="1.5"/></svg>