<svg xmlns="http://www.w3.org/2000/svg" width="537.098" height="688.526" viewBox="0 0 142.107 182.173"><path d="M106.558 75.23c-25.079 13.89-51.894 13.89-73.5 0" fill="none" stroke="#000" stroke-width="1.5"/><path d="M33.058 75.115c25.079-13.89 51.894-13.89 73.5 0" fill="none" stroke="#000" stroke-width="1.5" stroke-dasharray="3.00000008,3.00000008"/><g aria-label="Egg" style="line-height:1.25;-inkscape-font-specification:'Tw Cen MT Condensed Extra Bold, ';text-align:center" font-weight="400" font-size="16.933" font-family="Tw Cen MT Condensed Extra Bold" letter-spacing="0" word-spacing="0" text-anchor="middle" stroke-width=".265"><path d="M60.15 129.563h5.068v2.348h-2.563v2.034h2.224v2.29h-2.224v2.01h2.58v2.356h-5.086zM70.782 140.634v-1.083q-.703 1.034-1.67 1.034-1.224 0-1.902-1.017-.678-1.026-.678-2.894 0-1.827.662-2.87.661-1.041 1.81-1.041 1.026 0 1.729 1.033h.033v-.802h2.406v7.045q0 .967-.348 1.836-.339.868-1.207 1.364-.868.496-1.901.496-1.034 0-1.943-.554-.91-.554-1.183-1.852h2.15q.372.579.926.579.471 0 .794-.372.322-.364.322-.902zm0-3.993q0-1.844-.926-1.844-.455 0-.72.446-.264.447-.264 1.24 0 2.084.968 2.084.942 0 .942-1.926zM78.819 140.634v-1.083q-.703 1.034-1.67 1.034-1.224 0-1.902-1.017-.678-1.026-.678-2.894 0-1.827.661-2.87.662-1.041 1.811-1.041 1.025 0 1.728 1.033h.033v-.802h2.406v7.045q0 .967-.347 1.836-.339.868-1.207 1.364-.868.496-1.902.496-1.033 0-1.943-.554-.91-.554-1.182-1.852h2.15q.372.579.926.579.471 0 .793-.372.323-.364.323-.902zm0-3.993q0-1.844-.926-1.844-.455 0-.72.446-.264.447-.264 1.24 0 2.084.967 2.084.943 0 .943-1.926z" style="-inkscape-font-specification:'Tw Cen MT Condensed Extra Bold, ';text-align:center"/></g><path d="M106.558 75.23c-4.668 48.664-69.28 47.908-73.5 0M33.132 74.469c18.266-58.26 54.778-60.309 73.352 0" fill="none" stroke="#000" stroke-width="1.5"/></svg>