<svg xmlns="http://www.w3.org/2000/svg" viewBox="0 0 142.107 128"><g aria-label="Hyperbolic Bicylinder" stroke-width=".265"></g><path d="M52.99 23.308L21.546 46.286l64.702 15.722 32.653-22.373zM21.546 99.203l64.702 15.722 32.653-22.373" fill="none" stroke="#000" stroke-width="1.5"/><path d="M21.546 99.203L52.99 76.225l65.911 16.327" fill="none" stroke="#000" stroke-width="1.5" stroke-dasharray="3,3"/><path d="M21.546 46.286c26.25 17.64 24.041 38.486 0 52.917M118.901 39.635c-26.25 17.639-24.04 38.485 0 52.917M86.248 62.008c-8.018 16.036-8.553 31.002 0 52.917" fill="none" stroke="#000" stroke-width="1.5"/><path d="M52.99 23.308c8.018 16.036 8.553 31.002 0 52.917" fill="none" stroke="#000" stroke-width="1.5" stroke-dasharray="3,3"/><path d="M40.632 72.38l39.328 9.556 19.849-13.6" fill="none" stroke="#000" stroke-width="1.5"/><path d="M40.632 72.38l19.113-13.968 40.064 9.924" fill="none" stroke="#000" stroke-width="1.5" stroke-dasharray="3,3"/></svg>