<svg xmlns="http://www.w3.org/2000/svg" viewBox="0 0 142.107 128"><g aria-label="Hyperboloid" stroke-width=".265"></g><path d="M108.63 35.518a39.31 12.851 0 01-39.212 12.851 39.31 12.851 0 01-39.406-12.788A39.31 12.851 0 0169.03 22.667a39.31 12.851 0 0139.597 12.724" fill="#fff" stroke="#000" stroke-width="1.5"/><path d="M30.311 38.188c23.435 24.737 21.167 45.45 0 66.406M30.311 105.065c17.035 17.387 62.795 17.387 78.317 0" fill="none" stroke="#000" stroke-width="1.5"/><path d="M108.628 104.065c-20.058-14.363-59.014-14.363-78.317 0" fill="none" stroke="#000" stroke-width="1.5" stroke-dasharray="3,3"/><path d="M108.628 38.037c-23.434 24.737-21.166 45.45 0 66.406M46.066 72.512c10.183 10.393 37.538 10.393 46.817 0" fill="none" stroke="#000" stroke-width="1.5"/><path d="M92.883 71.914c-11.99-8.586-35.278-8.586-46.817 0" fill="none" stroke="#000" stroke-width="1.5" stroke-dasharray="3,3"/></svg>