<svg xmlns="http://www.w3.org/2000/svg" viewBox="0 0 142.107 128"><g aria-label="Rhombic Triacontahedron" stroke-width=".265"></g><g stroke-width="1.05" fill="none" stroke="#000"><path d="M119.771 98.47l19.449 11.23v22.456l-21.052 11.763-17.845-11.763V109.7z" transform="matrix(-1.42475 0 0 -1.4329 234.8 248.078)"/><path d="M100.323 132.156l19.448-11.228 19.449 11.228M119.771 98.47v22.458M100.323 132.156l-2.468 18.171c4.99 2.851 15.877 9.784 15.877 9.784l3.901-15.657M113.357 161.018l19.243-11.225 6.62-17.637" transform="matrix(-1.42475 0 0 -1.4329 234.8 248.078)"/></g><path d="M91.865 90.891l21.942 8.307-2.285-32.936-19.657-7.55M95.38 32.675l22.996 6.78-6.854 26.807M64.156 106.98l28.326 5.238 21.325-13.02" fill="none" stroke="#000" stroke-width="1.5"/><path d="M118.376 39.454l1.523 42.893-6.092 16.85M73.295 18.122l20.563 3.064 24.518 18.268M36.447 58.712l-14.792 4.486v31.404l14.792-3.711" fill="none" stroke="#000" stroke-width="1.5"/><path d="M45.878 33.441l-18.13 12.14-6.093 17.617" fill="none" stroke="#000" stroke-width="1.5"/><path d="M73.295 17.356l-23.462 7.546-22.086 20.68M21.655 94.602l25.894 18.382 16.607-6.004" fill="none" stroke="#000" stroke-width="1.5"/><path d="M47.549 112.984l22.086 5.362 22.847-6.128" fill="none" stroke="#000" stroke-width="1.5"/><path d="M75.211 28.73l27.71 16.09v32.178L72.925 93.853 47.502 76.998V44.819z" fill="none" stroke="#000" stroke-width="1.5" stroke-dasharray="3,3"/><path d="M47.502 76.998l27.71-16.09 27.708 16.09M75.211 28.73V60.91M47.502 76.998l-3.516 26.037L65.31 115.29l6.855-20.671M66.072 118.354l27.417-16.085 9.431-25.271M102.92 44.82l15.456-5.366M75.211 28.73l18.647-7.544M49.833 24.902l25.378 3.828M47.502 44.82l-19.755.762M102.92 76.998l16.98 5.349M93.49 102.27l20.317-3.072M27.747 45.582V81.58l-6.092 13.02M43.986 103.035l-22.331-8.433M27.747 81.581l19.755-4.583" fill="none" stroke="#000" stroke-width="1.5" stroke-dasharray="3,3"/></svg>