<svg xmlns="http://www.w3.org/2000/svg" viewBox="0 0 142.107 128"><g aria-label="Spherical Wedge" stroke-width=".265"></g><path d="M74.692 90.726c-3.742-1.693-10.869 7.573-14.523 18.709s-3.83 23.787-.088 25.48c3.742 1.692 11.404-7.751 15.057-18.798 3.652-11.047 3.296-23.698-.446-25.391z" transform="matrix(2.2646 0 0 1.79502 -100.413 -137.784)" fill="#fff" stroke="#000" stroke-width=".744"/><path d="M68.292 24.545c19.182 4.796 46.995 53.9 42.008 68.478" fill="none" stroke="#000" stroke-width="1.5"/><path d="M68.292 23.97c-6.905 27.813 28.197 66.56 43.159 69.629" fill="none" stroke="#000" stroke-width="1.5" stroke-dasharray="3,3"/><path d="M110.875 93.599c-13.242 32.624-68.29 26.767-77.257 9.508M34.883 104.695c25.496 6.334 38.164 9.343 70.31-1.425" fill="none" stroke="#000" stroke-width="1.5"/><path d="M105.194 101.93c-25.496-6.334-38.164-9.343-70.31 1.425" fill="none" stroke="#000" stroke-width="1.5" stroke-dasharray="3,3"/></svg>