<svg xmlns="http://www.w3.org/2000/svg" xmlns:xlink="http://www.w3.org/1999/xlink" xmlns:lucid="lucid" width="1559.48" height="1278.55"><g transform="translate(-37.300961519411544 -44.34314575050769)" lucid:page-tab-id="QG_C5zAm6FKP"><path d="M799.08 560.84c194.32 194.32 265.82 437.87 159.7 544-106.1 106.1-349.66 34.6-543.98-159.72S148.98 507.25 255.1 401.14c106.1-106.12 349.66-34.6 543.98 159.7z" stroke="#000" stroke-width="8" fill-opacity="0"/><path d="M943.26 434.86c196 196 268.85 440.9 162.74 547.02-106.12 106.12-351.03 33.25-547.02-162.74-196-196-268.86-440.9-162.74-547.02C502.34 166 747.26 238.87 943.26 434.86z" fill-opacity="0"/><path d="M1033.06 539.5l7.44 10.02 19.17 28.2 17.03 27.46 14.93 26.5 12.92 25.33.13.28m26.38 63.73l1.48 4.1 6.25 19.95 4.98 18.6 3.88 17.3 2.9 16.1 2.05 14.95 1.33 13.9.68 12.93.13 12.04-.16 5.4m-12.17 67.62l-2.43 6.32-2.83 6.54-3 6.22-3.2 5.94-3.34 5.67-3.52 5.42-3.7 5.2-3.88 5-4.05 4.8-4.25 4.6-2.2 2.26-4.54 4.35-4.7 4.16-4.9 3.95-5.1 3.8-5.32 3.6-5.54 3.43-5.8 3.27-6.08 3.1-6.38 2.9-6.7 2.75-2.94 1.06m-67.62 12.24l-11.32.12-12.47-.4-13.42-1-14.4-1.66-15.53-2.46-16.7-3.37-17.94-4.42-19.25-5.6-14.22-4.78m-63.68-26.48l-12.87-6.23-25.93-13.9-27-15.98-27.86-18.1L663.57 909m-53.94-43.02l-7.98-6.75-28.6-26.3-14.08-13.8-27.2-28.35-19.66-22.3m-42.95-54l-7.44-10-19.17-28.2-17.03-27.46-14.93-26.5L397.68 597l-.12-.28M371.16 533l-1.46-4.1-6.26-19.95-5-18.6-3.86-17.3-2.9-16.1-2.05-14.95-1.32-13.9-.67-12.93-.13-12.04.17-5.4m12.17-67.62l2.42-6.32 2.83-6.54 3-6.22 3.18-5.94 3.35-5.67 3.53-5.42 3.7-5.2 3.87-5 4.06-4.8 4.24-4.6 2.2-2.26 4.54-4.35 4.7-4.16 4.9-3.95 5.1-3.8 5.3-3.6 5.56-3.43 5.8-3.27 6.07-3.1 6.4-2.9 6.7-2.75 2.93-1.06m67.62-12.24l11.32-.12 12.48.4 13.4 1 14.42 1.66 15.5 2.46 16.7 3.37 17.95 4.42 19.27 5.6 14.2 4.78m63.68 26.48l12.87 6.23 25.93 13.9 27 15.98 27.86 18.1L838.66 345m53.93 43.02l7.98 6.75 28.6 26.3 14.08 13.8 27.2 28.35 19.65 22.3" stroke="#000" stroke-width="8" fill="none"/><path d="M1219.28 945.4c-194.3 194.3-437.86 265.8-543.98 159.7C569.18 998.98 640.7 755.43 835 561.12c194.32-194.32 437.87-265.83 544-159.7 106.1 106.1 34.6 349.66-159.72 543.97z" fill-opacity="0"/><path d="M1165.25 995.2l-2.13 1.87-3.5 2.84m-28.68 22.98l-24.46 18.18-27.8 18.9-8 4.95m-31.52 18.86l-6.4 3.6m-32.58 17l-23.68 10.86-22.54 9.2-21.2 7.64-.54.17m-35.25 10.33l-2.58.7-4.58 1.02m-36.1 6.74l-7.63 1.05-13.93 1.32-12.95.67-12.07.13-11.26-.35-10.54-.77-4.92-.57m-35.98-7.2l-2.83-.83-4.17-1.4m-33.28-15.4l-1.36-.8-5.47-3.54-5.24-3.73-5.03-3.9-4.84-4.1-4.66-4.28-2.27-2.22-4.4-4.58-4.18-4.75-4-4.94-3.8-5.14-3.65-5.36-2.55-4.12m-15.42-33.27l-.17-.48-2.05-6.53m-7.24-35.98l-.96-10.1-.56-10.9-.12-11.65.4-12.5.98-13.42 1.68-14.42.04-.3m6.82-36.08l1.75-7.14m10.4-35.23l3.7-11 8.4-21.88 10.06-23.2 5.72-11.84M693 747.63l3.02-5.63.5-.83m18.95-31.48l14.18-21.83 19.94-28.06 8-10.3m22.97-28.66l4.74-5.6m24.4-27.5l11.74-12.78L835 561.12l26.53-25.44m27.5-24.36l2.13-1.88 3.5-2.84m28.68-22.97l24.47-18.18 27.8-18.9 8-4.95m31.53-18.86l6.4-3.6m32.58-17l23.7-10.85 22.53-9.22 21.2-7.63.54-.17m35.25-10.34l2.58-.7 4.57-1m36.1-6.76l7.63-1.04 13.9-1.32 12.97-.68 12.07-.13 11.26.36 10.53.77 4.92.57m35.97 7.2l2.84.84 4.17 1.4m33.28 15.4l1.37.8 5.47 3.54 5.24 3.73 5.04 3.9 4.84 4.1 4.66 4.3 2.27 2.2 4.38 4.6 4.2 4.74 3.98 4.94 3.82 5.14 3.64 5.35 2.55 4.12m15.42 33.26l.16.48 2.04 6.53m7.25 35.98l.96 10.1.57 10.9.12 11.65-.4 12.5-1 13.43-1.67 14.42-.04.3m-6.83 36.08l-1.75 7.14m-10.4 35.23l-3.7 11.02-8.4 21.87-10.06 23.2-5.73 11.83m-16.85 32.65l-3 5.63-.5.84m-18.96 31.47l-14.18 21.84-19.95 28.06-8 10.3m-22.98 28.66l-4.74 5.62m-24.38 27.48l-11.75 12.78-13.57 13.85-26.52 25.43" stroke="#000" stroke-width="8" fill="none"/><path d="M1091.56 809.16c-196 196-440.9 268.86-547.02 162.74-106.12-106.1-33.26-351.02 162.74-547.02s440.9-268.86 547.02-162.74c106.1 106.1 33.25 351.02-162.74 547.02z" fill-opacity="0"/><path d="M1094.4 812c-1.58 1.55-4.1 1.55-5.67 0-1.56-1.57-1.56-4.1 0-5.67 1.56-1.56 4.1-1.56 5.66 0 1.55 1.56 1.55 4.1 0 5.66zm-11.5 11c-1.57 1.57-4.1 1.57-5.67 0-1.56-1.55-1.56-4.08 0-5.65 1.57-1.56 4.1-1.56 5.66 0 1.55 1.57 1.55 4.1 0 5.66zm-11.5 11.04c-1.57 1.56-4.1 1.56-5.66 0-1.56-1.57-1.56-4.1 0-5.66 1.56-1.56 4.1-1.56 5.66 0 1.56 1.56 1.56 4.1 0 5.66zm-11.74 10.76c-1.56 1.56-4.1 1.56-5.66 0-1.56-1.56-1.56-4.1 0-5.66 1.57-1.56 4.1-1.56 5.66 0 1.56 1.56 1.56 4.1 0 5.66zm-11.94 10.53c-1.57 1.57-4.1 1.57-5.66 0-1.56-1.56-1.56-4.1 0-5.65 1.56-1.57 4.1-1.57 5.66 0 1.56 1.56 1.56 4.1 0 5.65zm-12 10.47c-1.57 1.56-4.1 1.56-5.66 0-1.56-1.56-1.56-4.1 0-5.65 1.56-1.57 4.1-1.57 5.66 0 1.56 1.56 1.56 4.1 0 5.65zm-12.38 10.03c-1.56 1.56-4.1 1.56-5.66 0-1.56-1.56-1.56-4.1 0-5.66 1.56-1.56 4.1-1.56 5.66 0 1.56 1.56 1.56 4.1 0 5.66zm-12.38 10.02c-1.56 1.56-4.1 1.56-5.65 0-1.56-1.56-1.56-4.1 0-5.66 1.57-1.57 4.1-1.57 5.66 0 1.56 1.56 1.56 4.1 0 5.65zm-12.7 9.6c-1.56 1.57-4.1 1.57-5.66 0-1.56-1.55-1.56-4.1 0-5.65 1.57-1.56 4.1-1.56 5.66 0 1.56 1.56 1.56 4.1 0 5.66zm-12.78 9.5c-1.57 1.57-4.1 1.57-5.66 0-1.56-1.56-1.56-4.1 0-5.65 1.56-1.56 4.1-1.56 5.66 0 1.56 1.56 1.56 4.1 0 5.66zm-13 9.2c-1.56 1.57-4.1 1.57-5.66 0-1.56-1.56-1.56-4.1 0-5.65 1.56-1.56 4.1-1.56 5.66 0 1.56 1.56 1.56 4.1 0 5.66zm-13.17 8.96c-1.55 1.57-4.1 1.57-5.65 0-1.56-1.55-1.56-4.08 0-5.65 1.56-1.56 4.1-1.56 5.66 0 1.57 1.57 1.57 4.1 0 5.66zm-13.3 8.74c-1.57 1.56-4.1 1.56-5.67 0-1.56-1.57-1.56-4.1 0-5.66 1.56-1.56 4.1-1.56 5.66 0 1.55 1.56 1.55 4.1 0 5.66zm-13.55 8.4c-1.56 1.55-4.1 1.55-5.65 0-1.57-1.57-1.56-4.1 0-5.67 1.56-1.56 4.1-1.56 5.65 0 1.57 1.57 1.57 4.1 0 5.66zm-13.66 8.17c-1.57 1.57-4.1 1.57-5.67 0-1.56-1.55-1.56-4.1 0-5.65 1.56-1.56 4.1-1.56 5.66 0 1.55 1.56 1.55 4.1 0 5.66zm-13.88 7.83c-1.57 1.56-4.1 1.56-5.66 0-1.56-1.56-1.56-4.1 0-5.66 1.56-1.56 4.1-1.56 5.66 0 1.56 1.56 1.56 4.1 0 5.66zm-14.03 7.54c-1.57 1.57-4.1 1.57-5.66 0-1.57-1.56-1.57-4.1 0-5.65 1.56-1.56 4.1-1.56 5.65 0 1.55 1.56 1.56 4.1 0 5.65zM876.7 971c-1.56 1.57-4.1 1.57-5.65 0-1.57-1.55-1.57-4.1 0-5.65 1.56-1.56 4.1-1.56 5.65 0 1.57 1.56 1.57 4.1 0 5.66zm-14.38 6.83c-1.57 1.56-4.1 1.56-5.66 0-1.56-1.56-1.56-4.1 0-5.66 1.56-1.56 4.1-1.56 5.66 0 1.56 1.57 1.56 4.1 0 5.66zm-14.5 6.62c-1.55 1.56-4.1 1.56-5.65 0-1.56-1.56-1.56-4.1 0-5.66 1.56-1.57 4.1-1.57 5.66 0 1.56 1.56 1.56 4.1 0 5.65zm-14.74 6.02c-1.56 1.56-4.1 1.56-5.65 0-1.56-1.56-1.56-4.1 0-5.66 1.56-1.55 4.1-1.55 5.65 0 1.57 1.58 1.57 4.1 0 5.67zm-14.85 5.72c-1.57 1.55-4.1 1.55-5.66 0-1.56-1.57-1.56-4.1 0-5.66 1.56-1.57 4.1-1.57 5.66 0 1.56 1.56 1.56 4.1 0 5.65zm-15 5.35c-1.56 1.57-4.1 1.57-5.66 0-1.56-1.56-1.56-4.1 0-5.65 1.56-1.57 4.1-1.57 5.66 0 1.56 1.56 1.56 4.1 0 5.65zm-15.2 4.77c-1.56 1.56-4.1 1.56-5.66 0-1.56-1.56-1.56-4.1 0-5.66 1.57-1.56 4.1-1.56 5.66 0 1.56 1.57 1.56 4.1 0 5.66zm-15.33 4.3c-1.57 1.55-4.1 1.55-5.66 0-1.56-1.57-1.56-4.1 0-5.67 1.56-1.56 4.1-1.56 5.66 0 1.56 1.56 1.56 4.1 0 5.66zm-15.47 3.77c-1.57 1.55-4.1 1.55-5.66 0-1.56-1.58-1.56-4.1 0-5.67 1.56-1.56 4.1-1.56 5.66 0 1.56 1.56 1.56 4.1 0 5.66zm-15.6 3.2c-1.56 1.55-4.1 1.55-5.66 0-1.56-1.57-1.56-4.1 0-5.67 1.56-1.56 4.1-1.56 5.66 0 1.56 1.56 1.56 4.1 0 5.66zm-15.72 2.55c-1.55 1.56-4.08 1.56-5.65 0-1.56-1.56-1.56-4.1 0-5.66 1.57-1.57 4.1-1.57 5.66 0 1.57 1.55 1.57 4.1 0 5.65zm-15.8 1.87c-1.56 1.56-4.1 1.56-5.66 0-1.56-1.57-1.56-4.1 0-5.66 1.56-1.56 4.1-1.56 5.66 0 1.56 1.56 1.56 4.1 0 5.66zm-15.9 1.12c-1.55 1.56-4.08 1.56-5.64 0-1.57-1.56-1.56-4.1 0-5.66 1.56-1.56 4.1-1.56 5.65 0 1.58 1.56 1.58 4.1 0 5.66zm-15.9.32c-1.57 1.57-4.1 1.57-5.66 0-1.57-1.56-1.57-4.1 0-5.65 1.56-1.55 4.1-1.56 5.65 0 1.56 1.57 1.56 4.1 0 5.66zm-15.92-.7c-1.56 1.57-4.1 1.57-5.65 0-1.56-1.55-1.56-4.1 0-5.65 1.56-1.55 4.1-1.55 5.65 0 1.57 1.57 1.57 4.1 0 5.67zm-15.84-1.6c-1.56 1.57-4.1 1.57-5.66 0-1.56-1.56-1.56-4.1 0-5.65 1.57-1.55 4.1-1.55 5.66 0 1.56 1.57 1.56 4.1 0 5.67zm-15.68-2.77c-1.56 1.55-4.1 1.55-5.66 0-1.56-1.57-1.56-4.1 0-5.67 1.57-1.56 4.1-1.56 5.66 0 1.56 1.57 1.56 4.1 0 5.66zm-15.42-3.96c-1.56 1.57-4.1 1.57-5.66 0-1.56-1.56-1.56-4.1 0-5.65 1.56-1.57 4.1-1.57 5.66 0 1.56 1.55 1.56 4.08 0 5.64zm-15.04-5.2c-1.57 1.55-4.1 1.55-5.66 0-1.56-1.57-1.56-4.1 0-5.67 1.56-1.56 4.1-1.56 5.66 0 1.56 1.56 1.56 4.1 0 5.66zm-14.5-6.57c-1.57 1.56-4.1 1.56-5.67 0-1.56-1.57-1.56-4.1 0-5.66 1.57-1.55 4.1-1.55 5.66 0 1.55 1.57 1.55 4.1 0 5.67zm-13.78-8c-1.56 1.57-4.1 1.57-5.66 0-1.56-1.55-1.56-4.08 0-5.65 1.56-1.56 4.1-1.56 5.66 0 1.56 1.57 1.56 4.1 0 5.66zm-12.9-9.3c-1.57 1.56-4.1 1.56-5.67 0-1.56-1.56-1.56-4.1 0-5.66 1.56-1.55 4.1-1.55 5.66 0 1.57 1.58 1.57 4.1 0 5.67zm-11.85-10.64c-1.57 1.56-4.1 1.56-5.66 0-1.55-1.56-1.55-4.1 0-5.66 1.57-1.56 4.1-1.56 5.67 0 1.56 1.56 1.56 4.1 0 5.66zm-10.62-11.86c-1.56 1.56-4.1 1.56-5.66 0-1.57-1.56-1.57-4.1 0-5.66 1.55-1.55 4.1-1.55 5.65 0 1.56 1.57 1.56 4.1 0 5.67zM527.4 950c-1.57 1.55-4.1 1.55-5.67 0-1.56-1.57-1.56-4.1 0-5.67 1.56-1.56 4.1-1.56 5.66 0 1.55 1.57 1.55 4.1 0 5.66zm-7.95-13.8c-1.56 1.55-4.1 1.55-5.65 0-1.57-1.57-1.57-4.1 0-5.67 1.56-1.56 4.1-1.56 5.65 0 1.57 1.57 1.57 4.1 0 5.66zm-6.58-14.5c-1.56 1.56-4.1 1.56-5.65 0-1.57-1.57-1.57-4.1 0-5.66 1.56-1.56 4.1-1.56 5.65 0 1.57 1.56 1.57 4.1 0 5.65zm-5.23-15.04c-1.56 1.56-4.1 1.56-5.65 0-1.58-1.56-1.58-4.1 0-5.66 1.55-1.56 4.08-1.56 5.64 0 1.56 1.56 1.56 4.1 0 5.66zm-3.93-15.43c-1.55 1.56-4.1 1.56-5.65 0-1.56-1.56-1.56-4.1 0-5.66 1.56-1.56 4.1-1.56 5.66 0 1.57 1.57 1.57 4.1 0 5.66zm-2.73-15.68c-1.56 1.56-4.1 1.56-5.65 0-1.57-1.57-1.57-4.1 0-5.66 1.56-1.57 4.1-1.57 5.65 0 1.56 1.55 1.56 4.1 0 5.65zm-1.7-15.84c-1.55 1.58-4.08 1.58-5.64 0-1.57-1.55-1.57-4.08 0-5.64 1.56-1.57 4.1-1.57 5.65 0 1.57 1.56 1.57 4.1 0 5.65zm-.58-15.9c-1.57 1.56-4.1 1.56-5.67 0-1.56-1.56-1.56-4.1 0-5.66 1.56-1.56 4.1-1.56 5.66 0 1.55 1.57 1.55 4.1 0 5.66zm.24-15.92c-1.56 1.56-4.1 1.56-5.65 0-1.58-1.56-1.58-4.1 0-5.66 1.55-1.56 4.08-1.56 5.64 0 1.56 1.56 1.57 4.1 0 5.66zm1.07-15.9c-1.55 1.57-4.1 1.57-5.65 0-1.56-1.55-1.56-4.08 0-5.65 1.56-1.56 4.1-1.56 5.66 0 1.57 1.57 1.57 4.1 0 5.66zm1.9-15.8c-1.57 1.56-4.1 1.56-5.66 0-1.56-1.57-1.56-4.1 0-5.66 1.56-1.56 4.1-1.56 5.66 0 1.56 1.56 1.56 4.1 0 5.66zm2.56-15.72c-1.57 1.56-4.1 1.56-5.66 0-1.56-1.56-1.56-4.1 0-5.66 1.56-1.56 4.1-1.56 5.66 0 1.56 1.56 1.56 4.1 0 5.66zm3.17-15.6c-1.57 1.55-4.1 1.55-5.66 0-1.56-1.57-1.56-4.1 0-5.67 1.56-1.57 4.1-1.57 5.66 0 1.56 1.56 1.56 4.1 0 5.65zm3.8-15.48c-1.56 1.57-4.1 1.57-5.66 0-1.56-1.56-1.56-4.1 0-5.65 1.57-1.56 4.1-1.56 5.66 0 1.56 1.56 1.56 4.1 0 5.65zm4.36-15.3c-1.57 1.55-4.1 1.55-5.66 0-1.56-1.57-1.56-4.1 0-5.67 1.56-1.55 4.1-1.55 5.65 0 1.56 1.57 1.56 4.1 0 5.67zm4.83-15.18c-1.56 1.56-4.1 1.56-5.66 0-1.56-1.57-1.56-4.1 0-5.66 1.57-1.56 4.1-1.56 5.66 0 1.56 1.56 1.56 4.1 0 5.66zm5.24-15.04c-1.57 1.56-4.1 1.56-5.66 0-1.55-1.56-1.55-4.1 0-5.66 1.57-1.56 4.1-1.56 5.67 0 1.56 1.56 1.56 4.1 0 5.66zm5.7-14.87c-1.55 1.55-4.1 1.55-5.65 0-1.56-1.57-1.56-4.1 0-5.67 1.56-1.56 4.1-1.56 5.66 0 1.56 1.57 1.56 4.1 0 5.66zm6.2-14.7c-1.57 1.58-4.1 1.58-5.67 0-1.56-1.55-1.56-4.08 0-5.64 1.57-1.56 4.1-1.56 5.66 0 1.56 1.56 1.56 4.1 0 5.65zm6.42-14.56c-1.58 1.57-4.1 1.57-5.67 0-1.56-1.56-1.56-4.1 0-5.65 1.56-1.58 4.1-1.58 5.66 0 1.55 1.55 1.55 4.08 0 5.64zm6.92-14.33c-1.56 1.57-4.1 1.57-5.66 0-1.56-1.56-1.56-4.1 0-5.65 1.57-1.56 4.1-1.56 5.66 0 1.56 1.56 1.56 4.1 0 5.66zm7.2-14.2c-1.57 1.56-4.1 1.56-5.66 0-1.56-1.56-1.56-4.1 0-5.66 1.56-1.56 4.1-1.56 5.66 0 1.56 1.57 1.56 4.1 0 5.66zm7.53-14.03c-1.56 1.56-4.1 1.56-5.66 0-1.57-1.57-1.57-4.1 0-5.66 1.55-1.55 4.1-1.55 5.65 0 1.56 1.57 1.56 4.1 0 5.67zm7.87-13.85c-1.56 1.57-4.1 1.57-5.66 0-1.56-1.56-1.56-4.1 0-5.65 1.56-1.56 4.1-1.56 5.66 0 1.56 1.56 1.56 4.1 0 5.65zm8.1-13.7c-1.55 1.56-4.1 1.56-5.65 0-1.56-1.56-1.56-4.1 0-5.66 1.56-1.56 4.1-1.56 5.66 0 1.56 1.56 1.56 4.1 0 5.66zm8.47-13.5c-1.57 1.57-4.1 1.57-5.67 0-1.56-1.55-1.56-4.1 0-5.65 1.57-1.56 4.1-1.56 5.66 0 1.55 1.56 1.55 4.1 0 5.66zm8.67-13.35c-1.56 1.56-4.1 1.56-5.66 0-1.55-1.56-1.55-4.1 0-5.65 1.57-1.57 4.1-1.57 5.67 0 1.56 1.56 1.56 4.1 0 5.65zm8.97-13.15c-1.56 1.56-4.1 1.56-5.66 0-1.56-1.57-1.56-4.1 0-5.66 1.56-1.56 4.1-1.56 5.66 0 1.56 1.56 1.56 4.1 0 5.66zm9.23-12.98c-1.57 1.56-4.1 1.56-5.66 0-1.55-1.57-1.55-4.1 0-5.66 1.57-1.56 4.1-1.56 5.67 0 1.56 1.56 1.56 4.1 0 5.66zm9.4-12.85c-1.56 1.55-4.1 1.55-5.65 0-1.56-1.57-1.56-4.1 0-5.67 1.56-1.56 4.1-1.56 5.66 0 1.56 1.56 1.56 4.1 0 5.66zm9.77-12.6c-1.56 1.57-4.1 1.57-5.66 0-1.56-1.56-1.56-4.1 0-5.65 1.57-1.56 4.1-1.56 5.66 0 1.56 1.56 1.56 4.1 0 5.66zm9.8-12.56c-1.57 1.57-4.1 1.57-5.67 0-1.56-1.56-1.56-4.1 0-5.65 1.57-1.58 4.1-1.58 5.66 0 1.56 1.55 1.56 4.08 0 5.64zm10.27-12.16c-1.55 1.56-4.08 1.56-5.65 0-1.56-1.56-1.56-4.1 0-5.66 1.57-1.56 4.1-1.56 5.66 0 1.57 1.57 1.57 4.1 0 5.66zm10.3-12.16c-1.57 1.56-4.1 1.56-5.66 0-1.56-1.57-1.57-4.1 0-5.66 1.56-1.56 4.1-1.56 5.65 0 1.56 1.56 1.56 4.1 0 5.66zm10.6-11.87c-1.55 1.56-4.08 1.56-5.64 0-1.56-1.56-1.56-4.1 0-5.66 1.56-1.57 4.1-1.57 5.65 0 1.58 1.56 1.58 4.1 0 5.65zm10.8-11.72c-1.57 1.56-4.1 1.56-5.66 0-1.56-1.56-1.56-4.1 0-5.66 1.56-1.56 4.1-1.56 5.66 0 1.56 1.56 1.56 4.1 0 5.66zm10.86-11.64c-1.56 1.55-4.1 1.55-5.65 0-1.56-1.57-1.56-4.1 0-5.67 1.57-1.56 4.1-1.56 5.66 0 1.57 1.56 1.57 4.1 0 5.66zm11.15-11.4c-1.55 1.57-4.1 1.57-5.65 0-1.56-1.55-1.56-4.1 0-5.65 1.56-1.56 4.1-1.56 5.66 0 1.57 1.56 1.57 4.1 0 5.66zm11.5-11.02c-1.56 1.57-4.1 1.57-5.65 0-1.57-1.56-1.57-4.1 0-5.65 1.56-1.56 4.1-1.56 5.65 0 1.56 1.56 1.56 4.1 0 5.65zm11.5-11.02c-1.56 1.56-4.1 1.56-5.66 0-1.56-1.56-1.56-4.1 0-5.66 1.56-1.56 4.1-1.56 5.66 0 1.56 1.57 1.56 4.1 0 5.66zm11.73-10.76c-1.56 1.56-4.1 1.56-5.65 0-1.57-1.57-1.57-4.1 0-5.66 1.56-1.56 4.1-1.56 5.65 0 1.56 1.56 1.56 4.1 0 5.66zm11.95-10.54c-1.56 1.57-4.1 1.57-5.66 0-1.56-1.56-1.56-4.1 0-5.65 1.56-1.56 4.1-1.56 5.66 0 1.56 1.57 1.56 4.1 0 5.66zm12-10.47c-1.56 1.56-4.1 1.56-5.66 0-1.56-1.57-1.56-4.1 0-5.66 1.56-1.57 4.1-1.57 5.66 0 1.56 1.56 1.56 4.1 0 5.65zm12.37-10.03c-1.56 1.56-4.1 1.56-5.65 0-1.56-1.56-1.56-4.1 0-5.66 1.56-1.55 4.1-1.55 5.65 0 1.57 1.57 1.57 4.1 0 5.67zm12.38-10.03c-1.56 1.57-4.1 1.57-5.66 0-1.56-1.56-1.56-4.1 0-5.65 1.57-1.57 4.1-1.57 5.66 0 1.56 1.55 1.56 4.08 0 5.64zm12.7-9.6c-1.56 1.56-4.1 1.56-5.66 0-1.56-1.56-1.56-4.1 0-5.66 1.57-1.56 4.1-1.56 5.66 0 1.56 1.56 1.56 4.1 0 5.66zm12.8-9.5c-1.58 1.56-4.1 1.56-5.67 0-1.56-1.56-1.56-4.1 0-5.66 1.56-1.56 4.1-1.56 5.66 0 1.56 1.56 1.56 4.1 0 5.66zm12.98-9.2c-1.55 1.56-4.08 1.56-5.64 0-1.56-1.56-1.56-4.1 0-5.66 1.56-1.56 4.1-1.56 5.65 0 1.58 1.57 1.58 4.1 0 5.66zm13.2-8.95c-1.58 1.55-4.1 1.55-5.67 0-1.56-1.58-1.56-4.1 0-5.67 1.56-1.56 4.1-1.56 5.66 0 1.55 1.56 1.55 4.1 0 5.66zm13.3-8.74c-1.56 1.56-4.1 1.56-5.65 0-1.56-1.56-1.56-4.1 0-5.66 1.56-1.56 4.1-1.56 5.66 0 1.57 1.57 1.57 4.1 0 5.66zm13.54-8.4c-1.56 1.57-4.1 1.57-5.66 0-1.56-1.56-1.56-4.1 0-5.65 1.57-1.55 4.1-1.55 5.66 0 1.56 1.57 1.56 4.1 0 5.67zm13.66-8.17c-1.56 1.55-4.1 1.55-5.65 0-1.56-1.57-1.56-4.1 0-5.67 1.56-1.56 4.1-1.56 5.65 0 1.57 1.56 1.57 4.1 0 5.66zm13.88-7.83c-1.56 1.56-4.1 1.56-5.66 0-1.56-1.57-1.56-4.1 0-5.66 1.56-1.55 4.1-1.55 5.66 0 1.56 1.57 1.56 4.1 0 5.67zm14.02-7.55c-1.56 1.56-4.1 1.56-5.66 0-1.56-1.56-1.56-4.1 0-5.65 1.57-1.57 4.1-1.57 5.66 0 1.56 1.56 1.56 4.1 0 5.65zm14.2-7.23c-1.57 1.55-4.1 1.55-5.67 0-1.56-1.57-1.56-4.1 0-5.67 1.56-1.56 4.1-1.56 5.66 0 1.55 1.56 1.55 4.1 0 5.66zm14.38-6.83c-1.56 1.56-4.1 1.56-5.66 0-1.56-1.57-1.56-4.1 0-5.66 1.56-1.55 4.1-1.55 5.66 0 1.56 1.57 1.56 4.1 0 5.67zm14.48-6.62c-1.56 1.56-4.1 1.56-5.65 0-1.56-1.57-1.56-4.1 0-5.66 1.57-1.57 4.1-1.57 5.66 0 1.57 1.55 1.57 4.08 0 5.65zm14.75-6.03c-1.55 1.57-4.1 1.57-5.65 0-1.56-1.56-1.56-4.1 0-5.65 1.56-1.56 4.1-1.57 5.66 0 1.57 1.56 1.57 4.1 0 5.65zm14.87-5.72c-1.56 1.57-4.1 1.57-5.66 0-1.55-1.56-1.55-4.1 0-5.65 1.57-1.57 4.1-1.57 5.67 0 1.56 1.56 1.56 4.1 0 5.65zm15-5.36c-1.57 1.56-4.1 1.56-5.66 0-1.55-1.56-1.55-4.1 0-5.65 1.57-1.58 4.1-1.58 5.67 0 1.56 1.55 1.56 4.08 0 5.64zm15.2-4.77c-1.57 1.57-4.1 1.57-5.66 0-1.56-1.56-1.56-4.1 0-5.65 1.57-1.56 4.1-1.56 5.66 0 1.57 1.56 1.56 4.1 0 5.65zm15.33-4.28c-1.56 1.55-4.1 1.55-5.66 0-1.56-1.58-1.56-4.1 0-5.67 1.56-1.56 4.1-1.56 5.66 0 1.56 1.56 1.56 4.1 0 5.66zm15.47-3.8c-1.56 1.57-4.1 1.57-5.66 0-1.55-1.55-1.55-4.08 0-5.65 1.57-1.56 4.1-1.56 5.67 0 1.56 1.57 1.56 4.1 0 5.66zm15.6-3.2c-1.57 1.57-4.1 1.57-5.66 0-1.55-1.55-1.55-4.1 0-5.65 1.57-1.56 4.1-1.56 5.67 0 1.56 1.56 1.56 4.1 0 5.66zm15.7-2.55c-1.55 1.56-4.08 1.56-5.65 0-1.56-1.57-1.56-4.1 0-5.66 1.57-1.57 4.1-1.57 5.66 0 1.56 1.55 1.56 4.08 0 5.65zm15.83-1.87c-1.57 1.56-4.1 1.56-5.66 0-1.56-1.56-1.56-4.1 0-5.66 1.56-1.56 4.1-1.56 5.66 0 1.56 1.56 1.56 4.1 0 5.66zm15.88-1.12c-1.56 1.56-4.1 1.56-5.66 0-1.56-1.56-1.56-4.1 0-5.66 1.57-1.56 4.1-1.56 5.66 0 1.56 1.56 1.56 4.1 0 5.66zm15.92-.33c-1.56 1.56-4.1 1.56-5.66 0-1.56-1.56-1.56-4.1 0-5.65 1.57-1.57 4.1-1.57 5.66 0 1.56 1.56 1.56 4.1 0 5.65zm15.9.7c-1.55 1.56-4.1 1.56-5.65 0-1.56-1.56-1.56-4.1 0-5.66 1.56-1.56 4.1-1.56 5.66 0 1.57 1.56 1.57 4.1 0 5.66zm15.85 1.6c-1.56 1.56-4.1 1.56-5.66 0-1.57-1.56-1.57-4.1 0-5.66 1.56-1.56 4.1-1.56 5.65 0 1.56 1.57 1.56 4.1 0 5.66zm15.68 2.77c-1.56 1.57-4.1 1.57-5.66 0-1.56-1.56-1.56-4.1 0-5.65 1.57-1.57 4.1-1.57 5.66 0 1.56 1.56 1.56 4.1 0 5.65zm15.43 3.95c-1.57 1.56-4.1 1.56-5.66 0-1.56-1.56-1.56-4.1 0-5.66 1.56-1.57 4.1-1.57 5.66 0 1.56 1.56 1.56 4.1 0 5.65zm15.04 5.22c-1.57 1.56-4.1 1.56-5.66 0-1.56-1.56-1.56-4.1 0-5.66 1.56-1.55 4.1-1.55 5.66 0 1.56 1.57 1.56 4.1 0 5.67zm14.5 6.56c-1.56 1.56-4.1 1.56-5.65 0-1.57-1.56-1.57-4.1 0-5.66 1.56-1.56 4.1-1.56 5.65 0 1.56 1.57 1.56 4.1 0 5.66zm13.77 8c-1.56 1.55-4.1 1.55-5.65 0-1.56-1.58-1.56-4.1 0-5.67 1.56-1.56 4.1-1.56 5.65 0 1.57 1.56 1.57 4.1 0 5.66zm12.92 9.3c-1.58 1.56-4.1 1.56-5.67 0-1.56-1.57-1.56-4.1 0-5.66 1.56-1.56 4.1-1.56 5.66 0 1.55 1.56 1.55 4.1 0 5.66zm11.83 10.64c-1.57 1.56-4.1 1.56-5.66 0-1.56-1.57-1.56-4.1 0-5.66 1.56-1.55 4.1-1.55 5.66 0 1.56 1.57 1.56 4.1 0 5.67zm10.62 11.86c-1.57 1.56-4.1 1.56-5.66 0-1.57-1.56-1.57-4.1 0-5.66 1.55-1.56 4.08-1.56 5.65 0 1.56 1.56 1.56 4.1 0 5.66zm9.35 12.87c-1.56 1.57-4.1 1.57-5.65 0-1.56-1.56-1.56-4.1 0-5.65 1.56-1.56 4.1-1.56 5.65 0 1.57 1.56 1.57 4.1 0 5.65zm7.94 13.8c-1.56 1.57-4.1 1.57-5.66 0-1.56-1.56-1.56-4.1 0-5.65 1.57-1.56 4.1-1.56 5.66 0 1.56 1.56 1.56 4.1 0 5.66zm6.58 14.5c-1.56 1.56-4.1 1.56-5.66 0-1.56-1.56-1.56-4.1 0-5.66 1.56-1.56 4.1-1.56 5.66 0 1.56 1.57 1.56 4.1 0 5.66zm5.23 15.04c-1.56 1.56-4.1 1.56-5.66 0-1.57-1.56-1.57-4.1 0-5.66 1.56-1.56 4.1-1.56 5.65 0 1.56 1.56 1.56 4.1 0 5.66zm3.94 15.42c-1.58 1.57-4.1 1.57-5.67 0-1.56-1.56-1.56-4.1 0-5.65 1.56-1.55 4.1-1.55 5.66 0 1.55 1.57 1.55 4.1 0 5.66zm2.72 15.7c-1.56 1.55-4.1 1.55-5.66 0-1.56-1.57-1.56-4.1 0-5.67 1.57-1.57 4.1-1.57 5.66 0 1.56 1.55 1.56 4.1 0 5.65zm1.7 15.82c-1.57 1.56-4.1 1.57-5.67 0-1.56-1.56-1.56-4.1 0-5.65 1.56-1.57 4.1-1.57 5.66 0 1.57 1.56 1.57 4.1 0 5.65zm.58 15.9c-1.56 1.58-4.1 1.58-5.65 0-1.57-1.55-1.57-4.08 0-5.64 1.56-1.56 4.1-1.56 5.65 0 1.57 1.56 1.57 4.1 0 5.65zm-.25 15.94c-1.56 1.56-4.1 1.56-5.66 0-1.57-1.56-1.57-4.1 0-5.66 1.56-1.56 4.1-1.56 5.65 0 1.56 1.56 1.56 4.1 0 5.66zm-1.06 15.9c-1.58 1.55-4.1 1.55-5.67 0-1.56-1.58-1.56-4.1 0-5.67 1.56-1.56 4.1-1.56 5.66 0 1.55 1.56 1.55 4.1 0 5.66zm-1.9 15.8c-1.56 1.56-4.1 1.56-5.66 0-1.56-1.56-1.56-4.1 0-5.66 1.56-1.56 4.1-1.56 5.66 0 1.56 1.56 1.56 4.1 0 5.66zm-2.56 15.72c-1.56 1.56-4.1 1.56-5.66 0-1.56-1.56-1.56-4.1 0-5.66 1.56-1.56 4.1-1.56 5.66 0 1.56 1.56 1.56 4.1 0 5.66zm-3.17 15.6c-1.57 1.57-4.1 1.57-5.66 0-1.55-1.56-1.55-4.1 0-5.65 1.57-1.57 4.1-1.57 5.67 0 1.56 1.55 1.56 4.08 0 5.65zm-3.8 15.47c-1.57 1.57-4.1 1.57-5.66 0-1.56-1.55-1.56-4.08 0-5.65 1.57-1.56 4.1-1.56 5.66 0 1.56 1.57 1.56 4.1 0 5.66zm-4.37 15.33c-1.56 1.56-4.1 1.56-5.66 0-1.56-1.56-1.56-4.1 0-5.66 1.56-1.56 4.1-1.56 5.66 0 1.56 1.56 1.56 4.1 0 5.66zm-4.84 15.17c-1.56 1.56-4.1 1.56-5.65 0-1.56-1.56-1.56-4.1 0-5.66 1.57-1.56 4.1-1.56 5.66 0 1.57 1.56 1.57 4.1 0 5.66zm-5.23 15.04c-1.56 1.56-4.1 1.56-5.66 0-1.56-1.56-1.56-4.1 0-5.66 1.56-1.56 4.1-1.56 5.66 0 1.56 1.56 1.56 4.1 0 5.66zm-5.72 14.87c-1.55 1.57-4.08 1.57-5.64 0-1.56-1.56-1.56-4.1 0-5.65 1.56-1.56 4.1-1.56 5.65 0 1.58 1.56 1.58 4.1 0 5.66zm-6.17 14.68c-1.56 1.56-4.1 1.56-5.65 0-1.57-1.56-1.57-4.1 0-5.66 1.56-1.56 4.1-1.56 5.65 0 1.57 1.57 1.57 4.1 0 5.66zm-6.42 14.57c-1.55 1.56-4.1 1.56-5.65 0-1.56-1.56-1.56-4.1 0-5.65 1.56-1.57 4.1-1.57 5.66 0 1.57 1.56 1.57 4.1 0 5.65zm-6.93 14.34c-1.56 1.55-4.1 1.55-5.66 0-1.55-1.57-1.55-4.1 0-5.67 1.58-1.56 4.1-1.56 5.67 0 1.56 1.56 1.56 4.1 0 5.66zm-7.2 14.2c-1.56 1.56-4.1 1.56-5.65 0-1.56-1.57-1.56-4.1 0-5.66 1.56-1.56 4.1-1.56 5.66 0 1.56 1.56 1.56 4.1 0 5.66zm-7.52 14.03c-1.57 1.56-4.1 1.56-5.66 0-1.57-1.56-1.57-4.1 0-5.66 1.55-1.56 4.08-1.56 5.65 0 1.56 1.56 1.56 4.1 0 5.66zm-7.87 13.84c-1.57 1.56-4.1 1.56-5.66 0-1.56-1.56-1.56-4.1 0-5.66 1.56-1.55 4.1-1.55 5.66 0 1.56 1.58 1.56 4.1 0 5.67zm-8.12 13.7c-1.56 1.57-4.1 1.57-5.65 0-1.55-1.55-1.55-4.1 0-5.65 1.57-1.56 4.1-1.56 5.66 0 1.57 1.56 1.57 4.1 0 5.66zm-8.46 13.5c-1.56 1.56-4.1 1.56-5.65 0-1.57-1.56-1.57-4.1 0-5.66 1.56-1.55 4.1-1.55 5.65 0 1.57 1.57 1.57 4.1 0 5.67zm-8.67 13.35c-1.57 1.57-4.1 1.57-5.66 0-1.56-1.56-1.56-4.1 0-5.65 1.56-1.57 4.1-1.56 5.66 0 1.56 1.56 1.56 4.1 0 5.65zm-8.98 13.16c-1.56 1.56-4.1 1.56-5.65 0-1.56-1.56-1.56-4.1 0-5.66 1.56-1.56 4.1-1.56 5.65 0 1.57 1.57 1.57 4.1 0 5.66zm-9.22 12.98c-1.57 1.56-4.1 1.56-5.66 0-1.56-1.56-1.56-4.1 0-5.66 1.56-1.56 4.1-1.56 5.66 0 1.56 1.57 1.56 4.1 0 5.66zm-9.4 12.85c-1.58 1.57-4.1 1.57-5.67 0-1.56-1.56-1.56-4.1 0-5.65 1.56-1.56 4.1-1.56 5.66 0 1.56 1.56 1.56 4.1 0 5.66zm-9.78 12.6c-1.56 1.55-4.1 1.55-5.65 0-1.57-1.57-1.57-4.1 0-5.67 1.56-1.56 4.1-1.56 5.65 0 1.57 1.57 1.57 4.1 0 5.66zm-9.8 12.55c-1.55 1.56-4.08 1.56-5.64 0-1.55-1.56-1.55-4.1 0-5.65 1.57-1.57 4.1-1.57 5.66 0 1.57 1.56 1.57 4.1 0 5.65zm-10.27 12.17c-1.56 1.56-4.1 1.56-5.66 0-1.56-1.57-1.56-4.1 0-5.66 1.57-1.56 4.1-1.56 5.66 0 1.56 1.56 1.56 4.1 0 5.66zm-10.28 12.16c-1.56 1.56-4.1 1.56-5.66 0-1.56-1.56-1.56-4.1 0-5.66 1.56-1.56 4.1-1.56 5.66 0 1.56 1.56 1.56 4.1 0 5.66zm-10.62 11.86c-1.56 1.57-4.1 1.57-5.66 0-1.56-1.56-1.56-4.1 0-5.65 1.56-1.57 4.1-1.57 5.66 0 1.56 1.55 1.56 4.08 0 5.64zm-10.78 11.73c-1.56 1.56-4.1 1.56-5.66 0-1.56-1.57-1.56-4.1 0-5.66 1.56-1.55 4.1-1.55 5.66 0 1.56 1.57 1.56 4.1 0 5.67zm-10.87 11.64c-1.56 1.57-4.1 1.57-5.66 0-1.56-1.55-1.56-4.1 0-5.65 1.56-1.56 4.1-1.56 5.66 0 1.56 1.56 1.56 4.1 0 5.66z"/><path d="M600 649.12a8 8 0 0 1 8-8h64a8 8 0 0 1 8 8v52.36a8 8 0 0 1-8 8h-64a8 8 0 0 1-8-8z" stroke="#000" stroke-opacity="0" fill-opacity="0"/><use xlink:href="#a" transform="matrix(1,0,0,1,604.8,645.9234523074931) translate(1.198242187500032 42.384722222222216)"/><path d="M520 874.84a8 8 0 0 1 8-8h64a8 8 0 0 1 8 8v52.36a8 8 0 0 1-8 8h-64a8 8 0 0 1-8-8z" stroke="#000" stroke-opacity="0" fill-opacity="0"/><use xlink:href="#b" transform="matrix(1,0,0,1,524.8,871.6424692131188) translate(18.871310763888903 45.94999999999997)"/><path d="M440 487.17a8 8 0 0 1 8-8h64a8 8 0 0 1 8 8v52.35a8 8 0 0 1-8 8h-64a8 8 0 0 1-8-8z" stroke="#000" stroke-opacity="0" fill-opacity="0"/><use xlink:href="#c" transform="matrix(1,0,0,1,444.8,483.9690535494867) translate(3.9787326388889177 42.384722222222216)"/><path d="M483.16 284.76a8 8 0 0 1 8-8h64a8 8 0 0 1 8 8v52.35a8 8 0 0 1-8 8h-64a8 8 0 0 1-8-8z" stroke="#000" stroke-opacity="0" fill-opacity="0"/><use xlink:href="#d" transform="matrix(1,0,0,1,487.961711346056,281.55747865906676) translate(2.893663194444475 42.384722222222216)"/><path d="M1069.38 284.76a8 8 0 0 1 8-8h64a8 8 0 0 1 8 8v52.35a8 8 0 0 1-8 8h-64a8 8 0 0 1-8-8z" stroke="#000" stroke-opacity="0" fill-opacity="0"/><use xlink:href="#e" transform="matrix(1,0,0,1,1074.1790723587817,281.55747865906676) translate(20.078450520833346 45.94999999999997)"/><path d="M780 427.5a8 8 0 0 1 8-8h64a8 8 0 0 1 8 8v52.35a8 8 0 0 1-8 8h-64a8 8 0 0 1-8-8z" stroke="#000" stroke-opacity="0" fill-opacity="0"/><use xlink:href="#f" transform="matrix(1,0,0,1,784.8,424.29563788585443) translate(20.024197048611125 45.94999999999997)"/><path d="M960 649.12a8 8 0 0 1 8-8h64a8 8 0 0 1 8 8v52.36a8 8 0 0 1-8 8h-64a8 8 0 0 1-8-8z" stroke="#000" stroke-opacity="0" fill-opacity="0"/><use xlink:href="#g" transform="matrix(1,0,0,1,964.8,645.9234523074931) translate(20.566731770833346 45.94999999999997)"/><path d="M777.04 807.5a8 8 0 0 1 8-8h64a8 8 0 0 1 8 8v52.35a8 8 0 0 1-8 8h-64a8 8 0 0 1-8-8z" stroke="#000" stroke-opacity="0" fill-opacity="0"/><use xlink:href="#h" transform="matrix(1,0,0,1,781.8421842310961,804.2956378858544) translate(1.4830729166666963 42.384722222222216)"/><path d="M1034.08 874.84a8 8 0 0 1 8-8h64a8 8 0 0 1 8 8v52.36a8 8 0 0 1-8 8h-64a8 8 0 0 1-8-8z" stroke="#000" stroke-opacity="0" fill-opacity="0"/><use xlink:href="#i" transform="matrix(1,0,0,1,1038.8843684621922,871.6424692131188) translate(3.910915798611139 42.384722222222216)"/><path d="M1120 487.17a8 8 0 0 1 8-8h64a8 8 0 0 1 8 8v52.35a8 8 0 0 1-8 8h-64a8 8 0 0 1-8-8z" stroke="#000" stroke-opacity="0" fill-opacity="0"/><use xlink:href="#j" transform="matrix(1,0,0,1,1124.8,483.9690535494867) translate(2.3511284722222534 42.384722222222216)"/><path d="M1298.14 578a8 8 0 0 1 8-8h64a8 8 0 0 1 8 8v52.35a8 8 0 0 1-8 8h-64a8 8 0 0 1-8-8z" stroke="#000" stroke-opacity="0" fill-opacity="0"/><use xlink:href="#k" transform="matrix(1,0,0,1,1302.936028789017,574.7956378858546) translate(18.491536458333346 45.94999999999997)"/><path d="M272.4 578a8 8 0 0 1 8-8h64a8 8 0 0 1 8 8v52.35a8 8 0 0 1-8 8h-64a8 8 0 0 1-8-8z" stroke="#000" stroke-opacity="0" fill-opacity="0"/><use xlink:href="#l" transform="matrix(1,0,0,1,277.19871316666064,574.7956378858546) translate(1.8899739583333606 42.384722222222216)"/><path d="M777.04 1047.5a8 8 0 0 1 8-8h64a8 8 0 0 1 8 8v52.35a8 8 0 0 1-8 8h-64a8 8 0 0 1-8-8z" stroke="#000" stroke-opacity="0" fill-opacity="0"/><use xlink:href="#m" transform="matrix(1,0,0,1,781.8421842310961,1044.2956378858544) translate(0.8184678819444748 42.384722222222216)"/><path d="M920 947.5a8 8 0 0 1 8-8h64a8 8 0 0 1 8 8v52.35a8 8 0 0 1-8 8h-64a8 8 0 0 1-8-8z" stroke="#000" stroke-opacity="0" fill-opacity="0"/><use xlink:href="#n" transform="matrix(1,0,0,1,924.8,944.2956378858544) translate(19.563042534722236 45.94999999999997)"/><path d="M640 947.5a8 8 0 0 1 8-8h64a8 8 0 0 1 8 8v52.35a8 8 0 0 1-8 8h-64a8 8 0 0 1-8-8z" stroke="#000" stroke-opacity="0" fill-opacity="0"/><use xlink:href="#o" transform="matrix(1,0,0,1,644.8,944.2956378858546) translate(19.156141493055568 45.94999999999997)"/><path d="M777.04 216.5a8 8 0 0 1 8-8h64a8 8 0 0 1 8 8v52.35a8 8 0 0 1-8 8h-64a8 8 0 0 1-8-8z" stroke="#000" stroke-opacity="0" fill-opacity="0"/><g><use xlink:href="#p" transform="matrix(1,0,0,1,781.8421842310961,213.29563788585477) translate(19.671549479166682 45.94999999999997)"/></g><defs><path d="M738-786c71 47 173-30 250 12 6-17 18-27 33-35 51 24 124 27 141 86-6 21-18 1-35 4-1 26 44 0 34 37 0 17 4 32 11 43-9 27-35 40-49 61-20 4-52 2-63 17-69-23-171-7-226-45-37 24-92 15-129 0-117 11-246-10-350 18-7-12 8-32-21-29-17-1-16 15-24 23-35-7-65-1-96 6-66-26-86-100-84-192 21-16 64-11 80-33 36 42 132 15 180 45 47-29 123-9 186-18 37 30 119 12 162 0zm-479 28c-24-10-51 39-16 45 18-3 8-31 16-45" id="q"/><path d="M1122-444c18 49-38 90-10 136-34 94-117 142-174 212-9 11-16 22-19 33C800-51 701-12 577-6v-13c-29 8-62 14-97 15-75-4-106-62-186-62-43 0-62-48-92-65-50-29-83-64-81-149-2-30 16-51 15-80-8-42-45-66-26-124 25-79 23-161 67-226 22-34 50-62 84-83 15-50-49-85-55-139-32-19-39-61-35-119 2-34-11-63-10-97-5-80 66-80 73-145 2-38 54-32 58-68 5-27 24-22 49-37 36-21 81-45 122-57 17-1 34 14 47 3 23-20 79-19 119-22 87 1 141 53 233 43 25 42 77 76 114 105-2 8-6 16 0 23h29c22 55 63 78 59 155-4 87 6 184-43 232-26 39-48 98-48 159 0 56 54 60 82 92 43 48 46 148 67 221zm-430-885c-38-40-99 11-144-16 0 46-46 31-79 42-102 36-194 120-153 265 17 59 54 112 97 146 81 63 278 34 361-4 32-15 89-12 114-43 40-51 85-161 38-233-49-80-157-107-234-157zm230 973c0-69 48-138 8-202-23-39-35-89-77-108-50-21-94-58-153-68-186-30-339 34-402 156-18 35-27 73-27 116 0 55 25 94 49 129 46 28 65 107 122 125 91 29 200 39 320 31 24-18 33-54 64-67 29-12 52-25 62-59 6-25 34-18 34-53zM523-21c36-5 72-20 77-56 0-14-14-23-23-28-22 6-1 55-29 55-21 1-35-16-57-13-2 26 8 42 32 42" id="r"/><g id="a"><use transform="matrix(0.027126736111111084,0,0,0.027126736111111084,0,0)" xlink:href="#q"/><use transform="matrix(0.027126736111111084,0,0,0.027126736111111084,35.34613715277774,0)" xlink:href="#r"/></g><use transform="matrix(0.027126736111111084,0,0,0.027126736111111084,0,0)" xlink:href="#r" id="b"/><path d="M560-38c15 31-2 70 0 107-85 3-119-35-119-116-2-58 17-111 15-169 2-23-30-48-6-67 35-25 23-92 70-104 3-24-18-42-2-62 34-42 45-126 77-170 45-15 20-88 59-110 37-19 19-90 52-115 14-14 34-21 32-50 27-17 27-58 50-79 36-54 61-130 102-183 32-42-16-56-58-54-96 12-209 13-258-49-96 26-189-69-280 1-52 25-55 93-84 140-34 61-53 139-146 141-47-32-32-93-27-154 4-53 57-62 63-119 6-55 11-126 4-183 30 4 28-18 47-24 51 5 76 47 130 47 75 0 94-70 177-68 30 1 38-22 65-24 14-2 17 17 31 15 12 1 23-10 35-9 78 19 163 68 226 103 88-3 140-50 229-55 56-3 40 44 79 55-2 58-1 129-27 165-7 8-16 13-26 10-30 116-94 213-163 291-42 49-58 139-98 191-14 20-43 63-34 94-8 40-58 33-53 88 0 24-22 30-24 52-1 19 10 35 9 54-7 79-8 164-47 213-17 25-18 62-46 76 14 47-8 118-54 121" id="s"/><g id="c"><use transform="matrix(0.027126736111111084,0,0,0.027126736111111084,0,0)" xlink:href="#q"/><use transform="matrix(0.027126736111111084,0,0,0.027126736111111084,32.19943576388886,0)" xlink:href="#s"/></g><path d="M200-1401c105-40 177 35 281 19 48-8 97 21 147 19 85-5 160-65 248-23 31 58-55 77-92 103-23 28-66 37-112 38-128-8-271-23-381-49-9 50 21 105 14 157-21 2-34-20-57-14-7 46 24 61 54 76 35 31 29 117 46 166 52-19 124-36 188-42 48-2 93 19 141 17 59-1 96 38 135 61 18 21 30 62 44 87 13 24 31 8 52 7 93 12 76 141 121 201 18 23-12 45-11 69 12 38 5 104-43 99-9 32 28 18 31 39-2 22-33 15-32 40-1 22 16 57-7 67-20 23-29 60-67 65-11 3-21 5-21 20-2 76-85 104-160 82-19 18 14 28 28 29-7 53-88 40-140 38-30 0-38 26-64 30-38-17-87 7-135-9-37-13-79-6-90-39-13-38-74-23-98-48-28-27-33-76-72-93-12-6-27-21-28-36 7-10 11-19 14-28-7-27-36-20-31-61 1-27-6-51-5-78 2-73 60-97 132-97 68 0 131 20 135 87 2 47-20 89-18 136 1 44 35 66 30 112 26-1 51-5 78-5 34-2 63 21 95 19 48-1 77-27 125-28 52-1 58-50 96-66 96-44 158-175 116-312-38-123-122-218-239-264-66-30-149-9-209 9-42 12-60 54-105 63-30 29-49 77-101 83-67-17-62-120-64-201-3-86 12-165-6-238 19-6 26 14 43 14 6-45-40-39-43-75 1-66 6-138 11-200 1-23 10-39 26-46zM761-154c24-1 45 2 57 15 14-19-9-34-27-32-10 1-33 3-30 17" id="t"/><g id="d"><use transform="matrix(0.027126736111111084,0,0,0.027126736111111084,0,0)" xlink:href="#q"/><use transform="matrix(0.027126736111111084,0,0,0.027126736111111084,35.34613715277774,0)" xlink:href="#t"/></g><use transform="matrix(0.027126736111111084,0,0,0.027126736111111084,0,0)" xlink:href="#s" id="e"/><path d="M657-1412c95 18 199-33 276 7-21 45 44 64 5 105-26 40-68 88-89 131-12 32-57 30-81 50-47 39-96 101-110 173 13 40 65 55 90 82 20 22 63 6 81 33 20 27 59 37 61 81h43v29c27 20 37 23 38 57 28 44 49 73 55 139 4 51 43 130 14 187-17 12-30 13-50 30 52 64-5 148-48 172-35 22-47 61-66 99-91-3-117 68-202 73-24 0-49-4-73-4-58 0-105 29-168 14-76-18-150-33-199-76-18-15-36-27-56-36-20-50-45-98-86-128 26-51 2-122 1-180 0-33 9-64 27-91 28 6 48-13 74-12 74 4 124 40 128 115 3 50-29 127-73 82 1 41 7 89 25 115 11 21 31 12 58 14 119 7 282 50 370-15 39-24 71-55 104-86 24-19-3-49 21-69 25-35 63-69 64-128 1-32-15-60-13-93-2-64-70-80-59-151-73-18-143-64-221-73-50-6-99 18-150 16 10-16 46-16 51-37 3-10-26-20-33-20-36 3-73 54-103 14-3 31 13 45 43 43-17 32-44 54-96 44-10-1-22-1-33-1 29-142 127-237 227-309 22-15 29-52 48-70 26-32 60-56 82-92 36-16 81-23 99-57 2-47-42-59-84-60-31-2-56 20-87 18-22 1-38-15-60-14-20 6-38 13-60 4-9 20-55 9-80 9-45-2-85 39-80 83 9 73 1 150-68 158-27 0-48-16-65-27-1-35 27-44 29-76 2-15-17-23-15-38-1-19 13-35 12-54 2-25-15-46-14-71 10-32 32-71 60-86 48 14 98-6 149-6 107 0 192-12 287-17zm-208 92c10 0 31-2 29-15 1-15-26-22-28-3-2 8-2 13-2 18 0-6 6-2 1 0" id="u"/><use transform="matrix(0.027126736111111084,0,0,0.027126736111111084,0,0)" xlink:href="#u" id="f"/><use transform="matrix(0.027126736111111084,0,0,0.027126736111111084,0,0)" xlink:href="#t" id="g"/><path d="M448-1230c-45-4-6 48-38 66-103 56-149 183-157 334-4 53 52 39 85 55 35-28 38-70 88-86 100-31 285-75 354 14 80 6 148 48 190 93 6 21 46-11 38 25 10 52 79 57 82 117 2 33-18 62-16 95-1 32 23 47 48 55-30 71-33 165-57 243-64 33-104 102-157 146-34 28-81 19-122 38C705 3 586 44 472 1c-34-14-28-49-84-43-64-16-72-90-136-106-27-5-36-26-44-50-38-23 25-80-2-118-23-33-52-61-60-109-4-31-40-40-38-76 0-19 4-35 4-54-3-29-31-71 12-78 1-20-17-21-24-32 4-12 24-24 24-39 3-16-27-28-16-44 9-1 15-3 16-13 8-106 42-188 43-299 41-38 71-113 100-162 22-38 43-15 83-18 7 0 10-3 11-6-9-15-47-20-31-45 56-56 112-98 208-111 20-5 4-32 41-27 33-6 58-24 107-17 78-8 116 28 180 28 28 0 6 37 38 32 9 0 15-3 24-3 23 2 13 43 43 28 22 1 12 32 23 44 33 39 68 60 65 135-3 81-46 127-79 179-40-26-102 11-143-15-17-40-51-68-53-123 1-42 25-63 26-105 1-39-51-26-80-35-38-11-76-10-107 7 0-36-17-47-51-44-8 1-14-1-20-5 7 8 22 14 26 25-16 14-71 4-55 52-32-6-46 19-75 16zm130 477c-35 0-89-18-97 21H381c11 53-33 79-54 116-25 36-57 79-56 139 5 47 31 81 27 136 7 18 24 9 36 27 27 25 31 72 75 80 46 26 71 71 145 71 70 0 153 12 188-25 23-24 39-45 73-63 76-44 132-143 107-263-28-131-126-193-240-238-38-19-66-1-104-1" id="v"/><g id="h"><use transform="matrix(0.027126736111111084,0,0,0.027126736111111084,0,0)" xlink:href="#q"/><use transform="matrix(0.027126736111111084,0,0,0.027126736111111084,35.34613715277774,0)" xlink:href="#v"/></g><path d="M684-285c0 110 76 148 172 125 28-6 29-30 54-36 60 3 116 17 178 20 39 2 50 36 70 63 32 47-9 102-36 125-20 15-64 3-93 11-30-1 3-59-27-61-43 2-37 54-82 54C796-14 626 0 498-26 432-39 381-7 312-10c-44-1-88 18-132 14C122-1 66-26 56-81c13-49 69-72 104-99 78 9 159 28 245 28 110 0 115-77 112-185-7-307 40-630-1-926-20-4-37-11-61-8-33-16-72 10-107 8-16 0-18-15-36-14-74 5-170 34-223-15 14-28 3-68 0-99 56 13 74-45 126-46 40-2 79 20 119 18 20 2 35-13 50-13 15-1 17 13 32 12 51-3 80-35 133-37 42-1 82 20 124 9-8 55 31 76 27 136-5 88 19 196-13 263 27 18 0 79 29 100 7 42-25 55-27 91-1 32 15 63 13 96 0 91-26 162-26 253 0 12-5 23-17 16 1 75 25 132 25 208" id="w"/><g id="i"><use transform="matrix(0.027126736111111084,0,0,0.027126736111111084,0,0)" xlink:href="#q"/><use transform="matrix(0.027126736111111084,0,0,0.027126736111111084,31.52126736111108,0)" xlink:href="#w"/></g><g id="j"><use transform="matrix(0.027126736111111084,0,0,0.027126736111111084,0,0)" xlink:href="#q"/><use transform="matrix(0.027126736111111084,0,0,0.027126736111111084,35.34613715277774,0)" xlink:href="#u"/></g><path d="M1052-390c-83-11-175-10-167 85 1 61 36 100 59 139 22-15 56-4 84-3 19 3 37-18 51-18 24-1 45 11 65 15 6 21 39 18 40 44-7 31 4 54 10 78-10 16-36-22-47 5-54 23-170 29-224 1-13 9-34 9-54 7-21-2-34 17-52 16-26 0-36-20-58-24-18 2-22 23-29 36-8-21-56 0-57-28-39 5-14-29-12-46 1-7-3-13-12-12-37 3-35 45-61 58-23-1-43 12-66 11-59 3-87-71-43-110 40-55 152-18 205-62 41-36 48-108 46-196-88 13-168-17-254-15-38-1-72 15-110 14-37 1-74-10-111-9-65 19-179 48-205-34-4-21-19-46-18-71 34-71 21-188 114-203 38-18 41-70 80-88 24-11-3-38 5-64 84-26 97-123 157-174 42-36 82-72 108-125 13-26 31-47 63-57-18-48 39-63 57-91 22-35 43-61 85-80 39-9 6-62 62-57 71 3 121 32 124 103 1 31-13 60-12 91 5 44 23 95-17 119 21 49 36 131 44 193 2 24-16 45-15 68-1 26 11 48 10 74 1 71-26 166 11 220 56 45 178 23 254 52 26 10 27 55 24 92-35-10-50 17-72 26-8-15-16-29-27-41-26 8 0 63-35 61zm-283-651c-3-34 41-56 15-83-31-31-20-96-82-96l2 11c-50 27-62 94-116 117 5 88-80 92-108 151-7 32-50 32-52 67-23 57-56 105-98 142-39 34-67 97-87 152 6 32 51 30 88 32 75 3 148-23 181 32 4 5 9 7 15 7 41-26 118-20 163-48 10-4 19-7 26-8 18-65 50-132 49-213-1-52-14-108 3-154 6-16 11-35 11-55 1-19-11-35-10-54zm47 744c-21 4-1 19 0 32 10 0 34-5 32-18-5-10-18-14-32-14zM303-750c10-1 31-1 29-15 1-15-25-22-27-4-1 7-2 14-2 19" id="x"/><use transform="matrix(0.027126736111111084,0,0,0.027126736111111084,0,0)" xlink:href="#x" id="k"/><path d="M359-123c-80 2-57 101-57 171-34-12-82 17-104-10-23-51-58-96-86-143-20-38-5-92-5-140 0-65 70-78 67-154 8-27 23-28 40-54 36-56 77-124 129-166 19-5 53 10 57-20 12-28 65-7 85-33 54-46 143-58 201-100 59-43 102-100 142-160 14-18-13-43 16-54 51-20 41-150-10-160-14-9 10-26-8-36-14-16-42-27-53-46-47-37-127-88-206-54-78 36-209 21-273 76-26 18-37 60-17 90 36 57 117 76 126 159-10 94-146 114-233 81-14-35-29-82-47-116-16-88 38-161 71-224 20-35 44-44 56-78 11-33 79 0 88-40 11-24 53-23 86-25 61-3 101-35 168-31 150 8 248 28 315 115 27 36 74 91 97 149 5 14 13 25 25 34-27 52-7 137-43 186-20 25-18 73-50 85-29 11-19 55-49 65-67 27-103 91-175 112-79 21-125 79-203 100-42 12-41 68-92 71-35 2-44 45-78 54-11 7-22 13-22 30-2 25-28 31-28 56 0 58 79 38 129 38 42 0 66 26 107 28 17 0 28-9 33-27 12 11 7 45 18 56 10-3 8-24 23-23 23 7 28 34 59 38 76 9 111 99 192 99 110 0 89-146 196-155 64-5 68 57 56 111-7 32-37 47-44 81-5 17-20-4-29 7C989-39 927-6 853 1c-32 2-42-17-63-24-16-4-38 26-49 9-40-23-90-51-131-74-13-6-23-9-32-9-44-27-83-80-151-84-39-1-57 29-68 58zm427-1154c4-18 21-33 15-57h-43c6 0 4 11 1 14-2-2-3-5-1-7-5 24 5 49 28 50" id="y"/><g id="l"><use transform="matrix(0.027126736111111084,0,0,0.027126736111111084,0,0)" xlink:href="#q"/><use transform="matrix(0.027126736111111084,0,0,0.027126736111111084,35.34613715277774,0)" xlink:href="#y"/></g><g id="m"><use transform="matrix(0.027126736111111084,0,0,0.027126736111111084,0,0)" xlink:href="#q"/><use transform="matrix(0.027126736111111084,0,0,0.027126736111111084,35.34613715277774,0)" xlink:href="#x"/></g><use transform="matrix(0.027126736111111084,0,0,0.027126736111111084,0,0)" xlink:href="#y" id="n"/><use transform="matrix(0.027126736111111084,0,0,0.027126736111111084,0,0)" xlink:href="#v" id="o"/><use transform="matrix(0.027126736111111084,0,0,0.027126736111111084,0,0)" xlink:href="#w" id="p"/></defs></g></svg>