<svg width="446.68" height="493.52" viewBox="0 0 118.18 130.58" xmlns="http://www.w3.org/2000/svg">
  <path d="M57.19 130.43c-1.6-.33-2.94-1.1-6.72-3.94C26.67 108.73 9.54 76.03 2.3 34.51.4 23.54-.4 15.67.2 13.48a9.28 9.28 0 013.29-4.51c3.06-2.22 15.27-5.5 26.38-7.08C47.1-.57 70.22-.63 87.27 1.73A130.9 130.9 0 01108.9 6.5c5.51 1.78 7.28 3 8.64 5.96.7 1.52.73 1.78.56 5.31-.1 2.04-.59 6.5-1.09 9.9-5.07 34.74-17.15 64.68-34.05 84.41-6.17 7.2-16.2 16-20.26 17.76-1.6.7-3.84.94-5.51.6z" fill="#fff"/>
  <path d="M57.65 123.13c-1.44-.29-2.63-.99-6.03-3.52C30.27 103.67 14.9 74.33 8.41 37.08c-1.72-9.84-2.43-16.9-1.9-18.87a8.33 8.33 0 012.96-4.05c2.75-1.99 13.7-4.93 23.67-6.35 15.46-2.2 36.2-2.26 51.5-.14 7.06.98 13.8 2.46 19.4 4.27 4.95 1.6 6.54 2.69 7.76 5.35.63 1.36.65 1.6.5 4.76-.09 1.83-.53 5.83-.97 8.89-4.55 31.16-15.4 58.02-30.56 75.73-5.53 6.46-14.53 14.35-18.17 15.93a9.04 9.04 0 01-4.95.53zm5.45-12.65a100 100 0 0010.62-10.54c14.05-16.9 24.22-42.9 28.07-71.77.7-5.2.69-5.39-.2-6.38-.66-.74-1.24-.95-5.76-2.1a139 139 0 00-36.48-4.5c-7.83 0-12.27.26-18.93 1.09-9.29 1.15-21.32 3.82-22.92 5.08-1.4 1.09-1.39 1.72.17 11.43 4.08 25.55 12.72 47.84 24.7 63.77a84.69 84.69 0 0013.65 14.23c1.97 1.56 2.38 1.77 3.36 1.77 1.01 0 1.4-.21 3.72-2.08zM56 97.8C42.28 83.52 32.12 60.45 27.6 33.33c-.62-3.66-.6-4.48.16-5.09.7-.57 8.37-1.96 15.04-2.73a141.14 141.14 0 0144.05 1.76c1.9.38 3.65.8 3.9.93.89.47 1.06 1.2.73 3.22-2.53 15.91-6.87 30.36-12.8 42.65-4.79 9.9-9.69 17.21-15.71 23.45-3.67 3.8-3.62 3.8-6.98.29zm6.48-15.5c1.05-1.12 4.41-6.79 6.47-10.91 4.3-8.65 7.89-18.93 10.47-30.07 1.02-4.36 1-4.9-.06-5.47-.72-.38-8.64-1.31-13.76-1.61-4.6-.27-5.39-.18-5.93.63-.1.16-.2 10.86-.2 23.77 0 23.14 0 23.5.53 24.02.76.76 1.54.65 2.48-.36z" fill="#0e0"/>
</svg>
