<?xml version="1.0" encoding="UTF-8" standalone="no"?>
<svg
   xmlns:dc="http://purl.org/dc/elements/1.1/"
   xmlns:cc="http://creativecommons.org/ns#"
   xmlns:rdf="http://www.w3.org/1999/02/22-rdf-syntax-ns#"
   xmlns:svg="http://www.w3.org/2000/svg"
   xmlns="http://www.w3.org/2000/svg"
   xmlns:sodipodi="http://sodipodi.sourceforge.net/DTD/sodipodi-0.dtd"
   xmlns:inkscape="http://www.inkscape.org/namespaces/inkscape"
   width="726.2"
   height="726.7"
   viewBox="0 0 192.1 192.3"
   version="1.1"
   id="svg42"
   sodipodi:docname="Color Wheel.svg"
   inkscape:version="1.0.2-2 (e86c870879, 2021-01-15)">
  <metadata
     id="metadata48">
    <rdf:RDF>
      <cc:Work
         rdf:about="">
        <dc:format>image/svg+xml</dc:format>
        <dc:type
           rdf:resource="http://purl.org/dc/dcmitype/StillImage" />
        <dc:title></dc:title>
      </cc:Work>
    </rdf:RDF>
  </metadata>
  <defs
     id="defs46" />
  <sodipodi:namedview
     pagecolor="#ffffff"
     bordercolor="#666666"
     borderopacity="1"
     objecttolerance="10"
     gridtolerance="10"
     guidetolerance="10"
     inkscape:pageopacity="0"
     inkscape:pageshadow="2"
     inkscape:window-width="1920"
     inkscape:window-height="1017"
     id="namedview44"
     showgrid="false"
     inkscape:zoom="0.82708237"
     inkscape:cx="370.07902"
     inkscape:cy="391.68027"
     inkscape:window-x="1272"
     inkscape:window-y="-8"
     inkscape:window-maximized="1"
     inkscape:current-layer="svg42"
     inkscape:document-rotation="0" />
  <g
     id="g863">
    <path
       fill="#dc0000"
       stroke="#dc0000"
       stroke-width=".3"
       d="M67.5 2l51.7.2-7.3 31.4H77.4z"
       id="path2" />
    <path
       fill="#dc6e00"
       stroke="#dc6e00"
       stroke-width=".3"
       d="M119.2 2.2l45.8 23-23.9 24.7L112 33.6z"
       id="path4" />
    <path
       fill="#dcdc00"
       stroke="#dcdc00"
       stroke-width=".3"
       d="M165 25.2L191.8 68l-33.1 9.5L141 49.9z"
       id="path6" />
    <path
       fill="#6edc00"
       stroke="#6edc00"
       stroke-width=".3"
       d="M191.8 68l.1 50.6-32.3-7.2-1-33.8z"
       id="path8" />
    <path
       fill="#00dc00"
       stroke="#00dc00"
       stroke-width=".3"
       d="M192 118.6l-24 45-24.5-22.5 16-29.7z"
       id="path10" />
    <path
       fill="#00dc6e"
       stroke="#00dc6e"
       stroke-width=".3"
       d="M168 163.5l-43.4 27-9.2-31 28-18.4z"
       id="path12" />
    <path
       fill="#00dcdc"
       stroke="#00dcdc"
       stroke-width=".3"
       d="M124.6 190.4l-53.2-.2 9.5-30.5 34.5-.1z"
       id="path14" />
    <path
       fill="#006edc"
       stroke="#006edc"
       stroke-width=".3"
       d="M71.4 190.2L28.8 168l22.4-24.4 29.7 16.1z"
       id="path16" />
    <path
       fill="#0000dc"
       stroke="#0000dc"
       stroke-width=".3"
       d="M28.8 168l-29-42.3 33.7-10.9 17.7 28.8z"
       id="path18" />
    <path
       fill="#6e00dc"
       stroke="#6e00dc"
       stroke-width=".3"
       d="M-.1 125.7l.3-51.9 32.4 7.3.9 33.7z"
       id="path20" />
    <path
       fill="#dc00dc"
       stroke="#dc00dc"
       stroke-width=".3"
       d="M.2 73.8l24-45 24.4 22.5-16 29.8z"
       id="path22" />
    <path
       fill="#dc0064"
       stroke="#dc006e"
       stroke-width=".3"
       d="M24.2 28.9l43.3-27 10 31.7-28.9 17.7z"
       id="path24" />
    <path
       stroke-width=".3"
       d="M87 14.2q0 1-.5 1.7-.4.8-1.4 1.1l1 .8 1.1 1.6 2 3.1h-2l-1.7-2.8q-.9-1.3-1.5-1.8-.6-.4-1.3-.4H82v5h-1.7V11h3.2q1.1 0 2 .4.7.5 1.1 1.2.4.7.4 1.6zm-1.7 0q0-.9-.5-1.3-.5-.5-1.4-.5H82V16h1q1.1 0 1.7-.4.6-.3.6-1.4zm6.9-1.8V16H97v1.4h-4.7V21h5v1.5h-6.7V11h6.6v1.4zm17.8 4.2q0 1.8-.7 3.1-.8 1.3-2.3 2-1.4.8-3.2.8h-4.4V11h4.4q1.9 0 3.3.7t2.2 2q.7 1.3.7 2.9zm-1.7 0q0-1.9-1.2-3-1.2-1.2-3.6-1.2H101V21h2.6q2.2 0 3.4-1.1 1.2-1.2 1.2-3.2zM124 21q-.5.7-1.2 1.1-.8.4-1.7.4-.9 0-1.8-.5-.8-.5-1.2-1.2-.5-.8-.5-1.6 0-.9.5-1.6.4-.7 1-1.2.8-.4 1.7-.4.9 0 1.8.5.8.5 1.3 1.2.4.8.4 1.6 0 .9-.4 1.6zm-5.1-3q-.4.6-.4 1.3 0 .6.4 1.1.3.6.9.9l1.2.4q.6 0 1.2-.3.5-.3 1-1 .2-.4.2-1t-.3-1.2q-.3-.6-1-1l-1.2-.4q-.7 0-1.2.4-.5.3-.8.9zm9.8 4.1q-.3.5-.7.7-.4.2-1 .1l.3.7v1l.2 2-1-.5v-1.8q0-.9-.2-1.2-.2-.4-.5-.6l-.4-.2-1.3 2.4-.8-.5 3.1-5.4 1.5.9q.5.3.8.7.3.4.2.9l-.2.8zm-.8-.4q.2-.4.1-.8 0-.3-.5-.6l-.7-.4-1 1.7.5.3q.5.3 1 .3.3 0 .6-.5zm4.1 7.5l.2-2L130 26l-1.6 1.2-.8-.5 5.5-4 .5.3-.7 6.8zm.6-5.3l-2 1.5 1.7 1zm8.2 3.2l.8.5-3.1 5.4-.7-.4-1.2-6.3-2.4 4.2-.8-.5 3.1-5.4.7.4 1.2 6.3zm4.3 3.3q-.6-.3-1.2-.3-.7 0-1.2.3-.6.3-1 .9l-.3 1.2q0 .6.4 1.2.3.6 1 1l.5.2.8.2.6-1.1-1-.6.4-.7 1.8 1-1.3 2.3q-1.2-.1-2.2-.7-1-.6-1.5-1.4-.4-.7-.4-1.6 0-.8.5-1.4.4-.8 1.1-1.2.8-.5 1.7-.5.9 0 1.7.5l.9.6.8 1-.5.8-.7-1-.9-.7zm3.9 2.4l-1 1.6 2.3 1.3-.4.7-2.2-1.3-1 1.7 2.4 1.4-.4.6-3.2-1.8 3.1-5.4 3.1 1.8-.4.7zM157.8 42l.5 1-4-.5-3 1.7-.5-.8 3-1.8 1.6-3.7.5 1-1 2.7zm.7 3l-1.8 1 1.4 2.4-.8.4-1.4-2.4-1.8 1 1.5 2.6-.7.4-2-3.4 5.8-3.3 2 3.3-.8.4zm-.3 9.5l-.7.5-2-3.5 5.8-3.4.5.9-5 3zm2.5 4.3l-.8.4-2-3.5 5.8-3.3.5.8-5 3zm5.8 5q-.8.5-1.7.5-1 0-1.8-.5t-1.4-1.5q-.5-.9-.5-1.8 0-1 .5-1.7.4-.8 1.2-1.2.8-.5 1.7-.5 1 0 1.7.4.9.5 1.4 1.4.6 1 .6 2 0 .9-.5 1.7-.4.7-1.2 1.2zm-3.2-5.4q-.6.4-1 1l-.2 1.2q0 .7.3 1.3.4.7 1 1 .5.4 1.2.4t1.4-.3l.9-.9q.3-.6.3-1.3 0-.7-.3-1.4-.4-.7-1-1-.6-.4-1.3-.4-.7 0-1.3.4zm8.5 7.9l.4.8-3 4 4.9-.8.5.8-7.2 1-.2-.1 3.7-4.7-5.9.8V68l4.4-5.7.5.8-3 4zM171.3 84.4h-1.5v-6.9h11.5v1.7h-10zm-1.5 1.5h11.5v1.6h-11.5zm11.5 13.4v1.6h-11.5v-1.7h9l-4.5-3.6v-.3l4.4-3.6h-9v-1.6h11.6v1.5l-4.7 3.9zm-1.5 5.8h-3.5v4.8h-1.5V105h-3.5v5h-1.5v-6.6h11.5v6.5h-1.5zM174.5 123.1q.4-.7.4-1.5 0-.7-.4-1.4t-1.1-1.1q-.7-.5-1.5-.5t-1.5.5q-.7.4-1.1 1.1l-.3.7-.3 1 1.4.8.7-1.3.9.5-1.3 2.2-2.8-1.6q.1-1.5.8-2.7.7-1.3 1.7-1.8t2-.5q1 0 1.8.5 1 .6 1.5 1.5t.5 2q0 1.1-.6 2.2l-.8 1-1.1 1-1-.6 1.2-.9.9-1zm-5.6 7.2q-.6-.4-.9-.9-.2-.5-.1-1.2l-.8.3-1.3.1-2.5.2.7-1.1 2.2-.2q1 0 1.5-.2t.7-.6l.3-.4-3-1.7.6-1 6.7 3.9-1.1 1.8q-.4.7-.9 1-.5.3-1 .3-.6 0-1.1-.3zm.5-1q.5.3 1 .1.4 0 .7-.6l.5-.8-2.1-1.2-.4.6q-.3.6-.3 1 0 .5.6.9zm-1.2 4.5l-2-1.1-1.6 2.7-.9-.5 1.6-2.7-2-1.2-1.8 3-.8-.6 2.2-3.9 6.7 3.9-2.2 3.8-.9-.5zm-3 5.2l-2-1.2-1.6 2.7-.9-.5 1.6-2.7-2-1.2-1.7 3-.9-.6 2.3-3.8 6.6 3.8-2.2 3.8-.8-.5zm-4.6 9.9l-.5.9-6.7-3.8.5-.9 7.7-1.5-5.1-3 .5-.8 6.7 3.8-.5.8-7.7 1.5zM147.5 149.6l.5-.2 1 1q-1 .6-1.2 1-.3.3-.2.8 0 .4.6 1.3l5.2 9-1.3.8-5.3-9q-.6-1.2-.8-2-.1-1 .3-1.5.3-.7 1.2-1.2zm-9.3 9.5l2.7 2 4-2.2-.5-3.4 1.4-.8 1.4 11.5-1 .5-9.4-6.8zm7.3 5.4l-.5-4.1-2.8 1.6zM130 170q-.8-1.3-.8-2.7 0-1.5.8-2.7.8-1.2 2.3-2l3.5-2 5.3 9-3.5 2q-1.5 1-3 1-1.4 0-2.6-.6-1.2-.6-2-2zm1.4-.7q.9 1.5 2.4 1.8 1.5.4 3.3-.7l2-1.1-4-6.8-2 1.2q-1.8 1-2.2 2.4-.5 1.5.5 3.2zM129 175l-1.6-2.7-3.8 2.2-.7-1.2 3.8-2.2-1.6-2.8-4 2.3-.7-1.2 5.3-3 5.3 9-5.2 3.1-.7-1.2zM108 181.1v-1.4q1.7 1 3.3 1 1.2 0 2-.6 1-.5 1.4-1.4.5-.8.5-1.8t-.5-1.7q-.5-.9-1.3-1.4-.9-.5-2-.5-1.9 0-3.5 1.1V173q1.6-.8 3.5-.8 1.7 0 2.9.7 1.1.7 1.7 1.8.6 1.2.6 2.4 0 1.3-.7 2.5-.7 1.1-1.9 1.8-1.2.6-2.6.6-1.6 0-3.4-.8zm-7.6.7h-1.7l3.6-4.5v-5.1h1.4v5l3.6 4.6h-1.7l-2.6-3.3zm-8.1-9.6l1.2 2.8h4.1l1.3-2.8h1.4l-4.2 9.6h-1l-4.3-9.6zm3.4 7.5l1.4-3.5h-3zm-13.6 2.1h-1.3v-9.6H82l6.4 7.4v-7.4h1.4v9.6h-1.2l-6.5-7.5zM70.4 168.8l-.3 2.5 2.9 1.6 2-1.5 1 .6-6.8 5-.7-.4.9-8.4zm-.7 6.6l2.4-1.8-2-1.2zm-7-9.9l.5-.8 6 3.5-7.6 3.3 4 2.3-.5.8-5.7-3.3L67 168zm-3.7-2.2q-.9-.6-1.6-.4-.8.3-1.4 1.3l-2.2 3.9-1-.6 2.2-3.8q.8-1.4 2-1.7 1.1-.4 2.6.4 1.4.9 1.7 2 .3 1.1-.5 2.6l-2.2 3.8-1-.5 2.2-3.9q.6-1 .5-1.8-.2-.7-1.2-1.3zm-10.4-.7q.4-.6.9-.8.5-.3 1.2-.2l-.3-.7-.1-1.4-.2-2.4 1.1.7.2 2.2q0 1 .2 1.5.2.4.6.7l.4.2 1.7-2.9 1 .6-3.9 6.6-1.8-1q-.7-.4-1-1-.3-.5-.3-1 0-.6.3-1zm1 .6q-.3.5-.1 1 0 .3.6.7l.8.4 1.2-2-.6-.4q-.6-.4-1-.3-.5 0-.9.6zM45 162l1.2-2.1-2.7-1.6.5-.8 2.7 1.5 1.2-2-3-1.7.6-.9 3.9 2.3-3.9 6.6-3.8-2.2.5-.8zM30.8 149.3q1.5-.9 3 .3-.5-1.3-.1-2.3.3-1 1.2-1.6 1-.5 1.9-.4 1 .2 1.7.9.7.6 1.3 1.6l1.8 3.2-10 5.7L30 154q-.9-1.5-.6-2.8.2-1.2 1.4-1.8zm1 1.4q-.8.4-.9 1-.1.7.5 1.7l.7 1.2 3-1.8-.6-1q-.6-1-1.3-1.3-.8-.2-1.4.2zm3.9-3.4q-1.6.9-.2 3.4l.9 1.4 3.2-1.8-1-1.5q-.6-1.3-1.4-1.6-.7-.4-1.5 0zm-3.6-9.8l1.3-.8 3.5 6-10 5.8-.9-1.5 8.7-5zm-3-5.5q-.8-1.5-2-1.8-1.1-.3-2.7.7l-5.8 3.3-.8-1.4 5.8-3.4q2-1.2 3.8-.7 1.8.4 3 2.5t.8 3.9q-.5 1.7-2.6 3l-5.8 3.3-.9-1.5 5.8-3.3q1.7-1 2-2 .3-1.2-.6-2.6zM17 128.5l3-1.8-2.3-4 1.3-.8 2.4 4.1 3-1.8-2.5-4.4 1.3-.7 3.4 5.8-10 5.8-3.3-5.7 1.3-.8zM12.6 112v-1l7.7 3.2v.3l-7.7 3.3v-1.1l5.4-2.3zm7.6-1.9h-7.6v-1h7.6zm-3.8-10.7q1 0 2 .5.9.5 1.4 1.4.5 1 .5 2.3 0 1.2-.5 2.1-.5 1-1.4 1.5-1 .5-2 .5t-1.9-.5q-1-.5-1.5-1.4-.5-1-.5-2.3 0-1.2.5-2.1.5-1 1.4-1.5 1-.5 2-.5zm0 7.1q.9 0 1.5-.4.7-.4 1-1 .4-.7.4-1.5 0-.9-.3-1.6-.4-.7-1-1-.7-.5-1.6-.5-.7 0-1.4.4-.6.3-1 1-.5.7-.5 1.6 0 1 .4 1.6.4.7 1 1 .7.4 1.5.4zm2.8-13.1h1V98h-7.6v-1.1h6.6zm-5.7-2.1H16v-3.1h1v3.1h2.4V88h1v4.5h-7.7V88h1zm0-7.9h6.7v1.1h-6.7v2.7h-1v-6.5h1zM15.4 69.1l.4-.6 5 2.9-.4.7-4-2.3 1.1 2.7v.1l-2.9.5 4 2.2-.5.7-5-2.8.4-.7 3-.5zm8.1-2.5l-1.8-.2-1.3 2.2 1.1 1.5-.4.7-3.8-5 .3-.6 6.3.7zm-5-.5L20 68l.9-1.5zm2.6-5.5q-.3.5-.3 1.1 0 .6.3 1.1.3.5.8.9.6.3 1.1.3.6 0 1.1-.3.6-.3.9-1l.2-.4.2-.8-1-.6-.6 1-.6-.4 1-1.6 2 1.2q0 1.1-.6 2-.5 1-1.2 1.4-.8.4-1.5.3-.8 0-1.4-.4-.7-.4-1-1-.5-.7-.5-1.6 0-.8.5-1.6l.6-.8.8-.7.8.4-1 .7-.6.8zm2.2-3.6l1.5.9 1.2-2 .6.3-1.2 2 1.6 1 1.3-2.3.6.4-1.7 3-5-3 1.7-2.8.6.4zm3.4-7.4l.4-.7 5 2.8-.3.7-5.8 1 3.8 2.3-.4.7-5-2.9.4-.6 5.8-1.1zm2.9-3.5l4.3 2.5-.4.7-4.4-2.5-1 1.7-.6-.3L30 44l.7.4zm7.4-2.8l-1.9-.2-1.2 2.2 1.1 1.5-.4.7-3.8-5 .3-.6 6.3.7zm-5-.5l1.4 1.8 1-1.5z"
       id="path34" />
    <path
       d="M62.2 18.8l1.5 2.5 3.4-2 .6 1-3.4 2 1.5 2.6 3.6-2 .7 1-4.9 2.8-4.8-8.3 4.7-2.7.7 1zM59 19.9l.8 1.3q-1.4-.3-2.5.3-.5.3-.7.8-.2.4 0 .9l.4.4q.2.2.7.3h1.2q1.2 0 2 .2l1 .5.8.9q.3.6.3 1.3 0 .6-.4 1.2t-1.1 1q-1.2.7-2.7.6l-.9-1.5q.8.3 1.6.3.7 0 1.4-.4.5-.3.7-.8.1-.5-.1-1l-.5-.5q-.2-.2-.8-.3h-1.6q-1.3 0-2-.4-.7-.3-1.1-1-.4-.7-.3-1.3 0-.7.4-1.3.4-.6 1.1-1 1-.6 2.3-.5zm-3.4 6.9q.6 1.1.6 2.4 0 1.3-.6 2.5-.7 1.2-2.1 2-1.3.7-2.7.7-1.3 0-2.4-.6-1.1-.7-1.8-1.8-.6-1.1-.7-2.4 0-1.3.6-2.5.7-1.2 2.1-2 1.3-.7 2.7-.8 1.3 0 2.5.7 1 .6 1.8 1.8zm-7.8 4.5q.6.9 1.4 1.3.8.5 1.8.5t1.8-.6q1-.5 1.5-1.3t.6-1.7q0-1-.6-2-.4-.8-1.2-1.3-.8-.5-1.8-.5t-2 .5q-1 .6-1.5 1.4-.5.9-.5 1.8 0 1 .5 1.9zM44 31q.4.7.4 1.4t-.6 1.4l1 .2 1.5.7 2.8 1.3-1.5.8-2.5-1.2q-1-.6-1.7-.7-.6 0-1.1.2l-.6.3 2.1 3.7-1.2.6-4.8-8.3 2.3-1.3q.8-.5 1.6-.5.7 0 1.3.4.6.3 1 1zm-1.2.7q-.4-.6-1-.8-.5 0-1.2.3l-1 .6 1.5 2.6.8-.5q.8-.4 1-1 .3-.5-.1-1.2z"
       id="path36" />
  </g>
  <g
     aria-label="Colour
Wheel"
     id="text845"
     style="font-size:29.7171px;line-height:1.25;font-family:sans-serif;stroke-width:0.445758">
    <path
       d="m 59.095873,78.587466 q 0,0.290206 -0.02902,0.594923 -0.01451,0.290206 -0.08706,0.580412 -0.05804,0.246675 -0.159613,0.46433 -0.08706,0.203144 -0.116082,0.449819 -0.02902,0.145103 -0.05804,0.319227 -0.02902,0.159613 -0.217654,0.159613 l -0.116083,-0.01451 q -0.232164,0 -0.348247,0.188634 -0.116082,0.174123 -0.188634,0.435309 -0.05804,0.246675 -0.101572,0.50786 -0.02902,0.261186 -0.07255,0.420799 -0.04353,0.159613 -0.05804,0.290206 0,0.116082 -0.01451,0.217655 0,0.08706 -0.05804,0.188634 -0.05804,0.101572 -0.203144,0.217654 -0.232165,0.174124 -0.44982,0.333737 -0.217654,0.159613 -0.391778,0.377268 -0.130593,0.159613 -0.174124,0.275696 -0.04353,0.116082 -0.08706,0.217654 -0.04353,0.101572 -0.145103,0.188634 -0.08706,0.07255 -0.304717,0.145103 -0.333737,0.116083 -0.638453,0.261186 -0.304716,0.145103 -0.623943,0.261185 -0.377268,0.145103 -0.711005,0.333737 -0.333737,0.174124 -0.681984,0.333737 -0.348247,0.159613 -0.725515,0.261185 -0.362758,0.116083 -0.783557,0.116083 -0.377268,0 -0.754535,-0.116083 -0.362758,-0.116082 -0.681985,-0.319226 -0.304716,-0.02902 -0.464329,-0.217655 -0.159614,-0.188634 -0.261186,-0.449819 -0.08706,-0.203144 -0.174123,-0.290206 -0.07255,-0.08706 -0.174124,-0.116083 -0.08706,-0.04353 -0.203144,-0.07255 -0.116083,-0.02902 -0.275696,-0.130593 -0.652964,-0.420799 -1.189845,-1.044742 -0.536881,-0.638453 -1.001211,-1.276906 -0.101572,-0.145103 -0.159613,-0.333737 -0.04353,-0.203144 -0.08706,-0.391778 -0.04353,-0.203145 -0.101572,-0.377268 -0.04353,-0.188634 -0.145103,-0.290206 -0.188634,-0.188634 -0.333737,-0.203145 -0.145103,-0.01451 -0.246675,-0.05804 -0.08706,-0.05804 -0.145103,-0.246675 -0.04353,-0.203144 -0.04353,-0.740025 0,-0.333737 -0.05804,-0.696495 -0.05804,-0.362758 -0.145103,-0.740025 -0.07255,-0.391779 -0.130593,-0.783557 -0.05804,-0.406288 -0.05804,-0.798066 0,-0.420799 0.04353,-0.841598 0.05804,-0.420799 0.130592,-0.841598 0.07255,-0.420798 0.145103,-0.827087 0.07255,-0.420799 0.101573,-0.841597 0.02902,-0.391779 0.02902,-0.798067 0.01451,-0.406288 0.02902,-0.812577 0.02902,-0.406288 0.08706,-0.798067 0.05804,-0.391778 0.203144,-0.769046 0.145103,-0.406288 0.362757,-0.769046 0.232165,-0.362757 0.44982,-0.725515 0.217654,-0.362757 0.406288,-0.740025 0.188634,-0.377268 0.290206,-0.812577 0.05804,-0.275696 0.362758,-0.507861 0.304716,-0.246675 0.754536,-0.449819 0.449819,-0.217655 0.97219,-0.377268 0.536881,-0.174124 1.059252,-0.290206 0.522371,-0.130593 0.95768,-0.188634 0.449819,-0.07255 0.725515,-0.07255 0.725515,0 1.363969,0.188634 0.638453,0.174124 1.291417,0.46433 0.290206,0.130593 0.623943,0.217655 0.348247,0.07255 0.652963,0.07255 0.304717,0 0.44982,-0.101572 0.159613,-0.116082 0.246675,-0.261185 0.08706,-0.159614 0.145103,-0.290207 0.05804,-0.145103 0.174123,-0.217654 l -0.04353,0.01451 q 0.02902,-0.02902 0.101573,-0.02902 0.07255,-0.01451 0.159613,-0.01451 0.116082,0.01451 0.275696,0.05804 0.174123,0.04353 0.348247,0.101572 0.174124,0.05804 0.319227,0.130592 0.159613,0.05804 0.232164,0.116083 0.04353,0.02902 0.145103,0.188634 0.101573,0.159613 0.203145,0.348247 0.116082,0.188634 0.188634,0.348247 0.08706,0.159614 0.08706,0.203144 0,0.362758 0.101573,0.681985 0.116082,0.319226 0.116082,0.681984 0,0.377268 -0.116082,0.740025 -0.101573,0.362758 -0.101573,0.740026 0,0.46433 0.01451,0.914149 0.02902,0.435309 0.02902,0.899639 0,0.420798 -0.04353,0.841597 -0.02902,0.406289 -0.116082,0.812577 -0.02902,0.116083 -0.05804,0.275696 -0.02902,0.159613 -0.08706,0.304716 -0.04353,0.145103 -0.130593,0.246675 -0.07255,0.101573 -0.203144,0.101573 -0.130593,0 -0.232165,-0.04353 -0.07255,0.01451 -0.130593,0.02902 -0.05804,0 -0.130592,0 -0.130593,0 -0.159614,-0.04353 -0.02902,-0.04353 -0.02902,-0.101572 0,-0.07255 -0.02902,-0.145103 -0.01451,-0.08706 -0.145103,-0.159613 -0.08706,-0.05804 -0.232165,-0.07255 -0.145103,-0.01451 -0.290206,-0.02902 -0.130592,-0.02902 -0.232165,-0.08706 -0.101572,-0.07255 -0.101572,-0.217655 0,-0.159613 0.05804,-0.159613 0.07255,-0.01451 0.159613,0.04353 0.101572,0.05804 0.217654,0.116082 0.116083,0.04353 0.217655,0 -0.203144,-0.232164 -0.362758,-0.47884 -0.145103,-0.261185 -0.304716,-0.52237 -0.145103,-0.261186 -0.304716,-0.522371 -0.159614,-0.261186 -0.362758,-0.47884 -0.174124,-0.188634 -0.290206,-0.435309 -0.116082,-0.246676 -0.232165,-0.493351 -0.101572,-0.261185 -0.232165,-0.47884 -0.116082,-0.232165 -0.304716,-0.377268 -0.667474,-0.50786 -1.480051,-0.885128 -0.798067,-0.391778 -1.668685,-0.391778 -0.609432,0 -1.131803,0.188634 -0.507861,0.174123 -1.015722,0.47884 -0.203144,0.116082 -0.391778,0.203144 -0.174123,0.08706 -0.348247,0.203144 -0.159613,0.101572 -0.290206,0.261186 -0.116082,0.145103 -0.174124,0.406288 -0.07255,0.261186 -0.07255,0.536881 0.01451,0.275696 -0.130593,0.507861 -0.07255,0.116082 -0.232165,0.188634 -0.145103,0.07255 -0.188634,0.217654 -0.116082,0.333737 -0.145103,0.696495 -0.01451,0.362757 -0.02902,0.740025 0,0.377268 -0.01451,0.769046 -0.01451,0.377268 -0.116082,0.725516 -0.08706,0.290206 -0.130593,0.580412 -0.02902,0.290206 -0.02902,0.580412 0,0.551391 0.02902,1.088272 0.04353,0.522371 0.04353,1.059253 0,0.652963 0.05804,1.276906 0.07255,0.623943 0.246675,1.247886 0.130593,0.46433 0.362758,0.899639 0.232165,0.420799 0.348247,0.885129 0.05804,0.246675 0.203145,0.52237 0.159613,0.275696 0.362757,0.507861 0.217655,0.232165 0.47884,0.391778 0.261186,0.145103 0.536881,0.145103 0.203145,0 0.391778,-0.04353 0.188634,-0.05804 0.391779,-0.05804 0.217654,0 0.435309,0.04353 0.217654,0.02902 0.435309,0.02902 0.391778,0 0.812577,-0.101573 0.435309,-0.101572 0.725515,-0.406288 0.203144,-0.217655 0.46433,-0.304716 0.261185,-0.08706 0.522371,-0.145103 0.275695,-0.05804 0.52237,-0.145103 0.246676,-0.101573 0.43531,-0.348248 0.116082,-0.159613 0.232164,-0.49335 0.130593,-0.333737 0.261186,-0.696495 0.130593,-0.362757 0.261185,-0.652963 0.145103,-0.304716 0.290206,-0.377268 0.130593,-0.07255 0.159614,-0.362758 0.04353,-0.304716 0.04353,-0.711004 V 78.26824 q 0,-0.290206 0.01451,-0.565902 0.01451,-0.275696 0.05804,-0.49335 0.05804,-0.217655 0.159613,-0.348248 0.101573,-0.130592 0.275696,-0.130592 0.159613,0 0.246675,0.116082 0.101572,0.101572 0.246675,0.101572 0.145103,0 0.275696,-0.08706 0.145103,-0.101572 0.304717,-0.101572 0.217654,0 0.391778,0.188634 0.188634,0.188634 0.333737,0.420799 0.159613,0.232165 0.246675,0.435309 0.101572,0.188634 0.145103,0.203144 0.145103,0.02902 0.159613,0.246675 0.02902,0.203145 0.02902,0.333737 z"
       style="font-style:normal;font-variant:normal;font-weight:normal;font-stretch:normal;font-size:29.7171px;font-family:'Special Elite';-inkscape-font-specification:'Special Elite';text-align:center;text-anchor:middle;stroke-width:0.445758"
       id="path865" />
    <path
       d="m 76.68236,79.980455 q 0,0.203145 -0.07255,0.391779 -0.05804,0.174123 -0.145103,0.304716 -0.07255,0.130593 -0.145103,0.217654 -0.05804,0.08706 -0.05804,0.101573 0,0.145103 0.08706,0.304716 0.101572,0.159613 0.101572,0.348247 0,0.08706 -0.07255,0.116083 -0.05804,0.02902 -0.130592,0.02902 -0.130593,0 -0.217655,-0.02902 0.01451,0.275695 0.04353,0.536881 0.04353,0.261185 0.04353,0.536881 0,0.420799 -0.08706,0.551392 -0.07255,0.116082 -0.159613,0.145103 -0.08706,0.02902 -0.174124,0.07255 -0.07255,0.02902 -0.07255,0.261186 0,0.130592 -0.188634,0.333737 -0.174124,0.203144 -0.435309,0.406288 -0.246676,0.203144 -0.522371,0.348247 -0.261186,0.145103 -0.420799,0.145103 -0.04353,0 -0.101572,-0.02902 0,0.116082 0.01451,0.246675 0.01451,0.130593 0.01451,0.246675 0,0.188634 -0.116082,0.261185 -0.116083,0.05804 -0.261186,0.116083 -0.217654,0.101572 -0.449819,0.304716 -0.232165,0.188634 -0.47884,0.391778 -0.246675,0.203145 -0.507861,0.348248 -0.246675,0.159613 -0.52237,0.159613 -0.232165,0 -0.435309,-0.116082 -0.188634,-0.116083 -0.44982,-0.116083 -0.232165,0 -0.391778,0.05804 -0.159613,0.07255 -0.304716,0.145103 -0.130593,0.08706 -0.275696,0.145103 -0.145103,0.07255 -0.333737,0.07255 -0.377268,0 -0.754536,-0.203144 -0.377268,-0.188634 -0.725515,-0.304717 -0.203144,-0.07255 -0.435309,-0.116082 -0.232165,-0.02902 -0.449819,-0.07255 -0.217655,-0.04353 -0.420799,-0.145103 -0.188634,-0.08706 -0.333737,-0.261185 -0.304717,-0.377268 -0.711005,-0.623943 -0.406289,-0.246675 -0.827087,-0.46433 -0.420799,-0.217654 -0.812577,-0.449819 -0.391778,-0.246675 -0.681985,-0.638454 -0.217654,-0.304716 -0.49335,-0.652963 -0.275696,-0.362758 -0.522371,-0.754536 -0.232165,-0.391778 -0.391778,-0.798067 -0.159613,-0.406288 -0.159613,-0.798066 0,-0.290206 0.05804,-0.565902 0.05804,-0.275696 0.116082,-0.551392 0.07255,-0.290206 0.130593,-0.565901 0.05804,-0.275696 0.05804,-0.565902 v -0.159613 q 0,-0.05804 -0.04353,-0.130593 -0.04353,-0.07255 -0.101572,-0.130593 -0.04353,-0.07255 -0.101572,-0.116082 -0.04353,-0.05804 -0.05804,-0.05804 -0.02902,0 -0.02902,0.01451 0.01451,-0.130593 0.07255,-0.391778 0.07255,-0.275696 0.159613,-0.551392 0.08706,-0.290206 0.174124,-0.522371 0.08706,-0.246675 0.159613,-0.319226 0.08706,-0.07255 0.159614,-0.145104 0.08706,-0.08706 0.08706,-0.217654 0,-0.130593 -0.01451,-0.246675 -0.01451,-0.130593 -0.01451,-0.261186 0,-0.174123 0.04353,-0.203144 0.04353,-0.04353 0.116082,-0.04353 0.07255,0 0.145103,-0.01451 0.07255,-0.02902 0.145103,-0.159613 0.130593,-0.261186 0.246675,-0.47884 0.130593,-0.232165 0.275696,-0.420799 0.145103,-0.188634 0.333737,-0.348247 0.188634,-0.159614 0.46433,-0.304717 0.232165,-0.130593 0.449819,-0.319227 0.232165,-0.188633 0.46433,-0.377267 0.232165,-0.188634 0.464329,-0.319227 0.246676,-0.130593 0.522371,-0.130593 0.391779,0 0.754536,-0.130592 0.377268,-0.145104 0.754536,-0.217655 0.594922,-0.08706 1.175334,-0.159613 0.594923,-0.08706 1.204355,-0.08706 0.333737,0 0.812577,0.116082 0.47884,0.101572 0.972191,0.275696 0.50786,0.174124 0.943169,0.391778 0.44982,0.217655 0.711005,0.435309 v 0.04353 q 0,0.203144 -0.07255,0.420799 -0.07255,0.203144 -0.07255,0.406288 0,0.02902 0,0.05804 0,0.02902 0.02902,0.02902 0.246675,0 0.46433,-0.05804 0.232164,-0.07255 0.47884,-0.07255 0.02902,0.246675 0.217654,0.333736 0.188634,0.08706 0.377268,0.159614 0.174124,0.08706 0.319227,0.319226 0.159613,0.217655 0.290206,0.507861 0.130592,0.275696 0.246675,0.551392 0.130593,0.275695 0.246675,0.449819 0.116082,0.174124 0.203144,0.420799 0.101572,0.232165 0.159614,0.49335 0.07255,0.261185 0.101572,0.522371 0.02902,0.246675 0.02902,0.46433 0,0.290206 -0.116082,0.49335 -0.101572,0.188634 -0.232165,0.348247 -0.130593,0.145103 -0.246675,0.290206 -0.101572,0.130593 -0.101572,0.304717 0,0.101572 0.04353,0.188634 0.04353,0.08706 0.116082,0.159613 0.02902,-0.01451 0.116082,-0.02902 0.101573,-0.01451 0.101573,-0.08706 v -0.01451 q 0,-0.116082 -0.101573,-0.217654 -0.08706,-0.101573 -0.08706,-0.246676 0,-0.02902 0.02902,-0.08706 0.02902,-0.07255 0.07255,-0.07255 0.08706,0 0.174123,0.116083 0.08706,0.101572 0.159614,0.232164 0.08706,0.116083 0.130592,0.203145 0.04353,0.08706 0.04353,0.05804 l -0.01451,-0.01451 q 0.01451,0.07255 0.01451,0.130592 0.01451,0.04353 0.01451,0.101572 z m -1.451031,0.116083 q 0,-0.232165 -0.174123,-0.275696 -0.174124,-0.05804 -0.391778,-0.07255 -0.217655,-0.01451 -0.43531,-0.04353 -0.203144,-0.02902 -0.275695,-0.217655 v -0.145103 q 0,-0.319227 -0.08706,-0.740025 -0.07255,-0.435309 -0.188634,-0.870619 -0.116082,-0.449819 -0.246675,-0.870618 -0.130593,-0.435309 -0.246675,-0.769046 -0.116083,-0.333737 -0.188634,-0.536881 -0.07255,-0.203144 -0.07255,-0.203144 -0.116082,0.02902 -0.188634,0.02902 -0.246675,0 -0.435309,-0.101572 -0.174123,-0.101572 -0.406288,-0.217654 -0.217655,-0.116083 -0.551392,-0.217655 -0.319226,-0.101572 -0.856108,-0.101572 -0.594922,0 -1.175334,-0.07255 -0.580412,-0.08706 -1.175335,-0.08706 -0.812577,0 -1.523581,0.377268 -0.711005,0.362757 -1.247887,0.97219 -0.536881,0.594922 -0.841597,1.349458 -0.304716,0.754536 -0.304716,1.523582 0,0.319227 0.01451,0.754536 0.01451,0.420798 0.07255,0.856107 0.05804,0.420799 0.188634,0.798067 0.130593,0.362758 0.362758,0.551392 v 0.406288 q 0.05804,0.05804 0.145103,0.07255 0.101572,0 0.188634,0 0.101572,0 0.174123,0.02902 0.07255,0.01451 0.116083,0.116083 0.188634,0.536881 0.49335,0.827087 0.304717,0.275696 0.652964,0.47884 0.348247,0.188634 0.696494,0.391778 0.348248,0.188634 0.638454,0.565902 0.116082,-0.01451 0.246675,-0.01451 0.130593,-0.01451 0.246675,-0.01451 0.46433,0 0.899639,0.07255 0.449819,0.05804 0.899639,0.05804 0.47884,0 0.856107,-0.246675 0.391779,-0.246675 0.667474,-0.623943 0.174124,-0.246675 0.319227,-0.420799 0.145103,-0.174124 0.290206,-0.319227 0.159613,-0.159613 0.333737,-0.290206 0.188634,-0.145103 0.435309,-0.319226 0.08706,-0.05804 0.203144,-0.145103 0.130593,-0.08706 0.246675,-0.188634 0.130593,-0.116083 0.217655,-0.217655 0.08706,-0.116082 0.08706,-0.217654 0,-0.130593 -0.04353,-0.261186 -0.02902,-0.130593 -0.02902,-0.261185 0,-0.145103 0.04353,-0.348248 0.04353,-0.203144 0.130593,-0.391778 0.101572,-0.188634 0.232165,-0.304716 0.145103,-0.130593 0.348247,-0.130593 0.159613,0 0.319227,0.07255 0.159613,0.07255 0.290206,0.174123 0.02902,-0.145103 0.02902,-0.217654 z"
       style="font-style:normal;font-variant:normal;font-weight:normal;font-stretch:normal;font-size:29.7171px;font-family:'Special Elite';-inkscape-font-specification:'Special Elite';text-align:center;text-anchor:middle;stroke-width:0.445758"
       id="path867" />
    <path
       d="m 93.862558,85.581432 q 0,0.507861 -0.348248,0.798067 -0.333737,0.304716 -0.812577,0.449819 -0.47884,0.159614 -1.00121,0.203145 -0.507861,0.04353 -0.870619,0.04353 -0.47884,0 -0.798066,-0.08706 -0.304717,-0.08706 -0.536881,-0.188634 -0.232165,-0.08706 -0.406289,-0.174124 -0.174124,-0.08706 -0.362758,-0.08706 -0.246675,0 -0.49335,0.08706 -0.232165,0.08706 -0.47884,0.08706 -0.174123,0 -0.290206,-0.05804 -0.101572,-0.05804 -0.174124,-0.145103 -0.07255,-0.07255 -0.145103,-0.130593 -0.05804,-0.05804 -0.145103,-0.05804 -0.101572,0 -0.159613,0.07255 -0.05804,0.08706 -0.130593,0.188634 -0.07255,0.101572 -0.217654,0.174124 -0.130593,0.08706 -0.391778,0.08706 -0.304717,0 -0.594923,-0.07255 -0.290206,-0.05804 -0.594922,-0.05804 -0.304717,0 -0.609433,0.101572 -0.290206,0.116082 -0.551391,0.116082 -0.116083,0 -0.174124,-0.08706 -0.05804,-0.07255 -0.130593,-0.07255 -0.246675,0 -0.522371,0.116083 -0.261185,0.116082 -0.536881,0.116082 -0.145103,0 -0.290206,-0.04353 -0.130593,-0.02902 -0.275696,-0.02902 -0.246675,0 -0.49335,0.116083 -0.246675,0.116082 -0.609433,0.116082 -0.130592,0 -0.580412,-0.04353 -0.435309,-0.02902 -0.899639,-0.101572 -0.464329,-0.07255 -0.841597,-0.188634 -0.362758,-0.101572 -0.362758,-0.232165 0,-0.377267 0.130593,-0.754535 0.145103,-0.377268 0.145103,-0.725515 v -0.02902 q -0.188634,0 -0.217654,-0.203144 0.02902,-0.05804 0.08706,-0.08706 0.07255,-0.04353 0.145103,-0.05804 0.07255,-0.02902 0.130593,-0.07255 0.05804,-0.04353 0.05804,-0.130593 v -0.05804 q 0.580412,0.05804 1.131804,0.07255 0.565902,0.01451 1.175334,0.01451 0.565902,0 1.247886,-0.02902 0.696495,-0.04353 1.276907,-0.217654 0.594923,-0.174124 0.986701,-0.522371 0.406288,-0.362758 0.406288,-1.001211 v -0.101572 -0.232165 q -0.07255,-1.596133 -0.159613,-3.134225 -0.07255,-1.552603 -0.07255,-3.148736 0,-0.420799 -0.07255,-0.812577 -0.05804,-0.406288 -0.05804,-0.812577 0,-0.50786 0.174123,-1.015721 0.188634,-0.507861 0.580412,-0.856108 -0.01451,-0.08706 -0.07255,-0.116082 -0.05804,-0.04353 -0.145103,-0.05804 -0.08706,-0.01451 -0.174124,-0.02902 -0.07255,-0.01451 -0.130593,-0.04353 -0.08706,-0.04353 -0.116082,-0.203144 -0.02902,-0.159614 -0.05804,-0.348248 -0.01451,-0.188634 -0.04353,-0.362757 -0.01451,-0.188634 -0.08706,-0.290206 0.04353,-0.420799 0.145103,-0.827087 0.101572,-0.406289 0.101572,-0.827088 0,-0.304716 -0.08706,-0.47884 -0.07255,-0.174123 -0.174123,-0.290206 -0.101572,-0.116082 -0.188634,-0.203144 -0.07255,-0.101572 -0.07255,-0.246675 0,-0.116083 0.07255,-0.217655 l -0.116083,-0.01451 q -0.145103,0 -0.217654,0.07255 -0.07255,0.07255 -0.145103,0.159613 -0.05804,0.08706 -0.130593,0.159613 -0.07255,0.07255 -0.203144,0.07255 -0.101572,0 -0.232165,-0.04353 -0.246675,0.07255 -0.46433,0.07255 -0.50786,0 -1.015721,-0.130592 -0.49335,-0.145103 -1.001211,-0.145103 -0.275695,0 -0.536881,0.02902 -0.261185,0.01451 -0.522371,0.01451 -0.377268,0 -0.754536,-0.08706 -0.377267,-0.08706 -0.667473,-0.377268 V 67.74827 q 0,-0.769046 0.50786,-1.160824 0.522371,-0.391778 1.262396,-0.391778 0.507861,0 1.001211,0.130592 0.493351,0.130593 1.001211,0.130593 0.275696,0 0.580412,-0.05804 0.304717,-0.05804 0.623943,-0.130593 0.319227,-0.07255 0.638454,-0.130592 0.333737,-0.05804 0.652963,-0.05804 0.493351,0 0.92866,0.217655 0.435309,0.203144 0.870618,0.391778 l -0.01451,0.116082 q 0,0.130593 0.05804,0.246676 0.07255,0.101572 0.159613,0.217654 0.08706,0.101572 0.145103,0.217655 0.07255,0.101572 0.07255,0.232165 0,0.130592 -0.04353,0.261185 -0.02902,0.116082 -0.02902,0.246675 0,0.319227 0.116083,0.609433 0.130592,0.290206 0.130592,0.623943 0,0.348247 -0.08706,0.681984 -0.07255,0.333737 -0.07255,0.681984 0,0.420799 0.101572,0.841598 0.101572,0.420799 0.101572,0.841597 0,0.348248 -0.116082,0.681985 -0.101572,0.333737 -0.101572,0.667474 0,0.246675 0.05804,0.49335 0.07255,0.232165 0.159613,0.46433 0.08706,0.232164 0.145103,0.47884 0.07255,0.232164 0.07255,0.49335 v 0.290206 q 0,0.232165 -0.04353,0.449819 -0.02902,0.203145 -0.188634,0.391778 0.07255,0.275696 0.145103,0.594923 0.08706,0.319227 0.08706,0.609433 0,0.145103 -0.02902,0.319226 -0.01451,0.159614 -0.07255,0.333737 -0.04353,0.159614 -0.130593,0.304717 -0.08706,0.130592 -0.203144,0.217654 0.188634,0.551392 0.246675,1.117293 0.05804,0.565902 0.08706,1.131804 0.01451,0.174124 0.05804,0.449819 0.04353,0.275696 0.08706,0.551392 0.04353,0.261185 0.07255,0.49335 0.04353,0.217655 0.04353,0.304717 0,0.246675 -0.08706,0.47884 -0.08706,0.232164 -0.08706,0.47884 0,0.188634 0.08706,0.406288 0.08706,0.203144 0.319227,0.203144 0.174124,0 0.290206,-0.07255 0.130593,-0.08706 0.275696,-0.174124 0.145103,-0.101572 0.333737,-0.174123 0.203144,-0.08706 0.536881,-0.08706 0.377268,0 0.711005,0.101572 0.333737,0.101572 0.711005,0.101572 0.275695,0 0.551391,-0.04353 0.290206,-0.05804 0.551392,-0.116082 0.275695,-0.07255 0.551391,-0.130593 0.275696,-0.05804 0.565902,-0.05804 0.580412,0 0.97219,0.333737 0.406289,0.333737 0.406289,0.9867 z M 85.533644,67.516105 q -0.05804,-0.05804 -0.145103,-0.116082 -0.07255,-0.05804 -0.174124,-0.05804 -0.07255,0 -0.130593,0.07255 -0.04353,0.05804 -0.04353,0.130593 l 0.07255,0.174124 q 0.05804,0.02902 0.08706,0.02902 0.116082,0 0.188634,-0.07255 0.08706,-0.08706 0.145103,-0.159614 z m 0.870618,4.033864 q 0,-0.116082 -0.07255,-0.232164 -0.05804,-0.130593 -0.203145,-0.130593 -0.04353,0 -0.101572,0.01451 -0.04353,0.01451 -0.07255,0.02902 v 0.623943 q 0.116082,0.05804 0.174123,0.05804 0.145103,0 0.203145,-0.116082 0.07255,-0.130593 0.07255,-0.246676 z"
       style="font-style:normal;font-variant:normal;font-weight:normal;font-stretch:normal;font-size:29.7171px;font-family:'Special Elite';-inkscape-font-specification:'Special Elite';text-align:center;text-anchor:middle;stroke-width:0.445758"
       id="path869" />
    <path
       d="m 110.08508,79.980455 q 0,0.203145 -0.0726,0.391779 -0.058,0.174123 -0.1451,0.304716 -0.0725,0.130593 -0.1451,0.217654 -0.058,0.08706 -0.058,0.101573 0,0.145103 0.0871,0.304716 0.10157,0.159613 0.10157,0.348247 0,0.08706 -0.0725,0.116083 -0.058,0.02902 -0.13059,0.02902 -0.1306,0 -0.21766,-0.02902 0.0145,0.275695 0.0435,0.536881 0.0435,0.261185 0.0435,0.536881 0,0.420799 -0.0871,0.551392 -0.0725,0.116082 -0.15961,0.145103 -0.0871,0.02902 -0.17413,0.07255 -0.0726,0.02902 -0.0726,0.261186 0,0.130592 -0.18863,0.333737 -0.17412,0.203144 -0.43531,0.406288 -0.24667,0.203144 -0.52237,0.348247 -0.26119,0.145103 -0.4208,0.145103 -0.0435,0 -0.10157,-0.02902 0,0.116082 0.0145,0.246675 0.0145,0.130593 0.0145,0.246675 0,0.188634 -0.11608,0.261185 -0.11609,0.05804 -0.26119,0.116083 -0.21765,0.101572 -0.44982,0.304716 -0.23216,0.188634 -0.47884,0.391778 -0.24667,0.203145 -0.50786,0.348248 -0.24667,0.159613 -0.52237,0.159613 -0.23216,0 -0.43531,-0.116082 -0.18863,-0.116083 -0.44982,-0.116083 -0.23216,0 -0.39178,0.05804 -0.15961,0.07255 -0.30471,0.145103 -0.1306,0.08706 -0.2757,0.145103 -0.1451,0.07255 -0.33374,0.07255 -0.37726,0 -0.75453,-0.203144 -0.37727,-0.188634 -0.72552,-0.304717 -0.20314,-0.07255 -0.43531,-0.116082 -0.23216,-0.02902 -0.44981,-0.07255 -0.21766,-0.04353 -0.4208,-0.145103 -0.188638,-0.08706 -0.333741,-0.261185 -0.304716,-0.377268 -0.711004,-0.623943 -0.406289,-0.246675 -0.827088,-0.46433 -0.420798,-0.217654 -0.812577,-0.449819 -0.391778,-0.246675 -0.681984,-0.638454 -0.217654,-0.304716 -0.49335,-0.652963 -0.275696,-0.362758 -0.522371,-0.754536 -0.232165,-0.391778 -0.391778,-0.798067 -0.159614,-0.406288 -0.159614,-0.798066 0,-0.290206 0.05804,-0.565902 0.05804,-0.275696 0.116082,-0.551392 0.07255,-0.290206 0.130593,-0.565901 0.05804,-0.275696 0.05804,-0.565902 v -0.159613 q 0,-0.05804 -0.04353,-0.130593 -0.04353,-0.07255 -0.101572,-0.130593 -0.04353,-0.07255 -0.101572,-0.116082 -0.04353,-0.05804 -0.05804,-0.05804 -0.02902,0 -0.02902,0.01451 0.01451,-0.130593 0.07255,-0.391778 0.07255,-0.275696 0.159613,-0.551392 0.08706,-0.290206 0.174124,-0.522371 0.08706,-0.246675 0.159613,-0.319226 0.08706,-0.07255 0.159613,-0.145104 0.08706,-0.08706 0.08706,-0.217654 0,-0.130593 -0.01451,-0.246675 -0.01451,-0.130593 -0.01451,-0.261186 0,-0.174123 0.04353,-0.203144 0.04353,-0.04353 0.116083,-0.04353 0.07255,0 0.145103,-0.01451 0.07255,-0.02902 0.145103,-0.159613 0.130593,-0.261186 0.246675,-0.47884 0.130593,-0.232165 0.275696,-0.420799 0.145103,-0.188634 0.333737,-0.348247 0.188634,-0.159614 0.464329,-0.304717 0.232165,-0.130593 0.44982,-0.319227 0.232165,-0.188633 0.464329,-0.377267 0.232165,-0.188634 0.46433,-0.319227 0.246675,-0.130593 0.522371,-0.130593 0.391783,0 0.754533,-0.130592 0.37727,-0.145104 0.75454,-0.217655 0.59492,-0.08706 1.17533,-0.159613 0.59493,-0.08706 1.20436,-0.08706 0.33374,0 0.81258,0.116082 0.47884,0.101572 0.97219,0.275696 0.50786,0.174124 0.94317,0.391778 0.44981,0.217655 0.711,0.435309 v 0.04353 q 0,0.203144 -0.0726,0.420799 -0.0725,0.203144 -0.0725,0.406288 0,0.02902 0,0.05804 0,0.02902 0.029,0.02902 0.24667,0 0.46433,-0.05804 0.23216,-0.07255 0.47884,-0.07255 0.029,0.246675 0.21765,0.333736 0.18864,0.08706 0.37727,0.159614 0.17412,0.08706 0.31923,0.319226 0.15961,0.217655 0.2902,0.507861 0.1306,0.275696 0.24668,0.551392 0.13059,0.275695 0.24667,0.449819 0.11609,0.174124 0.20315,0.420799 0.10157,0.232165 0.15961,0.49335 0.0726,0.261185 0.10157,0.522371 0.029,0.246675 0.029,0.46433 0,0.290206 -0.11608,0.49335 -0.10157,0.188634 -0.23216,0.348247 -0.1306,0.145103 -0.24668,0.290206 -0.10157,0.130593 -0.10157,0.304717 0,0.101572 0.0435,0.188634 0.0435,0.08706 0.11608,0.159613 0.029,-0.01451 0.11608,-0.02902 0.10158,-0.01451 0.10158,-0.08706 v -0.01451 q 0,-0.116082 -0.10158,-0.217654 -0.0871,-0.101573 -0.0871,-0.246676 0,-0.02902 0.029,-0.08706 0.029,-0.07255 0.0726,-0.07255 0.0871,0 0.17413,0.116083 0.0871,0.101572 0.15961,0.232164 0.0871,0.116083 0.13059,0.203145 0.0435,0.08706 0.0435,0.05804 l -0.0145,-0.01451 q 0.0145,0.07255 0.0145,0.130592 0.0145,0.04353 0.0145,0.101572 z m -1.45103,0.116083 q 0,-0.232165 -0.17413,-0.275696 -0.17412,-0.05804 -0.39178,-0.07255 -0.21765,-0.01451 -0.43531,-0.04353 -0.20314,-0.02902 -0.27569,-0.217655 v -0.145103 q 0,-0.319227 -0.0871,-0.740025 -0.0725,-0.435309 -0.18864,-0.870619 -0.11608,-0.449819 -0.24667,-0.870618 -0.1306,-0.435309 -0.24668,-0.769046 -0.11608,-0.333737 -0.18863,-0.536881 -0.0726,-0.203144 -0.0726,-0.203144 -0.11609,0.02902 -0.18864,0.02902 -0.24667,0 -0.43531,-0.101572 -0.17412,-0.101572 -0.40628,-0.217654 -0.21766,-0.116083 -0.5514,-0.217655 -0.31922,-0.101572 -0.8561,-0.101572 -0.59493,0 -1.17534,-0.07255 -0.58041,-0.08706 -1.17533,-0.08706 -0.81258,0 -1.52358,0.377268 -0.71101,0.362757 -1.247891,0.97219 -0.536881,0.594922 -0.841597,1.349458 -0.304717,0.754536 -0.304717,1.523582 0,0.319227 0.01451,0.754536 0.01451,0.420798 0.07255,0.856107 0.05804,0.420799 0.188634,0.798067 0.130593,0.362758 0.362758,0.551392 v 0.406288 q 0.05804,0.05804 0.145103,0.07255 0.101572,0 0.188634,0 0.101572,0 0.174123,0.02902 0.07255,0.01451 0.116083,0.116083 0.188634,0.536881 0.49335,0.827087 0.304716,0.275696 0.652968,0.47884 0.34824,0.188634 0.69649,0.391778 0.34825,0.188634 0.63845,0.565902 0.11609,-0.01451 0.24668,-0.01451 0.13059,-0.01451 0.24667,-0.01451 0.46433,0 0.89964,0.07255 0.44982,0.05804 0.89964,0.05804 0.47884,0 0.85611,-0.246675 0.39178,-0.246675 0.66747,-0.623943 0.17413,-0.246675 0.31923,-0.420799 0.1451,-0.174124 0.29021,-0.319227 0.15961,-0.159613 0.33373,-0.290206 0.18864,-0.145103 0.43531,-0.319226 0.0871,-0.05804 0.20315,-0.145103 0.13059,-0.08706 0.24667,-0.188634 0.13059,-0.116083 0.21766,-0.217655 0.0871,-0.116082 0.0871,-0.217654 0,-0.130593 -0.0435,-0.261186 -0.029,-0.130593 -0.029,-0.261185 0,-0.145103 0.0435,-0.348248 0.0435,-0.203144 0.13059,-0.391778 0.10157,-0.188634 0.23216,-0.304716 0.14511,-0.130593 0.34825,-0.130593 0.15962,0 0.31923,0.07255 0.15961,0.07255 0.2902,0.174123 0.029,-0.145103 0.029,-0.217654 z"
       style="font-style:normal;font-variant:normal;font-weight:normal;font-stretch:normal;font-size:29.7171px;font-family:'Special Elite';-inkscape-font-specification:'Special Elite';text-align:center;text-anchor:middle;stroke-width:0.445758"
       id="path871" />
    <path
       d="m 129.81908,85.421819 q 0,0.261185 -0.17412,0.551391 -0.15961,0.290207 -0.4208,0.522371 -0.24667,0.246675 -0.53688,0.406289 -0.2902,0.159613 -0.55139,0.159613 -0.44982,0 -0.88513,-0.07255 -0.43531,-0.07255 -0.89964,-0.07255 -0.21765,0 -0.50786,-0.02902 -0.27569,-0.02902 -0.39178,-0.145104 -0.33373,-0.05804 -0.49335,-0.261185 -0.15961,-0.188634 -0.2902,-0.420799 -0.11609,-0.232165 -0.26119,-0.449819 -0.13059,-0.217655 -0.40629,-0.304716 -0.82708,0.362757 -1.46554,0.696494 -0.62394,0.333737 -1.24788,0.580412 -0.60944,0.261186 -1.32044,0.406289 -0.6965,0.159613 -1.66869,0.159613 -0.42079,0 -0.60943,-0.04353 -0.17412,-0.04353 -0.27569,-0.145103 -0.0871,-0.08706 -0.17413,-0.246675 -0.0726,-0.159613 -0.2902,-0.391778 -0.11609,-0.116083 -0.23217,-0.130593 -0.10157,-0.02902 -0.20314,-0.02902 h -0.0726 q -0.1306,0 -0.24668,-0.04353 -0.10157,-0.05804 -0.15961,-0.290206 -0.0435,-0.174123 -0.17413,-0.391778 -0.13059,-0.232165 -0.30471,-0.464329 -0.15962,-0.232165 -0.33374,-0.420799 -0.17412,-0.188634 -0.31923,-0.290206 l -0.0145,-1.43652 q -0.0145,-1.451031 0.0871,-2.87304 0.10158,-1.42201 0.10158,-2.87304 0,-0.217655 -0.0145,-0.594923 -0.0145,-0.391778 -0.0726,-0.783556 -0.0435,-0.391778 -0.17413,-0.696494 -0.11608,-0.319227 -0.33374,-0.377268 -0.33373,-0.07255 -0.68198,-0.05804 -0.33374,0 -0.66747,-0.01451 -0.33374,-0.01451 -0.65297,-0.101572 -0.30471,-0.08706 -0.58041,-0.377268 -0.15961,-0.159613 -0.30472,-0.391778 -0.13059,-0.232165 -0.13059,-0.47884 0,-0.362758 0.30472,-0.609433 0.31922,-0.261185 0.75453,-0.420799 0.43531,-0.159613 0.88513,-0.232164 0.44982,-0.07255 0.72552,-0.07255 0.79806,0 1.50907,0.246675 0.72551,0.232165 1.32044,0.769046 0.029,0.02902 0.029,0.05804 0,0.01451 -0.0145,0.02902 0.029,0.420799 0.11608,0.841598 0.0871,0.406288 0.0871,0.827087 0,0.232165 -0.0726,0.435309 -0.058,0.203144 -0.058,0.449819 0,0.246676 0.058,0.493351 0.058,0.246675 0.058,0.49335 0,0.159613 -0.029,0.319227 -0.029,0.159613 -0.029,0.319226 0,0.44982 0.10157,0.885129 0.10157,0.420799 0.10157,0.870618 0,0.391778 -0.0871,0.769046 -0.0871,0.362758 -0.20314,0.740025 -0.10157,0.377268 -0.18864,0.754536 -0.0871,0.362758 -0.0871,0.754536 0,0.536881 0.21766,1.001211 0.21765,0.46433 0.58041,0.812577 0.36276,0.333737 0.82709,0.536881 0.47884,0.188634 1.00121,0.188634 0.44982,0 0.72551,-0.08706 0.29021,-0.101572 0.46433,-0.217654 0.17413,-0.116083 0.2757,-0.203145 0.11608,-0.101572 0.23216,-0.101572 0.11608,0 0.20315,0.02902 0.10157,0.01451 0.20314,0.01451 0.20314,0 0.33374,-0.08706 0.13059,-0.08706 0.23216,-0.203144 0.11608,-0.116082 0.21766,-0.217654 0.11608,-0.116083 0.2902,-0.159614 0.33374,-0.07255 0.58042,-0.188634 0.24667,-0.130592 0.24667,-0.522371 0,-0.07255 0.0145,-0.130592 0.029,-0.05804 0.1451,-0.05804 0.0726,0 0.10158,0.04353 0.0435,0.02902 0.11608,0.05804 0.0725,-0.05804 0.10157,-0.159614 0.029,-0.101572 0.058,-0.174123 0.0725,-0.261186 0.26119,-0.46433 0.20314,-0.203144 0.23216,-0.46433 0.029,-0.290206 0.1451,-0.536881 0.11609,-0.246675 0.11609,-0.522371 0,-0.246675 -0.1306,-0.435309 -0.13059,-0.188634 -0.13059,-0.449819 0,-0.290206 0.10157,-0.580412 0.11609,-0.290207 0.11609,-0.580413 -0.0871,-0.116082 -0.17413,-0.261185 -0.0726,-0.145103 -0.0726,-0.290206 0,-0.246675 0.0871,-0.319227 0.0871,-0.08706 0.0871,-0.174123 0,-0.130593 -0.0725,-0.261186 -0.058,-0.145103 -0.1451,-0.275696 -0.0871,-0.130592 -0.15961,-0.261185 -0.058,-0.130593 -0.058,-0.275696 0,-0.145103 0.0435,-0.275696 0.058,-0.145103 0.058,-0.304716 0,-0.232165 -0.11608,-0.406288 -0.10158,-0.188634 -0.2757,-0.304717 -0.15961,-0.130592 -0.37727,-0.188634 -0.20314,-0.07255 -0.40629,-0.101572 -0.36275,-0.04353 -0.62394,-0.04353 -0.26119,0 -0.46433,-0.05804 -0.18863,-0.07255 -0.36276,-0.246675 -0.15961,-0.174124 -0.33373,-0.565902 -0.10158,-0.232165 -0.10158,-0.391778 0,-0.348247 0.30472,-0.551392 0.31923,-0.217654 0.74003,-0.319226 0.42079,-0.116083 0.84159,-0.145103 0.43531,-0.04353 0.68199,-0.04353 0.23216,0 0.44982,0.04353 0.23216,0.02902 0.46433,0.02902 0.24667,0 0.47884,-0.08706 0.24667,-0.101573 0.49335,-0.101573 0.34824,0 0.5659,0.203145 0.21765,0.188634 0.33374,0.50786 0.13059,0.304717 0.17412,0.711005 0.0435,0.391778 0.0435,0.798067 0,0.536881 -0.0435,1.015721 -0.029,0.47884 -0.029,0.769046 0,0.623943 0.11608,1.175335 0.13059,0.536881 0.13059,1.00121 0,0.145103 -0.0726,0.290206 -0.058,0.145104 -0.13059,0.290207 -0.0726,0.145103 -0.1451,0.290206 -0.058,0.145103 -0.058,0.290206 0,0.116082 0.0435,0.203144 l 0.10157,0.841597 q -0.0725,0.05804 -0.0871,0.145103 -0.0145,0.08706 -0.0145,0.159614 0,0.232165 0.0435,0.464329 0.058,0.217655 0.058,0.46433 0,0.275696 -0.058,0.551392 -0.058,0.261185 -0.058,0.536881 0,0.667474 0.44982,1.030231 0.46433,0.348248 1.08827,0.348248 0.34825,0 0.69649,-0.116083 0.10157,0.217655 0.2757,0.391778 0.18863,0.159614 0.36276,0.319227 0.17412,0.159613 0.2902,0.362758 0.13059,0.203144 0.13059,0.49335 z"
       style="font-style:normal;font-variant:normal;font-weight:normal;font-stretch:normal;font-size:29.7171px;font-family:'Special Elite';-inkscape-font-specification:'Special Elite';text-align:center;text-anchor:middle;stroke-width:0.445758"
       id="path873" />
    <path
       d="m 147.07184,75.743447 q 0,0.290206 -0.11609,0.49335 -0.11608,0.203145 -0.26118,0.391778 -0.13059,0.174124 -0.2757,0.362758 -0.13059,0.188634 -0.17412,0.449819 -0.13059,-0.05804 -0.2757,-0.07255 -0.13059,-0.01451 -0.27569,-0.01451 -0.34825,0 -0.6965,0.05804 -0.33373,0.04353 -0.66747,0.04353 -0.39178,0 -0.65297,-0.232165 -0.24667,-0.246675 -0.40628,-0.594923 -0.14511,-0.348247 -0.20315,-0.740025 -0.058,-0.406288 -0.058,-0.725515 0,-0.406289 0.13059,-0.827087 -0.11608,-0.04353 -0.20314,-0.04353 -0.18863,0 -0.2757,0.116082 -0.0725,0.116083 -0.21765,0.116083 -0.13059,0 -0.23217,-0.08706 -0.10157,-0.101572 -0.24667,-0.101572 -0.21766,0 -0.55139,0.145103 -0.31923,0.130592 -0.62395,0.348247 -0.30471,0.217654 -0.53688,0.47884 -0.21765,0.246675 -0.21765,0.47884 -0.30472,0.02902 -0.58041,0.174124 -0.26119,0.130592 -0.50786,0.290206 -0.18864,0.116082 -0.31923,0.362757 -0.13059,0.246675 -0.24668,0.536881 -0.10157,0.275696 -0.21765,0.565902 -0.10157,0.290206 -0.24668,0.47884 -0.24667,0.319227 -0.4353,0.652964 -0.17413,0.319226 -0.17413,0.725515 0,0.507861 0.15962,1.030231 0.15961,0.522371 0.15961,1.059253 0,0.348247 -0.058,0.696494 -0.0435,0.348247 -0.0435,0.681984 0,0.406289 0.1451,0.652964 0.1451,0.246675 0.39178,0.391778 0.24667,0.130593 0.5659,0.174124 0.31923,0.04353 0.65296,0.04353 0.36276,0 0.6965,-0.01451 0.34824,-0.02902 0.63845,-0.02902 0.10157,0.116082 0.11608,0.217654 0.0145,0.101572 -0.0145,0.217655 -0.0145,0.101572 -0.058,0.217654 -0.029,0.101572 -0.029,0.246675 0,0.05804 0.029,0.145104 0.21766,0 0.37727,-0.101573 0.15961,-0.101572 0.23216,-0.319226 0.10158,0.02902 0.17413,0.08706 0.0871,0.05804 0.0871,0.174123 0,0.08706 -0.0435,0.174124 -0.0435,0.07255 -0.10157,0.145103 -0.058,0.07255 -0.10158,0.159613 -0.0435,0.07255 -0.0435,0.174124 0,0.05804 0.0145,0.130593 0.0145,0.05804 0.0435,0.101572 -0.0726,0.116082 -0.20315,0.159613 -0.13059,0.04353 -0.26118,0.04353 -0.23217,0 -0.39178,-0.07255 -0.14511,-0.07255 -0.2757,-0.159613 -0.11608,-0.08706 -0.21765,-0.159613 -0.10158,-0.07255 -0.24668,-0.07255 -0.058,0 -0.17412,0.02902 -0.11608,0.02902 -0.23217,0.07255 -0.11608,0.04353 -0.20314,0.116083 -0.0871,0.05804 -0.0871,0.116082 0,0.116083 0.0726,0.203144 0.0871,0.08706 0.0871,0.203145 0,0.101572 -0.0726,0.159613 -0.0726,0.05804 -0.17412,0.07255 -0.10158,0.02902 -0.21766,0.02902 -0.10157,0.01451 -0.17412,0.01451 -0.5659,0 -1.13181,-0.130592 -0.55139,-0.116083 -1.11729,-0.116083 -0.26119,0 -0.52237,0.116083 -0.26119,0.116082 -0.55139,0.116082 -0.15962,0 -0.24668,-0.07255 -0.0725,-0.05804 -0.13059,-0.145103 -0.058,-0.08706 -0.13059,-0.159614 -0.0725,-0.05804 -0.21766,-0.05804 -0.27569,0 -0.55139,0.05804 -0.26118,0.05804 -0.53688,0.116083 -0.26119,0.07255 -0.53688,0.116082 -0.26119,0.05804 -0.53688,0.05804 -0.14511,0 -0.34825,-0.04353 -0.20314,-0.02902 -0.39178,-0.116082 -0.18863,-0.08706 -0.31922,-0.217655 -0.1306,-0.130592 -0.1306,-0.319226 0,-0.116083 0.1306,-0.304717 0.1451,-0.188634 0.31922,-0.362757 0.17413,-0.188634 0.34825,-0.319227 0.17412,-0.130593 0.26118,-0.130593 0.23217,0 0.44982,0.01451 0.23217,0.01451 0.47884,0.01451 0.39178,0 0.78356,-0.116082 0.40629,-0.130593 0.72552,-0.362758 0.33373,-0.232165 0.53688,-0.580412 0.20314,-0.348247 0.20314,-0.783556 0,-0.188634 -0.029,-0.362758 -0.029,-0.188634 -0.029,-0.377268 0,-0.377268 0.0871,-0.754536 0.0871,-0.377267 0.0871,-0.754535 0,-0.507861 -0.11608,-1.030232 -0.10157,-0.536881 -0.10157,-1.073762 0,-0.47884 0.0145,-0.94317 0.029,-0.47884 0.029,-0.95768 0,-0.217654 -0.0145,-0.638453 -0.0145,-0.420799 -0.10157,-0.841598 -0.0726,-0.420799 -0.24668,-0.740025 -0.15961,-0.319227 -0.44982,-0.319227 -0.31922,0 -0.63845,0.07255 -0.31923,0.07255 -0.65296,0.07255 -0.24668,0 -0.58042,-0.02902 -0.33373,-0.04353 -0.63845,-0.145104 -0.30472,-0.116082 -0.52237,-0.319226 -0.21765,-0.203144 -0.21765,-0.536881 0,-0.362758 0.10157,-0.580412 0.10157,-0.232165 0.26118,-0.348248 0.17413,-0.116082 0.39178,-0.159613 0.23217,-0.04353 0.49335,-0.04353 0.23217,0 0.47884,0.01451 0.24668,0.01451 0.47884,0.01451 0.46433,0 0.91415,-0.04353 0.46433,-0.05804 0.92866,-0.05804 0.31923,0 0.63845,0.02902 0.31923,0.02902 0.62395,0.130593 0.27569,0.08706 0.40628,0.333737 0.1306,0.232165 0.23217,0.47884 0.11608,0.246675 0.26118,0.449819 0.14511,0.188634 0.46433,0.188634 0.14511,0 0.26119,-0.07255 0.13059,-0.08706 0.24668,-0.188634 0.11608,-0.101572 0.23216,-0.188634 0.11608,-0.08706 0.2757,-0.116083 0.31922,-0.04353 0.58041,-0.203144 0.27569,-0.159613 0.53688,-0.319227 0.26118,-0.159613 0.52237,-0.290206 0.2757,-0.130592 0.59492,-0.130592 0.18864,0 0.46433,-0.04353 0.29021,-0.04353 0.5659,-0.116083 0.29021,-0.08706 0.53689,-0.203144 0.26118,-0.116082 0.40628,-0.261185 0.39178,0.02902 0.91415,0.188634 0.53688,0.159613 1.01572,0.435309 0.49335,0.261185 0.85611,0.623943 0.36276,0.362757 0.4208,0.812577 0.0435,0.275695 0.15961,0.52237 0.11609,0.246676 0.23217,0.493351 0.13059,0.232165 0.23216,0.49335 0.10158,0.246675 0.10158,0.522371 z"
       style="font-style:normal;font-variant:normal;font-weight:normal;font-stretch:normal;font-size:29.7171px;font-family:'Special Elite';-inkscape-font-specification:'Special Elite';text-align:center;text-anchor:middle;stroke-width:0.445758"
       id="path875" />
    <path
       d="m 70.725881,106.30871 q 0,0.0725 0,0.13059 0,0.0435 -0.01451,0.11609 -0.02902,-0.029 -0.02902,-0.0435 -0.07255,0.37727 -0.261186,0.66748 -0.188634,0.2902 -0.47884,0.55139 -0.304716,0.29021 -0.46433,0.47884 -0.159613,0.17412 -0.246675,0.37727 -0.08706,0.18863 -0.130592,0.43531 -0.04353,0.23216 -0.130593,0.62394 -0.174124,0.81258 -0.377268,1.59613 -0.203144,0.76905 -0.246675,1.59614 -0.02902,0.40629 -0.08706,0.79806 -0.05804,0.37727 -0.159613,0.76905 -0.04353,0.13059 -0.04353,0.26118 0,0.20315 0.07255,0.37727 0.08706,0.15962 0.08706,0.34825 0,0.43531 -0.101572,0.87062 -0.08706,0.4208 -0.217655,0.85611 -0.116082,0.42079 -0.217654,0.84159 -0.08706,0.4208 -0.08706,0.85611 0,0.37727 0.101572,0.72552 0.116083,0.34824 0.116083,0.72551 0,0.74003 -0.101572,1.45103 -0.08706,0.71101 -0.377268,1.39299 -0.116083,0.2757 -0.145103,0.5659 -0.02902,0.29021 -0.05804,0.58041 -0.02902,0.2757 -0.101572,0.5514 -0.05804,0.27569 -0.246675,0.50786 -0.08706,0.11608 -0.159613,0.23216 -0.07255,0.11608 -0.159614,0.21766 -0.07255,0.0871 -0.174123,0.1451 -0.101572,0.058 -0.275696,0.058 -0.333737,0 -0.667474,-0.11608 -0.333737,-0.11608 -0.638453,-0.23217 -0.203144,-0.0726 -0.362758,-0.27569 -0.145103,-0.20315 -0.261185,-0.44982 -0.101572,-0.26119 -0.188634,-0.52237 -0.07255,-0.26119 -0.116083,-0.44982 -0.07255,-0.23217 -0.08706,-0.46433 0,-0.24668 -0.01451,-0.47884 0,-0.24668 -0.01451,-0.47884 -0.01451,-0.24668 -0.101572,-0.47884 -0.130593,-0.33374 -0.174124,-0.66748 -0.02902,-0.33373 -0.02902,-0.68198 0,-0.36276 0.01451,-0.711 0.02902,-0.36276 0.02902,-0.72552 0,-0.36276 -0.07255,-0.72551 -0.07255,-0.36276 -0.174124,-0.71101 -0.08706,-0.36276 -0.174123,-0.711 -0.08706,-0.36276 -0.116083,-0.72552 -0.02902,-0.37727 -0.159613,-0.711 -0.130593,-0.34825 -0.130593,-0.72552 0,-0.1451 0.04353,-0.24667 0.04353,-0.11609 0.08706,-0.20315 0.04353,-0.0871 0.08706,-0.15961 0.04353,-0.0871 0.04353,-0.17413 0,-0.23216 -0.101572,-0.50786 -0.08706,-0.27569 -0.203145,-0.53688 -0.116082,-0.27569 -0.217654,-0.53688 -0.08706,-0.26118 -0.08706,-0.47884 -0.348247,0.058 -0.522371,0.2757 -0.159613,0.20314 -0.232165,0.50786 -0.07255,0.2902 -0.101572,0.63845 -0.02902,0.33374 -0.101572,0.63845 -0.05804,0.30472 -0.217654,0.53689 -0.145103,0.23216 -0.47884,0.30471 0.07255,0.0871 0.174123,0.20315 0.116083,0.10157 0.203144,0.23216 0.101573,0.11608 0.174124,0.24668 0.07255,0.11608 0.07255,0.23216 0,0.1451 -0.05804,0.21766 -0.05804,0.058 -0.130592,0.11608 -0.07255,0.0435 -0.130593,0.1451 -0.05804,0.0871 -0.05804,0.2757 0,0.4208 0.05804,0.84159 0.07255,0.4208 0.07255,0.8416 0,0.44982 -0.159613,0.88513 -0.159613,0.4208 -0.159613,0.87062 0,0.20314 0.07255,0.30471 0.08706,0.10158 0.08706,0.26119 0,0.15961 -0.07255,0.33374 -0.05804,0.15961 -0.145103,0.31922 -0.08706,0.15962 -0.159614,0.33374 -0.05804,0.17412 -0.05804,0.36276 0,0.27569 0.101572,0.53688 0.116083,0.24667 0.116083,0.53688 0,0.39178 -0.130593,0.85611 -0.130593,0.46433 -0.377268,0.87062 -0.232165,0.39177 -0.580412,0.66747 -0.348247,0.2757 -0.798067,0.2757 -0.290206,0 -0.565902,-0.11609 -0.275695,-0.13059 -0.49335,-0.33373 -0.217654,-0.20315 -0.362757,-0.47884 -0.130593,-0.2757 -0.130593,-0.56591 0,-0.34824 0.05804,-0.68198 0.07255,-0.34825 0.07255,-0.69649 0,-0.18864 -0.05804,-0.37727 -0.04353,-0.18864 -0.116082,-0.36276 -0.07255,-0.18863 -0.145103,-0.36276 -0.07255,-0.18863 -0.101572,-0.37726 -0.04353,-0.23217 -0.05804,-0.46433 -0.01451,-0.23217 -0.01451,-0.47884 0,-0.20315 0,-0.40629 0.01451,-0.20315 0.01451,-0.40629 0,-0.50786 -0.08706,-0.92866 -0.08706,-0.4208 -0.188634,-0.79807 -0.101572,-0.37727 -0.188634,-0.75453 -0.08706,-0.37727 -0.08706,-0.79807 0,-0.33374 -0.101572,-0.63845 -0.101572,-0.31923 -0.101572,-0.65297 0,-0.15961 0.07255,-0.2902 0.07255,-0.1306 0.07255,-0.29021 0,-0.17412 -0.101572,-0.36276 -0.08706,-0.18863 -0.203145,-0.39177 -0.116082,-0.20315 -0.217654,-0.40629 -0.08706,-0.20315 -0.08706,-0.4208 0,-0.15962 0.07255,-0.2757 0.07255,-0.11608 0.159613,-0.23216 0.101572,-0.1306 0.174124,-0.26119 0.07255,-0.13059 0.07255,-0.31922 v -0.29021 q 0,-0.13059 0.02902,-0.26119 0.04353,-0.13059 0.159613,-0.21765 0.348247,0.0726 0.449819,0.30472 0.116083,0.21765 0.130593,0.49335 0.02902,0.27569 0.04353,0.55139 0.01451,0.27569 0.174124,0.46433 0.08706,0.11608 0.174123,0.46433 0.101572,0.34824 0.174124,0.75453 0.07255,0.40629 0.130593,0.78356 0.07255,0.37727 0.101572,0.5659 0.04353,0.29021 0.145103,0.55139 0.101572,0.26119 0.333737,0.44982 -0.101572,0.33374 -0.116083,0.71101 0,0.36275 0,0.711 0,0.13059 0,0.37727 0.01451,0.24667 0.05804,0.49335 0.05804,0.23216 0.159613,0.4208 0.116082,0.17412 0.319227,0.17412 0.435309,0 0.609432,-0.31922 0.188634,-0.33374 0.188634,-0.71101 0,-0.30472 -0.05804,-0.60943 -0.05804,-0.30472 -0.05804,-0.60943 0,-0.34825 0.130593,-0.60944 0.145103,-0.27569 0.304716,-0.5659 0.232165,-0.40629 0.290206,-0.91415 0.07255,-0.52237 0.07255,-1.05925 0,-0.23217 -0.01451,-0.44982 0,-0.23216 0,-0.43531 0,-0.24667 0,-0.49335 0.01451,-0.26118 0.05804,-0.50786 0.04353,-0.26119 0.130593,-0.52237 0.08706,-0.26119 0.174124,-0.50786 0.08706,-0.26119 0.145103,-0.50786 0.07255,-0.26119 0.07255,-0.53688 0,-0.21766 -0.04353,-0.4208 -0.04353,-0.21766 -0.04353,-0.43531 0,-0.15961 0.05804,-0.30472 0.05804,-0.15961 0.05804,-0.31922 0,-0.33374 -0.217655,-0.62395 -0.217654,-0.30471 -0.551391,-0.52237 -0.319227,-0.23216 -0.696495,-0.36276 -0.362757,-0.13059 -0.652963,-0.13059 -0.275696,0 -0.522371,0.1451 -0.203145,0.1306 -0.391778,0.17413 -0.188634,0.0435 -0.362758,0.0871 -0.174124,0.0435 -0.348247,0.13059 -0.159614,0.0871 -0.304717,0.30472 -0.05804,0.0725 -0.145103,0.20314 -0.07255,0.11609 -0.145103,0.26119 -0.07255,0.1451 -0.130592,0.27569 -0.04353,0.1306 -0.04353,0.21766 0,0.0726 0.08706,0.1451 0.101573,0.058 0.217655,0.14511 0.130593,0.0871 0.217655,0.20314 0.101572,0.11608 0.101572,0.30472 0,0.0871 -0.02902,0.23216 -0.02902,0.13059 -0.08706,0.2757 -0.04353,0.13059 -0.130592,0.23216 -0.07255,0.10157 -0.174124,0.10157 -0.188634,0 -0.391778,-0.24667 -0.188634,-0.24668 -0.362758,-0.5659 -0.174123,-0.31923 -0.319226,-0.63846 -0.130593,-0.31922 -0.217655,-0.46433 -0.130593,-0.23216 -0.261185,-0.34824 -0.130593,-0.11609 -0.275696,-0.15962 -0.130593,-0.0435 -0.304717,-0.058 -0.174123,-0.0145 -0.406288,-0.058 -0.130593,-0.029 -0.304716,-0.0871 -0.174124,-0.0725 -0.333737,-0.17413 -0.145103,-0.10157 -0.246676,-0.23216 -0.101572,-0.1451 -0.101572,-0.30472 0,-0.23216 0.174124,-0.40628 0.174124,-0.17413 0.420799,-0.29021 0.246675,-0.13059 0.50786,-0.18863 0.275696,-0.058 0.46433,-0.058 0.217655,0 0.420799,0.0871 0.203144,0.0871 0.406288,0.0871 0.275696,0 0.522371,-0.1306 0.261186,-0.1451 0.580412,-0.1451 0.261186,0 0.493351,0.0725 0.246675,0.058 0.49335,0.1306 0.246675,0.0726 0.49335,0.1451 0.246675,0.058 0.507861,0.058 0.290206,0 0.536881,-0.10157 0.261185,-0.11608 0.49335,-0.24668 0.246675,-0.13059 0.493351,-0.23216 0.261185,-0.11608 0.551391,-0.11608 0.594923,0 1.160824,0.1451 0.565902,0.13059 1.160825,0.13059 0.116082,-0.15961 0.261185,-0.26118 0.159613,-0.10158 0.362758,-0.10158 0.232164,0 0.464329,0.10158 0.246675,0.10157 0.493351,0.23216 0.261185,0.11608 0.536881,0.21766 0.275696,0.10157 0.565902,0.10157 0.261185,0 0.49335,-0.0726 0.246675,-0.0871 0.47884,-0.18864 0.246675,-0.10157 0.50786,-0.17412 0.261186,-0.0871 0.565902,-0.0871 0.493351,0 0.972191,-0.058 0.49335,-0.0726 0.9867,-0.0726 0.362758,0 0.711005,0.0871 0.362758,0.0726 0.667474,0.27569 0.01451,0.10157 0.01451,0.20315 0.01451,0.10157 0.01451,0.21765 z m -3.380901,2.32165 q 0,-0.37727 -0.232165,-0.6965 -0.232165,-0.31922 -0.594922,-0.55139 -0.362758,-0.23216 -0.783557,-0.36275 -0.420798,-0.1306 -0.798066,-0.1306 -0.304717,0 -0.565902,0.20315 -0.246675,0.20314 -0.49335,0.36275 -0.304717,0.18864 -0.44982,0.58042 -0.145103,0.39177 -0.145103,0.72551 0,0.26119 0.116083,0.46433 0.116082,0.20315 0.261185,0.37727 0.145103,0.17412 0.261185,0.33374 0.116083,0.15961 0.116083,0.33373 0,0.11609 -0.05804,0.23217 -0.04353,0.11608 -0.101572,0.23216 -0.04353,0.11609 -0.101573,0.24668 -0.04353,0.11608 -0.04353,0.26118 0,0.26119 0.101572,0.53688 0.101572,0.26119 0.217654,0.56591 0.130593,0.2902 0.232165,0.63845 0.101572,0.33374 0.101572,0.74003 0,0.18863 -0.02902,0.36275 -0.01451,0.17413 -0.01451,0.36276 0,0.0871 0.08706,0.13059 0.08706,0.0435 0.174124,0.11609 0.101572,0.0725 0.188634,0.23216 0.08706,0.1451 0.08706,0.44982 0,0.29021 -0.08706,0.58041 -0.08706,0.2757 -0.08706,0.5659 v 0.11609 q 0.159613,0.1451 0.261185,0.30471 0.101572,0.15962 0.101572,0.39178 0,0.20314 -0.05804,0.37727 -0.05804,0.17412 -0.101572,0.37727 h 0.304716 q 0.348248,0 0.536882,-0.1306 0.188634,-0.13059 0.188634,-0.52237 0,-0.17412 -0.02902,-0.34824 -0.01451,-0.18864 -0.01451,-0.37727 0,-0.15962 0.05804,-0.31923 0.07255,-0.17412 0.145103,-0.34825 0.08706,-0.17412 0.174124,-0.33373 0.08706,-0.17413 0.130592,-0.33374 0.145103,-0.52237 0.188634,-1.05925 0.05804,-0.53688 0.130593,-1.05925 0.07255,-0.50787 0.203144,-1.00122 0.130593,-0.50786 0.130593,-1.01572 0,-0.26118 -0.08706,-0.50786 -0.08706,-0.24667 -0.08706,-0.49335 0,-0.21765 0.07255,-0.40629 0.07255,-0.20314 0.159613,-0.39177 0.08706,-0.20315 0.159613,-0.39178 0.07255,-0.20315 0.07255,-0.4208 z"
       style="font-style:normal;font-variant:normal;font-weight:normal;font-stretch:normal;font-size:29.7171px;font-family:'Special Elite';-inkscape-font-specification:'Special Elite';text-align:center;text-anchor:middle;stroke-width:0.445758"
       id="path877" />
    <path
       d="m 89.444171,125.28819 q 0,0.24667 -0.08706,0.47884 -0.07255,0.21765 -0.203145,0.4208 -0.333737,0.029 -0.652963,0.0435 -0.304717,0.0145 -0.638453,0.0145 -0.319227,0 -0.638454,-0.0145 -0.319226,0 -0.638453,0 -0.44982,0 -0.885129,0.0871 -0.420798,0.0871 -0.870618,0.0871 -0.594922,0 -0.638453,-0.62394 -0.203144,0 -0.362758,0.13059 -0.159613,0.11608 -0.319226,0.24667 -0.159614,0.14511 -0.348248,0.26119 -0.188634,0.13059 -0.435309,0.13059 -0.246675,0 -0.50786,-0.1451 -0.246675,-0.1451 -0.246675,-0.43531 0,-0.10157 0.04353,-0.18863 0.05804,-0.0871 0.116083,-0.14511 0.07255,-0.0726 0.130593,-0.11608 0.05804,-0.058 0.05804,-0.10157 0,-0.0725 -0.05804,-0.13059 -0.05804,-0.058 -0.145103,-0.11609 -0.07255,-0.058 -0.130593,-0.11608 -0.05804,-0.0726 -0.05804,-0.17412 0,-0.23217 0.174123,-0.33374 0.174124,-0.11608 0.44982,-0.15961 0.275695,-0.0435 0.594922,-0.0435 0.319227,-0.0145 0.623943,-0.029 0.304716,-0.0145 0.536881,-0.0726 0.232165,-0.0726 0.319227,-0.24667 0.145103,-0.26119 0.232165,-0.62394 0.08706,-0.36276 0.130593,-0.75454 0.05804,-0.39178 0.07255,-0.76905 0.02902,-0.39177 0.02902,-0.69649 0,-0.63845 -0.05804,-1.2624 -0.04353,-0.62394 -0.174123,-1.24788 -0.05804,-0.29021 -0.159614,-0.5659 -0.08706,-0.2757 -0.08706,-0.56591 0,-0.18863 0.05804,-0.33373 0.05804,-0.14511 0.116082,-0.26119 0.07255,-0.11608 0.130593,-0.21765 0.05804,-0.11609 0.05804,-0.23217 0,-0.24667 -0.145103,-0.4208 -0.145103,-0.18863 -0.217654,-0.40628 -0.07255,-0.20315 -0.101572,-0.40629 -0.01451,-0.21766 -0.101573,-0.4208 -0.07255,-0.14511 -0.188634,-0.26119 -0.116082,-0.13059 -0.232164,-0.24667 -0.116083,-0.1306 -0.232165,-0.24668 -0.116083,-0.11608 -0.174124,-0.27569 -0.50786,-0.0435 -0.97219,-0.0435 -0.638453,0 -1.189845,0.0871 -0.536881,0.0725 -1.030231,0.27569 -0.47884,0.20315 -0.91415,0.53688 -0.420798,0.33374 -0.827087,0.8416 -0.145103,0.17413 -0.348247,0.39178 -0.203144,0.21765 -0.406289,0.44982 -0.203144,0.21765 -0.377267,0.44982 -0.159614,0.23216 -0.203145,0.44982 -0.145103,0.58041 -0.232164,1.30593 -0.07255,0.72551 -0.07255,1.33494 0,0.20315 0.04353,0.40629 0.05804,0.20315 0.116082,0.40629 0.07255,0.18863 0.116083,0.39178 0.05804,0.18863 0.05804,0.40629 0,0.10157 -0.05804,0.37726 -0.05804,0.26119 -0.145103,0.53689 -0.08706,0.27569 -0.188634,0.49335 -0.101572,0.20314 -0.203144,0.20314 0.02902,0.10157 0.203144,0.2757 0.174123,0.15961 0.391778,0.31922 0.232165,0.15962 0.435309,0.2757 0.217655,0.11608 0.319227,0.11608 0.130592,0 0.246675,-0.0145 0.130593,-0.029 0.246675,-0.029 0.275696,0 0.594922,0.15961 0.333737,0.14511 0.551392,0.33374 0.232165,0.17412 0.275696,0.33374 0.04353,0.1451 -0.261186,0.1451 -0.07255,0 -0.159613,0.0145 -0.07255,0 -0.145103,0 -0.145103,0 -0.203144,-0.0725 -0.05804,-0.0871 -0.101572,-0.17412 -0.04353,-0.10158 -0.08706,-0.17413 -0.04353,-0.0871 -0.159614,-0.0871 -0.07255,0 -0.101572,0.0871 -0.01451,0.0871 -0.01451,0.1451 0,0.1306 0.116082,0.2757 0.116083,0.13059 0.246676,0.2757 0.145103,0.1451 0.261185,0.30471 0.116082,0.14511 0.116082,0.30472 0,0.0725 -0.05804,0.10157 -0.05804,0.029 -0.116082,0.029 -0.145103,0 -0.290206,-0.0435 -0.130593,-0.0435 -0.275696,-0.0435 -0.130593,0 -0.246675,0.10157 -0.116083,0.11608 -0.304717,0.24668 -0.188633,0.13059 -0.49335,0.23216 -0.304716,0.11608 -0.812577,0.11608 -0.217654,0 -0.290206,-0.15961 -0.07255,-0.15961 -0.130593,-0.36276 -0.05804,-0.18863 -0.130592,-0.34824 -0.07255,-0.15962 -0.290206,-0.15962 -0.116083,0 -0.188634,0.0871 -0.07255,0.0871 -0.101572,0.17413 h 0.01451 q 0.04353,0.0435 0.08706,0.13059 0.05804,0.10157 0.101572,0.21766 0.04353,0.11608 0.07255,0.21765 0.04353,0.11608 0.05804,0.17412 l -0.261186,-0.0145 q -0.203144,-0.0145 -0.391778,0.029 -0.188634,0.0435 -0.377268,0.0871 -0.174124,0.058 -0.362758,0.10157 -0.188633,0.0435 -0.377267,0.029 -0.188634,0 -0.348248,-0.058 -0.145103,-0.0435 -0.304716,-0.11608 -0.246675,-0.11609 -0.507861,-0.1306 -0.261185,-0.0145 -0.47884,-0.058 -0.217654,-0.0435 -0.362757,-0.20314 -0.130593,-0.15962 -0.130593,-0.55139 0,-0.23217 0.08706,-0.47884 0.08706,-0.24668 0.246675,-0.43531 0.159613,-0.20315 0.377268,-0.31923 0.217654,-0.13059 0.46433,-0.13059 0.174123,0 0.333737,0.0871 0.159613,0.0725 0.333737,0.0725 0.145103,0 0.232164,-0.0871 0.101572,-0.0871 0.174124,-0.18864 0.08706,-0.11608 0.174124,-0.20314 0.101572,-0.10157 0.246675,-0.13059 0.01451,-0.76905 0.130593,-1.50907 0.116082,-0.75454 0.116082,-1.52359 0,-0.75453 -0.145103,-1.48005 -0.130593,-0.74002 -0.130593,-1.49456 0,-0.46433 0.116083,-0.89964 0.130592,-0.43531 0.130592,-0.89964 0,-0.24667 -0.116082,-0.46432 -0.101572,-0.23217 -0.101572,-0.47884 0,-0.18864 0.101572,-0.29021 0.101572,-0.10157 0.130593,-0.26119 h -0.04353 q -0.188634,0 -0.188634,-0.20314 0,-0.20314 0.130593,-0.20314 0.04353,0 0.116082,0.0435 0,-0.11609 -0.07255,-0.23217 -0.05804,-0.11608 -0.145103,-0.23216 -0.07255,-0.11609 -0.145103,-0.23217 -0.07255,-0.13059 -0.07255,-0.26118 0.159613,-0.30472 0.203144,-0.53689 0.05804,-0.23216 0.05804,-0.46432 0,-0.20315 -0.02902,-0.40629 -0.01451,-0.21766 -0.01451,-0.50786 0,-0.31923 0.130593,-0.60944 0.130593,-0.2902 0.130593,-0.60943 0,-0.18863 -0.08706,-0.26118 -0.08706,-0.0726 -0.217655,-0.0726 -0.07255,0 -0.188633,0.029 0,-0.18863 -0.02902,-0.50786 -0.02902,-0.33373 -0.116082,-0.63845 -0.08706,-0.30472 -0.261186,-0.52237 -0.159613,-0.23217 -0.435309,-0.23217 -0.174124,0 -0.348247,0.029 -0.159614,0.0145 -0.333737,0.0145 -0.275696,0 -0.536881,-0.14511 -0.246676,-0.1451 -0.43531,-0.37727 -0.188633,-0.23216 -0.304716,-0.50786 -0.116082,-0.27569 -0.116082,-0.53688 0,-0.2902 0.174123,-0.36275 0.174124,-0.0726 0.391778,-0.0726 0.116083,0 0.217655,0.0145 0.101572,0 0.203144,0 0.159614,0 0.333737,-0.029 0.174124,-0.0435 0.290206,-0.15961 0.44982,-0.029 0.885129,-0.0725 0.435309,-0.0435 0.885128,-0.0435 0.246675,0 0.435309,0.11608 0.188634,0.11608 0.362758,0.2757 0.188634,0.1451 0.377268,0.27569 0.188634,0.13059 0.420799,0.17413 0,0.31922 -0.05804,0.62394 -0.04353,0.30471 -0.04353,0.62394 0,0.30472 0.116083,0.58041 0.130593,0.26119 0.130593,0.55139 0,0.0871 -0.05804,0.10158 -0.05804,0 -0.130592,0.0145 -0.05804,0.0145 -0.116083,0.058 -0.04353,0.0435 -0.04353,0.20314 0,0.1306 0.04353,0.24668 0.05804,0.11608 0.116083,0.23216 0.05804,0.10157 0.101572,0.21766 0.05804,0.11608 0.05804,0.24667 0,0.23217 -0.08706,0.43531 -0.07255,0.20315 -0.07255,0.43531 0,0.18863 0.04353,0.59492 0.04353,0.40629 0.145103,0.82709 0.101572,0.40629 0.261185,0.72552 0.159613,0.30471 0.391778,0.30471 0.304717,0 0.580412,-0.1451 0.275696,-0.1451 0.522371,-0.34825 0.261186,-0.21765 0.493351,-0.44982 0.232164,-0.24667 0.435309,-0.43531 0.130592,-0.11608 0.50786,-0.23216 0.377268,-0.11608 0.812577,-0.20315 0.44982,-0.10157 0.856108,-0.15961 0.420799,-0.058 0.609433,-0.058 0.47884,0 0.681984,0.058 0.217655,0.058 0.362758,0.17412 0.145103,0.10158 0.290206,0.24668 0.145103,0.1451 0.49335,0.31923 0.145103,0.0726 0.275696,0.10157 0.145103,0.0145 0.261185,0.0435 0.130593,0.0145 0.246675,0.0871 0.130593,0.058 0.246675,0.20315 0.188634,0.24667 0.46433,0.53688 0.290206,0.27569 0.536881,0.59492 0.246675,0.30472 0.420799,0.63845 0.188634,0.33374 0.188634,0.66748 0,0.21765 -0.08706,0.43531 -0.07255,0.21765 -0.07255,0.4353 0,0.15962 0.07255,0.29021 0.07255,0.11608 0.07255,0.2757 0,0.17412 -0.01451,0.43531 -0.01451,0.26118 -0.05804,0.55139 -0.04353,0.27569 -0.116082,0.53688 -0.05804,0.24667 -0.159614,0.37727 0.217655,0.36275 0.290206,0.76904 0.07255,0.40629 0.07255,0.81258 0,0.50786 -0.05804,1.01572 -0.04353,0.49335 -0.04353,1.00121 0,0.68199 0.203144,1.05925 0.203144,0.36276 0.49335,0.5659 0.304717,0.18864 0.652964,0.2757 0.362758,0.0871 0.652964,0.21765 0.304716,0.11609 0.50786,0.34825 0.203145,0.21766 0.203145,0.68199 z"
       style="font-style:normal;font-variant:normal;font-weight:normal;font-stretch:normal;font-size:29.7171px;font-family:'Special Elite';-inkscape-font-specification:'Special Elite';text-align:center;text-anchor:middle;stroke-width:0.445758"
       id="path879" />
    <path
       d="m 104.82509,122.95203 q 0,0.39178 -0.13059,0.66747 -0.11608,0.2757 -0.31923,0.49335 -0.18863,0.21766 -0.44982,0.40629 -0.24667,0.18863 -0.50786,0.40629 -0.20314,0.17412 -0.36275,0.26118 -0.15962,0.0871 -0.31923,0.14511 -0.1451,0.058 -0.31923,0.11608 -0.15961,0.058 -0.37727,0.15961 -0.2902,0.14511 -0.49335,0.2757 -0.18863,0.11608 -0.39177,0.21765 -0.18864,0.10158 -0.4208,0.15962 -0.23217,0.0726 -0.58042,0.11608 -0.580407,0.0726 -1.17533,0.17412 -0.580412,0.10157 -1.160824,0.10157 -0.116082,0 -0.246675,-0.058 -0.116082,-0.0435 -0.275696,-0.10157 -0.159613,-0.0435 -0.362757,-0.10157 -0.188634,-0.0435 -0.46433,-0.0435 -0.290206,0 -0.46433,-0.0871 -0.174123,-0.0871 -0.319226,-0.20315 -0.130593,-0.11608 -0.275696,-0.24667 -0.145103,-0.14511 -0.377268,-0.24668 -0.870618,-0.39178 -1.480051,-0.94317 -0.609433,-0.55139 -1.044742,-1.23337 -0.435309,-0.68199 -0.725515,-1.48005 -0.290206,-0.79807 -0.49335,-1.66869 -0.159614,-0.60943 -0.159614,-1.21886 0,-0.79807 0.377268,-1.48006 -0.145103,-0.40628 -0.145103,-0.78355 0,-0.2757 0.159614,-0.81258 0.159613,-0.55139 0.406288,-1.10278 0.261186,-0.55139 0.551392,-0.9867 0.304716,-0.44982 0.565901,-0.55139 0.203145,-0.0726 0.275696,-0.11609 0.08706,-0.058 0.08706,-0.2902 0,-0.17413 0.130593,-0.29021 0.145103,-0.11608 0.333737,-0.18863 0.203144,-0.0726 0.391778,-0.13059 0.203144,-0.058 0.333737,-0.11609 0.536881,-0.26118 1.015721,-0.43531 0.49335,-0.18863 0.97219,-0.30471 0.493351,-0.1306 1.015722,-0.18864 0.52237,-0.058 1.117293,-0.058 0.319227,0 0.623943,0.0871 0.304716,0.0871 0.580412,0.23217 0.29021,0.13059 0.5659,0.30472 0.2757,0.15961 0.53688,0.31922 h -0.0145 q 0.21766,0.029 0.40629,0.13059 0.20315,0.0871 0.4208,0.11609 0.20314,0.24667 0.52237,0.47884 0.33374,0.21765 0.63845,0.46433 0.31923,0.24667 0.53689,0.53688 0.23216,0.27569 0.23216,0.63845 0,0.058 -0.0145,0.11608 0,0.058 -0.0145,0.1306 l 0.058,-0.0726 q 0.058,0.0435 0.10157,0.14511 0.058,0.10157 0.10158,0.23216 0.0435,0.11609 0.0726,0.24668 0.029,0.11608 0.0435,0.18863 0.11608,0.18864 0.30471,0.30472 0.20315,0.11608 0.31923,0.31922 -0.1451,0.14511 -0.1451,0.37727 0,0.24668 0.10157,0.49335 0.10157,0.23217 0.10157,0.47884 0,0.29021 -0.029,0.5659 -0.029,0.26119 -0.029,0.5514 0,0.21765 -0.17412,0.33373 -0.15962,0.11609 -0.36276,0.20315 -0.18863,0.0871 -0.34825,0.17412 -0.15961,0.0871 -0.15961,0.24668 0,0.11608 -0.1451,0.11608 -0.1306,-0.0145 -0.21766,-0.0145 -0.63845,0 -1.27691,-0.15961 -0.62394,-0.15962 -1.24788,-0.15962 -0.68199,0 -1.34946,0.10157 -0.667474,0.0871 -1.349458,0.0871 -0.50786,0 -1.015721,-0.029 -0.49335,-0.029 -1.001211,-0.029 -0.130593,0 -0.49335,0.0581 -0.362758,0.0435 -0.769046,0.13059 -0.391778,0.0725 -0.754536,0.18863 -0.362758,0.10157 -0.507861,0.20315 -0.01451,0.0726 -0.01451,0.20314 0,0.68199 0.391778,1.4075 0.406289,0.72552 1.059252,1.32044 0.652964,0.59492 1.465541,0.9867 0.812577,0.39178 1.639664,0.39178 0.47884,0 0.94317,0.0435 0.47884,0.029 0.928659,0.20314 0.391779,-0.18863 0.711009,-0.43531 0.33373,-0.24667 0.63845,-0.52237 0.30472,-0.27569 0.59492,-0.5659 0.29021,-0.29021 0.59492,-0.58041 0.058,-0.058 0.2757,-0.10157 0.23216,-0.058 0.49335,-0.0871 0.26119,-0.0435 0.49335,-0.058 0.24668,-0.029 0.33374,-0.029 0.33373,0 0.62394,0.10157 0.0871,0.33374 0.0871,0.65297 z m -2.17654,-5.89119 q 0,-0.21765 -0.0726,-0.42079 -0.0726,-0.20315 -0.11609,-0.4208 -0.0725,-0.40629 -0.0725,-0.78356 0,-0.39178 -0.11608,-0.78356 h -0.0145 q 0,0.0871 -0.058,0.17413 -0.058,0.0725 -0.15962,0.0725 -0.17412,0 -0.33373,-0.0871 -0.15962,-0.0871 -0.2757,-0.21766 -0.55139,-0.24667 -1.00121,-0.46433 -0.435309,-0.21765 -0.885128,-0.37726 -0.435309,-0.17413 -0.94317,-0.26119 -0.49335,-0.10157 -1.146313,-0.10157 -0.05804,0 -0.116083,0.0145 -0.04353,0 -0.08706,0.0435 l 0.07255,0.15961 -0.116083,0.029 q -0.391778,0.0726 -0.652963,0.14511 -0.246675,0.058 -0.44982,0.17412 -0.203144,0.11608 -0.406288,0.29021 -0.188634,0.15961 -0.49335,0.42079 -0.145103,0.1306 -0.319227,0.20315 -0.159613,0.058 -0.333737,0.11608 -0.159613,0.0435 -0.319227,0.10157 -0.145103,0.058 -0.246675,0.18864 -0.101572,0.36276 -0.304716,0.711 -0.188634,0.33374 -0.188634,0.71101 0,0.21765 0.174123,0.39178 0.188634,0.15961 0.46433,0.27569 0.290206,0.11608 0.623943,0.20315 0.348247,0.0871 0.681984,0.13059 0.333737,0.0435 0.609433,0.0726 0.290206,0.0145 0.44982,0.0145 0.551391,0 1.088272,-0.10157 0.536881,-0.11608 1.088273,-0.11608 0.565902,0 1.131804,0.058 0.565902,0.0435 1.131802,0.0435 0.1451,0 0.43531,-0.0145 0.29021,-0.0145 0.5659,-0.0726 0.29021,-0.0726 0.49335,-0.18864 0.21766,-0.13059 0.21766,-0.33374 z"
       style="font-style:normal;font-variant:normal;font-weight:normal;font-stretch:normal;font-size:29.7171px;font-family:'Special Elite';-inkscape-font-specification:'Special Elite';text-align:center;text-anchor:middle;stroke-width:0.445758"
       id="path881" />
    <path
       d="m 120.98957,122.95203 q 0,0.39178 -0.13059,0.66747 -0.11608,0.2757 -0.31923,0.49335 -0.18863,0.21766 -0.44982,0.40629 -0.24667,0.18863 -0.50786,0.40629 -0.20314,0.17412 -0.36276,0.26118 -0.15961,0.0871 -0.31922,0.14511 -0.14511,0.058 -0.31923,0.11608 -0.15961,0.058 -0.37727,0.15961 -0.2902,0.14511 -0.49335,0.2757 -0.18863,0.11608 -0.39178,0.21765 -0.18863,0.10158 -0.42079,0.15962 -0.23217,0.0726 -0.58042,0.11608 -0.58041,0.0726 -1.17533,0.17412 -0.58041,0.10157 -1.16083,0.10157 -0.11608,0 -0.24667,-0.058 -0.11608,-0.0435 -0.2757,-0.10157 -0.15961,-0.0435 -0.36275,-0.10157 -0.18864,-0.0435 -0.46433,-0.0435 -0.29021,0 -0.46433,-0.0871 -0.17413,-0.0871 -0.31923,-0.20315 -0.13059,-0.11608 -0.2757,-0.24667 -0.1451,-0.14511 -0.37726,-0.24668 -0.87062,-0.39178 -1.48005,-0.94317 -0.60944,-0.55139 -1.04475,-1.23337 -0.43531,-0.68199 -0.72551,-1.48005 -0.29021,-0.79807 -0.49335,-1.66869 -0.15962,-0.60943 -0.15962,-1.21886 0,-0.79807 0.37727,-1.48006 -0.1451,-0.40628 -0.1451,-0.78355 0,-0.2757 0.15961,-0.81258 0.15962,-0.55139 0.40629,-1.10278 0.26119,-0.55139 0.55139,-0.9867 0.30472,-0.44982 0.5659,-0.55139 0.20315,-0.0726 0.2757,-0.11609 0.0871,-0.058 0.0871,-0.2902 0,-0.17413 0.1306,-0.29021 0.1451,-0.11608 0.33373,-0.18863 0.20315,-0.0726 0.39178,-0.13059 0.20314,-0.058 0.33374,-0.11609 0.53688,-0.26118 1.01572,-0.43531 0.49335,-0.18863 0.97219,-0.30471 0.49335,-0.1306 1.01572,-0.18864 0.52237,-0.058 1.11729,-0.058 0.31923,0 0.62395,0.0871 0.30471,0.0871 0.58041,0.23217 0.2902,0.13059 0.5659,0.30472 0.2757,0.15961 0.53688,0.31922 h -0.0145 q 0.21766,0.029 0.40629,0.13059 0.20314,0.0871 0.4208,0.11609 0.20314,0.24667 0.52237,0.47884 0.33374,0.21765 0.63845,0.46433 0.31923,0.24667 0.53688,0.53688 0.23217,0.27569 0.23217,0.63845 0,0.058 -0.0145,0.11608 0,0.058 -0.0145,0.1306 l 0.058,-0.0726 q 0.058,0.0435 0.10157,0.14511 0.058,0.10157 0.10157,0.23216 0.0435,0.11609 0.0725,0.24668 0.029,0.11608 0.0435,0.18863 0.11608,0.18864 0.30471,0.30472 0.20315,0.11608 0.31923,0.31922 -0.1451,0.14511 -0.1451,0.37727 0,0.24668 0.10157,0.49335 0.10157,0.23217 0.10157,0.47884 0,0.29021 -0.029,0.5659 -0.029,0.26119 -0.029,0.5514 0,0.21765 -0.17412,0.33373 -0.15962,0.11609 -0.36276,0.20315 -0.18864,0.0871 -0.34825,0.17412 -0.15961,0.0871 -0.15961,0.24668 0,0.11608 -0.14511,0.11608 -0.13059,-0.0145 -0.21765,-0.0145 -0.63845,0 -1.27691,-0.15961 -0.62394,-0.15962 -1.24788,-0.15962 -0.68199,0 -1.34946,0.10157 -0.66748,0.0871 -1.34946,0.0871 -0.50786,0 -1.01572,-0.029 -0.49335,-0.029 -1.00121,-0.029 -0.13059,0 -0.49335,0.0581 -0.36276,0.0435 -0.76905,0.13059 -0.39178,0.0725 -0.75453,0.18863 -0.36276,0.10157 -0.50786,0.20315 -0.0145,0.0726 -0.0145,0.20314 0,0.68199 0.39177,1.4075 0.40629,0.72552 1.05926,1.32044 0.65296,0.59492 1.46554,0.9867 0.81257,0.39178 1.63966,0.39178 0.47884,0 0.94317,0.0435 0.47884,0.029 0.92866,0.20314 0.39178,-0.18863 0.711,-0.43531 0.33374,-0.24667 0.63846,-0.52237 0.30471,-0.27569 0.59492,-0.5659 0.29021,-0.29021 0.59492,-0.58041 0.058,-0.058 0.2757,-0.10157 0.23216,-0.058 0.49335,-0.0871 0.26118,-0.0435 0.49335,-0.058 0.24667,-0.029 0.33374,-0.029 0.33373,0 0.62394,0.10157 0.0871,0.33374 0.0871,0.65297 z m -2.17654,-5.89119 q 0,-0.21765 -0.0726,-0.42079 -0.0726,-0.20315 -0.11608,-0.4208 -0.0726,-0.40629 -0.0726,-0.78356 0,-0.39178 -0.11608,-0.78356 h -0.0145 q 0,0.0871 -0.058,0.17413 -0.058,0.0725 -0.15962,0.0725 -0.17412,0 -0.33373,-0.0871 -0.15962,-0.0871 -0.2757,-0.21766 -0.55139,-0.24667 -1.00121,-0.46433 -0.43531,-0.21765 -0.88513,-0.37726 -0.43531,-0.17413 -0.94317,-0.26119 -0.49335,-0.10157 -1.14631,-0.10157 -0.058,0 -0.11609,0.0145 -0.0435,0 -0.0871,0.0435 l 0.0726,0.15961 -0.11608,0.029 q -0.39178,0.0726 -0.65296,0.14511 -0.24668,0.058 -0.44982,0.17412 -0.20315,0.11608 -0.40629,0.29021 -0.18863,0.15961 -0.49335,0.42079 -0.1451,0.1306 -0.31923,0.20315 -0.15961,0.058 -0.33373,0.11608 -0.15962,0.0435 -0.31923,0.10157 -0.1451,0.058 -0.24668,0.18864 -0.10157,0.36276 -0.30471,0.711 -0.18864,0.33374 -0.18864,0.71101 0,0.21765 0.17413,0.39178 0.18863,0.15961 0.46433,0.27569 0.2902,0.11608 0.62394,0.20315 0.34825,0.0871 0.68198,0.13059 0.33374,0.0435 0.60944,0.0726 0.2902,0.0145 0.44982,0.0145 0.55139,0 1.08827,-0.10157 0.53688,-0.11608 1.08827,-0.11608 0.5659,0 1.13181,0.058 0.5659,0.0435 1.1318,0.0435 0.1451,0 0.43531,-0.0145 0.2902,-0.0145 0.5659,-0.0726 0.29021,-0.0726 0.49335,-0.18864 0.21766,-0.13059 0.21766,-0.33374 z"
       style="font-style:normal;font-variant:normal;font-weight:normal;font-stretch:normal;font-size:29.7171px;font-family:'Special Elite';-inkscape-font-specification:'Special Elite';text-align:center;text-anchor:middle;stroke-width:0.445758"
       id="path883" />
    <path
       d="m 138.24232,125.23015 q 0,0.50786 -0.34825,0.79806 -0.33374,0.30472 -0.81258,0.44982 -0.47884,0.15961 -1.00121,0.20315 -0.50786,0.0435 -0.87062,0.0435 -0.47884,0 -0.79806,-0.0871 -0.30472,-0.0871 -0.53688,-0.18863 -0.23217,-0.0871 -0.40629,-0.17412 -0.17413,-0.0871 -0.36276,-0.0871 -0.24667,0 -0.49335,0.0871 -0.23216,0.0871 -0.47884,0.0871 -0.17412,0 -0.29021,-0.058 -0.10157,-0.058 -0.17412,-0.14511 -0.0726,-0.0725 -0.1451,-0.13059 -0.058,-0.058 -0.14511,-0.058 -0.10157,0 -0.15961,0.0726 -0.058,0.0871 -0.13059,0.18864 -0.0726,0.10157 -0.21766,0.17412 -0.13059,0.0871 -0.39177,0.0871 -0.30472,0 -0.59493,-0.0726 -0.2902,-0.058 -0.59492,-0.058 -0.30472,0 -0.60943,0.10157 -0.29021,0.11608 -0.55139,0.11608 -0.11609,0 -0.17413,-0.0871 -0.058,-0.0726 -0.13059,-0.0726 -0.24667,0 -0.52237,0.11608 -0.26119,0.11608 -0.53688,0.11608 -0.1451,0 -0.29021,-0.0435 -0.13059,-0.029 -0.27569,-0.029 -0.24668,0 -0.49335,0.11609 -0.24668,0.11608 -0.60944,0.11608 -0.13059,0 -0.58041,-0.0435 -0.43531,-0.029 -0.89964,-0.10157 -0.46433,-0.0726 -0.84159,-0.18864 -0.36276,-0.10157 -0.36276,-0.23216 0,-0.37727 0.13059,-0.75454 0.1451,-0.37727 0.1451,-0.72551 v -0.029 q -0.18863,0 -0.21765,-0.20314 0.029,-0.058 0.0871,-0.0871 0.0726,-0.0435 0.1451,-0.058 0.0726,-0.029 0.1306,-0.0725 0.058,-0.0435 0.058,-0.1306 v -0.058 q 0.58041,0.058 1.1318,0.0726 0.5659,0.0145 1.17534,0.0145 0.5659,0 1.24788,-0.029 0.6965,-0.0435 1.27691,-0.21765 0.59492,-0.17412 0.9867,-0.52237 0.40629,-0.36276 0.40629,-1.00121 v -0.10157 -0.23217 q -0.0726,-1.59613 -0.15962,-3.13423 -0.0726,-1.5526 -0.0726,-3.14873 0,-0.4208 -0.0726,-0.81258 -0.058,-0.40629 -0.058,-0.81257 0,-0.50787 0.17412,-1.01573 0.18864,-0.50786 0.58042,-0.8561 -0.0145,-0.0871 -0.0726,-0.11609 -0.058,-0.0435 -0.1451,-0.058 -0.0871,-0.0145 -0.17412,-0.029 -0.0726,-0.0145 -0.1306,-0.0435 -0.0871,-0.0435 -0.11608,-0.20314 -0.029,-0.15962 -0.058,-0.34825 -0.0145,-0.18863 -0.0435,-0.36276 -0.0145,-0.18863 -0.0871,-0.2902 0.0435,-0.4208 0.1451,-0.82709 0.10157,-0.40629 0.10157,-0.82709 0,-0.30472 -0.0871,-0.47884 -0.0726,-0.17412 -0.17412,-0.2902 -0.10157,-0.11609 -0.18864,-0.20315 -0.0726,-0.10157 -0.0726,-0.24667 0,-0.11609 0.0726,-0.21766 l -0.11608,-0.0145 q -0.1451,0 -0.21765,0.0726 -0.0725,0.0725 -0.14511,0.15962 -0.058,0.0871 -0.13059,0.15961 -0.0726,0.0725 -0.20314,0.0725 -0.10158,0 -0.23217,-0.0435 -0.24667,0.0726 -0.46433,0.0726 -0.50786,0 -1.01572,-0.13059 -0.49335,-0.1451 -1.00121,-0.1451 -0.2757,0 -0.53688,0.029 -0.26119,0.0145 -0.52237,0.0145 -0.37727,0 -0.75454,-0.0871 -0.37727,-0.0871 -0.66747,-0.37726 v -0.17413 q 0,-0.76904 0.50786,-1.16082 0.52237,-0.39178 1.2624,-0.39178 0.50786,0 1.00121,0.13059 0.49335,0.1306 1.00121,0.1306 0.27569,0 0.58041,-0.058 0.30472,-0.058 0.62394,-0.13059 0.31923,-0.0725 0.63846,-0.13059 0.33373,-0.058 0.65296,-0.058 0.49335,0 0.92866,0.21765 0.43531,0.20315 0.87062,0.39178 l -0.0145,0.11608 q 0,0.1306 0.058,0.24668 0.0725,0.10157 0.15961,0.21765 0.0871,0.10158 0.1451,0.21766 0.0726,0.10157 0.0726,0.23216 0,0.1306 -0.0435,0.26119 -0.029,0.11608 -0.029,0.24667 0,0.31923 0.11609,0.60944 0.13059,0.2902 0.13059,0.62394 0,0.34825 -0.0871,0.68198 -0.0726,0.33374 -0.0726,0.68199 0,0.4208 0.10157,0.84159 0.10157,0.4208 0.10157,0.8416 0,0.34825 -0.11608,0.68199 -0.10157,0.33373 -0.10157,0.66747 0,0.24668 0.058,0.49335 0.0726,0.23217 0.15961,0.46433 0.0871,0.23217 0.1451,0.47884 0.0726,0.23217 0.0726,0.49335 v 0.29021 q 0,0.23216 -0.0435,0.44982 -0.029,0.20314 -0.18863,0.39177 0.0725,0.2757 0.1451,0.59493 0.0871,0.31922 0.0871,0.60943 0,0.1451 -0.029,0.31923 -0.0145,0.15961 -0.0726,0.33373 -0.0435,0.15962 -0.13059,0.30472 -0.0871,0.13059 -0.20314,0.21765 0.18863,0.5514 0.24667,1.1173 0.058,0.5659 0.0871,1.1318 0.0145,0.17412 0.058,0.44982 0.0435,0.2757 0.0871,0.55139 0.0435,0.26119 0.0725,0.49335 0.0435,0.21766 0.0435,0.30472 0,0.24667 -0.0871,0.47884 -0.0871,0.23216 -0.0871,0.47884 0,0.18863 0.0871,0.40629 0.0871,0.20314 0.31922,0.20314 0.17413,0 0.29021,-0.0725 0.13059,-0.0871 0.27569,-0.17412 0.14511,-0.10158 0.33374,-0.17413 0.20315,-0.0871 0.53688,-0.0871 0.37727,0 0.71101,0.10157 0.33373,0.10157 0.711,0.10157 0.2757,0 0.55139,-0.0435 0.29021,-0.058 0.5514,-0.11608 0.27569,-0.0725 0.55139,-0.13059 0.27569,-0.058 0.5659,-0.058 0.58041,0 0.97219,0.33373 0.40629,0.33374 0.40629,0.98671 z m -8.32892,-18.06533 q -0.058,-0.058 -0.1451,-0.11608 -0.0726,-0.058 -0.17412,-0.058 -0.0726,0 -0.1306,0.0726 -0.0435,0.058 -0.0435,0.13059 l 0.0726,0.17412 q 0.058,0.029 0.0871,0.029 0.11608,0 0.18863,-0.0725 0.0871,-0.0871 0.1451,-0.15961 z m 0.87062,4.03386 q 0,-0.11608 -0.0726,-0.23216 -0.058,-0.1306 -0.20314,-0.1306 -0.0435,0 -0.10158,0.0145 -0.0435,0.0145 -0.0725,0.029 v 0.62394 q 0.11609,0.058 0.17413,0.058 0.1451,0 0.20314,-0.11608 0.0726,-0.1306 0.0726,-0.24668 z"
       style="font-style:normal;font-variant:normal;font-weight:normal;font-stretch:normal;font-size:29.7171px;font-family:'Special Elite';-inkscape-font-specification:'Special Elite';text-align:center;text-anchor:middle;stroke-width:0.445758"
       id="path885" />
  </g>
</svg>
