<svg xmlns="http://www.w3.org/2000/svg" viewBox="0 0 141.55 39.69"><path d="m15.21 24.47 18.52-9.26 37.05-9.26 37.04 9.26 18.52 9.26m-74.08 0-18.53-9.26m55.57 9.26 18.52-9.26M5.95 33.73l9.26-9.26m9.26 9.26-9.26-9.26M43 33.73l9.26-9.26m9.26 9.26-9.26-9.26m27.78 9.26 9.26-9.26m9.26 9.26-9.26-9.26m27.78 9.26 9.26-9.26m9.26 9.26-9.26-9.26" style="fill:none;stroke:#000;stroke-width:.529167;stroke-linecap:round;stroke-miterlimit:3;stop-color:#000"/><circle cx="5.95" cy="33.73" r="4.63" style="fill:#f9f9f9;stroke:#000;stroke-width:.529167;stroke-linecap:round;stroke-miterlimit:3;stop-color:#000"/><circle cx="24.47" cy="33.73" r="4.63" style="fill:#f9f9f9;stroke:#000;stroke-width:.529167;stroke-linecap:round;stroke-miterlimit:3;stop-color:#000"/><circle cx="42.99" cy="33.73" r="4.63" style="fill:#f9f9f9;stroke:#000;stroke-width:.529167;stroke-linecap:round;stroke-miterlimit:3;stop-color:#000"/><circle cx="61.52" cy="33.73" r="4.63" style="fill:#000;stroke:#000;stroke-width:.529167;stroke-linecap:round;stroke-miterlimit:3;stop-color:#000"/><circle cx="80.04" cy="33.73" r="4.63" style="fill:#000;stroke:#000;stroke-width:.529167;stroke-linecap:round;stroke-miterlimit:3;stop-color:#000"/><circle cx="98.56" cy="33.73" r="4.63" style="fill:#000;stroke:#000;stroke-width:.529167;stroke-linecap:round;stroke-miterlimit:3;stop-color:#000"/><circle cx="117.08" cy="33.73" r="4.63" style="fill:#000;stroke:#000;stroke-width:.529167;stroke-linecap:round;stroke-miterlimit:3;stop-color:#000"/><circle cx="135.6" cy="33.73" r="4.63" style="fill:#000;stroke:#000;stroke-width:.529167;stroke-linecap:round;stroke-miterlimit:3;stop-color:#000"/><circle cx="15.21" cy="24.47" r="4.63" style="fill:#f9f9f9;stroke:#000;stroke-width:.529167;stroke-linecap:round;stroke-miterlimit:3;stop-color:#000"/><circle cx="52.26" cy="24.47" r="4.63" style="fill:#f9f9f9;stroke:#000;stroke-width:.529167;stroke-linecap:round;stroke-miterlimit:3;stop-color:#000"/><circle cx="89.3" cy="24.47" r="4.63" style="fill:#f9f9f9;stroke:#000;stroke-width:.529167;stroke-linecap:round;stroke-miterlimit:3;stop-color:#000"/><circle cx="126.34" cy="24.47" r="4.63" style="fill:#f9f9f9;stroke:#000;stroke-width:.529167;stroke-linecap:round;stroke-miterlimit:3;stop-color:#000"/><circle cx="107.82" cy="15.21" r="4.63" style="fill:#f9f9f9;stroke:#000;stroke-width:.529167;stroke-linecap:round;stroke-miterlimit:3;stop-color:#000"/><circle cx="33.73" cy="15.21" r="4.63" style="fill:#f9f9f9;stroke:#000;stroke-width:.529167;stroke-linecap:round;stroke-miterlimit:3;stop-color:#000"/><circle cx="70.78" cy="5.95" r="4.63" style="fill:#f9f9f9;stroke:#000;stroke-width:.529167;stroke-linecap:round;stroke-miterlimit:3;stop-color:#000"/></svg>