<svg width="120mm" height="160mm" viewBox="0 0 120 160" xmlns="http://www.w3.org/2000/svg"><path style="stroke:#000;stroke-width:1;stroke-linecap:round" d="M0 0h120M0 20h120M0 40h120M0 60h120M0 80h120M0 100h120M0 120h120M0 140h120M0 160h120M0 0v160M20 0v160M40 0v160M60 0v160M80 0v160M100 0v160M120 0v160"/><circle style="fill:#000;stroke:#000;stroke-width:2" cx="90" cy="10" r="7"/><circle style="fill:#000;stroke:#000;stroke-width:2" cx="10" cy="30" r="7"/><circle style="fill:#fff;stroke:#000;stroke-width:2" cx="90" cy="30" r="7"/><circle style="fill:#000;stroke:#000;stroke-width:2" cx="30" cy="50" r="7"/><circle style="fill:#000;stroke:#000;stroke-width:2" cx="30" cy="70" r="7"/><circle style="fill:#000;stroke:#000;stroke-width:2" cx="90" cy="90" r="7"/><circle style="fill:#000;stroke:#000;stroke-width:2" cx="30" cy="110" r="7"/><circle style="fill:#000;stroke:#000;stroke-width:2" cx="50" cy="110" r="7"/><circle style="fill:#000;stroke:#000;stroke-width:2" cx="90" cy="110" r="7"/><circle style="fill:#000;stroke:#000;stroke-width:2" cx="30" cy="150" r="7"/><circle style="fill:#000;stroke:#000;stroke-width:2" cx="90" cy="150" r="7"/><path style="stroke:#000;stroke-width:3;stroke-linecap:round" d="M10 10h100M50 30h40M10 50h40M10 70h80M10 90h20m20 0h60m-40 20h40M10 130h20m20 0h20m-60 20h100M10 10v40m0 20v20m0 40v20m20-60v40M50 30v20m0 40v40m20-20v20M90 30v40m20-60v80m0 20v40"/></svg>