<svg width="120mm" height="160mm" viewBox="0 0 120 160" xmlns="http://www.w3.org/2000/svg"><path style="stroke:#000;stroke-width:1;stroke-linecap:round" d="M0 0h120M0 20h120M0 40h120M0 60h120M0 80h120M0 100h120M0 120h120M0 140h120M0 160h120M0 0v160M20 0v160M40 0v160M60 0v160M80 0v160M100 0v160M120 0v160"/><circle style="fill:#000;stroke:#000;stroke-width:2" cx="70" cy="30" r="7"/><circle style="fill:#fff;stroke:#000;stroke-width:2" cx="30" cy="50" r="7"/><circle style="fill:#000;stroke:#000;stroke-width:2" cx="70" cy="50" r="7"/><circle style="fill:#000;stroke:#000;stroke-width:2" cx="110" cy="50" r="7"/><circle style="fill:#fff;stroke:#000;stroke-width:2" cx="10" cy="70" r="7"/><circle style="fill:#000;stroke:#000;stroke-width:2" cx="30" cy="90" r="7"/><circle style="fill:#000;stroke:#000;stroke-width:2" cx="70" cy="90" r="7"/><circle style="fill:#000;stroke:#000;stroke-width:2" cx="10" cy="130" r="7"/><circle style="fill:#000;stroke:#000;stroke-width:2" cx="70" cy="130" r="7"/><circle style="fill:#000;stroke:#000;stroke-width:2" cx="50" cy="150" r="7"/><path style="stroke:#000;stroke-width:3;stroke-linecap:round" d="M10 10h20m20 0h60M50 30h40M30 50h60M10 70h40m20 0h40M10 90h40m-40 60h60M10 10v60m0 20v60M30 10v40m20-40v20m0 40v20m20-20v80M90 30v20m20-40v60m0 80"/></svg>