<svg width="120mm" height="160mm" viewBox="0 0 120 160" xmlns="http://www.w3.org/2000/svg"><path style="stroke:#000;stroke-width:1;stroke-linecap:round" d="M0 0h120M0 20h120M0 40h120M0 60h120M0 80h120M0 100h120M0 120h120M0 140h120M0 160h120M0 0v160M20 0v160M40 0v160M60 0v160M80 0v160M100 0v160M120 0v160"/><circle style="fill:#fff;stroke:#000;stroke-width:2" cx="10" cy="10" r="7"/><circle style="fill:#000;stroke:#000;stroke-width:2" cx="30" cy="10" r="7"/><circle style="fill:#fff;stroke:#000;stroke-width:2" cx="50" cy="10" r="7"/><circle style="fill:#fff;stroke:#000;stroke-width:2" cx="70" cy="10" r="7"/><circle style="fill:#000;stroke:#000;stroke-width:2" cx="50" cy="70" r="7"/><circle style="fill:#000;stroke:#000;stroke-width:2" cx="70" cy="70" r="7"/><circle style="fill:#fff;stroke:#000;stroke-width:2" cx="10" cy="90" r="7"/><circle style="fill:#000;stroke:#000;stroke-width:2" cx="70" cy="90" r="7"/><circle style="fill:#000;stroke:#000;stroke-width:2" cx="30" cy="110" r="7"/><circle style="fill:#000;stroke:#000;stroke-width:2" cx="70" cy="110" r="7"/><circle style="fill:#000;stroke:#000;stroke-width:2" cx="10" cy="130" r="7"/><circle style="fill:#000;stroke:#000;stroke-width:2" cx="50" cy="130" r="7"/><circle style="fill:#000;stroke:#000;stroke-width:2" cx="110" cy="130" r="7"/><circle style="fill:#000;stroke:#000;stroke-width:2" cx="90" cy="150" r="7"/><path style="stroke:#000;stroke-width:3;stroke-linecap:round" d="M10 10h40m20 0h40M30 50h20m20 0h20M30 70h60M10 90h80m-80 20h80m-60 20h40m-60 20h20m40 0h40M10 10v80m0 20v40M30 50v20m0 60v20M50 10v40m20-40v40m0 80v20M90 50v20m0 20v20m20-100v140"/></svg>