<?xml version="1.0" encoding="UTF-8"?>
<!-- Created with Inkscape (http://www.inkscape.org/) -->
<svg width="8.5in" height="11in" version="1.1" viewBox="0 0 215.9 279.4" xmlns="http://www.w3.org/2000/svg" xmlns:cc="http://creativecommons.org/ns#" xmlns:dc="http://purl.org/dc/elements/1.1/" xmlns:rdf="http://www.w3.org/1999/02/22-rdf-syntax-ns#">
 <metadata>
  <rdf:RDF>
   <cc:Work rdf:about="">
    <dc:format>image/svg+xml</dc:format>
    <dc:type rdf:resource="http://purl.org/dc/dcmitype/StillImage"/>
    <dc:title/>
   </cc:Work>
  </rdf:RDF>
 </metadata>
 <g>
  <g id="tan-d-templates-title">
   <rect x="3.175" y="250.3" width="58.208" height="23.283" fill="#00003d" fill-opacity=".30387" stroke="#fff" stroke-linejoin="bevel" stroke-width=".6" style="paint-order:normal"/>
   <rect x="3.175" y="238.65" width="58.208" height="11.642" fill="#00003d" fill-opacity=".30387" stroke="#fff" stroke-linejoin="bevel" stroke-width=".6" style="paint-order:normal"/>
   <g fill="#fff" stroke-width=".26458" aria-label="TAN-D Templates">
    <path d="m6.1074 240h3.1094v0.75213h-1.1557v6.1821h-0.79798v-6.1821h-1.1557v-0.75213z"/>
    <path d="m10.456 244.76v2.1738h-0.80716v-5.806q0-0.21096 0.08255-0.41275 0.091722-0.20179 0.24765-0.35772 0.15593-0.15593 0.35772-0.24765 0.20179-0.10089 0.44027-0.10089h0.94474q0.2293 0 0.43109 0.0917 0.21096 0.0825 0.35772 0.23848 0.15593 0.14675 0.23848 0.35771 0.09172 0.20179 0.09172 0.4311v5.806h-0.80716v-2.1738zm1.5776-0.74295v-2.9168q0-0.14676-0.10089-0.24765t-0.24765-0.10089h-0.88053q-0.14676 0-0.24765 0.10089-0.1009 0.10089-0.1009 0.24765v2.9168z"/>
    <path d="m16.232 246.93-1.8344-4.7879v4.7879h-0.80716v-6.9342h0.80716l1.8436 4.7879v-4.7879h0.79798v6.9342h-0.80716z"/>
    <path d="m20.663 244.13h-2.9351v-0.77046h2.9351v0.77046z"/>
    <path d="m21.392 246.93v-6.9342h2.0729q0.2293 0 0.43109 0.0917 0.21096 0.0917 0.35772 0.24765 0.15593 0.14675 0.23848 0.35771 0.09172 0.20179 0.09172 0.4311v4.687q0 0.22931-0.09172 0.44027-0.08255 0.20179-0.23848 0.35772-0.14676 0.14675-0.35772 0.23847-0.20179 0.0825-0.43109 0.0825zm0.80716-0.74295h1.2291q0.14676 0 0.24765-0.10089 0.10089-0.1009 0.10089-0.24765v-4.742q0-0.14676-0.10089-0.24765-0.1009-0.10089-0.24765-0.10089h-1.2291z"/>
    <path d="m27.085 240h3.1094v0.75213h-1.1557v6.1821h-0.79798v-6.1821h-1.1557v-0.75213z"/>
    <path d="m30.905 245.86q0 0.12841 0.1009 0.23848 0.10089 0.11007 0.24765 0.11007h0.90805q0.2293 0 0.28434-0.18345 0.05503-0.18344 0.05503-0.38523h0.76129v0.22931q-0.0092 0.22013-0.10089 0.41275-0.09172 0.19261-0.23848 0.33937-0.14676 0.14675-0.34854 0.2293-0.19262 0.0825-0.41275 0.0825h-0.93557q-0.22931 0-0.4311-0.0825-0.20179-0.0917-0.35772-0.23847-0.14676-0.15593-0.23848-0.34855-0.08255-0.20179-0.08255-0.43109v-2.394q0-0.24765 0.07338-0.46779 0.07338-0.2293 0.22013-0.3944 0.14676-0.17427 0.34854-0.27517 0.20179-0.10089 0.46778-0.10089h0.93557q0.25682 0 0.45861 0.10089 0.21096 0.1009 0.34854 0.266 0.14676 0.1651 0.22013 0.38523 0.07338 0.22013 0.07338 0.46778v1.6785h-2.3573zm1.5684-1.4676v-1.119q0-0.13759-0.11007-0.23848-0.10089-0.1009-0.23848-0.1009h-0.87136q-0.13758 0-0.24765 0.1009-0.1009 0.10089-0.1009 0.23848v1.119z"/>
    <path d="m37.701 242.2q0.2293 0 0.43109 0.0917 0.20179 0.0825 0.34854 0.23848 0.15593 0.14675 0.23848 0.34854 0.09172 0.19262 0.09172 0.42192v3.6322h-0.79798v-3.6597q0-0.14676-0.10089-0.24765-0.1009-0.1009-0.23848-0.1009h-0.90805v4.0083h-0.73378v-4.0083h-1.2474v4.0083h-0.78881v-4.7329z"/>
    <path d="m40.329 249.13h-0.80716v-6.9342h2.0729q0.2293 0 0.43109 0.0917 0.21096 0.0917 0.35772 0.24765 0.15593 0.14675 0.23848 0.35772 0.09172 0.20178 0.09172 0.43109v2.2564q0 0.27516-0.07338 0.52281-0.07338 0.23848-0.21096 0.42193-0.13758 0.18344-0.34854 0.29351-0.21096 0.11006-0.48613 0.11006h-1.2658zm0-2.9259h1.2382q0.14676 0 0.24765-0.1009 0.10089-0.10089 0.10089-0.24765v-2.5774q0-0.14676-0.10089-0.24765-0.1009-0.11007-0.24765-0.11007h-1.2382z"/>
    <path d="m44.27 240v6.2096h0.23848v0.7246h-0.36689q-0.28434 0-0.48613-0.19261-0.19262-0.20179-0.19262-0.47696v-6.2646z"/>
    <path d="m47.432 243.28q0-0.13758-0.11007-0.23848-0.10089-0.11007-0.23848-0.11007h-0.80716q-0.12841 0-0.20179 0.055-0.06421 0.0459-0.10089 0.12841-0.02752 0.0825-0.03669 0.19262-0.0092 0.10089-0.0092 0.20178h-0.72461q0-0.0459-0.0092-0.0734 0-0.0367 0-0.0825 0-0.22931 0.08255-0.44027t0.22013-0.36689q0.14676-0.15593 0.34854-0.24765 0.21096-0.10089 0.45861-0.10089h0.80716q0.22931 0 0.4311 0.0917 0.20179 0.0825 0.34854 0.23848 0.15593 0.14675 0.23848 0.34854 0.09172 0.20179 0.09172 0.4311v3.623h-2.0454q-0.22931 0-0.4311-0.0825-0.19262-0.0917-0.34854-0.23847-0.14676-0.15593-0.23848-0.34855-0.08255-0.20179-0.08255-0.43109v-0.67875q0-0.2293 0.08255-0.43109 0.09172-0.20179 0.23848-0.34855 0.15593-0.15592 0.34854-0.23847 0.20179-0.0917 0.4311-0.0917h1.2566zm0 1.4584h-1.2291q-0.21096 0-0.27517 0.1651-0.06421 0.1651-0.06421 0.35772v0.59619q0 0.11924 0.09172 0.23848 0.1009 0.11007 0.24765 0.11007h1.2291z"/>
    <path d="m50.109 240.67v1.5318h0.83467v0.7246h-0.83467v2.9351q0 0.14676 0.10089 0.24765 0.1009 0.1009 0.24765 0.1009h0.73378v0.7246l-0.74295 9e-3q-0.2293 0-0.44027-0.0825-0.20179-0.0917-0.35772-0.24765-0.14676-0.15593-0.23848-0.35772-0.08255-0.20179-0.08255-0.44027v-2.8801h-0.47696v-0.73377h0.47696v-1.5318z"/>
    <path d="m52.528 245.86q0 0.12841 0.1009 0.23848 0.10089 0.11007 0.24765 0.11007h0.90805q0.2293 0 0.28434-0.18345 0.05503-0.18344 0.05503-0.38523h0.76129v0.22931q-0.0092 0.22013-0.10089 0.41275-0.09172 0.19261-0.23848 0.33937-0.14676 0.14675-0.34854 0.2293-0.19262 0.0825-0.41275 0.0825h-0.93557q-0.22931 0-0.4311-0.0825-0.20179-0.0917-0.35772-0.23847-0.14676-0.15593-0.23848-0.34855-0.08255-0.20179-0.08255-0.43109v-2.394q0-0.24765 0.07338-0.46779 0.07338-0.2293 0.22013-0.3944 0.14676-0.17427 0.34854-0.27517 0.20179-0.10089 0.46778-0.10089h0.93557q0.25682 0 0.45861 0.10089 0.21096 0.1009 0.34854 0.266 0.14676 0.1651 0.22013 0.38523 0.07338 0.22013 0.07338 0.46778v1.6785h-2.3573zm1.5684-1.4676v-1.119q0-0.13759-0.11007-0.23848-0.10089-0.1009-0.23848-0.1009h-0.87136q-0.13758 0-0.24765 0.1009-0.1009 0.10089-0.1009 0.23848v1.119z"/>
    <path d="m56.452 246.93q-0.20179 0-0.36689-0.0734-0.1651-0.0825-0.28434-0.21097-0.11924-0.12841-0.18344-0.30268-0.06421-0.17427-0.06421-0.36689v-0.33937h0.7613v0.27517q0 0.10089 0.0092 0.20179 0.0092 0.0917 0.12841 0.0917h1.0181q0.10089 0 0.11924-0.0825 0.01834-0.0825 0.01834-0.17427v-0.40358q0-0.19262-0.19262-0.29351-0.32103-0.18345-0.64206-0.36689-0.31186-0.18345-0.63288-0.36689-0.25682-0.14676-0.41275-0.38523-0.15593-0.24765-0.15593-0.55951v-0.38523q0-0.20179 0.05503-0.37606 0.06421-0.18345 0.17427-0.32103 0.11924-0.13759 0.28434-0.21096 0.17427-0.0825 0.38523-0.0825h0.99977q0.21096 0 0.37606 0.0825t0.28434 0.22013q0.11924 0.13758 0.17427 0.31186 0.06421 0.17427 0.06421 0.35771v0.33937h-0.75212v-0.28433q0-0.0917-0.01834-0.19262-0.0092-0.1009-0.12841-0.1009h-0.96311q-0.10089 0-0.12841 0.0825-0.01834 0.0734-0.01834 0.17428v0.41275q0 0.10089 0.14676 0.2293 0.15593 0.11924 0.37606 0.25682 0.22013 0.13759 0.47696 0.28434 0.25682 0.13759 0.46778 0.25683 0.266 0.15592 0.41275 0.3944 0.15593 0.23848 0.15593 0.55033v0.37607q0 0.41275-0.23848 0.69708-0.23848 0.28434-0.6604 0.28434z"/>
   </g>
   <g fill="#fff" stroke-width=".26458" aria-label="Verified 12/03/2018">
    <path d="m7.894 258.88q0.254-1.1599 0.49953-2.3114 0.254-1.1515 0.508-2.3114h0.762q-0.3556 1.6087-0.70273 3.2004-0.33867 1.5833-0.69427 3.1919h-0.74507q-0.3556-1.6087-0.70273-3.1919-0.33867-1.5917-0.69427-3.2004h0.762q0.24553 1.1599 0.49953 2.3114t0.508 2.3114z"/>
    <path d="m10.635 259.66q0 0.11854 0.09313 0.22014t0.2286 0.1016h0.8382q0.21167 0 0.26247-0.16934 0.0508-0.16933 0.0508-0.3556h0.70273v0.21167q-0.0085 0.2032-0.09313 0.381-0.08467 0.1778-0.22013 0.31327-0.13547 0.13546-0.32173 0.21166-0.1778 0.0762-0.381 0.0762h-0.8636q-0.21167 0-0.39793-0.0762-0.18627-0.0847-0.3302-0.22013-0.13547-0.14393-0.22013-0.32173-0.0762-0.18627-0.0762-0.39794v-2.2098q0-0.2286 0.067733-0.4318 0.067734-0.21166 0.2032-0.36406 0.13547-0.16087 0.32173-0.254 0.18627-0.0931 0.4318-0.0931h0.8636q0.23707 0 0.42333 0.0931 0.19473 0.0931 0.32173 0.24553 0.13547 0.1524 0.2032 0.3556 0.06773 0.2032 0.06773 0.4318v1.5494h-2.1759zm1.4478-1.3547v-1.0329q0-0.127-0.1016-0.22013-0.09313-0.0931-0.22013-0.0931h-0.80433q-0.127 0-0.2286 0.0931-0.09313 0.0931-0.09313 0.22013v1.0329z"/>
    <path d="m14.893 256.28q0.19473 0 0.37253 0.0762 0.1778 0.0677 0.31327 0.19474 0.13547 0.11853 0.22013 0.28786 0.08467 0.16934 0.1016 0.3556 0.01693 0.0423 0.01693 0.14394 0 0.0931 0 0.13546h-0.67733q0-0.0254 0-0.11853 0-0.0931-0.0085-0.11853-0.01693-0.11007-0.1016-0.1778-0.08467-0.0762-0.2032-0.0762h-0.70273v3.6745h-0.72813v-4.3773z"/>
    <path d="m17.395 254.89v0.7366h-0.74507v-0.7366zm-0.9652 2.0659v-0.66887h0.9652v4.3688h-0.74507v-3.6999z"/>
    <path d="m18.263 256.95h-0.22013v-0.66887h0.22013v-0.99906q0-0.21167 0.0762-0.39794 0.08467-0.19473 0.22013-0.3302 0.14393-0.14393 0.3302-0.22013 0.19473-0.0847 0.4064-0.0847h0.94827v0.6858h-0.9144q-0.13547 0-0.2286 0.0931-0.09313 0.0931-0.09313 0.2286v1.0245h1.2361v0.66887h-1.2361v3.6999h-0.74507z"/>
    <path d="m21.81 254.89v0.7366h-0.74507v-0.7366zm-0.9652 2.0659v-0.66887h0.9652v4.3688h-0.74507v-3.6999z"/>
    <path d="m23.203 259.66q0 0.11854 0.09313 0.22014t0.2286 0.1016h0.8382q0.21167 0 0.26247-0.16934 0.0508-0.16933 0.0508-0.3556h0.70273v0.21167q-0.0085 0.2032-0.09313 0.381-0.08467 0.1778-0.22013 0.31327-0.13547 0.13546-0.32173 0.21166-0.1778 0.0762-0.381 0.0762h-0.8636q-0.21167 0-0.39793-0.0762-0.18627-0.0847-0.3302-0.22013-0.13547-0.14393-0.22013-0.32173-0.0762-0.18627-0.0762-0.39794v-2.2098q0-0.2286 0.06773-0.4318 0.06773-0.21166 0.2032-0.36406 0.13547-0.16087 0.32173-0.254 0.18627-0.0931 0.4318-0.0931h0.8636q0.23707 0 0.42333 0.0931 0.19473 0.0931 0.32173 0.24553 0.13547 0.1524 0.2032 0.3556 0.06773 0.2032 0.06773 0.4318v1.5494h-2.1759zm1.4478-1.3547v-1.0329q0-0.127-0.1016-0.22013-0.09313-0.0931-0.22013-0.0931h-0.80433q-0.127 0-0.2286 0.0931-0.09313 0.0931-0.09313 0.22013v1.0329z"/>
    <path d="m28.257 254.25h0.75353v5.3679q0 0.21167-0.08467 0.4064-0.0762 0.18627-0.22013 0.3302-0.14393 0.13547-0.33867 0.22013-0.18627 0.0762-0.39793 0.0762h-0.87207q-0.22013 0-0.4064-0.0762-0.18627-0.0847-0.3302-0.22013-0.14393-0.14393-0.2286-0.3302-0.0762-0.19473-0.0762-0.4064v-2.2945q0-0.21166 0.0762-0.39793 0.08467-0.19473 0.2286-0.3302 0.14393-0.14393 0.3302-0.2286 0.18627-0.0847 0.4064-0.0847h1.1599zm-1.1345 2.7009q-0.13547 0-0.2286 0.1016-0.09313 0.0931-0.09313 0.2286v2.3791q0 0.13547 0.09313 0.2286 0.09313 0.0931 0.2286 0.0931h0.8128q0.14393 0 0.2286-0.0931 0.09313-0.0931 0.09313-0.2286v-2.7093z"/>
    <path d="m7.1404 269.12h-0.74507v-5.715h-0.22013v-0.6858h0.9652v6.4008z"/>
    <path d="m7.807 264.17v-0.3556q0-0.2286 0.084667-0.42334 0.093133-0.2032 0.23707-0.3556 0.1524-0.1524 0.3556-0.23706 0.2032-0.0847 0.4318-0.0847h0.6604q0.2286 0 0.42333 0.0847 0.2032 0.0847 0.34713 0.23706 0.1524 0.1524 0.23707 0.3556 0.09313 0.19474 0.09313 0.42334v0.97366q0 0.38947-0.2032 0.67734-0.19473 0.2794-0.49953 0.49953l-1.0583 0.72813q-0.16087 0.11007-0.2794 0.254-0.11853 0.13547-0.11853 0.34714v1.1345h2.1082v0.6858h-2.8533v-1.7949q0-0.38947 0.19473-0.67734 0.2032-0.28786 0.508-0.508l1.0583-0.71966q0.16087-0.11007 0.2794-0.254 0.127-0.14394 0.127-0.34714v-0.99906q0-0.16087-0.11853-0.27094-0.11007-0.11853-0.2794-0.11853h-0.60113q-0.16087 0-0.2794 0.11853-0.11007 0.11007-0.11007 0.27094v0.3556z"/>
    <path d="m11.913 269.12h-0.762l2.413-6.4008h0.77047l-2.4215 6.4008z"/>
    <path d="m17.815 268.09q0 0.21166-0.08467 0.4064-0.0762 0.18626-0.22013 0.3302-0.13547 0.13546-0.3302 0.22013-0.18627 0.0762-0.39793 0.0762h-0.87207q-0.22013 0-0.4064-0.0762-0.18627-0.0847-0.3302-0.22013-0.14393-0.14394-0.2286-0.3302-0.0762-0.19474-0.0762-0.4064v-4.3265q0-0.21167 0.0762-0.39793 0.08467-0.19474 0.2286-0.3302 0.14393-0.14394 0.3302-0.2286 0.18627-0.0847 0.4064-0.0847h0.87207q0.21167 0 0.39793 0.0847 0.19473 0.0847 0.3302 0.2286 0.14393 0.13546 0.22013 0.3302 0.08467 0.18626 0.08467 0.39793zm-1.0668 0.34713q0.14393 0 0.2286-0.0931 0.09313-0.0931 0.09313-0.2286v-3.4967q-0.3556 0.92287-0.70273 1.8457-0.33867 0.92286-0.69427 1.8457 0.1016 0.127 0.26247 0.127zm-1.1345-1.3716q0.33867-0.89747 0.66887-1.7865 0.33867-0.889 0.67733-1.7865-0.1016-0.0847-0.21167-0.0847h-0.8128q-0.13547 0-0.2286 0.1016-0.09313 0.0931-0.09313 0.2286z"/>
    <path d="m20.369 265.41q0.13547 0 0.2286-0.0931 0.09313-0.0931 0.09313-0.2286v-1.3631q0-0.13546-0.09313-0.2286-0.09313-0.0931-0.2286-0.0931h-0.889q-0.13547 0-0.2286 0.0931-0.09313 0.0931-0.09313 0.2286v0.44874h-0.7112v-0.42334q0-0.21166 0.0762-0.39793 0.08467-0.19473 0.22013-0.3302 0.14393-0.14393 0.3302-0.22013 0.19473-0.0847 0.4064-0.0847h0.9144q0.21167 0 0.39793 0.0847 0.19473 0.0762 0.3302 0.22013 0.14393 0.13547 0.2286 0.3302 0.08467 0.18627 0.08467 0.39793v1.3208q0 0.1778-0.05927 0.3302-0.05927 0.14394-0.16087 0.28787 0.1524 0.16087 0.23707 0.33867 0.08467 0.1778 0.08467 0.39793v1.6595q0 0.21166-0.08467 0.4064-0.0762 0.18626-0.22013 0.3302-0.13547 0.13546-0.3302 0.22013-0.18627 0.0762-0.39793 0.0762h-1.0075q-0.21167 0-0.4064-0.0762-0.18627-0.0847-0.3302-0.22013-0.13547-0.14394-0.22013-0.3302-0.0762-0.19474-0.0762-0.4064v-0.42334h0.7112v0.44874q0 0.13546 0.09313 0.2286 0.09313 0.0931 0.2286 0.0931h0.97367q0.13547 0 0.2286-0.0931 0.09313-0.0931 0.09313-0.2286v-1.6933q0-0.13546-0.09313-0.2286-0.09313-0.0931-0.2286-0.0931h-0.9144v-0.6858z"/>
    <path d="m22.761 269.12h-0.762l2.413-6.4008h0.77047l-2.4215 6.4008z"/>
    <path d="m25.716 264.17v-0.3556q0-0.2286 0.08467-0.42334 0.09313-0.2032 0.23707-0.3556 0.1524-0.1524 0.3556-0.23706 0.2032-0.0847 0.4318-0.0847h0.6604q0.2286 0 0.42333 0.0847 0.2032 0.0847 0.34713 0.23706 0.1524 0.1524 0.23707 0.3556 0.09313 0.19474 0.09313 0.42334v0.97366q0 0.38947-0.2032 0.67734-0.19473 0.2794-0.49953 0.49953l-1.0583 0.72813q-0.16087 0.11007-0.2794 0.254-0.11853 0.13547-0.11853 0.34714v1.1345h2.1082v0.6858h-2.8533v-1.7949q0-0.38947 0.19473-0.67734 0.2032-0.28786 0.508-0.508l1.0583-0.71966q0.16087-0.11007 0.2794-0.254 0.127-0.14394 0.127-0.34714v-0.99906q0-0.16087-0.11853-0.27094-0.11007-0.11853-0.2794-0.11853h-0.60113q-0.16087 0-0.2794 0.11853-0.11007 0.11007-0.11007 0.27094v0.3556z"/>
    <path d="m32.201 268.09q0 0.21166-0.08467 0.4064-0.0762 0.18626-0.22013 0.3302-0.13547 0.13546-0.3302 0.22013-0.18627 0.0762-0.39793 0.0762h-0.87207q-0.22013 0-0.4064-0.0762-0.18627-0.0847-0.3302-0.22013-0.14393-0.14394-0.2286-0.3302-0.0762-0.19474-0.0762-0.4064v-4.3265q0-0.21167 0.0762-0.39793 0.08467-0.19474 0.2286-0.3302 0.14393-0.14394 0.3302-0.2286 0.18627-0.0847 0.4064-0.0847h0.87207q0.21167 0 0.39793 0.0847 0.19473 0.0847 0.3302 0.2286 0.14393 0.13546 0.22013 0.3302 0.08467 0.18626 0.08467 0.39793zm-1.0668 0.34713q0.14393 0 0.2286-0.0931 0.09313-0.0931 0.09313-0.2286v-3.4967q-0.3556 0.92287-0.70273 1.8457-0.33867 0.92286-0.69427 1.8457 0.1016 0.127 0.26247 0.127zm-1.1345-1.3716q0.33867-0.89747 0.66887-1.7865 0.33867-0.889 0.67733-1.7865-0.1016-0.0847-0.21167-0.0847h-0.8128q-0.13547 0-0.2286 0.1016-0.09313 0.0931-0.09313 0.2286z"/>
    <path d="m33.715 269.12h-0.74507v-5.715h-0.22013v-0.6858h0.9652v6.4008z"/>
    <path d="m34.694 265.7q-0.11007-0.14394-0.16933-0.28787-0.0508-0.1524-0.0508-0.3302v-1.3208q0-0.21167 0.0762-0.39793 0.08467-0.18627 0.2286-0.3302 0.14393-0.14394 0.3302-0.2286 0.18627-0.0847 0.4064-0.0847h0.9652q0.23707 0 0.4318 0.0931 0.19473 0.0931 0.32173 0.254 0.13547 0.1524 0.2032 0.36407 0.0762 0.21167 0.0762 0.44027v1.2107q0 0.1778-0.05927 0.3302-0.0508 0.14393-0.1524 0.28787 0.1524 0.1524 0.23707 0.33866 0.08467 0.1778 0.08467 0.39794v1.651q0 0.21166-0.08467 0.4064-0.0762 0.18626-0.22013 0.3302-0.13547 0.13546-0.3302 0.22013-0.18627 0.0762-0.39793 0.0762h-1.1853q-0.21167 0-0.4064-0.0762-0.18627-0.0847-0.3302-0.22013-0.13547-0.14394-0.22013-0.3302-0.0762-0.19474-0.0762-0.4064v-1.651q0-0.22014 0.08467-0.39794 0.08467-0.18626 0.23707-0.33866zm1.6087-0.28787q0.16087 0 0.31327-0.0593 0.16087-0.0593 0.16087-0.26246v-1.2107q0-0.16933-0.06773-0.32173-0.05927-0.1524-0.254-0.1524h-0.77047q-0.16933 0-0.32173 0.0677-0.14393 0.0677-0.14393 0.26247v1.2107q0 0.19474 0.06773 0.3302 0.06773 0.13547 0.254 0.13547zm0.254 3.0226q0.1016 0 0.16087-0.0423 0.06773-0.0508 0.1016-0.11854 0.03387-0.0762 0.04233-0.16086 0.01693-0.0931 0.01693-0.18627v-1.3123q0-0.0847-0.01693-0.1778-0.0085-0.0931-0.04233-0.16934-0.03387-0.0762-0.1016-0.11853-0.05927-0.0508-0.16087-0.0508h-1.1176q-0.11007 0-0.1778 0.0508-0.05927 0.0423-0.09313 0.11853-0.03387 0.0762-0.04233 0.16934-0.0085 0.0931-0.0085 0.1778v1.3123q0 0.18627 0.0508 0.34713 0.0508 0.16087 0.27093 0.16087z"/>
   </g>
  </g>
  <g transform="rotate(-45)" fill="#fff" aria-label="TAN-D-6471">
   <path d="m39.993 190.88h4.7837v1.1571h-1.778v9.5109h-1.2277v-9.5109h-1.778v-1.1571z"/>
   <path d="m46.683 198.2v3.3443h-1.2418v-8.9323q0-0.32456 0.127-0.635 0.14111-0.31045 0.381-0.55034t0.55033-0.381q0.31044-0.15522 0.67733-0.15522h1.4534q0.35278 0 0.66322 0.14111 0.32456 0.127 0.55033 0.36689 0.23989 0.22578 0.36689 0.55033 0.14111 0.31045 0.14111 0.66323v8.9323h-1.2418v-3.3443zm2.4271-1.143v-4.4873q0-0.22578-0.15522-0.381-0.15522-0.15522-0.381-0.15522h-1.3547q-0.22578 0-0.381 0.15522t-0.15522 0.381v4.4873z"/>
   <path d="m55.569 201.55-2.8222-7.366v7.366h-1.2418v-10.668h1.2418l2.8363 7.366v-7.366h1.2277v10.668h-1.2418z"/>
   <path d="m62.386 197.23h-4.5156v-1.1853h4.5156v1.1853z"/>
   <path d="m63.507 201.55v-10.668h3.1891q0.35278 0 0.66322 0.14111 0.32456 0.14111 0.55033 0.381 0.23989 0.22578 0.36689 0.55033 0.14111 0.31045 0.14111 0.66323v7.2108q0 0.35278-0.14111 0.67734-0.127 0.31044-0.36689 0.55033-0.22578 0.22578-0.55033 0.36689-0.31044 0.127-0.66322 0.127zm1.2418-1.143h1.8909q0.22578 0 0.381-0.15522 0.15522-0.15523 0.15522-0.381v-7.2954q0-0.22578-0.15522-0.381t-0.381-0.15522h-1.8909z"/>
   <path d="m74.016 197.23h-4.5156v-1.1853h4.5156v1.1853z"/>
   <path d="m78.327 195.37q0.35278 0 0.66322 0.14111 0.32456 0.127 0.55033 0.36689 0.23989 0.23989 0.36689 0.56445 0.14111 0.31044 0.14111 0.66322v2.7234q0 0.35278-0.14111 0.67734-0.127 0.31044-0.36689 0.55033-0.22578 0.22578-0.55033 0.36689-0.31044 0.127-0.66322 0.127h-1.4534q-0.36689 0-0.67733-0.127-0.31044-0.14111-0.55033-0.36689-0.23989-0.23989-0.381-0.55033-0.127-0.32456-0.127-0.67734v-7.2108q0-0.35278 0.127-0.66323 0.14111-0.32455 0.381-0.55033 0.23989-0.23989 0.55033-0.381 0.31044-0.14111 0.67733-0.14111h1.397q0.35278 0 0.66322 0.14111 0.32456 0.14111 0.56444 0.381 0.23989 0.22578 0.36689 0.55033 0.14111 0.31045 0.14111 0.66323v0.69144h-1.2418v-0.73378q0-0.19755-0.15522-0.36689-0.15522-0.18344-0.381-0.18344h-1.3123q-0.22578 0-0.381 0.16933-0.15522 0.15522-0.15522 0.381v2.794zm-1.9473 4.5014q0 0.21166 0.15522 0.381 0.15522 0.15522 0.381 0.15522h1.3547q0.21167 0 0.36689-0.15522 0.16933-0.15523 0.16933-0.381v-2.8222q0-0.21166-0.15522-0.36688-0.14111-0.16934-0.381-0.16934h-1.8909z"/>
   <path d="m83.911 190.88-1.4393 6.223h2.6529v-6.223h1.2277v6.223h0.36689v1.143h-0.36689v3.302h-1.2277v-3.302h-4.2192l1.7357-7.366h1.27z"/>
   <path d="m89.471 201.55h-1.3264l3.5701-9.525h-2.9492v1.3406h-1.1853v-2.4836h5.9126l-4.0217 10.668z"/>
   <path d="m95.8 201.55h-1.2418v-9.525h-0.36689v-1.143h1.6087v10.668z"/>
  </g>
  <g fill="#a4a4a3" fill-opacity=".68342" stroke="#fff" stroke-width=".5">
   <path transform="rotate(135)" d="m-86.44-121.61a2.2402 2.2402 0 0 1-1.1201 1.9401 2.2402 2.2402 0 0 1-2.2402 0 2.2402 2.2402 0 0 1-1.1201-1.9401" style="paint-order:normal"/>
   <path transform="rotate(135)" d="m-53.512-121.61a2.2402 2.2402 0 0 1-1.1201 1.9401 2.2402 2.2402 0 0 1-2.2402 0 2.2402 2.2402 0 0 1-1.1201-1.9401" style="paint-order:normal"/>
   <path transform="rotate(225)" d="m-135.83 105.14a2.2402 2.2402 0 0 1-1.1201 1.94 2.2402 2.2402 0 0 1-2.2402 0 2.2402 2.2402 0 0 1-1.1201-1.94" style="paint-order:normal"/>
   <path transform="rotate(225)" d="m-168.76 105.14a2.2402 2.2402 0 0 1-1.1201 1.94 2.2402 2.2402 0 0 1-2.2402 0 2.2402 2.2402 0 0 1-1.1201-1.94" style="paint-order:normal"/>
   <path transform="rotate(45)" d="m140.31-39.289a2.2402 2.2402 0 0 1-1.1201 1.9401 2.2402 2.2402 0 0 1-2.2402 0 2.2402 2.2402 0 0 1-1.1201-1.9401" style="paint-order:normal"/>
   <path transform="rotate(45)" d="m173.24-39.289a2.2402 2.2402 0 0 1-1.1201 1.9401 2.2402 2.2402 0 0 1-2.2402 0 2.2402 2.2402 0 0 1-1.1201-1.9401" style="paint-order:normal"/>
   <path transform="rotate(-45)" d="m57.993 187.46a2.2402 2.2402 0 0 1-1.1201 1.9401 2.2402 2.2402 0 0 1-2.2402 0 2.2402 2.2402 0 0 1-1.1201-1.9401" style="paint-order:normal"/>
   <path transform="rotate(-45)" d="m90.92 187.46a2.2402 2.2402 0 0 1-1.1201 1.94 2.2402 2.2402 0 0 1-2.2402 0 2.2402 2.2402 0 0 1-1.1201-1.94" style="paint-order:normal"/>
  </g>
  <g fill="#fff" fill-opacity=".18785" stroke="#fff" stroke-linejoin="round" stroke-opacity=".75691" stroke-width=".794">
   <path d="m137.05 34.925 23.283-23.283 23.283 23.283-23.283 23.283z" style="paint-order:normal"/>
   <path d="m137.05 34.925 23.283 23.283h-46.567z" style="paint-order:normal"/>
   <path d="m183.62 34.925 23.283 23.283h-46.567z" style="paint-order:normal"/>
   <path d="m160.34 58.208v46.567l-46.567-46.567z" style="paint-order:normal"/>
   <path d="m183.62 81.492-23.283 23.283v-46.567z" style="paint-order:normal"/>
   <path d="m183.62 81.492-23.283-23.283h46.567z" style="paint-order:normal"/>
  </g>
  <g fill-opacity=".11055" stroke="#fff" stroke-dasharray="3.00000008, 0.50000001" stroke-linejoin="round" stroke-opacity=".73869" stroke-width=".5">
   <g transform="rotate(-45)" dominant-baseline="auto" style="font-feature-settings:normal;font-variant-alternates:normal;font-variant-caps:normal;font-variant-ligatures:normal;font-variant-numeric:normal;font-variant-position:normal;shape-padding:0;text-decoration-color:#000000;text-decoration-line:none;text-decoration-style:solid;text-indent:0;text-orientation:mixed;text-transform:none;white-space:normal" aria-label="1">
    <path d="m52.249 162.36h-1.7385v-13.335h-0.51364v-1.6002h2.2521v14.935z" dominant-baseline="auto" fill-opacity=".11055" stroke="#fff" stroke-dasharray="3.00000008, 0.50000001" stroke-linejoin="round" stroke-opacity=".73869" stroke-width=".5" style="font-feature-settings:normal;font-variant-alternates:normal;font-variant-caps:normal;font-variant-ligatures:normal;font-variant-numeric:normal;font-variant-position:normal;shape-padding:0;text-decoration-color:#000000;text-decoration-line:none;text-decoration-style:solid;text-indent:0;text-orientation:mixed;text-transform:none;white-space:normal"/>
   </g>
   <g transform="rotate(-45)" dominant-baseline="auto" style="font-feature-settings:normal;font-variant-alternates:normal;font-variant-caps:normal;font-variant-ligatures:normal;font-variant-numeric:normal;font-variant-position:normal;shape-padding:0;text-decoration-color:#000000;text-decoration-line:none;text-decoration-style:solid;text-indent:0;text-orientation:mixed;text-transform:none;white-space:normal" aria-label="2">
    <path d="m60.864 127.71v-0.82973q0-0.5334 0.19756-0.98778 0.21731-0.47413 0.55316-0.82973 0.3556-0.3556 0.82973-0.55316 0.47413-0.19755 1.0075-0.19755h1.5409q0.5334 0 0.98778 0.19755 0.47413 0.19756 0.80998 0.55316 0.3556 0.3556 0.55316 0.82973 0.21731 0.45438 0.21731 0.98778v2.2719q0 0.90875-0.47413 1.5804-0.45438 0.65194-1.1656 1.1656l-2.4694 1.699q-0.37536 0.25682-0.65193 0.59267-0.27658 0.31609-0.27658 0.80997v2.6472h4.9191v1.6002h-6.6576v-4.1882q0-0.90875 0.45438-1.5804 0.47413-0.67169 1.1853-1.1853l2.4694-1.6792q0.37536-0.25682 0.65193-0.59267 0.29633-0.33584 0.29633-0.80997v-2.3312q0-0.37536-0.27658-0.63218-0.25682-0.27658-0.65193-0.27658h-1.4026q-0.37536 0-0.65193 0.27658-0.25682 0.25682-0.25682 0.63218v0.82973z" dominant-baseline="auto" fill-opacity=".11055" stroke="#fff" stroke-dasharray="3.00000008, 0.50000001" stroke-linejoin="round" stroke-opacity=".73869" stroke-width=".5" style="font-feature-settings:normal;font-variant-alternates:normal;font-variant-caps:normal;font-variant-ligatures:normal;font-variant-numeric:normal;font-variant-position:normal;shape-padding:0;text-decoration-color:#000000;text-decoration-line:none;text-decoration-style:solid;text-indent:0;text-orientation:mixed;text-transform:none;white-space:normal"/>
   </g>
   <g transform="rotate(-45)" dominant-baseline="auto" style="font-feature-settings:normal;font-variant-alternates:normal;font-variant-caps:normal;font-variant-ligatures:normal;font-variant-numeric:normal;font-variant-position:normal;shape-padding:0;text-decoration-color:#000000;text-decoration-line:none;text-decoration-style:solid;text-indent:0;text-orientation:mixed;text-transform:none;white-space:normal" aria-label="4">
    <path d="m64.51 169.03-2.0151 8.7122h3.714v-8.7122h1.7187v8.7122h0.51364v1.6002h-0.51364v4.6228h-1.7187v-4.6228h-5.9069l2.4299-10.312h1.778z" dominant-baseline="auto" fill-opacity=".11055" stroke="#fff" stroke-dasharray="3.00000008, 0.50000001" stroke-linejoin="round" stroke-opacity=".73869" stroke-width=".5" style="font-feature-settings:normal;font-variant-alternates:normal;font-variant-caps:normal;font-variant-ligatures:normal;font-variant-numeric:normal;font-variant-position:normal;shape-padding:0;text-decoration-color:#000000;text-decoration-line:none;text-decoration-style:solid;text-indent:0;text-orientation:mixed;text-transform:none;white-space:normal"/>
   </g>
   <g transform="rotate(-45)" dominant-baseline="auto" style="font-feature-settings:normal;font-variant-alternates:normal;font-variant-caps:normal;font-variant-ligatures:normal;font-variant-numeric:normal;font-variant-position:normal;shape-padding:0;text-decoration-color:#000000;text-decoration-line:none;text-decoration-style:solid;text-indent:0;text-orientation:mixed;text-transform:none;white-space:normal" aria-label="5">
    <path d="m80.143 170.63-0.69144 4.6821h2.7263q0.49389 0 0.92851 0.19756 0.45438 0.1778 0.79022 0.51364 0.33584 0.31609 0.51364 0.77047 0.19756 0.43462 0.19756 0.92851v3.8326q0 0.49389-0.19756 0.94827-0.1778 0.43462-0.51364 0.77046-0.33584 0.31609-0.79022 0.51365-0.43462 0.1778-0.92851 0.1778h-2.3509q-0.49389 0-0.94827-0.1778-0.43462-0.19756-0.77047-0.51365-0.31609-0.33584-0.51364-0.77046-0.1778-0.45438-0.1778-0.94827v-0.98778h1.7385v1.047q0 0.31609 0.21731 0.5334 0.21731 0.21732 0.5334 0.21732h2.2126q0.31609 0 0.5334-0.21732 0.21731-0.21731 0.21731-0.5334v-3.9511q0-0.31609-0.21731-0.5334t-0.5334-0.21731h-4.6623l1.1853-7.8825h5.5711v1.6002z" dominant-baseline="auto" fill-opacity=".11055" stroke="#fff" stroke-dasharray="3.00000008, 0.50000001" stroke-linejoin="round" stroke-opacity=".73869" stroke-width=".5" style="font-feature-settings:normal;font-variant-alternates:normal;font-variant-caps:normal;font-variant-ligatures:normal;font-variant-numeric:normal;font-variant-position:normal;shape-padding:0;text-decoration-color:#000000;text-decoration-line:none;text-decoration-style:solid;text-indent:0;text-orientation:mixed;text-transform:none;white-space:normal"/>
   </g>
   <g transform="rotate(-45)" dominant-baseline="auto" style="font-feature-settings:normal;font-variant-alternates:normal;font-variant-caps:normal;font-variant-ligatures:normal;font-variant-numeric:normal;font-variant-position:normal;shape-padding:0;text-decoration-color:#000000;text-decoration-line:none;text-decoration-style:solid;text-indent:0;text-orientation:mixed;text-transform:none;white-space:normal" aria-label="3">
    <path d="m97.336 163.8q0.31609 0 0.5334-0.21731 0.21731-0.21732 0.21731-0.5334v-3.1806q0-0.31609-0.21731-0.5334t-0.5334-0.21731h-2.0743q-0.31609 0-0.5334 0.21731t-0.21731 0.5334v1.047h-1.6595v-0.98778q0-0.49389 0.1778-0.92851 0.19756-0.45438 0.51364-0.77047 0.33584-0.33584 0.77047-0.51364 0.45438-0.19756 0.94827-0.19756h2.1336q0.49389 0 0.92851 0.19756 0.45438 0.1778 0.77047 0.51364 0.33584 0.31609 0.5334 0.77047 0.19756 0.43462 0.19756 0.92851v3.0819q0 0.41487-0.13829 0.77047-0.13829 0.33585-0.37536 0.67169 0.3556 0.37536 0.55316 0.79022 0.19756 0.41487 0.19756 0.92851v3.8721q0 0.49389-0.19756 0.94827-0.1778 0.43462-0.51364 0.77047-0.31609 0.31608-0.77047 0.51364-0.43462 0.1778-0.92851 0.1778h-2.3509q-0.49389 0-0.94827-0.1778-0.43462-0.19756-0.77047-0.51364-0.31609-0.33585-0.51364-0.77047-0.1778-0.45438-0.1778-0.94827v-0.98778h1.6595v1.047q0 0.31609 0.21731 0.5334t0.5334 0.21731h2.2719q0.31609 0 0.5334-0.21731t0.21731-0.5334v-3.9511q0-0.31609-0.21731-0.5334t-0.5334-0.21731h-2.1336v-1.6002z" dominant-baseline="auto" fill-opacity=".11055" stroke="#fff" stroke-dasharray="3.00000008, 0.50000001" stroke-linejoin="round" stroke-opacity=".73869" stroke-width=".5" style="font-feature-settings:normal;font-variant-alternates:normal;font-variant-caps:normal;font-variant-ligatures:normal;font-variant-numeric:normal;font-variant-position:normal;shape-padding:0;text-decoration-color:#000000;text-decoration-line:none;text-decoration-style:solid;text-indent:0;text-orientation:mixed;text-transform:none;white-space:normal"/>
   </g>
   <g transform="rotate(-45)" dominant-baseline="auto" style="font-feature-settings:normal;font-variant-alternates:normal;font-variant-caps:normal;font-variant-ligatures:normal;font-variant-numeric:normal;font-variant-position:normal;shape-padding:0;text-decoration-color:#000000;text-decoration-line:none;text-decoration-style:solid;text-indent:0;text-orientation:mixed;text-transform:none;white-space:normal" aria-label="6">
    <path d="m90.025 137.52q0.49389 0 0.92851 0.19756 0.45438 0.1778 0.77047 0.51364 0.33584 0.33585 0.51364 0.79022 0.19756 0.43463 0.19756 0.92852v3.8128q0 0.49389-0.19756 0.94826-0.1778 0.43463-0.51364 0.77047-0.31609 0.31609-0.77047 0.51365-0.43462 0.1778-0.92851 0.1778h-2.0348q-0.51364 0-0.94827-0.1778-0.43462-0.19756-0.77047-0.51365-0.33584-0.33584-0.5334-0.77047-0.1778-0.45437-0.1778-0.94826v-10.095q0-0.49389 0.1778-0.92851 0.19756-0.45438 0.5334-0.77047 0.33584-0.33584 0.77047-0.5334 0.43462-0.19755 0.94827-0.19755h1.9558q0.49389 0 0.92851 0.19755 0.45438 0.19756 0.79022 0.5334 0.33584 0.31609 0.51364 0.77047 0.19756 0.43462 0.19756 0.92851v0.96802h-1.7385v-1.0273q0-0.27658-0.21731-0.51364-0.21731-0.25682-0.5334-0.25682h-1.8373q-0.31609 0-0.5334 0.23706-0.21731 0.21731-0.21731 0.5334v3.9116zm-2.7263 6.302q0 0.29634 0.21731 0.5334 0.21731 0.21732 0.5334 0.21732h1.8965q0.29633 0 0.51364-0.21732 0.23707-0.21731 0.23707-0.5334v-3.9511q0-0.29633-0.21731-0.51364-0.19756-0.23707-0.5334-0.23707h-2.6472z" dominant-baseline="auto" fill-opacity=".11055" stroke="#fff" stroke-dasharray="3.00000008, 0.50000001" stroke-linejoin="round" stroke-opacity=".73869" stroke-width=".5" style="font-feature-settings:normal;font-variant-alternates:normal;font-variant-caps:normal;font-variant-ligatures:normal;font-variant-numeric:normal;font-variant-position:normal;shape-padding:0;text-decoration-color:#000000;text-decoration-line:none;text-decoration-style:solid;text-indent:0;text-orientation:mixed;text-transform:none;white-space:normal"/>
   </g>
  </g>
  <g fill="#fff">
   <circle cx="119.59" cy="60.59" r="1.2161" style="paint-order:normal"/>
   <circle cx="119.59" cy="55.827" r="1.2161" style="paint-order:normal"/>
   <circle cx="166.16" cy="55.827" r="1.2161" style="paint-order:normal"/>
   <circle cx="162.72" cy="64.029" r="1.2161" style="paint-order:normal"/>
   <circle cx="201.08" cy="60.59" r="1.2161" style="paint-order:normal"/>
   <circle cx="160.34" cy="14.552" r="1.2161" style="paint-order:normal"/>
  </g>
  <g transform="rotate(-45)" fill="#fff" aria-label="TAN-D-9702">
   <path d="m-86.746 289.52h4.7837v1.1571h-1.778v9.5109h-1.2277v-9.5109h-1.778v-1.1571z"/>
   <path d="m-80.055 296.84v3.3443h-1.2418v-8.9323q0-0.32455 0.127-0.635 0.14111-0.31044 0.381-0.55033 0.23989-0.23989 0.55033-0.381 0.31044-0.15522 0.67733-0.15522h1.4534q0.35278 0 0.66322 0.14111 0.32456 0.127 0.55033 0.36689 0.23989 0.22578 0.36689 0.55033 0.14111 0.31045 0.14111 0.66322v8.9323h-1.2418v-3.3443zm2.4271-1.143v-4.4873q0-0.22578-0.15522-0.381t-0.381-0.15522h-1.3547q-0.22578 0-0.381 0.15522-0.15522 0.15522-0.15522 0.381v4.4873z"/>
   <path d="m-71.17 300.18-2.8222-7.366v7.366h-1.2418v-10.668h1.2418l2.8363 7.366v-7.366h1.2277v10.668h-1.2418z"/>
   <path d="m-64.353 295.87h-4.5156v-1.1853h4.5156v1.1853z"/>
   <path d="m-63.231 300.18v-10.668h3.1891q0.35278 0 0.66322 0.14111 0.32456 0.14111 0.55033 0.381 0.23989 0.22578 0.36689 0.55033 0.14111 0.31045 0.14111 0.66322v7.2108q0 0.35278-0.14111 0.67733-0.127 0.31045-0.36689 0.55034-0.22578 0.22578-0.55033 0.36689-0.31044 0.127-0.66322 0.127zm1.2418-1.143h1.8909q0.22578 0 0.381-0.15523 0.15522-0.15522 0.15522-0.381v-7.2954q0-0.22578-0.15522-0.381-0.15522-0.15522-0.381-0.15522h-1.8909z"/>
   <path d="m-52.722 295.87h-4.5156v-1.1853h4.5156v1.1853z"/>
   <path d="m-49.865 295.68q-0.36689 0-0.69144-0.127-0.31044-0.14111-0.56444-0.381-0.23989-0.23989-0.381-0.55033-0.14111-0.31045-0.14111-0.67733v-2.6952q0-0.35277 0.127-0.66322 0.14111-0.32455 0.36689-0.55033 0.23989-0.23989 0.55033-0.381 0.32456-0.14111 0.67733-0.14111h1.4534q0.35278 0 0.66322 0.14111 0.32456 0.14111 0.56444 0.381 0.23989 0.22578 0.36689 0.55033 0.14111 0.31045 0.14111 0.66322v7.2108q0 0.35278-0.14111 0.67733-0.127 0.31045-0.36689 0.55034-0.23989 0.22578-0.56444 0.36689-0.31044 0.127-0.66322 0.127h-1.397q-0.36689 0-0.67733-0.127-0.31044-0.14111-0.55033-0.36689-0.23989-0.23989-0.381-0.55034-0.127-0.32455-0.127-0.67733v-0.69144h1.2418v0.73377q0 0.19756 0.14111 0.381 0.15522 0.16934 0.39511 0.16934h1.3123q0.22578 0 0.381-0.15522 0.15522-0.16934 0.15522-0.39512v-2.8222zm1.8909-4.4732q0-0.22578-0.15522-0.381t-0.381-0.15522h-1.3547q-0.22578 0-0.39511 0.15522-0.15522 0.15522-0.15522 0.381v2.8222q0 0.21167 0.15522 0.381 0.16933 0.15522 0.39511 0.15522h1.8909z"/>
   <path d="m-43.8 300.18h-1.3264l3.5701-9.525h-2.9492v1.3406h-1.1853v-2.4836h5.9126l-4.0217 10.668z"/>
   <path d="m-33.957 298.46q0 0.35278-0.14111 0.67733-0.127 0.31045-0.36689 0.55034-0.22578 0.22578-0.55033 0.36689-0.31044 0.127-0.66322 0.127h-1.4534q-0.36689 0-0.67733-0.127-0.31044-0.14111-0.55033-0.36689-0.23989-0.23989-0.381-0.55034-0.127-0.32455-0.127-0.67733v-7.2108q0-0.35277 0.127-0.66322 0.14111-0.32455 0.381-0.55033 0.23989-0.23989 0.55033-0.381 0.31044-0.14111 0.67733-0.14111h1.4534q0.35278 0 0.66322 0.14111 0.32456 0.14111 0.55033 0.381 0.23989 0.22578 0.36689 0.55033 0.14111 0.31045 0.14111 0.66322zm-1.778 0.57856q0.23989 0 0.381-0.15523 0.15522-0.15522 0.15522-0.381v-5.8279q-0.59267 1.5381-1.1712 3.0762-0.56444 1.5381-1.1571 3.0762 0.16933 0.21167 0.43744 0.21167zm-1.8909-2.286q0.56444-1.4958 1.1148-2.9774 0.56444-1.4817 1.1289-2.9774-0.16933-0.14111-0.35278-0.14111h-1.3547q-0.22578 0-0.381 0.16933-0.15522 0.15522-0.15522 0.381z"/>
   <path d="m-32.832 291.94v-0.59267q0-0.381 0.14111-0.70555 0.15522-0.33867 0.39511-0.59267 0.254-0.254 0.59267-0.39511 0.33867-0.14111 0.71967-0.14111h1.1007q0.381 0 0.70556 0.14111 0.33867 0.14111 0.57856 0.39511 0.254 0.254 0.39511 0.59267 0.15522 0.32455 0.15522 0.70555v1.6228q0 0.64911-0.33867 1.1289-0.32456 0.46566-0.83256 0.83255l-1.7639 1.2136q-0.26811 0.18344-0.46567 0.42333-0.19756 0.22578-0.19756 0.57856v1.8909h3.5137v1.143h-4.7554v-2.9916q0-0.64911 0.32456-1.1289 0.33867-0.47978 0.84667-0.84666l1.7639-1.1994q0.26811-0.18344 0.46567-0.42333 0.21167-0.23989 0.21167-0.57856v-1.6651q0-0.26811-0.19756-0.45155-0.18344-0.19756-0.46567-0.19756h-1.0019q-0.26811 0-0.46567 0.19756-0.18344 0.18344-0.18344 0.45155v0.59267z"/>
  </g>
  <g fill="#a4a4a3" fill-opacity=".68342" stroke="#fff" stroke-width=".5">
   <path transform="rotate(225)" d="m-201.31 5.9868a2.2402 2.2402 0 0 1-1.1201 1.9401 2.2402 2.2402 0 0 1-2.2402-1e-7 2.2402 2.2402 0 0 1-1.1201-1.9401" style="paint-order:normal"/>
   <path transform="rotate(225)" d="m-234.61 6.361a2.2402 2.2402 0 0 1-1.1201 1.9401 2.2402 2.2402 0 0 1-2.2402 0 2.2402 2.2402 0 0 1-1.1201-1.9401" style="paint-order:normal"/>
   <path transform="rotate(225)" d="m-267.54 6.361a2.2402 2.2402 0 0 1-1.1201 1.9401 2.2402 2.2402 0 0 1-2.2402-1e-7 2.2402 2.2402 0 0 1-1.1201-1.9401" style="paint-order:normal"/>
   <path transform="rotate(135)" d="m12.717-187.09a2.2402 2.2402 0 0 1-1.1201 1.94 2.2402 2.2402 0 0 1-2.2402 0 2.2402 2.2402 0 0 1-1.1201-1.94" style="paint-order:normal"/>
   <path transform="rotate(135)" d="m45.645-187.09a2.2402 2.2402 0 0 1-1.1201 1.94 2.2402 2.2402 0 0 1-2.2402 0 2.2402 2.2402 0 0 1-1.1201-1.94" style="paint-order:normal"/>
   <path transform="rotate(135)" d="m78.198-187.46a2.2402 2.2402 0 0 1-1.1201 1.94 2.2402 2.2402 0 0 1-2.2402 0 2.2402 2.2402 0 0 1-1.1201-1.94" style="paint-order:normal"/>
   <path transform="rotate(45)" d="m206.17 92.422a2.2402 2.2402 0 0 1-1.1201 1.9401 2.2402 2.2402 0 0 1-2.2402 0 2.2402 2.2402 0 0 1-1.1201-1.9401" style="paint-order:normal"/>
   <path transform="rotate(45)" d="m239.09 92.422a2.2402 2.2402 0 0 1-1.1201 1.9401 2.2402 2.2402 0 0 1-2.2402 0 2.2402 2.2402 0 0 1-1.1201-1.9401" style="paint-order:normal"/>
   <path transform="rotate(45)" d="m272.02 92.422a2.2402 2.2402 0 0 1-1.1201 1.9401 2.2402 2.2402 0 0 1-2.2402 0 2.2402 2.2402 0 0 1-1.1201-1.9401" style="paint-order:normal"/>
   <path transform="rotate(-45)" d="m-7.8626 286.25a2.2402 2.2402 0 0 1-1.1201 1.94 2.2402 2.2402 0 0 1-2.2402 0 2.2402 2.2402 0 0 1-1.1201-1.94" style="paint-order:normal"/>
   <path transform="rotate(-45)" d="m-40.79 286.25a2.2402 2.2402 0 0 1-1.1201 1.94 2.2402 2.2402 0 0 1-2.2402 0 2.2402 2.2402 0 0 1-1.1201-1.94" style="paint-order:normal"/>
   <path transform="rotate(-45)" d="m-73.718 286.25a2.2402 2.2402 0 0 1-1.1201 1.94 2.2402 2.2402 0 0 1-2.2402 0 2.2402 2.2402 0 0 1-1.1201-1.94" style="paint-order:normal"/>
  </g>
  <g fill="#fff" fill-opacity=".18785" stroke="#fff" stroke-linejoin="round" stroke-opacity=".75691" stroke-width=".794">
   <path d="m137.05 128.06 23.283 23.283h-46.567z" style="paint-order:normal"/>
   <path d="m113.77 244.48-46.567-46.567 46.567-46.567z" style="paint-order:normal"/>
   <path d="m160.34 151.34 46.567 46.567-46.567 46.567z" style="paint-order:normal"/>
   <path d="m160.34 151.34v46.567l-46.567-46.567z" style="paint-order:normal"/>
   <path d="m137.05 221.19-23.283-23.283 1e-5 -46.567 23.283 23.283z" style="paint-order:normal"/>
   <path d="m160.34 197.91-23.283 23.283v-46.567z" style="paint-order:normal"/>
   <path d="m137.05 221.19-23.283 23.283v-46.567z" style="paint-order:normal"/>
   <path d="m137.05 221.19 23.283-23.283v46.567z" style="paint-order:normal"/>
   <path d="m113.77 244.48 23.283-23.283 23.283 23.283-23.283 23.283z" style="paint-order:normal"/>
  </g>
  <g fill-opacity=".11055" stroke="#fff" stroke-dasharray="3.00000008, 0.50000001" stroke-linejoin="round" stroke-opacity=".73869" stroke-width=".5">
   <g transform="rotate(-45)" dominant-baseline="auto" style="font-feature-settings:normal;font-variant-alternates:normal;font-variant-caps:normal;font-variant-ligatures:normal;font-variant-numeric:normal;font-variant-position:normal;shape-padding:0;text-decoration-color:#000000;text-decoration-line:none;text-decoration-style:solid;text-indent:0;text-orientation:mixed;text-transform:none;white-space:normal" aria-label="2">
    <path d="m-16 259.51v-0.82974q0-0.5334 0.19756-0.98777 0.21731-0.47414 0.55316-0.82974 0.3556-0.3556 0.82973-0.55315 0.47413-0.19756 1.0075-0.19756h1.5409q0.5334 0 0.98778 0.19756 0.47413 0.19755 0.80998 0.55315 0.3556 0.3556 0.55316 0.82974 0.21731 0.45437 0.21731 0.98777v2.2719q0 0.90876-0.47413 1.5804-0.45438 0.65193-1.1656 1.1656l-2.4694 1.699q-0.37536 0.25683-0.65193 0.59267-0.27658 0.31609-0.27658 0.80998v2.6472h4.9191v1.6002h-6.6576v-4.1882q0-0.90876 0.45438-1.5804 0.47413-0.67169 1.1853-1.1853l2.4694-1.6792q0.37536-0.25682 0.65193-0.59266 0.29633-0.33585 0.29633-0.80998v-2.3312q0-0.37535-0.27658-0.63217-0.25682-0.27658-0.65193-0.27658h-1.4026q-0.37536 0-0.65193 0.27658-0.25682 0.25682-0.25682 0.63217v0.82974z" dominant-baseline="auto" fill-opacity=".11055" stroke="#fff" stroke-dasharray="3.00000008, 0.50000001" stroke-linejoin="round" stroke-opacity=".73869" stroke-width=".5" style="font-feature-settings:normal;font-variant-alternates:normal;font-variant-caps:normal;font-variant-ligatures:normal;font-variant-numeric:normal;font-variant-position:normal;shape-padding:0;text-decoration-color:#000000;text-decoration-line:none;text-decoration-style:solid;text-indent:0;text-orientation:mixed;text-transform:none;white-space:normal"/>
   </g>
   <g transform="rotate(-45)" dominant-baseline="auto" style="font-feature-settings:normal;font-variant-alternates:normal;font-variant-caps:normal;font-variant-ligatures:normal;font-variant-numeric:normal;font-variant-position:normal;shape-padding:0;text-decoration-color:#000000;text-decoration-line:none;text-decoration-style:solid;text-indent:0;text-orientation:mixed;text-transform:none;white-space:normal" aria-label="1">
    <path d="m-70.665 214.69h-1.7385v-13.335h-0.51364v-1.6002h2.2521v14.935z" dominant-baseline="auto" fill-opacity=".11055" stroke="#fff" stroke-dasharray="3.00000008, 0.50000001" stroke-linejoin="round" stroke-opacity=".73869" stroke-width=".5" style="font-feature-settings:normal;font-variant-alternates:normal;font-variant-caps:normal;font-variant-ligatures:normal;font-variant-numeric:normal;font-variant-position:normal;shape-padding:0;text-decoration-color:#000000;text-decoration-line:none;text-decoration-style:solid;text-indent:0;text-orientation:mixed;text-transform:none;white-space:normal"/>
   </g>
   <g transform="rotate(-45)" dominant-baseline="auto" style="font-feature-settings:normal;font-variant-alternates:normal;font-variant-caps:normal;font-variant-ligatures:normal;font-variant-numeric:normal;font-variant-position:normal;shape-padding:0;text-decoration-color:#000000;text-decoration-line:none;text-decoration-style:solid;text-indent:0;text-orientation:mixed;text-transform:none;white-space:normal" aria-label="9">
    <path d="m-43.336 220.69q-0.51364 0-0.96802-0.1778-0.43462-0.19755-0.79022-0.5334-0.33584-0.33584-0.5334-0.77046-0.19756-0.43462-0.19756-0.94827v-3.7733q0-0.49389 0.1778-0.92851 0.19756-0.45438 0.51364-0.77047 0.33584-0.33584 0.77047-0.5334 0.45438-0.19755 0.94827-0.19755h2.0348q0.49389 0 0.92851 0.19755 0.45438 0.19756 0.79022 0.5334 0.33584 0.31609 0.51364 0.77047 0.19756 0.43462 0.19756 0.92851v10.095q0 0.49389-0.19756 0.94827-0.1778 0.43462-0.51364 0.77046-0.33584 0.31609-0.79022 0.51365-0.43462 0.1778-0.92851 0.1778h-1.9558q-0.51364 0-0.94827-0.1778-0.43462-0.19756-0.77047-0.51365-0.33584-0.33584-0.5334-0.77046-0.1778-0.45438-0.1778-0.94827v-0.96802h1.7385v1.0273q0 0.27657 0.19756 0.5334 0.21731 0.23706 0.55316 0.23706h1.8373q0.31609 0 0.5334-0.21731 0.21731-0.23707 0.21731-0.55315v-3.9511zm2.6472-6.2625q0-0.31609-0.21731-0.5334t-0.5334-0.21731h-1.8965q-0.31609 0-0.55316 0.21731-0.21731 0.21731-0.21731 0.5334v3.9511q0 0.29634 0.21731 0.5334 0.23707 0.21732 0.55316 0.21732h2.6472z" dominant-baseline="auto" fill-opacity=".11055" stroke="#fff" stroke-dasharray="3.00000008, 0.50000001" stroke-linejoin="round" stroke-opacity=".73869" stroke-width=".5" style="font-feature-settings:normal;font-variant-alternates:normal;font-variant-caps:normal;font-variant-ligatures:normal;font-variant-numeric:normal;font-variant-position:normal;shape-padding:0;text-decoration-color:#000000;text-decoration-line:none;text-decoration-style:solid;text-indent:0;text-orientation:mixed;text-transform:none;white-space:normal"/>
   </g>
   <g transform="rotate(-45)" dominant-baseline="auto" style="font-feature-settings:normal;font-variant-alternates:normal;font-variant-caps:normal;font-variant-ligatures:normal;font-variant-numeric:normal;font-variant-position:normal;shape-padding:0;text-decoration-color:#000000;text-decoration-line:none;text-decoration-style:solid;text-indent:0;text-orientation:mixed;text-transform:none;white-space:normal" aria-label="3">
    <path d="m-11.747 218.61q0.31609 0 0.5334-0.21731t0.21731-0.5334v-3.1806q0-0.31609-0.21731-0.5334-0.21731-0.21732-0.5334-0.21732h-2.0743q-0.31609 0-0.5334 0.21732-0.21731 0.21731-0.21731 0.5334v1.047h-1.6595v-0.98778q0-0.49389 0.1778-0.92851 0.19756-0.45438 0.51364-0.77047 0.33584-0.33584 0.77047-0.51364 0.45438-0.19756 0.94827-0.19756h2.1336q0.49389 0 0.92851 0.19756 0.45438 0.1778 0.77047 0.51364 0.33584 0.31609 0.5334 0.77047 0.19756 0.43462 0.19756 0.92851v3.0819q0 0.41487-0.13829 0.77047-0.13829 0.33584-0.37536 0.67168 0.3556 0.37536 0.55316 0.79023 0.19756 0.41486 0.19756 0.92851v3.8721q0 0.49389-0.19756 0.94826-0.1778 0.43463-0.51364 0.77047-0.31609 0.31609-0.77047 0.51364-0.43462 0.1778-0.92851 0.1778h-2.3509q-0.49389 0-0.94827-0.1778-0.43462-0.19755-0.77047-0.51364-0.31609-0.33584-0.51364-0.77047-0.1778-0.45437-0.1778-0.94826v-0.98778h1.6595v1.047q0 0.31609 0.21731 0.5334 0.21731 0.21731 0.5334 0.21731h2.2719q0.31609 0 0.5334-0.21731 0.21731-0.21731 0.21731-0.5334v-3.9511q0-0.31609-0.21731-0.5334-0.21731-0.21731-0.5334-0.21731h-2.1336v-1.6002z" dominant-baseline="auto" fill-opacity=".11055" stroke="#fff" stroke-dasharray="3.00000008, 0.50000001" stroke-linejoin="round" stroke-opacity=".73869" stroke-width=".5" style="font-feature-settings:normal;font-variant-alternates:normal;font-variant-caps:normal;font-variant-ligatures:normal;font-variant-numeric:normal;font-variant-position:normal;shape-padding:0;text-decoration-color:#000000;text-decoration-line:none;text-decoration-style:solid;text-indent:0;text-orientation:mixed;text-transform:none;white-space:normal"/>
   </g>
   <g transform="rotate(-45)" dominant-baseline="auto" style="font-feature-settings:normal;font-variant-alternates:normal;font-variant-caps:normal;font-variant-ligatures:normal;font-variant-numeric:normal;font-variant-position:normal;shape-padding:0;text-decoration-color:#000000;text-decoration-line:none;text-decoration-style:solid;text-indent:0;text-orientation:mixed;text-transform:none;white-space:normal" aria-label="7">
    <path d="m-3.0009 205.56h-1.857l4.9982-13.335h-4.1289v1.8768h-1.6595v-3.477h8.2776l-5.6303 14.935z" dominant-baseline="auto" fill-opacity=".11055" stroke="#fff" stroke-dasharray="3.00000008, 0.50000001" stroke-linejoin="round" stroke-opacity=".73869" stroke-width=".5" style="font-feature-settings:normal;font-variant-alternates:normal;font-variant-caps:normal;font-variant-ligatures:normal;font-variant-numeric:normal;font-variant-position:normal;shape-padding:0;text-decoration-color:#000000;text-decoration-line:none;text-decoration-style:solid;text-indent:0;text-orientation:mixed;text-transform:none;white-space:normal"/>
   </g>
   <g transform="rotate(-45)" dominant-baseline="auto" style="font-feature-settings:normal;font-variant-alternates:normal;font-variant-caps:normal;font-variant-ligatures:normal;font-variant-numeric:normal;font-variant-position:normal;shape-padding:0;text-decoration-color:#000000;text-decoration-line:none;text-decoration-style:solid;text-indent:0;text-orientation:mixed;text-transform:none;white-space:normal" aria-label="6">
    <path d="m-49.371 262.92q0.49389 0 0.92851 0.19756 0.45438 0.1778 0.77047 0.51364 0.33584 0.33585 0.51364 0.79023 0.19756 0.43462 0.19756 0.92851v3.8128q0 0.49389-0.19756 0.94827-0.1778 0.43462-0.51364 0.77046-0.31609 0.31609-0.77047 0.51365-0.43462 0.1778-0.92851 0.1778h-2.0348q-0.51364 0-0.94827-0.1778-0.43462-0.19756-0.77047-0.51365-0.33584-0.33584-0.5334-0.77046-0.1778-0.45438-0.1778-0.94827v-10.095q0-0.49389 0.1778-0.92851 0.19756-0.45438 0.5334-0.77047 0.33584-0.33584 0.77047-0.5334 0.43462-0.19755 0.94827-0.19755h1.9558q0.49389 0 0.92851 0.19755 0.45438 0.19756 0.79022 0.5334 0.33584 0.31609 0.51364 0.77047 0.19756 0.43462 0.19756 0.92851v0.96802h-1.7385v-1.0273q0-0.27657-0.21731-0.51364-0.21731-0.25682-0.5334-0.25682h-1.8373q-0.31609 0-0.5334 0.23706-0.21731 0.21732-0.21731 0.5334v3.9116zm-2.7263 6.302q0 0.29633 0.21731 0.5334 0.21731 0.21731 0.5334 0.21731h1.8965q0.29633 0 0.51364-0.21731 0.23707-0.21731 0.23707-0.5334v-3.9511q0-0.29634-0.21731-0.51365-0.19756-0.23707-0.5334-0.23707h-2.6472z" dominant-baseline="auto" fill-opacity=".11055" stroke="#fff" stroke-dasharray="3.00000008, 0.50000001" stroke-linejoin="round" stroke-opacity=".73869" stroke-width=".5" style="font-feature-settings:normal;font-variant-alternates:normal;font-variant-caps:normal;font-variant-ligatures:normal;font-variant-numeric:normal;font-variant-position:normal;shape-padding:0;text-decoration-color:#000000;text-decoration-line:none;text-decoration-style:solid;text-indent:0;text-orientation:mixed;text-transform:none;white-space:normal"/>
   </g>
   <g transform="rotate(-45)" dominant-baseline="auto" style="font-feature-settings:normal;font-variant-alternates:normal;font-variant-caps:normal;font-variant-ligatures:normal;font-variant-numeric:normal;font-variant-position:normal;shape-padding:0;text-decoration-color:#000000;text-decoration-line:none;text-decoration-style:solid;text-indent:0;text-orientation:mixed;text-transform:none;white-space:normal" aria-label="5">
    <path d="m-37.053 237.21-0.69144 4.6821h2.7263q0.49389 0 0.92851 0.19756 0.45438 0.1778 0.79022 0.51364 0.33584 0.31609 0.51364 0.77047 0.19756 0.43462 0.19756 0.92851v3.8326q0 0.49389-0.19756 0.94826-0.1778 0.43463-0.51364 0.77047-0.33584 0.31609-0.79022 0.51364-0.43462 0.1778-0.92851 0.1778h-2.3509q-0.49389 0-0.94827-0.1778-0.43462-0.19755-0.77047-0.51364-0.31609-0.33584-0.51364-0.77047-0.1778-0.45437-0.1778-0.94826v-0.98778h1.7385v1.047q0 0.31609 0.21731 0.5334t0.5334 0.21731h2.2126q0.31609 0 0.5334-0.21731 0.21731-0.21731 0.21731-0.5334v-3.9511q0-0.31609-0.21731-0.5334-0.21731-0.21731-0.5334-0.21731h-4.6623l1.1853-7.8825h5.5711v1.6002z" dominant-baseline="auto" fill-opacity=".11055" stroke="#fff" stroke-dasharray="3.00000008, 0.50000001" stroke-linejoin="round" stroke-opacity=".73869" stroke-width=".5" style="font-feature-settings:normal;font-variant-alternates:normal;font-variant-caps:normal;font-variant-ligatures:normal;font-variant-numeric:normal;font-variant-position:normal;shape-padding:0;text-decoration-color:#000000;text-decoration-line:none;text-decoration-style:solid;text-indent:0;text-orientation:mixed;text-transform:none;white-space:normal"/>
   </g>
   <g transform="rotate(-45)" dominant-baseline="auto" style="font-feature-settings:normal;font-variant-alternates:normal;font-variant-caps:normal;font-variant-ligatures:normal;font-variant-numeric:normal;font-variant-position:normal;shape-padding:0;text-decoration-color:#000000;text-decoration-line:none;text-decoration-style:solid;text-indent:0;text-orientation:mixed;text-transform:none;white-space:normal" aria-label="4">
    <path d="m-68.524 234.94-2.0151 8.7122h3.714v-8.7122h1.7187v8.7122h0.51364v1.6002h-0.51364v4.6228h-1.7187v-4.6228h-5.9069l2.4299-10.312h1.778z" dominant-baseline="auto" fill-opacity=".11055" stroke="#fff" stroke-dasharray="3.00000008, 0.50000001" stroke-linejoin="round" stroke-opacity=".73869" stroke-width=".5" style="font-feature-settings:normal;font-variant-alternates:normal;font-variant-caps:normal;font-variant-ligatures:normal;font-variant-numeric:normal;font-variant-position:normal;shape-padding:0;text-decoration-color:#000000;text-decoration-line:none;text-decoration-style:solid;text-indent:0;text-orientation:mixed;text-transform:none;white-space:normal"/>
   </g>
   <g transform="rotate(-45)" dominant-baseline="auto" style="font-feature-settings:normal;font-variant-alternates:normal;font-variant-caps:normal;font-variant-ligatures:normal;font-variant-numeric:normal;font-variant-position:normal;shape-padding:0;text-decoration-color:#000000;text-decoration-line:none;text-decoration-style:solid;text-indent:0;text-orientation:mixed;text-transform:none;white-space:normal" aria-label="8">
    <path d="m-78.505 268.89q-0.25682-0.33584-0.39511-0.67169-0.11853-0.3556-0.11853-0.77047v-3.0819q0-0.49389 0.1778-0.92851 0.19756-0.43463 0.5334-0.77047 0.33584-0.33584 0.77047-0.5334t0.94827-0.19756h2.2521q0.55316 0 1.0075 0.21732 0.45438 0.21731 0.75071 0.59266 0.31609 0.3556 0.47413 0.84949 0.1778 0.49389 0.1778 1.0273v2.825q0 0.41487-0.13829 0.77047-0.11853 0.33585-0.3556 0.67169 0.3556 0.3556 0.55316 0.79022 0.19756 0.41487 0.19756 0.92851v3.8523q0 0.49389-0.19756 0.94826-0.1778 0.43463-0.51364 0.77047-0.31609 0.31609-0.77047 0.51364-0.43462 0.1778-0.92851 0.1778h-2.7658q-0.49389 0-0.94827-0.1778-0.43462-0.19755-0.77047-0.51364-0.31609-0.33584-0.51364-0.77047-0.1778-0.45437-0.1778-0.94826v-3.8523q0-0.51364 0.19756-0.92851 0.19756-0.43462 0.55316-0.79022zm3.7536-0.67169q0.37536 0 0.73096-0.13829 0.37536-0.13829 0.37536-0.61242v-2.825q0-0.39512-0.15804-0.75072-0.13829-0.3556-0.59267-0.3556h-1.7978q-0.39511 0-0.75071 0.15805-0.33584 0.15804-0.33584 0.61242v2.825q0 0.45437 0.15804 0.77046 0.15804 0.31609 0.59267 0.31609zm0.59267 7.0527q0.23707 0 0.37536-0.0988 0.15804-0.11854 0.23707-0.27658 0.07902-0.1778 0.09878-0.37536 0.03951-0.21731 0.03951-0.43462v-3.0621q0-0.19756-0.03951-0.41487-0.01976-0.21731-0.09878-0.39511t-0.23707-0.27658q-0.13829-0.11853-0.37536-0.11853h-2.6077q-0.25682 0-0.41487 0.11853-0.13829 0.0988-0.21731 0.27658-0.07902 0.1778-0.09878 0.39511t-0.01976 0.41487v3.0621q0 0.43462 0.11853 0.80998 0.11853 0.37535 0.63218 0.37535z" dominant-baseline="auto" fill-opacity=".11055" stroke="#fff" stroke-dasharray="3.00000008, 0.50000001" stroke-linejoin="round" stroke-opacity=".73869" stroke-width=".5" style="font-feature-settings:normal;font-variant-alternates:normal;font-variant-caps:normal;font-variant-ligatures:normal;font-variant-numeric:normal;font-variant-position:normal;shape-padding:0;text-decoration-color:#000000;text-decoration-line:none;text-decoration-style:solid;text-indent:0;text-orientation:mixed;text-transform:none;white-space:normal"/>
   </g>
  </g>
  <g fill="#fff">
   <circle cx="119.59" cy="148.96" r="1.2161" style="paint-order:normal"/>
   <circle cx="119.59" cy="153.72" r="1.2161" style="paint-order:normal"/>
   <circle cx="116.15" cy="157.16" r="1.2161" style="paint-order:normal"/>
   <circle cx="162.72" cy="157.16" r="1.2161" style="paint-order:normal"/>
   <circle cx="139.44" cy="180.45" r="1.2161" style="paint-order:normal"/>
   <circle cx="116.15" cy="203.73" r="1.2161" style="paint-order:normal"/>
   <circle cx="157.96" cy="238.65" r="1.2161" style="paint-order:normal"/>
   <circle cx="137.05" cy="224.1" r="1.2161" style="paint-order:normal"/>
   <circle cx="111.39" cy="238.65" r="1.2161" style="paint-order:normal"/>
  </g>
  <g transform="translate(6e-6 -5.7207e-6)">
   <g fill="#fff">
    <g transform="rotate(-45)" aria-label="TAN-D-7583">
     <path d="m-28.761 66.301h4.7837v1.1571h-1.778v9.5109h-1.2277v-9.5109h-1.778v-1.1571z"/>
     <path d="m-22.07 73.625v3.3443h-1.2418v-8.9323q0-0.32456 0.127-0.635 0.14111-0.31044 0.381-0.55033t0.55033-0.381q0.31044-0.15522 0.67733-0.15522h1.4534q0.35278 0 0.66322 0.14111 0.32456 0.127 0.55033 0.36689 0.23989 0.22578 0.36689 0.55033 0.14111 0.31044 0.14111 0.66322v8.9323h-1.2418v-3.3443zm2.4271-1.143v-4.4873q0-0.22578-0.15522-0.381-0.15522-0.15522-0.381-0.15522h-1.3547q-0.22578 0-0.381 0.15522-0.15522 0.15522-0.15522 0.381v4.4873z"/>
     <path d="m-13.184 76.969-2.8222-7.366v7.366h-1.2418v-10.668h1.2418l2.8363 7.366v-7.366h1.2277v10.668h-1.2418z"/>
     <path d="m-6.3675 72.651h-4.5156v-1.1853h4.5156v1.1853z"/>
     <path d="m-5.2459 76.969v-10.668h3.1891q0.35278 0 0.66322 0.14111 0.32456 0.14111 0.55033 0.381 0.23989 0.22578 0.36689 0.55033 0.14111 0.31044 0.14111 0.66322v7.2108q0 0.35278-0.14111 0.67733-0.127 0.31044-0.36689 0.55033-0.22578 0.22578-0.55033 0.36689-0.31044 0.127-0.66322 0.127zm1.2418-1.143h1.8909q0.22578 0 0.381-0.15522t0.15522-0.381v-7.2954q0-0.22578-0.15522-0.381-0.15522-0.15522-0.381-0.15522h-1.8909z"/>
     <path d="m5.2631 72.651h-4.5156v-1.1853h4.5156v1.1853z"/>
     <path d="m8.2051 76.969h-1.3264l3.5701-9.525h-2.9492v1.3406h-1.1853v-2.4836h5.9126l-4.0217 10.668z"/>
     <path d="m15.014 67.444-0.49389 3.3443h1.9473q0.35278 0 0.66322 0.14111 0.32456 0.127 0.56444 0.36689 0.23989 0.22578 0.36689 0.55033 0.14111 0.31044 0.14111 0.66322v2.7376q0 0.35278-0.14111 0.67733-0.127 0.31044-0.36689 0.55033-0.23989 0.22578-0.56444 0.36689-0.31044 0.127-0.66322 0.127h-1.6792q-0.35278 0-0.67733-0.127-0.31044-0.14111-0.55033-0.36689-0.22578-0.23989-0.36689-0.55033-0.127-0.32456-0.127-0.67733v-0.70556h1.2418v0.74789q0 0.22578 0.15522 0.381t0.381 0.15522h1.5804q0.22578 0 0.381-0.15522 0.15522-0.15522 0.15522-0.381v-2.8222q0-0.22578-0.15522-0.381-0.15522-0.15522-0.381-0.15522h-3.3302l0.84667-5.6303h3.9793v1.143z"/>
     <path d="m19.778 71.268q-0.18344-0.23989-0.28222-0.47978-0.08467-0.254-0.08467-0.55033v-2.2013q0-0.35278 0.127-0.66322 0.14111-0.31044 0.381-0.55033 0.23989-0.23989 0.55033-0.381 0.31044-0.14111 0.67733-0.14111h1.6087q0.39511 0 0.71967 0.15522 0.32456 0.15522 0.53622 0.42333 0.22578 0.254 0.33867 0.60678 0.127 0.35278 0.127 0.73378v2.0179q0 0.29633-0.09878 0.55033-0.08467 0.23989-0.254 0.47978 0.254 0.254 0.39511 0.56444 0.14111 0.29633 0.14111 0.66322v2.7517q0 0.35278-0.14111 0.67733-0.127 0.31044-0.36689 0.55033-0.22578 0.22578-0.55033 0.36689-0.31044 0.127-0.66322 0.127h-1.9756q-0.35278 0-0.67733-0.127-0.31044-0.14111-0.55033-0.36689-0.22578-0.23989-0.36689-0.55033-0.127-0.32456-0.127-0.67733v-2.7517q0-0.36689 0.14111-0.66322 0.14111-0.31044 0.39511-0.56444zm2.6811-0.47978q0.26811 0 0.52211-0.09878 0.26811-0.09878 0.26811-0.43744v-2.0179q0-0.28222-0.11289-0.53622-0.09878-0.254-0.42333-0.254h-1.2841q-0.28222 0-0.53622 0.11289-0.23989 0.11289-0.23989 0.43744v2.0179q0 0.32456 0.11289 0.55033t0.42333 0.22578zm0.42333 5.0377q0.16933 0 0.26811-0.07056 0.11289-0.08467 0.16933-0.19756 0.05644-0.127 0.07056-0.26811 0.02822-0.15522 0.02822-0.31044v-2.1872q0-0.14111-0.02822-0.29633-0.01411-0.15522-0.07056-0.28222t-0.16933-0.19756q-0.09878-0.08467-0.26811-0.08467h-1.8627q-0.18344 0-0.29633 0.08467-0.09878 0.07056-0.15522 0.19756-0.05644 0.127-0.07056 0.28222-0.01411 0.15522-0.01411 0.29633v2.1872q0 0.31044 0.08467 0.57856t0.45156 0.26811z"/>
     <path d="m28.92 70.788q0.22578 0 0.381-0.15522 0.15522-0.15522 0.15522-0.381v-2.2719q0-0.22578-0.15522-0.381-0.15522-0.15522-0.381-0.15522h-1.4817q-0.22578 0-0.381 0.15522-0.15522 0.15522-0.15522 0.381v0.74789h-1.1853v-0.70556q0-0.35278 0.127-0.66322 0.14111-0.32456 0.36689-0.55033 0.23989-0.23989 0.55033-0.36689 0.32456-0.14111 0.67733-0.14111h1.524q0.35278 0 0.66322 0.14111 0.32456 0.127 0.55033 0.36689 0.23989 0.22578 0.381 0.55033 0.14111 0.31044 0.14111 0.66322v2.2013q0 0.29633-0.09878 0.55033-0.09878 0.23989-0.26811 0.47978 0.254 0.26811 0.39511 0.56444 0.14111 0.29633 0.14111 0.66322v2.7658q0 0.35278-0.14111 0.67733-0.127 0.31044-0.36689 0.55033-0.22578 0.22578-0.55033 0.36689-0.31044 0.127-0.66322 0.127h-1.6792q-0.35278 0-0.67733-0.127-0.31044-0.14111-0.55033-0.36689-0.22578-0.23989-0.36689-0.55033-0.127-0.32456-0.127-0.67733v-0.70556h1.1853v0.74789q0 0.22578 0.15522 0.381 0.15522 0.15522 0.381 0.15522h1.6228q0.22578 0 0.381-0.15522t0.15522-0.381v-2.8222q0-0.22578-0.15522-0.381-0.15522-0.15522-0.381-0.15522h-1.524v-1.143z"/>
    </g>
    <circle cx="38.1" cy="79.11" r="1.2161" style="paint-order:normal"/>
    <circle cx="38.1" cy="125.68" r="1.2161" style="paint-order:normal"/>
    <circle cx="29.898" cy="122.24" r="1.2161" style="paint-order:normal"/>
    <circle cx="34.66" cy="122.24" r="1.2161" style="paint-order:normal"/>
    <circle cx="119.59" cy="83.873" r="1.2161" style="paint-order:normal"/>
    <circle cx="119.59" cy="130.44" r="1.2161" style="paint-order:normal"/>
    <circle cx="105.04" cy="104.78" r="1.2161" style="paint-order:normal"/>
   </g>
   <g fill="#a4a4a3" fill-opacity=".68342" stroke="#fff" stroke-width=".5">
    <path transform="rotate(45)" d="m99.152 67.726a2.2402 2.2402 0 0 1-1.1201 1.9401 2.2402 2.2402 0 0 1-2.2402 0 2.2402 2.2402 0 0 1-1.1201-1.9401" style="paint-order:normal"/>
    <path transform="rotate(45)" d="m132.08 67.726a2.2402 2.2402 0 0 1-1.1201 1.9401 2.2402 2.2402 0 0 1-2.2402 0 2.2402 2.2402 0 0 1-1.1201-1.9401" style="paint-order:normal"/>
    <path transform="rotate(45)" d="m165.01 67.726a2.2402 2.2402 0 0 1-1.1201 1.9401 2.2402 2.2402 0 0 1-2.2402-1e-6 2.2402 2.2402 0 0 1-1.1201-1.9401" style="paint-order:normal"/>
    <path transform="rotate(-45)" d="m-49.022 179.23a2.2402 2.2402 0 0 1-1.1201 1.9401 2.2402 2.2402 0 0 1-2.2402 0 2.2402 2.2402 0 0 1-1.1201-1.9401" style="paint-order:normal"/>
    <path transform="rotate(-45)" d="m-16.095 179.23a2.2402 2.2402 0 0 1-1.1201 1.9401 2.2402 2.2402 0 0 1-2.2402 0 2.2402 2.2402 0 0 1-1.1201-1.9401" style="paint-order:normal"/>
    <path transform="rotate(-45)" d="m16.833 179.23a2.2402 2.2402 0 0 1-1.1201 1.94 2.2402 2.2402 0 0 1-2.2402 0 2.2402 2.2402 0 0 1-1.1201-1.94" style="paint-order:normal"/>
    <path transform="rotate(225)" d="m-160.53 31.057a2.2402 2.2402 0 0 1-1.1201 1.9401 2.2402 2.2402 0 0 1-2.2402 0 2.2402 2.2402 0 0 1-1.1201-1.9401" style="paint-order:normal"/>
    <path transform="rotate(225)" d="m-127.6 31.057a2.2402 2.2402 0 0 1-1.1201 1.9401 2.2402 2.2402 0 0 1-2.2402 0 2.2402 2.2402 0 0 1-1.1201-1.9401" style="paint-order:normal"/>
    <path transform="rotate(225)" d="m-94.672 31.057a2.2402 2.2402 0 0 1-1.1201 1.9401 2.2402 2.2402 0 0 1-2.2402 0 2.2402 2.2402 0 0 1-1.1201-1.9401" style="paint-order:normal"/>
    <path transform="rotate(135)" d="m-12.353-80.448a2.2402 2.2402 0 0 1-1.1201 1.9401 2.2402 2.2402 0 0 1-2.2402 0 2.2402 2.2402 0 0 1-1.1201-1.9401" style="paint-order:normal"/>
    <path transform="rotate(135)" d="m20.575-80.448a2.2402 2.2402 0 0 1-1.1201 1.9401 2.2402 2.2402 0 0 1-2.2402 0 2.2402 2.2402 0 0 1-1.1201-1.9401" style="paint-order:normal"/>
    <path transform="rotate(135)" d="m53.502-80.448a2.2402 2.2402 0 0 1-1.1201 1.9401 2.2402 2.2402 0 0 1-2.2402 0 2.2402 2.2402 0 0 1-1.1201-1.9401" style="paint-order:normal"/>
   </g>
   <g fill="#fff" fill-opacity=".18785" stroke="#fff" stroke-linejoin="round" stroke-opacity=".75691" stroke-width=".794">
    <path d="m32.279 81.492v46.567l46.567-46.567z" style="paint-order:normal"/>
    <path d="m102.13 104.78 23.283-23.283 23.283 23.283-23.283 23.283z" style="paint-order:normal"/>
    <path d="m32.279 81.492 46.567-46.567 46.567 46.567z" style="paint-order:normal"/>
    <path d="m8.9958 104.78 23.283-23.283v46.567z" style="paint-order:normal"/>
    <path d="m32.279 128.06 46.567-46.567 46.567 46.567z" style="paint-order:normal"/>
    <path d="m125.41 128.06-46.567 46.567-46.567-46.567z" style="paint-order:normal"/>
    <path d="m102.13 104.78-23.283-23.283h46.567z" style="paint-order:normal"/>
   </g>
   <g fill-opacity=".11055" stroke="#fff" stroke-dasharray="3.00000012, 0.50000002" stroke-linejoin="round" stroke-opacity=".73869" stroke-width=".5">
    <g transform="rotate(-45)" dominant-baseline="auto" style="font-feature-settings:normal;font-variant-alternates:normal;font-variant-caps:normal;font-variant-ligatures:normal;font-variant-numeric:normal;font-variant-position:normal;shape-padding:0;text-decoration-color:#000000;text-decoration-line:none;text-decoration-style:solid;text-indent:0;text-orientation:mixed;text-transform:none;white-space:normal" aria-label="2">
     <path d="m-23.467 128.2v-0.82973q0-0.5334 0.19756-0.98778 0.21731-0.47413 0.55316-0.82973 0.3556-0.3556 0.82973-0.55316 0.47413-0.19755 1.0075-0.19755h1.5409q0.5334 0 0.98778 0.19755 0.47413 0.19756 0.80998 0.55316 0.3556 0.3556 0.55316 0.82973 0.21731 0.45438 0.21731 0.98778v2.2719q0 0.90875-0.47413 1.5804-0.45438 0.65194-1.1656 1.1656l-2.4694 1.699q-0.37536 0.25682-0.65193 0.59267-0.27658 0.31608-0.27658 0.80997v2.6472h4.9191v1.6002h-6.6576v-4.1882q0-0.90876 0.45438-1.5804 0.47413-0.67169 1.1853-1.1853l2.4694-1.6792q0.37536-0.25682 0.65193-0.59267 0.29633-0.33584 0.29633-0.80997v-2.3312q0-0.37536-0.27658-0.63218-0.25682-0.27658-0.65193-0.27658h-1.4026q-0.37536 0-0.65193 0.27658-0.25682 0.25682-0.25682 0.63218v0.82973z" dominant-baseline="auto" fill-opacity=".11055" stroke="#fff" stroke-dasharray="3.00000012, 0.50000002" stroke-linejoin="round" stroke-opacity=".73869" stroke-width=".5" style="font-feature-settings:normal;font-variant-alternates:normal;font-variant-caps:normal;font-variant-ligatures:normal;font-variant-numeric:normal;font-variant-position:normal;shape-padding:0;text-decoration-color:#000000;text-decoration-line:none;text-decoration-style:solid;text-indent:0;text-orientation:mixed;text-transform:none;white-space:normal"/>
    </g>
    <g transform="rotate(-45)" dominant-baseline="auto" style="font-feature-settings:normal;font-variant-alternates:normal;font-variant-caps:normal;font-variant-ligatures:normal;font-variant-numeric:normal;font-variant-position:normal;shape-padding:0;text-decoration-color:#000000;text-decoration-line:none;text-decoration-style:solid;text-indent:0;text-orientation:mixed;text-transform:none;white-space:normal" aria-label="3">
     <path d="m15.062 99.562q0.31609 0 0.5334-0.21731t0.21731-0.5334v-3.1806q0-0.31609-0.21731-0.5334-0.21731-0.21731-0.5334-0.21731h-2.0743q-0.31609 0-0.5334 0.21731-0.21731 0.21731-0.21731 0.5334v1.047h-1.6595v-0.98778q0-0.49389 0.1778-0.92851 0.19756-0.45438 0.51364-0.77047 0.33584-0.33584 0.77047-0.51364 0.45438-0.19756 0.94827-0.19756h2.1336q0.49389 0 0.92851 0.19756 0.45438 0.1778 0.77047 0.51364 0.33584 0.31609 0.5334 0.77047 0.19756 0.43462 0.19756 0.92851v3.0819q0 0.41487-0.13829 0.77047-0.13829 0.33584-0.37536 0.67168 0.3556 0.37536 0.55316 0.79023 0.19756 0.41486 0.19756 0.92851v3.8721q0 0.49388-0.19756 0.94826-0.1778 0.43462-0.51364 0.77047-0.31609 0.31609-0.77047 0.51364-0.43462 0.1778-0.92851 0.1778h-2.3509q-0.49389 0-0.94827-0.1778-0.43462-0.19755-0.77047-0.51364-0.31609-0.33585-0.51364-0.77047-0.1778-0.45438-0.1778-0.94826v-0.98778h1.6595v1.047q0 0.31609 0.21731 0.5334t0.5334 0.21731h2.2719q0.31609 0 0.5334-0.21731t0.21731-0.5334v-3.9511q0-0.31609-0.21731-0.5334t-0.5334-0.21731h-2.1336v-1.6002z" dominant-baseline="auto" fill-opacity=".11055" stroke="#fff" stroke-dasharray="3.00000012, 0.50000002" stroke-linejoin="round" stroke-opacity=".73869" stroke-width=".5" style="font-feature-settings:normal;font-variant-alternates:normal;font-variant-caps:normal;font-variant-ligatures:normal;font-variant-numeric:normal;font-variant-position:normal;shape-padding:0;text-decoration-color:#000000;text-decoration-line:none;text-decoration-style:solid;text-indent:0;text-orientation:mixed;text-transform:none;white-space:normal"/>
    </g>
    <g transform="rotate(-45)" dominant-baseline="auto" style="font-feature-settings:normal;font-variant-alternates:normal;font-variant-caps:normal;font-variant-ligatures:normal;font-variant-numeric:normal;font-variant-position:normal;shape-padding:0;text-decoration-color:#000000;text-decoration-line:none;text-decoration-style:solid;text-indent:0;text-orientation:mixed;text-transform:none;white-space:normal" aria-label="4">
     <path d="m-34.883 92.905-2.0151 8.7122h3.714v-8.7122h1.7187v8.7122h0.51364v1.6002h-0.51364v4.6228h-1.7187v-4.6228h-5.9069l2.4299-10.312h1.778z" dominant-baseline="auto" fill-opacity=".11055" stroke="#fff" stroke-dasharray="3.00000012, 0.50000002" stroke-linejoin="round" stroke-opacity=".73869" stroke-width=".5" style="font-feature-settings:normal;font-variant-alternates:normal;font-variant-caps:normal;font-variant-ligatures:normal;font-variant-numeric:normal;font-variant-position:normal;shape-padding:0;text-decoration-color:#000000;text-decoration-line:none;text-decoration-style:solid;text-indent:0;text-orientation:mixed;text-transform:none;white-space:normal"/>
    </g>
    <g transform="rotate(-45)" dominant-baseline="auto" style="font-feature-settings:normal;font-variant-alternates:normal;font-variant-caps:normal;font-variant-ligatures:normal;font-variant-numeric:normal;font-variant-position:normal;shape-padding:0;text-decoration-color:#000000;text-decoration-line:none;text-decoration-style:solid;text-indent:0;text-orientation:mixed;text-transform:none;white-space:normal" aria-label="1">
     <path d="m-45.833 165.93h-1.7385v-13.335h-0.51364v-1.6002h2.2521v14.935z" dominant-baseline="auto" fill-opacity=".11055" stroke="#fff" stroke-dasharray="3.00000012, 0.50000002" stroke-linejoin="round" stroke-opacity=".73869" stroke-width=".5" style="font-feature-settings:normal;font-variant-alternates:normal;font-variant-caps:normal;font-variant-ligatures:normal;font-variant-numeric:normal;font-variant-position:normal;shape-padding:0;text-decoration-color:#000000;text-decoration-line:none;text-decoration-style:solid;text-indent:0;text-orientation:mixed;text-transform:none;white-space:normal"/>
    </g>
    <g transform="rotate(-45)" dominant-baseline="auto" style="font-feature-settings:normal;font-variant-alternates:normal;font-variant-caps:normal;font-variant-ligatures:normal;font-variant-numeric:normal;font-variant-position:normal;shape-padding:0;text-decoration-color:#000000;text-decoration-line:none;text-decoration-style:solid;text-indent:0;text-orientation:mixed;text-transform:none;white-space:normal" aria-label="7">
     <path d="m12.944 170.8h-1.857l4.9982-13.335h-4.1289v1.8768h-1.6595v-3.477h8.2776l-5.6303 14.935z" dominant-baseline="auto" fill-opacity=".11055" stroke="#fff" stroke-dasharray="3.00000012, 0.50000002" stroke-linejoin="round" stroke-opacity=".73869" stroke-width=".5" style="font-feature-settings:normal;font-variant-alternates:normal;font-variant-caps:normal;font-variant-ligatures:normal;font-variant-numeric:normal;font-variant-position:normal;shape-padding:0;text-decoration-color:#000000;text-decoration-line:none;text-decoration-style:solid;text-indent:0;text-orientation:mixed;text-transform:none;white-space:normal"/>
    </g>
    <g transform="rotate(-45)" dominant-baseline="auto" style="font-feature-settings:normal;font-variant-alternates:normal;font-variant-caps:normal;font-variant-ligatures:normal;font-variant-numeric:normal;font-variant-position:normal;shape-padding:0;text-decoration-color:#000000;text-decoration-line:none;text-decoration-style:solid;text-indent:0;text-orientation:mixed;text-transform:none;white-space:normal" aria-label="5">
     <path d="m5.9137 129.77-0.69144 4.6821h2.7263q0.49389 0 0.92851 0.19755 0.45438 0.1778 0.79022 0.51365 0.33584 0.31609 0.51364 0.77047 0.19756 0.43462 0.19756 0.92851v3.8326q0 0.49389-0.19756 0.94827-0.1778 0.43462-0.51364 0.77047-0.33584 0.31609-0.79022 0.51364-0.43462 0.1778-0.92851 0.1778h-2.3509q-0.49389 0-0.94827-0.1778-0.43462-0.19755-0.77047-0.51364-0.31609-0.33585-0.51364-0.77047-0.1778-0.45438-0.1778-0.94827v-0.98777h1.7385v1.047q0 0.31609 0.21731 0.5334t0.5334 0.21731h2.2126q0.31609 0 0.5334-0.21731 0.21731-0.21731 0.21731-0.5334v-3.9511q0-0.31609-0.21731-0.5334-0.21731-0.21731-0.5334-0.21731h-4.6623l1.1853-7.8825h5.5711v1.6002z" dominant-baseline="auto" fill-opacity=".11055" stroke="#fff" stroke-dasharray="3.00000012, 0.50000002" stroke-linejoin="round" stroke-opacity=".73869" stroke-width=".5" style="font-feature-settings:normal;font-variant-alternates:normal;font-variant-caps:normal;font-variant-ligatures:normal;font-variant-numeric:normal;font-variant-position:normal;shape-padding:0;text-decoration-color:#000000;text-decoration-line:none;text-decoration-style:solid;text-indent:0;text-orientation:mixed;text-transform:none;white-space:normal"/>
    </g>
    <g transform="rotate(-45)" dominant-baseline="auto" style="font-feature-settings:normal;font-variant-alternates:normal;font-variant-caps:normal;font-variant-ligatures:normal;font-variant-numeric:normal;font-variant-position:normal;shape-padding:0;text-decoration-color:#000000;text-decoration-line:none;text-decoration-style:solid;text-indent:0;text-orientation:mixed;text-transform:none;white-space:normal" aria-label="6">
     <path d="m-57.449 89.646q0.49389 0 0.92851 0.19756 0.45438 0.1778 0.77047 0.51364 0.33584 0.33584 0.51364 0.79022 0.19756 0.43462 0.19756 0.92851v3.8128q0 0.49389-0.19756 0.94827-0.1778 0.43462-0.51364 0.77047-0.31609 0.31609-0.77047 0.51364-0.43462 0.1778-0.92851 0.1778h-2.0348q-0.51364 0-0.94827-0.1778-0.43462-0.19756-0.77047-0.51364-0.33584-0.33584-0.5334-0.77047-0.1778-0.45438-0.1778-0.94827v-10.095q0-0.49389 0.1778-0.92851 0.19756-0.45438 0.5334-0.77047 0.33584-0.33584 0.77047-0.5334 0.43462-0.19756 0.94827-0.19756h1.9558q0.49389 0 0.92851 0.19756 0.45438 0.19756 0.79022 0.5334 0.33584 0.31609 0.51364 0.77047 0.19756 0.43462 0.19756 0.92851v0.96802h-1.7385v-1.0273q0-0.27658-0.21731-0.51364-0.21731-0.25682-0.5334-0.25682h-1.8373q-0.31609 0-0.5334 0.23707-0.21731 0.21731-0.21731 0.5334v3.9116zm-2.7263 6.302q0 0.29633 0.21731 0.5334 0.21731 0.21731 0.5334 0.21731h1.8965q0.29633 0 0.51364-0.21731 0.23707-0.21731 0.23707-0.5334v-3.9511q0-0.29633-0.21731-0.51364-0.19756-0.23707-0.5334-0.23707h-2.6472z" dominant-baseline="auto" fill-opacity=".11055" stroke="#fff" stroke-dasharray="3.00000012, 0.50000002" stroke-linejoin="round" stroke-opacity=".73869" stroke-width=".5" style="font-feature-settings:normal;font-variant-alternates:normal;font-variant-caps:normal;font-variant-ligatures:normal;font-variant-numeric:normal;font-variant-position:normal;shape-padding:0;text-decoration-color:#000000;text-decoration-line:none;text-decoration-style:solid;text-indent:0;text-orientation:mixed;text-transform:none;white-space:normal"/>
    </g>
   </g>
  </g>
 </g>
</svg>
