<svg viewBox="0 0 800 800" xmlns="http://www.w3.org/2000/svg" fill-rule="evenodd" clip-rule="evenodd" stroke-miterlimit="5.5"><path fill="none" stroke="#000" stroke-width="3" stroke-dasharray="0,3,3,3" d="M100 100h600v600H100z"/><path d="M100 100h100M300 100h200.04M600 100v100h-99.96M400.01 200L400 400M300 200H200v100M300 300v200h100l.01 100M300 600v100h200.04M200 700H100V500M100 200v200h100M200 500v100M500.04 600V400M600 600h100M700 500v200M600 500V300h-99.96M700 400V200" fill="none" stroke="#000" stroke-width="6"/><circle cx="-106.3" cy="209.5" r="13.5" fill="none" stroke="#000" stroke-width="3" transform="translate(256.3 -59.5)"/><circle cx="-106.3" cy="209.5" r="13.5" fill="none" stroke="#000" stroke-width="3" transform="translate(356.3 -59.5)"/><circle cx="-106.3" cy="209.5" r="13.5" fill="none" stroke="#000" stroke-width="3" transform="translate(456.3 -59.5)"/><circle cx="-106.3" cy="209.5" r="13.5" fill="none" stroke="#000" stroke-width="3" transform="translate(556.3 -59.5)"/><circle cx="-106.3" cy="209.5" r="13.5" fill="none" stroke="#000" stroke-width="3" transform="translate(656.3 -59.5)"/><circle cx="-106.3" cy="209.5" r="13.5" fill="none" stroke="#000" stroke-width="3" transform="translate(756.3 -59.5)"/><g><circle cx="-106.3" cy="209.5" r="13.5" fill="none" stroke="#000" stroke-width="3" transform="translate(256.3 40.5)"/><circle cx="-106.3" cy="209.5" r="13.5" fill="none" stroke="#000" stroke-width="3" transform="translate(356.3 40.5)"/><circle cx="-106.3" cy="209.5" r="13.5" fill="none" stroke="#000" stroke-width="3" transform="translate(456.3 40.5)"/><circle cx="-106.3" cy="209.5" r="13.5" fill="none" stroke="#000" stroke-width="3" transform="translate(556.3 40.5)"/><circle cx="-106.3" cy="209.5" r="13.5" fill="none" stroke="#000" stroke-width="3" transform="translate(656.3 40.5)"/><circle cx="-106.3" cy="209.5" r="13.5" fill="none" stroke="#000" stroke-width="3" transform="translate(756.3 40.5)"/></g><g><circle cx="-106.3" cy="209.5" r="13.5" fill="none" stroke="#000" stroke-width="3" transform="translate(256.3 140.5)"/><circle cx="-106.3" cy="209.5" r="13.5" fill="none" stroke="#000" stroke-width="3" transform="translate(356.3 140.5)"/><circle cx="-106.3" cy="209.5" r="13.5" fill="none" stroke="#000" stroke-width="3" transform="translate(456.3 140.5)"/><circle cx="-106.3" cy="209.5" r="13.5" fill="none" stroke="#000" stroke-width="3" transform="translate(556.3 140.5)"/><circle cx="-106.3" cy="209.5" r="13.5" fill="none" stroke="#000" stroke-width="3" transform="translate(656.3 140.5)"/><circle cx="-106.3" cy="209.5" r="13.5" fill="none" stroke="#000" stroke-width="3" transform="translate(756.3 140.5)"/></g><g><circle cx="-106.3" cy="209.5" r="13.5" fill="none" stroke="#000" stroke-width="3" transform="translate(256.3 240.5)"/><circle cx="-106.3" cy="209.5" r="13.5" fill="none" stroke="#000" stroke-width="3" transform="translate(356.3 240.5)"/><circle cx="-106.3" cy="209.5" r="13.5" fill="none" stroke="#000" stroke-width="3" transform="translate(456.3 240.5)"/><circle cx="-106.3" cy="209.5" r="13.5" fill="none" stroke="#000" stroke-width="3" transform="translate(556.3 240.5)"/><circle cx="-106.3" cy="209.5" r="13.5" fill="none" stroke="#000" stroke-width="3" transform="translate(656.3 240.5)"/><circle cx="-106.3" cy="209.5" r="13.5" fill="none" stroke="#000" stroke-width="3" transform="translate(756.3 240.5)"/></g><g><circle cx="-106.3" cy="209.5" r="13.5" fill="none" stroke="#000" stroke-width="3" transform="translate(256.3 340.5)"/><circle cx="-106.3" cy="209.5" r="13.5" fill="none" stroke="#000" stroke-width="3" transform="translate(356.3 340.5)"/><circle cx="-106.3" cy="209.5" r="13.5" fill="none" stroke="#000" stroke-width="3" transform="translate(456.3 340.5)"/><circle cx="-106.3" cy="209.5" r="13.5" fill="none" stroke="#000" stroke-width="3" transform="translate(556.3 340.5)"/><circle cx="-106.3" cy="209.5" r="13.5" fill="none" stroke="#000" stroke-width="3" transform="translate(656.3 340.5)"/><circle cx="-106.3" cy="209.5" r="13.5" fill="none" stroke="#000" stroke-width="3" transform="translate(756.3 340.5)"/></g><g><circle cx="-106.3" cy="209.5" r="13.5" fill="none" stroke="#000" stroke-width="3" transform="translate(256.3 440.5)"/><circle cx="-106.3" cy="209.5" r="13.5" fill="none" stroke="#000" stroke-width="3" transform="translate(356.3 440.5)"/><circle cx="-106.3" cy="209.5" r="13.5" fill="none" stroke="#000" stroke-width="3" transform="translate(456.3 440.5)"/><circle cx="-106.3" cy="209.5" r="13.5" fill="none" stroke="#000" stroke-width="3" transform="translate(556.3 440.5)"/><circle cx="-106.3" cy="209.5" r="13.5" fill="none" stroke="#000" stroke-width="3" transform="translate(656.3 440.5)"/><circle cx="-106.3" cy="209.5" r="13.5" fill="none" stroke="#000" stroke-width="3" transform="translate(756.3 440.5)"/></g></svg>