<svg width="85.02" height="40.14" viewBox="0 0 22.49 10.62" xmlns="http://www.w3.org/2000/svg"><path d="M11.25 10.57l.08-.15.1-.13.1-.12.1-.15.08-.13.1-.12.18-.26.1-.1.26-.39.1-.1.09-.13.08-.1.09-.11.08-.13.1-.1.1-.1.59-.75.08-.08.17-.22.08-.08.09-.1.17-.18.08-.1.17-.17.07-.09.42-.42.06-.08.26-.26.08-.06.06-.09.09-.08.08-.06.07-.09.08-.06.09-.09.08-.06.06-.08.09-.07.15-.15.17-.14.15-.13.16-.15.15-.13.17-.14.15-.13.17-.15.34-.25.17-.15.15-.13.33-.25.2-.15.5-.38.2-.15.16-.13.2-.12.16-.13.2-.15.37-.25.09-.09.08-.06.1-.07.1-.06.1-.06.1-.09.09-.06.1-.06.1-.07.1-.08.1-.07.09-.06.1-.08.1-.07.11-.06.11-.09.08-.06.11-.08.1-.07.11-.08.1-.07.11-.08h-7.51l-3.68 3.7L7.56.05H.05l.1.08.11.07.1.08.11.07.1.08.1.06.1.09.21.13.1.08.1.06.1.07.1.08.09.07.1.06.09.06.1.09.11.06.08.06.11.07.09.06.08.09.38.25.2.15.16.13.2.12.16.13.2.15.5.38.19.15.34.25.15.13.17.15.33.25.17.15.15.13.17.14.15.13.17.15.15.13.17.14.14.15.09.07.06.08.09.06.08.09.09.06.06.09.08.06.09.08.06.09.09.06.25.26.07.08.42.42.06.09.17.17.09.1.17.17.08.11.08.08.09.11.08.1.09.1.08.1.26.31.25.32.09.1.1.11.09.13.08.1.09.11.08.13.1.1.26.39.1.1.18.26.1.12.09.13.1.15.09.12.1.13.09.15" fill="none" stroke="#000" stroke-linecap="round" stroke-linejoin="round" stroke-miterlimit="10" stroke-width=".1"/></svg>