<svg xmlns="http://www.w3.org/2000/svg" viewBox="0 0 200 200"><path fill="#cccce6" d="m23.73 13.92-9.8 9.81 9.8 9.82 9.82-9.82-9.82-9.8zm30.47 0-9.81 9.81 9.8 9.82 9.82-9.82-9.81-9.8zm30.46 0-9.8 9.81 9.8 9.82 9.81-9.82-9.8-9.8zm30.47 0-9.81 9.81 9.8 9.82 9.82-9.82-9.81-9.8zm30.46 0-9.8 9.81 9.8 9.82 9.81-9.82-9.8-9.8zm30.47 0-9.81 9.81 9.8 9.82 9.82-9.82-9.81-9.8zM23.73 44.4l-9.8 9.8 9.8 9.82 9.82-9.81-9.82-9.81zm30.47 0-9.81 9.8 9.8 9.82 9.82-9.81-9.81-9.81zm30.46 0-9.8 9.8 9.8 9.82 9.81-9.81-9.8-9.81zm30.47 0-9.81 9.8 9.8 9.82 9.82-9.81-9.81-9.81zm30.46 0-9.8 9.8 9.8 9.82 9.81-9.81-9.8-9.81zm30.47 0-9.81 9.8 9.8 9.82 9.82-9.81-9.81-9.81zM23.73 74.85l-9.8 9.81 9.8 9.81 9.82-9.8-9.82-9.82zm30.47 0-9.81 9.81 9.8 9.81 9.82-9.8-9.81-9.82zm30.46 0-9.8 9.81 9.8 9.81 9.81-9.8-9.8-9.82zm30.47 0-9.81 9.81 9.8 9.81 9.82-9.8-9.81-9.82zm30.46 0-9.8 9.81 9.8 9.81 9.81-9.8-9.8-9.82zm30.47 0-9.81 9.81 9.8 9.81 9.82-9.8-9.81-9.82zM23.73 105.32l-9.8 9.8 9.8 9.82 9.82-9.81-9.82-9.81zm30.47 0-9.81 9.8 9.8 9.82 9.82-9.81-9.81-9.81zm30.46 0-9.8 9.8 9.8 9.82 9.81-9.81-9.8-9.81zm30.47 0-9.81 9.8 9.8 9.82 9.82-9.81-9.81-9.81zm30.46 0-9.8 9.8 9.8 9.82 9.81-9.81-9.8-9.81zm30.47 0-9.81 9.8 9.8 9.82 9.82-9.81-9.81-9.81zM23.73 135.78l-9.8 9.81 9.8 9.81 9.82-9.8-9.82-9.82zm30.47 0-9.81 9.81 9.8 9.81 9.82-9.8-9.81-9.82zm30.46 0-9.8 9.81 9.8 9.81 9.81-9.8-9.8-9.82zm30.47 0-9.81 9.81 9.8 9.81 9.82-9.8-9.81-9.82zm30.46 0-9.8 9.81 9.8 9.81 9.81-9.8-9.8-9.82zm30.47 0-9.81 9.81 9.8 9.81 9.82-9.8-9.81-9.82zM23.73 166.25l-9.8 9.8 9.8 9.82 9.82-9.81-9.82-9.81zm30.47 0-9.81 9.8 9.8 9.82 9.82-9.81-9.81-9.81zm30.46 0-9.8 9.8 9.8 9.82 9.81-9.81-9.8-9.81zm30.47 0-9.81 9.8 9.8 9.82 9.82-9.81-9.81-9.81zm30.46 0-9.8 9.8 9.8 9.82 9.81-9.81-9.8-9.81zm30.47 0-9.81 9.8 9.8 9.82 9.82-9.81-9.81-9.81z"/><path fill="#fc0" d="M23.73 8.9 8.9 23.73l14.83 14.84 14.84-14.84L23.73 8.9zm0 2.57L36 23.73 23.73 36 11.47 23.73l12.26-12.26z"/><path fill="#2a7fff" d="m145.6 8.9-14.84 14.83 14.83 14.84 14.84-14.84L145.59 8.9zm0 2.57 12.25 12.26L145.6 36l-12.26-12.27 12.26-12.26z"/><path fill="red" d="M23.73 39.37 8.9 54.2l14.83 14.83L38.57 54.2 23.73 39.37zm0 2.57L36 54.2 23.73 66.46 11.47 54.2l12.26-12.26zm60.93-2.57L69.83 54.2l14.83 14.83L99.5 54.2 84.66 39.37zm0 2.57L96.93 54.2 84.66 66.46 72.4 54.2l12.26-12.26z"/><path fill="#0f0" d="M115.13 39.37 100.29 54.2l14.84 14.83 14.83-14.83-14.83-14.83zm0 2.57 12.26 12.26-12.26 12.26-12.27-12.26 12.27-12.26z"/><path fill="#2a7fff" d="M145.6 39.37 130.75 54.2l14.83 14.83 14.84-14.83-14.84-14.83zm0 2.57 12.25 12.26-12.26 12.26-12.26-12.26 12.26-12.26z"/><path fill="#0f0" d="M84.66 69.83 69.83 84.66 84.66 99.5 99.5 84.66 84.66 69.83zm0 2.57 12.27 12.26-12.27 12.27L72.4 84.66 84.66 72.4z"/><path fill="#2a7fff" d="m115.13 69.83-14.84 14.83 14.84 14.84 14.83-14.84-14.83-14.83zm0 2.57 12.26 12.26-12.26 12.27-12.27-12.27 12.27-12.26z"/><path fill="red" d="m176.06 69.83-14.84 14.83 14.84 14.84 14.83-14.84-14.83-14.83zm0 2.57 12.26 12.26-12.26 12.27-12.27-12.27 12.27-12.26z"/><path fill="#fc0" d="M23.73 100.3 8.9 115.12l14.83 14.83 14.84-14.83-14.84-14.84zm0 2.56L36 115.13l-12.27 12.26-12.26-12.26 12.26-12.27z"/><path fill="#2a7fff" d="m115.13 100.3-14.84 14.83 14.84 14.83 14.83-14.83-14.83-14.84zm0 2.56 12.26 12.27-12.26 12.26-12.27-12.26 12.27-12.27z"/><path fill="#fc0" d="m176.06 100.3-14.84 14.83 14.84 14.83 14.83-14.83-14.83-14.84zm0 2.56 12.26 12.27-12.26 12.26-12.27-12.26 12.27-12.27z"/><path fill="#0f0" d="M23.73 130.76 8.9 145.59l14.83 14.84 14.84-14.84-14.84-14.83zm0 2.57L36 145.59l-12.27 12.26-12.26-12.26 12.26-12.26z"/><path fill="#fc0" d="m84.66 130.76-14.83 14.83 14.83 14.84 14.84-14.84-14.84-14.83zm0 2.57 12.27 12.26-12.27 12.26L72.4 145.6l12.26-12.26z"/><path fill="#0f0" d="m176.06 161.22-14.84 14.84 14.84 14.83 14.83-14.83-14.83-14.84zm0 2.57 12.26 12.27-12.26 12.26-12.27-12.26 12.27-12.27z"/><rect width="192.32" height="192.32" x="3.84" y="3.84" fill="none" stroke="#000" stroke-width="1.92" ry="5.69"/><path fill="red" d="m145.66 69.83-14.83 14.83 14.83 14.84 14.84-14.84Zm0 2.57 12.27 12.26-12.27 12.27-12.26-12.27z"/></svg>