<svg xmlns="http://www.w3.org/2000/svg" viewBox="0 0 16.93 16.93"><g stroke="#222" stroke-linecap="round" stroke-linejoin="round" stroke-width=".13"><path fill="none" d="m7.14 4.65 1.33.76v1.53l-1.33.76-1.32-.76V5.4zm2.65 0 1.32.76v1.53L9.8 7.7l-1.32-.76V5.4zM8.47 6.94l1.32.76v1.53l-1.32.76-1.33-.76V7.7z"/><path fill="none" d="m11.11 6.94 1.33.76v1.53l-1.33.76-1.32-.76V7.7z"/><path fill="none" d="m9.79 9.23 1.32.76v1.53l-1.32.77-1.32-.77V10z"/><path fill="none" d="M5.82 11.52V10l1.32-.76 1.33.76v1.53l-1.33.77zM4.5 9.23V7.7l1.32-.76 1.32.76v1.53l-1.32.76z"/><path fill="#0ff" d="m10.12 5.6-.66 1.15m0-.38v.38m.33-.19-.33.19M11.77 8.47h-1.32m.33-.19-.33.19m.33.19-.33-.2M10.12 11.33l-.66-1.14m.33.19-.33-.2m0 .39v-.38M6.81 11.33l.66-1.14m0 .38v-.38m-.33.19.33-.2M5.16 8.47h1.32m-.33.19.33-.2m-.33-.18.33.19M6.81 5.6l.66 1.15m-.33-.19.33.19m0-.38v.38"/><circle cx="8.47" cy="8.47" r=".66" fill="none"/></g></svg>