<svg xmlns="http://www.w3.org/2000/svg" fill="none" viewBox="0 0 348 348"><path stroke="#000" stroke-width="2" d="M5.079 5.776h336.913v337.67H5.08z"/><path stroke="#000" stroke-width="2" d="M282.734 40.554c0-8.376 6.966-15.165 15.56-15.165 4.126 0 8.084 1.597 11.001 4.441 2.918 2.844 4.558 6.702 4.558 10.724 0 8.376-6.966 15.165-15.56 15.165-8.593 0-15.559-6.79-15.559-15.165z"/><path d="M17.968 80.624h45.39v45.391h-45.39z" fill="#00000f" stroke="#000" stroke-width="1.849"/><path d="M277.223 276.826h55.054v55.054h-55.054zM277.223 211.772h55.054v55.054h-55.054z" fill="#fff" stroke="#000" stroke-width="2.242"/><path d="M69.434 80.624h45.39v45.391h-45.39zM120.9 80.624h45.39v45.391h-45.39zM172.366 80.624h45.391v45.391h-45.39zM223.832 80.624h45.391v45.391h-45.39zM17.968 132.09h45.39v45.391h-45.39zM69.434 132.09h45.39v45.391h-45.39zM120.9 132.09h45.39v45.391h-45.39zM172.366 132.09h45.391v45.391h-45.39zM223.832 132.09h45.391v45.391h-45.39zM17.968 183.557h45.39v45.39h-45.39zM69.434 183.557h45.39v45.39h-45.39zM120.9 183.557h45.39v45.39h-45.39zM172.366 183.557h45.391v45.39h-45.39zM223.832 183.557h45.391v45.39h-45.39zM17.968 235.023h45.39v45.39h-45.39zM69.434 235.023h45.39v45.39h-45.39z" fill="#00000f" stroke="#000" stroke-width="1.849"/><path d="M120.9 235.023h45.39v45.39h-45.39zM172.366 235.023h45.391v45.39h-45.39zM223.832 235.023h45.391v45.39h-45.39zM17.968 286.489h45.39v45.39h-45.39zM69.434 286.489h45.39v45.39h-45.39zM120.9 286.489h45.39v45.39h-45.39z" fill="#000" stroke="#000" stroke-width="1.849"/><path d="M172.366 286.489h45.391v45.39h-45.39zM223.832 286.489h45.391v45.39h-45.39z" fill="#00000f" stroke="#000" stroke-width="1.849"/><path d="M290.102 323.21l-.495-37.817 32.998 18.48z" fill="#000" stroke="#000" stroke-width="2.435"/></svg>