<svg xmlns="http://www.w3.org/2000/svg" width="600" height="500" version="1"><g fill-rule="evenodd"><path d="M325 210a25 25 0 11-50 0 25 25 0 1150 0z"/><rect width="70" height="160" x="265" y="240" rx="20" ry="21.333"/></g><rect width="70" height="20" x="60.711" y="414.264" fill-rule="evenodd" rx="10" ry="10" transform="rotate(-45)"/><path fill-rule="evenodd" stroke="#000" d="M381.82 211.109L523.242 69.688l7.07 7.07-141.42 141.422z"/><path fill="#ff0" fill-rule="evenodd" d="M530.312 204.038l-63.64-63.64 63.64-63.64 63.64 63.64-63.64 63.64z"/><path fill="red" fill-rule="evenodd" d="M466.673 140.398l63.64-63.64 63.639 63.64h-127.28z"/><path fill="none" stroke="#000" stroke-linejoin="round" d="M530.312 204.038l-63.64-63.64 63.64-63.64 63.64 63.64-63.64 63.64z"/><rect width="70" height="20" x="-363.553" y="-10" fill-rule="evenodd" rx="10" ry="10" transform="rotate(-135)"/><path fill-rule="evenodd" stroke="#000" d="M211.109 218.18L69.688 76.759l7.07-7.071 141.422 141.42z"/><path fill="#ff0" fill-rule="evenodd" d="M69.688 204.038l-63.64-63.64 63.64-63.64 63.64 63.64-63.64 63.64z"/><path fill="red" fill-rule="evenodd" d="M6.048 140.398l63.64-63.64 63.64 63.64H6.047z"/><path fill="none" stroke="#000" stroke-linejoin="round" d="M69.688 204.038l-63.64-63.64 63.64-63.64 63.64 63.64-63.64 63.64z"/></svg>