<?xml version="1.0" encoding="UTF-8" standalone="no"?>
<svg
   xmlns:dc="http://purl.org/dc/elements/1.1/"
   xmlns:cc="http://creativecommons.org/ns#"
   xmlns:rdf="http://www.w3.org/1999/02/22-rdf-syntax-ns#"
   xmlns:svg="http://www.w3.org/2000/svg"
   xmlns="http://www.w3.org/2000/svg"
   xmlns:sodipodi="http://sodipodi.sourceforge.net/DTD/sodipodi-0.dtd"
   xmlns:inkscape="http://www.inkscape.org/namespaces/inkscape"
   width="600"
   height="500"
   version="1"
   id="svg28"
   sodipodi:docname="Semaphore_Kilo.svg"
   inkscape:export-filename="C:\Users\Quinn\Desktop\KTaNE Mods\Encryption Lingo\Assets\Textures\Semaphore\Semaphore_Kilo.png"
   inkscape:export-xdpi="128"
   inkscape:export-ydpi="128"
   inkscape:version="1.0.2-2 (e86c870879, 2021-01-15)">
  <metadata
     id="metadata34">
    <rdf:RDF>
      <cc:Work
         rdf:about="">
        <dc:format>image/svg+xml</dc:format>
        <dc:type
           rdf:resource="http://purl.org/dc/dcmitype/StillImage" />
        <dc:title></dc:title>
      </cc:Work>
    </rdf:RDF>
  </metadata>
  <defs
     id="defs32" />
  <sodipodi:namedview
     pagecolor="#ffffff"
     bordercolor="#666666"
     borderopacity="1"
     objecttolerance="10"
     gridtolerance="10"
     guidetolerance="10"
     inkscape:pageopacity="0"
     inkscape:pageshadow="2"
     inkscape:window-width="640"
     inkscape:window-height="480"
     id="namedview30"
     showgrid="false"
     inkscape:zoom="1.7"
     inkscape:cx="300"
     inkscape:cy="250"
     inkscape:current-layer="svg28" />
  <g
     fill-rule="evenodd"
     id="g6">
    <path
       d="M325 210a25 25 0 11-50 0 25 25 0 1150 0z"
       id="path2" />
    <rect
       width="70"
       height="160"
       x="265"
       y="240"
       rx="20"
       ry="21.333"
       id="rect4" />
  </g>
  <rect
     width="70"
     height="20"
     x="-260"
     y="340"
     fill-rule="evenodd"
     rx="10"
     ry="10"
     transform="rotate(-90)"
     id="rect8" />
  <path
     fill-rule="evenodd"
     stroke="#000"
     d="M345 200V0h10v200z"
     id="path10" />
  <path
     fill="#ff0"
     fill-rule="evenodd"
     d="M445 90h-90V0h90v90z"
     id="path12" />
  <path
     fill="red"
     fill-rule="evenodd"
     d="M355 90V0h90l-90 90z"
     id="path14" />
  <path
     fill="none"
     stroke="#000"
     stroke-linejoin="round"
     d="M445 90h-90V0h90v90z"
     id="path16" />
  <rect
     width="70"
     height="20"
     x="-10"
     y="-363.553"
     fill-rule="evenodd"
     rx="10"
     ry="10"
     transform="rotate(135)"
     id="rect18" />
  <path
     fill-rule="evenodd"
     stroke="#000"
     d="M218.18 288.89L76.759 430.313l-7.071-7.071 141.42-141.421z"
     id="path20" />
  <path
     fill="#ff0"
     fill-rule="evenodd"
     d="M204.038 430.312l-63.64 63.64-63.64-63.64 63.64-63.64 63.64 63.64z"
     id="path22" />
  <path
     fill="red"
     fill-rule="evenodd"
     d="M140.398 493.952l-63.64-63.64 63.64-63.64v127.28z"
     id="path24" />
  <path
     fill="none"
     stroke="#000"
     stroke-linejoin="round"
     d="M204.038 430.312l-63.64 63.64-63.64-63.64 63.64-63.64 63.64 63.64z"
     id="path26" />
</svg>
