<svg xmlns="http://www.w3.org/2000/svg" xml:space="preserve" viewBox="0 0 132.29 132.29">
  <g fill="none" stroke="#000" stroke-dashoffset="5.08" transform="translate(-426.87)">
    <circle cx="493.02" cy="66.15" r="32.36" stroke-width="5.29"/>
    <path stroke-width="2.65" d="M461.6 76.91c8.54 3.52 19.25 5.44 30.3 5.46m6.6-.23c9.75-.68 18.9-2.86 26.16-6.26m-63.06-8.51c6.63 2.72 14.55 4.5 22.93 5.16m5.15.26 2.22.03c9.19 0 18.11-1.32 25.75-3.76m-53.26-11.75c8.28 3.52 18.67 5.44 29.4 5.46m19-2.1a61.1 61.1 0 0 0 12.78-4.4m-60.1-5.57c7.49 3.5 16.88 5.43 26.59 5.45 10.68 0 20.96-2.32 28.75-6.49m-52.54-5.2a53.22 53.22 0 0 0 15.22 4.67"/>
  </g>
</svg>
