<svg xmlns="http://www.w3.org/2000/svg" width="262.72" height="253.13" viewBox="0 0 69.51 66.97"><path d="M11.13 46.43l-10.9-6.3V26.84m22.41 13.64l-10.9 6.3L.21 40.13m23.02-12.6v12.6l-11.5 6.65m.6-26.24l10.9 6.3v13.3M.82 26.48l10.91-6.3 11.51 6.65M.22 39.44v-12.6l11.51-6.64" fill="none" stroke="#000" stroke-width=".45"/><path d="M34.15 20.54l-10.9 6.3-11.52-6.64M34.76 7.6v12.6l-11.52 6.64M23.84.6l10.92 6.3v13.3M12.34 6.56l10.9-6.3L34.76 6.9M11.73 19.5V6.9L23.24.26m-.6 26.23l-10.9-6.3V6.9M57.18 20.54l-10.91 6.3-11.51-6.64M57.78 7.6v12.6l-11.51 6.64M46.87.6l10.9 6.3v13.3M35.37 6.56l10.9-6.3L57.79 6.9M34.76 19.5V6.9L46.26.26m-.6 26.23l-10.9-6.3V6.9" fill="none" stroke="#000" stroke-width=".45"/><path d="M68.69 40.48l-10.91 6.3-11.51-6.65m23.02-12.6v12.6l-11.51 6.65m.6-26.24l10.9 6.3v13.3M46.88 26.48l10.9-6.3 11.52 6.65m-23.02 12.6v-12.6l11.5-6.64m-.6 26.23l-10.9-6.3V26.84" fill="none" stroke="#000" stroke-width=".45"/><path d="M57.18 60.42l-10.91 6.3-11.51-6.65m23.02-12.6v12.6l-11.51 6.65m.6-26.24l10.9 6.3v13.29M35.37 46.43l10.9-6.3 11.52 6.65m-23.02 12.6v-12.6l11.5-6.65m-.6 26.24l-10.9-6.3v-13.3" fill="none" stroke="#000" stroke-width=".45"/><path d="M34.15 60.42l-10.9 6.3-11.52-6.65m23.03-12.6v12.6l-11.52 6.65m.6-26.24l10.92 6.3v13.29M12.34 46.43l10.9-6.3 11.52 6.65m-23.03 12.6v-12.6l11.51-6.65m-.6 26.24l-10.9-6.3v-13.3" fill="none" stroke="#000" stroke-width=".45"/><g aria-label="1st char" style="line-height:1.25;-inkscape-font-specification:sans-serif;text-align:center" font-weight="400" font-size="7.06" font-family="Special Elite" letter-spacing="0" word-spacing="0" text-anchor="middle" stroke-width=".26"><path d="M44.57 11.29l-.01.07-.04.07-.06.1-.06.06q-.03.02-.07.02h-.2l-.05.02q-.03 0-.04-.03v-.06-.03-.02q0-.03-.02-.05 0-.02-.03-.02-.05 0-.09.03l-.05.06-.06.06q-.03.03-.09.03l-.13-.02-.14-.03-.28-.01h-.28l-.28-.03-.28-.04-.06-.01h-.06q-.14 0-.28.03-.13.02-.3.02-.11 0-.23.03-.11.02-.23.02l-.12-.02-.14-.06q-.07-.04-.12-.1-.04-.05-.04-.11 0-.05.04-.1l.1-.1L41 11l.1-.06.42.06q.2.03.42.03.13 0 .2-.03.09-.03.12-.09.05-.06.06-.13v-.17-.1-.11q0-.54.03-1.07.03-.54.03-1.07v-.53l-.06-.52-.09-.02-.1-.01h-.02q-.01-.02-.03-.02h-.04q-.08 0-.15.03-.07.02-.15.02l-.03-.01-.02-.02-.03-.02h-.04l-.23.02q-.11.03-.23.03-.08 0-.16-.03-.08-.02-.15-.07.03-.06.03-.13l-.01-.1-.02-.11h.05q.06 0 .1-.02l.1-.06.09-.06q.04-.02.1-.02.1 0 .2.03t.2.03q.06 0 .1-.02.05-.03.08-.03t.05.02q.02.03.06.03.05 0 .1-.03l.12-.04.12-.04q.05-.02.12-.02l.17.02.16.02.1-.01-.01.05.01.09.03.08q.03.04.04.1.02.06.02.15v.3l.01.3-.01.16q-.01.07-.05.14.03.03.04.07l.01.07v.14l.05.07v.04L43 8.4l-.03.06-.04.06-.01.07.02.16q.02.08.02.17l-.01.22-.03.22-.03.22q-.02.1-.02.21v.05q-.01.02-.03.02l-.02-.01v.18l.04.18.03.17.01.19v.09q0 .18.12.27.12.09.3.09.11 0 .17-.02l.09-.06.05-.04q.02-.03.05-.03.1 0 .2.03l.21.03h.1l.1.01.1.03.07.07.07.12q.05.06.05.13zM47.95 10.5l-.02.08-.03.09-.04.08-.03.09q-.02.1-.07.17t-.12.13l-.15.13-.13.12q-.05.05-.11.05h-.07l-.06-.01q-.05 0-.08.02l-.06.04-.06.03q-.03.02-.1.02l-.08.02q-.04.03-.08.03-.06 0-.14-.04-.08-.03-.17-.03H46.02l-.1-.04-.1-.04-.1-.01q-.1 0-.17.05l-.13.11-.12.12q-.05.05-.12.05-.07 0-.1-.02l-.02-.05v-.07q-.01-.04-.04-.07-.05-.05-.07-.1-.02-.04-.02-.12 0-.17.03-.32.03-.16.03-.32l-.01-.12-.04-.1-.03-.07-.01-.05.02-.06q.01-.04.04-.07l.04-.04.05-.02.06.01.05.04.05.03q.03.02.07.02h.02l.07.17.06.18.07.17q.04.08.12.14l.05.04.06.04.06.03.05.02h.07l.08-.02q.05 0 .05.04v.03h.06q.13 0 .26-.04.13-.03.27-.03l.12.02q.07 0 .12.05l.1-.08.1-.1.1-.08q.05-.04.14-.04.02-.02.02-.05v-.05-.05q0-.03.03-.05l.05-.06q.02-.03.02-.08 0-.1-.05-.17-.05-.09-.13-.15-.08-.07-.2-.12l-.2-.1-.21-.05-.18-.02-.17.02q-.08.01-.16.05 0-.08-.04-.1-.03-.03-.08-.04l-.1-.02q-.05-.02-.07-.09-.06.08-.15.11t-.18.03q-.09 0-.16-.03-.08-.03-.14-.1-.06-.05-.1-.13-.03-.07-.04-.16 0-.06-.02-.1l-.04-.09-.05-.09q-.02-.04-.02-.1 0-.16.02-.24l.04-.14q.02-.05.05-.06l.06-.04.06-.06q.03-.03.05-.1 0-.06.03-.07.02-.02.07-.03.04 0 .06-.02l.02-.03v-.04l.04-.03q.08-.05.14-.06l.15-.02h.46l.28-.02q.11 0 .2.02l.17.05.11.05q.05.03.09.03.05 0 .1-.03l.12-.02.06.04.08.02.04-.02.02-.04q.04.01.09.05l.08.08q.04.04.06.1l.02.1q0 .13-.02.25l-.02.25q0 .13.03.25l-.1.07q-.06.03-.1.08l-.06-.06-.08-.06-.07-.06-.07-.02-.04-.02-.01-.04.02-.06.02-.06-.03-.05-.07-.08-.08-.07-.05-.04-.08-.02-.07-.04-.07-.03-.05-.01-.1.01-.09.02-.15-.02q-.11-.01-.22-.05-.11-.05-.23-.05-.1 0-.15.05-.05.05-.08.11l-.06.1q-.03.06-.1.06h-.04l.06.18q.03.08.08.14.04.06.1.11l.16.12.03.02.04.04.04.03.03.01q.05 0 .1-.03l.12-.02.08.02.08.01h.07q.04-.03.09-.03h.03l.04.01q.1.03.2.03h.22q.07 0 .15.03l.15.07q.07.04.13.1.07.05.11.11.03.05.08.09l.08.08.07.08q.03.04.04.1l.05.15q.03.09.03.15zM51.67 10.32q0 .11-.03.21l-.05.2-.07.19-.05.2q-.03.17-.12.29-.1.11-.22.18-.14.06-.3.1l-.32.05-.34.02q-.16 0-.3.02-.05-.03-.08-.08l-.07-.08-.07-.07q-.04-.02-.1-.02-.02 0-.03-.06l-.02-.13-.03-.12q0-.06-.03-.06-.08 0-.13-.04-.04-.03-.07-.08l-.03-.12-.01-.13q0-.05-.02-.09l-.05-.08-.04-.08q-.02-.04-.02-.09v-.13l.01-.16.01-.16v-.13q0-.06.02-.1l.04-.08.04-.05.01-.06q0-.04-.02-.07-.02-.02-.02-.05 0-.04.03-.07l.03-.08q.04-.15.04-.3v-.06-.06q-.08-.06-.18-.08l-.2-.03-.18-.02q-.09-.01-.15-.07l-.1-.1q-.04-.07-.1-.1-.05 0-.09-.04-.03-.03-.03-.08 0-.09.05-.13l.12-.07.14-.04q.08-.02.13-.06.05-.04.12-.04h.12q.09 0 .15-.02.05-.03.09-.08.03-.05.04-.12l.01-.14-.01-.21-.01-.22q0-.12.03-.23.04-.1.13-.2l.05-.04.05-.05.05-.05.07-.01h.03l.03.03q.08.07.1.11.02.03.02.08v.15q0 .1.03.21.03.11.03.19 0 .06-.03.12-.02.06-.02.13 0 .05.02.09l.05.07.05.08q.03.04.03.1.03.02.15.04l.27.03.3.02h.25q.1 0 .14.02l.08.03.06.03q.03.02.07.02.06 0 .1.03.04.02.04.09 0 .08-.05.13-.04.05-.1.07l-.14.03h-.33l-.2-.01q-.17 0-.3.03-.14.03-.24.1-.1.08-.15.2-.05.11-.05.3l.02.34.02.34v.27q.01.1.05.17l.07.22.07.25q.05.1.12.19.08.07.23.07l.14-.01q.09-.01.17-.04.09-.03.15-.08t.06-.11q0-.06-.03-.12-.04-.06-.04-.13 0-.05.02-.08l.06-.07.08-.05.08-.04q.06-.08.15-.13.09-.06.19-.06l.13.02.12.07v.12zM41.6 19.66q0 .03-.03.05-.03 0-.05.02-.04.02-.06.05l-.05.06-.04.07q-.01.04-.04.07-.04.07-.13.1l-.17.05q-.08.02-.15.07-.06.04-.08.14h-.02q-.08 0-.14.03l-.14.06-.13.06q-.07.03-.15.03l-.08-.02q-.03 0-.07-.03l-.07-.03-.08-.01h-.1l-.1.01h-.1l-.1-.04-.07-.05q-.03-.03-.03-.08v-.03l-.04.03h-.04q-.1 0-.19-.04-.09-.05-.17-.12l-.14-.14-.13-.15q-.08-.08-.12-.18l-.1-.2q-.13-.2-.16-.4-.02-.21-.02-.43v-.1q0-.05.02-.08l.04-.02.04-.02q.02 0 .03-.02l.01-.03q0-.05-.02-.09l-.02-.08v-.06l.04-.06q.03-.04.05-.14l.05-.21.07-.19q.04-.08.1-.08l.1.01q.03.02.08.02l.08-.01v-.03q0-.04-.02-.05l-.06-.02h-.05q-.03-.01-.03-.04l.02-.04.04-.02.06-.03q.03 0 .04-.02l.05-.05.02-.05.04-.04.08-.04h.2l.09-.02.1-.01-.04-.04.05-.05.07-.03h.08l.07-.01q.12 0 .23.03.12.03.23.03h.1q.04-.02.1-.02.06 0 .13.04l.12.06h.01q.03 0 .05-.02l.05-.02.02.01.02.03q.03.03.08.04.05 0 .06.04l.06.06.06.02.06.01q.04 0 .07.03v.1q.07.09.13.13l.1.1q.05.05.08.13.02.07.02.2 0 .16-.02.27-.03.12-.1.2-.05.07-.16.11-.1.04-.27.04h-.22l-.08-.13-.1-.17-.1-.16-.03-.12v-.1l.01-.11q-.02-.07-.06-.1-.04-.05-.1-.07l-.1-.03h-.31l-.16.05q0-.03-.02-.05-.02-.03-.05-.03-.05 0-.12.04l-.14.08-.13.11-.08.1-.07.1-.09.15q-.04.07-.1.13-.04.06-.09.06l.03.13.03.17.03.17v.13q0 .08.03.14.03.07.03.15l-.02.12v.19l.07.03q.06.01.08.06l.03.08.04.07q.03.04.08.04h.06q.04.05.05.12.01.06.05.12.03 0 .03-.02l.02-.04.02-.03.06-.01.06.02.04.05.05.04q.02.02.05.02l.13-.02.15-.05.14-.06.13-.05q.15-.04.27-.12.12-.08.2-.2l.09-.14.09-.13H41.22l.04.01q.02 0 .02.02 0 .03-.03.05l-.04.03-.05.04q-.02.01-.02.05h.04l.1.02.14.05.12.08q.05.05.05.1zm-.25.19q0-.02-.02-.03l-.04-.02q-.02 0-.04.03l-.02.05q0 .02.03.02h.03l.03-.01q.03-.01.03-.04zM46.12 20.2l-.02.12-.05.1h-.61q-.1 0-.2.03-.1.02-.22.02-.14 0-.15-.15-.05 0-.08.03l-.08.06-.08.06q-.05.03-.1.03-.06 0-.13-.03-.05-.04-.05-.1v-.05l.03-.04.03-.02.02-.03-.02-.03-.03-.03-.03-.02-.01-.05q0-.05.04-.07.04-.03.1-.04l.14-.01.15-.01q.08 0 .13-.02.06-.01.08-.06l.05-.14.03-.18.02-.19v-.16-.3l-.05-.3q-.01-.07-.04-.13l-.02-.14q0-.04.02-.07l.02-.07.04-.05v-.05q0-.06-.03-.1l-.05-.1-.02-.1q0-.05-.03-.1l-.04-.06-.06-.06-.05-.06q-.03-.02-.04-.06l-.23-.01q-.15 0-.29.02-.12.02-.24.07-.11.04-.22.12-.1.08-.2.2l-.08.1-.1.1-.08.1q-.04.06-.05.12l-.06.3-.01.32v.1l.04.1.02.09q.02.04.02.1l-.02.08-.03.13-.05.12q-.02.05-.04.05 0 .02.04.06l.1.08.1.06q.05.03.08.03h.11q.07 0 .14.03.08.03.14.08.05.04.06.08.01.03-.06.03h-.07l-.05-.01-.03-.04q0-.03-.02-.04 0-.02-.03-.02-.02 0-.03.02v.03q0 .03.03.07l.05.06.07.07.02.08-.01.02h-.1l-.06-.01-.06.02-.07.06-.12.05q-.07.03-.2.03-.04 0-.06-.04l-.03-.08-.03-.08q-.02-.04-.07-.04-.03 0-.05.02l-.02.04.02.03.03.05.01.05.02.04h-.16l-.09.03-.08.02-.1.01-.08-.01-.07-.03q-.06-.03-.12-.03t-.11-.02q-.05 0-.09-.04-.03-.04-.03-.14l.02-.1q.02-.07.06-.11.04-.05.09-.08.05-.03.11-.03l.08.02.08.02q.03 0 .05-.02.03-.02.04-.05l.05-.04q.02-.03.05-.04 0-.18.04-.35.02-.18.02-.37 0-.18-.03-.35-.03-.17-.03-.35 0-.11.03-.22.03-.1.03-.2 0-.07-.03-.12-.03-.05-.03-.11 0-.05.03-.07l.03-.06h-.01q-.05 0-.05-.05t.04-.05l.02.01-.01-.06-.04-.05-.03-.06-.02-.06q.04-.07.05-.13l.01-.1v-.1-.12q0-.08.02-.15.03-.07.03-.14 0-.05-.02-.06-.02-.02-.05-.02h-.04l-.01-.11q0-.08-.03-.16-.02-.07-.06-.12-.04-.06-.1-.06l-.09.01h-.08q-.06 0-.12-.03t-.1-.09q-.05-.05-.08-.12-.03-.07-.03-.13 0-.07.05-.08.04-.02.09-.02h.18q.04-.01.07-.04l.2-.02.22-.01q.06 0 .1.03l.09.06.09.07q.04.03.1.04 0 .08-.02.15v.15q0 .07.02.13.03.07.03.14l-.01.02h-.03q-.02 0-.03.02l-.01.04v.06l.04.06.02.05.01.06-.02.1-.01.1v.15l.04.2q.02.09.06.17.04.07.1.07.07 0 .13-.04.07-.03.13-.08l.11-.1.1-.11q.04-.03.13-.05l.2-.05.2-.04.14-.01h.16l.09.05.07.06.11.07.07.03H45l.06.03q.03.01.06.05l.1.13q.08.06.14.14l.1.15q.04.08.04.16l-.02.1-.02.1q0 .04.02.07.02.03.02.07v.1l-.02.13-.03.13q-.01.06-.04.09.06.09.07.18l.02.2-.01.24-.01.23q0 .17.04.26.05.08.12.13l.16.07.15.05q.07.02.12.08.05.05.05.16zM50.2 19.76q0 .06-.03.11l-.03.11-.02.08-.02.06q0 .02-.03.04l-.07.04-.22.11q-.12.06-.23.06-.1 0-.2-.05l-.15-.1-.14-.1q-.06-.06-.1-.06-.04 0-.08.03l-.06.05-.07.05q-.04.03-.1.03l-.1.01-.1.04-.11.05-.1.03q-.15.04-.31.05h-.44l-.18-.01-.15-.05q-.07-.04-.07-.1v-.02q-.02.03-.05.04-.03.02-.07.02-.05 0-.13-.08-.08-.07-.16-.17l-.12-.2q-.05-.1-.05-.15l.02-.06.02-.07-.01-.1-.01-.09.02-.13.06-.14.07-.14.07-.12q.04-.07.1-.11l.13-.08.14-.06q.07-.03.12-.08.05.06.13.06.09 0 .17-.03l.17-.02.13.01.14.01.1-.01.1-.07q.05-.05.14-.07l.17-.05.19-.03.16-.05q.07-.03.12-.09.04-.06.04-.16t-.06-.23q-.06-.12-.16-.22t-.22-.17q-.13-.07-.24-.07h-.02l-.03.01-.18.02q-.1 0-.2.03-.09.03-.15.09t-.06.17l.01.14.01.14q0 .1-.05.17t-.12.1q-.08.05-.17.07l-.18.01q-.1 0-.18-.03-.08-.02-.13-.12l-.08-.16q-.04-.08-.04-.17 0-.1.03-.17l.08-.16.08-.16q.04-.08.05-.17l.07-.02.1-.03.09-.02.08-.03.16-.05.16-.07.16-.04.17-.03h.1q.15 0 .3.03.16.02.31.08.15.05.28.13.13.08.24.2.07.08.12.19.05.1.08.23l.04.25.01.24v.28l-.01.28.01.28.04.27.03.27.02.27q0 .09.02.1l.04.02q.07 0 .12-.04l.08-.1.09-.11q.04-.05.1-.05h.07q.04 0 .06.02.03.01.05.04l.01.05zm-1.14-.85v-.08-.1l-.03-.1q-.02-.04-.05-.04h-.01l-.02.01q-.13.08-.23.12l-.18.08-.2.04h-.25l-.12.02-.2.05-.2.04-.13.03-.06.03-.03.04-.02.05-.04.04-.07.05q-.04.01-.08.05l-.1.13q-.04.09-.04.16 0 .1.05.17t.13.12l.18.1.2.05.2.03.16.01h.2l.22-.05q.12-.02.22-.07.1-.04.15-.11l.04-.05.02-.05.03-.04q.01-.03.05-.06.08-.06.12-.14.04-.08.06-.17.03-.08.03-.17v-.2zM54.23 17.85q0 .07-.03.12l-.06.1-.07.08q-.03.04-.04.1l-.07-.01h-.23l-.15.02q-.1 0-.16-.06t-.1-.14q-.03-.08-.04-.17l-.02-.18q0-.1.03-.2h-.05q-.04 0-.06.02-.02.03-.05.03l-.06-.02q-.02-.02-.06-.02-.05 0-.13.03l-.15.08-.12.12q-.05.06-.05.11-.08 0-.14.04l-.12.07q-.05.03-.08.09l-.06.13-.05.13q-.02.07-.06.11l-.1.16q-.04.07-.04.17 0 .12.04.25.03.12.03.25l-.01.16-.01.16q0 .1.03.16.04.06.1.1l.13.03.16.01h.31q.03.02.03.05v.05l-.02.05v.09q.06 0 .1-.02l.05-.08.04.02.02.04-.01.05-.02.03-.03.04V20.29q-.01.03-.04.04l-.07.01-.09-.01-.06-.04-.06-.04q-.02-.02-.05-.02h-.05l-.05.03q-.03 0-.05.02l-.02.03q0 .03.02.05.02.02.02.05l-.02.04-.04.01-.05.01h-.04q-.14 0-.27-.03t-.27-.03q-.06 0-.12.03t-.13.03q-.04 0-.06-.02l-.03-.03-.03-.04-.05-.01-.13.01-.13.03-.13.03H50.64q-.05 0-.1-.03l-.07-.05q-.03-.03-.03-.08l.03-.07.08-.08.08-.08.06-.03h.22q.1 0 .19-.02.1-.03.17-.09.08-.05.13-.14.05-.08.05-.18l-.01-.09v-.09l.01-.18.02-.18-.02-.24q-.03-.13-.03-.26v-.22l.01-.23v-.15q0-.1-.03-.2-.01-.1-.05-.17-.04-.08-.11-.08-.08 0-.15.02l-.16.01h-.14l-.15-.04q-.07-.02-.12-.07-.05-.05-.05-.13 0-.09.02-.14l.06-.08.1-.04H50.99l.22-.01q.1-.02.22-.02l.15.01q.08 0 .15.03.06.02.1.08l.05.11.06.11q.04.05.11.05.04 0 .06-.02.04-.02.06-.05l.06-.04.06-.03q.08 0 .14-.05l.13-.07.12-.07q.07-.03.14-.03l.11-.01.14-.03.13-.05.1-.06q.09 0 .21.04.13.04.24.1.12.07.2.16.09.08.1.19l.04.12.06.12.05.12q.03.06.03.12z" style="-inkscape-font-specification:'Special Elite';text-align:center"/></g><g aria-label="2nd char" style="line-height:1.25;-inkscape-font-specification:sans-serif;text-align:center" font-weight="400" font-size="7.06" font-family="Special Elite" letter-spacing="0" word-spacing="0" text-anchor="middle" stroke-width=".26"><path d="M55.12 30.7l-.02.13q-.02.07-.07.11L55 31l-.03.06-.02.06-.02.02h-.03l-.03-.01-.02.01q-.04.05-.12.1l-.16.1-.18.06-.15.02h-.09l-.05-.04-.04-.03-.04-.01q-.04 0-.08.03l-.06.02q-.02 0-.03-.02 0-.02-.04-.03l-.13-.06-.14-.09-.14-.07q-.06-.04-.1-.04l-.07-.04-.13-.1q-.07-.06-.15-.1-.1-.05-.18-.05-.1 0-.15.06-.05.06-.08.14h-.03q-.05 0-.08.03-.04.03-.06.07l-.03.09-.01.09v.12l.02.11v.08h-.18l-.09.01q-.06 0-.1-.04l-.05-.1q-.02-.07-.07-.13-.04-.07-.1-.13l-.07-.13q-.03-.07-.03-.14v-.17l.01-.18q0-.07.04-.12l.07-.1q.05-.06.08-.13.04-.07.04-.18l.02-.04.03-.03.09-.11.12-.18.13-.2q.08-.1.16-.17l.03-.02.04-.01H52.64l.02-.03.02-.03q0-.02.03-.04.03-.03.1-.02l.1-.02.06-.04.06-.04.06-.04.08-.04q.12-.03.25-.09.13-.05.24-.13.12-.08.22-.18.1-.1.16-.21 0-.02.03-.05l.04-.06.04-.05.02-.06v-.03q-.02-.02-.02-.05 0-.02.02-.03l.04-.02.06-.04.03-.07.02-.08v-.08-.07l-.02-.08-.03-.07-.06-.05-.03-.01q-.02 0-.02-.03v-.02l.01-.03q0-.02-.03-.05l-.06-.05-.07-.05-.04-.05q-.02-.03-.09-.07l-.14-.08-.15-.06-.1-.02q-.12 0-.23.04l-.23.07-.22.03q-.14.01-.27.05t-.22.11q-.1.07-.1.2 0 .06.04.11l.08.1.12.1.11.1.09.12q.03.06.03.13 0 .09-.06.16-.05.06-.14.1-.07.04-.17.06l-.16.02q-.09 0-.16-.03l-.07-.01-.05-.02-.02-.03-.01-.07q-.01-.06-.04-.1l-.05-.1-.03-.1q-.02-.05-.02-.11 0-.08.04-.2l.1-.24.12-.22.13-.16.04-.06.02-.05.05-.05.07-.01h.06q.05 0 .08-.02.03-.01.05-.06 0-.03.05-.05l.08-.02.09-.01h.07q.07 0 .13-.03l.13-.03.13-.04.14-.01h.05q.3.01.48.05.2.03.34.11.15.09.27.23.12.15.27.39l.06.13q.03.07.09.11-.04.1-.05.18l-.02.19q0 .06-.02.1l-.02.1-.04.08-.05.1-.02.06-.02.05-.02.04-.06.04q-.04.02-.06.05l-.03.07q0 .03-.03.06-.01.03-.05.04l-.16.1-.15.1-.14.12q-.07.05-.15.07-.1.02-.19.07l-.17.1-.16.1q-.09.05-.18.07l-.07.03-.04.05-.03.05-.04.05q-.04.04-.08.05l-.06.02q-.04 0-.07.03-.04.01-.08.07l-.05.05-.07.03-.05.04q-.03.03-.03.07l-.01.05-.03.05-.04.04-.01.05v.04l.03.05.06.04q.04.02.1.02h.13l.12-.02.1.02.1.03.08.03.1.02q.08 0 .1-.1l.03.04v.07l.02.06q0 .03.02.03l.03-.05q.01-.03.05-.03.02 0 .03.02l.05.04.05.05q.03.02.07.02.07 0 .15.05l.17.12.17.12q.09.05.17.05.1 0 .15-.04.06-.04.1-.1.06-.06.1-.13l.08-.13.1-.1q.06-.03.15-.03.13 0 .17.06.04.07.04.18zm-1.06-3.89h-.15q.02 0 .02.02l-.01.03-.01-.02v-.03.05l.02.1q.02.04.08.05l.03-.08.02-.08zM59.67 31.32q0 .05-.03.08-.02.03-.06.04l-.08.03h-.18l-.1-.02-.17.05q-.1.03-.17.03h-.04l-.03-.02-.12.02q-.06.03-.12.03-.1 0-.2-.03l-.18-.03q-.17-.01-.26-.12-.08-.12-.09-.27.1-.07.22-.1l.25-.02h.13l.14.02q-.01-.26-.05-.52-.03-.26-.03-.52v-.18q0-.09.03-.18.01-.09.04-.17.03-.1.03-.18 0-.06-.02-.11l-.04-.1q-.03-.04-.03-.1l-.02-.1-.03-.1q-.02-.06-.07-.1-.05-.04-.13-.07-.08-.02-.22-.02l-.12.01-.17.04q-.08.01-.15.04-.08.02-.1.05l-.05.05-.05.07-.06.05q-.03.03-.05.03l-.08.02-.04.02-.02.04-.04.07-.02.06q-.02.04-.04.04t-.03-.02l-.02-.01h-.02l-.02.02v.1q-.03.03-.05.03h-.03l-.01.02v.07l-.02.06-.04.07-.04.06-.01.07.01.14q.02.06.02.13l-.01.08-.03.05-.03.05-.02.06.02.1.04.07.04.09q.02.04.02.1l-.02.11v.12l.01.12.06.06.09.03q.04 0 .1.03l.1.05q.05.03.1.1h.01q.06 0 .09.04.03.05.03.1t-.02.09q-.02.03-.02.1 0 .03-.1.06-.08.03-.2.04l-.22.02h-.46l-.21-.02q-.11 0-.21-.03-.1-.01-.17-.04-.06-.03-.08-.07l-.03-.1q-.02-.04-.02-.1l.02-.09.07-.07q.05-.05.11-.06h.12l.12-.02q.06 0 .1-.05.05-.05.07-.14.03-.1.03-.28v-.09l-.03-.09-.01-.07-.01-.06.01-.04.03-.05.02-.06q.02-.03.02-.07 0-.06-.03-.11l-.02-.11.02-.1q.02-.04.02-.09 0-.04-.02-.07l-.02-.08.01-.07.01-.09-.02-.18-.03-.19q-.02-.1-.08-.15-.06-.06-.13-.09l-.15-.04-.15-.05q-.06-.04-.1-.1-.05-.08-.05-.2 0-.1.05-.14.06-.05.13-.07.08-.03.16-.03h.15q.1 0 .2.03t.2.03q.04 0 .08.03l.08.07.05.07.03.1.01.07.03.1.04.1q.03.05.05.05l.03-.04.02-.04q0-.03.04-.06l.1-.07.1-.07.07-.06.03-.05.03-.05.03-.03q.02-.02.06-.02h.02q.04 0 .07-.03l.1-.07q.05-.05.14-.08.09-.03.23-.03h.26q.13 0 .24.04.12.03.22.1.1.06.18.18.05.1.1.14l.05.08q.03.04.04.1v.18q0 .05.02.09l.04.08.04.1q.02.04.02.1l-.01.25q-.02.11-.02.23 0 .09-.03.17-.03.08-.03.17l.02.08q.02.04.02.09l-.02.12-.01.11q0 .06.02.1.03.04.03.1l-.01.04-.03.03-.03.04v.04q0 .06.02.11t.07.1l.09.07.1.02q.05 0 .08-.02t.07-.02q.05 0 .09.04.04.04.06.1.04.05.05.11l.02.1zm-.75-1.3q0-.04-.02-.07-.02-.03-.06-.03-.04 0-.05.04l-.02.06q0 .04.02.07.01.04.05.04t.06-.02q.02-.03.02-.08zm.06.66l-.02-.04-.04-.03q0 .03-.02.05l-.04.04-.03.05-.01.05.01.04.04.02q0-.02.03-.04l.03-.04.03-.05q.02-.02.02-.05zm-2.29-.74l-.01-.06-.02-.06-.04-.06q-.02-.02-.05-.02-.04 0-.07.02-.03.02-.07.02h-.01l-.01.07v.02q.01.03.05.05l.06.04.08.03.06.04q.03-.04.03-.1zM64.03 31.26q0 .04-.03.09-.02.04-.07.04h-.07l-.07-.01q-.05 0-.05.02l-.01.04q0 .03-.05.05-.04.02-.18.02l-.16-.01-.16-.02-.12.02-.07-.05-.06-.04-.05-.04q-.02-.03-.02-.09 0-.04-.04-.04h-.04l-.03.01h-.03l-.01-.03v-.01q-.07 0-.1.04l-.1.1q-.02.03-.06.05l-.07.02-.07.03-.08.05q-.03.03-.1.05l-.16.02-.16.01h-.12l-.17-.01-.11-.05-.1-.05-.15-.06-.22-.1q-.13-.08-.25-.18-.12-.1-.2-.21-.08-.12-.08-.22 0-.05-.03-.1l-.05-.1-.07-.09-.05-.09q-.07-.13-.09-.28l-.02-.28q0-.14.02-.26l.06-.24.06-.24.06-.24q.02-.1.05-.14.03-.05.07-.08l.08-.07q.05-.03.1-.09l.02-.04.01-.03.03-.01.06-.01.04-.02.03-.04.02-.05.04-.04.05-.02.06-.01h.07l.06-.02.12-.06.09-.04.1-.03h.14q.12 0 .23.02l.24.06.22.07q.12.03.24.03.1 0 .15-.04.06-.05.08-.11.04-.07.04-.15l.01-.15-.01-.27-.03-.26-.03.01-.06-.02-.05-.04-.05-.04q-.03-.02-.07-.02-.03 0-.04.02l-.04.04H62.06l-.1-.02-.12-.08-.1-.1q-.03-.05-.03-.1t.03-.1l.07-.1.1-.06q.05-.03.1-.03.04 0 .08.03l.08.02q.08 0 .15-.02.07-.03.15-.03.08 0 .15.03.07.02.15.02h.36l.12.05v.02l.01.1.03.09.03.09.01.1q0 .05-.03.11t-.03.12q0 .12.03.24t.03.24v1.21q0 .31-.03.62-.02.3-.02.61l.01.26q.01.14.06.27.04.13.13.21.09.09.24.09h.06l.06-.01q.05 0 .08.02l.06.06.03.09.02.08zm-1.25-1.71q0-.13-.03-.27-.02-.15-.08-.27-.05-.13-.15-.21-.1-.1-.25-.1-.03 0-.07-.03l-.09-.05-.09-.04q-.04-.03-.07-.03l-.06.01-.06.03-.05.03-.06.01h-.12l-.1-.01q-.18 0-.32.1t-.24.26q-.1.15-.15.33-.06.17-.06.32v.13l.02.12q0 .04-.03.07l-.05.05-.05.06q-.02.02-.02.07h.03q.09 0 .14.03.05.03.07.09.03.05.04.12l.04.14q.02.07.06.13.04.07.12.12l.12.08.14.08.15.07.14.02q.11 0 .22-.03.1-.03.22-.03h.08q.08-.12.19-.23.1-.1.26-.15v-.08l.02-.22.06-.22.05-.24q.03-.12.03-.26zM53.1 39.52q0 .03-.02.04l-.05.03q-.04.02-.06.05l-.05.06-.04.07-.03.07q-.05.07-.14.1l-.16.05q-.09.02-.16.07-.06.04-.08.14h-.02q-.07 0-.14.03l-.14.06-.13.06q-.07.03-.15.03l-.08-.02q-.03 0-.07-.03l-.07-.03-.08-.01h-.1l-.1.01h-.1l-.1-.04-.07-.05q-.03-.03-.03-.08v-.03l-.03.03h-.05q-.1 0-.19-.05-.09-.04-.16-.1l-.15-.15-.13-.15q-.08-.08-.12-.18l-.1-.2q-.13-.2-.16-.4-.02-.21-.02-.43v-.1q0-.05.02-.08l.04-.02.04-.02q.02 0 .03-.02l.01-.03q0-.05-.02-.09-.02-.04-.02-.09l.01-.05.03-.06q.03-.04.05-.14l.05-.21.07-.19q.04-.08.1-.08l.1.01q.03.02.08.02l.08-.02v-.02q0-.04-.02-.05l-.06-.02h-.05q-.03-.01-.03-.04l.02-.04.04-.03.06-.02.04-.02.05-.05.02-.05.04-.04.08-.04h.2l.09-.02.1-.01-.04-.04.05-.05.07-.03h.08l.07-.01q.12 0 .23.03.12.03.23.03h.1q.04-.02.1-.02.06 0 .13.04l.12.06h.01l.06-.02.04-.02.02.01.03.03q.02.03.07.04.05 0 .06.04l.06.06.06.02.07.01q.03 0 .06.03v.1q.07.09.13.13l.1.1q.05.05.08.13.03.07.03.2 0 .16-.03.27-.03.12-.1.2-.05.07-.16.11-.1.04-.27.04h-.22l-.08-.13-.1-.17-.1-.16-.03-.12v-.1l.01-.11q-.02-.07-.06-.1-.04-.05-.1-.07l-.1-.03H51.45l-.17.05q0-.03-.02-.05-.01-.03-.05-.03-.05 0-.12.04l-.14.08-.13.11-.08.1-.07.1-.09.15q-.04.07-.1.13-.04.06-.09.06l.03.13.03.17.03.17v.13q0 .08.04.15.02.06.02.14l-.01.12-.02.12q0 .05.02.07l.06.03q.06.01.08.06l.03.08.04.07q.03.04.09.04h.05q.05.05.05.12.01.07.05.12.03 0 .03-.02l.02-.03.02-.04h.06l.06.01.04.05.05.04q.02.03.05.03.06 0 .13-.03l.15-.05.14-.06.14-.05q.14-.04.26-.12.13-.08.2-.2l.09-.14q.06-.05.09-.13H52.73l.04.01q.02 0 .02.02 0 .03-.03.05l-.04.03-.05.04q-.02.02-.02.05h.04l.1.02q.08.02.14.06.07.03.12.08.05.04.05.09zm-.24.19q0-.02-.02-.03l-.04-.02q-.02 0-.04.03l-.01.05q0 .02.02.02h.03l.04-.01q.02-.01.02-.04zM57.63 40.06q0 .06-.02.11l-.05.1-.15.01H56.95q-.1 0-.2.03-.1.02-.21.02-.15 0-.16-.15-.04 0-.08.03l-.08.06-.08.06q-.05.03-.1.03-.06 0-.12-.03-.06-.04-.06-.1v-.05l.03-.04.04-.02v-.03-.03l-.04-.03-.03-.02-.01-.05q0-.05.04-.07.04-.03.1-.04l.15-.01.14-.01q.08 0 .13-.02.06-.01.08-.06l.05-.14.03-.18.02-.19v-.16-.3l-.05-.3q-.01-.07-.04-.13l-.02-.14q0-.04.02-.07l.02-.07.04-.05.01-.05q0-.06-.03-.1l-.06-.1-.02-.1-.02-.1-.05-.06-.05-.06-.06-.06q-.03-.02-.04-.06l-.23-.01q-.15 0-.28.02-.13.02-.25.06-.11.05-.22.13-.1.08-.2.2l-.08.1-.1.1-.08.1q-.04.06-.05.12l-.05.3-.02.32v.1l.04.1.02.09q.02.04.02.1l-.02.08-.03.13-.05.12q-.02.05-.04.05 0 .02.04.06l.1.08.1.06q.05.03.08.03h.11q.07 0 .15.03.07.03.13.08.05.04.06.08.01.03-.06.03h-.07l-.05-.01-.03-.04q0-.03-.02-.04 0-.03-.03-.03-.02 0-.03.03v.03q0 .03.03.07l.06.06.06.07.02.08v.02H55.15l-.06-.01-.06.02-.07.06-.12.05q-.07.03-.2.03-.04 0-.06-.04l-.03-.08-.03-.09q-.02-.03-.07-.03-.03 0-.05.02l-.02.04.02.03.03.05.01.05.02.04h-.16l-.09.03-.08.02-.1.01-.07-.01-.08-.03q-.06-.03-.12-.03t-.11-.02q-.05 0-.09-.04-.03-.04-.03-.13l.02-.12q.02-.06.06-.1.04-.05.09-.08.05-.03.11-.03l.08.02.08.02q.03 0 .05-.02l.05-.05.04-.04q.02-.03.06-.04 0-.18.03-.35.02-.18.02-.37 0-.17-.03-.35-.03-.17-.03-.35 0-.11.03-.22.03-.1.03-.2 0-.07-.03-.12-.02-.05-.02-.11 0-.05.02-.07l.03-.06h-.01q-.04 0-.04-.05t.03-.05l.02.01-.01-.05-.04-.06-.03-.06-.02-.06.05-.12.01-.11v-.1-.12q0-.08.02-.15.03-.07.03-.14 0-.05-.02-.06-.02-.02-.05-.02h-.04v-.11l-.04-.16q-.02-.07-.06-.12-.04-.05-.1-.05h-.16q-.07 0-.13-.03t-.1-.09q-.05-.05-.08-.12-.02-.06-.02-.13t.04-.08q.04-.02.09-.02h.18q.04-.01.07-.04l.2-.02.22-.01q.06 0 .1.03l.09.06.09.07q.04.03.1.04 0 .08-.02.15v.15q0 .07.02.13.03.07.03.14l-.01.02h-.03q-.02 0-.03.02l-.01.04v.06l.04.06.02.05.01.06-.02.1-.01.1v.15l.04.2.06.16q.04.08.1.08.07 0 .13-.04.07-.03.13-.08l.12-.1q.05-.07.1-.11.03-.03.12-.06l.2-.04.2-.04.14-.02q.11 0 .16.02.05.01.09.04l.07.06.11.07.07.03h.06l.06.03q.03.01.06.05l.1.13q.08.06.14.14.06.07.1.15.04.08.04.16l-.02.1-.02.1q0 .04.02.07.02.03.02.07v.1l-.02.13q0 .07-.03.13l-.03.09q.05.09.06.18l.02.2-.01.24-.01.23q0 .17.05.25.04.1.11.14l.16.06.15.06q.08.02.12.08.05.05.05.16zM61.7 39.62l-.01.11-.04.11-.02.08q0 .03-.02.05 0 .03-.03.05l-.07.04-.22.11q-.11.06-.23.06-.1 0-.2-.05l-.15-.1-.14-.1q-.06-.06-.1-.06-.04 0-.08.03l-.06.05-.07.05q-.04.02-.1.02l-.1.02-.1.04-.11.05-.1.03q-.15.04-.31.05H59l-.18-.01-.15-.05q-.07-.04-.07-.1v-.02q-.02.03-.05.04-.03.02-.07.02-.05 0-.13-.07l-.16-.18-.12-.2q-.05-.1-.05-.15l.02-.06.02-.07-.01-.1-.01-.09.02-.13.06-.14.08-.14.06-.12q.04-.07.1-.11l.13-.08.14-.06q.07-.03.12-.08.05.06.13.06.09 0 .17-.03l.17-.02.13.01.14.01.1-.01q.05-.02.1-.07.06-.05.14-.07l.17-.05.19-.03.16-.05q.07-.03.12-.09.04-.06.04-.16t-.06-.23q-.06-.12-.16-.22t-.22-.17q-.12-.07-.24-.07h-.02l-.03.01-.18.02q-.1 0-.2.03-.09.03-.15.09t-.06.17l.01.14.01.14q0 .1-.05.17t-.12.1q-.08.05-.17.07l-.18.01q-.1 0-.18-.03-.08-.02-.13-.12l-.08-.16q-.04-.09-.04-.17 0-.1.03-.17l.08-.16.08-.16q.04-.08.06-.17l.06-.02.1-.03.09-.03q.05 0 .08-.02l.16-.05.16-.07.16-.04q.08-.03.17-.03h.1q.15 0 .3.03.16.02.31.08.15.05.28.13.13.08.24.2.07.08.12.19.05.1.08.23l.04.25.02.24-.02.28v.28l.01.28.04.27.03.27.02.27q0 .09.02.1l.04.02q.07 0 .12-.04l.08-.1.09-.11q.04-.05.1-.05h.07q.04 0 .06.02l.05.03.02.06zm-1.13-.85v-.08-.1l-.03-.1q-.02-.04-.05-.04h-.01l-.02.01-.22.12-.19.08q-.09.03-.2.04h-.25l-.12.02-.2.05-.2.04-.13.03-.06.03-.03.04-.02.04q-.01.03-.04.05-.03.03-.07.04l-.08.06-.1.13q-.04.09-.04.16 0 .1.05.17t.13.12l.18.1.2.05.2.03.16.01h.2l.22-.05q.12-.02.22-.07.1-.04.16-.11l.03-.05.02-.05.03-.04q.01-.03.05-.06.08-.06.12-.14l.07-.17q.02-.08.02-.18v-.18zM65.74 37.71q0 .07-.03.12l-.06.1-.07.08q-.03.04-.04.1l-.06-.01H65.24q-.07.02-.15.02-.1 0-.16-.06t-.1-.14q-.03-.08-.04-.17l-.02-.18q0-.1.03-.2h-.04q-.05 0-.07.03-.02.02-.05.02l-.06-.02q-.02-.02-.06-.02-.05 0-.13.03-.07.03-.14.09l-.13.1q-.05.07-.05.12-.08 0-.14.04l-.12.07q-.05.03-.08.09l-.06.13-.05.13q-.02.07-.06.11l-.1.16q-.04.08-.04.17 0 .12.04.25.03.12.03.25l-.01.16-.01.16q0 .1.03.16.04.06.1.1l.13.03.16.01h.31q.03.02.03.05v.05l-.02.05v.09q.06 0 .1-.02l.05-.08.04.02.02.04V40l-.03.03-.03.04V40.15q-.01.03-.04.04l-.06.01-.1-.01-.06-.04-.05-.04-.06-.02-.04.01-.06.02q-.03 0-.05.02l-.02.03q0 .03.02.05.02.02.02.05l-.02.04-.04.01-.05.01h-.04q-.14 0-.27-.03-.13-.02-.27-.02l-.12.02q-.06.03-.13.03-.04 0-.06-.02l-.03-.03-.03-.04-.05-.01-.13.01-.13.03-.13.03-.13.01-.08-.01q-.05 0-.1-.03l-.07-.05q-.03-.03-.03-.08l.03-.07.08-.08.08-.08.06-.03h.22q.1 0 .19-.02.1-.03.17-.09.08-.05.13-.14.05-.08.05-.18l-.01-.09v-.09l.01-.18.02-.18-.02-.24q-.03-.13-.03-.26v-.22l.01-.23v-.15l-.02-.2q-.02-.1-.06-.17-.04-.08-.11-.08-.08 0-.15.02l-.16.01h-.13l-.16-.04q-.07-.02-.12-.07-.05-.05-.05-.13 0-.09.02-.14l.06-.08.1-.04H62.5l.22-.01q.1-.02.22-.02l.15.01q.08 0 .15.03.06.02.1.08l.05.11.06.11q.04.05.11.05.04 0 .07-.02l.05-.05.06-.04.06-.03q.08 0 .14-.05l.13-.07.12-.07q.07-.03.14-.03l.11-.01.14-.03.13-.05.1-.06q.09 0 .21.04.13.04.24.1.12.07.2.16.1.08.1.19l.04.12.06.12.05.12q.03.05.03.12z" style="-inkscape-font-specification:'Special Elite';text-align:center"/></g><g aria-label="3rd char" style="line-height:1.25;-inkscape-font-specification:sans-serif;text-align:center" font-weight="400" font-size="7.06" font-family="Special Elite" letter-spacing="0" word-spacing="0" text-anchor="middle" stroke-width=".26"><path d="M43.66 49.97v.16q-.01.04-.04.07l-.06.03-.11.07q.07.1.07.2 0 .13-.07.23t-.17.16q-.09.06-.13.16l-.1.18q-.13 0-.24.06-.11.05-.22.13-.06.04-.11.05l-.12.01h-.13l-.12-.01q-.11 0-.22.03-.1.04-.22.04l-.14-.02-.17-.04-.18-.05-.13-.05q-.11-.05-.2-.12-.1-.08-.2-.13-.05-.13-.12-.24-.07-.12-.17-.2l.03-.1v-.12l-.01-.2-.02-.2q0-.17.1-.31h.02q.06 0 .11-.02l.12-.02.16.02q.09.03.14.08.07.05.1.13.04.07.04.16v.1l-.04.1q-.01.06-.04.1-.04.04-.08.04-.03 0-.05-.02-.03-.01-.04-.04v.12l.03.15q.02.08.05.13.04.06.1.05h.1l.22.02q.11.03.23.03l.2.01.18.02q.13 0 .24-.04.11-.03.2-.1.1-.05.19-.13l.18-.16q.03-.04.03-.07v-.04-.03q0-.04.04-.1l.09-.11.09-.15q.04-.08.04-.18 0-.08-.02-.15-.03-.08-.03-.17 0-.07-.03-.12l-.07-.1-.07-.12q-.04-.05-.04-.12V49l.01-.03-.2-.06-.2-.08-.21-.07q-.1-.04-.15-.04-.13 0-.26.03t-.26.03q0-.02.03-.03l.06-.03.06-.03q.03-.02.03-.04 0-.03-.05-.05l-.06-.02q-.04 0-.07.02l-.07.03-.06.04-.07.01-.05-.01-.04-.04v.03q0 .06.04.09.03.03.09.03h.02q-.04.06-.1.11-.04.04-.12.04H41q0-.13.07-.27.07-.15.17-.28l.2-.25.22-.2.07-.04.05-.03.04-.04.04-.08q.03-.07.08-.12l.1-.1.1-.1.08-.12.1-.03.09-.04.09-.05.07-.07q0-.13-.1-.17-.09-.04-.2-.04-.07 0-.15.03-.06.03-.14.03-.06 0-.1-.02-.06-.03-.11-.03l-.06.02-.05.01h-.05l-.05-.01-.02.01q0 .02-.03.02H41.3q-.12 0-.2.08-.08.09-.08.2v.12q.02.05.02.11l-.02.1-.05.11q-.03.05-.08.08t-.1.03q-.06 0-.12-.03l-.1-.07v-.01-.06l.04-.06.04-.06.01-.07q0-.04-.02-.06-.03-.03-.03-.07l.02-.1.02-.08q0-.07-.02-.13-.03-.06-.03-.12l.03-.07.06-.1.07-.09q.03-.04.05-.04l.07.01.06.01q.1 0 .19-.02l.2-.02h.15l.17.01q.17 0 .33-.03.16-.04.33-.04l.11.01h.11l.25-.02q.12-.02.25-.02l.12.01q.06.01.11.04v.14l.03.04.02.04.02.05q0 .03-.05.1l-.1.15-.13.17-.08.13q-.01.04-.05.07l-.07.04-.08.03q-.04 0-.07.03l-.12.11-.12.17q-.06.08-.1.17-.04.09-.04.15 0 .03.03.07l.1.08.1.07.08.06q.03.04.07.04l.07.01q.04 0 .07.02.04 0 .07.05l.06.06.07.06.05.07q.03.03.03.08h.14v.1q.1.06.11.1.03.04.03.08v.02l.01.05q.08.07.1.14.04.07.05.14.02.07.02.15l.05.17.03.12.01.13zm-1.97-3.2q0-.03-.02-.04-.01-.02-.04-.02t-.04.04v.06-.01.01h.06q.04-.02.04-.05zM47.96 48.84q0 .07-.03.12l-.06.1-.07.08-.04.1h-.07l-.06-.01-.17.01-.16.01q-.09 0-.15-.05-.06-.06-.1-.14l-.04-.18-.02-.17q0-.1.03-.2h-.05q-.04 0-.06.02-.02.03-.05.03l-.06-.02q-.02-.03-.06-.03-.05 0-.13.04l-.15.08q-.07.05-.12.11-.05.06-.05.12-.08 0-.14.04l-.12.07q-.05.02-.08.08l-.06.13-.05.13q-.02.07-.06.12-.06.07-.1.15-.04.08-.04.17 0 .13.04.25.03.12.03.25l-.01.17-.01.16q0 .1.03.15.04.06.1.1.06.03.13.04h.47q.03.03.03.05v.05q0 .03-.02.05v.1q.06 0 .1-.03.03-.02.05-.07l.04.02q.02.01.02.04l-.01.04-.02.03-.03.04v.1q-.01.03-.04.04h-.07l-.09-.01-.06-.04-.06-.04-.05-.01h-.05l-.05.02-.05.03q-.02.01-.02.03l.02.04q.02.02.02.05 0 .03-.02.04l-.04.02h-.09q-.14 0-.27-.02-.13-.03-.27-.03-.06 0-.12.03-.06.02-.13.02l-.06-.01-.03-.04-.03-.04-.05-.01-.14.01-.12.03-.13.03-.13.01h-.08l-.1-.03-.07-.06q-.03-.03-.03-.07 0-.03.03-.07l.08-.1.08-.07.06-.03h.22q.1 0 .19-.02.1-.03.17-.09.08-.05.13-.13.05-.09.05-.19l-.01-.09v-.08l.01-.18.02-.18-.02-.25q-.03-.13-.03-.25v-.23l.01-.22v-.16q0-.1-.03-.2-.01-.1-.05-.17-.04-.08-.11-.08-.08 0-.15.02l-.16.02h-.14l-.15-.04q-.07-.03-.12-.08-.05-.05-.05-.13t.02-.13l.06-.09q.04-.03.1-.04H44.72l.22-.01.22-.01h.15l.15.03q.06.02.1.08l.05.12.06.1q.04.05.11.05.04 0 .06-.02l.06-.04.06-.05.06-.03q.08 0 .14-.04l.13-.08.12-.07q.07-.03.14-.03l.11-.01.14-.03.13-.05q.06-.02.1-.06.09 0 .2.05.14.03.25.1.12.06.2.15.09.08.1.2l.04.12.06.11.05.12q.03.06.03.12zM52.27 51.21l-.02.1q-.03.04-.08.04l-.07-.01-.06-.01q-.06 0-.06.02l-.01.04q0 .03-.05.05-.04.02-.18.02l-.16-.01-.15-.01-.13.01-.06-.05-.07-.04-.04-.04q-.03-.03-.03-.08 0-.04-.04-.04h-.1l-.01-.03v-.01q-.07 0-.1.05l-.09.09-.07.05-.07.02-.07.03-.08.05q-.03.04-.1.05l-.16.02-.16.01h-.12l-.17-.01-.1-.04-.11-.06-.14-.06q-.1-.02-.23-.1-.13-.07-.25-.17t-.2-.22q-.08-.11-.08-.22 0-.05-.03-.1l-.05-.1-.07-.09-.05-.09q-.07-.13-.09-.27l-.01-.3q0-.13.02-.25l.05-.24.06-.24.06-.24q.02-.09.05-.13l.07-.09.08-.06q.05-.03.1-.1l.03-.03v-.03q.01-.02.03-.02h.06q.03 0 .04-.03l.03-.04.02-.05.04-.04.05-.02h.07l.06-.02h.06l.12-.06.1-.05.09-.03h.15l.23.02.23.07.22.06q.12.03.24.03.1 0 .15-.04.06-.04.09-.1.03-.07.03-.15l.01-.16-.01-.26-.03-.27-.03.01-.06-.01-.05-.04-.05-.04q-.03-.03-.07-.03-.03 0-.04.03l-.04.03H50.31l-.11-.02-.12-.08-.1-.1q-.03-.05-.03-.1t.03-.1l.07-.09.1-.07.1-.02q.05 0 .08.02.04.02.09.02l.14-.02q.07-.03.15-.03.08 0 .15.03.07.03.15.03h.12l.12-.01.12.01q.07.01.12.04v.02l.01.1.03.1.03.08.01.1q0 .06-.03.11-.03.06-.03.13 0 .12.03.24.03.11.03.23v1.21q0 .32-.03.62-.02.3-.02.62l.01.26q.01.14.06.26.04.13.13.21.09.09.24.09h.06l.06-.01q.05 0 .08.02.04.03.06.07.03.03.04.08l.01.08zm-1.25-1.7q0-.13-.03-.28-.02-.14-.07-.27-.06-.13-.16-.21-.1-.09-.24-.1l-.08-.02-.09-.05-.09-.05q-.04-.03-.07-.03l-.06.02q-.03 0-.06.03l-.05.02-.06.01h-.12l-.1-.01q-.18 0-.32.1t-.24.26q-.1.15-.15.33-.06.18-.06.33l.01.12.01.12q0 .04-.02.07-.02.03-.06.05l-.05.06q-.02.03-.02.07h.03q.09 0 .14.03.05.03.07.09.03.05.04.12l.04.14q.02.07.06.13.04.07.12.12l.12.08.14.09.15.06q.07.03.14.03.11 0 .22-.03.1-.04.22-.04l.09.01q.08-.12.18-.23.1-.12.26-.16v-.08l.02-.22.06-.22.05-.24q.03-.12.03-.26zM41.6 59.47q0 .03-.03.05l-.05.03-.06.04-.05.07-.04.06q-.01.04-.04.07-.04.07-.13.1l-.17.05-.15.07q-.06.04-.08.15h-.02q-.08 0-.14.02l-.14.06q-.06.04-.13.06-.07.03-.15.03l-.08-.01-.07-.03-.07-.03-.08-.02h-.1l-.1.02-.1-.02-.1-.02-.07-.05q-.03-.04-.03-.09v-.02l-.04.02h-.04q-.1 0-.19-.04-.09-.05-.17-.12l-.14-.14-.13-.15q-.08-.07-.12-.18l-.1-.2q-.13-.2-.16-.4-.02-.2-.02-.43v-.1q0-.05.02-.07l.04-.03.04-.02q.02 0 .03-.02l.01-.03-.02-.08q-.02-.04-.02-.1v-.05l.04-.05q.03-.05.05-.15l.05-.21.07-.19q.04-.08.1-.08l.1.01q.03.02.08.02l.08-.01v-.03q0-.04-.02-.05l-.06-.02h-.05q-.03-.01-.03-.04 0-.02.02-.03l.04-.03.06-.03q.03 0 .04-.02l.05-.05.02-.05.04-.04q.02-.02.08-.03l.1-.01h.1l.09-.01.1-.02-.04-.03q.02-.04.05-.05l.07-.03.08-.01h.07q.12 0 .23.02.12.03.23.03h.1q.04-.02.1-.02.06 0 .13.04l.12.06h.01q.03 0 .05-.02l.05-.02.02.02.02.02q.03.03.08.04.04.01.06.04l.06.06.06.02.06.01q.04 0 .07.03v.1l.13.14q.06.04.1.1.05.04.08.12.02.07.02.21 0 .15-.02.27-.03.11-.1.19-.05.08-.16.12-.1.03-.27.03h-.22l-.08-.13-.1-.16-.1-.17-.03-.12v-.1l.01-.1q-.02-.07-.06-.11-.04-.05-.1-.07l-.1-.03h-.13l-.18.01-.16.04q0-.03-.02-.05-.02-.03-.05-.03-.05 0-.12.04-.07.03-.14.09l-.13.1-.09.1-.06.11-.09.14-.1.14q-.05.05-.09.05l.03.13.03.17.03.18v.12q0 .08.03.15.03.07.03.15l-.02.11v.19q.02.02.07.03.06.02.08.06l.03.09.04.07q.03.03.08.03h.06q.04.05.05.12.01.07.05.12.03 0 .03-.02l.02-.03q0-.02.02-.03.02-.02.06-.02l.06.02.04.05.04.05.06.02.13-.02.15-.05.14-.07.13-.04q.15-.05.27-.13.12-.07.2-.2l.09-.13.09-.13h.06l.08-.01h.08l.04.01.02.02q0 .03-.03.05l-.04.04-.05.03q-.02.02-.02.05h.04l.1.02q.08.02.14.06.07.03.12.08.05.04.05.1zm-.25.2q0-.03-.02-.04l-.04-.02q-.02 0-.04.03l-.02.05q0 .02.03.02h.06q.03-.02.03-.05zM46.12 60.01l-.02.12-.05.1h-.15l-.16.01h-.3l-.2.02q-.1.02-.22.02-.14 0-.15-.15-.05 0-.08.03l-.08.06-.08.06q-.05.03-.1.03-.06 0-.13-.03-.05-.04-.05-.1v-.05l.03-.03.03-.03q.02-.01.02-.03l-.02-.03-.03-.02-.03-.03-.01-.04q0-.06.04-.08.04-.03.1-.04l.14-.01h.15l.13-.02q.06-.02.08-.06l.05-.15.03-.18.02-.18v-.17-.3l-.05-.3-.04-.13q-.02-.06-.02-.13 0-.05.02-.08l.02-.06.04-.06v-.05q0-.06-.03-.1l-.05-.1-.02-.1q0-.05-.03-.1l-.04-.06-.06-.05q-.02-.04-.05-.06-.03-.03-.04-.07h-.23l-.29.01q-.12.02-.24.07l-.22.12q-.1.08-.2.2l-.08.1-.1.1-.08.11-.05.1-.06.32-.01.32v.1l.04.09.02.1q.02.04.02.09l-.02.09-.03.12-.05.12q-.02.05-.04.05l.04.07.1.07.1.07.08.02h.11q.07 0 .14.03l.14.08q.05.04.06.08.01.04-.06.04h-.07q-.04 0-.05-.02l-.03-.04-.02-.04q0-.02-.03-.02-.02 0-.03.02v.03q0 .03.03.07l.05.06.07.08q.02.03.02.07l-.01.02-.03.01-.07-.01-.06-.01-.06.02-.07.06-.12.06q-.07.02-.2.02-.04 0-.06-.03l-.03-.09-.03-.08q-.02-.04-.07-.04-.03 0-.05.02l-.02.04.02.03.03.05.01.06.02.04h-.16l-.09.02-.08.03h-.1l-.08-.01-.07-.03q-.06-.03-.12-.03l-.11-.01q-.05-.01-.09-.05-.03-.04-.03-.13l.02-.12.06-.1q.04-.05.09-.07.05-.04.11-.04l.08.02.08.02q.03 0 .05-.02l.04-.04.05-.05q.02-.03.05-.03 0-.19.04-.36l.02-.36q0-.18-.03-.35-.03-.18-.03-.36 0-.1.03-.21.03-.1.03-.22 0-.05-.03-.1-.03-.06-.03-.12 0-.04.03-.07l.03-.06h-.01q-.05 0-.05-.05t.04-.05l.02.01-.01-.05-.04-.06-.03-.05-.02-.06.05-.13.01-.11v-.1-.12q0-.08.02-.14.03-.07.03-.15 0-.04-.02-.06-.02-.02-.05-.02h-.04l-.01-.11q0-.08-.03-.15-.02-.08-.06-.13-.04-.05-.1-.05H42.25q-.06 0-.12-.03t-.1-.09q-.05-.05-.08-.12-.03-.06-.03-.12 0-.07.05-.09.04-.02.09-.02h.18q.04-.01.07-.04l.2-.02h.22q.06 0 .1.02l.09.07.09.06q.04.03.1.04 0 .08-.02.15v.15l.02.14q.03.06.03.13l-.01.02h-.03q-.02 0-.03.02l-.01.05v.06l.04.05.02.05.01.06q0 .06-.02.1l-.01.1v.15l.04.2q.02.1.06.17.04.07.1.07.07 0 .13-.03l.13-.09.11-.1.1-.1q.04-.03.13-.06l.2-.05.2-.04.14-.01.16.01.09.04.07.06q.03.04.11.08l.07.02.06.01.06.02.06.05.1.13q.08.06.14.14l.1.15q.04.08.04.16l-.02.1-.02.1q0 .04.02.07.02.03.02.07v.1l-.02.13-.03.13q-.01.06-.04.1.06.08.07.17l.02.2-.01.24-.01.24q0 .16.04.25.05.08.12.13.07.05.16.07l.15.05q.07.03.12.08.05.05.05.16zM50.2 59.58q0 .05-.03.1l-.03.11-.02.08-.02.06q0 .02-.03.04L50 60l-.22.11q-.12.06-.23.06-.1 0-.2-.05-.08-.04-.15-.1l-.14-.1q-.06-.05-.1-.05l-.08.02-.06.05-.07.05q-.04.03-.1.03l-.1.01-.1.05-.11.04-.1.04q-.15.04-.31.04l-.32.01h-.12l-.18-.02q-.08-.01-.15-.05-.07-.03-.07-.1v-.02l-.05.05-.07.01q-.05 0-.13-.07l-.16-.18-.12-.2q-.05-.1-.05-.14 0-.04.02-.07.02-.03.02-.07l-.01-.09-.01-.1.02-.12.06-.15.07-.13.07-.13q.04-.07.1-.11l.13-.07.14-.06q.07-.04.12-.09.05.06.13.06.09 0 .17-.02.08-.03.17-.03l.13.01.14.02q.07 0 .1-.02l.1-.07q.05-.05.14-.07.08-.03.17-.04l.19-.04q.09-.01.16-.05.07-.03.12-.09.04-.05.04-.15 0-.11-.06-.23-.06-.13-.16-.23t-.22-.17q-.13-.06-.24-.06h-.05q-.08.02-.18.02-.1 0-.2.03-.09.03-.15.1-.06.05-.06.17l.01.13.01.14q0 .1-.05.17t-.13.11q-.07.04-.16.06l-.18.01q-.1 0-.18-.02-.08-.03-.13-.13l-.08-.16q-.04-.08-.04-.17 0-.1.03-.17l.08-.16.08-.15q.04-.08.05-.17l.07-.03.1-.03.09-.02.08-.03.16-.05.16-.06.16-.05.17-.03h.1q.15 0 .3.03.16.02.3.08.16.05.29.14.13.07.24.19.07.08.12.2.05.1.08.23.03.12.04.25l.01.23v.28l-.01.29.01.27.04.27.03.28q.02.13.02.27 0 .08.02.1l.04.02q.07 0 .12-.05l.08-.1q.04-.06.09-.1.04-.06.1-.06h.07q.04 0 .06.02.03.01.05.04l.01.06zm-1.14-.86v-.07-.1l-.03-.1q-.02-.05-.05-.05l-.01.01h-.02l-.23.13-.18.07-.2.04-.25.01-.12.02-.2.04-.2.04-.13.03-.06.03-.03.04-.02.05-.04.04-.07.05q-.04.01-.08.05-.05.05-.1.14-.04.08-.04.16 0 .09.05.16t.13.12q.08.06.18.1l.2.05.2.03.16.01h.2l.22-.04q.12-.03.22-.08.1-.04.15-.11l.04-.05.02-.04.03-.05q.01-.03.05-.05.08-.07.12-.15l.06-.16q.03-.09.03-.18v-.2zM54.23 57.66q0 .07-.03.12l-.06.1-.07.08-.04.1-.07-.01h-.06l-.17.01-.15.01q-.1 0-.16-.05-.06-.06-.1-.15-.03-.08-.04-.17l-.02-.17q0-.1.03-.2l-.05-.01q-.04 0-.06.03-.02.03-.05.03-.03 0-.06-.03-.02-.02-.06-.02-.05 0-.13.03l-.15.09q-.07.05-.12.11-.05.06-.05.12-.08 0-.14.04l-.12.07q-.05.02-.08.08l-.06.13-.05.13q-.02.07-.06.12-.06.07-.1.15-.04.08-.04.17 0 .12.04.25.03.12.03.25l-.01.17-.01.16q0 .1.03.15.04.06.1.1.06.03.13.04h.47q.03.02.03.05v.05l-.02.05v.1q.06 0 .1-.03.03-.02.05-.07l.04.02q.02.01.02.04l-.01.04-.02.03-.03.04v.1l-.04.04h-.07l-.09-.01-.06-.04-.06-.04-.05-.01h-.05l-.05.02-.05.03-.02.02q0 .03.02.05.02.02.02.05 0 .03-.02.04l-.04.02h-.09q-.14 0-.27-.02-.13-.03-.27-.03-.06 0-.12.03-.06.02-.13.02l-.06-.01-.03-.04-.03-.04-.05-.01-.13.01-.13.03-.13.03-.13.01h-.08l-.1-.04-.07-.05q-.03-.03-.03-.07 0-.03.03-.08l.08-.08.08-.08.06-.03h.22q.1 0 .19-.02.1-.03.17-.09.08-.05.13-.13.05-.09.05-.19l-.01-.09v-.09l.01-.17.02-.18-.02-.25q-.03-.13-.03-.25v-.23l.01-.22v-.16q0-.1-.03-.2-.01-.1-.05-.17-.04-.08-.11-.08-.08 0-.15.02l-.16.02-.14-.01-.15-.03q-.07-.03-.12-.08-.05-.05-.05-.13t.02-.14l.06-.08.1-.04H50.99l.22-.01.22-.01h.15q.08 0 .15.03.06.02.1.08l.05.12.06.1q.04.05.11.05.04 0 .06-.02l.06-.04.06-.05.06-.03q.08 0 .14-.04l.13-.08.12-.07q.07-.03.14-.03l.11-.01.14-.03.13-.05q.06-.02.1-.06.09 0 .21.05.13.03.24.1.12.06.2.15.09.08.1.2.01.06.04.11l.06.12.05.12q.03.06.03.12z" style="-inkscape-font-specification:'Special Elite';text-align:center"/></g><g aria-label="4th char" style="line-height:1.25;-inkscape-font-specification:sans-serif;text-align:center" font-weight="400" font-size="7.06" font-family="Special Elite" letter-spacing="0" word-spacing="0" text-anchor="middle" stroke-width=".26"><path d="M21.11 51.25l-.05-.02-.05-.01h-.03l-.01.03q-.01.02-.08.04l-.15.02h-.4q-.08-.02-.14-.06-.05.03-.12.03h-.07q-.06 0-.1.03l-.08.02h-.06l-.05-.03-.05-.03-.04-.02-.04.02-.02.03-.02.04-.02.04q-.01-.03-.04-.04h-.07l-.06-.01q-.02-.01-.02-.05h-.06q-.02-.01-.02-.03l.01-.06q.02-.03.02-.07v-.04h-.04q-.04 0-.07.02l-.04.06-.04.07q-.02.03-.06.05-.06 0-.11.02l-.11.02-.08-.02-.08-.04q-.03-.02-.05-.06l-.02-.08.02-.1q.02-.05.06-.08.07-.08.17-.1l.19-.03.18-.01q.1-.02.16-.07.08-.07.12-.2.04-.12.04-.36v-.12l-.15.01q-.18 0-.36-.03t-.36-.03l-.2.02q-.08.03-.18.03l-.2-.02-.18-.01h-.1l-.08.04-.08.02-.06.01h-.11q-.07 0-.12-.03-.06-.02-.1-.06-.05-.04-.06-.1l-.04-.12q-.02-.06-.02-.13l.01-.04.03-.07.03-.09.01-.1.02-.08.04-.1.05-.08.05-.07.05-.03.05-.02q.03 0 .05-.02.03 0 .05-.03.03-.02.04-.05l.04-.07.04-.06.05-.05.06-.04q.03-.02.03-.05l-.01-.06-.01-.05v-.03-.03q.08-.02.13-.06l.1-.1.06-.1.08-.12q.07-.12.17-.22l.2-.18q.07-.06.1-.12l.08-.13q.03-.06.08-.11.05-.06.13-.09l-.01-.05q0-.06.03-.09l.08-.07.1-.1.07-.1.08-.09.14-.08.08-.07v-.06l.04-.05q.02-.02.1-.02t.15.02q.08.02.14.07.06.04.1.1.03.07.03.16l-.02.16-.02.16q0 .06.02.11l.01.12q0 .11-.09.18.02.02.04.11l.06.2.04.22.02.13q0 .06-.03.12t-.03.12l.02.12.02.13-.02.23-.01.22v.1l.02.12q.01.05.05.09.03.04.09.05l.2.05.22.02.2.03q.1 0 .16.03.03 0 .04.04l.03.05.01.08V49.9l-.04-.01-.08.01-.05.04-.04.03-.03.01-.05-.07-.05-.07q-.04.02-.04.06v.07q0 .04-.02.06-.01.02-.06.02h-.13l-.12-.01q-.16 0-.24.07-.08.07-.08.24 0 .09.03.17l.07.15.07.1.03.06q.04-.03.11-.03h.09q.04.02.09.02.06 0 .1-.04l.07-.03.12.02.1.03q0 .03.03.04l.04.03.05.03q.03.02.03.06v.05l-.01.05.02.08q.02.04.02.09zm-1.36-3.65l-.03-.06-.04-.06-.05-.1-.03-.08q-.02-.05-.06-.07-.03-.03-.1-.03v.04q-.07.04-.11.1l-.1.12q-.03.06-.08.11-.04.05-.1.07v.04q0 .06-.03.11l-.06.1-.09.08-.1.06-.06.07-.04.06-.04.07q-.02.03-.06.05l-.06.04-.01.03-.01.05-.01.05-.06.1-.05.09-.06.1-.08.08-.08.06-.07.09-.05.08-.08.14-.07.13-.03.09q0 .03.03.05l.07.04.1.01h.58q.07.02.12.07l.03.05q.02.02.05.02h.04l.04-.03q.02-.02.07-.03l.13-.01.07-.01.1-.04.11-.04.1-.03.1-.36q.06-.18.06-.37l-.01-.17-.01-.18.01-.1.02-.09.03-.09.01-.1-.02-.09-.01-.1v-.05l.03-.06.04-.06.01-.04zm.19 2.83q-.02-.03-.05-.04h-.06l-.04.01q0 .03.02.05l.02.04.07-.01q.04-.01.04-.05zm-1.78-1.66q0-.02-.02-.03 0-.02-.03-.02t-.04.04v.06h.05q.04-.01.04-.05zM24.79 50.18q0 .11-.03.21l-.05.2-.07.19-.05.2q-.03.17-.12.28-.1.12-.22.18-.14.07-.3.1l-.32.06-.34.02q-.16 0-.3.02-.05-.03-.08-.08l-.07-.08-.07-.07q-.04-.02-.1-.02-.02 0-.03-.06l-.02-.13-.03-.12q0-.06-.03-.06-.08 0-.13-.04-.04-.03-.07-.08l-.03-.12-.01-.13-.02-.1-.05-.07-.04-.08q-.02-.04-.02-.09v-.13l.01-.16.01-.16v-.13q0-.06.02-.1l.04-.08.04-.05.01-.06q0-.04-.02-.07-.02-.02-.02-.05 0-.04.03-.07l.03-.08q.04-.15.04-.3v-.06-.06q-.08-.06-.18-.08l-.2-.03-.18-.02q-.09-.01-.15-.07l-.1-.11q-.04-.06-.1-.08l-.09-.05q-.03-.03-.03-.08 0-.09.05-.13l.12-.07.14-.04q.08-.02.13-.06.05-.04.12-.04h.12q.09 0 .15-.02.05-.03.09-.08.03-.05.04-.12l.01-.14-.01-.21-.01-.22q0-.12.03-.23.03-.1.13-.2l.05-.04.05-.05.05-.05q.03-.02.07-.02l.03.01.03.02q.08.08.1.12.02.03.02.08v.15q0 .1.03.21.03.1.03.19 0 .06-.03.12-.02.06-.02.13l.02.09.05.07.05.08q.03.04.03.1.03.02.15.04l.27.03.3.01.25.01.14.01.08.04.06.03.07.02q.06 0 .1.03.04.02.04.08 0 .09-.05.14l-.1.07-.14.03h-.33l-.2-.01q-.17 0-.3.03-.14.03-.24.1-.1.07-.15.2-.05.11-.05.3l.02.34q.02.16.02.34v.27q.01.1.05.16l.07.23.07.24q.05.12.12.2.08.07.23.07l.14-.01.17-.04q.09-.03.15-.08t.06-.12q0-.05-.03-.11-.04-.07-.04-.13 0-.05.02-.09l.06-.06.08-.05.08-.05q.06-.07.15-.13.09-.05.18-.05l.14.02.12.06v.13zM29.18 51.24q0 .06-.03.11-.01.06-.04.1l-.16.01H28.5q-.11 0-.21.03-.1.02-.21.02-.14 0-.15-.15-.05 0-.09.03l-.07.06-.09.06q-.04.03-.1.03-.06 0-.12-.03-.06-.04-.06-.1l.01-.05.03-.04.03-.02.01-.03-.01-.03-.03-.03-.04-.02v-.05q0-.05.03-.07.04-.03.1-.04l.15-.01.15-.01q.07 0 .13-.02.05-.01.07-.06.04-.06.06-.14l.03-.18.01-.19.01-.16-.01-.3-.04-.3-.04-.13-.02-.14.01-.07.03-.07.03-.05.01-.05q0-.06-.03-.1l-.05-.1-.03-.1-.02-.1-.04-.06-.06-.06-.05-.06q-.03-.02-.05-.06l-.23-.01q-.15 0-.28.02-.13.02-.24.06-.12.05-.22.13t-.2.2l-.08.1-.1.1-.09.1-.04.12q-.04.13-.06.3l-.02.32.01.1.03.1.03.09.01.1-.01.08-.04.13-.04.12q-.02.05-.05.05 0 .02.05.06l.1.08.1.06.07.03h.12q.06 0 .14.03.08.03.13.08.06.04.07.08 0 .03-.07.03h-.07l-.05-.01-.02-.04-.02-.04q-.01-.03-.04-.03-.02 0-.02.03v.03l.02.07.06.06.06.07q.03.04.03.08l-.01.02h-.1l-.07-.01q-.03 0-.05.02l-.08.06q-.04.03-.11.05-.08.03-.2.03-.05 0-.07-.04l-.03-.08-.03-.09q-.02-.03-.07-.03l-.04.02-.03.04q.02 0 .03.03l.02.05.02.05.01.04h-.16l-.08.03-.09.02-.09.01-.08-.01-.07-.03q-.06-.03-.12-.03l-.12-.02q-.05 0-.08-.04t-.03-.13l.02-.12q.02-.06.06-.1.03-.05.09-.08.05-.03.1-.03t.08.02l.08.02q.04 0 .06-.02l.04-.05.04-.04.06-.04q0-.18.03-.35.03-.18.03-.37 0-.17-.04-.35-.03-.17-.03-.35 0-.11.03-.22.03-.1.03-.2 0-.07-.03-.12-.02-.05-.02-.11 0-.05.02-.07l.04-.06h-.01q-.05 0-.05-.05t.03-.05l.03.01q0-.03-.02-.05l-.03-.06-.04-.06-.01-.06.04-.12.02-.11v-.1l-.01-.12q0-.08.03-.15.03-.07.03-.14 0-.05-.02-.06-.02-.02-.05-.02h-.05v-.11l-.03-.16q-.02-.07-.06-.12-.04-.05-.1-.05H25.3q-.07 0-.13-.03t-.1-.09q-.05-.05-.07-.12-.03-.07-.03-.13 0-.07.04-.08.04-.02.1-.02H25.28q.04-.01.07-.04l.21-.02.21-.01q.06 0 .1.03l.1.06.08.07.1.04-.01.15-.01.15q0 .07.02.13.04.07.04.14 0 .02-.02.02h-.03l-.03.02v.1l.03.06.03.05v.06l-.01.1-.02.1.01.15.04.2q.02.09.06.16.04.08.1.08.06 0 .13-.04l.12-.08.12-.1q.05-.07.1-.11.03-.03.12-.06l.2-.04.2-.04.14-.02q.12 0 .17.02.05.01.08.04.04.02.07.06l.12.07.06.03h.07l.05.03q.04.01.06.05l.11.13q.07.06.13.14.06.07.1.15.05.08.05.16 0 .05-.03.1l-.01.1.01.07q.02.03.02.07v.1l-.01.13-.03.13-.04.09q.05.09.07.18l.02.2-.02.24v.23q0 .17.04.25.05.1.12.14.07.04.15.06l.16.06q.07.02.12.08.05.05.05.16zM18.57 59.52q0 .03-.03.04l-.04.03-.07.05-.04.06-.04.07-.04.07q-.05.07-.13.1l-.17.05q-.08.02-.15.07-.06.04-.08.14h-.02q-.08 0-.15.03l-.13.06-.13.06q-.07.03-.15.03l-.08-.02-.07-.03-.07-.03-.08-.01h-.1l-.1.01h-.1l-.1-.04-.07-.05q-.03-.03-.03-.08v-.03l-.04.03h-.04q-.1 0-.2-.05-.08-.04-.16-.11l-.14-.14-.13-.15q-.08-.08-.13-.18l-.1-.2q-.12-.2-.15-.4-.03-.21-.03-.44v-.09l.03-.08.04-.02.03-.02q.03 0 .04-.02l.01-.03q0-.05-.02-.09-.03-.04-.03-.09 0-.03.02-.05l.03-.06q.03-.04.05-.14l.05-.21.06-.2q.05-.07.11-.07l.1.01.08.01h.08v-.03q0-.04-.02-.06h-.06l-.05-.02q-.03 0-.03-.03l.02-.04.04-.03.06-.02.04-.02.05-.05.02-.05.04-.05.08-.03h.1l.1-.01h.09l.1-.02-.04-.04.05-.05.07-.03h.08l.07-.01q.12 0 .23.03.12.03.23.03h.1q.04-.02.1-.02.06 0 .13.03l.12.07h.01q.03 0 .05-.02l.05-.02.02.01.02.03q.03.03.08.04.04 0 .06.04.03.04.06.05l.06.02.06.02q.04 0 .07.03v.1q.07.09.13.13l.1.1q.05.05.08.12.02.08.02.22 0 .15-.02.26-.03.12-.1.2-.05.07-.16.11-.1.04-.27.04h-.22l-.08-.13-.1-.17-.1-.16-.03-.12v-.1l.01-.11q-.02-.07-.06-.1-.04-.05-.1-.07l-.1-.03h-.31l-.16.05q0-.03-.02-.05-.02-.03-.05-.03-.05 0-.12.04l-.14.08-.13.11-.09.1-.06.1-.09.15-.1.13q-.05.06-.09.06l.03.13.03.17.03.17v.13q0 .08.03.14.03.07.03.15l-.02.12v.19l.07.03q.06.01.08.06l.03.08.04.07q.03.03.08.03h.06q.04.06.05.13.01.06.05.12.03 0 .03-.02l.02-.04.02-.03.06-.01.06.02.04.05.04.04.06.02.13-.02.15-.05.14-.06.13-.05q.15-.04.27-.12.12-.08.2-.2l.09-.14.09-.13H18.2l.04.01q.02 0 .02.02 0 .03-.03.05l-.04.03-.05.04q-.02.01-.02.05h.04l.1.02q.08.02.14.06l.12.07q.05.05.05.1zm-.25.19l-.01-.04-.04-.01q-.02 0-.04.03l-.02.05q0 .02.03.02h.03l.03-.01q.02-.01.02-.04zM23.1 60.06q0 .06-.02.11l-.05.1-.16.01H22.42l-.21.02q-.1.03-.2.03-.15 0-.16-.15-.05 0-.08.03l-.08.06-.08.06q-.05.03-.1.03-.07 0-.13-.03-.06-.04-.06-.1l.01-.05.03-.04.03-.02.02-.03q0-.02-.02-.03l-.03-.03-.03-.03q-.02-.01-.02-.04 0-.05.05-.08l.1-.03.14-.01.15-.01q.07 0 .13-.02.05-.02.07-.06.04-.06.06-.14l.03-.18.02-.19v-.16-.3l-.05-.3q-.01-.07-.04-.13l-.02-.14.02-.08.02-.06.03-.05.02-.05q0-.06-.04-.1l-.05-.1-.02-.1q0-.05-.03-.1l-.04-.06-.06-.06-.05-.06q-.03-.02-.04-.06l-.23-.01q-.16 0-.29.02l-.24.06q-.11.05-.22.13-.1.08-.2.2l-.08.1-.1.1-.08.1q-.04.06-.05.11-.04.14-.06.31l-.01.32v.1l.03.1.03.09q.02.04.02.1l-.02.08-.03.13-.05.12q-.02.05-.05.05l.05.06.1.08.1.06.07.03h.12q.07 0 .14.03.08.03.13.08.06.04.07.08.01.03-.06.03h-.08l-.04-.01-.03-.04q0-.03-.02-.05 0-.02-.04-.02l-.02.02v.04l.02.06.06.07q.04.03.06.07.03.04.03.07l-.01.03h-.1l-.06-.01-.06.02-.07.06-.12.05q-.07.03-.2.03-.05 0-.06-.04l-.03-.08-.04-.09q-.01-.03-.06-.03-.03 0-.05.02l-.02.04.02.03.02.05.02.05.02.04h-.16l-.09.03-.08.02-.1.01-.08-.01-.07-.03q-.06-.03-.12-.03t-.11-.02q-.06 0-.09-.04t-.03-.14l.02-.1q.02-.07.06-.11.04-.05.09-.08.05-.03.1-.03t.09.02l.08.02q.03 0 .05-.02.03-.02.04-.05l.04-.05.06-.03q0-.18.03-.35.03-.18.03-.37 0-.18-.03-.35-.03-.17-.03-.35l.02-.22q.03-.1.03-.21 0-.06-.02-.11-.03-.06-.03-.11t.03-.07l.03-.06h-.01q-.05 0-.05-.05t.03-.05h.03l-.02-.05q0-.02-.03-.05l-.03-.06-.02-.06q.04-.07.05-.13l.01-.1v-.1l-.01-.12q0-.08.03-.15.03-.07.03-.14 0-.05-.02-.06-.02-.02-.05-.02h-.05v-.11q0-.08-.03-.16-.02-.07-.06-.12-.04-.06-.1-.06l-.09.01h-.08q-.06 0-.12-.03t-.1-.09q-.05-.05-.08-.12-.03-.07-.03-.13 0-.07.04-.08l.1-.02h.18l.06-.04.22-.02.2-.01q.06 0 .1.03l.1.06.08.07.1.04-.01.15-.01.15q0 .07.03.13.03.07.03.13 0 .03-.02.03h-.03l-.02.02-.01.04v.06l.03.06.03.05.01.06-.02.1-.02.1.01.15.04.2q.02.09.06.16.04.08.1.08.07 0 .13-.04.07-.03.13-.08l.11-.1.1-.11q.04-.03.13-.06l.19-.04.2-.04.15-.02q.11 0 .16.02.05.01.09.04l.06.06.12.07.07.03h.06l.06.03q.03.01.06.05l.1.12q.08.07.13.15.06.07.1.15.05.08.05.16l-.02.1-.02.1q0 .04.02.07.02.03.02.07v.1l-.02.13-.03.13q-.01.06-.04.09.05.08.07.18l.02.2-.01.23-.02.24q0 .16.05.25t.12.14q.07.04.16.06.08.02.15.06.07.02.12.08.05.05.05.16zM27.17 59.62q0 .06-.02.11l-.03.11-.03.08v.05l-.04.05-.07.04-.22.11q-.12.06-.23.06-.1 0-.2-.05l-.16-.1-.13-.1q-.06-.06-.1-.06-.04 0-.08.03l-.06.05-.08.05q-.03.02-.1.02l-.1.02-.1.04-.1.05-.1.03q-.15.04-.31.05h-.44l-.18-.01-.15-.05q-.07-.04-.07-.1v-.02q-.02.03-.05.04-.03.02-.07.02-.06 0-.14-.08l-.15-.17-.12-.2q-.05-.1-.05-.15l.02-.07.02-.06-.01-.1-.01-.09.02-.13.06-.14.07-.14.07-.12q.04-.07.1-.11.06-.05.13-.08l.14-.06q.07-.03.12-.08.05.06.13.06.09 0 .17-.03.08-.02.17-.02h.13l.13.02.12-.01.09-.07q.05-.05.14-.08l.17-.04.18-.03.17-.05q.07-.03.12-.09.04-.06.04-.16t-.06-.23q-.07-.12-.17-.22t-.22-.17q-.12-.07-.23-.07h-.02l-.03.01-.18.02q-.1 0-.2.03-.09.03-.15.09t-.06.17v.14l.02.14q0 .1-.05.17t-.13.1q-.07.05-.17.07l-.17.01q-.1 0-.18-.03-.08-.02-.13-.12l-.08-.16q-.04-.09-.04-.17 0-.1.03-.17.03-.09.08-.16l.07-.16q.05-.08.06-.17l.07-.02.1-.03.09-.03.08-.02.16-.06.15-.06.17-.05.16-.02h.11q.15 0 .3.03.16.02.3.07.16.06.29.14.13.08.23.2.08.07.13.19.05.1.08.23l.04.25.01.23v.3l-.01.27.01.28.04.27.03.27.02.27q0 .08.02.1l.03.02q.08 0 .12-.04l.1-.1.07-.11q.05-.05.12-.05h.06l.06.02.05.03.01.06zm-1.13-.86v-.07-.1l-.03-.1q-.02-.04-.05-.04h-.02l-.01.01-.23.12-.18.08-.2.04h-.25l-.12.02-.2.04-.2.05-.13.03-.06.03-.03.04-.02.04-.04.05q-.03.03-.08.04l-.07.06-.1.13q-.04.09-.04.16 0 .1.05.17t.13.12l.18.1.2.05.2.03.16.01.2-.01.22-.04.21-.07q.1-.04.16-.11l.04-.05q0-.03.02-.05l.03-.04q.01-.03.05-.06.08-.06.12-.14.04-.08.06-.17l.03-.18v-.19zM31.2 57.71q0 .07-.02.12l-.06.1q-.04.03-.07.08-.03.04-.04.1l-.07-.01h-.23l-.16.02q-.09 0-.15-.06t-.1-.14l-.05-.17-.01-.18q0-.1.03-.2h-.05q-.04 0-.06.02-.02.03-.05.03-.04 0-.06-.02-.02-.02-.06-.02-.05 0-.13.03l-.15.08-.12.12q-.06.06-.06.11-.07 0-.13.04l-.12.07q-.05.03-.08.09l-.06.13-.05.13q-.02.07-.06.11l-.1.16q-.04.07-.04.17 0 .12.03.25.04.12.04.25l-.01.16-.01.16q0 .1.03.16.04.06.1.1l.13.03.15.01h.32q.03.02.03.05v.05l-.02.05v.09l.1-.02.05-.08.04.02.02.04-.01.05-.03.03-.02.04-.01.04v.03l.01.02q-.01.03-.04.04l-.07.01-.09-.01-.07-.04-.05-.04q-.02-.02-.06-.02h-.04l-.05.03q-.03 0-.05.02l-.02.03q0 .03.02.05.02.02.02.05l-.02.04-.04.01-.05.01h-.04q-.14 0-.27-.03t-.27-.03q-.06 0-.12.03t-.13.03q-.04 0-.06-.02l-.03-.03-.03-.04-.06-.01-.13.01-.12.03-.13.03H27.62q-.05 0-.1-.03l-.07-.05q-.03-.03-.03-.08l.03-.07.08-.08.08-.08.06-.03h.22q.1 0 .19-.02.1-.03.17-.09.08-.05.13-.14.04-.08.04-.18v-.09-.09l.01-.18.02-.18q0-.12-.03-.24l-.02-.26v-.22l.01-.23v-.15q0-.1-.03-.2-.01-.1-.06-.18-.03-.07-.1-.07-.08 0-.15.02l-.16.01h-.14q-.08-.01-.15-.04l-.12-.07q-.05-.05-.05-.13 0-.09.02-.14.02-.05.06-.08.04-.03.1-.04l.11-.01H28.2q.1-.02.22-.02h.15l.15.04q.06.02.1.08l.05.11.06.11q.03.04.11.04l.06-.01.06-.05.06-.04.06-.03q.08-.01.14-.05l.13-.07.12-.07q.07-.03.14-.03l.11-.01.14-.03.12-.05q.07-.03.1-.06.1 0 .22.04.13.04.24.1.12.07.2.15.09.09.1.2l.04.12.06.12.05.12q.02.05.02.12z" style="-inkscape-font-specification:'Special Elite';text-align:center"/></g><g aria-label="5th char" style="line-height:1.25;-inkscape-font-specification:sans-serif;text-align:center" font-weight="400" font-size="7.06" font-family="Special Elite" letter-spacing="0" word-spacing="0" text-anchor="middle" stroke-width=".26"><path d="M9.33 29.48l-.02.1q-.03.04-.03.09l.01.06.01.05v.08l-.03.07-.05.06q-.02.02-.06.02h-.03v.02q0 .04.02.05l.04.02.03.01q.02 0 .02.03t-.02.04l-.03.03-.04.02q-.02.02-.02.05v.08l.02.08v.04l-.04.03-.11.15-.06.06q-.04 0-.07.02l-.05.02q-.02 0-.02.04 0 .1-.04.15-.03.06-.09.1l-.12.05-.15.01-.15-.02-.01.04q0 .03.04.04l.07.02q0 .04-.03.07l-.06.04q-.04.02-.09.02H7.86l-.06.02q-.03 0-.05.03l-.05.03-.05.02-.03-.01-.03-.01H7.47l-.09.01-.2-.02-.2-.04q-.04-.01-.07-.04l-.04-.05-.04-.06q-.03-.03-.07-.04l-.07-.01h-.05l-.05-.02-.06-.04-.06-.08-.05-.1-.05-.07q-.03-.05-.08-.07l-.07-.05q-.03-.04-.03-.07l.05-.1q-.01-.04-.03-.05l-.03-.03-.04-.03v-.1q0-.07-.02-.13v-.14q0-.1.03-.16.04-.06.1-.1.07-.04.15-.06l.17-.01.15.01q.08.01.15.05.07.03.12.1.04.05.04.14 0 .12-.03.23-.03.11-.03.23l.02.1.03.08.04.09q.02.04.02.09v.03l.13-.01h.13q.1 0 .17.03.08.03.16.03.06 0 .1-.02l.11-.03.1-.03.12-.02q.06 0 .1-.02l.08-.06.07-.08q.03-.04.08-.07.11-.05.2-.13.08-.09.13-.2.06-.1.09-.22.03-.11.03-.23 0-.15-.05-.29-.04-.15-.12-.29-.08-.14-.2-.26-.1-.12-.23-.21-.13-.1-.27-.15-.14-.05-.29-.05-.1 0-.22.03l-.21.05-.1.05-.08.07-.09.06q-.04.03-.1.04l-.07.08-.08.1-.09.07q-.05.03-.1.03-.07 0-.12-.06-.04-.06-.06-.16l-.04-.22v-.25-.27l.01-.17v-.2l-.03-.18h.02q.04 0 .06.02.03.03.07.03v-.02q0-.05-.03-.08l-.05-.05-.05-.04q-.02-.03-.02-.07v-.15l.01-.19.01-.19q0-.1.02-.16 0-.12.08-.15.08-.04.2-.04.1 0 .19.02l.15.04.12.04.12.01h.1l.1-.01q.12 0 .24.03.13.04.26.04.08 0 .15-.03l.15-.04.15-.04q.08-.03.16-.03t.14.03q.08 0 .1.03.03.02.03.05v.05l-.01.03q0 .02-.05.06l-.1.06-.11.06-.07.04q-.08.08-.18.1-.1.03-.2.03h-.17l-.24-.03-.27-.03-.28-.03-.23-.04q-.1-.02-.13-.04V27l.02.25q.03.12.03.24v.02l-.1-.02q-.03-.03-.08-.03h-.02v.04l.01.09.04.05.06.05.08.04q.03.02.06.1l.04.16.02.18.03.13.14-.05.19-.04.18-.04.14-.02q.13 0 .24.04.12.02.25.02.14 0 .25.07l.21.14.05.08.05.11.05.11q.04.05.07.05h.05l.06-.02q.09 0 .15.06l.1.14.05.18.03.15.03.06.03.05.03.05.01.05zm-.72 1.42q0-.04-.04-.05l-.07-.02-.06.01q-.04.01-.04.04v.01h.03l.09.01q.04.01.07.04l.02-.04zM13 30.2l-.02.2-.05.2-.07.2-.05.2q-.03.17-.12.28-.1.11-.22.18-.13.07-.3.1l-.32.05-.34.02-.3.03-.08-.08-.07-.09-.07-.07q-.04-.02-.1-.02-.02 0-.03-.05l-.02-.13-.03-.13q0-.06-.03-.06-.08 0-.13-.03l-.07-.09-.03-.12-.01-.13q0-.05-.02-.09l-.05-.08-.04-.08-.02-.08v-.13l.01-.16.01-.17.01-.13.01-.1.04-.07.04-.06.01-.05q0-.04-.02-.07l-.01-.06.02-.07.03-.08q.04-.15.04-.3v-.05-.06q-.08-.07-.18-.08-.1-.03-.2-.03l-.18-.03q-.09-.01-.15-.07l-.1-.1q-.04-.07-.1-.09l-.09-.04q-.03-.03-.03-.09 0-.08.05-.12.05-.05.12-.07l.14-.05q.08-.02.13-.06.05-.03.12-.03h.12q.1 0 .15-.03.05-.03.09-.08.03-.05.04-.11l.01-.15-.01-.2-.01-.22q0-.13.03-.24.04-.1.13-.2l.05-.04.05-.05.05-.04q.03-.02.07-.02h.03l.03.03q.08.07.1.11.02.04.02.09v.14q0 .11.03.22.03.1.03.18 0 .07-.03.13t-.03.12q0 .05.03.1l.05.07.05.08q.03.03.03.09.03.02.15.04l.27.03.3.02h.25q.1 0 .14.02l.08.03.06.03q.03.02.07.02.06 0 .1.03.04.02.04.09 0 .08-.05.13-.04.05-.1.07-.07.03-.14.03h-.53q-.17 0-.3.02-.14.03-.24.1-.1.08-.15.2-.05.12-.05.3l.02.34q.02.17.02.35V30q.01.1.05.17l.07.23.07.24q.05.11.12.2.08.07.23.07l.14-.02q.09-.01.17-.04.09-.03.15-.07.06-.05.06-.12 0-.06-.03-.12-.04-.06-.04-.13 0-.05.02-.08l.06-.07.08-.05.08-.04q.06-.08.15-.13.09-.06.19-.06.06 0 .13.03l.12.06v.13zM17.4 31.26l-.02.1-.05.1-.16.02H16.72l-.21.02q-.1.02-.21.02-.14 0-.15-.15-.05 0-.09.03l-.07.06q-.04.04-.09.06-.04.04-.1.04-.06 0-.12-.04-.06-.03-.06-.1l.01-.05.03-.03.03-.03.01-.02v-.03l-.04-.03-.03-.03-.02-.04q0-.06.04-.08.04-.03.11-.04h.14l.15-.02.13-.01q.05-.02.07-.06.04-.06.06-.15l.03-.18.02-.18v-.17l-.01-.3-.04-.3-.04-.13q-.02-.06-.02-.13l.01-.08.03-.06.03-.05.01-.06q0-.06-.03-.1l-.05-.1-.03-.1-.02-.1-.04-.05-.06-.06-.05-.06-.05-.07h-.23l-.28.01q-.13.02-.24.07-.12.05-.22.13t-.2.2l-.08.09-.1.1-.09.11-.04.11q-.04.14-.06.31l-.02.32.01.1.03.09.03.1.01.09-.01.09-.04.13-.04.11q-.02.05-.05.05 0 .03.05.07l.1.07.1.07.07.03h.06l.06-.01q.06 0 .14.03l.13.08q.06.04.07.08 0 .04-.07.04h-.07q-.03 0-.05-.02l-.02-.04-.02-.04q-.01-.02-.04-.02-.02 0-.02.02v.03q0 .04.02.07l.06.07.06.07q.03.03.03.07l-.01.02-.03.01h-.07q-.03-.02-.07-.02-.03 0-.05.02l-.08.06-.11.06q-.08.03-.2.03-.05 0-.07-.04l-.03-.09-.03-.08q-.02-.04-.07-.04l-.04.02-.03.04.03.03.02.06.02.05.01.04h-.16l-.08.02-.09.03H13.73l-.07-.04-.12-.03-.12-.01q-.05-.01-.08-.05t-.03-.13q0-.06.02-.11.02-.06.06-.1.03-.06.09-.08.05-.03.1-.03t.08.02l.08.01q.04 0 .06-.02l.04-.04.04-.05.06-.03q0-.18.03-.36t.03-.36q0-.18-.04-.35-.03-.18-.03-.36 0-.1.03-.21.03-.1.03-.21 0-.06-.03-.11l-.02-.12q0-.04.02-.07.03-.02.04-.06h-.01q-.05 0-.05-.05t.03-.05l.03.01-.02-.05-.03-.06-.04-.05-.01-.06.04-.13.02-.11v-.1l-.01-.12q0-.07.03-.14t.03-.15q0-.04-.02-.06-.02-.02-.05-.02l-.05.01v-.12l-.03-.15q-.02-.07-.06-.13-.04-.05-.1-.05h-.09l-.08.01q-.06 0-.13-.03-.06-.04-.1-.1l-.07-.11q-.03-.07-.03-.13 0-.07.04-.09.04-.02.1-.02H13.5q.04-.01.07-.04l.21-.01q.1-.02.21-.02.06 0 .1.03l.1.07.08.06.1.04-.01.15-.01.15q0 .07.03.14.03.06.03.13 0 .02-.02.02h-.03l-.03.02v.11l.03.05.03.05v.06l-.01.1-.02.1.01.15.04.2q.02.1.06.17.04.07.1.07.06 0 .13-.03l.12-.09.12-.1.1-.1q.03-.03.12-.06l.2-.05.2-.04.14-.01.17.01.08.04.07.06q.04.04.12.08l.06.02.07.01q.03 0 .05.02.04.02.06.05l.11.13.13.14q.06.07.1.15.05.08.05.16l-.02.1-.02.1q0 .05.02.08l.01.06v.1l-.01.14-.03.12-.04.1q.05.08.07.18l.02.19-.02.24v.24q0 .16.04.25.05.09.12.13.07.05.15.07l.16.05q.07.03.12.08.05.06.05.17zM7.06 39.53q0 .03-.03.05l-.05.03-.06.04-.04.07-.04.07-.04.06q-.05.07-.13.1L6.5 40l-.15.07q-.06.04-.08.15h-.02q-.08 0-.15.02l-.13.06-.14.06q-.06.03-.14.03l-.08-.01-.07-.03-.07-.03-.08-.02h-.1l-.11.02-.09-.01-.1-.03-.07-.05q-.03-.04-.03-.09v-.02l-.04.02h-.04q-.1 0-.2-.04l-.16-.11-.14-.15-.13-.14q-.08-.08-.13-.19l-.1-.2q-.12-.2-.15-.4t-.03-.43v-.1q.01-.05.03-.07l.04-.03.03-.01.04-.02.01-.04-.02-.08q-.03-.04-.03-.1 0-.03.02-.05l.03-.05q.03-.05.05-.15l.05-.21.06-.19q.05-.08.11-.08.05 0 .09.02H4.45v-.03q0-.04-.02-.05l-.06-.01-.06-.01q-.02 0-.02-.04 0-.02.02-.03l.04-.03.06-.03q.03 0 .04-.02l.05-.05.02-.05.04-.04q.02-.02.08-.03l.1-.01h.1l.09-.01.1-.02-.04-.03q.02-.04.05-.05l.07-.03.08-.01h.07q.12 0 .23.02.12.04.23.04l.1-.01q.04-.02.09-.02.07 0 .13.04l.13.06h.01q.03 0 .05-.02.02-.02.05-.02l.02.02.02.02q.03.04.08.05.04 0 .06.03l.06.06.06.02.06.01.07.03v.1l.13.14q.06.04.1.1.05.04.08.12.02.07.02.21 0 .15-.02.27-.03.11-.1.2-.06.07-.16.1-.1.05-.27.04h-.22l-.08-.12-.1-.17-.1-.17q-.04-.08-.04-.12l.01-.1.01-.1q-.02-.07-.06-.11-.04-.04-.1-.06-.04-.03-.1-.04h-.13l-.18.01q-.08.01-.17.05l-.01-.06q-.02-.03-.05-.03-.05 0-.12.04l-.14.09-.13.1-.09.1-.06.11-.1.15-.09.13q-.05.05-.09.05l.03.14.03.16.03.18v.12q0 .08.03.15.03.07.03.15 0 .06-.02.11l-.01.12.01.07q.02.02.07.03.05.02.07.06.03.04.04.09l.04.07q.02.03.08.03h.06q.04.05.05.12.01.07.05.12.03 0 .03-.02l.02-.03q0-.02.02-.03.01-.02.06-.02.03 0 .06.03l.04.04.04.05.06.02.13-.02.14-.05.15-.07.13-.04q.15-.05.27-.12.12-.08.2-.21l.09-.13q.05-.06.08-.13h.27l.02.02q0 .03-.03.05l-.05.04-.04.03q-.02.02-.02.05h.04l.1.02q.08.02.14.06.07.03.12.08.05.04.05.1zm-.25.2l-.01-.04-.04-.02q-.02 0-.04.03l-.02.05q0 .02.03.02h.06q.02-.02.02-.05zM11.59 40.07l-.02.12-.05.1h-.16l-.15.01h-.3l-.21.02-.2.02q-.15 0-.16-.15-.05 0-.09.03l-.07.06-.08.06q-.05.03-.1.03-.07 0-.13-.03t-.06-.1l.01-.05.03-.03.03-.03.02-.02-.02-.04-.03-.02-.03-.03-.02-.04q0-.06.04-.08.05-.03.11-.04h.14l.15-.02.13-.01q.05-.02.07-.06.04-.06.06-.15l.03-.18.02-.18v-.17l-.01-.3-.04-.3-.04-.13q-.02-.06-.02-.13l.01-.08.03-.06.03-.05.02-.06q0-.06-.04-.1l-.05-.1q-.02-.04-.02-.1 0-.04-.03-.1l-.04-.05-.06-.06-.05-.06q-.03-.03-.04-.07h-.24l-.28.01q-.13.02-.24.07-.12.05-.22.13t-.2.2l-.08.09-.1.1-.08.11-.05.1q-.04.15-.06.32l-.01.32v.1l.03.09.03.1.01.09v.09l-.04.13-.05.11q-.02.05-.05.05l.05.07.1.07.1.07.07.03h.06l.06-.01q.07 0 .14.03l.13.08q.06.04.07.08 0 .04-.06.04H9.2q-.03 0-.04-.02l-.03-.04-.02-.04q0-.02-.04-.02l-.02.02v.03l.02.07.06.06.06.08q.03.03.03.07l-.01.02-.03.01-.07-.01-.06-.01q-.04 0-.06.02l-.08.06-.11.06q-.07.03-.2.03-.05 0-.06-.04l-.04-.09q0-.04-.03-.08-.01-.04-.07-.04l-.04.02-.02.04.02.03.02.06.02.05.01.04h-.15l-.09.02-.09.03H8l-.08-.01-.07-.03-.12-.03-.11-.01q-.06-.01-.1-.05-.02-.04-.02-.13 0-.06.02-.11.02-.06.06-.1.04-.06.09-.08.05-.03.1-.03t.09.02l.08.01q.03 0 .05-.02l.04-.04.04-.05.06-.03q0-.18.03-.36t.03-.36q0-.18-.03-.35-.03-.18-.03-.36l.02-.21q.03-.1.03-.22l-.02-.1q-.03-.06-.03-.12 0-.04.03-.07l.03-.06h-.01q-.05 0-.05-.05t.03-.05l.03.01-.02-.05-.03-.06-.04-.05-.01-.06.05-.13v-.11-.1-.12q0-.07.03-.14t.03-.15q0-.04-.02-.06-.02-.02-.05-.02l-.05.01v-.12l-.03-.15q-.02-.07-.06-.13-.04-.05-.1-.05H7.71q-.06 0-.13-.03-.05-.03-.1-.09l-.07-.12q-.03-.06-.03-.12 0-.07.04-.09.04-.02.1-.02h.18q.04-.01.06-.04.11 0 .21-.02h.21q.06 0 .1.02l.1.07.08.06.1.04-.01.15-.01.15q0 .07.03.14.03.06.03.13 0 .02-.02.02h-.03l-.02.02q-.02.01-.02.05l.02.06.02.05.03.05.01.06q0 .06-.02.1l-.02.1.01.15.04.2q.02.1.06.17.04.07.1.07.06 0 .13-.03.07-.04.12-.09l.12-.1.1-.1q.04-.03.13-.06l.19-.05.2-.04.15-.01.16.01.08.04.07.06q.04.04.12.08.03.02.07.02l.06.01.06.02.06.05.1.13q.07.06.13.14.06.07.1.15.05.08.05.16l-.02.1-.02.1.02.08.01.06v.1l-.01.14-.03.12q-.01.06-.04.1.05.08.07.18l.02.19-.02.24v.24q0 .16.04.25.05.08.12.13.07.05.15.07l.16.05q.07.03.12.08.05.05.05.16zM15.66 39.64q0 .06-.02.1l-.04.11q0 .05-.02.08l-.01.06-.03.04-.07.04-.22.12q-.12.05-.23.05-.1 0-.2-.04l-.16-.1-.13-.11q-.06-.05-.1-.05l-.08.02-.06.05-.08.05q-.04.03-.1.03l-.1.02-.1.04-.1.04-.1.04q-.16.04-.31.04l-.32.01h-.12q-.1 0-.18-.02-.09-.01-.16-.05-.06-.03-.06-.1v-.02l-.05.05-.07.01q-.06 0-.14-.07-.08-.08-.15-.18l-.12-.2q-.05-.1-.05-.14 0-.04.02-.07.02-.03.02-.07l-.01-.09-.01-.1.02-.12.06-.14.07-.14.07-.13q.04-.07.1-.11l.13-.07.14-.06q.07-.03.12-.09.05.06.13.06.09 0 .17-.02.08-.03.17-.03l.13.01.13.02q.08 0 .11-.02l.1-.07q.05-.05.14-.07.08-.03.17-.04l.18-.04q.1-.01.17-.04.07-.04.12-.1.04-.05.04-.15 0-.11-.06-.23-.07-.13-.17-.23t-.22-.17q-.12-.06-.23-.06h-.03-.02l-.19.03q-.1 0-.19.03-.09.02-.15.08t-.06.18v.14q.02.06.02.13 0 .1-.05.17t-.13.11q-.07.04-.17.06l-.17.01q-.1 0-.18-.02-.08-.03-.13-.13l-.08-.16q-.04-.08-.04-.17 0-.09.03-.17l.07-.16.08-.15q.05-.08.06-.17l.07-.03.1-.03.09-.02.08-.03.16-.05.15-.06.17-.05.16-.02h.11l.3.02q.16.02.3.08.16.05.29.14.13.08.23.19.08.08.13.2.05.1.08.23.03.12.04.25l.01.23v.29l-.01.28v.27l.05.28.03.27q.02.13.02.27 0 .08.02.1l.03.02q.08 0 .12-.05l.1-.1.07-.1q.05-.06.12-.06h.06l.06.02q.03.01.05.04l.01.06zm-1.13-.86v-.07l-.01-.1q0-.06-.02-.1-.02-.04-.05-.04h-.02-.01l-.23.13-.18.07-.2.04-.26.01-.1.02-.21.04-.2.04-.13.03-.06.04-.03.03-.02.05-.04.04-.08.05-.07.05q-.05.05-.1.14-.04.08-.04.16 0 .09.05.16t.13.13q.07.05.17.09l.2.05.2.03.17.02.2-.02q.1 0 .22-.03.11-.03.21-.08.1-.04.16-.1l.04-.06.02-.04.02-.05.06-.05q.08-.07.12-.15l.06-.16.03-.18v-.2zM19.7 37.73q0 .06-.03.11l-.07.1-.06.08-.04.1h-.07l-.06-.01-.17.01-.16.01q-.09 0-.15-.05-.06-.06-.1-.14l-.05-.18-.01-.17q0-.1.03-.2h-.05q-.04 0-.06.02-.02.03-.06.03-.03 0-.05-.02-.02-.03-.06-.03-.05 0-.13.04-.08.03-.15.08l-.13.11q-.05.06-.05.12-.07 0-.13.04l-.13.07q-.04.02-.07.08l-.06.13-.05.13-.06.12q-.06.07-.1.15-.04.08-.04.18 0 .12.03.24.04.12.04.25l-.01.17-.01.16q0 .1.03.15.04.06.1.1.05.03.13.04h.47l.03.05v.05q0 .03-.02.05v.1q.05 0 .1-.03.03-.02.05-.07l.04.02q.02.01.02.04l-.01.04-.03.03-.02.04-.01.04v.03l.01.03q-.01.03-.05.04h-.06l-.1-.01-.06-.04-.05-.04-.06-.01h-.04l-.05.02-.05.03q-.02.01-.02.03l.02.04q.02.02.02.05 0 .03-.02.04l-.04.02h-.1l-.26-.02q-.13-.03-.27-.03-.06 0-.12.03l-.13.02-.06-.01-.03-.04-.03-.04h-.19l-.12.03-.13.03-.13.01h-.08l-.1-.03-.07-.06q-.03-.03-.03-.07 0-.03.03-.07L16 40l.09-.08.06-.03h.22q.1 0 .19-.02.1-.03.17-.08.08-.06.13-.14.04-.09.04-.19v-.08l-.01-.1.02-.17.02-.18q0-.12-.03-.25-.02-.12-.02-.25v-.23l.01-.22v-.16q0-.1-.03-.2-.01-.1-.06-.17-.03-.08-.1-.08-.08 0-.15.02l-.16.02h-.14l-.15-.04q-.07-.03-.12-.08-.05-.05-.05-.13t.02-.13q.02-.06.06-.09l.1-.04H16.44l.23-.01.22-.01h.15l.15.03q.06.03.1.08l.05.12.06.1q.03.05.11.05l.06-.02.06-.04.06-.05.06-.03q.08 0 .14-.04l.13-.08.12-.07q.07-.03.14-.03l.11-.01.14-.03.12-.05q.07-.02.1-.06.1 0 .22.05l.24.1q.12.06.2.15.09.08.1.2l.04.12.05.11.06.12.02.12z" style="-inkscape-font-specification:'Special Elite';text-align:center"/></g><g aria-label="6th char" style="line-height:1.25;-inkscape-font-specification:sans-serif;text-align:center" font-weight="400" font-size="7.06" font-family="Special Elite" letter-spacing="0" word-spacing="0" text-anchor="middle" stroke-width=".26"><path d="M20.97 9.94l-.06.2-.05.21-.04.22-.04.2q-.1.05-.2.15l-.17.19q-.08.1-.17.17-.1.07-.2.08-.12.01-.23.05l-.2.08-.2.07q-.1.03-.21.03h-.13l-.18-.02-.16-.04q-.07-.03-.09-.07-.02-.04-.05-.05-.03-.02-.07-.02h-.08q-.04 0-.07-.03l-.08-.06-.07-.09-.07-.07q-.03-.05-.07-.07l-.1-.05-.1-.05-.03-.03v-.05l-.03-.04-.04-.03v-.03q0-.07.03-.14.03-.06.03-.13l-.02-.08-.05-.08-.07-.07-.04-.08-.05-.15q-.02-.08-.08-.12-.05-.05-.05-.14v-.1l.01-.08q0-.06-.02-.1-.02-.04-.02-.1 0-.03.03-.04.03-.03.05-.03V9.3l-.04-.03-.03-.02v-.01q0-.04.04-.07.03-.03.03-.07 0-.03-.03-.07-.03-.03-.03-.06v-.02h.05l.01-.04.06-.4.08-.38v-.08l.02-.1v-.03-.04q.05-.05.11-.16l.12-.21.1-.2q.06-.07.1-.07h.07l.08.02h.04q.04 0 .04-.02t-.03-.03l-.04-.03-.04-.03-.01-.03.01-.04.04-.04.04-.04.04-.03.15-.11.13-.07.14-.05.18-.04q.03 0 .04-.02v-.03q0-.02.03-.03l.07-.01q.06 0 .1-.03.06-.03.12-.03h.38l.1.02.1.04.09.02.1.01q.04 0 .05.02l.01.04.01.04.06.01h.08l.04.01.02.04.02.03.01.02h.03l.03-.01q.03 0 .04.02l.01.04.01.05.02.04.1.11.07.1q.03.04.04.1.02.06.02.16 0 .09-.03.17-.02.08-.06.15l-.09.15-.1.14q-.06-.03-.14-.03h-.1l-.1.02q-.08 0-.15-.04l-.05-.1-.07-.1-.04-.1-.02-.12.01-.1.03-.08.03-.1.02-.08q0-.09-.1-.1l-.18-.02q-.1-.03-.18-.03-.1 0-.19.05 0-.09-.03-.11-.02-.04-.06-.04h-.08q-.04 0-.07-.02l.02.02.03.02.02.03q.02 0 .02.02l-.03.02-.07.01q-.04 0-.07.03-.03.02-.03.06v.06h-.09l-.05.02-.05.02-.06.01h-.03l-.04.03-.01.03v.08l-.01.05-.04.04-.05.03-.05.03q-.11.09-.2.22l-.13.28q-.06.14-.08.3-.03.15-.03.29 0 .07.03.1.02.03.07.04l.1.02q.04 0 .1.03l.07-.09.05-.08q.02-.04.06-.07l.11-.06.36-.1q.2-.04.38-.04.13 0 .26.04t.22.15h.04q.06 0 .15.03l.18.08.18.1q.07.06.1.11.03.03.05.03h.07q.02 0 .02.02v.04q0 .05.04.1l.1.08.1.1q.04.05.04.12 0 .09-.02.17-.03.07-.03.16 0 .08.05.12.04.05.11.07zm-.66.01q0-.09-.03-.2-.02-.1-.07-.2l-.11-.19q-.06-.09-.14-.14l-.13-.1-.19-.1-.19-.08q-.09-.04-.15-.04l-.1.02-.1.01H19l-.1-.01q-.05 0-.08.02-.04.01-.06.07h-.34v.06q0 .08-.06.16l-.13.18-.13.21q-.06.12-.06.26l.01.1.03.08.03.1q.02.04.02.1v.1q0 .02.02.02l.04.02q.03 0 .07.05l.06.08.04.08.07.07q.03.03.09.04l.04.03.07.05.07.06.05.03q.01.03.09.05l.17.03.19.01h.12q.14 0 .22-.02.07-.03.12-.08l.1-.1q.06-.06.16-.12.08-.04.16-.12.07-.08.12-.18l.08-.2q.03-.1.03-.2zM24.7 10.3q0 .12-.03.22l-.05.19-.07.2-.05.2q-.03.16-.12.28-.1.11-.22.18-.13.07-.3.1l-.32.05-.34.02q-.16 0-.3.03-.05-.04-.08-.09l-.07-.08-.07-.07q-.04-.02-.1-.02-.02 0-.03-.06l-.02-.12-.03-.13q0-.06-.03-.06-.08 0-.13-.04-.04-.03-.07-.08l-.03-.12-.01-.13q0-.05-.02-.09l-.05-.08-.04-.08q-.02-.04-.02-.09v-.12l.01-.17.01-.16.01-.13.01-.1.04-.08.04-.05.01-.06q0-.04-.02-.06l-.01-.06q0-.04.02-.07l.03-.08q.04-.15.04-.3v-.06-.05q-.08-.07-.18-.09l-.2-.02-.18-.03q-.09-.01-.15-.07l-.1-.1q-.04-.07-.1-.1-.05 0-.09-.04-.03-.03-.03-.08 0-.08.05-.13.05-.04.12-.06l.14-.05q.08-.02.13-.06.05-.04.12-.04h.12q.1 0 .15-.02.05-.03.09-.08.03-.05.04-.12l.01-.14-.01-.21-.01-.21q0-.13.03-.24.04-.1.13-.2l.05-.04.05-.05.05-.05.07-.01h.03l.03.03q.08.07.1.11l.02.08V7.01q0 .1.03.22.03.1.03.18 0 .06-.03.13-.02.05-.02.12 0 .05.02.09l.05.07.05.08q.03.04.03.1.03.02.15.04l.27.03.3.02h.25q.1 0 .14.02l.08.03.06.03q.03.02.07.02.06 0 .1.03.04.02.04.09 0 .08-.05.13-.04.05-.1.07l-.14.03h-.53q-.17 0-.3.02-.14.03-.24.1-.1.08-.15.2-.05.12-.05.3l.02.34q.03.17.03.34v.27q0 .1.04.17l.07.22.07.25q.05.11.12.19.08.07.23.07h.14l.17-.05q.09-.03.15-.08.06-.04.06-.11 0-.06-.03-.12-.04-.06-.04-.13 0-.05.02-.08l.06-.07.08-.05.08-.04q.06-.08.15-.13.09-.06.19-.06.06 0 .13.03l.12.06v.13zM29.09 11.36l-.02.12-.05.1h-.16l-.15.01h-.3q-.11 0-.21.02-.1.02-.21.02-.14 0-.15-.15-.05 0-.09.03l-.07.06-.09.06q-.04.03-.1.03-.06 0-.12-.03-.06-.04-.06-.1l.01-.05.03-.03.03-.03.01-.03v-.03l-.04-.02-.03-.03-.02-.04q0-.06.04-.08.04-.03.1-.04l.15-.01h.15l.13-.03q.05-.01.07-.05.04-.07.06-.15l.03-.18.02-.18v-.17l-.01-.3-.04-.3-.04-.13q-.02-.06-.02-.13l.01-.08.03-.06.03-.06.01-.05q0-.06-.03-.1l-.05-.1-.03-.1-.02-.1-.04-.06-.06-.06-.05-.05-.05-.07h-.23l-.28.01q-.13.02-.24.07-.12.04-.22.12-.1.08-.2.2l-.08.1-.1.1-.09.11-.04.1q-.04.15-.06.32l-.02.31.01.1.03.1.03.09.01.1-.01.09-.04.12-.04.12q-.02.05-.05.05 0 .02.05.06l.1.08.1.07.07.02h.12q.06 0 .14.03l.13.08q.06.04.07.08 0 .03-.07.03h-.07l-.05-.01-.02-.04-.02-.04q-.01-.02-.04-.02-.02 0-.02.02v.03l.02.07.06.06.06.08q.03.03.03.07l-.01.02h-.1l-.07-.01q-.03 0-.05.02l-.08.06-.11.06q-.08.02-.2.02-.05 0-.07-.03l-.03-.1-.03-.07q-.01-.04-.07-.04l-.04.02-.03.04.03.03.02.05.02.06.01.04h-.16l-.08.02-.09.02q-.04.02-.09.01l-.08-.01-.07-.03q-.06-.03-.12-.03l-.12-.01q-.05-.01-.08-.05t-.03-.13l.02-.12q.02-.06.06-.1.03-.05.09-.08.05-.03.1-.03t.09.02q.03.02.07.02.04 0 .06-.02l.04-.05.04-.04q.03-.03.06-.03 0-.19.03-.36.03-.18.03-.36t-.04-.36q-.03-.17-.03-.35 0-.11.03-.21.03-.1.03-.22 0-.06-.03-.1l-.02-.12q0-.05.02-.07.03-.02.04-.06h-.01q-.05 0-.05-.05t.03-.05l.03.01q0-.03-.02-.05l-.03-.06-.04-.05-.01-.07.04-.12.02-.11v-.1l-.01-.12q0-.08.03-.15.03-.06.03-.14 0-.05-.02-.06-.02-.02-.05-.02h-.05v-.11l-.03-.15q-.02-.08-.06-.13-.04-.05-.1-.05H25.21q-.06 0-.13-.03-.06-.03-.1-.09l-.07-.12q-.03-.06-.03-.13 0-.06.04-.08.04-.02.1-.02H25.2q.04-.01.07-.04l.21-.02h.21q.06 0 .1.02l.1.07.08.06.1.04-.01.15-.01.15q0 .07.03.14.03.06.03.13 0 .02-.02.02h-.03l-.03.02v.1l.03.06.03.05v.06l-.01.1-.02.1.01.15.04.2q.02.1.06.17.04.07.1.07.06 0 .13-.04l.12-.08.12-.1.1-.1q.03-.04.12-.06l.2-.05.2-.04.15-.01.16.01q.05.01.08.04l.07.06q.04.04.12.08l.06.02.07.01.06.02.05.05.11.13q.07.06.13.14.06.07.1.15.05.08.05.16l-.02.1-.02.1q0 .04.02.07l.01.07v.1l-.01.13-.03.13-.04.1q.05.08.07.17l.02.2-.02.24v.24q0 .16.04.25.05.08.12.13.07.05.15.07l.16.05q.07.03.12.08.05.05.05.16zM18.57 19.64q0 .03-.03.05l-.04.02-.07.05-.04.06-.04.07-.04.07q-.05.07-.13.1l-.17.05q-.08.02-.15.07-.06.04-.08.14h-.02q-.08 0-.15.03l-.13.06-.13.06q-.07.03-.15.03l-.08-.01-.07-.04-.07-.03-.08-.01h-.1l-.11.01h-.09l-.1-.03-.07-.06q-.03-.03-.03-.08v-.03l-.04.03h-.04q-.1 0-.2-.04l-.16-.12-.14-.14-.13-.15q-.08-.08-.13-.18l-.1-.2q-.12-.2-.15-.4t-.03-.43v-.1l.03-.07.04-.03q.02 0 .03-.02.03 0 .04-.02l.01-.03q0-.05-.02-.08-.03-.05-.03-.1 0-.03.02-.05l.03-.05q.03-.05.05-.15l.05-.21.06-.19q.05-.08.11-.08l.1.01q.03.02.08.02l.08-.01v-.03q0-.04-.02-.05l-.06-.02h-.05q-.03-.01-.03-.04l.02-.04.04-.02.06-.03q.03 0 .04-.02l.05-.05.02-.05.04-.04q.02-.02.08-.03l.1-.01h.1l.09-.01.1-.02-.04-.04q.02-.03.05-.04.03-.03.07-.04H16.77q.12 0 .23.02.12.03.23.03h.1q.04-.02.1-.02.06 0 .13.04l.12.06h.01q.03 0 .05-.02l.05-.02.02.01.02.03q.03.03.08.04.04.01.06.04l.06.06.06.02.06.01q.04 0 .07.03v.1l.13.14q.06.04.1.1.05.04.08.12.02.07.02.21 0 .15-.02.27-.03.1-.1.19-.05.07-.16.12-.1.03-.27.03h-.22l-.08-.13-.1-.17-.1-.16-.03-.12v-.1l.01-.1q-.02-.07-.06-.12-.04-.04-.1-.06l-.1-.03h-.31l-.16.05q0-.03-.02-.05-.02-.03-.05-.03-.05 0-.12.04l-.14.08-.13.11-.09.1-.06.1-.09.15-.1.13q-.05.06-.09.06l.03.13.03.17.03.17v.13q0 .08.03.15.03.06.03.14l-.02.12v.19l.07.03q.06.02.08.06l.03.08.04.08q.03.03.08.03h.06q.04.05.05.12.01.07.05.12.03 0 .03-.02l.02-.03.02-.04h.06l.06.01.04.05.04.04q.03.03.06.03.06 0 .13-.03l.15-.05.14-.06.13-.05q.15-.04.27-.12.12-.08.2-.2l.09-.14q.05-.05.09-.13H18.2l.04.01q.02 0 .02.02 0 .03-.03.05l-.04.03-.05.04q-.02.02-.02.05h.04l.1.02q.08.02.14.06.07.03.12.08.05.04.05.09zm-.25.2l-.01-.04-.04-.02q-.02 0-.04.03l-.02.05q0 .02.03.02h.03l.03-.01q.02-.01.02-.04zM23.1 20.18l-.02.12-.05.1h-.16l-.15.01h-.3l-.21.02-.2.02q-.15 0-.16-.15-.05 0-.08.03l-.08.06-.08.06q-.05.03-.1.03-.07 0-.13-.03-.06-.04-.06-.1l.01-.05.03-.03.03-.03.02-.03-.02-.03-.03-.03q-.02 0-.03-.02l-.02-.04q0-.06.05-.08.04-.03.1-.04l.14-.01h.15l.13-.03q.05-.01.07-.05.04-.07.06-.15l.03-.18.02-.18v-.17-.3l-.05-.3-.04-.13-.02-.13.01-.08.03-.07.03-.05q.02-.02.02-.05 0-.06-.04-.1l-.05-.1-.02-.1q0-.05-.03-.1l-.04-.06-.06-.06-.05-.05q-.03-.03-.04-.07l-.23-.01q-.16 0-.29.02-.12.02-.24.07-.12.04-.22.12-.1.08-.2.2l-.08.1-.1.1-.08.11-.05.1q-.04.14-.06.32l-.01.31v.1l.03.1.03.09q.02.04.02.1l-.02.09-.03.12-.05.12q-.02.05-.05.05l.05.06.1.08.1.07.07.02h.12q.07 0 .14.03.08.03.13.08.06.04.07.08 0 .03-.06.03h-.08l-.04-.01-.03-.04q0-.03-.02-.04 0-.02-.04-.02l-.02.02v.03l.02.07.06.06.06.07q.03.04.03.08l-.01.02h-.1l-.06-.01-.06.02-.07.06-.12.06q-.07.02-.2.02-.05 0-.06-.04l-.03-.08-.04-.08q-.01-.04-.06-.04-.03 0-.05.02l-.02.04.02.03.02.05.02.05.02.05h-.16l-.09.02-.08.02-.1.01-.08-.01-.07-.03q-.06-.03-.12-.03t-.11-.02q-.06 0-.09-.04t-.03-.13l.02-.12q.02-.06.06-.1.04-.05.09-.08.05-.03.1-.03t.09.02l.08.02q.03 0 .05-.02.03-.02.04-.05l.04-.04q.03-.03.06-.03 0-.19.03-.36.03-.18.03-.36t-.03-.36q-.03-.17-.03-.35 0-.11.02-.21.03-.1.03-.22 0-.06-.02-.1-.03-.06-.03-.12 0-.05.03-.07l.03-.06h-.01q-.05 0-.05-.05t.03-.05l.03.01q0-.03-.02-.05 0-.03-.03-.06l-.03-.05-.02-.07.05-.12.01-.11V17l-.01-.12q0-.08.03-.15.03-.06.03-.14 0-.05-.02-.06-.02-.02-.05-.02h-.05v-.11q0-.08-.03-.16-.02-.07-.06-.12-.04-.05-.1-.05H19.22q-.06 0-.12-.03t-.1-.09q-.05-.05-.08-.12-.03-.06-.03-.13t.04-.08l.1-.02h.18q.04-.01.06-.04.11 0 .21-.02h.22l.1.02.08.06.1.07q.04.03.1.04 0 .08-.02.15l-.01.15q0 .07.03.14.03.06.03.13 0 .02-.02.02h-.03l-.02.02-.01.05v.05l.03.06.03.05.01.06-.02.1-.02.1.01.15.04.2q.02.1.06.17.04.07.1.07.07 0 .13-.04.07-.03.13-.08l.11-.1.1-.1q.04-.04.13-.06l.19-.05.2-.04.15-.01.16.01q.05.01.09.04l.06.06.12.08.07.02.06.01.06.02q.03.01.06.05l.1.13q.08.06.13.14.06.07.1.15.05.08.05.16l-.02.1-.02.1q0 .04.02.07l.01.07v.1l-.01.13-.03.13q-.01.06-.04.09.05.09.07.18l.02.2-.02.24v.23q0 .17.04.26.05.08.12.13.07.05.15.07.1.02.16.05.07.03.12.08.05.05.05.16zM27.17 19.74l-.02.12-.03.1-.03.08v.06l-.04.04-.07.04-.22.11q-.12.06-.23.06-.1 0-.2-.05l-.16-.1-.13-.1q-.06-.06-.1-.06-.04 0-.08.03l-.06.05-.08.05q-.03.03-.1.03l-.1.01-.1.04-.1.05-.1.03q-.15.05-.31.05h-.44l-.18-.01-.15-.05q-.07-.03-.07-.1v-.02q-.02.03-.05.04-.03.02-.07.02-.06 0-.14-.07l-.15-.18-.12-.2q-.05-.1-.05-.14 0-.04.02-.07.02-.03.02-.07l-.01-.1-.01-.08.02-.14.06-.14.07-.13.07-.13q.04-.07.1-.11l.13-.07.14-.07q.07-.03.12-.08.05.06.13.06.09 0 .17-.02.08-.03.17-.03l.13.01.13.02q.08 0 .12-.02l.09-.07q.05-.05.14-.07.08-.03.17-.04l.18-.04.17-.05q.07-.03.12-.09.04-.06.04-.16t-.06-.23q-.07-.12-.17-.22t-.22-.17q-.12-.06-.23-.06h-.05q-.08.02-.18.02-.1 0-.2.03-.09.03-.15.09t-.06.18v.13l.02.14q0 .1-.05.17t-.13.11q-.07.04-.17.06l-.17.01q-.1 0-.18-.02-.08-.03-.13-.13l-.08-.16q-.04-.08-.04-.17 0-.1.03-.17l.08-.16.07-.16q.05-.07.06-.16l.07-.03.1-.03.09-.02.08-.03.16-.05q.07-.04.15-.06l.17-.05.16-.03h.11q.15 0 .3.03.16.02.3.08.16.05.29.13.13.08.23.2.08.08.13.19t.08.23l.04.26.01.23v.28l-.01.29.01.27.04.27.03.28.02.26q0 .09.02.1l.03.02q.08 0 .12-.04l.1-.1.07-.11q.05-.05.12-.05h.06l.06.02q.03.01.05.04l.01.05zm-1.13-.85v-.08l-.01-.1-.02-.1q-.02-.04-.05-.04l-.02.01h-.01q-.13.08-.23.12l-.18.08-.2.04h-.25l-.12.03-.2.04-.2.04-.13.03-.06.03-.03.04-.02.05-.04.04-.08.05-.07.05q-.05.05-.1.14-.04.08-.04.15 0 .1.05.17t.13.12q.08.06.18.1l.2.05.2.03.16.01h.2l.22-.05q.11-.02.21-.07.1-.04.16-.11l.04-.05.02-.04.03-.05q.01-.03.05-.05.08-.07.12-.15l.06-.16.03-.18v-.2zM31.2 17.83q0 .07-.02.12l-.06.1q-.04.03-.07.08-.03.04-.04.1l-.07-.01h-.23l-.16.02q-.09 0-.15-.06-.06-.05-.1-.14l-.05-.17-.01-.17q0-.1.03-.2l-.05-.01q-.04 0-.06.03-.02.02-.05.02-.04 0-.06-.02-.02-.02-.06-.02-.05 0-.13.03-.07.03-.15.09-.07.05-.12.11-.06.06-.06.11-.07.01-.13.04l-.12.07q-.05.03-.08.09l-.06.13-.05.13q-.02.07-.06.12-.06.07-.1.15-.04.08-.04.17 0 .12.03.25.04.12.04.25l-.01.16-.01.17q0 .1.03.15.04.06.1.1l.13.04h.47q.03.02.03.05v.05l-.02.05v.09l.1-.02.05-.08.04.02q.02.02.02.05l-.01.04-.03.03-.02.04-.01.04v.03l.01.03-.04.03-.07.01-.09-.01-.07-.04-.05-.04q-.02-.02-.06-.02l-.04.01-.05.02q-.03 0-.05.03-.02 0-.02.02 0 .03.02.05.02.02.02.05l-.02.04-.04.01-.05.01h-.04q-.14 0-.27-.03-.13-.02-.27-.02l-.12.02q-.06.03-.13.03-.04 0-.06-.02l-.03-.03-.03-.04-.06-.01-.13.01-.12.03-.13.03-.13.01-.08-.01q-.05 0-.1-.03l-.07-.05q-.03-.03-.03-.07 0-.03.03-.08l.08-.08.08-.08.06-.03h.22q.1 0 .19-.02.1-.03.17-.09.08-.05.13-.13.04-.09.04-.2v-.08-.09l.01-.18.02-.17q0-.13-.03-.25l-.02-.25v-.23l.01-.23v-.15q0-.1-.03-.2-.01-.1-.06-.17-.03-.08-.1-.08-.08 0-.15.02l-.16.02-.14-.01q-.08-.01-.15-.04-.07-.02-.12-.07-.05-.05-.05-.13t.02-.14q.02-.05.06-.08.04-.03.1-.04H27.97l.22-.01.22-.01h.15q.07 0 .15.03.06.02.1.08l.05.12.06.1q.03.05.11.05.04 0 .06-.02l.06-.04.06-.05.06-.03q.08 0 .14-.04l.13-.08.12-.07q.07-.03.14-.03l.11-.01.14-.03.12-.05q.07-.02.1-.06.1 0 .22.05.13.03.24.1.12.06.2.15.09.08.1.19.01.07.04.12l.06.12.05.12.02.12z" style="-inkscape-font-specification:'Special Elite';text-align:center"/></g></svg>