<svg xmlns="http://www.w3.org/2000/svg" fill="none" viewBox="0 0 348 270"><path stroke="#000" stroke-width="2" d="M4.96 5.25H342.1v258.73H4.97z"/><ellipse cx="308.29" cy="36.55" stroke="#000" stroke-width="2" rx="15.9" ry="15.51"/><circle cx="163" cy="134.5" r="109" fill="#000" fill-opacity=".01" stroke="#000" stroke-width="2"/><path fill="#000" fill-opacity=".01" stroke="#000" stroke-width="1.64" d="M158.99 136.76H69.9a89.18 89.18 0 0 0-.04.64A89.18 89.18 0 0 0 159 226.58zm0-96.54a89.18 89.18 0 0 0-89.09 88.54H159zm97.2 96.45h-89.2v89.9a89.18 89.18 0 0 0 .06.01 89.18 89.18 0 0 0 89.18-89.18 89.18 89.18 0 0 0-.05-.73zm-89.14-96.45a89.18 89.18 0 0 0-.06 0v88.45h89.2a89.18 89.18 0 0 0-89.14-88.45Z"/></svg>