<svg width="395mm" height="150mm" viewBox="0 0 395 150" xmlns="http://www.w3.org/2000/svg"><path d="M24.708 30h270v90h-270z" fill="none" stroke="#000"/><path d="M24.708 30h30v30h-30z" fill="#00f"/><path d="M54.708 30h30v30h-30z" fill="#0080ff"/><path d="M84.708 30h30v30h-30z" fill="#0ff"/><path d="M114.71 30h30v30h-30z" fill="#8000ff"/><path d="M144.71 30h30v30h-30z" fill="#8080ff"/><path d="M174.71 30h30v30h-30z" fill="#80ffff"/><path d="M204.71 30h30v30h-30z" fill="#f0f"/><path d="M234.71 30h30v30h-30z" fill="#ff80ff"/><path d="M264.71 30h30v30h-30z" fill="#fff"/><path d="M24.708 60h30v30h-30z" fill="navy"/><path d="M54.708 60h30v30h-30z" fill="teal"/><path d="M84.708 60h30v30h-30z" fill="#00ff80"/><path d="M114.71 60h30v30h-30z" fill="purple"/><path d="M144.71 60h30v30h-30z" fill="gray"/><path d="M174.71 60h30v30h-30z" fill="#80ff80"/><path d="M204.71 60h30v30h-30z" fill="#ff0080"/><path d="M234.71 60h30v30h-30z" fill="#ff8080"/><path d="M264.71 60h30v30h-30z" fill="#ffff80"/><path d="M24.708 90h30v30h-30z"/><path d="M54.708 90h30v30h-30z" fill="green"/><path d="M84.708 90h30v30h-30z" fill="#0f0"/><path d="M114.71 90h30v30h-30z" fill="maroon"/><path d="M144.71 90h30v30h-30z" fill="olive"/><path d="M174.71 90h30v30h-30z" fill="#80ff00"/><path d="M204.71 90h30v30h-30z" fill="red"/><path d="M234.71 90h30v30h-30z" fill="#ff8000"/><path d="M264.71 90h30v30h-30z" fill="#ff0"/><path d="m316.13 111.94-9.402 2.407-6.785-6.939 2.617-9.346 9.402-2.406 6.785 6.938z" fill="gray"/><path d="M334.58 106.08h-5.675v5.891h-2.483v-5.891h-5.675v-2.195h5.675v-5.848h2.483v5.848h5.675z" stroke-width=".739" aria-label="+"/><path d="m351.54 111.94-9.402 2.407-6.785-6.939 2.617-9.346 9.402-2.406 6.785 6.938z" fill="teal"/><path d="M368.44 103.55h-12.418v-2.123h12.418zm0 5.025h-12.418v-2.123h12.418z" stroke-width=".739" aria-label="="/><path d="m388.4 111.94-9.402 2.407-6.785-6.939 2.617-9.346 9.402-2.406 6.785 6.938z" fill="#80ffff"/><g font-family="'Special Elite'"><path d="M164.09 16.599h-1.998l-1.94-4.156q-.218-.477-.447-.786-.229-.318-.497-.497-.258-.189-.577-.268-.308-.08-.696-.08h-.835V16.6h-1.77V3.604h3.48q1.134 0 1.95.249.814.248 1.331.696.527.447.766 1.083.249.627.249 1.392 0 .607-.18 1.154-.178.537-.536.984-.348.438-.875.766-.517.318-1.193.477.547.189.924.666.388.468.786 1.253zm-2.834-9.426q0-1.044-.656-1.56-.646-.518-1.83-.518h-1.67V9.39h1.432q.626 0 1.124-.139.507-.149.855-.427.358-.289.547-.696.198-.418.198-.955z" stroke-width=".509" aria-label="R"/><g font-size="13.528" stroke-width=".338"><path d="M72.406 24.085q0 .99-.198 1.81-.198.812-.601 1.4-.403.582-1.004.905-.595.317-1.4.317-.694 0-1.262-.257-.568-.265-.971-.806-.403-.542-.621-1.38-.218-.84-.218-1.989 0-.99.198-1.81.205-.819.601-1.4.403-.588 1.004-.905.601-.324 1.4-.324.694 0 1.262.264.568.258.971.806.403.542.621 1.38.218.84.218 1.989zm-1.163.04q0-.225-.02-.443-.013-.225-.032-.436l-3.653 2.715q.099.343.25.634.153.29.364.502.218.205.489.324.277.112.627.112.45 0 .813-.218.37-.218.627-.647.258-.43.397-1.064.138-.64.138-1.48zm-3.95-.08v.41q.007.205.027.396l3.653-2.701q-.1-.337-.251-.615-.152-.277-.364-.475-.211-.205-.482-.317-.27-.113-.608-.113-.449 0-.819.218-.363.218-.62.654-.258.43-.397 1.07-.139.635-.139 1.473z" aria-label="0"/><path d="M162.14 28.398h-5.423v-1.07h2.22v-6.302l-2.068 1.123-.423-.977 2.748-1.447h1.017v7.603h1.929z" aria-label="1"/><path d="M252.31 28.398h-5.687v-1.03l2.232-2.22q.549-.542.892-.938.344-.396.535-.72.192-.33.258-.62.066-.291.066-.628 0-.317-.086-.601-.086-.291-.264-.509-.179-.218-.463-.344-.284-.125-.68-.125-.548 0-.997.244-.45.245-.826.635l-.634-.76q.488-.515 1.123-.826.64-.31 1.486-.31.574 0 1.043.171.476.172.82.496t.528.793q.192.469.192 1.056 0 .496-.133.919t-.402.845q-.265.416-.674.865-.403.45-.958.985l-1.566 1.526h4.195z" aria-label="2"/></g></g><g font-family="Consolas"><path d="M74.352 138.11q-.726-.388-1.491-.597-.766-.218-1.67-.218-1.035 0-1.84.368-.806.367-1.362 1.044-.547.666-.846 1.61-.288.945-.288 2.088 0 1.194.239 2.138.238.945.745 1.6.508.657 1.293 1.005.795.348 1.9.348.188 0 .407-.02.219-.02.437-.05.22-.04.418-.089.209-.05.368-.11v-4.136h-2.655v-1.461h4.405v6.642q-.408.189-.865.338-.448.149-.925.248-.467.1-.935.15-.467.05-.904.05-1.333 0-2.407-.419-1.063-.417-1.819-1.232-.746-.826-1.153-2.049-.398-1.223-.398-2.833 0-1.601.447-2.864.448-1.273 1.253-2.148.815-.885 1.949-1.342 1.143-.467 2.515-.467.875 0 1.66.159.796.149 1.522.487z" stroke-width=".509" aria-label="G"/><g font-size="13.528" stroke-width=".338"><path d="M42.845 126.91q0 .99-.198 1.81-.198.812-.601 1.4-.403.582-1.004.905-.595.317-1.4.317-.694 0-1.262-.257-.568-.265-.971-.806-.403-.542-.621-1.38-.218-.84-.218-1.989 0-.99.198-1.81.205-.819.601-1.4.403-.588 1.004-.905.601-.324 1.4-.324.694 0 1.262.264.568.258.971.806.403.542.621 1.38.218.84.218 1.99zm-1.163.04q0-.225-.02-.443-.013-.225-.032-.436l-3.653 2.715q.099.343.25.634.153.29.364.502.218.205.489.324.277.112.627.112.45 0 .813-.218.37-.218.627-.647.258-.43.397-1.064.138-.64.138-1.48zm-3.95-.08v.41q.007.205.027.396l3.653-2.701q-.1-.337-.251-.615-.152-.277-.364-.475-.211-.205-.482-.317-.27-.113-.608-.113-.449 0-.819.218-.363.218-.62.654-.258.43-.397 1.07-.139.634-.139 1.473z" aria-label="0"/><path d="M72.242 131.22h-5.423v-1.07h2.22v-6.302l-2.068 1.123-.423-.977 2.748-1.447h1.017v7.603h1.929z" aria-label="1"/><path d="M102.55 131.22h-5.687v-1.03l2.232-2.22q.549-.541.892-.938.344-.396.535-.72.192-.33.258-.62.066-.291.066-.628 0-.317-.086-.601-.086-.29-.264-.509-.179-.218-.463-.343-.284-.126-.68-.126-.548 0-.998.244t-.825.635l-.634-.76q.488-.515 1.123-.826.64-.31 1.486-.31.574 0 1.043.172.476.171.82.495.343.324.528.793.192.469.192 1.057 0 .495-.133.918t-.402.845q-.265.416-.674.866-.403.449-.958.984l-1.566 1.526h4.195z" aria-label="2"/></g><path d="M10.944 77.61q0 .935-.368 1.66-.358.716-1.034 1.214-.666.497-1.62.755-.945.259-2.109.259h-3.4V68.503h3.719q4.345 0 4.345 3.161 0 1.054-.508 1.81-.497.756-1.63 1.124.527.099.994.338.477.238.835.616t.567.895q.209.517.209 1.163zm-2.307-5.707q0-.398-.119-.746-.12-.358-.418-.606-.298-.259-.805-.408-.507-.15-1.283-.15h-1.83v4.067h1.77q.607 0 1.094-.129.498-.13.846-.398.357-.268.546-.666.2-.407.2-.964zm.428 5.767q0-.497-.209-.895t-.606-.666q-.398-.279-.975-.428-.567-.149-1.282-.149h-1.81v4.474h1.87q1.52 0 2.266-.566.746-.567.746-1.77z" stroke-width=".509" aria-label="B"/></g><g font-family="'Special Elite'" font-size="13.528" stroke-width=".338"><path d="M22.143 105.56q0 .99-.198 1.81-.198.812-.601 1.4-.403.582-1.004.905-.595.317-1.4.317-.694 0-1.262-.257-.568-.265-.971-.806-.403-.542-.621-1.38-.218-.84-.218-1.989 0-.99.198-1.81.205-.819.601-1.4.403-.588 1.004-.905.601-.324 1.4-.324.694 0 1.262.264.568.258.971.806.403.542.621 1.38.218.84.218 1.989zm-1.163.04q0-.225-.02-.443-.013-.225-.032-.436l-3.653 2.715q.099.343.25.634.153.29.364.502.218.205.489.324.277.112.627.112.45 0 .813-.218.37-.218.627-.647.258-.43.397-1.064.138-.64.138-1.48zm-3.95-.08v.41q.007.205.027.396l3.653-2.701q-.1-.337-.251-.615-.152-.277-.364-.475-.211-.205-.482-.317-.27-.113-.608-.113-.449 0-.819.218-.363.218-.62.654-.258.43-.397 1.07-.139.634-.139 1.473z" aria-label="0"/><path d="M21.873 79.736H16.45v-1.07h2.22v-6.302l-2.068 1.123-.423-.977 2.748-1.447h1.017v7.603h1.929z" aria-label="1"/><path d="M21.945 49.429h-5.687v-1.03l2.232-2.22q.549-.542.892-.938.344-.396.535-.72.192-.33.258-.62.066-.291.066-.628 0-.317-.086-.601-.086-.291-.264-.509-.179-.218-.463-.344-.284-.125-.68-.125-.548 0-.998.244-.449.245-.825.635l-.634-.76q.488-.515 1.123-.826.64-.31 1.486-.31.574 0 1.043.171.476.172.82.496.343.324.528.793.192.469.192 1.056 0 .496-.133.919t-.402.845q-.265.416-.674.865-.403.45-.958.985l-1.566 1.526h4.195z" aria-label="2"/></g><path d="m318.5 48.175-7.335 6.355-9.17-3.175-1.837-9.53 7.335-6.354 9.17 3.174z" fill="maroon"/><path d="M334.58 46.076h-5.675v5.891h-2.483v-5.891h-5.675v-2.195h5.675v-5.848h2.483v5.848h5.675z" stroke-width=".739" aria-label="+"/><path d="m353.91 48.175-7.335 6.355-9.17-3.175-1.837-9.53 7.335-6.354 9.17 3.174z" fill="green"/><path d="M368.44 43.549h-12.418v-2.123h12.418zm0 5.025h-12.418V46.45h12.418z" stroke-width=".739" aria-label="="/><path d="m390.77 48.175-7.335 6.355-9.17-3.175-1.837-9.53 7.335-6.354 9.17 3.174z" fill="olive"/><g font-family="'Special Elite'" font-size="8.586" stroke-width=".215"><g aria-label="100"><path d="M306.34 47.74h-3.442v-.68h1.409v-3.999l-1.313.713-.268-.62 1.744-.919h.646v4.826h1.224zM311.24 45.002q0 .629-.126 1.149-.126.515-.381.888-.256.37-.638.575-.377.201-.888.201-.44 0-.801-.163-.36-.168-.616-.512t-.394-.876q-.139-.533-.139-1.262 0-.629.126-1.149.13-.52.382-.888.255-.374.637-.575.381-.205.889-.205.44 0 .8.167.36.164.617.512.255.344.394.876.138.533.138 1.262zm-.738.025q0-.142-.012-.28-.008-.143-.021-.277l-2.319 1.723q.063.218.16.402.096.185.23.319.138.13.31.205.176.071.399.071.285 0 .515-.138.235-.138.398-.41.164-.273.252-.676.088-.406.088-.939zm-2.507-.05v.26q.004.13.017.251l2.318-1.714q-.063-.214-.159-.39-.096-.176-.23-.302-.135-.13-.307-.201-.171-.072-.385-.072-.285 0-.52.139-.23.138-.394.415-.164.272-.252.679-.088.402-.088.935zM315.96 45.002q0 .629-.126 1.149-.126.515-.381.888-.256.37-.638.575-.377.201-.888.201-.44 0-.801-.163-.36-.168-.616-.512t-.394-.876q-.139-.533-.139-1.262 0-.629.126-1.149.13-.52.382-.888.255-.374.637-.575.381-.205.889-.205.44 0 .8.167.36.164.617.512.255.344.394.876.138.533.138 1.262zm-.738.025q0-.142-.012-.28-.008-.143-.021-.277l-2.319 1.723q.063.218.16.402.096.185.23.319.138.13.31.205.176.071.399.071.285 0 .515-.138.235-.138.398-.41.164-.273.252-.676.088-.406.088-.939zm-2.507-.05v.26q.004.13.017.251l2.318-1.714q-.063-.214-.159-.39-.096-.176-.23-.302-.135-.13-.307-.201-.171-.072-.385-.072-.285 0-.52.139-.23.138-.394.415-.164.272-.252.679-.088.402-.088.935z"/></g><g aria-label="10"><path d="M342.03 45.002q0 .629-.126 1.149-.126.515-.381.888-.256.37-.638.575-.377.201-.888.201-.44 0-.801-.163-.36-.168-.616-.512t-.394-.876q-.139-.533-.139-1.262 0-.629.126-1.149.13-.52.382-.888.255-.374.637-.575.381-.205.889-.205.44 0 .8.167.36.164.617.512.255.344.394.876.138.533.138 1.262zm-.738.025q0-.142-.012-.28-.008-.143-.021-.277l-2.319 1.723q.063.218.16.402.096.185.23.319.138.13.31.205.176.071.399.071.285 0 .515-.138.235-.138.398-.41.164-.273.252-.676.088-.406.088-.939zm-2.507-.05v.26q.004.13.017.251l2.318-1.714q-.063-.214-.159-.39-.096-.176-.23-.302-.135-.13-.307-.201-.171-.072-.385-.072-.285 0-.52.139-.23.138-.394.415-.164.272-.252.679-.088.402-.088.935zM346.58 47.74h-3.442v-.68h1.409v-3.999l-1.313.713-.268-.62 1.744-.919h.646v4.826h1.224zM351.47 45.002q0 .629-.126 1.149-.126.515-.381.888-.256.37-.638.575-.377.201-.888.201-.44 0-.801-.163-.36-.168-.616-.512t-.394-.876q-.139-.533-.139-1.262 0-.629.126-1.149.13-.52.382-.888.255-.374.637-.575.381-.205.889-.205.44 0 .8.167.36.164.617.512.255.344.394.876.138.533.138 1.262zm-.738.025q0-.142-.012-.28-.008-.143-.021-.277l-2.319 1.723q.063.218.16.402.096.185.23.319.138.13.31.205.176.071.399.071.285 0 .515-.138.235-.138.398-.41.164-.273.252-.676.088-.406.088-.939zm-2.507-.05v.26q.004.13.017.251l2.318-1.714q-.063-.214-.159-.39-.096-.176-.23-.302-.135-.13-.307-.201-.171-.072-.385-.072-.285 0-.52.139-.23.138-.394.415-.164.272-.252.679-.088.402-.088.935z"/></g><g aria-label="110"><path d="M378.62 47.74h-3.442v-.68h1.409v-3.999l-1.312.713-.269-.62 1.744-.919h.646v4.826h1.224zM383.34 47.74h-3.442v-.68h1.409v-3.999l-1.313.713-.268-.62 1.744-.919h.646v4.826h1.224zM388.23 45.002q0 .629-.126 1.149-.126.515-.381.888-.256.37-.638.575-.377.201-.888.201-.44 0-.801-.163-.36-.168-.616-.512t-.394-.876q-.139-.533-.139-1.262 0-.629.126-1.149.13-.52.382-.888.255-.374.637-.575.381-.205.889-.205.44 0 .8.167.36.164.617.512.255.344.394.876.138.533.138 1.262zm-.738.025q0-.142-.012-.28-.008-.143-.021-.277l-2.319 1.723q.063.218.16.402.096.185.23.319.138.13.31.205.176.071.399.071.285 0 .515-.138.235-.138.398-.41.164-.273.252-.676.088-.406.088-.939zm-2.507-.05v.26q.004.13.017.251l2.318-1.714q-.063-.214-.159-.39-.096-.176-.23-.302-.135-.13-.307-.201-.171-.072-.385-.072-.285 0-.52.139-.23.138-.394.415-.164.272-.252.679-.088.402-.088.935z"/></g><g aria-label="1+0=1"><path d="M373.68 62.093h-3.442v-.68h1.409v-3.999l-1.313.713-.268-.62 1.744-.919h.646v4.826h1.224zM378.59 60.127h-1.648v1.71h-.72v-1.71h-1.648v-.637h1.647v-1.698h.721v1.698h1.648zM383.29 59.355q0 .629-.126 1.149-.126.515-.381.888-.256.37-.638.575-.377.201-.888.201-.44 0-.801-.163-.36-.168-.616-.512t-.394-.876q-.139-.533-.139-1.262 0-.629.126-1.149.13-.52.382-.888.255-.374.637-.575.381-.205.889-.205.44 0 .8.167.36.164.617.512.255.344.394.876t.138 1.262zm-.738.025q0-.142-.012-.28-.008-.143-.021-.277l-2.319 1.723q.063.218.16.402.096.185.23.319.138.13.31.205.176.071.399.071.285 0 .515-.138.235-.138.398-.41.164-.273.252-.676.088-.406.088-.939zm-2.507-.05v.26q.004.13.017.251l2.318-1.714q-.063-.214-.159-.39-.096-.176-.23-.302-.135-.13-.307-.201-.171-.072-.385-.072-.285 0-.52.139-.23.138-.394.415-.164.272-.252.679-.088.402-.088.935zM387.82 59.385h-3.605v-.616h3.605zm0 1.459h-3.605v-.616h3.605zM392.56 62.093h-3.442v-.68h1.409v-3.999l-1.313.713-.268-.62 1.744-.919h.646v4.826h1.224z"/></g><g aria-label="0+1=1"><path d="M373.95 67.292q0 .629-.126 1.149-.126.515-.381.888-.256.37-.638.575-.377.201-.888.201-.44 0-.801-.163-.36-.168-.616-.512t-.394-.876-.139-1.262q0-.629.126-1.149.13-.52.382-.888.255-.374.637-.575.381-.205.889-.205.44 0 .8.167.36.164.617.512.255.344.394.876.138.533.138 1.262zm-.738.025q0-.142-.012-.28-.008-.143-.021-.277l-2.319 1.723q.063.218.16.402.096.185.23.319.138.13.31.205.176.071.399.071.285 0 .515-.138.235-.138.398-.41.164-.273.252-.676.088-.406.088-.939zm-2.507-.05v.26q.004.13.017.251l2.318-1.714q-.063-.214-.159-.39-.096-.176-.23-.302-.135-.13-.307-.201t-.385-.072q-.285 0-.52.139-.23.138-.394.415-.164.272-.252.679-.088.402-.088.935zM378.69 68.064h-1.648v1.71h-.72v-1.71h-1.648v-.637h1.647v-1.698h.721v1.698h1.648zM383.22 70.03h-3.442v-.68h1.409v-3.999l-1.313.713-.268-.62 1.744-.919h.646v4.826h1.224zM387.92 67.322h-3.605v-.616h3.605zm0 1.459h-3.605v-.616h3.605zM392.66 70.03h-3.442v-.68h1.409v-3.999l-1.313.713-.268-.62 1.744-.919h.646v4.826h1.224z"/></g><g aria-label="0+0=0"><path d="M373.86 74.701q0 .629-.126 1.149-.126.515-.381.888-.256.37-.638.575-.377.201-.888.201-.44 0-.801-.163-.36-.168-.616-.512t-.394-.876q-.139-.533-.139-1.262 0-.629.126-1.149.13-.52.382-.888.255-.374.637-.575.381-.205.889-.205.44 0 .8.167.36.164.617.512.255.344.394.876.138.533.138 1.262zm-.738.025q0-.142-.012-.28-.008-.143-.021-.277l-2.319 1.723q.063.218.16.402.096.185.23.319.138.13.31.205.176.071.399.071.285 0 .515-.138.235-.138.398-.41t.252-.676q.088-.406.088-.939zm-2.507-.05v.26q.004.13.017.251l2.318-1.714q-.063-.214-.159-.39-.096-.176-.23-.302-.135-.13-.307-.201-.171-.072-.385-.072-.285 0-.52.139-.23.138-.394.415-.164.272-.252.679-.088.402-.088.935zM378.6 75.473h-1.648v1.71h-.72v-1.71h-1.648v-.637h1.647v-1.698h.721v1.698h1.648zM383.3 74.701q0 .629-.126 1.149-.126.515-.381.888-.256.37-.638.575-.377.201-.888.201-.44 0-.801-.163-.36-.168-.616-.512t-.394-.876q-.139-.533-.139-1.262 0-.629.126-1.149.13-.52.382-.888.255-.374.637-.575.381-.205.889-.205.44 0 .8.167.36.164.617.512.255.344.394.876.138.533.138 1.262zm-.738.025q0-.142-.012-.28-.008-.143-.021-.277l-2.319 1.723q.063.218.16.402.096.185.23.319.138.13.31.205.176.071.399.071.285 0 .515-.138.235-.138.398-.41.164-.273.252-.676.088-.406.088-.939zm-2.507-.05v.26q.004.13.017.251l2.318-1.714q-.063-.214-.159-.39-.096-.176-.23-.302-.135-.13-.307-.201-.171-.072-.385-.072-.285 0-.52.139-.23.138-.394.415-.164.272-.252.679-.088.402-.088.935zM387.83 74.731h-3.605v-.616h3.605zm0 1.459h-3.605v-.616h3.605zM392.74 74.701q0 .629-.126 1.149-.126.515-.381.888-.256.37-.638.575-.377.201-.888.201-.44 0-.801-.163-.36-.168-.616-.512t-.394-.876q-.139-.533-.139-1.262 0-.629.126-1.149.13-.52.382-.888.255-.374.637-.575.381-.205.889-.205.44 0 .8.167.36.164.617.512.255.344.394.876.138.533.138 1.262zm-.738.025q0-.142-.012-.28-.008-.143-.021-.277l-2.319 1.723q.063.218.16.402.096.185.23.319.138.13.31.205.176.071.399.071.285 0 .515-.138.235-.138.398-.41.164-.273.252-.676.088-.406.088-.939zm-2.507-.05v.26q.004.13.017.251l2.318-1.714q-.063-.214-.159-.39-.096-.176-.23-.302-.135-.13-.307-.201-.171-.072-.385-.072-.285 0-.52.139-.23.138-.394.415-.164.272-.252.679-.088.402-.088.935z"/></g></g><g font-family="Consolas"><g font-size="8.586" stroke-width=".215"><g aria-label="111"><path d="M306.43 107.75h-3.442v-.68h1.409v-3.999l-1.312.713-.269-.62 1.744-.919h.646v4.826h1.224zM311.15 107.75h-3.442v-.68h1.409v-3.999l-1.313.713-.268-.62 1.744-.919h.646v4.826h1.224zM315.87 107.75h-3.442v-.68h1.409v-3.999l-1.313.713-.268-.62 1.744-.919h.646v4.826h1.224z"/></g><g aria-label="11"><path d="M342.11 105q0 .629-.126 1.149-.126.515-.381.888-.256.37-.638.575-.377.201-.888.201-.44 0-.801-.163-.36-.168-.616-.512t-.394-.876-.139-1.262q0-.629.126-1.149.13-.52.382-.888.255-.374.637-.575.381-.205.889-.205.44 0 .8.167.36.164.617.512.255.344.394.876.138.533.138 1.262zm-.738.025q0-.142-.012-.28-.008-.143-.021-.277l-2.319 1.723q.063.218.16.402.096.185.23.319.138.13.31.205.176.072.399.072.285 0 .515-.139.235-.138.398-.41.164-.273.252-.676.088-.406.088-.939zm-2.507-.05v.26q.004.13.017.251l2.318-1.714q-.063-.214-.159-.39-.096-.176-.23-.302-.135-.13-.307-.201-.171-.072-.385-.072-.285 0-.52.139-.23.138-.394.415-.164.272-.252.679-.088.402-.088.935zM346.66 107.74h-3.442v-.68h1.409v-3.999l-1.312.713-.269-.62 1.744-.919h.646v4.826h1.224zM351.38 107.74h-3.442v-.68h1.409v-3.999l-1.313.713-.268-.62 1.744-.919h.646v4.826h1.224z"/></g><g aria-label="122"><path d="M378.68 107.78h-3.442v-.68h1.409v-3.999l-1.312.713-.269-.62 1.744-.919h.646v4.826h1.224zM383.45 107.78h-3.61v-.654l1.417-1.409q.348-.343.566-.595.218-.251.34-.457.122-.21.163-.394.042-.184.042-.398 0-.201-.054-.382-.055-.184-.168-.323-.113-.138-.293-.218-.18-.08-.432-.08-.348 0-.633.156t-.524.402l-.403-.482q.31-.327.713-.524.407-.197.943-.197.365 0 .663.11.302.108.52.314.218.205.335.503.122.297.122.67 0 .315-.084.583-.084.268-.256.537-.168.264-.428.549-.255.285-.608.625l-.993.968h2.662zM388.17 107.78h-3.61v-.654l1.417-1.409q.348-.343.566-.595.218-.251.34-.457.122-.21.163-.394.042-.184.042-.398 0-.201-.054-.382-.055-.184-.168-.323-.113-.138-.293-.218-.18-.08-.432-.08-.348 0-.633.156t-.524.402l-.403-.482q.31-.327.713-.524.407-.197.943-.197.365 0 .663.11.302.108.52.314.218.205.335.503.122.297.122.67 0 .315-.084.583t-.256.537q-.168.264-.428.549-.255.285-.608.625l-.993.968h2.662z"/></g><g aria-label="1+0=1"><path d="M374.15 122.11h-3.442v-.68h1.409v-3.999l-1.313.713-.268-.62 1.744-.919h.646v4.826h1.224zM379.06 120.15h-1.648v1.71h-.72v-1.71h-1.648v-.637h1.647v-1.698h.721v1.698h1.648zM383.77 119.37q0 .629-.126 1.149-.126.515-.381.888-.256.37-.638.575-.377.201-.888.201-.44 0-.801-.163-.36-.168-.616-.512t-.394-.876-.139-1.262q0-.629.126-1.149.13-.52.382-.888.255-.374.637-.575.381-.205.889-.205.44 0 .8.167.36.164.617.512.255.344.394.876.138.533.138 1.262zm-.738.025q0-.142-.012-.28-.008-.143-.021-.277l-2.319 1.723q.063.218.16.402.096.185.23.319.138.13.31.205.176.072.399.072.285 0 .515-.139.235-.138.398-.41.164-.273.252-.676.088-.406.088-.939zm-2.507-.05v.26q.004.13.017.251l2.318-1.714q-.063-.214-.159-.39-.096-.176-.23-.302-.135-.13-.307-.201-.171-.072-.385-.072-.285 0-.52.139-.23.138-.394.415-.164.272-.252.679-.088.402-.088.935zM388.3 119.4h-3.605v-.616h3.605zm0 1.459h-3.605v-.616h3.605zM393.04 122.11h-3.442v-.68h1.409v-3.999l-1.313.713-.268-.62 1.744-.919h.646v4.826h1.224z"/></g><g aria-label="1+1=2"><path d="M374.13 130.05h-3.442v-.68h1.409v-3.999l-1.312.713-.269-.62 1.744-.919h.646v4.826h1.224zM379.04 128.08h-1.648v1.71h-.72v-1.71h-1.648v-.637h1.647v-1.698h.721v1.698h1.648zM383.57 130.05h-3.442v-.68h1.409v-3.999l-1.313.713-.268-.62 1.744-.919h.646v4.826h1.224zM388.28 127.34h-3.605v-.616h3.605zm0 1.459h-3.605v-.616h3.605zM393.06 130.05h-3.61v-.654l1.417-1.409q.348-.343.566-.595.218-.251.34-.457.122-.21.163-.394.042-.184.042-.398 0-.202-.054-.382-.055-.184-.168-.323-.113-.138-.293-.218-.18-.08-.432-.08-.348 0-.633.156-.285.155-.524.402l-.403-.482q.31-.327.713-.524.407-.197.943-.197.365 0 .663.11.302.108.52.314.218.205.335.503.122.297.122.67 0 .315-.084.583-.084.268-.256.537-.168.264-.428.549-.255.285-.608.625l-.993.968h2.662zM374.13 137.46h-3.442v-.68h1.409v-3.999l-1.312.713-.269-.62 1.744-.919h.646v4.826h1.224zM379.04 135.49h-1.648v1.71h-.72v-1.71h-1.648v-.637h1.647v-1.698h.721v1.698h1.648zM383.57 137.46h-3.442v-.68h1.409v-3.999l-1.313.713-.268-.62 1.744-.919h.646v4.826h1.224zM388.28 134.75h-3.605v-.616h3.605zm0 1.459h-3.605v-.616h3.605zM393.06 137.46h-3.61v-.654l1.417-1.409q.348-.343.566-.595.218-.251.34-.457.122-.21.163-.394.042-.184.042-.398 0-.201-.054-.382-.055-.184-.168-.323-.113-.138-.293-.218-.18-.08-.432-.08-.348 0-.633.156t-.524.402l-.403-.482q.31-.327.713-.524.407-.197.943-.197.365 0 .663.11.302.108.52.314.218.205.335.503.122.297.122.67 0 .315-.084.583-.084.268-.256.537-.168.264-.428.549-.255.285-.608.625l-.993.968h2.662z"/></g></g><g font-size="13.494" stroke-width=".265"><g fill="#fff" aria-label="0"><path d="M35.419 105q0 .988-.198 1.805-.197.81-.6 1.397-.401.58-1 .903-.594.316-1.398.316-.691 0-1.258-.257-.567-.263-.969-.804-.402-.54-.619-1.377-.217-.837-.217-1.983 0-.988.197-1.805.205-.817.6-1.397.402-.587 1.001-.903.6-.323 1.397-.323.692 0 1.259.264.566.257.968.804.402.54.62 1.377.217.837.217 1.983zm-1.16.04q0-.225-.02-.442-.013-.224-.032-.435l-3.644 2.708q.099.343.25.633.152.29.363.5.217.205.487.323.277.112.626.112.448 0 .81-.217.37-.218.627-.646.257-.428.395-1.06.138-.64.138-1.477zm-3.94-.08v.409q.007.204.027.395l3.643-2.695q-.099-.336-.25-.612-.152-.277-.363-.475-.21-.204-.48-.316-.27-.112-.607-.112-.448 0-.817.217-.362.218-.62.653-.256.428-.394 1.067-.139.633-.139 1.47zM42.838 105q0 .988-.198 1.805-.197.81-.6 1.397-.401.58-1 .903-.594.316-1.398.316-.691 0-1.258-.257-.567-.263-.969-.804t-.619-1.377q-.217-.837-.217-1.983 0-.988.197-1.805.205-.817.6-1.397.402-.587 1.001-.903.6-.323 1.397-.323.692 0 1.259.264.566.257.968.804.402.54.62 1.377.217.837.217 1.983zm-1.16.04q0-.225-.02-.442-.013-.224-.032-.435l-3.644 2.708q.099.343.25.633.152.29.363.5.217.205.487.323.277.112.626.112.448 0 .81-.217.37-.218.627-.646.257-.428.395-1.06.138-.64.138-1.477zm-3.94-.08v.409q.007.204.027.395l3.643-2.695q-.099-.336-.25-.612-.152-.277-.363-.475-.21-.204-.48-.316-.27-.112-.607-.112-.448 0-.817.217-.362.218-.619.653-.257.428-.395 1.067-.139.633-.139 1.47zM50.257 105q0 .988-.198 1.805-.197.81-.6 1.397-.401.58-1 .903-.594.316-1.398.316-.691 0-1.258-.257-.567-.263-.969-.804-.402-.54-.619-1.377-.217-.837-.217-1.983 0-.988.197-1.805.205-.817.6-1.397.402-.587 1.001-.903.6-.323 1.397-.323.692 0 1.259.264.566.257.968.804.402.54.62 1.377.217.837.217 1.983zm-1.16.04q0-.225-.02-.442-.013-.224-.032-.435l-3.644 2.708q.099.343.25.633.152.29.363.5.217.205.487.323.277.112.626.112.448 0 .81-.217.37-.218.627-.646.257-.428.395-1.06.138-.64.138-1.477zm-3.94-.08v.409q.007.204.027.395l3.643-2.695q-.099-.336-.25-.612-.152-.277-.363-.475-.21-.204-.48-.316-.27-.112-.607-.112-.448 0-.817.217-.362.218-.62.653-.256.428-.394 1.067-.139.633-.139 1.47z"/></g><g fill="#fff" aria-label="1"><path d="M35.419 75.003q0 .988-.198 1.805-.197.81-.6 1.397-.401.58-1 .903-.594.316-1.398.316-.691 0-1.258-.257-.567-.263-.969-.804-.402-.54-.619-1.377-.217-.837-.217-1.983 0-.988.197-1.805.205-.817.6-1.397.402-.586 1.001-.903.6-.323 1.397-.323.692 0 1.259.264.566.257.968.804.402.54.62 1.377.217.837.217 1.983zm-1.16.04q0-.224-.02-.442-.013-.224-.032-.435l-3.644 2.708q.099.343.25.633.152.29.363.5.217.205.487.323.277.112.626.112.448 0 .81-.217.37-.218.627-.646.257-.428.395-1.06.138-.64.138-1.476zm-3.94-.08v.409q.007.204.027.395l3.643-2.694q-.099-.337-.25-.613-.152-.277-.363-.475-.21-.204-.48-.316-.27-.112-.607-.112-.448 0-.817.217-.362.218-.62.653-.256.428-.394 1.067-.139.633-.139 1.47zM42.838 75.003q0 .988-.198 1.805-.197.81-.6 1.397-.401.58-1 .903-.594.316-1.398.316-.691 0-1.258-.257-.567-.263-.969-.804t-.619-1.377q-.217-.837-.217-1.983 0-.988.197-1.805.205-.817.6-1.397.402-.586 1.001-.903.6-.323 1.397-.323.692 0 1.259.264.566.257.968.804.402.54.62 1.377.217.837.217 1.983zm-1.16.04q0-.224-.02-.442-.013-.224-.032-.435l-3.644 2.708q.099.343.25.633.152.29.363.5.217.205.487.323.277.112.626.112.448 0 .81-.217.37-.218.627-.646.257-.428.395-1.06.138-.64.138-1.476zm-3.94-.08v.409q.007.204.027.395l3.643-2.694q-.099-.337-.25-.613-.152-.277-.363-.475-.21-.204-.48-.316-.27-.112-.607-.112-.448 0-.817.217-.362.218-.619.653-.257.428-.395 1.067-.139.633-.139 1.47zM49.987 79.306h-5.41v-1.067h2.214v-6.286l-2.062 1.12-.422-.975 2.741-1.443h1.015v7.584h1.924z"/></g><g aria-label="2"><path d="M35.419 45.003q0 .988-.198 1.805-.197.81-.6 1.397-.401.58-1 .903-.594.316-1.398.316-.691 0-1.258-.257-.567-.263-.969-.804-.402-.54-.619-1.377-.217-.837-.217-1.983 0-.988.197-1.805.205-.817.6-1.397.402-.586 1.001-.903.6-.323 1.397-.323.692 0 1.259.264.566.257.968.804.402.54.62 1.377.217.837.217 1.983zm-1.16.04q0-.224-.02-.442-.013-.224-.032-.435l-3.644 2.708q.099.343.25.633.152.29.363.5.217.205.487.323.277.112.626.112.448 0 .81-.217.37-.218.627-.646.257-.428.395-1.06.138-.64.138-1.476zm-3.94-.08v.409q.007.204.027.395l3.643-2.695q-.099-.336-.25-.612-.152-.277-.363-.475-.21-.204-.48-.316-.27-.112-.607-.112-.448 0-.817.217-.362.218-.62.653-.256.428-.394 1.067-.139.633-.139 1.47zM42.838 45.003q0 .988-.198 1.805-.197.81-.6 1.397-.401.58-1 .903-.594.316-1.398.316-.691 0-1.258-.257-.567-.263-.969-.804t-.619-1.377q-.217-.837-.217-1.983 0-.988.197-1.805.205-.817.6-1.397.402-.586 1.001-.903.6-.323 1.397-.323.692 0 1.259.264.566.257.968.804.402.54.62 1.377.217.837.217 1.983zm-1.16.04q0-.224-.02-.442-.013-.224-.032-.435l-3.644 2.708q.099.343.25.633.152.29.363.5.217.205.487.323.277.112.626.112.448 0 .81-.217.37-.218.627-.646.257-.428.395-1.06.138-.64.138-1.476zm-3.94-.08v.409q.007.204.027.395l3.643-2.695q-.099-.336-.25-.612-.152-.277-.363-.475-.21-.204-.48-.316-.27-.112-.607-.112-.448 0-.817.217-.362.218-.619.653-.257.428-.395 1.067-.139.633-.139 1.47zM50.06 49.306h-5.673v-1.028l2.227-2.214q.547-.54.89-.935t.533-.719q.191-.33.257-.619.066-.29.066-.626 0-.316-.086-.6-.085-.29-.263-.507-.178-.217-.461-.342-.284-.126-.679-.126-.547 0-.995.244-.448.244-.824.633l-.632-.758q.488-.514 1.12-.824.64-.31 1.483-.31.573 0 1.04.172.475.171.818.494.342.323.527.79.19.469.19 1.055 0 .494-.131.916-.132.422-.402.843-.264.415-.672.863-.402.448-.955.982l-1.562 1.522h4.184z"/></g><g fill="#fff" aria-label="10"><path d="M65.419 105q0 .988-.198 1.805-.197.81-.6 1.397-.401.58-1 .903-.594.316-1.398.316-.691 0-1.258-.257-.567-.263-.969-.804t-.619-1.377q-.217-.837-.217-1.983 0-.988.197-1.805.205-.817.6-1.397.402-.587 1.001-.903.6-.323 1.397-.323.692 0 1.259.264.566.257.968.804.402.54.62 1.377.217.837.217 1.983zm-1.16.04q0-.225-.02-.442-.013-.224-.032-.435l-3.644 2.708q.099.343.25.633.152.29.363.5.217.205.487.323.277.112.626.112.448 0 .81-.217.37-.218.627-.646.257-.428.395-1.06.138-.64.138-1.477zm-3.94-.08v.409q.007.204.027.395l3.643-2.695q-.099-.336-.25-.612-.152-.277-.363-.475-.21-.204-.48-.316t-.607-.112q-.448 0-.817.217-.362.218-.62.653-.256.428-.394 1.067-.139.633-.139 1.47zM72.568 109.31h-5.41v-1.067h2.214v-6.286l-2.062 1.12-.422-.975 2.741-1.443h1.015v7.584h1.924zM80.257 105q0 .988-.198 1.805-.197.81-.6 1.397-.401.58-1 .903-.594.316-1.398.316-.691 0-1.258-.257-.567-.263-.969-.804t-.619-1.377q-.217-.837-.217-1.983 0-.988.197-1.805.205-.817.6-1.397.402-.587 1.001-.903.6-.323 1.397-.323.692 0 1.259.264.566.257.968.804.402.54.62 1.377.217.837.217 1.983zm-1.16.04q0-.225-.02-.442-.013-.224-.032-.435l-3.644 2.708q.099.343.25.633.152.29.363.5.217.205.487.323.277.112.626.112.448 0 .81-.217.37-.218.627-.646.257-.428.395-1.06.138-.64.138-1.477zm-3.94-.08v.409q.007.204.027.395l3.643-2.695q-.099-.336-.25-.612-.152-.277-.363-.475-.21-.204-.48-.316t-.607-.112q-.448 0-.817.217-.362.218-.62.653-.256.428-.394 1.067-.139.633-.139 1.47z"/></g><g fill="#fff" aria-label="11"><path d="M65.419 75.003q0 .988-.198 1.805-.197.81-.6 1.397-.401.58-1 .903-.594.316-1.398.316-.691 0-1.258-.257-.567-.263-.969-.804t-.619-1.377q-.217-.837-.217-1.983 0-.988.197-1.805.205-.817.6-1.397.402-.586 1.001-.903.6-.323 1.397-.323.692 0 1.259.264.566.257.968.804.402.54.62 1.377.217.837.217 1.983zm-1.16.04q0-.224-.02-.442-.013-.224-.032-.435l-3.644 2.708q.099.343.25.633.152.29.363.5.217.205.487.323.277.112.626.112.448 0 .81-.217.37-.218.627-.646.257-.428.395-1.06.138-.64.138-1.476zm-3.94-.08v.409q.007.204.027.395l3.643-2.694q-.099-.337-.25-.613-.152-.277-.363-.475-.21-.204-.48-.316-.27-.112-.607-.112-.448 0-.817.217-.362.218-.62.653-.256.428-.394 1.067-.139.633-.139 1.47zM72.568 79.306h-5.41v-1.067h2.214v-6.286l-2.062 1.12-.422-.975 2.741-1.443h1.015v7.584h1.924zM79.987 79.306h-5.41v-1.067h2.214v-6.286l-2.062 1.12-.422-.975 2.741-1.443h1.015v7.584h1.924z"/></g></g></g><g font-family="Consolas" font-size="13.494" stroke-width=".265"><g aria-label="12"><path d="M65.419 45.003q0 .988-.198 1.805-.197.81-.6 1.397-.401.58-1 .903-.594.316-1.398.316-.691 0-1.258-.257-.567-.263-.969-.804t-.619-1.377q-.217-.837-.217-1.983 0-.988.197-1.805.205-.817.6-1.397.402-.586 1.001-.903.6-.323 1.397-.323.692 0 1.259.264.566.257.968.804.402.54.62 1.377.217.837.217 1.983zm-1.16.04q0-.224-.02-.442-.013-.224-.032-.435l-3.644 2.708q.099.343.25.633.152.29.363.5.217.205.487.323.277.112.626.112.448 0 .81-.217.37-.218.627-.646.257-.428.395-1.06.138-.64.138-1.476zm-3.94-.08v.409q.007.204.027.395l3.643-2.695q-.099-.336-.25-.612-.152-.277-.363-.475-.21-.204-.48-.316-.27-.112-.607-.112-.448 0-.817.217-.362.218-.62.653-.256.428-.394 1.067-.139.633-.139 1.47zM72.568 49.306h-5.41v-1.067h2.214v-6.286l-2.062 1.12-.422-.975 2.741-1.443h1.015v7.584h1.924zM80.06 49.306h-5.673v-1.028l2.227-2.214q.547-.54.89-.935t.533-.719q.191-.33.257-.619.066-.29.066-.626 0-.316-.086-.6-.085-.29-.263-.507-.178-.217-.461-.342-.284-.126-.679-.126-.547 0-.995.244t-.824.633l-.632-.758q.487-.514 1.12-.824.64-.31 1.483-.31.573 0 1.04.172.475.171.818.494.342.323.527.79.19.469.19 1.055 0 .494-.131.916-.132.422-.402.843-.264.415-.672.863-.402.448-.955.982l-1.562 1.522h4.184z"/></g><g aria-label="20"><path d="M95.419 105q0 .988-.198 1.805-.197.81-.6 1.397-.401.58-1 .903-.594.316-1.398.316-.691 0-1.258-.257-.567-.263-.969-.804t-.619-1.377q-.217-.837-.217-1.983 0-.988.197-1.805.205-.817.6-1.397.402-.587 1.001-.903.6-.323 1.397-.323.692 0 1.259.264.566.257.968.804.402.54.62 1.377.217.837.217 1.983zm-1.16.04q0-.225-.02-.442-.013-.224-.032-.435l-3.644 2.708q.099.343.25.633.152.29.363.5.217.205.487.323.277.112.626.112.448 0 .81-.217.37-.218.627-.646.257-.428.395-1.06.138-.64.138-1.477zm-3.94-.08v.409q.007.204.027.395l3.643-2.695q-.099-.336-.25-.612-.152-.277-.363-.475-.21-.204-.48-.316t-.607-.112q-.448 0-.817.217-.362.218-.62.653-.256.428-.394 1.067-.139.633-.139 1.47zM102.64 109.31h-5.673v-1.028l2.227-2.214q.547-.54.89-.935.342-.396.533-.719.191-.33.257-.619.066-.29.066-.626 0-.316-.086-.6-.085-.29-.263-.507-.178-.217-.461-.342-.284-.126-.68-.126-.546 0-.994.244-.448.244-.824.633l-.632-.758q.487-.514 1.12-.824.64-.31 1.482-.31.574 0 1.041.172.475.171.817.494.343.323.528.79.19.469.19 1.055 0 .494-.131.916-.132.422-.402.843-.264.415-.672.863-.402.448-.955.982l-1.562 1.522h4.184zM110.26 105q0 .988-.198 1.805-.197.81-.6 1.397-.401.58-1 .903-.594.316-1.398.316-.691 0-1.258-.257-.567-.263-.969-.804t-.619-1.377q-.217-.837-.217-1.983 0-.988.197-1.805.205-.817.6-1.397.402-.587 1.001-.903.6-.323 1.397-.323.692 0 1.259.264.566.257.968.804.402.54.62 1.377.217.837.217 1.983zm-1.16.04q0-.225-.02-.442-.013-.224-.032-.435l-3.644 2.708q.099.343.25.633.152.29.363.5.217.205.487.323.277.112.626.112.448 0 .81-.217.37-.218.627-.646.257-.428.395-1.06.138-.64.138-1.477zm-3.94-.08v.409q.007.204.027.395l3.643-2.695q-.098-.336-.25-.612-.152-.277-.362-.475-.211-.204-.481-.316t-.607-.112q-.448 0-.817.217-.362.218-.619.653-.257.428-.395 1.067-.139.633-.139 1.47z"/></g><g aria-label="21"><path d="M95.419 75.003q0 .988-.198 1.805-.197.81-.6 1.397-.401.58-1 .903-.594.316-1.398.316-.691 0-1.258-.257-.567-.263-.969-.804t-.619-1.377q-.217-.837-.217-1.983 0-.988.197-1.805.205-.817.6-1.397.402-.586 1.001-.903.6-.323 1.397-.323.692 0 1.259.264.566.257.968.804.402.54.62 1.377.217.837.217 1.983zm-1.16.04q0-.224-.02-.442-.013-.224-.032-.435l-3.644 2.708q.099.343.25.633.152.29.363.5.217.205.487.323.277.112.626.112.448 0 .81-.217.37-.218.627-.646.257-.428.395-1.06.138-.64.138-1.476zm-3.94-.08v.409q.007.204.027.395l3.643-2.694q-.099-.337-.25-.613-.152-.277-.363-.475-.21-.204-.48-.316-.27-.112-.607-.112-.448 0-.817.217-.362.218-.62.653-.256.428-.394 1.067-.139.633-.139 1.47zM102.64 79.306h-5.673v-1.028l2.227-2.214q.547-.54.89-.935.342-.396.533-.719.191-.33.257-.619.066-.29.066-.626 0-.316-.086-.6-.085-.29-.263-.507-.178-.217-.461-.342-.284-.126-.68-.126-.546 0-.994.244t-.824.633L97 71.709q.487-.514 1.12-.824.64-.31 1.482-.31.574 0 1.041.172.475.171.817.494.343.323.528.79.19.469.19 1.055 0 .494-.131.916-.132.422-.402.843-.264.415-.672.863-.402.448-.955.982l-1.562 1.522h4.184zM109.99 79.306h-5.41v-1.067h2.214v-6.286l-2.062 1.12-.422-.975 2.741-1.443h1.015v7.584h1.924z"/></g><g aria-label="22"><path d="M95.419 45.003q0 .988-.198 1.805-.197.81-.6 1.397-.401.58-1 .903-.594.316-1.398.316-.691 0-1.258-.257-.567-.263-.969-.804t-.619-1.377q-.217-.837-.217-1.983 0-.988.197-1.805.205-.817.6-1.397.402-.586 1.001-.903.6-.323 1.397-.323.692 0 1.259.264.566.257.968.804.402.54.62 1.377.217.837.217 1.983zm-1.16.04q0-.224-.02-.442-.013-.224-.032-.435l-3.644 2.708q.099.343.25.633.152.29.363.5.217.205.487.323.277.112.626.112.448 0 .81-.217.37-.218.627-.646.257-.428.395-1.06.138-.64.138-1.476zm-3.94-.08v.409q.007.204.027.395l3.643-2.695q-.099-.336-.25-.612-.152-.277-.363-.475-.21-.204-.48-.316-.27-.112-.607-.112-.448 0-.817.217-.362.218-.62.653-.256.428-.394 1.067-.139.633-.139 1.47zM102.64 49.306h-5.673v-1.028l2.227-2.214q.547-.54.89-.935.342-.396.533-.719.191-.33.257-.619.066-.29.066-.626 0-.316-.086-.6-.085-.29-.263-.507-.178-.217-.461-.342-.284-.126-.68-.126-.546 0-.994.244t-.824.633L97 41.709q.487-.514 1.12-.824.64-.31 1.482-.31.574 0 1.041.172.475.171.817.494.343.323.528.79.19.469.19 1.055 0 .494-.131.916-.132.422-.402.843-.264.415-.672.863-.402.448-.955.982l-1.562 1.522h4.184zM110.06 49.306h-5.673v-1.028l2.227-2.214q.547-.54.89-.935t.533-.719q.191-.33.257-.619.066-.29.066-.626 0-.316-.086-.6-.085-.29-.263-.507-.178-.217-.461-.342-.284-.126-.68-.126-.546 0-.994.244t-.824.633l-.632-.758q.487-.514 1.12-.824.64-.31 1.482-.31.574 0 1.041.172.475.171.817.494.343.323.528.79.19.469.19 1.055 0 .494-.131.916-.132.422-.402.843-.264.415-.672.863-.402.448-.955.982l-1.562 1.522h4.184z"/></g><g fill="#fff" aria-label="100"><path d="M125.15 109.31h-5.41v-1.067h2.214v-6.286l-2.062 1.12-.422-.975 2.741-1.443h1.015v7.584h1.924zM132.84 105q0 .988-.198 1.805-.197.81-.6 1.397-.401.58-1 .903-.594.316-1.398.316-.691 0-1.258-.257-.567-.263-.969-.804t-.619-1.377q-.217-.837-.217-1.983 0-.988.197-1.805.205-.817.6-1.397.402-.587 1.001-.903.6-.323 1.397-.323.692 0 1.259.264.566.257.968.804.402.54.62 1.377t.217 1.983zm-1.16.04q0-.225-.02-.442-.013-.224-.032-.435l-3.644 2.708q.099.343.25.633.152.29.363.5.217.205.487.323.277.112.626.112.448 0 .81-.217.37-.218.627-.646.257-.428.395-1.06.138-.64.138-1.477zm-3.94-.08v.409q.007.204.027.395l3.643-2.695q-.099-.336-.25-.612-.152-.277-.362-.475-.211-.204-.481-.316-.27-.112-.607-.112-.448 0-.817.217-.362.218-.619.653-.257.428-.395 1.067-.139.633-.139 1.47zM140.26 105q0 .988-.198 1.805-.197.81-.6 1.397-.401.58-1 .903-.594.316-1.398.316-.691 0-1.258-.257-.567-.263-.969-.804t-.619-1.377q-.217-.837-.217-1.983 0-.988.197-1.805.205-.817.6-1.397.402-.587 1.001-.903.6-.323 1.397-.323.692 0 1.259.264.566.257.968.804.402.54.62 1.377.217.837.217 1.983zm-1.16.04q0-.225-.02-.442-.013-.224-.032-.435l-3.644 2.708q.099.343.25.633.152.29.363.5.217.205.487.323.277.112.626.112.448 0 .81-.217.37-.218.627-.646.257-.428.395-1.06.138-.64.138-1.477zm-3.94-.08v.409q.007.204.027.395l3.643-2.695q-.099-.336-.25-.612-.152-.277-.362-.475-.211-.204-.481-.316t-.607-.112q-.448 0-.817.217-.362.218-.619.653-.257.428-.395 1.067-.139.633-.139 1.47z"/></g><g fill="#fff" aria-label="101"><path d="M125.15 79.306h-5.41v-1.067h2.214v-6.286l-2.062 1.12-.422-.975 2.741-1.443h1.015v7.584h1.924zM132.84 75.003q0 .988-.198 1.805-.197.81-.6 1.397-.401.58-1 .903-.594.316-1.398.316-.691 0-1.258-.257-.567-.263-.969-.804t-.619-1.377q-.217-.837-.217-1.983 0-.988.197-1.805.205-.817.6-1.397.402-.586 1.001-.903.6-.323 1.397-.323.692 0 1.259.264.566.257.968.804.402.54.62 1.377t.217 1.983zm-1.16.04q0-.224-.02-.442-.013-.224-.032-.435l-3.644 2.708q.099.343.25.633.152.29.363.5.217.205.487.323.277.112.626.112.448 0 .81-.217.37-.218.627-.646.257-.428.395-1.06.138-.64.138-1.476zm-3.94-.08v.409q.007.204.027.395l3.643-2.694q-.099-.337-.25-.613-.152-.277-.362-.475-.211-.204-.481-.316-.27-.112-.607-.112-.448 0-.817.217-.362.218-.619.653-.257.428-.395 1.067-.139.633-.139 1.47zM139.99 79.306h-5.41v-1.067h2.214v-6.286l-2.062 1.12-.422-.975 2.741-1.443h1.015v7.584h1.924z"/></g><g aria-label="102"><path d="M125.15 49.306h-5.41v-1.067h2.214v-6.286l-2.062 1.12-.422-.975 2.741-1.443h1.015v7.584h1.924zM132.84 45.003q0 .988-.198 1.805-.197.81-.6 1.397-.401.58-1 .903-.594.316-1.398.316-.691 0-1.258-.257-.567-.263-.969-.804t-.619-1.377q-.217-.837-.217-1.983 0-.988.197-1.805.205-.817.6-1.397.402-.586 1.001-.903.6-.323 1.397-.323.692 0 1.259.264.566.257.968.804.402.54.62 1.377t.217 1.983zm-1.16.04q0-.224-.02-.442-.013-.224-.032-.435l-3.644 2.708q.099.343.25.633.152.29.363.5.217.205.487.323.277.112.626.112.448 0 .81-.217.37-.218.627-.646.257-.428.395-1.06.138-.64.138-1.476zm-3.94-.08v.409q.007.204.027.395l3.643-2.695q-.099-.336-.25-.612-.152-.277-.362-.475-.211-.204-.481-.316-.27-.112-.607-.112-.448 0-.817.217-.362.218-.619.653-.257.428-.395 1.067-.139.633-.139 1.47zM140.06 49.306h-5.673v-1.028l2.227-2.214q.547-.54.89-.935t.533-.719q.191-.33.257-.619.066-.29.066-.626 0-.316-.086-.6-.085-.29-.263-.507-.178-.217-.461-.342-.284-.126-.679-.126-.547 0-.995.244t-.824.633l-.632-.758q.488-.514 1.12-.824.64-.31 1.483-.31.573 0 1.04.172.475.171.818.494.342.323.527.79.19.469.19 1.055 0 .494-.131.916-.132.422-.402.843-.263.415-.672.863-.402.448-.955.982l-1.562 1.522h4.184z"/></g><g fill="#fff" aria-label="110"><path d="M155.15 109.31h-5.41v-1.067h2.214v-6.286l-2.062 1.12-.422-.975 2.741-1.443h1.015v7.584h1.924zM162.57 109.31h-5.41v-1.067h2.214v-6.286l-2.062 1.12-.422-.975 2.741-1.443h1.015v7.584h1.924zM170.26 105q0 .988-.198 1.805-.197.81-.6 1.397-.401.58-1 .903-.594.316-1.398.316-.691 0-1.258-.257-.567-.263-.969-.804t-.619-1.377q-.217-.837-.217-1.983 0-.988.197-1.805.205-.817.6-1.397.402-.587 1.001-.903.6-.323 1.397-.323.692 0 1.259.264.566.257.968.804.402.54.62 1.377.217.837.217 1.983zm-1.16.04q0-.225-.02-.442-.013-.224-.032-.435l-3.644 2.708q.099.343.25.633.152.29.363.5.217.205.487.323.277.112.626.112.448 0 .81-.217.37-.218.627-.646.257-.428.395-1.06.138-.64.138-1.477zm-3.94-.08v.409q.007.204.027.395l3.643-2.695q-.099-.336-.25-.612-.152-.277-.362-.475-.211-.204-.481-.316t-.607-.112q-.448 0-.817.217-.362.218-.619.653-.257.428-.395 1.067-.139.633-.139 1.47z"/></g><g fill="#fff" aria-label="111"><path d="M155.15 79.306h-5.41v-1.067h2.214v-6.286l-2.062 1.12-.422-.975 2.741-1.443h1.015v7.584h1.924zM162.57 79.306h-5.41v-1.067h2.214v-6.286l-2.062 1.12-.422-.975 2.741-1.443h1.015v7.584h1.924zM169.99 79.306h-5.41v-1.067h2.214v-6.286l-2.062 1.12-.422-.975 2.741-1.443h1.015v7.584h1.924z"/></g><g aria-label="112"><path d="M155.15 49.306h-5.41v-1.067h2.214v-6.286l-2.062 1.12-.422-.975 2.741-1.443h1.015v7.584h1.924zM162.57 49.306h-5.41v-1.067h2.214v-6.286l-2.062 1.12-.422-.975 2.741-1.443h1.015v7.584h1.924zM170.06 49.306h-5.673v-1.028l2.227-2.214q.547-.54.89-.935t.533-.719q.191-.33.257-.619.066-.29.066-.626 0-.316-.086-.6-.085-.29-.263-.507-.178-.217-.461-.342-.284-.126-.679-.126-.547 0-.995.244t-.824.633l-.632-.758q.488-.514 1.12-.824.64-.31 1.483-.31.573 0 1.04.172.475.171.818.494.342.323.527.79.19.469.19 1.055 0 .494-.131.916-.132.422-.402.843-.263.415-.672.863-.402.448-.955.982l-1.562 1.522h4.184z"/></g><g aria-label="120"><path d="M185.15 109.31h-5.41v-1.067h2.214v-6.286l-2.062 1.12-.422-.975 2.741-1.443h1.015v7.584h1.924zM192.64 109.31h-5.673v-1.028l2.227-2.214q.547-.54.89-.935.342-.396.533-.719.191-.33.257-.619.066-.29.066-.626 0-.316-.086-.6-.085-.29-.263-.507-.178-.217-.461-.342-.284-.126-.68-.126-.546 0-.994.244-.448.244-.824.633l-.632-.758q.487-.514 1.12-.824.64-.31 1.482-.31.574 0 1.041.172.475.171.817.494.343.323.528.79.19.469.19 1.055 0 .494-.131.916-.132.422-.402.843-.264.415-.672.863-.402.448-.955.982l-1.562 1.522h4.184zM200.26 105q0 .988-.198 1.805-.197.81-.6 1.397-.401.58-1 .903-.594.316-1.398.316-.691 0-1.258-.257-.567-.263-.969-.804t-.619-1.377q-.217-.837-.217-1.983 0-.988.197-1.805.205-.817.6-1.397.402-.587 1.001-.903.6-.323 1.397-.323.692 0 1.259.264.566.257.968.804.402.54.62 1.377.217.837.217 1.983zm-1.16.04q0-.225-.02-.442-.013-.224-.032-.435l-3.644 2.708q.099.343.25.633.152.29.363.5.217.205.487.323.277.112.626.112.448 0 .81-.217.37-.218.627-.646.257-.428.395-1.06.138-.64.138-1.477zm-3.94-.08v.409q.007.204.027.395l3.643-2.695q-.099-.336-.25-.612-.152-.277-.362-.475-.211-.204-.481-.316t-.607-.112q-.448 0-.817.217-.362.218-.619.653-.257.428-.395 1.067-.139.633-.139 1.47z"/></g><g aria-label="121"><path d="M185.15 79.306h-5.41v-1.067h2.214v-6.286l-2.062 1.12-.422-.975 2.741-1.443h1.015v7.584h1.924zM192.64 79.306h-5.673v-1.028l2.227-2.214q.547-.54.89-.935.342-.396.533-.719.191-.33.257-.619.066-.29.066-.626 0-.316-.086-.6-.085-.29-.263-.507-.178-.217-.461-.342-.284-.126-.68-.126-.546 0-.994.244-.448.244-.824.633l-.632-.758q.487-.514 1.12-.824.64-.31 1.482-.31.574 0 1.041.172.475.171.817.494.343.323.528.79.19.469.19 1.055 0 .494-.131.916-.132.422-.402.843-.264.415-.672.863-.402.448-.955.982l-1.562 1.522h4.184zM199.99 79.306h-5.41v-1.067h2.214v-6.286l-2.062 1.12-.422-.975 2.741-1.443h1.015v7.584h1.924z"/></g><g aria-label="122"><path d="M185.15 49.306h-5.41v-1.067h2.214v-6.286l-2.062 1.12-.422-.975 2.741-1.443h1.015v7.584h1.924zM192.64 49.306h-5.673v-1.028l2.227-2.214q.547-.54.89-.935.342-.396.533-.719.191-.33.257-.619.066-.29.066-.626 0-.316-.086-.6-.085-.29-.263-.507-.178-.217-.461-.342-.284-.126-.68-.126-.546 0-.994.244-.448.244-.824.633l-.632-.758q.487-.514 1.12-.824.64-.31 1.482-.31.574 0 1.041.172.475.171.817.494.343.323.528.79.19.469.19 1.055 0 .494-.131.916-.132.422-.402.843-.264.415-.672.863-.402.448-.955.982l-1.562 1.522h4.184zM200.06 49.306h-5.673v-1.028l2.227-2.214q.547-.54.89-.935t.533-.719q.191-.33.257-.619.066-.29.066-.626 0-.316-.086-.6-.085-.29-.263-.507-.178-.217-.461-.342-.284-.126-.679-.126-.547 0-.995.244t-.824.633l-.632-.758q.488-.514 1.12-.824.64-.31 1.483-.31.573 0 1.04.172.475.171.818.494.342.323.527.79.19.469.19 1.055 0 .494-.131.916-.132.422-.402.843-.263.415-.672.863-.402.448-.955.982l-1.562 1.522h4.184z"/></g><g aria-label="200"><path d="M215.22 109.31h-5.673v-1.028l2.227-2.214q.547-.54.89-.935t.533-.719q.191-.33.257-.619.066-.29.066-.626 0-.316-.086-.6-.085-.29-.263-.507-.178-.217-.461-.342-.284-.126-.679-.126-.547 0-.995.244-.448.244-.824.633l-.632-.758q.488-.514 1.12-.824.64-.31 1.483-.31.573 0 1.04.172.475.171.818.494.342.323.527.79.19.469.19 1.055 0 .494-.131.916t-.402.843q-.263.415-.672.863-.402.448-.955.982l-1.562 1.522h4.184zM222.84 105q0 .988-.198 1.805-.197.81-.6 1.397-.401.58-1 .903-.594.316-1.398.316-.691 0-1.258-.257-.567-.263-.969-.804t-.619-1.377q-.217-.837-.217-1.983 0-.988.197-1.805.205-.817.6-1.397.402-.587 1.001-.903.6-.323 1.397-.323.692 0 1.259.264.566.257.968.804.402.54.62 1.377t.217 1.983zm-1.16.04q0-.225-.02-.442-.013-.224-.032-.435l-3.644 2.708q.099.343.25.633.152.29.363.5.217.205.487.323.277.112.626.112.448 0 .81-.217.37-.218.627-.646.257-.428.395-1.06.138-.64.138-1.477zm-3.94-.08v.409q.007.204.027.395l3.643-2.695q-.099-.336-.25-.612-.152-.277-.362-.475-.211-.204-.481-.316-.27-.112-.607-.112-.448 0-.817.217-.362.218-.619.653-.257.428-.395 1.067-.139.633-.139 1.47zM230.26 105q0 .988-.198 1.805-.197.81-.6 1.397-.401.58-1 .903-.594.316-1.398.316-.691 0-1.258-.257-.567-.263-.969-.804t-.619-1.377q-.217-.837-.217-1.983 0-.988.197-1.805.205-.817.6-1.397.402-.587 1.001-.903.6-.323 1.397-.323.692 0 1.259.264.566.257.968.804.402.54.62 1.377.217.837.217 1.983zm-1.16.04q0-.225-.02-.442-.013-.224-.032-.435l-3.644 2.708q.099.343.25.633.152.29.363.5.217.205.487.323.277.112.626.112.448 0 .81-.217.37-.218.627-.646.257-.428.395-1.06.138-.64.138-1.477zm-3.94-.08v.409q.007.204.027.395l3.643-2.695q-.099-.336-.25-.612-.152-.277-.362-.475-.211-.204-.481-.316t-.607-.112q-.448 0-.817.217-.362.218-.619.653-.257.428-.395 1.067-.139.633-.139 1.47z"/></g><g aria-label="201"><path d="M215.22 79.306h-5.673v-1.028l2.227-2.214q.547-.54.89-.935t.533-.719q.191-.33.257-.619.066-.29.066-.626 0-.316-.086-.6-.085-.29-.263-.507-.178-.217-.461-.342-.284-.126-.679-.126-.547 0-.995.244t-.824.633l-.632-.758q.488-.514 1.12-.824.64-.31 1.483-.31.573 0 1.04.172.475.171.818.494.342.323.527.79.19.469.19 1.055 0 .494-.131.916-.132.422-.402.843-.263.415-.672.863-.402.448-.955.982l-1.562 1.522h4.184zM222.84 75.003q0 .988-.198 1.805-.197.81-.6 1.397-.401.58-1 .903-.594.316-1.398.316-.691 0-1.258-.257-.567-.263-.969-.804t-.619-1.377q-.217-.837-.217-1.983 0-.988.197-1.805.205-.817.6-1.397.402-.586 1.001-.903.6-.323 1.397-.323.692 0 1.259.264.566.257.968.804.402.54.62 1.377t.217 1.983zm-1.16.04q0-.224-.02-.442-.013-.224-.032-.435l-3.644 2.708q.099.343.25.633.152.29.363.5.217.205.487.323.277.112.626.112.448 0 .81-.217.37-.218.627-.646.257-.428.395-1.06.138-.64.138-1.476zm-3.94-.08v.409q.007.204.027.395l3.643-2.694q-.099-.337-.25-.613-.152-.277-.362-.475-.211-.204-.481-.316-.27-.112-.607-.112-.448 0-.817.217-.362.218-.619.653-.257.428-.395 1.067-.139.633-.139 1.47zM229.99 79.306h-5.41v-1.067h2.214v-6.286l-2.062 1.12-.422-.975 2.741-1.443h1.015v7.584h1.924z"/></g><g aria-label="202"><path d="M215.22 49.306h-5.673v-1.028l2.227-2.214q.547-.54.89-.935t.533-.719q.191-.33.257-.619.066-.29.066-.626 0-.316-.086-.6-.085-.29-.263-.507-.178-.217-.461-.342-.284-.126-.679-.126-.547 0-.995.244t-.824.633l-.632-.758q.488-.514 1.12-.824.64-.31 1.483-.31.573 0 1.04.172.475.171.818.494.342.323.527.79.19.469.19 1.055 0 .494-.131.916-.132.422-.402.843-.263.415-.672.863-.402.448-.955.982l-1.562 1.522h4.184zM222.84 45.003q0 .988-.198 1.805-.197.81-.6 1.397-.401.58-1 .903-.594.316-1.398.316-.691 0-1.258-.257-.567-.263-.969-.804t-.619-1.377q-.217-.837-.217-1.983 0-.988.197-1.805.205-.817.6-1.397.402-.586 1.001-.903.6-.323 1.397-.323.692 0 1.259.264.566.257.968.804.402.54.62 1.377t.217 1.983zm-1.16.04q0-.224-.02-.442-.013-.224-.032-.435l-3.644 2.708q.099.343.25.633.152.29.363.5.217.205.487.323.277.112.626.112.448 0 .81-.217.37-.218.627-.646.257-.428.395-1.06.138-.64.138-1.476zm-3.94-.08v.409q.007.204.027.395l3.643-2.695q-.099-.336-.25-.612-.152-.277-.362-.475-.211-.204-.481-.316-.27-.112-.607-.112-.448 0-.817.217-.362.218-.619.653-.257.428-.395 1.067-.139.633-.139 1.47zM230.06 49.306h-5.673v-1.028l2.227-2.214q.547-.54.89-.935t.533-.719q.191-.33.257-.619.066-.29.066-.626 0-.316-.086-.6-.085-.29-.263-.507-.178-.217-.461-.342-.284-.126-.679-.126-.547 0-.995.244t-.824.633l-.632-.758q.488-.514 1.12-.824.64-.31 1.483-.31.573 0 1.04.172.475.171.818.494.342.323.527.79.19.469.19 1.055 0 .494-.131.916-.132.422-.402.843-.263.415-.672.863-.402.448-.955.982l-1.562 1.522h4.184z"/></g><g aria-label="210"><path d="M245.22 109.31h-5.673v-1.028l2.227-2.214q.547-.54.89-.935t.533-.719q.191-.33.257-.619.066-.29.066-.626 0-.316-.086-.6-.085-.29-.263-.507-.178-.217-.461-.342-.284-.126-.679-.126-.547 0-.995.244-.448.244-.824.633l-.632-.758q.488-.514 1.12-.824.64-.31 1.483-.31.573 0 1.04.172.475.171.818.494.342.323.527.79.19.469.19 1.055 0 .494-.131.916t-.402.843q-.263.415-.672.863-.402.448-.955.982l-1.562 1.522h4.184zM252.57 109.31h-5.41v-1.067h2.214v-6.286l-2.062 1.12-.422-.975 2.741-1.443h1.015v7.584h1.924zM260.26 105q0 .988-.198 1.805-.197.81-.6 1.397-.401.58-1 .903-.594.316-1.398.316-.691 0-1.258-.257-.567-.263-.969-.804t-.619-1.377q-.217-.837-.217-1.983 0-.988.197-1.805.205-.817.6-1.397.402-.587 1.001-.903.6-.323 1.397-.323.692 0 1.259.264.566.257.968.804.402.54.62 1.377.217.837.217 1.983zm-1.16.04q0-.225-.02-.442-.013-.224-.032-.435l-3.644 2.708q.099.343.25.633.152.29.363.5.217.205.487.323.277.112.626.112.448 0 .81-.217.37-.218.627-.646.257-.428.395-1.06.138-.64.138-1.477zm-3.94-.08v.409q.007.204.027.395l3.643-2.695q-.099-.336-.25-.612-.152-.277-.362-.475-.211-.204-.481-.316t-.607-.112q-.448 0-.817.217-.362.218-.619.653-.257.428-.395 1.067-.139.633-.139 1.47z"/></g><g aria-label="211"><path d="M245.22 79.306h-5.673v-1.028l2.227-2.214q.547-.54.89-.935t.533-.719q.191-.33.257-.619.066-.29.066-.626 0-.316-.086-.6-.085-.29-.263-.507-.178-.217-.461-.342-.284-.126-.679-.126-.547 0-.995.244t-.824.633l-.632-.758q.488-.514 1.12-.824.64-.31 1.483-.31.573 0 1.04.172.475.171.818.494.342.323.527.79.19.469.19 1.055 0 .494-.131.916-.132.422-.402.843-.263.415-.672.863-.402.448-.955.982l-1.562 1.522h4.184zM252.57 79.306h-5.41v-1.067h2.214v-6.286l-2.062 1.12-.422-.975 2.741-1.443h1.015v7.584h1.924zM259.99 79.306h-5.41v-1.067h2.214v-6.286l-2.062 1.12-.422-.975 2.741-1.443h1.015v7.584h1.924z"/></g><g aria-label="212"><path d="M245.22 49.306h-5.673v-1.028l2.227-2.214q.547-.54.89-.935t.533-.719q.191-.33.257-.619.066-.29.066-.626 0-.316-.086-.6-.085-.29-.263-.507-.178-.217-.461-.342-.284-.126-.679-.126-.547 0-.995.244t-.824.633l-.632-.758q.488-.514 1.12-.824.64-.31 1.483-.31.573 0 1.04.172.475.171.818.494.342.323.527.79.19.469.19 1.055 0 .494-.131.916-.132.422-.402.843-.263.415-.672.863-.402.448-.955.982l-1.562 1.522h4.184zM252.57 49.306h-5.41v-1.067h2.214v-6.286l-2.062 1.12-.422-.975 2.741-1.443h1.015v7.584h1.924zM260.06 49.306h-5.673v-1.028l2.227-2.214q.547-.54.89-.935t.533-.719q.191-.33.257-.619.066-.29.066-.626 0-.316-.086-.6-.085-.29-.263-.507-.178-.217-.461-.342-.284-.126-.679-.126-.547 0-.995.244t-.824.633l-.632-.758q.488-.514 1.12-.824.64-.31 1.483-.31.573 0 1.04.172.475.171.818.494.342.323.527.79.19.469.19 1.055 0 .494-.131.916-.132.422-.402.843-.263.415-.672.863-.402.448-.955.982l-1.562 1.522h4.184z"/></g><g aria-label="220"><path d="M275.22 109.31h-5.673v-1.028l2.227-2.214q.547-.54.89-.935.342-.396.533-.719.191-.33.257-.619.066-.29.066-.626 0-.316-.086-.6-.085-.29-.263-.507-.178-.217-.461-.342-.284-.126-.68-.126-.546 0-.994.244-.448.244-.824.633l-.632-.758q.487-.514 1.12-.824.64-.31 1.482-.31.574 0 1.041.172.475.171.817.494.343.323.528.79.19.469.19 1.055 0 .494-.131.916-.132.422-.402.843-.264.415-.672.863-.402.448-.955.982l-1.562 1.522h4.184zM282.64 109.31h-5.673v-1.028l2.227-2.214q.547-.54.89-.935t.533-.719q.191-.33.257-.619.066-.29.066-.626 0-.316-.086-.6-.085-.29-.263-.507-.178-.217-.461-.342-.284-.126-.679-.126-.547 0-.995.244-.448.244-.824.633l-.632-.758q.488-.514 1.12-.824.64-.31 1.483-.31.573 0 1.04.172.475.171.818.494.342.323.527.79.19.469.19 1.055 0 .494-.131.916t-.402.843q-.263.415-.672.863-.402.448-.955.982l-1.562 1.522h4.184zM290.26 105q0 .988-.198 1.805-.197.81-.6 1.397-.401.58-1 .903-.594.316-1.398.316-.691 0-1.258-.257-.567-.263-.969-.804t-.619-1.377q-.217-.837-.217-1.983 0-.988.197-1.805.205-.817.6-1.397.402-.587 1.001-.903.6-.323 1.397-.323.692 0 1.259.264.566.257.968.804.402.54.62 1.377.217.837.217 1.983zm-1.16.04q0-.225-.02-.442-.013-.224-.032-.435l-3.644 2.708q.099.343.25.633.152.29.363.5.217.205.487.323.277.112.626.112.448 0 .81-.217.37-.218.627-.646.257-.428.395-1.06.138-.64.138-1.477zm-3.94-.08v.409q.007.204.027.395l3.643-2.695q-.099-.336-.25-.612-.152-.277-.363-.475-.21-.204-.48-.316-.27-.112-.607-.112-.448 0-.817.217-.362.218-.62.653-.256.428-.394 1.067-.139.633-.139 1.47z"/></g><g aria-label="221"><path d="M275.22 79.306h-5.673v-1.028l2.227-2.214q.547-.54.89-.935.342-.396.533-.719.191-.33.257-.619.066-.29.066-.626 0-.316-.086-.6-.085-.29-.263-.507-.178-.217-.461-.342-.284-.126-.68-.126-.546 0-.994.244-.448.244-.824.633l-.632-.758q.487-.514 1.12-.824.64-.31 1.482-.31.574 0 1.041.172.475.171.817.494.343.323.528.79.19.469.19 1.055 0 .494-.131.916-.132.422-.402.843-.264.415-.672.863-.402.448-.955.982l-1.562 1.522h4.184zM282.64 79.306h-5.673v-1.028l2.227-2.214q.547-.54.89-.935t.533-.719q.191-.33.257-.619.066-.29.066-.626 0-.316-.086-.6-.085-.29-.263-.507-.178-.217-.461-.342-.284-.126-.679-.126-.547 0-.995.244t-.824.633l-.632-.758q.488-.514 1.12-.824.64-.31 1.483-.31.573 0 1.04.172.475.171.818.494.342.323.527.79.19.469.19 1.055 0 .494-.131.916-.132.422-.402.843-.263.415-.672.863-.402.448-.955.982l-1.562 1.522h4.184zM289.99 79.306h-5.41v-1.067h2.214v-6.286l-2.062 1.12-.422-.975 2.741-1.443h1.015v7.584h1.924z"/></g><g aria-label="222"><path d="M275.22 49.306h-5.673v-1.028l2.227-2.214q.547-.54.89-.935.342-.396.533-.719.191-.33.257-.619.066-.29.066-.626 0-.316-.086-.6-.085-.29-.263-.507-.178-.217-.461-.342-.284-.126-.68-.126-.546 0-.994.244-.448.244-.824.633l-.632-.758q.487-.514 1.12-.824.64-.31 1.482-.31.574 0 1.041.172.475.171.817.494.343.323.528.79.19.469.19 1.055 0 .494-.131.916-.132.422-.402.843-.264.415-.672.863-.402.448-.955.982l-1.562 1.522h4.184zM282.64 49.306h-5.673v-1.028l2.227-2.214q.547-.54.89-.935t.533-.719q.191-.33.257-.619.066-.29.066-.626 0-.316-.086-.6-.085-.29-.263-.507-.178-.217-.461-.342-.284-.126-.679-.126-.547 0-.995.244t-.824.633l-.632-.758q.488-.514 1.12-.824.64-.31 1.483-.31.573 0 1.04.172.475.171.818.494.342.323.527.79.19.469.19 1.055 0 .494-.131.916-.132.422-.402.843-.263.415-.672.863-.402.448-.955.982l-1.562 1.522h4.184zM290.06 49.306h-5.673v-1.028l2.227-2.214q.547-.54.89-.935t.533-.719q.191-.33.257-.619.066-.29.066-.626 0-.316-.086-.6-.085-.29-.263-.507-.178-.217-.461-.342-.284-.126-.68-.126-.546 0-.994.244-.448.244-.824.633l-.632-.758q.487-.514 1.12-.824.64-.31 1.482-.31.574 0 1.041.172.475.171.817.494.343.323.528.79.19.469.19 1.055 0 .494-.131.916-.132.422-.402.843-.264.415-.672.863-.402.448-.955.982l-1.562 1.522h4.184z"/></g></g></svg>