<?xml version="1.0" encoding="UTF-8" standalone="no"?>
<svg
   xmlns:dc="http://purl.org/dc/elements/1.1/"
   xmlns:cc="http://creativecommons.org/ns#"
   xmlns:rdf="http://www.w3.org/1999/02/22-rdf-syntax-ns#"
   xmlns:svg="http://www.w3.org/2000/svg"
   xmlns="http://www.w3.org/2000/svg"
   xmlns:sodipodi="http://sodipodi.sourceforge.net/DTD/sodipodi-0.dtd"
   xmlns:inkscape="http://www.inkscape.org/namespaces/inkscape"
   viewBox="0.0 0.0 348.0 348.0"
   fill="none"
   version="1.1"
   id="svg4534"
   sodipodi:docname="PasswordModule.svg"
   inkscape:version="0.92.3 (2405546, 2018-03-11)">
  <metadata
     id="metadata4540">
    <rdf:RDF>
      <cc:Work
         rdf:about="">
        <dc:format>image/svg+xml</dc:format>
        <dc:type
           rdf:resource="http://purl.org/dc/dcmitype/StillImage" />
        <dc:title />
      </cc:Work>
    </rdf:RDF>
  </metadata>
  <defs
     id="defs4538" />
  <sodipodi:namedview
     pagecolor="#ffffff"
     bordercolor="#666666"
     borderopacity="1"
     objecttolerance="10"
     gridtolerance="10"
     guidetolerance="10"
     inkscape:pageopacity="0"
     inkscape:pageshadow="2"
     inkscape:window-width="1920"
     inkscape:window-height="1001"
     id="namedview4536"
     showgrid="false"
     inkscape:zoom="1.4142136"
     inkscape:cx="71.7031"
     inkscape:cy="206.55178"
     inkscape:window-x="-9"
     inkscape:window-y="-9"
     inkscape:window-maximized="1"
     inkscape:current-layer="svg4534" />
  <path
     inkscape:connector-curvature="0"
     style="stroke:#000000;stroke-width:4.04578209"
     d="m 263.68547,44.845217 c 0,-16.799721 14.2123,-30.416394 31.74607,-30.416394 8.418,0 16.49323,3.203121 22.44458,8.907322 5.95341,5.704172 9.29941,13.442155 9.29941,21.509072 0,16.799719 -14.21226,30.416357 -31.74602,30.416357 -17.53174,0 -31.74404,-13.618654 -31.74404,-30.416357 z"
     id="path4532-9-7-2" />
  <path
     inkscape:connector-curvature="0"
     style="stroke:#000000;stroke-width:2"
     d="M 5.0435023,5.6650007 H 341.9565 V 343.335 H 5.0445023 Z"
     id="path4530" />
  <rect
     style="fill:none;fill-rule:evenodd;stroke:#000000;stroke-width:3.96050596;stroke-opacity:1"
     id="rect4752-6"
     width="278.97098"
     height="129.92989"
     x="31.634357"
     y="106.01203" />
  <rect
     style="fill:none;fill-rule:evenodd;stroke:#000000;stroke-width:3.12744379;stroke-opacity:1"
     id="rect4752-7-5"
     width="229.86803"
     height="98.325699"
     x="56.185917"
     y="121.81402" />
  <rect
     style="fill:none;fill-rule:evenodd;stroke:#000000;stroke-width:1.35252512;stroke-opacity:1"
     id="rect4752-7-5-8"
     width="51.021633"
     height="82.85199"
     x="78.331841"
     y="129.19408" />
  <rect
     style="fill:none;fill-rule:evenodd;stroke:#000000;stroke-width:1.35252512;stroke-opacity:1"
     id="rect4752-7-5-8-0"
     width="51.021633"
     height="82.85199"
     x="147.15524"
     y="129.27295" />
  <rect
     style="fill:none;fill-rule:evenodd;stroke:#000000;stroke-width:1.35252512;stroke-opacity:1"
     id="rect4752-7-5-8-7"
     width="51.021633"
     height="82.85199"
     x="214.27098"
     y="129.22919" />
  <text
     xml:space="preserve"
     style="font-style:normal;font-variant:normal;font-weight:bold;font-stretch:normal;font-size:78.34918976px;line-height:1.25;font-family:Calibri;-inkscape-font-specification:'Calibri, Bold';font-variant-ligatures:normal;font-variant-caps:normal;font-variant-numeric:normal;font-feature-settings:normal;text-align:start;letter-spacing:0px;word-spacing:0px;writing-mode:lr-tb;text-anchor:start;fill:#000000;fill-opacity:1;stroke:none;stroke-width:1.95872962"
     x="113.55367"
     y="154.87715"
     id="text5256"
     transform="scale(0.76750881,1.3029166)"><tspan
       sodipodi:role="line"
       id="tspan5254"
       x="113.55367"
       y="154.87715"
       style="stroke-width:1.95872962">X</tspan></text>
  <text
     xml:space="preserve"
     style="font-style:normal;font-variant:normal;font-weight:bold;font-stretch:normal;font-size:78.34918976px;line-height:1.25;font-family:Calibri;-inkscape-font-specification:'Calibri, Bold';font-variant-ligatures:normal;font-variant-caps:normal;font-variant-numeric:normal;font-feature-settings:normal;text-align:start;letter-spacing:0px;word-spacing:0px;writing-mode:lr-tb;text-anchor:start;fill:#000000;fill-opacity:1;stroke:none;stroke-width:1.95872962"
     x="203.79483"
     y="154.68443"
     id="text5256-4"
     transform="scale(0.76750881,1.3029166)"><tspan
       sodipodi:role="line"
       id="tspan5254-3"
       x="203.79483"
       y="154.68443"
       style="stroke-width:1.95872962">X</tspan></text>
  <text
     xml:space="preserve"
     style="font-style:normal;font-variant:normal;font-weight:bold;font-stretch:normal;font-size:78.34918976px;line-height:1.25;font-family:Calibri;-inkscape-font-specification:'Calibri, Bold';font-variant-ligatures:normal;font-variant-caps:normal;font-variant-numeric:normal;font-feature-settings:normal;text-align:start;letter-spacing:0px;word-spacing:0px;writing-mode:lr-tb;text-anchor:start;fill:#000000;fill-opacity:1;stroke:none;stroke-width:1.95872962"
     x="291.43674"
     y="153.97267"
     id="text5256-5"
     transform="scale(0.76750881,1.3029166)"><tspan
       sodipodi:role="line"
       id="tspan5254-0"
       x="291.43674"
       y="153.97267"
       style="stroke-width:1.95872962">X</tspan></text>
  <rect
     style="fill:none;fill-opacity:1;fill-rule:evenodd;stroke:#000000;stroke-width:3.35824156;stroke-opacity:1"
     id="rect5284"
     width="54.416649"
     height="34.973236"
     x="77.294556"
     y="252.7724" />
  <rect
     style="fill:none;fill-opacity:1;fill-rule:evenodd;stroke:#000000;stroke-width:3.35824156;stroke-opacity:1"
     id="rect5284-4"
     width="54.416649"
     height="34.973236"
     x="145.92"
     y="252.6631" />
  <rect
     style="fill:none;fill-opacity:1;fill-rule:evenodd;stroke:#000000;stroke-width:3.35824156;stroke-opacity:1"
     id="rect5284-5"
     width="54.416649"
     height="34.973236"
     x="213.71585"
     y="252.48837" />
  <rect
     style="fill:none;fill-opacity:1;fill-rule:evenodd;stroke:#000000;stroke-width:3.35824156;stroke-miterlimit:4;stroke-dasharray:none;stroke-opacity:1"
     id="rect5284-4-4"
     width="89.595085"
     height="29.697531"
     x="126.07686"
     y="298.61481" />
  <rect
     style="fill:none;fill-rule:evenodd;stroke:#000000;stroke-width:3.35824156;stroke-opacity:1"
     id="rect5322"
     width="191.25182"
     height="63.679264"
     x="48.655998"
     y="22.767128" />
  <text
     xml:space="preserve"
     style="font-style:normal;font-variant:normal;font-weight:900;font-stretch:normal;font-size:71.1187439px;line-height:1.25;font-family:'Ostrich Sans';-inkscape-font-specification:'Ostrich Sans, Heavy';font-variant-ligatures:normal;font-variant-caps:normal;font-variant-numeric:normal;font-feature-settings:normal;text-align:start;letter-spacing:0px;word-spacing:0px;writing-mode:lr-tb;text-anchor:start;fill:#000000;fill-opacity:1;stroke:none;stroke-width:1.77796865"
     x="55.728157"
     y="85.094742"
     id="text5326"
     transform="scale(1.1459799,0.87261568)"><tspan
       sodipodi:role="line"
       id="tspan5324"
       x="55.728157"
       y="85.094742"
       style="stroke-width:1.77796865">A+B+C</tspan></text>
  <text
     xml:space="preserve"
     style="font-style:normal;font-variant:normal;font-weight:900;font-stretch:normal;font-size:35.19753265px;line-height:1.25;font-family:'Ostrich Sans';-inkscape-font-specification:'Ostrich Sans, Heavy';font-variant-ligatures:normal;font-variant-caps:normal;font-variant-numeric:normal;font-feature-settings:normal;text-align:start;letter-spacing:0px;word-spacing:0px;writing-mode:lr-tb;text-anchor:start;fill:#000000;fill-opacity:1;stroke:none;stroke-width:0.87993836"
     x="70.621269"
     y="375.41013"
     id="text5330"
     transform="scale(1.3459612,0.74296347)"><tspan
       sodipodi:role="line"
       id="tspan5328"
       x="70.621269"
       y="375.41013"
       style="stroke-width:0.87993836">V</tspan></text>
  <text
     xml:space="preserve"
     style="font-style:normal;font-variant:normal;font-weight:900;font-stretch:normal;font-size:35.19753265px;line-height:1.25;font-family:'Ostrich Sans';-inkscape-font-specification:'Ostrich Sans, Heavy';font-variant-ligatures:normal;font-variant-caps:normal;font-variant-numeric:normal;font-feature-settings:normal;text-align:start;letter-spacing:0px;word-spacing:0px;writing-mode:lr-tb;text-anchor:start;fill:#000000;fill-opacity:1;stroke:none;stroke-width:0.87993836"
     x="121.95587"
     y="374.146"
     id="text5330-5"
     transform="scale(1.3459612,0.74296347)"><tspan
       sodipodi:role="line"
       id="tspan5328-1"
       x="121.95587"
       y="374.146"
       style="stroke-width:0.87993836">V</tspan></text>
  <text
     xml:space="preserve"
     style="font-style:normal;font-variant:normal;font-weight:900;font-stretch:normal;font-size:35.19753265px;line-height:1.25;font-family:'Ostrich Sans';-inkscape-font-specification:'Ostrich Sans, Heavy';font-variant-ligatures:normal;font-variant-caps:normal;font-variant-numeric:normal;font-feature-settings:normal;text-align:start;letter-spacing:0px;word-spacing:0px;writing-mode:lr-tb;text-anchor:start;fill:#000000;fill-opacity:1;stroke:none;stroke-width:0.87993836"
     x="171.93201"
     y="374.97806"
     id="text5330-4"
     transform="scale(1.3459612,0.74296347)"><tspan
       sodipodi:role="line"
       id="tspan5328-3"
       x="171.93201"
       y="374.97806"
       style="stroke-width:0.87993836">V</tspan></text>
  <g
     aria-label="Submit"
     transform="scale(1.183337,0.84506782)"
     style="font-style:normal;font-variant:normal;font-weight:900;font-stretch:normal;font-size:29.86099434px;line-height:1.25;font-family:'Ostrich Sans';-inkscape-font-specification:'Ostrich Sans, Heavy';font-variant-ligatures:normal;font-variant-caps:normal;font-variant-numeric:normal;font-feature-settings:normal;text-align:start;letter-spacing:0px;word-spacing:0px;writing-mode:lr-tb;text-anchor:start;fill:#000000;fill-opacity:1;stroke:none;stroke-width:0.74652487"
     id="text5330-0">
    <path
       d="m 113.2244,374.29886 c 0,3.91179 1.64236,5.82289 4.92707,5.82289 3.16526,0 4.92706,-1.79166 4.92706,-5.13609 0,-2.89652 -2.00069,-4.41943 -3.97151,-5.94234 h 0.0299 c -1.46319,-1.13472 -2.92638,-2.2993 -2.92638,-3.82221 0,-1.55277 0.68681,-2.23957 1.94097,-2.23957 1.31388,0 1.94096,0.89583 1.94096,2.86666 v 0.41805 c 0,0.59722 0.47778,1.07499 1.075,1.07499 h 0.83611 c 0.59722,0 1.07499,-0.47777 1.07499,-1.07499 v -0.41805 c 0,-3.79235 -1.70208,-5.85276 -4.92706,-5.85276 -3.16527,0 -4.92707,1.94096 -4.92707,5.31526 0,2.95624 2.06041,4.56873 4.03124,6.1215 v -0.0299 c 1.46319,1.13472 2.83679,2.23957 2.83679,3.64304 0,1.58263 -0.6868,2.12013 -1.94096,2.12013 -0.41806,0 -0.92569,-0.0597 -1.25416,-0.38819 -0.41806,-0.35833 -0.68681,-1.04514 -0.68681,-2.47846 v -0.3882 c 0,-0.59722 -0.50763,-1.07499 -1.07499,-1.07499 h -0.83611 c -0.59722,0 -1.075,0.47777 -1.075,1.07499 z"
       style="stroke-width:0.74652487"
       id="path2230" />
    <path
       d="m 124.91312,374.65719 c 0,3.16526 1.31388,5.46456 4.8972,5.46456 3.46387,0 4.8972,-2.12013 4.8972,-5.46456 v -13.58675 c 0,-0.59722 -0.47777,-1.075 -1.07499,-1.075 h -0.83611 c -0.56736,0 -1.04514,0.47778 -1.04514,1.075 v 13.58675 c 0,1.43333 -0.41805,2.50832 -1.94096,2.50832 -1.46319,0 -1.94097,-0.92569 -1.94097,-2.50832 v -13.58675 c 0,-0.59722 -0.47777,-1.075 -1.07499,-1.075 h -0.83611 c -0.56736,0 -1.04513,0.47778 -1.04513,1.075 z"
       style="stroke-width:0.74652487"
       id="path2232" />
    <path
       d="m 141.52189,380.15161 c 3.49374,0 5.04651,-1.9111 5.04651,-5.76317 0,-1.82152 -0.50763,-3.34443 -1.28402,-4.29998 0,0 1.28402,-1.52291 1.28402,-4.29999 0,-3.85207 -1.55277,-5.76317 -5.04651,-5.76317 h -2.95623 c -0.59722,0 -1.075,0.47778 -1.075,1.075 v 17.97632 c 0,0.59722 0.47778,1.07499 1.075,1.07499 z m 0,-17.17007 c 1.46319,0 2.06041,0.80625 2.06041,2.80693 0,2.00069 -0.59722,2.80694 -2.06041,2.80694 h -1.04513 v -5.61387 z m 0,8.5701 c 1.46319,0 2.06041,0.80625 2.06041,2.8368 0,2.00069 -0.59722,2.80693 -2.06041,2.80693 h -1.04513 v -5.64373 z"
       style="stroke-width:0.74652487"
       id="path2234" />
    <path
       d="m 154.47317,380.15161 c 0.44791,0 0.92569,-0.38819 1.04513,-0.86597 l 0.98542,-6.62914 v 6.42012 c 0,0.59722 0.47777,1.07499 1.07499,1.07499 h 0.83611 c 0.59722,0 1.075,-0.47777 1.075,-1.07499 V 361.1003 c 0,-0.59722 -0.47778,-1.075 -1.075,-1.075 h -0.89583 c -0.44791,0 -0.95555,0.38819 -1.04513,0.83611 l -2.32916,12.03398 -2.35902,-12.03398 c -0.0896,-0.44792 -0.56736,-0.83611 -1.01527,-0.83611 h -0.89583 c -0.59722,0 -1.075,0.47778 -1.075,1.075 v 17.97632 c 0,0.59722 0.47778,1.07499 1.075,1.07499 h 0.8361 c 0.56736,0 1.075,-0.47777 1.075,-1.07499 v -6.47984 l 1.01527,6.71872 c 0.0896,0.44792 0.56736,0.83611 1.01528,0.83611 z"
       style="stroke-width:0.74652487"
       id="path2236" />
    <path
       d="m 164.96511,361.1003 c 0,-0.59722 -0.50764,-1.075 -1.075,-1.075 H 163.054 c -0.59722,0 -1.07499,0.47778 -1.07499,1.075 v 17.97632 c 0,0.59722 0.47777,1.07499 1.07499,1.07499 h 0.83611 c 0.56736,0 1.075,-0.47777 1.075,-1.07499 z"
       style="stroke-width:0.74652487"
       id="path2238" />
    <path
       d="m 166.87808,361.90654 c 0,0.59722 0.47778,1.075 1.075,1.075 h 2.41874 v 16.06521 c 0,0.59722 0.47777,1.075 1.07499,1.075 h 0.80625 c 0.59722,0 1.07499,-0.47778 1.07499,-1.075 v -16.06521 h 2.44861 c 0.59722,0 1.07499,-0.47778 1.07499,-1.075 v -0.8361 c 0,-0.59722 -0.47777,-1.075 -1.07499,-1.075 h -7.82358 c -0.59722,0 -1.075,0.47778 -1.075,1.075 z"
       style="stroke-width:0.74652487"
       id="path2240" />
  </g>
</svg>
