<?xml version="1.0" encoding="UTF-8" standalone="no"?>
<svg
   xmlns:dc="http://purl.org/dc/elements/1.1/"
   xmlns:cc="http://creativecommons.org/ns#"
   xmlns:rdf="http://www.w3.org/1999/02/22-rdf-syntax-ns#"
   xmlns:svg="http://www.w3.org/2000/svg"
   xmlns="http://www.w3.org/2000/svg"
   xmlns:sodipodi="http://sodipodi.sourceforge.net/DTD/sodipodi-0.dtd"
   xmlns:inkscape="http://www.inkscape.org/namespaces/inkscape"
   viewBox="0.0 0.0 348.0 348.0"
   fill="none"
   version="1.1"
   id="svg4534"
   sodipodi:docname="ResetModule.svg"
   inkscape:version="0.92.3 (2405546, 2018-03-11)">
  <metadata
     id="metadata4540">
    <rdf:RDF>
      <cc:Work
         rdf:about="">
        <dc:format>image/svg+xml</dc:format>
        <dc:type
           rdf:resource="http://purl.org/dc/dcmitype/StillImage" />
        <dc:title />
      </cc:Work>
    </rdf:RDF>
  </metadata>
  <defs
     id="defs4538" />
  <sodipodi:namedview
     pagecolor="#ffffff"
     bordercolor="#666666"
     borderopacity="1"
     objecttolerance="10"
     gridtolerance="10"
     guidetolerance="10"
     inkscape:pageopacity="0"
     inkscape:pageshadow="2"
     inkscape:window-width="1920"
     inkscape:window-height="1001"
     id="namedview4536"
     showgrid="false"
     inkscape:zoom="1.4142136"
     inkscape:cx="71.7031"
     inkscape:cy="206.55178"
     inkscape:window-x="-9"
     inkscape:window-y="-9"
     inkscape:window-maximized="1"
     inkscape:current-layer="svg4534" />
  <path
     inkscape:connector-curvature="0"
     style="stroke:#000000;stroke-width:4.41398001"
     d="m 258.91982,48.380753 c 0,-18.650802 15.23788,-33.767831 34.03692,-33.767831 9.02546,0 17.68341,3.556057 24.06422,9.888777 6.38302,6.332687 9.97047,14.923282 9.97047,23.879054 0,18.6508 -15.23784,33.76779 -34.03687,33.76779 -18.79686,0 -34.03474,-15.119228 -34.03474,-33.76779 z"
     id="path4532-9-7-2" />
  <rect
     style="fill:none;fill-opacity:1;fill-rule:evenodd;stroke:#000000;stroke-width:3.55381942;stroke-opacity:1"
     id="rect5366"
     width="196.93613"
     height="244.43375"
     x="25.392414"
     y="75.153473" />
  <g
     aria-label="Reset all
modules"
     transform="scale(0.90136534,1.1094281)"
     style="font-style:normal;font-variant:normal;font-weight:900;font-stretch:normal;font-size:58.85775375px;line-height:1.25;font-family:'Ostrich Sans';-inkscape-font-specification:'Ostrich Sans, Heavy';font-variant-ligatures:normal;font-variant-caps:normal;font-variant-numeric:normal;font-feature-settings:normal;text-align:center;letter-spacing:0px;word-spacing:0px;writing-mode:lr-tb;text-anchor:middle;fill:#000000;fill-opacity:1;stroke:none;stroke-width:1.47144389"
     id="text5370">
    <path
       d="m 67.197866,146.77788 c 0,-3.0606 -0.824009,-5.47377 -2.530884,-7.29836 0.176573,-0.17657 0.294289,-0.29429 0.470862,-0.47086 1.824591,-1.82459 2.472026,-4.76748 2.472026,-8.41666 0,-7.88694 -2.530884,-11.53612 -9.770387,-11.53612 h -7.416077 c -1.177155,0 -2.118879,0.94173 -2.118879,2.11888 v 35.43237 c 0,1.17715 0.941724,2.11888 2.118879,2.11888 h 1.648017 c 1.118297,0 2.060021,-0.94173 2.060021,-2.11888 v -14.42015 h 2.648599 c 2.88403,0 4.532047,1.64802 4.532047,4.5909 v 9.82925 c 0,1.17715 0.941724,2.11888 2.118879,2.11888 h 1.648017 c 1.177156,0 2.11888,-0.94173 2.11888,-2.11888 z M 54.131444,124.94166 h 3.708039 c 3.060603,0 3.943469,1.64802 3.943469,5.65034 0,4.00233 -1.706875,5.65035 -5.002909,5.65035 h -2.648599 z"
       style="stroke-width:1.47144389"
       id="path2850" />
    <path
       d="m 73.756826,119.11474 c -1.177155,0 -2.118879,0.94172 -2.118879,2.11888 v 35.43237 c 0,1.17715 0.941724,2.11888 2.118879,2.11888 h 12.713275 c 1.177155,0 2.118879,-0.94173 2.118879,-2.11888 v -1.58916 c 0,-1.17716 -0.941724,-2.11888 -2.118879,-2.11888 h -9.005237 v -11.12412 h 7.416077 c 1.177155,0 2.11888,-0.94172 2.11888,-2.11888 v -1.58916 c 0,-1.17715 -0.941725,-2.11887 -2.11888,-2.11887 h -7.416077 v -11.06526 h 9.005237 c 1.177155,0 2.118879,-0.94173 2.118879,-2.11888 v -1.58916 c 0,-1.17716 -0.941724,-2.11888 -2.118879,-2.11888 z"
       style="stroke-width:1.47144389"
       id="path2852" />
    <path
       d="m 90.664637,147.24875 c 0,7.71036 3.237177,11.47726 9.711533,11.47726 6.23892,0 9.71153,-3.53147 9.71153,-10.12354 0,-5.7092 -3.94347,-8.71094 -7.82809,-11.71269 h 0.0589 c -2.884028,-2.23659 -5.768058,-4.53205 -5.768058,-7.53379 0,-3.0606 1.353729,-4.41433 3.825758,-4.41433 2.58974,0 3.82575,1.76573 3.82575,5.65034 v 0.82401 c 0,1.17716 0.94172,2.11888 2.11888,2.11888 h 1.64802 c 1.17715,0 2.11888,-0.94172 2.11888,-2.11888 V 130.592 c 0,-7.47493 -3.3549,-11.53612 -9.71153,-11.53612 -6.238925,0 -9.711533,3.82576 -9.711533,10.47668 0,5.82692 4.061185,9.00524 7.945797,12.06584 v -0.0589 c 2.884026,2.2366 5.591486,4.41434 5.591486,7.18065 0,3.11946 -1.35373,4.1789 -3.82575,4.1789 -0.824012,0 -1.824594,-0.11771 -2.472029,-0.76515 -0.824009,-0.70629 -1.353729,-2.06002 -1.353729,-4.88519 v -0.76515 c 0,-1.17716 -1.000581,-2.11888 -2.118879,-2.11888 h -1.648017 c -1.177155,0 -2.118879,0.94172 -2.118879,2.11888 z"
       style="stroke-width:1.47144389"
       id="path2854" />
    <path
       d="m 116.17579,119.11474 c -1.17715,0 -2.11888,0.94172 -2.11888,2.11888 v 35.43237 c 0,1.17715 0.94173,2.11888 2.11888,2.11888 h 12.71328 c 1.17715,0 2.11888,-0.94173 2.11888,-2.11888 v -1.58916 c 0,-1.17716 -0.94173,-2.11888 -2.11888,-2.11888 h -9.00524 v -11.12412 h 7.41608 c 1.17715,0 2.11888,-0.94172 2.11888,-2.11888 v -1.58916 c 0,-1.17715 -0.94173,-2.11887 -2.11888,-2.11887 h -7.41608 v -11.06526 h 9.00524 c 1.17715,0 2.11888,-0.94173 2.11888,-2.11888 v -1.58916 c 0,-1.17716 -0.94173,-2.11888 -2.11888,-2.11888 z"
       style="stroke-width:1.47144389"
       id="path2856" />
    <path
       d="m 134.68748,122.82278 c 0,1.17715 0.94172,2.11888 2.11888,2.11888 h 4.76747 v 31.66547 c 0,1.17715 0.94173,2.11888 2.11888,2.11888 h 1.58916 c 1.17716,0 2.11888,-0.94173 2.11888,-2.11888 v -31.66547 h 4.82634 c 1.17715,0 2.11888,-0.94173 2.11888,-2.11888 v -1.64802 c 0,-1.17715 -0.94173,-2.11888 -2.11888,-2.11888 h -15.42073 c -1.17716,0 -2.11888,0.94173 -2.11888,2.11888 z"
       style="stroke-width:1.47144389"
       id="path2858" />
    <path
       d="m 186.91362,157.13685 c 0.23543,0.88287 1.17715,1.64802 2.06002,1.64802 h 1.70687 c 1.41259,0 2.35431,-1.23602 2.06002,-2.58974 l -8.12237,-35.43237 c -0.17657,-0.88287 -1.17715,-1.64802 -2.06002,-1.64802 h -1.29487 c -0.88286,0 -1.82459,0.76515 -2.06002,1.64802 l -5.35606,23.01338 -2.82517,12.47784 c -0.29429,1.35373 0.64744,2.53089 2.06002,2.53089 h 1.70688 c 0.88286,0 1.82459,-0.76515 2.06002,-1.64802 l 2.06002,-9.18181 h 6.00349 z m -5.00291,-24.42597 c 1.11829,5.00291 1.00058,6.59207 1.64801,9.41724 h -3.29603 z"
       style="stroke-width:1.47144389"
       id="path2860" />
    <path
       d="m 213.24695,155.07683 c 0,-1.17716 -0.94173,-2.11888 -2.11888,-2.11888 h -8.76981 v -31.72433 c 0,-1.17716 -0.94172,-2.11888 -2.06002,-2.11888 h -1.70687 c -1.17716,0 -2.11888,0.94172 -2.11888,2.11888 v 35.43237 c 0,1.17715 0.94172,2.11888 2.11888,2.11888 h 12.5367 c 1.17715,0 2.11888,-0.94173 2.11888,-2.11888 z"
       style="stroke-width:1.47144389"
       id="path2862" />
    <path
       d="m 233.01947,155.07683 c 0,-1.17716 -0.94172,-2.11888 -2.11888,-2.11888 h -8.7698 v -31.72433 c 0,-1.17716 -0.94173,-2.11888 -2.06002,-2.11888 h -1.70688 c -1.17715,0 -2.11888,0.94172 -2.11888,2.11888 v 35.43237 c 0,1.17715 0.94173,2.11888 2.11888,2.11888 h 12.5367 c 1.17716,0 2.11888,-0.94173 2.11888,-2.11888 z"
       style="stroke-width:1.47144389"
       id="path2864" />
    <path
       d="m 73.565539,232.35706 c 0.882866,0 1.82459,-0.76515 2.060021,-1.70688 l 1.942306,-13.06642 v 12.65442 c 0,1.17715 0.941724,2.11888 2.118879,2.11888 h 1.648017 c 1.177155,0 2.118879,-0.94173 2.118879,-2.11888 v -35.43237 c 0,-1.17715 -0.941724,-2.11888 -2.118879,-2.11888 H 79.56903 c -0.882867,0 -1.883448,0.76515 -2.060022,1.64802 l -4.590904,23.71967 -4.649763,-23.71967 c -0.176573,-0.88287 -1.118297,-1.64802 -2.001164,-1.64802 h -1.765732 c -1.177155,0 -2.118879,0.94173 -2.118879,2.11888 v 35.43237 c 0,1.17715 0.941724,2.11888 2.118879,2.11888 h 1.648017 c 1.118297,0 2.118879,-0.94173 2.118879,-2.11888 v -12.77213 l 2.001164,13.24299 c 0.176573,0.88287 1.118297,1.64802 2.001163,1.64802 z"
       style="stroke-width:1.47144389"
       id="path2866" />
    <path
       d="m 88.595418,220.82094 c 0,4.64976 1.29487,7.35722 3.119461,9.18181 1.942306,1.88345 4.414331,2.35431 6.53321,2.35431 2.177741,0 4.649761,-0.47086 6.592071,-2.35431 1.82459,-1.82459 3.0606,-4.53205 3.0606,-9.18181 v -16.65675 c 0,-7.47493 -3.17832,-11.47726 -9.652671,-11.47726 -6.415495,0 -9.652671,4.06119 -9.652671,11.47726 z m 5.885775,-16.65675 c 0,-3.82575 1.177155,-5.65034 3.766896,-5.65034 2.530881,0 3.766901,1.70687 3.766901,5.65034 v 16.65675 c 0,4.00233 -1.29487,5.7092 -3.766901,5.7092 -2.530883,0 -3.766896,-1.82459 -3.766896,-5.7092 z"
       style="stroke-width:1.47144389"
       id="path2868" />
    <path
       d="m 120.74647,232.35706 c 7.06293,0 10.35896,-4.00233 10.35896,-11.65384 v -16.36245 c 0,-7.65151 -3.29603,-11.65384 -10.35896,-11.65384 h -6.00349 c -1.17716,0 -2.11888,0.94173 -2.11888,2.11888 v 35.43237 c 0,1.17715 0.94172,2.11888 2.11888,2.11888 z m 0,-33.84321 c 3.11946,0 4.41433,1.88345 4.41433,5.82692 v 16.36245 c 0,3.94347 -1.29487,5.82692 -4.41433,5.82692 h -2.29546 v -28.01629 z"
       style="stroke-width:1.47144389"
       id="path2870" />
    <path
       d="m 135.54551,221.52723 c 0,6.23892 2.58975,10.77097 9.65268,10.77097 6.8275,0 9.65267,-4.1789 9.65267,-10.77097 v -26.78028 c 0,-1.17715 -0.94173,-2.11888 -2.11888,-2.11888 h -1.64802 c -1.1183,0 -2.06002,0.94173 -2.06002,2.11888 v 26.78028 c 0,2.82517 -0.82401,4.94405 -3.82575,4.94405 -2.88403,0 -3.82576,-1.82459 -3.82576,-4.94405 v -26.78028 c 0,-1.17715 -0.94172,-2.11888 -2.11888,-2.11888 h -1.64801 c -1.1183,0 -2.06003,0.94173 -2.06003,2.11888 z"
       style="stroke-width:1.47144389"
       id="path2872" />
    <path
       d="m 176.34589,228.64902 c 0,-1.17716 -0.94172,-2.11888 -2.11888,-2.11888 h -8.7698 v -31.72433 c 0,-1.17715 -0.94173,-2.11888 -2.06002,-2.11888 h -1.70688 c -1.17715,0 -2.11888,0.94173 -2.11888,2.11888 v 35.43237 c 0,1.17715 0.94173,2.11888 2.11888,2.11888 h 12.5367 c 1.17716,0 2.11888,-0.94173 2.11888,-2.11888 z"
       style="stroke-width:1.47144389"
       id="path2874" />
    <path
       d="m 181.81598,192.68693 c -1.17716,0 -2.11888,0.94173 -2.11888,2.11888 v 35.43237 c 0,1.17715 0.94172,2.11888 2.11888,2.11888 h 12.71327 c 1.17716,0 2.11888,-0.94173 2.11888,-2.11888 v -1.58916 c 0,-1.17716 -0.94172,-2.11888 -2.11888,-2.11888 h -9.00523 v -11.12411 h 7.41607 c 1.17716,0 2.11888,-0.94173 2.11888,-2.11888 v -1.58916 c 0,-1.17716 -0.94172,-2.11888 -2.11888,-2.11888 h -7.41607 v -11.06526 h 9.00523 c 1.17716,0 2.11888,-0.94172 2.11888,-2.11888 v -1.58916 c 0,-1.17715 -0.94172,-2.11888 -2.11888,-2.11888 z"
       style="stroke-width:1.47144389"
       id="path2876" />
    <path
       d="m 198.72379,220.82094 c 0,7.71036 3.23718,11.47726 9.71153,11.47726 6.23892,0 9.71153,-3.53146 9.71153,-10.12353 0,-5.7092 -3.94347,-8.71095 -7.82808,-11.7127 h 0.0589 c -2.88403,-2.23659 -5.76806,-4.53204 -5.76806,-7.53379 0,-3.0606 1.35373,-4.41433 3.82575,-4.41433 2.58974,0 3.82576,1.76573 3.82576,5.65034 v 0.82401 c 0,1.17716 0.94172,2.11888 2.11887,2.11888 h 1.64802 c 1.17716,0 2.11888,-0.94172 2.11888,-2.11888 v -0.82401 c 0,-7.47493 -3.35489,-11.53612 -9.71153,-11.53612 -6.23892,0 -9.71153,3.82576 -9.71153,10.47668 0,5.82692 4.06119,9.00524 7.9458,12.06584 v -0.0589 c 2.88403,2.23659 5.59149,4.41433 5.59149,7.18064 0,3.11946 -1.35373,4.1789 -3.82576,4.1789 -0.82401,0 -1.82459,-0.11771 -2.47202,-0.76515 -0.82401,-0.70629 -1.35373,-2.06002 -1.35373,-4.88519 v -0.76515 c 0,-1.17716 -1.00058,-2.11888 -2.11888,-2.11888 h -1.64802 c -1.17715,0 -2.11888,0.94172 -2.11888,2.11888 z"
       style="stroke-width:1.47144389"
       id="path2878" />
  </g>
  <rect
     style="fill:#000000;fill-opacity:1;fill-rule:evenodd;stroke:none;stroke-width:3.47692823"
     id="rect5378"
     width="104.69807"
     height="68.110298"
     x="232.52356"
     y="188.60425" />
  <rect
     style="fill:none;fill-rule:evenodd;stroke:#000000;stroke-width:1.73846412;stroke-miterlimit:4;stroke-dasharray:none;stroke-opacity:1"
     id="rect5380"
     width="80.470413"
     height="42.787243"
     x="243.77213"
     y="131.40906" />
  <g
     aria-label="Reset
Cooldown"
     transform="scale(1.0213941,0.97905405)"
     style="font-style:normal;font-variant:normal;font-weight:900;font-stretch:normal;font-size:18.06946945px;line-height:1.25;font-family:'Ostrich Sans';-inkscape-font-specification:'Ostrich Sans, Heavy';font-variant-ligatures:normal;font-variant-caps:normal;font-variant-numeric:normal;font-feature-settings:normal;text-align:center;letter-spacing:0px;word-spacing:0px;writing-mode:lr-tb;text-anchor:middle;fill:#000000;fill-opacity:1;stroke:none;stroke-width:0.45173681"
     id="text5384">
    <path
       d="m 267.95271,147.83978 c 0,-0.93961 -0.25297,-1.68046 -0.77698,-2.24061 0.0542,-0.0542 0.0903,-0.0904 0.14455,-0.14456 0.56016,-0.56015 0.75892,-1.46362 0.75892,-2.58393 0,-2.42131 -0.77699,-3.54162 -2.99953,-3.54162 h -2.27675 c -0.36139,0 -0.65051,0.28911 -0.65051,0.6505 v 10.87782 c 0,0.36139 0.28912,0.65051 0.65051,0.65051 h 0.50594 c 0.34332,0 0.63243,-0.28912 0.63243,-0.65051 v -4.42702 h 0.81313 c 0.8854,0 1.39135,0.50595 1.39135,1.40942 v 3.0176 c 0,0.36139 0.28911,0.65051 0.6505,0.65051 h 0.50594 c 0.36139,0 0.6505,-0.28912 0.6505,-0.65051 z m -4.01142,-6.70377 h 1.13838 c 0.93961,0 1.21065,0.50595 1.21065,1.73467 0,1.22872 -0.52401,1.73467 -1.5359,1.73467 h -0.81313 z"
       style="stroke-width:0.45173681"
       id="path2823" />
    <path
       d="m 269.96633,139.34713 c -0.36139,0 -0.6505,0.28911 -0.6505,0.6505 v 10.87782 c 0,0.36139 0.28911,0.65051 0.6505,0.65051 h 3.90301 c 0.36139,0 0.6505,-0.28912 0.6505,-0.65051 v -0.48787 c 0,-0.36139 -0.28911,-0.6505 -0.6505,-0.6505 h -2.76463 v -3.41513 h 2.27675 c 0.36139,0 0.6505,-0.28911 0.6505,-0.6505 v -0.48788 c 0,-0.36139 -0.28911,-0.6505 -0.6505,-0.6505 h -2.27675 v -3.39706 h 2.76463 c 0.36139,0 0.6505,-0.28911 0.6505,-0.6505 v -0.48788 c 0,-0.36139 -0.28911,-0.6505 -0.6505,-0.6505 z"
       style="stroke-width:0.45173681"
       id="path2825" />
    <path
       d="m 275.15707,147.98434 c 0,2.3671 0.99382,3.52355 2.98146,3.52355 1.91536,0 2.98146,-1.08417 2.98146,-3.10795 0,-1.75274 -1.21065,-2.67428 -2.40324,-3.59583 h 0.0181 c -0.8854,-0.68664 -1.7708,-1.39135 -1.7708,-2.31289 0,-0.93961 0.41559,-1.35521 1.17451,-1.35521 0.79506,0 1.17452,0.54208 1.17452,1.73467 v 0.25297 c 0,0.36139 0.28911,0.6505 0.6505,0.6505 h 0.50594 c 0.36139,0 0.6505,-0.28911 0.6505,-0.6505 v -0.25297 c 0,-2.29482 -1.02996,-3.54162 -2.98146,-3.54162 -1.91536,0 -2.98146,1.17452 -2.98146,3.21637 0,1.78888 1.24679,2.76463 2.43938,3.70424 v -0.0181 c 0.8854,0.68664 1.7166,1.35521 1.7166,2.20448 0,0.95768 -0.4156,1.28293 -1.17452,1.28293 -0.25297,0 -0.56015,-0.0361 -0.75892,-0.2349 -0.25297,-0.21684 -0.41559,-0.63244 -0.41559,-1.49977 v -0.2349 c 0,-0.36139 -0.30719,-0.6505 -0.65051,-0.6505 h -0.50594 c -0.36139,0 -0.6505,0.28911 -0.6505,0.6505 z"
       style="stroke-width:0.45173681"
       id="path2827" />
    <path
       d="m 282.98906,139.34713 c -0.36139,0 -0.65051,0.28911 -0.65051,0.6505 v 10.87782 c 0,0.36139 0.28912,0.65051 0.65051,0.65051 h 3.903 c 0.36139,0 0.6505,-0.28912 0.6505,-0.65051 v -0.48787 c 0,-0.36139 -0.28911,-0.6505 -0.6505,-0.6505 h -2.76463 v -3.41513 h 2.27675 c 0.36139,0 0.65051,-0.28911 0.65051,-0.6505 v -0.48788 c 0,-0.36139 -0.28912,-0.6505 -0.65051,-0.6505 h -2.27675 v -3.39706 h 2.76463 c 0.36139,0 0.6505,-0.28911 0.6505,-0.6505 v -0.48788 c 0,-0.36139 -0.28911,-0.6505 -0.6505,-0.6505 z"
       style="stroke-width:0.45173681"
       id="path2829" />
    <path
       d="m 288.67218,140.48551 c 0,0.36139 0.28912,0.6505 0.65051,0.6505 h 1.46362 v 9.72137 c 0,0.36139 0.28911,0.65051 0.6505,0.65051 h 0.48788 c 0.36139,0 0.6505,-0.28912 0.6505,-0.65051 v -9.72137 h 1.4817 c 0.36139,0 0.6505,-0.28911 0.6505,-0.6505 v -0.50595 c 0,-0.36139 -0.28911,-0.6505 -0.6505,-0.6505 h -4.7342 c -0.36139,0 -0.65051,0.28911 -0.65051,0.6505 z"
       style="stroke-width:0.45173681"
       id="path2831" />
    <path
       d="m 249.4284,170.57118 c 0,1.42748 0.39753,2.25868 0.95768,2.81883 0.5963,0.57823 1.33715,0.72278 2.02378,0.72278 0.65051,0 1.40942,-0.14455 2.00572,-0.72278 0.56015,-0.56015 0.93961,-1.39135 0.93961,-2.81883 v -0.25298 c 0,-0.36139 -0.28911,-0.6505 -0.63243,-0.6505 h -0.52402 c -0.36139,0 -0.6505,0.28911 -0.6505,0.6505 v 0.25298 c 0,0.6505 -0.0904,1.13837 -0.30718,1.42748 -0.16262,0.1807 -0.48788,0.32525 -0.8312,0.32525 -0.77698,0 -1.15644,-0.54208 -1.15644,-1.75273 v -5.11366 c 0,-1.21066 0.39753,-1.73467 1.15644,-1.73467 0.74085,0 1.13838,0.52401 1.13838,1.73467 v 0.25297 c 0,0.36139 0.28911,0.6505 0.6505,0.6505 h 0.52402 c 0.34332,0 0.63243,-0.28911 0.63243,-0.6505 v -0.25297 c 0,-1.37328 -0.37946,-2.27676 -0.95768,-2.81884 -0.5963,-0.54209 -1.31907,-0.70471 -1.98765,-0.70471 -0.68663,0 -1.40941,0.16262 -2.00571,0.70471 -0.57822,0.54208 -0.97575,1.44556 -0.97575,2.81884 z"
       style="stroke-width:0.45173681"
       id="path2833" />
    <path
       d="m 256.59351,170.57118 c 0,1.42748 0.39753,2.25868 0.95768,2.81883 0.5963,0.57823 1.35521,0.72278 2.00571,0.72278 0.66857,0 1.42749,-0.14455 2.02379,-0.72278 0.56015,-0.56015 0.93961,-1.39135 0.93961,-2.81883 v -5.11366 c 0,-2.29483 -0.97575,-3.52355 -2.9634,-3.52355 -1.96957,0 -2.96339,1.24679 -2.96339,3.52355 z m 1.80695,-5.11366 c 0,-1.17452 0.36139,-1.73467 1.15644,-1.73467 0.77699,0 1.15645,0.52401 1.15645,1.73467 v 5.11366 c 0,1.22872 -0.39753,1.75273 -1.15645,1.75273 -0.77698,0 -1.15644,-0.56015 -1.15644,-1.75273 z"
       style="stroke-width:0.45173681"
       id="path2835" />
    <path
       d="m 263.93423,170.57118 c 0,1.42748 0.39753,2.25868 0.95769,2.81883 0.59629,0.57823 1.35521,0.72278 2.00571,0.72278 0.66857,0 1.42748,-0.14455 2.02378,-0.72278 0.56015,-0.56015 0.93961,-1.39135 0.93961,-2.81883 v -5.11366 c 0,-2.29483 -0.97575,-3.52355 -2.96339,-3.52355 -1.96958,0 -2.9634,1.24679 -2.9634,3.52355 z m 1.80695,-5.11366 c 0,-1.17452 0.36139,-1.73467 1.15645,-1.73467 0.77698,0 1.15644,0.52401 1.15644,1.73467 v 5.11366 c 0,1.22872 -0.39753,1.75273 -1.15644,1.75273 -0.77699,0 -1.15645,-0.56015 -1.15645,-1.75273 z"
       style="stroke-width:0.45173681"
       id="path2837" />
    <path
       d="m 276.29827,172.97442 c 0,-0.36139 -0.28911,-0.65051 -0.6505,-0.65051 h -2.69235 v -9.73944 c 0,-0.36139 -0.28912,-0.6505 -0.63244,-0.6505 h -0.52401 c -0.36139,0 -0.6505,0.28911 -0.6505,0.6505 v 10.87782 c 0,0.36139 0.28911,0.6505 0.6505,0.6505 h 3.8488 c 0.36139,0 0.6505,-0.28911 0.6505,-0.6505 z"
       style="stroke-width:0.45173681"
       id="path2839" />
    <path
       d="m 279.87489,174.11279 c 2.16834,0 3.18023,-1.22872 3.18023,-3.57775 v -5.02332 c 0,-2.34903 -1.01189,-3.57775 -3.18023,-3.57775 h -1.84308 c -0.36139,0 -0.6505,0.28911 -0.6505,0.6505 v 10.87782 c 0,0.36139 0.28911,0.6505 0.6505,0.6505 z m 0,-10.38994 c 0.95769,0 1.35521,0.57822 1.35521,1.78887 v 5.02332 c 0,1.21065 -0.39752,1.78887 -1.35521,1.78887 h -0.70471 v -8.60106 z"
       style="stroke-width:0.45173681"
       id="path2841" />
    <path
       d="m 284.54472,170.57118 c 0,1.42748 0.39753,2.25868 0.95768,2.81883 0.5963,0.57823 1.35521,0.72278 2.00572,0.72278 0.66857,0 1.42748,-0.14455 2.02378,-0.72278 0.56015,-0.56015 0.93961,-1.39135 0.93961,-2.81883 v -5.11366 c 0,-2.29483 -0.97575,-3.52355 -2.96339,-3.52355 -1.96958,0 -2.9634,1.24679 -2.9634,3.52355 z m 1.80695,-5.11366 c 0,-1.17452 0.36139,-1.73467 1.15645,-1.73467 0.77698,0 1.15644,0.52401 1.15644,1.73467 v 5.11366 c 0,1.22872 -0.39753,1.75273 -1.15644,1.75273 -0.77699,0 -1.15645,-0.56015 -1.15645,-1.75273 z"
       style="stroke-width:0.45173681"
       id="path2843" />
    <path
       d="m 296.38276,162.45798 c -0.0542,-0.28911 -0.34332,-0.52401 -0.63243,-0.52401 h -0.39753 c -0.28911,0 -0.57822,0.2349 -0.63243,0.52401 l -0.93961,5.49312 -0.83119,-5.47505 c -0.0542,-0.30718 -0.34332,-0.54208 -0.65051,-0.54208 h -0.52401 c -0.4156,0 -0.68664,0.34332 -0.63243,0.74085 l 1.77081,10.89589 c 0.0542,0.28911 0.32525,0.54208 0.63243,0.54208 h 0.39753 c 0.28911,0 0.57822,-0.2349 0.63243,-0.52401 l 0.97575,-5.76416 0.95768,5.76416 c 0.0542,0.28911 0.34332,0.52401 0.63243,0.52401 h 0.4156 c 0.30718,0 0.59629,-0.25297 0.6505,-0.54208 l 1.73467,-10.89589 c 0.0542,-0.39753 -0.25297,-0.74085 -0.6505,-0.74085 h -0.52402 c -0.30718,0 -0.61436,0.2349 -0.6505,0.54208 l -0.81312,5.43891 z"
       style="stroke-width:0.45173681"
       id="path2845" />
    <path
       d="m 306.5683,174.11279 c 0.36139,0 0.6505,-0.28911 0.6505,-0.6505 v -10.87782 c 0,-0.36139 -0.28911,-0.6505 -0.6505,-0.6505 h -0.50594 c -0.36139,0 -0.65051,0.28911 -0.65051,0.6505 v 5.96293 l -2.51165,-6.2159 c -0.0723,-0.19877 -0.36139,-0.39753 -0.59629,-0.39753 h -0.43367 c -0.34332,0 -0.6505,0.28911 -0.6505,0.6505 v 10.87782 c 0,0.36139 0.30718,0.6505 0.6505,0.6505 h 0.52401 c 0.34332,0 0.6505,-0.28911 0.6505,-0.6505 v -5.96292 l 2.51166,6.21589 c 0.0723,0.19877 0.37946,0.39753 0.59629,0.39753 z"
       style="stroke-width:0.45173681"
       id="path2847" />
  </g>
  <g
     aria-label="0"
     transform="scale(0.96388261,1.0374707)"
     style="font-style:normal;font-variant:normal;font-weight:normal;font-stretch:normal;font-size:68.68125916px;line-height:1.25;font-family:'DJB Get Digital';-inkscape-font-specification:'DJB Get Digital, Normal';font-variant-ligatures:normal;font-variant-caps:normal;font-variant-numeric:normal;font-feature-settings:normal;text-align:start;letter-spacing:0px;word-spacing:0px;writing-mode:lr-tb;text-anchor:start;fill:#ffffff;fill-opacity:1;stroke:none;stroke-width:1.71703148"
     id="text5390">
    <path
       d="m 288.97404,230.46452 h 13.34724 l 3.48772,3.38711 -3.45418,3.32004 h -13.34724 l -3.45419,-3.35357 z m -0.53657,-14.08502 v 13.34723 l -3.38711,3.48772 -3.32004,-3.45418 v -13.34724 l 3.35357,-3.45418 z m 21.06047,-21.76472 v 13.34724 l -3.38712,3.48772 -3.32004,-3.45419 v -13.34723 l 3.35358,-3.45419 z m -21.22815,0.0335 v 13.34723 l -3.38711,3.48772 -3.32004,-3.45418 v -13.34724 l 3.35357,-3.45418 z m 0.67072,-7.41141 h 13.34723 l 3.48772,3.38711 -3.45418,3.32004 h -13.34724 l -3.45418,-3.35357 z m 20.59096,29.14259 v 13.34723 l -3.38711,3.48772 -3.32004,-3.45418 v -13.34724 l 3.35357,-3.45418 z"
       style="stroke-width:1.71703148"
       id="path2820" />
  </g>
  <path
     inkscape:connector-curvature="0"
     style="stroke:#000000;stroke-width:2"
     d="M 5.0435023,5.6650007 H 341.9565 V 343.335 H 5.0445023 Z"
     id="path4530" />
</svg>
