<svg xmlns="http://www.w3.org/2000/svg" xml:space="preserve" viewBox="0 0 1200 1440"><path d="M699.8 969.9c-3.3.1-6.3 1.8-8.1 4.6l-13.4 20a40.05 40.05 0 0 0-36.6 0l-13.4-20c-1.8-2.9-5-4.6-8.4-4.6-8 0-12.7 9-8.2 15.6l15 22.5a39.9 39.9 0 0 0 11.3 55.4 39.9 39.9 0 0 0 55.4-11.3c8.9-13.4 8.9-30.8 0-44.2l15-22.5a9.99 9.99 0 0 0-2.7-13.9 10.1 10.1 0 0 0-5.9-1.6zM780 1090c-27.6 0-50 22.4-50 50h50v20c0 5.5-4.5 10-10 10s-10-4.5-10-10-4.5-10-10-10-10 4.5-10 10c0 16.6 13.4 30 30 30s30-13.4 30-30v-20h30c0-27.6-22.4-50-50-50zM20 1220v80h80v-80H20zm40 10h30v30H60v-30zm140-20c-16.6 0-30 13.5-30 30 0 4.5 1 8.9 3 13l-40 40c-4.4 3.3-5.3 9.6-2 14a10.03 10.03 0 0 0 16 0l40-40c14.9 7.2 32.9 1 40.1-13.9 7.2-14.9 1-32.9-13.9-40.1-4.1-2-8.6-3-13.2-3zm20 220v-10h-30l40-40-50-50-50 50 40 40h-30v10h80zm80-220c-11 0-20 9-20 20s9 20 20 20 20-9 20-20-9-20-20-20zm0 40c-16.6 0-30 13.4-30 30s13.4 30 30 30 30-13.4 30-30-13.4-30-30-30zm0 10c11 0 20 9 20 20s-9 20-20 20-20-9-20-20 9-20 20-20zM60 1090c-27.6 0-50 22.4-50 50s22.4 50 50 50 50-22.4 50-50-22.4-50-50-50zm0 10c22 0 40 18 40 40H20c0-22 18-40 40-40zm190 230h100l-40 40v60h-20v-60l-40-40zm-70-240-50 100h34.3l15.7-100 16.8 100H230l-50-100zM60 1330l-50 50h100l-50-50zm0 50-50 50h100l-50-50zm320-160v30h50v50h30v-80h-80zm40-130-6.4 51.3-19.5-47.9 7.1 51.2-31.2-41.2c15 31.6 25 51.6 25 86.6h50c0-35 10-55 25-86.6l-31.2 41.3 7-51.3-19.4 48-6.4-51.4zm-119.1 0a29.97 29.97 0 0 0-30.9 29.1c-.5 16.6 12.5 30.4 29.1 30.9s30.4-12.5 30.9-29.1-12.5-30.4-29.1-30.9zm-40.9 70v30h80v-30h-80zm-220-90h40c-10-5-15-10-15-30 0 0 0 10 15 10s25-10 25-25c0-20-40-35-45-55-5 20-45 35-45 55 0 15 10 25 25 25s15-10 15-10c0 20-5 25-15 30zm140-100a25 25 0 0 0-25 25c0 5.7 1.9 11.1 5.5 15.6-13.5-3-26.8 5.4-29.9 18.9-3 13.5 5.4 26.8 18.9 29.9 9.2 2.1 18.8-1.2 24.8-8.5-1.7 11.2-6.4 15.2-14.3 19.1h40c-7.9-4-12.6-7.9-14.3-19.1a24.95 24.95 0 0 0 35.2 3.5 24.95 24.95 0 0 0 3.5-35.2c-6-7.3-15.7-10.7-24.9-8.6a25 25 0 0 0-3.8-35.2c-4.4-3.5-10-5.4-15.7-5.4zm120 100c10-20 45-50 45-80 0-10-10-20-20-20-5 0-20 0-25 20-5-20-20-20-25-20-10 0-20 10-20 20 0 30 35 60 45 80zm158.3-17.9c-17.7 21.2-49.3 24-70.4 6.2s-24-49.3-6.2-70.4a49.87 49.87 0 0 1 76.6 0L420 1020l38.3 32.1zM179.8 850.3c-6.6.1-11.9 5.6-11.8 12.2v41l-35.6 20.6c-5.7 3.3-7.7 10.7-4.4 16.4 3.3 5.7 10.7 7.7 16.4 4.4l35.6-20.6 35.6 20.6c5.7 3.3 13.1 1.3 16.4-4.4 3.3-5.7 1.3-13.1-4.4-16.4L192 903.5v-41c.1-6.6-5.2-12.1-11.8-12.2h-.4zM250 860v40l20-10v60h60v-60l20 10v-40l-30-10c0 11-9 20-20 20s-20-9-20-20l-30 10zm170 470c-22 0-40 18-40 40v45h20v-45c0-11 9-20 20-20s20 9 20 20v45h20v-45c0-22-18-40-40-40zm-40 90v10h20v-10h-20zm60 0v10h20v-10h-20zm-20-569.7 12.3 38h40L440 911.7l12.4 38-32.3-23.5-32.3 23.5 12.4-38-32.4-23.4h40l12.2-38zm120-.3-50 50h20v50h30v-35h20v35h10v-50h20l-25-25v-20h-10v10l-15-15zm-22.5 65h15v15h-15v-15zm37.7 54.8c-5 0-9.6 2.4-12.4 6.5l-50 70c-5.1 6.5-4 15.9 2.5 21.1 6.5 5.1 15.9 4 21.1-2.5l.8-1.1 50-70c4.9-6.7 3.5-16.1-3.2-21a14 14 0 0 0-8.8-3zm9.8 50.2a25 25 0 0 0 0 50 25 25 0 0 0 0-50zm-25 70c-11 .1-20 9.1-19.9 20.1 0 8.1 4.9 15.3 12.4 18.4v5.1l-23.7 4c-4.1.5-7 4.3-6.5 8.4.5 4.1 4.3 7 8.4 6.5.1 0 .3 0 .4-.1l21.3-3.5v3.8l-18.7 28.1a7.49 7.49 0 1 0 11.9 9.1c.2-.2.3-.4.5-.7l13.8-20.7 13.8 20.7c2.1 3.6 6.7 4.7 10.3 2.6a7.49 7.49 0 0 0 2.1-11l-18.7-28v-4l21.3 3.6c4.1.8 8-1.9 8.8-5.9.8-4.1-1.9-8-5.9-8.8-.1 0-.3-.1-.4-.1l-23.7-4v-5a20.11 20.11 0 0 0 11.3-26A20.12 20.12 0 0 0 540 1090zm30 120c-11 0-20 9-20 20s9 20 20 20 20-9 20-20-9-20-20-20zm-55 10a25 25 0 0 0 0 50 25 25 0 0 0 0-50zm-25 60v30h100v-30H490zm50 50c-27.6 0-50 22.3-50.1 49.9s22.3 50 49.9 50.1c9.8 0 19.5-2.9 27.7-8.3l5.4 5.4c3.9 3.9 10.3 3.9 14.2 0 3.9-3.9 3.9-10.3 0-14.2l-5.4-5.3c15.2-23 8.9-54-14.1-69.3-8.2-5.4-17.8-8.3-27.6-8.3zm0 20c16.6 0 30 13.5 29.9 30.1 0 4.4-1 8.8-2.9 12.8l-10-10a9.87 9.87 0 0 0-14.1.1 9.96 9.96 0 0 0 0 14.1l10 10c-15 7.1-32.9.7-40-14.2-7.1-15-.7-32.9 14.2-40 4.1-1.9 8.5-2.9 12.9-2.9zm80-10h80l-80 80v-80zm40-130-25 50h50l-25-50zm25 50-25 50h50l-25-50zm-25 50-25-50-25 50h50zm-2.5-220c-11.2.2-21.9 4.9-29.6 13a9.98 9.98 0 0 0-1 14.1c3.6 4.2 9.9 4.6 14.1 1 .4-.3.7-.7 1.1-1.1 5.9-5.9 10.1-7 15.4-7 3.3.2 6.4 1.4 8.9 3.5s3.6 4.5 3.6 6.5c0 4-.8 6.6-2.4 8.8-2.5 3-5.8 5.1-9.5 6.2-4.8 2-8 5.8-8.1 10v10c0 5.5 4.5 10 10 10s10-4.5 10-10v-3.3c5.4-2.5 10-6.3 13.7-11a34 34 0 0 0 6.3-20.7c0-9-4.7-16.6-10.7-21.8-6-5-13.6-8.2-21.8-8.2zm2.5 80c-5.5 0-10 4.5-10 10s4.5 10 10 10 10-4.5 10-10-4.5-10-10-10zm0-320-43.3 25v50l43.3 25 43.3-25v-50L660 850zm-31.2 32 31.2 18 31.2-18v36L660 936l-31.2-18v-36zM780 1330l-10 20 10 30 10-30-10-20zm0 50 31-6.3 12.3-18.7-22.3 1.3-21 23.7zm0 0 21 23.7 22.3 1.3-12.3-18.7-31-6.3zm0 0c-10 30-13.3 33.3-20 50h40l-20-50zm0 0-31 6.3-12.3 18.7 22.3-1.3 21-23.7zm0 0-21-23.7-22.3-1.3 12.3 18.7 31 6.3zm-40-520v66.3l69.3-26A80.08 80.08 0 0 0 740 860zm69.4 40.5L762 940h58a80.3 80.3 0 0 0-10.6-39.5zM850 1330v40h20v20h20v20h20v20h40v-20h-20v-20h-20v-20h-20v-20h-20v-20h-20zm10-30h80l-20-80h-40l-20 80zm5-210v100h20v-35h50v-65h-70zm20 20h30v25h-30v-25zm15-140a50.3 50.3 0 0 0-32.1 11.7L900 1020l32.1-38.3A50.1 50.1 0 0 0 900 970zm0 50 17.1 47a50.03 50.03 0 0 0 32.1-55.7L900 1020zm0 0-49.2-8.7a50.03 50.03 0 0 0 32.1 55.7l17.1-47zm-50-170v50c0 27.6 22.4 50 50 50s50-22.4 50-50v-50l-30 40-20-40-20 40-30-40zM180 730l30 30-10 40 20 30h-80l20-30-10-40 30-30zm170 0c-31 0-50 18-70.8 40H270l-20 20h10l30 30v10l20-20v-9.2c22-20.9 40-39.9 40-70.8zm-90 70c-10 10-10 20-10 30 10 0 20 0 30-10l-20-20zm160-70.6c-27.6 0-50 22.4-50 50h20v51.2h60v-51.2h20c0-27.6-22.4-50-50-50zm119.3 5.2c-9-9-23.5-9-32.5 0l-8.2 8.1c-9 9-9 23.6 0 32.5s23.6 9 32.5 0l32.5 32.6-8.1 8.1 16.2 16.3 16.3-16.3-48.8-48.8c9.1-9 9.1-23.5.1-32.5zM780 730l-30 40v60h20v-30c0-5.5 4.5-10 10-10s10 4.5 10 10v30h20v-60l-30-40zm-130 0v40c-5.5 0-10 4.5-10 10v50h40v-50c0-5.5-4.5-10-10-10v-40h-20zm250 0c-16.6 0-30 13.4-30 30s13.4 30 30 30 30-13.4 30-30-13.4-30-30-30zm-38 17.5c-17.9 21-15.5 52.5 5.5 70.5s52.5 15.5 70.5-5.5c16-18.7 16-46.3 0-65 6.9 21-4.5 43.6-25.5 50.5s-43.6-4.5-50.5-25.5a39.6 39.6 0 0 1 0-25zM140 610l-10 90h5c0-11 9-20 20-20s20 9 20 20h10c0-11 9-20 20-20s20 9 20 20h5l-10-90h-80zm10 10h30v45h-35l5-45zm5 70c-5.5 0-10 4.5-10 10s4.5 10 10 10 10-4.5 10-10-4.5-10-10-10zm50 0c-5.5 0-10 4.5-10 10s4.5 10 10 10 10-4.5 10-10-4.5-10-10-10zm945-200c-22 0-40 18-40 40v1.8a30.02 30.02 0 1 0 38.4 18.1c-3.1-8.5-9.8-15.2-18.4-18.2V530c0-11.2 8.8-20 20-20s20 8.8 20 20v60h20v-60c0-22-18-40-40-40zm-30 60c5.5 0 10 4.5 10 10s-4.5 10-10 10-10-4.5-10-10 4.5-10 10-10zm20 180c-16.6 0-30 13.4-30 30v10h-20v20h40v-30c0-5.5 4.5-10 10-10s10 4.5 10 10v30h40v-20h-20v-10c0-16.6-13.4-30-30-30zm-50 80v20h100v-20h-100zM310 610v10h23l-18.5 18.4c-17.5-13.5-42.6-10.4-56.1 7.1s-10.4 42.6 7.1 56.1 42.6 10.4 56.1-7.1a39.93 39.93 0 0 0 0-49l18.4-18.4V650h10v-40h-40zm-20 30c16.6 0 30 13.4 30 30s-13.4 30-30 30-30-13.4-30-30 13.4-30 30-30zM89.6 609.8c-5.2.2-10.1 2.3-13.7 6l-46.5 46.5 28.3 28.3 46.4-46.5c7.9-7.7 8-20.4.3-28.3-3.9-4-9.2-6.1-14.8-6zm-67.3 59.6-6.4 6.5c-8.6 6.9-10.1 19.5-3.2 28.1s19.5 10.1 28.1 3.2c1.2-.9 2.3-2 3.2-3.2l6.5-6.4-28.2-28.2zM970 250v100h20v-50h20v12.7a19.97 19.97 0 1 0 20 34.6 19.97 19.97 0 0 0 0-34.6V300h20v50h20V250h-20v30h-20v-30h-20v30h-20v-30h-20zm50 70c5.5 0 10 4.5 10 10s-4.5 10-10 10-10-4.5-10-10 4.5-10 10-10zM420 610a29.9 29.9 0 0 0-30.1 29.9 29.98 29.98 0 0 0 25.1 29.7V680h-20v10h20v20h10v-20h20v-10h-20v-10.5c16.3-3 27.1-18.6 24.1-34.9A30.05 30.05 0 0 0 420 610zm0 10c11 0 20 9 20 20s-9 20-20 20-20-9-20-20 9-20 20-20zm550-250v30a50 50 0 0 0 40 49v21h20v-21c23.3-4.7 40-25.2 40-49v-30h-20v30c0 12.7-8 24-20 28.3V370h-20v58.3c-12-4.2-20-15.6-20-28.3v-30h-20zM660 610c-27.6 0-50 22.4-50 50s22.4 50 50 50 50-22.4 50-50-22.4-50-50-50zm-18.4 57a11.29 11.29 0 1 1 0 22.6 11.29 11.29 0 1 1 0-22.6zm36.8 0a11.29 11.29 0 1 1 0 22.6c-6.3 0-11.3-5.1-11.3-11.3s5-11.3 11.3-11.3zM780 610c-27.6 0-50 22.4-50 50s22.4 50 50 50 50-22.4 50-50-22.4-50-50-50zm0 10c11 0 20 9 20 20s-9 20-20 20-20 9-20 20c0 10.3 7.8 18.9 18 19.9-22-1.5-38.7-20.6-37.2-42.6A40.1 40.1 0 0 1 780 620zm0 10c-5.5 0-10 4.5-10 10s4.5 10 10 10 10-4.5 10-10-4.5-10-10-10zm0 40c5.5 0 10 4.5 10 10s-4.5 10-10 10-10-4.5-10-10 4.5-10 10-10zm120-59c-13.3.1-23.9 10.9-23.9 24.1 0 6.2 2.5 12.2 6.9 16.7l-6.2 10.2a23.93 23.93 0 0 0-29.8 16.2 23.93 23.93 0 0 0 16.2 29.8c12.7 3.8 26.1-3.5 29.8-16.2.7-2.2 1-4.5 1-6.8 0-6.3-2.6-12.3-7-16.8l6.2-10.2c4.4 1.3 9.2 1.3 13.6 0l6 10.2a24 24 0 0 0 .2 33.9 24 24 0 0 0 33.9-.2 24 24 0 0 0-23.7-39.9l-6-10.2A24 24 0 0 0 900 611zm-360 4c-27.6 0-50 15.7-50 35s22.4 35 50 35c2.2 0 4.5-.2 6.7-.4a34.9 34.9 0 0 1-21.8 19c18.4 5.3 37.7-5.3 43-23.7.1-.4.2-.8.3-1.1 13.6-6.5 21.8-17.3 21.8-28.8 0-19.3-22.4-35-50-35zm480 715c-22 0-40 18-40 40 0 18.2 12.4 34 30 38.7v21.3h20v-21.3a40.22 40.22 0 0 0 30-38.7c0-22-18-40-40-40zm0 20c11.2 0 20 8.8 20 20s-8.8 20-20 20-20-8.8-20-20 8.8-20 20-20zm-20-140v30h-30v70h70v-30h30v-70h-70zm-10 50h30v30h-30v-30zm-16.5-290v100h10l83-46.3-10-17.4-45.7 26.4 26.4-45.6-17.3-10-26.4 45.6V970h-20zm76.5-120-41.6 39-28.4-19-10 5v50l10 5 28.4-19 41.6 39 20-10v-80l-20-10zm0 33.3v33.4l-25-16.7 25-16.7zm-70 1 16.7 15.7-16.7 15.6v-31.3zm0-264.3c-5.5 0-10 4.5-10 10v60c0 5.5 4.5 10 10 10h80c5.5 0 10-4.5 10-10v-50c0-5.5-4.5-10-10-10h-40c0-5.5-4.5-10-10-10h-30zm40-130c-27.6 0-50 22.4-50 50s22.4 50 50 50 50-22.4 50-50-22.4-50-50-50zM850 130v100h20v-40h20v40h20v-40h20v40h20v-60h-80v-20h80v-20H850zm-70 360c-27.6 0-50 22.4-50 50a50.02 50.02 0 0 0 90 30h-13.6a40.04 40.04 0 1 1 12.3-20H800v-30h-10v2.7c-9.6-5.5-21.8-2.3-27.3 7.3s-2.3 21.8 7.3 27.3c6.2 3.6 13.9 3.6 20.1 0v2.7h35.8c11-25.3-.5-54.8-25.8-65.8-6.4-2.8-13.2-4.2-20.1-4.2zm0 40c5.5 0 10 4.5 10 10s-4.5 10-10 10-10-4.5-10-10 4.5-10 10-10zm-142.2-16.9c-17 5-27.8 15.5-27.8 26.9s10.8 21.8 27.8 26.8a47 47 0 0 1-7.5-21.8H655v20h10v-20h24.7c-.6 7.8-3.2 15.3-7.5 21.9 17-5 27.8-15.5 27.8-26.9s-10.8-21.8-27.8-26.8a47 47 0 0 1 7.5 21.8H675v-20h-10v20h-10v-20h-10v20h-14.7c.6-7.8 3.2-15.3 7.5-21.9zM550 490c-30 30-40 45-40 70s15 30 30 30 30-15 30-25-5-15-20-25-10-30 0-50zm-162.5 0c-2.8 0-5 1.7-5 3.8 0 2 2.2 3.7 5 3.7h20c2.8 0 5-1.7 5-3.8 0-2-2.2-3.7-5-3.7h-20zm45 0c-2.8 0-5 1.7-5 3.8 0 2 2.2 3.7 5 3.7s5-1.7 5-3.8c0-2-2.2-3.7-5-3.7zm25 0a12.5 12.5 0 1 0 0 25 12.5 12.5 0 0 0 0-25zm0 7.5c2.8 0 5 2.2 5 5s-2.2 5-5 5-5-2.2-5-5 2.2-5 5-5zm-75 2.5-2.5 2.5v75l2.5 2.5h75l2.5-2.5v-55l-2.7-2.7c-8.9-1.2-15.9-8.2-17.1-17.1l-2.7-2.7h-55zm-8.8 2.5c-2 0-3.7 2.2-3.7 5v20c0 2.8 1.7 5 3.8 5 2 0 3.7-2.2 3.7-5v-20c0-2.8-1.7-5-3.8-5zm92.6 20c-2.1 0-3.8 2.2-3.8 5s1.7 5 3.8 5c2 0 3.7-2.2 3.7-5s-1.7-5-3.7-5zm-92.6 25c-2 0-3.7 2.2-3.7 5v20c0 2.8 1.7 5 3.8 5 2 0 3.7-2.2 3.7-5v-20c0-2.8-1.7-5-3.8-5zm92.6 0c-2.1 0-3.8 2.2-3.8 5v20c0 2.8 1.7 5 3.8 5 2 0 3.7-2.2 3.7-5v-20c0-2.8-1.7-5-3.7-5zm-78.8 35c-2.8 0-5 1.7-5 3.8 0 2 2.2 3.7 5 3.7h20c2.8 0 5-1.7 5-3.8 0-2-2.2-3.7-5-3.7h-20zm45 0c-2.8 0-5 1.7-5 3.8 0 2 2.2 3.7 5 3.7h20c2.8 0 5-1.7 5-3.8 0-2-2.2-3.7-5-3.7h-20zM280 490v10h-20v10h80v-10h-20v-10h-40zm-15 30v70h70v-70h-70zm-225.5-.5c-18.7 18.7-29.4 44-29.7 70.5 55.1-.6 99.7-45.1 100.4-100.2-26.5.2-52 10.9-70.7 29.6v.1zm30.8-10.3c5.5-5.8 14.7-6 20.5-.5 5.8 5.5 6 14.7.5 20.5l-.5.5c-5.8 5.5-15 5.3-20.5-.5-5.3-5.6-5.3-14.4 0-20zM180 490a14.99 14.99 0 0 0-5 29.1v50.5c-14.4-2.4-25-15-25-29.6h10v-10h-30v10a50 50 0 0 0 45 49.7v.3h10v-.3a50 50 0 0 0 45-49.7v-10h-30v10h10c0 14.6-10.6 27.2-25 29.6V519a14.99 14.99 0 0 0-5-29.1v.1zM10 370v20h20v-20H10zm20 20v20h20v-20H30zm20 0h20v-20H50v20zm0 20v20h20v-20H50zm20 20v20h20v-20H70zm20 0h20v-20H90v20zm0 20v20h20v-20H90zm-20 0H50v20h20v-20zm-20 0v-20H30v20h20zm-20 0H10v20h20v-20zm0-20v-20H10v20h20zm60-60v20h20v-20H90zm100 0c0 5.7-2.5 11.2-6.8 15 8.3 7.3 9 20 1.7 28.2-1.9 2.1-4.2 3.8-6.7 5a20.07 20.07 0 0 1-26.5 10c-2.6-1.2-4.9-2.9-6.7-5-3.8 4.3-9.3 6.8-15 6.8v20c0 11 9 20 20 20h60c11 0 20-9 20-20v-60c0-11-9-20-20-20h-20zm100 0c-5.5 0-10 4.5-10 10s4.5 10 10 10 10-4.5 10-10-4.5-10-10-10zm35 10c-8.3 0-15 6.7-15 15s6.7 15 15 15 15-6.7 15-15-6.7-15-15-15zm-40 20c-19.3 0-35 15.7-35 35s15.7 35 35 35 35-15.7 35-35-15.7-35-35-35zm55 20c-5.5 0-10 4.5-10 10s4.5 10 10 10 10-4.5 10-10-4.5-10-10-10zm123.3-35.5c-6.5.2-15 2.2-24.8 5.8a35 35 0 0 0-53.5 30.9c-15.5 12.8-23 24.4-19.6 30.3s17.2 5.2 36-1.8a35 35 0 0 0 48.3-11c3.7-5.9 5.6-12.9 5.3-19.9 15.5-12.8 23-24.4 19.6-30.3-1.6-2.8-5.5-4.1-11.3-4zm-7 6c4.7 0 7.8 1 9.2 3.2 4.4 7.5-12.4 25.5-37.6 40-25.1 14.5-49 20.1-53.4 12.6-2.4-4.2 1.7-11.8 11-20.6.3 1.7.7 3.4 1.2 5-3.4 4.4-4.4 8-3 10.3 3.4 6 22.5 1.6 42.6-10 20.2-11.7 33.7-26 30-32-1.3-2.2-5-3-10.4-2.4-1.1-1.3-2.4-2.5-3.7-3.6 4.5-1.5 9.2-2.3 14-2.6l.1.1zM540 370c-22 0-40 18-40 40v10h-10v50h100v-50h-10v-10c0-22-18-40-40-40zm0 20c11.2 0 20 8.8 20 20v10h-40v-10c0-11.2 8.8-20 20-20zm105-17.5a35.1 35.1 0 0 0-34.9 35.1c.1 15.4 10.1 28.9 24.9 33.4v-10.6c-9.1-4-15-13-15-22.9-3.2-13.4 5-26.9 18.4-30.2a25.02 25.02 0 0 1 30.9 24.4l1.6 7 6-4c7-4.4 16.3-2.3 20.7 4.7s2.3 16.3-4.7 20.7c-2.4 1.5-5.1 2.3-7.9 2.3v10a25.01 25.01 0 0 0 .4-50c-2.8 0-5.5.4-8.1 1.3a35.37 35.37 0 0 0-32.3-21.2zm-5 50v40h10v-40h-10zm30 0v40h10v-40h-10zm-15 5v40h10v-40h-10zM823 369l-60 17.5v58.2c-4.3-1.3-9.6-.8-14.5 1.5-8.7 4-13.5 12.4-10.6 18.7 2.9 6.3 12.3 8 21.1 4 7-3.2 11.6-9.3 11.5-15v-53.1l45-12.9v39.3c-4.3-1.3-9.6-.8-14.5 1.5-8.7 4-13.5 12.4-10.6 18.7 2.9 6.3 12.3 8 21.1 4 7-3.2 11.6-9.3 11.5-15V369zm92 8.5c-9.4 0-18.4 3.8-25 10.5 13.5-2.7 26.7 6 29.5 19.5 2.7 13.5-6 26.7-19.5 29.5-3.3.7-6.7.7-9.9 0 13.5 13.8 35.7 14 49.5.5s14-35.7.5-49.5a35.52 35.52 0 0 0-25.1-10.5zm-40 35c-13.8 0-25 11.1-25 25 0 13.8 11.1 25 25 25 8.4 0 16.3-4.2 20.9-11.2-7.6 3.2-16.4-.3-19.7-7.9a15.01 15.01 0 0 1 19.7-19.7c-4.7-7-12.5-11.2-20.9-11.2zM625.3 8.4c-7.9 20.5-9.7 42.8-5.3 64.3a19.97 19.97 0 1 0 27.3 7.3 20.26 20.26 0 0 0-17.7-10 93.46 93.46 0 0 1 1.2-44.9A92.61 92.61 0 0 0 670.3 67a20.02 20.02 0 1 0 4-9.1 82.9 82.9 0 0 1-38.4-46.1c10.5 18.9 34.7 28 54.1 18.3-10-19.9-34.8-20-54.7-20l-.6-1.6-9.4-.1zM155 250v15c0 5.6-4.4 10-10 10h-15v20h15c16.6 0 30-13.4 30-30v-15h-20zm75 45v-20h-15c-5.6 0-10-4.4-10-10v-15h-20v15c0 16.6 14.2 30 30 30h15zm-100 10v20h15c5.6 0 10 4.4 10 10v15h20v-15c0-16.6-13.4-30-30-30h-15zm85 0c-16.6 0-30 13.4-30 30v15h20v-15c0-5.6 4.4-10 10-10h15v-20h-15zM10 250v100h100v-20H80v-30h30v-20H80v-30H60v30H30v-30H10zm20 50h30v30H30v-30zm285-50c-17.6 0-32.4 13-34.7 30.4a34.97 34.97 0 0 0-30 39.4 34.97 34.97 0 0 0 39.4 30 34.9 34.9 0 0 0 30-30.2 35.04 35.04 0 0 0 29.4-39.9c-2.6-16.9-17-29.4-34.1-29.7zm-31.4 52.8c7.5 0 13.6 6.1 13.6 13.6s-6.1 13.6-13.6 13.6-13.6-6.1-13.6-13.6 6.1-13.6 13.6-13.6zM540 250c-19.3 0-35 15.7-35 35 0 11.5 5.6 22.3 15.1 28.8l-7 35.2 26.9-13.4 27 13.4-7.1-35.2A35 35 0 0 0 540 250zm10.6 68.3L553 331l-13.1-6.6-13 6.6 2.4-12.6a35.2 35.2 0 0 0 21.3-.1zm-80.8-65.6-48.5 19 3.6 9.3 27.1-10.6-27.8 41.8-19.9-20-38.4 55 8.2 5.7 31.6-45.2 20 20.1 34.7-51.8.6 29 10-.2-1.2-52.1zM645 250v70h-35v30h100v-30h-35v-70h-30zM540 10c-11 0-20 9-20 20s9 20 20 20 20-9 20-20-9-20-20-20zm-30 60c-11 0-20 9-20 20s9 20 20 20 20-9 20-20-9-20-20-20zm60 0c-11 0-20 9-20 20s9 20 20 20 20-9 20-20-9-20-20-20zm-359 55.5-41.8 83.7-20.6-34.3-17.2 10.2 30 50 17.5-.6 50-100-17.9-9zm48.3 1.9-8.6 5.2 28.5 47.4-28.5 47.4 8.6 5.2 31.5-52.6-31.5-52.6zm30 0-8.6 5.2 28.5 47.4-28.5 47.4 8.6 5.2 31.5-52.6-31.5-52.6zm30 0-8.6 5.2 28.5 47.4-28.5 47.4 8.6 5.2 31.5-52.6-31.5-52.6zM370 130v100h100V130H370zm22 11.9h55.8l-28 29-27.8-29zm-10 8.2 38 37.1 38-37.1v68h-76v-68zM1114.2 10c-9.6 0-18.2 6.5-21.4 13.9-2.7 7-3.5 14.6-2.5 22 1.2 14.2 5.9 27.3 5.9 27.3l19-6.4s-4-11.9-5-22.7c-.4-5.4.2-10.3 1-12.3.6-1.4 1.5-1.8 2.5-1.8.8 0 1.2.1 2 1 1.1 1 2.7 3.5 4.2 7 3 7 5.4 17.6 7 28.4 3 21.6 3.1 43.6 3.1 43.6h20s0-22 3.1-43.6c1.6-10.8 4-21.4 7-28.4 1.5-3.5 3.1-6 4.2-7 .6-.7 1.1-1 1.9-1 1 0 2 .4 2.6 1.8.8 2 1.4 7 1 12.3-.9 7.7-2.6 15.3-5 22.7l19 6.4s4.7-13.1 5.9-27.3c.6-7.1.6-14.7-2.5-22a23.89 23.89 0 0 0-21.4-13.9c-6.2 0-11.8 3-15.6 6.8a41.4 41.4 0 0 0-8.5 13.3l-1.7 4.6c-1.8-6.7-5.3-12.9-10.2-17.9a22.4 22.4 0 0 0-15.6-6.8zm15.8 960v20h25.9l-35.9 35.9-13-13-14 14.2 12.9 12.9-13 13 14.2 14 12.9-12.9 13 13 14-14.2-12.9-12.9 35.9-35.9v25.9h20v-60h-60zM660 130l-43.3 25v50l43.3 25 43.3-25v-50L660 130zm0 10 17.3 10v20L660 180l-17.3-10v-20l17.3-10zM370 10v100h100V10H370zm10 10h80v40l-40 40-40-40V20zm0 40h80l-40-40-40 40zm360 70v45c0 30 40 55 40 55s40-25 40-55v-45h-80zM66.9 6.8 17.4 92.6l7.1 4 10.3-17.8 21.5 12.4L46 109l7.1 4 49.5-85.7-7.1-4-2.1 3.5L72 14.5l2-3.6-7.1-4.1zm1 14.9L89.2 34l-4.1 7.2-21.5-12.4 4.3-7.1zM59.5 36 81 48.3l-4 7.2L55.5 43l4-7zm-8.3 14.2 21.5 12.4-4.1 7.2-21.5-12.4 4.1-7.2zM43 64.5 64.5 77l-4.1 7L39 71.7l4-7.2zM250 10v20h5c-1.7 5.4-3.2 10.9-4.6 16.4A51.65 51.65 0 0 0 300 110c35 0 57-34 49.6-63.6-1.4-5.5-3-11-4.7-16.4h5.1V10h-45s10.2 22.5 15.4 43.6C323 64 315 80 300 80s-23-16-20.4-26.4C284.8 32.5 295 10 295 10h-45zM60 130c-27.6 0-50 22.4-50 50s22.4 50 50 50 50-22.4 50-50-22.4-50-50-50zm0 10c16.6 0 30 13.4 30 30s-13.4 30-30 30-30-13.4-30-30 13.4-30 30-30zm0 10c-5.5 0-10 4.5-10 10s4.5 10 10 10 10-4.5 10-10-4.5-10-10-10zm1030-20v20c11.7 0 14.8 4.2 20.5 11.3 1.9 2.3 3.8 5 6.2 7.6a34.97 34.97 0 0 0-2.8 49.4c12.9 14.4 35 15.7 49.4 2.8a34.97 34.97 0 0 0 0-52.2c2.4-2.6 4.3-5.3 6.2-7.6 5.7-7 8.8-11.3 20.5-11.3v-20c-14.3.2-27.6 7.2-36 18.7-3.2 4-5.8 7.2-7.8 9-2.1 1.7-3.2 2.3-6.2 2.3s-4-.6-6.2-2.3c-2-1.8-4.6-5-7.8-9a45.42 45.42 0 0 0-36-18.7zm50 50c8.3 0 15 6.7 15 15s-6.7 15-15 15-15-6.7-15-15 6.7-15 15-15zm-5 190c-24.5 0-44.1 17.6-45 38.6v1.4c0 13.7 11.3 25 25 25s25-11.3 25-25c0-8-3.8-15-9.6-19.6 16.6-2.1 32.8 5.8 41.3 20.2l16.6-11.1A63.46 63.46 0 0 0 1135 370zm-20 35c2.9 0 5 2.1 5 5s-2.1 5-5 5-5-2.1-5-5 2.1-5 5-5zm50 15c-13.9.1-25.1 11.5-25 25.4 0 1.5.2 3.1.5 4.6H1090v20h75c13.7 0 25-11.3 25-25s-11.3-25-25-25zm0 20c2.9 0 5 2.1 5 5s-2.1 5-5 5-5-2.1-5-5 2.1-5 5-5zm-74 174.5v72h18V637c0-2.6 2-4.5 4.5-4.5 2.6 0 4.5 2 4.5 4.5v49.5h18V637c0-2.6 2-4.5 4.5-4.5 2.6 0 4.5 2 4.5 4.5v18c0 10.9 3.6 20.2 8.7 27.8-4.9 3.8-9.8 7-13.8 9.8l10.2 14.8c3.8-2.6 9.5-6.3 15.6-11 5 4.4 10.3 8 14.8 11l10-14.9c-3.9-2.6-8-5.5-11.8-8.7 7-8 11-18.2 11.3-28.8 0-14.4-13.3-25-27.4-22-2-10.7-11.3-18.4-22.1-18.5-5 0-9.7 1.7-13.5 4.6-5.1-3.9-11.7-5.4-18-4.1v-.5h-18zm76.5 36c2.6 0 4.5 2 4.5 4.5 0 5.3-2 10.2-5.2 14.9-2.5-4.6-3.8-9.7-3.8-14.9 0-2.6 2-4.5 4.5-4.5zm-77 200v72h18V873c0-2.6 2-4.5 4.5-4.5 2.6 0 4.5 2 4.5 4.5v49.5h18V873c0-2.6 2-4.5 4.5-4.5 2.6 0 4.5 2 4.5 4.5v18c0 6.8 0 13 1.3 19.4 1.7 7 5.2 13.4 10.3 18.5l2.7 2.6h-14.3v18h45v-45h-18v14.3l-2.6-2.7c-2.9-2.5-4.8-5.9-5.5-9.6-.8-5.1-1.1-10.3-.9-15.5v-18a22.66 22.66 0 0 0-22.5-22.5c-5 0-9.7 1.7-13.5 4.6-5.1-3.9-11.7-5.4-18-4.1v-.5h-18zm-.5 239.5v80h20v-50c0-5.6 4.4-10 10-10s10 4.4 10 10v26.5l-.5.4a309.27 309.27 0 0 0-27.8 37.6l16.6 11c5.5-8.2 10.5-15.5 15.2-21.8 5.1 9.9 15.3 16.2 26.5 16.3 16.6 0 30-13.4 30-30s-13.4-30-30-30c-3.4 0-6.8.7-10 1.9V1120a30.11 30.11 0 0 0-30.5-29.9c-3.2 0-6.5.6-9.5 1.6v-1.7h-20zm70 60c4 0 10 5 10 10 0 5.6-4.4 10-10 10s-10-4.4-10-10v-5c4.4-3.5 7.8-5 10-5zm-10 53.8-64.5 32.3 9 17.8 35.5-17.7v20l40-20v18.8h20v-51.2l-40 20v-20zm0 55-64.5 32.3 9 17.8 35.5-17.7v20l40-20v18.8h20v-51.2l-40 20v-20zm-30.5 78-19 6.4c2 6 3.6 11.6 4.8 16.8H1090v20h17.7c-.4 12.6-2.8 25-7.2 36.8l19 6.4c4.9-13.9 7.6-28.5 7.8-43.2h25.4c.2 14.7 2.9 29.3 7.8 43.2l19-6.4c-4.4-11.8-6.8-24.2-7.2-36.8h17.7v-20h-15.3c1.2-5.2 2.8-10.7 4.8-16.8l-19-6.4c-2.7 8.2-4.7 15.8-6 23.2h-29c-1.3-7.4-3.3-15-6-23.2zM990 130v10h-10v20h10v70h20v-35.1c3.7-2.3 10-4.9 15-4.9 5.3 0 8.2 1.4 10.6 4 2.4 2.8 4.4 7.7 4.4 16v20h20v-20c0-11.7-3-21.8-9.3-29-6.4-7.4-16-11-25.7-11-5.1 0-10.2.8-15 2.4V160h10v-20h-10v-10h-20zm10-120c-12 0-20 8.2-24.1 14.7-4 6.5-5.6 12.9-5.6 12.9l19.4 4.8s1-3.6 3.2-7.1c2.1-3.5 4-5.3 7.1-5.3 1.7 0 1.9.2 3 1.8 1 1.6 2 4.9 2 8.2 0 0-1.7 3.9-6.6 10-4.9 6.1-11.7 14.3-17.3 25.5L973.8 90h61.2v20h20V90h15V70h-15V10h-20v60h-26.8l5.9-7.5c5-6.4 10.9-12.5 10.9-22.5 0-6.7-1.5-13.4-5.4-19.3A23.9 23.9 0 0 0 1000 10zM60 730c-27.6 0-50 22.4-50 50s22.4 50 50 50 50-22.4 50-50-22.4-50-50-50zm5 10.4a40 40 0 0 1 26.6 64.1L65 777.9v-37.5zm-10 0v37.5l-26.6 26.6a40 40 0 0 1 7.3-56.1c5.6-4.3 12.3-7.1 19.3-8zm0 51.7v27.5a40 40 0 0 1-19.5-8L55 792v.1zm10 0 19.5 19.5a40 40 0 0 1-19.5 8v-27.5zm726.8-786-40.2 63.3 34.4-5.9-17 46.3L809.5 46 775 51.8l16.8-45.7zM70 390v20h20v-20H70zm420-260v100h100V130H490zm17 10h66l-33 33-33-33zm66 80h-66l33-33 33 33zm-73.1-7v-66l33 33-33 33zm80-66v66l-33-33 33-33zM139.5 10h80.3v19.5h-8c0 29.8-27.3 20.7-27.3 30.3 0 9.5 27-.6 27 30.1h8.3v20h-80.3V90h8.2c0-30.5 27.2-20.5 27.2-30.1 0-9.7-27.4-.3-27.3-30.3h-8.1V10zm880.9 1080c-27.6 0-50 22.4-50 50s22.4 50 50 50 50-22.4 50-50-22.4-50-50-50zm0 0 42.6 76.2h-85.2l42.6-76.2zM949.8-7.8v64H937V21h-37V8.8h49.7m-100 0H875l74.7 74V107h-25.4l-74.6-73.8V8.8m.2 98.1V58h12.7v36.9h37.1V107l-49.8-.1M989 563.7a38.97 38.97 0 0 1 8.2-54.5c13.5-10 31.9-10.2 45.7-.5l-53.9 55zm69.7-23.7a38.99 38.99 0 0 1-39.2 38.8 39 39 0 0 1-22-6.9l54-54.6c4.7 6.6 7.2 14.6 7.2 22.7zM780 1310.1c24 .1 44-23.9 44-31.5-3.5 4.4-10.1 19-33.9 19a37.88 37.88 0 0 1-36.4-37.4c.3-20.1 16.3-36.5 36.4-37.3 22.1 0 30.3 14 33.6 18.9 0-6.4-19.2-32.3-43.7-31.7-30.8 0-52 19.7-52 50 0 30.6 24 50 52 50zm310.7-1022h8.8c-2.5-16.8-3.7-20.3-8.5-37.7h24.2s8.7 20.6 8.7 37.5h32.7c0-17.5 8.5-37.5 8.5-37.5h24.3c-4 12.2-6.9 24.8-8.5 37.5h8.9v24.3h-8.9c2.6 17.2 3 20 8.4 37.5h-24c-5.7-16.7-7.2-20-8.7-37.5h-33c-1.7 18.4-3.1 20.4-8.4 37.6H1091c7-22 8.6-37.6 8.6-37.6h-8.8l-.1-24.1zM60.1 849.7l40.3 50.3-40.3 50-40.6-50.3 40.6-50zM729.4 250h100.3v25h-21.2l21.3 74.5h-25.2l-21.3-74.7H776l-21.4 75.1h-25.2l22-75.3h-22V250zm121.7 8.8h11.4v34.5h34.1l-20.3-34.5H950L925.6 301c2.9 0 16.2 6 22.4 21 2.9 7 3.8 15 3.8 20.8h-12c-.4-16.2-4.9-28.2-21-34v34.3h-12v-33.7c-17 4-20.8 21.2-20.6 33.6h-12.5c1.8-17.7 6.8-32.2 21.4-40h-32.6v40h-11.4v-84.2zm42.1 9H932l-19.5 33-19.3-33zm-42.1 222.7-.2 24.5h11.7c5.4 15.7 5.4 32.8 0 48.5H851v25h98l-.2-24.6h-11a73.98 73.98 0 0 1-.2-48.5H949v-24.9h-97.9zm35.8 24.6 26.8-.2c-6 19.2-5.2 30 0 49.2h-27.2c5.2-20.4 4.9-29 .4-49zM743.6 970.8v12.3l61.3.1 3.8 24.1h-30c-13.3.6-25.6 7.1-33.7 17.7-9.8 12-13.9 33.3-13.6 44h98L817 971l-73.4-.2zm67 49.1 4.5 36.6h-71c-.1-7.7 5.1-19 10.2-24.6 5.2-6.7 13-10.9 21.5-11.6 0 0 11.3-.6 34.8-.4zM1070.7 730h-100v100h100V730zm-10 10v80h-40l-40-40 40-40h40zm-40 0v80l40-40-40-40z" fill-rule="evenodd" clip-rule="evenodd"/></svg>