<svg viewBox="0 0 400 420" xmlns="http://www.w3.org/2000/svg"><text font-family="Special Elite, sans-serif" text-anchor="middle" x="10" y="15" font-size="18"><tspan>A</tspan></text><circle cx="34" cy="11" r="4"/><path d="M46 7h24v8H46z"/><text font-family="Special Elite, sans-serif" text-anchor="middle" x="10" y="35" font-size="18"><tspan>B</tspan></text><path d="M30 27h24v8H30z"/><circle cx="66" cy="31" r="4"/><circle cx="82" cy="31" r="4"/><circle cx="98" cy="31" r="4"/><text font-family="Special Elite, sans-serif" text-anchor="middle" x="10" y="55" font-size="18"><tspan>C</tspan></text><path d="M30 47h24v8H30z"/><circle cx="66" cy="51" r="4"/><path d="M78 47h24v8H78z"/><circle cx="114" cy="51" r="4"/><text font-family="Special Elite, sans-serif" text-anchor="middle" x="10" y="75" font-size="18"><tspan>D</tspan></text><path d="M30 67h24v8H30z"/><circle cx="66" cy="71" r="4"/><circle cx="82" cy="71" r="4"/><text font-family="Special Elite, sans-serif" text-anchor="middle" x="10" y="95" font-size="18"><tspan>E</tspan></text><circle cx="34" cy="91" r="4"/><text font-family="Special Elite, sans-serif" text-anchor="middle" x="10" y="115" font-size="18"><tspan>F</tspan></text><circle cx="34" cy="111" r="4"/><circle cx="50" cy="111" r="4"/><path d="M62 107h24v8H62z"/><circle cx="98" cy="111" r="4"/><text font-family="Special Elite, sans-serif" text-anchor="middle" x="10" y="135" font-size="18"><tspan>G</tspan></text><path d="M30 127h24v8H30zM62 127h24v8H62z"/><circle cx="98" cy="131" r="4"/><text font-family="Special Elite, sans-serif" text-anchor="middle" x="10" y="155" font-size="18"><tspan>H</tspan></text><circle cx="34" cy="151" r="4"/><circle cx="50" cy="151" r="4"/><circle cx="66" cy="151" r="4"/><circle cx="82" cy="151" r="4"/><text font-family="Special Elite, sans-serif" text-anchor="middle" x="10" y="175" font-size="18"><tspan>I</tspan></text><circle cx="34" cy="171" r="4"/><circle cx="50" cy="171" r="4"/><text font-family="Special Elite, sans-serif" text-anchor="middle" x="10" y="195" font-size="18"><tspan>J</tspan></text><circle cx="34" cy="191" r="4"/><path d="M46 187h24v8H46zM78 187h24v8H78zM110 187h24v8h-24z"/><text font-family="Special Elite, sans-serif" text-anchor="middle" x="10" y="215" font-size="18"><tspan>K</tspan></text><path d="M30 207h24v8H30z"/><circle cx="66" cy="211" r="4"/><path d="M78 207h24v8H78z"/><text font-family="Special Elite, sans-serif" text-anchor="middle" x="10" y="235" font-size="18"><tspan>L</tspan></text><circle cx="34" cy="231" r="4"/><path d="M46 227h24v8H46z"/><circle cx="82" cy="231" r="4"/><circle cx="98" cy="231" r="4"/><text font-family="Special Elite, sans-serif" text-anchor="middle" x="10" y="255" font-size="18"><tspan>M</tspan></text><path d="M30 247h24v8H30zM62 247h24v8H62z"/><text font-family="Special Elite, sans-serif" text-anchor="middle" x="10" y="275" font-size="18"><tspan>N</tspan></text><path d="M30 267h24v8H30z"/><circle cx="66" cy="271" r="4"/><text font-family="Special Elite, sans-serif" text-anchor="middle" x="10" y="295" font-size="18"><tspan>O</tspan></text><path d="M30 287h24v8H30zM62 287h24v8H62zM94 287h24v8H94z"/><text font-family="Special Elite, sans-serif" text-anchor="middle" x="10" y="315" font-size="18"><tspan>P</tspan></text><circle cx="34" cy="311" r="4"/><path d="M46 307h24v8H46zM78 307h24v8H78z"/><circle cx="114" cy="311" r="4"/><text font-family="Special Elite, sans-serif" text-anchor="middle" x="10" y="335" font-size="18"><tspan>Q</tspan></text><path d="M30 327h24v8H30zM62 327h24v8H62z"/><circle cx="98" cy="331" r="4"/><path d="M110 327h24v8h-24z"/><text font-family="Special Elite, sans-serif" text-anchor="middle" x="10" y="355" font-size="18"><tspan>R</tspan></text><circle cx="34" cy="351" r="4"/><path d="M46 347h24v8H46z"/><circle cx="82" cy="351" r="4"/><text font-family="Special Elite, sans-serif" text-anchor="middle" x="10" y="375" font-size="18"><tspan>S</tspan></text><circle cx="34" cy="371" r="4"/><circle cx="50" cy="371" r="4"/><circle cx="66" cy="371" r="4"/><text font-family="Special Elite, sans-serif" text-anchor="middle" x="10" y="395" font-size="18"><tspan>T</tspan></text><path d="M30 387h24v8H30z"/><text font-family="Special Elite, sans-serif" text-anchor="middle" x="200" y="15" font-size="18"><tspan>U</tspan></text><circle cx="224" cy="11" r="4"/><circle cx="240" cy="11" r="4"/><path d="M252 7h24v8h-24z"/><text font-family="Special Elite, sans-serif" text-anchor="middle" x="200" y="35" font-size="18"><tspan>V</tspan></text><circle cx="224" cy="31" r="4"/><circle cx="240" cy="31" r="4"/><circle cx="256" cy="31" r="4"/><path d="M268 27h24v8h-24z"/><text font-family="Special Elite, sans-serif" text-anchor="middle" x="200" y="55" font-size="18"><tspan>W</tspan></text><circle cx="224" cy="51" r="4"/><path d="M236 47h24v8h-24zM268 47h24v8h-24z"/><text font-family="Special Elite, sans-serif" text-anchor="middle" x="200" y="75" font-size="18"><tspan>X</tspan></text><path d="M220 67h24v8h-24z"/><circle cx="256" cy="71" r="4"/><circle cx="272" cy="71" r="4"/><path d="M284 67h24v8h-24z"/><text font-family="Special Elite, sans-serif" text-anchor="middle" x="200" y="95" font-size="18"><tspan>Y</tspan></text><path d="M220 87h24v8h-24z"/><circle cx="256" cy="91" r="4"/><path d="M268 87h24v8h-24zM300 87h24v8h-24z"/><text font-family="Special Elite, sans-serif" text-anchor="middle" x="200" y="115" font-size="18"><tspan>Z</tspan></text><path d="M220 107h24v8h-24zM252 107h24v8h-24z"/><circle cx="288" cy="111" r="4"/><circle cx="304" cy="111" r="4"/><text font-family="Special Elite, sans-serif" text-anchor="middle" x="200" y="215" font-size="18"><tspan>0</tspan></text><path d="M220 207h24v8h-24zM252 207h24v8h-24zM284 207h24v8h-24zM316 207h24v8h-24zM348 207h24v8h-24z"/><text font-family="Special Elite, sans-serif" text-anchor="middle" x="200" y="235" font-size="18"><tspan>1</tspan></text><circle cx="224" cy="231" r="4"/><path d="M236 227h24v8h-24zM268 227h24v8h-24zM300 227h24v8h-24zM332 227h24v8h-24z"/><text font-family="Special Elite, sans-serif" text-anchor="middle" x="200" y="255" font-size="18"><tspan>2</tspan></text><circle cx="224" cy="251" r="4"/><circle cx="240" cy="251" r="4"/><path d="M252 247h24v8h-24zM284 247h24v8h-24zM316 247h24v8h-24z"/><text font-family="Special Elite, sans-serif" text-anchor="middle" x="200" y="275" font-size="18"><tspan>3</tspan></text><circle cx="224" cy="271" r="4"/><circle cx="240" cy="271" r="4"/><circle cx="256" cy="271" r="4"/><path d="M268 267h24v8h-24zM300 267h24v8h-24z"/><text font-family="Special Elite, sans-serif" text-anchor="middle" x="200" y="295" font-size="18"><tspan>4</tspan></text><circle cx="224" cy="291" r="4"/><circle cx="240" cy="291" r="4"/><circle cx="256" cy="291" r="4"/><circle cx="272" cy="291" r="4"/><path d="M284 287h24v8h-24z"/><text font-family="Special Elite, sans-serif" text-anchor="middle" x="200" y="315" font-size="18"><tspan>5</tspan></text><circle cx="224" cy="311" r="4"/><circle cx="240" cy="311" r="4"/><circle cx="256" cy="311" r="4"/><circle cx="272" cy="311" r="4"/><circle cx="288" cy="311" r="4"/><text font-family="Special Elite, sans-serif" text-anchor="middle" x="200" y="335" font-size="18"><tspan>6</tspan></text><path d="M220 327h24v8h-24z"/><circle cx="256" cy="331" r="4"/><circle cx="272" cy="331" r="4"/><circle cx="288" cy="331" r="4"/><circle cx="304" cy="331" r="4"/><text font-family="Special Elite, sans-serif" text-anchor="middle" x="200" y="355" font-size="18"><tspan>7</tspan></text><path d="M220 347h24v8h-24zM252 347h24v8h-24z"/><circle cx="288" cy="351" r="4"/><circle cx="304" cy="351" r="4"/><circle cx="320" cy="351" r="4"/><text font-family="Special Elite, sans-serif" text-anchor="middle" x="200" y="375" font-size="18"><tspan>8</tspan></text><path d="M220 367h24v8h-24zM252 367h24v8h-24zM284 367h24v8h-24z"/><circle cx="320" cy="371" r="4"/><circle cx="336" cy="371" r="4"/><text font-family="Special Elite, sans-serif" text-anchor="middle" x="200" y="395" font-size="18"><tspan>9</tspan></text><path d="M220 387h24v8h-24zM252 387h24v8h-24zM284 387h24v8h-24zM316 387h24v8h-24z"/><circle cx="352" cy="391" r="4"/></svg>