<svg xmlns="http://www.w3.org/2000/svg" width="378" height="378" viewBox="0 0 100 100"><path d="M13.5.4c-1.9 0-3.4 1.8-3.4 4.1V20c0 2.3 1.5 4.1 3.4 4.1h35V28h-35c-1.9 0-3.4 1.8-3.4 4.1v15.5c0 2.3 1.5 4.1 3.4 4.1h35v3.8h-35c-1.9 0-3.4 1.8-3.4 4.1V75c0 2.3 1.5 4.2 3.4 4.2h35v4.6c-3 1.5-5.6 4.5-5.6 7.7a8.6 8.6 0 1 0 17.3 0c0-3.2-2.6-6.2-5.5-7.7v-4.6h34.5c2 0 3.5-1.9 3.5-4.2V59.5c0-2.3-1.6-4.1-3.5-4.1h-34v-3.8h34c2 0 3.5-1.8 3.5-4.1V32c0-2.3-1.6-4.1-3.5-4.1h-34V24h34c2 0 3.5-1.8 3.5-4.1V4.5c0-2.3-1.6-4.1-3.5-4.1Zm65.2 7.3a4.5 4.5 0 0 1 4.4 4.5 4.5 4.5 0 0 1-4.4 4.4 4.5 4.5 0 0 1-4.5-4.4 4.5 4.5 0 0 1 4.5-4.5zm0 27.5a4.5 4.5 0 0 1 4.4 4.5 4.5 4.5 0 0 1-4.4 4.5 4.5 4.5 0 0 1-4.5-4.5 4.5 4.5 0 0 1 4.5-4.5zm0 27.5a4.5 4.5 0 0 1 4.4 4.5 4.5 4.5 0 0 1-4.4 4.5 4.5 4.5 0 0 1-4.5-4.5 4.5 4.5 0 0 1 4.5-4.5zM15.4 87.4h-.1a3.7 3.7 0 1 0 .4 7.4h24.4v-7.4zm47.5 0v7.4h24.4a3.7 3.7 0 0 0 4.1-3.7c0-2-1.6-3.6-3.7-3.6v-.1z"/></svg>