<svg xmlns="http://www.w3.org/2000/svg" width="378" height="378" viewBox="0 0 100 100"><path d="M-362 577c-4-4-3-6 2-6 4 1 7-1 6-3-1-1-2-2-6-2s-4 0-8-6c-5-10-5-18 3-23 7-5 18-2 21 5 3 5 2 10-2 17-2 5-4 8-4 11s0 5-3 7c-3 4-5 4-9 0zm0-32 7-5 4-1-3-1c-6-1-14 5-14 12 0 4 1 5 2 1l4-6zm410 30-12-11c-6-4-7-5-7-7 0-5 3-6 7-4l7 1 2 1 1-17c1-17 1-20 6-20 3 0 5 4 5 13 0 4 0 7 1 6 2-3 4-3 7 0 2 2 3 3 4 2 2-2 5-1 7 1 1 2 2 2 4 2 4-1 6 2 7 9 1 8-1 18-4 24l-3 5H52l-4-5zm-184 2-1-14c0-13 0-14 2-14l5-5c2-4 3-4 6-4 5 0 5 0 3 4-3 4-2 5 3 5s5-1 8-5c2-4 3-4 7-4s5 1 2 4c-2 3-2 5 3 5s5-1 8-5c2-4 3-4 7-4h5l-2 4c-3 4-3 5 1 5h4v29h-31l-30-1zm107-1v-2c1-2 4 0 4 3 0 2-3 1-4-1zm11 0v-2c1-2 4 0 4 3 0 2-3 1-4-1zm11 0c-1-2 3-3 4-1v2c-1 2-3 1-4-1zm12 0v-2c1-1 4 1 4 2 0 3-3 3-4 0zm110 0c-1-2 0-5 3-5 2-1 6-11 6-15 0-1-2-4-5-6-5-4-7-4-10-4-3 1-6-2-5-5 2-3 6-3 8 0 1 2 2 2 9 2h8l3-8c2-6 2-8 1-9-2-2-2-2-1-4s5-2 7 0c1 1 1 2-1 3-1 2-1 3 1 10l3 8h8c6 0 8 0 9-2 2-3 5-3 7 0 1 3-1 6-5 5-2-1-4 0-9 4l-6 6c0 4 5 14 7 15s3 2 3 4-1 3-4 3-3-1-3-4c-1-2-2-4-7-7l-7-4-7 4c-4 3-6 5-6 7 0 3-1 4-3 4s-3 0-4-2zm23-20c2 1 2 1 1-1 0-2 0-3 2-4l3-2h-4c-3 0-4-1-4-3l-1-2-1 2c0 2 0 3-3 3h-4l3 2c1 1 2 2 1 4 0 2 0 2 2 1h5zm78 15-7-7-6 7c-6 6-9 7-10 4-1-1 1-4 6-8l6-7-8-8c-9-8-8-10 3-10h7l8-8c7-7 8-8 7-10-2-2-1-4 1-4s26 24 26 26-3 3-5 2c-1-1-3 0-9 6l-8 8v8l-2 8-9-7zm14-21c5-4 7-7 6-8 0-4-2-3-9 2-6 7-8 10-7 11 1 2 4 1 10-5zm-511 26c-5-2-13-8-15-14l-2-10c0-12 5-21 15-27 4-3 6-3 14-3s9 0 13 3c10 7 14 19 9 30-4 8-13 11-18 7-2-2-2-2-6 0-4 3-8 2-12-1-2-2-3-3-3-9 0-5 1-7 2-9 4-5 8-7 12-9 4 0 12 0 14 2l-1 10c-1 10 0 12 4 8 6-7 2-22-7-25l-9-1c-20 2-27 31-10 40 4 2 14 2 18 0h3c2 3 1 6-1 7-3 1-15 2-20 1zm10-23c3-2 4-11 2-11-3 0-6 3-7 7-1 6 2 8 5 4zm53 17c-2-2-3-8 0-11l6-2c4 0 5 0 9-4 4-5 5-5 5-11 0-7 1-7 4-7 2 0 3 1 3 3 1 2 1 2 5-2 6-6 9-7 16-7 8 1 11 3 11 8s-4 8-10 8c-3 0-5 1-13 10-19 18-18 18-26 18-6 0-8-1-10-3zm29-14 15-14 5-1c5 0 7-2 6-5 0-2-1-3-4-3-10 0-10 0-25 14-12 13-13 14-18 14-4 0-7 1-7 4s3 4 10 4h5zm4 16 4-5c4-4 4-6 1-6l-1-1c-1-1 1-2 5-2h5v6l-1 6-1-2c0-4-1-4-5 1-4 3-7 5-7 3zm151-3v-3c2-2 5 1 5 3s-3 2-5 0zm12 1c-1-2-1-5 1-5 1 0 3 2 3 4s-3 2-4 1zm11 0-1-3c0-3 4-2 4 1 1 2-1 3-3 2zm11-1v-3c2-2 5 1 4 3s-3 2-4 0zm-38-8-1-3c0-3 4-2 4 1 1 3-2 4-3 2zm11-1c-1-3-1-4 1-4 1 0 4 4 3 5-2 1-4 1-4-1zm11 0c-2-2-1-4 1-4s3 3 3 5c0 1-3 1-4-1zm12 1c-2-1-1-5 0-5 2 0 3 2 3 5h-3zm-42-10c-7-3-9-9-5-15 2-5 7-7 11-6 3 0 4 0 6-3 4-5 9-7 16-6 5 0 6 1 9 4s4 5 4 7c0 3 0 4 5 4 4 0 5 0 7 2 4 5 2 10-3 13s-44 3-50 0zm-341-6c-1-2 1-3 5-3 3 1 5 1 5 3l-5 1-5-1zm50 0c-1-2 1-3 5-3 5 0 5 0 5 2s0 2-5 2l-5-1zm202-6c-2-2 1-4 2-3 2 2 1 4-1 4l-1-1zm4-7-3-5 5-1c3 0 4 0 7 3 2 4 3 4 7 4l5-1-2-4c-3-4-3-4-2-5 4-1 8 0 11 3 3 4 4 4 8 3l5-1-2-3c-3-4-3-4 1-5 3-1 4 0 8 3 2 3 4 5 5 4l1 1a811 811 0 0 0-45 8c-5 0-5 0-9-4zm-245-1c-3-3-4-5-2-6 1-1 9 7 8 8-1 2-2 2-6-2zm32 2 3-5c3-3 4-3 5-2 2 1 1 2-2 5-3 4-6 5-6 2zm146-3c-1-2 1-5 4-5 2 0 4 3 3 5-1 3-6 3-7 0zm-161-6c0-4 1-5 2-6 2 0 2 1 2 5 0 5 0 6-2 6s-2-1-2-5zm-9-28c-6-2-12-7-16-14-3-4-3-6-3-15 0-8 0-10 3-14 4-7 8-11 15-14 12-5 24-3 34 7 5 5 7 8 8 16 2 12-2 24-11 30-9 7-21 8-30 4zm22-3c7-4 11-8 15-15 3-7 3-12 0-20-6-16-25-23-40-15-14 9-18 28-8 42 8 10 22 13 33 8zm-22-4c-6-3-11-9-13-15 0-2 0-3 2-5l3-2-3-1c-2-1-2-2-2-5 1-6 7-12 14-15l6-3 2 2 2 3 2-3c2-2 2-2 7-1 5 3 7 4 12 10 3 5 4 10 1 12l-3 2 3 1c6 4-4 19-14 22-4 1-5 1-6-2l-2-2-2 3c-2 3-2 3-9-1zm5-12 6-2c3 0 7-5 7-8l3-6c1-3 2-4 1-5l-5 2-8 3-4 4-3 8c-3 7-3 7 3 4zm4-7c-3-3 0-7 3-6s3 6 0 7l-3-1zm227 27c-4-1-5-3-2-5 4-2 8-1 8 1s1 2 4 2c4 0 5 0 5-2 0-3 5-3 8 0l3 2-4 2c-5 2-17 2-22 0zm101-1c-3-1-7-4-8-7-3-3-4-5-4-11-1-8 2-13 11-26a76 76 0 0 0 10-16l2 5 7 11c10 13 12 17 12 25 0 6-1 8-4 12-6 9-17 12-26 7zm13-12c0-4 0-4 3-4s3 0 3-3 0-4-3-4-3 0-3-3c-1-3-1-4-4-4-4 0-4 0-4 4 0 3 0 3-3 3s-5 2-4 5l4 2c3 0 3 0 3 3 0 4 1 5 4 4 3 0 3-1 4-3zm69 11-18-14c-1-2-2-7-2-22v-19l4 2c7 4 13 4 19-1 4-4 4-4 5-2 2 2 9 6 13 6 2 0 5-1 7-3l5-2v39l-4 5c-3 3-20 15-22 14l-7-3zm14-8 9-8c4-4 4-4 3-16v-12h-7l-9-2c-3-2-3-2-6 0l-10 2-7 1v26l4 3 16 10 7-4zm-9-7-1-4-2-7c-3-3-3-7 0-10 2-2 7-3 10 0 2 3 2 8 0 10l-2 6c0 5-1 6-2 6l-3-1zm72 17c-3-2-3-7-1-9 3-3 9 0 9 4 0 2-3 6-5 6l-3-1zm69-1c-3-2-3-3-3-29s0-26 3-28c2-2 3-3 23-3 19 0 21 1 23 3s2 2 2 28 0 27-2 29-4 2-23 2c-20 0-21 0-23-2zm13-9c0-4 0-4-4-5-4 0-6 2-6 6s0 4 6 4h5zm29 0-1-4h-23v9h24Zm-29-13c0-4 0-4-5-5-4 0-4 0-5 3v5c1 2 2 2 5 2 5-1 5-1 5-5zm15 0v-5h-10v10h5c4-1 4-1 5-5zm14 0v-5h-10v4c0 5 1 6 6 6h4zm-29-14c0-4 0-5-4-5s-6 1-6 5 0 5 6 5h5zm15 0c-1-5-1-5-5-5-5 0-5 0-5 5v5h10zm14 0c-1-5-1-5-5-5s-4 0-5 5v5h10zm-1-13v-5h-18c-18 0-18 0-19 2v5l1 3 18-1h18zm-444 49c-4-11-4-11-1-14 5-8 8-10 8-10l6 10-6 9c-5 5-7 6-7 5zm28-2-21-28c-8-10-6-22 2-27 10-6 22 1 22 13 0 5-4 15-6 15l-4-5-3-4 3-4c3-4 3-6-1-8h-6l-4 4c0 2 5 9 17 23l10 12-2 6-3 6-4-3zm328 2c-2-2-2-6 0-8 2-3 7-2 8 1 2 4 0 8-4 8l-4-1zm-445-3c-5-2-9-10-7-16 3-8 14-11 20-5s5 15-2 20c-4 2-7 3-11 1zm10-6c5-4 4-10-1-13-9-5-17 6-10 13 4 4 8 4 11 0zm-7-5c-1-1 0-3 2-3 1 0 3 3 2 4s-4 0-4-1zm33 10c-7-5-8-14-2-20 7-6 19-2 20 7 2 11-9 18-18 13zm11-4c6-5 3-15-5-15s-11 9-6 14c4 3 7 4 11 1zm-7-6v-2c2-2 5 0 4 1 0 2-3 3-4 1zm132 10a403 403 0 0 1 1-55c2-1 4 1 3 5-1 2 0 2 2 2 3-1 10 1 17 7 10 7 14 9 19 8 5 0 5 1 0 4-4 3-13 4-20 2-5-2-12 0-16 5-4 3-4 4-4 13s-1 12-2 9zm-151-9-1-7c0-5 0-5-5-8-8-4-8-6 0-13 7-8 8-8 13-1 2 3 3 4 6 4l4-1c2-2 2-1 3 4 1 4 0 5-1 5l-2-2c-1-2-2-3-5-3-4 0-5 0-7-2l-2-3-3 3-3 3 4 3 4 2v8c0 7-1 9-2 9l-3-1zm397-2-9-39h-5c-5 0-6-2-4-4 3-2 10-2 12 0l2 7 1 6h21c18 0 20-1 21-2 1-2 2-2 3-1 2 2 2 3-2 18l-1 4h-17l-19 1v4l1 3h17c14 0 17 1 17 2s-3 2-19 2l-19-1zm25-16c3-1 2-2-2-2-3 0-4 1-2 2l2 1 2-1zm-18-1-3-1-4 1 4 1 3-1zm10 0-4-1-3 1 3 1 4-1zm18 0-2-1-3 1 3 1 2-1zm-30-7c0-1-1-2-3-2-3 0-4 2-2 4 1 1 5 0 5-2zm11 0c0-2-4-3-6-1s0 3 3 3c2 0 3-1 3-2zm10 1c2-2 1-3-3-3-3 0-4 1-3 3 2 2 5 2 6 0zm10-1c0-2 0-2-2-2-3 0-5 1-4 3s6 1 6-1zm-427-8-2-3c0-2 3-5 4-5 2 0 5 3 5 5l-2 3c-3 2-3 2-5 0zm-118-37c-1-1-2-8-2-26 0-24 0-26 2-27l5-1c2 0 3-1 4-3 0-3 5-3 5 0 1 4 6 4 6 0 1-3 5-3 6 0 1 4 6 4 6 0 0-2 1-3 3-3s3 1 3 3c0 3 0 3 3 3 2-1 3-1 3-3 0-4 6-4 6 0 0 3 0 3 3 3l5 2a240 240 0 0 1 1 52c-1 2-58 2-59 0zm53-29 1-9-2-9c-2-1-2 0-3 3 0 3-1 4-2 4-2 0-3-1-3-4 0-2-1-3-3-3-3-1-3 0-4 3 0 3-1 4-2 4-2 0-2-1-3-4 0-3-1-4-3-4s-2 1-2 3l-2 4c-2 2-5 0-5-3s0-4-3-4c-2 0-2 1-2 4s-3 5-5 3l-2-4c0-3-3-3-4-1-1 3 0 15 1 17l4 1c8 1 43 0 44-1zm41 29c-1-3-1-4 3-4s4 1 3 4c-1 2-5 2-6 0zm36 1-1-3c0-1 1-2 3-2 4 0 4 1 3 4-1 2-4 2-5 1zm55-1 5-2h4v-9c0-7 1-8 3-8s2 1 2 8v9h4l5 2c1 1-2 1-11 1l-12-1zm193-7-8-9-4 2c-5 2-13 2-19-1-16-7-19-27-6-39 4-4 8-6 15-6 8 0 13 2 18 8 7 7 8 15 5 25l-1 4 8 9c9 8 9 9 8 12 0 2-2 3-4 3-3 1-4 0-12-8zm-16-12c16-4 16-28 1-33-9-4-18 0-22 8-2 6-2 10 1 16 2 5 5 8 11 9l4 1 5-1zm-12-4c-5-3-8-8-7-14v-3l2 4c1 6 10 13 14 13h1c0 2-6 2-10 0zm81 23-4-3c0-5 12-7 14-3 1 3 4 3 5 0 2-3 6-3 12-1 4 2 4 3 1 6-4 2-22 3-28 1zm159 0c-1-3 1-4 6-4l6-1 1-12c0-8 0-10-2-11-3-3-3-7 1-10 3-2 4-2 8 0 3 3 4 7 1 10-2 3-2 5-2 12 0 11 0 12 7 12 4 1 5 1 5 3s-1 2-15 2c-12 1-15 0-16-1zm-62-4-1-8c-1-4-1-4-4-2-2 1-3 1-4-1l-2-5-7-5c-3-2-5-4-4-5v-3c1-1-6-3-11-4h-5l3-2 8-6c4-3 6-3 13-3s9-1 17-5c10-5 19-7 21-6 1 1-4 14-8 22-3 5-4 8-4 14 0 8-2 14-6 20-4 5-6 5-6-1zm1-25c4-3 6-6 5-10 0-2-1-3-4-3-4 0-8 2-10 7-1 3-1 4 1 6 2 3 3 3 8 0zm-275 27c-3-2-4-2-4-5s12-25 22-42c4-8 8-10 12-7a269 269 0 0 1 24 42c4 5 4 8 1 11-2 2-5 2-27 2l-28-1zm29-10c1-2 1-4-1-6-3-3-8 2-5 6 2 2 4 2 6 0zm0-11 1-9c1-7 1-9-1-10-2-3-4-3-6 0-2 1-2 3-2 10l2 10c1 1 4 1 6-1zm-193 17-1-12 3-32a244 244 0 0 1 45 0l3 33-1 10-24 1h-25zm27-7 2-2 1-2-1-2-2-2c-1-3-4-3-4-1l-2 2c-2 0-3 0-3 2s1 3 2 3l2 2c1 2 5 2 5 0zm-17-5c0-2 0-3-3-3-3-1-6 2-4 5 1 2 2 2 4 2 3 0 3-1 3-4zm36 2c1-4-2-7-6-5-2 1-3 5-1 7 1 1 6 0 7-2zm-1-13c1-2-1-16-2-18a113 113 0 0 0-36-1c-2 1-4 17-3 19h41zm-17-3c0-2 4-5 7-5 2 0 4 1 5 3 3 2 2 4-1 1-2-2-6-2-8 0-1 2-3 2-3 1zm324 22-16-29c-1-5 1-12 6-17 3-2 4-3 11-3 6-1 8 0 11 2 5 3 7 9 7 15 0 4-1 7-8 19l-9 15-2-2zm8-26c4-4 4-10 0-13-4-4-9-4-13 0s-4 8 0 12c4 5 9 5 13 1zm55 22 3-8c2 0 7 4 7 5s-3 3-7 4l-3-1zm79-1c-2-2-6-13-6-18 0-10 8-21 17-25 6-2 17-2 23 1 9 4 16 15 16 25 0 9-7 21-11 17l2-6c4-9 2-22-5-28-10-8-24-6-33 5-3 5-3 16 0 22 2 4 2 5 1 7h-4zm-367-6-13-1h-12v-7l1-7 1-1c0-1 1-2 3-2l2 2 8 1 10-1c1-1 2 0 6 3l5 5-5 5c-4 4-5 5-6 3zm374-3c-3-3-3-13 0-18 3-4 10-8 15-8 9 0 17 8 17 17 0 8-3 13-7 11v-6c2-7-1-13-7-15-8-3-16 4-14 12 2 9 0 12-4 7zm-421-20-4-4 4-5c4-6 5-6 6-4 1 1 3 2 9 2 8 0 8 0 9-3l3-3c2 0 4 7 4 13v6h-13l-12 1c0 2-2 1-6-3zm-73-10c-1-1-1-4 2-6h17c12 0 15 0 16 2v3c-1 2-3 2-17 2l-18-1zm10-3-4-1c-4 0-6 1-4 3s8 0 8-2zm23 1c0-2-1-2-4-2l-5 1c0 2 2 3 6 3 2 0 3-1 3-2zm-100-29c-1-1-2-57 0-59 1-3 4-1 4 2 0 2 1 3 2 3 4 0 11 4 13 8s1 7-4 7c-3 0-4 0-6-3-3-6-5-5-5 1l1 6 6 2c8 2 11 6 11 12 0 4-1 6-4 9l-9 5c-4 1-5 1-5 4s-2 5-4 3zm9-17c2-2 2-5 0-7-4-1-5-1-5 4 0 6 2 7 5 3zm55 16c-2-2-2-3-2-21 0-19 0-20-2-20-2-1-2-2-2-3 0-2 1-2 5-2 5-1 6-1 6-4l1-7c1-3 1-3 14-3 14 0 15 1 15 7s1 6 7 6c5 0 5 1 5 3s-1 3-2 3c-2 0-2 1-3 20 0 19 0 21-2 22s-6 2-20 2c-16 0-18-1-20-3zm11-22-1-18c-4-2-4 1-4 18v17l3 1c1-1 2-3 2-18zm12 0-1-18c-4-2-4 1-4 18v17l3 1c1-1 2-3 2-18zm12 1c0-17-1-21-4-19l-1 17v18l3 1c1-1 2-3 2-17zm-5-29c0-4-2-4-11-4-6 0-9 2-8 6l10 1h9zm49 51c-2-1-2-3-1-21l1-19-3-2c-2-1-3-4-3-6-2-10 7-16 14-10 3 2 3 4 3 8s0 5-3 8c-3 2-3 2-2 9l1 29c-1 4-4 6-7 4zm24 0-1-15 1-15 1-5c0-5-1-6-3-8-3-1-3-2-3-9l1-9 1 7c0 6 1 6 3 6s2 0 2-6l1-7 1 7c0 6 0 6 2 6s2 0 2-6l1-7c1 0 2 4 2 9 0 7-1 8-3 10-3 1-3 2-2 7a365 365 0 0 1-1 35c-2 2-2 2-5 0zm23 0c-1-1-2-4-1-27v-27l2-3 4-4c1 0 3 57 2 59-1 3-4 4-7 2zm58 1-1-3-6-3c-7-3-14-10-16-17-1-4-2-5-4-5-3 0-3-5 1-6l2-2c0-3 6-13 10-15l8-5 5-3c1-4 5-4 6 0 0 2 1 2 4 3 8 2 17 10 18 18l2 4h2l2 3c0 3 0 3-2 3l-3 2c-3 10-9 17-17 20-4 1-6 2-6 4s-3 3-5 2zm9-12c8-3 13-10 13-18 0-12-8-21-20-21-15 0-25 16-18 29 5 10 15 14 25 10zm-10-14c0-1 0-2-2-2s-2-1-2-3 0-2 2-2 2-1 2-3 1-3 3-3 3 1 3 3l2 2c3 1 3 6 0 6-2 0-2 1-2 2 0 2-1 3-3 3s-3-1-3-3zm149 24c-1-2-4-4-6-2s-4 0-3-3 0-6-3-6c-2 0-2-3 1-4 2 0 3-4 2-6-2-2 1-4 3-3 1 2 5 1 6-2s3-3 4 0c0 3 3 4 6 3 2-1 4 0 3 2-2 2-1 6 2 6 3 1 3 4 0 4s-4 3-3 6-1 5-3 3c-1-2-5 0-5 2-1 3-3 3-4 0zm5-10c3-3 0-8-5-7-2 1-3 2-3 4 0 4 5 6 8 3zm82 11c-8-2-15-8-19-16-9-15-1-36 16-42 26-10 51 16 39 41-6 14-21 21-36 17zm10-6c3-2 1-5-2-5s-4 3-2 5h4zm-20-23c1-2-1-4-3-4s-4 2-3 4c1 3 5 3 6 0zm28-4 6-7c0-4-3-3-9 2l-6 6-7-7c-8-8-10-9-12-6 0 2 2 5 8 10 10 10 12 11 20 2zm14 3c0-3-2-4-5-2-2 2-1 5 3 5 2 0 2 0 2-3zm-21-19-1-5h-3c-3 3-2 7 2 6l2-1zm-189 45-2-5c0-4 6-10 10-10h3v-14c0-22 2-24 23-24 25 0 26 1 26 27 0 20-1 23-7 26-4 3-6 3-9 0-4-5 2-15 9-15h3v-29l-4-3c-5-5-7-4-7 3v6l-13 1c-16 1-16 0-17 18l-1 15c-1 2-8 6-10 6l-4-2zm-317-4c-5-2-11-6-12-10 0-1 0-3 2-5 3-3 9-2 10 3l4 4c2 2 2 3 2 6-1 4-1 4-6 2zm558-3-1-16c0-14 0-16 4-16l3-2c1-2 7-2 10 0 2 3 8 2 13-1 3-3 5-3 12-3s8 0 14 4l6 4v14c0 11 0 15-2 16-2 2-56 2-59 0zm46-6c11-5 11-20 1-26-12-6-25 8-18 20 2 3 5 5 9 6h8zm-10-4c-3-2-6-5-6-9 0-2 1-2 4-2 5 0 7-2 5-6-1-2-1-2 1-3 2 0 8 2 9 5 4 5 1 14-5 16-4 1-4 1-8-1zm-19-13v-5h-13l-1 3c0 6 0 7 7 7l7-1zM65 307c0-3-5-3-6-1-1 3-4 0-4-3s0-3-3-3-5-3-3-5c2-1 1-4-1-5-3 0-3-4 0-5 2 0 4-4 1-4v-5h2c3 2 5-1 4-4s3-5 5-2c1 2 4 1 5-2 1-2 5-2 5 0 0 3 3 4 5 2s5-1 4 2 1 5 4 5c2-1 4 1 2 3s-1 5 1 5c3 1 3 5 0 5-2 0-3 4-1 5 3 2 1 5-3 5-2 0-3 0-3 3s-3 6-4 3c-1-2-5-2-5 1 0 1-1 2-3 2s-2-1-2-2zm7-14c3-3 3-9 0-11s-7-2-9 0c-4 3-4 7-2 10 3 3 8 4 11 1zm-441 5c-7-2-11-11-8-18 2-3 9-7 13-7 2 0 2 7-1 9-3 1-3 5 0 7 3 1 3 2 3 6-1 4-1 4-7 3zm320-56-1-4v-3h41v7h-40zm-238-4c-3-3-4-3-6-1h-5c-5-2-3-6 10-19l12-12 3 3 3 5-4 4-4 4 4 4 3 4c0 2-10 11-12 11l-4-3zm338 1c-3-3-3-4-4-10 0-6-1-8-2-8l-2 1-2 2c-1-1-2-15 0-20 1-6 7-11 11-12s4-1 4-6c0-7 3-7 3-1 1 5 1 6 4 6 4 2 9 5 11 9 2 5 2 24 0 24l-1-2-3-1-1 6-2 9c-3 6-11 7-16 3zm10-1c4-2 5-4 5-10 0-4-1-5-2-5-2 0-3 1-3 5l-2 8c-4 3-3 4 2 2zm-14-27c0-6 0-7 3-10 2-2 5-3 7-3 8 0 12 5 12 14 0 5 0 6 2 6s2-11 0-16c-4-10-18-11-25-2-2 3-3 5-3 11 0 7 0 7 2 7s2 0 2-7zm-240 26c-2-2-4-2-6-2-5 2-6 1-7-2-1-4-3-6-6-6-3-1-3-1-3-6 1-5 0-6-2-8l-3-2 3-3c3-4 3-6 2-10 0-2 0-2 3-3s6-4 6-8c0-2 1-2 6-2 4 1 5 1 8-2l2-2 3 2c3 3 4 3 8 2 4 0 5 0 5 2 0 3 4 7 7 8s4 1 3 3c-2 4-1 7 2 10l2 3-2 2c-3 4-3 6-2 10 1 3 0 3-3 4-3 0-7 5-7 8 0 2-1 2-2 1-5-2-7-1-10 1l-4 3-3-3zm12-7c8-4 12-9 12-17l-1-10c-2-7-12-14-19-14-8 0-18 7-20 14-3 8-1 17 4 22 3 3 12 8 16 8l8-3zm-18-4-7-8c-4-9 0-19 10-24 5-2 8-2 14 0 13 6 14 25 2 32-5 3-14 3-19 0zm89 4c1-22 1-24 3-25 3-1 4 1 5 11l1 10 3-1c2-1 3-1 3 1 0 1-1 2-3 2-3 2-3 2-3 6l1 5h-11zm215 7c-3-2 3-2 30-2l31 1c0 2-4 2-30 2l-31-1zm86-2c-2-2-2-4-2-13v-11h18l2 4c5 8 16 8 21 0l3-4h18v11c0 9 0 11-2 13l-3 3h-53zm-562-1c-1-2 2-4 7-4h5v-16l-14-14-14-14h34v3l-2 5c0 2 0 3 2 3 3 0 3 0 1 4-3 5-1 4 4-2l4-5h-3c-3 0-3 0 1-5 3-3 3-3 11-3l7 1-13 14-14 14v15h4c6 0 8 1 8 4 0 2-1 2-14 2-11 0-13 0-14-2zm324-2-1-24c0-30-1-28 19-28 17 0 17 1 17 10 0 6 1 7 4 11 4 4 4 4 4 13 0 7 0 10 2 11 2 3 2 3 4 0 1-1 2-4 2-12 0-9-1-10-4-13-2-3-3-5-3-8s-1-5-3-8c-2-2-3-3-2-4s3 1 8 6l6 7v16c0 15-1 16-2 18-3 3-6 3-9 1l-1-12c0-9-1-11-2-12l-3-2-1 15v16h-17l-18-1zm29-36v-9h-23v17l12 1h11zm19-3c-1-2-2 0-1 2l2 1-1-3zm120 36c-5-5-8-12-8-17l-1-3h23c22 0 23 0 24 2l2 2 3 3c2 3 2 4 0 7-1 3-4 4-9 4-2 0-5 1-7 3-3 2-4 3-13 3h-10zm41-8v-3c-2-3-4-3-5 0l-1 4c-1 2-1 2 2 2l4-3zm-291 4c-10-5-10-19-1-24 4-3 5-4 2-5-2 0-2 0 0-5 2-6 7-9 14-8 3 0 7 1 9 3 3 2 4 2 4 0 0-4 8-5 14-2 10 4 15 15 10 25-2 6-7 9-12 11-8 2-10 1-10-8-1-8-2-10-6-10-5 0-7 3-7 10s-1 10-5 12-8 2-12 1zm347-11c0-3 0-3-3-3l-2-2 2-1c2 0 3-1 3-3 1-4 3-4 3 0 1 2 1 3 3 3l3 1c0 1-1 2-3 2s-3 0-3 3l-1 2-2-2zm-482-2c-4-1-8-5-10-8-8-19 15-33 27-18 4 4 4 5 4 10 0 11-10 19-21 16zm10-12c5-6-4-14-10-8-4 4 0 12 6 11l4-3zm443 2c0-8 2-10 11-10 6 0 6 0 6-2 0-6 2-7 14-6h12v4c1 4 1 4 7 4 10 1 11 2 12 9v5h-10c-9 0-9 0-11-2-1-3-7-7-10-7s-9 4-11 7c-1 2-1 2-11 2h-9zm40-12c0-3 0-3-9-3s-9 0-9 3c0 2 0 2 9 2s9 0 9-2zm-95 10-1-7c-1-2-1-3 1-6l2-4v5l2 6c1 2 0 3-1 7l-3 4v-5zm-10 1-1-7v-7c2-3 2-3 3 3 1 7 1 10-1 12s-2 2-1-1zm21-2-1-7c-1-2 0-4 1-5l2-3v3l1 8-1 6c-1 2-2 2-2-2zm-531-39c-2-3-2-5 0-15l4-13c1-4 3-7 14-18l15-13c4 0 26 22 26 26 0 2-3 6-13 16l-14 13-11 3c-15 3-19 3-21 1zm37-17c12-10 12-11 10-14-2-1-3 0-11 8-10 9-13 11-14 8-1-1 2-5 8-11 10-9 12-12 8-13-1-1-5 2-11 9-9 8-10 9-12 8l-1-2 9-11c8-9 10-12 6-12-3 0-21 18-21 22l-2 6c0 2 1 3 5 8l6 5 6-1c4-1 6-2 14-10zm54 17c0-2 22-23 25-23s7-3 7-7c0-3-3-6-7-6s-6 2-7 7l-12 14-11 10c-3 0-3-3 1-11l9-20 4-11 7-1 11-4c4-1 4-1 4-4 0-5 3-4 14 6 7 7 9 10 9 12s-1 2-3 2c-4 0-4 0-6 9l-3 11c-1 1-3 3-25 12-14 6-17 7-17 4zm244-1c-4-4-3-7 6-15 10-10 13-11 17-6 3 3 3 3 2 6l-9 11c-6 6-8 7-11 7s-4-1-5-3zm12-12c5-5 6-7 5-8 0-1-2 0-8 5l-7 9c0 3 3 1 10-6zm37 12a437 437 0 0 0-39-35c-4 0-6-1-9-4-2-3-3-5-3-8l1-4 4 4 6 3c4-2 4-6 1-9-4-4-4-5 0-5 6 0 12 6 12 11 0 4 1 5 10 15a871 871 0 0 0 28 29c0 5-8 8-11 3zm8-3c0-3-3-4-6-1-1 1-1 2 1 3 2 2 5 1 5-2zm38 3c-15-8-21-26-14-41 9-19 35-23 50-8 4 4 7 10 8 19 1 11-4 22-14 28-5 4-7 4-15 5-8 0-10 0-15-3zm27-6 7-6c3-4 6-13 5-15l-4-1c-4 0-4 1-5 3-1 5-7 11-12 13-4 1-4 1-4 6v5l4-1 9-4zm-5-14c2-3 3-4 3-8 0-10-12-15-19-7-4 4-4 11 0 15 4 5 11 4 16 0zm-12 0c-5-3-6-9-2-13 2-2 3-3 8-2 6 0 8 10 3 14-3 2-6 2-9 1zm-12-12c1-5 7-11 12-12 4 0 4 0 4-5v-5l-4 1c-11 2-22 13-22 23 0 2 0 2 5 2 4 0 4 0 5-4zm-169 32 1-3c3-2 2-3-1-6s-6-12-6-18 4-15 9-20c7-7 19-9 29-4 11 5 16 12 16 25 0 8-2 12-7 17l-2 3 2 3 2 3c0 2-3 2-6-1-2-2-2-2-7 0-7 2-10 2-17 0-6-2-6-2-8 0-3 3-5 3-5 1zm31-6c12-6 17-23 9-33-7-10-19-13-29-8-11 6-16 19-11 29 6 12 19 17 31 12zm-5-13c-1-2-4-3-6-4-3 0-4-3-1-8l1-6c-1-4 0-8 2-8l1 7 1 8 2 4c0 2 1 4 3 5l2 3c0 2-3 1-5-1zm207 20 2-4c2-3 2-4 0-7-3-6-3-14-1-17l2-3 3 4c4 5 5 6 12 10 5 2 8 3 15 3 10 0 11 1 4 7-4 4-12 6-19 5h-8l-10 2zm83-24v-22h6v45h-6zm14 6v-16h6v33h-7l1-17zm13-3v-20h7v20l1 20h-8v-20zm14 11v-9h7v18h-7zm14-9v-37h7v55h-7zm-447 4-13-13 4-1c3-1 4 0 5 2l3 3 4-6 2-6 4 10c4 12 5 12 8 4l1-6h10l11 1-8 8a219 219 0 0 0-17 16l-14-12zm357 0-11-2c-15 0-24-4-28-14-4-8-2-14 4-20 12-11 33-9 41 4 4 5 4 15 0 19s-4 5 0 8l4 5c1 1 0 2-2 1l-8-1zm-25-20c2-2 0-6-2-6-3 0-4 3-3 5 0 2 2 2 5 1zm11-2c0-3 0-3-2-3-3 0-5 3-2 5 2 1 4 0 4-2zm12 1c1-2 0-5-3-5-2 0-3 1-3 3 0 4 3 5 6 2zm-345 3c-3-12-4-13-8-4l-3 6-2-3-3-3-2 3c-2 2-7 3-8 0-2-3-1-12 1-15 3-4 8-7 14-7 4 0 7 1 12 5l3 3 3-3c4-4 7-5 11-5 5 0 10 2 13 7 3 2 3 4 3 8 0 9 0 9-14 9h-13l-2 4-2 4-3-9zm177-1c-3-2-3-4 4-10l7-9 5-5h7c2 2 2 2 0 7l-5 5-8 6c-6 7-7 8-10 6zm-120-9c-2-4-1-9 3-12s11-4 14-2c1 1 1 2-3 5l-8 8-4 4-2-3zm57 3c0-2-9-12-13-13-3-2-3-2-1-4l7-1c8 0 13 7 10 14-1 3-3 6-3 4zm318-37-4-12c-4-12-7-17-9-18l-9 7-8 6 1 6c0 5 0 6-2 7-1 2-2 2-4-3-1-4-3-6-5-7l-5-3c-3-1-3-2-1-3l7-1 6 1 6-8 7-9c0-2-13-7-23-10-7-2-8-3-6-5 1-1 2-2 7-1 4 1 6 0 8-1 4-3 6-3 5 0s0 3 3 3l6-2c2-2 3-2 4-1l-1 3 5 2c6 0 6 0 11-5 7-6 11-8 12-7 2 2-1 7-7 12-4 4-5 6-5 9 0 5 1 7 3 6 3-1 3 3 1 5l-2 5c0 3 0 4 3 3s3 1 1 4c-2 2-2 4-2 9s-1 8-2 8h-1zm-107-8-15-1h-13V54c0-16 1-19 2-19s2-1 2-4c0-2 1-3 3-4 5-1 11 1 18 4l6 3 7-3c7-3 13-5 17-4 3 1 4 1 4 4s0 4 2 4c2 1 2 2 2 20v19h-13l-15 1c-3 2-5 2-7 0zm1-21V36l-4-3-12-3h-7v38h5l11 2c8 3 7 4 7-16zm13 16 9-2h5V30h-5l-12 3-5 2v19c0 21-1 19 8 16z" fill="gray"/><path d="M50 10v83h5V10Zm-30 0a6 6 0 1 0 0 13 6 6 0 0 0 0-13zm62 0a6 6 0 1 0 0 13 6 6 0 0 0 0-13zM63 41l1 10c1 6 4 5 5 0V38c1-5 3-6 3-1l1 21v18l1 14c1 4 4 2 4 0 1-11 0-29 4-32 3 3 2 21 3 32 0 2 4 4 4 0l1-14V58l1-21c1-5 2-4 3 1l1 13c0 5 3 6 5 0V41c-1-15-5-17-18-16-19-1-18 10-19 16ZM20 25c-6 0-12-1-15 9L0 49c-1 4 2 7 5 2l4-15c2-3 4-2 3 3L5 64l6 1c4 2 2 17 3 24 0 3 3 4 4 0 1-1 1-18 3-23 2 5 2 22 3 23 1 4 3 3 4 0 1-7-1-22 3-24l5-1-6-25c-1-5 1-6 2-3l5 15c3 5 6 2 4-2l-4-15c-3-10-9-9-15-9h-2zM0 7h100"/></svg>