<svg xmlns="http://www.w3.org/2000/svg" width="378" height="378" viewBox="0 0 100 100"><path d="m57 0-2 1c-4 2-10 6-30 26L8 44 5 58 0 86v7l1 2a15 15 0 0 0 2 2 23 23 0 0 0 2 2l2 1h7l28-5 14-3 17-17c20-20 24-26 26-30 1-2 1-3-1-6L81 19 61 2l-4-2zm-7 19h1l2 1c2 3 1 5-11 17-13 14-17 19-17 22l2 3c3 1 5-1 19-15l12-11c4-4 7-4 8-2 2 1 2 4-1 8L53 54C39 68 37 71 38 73l3 2c3 0 8-4 22-17 12-12 14-13 17-11l1 2v3L67 66C50 83 48 84 37 86l-6 1-10-8-8-10 1-6c2-11 3-13 20-30l14-14h2z"/><path d="M43 498c-4-4-4-6 1-6s7-1 6-4l-5-1c-5 0-5 0-8-7-6-10-5-18 2-22 7-5 18-3 22 5 2 5 2 9-2 17-3 4-4 8-4 11s-1 5-3 7c-4 4-5 4-9 0zm0-33 7-4 3-1-3-1c-6-2-14 5-14 11 0 5 2 5 3 2l4-7zm409 30-11-10c-7-4-8-6-8-8 1-4 4-5 8-4l6 2h3v-16c1-17 2-20 6-20s5 4 5 12l1 7c2-3 5-3 8 0l4 2c2-2 5-2 6 1 1 1 3 2 4 1 4-1 7 2 7 10 1 8 0 18-4 24l-2 5h-29l-4-6zm-184 3-1-15c0-13 1-14 2-14 2 0 4-1 5-4 2-4 3-4 7-4s4 0 2 4-2 4 3 4 6 0 8-4c3-4 3-4 7-4 5 0 5 0 3 3-3 4-2 5 3 5 4 0 5 0 7-4 3-4 3-4 8-4h4l-2 3c-3 5-3 5 2 5h4l-1 15v14h-61zm108-1v-3c1-1 4 1 4 3s-4 2-4 0zm11 0v-3c1-1 4 1 4 3s-4 2-4 0zm11 0c-1-2 2-4 3-2l1 3c-1 1-4 1-4-1zm11 0v-2c2-1 4 0 4 2s-3 2-4 0zm111 0c-1-2 0-5 2-6 2 0 7-10 7-14 0-1-2-4-6-7-5-3-7-4-9-3-4 0-7-2-5-5s5-3 7 0c2 2 3 2 10 2l8-1 2-7c2-7 2-8 1-9-2-2-2-2-1-4 1-3 5-3 7 0v3c-2 2-2 3 1 10l2 7 8 1c7 0 8 0 9-2 2-3 6-3 7-1 2 4-1 7-4 6s-5 0-9 3-6 6-6 7c0 4 4 14 7 15l2 3c0 3-1 3-3 3-3 0-4 0-4-3 0-2-2-4-6-7l-7-5-7 5c-5 3-6 5-6 7-1 2-1 3-4 3-2 1-3 0-3-1zm22-20c2 1 2 1 2-1-1-2 0-3 2-5l2-2h-4c-2 0-3 0-3-2l-1-2-1 2c0 2-1 2-4 2h-3l2 2c2 2 2 3 2 5-1 2-1 2 1 1h5zm79 15-7-7-6 6c-7 7-10 8-11 5l6-9 7-6-8-8c-9-9-9-10 2-10h7l8-8c7-7 8-9 7-10-2-2-1-4 1-4 3 0 26 23 26 25 0 3-3 4-5 2-1-1-3 1-9 7l-8 8v7c0 6-1 8-2 8-1 1-5-2-8-6zm14-21c4-5 6-7 6-9-1-4-3-3-9 3-7 6-9 9-8 11 2 2 4 1 11-5zm-512 25c-5-1-12-8-15-13l-2-11c0-11 5-21 15-26 5-3 6-3 14-3s9 0 14 3c10 7 13 19 8 29-3 8-13 12-18 8-2-2-2-2-5 0-5 2-9 2-12-1-3-2-3-3-3-9 0-5 0-8 2-10 3-4 7-7 12-8 4-1 12 0 13 2v9c-2 11-1 13 3 8 6-6 2-22-7-24l-9-1c-20 2-27 30-9 39 4 2 14 3 17 1h3c2 3 1 5-1 6-3 2-15 3-20 1zm11-22c2-3 3-11 1-11-3 0-6 3-7 7-1 6 2 8 6 4zm53 17c-3-3-3-9 0-11l6-2c4 0 5-1 9-5s4-5 5-11c0-6 0-6 3-6s3 0 4 2c1 3 1 3 4-1 6-6 9-7 17-7 7 0 11 3 11 8s-5 8-10 8c-4 0-5 1-14 10-19 18-18 17-26 17-6 0-8 0-9-2zm29-14 14-14 6-1c4 0 7-3 6-6-1-1-2-2-5-2-10 0-10-1-24 14-13 13-14 13-18 13-5 0-7 2-7 5s3 4 9 4h5zm3 15 4-4c4-4 5-6 2-6l-2-2 5-1h6v6l-1 6c-1 0-2-1-2-3 0-3-1-3-5 1-3 4-7 5-7 3zm152-3v-3c1-1 4 1 4 4 0 2-2 1-4-1zm12 1c-2-1-1-4 0-4 2 0 3 2 3 4h-3zm10 0v-2c0-3 3-2 4 1 0 2-2 3-4 1zm11-1 1-3c1-1 5 2 4 4-2 2-4 1-5-1zm-38-7-1-3c0-3 4-2 5 1 0 2-2 3-4 2zm11-1c-1-3-1-4 1-4s4 4 3 5-3 0-4-1zm11 0c-1-2 0-4 2-4 1 0 3 2 3 4s-3 2-5 0zm12 1c-1-2-1-5 1-5 1 0 3 2 3 4 0 1-3 2-4 1zm-42-11c-6-2-8-9-5-15 2-4 7-7 12-6 3 1 4 0 6-2 3-6 8-7 15-7 5 1 6 1 10 5 2 2 3 5 3 7 0 3 0 3 5 3 4 0 5 1 7 3 4 5 3 10-3 13-5 3-44 2-50-1zm-341-5c-1-2 1-3 6-3 3 0 4 1 4 2 1 2 0 2-4 2l-6-1zm50 0c-1-2 1-3 6-3 4 0 5 0 5 2s-1 2-5 2l-6-1zm202-7c-1-1 1-4 3-2 1 1 0 4-1 4l-2-2zm4-6-3-6 5-1c3 0 5 1 7 4 3 4 3 4 7 3l5-1-2-4c-2-3-3-4-1-4 4-2 7-1 10 3 4 4 4 4 8 3l5-1-2-4c-3-3-3-4 2-5 3 0 4 0 7 4l5 4h1c0 2-2 2-22 5l-23 3c-5 1-5 1-9-3zm-244-1c-4-3-4-5-3-6 2-1 10 7 9 8-1 2-3 1-6-2zm31 2 4-5c2-3 4-3 5-2s1 1-2 4c-4 4-7 5-7 3zm147-3c-1-2 1-5 3-5 3 0 5 3 4 5s-6 2-7 0zm-162-7c1-4 1-5 3-5l1 5c0 5 0 6-2 6-1 0-2-1-2-6zm-9-27c-6-3-12-8-16-14-2-5-3-6-3-15s1-10 3-15c4-7 8-10 16-13 11-6 24-3 33 6 6 5 7 9 9 17 2 11-3 24-12 30s-20 8-30 4zm23-4c7-3 11-7 14-14s3-13 0-21c-6-15-25-22-39-14-15 8-18 28-8 41 7 10 21 14 33 8zm-23-3c-6-4-11-10-12-15-1-3 0-4 2-5l2-2-2-2c-2-1-3-1-2-4 1-6 6-13 13-16l6-3 2 3 2 2 2-2c2-3 2-3 7-1 6 2 8 4 12 10 4 5 4 10 1 12l-2 1 2 2c7 3-3 18-14 21-3 1-4 1-6-1l-2-2-1 2c-3 3-3 3-10 0zm5-13 6-2c4 0 8-4 8-7l2-7 2-4s-3 0-5 2l-8 3c-3 0-4 2-5 4l-3 8c-3 7-2 7 3 3zm4-6c-2-3 0-7 4-6 2 1 2 5 0 6h-4zm227 27c-4-2-5-4-1-5 3-2 7-2 7 1 0 1 1 2 5 2 3 0 4-1 4-2 0-3 5-3 9 0l2 2-4 1c-5 2-16 3-22 1zm101-1-8-7c-3-3-3-5-4-11 0-8 2-14 12-26a76 76 0 0 0 9-16l3 5 7 11c9 12 11 16 11 25 0 6 0 7-3 11-7 10-17 13-27 8zm13-13c0-3 1-3 3-3 3 0 4-1 4-4s-1-3-4-3c-2 0-3 0-3-3 0-4-1-4-4-4-3-1-3-1-3 3s-1 4-4 4-4 2-3 5l3 2c3 0 4 0 4 3 0 4 0 4 4 4 2 0 3-1 3-4zm70 12c-7-4-16-11-19-15l-2-21 1-20 4 2c6 5 12 5 19-1 3-3 4-3 5-1s9 6 12 6l8-3 4-3 1 20v20l-5 4c-3 4-20 15-22 15l-6-3zm13-9 10-7c3-4 3-4 3-16v-12h-7l-10-2c-2-2-3-2-6 0l-10 2-6 1v25l4 3c4 4 14 10 15 10 0 0 4-1 7-4zm-9-6-1-4-2-7c-3-4-3-7 0-10s8-3 10 0c2 2 3 8 0 10l-2 6c0 4 0 5-2 5h-3zm72 16c-2-1-3-6-1-9 3-3 10 0 10 5 0 1-4 6-6 6l-3-2zm69 0c-2-2-2-3-2-29s0-27 2-29 4-2 23-2c20 0 21 0 23 2 3 2 3 3 3 29s0 27-3 29c-2 2-3 2-23 2-19 0-21 0-23-2zm14-9c-1-4-1-5-4-5-5 0-7 1-7 5s1 5 6 5h5zm28 0v-5h-23v5l-1 5h24zm-29-13c0-5 0-5-4-5s-5 0-5 2v5c0 2 1 3 5 2 4 0 4 0 4-4zm15-1v-4h-10v10l5-1c5 0 5 0 5-5zm14 1v-5h-9v4c0 5 0 6 5 6h4zm-28-14c-1-5-1-5-4-5-5-1-7 1-7 5s1 4 6 4h5zm14 0c0-5 0-5-5-5-4 0-4 0-4 5l-1 4h10zm14 0c0-5 0-5-5-5-4 0-4 0-4 5l-1 4h10zm0-14v-4h-18c-18-1-19-1-20 2v5l1 2h37zm-445 50c-4-11-4-11-1-15 6-7 8-10 9-9l6 10c0 1-3 5-7 8-4 6-6 7-7 6zm29-3-22-27c-7-11-6-22 3-28 10-6 22 2 22 14 0 4-4 15-6 15-1 0-3-2-4-5l-4-4 3-4c3-5 3-6-1-8h-6l-3 3c-1 3 4 10 17 24l10 12-2 6-3 6-4-4zm327 3v-9c3-2 8-1 9 2 2 4 0 8-4 8l-5-1zm-444-3c-6-3-9-10-7-16 3-9 13-11 19-5 7 6 6 14-2 19-3 3-6 3-10 2zm10-6c4-5 3-11-2-13-9-5-16 6-9 13 3 3 7 3 11 0zm-8-5c-1-2 0-3 2-3s3 2 2 3h-4zm34 10c-8-5-9-14-3-20 7-7 19-3 20 7 2 10-9 18-17 13zm11-5c6-5 2-14-6-14-7 0-11 8-5 14 3 3 7 3 11 0zm-8-5v-3c2-1 5 0 5 2-1 2-4 2-5 1zm132 10a403 403 0 0 1 1-56c3 0 4 2 3 5 0 3 0 3 2 2 3-1 10 2 18 8 10 7 13 8 18 8 5-1 5 1 0 4-4 3-13 3-20 1-5-1-11 1-16 5-3 4-3 4-3 14 0 9-1 12-3 9zm-150-9-1-7c0-6-1-6-6-8-7-4-7-6 0-14 8-7 9-7 13-1 2 4 4 5 6 5l4-1c2-2 3-1 3 4 1 3 1 4-1 4l-2-2c0-1-1-2-5-2-3 0-5-1-6-3l-2-2-3 3-3 3 4 2 4 3-1 8c0 7 0 8-2 9l-2-1zm396-2-9-39-4-1c-5 0-7-1-4-4h11l3 8 1 5h20c18 0 20 0 22-2h3c1 2 1 3-3 18l-1 3-17 1-18 1-1 4 1 2 17 1c15 0 17 0 17 2l-18 2-20-1zm25-16c3-1 2-3-1-3-4 0-5 2-2 3h3zm-18-2-3-1-3 1 3 1 3-1zm10 0-3-1-3 1 3 1 3-1zm19 0-3-1-3 1 3 1 3-1zm-30-6c0-1-1-2-3-2-3-1-4 1-2 3 1 2 5 0 5-1zm11 0c0-2-5-3-7-2-1 2 1 4 4 4l3-2zm10 0c1-1 0-2-3-2-4 0-5 1-3 2 1 2 4 2 6 0zm10-1-3-1c-3 0-4 1-3 3s5 1 6-2zm-428-8-2-3c0-1 3-5 5-5 1 0 4 4 4 6l-2 3c-3 2-3 1-5-1zM18 333l-1-27c0-24 0-25 2-26l5-1c2 0 2-1 3-3 1-4 5-4 6 0 0 4 5 4 6 0 0-4 5-4 6 0s6 4 6 0c0-2 0-3 2-3s3 1 3 3 0 3 3 2c2 0 3-1 3-2 1-4 6-4 6 0 0 2 0 3 3 3 2 0 4 0 6 2 1 2 2 3 1 26l-1 26c-1 2-57 2-59 0zm53-29 1-10c0-7-1-8-2-9-1 0-2 1-2 4-1 2-1 3-3 3-1 0-2-1-2-3-1-3-2-3-4-4-3 0-3 0-3 4 0 2-1 3-3 3-1 0-2-1-2-3-1-3-1-4-3-4s-3 1-3 3l-1 4c-3 1-5 0-5-4 0-2-1-3-3-3s-3 1-3 3c0 4-3 5-5 4l-1-4c0-3-3-4-4-1v16l5 2c7 1 42 0 43-1zm41 28c-1-3 0-3 3-3 4 0 5 0 4 3s-6 3-7 0zm36 1v-2c0-2 0-2 3-2s4 0 2 3c0 2-3 3-5 1zm55 0 5-2h5v-9c0-8 0-9 2-9s2 1 2 9v9h5l5 2-12 1-12-1zm194-8-9-8-4 1c-5 3-12 3-19 0-15-7-18-27-6-39 5-4 9-6 16-6 8 0 13 2 18 7 6 7 8 16 5 25l-2 5 9 9c8 8 9 9 8 12-1 2-2 3-5 3s-4-1-11-9zm-17-12c16-4 17-27 1-33-8-3-17 1-21 9-3 5-3 10 0 15 2 5 6 8 11 9l4 1 5-1zm-11-4c-5-2-8-8-8-13l1-4 1 5c2 6 10 13 14 12l2 1c0 2-6 1-10-1zm80 24c-2-1-3-2-3-4 0-4 11-7 13-3 2 3 4 3 6 0 1-2 6-2 11 0s5 3 1 6c-4 2-22 3-28 1zm160 0c-1-3 0-4 5-4l6-2c1 0 2-5 2-11 0-8-1-10-3-12-3-3-2-6 1-9 4-3 5-3 8 0 4 3 4 6 1 10-2 2-2 4-2 12 0 11 0 11 8 12 4 0 5 1 5 2 0 2-1 3-15 3l-16-1zm-63-4-1-8c-1-4-1-4-3-3-3 2-3 2-5 0l-2-5-6-5-5-5 1-3c0-1-7-4-12-4h-4l3-3 7-6c4-2 6-2 13-3 7 0 9 0 18-4 9-5 19-8 20-7 1 2-3 15-8 23-2 5-3 7-3 14 0 8-2 13-7 19-4 5-6 5-6 0zm1-25c4-3 6-6 6-10-1-2-1-3-4-3-5-1-9 2-10 7v6c3 2 4 2 8 0zm-275 26c-3-1-4-2-4-4 0-3 12-26 22-43 5-7 9-9 12-6a269 269 0 0 1 25 41c3 6 3 9 0 11-2 2-4 2-27 3-20 0-25 0-28-2zm29-9c2-2 2-5 0-7-4-2-8 3-5 7 1 1 3 2 5 0zm0-11 2-10c1-7 0-8-1-10-3-2-5-2-7 0-1 2-2 3-1 11l1 9c1 2 5 1 6 0zm-193 16v-11c-1-10 1-31 3-33a244 244 0 0 1 44 1c2 3 4 22 3 33v10h-50zm28-7 1-1c1 0 2-1 2-3l-2-2-2-1c-1-3-4-4-4-1l-2 1c-2 0-2 1-2 3l1 3 2 1c1 3 6 3 6 0zm-17-4c0-3-1-3-3-4-4 0-6 3-4 6l4 2c2-1 3-1 3-4zm35 1c1-3-2-7-5-5-2 1-3 6-2 7 2 2 6 1 7-2zm0-12c1-2-1-17-3-18-1-2-5-2-18-2l-18 1c-1 1-4 17-3 19h42zm-17-3c0-2 4-5 7-5l5 2c2 3 2 5-1 2-3-2-6-2-8 0s-3 2-3 1zm324 22-16-29c-2-6 1-12 6-17 2-3 4-3 10-4 6 0 8 0 11 2 5 4 8 9 8 15 0 4-2 8-9 20l-9 14-1-1zm7-26c4-4 4-10 0-14-3-3-8-3-12 1s-4 8 0 12 9 4 12 1zm55 22c0-3 3-9 4-9l6 6-7 3h-3zm80-1c-3-2-7-13-7-19 1-9 8-21 18-24 5-3 17-2 22 0 9 5 16 16 16 25 0 10-7 21-10 18-1-1-1-3 1-6 5-10 2-22-5-28-10-9-24-7-32 5-4 4-4 15-1 22 2 4 2 5 1 6-1 2-2 2-3 1zm-368-6c0-2-2-2-12-2h-12v-6l1-7 1-2 2-1 2 1c0 2 2 2 9 2l10-1c1-1 2-1 5 3l5 5-5 5c-4 4-5 4-6 3zm375-3c-4-4-4-13 0-18 2-4 9-8 14-8 9 0 17 8 17 17 0 7-3 12-6 10v-6c1-6-1-12-7-14-8-3-16 4-15 12 2 9 1 11-3 7zm-422-21-4-4 4-5c5-5 6-6 7-3l9 1c7 0 8 0 9-2 0-2 1-3 2-3 2 0 4 7 4 13v6h-12l-13 1c0 2-1 1-6-4zm-72-9c-2-2-1-5 1-6l17-1 16 2v4c0 1-2 2-17 2l-17-1zm10-3c0-1-1-2-5-2s-5 2-3 4c1 1 7 0 8-2zm23 0c0-1-1-2-5-2-3 0-4 1-4 2 0 2 1 3 5 3 3 0 4-1 4-3zM48 248v-60c2-2 5 0 5 3 0 2 0 3 2 3 4 0 11 4 12 7 3 5 1 8-4 8-3 0-4-1-6-3-3-6-4-6-4 1v5l6 2c8 3 11 6 11 13 0 4 0 5-4 8-2 3-5 5-8 6-5 1-5 1-5 4s-3 5-5 3zm10-17c2-2 2-6-1-7-4-2-4-1-4 4s1 6 5 3zm55 16c-2-2-3-4-3-22 0-19 0-19-2-20l-2-2c1-2 2-2 6-3 5 0 5 0 5-4l1-6c2-3 2-3 14-3 14 0 16 1 16 6 0 6 0 7 6 7 5 0 5 0 5 3 0 2 0 3-2 3s-2 1-2 20c0 18-1 20-3 22l-19 1c-17 0-18 0-20-2zm10-22c1-13 0-18-1-19-3-2-4 2-4 19l1 17h2c2 0 2-3 2-17zm12 0c1-13 0-18-1-19-3-2-4 2-4 19l1 17h2c2 0 2-3 2-17zm12 0c1-17 0-20-3-19-2 1-2 4-2 18l1 18h2c2 0 2-3 2-17zm-5-28c0-4-2-5-11-4-6 0-8 2-7 5 0 2 2 2 9 2h9zm50 51c-2-2-2-3-2-21l1-20-3-2c-1-1-3-3-3-5-2-10 7-17 14-10 3 2 4 3 4 7 0 5-1 6-4 8-3 3-3 3-2 10 1 12 2 25 1 28-1 5-4 7-6 5zm24 0c-2-1-2-3-2-15l1-15 1-6c0-4 0-5-3-7-2-2-2-2-2-10l1-8 1 7c0 5 0 6 2 6s2-1 2-6l1-7 1 7c0 5 1 6 3 6s2-1 2-6l1-7 1 8c0 8 0 8-3 10-2 2-3 2-2 8a365 365 0 0 1 0 35h-5zm23 0c-2-1-2-4-2-28v-26l3-4 3-3c1 0 3 57 2 59s-4 3-6 2zm57 0v-2c0-1-2-3-6-4-7-2-14-9-16-17-1-3-2-4-4-4-4 0-4-5 0-6 2 0 3-2 3-3 0-3 6-12 9-15l9-4c3-1 4-2 5-4 0-3 5-3 5 0l4 4c8 1 17 10 19 18l1 3 3 1 1 3c1 2 0 3-2 3l-3 2c-3 10-9 16-17 19-4 2-5 3-6 5 0 2-3 3-5 1zm10-11c8-3 13-10 13-19 0-12-9-20-21-20-15 0-24 15-18 29 5 9 15 13 26 10zm-10-14-2-2c-2 0-3-1-3-3s1-3 3-3c1 0 2 0 2-2 0-3 0-3 2-3s3 0 3 2 1 3 2 3c3 1 3 6 0 6l-2 2c0 2-1 2-3 2s-2 0-2-2zm148 24c0-3-4-4-6-2-2 1-3 0-2-3s-1-6-3-6c-3 0-3-3 0-4s4-4 2-6c-1-2 1-5 3-3s6 0 6-2c1-3 3-3 4 0 1 2 3 3 6 2s4 1 3 3c-2 2 0 5 2 6 3 1 3 4 0 4-2 0-3 3-2 6 0 3-2 5-3 3s-5-1-6 2-3 3-4 0zm5-10c3-3 0-8-5-7-2 0-2 1-2 4 0 4 4 6 7 3zm82 10c-8-2-15-8-19-15-8-16 0-36 16-43 27-10 51 16 40 42-6 13-22 20-37 16zm11-5c2-2 1-5-2-5s-5 3-2 5h4zm-20-23c0-2-1-5-3-5-3 0-4 3-4 5 1 2 6 2 7 0zm27-4 6-7c0-4-3-3-9 2l-5 6-8-8c-7-7-10-8-11-5-1 1 2 4 7 10 10 10 12 10 20 2zm15 3c0-3-3-5-5-2-3 2-1 5 2 5 2 0 3-1 3-3zm-21-19c1 0 0-4-2-5-1-2-2-2-3 0-3 2-1 7 3 5h2zm-190 45-2-5c0-4 7-11 11-11h2v-13c0-23 2-25 23-25 26 0 26 1 26 28 0 20 0 23-6 26-4 2-7 2-9 0-5-5 2-16 8-16h3v-29l-3-3c-6-4-7-3-7 4v6l-13 1c-17 0-17 0-17 17l-2 16c-1 2-7 6-10 6l-4-2zm-317-4c-5-2-10-7-11-10-1-2 0-4 1-5 3-4 10-2 11 3l3 4c2 1 2 2 2 6s0 4-6 2zm559-3c-1-2-2-5-2-16 0-14 1-17 5-17l2-1c1-2 8-2 10 0 3 2 8 2 13-2 4-2 6-3 12-3 7 0 8 1 14 5l6 4v14l-1 16c-3 2-57 2-59 0zm45-7c11-4 12-19 1-25-12-6-24 8-17 20 2 3 4 5 8 6 3 1 5 1 8-1zm-9-3c-4-2-6-6-6-9 0-2 1-2 4-2 5 0 7-3 5-6v-3c2-1 8 2 10 4 3 5 1 14-5 16-4 2-4 2-8 0zm-20-14v-5h-13v4c-1 6 0 7 7 6h6zm-142 14c0-2-4-3-5 0-1 2-4 0-4-4 0-2-1-3-4-3s-5-3-2-4c2-1 1-5-2-5-3-1-3-5 0-5 3-1 4-5 2-5-1 0-2-3-1-5l3 1c2 1 5-1 4-4s2-5 4-2c2 2 5 1 5-2 1-3 5-3 5 0s4 4 5 2c2-3 6-1 5 2-1 2 1 5 3 4 3 0 4 2 3 3-2 2-2 5 1 6s3 5 0 5-3 4-1 5 0 4-3 4-3 1-3 3c0 4-4 6-5 4 0-3-5-2-5 0s0 3-2 3-3-1-3-3zm8-13c3-3 2-9-1-11s-6-2-9 0c-3 3-4 6-1 9 2 4 8 4 11 2zm-441 5c-8-3-11-11-8-18 1-3 9-7 12-7s2 7 0 8c-3 2-3 5 0 7 2 2 2 3 2 6 0 5-1 5-6 4zm320-57-1-3v-4l20 1h20v6l-19 1-20-1zm-239-3c-3-3-3-3-6-2-1 2-2 2-5 1-4-2-2-6 10-19l12-12 3 3 3 4-3 5-4 4 3 3 3 5-11 11-5-3zm338 0c-3-2-3-3-3-10-1-6-1-7-3-8l-2 2-1 1c-2 0-3-14-1-19 2-6 7-12 11-13 4 0 4-1 4-5 1-7 3-8 4-1 0 5 0 5 3 6 5 1 9 5 11 9s3 24 1 24l-2-2-2-2c-1 0-2 2-2 6l-1 9c-3 6-12 8-17 3zm11-1c3-2 4-3 4-10 0-4 0-5-2-5s-2 1-3 6l-2 7c-3 4-2 5 3 2zm-14-26c0-7 0-8 3-10 2-3 4-4 6-4 8 0 12 5 12 15 0 5 1 6 2 6 2 0 2-12 0-17-4-9-18-10-24-2-3 3-3 6-4 12 0 7 0 7 2 7s3-1 3-7zm-241 26c-2-2-4-3-6-2-5 1-6 1-6-2-2-4-3-6-7-7-3 0-3-1-2-6 0-4 0-5-3-7l-2-2 2-4c3-3 4-5 3-9-1-2-1-3 2-3 4-1 7-5 7-8 0-2 0-3 5-2s6 0 8-2l3-3 3 3c2 2 4 3 8 2l4 1c0 3 4 8 8 9 3 0 3 1 2 3-1 3 0 7 3 10l2 2-2 3c-3 3-4 5-3 9 1 3 1 4-2 4-4 1-8 5-8 9 0 1 0 2-2 1-4-2-6-2-9 1l-4 3-4-3zm12-7c8-4 12-9 13-17l-1-11c-2-6-12-13-20-13-7 0-17 7-20 13-2 8-1 17 4 22 3 4 12 8 16 8l8-2zm-18-5c-2-1-5-4-6-7-5-10-1-20 9-24 6-3 9-3 14 0 13 6 14 24 2 32-5 3-14 3-19-1zm89 5 3-25c3-2 5 1 5 11l1 9h3c2-1 4-1 4 1l-4 2c-3 1-3 2-2 6v5h-11zm215 7c-2-2 3-3 31-3 26 0 30 1 30 2s-4 2-30 2l-31-1zm86-2c-1-3-2-5-2-14v-11h19l2 4c5 9 15 9 21 1l2-5h18v11c0 9 0 11-2 14l-2 3h-53Zm-562-1c0-3 2-4 7-4h5v-17l-14-14-14-14h35l-1 3-1 6c-1 2 0 2 1 2 3 0 3 1 1 5s0 4 4-2l4-5h-2c-4 0-4-1 0-5 3-3 4-4 11-4l8 1-14 15-14 13v16h5c5 0 7 1 7 3s-1 3-13 3-14-1-15-2zm324-2v-24c0-30-2-28 18-28 17 0 18 0 18 10 0 6 0 7 4 10 3 4 3 4 3 14 0 7 1 10 2 11 2 2 2 2 4 0 2-1 2-4 2-12 0-10 0-10-3-14-3-3-4-5-4-8s0-5-3-7c-2-2-2-3-1-4 0-1 3 1 7 6l6 7v16c0 14 0 16-2 18-3 2-6 3-8 0-1-1-2-4-2-12s0-10-2-11l-3-2v30h-36zm30-36v-9h-23l-1 8 1 9 12 1 11-1zm19-3c-2-2-3 0-1 2h2l-1-2zm119 35c-5-4-8-11-8-16v-4h23c22 0 22 0 23 2 0 2 1 3 2 3l4 3v6c-2 4-5 5-10 5-2 0-5 1-6 3-3 2-4 2-14 2h-10zm41-7v-4c-1-3-4-3-5 0l-1 5c-1 1 0 2 2 1l4-2zm-291 3c-9-4-10-18-1-23 5-3 5-4 2-5-2 0-2 0 0-5 3-6 8-9 15-9l8 3c4 3 4 3 4 0s8-4 15-1c10 4 14 15 9 25-2 5-6 9-12 10-8 2-9 1-10-7 0-8-2-10-6-10s-7 3-7 9c0 8-1 11-5 13s-7 2-12 0zm348-11c0-2-1-3-3-3l-3-1c0-1 1-2 3-2s3 0 3-3c0-4 2-4 3 0 0 3 1 3 3 3l2 2-2 1c-3 0-3 1-3 3s-1 3-2 3l-1-3zm-483-1c-3-1-8-5-10-9-7-18 15-32 28-17 3 3 4 5 4 10 0 11-10 19-22 16zm11-12c4-6-5-14-10-9s0 13 5 11l5-2zm442 1c0-7 3-9 11-9 6 0 7 0 7-3 0-5 1-6 14-6l11 1 1 4c0 3 0 3 7 4 9 1 10 2 11 8l1 6h-10c-10 0-10 0-11-3-2-3-8-7-11-7s-9 4-10 7-2 3-11 3h-10zm41-12c0-3-1-3-10-3s-9 0-9 3 0 3 9 3 10 0 10-3zm-95 11-2-7c-1-3 0-4 2-7l2-3v4l1 7c1 1 1 3-1 6l-2 4v-4zm-11 1-1-7 1-7c1-3 1-3 2 2 2 8 2 11-1 13-1 1-1 1-1-1zm21-3-1-7 1-5 3-2v17c-2 2-2 2-3-3zM109 81c0-2 23-24 25-24 4 0 7-3 7-6 0-4-3-7-7-7-3 0-6 3-7 7-1 3-5 7-11 14l-12 11c-3 0-2-4 2-12l8-19 5-11 6-2 11-3c4-1 5-1 5-4-1-6 3-4 13 6 7 7 10 10 10 12-1 1-1 2-4 2s-3 0-6 9l-3 11-25 12c-13 6-17 6-17 4zm244-1c-3-5-2-7 6-16 10-9 13-11 18-6 3 3 3 4 2 7l-9 10c-6 6-8 7-11 7s-5 0-6-2zm12-12c5-5 7-7 6-8-1-2-2-1-8 5l-7 8c0 3 3 2 9-5zm37 12a437 437 0 0 0-39-35c-4 0-5-1-8-4s-4-5-4-8l1-4 4 3c3 3 4 4 7 3 4-1 4-5 0-9s-4-5 1-5c6 0 11 6 11 12 0 4 1 5 10 15a871 871 0 0 0 28 29c0 5-8 7-11 3zm8-3c0-3-3-4-5-2s-2 2 0 4c3 1 5 1 5-2zm39 3c-16-8-22-26-15-42 10-18 35-23 50-8 5 5 8 11 8 19 2 12-3 22-13 29-6 3-7 4-15 4-9 1-10 0-15-2zm26-6 8-6c3-4 6-14 5-15l-5-1c-4 0-4 0-5 3-1 5-6 11-11 12-4 2-5 2-5 6v5h5l8-4zm-5-14c3-3 3-5 3-8 0-10-12-15-18-8-5 5-5 11-1 16 5 4 12 4 16 0zm-11-1c-6-3-7-8-3-12 2-3 4-3 8-3 6 1 8 10 3 14-3 3-5 3-8 1zm-12-11c1-5 6-11 12-12 3-1 3-1 3-6v-5l-4 1c-11 2-22 14-22 23 0 3 1 3 5 3 5 0 5 0 6-4zM277 80l2-3c2-2 2-4-1-7-4-3-6-11-6-18 0-6 4-15 8-19 8-7 20-9 29-5 11 6 16 13 16 25 0 8-1 13-6 18l-3 3 2 2 3 4c0 2-4 2-6-1-3-2-3-2-8 0-6 2-9 2-17 0-5-2-6-2-8 0-3 3-5 3-5 1zm31-6c13-6 18-23 10-34-8-10-20-13-30-7-11 5-16 19-11 28 7 13 20 18 31 13zm-5-14c-1-1-3-3-5-3-4-1-4-3-2-8 1-2 2-4 1-7 0-3 0-8 2-8l1 8c0 6 0 8 2 8l1 4 3 5 3 3c0 2-3 1-6-2zm207 21 2-5c2-3 2-3 0-7-2-5-2-13 0-16l2-3 3 4c3 5 4 6 12 10l15 3c10 0 10 1 4 6-5 4-13 7-19 6h-9l-10 2zm83-24V34h7v45h-7zm14 6V46h7v33h-7V63zm14-3V40h7v39h-8l1-19zm14 10v-8h6v17h-6zm13-8 1-27c4-26 6 5 6 17v27h-7zm-446 4-13-13 3-2c3 0 4 0 6 3l3 2 3-6 3-6 3 10c4 12 6 13 8 5l2-6h10l10 1-7 8a219 219 0 0 0-18 16l-13-12zm357-1-12-1c-14 0-24-5-28-14-3-8-2-15 5-21 11-10 32-8 41 4 3 6 3 15-1 20-3 4-3 4 0 8l4 4c1 2 1 2-1 2l-8-2zm-26-20c2-1 1-5-2-5-2 0-4 2-3 5 1 2 3 2 5 0zm12-2c0-2-1-3-3-3-3 0-4 4-2 5 2 2 5 1 5-2zm11 2c2-2 0-5-3-5-2 0-2 0-2 2 0 5 3 6 5 3zm-344 2c-4-12-5-12-9-4l-3 7-2-3-2-3-2 2c-3 3-8 3-9 1-1-4 0-12 2-15 2-4 8-7 13-7s8 1 12 5l3 3 3-3c4-4 7-5 12-5s9 2 13 6c2 3 3 5 3 9 0 9 0 9-15 9h-13l-1 3-2 4-3-9zm176-1c-3-1-2-3 5-10l7-9c0-1 2-3 5-4 4-2 4-2 6 0s2 2 0 7l-4 4c-1 0-5 3-8 7-7 7-8 7-11 5zm-119-8c-2-5-1-9 3-13 4-3 10-4 13-1 2 1 2 2-3 5l-8 7-3 5c-1 0-2-1-2-3zm56 2c0-2-9-11-12-13-3-1-3-2-1-3l6-2c8 0 13 7 11 15-1 3-4 5-4 3z" fill="gray"/></svg>