<svg xmlns="http://www.w3.org/2000/svg" width="378" height="378" viewBox="0 0 100 100"><path d="M-205 419.1c-4-4-3.6-6 1.3-5.6 4.5.3 7-1.1 6.1-3.5-.4-1.2-2-1.7-5.3-1.8-4.6 0-4.7-.1-8.2-6.4-5.5-10-4.7-18 2.3-22.7 7-4.8 18.1-2.2 21.9 5 2.6 5.1 2 9.7-2.1 17.1a24.5 24.5 0 0 0-3.8 11.1c0 3.2-.8 5-3.1 7.2-3.9 3.7-5 3.7-9.1-.4zm0-32.4c1.8-1.7 4.9-3.6 6.9-4.3l3.6-1-3-.9c-6.2-1.7-13.9 4.6-13.9 11.5 0 4.2 1.5 4.9 2.5 1.1.4-1.8 2.2-4.6 4-6.4zM204.5 417a52.6 52.6 0 0 0-11.6-10.5c-6.5-4.3-7.6-5.4-7.3-7.8.5-4 3.3-5.4 7.7-3.6 2 .8 4.8 1.5 6.3 1.6l2.7.1.5-16.4c.6-17.2 1.4-20 5.5-20 3.6 0 5.4 4.2 5.4 12.4 0 4.2.4 7.1.9 6.5 1.8-2.7 4.7-2.6 7.5.2 2 2 3.1 2.4 4 1.6 1.8-1.9 4.8-1.4 6.5 1 1.1 1.7 2.3 2.1 4.2 1.6 3.9-1 6.2 2.3 7 10 .8 7.7-.9 17.5-4.1 24l-2.4 4.7h-28.8l-4-5.4zm-184 2.5c-.4-.4-.7-7-.7-14.7 0-13.1 0-14 2-14 1.4 0 3-1.6 4.6-4.3 2.2-4 3-4.4 6.6-4.4 4.6 0 4.8.4 2.6 4.4-2.4 4-2.1 4.3 3.2 4.3 4.5 0 5.1-.3 7.6-4.3s3.3-4.4 7.1-4.4c4.8 0 5.2.7 2.8 3.9-2.8 3.6-2 4.8 3 4.8 4.2 0 4.8-.4 7.3-4.3 2.5-4 3-4.4 7.4-4.4h4.8l-2.3 3.7c-3 4.8-3 5 1.6 5h3.8l-.3 14.5-.3 14.4-30 .3a332 332 0 0 1-30.8-.5zm107.5-.8c-.3-1-.2-2.2.2-2.8 1-1.5 3.8.6 3.8 2.8 0 2-3.2 2-4 0zm11 0c-.4-1-.3-2.2 0-2.8 1-1.5 3.9.6 3.9 2.8 0 2-3.2 2-4 0zm11.1-.1c-.8-2.2 2.5-3.6 3.7-1.6.5.8.7 1.9.4 2.4-1 1.4-3.4 1-4-.8zm11.7 0c-.4-1-.4-2 0-2.4 1-1 4 .6 4 2.4 0 2.1-3.2 2.1-4 0zm110.1 0c-1-2.4.3-5 2.7-5.6 2.1-.6 6.7-10.6 6.7-14.6 0-1.2-2.4-3.8-6-6.4-4.7-3.5-6.5-4.3-9-3.8-3.9.8-6.8-2-5-4.8a4.2 4.2 0 0 1 7.2-.2c1.4 2 2.5 2.2 9.5 2l8-.4 2.4-7.5c2-6.5 2.2-7.8 1-9.1-1.8-1.7-1.8-1.7-1-4 1-2.2 5.3-2.2 7 0 1.2 1.3 1.1 2-.3 3.5-1.5 1.7-1.4 2.6.8 9.5l2.5 7.6 8 .3c6.9.3 8 .1 9.4-1.9 2-2.7 5.4-2.8 6.8-.2 1.7 3.2-1 6.2-4.7 5.2-2.3-.6-4 .2-8.8 3.7-3.6 2.6-6 5.3-6 6.5 0 4.1 4.5 13.7 6.8 14.8 1.6.7 2.4 2 2.4 3.8 0 2.3-.5 2.7-3.2 2.7-2.8 0-3.4-.5-3.6-3-.3-2.2-2-4.2-6.3-7.4a30.4 30.4 0 0 0-7-4.3c-.7 0-3.8 2-7 4.3-4.3 3.2-6 5.2-6.3 7.4-.3 2.4-1 3-3.3 3.3-2 .3-3.3-.2-3.7-1.3zm22.6-20c2.2 1 2.3 1 1.7-1.4-.5-1.9 0-3 1.7-4.4l2.5-2h-3.6c-2.8 0-3.5-.4-3.5-2.2 0-1.2-.5-2.1-1.1-2.1-.6 0-1.1 1-1.1 2.1 0 1.8-.7 2.2-3.6 2.2H284l2.4 2c1.8 1.3 2.3 2.5 1.8 4.4-.6 2.4-.5 2.5 1.6 1.3 1.8-1 3-1 4.7 0zm78.6 14.9-6.8-6.8-6.3 6.2c-6.4 6.4-9.3 7.6-10.5 4.5-.4-1.1 1.5-4 5.9-8.5l6.5-6.8-7.6-7.4c-9.3-9-9-10.4 2-10.4h7.3l8-8.1c6.9-6.9 8-8.4 6.8-9.8-1.5-1.8-.8-4 1.4-4 2.1 0 25.7 23.4 25.7 25.5 0 2.4-2.8 3.6-4.7 2-1-1-3.3.7-9.2 6.7l-7.8 7.8-.3 7.7c-.3 5.7-.7 7.7-2 7.9-.9.1-4.7-2.8-8.4-6.5zm14-21.3c4.4-4.2 6.4-6.9 6.2-8.3-.6-3.9-2.9-3.2-9.1 2.7-6.6 6.3-8.6 9.1-7.6 10.8 1.4 2.2 4 .9 10.4-5.2zM-124.5 418c-5.4-1.5-12.7-8-15.2-13.4-1.1-2.6-2-7-2-10.5 0-11.7 5.2-21.1 15-26.9 4.5-2.6 6.3-3 13.8-3 8 0 9.2.3 13.8 3.5a23.3 23.3 0 0 1 8.7 29.3c-3.6 7.8-13.4 11.7-18.2 7.2-2-2-2.2-2-5.3 0-4.5 2.7-8.6 2.5-12.2-.7-2.8-2.3-3.1-3.3-3.1-9.1 0-5 .6-7.3 2.3-9.6a20 20 0 0 1 12-8c4-1 11.7 0 13.2 1.5.4.4.1 4.7-.5 9.6-1.4 10.6-.5 12.8 3.6 8.1 5.9-6.8 1.8-22-6.7-24.7-2.2-.8-6.4-1.1-9.4-.8-20 1.9-26.8 30.6-9.4 39.6a27 27 0 0 0 17.3.4c1.9-1 2.6-1 3.3.2 1.6 2.5 1.1 5.2-1.2 6.4a43 43 0 0 1-19.8 1zm10.3-22.5c2.5-2.7 3.8-11.1 1.7-11.1-3 0-6.3 3.3-7 7-1 6 1.7 8.1 5.3 4.1zm53.1 17.2c-2.8-2.8-2.9-8.8-.2-11.3 1.2-1 3.8-1.8 6.3-1.8 3.7 0 5-.7 8.9-4.6 4.1-4.3 4.5-5.2 4.8-11.2.4-6.4.4-6.5 3.6-6.5 2.5 0 3.4.6 3.8 2.5.6 2.5.7 2.4 4.4-1.4 5.6-5.9 8.8-7.2 16.3-6.8 7.8.5 11 2.7 11 8 0 4.6-4.2 8-9.7 8-3.5 0-5.1 1.1-13.8 9.6-18.6 18-18 17.7-26.1 17.7-5.7 0-7.6-.5-9.3-2.2zm29-14.3a321 321 0 0 1 14.7-14.1c.9-.5 3.3-1 5.5-1 4.5 0 6.9-2.2 5.9-5.4-.6-1.7-1.7-2.3-4.8-2.4-10-.2-9.8-.4-24.2 13.9-12.9 12.8-13.8 13.5-18 13.5-4.7 0-7 1.5-7 4.5 0 2.8 3 4.2 9.2 4.2h5.3zm3.7 15.6c0-.5 1.7-2.5 3.8-4.6 3.8-3.6 4.5-6 1.7-6-.8 0-1.7-.6-2-1.3-.3-1 1.2-1.4 5.1-1.4h5.6v6c0 3.3-.5 6-1.1 6-.6 0-1.1-1.2-1.1-2.7 0-3.7-1-3.4-5.5 1-3.4 3.6-6.5 5-6.5 3zm151.4-3c-1-1.2-1-2-.1-2.9 1.4-1.4 4.5.7 4.5 3.1 0 2-2.6 2-4.4-.2zm11.7 1c-1.3-1.3-.8-4.7.8-4.7 1.4 0 2.8 2.2 2.8 4.4 0 1.2-2.5 1.4-3.6.3zm10.9 0c-.4-.4-.7-1.7-.7-2.8 0-3 3.7-2 4.1 1 .4 2.4-1.7 3.5-3.4 1.8zm10.8-1.1c-.4-1-.2-2.3.4-3 1.5-1.4 5 1.9 4 3.6-1.2 1.8-3.6 1.5-4.4-.6zm-38-7.6c-.4-.4-.8-1.7-.8-2.8 0-3 3.7-2 4.2 1 .3 2.4-1.8 3.4-3.4 1.8zm10.8-1c-1-2.7-.8-3.8 1-3.8 1.7 0 4 3.7 3 4.8-1.2 1.3-3.3.7-4-1zm11.3.1c-1.4-1.8-.6-3.9 1.6-3.9 1.4 0 2.8 2.3 2.8 4.5 0 1.6-2.9 1.2-4.4-.6zm11.6.9c-1.3-1.4-.7-4.8.8-4.8s2.9 2.3 2.9 4.5c0 1.2-2.6 1.3-3.7.3zM110.5 393c-6.5-3-8.6-9-5.3-15.4 2.2-4.2 7.2-6.8 11.8-6 3 .6 3.8.3 6-2.6 3.7-5 8.2-7 15.2-6.4 5.2.5 6.5 1 9.7 4.5 2.4 2.7 3.6 5 3.6 7.3 0 3.1.2 3.2 4.8 3.2 4 0 5.3.6 7.1 3 3.8 4.7 2.6 9.9-3.2 12.8-5 2.6-43.7 2.2-49.7-.4zm-341-5.6c-1.3-2 1.2-3.4 5.6-3 3 .2 4.4.9 4.6 2.2.3 1.6-.5 2-4.5 2-2.8 0-5.3-.6-5.7-1.2zm50.2 0c-1.3-2 .7-3.2 5.5-3.2 4.1 0 4.8.3 4.8 2.2 0 1.8-.7 2.1-4.8 2.1-2.7 0-5.1-.5-5.5-1zM21.2 381c-1.1-1.8 1.4-3.9 3-2.4 1.2 1.3.4 3.6-1.3 3.6-.5 0-1.3-.5-1.7-1.2zm4.5-6.8c-2-2.5-3.5-4.8-3.2-5.3.3-.5 2.4-.9 4.7-.9 3.5 0 4.7.7 7 3.7 2.6 3.5 3.2 3.7 7.5 3.2 2.6-.4 4.8-.8 5-1 .3-.2-.8-2-2.4-4-2.4-3.2-2.5-4-1.1-4.5 3.9-1.5 7-.5 10.4 3.2 3.3 3.6 3.9 3.9 8 3.2a26 26 0 0 0 4.7-1c.2-.3-.7-2-2-3.8-2.9-3.8-2.8-3.9 1.8-4.9 3-.6 4-.2 7.5 3.7 2.3 2.4 4.5 4.1 5 3.8.6-.3 1-.1 1 .4 0 1.5-2.5 2-22.4 4.5l-22.6 3.2c-5.2 1-5.2 1-8.9-3.5zm-244.8-.6c-3.3-3.3-3.9-5-2.2-6 1.4-1 9.2 6.6 8.3 8-1.1 1.9-2.7 1.3-6-2zm31.7 1.6c0-.8 1.6-3 3.5-4.8 2.7-2.7 3.7-3.1 5-2.2 1.1 1 .8 2-2.1 5-3.7 3.7-6.4 4.6-6.4 2zm146.4-2.4c-1-2.4 1-5.3 3.4-5.3 2.5 0 4.4 3 3.5 5.3-.9 2.3-6 2.3-7 0zm-161.3-6.7c.2-4 .6-5.2 2.1-5.5 1.6-.3 2 .5 2 5.2s-.4 5.5-2.2 5.5c-1.7 0-2-.8-1.9-5.2zm-9-27.5a33.3 33.3 0 0 1-16-13.8c-2.8-4.8-3.1-6.2-3.1-15s.3-10.4 3-14.8c4-6.8 7.9-10.3 15.3-13.7a29.8 29.8 0 0 1 33.7 6.6 25 25 0 0 1 8.3 16.4c2.1 11.8-2.6 24-11.7 30.4a32 32 0 0 1-29.5 4zm22.4-3.7c7-3.2 10.8-7.2 14.1-14.6 3.2-7 3.3-12.5.4-20.3a28 28 0 0 0-39.8-14.3 28 28 0 0 0-7.7 41.1 27.1 27.1 0 0 0 33 8.1zm-22.6-3.7a24.7 24.7 0 0 1-12.5-14.8c-.5-2.6-.2-3.6 1.8-5l2.5-2-2.5-1.3c-2-1-2.4-2-1.8-4.5 1.2-6 6.7-12.6 13.3-15.8l6.2-3 2 2.6 2.2 2.6 2-2.5c2-2.6 2-2.6 6.7-.7 5.6 2.2 7.8 4 12 9.7 3.7 5.1 4 9.7.8 12l-2.3 1.6 2.3 1.2c6.7 3.6-3 18.8-13.9 21.8-3.5 1-4.2.9-5.8-1.3l-1.9-2.4-1.7 2.4c-2.2 3-2.4 3-9.4-.6zm5-12.2c1.8-1.2 4.5-2.2 6-2.2 3.5 0 7.7-4 7.7-7.5 0-1.6 1-4.5 2.2-6.5 1.2-2 2-3.9 1.8-4.1-.3-.3-2.7.4-5.3 1.6a82.7 82.7 0 0 1-8 3c-2.3.7-3.5 2-4.2 4.3-.5 1.8-1.9 5.3-3 7.9-3 6.7-2.6 7.1 2.8 3.5zm4-6.8c-2.6-2.6 0-7 3.5-5.6 2.3.8 2.3 5.4 0 6.3-2.1.8-2 .9-3.4-.7zm226.8 27.2c-4-1.2-4.6-3.4-1.5-5.1 3.7-2 7.7-1.4 7.7 1 0 1.9.8 2.2 4.4 2.2 3.6 0 4.4-.3 4.4-2.2 0-2.9 5.3-3 8.8 0l2.6 2-4.2 1.7a44 44 0 0 1-22.2.4zm101-1a29.4 29.4 0 0 1-8-6.6c-2.7-3.4-3.4-5.4-3.7-11.2-.6-8.3 1.7-13.6 11.3-26.2a76 76 0 0 0 9.7-15.7c.2 0 1.4 2 2.5 4.7 1.2 2.5 4.3 7.6 7 11.1 9.3 12.3 11.2 16.6 11.2 24.7 0 6.3-.4 7.8-3.3 12-6.5 9.3-17 12-26.6 7.1zm13-12.6c.2-3.1.7-3.5 3.5-3.5s3.2-.4 3.2-3.3-.4-3.3-3.2-3.3c-2.8 0-3.3-.4-3.6-3.5-.3-3.1-.7-3.6-3.9-3.9-3.4-.3-3.5-.2-3.5 3.5 0 3.6-.3 4-3.2 4-3.2 0-4.8 2-3.7 4.8.3 1 2 1.7 3.7 1.7 2.8 0 3.2.4 3.2 3 0 4 .8 4.8 4.3 4.4 2.3-.3 2.8-1 3.1-3.9zm69.8 11.6a71 71 0 0 1-18.4-14.4c-1.3-1.9-1.8-6.5-2-21.7a128 128 0 0 1 .3-19.4c.4 0 2.1 1 3.8 2.2 6.5 4.7 12.9 4.2 19.2-1.3 3.5-3 4-3.3 5-1.6 1.4 2.6 8.9 6.2 12.7 6.2 1.7 0 5-1.2 7.2-2.7a29 29 0 0 1 4.5-2.8c.2 0 .5 8.9.5 19.7V321l-4.3 4.6a104 104 0 0 1-22 15c-.3 0-3.2-1.6-6.5-3.4zm13.3-8.2c3.6-2.2 8-5.7 9.7-7.7 3.3-3.7 3.3-3.8 3-15.7l-.3-12-6.7-.3c-4-.1-7.8-1-9.6-2.1-2.6-1.7-3-1.8-6.2-.1-2 1-6.3 2-9.8 2.4l-6.4.5V319.8l4 3.2c4.2 3.3 14.6 10 15.4 10 .2 0 3.3-1.7 7-4zm-9.2-6.5c-.4-.4-.8-2.5-.8-4.5 0-2.1-1-5-2.1-6.5-2.8-3.6-2.8-7 0-10 2.7-2.8 7.7-3 10.1-.3 2.3 2.4 2.4 8.2.3 10-.9.6-1.8 3.5-2 6.3-.2 4.2-.7 5.2-2.5 5.4-1.2.2-2.6 0-3-.4zm72.5 16.4c-2.7-1.9-3.3-6.8-1.1-9 3-3 9.6-.3 9.6 4.2 0 1.9-3.9 6.5-5.4 6.5a11 11 0 0 1-3.1-1.7zm68.6-.5c-2.3-2.2-2.4-2.9-2.4-28.9s0-26.6 2.4-28.8c2.2-2 3.8-2.2 23.2-2.2 19.5 0 21 .1 23.3 2.2 2.3 2.2 2.3 2.9 2.3 28.8 0 26 0 26.7-2.3 28.9-2.3 2-3.8 2.2-23.3 2.2-19.4 0-21-.2-23.2-2.2zm13.8-9c-.4-4.3-.6-4.6-4-5-4.4-.4-6.7 1.4-6.7 5.2 0 4 .6 4.5 6.2 4.5h4.8zm28.3 0-.3-4.6h-22.9l-.4 4.6-.3 4.7h24.2zm-28.7-13.3c0-4.4 0-4.4-4.6-4.7-4-.3-4.6 0-5.2 2.4a11 11 0 0 0 0 5c.6 2 1.5 2.2 5.3 2 4.5-.4 4.5-.4 4.5-4.7zm14.5-.3.4-4.6h-10v9.9l4.7-.3c4.6-.4 4.6-.4 5-5zm14.4.3v-5h-9.9v4.2c0 5.2.5 5.7 5.7 5.7h4.2zm-28.5-14c-.4-4.3-.6-4.6-4-4.9-4.4-.4-6.7 1.3-6.7 5.2 0 4 .6 4.4 6.2 4.4h4.8zm14.1 0c-.3-4.5-.3-4.6-4.7-4.6-4.3 0-4.3 0-4.7 4.7l-.3 4.6h10zm14.2 0c-.3-4.5-.4-4.6-4.7-4.6-4.4 0-4.4 0-4.7 4.7l-.3 4.6h10zM395 289v-4.3l-18.2-.3c-17.7-.3-18.3-.3-19.5 2-1 1.7-1 3 0 5l1.1 2.6 18.3-.3 18.3-.3zm-444.6 49.6c-4-11.3-4-11-1.2-14.6 5.9-7.5 8-9.9 8.5-9.4 3.2 4 6.3 8.7 6.2 10 0 .8-3 4.7-6.4 8.5-4.6 5-6.6 6.7-7 5.5zM-21 336c-4.9-5.5-18.4-22.7-21.6-27.5-7.1-10.7-6-22.2 2.8-27.6 9.8-6 21.8 1.4 21.8 13.6 0 4.4-4 14.6-5.8 14.6-.5 0-2.4-2-4.2-4.5l-3.3-4.4 2.7-4c3-4.5 3-5.7-1-7.6-2.4-1.2-3.5-1.2-6 0-1.6.8-3 2.3-3.3 3.3-.5 2.5 4.4 9.4 16.8 23.8l10.2 11.9-2.2 6c-1.3 3.3-2.6 6-3 6-.4-.1-2.1-1.7-3.9-3.6zm327.6 2.3c-1.7-1.7-1.7-6.6 0-8.3 2.3-2.4 7.3-1.6 8.7 1.4 1.8 4.1-.3 8.2-4.4 8.2-1.6 0-3.6-.6-4.3-1.3zm-444.3-3a13.2 13.2 0 0 1-7-16c2.7-8.3 13.4-11 19.5-5 6.1 6.2 5.2 14.6-2 19.5-3.9 2.6-6.8 3-10.5 1.5zm9.8-6c4.4-4.3 3.5-10.5-1.8-13.2-8.5-4.4-16 6.3-9.2 13.2 3.5 3.4 7.6 3.4 11 0zm-7.6-5c-1-1.4.3-3.2 2-3.2s3.1 2.6 2 3.7c-1 1-3.3.8-4-.5zm33.5 10c-7.6-4.8-8.7-14-2.3-20 7-6.5 18.7-2.4 20.2 7 1.6 10.5-9.2 18.4-17.9 13zm11-4.6c6-4.7 2.5-14-5.3-14-7.5 0-10.8 8.3-5.5 13.6 3.3 3.3 7 3.4 10.8.4zm-7.5-5.4c-.4-.7-.3-1.7.4-2.4 1.4-1.4 4.8-.2 4.2 1.6-.6 1.9-3.6 2.4-4.6.8zm132 10a403 403 0 0 1-.8-28c-.2-25.4-.1-27.2 1.7-27.6 2.6-.4 4 2 3.3 5.2-.5 2.2-.3 2.5 1.7 2 3.4-1 10 1.8 17.7 7.2 9.9 7 13.5 8.6 18.4 8.2 5-.5 5 .8-.1 4.2-4 2.8-12.8 3.4-19.6 1.4-5.4-1.5-11.8.5-16.1 5.1-3.5 3.7-3.6 4-3.6 13.5 0 8.6-.9 11.6-2.6 8.9zm-150.5-9a41 41 0 0 1-.8-7c-.3-5.2-.4-5.5-5.5-8.1-7.6-4-7.6-5.7 0-13.4 7.5-7.4 8.6-7.5 12.8-.8 2.2 3.4 3.5 4.4 5.8 4.4 1.7 0 3.6-.6 4.3-1.3 1.8-1.8 2.5-.8 3.2 4.5.5 3.5.3 4.4-1 4.4-1 0-2-1-2.2-2.2-.5-1.7-1.5-2.2-5-2.2-3.4 0-4.8-.6-6.4-2.7l-2-2.8-3 3.2-3 3.1 3.9 2.4 3.9 2.3-.3 8.4c-.3 7-.7 8.5-2.3 8.8-1 .2-2.1-.3-2.4-1zm396.8-1.8c-.5-.8-9.4-38-9.4-39.2 0-.1-2-.3-4.3-.3-5 0-6.8-1.8-3.8-4 2.5-1.8 9.6-1.9 11.2 0 .6.8 1.7 4 2.4 7.1l1.2 5.6h20.2c18 0 20.4-.2 21.7-1.9 1.2-1.7 1.6-1.7 3-.2 1.6 1.6 1.5 2.5-2.4 18l-.8 3.2-17.4.3c-9.5.2-17.8.8-18.3 1.3-.6.5-.7 2.2-.3 3.8l.7 2.7 17.1.3c14.4.3 17.2.6 17.2 2 0 1.3-3 1.6-18.7 1.9-10.3.2-19-.1-19.3-.6zm24.8-16.2c2.9-1 2-2.6-1.5-2.6-3.3 0-4.5 1.6-2 2.6l1.6.6 2-.6zm-17.9-1.5c0-.6-1.4-1-3.2-1-1.8 0-3.3.4-3.3 1s1.5 1.1 3.3 1.1c1.8 0 3.2-.5 3.2-1zm9.8 0c0-.6-1.4-1-3.2-1-1.8 0-3.3.4-3.3 1s1.5 1.1 3.3 1.1c1.8 0 3.2-.5 3.2-1zm18.6 0c0-.6-1.3-1-2.8-1-1.5 0-2.7.4-2.7 1s1.2 1.1 2.7 1.1c1.5 0 2.8-.5 2.8-1zm-30-6.5c0-1-1.2-1.8-3-2-2.9-.3-4.1 1.6-2.2 3.5 1.3 1.3 5.2.2 5.2-1.5zm10.9 0c0-2-4.7-2.9-6.2-1.3-1.8 1.7.1 3.6 3.3 3.3 1.7-.2 2.9-1 2.9-2zm10.2.7c1.6-1.9.5-2.9-3.1-2.9s-4.7 1-3.1 2.9a4.2 4.2 0 0 0 6.2 0zm9.7-1c.3-1.4-.3-1.9-2.3-1.9-3 0-4.5 1.5-3.4 3.3 1 1.8 5.3.8 5.7-1.4zm-427.4-8c-1-1-1.7-2.3-1.7-3.2 0-1.6 3-4.9 4.4-4.9 1.6 0 4.3 3.4 4.3 5.5 0 1.2-1 2.6-2 3.2-2.8 1.5-3 1.5-5-.6zm-118-36.6c-1-1-1.4-8.4-1.4-26.7 0-24 .1-25.4 2.1-26.5a12 12 0 0 1 4.8-1c2 0 2.9-.8 3.4-2.9.9-3.6 5.3-3.3 5.9.4.5 3.4 5.3 3.4 5.8 0 .5-3.7 5-4 5.9-.4 1 4 5.9 4 5.9 0 0-2 .5-2.6 2.7-2.6s2.7.5 2.7 2.8c0 2.4.5 2.7 3 2.4 2.2-.2 3.1-1 3.4-2.8.5-3.7 5.6-3.5 5.6.3 0 2.3.5 2.7 3.3 2.7 1.8 0 4.2 1 5.3 2 2 2 2 3.9 1.8 26.6-.1 13.5-.6 25-1 25.7-1.1 1.9-57.5 1.8-59.3 0zm53.3-29c.6-.5.8-4.8.7-9.6-.3-7-.7-8.6-2.2-9-1.4-.2-2 .6-2.2 3.3-.2 2.8-.8 3.6-2.5 3.6-1.5 0-2.3-.9-2.7-3.2-.4-2.6-1.2-3.4-3.5-3.6-2.6-.3-3 0-3.3 3.2-.2 2.8-.8 3.6-2.5 3.6-1.6 0-2.2-.8-2.5-3.5-.3-3-.8-3.5-3-3.5-2 0-2.7.5-2.7 2.5 0 1.5-.6 3.2-1.4 3.9-2.4 2-5 .2-5-3.3 0-2.6-.5-3.1-2.8-3.1s-2.7.5-2.7 3.1c0 3.5-2.7 5.3-5 3.3-.9-.7-1.6-2.4-1.6-3.9 0-2.9-2.6-3.5-3.7-.8-1 2.4-.8 14.9.2 16.4.5.7 2.5 1.5 4.6 1.7 7.6.7 42.9-.2 43.8-1.1zm40.8 28.6c-1.2-3.2-.7-3.8 3.1-3.8 3.9 0 4.4.6 3.2 3.8-.9 2.2-5.5 2.2-6.3 0zm36 1c-.4-.4-.7-1.7-.7-2.8 0-1.4.8-2 3.3-2 3.3 0 3.7.7 2.6 3.8-.7 1.7-3.8 2.3-5.2 1zm55.1-.7c.3-.7 2.5-1.5 5-1.7l4.6-.3v-8.7c0-7.9.1-8.6 2.1-8.6s2.2.7 2.2 8.6v8.7l4.6.3c2.5.2 4.7 1 5 1.7.3 1-2.5 1.4-11.8 1.4-9.2 0-12-.3-11.7-1.4zM149 247l-8.5-8.8-4 2a23.3 23.3 0 0 1-18.7-.6 23.7 23.7 0 0 1-6.4-39c4.7-4.4 8.8-6 15.8-6 8-.1 12.7 1.8 17.7 7.2 6.5 7 8.3 16 5 25.1l-1.5 4.4 9 9c8.3 8.3 8.7 9 7.8 12-.8 2.2-2 3-4.4 3.3-3 .3-4.4-.8-11.8-8.6zm-16.4-12c16-4 16.7-27.2 1-33.2-8.3-3.2-17.7.6-21.3 8.7a16.5 16.5 0 0 0 0 15.5c2.3 5 5.8 7.8 11.3 9.1l3.8 1 5.2-1.1zm-11.5-4.1a14 14 0 0 1-7.4-13.1l.4-4 1.3 4.5c1.8 6 10.1 13.4 14.1 12.6.8-.1 1.4.2 1.4.9 0 1.8-5.7 1.3-9.8-1zm80.6 23.5c-2.6-.9-3.8-2-3.8-3.5 0-4.6 11.4-6.9 13.6-2.7 1.5 2.8 4 2.8 5.7 0 1.7-2.6 6-2.9 11.3-.6 4.5 1.9 4.7 3.2.8 5.7-3.7 2.4-21.9 3.2-27.6 1.1zm159.6-.2c-1-2.7.5-3.9 5.4-3.9 2.5 0 5.2-.5 5.9-1.3.8-.8 1.3-5 1.3-11.2 0-8.6-.3-10.3-2.2-12-3-2.7-2.7-6.5.7-9.2 3.6-2.8 4.9-2.8 8.4 0 3.5 2.7 3.7 6.3.7 10-1.8 2.3-2.1 4.5-2.1 12 0 10.6.5 11.4 7.6 12 4 .2 4.9.7 4.9 2.5 0 2-.8 2.2-15 2.5-12.5.2-15.1 0-15.6-1.4zm-62.6-3.6c0-2.2-.5-5.9-1.1-8.1-1.1-4-1.2-4-3.7-2.5-2.3 1.6-2.6 1.5-4.1-.8-.9-1.4-2-3.3-2.3-4.4-.4-1-3.2-3.5-6.2-5.4-4-2.4-5.4-3.9-4.9-5.1l.9-2.7c.3-1.4-6.9-3.8-11.7-3.9h-4.3l2.6-2.9c1.5-1.5 4.9-4.1 7.6-5.7 4-2.4 6.3-2.9 13-3 7.3 0 9.2-.5 17.5-4.6 9.8-4.8 19-7.7 20.3-6.4 1.2 1.2-3.4 14.6-7.5 22-3 5.5-3.5 7.8-3.6 14.2-.2 8.3-2 13.6-6.7 19.6-4 5-5.8 4.9-5.8-.3zm.8-25.3c4.2-2.5 6-5.7 5.6-9.6-.3-2.5-1-3-4-3.3-4.8-.5-8.4 2-10 7-1.1 3.3-1 4.1.6 6 2.4 2.6 3.4 2.6 7.8 0zM24.3 252c-2.8-1.2-3.6-2.2-3.6-4.7 0-2.8 11.7-25.5 21.7-42.2 4.7-7.7 8.5-9.8 12.1-6.5 2.4 2.1 12.2 18.6 20.7 34.9l3.9 6.5c3.2 5.4 3.4 8.3.4 11-2.1 1.9-4.5 2-27 2.4-19.8.2-25.4 0-28.2-1.4zm29-9.5a4.3 4.3 0 0 0-.5-6.4c-3.4-2.8-7.7 2.6-4.8 6.1 1.6 2 3.5 2 5.2.3zm0-11c.7-.9 1.5-5.2 2-9.7.5-6.7.3-8.4-1.3-10-2.3-2.3-4.3-2.3-6.6 0-1.6 1.6-1.8 3.3-1.2 10.5.3 4.7 1 9 1.3 9.6 1 1.5 4.4 1.2 5.8-.5zm-192.8 16.4-.5-11.2c-.3-9.6 1.7-31.5 3.1-32.9.3-.3 10.2-.5 22-.5 17 0 21.7.3 22.4 1.5 1.5 2.7 3.3 22.2 3 32.5l-.4 10.3-24.8.3c-13.6.2-24.8.2-24.8 0zm27.3-6.8c0-1 .8-1.7 1.7-1.7 1.2 0 1.6-.8 1.4-2.4-.2-1.4-.8-2.2-1.3-2-.6.4-1.4-.5-2-1.8-1-2.8-4.2-3.4-4.2-.8 0 .9-1 1.6-2.1 1.6-1.6 0-2.2.7-2.2 2.7 0 1.6.6 2.7 1.5 2.7.8 0 1.8.8 2.1 1.7.9 2.1 5 2.1 5 0zm-16.9-4.4c0-2.7-.5-3.3-2.8-3.6-3.8-.4-6 2.2-4.3 5.3.9 1.6 2.1 2.2 4.2 2 2.4-.4 2.9-1 2.9-3.7zm35.3 1.4c1.4-3.6-2-7-5.2-5.3-2.2 1.2-3.2 5.4-1.6 7 1.7 1.7 6 .7 6.8-1.7zm-.4-12.8c1.1-2-.8-16.4-2.4-18-1.3-1.3-5.2-1.6-18.1-1.6-9.1 0-17.1.4-17.8.8-1.5 1-4.2 17.1-3.1 18.8.9 1.5 40.5 1.5 41.4 0zm-17-3.1c0-1.9 4.2-4.5 7-4.5 1.6 0 4 1 5.2 2.2 2.7 2.8 1.8 4.3-1 1.7-2.5-2.2-6-2.3-7.8-.1-1.5 1.8-3.3 2.1-3.3.7zm324 22.4c-4.9-7.8-14.8-26.2-15.7-29.4-1.6-5 .8-12 5.7-16.7 2.8-2.7 4.3-3.2 10.6-3.5 6.3-.4 7.8 0 11 2.1 4.8 3.3 7.7 9 7.7 15 0 4-1.3 7.2-8.4 19.3-4.6 8-8.7 14.6-9.2 14.6-.4 0-1.1-.6-1.6-1.4zm8-26.4a9.3 9.3 0 0 0 0-13.1c-3.8-3.8-8.6-3.6-12.7.5s-4.1 8 0 12.1c4 4.1 8.9 4.3 12.7.5zm55 22c0-2.4 2.2-8.4 3.2-8.4 1.3 0 6.5 4.4 6.5 5.5 0 1.2-2.8 2.7-6.8 3.7-2.1.5-3 .3-3-.8zm79.2-1c-2.7-2-6.3-12.5-6.2-18.3 0-9.6 7.7-20.7 17.2-24.7 5.7-2.4 16.8-2 22.6.8 9 4.3 15.7 15.2 15.7 25.2 0 9-6.8 20.7-10.1 17.3-.9-.8-.5-2.5 1.2-6 4.5-9.4 2.3-21.9-5-28-10-8.5-23.9-6.4-32.3 4.9-3.4 4.6-3.7 15.6-.6 22 2.1 4.4 2.2 5.3.9 6.6-1.3 1.3-2 1.3-3.4.2zm-367.3-5.6c-.6-1.5-2.7-1.8-12.7-1.8h-12v-6.5c0-3.6.5-6.6 1-6.6.7 0 1.2-.7 1.2-1.6 0-.9 1-1.6 2.1-1.6 1.3 0 2.2.7 2.2 1.6 0 1.3 1.7 1.6 8.5 1.6 5.2 0 9-.5 9.8-1.3 1-1 2.4-.3 6 3.3l4.6 4.6-5 5c-4 4-5.2 4.6-5.7 3.3zm374.2-3c-3.2-3.5-3.1-12.9 0-18.1 2.6-4.1 9.4-7.9 14.3-7.9 9.3 0 17.2 7.9 17.2 17.2 0 7.3-3 12.1-6.4 10-1-.5-1-1.9 0-5.8 1.7-6.8-1.1-12.6-7-14.6-8-2.7-16 4.1-14.4 12.1 1.8 9 .5 11.6-3.7 7zM-59.3 210l-4.1-4.3 4-5c4.4-5.3 5.5-5.9 6.4-3.3.5 1.2 2.6 1.6 8.9 1.6 7.8 0 8.3-.1 9.3-2.7.5-1.5 1.5-2.7 2-2.7 2 0 4.5 7 4.5 12.7v5.8h-12.5c-7.7 0-12.6.4-12.6 1.1 0 2-1.7 1.1-5.9-3.2zm-72.9-9.5c-1.4-1.5-.7-4.7 1.5-5.8 1.3-.7 8-1 17-.9 12.3.3 15 .6 16 2 .6 1 .8 2.6.4 3.6-.6 1.6-3 1.8-17.4 1.8-9.2 0-17-.3-17.5-.7zm10-2.8c.3-1.6-.5-2-4-2-4.3 0-5.9 1.6-3.8 3.7 1.6 1.6 7.4.2 7.8-1.7zm23 .2c0-1.8-.7-2.1-4.3-2.1-2.9 0-4.3.4-4.3 1.4 0 2.3 1.1 3 5 3 3 0 3.7-.5 3.7-2.3zm-100-28.6a398 398 0 0 1-.3-59.5c1.5-2.3 4.5-.6 4.5 2.6 0 2 .5 2.7 2.2 2.7 3.8 0 10.7 4.3 12.5 7.7 2.4 4.6.6 7.6-4.3 7.6-3 0-4.1-.7-5.7-3.3-3.3-5.5-4.9-5.1-4.5 1.2l.3 5.5 6 2c7.8 2.7 11 6.3 11 12.6 0 4-.7 5.4-4 8.6a20 20 0 0 1-8.6 5.1c-4.4 1-5 1.6-5 4.3 0 3.2-2.2 4.8-4.1 2.9zm9-16.7c2.3-2.3 2.2-5.6-.4-7-3.6-1.9-4.4-1.2-4.4 3.8 0 5.3 1.6 6.4 4.8 3.2zm55.1 16c-2-2.1-2.2-3.7-2.2-21.8 0-18.8 0-19.5-2.2-20-1.5-.4-2.2-1.3-2-2.6.3-1.5 1.6-2 5.6-2.3 5-.4 5.2-.4 5.2-4 0-2.1.5-5 1.2-6.5 1.3-2.8 1.4-2.8 14-2.8 14 0 15.3.5 15.3 6.1 0 6.1.8 7 6.6 7 5 0 5.4.1 5.4 2.7 0 2-.6 2.7-2.1 2.7-2 0-2.2 1-2.5 20.3-.3 18.5-.5 20.3-2.5 21.8-1.6 1.1-6.2 1.5-19.8 1.5-16.4 0-18-.2-20-2.2zm10.7-22.4c.2-12.9 0-17.5-1-18.1-3.5-2.1-4.2 1.2-4.2 18 0 9.1.3 17 .7 17.4.4.4 1.5.6 2.5.4 1.4-.3 1.7-3 2-17.7zm12 0c.2-12.9 0-17.5-1.1-18.1-3.4-2.1-4.2 1.2-4.2 18 0 9.1.4 17 .8 17.4.4.4 1.5.6 2.5.4 1.4-.3 1.7-3 2-17.7zm12 .7c.2-17-.4-20.3-3.7-19-1.3.4-1.6 3.8-1.6 17.7 0 9.4.4 17.4.8 17.9.4.4 1.5.6 2.4.4 1.5-.3 1.8-3 2-17zm-5.3-28.5c0-3.9-2-4.7-10.8-4.2-6.1.4-8.6 2.3-7.4 5.7.6 1.4 2.4 1.8 9.5 1.8h8.7zm49.6 50.8c-1.8-1.3-2-3-1.3-20.8l.7-19.4-2.7-2.1a11 11 0 0 1-3.3-5.7c-1.9-10 7.1-16.3 14.5-10 2.5 2.2 3 3.5 3 7.7 0 4.3-.5 5.6-3.1 7.8-3 2.6-3.1 3-2.4 9.5 1.3 12.4 1.9 25 1.2 28.7-.8 4.4-3.8 6.3-6.6 4.3zm24.3.3c-1.7-1-2-3-2-15.1 0-8.2.5-14.4 1.1-14.8.6-.3 1.1-3 1.1-5.9 0-4.4-.4-5.5-2.7-7-2.5-1.7-2.7-2.5-2.7-10 0-4.7.4-8.1 1-8.1.7 0 1.2 2.9 1.2 6.5 0 5.8.2 6.6 2.1 6.6 2 0 2.2-.8 2.2-6.6 0-3.6.5-6.5 1.1-6.5.6 0 1.1 2.9 1.1 6.5 0 5.8.2 6.6 2.2 6.6s2.2-.8 2.2-6.6c0-3.6.4-6.5 1-6.5.7 0 1.1 3.4 1.1 8.1 0 7.6-.2 8.3-2.8 10-2.6 1.8-2.7 2.2-2 8 .3 3.3.9 12.1 1.2 19.6.4 12 .3 13.8-1.4 15-2.3 1.7-2.6 1.7-5 .2zm22.8 0c-1.6-1-1.8-4.3-1.8-27.7V115l2.8-3.3c1.5-1.7 3.2-3.2 3.6-3.2 1 0 2.7 56.5 1.7 59-.9 2.2-4 3.1-6.3 1.8zm57.7.5c-.4-.4-.7-1.6-.7-2.6 0-1.2-2-2.4-6-3.6A26.4 26.4 0 0 1 26 147c-1-3.7-1.7-4.6-3.8-4.6-3.7 0-3.5-5 .3-6 1.5-.3 2.7-1.4 2.7-2.4 0-3.1 5.7-12.3 9.6-15.2 2-1.6 5.8-3.5 8.2-4.2 3.3-1 4.6-2 4.9-3.7.5-3.3 5.3-3.2 5.8 0 .3 1.8 1.4 2.7 3.8 3.2 8 1.6 17 10.4 18.5 18 .3 2 1 3.8 1.6 3.9l2.4.2c.7.1 1.5 1.5 1.7 3.2.2 2.4-.1 3-2 3-1.2 0-2.5.8-2.9 1.9-3.2 10-9 16.7-17.4 19.7-4 1.4-5.4 2.5-5.7 4.3-.3 2.3-3.3 3.3-4.9 1.7zm9.4-11.8c7.8-2.8 12.8-10 12.8-18.4 0-12-8.5-20.6-20.3-20.6a20.1 20.1 0 0 0-18 29c4.8 9.8 15 13.8 25.5 10zM48 144.5c0-1.4-.7-2.1-2.2-2.1-1.6 0-2.2-.8-2.2-2.8 0-2 .6-2.7 2.2-2.7s2.2-.7 2.2-2.7c0-2.2.5-2.7 2.7-2.7 2 0 2.7.5 2.7 2.2 0 1.4 1 2.6 2.2 2.9 3 .8 3 5.8 0 5.8-1.4 0-2.2.7-2.2 2.1 0 1.6-.7 2.2-2.7 2.2s-2.7-.6-2.7-2.2zm148.5 24c-.7-2.6-4.3-3.9-6.3-2.2-1.8 1.6-3.1-.2-2.2-3 .9-3-.4-5.7-2.8-5.7-2.8 0-2.7-3.3 0-4 2.7-.7 4-4.3 2.3-6.2-1.6-2 1.2-4.5 3-2.7 1.6 1.6 5.3.2 6-2.4.7-2.7 3-2.7 3.7 0 .7 2.4 3.5 3.7 6.1 2.7 2.6-1 4.4.5 3 2.3-1.7 2-.5 5.6 2.2 6.3 2.7.7 2.8 4 0 4-2.4 0-3.6 2.5-2.7 6 .7 2.8-1.5 5-2.8 2.8-1.2-2-5.1-.4-5.8 2.2-.7 2.7-3 2.7-3.7 0zm5-10c3.2-3.3 0-8.2-4.8-7-2 .6-2.7 1.4-2.7 3.9 0 4 4.5 6 7.4 3zm81.9 10.5a30.7 30.7 0 0 1-2.8-58.1 30.9 30.9 0 0 1 39.6 41.3 31.2 31.2 0 0 1-36.8 16.8zm10.7-5.8c2.4-1.5 1-5-2-5s-4.5 3.5-2 5c1.8 1.2 2.2 1.2 4 0zM274 140.6c.8-2-1-4.8-3.2-4.8-2 0-3.9 2.8-3.1 4.8.8 2.3 5.4 2.3 6.3 0zm27.6-4c3.1-3 5.7-6.4 5.7-7.4 0-3.7-3-2.8-8.6 2.5L293 137l-7.4-7.2c-7.6-7.3-10.2-8.5-11.4-5.4-.5 1.2 1.8 4.2 7.3 9.8 10.2 10.2 12 10.4 20 2.4zm14.5 3c0-3.4-2.9-4.7-5.2-2.4-2.3 2.3-1 5.2 2.4 5.2 2.2 0 2.8-.6 2.8-2.8zm-21.2-19c1.2 0 .3-4.3-1.2-5.5-1.3-1-2-1-3.3 0-3.2 2.7-1.3 7.1 2.6 6l1.9-.5zm-189.5 44.8a8.6 8.6 0 0 1-1.8-5c0-4 6.3-10.4 10.2-10.4h2.8v-13.7c0-22.6 1.8-24.5 23.1-24.4 25.2 0 26 .8 26 27.6 0 20-.7 22.6-6.6 26.1-4 2.4-6.8 2.3-9.2-.3-4.2-4.6 2-15.3 8.8-15.3h2.6v-29.2l-3.4-3c-5.2-4.3-7-3.3-7 3.9v6l-12.7.5c-16.8.7-16.5.4-17.3 17.7a94 94 0 0 1-1.4 15.2c-1.1 2.5-7.4 6.3-10.2 6.3-1.2 0-3-.9-4-2zm-317.2-4c-5-1.7-10.3-6.5-11.2-10a5 5 0 0 1 1.3-4.7 6.3 6.3 0 0 1 10.7 2.6 8.5 8.5 0 0 0 3.2 4.3c2 1.3 2.5 2.4 2.1 5.5-.5 4.5-.4 4.4-6 2.4zm559-3.3c-1.4-1.4-1.7-4.4-1.7-15.6 0-14.2.6-16.5 4.4-16.5 1 0 2.2-.7 2.5-1.6.8-2.2 7.7-2.2 9.8 0 2.6 2.6 8.4 2 13.3-1.4 3.7-2.5 5.4-3 12-3 7 0 8 .4 13.8 4.1l6.3 4.2v14c0 11.3-.3 14.4-1.7 15.8-2.6 2.6-56.1 2.6-58.7 0zm45.5-6.3c11-4.6 11.4-19.7.7-25.3-12-6.1-24.6 8-17.5 19.6 2 3.2 4.5 5 8.8 6.5 2.8.9 4.3.7 8-.8zm-9.8-3.5a10.6 10.6 0 0 1-5.8-9.1c0-1.6.8-2 4-1.9 4.8.2 7-2.5 5-5.9-1.2-1.8-1.2-2.3.2-2.8 2.3-.9 8 1.6 9.9 4.3 3.5 5.1.8 13.8-5 15.9-4.4 1.5-4.1 1.5-8.3-.5zm-19.4-13.6v-4.9h-13.1l-.4 3.7c-.6 6.2.2 6.8 7.2 6.5l6.3-.4zM221.2 149c0-2.6-4-3-5-.6-1 2.7-4.2 0-4.2-3.4 0-2.7-.4-3-3.3-3-3.3 0-5.1-3-2.8-4.4 2.2-1.3 1.3-4.8-1.3-5.1-3.3-.5-3.3-4.6 0-5.1 2.5-.3 3.7-4.6 1.4-4.6-1.2 0-1.5-3.5-.4-4.6.4-.4 1.5-.3 2.6.3 2.5 1.3 4.8-1.2 3.8-4.3-1-3 2.5-4.4 4.4-1.9 1.6 2.2 4.4 1.4 5.2-1.5.7-2.8 5.1-2.9 5.1 0 0 2.7 3.4 4 5 1.7 1.7-2.3 5-1 4.2 1.8-.9 2.7 1.2 5.2 3.8 4.5 2.4-.6 4 1.6 2.4 3.3-2 1.9-1.4 4.8 1 5.4 3 .8 3 5.2 0 5.2-2.4 0-3.2 3.6-1 4.9 2.3 1.5.4 4.3-2.9 4.3-2.8 0-3.2.4-3.2 3 0 3.6-3.2 6.2-4.3 3.5-1-2.5-5-2-5 .6 0 1.6-.7 2.2-2.7 2.2s-2.8-.6-2.8-2.2zm7.9-13.8c2.8-2.6 2.6-8.5-.5-10.7-3.1-2.2-6.6-2.1-9.3.3-3.4 3-3.8 6-1.3 9.3 2.7 3.4 8 4 11 1.1zm-441.2 5a13 13 0 0 1-7.8-17.8c1.2-2.8 8.7-7.2 12.1-7.2 2.9 0 2.6 7.2-.3 8.7-3 1.6-2.8 5 .3 7 2 1.4 2.4 2.5 2 6-.4 4.7-.7 4.9-6.3 3.3zm320.3-56.2c-.8-.3-1.4-2-1.4-3.8V77l20.5.3 20.4.3v6.6l-19 .2c-10.6 0-19.8 0-20.5-.4zm99.2-3c-2.6-2.3-3.1-3.6-3.6-10-.4-6-1-7.6-2.4-7.9-1.2-.2-2 .3-2 1.5 0 1-.6 1.6-1.3 1.3-1.8-.6-2.4-14.3-.8-19.6 1.7-5.8 7-11.5 11.4-12.3 3.5-.7 3.7-1 4-5.7.5-6.9 2.9-7.4 3.3-.7.3 4.6.7 5.3 3.3 6 4.6 1.2 9.1 5 11 9 2.1 4.3 2.6 23.6.7 23.6-.6 0-1.4-.8-1.7-1.7-.4-.8-1.3-1.6-2.2-1.6-1 0-1.5 1.6-1.5 6 0 3.4-.7 7.5-1.5 9.1-3 5.9-11.6 7.4-16.7 3zm10.5-1.2c3.7-1.9 4.4-3.5 4.4-9.9 0-4-.3-4.8-2-4.8s-2.1 1-2.6 5.5c-.3 3-1.3 6.3-2.3 7.4-3.3 3.6-2.3 4.3 2.5 1.8zm-14-26.2c0-6.5.2-7.5 3.1-10.4 2.1-2.1 4.3-3.2 6.5-3.2 8 0 12.1 5 12.1 14.6 0 4.7.4 6.1 1.6 6.1 2.2 0 2.3-11.6.2-16.7-4-9.6-17.8-10.8-24.4-2-2.4 3-3 5.2-3.4 11.3-.4 7-.3 7.4 2 7.4 2 0 2.2-.6 2.2-7.1zm57.3 26c-2-2 3.3-2.5 31-2.5 26.3 0 30.4.2 30.4 1.6 0 1.4-4.1 1.7-30.3 1.7-16.7 0-30.7-.4-31-.7zm86.5-2.1c-1.9-2.5-2.2-4.4-2.2-13.6V53H363.8L366 57c4.9 8.3 15.4 8.4 20.7.2l2.6-4h18.1v10.7c0 9.2-.2 11.1-2.2 13.6l-2.2 2.9H350zm-238-3.3c-.4-.4-.7-11.2-.7-24 0-29.5-1.2-27.6 18.5-27.6 16.9 0 17.5.3 17.5 9.9 0 5.9.3 6.8 3.8 10.5 3.7 4 3.8 4.2 3.8 13.5 0 7.2.4 10 1.7 11.2 2.1 2.1 2.1 2.1 4.2 0 1.3-1.3 1.7-4 1.7-12 0-9.7-.1-10.3-3.2-13.9-2.5-2.7-3.3-4.8-3.3-7.8s-.8-5-3-7.3c-2-2.1-2.5-3.4-1.7-4.2.8-.8 3 1 7.3 5.9l6.1 7v16c0 14.4-.2 16-2.2 18-2.6 2.7-5.7 2.9-8 .5-1.4-1.3-1.8-4-1.8-11.8 0-8.4-.3-10.4-2-12-1-.9-2.3-1.7-2.7-1.7-.4 0-.7 6.9-.7 15.2v15.3h-17.3a121 121 0 0 1-18-.7zM139 38.3v-8.7H116l-.3 7.5c-.2 4.1-.1 8.2.2 9 .5 1.2 3 1.5 11.8 1.2L139 47zm19.2-3c-1.8-1.8-2.9 0-1.2 2 1 1.2 1.6 1.4 2 .5.2-.7-.2-1.9-.8-2.5zm119.2 35.5a26 26 0 0 1-8.2-16.4v-3.6H292c21.8 0 22.7.1 23.3 2.2.3 1.2 1.3 2.2 2.3 2.2.9 0 2.4 1.5 3.4 3.3 1.5 2.9 1.5 3.6 0 6.4-1.6 3.2-4.3 4.4-9.7 4.4a12 12 0 0 0-6.3 2.8c-3 2.5-4.2 2.7-13.4 2.7h-10zm41.3-7.2c.8-1.4.8-2.4 0-3.8-1.9-2.9-4.5-3-5 0-.4 1.3-1 3.4-1.5 4.5-.7 1.7-.3 1.9 2.2 1.6 1.7-.2 3.6-1.2 4.3-2.3zm56.2-7.9c0-2.1-.5-2.7-2.7-2.7-1.7 0-2.8-.6-2.8-1.6s1-1.7 2.7-1.7c2 0 2.7-.6 3-3 .4-3.8 2.4-3.8 2.9 0 .2 2.4.9 3 3 3 1.6 0 2.6.7 2.6 1.7s-1 1.6-2.7 1.6c-2.2 0-2.7.6-2.7 2.7 0 1.7-.7 2.8-1.7 2.8s-1.6-1-1.6-2.8zm-29.4-12c0-7 2.5-9.2 10.9-9.2 6 0 6.5-.2 6.5-2.5 0-5.6 1.8-6.3 14.2-6l11.4.3.6 3.8c.5 3.8.5 3.8 7 4.4 9.2.7 10.6 1.8 11.2 8.6l.6 5.5H398c-9.4 0-9.8 0-11-2.7-1.4-3.1-7.3-7-10.6-7-3.2 0-9.1 3.9-10.5 7-1.2 2.6-1.7 2.7-10.9 2.7h-9.6zm40.3-12c0-2.6-.1-2.7-9.3-2.7-9.1 0-9.2 0-9.2 2.8 0 2.7 0 2.7 9.2 2.7s9.3 0 9.3-2.7zM291 42.5c0-2.5-.6-5.8-1.2-7.3-1-2.2-.9-3.3 1-6.3l2.3-3.6V30c0 2.5.6 5.5 1.3 6.6 1 1.5.7 2.8-1 6.2L291 47v-4.6zm-10.8.8c.2-1.5 0-4.6-.6-6.9-.6-2.9-.4-5 .5-7 1.4-3 1.5-3 2.5 2.5 1.4 7.7 1.2 10.3-.8 12.3-1.7 1.7-1.8 1.6-1.6-.9zm21.4-2.4a57 57 0 0 0-1.4-7c-.4-1.4.1-3.1 1.6-4.8l2.2-2.7-.1 3.3c0 1.8.3 5 .7 7.2.6 2.9.3 4.7-.8 6.3-1.6 2.3-1.6 2.2-2.2-2.3z" fill="gray"/><path d="M68.9 3.6c-4 0-7.5 1-9.5 2.7-1.1 1-1.3 1.2-1.5 3.2-.4 3.6-.9 3.6-5.6.3a31.2 31.2 0 0 0-19.1-5.6c-6.1.4-10 2-14 6a27.9 27.9 0 0 0-3.9 4.8c-1.3 2.2-3.9 8-4.2 9.4-.3 1.2.4 1.8 2.4 2.2 4.9.8 4.4 2.5-1.9 6.6a22.1 22.1 0 0 0-5.2 34.7 20 20 0 0 0 4.7 3.6c2 1 6 2.5 7.8 2.8 1.7.3 7 0 8.5-.6a22 22 0 0 0 7.8-4.4c3.4-3.4 4.5-6.8 5-15.9.3-7.8.7-9.8 2-12.4 1.7-3.4 4-4.9 7.9-5.2 3-.2 5.3.5 6.9 2 2 2.1 3 5.8 3.9 14 .8 8.4 1.6 11.2 3.7 12.8 1 .7 1.5.8 3.6 1 5.5.2 14.3-2.7 19.4-6.3a32.1 32.1 0 0 0 11.6-17.7c1-3.6 1-11.2.1-14.8-1.4-5.4-4-10-8-14a32.3 32.3 0 0 0-22.5-9.2ZM50 40.1c-1.4 0-2.4.4-3 1.2-1 1.2-1.8 7.1-2.7 19A1853 1853 0 0 0 42 94.6V96h17.2V95l-.5-4.6-.4-6.4c0-3.3.3-3.7 4.8-5.8 4.6-2.2 5.7-3 5.5-4C68.3 73 67 72 65.9 72c-.4 0-2.4.5-4.3 1.1-2.2.7-3.5 1-3.6.8-.2-.2-.6-3.8-1-8.1-1.5-18.1-2.4-22.6-4.7-24.8-.7-.8-1.2-1-2.3-1Z"/></svg>