<svg xmlns="http://www.w3.org/2000/svg" width="378" height="378" viewBox="0 0 100 100"><path d="M-284 418.8c-4-4.1-3.6-6 1.3-5.7 4.5.3 7-1.1 6.1-3.5-.4-1.2-2-1.7-5.3-1.7-4.6 0-4.7-.2-8.2-6.5-5.5-10-4.7-17.9 2.3-22.7 7-4.8 18.1-2.2 21.9 5.1 2.6 5 2 9.6-2.1 17a24.5 24.5 0 0 0-3.8 11.1c0 3.3-.8 5-3.1 7.2-3.9 3.7-5 3.7-9.1-.3zm0-32.5c1.8-1.7 4.9-3.6 6.9-4.2l3.6-1.1-3-.9c-6.2-1.7-13.9 4.6-13.9 11.5 0 4.2 1.5 4.9 2.5 1.2.4-1.8 2.2-4.7 4-6.5zm409.4 30.3a52.6 52.6 0 0 0-11.6-10.4c-6.5-4.4-7.6-5.5-7.3-7.9.5-4 3.3-5.4 7.7-3.6 2 .8 4.8 1.5 6.3 1.6l2.7.1.5-16.4c.6-17.1 1.4-20 5.5-20 3.6 0 5.4 4.2 5.4 12.4 0 4.2.4 7.2.9 6.5 1.8-2.7 4.7-2.6 7.5.2 2 2 3.1 2.5 4 1.6 1.8-1.8 4.8-1.4 6.5 1 1.1 1.7 2.3 2.1 4.2 1.7 3.9-1 6.2 2.2 7 9.8.8 7.8-.9 17.6-4.1 24l-2.4 4.8h-28.8l-4-5.4zm-184 2.6c-.4-.5-.7-7-.7-14.8 0-13 0-14 2-14 1.4 0 3-1.6 4.6-4.3 2.2-4 3-4.4 6.6-4.4 4.6 0 4.8.4 2.6 4.4-2.4 4-2.1 4.3 3.2 4.3 4.5 0 5.1-.3 7.7-4.3 2.4-4 3.2-4.4 7-4.4 4.8 0 5.2.7 2.8 3.9-2.8 3.7-2 4.8 3 4.8 4.2 0 4.8-.3 7.3-4.3s3-4.4 7.4-4.4h4.8l-2.3 3.7c-3 4.8-3 5 1.6 5h3.8L2.5 405l-.3 14.4-30 .3a332 332 0 0 1-30.8-.4zm107.5-1c-.3-.8-.2-2 .2-2.7 1-1.5 3.8.7 3.8 2.9 0 2-3.2 1.9-4-.1zm11 0c-.4-.8-.3-2 0-2.7 1-1.5 3.9.7 3.9 2.9 0 2-3.2 1.9-4-.1zm11.1 0c-.8-2.2 2.5-3.5 3.7-1.5.5.8.7 1.8.4 2.3-1 1.5-3.4 1-4-.8zm11.7 0c-.4-1-.4-2 0-2.3 1-1.1 4 .6 4 2.3 0 2.2-3.2 2.2-4 0zm110.1.1c-1-2.4.3-5 2.7-5.7 2.1-.6 6.7-10.6 6.7-14.6 0-1.2-2.4-3.8-6-6.4-4.7-3.5-6.5-4.3-9-3.8-3.9.8-6.8-2-5-4.8a4.2 4.2 0 0 1 7.2-.2c1.4 2 2.5 2.3 9.5 2l8-.4 2.4-7.5c2-6.4 2.2-7.8 1-9-1.8-1.8-1.8-1.8-1-4 1-2.3 5.3-2.3 7-.1 1.2 1.3 1.1 2-.2 3.5-1.6 1.7-1.5 2.6.7 9.5l2.5 7.6 8 .4c6.9.3 8 0 9.4-2 2-2.7 5.4-2.8 6.8-.1 1.7 3.1-1 6-4.7 5.2-2.3-.6-4 .1-8.8 3.6-3.6 2.7-6 5.3-6 6.5 0 4.1 4.5 13.8 6.9 14.8 1.5.7 2.3 2 2.3 3.8 0 2.3-.5 2.7-3.2 2.7-2.8 0-3.4-.4-3.6-3-.3-2.2-2-4.2-6.3-7.4a30.4 30.4 0 0 0-7-4.3c-.7 0-3.8 2-7 4.3-4.3 3.2-6 5.2-6.3 7.4-.3 2.4-1 3-3.3 3.4-2 .2-3.3-.3-3.7-1.4zm22.6-20.1c2.2 1.1 2.3 1 1.7-1.4-.5-1.9 0-3 1.7-4.4l2.5-2h-3.6c-2.8 0-3.5-.4-3.5-2.1 0-1.2-.5-2.2-1.1-2.2-.6 0-1.1 1-1.1 2.2 0 1.7-.7 2.1-3.5 2.2h-3.6l2.4 1.9c1.8 1.4 2.3 2.5 1.8 4.4-.6 2.4-.5 2.5 1.6 1.4 1.8-1 3-1 4.7 0zM294 413l-6.8-6.8-6.3 6.2c-6.4 6.4-9.3 7.6-10.5 4.5-.4-1.1 1.5-4 5.9-8.5l6.5-6.8-7.6-7.4c-9.2-9-9-10.4 2-10.4h7.3l8-8.1c6.9-6.8 8-8.4 6.8-9.8-1.5-1.8-.8-3.9 1.4-3.9 2.1 0 25.7 23.3 25.7 25.4 0 2.4-2.8 3.6-4.7 2-1-.9-3.3.7-9.2 6.7l-7.8 7.9-.3 7.6c-.2 5.7-.7 7.7-2 7.9-.9.2-4.7-2.8-8.4-6.5zm14-21.2c4.4-4.2 6.4-7 6.2-8.4-.6-3.8-2.9-3.1-9.1 2.7-6.6 6.3-8.6 9.1-7.6 10.8 1.4 2.2 4 .9 10.4-5.1zm-511.4 25.7c-5.4-1.6-12.7-8-15.2-13.5-1.1-2.5-2-7-2-10.5 0-11.7 5.2-21.1 15-26.9 4.5-2.5 6.3-3 13.9-3 8 0 9 .3 13.7 3.6a23.3 23.3 0 0 1 8.7 29.2c-3.5 7.8-13.4 11.7-18.2 7.2-2-2-2.2-2-5.3 0-4.5 2.7-8.6 2.5-12.2-.6-2.8-2.4-3-3.4-3-9.2 0-5 .5-7.3 2.2-9.6a20 20 0 0 1 12-8c4-1 11.7 0 13.2 1.5.4.4.1 4.7-.5 9.7-1.4 10.5-.5 12.7 3.6 8 5.9-6.7 1.8-22-6.7-24.7-2.2-.7-6.4-1-9.4-.8-20 2-26.8 30.6-9.4 39.6a27 27 0 0 0 17.3.4c1.9-1 2.6-1 3.3.2 1.6 2.5 1.1 5.2-1.2 6.4a43 43 0 0 1-19.8 1zM-193 395c2.5-2.7 3.8-11.1 1.7-11.1-3 0-6.3 3.4-7 7-1 6 1.7 8.1 5.3 4.1zm53.1 17.2c-2.8-2.7-2.9-8.8-.2-11.2 1.2-1 3.8-1.8 6.3-1.8 3.7 0 5-.8 8.9-4.7 4.2-4.2 4.5-5.1 4.8-11.1.4-6.5.4-6.6 3.6-6.6 2.5 0 3.4.6 3.8 2.5.6 2.5.7 2.5 4.4-1.4 5.6-5.9 8.8-7.2 16.3-6.8 7.8.5 11 2.8 11 8 0 4.6-4.2 8-9.7 8-3.5 0-5.1 1.2-13.8 9.6-18.6 18-18 17.7-26.1 17.7-5.7 0-7.6-.4-9.3-2.2zm29-14.3a321 321 0 0 1 14.7-14.1c.9-.5 3.3-1 5.5-1 4.5 0 6.9-2.2 5.9-5.4-.6-1.7-1.7-2.2-4.8-2.3-10-.3-9.8-.5-24.1 13.8-13 12.8-14 13.5-18 13.5-4.8 0-7.1 1.5-7.1 4.6 0 2.7 3 4 9.2 4.1h5.3zm3.7 15.6c0-.4 1.7-2.5 3.8-4.5 3.8-3.7 4.5-6 1.7-6-.8 0-1.7-.6-2-1.4-.3-1 1.2-1.4 5.1-1.4h5.6v6c0 3.3-.5 6-1.1 6-.6 0-1.1-1.2-1.1-2.7 0-3.6-1-3.4-5.5 1.1-3.4 3.6-6.5 5-6.5 3zm151.4-3c-1-1.2-1-2-.1-2.8 1.4-1.5 4.5.6 4.5 3 0 2-2.6 2-4.4-.1zm11.7 1c-1.3-1.3-.8-4.7.8-4.7 1.4 0 2.8 2.2 2.8 4.4 0 1.2-2.5 1.4-3.6.3zm10.9 0c-.4-.4-.7-1.7-.7-2.8 0-3 3.7-2 4.1 1.1.4 2.3-1.7 3.4-3.4 1.7zm10.8-1c-.4-1-.2-2.4.4-3 1.5-1.5 5 1.8 4 3.5-1.2 1.8-3.6 1.5-4.4-.6zm-38-7.7c-.4-.4-.8-1.7-.8-2.8 0-3 3.7-2 4.2 1 .3 2.4-1.8 3.5-3.4 1.8zm10.8-1c-1-2.7-.8-3.7 1-3.7 1.7 0 4 3.7 3 4.7-1.2 1.3-3.3.7-4-1zm11.4.1c-1.5-1.8-.7-3.8 1.5-3.8 1.4 0 2.8 2.2 2.8 4.4 0 1.6-2.9 1.2-4.3-.6zm11.5.9c-1.3-1.3-.7-4.7.8-4.7s2.9 2.2 2.9 4.4c0 1.2-2.6 1.4-3.7.3zm-41.7-10.1c-6.5-3-8.6-9-5.3-15.4 2.2-4.2 7.2-6.7 11.8-5.9 3 .6 3.8.2 6-2.7 3.7-5 8.2-7 15.2-6.3 5.2.4 6.5 1 9.7 4.4 2.4 2.7 3.6 5 3.6 7.3 0 3.1.2 3.3 4.8 3.3 4 0 5.3.5 7.1 2.8 3.8 4.9 2.6 10-3.2 13-5 2.5-43.7 2.2-49.7-.5zm-341-5.6c-1.2-2 1.2-3.4 5.6-3 3 .2 4.4 1 4.6 2.3.3 1.5-.4 1.9-4.5 1.9-2.7 0-5.3-.6-5.7-1.2zm50.2 0c-1.3-2 .7-3.2 5.5-3.2 4.1 0 4.8.3 4.8 2.2 0 1.8-.7 2.2-4.8 2.2-2.7 0-5.1-.5-5.5-1.1zm201.5-6.6c-1-1.8 1.4-3.9 3-2.4 1.2 1.3.4 3.6-1.3 3.6-.5 0-1.3-.5-1.7-1.2zm4.5-6.8c-2-2.4-3.5-4.8-3.2-5.3.3-.5 2.4-.8 4.7-.8 3.5 0 4.7.6 7 3.7 2.6 3.4 3.2 3.6 7.5 3 2.6-.2 4.8-.7 5-.9.3-.2-.8-2-2.4-4-2.4-3.2-2.5-4-1.1-4.5 3.9-1.5 7-.5 10.4 3.3 3.3 3.5 3.9 3.8 8 3.1a26 26 0 0 0 4.7-1c.2-.2-.7-1.9-2-3.7-2.9-3.8-2.8-4 1.8-5 3-.6 4-.2 7.5 3.7 2.3 2.4 4.5 4.1 5 3.8.6-.3 1-.1 1 .5 0 1.4-2.5 1.9-22.4 4.5-9.5 1.2-19.7 2.6-22.6 3.1-5.2 1-5.2 1-8.9-3.5zm-244.8-.6c-3.3-3.3-3.9-5-2.2-6 1.4-.9 9.2 6.6 8.3 8-1.1 1.9-2.7 1.4-6-2zm31.7 1.7c0-.9 1.6-3 3.5-5 2.7-2.6 3.7-3 5-2 1.1 1 .8 1.8-2.1 4.8-3.7 3.8-6.4 4.7-6.4 2.2zm146.4-2.5c-1-2.3 1-5.3 3.4-5.3 2.5 0 4.4 3 3.5 5.3-.9 2.3-6 2.3-7 0zm-161.3-6.6c.2-4 .6-5.3 2.1-5.6 1.6-.3 2 .5 2 5.2s-.4 5.5-2.2 5.5c-1.7 0-2-.7-1.9-5.1zm-9-27.5a33.3 33.3 0 0 1-16-14c-2.8-4.6-3.1-6-3.1-15 0-8.7.3-10.3 3-14.7 4-6.8 7.9-10.2 15.3-13.7a29.8 29.8 0 0 1 33.7 6.6 25 25 0 0 1 8.3 16.5c2.1 11.8-2.6 24-11.7 30.3a32 32 0 0 1-29.5 4zm22.4-3.8c7-3.2 10.8-7.2 14.2-14.5 3.2-7.1 3.3-12.5.3-20.4a28 28 0 0 0-39.8-14.2 28 28 0 0 0-7.7 41 27.1 27.1 0 0 0 33 8.1zm-22.6-3.7A24.7 24.7 0 0 1-303 316c-.5-2.5-.2-3.6 1.8-5l2.5-2-2.5-1.2c-2-1.1-2.4-2-1.8-4.6 1.2-6 6.7-12.5 13.3-15.8l6.2-3 2.1 2.6 2.1 2.7 2-2.6c2-2.6 2-2.6 6.7-.7 5.6 2.2 7.8 4 12 9.8 3.7 5 4 9.7.8 12l-2.3 1.5 2.3 1.2c6.7 3.6-3 18.9-13.9 21.9-3.5 1-4.2.8-5.8-1.4l-1.9-2.4-1.7 2.4c-2.2 3.1-2.4 3.1-9.4-.6zm5-12.2c1.8-1.2 4.5-2.1 6-2.2 3.5 0 7.7-4 7.7-7.5 0-1.5 1-4.5 2.2-6.5 1.2-2 2-3.9 1.8-4.1-.3-.3-2.7.5-5.3 1.6a82.7 82.7 0 0 1-8 3c-2.3.8-3.5 2-4.2 4.3-.5 1.8-1.9 5.3-3 8-3 6.6-2.6 7 2.8 3.4zm4-6.7c-2.6-2.7 0-7 3.5-5.7 2.3.9 2.3 5.4 0 6.3-2.1.9-1.9.9-3.4-.6zM-54.6 339c-4-1.3-4.6-3.5-1.4-5.2 3.6-2 7.7-1.4 7.7 1 0 1.9.7 2.2 4.3 2.2 3.6 0 4.4-.3 4.4-2.1 0-3 5.3-3 8.8-.2l2.6 2.1-4.2 1.8a44 44 0 0 1-22.2.4zm101-1.1a29.4 29.4 0 0 1-8-6.6c-2.7-3.4-3.4-5.4-3.7-11.2-.6-8.3 1.7-13.6 11.3-26.2a76 76 0 0 0 9.7-15.7c.2 0 1.4 2.1 2.5 4.7 1.2 2.6 4.3 7.6 7 11.2 9.3 12.2 11.2 16.5 11.2 24.6 0 6.3-.4 7.9-3.3 12-6.5 9.3-17 12.1-26.6 7.2zm13-12.6c.2-3 .7-3.5 3.5-3.5s3.2-.4 3.2-3.3-.4-3.2-3.2-3.2c-2.8 0-3.3-.5-3.6-3.6-.3-3.1-.7-3.6-3.9-3.9-3.4-.3-3.5-.2-3.5 3.6 0 3.5-.3 3.9-3.1 3.9-3.3 0-5 2-3.8 4.9.3.9 2 1.6 3.8 1.6 2.7 0 3.1.4 3.1 3 0 4 .8 4.8 4.3 4.4 2.3-.3 2.9-1 3.1-3.9zM129 337a71 71 0 0 1-18.4-14.4c-1.3-1.8-1.8-6.5-2-21.7a128 128 0 0 1 .3-19.3c.4 0 2.2 1 3.8 2.2 6.5 4.6 13 4.2 19.2-1.4 3.5-3 4-3.2 5-1.6 1.4 2.6 8.9 6.2 12.7 6.2 1.7 0 5-1.2 7.2-2.7a29 29 0 0 1 4.5-2.7c.2 0 .5 8.8.5 19.6v19.6l-4.3 4.7a104 104 0 0 1-22 14.9c-.3 0-3.2-1.5-6.5-3.4zm13.3-8.2c3.6-2.2 8-5.7 9.7-7.7 3.3-3.7 3.3-3.8 3-15.7l-.3-12-6.7-.3c-4-.1-7.8-1-9.6-2-2.6-1.8-3-1.8-6.2-.2-2 1-6.3 2-9.8 2.4l-6.4.6v25.6l4 3.2c4.2 3.3 14.6 10 15.4 10 .2 0 3.3-1.7 7-4zm-9.2-6.5c-.4-.4-.8-2.5-.8-4.5s-1-5-2.1-6.5c-2.8-3.5-2.8-6.9 0-10 2.7-2.8 7.7-3 10.1-.3 2.3 2.5 2.4 8.2.3 10-.9.7-1.8 3.5-2 6.3-.2 4.2-.7 5.2-2.5 5.5-1.2.1-2.6 0-3-.5zm72.5 16.4c-2.7-1.9-3.3-6.8-1.1-9 3-3 9.6-.2 9.6 4.2 0 1.9-3.9 6.5-5.4 6.5a11 11 0 0 1-3.1-1.7zm68.6-.5c-2.3-2.2-2.4-2.9-2.4-28.8 0-26 0-26.7 2.4-28.9 2.2-2 3.8-2.2 23.2-2.2 19.5 0 21 .1 23.3 2.2 2.3 2.2 2.3 2.9 2.3 28.9s0 26.6-2.3 28.8c-2.3 2-3.8 2.2-23.3 2.2-19.4 0-21-.1-23.2-2.2zm13.8-9c-.4-4.3-.6-4.6-4-5-4.4-.4-6.7 1.4-6.7 5.3 0 4 .6 4.4 6.2 4.4h4.8zm28.3 0-.3-4.6h-22.9l-.4 4.6-.3 4.7h24.2zm-28.7-13.3c0-4.3 0-4.4-4.6-4.7-4-.3-4.6 0-5.2 2.4a11 11 0 0 0 0 5c.6 2 1.5 2.3 5.3 2 4.5-.3 4.5-.4 4.5-4.7zm14.5-.3.4-4.6h-10v10l4.7-.4c4.6-.3 4.6-.4 5-5zm14.4.3v-5h-9.8v4.3c0 5.2.4 5.6 5.6 5.6h4.2zm-28.5-13.9c-.4-4.4-.6-4.6-4-5-4.4-.4-6.7 1.4-6.7 5.2 0 4 .6 4.4 6.2 4.4h4.8zm14.1 0c-.3-4.6-.3-4.6-4.7-4.6-4.3 0-4.3 0-4.7 4.6l-.3 4.6h10zm14.2 0c-.3-4.6-.3-4.6-4.7-4.6-4.3 0-4.4 0-4.7 4.6l-.3 4.6h10zm-.3-13.3v-4.4l-18.2-.3c-17.7-.3-18.3-.2-19.5 2-1 1.8-1 3 0 5l1.1 2.6 18.3-.3 18.3-.3zM-128.5 338c-4-11.3-4-11-1.2-14.6 5.9-7.5 8-9.9 8.5-9.3 3.2 3.8 6.3 8.7 6.2 9.9 0 .8-3 4.7-6.4 8.6-4.6 5-6.6 6.6-7 5.4zm28.5-2.5c-5-5.5-18.5-22.7-21.7-27.4-7.1-10.8-6-22.3 2.8-27.7 9.8-6 21.8 1.4 21.8 13.6 0 4.4-4 14.6-5.8 14.6-.5 0-2.4-2-4.2-4.4l-3.3-4.5 2.7-3.9c3-4.6 3-5.7-1-7.7-2.4-1.1-3.5-1.1-6 0-1.6.8-3 2.3-3.3 3.3-.5 2.5 4.4 9.4 16.8 23.8l10.2 11.9-2.2 6c-1.3 3.3-2.6 6-3 6-.4 0-2.1-1.7-3.8-3.6zm327.5 2.3c-1.7-1.7-1.7-6.6 0-8.3 2.4-2.3 7.3-1.5 8.7 1.5 1.8 4-.3 8.1-4.4 8.1-1.6 0-3.6-.6-4.3-1.3zm-444.3-3a13.2 13.2 0 0 1-7-16c2.7-8.3 13.4-11 19.5-4.9s5.3 14.5-2 19.5c-3.9 2.6-6.8 3-10.5 1.4zm9.8-6c4.4-4.3 3.5-10.4-1.8-13.2-8.5-4.4-16 6.3-9.1 13.2 3.4 3.4 7.5 3.4 11 0zm-7.6-5c-1-1.4.3-3.2 2.1-3.2 1.6 0 3 2.7 2 3.7s-3.4.8-4.1-.4zm33.5 10c-7.6-4.8-8.7-14-2.3-20 7-6.4 18.7-2.4 20.2 7 1.6 10.5-9.2 18.4-17.9 13zm11-4.6c6-4.7 2.5-14-5.3-14-7.5 0-10.8 8.3-5.5 13.6 3.3 3.3 7 3.4 10.8.4zm-7.5-5.4c-.4-.7-.3-1.7.4-2.4 1.4-1.4 4.8-.1 4.3 1.7-.7 1.8-3.7 2.3-4.7.7zm132 10.1a403 403 0 0 1-.8-28c-.2-25.5-.1-27.3 1.7-27.6 2.6-.5 4 1.8 3.3 5.1-.5 2.2-.3 2.5 1.7 2 3.4-.9 10 1.8 17.7 7.2 9.9 7 13.5 8.6 18.4 8.2 5-.5 5 .8-.1 4.3-4 2.7-12.8 3.3-19.6 1.3-5.4-1.5-11.8.5-16.1 5.1-3.5 3.7-3.6 4-3.6 13.5 0 8.6-.9 11.7-2.6 9zM-196 325a41 41 0 0 1-.8-7c-.3-5.2-.4-5.5-5.5-8.1-7.6-4-7.6-5.7 0-13.4 7.5-7.4 8.6-7.5 12.8-.8 2.2 3.4 3.5 4.4 5.8 4.4 1.7 0 3.6-.6 4.3-1.3 1.8-1.8 2.5-.7 3.2 4.5.5 3.5.3 4.4-1 4.4-1 0-2-1-2.2-2.2-.5-1.7-1.5-2.1-5-2.1-3.4 0-4.8-.6-6.4-2.8l-2-2.8-3 3.2-3 3.2 3.9 2.3 3.9 2.3-.3 8.4c-.3 7-.7 8.5-2.3 8.8-1 .2-2.1-.2-2.4-1zm396.8-1.8c-.5-.8-9.4-38-9.4-39.2 0-.1-2-.3-4.3-.3-5 0-6.8-1.8-3.8-4 2.5-1.8 9.6-1.8 11.2 0 .6.8 1.7 4 2.4 7.1l1.2 5.7h20.2c18 0 20.4-.2 21.7-2 1.2-1.6 1.6-1.7 3-.2 1.6 1.7 1.5 2.6-2.4 18l-.8 3.2-17.4.3c-9.5.2-17.8.8-18.3 1.3-.6.6-.7 2.3-.3 3.8l.7 2.8 17.1.3c14.4.2 17.2.5 17.2 1.9s-3 1.7-18.7 2c-10.3 0-19-.2-19.3-.7zm24.8-16.1c2.9-1.1 2-2.6-1.5-2.6-3.3 0-4.5 1.5-2 2.5l1.6.6 2-.5zm-17.9-1.6c0-.6-1.4-1-3.2-1-1.8 0-3.3.4-3.3 1s1.5 1.1 3.3 1.1c1.8 0 3.2-.5 3.2-1zm9.8 0c0-.6-1.4-1-3.2-1-1.8 0-3.3.4-3.3 1s1.5 1.1 3.3 1.1c1.8 0 3.2-.5 3.2-1zm18.6 0c0-.6-1.3-1-2.8-1-1.5 0-2.7.4-2.7 1s1.2 1.1 2.7 1.1c1.5 0 2.8-.5 2.8-1zm-30-6.5c0-1-1.2-1.8-3-2-2.9-.3-4.1 1.6-2.2 3.5 1.3 1.3 5.2.2 5.2-1.5zm10.9 0c0-2-4.7-2.9-6.2-1.3-1.8 1.8.2 3.6 3.3 3.3 1.7-.2 2.9-1 2.9-2zm10.2.7c1.6-1.9.5-2.9-3.1-2.9s-4.7 1-3.1 3a4.2 4.2 0 0 0 6.2 0zm9.8-1c.2-1.4-.4-1.9-2.4-1.9-3 0-4.5 1.5-3.4 3.4 1.1 1.7 5.3.7 5.8-1.5zm-427.5-8c-1-.9-1.7-2.3-1.7-3.1 0-1.7 3-5 4.4-5 1.6 0 4.3 3.4 4.3 5.5 0 1.2-1 2.6-2 3.2-2.8 1.5-3 1.5-5-.5zm-118-36.6c-1-1-1.4-8.4-1.4-26.7 0-23.9.1-25.4 2.1-26.4a12 12 0 0 1 4.8-1.2c2 0 2.9-.7 3.4-2.8.9-3.6 5.3-3.3 5.9.4.5 3.4 5.3 3.4 5.8 0 .5-3.7 5-4 5.9-.4 1 4 5.9 4 5.9.1 0-2.2.5-2.7 2.7-2.7s2.7.5 2.7 2.8c0 2.4.5 2.7 3 2.4 2.2-.2 3.1-1 3.4-2.8.5-3.7 5.6-3.4 5.6.3 0 2.3.5 2.7 3.3 2.7 1.8 0 4.2 1 5.3 2.1 2 2 2 3.8 1.8 26.5-.1 13.5-.6 25-1 25.8-1.1 1.8-57.5 1.7-59.3 0zm53.3-29c.6-.5.8-4.8.7-9.5-.3-7-.7-8.7-2.2-9-1.4-.3-1.9.6-2.2 3.3-.2 2.7-.8 3.6-2.5 3.6-1.5 0-2.3-1-2.7-3.3-.4-2.6-1.2-3.3-3.5-3.6-2.6-.3-3 0-3.3 3.3-.2 2.7-.8 3.6-2.5 3.6-1.6 0-2.2-.9-2.5-3.6-.3-3-.8-3.5-3-3.5-2 0-2.6.6-2.6 2.6 0 1.4-.7 3.1-1.5 3.8-2.4 2-5 .3-5-3.3 0-2.6-.5-3.1-2.8-3.1s-2.7.5-2.7 3.1c0 3.6-2.7 5.3-5 3.3-.9-.7-1.6-2.4-1.6-3.8 0-3-2.6-3.6-3.7-.9-.9 2.4-.8 15 .2 16.4.5.7 2.5 1.5 4.6 1.7 7.6.7 42.9-.1 43.8-1zm40.8 28.6c-1.2-3.1-.7-3.7 3.1-3.7 3.9 0 4.4.6 3.2 3.7-.9 2.2-5.5 2.2-6.3 0zm36 1c-.4-.4-.7-1.6-.7-2.7 0-1.5.8-2 3.3-2 3.3 0 3.7.6 2.6 3.7-.7 1.7-3.8 2.3-5.2 1zm55.1-.6c.3-.8 2.5-1.6 5-1.7l4.6-.4v-8.6c0-8 .2-8.7 2.1-8.7 2 0 2.2.7 2.2 8.7v8.6l4.6.4c2.5.1 4.7 1 5 1.7.3 1-2.5 1.3-11.8 1.3-9.2 0-12-.3-11.7-1.3zM70 246.6l-8.5-8.9-4 2a23.3 23.3 0 0 1-18.7-.6 23.7 23.7 0 0 1-6.4-39c4.7-4.4 8.8-6 15.8-6 8-.1 12.7 1.8 17.7 7.2 6.5 7.1 8.3 16 5 25.1l-1.5 4.4 9 9c8.3 8.4 8.7 9.1 7.8 12-.8 2.2-2 3-4.4 3.3-3 .3-4.4-.8-11.8-8.5zm-16.4-12.1c16-4 16.7-27.2 1-33.2-8.3-3.2-17.6.6-21.3 8.7a16.5 16.5 0 0 0 0 15.5c2.3 5 5.8 7.8 11.3 9.1l3.8 1c.2 0 2.5-.4 5.2-1.1zm-11.5-4a14 14 0 0 1-7.4-13.2l.4-4 1.3 4.5c1.8 6 10.1 13.4 14.1 12.6.8-.1 1.4.3 1.4.9 0 1.8-5.7 1.3-9.8-.9zm80.6 23.5c-2.6-1-3.8-2-3.8-3.6 0-4.5 11.4-6.8 13.6-2.7 1.5 2.8 4 2.8 5.7 0 1.7-2.6 6-2.8 11.3-.6 4.5 1.9 4.7 3.2.8 5.7-3.7 2.4-21.9 3.2-27.6 1.2zm159.6-.2c-1-2.8.5-4 5.4-4 2.5 0 5.2-.5 5.9-1.2.8-.9 1.3-5 1.3-11.3 0-8.6-.3-10.3-2.2-12-3-2.7-2.7-6.4.7-9.1 3.6-2.9 4.9-2.9 8.4 0 3.5 2.7 3.7 6.2.7 10-1.8 2.3-2.1 4.4-2.1 12 0 10.6.5 11.4 7.6 11.9 4 .3 4.9.7 4.9 2.5 0 2-.8 2.2-15 2.5-12.5.2-15.1 0-15.6-1.3zm-62.6-3.7c0-2.2-.5-5.9-1.1-8.1-1.1-4-1.2-4-3.7-2.4-2.3 1.5-2.6 1.4-4.1-.9-.9-1.3-2-3.3-2.3-4.4-.4-1-3.2-3.5-6.2-5.4-4-2.4-5.4-3.9-4.9-5.1l.9-2.7c.3-1.4-6.9-3.7-11.7-3.8l-4.3-.1 2.6-2.9c1.5-1.5 4.9-4 7.6-5.7 4-2.4 6.3-2.9 13-3 7.3 0 9.2-.5 17.5-4.6 9.8-4.8 19-7.7 20.3-6.4 1.2 1.2-3.4 14.6-7.5 22.1-3 5.4-3.5 7.7-3.6 14.1-.1 8.4-2 13.6-6.7 19.6-4 5-5.8 5-5.8-.3zm.8-25.2c4.2-2.6 6-5.8 5.6-9.7-.3-2.4-1-3-4-3.3-4.8-.4-8.4 2.1-10 7-1.1 3.3-1 4.2.6 6 2.4 2.6 3.4 2.6 7.8 0zm-275.1 26.7c-2.8-1.3-3.6-2.3-3.6-4.7 0-3 11.7-25.6 21.7-42.2 4.7-7.8 8.5-9.8 12.2-6.6 2.3 2.2 12.1 18.7 20.7 34.9l3.8 6.5c3.2 5.4 3.4 8.3.4 11-2.1 2-4.5 2.1-27 2.4-19.8.2-25.4 0-28.2-1.3zm29-9.6a4.3 4.3 0 0 0-.5-6.4c-3.4-2.8-7.7 2.7-4.8 6.1 1.6 2 3.5 2 5.2.3zm0-11c.7-.9 1.5-5.2 2-9.6.5-6.8.3-8.4-1.3-10-2.3-2.3-4.3-2.3-6.6 0-1.6 1.6-1.8 3.2-1.2 10.4.3 4.7 1 9 1.3 9.6 1 1.5 4.4 1.3 5.8-.4zm-192.8 16.4-.5-11.2c-.3-9.6 1.7-31.5 3.1-32.9.3-.3 10.2-.5 22-.5 17 0 21.7.3 22.4 1.5 1.5 2.8 3.3 22.2 3 32.5l-.4 10.3-24.8.3c-13.6.2-24.8.2-24.8 0zm27.3-6.8c0-.9.8-1.6 1.7-1.6 1.2 0 1.6-.8 1.4-2.5-.2-1.3-.8-2.2-1.3-1.9-.6.3-1.4-.5-2-1.9-1-2.7-4.2-3.4-4.2-.8 0 .9-1 1.6-2.1 1.6-1.6 0-2.2.7-2.2 2.7 0 1.6.6 2.8 1.5 2.8.8 0 1.8.7 2.1 1.6.9 2.1 5.1 2.1 5.1 0zm-16.9-4.4c0-2.7-.5-3.3-2.8-3.6-3.8-.4-6 2.2-4.3 5.3.9 1.6 2.1 2.2 4.2 2 2.4-.3 3-1 3-3.7zm35.4 1.4c1.3-3.6-2-7-5.3-5.2-2.2 1.1-3.2 5.4-1.6 7 1.7 1.6 6 .6 6.9-1.8zm-.5-12.8c1.2-1.9-.8-16.4-2.4-18-1.3-1.3-5.2-1.6-18.1-1.6-9.1 0-17.1.4-17.8.8-1.5 1-4.2 17.1-3.1 18.8.9 1.5 40.5 1.5 41.4 0zm-17-3.1c0-1.9 4.2-4.5 7-4.5 1.6 0 4 1 5.2 2.2 2.7 2.8 1.8 4.3-1 1.8-2.5-2.3-6-2.4-7.8-.2-1.5 1.8-3.3 2.2-3.3.7zm324 22.4c-4.9-7.8-14.8-26.2-15.7-29.3-1.6-5.1.8-12 5.7-16.7 2.8-2.8 4.3-3.3 10.6-3.6 6.3-.3 7.8 0 11 2.1 4.8 3.4 7.7 9 7.7 15 0 4-1.3 7.2-8.4 19.4-4.6 8-8.7 14.5-9.2 14.5-.4 0-1.1-.6-1.6-1.4zm8-26.3a9.3 9.3 0 0 0 0-13.2c-3.8-3.8-8.6-3.6-12.7.5s-4.1 8 0 12.2c4 4 9 4.2 12.7.5zm55 21.9c0-2.4 2.2-8.4 3.2-8.4 1.3 0 6.5 4.4 6.5 5.5 0 1.2-2.8 2.7-6.8 3.7-2.1.5-3 .3-3-.8zm79.2-1c-2.7-2-6.3-12.4-6.2-18.2 0-9.7 7.7-20.8 17.2-24.8 5.7-2.4 16.8-2 22.6.8 9 4.3 15.7 15.2 15.7 25.2 0 9-6.8 20.7-10.1 17.4-.9-.9-.5-2.6 1.2-6.2 4.5-9.3 2.3-21.7-5-28-10-8.4-23.9-6.2-32.3 5-3.4 4.6-3.7 15.6-.6 22 2.1 4.4 2.2 5.3.9 6.6-1.3 1.3-2 1.3-3.4.2zm-367.3-5.6c-.6-1.5-2.7-1.8-12.7-1.8h-12v-6.5c0-3.6.5-6.5 1-6.5.7 0 1.2-.8 1.2-1.7 0-.9 1-1.6 2.1-1.6 1.3 0 2.2.7 2.2 1.6 0 1.3 1.7 1.7 8.5 1.7 5.3 0 9-.5 9.9-1.4 1-1 2.3-.3 5.9 3.3l4.6 4.6-5 5c-4 4-5.2 4.7-5.7 3.3zm374.2-3c-3.2-3.4-3.1-12.9 0-18.1 2.6-4 9.4-7.8 14.3-7.9 9.3 0 17.2 8 17.2 17.2 0 7.3-3 12.2-6.4 10.1-1-.6-1-2 0-5.8 1.7-6.9-1.1-12.7-7-14.7-8-2.6-16 4.1-14.4 12.1 1.8 9 .5 11.6-3.7 7.1zm-421.2-20.5-4.1-4.2 4-5c4.4-5.4 5.5-6 6.4-3.4.5 1.3 2.6 1.7 8.9 1.7 7.8 0 8.3-.2 9.3-2.8.5-1.5 1.5-2.7 2-2.7 2 0 4.5 7 4.5 12.7v5.8h-12.5c-7.7 0-12.6.5-12.6 1.1 0 2-1.7 1.1-5.9-3.2zm-72.9-9.5c-1.4-1.5-.6-4.7 1.5-5.8 1.3-.7 8-1 17-.9 12.3.3 15 .7 16 2.1.6 1 .8 2.6.4 3.5-.6 1.6-3 1.8-17.4 1.8-9.2 0-17-.3-17.5-.7zm10-2.8c.3-1.6-.5-2-4-2-4.3 0-5.9 1.6-3.7 3.8 1.5 1.5 7.3.1 7.7-1.8zm23 .3c0-1.9-.7-2.2-4.3-2.2-2.9 0-4.3.5-4.3 1.4 0 2.3 1.1 3 5 3 3 0 3.7-.5 3.7-2.2zm-100-28.7a398 398 0 0 1-.3-59.5c1.5-2.3 4.5-.6 4.5 2.6 0 2 .6 2.7 2.2 2.7 3.8 0 10.7 4.3 12.5 7.7 2.4 4.6.6 7.6-4.3 7.6-3 0-4.1-.7-5.7-3.2-3.3-5.6-4.9-5.2-4.5 1.1l.3 5.5 6 2c7.8 2.7 11 6.3 11 12.6 0 4-.7 5.4-4 8.7a20 20 0 0 1-8.6 5c-4.4 1.1-5 1.6-5 4.3 0 3.3-2.2 4.9-4.1 3zm9-16.6c2.3-2.4 2.2-5.6-.4-7-3.6-2-4.4-1.3-4.4 3.8 0 5.3 1.6 6.3 4.8 3.2zm55.1 15.8c-2-2-2.2-3.6-2.2-21.6 0-18.9 0-19.5-2.2-20.1-1.5-.4-2.2-1.3-2-2.6.4-1.5 1.6-2 5.6-2.3 5-.3 5.2-.4 5.2-4 0-2 .5-5 1.2-6.5 1.3-2.8 1.5-2.8 14-2.8 14 0 15.3.5 15.3 6.1 0 6.1.8 7 6.6 7 5 0 5.4.2 5.4 2.7 0 2-.6 2.7-2.1 2.7-2 0-2.2 1-2.5 20.3-.3 18.5-.5 20.4-2.4 21.8-1.7 1.2-6.3 1.5-20 1.5-16.3 0-17.9-.2-19.9-2.2zm10.7-22.2c.2-13 0-17.6-1-18.2-3.5-2.1-4.2 1.3-4.2 18 0 9.2.3 17 .7 17.4.4.4 1.5.6 2.5.4 1.4-.2 1.7-3 2-17.6zm12 0c.2-13 0-17.6-1.1-18.2-3.4-2.1-4.2 1.3-4.2 18 0 9.2.4 17 .8 17.4.4.4 1.5.6 2.5.4 1.4-.2 1.7-3 2-17.6zm12 .6c.2-17-.4-20.3-3.7-19-1.3.4-1.6 3.9-1.6 17.7 0 9.4.4 17.5.8 17.9.4.4 1.5.6 2.5.4 1.4-.2 1.7-3 2-17zm-5.3-28.5c0-3.8-2-4.6-10.8-4.1-6.1.3-8.6 2.2-7.4 5.6.6 1.4 2.4 1.8 9.5 1.8h8.7zm49.6 50.8c-1.8-1.3-2-3-1.3-20.8l.7-19.4-2.7-2a11 11 0 0 1-3.3-5.8c-1.9-10 7.2-16.2 14.5-10 2.5 2.2 3 3.5 3 7.8 0 4.2-.5 5.5-3.1 7.7-3 2.6-3.1 3-2.4 9.5 1.3 12.4 1.9 25.1 1.2 28.7-.8 4.4-3.8 6.3-6.6 4.3zm24.3.3c-1.7-1-2-2.9-2-15.1 0-8.2.5-14.3 1.1-14.7.6-.4 1.1-3 1.1-6 0-4.4-.4-5.5-2.7-7-2.5-1.7-2.7-2.5-2.7-10 0-4.7.4-8.1 1-8.1.7 0 1.2 3 1.2 6.5 0 5.9.2 6.6 2.1 6.6 2 0 2.2-.7 2.2-6.6 0-3.6.5-6.5 1.1-6.5.6 0 1.1 3 1.1 6.5 0 5.9.2 6.6 2.2 6.6s2.2-.7 2.2-6.6c0-3.6.4-6.5 1-6.5.7 0 1.1 3.4 1.1 8.2 0 7.5-.2 8.2-2.8 10-2.6 1.7-2.7 2.2-2 7.9.3 3.3.9 12.2 1.2 19.6.4 12.1.3 13.8-1.4 15-2.3 1.7-2.6 1.7-5 .2zm22.8 0c-1.6-1-1.8-4.3-1.8-27.7v-26.7l2.8-3.2c1.5-1.8 3.2-3.3 3.6-3.3 1 0 2.7 56.5 1.7 59-.8 2.2-4 3.2-6.3 1.8zm57.7.5c-.4-.4-.7-1.5-.7-2.5 0-1.3-2-2.4-6-3.7A26.4 26.4 0 0 1-53 146.7c-1-3.8-1.7-4.7-3.7-4.7-3.8 0-3.6-5 .2-6 1.5-.3 2.7-1.4 2.7-2.3 0-3.2 5.7-12.4 9.6-15.3 2-1.6 5.8-3.5 8.2-4.2 3.3-1 4.6-2 4.9-3.7.5-3.3 5.3-3.2 5.8.1.3 1.7 1.4 2.6 3.8 3.1 8 1.7 17 10.4 18.5 18 .3 2 1.1 3.8 1.6 3.9l2.4.3c.7 0 1.5 1.4 1.7 3 .2 2.5-.1 3-2 3-1.2 0-2.5 1-2.9 2-3.1 10-9 16.7-17.4 19.7-4 1.4-5.4 2.5-5.7 4.3-.3 2.3-3.3 3.3-4.9 1.7zm9.4-11.8C-13 155.1-8 148-8 139.4c0-12-8.5-20.6-20.3-20.6a20.1 20.1 0 0 0-18 29.1c4.8 9.7 15 13.7 25.5 10zM-31 144.2c0-1.5-.7-2.2-2.2-2.2-1.6 0-2.2-.7-2.2-2.7s.6-2.8 2.2-2.8 2.2-.7 2.2-2.7c0-2.2.5-2.7 2.7-2.7 2 0 2.7.6 2.7 2.3 0 1.3 1 2.5 2.2 2.8 3 .8 3 5.8 0 5.8-1.4 0-2.2.7-2.2 2.2 0 1.6-.7 2.1-2.7 2.1s-2.7-.5-2.7-2.1zm148.5 24c-.7-2.7-4.3-4-6.3-2.3-1.8 1.6-3.1-.2-2.2-3 .9-3-.4-5.7-2.8-5.7-2.8 0-2.7-3.3 0-4 2.7-.7 4-4.2 2.3-6.2-1.6-2 1.2-4.5 3-2.7 1.6 1.7 5.3.2 6-2.4.7-2.7 3-2.7 3.7 0 .7 2.5 3.5 3.7 6.1 2.7 2.6-1 4.5.5 3 2.3-1.7 2-.5 5.6 2.2 6.3 2.7.7 2.8 4 0 4-2.4 0-3.6 2.5-2.7 6 .7 2.8-1.5 5-2.8 2.8-1.2-2-5.1-.4-5.8 2.2-.7 2.7-3 2.7-3.7 0zm5-10c3.2-3.4 0-8.2-4.8-7-2 .5-2.7 1.3-2.7 3.8 0 4.1 4.5 6 7.4 3.1zm81.9 10.4a30.7 30.7 0 0 1-2.8-58.1 30.9 30.9 0 0 1 39.6 41.3 31.2 31.2 0 0 1-36.8 16.8zm10.7-5.8c2.4-1.5 1-5-2-5s-4.5 3.5-2 5c1.8 1.2 2.2 1.2 4 0zM195 140.2c.8-2-1-4.8-3.2-4.8-2 0-3.9 2.8-3.1 4.8.8 2.3 5.4 2.3 6.3 0zm27.6-3.9c3.1-3.1 5.7-6.5 5.7-7.5 0-3.7-3-2.8-8.6 2.5l-5.7 5.4-7.4-7.2c-7.6-7.3-10.2-8.5-11.4-5.4-.5 1.2 1.8 4.2 7.3 9.8 10.2 10.2 12 10.4 20 2.4zm14.5 3c0-3.4-2.9-4.8-5.2-2.5-2.3 2.4-1 5.2 2.4 5.2 2.2 0 2.8-.5 2.8-2.8zm-21.2-19.1c1.2 0 .3-4.3-1.2-5.5-1.3-1-2-1-3.3 0-3.2 2.7-1.3 7.2 2.6 6l1.9-.5zM26.4 165a8.6 8.6 0 0 1-1.8-5c0-4 6.3-10.5 10.2-10.5h2.8V136c0-22.6 1.8-24.5 23.1-24.5 25.2 0 26 .9 26 27.6 0 20.1-.7 22.7-6.6 26.2-4 2.3-6.8 2.2-9.2-.4-4.2-4.6 2-15.3 8.8-15.3h2.6v-29.2l-3.4-2.9c-5.2-4.3-7-3.4-7 3.8v6l-12.7.5c-16.8.7-16.5.4-17.3 17.8a94 94 0 0 1-1.4 15.2c-1.1 2.4-7.4 6.2-10.2 6.2-1.2 0-3-.8-4-2zm-317.2-4c-5-1.8-10.3-6.6-11.2-10.1a5 5 0 0 1 1.3-4.7 6.3 6.3 0 0 1 10.7 2.6 8.5 8.5 0 0 0 3.2 4.3c2 1.3 2.5 2.4 2.1 5.6-.5 4.4-.4 4.3-6 2.3zm559-3.4c-1.4-1.4-1.7-4.4-1.7-15.6 0-14.2.6-16.5 4.4-16.5 1 0 2.2-.7 2.5-1.6.8-2.1 7.7-2.1 9.8 0 2.6 2.6 8.4 2 13.3-1.4 3.7-2.5 5.4-3 12-3 7 0 8 .4 13.8 4.2l6.3 4V142c0 11.4-.3 14.4-1.7 15.8-2.6 2.6-56.1 2.6-58.7 0zm45.5-6.3c11-4.6 11.4-19.7.7-25.2-12-6.2-24.6 8-17.4 19.5 2 3.2 4.4 5 8.7 6.5 2.8.9 4.3.7 8-.8zm-9.8-3.5a10.6 10.6 0 0 1-5.8-9c0-1.7.8-2 4-2 4.8.2 7-2.4 5-5.8-1.2-1.9-1.2-2.3.2-2.9 2.3-.9 8 1.6 9.9 4.4 3.5 5 .8 13.8-5 15.8-4.4 1.5-4.1 1.5-8.3-.5zm-19.4-13.5v-5h-13.1l-.4 3.7c-.6 6.2.2 6.9 7.2 6.5l6.3-.3zm-142.2 14.1c0-2.6-4.1-3-5.1-.5-1 2.6-4.2 0-4.2-3.5 0-2.7-.4-3-3.3-3-3.3 0-5.1-3-2.8-4.4 2.2-1.3 1.3-4.8-1.3-5.1-3.3-.5-3.3-4.6 0-5 2.5-.4 3.7-4.6 1.4-4.6-1.2 0-1.5-3.6-.4-4.7.4-.4 1.5-.2 2.6.3 2.5 1.4 4.8-1.2 3.8-4.3-1-3 2.5-4.4 4.4-1.8 1.6 2.2 4.4 1.3 5.2-1.6.7-2.8 5.1-2.8 5.1 0 0 2.7 3.4 4 5 1.8 1.8-2.4 5-1 4.2 1.7-.9 2.8 1.2 5.2 3.8 4.5 2.4-.6 4 1.6 2.4 3.3-2 2-1.4 4.8 1 5.4 3 .8 3 5.2 0 5.2-2.4 0-3.2 3.6-1 5 2.3 1.4.4 4.2-2.9 4.2-2.8 0-3.2.4-3.2 3.1 0 3.5-3.2 6.1-4.2 3.5-1-2.5-5.1-2-5.1.5 0 1.6-.7 2.2-2.7 2.2s-2.7-.6-2.7-2.2zm7.8-13.8c2.8-2.6 2.6-8.5-.5-10.6-3.1-2.3-6.6-2.2-9.3.2-3.4 3-3.8 6-1.3 9.3 2.7 3.4 8 4 11 1.1zm-441.2 5a13 13 0 0 1-7.8-17.8c1.2-2.8 8.7-7.2 12.1-7.2 2.9 0 2.6 7.2-.3 8.8-3 1.5-2.8 5 .3 7 2 1.3 2.4 2.4 2 6-.4 4.6-.7 4.8-6.3 3.2zm419.5-59.2c-2.6-2.3-3.1-3.6-3.6-10-.4-6-1-7.6-2.4-7.9-1.2-.2-2 .4-2 1.5 0 1-.6 1.6-1.3 1.3-1.8-.6-2.4-14.3-.8-19.6 1.7-5.8 7-11.5 11.4-12.3 3.5-.7 3.7-1 4-5.7.5-6.8 2.9-7.3 3.3-.6.3 4.5.7 5.2 3.3 6 4.6 1.1 9.1 4.8 11 9 2.1 4.3 2.6 23.5.7 23.5-.6 0-1.4-.7-1.7-1.6-.4-1-1.3-1.7-2.2-1.7-1 0-1.5 1.6-1.5 6 0 3.4-.7 7.5-1.5 9.1-3 5.9-11.6 7.4-16.7 3zm10.5-1.1c3.7-2 4.4-3.6 4.4-10 0-4-.3-4.8-2-4.8s-2.1 1-2.6 5.5c-.3 3-1.3 6.3-2.3 7.4-3.2 3.6-2.3 4.3 2.5 1.9zm-14-26.3c0-6.5.2-7.5 3.1-10.4 2.1-2 4.3-3.1 6.5-3.1 8 0 12.1 5 12.1 14.6 0 4.7.4 6 1.6 6 2.2 0 2.3-11.6.2-16.6-4-9.6-17.8-10.8-24.4-2.2-2.4 3.2-3 5.3-3.4 11.4-.4 7-.2 7.5 2 7.5 2 0 2.2-.6 2.2-7.2zm57.3 26c-2-2 3.3-2.5 31-2.5 26.3 0 30.4.2 30.4 1.6 0 1.5-4.1 1.7-30.3 1.7-16.7 0-30.7-.3-31-.7zm86.5-2.1c-1.9-2.5-2.2-4.4-2.2-13.6V52.6H284.8l2.3 3.9c4.9 8.3 15.4 8.4 20.7.2l2.6-4h18.1v10.7c0 9.2-.2 11.1-2.2 13.6l-2.2 2.9H271zm-70.3-6.6a26 26 0 0 1-8.2-16.4v-3.6H213c21.8 0 22.7.1 23.3 2.2.3 1.2 1.3 2.2 2.3 2.2.9 0 2.4 1.5 3.4 3.3 1.5 2.9 1.5 3.6 0 6.4-1.6 3.2-4.3 4.4-9.7 4.5a12 12 0 0 0-6.3 2.7c-3 2.5-4.2 2.7-13.4 2.7h-10zm41.3-7.1c.8-1.4.8-2.5 0-3.9-1.9-2.9-4.5-2.9-5 0-.4 1.4-1 3.4-1.5 4.5-.7 1.7-.3 2 2.2 1.6 1.7-.2 3.6-1.2 4.3-2.2zm56.2-8c0-2.1-.5-2.7-2.7-2.7-1.7 0-2.7-.6-2.7-1.6s1-1.6 2.6-1.6c2 0 2.7-.7 3-3 .4-4 2.4-4 2.9 0 .2 2.3.9 3 3 3 1.6 0 2.6.6 2.6 1.6s-1 1.6-2.7 1.6c-2.2 0-2.7.6-2.7 2.8 0 1.6-.6 2.7-1.7 2.7-1 0-1.6-1-1.6-2.7zm-29.4-12c0-7 2.5-9.2 10.9-9.2 6 0 6.5-.2 6.5-2.5 0-5.6 1.8-6.3 14.2-6l11.4.3.6 3.8c.5 3.8.5 3.9 7 4.4 9.2.8 10.6 1.8 11.2 8.6l.6 5.6H319c-9.4 0-9.8-.1-11-2.8-1.4-3-7.3-7-10.6-7-3.2 0-9 4-10.5 7-1.2 2.7-1.7 2.8-10.9 2.8h-9.6zm40.3-12c0-2.6-.1-2.6-9.3-2.6-9.1 0-9.2 0-9.2 2.7s0 2.7 9.2 2.7 9.3 0 9.3-2.7zM212 42.2c0-2.6-.6-5.8-1.2-7.3-1-2.3-.9-3.4 1-6.4l2.3-3.6v4.7c0 2.5.6 5.5 1.3 6.6 1 1.5.7 2.9-1 6.2l-2.3 4.3v-4.5zm-10.8.7c.2-1.5 0-4.6-.6-6.9-.6-2.8-.4-5 .5-7 1.5-3 1.5-3 2.5 2.5 1.4 7.7 1.2 10.3-.8 12.4-1.7 1.6-1.8 1.6-1.6-1zm21.4-2.4a57 57 0 0 0-1.3-6.9c-.5-1.4 0-3.2 1.5-5L225 26l-.1 3.3c0 1.8.3 5 .7 7.3.6 2.8.3 4.6-.8 6.3-1.6 2.2-1.6 2-2.2-2.4z" fill="gray"/><path d="M74.3.1c-.3 0-.6.1-.9.4-1 1 0 3.4 3.3 7.1 1.1 1.2 2.4 3 3 4.4 1 2 1 2.6 1.4 6.7.6 6.4 1.3 8.1 5.7 13.4 4.7 5.7 4.7 5.7 4.7 21.3 0 16-.3 18.2-3.6 21.1-2 1.9-2.7 1.8-4.7-.2-3-3.1-3.4-5-3.7-20.6-.3-12-.4-12.8-2.3-15.7-.6-.8-2.4-3-4-4.7-5.5-6-5.6-6.5-6-17-.3-8.6-.5-10.2-2.2-12-2-2.4-4.7-3.1-12.9-3.6-8.4-.5-31.1-.2-33.8.4-5.7 1.4-7.8 4.4-8.9 12.5C9 18 9 48.2 9.3 67.5H9v17.4h14.6L44 85h23V85h.3V67.5h-.1v-4.2c.2-19 .4-26.8 1-27.4.3-.2 3 1.6 4.5 3 2.4 2.5 3 5.6 3 16.5 0 7.5.4 15 1 17.4a8 8 0 0 0 2.4 4.8c3.5 3 7.8 2.9 11.6-.3 4.4-3.7 4.5-5 4.5-35.5V21.1l-5.5-6.3C80.4 4 76.3 0 74.3 0ZM19.1 12H59v29H19ZM86.4 20c.3 0 .6.1 1 .4 1.7.8 2.9 3.6 2.2 5-.5.9-1.2.7-2.3-.4-2.2-2.4-2.5-5-1-5zM5 88v12.3h67.8V87.9Z"/></svg>