<svg xmlns="http://www.w3.org/2000/svg" width="378" height="378" viewBox="0 0 100 100"><path d="M-363 419c-4-4-4-6 1-6 4 0 7-1 6-3 0-2-2-2-5-2-5 0-5 0-8-7-6-10-5-17 2-22s18-3 22 5c2 5 2 9-2 17-3 4-4 8-4 11s-1 5-3 7c-4 4-5 4-9 0zm0-33 7-4 3-1-3-1c-6-2-14 5-14 12 0 4 2 5 3 1l4-7zm409 31c-2-3-7-8-12-11-6-4-7-5-7-8 1-4 3-5 8-3l6 1h3v-16c1-17 2-20 6-20 3 0 5 4 5 12l1 7c2-3 5-3 8 0 2 2 3 3 4 2 1-2 4-2 6 1 1 1 2 2 4 1 4-1 7 3 7 10 1 8-1 18-4 24l-2 5H50l-4-5zm-184 2-1-15c0-13 0-14 2-14s3-1 5-4c2-4 3-4 7-4s4 0 2 4-2 4 3 4 5 0 8-4c2-4 3-4 7-4 5 0 5 0 3 4-3 3-2 4 3 4 4 0 5 0 7-4 3-4 3-4 8-4h4l-2 3c-3 5-3 5 2 5h3v29l-30 1-31-1zm108-1v-2c1-2 4 0 4 2s-4 2-4 0zm10 0 1-2c1-2 3 0 3 2s-3 2-4 0zm12 0c-1-2 2-3 3-1l1 2c-1 1-4 1-4-1zm11 0v-2c1-1 4 0 4 2s-3 2-4 0zm110 0c-1-2 1-5 3-5 2-1 7-11 7-15l-6-6c-5-4-7-5-9-4-4 1-7-2-5-5s5-3 7 0c1 2 3 2 10 2l7-1 3-7c2-7 2-8 1-9-2-2-2-2-1-4s5-2 7 0v3c-2 2-2 3 0 10l3 7 8 1c7 0 8 0 9-2 2-3 6-3 7 0 2 3-1 6-5 5-2-1-4 0-8 4-4 2-6 5-6 6 0 4 4 14 6 15 2 0 3 2 3 4s-1 2-3 2c-3 0-4 0-4-3 0-2-2-4-6-7l-7-4-7 4c-5 3-6 5-7 7 0 3-1 3-3 4l-4-2zm23-20c2 1 2 1 2-1-1-2 0-3 1-5l3-2h-4c-2 0-3 0-3-2l-1-2-1 2c0 2-1 2-4 2h-3l2 2c2 2 2 3 2 5-1 2-1 2 1 1h5zm79 15-7-7-6 7c-7 6-10 7-11 4l6-8 6-7-7-8c-9-9-9-10 2-10h7l8-8c7-7 8-9 7-10-2-2-1-4 1-4s26 23 26 26c0 2-3 3-5 2-1-1-3 0-9 6l-8 8v8c0 5-1 7-2 8-1 0-5-3-8-7zm14-21c4-4 6-7 6-9-1-3-3-3-9 3-7 6-9 9-8 11 2 2 4 1 11-5zm-512 26c-5-2-12-8-15-14l-2-10c0-12 5-22 15-27 4-3 6-3 14-3s9 0 14 3c10 7 13 19 8 30-3 7-13 11-18 7-2-2-2-2-5 0-5 2-9 2-12-1-3-2-3-3-3-9 0-5 0-7 2-10 3-4 7-7 12-8 4-1 12 0 13 2v9c-2 11-1 13 3 9 6-7 2-22-7-25l-9-1c-20 2-27 31-9 40 3 2 14 2 17 0h3c2 3 1 5-1 7-3 1-15 2-20 1zm11-23c2-3 3-11 1-11-3 0-6 3-7 7-1 6 2 8 6 4zm53 17c-3-3-3-9-1-11l7-2c3 0 5-1 9-4 4-5 4-6 4-12 1-6 1-6 4-6 2 0 3 0 4 2 0 3 1 3 4-1 6-6 9-7 17-7 7 1 10 3 10 8s-4 8-9 8c-4 0-5 1-14 10-19 18-18 17-26 17-6 0-8 0-9-2zm29-14 14-14 6-1c4 0 7-2 6-6-1-1-2-2-5-2-10 0-10 0-24 14-13 13-14 13-18 13-5 0-7 2-7 5s3 4 9 4h5zm3 16 4-5c4-4 5-6 2-6l-2-1c0-1 1-2 5-2h5v6l-1 6-1-2c0-4-1-4-5 1-4 3-7 5-7 3zm152-3v-3c1-2 4 0 4 3 0 2-3 2-4 0zm11 1c-1-2 0-5 1-5 2 0 3 2 3 4 0 1-3 2-4 1zm11 0v-3c0-3 3-2 4 1 0 2-2 3-4 2zm11-2 1-3c1-1 5 2 3 4-1 2-3 1-4-1zm-38-7-1-3c0-3 4-2 5 1 0 2-2 3-4 2zm11-1c-1-3-1-4 1-4s4 4 3 5-3 1-4-1zm11 0c-1-2 0-4 2-4 1 0 3 2 3 5 0 1-3 1-5-1zm12 1c-1-2-1-5 1-5 1 0 2 2 2 5h-3zm-42-10c-6-3-8-9-5-16 2-4 7-6 12-6 3 1 3 1 6-2 3-5 8-7 15-7 5 1 6 1 9 5 3 2 4 5 4 7 0 3 0 3 5 3 4 0 5 1 7 3 4 5 3 10-3 13-5 3-44 2-50 0zm-341-6c-1-2 1-3 6-3 3 0 4 1 4 2 1 2 0 2-4 2l-6-1zm50 0c-1-2 1-3 6-3 4 0 5 0 5 2s-1 2-5 2l-6-1zm202-6c-1-2 1-4 3-3 1 1 0 4-1 4l-2-1zm4-7-3-6h5c3 0 4 0 7 3 2 4 3 4 7 3l5-1-2-4c-2-3-3-4-1-4 4-2 7-1 10 3 4 4 4 4 8 3l5-1-2-3c-3-4-3-4 2-5 3-1 4-1 7 3l5 4 1 1-22 4-23 3c-5 1-5 1-9-3zm-244-1c-4-3-4-5-3-6 2-1 10 7 9 8-1 2-3 1-6-2zm31 2 4-5c2-3 3-3 5-2 1 1 1 2-2 5-4 3-7 4-7 2zm147-3c-1-2 1-5 3-5 3 0 4 3 4 5-1 3-7 3-7 0zm-162-6c0-4 1-6 2-6 2 0 2 1 2 5 0 5 0 6-2 6-1 0-2-1-2-5zm-9-28c-6-2-12-7-16-14-3-4-3-6-3-15 0-8 1-10 3-14 4-7 8-11 16-14 11-5 24-3 33 6 5 5 7 9 9 17 2 12-3 24-12 30s-20 8-30 4zm23-4c7-3 11-7 14-14s3-13 0-20c-6-16-25-23-40-15-14 9-17 28-7 41 7 10 21 14 33 8zm-23-3c-6-3-11-9-12-15-1-3-1-4 1-5l3-2-3-1c-2-1-2-2-1-5 1-6 6-12 13-16l6-3 2 3 2 3 2-3c2-3 2-3 7-1 6 3 8 4 12 10 4 5 4 10 1 12l-2 2 2 1c7 3-3 19-14 22-4 1-4 0-6-2l-2-2-1 2c-3 3-3 3-10 0zm5-12 6-3c4 0 8-4 8-7l2-7 2-4-5 2-8 3c-3 1-4 2-5 4l-3 8c-3 7-2 7 3 4zm4-7c-2-3 0-7 4-6 2 1 2 6 0 6h-4zm227 27c-4-1-5-3-2-5 4-2 8-2 8 1 0 2 1 2 5 2 3 0 4 0 4-2 0-3 5-3 9 0l2 2-4 2c-5 2-17 2-22 0zm101-1c-3-1-6-4-8-7-3-3-3-5-4-11 0-8 2-13 12-26a76 76 0 0 0 9-16l3 5 7 11c9 12 11 17 11 25 0 6 0 8-3 12-7 9-17 12-27 7zm13-13c0-3 1-3 3-3 3 0 4-1 4-3 0-3-1-4-4-4-2 0-3 0-3-3s-1-4-4-4c-3-1-4 0-4 3 0 4 0 4-3 4s-5 2-4 5l4 2c3 0 3 0 3 3 0 4 1 5 5 4 2 0 3-1 3-4zm70 12-19-14-2-22 1-20 3 3c7 4 13 4 20-2 3-3 4-3 5-1s8 6 12 6c2 0 5-1 7-3l5-3v40l-4 4c-3 4-20 15-22 15l-6-3zm13-8 10-8c3-4 3-4 3-16l-1-12h-6l-10-2c-2-2-3-2-6 0l-10 2-6 1v25l4 4 15 10 7-4zm-9-7-1-4-2-7c-3-3-3-7 0-10s8-3 10 0c2 2 2 8 0 10l-2 6c0 4 0 5-2 6l-3-1zm72 17c-2-2-3-7-1-9 3-3 10-1 10 4 0 2-4 6-6 6l-3-1zm69-1c-2-2-2-3-2-29s0-26 2-29c2-2 4-2 23-2 20 0 21 0 23 2 3 3 3 3 3 29s0 27-3 29c-2 2-3 2-23 2-19 0-21 0-23-2zm14-9c-1-4-1-5-4-5-5 0-7 1-7 5s1 5 6 5h5zm28 0v-4h-23l-1 4v5h24zm-29-13c0-5 0-5-4-5s-5 0-6 2l1 5c0 2 1 3 5 2 4 0 4 0 4-4zm15 0v-5h-10v10l5-1c4 0 5 0 5-4zm14 0v-5h-10v4c0 5 1 6 6 6h4zm-28-14c-1-4-1-5-4-5-5-1-7 1-7 5s1 5 6 5h5zm14 0c0-5 0-5-5-5-4 0-4 0-5 5v5h10zm14 0c0-5 0-5-5-5-4 0-4 0-4 5l-1 5h10zm0-13v-5h-19c-17 0-18 0-19 2v5l1 3 18-1h19zm-445 49c-4-11-4-11-1-14l8-10 7 10-7 9c-4 5-6 6-7 5zm29-2-22-28c-7-11-6-22 3-28 10-6 21 2 21 14 1 4-4 15-5 15s-3-2-4-5l-4-4 3-4c3-5 3-6-1-8h-6l-3 4c-1 2 4 9 16 23l11 12-3 6-3 6-3-3zm327 2c-2-2-2-7 0-8 2-3 7-2 9 1 2 4-1 8-5 8l-4-1zm-444-3c-6-3-9-10-7-16 3-8 13-11 19-5s6 15-2 19c-4 3-6 3-10 2zm10-6c4-4 3-11-2-13-9-5-16 6-9 13 3 3 7 3 11 0zm-8-5c-1-1 0-3 2-3s3 2 2 3h-4zm34 10c-8-5-9-14-3-20 7-7 19-2 20 7 2 10-9 18-17 13zm11-5c6-4 2-14-6-14-7 0-11 9-5 14 3 3 7 3 11 0zm-8-5v-2c2-2 5-1 5 1-1 2-4 2-5 1zm132 10a403 403 0 0 1 1-56c2 0 4 2 3 6 0 2 0 2 2 2 3-1 10 1 18 7 9 7 13 8 18 8 5-1 5 1 0 4-4 3-13 3-20 2-5-2-11 0-16 5-3 3-3 4-3 13s-1 12-3 9zm-150-9-1-7c-1-5-1-6-6-8-7-4-7-6 0-14 8-7 9-7 13 0 2 3 3 4 6 4l4-1c2-2 3-1 3 4 1 4 1 5-1 5-1 0-2-1-2-3 0-1-1-2-5-2-3 0-5 0-6-3l-2-2-3 3-3 3 4 2 4 3-1 8c0 7 0 9-2 9l-2-1zm396-2-9-39h-4c-5 0-7-2-4-4 2-2 9-2 11 0l2 7 2 5h20c18 0 20 0 21-2h3c2 2 2 3-2 18l-1 3-17 1-18 1-1 4 1 3h17c15 0 17 0 17 2l-18 2-20-1zm25-16c3-1 2-3-1-3-4 0-5 2-2 3l1 1 2-1zm-18-2-3-1-3 1c0 1 1 2 3 2s3-1 3-2zm10 0-3-1-3 1c0 1 1 2 3 2s3-1 3-2zm19 0-3-1-3 1c0 1 1 2 3 2l3-2zm-30-6-3-2c-3 0-4 2-3 3 2 2 6 1 6-1zm11 0c0-2-5-3-7-1-1 1 0 3 4 3l3-2zm10 1c1-2 0-3-3-3-4 0-5 1-4 3h7zm9-1c1-2 0-2-2-2-3 0-4 1-3 3s5 1 5-1zm-427-8-2-4c0-1 3-4 5-4 1 0 4 3 4 5l-2 3c-3 2-3 2-5 0zm-118-37-1-27c0-24 0-25 2-26l5-1c2 0 2-1 3-3 1-4 5-3 6 0 0 4 5 4 6 0 0-3 5-4 6 0s5 4 5 0c0-2 1-3 3-3s3 1 3 3 0 3 3 3l3-3c1-4 6-4 6 0 0 2 0 3 3 3l5 2a240 240 0 0 1 1 52c-1 2-57 2-59 0zm53-29 1-10c0-7-1-8-2-9-2 0-2 1-2 4-1 3-1 3-3 3l-3-3c0-2-1-3-3-4-3 0-3 1-3 4-1 3-1 3-3 3s-2 0-2-3c-1-3-1-4-3-4s-3 1-3 3l-2 4c-2 2-5 0-5-4 0-2 0-3-2-3-3 0-3 1-3 3 0 4-3 6-5 4l-2-4c0-3-2-4-3-1v16c0 1 2 2 5 2 7 1 42 0 43-1zm41 29c-1-4-1-4 3-4s5 0 3 4c0 2-5 2-6 0zm36 1-1-3c0-2 1-2 4-2s3 1 2 4c0 1-4 2-5 1zm55-1 5-2h5v-9c0-8 0-8 2-8s2 0 2 8v9h5l5 2-12 1-12-1zm194-7-9-9-4 2c-5 2-12 2-19-1-15-7-19-27-6-39 5-4 9-6 16-6 8 0 12 2 17 7 7 7 9 16 5 25l-1 5 9 9c8 8 9 9 8 12-1 2-2 3-5 3s-4-1-11-8zm-17-13c16-4 17-27 1-33-8-3-18 1-21 9-3 6-3 10 0 16 2 4 6 7 11 9l4 1 5-2zm-11-4c-5-2-8-8-8-13l1-4 1 5c2 6 10 13 14 12l1 1c0 2-5 2-9-1zm80 24c-2-1-4-2-4-4 0-4 12-6 14-2 2 2 4 2 6 0 1-3 6-3 11-1s5 3 1 6c-4 2-22 3-28 1zm160 0c-1-3 0-4 5-4l6-1 1-12c0-8 0-10-2-12-3-2-2-6 1-9 4-3 5-3 8 0 4 3 4 6 1 10-2 2-2 5-2 12 0 11 0 12 8 12 4 0 4 1 4 3s0 2-15 2l-15-1zm-63-4-1-8c-1-4-1-4-4-2-2 1-2 1-4-1l-2-5-6-5c-4-3-6-4-5-5l1-3c0-1-7-4-12-4h-4l2-3 8-5c4-3 6-3 13-3s9-1 18-5c9-5 19-8 20-6 1 1-4 14-8 22-3 5-3 7-3 14 0 8-2 13-7 19-4 5-6 5-6 0zm1-25c4-3 6-6 6-10-1-2-1-3-4-3-5-1-9 2-10 7-2 3-1 4 0 6 3 3 4 3 8 0zm-275 27c-3-2-4-3-4-5 0-3 12-26 22-42 5-8 9-10 12-7a269 269 0 0 1 25 42c3 5 3 8 0 11-2 1-4 2-27 2l-28-1zm29-10c2-2 1-5-1-6-3-3-7 2-4 6 1 2 3 2 5 0zm0-11 2-10-1-10c-3-2-5-2-7 0s-2 4-1 11l1 9c1 2 5 2 6 0zm-193 16v-11c-1-9 1-31 3-33a244 244 0 0 1 44 1c2 3 3 23 3 33v10h-50zm27-6 2-2c1 0 2-1 1-2 0-2 0-3-1-2l-2-2c-1-3-4-4-4-1l-2 2c-2 0-2 0-2 2l1 3 2 2c1 2 5 2 5 0zm-16-5c0-2-1-3-3-3-4-1-6 2-5 5 1 2 3 2 5 2s3-1 3-4zm35 2c1-4-2-7-5-6-3 2-4 6-2 7 2 2 6 1 7-1zm-1-13c2-2 0-17-2-18-1-1-5-2-18-2l-18 1c-1 1-4 17-3 19h41zm-16-3c0-2 4-5 6-5l6 2c2 3 1 5-1 2-3-2-6-2-8 0s-3 2-3 1zm324 22-16-29c-2-5 1-12 5-17 3-3 5-3 11-3 6-1 8-1 11 2 5 3 8 9 8 15 0 4-2 7-9 19l-9 15-1-2zm7-26c4-4 4-10 0-13-3-4-8-4-12 0s-4 8 0 12 9 5 12 1zm55 22c0-3 3-9 4-9l6 6c0 1-3 3-7 3h-3zm80-1c-3-2-7-13-7-19 0-9 8-20 18-24 5-3 16-2 22 0 9 5 16 16 16 26 0 9-7 20-10 17-1-1-1-3 1-6 5-9 2-22-5-28-10-8-24-6-32 5-4 5-4 15-1 22 2 4 2 5 1 7h-3zm-368-6c0-1-2-2-12-2h-12v-6l1-7 1-1 2-2 2 2 9 1 9-1c2-1 3 0 6 3l5 5-5 5c-4 4-5 4-6 3zm375-3c-4-3-4-13 0-18 2-4 9-8 14-8 9 0 17 8 17 17 0 8-3 12-6 10v-5c1-7-1-13-7-15-8-3-16 4-15 12 2 9 1 12-3 7zm-422-20-4-5 4-5c5-5 6-6 7-3 0 1 2 2 9 2s8 0 9-3c0-2 1-3 2-3 2 0 4 7 4 13v6h-12l-13 1c0 2-1 1-6-3zm-73-10c-1-1 0-5 2-6l17-1c12 1 15 1 16 3v3c0 2-3 2-17 2l-18-1zm10-3c1-1 0-2-4-2s-5 2-3 4c1 2 7 0 7-2zm23 1c0-2 0-3-4-3-3 0-4 1-4 2 0 2 1 3 5 3 3 0 3-1 3-2zm-100-29v-60c2-2 5 0 5 3 0 2 0 3 2 3 4 0 11 4 12 7 3 5 1 8-4 8-3 0-4-1-6-3-3-6-5-5-4 1v5l6 2c8 3 11 7 11 13 0 4-1 5-4 9l-9 5c-4 1-4 1-4 4s-3 5-5 3zm9-17c3-2 3-5 0-7-4-2-4-1-4 4s1 6 4 3zm56 16c-2-2-3-3-3-22 0-18 0-19-2-20l-2-2c0-2 2-2 6-3 5 0 5 0 5-4l1-6c1-3 2-3 14-3 14 0 15 1 15 6 0 6 1 7 7 7 5 0 5 0 5 3 0 2 0 3-2 3s-2 1-2 20-1 20-3 22l-20 1c-16 0-17 0-19-2zm10-22-1-18c-3-2-4 1-4 18l1 17 2 1c2-1 2-3 2-18zm12 0-1-18c-3-2-4 1-4 18l1 17 2 1c2-1 2-3 2-18zm12 0c0-16 0-20-3-19-2 1-2 4-2 18l1 18 2 1c2-1 2-3 2-18zm-5-28c0-4-2-5-11-4-6 0-9 2-7 5 0 2 2 2 9 2h9zm50 51c-2-2-2-3-2-21l1-19-3-2-3-6c-2-10 7-16 14-10 3 2 3 3 3 8 0 4 0 5-3 7-3 3-3 3-2 10 1 12 2 25 1 29s-4 6-6 4zm24 0c-2-1-2-3-2-15l1-15 1-6c0-4 0-5-3-7-2-1-2-2-2-10l1-8 1 7c0 6 0 6 2 6s2 0 2-6l1-7 1 7c0 6 1 6 3 6 1 0 2 0 2-6l1-7 1 8c0 8 0 9-3 10-3 2-3 3-2 8a365 365 0 0 1 0 35c-2 2-3 2-5 0zm23 0c-2-1-2-4-2-28v-26l3-4 3-3c1 0 3 57 2 59s-4 3-6 2zm57 1v-3l-6-4c-8-2-15-9-16-16-1-4-2-5-4-5-4 0-4-5 0-6 2 0 3-1 3-2 0-4 5-13 9-16l9-4 4-3c1-4 6-4 6 0l4 3c8 1 17 10 18 18l2 4h2c1 0 2 1 2 3s0 3-2 3l-3 2c-3 10-9 17-17 20-4 1-5 2-6 4 0 2-3 3-5 2zm10-12c8-3 12-10 12-19 0-12-8-20-20-20-15 0-24 15-18 29 5 10 15 14 26 10zm-10-14c0-1-1-2-3-2-1 0-2-1-2-3s1-2 2-2c2 0 3-1 3-3s0-3 2-3 3 1 3 2c0 2 1 3 2 3 3 1 3 6 0 6l-2 2c0 2-1 2-3 2s-2 0-2-2zm148 24c-1-2-4-4-6-2-2 1-3 0-2-3s-1-6-3-6c-3 0-3-3 0-4 2 0 4-4 2-6-1-2 1-4 3-3 2 2 5 1 6-2s3-3 4 0c0 2 3 4 6 3s4 0 3 2c-2 2-1 6 2 6 3 1 3 4 0 4-2 0-3 3-3 6 1 3-1 5-2 3-2-2-5 0-6 2-1 3-3 3-4 0zm5-10c3-3 0-8-5-7-2 1-2 2-2 4 0 4 4 6 7 3zm82 11c-8-2-15-8-19-16-8-16 0-36 16-43 26-9 51 16 40 42-6 13-22 21-37 17zm11-6c2-2 1-5-2-5s-5 3-2 5h4zm-20-23c0-2-1-5-4-5-2 0-3 3-3 5 1 3 6 3 7 0zm27-4 6-7c0-4-3-3-9 2l-5 6-8-7c-7-8-10-9-11-6-1 1 2 4 7 10 10 10 12 10 20 2zm15 3c0-3-3-4-5-2-3 2-1 5 2 5 2 0 3-1 3-3zm-21-19c1 0 0-4-2-5h-3c-3 2-1 7 3 6l2-1zm-190 45-2-5c0-4 7-10 10-10h3v-14c0-23 2-25 23-25 25 0 26 1 26 28 0 20 0 23-6 26-4 3-7 3-9 0-5-5 1-15 8-15h3v-30l-3-2c-6-5-7-4-7 3v6l-13 1c-17 1-17 0-17 18l-2 15c-1 2-7 6-10 6l-4-2zm-317-4c-5-2-10-7-11-10-1-2 0-3 1-5 3-3 9-2 11 3l3 4c2 2 2 3 2 6-1 4 0 4-6 2zm559-3c-2-2-2-5-2-16 0-14 1-16 5-16l2-2c1-2 8-2 10 0 2 3 8 2 13-1 4-3 6-3 12-3 7 0 8 0 14 4l6 4v14l-1 16c-3 2-57 2-59 0zm45-7c11-4 12-19 1-25-12-6-25 8-17 20 2 3 4 5 8 6 3 1 5 1 8-1zm-9-3c-4-2-6-6-6-9 0-2 1-2 4-2 5 0 7-3 5-6v-3c2-1 8 2 10 5 3 5 1 13-5 15-5 2-4 2-8 0zm-20-14v-5h-13v4c-1 6 0 7 7 7l6-1zM63 149c0-3-4-4-5-1s-4 0-4-3-1-4-4-4-5-2-2-4c2-1 1-5-2-5s-3-5 0-5 4-5 2-5-2-3-1-4h3c2 1 5-1 4-4s2-5 4-2c2 2 4 1 5-2s5-3 5 0 4 4 5 2c2-2 5-1 5 2-1 3 1 5 3 4 3 0 4 2 3 4-2 2-2 4 1 5s3 5 0 5-3 4-1 5c2 2 0 4-3 4s-3 1-3 4-4 6-5 3-5-2-5 1c0 1 0 2-2 2s-3-1-3-2zm8-14c3-3 2-9-1-11s-6-2-9 0c-4 3-4 6-1 10 2 3 8 4 11 1zm-441 5c-8-2-12-11-8-18 1-3 8-7 12-7 3 0 2 7 0 8-3 2-3 5 0 7 2 2 2 3 2 7-1 4-1 4-6 3zm473-61c-2-2 3-2 31-2l30 1c0 2-4 2-30 2l-31-1zm86-2c-2-2-2-4-2-14V53h18l3 3c5 9 15 9 20 1l3-4h18v10c0 10 0 12-2 14l-2 3h-53zm-70-7c-5-4-8-11-8-16v-4h23c21 0 22 1 23 3l2 2 4 3v6c-2 4-5 5-10 5-2 0-5 1-6 3-3 2-5 2-14 2h-10Zm41-7v-4c-2-2-4-2-5 0l-1 5c-1 2-1 2 2 2l4-3zm57-8c0-2-1-2-3-2s-3-1-3-2 1-2 3-2 2 0 3-3c0-4 2-4 3 0 0 3 1 3 3 3l2 2-2 2c-3 0-3 0-3 2s-1 3-2 3l-1-3zm-30-12c0-7 3-9 11-9 6 0 7 0 7-2 0-6 1-7 14-6h11l1 4c0 4 0 4 7 4 9 1 10 2 11 9v5h-9c-10 0-10 0-11-2-2-4-8-8-11-8s-9 4-10 8c-2 2-2 2-11 2h-10zm40-12c0-2 0-2-9-2s-9 0-9 2c0 3 0 3 9 3s9 0 9-3zm-94 11-2-7c-1-2 0-4 1-7l3-3v4l1 7c1 2 1 3-1 6l-2 5v-5zm-11 1-1-7 1-7c1-3 1-3 2 2 2 8 1 11-1 13-1 1-1 1-1-1zm21-3-1-7c-1-1 0-3 1-4l3-3v10c1 3 1 5-1 7-1 2-1 2-2-3z" fill="gray"/><path d="M47 0v13c-15 2-26 14-26 29v28h12v13a18 18 0 0 0 18 17 18 18 0 0 0 18-18 18 18 0 0 0 0-3v-9h12V42c0-15-11-27-26-29V0h-8zm4 21c11 0 21 9 21 21v18h-3V50a18 18 0 0 0 0-4 18 18 0 0 0-18-18 18 18 0 0 0-18 16v16h-3V42c0-11 9-21 21-21zm9 45h5v19c-2 5-4 9-11 11 3-3 7-5 6-11V66z"/></svg>