<svg xmlns="http://www.w3.org/2000/svg" width="378" height="378" viewBox="0 0 100 100"><path d="M-205.3 245.6c-4-4-3.6-6 1.4-5.7 4.5.3 7-1.1 6-3.5-.4-1.2-2-1.7-5.3-1.7-4.5 0-4.7-.2-8.2-6.5-5.5-10-4.7-17.9 2.3-22.7 7-4.8 18.1-2.2 22 5.1 2.5 5 2 9.6-2.2 17a24.5 24.5 0 0 0-3.8 11.1c0 3.3-.8 5-3 7.2-4 3.7-5.2 3.7-9.2-.3zm0-32.4c1.8-1.8 4.9-3.7 6.9-4.3l3.6-1.1-3-.9c-6.2-1.7-13.8 4.6-13.9 11.5 0 4.2 1.5 5 2.5 1.2.5-1.8 2.3-4.7 4-6.4zm409.4 30.2a52.6 52.6 0 0 0-11.6-10.4c-6.5-4.3-7.6-5.5-7.3-7.9.5-4 3.3-5.4 7.7-3.6 2 .8 4.8 1.5 6.3 1.6l2.7.1.5-16.4c.6-17.1 1.4-20 5.6-20 3.5 0 5.3 4.2 5.4 12.4 0 4.3.3 7.2.8 6.5 1.8-2.6 4.7-2.6 7.5.2 2 2 3.1 2.5 4 1.6 1.8-1.8 4.8-1.3 6.5 1 1.1 1.7 2.3 2.1 4.2 1.7 4-1 6.2 2.3 7 9.9.8 7.7-.9 17.5-4 24l-2.5 4.8h-28.8l-4-5.5zm-184 2.6c-.4-.4-.7-7-.7-14.8 0-13 .1-14 2-14 1.4 0 3-1.6 4.6-4.3 2.2-3.9 3-4.4 6.6-4.4 4.6 0 4.8.4 2.6 4.4-2.3 4-2.1 4.4 3.2 4.4 4.5 0 5.1-.4 7.7-4.4 2.4-3.9 3.2-4.4 7-4.4 4.8 0 5.2.7 2.8 4-2.8 3.6-2 4.8 3 4.8 4.2 0 4.9-.4 7.3-4.4 2.5-4 3.1-4.4 7.5-4.4h4.7l-2.3 3.7c-3 4.8-2.9 5 1.6 5h3.8l-.3 14.5L81 246l-30 .3A332 332 0 0 1 20 246zm107.6-1c-.4-.8-.3-2 0-2.7 1-1.5 4 .7 4 2.9 0 2-3.3 1.9-4-.1zm10.9 0c-.4-.8-.3-2 0-2.7 1-1.5 3.9.7 3.9 2.9 0 2-3.2 1.9-4-.1zm11.1 0c-.8-2.2 2.5-3.5 3.7-1.5.5.8.7 1.8.4 2.3-.9 1.5-3.4 1-4-.8zm11.7 0c-.4-1-.4-2 0-2.3 1-1.1 4 .6 4 2.3 0 2.2-3.2 2.2-4 0zm110.1.1c-1-2.4.3-5 2.7-5.7 2.1-.6 6.7-10.5 6.7-14.6 0-1.2-2.4-3.8-6-6.4-4.7-3.5-6.5-4.3-9-3.8-3.9.8-6.8-2-5-4.8a4.2 4.2 0 0 1 7.2-.2c1.4 2 2.5 2.3 9.5 2l8-.3 2.4-7.6c2-6.4 2.2-7.8 1-9-1.8-1.8-1.8-1.8-.9-4 .8-2.3 5.2-2.3 7-.1 1.1 1.3 1 2-.3 3.5-1.6 1.7-1.5 2.6.8 9.5l2.4 7.7 8 .3c6.9.3 8 0 9.4-2 2-2.7 5.4-2.8 6.8-.1 1.7 3.1-1 6-4.6 5.2-2.4-.6-4.1.1-9 3.7-3.5 2.6-6 5.2-6 6.4 0 4.1 4.6 13.8 7 14.8 1.5.7 2.4 2 2.4 3.8 0 2.3-.6 2.7-3.3 2.7-2.8 0-3.3-.4-3.6-3-.3-2.2-2-4.2-6.3-7.3a30.4 30.4 0 0 0-7-4.4c-.7 0-3.8 2-7 4.4-4.3 3.1-6 5.1-6.3 7.3-.3 2.4-1 3.1-3.3 3.4-2 .2-3.3-.3-3.7-1.4zm22.6-20.1c2.2 1.1 2.3 1 1.7-1.4-.5-1.9 0-3 1.7-4.4l2.5-1.9h-3.6c-2.8 0-3.5-.5-3.5-2.2 0-1.2-.5-2.2-1.1-2.2-.6 0-1.1 1-1.1 2.2 0 1.7-.7 2.2-3.5 2.2h-3.6l2.4 1.9c1.8 1.4 2.3 2.5 1.8 4.4-.6 2.4-.5 2.5 1.7 1.4 1.7-1 2.9-1 4.6 0zm78.6 15L366 233l-6.3 6.2c-6.4 6.4-9.3 7.6-10.5 4.6-.4-1.2 1.5-4 5.9-8.6l6.5-6.8-7.6-7.4c-9.2-9-9-10.4 2-10.4h7.3l8-8.1c6.9-6.8 8-8.4 6.8-9.8-1.5-1.8-.8-3.9 1.4-3.9 2.1 0 25.7 23.3 25.7 25.4 0 2.4-2.8 3.6-4.7 2-1-.9-3.2.7-9.2 6.7l-7.8 7.9-.3 7.6c-.2 5.7-.7 7.7-2 8-.8 0-4.6-2.8-8.4-6.6zm14-21.3c4.4-4.2 6.4-7 6.2-8.4-.6-3.8-2.9-3.1-9.1 2.8-6.6 6.2-8.6 9-7.5 10.7 1.3 2.2 4 .9 10.4-5.1zm-511.4 25.7c-5.3-1.6-12.7-8-15.2-13.5-1.1-2.5-2-7-2-10.5 0-11.6 5.2-21 15-26.8 4.5-2.6 6.3-3 13.9-3 8 0 9 .3 13.7 3.5a23.3 23.3 0 0 1 8.7 29.2c-3.5 7.9-13.4 11.7-18.2 7.2-2-2-2.2-2-5.3 0-4.5 2.7-8.6 2.5-12.2-.6-2.7-2.4-3-3.4-3-9.2 0-5 .5-7.3 2.2-9.6a20 20 0 0 1 12-8c4-1 11.7 0 13.2 1.5.4.4.1 4.7-.5 9.7-1.4 10.6-.4 12.7 3.6 8 5.9-6.7 1.8-21.9-6.7-24.7-2.2-.7-6.4-1-9.4-.8-20 2-26.8 30.6-9.4 39.6a27 27 0 0 0 17.3.4c2-1 2.6-1 3.3.2 1.6 2.5 1.1 5.2-1.2 6.4a43 43 0 0 1-19.8 1zm10.4-22.5c2.4-2.8 3.7-11.2 1.6-11.2-3 0-6.2 3.4-7 7-1 6 1.8 8.1 5.4 4.2zm53 17.1c-2.8-2.7-2.9-8.8-.2-11.2 1.2-1 3.9-1.8 6.4-1.8 3.6 0 5-.8 8.8-4.7 4.2-4.2 4.6-5.1 4.9-11.1.3-6.5.3-6.6 3.5-6.6 2.5 0 3.4.6 3.8 2.5.6 2.5.7 2.5 4.4-1.4 5.7-5.9 8.8-7.2 16.3-6.8 7.9.5 11 2.8 11 8 0 4.6-4.2 8-9.7 8-3.5 0-5.1 1.2-13.8 9.6-18.6 18-18 17.7-26.1 17.7-5.6 0-7.5-.4-9.3-2.2zm29-14.2a321 321 0 0 1 14.7-14.2c.9-.5 3.3-1 5.5-1 4.5 0 6.9-2.1 5.9-5.4-.6-1.7-1.7-2.2-4.7-2.3-10.1-.3-9.9-.4-24.2 13.8-13 12.8-13.9 13.5-18 13.5-4.8 0-7 1.5-7 4.6 0 2.7 3 4 9 4.1h5.4zm3.7 15.5c0-.4 1.7-2.5 3.8-4.5 3.8-3.7 4.5-6 1.7-6-.8 0-1.7-.6-2-1.4-.3-1 1.2-1.3 5.1-1.3h5.6v6c0 3.2-.5 6-1.1 6-.6 0-1.1-1.3-1.1-2.8 0-3.6-1-3.4-5.4 1.1-3.5 3.6-6.6 5-6.6 3zm151.4-3c-1-1.2-1-2-.1-2.8 1.4-1.5 4.5.6 4.5 3 0 2-2.6 2-4.4-.1zm11.7 1c-1.3-1.3-.7-4.7.8-4.7 1.4 0 2.8 2.2 2.8 4.4 0 1.2-2.5 1.4-3.6.3zm11 0c-.5-.4-.8-1.6-.8-2.8 0-3 3.7-2 4.1 1.1.4 2.4-1.7 3.4-3.4 1.7zm10.7-1c-.4-1-.2-2.4.4-3 1.5-1.5 5 1.8 4 3.6-1.2 1.7-3.6 1.4-4.4-.7zm-38-7.7c-.4-.4-.8-1.7-.8-2.8 0-3 3.8-2 4.2 1 .3 2.4-1.8 3.5-3.4 1.8zm10.8-1c-1-2.7-.8-3.7 1-3.7 1.7 0 4.1 3.7 3 4.7-1.2 1.3-3.3.8-4-1zm11.4.1c-1.5-1.7-.7-3.8 1.5-3.8 1.4 0 2.8 2.2 2.8 4.4 0 1.6-2.9 1.2-4.3-.6zm11.5.9c-1.3-1.3-.7-4.7.8-4.7s2.9 2.2 2.9 4.4c0 1.2-2.6 1.4-3.7.3zm-41.7-10.1c-6.5-3-8.6-9-5.3-15.4 2.2-4.2 7.2-6.7 11.8-5.9 3 .6 3.8.2 6-2.7 3.7-5 8.2-7 15.3-6.3 5.2.4 6.4 1 9.6 4.4 2.4 2.7 3.6 5 3.6 7.3 0 3.1.2 3.3 4.8 3.3 4 0 5.3.5 7.1 2.8 3.8 4.9 2.6 10-3.2 13-5 2.5-43.7 2.2-49.7-.5zm-341-5.6c-1.2-2 1.2-3.4 5.6-3 3 .3 4.4 1 4.6 2.3.3 1.6-.4 1.9-4.5 1.9-2.7 0-5.3-.6-5.7-1.2zm50.2 0c-1.3-2 .7-3.2 5.5-3.2 4.1 0 4.9.3 4.9 2.2 0 1.8-.8 2.2-4.9 2.2-2.6 0-5.1-.5-5.5-1.1zm201.5-6.6c-1-1.8 1.4-3.9 3-2.3 1.2 1.2.4 3.5-1.3 3.5-.5 0-1.3-.5-1.7-1.2zm4.5-6.8c-2-2.4-3.5-4.8-3.2-5.3.3-.5 2.4-.8 4.7-.8 3.5 0 4.7.6 7 3.7 2.7 3.4 3.2 3.6 7.5 3.1 2.6-.3 4.9-.8 5-1 .3-.2-.8-2-2.3-4-2.4-3.2-2.6-3.9-1.2-4.5 4-1.5 7-.5 10.4 3.3 3.3 3.5 4 3.8 8 3.1a26 26 0 0 0 4.7-1c.2-.2-.7-1.9-2-3.7-2.9-3.8-2.8-4 1.8-5 3-.6 4-.2 7.6 3.7 2.2 2.4 4.4 4.1 5 3.8.5-.3.9-.1.9.5 0 1.4-2.5 2-22.3 4.5-9.6 1.2-19.8 2.7-22.7 3.2-5.2.9-5.2.8-8.9-3.6zm-244.8-.6c-3.3-3.3-3.9-5-2.2-6 1.5-.9 9.2 6.6 8.3 8-1.1 1.9-2.7 1.4-6-2zm31.7 1.7c0-.8 1.6-3 3.5-4.9 2.7-2.6 3.8-3.1 5-2.1 1.2 1 .8 1.8-2.1 4.8-3.7 3.8-6.4 4.7-6.4 2.2zm146.4-2.5c-1-2.3 1-5.3 3.5-5.3 2.4 0 4.3 3 3.4 5.3-.9 2.4-6 2.4-7 0zm-161.2-6.6c0-4 .5-5.3 2-5.6 1.6-.3 2 .5 2 5.2s-.4 5.5-2.1 5.5c-1.8 0-2-.7-2-5.1zm-9.1-27.5a33.3 33.3 0 0 1-16-13.9c-2.8-4.7-3.1-6.2-3.1-15s.3-10.4 3-14.8c4-6.8 7.9-10.2 15.4-13.6a29.8 29.8 0 0 1 33.6 6.5 25 25 0 0 1 8.3 16.5c2.2 11.8-2.6 24-11.6 30.3a32 32 0 0 1-29.6 4zm22.4-3.8c7-3.2 10.8-7.2 14.2-14.5 3.2-7 3.3-12.5.3-20.4a28 28 0 0 0-39.8-14.2 28 28 0 0 0-7.7 41 27.1 27.1 0 0 0 33 8.1zm-22.6-3.7a24.7 24.7 0 0 1-12.5-14.8c-.5-2.5-.2-3.5 1.8-5l2.5-2-2.5-1.2c-2-1.1-2.3-2-1.8-4.6 1.2-6 6.7-12.5 13.3-15.7l6.2-3 2.1 2.6 2.1 2.6 2-2.6c2-2.6 2-2.6 6.7-.7 5.6 2.2 7.8 4 12 9.8 3.7 5 4 9.7.8 12l-2.3 1.5 2.3 1.2c6.7 3.6-3 18.9-13.9 21.9-3.5 1-4.2.8-5.8-1.4l-1.9-2.4-1.7 2.4c-2.2 3.1-2.4 3.1-9.4-.6zm5-12.2c1.8-1.2 4.5-2.1 6-2.1 3.5 0 7.7-4.1 7.7-7.6 0-1.5 1-4.5 2.2-6.5 1.2-2 2-3.8 1.8-4.1-.3-.3-2.6.5-5.3 1.6a82.7 82.7 0 0 1-8 3.1c-2.2.7-3.5 2-4.2 4.2-.5 1.8-1.9 5.4-3 8-3 6.6-2.6 7 2.8 3.4zm4-6.7c-2.6-2.7 0-7 3.5-5.7 2.3.9 2.3 5.5 0 6.3-2.1.9-1.9.9-3.4-.6zM24 165.8c-4-1.3-4.6-3.5-1.4-5.2 3.6-2 7.7-1.4 7.7 1 0 1.9.7 2.3 4.3 2.3 3.7 0 4.4-.4 4.4-2.2 0-3 5.3-3 8.8-.1l2.6 2-4.2 1.8a44 44 0 0 1-22.2.4zm101-1.1a29.4 29.4 0 0 1-8-6.6c-2.7-3.4-3.4-5.4-3.7-11.2-.6-8.3 1.7-13.6 11.3-26.2a76 76 0 0 0 9.7-15.7c.3 0 1.4 2.1 2.5 4.7 1.2 2.6 4.3 7.6 7 11.2 9.3 12.3 11.2 16.5 11.2 24.6 0 6.3-.4 7.9-3.3 12-6.5 9.3-17 12.1-26.6 7.2zm13-12.6c.2-3 .7-3.5 3.5-3.5s3.2-.4 3.2-3.3-.4-3.2-3.2-3.2c-2.8 0-3.3-.5-3.6-3.6-.3-3.1-.7-3.6-3.8-3.9-3.4-.3-3.6-.1-3.6 3.6 0 3.5-.2 3.9-3.1 3.9-3.3 0-5 2-3.8 4.9.3.9 2 1.6 3.8 1.6 2.7 0 3.1.4 3.1 3 0 4 .9 4.8 4.3 4.4 2.3-.3 2.9-1 3.1-3.9zm69.8 11.7a71 71 0 0 1-18.4-14.5c-1.3-1.8-1.8-6.5-2-21.7a128 128 0 0 1 .3-19.3c.4 0 2.2 1 3.9 2.2 6.5 4.6 12.8 4.2 19.1-1.4 3.5-3 4-3.2 5-1.6 1.4 2.6 8.9 6.2 12.7 6.2 1.7 0 5-1.2 7.2-2.7a29 29 0 0 1 4.5-2.7c.3 0 .5 8.8.5 19.6v19.7l-4.3 4.6a104 104 0 0 1-22 14.9c-.2 0-3.2-1.5-6.5-3.3zm13.3-8.3c3.6-2.2 8-5.7 9.8-7.7 3.2-3.7 3.2-3.8 2.9-15.7l-.3-12-6.7-.3c-4-.1-7.8-1-9.5-2-2.7-1.8-3.1-1.8-6.3-.2-2 1-6.3 2-9.8 2.4l-6.4.6v25.6l4.1 3.3c4 3.2 14.5 10 15.3 10 .2 0 3.4-1.8 7-4zM212 149c-.4-.4-.7-2.4-.7-4.5 0-2-1-5-2.2-6.5-2.8-3.5-2.8-6.9 0-9.9 2.7-3 7.7-3.1 10.2-.4 2.2 2.5 2.3 8.2.2 10-.9.7-1.7 3.6-2 6.4-.2 4.1-.7 5.1-2.5 5.4-1.2.1-2.5 0-3-.5zm72.5 16.4c-2.7-1.8-3.3-6.8-1.1-9 3-3 9.6-.2 9.6 4.2 0 1.9-3.9 6.5-5.4 6.5a11 11 0 0 1-3-1.7zm68.6-.5c-2.3-2.2-2.4-2.9-2.4-28.8 0-26 .1-26.7 2.4-28.9 2.3-2 3.8-2.2 23.2-2.2 19.5 0 21 .2 23.3 2.2 2.3 2.2 2.4 2.9 2.4 28.9s-.1 26.6-2.4 28.8c-2.3 2-3.8 2.2-23.3 2.2-19.4 0-21-.1-23.2-2.2zm13.8-9c-.3-4.3-.6-4.6-4-5-4.4-.4-6.7 1.4-6.7 5.3 0 4 .6 4.4 6.2 4.4h4.8zm28.3 0-.3-4.6h-22.9l-.3 4.7-.4 4.6h24.2zm-28.7-13.3c0-4.3 0-4.4-4.6-4.7-4-.3-4.6 0-5.2 2.4a11 11 0 0 0 0 5c.6 2 1.5 2.3 5.3 2 4.5-.3 4.5-.4 4.5-4.7zm14.5-.3.4-4.6h-10v10l4.7-.4c4.6-.3 4.6-.4 5-5zm14.4.3v-4.9h-9.8v4.2c0 5.2.5 5.6 5.6 5.6h4.2zm-28.5-13.9c-.3-4.4-.6-4.6-4-5-4.4-.4-6.7 1.4-6.7 5.2 0 4 .6 4.4 6.2 4.4h4.8zm14.1 0c-.3-4.6-.3-4.6-4.7-4.6-4.3 0-4.3 0-4.6 4.6l-.4 4.6h10zm14.2 0c-.3-4.6-.3-4.6-4.7-4.6-4.3 0-4.3 0-4.7 4.6l-.3 4.6h10zm-.3-13.3V111l-18.2-.3c-17.7-.3-18.3-.2-19.5 2-.9 1.8-1 3 0 5l1.1 2.6 18.3-.3 18.3-.3zm-444.5 49.5c-4.2-11.3-4.1-11-1.3-14.6 5.9-7.4 8-9.8 8.5-9.3 3.3 3.8 6.3 8.7 6.2 9.9 0 .8-2.9 4.7-6.4 8.6-4.6 5-6.6 6.6-7 5.4zm28.4-2.5c-5-5.5-18.5-22.6-21.7-27.4-7-10.8-6-22.3 2.8-27.7 9.8-6 21.8 1.4 21.8 13.6 0 4.4-4 14.6-5.8 14.6-.5 0-2.4-2-4.2-4.4l-3.3-4.5 2.7-3.9c3-4.6 3-5.7-1-7.7-2.4-1.1-3.5-1.1-6 0-1.6.8-3 2.3-3.3 3.3-.4 2.5 4.4 9.4 16.8 23.8l10.2 12-2.2 6c-1.2 3.2-2.6 6-3 5.9-.4 0-2.1-1.7-3.8-3.6zm327.5 2.3c-1.7-1.7-1.7-6.6 0-8.3 2.4-2.3 7.3-1.5 8.7 1.5 1.8 4-.3 8.1-4.3 8.1-1.7 0-3.7-.6-4.4-1.3zm-444.3-3a13.2 13.2 0 0 1-7-16c2.7-8.3 13.4-11 19.5-4.9 6.2 6.1 5.3 14.6-2 19.5-3.9 2.6-6.8 3-10.5 1.4zm9.9-6c4.3-4.3 3.4-10.4-1.8-13.2-8.6-4.4-16.1 6.3-9.2 13.2 3.4 3.4 7.5 3.4 11 0zm-7.7-5c-1-1.4.3-3.2 2.1-3.2 1.6 0 3 2.7 2 3.7s-3.4.8-4.1-.4zm33.5 10c-7.6-4.8-8.6-14-2.3-20 7-6.4 18.7-2.4 20.2 7 1.6 10.5-9.2 18.4-17.9 13zm11-4.6c6-4.7 2.5-14-5.2-14-7.6 0-11 8.3-5.6 13.6 3.3 3.3 7 3.4 10.8.4zm-7.5-5.4c-.4-.6-.2-1.7.4-2.3 1.4-1.5 4.9-.2 4.3 1.6-.6 1.8-3.7 2.3-4.7.7zm132 10.1a403 403 0 0 1-.8-28c-.2-25.4 0-27.3 1.7-27.6 2.6-.5 4 1.8 3.3 5.1-.5 2.3-.3 2.5 1.7 2 3.4-.9 10 1.8 17.7 7.2 9.9 7 13.5 8.7 18.4 8.2 5-.5 5 .8-.1 4.3-4 2.7-12.8 3.3-19.6 1.4-5.4-1.6-11.8.4-16.1 5-3.5 3.7-3.6 4-3.6 13.5 0 8.6-.9 11.7-2.6 9zm-150.5-9.1a41 41 0 0 1-.8-7c-.3-5.2-.4-5.4-5.5-8-7.6-4.1-7.6-5.8 0-13.5 7.5-7.4 8.6-7.5 12.8-.8 2.2 3.4 3.5 4.4 5.8 4.4 1.7 0 3.7-.6 4.4-1.3 1.7-1.8 2.5-.7 3.2 4.5.4 3.5.2 4.4-1.1 4.4-1 0-2-1-2.2-2.1-.5-1.8-1.5-2.2-5-2.2-3.4 0-4.8-.6-6.3-2.8l-2-2.8-3.1 3.2-3 3.2 3.9 2.3 3.9 2.3-.3 8.4c-.3 7-.7 8.5-2.2 8.9-1.1.2-2.2-.3-2.5-1.1zm396.8-1.8c-.5-.8-9.4-38-9.4-39.2 0-.1-2-.2-4.3-.2-5 0-6.7-1.9-3.8-4 2.5-1.9 9.7-2 11.2 0 .7.7 1.7 4 2.4 7l1.2 5.7H297c18 0 20.4-.2 21.7-2 1.2-1.6 1.6-1.7 3-.2 1.6 1.7 1.5 2.6-2.4 18l-.8 3.2-17.4.3c-9.5.2-17.8.8-18.3 1.3-.5.6-.7 2.3-.3 3.8l.7 2.8 17.2.3c14.3.2 17.1.5 17.1 1.9s-3 1.7-18.7 2c-10.3 0-19-.2-19.3-.7zm24.8-16.1c2.9-1.1 2-2.6-1.5-2.6-3.3 0-4.4 1.5-2 2.5l1.6.6 2-.5zm-17.9-1.5c0-.6-1.4-1.1-3.2-1.1-1.8 0-3.3.5-3.3 1 0 .7 1.5 1.1 3.3 1.1 1.8 0 3.2-.4 3.2-1zm9.9 0c0-.6-1.5-1.1-3.3-1.1-1.8 0-3.3.5-3.3 1 0 .7 1.5 1.1 3.3 1.1 1.8 0 3.3-.4 3.3-1zm18.5 0c0-.6-1.2-1.1-2.7-1.1-1.5 0-2.8.5-2.8 1 0 .7 1.3 1.1 2.8 1.1 1.5 0 2.7-.4 2.7-1zm-30-6.6c0-1-1.2-1.8-3-2-2.9-.3-4.1 1.6-2.2 3.5 1.3 1.3 5.2.2 5.2-1.5zm11 0c0-1.9-4.7-2.8-6.3-1.3-1.8 1.8.2 3.6 3.3 3.3 1.7-.2 3-1 3-2zm10.1.7c1.6-1.9.5-2.9-3.1-2.9s-4.7 1-3.1 3a4.2 4.2 0 0 0 6.2 0zm9.8-1c.2-1.4-.4-1.9-2.4-1.9-3 0-4.5 1.5-3.4 3.4 1.1 1.7 5.4.7 5.8-1.5zm-427.5-8c-1-.9-1.7-2.3-1.7-3.1 0-1.7 3-5 4.4-5 1.7 0 4.3 3.4 4.3 5.6 0 1-1 2.5-2 3.1-2.8 1.5-3 1.5-5-.5zm260.5-44-8.5-8.9-4 2a23.3 23.3 0 0 1-18.7-.6 23.7 23.7 0 0 1-6.3-39c4.6-4.4 8.7-6 15.7-6 8-.1 12.7 1.8 17.7 7.2 6.5 7.1 8.3 16 5 25.1l-1.5 4.4 9 9c8.3 8.4 8.8 9.1 7.8 12-.8 2.2-1.9 3-4.4 3.3-3 .3-4.4-.8-11.8-8.5zm-16.4-12.1c16-4 16.7-27.2 1-33.2-8.3-3.2-17.6.6-21.3 8.7a16.5 16.5 0 0 0 0 15.5c2.3 5 5.8 7.9 11.3 9.2l3.8.9c.2 0 2.6-.4 5.2-1.1zm-11.5-4a14 14 0 0 1-7.4-13.2l.4-4 1.3 4.5c1.8 6 10.2 13.5 14.2 12.6.7-.1 1.3.3 1.3.9 0 1.8-5.7 1.3-9.8-.9zm80.6 23.5c-2.6-1-3.8-2-3.8-3.5 0-4.6 11.4-7 13.7-2.8 1.4 2.8 4 2.8 5.7 0 1.6-2.6 5.8-2.8 11.2-.6 4.5 1.9 4.7 3.2.9 5.7-3.7 2.4-22 3.2-27.7 1.2zm159.6-.2c-1-2.7.6-4 5.4-4 2.5 0 5.2-.5 6-1.2.7-.9 1.2-5 1.2-11.3 0-8.6-.3-10.2-2.2-12-3-2.7-2.7-6.4.7-9.1 3.6-2.9 4.9-2.9 8.5 0 3.4 2.7 3.6 6.2.6 10-1.7 2.3-2.1 4.4-2.1 12 0 10.6.5 11.4 7.6 11.9 4 .3 4.9.7 4.9 2.5 0 2-.8 2.2-15 2.5-12.4.2-15.1 0-15.6-1.3zm-62.6-3.7c0-2.2-.5-5.9-1.1-8.1-1.1-4-1.2-4-3.7-2.4-2.3 1.5-2.6 1.4-4-.9-1-1.3-2-3.3-2.4-4.4-.4-1-3.2-3.5-6.2-5.3-4-2.5-5.3-4-4.9-5.2l.9-2.7c.3-1.4-6.9-3.7-11.7-3.8l-4.3-.1 2.6-2.8c1.5-1.6 4.9-4.2 7.6-5.8 4-2.4 6.3-2.9 13-3 7.4 0 9.2-.5 17.5-4.6 9.8-4.8 19-7.7 20.3-6.3 1.2 1.1-3.4 14.5-7.5 22-3 5.4-3.5 7.7-3.6 14.1-.1 8.4-2 13.7-6.7 19.6-4 5-5.8 5-5.8-.3zm.8-25.2c4.2-2.6 6-5.8 5.6-9.7-.3-2.4-1-3-4-3.3-4.7-.4-8.4 2.1-10 7-1.1 3.3-1 4.2.6 6 2.4 2.6 3.4 2.6 7.8 0zM212.6 71c-5-7.9-14.9-26.2-15.8-29.4-1.5-5.1.8-12 5.7-16.7 2.8-2.7 4.3-3.2 10.6-3.6 6.3-.3 7.8 0 11 2.2 4.8 3.3 7.8 9 7.8 15 0 4-1.4 7.1-8.5 19.3-4.6 8-8.7 14.5-9.2 14.5-.4 0-1.1-.6-1.6-1.3zm7.9-26.4a9.3 9.3 0 0 0 0-13.2c-3.8-3.7-8.6-3.5-12.7.5-4.1 4.1-4.1 8 0 12.2 4 4 9 4.2 12.7.5zm55 22c0-2.5 2.3-8.4 3.2-8.4 1.3 0 6.6 4.4 6.6 5.4 0 1.2-2.8 2.7-6.9 3.7-2.1.5-3 .3-3-.8zm79.2-1c-2.7-2-6.2-12.5-6.2-18.3 0-9.7 7.7-20.8 17.2-24.8 5.7-2.4 16.8-2 22.6.8 9 4.3 15.7 15.2 15.7 25.2 0 9-6.8 20.7-10.1 17.4-.9-.9-.5-2.6 1.2-6.1 4.6-9.4 2.3-21.8-5-28-10-8.4-23.9-6.3-32.3 4.9-3.4 4.6-3.7 15.6-.6 22 2.1 4.4 2.2 5.3.9 6.6-1.3 1.3-2 1.3-3.4.2zm7-8.7c-3.3-3.4-3.2-12.9 0-18 2.5-4.2 9.3-8 14.3-8 9.2 0 17.1 8 17.1 17.2 0 7.3-3 12.2-6.4 10.1-1-.6-1-2 0-5.8 1.7-6.9-1-12.7-7-14.7-8-2.6-16 4.2-14.4 12.2 1.8 9 .5 11.5-3.7 7z" fill="gray"/><text xml:space="preserve" style="line-height:1.25;-inkscape-font-specification:'HoloLens MDL2 Assets'" x="44.8" y="49.9" font-weight="400" font-size="10.6" font-family="HoloLens MDL2 Assets" stroke-width=".3"/><path d="M50.1 7.4.3 93.7H100Zm.5 24.2c6.9 0 10.3 4 10.3 11.9A96.6 96.6 0 0 1 54 67.2a4.7 4.7 0 0 1-4.2 2.2c-1.6 0-2.9-.8-3.9-2.5-.3-.4-.9-2-1.9-4.5-3.2-8.5-4.8-15-4.8-19.4 0-4.1.9-7 2.6-8.8 1.8-1.7 4.8-2.6 8.8-2.6zm-.4 42c2 0 3.8.7 5.3 2.2a7 7 0 0 1 2.2 5.2c0 2-.7 3.9-2.2 5.3a7.4 7.4 0 0 1-5.3 2.2c-2.1 0-3.9-.7-5.4-2.2a7.2 7.2 0 0 1-2.2-5.3 7 7 0 0 1 2.2-5.2 7.3 7.3 0 0 1 5.4-2.2z"/></svg>