<svg xmlns="http://www.w3.org/2000/svg" width="378" height="378" viewBox="0 0 100 100"><path d="M367.7 73.5A52.6 52.6 0 0 0 356 63c-6.5-4.3-7.6-5.5-7.3-7.8.5-4.1 3.3-5.4 7.6-3.6 2 .8 4.8 1.5 6.3 1.6l2.7.1.6-16.5c.6-17 1.4-20 5.5-20 3.5 0 5.4 4.2 5.4 12.5 0 4.2.4 7.1.8 6.5 1.8-2.7 4.8-2.6 7.5.2 2 2 3.2 2.4 4 1.6 1.9-1.9 4.9-1.4 6.6 1 1 1.7 2.2 2.1 4.2 1.6 3.9-1 6.2 2.3 7 10 .8 7.7-.9 17.4-4.1 24l-2.4 4.7h-28.9l-4-5.4zm-184 2.5c-.5-.4-.8-7-.8-14.7 0-13.1.1-14 2.1-14 1.3 0 3-1.6 4.6-4.4 2.2-3.8 2.9-4.3 6.6-4.3 4.6 0 4.8.4 2.5 4.3-2.3 4-2 4.4 3.3 4.4 4.5 0 5-.3 7.6-4.4 2.5-3.8 3.2-4.3 7.1-4.3 4.7 0 5.2.6 2.8 3.9-2.8 3.6-2 4.8 3 4.8 4.2 0 4.8-.4 7.3-4.4 2.4-4 3-4.3 7.4-4.3h4.7l-2.2 3.7c-3 4.8-3 5 1.5 5h3.9l-.3 14.4-.3 14.5-30 .3a332 332 0 0 1-30.8-.5zm107.5-.9c-.3-.8-.3-2 .1-2.7 1-1.5 3.9.6 3.9 2.8 0 2-3.2 2-4 0zm11 0c-.4-.8-.4-2 0-2.7 1-1.5 3.9.6 3.9 2.8 0 2-3.2 2-4 0zm11 0c-.8-2.2 2.6-3.6 3.8-1.6.5.8.7 1.9.4 2.4-1 1.4-3.5 1-4.1-.8zm11.8 0c-.4-1-.4-2 0-2.4 1-1 4 .6 4 2.4 0 2.1-3.2 2.1-4 0zm110 0c-.9-2.4.4-5 2.8-5.7 2-.5 6.6-10.5 6.6-14.5 0-1.2-2.4-3.9-5.9-6.5-4.7-3.4-6.5-4.2-9-3.7-4 .8-6.8-2-5-4.8a4.2 4.2 0 0 1 7.2-.2c1.4 2 2.5 2.2 9.5 2l7.9-.4 2.4-7.5c2.1-6.5 2.3-7.8 1-9.1-1.7-1.7-1.7-1.7-.9-4 .9-2.2 5.2-2.2 7 0 1.1 1.3 1 2-.3 3.5-1.5 1.7-1.4 2.6.8 9.5l2.5 7.6 7.9.3c7 .3 8.1 0 9.5-1.9 2-2.8 5.3-2.9 6.8-.2 1.7 3.2-1 6.1-4.7 5.2-2.3-.6-4 .2-8.9 3.7-3.5 2.6-6 5.3-6 6.5 0 4 4.5 13.7 7 14.8 1.5.7 2.3 2 2.3 3.8 0 2.3-.5 2.7-3.3 2.7-2.7 0-3.3-.5-3.6-3-.2-2.2-2-4.2-6.2-7.4a30.4 30.4 0 0 0-7-4.3c-.7 0-3.9 2-7.1 4.3-4.3 3.2-6 5.2-6.2 7.4-.3 2.3-1 3-3.4 3.3-2 .3-3.2-.2-3.6-1.3zm22.7-20c2.1 1 2.3 1 1.6-1.4-.5-1.9 0-3 1.8-4.5l2.4-1.8H460c-2.8 0-3.6-.5-3.6-2.3 0-1.2-.5-2.2-1-2.2-.7 0-1.1 1-1.1 2.2 0 1.8-.8 2.2-3.6 2.2h-3.5l2.4 2c1.8 1.3 2.2 2.5 1.7 4.4-.6 2.4-.4 2.5 1.7 1.3 1.8-1 3-1 4.7 0zM536.3 70l-6.8-6.8-6.3 6.2c-6.5 6.4-9.4 7.6-10.5 4.5-.5-1.1 1.5-4 5.8-8.5l6.6-6.8-7.7-7.4c-9.2-9-8.9-10.4 2.1-10.4h7.3l8-8.1c6.8-6.9 7.9-8.4 6.7-9.8-1.5-1.8-.7-4 1.4-4 2.2 0 25.8 23.4 25.8 25.5 0 2.4-2.9 3.5-4.7 2-1.1-1-3.3.7-9.2 6.7l-7.8 7.8-.3 7.6c-.3 5.8-.8 7.7-2 8-.9.1-4.7-2.8-8.4-6.5zm13.9-21.3c4.4-4.2 6.5-7 6.3-8.3-.6-3.9-3-3.2-9.1 2.7-6.6 6.2-8.6 9-7.6 10.8 1.4 2.2 4 .9 10.4-5.2zm-448 20.4c-2.7-2.8-2.8-8.8-.1-11.3 1.1-1 3.8-1.8 6.3-1.8 3.6 0 5-.7 8.8-4.6 4.2-4.3 4.6-5.2 5-11.2.2-6.4.3-6.5 3.5-6.5 2.4 0 3.3.6 3.8 2.5.5 2.5.7 2.4 4.4-1.5 5.6-5.8 8.8-7.1 16.3-6.7 7.8.5 11 2.7 11 8 0 4.6-4.3 8-9.8 8-3.5 0-5 1.1-13.8 9.6-18.6 18-18 17.7-26 17.7-5.7 0-7.6-.5-9.3-2.2zm29-14.3A321 321 0 0 1 146 40.7c.8-.6 3.3-1 5.4-1 4.6 0 7-2.2 6-5.4-.6-1.7-1.8-2.3-4.8-2.4-10-.3-9.8-.4-24.2 13.9-13 12.8-13.9 13.5-18 13.5-4.7 0-7 1.5-7 4.5 0 2.8 3 4.1 9.1 4.2h5.4zm3.8 15.6c0-.5 1.7-2.5 3.8-4.6 3.8-3.7 4.4-6 1.6-6-.8 0-1.6-.6-1.9-1.3-.3-1 1.1-1.4 5-1.4h5.6v6c0 3.3-.5 6-1 6-.7 0-1.1-1.2-1.1-2.7 0-3.7-1.1-3.5-5.5 1-3.5 3.6-6.5 5-6.5 3zm151.4-3c-1-1.2-1-2-.2-2.9 1.5-1.4 4.6.7 4.6 3.1 0 2-2.7 2-4.4-.2zm11.7 1c-1.4-1.3-.8-4.7.8-4.7 1.4 0 2.8 2.2 2.8 4.4 0 1.2-2.6 1.3-3.6.3zm10.9 0c-.4-.4-.8-1.7-.8-2.8 0-3 3.8-2 4.2 1 .3 2.4-1.8 3.5-3.4 1.8zm10.8-1.1c-.4-1-.2-2.3.4-3 1.4-1.4 5 1.9 3.9 3.6-1.1 1.8-3.6 1.4-4.3-.6zm-38-7.6c-.5-.4-.8-1.7-.8-2.8 0-3 3.7-2 4.1 1 .4 2.4-1.7 3.4-3.4 1.8zm10.7-1c-1-2.8-.7-3.8 1-3.8 1.8 0 4.1 3.7 3 4.8-1.2 1.2-3.3.7-4-1zm11.4.1c-1.5-1.8-.6-3.9 1.6-3.9 1.3 0 2.7 2.3 2.7 4.5 0 1.5-2.8 1.2-4.3-.6zm11.6.9c-1.3-1.4-.8-4.8.8-4.8 1.4 0 2.8 2.2 2.8 4.5 0 1.1-2.5 1.3-3.6.3zm-41.7-10.2c-6.5-2.9-8.6-9-5.3-15.3 2.2-4.2 7.2-6.8 11.7-6 3 .6 3.9.3 6-2.6 3.7-5 8.3-7 15.3-6.4 5.2.5 6.5 1 9.6 4.5 2.5 2.7 3.7 5 3.7 7.2 0 3.2.2 3.3 4.8 3.3 4 0 5.2.6 7 2.9 3.9 4.8 2.6 10-3.1 13-5 2.5-43.8 2.1-49.7-.6zm-89.3-12.1c-1.1-1.8 1.4-3.9 2.9-2.4 1.3 1.3.5 3.6-1.2 3.6-.5 0-1.3-.5-1.7-1.2zm4.5-6.8c-2-2.5-3.5-4.9-3.2-5.3.3-.5 2.4-.9 4.7-.9 3.4 0 4.6.7 7 3.7 2.6 3.5 3.1 3.7 7.5 3.2 2.5-.4 4.8-.8 5-1 .3-.2-.8-2-2.4-4.1-2.4-3.2-2.6-3.8-1.1-4.4 3.9-1.5 7-.5 10.4 3.2 3.2 3.6 3.9 3.8 8 3.2a26 26 0 0 0 4.7-1c.2-.3-.7-2-2.1-3.8-2.8-3.8-2.8-4 1.9-5 3-.6 3.9-.1 7.5 3.8 2.2 2.4 4.5 4 5 3.8.5-.4 1-.2 1 .4 0 1.5-2.5 2-22.4 4.5-9.6 1.3-19.8 2.7-22.6 3.2-5.2 1-5.3.9-9-3.5zm-66.8-1.4c-.9-2.4 1-5.3 3.5-5.3 2.4 0 4.4 3 3.5 5.3-1 2.3-6 2.3-7 0z" fill="gray"/><text xml:space="preserve" style="line-height:1.25;-inkscape-font-specification:'HoloLens MDL2 Assets'" x="44.8" y="49.9" font-weight="400" font-size="10.6" font-family="HoloLens MDL2 Assets" stroke-width=".3"/><path d="M37.5 99.6A39.3 39.3 0 0 1 15 87.2 37.6 37.6 0 0 1 2.8 67.8a51.2 51.2 0 0 1-1.5-15.7 53.5 53.5 0 0 1 39-51C43.8.2 57 0 62.6.4a24 24 0 0 1 12 3.4c20.7 12 29.1 33.5 21.2 54.1a28.4 28.4 0 0 1-6 9.7 25.7 25.7 0 0 1-19.7 9c-3.5-.1-6-1.2-8.9-3.6-2.7-2.4-3.2-2.6-4.7-2.1-.7.2-2 .8-3 1.4-3.4 2-6.5 3.4-8.6 3.9-6.2 1.4-11.4-.3-16.7-5.5-4-4-4.1-4.4-4.1-15.2 0-11 .6-13.5 4.6-18.7a37.7 37.7 0 0 1 19-13.2 47 47 0 0 1 20.7 0c4.4 1 5.8 1.8 6.1 3.3.3 1.5-.3 9.7-1.2 16.8a87.2 87.2 0 0 0-1 15.8c.2 1 .6 2 1 2.4.9 1.2 2.2.6 5-2.3 4.7-4.6 6.6-10.3 6.3-18.4a35 35 0 0 0-3.9-15 25.4 25.4 0 0 0-11.6-12.4 40 40 0 0 0-11.6-2.2c-20-1.1-36 11.1-41.2 31.6a32 32 0 0 0-.8 9.9c0 5.5.1 7 .7 9.2a33 33 0 0 0 14 19.7c5.4 3.5 10.7 4.7 20.7 4.7 7.7 0 9.2-.2 16.2-3 1.6-.6 1.7-.6 2.6.1 2.4 1.8 3.6 6.3 2.4 9.3-1.4 3.7-5.7 5.4-16.6 6.4-4.4.4-14.4.4-18.1 0zm11.1-39.7c2.3-1.5 3.7-3.2 5-6.1 2.4-5.2 3.5-13.6 2-15.8-.5-.9-.7-1-2-.7-2.4.4-4.5 1.6-6.8 4a17 17 0 0 0-5.2 13.2c0 3 .8 5.4 2 6 1.2.8 3.3.5 5-.6z"/></svg>