<svg xmlns="http://www.w3.org/2000/svg" width="378" height="378" viewBox="0 0 100 100"><path d="M119.5 73.5A52.6 52.6 0 0 0 107.9 63c-6.5-4.3-7.6-5.5-7.3-7.8.5-4.1 3.3-5.4 7.6-3.6 2 .8 4.8 1.5 6.3 1.6l2.8.1.5-16.5c.6-17 1.4-20 5.5-20 3.6 0 5.4 4.2 5.4 12.5 0 4.2.4 7.1.8 6.5 1.9-2.7 4.8-2.6 7.6.2 2 2 3.1 2.4 4 1.6 1.8-1.9 4.8-1.4 6.5 1 1.1 1.7 2.3 2.1 4.2 1.6 3.9-1 6.2 2.3 7 10 .8 7.7-.9 17.4-4.1 24l-2.4 4.7h-28.9l-4-5.4zm67.4 1.7c-1-2.5.3-5.1 2.7-5.8 2.1-.5 6.7-10.5 6.7-14.5 0-1.2-2.4-3.9-6-6.5-4.7-3.4-6.5-4.2-9-3.7-4 .8-6.8-2-5-4.8a4.2 4.2 0 0 1 7.2-.2c1.4 2 2.5 2.2 9.5 2l8-.4 2.4-7.5c2-6.5 2.2-7.8 1-9.1-1.8-1.7-1.8-1.7-1-4 1-2.2 5.2-2.2 7 0 1.2 1.3 1.1 2-.3 3.5-1.5 1.7-1.4 2.6.8 9.5l2.5 7.6 8 .3c6.9.3 8 0 9.4-1.9 2-2.8 5.4-2.9 6.8-.2 1.7 3.2-1 6.1-4.7 5.2-2.3-.6-4 .2-8.9 3.7-3.5 2.6-6 5.3-6 6.5 0 4 4.5 13.7 7 14.8 1.5.7 2.3 2 2.3 3.8 0 2.3-.5 2.7-3.2 2.7-2.8 0-3.4-.5-3.7-3-.2-2.2-2-4.2-6.2-7.4a30.4 30.4 0 0 0-7-4.3c-.7 0-3.9 2-7 4.3-4.4 3.2-6 5.2-6.3 7.4-.3 2.3-1 3-3.4 3.3-2 .3-3.2-.2-3.6-1.3zM209.5 55c2.1 1.2 2.3 1 1.7-1.3-.5-1.9 0-3 1.7-4.5l2.4-1.8h-3.5c-2.8 0-3.5-.5-3.5-2.3 0-1.2-.5-2.2-1.1-2.2-.6 0-1.1 1-1.1 2.2 0 1.8-.8 2.2-3.6 2.2H199l2.4 2c1.8 1.3 2.3 2.5 1.8 4.4-.7 2.4-.5 2.5 1.6 1.3 1.8-1 3-1 4.7 0zm78.6 15-6.8-6.8-6.3 6.2c-6.5 6.4-9.3 7.6-10.5 4.5-.5-1.1 1.5-4 5.8-8.5l6.6-6.8-7.7-7.4c-9.2-9-8.9-10.4 2.1-10.4h7.3l8-8.1c6.8-6.9 7.9-8.4 6.7-9.8-1.5-1.8-.7-4 1.5-4 2.1 0 25.7 23.4 25.7 25.5 0 2.4-2.8 3.5-4.7 2-1.1-1-3.3.7-9.2 6.7l-7.8 7.8-.3 7.6c-.3 5.8-.8 7.7-2 8-.9.1-4.7-2.8-8.4-6.5zm14-21.3c4.3-4.2 6.4-7 6.2-8.3-.6-3.9-3-3.2-9.1 2.7-6.6 6.2-8.6 9-7.6 10.8 1.4 2.2 4 .9 10.4-5.2z" fill="gray"/><text xml:space="preserve" style="line-height:1.25;-inkscape-font-specification:'HoloLens MDL2 Assets'" x="44.8" y="49.9" font-weight="400" font-size="10.6" font-family="HoloLens MDL2 Assets" stroke-width=".3"/><path d="M51.6.1c-8.3.1-14.2 3-19 8.8-3.6 4.3-4 4.7-5 5.4-1.3.8-2.6.9-6 .4-4.6-.6-8.1.2-12 2.5-5 3-8.3 8.4-9 14.7-.9 6.8 3 13.3 10 16.6A39 39 0 0 0 23.2 51a344.2 344.2 0 0 0 64-.3c2.8-.5 5-1.5 7.4-3.4 6.5-5.2 6.7-13 .4-19.7-2.5-2.7-4-3.1-10.8-3.4-5.6-.1-6.1-.3-6.7-1.6a8 8 0 0 1-.3-2.4c0-4.4-1.7-8-6-12.8-4.5-5.1-7-6.3-14.6-7L51.6 0ZM26 57.4c-1 0-1.9.4-2.2 1.1-.3.6-.3 1-.1 2 .6 2.9 1.6 4.6 3.1 5.3 1 .5 3 .3 3.8-.4.7-.5.8-.7.8-1.6 0-2.5-2.8-6-5-6.4a3 3 0 0 0-.4 0zm17 0c-1 0-2 .4-2.3 1.1-.3.6-.3 1 0 2 .5 2.9 1.5 4.6 3 5.3 1 .5 3 .3 3.9-.4.7-.5.7-.7.7-1.6 0-2.5-2.8-6-5-6.4a3 3 0 0 0-.4 0zm16.8 0c-1 0-1.8.4-2.2 1.1-.2.6-.3 1 0 2 .5 2.9 1.6 4.6 3 5.3 1.1.5 3 .3 4-.4.6-.5.7-.7.7-1.6 0-2.5-2.8-6-5-6.4a3 3 0 0 0-.5 0zm17 0c-1 0-1.9.4-2.2 1.1-.3.6-.3 1-.1 2 .6 2.9 1.6 4.6 3.1 5.3 1 .5 3 .3 3.8-.4.7-.5.8-.7.8-1.6 0-2.5-2.8-6-5-6.4a3 3 0 0 0-.4 0zm-42.3 17c-1-.1-2 .3-2.3 1-.2.7-.3 1 0 2 .5 2.9 1.6 4.7 3 5.4 1.1.4 3 .2 4-.5.6-.5.7-.7.7-1.6 0-2.4-2.8-6-5-6.3a3 3 0 0 0-.4 0zm16.9 0c-1-.1-1.9.3-2.2 1-.3.7-.3 1-.1 2 .6 2.9 1.6 4.7 3.1 5.4 1 .4 3 .2 3.8-.5.7-.5.8-.7.8-1.6 0-2.4-2.8-6-5-6.3a3 3 0 0 0-.4 0zm17 0c-1-.1-2 .3-2.3 1-.3.7-.3 1 0 2 .5 2.9 1.5 4.7 3 5.4 1 .4 3 .2 3.9-.5.7-.5.7-.7.7-1.6 0-2.4-2.8-6-5-6.3a3 3 0 0 0-.4 0zm16.8 0c-1-.1-1.8.3-2.2 1-.2.7-.3 1 0 2 .5 2.9 1.6 4.7 3 5.4 1.1.4 3 .2 4-.5.6-.5.7-.7.7-1.6 0-2.4-2.8-6-5-6.3a3 3 0 0 0-.5 0zM42.8 91.1c-1 0-1.8.5-2.2 1.2-.3.6-.3 1 0 2 .5 2.8 1.5 4.6 3 5.3 1 .5 3 .3 3.9-.4.7-.6.7-.7.7-1.6 0-2.5-2.8-6-5-6.4a3 3 0 0 0-.4 0zm17 0c-1 0-2 .5-2.3 1.2-.2.6-.3 1 0 2 .5 2.8 1.6 4.6 3 5.3 1.1.5 3 .3 4-.4.6-.6.7-.7.7-1.6 0-2.5-2.8-6-5-6.4a3 3 0 0 0-.5 0zm16.9 0c-1 0-1.9.5-2.2 1.2-.3.6-.3 1-.1 2 .6 2.8 1.6 4.6 3.1 5.3 1 .5 3 .3 3.8-.4.7-.6.8-.7.8-1.6 0-2.5-2.8-6-5-6.4a3 3 0 0 0-.4 0zm17 0c-1 0-2 .5-2.3 1.2-.3.6-.3 1 0 2 .5 2.8 1.5 4.6 3 5.3 1 .5 3 .3 3.9-.4.7-.6.7-.7.7-1.6 0-2.5-2.8-6-5-6.4a3 3 0 0 0-.4 0z"/></svg>