<svg width="313" height="325" version="1.1" viewBox="0 0 83 86" xml:space="preserve" xmlns="http://www.w3.org/2000/svg"><g><path d="m38 54-0.33-0.13v-17h25l0.35 9.1 0.0016 8-0.84 0.32-24-0.042zm19-8.7v-5.4h-13l0.0028 5.7 0.34 5.2h13z"/><path d="m61 60-0.18-0.18v-2.8l9.1-0.15 0.18-2.4-0.38-23-27 0.012-3.7 3.6-5.2 4.9-0.61-0.013-4.4-1.3-0.36-0.36 9.4-9v-6.4h6.1l0.15 5.2 32 0.14 0.33 17 0.32 15h-15z"/><path d="m14 60-1.8-0.96 0.18-0.54 7.3-3.9v-8.5l-5.4 3-3.7 1.9-3.9-2.1-0.013-0.47 13-7 0.15-8.1-0.68 0.26-8.5 4.5-4.1-2.1 5.7e-4 -0.2 5.7e-4 -0.2 11-5.8 0.96-0.38-8.4e-4 -0.21-8.4e-4 -0.21-5.4-2.9-0.85-0.62 4.4-2.2 6.4 3.5 1.6-0.93 4-2.1 4.4 2.3-6.8 3.7 0.2 26-9.4 5.2-0.9-0.015z"/></g></svg>
