<svg width="313" height="325" version="1.1" viewBox="0 0 83 86" xml:space="preserve" xmlns="http://www.w3.org/2000/svg"><path d="m58 54-3-1.6-0.18-0.55 3.7-1.9 0.68-0.012 6.5 3.3 0.0086 0.32-3.7 1.9h-0.95z"/><path d="m39 57-0.026-4.6-0.35-2.7-27 10-3.8 1.4-3.5-2.3v-0.37l27-11-18-0.027-0.29-13 0.25-0.4h37l9.1-4.9-38-0.14-14 7.1-4.3-2.2 0.39-0.35 13-6.5 0.53-0.48v-3.5l6.2-0.15v2.9l44 0.14 0.15 3.7-1.7 0.94-5.6 3-0.5 0.46h10l0.39 13-0.36 0.58h-26l0.0022 3.3 0.34 6.8h21l5-3.4 0.68-0.014 4.4 1.7 0.26 0.23-0.79 0.45-6.4 4.5-31 0.015zm-0.24-16v-3.6l-18 0.14-0.15 6.3 0.27 0.69h18zm26-0.063-0.074-3.4-19-0.14v6.9h20z"/></svg>
