<svg width="313" height="325" version="1.1" viewBox="0 0 83 86" xml:space="preserve" xmlns="http://www.w3.org/2000/svg"><g><path d="m38 44v-2.8l-18-0.14-0.16-3.3h18v-1.9l6 0.15 0.17 1.7h28l0.18 2.9-0.18 0.52h-28v2.4h31v3.2h-37z"/><path d="m26 61-0.53-0.24-3-1.1v-0.45l5.3-3.8v-6.5h41v8.7l8.6 0.15 0.16 3.3h-15l-0.33-1.7v-7.4l-29 0.14-0.16 4.5-0.64 0.37-5.7 4.3-0.9-0.036z"/><path d="m8.6 61-1.1-0.38-2.3-0.85 0.16-0.45 5-3.8v-25l27-0.14-0.09-7.3 6.2-0.15v1.9l31 0.14v2.9l-31 0.14v2.4l32 0.14 0.15 5.2h-6.4v-1.9h-53l0.28 22-6.5 4.9-0.71-0.037z"/></g></svg>
