<svg xmlns="http://www.w3.org/2000/svg" viewBox="0 0 106.3 110.3">
  <g fill-rule="evenodd">
    <path fill="#24231e" d="M57.56 5.85c-.17.12-.3.32-.38.57a2.7 2.7 0 0 1-.98 1.4c-.22.17-.52.43-.66.59-.14.15-.53.48-.87.73-.33.24-.78.64-1 .89-.2.24-.57.55-.8.69-.22.14-.5.36-.59.5-.1.13-.45.46-.78.71-.47.37-.64.57-.82.97-.16.36-.34.58-.65.8-.33.24-.48.44-.71.96-.37.81-.46.93-.88 1.14-.6.28-.87.55-1.08 1.04-.1.26-.36.63-.56.82-.2.18-.46.5-.57.72-.68 1.26-.68 1.26-1.08 1.44-.42.19-.63.45-1 1.3-.18.4-.99 1.4-1.29 1.58-.1.06-.22.5-.3 1.16-.08.53-.41 1.16-.72 1.33-.3.17-.46.46-.74 1.27-.36 1.07-.54 1.43-.81 1.66-.4.33-.7.97-.9 1.83-.2.95-.6 1.67-.93 1.67-.48 0-.97-.74-1.06-1.6a2.93 2.93 0 0 0-.31-1.06l-.25-.44-.69-.16c-.38-.1-.76-.18-.86-.2-.12-.03-.24.08-.48.45l-.32.49-.08 1.9c-.04 1.05-.1 13.09-.12 26.76-.03 19.01-.07 24.9-.16 25.03-.39.59-.46.6-15.49.54-15.7-.05-14.63-.12-14.76 1.05-.1.78-.07.82.63 1.19.55.28.62.35.92.93.24.45.46.71.8.97.32.25.59.56.85 1 .32.55.43.66.77.8a9.03 9.03 0 0 1 1.09.53c.22.07 1.03.9 1.29 1.33.45.74.54.8 1.42.92 1 .13 1.37.27 1.67.63.35.43.63.55 1.96.82a9.1 9.1 0 0 1 1.26.31c.15.18 1.05.51 1.73.65.73.15 1.3.15 36.43.15h35.7l.26-.2c.24-.2.26-.3.4-1.5.18-1.46.35-2.33.45-2.33.04 0 .1-.16.14-.36.03-.2.13-.5.2-.66.54-1.22.78-5.48.33-5.92-.27-.27-.45-.27-26-.29-26.51-.01-26.2 0-26.74-.35-.53-.35-.58-.44-.36-.68.51-.56.47-.56 11.12-.68 8.35-.1 11.2-.2 15.3-.58 3.66-.34 6.68-.47 13.4-.59l4.95-.08.3-.24c.27-.21.3-.28.34-.87l.04-.63-.38-.34-.37-.33-3.5.05c-6.65.09-12.64.21-12.69.27-.02.03-1.14.1-2.47.14-1.34.05-3.53.16-4.86.25-7.63.48-19.91.75-20.76.46-.98-.34-1-.44-1.32-9.86a15.1 15.1 0 0 0-.13-1.94c-.1-.05-.29-7.68-.4-15.66-.1-7.36-.1-7.22.5-7.73.4-.36.83-1.96.97-3.72.2-2.41.7-4.08 1.37-4.5.1-.06.37-1.46.37-1.9 0-.5.3-1.36.6-1.73.52-.63.8-1.21.89-1.89.12-.95.34-1.5.72-1.84a3.6 3.6 0 0 0 1.02-1.96c.26-1.08.32-1.2.92-1.7.29-.23.54-.5.57-.59.15-.43.6-1.2.89-1.53.4-.47.57-.79.86-1.64.22-.64.27-.72.82-1.17a3 3 0 0 0 .93-1.17 4.37 4.37 0 0 1 1.1-1.4c.1-.1.3-.41.44-.72.23-.44.38-.62.79-.9.44-.3.55-.45.83-1.05.26-.54.4-.73.66-.88.62-.35 1.1-.71 1.6-1.22.27-.29.53-.54.57-.56a2 2 0 0 0 .28-.42c.13-.25.43-.57.83-.88.34-.27.7-.62.81-.78.1-.16.43-.44.73-.62.32-.2.63-.46.75-.66.11-.18.4-.51.64-.74l.44-.4-.13-.66-.12-.65-.47-.16c-.73-.25-.97-.27-1.26-.07"/>
    <path fill="#6785f2" d="M57.6 5.7c-.33.16-.61.5-.61.72 0 .2-.6 1.05-.79 1.13-.1.04-.37.27-.62.52-.25.24-.76.7-1.15 1.03-.38.32-.89.78-1.12 1.03-.24.24-.5.46-.6.49-.1.02-.35.25-.55.5-.2.28-.54.58-.78.7-.38.22-.9.88-.9 1.15 0 .05-.24.29-.54.54-.45.38-.57.55-.82 1.15-.3.72-.43.86-1.1 1.2-.3.15-.46.33-.75.82-.2.35-.51.76-.69.9-.32.27-.59.7-.77 1.24-.15.42-.26.55-.8.88-.44.27-.73.64-1.08 1.44-.14.3-.82 1.13-1.03 1.24-.2.1-.38.57-.48 1.23-.13.83-.17.92-.75 1.45-.45.4-.48.46-.82 1.54a3.1 3.1 0 0 1-.35.79c-.06.05-.2.23-.31.4-.67 1-.8 1.27-.94 2-.25 1.24-.6 1.71-1.03 1.41-.39-.26-.47-.44-.67-1.36-.26-1.26-.54-1.64-1.31-1.76-1.66-.28-1.9.04-2 2.65a7.34 7.34 0 0 1-.42 2.8c-.23.7-.38 1.42-.45 2.02-.05.5-.14.94-.2.95-.05.02-.1.09-.1.16 0 .08-.06.2-.13.29-.13.13-.15 2.94-.15 22.2v22.07l.4.27c.42.3.69.92.47 1.13-.8.76-16.8.86-23.38.15-1.61-.18-4.22-.16-4.69.03-.2.08-.53.19-.75.24-.9.22-1.2.62-1.2 1.66-.02.48.08.6.66.9.44.21.98.73.98.94 0 .17.5.83.87 1.15.22.18.53.55.7.81.38.6.6.8 1.08 1a7.5 7.5 0 0 1 2.11 1.67c.55.84.69.93 1.68 1.04l.9.1.64.53c.5.4.75.54 1.07.61 1.07.22 1.45.33 1.45.4 0 .03.05.07.1.07.07 0 .5.13.96.3 1.63.6-1.77.55 37.89.55 35.03 0 35.56 0 35.86-.15.4-.2.48-.33.55-.86.22-1.64.3-2.14.35-2.17.16-.11.73-2.28.88-3.32.38-2.87.33-4.35-.15-4.74l-.32-.26H69.7c-12.45 0-23.83-.03-25.93-.08l-3.74-.08-.37-.2a2 2 0 0 1-.42-.27c-.08-.1.36-.5.64-.6.3-.1 5.5-.24 9.14-.24 6.86 0 14.49-.26 17.4-.59 2.87-.32 7.93-.55 13.68-.63l3.81-.05.34-.27.34-.27v-.76c0-1.22-.35-1.72-1.28-1.83l-.45-.05-.06-.47c-.16-1.37-.44-7.76-.44-10.09 0-1.31-.06-1.57-.4-1.65-.86-.21-1-.78-1.19-5.01-.1-2.38-.13-2.6-.3-2.67-.64-.3-1.03-.86-1.03-1.49 0-.14-.04-.27-.09-.28-.05-.02-.14-.9-.2-1.97-.15-2.68-.15-2.73-.43-2.79-.75-.15-.96-.73-1.13-3.07-.14-2.03-.13-2.01-.51-2.14-.8-.27-1.05-.97-1.19-3.53-.07-1.38-.07-1.37-.48-1.48-.34-.1-.83-.48-.83-.66 0-.06-.04-.12-.1-.13-.04-.01-.13-.6-.19-1.3-.13-1.73-.14-1.76-.49-1.87-.72-.24-.92-.66-1.07-2.21-.16-1.8-.14-1.72-.58-1.86-.66-.21-.98-.93-1.11-2.5-.1-1.12-.11-1.15-.5-1.3a1.3 1.3 0 0 1-.78-.9c-.04-.16-.1-.3-.14-.32a4.55 4.55 0 0 1-.19-1.09c-.13-1.29-.13-1.29-.52-1.4-.76-.2-.9-.5-1.04-2.15-.13-1.67-.12-1.62-.5-1.68-.76-.11-1.01-.44-1.15-1.49-.13-1-.16-1.1-.48-1.2a1.27 1.27 0 0 1-.79-.72c-.07-.16-.16-.29-.2-.29-.04 0-.1-.2-.13-.44-.08-.62-.26-1.27-.35-1.27-.6 0-1.13-.96-1.27-2.3-.12-1.15-.17-1.27-.53-1.27-.13 0-.23-.03-.23-.07 0-.03-.1-.1-.24-.15-.36-.13-.54-.5-.65-1.32-.13-1.06-.14-1.08-.47-1.14-.32-.06-.88-.45-.88-.63 0-.06-.04-.1-.1-.1-.12 0-.12-.22.01-.25.35-.1.33-2.32-.02-2.32-.05 0-.08-.07-.08-.14 0-.23-.29-.38-1.07-.55-.87-.2-.76-.2-1.15 0m1.23.23.47.16.12.65.13.66-.44.4c-.24.23-.53.56-.64.74-.12.2-.43.46-.75.66-.3.18-.62.46-.73.62-.1.16-.47.51-.81.78-.4.3-.7.63-.83.88-.12.2-.24.4-.28.42-.04.02-.3.27-.57.56-.5.5-.98.87-1.6 1.22-.26.15-.4.34-.66.88-.28.6-.39.74-.83 1.04-.4.29-.56.47-.79.91-.15.3-.35.63-.44.71l-.46.44c-.16.15-.45.6-.64.97a2.9 2.9 0 0 1-.93 1.17c-.55.45-.6.53-.82 1.17a3.98 3.98 0 0 1-.86 1.64c-.3.32-.74 1.1-.89 1.53-.03.1-.28.36-.57.6-.6.5-.66.61-.92 1.69a3.6 3.6 0 0 1-1.02 1.96c-.38.34-.6.89-.72 1.84-.1.68-.37 1.26-.88 1.89-.31.37-.6 1.22-.6 1.73 0 .44-.28 1.84-.38 1.9-.67.42-1.18 2.09-1.37 4.5-.14 1.76-.56 3.36-.98 3.72-.6.5-.58.37-.48 7.73.1 7.98.3 15.6.39 15.66.03.02.1.9.13 1.94.32 9.42.34 9.52 1.32 9.86.85.29 13.13.02 20.76-.46 1.33-.09 3.52-.2 4.86-.25 1.33-.05 2.45-.11 2.47-.14.05-.06 6.04-.18 12.69-.27l3.5-.05.37.33.38.34-.04.63c-.04.59-.07.66-.34.87l-.3.24-4.95.08c-6.72.12-9.74.25-13.4.59-4.1.38-6.95.49-15.3.58-10.65.12-10.6.12-11.12.68-.22.24-.17.33.36.68.54.34.23.34 26.75.35 25.54.02 25.72.02 26 .3.44.43.2 4.69-.34 5.9a3.7 3.7 0 0 0-.2.67c-.04.2-.1.36-.14.36-.1 0-.27.87-.45 2.34-.14 1.18-.16 1.28-.4 1.48l-.26.21H54.7c-35.12 0-35.7 0-36.43-.15a5.05 5.05 0 0 1-1.73-.65 9.1 9.1 0 0 0-1.26-.31c-1.33-.27-1.6-.39-1.96-.82-.3-.36-.67-.5-1.67-.63-.88-.12-.97-.18-1.42-.92a4.98 4.98 0 0 0-1.3-1.32 2.7 2.7 0 0 1-.4-.2c-.16-.1-.46-.25-.68-.34-.34-.14-.45-.25-.77-.8a3.25 3.25 0 0 0-.85-1 2.65 2.65 0 0 1-.8-.97c-.3-.58-.37-.65-.92-.93-.7-.37-.72-.41-.63-1.19.13-1.17-.95-1.1 14.76-1.05 15.03.05 15.1.05 15.5-.54.08-.13.12-6.02.15-25.03.02-13.67.08-25.71.12-26.76l.08-1.9.32-.5c.24-.36.36-.47.48-.44.1.02.48.1.86.2l.7.16.24.44c.15.29.27.67.3 1.06.1.86.6 1.6 1.07 1.6.32 0 .73-.72.94-1.67.19-.86.5-1.5.89-1.83.27-.23.45-.59.81-1.66.28-.81.44-1.1.74-1.27.3-.17.64-.8.71-1.33.1-.65.21-1.1.31-1.16a5.8 5.8 0 0 0 1.3-1.58c.36-.85.57-1.11.99-1.3.4-.18.4-.18 1.08-1.44.11-.21.37-.54.57-.72.2-.2.45-.56.56-.82.21-.5.48-.76 1.08-1.04.42-.2.51-.33.88-1.14.23-.52.38-.72.71-.96.31-.22.49-.44.65-.8.18-.4.35-.6.82-.97.33-.25.68-.58.78-.71.1-.14.37-.36.6-.5.22-.14.59-.45.8-.7.21-.24.66-.64 1-.88.33-.25.72-.58.86-.73.14-.16.44-.42.66-.6.47-.34.8-.82.98-1.4.22-.71.64-.84 1.64-.5"/>
    <path fill="#849cfc" d="M60.17 8.13a11.46 9.16 0 0 0-.11.37c-.03.11-.1.21-.16.21-.05 0-.1.05-.1.12 0 .06.05.11.1.11.06 0 .1.05.1.11 0 .18.56.57.88.63.33.06.34.08.47 1.14.1.82.29 1.19.65 1.32.13.05.24.12.24.15 0 .04.1.07.23.07.36 0 .41.12.53 1.26.14 1.35.67 2.31 1.27 2.31.1 0 .27.65.35 1.27.04.24.1.44.13.44.04 0 .13.13.2.3.16.35.43.6.79.71.32.1.35.2.48 1.2.14 1.05.4 1.38 1.14 1.49.4.06.38.01.51 1.68.14 1.66.28 1.96 1.04 2.16.39.1.39.1.52 1.4.06.57.14 1.06.19 1.08.04.02.1.16.14.31.1.4.4.76.79.91.38.15.4.18.49 1.3.13 1.57.45 2.29 1.11 2.5.44.14.42.07.58 1.86.15 1.55.35 1.97 1.07 2.2.35.12.36.15.5 1.87.05.7.14 1.3.19 1.31.05.01.1.07.1.13 0 .18.48.57.82.66.4.1.4.1.48 1.48.14 2.56.38 3.26 1.19 3.53.38.13.37.11.51 2.14.17 2.34.38 2.92 1.13 3.07.28.06.28.1.43 2.79.06 1.07.15 1.95.2 1.97.05.01.1.14.1.28 0 .63.38 1.18 1.02 1.49.17.07.2.29.3 2.67.2 4.23.33 4.8 1.18 5 .35.09.4.35.41 1.66 0 2.33.28 8.72.44 10.09l.06.47.44.05c.25.03.5.08.56.12.13.09.04-.84-.24-2.56l-.34-2.02a53.51 53.51 0 0 1-.53-5.46 10.66 10.66 0 0 0-.97-4.56c-.2-.1-.54-2.1-.68-3.96a7.33 7.33 0 0 0-.73-2.99c-.12-.25-.32-.8-.43-1.2a19.3 19.3 0 0 1-.46-3.09c-.03-.27-.09-.48-.13-.48-.04 0-.1-.15-.14-.33a4.08 4.08 0 0 0-.4-.9 7.04 7.04 0 0 1-.83-2.7c-.17-1.39-.68-2.89-1.07-3.14-.22-.14-.67-1.93-.67-2.66 0-.43-.4-1.2-.7-1.37-.34-.19-.62-1.07-.91-2.9-.03-.2-.1-.37-.14-.37-.05 0-.11-.1-.15-.24a2.3 2.3 0 0 0-.4-.62 4.6 4.6 0 0 1-.9-2.22c-.18-1.2-.64-2.28-.98-2.28-.15 0-.49-.76-.6-1.34a8.18 8.18 0 0 0-.62-2 5.13 5.13 0 0 1-1.02-2.52c0-.1-.06-.24-.13-.3a2.32 2.32 0 0 1-.35-.43c-.11-.18-.24-.33-.29-.33-.28 0-.66-1.03-.87-2.38-.12-.76-.35-1.16-.88-1.5-.36-.25-.42-.34-.64-1.05-.37-1.16-.61-1.67-.94-1.97-.35-.32-.5-.58-.72-1.28a1.5 1.5 0 0 0-.23-.51c-.04 0-.13-.17-.2-.36a2 2 0 0 0-.44-.66 3.57 3.57 0 0 1-.82-1.82c-.14-.7-.4-1.11-.87-1.38-.4-.22-.78-.93-.78-1.42 0-.3-.38-.9-.74-1.2a2.29 2.29 0 0 1-.52-.66c-.13-.29-.2-.34-.23-.23M33.43 34.38a3.5 3.5 0 0 0-.12.62c-.03.28-.1.5-.15.5-.04 0-.08.1-.08.21 0 .38-.38.88-.79 1.04-.49.2-.54.3-.6 1.14-.07.88-.3 1.29-.8 1.43-.18.06-.34.13-.34.16 0 .04-.06.07-.13.07-.21 0-.33.36-.4 1.17-.08 1.06-.25 1.47-.84 1.95a2 2 0 0 0-.77 1.45c0 .09-.04.16-.1.16-.05 0-.1.06-.1.12 0 .24-.6 1.05-.87 1.18-.3.14-.4.38-.59 1.23-.15.73-.49 1.23-.96 1.4-.41.14-.5.31-.68 1.27-.13.72-.42 1.16-.9 1.36-.39.17-.5.39-.61 1.2-.04.26-.1.48-.13.48-.04 0-.13.15-.2.35-.13.34-.5.68-.87.77-.26.06-.38.36-.45 1.09-.08.86-.35 1.28-.91 1.44-.6.17-.66.28-.72 1.11-.06.86-.29 1.3-.75 1.45-.16.05-.3.13-.3.17 0 .03-.05.06-.13.06-.2 0-.33.37-.4 1.2-.03.43-.09.8-.13.82-.04.02-.13.2-.2.38a2 2 0 0 1-.6.73c-.5.4-.55.52-.8 1.5-.19.69-.58 1.25-1 1.4-.34.14-.44.33-.63 1.24-.14.67-.5 1.22-.91 1.4-.36.15-.5.4-.6 1.1-.03.27-.09.49-.13.49-.04 0-.1.1-.13.21-.1.35-.43.71-.79.85-.36.13-.48.37-.6 1.18-.12.9-.42 1.34-1.03 1.54-.43.14-.53.32-.61 1.15-.09.87-.32 1.24-.87 1.44-.56.2-.6.27-.67 1.15-.03.4-.1.75-.15.78-.04.02-.15.15-.24.29a.99.99 0 0 1-.45.34c-.16.05-.3.13-.3.16 0 .04-.06.07-.13.07-.2 0-.35.35-.35.8-.01 1.2-.35 2-1.02 2.4-.47.29-1.01 1.31-.6 1.14.2-.1 4.05-.05 4.44.05l.24.06-.23-.15-.22-.15.3-.32c.34-.38.43-.4 2.29-.6 1.63-.18 8.55-.27 14.82-.19 4.65.06 4.83.07 5.78.45.6.23.55-.03-.09-.41l-.34-.21V59.17c0-19.28.02-22.09.15-22.22.07-.09.14-.21.14-.29 0-.07.04-.14.1-.16.05-.01.14-.46.2-1 .05-.53.12-1.03.15-1.1.06-.17-.02-.18-.1-.02"/>
    <path fill="#9aaff2" d="M57.44 5.22c-.43.1-.62.28-.85.83-.11.28-.28.55-.37.6l-.45.35-.95.78c-.37.3-.9.8-1.19 1.1a4.6 4.6 0 0 1-1.2 1.07c-.4.27-.8.76-.92 1.18-.04.15-.16.23-.4.3-.35.09-.83.47-.83.66 0 .07-.04.11-.1.11-.05 0-.1.09-.1.2 0 .22-.29.66-.45.66-.48 0-.92.61-1.1 1.51-.15.73-.19.79-.62.85-.49.07-.82.32-.93.7-.16.51-.38.8-.74.93-.38.14-.69.5-.78.9-.04.15-.1.3-.14.31-.04.02-.1.23-.15.47-.09.4-.1.43-.57.63-.6.26-.67.34-.93 1.02-.13.36-.3.6-.46.71-.82.54-1 .83-1.24 2.07-.23 1.21-.24 1.24-.38 1.24-.28 0-.82.51-.95.88-.06.2-.14.36-.18.36-.03 0-.12.28-.19.62-.15.7-.14.7-.55.92-.4.22-.67.8-.86 1.83-.08.43-.2.96-.28 1.18l-.12.38-.17-.55a6.05 6.05 0 0 1-.16-.72c0-.1-.03-.16-.08-.16s-.11-.18-.14-.4c-.16-1.09-.67-1.43-2.1-1.43-1.9 0-2.14.37-2.15 3.31v1.45l-.28.24c-.38.32-.54.69-.78 1.7-.23.95-.51 1.58-.86 1.92-.31.3-.53.72-.75 1.42-.1.31-.2.56-.24.56-.04 0-.13.1-.2.23-.06.12-.22.3-.36.4-.35.27-.6.72-.82 1.43a5.9 5.9 0 0 1-1.1 1.88 3.9 3.9 0 0 0-.43.82 5.15 5.15 0 0 1-.98 1.65c-.15.17-.42.67-.6 1.1-.17.45-.35.8-.4.8-.04 0-.07.04-.07.1 0 .04-.15.24-.33.44a4.9 4.9 0 0 0-.99 1.77 3.34 3.34 0 0 1-1.08 1.54c-.11.08-.35.62-.66 1.45a3 3 0 0 1-.5.82c-.39.4-.7.95-.96 1.71-.1.27-.2.49-.25.49-.04 0-.13.11-.2.25s-.27.4-.45.6c-.38.4-.53.66-.7 1.24-.19.66-.56 1.27-.87 1.44-.36.19-.57.53-.8 1.3-.18.6-.25.74-.89 1.69-.18.28-.46.8-.61 1.17-.16.36-.32.7-.36.73a6.7 6.7 0 0 0-1.29 2 5.16 5.16 0 0 1-1.02 1.66c0 .03-.06.1-.14.14a4.1 4.1 0 0 0-.53 1.03 4.18 4.18 0 0 1-.73 1.3c-.42.45-.58.74-.82 1.5-.1.3-.23.6-.3.66a4.76 4.76 0 0 0-1.36 2.07 3.4 3.4 0 0 1-.93 1.53c-.4.36-.53.57-.76 1.3-.2.63-.5 1.14-.76 1.28-.28.16-.57.68-.78 1.37-.1.34-.22.64-.26.67a.98.98 0 0 0-.23.27l-.5.74c-.18.28-.48.86-.65 1.29l-.32.79-.51.12c-.9.23-1.15.68-1.1 1.96.04.9.2 1.18.75 1.31.17.04.31.1.31.14 0 .03.06.06.13.06.2 0 .45.26.45.48 0 .52.4 1.24.9 1.65.63.5.75.63 1 1.02a1.33 1.06 0 0 0 .58.46c.4.16.94.57 1.25.92.1.12.31.25.48.31.4.14.52.25.78.8.28.58.56.7 1.76.84 1.1.12 1.07.11 1.31.55.18.33.59.58.93.58.08 0 .15.03.15.06 0 .04.22.11.5.17.33.07.65.21.97.44.26.18.64.37.84.41l.8.18c.57.12 73.1.19 73.66.06.8-.18 1.06-.51 1.15-1.48.04-.5.12-.8.23-.93.65-.75.93-2.46 1.03-6.37.07-2.36.06-2.46-.13-2.8-.4-.72 2.42-.65-25.5-.7-20.34-.03-24.89-.06-26.1-.15l-1.45-.11.83-.05c2.42-.16 5.51-.23 11.19-.23 4.14 0 6.3-.02 6.3-.07s.7-.08 1.92-.08c5.62 0 10.35-.3 12.76-.78.97-.2 3.47-.31 7.83-.37 3.9-.06 3.9-.06 4.18-.6.22-.41.19-2.1-.04-2.66-.15-.35-.2-.79-.24-2.08-.07-1.67-.32-4.08-.44-4.15a8.74 8.74 0 0 1-.5-1.69c-.1-.4-.35-2.34-.44-3.4-.2-2.48-.56-4.58-.92-5.32-.1-.2-.26-.74-.36-1.2a3.4 3.4 0 0 0-.25-.88c-.04-.02-.07-.16-.07-.31 0-1.15-.59-3.97-.98-4.68a8.39 8.39 0 0 1-.68-2.67 29.2 29.2 0 0 0-.48-2.55c0-.02-.05-.1-.12-.15-.47-.4-.69-1-1.15-3.25-.33-1.61-.44-1.97-.8-2.51a3.3 3.3 0 0 1-.38-.84c-.06-.25-.15-.46-.18-.46-.04 0-.1-.2-.14-.43a5.47 5.47 0 0 0-.3-1l-.28-.78a5.9 5.9 0 0 0-.4-.84c-.2-.33-.45-1-.58-1.48-.2-.8-.35-1.3-.5-1.7a.66.66 0 0 0-.16-.23c-.57-.49-.87-1.14-1.08-2.35-.19-1.06-.37-1.56-.68-1.9a5.36 5.36 0 0 1-.46-.63 2.2 2.2 0 0 0-.29-.38 7.1 7.1 0 0 1-.27-1.13c-.23-1.15-.46-1.75-.8-2.1a4.4 4.4 0 0 1-.53-1.08 9.77 9.77 0 0 0-.82-1.9c-.18-.1-.7-1.06-.83-1.53-.38-1.3-.45-1.48-.67-1.76a1.37 1.37 0 0 1-.24-.35c0-.04-.1-.14-.2-.21-.1-.08-.24-.28-.3-.44-.07-.17-.15-.3-.19-.3-.03 0-.12-.22-.19-.49a3.33 3.33 0 0 0-.83-1.6 2.67 2.67 0 0 1-.58-1c-.56-1.49-.71-1.78-1.05-2.04-.33-.27-.41-.43-.93-1.9-.14-.4-.32-.66-.64-.97a2.25 2.25 0 0 1-.5-.64c-.03-.12-.09-.21-.13-.21-.05 0-.14-.2-.2-.45a3.33 3.33 0 0 0-.82-1.48c-.33-.31-.5-.73-.58-1.5-.1-.74-.35-1.18-.8-1.35a5.64 5.64 0 0 0-2.5-.2m1.3.48c.78.17 1.07.32 1.07.55 0 .07.03.14.08.14.1 0 .3.87.3 1.27s.35 1.08.7 1.34c.34.25.77.94.77 1.23 0 .5.38 1.2.78 1.42.47.27.73.67.87 1.38.15.8.46 1.47.82 1.82.17.17.37.46.44.66s.16.36.2.36c.04 0 .14.23.23.51.22.7.37.96.72 1.28.33.3.57.81.94 1.97.22.71.28.8.64 1.04.53.35.76.75.88 1.5.2 1.36.59 2.4.87 2.4.05 0 .18.14.3.32.1.18.26.37.34.43.07.06.13.2.13.3 0 .64.4 1.64 1.02 2.52.16.23.47 1.23.62 2 .11.58.45 1.34.6 1.34.34 0 .8 1.07.98 2.28.13.88.47 1.72.9 2.22.19.22.36.5.4.62.04.13.1.24.15.24.04 0 .1.16.14.37.29 1.83.57 2.71.91 2.9.3.17.7.94.7 1.37 0 .73.45 2.52.67 2.66.39.25.9 1.75 1.07 3.13.13 1.09.4 1.98.83 2.7.18.33.36.74.4.91.03.18.1.33.14.33.04 0 .1.21.13.48.2 1.86.29 2.43.46 3.09.11.4.3.95.43 1.2.44.88.63 1.67.73 3 .14 1.85.48 3.84.68 3.95a10.66 10.66 0 0 1 .97 4.55 57 57 0 0 0 .87 7.49c.11.67.23 1.52.26 1.9.04.54.1.71.25.84.32.26.46.73.46 1.53V80l-.34.27-.34.27-3.81.05c-5.75.08-10.81.31-13.68.63-2.91.33-10.54.58-17.4.59-3.65 0-8.83.14-9.14.24-.28.1-.72.5-.64.6.03.04.22.16.42.27l.37.2 3.74.08c2.1.05 13.48.08 25.94.08h22.2l.3.26c.5.39.54 1.87.16 4.74-.15 1.04-.72 3.2-.88 3.32-.05.03-.13.53-.35 2.17-.07.53-.16.67-.55.86-.3.15-.83.15-35.86.15-39.66 0-36.26.05-37.9-.55-.45-.17-.88-.3-.94-.3-.06 0-.11-.04-.11-.08 0-.06-.38-.17-1.45-.39a2.56 2.56 0 0 1-1.07-.61l-.64-.53-.9-.1c-1-.11-1.13-.2-1.68-1.04a7.5 7.5 0 0 0-2.11-1.67c-.47-.2-.7-.4-1.08-1a4.32 4.32 0 0 0-.7-.81c-.37-.32-.87-.98-.87-1.15 0-.21-.54-.73-.98-.94-.58-.3-.68-.42-.67-.9.02-1.07.3-1.43 1.33-1.7.57-.14.74-.29.9-.81.09-.27.2-.4.53-.6.68-.4 1.02-1.2 1.03-2.4 0-.46.15-.8.35-.8.07 0 .13-.04.13-.08 0-.03.14-.1.3-.16.16-.06.37-.21.45-.34.09-.14.2-.27.24-.29.05-.03.12-.38.15-.78.07-.88.1-.95.67-1.15.55-.2.78-.57.87-1.44.08-.83.18-1.01.61-1.15.61-.2.91-.65 1.04-1.54.11-.81.23-1.05.6-1.18.35-.14.68-.5.78-.85.03-.12.09-.21.13-.21.04 0 .1-.22.14-.49.1-.7.23-.95.59-1.1.42-.18.77-.73.91-1.4.2-.91.29-1.1.64-1.23.41-.16.8-.72.99-1.42.25-.97.3-1.08.8-1.49a2 2 0 0 0 .6-.73c.07-.19.16-.36.2-.38.04-.02.1-.39.14-.82.06-.83.18-1.2.4-1.2.07 0 .13-.03.13-.06 0-.04.13-.12.3-.17.45-.15.68-.59.74-1.45.06-.83.13-.94.72-1.1.56-.17.83-.59.91-1.45.07-.73.2-1.03.45-1.09.37-.1.74-.43.87-.77.07-.2.16-.35.2-.35.03 0 .1-.22.13-.49.1-.8.22-1.02.62-1.19.47-.2.76-.64.89-1.36.18-.96.27-1.13.68-1.28.47-.16.81-.66.96-1.4.18-.84.3-1.08.6-1.22.26-.13.87-.94.87-1.18 0-.06.04-.12.1-.12.05 0 .1-.07.1-.16a2 2 0 0 1 .76-1.45c.59-.48.76-.89.84-1.95.07-.81.19-1.17.4-1.17.07 0 .13-.03.13-.07 0-.03.16-.1.34-.16.5-.14.73-.55.8-1.43.06-.85.11-.94.6-1.14.41-.16.79-.66.79-1.04 0-.11.04-.2.08-.2.05 0 .12-.23.15-.5.04-.28.15-.67.25-.86.45-.83.68-2.04.68-3.49 0-2.36.37-2.85 1.95-2.6.82.14 1.1.5 1.36 1.78.2.92.28 1.1.67 1.36.43.3.78-.17 1.03-1.4.15-.74.27-1 .94-2.01.1-.17.25-.35.31-.4.07-.06.22-.41.35-.79.34-1.08.37-1.13.82-1.54.58-.53.62-.62.75-1.45.1-.66.29-1.13.48-1.23.2-.11.9-.94 1.03-1.24.35-.8.64-1.17 1.08-1.44.54-.33.65-.46.8-.88.18-.55.45-.97.77-1.24.18-.14.48-.55.69-.9.29-.5.45-.67.74-.82.68-.34.8-.48 1.1-1.2.26-.6.38-.77.83-1.15.3-.25.54-.5.54-.54 0-.27.52-.93.9-1.14.24-.14.57-.43.78-.7.2-.26.44-.49.54-.52.1-.02.37-.24.6-.48.24-.25.75-.71 1.13-1.03.39-.32.9-.79 1.15-1.03.25-.25.53-.48.62-.52.2-.08.79-.93.79-1.13 0-.23.28-.56.6-.73.4-.2.28-.2 1.15 0M18.11 81.4c-3.2.04-4.43.08-5.44.19-1.9.2-2 .23-2.35.6l-.29.33.2.14c.12.07.4.15.62.17 5.62.53 19.47.54 22.06 0 1.37-.27 1.05-.9-.66-1.27-.68-.14-7.99-.23-14.14-.16m10.25.62c.63.04 1.18.1 1.21.14.03.04.45.14.93.22l.88.15-1.07.1c-2.61.23-13.58.2-15.85-.06l-.48-.05.78-.15c.42-.08.8-.17.82-.2.18-.2 10.16-.31 12.78-.15"/>
  </g>
</svg>
