<svg xmlns="http://www.w3.org/2000/svg" xml:space="preserve" id="svg2" x="0" y="0" version="1.1" viewBox="-270 321.5 106.3 110.3">
  <style id="style1527">
    .st0{fill:#819fff}
  </style>
  <g id="g1683" transform="matrix(.75 0 0 .61 -84.22 133.01)">
    <g id="layer1_1_">
      <g id="g2812_1_" transform="translate(46 -6)">
        <path id="path1306_1_" d="m-196.6 443 1.2-56.4 18.7-14.4 20 63.4z" class="st0"/>
      </g>
    </g>
    <g id="layer1">
      <g id="g2812" transform="translate(46 -6)">
        <path id="path1306" d="m-272 445.6 4-73.9 39.3-21.9 29.3 85.8z" class="st0"/>
      </g>
    </g>
    <g id="layer3">
      <g id="g2825" transform="translate(46 -6)">
        <path id="path2765" d="M-267 458.5h99c4-4 5-6 5-11h-109v1c4 2 5 5 5 10z"/>
        <path id="path4228" d="M-260.1 347.1h1.4l1.5 50 2 52.5-4.9-2.5z"/>
        <path id="path4232" d="m-258 443 58.7-7v1l-58.7 8z"/>
        <path id="path2067" d="M-188.8 447.5v-86.8h-1l-1 86.8z"/>
        <path id="path2795" d="m-190.4 443 34.6-7.1-.1-1-34.7 6.1z"/>
        <path id="path2795_2_" d="m-269.1 373.2 44-24.1-.4-.9-44.4 23.2z"/>
      </g>
    </g>
    <path id="path2795_1_" d="m-223.9 441.6-19-3v1l19 4z"/>
    <path id="path2795_3_" d="m-151.4 382 23.1-16.1-.4-.9-23.5 15.2z"/>
  </g>
</svg>
