<svg xmlns="http://www.w3.org/2000/svg" xml:space="preserve" viewBox="0 0 34.9 48.6"><path d="M17.4 0a21.5 21.5 0 0 1-.7 2.5 36.2 36.2 0 0 1-2.6 5.8 36 36 0 0 1-2.7 4.2 31.4 31.4 0 0 1-3.7 4.1l-.3.3a17.4 17.4 0 0 1 2.1-1.3 17.4 17.4 0 0 0-2.1 1.3l-.4.3-.7.7v-.1a17.4 17.4 0 0 0-1.2 1 17.4 17.4 0 0 0-1.8 2A17.4 17.4 0 0 0 2 23.3a17.4 17.4 0 0 0-1 2.5 17.4 17.4 0 0 0-.7 2.7 17.4 17.4 0 0 0-.2 2.7A17.4 17.4 0 0 0 .2 34a17.4 17.4 0 0 0 .7 2.6 17.4 17.4 0 0 0 1 2.6 17.4 17.4 0 0 0 1.4 2.3 17.4 17.4 0 0 0 1.8 2 17.4 17.4 0 0 0 2 1.9 17.4 17.4 0 0 0 2.4 1.4 17.4 17.4 0 0 0 2.6 1 17.4 17.4 0 0 0 2.6.7 17.4 17.4 0 0 0 2.8.2 17.4 17.4 0 0 0 2.7-.2 17.4 17.4 0 0 0 2.6-.7 17.4 17.4 0 0 0 2.6-1 17.4 17.4 0 0 0 2.3-1.4 17.4 17.4 0 0 0 2-1.8 17.4 17.4 0 0 0 1.9-2.1 17.4 17.4 0 0 0 1.4-2.3 17.4 17.4 0 0 0 1-2.6 17.4 17.4 0 0 0 .7-2.6 17.4 17.4 0 0 0 .2-2.8 17.4 17.4 0 0 0 0-.9 17.4 17.4 0 0 0-.1-1 17.4 17.4 0 0 0-.1-.9 17.4 17.4 0 0 0-.2-1 17.4 17.4 0 0 0-.2-.8 17.4 17.4 0 0 0-.3-1 17.4 17.4 0 0 0-.4-.8 17.4 17.4 0 0 0-.3-.9 17.4 17.4 0 0 0-.4-.8 17.4 17.4 0 0 0-.5-.8 17.4 17.4 0 0 0-.5-.8 17.4 17.4 0 0 0-.6-.8 17.4 17.4 0 0 0-.6-.7 17.4 17.4 0 0 0-.6-.7 17.4 17.4 0 0 0-.7-.7 17.4 17.4 0 0 0-.7-.6 17.4 17.4 0 0 0-.2-.3l.1.2-.7-.6-.5-.4-.3-.2a28.1 28.1 0 0 1-3.7-4.1A33 33 0 0 1 20.1 7a37.9 37.9 0 0 1-2.7-7z"/></svg>