<?xml version="1.0" encoding="UTF-8" standalone="no"?>
<!-- Created with Inkscape (http://www.inkscape.org/) -->

<svg
   width="316.02676mm"
   height="315.22537mm"
   viewBox="0 0 316.02676 315.22537"
   version="1.1"
   id="svg539"
   inkscape:version="1.2 (dc2aedaf03, 2022-05-15)"
   sodipodi:docname="Letter Grid.svg"
   xmlns:inkscape="http://www.inkscape.org/namespaces/inkscape"
   xmlns:sodipodi="http://sodipodi.sourceforge.net/DTD/sodipodi-0.dtd"
   xmlns="http://www.w3.org/2000/svg"
   xmlns:svg="http://www.w3.org/2000/svg">
  <sodipodi:namedview
     id="namedview541"
     pagecolor="#ffffff"
     bordercolor="#000000"
     borderopacity="0.25"
     inkscape:showpageshadow="2"
     inkscape:pageopacity="0.0"
     inkscape:pagecheckerboard="0"
     inkscape:deskcolor="#d1d1d1"
     inkscape:document-units="mm"
     showgrid="false"
     inkscape:zoom="0.2727589"
     inkscape:cx="905.56165"
     inkscape:cy="922.05973"
     inkscape:window-width="958"
     inkscape:window-height="991"
     inkscape:window-x="-8"
     inkscape:window-y="0"
     inkscape:window-maximized="0"
     inkscape:current-layer="layer1" />
  <defs
     id="defs536" />
  <g
     inkscape:label="Layer 1"
     inkscape:groupmode="layer"
     id="layer1"
     transform="translate(432.36945,-19.766212)">
    <g
       aria-label="A"
       id="text1543"
       style="font-size:25.6508px;line-height:18.5208px;font-family:'Trebuchet MS';-inkscape-font-specification:'Trebuchet MS';stroke-width:2;paint-order:fill markers stroke">
      <path
         d="m -409.89956,45.995964 -1.265,-3.870165 h -6.82602 l -1.35268,3.870165 h -2.80555 l 7.45225,-18.599335 h 0.66382 l 6.91369,18.599335 z m -4.58407,-13.78981 -2.84313,8.078499 h 5.44829 z"
         id="path4447" />
    </g>
    <g
       aria-label="A"
       id="text1543-8"
       style="font-size:25.6508px;line-height:18.5208px;font-family:'Trebuchet MS';-inkscape-font-specification:'Trebuchet MS';stroke-width:2;paint-order:fill markers stroke">
      <path
         d="m -409.89956,113.21535 -1.265,-3.87017 h -6.82602 l -1.35268,3.87017 h -2.80555 l 7.45225,-18.599338 h 0.66382 l 6.91369,18.599338 z m -4.58407,-13.789813 -2.84313,8.078503 h 5.44829 z"
         id="path4450" />
    </g>
    <g
       aria-label="U"
       id="text1543-79"
       style="font-size:25.6508px;line-height:18.5208px;font-family:'Trebuchet MS';-inkscape-font-specification:'Trebuchet MS';stroke-width:2;paint-order:fill markers stroke">
      <path
         d="m -387.46198,94.584709 h 2.50496 v 12.562381 q 0,1.67832 1.06461,2.76798 1.06461,1.07713 2.81808,1.07713 1.85367,0 2.91828,-1.05208 1.06461,-1.05208 1.06461,-2.85566 V 94.584709 h 2.50496 v 12.762771 q 0,2.78051 -1.74095,4.34611 -1.72842,1.55308 -4.72185,1.55308 -3.0811,0 -4.7469,-1.52803 -1.6658,-1.52802 -1.6658,-4.38368 z"
         id="path4453" />
    </g>
    <g
       aria-label="S"
       id="text1543-2"
       style="font-size:25.6508px;line-height:18.5208px;font-family:'Trebuchet MS';-inkscape-font-specification:'Trebuchet MS';stroke-width:2;paint-order:fill markers stroke">
      <path
         d="m -386.13435,45.03155 0.91431,-2.304564 q 0.70139,0.513517 1.74095,0.864212 1.05208,0.33817 1.87872,0.33817 1.4654,0 2.35466,-0.801588 0.88927,-0.801588 0.88927,-2.041543 0,-0.926836 -0.501,-1.715899 -0.48846,-0.801587 -2.47991,-1.740947 l -1.47792,-0.688865 q -1.87873,-0.876736 -2.63021,-2.079117 -0.73897,-1.202382 -0.73897,-2.89323 0,-2.054068 1.45288,-3.406747 1.45288,-1.352679 3.73239,-1.352679 3.04353,0 4.23339,0.989459 l -0.73897,2.179316 q -0.50099,-0.363219 -1.52802,-0.701389 -1.02704,-0.338169 -1.90377,-0.338169 -1.27753,0 -2.0165,0.726438 -0.72644,0.726439 -0.72644,1.866196 0,0.701389 0.26302,1.27753 0.26303,0.576141 0.72644,0.96441 0.47595,0.388269 1.92882,1.089658 l 1.50298,0.713914 q 1.87872,0.889261 2.63021,2.129217 0.76401,1.227431 0.76401,3.131201 0,2.066593 -1.6658,3.506946 -1.65327,1.440352 -4.43378,1.440352 -2.44234,0 -4.17076,-1.152282 z"
         id="path4456" />
    </g>
    <g
       aria-label="T"
       id="text1543-7"
       style="font-size:25.6508px;line-height:18.5208px;font-family:'Trebuchet MS';-inkscape-font-specification:'Trebuchet MS';stroke-width:2;paint-order:fill markers stroke">
      <path
         d="m -346.29354,29.776338 v 16.094374 h -2.50496 V 29.776338 h -5.83656 v -2.254465 h 14.4411 v 2.254465 z"
         id="path4459" />
    </g>
    <g
       aria-label="T"
       id="text1543-7-9"
       style="font-size:25.6508px;line-height:18.5208px;font-family:'Trebuchet MS';-inkscape-font-specification:'Trebuchet MS';stroke-width:2;paint-order:fill markers stroke">
      <path
         d="m -346.29354,96.995736 v 16.094374 h -2.50496 V 96.995736 h -5.83656 v -2.254465 h 14.4411 v 2.254465 z"
         id="path4462" />
    </g>
    <path
       id="rect1793"
       style="stroke-width:1.93652;paint-order:fill markers stroke"
       d="m -330.60965,19.891439 h 6.30643 V 334.9916 h -6.30643 z" />
    <path
       id="rect1793-8"
       style="stroke-width:1.93691;paint-order:fill markers stroke"
       d="m -223.4782,19.766212 h 6.30644 V 334.99158 h -6.30644 z" />
    <g
       aria-label="R"
       id="text1797"
       style="font-size:25.6508px;line-height:18.5208px;font-family:'Trebuchet MS';-inkscape-font-specification:'Trebuchet MS';stroke-width:2;paint-order:fill markers stroke">
      <path
         d="m -411.03932,79.574348 -4.8972,-7.878102 q -0.83916,0 -2.65526,-0.125248 v 8.00335 h -2.50496 V 61.225509 q 0.13777,0 1.94135,-0.08767 1.81609,-0.100198 2.64273,-0.100198 6.6131,0 6.6131,5.260418 0,1.728423 -1.06461,3.118677 -1.06461,1.377728 -2.53001,1.715898 l 5.32304,8.441718 z m -7.55246,-16.094374 v 5.961807 q 0.90179,0.125248 1.75347,0.125248 2.25447,0 3.2815,-0.726438 1.02704,-0.726439 1.02704,-2.592635 0,-1.540551 -1.10219,-2.216891 -1.10218,-0.676339 -3.48189,-0.676339 -0.37575,0 -1.47793,0.125248 z"
         id="path4467" />
    </g>
    <g
       aria-label="O"
       id="text1543-9"
       style="font-size:25.6508px;line-height:18.5208px;font-family:'Trebuchet MS';-inkscape-font-specification:'Trebuchet MS';stroke-width:2;paint-order:fill markers stroke">
      <path
         d="m -388.83585,69.961562 q 0,-3.982888 1.99145,-6.663197 2.00397,-2.680308 5.39819,-2.680308 3.82007,0 5.84908,2.467387 2.04155,2.467386 2.04155,6.876118 0,4.521454 -2.04155,7.089039 -2.04154,2.555061 -5.84908,2.555061 -3.46937,0 -5.43577,-2.705358 -1.95387,-2.705358 -1.95387,-6.938742 z m 2.63021,0 q 0,3.156251 1.23996,5.272943 1.25248,2.116692 3.51947,2.116692 2.56758,0 3.90774,-1.941345 1.35268,-1.941345 1.35268,-5.44829 0,-7.08904 -5.26042,-7.08904 -2.32961,0 -3.54452,1.90377 -1.21491,1.903771 -1.21491,5.18527 z"
         id="path4470" />
    </g>
    <g
       aria-label="N"
       id="text1543-3"
       style="font-size:25.6508px;line-height:18.5208px;font-family:'Trebuchet MS';-inkscape-font-specification:'Trebuchet MS';stroke-width:2;paint-order:fill markers stroke">
      <path
         d="m -341.85975,79.60566 -9.48127,-13.414067 v 13.163571 h -2.37972 v -18.34884 h 1.00199 l 9.23078,12.687628 V 61.006324 h 2.37971 V 79.60566 Z"
         id="path4473" />
    </g>
    <path
       id="rect1793-3"
       style="stroke-width:1.93937;paint-order:fill markers stroke"
       transform="rotate(90)"
       d="m 120.72054,116.34268 h 6.30644 v 316.02677 h -6.30644 z" />
    <path
       id="rect1793-3-3"
       style="stroke-width:1.93937;paint-order:fill markers stroke"
       transform="rotate(90)"
       d="m 227.85608,116.34268 h 6.30643 v 316.02677 h -6.30643 z" />
    <g
       aria-label="J"
       id="text1543-34"
       style="font-size:25.6508px;line-height:18.5208px;font-family:'Trebuchet MS';-inkscape-font-specification:'Trebuchet MS';stroke-width:2;paint-order:fill markers stroke">
      <path
         d="m -312.36627,42.0757 h 2.19185 q 0.30059,1.665799 1.99144,1.665799 1.67832,0 2.35466,-0.713914 0.68887,-0.726438 0.68887,-4.032987 V 27.396629 h 2.50496 V 38.8944 q 0,3.757441 -1.21491,5.435765 -1.2149,1.665799 -4.32106,1.665799 -1.79104,0 -2.94332,-1.064608 -1.13976,-1.064609 -1.25249,-2.855656 z"
         id="path4478" />
    </g>
    <g
       aria-label="I"
       id="text1543-8-2"
       style="font-size:25.6508px;line-height:18.5208px;font-family:'Trebuchet MS';-inkscape-font-specification:'Trebuchet MS';stroke-width:2;paint-order:fill markers stroke">
      <path
         d="M -308.7549,113.09011 V 94.741271 h 2.50496 v 18.348839 z"
         id="path4481" />
    </g>
    <g
       aria-label="N"
       id="text1543-79-1"
       style="font-size:25.6508px;line-height:18.5208px;font-family:'Trebuchet MS';-inkscape-font-specification:'Trebuchet MS';stroke-width:2;paint-order:fill markers stroke">
      <path
         d="m -268.33796,113.21536 -9.48127,-13.414071 v 13.163571 h -2.37972 V 94.61602 h 1.00199 l 9.23078,12.68763 V 94.61602 h 2.37971 v 18.59934 z"
         id="path4484" />
    </g>
    <g
       aria-label="O"
       id="text1543-2-6"
       style="font-size:25.6508px;line-height:18.5208px;font-family:'Trebuchet MS';-inkscape-font-specification:'Trebuchet MS';stroke-width:2;paint-order:fill markers stroke">
      <path
         d="m -281.53287,36.545992 q 0,-3.982888 1.99145,-6.663196 2.00397,-2.680308 5.39819,-2.680308 3.82006,0 5.84908,2.467386 2.04155,2.467387 2.04155,6.876118 0,4.521455 -2.04155,7.08904 -2.04154,2.55506 -5.84908,2.55506 -3.46937,0 -5.43577,-2.705358 -1.95387,-2.705357 -1.95387,-6.938742 z m 2.63021,0 q 0,3.156251 1.23996,5.272943 1.25248,2.116692 3.51947,2.116692 2.56758,0 3.90774,-1.941344 1.35268,-1.941345 1.35268,-5.448291 0,-7.089039 -5.26042,-7.089039 -2.32962,0 -3.54452,1.90377 -1.21491,1.903771 -1.21491,5.185269 z"
         id="path4487" />
    </g>
    <g
       aria-label="C"
       id="text1543-7-1"
       style="font-size:25.6508px;line-height:18.5208px;font-family:'Trebuchet MS';-inkscape-font-specification:'Trebuchet MS';stroke-width:2;paint-order:fill markers stroke">
      <path
         d="m -234.36507,28.198212 -0.83916,2.141742 q -1.20238,-0.876736 -3.78249,-0.876736 -2.41729,0 -3.88269,2.079117 -1.45288,2.079118 -1.45288,5.360617 0,3.131201 1.49045,5.085071 1.50298,1.941345 3.87017,1.941345 2.58011,0 3.97036,-1.828622 l 1.37773,1.916295 q -2.17932,2.166791 -5.61111,2.166791 -3.59462,0 -5.66122,-2.592634 -2.06659,-2.592635 -2.06659,-6.838544 0,-4.108136 2.20437,-6.826019 2.20436,-2.717882 5.69878,-2.717882 2.99343,0 4.68428,0.989459 z"
         id="path4490" />
    </g>
    <g
       aria-label="G"
       id="text1543-7-9-4"
       style="font-size:25.6508px;line-height:18.5208px;font-family:'Trebuchet MS';-inkscape-font-specification:'Trebuchet MS';stroke-width:2;paint-order:fill markers stroke">
      <path
         d="m -233.9267,96.018802 -1.03956,2.066592 q -1.89124,-1.402778 -3.70734,-1.402778 -2.88071,0 -4.5465,2.029019 -1.6658,2.029015 -1.6658,5.373145 0,3.1813 1.62822,5.12264 1.64075,1.94135 4.45883,1.94135 2.00397,0 3.24393,-1.20239 v -4.296 h -2.54254 v -2.12922 h 5.0475 v 7.99083 q -1.00199,0.85168 -2.79303,1.37772 -1.79105,0.51352 -3.4819,0.51352 -3.79502,0 -5.99938,-2.56758 -2.19184,-2.58011 -2.19184,-6.85107 0,-4.258436 2.40476,-6.90117 2.41729,-2.655259 6.5129,-2.655259 2.86818,0 4.67175,1.590651 z"
         id="path4493" />
    </g>
    <g
       aria-label="K"
       id="text1797-6"
       style="font-size:25.6508px;line-height:18.5208px;font-family:'Trebuchet MS';-inkscape-font-specification:'Trebuchet MS';stroke-width:2;paint-order:fill markers stroke">
      <path
         d="m -303.8264,79.480408 -5.17275,-8.441719 -2.44233,3.469371 v 4.972348 h -2.50496 v -18.34884 h 2.50496 v 9.98227 l 6.81349,-9.98227 h 2.79303 l -5.48586,7.953252 6.2624,10.395588 z"
         id="path4496" />
    </g>
    <g
       aria-label="E"
       id="text1543-9-6"
       style="font-size:25.6508px;line-height:18.5208px;font-family:'Trebuchet MS';-inkscape-font-specification:'Trebuchet MS';stroke-width:2;paint-order:fill markers stroke">
      <path
         d="m -276.86736,63.386033 v 5.097596 h 6.06201 v 2.129217 h -6.06201 v 6.613097 h 8.31647 v 2.254465 h -10.82143 v -18.34884 h 10.95921 v 2.254465 z"
         id="path4499" />
    </g>
    <g
       aria-label="Y"
       id="text1543-3-2"
       style="font-size:25.6508px;line-height:18.5208px;font-family:'Trebuchet MS';-inkscape-font-specification:'Trebuchet MS';stroke-width:2;paint-order:fill markers stroke">
      <path
         d="m -239.01804,71.264136 v 8.216272 h -2.50496 v -8.216272 l -5.91171,-10.132568 h 2.58011 l 4.57155,8.015876 4.57156,-8.015876 h 2.58011 z"
         id="path4502" />
    </g>
    <g
       aria-label="K"
       id="text1543-34-6"
       style="font-size:25.6508px;line-height:18.5208px;font-family:'Trebuchet MS';-inkscape-font-specification:'Trebuchet MS';stroke-width:2;paint-order:fill markers stroke">
      <path
         d="m -196.69089,45.870724 -5.17274,-8.441719 -2.44234,3.469371 v 4.972348 h -2.50496 v -18.34884 h 2.50496 v 9.98227 l 6.81349,-9.98227 h 2.79304 l -5.48587,7.953252 6.2624,10.395588 z"
         id="path4505" />
    </g>
    <g
       aria-label="A"
       id="text1543-8-2-2"
       style="font-size:25.6508px;line-height:18.5208px;font-family:'Trebuchet MS';-inkscape-font-specification:'Trebuchet MS';stroke-width:2;paint-order:fill markers stroke">
      <path
         d="m -195.63254,113.21536 -1.26501,-3.87016 h -6.82602 l -1.35267,3.87016 h -2.80556 l 7.45226,-18.599333 h 0.66381 l 6.9137,18.599333 z m -4.58408,-13.789808 -2.84313,8.078498 h 5.44829 z"
         id="path4508" />
    </g>
    <g
       aria-label="C"
       id="text1543-79-1-8"
       style="font-size:25.6508px;line-height:18.5208px;font-family:'Trebuchet MS';-inkscape-font-specification:'Trebuchet MS';stroke-width:2;paint-order:fill markers stroke">
      <path
         d="m -160.83924,95.417619 -0.83916,2.141741 q -1.20238,-0.876736 -3.78249,-0.876736 -2.41729,0 -3.88269,2.079117 -1.45288,2.079119 -1.45288,5.360619 0,3.1312 1.49046,5.08507 1.50297,1.94134 3.87016,1.94134 2.58011,0 3.97036,-1.82862 l 1.37773,1.9163 q -2.17931,2.16679 -5.61111,2.16679 -3.59462,0 -5.66121,-2.59264 -2.0666,-2.59263 -2.0666,-6.83854 0,-4.108136 2.20437,-6.826018 2.20437,-2.717883 5.69879,-2.717883 2.99342,0 4.68427,0.98946 z"
         id="path4511" />
    </g>
    <g
       aria-label="N"
       id="text1543-2-6-3"
       style="font-size:25.6508px;line-height:18.5208px;font-family:'Trebuchet MS';-inkscape-font-specification:'Trebuchet MS';stroke-width:2;paint-order:fill markers stroke">
      <path
         d="m -161.20246,45.995968 -9.48128,-13.414066 v 13.16357 h -2.37971 V 27.396633 h 1.00199 l 9.23078,12.687627 V 27.396633 h 2.37971 v 18.599335 z"
         id="path4514" />
    </g>
    <g
       aria-label="O"
       id="text1543-7-1-6"
       style="font-size:25.6508px;line-height:18.5208px;font-family:'Trebuchet MS';-inkscape-font-specification:'Trebuchet MS';stroke-width:2;paint-order:fill markers stroke">
      <path
         d="m -140.78766,36.546 q 0,-3.982888 1.99145,-6.663196 2.00396,-2.680308 5.39819,-2.680308 3.82006,0 5.84908,2.467386 2.04154,2.467387 2.04154,6.876118 0,4.521455 -2.04154,7.08904 -2.04154,2.55506 -5.84908,2.55506 -3.46937,0 -5.43577,-2.705358 -1.95387,-2.705358 -1.95387,-6.938742 z m 2.63021,0 q 0,3.156251 1.23996,5.272943 1.25248,2.116692 3.51947,2.116692 2.56758,0 3.90774,-1.941345 1.35268,-1.941345 1.35268,-5.44829 0,-7.08904 -5.26042,-7.08904 -2.32962,0 -3.54452,1.903771 -1.21491,1.90377 -1.21491,5.185269 z"
         id="path4517" />
    </g>
    <g
       aria-label="K"
       id="text1543-7-9-4-3"
       style="font-size:25.6508px;line-height:18.5208px;font-family:'Trebuchet MS';-inkscape-font-specification:'Trebuchet MS';stroke-width:2;paint-order:fill markers stroke">
      <path
         d="m -129.4715,113.09012 -5.17274,-8.44172 -2.44234,3.46937 v 4.97235 h -2.50496 V 94.741279 h 2.50496 v 9.982271 l 6.8135,-9.982271 h 2.79303 l -5.48587,7.953251 6.2624,10.39559 z"
         id="path4520" />
    </g>
    <g
       aria-label="C"
       id="text1797-6-6"
       style="font-size:25.6508px;line-height:18.5208px;font-family:'Trebuchet MS';-inkscape-font-specification:'Trebuchet MS';stroke-width:2;paint-order:fill markers stroke">
      <path
         d="m -194.44895,61.807908 -0.83916,2.141741 q -1.20238,-0.876736 -3.78249,-0.876736 -2.41729,0 -3.88269,2.079118 -1.45288,2.079117 -1.45288,5.360616 0,3.131202 1.49045,5.085071 1.50298,1.941345 3.87017,1.941345 2.58011,0 3.97036,-1.828622 l 1.37773,1.916296 q -2.17931,2.166791 -5.61111,2.166791 -3.59462,0 -5.66121,-2.592635 -2.0666,-2.592634 -2.0666,-6.838543 0,-4.108136 2.20437,-6.826019 2.20437,-2.717883 5.69879,-2.717883 2.99342,0 4.68427,0.98946 z"
         id="path4523" />
    </g>
    <g
       aria-label="K"
       id="text1543-9-6-4"
       style="font-size:25.6508px;line-height:18.5208px;font-family:'Trebuchet MS';-inkscape-font-specification:'Trebuchet MS';stroke-width:2;paint-order:fill markers stroke">
      <path
         d="m -163.08118,79.480408 -5.17274,-8.441719 -2.44234,3.469371 v 4.972348 h -2.50496 v -18.34884 h 2.50496 v 9.98227 l 6.81349,-9.98227 h 2.79304 l -5.48587,7.953252 6.2624,10.395588 z"
         id="path4526" />
    </g>
    <g
       aria-label="B"
       id="text1543-3-2-1"
       style="font-size:25.6508px;line-height:18.5208px;font-family:'Trebuchet MS';-inkscape-font-specification:'Trebuchet MS';stroke-width:2;paint-order:fill markers stroke">
      <path
         d="m -133.72994,79.561829 h -5.23536 v -18.34884 q 3.34412,-0.162822 4.82205,-0.162822 2.71788,0 4.20833,1.177331 1.49045,1.164807 1.49045,3.344123 0,1.277531 -0.95188,2.329614 -0.95189,1.052084 -2.10417,1.315105 2.17932,0.526041 3.16878,1.740948 1.00198,1.214906 1.00198,3.306548 0,2.417287 -1.77852,3.85764 -1.766,1.440353 -4.62166,1.440353 z m -2.7304,-16.344871 v 5.272943 q 0.78906,0.07515 1.95387,0.07515 3.55704,0 3.55704,-2.89323 0,-2.542536 -3.26897,-2.542536 -1.25248,0 -2.24194,0.08767 z m 0,7.214288 v 7.001366 q 1.29005,0.125248 1.97892,0.125248 2.35466,0 3.43179,-0.876737 1.08966,-0.889261 1.08966,-2.818081 0,-1.791047 -1.03956,-2.642734 -1.02703,-0.851686 -3.44432,-0.851686 z"
         id="path4529" />
    </g>
    <g
       aria-label="P"
       id="text1543-6"
       style="font-size:25.6508px;line-height:18.5208px;font-family:'Trebuchet MS';-inkscape-font-specification:'Trebuchet MS';stroke-width:2;paint-order:fill markers stroke">
      <path
         d="m -417.84029,146.00489 v 7.06399 h -2.50496 v -18.34884 q 2.84313,-0.12525 3.4318,-0.12525 7.99082,0 7.99082,5.34809 0,6.18726 -7.06399,6.18726 -0.42584,0 -1.85367,-0.12525 z m 0,-9.03039 v 6.77592 q 1.59065,0.12525 1.67833,0.12525 4.65922,0 4.65922,-3.66977 0,-3.35664 -4.97234,-3.35664 -0.501,0 -1.36521,0.12524 z"
         id="path4532" />
    </g>
    <g
       aria-label="E"
       id="text1543-8-9"
       style="font-size:25.6508px;line-height:18.5208px;font-family:'Trebuchet MS';-inkscape-font-specification:'Trebuchet MS';stroke-width:2;paint-order:fill markers stroke">
      <path
         d="m -417.60857,204.13127 v 5.0976 h 6.06201 v 2.12922 h -6.06201 v 6.61309 h 8.31647 v 2.25447 h -10.82143 v -18.34884 h 10.95921 v 2.25446 z"
         id="path4535" />
    </g>
    <g
       aria-label="A"
       id="text1543-79-4"
       style="font-size:25.6508px;line-height:18.5208px;font-family:'Trebuchet MS';-inkscape-font-specification:'Trebuchet MS';stroke-width:2;paint-order:fill markers stroke">
      <path
         d="m -376.28984,220.35091 -1.26501,-3.87017 h -6.82602 l -1.35268,3.87017 h -2.80555 l 7.45226,-18.59934 h 0.66381 l 6.91369,18.59934 z m -4.58408,-13.78981 -2.84313,8.0785 h 5.44829 z"
         id="path4538" />
    </g>
    <g
       aria-label="I"
       id="text1543-2-4"
       style="font-size:25.6508px;line-height:18.5208px;font-family:'Trebuchet MS';-inkscape-font-specification:'Trebuchet MS';stroke-width:2;paint-order:fill markers stroke">
      <path
         d="M -382.27669,153.00624 V 134.6574 h 2.50496 v 18.34884 z"
         id="path4541" />
    </g>
    <g
       aria-label="P"
       id="text1543-7-7"
       style="font-size:25.6508px;line-height:18.5208px;font-family:'Trebuchet MS';-inkscape-font-specification:'Trebuchet MS';stroke-width:2;paint-order:fill markers stroke">
      <path
         d="m -350.62087,146.00489 v 7.06399 h -2.50496 v -18.34884 q 2.84313,-0.12525 3.4318,-0.12525 7.99083,0 7.99083,5.34809 0,6.18726 -7.06399,6.18726 -0.42585,0 -1.85368,-0.12525 z m 0,-9.03039 v 6.77592 q 1.59065,0.12525 1.67833,0.12525 4.65923,0 4.65923,-3.66977 0,-3.35664 -4.97235,-3.35664 -0.50099,0 -1.36521,0.12524 z"
         id="path4544" />
    </g>
    <g
       aria-label="K"
       id="text1543-7-9-2"
       style="font-size:25.6508px;line-height:18.5208px;font-family:'Trebuchet MS';-inkscape-font-specification:'Trebuchet MS';stroke-width:2;paint-order:fill markers stroke">
      <path
         d="m -343.73848,220.22565 -5.17274,-8.44172 -2.44234,3.46937 v 4.97235 h -2.50496 v -18.34884 h 2.50496 v 9.98227 l 6.81349,-9.98227 h 2.79303 l -5.48586,7.95325 6.2624,10.39559 z"
         id="path4547" />
    </g>
    <g
       aria-label="S"
       id="text1797-4"
       style="font-size:25.6508px;line-height:18.5208px;font-family:'Trebuchet MS';-inkscape-font-specification:'Trebuchet MS';stroke-width:2;paint-order:fill markers stroke">
      <path
         d="m -419.74406,185.77677 0.91431,-2.30456 q 0.70139,0.51352 1.74095,0.86421 1.05208,0.33817 1.87872,0.33817 1.4654,0 2.35466,-0.80159 0.88926,-0.80158 0.88926,-2.04154 0,-0.92683 -0.50099,-1.7159 -0.48846,-0.80159 -2.47991,-1.74095 l -1.47793,-0.68886 q -1.87872,-0.87674 -2.6302,-2.07912 -0.73897,-1.20238 -0.73897,-2.89323 0,-2.05407 1.45288,-3.40674 1.45288,-1.35268 3.73239,-1.35268 3.04353,0 4.23339,0.98946 l -0.73897,2.17931 q -0.50099,-0.36322 -1.52802,-0.70139 -1.02704,-0.33817 -1.90377,-0.33817 -1.27753,0 -2.0165,0.72644 -0.72644,0.72644 -0.72644,1.8662 0,0.70139 0.26302,1.27753 0.26302,0.57614 0.72644,0.96441 0.47595,0.38827 1.92882,1.08966 l 1.50298,0.71391 q 1.87872,0.88926 2.63021,2.12922 0.76401,1.22743 0.76401,3.1312 0,2.06659 -1.6658,3.50694 -1.65327,1.44036 -4.43378,1.44036 -2.44234,0 -4.17076,-1.15229 z"
         id="path4550" />
    </g>
    <g
       aria-label="Q"
       id="text1543-9-0"
       style="font-size:25.6508px;line-height:18.5208px;font-family:'Trebuchet MS';-inkscape-font-specification:'Trebuchet MS';stroke-width:2;paint-order:fill markers stroke">
      <path
         d="m -372.00636,186.23394 -0.37575,2.44233 q -6.563,0 -8.60454,-3.64472 -0.38827,0.16283 -1.6658,0.16283 -3.46937,0 -5.43576,-2.70536 -1.95387,-2.70536 -1.95387,-6.93874 0,-3.97037 1.99144,-6.65068 1.99145,-2.69283 5.39819,-2.69283 3.82007,0 5.84909,2.46739 2.04154,2.46738 2.04154,6.87612 0,6.32502 -3.78249,8.67969 1.3652,2.00397 4.58408,2.00397 z m -10.64609,-17.7727 q -2.32961,0 -3.54452,1.90377 -1.2149,1.90377 -1.2149,5.18527 0,3.15625 1.23995,5.27294 1.25248,2.11669 3.51947,2.11669 2.58011,0 3.92027,-1.95387 1.34015,-1.96639 1.34015,-5.43576 0,-7.08904 -5.26042,-7.08904 z"
         id="path4553" />
    </g>
    <g
       aria-label="U"
       id="text1543-3-28"
       style="font-size:25.6508px;line-height:18.5208px;font-family:'Trebuchet MS';-inkscape-font-specification:'Trebuchet MS';stroke-width:2;paint-order:fill markers stroke">
      <path
         d="m -353.85227,168.11054 h 2.50496 v 12.56238 q 0,1.67833 1.06461,2.76798 1.06461,1.07714 2.81808,1.07714 1.85367,0 2.91828,-1.05209 1.06461,-1.05208 1.06461,-2.85565 v -12.49976 h 2.50496 v 12.76278 q 0,2.7805 -1.74095,4.34611 -1.72842,1.55307 -4.72185,1.55307 -3.0811,0 -4.7469,-1.52802 -1.6658,-1.52803 -1.6658,-4.38369 z"
         id="path4556" />
    </g>
    <g
       aria-label="E"
       id="text1543-4"
       style="font-size:25.6508px;line-height:18.5208px;font-family:'Trebuchet MS';-inkscape-font-specification:'Trebuchet MS';stroke-width:2;paint-order:fill markers stroke">
      <path
         d="m -310.47707,136.91187 v 5.09759 h 6.06201 v 2.12922 h -6.06201 v 6.6131 h 8.31647 v 2.25446 h -10.82143 V 134.6574 h 10.95921 v 2.25447 z"
         id="path4559" />
    </g>
    <g
       aria-label="T"
       id="text1543-8-97"
       style="font-size:25.6508px;line-height:18.5208px;font-family:'Trebuchet MS';-inkscape-font-specification:'Trebuchet MS';stroke-width:2;paint-order:fill markers stroke">
      <path
         d="m -306.38146,204.13129 v 16.09437 h -2.50496 v -16.09437 h -5.83656 v -2.25447 h 14.4411 v 2.25447 z"
         id="path4562" />
    </g>
    <g
       aria-label="E"
       id="text1543-79-5"
       style="font-size:25.6508px;line-height:18.5208px;font-family:'Trebuchet MS';-inkscape-font-specification:'Trebuchet MS';stroke-width:2;paint-order:fill markers stroke">
      <path
         d="m -276.86736,204.13129 v 5.09759 h 6.06201 v 2.12922 h -6.06201 v 6.6131 h 8.31647 v 2.25446 h -10.82143 v -18.34884 h 10.95921 v 2.25447 z"
         id="path4565" />
    </g>
    <g
       aria-label="S"
       id="text1543-2-45"
       style="font-size:25.6508px;line-height:18.5208px;font-family:'Trebuchet MS';-inkscape-font-specification:'Trebuchet MS';stroke-width:2;paint-order:fill markers stroke">
      <path
         d="m -279.00285,152.16708 0.91431,-2.30457 q 0.70139,0.51352 1.74095,0.86422 1.05208,0.33817 1.87872,0.33817 1.4654,0 2.35466,-0.80159 0.88927,-0.80159 0.88927,-2.04154 0,-0.92684 -0.501,-1.7159 -0.48846,-0.80159 -2.47991,-1.74095 l -1.47792,-0.68887 q -1.87873,-0.87673 -2.63021,-2.07911 -0.73897,-1.20238 -0.73897,-2.89323 0,-2.05407 1.45288,-3.40675 1.45288,-1.35268 3.73239,-1.35268 3.04353,0 4.23339,0.98946 l -0.73897,2.17932 q -0.50099,-0.36322 -1.52802,-0.70139 -1.02704,-0.33817 -1.90377,-0.33817 -1.27753,0 -2.0165,0.72644 -0.72644,0.72644 -0.72644,1.86619 0,0.70139 0.26302,1.27753 0.26303,0.57614 0.72644,0.96441 0.47595,0.38827 1.92882,1.08966 l 1.50298,0.71391 q 1.87872,0.88927 2.63021,2.12922 0.76401,1.22743 0.76401,3.1312 0,2.0666 -1.6658,3.50695 -1.65327,1.44035 -4.43378,1.44035 -2.44233,0 -4.17076,-1.15228 z"
         id="path4568" />
    </g>
    <g
       aria-label="T"
       id="text1543-7-4"
       style="font-size:25.6508px;line-height:18.5208px;font-family:'Trebuchet MS';-inkscape-font-specification:'Trebuchet MS';stroke-width:2;paint-order:fill markers stroke">
      <path
         d="m -239.16207,136.91187 v 16.09437 h -2.50496 v -16.09437 h -5.83656 v -2.25447 h 14.4411 v 2.25447 z"
         id="path4571" />
    </g>
    <g
       aria-label="D"
       id="text1543-7-9-8"
       style="font-size:25.6508px;line-height:18.5208px;font-family:'Trebuchet MS';-inkscape-font-specification:'Trebuchet MS';stroke-width:2;paint-order:fill markers stroke">
      <path
         d="m -243.01345,220.2883 h -3.69482 v -18.34884 q 3.532,-0.12525 4.52146,-0.12525 3.84511,0 6.08705,2.34214 2.24194,2.32961 2.24194,6.2123 0,9.91965 -9.15563,9.91965 z m -1.18986,-16.09437 v 13.71466 q 0.83916,0.12524 2.07912,0.12524 2.63021,0 4.13318,-1.96639 1.50298,-1.97892 1.50298,-5.48586 0,-6.5129 -5.84908,-6.5129 -0.3507,0 -1.8662,0.12525 z"
         id="path4574" />
    </g>
    <g
       aria-label="I"
       id="text1797-5"
       style="font-size:25.6508px;line-height:18.5208px;font-family:'Trebuchet MS';-inkscape-font-specification:'Trebuchet MS';stroke-width:2;paint-order:fill markers stroke">
      <path
         d="m -308.7549,186.61597 v -18.34884 h 2.50496 v 18.34884 z"
         id="path4577" />
    </g>
    <g
       aria-label="M"
       id="text1543-9-5"
       style="font-size:25.6508px;line-height:18.5208px;font-family:'Trebuchet MS';-inkscape-font-specification:'Trebuchet MS';stroke-width:2;paint-order:fill markers stroke">
      <path
         d="m -267.36105,186.49072 -2.17931,-11.78584 -4.00794,12.03634 h -0.62624 l -4.12066,-12.03634 -2.12922,11.78584 h -2.37971 l 3.4318,-18.34884 h 1.13975 l 4.37116,13.38902 4.03299,-13.38902 h 1.12723 l 3.71987,18.34884 z"
         id="path4580" />
    </g>
    <g
       aria-label="A"
       id="text1543-3-6"
       style="font-size:25.6508px;line-height:18.5208px;font-family:'Trebuchet MS';-inkscape-font-specification:'Trebuchet MS';stroke-width:2;paint-order:fill markers stroke">
      <path
         d="m -235.54866,186.74123 -1.26501,-3.87017 h -6.82602 l -1.35268,3.87017 h -2.80555 l 7.45226,-18.59934 h 0.66381 l 6.91369,18.59934 z m -4.58408,-13.78981 -2.84313,8.0785 h 5.44829 z"
         id="path4583" />
    </g>
    <g
       aria-label="O"
       id="text1543-30"
       style="font-size:25.6508px;line-height:18.5208px;font-family:'Trebuchet MS';-inkscape-font-specification:'Trebuchet MS';stroke-width:2;paint-order:fill markers stroke">
      <path
         d="m -208.00705,143.68153 q 0,-3.98289 1.99145,-6.66319 2.00396,-2.68031 5.39819,-2.68031 3.82006,0 5.84908,2.46738 2.04154,2.46739 2.04154,6.87612 0,4.52146 -2.04154,7.08904 -2.04154,2.55506 -5.84908,2.55506 -3.46937,0 -5.43577,-2.70536 -1.95387,-2.70535 -1.95387,-6.93874 z m 2.63021,0 q 0,3.15625 1.23996,5.27295 1.25248,2.11669 3.51947,2.11669 2.56758,0 3.90774,-1.94135 1.35267,-1.94134 1.35267,-5.44829 0,-7.08904 -5.26041,-7.08904 -2.32962,0 -3.54452,1.90377 -1.21491,1.90377 -1.21491,5.18527 z"
         id="path4586" />
    </g>
    <g
       aria-label="R"
       id="text1543-8-99"
       style="font-size:25.6508px;line-height:18.5208px;font-family:'Trebuchet MS';-inkscape-font-specification:'Trebuchet MS';stroke-width:2;paint-order:fill markers stroke">
      <path
         d="m -196.77229,220.31958 -4.8972,-7.8781 q -0.83916,0 -2.65526,-0.12525 v 8.00335 h -2.50496 v -18.34884 q 0.13777,0 1.94134,-0.0877 1.8161,-0.1002 2.64274,-0.1002 6.6131,0 6.6131,5.26042 0,1.72842 -1.06461,3.11867 -1.06461,1.37773 -2.53001,1.7159 l 5.32304,8.44172 z m -7.55246,-16.09437 v 5.9618 q 0.90179,0.12525 1.75347,0.12525 2.25447,0 3.2815,-0.72644 1.02704,-0.72644 1.02704,-2.59263 0,-1.54055 -1.10219,-2.21689 -1.10218,-0.67634 -3.48189,-0.67634 -0.37575,0 -1.47793,0.12525 z"
         id="path4589" />
    </g>
    <g
       aria-label="O"
       id="text1543-79-6"
       style="font-size:25.6508px;line-height:18.5208px;font-family:'Trebuchet MS';-inkscape-font-specification:'Trebuchet MS';stroke-width:2;paint-order:fill markers stroke">
      <path
         d="m -174.39734,210.90092 q 0,-3.98288 1.99145,-6.66319 2.00396,-2.68031 5.39819,-2.68031 3.82006,0 5.84908,2.46739 2.04154,2.46738 2.04154,6.87611 0,4.52146 -2.04154,7.08904 -2.04154,2.55506 -5.84908,2.55506 -3.46937,0 -5.43577,-2.70535 -1.95387,-2.70536 -1.95387,-6.93875 z m 2.63021,0 q 0,3.15625 1.23996,5.27295 1.25248,2.11669 3.51947,2.11669 2.56758,0 3.90774,-1.94135 1.35267,-1.94134 1.35267,-5.44829 0,-7.08904 -5.26041,-7.08904 -2.32962,0 -3.54452,1.90377 -1.21491,1.90377 -1.21491,5.18527 z"
         id="path4592" />
    </g>
    <g
       aria-label="V"
       id="text1543-2-5"
       style="font-size:25.6508px;line-height:18.5208px;font-family:'Trebuchet MS';-inkscape-font-specification:'Trebuchet MS';stroke-width:2;paint-order:fill markers stroke">
      <path
         d="m -166.02451,153.13149 h -1.265 l -6.83855,-18.59933 h 2.78051 l 4.72185,13.51426 4.54651,-13.51426 h 2.69283 z"
         id="path4595" />
    </g>
    <g
       aria-label="E"
       id="text1543-7-41"
       style="font-size:25.6508px;line-height:18.5208px;font-family:'Trebuchet MS';-inkscape-font-specification:'Trebuchet MS';stroke-width:2;paint-order:fill markers stroke">
      <path
         d="m -136.12213,136.91187 v 5.09759 h 6.062 v 2.12922 h -6.062 v 6.6131 h 8.31647 v 2.25446 h -10.82143 V 134.6574 h 10.9592 v 2.25447 z"
         id="path4598" />
    </g>
    <g
       aria-label="W"
       id="text1543-7-9-27"
       style="font-size:25.6508px;line-height:18.5208px;font-family:'Trebuchet MS';-inkscape-font-specification:'Trebuchet MS';stroke-width:2;paint-order:fill markers stroke">
      <path
         d="m -128.09374,220.35088 h -0.78907 l -4.37115,-12.65005 -4.08309,12.65005 h -0.78906 l -5.78646,-18.59933 h 2.60516 l 3.68229,12.81287 4.03299,-12.81287 h 0.87673 l 3.98289,12.78782 3.74492,-12.78782 h 2.60516 z"
         id="path4601" />
    </g>
    <g
       aria-label="R"
       id="text1797-52"
       style="font-size:25.6508px;line-height:18.5208px;font-family:'Trebuchet MS';-inkscape-font-specification:'Trebuchet MS';stroke-width:2;paint-order:fill markers stroke">
      <path
         d="m -196.77229,186.70988 -4.8972,-7.8781 q -0.83916,0 -2.65526,-0.12525 v 8.00335 h -2.50496 v -18.34883 q 0.13777,0 1.94134,-0.0877 1.8161,-0.1002 2.64274,-0.1002 6.6131,0 6.6131,5.26042 0,1.72842 -1.06461,3.11868 -1.06461,1.37773 -2.53001,1.7159 l 5.32304,8.44171 z m -7.55246,-16.09437 v 5.96181 q 0.90179,0.12525 1.75347,0.12525 2.25447,0 3.2815,-0.72644 1.02704,-0.72644 1.02704,-2.59264 0,-1.54055 -1.10219,-2.21689 -1.10218,-0.67634 -3.48189,-0.67634 -0.37575,0 -1.47793,0.12525 z"
         id="path4604" />
    </g>
    <g
       aria-label="T"
       id="text1543-9-3"
       style="font-size:25.6508px;line-height:18.5208px;font-family:'Trebuchet MS';-inkscape-font-specification:'Trebuchet MS';stroke-width:2;paint-order:fill markers stroke">
      <path
         d="m -165.63623,170.52156 v 16.09438 h -2.50497 v -16.09438 h -5.83655 v -2.25446 h 14.4411 v 2.25446 z"
         id="path4607" />
    </g>
    <g
       aria-label="H"
       id="text1543-3-65"
       style="font-size:25.6508px;line-height:18.5208px;font-family:'Trebuchet MS';-inkscape-font-specification:'Trebuchet MS';stroke-width:2;paint-order:fill markers stroke">
      <path
         d="m -129.13957,186.61594 v -8.86757 h -8.01587 v 8.86757 h -2.50496 V 168.2671 h 2.50496 v 7.35206 h 8.01587 v -7.35206 h 2.50496 v 18.34884 z"
         id="path4610" />
    </g>
    <g
       aria-label="E"
       id="text1543-5"
       style="font-size:25.6508px;line-height:18.5208px;font-family:'Trebuchet MS';-inkscape-font-specification:'Trebuchet MS';stroke-width:2;paint-order:fill markers stroke">
      <path
         d="m -417.60857,244.04741 v 5.0976 h 6.06201 v 2.12921 h -6.06201 v 6.6131 h 8.31647 v 2.25446 h -10.82143 v -18.34883 h 10.95921 v 2.25446 z"
         id="path4613" />
    </g>
    <g
       aria-label="O"
       id="text1543-8-21"
       style="font-size:25.6508px;line-height:18.5208px;font-family:'Trebuchet MS';-inkscape-font-specification:'Trebuchet MS';stroke-width:2;paint-order:fill markers stroke">
      <path
         d="m -422.27408,318.03648 q 0,-3.98289 1.99145,-6.66319 2.00397,-2.68031 5.39819,-2.68031 3.82006,0 5.84908,2.46738 2.04154,2.46739 2.04154,6.87612 0,4.52146 -2.04154,7.08904 -2.04154,2.55506 -5.84908,2.55506 -3.46937,0 -5.43577,-2.70536 -1.95387,-2.70535 -1.95387,-6.93874 z m 2.63021,0 q 0,3.15625 1.23996,5.27295 1.25248,2.11669 3.51947,2.11669 2.56758,0 3.90774,-1.94135 1.35268,-1.94134 1.35268,-5.44829 0,-7.08904 -5.26042,-7.08904 -2.32962,0 -3.54452,1.90377 -1.21491,1.90377 -1.21491,5.18527 z"
         id="path4616" />
    </g>
    <g
       aria-label="N"
       id="text1543-79-3"
       style="font-size:25.6508px;line-height:18.5208px;font-family:'Trebuchet MS';-inkscape-font-specification:'Trebuchet MS';stroke-width:2;paint-order:fill markers stroke">
      <path
         d="m -375.46946,327.48646 -9.48127,-13.41407 v 13.16357 h -2.37972 v -18.34884 h 1.00199 l 9.23078,12.68763 v -12.68763 h 2.37971 v 18.59934 z"
         id="path4619" />
    </g>
    <g
       aria-label="R"
       id="text1543-2-54"
       style="font-size:25.6508px;line-height:18.5208px;font-family:'Trebuchet MS';-inkscape-font-specification:'Trebuchet MS';stroke-width:2;paint-order:fill markers stroke">
      <path
         d="m -377.42961,260.23572 -4.8972,-7.8781 q -0.83916,0 -2.65526,-0.12525 v 8.00335 h -2.50496 v -18.34884 q 0.13777,0 1.94135,-0.0877 1.81609,-0.10019 2.64273,-0.10019 6.6131,0 6.6131,5.26041 0,1.72843 -1.06461,3.11868 -1.06461,1.37773 -2.53001,1.7159 l 5.32304,8.44172 z m -7.55246,-16.09438 v 5.96181 q 0.90179,0.12525 1.75348,0.12525 2.25446,0 3.28149,-0.72644 1.02704,-0.72644 1.02704,-2.59263 0,-1.54056 -1.10218,-2.2169 -1.10219,-0.67633 -3.4819,-0.67633 -0.37574,0 -1.47793,0.12524 z"
         id="path4622" />
    </g>
    <g
       aria-label="U"
       id="text1543-7-0"
       style="font-size:25.6508px;line-height:18.5208px;font-family:'Trebuchet MS';-inkscape-font-specification:'Trebuchet MS';stroke-width:2;paint-order:fill markers stroke">
      <path
         d="m -353.85227,241.63639 h 2.50496 v 12.56238 q 0,1.67832 1.06461,2.76798 1.06461,1.07713 2.81808,1.07713 1.85367,0 2.91828,-1.05208 1.06461,-1.05208 1.06461,-2.85565 v -12.49976 h 2.50496 v 12.76278 q 0,2.7805 -1.74095,4.3461 -1.72842,1.55308 -4.72185,1.55308 -3.0811,0 -4.7469,-1.52803 -1.6658,-1.52802 -1.6658,-4.38368 z"
         id="path4625" />
    </g>
    <g
       aria-label="S"
       id="text1543-7-9-22"
       style="font-size:25.6508px;line-height:18.5208px;font-family:'Trebuchet MS';-inkscape-font-specification:'Trebuchet MS';stroke-width:2;paint-order:fill markers stroke">
      <path
         d="m -352.52464,326.52204 0.91431,-2.30456 q 0.70139,0.51352 1.74095,0.86421 1.05208,0.33817 1.87872,0.33817 1.4654,0 2.35467,-0.80159 0.88926,-0.80158 0.88926,-2.04154 0,-0.92684 -0.501,-1.7159 -0.48846,-0.80159 -2.47991,-1.74095 l -1.47792,-0.68886 q -1.87872,-0.87674 -2.63021,-2.07912 -0.73897,-1.20238 -0.73897,-2.89323 0,-2.05407 1.45288,-3.40674 1.45288,-1.35268 3.73239,-1.35268 3.04353,0 4.23339,0.98946 l -0.73897,2.17931 q -0.50099,-0.36322 -1.52802,-0.70139 -1.02704,-0.33817 -1.90377,-0.33817 -1.27753,0 -2.0165,0.72644 -0.72644,0.72644 -0.72644,1.8662 0,0.70139 0.26303,1.27753 0.26302,0.57614 0.72643,0.96441 0.47595,0.38827 1.92882,1.08966 l 1.50298,0.71391 q 1.87872,0.88926 2.63021,2.12922 0.76401,1.22743 0.76401,3.1312 0,2.06659 -1.6658,3.50694 -1.65327,1.44036 -4.43378,1.44036 -2.44233,0 -4.17076,-1.15229 z"
         id="path4628" />
    </g>
    <g
       aria-label="P"
       id="text1797-7"
       style="font-size:25.6508px;line-height:18.5208px;font-family:'Trebuchet MS';-inkscape-font-specification:'Trebuchet MS';stroke-width:2;paint-order:fill markers stroke">
      <path
         d="m -417.84029,286.75013 v 7.06399 h -2.50496 v -18.34884 q 2.84313,-0.12525 3.4318,-0.12525 7.99082,0 7.99082,5.34809 0,6.18726 -7.06399,6.18726 -0.42584,0 -1.85367,-0.12525 z m 0,-9.03039 v 6.77592 q 1.59065,0.12525 1.67833,0.12525 4.65922,0 4.65922,-3.66977 0,-3.35665 -4.97234,-3.35665 -0.501,0 -1.36521,0.12525 z"
         id="path4631" />
    </g>
    <g
       aria-label="T"
       id="text1543-9-9"
       style="font-size:25.6508px;line-height:18.5208px;font-family:'Trebuchet MS';-inkscape-font-specification:'Trebuchet MS';stroke-width:2;paint-order:fill markers stroke">
      <path
         d="m -379.90325,277.65712 v 16.09438 h -2.50496 v -16.09438 h -5.83656 v -2.25446 h 14.4411 v 2.25446 z"
         id="path4634" />
    </g>
    <g
       aria-label="I"
       id="text1543-3-4"
       style="font-size:25.6508px;line-height:18.5208px;font-family:'Trebuchet MS';-inkscape-font-specification:'Trebuchet MS';stroke-width:2;paint-order:fill markers stroke">
      <path
         d="m -348.66698,293.7515 v -18.34884 h 2.50496 v 18.34884 z"
         id="path4637" />
    </g>
    <g
       aria-label="V"
       id="text1543-81"
       style="font-size:25.6508px;line-height:18.5208px;font-family:'Trebuchet MS';-inkscape-font-specification:'Trebuchet MS';stroke-width:2;paint-order:fill markers stroke">
      <path
         d="m -306.76973,260.26704 h -1.26501 l -6.83854,-18.59934 h 2.78051 l 4.72185,13.51427 4.5465,-13.51427 h 2.69284 z"
         id="path4640" />
    </g>
    <g
       aria-label="E"
       id="text1543-8-5"
       style="font-size:25.6508px;line-height:18.5208px;font-family:'Trebuchet MS';-inkscape-font-specification:'Trebuchet MS';stroke-width:2;paint-order:fill markers stroke">
      <path
         d="m -310.47707,311.2668 v 5.0976 h 6.06201 v 2.12921 h -6.06201 v 6.6131 h 8.31647 v 2.25447 h -10.82143 v -18.34884 h 10.95921 v 2.25446 z"
         id="path4643" />
    </g>
    <g
       aria-label="E"
       id="text1543-79-9"
       style="font-size:25.6508px;line-height:18.5208px;font-family:'Trebuchet MS';-inkscape-font-specification:'Trebuchet MS';stroke-width:2;paint-order:fill markers stroke">
      <path
         d="m -276.86736,311.2668 v 5.0976 h 6.06201 v 2.12921 h -6.06201 v 6.6131 h 8.31647 v 2.25447 h -10.82143 v -18.34884 h 10.95921 v 2.25446 z"
         id="path4646" />
    </g>
    <g
       aria-label="O"
       id="text1543-2-8"
       style="font-size:25.6508px;line-height:18.5208px;font-family:'Trebuchet MS';-inkscape-font-specification:'Trebuchet MS';stroke-width:2;paint-order:fill markers stroke">
      <path
         d="m -281.53287,250.81706 q 0,-3.98289 1.99145,-6.6632 2.00397,-2.6803 5.39819,-2.6803 3.82006,0 5.84908,2.46738 2.04155,2.46739 2.04155,6.87612 0,4.52146 -2.04155,7.08904 -2.04154,2.55506 -5.84908,2.55506 -3.46937,0 -5.43577,-2.70536 -1.95387,-2.70535 -1.95387,-6.93874 z m 2.63021,0 q 0,3.15625 1.23996,5.27294 1.25248,2.1167 3.51947,2.1167 2.56758,0 3.90774,-1.94135 1.35268,-1.94134 1.35268,-5.44829 0,-7.08904 -5.26042,-7.08904 -2.32962,0 -3.54452,1.90377 -1.21491,1.90377 -1.21491,5.18527 z"
         id="path4649" />
    </g>
    <g
       aria-label="L"
       id="text1543-7-03"
       style="font-size:25.6508px;line-height:18.5208px;font-family:'Trebuchet MS';-inkscape-font-specification:'Trebuchet MS';stroke-width:2;paint-order:fill markers stroke">
      <path
         d="m -245.6812,260.14178 v -18.34883 h 2.50496 v 16.09437 h 8.29142 v 2.25446 z"
         id="path4652" />
    </g>
    <g
       aria-label="R"
       id="text1543-7-9-46"
       style="font-size:25.6508px;line-height:18.5208px;font-family:'Trebuchet MS';-inkscape-font-specification:'Trebuchet MS';stroke-width:2;paint-order:fill markers stroke">
      <path
         d="m -236.68838,327.45511 -4.8972,-7.8781 q -0.83916,0 -2.65526,-0.12525 v 8.00335 h -2.50496 v -18.34884 q 0.13777,0 1.94134,-0.0877 1.8161,-0.1002 2.64274,-0.1002 6.61309,0 6.61309,5.26042 0,1.72842 -1.06461,3.11867 -1.0646,1.37773 -2.53001,1.7159 l 5.32305,8.44172 z m -7.55246,-16.09438 v 5.96181 q 0.90178,0.12525 1.75347,0.12525 2.25447,0 3.2815,-0.72644 1.02703,-0.72644 1.02703,-2.59263 0,-1.54055 -1.10218,-2.21689 -1.10218,-0.67634 -3.48189,-0.67634 -0.37575,0 -1.47793,0.12524 z"
         id="path4655" />
    </g>
    <g
       aria-label="U"
       id="text1797-8"
       style="font-size:25.6508px;line-height:18.5208px;font-family:'Trebuchet MS';-inkscape-font-specification:'Trebuchet MS';stroke-width:2;paint-order:fill markers stroke">
      <path
         d="m -313.94019,275.24607 h 2.50496 v 12.56238 q 0,1.67832 1.06461,2.76798 1.06461,1.07713 2.81808,1.07713 1.85367,0 2.91828,-1.05208 1.06461,-1.05208 1.06461,-2.85565 v -12.49976 h 2.50496 v 12.76278 q 0,2.7805 -1.74095,4.3461 -1.72842,1.55308 -4.72185,1.55308 -3.0811,0 -4.7469,-1.52803 -1.6658,-1.52802 -1.6658,-4.38368 z"
         id="path4658" />
    </g>
    <g
       aria-label="N"
       id="text1543-9-38"
       style="font-size:25.6508px;line-height:18.5208px;font-family:'Trebuchet MS';-inkscape-font-specification:'Trebuchet MS';stroke-width:2;paint-order:fill markers stroke">
      <path
         d="m -268.33796,293.87672 -9.48127,-13.41407 v 13.16357 h -2.37972 v -18.34884 h 1.00199 l 9.23078,12.68763 v -12.68763 h 2.37971 v 18.59934 z"
         id="path4661" />
    </g>
    <g
       aria-label="T"
       id="text1543-3-0"
       style="font-size:25.6508px;line-height:18.5208px;font-family:'Trebuchet MS';-inkscape-font-specification:'Trebuchet MS';stroke-width:2;paint-order:fill markers stroke">
      <path
         d="m -239.16204,277.65709 v 16.09437 h -2.50496 v -16.09437 h -5.83656 v -2.25446 h 14.4411 v 2.25446 z"
         id="path4664" />
    </g>
    <g
       aria-label="S"
       id="text1543-78"
       style="font-size:25.6508px;line-height:18.5208px;font-family:'Trebuchet MS';-inkscape-font-specification:'Trebuchet MS';stroke-width:2;paint-order:fill markers stroke">
      <path
         d="m -205.47705,259.30262 0.91432,-2.30456 q 0.70138,0.51352 1.74094,0.86421 1.05209,0.33817 1.87872,0.33817 1.46541,0 2.35467,-0.80159 0.88926,-0.80159 0.88926,-2.04154 0,-0.92684 -0.50099,-1.7159 -0.48847,-0.80159 -2.47992,-1.74095 l -1.47792,-0.68886 q -1.87872,-0.87674 -2.63021,-2.07912 -0.73896,-1.20238 -0.73896,-2.89323 0,-2.05407 1.45287,-3.40675 1.45288,-1.35267 3.73239,-1.35267 3.04353,0 4.23339,0.98945 l -0.73896,2.17932 q -0.501,-0.36322 -1.52803,-0.70139 -1.02703,-0.33817 -1.90377,-0.33817 -1.27753,0 -2.01649,0.72644 -0.72644,0.72644 -0.72644,1.8662 0,0.70139 0.26302,1.27753 0.26302,0.57614 0.72644,0.96441 0.47594,0.38827 1.92882,1.08965 l 1.50297,0.71392 q 1.87872,0.88926 2.63021,2.12922 0.76401,1.22743 0.76401,3.1312 0,2.06659 -1.66579,3.50694 -1.65328,1.44035 -4.43379,1.44035 -2.44233,0 -4.17076,-1.15228 z"
         id="path4667" />
    </g>
    <g
       aria-label="I"
       id="text1543-8-59"
       style="font-size:25.6508px;line-height:18.5208px;font-family:'Trebuchet MS';-inkscape-font-specification:'Trebuchet MS';stroke-width:2;paint-order:fill markers stroke">
      <path
         d="m -201.6194,327.36115 v -18.34884 h 2.50496 v 18.34884 z"
         id="path4670" />
    </g>
    <g
       aria-label="N"
       id="text1543-79-7"
       style="font-size:25.6508px;line-height:18.5208px;font-family:'Trebuchet MS';-inkscape-font-specification:'Trebuchet MS';stroke-width:2;paint-order:fill markers stroke">
      <path
         d="m -161.20246,327.4864 -9.48128,-13.41407 v 13.16357 h -2.37971 v -18.34884 h 1.00199 l 9.23078,12.68763 v -12.68763 h 2.37971 v 18.59934 z"
         id="path4673" />
    </g>
    <g
       aria-label="Q"
       id="text1543-2-453"
       style="font-size:25.6508px;line-height:18.5208px;font-family:'Trebuchet MS';-inkscape-font-specification:'Trebuchet MS';stroke-width:2;paint-order:fill markers stroke">
      <path
         d="m -157.73933,259.75978 -0.37575,2.44234 q -6.563,0 -8.60454,-3.64472 -0.38827,0.16282 -1.6658,0.16282 -3.46937,0 -5.43576,-2.70535 -1.95387,-2.70536 -1.95387,-6.93875 0,-3.97036 1.99144,-6.65067 1.99144,-2.69283 5.39819,-2.69283 3.82007,0 5.84908,2.46739 2.04155,2.46738 2.04155,6.87611 0,6.32503 -3.78249,8.67969 1.3652,2.00397 4.58408,2.00397 z m -10.64609,-17.77269 q -2.32961,0 -3.54452,1.90377 -1.21491,1.90377 -1.21491,5.18526 0,3.15626 1.23996,5.27295 1.25248,2.11669 3.51947,2.11669 2.58011,0 3.92026,-1.95387 1.34016,-1.96639 1.34016,-5.43577 0,-7.08903 -5.26042,-7.08903 z"
         id="path4676" />
    </g>
    <g
       aria-label="U"
       id="text1543-7-8"
       style="font-size:25.6508px;line-height:18.5208px;font-family:'Trebuchet MS';-inkscape-font-specification:'Trebuchet MS';stroke-width:2;paint-order:fill markers stroke">
      <path
         d="m -139.58525,241.63639 h 2.50496 v 12.56238 q 0,1.67832 1.06461,2.76798 1.0646,1.07713 2.81808,1.07713 1.85367,0 2.91828,-1.05208 1.06461,-1.05208 1.06461,-2.85565 v -12.49976 h 2.50496 v 12.76278 q 0,2.7805 -1.74095,4.3461 -1.72842,1.55308 -4.72185,1.55308 -3.08111,0 -4.7469,-1.52803 -1.6658,-1.52802 -1.6658,-4.38368 z"
         id="path4679" />
    </g>
    <g
       aria-label="G"
       id="text1543-7-9-49"
       style="font-size:25.6508px;line-height:18.5208px;font-family:'Trebuchet MS';-inkscape-font-specification:'Trebuchet MS';stroke-width:2;paint-order:fill markers stroke">
      <path
         d="m -126.79116,310.28984 -1.03955,2.06659 q -1.89125,-1.40278 -3.70735,-1.40278 -2.8807,0 -4.5465,2.02902 -1.6658,2.02902 -1.6658,5.37314 0,3.1813 1.62823,5.12265 1.64074,1.94134 4.45883,1.94134 2.00396,0 3.24392,-1.20238 v -4.29601 h -2.54254 v -2.12922 h 5.0475 v 7.99083 q -1.00198,0.85169 -2.79303,1.37773 -1.79105,0.51352 -3.4819,0.51352 -3.79501,0 -5.99938,-2.56759 -2.19184,-2.58011 -2.19184,-6.85107 0,-4.25843 2.40476,-6.90117 2.41729,-2.65525 6.5129,-2.65525 2.86818,0 4.67175,1.59065 z"
         id="path4682" />
    </g>
    <g
       aria-label="E"
       id="text1797-3"
       style="font-size:25.6508px;line-height:18.5208px;font-family:'Trebuchet MS';-inkscape-font-specification:'Trebuchet MS';stroke-width:2;paint-order:fill markers stroke">
      <path
         d="m -203.34155,277.65706 v 5.0976 h 6.062 v 2.12921 h -6.062 v 6.6131 h 8.31647 v 2.25446 h -10.82143 v -18.34884 h 10.9592 v 2.25447 z"
         id="path4685" />
    </g>
    <g
       aria-label="E"
       id="text1543-9-8"
       style="font-size:25.6508px;line-height:18.5208px;font-family:'Trebuchet MS';-inkscape-font-specification:'Trebuchet MS';stroke-width:2;paint-order:fill markers stroke">
      <path
         d="m -169.73184,277.65706 v 5.0976 h 6.062 v 2.12921 h -6.062 v 6.6131 h 8.31647 v 2.25446 h -10.82143 v -18.34884 h 10.9592 v 2.25447 z"
         id="path4688" />
    </g>
    <g
       aria-label="Z"
       id="text1543-3-49"
       style="font-size:25.6508px;line-height:18.5208px;font-family:'Trebuchet MS';-inkscape-font-specification:'Trebuchet MS';stroke-width:2;paint-order:fill markers stroke">
      <path
         d="m -138.95275,293.75143 v -0.62624 l 7.89063,-15.46813 h -7.76538 v -2.25447 h 11.2097 v 0.62625 l -7.91568,15.46813 h 8.19122 v 2.25446 z"
         id="path4691" />
    </g>
  </g>
</svg>
