<svg xmlns="http://www.w3.org/2000/svg" width="378" height="378" viewBox="0 0 100 100"><g fill="none" stroke="#000"><path d="m27 22-9 8 6 10 11-2 2-11-10-5"/><path d="m36 15-9 7 10 5zM37 27l-2 11 10-4ZM35 38l-11 2 7 8zM24 40l-6-10-5 10h11M27 22l-12-3 3 11Z"/><path d="m32 12-7-9-11 5 1 11 12 3 5-10"/><path d="m32 12 4-11-11 2ZM48 29l6-10-8-8-10 4 1 12 11 2"/><path d="M48 29h11l-5-10zM36 49l11 3 6-10-8-8-10 4 1 11"/><path d="m36 49 4 11 7-8zM13 44l1 12 11 2 6-10-7-8-11 4"/><path d="m13 44-9 7 10 5ZM11 21 0 26l1 11 12 3 5-10-7-9"/><path d="m11 21-9-6-2 11ZM73 59l-11 4 1 11 11 3 6-9-7-9"/><path d="m84 57-11 2 7 9zM80 68l-6 9h11zM74 77l-11-3 3 11ZM63 74l-1-11-9 6 10 5M73 59l-9-7-2 11Z"/><path d="m82 52-3-11H67l-3 11 9 7 9-7"/><path d="m82 52 8-9-11-2zM89 74l10-6-4-11H84l-4 11 9 6"/><path d="m89 74 11 5-1-11ZM70 88l9 7 10-7-4-11H74l-4 11"/><path d="m70 88-1 11 10-4ZM51 74l-3 11 9 7 9-7-3-11H51"/><path d="m51 74-11 3 8 8zM59 52H47l-3 11 9 6 9-6-3-11M59 52l-6-10-6 10z"/></g></svg>