<svg xmlns="http://www.w3.org/2000/svg" width="378" height="378" viewBox="0 0 100 100"><g fill="none" stroke="#000"><path stroke-width="1.08" d="m19 38 4-13 13.5-.3 4.4 12.9L30 45.7z"/><path stroke-width="1.08" d="m58.4 24.4-11-7.8-11 8.1L41 37.6l13.5-.2zM52 45.4l-11.1-7.8L30 45.7l4.4 12.9 13.6-.3zM30 45.7 19 38 8 46.1l4.5 12.8 13.5-.2zM23 25 11.7 17 1 25.3 5.4 38l13.5-.2zM70 58l-11 8.1L63.6 79l13.5-.2 4-13z"/><path stroke-width="1.08" d="M70.6 99.8 59.5 92l4-13 13.5-.2 4.4 12.8zM88.1 86.6l-11-7.8 4-13 13.5-.2L99 78.4zM59 66.1l-11-7.8 4-13 13.5-.1L70 58z"/><path d="m23 25-7.1-11.7 6.6-12 7 11.7L36 1.1l7 11.7-6.6 12Z"/><path d="m15.9 13.3 13.6-.3-6.6 12 13.6-.3-7-11.7 13.6-.2M69.8 58.1l1-13.6 12.4-5.9L82 52.2l12.3-5.8-1 13.6L81 65.8z"/><path d="M70.9 44.5 82 52.2l-12.3 6L81 65.7l1.1-13.6L93.3 60M63.6 79l-8.8 10.3L41.4 87l8.8-10.4L36.8 74l8.9-10.3L59 66Z"/><path d="m54.8 89.3-4.6-12.8L63.6 79l-4.5-12.8-8.9 10.4-4.5-12.8"/></g></svg>