<svg xmlns="http://www.w3.org/2000/svg" fill="none" viewBox="0 0 114 101"><g clip-path="url(#a)"><path fill="#fff" fill-rule="evenodd" stroke="#000" stroke-width=".86" d="M112.54 9.02 61.51 97.47s-1.52 2.93-4.82 2.93c-3.3 0-4.85-2.93-4.85-2.93L.97 9.13c-1.77-3.08 1.1-7.86 4.6-7.86h101.98c4.92 0 6.17 5.24 5 7.75Z" clip-rule="evenodd"/><path fill="#C0111E" fill-rule="evenodd" d="M109.36 7.43 58.78 95.2s-.96 1.8-2.06 1.8-2.33-1.8-2.33-1.8L3.9 7.54c-.67-1.2.25-3.48 1.99-3.48h101.26c1.7 0 2.84 2.27 2.2 3.37Z" clip-rule="evenodd"/><path fill="#fff" fill-rule="evenodd" d="m56.44 79.61-36.02-65.1h72l-35.98 65.1Z" clip-rule="evenodd"/><path fill="#000" fill-rule="evenodd" d="M42.84 24.18c-.57-1.13-1.38-1.94-2.87-1.94-2.34 0-3.22 2.55-3.22 4.21 0 3.33 1.03 5.46 3.22 5.46 1.24 0 2.98-1 2.98-2.45H40.6v-2.44h4.85v2.51a5.5 5.5 0 0 1-5.49 4.75c-4.14 0-5.63-3.69-5.63-7.8 0-3.71 2.34-6.72 5.63-6.72a5.6 5.6 0 0 1 5.1 3.57l-2.23.85Z" clip-rule="evenodd"/><path fill="#000" d="M48.3 34h2.4V20.03h-2.4v13.95Z"/><path fill="#000" fill-rule="evenodd" d="m58.39 34-5.03-13.96h2.55l3.79 10.41 3.79-10.41H66l-5 13.95h-2.6Zm10.27-13.96h9.99v2.44h-7.58v2.77h4.1v2.44h-4.1v3.86h7.86v2.44H68.66V20.04ZM41.1 38.88h1.74l.85 5.85 1.56-5.85h1.6l1.45 5.85.8-5.85h1.78l-1.56 11.16h-1.56L46 43.03l-1.73 7.01h-1.6L41.1 38.88Zm14.85 0-3.8 11.16h1.88l1.03-3.15h3.54l1.1 3.15h1.8l-3.82-11.16h-1.73Zm2.01 6.27H55.7l1.1-3.33 1.16 3.33Zm4.79-6.27h2.09l2.62 4.32 2.69-4.32h2.02l-3.83 6.38v4.78h-1.7v-4.78l-3.9-6.38Z" clip-rule="evenodd"/></g><defs><clipPath id="a"><path fill="#fff" d="M0 .84h113.39v100H0z"/></clipPath></defs></svg>