<svg xmlns="http://www.w3.org/2000/svg" fill="none" viewBox="0 0 100 100"><g clip-path="url(#a)"><path fill="#fff" d="M29.6.69.68 29.59v40.86l28.9 28.86H70.4l28.9-28.86V29.6L70.41.69H29.6Z"/><path fill="#000" d="M29.3 0 0 29.31v41.43L29.3 100h41.4L100 70.74V29.3L70.7 0H29.3Zm70.01 29.6v40.85l-28.9 28.86H29.6L.7 70.45V29.6L29.59.69h40.82l28.9 28.9Z"/><path fill="#C0111E" d="M2.83 30.46 30.47 2.83h39.02l27.68 27.63v39.09L69.5 97.17H30.47L2.83 69.54V30.47Z"/><path fill="#fff" d="m20.88 63.32-1.73-7.13h-5.31l-1.63 7.13H8.63l6.17-26.1h3.46l6.16 26.1h-3.54Zm-4.43-18.3-1.73 7.51h3.54l-1.8-7.52Zm21.59 18.3-3.29-12.27h-3.4v12.27h-3.53v-26.1h7.38c.95 0 1.83.17 2.63.5a6 6 0 0 1 3.4 3.6c.3.88.46 1.84.46 2.87 0 1.56-.3 2.89-.89 3.98a5.05 5.05 0 0 1-2.65 2.34l3.54 12.81h-3.65Zm.18-19.13c0-1-.3-1.81-.89-2.41-.58-.6-1.36-.9-2.32-.9h-3.65v6.59H35c1.03 0 1.83-.28 2.38-.84.55-.56.83-1.37.83-2.44Zm17.86 19.13-3.29-12.27h-3.4v12.27h-3.53v-26.1h7.38c.95 0 1.83.17 2.63.5a6 6 0 0 1 3.4 3.6c.3.88.46 1.84.46 2.87 0 1.56-.3 2.89-.89 3.98a5.04 5.04 0 0 1-2.65 2.34l3.54 12.81h-3.65Zm.18-19.13c0-1-.3-1.81-.89-2.41a3.1 3.1 0 0 0-2.32-.9H49.4v6.59h3.65c1.03 0 1.83-.28 2.38-.84.55-.56.83-1.37.83-2.44Zm7.64 19.13v-26.1h11.62v3.66h-8.08v6.59h5.13v3.58h-5.13v8.6h9.04v3.67H63.9Zm11-29.21h-2.7l-2.66-3.32-2.65 3.32h-2.62l3.54-4.48h3.58l3.5 4.48Zm11.9 6.58v22.63h-3.57V40.7h-4.5v-3.47H91.3v3.47h-4.5Z"/></g><defs><clipPath id="a"><path fill="#fff" d="M0 0h100v100H0z"/></clipPath></defs></svg>