<svg xmlns="http://www.w3.org/2000/svg" fill="none" viewBox="0 0 136 51"><g clip-path="url(#a)"><path fill="#fff" d="M7.82 50.6a6.67 6.67 0 0 1-6.73-6.62V7.58A6.67 6.67 0 0 1 7.82.96h121.16a6.67 6.67 0 0 1 6.73 6.62v36.4a6.67 6.67 0 0 1-6.73 6.62"/><path fill="#000" d="M1.15 43.98V7.58a6.62 6.62 0 0 1 6.67-6.55h121.16a6.61 6.61 0 0 1 6.66 6.55v36.4a6.61 6.61 0 0 1-6.66 6.55H7.82a6.62 6.62 0 0 1-6.67-6.55ZM7.82.9c-3.75 0-6.8 3-6.8 6.68v36.4a6.75 6.75 0 0 0 6.8 6.68h121.16c3.74 0 6.8-3 6.8-6.68V7.58a6.75 6.75 0 0 0-6.8-6.68"/><path fill="#154889" d="M7.82 48.12a4.17 4.17 0 0 1-4.2-4.14V7.58a4.17 4.17 0 0 1 4.2-4.13h121.16c2.32 0 4.2 1.85 4.2 4.13v36.4a4.17 4.17 0 0 1-4.2 4.14"/><path fill="#fff" d="M7.84 25.78 39.71 7.7a2.55 2.55 0 0 1 3.45.9c.33.58.43 1.26.25 1.9l-1.91 7h88.34v16.54H41.5l1.91 7.03a2.48 2.48 0 0 1-1.78 3.04c-.65.17-1.34.08-1.92-.25"/><path fill="#000" fill-rule="evenodd" d="M48.73 30.57v-6.82h1.37v6.82h-1.37Zm0-8.2V21h1.37v1.37h-1.37Zm51.37 1.3v6.9h1.38v-4.25.15c0-.12 0-.22.02-.33.06-.26.18-.49.38-.68.27-.27.6-.4.98-.4v-.01c.29 0 .57.12.85.33l1-1.18a2.3 2.3 0 0 0-1.43-.53h-.42c-.43 0-1.05.17-1.38.36v-.36h-1.38ZM.98.66Zm0 0Zm0 .01Zm0 0Zm.01 0H.98ZM.98.66Zm40.26 29.91v-9.65h6.2v1.37h-4.82v2.76h3.45v1.38h-3.45v2.76h4.83v1.38h-6.2Zm10.8-6.9h1.38v.36c.4-.24.87-.36 1.38-.36.76 0 1.41.27 1.95.81s.8 1.19.8 1.95v4.14h-1.38v-4.14c0-.38-.13-.7-.4-.97s-.6-.4-.97-.4c-.39 0-.71.13-.98.4-.27.26-.4.59-.4.97v4.14h-1.38v-6.9Zm8.83 6.9h-1.38v-9.65h1.38v3.11c.4-.24.87-.36 1.38-.36.76 0 1.41.27 1.95.81s.8 1.19.8 1.95v1.38c0 .76-.26 1.42-.8 1.95-.54.54-1.19.8-1.95.8-.51 0-.97-.11-1.38-.35v.36Zm2.76-2.76v-1.38c0-.38-.14-.7-.4-.97-.28-.27-.6-.4-.98-.4-.39 0-.71.13-.98.4-.27.26-.4.59-.4.97v1.38a1.36 1.36 0 0 0 1.38 1.38c.38 0 .7-.13.97-.4s.4-.6.4-.98Zm10.63-6.89h1.38v3.11c.41-.24.87-.36 1.38-.36.76 0 1.41.27 1.95.81s.8 1.19.8 1.95v4.14H78.4v-4.14c0-.38-.14-.7-.4-.97-.27-.27-.6-.4-.98-.4s-.7.13-.98.4c-.26.26-.4.59-.4.97v4.14h-1.38v-9.65Zm7.45 2.75h1.38v.36c.41-.24.87-.36 1.38-.36.76 0 1.41.27 1.95.81s.8 1.19.8 1.95v4.14h-1.37v-4.14c0-.38-.14-.7-.4-.97-.27-.27-.6-.4-.98-.4s-.7.13-.98.4c-.27.26-.4.59-.4.97v4.14h-1.38v-6.9Zm7.04 6.09.97-.97c.27.27.6.4.98.4h1.38a.7.7 0 0 0 .49-.2.7.7 0 0 0 0-.98.67.67 0 0 0-.5-.2H90.7a2 2 0 0 1-1.46-.6 2 2 0 0 1-.6-1.47 2 2 0 0 1 .6-1.46 2 2 0 0 1 1.46-.6h1.38c.76 0 1.41.26 1.95.8l-.98.98a1.3 1.3 0 0 0-.97-.4H90.7c-.2 0-.35.06-.49.2-.13.13-.2.3-.2.48 0 .2.07.36.2.49.14.13.3.2.49.2h1.38a2 2 0 0 1 1.46.6c.4.4.6.9.6 1.47a2 2 0 0 1-.6 1.46 2 2 0 0 1-1.46.6H90.7c-.76 0-1.42-.26-1.95-.8Zm8.58.82h-1.38v-5.53h-.69v-1.38h.69v-1.43l1.38-1.32v2.75h1.16v1.38h-1.16v5.53Zm17.95-.01v-1.38h.7a.7.7 0 0 0 .48-.2.7.7 0 0 0 .2-.49v-2.76a.7.7 0 0 0-.2-.49.66.66 0 0 0-.49-.2h-.69v-1.38h.7c.18 0 .34-.06.48-.2.13-.13.2-.3.2-.49s-.07-.35-.2-.48a.66.66 0 0 0-.49-.2h-1.38a.66.66 0 0 0-.49.2c-.13.13-.2.3-.2.48v7.59h-1.38v-7.59a2 2 0 0 1 .6-1.46 2 2 0 0 1 1.47-.6h1.38a2 2 0 0 1 1.47.6c.4.4.6.9.6 1.46a2 2 0 0 1-.52 1.38 2 2 0 0 1 .52 1.38v2.76a2 2 0 0 1-.6 1.46 2 2 0 0 1-1.47.6h-.69Zm6-4.14h2.76c0-.38-.13-.7-.4-.97s-.6-.4-.98-.4-.7.13-.97.4c-.27.26-.4.59-.4.97Zm3.92 3.24a3 3 0 0 1-2.2.9 3 3 0 0 1-2.2-.9c-.6-.61-.9-1.34-.9-2.2v-1.04c0-.76.27-1.41.81-1.95s1.19-.8 1.95-.8c.77 0 1.42.26 1.95.8.54.54.81 1.19.81 1.95v1.38h-4.1A1.7 1.7 0 0 0 123 29.2c.48 0 .89-.17 1.22-.5l.98.98Z" clip-rule="evenodd"/><path fill="#000" d="M68.97 23.67a2.08 2.08 0 0 0-1.87 1.23c-.1.25-.16.51-.16.79v.08h1.35v-.08c0-.46.23-.68.68-.68h1.34s.67 0 .67.76c0 .77-.67.77-.67.77h-1.34a2.07 2.07 0 0 0-1.87 1.24 1.94 1.94 0 0 0 0 1.56 2.03 2.03 0 0 0 1.87 1.23h1.34a2 2 0 0 0 .67-.11v.1h1.35v-4.79s0-2.09-2.02-2.1h-1.34Zm2 4.1v.78c0 .45-.21.68-.66.68h-1.34c-.45 0-.68-.23-.68-.68 0-.44.23-.67.68-.67h1.34a2 2 0 0 0 .67-.1Zm36.33-4.1a2.07 2.07 0 0 0-1.87 1.23c-.1.25-.16.51-.16.79v.08h1.35v-.08c0-.46.23-.68.68-.68h1.34s.67 0 .67.76c0 .77-.67.77-.67.77h-1.34a2.06 2.06 0 0 0-1.87 1.24 1.95 1.95 0 0 0 .44 2.2 2.06 2.06 0 0 0 1.43.59h1.34a2 2 0 0 0 .67-.11v.1h1.35v-4.79s0-2.09-2.02-2.1h-1.34Zm2 4.1v.78c0 .45-.22.68-.66.68h-1.34c-.45 0-.68-.23-.68-.68 0-.44.23-.67.68-.67h1.34a2 2 0 0 0 .67-.1Z"/></g><defs><clipPath id="a"><path fill="#fff" d="M.98.66h134.8v50H.98z"/></clipPath></defs></svg>