<svg xmlns="http://www.w3.org/2000/svg" fill="none" viewBox="0 0 101 101"><g clip-path="url(#a)"><path fill="#000" d="m70.9 100.18 29.28-29.28V29.5L70.9.22H29.5L.22 29.5v41.4l29.28 29.28h41.4Z"/><path fill="#fff" d="m70.7 99.69 28.99-29V29.7L70.69.71H29.7l-28.99 29V70.7l29 28.99H70.7Z"/><path fill="#C0111E" d="M30.73 97.21 3.19 69.67V30.73L30.73 3.19h38.94l27.54 27.54v38.94L69.67 97.21H30.73Z"/><path fill="#fff" d="M7.64 49.17V33.12h3.48c3.84 0 3.87 0 4.6.36.47.23 1.15.9 1.4 1.38.66 1.25.79 2.76.74 8.6-.03 3.67-.06 4.18-.27 4.83-.1.3-.2.47-.6 1.03-.09.13-.08.14.14.38.29.32.44.61.56 1.1.09.35.1.94.1 5.76 0 5.66 0 5.88-.26 6.76-.05.2-.15.44-.22.55a2.8 2.8 0 0 1-1.56 1.03c-.86.25-1.12.27-4.68.3l-3.43.02V49.17Zm5.77 11.31c.36-.1.64-.32.8-.64l.14-.28v-7.3l-.16-.31a1.1 1.1 0 0 0-.43-.48l-.28-.17-1.24-.02-1.25-.02v9.29h1.1c.6 0 1.2-.03 1.32-.07Zm.5-13.62c.12-.1.3-.28.37-.42l.13-.25v-3.4c0-3.24 0-3.42-.11-3.63a1.2 1.2 0 0 0-.56-.54c-.15-.08-.4-.1-1.46-.1h-1.29v8.55l1.34-.02 1.33-.02.24-.17Zm5.56 2.3V33.13h10.19v5.07h-6.83v8.42h5.69v4.78h-5.7v9.1h6.72v4.72H19.47V49.17Zm11.84 0V33.13h3.6c3.76 0 3.88.01 4.36.26a3.6 3.6 0 0 1 1.57 1.76c.2.41.25.62.3 1.03.12 1.02.19 3.78.2 7.88 0 4.18 0 4.18-.12 4.66-.07.27-.23.7-.36.95a2 2 0 0 1-1.03 1.04c-.18.1-.35.22-.37.25-.01.04.48 3.23 1.09 7.1l1.11 7.09c0 .06-.32.07-1.8.06l-1.81-.02-1.1-6.74-1.12-6.98-.04-.25h-1.18v14h-3.3V49.17ZM37.37 46c.28-.13.51-.4.59-.68.09-.32.08-6.05-.01-6.35a1.1 1.1 0 0 0-.74-.7c-.16-.05-.7-.07-1.32-.07h-1.06v7.9H36c.99 0 1.18-.01 1.38-.1Zm5.94 3.18V33.12h3.3V46.1h3.24V33.12h3.3v32.09h-3.3V50.87h-3.24v14.34h-3.3V49.17Zm11.9 0V33.12h9.04v4.72l-2.92.02-2.91.01v8.08l2.85.02 2.86.01v4.72H58.4v9.1h5.74v5.41H55.2V49.17Zm10.63 0V33.12l1.66.02 1.66.01 2.23 6.25 2.22 6.24.01-6.26.02-6.26h3.3v32.1l-1.66-.02-1.66-.02-2.21-6.9a718.7 718.7 0 0 0-2.24-6.94c-.02-.02-.03 3.1-.03 6.92v6.95h-3.3V49.17Zm15.53 2.02V37.56H78.6v-4.44h8.93v4.44h-2.85V65.2h-3.3V51.19Zm8.31-2.02V33.12h3.3v32.09h-3.3V49.17Z"/></g><defs><clipPath id="a"><path fill="#fff" d="M.2.2h100v100H.2z"/></clipPath></defs></svg>