<svg xmlns="http://www.w3.org/2000/svg" fill="none" viewBox="0 0 101 100"><g clip-path="url(#a)"><mask id="b" width="101" height="100" x="0" y="0" maskUnits="userSpaceOnUse" style="mask-type:luminance"><path fill="#fff" d="M1 100h99.98V0H.99v100Z"/></mask><g mask="url(#b)"><path fill="#fff" d="M1.05 3.81A3.75 3.75 0 0 1 4.8.07h92.38a3.74 3.74 0 0 1 3.74 3.74V96.2a3.75 3.75 0 0 1-3.74 3.74H4.8a3.74 3.74 0 0 1-3.75-3.74V3.8Z"/><path stroke="#000" stroke-linecap="round" stroke-linejoin="round" stroke-miterlimit="500" stroke-width=".12" d="M1.05 3.81A3.75 3.75 0 0 1 4.8.07h92.38a3.74 3.74 0 0 1 3.74 3.74V96.2a3.75 3.75 0 0 1-3.74 3.74H4.8a3.74 3.74 0 0 1-3.75-3.74V3.8Z"/><path fill="#0569E2" d="M3.05 3.81c0-.96.78-1.75 1.75-1.75h92.37a1.75 1.75 0 0 1 1.75 1.75V96.2c0 .96-.78 1.75-1.75 1.75H4.8a1.75 1.75 0 0 1-1.75-1.75V3.8Z"/><path stroke="#0569E2" stroke-linecap="round" stroke-linejoin="round" stroke-miterlimit="500" stroke-width=".12" d="M3.05 3.81c0-.96.78-1.75 1.75-1.75h92.37a1.75 1.75 0 0 1 1.75 1.75V96.2c0 .96-.78 1.75-1.75 1.75H4.8a1.75 1.75 0 0 1-1.75-1.75V3.8Z"/><path fill="#fff" d="m6.36 88.31 44.63-77.3 44.62 77.3H6.36Z"/><path stroke="#fff" stroke-linecap="round" stroke-linejoin="round" stroke-miterlimit="500" stroke-width=".12" d="m6.36 88.31 44.63-77.3 44.62 77.3H6.36Z"/><path fill="#000" d="M90.1 85.48 80.44 68h-8.13l6.45 17.48H90.1Z"/><path stroke="#000" stroke-linecap="round" stroke-linejoin="round" stroke-miterlimit="500" stroke-width=".12" d="M90.1 85.48 80.44 68h-8.13l6.45 17.48H90.1Z"/><path fill="#000" d="m55.86 78.72.46 6.76h11.61L63.97 68h-4.39l5.7 9.65-7.45 4.41-1.97-3.34Z"/><path stroke="#000" stroke-linecap="round" stroke-linejoin="round" stroke-miterlimit="500" stroke-width=".12" d="m55.86 78.72.46 6.76h11.61L63.97 68h-4.39l5.7 9.65-7.45 4.41-1.97-3.34Z"/><path fill="#000" d="m38 68-3.96 17.48h11.6l.26-3.68-7.47-2.01L41.6 68H38Z"/><path stroke="#000" stroke-linecap="round" stroke-linejoin="round" stroke-miterlimit="500" stroke-width=".12" d="m38 68-3.96 17.48h11.6l.26-3.68-7.47-2.01L41.6 68H38Z"/><path fill="#000" d="M23.21 85.48H11.88L21.53 68h8.14L23.2 85.48Z"/><path stroke="#000" stroke-linecap="round" stroke-linejoin="round" stroke-miterlimit="500" stroke-width=".12" d="M23.21 85.48H11.88L21.53 68h8.14L23.2 85.48Z"/><path fill="#000" d="M46.27 51.56v4.62L40.2 78.77l5.57 1.5 5.34-19.86v7.44l7.23 12.23 4.97-2.93L56.73 66V45.65l1.6 2.6v9.87h3.6v-10.9l-5.8-9.4a6.24 6.24 0 0 0-2.27-2.19 4.06 4.06 0 0 0-4.97.8 9.99 9.99 0 0 0-2.62 6.75v2.88l-7.4 8.82 2.77 2.28 4.63-5.6Z"/><path stroke="#000" stroke-linecap="round" stroke-linejoin="round" stroke-miterlimit="500" stroke-width=".12" d="M46.27 51.56v4.62L40.2 78.77l5.57 1.5 5.34-19.86v7.44l7.23 12.23 4.97-2.93L56.73 66V45.65l1.6 2.6v9.87h3.6v-10.9l-5.8-9.4a6.24 6.24 0 0 0-2.27-2.19 4.06 4.06 0 0 0-4.97.8 9.99 9.99 0 0 0-2.62 6.75v2.88l-7.4 8.82 2.77 2.28 4.63-5.6Z"/><path fill="#000" d="M55.31 29.54a4.33 4.33 0 1 0-8.65 0 4.33 4.33 0 0 0 8.66 0Z"/><path stroke="#000" stroke-linecap="round" stroke-linejoin="round" stroke-miterlimit="500" stroke-width=".12" d="M55.31 29.54a4.33 4.33 0 1 0-8.65 0 4.33 4.33 0 0 0 8.66 0Z"/></g></g><defs><clipPath id="a"><path fill="#fff" d="M.99 0h100v100H.99z"/></clipPath></defs></svg>