<svg xmlns="http://www.w3.org/2000/svg" fill="none" viewBox="0 0 75 75"><g clip-path="url(#a)"><path fill="#FAD214" d="M35.18 1.09 1.08 35.18a3.29 3.29 0 0 0 0 4.64l34.1 34.1a3.29 3.29 0 0 0 4.64 0l34.1-34.1a3.29 3.29 0 0 0 0-4.64l-34.1-34.1a3.29 3.29 0 0 0-4.64 0Z"/><path fill="#000" d="M35.95 1.86 1.86 35.95a2.2 2.2 0 0 0 0 3.1l34.09 34.09a2.2 2.2 0 0 0 3.1 0l34.09-34.09a2.2 2.2 0 0 0 0-3.1L39.04 1.86a2.2 2.2 0 0 0-3.09 0Z"/><path fill="#FAD214" d="M36.98 2.9 2.9 36.98a.73.73 0 0 0 0 1.04L36.98 72.1c.29.29.75.29 1.04 0L72.1 38.02a.73.73 0 0 0 0-1.04L38.02 2.9a.73.73 0 0 0-1.04 0Z"/><path fill="#000" d="M38.4 29.22a1.1 1.1 0 0 1-1.18 1.67l-4.1-1.06v27.4h-6.58v-27.4l-4.1 1.06a1.1 1.1 0 0 1-1.18-1.67l8.57-12.54 8.57 12.54Zm-1.8 16.57a1.1 1.1 0 0 1 1.18-1.68l4.1 1.06v-27.4h6.58v27.4l4.1-1.06a1.1 1.1 0 0 1 1.18 1.68l-8.57 12.53-8.57-12.53Z"/></g><defs><clipPath id="a"><path fill="#fff" d="M0 0h75v75H0z"/></clipPath></defs></svg>