<svg id="ejebKu47E8m1" xmlns="http://www.w3.org/2000/svg" xmlns:xlink="http://www.w3.org/1999/xlink" viewBox="0 0 300 300" shape-rendering="geometricPrecision" text-rendering="geometricPrecision" project-id="67401e178bf84ec2bb5388efdae480a9" export-id="882887a7d4d246d4b7a7cd589100aeeb" cached="false"><rect width="55" height="55" rx="0" ry="0" transform="translate(3 2)" fill="#8f8f8f" stroke-width="0"/><g transform="translate(-0.5 60.04334)"><rect width="55" height="55" rx="0" ry="0" transform="translate(3 2.45666)" fill="#8f8f8f" stroke-width="0"/><rect width="55" height="55" rx="0" ry="0" transform="translate(63 2.45666)" fill="#8f8f8f" stroke-width="0"/><rect width="55" height="55" rx="0" ry="0" transform="translate(123 2.45666)" fill="#c8b653" stroke-width="0"/><rect width="55" height="55" rx="0" ry="0" transform="translate(183 2.45666)" fill="#c8b653" stroke-width="0"/><rect width="55" height="55" rx="0" ry="0" transform="translate(243 2.45666)" fill="#8f8f8f" stroke-width="0"/></g><g transform="translate(-0.5 120.04334)"><rect width="55" height="55" rx="0" ry="0" transform="translate(3 2.45666)" fill="#c8b653" stroke-width="0"/><rect width="55" height="55" rx="0" ry="0" transform="translate(63 2.45666)" fill="#c8b653" stroke-width="0"/><rect width="55" height="55" rx="0" ry="0" transform="translate(123 2.45666)" fill="#c8b653" stroke-width="0"/><rect width="55" height="55" rx="0" ry="0" transform="translate(183 2.45666)" fill="#8f8f8f" stroke-width="0"/><rect width="55" height="55" rx="0" ry="0" transform="translate(243 2.45666)" fill="#8f8f8f" stroke-width="0"/></g><g transform="translate(-0.5 180.04334)"><rect width="55" height="55" rx="0" ry="0" transform="translate(3 2.45666)" fill="#c8b653" stroke-width="0"/><rect width="55" height="55" rx="0" ry="0" transform="translate(63 2.45666)" fill="#6ca965" stroke-width="0"/><rect width="55" height="55" rx="0" ry="0" transform="translate(123 2.45666)" fill="#8f8f8f" stroke-width="0"/><rect width="55" height="55" rx="0" ry="0" transform="translate(183 2.45666)" fill="#8f8f8f" stroke-width="0"/><rect width="55" height="55" rx="0" ry="0" transform="translate(243 2.45666)" fill="#6ca965" stroke-width="0"/></g><g transform="translate(-0.5 240.04334)"><rect width="55" height="55" rx="0" ry="0" transform="translate(3 2.45666)" fill="#6ca965" stroke-width="0"/><rect width="55" height="55" rx="0" ry="0" transform="translate(63 2.45666)" fill="#6ca965" stroke-width="0"/><rect width="55" height="55" rx="0" ry="0" transform="translate(123 2.45666)" fill="#6ca965" stroke-width="0"/><rect width="55" height="55" rx="0" ry="0" transform="translate(183 2.45666)" fill="#6ca965" stroke-width="0"/><rect width="55" height="55" rx="0" ry="0" transform="translate(243 2.45666)" fill="#6ca965" stroke-width="0"/></g><rect width="55" height="55" rx="0" ry="0" transform="translate(63 2.45666)" fill="#8f8f8f" stroke-width="0"/><rect width="55" height="55" rx="0" ry="0" transform="translate(123 2.45666)" fill="#8f8f8f" stroke-width="0"/><rect width="55" height="55" rx="0" ry="0" transform="translate(183 2.45666)" fill="#8f8f8f" stroke-width="0"/><rect width="55" height="55" rx="0" ry="0" transform="translate(243 2.45666)" fill="#8f8f8f" stroke-width="0"/><rect width="300" height="300" rx="0" ry="0" fill="none" stroke="#000" stroke-width="7"/></svg>
