<svg xmlns="http://www.w3.org/2000/svg" viewBox="0 0 300 300"><rect width="55" height="55" fill="#8f8f8f" rx="0" ry="0" transform="translate(3 2)"/><g transform="translate(0 60)"><rect width="55" height="55" fill="#8f8f8f" rx="0" ry="0" transform="translate(3 2)"/><rect width="55" height="55" fill="#8f8f8f" rx="0" ry="0" transform="translate(63 2)"/><rect width="55" height="55" fill="#c8b653" rx="0" ry="0" transform="translate(123 2)"/><rect width="55" height="55" fill="#c8b653" rx="0" ry="0" transform="translate(183 2)"/><rect width="55" height="55" fill="#8f8f8f" rx="0" ry="0" transform="translate(243 2)"/></g><g transform="translate(0 120)"><rect width="55" height="55" fill="#c8b653" rx="0" ry="0" transform="translate(3 2)"/><rect width="55" height="55" fill="#c8b653" rx="0" ry="0" transform="translate(63 2)"/><rect width="55" height="55" fill="#c8b653" rx="0" ry="0" transform="translate(123 2)"/><rect width="55" height="55" fill="#8f8f8f" rx="0" ry="0" transform="translate(183 2)"/><rect width="55" height="55" fill="#8f8f8f" rx="0" ry="0" transform="translate(243 2)"/></g><g transform="translate(0 180)"><rect width="55" height="55" fill="#c8b653" rx="0" ry="0" transform="translate(3 2)"/><rect width="55" height="55" fill="#6ca965" rx="0" ry="0" transform="translate(63 2)"/><rect width="55" height="55" fill="#8f8f8f" rx="0" ry="0" transform="translate(123 2)"/><rect width="55" height="55" fill="#8f8f8f" rx="0" ry="0" transform="translate(183 2)"/><rect width="55" height="55" fill="#6ca965" rx="0" ry="0" transform="translate(243 2)"/></g><g transform="translate(0 240)"><rect width="55" height="55" fill="#6ca965" rx="0" ry="0" transform="translate(3 2)"/><rect width="55" height="55" fill="#6ca965" rx="0" ry="0" transform="translate(63 2)"/><rect width="55" height="55" fill="#6ca965" rx="0" ry="0" transform="translate(123 2)"/><rect width="55" height="55" fill="#6ca965" rx="0" ry="0" transform="translate(183 2)"/><rect width="55" height="55" fill="#6ca965" rx="0" ry="0" transform="translate(243 2)"/></g><rect width="55" height="55" fill="#8f8f8f" rx="0" ry="0" transform="translate(63 2)"/><rect width="55" height="55" fill="#8f8f8f" rx="0" ry="0" transform="translate(123 2)"/><rect width="55" height="55" fill="#8f8f8f" rx="0" ry="0" transform="translate(183 2)"/><rect width="55" height="55" fill="#8f8f8f" rx="0" ry="0" transform="translate(243 2)"/><rect width="300" height="300" fill="none" stroke="#000" stroke-width="7" rx="0" ry="0"/></svg>