<?xml version="1.0" encoding="UTF-8" standalone="no"?>
<svg
   xmlns:dc="http://purl.org/dc/elements/1.1/"
   xmlns:cc="http://creativecommons.org/ns#"
   xmlns:rdf="http://www.w3.org/1999/02/22-rdf-syntax-ns#"
   xmlns:svg="http://www.w3.org/2000/svg"
   xmlns="http://www.w3.org/2000/svg"
   xmlns:sodipodi="http://sodipodi.sourceforge.net/DTD/sodipodi-0.dtd"
   xmlns:inkscape="http://www.inkscape.org/namespaces/inkscape"
   inkscape:version="1.0 (4035a4fb49, 2020-05-01)"
   sodipodi:docname="Glyphs.svg"
   id="svg146"
   version="1.1"
   viewBox="0 0 209.63992 62.480023"
   height="236.14342"
   width="792.33527">
  <metadata
     id="metadata152">
    <rdf:RDF>
      <cc:Work
         rdf:about="">
        <dc:format>image/svg+xml</dc:format>
        <dc:type
           rdf:resource="http://purl.org/dc/dcmitype/StillImage" />
        <dc:title></dc:title>
      </cc:Work>
    </rdf:RDF>
  </metadata>
  <defs
     id="defs150" />
  <sodipodi:namedview
     inkscape:current-layer="svg146"
     inkscape:window-maximized="1"
     inkscape:window-y="-8"
     inkscape:window-x="-8"
     inkscape:cy="285.63769"
     inkscape:cx="170.75448"
     inkscape:zoom="1.0681473"
     showgrid="false"
     id="namedview148"
     inkscape:window-height="1017"
     inkscape:window-width="1920"
     inkscape:pageshadow="2"
     inkscape:pageopacity="0"
     guidetolerance="10"
     gridtolerance="10"
     objecttolerance="10"
     borderopacity="1"
     bordercolor="#666666"
     pagecolor="#ffffff" />
  <path
     id="path2"
     word-spacing="0"
     text-anchor="middle"
     letter-spacing="0"
     font-weight="400"
     font-family="'Special Elite'"
     style="line-height:1.25;-inkscape-font-specification:'Special Elite';text-align:center"
     font-size="7.06px"
     d="m 10.6,25.25 q 0,0.04 -0.02,0.06 -0.02,0.02 -0.05,0.02 L 10.46,25.32 Q 10.43,25.3 10.39,25.3 l -0.01,0.02 v 0.03 l 0.01,0.02 h 0.04 l 0.04,0.02 q 0.02,0 0.02,0.05 v 0.11 l -0.04,0.17 -0.04,0.16 q -0.02,0.07 -0.05,0.1 l -0.04,0.06 q -0.02,0.03 -0.02,0.07 v 0.1 l -0.01,0.08 -0.04,0.06 -0.04,0.05 q -0.02,0.02 -0.02,0.06 v 0.02 l -0.08,-0.02 -0.1,-0.02 q -0.05,0 -0.09,0.02 -0.04,0.02 -0.07,0.07 l 0.01,0.04 0.03,0.01 0.06,-0.02 q 0.03,-0.03 0.06,-0.03 0.03,0 0.03,0.02 l 0.01,0.04 -0.01,0.08 Q 10.02,26.7 9.97,26.7 H 9.91 L 9.85,26.69 9.82,26.71 q 0.02,0.06 0.08,0.07 l -0.19,0.19 q -0.1,0.1 -0.23,0.17 -0.12,0.08 -0.26,0.13 -0.13,0.05 -0.26,0.05 L 8.73,27.3 8.43,27.24 8.15,27.16 Q 8.01,27.11 7.95,27.06 L 7.89,27.01 V 26.97 L 7.87,26.94 7.78,26.91 Q 7.64,26.87 7.58,26.81 7.51,26.75 7.48,26.69 7.45,26.62 7.45,26.56 7.44,26.5 7.41,26.46 L 7.34,26.37 7.28,26.28 7.23,26.18 7.21,26.08 q 0,-0.04 0.03,-0.07 0.03,-0.03 0.03,-0.06 V 25.93 L 7.25,25.92 7.19,25.84 7.15,25.78 7.13,25.71 7.12,25.61 Q 7.11,25.5 7.07,25.39 7.04,25.29 7.04,25.17 v -0.34 l 0.02,-0.16 0.02,-0.15 v -0.11 l -0.01,-0.1 q 0,-0.13 0.03,-0.25 l 0.08,-0.25 0.08,-0.25 q 0.03,-0.12 0.03,-0.25 v -0.14 q 0,-0.07 0.02,-0.09 l 0.06,-0.02 0.05,-0.02 q 0.03,0 0.03,-0.05 V 22.95 L 7.44,22.9 q 0,-0.03 0.03,-0.06 l 0.09,-0.07 0.09,-0.08 0.06,-0.08 q 0.02,-0.04 0.06,-0.06 l 0.08,-0.02 q 0.04,0 0.07,-0.02 0.03,-0.01 0.03,-0.05 l -0.01,-0.05 0.1,0.03 h 0.12 l 0.12,-0.01 0.1,-0.05 0.08,-0.05 q 0.05,-0.02 0.12,-0.02 0.09,0 0.17,-0.03 0.08,-0.03 0.17,-0.03 l 0.16,0.02 0.22,0.07 q 0.12,0.03 0.2,0.08 0.1,0.04 0.1,0.08 h 0.09 l 0.1,0.01 0.1,0.04 0.07,0.04 0.09,0.06 v 0.04 L 10.03,22.77 10,22.85 q 0.01,0.03 0.04,0.04 l 0.05,0.03 0.05,0.03 q 0.03,0.02 0.03,0.06 0,0.04 0.02,0.06 0,0.02 0.06,0.02 v 0.11 q 0,0.12 0.03,0.2 0.04,0.1 0.1,0.16 l 0.08,0.14 q 0.04,0.06 0.04,0.13 0,0.07 -0.03,0.13 -0.03,0.06 -0.03,0.12 l 0.02,0.05 0.05,0.09 0.05,0.1 q 0.03,0.06 0.03,0.12 0,0.12 -0.1,0.18 v 0.03 l 0.01,0.05 0.04,0.03 0.03,0.03 q 0.02,0.03 0.02,0.07 0,0.04 -0.02,0.07 0,0.03 -0.03,0.06 l -0.03,0.05 -0.02,0.04 0.02,0.06 0.03,0.04 0.04,0.05 q 0.02,0.02 0.02,0.05 z M 10.5,24.5 q 0,-0.04 -0.03,-0.06 h -0.06 q -0.07,0 -0.07,0.05 0,0.03 0.02,0.05 l 0.06,0.01 0.05,-0.01 Q 10.5,24.52 10.5,24.5 Z m -0.38,0.31 q 0,-0.07 -0.02,-0.12 -0.03,-0.07 -0.03,-0.14 V 24.4 l 0.02,-0.16 v -0.1 q 0.02,-0.04 0.02,-0.1 0,-0.05 -0.03,-0.14 L 10,23.7 9.9,23.51 9.84,23.36 9.83,23.34 9.81,23.3 9.79,23.27 9.78,23.25 H 9.76 L 9.69,23.21 9.57,23.11 9.46,22.96 Q 9.41,22.88 9.41,22.82 V 22.8 L 9.29,22.79 9.16,22.75 Q 9.09,22.73 9.04,22.69 8.99,22.65 8.97,22.6 8.88,22.61 8.8,22.64 L 8.64,22.69 8.48,22.74 Q 8.4,22.76 8.31,22.76 H 8.27 l -0.04,-0.01 0.01,0.04 q 0,0.04 -0.03,0.05 L 8.15,22.85 H 8.04 v 0.04 q 0,0.05 -0.03,0.07 L 7.96,23.01 7.9,23.05 7.84,23.09 q 0.04,0.01 0.04,0.06 0,0.05 -0.04,0.14 l -0.1,0.2 q -0.06,0.1 -0.1,0.23 -0.05,0.12 -0.05,0.26 0,0.02 -0.02,0.03 L 7.53,24.02 7.47,24.01 q -0.02,-0.02 -0.05,-0.02 -0.04,0 -0.04,0.02 0,0.04 0.03,0.07 l 0.05,0.06 0.05,0.06 q 0.02,0.04 0.02,0.09 0,0.12 -0.02,0.17 -0.02,0.04 -0.05,0.06 l -0.04,0.06 q -0.03,0.02 -0.03,0.1 v 0.09 l -0.1,0.1 q 0.06,0 0.1,0.05 l 0.05,0.08 0.03,0.09 0.01,0.07 0.02,0.2 q 0.02,0.1 0.02,0.21 0,0.1 -0.02,0.13 l -0.03,0.04 -0.04,0.01 -0.01,0.02 0.01,0.03 0.06,-0.02 0.06,-0.03 v 0.18 l 0.02,0.1 q 0.01,0.03 0.05,0.04 0.05,0 0.07,0.03 l 0.03,0.06 0.03,0.06 q 0.01,0.03 0.05,0.06 0.06,0.03 0.1,0.08 l 0.1,0.08 0.11,0.08 q 0.06,0.03 0.13,0.03 l 0.24,0.03 0.24,0.05 0.1,0.01 0.14,-0.01 0.14,-0.05 0.13,-0.04 0.14,-0.02 0.1,0.01 -0.01,-0.02 q 0,-0.04 0.04,-0.1 L 9.6,26.29 9.7,26.19 9.8,26.14 9.79,26.1 v -0.04 l 0.02,-0.12 q 0.01,-0.06 0.07,-0.08 l 0.03,-0.04 0.03,-0.08 0.01,-0.1 V 25.3 Q 10,25.27 10.02,25.2 l 0.03,-0.13 0.01,-0.12 q 0,-0.05 0.02,-0.06 0.04,-0.03 0.04,-0.08 z m -0.6,1.96 H 9.5 q -0.07,0 -0.11,0.05 -0.05,0.04 -0.08,0.1 0.01,-0.03 0.05,-0.03 0,0.02 -0.02,0.03 H 9.31 l 0.09,0.01 h 0.13 l 0.02,-0.05 v -0.1 z" />
  <path
     id="path4"
     word-spacing="0"
     text-anchor="middle"
     letter-spacing="0"
     font-weight="400"
     font-family="D-FONT"
     style="line-height:1.25;-inkscape-font-specification:D-FONT;text-align:center"
     font-size="17.64px"
     d="m 10.58,17.73 v -3.52 h 3.53 v 3.52 z m 3.53,-3.52 v -3.53 h 3.53 v 3.53 z M 10.58,10.68 V 7.15 h 3.53 v 3.53 z M 14.11,7.15 V 3.62 h 3.53 V 7.15 Z M 0,17.73 V 0.09 H 3.52 V 17.73 Z M 10.58,3.63 V 0.08 h 3.53 v 3.53 z" />
  <path
     id="path6"
     word-spacing="0"
     text-anchor="middle"
     letter-spacing="0"
     font-weight="400"
     font-family="'Special Elite'"
     style="line-height:1.25;-inkscape-font-specification:'Special Elite';text-align:center"
     font-size="7.06px"
     d="M 154.46,25.85 V 26 l -0.03,0.06 -0.07,0.04 q -0.04,0.01 -0.1,0.07 0.07,0.09 0.07,0.2 0,0.12 -0.08,0.22 -0.06,0.1 -0.16,0.17 -0.1,0.06 -0.14,0.15 l -0.09,0.19 q -0.14,0 -0.25,0.05 l -0.22,0.14 -0.1,0.05 -0.12,0.01 h -0.13 l -0.13,-0.01 q -0.1,0 -0.22,0.03 -0.1,0.03 -0.21,0.03 l -0.14,-0.01 -0.18,-0.04 -0.18,-0.05 -0.13,-0.05 q -0.1,-0.05 -0.2,-0.13 -0.09,-0.07 -0.2,-0.12 -0.04,-0.13 -0.11,-0.24 -0.07,-0.12 -0.18,-0.2 l 0.03,-0.1 0.01,-0.12 -0.02,-0.2 -0.02,-0.2 q 0,-0.17 0.1,-0.32 h 0.03 l 0.1,-0.01 q 0.06,-0.03 0.12,-0.03 0.09,0 0.17,0.03 0.08,0.03 0.14,0.08 0.06,0.05 0.1,0.12 0.03,0.08 0.03,0.17 v 0.09 l -0.03,0.11 -0.05,0.1 q -0.03,0.03 -0.08,0.03 l -0.05,-0.01 -0.04,-0.04 v 0.12 l 0.03,0.15 q 0.02,0.07 0.06,0.13 0.03,0.05 0.09,0.05 h 0.11 l 0.21,0.02 0.24,0.02 q 0.1,0 0.19,0.02 l 0.19,0.01 q 0.13,0 0.24,-0.03 l 0.2,-0.1 0.18,-0.13 0.18,-0.16 q 0.04,-0.04 0.04,-0.07 v -0.07 q 0,-0.05 0.03,-0.1 l 0.1,-0.12 0.08,-0.14 q 0.04,-0.08 0.04,-0.18 0,-0.08 -0.02,-0.15 -0.02,-0.08 -0.02,-0.17 0,-0.07 -0.04,-0.12 l -0.07,-0.11 -0.07,-0.11 q -0.03,-0.06 -0.03,-0.12 v -0.06 l -0.19,-0.06 -0.21,-0.09 -0.2,-0.07 q -0.1,-0.03 -0.16,-0.03 -0.13,0 -0.25,0.03 l -0.26,0.02 0.02,-0.02 0.06,-0.03 0.07,-0.03 0.02,-0.04 q 0,-0.03 -0.04,-0.05 l -0.07,-0.02 -0.07,0.01 -0.06,0.04 -0.07,0.04 -0.06,0.01 -0.05,-0.01 q -0.03,-0.02 -0.04,-0.05 v 0.03 q 0,0.07 0.03,0.1 0.03,0.02 0.1,0.02 h 0.01 q -0.04,0.07 -0.09,0.12 -0.04,0.04 -0.13,0.04 h -0.22 q 0.01,-0.14 0.08,-0.28 0.07,-0.14 0.16,-0.27 0.1,-0.14 0.21,-0.25 l 0.22,-0.2 0.06,-0.04 0.05,-0.03 0.05,-0.04 0.04,-0.08 0.07,-0.12 0.1,-0.1 0.1,-0.1 0.09,-0.12 0.1,-0.04 0.08,-0.03 0.1,-0.05 0.06,-0.08 q 0,-0.12 -0.1,-0.16 -0.08,-0.04 -0.19,-0.04 -0.08,0 -0.15,0.03 -0.07,0.03 -0.15,0.03 -0.05,0 -0.1,-0.03 l -0.1,-0.02 q -0.04,0 -0.06,0.02 l -0.06,0.01 h -0.04 l -0.05,-0.02 -0.02,0.02 q 0,0.02 -0.03,0.02 h -0.23 q -0.12,0 -0.2,0.08 -0.07,0.08 -0.07,0.2 v 0.11 l 0.01,0.12 -0.02,0.1 q -0.01,0.06 -0.05,0.1 -0.03,0.05 -0.08,0.08 -0.04,0.03 -0.1,0.03 l -0.12,-0.02 -0.1,-0.07 v -0.02 l 0.01,-0.06 0.04,-0.06 0.03,-0.05 0.02,-0.07 q 0,-0.04 -0.03,-0.07 -0.02,-0.02 -0.02,-0.06 l 0.02,-0.1 q 0.02,-0.04 0.02,-0.09 0,-0.06 -0.03,-0.12 l -0.02,-0.12 0.02,-0.07 0.06,-0.1 0.07,-0.09 q 0.04,-0.04 0.06,-0.04 l 0.06,0.01 h 0.25 q 0.1,-0.03 0.2,-0.03 h 0.32 q 0.17,0 0.33,-0.02 0.17,-0.04 0.34,-0.04 h 0.1 l 0.12,0.01 0.24,-0.02 0.25,-0.02 0.12,0.01 0.12,0.04 -0.01,0.08 v 0.06 l 0.03,0.04 0.03,0.04 0.01,0.05 q 0,0.03 -0.05,0.1 l -0.1,0.15 -0.12,0.17 -0.08,0.13 q -0.02,0.04 -0.05,0.06 l -0.07,0.05 -0.08,0.02 -0.08,0.04 -0.11,0.11 -0.13,0.17 q -0.06,0.08 -0.1,0.17 -0.04,0.09 -0.04,0.15 0,0.03 0.04,0.07 l 0.09,0.08 0.1,0.07 0.08,0.06 0.07,0.04 0.07,0.01 0.08,0.02 q 0.03,0 0.06,0.04 l 0.06,0.07 0.07,0.06 q 0.04,0.03 0.06,0.07 0.02,0.03 0.02,0.08 h 0.15 v 0.1 q 0.09,0.06 0.1,0.1 0.03,0.04 0.03,0.08 v 0.02 q 0,0.03 0.02,0.05 0.07,0.07 0.1,0.14 0.04,0.07 0.05,0.14 l 0.02,0.15 0.04,0.17 0.03,0.12 0.02,0.12 z m -1.97,-3.21 -0.02,-0.04 -0.03,-0.01 q -0.04,0 -0.05,0.04 v 0.06 -0.01 h 0.06 q 0.04,0 0.04,-0.04 z" />
  <path
     id="path8"
     word-spacing="0"
     text-anchor="middle"
     letter-spacing="0"
     font-weight="400"
     font-family="D-FONT"
     style="line-height:1.25;-inkscape-font-specification:D-FONT;text-align:center"
     font-size="17.64px"
     d="m 154.58,17.64 v -3.52 h 7.06 v 3.52 z m -3.53,-7.05 V 7.06 h 3.53 v 3.53 z m 7.06,0 V 7.06 h 3.53 v 3.53 z M 144,17.64 V 0 h 3.52 V 17.64 Z M 154.58,3.54 V 0 h 7.06 v 3.53 z" />
  <path
     id="path10"
     word-spacing="0"
     text-anchor="middle"
     letter-spacing="0"
     font-weight="400"
     font-family="'Special Elite'"
     style="line-height:1.25;-inkscape-font-specification:'Special Elite';text-align:center"
     font-size="7.06px"
     d="m 58.83,27.02 -0.01,0.08 -0.04,0.06 q -0.03,0.07 -0.06,0.1 -0.03,0.05 -0.06,0.06 l -0.07,0.03 h -0.2 l -0.05,0.01 q -0.03,0 -0.04,-0.02 v -0.12 l -0.01,-0.05 q -0.01,-0.02 -0.04,-0.02 -0.05,0 -0.09,0.04 l -0.05,0.06 -0.06,0.06 q -0.03,0.03 -0.09,0.03 L 57.83,27.32 57.69,27.29 57.41,27.28 H 57.13 L 56.85,27.25 56.57,27.21 56.51,27.2 h -0.06 l -0.28,0.02 q -0.13,0.03 -0.3,0.03 l -0.23,0.02 q -0.11,0.03 -0.22,0.03 l -0.13,-0.02 -0.14,-0.06 q -0.07,-0.04 -0.12,-0.1 -0.04,-0.05 -0.04,-0.11 0,-0.05 0.04,-0.1 l 0.1,-0.1 0.12,-0.08 0.1,-0.06 0.42,0.06 q 0.2,0.03 0.42,0.03 0.13,0 0.2,-0.03 0.09,-0.03 0.12,-0.09 0.05,-0.06 0.06,-0.13 l 0.01,-0.17 v -0.22 l 0.02,-1.06 q 0.04,-0.54 0.04,-1.08 l -0.02,-0.52 q 0,-0.26 -0.05,-0.53 -0.05,0 -0.09,-0.02 h -0.12 q -0.01,-0.02 -0.03,-0.02 h -0.04 q -0.08,0 -0.15,0.02 -0.07,0.02 -0.15,0.02 h -0.03 l -0.02,-0.02 -0.03,-0.02 h -0.04 l -0.23,0.02 q -0.11,0.02 -0.23,0.02 l -0.16,-0.02 q -0.08,-0.02 -0.15,-0.08 0.03,-0.05 0.03,-0.12 l -0.01,-0.1 -0.02,-0.12 0.05,0.01 q 0.06,0 0.1,-0.02 l 0.1,-0.06 0.09,-0.06 q 0.04,-0.03 0.1,-0.03 0.1,0 0.2,0.04 0.1,0.03 0.2,0.03 0.06,0 0.1,-0.02 0.05,-0.03 0.08,-0.03 0.03,0 0.05,0.02 0.02,0.02 0.06,0.02 l 0.1,-0.02 0.12,-0.04 0.12,-0.04 q 0.05,-0.02 0.12,-0.02 l 0.17,0.02 0.16,0.02 0.1,-0.01 -0.01,0.05 0.01,0.09 0.04,0.08 0.03,0.1 q 0.02,0.06 0.02,0.15 v 0.3 l 0.01,0.3 -0.01,0.16 q -0.01,0.07 -0.05,0.14 0.03,0.03 0.04,0.07 l 0.01,0.07 v 0.14 l 0.05,0.07 v 0.03 l -0.01,0.08 -0.03,0.07 -0.04,0.06 -0.01,0.07 0.02,0.16 q 0.02,0.08 0.02,0.17 l -0.01,0.22 -0.03,0.22 -0.03,0.21 -0.02,0.22 v 0.05 l -0.03,0.01 h -0.02 v 0.18 l 0.04,0.18 0.03,0.17 0.01,0.18 v 0.1 q 0,0.18 0.12,0.27 0.12,0.08 0.3,0.08 0.11,0 0.17,-0.02 l 0.1,-0.05 0.04,-0.05 q 0.02,-0.02 0.05,-0.02 l 0.2,0.02 0.21,0.04 h 0.1 l 0.1,0.01 q 0.05,0 0.1,0.03 l 0.07,0.07 0.07,0.12 q 0.05,0.06 0.05,0.12 z" />
  <path
     id="path12"
     word-spacing="0"
     text-anchor="middle"
     letter-spacing="0"
     font-weight="400"
     font-family="D-FONT"
     style="line-height:1.25;-inkscape-font-specification:D-FONT;text-align:center"
     font-size="17.64px"
     d="m 51.52,17.69 v -3.53 h 3.53 v 3.53 z m 7.06,0 v -3.53 h 3.53 v 3.53 z m -3.53,-3.53 v -3.53 h 3.53 v 3.53 z M 48,10.63 V 7.11 h 3.52 v 3.52 z m 14.1,0 V 7.11 h 3.54 v 3.52 z M 48,3.58 V 0.05 h 17.64 v 3.53 z" />
  <path
     id="path14"
     word-spacing="0"
     text-anchor="middle"
     letter-spacing="0"
     font-weight="400"
     font-family="'Special Elite'"
     style="line-height:1.25;-inkscape-font-specification:'Special Elite';text-align:center"
     font-size="7.06px"
     d="m 106.6,26.53 -0.02,0.13 q -0.02,0.07 -0.07,0.11 l -0.03,0.05 -0.03,0.06 -0.02,0.06 -0.02,0.02 h -0.03 l -0.03,-0.01 -0.02,0.01 q -0.04,0.05 -0.12,0.1 l -0.16,0.1 -0.18,0.06 -0.15,0.02 h -0.09 l -0.05,-0.04 -0.04,-0.03 -0.04,-0.01 q -0.04,0 -0.08,0.03 l -0.06,0.02 q -0.02,0 -0.03,-0.02 0,-0.02 -0.04,-0.03 l -0.13,-0.06 -0.14,-0.09 -0.14,-0.07 q -0.06,-0.04 -0.1,-0.04 l -0.07,-0.04 -0.13,-0.1 q -0.07,-0.06 -0.16,-0.1 -0.08,-0.04 -0.17,-0.04 -0.1,0 -0.15,0.05 -0.05,0.06 -0.08,0.14 h -0.03 q -0.05,0 -0.08,0.03 -0.04,0.03 -0.06,0.07 l -0.03,0.1 -0.01,0.08 v 0.12 l 0.02,0.11 v 0.08 h -0.18 l -0.09,0.01 q -0.06,0 -0.1,-0.04 l -0.05,-0.1 q -0.02,-0.07 -0.07,-0.13 -0.04,-0.07 -0.1,-0.13 l -0.07,-0.13 q -0.03,-0.07 -0.03,-0.14 v -0.17 l 0.01,-0.18 q 0,-0.07 0.04,-0.12 l 0.07,-0.1 q 0.05,-0.06 0.08,-0.13 0.04,-0.07 0.04,-0.18 l 0.02,-0.04 0.03,-0.03 0.09,-0.11 0.12,-0.18 0.13,-0.2 q 0.08,-0.1 0.16,-0.17 l 0.03,-0.02 0.04,-0.01 h 0.12 q 0.02,-0.01 0.02,-0.03 l 0.02,-0.03 q 0,-0.02 0.03,-0.04 0.03,-0.02 0.1,-0.02 l 0.1,-0.02 0.06,-0.04 0.06,-0.04 0.06,-0.04 0.08,-0.03 0.25,-0.1 q 0.13,-0.05 0.24,-0.13 0.12,-0.08 0.22,-0.17 0.1,-0.1 0.16,-0.22 0,-0.02 0.03,-0.05 l 0.04,-0.05 0.04,-0.06 0.02,-0.05 v -0.04 l -0.02,-0.04 q 0,-0.03 0.02,-0.04 l 0.04,-0.02 0.06,-0.04 0.03,-0.07 0.02,-0.08 V 23.5 l -0.02,-0.08 -0.03,-0.07 -0.06,-0.05 h -0.03 l -0.02,-0.03 v -0.03 l 0.01,-0.03 q 0,-0.02 -0.03,-0.04 l -0.06,-0.06 -0.07,-0.05 q -0.03,-0.02 -0.04,-0.05 -0.02,-0.03 -0.09,-0.07 l -0.14,-0.07 -0.15,-0.07 -0.1,-0.02 q -0.12,0 -0.23,0.04 l -0.23,0.07 -0.22,0.03 -0.27,0.05 q -0.13,0.04 -0.22,0.11 -0.1,0.08 -0.1,0.2 0,0.06 0.04,0.11 l 0.08,0.1 0.12,0.1 0.11,0.1 0.09,0.12 q 0.03,0.06 0.03,0.13 0,0.1 -0.06,0.16 -0.05,0.06 -0.14,0.1 -0.07,0.04 -0.17,0.06 l -0.16,0.02 q -0.09,0 -0.16,-0.02 l -0.07,-0.02 q -0.03,0 -0.05,-0.02 l -0.02,-0.03 -0.01,-0.07 q -0.01,-0.06 -0.04,-0.1 l -0.05,-0.1 -0.03,-0.1 q -0.02,-0.05 -0.02,-0.11 0,-0.08 0.04,-0.2 l 0.1,-0.24 0.12,-0.22 0.13,-0.16 0.04,-0.05 0.02,-0.06 q 0.02,-0.03 0.05,-0.04 0.02,-0.02 0.07,-0.02 h 0.06 q 0.05,0 0.08,-0.02 0.03,0 0.05,-0.06 0,-0.03 0.05,-0.05 l 0.08,-0.02 0.09,-0.01 h 0.07 q 0.07,0 0.13,-0.02 l 0.13,-0.04 0.13,-0.04 0.14,-0.01 h 0.05 q 0.3,0.01 0.48,0.05 0.2,0.03 0.34,0.12 0.15,0.08 0.27,0.23 0.12,0.14 0.27,0.38 l 0.06,0.13 q 0.03,0.07 0.09,0.12 -0.04,0.08 -0.05,0.18 l -0.02,0.18 q 0,0.06 -0.02,0.1 l -0.02,0.1 -0.04,0.08 -0.05,0.1 -0.02,0.06 -0.02,0.05 -0.02,0.04 -0.06,0.04 q -0.04,0.02 -0.06,0.06 l -0.03,0.06 q 0,0.03 -0.03,0.06 -0.01,0.03 -0.05,0.04 l -0.16,0.1 -0.15,0.1 q -0.06,0.07 -0.14,0.12 -0.07,0.05 -0.15,0.07 -0.1,0.02 -0.19,0.07 l -0.17,0.1 -0.16,0.1 q -0.09,0.05 -0.18,0.07 -0.04,0.01 -0.07,0.04 l -0.04,0.04 -0.03,0.05 -0.04,0.05 q -0.04,0.04 -0.08,0.05 l -0.06,0.02 q -0.04,0 -0.07,0.03 -0.04,0.01 -0.08,0.07 l -0.05,0.05 -0.07,0.04 q -0.03,0.01 -0.05,0.04 -0.03,0.02 -0.03,0.06 l -0.01,0.05 -0.03,0.05 -0.04,0.04 -0.01,0.05 v 0.04 l 0.03,0.05 0.06,0.05 0.1,0.01 h 0.13 l 0.12,-0.02 0.1,0.02 0.1,0.03 0.08,0.03 0.1,0.02 q 0.08,0 0.1,-0.1 l 0.03,0.04 v 0.07 l 0.02,0.06 q 0,0.03 0.02,0.03 l 0.03,-0.05 q 0.01,-0.03 0.05,-0.03 0.02,0 0.03,0.02 l 0.05,0.04 0.05,0.05 q 0.03,0.02 0.07,0.02 0.07,0 0.15,0.06 l 0.17,0.11 0.17,0.12 q 0.09,0.05 0.17,0.05 0.09,0 0.15,-0.04 0.06,-0.04 0.1,-0.1 0.06,-0.05 0.1,-0.12 l 0.08,-0.13 0.1,-0.1 q 0.06,-0.04 0.15,-0.04 0.13,0 0.16,0.07 0.05,0.06 0.05,0.18 z m -1.06,-3.89 h -0.15 q 0.02,0 0.02,0.02 l -0.01,0.03 -0.01,-0.02 v -0.03 0.05 l 0.02,0.1 q 0.02,0.04 0.08,0.05 l 0.03,-0.08 0.02,-0.08 z" />
  <path
     id="path16"
     word-spacing="0"
     text-anchor="middle"
     letter-spacing="0"
     font-weight="400"
     font-family="D-FONT"
     style="line-height:1.25;-inkscape-font-specification:D-FONT;text-align:center"
     font-size="17.64px"
     d="m 96,17.64 v -3.52 h 3.52 v 3.52 z m 7.05,-3.52 V 10.59 H 99.52 V 7.06 h 3.53 V 3.53 h 3.53 V 14.12 Z M 96,3.53 V 0 h 3.52 v 3.53 z m 14.1,14.11 V 0 h 3.54 v 17.64 z" />
  <path
     id="path18"
     word-spacing="0"
     text-anchor="middle"
     letter-spacing="0"
     font-weight="400"
     font-family="'Special Elite'"
     style="line-height:1.25;-inkscape-font-specification:'Special Elite';text-align:center"
     font-size="7.06px"
     d="m 202.74,27.19 q -0.03,0 -0.05,-0.02 l -0.05,-0.02 -0.03,0.01 -0.01,0.03 q -0.02,0.02 -0.09,0.03 l -0.15,0.02 -0.15,0.01 h -0.1 l -0.15,-0.01 -0.14,-0.05 q -0.04,0.03 -0.11,0.03 h -0.07 q -0.06,0 -0.1,0.02 -0.04,0.03 -0.08,0.03 l -0.06,-0.01 -0.05,-0.03 -0.05,-0.03 -0.04,-0.01 h -0.04 l -0.03,0.04 -0.02,0.04 -0.01,0.04 q -0.02,-0.03 -0.05,-0.03 h -0.06 l -0.06,-0.02 q -0.02,0 -0.03,-0.05 h -0.06 q -0.02,0 -0.02,-0.02 0,-0.04 0.02,-0.07 0.02,-0.03 0.02,-0.07 v -0.03 h -0.04 q -0.05,0 -0.07,0.02 -0.03,0.02 -0.05,0.06 l -0.04,0.06 q -0.02,0.04 -0.05,0.05 -0.06,0 -0.11,0.02 l -0.12,0.02 -0.08,-0.01 -0.07,-0.04 -0.05,-0.07 q -0.03,-0.03 -0.03,-0.08 0,-0.05 0.03,-0.1 l 0.05,-0.08 q 0.08,-0.07 0.17,-0.1 l 0.2,-0.02 0.18,-0.02 q 0.1,-0.01 0.16,-0.07 0.07,-0.06 0.11,-0.2 0.05,-0.12 0.05,-0.36 V 25.98 L 201,26 q -0.19,0 -0.36,-0.03 -0.18,-0.03 -0.37,-0.03 -0.1,0 -0.19,0.03 -0.09,0.02 -0.19,0.02 l -0.19,-0.01 -0.19,-0.02 -0.1,0.01 -0.08,0.03 -0.07,0.03 h -0.18 q -0.06,0 -0.12,-0.03 l -0.1,-0.06 q -0.04,-0.03 -0.05,-0.1 l -0.04,-0.12 q -0.03,-0.06 -0.03,-0.12 l 0.02,-0.04 0.03,-0.08 0.03,-0.09 0.01,-0.1 0.01,-0.08 0.05,-0.1 0.05,-0.08 0.05,-0.07 0.04,-0.03 0.06,-0.02 0.05,-0.01 0.04,-0.03 0.05,-0.06 0.04,-0.06 0.04,-0.07 0.05,-0.05 0.05,-0.04 q 0.04,-0.02 0.04,-0.05 l -0.01,-0.05 -0.01,-0.06 v -0.06 q 0.08,-0.02 0.13,-0.06 0.05,-0.04 0.09,-0.1 l 0.07,-0.1 0.07,-0.12 q 0.08,-0.12 0.18,-0.22 l 0.2,-0.18 q 0.06,-0.05 0.1,-0.12 l 0.07,-0.13 0.09,-0.11 q 0.05,-0.06 0.13,-0.08 l -0.01,-0.06 q 0,-0.05 0.03,-0.09 l 0.07,-0.06 0.1,-0.1 0.07,-0.1 0.1,-0.1 q 0.04,-0.04 0.13,-0.08 0.06,-0.03 0.07,-0.07 l 0.01,-0.06 0.03,-0.05 q 0.02,-0.02 0.1,-0.02 0.09,0 0.16,0.03 0.08,0.02 0.14,0.06 0.06,0.04 0.1,0.11 0.03,0.07 0.03,0.16 l -0.02,0.16 q -0.02,0.07 -0.02,0.15 l 0.01,0.12 0.02,0.11 q 0,0.11 -0.1,0.18 0.03,0.02 0.05,0.12 l 0.05,0.2 0.04,0.21 0.02,0.14 q 0,0.06 -0.03,0.12 l -0.02,0.1 0.02,0.14 0.01,0.12 -0.01,0.23 -0.01,0.23 v 0.1 l 0.01,0.1 0.05,0.1 q 0.03,0.04 0.1,0.06 l 0.2,0.04 0.21,0.03 q 0.12,0 0.21,0.02 l 0.16,0.03 0.04,0.04 0.03,0.06 v 0.07 l 0.01,0.06 v 0.08 h -0.12 l -0.05,0.04 -0.04,0.03 -0.04,0.02 -0.04,-0.07 -0.05,-0.07 q -0.04,0.02 -0.05,0.06 v 0.06 q 0,0.04 -0.02,0.06 0,0.03 -0.05,0.03 l -0.13,-0.01 -0.12,-0.01 q -0.17,0 -0.25,0.07 -0.08,0.07 -0.08,0.24 0,0.1 0.03,0.18 l 0.08,0.14 q 0.03,0.07 0.06,0.1 l 0.04,0.06 q 0.04,-0.03 0.1,-0.03 l 0.1,0.01 h 0.09 l 0.1,-0.02 q 0.04,-0.03 0.07,-0.03 0.06,0 0.11,0.02 l 0.11,0.03 q 0,0.02 0.03,0.03 l 0.04,0.03 0.05,0.04 q 0.02,0.01 0.02,0.05 V 27 l 0.01,0.09 0.03,0.08 z m -1.36,-3.66 q 0,-0.02 -0.04,-0.06 l -0.04,-0.06 -0.04,-0.1 -0.04,-0.08 -0.05,-0.07 q -0.04,-0.02 -0.1,-0.02 v 0.04 q -0.07,0.04 -0.12,0.1 l -0.09,0.12 -0.08,0.1 q -0.05,0.06 -0.11,0.08 v 0.03 l -0.02,0.12 -0.06,0.1 -0.09,0.07 -0.1,0.07 -0.06,0.06 -0.04,0.07 -0.04,0.06 -0.06,0.06 q -0.05,0.02 -0.06,0.04 l -0.02,0.03 v 0.04 l -0.02,0.05 -0.05,0.1 -0.06,0.1 -0.06,0.1 -0.07,0.07 -0.08,0.07 q -0.04,0.03 -0.07,0.08 l -0.06,0.09 -0.07,0.13 -0.07,0.14 -0.03,0.08 q 0,0.04 0.03,0.06 l 0.06,0.03 0.1,0.02 h 0.34 l 0.1,-0.01 0.15,0.01 q 0.07,0.01 0.11,0.07 l 0.04,0.04 q 0.02,0.03 0.05,0.03 l 0.03,-0.01 0.04,-0.03 0.07,-0.02 q 0.05,-0.02 0.14,-0.02 h 0.07 l 0.1,-0.05 0.11,-0.04 0.1,-0.03 0.1,-0.35 q 0.06,-0.19 0.06,-0.38 l -0.01,-0.17 -0.01,-0.17 v -0.1 l 0.03,-0.1 0.02,-0.08 0.02,-0.1 -0.02,-0.1 q -0.02,-0.04 -0.02,-0.09 l 0.01,-0.06 0.03,-0.06 0.03,-0.06 z m 0.19,2.84 q -0.02,-0.03 -0.05,-0.04 l -0.06,-0.01 -0.04,0.02 0.02,0.04 q 0.02,0.02 0.02,0.05 l 0.06,-0.02 q 0.05,-0.01 0.05,-0.04 z m -1.78,-1.67 q 0,-0.02 -0.02,-0.03 -0.01,-0.02 -0.03,-0.02 -0.04,0 -0.05,0.04 v 0.07 l 0.06,-0.01 q 0.04,0 0.04,-0.05 z" />
  <path
     id="path20"
     word-spacing="0"
     text-anchor="middle"
     letter-spacing="0"
     font-weight="400"
     font-family="D-FONT"
     style="line-height:1.25;-inkscape-font-specification:D-FONT;text-align:center"
     font-size="17.64px"
     d="m 199.05,17.74 v -3.52 h 3.53 v 3.52 z m -3.53,-3.52 v -3.53 h 3.53 v 3.53 z m 7.06,0 v -3.53 h 3.53 v 3.53 z M 192,10.69 V 7.17 h 3.52 v 3.52 z m 7.05,0 V 7.17 h 3.53 v 3.52 z m 7.06,0 V 7.17 h 3.53 v 3.52 z M 192,3.63 V 0.1 h 17.64 v 3.53 z" />
  <path
     id="path22"
     word-spacing="0"
     text-anchor="middle"
     letter-spacing="0"
     font-weight="400"
     font-family="'Special Elite'"
     style="line-height:1.25;-inkscape-font-specification:'Special Elite';text-align:center"
     font-size="7.06px"
     d="m 10.47,60.4 q 0,0.04 -0.03,0.09 l -0.02,0.08 0.01,0.06 0.01,0.06 -0.01,0.07 -0.02,0.08 -0.05,0.06 q -0.02,0.02 -0.06,0.02 h -0.03 v 0.02 q 0,0.03 0.02,0.05 l 0.03,0.02 h 0.04 l 0.02,0.04 q 0,0.03 -0.02,0.04 l -0.04,0.02 -0.03,0.03 q -0.02,0.01 -0.02,0.05 v 0.08 l 0.02,0.07 -0.01,0.05 q 0,0.02 -0.04,0.03 l -0.1,0.15 -0.06,0.06 -0.07,0.01 -0.05,0.02 q -0.02,0.01 -0.02,0.05 0,0.09 -0.04,0.15 -0.03,0.05 -0.09,0.1 -0.06,0.03 -0.13,0.04 -0.07,0.02 -0.15,0.02 -0.07,0 -0.14,-0.03 -0.02,0.02 -0.02,0.05 0,0.03 0.05,0.04 l 0.07,0.01 q 0,0.05 -0.03,0.08 L 9.39,62.21 9.31,62.23 H 9 L 8.94,62.24 8.88,62.28 8.83,62.31 Q 8.81,62.33 8.78,62.33 L 8.76,62.31 H 8.61 L 8.51,62.32 8.31,62.3 8.12,62.26 Q 8.07,62.25 8.05,62.22 L 8,62.16 7.96,62.1 Q 7.94,62.08 7.89,62.07 L 7.83,62.06 7.77,62.05 7.72,62.04 7.67,62 Q 7.63,61.96 7.61,61.91 L 7.56,61.83 7.51,61.74 Q 7.47,61.7 7.42,61.68 L 7.36,61.63 Q 7.33,61.59 7.33,61.55 l 0.04,-0.1 q 0,-0.03 -0.02,-0.04 L 7.31,61.38 7.28,61.34 7.27,61.24 7.26,61.11 7.25,60.98 q 0,-0.1 0.04,-0.16 0.04,-0.07 0.1,-0.1 0.07,-0.04 0.15,-0.06 l 0.16,-0.02 0.15,0.02 q 0.09,0.01 0.15,0.05 0.08,0.03 0.12,0.09 0.05,0.06 0.05,0.14 0,0.12 -0.03,0.24 -0.03,0.11 -0.03,0.23 l 0.02,0.1 0.03,0.08 0.04,0.09 0.01,0.08 v 0.04 l 0.14,-0.01 h 0.13 q 0.09,0 0.17,0.02 0.08,0.04 0.16,0.04 l 0.1,-0.02 0.11,-0.03 0.1,-0.03 0.12,-0.02 q 0.06,0 0.1,-0.02 l 0.07,-0.07 0.07,-0.07 0.09,-0.07 q 0.1,-0.05 0.2,-0.14 0.07,-0.08 0.13,-0.19 0.06,-0.1 0.09,-0.22 l 0.02,-0.24 q 0,-0.14 -0.04,-0.28 Q 9.92,60.3 9.84,60.16 9.77,60.02 9.65,59.9 9.55,59.78 9.42,59.69 9.29,59.59 9.15,59.54 9,59.49 8.85,59.49 l -0.21,0.02 -0.21,0.06 q -0.06,0.01 -0.1,0.05 l -0.08,0.06 -0.09,0.07 q -0.04,0.03 -0.1,0.04 l -0.07,0.08 -0.08,0.1 -0.1,0.07 q -0.04,0.03 -0.1,0.03 -0.06,0 -0.1,-0.06 Q 7.56,59.95 7.54,59.85 7.51,59.75 7.5,59.62 v -0.87 q 0,-0.1 -0.03,-0.2 h 0.02 q 0.04,0 0.07,0.03 l 0.06,0.03 v -0.02 q 0,-0.05 -0.02,-0.08 L 7.55,58.46 7.49,58.41 Q 7.47,58.39 7.47,58.35 V 58.2 l 0.02,-0.19 v -0.2 l 0.02,-0.15 q 0,-0.12 0.09,-0.16 0.08,-0.04 0.19,-0.04 l 0.2,0.02 0.15,0.04 0.12,0.04 0.11,0.02 h 0.1 l 0.1,-0.01 q 0.12,0 0.25,0.03 0.13,0.03 0.26,0.03 0.08,0 0.15,-0.02 L 9.38,57.57 9.53,57.52 9.69,57.5 q 0.08,0 0.14,0.03 0.07,0 0.1,0.03 l 0.03,0.05 v 0.04 l -0.02,0.04 q 0,0.02 -0.04,0.05 l -0.1,0.07 -0.11,0.06 -0.08,0.04 q -0.07,0.08 -0.18,0.1 -0.1,0.03 -0.2,0.03 H 9.07 L 8.83,58.01 8.55,57.98 8.28,57.94 8.05,57.9 7.92,57.87 7.91,57.88 v 0.02 q 0,0.12 0.03,0.24 0.03,0.12 0.03,0.24 v 0.03 L 7.87,58.39 Q 7.84,58.36 7.79,58.36 H 7.77 v 0.12 q 0.02,0.04 0.05,0.06 l 0.06,0.05 0.07,0.03 q 0.04,0.03 0.07,0.1 l 0.03,0.17 0.03,0.18 0.03,0.13 0.14,-0.05 0.18,-0.04 0.2,-0.04 0.13,-0.02 q 0.12,0 0.24,0.03 0.12,0.03 0.24,0.03 0.14,0 0.25,0.07 l 0.22,0.14 0.04,0.07 0.06,0.12 0.05,0.11 q 0.03,0.05 0.06,0.05 l 0.06,-0.01 0.06,-0.02 q 0.09,0 0.14,0.07 0.06,0.06 0.1,0.14 0.04,0.08 0.06,0.18 l 0.03,0.15 q 0,0.03 0.02,0.05 l 0.04,0.06 0.03,0.05 0.01,0.05 z m -0.73,1.4 q 0,-0.03 -0.03,-0.05 L 9.64,61.74 H 9.57 q -0.04,0.02 -0.04,0.05 h 0.04 l 0.08,0.02 q 0.05,0 0.08,0.04 z" />
  <path
     id="path24"
     word-spacing="0"
     text-anchor="middle"
     letter-spacing="0"
     font-weight="400"
     font-family="D-FONT"
     style="line-height:1.25;-inkscape-font-specification:D-FONT;text-align:center"
     font-size="17.64px"
     d="m 3.52,52.73 v -3.52 h 3.53 v 3.52 z m 7.06,0 v -3.52 h 3.53 v 3.52 z M 3.52,45.68 v -3.53 h 3.53 v 3.53 z m 7.06,0 v -3.53 h 3.53 v 3.53 z M 0,38.62 V 35.1 h 17.64 v 3.53 z" />
  <path
     id="path26"
     word-spacing="0"
     text-anchor="middle"
     letter-spacing="0"
     font-weight="400"
     font-family="'Special Elite'"
     style="line-height:1.25;-inkscape-font-specification:'Special Elite';text-align:center"
     font-size="7.06px"
     d="m 154.57,60.77 v 0.08 l -0.04,0.07 -0.02,0.08 -0.01,0.07 v 0.07 l 0.02,0.04 -0.03,0.08 -0.07,0.12 -0.1,0.12 -0.08,0.09 -0.1,0.1 -0.12,0.1 -0.1,0.12 q -0.04,0.05 -0.06,0.11 l -0.3,0.04 -0.3,0.07 -0.28,0.06 -0.3,0.03 v -0.05 h -0.01 l -0.02,0.01 -0.07,0.02 -0.12,0.02 h -0.11 q -0.09,0 -0.16,-0.03 l -0.15,-0.07 -0.15,-0.08 q -0.09,-0.03 -0.19,-0.03 -0.05,0 -0.08,-0.02 l -0.07,-0.07 q -0.08,-0.08 -0.16,-0.13 l -0.14,-0.11 q -0.07,-0.06 -0.1,-0.15 -0.04,-0.1 -0.04,-0.26 l 0.02,-0.14 q 0.03,-0.06 0.03,-0.13 l -0.02,-0.08 -0.03,-0.06 -0.04,-0.06 -0.01,-0.1 0.01,-0.13 0.03,-0.13 0.04,-0.14 0.02,-0.14 q 0.03,-0.2 0.14,-0.37 0.12,-0.17 0.3,-0.29 l 0.01,-0.04 q 0,-0.03 -0.03,-0.08 l -0.05,-0.1 -0.08,-0.12 -0.05,-0.13 -0.1,-0.1 -0.02,-0.1 v -0.22 l -0.02,-0.16 -0.01,-0.17 q 0,-0.12 0.04,-0.18 l 0.08,-0.1 0.09,-0.1 q 0.04,-0.04 0.04,-0.12 0,-0.04 0.03,-0.07 l 0.07,-0.05 0.07,-0.05 q 0.03,-0.02 0.03,-0.06 v -0.04 l 0.05,-0.03 0.12,-0.06 0.16,-0.08 0.16,-0.08 q 0.07,-0.04 0.1,-0.04 l 0.06,0.01 0.07,0.02 0.03,-0.02 q 0.01,-0.02 0.06,-0.03 0.06,-0.02 0.13,-0.02 l 0.13,-0.02 h 0.09 q 0.1,0 0.18,0.02 l 0.18,0.06 0.18,0.05 0.19,0.02 h 0.07 l 0.08,0.1 0.13,0.12 0.13,0.1 0.05,0.04 v 0.08 h 0.1 l 0.03,0.05 0.02,0.05 0.1,0.15 0.04,0.12 q 0.02,0.07 0.01,0.16 v 0.26 l -0.02,0.28 q -0.02,0.14 -0.12,0.26 l -0.06,0.11 -0.06,0.16 -0.03,0.15 -0.02,0.13 q 0,0.06 0.03,0.1 l 0.07,0.07 0.09,0.06 q 0.05,0.03 0.1,0.09 l 0.08,0.13 q 0.04,0.08 0.06,0.2 l 0.02,0.12 0.04,0.16 0.03,0.15 z m -0.62,-2.32 q 0,-0.14 -0.07,-0.25 -0.07,-0.1 -0.18,-0.2 -0.11,-0.08 -0.24,-0.14 l -0.24,-0.11 -0.07,-0.04 -0.07,-0.05 -0.08,-0.04 q -0.03,-0.02 -0.07,-0.02 l -0.1,0.02 -0.12,0.01 q -0.07,0 -0.13,-0.03 -0.01,0.07 -0.04,0.1 l -0.06,0.03 h -0.09 l -0.08,0.02 -0.24,0.12 q -0.1,0.06 -0.17,0.14 -0.07,0.09 -0.11,0.2 -0.04,0.1 -0.04,0.26 0,0.1 0.03,0.2 l 0.09,0.18 0.11,0.17 0.13,0.14 q 0.05,0.05 0.12,0.07 l 0.15,0.03 0.15,0.02 h 0.14 q 0.2,0 0.3,-0.02 l 0.2,-0.05 0.19,-0.06 0.24,-0.06 q 0.08,-0.01 0.15,-0.09 0.07,-0.07 0.11,-0.17 0.05,-0.1 0.07,-0.2 z m 0,2.1 -0.01,-0.12 -0.04,-0.11 -0.06,-0.1 -0.05,-0.11 -0.07,-0.1 q -0.04,-0.04 -0.09,-0.06 l -0.1,-0.06 -0.1,-0.05 q -0.15,-0.1 -0.33,-0.13 -0.17,-0.03 -0.34,-0.03 -0.22,0 -0.43,0.07 -0.2,0.07 -0.36,0.2 -0.16,0.12 -0.25,0.3 -0.1,0.17 -0.1,0.4 0,0.12 0.05,0.23 0.05,0.11 0.12,0.21 0.04,0 0.08,0.06 l 0.1,0.14 q 0.05,0.08 0.12,0.15 0.06,0.07 0.12,0.08 l 0.34,0.08 q 0.17,0.03 0.35,0.03 h 0.41 q 0.05,-0.03 0.08,-0.08 0.02,-0.05 0.06,-0.09 0.04,-0.04 0.09,-0.06 l 0.08,-0.04 0.07,-0.06 q 0.04,-0.04 0.06,-0.1 l 0.03,-0.06 0.04,-0.02 0.03,-0.04 q 0.02,-0.02 0.02,-0.07 l 0.01,-0.12 0.03,-0.11 0.03,-0.12 0.02,-0.12 z m -1.2,1.42 -0.02,-0.06 -0.05,-0.03 q -0.03,0 -0.03,0.04 l -0.02,0.06 v 0.06 q -0.02,0.02 -0.05,0.02 l -0.1,-0.02 q -0.03,-0.02 -0.08,-0.02 h -0.02 v 0.03 q 0,0.05 0.03,0.08 0.03,0.03 0.08,0.03 h 0.08 l 0.1,-0.05 0.06,-0.06 q 0.03,-0.04 0.03,-0.08 z" />
  <path
     id="path28"
     word-spacing="0"
     text-anchor="middle"
     letter-spacing="0"
     font-weight="400"
     font-family="D-FONT"
     style="line-height:1.25;-inkscape-font-specification:D-FONT;text-align:center"
     font-size="17.64px"
     d="m 144,52.64 v -7.05 h 3.52 v 3.53 h 3.53 v -7.06 h 3.53 v 7.06 h 3.53 v -3.53 h 3.53 v 7.05 z m 0,-14.1 V 35 h 17.64 v 3.53 z" />
  <path
     id="path30"
     word-spacing="0"
     text-anchor="middle"
     letter-spacing="0"
     font-weight="400"
     font-family="'Special Elite'"
     style="line-height:1.25;-inkscape-font-specification:'Special Elite';text-align:center"
     font-size="7.06px"
     d="m 58.6,60.7 -0.07,0.2 -0.04,0.21 -0.04,0.21 -0.05,0.21 q -0.1,0.05 -0.19,0.15 l -0.17,0.18 q -0.09,0.1 -0.18,0.17 -0.09,0.08 -0.2,0.09 -0.12,0 -0.22,0.04 l -0.2,0.08 -0.2,0.08 q -0.1,0.03 -0.22,0.03 h -0.13 l -0.17,-0.02 q -0.09,-0.01 -0.16,-0.04 -0.08,-0.03 -0.1,-0.07 -0.01,-0.05 -0.05,-0.06 l -0.06,-0.01 h -0.08 q -0.04,0 -0.07,-0.03 -0.05,-0.03 -0.08,-0.07 L 55.85,61.97 55.78,61.89 55.7,61.82 55.6,61.78 55.5,61.73 55.48,61.69 55.47,61.65 55.45,61.61 55.41,61.58 v -0.03 q 0,-0.07 0.03,-0.14 0.03,-0.07 0.03,-0.14 0,-0.04 -0.03,-0.07 l -0.05,-0.08 -0.06,-0.07 -0.05,-0.08 -0.04,-0.15 q -0.02,-0.08 -0.08,-0.13 -0.05,-0.05 -0.05,-0.13 v -0.19 l -0.01,-0.1 q -0.03,-0.04 -0.03,-0.09 0,-0.03 0.03,-0.05 l 0.06,-0.03 -0.01,-0.04 -0.03,-0.03 -0.03,-0.02 -0.01,-0.02 0.05,-0.06 q 0.03,-0.04 0.03,-0.07 0,-0.04 -0.03,-0.07 -0.03,-0.03 -0.03,-0.07 l 0.02,-0.01 0.03,-0.01 0.01,-0.04 q 0.02,-0.2 0.06,-0.39 l 0.08,-0.38 v -0.08 l 0.01,-0.1 v -0.08 q 0.06,-0.04 0.12,-0.15 l 0.11,-0.22 0.11,-0.18 q 0.06,-0.09 0.1,-0.09 l 0.07,0.01 0.07,0.01 h 0.05 q 0.03,0 0.04,-0.02 L 55.95,57.97 55.9,57.94 55.87,57.91 Q 55.85,57.9 55.85,57.88 l 0.02,-0.04 0.03,-0.04 0.05,-0.04 0.03,-0.03 0.16,-0.11 0.12,-0.08 0.14,-0.04 0.19,-0.04 q 0.03,-0.01 0.03,-0.03 V 57.4 l 0.03,-0.02 q 0.02,-0.02 0.08,-0.02 0.06,0 0.1,-0.03 0.05,-0.03 0.11,-0.03 h 0.29 l 0.1,0.01 q 0.06,0 0.1,0.02 l 0.1,0.03 0.08,0.03 0.1,0.01 q 0.05,0 0.06,0.02 v 0.04 q 0,0.02 0.02,0.03 0.01,0.02 0.06,0.02 h 0.04 l 0.04,-0.01 0.04,0.02 0.02,0.04 0.01,0.03 0.02,0.02 h 0.02 l 0.04,-0.01 0.04,0.01 0.01,0.05 0.01,0.05 0.02,0.04 0.1,0.1 0.06,0.1 0.05,0.1 0.01,0.16 q 0,0.1 -0.02,0.18 l -0.07,0.15 -0.08,0.15 -0.1,0.14 Q 58.04,58.8 57.97,58.8 h -0.1 l -0.11,0.01 q -0.08,0 -0.14,-0.03 l -0.06,-0.1 -0.06,-0.1 -0.05,-0.11 -0.02,-0.12 0.02,-0.09 0.03,-0.08 0.03,-0.1 0.01,-0.09 q 0,-0.08 -0.09,-0.09 -0.09,0 -0.18,-0.03 l -0.18,-0.02 q -0.1,0 -0.19,0.05 0,-0.09 -0.03,-0.12 -0.03,-0.03 -0.07,-0.03 H 56.7 l -0.06,-0.02 0.02,0.01 0.02,0.03 q 0.02,0 0.03,0.02 l 0.01,0.02 q 0,0.02 -0.03,0.02 l -0.07,0.02 q -0.03,0 -0.06,0.03 -0.03,0.01 -0.03,0.06 v 0.05 H 56.5 L 56.44,58 q -0.03,0 -0.05,0.02 l -0.05,0.02 h -0.1 l -0.04,0.04 v 0.1 q 0,0.04 -0.02,0.06 l -0.03,0.04 -0.06,0.03 -0.04,0.03 q -0.11,0.09 -0.2,0.22 -0.08,0.13 -0.13,0.27 -0.06,0.15 -0.09,0.3 l -0.02,0.3 q 0,0.07 0.02,0.1 0.03,0.03 0.07,0.04 l 0.1,0.02 q 0.05,0 0.1,0.03 0.05,-0.05 0.07,-0.1 l 0.06,-0.07 q 0.02,-0.04 0.06,-0.07 0.04,-0.04 0.11,-0.06 0.17,-0.06 0.36,-0.1 0.19,-0.04 0.37,-0.04 0.14,0 0.27,0.04 0.13,0.04 0.22,0.15 h 0.03 q 0.06,0 0.15,0.03 0.1,0.03 0.19,0.08 0.1,0.04 0.17,0.1 l 0.12,0.1 q 0.01,0.04 0.04,0.04 h 0.03 l 0.03,-0.01 q 0.03,0 0.03,0.03 v 0.03 q 0,0.06 0.04,0.1 l 0.1,0.09 0.1,0.1 q 0.04,0.04 0.04,0.12 0,0.08 -0.03,0.16 -0.03,0.08 -0.03,0.16 0,0.08 0.05,0.13 0.05,0.04 0.12,0.06 z m -0.67,0.01 -0.02,-0.2 -0.08,-0.2 -0.1,-0.2 -0.14,-0.14 -0.14,-0.09 -0.18,-0.1 -0.19,-0.09 q -0.09,-0.03 -0.16,-0.03 l -0.1,0.02 -0.1,0.01 h -0.1 q -0.04,-0.02 -0.1,-0.02 l -0.08,0.02 q -0.04,0.02 -0.05,0.07 h -0.34 v 0.07 q 0,0.07 -0.06,0.16 l -0.13,0.18 -0.13,0.21 q -0.06,0.12 -0.06,0.26 l 0.01,0.1 0.03,0.08 0.03,0.1 0.01,0.09 v 0.1 l 0.03,0.03 0.04,0.02 q 0.02,0 0.06,0.04 l 0.06,0.08 0.05,0.09 0.06,0.07 q 0.04,0.03 0.1,0.04 l 0.03,0.03 0.08,0.05 0.07,0.05 0.05,0.04 q 0.01,0.03 0.09,0.05 l 0.17,0.02 0.18,0.02 h 0.13 q 0.14,0 0.21,-0.03 0.08,-0.03 0.13,-0.07 l 0.1,-0.1 q 0.05,-0.06 0.15,-0.12 0.1,-0.05 0.16,-0.13 0.08,-0.08 0.13,-0.17 l 0.08,-0.2 0.02,-0.2 z" />
  <path
     id="path32"
     word-spacing="0"
     text-anchor="middle"
     letter-spacing="0"
     font-weight="400"
     font-family="D-FONT"
     style="line-height:1.25;-inkscape-font-specification:D-FONT;text-align:center"
     font-size="17.64px"
     d="m 55.05,45.63 v -3.52 h 3.53 v 3.52 z M 48,52.7 V 35.05 h 10.58 v 3.53 h -7.06 v 10.58 h 7.06 v 3.53 z m 14.1,0 V 35.05 h 3.54 v 17.64 z" />
  <path
     id="path34"
     word-spacing="0"
     text-anchor="middle"
     letter-spacing="0"
     font-weight="400"
     font-family="'Special Elite'"
     style="line-height:1.25;-inkscape-font-specification:'Special Elite';text-align:center"
     font-size="7.06px"
     d="m 106.72,57.44 v 0.21 l -0.02,0.14 -0.03,0.13 -0.05,0.1 q -0.02,0.03 -0.07,0.03 h -0.01 q 0,0.05 -0.04,0.14 l -0.08,0.18 -0.1,0.2 -0.13,0.2 -0.11,0.16 -0.1,0.12 q -0.05,0.03 -0.09,0.12 l -0.08,0.18 -0.08,0.2 q -0.04,0.1 -0.1,0.15 l -0.07,0.14 q -0.04,0.08 -0.05,0.15 l 0.01,0.04 q 0,0.05 -0.03,0.07 l -0.07,0.05 -0.06,0.06 q -0.02,0.04 -0.02,0.12 l -0.02,0.06 q 0,0.02 -0.03,0.04 l -0.02,0.04 -0.01,0.04 0.01,0.1 q 0.02,0.04 0.02,0.09 0,0.1 -0.02,0.19 l -0.02,0.19 q 0,0.07 -0.02,0.13 l -0.05,0.1 -0.06,0.12 -0.05,0.12 -0.04,0.08 -0.06,0.06 0.01,0.05 v 0.13 l -0.04,0.11 -0.06,0.1 q -0.04,0.03 -0.08,0.03 h -0.02 l 0.02,0.05 v 0.17 l -0.02,0.12 v 0.03 h -0.03 q -0.2,0 -0.3,-0.1 -0.08,-0.1 -0.08,-0.3 l 0.02,-0.3 q 0.03,-0.14 0.03,-0.29 0,-0.04 -0.03,-0.08 l -0.02,-0.1 v -0.02 l 0.03,-0.03 q 0.05,-0.04 0.07,-0.1 l 0.04,-0.1 0.05,-0.1 q 0.02,-0.04 0.08,-0.05 v -0.03 l -0.01,-0.06 q -0.02,-0.03 -0.02,-0.07 0,-0.03 0.03,-0.06 l 0.03,-0.05 0.06,-0.12 0.06,-0.17 0.06,-0.16 q 0.03,-0.07 0.05,-0.08 0.07,-0.04 0.09,-0.09 0.02,-0.05 0.02,-0.11 l 0.03,-0.1 q 0.01,-0.06 0.06,-0.08 0.05,-0.02 0.06,-0.06 l 0.03,-0.1 0.02,-0.1 0.03,-0.09 0.04,-0.05 0.05,-0.04 0.05,-0.05 0.01,-0.06 v -0.02 l 0.05,-0.05 0.03,-0.05 0.04,-0.1 0.06,-0.07 0.05,-0.08 0.05,-0.1 q 0,-0.03 0.05,-0.12 l 0.1,-0.17 0.1,-0.16 0.04,-0.09 q 0,-0.03 -0.03,-0.06 l -0.07,-0.03 h -0.08 l -0.06,-0.01 -0.17,0.01 -0.17,0.01 q -0.14,0 -0.3,-0.03 -0.15,-0.04 -0.25,-0.16 l -0.06,0.02 h -0.07 l -0.14,-0.02 -0.13,-0.03 -0.14,-0.04 q -0.06,-0.02 -0.14,-0.02 -0.07,0 -0.14,0.03 -0.08,0.02 -0.15,0.06 l -0.12,0.1 -0.06,0.14 -0.05,0.13 -0.06,0.12 -0.06,0.11 -0.06,0.12 q -0.02,0.06 -0.06,0.1 -0.04,0.05 -0.1,0.08 l -0.1,0.06 -0.12,0.01 q -0.1,-0.09 -0.1,-0.22 v -0.31 q 0,-0.04 0.03,-0.08 l 0.05,-0.07 0.07,-0.07 0.04,-0.08 0.04,-0.1 0.01,-0.14 0.01,-0.13 v -0.24 l -0.01,-0.13 h 0.07 l 0.04,-0.04 0.02,-0.03 0.03,-0.01 q 0.05,0 0.1,0.03 l 0.11,0.05 0.12,0.06 0.12,0.02 q 0.08,0 0.14,-0.03 l 0.13,-0.09 0.15,-0.08 q 0.08,-0.03 0.19,-0.03 l 0.06,-0.01 0.06,-0.03 0.05,-0.03 q 0.02,-0.02 0.05,-0.02 0.04,0 0.05,0.03 0.03,0.03 0.06,0.03 l 0.06,-0.02 0.06,-0.02 q 0.04,0 0.15,0.05 l 0.24,0.1 0.24,0.12 0.15,0.09 q 0.1,0 0.2,-0.03 l 0.19,-0.06 0.2,-0.07 q 0.1,-0.03 0.2,-0.03 0.08,0 0.11,0.02 0.04,0.03 0.05,0.06 l 0.03,0.06 q 0.02,0.04 0.08,0.05 z" />
  <path
     id="path36"
     word-spacing="0"
     text-anchor="middle"
     letter-spacing="0"
     font-weight="400"
     font-family="D-FONT"
     style="line-height:1.25;-inkscape-font-specification:D-FONT;text-align:center"
     font-size="17.64px"
     d="m 96,52.64 v -3.52 h 17.64 v 3.52 z m 3.52,-7.05 v -3.53 h 3.53 v 3.53 z m 7.06,0 v -3.53 h 3.53 v 3.53 z m -3.53,-3.53 V 38.53 H 99.52 V 35 h 10.59 v 3.53 h -3.53 v 3.53 z" />
  <path
     id="path38"
     word-spacing="0"
     text-anchor="middle"
     letter-spacing="0"
     font-weight="400"
     font-family="'Special Elite'"
     style="line-height:1.25;-inkscape-font-specification:'Special Elite';text-align:center"
     font-size="7.06px"
     d="m 202.54,59.62 v 0.26 l -0.02,0.27 q -0.02,0.12 -0.07,0.25 -0.04,0.12 -0.13,0.22 -0.04,0.06 -0.06,0.14 l -0.03,0.14 -0.08,-0.02 -0.07,-0.03 q -0.03,-0.03 -0.07,-0.04 -0.03,-0.02 -0.07,-0.02 -0.06,0 -0.06,0.06 l 0.01,0.04 0.03,0.05 q 0.01,0.03 0.04,0.04 L 202,61 q 0.03,-0.01 0.03,-0.05 l 0.04,0.02 0.01,0.04 q 0,0.03 -0.04,0.06 l -0.08,0.05 -0.08,0.05 q -0.04,0.03 -0.04,0.06 0,0.02 0.04,0.04 l 0.07,0.02 0.08,0.02 q 0.03,0.01 0.03,0.04 0,0.03 -0.04,0.05 l -0.07,0.03 q -0.05,0.02 -0.1,0.09 l -0.1,0.12 -0.09,0.11 q -0.04,0.05 -0.06,0.05 h -0.06 l -0.06,-0.01 h -0.09 q -0.04,0.02 -0.04,0.07 0,0.04 0.03,0.07 l 0.07,0.05 q -0.04,0.03 -0.08,0.03 h -0.09 l -0.08,0.02 -0.05,0.04 -0.05,0.06 -0.05,0.05 -0.05,0.01 -0.1,0.04 -0.15,0.04 -0.15,0.04 -0.1,0.03 -0.07,0.01 q -0.15,0 -0.3,-0.05 l -0.29,-0.12 q -0.1,-0.04 -0.16,-0.1 l -0.11,-0.1 -0.1,-0.14 -0.09,-0.16 -0.1,-0.05 v -0.1 l -0.04,-0.06 -0.04,-0.06 -0.02,-0.05 v -0.2 l 0.03,-0.11 0.05,-0.1 q 0.04,-0.06 0.08,-0.08 l 0.18,-0.11 q 0.1,-0.06 0.2,-0.06 0.06,0 0.1,0.03 l 0.1,0.08 0.12,0.08 q 0.05,0.04 0.13,0.06 V 61 q 0,0.07 -0.03,0.12 -0.02,0.06 -0.02,0.13 v 0.04 l -0.1,-0.01 -0.1,-0.01 h -0.1 l -0.1,0.02 q 0.02,0.04 0.1,0.07 l 0.15,0.03 0.2,0.03 q 0.1,0.01 0.19,0.05 0.09,0.02 0.15,0.07 0.06,0.05 0.06,0.14 v 0.05 q 0.04,-0.04 0.15,-0.1 l 0.23,-0.12 0.24,-0.1 q 0.11,-0.04 0.18,-0.04 0.03,0 0.05,0.02 0.03,0.01 0.03,0.05 0.04,0 0.06,-0.04 l 0.03,-0.09 0.03,-0.11 q 0.01,-0.07 0.04,-0.12 0.02,-0.07 0.06,-0.11 0.05,-0.05 0.12,-0.07 l -0.02,-0.1 q 0,-0.06 0.03,-0.13 l 0.05,-0.13 0.06,-0.15 0.02,-0.15 q 0,-0.13 -0.1,-0.23 l -0.12,0.06 -0.2,0.07 -0.25,0.07 -0.25,0.07 -0.21,0.06 -0.13,0.02 -0.11,-0.01 -0.1,-0.03 -0.11,-0.03 -0.12,-0.01 q -0.07,0 -0.1,-0.02 l -0.04,-0.04 -0.05,-0.04 q -0.04,-0.02 -0.12,-0.02 -0.04,0 -0.1,-0.05 l -0.12,-0.12 -0.13,-0.13 -0.09,-0.1 -0.03,-0.02 -0.04,-0.02 -0.05,-0.03 q -0.02,0 -0.03,-0.02 -0.02,-0.03 -0.02,-0.07 v -0.1 l -0.03,-0.08 q 0,-0.03 -0.04,-0.03 h -0.02 l -0.02,-0.01 -0.01,-0.07 -0.02,-0.11 -0.03,-0.13 -0.04,-0.12 -0.01,-0.12 0.02,-0.16 q 0.02,-0.07 0.02,-0.16 l 0.02,-0.1 0.06,-0.13 0.07,-0.15 0.08,-0.15 0.08,-0.11 q 0.04,-0.05 0.08,-0.06 h 0.03 l 0.04,-0.01 0.04,-0.02 0.01,-0.03 V 57.7 q 0,-0.05 0.02,-0.07 l 0.05,-0.03 0.05,-0.01 0.06,-0.04 0.07,-0.07 0.06,-0.05 0.07,-0.02 h 0.2 q 0.02,-0.04 0.07,-0.06 l 0.12,-0.04 0.13,-0.01 h 0.1 l 0.19,0.02 0.2,0.04 0.2,0.04 0.18,0.02 h 0.08 l 0.01,0.1 q 0.01,0.04 0.04,0.06 l 0.06,0.02 0.1,0.05 q 0.08,0.06 0.15,0.14 l 0.14,0.16 -0.02,0.06 -0.04,0.1 -0.06,0.09 q -0.04,0.03 -0.1,0.03 -0.07,0 -0.13,-0.04 l -0.12,-0.1 q -0.04,-0.06 -0.1,-0.1 L 201.28,57.92 201.13,57.86 201,57.8 q -0.04,-0.06 -0.11,-0.09 -0.07,-0.03 -0.15,-0.03 -0.14,0 -0.27,0.05 -0.12,0.05 -0.25,0.07 -0.07,0.07 -0.1,0.15 h -0.13 l -0.1,0.05 -0.08,0.06 q -0.03,0.03 -0.03,0.06 v 0.03 q 0,0.06 -0.04,0.1 l -0.06,0.1 q -0.04,0.06 -0.04,0.14 l -0.01,0.15 -0.05,0.1 q -0.03,0.04 -0.03,0.09 l 0.01,0.1 0.01,0.1 0.03,0.12 0.06,0.17 0.07,0.14 q 0.04,0.07 0.08,0.07 0.02,0 0.02,-0.02 l 0.02,-0.03 v -0.04 l 0.02,-0.02 0.07,0.04 0.11,0.08 0.14,0.1 0.16,0.1 0.14,0.09 q 0.08,0.03 0.13,0.03 l 0.22,-0.01 0.22,-0.05 q 0.04,0 0.06,-0.03 l 0.04,-0.03 0.04,-0.04 0.05,-0.03 0.08,-0.01 h 0.08 l 0.08,-0.02 0.07,-0.05 0.05,-0.07 0.06,-0.11 0.05,-0.12 0.02,-0.1 0.02,-0.1 0.03,-0.12 0.03,-0.1 0.02,-0.12 q 0,-0.09 -0.03,-0.18 -0.02,-0.08 -0.02,-0.17 0,-0.04 0.03,-0.06 l 0.08,-0.03 0.08,-0.03 h 0.06 q 0.06,0 0.09,0.02 l 0.06,0.06 0.06,0.06 q 0.03,0.03 0.07,0.03 l 0.04,0.01 q 0.03,0 0.03,0.04 0,0.06 -0.05,0.1 l -0.1,0.07 -0.1,0.06 q -0.04,0.03 -0.04,0.07 0,0.03 0.02,0.03 h 0.04 l 0.12,-0.01 0.1,-0.02 q 0.04,0 0.06,0.02 l 0.03,0.04 v 0.11 q 0,0.17 0.04,0.32 0.03,0.16 0.03,0.33 z" />
  <path
     id="path40"
     word-spacing="0"
     text-anchor="middle"
     letter-spacing="0"
     font-weight="400"
     font-family="D-FONT"
     style="line-height:1.25;-inkscape-font-specification:D-FONT;text-align:center"
     font-size="17.64px"
     d="M 192,52.74 V 45.7 h 7.05 v 3.53 h -3.53 v 3.52 z m 0,-10.57 V 35.1 h 3.52 v 3.53 h 3.53 v 3.54 z m 14.1,10.57 V 35.1 h 3.54 v 17.64 z" />
</svg>
