<?xml version="1.0" standalone="no"?>
<!DOCTYPE svg PUBLIC "-//W3C//DTD SVG 20010904//EN"
 "http://www.w3.org/TR/2001/REC-SVG-20010904/DTD/svg10.dtd">
<svg version="1.0" xmlns="http://www.w3.org/2000/svg"
 width="111.000000pt" height="108.000000pt" viewBox="0 0 111.000000 108.000000"
 preserveAspectRatio="xMidYMid meet">

<g transform="translate(0.000000,108.000000) scale(0.100000,-0.100000)"
fill="#000000" stroke="none">
<path d="M503 1069 c-87 -17 -141 -65 -163 -148 -10 -40 -9 -62 6 -114 5 -17
2 -16 -38 4 -64 34 -148 32 -210 -4 -67 -39 -102 -112 -96 -202 3 -53 9 -71
34 -101 38 -47 90 -74 156 -83 l51 -6 -41 -29 c-28 -19 -51 -47 -68 -83 -23
-46 -26 -62 -21 -114 10 -108 77 -174 191 -186 107 -11 198 43 234 138 l18 49
12 -45 c22 -84 110 -145 210 -145 145 0 245 124 211 262 -10 42 -23 63 -65
104 l-52 51 50 6 c57 7 128 45 151 81 9 13 22 45 28 71 38 153 -98 293 -249
255 -26 -6 -57 -18 -69 -26 -22 -14 -22 -13 -16 35 8 70 -3 116 -39 157 -55
63 -139 90 -225 73z m127 -398 c38 -20 80 -88 80 -130 0 -43 -42 -114 -79
-135 -103 -59 -231 15 -231 133 0 117 125 189 230 132z"/>
</g>
</svg>
