<?xml version="1.0" standalone="no"?>
<!DOCTYPE svg PUBLIC "-//W3C//DTD SVG 20010904//EN"
 "http://www.w3.org/TR/2001/REC-SVG-20010904/DTD/svg10.dtd">
<svg version="1.0" xmlns="http://www.w3.org/2000/svg"
 width="490.000000pt" height="148.000000pt" viewBox="0 0 490.000000 148.000000"
 preserveAspectRatio="xMidYMid meet">

<g transform="translate(0.000000,148.000000) scale(0.100000,-0.100000)"
fill="#000000" stroke="none">
<path d="M2359 1465 c-105 -34 -162 -156 -123 -260 3 -8 -13 -4 -43 12 -41 21
-58 24 -112 20 -115 -9 -191 -91 -191 -206 1 -113 60 -181 177 -204 l59 -11
-40 -30 c-128 -99 -109 -303 34 -364 53 -22 156 -19 207 6 49 26 90 75 105
129 l11 38 13 -44 c15 -53 75 -116 123 -132 84 -28 196 -6 254 49 26 25 57
104 57 146 0 67 -49 148 -113 186 l-28 17 50 6 c94 11 169 68 191 145 13 50
13 69 -5 129 -17 59 -71 114 -130 133 -46 15 -120 9 -165 -13 -18 -10 -34 -17
-36 -17 -1 0 0 24 3 54 6 59 -7 111 -39 151 -48 61 -168 89 -259 60z m151
-387 c48 -25 90 -88 90 -137 0 -36 -36 -103 -67 -126 -40 -29 -129 -32 -171
-6 -130 82 -73 284 83 290 12 1 41 -9 65 -21z"/>
<path d="M476 1065 c-58 -21 -88 -46 -113 -95 -24 -47 -30 -111 -13 -154 l9
-25 -40 21 c-122 63 -267 8 -304 -115 -18 -60 -18 -79 -5 -129 22 -77 97 -134
192 -145 40 -5 47 -8 32 -16 -78 -41 -133 -145 -118 -224 8 -46 35 -102 61
-125 52 -47 182 -66 253 -36 48 20 98 74 112 120 12 42 22 42 33 1 10 -42 52
-91 97 -114 49 -25 156 -28 209 -6 142 60 161 266 33 362 l-40 31 59 11 c116
22 176 91 177 201 0 91 -40 158 -115 193 -57 26 -131 24 -189 -5 -30 -15 -46
-19 -42 -11 40 106 -19 228 -127 260 -62 18 -110 18 -161 0z m163 -393 c125
-92 73 -282 -77 -282 -78 0 -144 55 -157 130 -21 124 135 226 234 152z"/>
<path d="M4268 1069 c-94 -27 -160 -133 -138 -224 5 -22 10 -43 10 -46 0 -4
-21 5 -47 18 -41 21 -58 24 -112 20 -112 -9 -181 -80 -189 -198 -8 -112 55
-189 175 -212 l59 -11 -39 -30 c-71 -54 -101 -146 -78 -233 25 -91 106 -146
216 -145 102 1 169 46 204 136 l18 47 12 -41 c16 -53 72 -116 119 -131 84 -28
198 -6 255 49 36 34 61 120 53 176 -10 57 -49 120 -93 147 -20 13 -32 24 -27
25 5 1 35 7 68 14 143 29 208 180 135 310 -52 92 -179 127 -279 77 -18 -10
-34 -17 -35 -17 0 0 1 29 3 63 4 65 -9 108 -47 151 -44 50 -163 77 -243 55z
m142 -391 c57 -30 82 -65 87 -125 10 -125 -134 -210 -238 -139 -126 86 -67
279 86 285 12 1 41 -9 65 -21z"/>
</g>
</svg>
