<?xml version="1.0" standalone="no"?>
<!DOCTYPE svg PUBLIC "-//W3C//DTD SVG 20010904//EN"
 "http://www.w3.org/TR/2001/REC-SVG-20010904/DTD/svg10.dtd">
<svg version="1.0" xmlns="http://www.w3.org/2000/svg"
 width="850.000000pt" height="135.000000pt" viewBox="0 0 850.000000 135.000000"
 preserveAspectRatio="xMidYMid meet">

<g transform="translate(0.000000,135.000000) scale(0.100000,-0.100000)"
fill="#000000" stroke="none">
<path d="M3875 1330 c-105 -41 -177 -146 -178 -261 -2 -112 18 -139 303 -424
l250 -250 250 250 c290 292 306 315 298 439 -6 88 -31 139 -94 195 -84 74
-207 90 -304 41 -24 -12 -67 -45 -96 -72 l-53 -50 -62 56 c-102 92 -206 117
-314 76z"/>
<path d="M2010 941 c-83 -26 -141 -74 -181 -151 -33 -63 -34 -176 -2 -240 15
-30 106 -128 276 -298 l252 -252 262 262 c253 255 262 265 278 322 51 176 -64
347 -244 363 -87 8 -149 -16 -226 -88 -34 -32 -66 -59 -70 -59 -4 0 -36 26
-70 59 -87 81 -184 109 -275 82z"/>
<path d="M5773 934 c-62 -23 -136 -94 -163 -155 -27 -64 -25 -171 5 -234 12
-25 115 -137 272 -295 l253 -255 255 255 c275 276 295 303 298 403 3 81 -19
142 -75 202 -63 70 -135 99 -223 92 -74 -5 -125 -31 -199 -98 l-56 -51 -53 50
c-30 27 -73 60 -98 72 -57 29 -157 36 -216 14z"/>
<path d="M8220 828 c-14 -5 -44 -8 -68 -5 -54 6 -93 -11 -90 -38 3 -18 12 -20
84 -23 l82 -3 7 -37 c10 -52 -5 -374 -18 -390 -8 -10 -27 -12 -72 -7 -54 5
-63 4 -80 -15 -17 -19 -17 -22 -2 -37 11 -12 32 -16 73 -14 31 1 60 3 63 5 3
2 51 0 106 -5 75 -6 101 -5 108 4 7 9 10 9 14 0 2 -7 15 -13 29 -13 29 0 45
44 23 65 -18 17 -96 28 -104 15 -9 -15 -51 -12 -65 5 -7 9 -11 44 -9 97 4 167
4 386 -1 391 -13 11 -57 14 -80 5z"/>
</g>
</svg>
