<?xml version="1.0" standalone="no"?>
<!DOCTYPE svg PUBLIC "-//W3C//DTD SVG 20010904//EN"
 "http://www.w3.org/TR/2001/REC-SVG-20010904/DTD/svg10.dtd">
<svg version="1.0" xmlns="http://www.w3.org/2000/svg"
 width="497.000000pt" height="154.000000pt" viewBox="0 0 497.000000 154.000000"
 preserveAspectRatio="xMidYMid meet">

<g transform="translate(0.000000,154.000000) scale(0.100000,-0.100000)"
fill="#000000" stroke="none">
<path d="M2438 1520 c-9 -6 -44 -81 -78 -168 -34 -86 -65 -160 -68 -164 -4 -3
-82 -11 -174 -17 -176 -11 -202 -18 -216 -61 -16 -50 -3 -67 134 -180 74 -61
134 -116 134 -123 0 -7 -18 -79 -40 -162 -22 -82 -40 -158 -40 -167 0 -9 11
-29 23 -44 40 -46 69 -38 227 65 l143 92 121 -77 c175 -112 189 -119 223 -102
15 7 34 25 42 39 13 24 11 39 -27 185 -23 87 -42 166 -42 174 1 8 46 51 101
95 157 125 169 138 169 177 0 23 -8 42 -23 56 -21 20 -41 23 -198 33 -96 6
-174 12 -175 13 0 0 -27 69 -59 151 -32 83 -67 160 -78 173 -22 23 -69 29 -99
12z"/>
<path d="M544 1116 c-13 -9 -45 -77 -83 -175 l-63 -161 -36 0 c-122 -2 -306
-21 -327 -34 -28 -18 -41 -67 -25 -95 5 -11 69 -69 140 -127 89 -73 129 -112
126 -123 -35 -124 -76 -295 -76 -320 0 -34 29 -70 58 -72 40 -3 60 7 193 93
l139 90 133 -85 c73 -47 144 -90 157 -95 37 -14 80 5 95 41 11 27 8 48 -31
196 -24 91 -44 167 -44 167 0 1 54 46 121 99 66 54 129 109 140 123 26 33 24
68 -4 96 -26 26 -56 31 -259 42 l-116 6 -63 160 c-38 97 -71 165 -83 174 -26
18 -66 18 -92 0z"/>
<path d="M4323 1108 c-11 -13 -47 -92 -79 -175 -58 -150 -60 -153 -89 -153
-16 0 -95 -5 -174 -10 -127 -9 -148 -13 -168 -32 -31 -29 -31 -81 0 -111 12
-12 74 -64 138 -116 l116 -94 -39 -146 c-21 -80 -41 -158 -45 -173 -7 -34 18
-75 54 -89 32 -12 52 -2 219 105 l122 77 143 -92 c159 -103 186 -111 226 -65
12 15 23 35 23 45 0 10 -18 87 -40 171 -22 84 -40 156 -40 161 0 4 60 58 134
118 73 61 136 120 139 132 8 28 -11 77 -35 90 -11 6 -94 15 -186 21 -92 5
-170 13 -173 17 -4 3 -35 77 -69 164 -38 97 -69 161 -80 167 -32 17 -75 11
-97 -12z"/>
</g>
</svg>
