<svg xmlns="http://www.w3.org/2000/svg" viewBox="0 0 60 120"><circle cx="10" cy="48" r="3" fill="#1c2230"/><circle cx="10" cy="64" r="3" fill="#1c2230"/><circle cx="10" cy="80" r="3" fill="#1c2230"/><circle cx="10" cy="96" r="3" fill="#1c2230"/><circle cx="10" cy="112" r="3" fill="#1c2230"/><circle cx="49.9" cy="47.7" r="3" fill="#1c2230"/><circle cx="49.9" cy="63.7" r="3" fill="#1c2230"/><circle cx="49.9" cy="79.7" r="3" fill="#1c2230"/><circle cx="49.9" cy="95.7" r="3" fill="#1c2230"/><circle cx="49.9" cy="111.7" r="3" fill="#1c2230"/><path d="M49.2 34.2v3.6l-1.2.9v.9h-1.2v.9h-2.4l-1.2.9H42l-1.2-.9-2.4.9h-6l-2.4-.9h-2.4l-1.2.9h-9.6l-2.4-.9v-1.8l1.2-1.8 1.2-.9h2.4l1.2-.9V18.9l-1.2-1.8 1.2-.9v-2.7l-1.2-.9v-1.8H18v-.9l-1.2.9h-2.4l-1.2-.9V9H12l1.2-.9v-.9l1.2-.9 1.2-.9 1.2.9h2.4l2.4-.9 1.2.9h3.6l2.4-.9H30l1.2.9h1.2l1.2.9V9l-1.2.9h-1.2l-2.4.9h-2.4v2.7H24v.9h1.2v5.4H24v.9h1.2v8.1h1.2v1.8l-1.2.9 1.2.9v2.7l1.2.9 1.2.9 2.4-.9h2.4l1.2.9h4.8L42 36h1.2l1.2-1.8-1.2-1.8v-3.6l1.2-.9 1.2-.9 2.4.9 1.2 1.8-1.2.9 1.2.9v2.7z" aria-label="L"/><path fill="#e6e6e6" stroke="red" stroke-width="2" d="M10 112h40"/><path fill="#e6e6e6" stroke="#fc0" stroke-width="2" d="m10 48 40 32"/><path fill="#e6e6e6" stroke="#00f" stroke-width="2" d="m10 64 40 32"/><path stroke="#000" stroke-width="2" d="m10 96 40-48"/></svg>