<svg xmlns="http://www.w3.org/2000/svg" viewBox="0 0 60 120"><circle cx="10" cy="48" r="3" fill="#1c2230"/><circle cx="10" cy="64" r="3" fill="#1c2230"/><circle cx="10" cy="80" r="3" fill="#1c2230"/><circle cx="10" cy="96" r="3" fill="#1c2230"/><circle cx="10" cy="112" r="3" fill="#1c2230"/><circle cx="49.9" cy="47.7" r="3" fill="#1c2230"/><circle cx="49.9" cy="63.7" r="3" fill="#1c2230"/><circle cx="49.9" cy="79.7" r="3" fill="#1c2230"/><circle cx="49.9" cy="95.7" r="3" fill="#1c2230"/><circle cx="49.9" cy="111.7" r="3" fill="#1c2230"/><path d="M50.4 36.9v2.7h-1.2v.9H48l-1.2.9h-3.6l-2.4-.9-2.4-.9v-1.8L37.2 36v-7.2L36 27l-1.2-.9-1.2-.9h-8.4l-1.2.9h-1.2v6.3h-1.2v.9l1.2 1.8 1.2.9 1.2.9h2.4l1.2.9v1.8l-1.2.9h-2.4l-1.2.9h-1.2l-2.4-.9H18l-1.2.9H12l-1.2-.9v-.9l1.2-.9h2.4v-.9h2.4l1.2-.9v-3.6l1.2-.9-1.2-1.8v-6.3l1.2-3.6v-6.3l-1.2-.9v-2.7h-1.2l-1.2-.9h-1.2L13.2 9l1.2-1.8h2.4l2.4-.9h6l2.4.9 1.2-.9h8.4l1.2.9h2.4l1.2.9v1.8h1.2v.9l1.2.9v.9l1.2.9v6.3l-1.2.9h-1.2v.9H42v.9l-1.2.9v.9l-1.2.9 1.2.9v.9l1.2 1.8v4.5l1.2 1.8 1.2.9v.9l1.2-.9v-.9h1.2l1.2-.9h1.2l1.2.9v1.8zm-9.6-21.6v-1.8l-1.2-.9v-.9h-1.2l-1.2-.9h-2.4l-1.2-.9h-1.2v.9L30 9.9h-1.2l-2.4.9H24l-1.2.9v8.1l1.2.9h4.8v.9h2.4v-.9h2.4l2.4-.9h1.2l1.2-.9 1.2-.9 1.2-.9v-1.8z" aria-label="R"/><path stroke="red" stroke-width="2" d="m10 80 40-16"/><path stroke="#fc0" stroke-width="2" d="m10 96 40-16"/><path stroke="#00f" stroke-width="2" d="M10 112h40"/><path stroke="#000" stroke-width="2" d="m10 64 40-16"/></svg>