<svg xmlns="http://www.w3.org/2000/svg" viewBox="0 0 60 120"><circle cx="10" cy="48" r="3" fill="#1c2230"/><circle cx="10" cy="64" r="3" fill="#1c2230"/><circle cx="10" cy="80" r="3" fill="#1c2230"/><circle cx="10" cy="96" r="3" fill="#1c2230"/><circle cx="10" cy="112" r="3" fill="#1c2230"/><circle cx="49.9" cy="47.7" r="3" fill="#1c2230"/><circle cx="49.9" cy="63.7" r="3" fill="#1c2230"/><circle cx="49.9" cy="79.7" r="3" fill="#1c2230"/><circle cx="49.9" cy="95.7" r="3" fill="#1c2230"/><circle cx="49.9" cy="111.7" r="3" fill="#1c2230"/><path d="M46.8 28.8v5.4-.9h-1.2l-1.2.9h2.4l-1.2.9v.9h-1.2v.9l-1.2.9h-2.4v.9l-1.2.9h-1.2l-2.4.9h-1.2l-2.4.9h-4.8l-2.4-.9h-6v.9H18l-1.2-.9-1.2-.9v-1.8l-1.2-.9 1.2-.9v-.9l-1.2-.9v-1.8l1.2-.9-1.2-.9v-.9h1.2V27h1.2l1.2 1.8 1.2.9v4.5l1.2.9h1.2l1.2.9 2.4 1.8h7.2l1.2-.9H36l1.2-.9 1.2-.9h1.2l1.2-.9 1.2-.9v-5.4l-1.2-.9h-1.2l-1.2-.9-1.2-.9h-3.6l-1.2-.9h-1.2v.9l-1.2-.9h-4.8v-.9H24l-3.6-.9-1.2-1.8-1.2-.9v-.9l-1.2-.9v-1.8h-1.2l1.2-1.8v-.9H18h-1.2v-.9l1.2-.9 1.2-.9 1.2-.9 1.2-.9 1.2-.9H30l2.4-.9 1.2.9h4.8l1.2-.9H42l1.2.9v1.8l1.2.9V18l-1.2.9H42l-1.2-.9v-.9l-1.2-.9v-.9l-1.2-.9-1.2-1.8H36v-.9h-4.8l-1.2-.9-1.2.9h-2.4l-1.2.9-2.4.9-1.2 2.7 1.2 1.8v.9l2.4.9 1.2.9h6l1.2.9h6v.9h1.2l1.2.9h1.2v.9l1.2.9 1.2.9 1.2.9v1.8z" aria-label="S"/><path stroke="red" stroke-width="2" d="m10 48 40 16"/><path stroke="#fc0" stroke-width="2" d="m10 64 40 48"/><path stroke="#00f" stroke-width="2" d="m10 96 40-48"/><path stroke="#000" stroke-width="2" d="M10 80h40"/></svg>