<svg xmlns="http://www.w3.org/2000/svg" viewBox="0 0 60 120"><circle cx="10" cy="48" r="3" fill="#1c2230"/><circle cx="10" cy="64" r="3" fill="#1c2230"/><circle cx="10" cy="80" r="3" fill="#1c2230"/><circle cx="10" cy="96" r="3" fill="#1c2230"/><circle cx="10" cy="112" r="3" fill="#1c2230"/><circle cx="49.9" cy="47.7" r="3" fill="#1c2230"/><circle cx="49.9" cy="63.7" r="3" fill="#1c2230"/><circle cx="49.9" cy="79.7" r="3" fill="#1c2230"/><circle cx="49.9" cy="95.7" r="3" fill="#1c2230"/><circle cx="49.9" cy="111.7" r="3" fill="#1c2230"/><path d="M48 30.6h-1.2v4.5l-1.2.9h1.2v2.7l-1.2.9v.9h-6l-2.4.9-3.6-.9h-6l-1.2.9-1.2-.9h-8.4l-1.2-.9V36l-1.2-.9v-.9h1.2v-.9l1.2-1.8 1.2-.9 1.2-.9 1.2-.9h2.4v-.9h-1.2v-1.8l1.2-.9H24v-.9l1.2-1.8 1.2-.9 1.2-.9v-.9l1.2-.9V18H30v-.9h1.2v-2.7h1.2l1.2-.9v-1.8l1.2-.9-1.2-.9h-2.4L30 9l-1.2.9h-1.2v.9l-1.2-.9h-6l-1.2.9V18h-2.4l-1.2-.9v-4.5h-1.2V9.9l1.2-.9v-.9h1.2v-.9h3.6l1.2-.9 2.4.9h3.6l1.2-.9H42v.9h2.4v3.6h-1.2v1.8l-1.2.9v1.8h-1.2l-1.2.9v.9l-1.2.9h-1.2l-1.2.9v.9l-1.2.9v.9l-1.2.9v.9h-1.2v.9l-1.2.9-1.2.9-1.2.9v.9h-1.2v1.8h-1.2v.9l-1.2.9v.9H24v1.8h-1.2v.9h8.4l3.6.9 1.2-.9h2.4l2.4-.9v-3.6l1.2-.9h-1.2v-.9H42v-3.6h2.4V27h2.4v1.8l1.2 1.8zM18 13.5h-1.2v.9H18v-.9zM43.2 36H42v.9h1.2V36z" aria-label="Z"/><path stroke="red" stroke-width="2" d="m10 48 40 48"/><path stroke="#fc0" stroke-width="2" d="M10 64h40"/><path stroke="#00f" stroke-width="2" d="m10 112 40-64"/><path stroke="#000" stroke-width="2" d="m10 96 40 16"/></svg>