<svg viewBox="-2 -2 144 104" xmlns="http://www.w3.org/2000/svg"><defs><path id="a" d="M4.312 16.07h131.045v45.075H4.312z"/></defs><path fill="none" stroke="#000" stroke-linecap="round" d="M0 0h140v100H0zm20 0v100M40 0v100M60 0v100M80 0v100M100 0v100M120 0v100"/><path stroke="#000" stroke-linecap="round" d="M10 0h15v60H10zm25 0h15v60H35zm35 0h15v60H70zm22.5 0h15v60h-15zM115 0h15v60h-15z"/><path d="M13.597 82.426q-2.208-1.125-3.625-1.5v4.333h-.958v-8.333h.833q.5.042.125.333v2.625q2.042.584 4.125 1.584zm-.083-3.667q-.709-.875-1.417-1.416l.542-.417q.708.542 1.416 1.417zm1-.791q-.542-.709-1.375-1.375l.541-.417q.709.5 1.375 1.375zM26.889 83.926q3.833-.708 5.583-3.875l.708.708q-2 3.5-6.666 4.292l-.667-.5.083-.25v-6.917h.917q.375.042.042.292zM51.457 82.437q-1.75-.75-4.708-1.208l.125-1q2.583.292 4.875 1.167zm.5 3.042q-3.208-1.208-5.708-1.542l.208-1.083q3.25.458 5.792 1.5zm-5.25-8q3.417.375 4.917.958l-.25 1.084q-2.083-.75-4.792-.959zM62.139 84.218q5.208-1.209 5.458-5.542h-6.25v-.917h6.333l.584-.125.458.417q-.167 5.542-5.833 7.083zM74.972 80.51l.833.083q.292.083 0 .25v.791q1.334-1 1.917-1.75l-5.75.167-.083-.75 6.292-.167.333-.125.5.625q.125.25-.167.209-.958 1.125-2.375 2.375l-.666-.542q.041 2.375-2.167 3.958l-.75-.625q2.083-1.25 2.083-3.25zM91.347 82.051q.959-1.292 1.292-4.333l1.042.166q.375.084-.042.375-.25 2.667-1.542 4.5-.958 1.375-3.583 2.75l-.75-.75q2.375-1.083 3.583-2.708zm-3.416-1.375q-.75-1.625-1.459-2.458l.917-.5q.708.875 1.5 2.416zM107.534 85.057q4.042-1.042 4.542-4.375h-6.333v-.917h6.375l.375-.125.75.458q.25.209-.083.375-.667 4.167-4.875 5.417zm4.709-6.75h-5.75v-.917h5.75zM127.097 84.218q4.542-1 6.834-4.709l.75.75q-2.125 3.417-6.584 4.834-.125.5-.416.041zm-.291-5.042q1.041.542 2.125 1.333l-.667.875q-1.25-.916-2.083-1.333zm1.166-2.458q1.125.625 2.125 1.333l-.583.875q-1.125-.792-2.083-1.333z" style="font-size:10.6667px;line-height:1.15"/><text xml:space="preserve" style="font-style:normal;font-weight:400;font-size:40px;line-height:1.25;font-family:sans-serif;fill:#000;fill-opacity:1;stroke:none" x="20.211" y="80.834"><tspan x="20.211" y="80.834"> </tspan></text><text xml:space="preserve" style="font-style:normal;font-weight:400;font-size:10.6667px;line-height:1.25;font-family:sans-serif;letter-spacing:-1.64px;word-spacing:.47px;fill:#000;fill-opacity:1;stroke:none" x="6.492" y="34.328"><tspan x="6.492" y="34.328" style="font-size:10.6667px;baseline-shift:baseline;fill:#fff" dx="0 -0.029999999">ド♯</tspan></text><text xml:space="preserve" style="font-style:normal;font-weight:400;font-size:10.6667px;line-height:1.25;font-family:sans-serif;letter-spacing:-1.64px;word-spacing:.47px;fill:#000;fill-opacity:1;stroke:none" x="7.985" y="49.588"><tspan x="7.985" y="49.588" style="font-size:10.6667px;baseline-shift:baseline;fill:#fff">レ♭</tspan></text><text xml:space="preserve" style="font-style:normal;font-weight:400;font-size:10.6667px;line-height:1.25;font-family:sans-serif;letter-spacing:-1.64px;word-spacing:.47px;fill:#000;fill-opacity:1;stroke:none" x="32.929" y="49.68"><tspan x="32.929" y="49.68" style="font-size:10.6667px;baseline-shift:baseline;fill:#fff">ミ♭</tspan></text><text xml:space="preserve" style="font-style:normal;font-weight:400;font-size:10.6667px;line-height:1.25;font-family:sans-serif;letter-spacing:-1.64px;word-spacing:.47px;fill:#000;fill-opacity:1;stroke:none" x="90.821" y="49.436"><tspan x="90.821" y="49.436" style="font-size:10.6667px;baseline-shift:baseline;fill:#fff">ラ♭</tspan></text><text xml:space="preserve" style="font-style:normal;font-weight:400;font-size:10.6667px;line-height:1.25;font-family:sans-serif;letter-spacing:-1.64px;word-spacing:.47px;fill:#000;fill-opacity:1;stroke:none" x="113.669" y="49.409"><tspan x="113.669" y="49.409" style="font-size:10.6667px;baseline-shift:baseline;fill:#fff">シ♭</tspan></text><text xml:space="preserve" style="font-style:normal;font-weight:400;font-size:10.6667px;line-height:1.25;font-family:sans-serif;letter-spacing:-1.64px;word-spacing:.47px;fill:#000;fill-opacity:1;stroke:none" x="68.002" y="49.713"><tspan x="68.002" y="49.713" style="font-size:10.6667px;baseline-shift:baseline;fill:#fff">ソ♭</tspan></text><text xml:space="preserve" style="font-style:normal;font-weight:400;font-size:10.6667px;line-height:1.25;font-family:sans-serif;letter-spacing:-1.64px;word-spacing:.47px;fill:#000;fill-opacity:1;stroke:none" x="32.652" y="34.436"><tspan x="32.652" y="34.436" style="font-size:10.6667px;baseline-shift:baseline;fill:#fff" dx="0 -0.029999999">レ♯</tspan></text><text xml:space="preserve" style="font-style:normal;font-weight:400;font-size:10.6667px;line-height:1.25;font-family:sans-serif;letter-spacing:-1.64px;word-spacing:.47px;fill:#000;fill-opacity:1;stroke:none" x="89.839" y="34.806"><tspan x="89.839" y="34.806" style="font-size:10.6667px;baseline-shift:baseline;fill:#fff" dx="0 -0.029999999">ソ♯</tspan></text><text xml:space="preserve" style="font-style:normal;font-weight:400;font-size:8px;line-height:1.25;font-family:sans-serif;letter-spacing:-2.81px;word-spacing:.47px;fill:#000;fill-opacity:1;stroke:none" x="68.359" y="33.778"><tspan x="68.359" y="33.778" style="font-size:8px;baseline-shift:baseline;fill:#fff" dx="0 0 -0.029999999">ファ♯</tspan></text><text xml:space="preserve" style="font-style:normal;font-weight:400;font-size:10.6667px;line-height:1.25;font-family:sans-serif;letter-spacing:-1.64px;word-spacing:.47px;fill:#000;fill-opacity:1;stroke:none" x="113.12" y="34.806"><tspan x="113.12" y="34.806" style="font-size:10.6667px;baseline-shift:baseline;fill:#fff" dx="0 -0.029999999">ラ♯</tspan></text></svg>