<svg xmlns="http://www.w3.org/2000/svg" viewBox="0 0 348 348" fill="none"><path d="M5.079 5.776h336.913v337.67H5.08z" stroke-width="2" stroke="#000"/><path d="M282.734 40.554c0-8.376 6.966-15.165 15.56-15.165 4.126 0 8.084 1.597 11.001 4.441 2.918 2.844 4.558 6.702 4.558 10.724 0 8.376-6.966 15.165-15.56 15.165-8.593 0-15.559-6.79-15.559-15.165z" stroke-width="2" stroke="#000"/><path fill="#000" stroke="#000" d="M41.288 36.127h197.593V78.89H41.288z"/><path fill="#fff" stroke="#000" d="M16.958 112.068h44.237v201.28H16.958z"/><path fill="#55d400" stroke="#000" stroke-width=".985" d="M72.247 111.692h44.252v195.396H72.247z"/><path fill="navy" stroke="#000" stroke-width=".969" d="M127.535 111.684h44.269v188.777h-44.269z"/><path fill="#000" stroke="#000" stroke-width=".95" d="M182.085 111.674h44.287v181.423h-44.287z"/><path fill="#aa00d4" stroke="#000" stroke-width=".927" d="M235.158 111.663h44.311v172.599h-44.311z"/><path fill="#d4aa00" stroke="#000" stroke-width=".915" d="M288.237 111.657h44.322v168.187h-44.322z"/><g style="line-height:1.25"><path d="M103.889 219.507H84.2v-4.082l4.102-3.516q2.07-1.757 3.848-3.496 3.75-3.633 5.136-5.761 1.387-2.149 1.387-4.63 0-2.265-1.504-3.535-1.484-1.289-4.16-1.289-1.777 0-3.848.625-2.07.625-4.043 1.914h-.195v-4.101q1.387-.684 3.691-1.25 2.325-.567 4.493-.567 4.472 0 7.011 2.168 2.54 2.149 2.54 5.84 0 1.66-.43 3.106-.41 1.426-1.23 2.715-.762 1.21-1.798 2.382-1.015 1.172-2.48 2.598-2.09 2.05-4.316 3.984-2.227 1.915-4.16 3.555h15.644z" aria-label="2" font-weight="400" font-size="40" font-family="sans-serif" letter-spacing="0" word-spacing="0" fill="#000"/></g><g style="line-height:1.25"><path d="M163.067 198.355h-6.504l-1.797 7.344h6.016v2.636h-6.7l-2.03 8.223h-2.52l2.03-8.223h-5.273l-2.03 8.223h-2.52l2.03-8.223h-5.82V205.7h6.504l1.797-7.344h-6.015v-2.637h6.699l2.05-8.242h2.52l-2.05 8.242h5.273l2.05-8.242h2.52l-2.05 8.242h5.82zm-8.965-.04h-5.352l-1.836 7.423h5.352z" aria-label="#" font-weight="400" font-size="40" font-family="sans-serif" letter-spacing="0" word-spacing="0" fill="#59f"/></g><g style="line-height:1.25"><path d="M213.67 203.951h-4.315v8.184h-3.75v-8.184h-13.926v-4.492l14.082-16.406h3.594v17.773h4.316zm-8.065-3.125v-13.125l-11.27 13.125z" aria-label="4" font-weight="400" font-size="40" font-family="sans-serif" letter-spacing="0" word-spacing="0" fill="#d5fff6"/></g><g style="line-height:1.25"><path d="M266.595 199.947q0 2.031-.742 3.886-.743 1.856-2.032 3.125-1.406 1.368-3.359 2.11-1.934.722-4.492.722-2.383 0-4.59-.507-2.207-.489-3.73-1.192v-4.12h.273q1.601 1.015 3.75 1.737 2.148.704 4.219.704 1.386 0 2.675-.391 1.309-.39 2.325-1.367.859-.84 1.289-2.012.449-1.172.449-2.715 0-1.504-.527-2.539-.508-1.035-1.426-1.66-1.016-.742-2.48-1.035-1.446-.313-3.243-.313-1.719 0-3.32.235-1.582.234-2.735.468v-14.98h17.5v3.418h-13.73v7.734q.84-.078 1.719-.117.879-.039 1.523-.039 2.363 0 4.14.41 1.778.39 3.263 1.406 1.562 1.075 2.421 2.774.86 1.7.86 4.258z" aria-label="5" font-weight="400" font-size="40" font-family="sans-serif" letter-spacing="0" word-spacing="0" fill="#000"/></g><g style="line-height:1.25"><path d="M323.058 187.296h-6.503l-1.797 7.343h6.015v2.637h-6.699l-2.031 8.223h-2.52l2.032-8.223h-5.274l-2.031 8.223h-2.52l2.032-8.223h-5.82v-2.637h6.503l1.797-7.343h-6.016v-2.637h6.7l2.05-8.242h2.52l-2.05 8.242h5.273l2.05-8.242h2.52l-2.05 8.242h5.82zm-8.964-.04h-5.352l-1.836 7.422h5.352z" aria-label="#" font-weight="400" font-size="40" font-family="sans-serif" letter-spacing="0" word-spacing="0" fill="#ffe680"/></g><path d="M17.842 212.855v-99.902h42.763v199.805H17.842zm32.308 7.557c-.19-1.332-.78-1.704-3-1.887l-2.765-.23V192.58h-1.843c-1.128 0-1.844.42-1.844 1.08 0 1.358-2.271 2.606-4.744 2.606-1.526 0-1.891.356-1.891 1.843 0 1.66.295 1.844 2.949 1.844h2.949v18.343l-2.765.229c-2.22.183-2.811.555-3 1.887-.232 1.635-.118 1.66 7.977 1.66s8.21-.025 7.977-1.66z" fill="#000" stroke="#000" stroke-width=".737"/><path fill="#000" stroke="#000" d="M28.754 191.695h28.017v39.076H28.754z"/><g style="line-height:1.25"><path d="M46.24 223.398H30.496v-2.969h6.055v-19.492h-6.055v-2.656q1.23 0 2.637-.196 1.406-.214 2.129-.605.898-.488 1.406-1.23.527-.762.606-2.032h3.027v26.211h5.937z" aria-label="1" font-weight="400" font-size="40" font-family="sans-serif" letter-spacing="0" word-spacing="0" fill="#f55"/></g></svg>