<svg xmlns="http://www.w3.org/2000/svg" fill="none" viewBox="0 0 348 348"><path stroke="#000" stroke-width="2" d="M5 5.8h337v337.6H5z"/><path stroke="#000" stroke-width="2" d="M282.7 40.6c0-8.4 7-15.2 15.6-15.2 4.1 0 8 1.6 11 4.4a15 15 0 0 1 4.6 10.8c0 8.3-7 15.1-15.6 15.1s-15.6-6.8-15.6-15.1z"/><path fill="#000" stroke="#000" d="M41.3 36.1h197.6v42.8H41.3z"/><path fill="#fff" stroke="#000" d="M17 112.1h44.2v201.3H17z"/><path fill="#55d400" stroke="#000" d="M72.2 111.7h44.3v195.4H72.2z"/><path fill="navy" stroke="#000" d="M127.5 111.7h44.3v188.8h-44.3z"/><path fill="#00d4aa" stroke="#000" stroke-width=".9" d="M182.1 111.7h44.3v181.4h-44.3z"/><path fill="#aa00d4" stroke="#000" stroke-width=".9" d="M235.2 111.7h44.3v172.6h-44.3z"/><path fill="#d4aa00" stroke="#000" stroke-width=".9" d="M288.2 111.7h44.3v168.2h-44.3z"/><text x="84" y="219.5" fill="#b3ff80"><tspan x="84" y="219.5">2</tspan></text><text x="139.3" y="216.6" fill="#59f"><tspan x="139.3" y="216.6">3</tspan></text><text x="193.1" y="212.9" fill="#d5fff6"><tspan x="193.1" y="212.9">4</tspan></text><text x="246.2" y="209.2" fill="#ff80e5"><tspan x="246.2" y="209.2">5</tspan></text><text x="300" y="206.2" fill="#ffe680"><tspan x="300" y="206.2">6</tspan></text><path fill="#d40000" stroke="#000" stroke-width=".7" d="M17.8 212.9v-100h42.8v199.9H17.8zm32.4 7.5c-.2-1.3-.8-1.7-3-1.9l-2.8-.2v-25.7h-1.9c-1 0-1.8.4-1.8 1 0 1.4-2.3 2.7-4.7 2.7-1.6 0-2 .3-2 1.8 0 1.7.4 1.9 3 1.9h3v18.3l-2.8.2c-2.2.2-2.8.6-3 2-.2 1.5-.1 1.6 8 1.6 8 0 8.2 0 8-1.7z"/><path fill="#d40000" stroke="#d40000" d="M28.8 191.7h28v39.1h-28z"/><text x="28.8" y="223.4" fill="#f55"><tspan x="28.8" y="223.4">1</tspan></text></svg>