<svg xmlns="http://www.w3.org/2000/svg" xmlns:xlink="http://www.w3.org/1999/xlink" viewBox="-0.5 -0.5 993.56 236"><path id="b" d="M117.5 94.28c-5.2-.11-10.1 4.33-10.2 9.58a8.98 8.98 0 0 0 1.73 6.45c-4.77-2.63-11.33-.54-13.77 4.3-2.54 4.5-.96 10.74 3.46 13.44 3.03 2.26 7.18 3.11 10.71 1.56 5.13-1.67 7.26-6.55 8.07-8.19.81 1.64 2.94 6.52 8.07 8.2 3.53 1.54 7.68.7 10.7-1.57 4.43-2.7 6-8.94 3.47-13.44-2.44-4.84-9-6.93-13.77-4.3a8.98 8.98 0 0 0 1.73-6.45c-.1-5.25-5-9.7-10.2-9.58zm0 27.16c-.17 1.01-.16 4.47-.75 6.57-.3 1.08-.86 2.08-1.42 3.05a19.32 19.32 0 0 1-13.37 9.37l-.34.02v.27h31.76v-.27l-.34-.02a19.31 19.31 0 0 1-13.37-9.37 13.64 13.64 0 0 1-1.42-3.05c-.6-2.1-.58-5.56-.75-6.57z"/><g id="a" stroke="#000" stroke-width="4"><g fill="none" transform="translate(-.5 -.5)"><circle cx="118" cy="118" r="96"/><circle cx="118" cy="118" r="40"/></g><path d="m105 71 12.5-12L130 71z"/><g fill="#fff" transform="translate(-.5 -.5)"><circle cx="118" cy="22" r="20"/><circle cx="118" cy="214" r="20"/><circle cx="214" cy="118" r="20"/><circle cx="22" cy="118" r="20"/></g></g><path id="d" d="m370.02 94.28-17.11 23.22 17.11 23.22 17.11-23.22Z"/><path id="f" d="M612.64 96.28a9.5 9.5 0 0 0-5.5 1.74 10 10 0 0 0-3.65 4.64 10.67 10.67 0 0 0 .91 9.7c.36.56.83 1.28 1.23 1.8a759.04 759.04 0 0 1 9.39 12.44 78.24 78.24 0 0 1 3.13 4.8 49.7 49.7 0 0 1 2.26 4.36 34.19 34.19 0 0 1 .74 1.82l.09.24a29.66 29.66 0 0 1 1.3 4.9 25.26 25.26 0 0 1 1.3-4.9l.1-.24a31.63 31.63 0 0 1 1.76-3.96 45.06 45.06 0 0 1 1.93-3.38 61.98 61.98 0 0 1 2.43-3.64l.93-1.28c2.8-3.79 5.6-7.45 8.46-11.15.4-.53.87-1.25 1.23-1.82a10.49 10.49 0 0 0 1.67-5.74 10.77 10.77 0 0 0-1.67-5.74 10.25 10.25 0 0 0-4.45-3.8 9.6 9.6 0 0 0-12.02 3.8 10.41 10.41 0 0 0-1.67 5.74 13.51 13.51 0 0 0-.09-1.35 10.82 10.82 0 0 0-1.96-4.94 10.25 10.25 0 0 0-3.47-2.97 9.7 9.7 0 0 0-4.38-1.07z"/><use xlink:href="#a" transform="translate(252.52)"/><use xlink:href="#a" transform="translate(505.04)"/><use xlink:href="#a" transform="translate(757.56)"/><path id="g" d="M875.06 92.28a15.41 15.41 0 0 1-.9 2.96c-.1.25-.22.5-.34.76l-.08.18-.29.6a23.19 23.19 0 0 1-1.4 2.4 32.75 32.75 0 0 1-1.83 2.57 47.21 47.21 0 0 1-2.31 2.76l-.88.97a610.44 610.44 0 0 1-8.05 8.47c-.38.4-.82.95-1.17 1.37a7.52 7.52 0 0 0-1.4 2.83 6.59 6.59 0 0 0 .53 4.53 7.52 7.52 0 0 0 2.04 2.54 9.29 9.29 0 0 0 3.06 1.7 10.87 10.87 0 0 0 5.44.45 11.15 11.15 0 0 0 3.4-1.17 9.52 9.52 0 0 0 2.6-2.16 7.78 7.78 0 0 0 1.26-2.33 5.8 5.8 0 0 0 .22-.88c-.1 1.48-.2 3.78-.64 5.34-.3 1.06-.85 2.05-1.4 3.01a19.08 19.08 0 0 1-13.21 9.25l-.34.03v.26h31.38v-.26l-.34-.03a19.07 19.07 0 0 1-13.2-9.25c-.56-.96-1.1-1.95-1.4-3.01-.45-1.56-.55-3.87-.64-5.34a7.3 7.3 0 0 0 .4 1.37 7.1 7.1 0 0 0 1.44 2.25 8.37 8.37 0 0 0 2.24 1.75 9.9 9.9 0 0 0 3.4 1.17 11.12 11.12 0 0 0 1.83.15 11.25 11.25 0 0 0 3.6-.6 10.16 10.16 0 0 0 3.06-1.7 8.34 8.34 0 0 0 2.04-2.54 6.9 6.9 0 0 0 .71-3 6.58 6.58 0 0 0-.71-3 7.53 7.53 0 0 0-.88-1.36c-.34-.42-.78-.97-1.16-1.37a611.04 611.04 0 0 1-8.93-9.44 60.58 60.58 0 0 1-2.97-3.64 36.8 36.8 0 0 1-2.15-3.3 23.3 23.3 0 0 1-.42-.8l-.29-.6-.08-.17a19.49 19.49 0 0 1-1.07-3c-.07-.24-.12-.48-.17-.72z"/><use xlink:href="#b" id="c" transform="matrix(.4 0 0 .4 166.49 70.49)"/><use xlink:href="#c" transform="translate(156.52 -96)"/><use xlink:href="#c" transform="translate(313.04)"/><use xlink:href="#c" transform="translate(661.56 96)"/><use xlink:href="#d" id="e" transform="matrix(.4 0 0 .4 -126.52 70.5)"/><use xlink:href="#e" transform="translate(348.52 96)"/><use xlink:href="#e" transform="translate(601.04 -96)"/><use xlink:href="#e" transform="translate(949.56)"/><use xlink:href="#f" id="h" transform="matrix(.371 0 0 .371 -113.46 -22.1)"/><use xlink:href="#g" id="i" transform="matrix(.371 0 0 .371 550.42 -21.35)"/><use xlink:href="#h" transform="translate(348.52 96.32)"/><use xlink:href="#h" transform="translate(505.04 191.27)"/><use xlink:href="#h" transform="translate(661.56 95.27)"/><use xlink:href="#i" transform="translate(-156.53 96)"/><use xlink:href="#i" transform="translate(-601.05 96)"/><use xlink:href="#i" transform="translate(-757.57 192)"/></svg>