<svg xmlns="http://www.w3.org/2000/svg" xml:space="preserve" viewBox="0 0 33.87 33.87"><rect width="29.07" height="29.07" x="2.4" y="2.4" fill="none" stroke="#000" stroke-width=".53" rx="0" ry="0" style="font-variation-settings:normal"/><path fill="none" stroke="#000" stroke-width=".53" d="M17.46 17.46h12.59v12.59H17.46z"/><path fill="none" stroke="#000" stroke-width=".26" d="M19.46 19.46h8.57v8.57h-8.57z"/><path fill="none" stroke="#000" stroke-width=".26" d="m17.46 17.46 2 2m8.57 8.57 2.01 2.01m0-12.58-2 2m-8.58 8.57-2 2.01" paint-order="markers"/><path fill-rule="evenodd" d="M20.54 20.03h6.42v.71h-6.42z"/><path d="M23.44 26.17c0-.08-.03-.15-.1-.15h-.15a.1.1 0 0 1-.1-.1v-.58c0-.05.03-.11.11-.1l.17-.01c.05 0 .07-.03.07-.1v-.27c0-.05-.02-.09-.07-.09h-.17c-.07 0-.09-.04-.09-.1 0-.44 0-2.65-.02-2.9 0-.1-.05-.18-.16-.18h-.29c-.1 0-.15.07-.2.14-.09.14-1.42 2.91-1.56 3.17-.06.11-.08.33.25.33h1.18c.03 0 .06.04.06.07v.64c0 .03-.02.07-.06.07h-.12c-.1 0-.13.06-.13.13v.28c0 .07.03.12.13.13h1.11c.1 0 .13-.03.14-.13zm-1.8-1.53.64-1.47c.08-.19.1-.12.1-.07v1.6c0 .04-.04.07-.07.07h-.62c-.14-.01-.11 0-.05-.13zm3.14-1.7c0-.27.1-.45.16-.58.14-.29.46-.3.67-.18.12.08.25.32.27.65 0 .17.03.72-.15 1-.34.5-1.2 1.58-1.53 1.99a.57.57 0 0 0-.13.36v.3c0 .04.03.06.07.06h2.36c.08 0 .14-.04.14-.17l.01-.3v-.3a.14.14 0 0 0-.14-.14l-.27-.01a.14.14 0 0 0-.14.14v.11a.1.1 0 0 1-.1.1h-1c-.05 0-.07-.05-.04-.09.22-.25.61-.78 1.1-1.36.22-.26.35-.52.45-.84.14-.43.05-1.06 0-1.26-.24-.81-.83-.9-1.16-.88-.54.02-.9.22-1.16.82-.05.1-.09.3-.1.6-.02.1.06.2.17.22l.3.04c.11.01.21-.07.21-.2l.01-.07z" aria-label="42"/><path fill="none" stroke="#000" stroke-width=".53" d="M3.82 3.82h12.59v12.59H3.82z"/><path fill="none" stroke="#000" stroke-width=".26" d="M5.83 5.83h8.57v8.57H5.83z"/><path fill="none" stroke="#000" stroke-width=".26" d="m3.82 3.82 2.01 2.01m8.57 8.57 2.01 2.01m0-12.59-2 2.01M5.83 14.4l-2 2.01" paint-order="markers"/><path fill-rule="evenodd" d="M6.91 6.4h6.42v.71H6.91z"/><path d="M8.92 8.12c0-.09-.07-.14-.15-.14h-.23a.21.21 0 0 0-.2.1l-.43.77c-.05.08 0 .18.1.2h.13c.03 0 .06.02.06.05v3.2c0 .06-.02.11-.09.11H8c-.06 0-.11.05-.11.13v.23c0 .1.08.15.15.15h1.05c.1 0 .18-.07.18-.16v-.2a.13.13 0 0 0-.13-.14H9c-.07-.01-.1-.06-.1-.13zm3.4 2.88c-.04-.28-.03-.55-.38-.88-.1-.1-.7-.57-1.42-.04-.03.02-.06 0-.06-.04v-.67c0-.42.18-.89.85-.82.18.01.4.12.45.14.07.04.14.02.18-.05l.13-.22a.18.18 0 0 0-.05-.23c-.19-.14-.55-.31-1.15-.24-.36.05-.96.4-1.07 1.24l-.04 1.05v1.3c.02.33.03.52.08.62.26.61.62.79 1.15.8.34.02 1.02-.05 1.25-.85.06-.2.17-.66.09-1.1zm-.7.7a.87.87 0 0 1-.37.65c-.2.12-.49.07-.64-.2a1.15 1.15 0 0 1-.13-.56l-.01-.15v-.48c0-.25.16-.47.4-.52h.05c.44-.04.52.12.65.31.13.2.07.77.05.95z" aria-label="16"/><path fill="none" stroke="#000" stroke-width=".53" d="M17.46 3.82h12.59v12.59H17.46z"/><path fill="none" stroke="#000" stroke-width=".26" d="M19.46 5.83h8.57v8.57h-8.57z"/><path fill="none" stroke="#000" stroke-width=".26" d="m17.46 3.82 2 2.01m8.57 8.57 2.01 2.01m0-12.59-2 2.01m-8.58 8.57-2 2.01" paint-order="markers"/><path fill-rule="evenodd" d="M20.54 6.4h6.42v.71h-6.42z"/><path d="M21.64 9.32c.01-.29.1-.46.16-.59a.46.46 0 0 1 .67-.18c.13.07.26.32.28.65 0 .17.02.72-.16 1-.34.5-1.2 1.58-1.52 1.98a.57.57 0 0 0-.13.37v.3c0 .03.03.06.06.06h2.36c.09 0 .15-.04.15-.17v-.6a.14.14 0 0 0-.13-.15h-.27c-.09 0-.14.05-.14.14l-.01.07v.04c0 .06-.04.1-.1.1h-1c-.05 0-.07-.06-.04-.1.23-.25.62-.78 1.1-1.36.22-.26.36-.51.46-.84a2.7 2.7 0 0 0-.01-1.25c-.24-.82-.82-.9-1.15-.89-.55.02-.91.22-1.17.83-.04.1-.08.29-.1.6-.01.1.07.2.17.22l.3.03c.12.02.22-.07.22-.19v-.07zm4.8 1.37c-.1-.26-.28-.4-.35-.48-.02-.04-.01-.07.02-.1a.9.9 0 0 0 .3-.45c.07-.34.07-.65.02-.82-.23-.8-.82-.89-1.15-.88-.54.02-.9.22-1.16.83a.78.78 0 0 0-.05.2.2.2 0 0 0 .2.22h.22c.1.01.17-.05.18-.14a.75.75 0 0 1 .15-.35c.35-.46 1.03-.1 1.03.45 0 .14-.05.41-.17.56-.09.12-.36.21-.54.21-.08 0-.16.05-.16.14v.15c0 .1 0 .17.09.19.23.03.69.06.74.4.08.54 0 .98 0 1.02a.54.54 0 0 1-.58.5c-.29-.02-.46-.22-.53-.45-.04-.1-.03-.2-.05-.31a.16.16 0 0 0-.16-.14l-.27-.02a.2.2 0 0 0-.2.2c.01.36.06.61.14.76.15.31.47.53.72.59.25.05.85.09 1.23-.33.24-.27.39-.53.43-.96.02-.17.06-.64-.1-1z" aria-label="23"/><path fill="none" stroke="#000" stroke-width=".53" d="M3.82 17.46h12.59v12.59H3.82z"/><path fill="none" stroke="#000" stroke-width=".26" d="M5.83 19.46h8.57v8.57H5.83z"/><path fill="none" stroke="#000" stroke-width=".26" d="m3.82 17.46 2.01 2m8.57 8.57 2.01 2.01m0-12.58-2 2m-8.58 8.57-2 2.01" paint-order="markers"/><path fill-rule="evenodd" d="M6.91 20.03h6.42v.71H6.91z"/><path d="M11.41 26.17c0-.08-.03-.15-.1-.15h-.15c-.06 0-.09-.05-.09-.1v-.58c0-.05.02-.11.1-.1l.18-.01c.05 0 .06-.03.06-.1v-.27c0-.05-.01-.09-.06-.09h-.18c-.06 0-.08-.04-.08-.1l-.02-2.9c0-.1-.06-.18-.17-.18h-.29c-.09 0-.14.07-.2.14-.09.14-1.42 2.91-1.55 3.17-.06.11-.08.33.24.33h1.18c.04 0 .07.04.07.07v.64c0 .03-.03.07-.07.07h-.11c-.1 0-.14.06-.14.13v.28c.01.07.03.12.13.13h1.12c.1 0 .13-.03.13-.13zm-1.8-1.53.64-1.47c.09-.19.1-.12.1-.07v1.6c0 .04-.03.07-.07.07h-.62c-.13-.01-.1 0-.05-.13z" aria-label="4"/></svg>