<svg xmlns="http://www.w3.org/2000/svg" xml:space="preserve" viewBox="0 0 33.87 33.87"><g fill="none" stroke="#000" transform="translate(-2.81)"><rect width="13.69" height="25.52" x="10.09" y="4.17" stroke-width=".53" rx="0" ry="0" style="font-variation-settings:normal"/><g stroke-width="1.07"><path stroke-width=".54" d="M11.02 16.93h11.83v11.83H11.02z"/><path stroke-width=".26" d="M12.47 18.47h8.93v8.92h-8.93z"/><path stroke-width=".26" d="m22.8 17.02-1.44 1.45m-8.89 8.9-1.45 1.44m11.78 0-1.44-1.45m-8.89-8.89-1.45-1.45" paint-order="markers"/></g><g stroke-width="1.07"><path stroke-width=".54" d="M-89.2 5.06h11.83v11.83H-89.2z"/><path stroke-width=".26" d="M-87.51 6.57h8.92v8.92h-8.92Z"/><path stroke-width=".26" d="m-77.18 5.15-1.44 1.45m-8.89 8.89-1.45 1.44m11.78 0-1.44-1.44m-8.89-8.89-1.45-1.45" paint-order="markers"/></g><g stroke-width="1.07"><path stroke-width=".54" d="M11.02 5.1h11.83v11.83H11.02z"/><path stroke-width=".26" d="M12.47 6.64h8.93v8.92h-8.93z"/><path stroke-width=".26" d="m22.8 5.19-1.44 1.45m-8.89 8.89-1.45 1.45m11.78 0-1.44-1.45m-8.89-8.9L11.02 5.2" paint-order="markers"/></g></g><g transform="translate(16.62 .12)"><path fill="none" stroke="#000" stroke-width=".53" d="M9.97 16.8a1.9 1.9 0 0 1-1.9 1.9 1.9 1.9 0 0 1-1.89-1.9 1.9 1.9 0 0 1 1.9-1.88 1.9 1.9 0 0 1 1.89 1.89z" paint-order="markers"/><circle cx="8.07" cy="16.81" r="1.3" fill-rule="evenodd" paint-order="markers fill stroke" style="font-variation-settings:normal"/></g></svg>