<svg viewBox="0 0 127 127" xmlns="http://www.w3.org/2000/svg"><path d="M0 127h127c-7.27-17.57-30.47-26.06-46.74-30-1.45-2.03-2.51-5.36-.28-18.3 3.83-3.72 7-7.16 7.73-7.96l.2-.22.17-.9c.73-1.4 3.23-6.36 5.48-12.96l8.04-5.2-4.96-6.48c.43-2.43.72-4.9.83-7.36l7.3-9.3-10.7-7.42 7.18-10.54L81.14 10 76.9 0l-8.25 7.21c-1.8-.18-3.55-.3-5.2-.3L49.05 0l-4.07 12.28c-.22.15-.41.33-.62.49l-15.77-.34s4.93 18.3 4.23 19.34c-.7 1.03-13.05 10.01-13.05 10.01l15.07 14.88.01.01c1.6 4.8 3.9 9 6.75 12.1l.32 1.75.2.22c.74.8 3.9 4.24 7.73 7.95 1.9 11.02 1.42 15.07.3 17.32C32.84 99.45 4.47 107.81 0 127zm50.76-50.33-1.05-1.04c-2.12-2.1-4.14-4.21-5.82-6.05l-1.59-8.5c-.15-7.94.46-19.15 4.49-25.27 3.3-4.4 9.19-5.98 21.3-5.77 20.1.35 20.1 26.62 20.1 26.62h.11l-.25 1.59-2.12 11.33a180.11 180.11 0 0 1-7.94 8.12c-5.33 5.1-10.82 9.67-13.08 9.67s-7.75-4.56-13.07-9.67l-1.08-1.03zm-.18 22.44c.76-.94 1.53-1.89 2.05-3.57.75-2.47.94-6.54-.26-14.45 4.7 4.33 9.8 8.35 12.54 8.35 2.74 0 7.84-4.02 12.54-8.35-1.34 8.8-.94 12.85.04 15.26.5 1.24 1.17 2.05 1.83 2.86l.23.22c.55.36 1.06.74 1.5 1.13l.22.2c1.81 1.66 2.77 3.54 2.77 5.44 0 5.86-8.58 10.62-19.13 10.62-10.55 0-19.14-4.76-19.14-10.62 0-1.9.96-3.78 2.78-5.44l.24-.22c.47-.4.96-.77 1.47-1.11z"/></svg>