<svg viewBox="0 0 127 127" xmlns="http://www.w3.org/2000/svg"><path d="M80.26 95.9c-1.45-2.1-2.51-5.54-.28-18.96.9-.91 1.8-1.83 2.68-2.76-.3 3.2.04 9.16 6.65 10.32 0 0-1.6-2.14 1.38-6.7 0 0 11.7 6.7 16.73-4.57 0 0-14.82-4.83-11.9-20.4 0 0 1.58 5.1 6.6 4.3 0 0-7.67-9.4-7.14-24.96.53-15.57-2.2-33.82-30.07-31.94 0 0-34.48-5.1-34.48 33.01s-8.2 26.84-8.2 26.84 2.11 10.73 9 5.37c0 0 3.17 16.9-7.15 18.25 0 0 9.2 5.9 15.05 0 0 0 3.73.03 1.35 4.7-2.11 4.17 7.28.14 10.23-5.49.82 7.05.33 10.1-.57 11.97C32.84 98.45 4.47 107.11 0 127h127c-7.27-18.2-30.47-27-46.74-31.1Zm-29.4-20.97c-.02-.03-.02-.07-.03-.1l-.22-1.07c-3.09-14.07-12.1-42.31-2.2-44.28l1.07 3.49s22.49 6.71 27.78-4.02c4.65-9.45 12.44 25.7 8.2 39.08a186.04 186.04 0 0 1-6.4 6.8c-.35.37-.71.72-1.07 1.08-5.33 5.29-10.82 10.02-13.08 10.02-2.25 0-7.75-4.73-13.07-10.02l-.99-.98Zm14.05 41.51c-10.55 0-19.14-4.93-19.14-11 0-1.97.96-3.92 2.78-5.64l.24-.22c.44-.4.94-.8 1.48-1.16l.31-.33c.76-.97 1.53-1.95 2.05-3.7.75-2.55.94-6.77-.26-14.97 4.7 4.49 9.8 8.66 12.54 8.66 2.74 0 7.84-4.17 12.54-8.66-1.33 9.13-.94 13.32.04 15.82.5 1.28 1.17 2.12 1.83 2.96l.23.22c.55.38 1.05.77 1.5 1.18l.22.2c1.82 1.73 2.78 3.68 2.78 5.64 0 6.07-8.59 11-19.14 11z"/></svg>