<svg xmlns="http://www.w3.org/2000/svg" xml:space="preserve" viewBox="0 0 14.34 14.34"><path d="M7.17 0c-.34.04-.6.55-.8 1.13C5.11.67 5.14 2 5.15 2.1c.52-.35.94-.36 1.17.05v4.16H2.16c-.41-.23-.4-.65-.05-1.17-.11 0-1.44-.04-.98 1.22-.58.2-1.09.46-1.13.8.04.35.55.6 1.13.8C.67 9.24 2 9.2 2.1 9.2c-.35-.52-.36-.94.05-1.17h4.16v4.16c-.23.41-.65.4-1.17.06 0 .1-.04 1.44 1.22.98.2.58.46 1.08.8 1.12.35-.04.6-.54.8-1.12 1.27.46 1.23-.87 1.22-.98-.52.34-.94.35-1.17-.06V8.02h4.16c.41.23.4.65.06 1.17.1.01 1.44.05.98-1.22.58-.2 1.08-.45 1.12-.8-.04-.34-.54-.6-1.12-.8.46-1.26-.87-1.23-.98-1.22.34.52.35.94-.06 1.17H8.02V2.16c.23-.41.65-.4 1.17-.05.01-.11.05-1.44-1.22-.98C7.77.55 7.52.04 7.17 0z"/></svg>