<svg width="120" height="100" viewBox="0 0 31.75 26.458" xmlns="http://www.w3.org/2000/svg"><circle cx="17.773" cy="20.312" r=".265" fill="#222" stroke="#222" stroke-linejoin="round" stroke-width=".265"/><circle cx="7.697" cy="21.407" r=".265" fill="#222" stroke="#222" stroke-linejoin="round" stroke-width=".265"/><circle cx="1.71" cy="13.229" r=".265" fill="#222" stroke="#222" stroke-linejoin="round" stroke-width=".265"/><circle cx="17.773" cy="6.147" r=".265" fill="#222" stroke="#222" stroke-linejoin="round" stroke-width=".265"/><circle cx="7.697" cy="5.051" r=".265" fill="#222" stroke="#222" stroke-linejoin="round" stroke-width=".265"/><circle cx="30.04" cy="13.229" r=".265" fill="#222" stroke="#222" stroke-linejoin="round" stroke-width=".265"/><path d="M8.91 11.954v2.46h.504v-2.043h1.226v-.417Zm2.285 2.345c-.115 0-.174-.123-.174-.463 0-.341.06-.463.174-.463.119 0 .174.125.174.466 0 .334-.055.46-.174.46zm-.007.196c.267 0 .426-.211.426-.667 0-.46-.16-.648-.426-.648-.263 0-.419.189-.419.652s.156.663.419.663z" fill="#222" aria-label="Γ₀"/><path d="M19.557 11.462v2.46h.504v-2.043h1.226v-.416Zm2.33 2.496v-1.23h-.197c-.014.145-.085.215-.296.215v.167h.252v.848z" fill="#222" aria-label="Γ₁"/><g fill="none" stroke="#222" stroke-width=".265"><path d="m.332 12.549-.119.68.68-.119"/><path d="M8.013 3.87 2.31 5.397 3.523 9.92l-3.31 3.31" stroke-linejoin="bevel"/></g><path d="M7.697 5.05 3.608 6.147l1.096 4.09L1.71 13.23l2.994 2.993-1.096 4.09 4.089 1.095 2.993-2.993 2.994 2.993 8.178-2.19 1.095-4.09 4.09 1.096 2.993-2.993-2.993-2.994-4.09 1.095-1.095-4.089-8.178-2.191-2.994 2.993z" fill="none" stroke="#222" stroke-linejoin="bevel" stroke-width=".265"/><path d="m10.69 8.044 2.994 2.993-1.096 4.09 4.09 1.095 1.095 4.09" fill="none" stroke="#222" stroke-dasharray="0.264583, 0.793749" stroke-dashoffset=".132" stroke-linecap="square" stroke-width=".265"/></svg>