<svg width="100" height="100" viewBox="0 0 26.458 26.458" xmlns="http://www.w3.org/2000/svg"><circle cx="4.98" cy="16.404" r=".265" fill="#222" stroke="#222" stroke-linejoin="round" stroke-width=".265"/><circle cx="7.73" cy="21.167" r=".265" fill="#222" stroke="#222" stroke-linejoin="round" stroke-width=".265"/><circle cx="21.478" cy="19.579" r=".265" fill="#222" stroke="#222" stroke-linejoin="round" stroke-width=".265"/><circle cx="21.478" cy="6.879" r=".265" fill="#222" stroke="#222" stroke-linejoin="round" stroke-width=".265"/><circle cx="13.229" cy="5.292" r=".265" fill="#222" stroke="#222" stroke-linejoin="round" stroke-width=".265"/><circle cx="7.73" cy="11.642" r=".265" fill="#222" stroke="#222" stroke-linejoin="round" stroke-width=".265"/><path d="M8.441 18.87v-1.758H7.019v1.757h.36v-1.457h.699v1.458zm1.422-6.52v1.757h.359v-1.458h.876v-.299Zm5.911.871-.481.582v.304h1.373v-.304h-.945l.474-.587-.47-.567h.904v-.298H15.29v.28zm-1.708 5.649-.62-1.757h-.425l-.627 1.757zm-.839-1.363h.003l.338 1.061h-.687zm.177-8.162v-.246c.471-.04.73-.254.73-.63 0-.375-.261-.603-.73-.648v-.233h-.346v.233c-.474.042-.736.273-.736.648 0 .373.26.588.736.627v.25zm-.74-.878c0-.241.153-.373.394-.413v.818c-.233-.038-.394-.157-.394-.405zm1.13.002c0 .249-.162.365-.39.402v-.817c.239.042.39.175.39.415zm5.515.109v-.304H18.15v.304zm.074-.69v-.3h-1.307v.3zm.04 1.457v-.304h-1.39v.304zm-.703 9.275c-.307 0-.5-.188-.5-.61 0-.414.185-.639.51-.639.326 0 .506.228.506.63 0 .447-.222.62-.516.62zm.016.31c.532 0 .831-.312.831-.916 0-.603-.296-.96-.836-.96s-.841.357-.841.952c0 .593.298.924.846.924zm-.365-.828h.717v-.268h-.717z" fill="#222"/><path d="M10.48 19.58v-3.175m2.749-1.588-2.75 1.588M7.73 14.817l2.75 1.588m2.75-1.588v-3.175m2.749-1.587-2.75 1.587m-2.749-1.587 2.75 1.587m2.749 7.938v-3.175m2.75-1.588-2.75 1.588m-2.749-1.588 2.749 1.588m0-6.35V6.88m0 3.175 2.75 1.587" fill="none" stroke="#222" stroke-dasharray="0.26458, 0.79374" stroke-dashoffset=".132" stroke-linecap="square" stroke-width=".265"/><path d="m8.815 11.474-.29.626.687.062m1.268-1.191-1.956 1.13m8.54 4.135-.29.626.687.062m1.268-1.191-1.956 1.13m-3.147-3.07.397.565.397-.565m-.397-1.693v2.259m2.353-5.327.397.564.397-.564m-.397-1.694v2.259m-4.232 1.19.688-.062-.29-.626m-1.666-.503 1.956 1.13m-3.146 6.702-.397-.565-.397.565m.397 1.693v-2.259m4.231-1.19-.688.061.29.626m1.666.503-1.956-1.13" fill="none" stroke="#222" stroke-width=".265"/><g fill="none" stroke="#222" stroke-width=".265"><path d="m7.333 11.748-.397-.564-.397.564"/><path d="m4.186 15.946 2.75-1.588v-3.174" stroke-linejoin="bevel"/></g><path d="m13.229 21.167 2.75-1.587 2.75 1.587 2.75-1.587v-3.175l-2.75-1.588v-3.175l2.75-1.587V6.88l-2.75-1.588-2.75 1.588-2.75-1.588-2.75 1.588.001 3.175-2.75 1.587v3.175l-2.75 1.588v3.175l2.75 1.587 2.75-1.587z" fill="none" stroke="#222" stroke-linejoin="bevel" stroke-width=".265"/></svg>