<svg width="100" height="100" viewBox="0 0 26.458 26.458" xmlns="http://www.w3.org/2000/svg"><circle cx="11.197" cy="21.407" r=".265" fill="#222" stroke="#222" stroke-linejoin="round" stroke-width=".265"/><circle cx="17.184" cy="21.407" r=".265" fill="#222" stroke="#222" stroke-linejoin="round" stroke-width=".265"/><circle cx="21.273" cy="20.312" r=".265" fill="#222" stroke="#222" stroke-linejoin="round" stroke-width=".265"/><circle cx="17.184" cy="11.038" r=".265" fill="#222" stroke="#222" stroke-linejoin="round" stroke-width=".265"/><circle cx="11.197" cy="5.051" r=".265" fill="#222" stroke="#222" stroke-linejoin="round" stroke-width=".265"/><circle cx="5.21" cy="13.229" r=".265" fill="#222" stroke="#222" stroke-linejoin="round" stroke-width=".265"/><path d="M14.042 13.385v-.426H12.42v.426Zm.104-.967v-.419h-1.83v.419Zm.055 2.04v-.425h-1.944v.426Z" fill="#222"/><path d="m7.108 20.312 4.09 1.095 2.992-2.993 2.994 2.993 4.089-1.095-1.095-4.09-4.09-1.095 1.096-4.09-5.987-5.986-4.089 1.095 1.096 4.09-2.993 2.993 2.993 2.994z" fill="none" stroke="#222" stroke-linejoin="bevel" stroke-width=".265"/><g fill="none" stroke="#222" stroke-width=".265"><path d="m3.832 12.55-.118.68.68-.12"/><path d="M11.513 3.871 5.812 5.398l1.21 4.521-3.309 3.31" stroke-linejoin="bevel"/></g></svg>