<svg xmlns="http://www.w3.org/2000/svg" viewBox="0 0 300 200"><path fill="none" stroke="#000" stroke-width="2" d="M2 2h275v180H2z"/><path fill="none" stroke="#000" stroke-dasharray="15,10,4,10" stroke-width="3" d="M20 30h110"/><path fill="none" stroke="#000" stroke-width="3" d="M20 70h110"/><path fill="none" stroke="#000" stroke-dasharray="3" stroke-width="3" d="M20 110h110"/><path fill="none" stroke="#000" stroke-dasharray="8" stroke-width="8" d="M20 150h110"/><path d="M151.58 34.7q-.05.16-.16.26-.1.09-.25.14-.14.05-.3.07l-.3.02q-.22 0-.43-.02l-.42-.07q-.11-.02-.28-.02-.17-.01-.33-.04-.17-.03-.29-.1-.1-.09-.1-.25 0-.2.07-.27.07-.1.18-.12.12-.04.25-.05.13 0 .25-.04.1-.05.18-.14.08-.1.08-.3 0-.14-.03-.27l-.05-.26-.06-.27q-.03-.13-.03-.27 0-.09.06-.18.06-.1.06-.23 0-.24-.04-.44t-.12-.42q-.05-.14-.05-.26 0-.11.04-.22.05-.1.05-.22 0-.16-.05-.3-.05-.15-.05-.3 0-.22.04-.42.05-.2.05-.4 0-.15-.03-.32-.03-.18-.08-.35l-.1-.34-.1-.3q-.15.06-.24.17-.1.1-.15.24-.06.13-.1.28l-.05.3q-.05.29-.16.56-.1.28-.15.57-.06.36-.08.71 0 .36-.03.7-.02.35-.08.7-.06.34-.22.68-.06.13-.08.24l-.01.23v.21l.01.22q0 .23-.05.35-.04.12-.1.19l-.12.15q-.06.07-.1.2-.02.13-.12.2-.1.06-.23.1l-.27.07q-.14.02-.23.07-.08-.18-.2-.33-.11-.15-.2-.31-.11-.17-.14-.37-.03-.2-.1-.39-.02-.09-.07-.15l-.07-.14-.06-.15q-.02-.07-.02-.18v-.3q0-.18-.05-.39-.12-.38-.21-.74-.09-.37-.13-.77l-.06-.74q-.02-.38-.15-.73-.07-.17-.16-.33-.1-.16-.15-.33l-.03-.12q0-.08-.03-.17l-.05-.16q-.02-.07-.05-.08-.04.03-.05.09l-.08.19-.06.09-.06.06-.1.14q-.07.08-.07.18 0 .17.08.34.07.15.07.32 0 .09-.03.18-.03.08-.03.16 0 .22.06.44.07.2.07.42 0 .17-.05.34-.05.16-.05.33 0 .18.03.36.05.17.05.35 0 .15-.03.29l-.07.28-.06.28q-.03.14-.03.3 0 .3.12.43.12.12.28.2l.36.13q.18.06.3.23-.06.1-.1.24-.03.13-.1.24-.06.1-.13.14-.06.04-.12.05l-.14.02q-.07.01-.15.06-.09.04-.12.09l-.06.06q-.03.04-.1.05-.05.03-.17.03-.12 0-.25-.03t-.25-.03q-.14 0-.27.03-.12.05-.26.05-.16 0-.31-.06-.16-.05-.29-.15-.12-.1-.2-.24-.07-.14-.07-.31 0-.26.1-.4.1-.13.26-.2.17-.08.35-.14.2-.06.36-.15.03-.12.04-.25v-.27l-.01-.43-.02-.44q0-.14.03-.27.03-.15.03-.3l-.02-.14q-.1-.27-.14-.53-.02-.25-.02-.55 0-.13.03-.25l.08-.24.07-.24q.04-.12.04-.25 0-.23-.03-.45-.03-.23-.03-.46 0-.15.03-.29.03-.14.03-.3 0-.14-.06-.28t-.06-.29q0-.1.05-.18.06-.09.06-.2 0-.05-.06-.11t-.06-.2v-.22l.02-.22q0-.23-.07-.36-.08-.13-.19-.2-.1-.07-.23-.1l-.24-.06-.18-.08q-.07-.05-.07-.15 0-.1.1-.2.11-.1.28-.2.16-.1.36-.19l.35-.17.28-.13.14-.07q.03.05.08.07l.11.03h.13l.11.01q.08.02.11.06l.07.07.1.08q.06.04.18.07.28.07.42.21.15.14.15.45l-.01.17q-.02.07-.02.15l.19.54.04.17.05.16q.08.07.13.2.04.14.06.3l.03.3q0 .14.02.25.02.17.07.34.06.15.06.33 0 .1-.03.2t-.03.22q0 .2.05.38l.12.38.12.36q.06.2.06.39l.02.27.05.42.08.47.12.44q.08.2.17.33.1.13.2.13.14 0 .18-.07.04-.09.05-.2l.02-.2q.01-.1.1-.15.08-.05.13-.17.06-.14.1-.3l.05-.3.03-.25q.02-.39.02-.8l.02-.82q.01-.42.06-.82.06-.4.18-.77l.06-.12.07-.1.06-.11q.03-.06.03-.13 0-.05-.02-.08l-.05-.06-.05-.04q-.02-.02-.02-.05 0-.04.02-.06l.05-.04q.1-.12.12-.33.03-.22.04-.46 0-.24.02-.47.01-.24.1-.4.08.03.16.03.1 0 .2-.04l.2-.09.19-.08q.1-.05.21-.05l.09.01h.08q.15 0 .27-.07.12-.06.25-.06.05 0 .07.02l.03.04.03.05q.02.02.05.02.12 0 .25-.03t.26-.03q.08 0 .14.02.05.02.1.1.06.08.17.11l.2.06q.1.02.18.07.09.05.09.17 0 .27-.13.36-.13.1-.3.14l-.33.06q-.16.02-.22.14-.08.13-.1.28 0 .15-.07.29l-.04.11-.01.11q0 .12.03.23l.07.23.08.22q.04.1.05.22.05.4.05.8 0 .25-.03.49l-.06.47-.06.48-.02.47q0 .18-.11.29v.17l.02.44.07.43.07.43q.03.21.03.43 0 .3-.09.58-.08.28-.08.57 0 .22.1.35.08.12.32.12h.21l.22-.02.21.02q.12.02.2.1v.1l.02.12v.09q0 .03-.04.01zm-6.92-7.37q0-.15-.04-.29-.04-.15-.17-.22v.27l.02.24q.04.12.19.12v-.12zm5.84 6.93q0-.04-.06-.07-.06-.03-.1-.03h-.07l-.08.03-.06.03q-.03.03-.03.06 0 .04.06.05l.11.01.13-.01q.1-.02.1-.07zm-3.28-1.05h-.12q-.12 0-.22.05-.1.04-.1.2v.07l.06.01h.06q.13 0 .23-.04.1-.06.1-.2zm10.13-7.36q0 .22-.07.45t-.2.42q-.14.19-.33.31-.2.12-.42.12-.16 0-.4-.04-.22-.05-.44-.14-.21-.1-.37-.25-.15-.15-.15-.35 0-.18.04-.37.04-.2.05-.39.08-.03.15-.13l.14-.2.15-.18q.07-.09.15-.1l-.04.02.22-.07q.12-.03.23-.03.16 0 .38.08.22.07.43.2.2.13.34.3.14.17.14.35zm3.62 9.1q0 .13-.05.25-.05.1-.14.19-.08.09-.19.14-.11.05-.25.05l-.06-.01-.06-.05q-.1-.12-.25-.14l-.31-.04q-.16-.01-.31-.08-.14-.06-.23-.25-.06-.13-.13-.17-.07-.03-.21-.03-.33 0-.63.1t-.59.24q-.3.13-.6.23t-.62.1q-.18 0-.36-.03-.17-.03-.33-.1l-.1.05-.1.01h-.1l-.09-.01-.08.02-.09.04.05.07q-.05.07-.2.13-.16.07-.35.11l-.35.08q-.17.03-.26.03-.24 0-.4-.09-.15-.07-.3-.27l-.13-.15-.15-.15q-.07-.08-.12-.17-.05-.09-.05-.18 0-.12.12-.2.12-.07.29-.11.16-.05.33-.07l.25-.02q.18 0 .36.05t.36.05q.16 0 .31-.05.15-.04.32-.04.14 0 .27.02l.29.01q.18 0 .34-.06.17-.06.32-.17.06-.36.09-.73t.03-.74q0-.37-.06-.73-.06-.37-.06-.73l.01-.03h.03l.04-.02.01-.06q0-.16-.04-.3-.05-.16-.05-.32 0-.19.06-.38.05-.18.05-.38 0-.13-.06-.27-.06-.13-.16-.24-.1-.1-.22-.16-.13-.07-.27-.07-.16 0-.32.04l-.31.09-.34.08q-.16.04-.35.04-.22 0-.43-.03l-.42-.07-.24-.03q-.13-.01-.25-.05t-.2-.11q-.08-.08-.08-.22 0-.26.09-.4.1-.14.23-.2.14-.07.31-.09l.33-.03.56-.04.57-.02q.35 0 .7.05.33.03.69.03.24 0 .47.08.22.07.39.23.17.15.27.38t.1.54q0 .2-.1.4-.08.18-.21.33.05.1.1.14l.1.06q.04.02.07.07.03.03.03.14l.02.15q.02.07.1.08v.8l-.01.79v.67q0 .33.06.67.03.21.12.32.09.12.32.12.34 0 .67-.07.33-.08.66-.08.2 0 .37.1.18.1.33.21l.32.2q.15.1.28.1.06 0 .1.05.04.04.05.1.03.05.03.11v.1zm8.68-5.17q0 .15-.06.25l-.14.2-.14.2q-.06.09-.09.22-.06-.03-.14-.03l-.14-.01q-.18 0-.36.03l-.34.02q-.2 0-.34-.12-.13-.12-.21-.3-.08-.18-.1-.39-.04-.2-.04-.37 0-.2.07-.43l-.1-.02q-.1 0-.14.06-.04.06-.12.06-.06 0-.12-.04-.05-.06-.12-.06-.12 0-.29.08-.16.07-.32.18-.16.11-.28.24-.1.13-.1.25-.17.02-.3.1-.14.06-.27.14-.1.06-.16.19l-.13.27-.11.3q-.06.15-.13.24-.13.17-.23.34-.09.16-.09.37 0 .27.09.54.08.26.08.54 0 .18-.03.36l-.02.35q0 .21.07.34.08.13.2.2.13.07.3.09.16.02.33.02h.36l.33-.02q.05.06.06.11v.11l-.04.12-.01.12.01.08q.12 0 .2-.05.08-.06.12-.17l.09.05q.04.03.04.09l-.02.09-.05.07-.05.08q-.03.04-.03.1l.01.06q0 .03.02.05-.04.06-.1.09l-.14.02q-.12 0-.2-.04l-.14-.08-.11-.08q-.06-.04-.13-.04l-.1.01-.11.04q-.06.02-.1.06-.05.03-.05.06 0 .06.04.1.04.05.04.11 0 .05-.04.08-.03.03-.08.04l-.12.01-.09.01q-.29 0-.58-.07-.28-.06-.58-.06-.13 0-.27.06-.13.06-.28.06-.08 0-.13-.03l-.06-.08-.07-.08q-.04-.03-.11-.03-.15 0-.29.03l-.27.06-.28.06q-.14.03-.28.03l-.18-.02-.2-.06q-.1-.05-.16-.11-.07-.07-.07-.17 0-.06.07-.16t.16-.18q.09-.1.18-.17t.13-.07l.24.01h.24q.2 0 .4-.05.22-.07.38-.19.17-.12.28-.3.1-.18.1-.4l-.01-.19-.02-.2q0-.19.05-.38.04-.2.04-.39 0-.26-.06-.53-.05-.28-.05-.55v-.5l.02-.48V30q-.01-.22-.06-.44-.03-.21-.12-.38-.09-.16-.24-.16-.16 0-.33.03-.16.04-.33.04l-.3-.01q-.17-.03-.33-.08-.16-.06-.27-.16-.11-.1-.11-.28 0-.19.05-.3.05-.12.14-.18.08-.06.2-.08.12-.02.25-.02h.25l.25.01.47-.02q.24-.03.48-.03l.32.01q.17.02.33.07.14.05.2.17l.13.25q.05.13.13.23.07.1.24.1.07 0 .13-.04.07-.04.13-.1l.12-.1q.06-.04.14-.05.17-.02.3-.1l.28-.17.27-.15q.14-.07.3-.07l.24-.02.3-.06.27-.1q.14-.07.21-.14.2.01.47.1.28.08.53.22t.44.32q.19.19.22.42.02.14.08.27l.12.26.12.25q.05.13.05.27zm8.87 0q0 .15-.06.25l-.13.2-.15.2q-.06.09-.09.22-.06-.03-.14-.03l-.14-.01q-.18 0-.36.03l-.34.02q-.2 0-.34-.12-.13-.12-.2-.3-.08-.18-.11-.39-.03-.2-.03-.37 0-.2.06-.43l-.1-.02q-.1 0-.14.06-.04.06-.12.06-.06 0-.11-.04-.06-.06-.13-.06-.11 0-.29.08-.16.07-.32.18-.16.11-.27.24-.12.13-.12.25-.15.02-.3.1l-.26.14q-.1.06-.16.19l-.13.27-.11.3q-.05.15-.13.24-.13.17-.22.34-.1.16-.1.37 0 .27.09.54.08.26.08.54 0 .18-.03.36l-.02.35q0 .21.07.34.08.13.2.2.13.07.3.09.16.02.33.02h.36l.33-.02q.05.06.06.11v.11l-.03.12q-.02.05-.02.12l.02.08q.1 0 .19-.05.08-.06.12-.17l.09.05q.04.03.04.09l-.02.09-.05.07-.05.08q-.03.04-.03.1l.01.06q0 .03.02.05-.03.06-.1.09l-.14.02q-.12 0-.2-.04l-.14-.08-.11-.08q-.05-.04-.13-.04l-.09.01-.12.04q-.06.02-.1.06-.05.03-.05.06 0 .06.04.1.04.05.04.11 0 .05-.03.08-.04.03-.1.04l-.1.01-.1.01q-.29 0-.58-.07-.28-.06-.57-.06-.14 0-.27.06-.14.06-.29.06-.08 0-.13-.03l-.06-.08-.07-.08q-.04-.03-.11-.03-.14 0-.29.03l-.27.06-.28.06q-.13.03-.28.03l-.18-.02-.2-.06q-.1-.05-.16-.11-.07-.07-.07-.17 0-.06.07-.16t.16-.18l.18-.17q.1-.07.14-.07l.23.01h.24q.2 0 .4-.05.22-.07.38-.19.17-.12.28-.3.1-.18.1-.4l-.01-.19-.02-.2q0-.19.05-.38.04-.2.04-.39 0-.26-.06-.53-.05-.28-.05-.55v-.5l.02-.48V30q-.01-.22-.06-.44-.03-.21-.12-.38-.09-.16-.23-.16-.17 0-.33.03-.17.04-.34.04l-.3-.01q-.17-.03-.33-.08-.16-.06-.27-.16-.11-.1-.11-.28 0-.19.05-.3.05-.12.14-.18.09-.06.2-.08.12-.02.25-.02h.25l.25.01q.24 0 .47-.02.24-.03.48-.03l.33.01q.16.02.32.07.14.05.2.17l.13.25q.06.13.13.23.08.1.24.1.08 0 .14-.04l.12-.1.12-.1q.06-.04.14-.05.17-.02.3-.1l.28-.17.27-.15q.14-.07.3-.07l.25-.02q.15-.02.29-.06l.27-.1q.14-.07.21-.14.2.01.48.1.27.08.52.22t.44.32q.19.19.22.42.02.14.08.27l.12.26q.07.12.12.25.05.13.05.27zm8.53 2.18q0 .1-.04.2-.03.1-.07.16l-.08.11-.03.06q0 .07.05.15.05.09.05.18 0 .05-.04.06-.03.02-.07.02-.06 0-.1-.02l.01.28q.03.14.03.28 0 .21-.05.28-.04.06-.08.08l-.09.03q-.04.02-.04.14 0 .07-.1.17-.08.1-.22.21-.13.1-.27.18-.13.07-.22.07l-.05-.01v.13l.02.12q0 .1-.06.14l-.14.06q-.11.05-.23.16l-.25.2q-.12.1-.26.18-.13.08-.27.08-.12 0-.22-.06t-.23-.06q-.12 0-.2.03l-.16.07q-.07.05-.15.08-.07.04-.17.04-.2 0-.39-.1l-.37-.17-.23-.06-.23-.03-.21-.08q-.1-.04-.18-.13-.15-.2-.36-.32-.21-.13-.43-.24l-.42-.24q-.2-.12-.35-.32l-.25-.34q-.15-.19-.27-.39-.12-.2-.2-.41-.09-.21-.09-.41 0-.15.03-.3l.06-.28.07-.3q.03-.13.03-.28v-.08l-.02-.07-.06-.07q-.02-.04-.05-.06l-.03-.03h-.01q0-.06.04-.2l.08-.28.09-.27q.04-.12.08-.16l.08-.08q.05-.04.05-.1l-.01-.14v-.13q0-.09.02-.1.02-.03.05-.03h.08q.04-.02.07-.09l.13-.24.14-.22q.08-.1.18-.18.1-.08.24-.16l.23-.16.24-.2q.12-.1.24-.16.12-.07.27-.07.2 0 .38-.07.2-.07.4-.1l.6-.1q.3-.04.62-.04.17 0 .42.06.25.06.5.15.26.09.49.2.23.11.36.22v.03q0 .1-.03.21-.04.1-.04.21v.03l.01.02q.13 0 .24-.03.12-.04.25-.04.01.13.11.17l.2.08q.09.05.16.17.08.11.15.26l.13.28q.06.15.12.24t.1.21q.06.12.1.26.03.13.04.27l.02.24q0 .15-.06.25-.05.1-.12.18l-.13.15q-.05.07-.05.16l.02.1.06.08.06-.02q.05 0 .05-.04v-.01q0-.06-.05-.11-.04-.06-.04-.13l.01-.05q.02-.03.04-.03.04 0 .09.06l.08.12.07.1q.02.05.02.03v.11zm-.75.06q0-.12-.09-.14-.09-.03-.2-.04l-.23-.02q-.1-.01-.14-.11v-.08q0-.16-.04-.38l-.1-.45-.13-.44-.12-.4-.1-.28-.04-.1-.1.01q-.12 0-.22-.05l-.21-.11q-.11-.06-.28-.11-.17-.06-.45-.06-.3 0-.6-.03-.3-.05-.6-.05-.43 0-.8.2-.36.18-.64.5-.27.3-.43.7-.16.38-.16.78l.01.39q0 .21.04.44.03.21.1.4.06.2.18.3v.2q.03.03.08.04h.1q.05 0 .08.02.04 0 .06.06.1.27.26.42.15.14.33.25l.36.2q.18.1.33.3.06-.02.13-.02h.13q.24 0 .46.03.23.03.46.03.25 0 .45-.12.2-.13.34-.32l.16-.22.15-.17.18-.15.22-.16.1-.07.13-.1.11-.11q.05-.06.05-.12l-.02-.13-.02-.14.02-.18.07-.2q.05-.1.12-.15.08-.07.18-.07.08 0 .17.04.08.03.15.09l.01-.12zm10.03-2.24q0 .15-.06.25l-.13.2-.14.2q-.07.09-.1.22-.06-.03-.14-.03l-.14-.01q-.18 0-.36.03l-.34.02q-.2 0-.34-.12-.13-.12-.2-.3-.08-.18-.11-.39-.03-.2-.03-.37 0-.2.06-.43l-.1-.02q-.1 0-.14.06-.04.06-.11.06t-.12-.04q-.06-.06-.13-.06-.11 0-.29.08-.16.07-.32.18-.15.11-.27.24-.12.13-.12.25-.15.02-.3.1l-.26.14q-.1.06-.16.19l-.13.27-.11.3q-.05.15-.13.24-.13.17-.22.34-.1.16-.1.37 0 .27.09.54.08.26.08.54 0 .18-.03.36l-.02.35q0 .21.07.34.08.13.2.2.13.07.3.09.16.02.34.02h.35l.33-.02q.06.06.06.11v.11l-.03.12q-.02.05-.02.12l.02.08q.1 0 .2-.05.07-.06.11-.17l.09.05q.05.03.05.09 0 .04-.03.09l-.05.07-.05.08q-.02.04-.02.1v.06l.02.05q-.03.06-.1.09l-.13.02q-.12 0-.2-.04l-.15-.08-.11-.08q-.05-.04-.13-.04l-.09.01-.12.04q-.06.02-.1.06-.05.03-.05.06 0 .06.04.1.05.05.05.11 0 .05-.04.08t-.1.04l-.1.01-.1.01q-.29 0-.58-.07-.28-.06-.57-.06-.14 0-.27.06-.14.06-.29.06-.08 0-.12-.03-.04-.03-.07-.08l-.07-.08q-.04-.03-.11-.03-.14 0-.29.03l-.27.06-.28.06q-.13.03-.28.03l-.18-.02-.2-.06q-.1-.05-.16-.11-.07-.07-.07-.17 0-.06.07-.16t.16-.18l.18-.17q.1-.07.14-.07l.23.01h.25q.2 0 .4-.05.2-.07.37-.19.18-.12.28-.3.1-.18.1-.4l-.01-.19-.01-.2q0-.19.04-.38.05-.2.05-.39 0-.26-.06-.53-.06-.28-.06-.55l.01-.5.01-.48V30q0-.22-.05-.44-.04-.21-.13-.38-.08-.16-.23-.16-.17 0-.33.03-.17.04-.34.04l-.3-.01q-.17-.03-.33-.08-.15-.06-.27-.16-.1-.1-.1-.28 0-.19.04-.3.06-.12.14-.18.09-.06.2-.08.12-.02.25-.02h.25l.25.01q.24 0 .47-.02.24-.03.48-.03l.33.01q.16.02.32.07.14.05.2.17.08.12.13.25.06.13.13.23.08.1.24.1.08 0 .14-.04l.12-.1.12-.1q.06-.04.15-.05.16-.02.3-.1l.27-.17.27-.15q.14-.07.3-.07l.25-.02q.15-.02.29-.06l.28-.1q.13-.07.2-.14.2.01.48.1.27.08.52.22t.44.32q.19.19.22.42.02.14.08.27l.12.26q.07.12.12.25.05.13.05.27zm7.89 3.9q0 .2-.07.34-.06.14-.17.26l-.23.2-.26.21q-.1.1-.19.14l-.16.07-.17.06-.19.09q-.15.07-.25.14l-.2.11q-.1.05-.22.08-.12.04-.3.06l-.6.1q-.3.04-.6.04-.07 0-.13-.03l-.15-.05-.18-.05q-.1-.02-.24-.02-.15 0-.24-.05-.1-.04-.17-.1l-.14-.13q-.07-.07-.2-.13-.44-.2-.76-.48-.31-.29-.53-.64-.23-.35-.38-.76-.15-.41-.25-.86-.09-.32-.09-.63 0-.41.2-.76-.08-.21-.08-.4 0-.15.09-.43.08-.28.2-.56.14-.29.3-.51.15-.24.28-.29l.14-.06q.05-.03.05-.15 0-.09.07-.15t.17-.1l.2-.06.17-.06q.28-.14.53-.23.25-.1.5-.15.25-.07.52-.1t.58-.03q.16 0 .32.04.16.05.3.12.15.07.29.16l.28.17h-.01q.11.01.2.06.11.05.23.06.1.13.27.25.17.11.32.24.17.13.28.28.12.14.12.33v.06l-.01.06.03-.03q.03.02.05.07l.05.12.04.13.02.1q.06.1.16.15.1.06.16.17-.07.07-.07.19 0 .13.05.25t.05.25l-.01.3q-.02.13-.02.28 0 .11-.09.17-.08.06-.18.1l-.18.1q-.09.04-.09.12 0 .06-.07.06h-.11q-.33 0-.66-.09-.32-.08-.64-.08-.36 0-.7.05-.34.05-.7.05l-.52-.02-.52-.01-.25.03-.4.06q-.2.04-.39.1-.18.05-.26.1v.11q0 .35.2.73.2.37.54.68.34.3.76.5t.84.2q.25 0 .5.03.24.01.47.1.2-.1.37-.22l.33-.27.3-.3.3-.29q.04-.03.15-.05l.26-.05.25-.03.17-.01q.17 0 .32.05.05.17.05.34zm-1.13-3.04q0-.11-.03-.22-.04-.1-.06-.21-.04-.21-.04-.4 0-.21-.06-.41 0 .04-.04.09-.03.03-.08.03-.09 0-.17-.04-.08-.04-.14-.11l-.52-.24q-.22-.11-.46-.2-.22-.09-.48-.13-.26-.05-.6-.05h-.05q-.03 0-.05.03l.04.08-.06.01-.34.08q-.12.03-.23.09-.1.06-.2.15l-.26.22q-.08.06-.17.1l-.17.06-.16.05q-.08.03-.13.1-.05.19-.16.37-.1.17-.1.36 0 .11.1.2.1.09.23.15.15.06.33.1.18.05.35.07l.31.04h.23q.29 0 .56-.05.28-.06.57-.06.29 0 .58.03l.58.02h.23q.15-.01.29-.04.15-.04.25-.1.12-.07.12-.17zm10.93 4.28q0 .1-.06.2-.04.09-.15.09l-.15-.01q-.07-.03-.15-.03-.12 0-.13.05l-.01.1q-.02.05-.12.1-.09.04-.39.04-.17 0-.34-.03-.16-.03-.34-.03-.12 0-.27.04-.06-.07-.14-.11l-.13-.08q-.06-.04-.1-.1-.05-.06-.05-.18 0-.08-.1-.08h-.08l-.07.01-.07-.01q-.02-.02-.02-.06v-.02q-.15 0-.23.1l-.18.2q-.07.07-.14.1l-.16.06-.16.07q-.09.03-.17.11-.07.07-.22.1l-.34.05-.34.02h-.27q-.22 0-.36-.03-.14-.04-.25-.1l-.22-.12q-.12-.06-.31-.11-.2-.06-.49-.23-.28-.16-.54-.38t-.44-.46q-.18-.26-.18-.5 0-.1-.05-.2-.04-.11-.12-.21l-.14-.2q-.08-.1-.12-.2-.14-.28-.19-.6-.03-.3-.03-.62 0-.3.04-.56.04-.27.11-.52l.14-.52.13-.53q.04-.2.1-.29.07-.1.16-.18l.18-.14q.1-.07.21-.2.05-.05.05-.09l.03-.06q.01-.03.04-.04l.14-.01q.06 0 .09-.04l.06-.1.06-.1q.03-.06.07-.09.05-.03.11-.04.07-.02.15-.02l.14-.02q.07 0 .13-.03l.26-.12.2-.09.2-.07q.13-.02.32-.02.26 0 .5.07l.5.13.5.15q.24.06.5.06.22 0 .34-.1.12-.08.18-.23.07-.14.09-.31l.02-.34q0-.29-.04-.57-.04-.3-.05-.58l-.07.03q-.07 0-.13-.04l-.12-.09-.1-.09q-.07-.04-.14-.04-.09 0-.1.04l-.08.08-.17.01h-.5q-.1 0-.24-.06-.12-.06-.24-.16t-.2-.22q-.08-.12-.08-.23 0-.1.06-.2.07-.11.16-.2.1-.1.2-.15.12-.05.22-.05t.18.05q.08.04.18.04.17 0 .32-.05t.32-.05q.18 0 .33.06.15.05.33.05h.25l.26-.02q.14 0 .27.03.14.02.26.09v.04l.02.21.06.2.06.2q.03.1.03.2 0 .13-.06.26-.06.12-.06.26 0 .27.06.53.06.25.06.51l-.01 1.32v1.32q0 .67-.05 1.34-.05.65-.05 1.33 0 .24.03.56.02.3.11.58.1.27.29.46.2.18.53.18h.13q.06-.02.13-.02.1 0 .17.05.08.06.13.14.05.08.08.18.03.1.03.18zm-2.72-3.71q0-.28-.05-.6-.05-.3-.17-.58-.12-.27-.34-.46-.21-.19-.53-.2-.07-.01-.17-.06l-.18-.11-.2-.1q-.09-.06-.16-.06t-.13.03l-.12.06-.12.06q-.06.02-.13.02l-.25-.01q-.11-.02-.24-.02-.37 0-.68.23-.3.22-.52.56-.21.33-.33.71-.12.39-.12.7l.01.28q.02.13.02.27 0 .09-.05.15-.04.05-.11.1l-.11.13q-.05.06-.05.15h.06q.2 0 .3.07.11.07.17.19.06.11.09.26l.08.3q.04.16.13.3.09.14.25.25l.26.18.3.18q.17.09.33.14.16.06.31.06.24 0 .48-.07.23-.07.47-.07l.2.02q.16-.27.39-.51.23-.25.56-.35v-.16q0-.25.04-.48l.13-.48q.07-.25.12-.51.06-.27.06-.57z" aria-label="Mirrored"/><path d="M149.71 71.34q0 .38-.05.75-.05.36-.07.74-.05-.05-.12-.08-.06-.04-.13-.04-.08 0-.15.06-.08.05-.08.13 0 .09.08.12.1.03.18.03h.1q0 .08-.04.18l-.12.18-.15.17-.14.14-.1.12-.11.17-.13.13q-.07.05-.14.05t-.12-.03q-.04-.05-.1-.05-.08 0-.1.1-.02.07-.02.16v.09q0 .03-.16.1l-.38.13-.46.14q-.23.07-.38.14-.31.12-.63.2-.3.09-.65.09-.24 0-.47-.07l-.46-.13q-.23-.09-.46-.15-.22-.06-.47-.06-.1 0-.25.03-.16.03-.24.09-.04.03-.08.1-.03.08-.09.08l-.1-.03-.1-.04q-.17-.1-.3-.23-.11-.15-.2-.33-.08-.17-.11-.36-.04-.19-.04-.37 0-.13.02-.25.03-.12.03-.25 0-.18-.04-.35-.04-.17-.04-.35 0-.13.04-.26t.04-.25q0-.1-.04-.18-.05-.1-.05-.19 0-.07.05-.11.05-.05.05-.1v-.19l-.01-.17V71q0-.1.02-.17.01-.09.05-.15t.1-.06q.14 0 .27.18.15.16.26.39.12.22.2.44.07.23.07.34 0 .04-.03.08-.03.03-.08.03l.07.15q.04.1.04.17 0 .09-.03.17-.02.08-.02.17 0 .08.03.14l.07.13.1.13q.05.05.1.07l.12.02.17.02q.15.22.33.4.2.2.4.34.34.08.67.12.33.04.67.04.28 0 .48-.06.2-.05.38-.15.18-.1.34-.22l.35-.26q.12-.1.27-.17l.27-.17.26-.2q.12-.11.2-.25.05-.1.15-.18.1-.1.1-.21v-.07l-.05-.46-.02-.48q-.01-.22-.1-.33-.08-.12-.2-.2l-.27-.15q-.14-.08-.28-.21-.14-.14-.32-.18-.17-.04-.36-.05l-.37-.02q-.18-.02-.34-.14-.04-.03-.07-.03-.07 0-.14.04-.06.04-.13.04-.11 0-.23-.03l-.23-.07-.22-.07q-.11-.04-.23-.05-.15-.03-.24-.03l-.17-.03-.17-.06q-.09-.04-.22-.13-.4-.26-.83-.37-.09-.21-.22-.43l-.17-.1-.15-.11-.11-.26-.14-.4-.12-.4q-.04-.19-.04-.27 0-.17.03-.33.04-.16.18-.29l.05-.03q.04-.03.04-.07 0-.04-.06-.05-.06-.02-.06-.08l.01-.03v-.03q.06-.17.16-.32t.24-.28q.14-.14.28-.25l.28-.22q.1-.06.17-.17.07-.1.16-.15h.42q.08-.03.11-.07l.06-.08q.03-.04.08-.06.05-.02.18-.02h1.86q.2 0 .4.03.13.01.26.06.13.04.27.04.13 0 .19-.06.06-.05.09-.1.03-.07.08-.12.04-.05.16-.05.15 0 .32.08t.32.13v.03q-.03.07-.03.15 0 .13.04.26l.09.24.08.24q.04.12.04.25l-.01.16q-.02.07-.02.15 0 .15.06.22.06.05.06.1 0 .07-.05.11-.05.04-.05.12l.02.4q.02.18.02.37v.2q0 .14-.03.27t-.09.23q-.05.1-.15.1-.12 0-.22-.09l-.17-.17q-.1-.1-.14-.22-.05-.13-.08-.27l-.07-.26q-.03-.13-.1-.24l-.24-.35-.21-.36q-.08-.13-.14-.18-.06-.06-.13-.07-.07-.02-.16-.02-.08 0-.2-.03-.14-.02-.27-.06l-.27-.09-.26-.07q-.13-.04-.27-.04-.21 0-.44.07-.22.07-.45.17l-.44.21-.42.18q-.19.4-.19.85 0 .33.08.54.07.21.2.36.14.14.3.25l.36.24q.2.13.38.18.2.03.42.03h.25l.25-.01q.14 0 .27.04.13.03.25.09l.25.08q.13.04.26.04t.24-.02l.24-.01q.1 0 .19.05.08.04.16.11l.17.11q.09.05.2.06l.24.14.17.12q.08.07.15.17l.17.24q.08.14.21.24.14.11.22.26.03.05.04.13l.02.13q.01.06.04.11.04.05.12.06v.16l.01.16zm8.12 1.07q0 .24-.05.46l-.12.42-.14.42q-.07.2-.1.43-.07.38-.27.62-.2.25-.49.4-.28.14-.64.2-.34.08-.7.12-.37.04-.73.05-.35.02-.65.06-.12-.09-.19-.18l-.14-.19q-.07-.08-.15-.14-.08-.05-.22-.05-.04 0-.07-.12l-.05-.28-.05-.28q-.02-.13-.07-.13-.17 0-.27-.07t-.16-.19q-.05-.12-.08-.26l-.01-.28q0-.1-.05-.19-.04-.09-.1-.17l-.1-.18q-.04-.1-.04-.19l.01-.28q.02-.17.02-.35l.03-.35.01-.28q0-.14.03-.23l.08-.15.08-.12q.04-.06.04-.12 0-.1-.05-.15-.04-.06-.04-.12 0-.09.06-.16.05-.08.07-.16.08-.33.08-.66v-.12l-.01-.13q-.17-.14-.38-.18l-.42-.06-.4-.05q-.2-.03-.34-.16l-.2-.23q-.09-.14-.24-.18-.1-.04-.18-.1-.06-.06-.06-.18 0-.18.1-.27.11-.1.26-.15.15-.06.31-.1.16-.05.28-.13.1-.08.27-.08h.26q.18 0 .3-.05.13-.07.2-.17.07-.12.1-.26t.03-.3q0-.24-.03-.47-.03-.22-.03-.46 0-.28.07-.51.08-.23.29-.43l.1-.1.1-.1q.06-.07.12-.1.07-.04.14-.04.04 0 .07.02l.08.05q.16.16.2.24.06.08.06.18v.32q0 .24.05.47.06.23.06.4 0 .14-.06.27-.05.13-.05.27 0 .1.05.2l.1.16q.08.08.13.17.05.08.05.2.08.05.34.1l.58.06.65.04.55.01q.2 0 .3.03.1.03.17.07l.13.07q.06.03.16.04.12.02.2.07.1.04.1.19 0 .18-.1.28-.1.1-.24.16-.13.05-.29.06l-.3.01-.42-.01-.44-.02q-.36 0-.65.07-.3.07-.5.22-.22.16-.34.42-.1.26-.1.65 0 .38.04.74.05.37.05.75V72q.02.22.1.36.1.22.15.5.06.28.15.52.1.25.26.42.18.17.5.17.12 0 .3-.03.2-.03.38-.1.18-.06.32-.16.13-.1.13-.25 0-.13-.07-.26-.08-.13-.08-.28 0-.1.05-.18.05-.08.13-.14l.16-.12.17-.09q.14-.17.32-.28.2-.12.42-.12.15 0 .28.05.14.06.26.14.02.13.02.27zm9.01-2.8q0 .15-.06.25l-.13.2-.15.2q-.06.09-.09.22-.06-.03-.14-.03l-.14-.01q-.18 0-.36.03l-.34.02q-.2 0-.34-.12-.13-.12-.2-.3-.08-.18-.11-.39-.03-.2-.03-.37 0-.2.06-.43l-.1-.02q-.1 0-.14.06-.04.06-.12.06-.06 0-.12-.04-.05-.06-.12-.06-.11 0-.29.08-.16.07-.32.18-.16.11-.27.24-.12.13-.12.25-.15.02-.3.1l-.26.14q-.1.06-.16.19l-.13.27-.11.3q-.05.15-.13.24-.13.17-.22.34-.1.16-.1.37 0 .27.09.54.08.26.08.54 0 .18-.03.36l-.02.35q0 .21.07.34.08.13.2.2.13.07.3.09.16.02.33.02h.36l.33-.02q.05.06.06.11v.11l-.03.12q-.02.05-.02.12l.02.08q.1 0 .19-.05.08-.06.12-.17l.09.05q.04.03.04.09l-.02.09-.05.07-.05.08q-.03.04-.03.1l.01.06q0 .03.02.05-.03.06-.1.09l-.14.02q-.12 0-.2-.04l-.14-.08-.11-.08q-.05-.04-.13-.04l-.09.01-.12.04q-.06.02-.1.06-.05.03-.05.06 0 .06.04.1.04.05.04.11 0 .05-.03.08-.04.03-.1.04l-.1.01-.1.01q-.29 0-.58-.07-.28-.06-.57-.06-.14 0-.27.06-.14.06-.29.06-.08 0-.13-.03l-.06-.08-.07-.08q-.04-.03-.11-.03-.14 0-.29.03l-.27.06-.28.06q-.13.03-.28.03l-.18-.02-.2-.06q-.1-.05-.16-.12-.07-.06-.07-.16 0-.06.07-.16t.16-.18l.18-.17q.1-.07.14-.07l.23.01h.24q.2 0 .4-.05.22-.07.38-.19.17-.12.28-.3.1-.18.1-.4l-.01-.19-.02-.2q0-.19.05-.38.04-.2.04-.39 0-.26-.06-.53-.05-.28-.05-.55v-.5l.02-.48v-.33q-.01-.22-.06-.44-.03-.21-.12-.38-.09-.16-.23-.16-.17 0-.33.03-.17.04-.34.04l-.3-.01q-.17-.03-.33-.08-.16-.06-.27-.16-.11-.1-.11-.28 0-.19.05-.3.05-.12.14-.18.09-.06.2-.08.12-.02.25-.02h.25l.25.01q.24 0 .47-.02.24-.03.48-.03l.33.01q.16.02.32.07.14.05.2.17l.13.25q.06.13.13.23.08.1.24.1.08 0 .14-.04l.12-.1.12-.1q.06-.04.14-.05.17-.02.3-.1l.28-.17.27-.15q.14-.07.3-.07l.25-.02q.15-.02.29-.06l.27-.1q.14-.07.21-.14.2.01.47.1.28.08.53.22t.44.32q.19.19.22.42.02.14.08.27l.12.26q.07.12.12.25.05.13.05.27zm5.28-3.93q0 .22-.07.45t-.2.42q-.14.19-.33.31-.2.12-.42.12-.16 0-.4-.04-.22-.05-.44-.14-.21-.1-.37-.25-.15-.15-.15-.35 0-.18.04-.37.05-.2.05-.39.08-.03.15-.13l.14-.2.15-.18q.07-.09.15-.1l-.04.02.22-.07q.12-.03.24-.03.15 0 .37.08.22.07.43.2.2.13.34.3.14.17.14.35zm3.62 9.1q0 .13-.05.25-.04.1-.13.19t-.2.14q-.11.05-.25.05l-.06-.01-.06-.05q-.1-.12-.25-.14l-.31-.04q-.16-.01-.31-.08-.14-.06-.23-.25-.06-.13-.13-.17-.07-.03-.2-.03-.34 0-.64.1t-.59.24q-.29.13-.6.23-.3.1-.62.1-.18 0-.36-.03-.17-.03-.33-.1l-.1.05-.1.01h-.1l-.09-.01-.08.02-.09.04.05.07q-.05.07-.2.13-.16.07-.35.11l-.35.08q-.17.03-.26.03-.24 0-.4-.09-.15-.07-.3-.27l-.13-.15-.15-.15q-.07-.08-.12-.17-.05-.09-.05-.18 0-.12.12-.2.12-.07.29-.11.16-.05.33-.07l.25-.02q.18 0 .36.05t.36.05q.16 0 .31-.05.15-.04.32-.04.14 0 .27.02l.29.01q.18 0 .34-.06.17-.06.32-.17.06-.36.09-.73t.03-.74q0-.37-.06-.73-.06-.37-.06-.73l.01-.03h.03l.04-.02.01-.06q0-.16-.04-.3-.05-.16-.05-.32 0-.19.06-.38.05-.18.05-.38 0-.13-.06-.27-.06-.13-.16-.24-.1-.1-.22-.16-.13-.07-.27-.07-.16 0-.32.04l-.31.09-.34.08q-.16.04-.35.04-.21 0-.42-.03l-.43-.07-.24-.03q-.13-.01-.25-.05t-.2-.11q-.08-.08-.08-.22 0-.26.09-.4.1-.14.23-.2.14-.07.31-.09l.33-.03.56-.04.57-.02q.35 0 .7.05.34.03.69.03.24 0 .47.08.22.07.39.23.17.15.27.38t.1.54q0 .2-.1.4-.08.18-.21.33.05.1.1.14l.1.06q.04.02.07.07.03.03.03.14l.02.15q.02.07.1.08v.8l-.01.78v.68q0 .33.06.67.03.21.12.32.09.12.32.12.34 0 .67-.07.33-.08.66-.08.2 0 .37.1l.34.21.31.2q.15.1.28.1.06 0 .1.05.04.04.05.1.03.05.03.11v.1zm9.2 0q0 .11-.04.16t-.1.09l-.07.07q-.04.04-.04.11v.07q-.26.07-.58.09l-.58.02-.1-.02-.1-.05q-.06-.02-.1-.06-.02-.04-.02-.09l-.2.05-.21.05-.2.08q-.08.06-.14.15l-.26-.06-.34-.05-.36-.07q-.18-.04-.33-.1-.14-.07-.24-.16-.09-.09-.09-.22l.01-.13q0-.1.03-.2l.05-.17q.04-.07.09-.07.07 0 .14.03t.15.03h.08v-.07q0-.06-.03-.09-.03-.04-.08-.04l-.1-.02h-.1q.1-.1.12-.23.03-.13.03-.26 0-.14-.04-.3-.03-.19-.1-.35-.08-.17-.19-.3-.1-.12-.25-.16l-.1-.2-.15-.2q-.07-.1-.18-.15-.1-.06-.21-.06-.14 0-.35.14-.2.14-.41.33-.2.18-.34.35-.15.17-.15.23 0 .09.03.16.02.07.02.16 0 .12-.05.23-.06.1-.14.19.02.13.11.2.1.07.21.1l.26.05q.12 0 .23.03l.13.11q.09.07.16.15.08.07.14.16.06.08.06.15 0 .07-.06.09l-.12.02q-.06 0-.12.03-.06.02-.06.1 0 .05.02.09-.36.01-.7.07-.34.05-.69.13-.14.04-.28.05h-.3l-.28.01-.3.04-.2.02q-.18 0-.33-.06-.15-.07-.26-.19-.11-.12-.18-.27-.06-.15-.06-.32t.1-.3q.09-.15.28-.15.06 0 .1.06.04.05.1.05.03 0 .05-.03l.05-.08.07-.08q.05-.04.11-.05.21-.03.35-.15.14-.1.21-.27.08-.16.1-.35.04-.2.04-.38 0-.15-.04-.28-.03-.15-.03-.29 0-.2.07-.4t.07-.46q0-.35-.04-.69-.04-.34-.04-.7 0-.25.03-.52t.03-.53q0-.1-.03-.18l-.05-.17-.06-.15q-.02-.07-.02-.15 0-.15.05-.3t.05-.3q0-.17-.06-.32-.05-.16-.05-.33l.02-.26q.03-.13.03-.27 0-.27-.12-.4-.11-.14-.28-.2-.17-.06-.38-.08-.2-.01-.38-.04-.17-.04-.29-.12-.11-.08-.11-.27 0-.22.1-.35.1-.15.24-.22.15-.08.33-.1.18-.03.35-.03.49.1.77.18l.4.13q.15.05.18.08l.05.05q.05.14.08.4l.06.58.03.56.01.4q0 .21-.06.4-.06.18-.06.37 0 .21.05.4.06.2.08.4v.28l.01.26v.8l.01.56.06.56.07.01h.07q.14 0 .24-.07.1-.09.18-.2l.17-.2q.1-.11.23-.17.18-.08.3-.22l.24-.3q.1-.16.23-.3.13-.14.3-.22.2-.07.2-.26 0-.12-.04-.22l-.07-.22-.07-.2q-.03-.12-.03-.23v-.08h.16q.03 0 .03-.03-.04-.06-.04-.14 0-.1.05-.13t.14-.03q.16 0 .31.06.16.06.32.06.12 0 .23-.03l.22-.08.22-.07q.11-.04.23-.04.2 0 .4.05t.4.05q.2 0 .4-.06t.43-.06l.1.03q.07.02.13.06.06.03.11.08.05.04.05.09-.01.05-.06.07-.04.02-.04.05 0 .04.03.09l.09.1.09.12q.03.06.03.13 0 .1-.18.19-.17.09-.41.16-.24.07-.46.11-.22.04-.31.04-.16 0-.24-.05-.08-.06-.15-.06-.12 0-.31.1-.19.09-.4.24-.21.14-.43.34l-.4.37q-.17.19-.29.36-.11.17-.11.29 0 .12-.04.23-.03.11-.03.23 0 .1.07.17t.16.13l.18.12q.1.07.14.16.07.15.2.35l.3.4.32.43q.17.22.3.42.14.2.22.4.1.17.1.3V74q.37-.08.73-.08.24 0 .48.03l.49.05v.11q0 .14.05.24.05.1.12.17.07.06.12.13.05.06.05.14zm8-1.27q0 .2-.07.34-.06.14-.16.26l-.23.2-.27.21q-.1.1-.18.14l-.17.07-.16.06-.2.09q-.15.07-.25.14l-.2.11q-.1.05-.22.08-.12.04-.3.06l-.6.1q-.3.04-.6.04-.06 0-.13-.03l-.14-.05-.19-.05q-.1-.02-.24-.02-.15 0-.24-.05-.09-.04-.16-.1l-.14-.13q-.08-.07-.2-.13-.45-.2-.76-.48-.32-.29-.54-.64-.23-.35-.37-.76-.15-.41-.26-.86-.08-.32-.08-.63 0-.41.2-.76-.08-.21-.08-.4 0-.15.08-.43t.21-.56q.13-.29.28-.51.16-.24.3-.29l.14-.06q.04-.03.04-.15 0-.09.07-.15.08-.06.17-.1l.2-.06.18-.06q.27-.14.52-.23.25-.1.5-.15.26-.07.53-.1.26-.03.57-.03.17 0 .32.04.16.05.3.12l.3.16.27.17q.1.01.2.06.1.05.22.06.1.13.27.25.17.11.33.24t.28.28q.11.14.11.33v.12l.02-.03q.03.02.05.07l.06.12.03.13.03.1q.06.1.15.15.1.06.17.17-.08.07-.08.19 0 .13.05.25.06.12.06.25l-.02.3-.01.28q0 .11-.1.17-.08.06-.18.1l-.18.1q-.08.04-.08.12 0 .06-.08.06h-.1q-.34 0-.67-.09-.32-.08-.64-.08-.35 0-.7.05-.34.05-.7.05l-.52-.02-.51-.01-.26.03-.4.06q-.2.04-.38.1-.19.05-.26.1l-.01.11q0 .35.2.73.21.37.55.68.33.3.75.5t.85.2q.25 0 .49.03.24.01.47.1.2-.1.37-.22l.33-.27q.16-.14.3-.3l.31-.29q.03-.03.15-.05l.25-.05.25-.03.18-.01q.17 0 .32.05.04.17.04.34zm-1.12-3.04q0-.11-.04-.22-.04-.1-.06-.21-.04-.21-.04-.4 0-.21-.06-.41 0 .04-.03.09-.03.03-.09.03-.09 0-.17-.04-.08-.04-.14-.11l-.52-.24q-.22-.11-.45-.2-.23-.09-.49-.13-.25-.05-.59-.05h-.06q-.02 0-.04.03l.03.08-.06.01-.33.08q-.13.03-.23.09-.11.06-.21.15l-.26.22q-.07.06-.16.1l-.18.06-.16.05q-.07.03-.13.1-.05.19-.15.37-.1.17-.1.36 0 .11.09.2.1.09.24.15.15.06.32.1.18.05.35.07l.32.04h.23q.28 0 .56-.05.27-.06.56-.06.3 0 .58.03l.59.02h.22l.3-.04q.14-.04.25-.1.1-.07.1-.17zm9.25 1.94q0 .24-.05.46l-.12.42-.14.42q-.07.2-.1.43-.07.38-.28.62-.2.25-.48.4-.29.14-.64.2-.34.08-.7.12-.38.04-.74.05-.35.02-.65.06l-.18-.18-.14-.19q-.07-.08-.15-.14-.09-.05-.22-.05-.05 0-.08-.12l-.04-.28-.05-.28q-.03-.13-.07-.13-.17 0-.28-.07-.1-.07-.15-.19-.06-.12-.08-.26l-.01-.28q0-.1-.05-.19-.04-.09-.1-.17l-.1-.18q-.04-.1-.04-.19v-.28l.03-.35.02-.35.02-.28q0-.14.03-.23l.08-.15.07-.12q.04-.06.04-.12 0-.1-.04-.15-.04-.06-.04-.12 0-.09.05-.16l.08-.16q.08-.33.08-.66v-.12l-.01-.13q-.18-.14-.39-.18-.2-.04-.41-.06l-.4-.05q-.2-.03-.34-.16-.11-.1-.2-.23-.09-.14-.24-.18-.1-.04-.18-.1-.07-.06-.07-.18 0-.18.1-.27.12-.1.27-.15l.3-.1q.17-.05.28-.13.12-.08.27-.08h.26q.2 0 .31-.05.13-.07.2-.17.07-.12.1-.26.02-.14.02-.3 0-.24-.03-.47-.03-.22-.03-.46 0-.28.08-.51.07-.23.28-.43l.1-.1q.05-.06.11-.1.06-.07.12-.1.07-.04.14-.04.04 0 .07.02l.08.05q.16.16.2.24.06.08.06.18v.32q0 .24.05.47.06.23.06.4 0 .14-.06.27-.05.13-.05.27 0 .1.04.2l.12.16.12.17q.05.08.05.2.07.05.33.1l.59.06.65.04.54.01q.2 0 .3.03l.18.07.13.07q.06.03.16.04.12.02.2.07.09.04.09.19 0 .18-.1.28-.09.1-.23.16-.13.05-.3.06l-.28.01-.44-.01q-.21-.02-.43-.02-.36 0-.65.07-.3.07-.51.22-.21.16-.33.42-.11.26-.11.65 0 .38.04.74.06.37.06.75V72q.02.22.1.36.09.22.15.5t.15.52q.1.25.26.42.17.17.5.17.11 0 .3-.03t.38-.1q.18-.06.32-.16.13-.1.13-.25 0-.13-.07-.26-.08-.13-.08-.28 0-.1.05-.18.05-.08.12-.14l.17-.12.17-.09q.14-.17.32-.28.2-.12.41-.12.15 0 .29.05.14.06.26.14.02.13.02.27zm9.54 2.3q0 .13-.05.25-.03.11-.1.21l-.34.03h-.98q-.24 0-.46.04-.22.05-.45.05-.3 0-.33-.32-.1 0-.19.06l-.16.13-.18.13q-.1.07-.22.07-.13 0-.27-.07-.12-.08-.12-.23l.02-.1.06-.07.07-.06q.03-.03.03-.05 0-.04-.03-.07l-.08-.06-.07-.06q-.03-.04-.03-.09 0-.12.1-.17.08-.06.23-.08.14-.03.3-.03l.32-.01q.16 0 .28-.04.12-.04.17-.12.07-.14.12-.33.04-.18.06-.39l.04-.4.01-.35q0-.33-.02-.65-.03-.32-.1-.65-.02-.14-.08-.29-.04-.14-.04-.29 0-.1.03-.17l.06-.14.07-.1q.03-.07.03-.13 0-.12-.08-.21-.07-.1-.11-.21-.04-.1-.05-.21-.01-.12-.06-.22-.03-.07-.1-.13l-.11-.13-.12-.13q-.06-.06-.1-.14l-.5-.02q-.32 0-.6.04-.28.04-.54.14-.25.1-.47.28-.22.17-.43.43-.07.1-.18.2l-.2.24q-.11.11-.2.23-.08.12-.1.23-.08.3-.12.68-.04.37-.04.68l.02.21.06.21.06.2q.03.1.03.21l-.03.2-.07.27-.1.26q-.05.1-.1.1 0 .06.1.15l.2.16.22.14q.12.06.17.06h.13l.12-.02q.15 0 .31.08.17.08.28.17.12.1.15.18.02.07-.14.07h-.16q-.07 0-.1-.03l-.05-.09-.05-.09q-.02-.04-.08-.04-.04 0-.05.04v.08q0 .06.05.14l.13.14.13.16q.06.07.06.16 0 .03-.03.05l-.06.01-.15-.02q-.06-.02-.14-.02-.07 0-.13.05l-.15.13q-.1.06-.26.12-.15.06-.42.06-.1 0-.15-.09l-.06-.18-.07-.18q-.04-.08-.15-.08-.06 0-.1.04-.04.05-.05.09.03.02.05.07l.05.11.04.11.03.1-.13-.02-.2.02-.2.04-.19.06q-.1.02-.2.01-.09 0-.17-.03l-.16-.06q-.12-.06-.26-.07-.13 0-.25-.03-.1-.02-.18-.1-.07-.08-.07-.28 0-.12.04-.25.05-.13.13-.23t.2-.16q.1-.07.24-.07.09 0 .17.05.08.03.17.03.07 0 .12-.04l.09-.1q.04-.06.09-.1.05-.05.13-.07 0-.4.06-.78.06-.39.06-.78 0-.4-.07-.77-.07-.38-.07-.77 0-.24.06-.46.07-.22.07-.46 0-.13-.06-.24-.05-.12-.05-.25 0-.1.05-.15.05-.05.07-.13h-.03q-.1 0-.1-.1 0-.11.07-.11l.06.02q0-.06-.03-.12l-.08-.12-.07-.12q-.04-.07-.04-.14.08-.15.1-.27.03-.12.03-.24l-.01-.21v-.26q0-.17.06-.32.07-.15.07-.31 0-.1-.05-.14-.04-.03-.11-.03l-.1.01-.01-.26q-.02-.17-.06-.33-.05-.16-.14-.27-.08-.12-.22-.12-.1 0-.18.02h-.17q-.15 0-.28-.07-.13-.08-.23-.2-.1-.11-.15-.26-.06-.14-.06-.27 0-.15.09-.2.09-.03.2-.03h.39q.09-.03.15-.09.23-.01.45-.04l.46-.02q.13 0 .23.06t.18.14l.2.15q.1.06.21.09 0 .16-.03.32-.02.15-.02.32 0 .16.06.3.07.13.07.28 0 .05-.03.06h-.07l-.06.03q-.02.03-.02.1t.02.13l.06.12.05.12q.03.06.03.12 0 .12-.04.23-.04.1-.04.22l.02.3.08.44q.05.2.13.37.09.16.2.16.16 0 .3-.08.15-.07.27-.18.14-.11.26-.23l.22-.22q.07-.06.26-.12.2-.06.42-.1l.44-.1.32-.02q.25 0 .35.03.11.03.19.09l.15.13q.07.07.25.16.08.04.14.05l.14.03q.07 0 .13.04.06.03.12.1l.24.28q.15.14.28.3.13.17.22.34.1.17.1.34 0 .11-.05.23-.04.1-.04.22 0 .08.04.15.04.06.04.14l-.01.23q0 .13-.03.28l-.06.28q-.03.13-.08.2.1.18.15.39.03.2.03.42 0 .26-.03.52l-.02.52q0 .35.1.54.11.2.26.3.16.1.34.14.18.04.33.11.16.06.27.18.1.11.1.35zm8.57-2.92q0 .1-.04.2-.03.1-.07.16l-.08.11-.03.06q0 .07.05.15.05.09.05.18 0 .05-.04.06l-.06.02q-.07 0-.11-.02 0 .15.02.28l.02.28q0 .21-.04.28-.04.06-.09.08l-.09.03q-.03.02-.03.14 0 .07-.1.17l-.23.21q-.12.1-.27.18-.13.07-.21.07l-.05-.01v.25q0 .1-.05.14l-.14.06q-.1.05-.23.16l-.24.2q-.13.1-.27.18-.12.08-.27.08-.11 0-.22-.06-.1-.06-.23-.06-.12 0-.2.03l-.16.07-.14.08q-.08.04-.17.04-.2 0-.4-.1-.19-.1-.37-.17l-.22-.06-.23-.03q-.12-.03-.22-.08-.1-.04-.17-.13-.16-.2-.37-.32-.2-.13-.43-.24l-.41-.24q-.2-.12-.36-.32-.1-.16-.25-.34l-.27-.39q-.12-.2-.2-.41-.08-.21-.08-.41 0-.15.03-.3l.06-.28.06-.3q.03-.13.03-.28v-.08l-.02-.07-.05-.07q-.02-.04-.05-.06l-.03-.03h-.02q0-.06.04-.2l.08-.28.09-.27.08-.16.08-.08q.05-.04.05-.1v-.14l-.01-.13q0-.09.02-.1.02-.03.06-.03h.07q.04-.02.08-.09l.12-.24.15-.22q.07-.1.17-.18.1-.08.24-.16.12-.07.23-.16l.24-.2q.12-.1.24-.16.13-.07.27-.07.2 0 .39-.07.2-.07.39-.1l.6-.1q.3-.04.62-.04.17 0 .42.06.25.06.5.15.26.09.49.2.23.11.37.22v.03q0 .1-.04.21-.04.1-.04.21v.03q0 .02.02.02.12 0 .24-.03.11-.04.24-.04.02.13.11.17l.2.08q.09.05.16.17.09.11.15.26l.13.28.13.24q.06.09.1.21.05.12.08.26.04.13.06.27l.01.24q0 .15-.06.25-.05.1-.12.18l-.12.15q-.06.07-.06.16 0 .05.03.1l.05.08.06-.02q.06 0 .06-.04v-.01q0-.06-.06-.11-.04-.06-.04-.13l.01-.05q.02-.03.04-.03.05 0 .1.06l.07.12.07.1q.02.05.02.03v.06l.01.05zm-.75.06q0-.12-.09-.14-.09-.03-.2-.04l-.22-.02q-.1-.01-.14-.11v-.08q0-.16-.05-.38l-.1-.45-.12-.44-.13-.4-.1-.28-.04-.1-.1.01q-.12 0-.22-.05l-.2-.11q-.12-.06-.3-.11-.16-.06-.43-.06-.3 0-.6-.03-.3-.05-.61-.05-.42 0-.79.2-.37.18-.64.5-.28.3-.44.7-.15.38-.15.78v.39l.04.44q.03.21.1.4.07.2.18.3v.2q.03.03.08.04h.1q.05 0 .09.02.03 0 .06.06.1.27.25.42.16.14.34.25l.36.2q.18.1.33.3l.12-.02h.13q.24 0 .46.03.24.03.47.03.24 0 .44-.12.2-.13.34-.32l.17-.22q.07-.1.15-.17l.17-.15.22-.16.1-.07.14-.1.1-.11q.05-.06.05-.12l-.02-.13-.01-.14.02-.18.06-.2q.06-.1.12-.15.08-.07.18-.07.09 0 .17.04.08.03.15.09l.01-.12zm10.93 2.75q0 .13-.1.28-.08.15-.21.27-.13.13-.28.21-.15.08-.28.08-.23 0-.46-.03-.22-.04-.46-.04l-.26-.02q-.15-.01-.2-.07-.18-.03-.26-.14l-.15-.21q-.06-.12-.14-.23-.06-.12-.2-.16-.43.19-.76.36-.32.17-.64.3-.32.13-.68.2-.36.09-.86.09-.22 0-.32-.02-.09-.03-.14-.08-.05-.04-.09-.13-.04-.08-.15-.2-.06-.06-.12-.06l-.1-.02h-.04q-.07 0-.13-.02-.05-.03-.08-.15-.02-.1-.1-.2-.06-.12-.15-.24-.08-.12-.17-.22-.09-.1-.16-.15l-.01-.74q0-.75.04-1.48.06-.73.06-1.48l-.01-.3q0-.21-.04-.41-.02-.2-.09-.36-.06-.17-.17-.2-.17-.03-.35-.03h-.35q-.17-.01-.33-.06-.16-.04-.3-.2-.08-.07-.16-.2-.07-.11-.07-.24 0-.19.16-.31.16-.14.39-.22.22-.08.46-.12.23-.04.37-.04.41 0 .78.13.37.12.68.4l.01.03v.01q.01.22.06.43.04.21.04.43 0 .12-.04.23-.03.1-.03.23 0 .12.03.25t.03.26l-.01.16-.02.16q0 .24.06.46.05.22.05.45 0 .2-.05.4l-.1.38-.1.39q-.04.18-.04.39 0 .27.1.51.12.24.3.42.2.17.43.28.25.1.52.1.23 0 .37-.05.15-.05.24-.11l.15-.1q.06-.06.12-.06t.1.02h.1q.11 0 .18-.04l.12-.1.1-.12q.07-.06.16-.08.17-.04.3-.1.13-.07.13-.27v-.06q.02-.03.08-.03.03 0 .05.02l.06.03q.04-.03.05-.08l.03-.1q.04-.13.14-.23t.12-.24q.01-.15.07-.28.06-.13.06-.27 0-.13-.07-.22-.06-.1-.06-.24 0-.15.05-.3.06-.14.06-.3l-.1-.13q-.03-.07-.03-.15 0-.13.05-.16.04-.05.04-.1 0-.06-.04-.13l-.07-.14-.08-.13q-.03-.07-.03-.15l.02-.14q.03-.07.03-.16 0-.11-.06-.2-.05-.1-.14-.16-.09-.07-.2-.1-.1-.04-.2-.05l-.33-.02q-.13 0-.24-.03-.1-.04-.19-.13-.08-.1-.17-.3-.05-.11-.05-.2 0-.17.16-.28.16-.11.38-.16.22-.06.43-.08l.35-.02.24.02.24.02q.12 0 .24-.05.13-.05.26-.05.18 0 .29.1.11.1.17.27.07.15.09.36.02.2.02.41 0 .28-.02.53l-.01.4q0 .32.06.6.06.28.06.52 0 .07-.03.15l-.07.15-.08.14q-.03.08-.03.15 0 .06.03.1l.05.44q-.04.03-.05.08v.08l.02.24q.03.11.03.24 0 .14-.03.28t-.03.28q0 .34.23.53.24.18.56.18.18 0 .36-.06.05.11.14.2l.19.17q.09.08.15.18.07.1.07.26zm7.63 1.49q0-.22-.1-.34-.12-.12-.3-.19-.16-.06-.35-.1-.19-.03-.35-.08l-.83-.22q-.4-.09-.83-.09h-.06l-.16-.1q-.06 0-.1.03l-.1.06q-.03.04-.08.07-.04.03-.1.03-.08 0-.15-.04-.08-.03-.16-.03-.16 0-.32.05l-.32.1-.3.1q-.16.06-.32.06-.1 0-.24.09-.12.09-.24.22-.12.12-.2.26-.09.14-.09.24 0 .23.06.42.07.2.2.34.12.14.3.22.2.09.44.09h.15q.07.02.15.08.27.2.58.23.32.04.64.04.2 0 .36-.08.18-.09.37-.13.19-.04.37-.04.2 0 .38-.07.12-.06.2-.12.08-.06.23-.06.13 0 .24.03.12.02.25.02.12 0 .23-.06.11-.05.19-.15.07-.09.1-.2.05-.12.05-.24v-.08q.14 0 .18-.12.03-.13.03-.24zm1.2.24q0 .24-.16.5-.16.27-.39.5-.21.22-.43.37t-.33.15q-.2 0-.38.05-.18.06-.35.14-.17.08-.5.16-.32.09-.68.15l-.7.1q-.34.05-.53.05l-.47-.02q-.23-.01-.48-.05-.25-.03-.49-.1-.23-.04-.43-.13-.1-.04-.17-.09l-.12-.08q-.06-.04-.14-.06-.07-.02-.2-.02-.16 0-.26-.06-.1-.05-.17-.14l-.12-.2-.12-.21q-.17-.22-.25-.42-.08-.2-.08-.47 0-.39.15-.74.16-.36.42-.64 0-.22-.06-.44l-.12-.44-.12-.43q-.06-.22-.06-.44 0-.15.04-.24.05-.1.1-.16l.07-.12q.05-.06.05-.13 0-.02.1-.13.12-.1.24-.24.14-.13.24-.28.11-.15.11-.26 0-.1-.08-.18-.07-.1-.16-.18l-.17-.17q-.08-.1-.08-.21 0-.17.02-.33l.06-.33.06-.33q.03-.17.03-.34l-.01-.06q-.02-.03-.02-.07 0-.08.04-.14.05-.07.1-.11l.09-.1q.04-.04.04-.09 0-.06-.04-.1-.05-.07-.05-.17v-.07q.12-.08.2-.2l.18-.2q.15-.12.36-.24.2-.13.38-.22.06 0 .08.06.02.05.08.05.05 0 .14-.04l.23-.12q.13-.06.28-.1.14-.06.29-.06l.24.02.24.03.42.04q.19 0 .35.05.16.05.3.16.14.11.29.34l.17-.12.19-.1q.09-.06.16-.13.08-.07.11-.18.08.04.15.04.06 0 .13-.05l.16-.09.2-.1q.13-.04.29-.04.25 0 .5.05.24.06.5.08.01.17.06.33l.11.3.11.32q.05.16.05.32 0 .11-.12.26-.11.14-.28.26-.17.12-.36.2-.19.09-.34.09l-.05-.02q-.02-.01-.02-.04 0-.08.04-.13.05-.05.05-.13l-.11-.06h-.03q-.12 0-.2.06-.07.06-.11.18-.04.1-.05.24-.02.12-.02.26v.28l.02.22q0 .19-.03.34-.02.14-.16.27t-.21.29l-.15.31-.17.33q-.1.16-.26.3l-.15.13-.09.07-.03.03h-.02q-.2 0-.39.06-.19.05-.37.12l-.38.12q-.18.05-.39.05-.3 0-.6-.06-.3-.08-.6-.08-.16 0-.34.06-.2.06-.36.17-.15.1-.26.26-.12.14-.12.31 0 .1.05.22.04.11.12.2.07.09.17.15.1.05.22.05t.23-.06q.11-.06.24-.06.09 0 .14.05.06.05.13.06 0-.05.03-.09.03-.03.09-.03.04 0 .09.05.04.05.1.07.04-.06.1-.09.07-.03.14-.03.1 0 .17.03.08.03.15.08l.14.07q.07.03.14.03.06 0 .1-.03l.1-.09.12-.07q.07-.04.17-.04.09 0 .15.02h.16q.11 0 .2-.05.11-.06.23-.06.06 0 .1.03l.15.07q.08.04.2.07.11.03.29.03.12 0 .24.03.12.04.23.1l.22.1.23.08q.14.04.2.08.07.03.11.08l.1.1q.04.06.13.14.1.09.21.13l.2.1q.09.06.15.14.06.08.1.25l.08.34q.05.17.05.35zm-1.94-7.5q0-.12-.12-.2-.13-.07-.24-.07-.06 0-.1.03-.06.02-.08.08.06.02.1.06l.1.08.08.07q.05.03.12.03.07 0 .13-.03zm-.75 1.57q0-.16-.06-.37-.05-.21-.15-.4-.1-.2-.25-.34-.14-.15-.3-.2l-.87-.31-.1.01-.08.04-.08.03q-.04.02-.1.02-.1 0-.18-.04-.08-.04-.17-.04-.09 0-.14.05l-.1.1-.1.08-.08.04-.09.04-.08.04q-.06.04-.14.22l-.16.39-.12.4q-.06.2-.06.26 0 .03.05.14l.11.24.16.3.16.3.14.25.1.14q.1.12.21.17.12.04.25.04l.21-.02.24-.01q.09 0 .17.02l.17.01q.25 0 .5-.16.26-.17.47-.4.2-.24.34-.52.13-.29.13-.52zm12.21 4.31q0 .13-.04.25-.04.11-.1.21l-.34.03h-.99q-.23 0-.46.04-.21.05-.45.05-.3 0-.33-.32-.1 0-.18.06l-.17.13-.18.13q-.1.07-.22.07-.13 0-.26-.07-.13-.08-.13-.23l.02-.1.06-.07.07-.06q.03-.03.03-.05 0-.04-.03-.07l-.08-.06-.06-.06q-.03-.04-.03-.09 0-.12.09-.17.09-.06.23-.08.14-.03.3-.03l.33-.01q.15 0 .27-.04.12-.04.17-.12.07-.14.12-.33l.07-.39q.03-.2.03-.4l.02-.35q0-.33-.03-.65-.02-.32-.1-.65-.02-.14-.07-.29-.05-.14-.05-.29 0-.1.03-.17l.06-.14.07-.1q.03-.07.03-.13 0-.12-.08-.21-.07-.1-.1-.21-.05-.1-.06-.21 0-.12-.05-.22-.04-.07-.1-.13l-.12-.13-.12-.13q-.06-.06-.09-.14l-.5-.02q-.33 0-.61.04-.28.04-.54.14-.24.1-.47.28-.21.17-.42.43l-.18.2-.21.24-.2.23q-.08.12-.1.23-.08.3-.12.68-.04.37-.04.68l.02.21.06.21.06.2q.03.1.03.21l-.03.2-.07.27-.1.26q-.05.1-.1.1.01.06.1.15l.2.16.23.14q.11.06.16.06h.13l.13-.02q.14 0 .3.08.18.08.29.17.12.1.14.18.02.07-.13.07h-.16q-.08 0-.1-.03-.04-.04-.06-.09l-.04-.09q-.03-.04-.09-.04-.03 0-.05.04v.08q0 .06.05.14l.13.14.14.16q.06.07.06.16 0 .03-.03.05l-.06.01q-.08 0-.15-.02-.07-.02-.15-.02-.06 0-.12.05l-.16.13q-.1.06-.25.12-.16.06-.42.06-.12 0-.15-.09l-.07-.18-.07-.18q-.03-.08-.15-.08-.06 0-.1.04l-.05.09h.01l.05.07.05.11.04.11.02.1-.13-.02-.2.02-.2.04-.18.06q-.1.02-.2.01-.1 0-.18-.03l-.15-.06q-.13-.06-.27-.07-.13 0-.24-.03-.12-.02-.19-.1t-.07-.28q0-.12.05-.25.04-.13.12-.23.09-.1.2-.16.11-.07.24-.07.09 0 .17.05.08.03.17.03.08 0 .12-.04l.1-.1.08-.1q.05-.05.13-.07 0-.4.07-.78.06-.39.06-.78 0-.4-.08-.77-.07-.38-.07-.77 0-.24.06-.46.07-.22.07-.46 0-.13-.06-.24-.05-.12-.05-.25 0-.1.05-.15.05-.05.07-.13h-.02q-.1 0-.1-.1 0-.11.07-.11l.06.02q0-.06-.04-.12l-.08-.12-.07-.12q-.04-.07-.04-.14.08-.15.1-.27.04-.12.04-.24l-.02-.21v-.26q0-.17.06-.32.07-.15.07-.31 0-.1-.05-.14-.04-.03-.1-.03l-.1.01-.02-.26q-.02-.17-.06-.33-.05-.16-.13-.27-.09-.12-.23-.12l-.18.02h-.17q-.14 0-.28-.07-.12-.08-.22-.2-.1-.11-.16-.26-.06-.14-.06-.27 0-.15.1-.2.08-.03.2-.03h.38q.1-.03.15-.09l.46-.04q.22-.02.45-.02.13 0 .23.06t.19.14l.19.15q.1.06.22.09 0 .16-.03.32-.03.15-.03.32 0 .16.06.3.07.13.07.28 0 .05-.03.06h-.07l-.06.03q-.02.03-.02.1t.02.13l.06.12.06.12q.03.06.03.12 0 .12-.05.23-.04.1-.04.22l.03.3q.02.22.07.44.05.2.14.37.08.16.2.16.16 0 .3-.08.14-.07.27-.18l.25-.23q.12-.13.23-.22.06-.06.26-.12t.42-.1l.44-.1.31-.02q.25 0 .35.03.12.03.19.09.08.05.15.13.07.07.25.16.08.04.15.05l.13.03q.07 0 .13.04.07.03.13.1l.23.28q.15.14.28.3.13.17.22.34.1.17.1.34 0 .11-.05.23-.04.1-.04.22 0 .08.04.15.04.06.04.14v.23l-.04.28-.06.28q-.03.13-.08.2.11.18.15.39.04.2.04.42 0 .26-.03.52t-.03.52q0 .35.1.54.11.2.26.3.16.1.34.14.19.04.34.11.15.06.26.18.1.11.1.35z" aria-label="Strikethough"/><path d="m142.26 105.35-.07.07q-.03.03-.08.03t-.09-.05q-.03-.04-.03-.1l.01-.01v-.03l.05-.02q.06 0 .11.04l.1.07zm2.13 5.34v.02-.08.05zm5.21-3.45v.25l-.04.3-.04.29q-.02.13-.06.23-.1.26-.28.47-.16.2-.26.47-.02.07-.13.15l-.23.16-.25.16-.19.11q-.43.27-.85.4-.43.13-.92.13h-.05l-.2-.09q-.07-.02-.22-.02h-.27l-.27.03q-.05 0-.21.06l-.32.11-.3.13q-.12.06-.12.1v.03q.01.05.04.05t.06-.04q.04-.04.09-.04.03 0 .05.04.03.03.03.09.02.04.02.1v.06q0 .22-.04.43t-.04.43l-.01.43v.43q0 .4.04.6.04.2.16.3.12.1.33.16l.55.13q-.03.07-.03.13 0 .09.06.13l.12.08.12.1q.06.05.06.16 0 .1-.08.17-.09.09-.12.15l-.04.1q-.03.03-.09.05l-.21.02-.71.02h-.55q-.36 0-.7.02-.21.01-.41.07-.2.05-.42.05-.24 0-.33-.14-.1-.14-.1-.37 0-.22.1-.36.1-.15.25-.24.14-.1.3-.15l.32-.12q.15-.06.25-.12t.1-.15q0-.1-.04-.18-.03-.08-.03-.17 0-.05.05-.2.06-.15.06-.35v-.16l-.01-.16q-.05-.03-.07-.1l-.04-.14v-.28q0-.28.03-.56.04-.28.04-.57 0-.18-.02-.35-.02-.17-.02-.35 0-.05.03-.08-.07-.05-.07-.15 0-.1.03-.2.04-.08.04-.18 0-.15-.03-.3l-.07-.29-.06-.3q-.02-.14-.02-.29 0-.09.02-.17l.05-.17.05-.17q.03-.09.03-.19 0-.25-.05-.49-.04-.25-.04-.5 0-.15.06-.22l.16-.12.15-.08q.08-.04.08-.13 0-.05-.06-.09-.04-.03-.09-.03-.1 0-.18.06-.07.07-.17.07-.06 0-.11-.07l-.1-.18q-.06-.09-.13-.16-.07-.08-.17-.08l-.16.02q-.08.02-.17.02-.1 0-.14-.05-.03-.05-.03-.14v-.14l-.01-.13q-.03-.07-.1-.07l-.1.02q.1-.14.28-.2.17-.08.36-.12.2-.04.39-.05.2-.02.36-.06l.1-.02.11-.01q.14 0 .26.03l.27.02q.14 0 .22-.06.1-.06.21-.06l.16.07q.1.04.15.04.26 0 .5-.03.25-.03.5-.03.27 0 .52.07l.5.16.5.18q.24.09.5.13.1.02.18.07.09.05.17.13l.16.14.15.13q.1.08.16.18l.13.22.13.21q.08.1.2.17.1.07.16.2.06.12.08.26.03.14.03.28l.01.26zm-1.23.45q0-.47-.15-.86-.14-.4-.42-.68-.27-.28-.66-.44-.39-.16-.87-.16h-.22l-.33.01-.37.02-.36.05q-.17.02-.3.07-.12.03-.15.1l-.15.2q-.1.1-.1.2 0 .08.05.17l.1.18.1.2q.06.1.06.2l-.12.04q-.05.02-.05.09 0 .11.07.25.07.13.07.27 0 .1-.04.17l-.1.09-.1.07q-.04.04-.04.1 0 .07.1.22l.21.34.22.32q.1.14.1.17.18.03.35.03l.37-.01.54-.03.53-.04.34-.05q.1-.02.14-.07l.07-.09.09-.07q.06-.04.19-.04.23 0 .39-.08t.26-.22q.1-.14.13-.32.05-.19.05-.4zm6.7-2.13q0 .22-.07.45-.06.23-.2.42-.13.19-.33.31-.19.12-.42.12-.15 0-.39-.04-.23-.05-.45-.14-.2-.1-.36-.25-.15-.15-.15-.35 0-.18.04-.37.04-.2.05-.39.07-.03.15-.13l.14-.2.14-.18q.08-.09.15-.1l-.04.02.22-.07q.12-.03.24-.03.16 0 .37.08.23.07.43.2.2.13.35.3.14.17.14.35zm3.63 9.1q0 .13-.05.25-.05.1-.14.19-.08.09-.2.14-.1.05-.24.05l-.07-.01-.05-.05q-.1-.12-.25-.14l-.32-.04q-.16-.01-.3-.08-.15-.06-.24-.25-.06-.13-.12-.17-.07-.03-.21-.03-.33 0-.63.1t-.6.24q-.29.13-.6.23-.3.1-.61.1-.18 0-.36-.03-.17-.03-.34-.1l-.09.05-.1.01h-.1l-.09-.01-.08.02-.1.04.05.07q-.04.07-.2.13-.16.07-.34.11l-.35.08-.27.03q-.24 0-.4-.09-.14-.07-.3-.26-.04-.08-.13-.15l-.15-.15-.12-.18q-.04-.09-.04-.18 0-.12.12-.19t.28-.12q.17-.05.33-.07l.26-.02q.18 0 .36.05.17.05.35.05.17 0 .32-.05.15-.04.31-.04l.28.02.28.02q.18 0 .35-.06.17-.07.32-.18.06-.36.08-.73.03-.37.03-.74t-.06-.73-.06-.73q0-.03.02-.03h.03l.03-.02q.02-.02.02-.06 0-.16-.05-.3-.04-.16-.04-.31 0-.2.05-.39.05-.18.05-.38 0-.13-.06-.27-.06-.13-.15-.24-.1-.1-.23-.16-.12-.07-.27-.07-.15 0-.31.04l-.31.09-.34.08q-.17.04-.35.04-.22 0-.43-.03l-.43-.07-.23-.03q-.13-.01-.25-.05t-.2-.11q-.09-.08-.09-.22 0-.26.1-.4t.23-.2q.14-.07.31-.09l.33-.03.56-.03q.28-.03.57-.03.35 0 .69.05.34.04.7.04.24 0 .46.07.23.07.4.23.16.15.26.38.1.24.1.54 0 .2-.1.4-.07.19-.2.34.04.1.1.13l.1.06q.04.02.07.07.03.03.03.15l.01.14q.03.07.1.08v2.26q0 .34.05.67.03.21.12.32.1.12.33.12.33 0 .66-.07.33-.08.67-.08.2 0 .36.1l.34.21.31.21q.15.1.29.1.06 0 .1.04l.05.1q.02.05.02.11v.1zm9.7-6.53q0 .15-.05.27-.06.12-.06.26v.05l.01.05h-.11q-.17 0-.34.09-.16.07-.34.07-.19 0-.28-.16l-.25.08-.3.1-.3.13-.2.12-.11.22q-.22.1-.39.27-.15.18-.15.42v.06q-.14.01-.22.1l-.15.22-.13.22q-.06.1-.15.14-.15.07-.19.22-.04.14-.04.3 0 .23.06.5.05.22.2.43.15.22.33.42.19.19.4.37l.37.33.14.16.14.15q.08.07.17.12.08.05.2.05h.14q.19 0 .35.05.17.05.37.05l.13.01.16.01q.07.02.13.06.07.03.1.1v.08l.04.1.04.08q.03.03.08.03l.05-.01.05-.03q-.03.06-.04.13v.32l.01.19v.08q0 .06-.03.12-.01.06-.04.1-.03.04-.08.04-.09 0-.17-.05-.07-.04-.16-.04-.04 0-.09.04l-.1.07q-.06.05-.16.08-.1.04-.29.04-.17 0-.34-.03l-.34-.06-.34-.06q-.17-.03-.34-.03-.18 0-.35.06-.17.07-.35.07-.1 0-.18-.05l-.14-.1q-.06-.06-.14-.11-.07-.06-.16-.07-.15-.02-.21-.08t-.06-.21q0-.17.06-.33l.13-.3.14-.3q.06-.13.06-.27l-.02-.19q-.01-.1-.05-.17-.04-.08-.1-.13-.07-.05-.17-.05l-.1.01q-.05-.05-.09-.14-.03-.1-.07-.17-.04-.08-.1-.14-.06-.06-.15-.06-.1 0-.17.1-.08.09-.14.2l-.12.22q-.06.1-.12.1-.1.08-.22.21t-.12.28q0 .09.06.2l.14.2q.08.11.14.23.06.12.06.24v.1l-.02.13q-.01.07-.04.12-.02.06-.06.08-.04.03-.1.04l-.13.01-.1.04q-.05.03-.05.1v.02l.01.02q-.05-.04-.17-.05h-.18q-.5 0-.99.04-.49.05-.98.05h-.33q-.2-.01-.4-.07-.2-.04-.34-.15-.14-.1-.14-.27 0-.09.02-.17l.07-.15q.09-.18.24-.27.16-.09.33-.12.18-.04.36-.04.2 0 .36-.02.16 0 .28-.02.13-.02.18-.1.16-.2.28-.41.12-.21.27-.4.15-.18.34-.32.2-.14.48-.2.05-.1.07-.18l.06-.16.06-.15q.05-.08.14-.17.09-.07.12-.16t.03-.2q0-.1-.04-.23-.03-.12-.09-.23-.06-.11-.15-.2-.09-.08-.2-.13v-.05q0-.08.05-.13.05-.06.05-.14-.12-.1-.26-.15-.14-.06-.27-.16-.1-.09-.16-.21-.06-.13-.17-.22-.2-.16-.38-.33t-.25-.42l-.07.02q-.14 0-.28-.08-.15-.08-.28-.12l-.4-.08-.5-.1q-.24-.08-.42-.2-.17-.14-.17-.37 0-.15.18-.23.18-.08.41-.1.24-.04.46-.04h.34q.1 0 .17.02l.1.06.08.04.04.02q.04 0 .04-.05t.09-.07q.17-.03.36-.03l.38-.02q.16 0 .3.06.14.05.3.05l.27-.02.27-.02q.2 0 .37.13.17.11.17.34 0 .14-.09.26l-.2.23-.2.24q-.1.12-.1.28 0 .12.13.3.12.17.28.34.17.15.34.27.18.11.29.11.12 0 .3-.12.17-.14.34-.31.16-.18.27-.36.12-.19.12-.3 0-.08-.07-.16-.05-.1-.13-.18l-.14-.2q-.06-.1-.06-.25 0-.23.15-.38.16-.14.37-.23.22-.09.46-.12.24-.03.41-.03.18 0 .31.03.14.03.25.08l.22.08q.1.03.21.03.15 0 .3-.03l.27-.06.2-.07.1-.03q.1 0 .2.06.12.04.22.12.11.07.2.16l.18.15zm8.1 5.26q0 .2-.06.34t-.16.26q-.1.1-.24.2l-.26.21q-.1.1-.18.14l-.17.07-.16.06-.2.09q-.15.07-.25.14l-.2.11q-.1.05-.22.08-.12.04-.3.06l-.6.1q-.3.04-.6.04-.06 0-.13-.03l-.14-.05-.2-.05q-.09-.02-.23-.02-.15 0-.24-.05-.09-.04-.16-.1l-.15-.13q-.07-.07-.2-.13-.44-.2-.75-.48-.32-.29-.54-.64-.23-.35-.38-.76-.15-.41-.25-.86-.08-.32-.08-.63 0-.41.2-.76-.08-.21-.08-.4 0-.15.08-.43t.2-.57q.14-.28.3-.5.15-.24.28-.29l.15-.06q.04-.03.04-.15 0-.09.07-.15t.17-.1l.2-.06.17-.06q.28-.14.53-.23.25-.1.5-.15.25-.07.52-.1t.58-.03q.16 0 .32.04.16.05.3.12l.3.16.27.17q.1.01.2.06.1.05.22.06.1.13.27.25.17.11.33.24t.27.28q.12.14.12.33v.06l-.01.06.03-.03q.03.02.05.07l.05.12q.03.06.04.13l.02.1q.06.1.16.15.1.06.17.17-.08.07-.08.19 0 .13.05.25.06.12.06.25l-.02.3-.01.28q0 .11-.1.17-.08.06-.18.1l-.18.1q-.08.04-.08.12 0 .06-.08.06h-.11q-.33 0-.66-.09-.32-.08-.64-.08-.35 0-.7.05-.34.05-.7.05l-.52-.02-.51-.01-.26.03-.4.06q-.2.04-.38.1-.19.05-.26.1l-.01.11q0 .35.2.73.21.37.55.68.33.3.75.5t.85.2q.24 0 .48.03.25.01.48.1.2-.1.37-.22l.33-.27.3-.3.31-.29q.03-.03.14-.05l.26-.05.25-.03.17-.01q.18 0 .33.05.04.17.04.34zm-1.11-3.04q0-.11-.04-.22-.04-.1-.06-.21-.04-.21-.04-.4 0-.21-.06-.41 0 .04-.03.09-.03.03-.09.03-.09 0-.17-.04-.08-.04-.14-.11l-.52-.24q-.22-.11-.45-.2-.23-.09-.49-.13-.25-.05-.6-.05h-.05q-.02 0-.05.03l.04.08-.06.01-.33.08q-.13.03-.24.09-.1.06-.2.15l-.26.21q-.08.07-.16.1l-.18.07-.16.05q-.08.03-.13.1-.05.19-.16.37-.1.17-.1.36 0 .11.1.2.1.09.24.15.15.06.32.1.18.05.35.07l.31.04h.24q.28 0 .56-.05.27-.06.56-.06.29 0 .58.03l.58.02h.23l.3-.04q.14-.04.25-.1.1-.07.1-.17zm10.01 4.21q0 .26-.18.41-.17.16-.42.23-.24.09-.51.1-.26.03-.45.03-.25 0-.41-.04l-.28-.1-.2-.1q-.1-.04-.2-.04-.12 0-.25.05-.12.04-.25.04-.09 0-.15-.03l-.09-.07-.07-.07q-.03-.03-.08-.03t-.08.04l-.06.1q-.04.05-.12.09-.06.04-.2.04-.16 0-.3-.04-.16-.03-.31-.03-.16 0-.32.06-.15.06-.28.06-.06 0-.1-.05-.02-.04-.06-.04-.13 0-.27.06-.13.06-.27.06-.08 0-.15-.02l-.15-.01q-.12 0-.25.06t-.31.06l-.3-.03q-.23-.01-.47-.05-.24-.04-.43-.1-.19-.05-.19-.12 0-.19.07-.38.07-.2.07-.38v-.01q-.1 0-.1-.1 0-.04.04-.05.03-.03.07-.03l.07-.04q.03-.02.03-.07V114l.58.04h1.25q.36-.03.66-.12.3-.09.5-.27.22-.19.22-.52v-.18l-.08-1.61q-.04-.8-.04-1.63 0-.21-.04-.42-.03-.2-.03-.41 0-.27.09-.53.1-.26.3-.44 0-.04-.04-.06l-.07-.03-.1-.01-.06-.03q-.04-.02-.06-.1l-.03-.18q0-.1-.02-.19 0-.1-.05-.15l.08-.42q.05-.21.05-.43 0-.16-.04-.25t-.1-.15l-.1-.1q-.03-.05-.03-.13 0-.06.04-.11h-.06q-.08 0-.11.03l-.08.08q-.03.05-.07.08-.03.04-.1.04l-.12-.02q-.13.04-.24.04-.26 0-.52-.07-.26-.08-.52-.08l-.28.02H178q-.19 0-.38-.04-.2-.04-.35-.2v-.08q0-.4.26-.6.27-.2.65-.2.27 0 .52.06.25.07.52.07.14 0 .3-.03l.32-.07.33-.06q.17-.03.33-.03.26 0 .48.1l.45.21v.06q0 .07.02.13l.09.11.07.11q.04.05.04.12l-.02.14-.02.12q0 .17.06.32.07.15.07.32 0 .18-.05.35-.03.17-.03.35 0 .22.05.44.05.21.05.43 0 .18-.06.35-.05.17-.05.35 0 .12.03.25l.08.24q.05.12.08.25.03.12.03.25v.15q0 .12-.02.23-.01.1-.1.2l.08.31q.04.17.04.32l-.01.16q0 .08-.04.17-.02.08-.07.16-.04.07-.1.11.1.29.13.58l.04.58q0 .1.03.23l.05.29.03.25.03.16q0 .13-.05.25-.04.11-.04.24 0 .1.04.21.05.1.16.1.1 0 .15-.03l.15-.1.17-.08q.1-.05.28-.05.19 0 .36.06.17.05.37.05l.28-.02.29-.06.28-.07q.14-.03.3-.03.3 0 .5.17t.2.51zm-4.3-9.31-.07-.06q-.03-.03-.09-.03-.03 0-.06.04-.03.03-.03.06l.04.1h.05q.06 0 .1-.03l.07-.08zm.46 2.08q0-.06-.04-.12-.03-.07-.1-.07h-.06l-.03.02v.32l.09.03q.07 0 .1-.06.04-.06.04-.12zm12.48 6.31q0 .13-.05.24l-.08.23-.05.17q0 .07-.03.12-.02.05-.07.1l-.15.08-.48.25q-.25.12-.5.12-.22 0-.41-.1-.19-.1-.35-.22l-.3-.23q-.12-.1-.21-.1-.1 0-.17.04l-.15.12q-.06.06-.15.1-.09.06-.21.06-.1 0-.22.04l-.22.09-.24.1-.2.07q-.34.09-.69.1-.33.02-.68.02h-.27q-.2 0-.39-.04-.18-.03-.33-.1-.14-.08-.14-.22v-.05q-.05.06-.12.1-.06.03-.15.03-.12 0-.29-.16-.17-.17-.33-.38-.15-.22-.27-.43-.1-.22-.1-.32 0-.08.04-.15.05-.07.05-.15 0-.1-.03-.2l-.02-.2q0-.13.05-.28.05-.16.13-.3l.15-.3.15-.28q.08-.15.21-.24.14-.1.29-.16l.3-.13q.14-.07.26-.18.1.12.29.12.19 0 .37-.05.17-.06.36-.06.15 0 .29.03.14.03.29.03.16 0 .24-.04.08-.04.2-.15.12-.1.3-.15l.38-.1.4-.07q.2-.04.36-.1.15-.08.25-.2.1-.12.1-.34 0-.24-.15-.5-.13-.27-.35-.49-.21-.22-.48-.37-.26-.14-.5-.14l-.06.01h-.05q-.18.04-.4.05-.23 0-.42.07-.2.05-.33.19-.14.12-.14.38 0 .15.03.3.03.14.03.29 0 .22-.12.37-.1.15-.27.24-.17.1-.37.13-.2.03-.39.03-.22 0-.39-.06-.16-.06-.27-.28l-.18-.33q-.09-.2-.09-.38 0-.2.07-.37l.17-.35.17-.33q.09-.18.13-.37l.14-.06.2-.06.2-.05.18-.05.35-.12.34-.14.35-.1q.18-.05.37-.06h.23q.32 0 .66.06.33.05.66.17.32.12.6.3.3.17.52.41.16.18.27.43.11.24.17.5.07.27.09.55.03.27.03.5 0 .32-.02.62t-.02.62q0 .3.03.6l.08.59q.05.29.08.59.04.29.04.58.01.18.04.22.04.04.08.04.16 0 .26-.1t.18-.22l.18-.23q.1-.1.25-.1h.14q.07 0 .13.04.06.02.1.07.04.05.04.13zm-2.47-1.86v-.16l-.02-.22q-.01-.12-.05-.21-.03-.1-.1-.1l-.03.02-.04.01-.49.26q-.2.1-.4.17-.2.06-.42.08-.23.02-.56.02l-.25.04-.44.09q-.24.04-.45.1l-.26.05q-.1.04-.14.08l-.06.08-.05.1-.08.1-.16.1q-.09.03-.16.1-.11.12-.21.3-.1.18-.1.35 0 .2.1.36.11.16.28.27.17.11.4.2.2.07.43.12l.42.07.36.02.43-.02q.24-.03.5-.09.24-.06.46-.15.21-.1.34-.25l.07-.1.05-.1.06-.1q.04-.06.11-.12.17-.14.26-.31.1-.17.14-.36.05-.19.06-.4v-.4zm10.01.51q0 .24-.05.46l-.12.42-.14.42q-.07.2-.1.43-.07.38-.28.62-.2.25-.48.4-.29.14-.64.2-.34.08-.7.12-.37.04-.73.05-.35.02-.65.06-.12-.09-.2-.18l-.13-.19q-.07-.08-.15-.14-.09-.05-.22-.05-.04 0-.07-.12l-.05-.28-.05-.28q-.02-.13-.07-.13-.17 0-.28-.07-.1-.07-.15-.19-.06-.12-.08-.26l-.01-.28q0-.1-.05-.19-.04-.09-.1-.17l-.1-.18q-.04-.1-.04-.19l.01-.28.02-.35.02-.35.02-.28q0-.14.03-.23l.08-.15.08-.12q.03-.06.03-.12 0-.1-.04-.15-.04-.06-.04-.12 0-.09.05-.16.06-.08.08-.16.08-.33.08-.66v-.12l-.01-.13q-.17-.14-.38-.18l-.42-.06-.4-.05q-.2-.03-.34-.16l-.2-.23q-.09-.14-.24-.18-.1-.04-.18-.1-.06-.06-.06-.18 0-.18.1-.27.11-.1.26-.15l.3-.1q.17-.05.29-.13.1-.08.26-.08h.27q.18 0 .3-.05.13-.07.2-.17.07-.12.1-.26t.03-.3q0-.25-.03-.47-.03-.22-.03-.46 0-.28.07-.51.07-.23.28-.43l.1-.1q.05-.06.11-.1.06-.07.12-.1.07-.04.14-.04.04 0 .07.02l.08.04q.16.17.2.25.06.08.06.18v.32q0 .23.05.47.06.23.06.4 0 .14-.06.27-.05.13-.05.27 0 .1.04.2l.12.16.12.17q.05.08.05.2.07.05.34.1l.58.06.65.04.55.01q.2 0 .3.03.1.03.17.07l.13.07q.06.03.16.04.12.02.2.07.1.04.1.19 0 .17-.1.28-.1.1-.24.16-.13.05-.29.06l-.3.01-.43-.01q-.21-.02-.43-.02-.36 0-.65.07-.3.07-.5.22-.22.16-.34.42-.11.26-.11.64 0 .39.04.75.06.37.06.75v.58q.02.21.1.36.1.22.15.5.06.27.15.52.1.25.26.42.17.16.5.16.12 0 .3-.03.19-.03.38-.09.18-.06.32-.16.13-.1.13-.25 0-.13-.07-.26-.08-.13-.08-.28 0-.1.05-.18.05-.08.13-.14l.16-.12.17-.09q.14-.17.32-.28.2-.12.42-.12.14 0 .28.05t.26.14q.02.13.02.27zm8.02 1.1q0 .2-.07.34-.05.14-.16.26l-.23.2-.26.21q-.1.1-.19.14l-.16.07-.17.06-.2.09-.25.14-.2.11q-.1.05-.22.08-.12.04-.3.06l-.6.1q-.3.04-.6.04-.06 0-.13-.03l-.14-.05-.19-.05q-.1-.02-.24-.02-.15 0-.24-.05-.09-.04-.16-.1l-.14-.13q-.08-.07-.2-.13-.45-.2-.76-.48-.31-.29-.54-.64-.22-.35-.37-.76-.15-.41-.26-.86-.08-.32-.08-.63 0-.41.2-.76-.08-.21-.08-.4 0-.15.08-.43t.21-.57q.14-.28.29-.5.15-.24.29-.29l.14-.06q.05-.03.05-.15 0-.09.06-.15.08-.06.17-.1l.2-.06.18-.06q.28-.14.52-.23.26-.1.5-.15.26-.07.53-.1t.57-.03q.17 0 .32.04.16.05.3.12l.3.16.27.17q.1.01.2.06.11.05.22.06.1.13.27.25.17.11.33.24t.28.28q.12.14.12.33l-.01.06v.06l.02-.03q.03.02.05.07l.06.12.03.13.03.1q.06.1.15.15.1.06.17.17-.08.07-.08.19 0 .13.06.25.05.12.05.25l-.02.3-.01.28q0 .11-.1.17-.07.06-.18.1l-.18.1q-.08.04-.08.12 0 .06-.07.06h-.12q-.33 0-.66-.09-.32-.08-.64-.08-.35 0-.7.05-.34.05-.69.05l-.52-.02-.52-.01-.25.03-.4.06q-.2.04-.39.1-.19.05-.26.1v.11q0 .35.2.73.2.37.54.68.34.3.76.5.41.2.84.2.25 0 .49.03.24.01.48.1.2-.1.36-.22l.33-.27q.16-.14.3-.3l.31-.29q.03-.03.15-.05l.25-.05.26-.03.17-.01q.17 0 .32.05.04.17.04.34zm-1.12-3.04q0-.11-.04-.22l-.06-.21q-.03-.21-.03-.4 0-.21-.06-.41h-.01q0 .04-.03.09-.03.03-.08.03-.1 0-.18-.04-.08-.04-.14-.11l-.51-.24-.46-.2q-.22-.09-.49-.13-.25-.05-.59-.05h-.06q-.02 0-.04.03l.04.08-.06.01-.34.08q-.13.03-.23.09l-.21.15-.26.21q-.07.07-.16.1l-.17.07-.17.05q-.07.03-.13.1-.05.19-.15.37-.1.17-.1.36 0 .11.09.2.1.09.24.15.15.06.32.1.18.05.35.07l.32.04h.23q.28 0 .56-.05.28-.06.56-.06.3 0 .58.03l.59.02h.22l.3-.04q.14-.04.25-.1.11-.07.11-.17zm10.92 4.28q0 .1-.05.2-.05.09-.16.09l-.15-.01q-.06-.03-.15-.03-.12 0-.12.05l-.02.1q-.01.05-.11.1-.1.04-.39.04-.17 0-.34-.03t-.34-.03q-.13 0-.28.04-.06-.07-.13-.11l-.14-.08q-.06-.04-.1-.1-.05-.06-.05-.18 0-.08-.1-.08h-.08l-.06.01-.07-.01q-.02-.02-.02-.06v-.02q-.15 0-.24.1l-.18.2q-.06.07-.14.1-.07.04-.15.06l-.17.07q-.08.03-.16.1-.07.08-.23.1-.16.04-.33.06l-.35.02h-.26q-.22 0-.37-.03-.13-.04-.24-.1l-.23-.12q-.12-.06-.3-.12-.2-.06-.5-.22-.28-.17-.54-.38-.25-.22-.43-.47-.18-.25-.18-.48 0-.1-.05-.21-.05-.11-.12-.21l-.15-.2q-.07-.1-.11-.2-.15-.28-.2-.6-.03-.31-.03-.62 0-.3.05-.56.04-.27.1-.52l.14-.52q.08-.25.14-.53.03-.2.1-.3.07-.1.15-.17l.19-.14q.1-.07.2-.2.05-.05.06-.09l.02-.06q.02-.03.05-.04.04-.02.13-.02.06 0 .1-.03l.06-.1.05-.1q.03-.06.08-.09.04-.03.1-.04l.15-.03.14-.01q.08 0 .14-.03l.25-.12.2-.09.21-.07q.12-.02.32-.02.25 0 .5.07l.5.13.5.14q.24.06.5.06.21 0 .33-.09.13-.09.19-.23.07-.14.08-.31l.02-.34q0-.29-.03-.57l-.06-.58-.06.03q-.08 0-.14-.04l-.11-.09-.11-.09q-.06-.04-.14-.04-.08 0-.1.04-.02.04-.08.08l-.17.01h-.49q-.1 0-.24-.06-.13-.06-.25-.16t-.2-.22q-.08-.12-.08-.23 0-.1.06-.2.07-.11.16-.2.1-.1.21-.15.11-.06.22-.06.1 0 .18.06.08.04.18.04.16 0 .31-.05.16-.05.33-.05t.32.06q.16.05.33.05h.26l.26-.02q.13 0 .27.03.14.02.26.09v.04l.02.21.06.2.06.2q.03.1.03.2 0 .13-.07.26-.06.12-.06.26 0 .26.06.53.06.25.06.51v1.32l-.01 1.32q0 .67-.05 1.33-.04.66-.04 1.34l.02.56q.02.3.12.58.1.27.29.46.19.18.53.18h.12l.14-.02q.1 0 .17.05.07.06.13.14.05.08.07.18.03.1.03.18zm-2.71-3.71q0-.28-.06-.6-.04-.3-.17-.58-.12-.27-.33-.46-.21-.19-.54-.2-.06 0-.16-.06l-.19-.11-.2-.1q-.08-.06-.16-.06-.06 0-.12.03l-.12.06-.12.06q-.06.02-.14.02l-.24-.01-.24-.02q-.38 0-.68.23-.3.22-.52.56-.22.33-.34.71-.12.39-.12.7l.02.28q.02.13.02.27 0 .09-.05.15l-.11.1-.12.13q-.04.06-.04.15h.06q.2 0 .3.07.11.07.16.19.06.11.1.26l.07.3q.05.16.13.3.1.14.26.25l.26.18.3.18.33.14q.16.06.31.06.24 0 .47-.07.23-.07.47-.07l.2.02q.17-.27.4-.51.23-.25.55-.35v-.16q0-.25.05-.48l.13-.48.12-.51q.06-.27.06-.57z" aria-label="Pixelated"/><path d="M151.12 144.8q0 .1-.07.16t-.16.1l-.2.1-.16.06-.1.07-.08.08-.1.06-.11.06-.17.02-.15.01q-.06.01-.12.06-.05.04-.1.15-.05.1-.07.24-.01.12-.05.24t-.11.2q-.07.09-.22.09 0 .08.05.17l.12.16.12.18q.05.08.05.16 0 .09-.03.17-.04.08-.04.17v.46q-.01.15.05.3.06.14.06.3 0 .09-.03.18-.04.08-.04.18 0 .31.06.63.07.3.07.63 0 .22-.04.47-.04.25-.18.42 0 .1.04.18l.08.15.07.17q.03.1.03.24 0 .14-.03.36-.02.22-.09.43-.06.2-.18.36-.12.15-.3.15h-.03l-.02-.01v.07q0 .1.05.18.07.09.07.2 0 .04-.07.13l-.15.17q-.08.09-.18.17l-.15.14q-.07.07-.1.14l-.07.1q-.03.05-.1.1l-.16.04q-.2.04-.34.12l-.3.15q-.14.08-.3.13-.17.06-.4.06-.12 0-.24-.03l-.24-.07-.25-.07q-.12-.03-.24-.03l-.2.01-.18.01h-.12q-.04-.01-.1-.07-.03-.04-.11-.08l-.16-.07-.18-.06-.15-.04q-.14-.04-.27-.15-.12-.11-.22-.25-.1-.15-.18-.31l-.12-.29q-.09-.25-.13-.51l-.06-.53-.05-.53q-.02-.27-.09-.54l-.07-.2q-.03-.12-.03-.23l.02-.16.03-.16q.06-.31.09-.64.04-.32.04-.64 0-.43-.05-.85-.04-.41-.04-.84v-.16l.01-.15.06-.3q.05-.14.05-.29l-.01-.1-.03-.1q-.1-.19-.1-.34l-.04-.38q-.03-.32-.13-.45-.1-.14-.26-.2-.14-.06-.33-.1-.18-.04-.38-.2-.06-.03-.1-.08-.05-.06-.05-.13 0-.12.13-.21.14-.1.32-.16l.35-.1q.18-.03.28-.03.12 0 .23.03.1.03.23.03.24 0 .46-.05.23-.06.47-.06.1 0 .3.04.2.03.4.1.2.08.35.18.16.1.16.22 0 .17-.1.32-.1.14-.25.28l-.33.27q-.18.14-.33.3-.14.17-.25.38-.1.2-.1.46l.01.3.02.3q0 .3-.06.6-.06.29-.06.6 0 .24.07.44.08.2.08.31 0 .12-.03.22t-.03.21v.1l.01.1q0 .12-.04.2l-.06.13-.08.11q-.04.05-.04.12l.08-.05q.04-.03.08-.03.05 0 .08.04l.05.1.03.1v.09q0 .2.06.38.06.19.06.38 0 .17-.03.35-.03.17-.03.35 0 .17.02.32.03.15.2.24.03.01.07.09l.07.16.1.17q.04.09.08.12l.2.14.2.1.22.1q.1.06.18.16.07.08.18.15l.2.13q.1.07.18.15.07.08.07.2 0-.1.03-.16v.07q0 .06-.02.1l.05-.08.06-.1.06-.1q.03-.03.07-.03.05 0 .1.03.04.04.04.1 0 .07-.03.14l-.04.14q.08 0 .15-.03.08-.03.15-.09.07-.05.1-.12.05-.07.05-.15 0-.1-.06-.12-.05-.03-.13-.03h-.12l-.11.01h-.03q.04-.11.12-.18.07-.08.17-.12.1-.06.2-.09l.2-.07q.16-.06.26-.16t.17-.22.17-.22q.08-.12.2-.22v-.49l-.01-.31q0-.18.04-.35.05-.17.05-.34 0-.15-.03-.29-.04-.14-.04-.29 0-.13.04-.26.03-.14.03-.27 0-.22-.03-.42-.04-.2-.04-.42 0-.28.04-.55.06-.27.06-.55 0-.36-.07-.7-.06-.34-.06-.7v-.14q0-.09.02-.17.02-.1.06-.15.04-.07.11-.07-.06 0-.17-.09l-.2-.2-.16-.2q-.06-.12-.06-.18l-.08.01h-.07q-.1 0-.2-.03l-.18-.08-.19-.08q-.1-.04-.2-.04h-.04q-.03-.18-.1-.36-.06-.17-.06-.36 0-.15.08-.24.08-.1.2-.14.12-.05.25-.06l.26-.02.4.02q.21.03.42.03.16 0 .3-.07.13-.08.27-.08.09 0 .18.04l.18.08.2.08.18.06q.14.02.3.02l.32.01q.16.02.3.06.14.04.26.15.06.05.1.12.06.06.06.15zm8.53 6.48q0 .32-.06.63-.07.3-.12.62l-.02.2-.01.16-.06.15q-.03.08-.1.16-.1.1-.14.22l-.08.24q-.04.13-.1.2-.05.06-.12.1l-.14.1q-.06.03-.14.11l-.06.1-.01.11-.04.1q-.02.04-.1.07-.12.05-.17.12l-.13.14q-.09.08-.22.15-.13.09-.28.15-.14.06-.29.1-.15.03-.26.03-.14 0-.29-.03-.13-.03-.27-.03-.09 0-.13.02l-.07.06-.07.06q-.02.03-.1.03-.12 0-.37-.1l-.52-.23-.52-.22q-.26-.1-.4-.1-.11 0-.19.09-.06.08-.1.2-.05.14-.08.29l-.02.3v.31q0 .07-.02.1l-.07.01h-.13q0 .08.03.19l.09.21.1.23.06.21q.05.24.1.35.06.1.15.14.1.04.23.03l.34.02.21.04q.11.03.2.08.1.06.15.14.06.09.06.2 0 .25-.15.36-.14.1-.36.1-.3 0-.62-.04-.3-.05-.6-.05-.34 0-.67.04-.32.04-.64.04-.08 0-.23-.03-.14-.03-.3-.1-.14-.04-.25-.13-.1-.07-.1-.17 0-.07.07-.13.08-.06.18-.1.1-.05.21-.08.1-.03.17-.03.13 0 .24-.04l.23-.08.23-.1q.11-.03.24-.03.06-.28.08-.57.02-.28.02-.57v-.8q0-.4.05-.8.06-.38.06-.78l-.02-.5-.03-.5q-.03-.02-.06-.19l-.06-.37-.03-.38-.02-.25q0-.08.02-.14l.06-.11.06-.1q.03-.03.03-.06l-.03-.05-.05-.11-.04-.15q-.03-.09-.03-.17 0-.24.06-.48t.06-.48q0-.32-.24-.56l-.18-.17q-.06-.06-.13-.08-.07-.03-.16-.04l-.24-.04q-.09 0-.24-.04l-.28-.1-.26-.15q-.1-.08-.1-.18 0-.12.12-.21.12-.1.28-.15.16-.06.33-.09.16-.03.26-.03t.2.03q.11.01.19.09.08-.09.2-.1.12-.04.23-.04.32 0 .5.1.17.1.26.22.1.1.17.2t.16.1q.06 0 .11-.02l.12-.05q.16-.08.48-.18.31-.11.66-.21.35-.1.67-.17.33-.07.5-.07.07 0 .22.04l.35.1.39.16q.2.08.37.17l.3.18q.13.08.17.15.08.13.17.23.1.1.26.15.04.06.05.13l.01.14v.14q0 .15.06.23.05.09.11.15l.11.1q.05.05.05.14 0 .05-.03.1-.03.03-.03.08 0 .1.06.23l.1.25q.07.14.12.3.05.15.05.34zm-3.42-3.19q0-.04-.04-.07-.04-.04-.07-.04-.08 0-.1.08l-.02.14.01-.02h.02l-.03.02.14-.01q.09-.03.09-.1zm2.54 3.42q0-.23-.06-.43-.06-.22-.15-.42-.09-.2-.2-.39l-.23-.36q-.03-.05-.03-.1l-.01-.11-.01-.11q-.01-.06-.05-.1-.06-.08-.11-.08l-.1-.03q-.05 0-.11-.03-.05-.03-.1-.14-.04-.06-.17-.15-.12-.08-.27-.15-.14-.08-.28-.12-.14-.06-.21-.06-.15 0-.3.07-.14.06-.3.06-.1 0-.19-.04l-.16-.07-.16-.08q-.08-.04-.17-.04h-.04l.01.12q0 .07-.02.11-.03.04-.09.07l-.1.06-.1.05q-.07.08-.07.16 0 .09-.08.09-.05 0-.08-.02 0 .05-.03.08l-.07.03-.07.04q-.04.02-.05.06-.1 0-.18.12-.08.1-.14.27-.06.17-.1.37l-.08.4-.04.35-.02.23q0 .27.03.54.04.26.04.53l-.02.4-.02.42.36.4q.17.2.36.37.2.16.43.27.23.1.53.11.12 0 .24.03l.24.06.23.06.24.02q.12 0 .24-.04.13-.05.25-.13.13-.07.24-.16l.19-.17q.06-.07.14-.1.09-.02.15-.08l.06-.1.02-.1.04-.1q.02-.06.09-.1l.18-.1q.03-.04.03-.13v-.14q0-.07.04-.1l.08-.07.09-.09q.03-.06.03-.2l-.01-.18-.02-.2q0-.1.03-.18l.08-.15.07-.14q.04-.08.04-.16zm8.87 1.12q0 .1-.03.2l-.08.18-.09.18q-.04.1-.05.19-.04.2-.16.37-.11.15-.26.3-.15.14-.32.27-.16.13-.29.26-.1.12-.24.12l-.14-.02-.14-.01q-.1 0-.17.03l-.12.09-.14.07q-.07.04-.2.04-.1 0-.2.05-.08.05-.17.05-.13 0-.3-.07-.17-.08-.37-.08-.13 0-.25.02h-.26q-.1 0-.22-.03l-.21-.07-.2-.07q-.1-.04-.22-.04-.22 0-.38.11t-.29.25q-.12.14-.24.25-.12.11-.28.11-.14 0-.2-.05-.04-.04-.05-.11l-.02-.15q0-.08-.07-.14-.1-.12-.15-.21-.03-.1-.03-.27 0-.36.06-.7.06-.34.06-.7 0-.13-.03-.25l-.07-.21-.07-.17-.03-.1q0-.06.04-.14l.08-.13q.05-.07.1-.1.07-.05.1-.05.08 0 .13.03l.11.09.12.07q.06.04.14.04h.04q.1.16.17.37l.12.39q.06.18.15.36.1.17.27.3l.1.1.13.08.12.08q.07.03.12.03.09 0 .16-.02l.17-.01q.1 0 .1.07v.06h.14q.28 0 .56-.07.29-.06.58-.06.13 0 .27.03.14.02.25.1.15-.07.24-.17l.2-.2q.1-.1.21-.18.12-.09.31-.1.04-.04.04-.1v-.11l.01-.11.06-.1q.08-.07.11-.13.05-.08.05-.18 0-.2-.11-.38-.12-.18-.3-.32-.17-.15-.4-.26-.22-.12-.46-.2-.23-.09-.45-.12-.22-.05-.38-.05-.19 0-.38.04-.18.03-.35.11 0-.16-.07-.22-.08-.05-.18-.07l-.22-.06q-.1-.04-.16-.19-.13.17-.33.24-.18.08-.38.08t-.36-.08q-.16-.07-.3-.2-.12-.13-.2-.3-.08-.16-.09-.34 0-.13-.05-.23-.04-.1-.1-.18l-.1-.2q-.03-.09-.03-.22 0-.34.03-.53.04-.2.09-.29.05-.1.11-.14l.13-.08q.07-.05.13-.12.06-.08.1-.24.02-.11.07-.15.04-.04.15-.05.1-.02.13-.05.03-.03.04-.07l.03-.07q.01-.05.07-.08.16-.1.31-.13.16-.03.32-.03h.39l.6-.02q.3-.03.62-.03.24 0 .43.05.2.04.35.1l.26.12q.11.04.18.04.13 0 .24-.04.12-.06.25-.06l.13.1q.08.03.16.03.06 0 .1-.04.02-.03.03-.1.1.04.2.11.1.08.18.18.08.1.12.22.05.11.05.21 0 .28-.05.56-.03.27-.03.54 0 .29.07.54-.1.08-.23.14-.12.06-.2.18l-.01-.01-.14-.11q-.07-.08-.16-.14l-.16-.12q-.09-.05-.15-.05h-.02l-.07-.05q-.02-.03-.02-.08 0-.07.05-.13.04-.06.04-.14 0-.02-.07-.1-.06-.08-.15-.16-.09-.1-.17-.16-.08-.08-.12-.08l-.15-.06-.17-.07-.16-.07q-.06-.03-.1-.03-.1 0-.2.03l-.2.03-.33-.04q-.25-.03-.5-.12-.23-.09-.48-.09-.23 0-.33.1-.1.11-.18.25-.06.13-.13.23t-.22.1h-.07l.13.4q.07.17.16.3.09.13.22.25.14.11.35.24l.06.06.09.08.08.07q.04.03.07.03.12 0 .24-.06t.24-.06q.1 0 .17.04.08.04.17.04.09 0 .17-.03.08-.04.18-.04h.08l.08.02q.22.06.45.06h.45q.17 0 .33.06.18.06.33.16.16.09.3.21.13.12.23.25.07.1.16.18l.17.18q.1.08.16.18.07.1.1.22.03.15.1.33.06.18.06.32zm5.67-7.1q0 .22-.07.45t-.2.42q-.14.19-.33.31t-.42.12q-.16 0-.4-.04-.22-.05-.44-.14-.2-.1-.37-.25-.15-.15-.15-.35 0-.18.04-.37.05-.2.05-.39.08-.03.15-.13l.15-.2.14-.18q.07-.09.15-.1l-.04.02.22-.07q.12-.03.24-.03.15 0 .37.08.22.07.43.2.2.13.34.3.14.17.14.35zm3.62 9.1q0 .13-.05.25-.04.1-.13.19t-.2.14q-.11.05-.25.05l-.06-.01-.05-.05q-.11-.12-.26-.14l-.31-.04q-.16-.01-.31-.08-.14-.06-.23-.25-.06-.13-.13-.17-.07-.03-.2-.03-.34 0-.64.1t-.59.24q-.29.13-.6.23-.3.1-.62.1-.18 0-.36-.03-.17-.03-.33-.1l-.1.05-.1.01h-.1l-.08-.01-.09.02-.09.04.05.07q-.05.07-.2.13-.16.07-.35.11l-.35.08q-.17.03-.26.03-.24 0-.4-.09-.15-.07-.3-.26-.05-.08-.13-.15l-.15-.15-.12-.18q-.05-.09-.05-.18 0-.12.12-.19t.29-.12q.16-.05.33-.07l.25-.02q.18 0 .36.05t.36.05q.16 0 .31-.05.15-.04.32-.04.14 0 .27.02l.29.02q.18 0 .34-.06.18-.07.32-.18.06-.36.09-.73t.03-.74q0-.37-.06-.73-.06-.37-.06-.73l.01-.03h.03l.04-.02.01-.06q0-.16-.04-.3-.05-.16-.05-.31 0-.2.06-.39.05-.18.05-.38 0-.13-.06-.27-.06-.13-.16-.24-.1-.1-.22-.16-.13-.07-.27-.07-.16 0-.32.04l-.3.09-.35.08q-.16.04-.35.04-.21 0-.42-.03l-.43-.07-.24-.03q-.13-.01-.25-.05t-.2-.11q-.08-.08-.08-.22 0-.26.09-.4.1-.14.23-.2.14-.07.32-.09l.32-.03.57-.03q.28-.03.56-.03.36 0 .7.05.34.04.69.04.24 0 .47.07.22.07.39.23.17.15.27.38.1.24.1.54 0 .2-.1.4-.08.19-.21.34.05.1.1.13l.1.06q.04.02.07.07.03.03.03.15l.02.14q.02.07.1.08v.8l-.01.79v.67q0 .34.06.67.03.21.12.32.09.12.32.12.34 0 .67-.07.33-.08.66-.08.2 0 .37.1l.34.21.31.21q.15.1.28.1.06 0 .1.04.04.04.05.1.03.05.03.11v.1zm9.16-.03q0 .1-.05.2-.05.09-.16.09l-.15-.01q-.07-.03-.15-.03-.12 0-.13.05l-.01.1q-.02.05-.11.1-.1.04-.4.04-.16 0-.34-.03-.16-.03-.33-.03-.13 0-.28.04-.06-.07-.13-.11l-.14-.08q-.06-.04-.1-.1-.05-.06-.05-.18 0-.08-.1-.08h-.08l-.07.01-.06-.01q-.03-.03-.03-.06l.01-.02q-.16 0-.24.1l-.18.2q-.06.07-.14.1-.07.04-.16.06l-.16.07q-.08.03-.17.1-.06.08-.22.1-.16.04-.34.06l-.34.02h-.26q-.23 0-.37-.03-.13-.04-.25-.1l-.22-.12q-.12-.06-.3-.12-.2-.06-.5-.22-.28-.17-.54-.38-.25-.22-.43-.47-.18-.25-.18-.48 0-.1-.06-.21-.04-.11-.12-.21l-.14-.2-.12-.2q-.14-.28-.18-.6-.04-.31-.04-.62 0-.3.04-.56.05-.27.12-.52l.13-.52q.08-.25.13-.53.04-.2.11-.3.07-.1.15-.17.09-.08.19-.14.1-.07.2-.2.05-.05.06-.09l.02-.06q.02-.03.05-.04.03-.02.13-.02.06 0 .09-.03l.07-.1.05-.1q.03-.06.07-.09.05-.03.12-.04l.14-.03.14-.01q.08 0 .14-.03l.25-.12.2-.09.21-.07q.12-.02.32-.02.25 0 .5.07l.5.13q.24.08.5.14.24.06.5.06.21 0 .33-.09.13-.09.19-.23t.08-.31l.02-.34q0-.29-.04-.57l-.05-.58-.07.03q-.07 0-.13-.04l-.11-.09-.12-.09q-.06-.04-.13-.04-.08 0-.1.04l-.08.08-.17.01h-.5q-.1 0-.23-.06t-.25-.16q-.12-.1-.2-.22-.08-.12-.08-.23 0-.1.06-.2.07-.11.16-.2.1-.1.2-.15.12-.06.23-.06.1 0 .17.06.09.04.18.04.17 0 .32-.05.16-.05.33-.05t.32.06q.16.05.33.05h.25l.26-.02q.14 0 .27.03.15.02.27.09v.04l.02.21.06.2.06.2q.03.1.03.2 0 .13-.07.26-.06.12-.06.26 0 .26.06.53.06.25.06.51v1.32l-.01 1.32q0 .67-.05 1.33-.04.66-.04 1.34l.02.56q.02.3.12.58.1.27.28.46.2.18.53.18h.13l.14-.02q.1 0 .17.05.07.06.12.14.06.08.08.18.03.1.03.18zm-2.72-3.71q0-.28-.05-.6-.04-.3-.17-.58-.12-.27-.34-.46-.2-.19-.53-.2-.07 0-.16-.06l-.19-.11-.2-.1q-.08-.06-.16-.06-.07 0-.13.03l-.12.06-.12.06q-.06.02-.13.02l-.25-.01q-.1-.02-.24-.02-.37 0-.68.23-.3.22-.51.56-.22.33-.34.71-.12.39-.12.7l.02.28q.02.13.02.27 0 .09-.05.15l-.12.1q-.06.06-.1.13-.05.06-.05.15h.06q.19 0 .3.07.1.07.16.19.06.11.09.26l.08.3q.05.16.13.3.09.14.25.25l.27.18q.14.1.3.18l.32.14q.17.06.32.06.24 0 .47-.07.23-.08.47-.08.09 0 .2.03.17-.27.4-.51.22-.25.55-.35v-.16q0-.25.05-.48l.12-.49q.07-.24.12-.5.06-.27.06-.57zm10.5 2.47q0 .2-.08.34-.06.14-.16.26l-.23.2-.26.21q-.1.1-.2.14l-.16.07-.16.06-.2.09-.25.14-.2.11q-.1.05-.22.08-.12.04-.3.06l-.6.1q-.3.04-.6.04-.06 0-.13-.03l-.14-.05-.19-.05q-.1-.02-.24-.02-.15 0-.24-.05-.09-.04-.16-.1l-.14-.13q-.08-.07-.2-.13-.45-.2-.76-.48-.32-.29-.54-.64-.22-.35-.37-.76-.15-.41-.26-.86-.08-.32-.08-.63 0-.41.2-.76-.08-.21-.08-.4 0-.15.08-.43t.21-.57q.14-.28.29-.5.15-.24.29-.29l.14-.06q.04-.03.04-.15 0-.09.07-.15.08-.06.17-.1l.2-.06.18-.06q.27-.14.52-.23.26-.1.5-.15.26-.07.53-.1t.57-.03q.17 0 .32.04.16.05.3.12l.3.16.27.17q.1.01.2.06.1.05.22.06.1.13.27.25.17.11.33.24t.28.28q.12.14.12.33l-.01.06v.06l.02-.03q.03.02.05.07l.06.12.03.13.03.1q.06.1.15.15.1.06.17.17-.08.07-.08.19 0 .13.06.25.05.12.05.25l-.02.3-.01.28q0 .11-.1.17-.07.06-.18.1l-.18.1q-.08.04-.08.12 0 .06-.08.06h-.1q-.34 0-.67-.09-.32-.08-.64-.08-.35 0-.7.05-.34.05-.7.05l-.51-.02-.52-.01-.25.03-.4.06q-.2.04-.39.1-.19.05-.26.1v.11q0 .35.2.73.2.37.54.68.34.3.75.5.42.2.85.2.25 0 .49.03.24.01.47.1.2-.1.37-.22l.33-.27q.16-.14.3-.3l.31-.29q.03-.03.15-.05l.25-.05.25-.03.18-.01q.17 0 .32.05.04.17.04.34zm-1.13-3.04q0-.11-.04-.22-.04-.1-.06-.21-.04-.21-.04-.4 0-.21-.06-.41 0 .04-.03.09-.03.03-.08.03-.1 0-.18-.04-.08-.04-.14-.11l-.51-.24-.46-.2q-.23-.09-.49-.13-.25-.05-.59-.05H190q-.02 0-.04.03l.03.08-.06.01-.33.08q-.13.03-.23.09l-.21.15-.26.21q-.07.07-.16.1l-.17.07-.17.05q-.07.03-.13.1-.05.19-.15.37-.1.17-.1.36 0 .11.09.2.1.09.24.15.15.06.32.1.18.05.35.07l.32.04h.23q.28 0 .56-.05.28-.06.56-.06.3 0 .58.03l.59.02h.22l.3-.04q.14-.04.25-.1.11-.07.11-.17zm10.55-.18q-.06.15-.18.25l-.19.2-.24.04q-.14 0-.23.1-.2-.07-.42-.09l-.44-.04q-.23-.02-.44-.06-.21-.04-.4-.15-.2.1-.43.1-.14 0-.27-.02l-.26-.08-.35.02h-1.08l-.57.01q-.28.03-.61.1-.03 0-.03-.04l.01-.05v-.05q0-.08-.14-.08-.1 0-.12.06l-.06.12q-.13-.03-.23-.03-.12 0-.24.03l-.25.04q-.2-.07-.31-.22-.12-.14-.2-.32-.07-.18-.1-.37l-.02-.4v-.12q.06-.05.14-.07l.17-.04.16-.05q.08-.03.13-.1.11.13.28.17.16.03.34.04.19 0 .37.03.2.02.36.1.16-.08.32-.1l.3-.02h.25l.24.01.28-.02q.07.07.18.1.12.02.27.02.2 0 .4-.04l.36-.08q.1.07.22.1.1.02.22.02.23 0 .47-.06.25-.07.5-.07.24 0 .46.1.04-.1.1-.16.06-.06.15-.1.14.07.3.12.18.04.32.11.15.06.27.16.12.09.16.25-.02.08-.06.08-.04 0-.07-.03-.04-.02-.1-.02h-.03q0 .06.04.08l.08.03.09.01q.04 0 .05.05v.11q0 .2.08.32zm-6.83-.89h-.05q-.08 0-.14.07-.06.07-.06.15 0 .04.03.08.03.03.1.04.05-.01.06-.05.02-.04.02-.09v-.1q.01-.06.04-.1zm16.95 5.35q0 .1-.05.2-.05.09-.16.09l-.15-.01q-.07-.03-.15-.03-.12 0-.13.05l-.01.1q-.02.05-.12.1-.08.04-.38.04-.18 0-.35-.03-.16-.03-.33-.03-.13 0-.28.04-.06-.07-.14-.11l-.13-.08q-.06-.04-.1-.1-.05-.06-.05-.18 0-.08-.1-.08h-.08l-.07.01-.06-.01q-.03-.03-.03-.06l.01-.02q-.16 0-.24.1l-.18.2q-.07.07-.14.1l-.16.06-.16.07q-.09.03-.17.1-.06.08-.22.1-.16.04-.34.06l-.34.02h-.26q-.23 0-.37-.03-.14-.04-.25-.1l-.22-.12q-.12-.06-.3-.12-.21-.06-.5-.22-.28-.17-.54-.38-.26-.22-.43-.47-.18-.25-.18-.48 0-.1-.06-.21-.04-.11-.12-.21l-.14-.2-.12-.2q-.14-.28-.19-.6-.03-.31-.03-.62 0-.3.04-.56l.11-.52.14-.52.13-.53q.04-.2.1-.3.08-.1.16-.17l.18-.14q.11-.07.21-.2.05-.05.06-.09l.02-.06q.01-.03.04-.04.04-.02.14-.02.06 0 .09-.03l.07-.1.05-.1q.03-.06.07-.09.05-.03.12-.04l.14-.03.14-.01q.07 0 .13-.03l.26-.12.2-.09.21-.07q.12-.02.31-.02.26 0 .5.07l.5.13.5.14q.25.06.5.06.22 0 .34-.09.13-.09.18-.23.07-.14.09-.31l.02-.34q0-.29-.04-.57-.04-.3-.05-.58l-.07.03q-.07 0-.13-.04l-.11-.09-.12-.09q-.06-.04-.13-.04-.08 0-.1.04l-.08.08-.17.01h-.5q-.1 0-.24-.06-.12-.06-.24-.16t-.2-.22q-.08-.12-.08-.23 0-.1.06-.2.07-.11.16-.2.1-.1.2-.15.12-.06.22-.06t.18.06q.09.04.18.04.17 0 .32-.05t.33-.05q.17 0 .32.06.15.05.33.05h.25l.26-.02q.14 0 .27.03.14.02.26.09v.04q0 .1.03.21l.06.2.06.2q.03.1.03.2 0 .13-.07.26-.06.12-.06.26 0 .26.06.53.06.25.06.51v1.32q-.02.65-.02 1.32t-.04 1.33q-.05.66-.05 1.34 0 .24.03.56.02.3.12.58.1.27.28.46.2.18.53.18h.13l.13-.02q.1 0 .18.05.07.06.12.14.06.08.08.18.03.1.03.18zm-2.72-3.71q0-.28-.05-.6-.04-.3-.17-.58-.12-.27-.34-.46-.2-.19-.53-.2-.07 0-.16-.06l-.2-.11q-.09-.06-.19-.1-.09-.06-.16-.06t-.13.03l-.12.06-.12.06q-.06.02-.13.02l-.25-.01q-.11-.02-.24-.02-.37 0-.68.23-.3.22-.51.56-.22.33-.34.71-.12.39-.12.7l.01.28q.03.13.03.27 0 .09-.06.15l-.1.1q-.07.06-.12.13-.05.06-.05.15h.06q.2 0 .3.07.12.07.17.19.06.11.09.26l.08.3q.05.16.13.3.09.14.25.25l.26.18q.15.1.31.18l.32.14q.17.06.32.06.24 0 .47-.07.23-.08.47-.08.09 0 .2.03.17-.27.39-.51.23-.25.56-.35v-.16q0-.25.05-.48l.12-.49q.07-.24.12-.5.06-.27.06-.57zm11.13.75q0 .1-.03.2t-.08.16l-.07.11-.03.06q0 .07.04.15.05.09.05.18 0 .05-.03.06-.03.02-.07.02-.07 0-.11-.02 0 .15.02.28l.02.28q0 .21-.04.28-.04.06-.09.08l-.09.03q-.03.02-.03.14 0 .07-.1.17-.09.1-.22.21-.13.1-.27.18-.14.07-.22.07l-.05-.01v.13l.01.12q0 .1-.06.14l-.13.06q-.12.05-.24.16l-.24.2-.26.18q-.13.08-.27.08-.12 0-.23-.06-.1-.06-.23-.06-.12 0-.2.03l-.16.07-.14.08q-.08.04-.17.04-.2 0-.4-.1-.19-.1-.37-.17l-.22-.06-.23-.03-.22-.08q-.1-.04-.17-.13-.16-.2-.37-.32-.2-.13-.42-.24l-.42-.24q-.2-.12-.35-.32l-.26-.34-.27-.39q-.12-.2-.2-.41-.08-.21-.08-.41 0-.15.03-.3l.06-.28.06-.3q.03-.13.03-.28v-.08l-.02-.07-.05-.07q-.02-.04-.05-.06l-.03-.03h-.02q0-.06.04-.2l.08-.28.1-.27q.04-.12.07-.16l.09-.08q.04-.04.04-.1v-.14l-.01-.13q0-.1.02-.1.02-.03.06-.03h.07q.04-.02.08-.09l.13-.24q.06-.12.14-.22.07-.1.17-.18.1-.08.24-.16.12-.06.23-.16l.24-.2q.12-.1.24-.16.13-.07.27-.07.2 0 .39-.07.2-.07.39-.1l.6-.09q.31-.05.62-.05.18 0 .42.06.25.06.5.15.27.09.5.2.22.11.36.22v.03q0 .1-.04.21-.04.1-.04.21v.03q0 .02.02.02.12 0 .24-.03.12-.04.24-.04.02.13.12.17l.2.08q.08.05.16.17.08.11.14.26l.13.28.13.24q.06.09.1.21.06.12.09.26l.05.27.01.24q0 .15-.06.25-.05.1-.12.18l-.12.15q-.06.07-.06.16 0 .05.03.1l.06.08.06-.02q.05 0 .05-.04v-.01q0-.06-.05-.11-.05-.06-.05-.13l.02-.04q.01-.04.03-.04.05 0 .1.06l.08.12.06.1q.03.05.03.03h-.01v.06l.01.05zm-.74.06q0-.12-.1-.14-.08-.03-.2-.04l-.22-.02q-.1-.01-.14-.11v-.08q0-.16-.05-.38l-.1-.45q-.05-.23-.12-.44l-.13-.4-.1-.28-.03-.1-.1.01q-.13 0-.23-.05l-.2-.11q-.12-.06-.29-.11-.16-.06-.44-.06-.3 0-.6-.03-.3-.05-.61-.05-.42 0-.79.2-.36.18-.64.5-.28.3-.44.7-.15.38-.15.78v.39l.04.44q.03.21.1.4.07.2.19.3v.2q.03.03.07.04h.1q.05 0 .09.02.04 0 .06.06.1.27.25.42.16.14.34.25l.36.2q.18.1.33.3l.12-.01.13-.01q.24 0 .47.04.23.03.46.03.25 0 .44-.13.2-.13.34-.32l.17-.22q.07-.09.15-.16.08-.09.17-.15l.23-.17.1-.07.13-.1.1-.11q.05-.06.05-.12l-.02-.13-.01-.13.02-.18q.02-.1.07-.2t.12-.16q.07-.07.18-.07.08 0 .16.04.08.03.15.09l.01-.12zm11.68-3.65q0 .23-.16.37-.15.13-.36.23l-.43.2q-.22.09-.34.24-.22.26-.32.62-.09.35-.14.73l-.08.76q-.03.38-.13.7-.04.12-.04.27l-.01.28q0 .14-.06.26-.05.1-.19.16l-.09.04q-.05.02-.05.07t.04.08l.1.06.1.06q.04.04.04.12 0 .15-.05.3l-.09.3-.09.3q-.04.17-.04.35 0 .1-.03.16-.02.05-.06.08l-.12.06q-.06.01-.15.06-.07.05-.15.08-.08.04-.17.04-.09 0-.17-.04l-.17-.08-.17-.1q-.09-.05-.17-.07-.06-.23-.12-.38l-.1-.26-.08-.21-.07-.23-.05-.31-.01-.46q0-.13-.02-.25-.03-.13-.1-.23-.12-.2-.2-.4l-.1-.43q-.04-.21-.06-.43l-.04-.45-.01-.15-.04-.2q-.02-.09-.08-.16-.04-.07-.12-.07-.08 0-.18.08l-.21.16q-.12.08-.28.15-.16.07-.36.07.07.1.15.12l.17.05q.1.02.15.06.06.03.08.09.03.05.04.12l.07.14q.08.12.08.27 0 .21-.1.42-.08.2-.2.38-.07.12-.1.25l-.04.27q0 .14-.02.27t-.08.26l-.06.15q-.05.1-.05.15l.02.06.04.1.05.1.02.1q0 .07-.04.16-.03.1-.09.2l-.1.2-.06.17q-.05.15-.13.23-.07.07-.19.11-.1.04-.23.04l-.24.01q-.21 0-.33-.02-.12-.02-.2-.08-.05-.06-.09-.18l-.07-.32-.1-.36q-.05-.18-.05-.36 0-.2.1-.38-.07-.1-.11-.23-.04-.13-.11-.2l-.16-.16-.16-.16.01-.15v-.16q0-.6-.13-1.24-.12-.64-.3-1.23l-.18-.47q-.1-.23-.14-.48h-.16l-.16-.01q-.07 0-.11.04l-.1.08-.1.08q-.06.04-.13.04-.11 0-.22-.08-.11-.07-.2-.18-.08-.1-.13-.23-.06-.13-.06-.23 0-.14.08-.28.08-.15.2-.26.13-.12.28-.19.15-.07.28-.07.17 0 .33.07.16.06.33.06l.27-.01q.13-.02.28-.02l.4.01.4.02q.1 0 .2.05.1.04.2.11l.17.14.18.1q0 .17-.08.26-.07.08-.18.14-.1.06-.23.1-.12.06-.23.16-.1.09-.17.25t-.07.43q0 .33.16.58.04.07.04.17l-.02.18-.01.15q0 .1.04.15.12.13.14.35.03.2.04.43l.06.43q.05.2.19.28h.05q.2 0 .3-.15.1-.15.13-.35.04-.2.04-.43 0-.21.02-.35.12-.1.19-.3.06-.21.1-.44.04-.24.05-.46l.01-.38q0-.23-.06-.38-.05-.15-.13-.25l-.12-.2q-.06-.1-.06-.23 0-.15.18-.27.18-.12.42-.18.25-.08.5-.1.26-.05.41-.05l.15.01h.06q0-.05.15-.05.1 0 .27.03l.33.07.3.06.22.03q.22 0 .44-.06.23-.06.43-.15.3-.14.6-.18.3-.06.62-.06.17 0 .4.04.24.04.45.12.22.08.36.19.15.11.15.25l-.01.05v.03zm-4.2.23q0-.07-.07-.1-.06-.04-.11-.05-.01.08-.06.13l-.05.11q.02.02.02.06l.03.01.1-.02.1-.06q.04-.04.04-.08zm1.73.81q-.1-.12-.25-.23-.16-.12-.33-.2-.17-.1-.32-.15-.15-.05-.24-.05l-.05.04-.09.1-.1.1-.1.07q0 .37-.02.73v.73q0 .19.02.35.04.16.17.3.05.08.1.25l.13.32q.06.16.15.3.08.11.18.11.14 0 .23-.17.1-.17.16-.44.07-.27.11-.6l.09-.64.07-.55q.04-.26.1-.37zm11.92 5.64q0 .1-.05.17-.06.06-.14.1-.07.04-.17.05l-.17.01-.23-.01-.22-.03-.36.1q-.2.06-.37.06l-.09-.01-.07-.02q-.13 0-.26.05t-.26.05q-.22 0-.42-.06-.2-.05-.4-.07-.36-.03-.56-.27-.18-.24-.2-.58.23-.14.49-.2.26-.05.52-.05h.3l.3.03q-.03-.56-.1-1.12-.08-.56-.08-1.13v-.39q.02-.2.06-.39.04-.2.1-.38.06-.2.06-.39 0-.13-.04-.23l-.1-.22q-.05-.1-.06-.2l-.04-.23q-.02-.12-.07-.23-.04-.12-.15-.2-.1-.1-.27-.15-.18-.05-.48-.05l-.27.03q-.17.02-.35.07-.18.04-.35.1-.16.05-.22.1l-.1.11-.11.14-.12.13q-.06.05-.1.06l-.18.04q-.05.01-.09.04-.03.03-.05.1l-.08.15-.06.12q-.04.08-.09.08-.03 0-.05-.03-.01-.03-.05-.03l-.05.02-.03.03v.21q-.06.06-.1.07h-.07l-.03.05-.01.14q0 .08-.04.15l-.08.13-.08.14q-.03.07-.03.16 0 .15.03.3.05.13.05.28 0 .1-.03.16-.03.07-.08.13l-.06.1q-.03.06-.03.13 0 .1.03.2l.1.17.08.18q.04.1.04.21 0 .13-.03.27-.03.12-.03.26 0 .15.05.24t.12.13q.09.05.19.07.1.02.21.07.11.03.22.1.12.08.21.22h.05q.13 0 .19.1t.06.21q0 .1-.05.19-.04.07-.04.2 0 .1-.2.15-.2.06-.44.1l-.48.04-.3.01h-.27l-.42-.02q-.22 0-.47-.03-.24-.02-.45-.07-.21-.04-.36-.1-.15-.06-.18-.15l-.08-.2q-.03-.1-.03-.21 0-.12.05-.2.06-.1.14-.17.11-.1.25-.12l.26-.02.25-.03q.13-.02.22-.11.1-.1.15-.31.06-.21.06-.6l-.02-.19-.03-.2-.04-.16-.02-.12q0-.04.03-.1l.06-.1.06-.12q.03-.07.03-.15 0-.13-.06-.25-.04-.12-.04-.25 0-.1.04-.2.03-.1.03-.2 0-.08-.04-.16-.05-.07-.05-.16t.03-.17q.03-.09.03-.18 0-.2-.04-.4l-.08-.4q-.05-.23-.18-.34-.11-.12-.27-.18-.16-.06-.33-.1-.17-.04-.32-.11-.14-.08-.23-.23-.1-.15-.1-.43 0-.2.12-.3.12-.1.28-.15.17-.05.35-.06h.32q.21 0 .42.06.22.06.44.08.1 0 .18.06.1.06.17.14.07.07.12.17.04.1.05.2l.03.16.07.23.09.22q.05.09.1.09.05-.04.06-.08l.04-.1q0-.05.1-.12l.2-.16.23-.15.16-.12.07-.1.05-.11q.03-.06.07-.09.04-.03.13-.03h.04q.08 0 .15-.06l.2-.17q.12-.09.31-.16.2-.07.52-.07l.55.01q.28.01.53.08t.47.2q.22.15.39.4.12.2.2.3.09.1.14.2.05.08.07.2.02.14.02.39 0 .1.04.2l.08.18.09.2q.04.1.04.24 0 .26-.03.52-.03.25-.03.52 0 .18-.08.36-.06.18-.06.37 0 .09.04.17.05.08.05.19 0 .12-.03.26-.03.13-.03.25t.05.21q.06.1.06.2 0 .07-.03.1l-.06.08-.06.08q-.02.04-.02.1 0 .1.05.23.06.11.15.2.09.1.2.16.11.05.22.05.1 0 .17-.04t.16-.04q.1 0 .18.09.1.08.15.2.07.12.1.25.04.12.04.2zm-1.62-2.82q0-.08-.05-.15-.05-.07-.13-.07t-.11.08q-.03.08-.03.14 0 .09.03.16t.12.07q.07 0 .11-.04.05-.05.06-.18zm.13 1.43q0-.05-.05-.08-.03-.04-.08-.06-.01.04-.05.09l-.08.1-.07.1q-.03.05-.03.1 0 .07.04.1.03.03.09.05 0-.05.04-.1.05-.04.08-.09l.07-.1q.04-.05.04-.1zm-4.98-1.6-.02-.13q-.01-.08-.05-.15-.03-.07-.08-.12-.05-.05-.11-.05-.09 0-.15.05t-.15.05h-.03l-.02.16v.04l.02-.02q.02.08.09.13l.14.08.16.06q.08.03.14.08.06-.07.06-.19z" aria-label="Upside-down"/></svg>