<svg xmlns="http://www.w3.org/2000/svg" fill="none" viewBox="0 0 348 348"><path stroke="#000" stroke-width="2" d="M5 5.8h337v337.6H5z"/><path stroke="#000" stroke-width="2" d="M282.7 40.6c0-8.4 7-15.2 15.6-15.2 4.1 0 8 1.6 11 4.4a15 15 0 0 1 4.6 10.8c0 8.3-7 15.1-15.6 15.1s-15.6-6.8-15.6-15.1z"/><path fill="#000" stroke="#000" d="M41.3 36.1h197.6v42.8H41.3z"/><path fill="#fff" stroke="#000" d="M17 112.1h44.2v201.3H17z"/><path fill="#55d400" stroke="#000" d="M72.2 111.7h44.3v195.4H72.2z"/><path fill="navy" stroke="#000" d="M127.5 111.7h44.3v188.8h-44.3z"/><path fill="#00d4aa" stroke="#000" stroke-width=".9" d="M182.1 111.7h44.3v181.4h-44.3z"/><path fill="#aa00d4" stroke="#000" stroke-width=".9" d="M235.2 111.7h44.3v172.6h-44.3z"/><path fill="#d40000" stroke="#000" stroke-width=".9" d="M288.2 111.7h44.3v168.2h-44.3z"/><path d="M104.225 218.979H84.538v-4.082l4.101-3.516q2.07-1.758 3.848-3.496 3.75-3.633 5.137-5.762 1.386-2.148 1.386-4.629 0-2.265-1.503-3.535-1.485-1.289-4.16-1.289-1.778 0-3.848.625t-4.043 1.914h-.196v-4.101q1.387-.684 3.692-1.25 2.324-.567 4.492-.567 4.473 0 7.012 2.168 2.539 2.149 2.539 5.84 0 1.66-.43 3.105-.41 1.426-1.23 2.715-.762 1.211-1.797 2.383-1.016 1.172-2.48 2.598-2.09 2.05-4.317 3.984-2.227 1.914-4.16 3.555h15.644z" font-size="40" aria-label="2" fill="#b3ff80"/><path d="M156.967 202.596q.937.84 1.543 2.11.605 1.269.605 3.28 0 1.993-.722 3.653-.723 1.66-2.032 2.89-1.465 1.368-3.457 2.032-1.972.644-4.336.644-2.422 0-4.765-.585-2.344-.567-3.848-1.25v-4.082h.293q1.66 1.093 3.906 1.816 2.246.723 4.336.723 1.23 0 2.617-.41t2.246-1.212q.899-.859 1.329-1.894.449-1.035.449-2.617 0-1.563-.508-2.578-.488-1.036-1.367-1.621-.88-.606-2.13-.82-1.25-.235-2.694-.235h-1.758v-3.242h1.367q2.969 0 4.727-1.23 1.777-1.25 1.777-3.634 0-1.054-.45-1.836-.449-.8-1.25-1.308-.84-.508-1.796-.703-.957-.196-2.168-.196-1.856 0-3.946.664-2.09.665-3.945 1.875h-.195v-4.082q1.387-.683 3.691-1.25 2.324-.585 4.492-.585 2.13 0 3.75.39 1.622.39 2.93 1.25 1.406.938 2.129 2.266.723 1.328.723 3.105 0 2.422-1.72 4.239-1.698 1.796-4.022 2.265v.274q.937.156 2.148.664 1.21.488 2.05 1.23z" font-size="40" aria-label="3" fill="#59f"/><path d="M213.99 203.674h-4.317v8.183h-3.75v-8.183h-13.926v-4.492l14.082-16.407h3.594v17.774h4.316zm-8.067-3.125v-13.125l-11.27 13.125z" font-size="40" aria-label="4" fill="#d5fff6"/><path d="M267.234 199.44q0 2.032-.743 3.887-.742 1.856-2.03 3.125-1.407 1.367-3.36 2.11-1.934.722-4.492.722-2.383 0-4.59-.508-2.207-.488-3.73-1.191v-4.121h.273q1.601 1.015 3.75 1.738 2.148.703 4.218.703 1.387 0 2.676-.39 1.309-.391 2.324-1.368.86-.84 1.29-2.011.449-1.172.449-2.715 0-1.504-.528-2.54-.507-1.034-1.425-1.66-1.016-.742-2.48-1.035-1.446-.312-3.243-.312-1.719 0-3.32.234-1.582.235-2.735.47v-14.981h17.5v3.418h-13.73v7.734q.84-.078 1.719-.117.879-.04 1.523-.04 2.363 0 4.14.41 1.778.391 3.262 1.407 1.563 1.074 2.422 2.774.86 1.699.86 4.257z" font-size="40" aria-label="5" fill="#ff80e5"/><path d="M318.044 206.721h-15.742v-2.968h6.054V184.26h-6.054v-2.656q1.23 0 2.636-.195 1.407-.215 2.13-.606.898-.488 1.406-1.23.527-.762.605-2.031h3.027v26.21h5.938z" font-size="40" aria-label="1" fill="#ff2a2a"/><path fill="#d4aa00" stroke="#000" stroke-width=".7" d="M17.8 212.9v-100h42.8v199.9H17.8zm32.4 7.5c-.2-1.3-.8-1.7-3-1.9l-2.8-.2v-25.7h-1.9c-1 0-1.8.4-1.8 1 0 1.4-2.3 2.7-4.7 2.7-1.6 0-2 .3-2 1.8 0 1.7.4 1.9 3 1.9h3v18.3l-2.8.2c-2.2.2-2.8.6-3 2-.2 1.5-.1 1.6 8 1.6 8 0 8.2 0 8-1.7z"/><path fill="#d4aa00" stroke="#d4aa00" d="M28.8 191.7h28v39.1h-28z"/><path d="M47.37 213.966q0 4.434-2.93 7.246-2.91 2.793-7.148 2.793-2.149 0-3.907-.664t-3.105-1.972q-1.68-1.621-2.598-4.297-.898-2.676-.898-6.445 0-3.868.82-6.856.84-2.988 2.656-5.312 1.719-2.207 4.434-3.438 2.715-1.25 6.328-1.25 1.152 0 1.934.098.78.097 1.582.351v3.73h-.196q-.547-.292-1.66-.546-1.094-.273-2.246-.273-4.2 0-6.7 2.636-2.5 2.617-2.91 7.09 1.641-.996 3.223-1.504 1.602-.527 3.692-.527 1.855 0 3.261.351 1.426.332 2.91 1.368 1.72 1.191 2.579 3.007.879 1.817.879 4.414zm-3.965.157q0-1.817-.547-3.008-.527-1.192-1.758-2.07-.898-.625-1.992-.82-1.094-.196-2.285-.196-1.66 0-3.086.39-1.426.391-2.93 1.211-.039.43-.058.84-.02.39-.02.996 0 3.086.625 4.883.645 1.778 1.758 2.813.898.86 1.933 1.27 1.055.39 2.286.39 2.832 0 4.453-1.719 1.62-1.738 1.62-4.98z" font-size="40" aria-label="6" fill="#fd5"/></svg>