<?xml version="1.0" encoding="UTF-8" standalone="no"?>
<!-- Created with Inkscape (http://www.inkscape.org/) -->

<svg
   width="761.13318mm"
   height="905.7868mm"
   viewBox="0 0 761.13318 905.7868"
   version="1.1"
   id="svg5"
   xml:space="preserve"
   inkscape:version="1.2 (dc2aedaf03, 2022-05-15)"
   sodipodi:docname="Grand Blank Signs.svg"
   inkscape:export-filename="Grand Blank Signs.png"
   inkscape:export-xdpi="96"
   inkscape:export-ydpi="96"
   xmlns:inkscape="http://www.inkscape.org/namespaces/inkscape"
   xmlns:sodipodi="http://sodipodi.sourceforge.net/DTD/sodipodi-0.dtd"
   xmlns="http://www.w3.org/2000/svg"
   xmlns:svg="http://www.w3.org/2000/svg"><sodipodi:namedview
     id="namedview7"
     pagecolor="#ffffff"
     bordercolor="#000000"
     borderopacity="0.25"
     inkscape:showpageshadow="2"
     inkscape:pageopacity="0.0"
     inkscape:pagecheckerboard="0"
     inkscape:deskcolor="#d1d1d1"
     inkscape:document-units="mm"
     showgrid="false"
     inkscape:zoom="0.25000001"
     inkscape:cx="1291.9999"
     inkscape:cy="1617.9999"
     inkscape:window-width="1920"
     inkscape:window-height="1001"
     inkscape:window-x="-9"
     inkscape:window-y="-9"
     inkscape:window-maximized="1"
     inkscape:current-layer="layer1" /><defs
     id="defs2"><clipPath
       clipPathUnits="userSpaceOnUse"
       id="clipPath1226"><path
         id="path1228"
         style="fill:#ff0000;fill-opacity:1;fill-rule:nonzero;stroke:none;stroke-width:0.264583"
         d="m -593.14263,160.57728 v 121.20347 h 107.50508 V 160.57728 Z m 31.29011,16.15922 c 0.17187,-0.0132 0.32054,0.22932 0.25889,0.70848 -0.018,0.13888 -0.0429,0.27656 -0.0641,0.41496 -0.0287,0.20672 -0.0695,0.41125 -0.12092,0.6134 -0.0761,0.29747 -0.19502,0.57988 -0.3235,0.85783 -0.039,0.0847 -0.0797,0.16857 -0.12092,0.25218 0.0454,0.0446 0.0742,0.10731 0.10232,0.16485 0.0379,0.0783 0.0389,0.21294 0.0449,0.29714 -0.003,0.24372 -0.0329,0.48813 -0.10128,0.72244 -0.014,0.0481 -0.0313,0.095 -0.047,0.14262 -0.0894,0.2523 -0.21804,0.48685 -0.35761,0.71417 -0.13353,0.21304 -0.28631,0.4131 -0.43926,0.61237 -0.12507,0.16605 -0.25297,0.32995 -0.38187,0.49299 -0.0833,0.19846 -0.17053,0.39537 -0.26459,0.58911 -0.18182,0.36545 -0.37483,0.74502 -0.62891,1.0666 -0.0392,0.0497 -0.0833,0.0954 -0.12504,0.14315 -0.0376,0.0337 -0.2186,0.21175 -0.2775,0.18965 -0.15338,-0.0577 -0.2586,-0.10771 -0.3261,-0.15916 -0.11345,0.10745 -0.22712,0.21441 -0.34001,0.32246 -0.17638,0.17015 -0.35801,0.33423 -0.55346,0.48214 -0.1687,0.12199 -0.35158,0.22229 -0.5452,0.29869 -0.13999,0.0552 -0.24675,0.0865 -0.39066,0.13229 -0.34385,0.10209 -0.69196,0.18785 -1.04179,0.26665 -0.22739,0.0533 -0.45723,0.093 -0.68885,0.12196 -0.27133,0.0285 -0.5443,0.0436 -0.817,0.0486 -0.28943,0.004 -0.57373,-0.0501 -0.85371,-0.11782 -0.14176,-0.0372 -0.28022,-0.0908 -0.40619,-0.1664 -0.0761,-0.0457 -0.0978,-0.0656 -0.16793,-0.11885 -0.14782,-0.1224 -0.28321,-0.25902 -0.41807,-0.39533 -0.0933,-0.0967 -0.1837,-0.19597 -0.27439,-0.29507 -0.10285,-0.11432 -0.20683,-0.22812 -0.31007,-0.3421 -0.16555,-0.17831 -0.33232,-0.35529 -0.49763,-0.53382 -0.13814,-0.14244 -0.26313,-0.29646 -0.38965,-0.44907 -0.15076,-0.18001 -0.32155,-0.34166 -0.49041,-0.50436 -0.22217,-0.20555 -0.42679,-0.42903 -0.62632,-0.65629 -0.27482,-0.31219 -0.49829,-0.66302 -0.70744,-1.02112 -0.18309,-0.32021 -0.3357,-0.65637 -0.45942,-1.00356 -0.0939,-0.26208 -0.14727,-0.53519 -0.18447,-0.81029 -0.0324,-0.26673 -0.042,-0.53563 -0.0449,-0.80408 0,-0.22886 0.004,-0.45742 0.006,-0.68626 0.003,-0.17046 0.003,-0.34072 -0.004,-0.51108 -0.0319,-0.90888 0.61063,-0.93159 0.64233,-0.0227 0.006,0.17999 0.008,0.35993 0.004,0.54002 -0.003,0.22425 -0.006,0.44857 -0.006,0.67283 0.003,0.24238 0.0114,0.48514 0.0398,0.72605 0.0306,0.23109 0.0743,0.46042 0.15296,0.68058 0.10908,0.30972 0.24667,0.60827 0.40875,0.894 0.18807,0.32273 0.3883,0.64048 0.63563,0.92191 0.18754,0.2139 0.37992,0.42335 0.5891,0.6165 0.18608,0.17933 0.37335,0.35876 0.53898,0.55758 0.11906,0.14358 0.23622,0.28889 0.3664,0.42272 0.16695,0.18029 0.3357,0.35885 0.50281,0.53898 0.10255,0.11329 0.20513,0.22606 0.30747,0.33952 0.0849,0.093 0.17016,0.18608 0.25736,0.27698 0.11478,0.11608 0.22995,0.23222 0.35399,0.33848 0.10417,0.0825 0.20182,0.13679 0.33279,0.16899 0.22622,0.0553 0.4558,0.10225 0.68988,0.10025 0.25029,-0.005 0.50072,-0.0186 0.74983,-0.0439 0.21087,-0.0259 0.41989,-0.0626 0.62682,-0.1111 0.33187,-0.0747 0.66223,-0.15588 0.98856,-0.25218 0.26012,-0.0823 0.52248,-0.16584 0.74364,-0.33176 0.17595,-0.13191 0.33674,-0.28115 0.49557,-0.43305 0.23106,-0.22108 0.46389,-0.44 0.69556,-0.66043 0.19627,-0.1953 0.38701,-0.39643 0.55502,-0.61701 0.0422,-0.0522 0.0846,-0.10409 0.12713,-0.15607 0.0916,-0.19981 0.17915,-0.40135 0.25889,-0.60616 0.14227,-0.37305 0.27797,-0.74873 0.42529,-1.11983 0.17947,-0.43327 0.3701,-0.86196 0.59325,-1.27486 0.1618,-0.30446 0.3243,-0.60868 0.46871,-0.92191 0.11234,-0.24211 0.21741,-0.488 0.28422,-0.74724 0.0467,-0.18155 0.0821,-0.36565 0.108,-0.55138 0.0196,-0.1272 0.042,-0.25397 0.06,-0.38138 0.0596,-0.42208 0.22971,-0.63276 0.38137,-0.6444 z m -0.45736,3.30574 c -0.0124,0.0147 -0.0241,0.0299 -0.0362,0.045 0.0153,-0.0111 0.028,-0.0254 0.0362,-0.045 z" /></clipPath><clipPath
       clipPathUnits="userSpaceOnUse"
       id="clipPath1416"><path
         id="path1418"
         style="fill:#ff0000;fill-opacity:1;fill-rule:nonzero;stroke:none;stroke-width:0.264583"
         d="m -561.97706,150.48797 -12.993,5.3e-4 v 26.49916 c 0.21394,0.0127 0.42788,0.0254 0.64182,0.0382 0.86408,0.0527 1.72808,0.10576 2.59207,0.15864 0.36103,0.006 0.64831,0.0247 1.14205,0.0491 0.33626,0.0218 0.67188,0.0504 1.00719,0.0822 0.0854,0.005 0.17087,0.0103 0.2563,0.0155 0.88776,0.048 1.77488,0.0954 2.66393,0.11214 0.41664,0.008 0.86469,0.0135 1.28313,-0.009 0.14988,-0.008 0.29898,-0.0263 0.44854,-0.0393 0.61974,-0.0869 1.23172,-0.21947 1.85106,-0.31006 0.32019,-0.0407 0.641,-0.082 0.96324,-0.10283 0.0427,-0.0877 0.0921,-0.15292 0.14367,-0.19379 z" /></clipPath><clipPath
       clipPathUnits="userSpaceOnUse"
       id="clipPath1416-8"><path
         id="path1418-2"
         style="fill:#ff0000;fill-opacity:1;fill-rule:nonzero;stroke:none;stroke-width:0.264583"
         d="m -561.97706,150.48797 -12.993,5.3e-4 v 26.49916 c 0.21394,0.0127 0.42788,0.0254 0.64182,0.0382 0.86408,0.0527 1.72808,0.10576 2.59207,0.15864 0.36103,0.006 0.64831,0.0247 1.14205,0.0491 0.33626,0.0218 0.67188,0.0504 1.00719,0.0822 0.0854,0.005 0.17087,0.0103 0.2563,0.0155 0.88776,0.048 1.77488,0.0954 2.66393,0.11214 0.41664,0.008 0.86469,0.0135 1.28313,-0.009 0.14988,-0.008 0.29898,-0.0263 0.44854,-0.0393 0.61974,-0.0869 1.23172,-0.21947 1.85106,-0.31006 0.32019,-0.0407 0.641,-0.082 0.96324,-0.10283 0.0427,-0.0877 0.0921,-0.15292 0.14367,-0.19379 z" /></clipPath><clipPath
       clipPathUnits="userSpaceOnUse"
       id="clipPath1226-6"><path
         id="path1228-2"
         style="fill:#ff0000;fill-opacity:1;fill-rule:nonzero;stroke:none;stroke-width:0.264583"
         d="m -593.14263,160.57728 v 121.20347 h 107.50508 V 160.57728 Z m 31.29011,16.15922 c 0.17187,-0.0132 0.32054,0.22932 0.25889,0.70848 -0.018,0.13888 -0.0429,0.27656 -0.0641,0.41496 -0.0287,0.20672 -0.0695,0.41125 -0.12092,0.6134 -0.0761,0.29747 -0.19502,0.57988 -0.3235,0.85783 -0.039,0.0847 -0.0797,0.16857 -0.12092,0.25218 0.0454,0.0446 0.0742,0.10731 0.10232,0.16485 0.0379,0.0783 0.0389,0.21294 0.0449,0.29714 -0.003,0.24372 -0.0329,0.48813 -0.10128,0.72244 -0.014,0.0481 -0.0313,0.095 -0.047,0.14262 -0.0894,0.2523 -0.21804,0.48685 -0.35761,0.71417 -0.13353,0.21304 -0.28631,0.4131 -0.43926,0.61237 -0.12507,0.16605 -0.25297,0.32995 -0.38187,0.49299 -0.0833,0.19846 -0.17053,0.39537 -0.26459,0.58911 -0.18182,0.36545 -0.37483,0.74502 -0.62891,1.0666 -0.0392,0.0497 -0.0833,0.0954 -0.12504,0.14315 -0.0376,0.0337 -0.2186,0.21175 -0.2775,0.18965 -0.15338,-0.0577 -0.2586,-0.10771 -0.3261,-0.15916 -0.11345,0.10745 -0.22712,0.21441 -0.34001,0.32246 -0.17638,0.17015 -0.35801,0.33423 -0.55346,0.48214 -0.1687,0.12199 -0.35158,0.22229 -0.5452,0.29869 -0.13999,0.0552 -0.24675,0.0865 -0.39066,0.13229 -0.34385,0.10209 -0.69196,0.18785 -1.04179,0.26665 -0.22739,0.0533 -0.45723,0.093 -0.68885,0.12196 -0.27133,0.0285 -0.5443,0.0436 -0.817,0.0486 -0.28943,0.004 -0.57373,-0.0501 -0.85371,-0.11782 -0.14176,-0.0372 -0.28022,-0.0908 -0.40619,-0.1664 -0.0761,-0.0457 -0.0978,-0.0656 -0.16793,-0.11885 -0.14782,-0.1224 -0.28321,-0.25902 -0.41807,-0.39533 -0.0933,-0.0967 -0.1837,-0.19597 -0.27439,-0.29507 -0.10285,-0.11432 -0.20683,-0.22812 -0.31007,-0.3421 -0.16555,-0.17831 -0.33232,-0.35529 -0.49763,-0.53382 -0.13814,-0.14244 -0.26313,-0.29646 -0.38965,-0.44907 -0.15076,-0.18001 -0.32155,-0.34166 -0.49041,-0.50436 -0.22217,-0.20555 -0.42679,-0.42903 -0.62632,-0.65629 -0.27482,-0.31219 -0.49829,-0.66302 -0.70744,-1.02112 -0.18309,-0.32021 -0.3357,-0.65637 -0.45942,-1.00356 -0.0939,-0.26208 -0.14727,-0.53519 -0.18447,-0.81029 -0.0324,-0.26673 -0.042,-0.53563 -0.0449,-0.80408 0,-0.22886 0.004,-0.45742 0.006,-0.68626 0.003,-0.17046 0.003,-0.34072 -0.004,-0.51108 -0.0319,-0.90888 0.61063,-0.93159 0.64233,-0.0227 0.006,0.17999 0.008,0.35993 0.004,0.54002 -0.003,0.22425 -0.006,0.44857 -0.006,0.67283 0.003,0.24238 0.0114,0.48514 0.0398,0.72605 0.0306,0.23109 0.0743,0.46042 0.15296,0.68058 0.10908,0.30972 0.24667,0.60827 0.40875,0.894 0.18807,0.32273 0.3883,0.64048 0.63563,0.92191 0.18754,0.2139 0.37992,0.42335 0.5891,0.6165 0.18608,0.17933 0.37335,0.35876 0.53898,0.55758 0.11906,0.14358 0.23622,0.28889 0.3664,0.42272 0.16695,0.18029 0.3357,0.35885 0.50281,0.53898 0.10255,0.11329 0.20513,0.22606 0.30747,0.33952 0.0849,0.093 0.17016,0.18608 0.25736,0.27698 0.11478,0.11608 0.22995,0.23222 0.35399,0.33848 0.10417,0.0825 0.20182,0.13679 0.33279,0.16899 0.22622,0.0553 0.4558,0.10225 0.68988,0.10025 0.25029,-0.005 0.50072,-0.0186 0.74983,-0.0439 0.21087,-0.0259 0.41989,-0.0626 0.62682,-0.1111 0.33187,-0.0747 0.66223,-0.15588 0.98856,-0.25218 0.26012,-0.0823 0.52248,-0.16584 0.74364,-0.33176 0.17595,-0.13191 0.33674,-0.28115 0.49557,-0.43305 0.23106,-0.22108 0.46389,-0.44 0.69556,-0.66043 0.19627,-0.1953 0.38701,-0.39643 0.55502,-0.61701 0.0422,-0.0522 0.0846,-0.10409 0.12713,-0.15607 0.0916,-0.19981 0.17915,-0.40135 0.25889,-0.60616 0.14227,-0.37305 0.27797,-0.74873 0.42529,-1.11983 0.17947,-0.43327 0.3701,-0.86196 0.59325,-1.27486 0.1618,-0.30446 0.3243,-0.60868 0.46871,-0.92191 0.11234,-0.24211 0.21741,-0.488 0.28422,-0.74724 0.0467,-0.18155 0.0821,-0.36565 0.108,-0.55138 0.0196,-0.1272 0.042,-0.25397 0.06,-0.38138 0.0596,-0.42208 0.22971,-0.63276 0.38137,-0.6444 z m -0.45736,3.30574 c -0.0124,0.0147 -0.0241,0.0299 -0.0362,0.045 0.0153,-0.0111 0.028,-0.0254 0.0362,-0.045 z" /></clipPath><clipPath
       clipPathUnits="userSpaceOnUse"
       id="clipPath1226-6-1"><path
         id="path1228-2-8"
         style="fill:#ff0000;fill-opacity:1;fill-rule:nonzero;stroke:none;stroke-width:0.264583"
         d="m -593.14263,160.57728 v 121.20347 h 107.50508 V 160.57728 Z m 31.29011,16.15922 c 0.17187,-0.0132 0.32054,0.22932 0.25889,0.70848 -0.018,0.13888 -0.0429,0.27656 -0.0641,0.41496 -0.0287,0.20672 -0.0695,0.41125 -0.12092,0.6134 -0.0761,0.29747 -0.19502,0.57988 -0.3235,0.85783 -0.039,0.0847 -0.0797,0.16857 -0.12092,0.25218 0.0454,0.0446 0.0742,0.10731 0.10232,0.16485 0.0379,0.0783 0.0389,0.21294 0.0449,0.29714 -0.003,0.24372 -0.0329,0.48813 -0.10128,0.72244 -0.014,0.0481 -0.0313,0.095 -0.047,0.14262 -0.0894,0.2523 -0.21804,0.48685 -0.35761,0.71417 -0.13353,0.21304 -0.28631,0.4131 -0.43926,0.61237 -0.12507,0.16605 -0.25297,0.32995 -0.38187,0.49299 -0.0833,0.19846 -0.17053,0.39537 -0.26459,0.58911 -0.18182,0.36545 -0.37483,0.74502 -0.62891,1.0666 -0.0392,0.0497 -0.0833,0.0954 -0.12504,0.14315 -0.0376,0.0337 -0.2186,0.21175 -0.2775,0.18965 -0.15338,-0.0577 -0.2586,-0.10771 -0.3261,-0.15916 -0.11345,0.10745 -0.22712,0.21441 -0.34001,0.32246 -0.17638,0.17015 -0.35801,0.33423 -0.55346,0.48214 -0.1687,0.12199 -0.35158,0.22229 -0.5452,0.29869 -0.13999,0.0552 -0.24675,0.0865 -0.39066,0.13229 -0.34385,0.10209 -0.69196,0.18785 -1.04179,0.26665 -0.22739,0.0533 -0.45723,0.093 -0.68885,0.12196 -0.27133,0.0285 -0.5443,0.0436 -0.817,0.0486 -0.28943,0.004 -0.57373,-0.0501 -0.85371,-0.11782 -0.14176,-0.0372 -0.28022,-0.0908 -0.40619,-0.1664 -0.0761,-0.0457 -0.0978,-0.0656 -0.16793,-0.11885 -0.14782,-0.1224 -0.28321,-0.25902 -0.41807,-0.39533 -0.0933,-0.0967 -0.1837,-0.19597 -0.27439,-0.29507 -0.10285,-0.11432 -0.20683,-0.22812 -0.31007,-0.3421 -0.16555,-0.17831 -0.33232,-0.35529 -0.49763,-0.53382 -0.13814,-0.14244 -0.26313,-0.29646 -0.38965,-0.44907 -0.15076,-0.18001 -0.32155,-0.34166 -0.49041,-0.50436 -0.22217,-0.20555 -0.42679,-0.42903 -0.62632,-0.65629 -0.27482,-0.31219 -0.49829,-0.66302 -0.70744,-1.02112 -0.18309,-0.32021 -0.3357,-0.65637 -0.45942,-1.00356 -0.0939,-0.26208 -0.14727,-0.53519 -0.18447,-0.81029 -0.0324,-0.26673 -0.042,-0.53563 -0.0449,-0.80408 0,-0.22886 0.004,-0.45742 0.006,-0.68626 0.003,-0.17046 0.003,-0.34072 -0.004,-0.51108 -0.0319,-0.90888 0.61063,-0.93159 0.64233,-0.0227 0.006,0.17999 0.008,0.35993 0.004,0.54002 -0.003,0.22425 -0.006,0.44857 -0.006,0.67283 0.003,0.24238 0.0114,0.48514 0.0398,0.72605 0.0306,0.23109 0.0743,0.46042 0.15296,0.68058 0.10908,0.30972 0.24667,0.60827 0.40875,0.894 0.18807,0.32273 0.3883,0.64048 0.63563,0.92191 0.18754,0.2139 0.37992,0.42335 0.5891,0.6165 0.18608,0.17933 0.37335,0.35876 0.53898,0.55758 0.11906,0.14358 0.23622,0.28889 0.3664,0.42272 0.16695,0.18029 0.3357,0.35885 0.50281,0.53898 0.10255,0.11329 0.20513,0.22606 0.30747,0.33952 0.0849,0.093 0.17016,0.18608 0.25736,0.27698 0.11478,0.11608 0.22995,0.23222 0.35399,0.33848 0.10417,0.0825 0.20182,0.13679 0.33279,0.16899 0.22622,0.0553 0.4558,0.10225 0.68988,0.10025 0.25029,-0.005 0.50072,-0.0186 0.74983,-0.0439 0.21087,-0.0259 0.41989,-0.0626 0.62682,-0.1111 0.33187,-0.0747 0.66223,-0.15588 0.98856,-0.25218 0.26012,-0.0823 0.52248,-0.16584 0.74364,-0.33176 0.17595,-0.13191 0.33674,-0.28115 0.49557,-0.43305 0.23106,-0.22108 0.46389,-0.44 0.69556,-0.66043 0.19627,-0.1953 0.38701,-0.39643 0.55502,-0.61701 0.0422,-0.0522 0.0846,-0.10409 0.12713,-0.15607 0.0916,-0.19981 0.17915,-0.40135 0.25889,-0.60616 0.14227,-0.37305 0.27797,-0.74873 0.42529,-1.11983 0.17947,-0.43327 0.3701,-0.86196 0.59325,-1.27486 0.1618,-0.30446 0.3243,-0.60868 0.46871,-0.92191 0.11234,-0.24211 0.21741,-0.488 0.28422,-0.74724 0.0467,-0.18155 0.0821,-0.36565 0.108,-0.55138 0.0196,-0.1272 0.042,-0.25397 0.06,-0.38138 0.0596,-0.42208 0.22971,-0.63276 0.38137,-0.6444 z m -0.45736,3.30574 c -0.0124,0.0147 -0.0241,0.0299 -0.0362,0.045 0.0153,-0.0111 0.028,-0.0254 0.0362,-0.045 z" /></clipPath><clipPath
       clipPathUnits="userSpaceOnUse"
       id="clipPath1226-6-5"><path
         id="path1228-2-5"
         style="fill:#ff0000;fill-opacity:1;fill-rule:nonzero;stroke:none;stroke-width:0.264583"
         d="m -593.14263,160.57728 v 121.20347 h 107.50508 V 160.57728 Z m 31.29011,16.15922 c 0.17187,-0.0132 0.32054,0.22932 0.25889,0.70848 -0.018,0.13888 -0.0429,0.27656 -0.0641,0.41496 -0.0287,0.20672 -0.0695,0.41125 -0.12092,0.6134 -0.0761,0.29747 -0.19502,0.57988 -0.3235,0.85783 -0.039,0.0847 -0.0797,0.16857 -0.12092,0.25218 0.0454,0.0446 0.0742,0.10731 0.10232,0.16485 0.0379,0.0783 0.0389,0.21294 0.0449,0.29714 -0.003,0.24372 -0.0329,0.48813 -0.10128,0.72244 -0.014,0.0481 -0.0313,0.095 -0.047,0.14262 -0.0894,0.2523 -0.21804,0.48685 -0.35761,0.71417 -0.13353,0.21304 -0.28631,0.4131 -0.43926,0.61237 -0.12507,0.16605 -0.25297,0.32995 -0.38187,0.49299 -0.0833,0.19846 -0.17053,0.39537 -0.26459,0.58911 -0.18182,0.36545 -0.37483,0.74502 -0.62891,1.0666 -0.0392,0.0497 -0.0833,0.0954 -0.12504,0.14315 -0.0376,0.0337 -0.2186,0.21175 -0.2775,0.18965 -0.15338,-0.0577 -0.2586,-0.10771 -0.3261,-0.15916 -0.11345,0.10745 -0.22712,0.21441 -0.34001,0.32246 -0.17638,0.17015 -0.35801,0.33423 -0.55346,0.48214 -0.1687,0.12199 -0.35158,0.22229 -0.5452,0.29869 -0.13999,0.0552 -0.24675,0.0865 -0.39066,0.13229 -0.34385,0.10209 -0.69196,0.18785 -1.04179,0.26665 -0.22739,0.0533 -0.45723,0.093 -0.68885,0.12196 -0.27133,0.0285 -0.5443,0.0436 -0.817,0.0486 -0.28943,0.004 -0.57373,-0.0501 -0.85371,-0.11782 -0.14176,-0.0372 -0.28022,-0.0908 -0.40619,-0.1664 -0.0761,-0.0457 -0.0978,-0.0656 -0.16793,-0.11885 -0.14782,-0.1224 -0.28321,-0.25902 -0.41807,-0.39533 -0.0933,-0.0967 -0.1837,-0.19597 -0.27439,-0.29507 -0.10285,-0.11432 -0.20683,-0.22812 -0.31007,-0.3421 -0.16555,-0.17831 -0.33232,-0.35529 -0.49763,-0.53382 -0.13814,-0.14244 -0.26313,-0.29646 -0.38965,-0.44907 -0.15076,-0.18001 -0.32155,-0.34166 -0.49041,-0.50436 -0.22217,-0.20555 -0.42679,-0.42903 -0.62632,-0.65629 -0.27482,-0.31219 -0.49829,-0.66302 -0.70744,-1.02112 -0.18309,-0.32021 -0.3357,-0.65637 -0.45942,-1.00356 -0.0939,-0.26208 -0.14727,-0.53519 -0.18447,-0.81029 -0.0324,-0.26673 -0.042,-0.53563 -0.0449,-0.80408 0,-0.22886 0.004,-0.45742 0.006,-0.68626 0.003,-0.17046 0.003,-0.34072 -0.004,-0.51108 -0.0319,-0.90888 0.61063,-0.93159 0.64233,-0.0227 0.006,0.17999 0.008,0.35993 0.004,0.54002 -0.003,0.22425 -0.006,0.44857 -0.006,0.67283 0.003,0.24238 0.0114,0.48514 0.0398,0.72605 0.0306,0.23109 0.0743,0.46042 0.15296,0.68058 0.10908,0.30972 0.24667,0.60827 0.40875,0.894 0.18807,0.32273 0.3883,0.64048 0.63563,0.92191 0.18754,0.2139 0.37992,0.42335 0.5891,0.6165 0.18608,0.17933 0.37335,0.35876 0.53898,0.55758 0.11906,0.14358 0.23622,0.28889 0.3664,0.42272 0.16695,0.18029 0.3357,0.35885 0.50281,0.53898 0.10255,0.11329 0.20513,0.22606 0.30747,0.33952 0.0849,0.093 0.17016,0.18608 0.25736,0.27698 0.11478,0.11608 0.22995,0.23222 0.35399,0.33848 0.10417,0.0825 0.20182,0.13679 0.33279,0.16899 0.22622,0.0553 0.4558,0.10225 0.68988,0.10025 0.25029,-0.005 0.50072,-0.0186 0.74983,-0.0439 0.21087,-0.0259 0.41989,-0.0626 0.62682,-0.1111 0.33187,-0.0747 0.66223,-0.15588 0.98856,-0.25218 0.26012,-0.0823 0.52248,-0.16584 0.74364,-0.33176 0.17595,-0.13191 0.33674,-0.28115 0.49557,-0.43305 0.23106,-0.22108 0.46389,-0.44 0.69556,-0.66043 0.19627,-0.1953 0.38701,-0.39643 0.55502,-0.61701 0.0422,-0.0522 0.0846,-0.10409 0.12713,-0.15607 0.0916,-0.19981 0.17915,-0.40135 0.25889,-0.60616 0.14227,-0.37305 0.27797,-0.74873 0.42529,-1.11983 0.17947,-0.43327 0.3701,-0.86196 0.59325,-1.27486 0.1618,-0.30446 0.3243,-0.60868 0.46871,-0.92191 0.11234,-0.24211 0.21741,-0.488 0.28422,-0.74724 0.0467,-0.18155 0.0821,-0.36565 0.108,-0.55138 0.0196,-0.1272 0.042,-0.25397 0.06,-0.38138 0.0596,-0.42208 0.22971,-0.63276 0.38137,-0.6444 z m -0.45736,3.30574 c -0.0124,0.0147 -0.0241,0.0299 -0.0362,0.045 0.0153,-0.0111 0.028,-0.0254 0.0362,-0.045 z" /></clipPath></defs><g
     inkscape:label="Layer 1"
     inkscape:groupmode="layer"
     id="layer1"
     transform="translate(1070.8244,182.26366)"><path
       style="fill:#008000;stroke:none;stroke-width:4.31768;paint-order:fill markers stroke"
       d="m -550.78753,281.59666 c -11.49866,-26.58871 -8.59997,-38.99734 -8.59019,-49.17379 0,-27.6134 0.21852,-47.40262 0.83262,-48.36773 2.89819,-4.55467 9.12622,-4.20572 11.38127,0.6377 0,0 0.6868,1.35839 0.68771,2.01231 0.0103,7.42765 0.14332,8.16807 0.14332,8.16807 l 0.003,24.50162 0.78257,0.91073 c 0.67199,0.78205 1.05122,0.91074 2.68387,0.91074 1.60029,0 2.03293,-0.14009 2.73273,-0.88482 l 0.83128,-0.88482 0.17147,-11.81057 c 0,0 0.28474,-4.4846 0.56413,-5.10414 0.21596,-0.47886 1.00348,-1.70314 1.75003,-2.37761 2.40222,-2.17026 5.88045,-2.18818 8.42628,0.0896 2.34795,2.10079 2.26079,3.92809 2.29189,7.92529 0.0847,10.88243 0.10573,10.88994 0.39898,11.44053 0.64972,1.21989 1.38644,1.58405 3.22802,1.59559 1.43569,0.009 1.88644,-0.14414 2.57217,-0.87387 l 0.83144,-0.88477 0.17147,-42.3346 c 0,0 0.22027,-2.85764 0.77532,-3.87305 2.15561,-3.94348 7.30722,-4.45795 10.24587,-1.30068 2.12299,2.28091 2.01115,4.76246 2.01115,8.72579 v 45.40626 l 1.00248,1.00249 c 0.83537,0.83537 1.28278,1.00249 2.68387,1.00249 1.36374,0 1.83845,-0.16712 2.51281,-0.88461 l 0.83144,-0.88462 0.17147,-16.86336 c 0.0943,-9.27485 0.31005,-17.17203 0.47942,-17.54928 2.05467,-4.57671 6.99771,-5.63707 10.60901,-2.2758 1.94544,1.81075 1.94504,1.80675 1.93108,19.20827 -0.0194,24.18443 -0.90107,32.80778 -4.66813,45.65702 -2.5767,8.78901 -7.44821,17.66836 -11.74431,21.4065 -0.45142,0.39279 -1.06875,0.95908 -1.37183,1.25843 -1.05579,1.04276 -3.68756,2.65931 -5.88429,3.6144 l -2.2118,0.96164 -19.20554,0.0675 c -10.56305,0.0371 -19.59137,-0.0416 -20.06294,-0.17489 z"
       id="path647-5-7-1-6"
       clip-path="url(#clipPath1226-6-5)"
       transform="translate(-146.11149,-173.74977)"
       sodipodi:nodetypes="ccsssccsssccsssssssccssscssscsssssssscscc" /><path
       style="fill:#800000;stroke:none;stroke-width:4.31768;paint-order:fill markers stroke"
       d="m -873.81601,-61.308964 c -2.8592,-0.80844 -7.6485,-4.14262 -10.6069,-7.38416 -0.6738,-0.7383 -1.4441,-1.56372 -1.712,-1.83428 -0.2679,-0.27056 -1.1509,-1.36414 -1.9625,-2.43017 -0.8116,-1.06603 -1.6342,-2.12463 -1.828,-2.35245 -0.1938,-0.22783 -0.3525,-0.49949 -0.3525,-0.6037 0,-0.1042 -0.5126,-0.92095 -1.1392,-1.81499 -2.3885,-3.40778 -4.8543,-8.06789 -14.6513,-27.690186 -9.8856,-19.79989 -10.1027,-20.2788 -10.1027,-22.30131 0,-5.5049 4.8657,-8.70831 9.1785,-6.04283 1.1247,0.69502 3.8023,4.85735 7.644,11.88224 0.5158,0.94313 1.1858,2.10127 1.489,2.57364 1.057,1.64719 1.4018,2.23464 1.911,3.25661 0.2819,0.56588 0.7086,1.3361 0.9483,1.71159 0.2394,0.3755 0.9647,1.51347 1.6116,2.52883 1.5939,2.50184 3.4575,3.81906 5.4037,3.81906 1.5677,0 2.9958,-0.69143 3.8804,-1.87898 1.5027,-2.01708 1.6985,-2.69957 1.6985,-5.27536 0,-27.6134 0.483,-22.72955 1.0972,-23.69465 2.8981,-4.55467 9.1263,-4.20577 11.3813,0.6377 l 0.8279,1.77844 0.5181,13.80385 v 0 0 c 0,0 1.0512,0.91074 2.6839,0.91074 1.6002,0 2.0328,-0.14009 2.7327,-0.88482 l 0.8313,-0.88482 v 0 c 0,0 0.2687,-17.32415 0.5481,-17.94369 0.2159,-0.47886 1.0035,-1.4225 1.75,-2.09696 2.4022,-2.17027 5.8805,-2.09465 8.4263,0.18316 2.3478,2.10078 2.1672,8.84304 2.27,19.47801 0,0 0.3147,-0.008 0.6079,0.54262 0.6498,1.21989 1.3864,1.58405 3.228,1.59559 1.4357,0.009 1.8864,-0.14414 2.5722,-0.87387 l 0.8315,-0.88477 0.1714,-23.72232 c 0.1576,-21.80577 0.2202,-23.81157 0.7753,-24.82698 2.1557,-3.94348 7.3073,-4.73859 10.246,-1.58134 2.1229,2.28091 2.0111,0.61475 2.0111,29.96036 v 26.79397 l 1.0025,1.00249 c 0.8354,0.83537 1.2828,1.00249 2.6839,1.00249 1.3637,0 1.8384,-0.16712 2.5128,-0.88461 l 0.8314,-0.88462 0.1715,-16.86335 c 0.094,-9.27485 0.31,-17.17203 0.4794,-17.54929 2.0547,-4.5767 6.9978,-5.63706 10.60905,-2.2758 1.9454,1.81076 1.945,1.80675 1.931,19.20827 -0.019,24.18444 -0.901,32.8078 -4.66805,45.657036 -2.5767,8.78901 -7.4483,17.66836 -11.7444,21.4065 -0.4514,0.39279 -1.0687,0.95908 -1.3718,1.25843 -1.0558,1.04276 -3.6875,2.65931 -5.8843,3.6144 l -2.2118,0.96164 -19.2055,0.0675 c -10.5631,0.0371 -19.5914,-0.0416 -20.0631,-0.17489 z"
       id="path647"
       sodipodi:nodetypes="cssssssssssssssssssscccssscsssssssscsssscssscsssssssscscc" /><path
       style="fill:#000000;stroke:none;stroke-width:4.31768;paint-order:fill markers stroke"
       d="m -519.61445,-56.655259 c -2.8592,-0.80843 -7.6485,-4.14261 -10.6069,-7.38416 -0.6738,-0.7383 -1.4442,-1.56372 -1.712,-1.83428 -0.2678,-0.27056 -1.151,-1.36414 -1.9625,-2.43017 -0.8116,-1.06603 -1.6342,-2.12463 -1.828,-2.35245 -0.1939,-0.22783 -0.3525,-0.49949 -0.3525,-0.6037 0,-0.1042 -0.5127,-0.92095 -1.1393,-1.81499 -2.3885,-3.40778 -4.8543,-8.06789 -14.6512,-27.690191 -9.8857,-19.79989 -10.1027,-20.2788 -10.1027,-22.30131 0,-5.5049 4.8657,-8.70831 9.1786,-6.04283 1.1245,0.69502 3.8022,4.85735 7.644,11.88224 0.5157,0.94313 1.1858,2.10127 1.4889,2.57364 1.057,1.64719 1.4017,2.23464 1.9109,3.25661 0.282,0.56588 0.7087,1.3361 0.9483,1.71159 0.2396,0.3755 0.9648,1.51347 1.6117,2.52884 1.5938,2.50183 3.4576,3.81905 5.4036,3.81905 1.5678,0 2.9958,-0.69143 3.8804,-1.87898 1.5027,-2.01707 1.6985,-26.45586 1.6985,-32.43209 0,-27.6134 0.2186,-29.04355 0.8327,-30.00866 2.8981,-4.55467 9.1262,-4.20571 11.3812,0.6377 l 0.8281,1.77845 v 23.18193 23.18193 l 0.7825,0.91073 c 0.672,0.78205 1.0512,0.91074 2.6839,0.91074 1.6003,0 2.0329,-0.14009 2.7327,-0.88482 l 0.8313,-0.88482 v 0 c 0,0 0.082,-18.22661 0.3614,-18.84615 0.216,-0.47886 1.0035,-1.42249 1.75,-2.09696 2.4023,-2.17026 5.8805,-2.09465 8.4263,0.18317 2.348,2.10079 0.8849,20.86304 3.0651,20.92308 0,0 -0.2933,-0.55059 0,0 0.6497,1.21989 1.3864,1.58405 3.228,1.59559 1.4357,0.009 1.8864,-0.14414 2.5722,-0.87387 l 0.8314,-0.88477 0.1715,-23.72232 c 0.1576,-21.80578 0.2203,-23.81158 0.7753,-24.82699 2.1556,-3.94348 7.3072,-4.73858 10.2459,-1.58134 2.123,2.28091 2.0111,0.61476 2.0111,29.96036 v 26.79397 l 1.0025,1.00249 c 0.8354,0.83538 1.2828,1.00249 2.6839,1.00249 1.3637,0 1.8384,-0.16712 2.5128,-0.88461 l 0.8314,-0.88462 0.1715,-16.86335 c 0.094,-9.27486 0.31,-17.17204 0.4794,-17.54929 2.0547,-4.5767 6.9977,-5.63707 10.609,-2.2758 1.9455,1.81075 1.9451,1.80676 1.9311,19.20827 -0.019,24.18444 -0.9011,32.807791 -4.6681,45.657031 -2.5767,8.78901 -7.4482,17.66836 -11.7443,21.4065 -0.4515,0.39279 -1.0688,0.95908 -1.3719,1.25843 -1.0558,1.04276 -3.6875,2.65931 -5.8843,3.6144 l -2.2118,0.96164 -19.2055,0.0675 c -10.563,0.0371 -19.5914,-0.0416 -20.0629,-0.17489 z"
       id="path647-5-8"
       sodipodi:nodetypes="cssssssssssssssssssscccsscccssscssscsssscssscsssssssscscc" /><path
       style="fill:#000080;stroke:none;stroke-width:4.31768;paint-order:fill markers stroke"
       d="m -550.78753,281.59666 c -11.49866,-26.58871 -8.59997,-38.99734 -8.59019,-49.17379 0,-27.6134 0.21852,-25.30991 0.83262,-26.27502 2.89819,-4.55467 9.12622,-4.20572 11.38127,0.6377 0,0 0.6868,1.35839 0.68771,2.01231 0.0103,7.42765 0.14332,8.16807 0.14332,8.16807 l 0.003,2.40891 0.78257,0.91073 c 0.67199,0.78205 1.05122,0.91074 2.68387,0.91074 1.60029,0 2.03293,-0.14009 2.73273,-0.88482 l 0.83128,-0.88482 0.17147,-11.81057 c 0,0 0.28474,-4.4846 0.56413,-5.10414 0.21596,-0.47886 1.00348,-1.70314 1.75003,-2.37761 2.40222,-2.17026 5.88045,-2.18818 8.42628,0.0896 2.34795,2.10079 2.26079,3.92809 2.29189,7.92529 0.0847,10.88243 0.10573,10.88994 0.39898,11.44053 0.64972,1.21989 1.38644,1.58405 3.22802,1.59559 1.43569,0.009 1.88644,-0.14414 2.57217,-0.87387 l 0.83144,-0.88477 0.17147,-9.1294 c 0,0 0.22027,-2.85764 0.77532,-3.87305 2.15561,-3.94348 7.30722,-4.45795 10.24587,-1.30068 2.12299,2.28091 2.01115,4.76246 2.01115,8.72579 v 12.20106 l 1.00248,1.00249 c 0.83537,0.83537 1.28278,1.00249 2.68387,1.00249 1.36374,0 1.83845,-0.16712 2.51281,-0.88461 l 0.83144,-0.88462 0.17147,-16.86336 c 0.0943,-9.27485 0.31005,-17.17203 0.47942,-17.54928 2.05467,-4.57671 6.99771,-5.63707 10.60901,-2.2758 1.94544,1.81075 1.94504,1.80675 1.93108,19.20827 -0.0194,24.18443 -0.90107,32.80778 -4.66813,45.65702 -2.5767,8.78901 -7.44821,17.66836 -11.74431,21.4065 -0.45142,0.39279 -1.06875,0.95908 -1.37183,1.25843 -1.05579,1.04276 -3.68756,2.65931 -5.88429,3.6144 l -2.2118,0.96164 -19.20554,0.0675 c -10.56305,0.0371 -19.59137,-0.0416 -20.06294,-0.17489 z"
       id="path647-5-7-1"
       clip-path="url(#clipPath1226-6)"
       transform="translate(-511.11406,-342.40438)"
       sodipodi:nodetypes="ccsssccsssccsssssssccssscssscsssssssscscc" /><path
       style="fill:#000080;stroke:none;stroke-width:4.31768;paint-order:fill markers stroke"
       d="m -550.78753,281.59666 c -11.49866,-26.58871 -8.59997,-38.99734 -8.59019,-49.17379 0,-27.6134 0.21852,-25.30991 0.83262,-26.27502 2.89819,-4.55467 9.12622,-4.20572 11.38127,0.6377 0,0 0.6868,1.35839 0.68771,2.01231 0.0103,7.42765 0.14332,8.16807 0.14332,8.16807 l 0.003,2.40891 0.78257,0.91073 c 0.67199,0.78205 1.05122,0.91074 2.68387,0.91074 1.60029,0 2.03293,-0.14009 2.73273,-0.88482 l 0.83128,-0.88482 0.17147,-11.81057 c 0,0 0.28474,-4.4846 0.56413,-5.10414 0.21596,-0.47886 1.00348,-1.70314 1.75003,-2.37761 2.40222,-2.17026 5.88045,-2.18818 8.42628,0.0896 2.34795,2.10079 2.26079,3.92809 2.29189,7.92529 0.0847,10.88243 0.10573,10.88994 0.39898,11.44053 0.64972,1.21989 1.38644,1.58405 3.22802,1.59559 1.43569,0.009 1.88644,-0.14414 2.57217,-0.87387 l 0.83144,-0.88477 0.17147,-9.1294 c 0,0 0.22027,-2.85764 0.77532,-3.87305 2.15561,-3.94348 7.30722,-4.45795 10.24587,-1.30068 2.12299,2.28091 2.01115,4.76246 2.01115,8.72579 v 12.20106 l 1.00248,1.00249 c 0.83537,0.83537 1.28278,1.00249 2.68387,1.00249 1.36374,0 1.83845,-0.16712 2.51281,-0.88461 l 0.83144,-0.88462 0.17147,-16.86336 c 0.0943,-9.27485 0.31005,-17.17203 0.47942,-17.54928 2.05467,-4.57671 6.99771,-5.63707 10.60901,-2.2758 1.94544,1.81075 1.94504,1.80675 1.93108,19.20827 -0.0194,24.18443 -0.90107,32.80778 -4.66813,45.65702 -2.5767,8.78901 -7.44821,17.66836 -11.74431,21.4065 -0.45142,0.39279 -1.06875,0.95908 -1.37183,1.25843 -1.05579,1.04276 -3.68756,2.65931 -5.88429,3.6144 l -2.2118,0.96164 -19.20554,0.0675 c -10.56305,0.0371 -19.59137,-0.0416 -20.06294,-0.17489 z"
       id="path647-5-7-1-3"
       clip-path="url(#clipPath1226-6-1)"
       transform="translate(175.94638,-339.74417)"
       sodipodi:nodetypes="ccsssccsssccsssssssccssscssscsssssssscscc" /><path
       style="fill:#000080;stroke:none;stroke-width:4.31768;paint-order:fill markers stroke"
       d="m -697.23188,-61.244489 c -2.8592,-0.80843 -7.6485,-4.14261 -10.6069,-7.38416 -0.6738,-0.7383 -1.4442,-1.56372 -1.712,-1.83428 -0.2678,-0.27056 -1.151,-1.36414 -1.9625,-2.43017 -0.8116,-1.06603 -1.6342,-2.12463 -1.828,-2.35245 -0.1939,-0.22783 -0.3525,-0.49949 -0.3525,-0.6037 0,-0.1042 -0.5127,-0.92095 -1.1393,-1.81499 -2.3885,-3.40778 -4.8543,-8.06789 -14.6512,-27.690191 -9.8857,-19.79989 -10.1027,-20.2788 -10.1027,-22.30131 0,-5.5049 4.8657,-8.70831 9.1786,-6.04283 1.1245,0.69502 3.8022,4.85735 7.644,11.88224 0.5157,0.94313 1.1858,2.10127 1.4889,2.57364 1.057,1.64719 1.4017,2.23464 1.9109,3.25661 0.282,0.56588 0.7087,1.3361 0.9483,1.71159 0.2396,0.3755 0.9648,1.51347 1.6117,2.52883 1.5938,2.50183 3.4575,3.81905 5.4036,3.81905 1.5678,0 2.9958,-0.69143 3.8804,-1.87898 1.5027,-2.01707 1.7072,-7.77953 1.6985,-12.78777 -0.02,-11.43113 -0.1557,-16.13443 0.4584,-17.09954 2.8982,-4.55467 9.1263,-4.20573 11.3813,0.6377 l 0.828,1.77845 0.3742,10.27281 v 3.53762 l 0.7826,0.91073 c 0.672,0.78205 1.0512,0.91074 2.6839,0.91074 1.6003,0 2.0329,-0.14009 2.7327,-0.88482 l 0.8313,-0.88482 0.1715,-27.15184 c 0.122,-19.32043 0.2847,-27.40297 0.5641,-28.02251 0.216,-0.47886 1.0035,-1.42249 1.75,-2.09696 2.4022,-2.17026 5.8805,-2.09465 8.4263,0.18317 2.348,2.10079 2.2919,1.3555 2.2919,30.46948 0,19.13401 0.1057,26.23121 0.399,26.7818 0.6497,1.21989 1.3864,1.58405 3.228,1.59559 1.4357,0.009 1.8864,-0.14414 2.5722,-0.87387 l 0.8314,-0.88477 0.1715,-23.72232 c 0.1576,-21.80578 0.2202,-23.81158 0.7753,-24.82699 2.1556,-3.94348 7.3072,-4.73858 10.2459,-1.58134 2.123,2.28091 2.0111,0.61476 2.0111,29.96036 v 26.79398 l 1.0025,1.00249 c 0.8354,0.83537 1.2828,1.00249 2.6839,1.00249 1.3637,0 1.8384,-0.16712 2.5128,-0.88461 l 0.8314,-0.88462 0.1054,0.003 c 0,0 0.31,-17.17203 0.4794,-17.54928 2.0547,-4.57671 6.9977,-5.63707 10.609,-2.2758 1.9455,1.81075 1.9451,1.80675 1.9311,19.20827 -0.019,24.184431 -0.835,15.94127 -4.602,28.790511 -2.5767,8.78901 -7.4482,17.66836 -11.7443,21.4065 -0.4515,0.39279 -1.0688,0.95908 -1.3719,1.25843 -1.0558,1.04276 -3.6875,2.65931 -5.8843,3.6144 l -2.2118,0.96164 -19.2055,0.0675 c -10.5631,0.0371 -19.5914,-0.0416 -20.0629,-0.17489 z"
       id="path647-5-7-4"
       sodipodi:nodetypes="cssssssssssssssssssscccssscsssssssscsssscsssccssssssscscc" /><text
       xml:space="preserve"
       style="font-size:35.2777px;line-height:18.5208px;font-family:'BLOODSTAIN PERSONAL USE';-inkscape-font-specification:'BLOODSTAIN PERSONAL USE';text-align:center;text-anchor:middle;fill:#000000;stroke:none;stroke-width:3.331;paint-order:fill markers stroke"
       x="-951.09454"
       y="-98.31192"
       id="text816"><tspan
         sodipodi:role="line"
         id="tspan814"
         x="-951.09454"
         y="-98.31192"
         style="font-style:normal;font-variant:normal;font-weight:normal;font-stretch:normal;font-family:'Trebuchet MS';-inkscape-font-specification:'Trebuchet MS';stroke-width:3.331">[A]</tspan></text><text
       xml:space="preserve"
       style="font-size:35.2777px;line-height:18.5208px;font-family:'BLOODSTAIN PERSONAL USE';-inkscape-font-specification:'BLOODSTAIN PERSONAL USE';text-align:center;text-anchor:middle;fill:#000000;stroke:none;stroke-width:3.331;paint-order:fill markers stroke"
       x="-668.97485"
       y="157.88786"
       id="text816-0"><tspan
         sodipodi:role="line"
         id="tspan814-2"
         x="-668.97485"
         y="157.88786"
         style="font-style:normal;font-variant:normal;font-weight:normal;font-stretch:normal;font-family:'Trebuchet MS';-inkscape-font-specification:'Trebuchet MS';stroke-width:3.331">[AAA]</tspan></text><text
       xml:space="preserve"
       style="font-size:35.2777px;line-height:18.5208px;font-family:'BLOODSTAIN PERSONAL USE';-inkscape-font-specification:'BLOODSTAIN PERSONAL USE';text-align:center;text-anchor:middle;fill:#000000;stroke:none;stroke-width:3.331;paint-order:fill markers stroke"
       x="-668.97485"
       y="689.9472"
       id="text816-0-5"><tspan
         sodipodi:role="line"
         id="tspan814-2-7"
         x="-668.97485"
         y="689.9472"
         style="font-style:normal;font-variant:normal;font-weight:normal;font-stretch:normal;font-family:'Trebuchet MS';-inkscape-font-specification:'Trebuchet MS';stroke-width:3.331">[AAAAAAA]</tspan></text><text
       xml:space="preserve"
       style="font-size:35.2777px;line-height:18.5208px;font-family:'BLOODSTAIN PERSONAL USE';-inkscape-font-specification:'BLOODSTAIN PERSONAL USE';text-align:center;text-anchor:middle;fill:#800000;stroke:none;stroke-width:3.331;paint-order:fill markers stroke"
       x="-668.7854"
       y="647.87915"
       id="text816-0-7-0-9-1"><tspan
         sodipodi:role="line"
         id="tspan814-2-5-4-4-4"
         x="-668.7854"
         y="647.87915"
         style="font-style:normal;font-variant:normal;font-weight:normal;font-stretch:normal;font-family:'Trebuchet MS';-inkscape-font-specification:'Trebuchet MS';fill:#000000;stroke-width:3.331">?????</tspan></text><text
       xml:space="preserve"
       style="font-size:35.2777px;line-height:18.5208px;font-family:'BLOODSTAIN PERSONAL USE';-inkscape-font-specification:'BLOODSTAIN PERSONAL USE';text-align:center;text-anchor:middle;fill:#000000;stroke:none;stroke-width:3.331;paint-order:fill markers stroke"
       x="-668.97485"
       y="340.36267"
       id="text816-0-9"><tspan
         sodipodi:role="line"
         id="tspan814-2-9"
         x="-668.97485"
         y="340.36267"
         style="font-style:normal;font-variant:normal;font-weight:normal;font-stretch:normal;font-family:'Trebuchet MS';-inkscape-font-specification:'Trebuchet MS';stroke-width:3.331">[A]</tspan></text><text
       xml:space="preserve"
       style="font-size:35.2777px;line-height:18.5208px;font-family:'BLOODSTAIN PERSONAL USE';-inkscape-font-specification:'BLOODSTAIN PERSONAL USE';text-align:center;text-anchor:middle;fill:#000000;stroke:none;stroke-width:3.331;paint-order:fill markers stroke"
       x="-668.77679"
       y="433.24997"
       id="text816-0-9-6"><tspan
         sodipodi:role="line"
         id="tspan814-2-9-3"
         x="-668.77679"
         y="433.24997"
         style="font-style:normal;font-variant:normal;font-weight:normal;font-stretch:normal;font-family:'Trebuchet MS';-inkscape-font-specification:'Trebuchet MS';stroke-width:3.331">[DDDDD]</tspan></text><text
       xml:space="preserve"
       style="font-size:35.2777px;line-height:18.5208px;font-family:'BLOODSTAIN PERSONAL USE';-inkscape-font-specification:'BLOODSTAIN PERSONAL USE';text-align:center;text-anchor:middle;fill:#800000;stroke:none;stroke-width:3.331;paint-order:fill markers stroke"
       x="-668.7854"
       y="210.63788"
       id="text816-0-7"><tspan
         sodipodi:role="line"
         id="tspan814-2-5"
         x="-668.7854"
         y="210.63788"
         style="font-style:normal;font-variant:normal;font-weight:normal;font-stretch:normal;font-family:'Trebuchet MS';-inkscape-font-specification:'Trebuchet MS';fill:#800000;stroke-width:3.331">?????</tspan></text><text
       xml:space="preserve"
       style="font-size:35.2777px;line-height:18.5208px;font-family:'BLOODSTAIN PERSONAL USE';-inkscape-font-specification:'BLOODSTAIN PERSONAL USE';text-align:center;text-anchor:middle;fill:#800000;stroke:none;stroke-width:3.331;paint-order:fill markers stroke"
       x="-668.58765"
       y="390.08777"
       id="text816-0-7-0"><tspan
         sodipodi:role="line"
         id="tspan814-2-5-4"
         x="-668.58765"
         y="390.08777"
         style="font-style:normal;font-variant:normal;font-weight:normal;font-stretch:normal;font-family:'Trebuchet MS';-inkscape-font-specification:'Trebuchet MS';fill:#000000;stroke-width:3.331">?????</tspan></text><text
       xml:space="preserve"
       style="font-size:35.2777px;line-height:18.5208px;font-family:'BLOODSTAIN PERSONAL USE';-inkscape-font-specification:'BLOODSTAIN PERSONAL USE';text-align:center;text-anchor:middle;fill:#800000;stroke:none;stroke-width:3.331;paint-order:fill markers stroke"
       x="-668.58734"
       y="481.88086"
       id="text816-0-7-0-9"><tspan
         sodipodi:role="line"
         id="tspan814-2-5-4-4"
         x="-668.58734"
         y="481.88086"
         style="font-style:normal;font-variant:normal;font-weight:normal;font-stretch:normal;font-family:'Trebuchet MS';-inkscape-font-specification:'Trebuchet MS';fill:#000000;stroke-width:3.331">?????</tspan></text><text
       xml:space="preserve"
       style="font-size:35.2777px;line-height:18.5208px;font-family:'BLOODSTAIN PERSONAL USE';-inkscape-font-specification:'BLOODSTAIN PERSONAL USE';text-align:center;text-anchor:middle;fill:#000000;stroke:none;stroke-width:3.331;paint-order:fill markers stroke"
       x="-668.79401"
       y="309.21332"
       id="text816-0-7-3"><tspan
         sodipodi:role="line"
         id="tspan814-2-5-5"
         x="-668.79401"
         y="309.21332"
         style="font-style:normal;font-variant:normal;font-weight:normal;font-stretch:normal;font-family:'Trebuchet MS';-inkscape-font-specification:'Trebuchet MS';fill:#000000;stroke-width:3.331">*****</tspan></text><text
       xml:space="preserve"
       style="font-size:35.2777px;line-height:18.5208px;font-family:'BLOODSTAIN PERSONAL USE';-inkscape-font-specification:'BLOODSTAIN PERSONAL USE';text-align:center;text-anchor:middle;fill:#000000;stroke:none;stroke-width:3.331;paint-order:fill markers stroke"
       x="-668.97485"
       y="256.82501"
       id="text816-0-0"><tspan
         sodipodi:role="line"
         id="tspan814-2-3"
         x="-668.97485"
         y="256.82501"
         style="font-style:normal;font-variant:normal;font-weight:normal;font-stretch:normal;font-family:'Trebuchet MS';-inkscape-font-specification:'Trebuchet MS';stroke-width:3.331">[BBBB]</tspan></text><text
       xml:space="preserve"
       style="font-size:35.2777px;line-height:18.5208px;font-family:'BLOODSTAIN PERSONAL USE';-inkscape-font-specification:'BLOODSTAIN PERSONAL USE';text-align:center;text-anchor:middle;fill:#000000;stroke:none;stroke-width:3.331;paint-order:fill markers stroke"
       x="-668.97485"
       y="599.24823"
       id="text816-0-0-10"><tspan
         sodipodi:role="line"
         id="tspan814-2-3-1"
         x="-668.97485"
         y="599.24823"
         style="font-style:normal;font-variant:normal;font-weight:normal;font-stretch:normal;font-family:'Trebuchet MS';-inkscape-font-specification:'Trebuchet MS';stroke-width:3.331">[BBBB]</tspan></text><text
       xml:space="preserve"
       style="font-size:35.2777px;line-height:18.5208px;font-family:'BLOODSTAIN PERSONAL USE';-inkscape-font-specification:'BLOODSTAIN PERSONAL USE';text-align:center;text-anchor:middle;fill:#000000;stroke:none;stroke-width:3.331;paint-order:fill markers stroke"
       x="-668.97485"
       y="523.94885"
       id="text816-0-0-1"><tspan
         sodipodi:role="line"
         id="tspan814-2-3-5"
         x="-668.97485"
         y="523.94885"
         style="font-style:normal;font-variant:normal;font-weight:normal;font-stretch:normal;font-family:'Trebuchet MS';-inkscape-font-specification:'Trebuchet MS';stroke-width:3.331">[CCCCCCCCCCC]</tspan></text><text
       xml:space="preserve"
       style="font-size:35.2777px;line-height:18.5208px;font-family:'BLOODSTAIN PERSONAL USE';-inkscape-font-specification:'BLOODSTAIN PERSONAL USE';text-align:center;text-anchor:middle;fill:#000000;stroke:none;stroke-width:3.331;paint-order:fill markers stroke"
       x="-774.17084"
       y="-95.651718"
       id="text816-2"><tspan
         sodipodi:role="line"
         id="tspan814-0"
         x="-774.17084"
         y="-95.651718"
         style="font-style:normal;font-variant:normal;font-weight:normal;font-stretch:normal;font-family:'Trebuchet MS';-inkscape-font-specification:'Trebuchet MS';stroke-width:3.331">[B]</tspan></text><text
       xml:space="preserve"
       style="font-size:35.2777px;line-height:18.5208px;font-family:'BLOODSTAIN PERSONAL USE';-inkscape-font-specification:'BLOODSTAIN PERSONAL USE';text-align:center;text-anchor:middle;fill:#000000;stroke:none;stroke-width:3.331;paint-order:fill markers stroke"
       x="-597.06171"
       y="-95.651718"
       id="text816-2-1"><tspan
         sodipodi:role="line"
         id="tspan814-0-4"
         x="-597.06171"
         y="-95.651718"
         style="font-style:normal;font-variant:normal;font-weight:normal;font-stretch:normal;font-family:'Trebuchet MS';-inkscape-font-specification:'Trebuchet MS';stroke-width:3.331">[C]</tspan></text><text
       xml:space="preserve"
       style="font-size:35.2777px;line-height:18.5208px;font-family:'BLOODSTAIN PERSONAL USE';-inkscape-font-specification:'BLOODSTAIN PERSONAL USE';text-align:center;text-anchor:middle;fill:#000000;stroke:none;stroke-width:3.331;paint-order:fill markers stroke"
       x="-419.11713"
       y="-95.651718"
       id="text816-2-1-1"><tspan
         sodipodi:role="line"
         id="tspan814-0-4-6"
         x="-419.11713"
         y="-95.651718"
         style="font-style:normal;font-variant:normal;font-weight:normal;font-stretch:normal;font-family:'Trebuchet MS';-inkscape-font-specification:'Trebuchet MS';stroke-width:3.331">[D]</tspan></text><text
       xml:space="preserve"
       style="font-style:normal;font-variant:normal;font-weight:normal;font-stretch:normal;font-size:35.2777px;line-height:18.5208px;font-family:'Trebuchet MS';-inkscape-font-specification:'Trebuchet MS';text-align:center;text-anchor:middle;fill:#000000;stroke:none;stroke-width:3.331;paint-order:fill markers stroke"
       x="-668.79401"
       y="572.21802"
       id="text3660"><tspan
         sodipodi:role="line"
         id="tspan3658"
         style="stroke-width:3.331"
         x="-668.79401"
         y="572.21802">*****</tspan></text><text
       xml:space="preserve"
       style="font-style:normal;font-variant:normal;font-weight:normal;font-stretch:normal;font-size:35.2777px;line-height:18.5208px;font-family:'Trebuchet MS';-inkscape-font-specification:'Trebuchet MS';text-align:center;text-anchor:middle;fill:#000000;stroke:none;stroke-width:3.331;paint-order:fill markers stroke"
       x="-668.79401"
       y="738.21643"
       id="text3745"><tspan
         sodipodi:role="line"
         id="tspan3743"
         style="fill:#000080;stroke-width:3.331"
         x="-668.79401"
         y="738.21643">*****</tspan></text></g></svg>
