<?xml version="1.0" encoding="UTF-8" standalone="no"?>
<!-- Created with Inkscape (http://www.inkscape.org/) -->

<svg
   xmlns:dc="http://purl.org/dc/elements/1.1/"
   xmlns:cc="http://creativecommons.org/ns#"
   xmlns:rdf="http://www.w3.org/1999/02/22-rdf-syntax-ns#"
   xmlns:svg="http://www.w3.org/2000/svg"
   xmlns="http://www.w3.org/2000/svg"
   xmlns:sodipodi="http://sodipodi.sourceforge.net/DTD/sodipodi-0.dtd"
   xmlns:inkscape="http://www.inkscape.org/namespaces/inkscape"
   width="142.10715mm"
   height="182.17261mm"
   viewBox="0 0 142.10715 182.17261"
   version="1.1"
   id="svg8"
   inkscape:version="0.92.4 (5da689c313, 2019-01-14)"
   sodipodi:docname="bicone.svg">
  <defs
     id="defs2" />
  <sodipodi:namedview
     id="base"
     pagecolor="#ffffff"
     bordercolor="#666666"
     borderopacity="1.0"
     inkscape:pageopacity="0.0"
     inkscape:pageshadow="2"
     inkscape:zoom="0.35"
     inkscape:cx="-797.06105"
     inkscape:cy="277.12022"
     inkscape:document-units="mm"
     inkscape:current-layer="layer1"
     showgrid="false"
     inkscape:window-width="1366"
     inkscape:window-height="705"
     inkscape:window-x="-8"
     inkscape:window-y="-8"
     inkscape:window-maximized="1" />
  <metadata
     id="metadata5">
    <rdf:RDF>
      <cc:Work
         rdf:about="">
        <dc:format>image/svg+xml</dc:format>
        <dc:type
           rdf:resource="http://purl.org/dc/dcmitype/StillImage" />
        <dc:title />
      </cc:Work>
    </rdf:RDF>
  </metadata>
  <g
     inkscape:label="Layer 1"
     inkscape:groupmode="layer"
     id="layer1"
     transform="translate(-34.779762,-52.07737)">
    <g
       aria-label="Bicone
 "
       style="font-style:normal;font-variant:normal;font-weight:normal;font-stretch:normal;font-size:16.93333244px;line-height:1.25;font-family:'Tw Cen MT Condensed Extra Bold';-inkscape-font-specification:'Tw Cen MT Condensed Extra Bold, ';text-align:center;letter-spacing:0px;word-spacing:0px;text-anchor:middle;fill:#000000;fill-opacity:1;stroke:none;stroke-width:0.26458332"
       id="text827">
      <path
         d="m 85.271711,181.64047 h 2.546615 q 2.224153,0 3.199804,0.87644 0.975651,0.86816 0.975651,2.21588 0,1.45521 -1.422135,2.33991 1.612304,0.63665 1.612304,2.42259 0,1.4304 -1.000455,2.30684 -1.000456,0.87643 -2.637565,0.87643 h -3.274219 z m 2.505274,2.11667 v 2.38125 q 1.67845,-0.0413 1.67845,-1.16582 0,-0.66973 -0.405143,-0.93431 -0.396875,-0.26458 -1.273307,-0.28112 z m 0,4.38216 v 2.38952 q 0.950846,-0.0165 1.422135,-0.28939 0.479557,-0.28112 0.479557,-0.91777 0,-1.18236 -1.694987,-1.18236 z"
         style="font-style:normal;font-variant:normal;font-weight:normal;font-stretch:normal;font-family:'Tw Cen MT Condensed Extra Bold';-inkscape-font-specification:'Tw Cen MT Condensed Extra Bold, ';text-align:center;text-anchor:middle;stroke-width:0.26458332"
         id="path4157" />
      <path
         d="m 93.639158,182.78976 q 0,-0.52917 0.372071,-0.90124 0.37207,-0.37207 0.892968,-0.37207 0.529167,0 0.901237,0.37207 0.372071,0.37207 0.372071,0.90124 0,0.5209 -0.372071,0.90123 -0.37207,0.37207 -0.901237,0.37207 -0.51263,0 -0.892968,-0.37207 -0.372071,-0.38033 -0.372071,-0.90123 z m 0.06615,2.28203 h 2.406055 v 7.60677 h -2.406055 z"
         style="font-style:normal;font-variant:normal;font-weight:normal;font-stretch:normal;font-family:'Tw Cen MT Condensed Extra Bold';-inkscape-font-specification:'Tw Cen MT Condensed Extra Bold, ';text-align:center;text-anchor:middle;stroke-width:0.26458332"
         id="path4159" />
      <path
         d="m 102.13063,190.35519 v 1.98437 q -0.8599,0.57878 -1.72806,0.57878 -1.281575,0 -2.058789,-1.10795 -0.768945,-1.11621 -0.768945,-2.99309 0,-1.77767 0.79375,-2.89388 0.79375,-1.11622 2.050524,-1.11622 0.87643,0 1.72806,0.62012 v 1.96784 q -0.48783,-0.25631 -0.87644,-0.25631 -0.57877,0 -0.93431,0.47128 -0.35553,0.46302 -0.35553,1.24024 0,0.81855 0.34727,1.28984 0.34726,0.47129 0.94257,0.47129 0.36381,0 0.8599,-0.25631 z"
         style="font-style:normal;font-variant:normal;font-weight:normal;font-stretch:normal;font-family:'Tw Cen MT Condensed Extra Bold';-inkscape-font-specification:'Tw Cen MT Condensed Extra Bold, ';text-align:center;text-anchor:middle;stroke-width:0.26458332"
         id="path4161" />
      <path
         d="m 106.42184,184.8072 q 1.64538,0 2.50527,1.09968 0.8599,1.09141 0.8599,3.04271 0,1.90996 -0.89297,2.96002 -0.89297,1.0418 -2.4722,1.0418 -1.51309,0 -2.40605,-1.0666 -0.8847,-1.0666 -0.8847,-2.93522 0,-1.9513 0.84335,-3.04271 0.85163,-1.09968 2.4474,-1.09968 z m 0.0165,5.99447 q 0.47129,0 0.7028,-0.43822 0.23978,-0.43821 0.23978,-1.49655 0,-1.05006 -0.23152,-1.47174 -0.23151,-0.42168 -0.69453,-0.42168 -0.45475,0 -0.69453,0.41341 -0.23978,0.40515 -0.23978,1.49655 0,1.91823 0.91778,1.91823 z"
         style="font-style:normal;font-variant:normal;font-weight:normal;font-stretch:normal;font-family:'Tw Cen MT Condensed Extra Bold';-inkscape-font-specification:'Tw Cen MT Condensed Extra Bold, ';text-align:center;text-anchor:middle;stroke-width:0.26458332"
         id="path4163" />
      <path
         d="m 113.59866,185.07179 v 1.03353 h 0.0413 q 0.84336,-1.28158 2.05879,-1.28158 0.79375,0 1.25677,0.52917 0.47129,0.52916 0.47129,1.4304 v 5.89525 h -2.40605 v -4.68809 q 0,-0.3886 -0.1819,-0.63665 -0.1819,-0.24805 -0.47129,-0.24805 -0.76895,0 -0.76895,0.96738 v 4.60541 h -2.39778 v -7.60677 z"
         style="font-style:normal;font-variant:normal;font-weight:normal;font-stretch:normal;font-family:'Tw Cen MT Condensed Extra Bold';-inkscape-font-specification:'Tw Cen MT Condensed Extra Bold, ';text-align:center;text-anchor:middle;stroke-width:0.26458332"
         id="path4165" />
      <path
         d="m 122.7764,190.35519 h 2.02571 q -0.57877,2.56315 -2.89388,2.56315 -1.44694,0 -2.2903,-1.09968 -0.84335,-1.09967 -0.84335,-3.03444 0,-1.80247 0.84335,-2.88561 0.84336,-1.09141 2.24069,-1.09141 0.84336,0 1.62058,0.52917 0.77721,0.5209 1.13274,1.38906 0.35554,0.86817 0.39688,2.73679 h -4.01009 q 0.0496,1.69498 0.94258,1.69498 0.30592,0 0.5457,-0.22324 0.23978,-0.22324 0.28939,-0.57877 z m -1.7446,-2.19935 h 1.7446 q -0.0248,-0.80202 -0.22324,-1.18236 -0.19844,-0.38861 -0.62839,-0.38861 -0.47956,0 -0.68626,0.37207 -0.20671,0.37207 -0.20671,1.1989 z"
         style="font-style:normal;font-variant:normal;font-weight:normal;font-stretch:normal;font-family:'Tw Cen MT Condensed Extra Bold';-inkscape-font-specification:'Tw Cen MT Condensed Extra Bold, ';text-align:center;text-anchor:middle;stroke-width:0.26458332"
         id="path4167" />
    </g>
    <rect
       style="opacity:1;fill:none;fill-opacity:1;stroke:#000000;stroke-width:1.32359576;stroke-miterlimit:4;stroke-dasharray:none;stroke-dashoffset:0;stroke-opacity:1"
       id="rect1445"
       width="62.513603"
       height="62.513603"
       x="-46.54063"
       y="-190.75449"
       ry="2.5164738e-06"
       transform="matrix(-0.59819911,0.80134751,-0.59819911,-0.80134751,0,0)" />
    <path
       style="fill:none;stroke:#000000;stroke-width:1.5;stroke-linecap:butt;stroke-linejoin:miter;stroke-miterlimit:4;stroke-dasharray:none;stroke-opacity:1"
       d="m 67.066029,115.51908 c 14.382545,14.06443 60.593641,15.14632 74.976181,0"
       id="path1447"
       inkscape:connector-curvature="0"
       sodipodi:nodetypes="cc" />
    <path
       sodipodi:nodetypes="cc"
       inkscape:connector-curvature="0"
       id="path1449"
       d="m 142.11432,116.67892 c -14.41018,-10.36422 -60.710112,-11.16146 -75.120301,0"
       style="fill:none;stroke:#000000;stroke-width:1.09163964;stroke-linecap:butt;stroke-linejoin:miter;stroke-miterlimit:4;stroke-dasharray:2.1832793, 2.1832793;stroke-dashoffset:0;stroke-opacity:1" />
  </g>
</svg>
