<?xml version="1.0" encoding="UTF-8" standalone="no"?>
<!-- Created with Inkscape (http://www.inkscape.org/) -->

<svg
   xmlns:dc="http://purl.org/dc/elements/1.1/"
   xmlns:cc="http://creativecommons.org/ns#"
   xmlns:rdf="http://www.w3.org/1999/02/22-rdf-syntax-ns#"
   xmlns:svg="http://www.w3.org/2000/svg"
   xmlns="http://www.w3.org/2000/svg"
   xmlns:sodipodi="http://sodipodi.sourceforge.net/DTD/sodipodi-0.dtd"
   xmlns:inkscape="http://www.inkscape.org/namespaces/inkscape"
   width="142.10715mm"
   height="182.17261mm"
   viewBox="0 0 142.10715 182.17261"
   version="1.1"
   id="svg8"
   inkscape:version="0.92.4 (5da689c313, 2019-01-14)"
   sodipodi:docname="cylinder.svg">
  <defs
     id="defs2" />
  <sodipodi:namedview
     id="base"
     pagecolor="#ffffff"
     bordercolor="#666666"
     borderopacity="1.0"
     inkscape:pageopacity="0.0"
     inkscape:pageshadow="2"
     inkscape:zoom="0.35"
     inkscape:cx="-241.34676"
     inkscape:cy="277.12022"
     inkscape:document-units="mm"
     inkscape:current-layer="layer1"
     showgrid="false"
     inkscape:window-width="1366"
     inkscape:window-height="705"
     inkscape:window-x="-8"
     inkscape:window-y="-8"
     inkscape:window-maximized="1" />
  <metadata
     id="metadata5">
    <rdf:RDF>
      <cc:Work
         rdf:about="">
        <dc:format>image/svg+xml</dc:format>
        <dc:type
           rdf:resource="http://purl.org/dc/dcmitype/StillImage" />
        <dc:title />
      </cc:Work>
    </rdf:RDF>
  </metadata>
  <g
     inkscape:label="Layer 1"
     inkscape:groupmode="layer"
     id="layer1"
     transform="translate(-34.779762,-52.07737)">
    <g
       aria-label="Cylinder
 "
       style="font-style:normal;font-variant:normal;font-weight:normal;font-stretch:normal;font-size:16.93333244px;line-height:1.25;font-family:'Tw Cen MT Condensed Extra Bold';-inkscape-font-specification:'Tw Cen MT Condensed Extra Bold, ';text-align:center;letter-spacing:0px;word-spacing:0px;text-anchor:middle;fill:#000000;fill-opacity:1;stroke:none;stroke-width:0.26458332"
       id="text827">
      <path
         d="m 85.478417,190.07407 v 2.62102 q -0.79375,0.25632 -1.422135,0.25632 -2.174545,0 -3.530534,-1.62884 -1.347721,-1.63711 -1.347721,-4.29948 0,-2.4722 1.364257,-4.07624 1.364258,-1.6123 3.447852,-1.6123 0.810286,0 1.488281,0.21497 v 2.6293 q -0.719336,-0.23978 -1.35599,-0.23978 -0.975651,0 -1.620572,0.89297 -0.644922,0.89297 -0.644922,2.27376 0,1.48828 0.644922,2.35645 0.65319,0.85989 1.736328,0.85989 0.529166,0 1.240234,-0.24804 z"
         style="font-style:normal;font-variant:normal;font-weight:normal;font-stretch:normal;font-family:'Tw Cen MT Condensed Extra Bold';-inkscape-font-specification:'Tw Cen MT Condensed Extra Bold, ';text-align:center;text-anchor:middle;stroke-width:0.26458332"
         id="path8917" />
      <path
         d="m 86.073729,185.07179 h 2.372982 l 0.603581,1.9761 q 0.314192,1.0418 0.545703,2.04226 h 0.04134 q 0.190169,-0.95085 0.314193,-1.36426 l 0.802018,-2.6541 h 2.406054 l -3.241145,10.74043 h -2.397787 l 0.975651,-3.23288 z"
         style="font-style:normal;font-variant:normal;font-weight:normal;font-stretch:normal;font-family:'Tw Cen MT Condensed Extra Bold';-inkscape-font-specification:'Tw Cen MT Condensed Extra Bold, ';text-align:center;text-anchor:middle;stroke-width:0.26458332"
         id="path8919" />
      <path
         d="m 94.300617,181.02862 h 2.406054 v 11.64994 h -2.406054 z"
         style="font-style:normal;font-variant:normal;font-weight:normal;font-stretch:normal;font-family:'Tw Cen MT Condensed Extra Bold';-inkscape-font-specification:'Tw Cen MT Condensed Extra Bold, ';text-align:center;text-anchor:middle;stroke-width:0.26458332"
         id="path8921" />
      <path
         d="m 98.600096,182.78976 q 0,-0.52917 0.372071,-0.90124 0.37207,-0.37207 0.892968,-0.37207 0.529165,0 0.901235,0.37207 0.37207,0.37207 0.37207,0.90124 0,0.5209 -0.37207,0.90123 -0.37207,0.37207 -0.901235,0.37207 -0.51263,0 -0.892968,-0.37207 -0.372071,-0.38033 -0.372071,-0.90123 z m 0.06615,2.28203 h 2.406058 v 7.60677 h -2.406058 z"
         style="font-style:normal;font-variant:normal;font-weight:normal;font-stretch:normal;font-family:'Tw Cen MT Condensed Extra Bold';-inkscape-font-specification:'Tw Cen MT Condensed Extra Bold, ';text-align:center;text-anchor:middle;stroke-width:0.26458332"
         id="path8923" />
      <path
         d="m 105.36351,185.07179 v 1.03353 h 0.0413 q 0.84336,-1.28158 2.05879,-1.28158 0.79375,0 1.25677,0.52917 0.47129,0.52916 0.47129,1.4304 v 5.89525 h -2.40606 v -4.68809 q 0,-0.3886 -0.1819,-0.63665 -0.1819,-0.24805 -0.47129,-0.24805 -0.76894,0 -0.76894,0.96738 v 4.60541 h -2.39779 v -7.60677 z"
         style="font-style:normal;font-variant:normal;font-weight:normal;font-stretch:normal;font-family:'Tw Cen MT Condensed Extra Bold';-inkscape-font-specification:'Tw Cen MT Condensed Extra Bold, ';text-align:center;text-anchor:middle;stroke-width:0.26458332"
         id="path8925" />
      <path
         d="m 114.75621,181.02862 h 2.38952 v 11.64994 h -2.40605 v -1.00046 h -0.0331 q -0.80201,1.25677 -1.81074,1.25677 -1.05833,0 -1.71152,-1.10794 -0.64492,-1.10794 -0.64492,-2.96003 0,-1.84381 0.66146,-2.94348 0.66145,-1.09968 1.74459,-1.09968 0.98392,0 1.81074,1.13275 z m 0,7.78868 q 0,-1.87689 -0.9095,-1.87689 -0.93431,0 -0.93431,1.99264 0,0.8847 0.24805,1.37253 0.25631,0.47955 0.70279,0.47955 0.41342,0 0.65319,-0.51263 0.23978,-0.51263 0.23978,-1.4552 z"
         style="font-style:normal;font-variant:normal;font-weight:normal;font-stretch:normal;font-family:'Tw Cen MT Condensed Extra Bold';-inkscape-font-specification:'Tw Cen MT Condensed Extra Bold, ';text-align:center;text-anchor:middle;stroke-width:0.26458332"
         id="path8927" />
      <path
         d="m 122.54489,190.35519 h 2.02571 q -0.57877,2.56315 -2.89388,2.56315 -1.44694,0 -2.2903,-1.09968 -0.84336,-1.09967 -0.84336,-3.03444 0,-1.80247 0.84336,-2.88561 0.84336,-1.09141 2.24069,-1.09141 0.84336,0 1.62058,0.52917 0.77721,0.5209 1.13274,1.38906 0.35554,0.86817 0.39688,2.73679 h -4.01009 q 0.0496,1.69498 0.94258,1.69498 0.30592,0 0.5457,-0.22324 0.23978,-0.22324 0.28939,-0.57877 z m -1.7446,-2.19935 h 1.7446 q -0.0248,-0.80202 -0.22325,-1.18236 -0.19843,-0.38861 -0.62838,-0.38861 -0.47956,0 -0.68626,0.37207 -0.20671,0.37207 -0.20671,1.1989 z"
         style="font-style:normal;font-variant:normal;font-weight:normal;font-stretch:normal;font-family:'Tw Cen MT Condensed Extra Bold';-inkscape-font-specification:'Tw Cen MT Condensed Extra Bold, ';text-align:center;text-anchor:middle;stroke-width:0.26458332"
         id="path8929" />
      <path
         d="m 128.48148,185.07179 v 1.27331 h 0.0331 q 0.85989,-1.48829 1.81074,-1.48829 0.14056,0 0.38861,0.0496 v 2.35645 q -0.43822,-0.0744 -0.81029,-0.0744 -1.32292,0 -1.32292,1.71153 v 3.77858 h -2.39778 v -7.60677 z"
         style="font-style:normal;font-variant:normal;font-weight:normal;font-stretch:normal;font-family:'Tw Cen MT Condensed Extra Bold';-inkscape-font-specification:'Tw Cen MT Condensed Extra Bold, ';text-align:center;text-anchor:middle;stroke-width:0.26458332"
         id="path8931" />
    </g>
    <path
       style="opacity:1;fill:#ffffff;fill-opacity:1;stroke:#000000;stroke-width:1.5;stroke-miterlimit:4;stroke-dasharray:none;stroke-dashoffset:0;stroke-opacity:1"
       id="path833"
       sodipodi:type="arc"
       sodipodi:cx="104.10059"
       sodipodi:cy="87.595207"
       sodipodi:rx="39.309525"
       sodipodi:ry="12.851191"
       sodipodi:start="0"
       sodipodi:end="6.2733417"
       sodipodi:open="true"
       d="M 143.41012,87.595207 A 39.309525,12.851191 0 0 1 104.19733,100.44636 39.309525,12.851191 0 0 1 64.791545,87.658458 39.309525,12.851191 0 0 1 103.81039,74.744367 a 39.309525,12.851191 0 0 1 39.59782,12.72434" />
    <path
       style="fill:none;stroke:#000000;stroke-width:1.5;stroke-linecap:butt;stroke-linejoin:miter;stroke-miterlimit:4;stroke-dasharray:none;stroke-opacity:1"
       d="M 143.40821,87.468706 V 157.14283"
       id="path835"
       inkscape:connector-curvature="0" />
    <path
       inkscape:connector-curvature="0"
       id="path837"
       d="M 65.091248,87.468706 V 157.14283"
       style="fill:none;stroke:#000000;stroke-width:1.5;stroke-linecap:butt;stroke-linejoin:miter;stroke-miterlimit:4;stroke-dasharray:none;stroke-opacity:1" />
    <path
       style="fill:none;stroke:#000000;stroke-width:1.5;stroke-linecap:butt;stroke-linejoin:miter;stroke-miterlimit:4;stroke-dasharray:none;stroke-opacity:1"
       d="m 65.091249,157.14283 c 17.034224,17.3869 62.794641,17.3869 78.316961,0"
       id="path839"
       inkscape:connector-curvature="0"
       sodipodi:nodetypes="cc" />
    <path
       sodipodi:nodetypes="cc"
       inkscape:connector-curvature="0"
       id="path841"
       d="m 143.40821,156.14267 c -20.05803,-14.36309 -59.014881,-14.3631 -78.316962,0"
       style="fill:none;stroke:#000000;stroke-width:1.5;stroke-linecap:butt;stroke-linejoin:miter;stroke-miterlimit:4;stroke-dasharray:3.00000008, 3.00000008;stroke-dashoffset:0;stroke-opacity:1" />
  </g>
</svg>
