<?xml version="1.0" encoding="UTF-8" standalone="no"?>
<!-- Created with Inkscape (http://www.inkscape.org/) -->

<svg
   xmlns:dc="http://purl.org/dc/elements/1.1/"
   xmlns:cc="http://creativecommons.org/ns#"
   xmlns:rdf="http://www.w3.org/1999/02/22-rdf-syntax-ns#"
   xmlns:svg="http://www.w3.org/2000/svg"
   xmlns="http://www.w3.org/2000/svg"
   xmlns:sodipodi="http://sodipodi.sourceforge.net/DTD/sodipodi-0.dtd"
   xmlns:inkscape="http://www.inkscape.org/namespaces/inkscape"
   width="142.10715mm"
   height="182.17261mm"
   viewBox="0 0 142.10715 182.17261"
   version="1.1"
   id="svg8"
   inkscape:version="0.92.4 (5da689c313, 2019-01-14)"
   sodipodi:docname="hyperboloid.svg">
  <defs
     id="defs2" />
  <sodipodi:namedview
     id="base"
     pagecolor="#ffffff"
     bordercolor="#666666"
     borderopacity="1.0"
     inkscape:pageopacity="0.0"
     inkscape:pageshadow="2"
     inkscape:zoom="0.35"
     inkscape:cx="-797.06105"
     inkscape:cy="277.12022"
     inkscape:document-units="mm"
     inkscape:current-layer="layer1"
     showgrid="false"
     inkscape:window-width="1366"
     inkscape:window-height="705"
     inkscape:window-x="-8"
     inkscape:window-y="-8"
     inkscape:window-maximized="1" />
  <metadata
     id="metadata5">
    <rdf:RDF>
      <cc:Work
         rdf:about="">
        <dc:format>image/svg+xml</dc:format>
        <dc:type
           rdf:resource="http://purl.org/dc/dcmitype/StillImage" />
        <dc:title />
      </cc:Work>
    </rdf:RDF>
  </metadata>
  <g
     inkscape:label="Layer 1"
     inkscape:groupmode="layer"
     id="layer1"
     transform="translate(-34.779762,-52.07737)">
    <g
       aria-label="Hyperboloid
 "
       style="font-style:normal;font-variant:normal;font-weight:normal;font-stretch:normal;font-size:16.93333244px;line-height:1.25;font-family:'Tw Cen MT Condensed Extra Bold';-inkscape-font-specification:'Tw Cen MT Condensed Extra Bold, ';text-align:center;letter-spacing:0px;word-spacing:0px;text-anchor:middle;fill:#000000;fill-opacity:1;stroke:none;stroke-width:0.26458332"
       id="text827">
      <path
         d="m 66.899707,181.64047 h 2.505273 v 4.09278 h 2.224154 v -4.09278 h 2.505273 v 11.03809 h -2.505273 v -4.58887 H 69.40498 v 4.58887 h -2.505273 z"
         style="font-style:normal;font-variant:normal;font-weight:normal;font-stretch:normal;font-family:'Tw Cen MT Condensed Extra Bold';-inkscape-font-specification:'Tw Cen MT Condensed Extra Bold, ';text-align:center;text-anchor:middle;stroke-width:0.26458332"
         id="path16419" />
      <path
         d="m 75.47386,185.07179 h 2.372982 l 0.603581,1.9761 q 0.314192,1.0418 0.545703,2.04226 h 0.04134 q 0.190169,-0.95085 0.314193,-1.36426 l 0.802018,-2.6541 h 2.406054 l -3.241145,10.74043 H 76.9208 l 0.975651,-3.23288 z"
         style="font-style:normal;font-variant:normal;font-weight:normal;font-stretch:normal;font-family:'Tw Cen MT Condensed Extra Bold';-inkscape-font-specification:'Tw Cen MT Condensed Extra Bold, ';text-align:center;text-anchor:middle;stroke-width:0.26458332"
         id="path16421" />
      <path
         d="m 86.032387,185.07179 v 0.96738 h 0.04134 q 0.802018,-1.18236 1.810742,-1.18236 1.083138,0 1.736328,1.10795 0.661458,1.09967 0.661458,2.96829 0,1.80247 -0.677995,2.91042 -0.669726,1.10794 -1.719791,1.10794 -1.107943,0 -1.810742,-1.27331 h -0.04134 v 4.13412 h -2.397786 v -10.74043 z m 1.852084,3.77858 q 0,-1.87689 -0.950847,-1.87689 -0.901237,0 -0.901237,1.89342 0,1.95131 0.901237,1.95131 0.950847,0 0.950847,-1.96784 z"
         style="font-style:normal;font-variant:normal;font-weight:normal;font-stretch:normal;font-family:'Tw Cen MT Condensed Extra Bold';-inkscape-font-specification:'Tw Cen MT Condensed Extra Bold, ';text-align:center;text-anchor:middle;stroke-width:0.26458332"
         id="path16423" />
      <path
         d="m 95.276268,190.35519 h 2.025716 q -0.578776,2.56315 -2.89388,2.56315 -1.44694,0 -2.2903,-1.09968 -0.843359,-1.09967 -0.843359,-3.03444 0,-1.80247 0.843359,-2.88561 0.84336,-1.09141 2.24069,-1.09141 0.84336,0 1.620573,0.52917 0.777214,0.5209 1.132747,1.38906 0.355534,0.86817 0.396875,2.73679 h -4.010091 q 0.04961,1.69498 0.942579,1.69498 0.305924,0 0.545703,-0.22324 0.239778,-0.22324 0.289388,-0.57877 z m -1.744597,-2.19935 h 1.744597 q -0.02481,-0.80202 -0.223243,-1.18236 -0.198437,-0.38861 -0.628385,-0.38861 -0.479557,0 -0.686263,0.37207 -0.206706,0.37207 -0.206706,1.1989 z"
         style="font-style:normal;font-variant:normal;font-weight:normal;font-stretch:normal;font-family:'Tw Cen MT Condensed Extra Bold';-inkscape-font-specification:'Tw Cen MT Condensed Extra Bold, ';text-align:center;text-anchor:middle;stroke-width:0.26458332"
         id="path16425" />
      <path
         d="m 101.21285,185.07179 v 1.27331 h 0.0331 q 0.85989,-1.48829 1.81074,-1.48829 0.14056,0 0.38861,0.0496 v 2.35645 q -0.43822,-0.0744 -0.81029,-0.0744 -1.32292,0 -1.32292,1.71153 v 3.77858 h -2.397783 v -7.60677 z"
         style="font-style:normal;font-variant:normal;font-weight:normal;font-stretch:normal;font-family:'Tw Cen MT Condensed Extra Bold';-inkscape-font-specification:'Tw Cen MT Condensed Extra Bold, ';text-align:center;text-anchor:middle;stroke-width:0.26458332"
         id="path16427" />
      <path
         d="m 104.73512,181.02862 h 2.39779 v 4.96094 h 0.0413 q 0.43822,-0.60358 0.81855,-0.8847 0.38861,-0.28112 0.99219,-0.28112 1.00873,0 1.68672,1.05833 0.678,1.05007 0.678,3.01791 0,1.81901 -0.65319,2.92695 -0.64493,1.10794 -1.67846,1.10794 -1.07487,0 -1.84381,-1.24023 h -0.0413 v 0.98392 h -2.39779 z m 4.23334,7.80521 q 0,-1.89342 -0.96739,-1.89342 -0.86816,0 -0.86816,1.82728 0,1.05006 0.22324,1.53789 0.23151,0.47955 0.7276,0.47955 0.88471,0 0.88471,-1.9513 z"
         style="font-style:normal;font-variant:normal;font-weight:normal;font-stretch:normal;font-family:'Tw Cen MT Condensed Extra Bold';-inkscape-font-specification:'Tw Cen MT Condensed Extra Bold, ';text-align:center;text-anchor:middle;stroke-width:0.26458332"
         id="path16429" />
      <path
         d="m 115.63265,184.8072 q 1.64537,0 2.50527,1.09968 0.85989,1.09141 0.85989,3.04271 0,1.90996 -0.89296,2.96002 -0.89297,1.0418 -2.4722,1.0418 -1.51309,0 -2.40606,-1.0666 -0.8847,-1.0666 -0.8847,-2.93522 0,-1.9513 0.84336,-3.04271 0.85163,-1.09968 2.4474,-1.09968 z m 0.0165,5.99447 q 0.47129,0 0.7028,-0.43822 0.23978,-0.43821 0.23978,-1.49655 0,-1.05006 -0.23151,-1.47174 -0.23151,-0.42168 -0.69453,-0.42168 -0.45475,0 -0.69453,0.41341 -0.23978,0.40515 -0.23978,1.49655 0,1.91823 0.91777,1.91823 z"
         style="font-style:normal;font-variant:normal;font-weight:normal;font-stretch:normal;font-family:'Tw Cen MT Condensed Extra Bold';-inkscape-font-specification:'Tw Cen MT Condensed Extra Bold, ';text-align:center;text-anchor:middle;stroke-width:0.26458332"
         id="path16431" />
      <path
         d="m 120.47783,181.02862 h 2.40605 v 11.64994 h -2.40605 z"
         style="font-style:normal;font-variant:normal;font-weight:normal;font-stretch:normal;font-family:'Tw Cen MT Condensed Extra Bold';-inkscape-font-specification:'Tw Cen MT Condensed Extra Bold, ';text-align:center;text-anchor:middle;stroke-width:0.26458332"
         id="path16433" />
      <path
         d="m 127.63812,184.8072 q 1.64537,0 2.50527,1.09968 0.8599,1.09141 0.8599,3.04271 0,1.90996 -0.89297,2.96002 -0.89297,1.0418 -2.4722,1.0418 -1.51309,0 -2.40606,-1.0666 -0.8847,-1.0666 -0.8847,-2.93522 0,-1.9513 0.84336,-3.04271 0.85163,-1.09968 2.4474,-1.09968 z m 0.0165,5.99447 q 0.47129,0 0.7028,-0.43822 0.23978,-0.43821 0.23978,-1.49655 0,-1.05006 -0.23151,-1.47174 -0.23151,-0.42168 -0.69453,-0.42168 -0.45475,0 -0.69453,0.41341 -0.23978,0.40515 -0.23978,1.49655 0,1.91823 0.91777,1.91823 z"
         style="font-style:normal;font-variant:normal;font-weight:normal;font-stretch:normal;font-family:'Tw Cen MT Condensed Extra Bold';-inkscape-font-specification:'Tw Cen MT Condensed Extra Bold, ';text-align:center;text-anchor:middle;stroke-width:0.26458332"
         id="path16435" />
      <path
         d="m 132.41715,182.78976 q 0,-0.52917 0.37207,-0.90124 0.37207,-0.37207 0.89297,-0.37207 0.52917,0 0.90124,0.37207 0.37207,0.37207 0.37207,0.90124 0,0.5209 -0.37207,0.90123 -0.37207,0.37207 -0.90124,0.37207 -0.51263,0 -0.89297,-0.37207 -0.37207,-0.38033 -0.37207,-0.90123 z m 0.0662,2.28203 h 2.40605 v 7.60677 h -2.40605 z"
         style="font-style:normal;font-variant:normal;font-weight:normal;font-stretch:normal;font-family:'Tw Cen MT Condensed Extra Bold';-inkscape-font-specification:'Tw Cen MT Condensed Extra Bold, ';text-align:center;text-anchor:middle;stroke-width:0.26458332"
         id="path16437" />
      <path
         d="m 140.56962,181.02862 h 2.38952 v 11.64994 h -2.40605 v -1.00046 h -0.0331 q -0.80201,1.25677 -1.81074,1.25677 -1.05833,0 -1.71152,-1.10794 -0.64492,-1.10794 -0.64492,-2.96003 0,-1.84381 0.66146,-2.94348 0.66145,-1.09968 1.74459,-1.09968 0.98392,0 1.81074,1.13275 z m 0,7.78868 q 0,-1.87689 -0.9095,-1.87689 -0.93431,0 -0.93431,1.99264 0,0.8847 0.24805,1.37253 0.25631,0.47955 0.7028,0.47955 0.41341,0 0.65319,-0.51263 0.23977,-0.51263 0.23977,-1.4552 z"
         style="font-style:normal;font-variant:normal;font-weight:normal;font-stretch:normal;font-family:'Tw Cen MT Condensed Extra Bold';-inkscape-font-specification:'Tw Cen MT Condensed Extra Bold, ';text-align:center;text-anchor:middle;stroke-width:0.26458332"
         id="path16439" />
    </g>
    <path
       style="opacity:1;fill:#ffffff;fill-opacity:1;stroke:#000000;stroke-width:1.5;stroke-miterlimit:4;stroke-dasharray:none;stroke-dashoffset:0;stroke-opacity:1"
       id="path833"
       sodipodi:type="arc"
       sodipodi:cx="104.10059"
       sodipodi:cy="87.595207"
       sodipodi:rx="39.309525"
       sodipodi:ry="12.851191"
       sodipodi:start="0"
       sodipodi:end="6.2733417"
       sodipodi:open="true"
       d="M 143.41012,87.595207 A 39.309525,12.851191 0 0 1 104.19733,100.44636 39.309525,12.851191 0 0 1 64.791545,87.658458 39.309525,12.851191 0 0 1 103.81039,74.744367 a 39.309525,12.851191 0 0 1 39.59782,12.72434" />
    <path
       inkscape:connector-curvature="0"
       id="path837"
       d="m 65.091248,90.26573 c 23.434524,24.73662 21.166667,45.44926 0,66.40611"
       style="fill:none;stroke:#000000;stroke-width:1.5;stroke-linecap:butt;stroke-linejoin:miter;stroke-miterlimit:4;stroke-dasharray:none;stroke-opacity:1"
       sodipodi:nodetypes="cc" />
    <path
       style="fill:none;stroke:#000000;stroke-width:1.5;stroke-linecap:butt;stroke-linejoin:miter;stroke-miterlimit:4;stroke-dasharray:none;stroke-opacity:1"
       d="m 65.091249,157.14283 c 17.034224,17.3869 62.794641,17.3869 78.316961,0"
       id="path839"
       inkscape:connector-curvature="0"
       sodipodi:nodetypes="cc" />
    <path
       sodipodi:nodetypes="cc"
       inkscape:connector-curvature="0"
       id="path841"
       d="m 143.40821,156.14267 c -20.05803,-14.36309 -59.014881,-14.3631 -78.316962,0"
       style="fill:none;stroke:#000000;stroke-width:1.5;stroke-linecap:butt;stroke-linejoin:miter;stroke-miterlimit:4;stroke-dasharray:3.00000008, 3.00000008;stroke-dashoffset:0;stroke-opacity:1" />
    <path
       sodipodi:nodetypes="cc"
       style="fill:none;stroke:#000000;stroke-width:1.5;stroke-linecap:butt;stroke-linejoin:miter;stroke-miterlimit:4;stroke-dasharray:none;stroke-opacity:1"
       d="m 143.40821,90.114542 c -23.43452,24.736628 -21.16666,45.449268 0,66.406118"
       id="path5538"
       inkscape:connector-curvature="0" />
    <path
       sodipodi:nodetypes="cc"
       inkscape:connector-curvature="0"
       id="path5540"
       d="m 80.846135,124.58923 c 10.182811,10.39364 37.537725,10.39364 46.816735,0"
       style="fill:none;stroke:#000000;stroke-width:1.5;stroke-linecap:butt;stroke-linejoin:miter;stroke-miterlimit:4;stroke-dasharray:none;stroke-opacity:1" />
    <path
       style="fill:none;stroke:#000000;stroke-width:1.50000004;stroke-linecap:butt;stroke-linejoin:miter;stroke-miterlimit:4;stroke-dasharray:3.00000008,3.00000008;stroke-dashoffset:0;stroke-opacity:1"
       d="m 127.66287,123.99135 c -11.99039,-8.58604 -35.278232,-8.58605 -46.816736,0"
       id="path5542"
       inkscape:connector-curvature="0"
       sodipodi:nodetypes="cc" />
  </g>
</svg>
