<?xml version="1.0" encoding="UTF-8" standalone="no"?>
<!-- Created with Inkscape (http://www.inkscape.org/) -->

<svg
   xmlns:dc="http://purl.org/dc/elements/1.1/"
   xmlns:cc="http://creativecommons.org/ns#"
   xmlns:rdf="http://www.w3.org/1999/02/22-rdf-syntax-ns#"
   xmlns:svg="http://www.w3.org/2000/svg"
   xmlns="http://www.w3.org/2000/svg"
   xmlns:sodipodi="http://sodipodi.sourceforge.net/DTD/sodipodi-0.dtd"
   xmlns:inkscape="http://www.inkscape.org/namespaces/inkscape"
   width="142.10715mm"
   height="182.17261mm"
   viewBox="0 0 142.10715 182.17261"
   version="1.1"
   id="svg8"
   inkscape:version="0.92.4 (5da689c313, 2019-01-14)"
   sodipodi:docname="hyperbolic bicylinder.svg">
  <defs
     id="defs2">
    <inkscape:path-effect
       effect="bspline"
       id="path-effect4837"
       is_visible="true"
       weight="33.333333"
       steps="2"
       helper_size="0"
       apply_no_weight="true"
       apply_with_weight="true"
       only_selected="false" />
    <inkscape:path-effect
       only_selected="false"
       apply_with_weight="true"
       apply_no_weight="true"
       helper_size="0"
       steps="2"
       weight="33.333333"
       is_visible="true"
       id="path-effect4833"
       effect="bspline" />
    <inkscape:path-effect
       effect="bspline"
       id="path-effect4829"
       is_visible="true"
       weight="33.333333"
       steps="2"
       helper_size="0"
       apply_no_weight="true"
       apply_with_weight="true"
       only_selected="false" />
  </defs>
  <sodipodi:namedview
     id="base"
     pagecolor="#ffffff"
     bordercolor="#666666"
     borderopacity="1.0"
     inkscape:pageopacity="0.0"
     inkscape:pageshadow="2"
     inkscape:zoom="0.49497475"
     inkscape:cx="-528.67401"
     inkscape:cy="277.12022"
     inkscape:document-units="mm"
     inkscape:current-layer="layer1"
     showgrid="false"
     inkscape:window-width="1366"
     inkscape:window-height="705"
     inkscape:window-x="-8"
     inkscape:window-y="-8"
     inkscape:window-maximized="1"
     inkscape:snap-global="false" />
  <metadata
     id="metadata5">
    <rdf:RDF>
      <cc:Work
         rdf:about="">
        <dc:format>image/svg+xml</dc:format>
        <dc:type
           rdf:resource="http://purl.org/dc/dcmitype/StillImage" />
        <dc:title />
      </cc:Work>
    </rdf:RDF>
  </metadata>
  <g
     inkscape:label="Layer 1"
     inkscape:groupmode="layer"
     id="layer1"
     transform="translate(-34.779762,-52.07737)">
    <g
       aria-label="Hyperbolic
Bicylinder"
       style="font-style:normal;font-variant:normal;font-weight:normal;font-stretch:normal;font-size:16.93333244px;line-height:1.25;font-family:'Tw Cen MT Condensed Extra Bold';-inkscape-font-specification:'Tw Cen MT Condensed Extra Bold, ';text-align:center;letter-spacing:0px;word-spacing:0px;text-anchor:middle;fill:#000000;fill-opacity:1;stroke:none;stroke-width:0.26458332"
       id="text827">
      <path
         d="m 72.472494,181.64047 h 2.505273 v 4.09278 h 2.224154 v -4.09278 h 2.505273 v 11.03809 h -2.505273 v -4.58887 h -2.224154 v 4.58887 h -2.505273 z"
         style="font-style:normal;font-variant:normal;font-weight:normal;font-stretch:normal;font-family:'Tw Cen MT Condensed Extra Bold';-inkscape-font-specification:'Tw Cen MT Condensed Extra Bold, ';text-align:center;text-anchor:middle;stroke-width:0.26458332"
         id="path15185" />
      <path
         d="m 81.046647,185.07179 h 2.372982 l 0.60358,1.9761 q 0.314193,1.0418 0.545704,2.04226 h 0.04134 q 0.190169,-0.95085 0.314192,-1.36426 l 0.802019,-2.6541 h 2.406054 l -3.241146,10.74043 h -2.397786 l 0.975651,-3.23288 z"
         style="font-style:normal;font-variant:normal;font-weight:normal;font-stretch:normal;font-family:'Tw Cen MT Condensed Extra Bold';-inkscape-font-specification:'Tw Cen MT Condensed Extra Bold, ';text-align:center;text-anchor:middle;stroke-width:0.26458332"
         id="path15187" />
      <path
         d="m 91.605174,185.07179 v 0.96738 h 0.04134 q 0.802018,-1.18236 1.810742,-1.18236 1.083138,0 1.736328,1.10795 0.661459,1.09967 0.661459,2.96829 0,1.80247 -0.677995,2.91042 -0.669727,1.10794 -1.719792,1.10794 -1.107942,0 -1.810742,-1.27331 h -0.04134 v 4.13412 h -2.397786 v -10.74043 z m 1.852083,3.77858 q 0,-1.87689 -0.950846,-1.87689 -0.901237,0 -0.901237,1.89342 0,1.95131 0.901237,1.95131 0.950846,0 0.950846,-1.96784 z"
         style="font-style:normal;font-variant:normal;font-weight:normal;font-stretch:normal;font-family:'Tw Cen MT Condensed Extra Bold';-inkscape-font-specification:'Tw Cen MT Condensed Extra Bold, ';text-align:center;text-anchor:middle;stroke-width:0.26458332"
         id="path15189" />
      <path
         d="m 100.84905,190.35519 h 2.02572 q -0.57878,2.56315 -2.89388,2.56315 -1.44694,0 -2.290299,-1.09968 -0.843359,-1.09967 -0.843359,-3.03444 0,-1.80247 0.843359,-2.88561 0.843359,-1.09141 2.24069,-1.09141 0.843359,0 1.620569,0.52917 0.77722,0.5209 1.13275,1.38906 0.35553,0.86817 0.39688,2.73679 h -4.010095 q 0.04961,1.69498 0.942575,1.69498 0.30593,0 0.54571,-0.22324 0.23977,-0.22324 0.28938,-0.57877 z m -1.744592,-2.19935 h 1.744592 q -0.0248,-0.80202 -0.22324,-1.18236 -0.19844,-0.38861 -0.628383,-0.38861 -0.479557,0 -0.686263,0.37207 -0.206706,0.37207 -0.206706,1.1989 z"
         style="font-style:normal;font-variant:normal;font-weight:normal;font-stretch:normal;font-family:'Tw Cen MT Condensed Extra Bold';-inkscape-font-specification:'Tw Cen MT Condensed Extra Bold, ';text-align:center;text-anchor:middle;stroke-width:0.26458332"
         id="path15191" />
      <path
         d="m 106.78564,185.07179 v 1.27331 h 0.0331 q 0.8599,-1.48829 1.81075,-1.48829 0.14056,0 0.3886,0.0496 v 2.35645 q -0.43821,-0.0744 -0.81028,-0.0744 -1.32292,0 -1.32292,1.71153 v 3.77858 h -2.39779 v -7.60677 z"
         style="font-style:normal;font-variant:normal;font-weight:normal;font-stretch:normal;font-family:'Tw Cen MT Condensed Extra Bold';-inkscape-font-specification:'Tw Cen MT Condensed Extra Bold, ';text-align:center;text-anchor:middle;stroke-width:0.26458332"
         id="path15193" />
      <path
         d="m 110.30791,181.02862 h 2.39779 v 4.96094 h 0.0413 q 0.43821,-0.60358 0.81855,-0.8847 0.38861,-0.28112 0.99219,-0.28112 1.00872,0 1.68672,1.05833 0.67799,1.05007 0.67799,3.01791 0,1.81901 -0.65319,2.92695 -0.64492,1.10794 -1.67845,1.10794 -1.07487,0 -1.84381,-1.24023 h -0.0413 v 0.98392 h -2.39779 z m 4.23333,7.80521 q 0,-1.89342 -0.96738,-1.89342 -0.86816,0 -0.86816,1.82728 0,1.05006 0.22324,1.53789 0.23151,0.47955 0.7276,0.47955 0.8847,0 0.8847,-1.9513 z"
         style="font-style:normal;font-variant:normal;font-weight:normal;font-stretch:normal;font-family:'Tw Cen MT Condensed Extra Bold';-inkscape-font-specification:'Tw Cen MT Condensed Extra Bold, ';text-align:center;text-anchor:middle;stroke-width:0.26458332"
         id="path15195" />
      <path
         d="m 121.20543,184.8072 q 1.64538,0 2.50528,1.09968 0.85989,1.09141 0.85989,3.04271 0,1.90996 -0.89297,2.96002 -0.89297,1.0418 -2.4722,1.0418 -1.51308,0 -2.40605,-1.0666 -0.8847,-1.0666 -0.8847,-2.93522 0,-1.9513 0.84336,-3.04271 0.85162,-1.09968 2.44739,-1.09968 z m 0.0165,5.99447 q 0.47129,0 0.7028,-0.43822 0.23978,-0.43821 0.23978,-1.49655 0,-1.05006 -0.23151,-1.47174 -0.23151,-0.42168 -0.69453,-0.42168 -0.45476,0 -0.69454,0.41341 -0.23977,0.40515 -0.23977,1.49655 0,1.91823 0.91777,1.91823 z"
         style="font-style:normal;font-variant:normal;font-weight:normal;font-stretch:normal;font-family:'Tw Cen MT Condensed Extra Bold';-inkscape-font-specification:'Tw Cen MT Condensed Extra Bold, ';text-align:center;text-anchor:middle;stroke-width:0.26458332"
         id="path15197" />
      <path
         d="m 126.05061,181.02862 h 2.40606 v 11.64994 h -2.40606 z"
         style="font-style:normal;font-variant:normal;font-weight:normal;font-stretch:normal;font-family:'Tw Cen MT Condensed Extra Bold';-inkscape-font-specification:'Tw Cen MT Condensed Extra Bold, ';text-align:center;text-anchor:middle;stroke-width:0.26458332"
         id="path15199" />
      <path
         d="m 130.3501,182.78976 q 0,-0.52917 0.37207,-0.90124 0.37207,-0.37207 0.89296,-0.37207 0.52917,0 0.90124,0.37207 0.37207,0.37207 0.37207,0.90124 0,0.5209 -0.37207,0.90123 -0.37207,0.37207 -0.90124,0.37207 -0.51263,0 -0.89296,-0.37207 -0.37207,-0.38033 -0.37207,-0.90123 z m 0.0661,2.28203 h 2.40606 v 7.60677 h -2.40606 z"
         style="font-style:normal;font-variant:normal;font-weight:normal;font-stretch:normal;font-family:'Tw Cen MT Condensed Extra Bold';-inkscape-font-specification:'Tw Cen MT Condensed Extra Bold, ';text-align:center;text-anchor:middle;stroke-width:0.26458332"
         id="path15201" />
      <path
         d="m 138.84157,190.35519 v 1.98437 q -0.8599,0.57878 -1.72806,0.57878 -1.28158,0 -2.05879,-1.10795 -0.76895,-1.11621 -0.76895,-2.99309 0,-1.77767 0.79375,-2.89388 0.79375,-1.11622 2.05052,-1.11622 0.87643,0 1.72806,0.62012 v 1.96784 q -0.48782,-0.25631 -0.87643,-0.25631 -0.57878,0 -0.93431,0.47128 -0.35553,0.46302 -0.35553,1.24024 0,0.81855 0.34726,1.28984 0.34727,0.47129 0.94258,0.47129 0.3638,0 0.8599,-0.25631 z"
         style="font-style:normal;font-variant:normal;font-weight:normal;font-stretch:normal;font-family:'Tw Cen MT Condensed Extra Bold';-inkscape-font-specification:'Tw Cen MT Condensed Extra Bold, ';text-align:center;text-anchor:middle;stroke-width:0.26458332"
         id="path15203" />
      <path
         d="m 74.63877,202.80714 h 2.546614 q 2.224154,0 3.199805,0.87643 0.975651,0.86816 0.975651,2.21589 0,1.4552 -1.422136,2.3399 1.612305,0.63666 1.612305,2.4226 0,1.4304 -1.000456,2.30683 -1.000456,0.87643 -2.637565,0.87643 H 74.63877 Z m 2.505273,2.11667 v 2.38124 q 1.67845,-0.0413 1.67845,-1.16582 0,-0.66972 -0.405143,-0.93431 -0.396875,-0.26458 -1.273307,-0.28111 z m 0,4.38216 v 2.38951 q 0.950846,-0.0165 1.422135,-0.28938 0.479558,-0.28112 0.479558,-0.91778 0,-1.18235 -1.694987,-1.18235 z"
         style="font-style:normal;font-variant:normal;font-weight:normal;font-stretch:normal;font-family:'Tw Cen MT Condensed Extra Bold';-inkscape-font-specification:'Tw Cen MT Condensed Extra Bold, ';text-align:center;text-anchor:middle;stroke-width:0.26458332"
         id="path15205" />
      <path
         d="m 83.006217,203.95642 q 0,-0.52916 0.37207,-0.90123 0.37207,-0.37207 0.892969,-0.37207 0.529166,0 0.901237,0.37207 0.37207,0.37207 0.37207,0.90123 0,0.5209 -0.37207,0.90124 -0.372071,0.37207 -0.901237,0.37207 -0.51263,0 -0.892969,-0.37207 -0.37207,-0.38034 -0.37207,-0.90124 z m 0.06615,2.28203 h 2.406054 v 7.60677 h -2.406054 z"
         style="font-style:normal;font-variant:normal;font-weight:normal;font-stretch:normal;font-family:'Tw Cen MT Condensed Extra Bold';-inkscape-font-specification:'Tw Cen MT Condensed Extra Bold, ';text-align:center;text-anchor:middle;stroke-width:0.26458332"
         id="path15207" />
      <path
         d="m 91.497688,211.52185 v 1.98438 q -0.859895,0.57877 -1.72806,0.57877 -1.281575,0 -2.058788,-1.10794 -0.768946,-1.11621 -0.768946,-2.9931 0,-1.77767 0.79375,-2.89388 0.79375,-1.11621 2.050521,-1.11621 0.876432,0 1.72806,0.62012 v 1.96784 q -0.487826,-0.25632 -0.876432,-0.25632 -0.578776,0 -0.93431,0.47129 -0.355534,0.46302 -0.355534,1.24023 0,0.81856 0.347265,1.28985 0.347266,0.47129 0.942579,0.47129 0.363802,0 0.859895,-0.25632 z"
         style="font-style:normal;font-variant:normal;font-weight:normal;font-stretch:normal;font-family:'Tw Cen MT Condensed Extra Bold';-inkscape-font-specification:'Tw Cen MT Condensed Extra Bold, ';text-align:center;text-anchor:middle;stroke-width:0.26458332"
         id="path15209" />
      <path
         d="m 92.175683,206.23845 h 2.372982 l 0.60358,1.97611 q 0.314193,1.0418 0.545703,2.04225 h 0.04134 q 0.190169,-0.95084 0.314192,-1.36426 l 0.802018,-2.6541 h 2.406055 l -3.241146,10.74043 h -2.397786 l 0.975651,-3.23287 z"
         style="font-style:normal;font-variant:normal;font-weight:normal;font-stretch:normal;font-family:'Tw Cen MT Condensed Extra Bold';-inkscape-font-specification:'Tw Cen MT Condensed Extra Bold, ';text-align:center;text-anchor:middle;stroke-width:0.26458332"
         id="path15211" />
      <path
         d="m 100.40257,202.19529 h 2.40606 v 11.64993 h -2.40606 z"
         style="font-style:normal;font-variant:normal;font-weight:normal;font-stretch:normal;font-family:'Tw Cen MT Condensed Extra Bold';-inkscape-font-specification:'Tw Cen MT Condensed Extra Bold, ';text-align:center;text-anchor:middle;stroke-width:0.26458332"
         id="path15213" />
      <path
         d="m 104.70205,203.95642 q 0,-0.52916 0.37207,-0.90123 0.37207,-0.37207 0.89297,-0.37207 0.52916,0 0.90123,0.37207 0.37207,0.37207 0.37207,0.90123 0,0.5209 -0.37207,0.90124 -0.37207,0.37207 -0.90123,0.37207 -0.51263,0 -0.89297,-0.37207 -0.37207,-0.38034 -0.37207,-0.90124 z m 0.0661,2.28203 h 2.40606 v 7.60677 h -2.40606 z"
         style="font-style:normal;font-variant:normal;font-weight:normal;font-stretch:normal;font-family:'Tw Cen MT Condensed Extra Bold';-inkscape-font-specification:'Tw Cen MT Condensed Extra Bold, ';text-align:center;text-anchor:middle;stroke-width:0.26458332"
         id="path15215" />
      <path
         d="m 111.46546,206.23845 v 1.03353 h 0.0413 q 0.84336,-1.28157 2.05879,-1.28157 0.79375,0 1.25677,0.52916 0.47129,0.52917 0.47129,1.43041 v 5.89524 h -2.40605 v -4.68808 q 0,-0.38861 -0.1819,-0.63666 -0.18191,-0.24804 -0.47129,-0.24804 -0.76895,0 -0.76895,0.96738 v 4.6054 h -2.39778 v -7.60677 z"
         style="font-style:normal;font-variant:normal;font-weight:normal;font-stretch:normal;font-family:'Tw Cen MT Condensed Extra Bold';-inkscape-font-specification:'Tw Cen MT Condensed Extra Bold, ';text-align:center;text-anchor:middle;stroke-width:0.26458332"
         id="path15217" />
      <path
         d="m 120.85817,202.19529 h 2.38952 v 11.64993 h -2.40606 v -1.00045 h -0.0331 q -0.80202,1.25677 -1.81074,1.25677 -1.05834,0 -1.71153,-1.10794 -0.64492,-1.10795 -0.64492,-2.96003 0,-1.84381 0.66146,-2.94349 0.66146,-1.09967 1.7446,-1.09967 0.98391,0 1.81074,1.13274 z m 0,7.78867 q 0,-1.87689 -0.90951,-1.87689 -0.93431,0 -0.93431,1.99265 0,0.8847 0.24805,1.37252 0.25631,0.47956 0.7028,0.47956 0.41341,0 0.65319,-0.51263 0.23978,-0.51263 0.23978,-1.45521 z"
         style="font-style:normal;font-variant:normal;font-weight:normal;font-stretch:normal;font-family:'Tw Cen MT Condensed Extra Bold';-inkscape-font-specification:'Tw Cen MT Condensed Extra Bold, ';text-align:center;text-anchor:middle;stroke-width:0.26458332"
         id="path15219" />
      <path
         d="m 128.64684,211.52185 h 2.02572 q -0.57878,2.56315 -2.89388,2.56315 -1.44694,0 -2.2903,-1.09967 -0.84336,-1.09968 -0.84336,-3.03444 0,-1.80248 0.84336,-2.88561 0.84336,-1.09141 2.24069,-1.09141 0.84336,0 1.62057,0.52917 0.77721,0.5209 1.13275,1.38906 0.35553,0.86816 0.39687,2.73678 h -4.01009 q 0.0496,1.69499 0.94258,1.69499 0.30592,0 0.5457,-0.22324 0.23978,-0.22324 0.28939,-0.57878 z m -1.7446,-2.19935 h 1.7446 q -0.0248,-0.80202 -0.22324,-1.18235 -0.19844,-0.38861 -0.62839,-0.38861 -0.47955,0 -0.68626,0.37207 -0.20671,0.37207 -0.20671,1.19889 z"
         style="font-style:normal;font-variant:normal;font-weight:normal;font-stretch:normal;font-family:'Tw Cen MT Condensed Extra Bold';-inkscape-font-specification:'Tw Cen MT Condensed Extra Bold, ';text-align:center;text-anchor:middle;stroke-width:0.26458332"
         id="path15221" />
      <path
         d="m 134.58343,206.23845 v 1.27331 h 0.0331 q 0.8599,-1.48828 1.81074,-1.48828 0.14056,0 0.38861,0.0496 v 2.35644 q -0.43822,-0.0744 -0.81029,-0.0744 -1.32291,0 -1.32291,1.71152 v 3.77858 h -2.39779 v -7.60677 z"
         style="font-style:normal;font-variant:normal;font-weight:normal;font-stretch:normal;font-family:'Tw Cen MT Condensed Extra Bold';-inkscape-font-specification:'Tw Cen MT Condensed Extra Bold, ';text-align:center;text-anchor:middle;stroke-width:0.26458332"
         id="path15223" />
    </g>
    <path
       style="fill:none;stroke:#000000;stroke-width:1.5;stroke-linecap:butt;stroke-linejoin:miter;stroke-miterlimit:4;stroke-dasharray:none;stroke-opacity:1"
       d="m 87.769868,75.385546 -31.4438,22.97816 64.701702,15.721894 32.65318,-22.373471 z"
       id="path4929"
       inkscape:connector-curvature="0"
       sodipodi:nodetypes="ccccc" />
    <path
       style="fill:none;stroke:#000000;stroke-width:1.5;stroke-linecap:butt;stroke-linejoin:miter;stroke-miterlimit:4;stroke-dasharray:none;stroke-opacity:1"
       d="m 56.326068,151.28069 64.701702,15.72191 32.65318,-22.37352"
       id="path4933"
       inkscape:connector-curvature="0" />
    <path
       style="fill:none;stroke:#000000;stroke-width:1.5;stroke-linecap:butt;stroke-linejoin:miter;stroke-opacity:1;stroke-miterlimit:4;stroke-dasharray:3,3;stroke-dashoffset:0"
       d="m 56.326068,151.28069 31.4438,-22.97829 65.911082,16.32668"
       id="path4935"
       inkscape:connector-curvature="0" />
    <path
       style="fill:none;stroke:#000000;stroke-width:1.5;stroke-linecap:butt;stroke-linejoin:miter;stroke-miterlimit:4;stroke-dasharray:none;stroke-opacity:1"
       d="m 56.326068,98.363705 c 26.250502,17.638995 24.040993,38.485225 0,52.916985"
       id="path4937"
       inkscape:connector-curvature="0"
       sodipodi:nodetypes="cc" />
    <path
       sodipodi:nodetypes="cc"
       inkscape:connector-curvature="0"
       id="path4939"
       d="m 153.68095,91.712092 c -26.2505,17.638998 -24.04099,38.485228 0,52.916988"
       style="fill:none;stroke:#000000;stroke-width:1.5;stroke-linecap:butt;stroke-linejoin:miter;stroke-miterlimit:4;stroke-dasharray:none;stroke-opacity:1" />
    <path
       style="fill:none;stroke:#000000;stroke-width:1.5;stroke-linecap:butt;stroke-linejoin:miter;stroke-miterlimit:4;stroke-dasharray:none;stroke-opacity:1"
       d="m 121.02777,114.0856 c -8.01809,16.03538 -8.55262,31.00169 0,52.917"
       id="path4941"
       inkscape:connector-curvature="0"
       sodipodi:nodetypes="cc" />
    <path
       sodipodi:nodetypes="cc"
       inkscape:connector-curvature="0"
       id="path4943"
       d="m 87.769868,75.385546 c 8.01809,16.03538 8.55262,31.001694 0,52.917004"
       style="fill:none;stroke:#000000;stroke-width:1.50000004;stroke-linecap:butt;stroke-linejoin:miter;stroke-miterlimit:4;stroke-dasharray:3.00000008,3.00000008;stroke-opacity:1;stroke-dashoffset:0" />
    <path
       inkscape:connector-curvature="0"
       id="path4945"
       d="m 75.411307,124.45701 39.328893,9.55655 19.84822,-13.59973"
       style="fill:none;stroke:#000000;stroke-width:1.5;stroke-linecap:butt;stroke-linejoin:miter;stroke-miterlimit:4;stroke-dasharray:none;stroke-opacity:1" />
    <path
       inkscape:connector-curvature="0"
       id="path4947"
       d="m 75.411307,124.45701 19.113098,-13.96734 40.064015,9.92416"
       style="fill:none;stroke:#000000;stroke-width:1.50000004;stroke-linecap:butt;stroke-linejoin:miter;stroke-miterlimit:4;stroke-dasharray:3.00000008,3.00000008;stroke-dashoffset:0;stroke-opacity:1" />
  </g>
</svg>
