<svg xmlns="http://www.w3.org/2000/svg" width="537.098" height="688.526" viewBox="0 0 142.107 182.173"><g aria-label="Hyperbolic Cylinder" style="line-height:1.25;-inkscape-font-specification:'Tw Cen MT Condensed Extra Bold, ';text-align:center" font-weight="400" font-size="16.933" font-family="Tw Cen MT Condensed Extra Bold" letter-spacing="0" word-spacing="0" text-anchor="middle" stroke-width=".265"><path d="M37.693 129.563h2.505v4.093h2.224v-4.093h2.505v11.038h-2.505v-4.589h-2.224v4.59h-2.505zM46.267 132.994h2.373l.603 1.977q.315 1.041.546 2.042h.041q.19-.951.315-1.364l.802-2.655h2.406l-3.241 10.74h-2.398l.975-3.232zM56.825 132.994v.968h.042q.802-1.183 1.81-1.183 1.084 0 1.737 1.108.661 1.1.661 2.969 0 1.802-.678 2.91-.67 1.108-1.72 1.108-1.107 0-1.81-1.273h-.042v4.134h-2.397v-10.74zm1.852 3.779q0-1.877-.95-1.877-.902 0-.902 1.894 0 1.95.902 1.95.95 0 .95-1.967zM66.07 138.278h2.025q-.579 2.563-2.894 2.563-1.447 0-2.29-1.1-.844-1.1-.844-3.034 0-1.803.844-2.886.843-1.091 2.24-1.091.844 0 1.621.529.777.52 1.133 1.39.355.867.397 2.736h-4.01q.05 1.695.942 1.695.306 0 .546-.223.24-.224.29-.58zm-1.745-2.2h1.744q-.025-.802-.223-1.182-.198-.388-.628-.388-.48 0-.687.372-.206.372-.206 1.198zM72.006 132.994v1.274h.033q.86-1.489 1.81-1.489.141 0 .39.05v2.356q-.439-.074-.811-.074-1.323 0-1.323 1.712v3.778h-2.398v-7.607zM75.528 128.951h2.398v4.961h.041q.438-.603.819-.885.388-.28.992-.28 1.009 0 1.687 1.058.678 1.05.678 3.018 0 1.819-.654 2.927-.644 1.108-1.678 1.108-1.075 0-1.844-1.24h-.041v.983h-2.398zm4.233 7.805q0-1.893-.967-1.893-.868 0-.868 1.827 0 1.05.223 1.538.232.48.728.48.884 0 .884-1.952zM86.426 132.73q1.645 0 2.505 1.1.86 1.09.86 3.042 0 1.91-.893 2.96-.893 1.042-2.472 1.042-1.513 0-2.406-1.067-.885-1.066-.885-2.935 0-1.951.843-3.042.852-1.1 2.448-1.1zm.016 5.994q.471 0 .703-.438.24-.438.24-1.496 0-1.05-.232-1.472-.231-.422-.694-.422-.455 0-.695.414-.24.405-.24 1.496 0 1.918.918 1.918zM91.27 128.951h2.407v11.65H91.27zM95.57 130.712q0-.529.372-.9.372-.373.893-.373.53 0 .902.372t.372.901q0 .521-.372.902-.372.372-.902.372-.512 0-.893-.372-.372-.38-.372-.902zm.066 2.282h2.406v7.607h-2.406zM104.062 138.278v1.984q-.86.579-1.728.579-1.282 0-2.059-1.108-.769-1.116-.769-2.993 0-1.778.794-2.894t2.05-1.116q.877 0 1.728.62v1.968q-.487-.257-.876-.257-.579 0-.934.472-.356.463-.356 1.24 0 .819.347 1.29.348.471.943.471.364 0 .86-.256zM51.228 159.163v2.621q-.794.257-1.422.257-2.175 0-3.53-1.63-1.349-1.636-1.349-4.299 0-2.472 1.365-4.076 1.364-1.612 3.448-1.612.81 0 1.488.215v2.63q-.72-.24-1.356-.24-.976 0-1.62.892-.646.893-.646 2.274 0 1.488.645 2.357.653.86 1.737.86.529 0 1.24-.249zM51.823 154.161h2.373l.604 1.976q.314 1.042.545 2.042h.042q.19-.95.314-1.364l.802-2.654h2.406l-3.241 10.74H53.27l.976-3.232zM60.05 150.118h2.406v11.65H60.05zM64.35 151.88q0-.53.372-.902t.893-.372q.529 0 .9.372.373.372.373.901 0 .521-.372.901-.372.372-.901.372-.513 0-.893-.372-.372-.38-.372-.9zm.066 2.281h2.406v7.607h-2.406zM71.113 154.161v1.034h.041q.844-1.282 2.059-1.282.794 0 1.257.53.471.528.471 1.43v5.895h-2.406v-4.688q0-.389-.182-.637t-.471-.248q-.77 0-.77.967v4.606h-2.397v-7.607zM80.506 150.118h2.39v11.65h-2.407v-1h-.033q-.802 1.256-1.81 1.256-1.06 0-1.712-1.108-.645-1.108-.645-2.96 0-1.844.661-2.943.662-1.1 1.745-1.1.984 0 1.81 1.133zm0 7.789q0-1.877-.91-1.877-.934 0-.934 1.992 0 .885.248 1.373.256.48.703.48.413 0 .653-.513.24-.513.24-1.455zM88.294 159.444h2.026q-.579 2.564-2.894 2.564-1.447 0-2.29-1.1-.844-1.1-.844-3.034 0-1.803.844-2.886.843-1.092 2.24-1.092.844 0 1.621.53.777.52 1.133 1.389.355.868.397 2.737h-4.01q.05 1.695.942 1.695.306 0 .546-.224.24-.223.29-.579zm-1.744-2.199h1.744q-.025-.802-.223-1.182-.198-.389-.628-.389-.48 0-.687.372-.206.372-.206 1.2zM94.23 154.161v1.273h.034q.86-1.488 1.81-1.488.141 0 .39.05v2.356q-.439-.074-.811-.074-1.323 0-1.323 1.711v3.779h-2.398v-7.607z" style="-inkscape-font-specification:'Tw Cen MT Condensed Extra Bold, ';text-align:center"/></g><path d="M52.99 23.308L21.546 46.286l64.702 15.722 32.653-22.373zM21.546 99.203l64.702 15.722 32.653-22.373" fill="none" stroke="#000" stroke-width="1.5"/><path d="M21.546 99.203L52.99 76.225l65.911 16.327" fill="none" stroke="#000" stroke-width="1.5" stroke-dasharray="3,3"/><path d="M21.546 46.286c26.25 25.123 24.576 36.347 0 52.917M118.901 39.635c-21.44 17.104-21.368 31.536 0 52.917M86.31 61.54c-22.508 16.57-21.902 34.209 0 52.917" fill="none" stroke="#000" stroke-width="1.5"/><path d="M52.053 24.122c23.578 24.054 25.11 35.813 0 52.917" fill="none" stroke="#000" stroke-width="1.5" stroke-dasharray="3.00000008,3.00000008"/><path d="M40.09 74.73l29.935 8.018 32.072-20.312" fill="none" stroke="#000" stroke-width="1.5"/><path d="M101.568 61.987L71.634 53.97 39.56 74.282" fill="none" stroke="#000" stroke-width="1.5" stroke-dasharray="3.00000008,3.00000008"/></svg>