<?xml version="1.0" encoding="UTF-8" standalone="no"?>
<!-- Created with Inkscape (http://www.inkscape.org/) -->

<svg
   xmlns:dc="http://purl.org/dc/elements/1.1/"
   xmlns:cc="http://creativecommons.org/ns#"
   xmlns:rdf="http://www.w3.org/1999/02/22-rdf-syntax-ns#"
   xmlns:svg="http://www.w3.org/2000/svg"
   xmlns="http://www.w3.org/2000/svg"
   xmlns:sodipodi="http://sodipodi.sourceforge.net/DTD/sodipodi-0.dtd"
   xmlns:inkscape="http://www.inkscape.org/namespaces/inkscape"
   width="142.10715mm"
   height="182.17261mm"
   viewBox="0 0 142.10715 182.17261"
   version="1.1"
   id="svg8"
   inkscape:version="0.92.4 (5da689c313, 2019-01-14)"
   sodipodi:docname="icosahedron.svg">
  <defs
     id="defs2" />
  <sodipodi:namedview
     id="base"
     pagecolor="#ffffff"
     bordercolor="#666666"
     borderopacity="1.0"
     inkscape:pageopacity="0.0"
     inkscape:pageshadow="2"
     inkscape:zoom="0.49497475"
     inkscape:cx="-135.72467"
     inkscape:cy="277.12022"
     inkscape:document-units="mm"
     inkscape:current-layer="layer1"
     showgrid="false"
     inkscape:window-width="1366"
     inkscape:window-height="705"
     inkscape:window-x="-8"
     inkscape:window-y="-8"
     inkscape:window-maximized="1"
     inkscape:snap-global="true" />
  <metadata
     id="metadata5">
    <rdf:RDF>
      <cc:Work
         rdf:about="">
        <dc:format>image/svg+xml</dc:format>
        <dc:type
           rdf:resource="http://purl.org/dc/dcmitype/StillImage" />
        <dc:title />
      </cc:Work>
    </rdf:RDF>
  </metadata>
  <g
     inkscape:label="Layer 1"
     inkscape:groupmode="layer"
     id="layer1"
     transform="translate(-34.779762,-52.07737)">
    <g
       aria-label="Icosahedron"
       style="font-style:normal;font-variant:normal;font-weight:normal;font-stretch:normal;font-size:16.93333244px;line-height:1.25;font-family:'Tw Cen MT Condensed Extra Bold';-inkscape-font-specification:'Tw Cen MT Condensed Extra Bold, ';text-align:center;letter-spacing:0px;word-spacing:0px;text-anchor:middle;fill:#000000;fill-opacity:1;stroke:none;stroke-width:0.26458332"
       id="text827">
      <path
         d="M 67.883627,181.64047 H 70.3889 v 11.03809 h -2.505273 z"
         style="font-style:normal;font-variant:normal;font-weight:normal;font-stretch:normal;font-family:'Tw Cen MT Condensed Extra Bold';-inkscape-font-specification:'Tw Cen MT Condensed Extra Bold, ';text-align:center;text-anchor:middle;stroke-width:0.26458332"
         id="path17033" />
      <path
         d="m 76.714095,190.35519 v 1.98437 q -0.859896,0.57878 -1.72806,0.57878 -1.281575,0 -2.058789,-1.10795 -0.768945,-1.11621 -0.768945,-2.99309 0,-1.77767 0.79375,-2.89388 0.79375,-1.11622 2.050521,-1.11622 0.876432,0 1.728059,0.62012 v 1.96784 q -0.487825,-0.25631 -0.876432,-0.25631 -0.578776,0 -0.93431,0.47128 -0.355534,0.46302 -0.355534,1.24024 0,0.81855 0.347266,1.28984 0.347266,0.47129 0.942578,0.47129 0.363802,0 0.859896,-0.25631 z"
         style="font-style:normal;font-variant:normal;font-weight:normal;font-stretch:normal;font-family:'Tw Cen MT Condensed Extra Bold';-inkscape-font-specification:'Tw Cen MT Condensed Extra Bold, ';text-align:center;text-anchor:middle;stroke-width:0.26458332"
         id="path17035" />
      <path
         d="m 81.005306,184.8072 q 1.645377,0 2.505273,1.09968 0.859896,1.09141 0.859896,3.04271 0,1.90996 -0.892969,2.96002 -0.892969,1.0418 -2.4722,1.0418 -1.513086,0 -2.406055,-1.0666 -0.8847,-1.0666 -0.8847,-2.93522 0,-1.9513 0.843359,-3.04271 0.851627,-1.09968 2.447396,-1.09968 z m 0.01654,5.99447 q 0.471289,0 0.702799,-0.43822 0.239779,-0.43821 0.239779,-1.49655 0,-1.05006 -0.23151,-1.47174 -0.231511,-0.42168 -0.694532,-0.42168 -0.454752,0 -0.694531,0.41341 -0.239778,0.40515 -0.239778,1.49655 0,1.91823 0.917773,1.91823 z"
         style="font-style:normal;font-variant:normal;font-weight:normal;font-stretch:normal;font-family:'Tw Cen MT Condensed Extra Bold';-inkscape-font-specification:'Tw Cen MT Condensed Extra Bold, ';text-align:center;text-anchor:middle;stroke-width:0.26458332"
         id="path17037" />
      <path
         d="m 86.065461,190.22289 q 1.231966,0.72761 1.777669,0.72761 0.297657,0 0.496094,-0.14883 0.198438,-0.1571 0.198438,-0.37207 0,-0.23151 -0.165365,-0.339 -0.165365,-0.10748 -1.240234,-0.57877 -0.859896,-0.38034 -1.240235,-0.89297 -0.380338,-0.5209 -0.380338,-1.28985 0,-1.09967 0.752409,-1.81074 0.760677,-0.71107 1.934765,-0.71107 1.141016,0 2.794661,0.90951 l -0.926041,1.71152 q -1.07487,-0.66146 -1.761133,-0.66146 -0.595312,0 -0.595312,0.47956 0,0.23151 0.214974,0.40515 0.223242,0.16536 0.802018,0.37207 1.083138,0.38033 1.570963,0.9095 0.496094,0.52917 0.496094,1.33945 0,1.15756 -0.777214,1.9017 -0.777213,0.74414 -1.984374,0.74414 -1.306381,0 -2.794662,-0.91778 z"
         style="font-style:normal;font-variant:normal;font-weight:normal;font-stretch:normal;font-family:'Tw Cen MT Condensed Extra Bold';-inkscape-font-specification:'Tw Cen MT Condensed Extra Bold, ';text-align:center;text-anchor:middle;stroke-width:0.26458332"
         id="path17039" />
      <path
         d="m 96.053482,192.67856 v -1.00046 h -0.03307 q -0.438216,0.64492 -0.851627,0.95085 -0.405143,0.30592 -0.959115,0.30592 -1.083138,0 -1.728059,-1.10794 -0.644922,-1.10794 -0.644922,-3.00963 0,-1.82728 0.65319,-2.91042 0.65319,-1.08314 1.719791,-1.08314 0.570508,0 0.967383,0.28939 0.396875,0.28112 0.826823,0.9095 h 0.03307 v -0.95084 H 98.443 v 7.60677 z m 0,-3.84473 q 0,-1.89342 -0.926041,-1.89342 -0.93431,0 -0.93431,1.89342 0,1.96784 0.967383,1.96784 0.892968,0 0.892968,-1.96784 z"
         style="font-style:normal;font-variant:normal;font-weight:normal;font-stretch:normal;font-family:'Tw Cen MT Condensed Extra Bold';-inkscape-font-specification:'Tw Cen MT Condensed Extra Bold, ';text-align:center;text-anchor:middle;stroke-width:0.26458332"
         id="path17041" />
      <path
         d="m 100.27028,181.02862 h 2.39778 v 5.02709 h 0.0413 q 0.8847,-1.23197 2.04226,-1.23197 0.82682,0 1.28157,0.5457 0.46302,0.53744 0.46302,1.52136 v 5.78776 h -2.40605 v -4.63848 q 0,-0.44648 -0.1819,-0.69453 -0.17364,-0.25631 -0.48783,-0.25631 -0.75241,0 -0.75241,1.01699 v 4.57233 h -2.39778 z"
         style="font-style:normal;font-variant:normal;font-weight:normal;font-stretch:normal;font-family:'Tw Cen MT Condensed Extra Bold';-inkscape-font-specification:'Tw Cen MT Condensed Extra Bold, ';text-align:center;text-anchor:middle;stroke-width:0.26458332"
         id="path17043" />
      <path
         d="m 111.8458,190.35519 h 2.02571 q -0.57877,2.56315 -2.89388,2.56315 -1.44694,0 -2.2903,-1.09968 -0.84335,-1.09967 -0.84335,-3.03444 0,-1.80247 0.84335,-2.88561 0.84336,-1.09141 2.24069,-1.09141 0.84336,0 1.62058,0.52917 0.77721,0.5209 1.13275,1.38906 0.35553,0.86817 0.39687,2.73679 h -4.01009 q 0.0496,1.69498 0.94258,1.69498 0.30592,0 0.5457,-0.22324 0.23978,-0.22324 0.28939,-0.57877 z m -1.7446,-2.19935 h 1.7446 q -0.0248,-0.80202 -0.22324,-1.18236 -0.19844,-0.38861 -0.62839,-0.38861 -0.47956,0 -0.68626,0.37207 -0.20671,0.37207 -0.20671,1.1989 z"
         style="font-style:normal;font-variant:normal;font-weight:normal;font-stretch:normal;font-family:'Tw Cen MT Condensed Extra Bold';-inkscape-font-specification:'Tw Cen MT Condensed Extra Bold, ';text-align:center;text-anchor:middle;stroke-width:0.26458332"
         id="path17045" />
      <path
         d="m 119.27067,181.02862 h 2.38952 v 11.64994 h -2.40606 v -1.00046 h -0.0331 q -0.80202,1.25677 -1.81074,1.25677 -1.05834,0 -1.71153,-1.10794 -0.64492,-1.10794 -0.64492,-2.96003 0,-1.84381 0.66146,-2.94348 0.66146,-1.09968 1.7446,-1.09968 0.98392,0 1.81074,1.13275 z m 0,7.78868 q 0,-1.87689 -0.90951,-1.87689 -0.93431,0 -0.93431,1.99264 0,0.8847 0.24805,1.37253 0.25632,0.47955 0.7028,0.47955 0.41341,0 0.65319,-0.51263 0.23978,-0.51263 0.23978,-1.4552 z"
         style="font-style:normal;font-variant:normal;font-weight:normal;font-stretch:normal;font-family:'Tw Cen MT Condensed Extra Bold';-inkscape-font-specification:'Tw Cen MT Condensed Extra Bold, ';text-align:center;text-anchor:middle;stroke-width:0.26458332"
         id="path17047" />
      <path
         d="m 125.78603,185.07179 v 1.27331 h 0.0331 q 0.8599,-1.48829 1.81075,-1.48829 0.14056,0 0.3886,0.0496 v 2.35645 q -0.43821,-0.0744 -0.81028,-0.0744 -1.32292,0 -1.32292,1.71153 v 3.77858 h -2.39779 v -7.60677 z"
         style="font-style:normal;font-variant:normal;font-weight:normal;font-stretch:normal;font-family:'Tw Cen MT Condensed Extra Bold';-inkscape-font-specification:'Tw Cen MT Condensed Extra Bold, ';text-align:center;text-anchor:middle;stroke-width:0.26458332"
         id="path17049" />
      <path
         d="m 132.1691,184.8072 q 1.64538,0 2.50528,1.09968 0.85989,1.09141 0.85989,3.04271 0,1.90996 -0.89296,2.96002 -0.89297,1.0418 -2.47221,1.0418 -1.51308,0 -2.40605,-1.0666 -0.8847,-1.0666 -0.8847,-2.93522 0,-1.9513 0.84336,-3.04271 0.85163,-1.09968 2.44739,-1.09968 z m 0.0165,5.99447 q 0.47129,0 0.7028,-0.43822 0.23978,-0.43821 0.23978,-1.49655 0,-1.05006 -0.23151,-1.47174 -0.23151,-0.42168 -0.69453,-0.42168 -0.45475,0 -0.69453,0.41341 -0.23978,0.40515 -0.23978,1.49655 0,1.91823 0.91777,1.91823 z"
         style="font-style:normal;font-variant:normal;font-weight:normal;font-stretch:normal;font-family:'Tw Cen MT Condensed Extra Bold';-inkscape-font-specification:'Tw Cen MT Condensed Extra Bold, ';text-align:center;text-anchor:middle;stroke-width:0.26458332"
         id="path17051" />
      <path
         d="m 139.34592,185.07179 v 1.03353 h 0.0413 q 0.84336,-1.28158 2.05879,-1.28158 0.79375,0 1.25677,0.52917 0.47129,0.52916 0.47129,1.4304 v 5.89525 h -2.40605 v -4.68809 q 0,-0.3886 -0.1819,-0.63665 -0.1819,-0.24805 -0.47129,-0.24805 -0.76895,0 -0.76895,0.96738 v 4.60541 h -2.39778 v -7.60677 z"
         style="font-style:normal;font-variant:normal;font-weight:normal;font-stretch:normal;font-family:'Tw Cen MT Condensed Extra Bold';-inkscape-font-specification:'Tw Cen MT Condensed Extra Bold, ';text-align:center;text-anchor:middle;stroke-width:0.26458332"
         id="path17053" />
    </g>
    <path
       style="fill:none;stroke:#000000;stroke-width:1.5;stroke-linecap:butt;stroke-linejoin:miter;stroke-miterlimit:4;stroke-dasharray:none;stroke-dashoffset:0;stroke-opacity:1"
       d="m 61.280732,102.92188 43.266598,-25.88779 46.43895,27.37833"
       id="path2659"
       inkscape:connector-curvature="0"
       sodipodi:nodetypes="ccc" />
    <path
       style="fill:none;stroke:#000000;stroke-width:1.5;stroke-linecap:butt;stroke-linejoin:miter;stroke-miterlimit:4;stroke-dasharray:none;stroke-dashoffset:0;stroke-opacity:1"
       d="m 61.280732,102.92188 23.557281,9.79272 37.350437,0.12065 28.79783,-8.42283"
       id="path2663"
       inkscape:connector-curvature="0"
       sodipodi:nodetypes="cccc" />
    <path
       style="fill:none;stroke:#000000;stroke-width:1.5;stroke-linecap:butt;stroke-linejoin:miter;stroke-miterlimit:4;stroke-dasharray:none;stroke-dashoffset:0;stroke-opacity:1"
       d="M 84.838013,112.7146 104.54733,77.034089"
       id="path2681"
       inkscape:connector-curvature="0" />
    <path
       style="fill:none;stroke:#000000;stroke-width:1.5;stroke-linecap:butt;stroke-linejoin:miter;stroke-miterlimit:4;stroke-dasharray:none;stroke-dashoffset:0;stroke-opacity:1"
       d="M 122.18845,112.83525 104.54733,77.034089"
       id="path2683"
       inkscape:connector-curvature="0" />
    <path
       style="fill:none;stroke:#000000;stroke-width:1.5;stroke-linecap:butt;stroke-linejoin:miter;stroke-miterlimit:4;stroke-dasharray:3.00000008, 3.00000008;stroke-dashoffset:0;stroke-opacity:1"
       d="m 61.294643,102.94402 41.895377,-4.236471 47.79626,5.704871"
       id="path2689"
       inkscape:connector-curvature="0" />
    <path
       style="fill:none;stroke:#000000;stroke-width:1.5;stroke-linecap:butt;stroke-linejoin:miter;stroke-miterlimit:4;stroke-dasharray:3.00000008, 3.00000008;stroke-dashoffset:0;stroke-opacity:1"
       d="m 103.19002,98.707549 1.35731,-21.67346"
       id="path2691"
       inkscape:connector-curvature="0" />
    <path
       sodipodi:nodetypes="ccc"
       inkscape:connector-curvature="0"
       id="path2695"
       d="m 149.38267,146.25443 -43.2666,25.88781 -46.438956,-27.37835"
       style="fill:none;stroke:#000000;stroke-width:1.5;stroke-linecap:butt;stroke-linejoin:miter;stroke-miterlimit:4;stroke-dasharray:none;stroke-dashoffset:0;stroke-opacity:1" />
    <path
       sodipodi:nodetypes="cccc"
       inkscape:connector-curvature="0"
       id="path2697"
       d="m 149.38267,146.25443 -23.55728,-9.79272 -37.350446,-0.12065 -28.79783,8.42283"
       style="fill:none;stroke:#000000;stroke-width:1.50000004;stroke-linecap:butt;stroke-linejoin:miter;stroke-miterlimit:4;stroke-dasharray:3.00000008,3.00000008;stroke-dashoffset:0;stroke-opacity:1" />
    <path
       inkscape:connector-curvature="0"
       id="path2699"
       d="m 125.82539,136.46171 -19.70932,35.68053"
       style="fill:none;stroke:#000000;stroke-width:1.5;stroke-linecap:butt;stroke-linejoin:miter;stroke-miterlimit:4;stroke-dasharray:3.00000008, 3.00000008;stroke-dashoffset:0;stroke-opacity:1" />
    <path
       inkscape:connector-curvature="0"
       id="path2701"
       d="m 88.474944,136.34106 17.641126,35.80118"
       style="fill:none;stroke:#000000;stroke-width:1.5;stroke-linecap:butt;stroke-linejoin:miter;stroke-miterlimit:4;stroke-dasharray:3.00000008, 3.00000008;stroke-dashoffset:0;stroke-opacity:1" />
    <path
       inkscape:connector-curvature="0"
       id="path2703"
       d="m 149.36875,146.23229 -46.17168,7.97825 -43.519956,-9.44665"
       style="fill:none;stroke:#000000;stroke-width:1.5;stroke-linecap:butt;stroke-linejoin:miter;stroke-miterlimit:4;stroke-dasharray:none;stroke-dashoffset:0;stroke-opacity:1"
       sodipodi:nodetypes="ccc" />
    <path
       inkscape:connector-curvature="0"
       id="path2705"
       d="m 103.73161,154.74508 2.38446,17.39716"
       style="fill:none;stroke:#000000;stroke-width:1.5;stroke-linecap:butt;stroke-linejoin:miter;stroke-miterlimit:4;stroke-dasharray:none;stroke-dashoffset:0;stroke-opacity:1"
       sodipodi:nodetypes="cc" />
    <path
       style="fill:none;stroke:#000000;stroke-width:1.5;stroke-linecap:butt;stroke-linejoin:miter;stroke-miterlimit:4;stroke-dasharray:none;stroke-opacity:1"
       d="m 84.838013,112.7146 18.893597,42.03048 18.45684,-41.90983"
       id="path2721"
       inkscape:connector-curvature="0" />
    <path
       style="fill:none;stroke:#000000;stroke-width:1.5;stroke-linecap:butt;stroke-linejoin:miter;stroke-miterlimit:4;stroke-dasharray:none;stroke-opacity:1"
       d="m 149.36875,146.23229 -27.1803,-33.39704"
       id="path2723"
       inkscape:connector-curvature="0" />
    <path
       style="fill:none;stroke:#000000;stroke-width:1.5;stroke-linecap:butt;stroke-linejoin:miter;stroke-miterlimit:4;stroke-dasharray:none;stroke-opacity:1"
       d="m 150.98628,104.41242 -1.61753,41.81987"
       id="path2725"
       inkscape:connector-curvature="0" />
    <path
       style="fill:none;stroke:#000000;stroke-width:1.5;stroke-linecap:butt;stroke-linejoin:miter;stroke-miterlimit:4;stroke-dasharray:none;stroke-opacity:1"
       d="m 84.838013,112.7146 -25.160899,32.04929 1.617529,-41.81987"
       id="path2727"
       inkscape:connector-curvature="0" />
    <path
       style="fill:none;stroke:#000000;stroke-width:1.5;stroke-linecap:butt;stroke-linejoin:miter;stroke-miterlimit:4;stroke-dasharray:3, 3;stroke-dashoffset:0;stroke-opacity:1"
       d="m 61.294643,102.94402 27.180301,33.39704 14.715076,-37.633511 22.63537,37.754161 25.16089,-32.04929"
       id="path2729"
       inkscape:connector-curvature="0" />
  </g>
</svg>
