<svg xmlns="http://www.w3.org/2000/svg" width="537.098" height="688.526" viewBox="0 0 142.107 182.173"><path d="M117.771 75.59a47.625 32.447 0 01-47.507 32.446A47.625 32.447 0 0122.522 75.75a47.625 32.447 0 0147.273-32.606 47.625 32.447 0 0147.974 32.127" fill="#fff" stroke="#000" stroke-width="1.5"/><path d="M117.77 75.27c-32.758 12.36-67.783 12.36-96.005 0" fill="none" stroke="#000" stroke-width="1.5"/><path d="M21.765 75.167c32.758-12.36 67.783-12.36 96.004 0" fill="none" stroke="#000" stroke-width="1.5" stroke-dasharray="3.00000008,3.00000008"/><g aria-label="Oblate Spheroid" style="line-height:1.25;-inkscape-font-specification:'Tw Cen MT Condensed Extra Bold, ';text-align:center" font-weight="400" font-size="16.933" font-family="Tw Cen MT Condensed Extra Bold" letter-spacing="0" word-spacing="0" text-anchor="middle" stroke-width=".265"><path d="M23.992 140.874q-2 0-3.05-1.53-1.05-1.537-1.05-4.431 0-2.671 1.05-4.16 1.058-1.496 2.943-1.496 2.009 0 3.067 1.497 1.067 1.496 1.067 4.274 0 2.779-1.05 4.316-1.042 1.53-2.977 1.53zm-.09-9.112q-1.357 0-1.357 3.184 0 2.05.34 2.736.347.687 1 .687.703 0 1.075-.686.38-.687.38-2.688 0-3.233-1.439-3.233zM29.623 128.951h2.398v4.961h.041q.438-.603.819-.885.388-.28.992-.28 1.009 0 1.687 1.058.678 1.05.678 3.018 0 1.819-.654 2.927-.645 1.108-1.678 1.108-1.075 0-1.844-1.24h-.041v.983h-2.398zm4.233 7.805q0-1.893-.967-1.893-.868 0-.868 1.827 0 1.05.223 1.538.231.48.728.48.884 0 .884-1.952zM37.726 128.951h2.406v11.65h-2.406zM45.812 140.601v-1h-.033q-.438.645-.852.95-.405.307-.959.307-1.083 0-1.728-1.108t-.645-3.01q0-1.827.654-2.91.653-1.084 1.72-1.084.57 0 .967.29.397.28.827.91h.033v-.952h2.406v7.607zm0-3.845q0-1.893-.926-1.893-.934 0-.934 1.893 0 1.968.967 1.968.893 0 .893-1.968zM50.327 130.969h2.406v2.025h.934v2.001h-.95v5.606h-2.39v-5.622h-.91v-1.985h.91zM58.463 138.278h2.025q-.579 2.563-2.894 2.563-1.447 0-2.29-1.1t-.843-3.034q0-1.803.843-2.886.843-1.091 2.24-1.091.844 0 1.621.529.778.52 1.133 1.39.356.867.397 2.736h-4.01q.05 1.695.942 1.695.306 0 .546-.223.24-.224.29-.58zm-1.745-2.2h1.745q-.025-.802-.224-1.182-.198-.388-.628-.388-.48 0-.686.372-.207.372-.207 1.198zM66.532 140.394v-2.57q1.19.694 2.001.694.472 0 .744-.257.273-.264.273-.694 0-.331-.223-.62-.215-.29-.752-.703-1.299-.992-1.886-1.844-.578-.86-.578-1.91 0-1.43.9-2.332.902-.9 2.333-.9 1.058 0 2.1.454v2.472q-1.117-.612-1.811-.612-.463 0-.736.232-.265.223-.265.62 0 .694 1.249 1.563.744.512 1.505 1.447.769.926.769 2.15 0 1.43-1 2.372-1.001.935-2.54.935-1.05 0-2.083-.497zM76.074 132.994v.968h.041q.802-1.183 1.81-1.183 1.084 0 1.737 1.108.662 1.1.662 2.969 0 1.802-.678 2.91-.67 1.108-1.72 1.108-1.108 0-1.81-1.273h-.042v4.134h-2.398v-10.74zm1.852 3.779q0-1.877-.95-1.877-.902 0-.902 1.894 0 1.95.901 1.95.95 0 .95-1.967zM81.746 128.951h2.398v5.027h.04q.886-1.232 2.043-1.232.827 0 1.282.546.463.538.463 1.521v5.788h-2.406v-4.638q0-.447-.182-.695-.174-.256-.488-.256-.752 0-.752 1.017v4.572h-2.398zM93.321 138.278h2.026q-.579 2.563-2.894 2.563-1.447 0-2.29-1.1t-.843-3.034q0-1.803.843-2.886.843-1.091 2.24-1.091.844 0 1.621.529.777.52 1.133 1.39.355.867.397 2.736h-4.01q.05 1.695.942 1.695.306 0 .546-.223.24-.224.29-.58zm-1.744-2.2h1.744q-.024-.802-.223-1.182-.198-.388-.628-.388-.48 0-.687.372-.206.372-.206 1.198zM99.258 132.994v1.274h.033q.86-1.489 1.81-1.489.141 0 .39.05v2.356q-.439-.074-.81-.074-1.324 0-1.324 1.712v3.778H96.96v-7.607zM105.641 132.73q1.645 0 2.505 1.1.86 1.09.86 3.042 0 1.91-.893 2.96-.893 1.042-2.472 1.042-1.513 0-2.406-1.067-.885-1.066-.885-2.935 0-1.951.844-3.042.851-1.1 2.447-1.1zm.017 5.994q.47 0 .702-.438.24-.438.24-1.496 0-1.05-.231-1.472-.232-.422-.695-.422-.455 0-.694.414-.24.405-.24 1.496 0 1.918.918 1.918zM110.42 130.712q0-.529.372-.9.372-.373.893-.373.53 0 .901.372.372.372.372.901 0 .521-.372.902-.372.372-.9.372-.514 0-.894-.372-.372-.38-.372-.902zm.066 2.282h2.406v7.607h-2.406zM118.573 128.951h2.39v11.65h-2.407v-1h-.033q-.802 1.256-1.81 1.256-1.06 0-1.712-1.107-.645-1.108-.645-2.96 0-1.844.661-2.944.662-1.1 1.745-1.1.984 0 1.81 1.133zm0 7.789q0-1.877-.91-1.877-.934 0-.934 1.993 0 .884.248 1.372.256.48.703.48.413 0 .653-.513.24-.513.24-1.455z" style="-inkscape-font-specification:'Tw Cen MT Condensed Extra Bold, ';text-align:center"/></g></svg>