<?xml version="1.0" encoding="UTF-8" standalone="no"?>
<!-- Created with Inkscape (http://www.inkscape.org/) -->

<svg
   xmlns:dc="http://purl.org/dc/elements/1.1/"
   xmlns:cc="http://creativecommons.org/ns#"
   xmlns:rdf="http://www.w3.org/1999/02/22-rdf-syntax-ns#"
   xmlns:svg="http://www.w3.org/2000/svg"
   xmlns="http://www.w3.org/2000/svg"
   xmlns:sodipodi="http://sodipodi.sourceforge.net/DTD/sodipodi-0.dtd"
   xmlns:inkscape="http://www.inkscape.org/namespaces/inkscape"
   width="142.10715mm"
   height="182.17261mm"
   viewBox="0 0 142.10715 182.17261"
   version="1.1"
   id="svg8"
   inkscape:version="0.92.4 (5da689c313, 2019-01-14)"
   sodipodi:docname="pentagonal pyramid.svg">
  <defs
     id="defs2" />
  <sodipodi:namedview
     id="base"
     pagecolor="#ffffff"
     bordercolor="#666666"
     borderopacity="1.0"
     inkscape:pageopacity="0.0"
     inkscape:pageshadow="2"
     inkscape:zoom="0.49497475"
     inkscape:cx="-228.65871"
     inkscape:cy="277.12022"
     inkscape:document-units="mm"
     inkscape:current-layer="layer1"
     showgrid="false"
     inkscape:window-width="1366"
     inkscape:window-height="705"
     inkscape:window-x="-8"
     inkscape:window-y="-8"
     inkscape:window-maximized="1" />
  <metadata
     id="metadata5">
    <rdf:RDF>
      <cc:Work
         rdf:about="">
        <dc:format>image/svg+xml</dc:format>
        <dc:type
           rdf:resource="http://purl.org/dc/dcmitype/StillImage" />
        <dc:title />
      </cc:Work>
    </rdf:RDF>
  </metadata>
  <g
     inkscape:label="Layer 1"
     inkscape:groupmode="layer"
     id="layer1"
     transform="translate(-34.779762,-52.07737)">
    <g
       aria-label="Pentagonal
Pyramid"
       style="font-style:normal;font-variant:normal;font-weight:normal;font-stretch:normal;font-size:16.93333244px;line-height:1.25;font-family:'Tw Cen MT Condensed Extra Bold';-inkscape-font-specification:'Tw Cen MT Condensed Extra Bold, ';text-align:center;letter-spacing:0px;word-spacing:0px;text-anchor:middle;fill:#000000;fill-opacity:1;stroke:none;stroke-width:0.26458332"
       id="text827">
      <path
         d="m 70.289681,181.64047 h 3.100586 q 1.637109,0 2.629297,0.93431 0.992187,0.93431 0.992187,2.46394 0,1.6123 -1.008724,2.53007 -1.000455,0.90951 -2.778124,0.90951 h -0.429948 v 4.20026 h -2.505274 z m 2.505274,2.11667 v 2.60449 q 0.843359,-0.0165 1.240234,-0.32246 0.405143,-0.30592 0.405143,-0.96738 0,-0.71107 -0.388607,-1.00046 -0.388606,-0.29765 -1.25677,-0.31419 z"
         style="font-style:normal;font-variant:normal;font-weight:normal;font-stretch:normal;font-family:'Tw Cen MT Condensed Extra Bold';-inkscape-font-specification:'Tw Cen MT Condensed Extra Bold, ';text-align:center;text-anchor:middle;stroke-width:0.26458332"
         id="path6507" />
      <path
         d="m 81.910676,190.35519 h 2.025716 q -0.578776,2.56315 -2.89388,2.56315 -1.44694,0 -2.290299,-1.09968 -0.843359,-1.09967 -0.843359,-3.03444 0,-1.80247 0.843359,-2.88561 0.843359,-1.09141 2.24069,-1.09141 0.843359,0 1.620573,0.52917 0.777213,0.5209 1.132747,1.38906 0.355534,0.86817 0.396875,2.73679 h -4.010091 q 0.04961,1.69498 0.942578,1.69498 0.305925,0 0.545703,-0.22324 0.239779,-0.22324 0.289388,-0.57877 z m -1.744596,-2.19935 h 1.744596 q -0.0248,-0.80202 -0.223242,-1.18236 -0.198437,-0.38861 -0.628385,-0.38861 -0.479557,0 -0.686263,0.37207 -0.206706,0.37207 -0.206706,1.1989 z"
         style="font-style:normal;font-variant:normal;font-weight:normal;font-stretch:normal;font-family:'Tw Cen MT Condensed Extra Bold';-inkscape-font-specification:'Tw Cen MT Condensed Extra Bold, ';text-align:center;text-anchor:middle;stroke-width:0.26458332"
         id="path6509" />
      <path
         d="m 87.934081,185.07179 v 1.03353 h 0.04134 q 0.843359,-1.28158 2.058789,-1.28158 0.793749,0 1.25677,0.52917 0.471289,0.52916 0.471289,1.4304 v 5.89525 h -2.406054 v -4.68809 q 0,-0.3886 -0.181901,-0.63665 -0.181901,-0.24805 -0.471289,-0.24805 -0.768946,0 -0.768946,0.96738 v 4.60541 h -2.397786 v -7.60677 z"
         style="font-style:normal;font-variant:normal;font-weight:normal;font-stretch:normal;font-family:'Tw Cen MT Condensed Extra Bold';-inkscape-font-specification:'Tw Cen MT Condensed Extra Bold, ';text-align:center;text-anchor:middle;stroke-width:0.26458332"
         id="path6511" />
      <path
         d="m 93.837597,183.04607 h 2.406055 v 2.02572 h 0.93431 v 2.00091 h -0.950847 v 5.60586 h -2.389518 v -5.6224 h -0.909505 v -1.98437 h 0.909505 z"
         style="font-style:normal;font-variant:normal;font-weight:normal;font-stretch:normal;font-family:'Tw Cen MT Condensed Extra Bold';-inkscape-font-specification:'Tw Cen MT Condensed Extra Bold, ';text-align:center;text-anchor:middle;stroke-width:0.26458332"
         id="path6513" />
      <path
         d="m 102.18851,192.67856 v -1.00046 h -0.0331 q -0.43821,0.64492 -0.85162,0.95085 -0.40515,0.30592 -0.95912,0.30592 -1.083136,0 -1.728058,-1.10794 -0.644922,-1.10794 -0.644922,-3.00963 0,-1.82728 0.65319,-2.91042 0.65319,-1.08314 1.71979,-1.08314 0.57051,0 0.96738,0.28939 0.39688,0.28112 0.82683,0.9095 h 0.0331 v -0.95084 h 2.40606 v 7.60677 z m 0,-3.84473 q 0,-1.89342 -0.92604,-1.89342 -0.93431,0 -0.93431,1.89342 0,1.96784 0.96738,1.96784 0.89297,0 0.89297,-1.96784 z"
         style="font-style:normal;font-variant:normal;font-weight:normal;font-stretch:normal;font-family:'Tw Cen MT Condensed Extra Bold';-inkscape-font-specification:'Tw Cen MT Condensed Extra Bold, ';text-align:center;text-anchor:middle;stroke-width:0.26458332"
         id="path6515" />
      <path
         d="m 110.22523,192.71163 v -1.08314 q -0.7028,1.03353 -1.67019,1.03353 -1.22369,0 -1.90169,-1.01699 -0.67799,-1.02526 -0.67799,-2.89388 0,-1.82728 0.66146,-2.86908 0.66145,-1.04179 1.81074,-1.04179 1.02526,0 1.72806,1.03353 h 0.0331 v -0.80202 h 2.40605 v 7.04453 q 0,0.96738 -0.34726,1.83555 -0.339,0.86816 -1.20716,1.36425 -0.86817,0.4961 -1.90169,0.4961 -1.03353,0 -1.94304,-0.55397 -0.9095,-0.55398 -1.18236,-1.85209 h 2.14974 q 0.37207,0.57878 0.92605,0.57878 0.47128,0 0.79375,-0.37207 0.32246,-0.3638 0.32246,-0.90124 z m 0,-3.99355 q 0,-1.84382 -0.92604,-1.84382 -0.45476,0 -0.71934,0.44649 -0.26458,0.44648 -0.26458,1.24023 0,2.08359 0.96738,2.08359 0.94258,0 0.94258,-1.92649 z"
         style="font-style:normal;font-variant:normal;font-weight:normal;font-stretch:normal;font-family:'Tw Cen MT Condensed Extra Bold';-inkscape-font-specification:'Tw Cen MT Condensed Extra Bold, ';text-align:center;text-anchor:middle;stroke-width:0.26458332"
         id="path6517" />
      <path
         d="m 117.30283,184.8072 q 1.64538,0 2.50527,1.09968 0.8599,1.09141 0.8599,3.04271 0,1.90996 -0.89297,2.96002 -0.89297,1.0418 -2.4722,1.0418 -1.51309,0 -2.40606,-1.0666 -0.8847,-1.0666 -0.8847,-2.93522 0,-1.9513 0.84336,-3.04271 0.85163,-1.09968 2.4474,-1.09968 z m 0.0165,5.99447 q 0.47128,0 0.70279,-0.43822 0.23978,-0.43821 0.23978,-1.49655 0,-1.05006 -0.23151,-1.47174 -0.23151,-0.42168 -0.69453,-0.42168 -0.45475,0 -0.69453,0.41341 -0.23978,0.40515 -0.23978,1.49655 0,1.91823 0.91778,1.91823 z"
         style="font-style:normal;font-variant:normal;font-weight:normal;font-stretch:normal;font-family:'Tw Cen MT Condensed Extra Bold';-inkscape-font-specification:'Tw Cen MT Condensed Extra Bold, ';text-align:center;text-anchor:middle;stroke-width:0.26458332"
         id="path6519" />
      <path
         d="m 124.47965,185.07179 v 1.03353 h 0.0413 q 0.84336,-1.28158 2.05879,-1.28158 0.79375,0 1.25677,0.52917 0.47129,0.52916 0.47129,1.4304 v 5.89525 h -2.40605 v -4.68809 q 0,-0.3886 -0.1819,-0.63665 -0.18191,-0.24805 -0.47129,-0.24805 -0.76895,0 -0.76895,0.96738 v 4.60541 h -2.39779 v -7.60677 z"
         style="font-style:normal;font-variant:normal;font-weight:normal;font-stretch:normal;font-family:'Tw Cen MT Condensed Extra Bold';-inkscape-font-specification:'Tw Cen MT Condensed Extra Bold, ';text-align:center;text-anchor:middle;stroke-width:0.26458332"
         id="path6521" />
      <path
         d="m 133.87236,192.67856 v -1.00046 h -0.0331 q -0.43822,0.64492 -0.85163,0.95085 -0.40514,0.30592 -0.95911,0.30592 -1.08314,0 -1.72806,-1.10794 -0.64493,-1.10794 -0.64493,-3.00963 0,-1.82728 0.65319,-2.91042 0.65319,-1.08314 1.7198,-1.08314 0.5705,0 0.96738,0.28939 0.39687,0.28112 0.82682,0.9095 h 0.0331 v -0.95084 h 2.40606 v 7.60677 z m 0,-3.84473 q 0,-1.89342 -0.92604,-1.89342 -0.93431,0 -0.93431,1.89342 0,1.96784 0.96738,1.96784 0.89297,0 0.89297,-1.96784 z"
         style="font-style:normal;font-variant:normal;font-weight:normal;font-stretch:normal;font-family:'Tw Cen MT Condensed Extra Bold';-inkscape-font-specification:'Tw Cen MT Condensed Extra Bold, ';text-align:center;text-anchor:middle;stroke-width:0.26458332"
         id="path6523" />
      <path
         d="m 138.1553,181.02862 h 2.40605 v 11.64994 h -2.40605 z"
         style="font-style:normal;font-variant:normal;font-weight:normal;font-stretch:normal;font-family:'Tw Cen MT Condensed Extra Bold';-inkscape-font-specification:'Tw Cen MT Condensed Extra Bold, ';text-align:center;text-anchor:middle;stroke-width:0.26458332"
         id="path6525" />
      <path
         d="m 79.467415,202.80714 h 3.100586 q 1.637109,0 2.629297,0.93431 0.992187,0.93431 0.992187,2.46393 0,1.61231 -1.008724,2.53008 -1.000455,0.9095 -2.778125,0.9095 h -0.429947 v 4.20026 h -2.505274 z m 2.505274,2.11667 v 2.60449 q 0.843359,-0.0165 1.240234,-0.32246 0.405143,-0.30593 0.405143,-0.96739 0,-0.71106 -0.388607,-1.00045 -0.388606,-0.29766 -1.25677,-0.31419 z"
         style="font-style:normal;font-variant:normal;font-weight:normal;font-stretch:normal;font-family:'Tw Cen MT Condensed Extra Bold';-inkscape-font-specification:'Tw Cen MT Condensed Extra Bold, ';text-align:center;text-anchor:middle;stroke-width:0.26458332"
         id="path6527" />
      <path
         d="m 87.082454,206.23845 h 2.372981 l 0.603581,1.97611 q 0.314193,1.0418 0.545703,2.04225 h 0.04134 q 0.190169,-0.95084 0.314193,-1.36426 l 0.802018,-2.6541 h 2.406055 l -3.241146,10.74043 h -2.397786 l 0.975651,-3.23287 z"
         style="font-style:normal;font-variant:normal;font-weight:normal;font-stretch:normal;font-family:'Tw Cen MT Condensed Extra Bold';-inkscape-font-specification:'Tw Cen MT Condensed Extra Bold, ';text-align:center;text-anchor:middle;stroke-width:0.26458332"
         id="path6529" />
      <path
         d="m 97.541763,206.23845 v 1.27331 h 0.03307 q 0.859895,-1.48828 1.810742,-1.48828 0.14056,0 0.388607,0.0496 v 2.35644 q -0.438217,-0.0744 -0.810287,-0.0744 -1.322916,0 -1.322916,1.71152 v 3.77858 h -2.397787 v -7.60677 z"
         style="font-style:normal;font-variant:normal;font-weight:normal;font-stretch:normal;font-family:'Tw Cen MT Condensed Extra Bold';-inkscape-font-specification:'Tw Cen MT Condensed Extra Bold, ';text-align:center;text-anchor:middle;stroke-width:0.26458332"
         id="path6531" />
      <path
         d="m 104.85088,213.84522 v -1.00045 h -0.0331 q -0.43821,0.64492 -0.85162,0.95084 -0.40515,0.30593 -0.95912,0.30593 -1.08314,0 -1.72806,-1.10794 -0.64492,-1.10795 -0.64492,-3.00964 0,-1.82728 0.65319,-2.91042 0.65319,-1.08313 1.71979,-1.08313 0.57051,0 0.96738,0.28938 0.39688,0.28112 0.82683,0.90951 h 0.0331 v -0.95085 h 2.40606 v 7.60677 z m 0,-3.84472 q 0,-1.89343 -0.92604,-1.89343 -0.93431,0 -0.93431,1.89343 0,1.96784 0.96738,1.96784 0.89297,0 0.89297,-1.96784 z"
         style="font-style:normal;font-variant:normal;font-weight:normal;font-stretch:normal;font-family:'Tw Cen MT Condensed Extra Bold';-inkscape-font-specification:'Tw Cen MT Condensed Extra Bold, ';text-align:center;text-anchor:middle;stroke-width:0.26458332"
         id="path6533" />
      <path
         d="m 111.46546,206.23845 v 0.93431 q 1.02526,-1.19889 2.08359,-1.19889 1.27331,0 1.64538,1.31465 0.57878,-0.68626 1.07487,-1.00046 0.50436,-0.31419 1.17409,-0.31419 1.67845,0 1.67845,2.34818 v 5.52317 h -2.40606 v -4.48964 q 0,-1.09968 -0.71106,-1.09968 -0.72761,0 -0.72761,1.08314 v 4.50618 h -2.40605 v -4.62194 q 0,-0.42168 -0.19844,-0.69453 -0.19017,-0.27285 -0.49609,-0.27285 -0.32246,0 -0.5209,0.26458 -0.19017,0.26459 -0.19017,0.71934 v 4.6054 h -2.39779 v -7.60677 z"
         style="font-style:normal;font-variant:normal;font-weight:normal;font-stretch:normal;font-family:'Tw Cen MT Condensed Extra Bold';-inkscape-font-specification:'Tw Cen MT Condensed Extra Bold, ';text-align:center;text-anchor:middle;stroke-width:0.26458332"
         id="path6535" />
      <path
         d="m 120.90778,203.95642 q 0,-0.52916 0.37207,-0.90123 0.37207,-0.37207 0.89297,-0.37207 0.52916,0 0.90123,0.37207 0.37207,0.37207 0.37207,0.90123 0,0.5209 -0.37207,0.90124 -0.37207,0.37207 -0.90123,0.37207 -0.51263,0 -0.89297,-0.37207 -0.37207,-0.38034 -0.37207,-0.90124 z m 0.0661,2.28203 h 2.40606 v 7.60677 h -2.40606 z"
         style="font-style:normal;font-variant:normal;font-weight:normal;font-stretch:normal;font-family:'Tw Cen MT Condensed Extra Bold';-inkscape-font-specification:'Tw Cen MT Condensed Extra Bold, ';text-align:center;text-anchor:middle;stroke-width:0.26458332"
         id="path6537" />
      <path
         d="m 129.06025,202.19529 h 2.38952 v 11.64993 h -2.40606 v -1.00045 h -0.0331 q -0.80202,1.25677 -1.81074,1.25677 -1.05834,0 -1.71153,-1.10794 -0.64492,-1.10795 -0.64492,-2.96003 0,-1.84381 0.66146,-2.94349 0.66146,-1.09967 1.7446,-1.09967 0.98392,0 1.81074,1.13274 z m 0,7.78867 q 0,-1.87689 -0.90951,-1.87689 -0.93431,0 -0.93431,1.99265 0,0.8847 0.24805,1.37252 0.25632,0.47956 0.7028,0.47956 0.41341,0 0.65319,-0.51263 0.23978,-0.51263 0.23978,-1.45521 z"
         style="font-style:normal;font-variant:normal;font-weight:normal;font-stretch:normal;font-family:'Tw Cen MT Condensed Extra Bold';-inkscape-font-specification:'Tw Cen MT Condensed Extra Bold, ';text-align:center;text-anchor:middle;stroke-width:0.26458332"
         id="path6539" />
    </g>
    <path
       style="fill:none;stroke:#000000;stroke-width:1.5;stroke-linecap:butt;stroke-linejoin:miter;stroke-miterlimit:4;stroke-dasharray:none;stroke-dashoffset:0;stroke-opacity:1"
       d="M 60.222398,134.50516 103.48899,93.590952 149.92794,136.86086"
       id="path2659"
       inkscape:connector-curvature="0"
       sodipodi:nodetypes="ccc" />
    <path
       style="fill:none;stroke:#000000;stroke-width:1.5;stroke-linecap:butt;stroke-linejoin:miter;stroke-miterlimit:4;stroke-dasharray:none;stroke-dashoffset:0;stroke-opacity:1"
       d="m 60.222398,134.50516 23.557281,15.47678 37.350431,0.19068 28.79783,-13.31176"
       id="path2663"
       inkscape:connector-curvature="0"
       sodipodi:nodetypes="cccc" />
    <path
       style="fill:none;stroke:#000000;stroke-width:1.5;stroke-linecap:butt;stroke-linejoin:miter;stroke-miterlimit:4;stroke-dasharray:none;stroke-opacity:1;stroke-dashoffset:0"
       d="M 83.779679,149.98194 103.48899,93.590951"
       id="path2681"
       inkscape:connector-curvature="0" />
    <path
       style="fill:none;stroke:#000000;stroke-width:1.5;stroke-linecap:butt;stroke-linejoin:miter;stroke-miterlimit:4;stroke-dasharray:none;stroke-opacity:1;stroke-dashoffset:0"
       d="M 121.13011,150.17262 103.48899,93.590951"
       id="path2683"
       inkscape:connector-curvature="0" />
    <path
       style="fill:none;stroke:#000000;stroke-width:1.50000004;stroke-linecap:butt;stroke-linejoin:miter;stroke-miterlimit:4;stroke-dasharray:3.00000008,3.00000008;stroke-dashoffset:0;stroke-opacity:1"
       d="m 60.236309,134.54015 41.895371,-6.69551 47.79626,9.01622"
       id="path2689"
       inkscape:connector-curvature="0" />
    <path
       style="fill:none;stroke:#000000;stroke-width:1.50000004;stroke-linecap:butt;stroke-linejoin:miter;stroke-miterlimit:4;stroke-dasharray:3.00000008,3.00000008;stroke-dashoffset:0;stroke-opacity:1"
       d="m 102.17658,129.41908 1.26751,-35.956455"
       id="path2691"
       inkscape:connector-curvature="0" />
  </g>
</svg>
