<?xml version="1.0" encoding="UTF-8" standalone="no"?>
<!-- Created with Inkscape (http://www.inkscape.org/) -->

<svg
   xmlns:dc="http://purl.org/dc/elements/1.1/"
   xmlns:cc="http://creativecommons.org/ns#"
   xmlns:rdf="http://www.w3.org/1999/02/22-rdf-syntax-ns#"
   xmlns:svg="http://www.w3.org/2000/svg"
   xmlns="http://www.w3.org/2000/svg"
   xmlns:sodipodi="http://sodipodi.sourceforge.net/DTD/sodipodi-0.dtd"
   xmlns:inkscape="http://www.inkscape.org/namespaces/inkscape"
   width="142.10715mm"
   height="182.17261mm"
   viewBox="0 0 142.10715 182.17261"
   version="1.1"
   id="svg8"
   inkscape:version="0.92.4 (5da689c313, 2019-01-14)"
   sodipodi:docname="pseudocuboctohedron.svg">
  <defs
     id="defs2" />
  <sodipodi:namedview
     id="base"
     pagecolor="#ffffff"
     bordercolor="#666666"
     borderopacity="1.0"
     inkscape:pageopacity="0.0"
     inkscape:pageshadow="2"
     inkscape:zoom="0.35"
     inkscape:cx="185.7961"
     inkscape:cy="277.12022"
     inkscape:document-units="mm"
     inkscape:current-layer="layer1"
     showgrid="false"
     inkscape:window-width="1366"
     inkscape:window-height="705"
     inkscape:window-x="-8"
     inkscape:window-y="-8"
     inkscape:window-maximized="1"
     inkscape:snap-global="true" />
  <metadata
     id="metadata5">
    <rdf:RDF>
      <cc:Work
         rdf:about="">
        <dc:format>image/svg+xml</dc:format>
        <dc:type
           rdf:resource="http://purl.org/dc/dcmitype/StillImage" />
        <dc:title />
      </cc:Work>
    </rdf:RDF>
  </metadata>
  <g
     inkscape:label="Layer 1"
     inkscape:groupmode="layer"
     id="layer1"
     transform="translate(-34.779762,-52.07737)">
    <g
       aria-label="Pseudo-
cuboctohedron "
       style="font-style:normal;font-variant:normal;font-weight:normal;font-stretch:normal;font-size:16.93333244px;line-height:1.25;font-family:'Tw Cen MT Condensed Extra Bold';-inkscape-font-specification:'Tw Cen MT Condensed Extra Bold, ';text-align:center;letter-spacing:0px;word-spacing:0px;text-anchor:middle;fill:#000000;fill-opacity:1;stroke:none;stroke-width:0.26458332"
       id="text827">
      <path
         d="m 80.922623,181.64047 h 3.100586 q 1.63711,0 2.629297,0.93431 0.992187,0.93431 0.992187,2.46394 0,1.6123 -1.008723,2.53007 -1.000456,0.90951 -2.778125,0.90951 h -0.429948 v 4.20026 h -2.505274 z m 2.505274,2.11667 v 2.60449 q 0.843359,-0.0165 1.240234,-0.32246 0.405143,-0.30592 0.405143,-0.96738 0,-0.71107 -0.388606,-1.00046 -0.388607,-0.29765 -1.256771,-0.31419 z"
         style="font-style:normal;font-variant:normal;font-weight:normal;font-stretch:normal;font-family:'Tw Cen MT Condensed Extra Bold';-inkscape-font-specification:'Tw Cen MT Condensed Extra Bold, ';text-align:center;text-anchor:middle;stroke-width:0.26458332"
         id="path2285" />
      <path
         d="m 89.57119,190.22289 q 1.231966,0.72761 1.77767,0.72761 0.297656,0 0.496093,-0.14883 0.198438,-0.1571 0.198438,-0.37207 0,-0.23151 -0.165365,-0.339 -0.165364,-0.10748 -1.240234,-0.57877 -0.859896,-0.38034 -1.240234,-0.89297 -0.380339,-0.5209 -0.380339,-1.28985 0,-1.09967 0.752409,-1.81074 0.760677,-0.71107 1.934765,-0.71107 1.141016,0 2.794662,0.90951 l -0.926042,1.71152 q -1.07487,-0.66146 -1.761133,-0.66146 -0.595312,0 -0.595312,0.47956 0,0.23151 0.214974,0.40515 0.223242,0.16536 0.802018,0.37207 1.083138,0.38033 1.570964,0.9095 0.496093,0.52917 0.496093,1.33945 0,1.15756 -0.777213,1.9017 -0.777214,0.74414 -1.984375,0.74414 -1.30638,0 -2.794661,-0.91778 z"
         style="font-style:normal;font-variant:normal;font-weight:normal;font-stretch:normal;font-family:'Tw Cen MT Condensed Extra Bold';-inkscape-font-specification:'Tw Cen MT Condensed Extra Bold, ';text-align:center;text-anchor:middle;stroke-width:0.26458332"
         id="path2287" />
      <path
         d="m 99.344237,190.35519 h 2.025713 q -0.57877,2.56315 -2.893877,2.56315 -1.44694,0 -2.2903,-1.09968 -0.843359,-1.09967 -0.843359,-3.03444 0,-1.80247 0.843359,-2.88561 0.84336,-1.09141 2.24069,-1.09141 0.84336,0 1.620577,0.52917 0.77721,0.5209 1.13274,1.38906 0.35554,0.86817 0.39688,2.73679 h -4.010093 q 0.04961,1.69498 0.942579,1.69498 0.305924,0 0.545703,-0.22324 0.239778,-0.22324 0.289388,-0.57877 z m -1.744597,-2.19935 h 1.744597 q -0.02481,-0.80202 -0.223243,-1.18236 -0.198437,-0.38861 -0.628385,-0.38861 -0.479557,0 -0.686263,0.37207 -0.206706,0.37207 -0.206706,1.1989 z"
         style="font-style:normal;font-variant:normal;font-weight:normal;font-stretch:normal;font-family:'Tw Cen MT Condensed Extra Bold';-inkscape-font-specification:'Tw Cen MT Condensed Extra Bold, ';text-align:center;text-anchor:middle;stroke-width:0.26458332"
         id="path2289" />
      <path
         d="m 102.92438,185.07179 h 2.40605 v 4.89479 q 0,0.38034 0.17364,0.63665 0.1819,0.24805 0.48782,0.24805 0.69453,0 0.69453,-1.01699 v -4.7625 h 2.40606 v 4.40696 q 0,1.67845 -0.78548,2.57142 -0.78549,0.8847 -2.2655,0.8847 -1.65364,0 -2.38952,-0.9095 -0.7276,-0.90951 -0.7276,-2.27376 z"
         style="font-style:normal;font-variant:normal;font-weight:normal;font-stretch:normal;font-family:'Tw Cen MT Condensed Extra Bold';-inkscape-font-specification:'Tw Cen MT Condensed Extra Bold, ';text-align:center;text-anchor:middle;stroke-width:0.26458332"
         id="path2291" />
      <path
         d="m 114.67353,181.02862 h 2.38952 v 11.64994 H 114.657 v -1.00046 h -0.0331 q -0.80202,1.25677 -1.81074,1.25677 -1.05833,0 -1.71152,-1.10794 -0.64492,-1.10794 -0.64492,-2.96003 0,-1.84381 0.66145,-2.94348 0.66146,-1.09968 1.7446,-1.09968 0.98392,0 1.81074,1.13275 z m 0,7.78868 q 0,-1.87689 -0.9095,-1.87689 -0.93431,0 -0.93431,1.99264 0,0.8847 0.24804,1.37253 0.25632,0.47955 0.7028,0.47955 0.41342,0 0.65319,-0.51263 0.23978,-0.51263 0.23978,-1.4552 z"
         style="font-style:normal;font-variant:normal;font-weight:normal;font-stretch:normal;font-family:'Tw Cen MT Condensed Extra Bold';-inkscape-font-specification:'Tw Cen MT Condensed Extra Bold, ';text-align:center;text-anchor:middle;stroke-width:0.26458332"
         id="path2293" />
      <path
         d="m 121.75114,184.8072 q 1.64537,0 2.50527,1.09968 0.85989,1.09141 0.85989,3.04271 0,1.90996 -0.89296,2.96002 -0.89297,1.0418 -2.4722,1.0418 -1.51309,0 -2.40606,-1.0666 -0.8847,-1.0666 -0.8847,-2.93522 0,-1.9513 0.84336,-3.04271 0.85163,-1.09968 2.4474,-1.09968 z m 0.0165,5.99447 q 0.47129,0 0.7028,-0.43822 0.23978,-0.43821 0.23978,-1.49655 0,-1.05006 -0.23151,-1.47174 -0.23151,-0.42168 -0.69453,-0.42168 -0.45475,0 -0.69453,0.41341 -0.23978,0.40515 -0.23978,1.49655 0,1.91823 0.91777,1.91823 z"
         style="font-style:normal;font-variant:normal;font-weight:normal;font-stretch:normal;font-family:'Tw Cen MT Condensed Extra Bold';-inkscape-font-specification:'Tw Cen MT Condensed Extra Bold, ';text-align:center;text-anchor:middle;stroke-width:0.26458332"
         id="path2295" />
      <path
         d="m 126.43922,187.84991 h 3.81165 v 2.06706 h -3.81165 z"
         style="font-style:normal;font-variant:normal;font-weight:normal;font-stretch:normal;font-family:'Tw Cen MT Condensed Extra Bold';-inkscape-font-specification:'Tw Cen MT Condensed Extra Bold, ';text-align:center;text-anchor:middle;stroke-width:0.26458332"
         id="path2297" />
      <path
         d="m 64.427507,211.52185 v 1.98438 q -0.859896,0.57877 -1.72806,0.57877 -1.281575,0 -2.058789,-1.10794 -0.768945,-1.11621 -0.768945,-2.9931 0,-1.77767 0.79375,-2.89388 0.79375,-1.11621 2.050521,-1.11621 0.876432,0 1.72806,0.62012 v 1.96784 q -0.487826,-0.25632 -0.876433,-0.25632 -0.578776,0 -0.93431,0.47129 -0.355533,0.46302 -0.355533,1.24023 0,0.81856 0.347265,1.28985 0.347266,0.47129 0.942578,0.47129 0.363802,0 0.859896,-0.25632 z"
         style="font-style:normal;font-variant:normal;font-weight:normal;font-stretch:normal;font-family:'Tw Cen MT Condensed Extra Bold';-inkscape-font-specification:'Tw Cen MT Condensed Extra Bold, ';text-align:center;text-anchor:middle;stroke-width:0.26458332"
         id="path2299" />
      <path
         d="m 65.800033,206.23845 h 2.406055 v 4.89479 q 0,0.38034 0.173632,0.63666 0.181901,0.24805 0.487826,0.24805 0.694531,0 0.694531,-1.017 v -4.7625 h 2.406055 v 4.40697 q 0,1.67845 -0.785482,2.57142 -0.785482,0.8847 -2.265495,0.8847 -1.653646,0 -2.389518,-0.90951 -0.727604,-0.9095 -0.727604,-2.27376 z"
         style="font-style:normal;font-variant:normal;font-weight:normal;font-stretch:normal;font-family:'Tw Cen MT Condensed Extra Bold';-inkscape-font-specification:'Tw Cen MT Condensed Extra Bold, ';text-align:center;text-anchor:middle;stroke-width:0.26458332"
         id="path2301" />
      <path
         d="m 73.762337,202.19529 h 2.397787 v 4.96094 h 0.04134 q 0.438216,-0.60358 0.818554,-0.8847 0.388607,-0.28112 0.992188,-0.28112 1.008724,0 1.686718,1.05833 0.677995,1.05006 0.677995,3.0179 0,1.81901 -0.65319,2.92696 -0.644922,1.10794 -1.67845,1.10794 -1.07487,0 -1.843815,-1.24024 h -0.04134 v 0.98392 h -2.397787 z m 4.233333,7.80521 q 0,-1.89343 -0.967382,-1.89343 -0.868164,0 -0.868164,1.82728 0,1.05007 0.223242,1.53789 0.23151,0.47956 0.727604,0.47956 0.8847,0 0.8847,-1.9513 z"
         style="font-style:normal;font-variant:normal;font-weight:normal;font-stretch:normal;font-family:'Tw Cen MT Condensed Extra Bold';-inkscape-font-specification:'Tw Cen MT Condensed Extra Bold, ';text-align:center;text-anchor:middle;stroke-width:0.26458332"
         id="path2303" />
      <path
         d="m 84.659863,205.97387 q 1.645377,0 2.505273,1.09967 0.859896,1.09141 0.859896,3.04271 0,1.90996 -0.892969,2.96003 -0.892969,1.0418 -2.4722,1.0418 -1.513086,0 -2.406055,-1.06661 -0.8847,-1.0666 -0.8847,-2.93522 0,-1.9513 0.843359,-3.04271 0.851628,-1.09967 2.447396,-1.09967 z m 0.01654,5.99447 q 0.471289,0 0.7028,-0.43822 0.239778,-0.43822 0.239778,-1.49655 0,-1.05006 -0.23151,-1.47174 -0.231511,-0.42168 -0.694531,-0.42168 -0.454753,0 -0.694532,0.41341 -0.239778,0.40514 -0.239778,1.49655 0,1.91823 0.917773,1.91823 z"
         style="font-style:normal;font-variant:normal;font-weight:normal;font-stretch:normal;font-family:'Tw Cen MT Condensed Extra Bold';-inkscape-font-specification:'Tw Cen MT Condensed Extra Bold, ';text-align:center;text-anchor:middle;stroke-width:0.26458332"
         id="path2305" />
      <path
         d="m 93.564745,211.52185 v 1.98438 q -0.859896,0.57877 -1.72806,0.57877 -1.281576,0 -2.058789,-1.10794 -0.768945,-1.11621 -0.768945,-2.9931 0,-1.77767 0.79375,-2.89388 0.79375,-1.11621 2.05052,-1.11621 0.876433,0 1.72806,0.62012 v 1.96784 q -0.487825,-0.25632 -0.876432,-0.25632 -0.578776,0 -0.93431,0.47129 -0.355534,0.46302 -0.355534,1.24023 0,0.81856 0.347266,1.28985 0.347265,0.47129 0.942578,0.47129 0.363802,0 0.859896,-0.25632 z"
         style="font-style:normal;font-variant:normal;font-weight:normal;font-stretch:normal;font-family:'Tw Cen MT Condensed Extra Bold';-inkscape-font-specification:'Tw Cen MT Condensed Extra Bold, ';text-align:center;text-anchor:middle;stroke-width:0.26458332"
         id="path2307" />
      <path
         d="m 95.292806,204.21274 h 2.406055 v 2.02571 h 0.93431 v 2.00091 h -0.950847 v 5.60586 h -2.389518 v -5.62239 h -0.909505 v -1.98438 h 0.909505 z"
         style="font-style:normal;font-variant:normal;font-weight:normal;font-stretch:normal;font-family:'Tw Cen MT Condensed Extra Bold';-inkscape-font-specification:'Tw Cen MT Condensed Extra Bold, ';text-align:center;text-anchor:middle;stroke-width:0.26458332"
         id="path2309" />
      <path
         d="m 102.71767,205.97387 q 1.64538,0 2.50528,1.09967 0.85989,1.09141 0.85989,3.04271 0,1.90996 -0.89297,2.96003 -0.89296,1.0418 -2.4722,1.0418 -1.51308,0 -2.40605,-1.06661 -0.884701,-1.0666 -0.884701,-2.93522 0,-1.9513 0.843361,-3.04271 0.85163,-1.09967 2.44739,-1.09967 z m 0.0165,5.99447 q 0.47129,0 0.7028,-0.43822 0.23978,-0.43822 0.23978,-1.49655 0,-1.05006 -0.23151,-1.47174 -0.23151,-0.42168 -0.69453,-0.42168 -0.45476,0 -0.69453,0.41341 -0.23978,0.40514 -0.23978,1.49655 0,1.91823 0.91777,1.91823 z"
         style="font-style:normal;font-variant:normal;font-weight:normal;font-stretch:normal;font-family:'Tw Cen MT Condensed Extra Bold';-inkscape-font-specification:'Tw Cen MT Condensed Extra Bold, ';text-align:center;text-anchor:middle;stroke-width:0.26458332"
         id="path2311" />
      <path
         d="m 107.49671,202.19529 h 2.39779 v 5.02708 h 0.0413 q 0.8847,-1.23196 2.04225,-1.23196 0.82682,0 1.28158,0.5457 0.46302,0.53743 0.46302,1.52135 v 5.78776 h -2.40606 v -4.63847 q 0,-0.44649 -0.1819,-0.69453 -0.17363,-0.25632 -0.48782,-0.25632 -0.75241,0 -0.75241,1.01699 v 4.57233 h -2.39779 z"
         style="font-style:normal;font-variant:normal;font-weight:normal;font-stretch:normal;font-family:'Tw Cen MT Condensed Extra Bold';-inkscape-font-specification:'Tw Cen MT Condensed Extra Bold, ';text-align:center;text-anchor:middle;stroke-width:0.26458332"
         id="path2313" />
      <path
         d="m 119.07223,211.52185 h 2.02572 q -0.57878,2.56315 -2.89388,2.56315 -1.44694,0 -2.2903,-1.09967 -0.84336,-1.09968 -0.84336,-3.03444 0,-1.80248 0.84336,-2.88561 0.84336,-1.09141 2.24069,-1.09141 0.84336,0 1.62057,0.52917 0.77721,0.5209 1.13275,1.38906 0.35553,0.86816 0.39687,2.73678 h -4.01009 q 0.0496,1.69499 0.94258,1.69499 0.30593,0 0.5457,-0.22324 0.23978,-0.22324 0.28939,-0.57878 z m -1.74459,-2.19935 h 1.74459 q -0.0248,-0.80202 -0.22324,-1.18235 -0.19844,-0.38861 -0.62839,-0.38861 -0.47955,0 -0.68626,0.37207 -0.2067,0.37207 -0.2067,1.19889 z"
         style="font-style:normal;font-variant:normal;font-weight:normal;font-stretch:normal;font-family:'Tw Cen MT Condensed Extra Bold';-inkscape-font-specification:'Tw Cen MT Condensed Extra Bold, ';text-align:center;text-anchor:middle;stroke-width:0.26458332"
         id="path2315" />
      <path
         d="m 126.4971,202.19529 h 2.38952 v 11.64993 h -2.40605 v -1.00045 h -0.0331 q -0.80202,1.25677 -1.81074,1.25677 -1.05833,0 -1.71152,-1.10794 -0.64492,-1.10795 -0.64492,-2.96003 0,-1.84381 0.66145,-2.94349 0.66146,-1.09967 1.7446,-1.09967 0.98392,0 1.81074,1.13274 z m 0,7.78867 q 0,-1.87689 -0.9095,-1.87689 -0.93431,0 -0.93431,1.99265 0,0.8847 0.24804,1.37252 0.25632,0.47956 0.7028,0.47956 0.41341,0 0.65319,-0.51263 0.23978,-0.51263 0.23978,-1.45521 z"
         style="font-style:normal;font-variant:normal;font-weight:normal;font-stretch:normal;font-family:'Tw Cen MT Condensed Extra Bold';-inkscape-font-specification:'Tw Cen MT Condensed Extra Bold, ';text-align:center;text-anchor:middle;stroke-width:0.26458332"
         id="path2317" />
      <path
         d="m 133.01246,206.23845 v 1.27331 h 0.0331 q 0.8599,-1.48828 1.81075,-1.48828 0.14055,0 0.3886,0.0496 v 2.35644 q -0.43821,-0.0744 -0.81028,-0.0744 -1.32292,0 -1.32292,1.71152 v 3.77858 h -2.39779 v -7.60677 z"
         style="font-style:normal;font-variant:normal;font-weight:normal;font-stretch:normal;font-family:'Tw Cen MT Condensed Extra Bold';-inkscape-font-specification:'Tw Cen MT Condensed Extra Bold, ';text-align:center;text-anchor:middle;stroke-width:0.26458332"
         id="path2319" />
      <path
         d="m 139.39554,205.97387 q 1.64538,0 2.50527,1.09967 0.8599,1.09141 0.8599,3.04271 0,1.90996 -0.89297,2.96003 -0.89297,1.0418 -2.4722,1.0418 -1.51309,0 -2.40606,-1.06661 -0.8847,-1.0666 -0.8847,-2.93522 0,-1.9513 0.84336,-3.04271 0.85163,-1.09967 2.4474,-1.09967 z m 0.0165,5.99447 q 0.47129,0 0.7028,-0.43822 0.23978,-0.43822 0.23978,-1.49655 0,-1.05006 -0.23151,-1.47174 -0.23151,-0.42168 -0.69453,-0.42168 -0.45475,0 -0.69453,0.41341 -0.23978,0.40514 -0.23978,1.49655 0,1.91823 0.91777,1.91823 z"
         style="font-style:normal;font-variant:normal;font-weight:normal;font-stretch:normal;font-family:'Tw Cen MT Condensed Extra Bold';-inkscape-font-specification:'Tw Cen MT Condensed Extra Bold, ';text-align:center;text-anchor:middle;stroke-width:0.26458332"
         id="path2321" />
      <path
         d="m 146.57236,206.23845 v 1.03353 h 0.0413 q 0.84336,-1.28157 2.05879,-1.28157 0.79375,0 1.25677,0.52916 0.47129,0.52917 0.47129,1.43041 v 5.89524 h -2.40606 v -4.68808 q 0,-0.38861 -0.1819,-0.63666 -0.1819,-0.24804 -0.47129,-0.24804 -0.76894,0 -0.76894,0.96738 v 4.6054 h -2.39779 v -7.60677 z"
         style="font-style:normal;font-variant:normal;font-weight:normal;font-stretch:normal;font-family:'Tw Cen MT Condensed Extra Bold';-inkscape-font-specification:'Tw Cen MT Condensed Extra Bold, ';text-align:center;text-anchor:middle;stroke-width:0.26458332"
         id="path2323" />
    </g>
    <path
       sodipodi:type="star"
       style="opacity:1;fill:none;fill-opacity:1;stroke:#000000;stroke-width:1.50000004;stroke-miterlimit:4;stroke-dasharray:none;stroke-dashoffset:0;stroke-opacity:1"
       id="path9073"
       sodipodi:sides="4"
       sodipodi:cx="106.36966"
       sodipodi:cy="113.97576"
       sodipodi:r1="34.344582"
       sodipodi:r2="24.285288"
       sodipodi:arg1="-0.78539816"
       sodipodi:arg2="0"
       inkscape:flatsided="true"
       inkscape:rounded="0"
       inkscape:randomized="0"
       d="m 130.65495,89.690475 0,48.570575 -48.570577,0 0,-48.570575 z" />
    <path
       style="fill:none;stroke:#000000;stroke-width:1.50000004;stroke-linecap:butt;stroke-linejoin:miter;stroke-miterlimit:4;stroke-dasharray:none;stroke-opacity:1;stroke-dashoffset:0"
       d="M 82.084379,89.690477 106.89562,67.796806 130.65495,89.690477"
       id="path9075"
       inkscape:connector-curvature="0" />
    <path
       style="fill:none;stroke:#000000;stroke-width:1.50000004;stroke-linecap:butt;stroke-linejoin:miter;stroke-miterlimit:4;stroke-dasharray:none;stroke-opacity:1;stroke-dashoffset:0"
       d="m 82.084379,138.26105 0.617254,28.41554 H 130.0377 l 0.61725,-28.41554"
       id="path9077"
       inkscape:connector-curvature="0" />
    <path
       style="fill:none;stroke:#000000;stroke-width:1.50000004;stroke-linecap:butt;stroke-linejoin:miter;stroke-miterlimit:4;stroke-dasharray:3.00000008,3.00000008;stroke-dashoffset:0;stroke-opacity:1"
       d="M 106.89562,67.796806 81.649719,113.02905 h 49.439891 z"
       id="path9079"
       inkscape:connector-curvature="0" />
    <path
       style="fill:none;stroke:#000000;stroke-width:1.50000004;stroke-linecap:butt;stroke-linejoin:miter;stroke-miterlimit:4;stroke-dasharray:3.00000008,3.00000008;stroke-dashoffset:0;stroke-opacity:1"
       d="m 82.701633,166.67659 23.142077,-18.93443 24.19399,18.93443"
       id="path9081"
       inkscape:connector-curvature="0" />
    <path
       style="fill:none;stroke:#000000;stroke-width:1.50000004;stroke-linecap:butt;stroke-linejoin:miter;stroke-miterlimit:4;stroke-dasharray:3.00000008,3.00000008;stroke-dashoffset:0;stroke-opacity:1"
       d="m 81.649719,113.02905 24.193991,34.71311 25.2459,-34.71311"
       id="path9083"
       inkscape:connector-curvature="0" />
    <path
       style="fill:none;stroke:#000000;stroke-width:1.50000004;stroke-linecap:butt;stroke-linejoin:miter;stroke-miterlimit:4;stroke-dasharray:none;stroke-opacity:1;stroke-dashoffset:0"
       d="M 82.084379,89.690477 58.507643,120.39244 82.084379,138.26105"
       id="path9085"
       inkscape:connector-curvature="0" />
    <path
       style="fill:none;stroke:#000000;stroke-width:1.50000004;stroke-linecap:butt;stroke-linejoin:miter;stroke-miterlimit:4;stroke-dasharray:none;stroke-opacity:1;stroke-dashoffset:0"
       d="m 130.65495,89.690477 22.52482,30.701963 -22.52482,17.86861"
       id="path9087"
       inkscape:connector-curvature="0" />
    <path
       style="fill:none;stroke:#000000;stroke-width:1.50000004;stroke-linecap:butt;stroke-linejoin:miter;stroke-miterlimit:4;stroke-dasharray:none;stroke-opacity:1;stroke-dashoffset:0"
       d="m 58.507643,120.39244 24.19399,46.28415"
       id="path9089"
       inkscape:connector-curvature="0" />
    <path
       style="fill:none;stroke:#000000;stroke-width:1.50000004;stroke-linecap:butt;stroke-linejoin:miter;stroke-miterlimit:4;stroke-dasharray:none;stroke-opacity:1;stroke-dashoffset:0"
       d="M 153.17977,120.39244 130.0377,166.67659"
       id="path9091"
       inkscape:connector-curvature="0" />
    <path
       style="fill:none;stroke:#000000;stroke-width:1.50000004;stroke-linecap:butt;stroke-linejoin:miter;stroke-miterlimit:4;stroke-dasharray:3.00000008,3.00000008;stroke-dashoffset:0;stroke-opacity:1"
       d="m 81.649719,113.02905 -23.142076,7.36339"
       id="path9093"
       inkscape:connector-curvature="0" />
    <path
       style="fill:none;stroke:#000000;stroke-width:1.50000004;stroke-linecap:butt;stroke-linejoin:miter;stroke-miterlimit:4;stroke-dasharray:3.00000008,3.00000008;stroke-dashoffset:0;stroke-opacity:1"
       d="m 131.08961,113.02905 22.09016,7.36339"
       id="path9095"
       inkscape:connector-curvature="0" />
  </g>
</svg>
