<svg xmlns="http://www.w3.org/2000/svg" width="537.098" height="688.526" viewBox="0 0 142.107 182.173"><g aria-label="Reuleaux Cone" style="line-height:1.25;-inkscape-font-specification:'Tw Cen MT Condensed Extra Bold, ';text-align:center" font-weight="400" font-size="16.933" font-family="Tw Cen MT Condensed Extra Bold" letter-spacing="0" word-spacing="0" text-anchor="middle" stroke-width=".265"><path d="M24.827 129.563h2.92q1.768 0 2.794.91 1.025.91 1.025 2.472 0 .802-.389 1.554-.388.744-1.132 1.125l2 4.977H29.4l-2.026-5.027h-.041v5.027h-2.506zm2.506 2.133v2.621q1.662-.033 1.662-1.165 0-.77-.39-1.1-.38-.33-1.272-.356zM36.949 138.278h2.025q-.578 2.563-2.894 2.563-1.447 0-2.29-1.1t-.843-3.034q0-1.803.843-2.886.843-1.091 2.24-1.091.844 0 1.621.529.778.52 1.133 1.39.356.867.397 2.736h-4.01q.05 1.695.943 1.695.305 0 .545-.223.24-.224.29-.58zm-1.745-2.2h1.745q-.025-.802-.224-1.182-.198-.388-.628-.388-.48 0-.686.372-.207.372-.207 1.198zM40.545 132.994h2.406v4.895q0 .38.174.637.182.248.488.248.694 0 .694-1.017v-4.763h2.406v4.407q0 1.679-.785 2.572-.786.884-2.266.884-1.653 0-2.39-.909-.727-.91-.727-2.274zM48.574 128.951h2.406v11.65h-2.406zM56.445 138.278h2.026q-.579 2.563-2.894 2.563-1.447 0-2.29-1.1-.844-1.1-.844-3.034 0-1.803.844-2.886.843-1.091 2.24-1.091.844 0 1.62.529.778.52 1.134 1.39.355.867.396 2.736h-4.01q.05 1.695.943 1.695.306 0 .546-.223.24-.224.29-.58zm-1.745-2.2h1.745q-.025-.802-.223-1.182-.199-.388-.629-.388-.48 0-.686.372-.207.372-.207 1.198zM63.87 140.601v-1h-.033q-.438.645-.852.95-.405.307-.959.307-1.083 0-1.728-1.108t-.645-3.01q0-1.827.653-2.91.654-1.084 1.72-1.084.57 0 .968.29.396.28.826.91h.033v-.952h2.406v7.607zm0-3.845q0-1.893-.926-1.893-.934 0-.934 1.893 0 1.968.967 1.968.893 0 .893-1.968zM68.029 132.994h2.406v4.895q0 .38.174.637.181.248.487.248.695 0 .695-1.017v-4.763h2.406v4.407q0 1.679-.786 2.572-.785.884-2.265.884-1.654 0-2.39-.909-.727-.91-.727-2.274zM75.239 132.994h2.745q.926 1.977 1.017 2.44h.033q.132-.637 1.033-2.44h2.762l-2.44 3.829 2.457 3.778H80.15q-.802-1.711-1.116-2.538H79q-.033.29-.48 1.248l-.603 1.29h-2.654l2.397-3.745zM94.156 137.997v2.62q-.793.257-1.422.257-2.174 0-3.53-1.629-1.348-1.637-1.348-4.3 0-2.471 1.364-4.076 1.365-1.612 3.448-1.612.81 0 1.488.215v2.63q-.719-.24-1.356-.24-.975 0-1.62.893-.645.893-.645 2.273 0 1.489.645 2.357.653.86 1.736.86.53 0 1.24-.248zM98.365 132.73q1.645 0 2.505 1.1.86 1.09.86 3.042 0 1.91-.893 2.96-.893 1.042-2.472 1.042-1.513 0-2.406-1.067-.885-1.066-.885-2.935 0-1.951.844-3.042.851-1.1 2.447-1.1zm.016 5.994q.472 0 .703-.438.24-.438.24-1.496 0-1.05-.231-1.472-.232-.422-.695-.422-.455 0-.695.414-.24.405-.24 1.496 0 1.918.918 1.918zM105.542 132.994v1.034h.041q.843-1.282 2.059-1.282.794 0 1.257.53.471.529.471 1.43v5.895h-2.406v-4.688q0-.388-.182-.637-.182-.248-.471-.248-.77 0-.77.968v4.605h-2.397v-7.607zM114.72 138.278h2.025q-.579 2.563-2.894 2.563-1.447 0-2.29-1.1t-.843-3.034q0-1.803.843-2.886.843-1.091 2.24-1.091.844 0 1.621.529.778.52 1.133 1.39.356.867.397 2.736h-4.01q.05 1.695.942 1.695.306 0 .546-.223.24-.224.29-.58zm-1.745-2.2h1.745q-.025-.802-.224-1.182-.198-.388-.628-.388-.48 0-.686.372-.207.372-.207 1.198z" style="-inkscape-font-specification:'Tw Cen MT Condensed Extra Bold, ';text-align:center"/></g><path d="M113.766 77.48c-29.997 16.615-62.07 16.615-87.913 0" fill="none" stroke="#000" stroke-width="1.5"/><path d="M25.853 77.342c29.996-16.613 62.07-16.613 87.913 0" fill="none" stroke="#000" stroke-width="1.5" stroke-dasharray="3.00000008,3.00000008"/><path d="M113.766 77.48c-44.355 20.96-44.34 20.675-87.913 0M25.853 77.342c14.613-34.547 14.58-33.918 44.549-58.211 26.749 24.75 26.236 24.375 43.364 58.211" fill="none" stroke="#000" stroke-width="1.5"/></svg>