<?xml version="1.0" encoding="UTF-8" standalone="no"?>
<!-- Created with Inkscape (http://www.inkscape.org/) -->

<svg
   xmlns:dc="http://purl.org/dc/elements/1.1/"
   xmlns:cc="http://creativecommons.org/ns#"
   xmlns:rdf="http://www.w3.org/1999/02/22-rdf-syntax-ns#"
   xmlns:svg="http://www.w3.org/2000/svg"
   xmlns="http://www.w3.org/2000/svg"
   xmlns:sodipodi="http://sodipodi.sourceforge.net/DTD/sodipodi-0.dtd"
   xmlns:inkscape="http://www.inkscape.org/namespaces/inkscape"
   width="142.10715mm"
   height="182.17261mm"
   viewBox="0 0 142.10715 182.17261"
   version="1.1"
   id="svg8"
   inkscape:version="0.92.4 (5da689c313, 2019-01-14)"
   sodipodi:docname="reuleaux tetrahedron.svg">
  <defs
     id="defs2" />
  <sodipodi:namedview
     id="base"
     pagecolor="#ffffff"
     bordercolor="#666666"
     borderopacity="1.0"
     inkscape:pageopacity="0.0"
     inkscape:pageshadow="2"
     inkscape:zoom="0.49497475"
     inkscape:cx="-135.72467"
     inkscape:cy="277.12022"
     inkscape:document-units="mm"
     inkscape:current-layer="layer1"
     showgrid="false"
     inkscape:window-width="1366"
     inkscape:window-height="705"
     inkscape:window-x="-8"
     inkscape:window-y="-8"
     inkscape:window-maximized="1" />
  <metadata
     id="metadata5">
    <rdf:RDF>
      <cc:Work
         rdf:about="">
        <dc:format>image/svg+xml</dc:format>
        <dc:type
           rdf:resource="http://purl.org/dc/dcmitype/StillImage" />
        <dc:title />
      </cc:Work>
    </rdf:RDF>
  </metadata>
  <g
     inkscape:label="Layer 1"
     inkscape:groupmode="layer"
     id="layer1"
     transform="translate(-34.779762,-52.07737)">
    <g
       aria-label="Reuleaux
Tetrahedron
 "
       style="font-style:normal;font-variant:normal;font-weight:normal;font-stretch:normal;font-size:16.93333244px;line-height:1.25;font-family:'Tw Cen MT Condensed Extra Bold';-inkscape-font-specification:'Tw Cen MT Condensed Extra Bold, ';text-align:center;letter-spacing:0px;word-spacing:0px;text-anchor:middle;fill:#000000;fill-opacity:1;stroke:none;stroke-width:0.26458332"
       id="text827">
      <path
         d="m 76.821582,181.64047 h 2.918685 q 1.769401,0 2.794661,0.90951 1.02526,0.9095 1.02526,2.4722 0,0.80202 -0.388606,1.55443 -0.388607,0.74414 -1.132748,1.12447 l 2.000912,4.97748 h -2.645834 l -2.025716,-5.02708 h -0.04134 v 5.02708 h -2.505273 z m 2.505273,2.13321 v 2.62102 q 1.661914,-0.0331 1.661914,-1.16582 0,-0.76894 -0.388606,-1.09967 -0.380339,-0.33073 -1.273308,-0.35553 z"
         style="font-style:normal;font-variant:normal;font-weight:normal;font-stretch:normal;font-family:'Tw Cen MT Condensed Extra Bold';-inkscape-font-specification:'Tw Cen MT Condensed Extra Bold, ';text-align:center;text-anchor:middle;stroke-width:0.26458332"
         id="path9569" />
      <path
         d="m 88.942806,190.35519 h 2.025716 q -0.578776,2.56315 -2.89388,2.56315 -1.44694,0 -2.290299,-1.09968 -0.84336,-1.09967 -0.84336,-3.03444 0,-1.80247 0.84336,-2.88561 0.843359,-1.09141 2.24069,-1.09141 0.843359,0 1.620572,0.52917 0.777214,0.5209 1.132748,1.38906 0.355534,0.86817 0.396875,2.73679 h -4.010091 q 0.04961,1.69498 0.942578,1.69498 0.305924,0 0.545703,-0.22324 0.239779,-0.22324 0.289388,-0.57877 z m -1.744596,-2.19935 h 1.744596 q -0.02481,-0.80202 -0.223242,-1.18236 -0.198438,-0.38861 -0.628386,-0.38861 -0.479557,0 -0.686263,0.37207 -0.206705,0.37207 -0.206705,1.1989 z"
         style="font-style:normal;font-variant:normal;font-weight:normal;font-stretch:normal;font-family:'Tw Cen MT Condensed Extra Bold';-inkscape-font-specification:'Tw Cen MT Condensed Extra Bold, ';text-align:center;text-anchor:middle;stroke-width:0.26458332"
         id="path9571" />
      <path
         d="m 92.539484,185.07179 h 2.406055 v 4.89479 q 0,0.38034 0.173633,0.63665 0.181901,0.24805 0.487825,0.24805 0.694531,0 0.694531,-1.01699 v -4.7625 h 2.406055 v 4.40696 q 0,1.67845 -0.785482,2.57142 -0.785481,0.8847 -2.265494,0.8847 -1.653646,0 -2.389518,-0.9095 -0.727605,-0.90951 -0.727605,-2.27376 z"
         style="font-style:normal;font-variant:normal;font-weight:normal;font-stretch:normal;font-family:'Tw Cen MT Condensed Extra Bold';-inkscape-font-specification:'Tw Cen MT Condensed Extra Bold, ';text-align:center;text-anchor:middle;stroke-width:0.26458332"
         id="path9573" />
      <path
         d="m 100.56793,181.02862 h 2.40606 v 11.64994 h -2.40606 z"
         style="font-style:normal;font-variant:normal;font-weight:normal;font-stretch:normal;font-family:'Tw Cen MT Condensed Extra Bold';-inkscape-font-specification:'Tw Cen MT Condensed Extra Bold, ';text-align:center;text-anchor:middle;stroke-width:0.26458332"
         id="path9575" />
      <path
         d="m 108.43929,190.35519 h 2.02571 q -0.57877,2.56315 -2.89388,2.56315 -1.44694,0 -2.29029,-1.09968 -0.84336,-1.09967 -0.84336,-3.03444 0,-1.80247 0.84336,-2.88561 0.84335,-1.09141 2.24069,-1.09141 0.84335,0 1.62057,0.52917 0.77721,0.5209 1.13275,1.38906 0.35553,0.86817 0.39687,2.73679 h -4.01009 q 0.0496,1.69498 0.94258,1.69498 0.30592,0 0.5457,-0.22324 0.23978,-0.22324 0.28939,-0.57877 z m -1.7446,-2.19935 h 1.7446 q -0.0248,-0.80202 -0.22324,-1.18236 -0.19844,-0.38861 -0.62839,-0.38861 -0.47956,0 -0.68626,0.37207 -0.20671,0.37207 -0.20671,1.1989 z"
         style="font-style:normal;font-variant:normal;font-weight:normal;font-stretch:normal;font-family:'Tw Cen MT Condensed Extra Bold';-inkscape-font-specification:'Tw Cen MT Condensed Extra Bold, ';text-align:center;text-anchor:middle;stroke-width:0.26458332"
         id="path9577" />
      <path
         d="m 115.86416,192.67856 v -1.00046 h -0.0331 q -0.43821,0.64492 -0.85162,0.95085 -0.40515,0.30592 -0.95912,0.30592 -1.08314,0 -1.72806,-1.10794 -0.64492,-1.10794 -0.64492,-3.00963 0,-1.82728 0.65319,-2.91042 0.65319,-1.08314 1.71979,-1.08314 0.57051,0 0.96738,0.28939 0.39688,0.28112 0.82683,0.9095 h 0.0331 v -0.95084 h 2.40605 v 7.60677 z m 0,-3.84473 q 0,-1.89342 -0.92604,-1.89342 -0.93431,0 -0.93431,1.89342 0,1.96784 0.96738,1.96784 0.89297,0 0.89297,-1.96784 z"
         style="font-style:normal;font-variant:normal;font-weight:normal;font-stretch:normal;font-family:'Tw Cen MT Condensed Extra Bold';-inkscape-font-specification:'Tw Cen MT Condensed Extra Bold, ';text-align:center;text-anchor:middle;stroke-width:0.26458332"
         id="path9579" />
      <path
         d="m 120.02308,185.07179 h 2.40605 v 4.89479 q 0,0.38034 0.17363,0.63665 0.18191,0.24805 0.48783,0.24805 0.69453,0 0.69453,-1.01699 v -4.7625 h 2.40606 v 4.40696 q 0,1.67845 -0.78549,2.57142 -0.78548,0.8847 -2.26549,0.8847 -1.65365,0 -2.38952,-0.9095 -0.7276,-0.90951 -0.7276,-2.27376 z"
         style="font-style:normal;font-variant:normal;font-weight:normal;font-stretch:normal;font-family:'Tw Cen MT Condensed Extra Bold';-inkscape-font-specification:'Tw Cen MT Condensed Extra Bold, ';text-align:center;text-anchor:middle;stroke-width:0.26458332"
         id="path9581" />
      <path
         d="m 127.23297,185.07179 h 2.74505 q 0.92605,1.9761 1.017,2.43913 h 0.0331 q 0.13229,-0.63666 1.03353,-2.43913 h 2.76159 l -2.43913,3.82819 2.45566,3.77858 h -2.69544 q -0.80202,-1.71152 -1.11621,-2.53835 h -0.0331 q -0.0331,0.28939 -0.47956,1.2485 l -0.60358,1.28985 h -2.6541 l 2.39778,-3.74551 z"
         style="font-style:normal;font-variant:normal;font-weight:normal;font-stretch:normal;font-family:'Tw Cen MT Condensed Extra Bold';-inkscape-font-specification:'Tw Cen MT Condensed Extra Bold, ';text-align:center;text-anchor:middle;stroke-width:0.26458332"
         id="path9583" />
      <path
         d="m 67.329655,202.80714 h 5.97793 v 2.52181 h -1.72806 v 8.51627 h -2.538346 v -8.51627 h -1.711524 z"
         style="font-style:normal;font-variant:normal;font-weight:normal;font-stretch:normal;font-family:'Tw Cen MT Condensed Extra Bold';-inkscape-font-specification:'Tw Cen MT Condensed Extra Bold, ';text-align:center;text-anchor:middle;stroke-width:0.26458332"
         id="path9585" />
      <path
         d="m 77.573991,211.52185 h 2.025716 q -0.578776,2.56315 -2.89388,2.56315 -1.44694,0 -2.2903,-1.09967 -0.843359,-1.09968 -0.843359,-3.03444 0,-1.80248 0.843359,-2.88561 0.84336,-1.09141 2.24069,-1.09141 0.84336,0 1.620573,0.52917 0.777214,0.5209 1.132747,1.38906 0.355534,0.86816 0.396875,2.73678 h -4.01009 q 0.04961,1.69499 0.942578,1.69499 0.305924,0 0.545703,-0.22324 0.239778,-0.22324 0.289388,-0.57878 z m -1.744597,-2.19935 h 1.744597 q -0.02481,-0.80202 -0.223242,-1.18235 -0.198438,-0.38861 -0.628386,-0.38861 -0.479557,0 -0.686263,0.37207 -0.206706,0.37207 -0.206706,1.19889 z"
         style="font-style:normal;font-variant:normal;font-weight:normal;font-stretch:normal;font-family:'Tw Cen MT Condensed Extra Bold';-inkscape-font-specification:'Tw Cen MT Condensed Extra Bold, ';text-align:center;text-anchor:middle;stroke-width:0.26458332"
         id="path9587" />
      <path
         d="m 81.517936,204.21274 h 2.406054 v 2.02571 h 0.93431 v 2.00091 h -0.950846 v 5.60586 h -2.389518 v -5.62239 H 80.60843 v -1.98438 h 0.909506 z"
         style="font-style:normal;font-variant:normal;font-weight:normal;font-stretch:normal;font-family:'Tw Cen MT Condensed Extra Bold';-inkscape-font-specification:'Tw Cen MT Condensed Extra Bold, ';text-align:center;text-anchor:middle;stroke-width:0.26458332"
         id="path9589" />
      <path
         d="m 88.380566,206.23845 v 1.27331 h 0.03307 q 0.859896,-1.48828 1.810742,-1.48828 0.14056,0 0.388607,0.0496 v 2.35644 q -0.438216,-0.0744 -0.810287,-0.0744 -1.322916,0 -1.322916,1.71152 v 3.77858 h -2.397786 v -7.60677 z"
         style="font-style:normal;font-variant:normal;font-weight:normal;font-stretch:normal;font-family:'Tw Cen MT Condensed Extra Bold';-inkscape-font-specification:'Tw Cen MT Condensed Extra Bold, ';text-align:center;text-anchor:middle;stroke-width:0.26458332"
         id="path9591" />
      <path
         d="m 95.68968,213.84522 v -1.00045 h -0.03307 q -0.438217,0.64492 -0.851628,0.95084 -0.405143,0.30593 -0.959115,0.30593 -1.083138,0 -1.728059,-1.10794 -0.644922,-1.10795 -0.644922,-3.00964 0,-1.82728 0.65319,-2.91042 0.65319,-1.08313 1.719791,-1.08313 0.570508,0 0.967383,0.28938 0.396875,0.28112 0.826823,0.90951 h 0.03307 v -0.95085 h 2.406055 v 7.60677 z m 0,-3.84472 q 0,-1.89343 -0.926041,-1.89343 -0.93431,0 -0.93431,1.89343 0,1.96784 0.967383,1.96784 0.892968,0 0.892968,-1.96784 z"
         style="font-style:normal;font-variant:normal;font-weight:normal;font-stretch:normal;font-family:'Tw Cen MT Condensed Extra Bold';-inkscape-font-specification:'Tw Cen MT Condensed Extra Bold, ';text-align:center;text-anchor:middle;stroke-width:0.26458332"
         id="path9593" />
      <path
         d="m 99.906475,202.19529 h 2.397785 v 5.02708 h 0.0413 q 0.8847,-1.23196 2.04225,-1.23196 0.82683,0 1.28158,0.5457 0.46302,0.53743 0.46302,1.52135 v 5.78776 h -2.40605 v -4.63847 q 0,-0.44649 -0.1819,-0.69453 -0.17364,-0.25632 -0.48783,-0.25632 -0.75241,0 -0.75241,1.01699 v 4.57233 h -2.397785 z"
         style="font-style:normal;font-variant:normal;font-weight:normal;font-stretch:normal;font-family:'Tw Cen MT Condensed Extra Bold';-inkscape-font-specification:'Tw Cen MT Condensed Extra Bold, ';text-align:center;text-anchor:middle;stroke-width:0.26458332"
         id="path9595" />
      <path
         d="m 111.482,211.52185 h 2.02571 q -0.57877,2.56315 -2.89388,2.56315 -1.44694,0 -2.2903,-1.09967 -0.84336,-1.09968 -0.84336,-3.03444 0,-1.80248 0.84336,-2.88561 0.84336,-1.09141 2.24069,-1.09141 0.84336,0 1.62058,0.52917 0.77721,0.5209 1.13274,1.38906 0.35554,0.86816 0.39688,2.73678 h -4.01009 q 0.0496,1.69499 0.94258,1.69499 0.30592,0 0.5457,-0.22324 0.23978,-0.22324 0.28939,-0.57878 z m -1.7446,-2.19935 h 1.7446 q -0.0248,-0.80202 -0.22325,-1.18235 -0.19843,-0.38861 -0.62838,-0.38861 -0.47956,0 -0.68626,0.37207 -0.20671,0.37207 -0.20671,1.19889 z"
         style="font-style:normal;font-variant:normal;font-weight:normal;font-stretch:normal;font-family:'Tw Cen MT Condensed Extra Bold';-inkscape-font-specification:'Tw Cen MT Condensed Extra Bold, ';text-align:center;text-anchor:middle;stroke-width:0.26458332"
         id="path9597" />
      <path
         d="m 118.90687,202.19529 h 2.38951 v 11.64993 h -2.40605 v -1.00045 h -0.0331 q -0.80202,1.25677 -1.81075,1.25677 -1.05833,0 -1.71152,-1.10794 -0.64492,-1.10795 -0.64492,-2.96003 0,-1.84381 0.66146,-2.94349 0.66146,-1.09967 1.74459,-1.09967 0.98392,0 1.81075,1.13274 z m 0,7.78867 q 0,-1.87689 -0.90951,-1.87689 -0.93431,0 -0.93431,1.99265 0,0.8847 0.24805,1.37252 0.25631,0.47956 0.7028,0.47956 0.41341,0 0.65319,-0.51263 0.23978,-0.51263 0.23978,-1.45521 z"
         style="font-style:normal;font-variant:normal;font-weight:normal;font-stretch:normal;font-family:'Tw Cen MT Condensed Extra Bold';-inkscape-font-specification:'Tw Cen MT Condensed Extra Bold, ';text-align:center;text-anchor:middle;stroke-width:0.26458332"
         id="path9599" />
      <path
         d="m 125.42223,206.23845 v 1.27331 h 0.0331 q 0.8599,-1.48828 1.81074,-1.48828 0.14056,0 0.38861,0.0496 v 2.35644 q -0.43822,-0.0744 -0.81029,-0.0744 -1.32291,0 -1.32291,1.71152 v 3.77858 h -2.39779 v -7.60677 z"
         style="font-style:normal;font-variant:normal;font-weight:normal;font-stretch:normal;font-family:'Tw Cen MT Condensed Extra Bold';-inkscape-font-specification:'Tw Cen MT Condensed Extra Bold, ';text-align:center;text-anchor:middle;stroke-width:0.26458332"
         id="path9601" />
      <path
         d="m 131.8053,205.97387 q 1.64538,0 2.50528,1.09967 0.85989,1.09141 0.85989,3.04271 0,1.90996 -0.89297,2.96003 -0.89297,1.0418 -2.4722,1.0418 -1.51308,0 -2.40605,-1.06661 -0.8847,-1.0666 -0.8847,-2.93522 0,-1.9513 0.84336,-3.04271 0.85162,-1.09967 2.44739,-1.09967 z m 0.0165,5.99447 q 0.47129,0 0.7028,-0.43822 0.23978,-0.43822 0.23978,-1.49655 0,-1.05006 -0.23151,-1.47174 -0.23151,-0.42168 -0.69453,-0.42168 -0.45476,0 -0.69454,0.41341 -0.23977,0.40514 -0.23977,1.49655 0,1.91823 0.91777,1.91823 z"
         style="font-style:normal;font-variant:normal;font-weight:normal;font-stretch:normal;font-family:'Tw Cen MT Condensed Extra Bold';-inkscape-font-specification:'Tw Cen MT Condensed Extra Bold, ';text-align:center;text-anchor:middle;stroke-width:0.26458332"
         id="path9603" />
      <path
         d="m 138.98213,206.23845 v 1.03353 h 0.0413 q 0.84336,-1.28157 2.05879,-1.28157 0.79375,0 1.25677,0.52916 0.47129,0.52917 0.47129,1.43041 v 5.89524 h -2.40606 v -4.68808 q 0,-0.38861 -0.1819,-0.63666 -0.1819,-0.24804 -0.47129,-0.24804 -0.76894,0 -0.76894,0.96738 v 4.6054 h -2.39779 v -7.60677 z"
         style="font-style:normal;font-variant:normal;font-weight:normal;font-stretch:normal;font-family:'Tw Cen MT Condensed Extra Bold';-inkscape-font-specification:'Tw Cen MT Condensed Extra Bold, ';text-align:center;text-anchor:middle;stroke-width:0.26458332"
         id="path9605" />
    </g>
    <path
       sodipodi:nodetypes="cc"
       inkscape:connector-curvature="0"
       id="path2040"
       d="m 148.5453,129.5583 c -52.907335,20.42446 -63.582656,17.46729 -87.912626,0"
       style="fill:none;stroke:#000000;stroke-width:1.5;stroke-linecap:butt;stroke-linejoin:miter;stroke-miterlimit:4;stroke-dasharray:none;stroke-opacity:1" />
    <path
       style="fill:none;stroke:#000000;stroke-width:1.5;stroke-linecap:butt;stroke-linejoin:miter;stroke-miterlimit:4;stroke-dasharray:none;stroke-opacity:1"
       d="M 60.632671,129.41978 C 75.245496,94.87274 75.213016,95.501568 105.18181,71.208317 c 26.74889,24.749212 26.2363,24.375088 43.36349,58.211463"
       id="path2044"
       inkscape:connector-curvature="0"
       sodipodi:nodetypes="ccc" />
    <path
       style="fill:none;stroke:#000000;stroke-width:1.5;stroke-linecap:butt;stroke-linejoin:miter;stroke-miterlimit:4;stroke-dasharray:none;stroke-opacity:1"
       d="M 105.18181,71.208317 C 92.583421,96.690428 89.606735,117.36169 89.837283,142.8438"
       id="path2649"
       inkscape:connector-curvature="0"
       sodipodi:nodetypes="cc" />
    <path
       style="fill:none;stroke:#000000;stroke-width:1.5;stroke-linecap:butt;stroke-linejoin:miter;stroke-miterlimit:4;stroke-dasharray:3, 3;stroke-dashoffset:0;stroke-opacity:1"
       d="m 60.632671,129.41978 c 17.859339,-4.00904 26.090243,-4.35706 43.956319,-4.81085 20.52239,-0.52126 29.30421,1.87089 43.95631,4.81085"
       id="path2653"
       inkscape:connector-curvature="0"
       sodipodi:nodetypes="csc" />
  </g>
</svg>
