<svg xmlns="http://www.w3.org/2000/svg" width="537.098" height="688.526" viewBox="0 0 142.107 182.173"><g aria-label="Rhombic Triacontahedron" style="line-height:1.25;-inkscape-font-specification:'Tw Cen MT Condensed Extra Bold, ';text-align:center" font-weight="400" font-size="16.933" font-family="Tw Cen MT Condensed Extra Bold" letter-spacing="0" word-spacing="0" text-anchor="middle" stroke-width=".265"><path d="M44.688 129.563h2.918q1.77 0 2.795.91t1.025 2.472q0 .802-.388 1.554-.389.744-1.133 1.125l2 4.977H49.26l-2.026-5.027h-.041v5.027h-2.505zm2.505 2.133v2.621q1.662-.033 1.662-1.165 0-.77-.389-1.1-.38-.33-1.273-.356zM53.055 128.951h2.398v5.027h.041q.885-1.232 2.042-1.232.827 0 1.282.546.463.538.463 1.521v5.788h-2.406v-4.638q0-.447-.182-.695-.174-.256-.488-.256-.752 0-.752 1.017v4.572h-2.398zM63.92 132.73q1.645 0 2.505 1.1.86 1.09.86 3.042 0 1.91-.893 2.96-.893 1.042-2.472 1.042-1.514 0-2.407-1.067-.884-1.066-.884-2.935 0-1.951.843-3.042.852-1.1 2.448-1.1zm.016 5.994q.471 0 .703-.438.24-.438.24-1.496 0-1.05-.232-1.472-.231-.422-.694-.422-.455 0-.695.414-.24.405-.24 1.496 0 1.918.918 1.918zM71.096 132.994v.935q1.026-1.2 2.084-1.2 1.273 0 1.645 1.315.58-.686 1.075-1 .505-.314 1.174-.314 1.679 0 1.679 2.348v5.523h-2.406v-4.49q0-1.1-.711-1.1-.728 0-.728 1.084v4.506h-2.406v-4.622q0-.421-.198-.694-.19-.273-.497-.273-.322 0-.52.264-.19.265-.19.72v4.605h-2.398v-7.607zM80.539 128.951h2.397v4.961h.042q.438-.603.818-.885.389-.28.993-.28 1.008 0 1.686 1.058.678 1.05.678 3.018 0 1.819-.653 2.927-.645 1.108-1.678 1.108-1.075 0-1.844-1.24h-.042v.983H80.54zm4.233 7.805q0-1.893-.967-1.893-.869 0-.869 1.827 0 1.05.224 1.538.231.48.727.48.885 0 .885-1.952zM88.575 130.712q0-.529.372-.9.373-.373.893-.373.53 0 .902.372t.372.901q0 .521-.372.902-.372.372-.902.372-.512 0-.893-.372-.372-.38-.372-.902zm.067 2.282h2.406v7.607h-2.406zM97.067 138.278v1.984q-.86.579-1.728.579-1.282 0-2.059-1.108-.769-1.116-.769-2.993 0-1.778.794-2.894t2.05-1.116q.877 0 1.728.62v1.968q-.487-.257-.876-.257-.579 0-.934.472-.356.463-.356 1.24 0 .819.347 1.29.348.471.943.471.364 0 .86-.256zM19.238 150.73h5.978v2.522h-1.728v8.516H20.95v-8.516h-1.712zM28.494 154.161v1.273h.033q.86-1.488 1.811-1.488.14 0 .389.05v2.356q-.438-.074-.81-.074-1.323 0-1.323 1.711v3.779h-2.398v-7.607zM32.004 151.88q0-.53.372-.902t.893-.372q.53 0 .901.372.373.372.373.901 0 .521-.373.901-.372.372-.9.372-.513 0-.894-.372-.372-.38-.372-.9zm.066 2.281h2.406v7.607H32.07zM40.157 161.768v-1h-.033q-.439.644-.852.95-.405.306-.96.306-1.082 0-1.727-1.108t-.645-3.01q0-1.827.653-2.91.653-1.083 1.72-1.083.57 0 .967.29.397.28.827.909h.033v-.95h2.406v7.606zm0-3.845q0-1.893-.926-1.893-.935 0-.935 1.893 0 1.968.968 1.968.893 0 .893-1.968zM48.5 159.444v1.985q-.86.579-1.729.579-1.281 0-2.059-1.108-.768-1.117-.768-2.993 0-1.778.793-2.894.794-1.117 2.05-1.117.877 0 1.729.62v1.968q-.488-.256-.877-.256-.578 0-.934.471-.355.463-.355 1.24 0 .82.347 1.29.347.472.942.472.364 0 .86-.257zM52.79 153.897q1.646 0 2.506 1.1.86 1.09.86 3.042 0 1.91-.893 2.96-.893 1.042-2.472 1.042-1.514 0-2.407-1.067-.884-1.066-.884-2.935 0-1.951.843-3.043.852-1.1 2.448-1.1zm.017 5.994q.471 0 .703-.438.24-.438.24-1.497 0-1.05-.232-1.472-.231-.421-.694-.421-.455 0-.695.413-.24.405-.24 1.497 0 1.918.918 1.918zM59.967 154.161v1.034h.042q.843-1.282 2.058-1.282.794 0 1.257.53.472.528.472 1.43v5.895h-2.407v-4.688q0-.389-.181-.637-.182-.248-.472-.248-.769 0-.769.967v4.606H57.57v-7.607zM65.87 152.135h2.407v2.026h.934v2.001h-.95v5.606h-2.39v-5.623h-.91v-1.984h.91zM74.222 161.768v-1h-.033q-.439.644-.852.95-.405.306-.96.306-1.082 0-1.727-1.108t-.645-3.01q0-1.827.653-2.91.653-1.083 1.72-1.083.57 0 .967.29.397.28.827.909h.033v-.95h2.406v7.606zm0-3.845q0-1.893-.926-1.893-.935 0-.935 1.893 0 1.968.968 1.968.893 0 .893-1.968zM78.439 150.118h2.397v5.027h.042q.884-1.232 2.042-1.232.827 0 1.281.546.463.537.463 1.521v5.788h-2.406v-4.639q0-.446-.181-.694-.174-.256-.488-.256-.753 0-.753 1.017v4.572H78.44zM90.014 159.444h2.026q-.579 2.564-2.894 2.564-1.447 0-2.29-1.1-.844-1.1-.844-3.034 0-1.803.844-2.886.843-1.092 2.24-1.092.844 0 1.62.53.778.52 1.134 1.389.355.868.397 2.737h-4.01q.049 1.695.942 1.695.306 0 .546-.224.24-.223.29-.579zm-1.745-2.199h1.745q-.025-.802-.223-1.182-.199-.389-.629-.389-.48 0-.686.372-.207.372-.207 1.2zM97.439 150.118h2.39v11.65h-2.407v-1h-.033q-.802 1.256-1.81 1.256-1.059 0-1.712-1.108-.645-1.108-.645-2.96 0-1.844.662-2.943.661-1.1 1.744-1.1.984 0 1.81 1.133zm0 7.789q0-1.877-.91-1.877-.934 0-.934 1.992 0 .885.248 1.373.256.48.703.48.413 0 .653-.513.24-.513.24-1.455zM103.954 154.161v1.273h.033q.86-1.488 1.811-1.488.14 0 .389.05v2.356q-.438-.074-.81-.074-1.323 0-1.323 1.711v3.779h-2.398v-7.607zM110.337 153.897q1.646 0 2.506 1.1.86 1.09.86 3.042 0 1.91-.893 2.96-.893 1.042-2.473 1.042-1.513 0-2.406-1.067-.884-1.066-.884-2.935 0-1.951.843-3.043.852-1.1 2.447-1.1zm.017 5.994q.471 0 .703-.438.24-.438.24-1.497 0-1.05-.232-1.472-.232-.421-.695-.421-.454 0-.694.413-.24.405-.24 1.497 0 1.918.918 1.918zM117.514 154.161v1.034h.042q.843-1.282 2.058-1.282.794 0 1.257.53.471.528.471 1.43v5.895h-2.406v-4.688q0-.389-.182-.637-.181-.248-.47-.248-.77 0-.77.967v4.606h-2.398v-7.607z" style="-inkscape-font-specification:'Tw Cen MT Condensed Extra Bold, ';text-align:center"/></g><g stroke-width="1.05" fill="none" stroke="#000"><path d="M119.771 98.47l19.449 11.23v22.456l-21.052 11.763-17.845-11.763V109.7z" transform="matrix(-1.42475 0 0 -1.4329 234.8 248.078)"/><path d="M100.323 132.156l19.448-11.228 19.449 11.228M119.771 98.47v22.458M100.323 132.156l-2.468 18.171c4.99 2.851 15.877 9.784 15.877 9.784l3.901-15.657M113.357 161.018l19.243-11.225 6.62-17.637" transform="matrix(-1.42475 0 0 -1.4329 234.8 248.078)"/></g><path d="M91.865 90.891l21.942 8.307-2.285-32.936-19.657-7.55M95.38 32.675l22.996 6.78-6.854 26.807M64.156 106.98l28.326 5.238 21.325-13.02" fill="none" stroke="#000" stroke-width="1.5"/><path d="M118.376 39.454l1.523 42.893-6.092 16.85M73.295 18.122l20.563 3.064 24.518 18.268M36.447 58.712l-14.792 4.486v31.404l14.792-3.711" fill="none" stroke="#000" stroke-width="1.5"/><path d="M45.878 33.441l-18.13 12.14-6.093 17.617" fill="none" stroke="#000" stroke-width="1.5"/><path d="M73.295 17.356l-23.462 7.546-22.086 20.68M21.655 94.602l25.894 18.382 16.607-6.004" fill="none" stroke="#000" stroke-width="1.5"/><path d="M47.549 112.984l22.086 5.362 22.847-6.128" fill="none" stroke="#000" stroke-width="1.5"/><path d="M75.211 28.73l27.71 16.09v32.178L72.925 93.853 47.502 76.998V44.819z" fill="none" stroke="#000" stroke-width="1.5" stroke-dasharray="3.00000008,3.00000008"/><path d="M47.502 76.998l27.71-16.09 27.708 16.09M75.211 28.73V60.91M47.502 76.998l-3.516 26.037L65.31 115.29l6.855-20.671M66.072 118.354l27.417-16.085 9.431-25.271M102.92 44.82l15.456-5.366M75.211 28.73l18.647-7.544M49.833 24.902l25.378 3.828M47.502 44.82l-19.755.762M102.92 76.998l16.98 5.349M93.49 102.27l20.317-3.072M27.747 45.582V81.58l-6.092 13.02M43.986 103.035l-22.331-8.433M27.747 81.581l19.755-4.583" fill="none" stroke="#000" stroke-width="1.5" stroke-dasharray="3.00000008,3.00000008"/></svg>