<?xml version="1.0" encoding="UTF-8" standalone="no"?>
<!-- Created with Inkscape (http://www.inkscape.org/) -->

<svg
   xmlns:dc="http://purl.org/dc/elements/1.1/"
   xmlns:cc="http://creativecommons.org/ns#"
   xmlns:rdf="http://www.w3.org/1999/02/22-rdf-syntax-ns#"
   xmlns:svg="http://www.w3.org/2000/svg"
   xmlns="http://www.w3.org/2000/svg"
   xmlns:sodipodi="http://sodipodi.sourceforge.net/DTD/sodipodi-0.dtd"
   xmlns:inkscape="http://www.inkscape.org/namespaces/inkscape"
   width="142.10715mm"
   height="182.17261mm"
   viewBox="0 0 142.10715 182.17261"
   version="1.1"
   id="svg8"
   inkscape:version="0.92.4 (5da689c313, 2019-01-14)"
   sodipodi:docname="rhombicuboctohedron.svg">
  <defs
     id="defs2" />
  <sodipodi:namedview
     id="base"
     pagecolor="#ffffff"
     bordercolor="#666666"
     borderopacity="1.0"
     inkscape:pageopacity="0.0"
     inkscape:pageshadow="2"
     inkscape:zoom="0.49497475"
     inkscape:cx="-528.67401"
     inkscape:cy="277.12022"
     inkscape:document-units="mm"
     inkscape:current-layer="layer1"
     showgrid="false"
     inkscape:window-width="1366"
     inkscape:window-height="705"
     inkscape:window-x="-8"
     inkscape:window-y="-8"
     inkscape:window-maximized="1"
     inkscape:snap-global="true" />
  <metadata
     id="metadata5">
    <rdf:RDF>
      <cc:Work
         rdf:about="">
        <dc:format>image/svg+xml</dc:format>
        <dc:type
           rdf:resource="http://purl.org/dc/dcmitype/StillImage" />
        <dc:title />
      </cc:Work>
    </rdf:RDF>
  </metadata>
  <g
     inkscape:label="Layer 1"
     inkscape:groupmode="layer"
     id="layer1"
     transform="translate(-34.779762,-52.07737)">
    <g
       aria-label="Rhomicuboctohedron"
       style="font-style:normal;font-variant:normal;font-weight:normal;font-stretch:normal;font-size:16.93333244px;line-height:1.25;font-family:'Tw Cen MT Condensed Extra Bold';-inkscape-font-specification:'Tw Cen MT Condensed Extra Bold, ';text-align:center;letter-spacing:0px;word-spacing:0px;text-anchor:middle;fill:#000000;fill-opacity:1;stroke:none;stroke-width:0.26458332"
       id="text827">
      <path
         d="m 40.32562,181.64047 h 2.918685 q 1.769401,0 2.794661,0.90951 1.025261,0.9095 1.025261,2.4722 0,0.80202 -0.388607,1.55443 -0.388607,0.74414 -1.132747,1.12447 l 2.000911,4.97748 h -2.645833 l -2.025716,-5.02708 h -0.04134 v 5.02708 H 40.32562 Z m 2.505274,2.13321 v 2.62102 q 1.661914,-0.0331 1.661914,-1.16582 0,-0.76894 -0.388607,-1.09967 -0.380339,-0.33073 -1.273307,-0.35553 z"
         style="font-style:normal;font-variant:normal;font-weight:normal;font-stretch:normal;font-family:'Tw Cen MT Condensed Extra Bold';-inkscape-font-specification:'Tw Cen MT Condensed Extra Bold, ';text-align:center;text-anchor:middle;stroke-width:0.26458332"
         id="path12733" />
      <path
         d="m 48.693068,181.02862 h 2.397786 v 5.02709 h 0.04134 q 0.8847,-1.23197 2.042253,-1.23197 0.826822,0 1.281575,0.5457 0.463021,0.53744 0.463021,1.52136 v 5.78776 h -2.406055 v -4.63848 q 0,-0.44648 -0.181901,-0.69453 -0.173633,-0.25631 -0.487825,-0.25631 -0.752409,0 -0.752409,1.01699 v 4.57233 h -2.397786 z"
         style="font-style:normal;font-variant:normal;font-weight:normal;font-stretch:normal;font-family:'Tw Cen MT Condensed Extra Bold';-inkscape-font-specification:'Tw Cen MT Condensed Extra Bold, ';text-align:center;text-anchor:middle;stroke-width:0.26458332"
         id="path12735" />
      <path
         d="m 59.55752,184.8072 q 1.645377,0 2.505273,1.09968 0.859896,1.09141 0.859896,3.04271 0,1.90996 -0.892969,2.96002 -0.892969,1.0418 -2.4722,1.0418 -1.513086,0 -2.406055,-1.0666 -0.8847,-1.0666 -0.8847,-2.93522 0,-1.9513 0.843359,-3.04271 0.851627,-1.09968 2.447396,-1.09968 z m 0.01654,5.99447 q 0.471289,0 0.7028,-0.43822 0.239778,-0.43821 0.239778,-1.49655 0,-1.05006 -0.23151,-1.47174 -0.231511,-0.42168 -0.694531,-0.42168 -0.454753,0 -0.694532,0.41341 -0.239778,0.40515 -0.239778,1.49655 0,1.91823 0.917773,1.91823 z"
         style="font-style:normal;font-variant:normal;font-weight:normal;font-stretch:normal;font-family:'Tw Cen MT Condensed Extra Bold';-inkscape-font-specification:'Tw Cen MT Condensed Extra Bold, ';text-align:center;text-anchor:middle;stroke-width:0.26458332"
         id="path12737" />
      <path
         d="m 66.734342,185.07179 v 0.93431 q 1.02526,-1.1989 2.083593,-1.1989 1.273308,0 1.645378,1.31465 0.578776,-0.68626 1.07487,-1.00045 0.504362,-0.3142 1.174088,-0.3142 1.678451,0 1.678451,2.34818 v 5.52318 h -2.406055 v -4.48965 q 0,-1.09967 -0.711068,-1.09967 -0.727604,0 -0.727604,1.08313 v 4.50619 h -2.406054 v -4.62194 q 0,-0.42168 -0.198438,-0.69453 -0.190169,-0.27285 -0.496094,-0.27285 -0.32246,0 -0.520898,0.26458 -0.190169,0.26458 -0.190169,0.71933 v 4.60541 h -2.397787 v -7.60677 z"
         style="font-style:normal;font-variant:normal;font-weight:normal;font-stretch:normal;font-family:'Tw Cen MT Condensed Extra Bold';-inkscape-font-specification:'Tw Cen MT Condensed Extra Bold, ';text-align:center;text-anchor:middle;stroke-width:0.26458332"
         id="path12739" />
      <path
         d="m 76.176661,182.78976 q 0,-0.52917 0.37207,-0.90124 0.37207,-0.37207 0.892969,-0.37207 0.529166,0 0.901236,0.37207 0.372071,0.37207 0.372071,0.90124 0,0.5209 -0.372071,0.90123 -0.37207,0.37207 -0.901236,0.37207 -0.512631,0 -0.892969,-0.37207 -0.37207,-0.38033 -0.37207,-0.90123 z m 0.06615,2.28203 h 2.406055 v 7.60677 h -2.406055 z"
         style="font-style:normal;font-variant:normal;font-weight:normal;font-stretch:normal;font-family:'Tw Cen MT Condensed Extra Bold';-inkscape-font-specification:'Tw Cen MT Condensed Extra Bold, ';text-align:center;text-anchor:middle;stroke-width:0.26458332"
         id="path12741" />
      <path
         d="m 84.66813,190.35519 v 1.98437 q -0.859896,0.57878 -1.72806,0.57878 -1.281575,0 -2.058789,-1.10795 -0.768945,-1.11621 -0.768945,-2.99309 0,-1.77767 0.79375,-2.89388 0.79375,-1.11622 2.050521,-1.11622 0.876432,0 1.72806,0.62012 v 1.96784 q -0.487826,-0.25631 -0.876433,-0.25631 -0.578776,0 -0.934309,0.47128 -0.355534,0.46302 -0.355534,1.24024 0,0.81855 0.347265,1.28984 0.347266,0.47129 0.942578,0.47129 0.363802,0 0.859896,-0.25631 z"
         style="font-style:normal;font-variant:normal;font-weight:normal;font-stretch:normal;font-family:'Tw Cen MT Condensed Extra Bold';-inkscape-font-specification:'Tw Cen MT Condensed Extra Bold, ';text-align:center;text-anchor:middle;stroke-width:0.26458332"
         id="path12743" />
      <path
         d="m 86.040658,185.07179 h 2.406054 v 4.89479 q 0,0.38034 0.173633,0.63665 0.181901,0.24805 0.487826,0.24805 0.694531,0 0.694531,-1.01699 v -4.7625 h 2.406055 v 4.40696 q 0,1.67845 -0.785482,2.57142 -0.785482,0.8847 -2.265495,0.8847 -1.653646,0 -2.389518,-0.9095 -0.727604,-0.90951 -0.727604,-2.27376 z"
         style="font-style:normal;font-variant:normal;font-weight:normal;font-stretch:normal;font-family:'Tw Cen MT Condensed Extra Bold';-inkscape-font-specification:'Tw Cen MT Condensed Extra Bold, ';text-align:center;text-anchor:middle;stroke-width:0.26458332"
         id="path12745" />
      <path
         d="m 94.002962,181.02862 h 2.397786 v 4.96094 h 0.04134 q 0.438216,-0.60358 0.818554,-0.8847 0.388607,-0.28112 0.992188,-0.28112 1.008724,0 1.686718,1.05833 0.678,1.05007 0.678,3.01791 0,1.81901 -0.653195,2.92695 -0.644922,1.10794 -1.67845,1.10794 -1.07487,0 -1.843815,-1.24023 h -0.04134 v 0.98392 h -2.397786 z m 4.233333,7.80521 q 0,-1.89342 -0.967383,-1.89342 -0.868164,0 -0.868164,1.82728 0,1.05006 0.223243,1.53789 0.23151,0.47955 0.727604,0.47955 0.8847,0 0.8847,-1.9513 z"
         style="font-style:normal;font-variant:normal;font-weight:normal;font-stretch:normal;font-family:'Tw Cen MT Condensed Extra Bold';-inkscape-font-specification:'Tw Cen MT Condensed Extra Bold, ';text-align:center;text-anchor:middle;stroke-width:0.26458332"
         id="path12747" />
      <path
         d="m 104.90049,184.8072 q 1.64537,0 2.50527,1.09968 0.85989,1.09141 0.85989,3.04271 0,1.90996 -0.89296,2.96002 -0.89297,1.0418 -2.4722,1.0418 -1.51309,0 -2.40606,-1.0666 -0.8847,-1.0666 -0.8847,-2.93522 0,-1.9513 0.84336,-3.04271 0.85163,-1.09968 2.4474,-1.09968 z m 0.0165,5.99447 q 0.47129,0 0.7028,-0.43822 0.23978,-0.43821 0.23978,-1.49655 0,-1.05006 -0.23151,-1.47174 -0.23151,-0.42168 -0.69453,-0.42168 -0.45475,0 -0.69453,0.41341 -0.23978,0.40515 -0.23978,1.49655 0,1.91823 0.91777,1.91823 z"
         style="font-style:normal;font-variant:normal;font-weight:normal;font-stretch:normal;font-family:'Tw Cen MT Condensed Extra Bold';-inkscape-font-specification:'Tw Cen MT Condensed Extra Bold, ';text-align:center;text-anchor:middle;stroke-width:0.26458332"
         id="path12749" />
      <path
         d="m 113.80537,190.35519 v 1.98437 q -0.8599,0.57878 -1.72806,0.57878 -1.28158,0 -2.05879,-1.10795 -0.76895,-1.11621 -0.76895,-2.99309 0,-1.77767 0.79375,-2.89388 0.79375,-1.11622 2.05052,-1.11622 0.87644,0 1.72806,0.62012 v 1.96784 q -0.48782,-0.25631 -0.87643,-0.25631 -0.57877,0 -0.93431,0.47128 -0.35553,0.46302 -0.35553,1.24024 0,0.81855 0.34726,1.28984 0.34727,0.47129 0.94258,0.47129 0.3638,0 0.8599,-0.25631 z"
         style="font-style:normal;font-variant:normal;font-weight:normal;font-stretch:normal;font-family:'Tw Cen MT Condensed Extra Bold';-inkscape-font-specification:'Tw Cen MT Condensed Extra Bold, ';text-align:center;text-anchor:middle;stroke-width:0.26458332"
         id="path12751" />
      <path
         d="m 115.53343,183.04607 h 2.40605 v 2.02572 h 0.93431 v 2.00091 h -0.95084 v 5.60586 h -2.38952 v -5.6224 h -0.90951 v -1.98437 h 0.90951 z"
         style="font-style:normal;font-variant:normal;font-weight:normal;font-stretch:normal;font-family:'Tw Cen MT Condensed Extra Bold';-inkscape-font-specification:'Tw Cen MT Condensed Extra Bold, ';text-align:center;text-anchor:middle;stroke-width:0.26458332"
         id="path12753" />
      <path
         d="m 122.9583,184.8072 q 1.64537,0 2.50527,1.09968 0.8599,1.09141 0.8599,3.04271 0,1.90996 -0.89297,2.96002 -0.89297,1.0418 -2.4722,1.0418 -1.51309,0 -2.40606,-1.0666 -0.8847,-1.0666 -0.8847,-2.93522 0,-1.9513 0.84336,-3.04271 0.85163,-1.09968 2.4474,-1.09968 z m 0.0165,5.99447 q 0.47129,0 0.7028,-0.43822 0.23978,-0.43821 0.23978,-1.49655 0,-1.05006 -0.23151,-1.47174 -0.23151,-0.42168 -0.69453,-0.42168 -0.45475,0 -0.69453,0.41341 -0.23978,0.40515 -0.23978,1.49655 0,1.91823 0.91777,1.91823 z"
         style="font-style:normal;font-variant:normal;font-weight:normal;font-stretch:normal;font-family:'Tw Cen MT Condensed Extra Bold';-inkscape-font-specification:'Tw Cen MT Condensed Extra Bold, ';text-align:center;text-anchor:middle;stroke-width:0.26458332"
         id="path12755" />
      <path
         d="m 127.73734,181.02862 h 2.39778 v 5.02709 h 0.0413 q 0.88471,-1.23197 2.04226,-1.23197 0.82682,0 1.28157,0.5457 0.46302,0.53744 0.46302,1.52136 v 5.78776 h -2.40605 v -4.63848 q 0,-0.44648 -0.1819,-0.69453 -0.17364,-0.25631 -0.48783,-0.25631 -0.75241,0 -0.75241,1.01699 v 4.57233 h -2.39778 z"
         style="font-style:normal;font-variant:normal;font-weight:normal;font-stretch:normal;font-family:'Tw Cen MT Condensed Extra Bold';-inkscape-font-specification:'Tw Cen MT Condensed Extra Bold, ';text-align:center;text-anchor:middle;stroke-width:0.26458332"
         id="path12757" />
      <path
         d="m 139.31285,190.35519 h 2.02572 q -0.57878,2.56315 -2.89388,2.56315 -1.44694,0 -2.2903,-1.09968 -0.84336,-1.09967 -0.84336,-3.03444 0,-1.80247 0.84336,-2.88561 0.84336,-1.09141 2.24069,-1.09141 0.84336,0 1.62057,0.52917 0.77721,0.5209 1.13275,1.38906 0.35553,0.86817 0.39687,2.73679 h -4.01009 q 0.0496,1.69498 0.94258,1.69498 0.30592,0 0.5457,-0.22324 0.23978,-0.22324 0.28939,-0.57877 z m -1.7446,-2.19935 h 1.7446 q -0.0248,-0.80202 -0.22324,-1.18236 -0.19844,-0.38861 -0.62839,-0.38861 -0.47955,0 -0.68626,0.37207 -0.20671,0.37207 -0.20671,1.1989 z"
         style="font-style:normal;font-variant:normal;font-weight:normal;font-stretch:normal;font-family:'Tw Cen MT Condensed Extra Bold';-inkscape-font-specification:'Tw Cen MT Condensed Extra Bold, ';text-align:center;text-anchor:middle;stroke-width:0.26458332"
         id="path12759" />
      <path
         d="m 146.73772,181.02862 h 2.38952 v 11.64994 h -2.40605 v -1.00046 h -0.0331 q -0.80202,1.25677 -1.81075,1.25677 -1.05833,0 -1.71152,-1.10794 -0.64492,-1.10794 -0.64492,-2.96003 0,-1.84381 0.66146,-2.94348 0.66145,-1.09968 1.74459,-1.09968 0.98392,0 1.81074,1.13275 z m 0,7.78868 q 0,-1.87689 -0.9095,-1.87689 -0.93431,0 -0.93431,1.99264 0,0.8847 0.24805,1.37253 0.25631,0.47955 0.7028,0.47955 0.41341,0 0.65319,-0.51263 0.23977,-0.51263 0.23977,-1.4552 z"
         style="font-style:normal;font-variant:normal;font-weight:normal;font-stretch:normal;font-family:'Tw Cen MT Condensed Extra Bold';-inkscape-font-specification:'Tw Cen MT Condensed Extra Bold, ';text-align:center;text-anchor:middle;stroke-width:0.26458332"
         id="path12761" />
      <path
         d="m 153.25308,185.07179 v 1.27331 h 0.0331 q 0.85989,-1.48829 1.81074,-1.48829 0.14056,0 0.3886,0.0496 v 2.35645 q -0.43821,-0.0744 -0.81028,-0.0744 -1.32292,0 -1.32292,1.71153 v 3.77858 h -2.39778 v -7.60677 z"
         style="font-style:normal;font-variant:normal;font-weight:normal;font-stretch:normal;font-family:'Tw Cen MT Condensed Extra Bold';-inkscape-font-specification:'Tw Cen MT Condensed Extra Bold, ';text-align:center;text-anchor:middle;stroke-width:0.26458332"
         id="path12763" />
      <path
         d="m 159.63616,184.8072 q 1.64538,0 2.50527,1.09968 0.8599,1.09141 0.8599,3.04271 0,1.90996 -0.89297,2.96002 -0.89297,1.0418 -2.4722,1.0418 -1.51308,0 -2.40605,-1.0666 -0.8847,-1.0666 -0.8847,-2.93522 0,-1.9513 0.84336,-3.04271 0.85162,-1.09968 2.44739,-1.09968 z m 0.0165,5.99447 q 0.47129,0 0.7028,-0.43822 0.23978,-0.43821 0.23978,-1.49655 0,-1.05006 -0.23151,-1.47174 -0.23151,-0.42168 -0.69454,-0.42168 -0.45475,0 -0.69453,0.41341 -0.23978,0.40515 -0.23978,1.49655 0,1.91823 0.91778,1.91823 z"
         style="font-style:normal;font-variant:normal;font-weight:normal;font-stretch:normal;font-family:'Tw Cen MT Condensed Extra Bold';-inkscape-font-specification:'Tw Cen MT Condensed Extra Bold, ';text-align:center;text-anchor:middle;stroke-width:0.26458332"
         id="path12765" />
      <path
         d="m 166.81298,185.07179 v 1.03353 h 0.0413 q 0.84336,-1.28158 2.05879,-1.28158 0.79375,0 1.25677,0.52917 0.47129,0.52916 0.47129,1.4304 v 5.89525 h -2.40605 v -4.68809 q 0,-0.3886 -0.18191,-0.63665 -0.1819,-0.24805 -0.47128,-0.24805 -0.76895,0 -0.76895,0.96738 v 4.60541 h -2.39779 v -7.60677 z"
         style="font-style:normal;font-variant:normal;font-weight:normal;font-stretch:normal;font-family:'Tw Cen MT Condensed Extra Bold';-inkscape-font-specification:'Tw Cen MT Condensed Extra Bold, ';text-align:center;text-anchor:middle;stroke-width:0.26458332"
         id="path12767" />
    </g>
    <path
       sodipodi:type="star"
       style="opacity:1;fill:none;fill-opacity:1;stroke:#000000;stroke-width:1.5;stroke-miterlimit:4;stroke-dasharray:none;stroke-dashoffset:0;stroke-opacity:1"
       id="path11029"
       sodipodi:sides="3"
       sodipodi:cx="105.84122"
       sodipodi:cy="121.48374"
       sodipodi:r1="27.072981"
       sodipodi:r2="13.536491"
       sodipodi:arg1="-1.5707963"
       sodipodi:arg2="-0.52359878"
       inkscape:flatsided="true"
       inkscape:rounded="0"
       inkscape:randomized="0"
       d="m 105.84122,94.410761 23.44589,40.609469 -46.891783,0 z"
       inkscape:transform-center-y="-6.7682464" />
    <path
       style="fill:none;stroke:#000000;stroke-width:1.5;stroke-linecap:butt;stroke-linejoin:miter;stroke-miterlimit:4;stroke-dasharray:none;stroke-opacity:1;stroke-dashoffset:0"
       d="M 105.84125,94.410766 78.152944,80.849516 56.617619,117.15192 82.395342,135.02023"
       id="path11031"
       inkscape:connector-curvature="0"
       sodipodi:nodetypes="cccc" />
    <path
       sodipodi:nodetypes="cccc"
       inkscape:connector-curvature="0"
       id="path11033"
       d="m 82.395342,135.02023 2.099756,30.75939 42.514142,0.4165 2.2779,-31.17589"
       style="fill:none;stroke:#000000;stroke-width:1.5;stroke-linecap:butt;stroke-linejoin:miter;stroke-miterlimit:4;stroke-dasharray:none;stroke-opacity:1;stroke-dashoffset:0" />
    <path
       style="fill:none;stroke:#000000;stroke-width:1.5;stroke-linecap:butt;stroke-linejoin:miter;stroke-miterlimit:4;stroke-dasharray:none;stroke-opacity:1;stroke-dashoffset:0"
       d="m 129.28714,135.02023 24.97323,-17.19813 -19.7482,-37.334204 -28.67092,13.92287"
       id="path11035"
       inkscape:connector-curvature="0"
       sodipodi:nodetypes="cccc" />
    <path
       style="fill:none;stroke:#000000;stroke-width:1.5;stroke-linecap:butt;stroke-linejoin:miter;stroke-miterlimit:4;stroke-dasharray:none;stroke-opacity:1;stroke-dashoffset:0"
       d="m 78.152943,80.849515 27.688297,-7.998836 28.67093,7.637215"
       id="path11037"
       inkscape:connector-curvature="0"
       sodipodi:nodetypes="ccc" />
    <path
       inkscape:connector-curvature="0"
       id="path11039"
       d="M 85.110391,165.77962 65.344436,146.64079 56.617619,117.15192"
       style="fill:none;stroke:#000000;stroke-width:1.5;stroke-linecap:butt;stroke-linejoin:miter;stroke-miterlimit:4;stroke-dasharray:none;stroke-opacity:1;stroke-dashoffset:0"
       sodipodi:nodetypes="ccc" />
    <path
       style="fill:none;stroke:#000000;stroke-width:1.5;stroke-linecap:butt;stroke-linejoin:miter;stroke-miterlimit:4;stroke-dasharray:none;stroke-opacity:1;stroke-dashoffset:0"
       d="m 154.26037,117.8221 -7.30703,28.36825 -20.5594,20.62106"
       id="path11041"
       inkscape:connector-curvature="0"
       sodipodi:nodetypes="ccc" />
    <path
       style="fill:none;stroke:#000000;stroke-width:1.5;stroke-linecap:butt;stroke-linejoin:miter;stroke-miterlimit:4;stroke-dasharray:none;stroke-opacity:1;stroke-dashoffset:0"
       d="M 78.152943,80.849515 60.924683,95.616598 56.617619,117.15192"
       id="path11043"
       inkscape:connector-curvature="0" />
    <path
       inkscape:connector-curvature="0"
       id="path11045"
       d="m 84.802754,165.69718 21.402816,7.53657 20.80367,-7.03763"
       style="fill:none;stroke:#000000;stroke-width:1.5;stroke-linecap:butt;stroke-linejoin:miter;stroke-miterlimit:4;stroke-dasharray:none;stroke-opacity:1;stroke-dashoffset:0" />
    <path
       style="fill:none;stroke:#000000;stroke-width:1.5;stroke-linecap:butt;stroke-linejoin:miter;stroke-miterlimit:4;stroke-dasharray:none;stroke-opacity:1;stroke-dashoffset:0"
       d="M 155.18331,117.28923 151.00878,94.985583 134.51217,80.487896"
       id="path11047"
       inkscape:connector-curvature="0" />
    <path
       style="fill:none;stroke:#000000;stroke-width:1.50000004;stroke-linecap:butt;stroke-linejoin:miter;stroke-miterlimit:4;stroke-dasharray:3.00000008,3.00000008;stroke-dashoffset:0;stroke-opacity:1"
       d="m 105.84124,72.850678 -14.7671,13.536493 h 29.53418 z"
       id="path11049"
       inkscape:connector-curvature="0" />
    <path
       inkscape:connector-curvature="0"
       id="path11051"
       d="M 65.344436,146.64079 84.450924,152.66122 69.68384,127.08387 Z"
       style="fill:none;stroke:#000000;stroke-width:1.50000004;stroke-linecap:butt;stroke-linejoin:miter;stroke-miterlimit:4;stroke-dasharray:3.00000008,3.00000008;stroke-dashoffset:0;stroke-opacity:1" />
    <path
       style="fill:none;stroke:#000000;stroke-width:1.50000004;stroke-linecap:butt;stroke-linejoin:miter;stroke-miterlimit:4;stroke-dasharray:3.00000008,3.00000008;stroke-dashoffset:0;stroke-opacity:1"
       d="m 146.95334,146.19035 -4.3394,-19.55692 -14.76709,25.57735 z"
       id="path11053"
       inkscape:connector-curvature="0" />
    <path
       style="fill:none;stroke:#000000;stroke-width:1.50000004;stroke-linecap:butt;stroke-linejoin:miter;stroke-miterlimit:4;stroke-dasharray:3.00000008,3.00000008;stroke-dashoffset:0;stroke-opacity:1"
       d="M 91.07414,86.387171 60.924683,95.616598 69.68384,127.08387 93.53532,114.69075 Z"
       id="path11055"
       inkscape:connector-curvature="0"
       sodipodi:nodetypes="ccccc" />
    <path
       inkscape:connector-curvature="0"
       id="path11057"
       d="m 84.450924,152.66122 21.754646,20.57253 21.64128,-21.02297 -21.87834,-16.75573 z"
       style="fill:none;stroke:#000000;stroke-width:1.50000004;stroke-linecap:butt;stroke-linejoin:miter;stroke-miterlimit:4;stroke-dasharray:3.00000008,3.00000008;stroke-dashoffset:0;stroke-opacity:1"
       sodipodi:nodetypes="ccccc" />
    <path
       sodipodi:nodetypes="ccccc"
       style="fill:none;stroke:#000000;stroke-width:1.50000004;stroke-linecap:butt;stroke-linejoin:miter;stroke-miterlimit:4;stroke-dasharray:3.00000008,3.00000008;stroke-dashoffset:0;stroke-opacity:1"
       d="M 142.69638,123.7439 149.6354,94.617582 120.60832,86.387171 117.0366,113.71223 Z"
       id="path11059"
       inkscape:connector-curvature="0" />
    <path
       style="fill:none;stroke:#000000;stroke-width:1.50000004;stroke-linecap:butt;stroke-linejoin:miter;stroke-miterlimit:4;stroke-dasharray:3.00000008,3.00000008;stroke-dashoffset:0;stroke-opacity:1"
       d="m 93.53532,114.69075 23.50128,-0.97852 -11.06809,21.74282 z"
       id="path11061"
       inkscape:connector-curvature="0" />
  </g>
</svg>
