<?xml version="1.0" encoding="UTF-8" standalone="no"?>
<!-- Created with Inkscape (http://www.inkscape.org/) -->

<svg
   xmlns:dc="http://purl.org/dc/elements/1.1/"
   xmlns:cc="http://creativecommons.org/ns#"
   xmlns:rdf="http://www.w3.org/1999/02/22-rdf-syntax-ns#"
   xmlns:svg="http://www.w3.org/2000/svg"
   xmlns="http://www.w3.org/2000/svg"
   xmlns:sodipodi="http://sodipodi.sourceforge.net/DTD/sodipodi-0.dtd"
   xmlns:inkscape="http://www.inkscape.org/namespaces/inkscape"
   width="142.10715mm"
   height="182.17261mm"
   viewBox="0 0 142.10715 182.17261"
   version="1.1"
   id="svg8"
   inkscape:version="0.92.4 (5da689c313, 2019-01-14)"
   sodipodi:docname="snub disphenoid.svg">
  <defs
     id="defs2" />
  <sodipodi:namedview
     id="base"
     pagecolor="#ffffff"
     bordercolor="#666666"
     borderopacity="1.0"
     inkscape:pageopacity="0.0"
     inkscape:pageshadow="2"
     inkscape:zoom="0.56792311"
     inkscape:cx="-73.926998"
     inkscape:cy="344.2632"
     inkscape:document-units="mm"
     inkscape:current-layer="layer1"
     showgrid="false"
     inkscape:window-width="1366"
     inkscape:window-height="705"
     inkscape:window-x="-8"
     inkscape:window-y="-8"
     inkscape:window-maximized="1"
     inkscape:snap-global="true" />
  <metadata
     id="metadata5">
    <rdf:RDF>
      <cc:Work
         rdf:about="">
        <dc:format>image/svg+xml</dc:format>
        <dc:type
           rdf:resource="http://purl.org/dc/dcmitype/StillImage" />
        <dc:title />
      </cc:Work>
    </rdf:RDF>
  </metadata>
  <g
     inkscape:label="Layer 1"
     inkscape:groupmode="layer"
     id="layer1"
     transform="translate(-34.779762,-52.07737)">
    <g
       aria-label="Snub Disphenoid"
       style="font-style:normal;font-variant:normal;font-weight:normal;font-stretch:normal;font-size:16.93333244px;line-height:1.25;font-family:'Tw Cen MT Condensed Extra Bold';-inkscape-font-specification:'Tw Cen MT Condensed Extra Bold, ';text-align:center;letter-spacing:0px;word-spacing:0px;text-anchor:middle;fill:#000000;fill-opacity:1;stroke:none;stroke-width:0.26458332"
       id="text827">
      <path
         d="m 54.034342,192.47185 v -2.57142 q 1.190625,0.69453 2.000911,0.69453 0.471289,0 0.744141,-0.25631 0.272851,-0.26458 0.272851,-0.69453 0,-0.33073 -0.223242,-0.62012 -0.214974,-0.28939 -0.752409,-0.7028 -1.298112,-0.99219 -1.885156,-1.84381 -0.578776,-0.8599 -0.578776,-1.90996 0,-1.43041 0.901237,-2.33164 0.901237,-0.90124 2.33164,-0.90124 1.058334,0 2.10013,0.45475 v 2.4722 q -1.11621,-0.61185 -1.810742,-0.61185 -0.46302,0 -0.735872,0.23151 -0.264583,0.22325 -0.264583,0.62012 0,0.69453 1.248502,1.5627 0.744141,0.51263 1.504818,1.44694 0.768945,0.92604 0.768945,2.14973 0,1.43041 -1.000456,2.37299 -1.000455,0.93431 -2.538346,0.93431 -1.050065,0 -2.083593,-0.4961 z"
         style="font-style:normal;font-variant:normal;font-weight:normal;font-stretch:normal;font-size:16.93333244px;font-family:'Tw Cen MT Condensed Extra Bold';-inkscape-font-specification:'Tw Cen MT Condensed Extra Bold, ';text-align:center;text-anchor:middle;fill:#000000;stroke-width:0.26458332"
         id="path15171" />
      <path
         d="m 63.575877,185.07179 v 1.03353 h 0.04134 q 0.843359,-1.28158 2.058789,-1.28158 0.79375,0 1.25677,0.52917 0.471289,0.52916 0.471289,1.4304 v 5.89525 h -2.406054 v -4.68809 q 0,-0.3886 -0.181901,-0.63665 -0.181901,-0.24805 -0.471289,-0.24805 -0.768946,0 -0.768946,0.96738 v 4.60541 h -2.397786 v -7.60677 z"
         style="font-style:normal;font-variant:normal;font-weight:normal;font-stretch:normal;font-size:16.93333244px;font-family:'Tw Cen MT Condensed Extra Bold';-inkscape-font-specification:'Tw Cen MT Condensed Extra Bold, ';text-align:center;text-anchor:middle;fill:#000000;stroke-width:0.26458332"
         id="path15173" />
      <path
         d="m 69.123858,185.07179 h 2.406055 v 4.89479 q 0,0.38034 0.173633,0.63665 0.181901,0.24805 0.487825,0.24805 0.694532,0 0.694532,-1.01699 v -4.7625 h 2.406054 v 4.40696 q 0,1.67845 -0.785482,2.57142 -0.785481,0.8847 -2.265494,0.8847 -1.653646,0 -2.389518,-0.9095 -0.727605,-0.90951 -0.727605,-2.27376 z"
         style="font-style:normal;font-variant:normal;font-weight:normal;font-stretch:normal;font-size:16.93333244px;font-family:'Tw Cen MT Condensed Extra Bold';-inkscape-font-specification:'Tw Cen MT Condensed Extra Bold, ';text-align:center;text-anchor:middle;fill:#000000;stroke-width:0.26458332"
         id="path15175" />
      <path
         d="m 77.086163,181.02862 h 2.397786 v 4.96094 h 0.04134 q 0.438216,-0.60358 0.818555,-0.8847 0.388607,-0.28112 0.992187,-0.28112 1.008724,0 1.686719,1.05833 0.677995,1.05007 0.677995,3.01791 0,1.81901 -0.65319,2.92695 -0.644922,1.10794 -1.678451,1.10794 -1.07487,0 -1.843815,-1.24023 h -0.04134 v 0.98392 h -2.397786 z m 4.233333,7.80521 q 0,-1.89342 -0.967383,-1.89342 -0.868164,0 -0.868164,1.82728 0,1.05006 0.223242,1.53789 0.231511,0.47955 0.727604,0.47955 0.884701,0 0.884701,-1.9513 z"
         style="font-style:normal;font-variant:normal;font-weight:normal;font-stretch:normal;font-size:16.93333244px;font-family:'Tw Cen MT Condensed Extra Bold';-inkscape-font-specification:'Tw Cen MT Condensed Extra Bold, ';text-align:center;text-anchor:middle;fill:#000000;stroke-width:0.26458332"
         id="path15177" />
      <path
         d="m 89.554651,181.64047 h 2.339909 q 2.430859,0 3.695898,1.38907 1.265039,1.38079 1.265039,4.04316 0,2.01745 -0.628385,3.25768 -0.620117,1.24024 -1.744597,1.79421 -1.11621,0.55397 -2.4722,0.55397 h -2.455664 z m 2.505273,2.34818 v 6.33346 q 1.141016,-0.0992 1.612305,-0.80202 0.471289,-0.71106 0.471289,-2.33164 0,-0.95911 -0.165365,-1.62057 -0.165364,-0.66972 -0.496093,-1.02526 -0.322461,-0.3638 -0.636654,-0.44648 -0.305924,-0.0827 -0.785482,-0.10749 z"
         style="font-style:normal;font-variant:normal;font-weight:normal;font-stretch:normal;font-size:16.93333244px;font-family:'Tw Cen MT Condensed Extra Bold';-inkscape-font-specification:'Tw Cen MT Condensed Extra Bold, ';text-align:center;text-anchor:middle;fill:#000000;stroke-width:0.26458332"
         id="path15179" />
      <path
         d="m 98.285902,182.78976 q 0,-0.52917 0.37207,-0.90124 0.372071,-0.37207 0.892969,-0.37207 0.529169,0 0.901239,0.37207 0.37207,0.37207 0.37207,0.90124 0,0.5209 -0.37207,0.90123 -0.37207,0.37207 -0.901239,0.37207 -0.51263,0 -0.892969,-0.37207 -0.37207,-0.38033 -0.37207,-0.90123 z m 0.06615,2.28203 h 2.406052 v 7.60677 h -2.406052 z"
         style="font-style:normal;font-variant:normal;font-weight:normal;font-stretch:normal;font-size:16.93333244px;font-family:'Tw Cen MT Condensed Extra Bold';-inkscape-font-specification:'Tw Cen MT Condensed Extra Bold, ';text-align:center;text-anchor:middle;fill:#000000;stroke-width:0.26458332"
         id="path15181" />
      <path
         d="m 102.93265,190.22289 q 1.23196,0.72761 1.77766,0.72761 0.29766,0 0.4961,-0.14883 0.19844,-0.1571 0.19844,-0.37207 0,-0.23151 -0.16537,-0.339 -0.16536,-0.10748 -1.24023,-0.57877 -0.8599,-0.38034 -1.24024,-0.89297 -0.38034,-0.5209 -0.38034,-1.28985 0,-1.09967 0.75241,-1.81074 0.76068,-0.71107 1.93477,-0.71107 1.14101,0 2.79466,0.90951 l -0.92604,1.71152 q -1.07487,-0.66146 -1.76113,-0.66146 -0.59532,0 -0.59532,0.47956 0,0.23151 0.21498,0.40515 0.22324,0.16536 0.80202,0.37207 1.08313,0.38033 1.57096,0.9095 0.49609,0.52917 0.49609,1.33945 0,1.15756 -0.77721,1.9017 -0.77721,0.74414 -1.98438,0.74414 -1.30638,0 -2.79466,-0.91778 z"
         style="font-style:normal;font-variant:normal;font-weight:normal;font-stretch:normal;font-size:16.93333244px;font-family:'Tw Cen MT Condensed Extra Bold';-inkscape-font-specification:'Tw Cen MT Condensed Extra Bold, ';text-align:center;text-anchor:middle;fill:#000000;stroke-width:0.26458332"
         id="path15183" />
      <path
         d="m 111.5316,185.07179 v 0.96738 h 0.0414 q 0.80201,-1.18236 1.81074,-1.18236 1.08314,0 1.73633,1.10795 0.66145,1.09967 0.66145,2.96829 0,1.80247 -0.67799,2.91042 -0.66973,1.10794 -1.71979,1.10794 -1.10795,0 -1.81074,-1.27331 h -0.0414 v 4.13412 h -2.39778 v -10.74043 z m 1.85209,3.77858 q 0,-1.87689 -0.95085,-1.87689 -0.90124,0 -0.90124,1.89342 0,1.95131 0.90124,1.95131 0.95085,0 0.95085,-1.96784 z"
         style="font-style:normal;font-variant:normal;font-weight:normal;font-stretch:normal;font-size:16.93333244px;font-family:'Tw Cen MT Condensed Extra Bold';-inkscape-font-specification:'Tw Cen MT Condensed Extra Bold, ';text-align:center;text-anchor:middle;fill:#000000;stroke-width:0.26458332"
         id="path15185" />
      <path
         d="m 117.20361,181.02862 h 2.39778 v 5.02709 h 0.0414 q 0.8847,-1.23197 2.04225,-1.23197 0.82682,0 1.28157,0.5457 0.46302,0.53744 0.46302,1.52136 v 5.78776 h -2.40605 v -4.63848 q 0,-0.44648 -0.1819,-0.69453 -0.17363,-0.25631 -0.48783,-0.25631 -0.75241,0 -0.75241,1.01699 v 4.57233 h -2.39778 z"
         style="font-style:normal;font-variant:normal;font-weight:normal;font-stretch:normal;font-size:16.93333244px;font-family:'Tw Cen MT Condensed Extra Bold';-inkscape-font-specification:'Tw Cen MT Condensed Extra Bold, ';text-align:center;text-anchor:middle;fill:#000000;stroke-width:0.26458332"
         id="path15187" />
      <path
         d="m 128.77913,190.35519 h 2.02571 q -0.57877,2.56315 -2.89388,2.56315 -1.44694,0 -2.2903,-1.09968 -0.84336,-1.09967 -0.84336,-3.03444 0,-1.80247 0.84336,-2.88561 0.84336,-1.09141 2.24069,-1.09141 0.84336,0 1.62057,0.52917 0.77722,0.5209 1.13275,1.38906 0.35554,0.86817 0.39688,2.73679 h -4.01009 q 0.0496,1.69498 0.94257,1.69498 0.30593,0 0.54571,-0.22324 0.23978,-0.22324 0.28939,-0.57877 z m -1.7446,-2.19935 h 1.7446 q -0.0248,-0.80202 -0.22325,-1.18236 -0.19843,-0.38861 -0.62838,-0.38861 -0.47956,0 -0.68627,0.37207 -0.2067,0.37207 -0.2067,1.1989 z"
         style="font-style:normal;font-variant:normal;font-weight:normal;font-stretch:normal;font-size:16.93333244px;font-family:'Tw Cen MT Condensed Extra Bold';-inkscape-font-specification:'Tw Cen MT Condensed Extra Bold, ';text-align:center;text-anchor:middle;fill:#000000;stroke-width:0.26458332"
         id="path15189" />
      <path
         d="m 134.81494,185.07179 v 1.03353 h 0.0413 q 0.84336,-1.28158 2.05879,-1.28158 0.79375,0 1.25677,0.52917 0.47129,0.52916 0.47129,1.4304 v 5.89525 h -2.40606 v -4.68809 q 0,-0.3886 -0.1819,-0.63665 -0.1819,-0.24805 -0.47129,-0.24805 -0.76894,0 -0.76894,0.96738 v 4.60541 h -2.39779 v -7.60677 z"
         style="font-style:normal;font-variant:normal;font-weight:normal;font-stretch:normal;font-size:16.93333244px;font-family:'Tw Cen MT Condensed Extra Bold';-inkscape-font-specification:'Tw Cen MT Condensed Extra Bold, ';text-align:center;text-anchor:middle;fill:#000000;stroke-width:0.26458332"
         id="path15191" />
      <path
         d="m 143.2816,184.8072 q 1.64537,0 2.50527,1.09968 0.8599,1.09141 0.8599,3.04271 0,1.90996 -0.89297,2.96002 -0.89297,1.0418 -2.4722,1.0418 -1.51309,0 -2.40606,-1.0666 -0.8847,-1.0666 -0.8847,-2.93522 0,-1.9513 0.84336,-3.04271 0.85163,-1.09968 2.4474,-1.09968 z m 0.0165,5.99447 q 0.47129,0 0.7028,-0.43822 0.23978,-0.43821 0.23978,-1.49655 0,-1.05006 -0.23151,-1.47174 -0.23151,-0.42168 -0.69453,-0.42168 -0.45475,0 -0.69453,0.41341 -0.23978,0.40515 -0.23978,1.49655 0,1.91823 0.91777,1.91823 z"
         style="font-style:normal;font-variant:normal;font-weight:normal;font-stretch:normal;font-size:16.93333244px;font-family:'Tw Cen MT Condensed Extra Bold';-inkscape-font-specification:'Tw Cen MT Condensed Extra Bold, ';text-align:center;text-anchor:middle;fill:#000000;stroke-width:0.26458332"
         id="path15193" />
      <path
         d="m 148.06064,182.78976 q 0,-0.52917 0.37207,-0.90124 0.37207,-0.37207 0.89297,-0.37207 0.52916,0 0.90123,0.37207 0.37207,0.37207 0.37207,0.90124 0,0.5209 -0.37207,0.90123 -0.37207,0.37207 -0.90123,0.37207 -0.51263,0 -0.89297,-0.37207 -0.37207,-0.38033 -0.37207,-0.90123 z m 0.0661,2.28203 h 2.40606 v 7.60677 h -2.40606 z"
         style="font-style:normal;font-variant:normal;font-weight:normal;font-stretch:normal;font-size:16.93333244px;font-family:'Tw Cen MT Condensed Extra Bold';-inkscape-font-specification:'Tw Cen MT Condensed Extra Bold, ';text-align:center;text-anchor:middle;fill:#000000;stroke-width:0.26458332"
         id="path15195" />
      <path
         d="m 156.21311,181.02862 h 2.38952 v 11.64994 h -2.40606 v -1.00046 h -0.0331 q -0.80202,1.25677 -1.81074,1.25677 -1.05834,0 -1.71153,-1.10794 -0.64492,-1.10794 -0.64492,-2.96003 0,-1.84381 0.66146,-2.94348 0.66146,-1.09968 1.7446,-1.09968 0.98392,0 1.81074,1.13275 z m 0,7.78868 q 0,-1.87689 -0.90951,-1.87689 -0.93431,0 -0.93431,1.99264 0,0.8847 0.24805,1.37253 0.25632,0.47955 0.7028,0.47955 0.41341,0 0.65319,-0.51263 0.23978,-0.51263 0.23978,-1.4552 z"
         style="font-style:normal;font-variant:normal;font-weight:normal;font-stretch:normal;font-size:16.93333244px;font-family:'Tw Cen MT Condensed Extra Bold';-inkscape-font-specification:'Tw Cen MT Condensed Extra Bold, ';text-align:center;text-anchor:middle;fill:#000000;stroke-width:0.26458332"
         id="path15197" />
    </g>
    <path
       style="fill:none;stroke:#000000;stroke-width:1.5;stroke-linecap:butt;stroke-linejoin:miter;stroke-miterlimit:4;stroke-dasharray:none;stroke-opacity:1;stroke-dashoffset:0"
       d="m 140.97638,92.900333 -59.544502,14.711017 50.437702,30.1225 z"
       id="path11755"
       inkscape:connector-curvature="0" />
    <path
       style="fill:none;stroke:#000000;stroke-width:1.5;stroke-linecap:butt;stroke-linejoin:miter;stroke-miterlimit:4;stroke-dasharray:none;stroke-opacity:1;stroke-dashoffset:0"
       d="m 81.431878,107.61135 14.01047,56.04187 36.427232,-25.91937"
       id="path11757"
       inkscape:connector-curvature="0" />
    <path
       style="fill:none;stroke:#000000;stroke-width:1.5;stroke-linecap:butt;stroke-linejoin:miter;stroke-miterlimit:4;stroke-dasharray:none;stroke-opacity:1;stroke-dashoffset:0"
       d="m 95.442348,163.65322 57.442932,-18.91414 -21.0157,-7.00523"
       id="path11759"
       inkscape:connector-curvature="0"
       sodipodi:nodetypes="ccc" />
    <path
       style="fill:none;stroke:#000000;stroke-width:1.5;stroke-linecap:butt;stroke-linejoin:miter;stroke-miterlimit:4;stroke-dasharray:none;stroke-opacity:1;stroke-dashoffset:0"
       d="m 140.97638,92.900333 11.9089,51.838747"
       id="path11761"
       inkscape:connector-curvature="0"
       sodipodi:nodetypes="cc" />
    <path
       style="fill:none;stroke:#000000;stroke-width:1.5;stroke-linecap:butt;stroke-linejoin:miter;stroke-miterlimit:4;stroke-dasharray:none;stroke-opacity:1;stroke-dashoffset:0"
       d="m 81.431878,107.61135 5.60419,-37.828291 53.940312,23.117274"
       id="path11763"
       inkscape:connector-curvature="0" />
    <path
       style="fill:none;stroke:#000000;stroke-width:1.5;stroke-linecap:butt;stroke-linejoin:miter;stroke-miterlimit:4;stroke-dasharray:none;stroke-opacity:1;stroke-dashoffset:0"
       d="M 87.036068,69.783059 56.213035,137.03332 81.431878,107.61135"
       id="path11765"
       inkscape:connector-curvature="0"
       sodipodi:nodetypes="ccc" />
    <path
       style="fill:none;stroke:#000000;stroke-width:1.5;stroke-linecap:butt;stroke-linejoin:miter;stroke-miterlimit:4;stroke-dasharray:none;stroke-opacity:1;stroke-dashoffset:0"
       d="m 56.213035,137.03332 39.229313,26.6199"
       id="path11767"
       inkscape:connector-curvature="0" />
    <path
       style="fill:none;stroke:#000000;stroke-width:1.50000004;stroke-linecap:butt;stroke-linejoin:miter;stroke-miterlimit:4;stroke-dasharray:3.00000008,3.00000008;stroke-dashoffset:0;stroke-opacity:1"
       d="M 56.213035,137.03332 122.76278,119.52025 87.036068,69.783059"
       id="path11769"
       inkscape:connector-curvature="0" />
    <path
       style="fill:none;stroke:#000000;stroke-width:1.50000004;stroke-linecap:butt;stroke-linejoin:miter;stroke-miterlimit:4;stroke-dasharray:3.00000008,3.00000008;stroke-dashoffset:0;stroke-opacity:1"
       d="m 122.76278,119.52025 18.2136,-26.619917"
       id="path11771"
       inkscape:connector-curvature="0" />
    <path
       style="fill:none;stroke:#000000;stroke-width:1.50000004;stroke-linecap:butt;stroke-linejoin:miter;stroke-miterlimit:4;stroke-dasharray:3.00000008,3.00000008;stroke-dashoffset:0;stroke-opacity:1"
       d="M 95.442348,163.65322 122.76278,119.52025"
       id="path11773"
       inkscape:connector-curvature="0" />
    <path
       style="fill:none;stroke:#000000;stroke-width:1.50000004;stroke-linecap:butt;stroke-linejoin:miter;stroke-miterlimit:4;stroke-dasharray:3.00000008,3.00000008;stroke-dashoffset:0;stroke-opacity:1"
       d="m 152.88528,144.73908 -30.1225,-25.21883"
       id="path11775"
       inkscape:connector-curvature="0" />
  </g>
</svg>
