<svg xmlns="http://www.w3.org/2000/svg" width="537.098" height="688.526" viewBox="0 0 142.107 182.173"><g aria-label="Snub Disphenoid" style="line-height:1.25;-inkscape-font-specification:'Tw Cen MT Condensed Extra Bold, ';text-align:center" font-weight="400" font-size="16.933" font-family="Tw Cen MT Condensed Extra Bold" letter-spacing="0" word-spacing="0" text-anchor="middle" stroke-width=".265"><path d="M19.255 140.394v-2.57q1.19.694 2 .694.472 0 .745-.257.272-.264.272-.694 0-.331-.223-.62-.215-.29-.752-.703-1.298-.992-1.885-1.844-.58-.86-.58-1.91 0-1.43.902-2.332.901-.9 2.332-.9 1.058 0 2.1.454v2.472q-1.116-.612-1.81-.612-.464 0-.737.232-.264.223-.264.62 0 .694 1.248 1.563.744.512 1.505 1.447.769.926.769 2.15 0 1.43-1 2.372-1 .935-2.539.935-1.05 0-2.083-.497zM28.796 132.994v1.034h.041q.844-1.282 2.06-1.282.793 0 1.256.53.471.529.471 1.43v5.895h-2.406v-4.688q0-.388-.182-.637-.182-.248-.47-.248-.77 0-.77.968v4.605h-2.398v-7.607zM34.344 132.994h2.406v4.895q0 .38.174.637.182.248.488.248.694 0 .694-1.017v-4.763h2.406v4.407q0 1.679-.785 2.572-.786.884-2.266.884-1.653 0-2.39-.909-.727-.91-.727-2.274zM42.306 128.951h2.398v4.961h.042q.438-.603.818-.885.389-.28.992-.28 1.009 0 1.687 1.058.678 1.05.678 3.018 0 1.819-.653 2.927-.645 1.108-1.679 1.108-1.075 0-1.843-1.24h-.042v.983h-2.398zm4.234 7.805q0-1.893-.968-1.893-.868 0-.868 1.827 0 1.05.223 1.538.232.48.728.48.885 0 .885-1.952zM54.775 129.563h2.34q2.43 0 3.696 1.39 1.265 1.38 1.265 4.042 0 2.018-.629 3.258-.62 1.24-1.744 1.794-1.116.554-2.472.554h-2.456zm2.505 2.348v6.334q1.141-.1 1.612-.802.472-.711.472-2.332 0-.959-.166-1.62-.165-.67-.496-1.026-.322-.364-.636-.446-.306-.083-.786-.108zM63.506 130.712q0-.529.372-.9.372-.373.893-.373.53 0 .901.372.372.372.372.901 0 .521-.372.902-.372.372-.9.372-.513 0-.894-.372-.372-.38-.372-.902zm.066 2.282h2.406v7.607h-2.406zM68.153 138.146q1.232.727 1.778.727.297 0 .496-.149.198-.157.198-.372 0-.231-.165-.339-.166-.107-1.24-.579-.86-.38-1.24-.893-.381-.52-.381-1.29 0-1.099.752-1.81.761-.711 1.935-.711 1.141 0 2.795.91l-.926 1.71q-1.075-.66-1.761-.66-.596 0-.596.479 0 .231.215.405.223.165.802.372 1.083.38 1.571.91.496.529.496 1.34 0 1.157-.777 1.9-.777.745-1.984.745-1.307 0-2.795-.918zM76.752 132.994v.968h.041q.802-1.183 1.811-1.183 1.083 0 1.736 1.108.662 1.1.662 2.969 0 1.802-.678 2.91-.67 1.108-1.72 1.108-1.108 0-1.81-1.273h-.042v4.134h-2.398v-10.74zm1.852 3.779q0-1.877-.95-1.877-.902 0-.902 1.894 0 1.95.901 1.95.95 0 .95-1.967zM82.424 128.951h2.398v5.027h.041q.885-1.232 2.042-1.232.827 0 1.282.546.463.538.463 1.521v5.788h-2.406v-4.638q0-.447-.182-.695-.174-.256-.488-.256-.752 0-.752 1.017v4.572h-2.398zM94 138.278h2.025q-.579 2.563-2.894 2.563-1.447 0-2.29-1.1t-.843-3.034q0-1.803.843-2.886.843-1.091 2.24-1.091.844 0 1.621.529.777.52 1.133 1.39.355.867.397 2.736h-4.01q.05 1.695.942 1.695.306 0 .546-.223.24-.224.29-.58zm-1.745-2.2h1.744q-.024-.802-.223-1.182-.198-.388-.628-.388-.48 0-.687.372-.206.372-.206 1.198zM100.035 132.994v1.034h.041q.844-1.282 2.06-1.282.793 0 1.256.53.471.529.471 1.43v5.895h-2.406v-4.688q0-.388-.182-.637-.182-.248-.47-.248-.77 0-.77.968v4.605h-2.398v-7.607zM108.502 132.73q1.645 0 2.505 1.1.86 1.09.86 3.042 0 1.91-.893 2.96-.893 1.042-2.472 1.042-1.513 0-2.406-1.067-.885-1.066-.885-2.935 0-1.951.843-3.042.852-1.1 2.448-1.1zm.016 5.994q.472 0 .703-.438.24-.438.24-1.496 0-1.05-.232-1.472-.231-.422-.694-.422-.455 0-.695.414-.24.405-.24 1.496 0 1.918.918 1.918zM113.28 130.712q0-.529.373-.9.372-.373.893-.373.53 0 .901.372.372.372.372.901 0 .521-.372.902-.372.372-.901.372-.513 0-.893-.372-.372-.38-.372-.902zm.067 2.282h2.406v7.607h-2.406zM121.433 128.951h2.39v11.65h-2.406v-1h-.033q-.802 1.256-1.811 1.256-1.058 0-1.712-1.107-.644-1.108-.644-2.96 0-1.844.661-2.944.661-1.1 1.745-1.1.983 0 1.81 1.133zm0 7.789q0-1.877-.91-1.877-.933 0-.933 1.993 0 .884.248 1.372.256.48.702.48.414 0 .654-.513.24-.513.24-1.455z" style="-inkscape-font-specification:'Tw Cen MT Condensed Extra Bold, ';text-align:center"/></g><path d="M106.197 40.823L46.652 55.534 97.09 85.656z" fill="none" stroke="#000" stroke-width="1.5"/><path d="M46.652 55.534l14.01 56.042 36.428-25.92M60.663 111.576l57.443-18.914-21.016-7.006M106.197 40.823l11.909 51.839M46.652 55.534l5.604-37.828 53.94 23.117" fill="none" stroke="#000" stroke-width="1.5"/><path d="M52.256 17.706l-30.823 67.25 25.22-29.422M21.433 84.956l39.23 26.62" fill="none" stroke="#000" stroke-width="1.5"/><path d="M21.433 84.956l66.55-17.513-35.727-49.737M87.983 67.443l18.214-26.62M60.663 111.576l27.32-44.133M118.106 92.662l-30.123-25.22" fill="none" stroke="#000" stroke-width="1.5" stroke-dasharray="3.00000008,3.00000008"/></svg>