<svg xmlns="http://www.w3.org/2000/svg" width="537.098" height="688.526" viewBox="0 0 142.107 182.173"><g aria-label="Spherical Wedge" style="line-height:1.25;-inkscape-font-specification:'Tw Cen MT Condensed Extra Bold, ';text-align:center" font-weight="400" font-size="16.933" font-family="Tw Cen MT Condensed Extra Bold" letter-spacing="0" word-spacing="0" text-anchor="middle" stroke-width=".265"><path d="M18.825 140.394v-2.57q1.19.694 2 .694.472 0 .745-.257.273-.264.273-.694 0-.331-.224-.62-.215-.29-.752-.703-1.298-.992-1.885-1.844-.579-.86-.579-1.91 0-1.43.901-2.332.901-.9 2.332-.9 1.058 0 2.1.454v2.472q-1.116-.612-1.81-.612-.464 0-.737.232-.264.223-.264.62 0 .694 1.248 1.563.744.512 1.505 1.447.769.926.769 2.15 0 1.43-1 2.372-1 .935-2.539.935-1.05 0-2.083-.497zM28.366 132.994v.968h.042q.802-1.183 1.81-1.183 1.083 0 1.737 1.108.661 1.1.661 2.969 0 1.802-.678 2.91-.67 1.108-1.72 1.108-1.108 0-1.81-1.273h-.042v4.134h-2.398v-10.74zm1.852 3.779q0-1.877-.95-1.877-.902 0-.902 1.894 0 1.95.901 1.95.951 0 .951-1.967zM34.038 128.951h2.398v5.027h.041q.885-1.232 2.043-1.232.826 0 1.281.546.463.538.463 1.521v5.788h-2.406v-4.638q0-.447-.182-.695-.173-.256-.488-.256-.752 0-.752 1.017v4.572h-2.398zM45.614 138.278h2.025q-.578 2.563-2.893 2.563-1.447 0-2.29-1.1-.844-1.1-.844-3.034 0-1.803.843-2.886.844-1.091 2.24-1.091.844 0 1.621.529.778.52 1.133 1.39.356.867.397 2.736h-4.01q.05 1.695.943 1.695.306 0 .545-.223.24-.224.29-.58zm-1.745-2.2h1.745q-.025-.802-.224-1.182-.198-.388-.628-.388-.48 0-.686.372-.207.372-.207 1.198zM51.55 132.994v1.274h.033q.86-1.489 1.811-1.489.14 0 .389.05v2.356q-.439-.074-.81-.074-1.324 0-1.324 1.712v3.778h-2.397v-7.607zM55.073 130.712q0-.529.372-.9.372-.373.893-.373.529 0 .9.372.373.372.373.901 0 .521-.372.902-.372.372-.901.372-.513 0-.893-.372-.372-.38-.372-.902zm.066 2.282h2.406v7.607h-2.406zM63.564 138.278v1.984q-.86.579-1.728.579-1.282 0-2.059-1.108-.769-1.116-.769-2.993 0-1.778.794-2.894t2.05-1.116q.877 0 1.729.62v1.968q-.488-.257-.877-.257-.579 0-.934.472-.356.463-.356 1.24 0 .819.348 1.29.347.471.942.471.364 0 .86-.256zM68.781 140.601v-1h-.033q-.438.645-.851.95-.406.307-.96.307-1.083 0-1.728-1.108t-.645-3.01q0-1.827.654-2.91.653-1.084 1.72-1.084.57 0 .967.29.397.28.827.91h.033v-.952h2.406v7.607zm0-3.845q0-1.893-.926-1.893-.934 0-.934 1.893 0 1.968.967 1.968.893 0 .893-1.968zM73.064 128.951h2.406v11.65h-2.406zM80.778 129.563h2.407l1.422 6.656h.033l1.29-6.656h2.182l1.307 6.582h.033l1.356-6.582h2.472l-2.646 11.038H88.37l-1.05-4.936q-.174-.81-.29-1.563h-.033q-.207 1.282-.297 1.712l-1.042 4.787h-2.233zM97.476 138.278h2.026q-.579 2.563-2.894 2.563-1.447 0-2.29-1.1-.844-1.1-.844-3.034 0-1.803.844-2.886.843-1.091 2.24-1.091.844 0 1.621.529.777.52 1.133 1.39.355.867.397 2.736h-4.01q.05 1.695.942 1.695.306 0 .546-.223.24-.224.29-.58zm-1.744-2.2h1.744q-.025-.802-.223-1.182-.199-.388-.628-.388-.48 0-.687.372-.206.372-.206 1.198zM104.897 128.951h2.39v11.65h-2.407v-1h-.033q-.802 1.256-1.81 1.256-1.059 0-1.712-1.107-.645-1.108-.645-2.96 0-1.844.662-2.944.661-1.1 1.744-1.1.984 0 1.81 1.133zm0 7.789q0-1.877-.91-1.877-.934 0-.934 1.993 0 .884.248 1.372.256.48.703.48.413 0 .653-.513.24-.513.24-1.455zM112.934 140.634v-1.083q-.703 1.034-1.67 1.034-1.224 0-1.902-1.017-.678-1.026-.678-2.894 0-1.827.661-2.87.662-1.041 1.81-1.041 1.026 0 1.729 1.033h.033v-.802h2.406v7.045q0 .967-.347 1.836-.34.868-1.207 1.364-.868.496-1.902.496-1.033 0-1.943-.554-.91-.554-1.182-1.852h2.15q.371.579.925.579.472 0 .794-.372.323-.364.323-.902zm0-3.993q0-1.844-.926-1.844-.455 0-.72.446-.264.447-.264 1.24 0 2.084.967 2.084.943 0 .943-1.926zM120.722 138.278h2.026q-.579 2.563-2.894 2.563-1.447 0-2.29-1.1-.844-1.1-.844-3.034 0-1.803.844-2.886.843-1.091 2.24-1.091.844 0 1.621.529.777.52 1.133 1.39.355.867.397 2.736h-4.01q.05 1.695.942 1.695.306 0 .546-.223.24-.224.29-.58zm-1.744-2.2h1.744q-.025-.802-.223-1.182-.198-.388-.628-.388-.48 0-.687.372-.206.372-.206 1.198z" style="-inkscape-font-specification:'Tw Cen MT Condensed Extra Bold, ';text-align:center"/></g><path d="M74.692 90.726c-3.742-1.693-10.869 7.573-14.523 18.709s-3.83 23.787-.088 25.48c3.742 1.692 11.404-7.751 15.057-18.798 3.652-11.047 3.296-23.698-.446-25.391z" transform="matrix(2.2646 0 0 1.79502 -100.413 -137.784)" fill="#fff" stroke="#000" stroke-width=".744"/><path d="M68.292 24.545c19.182 4.796 46.995 53.9 42.008 68.478" fill="none" stroke="#000" stroke-width="1.5"/><path d="M68.292 23.97c-6.905 27.813 28.197 66.56 43.159 69.629" fill="none" stroke="#000" stroke-width="1.5" stroke-dasharray="3.00000008,3.00000008"/><path d="M110.875 93.599c-13.242 32.624-68.29 26.767-77.257 9.508M34.883 104.695c25.496 6.334 38.164 9.343 70.31-1.425" fill="none" stroke="#000" stroke-width="1.5"/><path d="M105.194 101.93c-25.496-6.334-38.164-9.343-70.31 1.425" fill="none" stroke="#000" stroke-width="1.5" stroke-dasharray="3.00000008,3.00000008"/></svg>