<svg xmlns="http://www.w3.org/2000/svg" width="537.098" height="688.526" viewBox="0 0 142.107 182.173"><g aria-label="Triakis Tetrahedron" style="line-height:1.25;-inkscape-font-specification:'Tw Cen MT Condensed Extra Bold, ';text-align:center" font-weight="400" font-size="16.933" font-family="Tw Cen MT Condensed Extra Bold" letter-spacing="0" word-spacing="0" text-anchor="middle" stroke-width=".265"><path d="M49.996 129.563h5.978v2.522h-1.728v8.516h-2.539v-8.516h-1.711zM59.252 132.994v1.274h.033q.86-1.489 1.81-1.489.142 0 .39.05v2.356q-.439-.074-.81-.074-1.324 0-1.324 1.712v3.778h-2.397v-7.607zM62.762 130.712q0-.529.372-.9.372-.373.893-.373.53 0 .901.372.372.372.372.901 0 .521-.372.902-.372.372-.901.372-.513 0-.893-.372-.372-.38-.372-.902zm.066 2.282h2.406v7.607h-2.406zM70.914 140.601v-1h-.033q-.438.645-.851.95-.405.307-.96.307-1.083 0-1.727-1.108-.645-1.108-.645-3.01 0-1.827.653-2.91.653-1.084 1.72-1.084.57 0 .967.29.397.28.827.91h.033v-.952h2.406v7.607zm0-3.845q0-1.893-.926-1.893-.934 0-.934 1.893 0 1.968.968 1.968.892 0 .892-1.968zM75.131 128.951h2.398v6.755h.041l1.637-2.712h2.878l-2.44 3.407 2.49 4.2h-2.77l-1.795-3.712h-.04v3.712H75.13zM83.234 130.712q0-.529.372-.9.372-.373.893-.373.53 0 .901.372.372.372.372.901 0 .521-.372.902-.372.372-.9.372-.513 0-.894-.372-.372-.38-.372-.902zm.066 2.282h2.406v7.607H83.3zM87.88 138.146q1.233.727 1.779.727.297 0 .496-.149.198-.157.198-.372 0-.231-.165-.339-.166-.107-1.24-.579-.86-.38-1.24-.893-.381-.52-.381-1.29 0-1.099.752-1.81.761-.711 1.935-.711 1.141 0 2.795.91l-.926 1.71q-1.075-.66-1.761-.66-.596 0-.596.479 0 .231.215.405.223.165.802.372 1.083.38 1.571.91.496.529.496 1.34 0 1.157-.777 1.9-.777.745-1.984.745-1.307 0-2.795-.918zM33.41 150.73h5.978v2.522H37.66v8.516H35.12v-8.516H33.41zM43.654 159.444h2.026q-.579 2.564-2.894 2.564-1.447 0-2.29-1.1-.844-1.1-.844-3.034 0-1.803.844-2.886.843-1.092 2.24-1.092.844 0 1.62.53.778.52 1.134 1.389.355.868.397 2.737h-4.01q.05 1.695.942 1.695.306 0 .546-.224.24-.223.29-.579zm-1.744-2.199h1.744q-.025-.802-.223-1.182-.199-.389-.629-.389-.48 0-.686.372-.206.372-.206 1.2zM47.598 152.135h2.406v2.026h.934v2.001h-.95v5.606h-2.39v-5.623h-.91v-1.984h.91zM54.46 154.161v1.273h.034q.86-1.488 1.81-1.488.141 0 .39.05v2.356q-.44-.074-.811-.074-1.323 0-1.323 1.711v3.779h-2.398v-7.607zM61.77 161.768v-1h-.033q-.438.644-.852.95-.405.306-.959.306-1.083 0-1.728-1.108t-.645-3.01q0-1.827.653-2.91.653-1.083 1.72-1.083.57 0 .967.29.397.28.827.909h.033v-.95h2.406v7.606zm0-3.845q0-1.893-.926-1.893-.935 0-.935 1.893 0 1.968.968 1.968.893 0 .893-1.968zM65.987 150.118h2.397v5.027h.042q.884-1.232 2.042-1.232.827 0 1.282.546.463.537.463 1.521v5.788h-2.407v-4.639q0-.446-.181-.694-.174-.256-.488-.256-.753 0-.753 1.017v4.572h-2.397zM77.562 159.444h2.026q-.579 2.564-2.894 2.564-1.447 0-2.29-1.1-.844-1.1-.844-3.034 0-1.803.844-2.886.843-1.092 2.24-1.092.844 0 1.62.53.778.52 1.134 1.389.355.868.397 2.737h-4.01q.05 1.695.942 1.695.306 0 .546-.224.24-.223.29-.579zm-1.744-2.199h1.744q-.025-.802-.223-1.182-.199-.389-.629-.389-.48 0-.686.372-.206.372-.206 1.2zM84.987 150.118h2.39v11.65H84.97v-1h-.033q-.802 1.256-1.81 1.256-1.059 0-1.712-1.108-.645-1.108-.645-2.96 0-1.844.662-2.943.661-1.1 1.744-1.1.984 0 1.811 1.133zm0 7.789q0-1.877-.91-1.877-.934 0-.934 1.992 0 .885.248 1.373.257.48.703.48.413 0 .653-.513.24-.513.24-1.455zM91.502 154.161v1.273h.033q.86-1.488 1.811-1.488.14 0 .389.05v2.356q-.438-.074-.81-.074-1.323 0-1.323 1.711v3.779h-2.398v-7.607zM97.885 153.897q1.646 0 2.506 1.1.86 1.09.86 3.042 0 1.91-.893 2.96-.893 1.042-2.473 1.042-1.513 0-2.406-1.067-.884-1.066-.884-2.935 0-1.951.843-3.043.852-1.1 2.447-1.1zm.017 5.994q.471 0 .703-.438.24-.438.24-1.497 0-1.05-.232-1.472-.232-.421-.695-.421-.454 0-.694.413-.24.405-.24 1.497 0 1.918.918 1.918zM105.062 154.161v1.034h.042q.843-1.282 2.058-1.282.794 0 1.257.53.471.528.471 1.43v5.895h-2.406v-4.688q0-.389-.182-.637-.181-.248-.47-.248-.77 0-.77.967v4.606h-2.398v-7.607z" style="-inkscape-font-specification:'Tw Cen MT Condensed Extra Bold, ';text-align:center"/></g><path d="M72.211 25.163l43.985 76.184h-87.97zM28.226 101.347l43.52 16.068 44.45-16.068M72.211 25.163V75.02" fill="none" stroke="#000" stroke-width="1.5"/><path d="M28.226 101.347L72.211 75.02l43.985 26.327" fill="none" stroke="#000" stroke-width="1.5"/><path d="M72.211 75.02l-.466 42.395M28.226 101.347l43.985-12.35 43.985 12.35" fill="none" stroke="#000" stroke-width="1.5" stroke-dasharray="3,3"/><path d="M72.211 25.163L39.6 60.113l-11.374 41.234" fill="none" stroke="#000" stroke-width="1.5"/><path d="M116.196 101.347l-12.305-42.632-31.68-33.552" fill="none" stroke="#000" stroke-width="1.5"/><path d="M39.6 60.112L72.21 88.531l32.146-29.35" fill="none" stroke="#000" stroke-width="1.5" stroke-dasharray="3,3"/></svg>