<?xml version="1.0" encoding="UTF-8" standalone="no"?>
<!-- Created with Inkscape (http://www.inkscape.org/) -->

<svg
   xmlns:dc="http://purl.org/dc/elements/1.1/"
   xmlns:cc="http://creativecommons.org/ns#"
   xmlns:rdf="http://www.w3.org/1999/02/22-rdf-syntax-ns#"
   xmlns:svg="http://www.w3.org/2000/svg"
   xmlns="http://www.w3.org/2000/svg"
   xmlns:sodipodi="http://sodipodi.sourceforge.net/DTD/sodipodi-0.dtd"
   xmlns:inkscape="http://www.inkscape.org/namespaces/inkscape"
   width="142.10715mm"
   height="182.17261mm"
   viewBox="0 0 142.10715 182.17261"
   version="1.1"
   id="svg8"
   inkscape:version="0.92.4 (5da689c313, 2019-01-14)"
   sodipodi:docname="triangular prism.svg">
  <defs
     id="defs2" />
  <sodipodi:namedview
     id="base"
     pagecolor="#ffffff"
     bordercolor="#666666"
     borderopacity="1.0"
     inkscape:pageopacity="0.0"
     inkscape:pageshadow="2"
     inkscape:zoom="0.56792311"
     inkscape:cx="-73.926998"
     inkscape:cy="344.2632"
     inkscape:document-units="mm"
     inkscape:current-layer="layer1"
     showgrid="false"
     inkscape:window-width="1366"
     inkscape:window-height="705"
     inkscape:window-x="-8"
     inkscape:window-y="-8"
     inkscape:window-maximized="1"
     inkscape:snap-global="true" />
  <metadata
     id="metadata5">
    <rdf:RDF>
      <cc:Work
         rdf:about="">
        <dc:format>image/svg+xml</dc:format>
        <dc:type
           rdf:resource="http://purl.org/dc/dcmitype/StillImage" />
        <dc:title />
      </cc:Work>
    </rdf:RDF>
  </metadata>
  <g
     inkscape:label="Layer 1"
     inkscape:groupmode="layer"
     id="layer1"
     transform="translate(-34.779762,-52.07737)">
    <g
       aria-label="Triangular Prism"
       style="font-style:normal;font-variant:normal;font-weight:normal;font-stretch:normal;font-size:16.93333244px;line-height:1.25;font-family:'Tw Cen MT Condensed Extra Bold';-inkscape-font-specification:'Tw Cen MT Condensed Extra Bold, ';text-align:center;letter-spacing:0px;word-spacing:0px;text-anchor:middle;fill:#000000;fill-opacity:1;stroke:none;stroke-width:0.26458332"
       id="text827">
      <path
         d="m 52.529524,181.64047 h 5.977929 v 2.52181 h -1.728059 v 8.51628 h -2.538347 v -8.51628 h -1.711523 z"
         style="font-style:normal;font-variant:normal;font-weight:normal;font-stretch:normal;font-size:16.93333244px;font-family:'Tw Cen MT Condensed Extra Bold';-inkscape-font-specification:'Tw Cen MT Condensed Extra Bold, ';text-align:center;text-anchor:middle;fill:#000000;stroke-width:0.26458332"
         id="path3869" />
      <path
         d="m 61.785806,185.07179 v 1.27331 h 0.03307 q 0.859896,-1.48829 1.810742,-1.48829 0.14056,0 0.388607,0.0496 v 2.35645 q -0.438216,-0.0744 -0.810287,-0.0744 -1.322916,0 -1.322916,1.71153 v 3.77858 h -2.397787 v -7.60677 z"
         style="font-style:normal;font-variant:normal;font-weight:normal;font-stretch:normal;font-size:16.93333244px;font-family:'Tw Cen MT Condensed Extra Bold';-inkscape-font-specification:'Tw Cen MT Condensed Extra Bold, ';text-align:center;text-anchor:middle;fill:#000000;stroke-width:0.26458332"
         id="path3871" />
      <path
         d="m 65.295669,182.78976 q 0,-0.52917 0.37207,-0.90124 0.37207,-0.37207 0.892969,-0.37207 0.529166,0 0.901237,0.37207 0.37207,0.37207 0.37207,0.90124 0,0.5209 -0.37207,0.90123 -0.372071,0.37207 -0.901237,0.37207 -0.512631,0 -0.892969,-0.37207 -0.37207,-0.38033 -0.37207,-0.90123 z m 0.06614,2.28203 h 2.406055 v 7.60677 h -2.406055 z"
         style="font-style:normal;font-variant:normal;font-weight:normal;font-stretch:normal;font-size:16.93333244px;font-family:'Tw Cen MT Condensed Extra Bold';-inkscape-font-specification:'Tw Cen MT Condensed Extra Bold, ';text-align:center;text-anchor:middle;fill:#000000;stroke-width:0.26458332"
         id="path3873" />
      <path
         d="m 73.448143,192.67856 v -1.00046 h -0.03307 q -0.438216,0.64492 -0.851628,0.95085 -0.405143,0.30592 -0.959114,0.30592 -1.083138,0 -1.72806,-1.10794 -0.644922,-1.10794 -0.644922,-3.00963 0,-1.82728 0.65319,-2.91042 0.65319,-1.08314 1.719792,-1.08314 0.570508,0 0.967383,0.28939 0.396875,0.28112 0.826822,0.9095 h 0.03307 v -0.95084 h 2.406055 v 7.60677 z m 0,-3.84473 q 0,-1.89342 -0.926042,-1.89342 -0.93431,0 -0.93431,1.89342 0,1.96784 0.967383,1.96784 0.892969,0 0.892969,-1.96784 z"
         style="font-style:normal;font-variant:normal;font-weight:normal;font-stretch:normal;font-size:16.93333244px;font-family:'Tw Cen MT Condensed Extra Bold';-inkscape-font-specification:'Tw Cen MT Condensed Extra Bold, ';text-align:center;text-anchor:middle;fill:#000000;stroke-width:0.26458332"
         id="path3875" />
      <path
         d="m 80.062725,185.07179 v 1.03353 h 0.04134 q 0.84336,-1.28158 2.058789,-1.28158 0.79375,0 1.256771,0.52917 0.471289,0.52916 0.471289,1.4304 v 5.89525 h -2.406054 v -4.68809 q 0,-0.3886 -0.181901,-0.63665 -0.181901,-0.24805 -0.471289,-0.24805 -0.768946,0 -0.768946,0.96738 v 4.60541 h -2.397786 v -7.60677 z"
         style="font-style:normal;font-variant:normal;font-weight:normal;font-stretch:normal;font-size:16.93333244px;font-family:'Tw Cen MT Condensed Extra Bold';-inkscape-font-specification:'Tw Cen MT Condensed Extra Bold, ';text-align:center;text-anchor:middle;fill:#000000;stroke-width:0.26458332"
         id="path3877" />
      <path
         d="m 89.488506,192.71163 v -1.08314 q -0.7028,1.03353 -1.670183,1.03353 -1.223697,0 -1.901692,-1.01699 -0.677995,-1.02526 -0.677995,-2.89388 0,-1.82728 0.661458,-2.86908 0.661459,-1.04179 1.810742,-1.04179 1.025261,0 1.72806,1.03353 h 0.03307 v -0.80202 h 2.406055 v 7.04453 q 0,0.96738 -0.347266,1.83555 -0.338997,0.86816 -1.207161,1.36425 -0.868164,0.4961 -1.901693,0.4961 -1.033528,0 -1.943034,-0.55397 -0.909505,-0.55398 -1.182356,-1.85209 h 2.149739 q 0.37207,0.57878 0.926042,0.57878 0.471289,0 0.79375,-0.37207 0.322461,-0.3638 0.322461,-0.90124 z m 0,-3.99355 q 0,-1.84382 -0.926042,-1.84382 -0.454753,0 -0.719336,0.44649 -0.264583,0.44648 -0.264583,1.24023 0,2.08359 0.967383,2.08359 0.942578,0 0.942578,-1.92649 z"
         style="font-style:normal;font-variant:normal;font-weight:normal;font-stretch:normal;font-size:16.93333244px;font-family:'Tw Cen MT Condensed Extra Bold';-inkscape-font-specification:'Tw Cen MT Condensed Extra Bold, ';text-align:center;text-anchor:middle;fill:#000000;stroke-width:0.26458332"
         id="path3879" />
      <path
         d="m 93.647427,185.07179 h 2.406054 v 4.89479 q 0,0.38034 0.173633,0.63665 0.181901,0.24805 0.487825,0.24805 0.694532,0 0.694532,-1.01699 v -4.7625 h 2.406054 v 4.40696 q 0,1.67845 -0.785481,2.57142 -0.785482,0.8847 -2.265495,0.8847 -1.653646,0 -2.389518,-0.9095 -0.727604,-0.90951 -0.727604,-2.27376 z"
         style="font-style:normal;font-variant:normal;font-weight:normal;font-stretch:normal;font-size:16.93333244px;font-family:'Tw Cen MT Condensed Extra Bold';-inkscape-font-specification:'Tw Cen MT Condensed Extra Bold, ';text-align:center;text-anchor:middle;fill:#000000;stroke-width:0.26458332"
         id="path3881" />
      <path
         d="m 101.67588,181.02862 h 2.40605 v 11.64994 h -2.40605 z"
         style="font-style:normal;font-variant:normal;font-weight:normal;font-stretch:normal;font-size:16.93333244px;font-family:'Tw Cen MT Condensed Extra Bold';-inkscape-font-specification:'Tw Cen MT Condensed Extra Bold, ';text-align:center;text-anchor:middle;fill:#000000;stroke-width:0.26458332"
         id="path3883" />
      <path
         d="m 109.7622,192.67856 v -1.00046 h -0.0331 q -0.43822,0.64492 -0.85163,0.95085 -0.40514,0.30592 -0.95911,0.30592 -1.08314,0 -1.72806,-1.10794 -0.64492,-1.10794 -0.64492,-3.00963 0,-1.82728 0.65319,-2.91042 0.65319,-1.08314 1.71979,-1.08314 0.57051,0 0.96738,0.28939 0.39688,0.28112 0.82682,0.9095 h 0.0331 v -0.95084 h 2.40605 v 7.60677 z m 0,-3.84473 q 0,-1.89342 -0.92604,-1.89342 -0.93431,0 -0.93431,1.89342 0,1.96784 0.96738,1.96784 0.89297,0 0.89297,-1.96784 z"
         style="font-style:normal;font-variant:normal;font-weight:normal;font-stretch:normal;font-size:16.93333244px;font-family:'Tw Cen MT Condensed Extra Bold';-inkscape-font-specification:'Tw Cen MT Condensed Extra Bold, ';text-align:center;text-anchor:middle;fill:#000000;stroke-width:0.26458332"
         id="path3885" />
      <path
         d="m 116.27756,185.07179 v 1.27331 h 0.0331 q 0.85989,-1.48829 1.81074,-1.48829 0.14056,0 0.38861,0.0496 v 2.35645 q -0.43822,-0.0744 -0.81029,-0.0744 -1.32292,0 -1.32292,1.71153 v 3.77858 H 113.979 v -7.60677 z"
         style="font-style:normal;font-variant:normal;font-weight:normal;font-stretch:normal;font-size:16.93333244px;font-family:'Tw Cen MT Condensed Extra Bold';-inkscape-font-specification:'Tw Cen MT Condensed Extra Bold, ';text-align:center;text-anchor:middle;fill:#000000;stroke-width:0.26458332"
         id="path3887" />
      <path
         d="m 124.23161,181.64047 h 3.10058 q 1.63711,0 2.6293,0.93431 0.99219,0.93431 0.99219,2.46394 0,1.6123 -1.00873,2.53007 -1.00045,0.90951 -2.77812,0.90951 h -0.42995 v 4.20026 h -2.50527 z m 2.50527,2.11667 v 2.60449 q 0.84336,-0.0165 1.24023,-0.32246 0.40515,-0.30592 0.40515,-0.96738 0,-0.71107 -0.38861,-1.00046 -0.38861,-0.29765 -1.25677,-0.31419 z"
         style="font-style:normal;font-variant:normal;font-weight:normal;font-stretch:normal;font-size:16.93333244px;font-family:'Tw Cen MT Condensed Extra Bold';-inkscape-font-specification:'Tw Cen MT Condensed Extra Bold, ';text-align:center;text-anchor:middle;fill:#000000;stroke-width:0.26458332"
         id="path3889" />
      <path
         d="m 134.89762,185.07179 v 1.27331 h 0.0331 q 0.8599,-1.48829 1.81074,-1.48829 0.14056,0 0.38861,0.0496 v 2.35645 q -0.43822,-0.0744 -0.81029,-0.0744 -1.32291,0 -1.32291,1.71153 v 3.77858 h -2.39779 v -7.60677 z"
         style="font-style:normal;font-variant:normal;font-weight:normal;font-stretch:normal;font-size:16.93333244px;font-family:'Tw Cen MT Condensed Extra Bold';-inkscape-font-specification:'Tw Cen MT Condensed Extra Bold, ';text-align:center;text-anchor:middle;fill:#000000;stroke-width:0.26458332"
         id="path3891" />
      <path
         d="m 138.41988,182.78976 q 0,-0.52917 0.37207,-0.90124 0.37207,-0.37207 0.89297,-0.37207 0.52917,0 0.90124,0.37207 0.37207,0.37207 0.37207,0.90124 0,0.5209 -0.37207,0.90123 -0.37207,0.37207 -0.90124,0.37207 -0.51263,0 -0.89297,-0.37207 -0.37207,-0.38033 -0.37207,-0.90123 z m 0.0661,2.28203 h 2.40605 v 7.60677 h -2.40605 z"
         style="font-style:normal;font-variant:normal;font-weight:normal;font-stretch:normal;font-size:16.93333244px;font-family:'Tw Cen MT Condensed Extra Bold';-inkscape-font-specification:'Tw Cen MT Condensed Extra Bold, ';text-align:center;text-anchor:middle;fill:#000000;stroke-width:0.26458332"
         id="path3893" />
      <path
         d="m 143.06662,190.22289 q 1.23197,0.72761 1.77767,0.72761 0.29766,0 0.4961,-0.14883 0.19843,-0.1571 0.19843,-0.37207 0,-0.23151 -0.16536,-0.339 -0.16536,-0.10748 -1.24023,-0.57877 -0.8599,-0.38034 -1.24024,-0.89297 -0.38034,-0.5209 -0.38034,-1.28985 0,-1.09967 0.75241,-1.81074 0.76068,-0.71107 1.93477,-0.71107 1.14101,0 2.79466,0.90951 l -0.92604,1.71152 q -1.07487,-0.66146 -1.76114,-0.66146 -0.59531,0 -0.59531,0.47956 0,0.23151 0.21498,0.40515 0.22324,0.16536 0.80201,0.37207 1.08314,0.38033 1.57097,0.9095 0.49609,0.52917 0.49609,1.33945 0,1.15756 -0.77721,1.9017 -0.77722,0.74414 -1.98438,0.74414 -1.30638,0 -2.79466,-0.91778 z"
         style="font-style:normal;font-variant:normal;font-weight:normal;font-stretch:normal;font-size:16.93333244px;font-family:'Tw Cen MT Condensed Extra Bold';-inkscape-font-specification:'Tw Cen MT Condensed Extra Bold, ';text-align:center;text-anchor:middle;fill:#000000;stroke-width:0.26458332"
         id="path3895" />
      <path
         d="m 151.66558,185.07179 v 0.93431 q 1.02526,-1.1989 2.0836,-1.1989 1.2733,0 1.64537,1.31465 0.57878,-0.68626 1.07487,-1.00045 0.50437,-0.3142 1.17409,-0.3142 1.67845,0 1.67845,2.34818 v 5.52318 h -2.40605 v -4.48965 q 0,-1.09967 -0.71107,-1.09967 -0.7276,0 -0.7276,1.08313 v 4.50619 h -2.40606 v -4.62194 q 0,-0.42168 -0.19844,-0.69453 -0.19016,-0.27285 -0.49609,-0.27285 -0.32246,0 -0.5209,0.26458 -0.19017,0.26458 -0.19017,0.71933 v 4.60541 h -2.39778 v -7.60677 z"
         style="font-style:normal;font-variant:normal;font-weight:normal;font-stretch:normal;font-size:16.93333244px;font-family:'Tw Cen MT Condensed Extra Bold';-inkscape-font-specification:'Tw Cen MT Condensed Extra Bold, ';text-align:center;text-anchor:middle;fill:#000000;stroke-width:0.26458332"
         id="path3897" />
    </g>
    <path
       style="fill:none;stroke:#000000;stroke-width:1.5;stroke-linecap:butt;stroke-linejoin:miter;stroke-miterlimit:4;stroke-dasharray:none;stroke-opacity:1"
       d="M 66.503081,77.181533 V 117.97414 L 149.88458,97.577837 Z"
       id="path11851"
       inkscape:connector-curvature="0" />
    <path
       style="fill:none;stroke:#000000;stroke-width:1.5;stroke-linecap:butt;stroke-linejoin:miter;stroke-opacity:1;stroke-miterlimit:4;stroke-dasharray:none"
       d="m 66.503081,133.27342 v 40.79274 l 83.381499,-20.39632"
       id="path11855"
       inkscape:connector-curvature="0" />
    <path
       style="fill:none;stroke:#000000;stroke-width:1.5;stroke-linecap:butt;stroke-linejoin:miter;stroke-opacity:1;stroke-miterlimit:4;stroke-dasharray:3,3;stroke-dashoffset:0"
       d="m 66.503081,133.27342 83.381499,20.39642"
       id="path11857"
       inkscape:connector-curvature="0" />
    <path
       style="fill:none;stroke:#000000;stroke-width:1.5;stroke-linecap:butt;stroke-linejoin:miter;stroke-opacity:1;stroke-miterlimit:4;stroke-dasharray:none"
       d="m 66.503081,117.97414 v 56.09202"
       id="path11859"
       inkscape:connector-curvature="0" />
    <path
       style="fill:none;stroke:#000000;stroke-width:1.5;stroke-linecap:butt;stroke-linejoin:miter;stroke-opacity:1;stroke-miterlimit:4;stroke-dasharray:none"
       d="M 149.88458,97.577837 V 153.66984"
       id="path11861"
       inkscape:connector-curvature="0" />
  </g>
</svg>
