<svg xmlns="http://www.w3.org/2000/svg" width="100mm" height="100mm" viewBox="0 0 100 100" version="1.1" id="svg8"><style id="style833"/><g id="layer1"><path id="rect1319" d="M31.193 9.692a25.62 25.62 0 00-25.62 25.62 25.62 25.62 0 007.81 18.416l-.16.16 36.76 36.76 36.759-36.76-.063-.063a25.62 25.62 0 007.91-18.514A25.62 25.62 0 0068.97 9.692a25.62 25.62 0 00-18.513 7.91l-.474-.474-.374.373a25.62 25.62 0 00-18.416-7.809zm2.673 5.728a21.994 21.994 0 0115.81 6.704l.32-.32.408.406a21.994 21.994 0 0115.893-6.79 21.994 21.994 0 0121.995 21.994A21.994 21.994 0 0181.5 53.307l.053.054L49.997 84.92 18.438 53.36l.137-.137a21.994 21.994 0 01-6.704-15.81A21.994 21.994 0 0133.866 15.42z" fill="#000" stroke="none" stroke-width="1.1"/></g></svg>