<svg xmlns="http://www.w3.org/2000/svg" width="100mm" height="100mm" viewBox="0 0 100 100" version="1.1" id="svg8"><style id="style833"/><g id="layer1" stroke="#000" stroke-width="1.058"><path id="rect837" fill="#fff" d="M0 0h100v100H0z"/><path id="rect939" fill="#000" d="M0 0h20v20H0z"/><path id="rect941" fill="#000" d="M40 0h20v20H40z"/><path id="rect943" fill="#000" d="M80 0h20v20H80z"/><path id="rect945" fill="#000" d="M20 20h20v20H20z"/><path id="rect947" fill="#000" d="M60 20h20v20H60z"/><path id="rect949" fill="#000" d="M0 40h20v20H0z"/><path id="rect951" fill="#000" d="M40 40h20v20H40z"/><path id="rect953" fill="#000" d="M80 40h20v20H80z"/><path id="rect955" fill="#000" d="M20 60h20v20H20z"/><path id="rect957" fill="#000" d="M60 60h20v20H60z"/><path id="rect959" fill="#000" d="M0 80h20v20H0z"/><path id="rect961" fill="#000" d="M40 80h20v20H40z"/><path id="rect963" fill="#000" d="M80 80h20v20H80z"/></g></svg>