<svg xmlns="http://www.w3.org/2000/svg" width="100mm" height="100mm" viewBox="0 0 100 100" version="1.1" id="svg8"><style id="style833"/><g id="layer1" stroke="#000"><path id="rect837" fill="#fff" stroke-width="1.058" d="M0 0h100v100H0z"/><path id="path884" d="M25 0A30 25 0 000 11.18V25h5A20 16.667 0 0125 8.333 20 16.667 0 0145 25h10a30 25 0 000-.041A20 16.667 0 0175 8.333 20 16.667 0 0195 25h5V11.181A30 25 0 0075 0a30 25 0 00-25 11.18A30 25 0 0025 0zm75 25a30 25 0 00-25 11.18A30 25 0 0050 25a30 25 0 00-25 11.18A30 25 0 000 25v8.333A20 16.667 0 0120 50h10a20 16.667 0 0120-16.667A20 16.667 0 0170 50h10a30 25 0 000-.041 20 16.667 0 0120-16.626V25zM75 50a30 25 0 00-25 11.18A30 25 0 0025 50 30 25 0 000 61.18V75h5a20 16.667 0 0120-16.667A20 16.667 0 0145 75h10a30 25 0 000-.041 20 16.667 0 0120-16.626A20 16.667 0 0195 75h5V61.181A30 25 0 0075 50zm25 25a30 25 0 00-25 11.18A30 25 0 0050 75a30 25 0 00-25 11.18A30 25 0 000 75v8.333A20 16.667 0 0120 100h10a20 16.667 0 0120-16.667A20 16.667 0 0170 100h10a30 25 0 000-.041 20 16.667 0 0120-16.626V75z" fill="#000" stroke-width="1.15938956"/></g></svg>