<svg xmlns:ns1="http://www.iki.fi/pav/software/textext/" xmlns="http://www.w3.org/2000/svg" width="1214" height="100"><g ns1:jacobian_sqrt="1.333" ns1:alignment="middle center" ns1:scale="1" ns1:preamble="C:\\Users\\Kavin\\AppData\\Roaming\\inkscape\\extensions\\textext\\default_packages.tex" ns1:text="$$3201 = 3\\times4^{1\\times4^{1} + 1}+2\\times4^{3} + 1$$" ns1:pdfconverter="pdf2svg" ns1:texconverter="pdflatex" ns1:version="0.11.0"><path d="M37.578 63.322c6.903-2.257 11.815-8.098 11.815-14.868 0-6.903-7.434-11.682-15.532-11.682-8.496 0-15 5.044-15 11.55 0 2.787 1.858 4.38 4.38 4.38s4.248-1.858 4.248-4.38c0-4.116-3.983-4.116-5.177-4.116 2.522-4.248 8.098-5.31 11.15-5.31 3.585 0 8.231 1.858 8.231 9.425 0 1.062-.265 5.974-2.39 9.691-2.521 4.116-5.442 4.381-7.566 4.381-.664.133-2.655.266-3.319.266-.664.132-1.195.265-1.195 1.062 0 .929.531.929 1.992.929h3.717c6.903 0 10.089 5.708 10.089 14.072 0 11.549-5.841 13.939-9.558 13.939-3.717 0-10.09-1.46-13.01-6.373 2.92.399 5.576-1.46 5.576-4.646 0-3.053-2.257-4.779-4.647-4.779-2.124 0-4.779 1.195-4.779 4.912 0 7.7 7.833 13.275 17.125 13.275 10.355 0 18.055-7.7 18.055-16.328 0-6.904-5.443-13.541-14.205-15.4zm28.516 23.365l9.027-8.762C88.263 66.243 93.308 61.73 93.308 53.233c0-9.69-7.567-16.461-17.922-16.461-9.558 0-15.797 7.832-15.797 15.4 0 4.645 4.248 4.645 4.514 4.645 1.46 0 4.38-.929 4.38-4.513 0-2.124-1.593-4.381-4.513-4.381-.664 0-.797 0-1.062.133 1.858-5.576 6.505-8.63 11.416-8.63 7.7 0 11.284 6.904 11.284 13.807 0 6.77-4.115 13.408-8.894 18.718L60.518 90.006c-.93.929-.93 1.194-.93 3.186h31.463l2.257-14.736h-1.991c-.531 2.522-1.062 6.24-1.992 7.567-.53.664-6.106.664-7.965.664zM136.56 66.11c0-6.77-.399-13.54-3.32-19.78-3.85-8.23-10.885-9.558-14.337-9.558-5.177 0-11.284 2.257-14.868 10.089-2.655 5.841-3.053 12.479-3.053 19.25 0 6.371.265 13.938 3.85 20.443 3.584 6.77 9.823 8.496 13.938 8.496 4.514 0 11.019-1.726 14.736-9.824 2.655-5.84 3.053-12.478 3.053-19.116zm-17.79 27.082c-3.318 0-8.363-2.124-9.823-10.222-.93-5.045-.93-12.877-.93-17.922 0-5.443 0-11.018.664-15.532 1.593-10.09 7.965-10.886 10.09-10.886 2.787 0 8.363 1.593 9.956 9.957.93 4.779.93 11.151.93 16.461 0 6.372 0 12.08-.93 17.523-1.328 8.098-6.107 10.62-9.957 10.62zm46.172-54.163c0-2.124 0-2.257-1.991-2.257-5.31 5.443-12.744 5.443-15.4 5.443v2.655c1.726 0 6.638 0 11.019-2.257v43.941c0 3.053-.265 3.983-7.832 3.983h-2.655v2.655c2.92-.266 10.222-.266 13.673-.266 3.319 0 10.753 0 13.674.266v-2.655h-2.655c-7.7 0-7.833-.93-7.833-3.983zm99.041 26.417c1.328 0 2.92 0 2.92-1.593 0-1.725-1.592-1.725-2.787-1.725h-50.712c-1.194 0-2.787 0-2.787 1.725 0 1.593 1.593 1.593 2.787 1.593zm.133 16.462c1.195 0 2.788 0 2.788-1.726 0-1.593-1.593-1.593-2.92-1.593h-50.58c-1.194 0-2.787 0-2.787 1.593 0 1.726 1.593 1.726 2.787 1.726zm55.648-18.586c6.903-2.257 11.815-8.098 11.815-14.868 0-6.903-7.434-11.682-15.532-11.682-8.496 0-15.001 5.044-15.001 11.55 0 2.787 1.858 4.38 4.38 4.38 2.523 0 4.249-1.858 4.249-4.38 0-4.116-3.983-4.116-5.178-4.116 2.523-4.248 8.098-5.31 11.151-5.31 3.585 0 8.231 1.858 8.231 9.425 0 1.062-.265 5.974-2.39 9.691-2.522 4.116-5.442 4.381-7.566 4.381-.664.133-2.655.266-3.32.266-.663.132-1.194.265-1.194 1.062 0 .929.531.929 1.991.929h3.717c6.904 0 10.09 5.708 10.09 14.072 0 11.549-5.841 13.939-9.559 13.939-3.717 0-10.089-1.46-13.01-6.373 2.921.399 5.576-1.46 5.576-4.646 0-3.053-2.256-4.779-4.646-4.779-2.124 0-4.78 1.195-4.78 4.912 0 7.7 7.833 13.275 17.126 13.275 10.355 0 18.054-7.7 18.054-16.328 0-6.904-5.443-13.541-14.204-15.4zm69.456 6.372l-16.86-16.86c-1.061-1.061-1.194-1.194-1.858-1.194-.929 0-1.726.664-1.726 1.726 0 .53.133.664 1.062 1.593l16.993 16.992-16.993 17.125c-.929.93-1.062 1.062-1.062 1.593 0 1.062.797 1.726 1.726 1.726.664 0 .797-.133 1.859-1.195l16.86-16.86 17.523 17.524c.132.133.663.531 1.194.531 1.062 0 1.726-.664 1.726-1.726 0-.132 0-.398-.265-.929-.133-.133-13.541-13.408-17.79-17.789l15.533-15.4c.398-.53 1.726-1.592 2.124-2.123 0-.133.398-.531.398-1.062 0-1.062-.664-1.726-1.726-1.726-.663 0-.929.266-1.858 1.195zm76.682 9.559v7.301c0 3.053-.265 3.983-6.504 3.983h-1.726v2.655c3.451-.266 7.832-.266 11.416-.266 3.585 0 7.966 0 11.55.266v-2.655h-1.859c-6.239 0-6.372-.93-6.372-3.983v-7.301h8.364v-2.655h-8.364V38.099c0-1.725 0-2.256-1.46-2.256-.664 0-.93 0-1.593 1.062l-26.02 39.693v2.655zm.399-2.655h-20.577l20.577-31.596zm36.743-56.061c0-1.593 0-1.593-1.725-1.593-3.85 3.717-9.16 3.717-11.55 3.717v2.124c1.328 0 5.31 0 8.496-1.593v30.135c0 1.99 0 2.787-5.84 2.787h-2.258v2.124c1.062 0 8.364-.265 10.488-.265 1.858 0 9.293.265 10.62.265v-2.124h-2.257c-5.974 0-5.974-.796-5.974-2.787zm55.377 9.956c.664-.664.797-1.062.797-1.46 0-.93-.664-1.46-1.328-1.46-.663 0-.796.132-1.46.929l-13.01 12.877-13.01-13.01c-.663-.53-.796-.796-1.327-.796-.93 0-1.593.663-1.593 1.46 0 .53.266.664.93 1.46l12.876 12.877-12.877 12.877c-.796.93-.929 1.195-.929 1.46 0 .93.664 1.593 1.593 1.593.531 0 .664-.265 1.328-.929l13.01-12.877 13.54 13.408c.266.266.531.398.93.398.663 0 1.327-.53 1.327-1.593 0-.398 0-.53-.266-.663-.132-.266-11.55-11.815-13.408-13.541zm42.817 18.054v-2.124H594.6V20.006c0-1.195 0-1.726-1.195-1.726-.796 0-1.062 0-1.593.93l-19.647 27.213v2.124h17.523v4.78c0 2.124 0 2.787-4.912 2.787h-1.593v2.124c3.054-.132 6.77-.265 8.895-.265 2.257 0 5.974.133 9.027.265v-2.124h-1.593c-4.912 0-4.912-.663-4.912-2.787v-4.78zm-11.151-23.762v21.638h-15.665zM620.506 5.75c0-1.195-.133-1.195-1.593-1.195-2.92 2.655-7.7 2.655-8.496 2.655h-.664v1.86h.664c.929 0 3.717-.133 6.24-1.195v21.24c0 1.195 0 1.726-4.514 1.726h-2.124V32.7c2.256-.133 6.106-.133 8.496-.133 2.522 0 6.239 0 8.629.133v-1.86h-2.124c-4.514 0-4.514-.53-4.514-1.725zm43.52 39.08h18.188c.796 0 2.124 0 2.124-1.327 0-1.593-1.328-1.593-2.124-1.593h-18.188V23.723c0-.664 0-2.124-1.327-2.124-1.46 0-1.46 1.327-1.46 2.124V41.91h-18.187c-.797 0-2.257 0-2.257 1.46s1.327 1.46 2.257 1.46h18.187v18.187c0 .797 0 2.257 1.327 2.257 1.46 0 1.46-1.46 1.46-2.257zm44.396-24.293c0-1.593 0-1.593-1.726-1.593-3.85 3.717-9.16 3.717-11.549 3.717v2.124c1.328 0 5.31 0 8.496-1.593v30.135c0 1.99 0 2.787-5.84 2.787h-2.258v2.124c1.062 0 8.364-.265 10.488-.265 1.858 0 9.292.265 10.62.265v-2.124h-2.257c-5.974 0-5.974-.796-5.974-2.787zm71.657 53.14h23.63c1.194 0 2.787 0 2.787-1.726 0-1.593-1.593-1.593-2.787-1.593h-23.63V46.595c0-1.194 0-2.787-1.726-2.787s-1.726 1.593-1.726 2.787v23.763h-23.63c-1.195 0-2.788 0-2.788 1.593 0 1.726 1.593 1.726 2.788 1.726h23.63V97.44c0 1.194 0 2.787 1.726 2.787s1.726-1.593 1.726-2.787zm60.731 13.01l9.027-8.762c13.143-11.682 18.187-16.196 18.187-24.692 0-9.69-7.566-16.461-17.921-16.461-9.558 0-15.798 7.832-15.798 15.4 0 4.645 4.248 4.645 4.514 4.645 1.46 0 4.38-.929 4.38-4.513 0-2.124-1.592-4.381-4.513-4.381-.664 0-.796 0-1.062.133 1.859-5.576 6.505-8.63 11.417-8.63 7.7 0 11.284 6.904 11.284 13.807 0 6.77-4.116 13.408-8.895 18.718l-16.195 18.055c-.93.929-.93 1.194-.93 3.186h31.463l2.256-14.736h-1.99c-.532 2.522-1.063 6.24-1.992 7.567-.531.664-6.107.664-7.965.664zm83.312-16.993l-16.86-16.86c-1.062-1.061-1.195-1.194-1.859-1.194-.929 0-1.725.664-1.725 1.726 0 .53.132.664 1.062 1.593l16.992 16.992-16.992 17.125c-.93.93-1.062 1.062-1.062 1.593 0 1.062.796 1.726 1.725 1.726.664 0 .797-.133 1.859-1.195l16.86-16.86 17.523 17.524c.133.133.664.531 1.195.531 1.062 0 1.725-.664 1.725-1.726 0-.132 0-.398-.265-.929-.133-.133-13.54-13.408-17.789-17.789l15.532-15.4c.398-.53 1.726-1.592 2.124-2.123 0-.133.398-.531.398-1.062 0-1.062-.663-1.726-1.725-1.726-.664 0-.93.266-1.859 1.195zm0 0M1000.804 79.253v7.301c0 3.053-.266 3.983-6.505 3.983h-1.726v2.655c3.451-.266 7.832-.266 11.417-.266 3.584 0 7.965 0 11.55.266v-2.655h-1.86c-6.239 0-6.372-.93-6.372-3.983v-7.301h8.364v-2.655h-8.364V38.099c0-1.725 0-2.256-1.46-2.256-.664 0-.93 0-1.593 1.062l-26.02 39.693v2.655zm.398-2.655h-20.577l20.577-31.596zm0 0M1034.361 38.458c4.647 0 7.965 3.186 7.965 9.558 0 7.302-4.38 9.559-7.7 9.559-2.389 0-7.699-.664-10.088-4.248 2.787 0 3.451-1.992 3.451-3.32 0-1.858-1.46-3.185-3.319-3.185-1.593 0-3.318 1.062-3.318 3.451 0 5.576 6.106 9.16 13.275 9.16 8.23 0 13.939-5.575 13.939-11.417 0-4.646-3.717-9.292-10.222-10.62 6.106-2.257 8.363-6.637 8.363-10.354 0-4.647-5.31-8.098-11.947-8.098-6.505 0-11.55 3.186-11.55 7.965 0 1.991 1.328 3.053 3.053 3.053 1.859 0 3.054-1.327 3.054-2.92 0-1.726-1.195-3.054-3.054-3.186 2.124-2.523 6.107-3.187 8.364-3.187 2.655 0 6.372 1.328 6.372 6.373 0 2.522-.797 5.31-2.39 7.035-1.858 2.257-3.584 2.39-6.505 2.655-1.46.133-1.593.133-1.858.133-.133 0-.664.133-.664.797 0 .796.531.796 1.593.796zm0 0M1109.602 73.677h23.63c1.195 0 2.788 0 2.788-1.726 0-1.593-1.593-1.593-2.788-1.593h-23.63V46.595c0-1.194 0-2.787-1.726-2.787-1.725 0-1.725 1.593-1.725 2.787v23.763h-23.63c-1.195 0-2.788 0-2.788 1.593 0 1.726 1.593 1.726 2.788 1.726h23.63V97.44c0 1.194 0 2.787 1.725 2.787 1.726 0 1.726-1.593 1.726-2.787zm0 0M1184.538 39.029c0-2.124 0-2.257-1.991-2.257-5.31 5.443-12.744 5.443-15.4 5.443v2.655c1.726 0 6.638 0 11.02-2.257v43.941c0 3.053-.266 3.983-7.833 3.983h-2.655v2.655c2.92-.266 10.222-.266 13.673-.266 3.319 0 10.753 0 13.674.266v-2.655h-2.655c-7.7 0-7.833-.93-7.833-3.983zm0 0"/></g></svg>