<svg xmlns="http://www.w3.org/2000/svg" xml:space="preserve" viewBox="0 0 125 50"><g transform="translate(-33.8 -103)"><rect width="49.1" height="49.1" x="34.3" y="103.4" fill="#fff" stroke="#000" stroke-width=".9" ry="10.2"/><rect width="49.1" height="49.1" x="109.3" y="103.4" fill="#fff" stroke="#000" stroke-width=".9" ry="10.2"/><rect width="36.4" height="27.5" x="40.6" y="109.5" fill="#7bc2e0" stroke="#000" stroke-width=".8" ry="4.8"/><rect width="36.4" height="27.5" x="115.6" y="109.5" fill="#7bc274" stroke="#000" stroke-width=".8" ry="4.8"/><circle cx="118.6" cy="144.2" r="3.5" fill="none" stroke="#000" stroke-linecap="round" stroke-linejoin="round" stroke-width=".7"/><circle cx="128.2" cy="144.2" r="3.5" fill="none" stroke="#000" stroke-linecap="round" stroke-linejoin="round" stroke-width=".7"/><circle cx="137.7" cy="144.2" r="3.5" fill="none" stroke="#000" stroke-linecap="round" stroke-linejoin="round" stroke-width=".7"/><circle cx="43.6" cy="144.2" r="3.5" fill="none" stroke="#000" stroke-linecap="round" stroke-linejoin="round" stroke-width=".7"/><circle cx="53.2" cy="144.2" r="3.5" fill="none" stroke="#000" stroke-linecap="round" stroke-linejoin="round" stroke-width=".7"/><rect width="26" height="9.9" x="83.3" y="123.6" fill="#fff" stroke="#000" stroke-linecap="round" stroke-linejoin="round" stroke-width=".8" ry="0"/><path d="M130.2 133a13 13 0 0 1-.2-2.7c0-2.2 0-2.2-2.5-2.2-4.8 0-4.9-.5-.8-8 1.7-3.1 3.2-6 3.5-6.3.5-.8 2-1 2.6-.3.2.3.3 3.2.3 10.1-.1 9.7-.1 9.7-1.4 9.8-1 .1-1.4 0-1.5-.4zm-.2-10.4c0-2.2 0-2.2-1.1-.3l-1.1 2.2 1 .2c1.2 0 1.2 0 1.2-2.1zm7 10.3c-1.4-.9-2-2.3-2-4 .2-1.5.2-1.5 1.2-1.6 1.3-.2 2 .3 2 1.5 0 1.6 1.5 2.1 2.1.7.2-.4.4-1.3.4-2 0-1 0-1-1.5-1-1.8.1-3-.7-3.7-2.3-.7-1.7-.6-6.9.2-8.5a4.2 4.2 0 0 1 7.7-.2c.7 1.6.6 13.1-.1 15.2-1 2.5-4 3.6-6.3 2.2zm3.4-10c.2-.4.3-1.8.3-3 0-3.5-.8-4.7-2-3-.6.9-.7 5.6-.1 6.2.5.5 1.4.4 1.8-.3zM51.2 133c-.8-.3-1.3-.8-1.7-1.9-.6-1.3-.6-2-.5-7.9 0-7.3.2-8 2.4-9.4 2.8-2 6.5.4 6.2 4 0 1.3 0 1.4-1.1 1.5-1.3.1-1.6-.2-1.9-1.5-.3-1.4-1-1.9-2-1.1-.4.4-.6 1-.6 2.2 0 1.7 0 1.7 1 1.3 1.7-.7 4 .9 4.5 3 .4 2.1.2 6.3-.4 7.7-1 2.3-3.5 3.2-6 2.1zm3-3.2c.5-.9.5-5.8 0-6.3-.7-.6-1.5-.4-1.8.4-.5 1.2-.4 5.6 0 6 .6.7 1.5.5 1.8-.1zm8 3.4c-1.3-.6-2-1.8-2.2-3.7-.1-1.7 0-2 .5-2.3 1.2-.6 2.2 0 2.5 1.7.2 1 .4 1.3 1 1.4 1.2.2 1.6-.7 1.6-3.5 0-3-.4-3.8-1.6-3.6-.5 0-.8.4-1 1.1-.4 1-1.2 1.5-2.4 1.3-.5-.1-.5-.6-.6-6 0-4.6 0-6 .3-6.3.7-.4 7.6-.3 8 .1.3.3.4.8.4 1.2 0 1.4-.5 1.6-3.2 1.6-2.4 0-2.4 0-2.4 2s0 2 1.2 1.9c1.7-.3 3 .6 3.9 2.3.5 1.2.6 2 .5 4.6-.2 3.6-.8 5.2-2.5 6-1 .6-3 .6-4 .2z"/></g></svg>