<svg xmlns="http://www.w3.org/2000/svg" width="680" height="711.588" viewBox="0 0 179.917 188.274"><path d="M23.435 31.795v72.572M46.113 32.152v72.57M0 55.23h68.792M0 79.95h68.792" fill="none" stroke="#000" stroke-width="2"/><text style="line-height:1.25" x="15.875" y="52.071" font-weight="400" font-size="14.111" font-family="sans-serif" letter-spacing="0" word-spacing="0" stroke-width=".265" transform="translate(-15.648 10.038)"/><path d="M134.56 31.795v72.572M157.238 32.152v72.57M111.125 55.23h68.792M111.125 79.95h68.792" fill="none" stroke="#000" stroke-width="2"/><path d="M127.275 47.926h4.799v4.932h-4.8zM143.282 47.794h4.8v4.931h-4.8zM159.818 47.794h4.8v4.931h-4.8zM127.142 82.454h4.8v4.932h-4.8zM143.15 82.322h4.799v4.932h-4.8zM159.686 82.322h4.8v4.932h-4.8zM127.01 64.992h4.8v4.931h-4.8zM143.017 64.86h4.8v4.931h-4.8zM159.554 64.86h4.799v4.931h-4.8z" stroke="#000" stroke-width="1.302"/><g fill="none" stroke="#000" stroke-width="2"><path d="M22.754 118.424L69.85 165.52M7.937 133.241l47.096 47.096"/></g><g fill="none" stroke="#000" stroke-width="2"><path d="M69.85 133.241l-47.096 47.096M55.033 118.424L7.937 165.52"/></g><g fill="none" stroke="#000" stroke-width="2"><path d="M125.942 117.895l47.095 47.096M111.125 132.712l47.096 47.096"/></g><g fill="none" stroke="#000" stroke-width="2"><path d="M173.038 132.712l-47.096 47.096M158.22 117.895l-47.095 47.096"/></g><text style="line-height:1.25" x="155.348" y="147.016" font-weight="400" font-size="7.056" font-family="sans-serif" letter-spacing="0" word-spacing="0" stroke-width=".265" transform="translate(-15.648 10.038)"/><path d="M126.763 137.658l3.394-3.394 3.487 3.487-3.394 3.394zM138.604 126.016l3.394-3.394 3.487 3.488-3.393 3.393zM150.046 137.658l3.394-3.394 3.487 3.487-3.394 3.394zM138.405 149.3l3.393-3.394 3.487 3.487-3.393 3.393zM161.688 148.77l3.394-3.393 3.487 3.487-3.394 3.393zM115.65 148.77l3.394-3.393 3.487 3.487-3.393 3.393zM126.234 159.353l3.393-3.393 3.488 3.487-3.394 3.394zM150.046 159.883l3.394-3.394 3.487 3.487-3.394 3.394zM138.633 171.524l3.394-3.393 3.487 3.487-3.393 3.393z" stroke="#000" stroke-width="1.302"/><text style="line-height:1.25;-inkscape-font-specification:'Gill Sans Nova'" x="22.527" y="33.774" font-weight="400" font-size="19.756" font-family="Gill Sans Nova" letter-spacing="0" word-spacing="0" stroke-width=".265" transform="translate(-15.648 10.038)"/><text style="line-height:1.25;-inkscape-font-specification:'Gill Sans Nova'" x="18.294" y="38.008" font-weight="400" font-size="22.578" font-family="Gill Sans Nova" letter-spacing="0" word-spacing="0" stroke-width=".265" transform="translate(-15.648 10.038)"><tspan x="18.294" y="38.008" style="-inkscape-font-specification:'Gill Sans Nova'">A</tspan></text><text y="38.008" x="42.107" style="line-height:1.25;-inkscape-font-specification:'Gill Sans Nova'" font-weight="400" font-size="22.578" font-family="Gill Sans Nova" letter-spacing="0" word-spacing="0" stroke-width=".265" transform="translate(-15.648 10.038)"><tspan style="-inkscape-font-specification:'Gill Sans Nova'" y="38.008" x="42.107">C</tspan></text><text style="line-height:1.25;-inkscape-font-specification:'Gill Sans Nova'" x="69.094" y="38.008" font-weight="400" font-size="22.578" font-family="Gill Sans Nova" letter-spacing="0" word-spacing="0" stroke-width=".265" transform="translate(-15.648 10.038)"><tspan x="69.094" y="38.008" style="-inkscape-font-specification:'Gill Sans Nova'">E</tspan></text><text style="line-height:1.25;-inkscape-font-specification:'Comic Sans MS'" x="19.352" y="57.587" font-weight="400" font-size="19.756" font-family="Comic Sans MS" letter-spacing="0" word-spacing="0" stroke-width=".265" transform="translate(-15.648 10.038)"/><text y="64.995" x="16.707" style="line-height:1.25;-inkscape-font-specification:'Gill Sans Nova'" font-weight="400" font-size="22.578" font-family="Gill Sans Nova" letter-spacing="0" word-spacing="0" stroke-width=".265" transform="translate(-15.648 10.038)"><tspan style="-inkscape-font-specification:'Gill Sans Nova'" y="64.995" x="16.707">G</tspan></text><text style="line-height:1.25;-inkscape-font-specification:'Gill Sans Nova'" x="47.569" y="64.995" font-weight="400" font-size="22.578" font-family="Gill Sans Nova" letter-spacing="0" word-spacing="0" stroke-width=".265" transform="translate(-15.648 10.038)"><tspan x="47.569" y="64.995" style="-inkscape-font-specification:'Gill Sans Nova'">I</tspan></text><text style="line-height:1.25;-inkscape-font-specification:'Gill Sans Nova'" x="68.565" y="64.995" font-weight="400" font-size="22.578" font-family="Gill Sans Nova" letter-spacing="0" word-spacing="0" stroke-width=".265" transform="translate(-15.648 10.038)"><tspan x="68.565" y="64.995" style="-inkscape-font-specification:'Gill Sans Nova'">K</tspan></text><text y="91.453" x="16.707" style="line-height:1.25;-inkscape-font-specification:'Gill Sans Nova'" font-weight="400" font-size="22.578" font-family="Gill Sans Nova" letter-spacing="0" word-spacing="0" stroke-width=".265" transform="translate(-15.648 10.038)"><tspan style="-inkscape-font-specification:'Gill Sans Nova'" y="91.453" x="16.707">M</tspan></text><text style="line-height:1.25;-inkscape-font-specification:'Gill Sans Nova'" x="41.048" y="91.453" font-weight="400" font-size="22.578" font-family="Gill Sans Nova" letter-spacing="0" word-spacing="0" stroke-width=".265" transform="translate(-15.648 10.038)"><tspan x="41.048" y="91.453" style="-inkscape-font-specification:'Gill Sans Nova'">O</tspan></text><text y="90.924" x="65.919" style="line-height:1.25;-inkscape-font-specification:'Gill Sans Nova'" font-weight="400" font-size="22.578" font-family="Gill Sans Nova" letter-spacing="0" word-spacing="0" stroke-width=".265" transform="translate(-15.648 10.038)"><tspan style="-inkscape-font-specification:'Gill Sans Nova'" y="90.924" x="65.919">Q</tspan></text><text style="line-height:1.25;-inkscape-font-specification:'Gill Sans Nova'" x="130.477" y="33.245" font-weight="400" font-size="16.933" font-family="Gill Sans Nova" letter-spacing="0" word-spacing="0" stroke-width=".265" transform="translate(-15.648 10.038)"/><text style="line-height:1.25;-inkscape-font-specification:'Gill Sans Nova'" x="127.302" y="36.42" font-weight="400" font-size="19.756" font-family="Gill Sans Nova" letter-spacing="0" word-spacing="0" stroke-width=".265" transform="translate(-15.648 10.038)"><tspan x="127.302" y="36.42">B</tspan></text><text y="35.891" x="153.761" style="line-height:1.25;-inkscape-font-specification:'Gill Sans Nova'" font-weight="400" font-size="19.756" font-family="Gill Sans Nova" letter-spacing="0" word-spacing="0" stroke-width=".265" transform="translate(-15.648 10.038)"><tspan y="35.891" x="153.761">D</tspan></text><text style="line-height:1.25;-inkscape-font-specification:'Gill Sans Nova'" x="182.336" y="35.891" font-weight="400" font-size="19.756" font-family="Gill Sans Nova" letter-spacing="0" word-spacing="0" stroke-width=".265" transform="translate(-15.648 10.038)"><tspan x="182.336" y="35.891">F</tspan></text><text y="63.408" x="126.773" style="line-height:1.25;-inkscape-font-specification:'Gill Sans Nova'" font-weight="400" font-size="19.756" font-family="Gill Sans Nova" letter-spacing="0" word-spacing="0" stroke-width=".265" transform="translate(-15.648 10.038)"><tspan y="63.408" x="126.773">H</tspan></text><text style="line-height:1.25;-inkscape-font-specification:'Gill Sans Nova'" x="181.807" y="63.408" font-weight="400" font-size="19.756" font-family="Gill Sans Nova" letter-spacing="0" word-spacing="0" stroke-width=".265" transform="translate(-15.648 10.038)"><tspan x="181.807" y="63.408">L</tspan></text><text style="line-height:1.25;-inkscape-font-specification:'Gill Sans Nova'" x="126.244" y="93.041" font-weight="400" font-size="19.756" font-family="Gill Sans Nova" letter-spacing="0" word-spacing="0" stroke-width=".265" transform="translate(-15.648 10.038)"><tspan x="126.244" y="93.041">N</tspan></text><text y="93.041" x="155.877" style="line-height:1.25;-inkscape-font-specification:'Gill Sans Nova'" font-weight="400" font-size="19.756" font-family="Gill Sans Nova" letter-spacing="0" word-spacing="0" stroke-width=".265" transform="translate(-15.648 10.038)"><tspan y="93.041" x="155.877">P</tspan></text><text style="line-height:1.25;-inkscape-font-specification:'Gill Sans Nova'" x="180.748" y="93.041" font-weight="400" font-size="19.756" font-family="Gill Sans Nova" letter-spacing="0" word-spacing="0" stroke-width=".265" transform="translate(-15.648 10.038)"><tspan x="180.748" y="93.041">R</tspan></text><text style="line-height:1.25;-inkscape-font-specification:'Gill Sans Nova'" x="48.457" y="107.328" font-weight="400" font-size="14.111" font-family="Gill Sans Nova" letter-spacing="0" word-spacing="0" stroke-width=".265" transform="translate(-15.648 10.038)"/><text style="line-height:1.25;-inkscape-font-specification:'Gill Sans Nova'" x="49.515" y="113.678" font-weight="400" font-size="19.756" font-family="Gill Sans Nova" letter-spacing="0" word-spacing="0" stroke-width=".265" transform="translate(-15.648 10.038)"><tspan x="49.515" y="113.678">S</tspan></text><text y="147.016" x="14.59" style="line-height:1.25;-inkscape-font-specification:'Gill Sans Nova'" font-weight="400" font-size="19.756" font-family="Gill Sans Nova" letter-spacing="0" word-spacing="0" stroke-width=".265" transform="translate(-15.648 10.038)"><tspan y="147.016" x="14.59">U</tspan></text><text style="line-height:1.25;-inkscape-font-specification:'Gill Sans Nova'" x="77.032" y="146.487" font-weight="400" font-size="19.756" font-family="Gill Sans Nova" letter-spacing="0" word-spacing="0" stroke-width=".265" transform="translate(-15.648 10.038)"><tspan x="77.032" y="146.487">W</tspan></text><text y="176.649" x="48.457" style="line-height:1.25;-inkscape-font-specification:'Gill Sans Nova'" font-weight="400" font-size="19.756" font-family="Gill Sans Nova" letter-spacing="0" word-spacing="0" stroke-width=".265" transform="translate(-15.648 10.038)"><tspan y="176.649" x="48.457">Y</tspan></text><text y="160.437" x="130.557" style="line-height:1.25;-inkscape-font-specification:'Gill Sans Nova'" transform="matrix(1.1918 0 0 .83906 -15.648 10.038)" font-weight="400" font-size="12.931" font-family="Gill Sans Nova" letter-spacing="0" word-spacing="0" stroke-width=".152"><tspan style="-inkscape-font-specification:'Gill Sans Nova'" y="160.437" x="130.557">I</tspan></text><text y="63.574" x="129.88" style="line-height:1.25;-inkscape-font-specification:'Gill Sans Nova'" transform="matrix(1.18465 0 0 .84413 -15.648 10.038)" font-weight="400" font-size="10.949" font-family="Gill Sans Nova" letter-spacing="0" word-spacing="0" stroke-width=".147"><tspan y="63.574" x="129.88">J</tspan></text><text y="142.783" x="52.161" style="line-height:1.25;-inkscape-font-specification:'Gill Sans Nova'" font-weight="400" font-size="19.756" font-family="Gill Sans Nova" letter-spacing="0" word-spacing="0" stroke-width=".265" transform="translate(-15.648 10.038)"><tspan y="142.783" x="52.161">J</tspan></text><text y="109.974" x="152.702" style="line-height:1.25;-inkscape-font-specification:'Gill Sans Nova'" font-weight="400" font-size="16.933" font-family="Gill Sans Nova" letter-spacing="0" word-spacing="0" stroke-width=".265" transform="translate(-15.648 10.038)"><tspan y="109.974" x="152.702">T</tspan></text><text style="line-height:1.25;-inkscape-font-specification:'Gill Sans Nova'" x="120.423" y="144.899" font-weight="400" font-size="16.933" font-family="Gill Sans Nova" letter-spacing="0" word-spacing="0" stroke-width=".265" transform="translate(-15.648 10.038)"><tspan x="120.423" y="144.899">V</tspan></text><text style="line-height:1.25;-inkscape-font-specification:'Gill Sans Nova'" x="182.865" y="144.37" font-weight="400" font-size="16.933" font-family="Gill Sans Nova" letter-spacing="0" word-spacing="0" stroke-width=".265" transform="translate(-15.648 10.038)"><tspan x="182.865" y="144.37">X</tspan></text><text y="178.237" x="152.173" style="line-height:1.25;-inkscape-font-specification:'Gill Sans Nova'" font-weight="400" font-size="16.933" font-family="Gill Sans Nova" letter-spacing="0" word-spacing="0" stroke-width=".265" transform="translate(-15.648 10.038)"><tspan y="178.237" x="152.173">Z</tspan></text><text y="130.083" x="63.802" style="line-height:1.25;-inkscape-font-specification:'Gill Sans Nova'" font-weight="400" font-size="19.756" font-family="Gill Sans Nova" letter-spacing="0" word-spacing="0" stroke-width=".265" transform="translate(-15.648 10.038)"><tspan y="130.083" x="63.802">D</tspan></text><text style="line-height:1.25;-inkscape-font-specification:'Gill Sans Nova'" x="65.39" y="160.774" font-weight="400" font-size="19.756" font-family="Gill Sans Nova" letter-spacing="0" word-spacing="0" stroke-width=".265" transform="translate(-15.648 10.038)"><tspan x="65.39" y="160.774">L</tspan></text><text style="line-height:1.25;-inkscape-font-specification:'Gill Sans Nova'" x="33.64" y="161.303" font-weight="400" font-size="19.756" font-family="Gill Sans Nova" letter-spacing="0" word-spacing="0" stroke-width=".265" transform="translate(-15.648 10.038)"><tspan x="33.64" y="161.303">P</tspan></text><text y="130.612" x="32.052" style="line-height:1.25;-inkscape-font-specification:'Gill Sans Nova'" font-weight="400" font-size="19.756" font-family="Gill Sans Nova" letter-spacing="0" word-spacing="0" stroke-width=".265" transform="translate(-15.648 10.038)"><tspan y="130.612" x="32.052">H</tspan></text><text style="line-height:1.25;-inkscape-font-specification:'Gill Sans Nova'" x="171.223" y="124.791" font-weight="400" font-size="16.933" font-family="Gill Sans Nova" letter-spacing="0" word-spacing="0" stroke-width=".265" transform="translate(-15.648 10.038)"><tspan x="171.223" y="124.791">K</tspan></text><text y="163.949" x="170.165" style="line-height:1.25;-inkscape-font-specification:'Gill Sans Nova'" font-weight="400" font-size="16.933" font-family="Gill Sans Nova" letter-spacing="0" word-spacing="0" stroke-width=".265" transform="translate(-15.648 10.038)"><tspan y="163.949" x="170.165">O</tspan></text><text style="line-height:1.25;-inkscape-font-specification:'Gill Sans Nova'" x="131.536" y="163.949" font-weight="400" font-size="16.933" font-family="Gill Sans Nova" letter-spacing="0" word-spacing="0" stroke-width=".265" transform="translate(-15.648 10.038)"><tspan x="131.536" y="163.949">G</tspan></text><text y="124.262" x="131.536" style="line-height:1.25;-inkscape-font-specification:'Gill Sans Nova'" font-weight="400" font-size="16.933" font-family="Gill Sans Nova" letter-spacing="0" word-spacing="0" stroke-width=".265" transform="translate(-15.648 10.038)"><tspan y="124.262" x="131.536">C</tspan></text><g aria-label="Cipher II" style="line-height:1.25;-inkscape-font-specification:'Gill Sans Nova Medium'" font-weight="500" font-size="19.756" font-family="Gill Sans Nova" letter-spacing="0" word-spacing="0" stroke-width=".265"><path d="M65.285 1.11v2.025q-2.383-1.34-4.66-1.34-1.582 0-2.797.723t-1.881 1.91q-.656 1.176-.656 2.527 0 1.34.637 2.508.646 1.167 1.852 1.871 1.206.695 2.826.695 2.547 0 4.823-1.505v2.122q-2.218 1.177-4.9 1.177-2.354 0-3.994-1.022-1.64-1.033-2.45-2.605-.81-1.582-.81-3.26 0-1.94.974-3.53.984-1.593 2.663-2.5Q58.59 0 60.568 0q2.266 0 4.717 1.11zM69.52 2.074q0 .415-.31.733-.308.309-.742.309t-.733-.319q-.29-.328-.29-.723 0-.396.29-.714.299-.318.733-.318t.743.308q.308.31.308.724zM67.6 13.649V4.775h1.755v8.874zM75.596 13.823q-.53 0-.887-.067-.357-.068-1.032-.328v4.765H71.92V4.775h3.3q2.218 0 3.5 1.157 1.284 1.158 1.284 3.29 0 1.283-.57 2.344-.559 1.061-1.562 1.659-.994.598-2.277.598zm-.173-1.534q1.225 0 1.997-.849.78-.848.78-2.218 0-1.399-.77-2.151-.763-.753-2.287-.753h-1.466v5.557q.318.173.781.299.463.115.965.115zM89.458 8.103v5.546h-1.756V8.141q0-2.073-1.717-2.073-.636 0-1.138.28-.501.27-1.1.945v6.356h-1.755V.174h1.756v5.768q.54-.646 1.244-.993.714-.348 1.485-.348 1.467 0 2.219.936.762.926.762 2.566zM99.394 9.183v.184h-6.241q.096 1.263.858 2.025.762.753 2.007.753.848 0 1.678-.27.83-.28 1.543-.81v1.716q-.848.57-1.668.81-.82.232-1.795.232-1.196 0-2.209-.569-1.003-.57-1.6-1.62-.59-1.062-.59-2.49 0-1.282.512-2.314.511-1.042 1.447-1.63.945-.599 2.19-.599 1.1 0 1.977.55.888.54 1.39 1.582.5 1.032.5 2.45zm-3.888-3.058q-.926 0-1.582.637-.656.627-.733 1.553h4.466q-.057-1.022-.617-1.601-.55-.589-1.534-.589zM107.767 5.604l-.936 1.544q-.395-.376-.868-.617-.473-.251-.83-.251-.453 0-.945.328-.492.328-.82.935-.328.598-.328 1.39v4.716h-1.756V4.775h1.756V6.81q.733-1.206 1.36-1.707.637-.502 1.293-.502.53 0 1.07.28.54.27 1.004.723zM114.722 13.65V.173h1.929v13.475zM119.622 13.65V.173h1.93v13.475z"/></g><path stroke="#000" stroke-width=".788" d="M111.916 12.624h12.44v.799h-12.44zM111.916.482h12.44v.799h-12.44z"/></svg>