<svg xmlns="http://www.w3.org/2000/svg" width="200mm" height="200mm" viewBox="0 0 200 200"><path d="M120 120h40v40h-40v40M0 120h40v40M80 120v80M160 40v40h40M120 80H0M40 40v40M80 40v40M120 40V0" style="fill:none;fill-opacity:1;stroke:#000;stroke-width:3;stroke-miterlimit:4;stroke-dasharray:none"/><path d="M10 14h20v13H10zM10 54h20v13H10zM10 94h20v12H10zM10 134h20v12H10zM10 173h20v13H10zM50 14h20v13H50zM50 54h20v13H50zM50 94h20v12H50zM50 134h20v12H50zM50 173h20v13H50zM90 14h20v13H90zM90 54h20v13H90zM90 94h20v12H90zM90 134h20v12H90zM90 173h20v13H90zM130 14h20v13h-20zM130 54h20v13h-20zM130 94h20v12h-20zM130 134h20v12h-20zM130 173h20v13h-20zM170 14h20v13h-20zM170 54h20v13h-20zM170 94h20v12h-20zM170 134h20v12h-20zM170 173h20v13h-20z" style="fill:none;fill-opacity:.169355;stroke:#000;stroke-width:1;stroke-miterlimit:4;stroke-dasharray:none"/><circle cx="40" cy="40" r="4.8" style="fill:#fff;fill-opacity:1;stroke:#000;stroke-width:1;stroke-miterlimit:4;stroke-dasharray:none"/><circle cx="80.2" cy="40" r="4.8" style="fill:#fff;fill-opacity:1;stroke:#000;stroke-width:1;stroke-miterlimit:4;stroke-dasharray:none"/><circle cx="40" cy="79.7" r="4.8" style="fill:#fff;fill-opacity:1;stroke:#000;stroke-width:1;stroke-miterlimit:4;stroke-dasharray:none"/><circle cx="80.2" cy="79.7" r="4.8" style="fill:#fff;fill-opacity:1;stroke:#000;stroke-width:1;stroke-miterlimit:4;stroke-dasharray:none"/><circle cx="40" cy="40" r="4.8" style="fill:#fff;fill-opacity:1;stroke:#000;stroke-width:1;stroke-miterlimit:4;stroke-dasharray:none"/><circle cx="40" cy="79.7" r="4.8" style="fill:#fff;fill-opacity:1;stroke:#000;stroke-width:1;stroke-miterlimit:4;stroke-dasharray:none"/><circle cx="80.2" cy="79.7" r="4.8" style="fill:#fff;fill-opacity:1;stroke:#000;stroke-width:1;stroke-miterlimit:4;stroke-dasharray:none"/><circle cx="160.6" cy="40" r="4.8" style="fill:#fff;fill-opacity:1;stroke:#000;stroke-width:1;stroke-miterlimit:4;stroke-dasharray:none"/><circle cx="120.4" cy="40" r="4.8" style="fill:#fff;fill-opacity:1;stroke:#000;stroke-width:1;stroke-miterlimit:4;stroke-dasharray:none"/><circle cx="120.4" cy="79.7" r="4.8" style="fill:#fff;fill-opacity:1;stroke:#000;stroke-width:1;stroke-miterlimit:4;stroke-dasharray:none"/><circle cx="160.6" cy="79.7" r="4.8" style="fill:#fff;fill-opacity:1;stroke:#000;stroke-width:1;stroke-miterlimit:4;stroke-dasharray:none"/><circle cx="40" cy="120.4" r="4.8" style="fill:#fff;fill-opacity:1;stroke:#000;stroke-width:1;stroke-miterlimit:4;stroke-dasharray:none"/><circle cx="80.2" cy="120.4" r="4.8" style="fill:#fff;fill-opacity:1;stroke:#000;stroke-width:1;stroke-miterlimit:4;stroke-dasharray:none"/><circle cx="40" cy="160.1" r="4.8" style="fill:#fff;fill-opacity:1;stroke:#000;stroke-width:1;stroke-miterlimit:4;stroke-dasharray:none"/><circle cx="80.2" cy="160.1" r="4.8" style="fill:#fff;fill-opacity:1;stroke:#000;stroke-width:1;stroke-miterlimit:4;stroke-dasharray:none"/><circle cx="40" cy="120.4" r="4.8" style="fill:#fff;fill-opacity:1;stroke:#000;stroke-width:1;stroke-miterlimit:4;stroke-dasharray:none"/><circle cx="40" cy="160.1" r="4.8" style="fill:#fff;fill-opacity:1;stroke:#000;stroke-width:1;stroke-miterlimit:4;stroke-dasharray:none"/><circle cx="80.2" cy="160.1" r="4.8" style="fill:#fff;fill-opacity:1;stroke:#000;stroke-width:1;stroke-miterlimit:4;stroke-dasharray:none"/><circle cx="160.6" cy="120.4" r="4.8" style="fill:#fff;fill-opacity:1;stroke:#000;stroke-width:1;stroke-miterlimit:4;stroke-dasharray:none"/><circle cx="120.4" cy="120.4" r="4.8" style="fill:#fff;fill-opacity:1;stroke:#000;stroke-width:1;stroke-miterlimit:4;stroke-dasharray:none"/><circle cx="120.4" cy="160.1" r="4.8" style="fill:#fff;fill-opacity:1;stroke:#000;stroke-width:1;stroke-miterlimit:4;stroke-dasharray:none"/><circle cx="160.6" cy="160.1" r="4.8" style="fill:#fff;fill-opacity:1;stroke:#000;stroke-width:1;stroke-miterlimit:4;stroke-dasharray:none"/><rect width="200" height="200" ry="15.2" style="fill:none;fill-opacity:1;stroke:#000;stroke-width:3;stroke-miterlimit:4;stroke-dasharray:none"/></svg>