<svg xmlns="http://www.w3.org/2000/svg" viewBox="0 0 36.23 17.98"><path d="M18.11 0c-1.77 2.03-1.96 3.72-1.68 5.24a1.78 1.78 0 1 0 .63 2.93c-.2 1.47-1.61 2.67-2.03 2.97-.53.38-1.64.17-2.73-.33a8.5 8.5 0 0 1-1.78-1.27 1.47 1.47 0 1 0-.9.31c.01.1-.37 3.5-2.57 3.34-.83-.06-1.82-.97-2.74-2a1.47 1.47 0 1 0-1.59-1.83 5.01 5.01 0 0 0-1.01-.99C.7 7.82 0 8.21 0 8.21a40.7 40.7 0 0 1 6.28 9.77h23.67c1.69-3.5 3.62-6.84 6.28-9.77 0 0-.72-.39-1.71.16-.25.14-.6.51-1.02.99a1.47 1.47 0 1 0-1.58 1.84c-.92 1.02-1.91 1.93-2.75 2-2.2.15-2.58-3.25-2.56-3.35a1.47 1.47 0 1 0-.9-.3 8.5 8.5 0 0 1-1.78 1.26c-1.1.5-2.2.71-2.73.33-.42-.3-1.83-1.5-2.03-2.97a1.78 1.78 0 1 0 .62-2.93c.29-1.52.1-3.21-1.68-5.24z"/></svg>