<svg xmlns="http://www.w3.org/2000/svg" viewBox="0 0 29.23 29.65"><g transform="translate(-163.3 -107.32)"><path id="b" fill="#000" stroke="none" stroke-width="5.58" d="m186.32 111.12-4.86 2.52c.05.88.05 1.82-.03 2.81-.06.69-.17 1.3-.32 1.84.47-.3 1.02-.6 1.65-.87.92-.39 1.82-.68 2.67-.9z"/><path id="a" fill="#000" stroke="none" stroke-width="5.58" d="M177.92 107.32s-1 1.92-1.3 2.66c-.31.75-1.41 3.4-1.1 6.9.3 3.51 2.4 4.35 2.4 4.35s2.1-.84 2.41-4.35c.3-3.5-.8-6.15-1.1-6.9-.3-.74-1.3-2.66-1.3-2.66z"/><circle cx="177.18" cy="122.24" r=".62"/><circle cx="178.53" cy="122.12" r=".62"/><circle cx="177.88" cy="123.41" r=".62"/><use href="#a" transform="rotate(72 177.92 122.68)"/><use href="#a" transform="rotate(144 177.92 122.68)"/><use href="#a" transform="rotate(-144 177.92 122.68)"/><use href="#a" transform="rotate(-72 177.92 122.68)"/><use href="#b" transform="rotate(144 177.92 122.68)"/><use href="#b" transform="rotate(72 177.92 122.68)"/><use href="#b" transform="rotate(-144 177.92 122.68)"/><use href="#b" transform="rotate(-72 177.92 122.68)"/></g></svg>