<svg xmlns="http://www.w3.org/2000/svg" viewBox="0 0 22.4 29.1"><path d="M1 0v2.71h4.73V0zm6.83 0v2.71h6.74V0zm8.84 0v2.71h4.74V0zM1 2.98v3.57h2.15V2.98zm2.42 0v3.57h7.66V2.98zm7.92 0v3.57H19V2.98zm7.93 0v3.57h2.15V2.98zM1.03 6.8 3.08 9h4.17l-.87-2.2zm5.64 0L7.53 9h7.34l.87-2.2zm9.35 0L15.15 9h4.17l2.05-2.2zM3.22 9.27l-.08 1.1L3 12.49h1.56l.25-3.22zm1.84 0-.24 3.22h4.5v-.8l1.82-2.42zm6.2 0 1.82 2.42v.8h4.5l-.24-3.22zm6.34 0 .25 3.22h1.56l-.15-2.12-.08-1.1zM2.97 12.76l-.23 3.21h4.2v-3.21zm4.24 0v3.21h2.1v-3.21zm5.87 0v3.21h2.11v-3.21zm2.38 0v3.21h4.2l-.23-3.21zM2.72 16.24l-.23 3.22H4l.25-3.22zm1.8 0-.24 3.22h5.04v-3.22zm8.56 0v3.22h5.04l-.24-3.22zm5.06 0 .25 3.22h1.52l-.23-3.22zM2.38 19.72l-1.45 2.2h5.4l.8-2.2zm5.03 0-.8 2.2h9.18l-.8-2.2zm7.87 0 .79 2.2h5.4l-1.45-2.2zM.87 22.18l-.45 3.57h2.72v-3.57zm2.54 0v3.57h7.66v-3.57zm7.92 0v3.57H19v-3.57zm7.93 0v3.57h2.72l-.44-3.57zM.39 26.02 0 29.1h6.95v-3.08zm6.82 0v3.08h7.98v-3.08zm8.25 0v3.08h6.94l-.38-3.08z"/></svg>