<svg xmlns="http://www.w3.org/2000/svg" width="498" height="738" viewBox="0 0 131.761 195.26"><path d="M12.965 65.881h6.35" fill="none" stroke="#000" stroke-width=".529" stroke-linecap="round" stroke-linejoin="round"/><path d="M19.315 97.631h6.35" fill="#444" stroke="#000" stroke-width=".529" stroke-linecap="round" stroke-linejoin="round"/><path d="M29.898 133.615v4.233h8.467M51.065 133.615v4.233h-8.467M40.481 142.081v4.234h19.05M72.231 133.615v4.233h8.467M93.398 133.615v4.233H84.93M82.815 142.081v4.234h-19.05" fill="none" stroke="#000" stroke-width=".529" stroke-linecap="round" stroke-linejoin="round"/><path d="M61.648 150.548H12.965V44.715M80.698 129.381h-6.35M59.531 129.381h-6.35M38.365 129.381h-6.35" fill="none" stroke="#000" stroke-width=".529" stroke-linecap="round" stroke-linejoin="round"/><g fill="red" stroke="#888" stroke-width=".165"><path d="M89.958 142.218v17.193M89.958 159.411h1.323M89.958 152.798h1.323M89.958 146.186h1.323M92.604 147.508v1.323h2.646v13.225" fill="none" stroke="#000" stroke-width=".331" stroke-linecap="round" stroke-linejoin="round" transform="matrix(1.6 0 0 1.60043 -124.619 -129.98)"/><path d="M92.604 154.121v1.323h2.646M92.604 160.734v1.322h2.646M96.573 142.218v14.548h2.646v1.323" fill="none" stroke="#000" stroke-width=".331" stroke-linecap="round" stroke-linejoin="round" transform="matrix(1.6 0 0 1.60043 -124.619 -129.98)"/><path d="M96.573 150.153h2.646v1.323M96.573 142.218h2.646v2.645M93.927 146.186h3.969M93.927 152.798h3.969M93.927 159.411h3.969M100.542 146.186h3.968M100.542 152.798h3.968M100.542 159.411h3.968M107.156 146.186h3.969M107.156 152.798h3.969M107.156 159.411h3.969M120.385 146.186h3.97M120.385 152.798h3.97M120.385 159.411h3.97M127 146.186h3.969M127 152.798h3.969M127 159.411h3.969M133.615 146.186h3.968M133.615 152.798h3.968M133.615 159.411h3.968M99.219 147.508v1.323h2.646v13.225" fill="none" stroke="#000" stroke-width=".331" stroke-linecap="round" stroke-linejoin="round" transform="matrix(1.6 0 0 1.60043 -124.619 -129.98)"/><path d="M99.219 154.121v1.323h2.646M99.219 160.734v1.322M109.802 142.218v14.548h2.646v1.323" fill="none" stroke="#000" stroke-width=".331" stroke-linecap="round" stroke-linejoin="round" transform="matrix(1.6 0 0 1.60043 -124.619 -129.98)"/><path d="M109.802 150.153h2.646v1.323M109.802 142.218h2.646v2.645M112.448 147.508v1.323h2.646v13.225" fill="none" stroke="#000" stroke-width=".331" stroke-linecap="round" stroke-linejoin="round" transform="matrix(1.6 0 0 1.60043 -124.619 -129.98)"/><path d="M112.448 154.121v1.323h2.646M112.448 160.734v1.322M103.188 142.218v14.548h2.645v1.323" fill="none" stroke="#000" stroke-width=".331" stroke-linecap="round" stroke-linejoin="round" transform="matrix(1.6 0 0 1.60043 -124.619 -129.98)"/><path d="M103.188 150.153h2.645v1.323M105.833 142.218v2.645M105.833 147.508v1.323h2.646v13.225" fill="none" stroke="#000" stroke-width=".331" stroke-linecap="round" stroke-linejoin="round" transform="matrix(1.6 0 0 1.60043 -124.619 -129.98)"/><path d="M105.833 154.121v1.323h2.646M105.833 160.734v1.322h2.646M116.417 142.218v14.548h2.646v1.323" fill="none" stroke="#000" stroke-width=".331" stroke-linecap="round" stroke-linejoin="round" transform="matrix(1.6 0 0 1.60043 -124.619 -129.98)"/><path d="M116.417 150.153h2.646v1.323M119.063 142.218v2.645M119.063 147.508v1.323h2.645v13.225" fill="none" stroke="#000" stroke-width=".331" stroke-linecap="round" stroke-linejoin="round" transform="matrix(1.6 0 0 1.60043 -124.619 -129.98)"/><path d="M119.063 154.121v1.323h2.645M119.063 160.734v1.322h2.645M123.031 142.218v14.548h2.646v1.323" fill="none" stroke="#000" stroke-width=".331" stroke-linecap="round" stroke-linejoin="round" transform="matrix(1.6 0 0 1.60043 -124.619 -129.98)"/><path d="M123.031 150.153h2.646v1.323M123.031 142.218h2.646v2.645M125.677 147.508v1.323h2.646v13.225" fill="none" stroke="#000" stroke-width=".331" stroke-linecap="round" stroke-linejoin="round" transform="matrix(1.6 0 0 1.60043 -124.619 -129.98)"/><path d="M125.677 154.121v1.323h2.646M125.677 160.734v1.322M129.646 142.218v14.548h2.646v1.323" fill="none" stroke="#000" stroke-width=".331" stroke-linecap="round" stroke-linejoin="round" transform="matrix(1.6 0 0 1.60043 -124.619 -129.98)"/><path d="M129.646 150.153h2.646v1.323M132.292 142.218v2.645M132.292 147.508v1.323h2.646v13.225" fill="none" stroke="#000" stroke-width=".331" stroke-linecap="round" stroke-linejoin="round" transform="matrix(1.6 0 0 1.60043 -124.619 -129.98)"/><path d="M132.292 154.121v1.323h2.646M132.292 160.734v1.322h2.646M136.26 142.218v14.548h2.646v1.323" fill="none" stroke="#000" stroke-width=".331" stroke-linecap="round" stroke-linejoin="round" transform="matrix(1.6 0 0 1.60043 -124.619 -129.98)"/><path d="M136.26 150.153h2.646v1.323M136.26 142.218h2.646v2.645M140.23 146.186h1.322v15.87h-3.969M140.23 152.798h1.322M140.23 159.411h1.322M113.77 159.411h3.97M113.77 152.798h3.97M113.77 146.186h3.97" fill="none" stroke="#000" stroke-width=".331" stroke-linecap="round" stroke-linejoin="round" transform="matrix(1.6 0 0 1.60043 -124.619 -129.98)"/><g transform="matrix(1.6 0 0 1.60043 -116.152 -119.396)" fill="#0f0" stroke="#000" stroke-width=".331" stroke-linecap="round" stroke-linejoin="round"><circle cy="139.573" cx="87.313" r="1.323"/><circle cy="146.186" cx="87.313" r="1.323"/><circle cy="152.798" cx="87.313" r="1.323"/><circle cy="139.573" cx="93.927" r="1.323"/><circle cy="146.186" cx="93.927" r="1.323"/><circle cy="152.798" cx="93.927" r="1.323"/><circle cy="139.573" cx="100.542" r="1.323"/><circle cy="146.186" cx="100.542" r="1.323"/><circle cy="152.798" cx="100.542" r="1.323"/><circle cy="139.573" cx="107.156" r="1.323"/><circle cy="146.186" cx="107.156" r="1.323"/><circle cy="152.798" cx="107.156" r="1.323"/><circle cy="146.186" cx="113.771" r="1.323"/><circle cy="152.798" cx="113.771" r="1.323"/><circle cy="146.186" cx="120.385" r="1.323"/><circle cy="152.798" cx="120.385" r="1.323"/><circle cy="146.186" cx="127" r="1.323"/><circle cy="152.798" cx="127" r="1.323"/><circle cy="146.186" cx="133.615" r="1.323"/><circle cy="152.798" cx="133.615" r="1.323"/><circle cy="139.573" cx="113.771" r="1.323"/><circle cy="139.573" cx="120.385" r="1.323"/><circle cy="139.573" cx="127" r="1.323"/><circle cy="139.573" cx="133.615" r="1.323"/></g><path d="M122.118 121.166v-.467h.717v-1.808l-.625.344-.172-.428.894-.472h.441v2.364h.618v.467z" transform="matrix(1.60022 0 0 1.60022 -124.619 -129.98)" aria-label="1" stroke-width=".027"/><path d="M131.325 125.15v-.388l.666-.665q.187-.187.299-.323.114-.136.174-.241.063-.108.082-.198.02-.09.02-.188 0-.08-.026-.15-.026-.073-.076-.125-.05-.054-.125-.084-.075-.032-.172-.032-.166 0-.308.073-.142.07-.269.191l-.278-.357q.183-.17.412-.271.23-.104.497-.104.207 0 .375.054.167.052.286.155.12.104.185.259.067.155.067.357 0 .168-.045.314-.046.144-.132.282-.086.138-.213.276-.125.138-.286.29l-.41.39h1.187v.485z" transform="matrix(1.60022 0 0 1.60022 -124.619 -129.98)" aria-label="2" stroke-width=".027"/><path d="M122.64 126.915q0 .208-.077.376-.078.166-.24.285-.159.116-.402.178-.243.063-.573.063-.073 0-.155-.004-.08-.002-.159-.01-.08-.003-.155-.012-.075-.006-.136-.018v-.456q.136.026.304.043.17.015.353.015.179 0 .308-.03.13-.03.213-.086.084-.058.123-.142.04-.084.04-.19 0-.092-.04-.167-.041-.076-.125-.127-.084-.054-.215-.082-.13-.03-.308-.03h-.312v-.4h.286q.168 0 .278-.033.112-.035.176-.09.067-.056.095-.132.028-.077.028-.161 0-.173-.112-.26-.112-.091-.347-.091-.168 0-.331.032-.164.032-.338.086v-.441q.097-.032.185-.054.088-.021.176-.037.089-.015.18-.021.09-.006.186-.006.233 0 .407.05.177.049.295.142.12.09.181.221.06.132.06.293 0 .256-.118.416-.116.157-.327.24.135.022.245.076.11.052.188.136.08.082.12.19.043.107.043.238z" transform="matrix(1.60022 0 0 1.60022 -124.619 -129.98)" aria-label="3" stroke-width=".027"/><path d="M137.125 132.49v.572h-.513v-.572h-1.309v-.45l1.098-1.791h.724v1.778h.426v.463zm-.506-1.733l-.801 1.27h.8z" transform="matrix(1.60022 0 0 1.60022 -124.619 -129.98)" aria-label="4" stroke-width=".027"/><path d="M114.67 129.495q0 .227-.094.403-.095.174-.263.295-.168.12-.396.183-.228.062-.495.062-.067 0-.142-.004l-.153-.01q-.078-.006-.15-.018-.074-.009-.137-.019v-.459q.123.03.282.05.16.017.326.017.322 0 .49-.123.17-.124.17-.344 0-.228-.157-.338-.157-.112-.508-.112h-.55v-1.496h1.622v.495h-1.132v.573h.202q.216 0 .412.038.195.04.344.136.15.095.239.258.09.164.09.414z" transform="matrix(1.60022 0 0 1.60022 -124.619 -129.98)" aria-label="5" stroke-width=".027"/><path d="M104.197 134.792q0 .213-.077.387-.078.173-.216.297-.135.123-.325.19t-.415.067q-.493 0-.754-.31-.26-.31-.26-.948 0-.232.028-.441.028-.211.092-.388.067-.178.177-.323.112-.144.278-.243.165-.101.391-.155.227-.056.526-.056h.32v.446h-.374q-.233 0-.39.047-.157.048-.256.136-.099.088-.148.215-.05.127-.065.286l-.004.052q.112-.054.254-.088.144-.035.301-.035.229 0 .4.06.173.059.287.17.116.113.172.272.059.16.059.362zm-.547.023q0-.099-.025-.18-.026-.084-.082-.142-.054-.06-.14-.093-.084-.034-.203-.034-.068 0-.137.012-.067.011-.132.03-.062.02-.12.044-.056.023-.101.05 0 .216.03.367.03.149.09.243.062.095.153.138.093.041.213.041.103 0 .187-.034.084-.035.142-.097.06-.065.093-.15.032-.09.032-.195z" transform="matrix(1.60022 0 0 1.60022 -124.619 -129.98)" aria-label="6" stroke-width=".027"/><path d="M129.475 135.708h-.594l1.12-2.306h-1.35v-.508h1.955v.459z" transform="matrix(1.60022 0 0 1.60022 -124.619 -129.98)" aria-label="7" stroke-width=".027"/><path d="M94.382 139.508q.105.058.2.13.097.068.168.16.073.091.114.207.043.114.043.26 0 .192-.078.339-.077.146-.215.245-.136.1-.32.149-.184.05-.397.05-.237 0-.42-.05-.18-.052-.305-.145-.123-.092-.188-.223-.062-.132-.062-.293 0-.144.04-.256.044-.115.117-.207.073-.093.168-.166.097-.073.204-.136-.096-.056-.183-.122-.083-.067-.148-.15-.065-.085-.103-.188-.037-.104-.037-.235 0-.153.058-.286.06-.136.177-.237.118-.101.295-.16.178-.057.417-.057.22 0 .392.047.172.045.289.131.118.086.178.207.063.118.063.263 0 .133-.037.24-.037.108-.099.197-.062.086-.148.157-.087.069-.183.129zm-.414-.202q.078-.044.144-.09.07-.05.119-.108.05-.059.08-.128.03-.068.03-.152 0-.14-.11-.214-.11-.073-.317-.073-.202 0-.312.076-.11.075-.11.226 0 .082.037.146.037.065.101.12.065.054.15.102.09.047.188.095zm-.11.475q-.084.046-.159.097-.073.052-.13.114-.053.063-.085.138-.033.073-.033.166 0 .164.127.25.128.086.336.086.095 0 .179-.02.084-.02.146-.06.065-.04.102-.103.036-.065.036-.153 0-.09-.04-.162-.042-.073-.113-.133-.07-.06-.165-.114-.095-.054-.2-.106z" transform="matrix(1.60022 0 0 1.60022 -124.619 -129.98)" aria-label="8" stroke-width=".027"/><path d="M110.81 139.449q0 .331-.056.579-.056.245-.16.42-.1.174-.243.286-.142.112-.316.177-.172.064-.37.088-.196.024-.407.024h-.326v-.45h.384q.252 0 .42-.044.17-.045.273-.129.105-.086.155-.213.052-.127.069-.293l.004-.053q-.114.053-.26.088-.147.034-.296.034-.204 0-.372-.047-.168-.048-.29-.15-.121-.104-.188-.268-.067-.166-.067-.398 0-.211.076-.383.077-.175.213-.297.138-.123.325-.19.19-.069.413-.069.22 0 .405.063.187.062.323.213.138.148.213.396.078.247.078.616zm-1.044-.846q-.104 0-.188.034t-.144.097q-.058.062-.09.15-.033.087-.033.194 0 .229.121.34.12.11.334.11.058 0 .122-.01.067-.011.132-.03.066-.02.125-.044.06-.025.105-.053 0-.192-.026-.338-.023-.147-.082-.246-.056-.101-.148-.153-.093-.051-.228-.051z" transform="matrix(1.60022 0 0 1.60022 -124.619 -129.98)" aria-label="9" stroke-width=".027"/><g aria-label="10" stroke-width=".027"><path d="M116.883 140.998v-.467h.717v-1.809l-.625.345-.172-.429.893-.471h.442v2.364h.618v.467zM121.29 139.579q0 .347-.076.62-.075.273-.221.463-.145.187-.354.286-.208.1-.478.1-.232 0-.428-.083-.196-.081-.338-.256-.142-.176-.222-.45-.08-.273-.08-.654 0-.347.076-.62.078-.274.222-.461.144-.19.355-.288.211-.1.478-.1.232 0 .428.082.196.082.336.257.142.174.222.447.08.274.08.657zm-1.667.009v.082q0 .036.004.075l1.055-.762q-.075-.213-.2-.314-.123-.104-.29-.104-.121 0-.225.063-.103.06-.18.187-.076.127-.12.319-.044.191-.044.454zm1.137.009q0-.037-.002-.073l-.002-.073-1.048.757q.068.21.193.31.125.102.291.102.12 0 .224-.063.105-.062.18-.187.078-.127.121-.319.043-.194.043-.454z" transform="matrix(1.60022 0 0 1.60022 -124.619 -129.98)"/></g><g aria-label="11" stroke-width=".027"><path d="M130.165 141.007v-.467h.717v-1.808l-.624.344-.173-.428.894-.472h.441v2.364h.618v.467zM132.59 141.007v-.467h.716v-1.808l-.624.344-.173-.428.894-.472h.441v2.364h.618v.467z" transform="matrix(1.60022 0 0 1.60022 -124.619 -129.98)"/></g><g aria-label="12" stroke-width=".027"><path d="M91.812 167.477v-.467h.717v-1.808l-.624.344-.173-.428.894-.472h.441v2.364h.618v.467zM94.187 167.477v-.387l.665-.666q.187-.187.3-.322.113-.136.174-.242.062-.107.081-.198.02-.09.02-.187 0-.08-.026-.15-.026-.074-.075-.126-.05-.053-.125-.084-.076-.032-.173-.032-.165 0-.307.073-.143.071-.27.192l-.277-.357q.183-.17.411-.272.23-.103.497-.103.207 0 .375.054.168.051.286.155.12.103.185.258.067.155.067.358 0 .167-.045.314-.045.144-.131.282-.087.138-.214.275-.124.138-.286.291l-.409.39h1.186v.484z" transform="matrix(1.60022 0 0 1.60022 -124.619 -129.98)"/></g><g aria-label="13" stroke-width=".027"><path d="M110.326 166.133v-.467h.717v-1.809l-.624.345-.173-.429.894-.471h.441v2.364h.618v.467zM114.619 165.274q0 .209-.078.377-.077.165-.239.284-.159.116-.402.179-.243.062-.573.062-.073 0-.155-.004-.08-.002-.16-.009-.079-.004-.154-.013-.076-.006-.136-.017v-.457q.136.026.304.044.17.015.353.015.179 0 .308-.03t.213-.087q.084-.058.123-.142.04-.084.04-.19 0-.092-.04-.167-.041-.075-.125-.127-.084-.054-.216-.082-.129-.03-.307-.03h-.313v-.4h.287q.168 0 .277-.033.112-.034.177-.09.067-.056.095-.131.028-.078.028-.162 0-.172-.112-.26-.112-.09-.347-.09-.168 0-.331.032-.164.032-.338.086v-.442q.096-.032.185-.053.088-.022.176-.037.089-.015.179-.022.09-.006.187-.006.233 0 .407.05.177.05.295.142.12.09.18.222.061.131.061.293 0 .256-.118.415-.116.157-.327.241.135.022.245.076.11.051.187.135.08.082.12.19.044.107.044.239z" transform="matrix(1.60022 0 0 1.60022 -124.619 -129.98)"/></g><g aria-label="14" stroke-width=".027"><path d="M118.195 166.14v-.468h.717v-1.808l-.625.344-.172-.428.893-.472h.442v2.364h.618v.467zM122.197 165.567v.572h-.513v-.572h-1.308v-.45l1.098-1.791h.723v1.778h.426v.463zm-.506-1.733l-.8 1.27h.8z" transform="matrix(1.60022 0 0 1.60022 -124.619 -129.98)"/></g><g aria-label="15" stroke-width=".027"><path d="M136.796 166.118v-.467h.717v-1.809l-.625.345-.172-.429.894-.471h.441v2.364h.618v.467zM141.059 165.218q0 .226-.095.403-.095.174-.263.295-.168.12-.396.183-.228.062-.495.062-.067 0-.142-.004l-.153-.01q-.078-.007-.15-.018l-.136-.02v-.458q.122.03.282.05.159.017.325.017.323 0 .49-.123.17-.125.17-.345 0-.228-.156-.338-.158-.111-.509-.111h-.55v-1.497h1.623v.495h-1.133v.573h.203q.215 0 .41.039.197.038.345.135.15.095.24.259.09.163.09.413z" transform="matrix(1.60022 0 0 1.60022 -124.619 -129.98)"/></g><g aria-label="16" stroke-width=".027"><path d="M98.39 172.728v-.467h.717v-1.808l-.624.344-.172-.428.893-.472h.441v2.364h.618v.467zM102.746 171.837q0 .213-.078.388-.077.172-.215.297-.136.122-.325.19-.19.066-.416.066-.493 0-.753-.31t-.26-.947q0-.233.027-.442.028-.21.093-.387.066-.179.176-.323.112-.145.278-.244.166-.1.392-.155.226-.056.525-.056h.32v.446h-.374q-.232 0-.39.047-.157.048-.256.136-.099.088-.148.215-.05.127-.065.287l-.004.051q.112-.053.254-.088.145-.034.302-.034.228 0 .4.06.172.058.286.17.117.112.173.271.058.16.058.362zm-.547.024q0-.1-.026-.181-.026-.084-.082-.142-.054-.06-.14-.093-.084-.034-.202-.034-.07 0-.138.013-.067.01-.131.03-.063.02-.12.043-.057.024-.102.05 0 .217.03.368.03.148.09.243.063.095.153.138.093.04.213.04.104 0 .188-.034t.142-.097q.06-.064.092-.15.033-.089.033-.194z" transform="matrix(1.60022 0 0 1.60022 -124.619 -129.98)"/></g><g aria-label="17" stroke-width=".027"><path d="M130.174 171.43v-.467h.716v-1.808l-.624.344-.172-.428.893-.472h.442v2.364h.618v.467zM133.323 171.43h-.594l1.12-2.305h-1.35v-.508h1.955v.458z" transform="matrix(1.60022 0 0 1.60022 -124.619 -129.98)"/></g><g aria-label="18" stroke-width=".027"><path d="M116.935 176.712v-.468h.717v-1.808l-.624.344-.172-.428.893-.471h.442v2.363h.617v.468zM120.712 175.222q.105.058.2.129.097.069.168.161.073.09.114.207.043.114.043.26 0 .192-.078.339-.077.146-.215.245-.135.1-.32.149-.184.05-.397.05-.237 0-.42-.05-.18-.052-.305-.145-.123-.092-.188-.224-.062-.13-.062-.292 0-.145.04-.257.044-.114.117-.206.073-.093.168-.166.097-.073.205-.136-.097-.056-.183-.122-.084-.067-.149-.151-.065-.084-.103-.187-.037-.104-.037-.235 0-.153.058-.286.06-.136.177-.237.118-.101.295-.16.178-.058.417-.058.22 0 .392.048.172.045.289.131.118.086.178.207.063.118.063.263 0 .133-.037.24-.036.108-.099.197-.062.086-.148.157-.086.069-.183.129zm-.414-.203q.078-.043.144-.09.07-.05.119-.108.05-.058.08-.127t.03-.152q0-.14-.11-.214-.11-.073-.317-.073-.202 0-.312.076-.11.075-.11.226 0 .081.037.146.037.065.101.12.065.054.15.102.09.047.188.094zm-.11.476q-.084.045-.159.097-.073.052-.13.114-.053.063-.085.138-.032.073-.032.166 0 .163.127.25.127.086.335.086.095 0 .18-.02.083-.02.146-.06.064-.041.1-.103.037-.065.037-.153 0-.09-.04-.162-.042-.073-.113-.133-.07-.06-.165-.114-.095-.054-.2-.106z" transform="matrix(1.60022 0 0 1.60022 -124.619 -129.98)"/></g></g><path d="M40.481 97.631h6.35M61.648 97.631h6.35M82.815 97.631h6.35" fill="#444" stroke="#000" stroke-width=".529" stroke-linecap="round" stroke-linejoin="round"/><path d="M91.281 93.398v-4.233h-8.466M70.115 93.398v-4.233h8.466M48.948 93.398v-4.233H40.48M27.781 93.398v-4.233h8.467M38.365 84.931v-4.233h19.05M80.698 84.931h-19.05v-4.233M110.331 76.465v-19.05" fill="none" stroke="#000" stroke-width=".529" stroke-linecap="round" stroke-linejoin="round"/><path d="M12.965 44.715h69.85" fill="none" stroke="#000b00" stroke-width=".529" stroke-linecap="round" stroke-linejoin="round"/><path d="M65.881 65.881h4.234M74.348 63.765V48.948H27.78" fill="none" stroke="#000" stroke-width=".529" stroke-linecap="round" stroke-linejoin="round"/><path d="M61.648 57.415H19.315v8.466h4.233M27.781 48.948v8.467M32.015 48.948v8.467M36.248 48.948v8.467M40.481 48.948v8.467M44.715 48.948v8.467M48.948 48.948v8.467M53.181 48.948v8.467M57.415 48.948v8.467M61.648 48.948v8.467" fill="none" stroke="#000" stroke-width=".529" stroke-linecap="round" stroke-linejoin="round"/><path fill="#282d36" stroke="#0f0" stroke-width=".529" stroke-linecap="round" stroke-linejoin="round" d="M26.723 50.006h2.117v6.35h-2.117zM30.956 50.006h2.117v6.35h-2.117zM35.19 50.006h2.117v6.35H35.19zM39.423 50.006h2.117v6.35h-2.117zM43.656 50.006h2.117v6.35h-2.117zM47.89 50.006h2.117v6.35H47.89zM52.123 50.006h2.117v6.35h-2.117zM56.356 50.006h2.117v6.35h-2.117zM60.59 50.006h2.117v6.35H60.59z"/><path d="M74.348 67.998H84.93v2.117M82.815 74.348H72.23" fill="none" stroke="#000" stroke-width=".529" stroke-linecap="round" stroke-linejoin="round"/><path d="M67.998 76.465H59.53" fill="#282d36" stroke="#000" stroke-width=".529" stroke-linecap="round" stroke-linejoin="round"/><g transform="matrix(0 -1.6 1.60043 0 -134.228 188.649)" stroke-width=".331" stroke-linecap="round" stroke-linejoin="round"><path d="M76.73 127.679l1.322 2.646M76.73 127.679l-1.324 2.646" fill="none" stroke="#000"/><circle cy="130.325" cx="75.406" r=".529" fill="#282d36" stroke="#00f"/><circle cy="127.679" cx="76.729" r=".529" fill="#282d36" stroke="#0f0"/><circle cy="130.325" cx="78.052" r=".529" fill="#282d36" stroke="red"/></g><path d="M82.815 44.715v2.116h16.933M87.048 74.348h6.35M97.631 76.465h12.7M93.398 78.581H72.23" fill="none" stroke="#000" stroke-width=".529" stroke-linecap="round" stroke-linejoin="round"/><g aria-label="Battery" fill="red" stroke-width=".265"><path d="M8.11 10.318V5.815h1.455q.768 0 1.15.269.386.268.386.813 0 .169-.041.33-.038.159-.12.293-.083.135-.207.238-.125.103-.293.162.168.027.32.11.155.08.269.21.117.128.182.303.07.176.07.393 0 .69-.462 1.037-.462.345-1.334.345zm2.11-3.273q0-.128-.042-.23-.042-.104-.135-.177-.09-.072-.234-.11-.141-.041-.344-.041H8.95v1.192h.514q.206 0 .348-.048.144-.052.234-.138.093-.09.13-.204.042-.113.042-.244zm-.676 2.58q.203 0 .355-.051.155-.052.258-.142.104-.093.155-.217.055-.124.055-.265 0-.293-.22-.458-.217-.166-.669-.166h-.527v1.3zM14.219 10.318l-.02-.458q-.111.117-.232.217-.12.096-.265.168-.145.073-.317.11-.169.042-.372.042-.269 0-.472-.08-.203-.079-.34-.22-.139-.141-.211-.34-.069-.2-.069-.442 0-.248.103-.458.107-.21.32-.362.218-.151.538-.237.324-.087.758-.087h.458v-.21q0-.134-.038-.24-.037-.111-.124-.187-.082-.076-.217-.117-.134-.041-.33-.041-.31 0-.614.072-.3.069-.582.196v-.671q.252-.1.579-.166.33-.065.686-.065.389 0 .668.075.279.073.458.221.183.148.269.372.086.22.086.517v2.39zm-.12-1.547h-.514q-.214 0-.362.041-.148.042-.24.114-.094.072-.139.169-.041.093-.041.2 0 .213.138.327.138.11.375.11.176 0 .366-.127.189-.128.416-.366zM18.79 10.283q-.227.052-.458.083-.23.031-.437.031-.345 0-.596-.072-.248-.073-.414-.22-.161-.149-.24-.376-.077-.231-.077-.548V7.472h-.94v-.655h.94v-.895l.862-.224v1.12h1.36v.654h-1.36V9.12q0 .3.138.455.137.151.461.151.207 0 .403-.034.197-.035.359-.08zM22.67 10.283q-.228.052-.458.083-.231.031-.438.031-.344 0-.596-.072-.248-.073-.413-.22-.162-.149-.242-.376-.075-.231-.075-.548V7.472h-.94v-.655h.94v-.895l.86-.224v1.12h1.362v.654h-1.361V9.12q0 .3.138.455.138.151.461.151.207 0 .403-.034.197-.035.359-.08zM26.71 8.299q0 .086-.006.224-.003.138-.014.258H24.39q0 .231.069.407.072.175.2.296.13.117.31.18.182.061.403.061.255 0 .544-.038.293-.041.606-.13v.668q-.134.038-.292.069-.159.03-.324.055-.166.024-.334.034-.17.014-.328.014-.4 0-.716-.114-.317-.113-.538-.334-.22-.224-.337-.551-.118-.327-.118-.758 0-.427.118-.775.117-.352.33-.6.214-.251.517-.385.307-.138.682-.138.372 0 .658.117.286.114.48.32.192.207.292.493.1.286.1.627zm-.854-.12q.004-.207-.051-.359-.055-.155-.152-.255-.093-.1-.22-.148-.124-.048-.269-.048-.317 0-.52.213-.203.21-.241.596zM29.794 8.178q.007-.196-.02-.334-.025-.138-.083-.227-.055-.09-.138-.131-.083-.041-.19-.041-.185 0-.385.155-.197.151-.434.503v2.215h-.862v-3.5h.762l.03.51q.087-.135.194-.242.11-.107.24-.182.135-.08.297-.121.162-.041.355-.041.265 0 .468.093.207.09.345.268.141.18.207.452.069.268.058.623zM33.525 9.935q-.182.455-.382.796-.197.345-.434.572-.238.23-.53.345-.29.117-.652.117-.086 0-.19-.01-.1-.008-.206-.025v-.713l.093.014q.055.01.114.014.058.007.117.01.062.003.113.003.145 0 .27-.055.123-.055.227-.155.106-.096.192-.234.087-.134.152-.296l-1.388-3.5h.937l.727 1.984.217.64.213-.613.734-2.012h.903z"/></g><g aria-label="Discharger" fill="red" stroke-width=".265"><path d="M12.085 29.37q0 .524-.131.952-.128.427-.403.73-.272.3-.7.465-.427.162-1.023.162H8.684v-4.503h1.334q.516 0 .902.131.39.128.648.396.258.27.386.683.13.413.13.985zm-.91.056q0-.365-.058-.651-.059-.286-.2-.482-.138-.2-.372-.304-.235-.103-.582-.103h-.431v3.083h.372q.624 0 .947-.372.324-.372.324-1.171zM14.806 27.221q0 .114-.041.214-.041.1-.117.175-.072.073-.172.118-.1.04-.217.04-.118 0-.22-.04-.1-.045-.177-.118-.072-.075-.113-.175-.042-.1-.042-.214 0-.114.042-.214.041-.1.113-.175.076-.076.176-.117.103-.045.22-.045.118 0 .218.045.1.041.172.117.076.076.117.175.041.1.041.214zm-.93 1.612h-.989v-.654h1.85v2.845h1.01v.655h-2.98v-.655h1.11zM19.512 30.649q0 .3-.134.513-.13.21-.351.345-.217.13-.497.19-.275.061-.565.061-.385 0-.695-.038-.31-.034-.586-.103v-.758q.324.134.644.196.324.059.61.059.33 0 .493-.103.165-.107.165-.276 0-.08-.035-.145-.034-.065-.13-.124-.093-.062-.266-.124-.172-.065-.451-.144-.258-.073-.455-.162-.193-.093-.32-.217-.128-.124-.193-.286-.062-.166-.062-.386 0-.214.096-.403.097-.19.286-.33.193-.146.48-.228.285-.083.668-.083.33 0 .585.034.255.035.452.076v.686q-.3-.097-.565-.135-.262-.04-.52-.04-.26 0-.418.092-.155.093-.155.259 0 .079.031.14.031.063.121.121.093.059.255.124.165.062.434.138.303.086.51.186.207.097.33.22.128.125.183.283.055.159.055.362zM23.336 31.545q-.248.1-.513.148-.265.048-.555.048-.416 0-.747-.114-.33-.113-.562-.337-.23-.224-.355-.555-.12-.33-.12-.765 0-.42.13-.761.135-.341.376-.582.241-.241.58-.372.34-.131.757-.131.341 0 .572.038.234.034.42.09v.816q-.213-.107-.465-.166-.248-.058-.472-.058-.234 0-.42.079-.186.08-.314.22-.127.142-.196.345-.066.2-.066.44 0 .252.073.452.072.2.203.341.134.138.32.214.187.072.414.072.11 0 .23-.014.125-.017.245-.044.124-.031.241-.07.121-.037.224-.082zM26.471 31.679v-2.28q0-.576-.427-.576-.213 0-.41.172-.193.173-.41.469v2.215h-.84v-4.868h.84v1.199l-.041.634q.107-.128.217-.227.11-.104.238-.173.127-.069.275-.103.148-.038.328-.038.268 0 .468.09.2.086.334.248.135.158.2.385.069.224.069.503v2.35zM30.457 31.679l-.02-.458q-.11.117-.231.217-.12.096-.265.169-.145.072-.317.11-.17.041-.372.041-.27 0-.472-.079-.204-.08-.341-.22-.138-.142-.21-.342-.07-.2-.07-.44 0-.249.104-.459.107-.21.32-.361.217-.152.538-.238.324-.086.758-.086h.458v-.21q0-.135-.038-.242-.038-.11-.124-.186-.083-.075-.217-.117-.134-.041-.33-.041-.31 0-.614.072-.3.07-.582.197v-.672q.251-.1.578-.166.331-.065.686-.065.39 0 .668.076.28.072.459.22.182.148.268.372.086.22.086.517v2.391zm-.12-1.547h-.513q-.214 0-.362.042-.148.04-.241.113-.093.073-.138.169-.042.093-.042.2 0 .213.138.327.138.11.376.11.176 0 .365-.127.19-.128.417-.365zM34.395 29.54q.007-.197-.02-.335-.025-.137-.083-.227-.055-.09-.138-.13-.083-.042-.19-.042-.186 0-.385.155-.197.151-.434.503v2.215h-.862v-3.5h.762l.03.51q.087-.135.194-.241.11-.107.24-.183.135-.08.297-.12.162-.042.355-.042.265 0 .468.093.207.09.345.269.141.179.207.451.069.269.058.624zM38.646 28.792q.097.12.135.255.041.13.041.269 0 .293-.103.516-.1.224-.286.376-.183.152-.441.23-.255.077-.565.077-.183 0-.338-.035-.155-.038-.234-.086-.059.059-.1.13-.041.07-.041.16 0 .055.027.11.028.055.08.1.055.04.127.068.076.028.169.031l.83.031q.28.007.503.073.227.062.39.179.161.117.247.286.09.165.09.379 0 .244-.11.462-.11.217-.334.375-.22.162-.552.255-.33.093-.768.093-.424 0-.73-.069-.303-.065-.5-.186-.193-.12-.286-.29-.093-.165-.093-.365 0-.12.031-.223.031-.104.093-.2.062-.093.155-.183t.22-.179q-.168-.096-.258-.248-.086-.152-.086-.324 0-.117.031-.217.031-.103.08-.196.051-.093.117-.18.065-.086.137-.168-.127-.128-.213-.307-.083-.182-.083-.455 0-.292.104-.52.106-.23.292-.386.186-.158.441-.237.259-.083.562-.083.155 0 .296.017.145.014.262.052h1.213v.613zm-1.98 3.352q0 .203.203.3.206.096.579.096.237 0 .4-.044.165-.045.268-.118.103-.072.148-.168.045-.097.045-.2 0-.093-.045-.159-.041-.062-.12-.107-.076-.04-.183-.065-.104-.02-.231-.028l-.74-.013q-.1.069-.166.13-.062.063-.1.121-.034.062-.048.124-.01.062-.01.131zm.14-2.808q0 .28.163.445.165.162.458.162.155 0 .269-.052.117-.052.192-.138.076-.086.114-.2.038-.113.038-.237 0-.293-.165-.455-.162-.165-.455-.165-.155 0-.272.051-.114.052-.19.142-.075.086-.113.203-.038.117-.038.244zM42.95 29.66q0 .086-.008.224-.003.138-.013.259h-2.302q0 .23.07.406.072.176.199.296.131.117.31.18.183.061.403.061.255 0 .545-.037.292-.042.606-.131v.668q-.135.038-.293.069-.158.03-.324.055-.165.024-.334.034-.169.014-.327.014-.4 0-.717-.113-.317-.114-.537-.335-.22-.224-.338-.55-.117-.328-.117-.759 0-.427.117-.775.117-.351.33-.6.214-.25.518-.385.306-.138.682-.138.372 0 .658.117.286.114.479.32.193.207.292.493.1.286.1.627zm-.855-.12q.003-.207-.052-.359-.055-.155-.151-.255-.093-.1-.22-.148-.125-.048-.27-.048-.316 0-.52.214-.203.21-.24.596zM46.033 29.54q.007-.197-.021-.335-.024-.137-.083-.227-.055-.09-.137-.13-.083-.042-.19-.042-.186 0-.386.155-.196.151-.434.503v2.215h-.861v-3.5h.761l.031.51q.086-.135.193-.241.11-.107.241-.183.135-.08.297-.12.162-.042.354-.042.266 0 .469.093.207.09.344.269.142.179.207.451.07.269.059.624z"/></g><g aria-label="Statuslight" fill="red" stroke-width=".265"><path d="M58.73 28.202q0 .368-.137.64-.134.273-.379.452-.244.175-.582.261-.338.087-.737.087-.355 0-.686-.042-.33-.041-.654-.138v-.837q.158.055.33.104.173.048.345.086.176.034.348.055.172.02.334.02.241 0 .41-.04.169-.042.276-.114.106-.073.155-.173.048-.1.048-.22 0-.166-.097-.276-.093-.113-.248-.2-.155-.086-.355-.155-.196-.069-.403-.148-.203-.079-.403-.179-.196-.1-.351-.248-.155-.148-.252-.351-.093-.207-.093-.496 0-.266.097-.503.096-.238.303-.414.207-.179.53-.282.324-.107.783-.107.134 0 .279.014.148.01.289.03.145.018.276.045.134.025.244.052v.775q-.11-.041-.24-.076-.132-.034-.273-.058-.138-.028-.28-.041-.14-.014-.268-.014-.224 0-.379.038-.155.034-.255.1-.1.062-.144.155-.045.093-.045.206 0 .142.093.245.096.1.251.182.159.08.355.152.2.069.407.152.21.079.406.182.2.104.355.252.158.148.251.351.097.2.097.476zM62.462 29.528q-.227.052-.458.083-.231.03-.438.03-.344 0-.596-.072-.248-.072-.413-.22-.162-.148-.241-.376-.076-.23-.076-.548v-1.708h-.94v-.655h.94v-.896l.861-.224v1.12h1.361v.655h-1.36v1.646q0 .3.137.455.138.152.462.152.206 0 .403-.035.196-.034.358-.079zM65.649 29.562l-.021-.458q-.11.117-.23.217-.121.097-.266.169-.145.072-.317.11-.169.042-.372.042-.269 0-.472-.08-.203-.079-.341-.22-.138-.141-.21-.341-.07-.2-.07-.441 0-.248.104-.458.107-.21.32-.362.218-.152.538-.238.324-.086.758-.086h.458v-.21q0-.134-.038-.241-.038-.11-.124-.186-.082-.076-.217-.117-.134-.042-.33-.042-.31 0-.614.073-.3.069-.582.196v-.672q.251-.1.579-.165.33-.066.685-.066.39 0 .669.076.279.072.458.22.182.149.269.373.086.22.086.516v2.391zm-.12-1.546h-.514q-.214 0-.362.04-.148.042-.241.115-.093.072-.138.168-.041.093-.041.2 0 .214.138.327.137.11.375.11.176 0 .365-.127.19-.127.417-.365zM70.22 29.528q-.227.052-.458.083-.23.03-.437.03-.345 0-.596-.072-.248-.072-.414-.22-.162-.148-.24-.376-.077-.23-.077-.548v-1.708h-.94v-.655h.94v-.896l.862-.224v1.12h1.36v.655h-1.36v1.646q0 .3.137.455.138.152.462.152.207 0 .403-.035.196-.034.358-.079zM72.046 26.062v2.28q0 .287.107.435.107.145.324.145.21 0 .403-.173.196-.175.413-.472v-2.215h.841v3.5h-.727l-.02-.516q-.11.134-.225.244-.113.11-.248.19-.13.075-.289.117-.155.045-.344.045-.27 0-.472-.087-.2-.09-.335-.251-.134-.162-.203-.386-.065-.227-.065-.506v-2.35zM77.979 28.532q0 .3-.135.514-.13.21-.351.344-.217.131-.496.19-.276.062-.565.062-.386 0-.696-.038-.31-.035-.586-.104v-.758q.324.135.645.197.323.058.61.058.33 0 .492-.103.165-.107.165-.276 0-.079-.034-.144-.035-.066-.131-.124-.093-.062-.265-.124-.173-.066-.452-.145-.258-.072-.454-.162-.193-.093-.32-.217-.128-.124-.194-.286-.062-.165-.062-.386 0-.213.097-.403.096-.19.286-.33.193-.145.479-.228.285-.083.668-.083.33 0 .586.035.255.034.45.076v.685q-.299-.096-.564-.134-.262-.042-.52-.042-.259 0-.417.093-.155.094-.155.259 0 .08.03.141.032.062.121.12.093.06.255.125.166.062.434.138.304.086.51.186.207.096.331.22.127.124.183.283.055.158.055.361zM80.1 25.349h-.988v-.655h1.85v4.214h1.01v.654h-2.98v-.654H80.1zM84.91 25.104q0 .114-.041.214-.041.1-.117.176-.073.072-.172.117-.1.041-.218.041-.117 0-.22-.041-.1-.045-.176-.117-.072-.076-.113-.176-.042-.1-.042-.214 0-.113.042-.213.04-.1.113-.176.076-.076.176-.117.103-.045.22-.045.118 0 .218.045.1.041.172.117.076.076.117.176.041.1.041.213zm-.93 1.613h-.989v-.655h1.85v2.846h1.01v.654h-2.98v-.654h1.11zM89.354 26.675q.097.121.135.255.041.131.041.269 0 .293-.103.517-.1.224-.286.375-.183.152-.441.231-.255.076-.565.076-.183 0-.338-.035-.155-.037-.234-.086-.059.059-.1.131-.041.07-.041.159 0 .055.027.11.028.055.08.1.055.041.127.069.076.027.169.03l.83.032q.28.007.503.072.227.062.39.18.161.116.247.285.09.166.09.38 0 .244-.11.46-.11.218-.334.376-.22.162-.552.255-.33.093-.768.093-.424 0-.73-.069-.303-.065-.5-.186-.193-.12-.286-.289-.093-.165-.093-.365 0-.12.031-.224.031-.103.093-.2.062-.093.155-.183t.22-.179q-.168-.096-.258-.248-.086-.151-.086-.324 0-.117.031-.217.031-.103.08-.196.051-.093.117-.18.065-.085.137-.168-.127-.127-.213-.307-.083-.182-.083-.454 0-.293.104-.52.106-.231.292-.386.186-.159.441-.238.259-.083.562-.083.155 0 .296.017.145.014.262.052h1.213v.613zm-1.98 3.352q0 .204.203.3.206.097.579.097.237 0 .4-.045.165-.045.268-.117.103-.073.148-.17.045-.096.045-.199 0-.093-.045-.158-.041-.062-.12-.107-.076-.042-.183-.066-.104-.02-.231-.027l-.74-.014q-.1.069-.166.13-.062.063-.1.122-.034.062-.048.124-.01.062-.01.13zm.14-2.807q0 .279.163.444.165.162.458.162.155 0 .269-.052.117-.051.192-.137.076-.087.114-.2.038-.114.038-.238 0-.293-.165-.455-.162-.165-.455-.165-.155 0-.272.052-.114.051-.19.14-.075.087-.113.204-.038.117-.038.245zM92.696 29.562v-2.28q0-.576-.427-.576-.214 0-.41.173-.193.172-.41.468v2.215h-.84v-4.868h.84v1.2l-.041.633q.106-.127.217-.227.11-.103.237-.172.128-.07.276-.104.148-.038.327-.038.27 0 .469.09.2.086.334.248.134.158.2.386.069.224.069.503v2.35zM97.375 29.528q-.228.052-.459.083-.23.03-.437.03-.345 0-.596-.072-.248-.072-.414-.22-.161-.148-.24-.376-.076-.23-.076-.548v-1.708h-.941v-.655h.94v-.896l.862-.224v1.12h1.36v.655h-1.36v1.646q0 .3.138.455.137.152.461.152.207 0 .403-.035.197-.034.359-.079z"/></g><g aria-label="Lock Indicator" fill="red" stroke-width=".265"><path d="M73.043 11.155V6.652h.86v3.776h1.903v.727zM79.874 9.377q0 .414-.117.758-.117.341-.338.586-.22.244-.54.379-.32.134-.73.134-.39 0-.697-.114-.306-.113-.52-.337-.214-.228-.327-.565-.114-.341-.114-.793 0-.416.117-.757.12-.342.341-.583.224-.24.545-.372.32-.134.723-.134.393 0 .7.117.306.114.52.341.213.227.323.565.114.334.114.775zm-.875.02q0-.543-.207-.816-.203-.275-.602-.275-.221 0-.376.086t-.255.238q-.1.148-.148.348-.045.2-.045.427 0 .548.22.827.221.275.604.275.21 0 .365-.082.155-.087.251-.235.097-.151.145-.355.048-.203.048-.437zM83.433 11.02q-.248.1-.513.149-.266.048-.555.048-.417 0-.748-.114-.33-.113-.561-.337-.231-.224-.355-.555-.12-.33-.12-.765 0-.42.13-.761.135-.341.376-.582.241-.242.579-.373.34-.13.758-.13.34 0 .571.037.235.035.42.09v.816q-.213-.106-.464-.165-.248-.058-.472-.058-.235 0-.42.079-.187.079-.314.22-.128.142-.197.345-.065.2-.065.44 0 .252.072.452.073.2.204.341.134.138.32.214.186.072.413.072.11 0 .231-.014.124-.017.245-.044.124-.031.241-.07.12-.037.224-.082zM86.647 11.155l-1.292-1.75v1.75h-.84V6.287h.84v2.849l1.223-1.481h1.051L86.21 9.25l1.537 1.905zM92.277 7.345v-.693h2.845v.693h-.992v3.11h.992v.7h-2.845v-.7h.992v-3.11zM98.206 11.155v-2.28q0-.576-.428-.576-.213 0-.41.172-.193.172-.41.469v2.215h-.84v-3.5h.727l.02.516q.107-.134.22-.244.118-.11.252-.186.135-.08.29-.12.155-.042.348-.042.268 0 .468.09.2.086.334.247.135.159.2.386.07.224.07.503v2.35zM102.198 11.155l-.02-.517q-.11.134-.228.245-.117.11-.251.19-.135.075-.29.116-.151.045-.337.045-.31 0-.551-.124-.242-.124-.407-.351-.162-.231-.248-.558-.086-.328-.086-.73 0-.483.134-.834.138-.355.38-.586.24-.234.571-.345.33-.113.72-.113.131 0 .262.017.134.017.238.045V6.287h.84v4.868zm-1.536-1.723q0 .29.038.496.041.204.117.335.08.13.193.193.114.058.258.058.214 0 .407-.172.193-.172.41-.472V8.34q-.1-.038-.248-.062-.145-.024-.293-.024-.203 0-.365.083-.162.082-.28.234-.113.152-.175.372-.062.217-.062.49zM105.936 6.697q0 .114-.041.214-.041.1-.117.175-.073.073-.172.117-.1.042-.217.042-.118 0-.22-.042-.1-.044-.177-.117-.072-.076-.113-.175-.042-.1-.042-.214 0-.114.042-.214.041-.1.113-.175.076-.076.176-.118.103-.044.22-.044.118 0 .218.044.1.042.172.118.076.075.117.175.041.1.041.214zm-.93 1.612h-.989v-.654h1.85V10.5h1.01v.655h-2.98V10.5h1.11zM110.587 11.02q-.248.1-.513.149-.265.048-.555.048-.417 0-.747-.114-.331-.113-.562-.337-.23-.224-.355-.555-.12-.33-.12-.765 0-.42.13-.761.135-.341.376-.582.241-.242.579-.373.34-.13.758-.13.34 0 .572.037.234.035.42.09v.816q-.214-.106-.465-.165-.248-.058-.472-.058-.234 0-.42.079-.186.079-.314.22-.127.142-.196.345-.066.2-.066.44 0 .252.073.452.072.2.203.341.134.138.32.214.186.072.414.072.11 0 .23-.014.124-.017.245-.044.124-.031.241-.07.12-.037.224-.082zM113.829 11.155l-.02-.458q-.11.117-.231.217-.121.096-.266.169-.144.072-.317.11-.169.041-.372.041-.268 0-.472-.08-.203-.078-.34-.22-.139-.14-.211-.34-.069-.2-.069-.442 0-.248.103-.458.107-.21.32-.362.218-.151.538-.237.324-.086.758-.086h.458v-.21q0-.135-.037-.242-.038-.11-.124-.186-.083-.076-.218-.117-.134-.041-.33-.041-.31 0-.613.072-.3.069-.583.196V7.81q.252-.1.58-.166.33-.065.685-.065.389 0 .668.076.279.072.458.22.183.148.269.372.086.22.086.517v2.39zm-.12-1.547h-.514q-.213 0-.362.041-.148.042-.24.114-.094.072-.139.169-.04.093-.04.2 0 .213.137.327.138.11.375.11.176 0 .366-.127.19-.128.417-.365zM118.4 11.12q-.227.052-.458.083-.23.031-.437.031-.345 0-.596-.072-.248-.073-.413-.22-.162-.149-.242-.376-.075-.231-.075-.548V8.309h-.94v-.654h.94v-.896l.86-.224v1.12h1.362v.654h-1.361v1.647q0 .3.138.455.137.151.461.151.207 0 .403-.034.197-.035.359-.08zM122.545 9.377q0 .414-.117.758-.117.341-.338.586-.22.244-.54.379-.32.134-.73.134-.39 0-.697-.114-.306-.113-.52-.337-.214-.228-.327-.565-.114-.341-.114-.793 0-.416.117-.757.12-.342.341-.583.224-.24.545-.372.32-.134.723-.134.393 0 .7.117.306.114.52.341.213.227.323.565.114.334.114.775zm-.875.02q0-.543-.207-.816-.203-.275-.603-.275-.22 0-.375.086t-.255.238q-.1.148-.148.348-.045.2-.045.427 0 .548.22.827.221.275.603.275.21 0 .366-.082.155-.087.251-.235.097-.151.145-.355.048-.203.048-.437zM125.525 9.015q.007-.196-.02-.334-.025-.138-.083-.227-.055-.09-.138-.131-.083-.041-.19-.041-.186 0-.385.155-.197.151-.434.503v2.215h-.862v-3.5h.762l.03.51q.087-.135.194-.242.11-.106.24-.182.135-.08.297-.12.162-.042.355-.042.265 0 .468.093.207.09.345.269.141.179.207.45.069.27.058.624z"/></g><g aria-label="Switch" fill="red" stroke-width=".265"><path d="M40.892 164.352q0 .369-.138.64-.135.273-.38.452-.244.176-.581.262-.338.086-.738.086-.355 0-.685-.041-.331-.042-.655-.138v-.837q.159.055.33.103.173.048.345.086.176.035.348.055.173.021.335.021.24 0 .41-.041.168-.042.275-.114.107-.072.155-.172.048-.1.048-.22 0-.166-.096-.276-.093-.114-.248-.2-.155-.086-.355-.155-.196-.069-.403-.148-.203-.08-.403-.18-.196-.1-.352-.247-.155-.149-.251-.352-.093-.207-.093-.496 0-.265.096-.503.097-.238.304-.413.206-.18.53-.283.324-.107.782-.107.135 0 .28.014.147.01.289.031.144.017.275.045.135.024.245.052v.775q-.11-.041-.241-.076-.131-.034-.272-.059-.138-.027-.28-.04-.14-.015-.268-.015-.224 0-.38.038-.154.035-.254.1-.1.062-.145.155-.045.093-.045.207 0 .141.093.244.097.1.252.183.158.08.355.152.2.069.406.151.21.08.407.183.2.103.355.251.158.148.251.352.097.2.097.475zM44.609 165.713h-.934l-.372-1.11-.114-.385-.113.396-.359 1.099h-.937l-.496-3.5h.8l.251 1.977.059.541.14-.486.352-1.064h.641l.376 1.057.161.5.066-.555.21-1.97h.761zM47.675 161.255q0 .114-.041.214-.042.1-.118.175-.072.073-.172.117-.1.042-.217.042-.117 0-.22-.042-.1-.044-.176-.117-.072-.076-.114-.175-.041-.1-.041-.214 0-.114.041-.214.042-.1.114-.175.076-.076.176-.118.103-.044.22-.044t.217.044q.1.042.172.118.076.075.118.175.041.1.041.214zm-.93 1.612h-.989v-.654h1.85v2.845h1.01v.655h-2.98v-.655h1.109zM52.381 165.678q-.227.052-.458.083-.231.031-.438.031-.344 0-.596-.072-.248-.073-.413-.22-.162-.149-.241-.376-.076-.231-.076-.548v-1.709h-.94v-.654h.94v-.896l.861-.224v1.12h1.361v.654h-1.36v1.647q0 .3.137.455.138.151.462.151.206 0 .403-.034.196-.035.358-.08zM56.205 165.579q-.248.1-.513.148-.266.048-.555.048-.417 0-.748-.114-.33-.113-.561-.337-.23-.224-.355-.555-.12-.33-.12-.765 0-.42.13-.761.135-.341.376-.582.241-.242.579-.373.34-.13.758-.13.34 0 .571.037.235.035.42.09v.817q-.213-.107-.464-.166-.248-.058-.472-.058-.235 0-.42.079-.187.079-.314.22-.128.141-.196.345-.066.2-.066.44 0 .252.072.452.073.2.204.341.134.138.32.214.186.072.414.072.11 0 .23-.014.124-.017.245-.045.124-.03.241-.068.12-.038.224-.083zM59.34 165.713v-2.28q0-.576-.427-.576-.214 0-.41.172-.193.172-.41.469v2.215h-.84v-4.868h.84v1.199l-.041.634q.106-.128.217-.228.11-.103.237-.172.128-.069.276-.103.148-.038.327-.038.269 0 .469.09.2.086.334.248.134.158.2.385.069.224.069.503v2.35z"/></g><g aria-label="Powergrid" fill="red" stroke-width=".265"><path d="M88.002 164.076q0 .352-.118.651-.117.297-.348.514-.23.217-.575.337-.344.12-.8.12h-.43v1.448h-.854v-4.503h1.32q.437 0 .771.096.338.093.565.276.23.183.348.451.12.266.12.61zm-.89.059q0-.18-.058-.324-.055-.148-.172-.252-.114-.103-.29-.158-.175-.055-.416-.055h-.445v1.65h.472q.22 0 .39-.059.168-.062.282-.175.117-.114.176-.272.062-.159.062-.355zM91.922 165.368q0 .413-.117.758-.117.341-.338.586-.22.244-.54.379-.321.134-.731.134-.39 0-.696-.114-.306-.113-.52-.337-.214-.228-.327-.565-.114-.341-.114-.793 0-.417.117-.758.12-.34.341-.582.224-.241.544-.372.32-.134.724-.134.393 0 .7.117.306.114.52.34.213.228.323.566.114.334.114.775zm-.875.02q0-.544-.207-.816-.203-.275-.603-.275-.22 0-.375.086t-.255.237q-.1.149-.148.348-.045.2-.045.428 0 .547.22.826.221.276.603.276.21 0 .366-.083.155-.086.251-.234.097-.152.145-.355.048-.203.048-.437zM95.522 167.146h-.933l-.373-1.11-.113-.385-.114.396-.358 1.099h-.937l-.496-3.5h.799l.251 1.977.059.54.141-.485.352-1.064h.64l.376 1.057.162.5.065-.555.21-1.97h.762zM99.577 165.127q0 .086-.007.224-.003.138-.014.258h-2.301q0 .231.069.407.072.175.2.296.13.117.31.18.182.061.403.061.255 0 .544-.038.293-.041.607-.13v.668q-.135.038-.293.069-.159.03-.324.055-.165.024-.334.034-.17.014-.328.014-.4 0-.716-.114-.317-.113-.538-.334-.22-.224-.337-.551-.117-.327-.117-.758 0-.427.117-.775.117-.352.33-.6.214-.251.517-.386.307-.137.682-.137.372 0 .658.117.286.113.48.32.192.207.292.493.1.286.1.627zm-.854-.12q.003-.207-.052-.359-.055-.155-.152-.255-.093-.1-.22-.148-.124-.048-.269-.048-.317 0-.52.213-.203.21-.241.596zM102.66 165.006q.007-.196-.02-.334-.024-.138-.083-.227-.055-.09-.138-.131-.083-.041-.19-.041-.185 0-.385.155-.197.151-.434.503v2.215h-.861v-3.5h.76l.032.51q.086-.135.193-.242.11-.107.241-.182.134-.08.296-.12.162-.042.355-.042.265 0 .469.093.206.09.344.269.141.179.207.45.069.27.058.624zM106.912 164.259q.096.12.134.255.041.13.041.268 0 .293-.103.517-.1.224-.286.376-.183.151-.44.23-.256.076-.566.076-.183 0-.338-.034-.155-.038-.234-.086-.058.058-.1.13-.041.07-.041.16 0 .054.028.11.027.055.079.1.055.04.127.068.076.028.17.031l.83.031q.278.007.502.073.228.062.39.179.162.117.248.286.09.165.09.379 0 .244-.111.461-.11.217-.334.376-.22.162-.551.255-.331.093-.769.093-.423 0-.73-.07-.303-.065-.5-.185-.192-.12-.285-.29-.093-.165-.093-.365 0-.12.03-.224.032-.103.094-.2.062-.093.155-.182.093-.09.22-.18-.169-.096-.258-.247-.086-.152-.086-.324 0-.117.03-.217.032-.104.08-.197.051-.093.117-.179.065-.086.138-.169-.128-.127-.214-.306-.083-.183-.083-.455 0-.293.104-.52.107-.231.293-.386.186-.158.44-.238.259-.082.562-.082.155 0 .296.017.145.014.262.051h1.213v.614zm-1.981 3.352q0 .203.203.3.207.096.579.096.237 0 .4-.045.165-.045.268-.117.103-.072.148-.169.045-.096.045-.2 0-.093-.045-.158-.041-.062-.12-.107-.076-.041-.183-.065-.103-.02-.23-.028l-.741-.014q-.1.07-.166.131-.062.062-.1.12-.034.063-.048.125-.01.062-.01.13zm.141-2.808q0 .28.162.444.165.162.458.162.155 0 .269-.051.117-.052.193-.138.076-.086.113-.2.038-.114.038-.238 0-.292-.165-.454-.162-.166-.455-.166-.155 0-.272.052-.114.052-.19.141-.075.086-.113.203-.038.118-.038.245zM110.419 165.006q.007-.196-.02-.334-.025-.138-.084-.227-.055-.09-.137-.131-.083-.041-.19-.041-.186 0-.386.155-.196.151-.434.503v2.215h-.861v-3.5h.761l.031.51q.086-.135.193-.242.11-.107.241-.182.135-.08.297-.12.162-.042.354-.042.266 0 .469.093.207.09.344.269.142.179.207.45.07.27.059.624zM114.105 162.688q0 .113-.041.213-.042.1-.117.176-.073.072-.173.117-.1.041-.217.041-.117 0-.22-.04-.1-.046-.176-.118-.072-.076-.114-.176-.04-.1-.04-.213 0-.114.04-.214.042-.1.114-.176.076-.075.176-.117.103-.044.22-.044t.217.044q.1.042.173.117.075.076.117.176.041.1.041.214zm-.93 1.612h-.989v-.655h1.85v2.846h1.01v.655h-2.98v-.655h1.109zM118.125 167.146l-.02-.517q-.11.134-.228.245-.117.11-.251.189-.134.076-.29.117-.151.045-.337.045-.31 0-.551-.124-.241-.124-.407-.351-.162-.231-.248-.559-.086-.327-.086-.73 0-.482.134-.834.138-.354.38-.585.24-.235.571-.345.33-.113.72-.113.131 0 .262.017.134.017.238.045v-1.368h.84v4.868zm-1.536-1.723q0 .29.038.496.041.204.117.334.08.131.193.193.114.059.258.059.214 0 .407-.172.193-.173.41-.472v-1.53q-.1-.038-.248-.062-.145-.024-.293-.024-.203 0-.365.083-.162.082-.28.234-.113.152-.175.372-.062.217-.062.49z"/></g><path d="M106.098 97.631c4.233 0 4.233 4.234 4.233 4.234v8.466c0 4.234 4.234 4.234 4.234 4.234s-4.234 0-4.234 4.233v6.35s0 4.233-4.233 4.233" fill="none" stroke="red" stroke-width=".529" stroke-linecap="round" stroke-linejoin="round"/><g aria-label="Energy Source" fill="red" stroke-width=".265" text-anchor="middle"><path d="M16.643 180.1v-4.503h2.712v.717h-1.85v1.12h1.763v.699h-1.763v1.25h1.85v.717zM22.455 180.1v-2.28q0-.576-.427-.576-.214 0-.41.172-.193.172-.41.469v2.215h-.84v-3.5h.726l.021.516q.107-.134.22-.244.118-.11.252-.186.134-.08.29-.12.154-.042.347-.042.269 0 .469.09.2.086.334.248.134.158.2.385.069.224.069.503v2.35zM27.295 178.081q0 .086-.006.224-.004.138-.014.258h-2.302q0 .231.07.407.072.176.2.296.13.117.31.18.182.061.402.061.255 0 .545-.038.292-.04.606-.13v.668q-.134.038-.293.069-.158.03-.324.055-.165.024-.334.034-.169.014-.327.014-.4 0-.717-.114-.317-.113-.537-.334-.22-.224-.338-.551-.117-.327-.117-.758 0-.427.117-.775.117-.351.331-.6.214-.251.517-.385.306-.138.682-.138.372 0 .658.117.286.114.479.32.193.207.293.493.1.286.1.627zm-.854-.12q.004-.207-.052-.359-.055-.155-.151-.255-.093-.1-.22-.148-.125-.048-.27-.048-.316 0-.52.214-.203.21-.24.596zM30.379 177.96q.007-.196-.02-.334-.025-.137-.083-.227-.056-.09-.138-.13-.083-.042-.19-.042-.186 0-.386.155-.196.151-.434.503v2.215h-.861v-3.5h.761l.031.51q.087-.135.193-.242.11-.106.241-.182.135-.08.297-.12.162-.042.355-.042.265 0 .468.093.207.09.345.269.14.179.206.451.07.269.059.624zM34.63 177.213q.097.12.134.255.042.13.042.269 0 .292-.104.516-.1.224-.285.376-.183.151-.441.23-.255.077-.565.077-.183 0-.338-.035-.155-.038-.234-.086-.059.059-.1.13-.042.07-.042.16 0 .055.028.11t.08.1q.054.04.127.068.075.028.168.031l.83.031q.28.007.504.073.227.062.389.179.162.117.248.286.09.165.09.379 0 .244-.11.461-.11.217-.335.376-.22.162-.551.255-.33.093-.768.093-.424 0-.73-.069-.304-.065-.5-.186-.193-.12-.286-.29-.093-.165-.093-.365 0-.12.03-.224.032-.103.094-.2.062-.092.155-.182t.22-.18q-.168-.096-.258-.247-.086-.152-.086-.324 0-.117.03-.217.032-.103.08-.196.052-.093.117-.18.066-.086.138-.168-.127-.128-.213-.307-.083-.183-.083-.455 0-.293.103-.52.107-.23.293-.386.186-.158.441-.237.258-.083.562-.083.155 0 .296.017.145.014.262.052h1.212v.613zm-1.98 3.352q0 .203.202.3.207.096.58.096.237 0 .399-.045.165-.044.269-.117.103-.072.148-.168.044-.097.044-.2 0-.093-.044-.159-.042-.062-.12-.107-.077-.04-.183-.065-.104-.02-.231-.028l-.741-.013q-.1.069-.165.13-.062.063-.1.121-.035.062-.048.124-.01.062-.01.131zm.14-2.808q0 .28.162.445.166.162.459.162.155 0 .268-.052.117-.052.193-.138.076-.086.114-.2.038-.113.038-.237 0-.293-.166-.455-.162-.166-.454-.166-.155 0-.273.052-.113.052-.189.141-.076.087-.114.204-.038.117-.038.244zM37.99 179.718q-.184.454-.383.795-.197.345-.434.572-.238.231-.531.345-.29.117-.651.117-.086 0-.19-.01-.1-.007-.206-.025v-.713l.093.014q.055.01.113.014.059.007.118.01.062.003.113.003.145 0 .269-.055.124-.055.227-.155.107-.096.193-.234.086-.135.152-.296l-1.389-3.5h.938l.726 1.984.218.64.213-.613.734-2.012h.903zM19.523 187.559q0 .368-.137.64-.135.273-.38.452-.244.175-.582.262-.337.086-.737.086-.355 0-.685-.042-.331-.041-.655-.137v-.838q.158.055.33.104.173.048.345.086.176.034.348.055.172.02.334.02.241 0 .41-.04.17-.042.276-.114.107-.073.155-.173.048-.1.048-.22 0-.165-.096-.276-.093-.113-.248-.2-.155-.086-.355-.155-.197-.068-.403-.148-.204-.079-.403-.179-.197-.1-.352-.248-.155-.148-.251-.351-.093-.207-.093-.496 0-.266.096-.503.097-.238.303-.414.207-.179.53-.282.325-.107.783-.107.134 0 .279.014.148.01.29.03.144.018.275.045.134.025.245.052v.775q-.11-.041-.242-.075-.13-.035-.272-.06-.138-.027-.279-.04-.141-.014-.268-.014-.224 0-.38.038-.154.034-.254.1-.1.062-.145.155-.045.093-.045.206 0 .142.093.245.097.1.252.183.158.079.355.151.2.07.406.152.21.079.407.182.2.104.354.252.159.148.252.351.096.2.096.476zM23.52 187.142q0 .413-.117.758-.118.34-.338.585-.22.245-.541.38-.32.134-.73.134-.39 0-.696-.114-.307-.114-.52-.338-.214-.227-.328-.565-.113-.34-.113-.792 0-.417.117-.758.12-.341.34-.582.225-.241.545-.372.32-.135.724-.135.392 0 .699.118.307.113.52.34.214.228.324.566.114.334.114.775zm-.875.02q0-.544-.207-.816-.203-.276-.603-.276-.22 0-.376.086-.155.087-.254.238-.1.148-.149.348-.044.2-.044.427 0 .548.22.827.22.276.603.276.21 0 .365-.083.155-.086.252-.234.096-.152.144-.355.049-.203.049-.438zM25.08 185.42v2.28q0 .286.107.434.107.145.324.145.21 0 .403-.173.196-.175.413-.472v-2.215h.841v3.5h-.727l-.02-.516q-.11.134-.224.244-.114.11-.249.19-.13.076-.289.117-.155.045-.344.045-.27 0-.472-.086-.2-.09-.335-.252-.134-.162-.203-.386-.065-.227-.065-.506v-2.35zM30.379 186.78q.007-.196-.02-.334-.025-.138-.083-.228-.056-.09-.138-.13-.083-.042-.19-.042-.186 0-.386.155-.196.152-.434.503v2.215h-.861v-3.5h.761l.031.51q.087-.134.193-.241.11-.107.241-.183.135-.079.297-.12.162-.042.355-.042.265 0 .468.093.207.09.345.27.14.178.206.45.07.27.059.624zM34.837 188.785q-.248.1-.514.148-.265.048-.554.048-.417 0-.748-.113-.33-.114-.561-.338-.231-.224-.355-.555-.12-.33-.12-.764 0-.42.13-.762.135-.34.376-.582.24-.241.578-.372.342-.131.758-.131.341 0 .572.038.235.034.42.09v.816q-.213-.107-.465-.165-.248-.059-.471-.059-.235 0-.42.08-.187.078-.314.22-.128.141-.197.344-.065.2-.065.441 0 .252.072.452.073.2.203.34.135.138.32.214.187.073.414.073.11 0 .231-.014.124-.017.245-.045.124-.031.24-.069.121-.038.225-.083zM38.933 186.9q0 .087-.007.224-.003.138-.014.259h-2.301q0 .23.069.406.072.176.2.297.13.117.31.179.182.062.403.062.255 0 .544-.038.293-.041.607-.131v.668q-.135.038-.293.07-.159.03-.324.054t-.334.035q-.17.014-.328.014-.4 0-.716-.114-.317-.114-.538-.334-.22-.224-.337-.552-.117-.327-.117-.757 0-.428.117-.776.117-.351.33-.599.214-.252.517-.386.307-.138.682-.138.372 0 .658.117.286.114.48.32.192.208.292.494.1.285.1.627zm-.854-.12q.003-.207-.052-.358-.055-.155-.152-.255-.093-.1-.22-.148-.124-.049-.269-.049-.317 0-.52.214-.203.21-.241.596z" style="text-align:center"/></g><g stroke-width=".529"><path stroke="#0f0" stroke-linecap="round" stroke-linejoin="round" d="M25.665 61.648h38.1v8.467h-38.1z"/><path d="M65.881 62.706v6.35M64.823 64.294v3.175M24.606 62.706v6.35M23.548 64.294v3.175" fill="none" stroke="#000" stroke-linecap="round" stroke-linejoin="round"/><g aria-label="12/3456" fill="#0f0"><path d="M36.975 65.958l.139.154-.223 2.155q-.108.308-.424.385l-.169-.616.17-1.616zm-.392-.616l.17-1.616.292-.616q.3.077.346.385l-.223 2.155-.177.154zM40.562 65.573l.27.308-.34.308h-2l-.278-.308.347-.308zm-.015 3.08h-2.54q-.3-.078-.347-.386l.64-.23h2.077zm-2.871-.54l.208-2 .169-.155.416.462-.154 1.462zm2.925-4.387h-1.84l-.593-.23q.108-.309.424-.386h2.301zm-.016 1.616l.17-1.616.292-.616q.3.077.346.385l-.223 2.155-.177.154zM43.71 64.973l1.108-1.863q.462 0 .585.308l-1.439 2.386h-.346zm-.362 1.816l-1.108 1.863q-.462 0-.585-.308l1.432-2.386h.346zM48.567 65.573l.27.308-.34.308h-2l-.278-.308.347-.308zm.416.385l.138.154-.223 2.155q-.108.308-.423.385l-.17-.616.17-1.616zm-.662 2.694h-2.31q-.3-.077-.346-.385l.639-.23h1.847zm.284-4.926h-1.84l-.592-.23q.108-.309.423-.386h2.302zm-.015 1.616l.17-1.616.292-.616q.3.077.346.385l-.223 2.155-.177.154zM52.57 65.573l.269.308-.339.308H50.5l-.277-.308.346-.308zm.415.385l.139.154-.224 2.155q-.107.308-.423.385l-.17-.616.17-1.616zm-2.217-2.309l-.177 1.693-.515.462-.131-.154.23-2.232zm1.824 1.693l.17-1.616.292-.616q.3.077.347.385l-.224 2.155-.177.154zM56.572 65.573l.27.308-.34.308h-2l-.278-.308.347-.308zm.415.385l.139.154-.223 2.155q-.108.308-.424.385l-.169-.616.17-1.616zm-.662 2.694h-2.309q-.3-.077-.346-.385l.639-.23h1.847zm.516-4.926h-2.07l-.593-.23q.108-.309.423-.386h2.533zm-2.093.154l-.154 1.462-.516.462-.13-.154.207-2zM60.574 65.573l.27.308-.34.308h-2l-.277-.308.346-.308zm.416.385l.138.154-.223 2.155q-.108.308-.423.385l-.17-.616.17-1.616zm-.662 2.694h-2.31q-.3-.077-.346-.385l.64-.23h1.847zm-2.64-.539l.208-2 .169-.155.416.462-.154 1.462zm3.156-4.387h-2.07l-.594-.23q.108-.309.424-.386h2.532zm-2.094.154l-.154 1.462-.516.462-.13-.154.207-2z"/></g></g><g transform="matrix(1.6 0 0 1.60043 -37.836 -134.226)" stroke-width=".331" stroke-linecap="round" stroke-linejoin="round"><path d="M76.73 127.679l1.322 2.646M76.73 127.679l-1.324 2.646" fill="none" stroke="#000"/><circle cy="130.325" cx="75.406" r=".529" fill="#282d36" stroke="#00f"/><circle cy="127.679" cx="76.729" r=".529" fill="#282d36" stroke="#0f0"/><circle cy="130.325" cx="78.052" r=".529" fill="#282d36" stroke="red"/></g><g transform="matrix(0 -1.6 1.60043 0 -136.343 199.232)" stroke-width=".331" stroke-linecap="round" stroke-linejoin="round"><path d="M76.73 127.679l1.322 2.646M76.73 127.679l-1.324 2.646" fill="none" stroke="#000"/><circle cy="130.325" cx="75.406" r=".529" fill="#282d36" stroke="#00f"/><circle cy="127.679" cx="76.729" r=".529" fill="#282d36" stroke="#0f0"/><circle cy="130.325" cx="78.052" r=".529" fill="#282d36" stroke="red"/></g><g transform="matrix(0 1.6 -1.60043 0 301.972 -46.303)" stroke-width=".331" stroke-linecap="round" stroke-linejoin="round"><path d="M76.73 127.679l1.322 2.646M76.73 127.679l-1.324 2.646" fill="none" stroke="#000"/><circle cy="130.325" cx="75.406" r=".529" fill="#282d36" stroke="#00f"/><circle cy="127.679" cx="76.729" r=".529" fill="#282d36" stroke="#0f0"/><circle cy="130.325" cx="78.052" r=".529" fill="#282d36" stroke="red"/></g><g transform="matrix(1.6 .00002 -.00002 1.60043 -63.232 -127.879)" stroke-width=".331" stroke-linecap="round" stroke-linejoin="round"><path d="M76.73 127.679l1.322 2.646M76.73 127.679l-1.324 2.646" fill="none" stroke="#000"/><circle cy="130.325" cx="75.406" r=".529" fill="#282d36" stroke="#00f"/><circle cy="127.679" cx="76.729" r=".529" fill="#282d36" stroke="#0f0"/><circle cy="130.325" cx="78.052" r=".529" fill="#282d36" stroke="red"/></g><g transform="matrix(1.6 .00002 -.00002 1.60043 -84.4 -119.412)" stroke-width=".331" stroke-linecap="round" stroke-linejoin="round"><path d="M76.73 127.679l1.322 2.646M76.73 127.679l-1.324 2.646" fill="none" stroke="#000"/><circle cy="130.325" cx="75.406" r=".529" fill="#282d36" stroke="#00f"/><circle cy="127.679" cx="76.729" r=".529" fill="#282d36" stroke="#0f0"/><circle cy="130.325" cx="78.052" r=".529" fill="#282d36" stroke="red"/></g><g transform="matrix(1.6 .00002 -.00002 1.60043 -42.066 -119.412)" stroke-width=".331" stroke-linecap="round" stroke-linejoin="round"><path d="M76.73 127.679l1.322 2.646M76.73 127.679l-1.324 2.646" fill="none" stroke="#000"/><circle cy="130.325" cx="75.406" r=".529" fill="#282d36" stroke="#00f"/><circle cy="127.679" cx="76.729" r=".529" fill="#282d36" stroke="#0f0"/><circle cy="130.325" cx="78.052" r=".529" fill="#282d36" stroke="red"/></g><g transform="matrix(1.6 .00002 -.00002 1.60043 -94.982 -110.945)" stroke-width=".331" stroke-linecap="round" stroke-linejoin="round"><path d="M76.73 127.679l1.322 2.646M76.73 127.679l-1.324 2.646" fill="none" stroke="#000"/><circle cy="130.325" cx="75.406" r=".529" fill="#282d36" stroke="#00f"/><circle cy="127.679" cx="76.729" r=".529" fill="#282d36" stroke="#0f0"/><circle cy="130.325" cx="78.052" r=".529" fill="#282d36" stroke="red"/></g><g transform="matrix(1.6 .00002 -.00002 1.60043 -73.816 -110.945)" stroke-width=".331" stroke-linecap="round" stroke-linejoin="round"><path d="M76.73 127.679l1.322 2.646M76.73 127.679l-1.324 2.646" fill="none" stroke="#000"/><circle cy="130.325" cx="75.406" r=".529" fill="#282d36" stroke="#00f"/><circle cy="127.679" cx="76.729" r=".529" fill="#282d36" stroke="#0f0"/><circle cy="130.325" cx="78.052" r=".529" fill="#282d36" stroke="red"/></g><g transform="matrix(1.6 .00002 -.00002 1.60043 -52.65 -110.945)" stroke-width=".331" stroke-linecap="round" stroke-linejoin="round"><path d="M76.73 127.679l1.322 2.646M76.73 127.679l-1.324 2.646" fill="none" stroke="#000"/><circle cy="130.325" cx="75.406" r=".529" fill="#282d36" stroke="#00f"/><circle cy="127.679" cx="76.729" r=".529" fill="#282d36" stroke="#0f0"/><circle cy="130.325" cx="78.052" r=".529" fill="#282d36" stroke="red"/></g><g transform="matrix(1.6 .00002 -.00002 1.60043 -31.482 -110.945)" stroke-width=".331" stroke-linecap="round" stroke-linejoin="round"><path d="M76.73 127.679l1.322 2.646M76.73 127.679l-1.324 2.646" fill="none" stroke="#000"/><circle cy="130.325" cx="75.406" r=".529" fill="#282d36" stroke="#00f"/><circle cy="127.679" cx="76.729" r=".529" fill="#282d36" stroke="#0f0"/><circle cy="130.325" cx="78.052" r=".529" fill="#282d36" stroke="red"/></g><g transform="matrix(-1.6 -.00126 .00126 -1.60043 184.25 354.989)" stroke-width=".331" stroke-linecap="round" stroke-linejoin="round"><path d="M76.73 127.679l1.322 2.646M76.73 127.679l-1.324 2.646" fill="none" stroke="#000"/><circle cy="130.325" cx="75.406" r=".529" fill="#282d36" stroke="#00f"/><circle cy="127.679" cx="76.729" r=".529" fill="#282d36" stroke="#0f0"/><circle cy="130.325" cx="78.052" r=".529" fill="#282d36" stroke="red"/></g><g transform="matrix(-1.6 -.00126 .00126 -1.60043 163.083 346.522)" stroke-width=".331" stroke-linecap="round" stroke-linejoin="round"><path d="M76.73 127.679l1.322 2.646M76.73 127.679l-1.324 2.646" fill="none" stroke="#000"/><circle cy="130.325" cx="75.406" r=".529" fill="#282d36" stroke="#00f"/><circle cy="127.679" cx="76.729" r=".529" fill="#282d36" stroke="#0f0"/><circle cy="130.325" cx="78.052" r=".529" fill="#282d36" stroke="red"/></g><g transform="matrix(-1.6 -.00126 .00126 -1.60043 152.5 338.056)" stroke-width=".331" stroke-linecap="round" stroke-linejoin="round"><path d="M76.73 127.679l1.322 2.646M76.73 127.679l-1.324 2.646" fill="none" stroke="#000"/><circle cy="130.325" cx="75.406" r=".529" fill="#282d36" stroke="#00f"/><circle cy="127.679" cx="76.729" r=".529" fill="#282d36" stroke="#0f0"/><circle cy="130.325" cx="78.052" r=".529" fill="#282d36" stroke="red"/></g><g transform="matrix(-1.6 -.00126 .00126 -1.60043 173.667 338.056)" stroke-width=".331" stroke-linecap="round" stroke-linejoin="round"><path d="M76.73 127.679l1.322 2.646M76.73 127.679l-1.324 2.646" fill="none" stroke="#000"/><circle cy="130.325" cx="75.406" r=".529" fill="#282d36" stroke="#00f"/><circle cy="127.679" cx="76.729" r=".529" fill="#282d36" stroke="#0f0"/><circle cy="130.325" cx="78.052" r=".529" fill="#282d36" stroke="red"/></g><g transform="matrix(-1.6 -.00126 .00126 -1.60043 194.833 338.056)" stroke-width=".331" stroke-linecap="round" stroke-linejoin="round"><path d="M76.73 127.679l1.322 2.646M76.73 127.679l-1.324 2.646" fill="none" stroke="#000"/><circle cy="130.325" cx="75.406" r=".529" fill="#282d36" stroke="#00f"/><circle cy="127.679" cx="76.729" r=".529" fill="#282d36" stroke="#0f0"/><circle cy="130.325" cx="78.052" r=".529" fill="#282d36" stroke="red"/></g><g transform="matrix(-1.6 -.00126 .00126 -1.60043 216 338.056)" stroke-width=".331" stroke-linecap="round" stroke-linejoin="round"><path d="M76.73 127.679l1.322 2.646M76.73 127.679l-1.324 2.646" fill="none" stroke="#000"/><circle cy="130.325" cx="75.406" r=".529" fill="#282d36" stroke="#00f"/><circle cy="127.679" cx="76.729" r=".529" fill="#282d36" stroke="#0f0"/><circle cy="130.325" cx="78.052" r=".529" fill="#282d36" stroke="red"/></g><g transform="matrix(-1.6 -.00126 .00126 -1.60043 205.417 346.522)" stroke-width=".331" stroke-linecap="round" stroke-linejoin="round"><path d="M76.73 127.679l1.322 2.646M76.73 127.679l-1.324 2.646" fill="none" stroke="#000"/><circle cy="130.325" cx="75.406" r=".529" fill="#282d36" stroke="#00f"/><circle cy="127.679" cx="76.729" r=".529" fill="#282d36" stroke="#0f0"/><circle cy="130.325" cx="78.052" r=".529" fill="#282d36" stroke="red"/></g><g transform="translate(-10.319 29.898)" fill="#282d36" stroke="#0f0"><path stroke-width=".529" stroke-linecap="round" stroke-linejoin="round" d="M110.067 55.033h8.467V63.5h-8.467z"/><path stroke-width=".529" stroke-linecap="round" stroke-linejoin="round" d="M112.183 58.738h4.233v3.175h-4.233zM112.977 58.738c0-1.853 0-1.853 1.323-1.853s1.323 0 1.323 1.853"/><circle cx="114.3" cy="60.06" r=".529" fill="#0f0" stroke="none"/><path d="M114.3 60.854v-.264" stroke-width=".529" stroke-linecap="round" stroke-linejoin="round"/></g><path d="M110.331 40.217c2.117 0 4.763 1.587 5.027 4.498.265 2.91-1.058 3.704-1.587 4.498-.53.793-.794.529-1.059 2.38-1.95.563-4.497 1.324-4.497 1.324s.529-1.852-.794-3.175c-1.323-1.323-2.381-3.44-2.117-4.498.265-1.059 1.058-5.027 5.027-5.027z" fill="none" stroke="#007f00" stroke-width=".529" stroke-linecap="round" stroke-linejoin="round"/><path d="M108.215 54.24l4.497-1.059M108.215 55.827l4.497-1.058" fill="#0f0" stroke="#007f00" stroke-width=".529" stroke-linecap="round" stroke-linejoin="round"/><path d="M109.273 56.62c1.058.53 1.058.53 2.381-.264M109.802 51.065s0-2.91-.794-3.705c.596-.099 1.059 0 1.323.53.629-.695.794-.53 1.323-.53-.364.993-.794 2.91-.794 3.705M103.717 44.715h-2.382M104.775 49.477l-1.852 1.588M105.569 40.746l-1.852-1.588M110.331 38.894v-2.381M115.094 40.746l1.587-1.588M116.946 44.715h2.646M115.623 49.477l2.117 1.852" fill="none" stroke="#007f00" stroke-width=".529" stroke-linecap="round" stroke-linejoin="round"/><path d="M66.269 61.99v1.34h-.775v-1.34h-1.285v-.692h1.285v-1.333h.775v1.333h1.285v.693z" aria-label="+" fill="red" stroke="#888" stroke-width=".044"/><path d="M22.476 62.022v-.748h2.143v.748z" aria-label="-" fill="red" stroke="#888" stroke-width=".044"/><path d="M80.698 34.131h19.05v-12.7H53.18v12.7h27.517l21.167 6.35" fill="none" stroke="red" stroke-width=".529" stroke-linecap="round" stroke-linejoin="round"/><path d="M108.215 89.165h16.933V15.08H70.115v-12.7h59.266v12.7h-4.233M114.565 114.565h10.583v40.216l-4.233 4.234v12.7H80.698v-12.7h40.217M40.481 51.065l-2.116-14.817h10.583v-12.7H6.615v12.7h31.75" fill="none" stroke="red" stroke-width=".529" stroke-linecap="round" stroke-linejoin="round"/><path d="M29.898 65.881l-4.233 10.584H2.38V17.198l2.117-2.117v-12.7h33.867v12.7H4.498M63.765 156.898H34.13v12.7h29.634zM55.298 156.898l4.233-8.467" fill="none" stroke="red" stroke-width=".529" stroke-linecap="round" stroke-linejoin="round"/><path d="M23.548 125.148l-6.35 6.35v40.217h25.4v21.166H12.965v-21.166h4.233" fill="none" stroke="red" stroke-width=".529" stroke-linecap="round" stroke-linejoin="round"/></svg>