<svg xmlns="http://www.w3.org/2000/svg" width="200mm" height="200mm" viewBox="0 0 200 200"><path d="M20.588 187.513c-2.583-1.638-5.016-2.988-5.406-3-.39-.015-1.79-.852-3.108-1.866l-2.398-1.843 5.759-9.8c5.495-9.35 6.917-11.8 11.446-19.727 3.623-6.339 5.653-9.844 10.928-18.863 2.874-4.914 6.573-11.392 8.221-14.395 1.647-3.003 3.82-6.646 4.83-8.095 1.008-1.45 1.834-2.886 1.834-3.192 0-.306 2.38-4.481 5.288-9.278 8.655-14.274 22.51-38.927 22.51-40.053 0-.577-1.07-2.963-2.377-5.304-3.824-6.85-5.124-14.408-3.645-21.194 2.268-10.405 7.319-16.878 16.942-21.71 7.412-3.723 19.02-3.91 25.812-.42 5.708 2.935 11.997 9.225 14.931 14.933 3.202 6.228 3.295 18.442.19 25.047-1.183 2.519-2.613 4.864-3.176 5.213-2.488 1.537-1.286 4.11 14.857 31.788 12.131 20.8 34.75 60.393 34.75 60.829 0 .312.612 1.272 1.36 2.134.748.862 2.472 3.577 3.831 6.035a452.887 452.887 0 0 0 5.59 9.723c1.714 2.89 3.117 5.683 3.117 6.205 0 .522.447.949.993.949s.993.49.993 1.087c0 .598.935 2.401 2.078 4.007 2.211 3.105 1.95 5.826-.558 5.826-.836 0-1.52.395-1.52.877s-.782 1.133-1.737 1.446c-.956.312-3.71 1.74-6.122 3.172-3.472 2.061-4.558 2.328-5.216 1.284-3.336-5.294-6.972-11.61-7.777-13.506-1.404-3.306-3.453-3.66-8.218-1.421-8.58 4.033-21.072 7.707-37.942 11.158-7.512 1.537-37.723 1.592-45.668.083-12.755-2.423-16.95-3.33-18.862-4.076-1.092-.427-3.996-1.352-6.453-2.055-2.457-.703-4.892-1.647-5.41-2.098-.52-.451-1.546-.82-2.283-.82-.736 0-3.188-.894-5.448-1.986-2.26-1.092-4.674-1.986-5.364-1.986-1.216 0-8.3 11.062-8.3 12.96 0 .517-.395.94-.877.94s-1.11.893-1.396 1.985c-.688 2.63-1.456 2.522-6.999-.993zm73.27-20.79c.414-.671.872-73.723.558-89.194-.023-.968-.506-1.02-2.012-.213-1.092.584-1.985 1.452-1.985 1.928 0 .754-3.616 7.177-17.355 30.833-24.404 42.02-25.45 43.992-24.059 45.383 1.935 1.935 18.874 7.694 27.1 9.214 3.777.697 8.208 1.614 9.846 2.036 4.236 1.093 7.236 1.098 7.906.015zm31.804-.564c15.68-2.886 35.244-9.322 35.244-11.595 0-.813-7.172-13.691-13.993-25.128-1.627-2.728-7.373-12.655-12.338-21.317a1092.536 1092.536 0 0 0-5.709-9.76c-2.035-3.442-3.7-6.681-3.7-7.198 0-.517-.395-.94-.877-.94s-1.133-.782-1.445-1.737c-1.044-3.19-6.104-11.124-7.11-11.147-1.003-.022-2.009 86.538-1.034 89.08.595 1.55 1.215 1.536 10.962-.258zM111.73 44.451c3.04-2.67 3.51-3.678 3.51-7.545 0-3.753-.539-5.002-3.376-7.84-2.572-2.571-4.215-3.375-6.903-3.375-5.03 0-8.256 1.77-10.026 5.5-2.53 5.332-1.99 9.137 1.839 12.966 4.616 4.616 9.914 4.72 14.956.294z" fill="#00000c"/></svg>