<svg xmlns="http://www.w3.org/2000/svg" width="200mm" height="200mm" viewBox="0 0 200 200"><path d="M150.266 194.677c-1.497-.236-3.377-.762-4.175-1.169-.8-.406-1.932-.854-2.518-.995-.585-.141-1.537-.655-2.116-1.14-.577-.487-1.324-.892-1.658-.9-.334-.008-1.173-.498-1.865-1.089-.691-.591-1.396-1.075-1.566-1.075-.171 0-1.167-.898-2.214-1.997-1.047-1.098-2.072-1.997-2.278-1.997-.206 0-.566-.367-.8-.817-.438-.843-2.546-3.645-3.505-4.66-.299-.316-.544-.806-.545-1.09 0-.282-.347-1.08-.77-1.773-.422-.693-1.345-2.98-2.052-5.084l-1.285-3.823v-7.262c0-7.07.02-7.317.94-9.308.522-1.125 1.061-2.677 1.2-3.45.138-.772.47-1.655.737-1.961.267-.307.816-1.307 1.22-2.222.405-.915.983-1.868 1.285-2.119.302-.25.55-.659.55-.907s.317-.856.706-1.35c.39-.494 1.477-2.355 2.418-4.134.941-1.78 1.918-3.359 2.17-3.51.254-.151.66-.887.903-1.634.244-.747.828-1.82 1.299-2.385.47-.565.855-1.32.855-1.68 0-.36.263-.873.585-1.14.557-.463.962-1.162 3.046-5.261.499-.982 1.175-1.986 1.501-2.231.327-.246.707-.899.844-1.453.139-.554.548-1.334.913-1.733.629-.688 1.23-1.748 2.882-5.084.396-.798 1.047-1.729 1.446-2.067.4-.338.905-1.278 1.123-2.088.218-.81.56-1.473.758-1.473.2 0 .676-.694 1.058-1.543.383-.849.938-1.952 1.232-2.45.972-1.648 3.13-6.353 3.13-6.825 0-.255.227-.825.505-1.268.277-.442.677-1.621.89-2.62.21-.998.72-3.25 1.129-5.006.935-4.009 1.052-13.085.21-16.317-.294-1.128-.711-3.164-.928-4.524-.217-1.361-.64-2.965-.94-3.564-.301-.6-.878-2.07-1.283-3.268-.404-1.198-.966-2.437-1.248-2.752-.283-.315-.514-.805-.515-1.09-.001-.283-.49-1.25-1.088-2.15-.597-.898-1.087-1.755-1.088-1.903 0-.477-5.64-7.303-7.48-9.057-2.264-2.159-7.714-6.424-9.729-7.614-.558-.33-5.397-2.575-8.028-3.725-1.198-.523-3.041-1.11-4.095-1.301-1.054-.192-2.198-.498-2.542-.68-2.863-1.517-19.267-1.472-21.745.061-.196.122-1.553.47-3.015.775-1.463.305-2.924.794-3.248 1.087-.323.293-1.402.715-2.398.938-.995.223-2.136.705-2.536 1.07-.4.367-1.24.774-1.869.907-.628.133-1.445.577-1.815.986-.37.41-1.286 1.057-2.035 1.439-.749.382-1.361.844-1.361 1.026 0 .182-.368.447-.817.587-.45.141-1.67 1.092-2.714 2.113-1.043 1.02-2.105 2.04-2.36 2.265-.255.226-.741.716-1.08 1.09-.76.837-1.312 1.39-2.418 2.422-.47.44-.998 1.167-1.171 1.616-.173.45-.549.817-.834.817-.285 0-.693.503-.907 1.117-.214.614-.802 1.607-1.306 2.206-.505.6-.918 1.291-.918 1.537 0 .245-.4.988-.889 1.65-.488.663-.999 1.71-1.134 2.326-.137.617-.56 1.545-.944 2.064-.383.519-.923 1.832-1.199 2.92-.276 1.086-.86 3.201-1.295 4.699-.703 2.411-.8 3.66-.843 10.893-.049 8.145.293 11.504 1.409 13.798.242.5.556 1.561.698 2.36.14.8.591 2.025 1 2.724.41.699.967 2.02 1.24 2.936.274.916.826 1.962 1.228 2.325.4.364.73.922.73 1.241 0 1.024 4.22 6.605 7.802 10.32 2.43 2.52 4.543 5.353 4.543 6.093 0 .332.378.85.84 1.153.461.303 1.034 1.2 1.272 1.996.238.795.677 1.648.976 1.896.299.248.549.798.556 1.223 0 .425.495 2.162 1.086 3.86 1.035 2.972 1.074 3.32 1.061 9.44 0 4.752-.152 6.72-.56 7.807-.302.799-.846 2.479-1.21 3.734-.364 1.254-.908 2.562-1.21 2.905-.3.342-.667 1.031-.815 1.53-.404 1.372-2.052 3.985-3.176 5.037-.55.514-.999 1.097-.999 1.295 0 .626-3.456 4.062-4.8 4.773-.543.288-1.162.848-1.375 1.245-.212.397-.603.723-.868.723s-1.099.49-1.853 1.089c-.754.6-1.652 1.09-1.996 1.09-.344 0-1.236.413-1.981.92-.746.505-2.495 1.159-3.888 1.452-1.392.292-2.888.737-3.324.986-1.045.598-13.335.64-14.081.046-.28-.222-1.736-.692-3.234-1.045-1.497-.352-3.213-.926-3.812-1.276-.6-.35-1.704-.832-2.454-1.072-.75-.24-1.523-.733-1.717-1.096-.194-.362-.827-.824-1.406-1.025-.579-.203-1.422-.67-1.874-1.037-4.098-3.338-6.415-5.848-7.406-8.023-.296-.65-.708-1.18-.915-1.18-.207 0-.63-.607-.94-1.348-.31-.742-.799-1.609-1.087-1.927-.807-.892-2.35-5.643-2.946-9.07-.552-3.176-.464-10.027.189-14.706.287-2.057 1.317-5.054 2.432-7.081.275-.5.76-1.462 1.077-2.139.664-1.415 3.034-4.706 3.92-5.44.33-.274.6-.697.6-.94s.394-.622.876-.841c.482-.22.983-.737 1.114-1.148.13-.412.451-.749.713-.749.262 0 .7-.27.973-.6.655-.788 4.19-3.394 4.605-3.394.178 0 1.043-.487 1.922-1.083.878-.595 1.851-1.085 2.162-1.089.31-.004 1.372-.399 2.36-.878.988-.48 2.559-.978 3.491-1.108 2.566-.355 2.75-.773 1.987-4.502-.353-1.727-.87-3.491-1.147-3.919-.277-.428-.669-2.307-.87-4.176a307.559 307.559 0 0 0-.919-7.392c-.691-5.015-.694-6.946-.014-12.164.299-2.296.708-5.564.91-7.262.2-1.697.673-3.821 1.048-4.72.375-.899.797-2.37.937-3.268.14-.899.629-2.288 1.084-3.086.456-.8.95-2.025 1.097-2.724.146-.7.398-1.434.558-1.635.161-.2.645-1.26 1.077-2.356.432-1.096.914-2.076 1.07-2.178.157-.102.632-.868 1.055-1.704.424-.835.953-1.631 1.176-1.769.223-.137.64-.761.928-1.386.853-1.85 3.343-5.16 5.304-7.052.549-.53.998-1.16.998-1.402s.327-.544.727-.67c.4-.127.913-.588 1.14-1.024.598-1.14 2.591-3.144 3.133-3.148.254-.002.648-.413.876-.912.227-.5.605-.908.84-.908.234 0 .852-.45 1.373-.998.52-.55 1.619-1.489 2.44-2.088.82-.6 2.036-1.539 2.7-2.088.665-.55 1.451-.998 1.747-.998.296 0 1.154-.49 1.908-1.09.754-.6 1.676-1.09 2.047-1.09.372 0 1.015-.337 1.428-.75.413-.413 1.49-.974 2.394-1.246.904-.272 1.914-.736 2.245-1.03.33-.295 1.336-.73 2.235-.967.899-.236 2.143-.741 2.766-1.123.623-.38 1.603-.697 2.179-.704.575-.006 2.19-.342 3.588-.747 4-1.16 5.06-1.326 11.541-1.794 4.648-.336 7.234-.343 10.894-.03 2.639.227 5.7.485 6.801.573 1.102.089 2.52.42 3.15.733.63.315 2.304.793 3.72 1.063 1.414.27 2.774.658 3.022.862.248.204 1.513.646 2.81.98 1.299.334 2.606.819 2.906 1.077.3.258 1.198.686 1.997.952.799.266 1.697.683 1.997.927.3.243 1.28.786 2.178 1.206 2.17 1.012 4.159 2.244 5.194 3.217.465.435 1.008.793 1.209.793.512 0 6.054 4.513 8.713 7.097 1.225 1.189 3.385 3.55 4.802 5.248a1842.92 1842.92 0 0 0 3.311 3.961c.405.481.736 1.065.736 1.299 0 .232.4.8.89 1.259.488.46.995 1.32 1.126 1.915.13.594.557 1.401.949 1.793.391.391 1.015 1.419 1.385 2.283.37.864.838 1.673 1.04 1.797.2.125.474.755.609 1.402.134.647.575 1.748.978 2.447.404.699.968 2.17 1.254 3.268.287 1.098.733 2.323.991 2.723.259.4.76 2.36 1.113 4.357.354 1.997.873 4.192 1.154 4.876.394.96.524 3.663.569 11.801.048 9.07-.026 10.749-.538 11.925-.327.752-.864 2.95-1.194 4.882-.329 1.932-.812 3.85-1.074 4.26-.261.41-.73 1.617-1.04 2.683-.311 1.066-.88 2.455-1.263 3.086-.384.632-.814 1.698-.956 2.368-.142.67-.65 1.797-1.128 2.502-.479.706-.87 1.506-.87 1.78s-.326.777-.725 1.118c-.398.34-.909 1.197-1.135 1.902-.226.706-.676 1.585-1 1.955-.59.672-1.47 2.243-2.978 5.32-.44.898-.935 1.72-1.099 1.828-.163.106-.638.964-1.055 1.906-.416.942-.921 1.712-1.122 1.712-.201 0-.62.613-.932 1.362-.312.749-.854 1.77-1.205 2.27-.35.499-.76 1.315-.909 1.815-.15.5-.539 1.21-.864 1.58-.326.369-.92 1.296-1.32 2.06-1.949 3.726-2.763 5.074-3.064 5.074-.18 0-.528.613-.772 1.362-.244.748-.829 1.823-1.3 2.388-.47.565-.854 1.32-.854 1.68 0 .36-.272.878-.604 1.152-.332.275-.909 1.186-1.281 2.027-.373.84-.832 1.623-1.02 1.74-.19.116-.648.899-1.02 1.74-.373.84-.95 1.752-1.281 2.026-.332.274-.604.689-.604.922 0 .233-.312 1.035-.693 1.782-1.829 3.587-1.828 7.477 0 11.398.58 1.24 1.053 2.37 1.053 2.51 0 .29.29.626 2.862 3.314 1.003 1.049 2.138 1.907 2.523 1.907.384 0 .885.224 1.113.5.707.85 3.703 1.47 7.132 1.476 2.822.004 3.558-.131 5.265-.964 1.091-.532 2.343-1.068 2.782-1.19.44-.122.903-.55 1.03-.95.126-.401.641-.885 1.143-1.076.501-.19.996-.672 1.1-1.068.104-.398.484-.722.843-.722.36 0 .883-.088 1.162-.195.28-.107 1.132.301 1.895.907.763.607 1.686 1.103 2.05 1.103.364 0 .956.316 1.316.703.36.386 1.388 1.045 2.284 1.465 2.376 1.112 4.856 2.615 5.172 3.134.15.248.765.559 1.364.691 1.13.248 1.81 1.096 1.81 2.256 0 1.1-7.594 9.18-8.63 9.181-.146 0-.74.409-1.32.908-.58.499-1.253.907-1.493.907-.24 0-.991.37-1.668.824-1.879 1.257-6.267 2.85-9.353 3.394-3.316.585-11.149.57-14.935-.031zm-99.025-44.981c.642-.269 1.812-.608 2.598-.756 1.413-.264 1.76-.519 4.873-3.563 2.619-2.562 2.814-2.876 3.86-6.227.84-2.687.971-3.62.788-5.579-.12-1.294-.372-2.538-.557-2.765-.185-.227-.525-1.115-.755-1.974-.23-.86-.75-1.894-1.154-2.299-.405-.405-.9-1.206-1.1-1.781-.2-.575-.719-1.157-1.152-1.293-.432-.136-1.14-.626-1.572-1.089-.433-.463-1.25-.958-1.816-1.099-.566-.14-1.492-.596-2.058-1.013-.898-.66-1.545-.757-5.084-.757-3.776 0-4.204.077-6.233 1.087-1.95.973-4.07 2.429-5.083 3.49-.2.21-.791.818-1.314 1.351-.523.535-1.067 1.461-1.209 2.06-.141.6-.504 1.364-.806 1.698-.661.735-1.346 5.706-1.071 7.785.225 1.71 2.07 5.484 3.673 7.514 1.547 1.958 4.36 3.934 6.9 4.844 2.55.915 6.535 1.09 8.272.366z" fill="#00000c"/></svg>