<svg xmlns="http://www.w3.org/2000/svg" width="200mm" height="200mm" viewBox="0 0 200 200"><path d="M91.886 190.212c-2.026-.176-3.851-.455-4.055-.62-.576-.47-4.086-1.431-5.219-1.431-.56 0-1.682-.382-2.492-.847-.81-.466-2.029-.96-2.708-1.097-.678-.138-1.472-.457-1.763-.71-.29-.254-1.243-.738-2.116-1.077-.872-.34-2.007-.908-2.522-1.264-.515-.356-1.025-.647-1.134-.647-.378 0-4.286-2.648-5.073-3.438-.435-.436-.976-.793-1.201-.793-.86 0-8.144-6.868-10.457-9.862-.52-.672-1.223-1.505-1.563-1.851-.339-.346-.616-.865-.616-1.155 0-.29-.326-.725-.724-.97-.398-.244-1.038-1.078-1.422-1.854a83.79 83.79 0 0 0-1.692-3.173c-1.928-3.424-2.153-3.884-2.155-4.414-.001-.295-.375-1.088-.83-1.763-.455-.675-.937-1.935-1.073-2.798-.136-.864-.543-2.054-.905-2.645-.362-.591-.77-1.867-.908-2.837-.139-.97-.587-3.191-.998-4.937-.718-3.047-.753-4.146-.855-27.68-.095-21.433-.038-24.816.455-26.974.31-1.358.706-3.183.88-4.055.727-3.642 1.065-4.916 2.1-7.915.599-1.735 1.306-3.4 1.571-3.702.266-.302.597-1.104.736-1.783.14-.678.538-1.551.887-1.94.348-.387.887-1.26 1.196-1.938.944-2.071 2.1-3.96 3.75-6.125.865-1.137 1.811-2.415 2.102-2.841.291-.426 1.362-1.578 2.38-2.56 1.018-.982 1.851-1.964 1.851-2.182 0-.218.246-.397.545-.397.3 0 .816-.475 1.146-1.056.33-.58.723-1.056.87-1.057.472-.004 4.297-3.247 4.743-4.02.252-.437.434-2.142.441-4.144.009-2.35.226-4.093.704-5.642.38-1.232.873-3.092 1.095-4.132.223-1.04.773-2.434 1.223-3.097.45-.663.922-1.676 1.048-2.252.127-.575.372-1.046.545-1.046.174 0 .58-.516.903-1.146.81-1.581 1.998-3.006 4.995-5.993 3.889-3.876 6.941-6.033 9.694-6.85.937-.278 1.785-.716 1.883-.973.1-.258.97-.573 1.935-.7.965-.128 2.74-.555 3.945-.948 1.43-.467 3.606-.784 6.264-.913 3.602-.175 4.498-.093 7.757.712 2.027.5 4.24 1.014 4.919 1.142.678.128 1.472.431 1.763.674.29.243 1.28.722 2.199 1.065.918.343 1.85.84 2.07 1.106.22.265.603.483.851.483.41 0 3.728 2.282 4.577 3.147l.705.72c.194.2 1.107 1.07 2.028 1.937.92.866 1.675 1.72 1.675 1.898 0 .177.255.534.567.793.783.65 3.197 4.33 3.493 5.325.132.447.6 1.37 1.038 2.048.438.678.996 2.186 1.24 3.35.244 1.163.662 2.542.929 3.063.293.57.578 2.791.72 5.588.232 4.588.247 4.653 1.332 5.752a26.674 26.674 0 0 0 2.245 1.993c1.617 1.243 8.182 7.675 8.182 8.016 0 .257 1.665 2.458 3.514 4.646.394.467.717 1.007.717 1.2 0 .194.373.843.828 1.443.456.6 1.019 1.673 1.252 2.383.233.71.645 1.376.916 1.48.272.104.676.872.897 1.706.223.834.639 1.78.925 2.101.287.321.762 1.505 1.055 2.63.294 1.124.817 2.607 1.162 3.294.345.687.735 2.228.866 3.424.13 1.196.575 3.259.987 4.584.728 2.338.754 3.125.888 26.63.084 14.82.004 24.879-.205 25.917-.187.933-.689 3.521-1.113 5.751-.424 2.23-1.14 5.02-1.59 6.2-.45 1.18-.927 2.722-1.06 3.426-.131.704-.462 1.465-.735 1.692-.272.226-.738 1.243-1.034 2.26-.295 1.018-.835 2.12-1.198 2.449-.364.328-.766 1.012-.892 1.518-.128.506-.618 1.38-1.09 1.94-.472.562-.859 1.33-.859 1.708 0 .402-.353.821-.851 1.01-.468.178-.962.671-1.097 1.096-.265.838-2.957 4.505-3.85 5.246-.301.25-.549.675-.549.942 0 .266-.165.485-.37.485-.203 0-.718.373-1.145.83-.717.766-2.565 2.367-5.472 4.74a81.076 81.076 0 0 0-2.256 1.923c-.598.533-1.356.97-1.685.97-.33 0-.869.298-1.2.664-.33.365-1.307.934-2.17 1.263-.863.33-1.57.743-1.57.918 0 .36-4.962 2.797-5.695 2.797-.261 0-1.48.477-2.71 1.058-1.23.581-2.688 1.058-3.241 1.058-.553 0-2.113.4-3.468.888-3.84 1.385-13.998 1.908-22.598 1.162zm22.966-21.567c.67-.454 1.684-.94 2.253-1.079.569-.139 1.61-.63 2.316-1.09.706-.462 1.856-1.079 2.557-1.372.7-.292 1.274-.695 1.274-.894 0-.199.515-.625 1.146-.949 1.294-.663 1.534-.872 5.2-4.516 2.906-2.888 4.576-4.846 5.285-6.198.255-.485.567-.96.695-1.058.545-.414 2.838-5.034 3.342-6.732.302-1.018.811-2.25 1.13-2.737.331-.504.71-2.167.883-3.864.165-1.639.468-3.553.673-4.255.246-.848.335-8.042.264-21.427-.1-18.884-.147-20.194-.746-20.857-1-1.103-1.736-1.11-3.977-.037-1.146.548-2.259 1.002-2.474 1.01-.216.01-.953.395-1.639.86-.686.466-1.602.96-2.036 1.098-.746.236-3.046 1.823-4.867 3.357-.453.382-1.051.694-1.33.694-.279 0-.686.393-.905.875-.22.48-.684.965-1.032 1.075-.349.111-.728.496-.842.857-.115.36-.605.916-1.092 1.235-.486.318-1.03.967-1.211 1.442-.18.475-.48.863-.666.863-.186 0-.437.313-.559.697-.121.384-.767 1.35-1.434 2.15-.667.798-1.213 1.653-1.213 1.899s-.335.874-.745 1.395-.966 1.682-1.236 2.579c-.27.897-.75 1.918-1.068 2.27-.319.35-.78 1.79-1.026 3.199-.247 1.408-.646 3.195-.889 3.97-.326 1.042-.477 7.068-.581 23.044-.13 19.817-.091 21.688.447 22.283.323.357 1.008.714 1.52.793.514.079 1.03.167 1.149.196.118.03.764-.32 1.434-.774zm-24.685-.109c.61-.552.644-1.62.635-19.658-.008-18.45-.275-25.21-1.05-26.657-.203-.38-.508-1.797-.678-3.15-.175-1.398-.6-2.885-.985-3.445-.373-.542-.952-1.726-1.288-2.632-.336-.906-.83-1.83-1.098-2.052-.269-.222-.59-.869-.714-1.436-.125-.567-.43-1.151-.677-1.298-.248-.146-.91-.962-1.471-1.812a275.42 275.42 0 0 0-1.55-2.324c-.695-1.02-4.873-5.187-5.662-5.646-.339-.196-1.697-1.19-3.019-2.209-1.321-1.018-2.655-1.85-2.963-1.85-.308 0-1.098-.397-1.755-.882-.658-.485-1.38-.882-1.606-.882-.226 0-1.303-.476-2.393-1.058-2.434-1.298-3.148-1.32-4.086-.129-.72.915-.73 1.232-.73 20.695 0 11.1.149 20.625.34 21.726.186 1.078.49 3.114.673 4.524.183 1.41.64 3.155 1.016 3.878.376.724.791 1.895.923 2.603.132.708.563 1.696.957 2.198.394.501.809 1.475.92 2.164.112.688.554 1.527.98 1.863.428.336.978.985 1.223 1.442 1.413 2.642 7.12 8.662 9.954 10.503.84.546 1.72 1.252 1.958 1.57.238.318.854.684 1.368.813.514.129 1.507.623 2.206 1.098.699.475 1.461.863 1.694.863.477 0 1.624.486 2.939 1.244 1.185.684 3.147.653 3.939-.067zM102.6 93.922c.407-.729 1.57-2.186 2.585-3.238 1.016-1.052 1.847-2.085 1.847-2.296 0-.211.393-.563.874-.783.481-.22.968-.692 1.082-1.05.114-.358.362-.651.552-.651.19 0 .774-.435 1.298-.966 1.366-1.383 6.471-5.381 6.871-5.381.186 0 .876-.474 1.536-1.053.66-.58 1.632-1.156 2.162-1.282.53-.125 1.201-.43 1.492-.677.769-.652 5.864-2.983 6.521-2.983.871 0 3.085-1.244 4.046-2.273.727-.779.798-1.03.433-1.533-.24-.331-.668-1.106-.952-1.722-.283-.616-.836-1.222-1.227-1.346-.391-.124-.71-.37-.71-.548 0-.401-2.95-3.508-3.332-3.508-.153 0-.801-.437-1.441-.97-2.547-2.123-4.66-3.494-7.216-4.683a71.821 71.821 0 0 1-2.821-1.394c-.679-.361-2.186-.898-3.35-1.193a105.021 105.021 0 0 1-4.055-1.13c-2.52-.77-10.736-1.081-13.998-.53-1.319.224-3.35.705-4.514 1.069-1.164.364-2.695.759-3.402.877-.708.118-1.66.498-2.116.845-.456.347-1.57.906-2.476 1.243-.906.337-1.838.843-2.071 1.124-.233.28-.637.51-.897.51s-.995.454-1.632 1.01c-.637.554-1.674 1.272-2.304 1.595-.63.323-1.146.722-1.146.888 0 .165-.476.497-1.058.739-.582.24-1.058.554-1.058.696 0 .143-.94 1.232-2.09 2.422-1.15 1.19-2.193 2.483-2.316 2.872-.124.39-.374.71-.554.71-.502 0-.392 1.163.19 1.992.645.922 3.056 2.072 5.035 2.403.824.138 1.499.365 1.499.506 0 .322 2.32 1.445 2.984 1.445.27 0 .707.216.97.48.265.263 1.228.81 2.142 1.214.913.404 1.661.908 1.661 1.12 0 .212.714.691 1.587 1.065.872.374 1.587.81 1.587.97 0 .158.515.583 1.145.943 1.196.682 2.146 1.477 3.72 3.112.513.533 1.14.97 1.391.97.252 0 .637.393.857.874.22.481.692.968 1.05 1.082.358.113.651.35.651.524 0 .174.516.85 1.146 1.503 1.409 1.459 2.258 2.502 3.35 4.118 1.451 2.147 3.36 2.263 4.472.27zM99.803 33.2c2.91-.006 6.901.123 8.872.288 3.491.293 3.593.28 4.003-.485.49-.914-.03-2.46-.822-2.46-.264 0-.66-.396-.882-.881-.22-.485-.594-.882-.83-.882-.237 0-1.002-.396-1.7-.88-1.697-1.176-6.63-2.408-8.757-2.187-2.551.266-5.737 1.198-6.814 1.993-.536.397-1.137.722-1.336.722-.666 0-3.546 3.044-3.546 3.748 0 1.392.677 1.634 3.702 1.325 1.551-.158 5.201-.294 8.11-.3z" fill="#00000c"/></svg>