<svg xmlns="http://www.w3.org/2000/svg" fill="none" viewBox="0 0 348 348"><path fill="#282828" stroke="#000" stroke-width="2" d="M5.08 5.78h336.91v337.67H5.08z"/><path fill="#fff" stroke="#000" stroke-width="2" d="M282.73 40.55c0-8.37 6.97-15.16 15.56-15.16 4.13 0 8.09 1.6 11 4.44a14.97 14.97 0 0 1 4.56 10.72c0 8.38-6.96 15.17-15.56 15.17-8.59 0-15.56-6.8-15.56-15.17z"/><path fill="#464646" fill-rule="evenodd" stroke="#000" stroke-width="2.4" d="M11.84 73.18h61.73v61.73H11.84zm67.5 0h61.73v61.73H79.34zm67.5 0h61.73v61.73h-61.73zm67.5 0h61.73v61.73h-61.73zm-202.5 67.5h61.73v61.73H11.84zm67.5 0h61.73v61.73H79.34zm67.5 0h61.73v61.73h-61.73zm67.5 0h61.73v61.73h-61.73zm-202.5 67.5h61.73v61.73H11.84zm67.5 0h61.73v61.73H79.34zm67.5 0h61.73v61.73h-61.73zm67.5 0h61.73v61.73h-61.73zm-202.5 67.5h61.73v61.73H11.84zm67.5 0h61.73v61.73H79.34zm67.5 0h61.73v61.73h-61.73zm67.5 0h61.73v61.73h-61.73z"/></svg>