<svg xmlns="http://www.w3.org/2000/svg" viewBox="0 0 33.87 33.87"><path fill="navy" fill-rule="evenodd" d="M16.93 1.06c-11.91 0-13.43 12-13.43 20.77l.01.17c-1.6 1.13-2.44 2.42-2.45 3.75 0 3.9 7.1 7.06 15.87 7.06s15.88-3.16 15.88-7.06c0-1.33-.85-2.64-2.45-3.77v-.15c0-3.7-.27-7.98-1.48-11.69a2.81 2.81 0 1 1-2.4-4.75c-2.02-2.61-5.04-4.33-9.55-4.33Zm6.62 2.71a1.06 1.06 0 1 1 0 2.12 1.06 1.06 0 0 1 0-2.12zm-1.72 2.12a1.72 1.72 0 1 1 0 3.44 1.72 1.72 0 0 1 0-3.44zm-11.51 5.3a3.53 3.53 0 0 1 3.53 3.54 3.53 3.53 0 0 1-3.53 3.53 3.53 3.53 0 0 1-3.53-3.53 3.53 3.53 0 0 1 3.53-3.53zm13.23 0a3.53 3.53 0 0 1 3.53 3.54 3.53 3.53 0 0 1-3.53 3.53 3.53 3.53 0 0 1-3.53-3.53 3.53 3.53 0 0 1 3.53-3.53zM11.4 12.88a1.86 1.86 0 1 0 1.86 1.86c0-.2-.05-.4-.12-.58a1.2 1.2 0 0 1-1.75-1.07c0-.07 0-.14.02-.2zm11.06 0a1.86 1.86 0 1 0 1.86 1.86c0-.2-.05-.4-.12-.58a1.2 1.2 0 0 1-1.75-1.07c0-.07 0-.14.02-.2zm-5.53 6.7c.2 0 .38.08.5.22a4.48 4.48 0 0 0 3.46 1.52 3.78 3.78 0 0 0 2.23-1.01.66.66 0 0 1 .93.93 5.07 5.07 0 0 1-3 1.39c-1.38.17-2.91-.49-4.12-1.6-1.2 1.11-2.73 1.77-4.11 1.6a5.07 5.07 0 0 1-3-1.39.66.66 0 1 1 .93-.93c.65.64 1.5.92 2.23 1 .97.12 2.52-.44 3.45-1.5a.67.67 0 0 1 .5-.24z" paint-order="markers fill stroke"/></svg>