<svg xmlns="http://www.w3.org/2000/svg" viewBox="0 0 33.87 33.87"><path fill="#999" fill-rule="evenodd" d="M16.93 1.06c-11.91 0-13.43 12-13.43 20.77l.01.17c-1.6 1.13-2.44 2.42-2.45 3.75 0 3.9 7.1 7.06 15.87 7.06s15.88-3.16 15.88-7.06c0-1.33-.85-2.64-2.45-3.77v-.15c0-3.7-.27-7.98-1.48-11.69a6.9 6.9 0 0 1-3.67-1.24s-.09-1.37 1.26-3.51c-.2-.26-.41-.5-.63-.75a5.93 5.93 0 0 1-3.54 1.62c.2-1.65.6-2.7 1.05-3.63-.45-.26-.93-.5-1.44-.7a3.5 3.5 0 0 1-.94 1.76 5.09 5.09 0 0 1-.99-2.33c-.93-.2-1.94-.3-3.05-.3zm9.5 11.64a3.53 3.53 0 1 1-6.4 2.25l.58-.2a1.86 1.86 0 1 0 3.31-1.17zm-19 0 2.52.89a1.86 1.86 0 1 0 3.3 1.16l.59.2a3.53 3.53 0 1 1-6.4-2.25zm9.5 6.86c.2 0 .38.09.5.23a4.48 4.48 0 0 0 3.46 1.52 3.78 3.78 0 0 0 2.23-1.01.66.66 0 0 1 .93.93 5.07 5.07 0 0 1-3 1.39c-1.38.17-2.91-.49-4.12-1.6-1.2 1.11-2.73 1.77-4.11 1.6a5.07 5.07 0 0 1-3-1.39.66.66 0 1 1 .93-.93c.65.64 1.5.92 2.23 1 .97.12 2.52-.44 3.45-1.5a.67.67 0 0 1 .5-.24z" paint-order="markers"/></svg>