<svg xmlns="http://www.w3.org/2000/svg" viewBox="0 0 33.87 33.87"><path fill="#f080ff" fill-rule="evenodd" d="M16.93 9c-5.95 0-6.71 6-6.71 10.38v.09c-.8.56-1.22 1.2-1.22 1.87 0 1.95 3.55 3.53 7.93 3.53 4.39 0 7.94-1.58 7.94-3.53 0-.66-.42-1.32-1.22-1.88v-.08c0-1.85-.14-3.99-.74-5.84a1.4 1.4 0 1 1-1.2-2.38C20.7 9.86 19.18 9 16.92 9Zm3.31 1.35a.53.53 0 1 1 0 1.06.53.53 0 0 1 0-1.06zm-.86 1.06a.86.86 0 1 1 0 1.72.86.86 0 0 1 0-1.72zm-5.75 2.66a1.77 1.77 0 0 1 1.76 1.76 1.77 1.77 0 0 1-1.76 1.77 1.77 1.77 0 0 1-1.77-1.77 1.77 1.77 0 0 1 1.77-1.76zm6.61 0a1.77 1.77 0 0 1 1.77 1.76 1.77 1.77 0 0 1-1.77 1.77 1.77 1.77 0 0 1-1.76-1.77 1.77 1.77 0 0 1 1.76-1.76zm-6.07.83a.93.93 0 1 0 .93.93c0-.1-.03-.2-.06-.29a.6.6 0 0 1-.87-.64zm5.53 0a.93.93 0 1 0 .93.93c0-.1-.03-.2-.06-.29a.6.6 0 0 1-.87-.64zm-2.77 3.35c.1 0 .19.04.25.11.47.54 1.25.82 1.73.76.36-.05.8-.18 1.12-.5a.33.33 0 0 1 .46.46c-.46.46-1.04.64-1.5.7a2.7 2.7 0 0 1-2.06-.8 2.7 2.7 0 0 1-2.05.8 2.54 2.54 0 0 1-1.5-.7.33.33 0 1 1 .46-.47c.33.33.75.46 1.12.5.48.07 1.26-.21 1.72-.75a.33.33 0 0 1 .25-.11z" paint-order="markers fill stroke"/></svg>