<?xml version="1.0" encoding="UTF-8" standalone="no"?>
<svg
   xmlns:dc="http://purl.org/dc/elements/1.1/"
   xmlns:cc="http://creativecommons.org/ns#"
   xmlns:rdf="http://www.w3.org/1999/02/22-rdf-syntax-ns#"
   xmlns:svg="http://www.w3.org/2000/svg"
   xmlns="http://www.w3.org/2000/svg"
   xmlns:sodipodi="http://sodipodi.sourceforge.net/DTD/sodipodi-0.dtd"
   xmlns:inkscape="http://www.inkscape.org/namespaces/inkscape"
   version="1.1"
   viewBox="0.0 0.0 167.0 100.0"
   fill="none"
   stroke="none"
   stroke-linecap="square"
   stroke-miterlimit="10"
   id="svg4724"
   sodipodi:docname="VGA.svg"
   inkscape:version="0.92.4 (5da689c313, 2019-01-14)">
  <metadata
     id="metadata4730">
    <rdf:RDF>
      <cc:Work
         rdf:about="">
        <dc:format>image/svg+xml</dc:format>
        <dc:type
           rdf:resource="http://purl.org/dc/dcmitype/StillImage" />
        <dc:title></dc:title>
      </cc:Work>
    </rdf:RDF>
  </metadata>
  <defs
     id="defs4728" />
  <sodipodi:namedview
     pagecolor="#ffffff"
     bordercolor="#666666"
     borderopacity="1"
     objecttolerance="10"
     gridtolerance="10"
     guidetolerance="10"
     inkscape:pageopacity="0"
     inkscape:pageshadow="2"
     inkscape:window-width="1366"
     inkscape:window-height="745"
     id="namedview4726"
     showgrid="false"
     inkscape:zoom="1.7185629"
     inkscape:cx="83.5"
     inkscape:cy="50"
     inkscape:window-x="-8"
     inkscape:window-y="-8"
     inkscape:window-maximized="1"
     inkscape:current-layer="g4722" />
  <clipPath
     id="p.0">
    <path
       d="m0 0l167.0 0l0 100.0l-167.0 0l0 -100.0z"
       clip-rule="nonzero"
       id="path4669" />
  </clipPath>
  <g
     clip-path="url(#p.0)"
     id="g4722">
    <path
       fill="#000000"
       fill-opacity="0.0"
       d="m0 0l167.47244 0l0 100.0l-167.47244 0z"
       fill-rule="nonzero"
       id="path4672" />
    <path
       fill="#ffffff"
       d="m13.704724 37.446194l0 0c0 -3.8181572 3.0952291 -6.9133854 6.9133863 -6.9133854l0 0c1.8335438 0 3.5919914 0.7283726 4.888502 2.0248852c1.2965107 1.2965088 2.0248833 3.0549583 2.0248833 4.8885l0 0c0 3.8181572 -3.0952282 6.9133873 -6.9133854 6.9133873l0 0c-3.8181572 0 -6.9133863 -3.09523 -6.9133863 -6.9133873z"
       fill-rule="nonzero"
       id="path4674" />
    <path
       d="m 47.183753,29.074089 v 0 c 0,-0.889494 0.721079,-1.61057 1.610568,-1.61057 h 6.442086 v 0 c 0.42715,0 0.836805,0.169685 1.138844,0.471725 0.302039,0.30204 0.471723,0.711694 0.471723,1.138845 v 6.442085 c 0,0.88949 -0.721074,1.610568 -1.610567,1.610568 h -6.442086 c -0.889489,0 -1.610568,-0.721078 -1.610568,-1.610568 z"
       id="path4684"
       inkscape:connector-curvature="0"
       style="fill-rule:nonzero;stroke:#000000;stroke-width:1.78376353;stroke-linecap:butt;stroke-linejoin:round" />
    <path
       d="m 62.672298,29.074089 v 0 c 0,-0.889494 0.721074,-1.61057 1.610567,-1.61057 h 6.442086 v 0 c 0.427146,0 0.836806,0.169685 1.138844,0.471725 0.302039,0.30204 0.471724,0.711694 0.471724,1.138845 v 6.442085 c 0,0.88949 -0.721075,1.610568 -1.610568,1.610568 h -6.442086 c -0.889493,0 -1.610567,-0.721078 -1.610567,-1.610568 z"
       id="path4688"
       inkscape:connector-curvature="0"
       style="fill-rule:nonzero;stroke:#000000;stroke-width:1.78376353;stroke-linecap:butt;stroke-linejoin:round" />
    <path
       d="m 78.160836,29.074089 v 0 c 0,-0.889494 0.721081,-1.61057 1.610574,-1.61057 h 6.442082 v 0 c 0.427147,0 0.836806,0.169685 1.138846,0.471725 0.302038,0.30204 0.471722,0.711694 0.471722,1.138845 v 6.442085 c 0,0.88949 -0.721075,1.610568 -1.610568,1.610568 H 79.77141 c -0.889493,0 -1.610574,-0.721078 -1.610574,-1.610568 z"
       id="path4692"
       inkscape:connector-curvature="0"
       style="fill-rule:nonzero;stroke:#000000;stroke-width:1.78376353;stroke-linecap:butt;stroke-linejoin:round" />
    <path
       d="m 93.649383,29.074089 v 0 c 0,-0.889494 0.721082,-1.61057 1.610569,-1.61057 h 6.442088 v 0 c 0.42715,0 0.83681,0.169685 1.13885,0.471725 0.30203,0.30204 0.47172,0.711694 0.47172,1.138845 v 6.442085 c 0,0.88949 -0.72108,1.610568 -1.61057,1.610568 h -6.442088 c -0.889487,0 -1.610569,-0.721078 -1.610569,-1.610568 z"
       id="path4696"
       inkscape:connector-curvature="0"
       style="fill-rule:nonzero;stroke:#000000;stroke-width:1.78376353;stroke-linecap:butt;stroke-linejoin:round" />
    <path
       d="m 109.13793,29.074089 v 0 c 0,-0.889494 0.72107,-1.61057 1.61057,-1.61057 h 6.44209 v 0 c 0.42715,0 0.83681,0.169685 1.13885,0.471725 0.30204,0.30204 0.47172,0.711694 0.47172,1.138845 v 6.442085 c 0,0.88949 -0.72107,1.610568 -1.61057,1.610568 h -6.44209 c -0.8895,0 -1.61057,-0.721078 -1.61057,-1.610568 z"
       id="path4700"
       inkscape:connector-curvature="0"
       style="fill-rule:nonzero;stroke:#000000;stroke-width:1.78376353;stroke-linecap:butt;stroke-linejoin:round" />
    <path
       d="m 36.859595,21.008684 h 94.725285 l 8.73901,8.013909 -4.31266,30.679801 -19.38297,13.501521 H 52.645244 L 31.80304,57.831259 27.711817,29.895265 Z"
       id="path4720"
       inkscape:connector-curvature="0"
       style="fill-rule:nonzero;stroke:#000000;stroke-width:2.08564973;stroke-linecap:butt;stroke-linejoin:round"
       sodipodi:nodetypes="ccccccccc" />
    <path
       d="m 55.400352,43.573385 v 0 c 0,-0.889494 0.72108,-1.61057 1.61057,-1.61057 h 6.44209 v 0 c 0.42715,0 0.8368,0.169685 1.13884,0.471725 0.30204,0.30204 0.47172,0.711694 0.47172,1.138845 v 6.442085 c 0,0.88949 -0.72107,1.610568 -1.61056,1.610568 h -6.44209 c -0.88949,0 -1.61057,-0.721078 -1.61057,-1.610568 z"
       id="path4684-4"
       inkscape:connector-curvature="0"
       style="fill-rule:nonzero;stroke:#000000;stroke-width:1.78376353;stroke-linecap:butt;stroke-linejoin:round" />
    <path
       d="m 70.888902,43.573385 v 0 c 0,-0.889494 0.72107,-1.61057 1.61057,-1.61057 h 6.44208 v 0 c 0.42715,0 0.83681,0.169685 1.13885,0.471725 0.30203,0.30204 0.47172,0.711694 0.47172,1.138845 v 6.442085 c 0,0.88949 -0.72108,1.610568 -1.61057,1.610568 h -6.44208 c -0.8895,0 -1.61057,-0.721078 -1.61057,-1.610568 z"
       id="path4688-7"
       inkscape:connector-curvature="0"
       style="fill-rule:nonzero;stroke:#000000;stroke-width:1.78376353;stroke-linecap:butt;stroke-linejoin:round" />
    <path
       d="m 86.377442,43.573385 v 0 c 0,-0.889494 0.72108,-1.61057 1.61057,-1.61057 h 6.44208 v 0 c 0.42715,0 0.83681,0.169685 1.13885,0.471725 0.30204,0.30204 0.47172,0.711694 0.47172,1.138845 v 6.442085 c 0,0.88949 -0.72107,1.610568 -1.61057,1.610568 h -6.44208 c -0.88949,0 -1.61057,-0.721078 -1.61057,-1.610568 z"
       id="path4692-4"
       inkscape:connector-curvature="0"
       style="fill-rule:nonzero;stroke:#000000;stroke-width:1.78376353;stroke-linecap:butt;stroke-linejoin:round" />
    <path
       d="m 101.86598,43.573385 v 0 c 0,-0.889494 0.72109,-1.61057 1.61057,-1.61057 h 6.44209 v 0 c 0.42715,0 0.83681,0.169685 1.13885,0.471725 0.30203,0.30204 0.47172,0.711694 0.47172,1.138845 v 6.442085 c 0,0.88949 -0.72108,1.610568 -1.61057,1.610568 h -6.44209 c -0.88948,0 -1.61057,-0.721078 -1.61057,-1.610568 z"
       id="path4696-3"
       inkscape:connector-curvature="0"
       style="fill-rule:nonzero;stroke:#000000;stroke-width:1.78376353;stroke-linecap:butt;stroke-linejoin:round" />
    <path
       d="m 117.35453,43.573385 v 0 c 0,-0.889494 0.72107,-1.61057 1.61057,-1.61057 h 6.44209 v 0 c 0.42715,0 0.83681,0.169685 1.13885,0.471725 0.30204,0.30204 0.47172,0.711694 0.47172,1.138845 v 6.442085 c 0,0.88949 -0.72107,1.610568 -1.61057,1.610568 h -6.44209 c -0.8895,0 -1.61057,-0.721078 -1.61057,-1.610568 z"
       id="path4700-5"
       inkscape:connector-curvature="0"
       style="fill-rule:nonzero;stroke:#000000;stroke-width:1.78376353;stroke-linecap:butt;stroke-linejoin:round" />
    <path
       d="m 47.183753,57.074089 v 0 c 0,-0.889494 0.721079,-1.61057 1.610568,-1.61057 h 6.442086 v 0 c 0.42715,0 0.836805,0.169685 1.138844,0.471725 0.302039,0.30204 0.471723,0.711694 0.471723,1.138845 v 6.442085 c 0,0.88949 -0.721074,1.610568 -1.610567,1.610568 h -6.442086 c -0.889489,0 -1.610568,-0.721078 -1.610568,-1.610568 z"
       id="path4684-8"
       inkscape:connector-curvature="0"
       style="fill-rule:nonzero;stroke:#000000;stroke-width:1.78376353;stroke-linecap:butt;stroke-linejoin:round" />
    <path
       d="m 62.672298,57.074089 v 0 c 0,-0.889494 0.721074,-1.61057 1.610567,-1.61057 h 6.442086 v 0 c 0.427146,0 0.836806,0.169685 1.138844,0.471725 0.302039,0.30204 0.471724,0.711694 0.471724,1.138845 v 6.442085 c 0,0.88949 -0.721075,1.610568 -1.610568,1.610568 h -6.442086 c -0.889493,0 -1.610567,-0.721078 -1.610567,-1.610568 z"
       id="path4688-2"
       inkscape:connector-curvature="0"
       style="fill-rule:nonzero;stroke:#000000;stroke-width:1.78376353;stroke-linecap:butt;stroke-linejoin:round" />
    <path
       d="m 78.160839,57.074089 v 0 c 0,-0.889494 0.72108,-1.61057 1.61057,-1.61057 h 6.44208 v 0 c 0.42715,0 0.83681,0.169685 1.13885,0.471725 0.30204,0.30204 0.47172,0.711694 0.47172,1.138845 v 6.442085 c 0,0.88949 -0.72107,1.610568 -1.61057,1.610568 h -6.44208 c -0.88949,0 -1.61057,-0.721078 -1.61057,-1.610568 z"
       id="path4692-5"
       inkscape:connector-curvature="0"
       style="fill-rule:nonzero;stroke:#000000;stroke-width:1.78376353;stroke-linecap:butt;stroke-linejoin:round" />
    <path
       d="m 93.649379,57.074089 v 0 c 0,-0.889494 0.72109,-1.61057 1.61057,-1.61057 h 6.442091 v 0 c 0.42715,0 0.83681,0.169685 1.13885,0.471725 0.30204,0.30204 0.47172,0.711694 0.47172,1.138845 v 6.442085 c 0,0.88949 -0.72107,1.610568 -1.61057,1.610568 h -6.442091 c -0.88948,0 -1.61057,-0.721078 -1.61057,-1.610568 z"
       id="path4696-0"
       inkscape:connector-curvature="0"
       style="fill-rule:nonzero;stroke:#000000;stroke-width:1.78376353;stroke-linecap:butt;stroke-linejoin:round" />
    <path
       d="m 109.13793,57.074089 v 0 c 0,-0.889494 0.72107,-1.61057 1.61057,-1.61057 h 6.44209 v 0 c 0.42715,0 0.83681,0.169685 1.13885,0.471725 0.30204,0.30204 0.47172,0.711694 0.47172,1.138845 v 6.442085 c 0,0.88949 -0.72107,1.610568 -1.61057,1.610568 h -6.44209 c -0.8895,0 -1.61057,-0.721078 -1.61057,-1.610568 z"
       id="path4700-8"
       inkscape:connector-curvature="0"
       style="fill-rule:nonzero;stroke:#000000;stroke-width:1.78376353;stroke-linecap:butt;stroke-linejoin:round" />
  </g>
</svg>
