<svg xmlns="http://www.w3.org/2000/svg" viewBox="0 0 2685 930">
  <defs>
    <clipPath id="a" clipPathUnits="userSpaceOnUse">
      <path fill="none" stroke="red" stroke-width="3" d="M562.08984 237.706c-25.02638 0-46.67933 8.6818-64.95703 26.0449-17.99649 17.363-26.99414 38.2511-26.99414 62.6679 0 17.0918 4.64048 32.6934 13.91992 46.8008l86.04493 129.8145h-99.96485l33.32227 61.4492h118.52344c25.02638 0 46.53865-8.6799 64.53515-26.043 17.9965-17.3631 26.99414-38.2531 26.99414-62.6699 0-17.9056-4.78115-33.914-14.34179-48.0215l-87.31055-128.5937H713.0918l-21.08985-61.4492Zm347.13672 0c-48.0844 0-89.2801 16.4132-123.58594 49.2402-34.02463 32.5558-51.0371 71.7581-51.0371 117.6074 0 45.8494 17.01247 85.1886 51.0371 118.0156 34.30584 32.5558 75.50154 48.8321 123.58594 48.8321 48.0844 0 89.13945-16.2763 123.16404-48.8321 34.3059-32.827 51.4571-72.1662 51.4571-118.0156 0-45.8493-17.1512-85.0516-51.4571-117.6074-34.02459-32.827-75.07964-49.2402-123.16404-49.2402zm195.71094 0v191.6718c0 39.0669 14.3415 72.5719 43.0234 100.5157 28.9632 27.6723 63.5508 41.5078 103.7618 41.5078 40.492 0 75.0797-13.8355 103.7617-41.5078 28.9631-27.9438 43.4433-61.4488 43.4433-100.5157V237.706h-93.6367v266.957h-52.3027V237.706Zm315.0801 0v326.7773h201.1953c28.9631 0 53.709-9.3585 74.2363-28.0781 20.8085-18.7195 31.2129-41.3737 31.2129-67.961 0-20.6186-6.4674-39.0658-19.4023-55.3437-12.935-16.5491-29.6661-28.0806-50.1934-34.5918 13.4974-6.5111 24.3219-15.7348 32.4766-27.6719 8.4358-11.9372 12.6543-24.9589 12.6543-39.0664 0-20.3474-8.0129-37.7111-24.0411-52.0898-15.7469-14.6501-34.7288-21.9746-56.9433-21.9746zm502.3574 0c-48.0844 0-89.2801 16.4132-123.5859 49.2402-34.0247 32.5558-51.0371 71.7581-51.0371 117.6074 0 45.8494 17.0124 85.1886 51.0371 118.0156 34.3058 32.5558 75.5015 48.8321 123.5859 48.8321s89.1375-16.2763 123.1621-48.8321c34.3058-32.827 51.459-72.1662 51.459-118.0156 0-45.8493-17.1532-85.0516-51.459-117.6074-34.0246-32.827-75.0777-49.2402-123.1621-49.2402zm195.7109 0v326.7773h145.0977V446.4696l73.8144 118.0137h147.2051l-119.789-159.9297c13.4973-8.1389 24.1831-18.9917 32.0566-32.5566 8.1547-13.565 12.2305-28.214 12.2305-43.9493 0-24.9594-9.1383-46.2563-27.416-63.8906-18.2777-17.6344-40.3508-26.4511-66.2207-26.4511zM883.07422 299.1552h52.30273v203.8789h-52.30273zm674.86918 0h39.6504v62.6699h-39.6504zm338.2793 0h52.3027v203.8789h-52.3027zm366.9609 0h38.8047v91.9687h-38.8047zm-705.2402 117.6074h39.6504v86.2715h-39.6504z"/>
    </clipPath>
  </defs>
  <g>
    <path stroke="#000" stroke-linejoin="round" stroke-width="15" d="M1975.1194 560.0002c-9.8127 0-18.2194 3.32927-25.2203 9.98741-6.9436 6.60315-10.4152 14.55372-10.4152 23.85304s3.4716 17.27812 10.4152 23.93619c7.0009 6.60309 15.4076 9.90553 25.2203 9.90553 6.303 0 12.0109-1.36939 17.13-4.09404v177.69452h-34.9758V623.58187h-99.0083v127.5871c0 26.00504 9.5908 48.30776 28.7717 66.90866 19.3689 18.42018 42.4993 27.62984 69.3902 27.62984 27.0789 0 50.208-9.20966 69.3888-27.62984 19.369-18.6009 29.0539-40.90362 29.0539-66.90866v-127.5871h-62.61c2.8464-1.51636 5.5132-3.44629 7.9936-5.80503 7.0008-6.65807 10.5014-14.63687 10.5014-23.93619s-3.5006-17.24989-10.5014-23.85304c-6.9435-6.65814-15.3214-9.98741-25.1341-9.98741zm-375.3098 8.32067-25.3863 51.46857h23.9756l45.6955-51.46857zm366.1812 3.42706h18.2585v44.18671h-18.2585zM929.72656 623.31009l-80.53288 217.1449V623.58187h-86.87813l-46.54181 78.55623-48.79882-78.55623H598.149v217.5206h46.82393v-79.36883l38.92569 69.07589h25.10539l43.15628-78.28582v88.57876h97.03339v-.27045h51.76116l12.41097-33.86122h51.90099c7.898 21.4903 12.0362 32.77767 12.4123 33.86122h101.533v.27045h55.5686v-78.82799l93.6479 78.82799h54.1579v-217.5206h-55.8507v84.24551l-97.8785-84.24551h-49.6452v217.21507l-80.0966-217.48685Zm622.97694 0-80.6727 217.52193h51.901l12.4109-33.86122h51.9023c7.898 21.4903 12.0348 32.77767 12.4109 33.86122h97.8667v.27045h154.2934l10.154-40.9039h-67.6974v-176.6167h-96.75v207.25888l-76.429-207.53066zm-258.9691.27178v127.5871c0 26.00504 9.5908 48.30776 28.7717 66.90866 19.369 18.42018 42.4994 27.62984 69.3902 27.62984 27.079 0 50.208-9.20966 69.3889-27.62984 19.3689-18.6009 29.0538-40.90362 29.0538-66.90866v-127.5871h-62.6204v177.70098h-34.9772V623.58187ZM939.3163 736.54149l11.2838 30.06753h-22.28417zm622.9782 0 11.2825 30.06753h-22.2842z" color="#000" overflow="visible" style="marker:none" transform="translate(0 -122.3622)"/>
    <path fill="none" stroke="#000" stroke-linejoin="round" stroke-width="15" d="M572.09017 127.344c-25.02638 0-46.67933 8.6818-64.95703 26.0449-17.99649 17.363-26.99414 38.2511-26.99414 62.6679 0 17.0918 4.64048 32.6934 13.91992 46.8008l86.04493 129.8145H480.139l33.32227 61.4492h118.52344c25.02638 0 46.53865-8.6799 64.53515-26.043 17.9965-17.3631 26.99414-38.2531 26.99414-62.6699 0-17.9056-4.78115-33.914-14.34179-48.0215l-87.31055-128.5937h101.23047l-21.08985-61.4492zm347.13672 0c-48.0844 0-89.2801 16.4132-123.58594 49.2402-34.02463 32.5558-51.0371 71.7581-51.0371 117.6074 0 45.8494 17.01247 85.1886 51.0371 118.0156 34.30584 32.5558 75.50154 48.8321 123.58594 48.8321 48.0844 0 89.13941-16.2763 123.16401-48.8321 34.3059-32.827 51.4571-72.1662 51.4571-118.0156 0-45.8493-17.1512-85.0516-51.4571-117.6074-34.0246-32.827-75.07961-49.2402-123.16401-49.2402zm195.71091 0v191.6718c0 39.0669 14.3415 72.5719 43.0234 100.5157 28.9632 27.6723 63.5508 41.5078 103.7618 41.5078 40.492 0 75.0797-13.8355 103.7617-41.5078 28.9631-27.9438 43.4433-61.4488 43.4433-100.5157V127.344h-93.6367v266.957h-52.3027V127.344zm315.0801 0v326.7773h201.1953c28.9631 0 53.709-9.3585 74.2363-28.0781 20.8085-18.7195 31.2129-41.3737 31.2129-67.961 0-20.6186-6.4674-39.0658-19.4023-55.3437-12.935-16.5491-29.6661-28.0806-50.1934-34.5918 13.4974-6.5111 24.3219-15.7348 32.4766-27.6719 8.4358-11.9372 12.6543-24.9589 12.6543-39.0664 0-20.3474-8.0129-37.7111-24.0411-52.0898-15.7469-14.6501-34.7288-21.9746-56.9433-21.9746zm502.3574 0c-48.0844 0-89.2801 16.4132-123.5859 49.2402-34.0247 32.5558-51.0371 71.7581-51.0371 117.6074 0 45.8494 17.0124 85.1886 51.0371 118.0156 34.3058 32.5558 75.5015 48.8321 123.5859 48.8321s89.1375-16.2763 123.1621-48.8321c34.3058-32.827 51.459-72.1662 51.459-118.0156 0-45.8493-17.1532-85.0516-51.459-117.6074-34.0246-32.827-75.0777-49.2402-123.1621-49.2402zm195.7109 0v326.7773h145.0977V336.1076l73.8144 118.0137h147.2051l-119.789-159.9297c13.4973-8.1389 24.1831-18.9917 32.0566-32.5566 8.1547-13.565 12.2305-28.214 12.2305-43.9493 0-24.9594-9.1383-46.2563-27.416-63.8906-18.2777-17.6344-40.3508-26.4511-66.2207-26.4511zM893.07455 188.7932h52.30273v203.8789h-52.30273zm674.86915 0h39.6504v62.6699h-39.6504zm338.2793 0h52.3027v203.8789h-52.3027zm366.9609 0h38.8047v91.9687h-38.8047zm-705.2402 117.6074h39.6504v86.2715h-39.6504z"/>
    <path fill="none" stroke="#fff" stroke-linejoin="round" stroke-width="12" d="M562.08984 115.3438c-25.02638 0-46.67933 8.6818-64.95703 26.0449-17.99649 17.363-26.99414 38.2511-26.99414 62.6679 0 17.0918 4.64048 32.6934 13.91992 46.8008l86.04493 129.8145h-99.96485l33.32227 61.4492h118.52344c25.02638 0 46.53865-8.6799 64.53515-26.043 17.9965-17.3631 26.99414-38.2531 26.99414-62.6699 0-17.9056-4.78115-33.914-14.34179-48.0215L611.86133 176.793H713.0918l-21.08985-61.4492Zm347.13672 0c-48.0844 0-89.2801 16.4132-123.58594 49.2402-34.02463 32.5558-51.0371 71.7581-51.0371 117.6074 0 45.8494 17.01247 85.1886 51.0371 118.0156 34.30584 32.5558 75.50154 48.8321 123.58594 48.8321 48.0844 0 89.13945-16.2763 123.16404-48.8321 34.3059-32.827 51.4571-72.1662 51.4571-118.0156 0-45.8493-17.1512-85.0516-51.4571-117.6074-34.02459-32.827-75.07964-49.2402-123.16404-49.2402zm195.71094 0v191.6718c0 39.0669 14.3415 72.5719 43.0234 100.5157 28.9632 27.6723 63.5508 41.5078 103.7618 41.5078 40.492 0 75.0797-13.8355 103.7617-41.5078 28.9631-27.9438 43.4433-61.4488 43.4433-100.5157V115.3438h-93.6367v266.957h-52.3027v-266.957Zm315.0801 0v326.7773h201.1953c28.9631 0 53.709-9.3585 74.2363-28.0781 20.8085-18.7195 31.2129-41.3737 31.2129-67.961 0-20.6186-6.4674-39.0658-19.4023-55.3437-12.935-16.5491-29.6661-28.0806-50.1934-34.5918 13.4974-6.5111 24.3219-15.7348 32.4766-27.6719 8.4358-11.9372 12.6543-24.9589 12.6543-39.0664 0-20.3474-8.0129-37.7111-24.0411-52.0898-15.7469-14.6501-34.7288-21.9746-56.9433-21.9746zm502.3574 0c-48.0844 0-89.2801 16.4132-123.5859 49.2402-34.0247 32.5558-51.0371 71.7581-51.0371 117.6074 0 45.8494 17.0124 85.1886 51.0371 118.0156 34.3058 32.5558 75.5015 48.8321 123.5859 48.8321s89.1375-16.2763 123.1621-48.8321c34.3058-32.827 51.459-72.1662 51.459-118.0156 0-45.8493-17.1532-85.0516-51.459-117.6074-34.0246-32.827-75.0777-49.2402-123.1621-49.2402zm195.7109 0v326.7773h145.0977V324.1074l73.8144 118.0137h147.2051l-119.789-159.9297c13.4973-8.1389 24.1831-18.9917 32.0566-32.5566 8.1547-13.565 12.2305-28.214 12.2305-43.9493 0-24.9594-9.1383-46.2563-27.416-63.8906-18.2777-17.6344-40.3508-26.4511-66.2207-26.4511zM883.07422 176.793h52.30273v203.8789h-52.30273zm674.86918 0h39.6504v62.6699h-39.6504zm338.2793 0h52.3027v203.8789h-52.3027zm366.9609 0h38.8047v91.9687h-38.8047zm-705.2402 117.6074h39.6504v86.2715h-39.6504z"/>
    <g clip-path="url(#a)" transform="translate(.040291 -121.9872)">
      <path fill="#0054b1" d="M437.76035-23.210287h2612.4409v611.9231H437.76035z" color="#000" overflow="visible" style="marker:none"/>
      <path fill="none" stroke="#fff" stroke-width="5" d="M332.79796 452.83005H2609.0231M333.54956 471.62366H2601.1953M333.54956 493.394H2619.8404M333.63007 510.6614H2616.512M333.54956 532.22758H2615.3166" color="#000" overflow="visible" style="marker:none"/>
      <path fill="none" stroke="#000" stroke-width="22.5" d="M562.08984 237.706c-25.02638 0-46.67933 8.6818-64.95703 26.0449-17.99649 17.363-26.99414 38.2511-26.99414 62.6679 0 17.0918 4.64048 32.6934 13.91992 46.8008l86.04493 129.8145h-99.96485l33.32227 61.4492h118.52344c25.02638 0 46.53865-8.6799 64.53515-26.043 17.9965-17.3631 26.99414-38.2531 26.99414-62.6699 0-17.9056-4.78115-33.914-14.34179-48.0215l-87.31055-128.5937H713.0918l-21.08985-61.4492Zm347.13672 0c-48.0844 0-89.2801 16.4132-123.58594 49.2402-34.02463 32.5558-51.0371 71.7581-51.0371 117.6074 0 45.8494 17.01247 85.1886 51.0371 118.0156 34.30584 32.5558 75.50154 48.8321 123.58594 48.8321 48.0844 0 89.13945-16.2763 123.16404-48.8321 34.3059-32.827 51.4571-72.1662 51.4571-118.0156 0-45.8493-17.1512-85.0516-51.4571-117.6074-34.02459-32.827-75.07964-49.2402-123.16404-49.2402zm195.71094 0v191.6718c0 39.0669 14.3415 72.5719 43.0234 100.5157 28.9632 27.6723 63.5508 41.5078 103.7618 41.5078 40.492 0 75.0797-13.8355 103.7617-41.5078 28.9631-27.9438 43.4433-61.4488 43.4433-100.5157V237.706h-93.6367v266.957h-52.3027V237.706Zm315.0801 0v326.7773h201.1953c28.9631 0 53.709-9.3585 74.2363-28.0781 20.8085-18.7195 31.2129-41.3737 31.2129-67.961 0-20.6186-6.4674-39.0658-19.4023-55.3437-12.935-16.5491-29.6661-28.0806-50.1934-34.5918 13.4974-6.5111 24.3219-15.7348 32.4766-27.6719 8.4358-11.9372 12.6543-24.9589 12.6543-39.0664 0-20.3474-8.0129-37.7111-24.0411-52.0898-15.7469-14.6501-34.7288-21.9746-56.9433-21.9746zm502.3574 0c-48.0844 0-89.2801 16.4132-123.5859 49.2402-34.0247 32.5558-51.0371 71.7581-51.0371 117.6074 0 45.8494 17.0124 85.1886 51.0371 118.0156 34.3058 32.5558 75.5015 48.8321 123.5859 48.8321s89.1375-16.2763 123.1621-48.8321c34.3058-32.827 51.459-72.1662 51.459-118.0156 0-45.8493-17.1532-85.0516-51.459-117.6074-34.0246-32.827-75.0777-49.2402-123.1621-49.2402zm195.7109 0v326.7773h145.0977V446.4696l73.8144 118.0137h147.2051l-119.789-159.9297c13.4973-8.1389 24.1831-18.9917 32.0566-32.5566 8.1547-13.565 12.2305-28.214 12.2305-43.9493 0-24.9594-9.1383-46.2563-27.416-63.8906-18.2777-17.6344-40.3508-26.4511-66.2207-26.4511zM883.07422 299.1552h52.30273v203.8789h-52.30273zm674.86918 0h39.6504v62.6699h-39.6504zm338.2793 0h52.3027v203.8789h-52.3027zm366.9609 0h38.8047v91.9687h-38.8047zm-705.2402 117.6074h39.6504v86.2715h-39.6504z"/>
    </g>
    <path fill="none" stroke="#000" stroke-dasharray="60 60" stroke-width="30" d="M256.39947 589.85677c74.45319 151.00355 180.97049 210.47227 318.02971 210.47227H2031.1388s88.7683-6.82833 179.8126-97.87267"/>
    <g color="#000">
      <path fill="#fff" stroke="#000" stroke-linejoin="round" stroke-width="10" d="M2414.4063 670.47455h187.5l62.5 56.99998v296.99997h-250z" overflow="visible" style="marker:none" transform="rotate(13.627166 3068.113103 708.89596)"/>
      <path fill="none" stroke="#000" stroke-linejoin="round" stroke-width="10" d="m2601.2406 670.9221.4024 59.54971 62.3662-1.60945" overflow="visible" style="marker:none" transform="rotate(13.627166 3068.113103 708.89596)"/>
      <path d="m2640.4313 791.94741-21.2889 18.84864-.8078-16.745-6.0921 14.91062-5.3685-9.03725.4712 12.40308-16.2401-10.8548 15.0116 17.60328 3.9884 2.1373c-3.2175 3.8305-4.2931 10.19923-4.1399 13.79989.1532 3.60067 2.1352 9.02394-5.7556 8.7175-5.9739-.23201-13.4331-3.27542-18.2596-5.57045l-6.1763-14.48988-16.5262-.74049c-13.1428-12.77277-31.0663-20.64935-50.8408-20.64935-40.303 0-72.988 32.68497-72.988 72.98797 0 40.30301 32.685 72.97114 72.988 72.97114s72.9711-32.66813 72.9711-72.97114c0-1.35024-.0454-2.69-.1177-4.02216l11.225-8.34726-6.8663-16.12231c4.8202 1.52256 12.7997 3.16122 15.9035 3.09656 3.6772-.07661 5.3524-.7055 8.0443-2.75998 2.9112-2.22168 2.9093-6.8438 2.6927-8.93627-.2297-2.22168-.3954-7.90476.2861-8.1453.6542-.2309 3.2143 1.29584 3.2143 1.29584l3.9886 11.64577v-7.96019l14.2542 13.93453-10.4172-16.08866 15.6175 4.4429-12.706-14.25428 17.435-5.78923-19.1179-.48804 15.6174-24.82298zm-79.4335 103.88627 3.8202 3.60143s-4.7515 10.72221-12.3358 18.61303c-7.5843 7.89082-15.853 11.19137-15.853 11.19137l-2.6086-3.53411s8.657-4.27841 15.3987-12.01601c6.7416-7.7376 11.5785-17.85571 11.5785-17.85571z" overflow="visible" style="marker:none" transform="rotate(13.627166 3068.113103 708.89596)"/>
    </g>
    <g color="#000">
      <path fill="#fff" stroke="#000" stroke-linejoin="round" stroke-width="10" d="M2414.4063 670.47455h187.5l62.5 56.99998v296.99997h-250z" overflow="visible" style="marker:none" transform="translate(-125.88126 -172.850061)"/>
      <path fill="none" stroke="#000" stroke-linejoin="round" stroke-width="10" d="m2601.2406 670.9221.4024 59.54971 62.3662-1.60945" overflow="visible" style="marker:none" transform="translate(-125.88126 -172.850061)"/>
      <path d="m2640.4313 791.94741-21.2889 18.84864-.8078-16.745-6.0921 14.91062-5.3685-9.03725.4712 12.40308-16.2401-10.8548 15.0116 17.60328 3.9884 2.1373c-3.2175 3.8305-4.2931 10.19923-4.1399 13.79989.1532 3.60067 2.1352 9.02394-5.7556 8.7175-5.9739-.23201-13.4331-3.27542-18.2596-5.57045l-6.1763-14.48988-16.5262-.74049c-13.1428-12.77277-31.0663-20.64935-50.8408-20.64935-40.303 0-72.988 32.68497-72.988 72.98797 0 40.30301 32.685 72.97114 72.988 72.97114s72.9711-32.66813 72.9711-72.97114c0-1.35024-.0454-2.69-.1177-4.02216l11.225-8.34726-6.8663-16.12231c4.8202 1.52256 12.7997 3.16122 15.9035 3.09656 3.6772-.07661 5.3524-.7055 8.0443-2.75998 2.9112-2.22168 2.9093-6.8438 2.6927-8.93627-.2297-2.22168-.3954-7.90476.2861-8.1453.6542-.2309 3.2143 1.29584 3.2143 1.29584l3.9886 11.64577v-7.96019l14.2542 13.93453-10.4172-16.08866 15.6175 4.4429-12.706-14.25428 17.435-5.78923-19.1179-.48804 15.6174-24.82298zm-79.4335 103.88627 3.8202 3.60143s-4.7515 10.72221-12.3358 18.61303c-7.5843 7.89082-15.853 11.19137-15.853 11.19137l-2.6086-3.53411s8.657-4.27841 15.3987-12.01601c6.7416-7.7376 11.5785-17.85571 11.5785-17.85571z" overflow="visible" style="marker:none" transform="translate(-125.88126 -172.850061)"/>
    </g>
    <path fill="#fff" stroke="#000" stroke-linejoin="round" stroke-width="10" d="m349.21986 137.66629-333.304913 54.6492 57.752168 449.55797 324.489075-66.05624z" color="#000" overflow="visible" style="marker:none" transform="translate(0 -122.3622)"/>
    <path fill="#fff" stroke="#000" stroke-linejoin="round" stroke-width="1.891219" d="m43.417478 88.56397 59.921282 446.68981 285.18102-87.66809-53.26337-428.94746z"/>
    <path fill="#fff" stroke="#000" stroke-linejoin="round" stroke-width="1.891219" d="M49.119506 93.31711 109.0408 540.00693l285.18102-87.6681-53.26337-428.94746z"/>
    <path fill="#fff" stroke="#000" stroke-linejoin="round" stroke-width="1.891219" d="m53.229586 96.14585 59.921284 446.68981 285.18103-87.66809-53.26337-428.94746z"/>
    <path fill="#fff" stroke="#000" stroke-linejoin="round" stroke-width="1.891219" d="M59.689106 98.43506 119.6104 545.12488l285.181-87.6681-53.26337-428.94746z"/>
    <path fill="#fff" stroke="#000" stroke-linejoin="round" stroke-width="1.891219" d="m63.04595 101.7189 59.92129 446.68981 285.18104-87.66809-53.26347-428.94746z"/>
    <path fill="#fff" stroke="#000" stroke-linejoin="round" stroke-width="1.891219" d="m68.974991 105.83027 59.921289 446.68981 285.18105-87.66809-53.26346-428.94746z"/>
    <path fill="#fff" stroke="#000" stroke-linejoin="round" stroke-width="10" d="M69.281014 125.00384 128.736 580.42779l291.62352-111.74282-51.21244-435.87481z"/>
    <g color="#000">
      <path fill="#fff" stroke="#000" stroke-linejoin="round" stroke-width="10" d="M2414.4063 670.47455h187.5l62.5 56.99998v296.99997h-250z" overflow="visible" style="marker:none" transform="rotate(-15.315194 1756.025342 1640.378199)"/>
      <path fill="none" stroke="#000" stroke-linejoin="round" stroke-width="10" d="m2601.2406 670.9221.4024 59.54971 62.3662-1.60945" overflow="visible" style="marker:none" transform="rotate(-15.315194 1756.025342 1640.378199)"/>
      <path d="m2640.4313 791.94741-21.2889 18.84864-.8078-16.745-6.0921 14.91062-5.3685-9.03725.4712 12.40308-16.2401-10.8548 15.0116 17.60328 3.9884 2.1373c-3.2175 3.8305-4.2931 10.19923-4.1399 13.79989.1532 3.60067 2.1352 9.02394-5.7556 8.7175-5.9739-.23201-13.4331-3.27542-18.2596-5.57045l-6.1763-14.48988-16.5262-.74049c-13.1428-12.77277-31.0663-20.64935-50.8408-20.64935-40.303 0-72.988 32.68497-72.988 72.98797 0 40.30301 32.685 72.97114 72.988 72.97114s72.9711-32.66813 72.9711-72.97114c0-1.35024-.0454-2.69-.1177-4.02216l11.225-8.34726-6.8663-16.12231c4.8202 1.52256 12.7997 3.16122 15.9035 3.09656 3.6772-.07661 5.3524-.7055 8.0443-2.75998 2.9112-2.22168 2.9093-6.8438 2.6927-8.93627-.2297-2.22168-.3954-7.90476.2861-8.1453.6542-.2309 3.2143 1.29584 3.2143 1.29584l3.9886 11.64577v-7.96019l14.2542 13.93453-10.4172-16.08866 15.6175 4.4429-12.706-14.25428 17.435-5.78923-19.1179-.48804 15.6174-24.82298zm-79.4335 103.88627 3.8202 3.60143s-4.7515 10.72221-12.3358 18.61303c-7.5843 7.89082-15.853 11.19137-15.853 11.19137l-2.6086-3.53411s8.657-4.27841 15.3987-12.01601c6.7416-7.7376 11.5785-17.85571 11.5785-17.85571z" overflow="visible" style="marker:none" transform="rotate(-15.315194 1756.025342 1640.378199)"/>
    </g>
    <path fill="#fff" stroke="#000" stroke-linejoin="round" stroke-width="10" d="m15.491004 192.73944 53.59475 53.78838 59.899156 455.76859-55.627409-60.97576z" color="#000" overflow="visible" style="marker:none" transform="translate(0 -122.3622)"/>
    <g>
      <path fill="#ba4423" d="M262.260154 217.066994c-1.19472 14.25429 5.60617 20.9332 13.87203 25.87783 8.49399 5.0811 19.13219 5.68783 17.18388 15.03331-2.73035 13.09666-22.48716 8.04591-22.81985 21.42455-.28689 11.53689 16.51485 8.87047 2.39674 19.14874-12.96186 9.43651-19.63317 13.3734-31.9565 24.68044 9.77377 5.42396 17.90299 7.43354 25.18753 10.18093 15.29304 5.76784-.91779 10.65559-4.00909 22.28486-3.38436 12.73176 2.51074 20.89768-3.2247 31.66417-5.30847 9.965-15.1876 15.1215-24.12715 18.93325-8.57579 3.65665-13.46492 4.32128-24.79534 9.14336l.04358 1.41117c12.03227 1.93694 25.34998 1.129 39.36459-2.84026 53.61178-15.18408 97.07512-70.95723 97.07512-124.56901 0-49.24663-36.66545-79.5354-84.19084-72.37334z"/>
      <path fill="none" stroke="#000" stroke-linejoin="round" stroke-width="10.101303" d="M570.55069 334.02396a214.0571 214.0571 0 0 1-214.0571 214.05709 214.0571 214.0571 0 0 1-214.0571-214.05709 214.0571 214.0571 0 0 1 214.0571-214.0571 214.0571 214.0571 0 0 1 214.0571 214.0571z" color="#000" overflow="visible" style="marker:none" transform="matrix(.45333 -.1284 0 .45333 87.772148 211.282744)"/>
      <path fill="none" stroke="#000" stroke-linejoin="round" stroke-width="19.674191" d="M631.7099 343.27832a266.76666 266.76666 0 0 1-266.76666 266.76666A266.76666 266.76666 0 0 1 98.176575 343.27832 266.76666 266.76666 0 0 1 364.94324 76.511658 266.76666 266.76666 0 0 1 631.7099 343.27832Z" color="#000" overflow="visible" style="marker:none" transform="matrix(.47252 -.13383 0 .47252 76.796123 204.170444)"/>
      <path fill="none" stroke="#fff" stroke-linecap="round" stroke-width="9.296435" d="m295.071454 295.391194 23.19136-21.90454"/>
      <path fill="none" stroke="#fff" stroke-linecap="round" stroke-width="9.296435" d="m311.9521 431.92146 25.06162-7.28506M306.71534 450.23706l21.50811 12.42409" color="#000" overflow="visible" style="marker:none" transform="translate(-11.830906 -120.940996)"/>
    </g>
    <path d="M61.086023 159.75439a7.72352 7.021382 0 0 1-7.72352 7.02139 7.72352 7.021382 0 0 1-7.72352-7.02139 7.72352 7.021382 0 0 1 7.72352-7.02138 7.72352 7.021382 0 0 1 7.72352 7.02138z" color="#000" overflow="visible" style="marker:none" transform="matrix(.97106 .81777 0 1.06817 -1.658119 -59.971602)"/>
    <path d="M61.086023 159.75439a7.72352 7.021382 0 0 1-7.72352 7.02139 7.72352 7.021382 0 0 1-7.72352-7.02139 7.72352 7.021382 0 0 1 7.72352-7.02138 7.72352 7.021382 0 0 1 7.72352 7.02138z" color="#000" overflow="visible" style="marker:none" transform="matrix(.97106 .81777 0 1.06817 42.800111 279.39142)"/>
    <path fill="none" stroke="#fff" stroke-linejoin="round" stroke-width="10" d="M1965.119 548.00044c-9.8127 0-18.2194 3.32927-25.2203 9.98741-6.9436 6.60315-10.4152 14.55372-10.4152 23.85304s3.4716 17.27812 10.4152 23.93619c7.0009 6.60309 15.4076 9.90553 25.2203 9.90553 6.303 0 12.0109-1.36939 17.13-4.09404v177.69452h-34.9758V611.58211h-99.0083v127.5871c0 26.00504 9.5908 48.30776 28.7717 66.90866 19.3689 18.42018 42.4993 27.62984 69.3902 27.62984 27.0789 0 50.208-9.20966 69.3888-27.62984 19.369-18.6009 29.0539-40.90362 29.0539-66.90866v-127.5871h-62.61c2.8464-1.51636 5.5132-3.44629 7.9936-5.80503 7.0008-6.65807 10.5014-14.63687 10.5014-23.93619s-3.5006-17.24989-10.5014-23.85304c-6.9435-6.65814-15.3214-9.98741-25.1341-9.98741zm-375.3098 8.32067-25.3863 51.46857h23.9756l45.6955-51.46857zm366.1812 3.42706h18.2585v44.18671h-18.2585zM919.7262 611.31033l-80.53288 217.1449V611.58211h-86.87813l-46.54181 78.55623-48.79882-78.55623h-68.82592v217.5206h46.82393v-79.36883l38.92569 69.07589h25.10539l43.15628-78.28582v88.57876h97.03339v-.27045h51.76116l12.41097-33.86122h51.90095c7.898 21.4903 12.0362 32.77767 12.4123 33.86122h101.533v.27045h55.5686v-78.82799l93.6479 78.82799h54.1579v-217.5206h-55.8507v84.24551l-97.8785-84.24551h-49.6452v217.21507l-80.0966-217.48685Zm622.9769 0-80.6727 217.52193h51.901l12.4109-33.86122h51.9023c7.898 21.4903 12.0348 32.77767 12.4109 33.86122h97.8667v.27045h154.2934l10.154-40.9039h-67.6974v-176.6167h-96.75v207.25888l-76.429-207.53066zm-258.9691.27178v127.5871c0 26.00504 9.5908 48.30776 28.7717 66.90866 19.369 18.42018 42.4994 27.62984 69.3902 27.62984 27.079 0 50.208-9.20966 69.3889-27.62984 19.3689-18.6009 29.0538-40.90362 29.0538-66.90866v-127.5871h-62.6204v177.70098h-34.9772V611.58211ZM929.31591 724.54173l11.28379 30.06753h-22.28413zm622.97819 0 11.2825 30.06753h-22.2842z" color="#000" overflow="visible" style="marker:none" transform="translate(0 -122.3622)"/>
    <path fill="#f0cc00" stroke="#000" stroke-width="7" d="M1962.5932 545.47456c-9.8127 0-18.2194 3.32927-25.2203 9.98741-6.9436 6.60315-10.4152 14.55372-10.4152 23.85304s3.4716 17.27812 10.4152 23.93619c7.0009 6.60309 15.4076 9.90553 25.2203 9.90553 6.303 0 12.0109-1.36939 17.13-4.09404v177.69452h-34.9758V609.05623h-99.0083v127.5871c0 26.00504 9.5908 48.30776 28.7717 66.90866 19.3689 18.42018 42.4993 27.62984 69.3902 27.62984 27.0789 0 50.208-9.20966 69.3888-27.62984 19.369-18.6009 29.0539-40.90362 29.0539-66.90866v-127.5871h-62.61c2.8464-1.51636 5.5132-3.44629 7.9936-5.80503 7.0008-6.65807 10.5014-14.63687 10.5014-23.93619s-3.5006-17.24989-10.5014-23.85304c-6.9435-6.65814-15.3214-9.98741-25.1341-9.98741zm-375.3098 8.32067-25.3863 51.46857h23.9756l45.6955-51.46857zm366.1812 3.42706h18.2585V601.409h-18.2585zM917.20032 608.78445l-80.53288 217.1449V609.05623h-86.87813l-46.54181 78.55623-48.79882-78.55623h-68.82592v217.5206h46.82393V747.208l38.92569 69.07589h25.10539l43.15628-78.28582v88.57876h97.03339v-.27045h51.76116l12.41097-33.86122h51.90103c7.898 21.4903 12.0362 32.77767 12.4123 33.86122h101.533v.27045h55.5686v-78.82799l93.6479 78.82799h54.1579v-217.5206h-55.8507v84.24551l-97.8785-84.24551h-49.6452V826.2713l-80.0966-217.48685Zm622.97698 0-80.6727 217.52193h51.901l12.4109-33.86122h51.9023c7.898 21.4903 12.0348 32.77767 12.4109 33.86122h97.8667v.27045h154.2934l10.154-40.9039h-67.6974v-176.6167h-96.75v207.25888l-76.429-207.53066zm-258.9691.27178v127.5871c0 26.00504 9.5908 48.30776 28.7717 66.90866 19.369 18.42018 42.4994 27.62984 69.3902 27.62984 27.079 0 50.208-9.20966 69.3889-27.62984 19.3689-18.6009 29.0538-40.90362 29.0538-66.90866v-127.5871h-62.6204v177.70098h-34.9772V609.05623ZM926.79003 722.01585l11.28387 30.06753h-22.28421zm622.97827 0 11.2825 30.06753h-22.2842z" color="#000" overflow="visible" style="font-variation-settings:normal;-inkscape-stroke:none;marker:none" transform="translate(0 -122.3622)"/>
  </g>
</svg>
