<svg xmlns="http://www.w3.org/2000/svg" width="70" height="80" viewBox="0 0 18.5 21.2"><g fill="none" stroke="#000" stroke-width=".3"><path d="M.2.2h18.2v18.2H.2zM5.3 18.5h7.9v2.7H5.3z"/><path d="M8.5 20.6a.9.9 0 0 1-.7-.3.9.9 0 0 1 0-1 .9.9 0 0 1 .7-.4M10.1 20.6a.9.9 0 0 0 .8-.3.9.9 0 0 0 0-1 .9.9 0 0 0-.7-.4M8.4 19h1.8M8.5 20.6h1.7M0 15.9h2.6M0 13.2h5.3V16M8 15.9h5.2M10.6 15.9v2.6M15.9 13.2V16h2.6M2.6 10.6H8v2.6M10.6 13.2h2.6v-2.6H16V7.9M10.6 10.6V5.3h2.6M13.2 8h-2.6M15.9 0v5.3M0 2.6h5.3M8 0v5.3M2.6 5.3h2.7v2.6h2.6M8 2.6h5.2M2.6 8H0"/></g></svg>