<svg version="1.1" viewBox="-10 0 1044 1024" xmlns="http://www.w3.org/2000/svg">
 <path d="m640 363h-256q-19 0-31 11.5t-12 30.5v256q0 20 12 31.5t31 11.5h256q19 0 31-11.5t12-31.5v-256q0-19-12-30.5t-31-11.5zm-43 256h-170v-171h170v171zm384-43h-85v-128h85q20 0 31.5-11.5t11.5-31.5q0-19-11.5-30.5t-31.5-11.5h-85v-86q0-54-37-91t-91-37h-85v-85q0-19-12-31t-31-12-31 12-12 31v85h-170v-85q0-19-12-31t-31-12-31 12-12 31v85h-85q-54 0-91 37t-37 91v86h-85q-20 0-31.5 11.5t-11.5 30.5q0 20 11.5 31.5t31.5 11.5h85v128h-85q-20 0-31.5 11.5t-11.5 31.5q0 19 11.5 30.5t31.5 11.5h85v128q0 55 37 91.5t91 36.5h85v86q0 19 12 30.5t31 11.5 31-11.5 12-30.5v-86h170v86q0 19 12 30.5t31 11.5 31-11.5 12-30.5v-86h85q54 0 91-36.5t37-91.5v-128h85q20 0 31.5-11.5t11.5-30.5q0-20-11.5-31.5t-31.5-11.5zm-170 213q0 20-12 31.5t-31 11.5h-512q-19 0-31-11.5t-12-31.5v-512q0-19 12-30.5t31-11.5h512q19 0 31 11.5t12 30.5v512z"/>
</svg>
