<svg version="1.1" viewBox="-10 0 1034 1024" xmlns="http://www.w3.org/2000/svg">
 <path d="m909 218-342-171q-25-13-55.5-13t-59.5 13l-341 171q-32 16-50 45.5t-18 65.5v405q0 35 18.5 67t53.5 48l342 171q12 6 27 9.5t28 3.5q16 0 29.5-3.5t25.5-9.5l342-171q32-16 52-46.5t20-68.5v-405q0-36-18.5-65.5t-53.5-45.5zm-414-99q3-3 8.5-3.5t8.5-0.5q6 0 10 0.5t7 3.5l316 158-333 167-333-167 316-158zm-346 658q-9-7-15-18t-6-21v-392l341 170v418l-320-157zm721 0-315 157v-418l341-170v392q0 13-6.5 22.5t-19.5 16.5z"/>
</svg>
