<svg version="1.1" viewBox="-10 0 1034 1024" xmlns="http://www.w3.org/2000/svg">
 <path d="m892 149q-43-43-99-64-55-22-112-22t-112 22q-55 21-99 64l-286 290q-6 7-9 14t-3 16v346l-116 115q-12 13-12 30t12 30q7 6 14 9.5t16 3.5q10 0 17-3.5t13-9.5l115-115h346q10 0 16.5-3.5t13.5-9.5l286-290q45-43 67-98t22-112-22-112q-22-56-67-101zm-333 640h-243l85-85h243l-85 85zm273-277-102 107h-244l227-226q12-13 12-30t-12-30q-13-13-30-13t-30 13l-299 298-98 99v-244l277-277q32-32 72-48 39-16 80-16t80 16 71 48q31 32 46 72t14.5 81-16.5 80q-16 40-48 70z"/>
</svg>
