<svg version="1.1" viewBox="-10 0 1034 1024" xmlns="http://www.w3.org/2000/svg">
 <path d="m512 405q-54 0-91 37t-37 91q0 55 37 91.5t91 36.5 91-36.5 37-91.5q0-54-37-91t-91-37zm0 171q-19 0-31-11.5t-12-31.5q0-19 12-30.5t31-11.5 31 11.5 12 30.5q0 20-12 31.5t-31 11.5zm333-375q-13-13-30-13t-30 13q-13 12-13 29t13 30q56 56 84 127t28 144-28 144q-28 71-84 127-13 13-13 30t13 30q6 6 15 9.5t15 3.5 14.5-3.5 15.5-9.5q69-67 103-153t34-176-34-177-103-155zm-606 59q13-13 13-30t-13-29q-13-13-30-13t-30 13q-69 68-103 155t-34 178 34 178q34 86 103 155 7 7 15.5 10t14.5 3 15-3 15-10q13-13 13-30t-13-30q-56-56-84-127t-28-146 28-146q28-72 84-128zm60 273q0-41 16-80.5t48-68.5q12-13 10.5-30t-10.5-30q-13-13-30-13t-30 13q-43 43-65 99-21 55-21 112t21 112q22 55 65 99 6 6 14.5 9t15.5 3q6 0 14.5-3t15.5-9q12-13 12-30t-12-30q-32-32-48-72t-16-82zm422-209q-13-13-30-13t-30 13q-12 13-12 30t12 30q32 30 48 69 16 40 16.5 80.5t-14.5 79.5-45 70q-4 3-7 6l-6 6q-7 16-1.5 33t18.5 23q3 3 8.5 3.5t8.5 0.5q10 0 16.5-3t13.5-10q46-43 69-97 24-55 24.5-112t-22.5-112q-22-55-67-98z"/>
</svg>
