<svg version="1.1" viewBox="-10 0 1034 1024" xmlns="http://www.w3.org/2000/svg">
 <path d="m981 405q-3-12-12-19t-22-11l-273-38-124-247q-9-23-38-23t-38 23l-124 243-269 42q-13 0-22.5 9t-15.5 21q-4 13-0.5 25t12.5 18l197 192-47 273q-3 13 2 24.5t15 18.5q9 6 21.5 8t25.5-4l243-128 243 128h22q6 0 12.5-2.5t12.5-6.5q10-6 15-17.5t2-24.5l-47-273 197-192q9-7 12.5-18t-0.5-21zm-286 188q-6 10-9 19.5t-3 18.5l34 210-188-99q-10-6-19.5-6t-18.5 6l-188 99 38-210q0-9-3-18.5t-9-19.5l-154-145 209-30q10 0 19-7.5t15-13.5l94-192 94 188q3 9 12 15t22 6l209 30-154 149z"/>
</svg>
