<svg version="1.1" viewBox="-10 0 1044 1024" xmlns="http://www.w3.org/2000/svg">
 <path d="m512 277q-53 0-99 21-47 20-82 54.5t-55 81.5-20 99q0 53 20 100 20 46 55 81t82 55q46 20 99 20t99-20q47-20 82-55t55-81q20-47 20-100 0-52-20-99t-55-81.5-82-54.5q-46-21-99-21zm0 427q-70 0-120-50t-50.5-121q0-70 50.5-120t120-50 120 50 50.5 120q0 71-50.5 121t-120 50zm0-512q19 0 31-11.5t12-31.5v-85q0-19-12-31t-31-12-31 12-12 31v85q0 20 12 31.5t31 11.5zm0 683q-19 0-31 11.5t-12 30.5v86q0 19 12 30.5t31 11.5 31-11.5 12-30.5v-86q0-19-12-30.5t-31-11.5zm-303-585q6 7 15 10t15 3 14.5-3 15.5-10q13-13 13-30t-13-30l-60-59q-13-13-30-13t-30 13q-12 12-12 29.5t12 29.5l60 60zm606 487q-13-13-30-13t-30 13q-13 12-13 29t13 30l60 60q6 6 14.5 9.5t15.5 3.5q6 0 14.5-3.5t15.5-9.5q12-13 12-30t-12-30l-60-59zm-644-244q0-19-12-30.5t-31-11.5h-85q-20 0-31.5 11.5t-11.5 30.5q0 20 11.5 31.5t31.5 11.5h85q19 0 31-11.5t12-31.5zm810-42h-85q-19 0-31 11.5t-12 30.5q0 20 12 31.5t31 11.5h85q20 0 31.5-11.5t11.5-31.5q0-19-11.5-30.5t-31.5-11.5zm-772 286-60 59q-12 13-12 30t12 30q7 6 15.5 9.5t14.5 3.5q7 0 15.5-3.5t14.5-9.5l60-60q13-13 13-30t-13-29q-13-13-30-13t-30 13zm576-474q10 0 17-3t13-10l60-60q12-12 12-29.5t-12-29.5q-13-13-30-13t-30 13l-60 59q-13 13-13 30t13 30q3 7 11.5 10t18.5 3z"/>
</svg>
