<svg version="1.1" viewBox="-10 0 1034 1024" xmlns="http://www.w3.org/2000/svg">
 <path d="m597 661h-512q-19 0-30.5 12t-11.5 31 11.5 31 30.5 12h512q10 0 17 3t13 9q7 7 10 14t3 16q0 10-3 17t-10 13q-6 7-13 10t-17 3q-9 0-16-3t-14-10q-12-13-29-13t-30 13-13 30 13 30q19 19 41.5 28.5t47.5 9.5q26 0 48.5-9.5t41.5-28.5 28.5-41.5 9.5-48.5q0-25-9.5-49t-28.5-40q-16-19-40-29t-50-10zm-512-256h384q26 0 50-9.5t40-28.5q38-38 38-91t-38-88q-16-19-40-29t-50-10q-25 0-49 10t-40 29q-13 13-13 30t13 29q13 13 30 13t29-13q7-6 14-9t16-3q10 0 17 3t13 9q13 13 13 30t-13 30q-6 7-13 10t-17 3h-384q-19 0-30.5 11.5t-11.5 31.5q0 19 11.5 30.5t30.5 11.5zm854-85q-45-45-106-45t-102 45q-13 13-13 30t13 30q12 13 29.5 13t29.5-13q20-19 45.5-19t44.5 19 19 44.5-19 44.5q-10 10-22 13.5t-25 3.5h-747q-19 0-30.5 12t-11.5 31 11.5 31 30.5 12h747q29 0 56.5-12t50.5-31q41-42 41-103t-41-106z"/>
</svg>
