<svg xmlns="http://www.w3.org/2000/svg" viewBox="0 0 58.7 60.2"><path fill="none" stroke="#0e0" stroke-linecap="round" stroke-width=".8" d="M41.7 5.6h11.4c.7 0 1.4.6 1.4 1.4v47.4c0 .8-.7 1.4-1.4 1.4H5.7c-.8 0-1.4-.6-1.4-1.4V7c0-.8.6-1.4 1.4-1.4h23.7"/><path fill="#0e0" d="m43.6 3.8-3.7 1.8 3.7 1.9z"/><path fill="#e00" d="M13.2 0 17 1.9l-3.8 1.8z"/><path fill="none" stroke="#e00" stroke-linecap="round" stroke-width=".8" d="M15.1 1.9H2C1 1.9.4 2.6.4 3.4v54.8c0 1 .7 1.6 1.6 1.6h54.8c.8 0 1.6-.7 1.6-1.6V3.4c0-.8-.8-1.5-1.6-1.5H29.4"/></svg>