<svg xmlns="http://www.w3.org/2000/svg" xml:space="preserve" viewBox="-.5 0 88.53 32.24"><g fill="none" stroke="#000" stroke-width="1.77"><path d="M78.77 7.24a12.56 12.56 0 0 1 3.68 8.88A12.56 12.56 0 0 1 78.77 25m-2.96-14.8a8.37 8.37 0 0 1 2.46 5.92 8.37 8.37 0 0 1-2.46 5.92"/><path d="M81.73 4.28a16.75 16.75 0 0 1 4.9 11.84 16.75 16.75 0 0 1-4.9 11.84"/></g><path d="m71.56 2.04-6.59 8.45h-5.33a1.47 1.97 0 0 0-1.47 1.97v7.32a1.47 1.97 0 0 0 1.47 1.97h5.33l6.6 8.45a.63.84 0 0 0 1.05-.6V2.63a.63.84 0 0 0-1.06-.6z"/><path d="m56.62 20.17-.91.9-3.56-3.59-3.56 3.6-.9-.91 3.59-3.56-3.6-3.56.91-.9 3.56 3.58 3.56-3.59.9.9-3.59 3.57z" aria-label="×"/><g transform="matrix(0 .86 -.96 0 79.9 -105.97)"><rect width="23.06" height="46.11" x="137.17" y="37.5" rx="2.29" ry="2.29"/><rect width="9.32" height="3.16" x="144.03" y="35.39" rx="2.29" ry="2.29"/></g><g transform="matrix(0 .43 -.96 0 80.04 -59.16)"><rect width="23.06" height="46.11" x="137.17" y="37.5" rx="3.79" ry="2.29"/><rect width="9.32" height="3.16" x="144.03" y="35.39" rx="2.29" ry="2.29"/></g><path fill="#ddd" stroke="#000" stroke-width=".57" d="M11.67 6.81h1.22q-.63 1.4-.91 2.6-.24 1-.24 2.15 0 2.2 1.15 4.53h-1.22q-.94-1.32-1.32-2.4-.38-1.07-.38-2.25 0-1.22.4-2.32.4-1.1 1.3-2.3zm2.83 4.97.25-1.22h-1.19V9.23h1.45l.34-1.73h1.38l-.35 1.73h1.05l.35-1.73h1.37l-.33 1.73h.66v1.33h-.93l-.25 1.22h1.18v1.34h-1.45l-.34 1.7h-1.38l.34-1.7H15.6l-.35 1.7H13.9l.35-1.7h-.68v-1.34zm1.37 0h1.05l.25-1.22h-1.05zm4.54-1.4h1.85V8.52h1.56v1.86h1.86v1.57h-1.86v1.85h-1.56v-1.85h-1.85zM31.2 7.5v7.2h-2V9.98q-.48.37-.94.6-.44.22-1.13.43V9.4q1-.33 1.56-.78t.87-1.12zm3.35-.69h-1.23q.63 1.4.91 2.6.24 1 .24 2.15 0 2.2-1.15 4.53h1.23q.93-1.32 1.31-2.4.38-1.07.38-2.25 0-1.22-.4-2.32-.4-1.1-1.3-2.3z" aria-label="(#+1)"/></svg>