<svg xmlns="http://www.w3.org/2000/svg" xml:space="preserve" viewBox="0 0 87.53 32.24"><g fill="none" stroke="#000" stroke-linejoin="round" stroke-miterlimit="2.3" stroke-width="1.77"><path d="M78.77 7.24a12.56 12.56 0 0 1 3.68 8.88A12.56 12.56 0 0 1 78.77 25m-2.96-14.8a8.37 8.37 0 0 1 2.46 5.92 8.37 8.37 0 0 1-2.46 5.92"/><path d="M81.73 4.28a16.75 16.75 0 0 1 4.9 11.84 16.75 16.75 0 0 1-4.9 11.84"/></g><path d="m71.56 2.04-6.59 8.45h-5.33a1.47 1.97 0 0 0-1.47 1.97v7.32a1.47 1.97 0 0 0 1.47 1.97h5.33l6.6 8.45a.63.84 0 0 0 1.05-.6V2.63a.63.84 0 0 0-1.06-.6z"/><text xml:space="preserve" x="178.95" y="65.31" stroke-linejoin="round" stroke-miterlimit="2.3" stroke-width="3.14" font-family="Special Elite" font-size="16.72" style="-inkscape-font-specification:&quot;Special Elite&quot;;text-align:center" text-anchor="middle" transform="translate(-126.8 -43.38)"><tspan x="178.95" y="65.31">×</tspan></text><g transform="matrix(0 .8626 -.9556 0 79.9 -105.97)"><rect width="23.06" height="46.11" x="137.17" y="37.5" rx="2.29" ry="2.29"/><rect width="9.32" height="3.16" x="144.03" y="35.39" rx="2.29" ry="2.29"/></g><g transform="matrix(0 .4313 -.9556 0 80.04 -59.16)"><rect width="23.06" height="46.11" x="137.17" y="37.5" rx="2.29" ry="2.29"/><rect width="9.32" height="3.16" x="144.03" y="35.39" rx="2.29" ry="2.29"/></g><path fill="#ddd" stroke="#000" stroke-linejoin="round" stroke-miterlimit="2.3" stroke-width="1.32" d="M12.73 6.93q0 .12-.03.2-.03.09-.09.16l-.1.13q-.06.06-.11.14-.07.1-.12.22l-.1.24-.08.24q-.04.12-.12.22-.12.14-.18.3-.07.17-.1.35-.03.17-.04.36v.35l-.02.2q0 .14-.03.3l-.05.32q-.02.14-.06.23l-.06.15-.02.14.01.19.02.18q0 .14-.05.26t-.05.26q0 .07.03.12l.06.1.06.12q.03.06.03.15l-.01.17-.02.16q0 .16.04.26.04.08.1.15l.1.13q.05.06.07.18l.02.2.02.2q0 .07.03.15l.06.15.05.15.02.16q0 .05.03.1l.07.09.07.07.07.07q.05.07.06.14.02.07.02.15l.03.14q.02.08.08.15l.05.03.03.05.04.08q0 .04-.05.07l-.1.07-.1.04-.1.02-.07-.06-.12-.13-.13-.13-.08-.09-.04-.16-.07-.13q-.04-.07-.05-.14l-.02-.16q-.03-.12-.1-.22-.08-.1-.14-.22-.09-.17-.15-.37l-.1-.4q-.04-.13-.08-.2l-.06-.12-.05-.15q-.02-.1-.02-.26l-.02-.13-.02-.14.01-.08.02-.1q0-.08-.03-.15-.03-.07-.04-.15l-.04-.28-.02-.28q-.01-.15-.04-.28-.02-.14-.08-.27 0-.08.03-.14.03-.07.03-.15 0-.16-.06-.32-.05-.16-.05-.32 0-.06.05-.15l.1-.2.1-.2q.05-.1.05-.19l-.02-.1-.01-.1q0-.06.02-.1l.06-.11.07-.1.02-.12-.02-.14-.02-.13q.09-.04.15-.1.06-.08.06-.17l-.01-.1-.02-.1.02-.16.05-.18.07-.18.06-.14q.05-.09.06-.17.01-.1.05-.18.05-.11.14-.2.1-.1.2-.16.11-.07.23-.1.13-.04.25-.04.19 0 .3.1.1.1.1.3zm6.33 3.34q0 .05-.03.12-.02.06-.07.12-.05.05-.12.08-.08.04-.19.03-.12-.02-.25-.02h-.25q-.24 0-.35.04-.1.05-.13.14-.04.08-.06.21 0 .13-.08.3l-.07.15q-.05.08-.05.16l.01.03q.05.05.12.06l.14.01.26-.01q.12-.03.25-.03.07 0 .17.03.1.01.18.05.09.04.14.1.06.07.06.15 0 .08-.04.14-.04.06-.1.1l-.14.08-.14.02q-.1 0-.2-.04-.1-.05-.21-.05l-.3.02q-.16.03-.31.03-.15.07-.2.2l-.07.27-.03.28q-.02.15-.09.25l-.05.1v.1q0 .06-.03.13l-.05.12-.04.1q-.02.06-.02.13 0 .04-.04.14l-.08.2-.08.2q-.03.08 0 .08 0 .07-.03.17-.03.08-.09.16-.05.08-.15.13-.09.06-.22.06-.1 0-.16-.04t-.09-.1q-.03-.07-.04-.15l-.01-.16q0-.14.02-.17l.06-.07.08-.07q.03-.04.06-.17l.02-.15.06-.13.07-.14q.03-.07.03-.14 0-.15.05-.26.05-.11.05-.25 0-.09.02-.17l.06-.17.07-.17.06-.18q-.06-.05-.15-.07l-.18-.01h-.19l-.16.01h-.17q-.1-.02-.17-.06l-.07.06-.06.05-.04.05q-.03.03-.04.1l-.04.14q0 .07-.03.16l-.05.22-.1.27q-.04.07-.05.15l-.02.15-.02.16q0 .07-.03.15l-.08.16-.07.13-.07.14q-.02.06-.02.13 0 .12-.05.22-.03.1-.1.2-.08.07-.18.12-.1.05-.21.05l-.14-.02-.13-.05-.05-.25q-.03-.13-.03-.26 0-.11.08-.28l.17-.34q.1-.17.17-.33.08-.16.08-.26 0-.05.04-.15l.1-.22q.07-.11.11-.23.05-.12.05-.22t-.11-.13q-.11-.02-.23-.02h-.34q-.1-.01-.17-.04-.08-.04-.14-.1-.05-.06-.05-.16 0-.14.09-.22.08-.07.2-.1.12-.05.25-.05h.24q.1 0 .19.02l.2.01q.1 0 .15-.07.05-.08.08-.18.04-.11.06-.23.03-.12.08-.2l.06-.14q.04-.07.04-.15 0-.06-.05-.07l-.1-.02h-.46l-.2-.01q-.1-.02-.18-.06-.08-.04-.13-.11-.04-.07-.04-.19 0-.08.05-.15.05-.07.12-.12l.16-.07.17-.02h.12l.2.03.22.03.19.01q.06 0 .1-.05.04-.05.06-.12l.05-.14q.01-.08.04-.13 0-.1.03-.17l.05-.16.07-.18.04-.23v-.16l.02-.17q0-.1.03-.18.02-.08.06-.14-.02-.07-.02-.17 0-.14.04-.3.05-.16.14-.3.09-.14.2-.24.14-.1.3-.1.19 0 .29.13.1.12.1.3l.01.14v.11q0 .06-.04.14l-.13.21-.2.77q-.03.02-.1.16l-.1.3-.11.32-.06.19q.03.1.1.18.06.08.2.08.07 0 .15-.04.07-.04.2-.04h.18l.2.01q.11 0 .16-.05.05-.06.08-.13l.04-.17q.01-.1.05-.17l.07-.14.05-.06.02-.06.01-.15q0-.08.03-.16l.06-.16q.04-.08.06-.17.03-.08.03-.17 0-.03-.04-.08-.03-.04-.03-.09 0-.1.03-.2t.03-.23q0-.1.05-.2.06-.12.14-.22.1-.1.2-.16t.22-.06q.12 0 .19.09.08.08.14.17v.25q.01.1-.02.23-.04.12-.13.2 0 .1-.03.21-.04.1-.04.2t-.02.16l-.05.11-.09.15q-.05.09-.1.25l-.07.12-.08.24-.08.23-.04.13q0 .03.05.05l.1.03.1.02h.08l.19-.01.18-.02.14.02.12.07q.06.03.1.09.04.05.04.1zm-2.02.4q-.03-.04-.06-.05l-.05-.01h-.13l-.12.02q-.08 0-.16-.03-.07-.03-.15-.03-.1 0-.22.04-.1.04-.22.04-.09.11-.14.24-.06.13-.06.28l-.02.1-.05.1-.04.1q-.03.06-.03.12 0 .1.05.1.05.02.11.02l.3.02.3.02.17-.01.17-.05.08-.2.1-.13q.04-.07.06-.15.03-.1.03-.26 0-.07.04-.13.04-.07.04-.15zm7.62.39q0 .2-.12.28-.12.09-.3.09-.08 0-.16-.04t-.17-.04l-.2.02-.18.03-.16.04-.12.01h-.13q-.06-.02-.13-.02-.08 0-.13.06t-.08.15q-.04.08-.05.17l-.02.15q0 .07.02.13l.04.1.03.14q.03.07.03.17v.26l.01.21q.02.1.02.21 0 .1-.04.18-.05.08-.14.13-.07.05-.17.08t-.17.03l-.15-.02-.15-.06q-.07-.04-.12-.1-.04-.05-.04-.12v-.07q.02-.03.02-.07 0-.06-.03-.12l-.02-.12q0-.1.03-.21.03-.1.04-.22l.02-.35v-.36l-.02-.14q-.02-.08-.06-.15-.04-.08-.1-.13-.05-.05-.12-.05l-.14.02-.13.06-.13.05q-.07.03-.13.03-.04 0-.07-.03l-.08-.02q-.11 0-.22.04t-.23.04l-.22-.02q-.13-.03-.25-.08t-.2-.13q-.09-.08-.09-.19 0-.1.07-.18.06-.09.16-.15.1-.07.2-.1.12-.03.2-.03.18 0 .34.05.17.06.34.06.14 0 .26-.04.13-.04.26-.04.06 0 .11.02l.1.02q.04 0 .1-.03l.08-.1.07-.1q.03-.06.03-.1 0-.05-.04-.1-.03-.06-.03-.12l.02-.1q.02-.04.02-.09 0-.04-.02-.07-.02-.04-.05-.06l-.05-.06q-.02-.03-.02-.07 0-.05.03-.09.04-.04.04-.1 0-.06-.04-.12-.03-.06-.03-.15l.01-.15q.02-.08.06-.14.04-.08.1-.12.06-.04.14-.04.15 0 .24.05.1.04.15.13.06.08.07.2.02.1.02.23l-.02.1-.02.1q0 .05.03.09.03.04.03.1 0 .09-.04.16-.04.08-.04.17 0 .17.05.32l.13.3.03.01.13-.02q.07-.03.13-.03.11 0 .22.03.11.02.23.02.13 0 .24-.03.1-.04.23-.04l.12.02q.1 0 .2.03.1.02.17.06.09.02.1.05.04.05.05.12v.1zm6.36 3.6q0 .07-.02.12l-.05.11-.1.17q-.05.06-.1.09l-.1.04h-.33l-.08.02q-.05 0-.07-.04v-.18q0-.05-.02-.08 0-.03-.06-.03-.08 0-.13.05l-.09.1-.09.1q-.05.05-.14.05-.11 0-.22-.04-.1-.03-.22-.04-.22-.02-.45-.02l-.45-.02q-.22 0-.45-.03-.22-.02-.44-.07l-.1-.02h-.09q-.23 0-.45.05-.21.04-.48.04-.18 0-.37.04-.18.04-.36.04-.09 0-.2-.03-.12-.04-.23-.1-.1-.06-.18-.15-.07-.09-.07-.19 0-.07.06-.15l.17-.15.19-.14.15-.1q.34.04.67.1.34.05.68.05.21 0 .33-.05.13-.06.19-.14.07-.1.08-.22.02-.13.02-.27v-.34q0-.86.04-1.7.05-.86.05-1.72 0-.43-.02-.85t-.08-.83l-.15-.04-.16-.01h-.02l-.06-.02h-.05q-.13 0-.25.03-.11.04-.23.04-.04 0-.06-.02l-.04-.02-.04-.03-.06-.01q-.18 0-.37.04-.18.04-.36.04-.14 0-.27-.04t-.23-.12q.04-.09.04-.2 0-.1-.02-.17l-.02-.18.08.02q.08 0 .16-.04l.15-.1.14-.09q.08-.04.16-.04.17 0 .33.05t.33.05q.1 0 .16-.04.07-.04.12-.04.05 0 .08.04.03.03.1.03.08 0 .17-.03l.18-.07.18-.07q.1-.03.2-.03.13 0 .26.03.14.03.28.03l.13-.01v.08q0 .08.02.14l.06.13q.03.06.05.16.03.1.03.24v.49q.02.23.02.48 0 .13-.02.25-.02.11-.07.22.05.05.06.11l.01.12v.09l.01.13q.02.06.08.1v.07q0 .07-.03.12l-.05.1-.05.1-.02.12q0 .12.03.26.04.12.04.27l-.02.35-.05.35-.05.34q-.02.17-.02.35 0 .05-.02.07-.01.03-.04.03l-.04-.01.02.29.05.28.05.28.02.3v.15q0 .3.19.43.19.14.47.14.19 0 .28-.03.1-.04.15-.09l.07-.07q.03-.04.09-.04.16 0 .32.04l.33.04q.08.02.17.02l.16.01q.07.01.14.05.07.03.12.11l.12.18q.07.1.07.2zm2.56-3.76q0 .14-.05.27-.06.12-.06.27 0 .08.03.14.03.06.03.13l-.04.26-.09.42-.1.42q-.04.18-.07.23-.05.1-.12.18-.07.08-.07.19 0 .06.02.11l.01.11q0 .05-.03.1l-.07.1-.07.13q-.03.06-.03.13l.01.08.02.08q-.09.07-.12.14-.04.06-.06.13l-.03.14-.02.13q-.03.1-.11.26-.09.16-.2.31-.12.16-.25.27-.13.11-.24.11-.08 0-.16-.03-.07-.03-.13-.08t-.1-.12q-.03-.07-.03-.15 0-.16.09-.28.08-.12.2-.24l.23-.25q.1-.14.14-.31l.04-.17.05-.1.06-.1.08-.12q.15-.3.22-.66.07-.36.07-.7 0-.14.04-.27l.06-.26.07-.26q.04-.13.04-.27l-.02-.39q-.02-.2-.08-.37l-.05-.08-.01-.08q0-.09.03-.16.04-.09.04-.17 0-.08-.04-.14l-.06-.14q-.05-.15-.06-.3l-.03-.31q-.02-.16-.07-.3-.06-.13-.2-.24l-.02-.04v-.09q0-.08-.04-.15-.04-.08-.04-.16 0-.13-.07-.22l-.14-.18q-.07-.08-.1-.17-.02-.1-.07-.18-.05-.1-.13-.17l-.12-.16q-.06-.08-.1-.19-.03-.1-.03-.25 0-.1.04-.15.05-.07.12-.1.07-.04.16-.06l.16-.01q.18 0 .3.07.1.07.2.19.09.12.15.25l.15.26.12.18.13.18.1.2q.05.1.05.23 0 .1.02.18l.08.18q.18.44.24.9.05.46.05.92v.24q0 .14.04.27t.04.24z" aria-label="(#+1)" paint-order="stroke"/></svg>