<svg xmlns="http://www.w3.org/2000/svg" xml:space="preserve" viewBox="0 0 383.27 42.59"><g transform="translate(0 -100.4)"><circle cx="21.29" cy="121.7" r="21.29" fill="#888"/><circle cx="63.88" cy="121.7" r="21.29" fill="#888"/><circle cx="106.46" cy="121.7" r="21.29" fill="#888"/><circle cx="149.05" cy="121.7" r="21.29" fill="#888"/><circle cx="191.64" cy="121.7" r="21.29" fill="#888"/><circle cx="234.22" cy="121.7" r="21.29" fill="#888"/><circle cx="276.81" cy="121.7" r="21.29" fill="#888"/><circle cx="319.39" cy="121.7" r="21.29" fill="#888"/><circle cx="361.98" cy="121.7" r="21.29" fill="#888"/><path d="M20.74 124.23h318.73c.3 0 .65.09.9.21.35.19 0 .72-.3.98l-2.07 1.84c-.6.54-.26.88.7.69 4.9-1 18.4-4.22 23.24-5.37.97-.23 1-.65.04-.88a2048 2048 0 0 0-23.3-5.23c-.97-.21-1.41.08-.83.59a105 105 0 0 0 2.19 1.85c.3.25.57.76.2.98-.2.12-.47.2-.77.2H20.74c-.65 0-1.19.34-1.19.76v2.62c0 .42.54.76 1.2.76z"/></g></svg>