<svg xmlns="http://www.w3.org/2000/svg" xml:space="preserve" viewBox="0 0 440.7 42.6"><g transform="translate(57.5 -100.4)"><circle cx="21.3" cy="121.7" r="21.3" fill="#888"/><circle cx="63.9" cy="121.7" r="21.3" fill="#888"/><circle cx="106.5" cy="121.7" r="21.3" fill="#888"/><circle cx="149.1" cy="121.7" r="21.3" fill="#888"/><circle cx="191.6" cy="121.7" r="21.3" fill="#888"/><circle cx="234.2" cy="121.7" r="21.3" fill="#888"/><circle cx="276.8" cy="121.7" r="21.3" fill="#888"/><circle cx="319.4" cy="121.7" r="21.3" fill="#888"/><circle cx="362" cy="121.7" r="21.3" fill="#888"/><path fill="#888" d="M-56.3 123.7h22l.8.2c.4.2 0 .8-.3 1l-2 1.9c-.7.5-.3.8.6.6 5-1 18.4-4.2 23.3-5.3 1-.3 1-.7 0-.9a2048 2048 0 0 0-23.3-5.2c-1-.2-1.4 0-.8.6l2.2 1.8c.3.3.5.8.2 1l-.8.2h-21.9c-.6 0-1.2.3-1.2.7v2.7c0 .4.6.7 1.2.7z"/><g transform="matrix(.265 0 0 .265 -22 99)"><circle cx="139.2" cy="110.7" r="22.5" fill="#a90000" stroke="#dc3232" stroke-linecap="round" stroke-linejoin="round" stroke-miterlimit="2.3" stroke-width="4.2"/><rect width="31.7" height="7.2" x="123.3" y="107" fill="#dc3232" ry="0"/></g><g transform="matrix(.265 0 0 .265 -13.2 99.2)"><circle cx="154.8" cy="60.4" r="22.5" fill="#13a900" stroke="#46dc32" stroke-linecap="round" stroke-linejoin="round" stroke-miterlimit="2.3" stroke-width="4.2"/><path fill="#46dc32" d="M151.2 44.5v12.3h-12.3V64h12.2v12.2h7.3V64h12.2v-7.2h-12.2V44.5Z"/></g><g transform="matrix(.265 0 0 .265 20.6 99)"><circle cx="139.2" cy="110.7" r="22.5" fill="#a90000" stroke="#dc3232" stroke-linecap="round" stroke-linejoin="round" stroke-miterlimit="2.3" stroke-width="4.2"/><rect width="31.7" height="7.2" x="123.3" y="107" fill="#dc3232" ry="0"/></g><g transform="matrix(.265 0 0 .265 29.4 99.2)"><circle cx="154.8" cy="60.4" r="22.5" fill="#13a900" stroke="#46dc32" stroke-linecap="round" stroke-linejoin="round" stroke-miterlimit="2.3" stroke-width="4.2"/><path fill="#46dc32" d="M151.2 44.5v12.3h-12.3V64h12.2v12.2h7.3V64h12.2v-7.2h-12.2V44.5Z"/></g><g transform="matrix(.265 0 0 .265 63.1 99)"><circle cx="139.2" cy="110.7" r="22.5" fill="#a90000" stroke="#dc3232" stroke-linecap="round" stroke-linejoin="round" stroke-miterlimit="2.3" stroke-width="4.2"/><rect width="31.7" height="7.2" x="123.3" y="107" fill="#dc3232" ry="0"/></g><g transform="matrix(.265 0 0 .265 72 99.2)"><circle cx="154.8" cy="60.4" r="22.5" fill="#13a900" stroke="#46dc32" stroke-linecap="round" stroke-linejoin="round" stroke-miterlimit="2.3" stroke-width="4.2"/><path fill="#46dc32" d="M151.2 44.5v12.3h-12.3V64h12.2v12.2h7.3V64h12.2v-7.2h-12.2V44.5Z"/></g><g transform="matrix(.265 0 0 .265 105.7 99)"><circle cx="139.2" cy="110.7" r="22.5" fill="#a90000" stroke="#dc3232" stroke-linecap="round" stroke-linejoin="round" stroke-miterlimit="2.3" stroke-width="4.2"/><rect width="31.7" height="7.2" x="123.3" y="107" fill="#dc3232" ry="0"/></g><g transform="matrix(.265 0 0 .265 114.6 99.2)"><circle cx="154.8" cy="60.4" r="22.5" fill="#13a900" stroke="#46dc32" stroke-linecap="round" stroke-linejoin="round" stroke-miterlimit="2.3" stroke-width="4.2"/><path fill="#46dc32" d="M151.2 44.5v12.3h-12.3V64h12.2v12.2h7.3V64h12.2v-7.2h-12.2V44.5Z"/></g><g transform="matrix(.265 0 0 .265 148.3 99)"><circle cx="139.2" cy="110.7" r="22.5" fill="#a90000" stroke="#dc3232" stroke-linecap="round" stroke-linejoin="round" stroke-miterlimit="2.3" stroke-width="4.2"/><rect width="31.7" height="7.2" x="123.3" y="107" fill="#dc3232" ry="0"/></g><g transform="matrix(.265 0 0 .265 157.2 99.2)"><circle cx="154.8" cy="60.4" r="22.5" fill="#13a900" stroke="#46dc32" stroke-linecap="round" stroke-linejoin="round" stroke-miterlimit="2.3" stroke-width="4.2"/><path fill="#46dc32" d="M151.2 44.5v12.3h-12.3V64h12.2v12.2h7.3V64h12.2v-7.2h-12.2V44.5Z"/></g><g transform="matrix(.265 0 0 .265 190.9 99)"><circle cx="139.2" cy="110.7" r="22.5" fill="#a90000" stroke="#dc3232" stroke-linecap="round" stroke-linejoin="round" stroke-miterlimit="2.3" stroke-width="4.2"/><rect width="31.7" height="7.2" x="123.3" y="107" fill="#dc3232" ry="0"/></g><g transform="matrix(.265 0 0 .265 199.8 99.2)"><circle cx="154.8" cy="60.4" r="22.5" fill="#13a900" stroke="#46dc32" stroke-linecap="round" stroke-linejoin="round" stroke-miterlimit="2.3" stroke-width="4.2"/><path fill="#46dc32" d="M151.2 44.5v12.3h-12.3V64h12.2v12.2h7.3V64h12.2v-7.2h-12.2V44.5Z"/></g><g transform="matrix(.265 0 0 .265 233.5 99)"><circle cx="139.2" cy="110.7" r="22.5" fill="#a90000" stroke="#dc3232" stroke-linecap="round" stroke-linejoin="round" stroke-miterlimit="2.3" stroke-width="4.2"/><rect width="31.7" height="7.2" x="123.3" y="107" fill="#dc3232" ry="0"/></g><g transform="matrix(.265 0 0 .265 242.4 99.2)"><circle cx="154.8" cy="60.4" r="22.5" fill="#13a900" stroke="#46dc32" stroke-linecap="round" stroke-linejoin="round" stroke-miterlimit="2.3" stroke-width="4.2"/><path fill="#46dc32" d="M151.2 44.5v12.3h-12.3V64h12.2v12.2h7.3V64h12.2v-7.2h-12.2V44.5Z"/></g><g transform="matrix(.265 0 0 .265 276 99)"><circle cx="139.2" cy="110.7" r="22.5" fill="#a90000" stroke="#dc3232" stroke-linecap="round" stroke-linejoin="round" stroke-miterlimit="2.3" stroke-width="4.2"/><rect width="31.7" height="7.2" x="123.3" y="107" fill="#dc3232" ry="0"/></g><g transform="matrix(.265 0 0 .265 285 99.2)"><circle cx="154.8" cy="60.4" r="22.5" fill="#13a900" stroke="#46dc32" stroke-linecap="round" stroke-linejoin="round" stroke-miterlimit="2.3" stroke-width="4.2"/><path fill="#46dc32" d="M151.2 44.5v12.3h-12.3V64h12.2v12.2h7.3V64h12.2v-7.2h-12.2V44.5Z"/></g><g transform="matrix(.265 0 0 .265 318.7 99)"><circle cx="139.2" cy="110.7" r="22.5" fill="#a90000" stroke="#dc3232" stroke-linecap="round" stroke-linejoin="round" stroke-miterlimit="2.3" stroke-width="4.2"/><rect width="31.7" height="7.2" x="123.3" y="107" fill="#dc3232" ry="0"/></g><g transform="matrix(.265 0 0 .265 327.5 99.2)"><circle cx="154.8" cy="60.4" r="22.5" fill="#13a900" stroke="#46dc32" stroke-linecap="round" stroke-linejoin="round" stroke-miterlimit="2.3" stroke-width="4.2"/><path fill="#46dc32" d="M151.2 44.5v12.3h-12.3V64h12.2v12.2h7.3V64h12.2v-7.2h-12.2V44.5Z"/></g></g></svg>