<svg xmlns="http://www.w3.org/2000/svg" viewBox="0 0 87.19 28.63"><g transform="translate(-131.46 22.55)"><g fill="none" stroke="#000" stroke-width="1.86"><path d="M209.9-17.12a12.56 12.56 0 0 1 3.68 8.88A12.56 12.56 0 0 1 209.9.64m-2.96-14.8a8.37 8.37 0 0 1 2.46 5.92 8.37 8.37 0 0 1-2.46 5.92"/><path d="M212.86-20.08a16.75 16.75 0 0 1 4.9 11.84 16.75 16.75 0 0 1-4.9 11.84"/></g><path d="m202.7-22.32-6.6 8.45h-5.33a1.47 1.97 0 0 0-1.47 1.97v7.32a1.47 1.97 0 0 0 1.47 1.97h5.33l6.6 8.45a.63.84 0 0 0 1.05-.6v-26.95a.63.84 0 0 0-1.06-.61z"/><path d="m187.85-4.2-.91.91-3.56-3.59-3.56 3.6-.9-.91 3.59-3.56-3.6-3.56.91-.9 3.56 3.58 3.56-3.59.9.9-3.59 3.57z" aria-label="×"/><rect width="46.11" height="19.7" x="131.46" y="-18.09" rx="1.69" ry="1.69"/><path fill="none" stroke="#ddd" stroke-width=".76" d="M149.97-13.91h23.28v11.34h-23.28z"/><g stroke="#ddd" stroke-linejoin="round" stroke-width="2.38"><path fill="#ddd" d="M143.68-5.28a4.2 4.2 0 0 1-5.93 0 4.2 4.2 0 0 1 0-5.92l2.97 2.96z"/><path stroke-linecap="round" d="M137.75-11.2a4.2 4.2 0 0 1 4.05-1.09 4.2 4.2 0 0 1 2.96 2.97 4.2 4.2 0 0 1-1.08 4.04l-2.96-2.96z" paint-order="stroke fill markers"/></g><path fill="#ddd" stroke-width="1.22" d="M154.23-4.18h-.8q-.64-.96-.97-2-.34-1.03-.34-2 0-1.2.42-2.28.35-.93.9-1.72h.8q-.57 1.26-.79 2.15-.2.88-.2 1.87 0 .68.12 1.4.13.71.35 1.36.14.42.5 1.22zm1.11-2.48h-.56v-.91h.75l.25-1.23h-1v-.92h1.18l.33-1.62h.93l-.32 1.62h.91l.33-1.62h.96l-.33 1.62h.57v.92h-.76l-.25 1.23h1.01v.91h-1.2l-.33 1.62h-.92l.32-1.62h-.93l-.32 1.62H155zm1.37-2.14-.24 1.23h.92l.24-1.23zm5.16 2.78V-7.6h-1.6v-1.1h1.6v-1.58h1.07v1.58h1.6v1.1h-1.6v1.58zm6.38.88h-1.17v-4.4q-.64.6-1.5.88v-1.06q.45-.15.99-.57.53-.42.73-.97h.95zm1.02.96q.35-.74.49-1.14.14-.4.26-.9.12-.52.18-.99.06-.46.06-.95 0-.99-.21-1.87-.22-.89-.79-2.15h.8q.63.9.97 1.9.35 1 .35 2.03 0 .87-.27 1.87-.31 1.11-1.03 2.2z" aria-label="(#+1)"/></g></svg>