<svg xmlns="http://www.w3.org/2000/svg" width="90mm" height="90mm" viewBox="0 0 318.898 318.898"><path fill="#fff" stroke="#000" d="M68.008 68.805h19.75v16.537H68.01zm0 53.928h19.75v16.537H68.01zm0 53.93h19.75V193.2H68.01zm0 53.927h19.75v16.537H68.01zm166.43-161.785h19.75v16.537h-19.75zm0 53.928h19.75v16.537h-19.75zm0 53.93h19.75V193.2h-19.75zm0 53.927h19.75v16.537h-19.75z"/><path fill="#fff" stroke="#000" stroke-width="2" d="M86.924 54.685h148.348v207.458H86.924z"/><text style="line-height:125%" x="214.243" y="367.019" transform="translate(-117.073 -280.318)"><tspan x="214.243" y="367.019" font-size="27.5" font-family="Special Elite">1</tspan></text><text style="line-height:125%" x="215.102" y="420.323" transform="translate(-117.073 -280.318)"><tspan x="215.102" y="420.323" font-size="27.5" font-family="Special Elite">2</tspan></text><text style="line-height:125%" x="215.854" y="474.446" transform="translate(-117.073 -280.318)"><tspan x="215.854" y="474.446" font-size="27.5" font-family="Special Elite">3</tspan></text><text style="line-height:125%" x="213.934" y="528.959" transform="translate(-117.073 -280.318)"><tspan x="213.934" y="528.959" font-size="27.5" font-family="Special Elite">4</tspan></text><text style="line-height:125%" x="326.868" y="528.475" transform="translate(-117.073 -280.318)"><tspan x="326.868" y="528.475" font-size="27.5" font-family="Special Elite">5</tspan></text><text style="line-height:125%" x="325.606" y="367.247" transform="translate(-117.073 -280.318)"><tspan x="325.606" y="367.247" font-size="27.5" font-family="Special Elite">8</tspan></text><text style="line-height:125%" x="325.66" y="420.835" transform="translate(-117.073 -280.318)"><tspan x="325.66" y="420.835" font-size="27.5" font-family="Special Elite">7</tspan></text><text style="line-height:125%" x="325.673" y="474.686" transform="translate(-117.073 -280.318)"><tspan x="325.673" y="474.686" font-size="27.5" font-family="Special Elite">6</tspan></text><text style="line-height:125%" x="124.156" y="367.045" transform="translate(-117.073 -280.318)"><tspan x="124.156" y="367.045" font-size="27.5" font-family="Special Elite">AIN</tspan></text><text style="line-height:125%" x="118.362" y="421.105" transform="translate(-117.073 -280.318)"><tspan x="118.362" y="421.105" font-size="27.5" font-family="Special Elite">PWM</tspan></text><text style="line-height:125%" x="119.161" y="475.164" transform="translate(-117.073 -280.318)"><tspan x="119.161" y="475.164" font-size="27.5" font-family="Special Elite">GND</tspan></text><text style="line-height:125%" x="122.168" y="529.224" transform="translate(-117.073 -280.318)"><tspan x="122.168" y="529.224" font-size="27.5" font-family="Special Elite">DIN</tspan></text><text style="line-height:125%" x="382.28" y="474.701" transform="translate(-117.073 -280.318)"><tspan x="382.28" y="474.701" font-size="27.5" font-family="Special Elite">GND</tspan></text><text style="line-height:125%" x="383.139" y="420.853" transform="translate(-117.073 -280.318)"><tspan x="383.139" y="420.853" font-size="27.5" font-family="Special Elite">RST</tspan></text><text style="line-height:125%" x="382.71" y="367.005" transform="translate(-117.073 -280.318)"><tspan x="382.71" y="367.005" font-size="27.5" font-family="Special Elite">GND</tspan></text><text style="line-height:125%" x="382.549" y="528.65" transform="translate(-117.073 -280.318)"><tspan x="382.549" y="528.65" font-size="27.5" font-family="Special Elite">VCC</tspan></text></svg>