<svg xmlns="http://www.w3.org/2000/svg" width="90" height="90" viewBox="0 0 23.8 23.8"><path fill="none" d="M0 0h24v24H0z"/><path d="m-36 0-12 12 12 12v-7h12V7h-12zm24 0a12 12 0 0 0-12 12 7 7 0 0 1 7-7 7 7 0 0 1 7 7 7 7 0 0 1-7 7 7 7 0 0 1-7-7 12 12 0 0 0 12 12A12 12 0 0 0 0 12 12 12 0 0 0-12 0zm-12 12zM0 0h12l12 12-12 12H0l12-12Zm24 0v12h24v12H36V0Zm24 0h23v5H52v5h10v4H52v5h19v5H48Zm23 0 24 24V0Zm36 0L95 12h7l5-5 5 5-5 5v7l12-12Zm19 0-7 7 17 17 7-7zm-7 95a24 24 0 0 0 24 24v-12a12 12 0 0 1-12-12Z"/><circle cx="-39.3" cy="32.1" r="8.3"/><path d="m-36 31-4 5 11 12 5-5zm24-7-12 12v12h12L0 36Zm12 0h24v7H7l17 17H0v-5l5-5-5-5Zm26 0 7 7-9 9 7 8 9-10 8 7V24Z"/><path d="M59 24a12 12 0 0 0-11 12 12 12 0 0 0 12 12v-5a7 7 0 0 1-8-7 7 7 0 0 1 7-8 7 7 0 0 1 1 0v-4a12 12 0 0 0-1 0z"/><circle cx="59.5" cy="35.7" r="4.8"/><path d="M71 48V26l8 7 9-9 7 7-9 9 7 8zm24-24v24h7V38l10 10h7v-3l-7-7 7-7-7-7h-5zm7 5h8l2 2-2 2h-8zm24-5-7 7 5 5-5 4 7 8 5-5 2-3 10-9-7-7-5 5zm5 95 12 12h-12v12l-12-12zM-39 48a8 8 0 0 0-9 8 8 8 0 0 0 8 8 8 8 0 0 1 0-1 8 8 0 0 1 8-8 8 8 0 0 1 1 0 8 8 0 0 0-8-7zm8 7a8 8 0 0 1 0 1 8 8 0 0 1-8 8 8 8 0 0 1-1 0 8 8 0 0 0 8 7 8 8 0 0 0 8-8 8 8 0 0 0-7-8z"/><path d="m-17 48-7 7 5 5 7-8 7 8-7 7-7-7-5 4 7 7h10l7-7v-9l-7-7Zm41 0v9H10v14H0V48zm12 0L24 60v11h5a7 7 0 0 1 7-7 7 7 0 0 1 7 7h5V48h-5zm2 4h5v10a12 12 0 0 0-7-2 12 12 0 0 0-7 2z"/><path d="M55 52a7 7 0 0 0-7 8 7 7 0 0 0 7 7V52z"/><path d="M52 57h15v5H52z"/><path d="m71 48-7 7v12l7 4zm17 0v16H71v7h8V55h16v-7z"/><circle cx="102.4" cy="54.8" r="7.1"/><circle cx="102.4" cy="64.3" r="7.1"/><circle cx="111.9" cy="64.3" r="7.1"/><rect width="16.7" height="9.5" x="119.1" y="54.8" ry="0"/><path d="M133 48h10v23h-10zm-7 95-7 7v17h17l-12-12 5-5h4l5 5h5v-5l-7-7h-5zM-48 71v24h24v-9a14 14 0 0 1-14-15zm36 0-12 12v12h12v-2h5v-5h-5v-5H0Zm36 0H12l12 12H12v12L0 83v12h24Zm0 0 7 8v9l-7 7h21l-7-7v-2l10-10v-5zm36 0L48 83v12h23V83zm0 8v14l-8-7zm23-8a12 12 0 0 0-12 12 12 12 0 0 0 12 12V83h12a12 12 0 0 0-12-12zm12 12L83 95h12zm12-12a12 12 0 0 0-12 12h5a7 7 0 0 0 7 7V76a7 7 0 0 1 7 7v7h-7v5h12V83a12 12 0 0 0-12-12zm-5 8zm-1 0a7 7 0 0 0 0 1 7 7 0 0 1 0-1zm0 1zm-1 2zm24-11a5 5 0 0 0-5 5 5 5 0 0 0 5 5v9h9a5 5 0 0 0 5 5 5 5 0 0 0 5-5 5 5 0 0 0-5-4V76h-9a5 5 0 0 0-5-5z"/><circle cx="100" cy="147.6" r="4.8"/><circle cx="100" cy="161.9" r="4.8"/><path d="M95 148h10v14H95z"/><circle cx="111.9" cy="154.8" r="7.1"/><path d="m-36 95-12 12v12h24v-9h-5v4h-14v-4l10-10 5-5zm24 24-12-12V95h7v10l5 5 5-5 7-7v9zM0 95v7h10L0 112v7h24v-7H14l10-10v-7zm24 12 12-12v24l12-12V95l-24 24Zm36-12v5a7 7 0 0 1 7 7h4a12 12 0 0 0-11-12Zm7 12h-7v7a7 7 0 0 0 7-7zm-7 7a7 7 0 0 1-8-7h-4a12 12 0 0 0 12 12zm-8-7h8v-7a7 7 0 0 0-8 7zm-3-5a12 12 0 0 0 0 1 12 12 0 0 1 0-1zm46-7a24 24 0 0 0-24 24 24 24 0 0 0 24-24Zm-143 24 12 12v-12l12 12v12h-24l12-12h-12zm36 0a12 12 0 0 0-12 12 12 12 0 0 0 12 12v-24z"/><circle cx="-11.9" cy="131" r="7.1"/><path d="M12 119h5l7 7v10l-7 7h-5v-7H5l-5-5 5-5h7Zm12 7h7l9 10h8v-17H33l7 7-9 10 7 7H24Zm33 17v-10l-9-9 4-5 10 10h9v14zm-9 24h4v9h5v-9h5v14H52v5h15v-19h4v24H48Zm35-48a12 12 0 0 0-12 12l12 12v-12h12l-12-12Z"/><circle cx="107.2" cy="131" r="7.1"/><path d="M100 119h-5v5l19 19h5v-5zm-5-24 7 7v10h10l7 7v-7l-5-5 5-5-7-7-5 5-5-5zm-47 48a24 24 0 0 0-16 6 7 7 0 0 1 4-1 7 7 0 0 1 7 7 7 7 0 0 1-1 3 24 24 0 0 0 6-15zm-18 8a24 24 0 0 0-6 16 24 24 0 0 0 15-6 7 7 0 0 1-3 1 7 7 0 0 1-7-7 7 7 0 0 1 1-4z"/><circle cx="35.7" cy="154.8" r="4.8"/><path d="m-38 143 5 5a7 7 0 0 0-3 0 7 7 0 0 0-7 7 7 7 0 0 0 1 3l-6-6v15h15l-6-6a7 7 0 0 0 3 1 7 7 0 0 0 7-7 7 7 0 0 0 0-3l5 5v-14Z"/><path d="M-21 143a4 4 0 0 0-3 3 4 4 0 0 0 3 4h7a6 6 0 0 0 0 1 6 6 0 0 0 6 6 6 6 0 0 0 1 0v7a4 4 0 0 0 3 3 4 4 0 0 0 4-3v-21h-7zm2 14a5 5 0 0 0-5 5 5 5 0 0 0 5 5 5 5 0 0 0 5-5 5 5 0 0 0-5-5zm19-14v24h5v-10h5v10h4v-19h5v19h5v-24H10v9H5v-9zm59 0a12 12 0 0 0-11 12 12 12 0 0 0 12 12 12 12 0 0 0 11-12 12 12 0 0 0-11-12 12 12 0 0 0-1 0zm1 5a7 7 0 0 1 6 4h-6a2 2 0 0 0-3 3 2 2 0 0 0 3 2h6a7 7 0 0 1-6 5 7 7 0 0 1-8-7 7 7 0 0 1 8-7zm-29 19h5v24h-5z"/><circle cx="41.7" cy="178.9" r="6"/><circle cx="27.4" cy="178.9" r="3.6"/><path d="M-48 167h5l19 19v5h-5l-19-20z"/><circle cx="29.8" cy="172.6" r="6" transform="scale(-1 1)"/><circle cx="41.7" cy="184.5" r="6" transform="scale(-1 1)"/><path d="m-24 174 7-7 12 12 5-5v12l-5 5-9-10-10 10zm36-7L0 179v12h24v-12l-12 12z"/><path d="M12 167a12 12 0 0 1 12 12v-12zm59 0v7l3 2a10 10 0 0 0 0 3 10 10 0 0 0 9 9 10 10 0 0 0 2 0l3 3h7v-8l-2-2a10 10 0 0 0 0-2 10 10 0 0 0-10-10 10 10 0 0 0-2 0l-2-2zm12 7a5 5 0 0 1 5 5 5 5 0 0 1-5 4 5 5 0 0 1-4-4 5 5 0 0 1 4-5zm-12-31v24h12a12 12 0 0 0 12-12 12 12 0 0 0-12-12zm12 5h7v4h-4v5h4v5h-7a7 7 0 0 1-6-5h4v-5h-4a7 7 0 0 1 6-4zm22 19a10 10 0 0 0-10 9 10 10 0 0 0 7 9l5 6 12-12-5-6a10 10 0 0 0-9-6zm3 6a5 5 0 0 1 2 3 5 5 0 0 1-5 5 5 5 0 0 1-4-1zm11-6v4h10v5h-10v5h10v5h-10v5h24v-5h-10v-15h10v-4z"/></svg>