<svg xmlns="http://www.w3.org/2000/svg" width="90" height="90" viewBox="0 0 23.8 23.8"><path d="m-131 0-12 12 12 12v-7h12V7h-12zM-107 0a12 12 0 0 0-12 12 7 7 0 0 1 7-7 7 7 0 0 1 7 7 7 7 0 0 1-7 7 7 7 0 0 1-7-7 12 12 0 0 0 12 12 12 12 0 0 0 12-12 12 12 0 0 0-12-12zm-12 12zM-95 0h12l12 12-12 12h-12l12-12ZM-71 0v12h23v12h-12V0ZM-48 0h24v5h-19v5h10v4h-10v5h19v5h-24zM-24 0 0 24V0ZM12 0 0 12h7l5-5 5 5-5 5v7l12-12ZM31 0l-7 7 16 17 8-7zM24 95a24 24 0 0 0 24 24v-12a12 12 0 0 1-12-12Z"/><circle cx="-134.5" cy="32.1" r="8.3"/><path d="m-131 31-5 5 12 12 5-5zM-107 24l-12 12v12h12l12-12ZM-95 24h24v7h-17l17 17h-24v-5l5-5-5-5zM-69 24l7 7-9 9 7 8 9-10 7 7V24ZM-36 24a12 12 0 0 0-12 12 12 12 0 0 0 12 12v-5a7 7 0 0 1-7-7 7 7 0 0 1 7-8v-4z"/><circle cx="-35.7" cy="35.7" r="4.8"/><path d="M-24 48V26l7 7 10-9 7 7-10 9 8 8zM0 24v24h7V38l10 10h7v-3l-7-7 7-7-7-7h-5zm7 5h7l3 2-3 2H7ZM31 24l-7 7 5 5-5 4 7 8 5-5 2-3 10-9-8-7-4 5zM36 119l12 12H36v12l-12-12ZM-135 48a8 8 0 0 0-8 8 8 8 0 0 0 7 8 8 8 0 0 1 0-1 8 8 0 0 1 9-8 8 8 0 0 1 1 0 8 8 0 0 0-9-7zm9 7a8 8 0 0 1 0 1 8 8 0 0 1-9 8 8 8 0 0 1-1 0 8 8 0 0 0 9 7 8 8 0 0 0 8-8 8 8 0 0 0-7-8z"/><path d="m-112 48-7 7 5 5 7-8 7 8-7 7-7-7-5 4 7 7h10l7-7v-9l-7-7zM-71 48v9h-15v14h-9V48zM-60 48l-11 12v11h4a7 7 0 0 1 7-7 7 7 0 0 1 8 7h4V48h-4zm3 4h5v10a12 12 0 0 0-8-2 12 12 0 0 0-7 2z"/><path d="M-40 52a7 7 0 0 0-8 8 7 7 0 0 0 8 7V52z"/><path d="M-43 57h14v5h-14z"/><path d="m-24 48-7 7v12l7 4zM-7 48v16h-17v7h7V55H0v-7z"/><circle cx="7.1" cy="54.8" r="7.1"/><circle cx="7.1" cy="64.3" r="7.1"/><circle cx="16.7" cy="64.3" r="7.1"/><rect width="16.7" height="9.5" x="23.8" y="54.8" ry="0"/><path d="M38 48h10v23H38zM31 143l-7 7v17h16l-11-12 4-5h5l5 5h5v-5l-8-7h-4zM-143 71v24h24v-9a14 14 0 0 1-14-15zM-107 71l-12 12v12h12v-2h5v-5h-5v-5h12ZM-71 71h-12l12 12h-12v12l-12-12v12h24zM-71 71l7 8v9l-7 7h21l-7-7v-2l9-10v-5zM-36 71l-12 12v12h24V83zm0 8v14l-7-7zM-12 71a12 12 0 0 0-12 12 12 12 0 0 0 12 12V83H0a12 12 0 0 0-12-12zM0 83l-12 12H0zM12 71A12 12 0 0 0 0 83h5a7 7 0 0 0 7 7V76a7 7 0 0 1 7 7v7h-7v5h12V83a12 12 0 0 0-12-12zm-5 8zm-1 0a7 7 0 0 0 0 1 7 7 0 0 1 0-1zm0 1zm-1 2zM29 71a5 5 0 0 0-5 5 5 5 0 0 0 5 5v9h9a5 5 0 0 0 5 5 5 5 0 0 0 5-5 5 5 0 0 0-5-4V76H33a5 5 0 0 0-4-5z"/><circle cx="4.8" cy="147.6" r="4.8"/><circle cx="4.8" cy="161.9" r="4.8"/><path d="M0 148h10v14H0z"/><circle cx="16.7" cy="154.8" r="7.1"/><path d="m-131 95-12 12v12h24v-9h-5v4h-14v-4l10-10 4-5zM-107 119l-12-12V95h7v10l5 5 5-5 7-7v9zM-95 95v7h9l-9 10v7h24v-7h-10l10-10v-7zM-71 107l11-12v24l12-12V95l-23 24ZM-36 95v5a7 7 0 0 1 7 7h5a12 12 0 0 0-12-12zm7 12h-7v7a7 7 0 0 0 7-7zm-7 7a7 7 0 0 1-7-7h-5a12 12 0 0 0 12 12zm-7-7h7v-7a7 7 0 0 0-7 7zm-4-5a12 12 0 0 0 0 1 12 12 0 0 1 0-1zM0 95a24 24 0 0 0-24 24A24 24 0 0 0 0 95ZM-143 119l12 12v-12l12 12v12h-24l12-12h-12zM-107 119a12 12 0 0 0-12 12 12 12 0 0 0 12 12v-24z"/><circle cx="-107.2" cy="131" r="7.1"/><path d="M-83 119h4l8 7v10l-8 7h-4v-7h-7l-5-5 5-5h7zM-71 126h7l9 10h7v-17h-14l7 7-9 10 7 7h-14ZM-38 143v-10l-10-9 5-5 10 10h9v14zM-48 167h5v9h5v-9h5v14h-10v5h14v-19h5v24h-24zM-12 119a12 12 0 0 0-12 12l12 12v-12H0a12 12 0 0 0-12-12z"/><circle cx="11.9" cy="131" r="7.1"/><path d="M5 119H0v5l19 19h5v-5zM0 95l7 7v10h10l7 7v-7l-5-5 5-5-7-7-5 5-5-5zM-48 143a24 24 0 0 0-15 6 7 7 0 0 1 3-1 7 7 0 0 1 8 7 7 7 0 0 1-1 3 24 24 0 0 0 5-15zm-18 8a24 24 0 0 0-5 16 24 24 0 0 0 15-6 7 7 0 0 1-4 1 7 7 0 0 1-7-7 7 7 0 0 1 1-4z"/><circle cx="-59.5" cy="154.8" r="4.8"/><path d="m-133 143 5 5a7 7 0 0 0-3 0 7 7 0 0 0-7 7 7 7 0 0 0 1 3l-6-6v15h14l-5-6a7 7 0 0 0 3 1 7 7 0 0 0 7-7 7 7 0 0 0-1-3l6 5v-14Z"/><path d="M-117 143a4 4 0 0 0-2 3 4 4 0 0 0 2 4h7a6 6 0 0 0 0 1 6 6 0 0 0 6 6 6 6 0 0 0 2 0v7a4 4 0 0 0 3 3 4 4 0 0 0 4-3v-21h-7zm3 14a5 5 0 0 0-5 5 5 5 0 0 0 5 5 5 5 0 0 0 5-5 5 5 0 0 0-5-5zM-95 143v24h5v-10h4v10h5v-19h5v19h5v-24h-15v9h-4v-9zM-36 143a12 12 0 0 0-12 12 12 12 0 0 0 12 12 12 12 0 0 0 12-12 12 12 0 0 0-12-12zm0 5a7 7 0 0 1 7 4h-7a2 2 0 0 0-2 3 2 2 0 0 0 2 2h7a7 7 0 0 1-7 5 7 7 0 0 1-7-7 7 7 0 0 1 7-7zM-64 167h5v24h-5z"/><circle cx="-53.6" cy="178.9" r="6"/><circle cx="-67.9" cy="178.9" r="3.6"/><path d="M-143 167h5l19 19v5h-5l-19-20z"/><circle cx="125" cy="172.6" r="6" transform="scale(-1 1)"/><circle cx="136.9" cy="184.5" r="6" transform="scale(-1 1)"/><path d="m-119 174 7-7 12 12 5-5v12l-5 5-10-10-9 10zM-83 167l-12 12v12h24v-12l-12 12z"/><path d="M-83 167a12 12 0 0 1 12 12v-12zM-24 167v7l3 2a10 10 0 0 0 0 3 10 10 0 0 0 9 9 10 10 0 0 0 2 0l3 3h7v-8l-3-2a10 10 0 0 0 1-2 10 10 0 0 0-10-10 10 10 0 0 0-2 0l-3-2zm12 7a5 5 0 0 1 5 5 5 5 0 0 1-5 4 5 5 0 0 1-5-4 5 5 0 0 1 5-5zM-24 143v24h12a12 12 0 0 0 12-12 12 12 0 0 0-12-12zm12 5h7v4h-5v5h5v5h-7a7 7 0 0 1-7-5h5v-5h-5a7 7 0 0 1 7-4zM10 167a10 10 0 0 0-10 9 10 10 0 0 0 7 9l5 6 12-12-5-6a10 10 0 0 0-9-6zm3 6a5 5 0 0 1 1 3 5 5 0 0 1-4 5 5 5 0 0 1-4-1zM24 167v4h9v5h-9v5h9v5h-9v5h24v-5H38v-15h10v-4z"/></svg>