<svg xmlns="http://www.w3.org/2000/svg" width="90" height="90" viewBox="0 0 23.8 23.8"><path d="M12-24 0-12 12 0v-7h12v-10H12ZM36-24a12 12 0 0 0-12 12 7 7 0 0 1 7-7 7 7 0 0 1 7 7 7 7 0 0 1-7 7 7 7 0 0 1-7-7A12 12 0 0 0 36 0a12 12 0 0 0 12-12 12 12 0 0 0-12-12zM24-12zM48-24h12l11 12L60 0H48l12-12ZM71-24v12h24V0H83v-24ZM95-24h24v5h-19v5h10v4h-10v5h19v5H95ZM119-24l24 24v-24ZM155-24l-12 12h7l5-5 5 5-5 5v7l12-12ZM174-24l-7 7 16 17 8-7ZM167 71a24 24 0 0 0 23 24h1V83a12 12 0 0 1-12-12Z"/><circle cx="8.3" cy="8.3" r="8.3"/><path d="m12 7-5 5 12 12 5-5ZM36 0 24 12v12h12l12-12ZM48 0h23v7H55l16 17H48v-5l4-5-4-4zM74 0l7 7-10 10 8 7 9-10 7 7V0ZM107 0a12 12 0 0 0-12 12 12 12 0 0 0 12 12v-5a7 7 0 0 1-7-7 7 7 0 0 1 7-7V0z"/><circle cx="107.2" cy="11.9" r="4.8"/><path d="M119 24V2l7 8 10-10 7 7-10 10 7 7zM143 0v24h7V14l10 10h7v-3l-7-7 7-7-7-7h-5zm7 5h7l3 2-3 3h-7zM174 0l-7 7 4 5-4 5 7 7 5-5 2-2 10-10-8-7-4 5ZM179 95l12 12h-12v12l-12-12zM8 24a8 8 0 0 0-8 8 8 8 0 0 0 7 8 8 8 0 0 1 0-1 8 8 0 0 1 8-8 8 8 0 0 1 2 0 8 8 0 0 0-9-7zm9 7a8 8 0 0 1 0 1 8 8 0 0 1-9 8 8 8 0 0 1-1 0 8 8 0 0 0 8 8 8 8 0 0 0 9-9 8 8 0 0 0-7-8z"/><path d="m31 24-7 7 5 5 7-7 7 7-7 7-7-7-5 4 7 8h9l8-8v-9l-8-7ZM71 24v9H57v15h-9V24ZM83 24 71 36v12h5a7 7 0 0 1 7-8 7 7 0 0 1 7 8h5V24h-5zm3 5h4v9a12 12 0 0 0-7-2 12 12 0 0 0-7 2zM102 29a7 7 0 0 0-7 7 7 7 0 0 0 7 7V29z"/><path d="M100 33h14v5h-14z"/><path d="m119 24-7 7v12l7 5zM136 24v16h-17v8h7V31h17v-7Z"/><circle cx="150" cy="31" r="7.1"/><circle cx="150" cy="40.5" r="7.1"/><circle cx="159.5" cy="40.5" r="7.1"/><rect width="16.7" height="9.5" x="166.7" y="31" ry="0"/><path d="M181 24h10v24h-10zM174 119l-7 7v17h16l-12-12 5-5h5l5 5h5v-5l-8-7h-4zM0 48v23h24v-9a14 14 0 0 1-14-14ZM36 48 24 60v11h12v-2h4v-5h-4v-4h12zM71 48H60l11 12H60v11L48 60v11h23zM71 48l8 7v9l-8 7h22l-7-7v-2l9-10v-4ZM107 48 95 60v11h24V60zm0 7v14l-7-7zM131 48a12 12 0 0 0-12 12 12 12 0 0 0 12 11V60h12a12 12 0 0 0-12-12zm12 12-12 11h12zM155 48a12 12 0 0 0-12 12h5a7 7 0 0 0 7 7V52a7 7 0 0 1 7 8v7h-7v4h12V60a12 12 0 0 0-12-12zm-6 7zm0 1zm0 0a7 7 0 0 0-1 0 7 7 0 0 1 1 0zm-1 2zM171 48a5 5 0 0 0-4 4 5 5 0 0 0 4 5v10h10a5 5 0 0 0 5 4 5 5 0 0 0 5-4 5 5 0 0 0-5-5V52h-10a5 5 0 0 0-5-4z"/><circle cx="147.6" cy="123.8" r="4.8"/><circle cx="147.6" cy="138.1" r="4.8"/><path d="M143 124h9v14h-9z"/><circle cx="159.5" cy="131" r="7.1"/><path d="M12 71 0 83v12h24v-9h-5v4H5v-4l10-10 4-5zM36 95 24 83V71h7v10l5 5 4-5 8-7v9zM48 71v8h9l-9 9v7h23v-7h-9l9-9v-8zM71 83l12-12v24l12-12V71L71 95ZM107 71v5a7 7 0 0 1 7 7h5a12 12 0 0 0-12-12Zm7 12h-7v7a7 7 0 0 0 7-7zm-7 7a7 7 0 0 1-7-7h-5a12 12 0 0 0 12 12zm-7-7h7v-7a7 7 0 0 0-7 7zm-4-5a12 12 0 0 0 0 1 12 12 0 0 1 0-1zM143 71a24 24 0 0 0-24 24 24 24 0 0 0 24-24zM0 95l12 12V95l12 12v12H0l12-12H0ZM36 95a12 12 0 0 0-12 12 12 12 0 0 0 12 12V95z"/><circle cx="35.7" cy="107.2" r="7.1"/><path d="M60 95h4l7 7v10l-7 7h-4v-7h-8l-4-5 4-5h8zM71 102h8l9 10h7V95H81l7 7-9 10 7 7H71ZM105 119v-9l-10-10 5-5 10 10h9v14zM95 143h5v9h5v-9h5v14h-10v5h14v-19h5v24H95ZM131 95a12 12 0 0 0-12 12l12 12v-12h12a12 12 0 0 0-12-12z"/><circle cx="154.8" cy="107.2" r="7.1"/><path d="M148 95h-5v5l19 19h5v-5ZM143 71l7 8v9h10l7 7v-7l-5-5 5-4-7-8-5 5-5-5zM95 119a24 24 0 0 0-15 6 7 7 0 0 1 3-1 7 7 0 0 1 7 7 7 7 0 0 1 0 4 24 24 0 0 0 5-16zm-18 8a24 24 0 0 0-6 16 24 24 0 0 0 16-6 7 7 0 0 1-4 1 7 7 0 0 1-7-7 7 7 0 0 1 1-4z"/><circle cx="83.3" cy="131" r="4.8"/><path d="m10 119 5 6a7 7 0 0 0-3-1 7 7 0 0 0-7 7 7 7 0 0 0 0 3l-5-5v14h14l-5-6a7 7 0 0 0 3 1 7 7 0 0 0 7-7 7 7 0 0 0-1-3l6 5v-14z"/><path d="M26 119a4 4 0 0 0-2 4 4 4 0 0 0 2 3h7a6 6 0 0 0 0 1 6 6 0 0 0 6 7 6 6 0 0 0 1-1v7h1a4 4 0 0 0 3 3 4 4 0 0 0 3-3h1v-21h-8zm3 14a5 5 0 0 0-5 5 5 5 0 0 0 5 5 5 5 0 0 0 5-5 5 5 0 0 0-5-5zM48 119v24h4v-10h5v10h5v-19h5v19h4v-24H57v10h-5v-10zM107 119a12 12 0 0 0-12 12 12 12 0 0 0 12 12 12 12 0 0 0 12-12 12 12 0 0 0-12-12zm0 5a7 7 0 0 1 7 5h-7a2 2 0 0 0-2 2 2 2 0 0 0 2 2h7a7 7 0 0 1-7 5 7 7 0 0 1-7-7 7 7 0 0 1 7-7zM79 143h4v24h-4z"/><circle cx="89.3" cy="155" r="6"/><circle cx="75" cy="155" r="3.6"/><path d="M0 143h5l19 19v5h-5L0 148Z"/><circle cx="-17.9" cy="148.8" r="6" transform="scale(-1 1)"/><circle cx="-6" cy="160.7" r="6" transform="scale(-1 1)"/><path d="m24 150 7-7 12 12 5-5v12l-5 5-10-10-9 10zM60 143l-12 12v12h23v-12l-11 12Z"/><path d="M60 143a12 12 0 0 1 11 12v-12zM119 143v7l3 3a10 10 0 0 0-1 2 10 10 0 0 0 10 9 10 10 0 0 0 2 0l3 3h7v-7l-3-3a10 10 0 0 0 0-2 10 10 0 0 0-9-10 10 10 0 0 0-2 0l-3-2zm12 7a5 5 0 0 1 5 5 5 5 0 0 1-5 4 5 5 0 0 1-5-4 5 5 0 0 1 5-5zM119 119v24h12a12 12 0 0 0 12-12 12 12 0 0 0-12-12zm12 5h7v5h-5v4h5v5h-7a7 7 0 0 1-7-5h5v-4h-5a7 7 0 0 1 7-5zM152 143a10 10 0 0 0-9 9 10 10 0 0 0 7 10l5 5 12-12-5-5a10 10 0 0 0-10-7zm4 6a5 5 0 0 1 1 3 5 5 0 0 1-5 5 5 5 0 0 1-3-1zM167 143v5h9v4h-9v5h9v5h-9v5h24v-5h-10v-14h10v-5z"/></svg>