<svg xmlns="http://www.w3.org/2000/svg" width="90" height="90" viewBox="0 0 23.8 23.8"><path d="m-36-24-12 12 12 12v-7h12v-10h-12zM-12-24a12 12 0 0 0-12 12 7 7 0 0 1 7-7 7 7 0 0 1 7 7 7 7 0 0 1-7 7 7 7 0 0 1-7-7A12 12 0 0 0-12 0 12 12 0 0 0 0-12a12 12 0 0 0-12-12zm-12 12zM0-24h12l12 12L12 0H0l12-12ZM24-24v12h24V0H36v-24ZM48-24h23v5H52v5h10v4H52v5h19v5H48ZM71-24 95 0v-24ZM107-24 95-12h7l5-5 5 5-5 5v7l12-12zM126-24l-7 7 17 17 7-7zM119 71a24 24 0 0 0 24 24V83a12 12 0 0 1-12-12Z"/><circle cx="-39.3" cy="8.3" r="8.3"/><path d="m-36 7-4 5 11 12 5-5zM-12 0l-12 12v12h12L0 12ZM0 0h24v7H7l17 17H0v-5l5-5-5-4ZM26 0l7 7-9 10 7 7 9-10 8 7V0Z"/><path d="M59 0a12 12 0 0 0-11 12 12 12 0 0 0 12 12v-5a7 7 0 0 1-8-7 7 7 0 0 1 7-7 7 7 0 0 1 1 0V0a12 12 0 0 0-1 0z"/><circle cx="59.5" cy="11.9" r="4.8"/><path d="M71 24V2l8 8 9-10 7 7-9 10 7 7zM95 0v24h7V14l10 10h7v-3l-7-7 7-7-7-7h-5zm7 5h8l2 2-2 3h-8zM126 0l-7 7 5 5-5 5 7 7 5-5 2-2 10-10-7-7-5 5ZM131 95l12 12h-12v12l-12-12zM-39 24a8 8 0 0 0-9 8 8 8 0 0 0 8 8 8 8 0 0 1 0-1 8 8 0 0 1 8-8 8 8 0 0 1 1 0 8 8 0 0 0-8-7zm8 7a8 8 0 0 1 0 1 8 8 0 0 1-8 8 8 8 0 0 1-1 0 8 8 0 0 0 8 8 8 8 0 0 0 8-9 8 8 0 0 0-7-8z"/><path d="m-17 24-7 7 5 5 7-7 7 7-7 7-7-7-5 4 7 8h10l7-8v-9l-7-7ZM24 24v9H10v15H0V24ZM36 24 24 36v12h5a7 7 0 0 1 7-8 7 7 0 0 1 7 8h5V24h-5zm2 5h5v9a12 12 0 0 0-7-2 12 12 0 0 0-7 2zM55 29a7 7 0 0 0-7 7 7 7 0 0 0 7 7V29z"/><path d="M52 33h15v5H52z"/><path d="m71 24-7 7v12l7 5zM88 24v16H71v8h8V31h16v-7Z"/><circle cx="102.4" cy="31" r="7.1"/><circle cx="102.4" cy="40.5" r="7.1"/><circle cx="111.9" cy="40.5" r="7.1"/><rect width="16.7" height="9.5" x="119.1" y="31" ry="0"/><path d="M133 24h10v24h-10zM126 119l-7 7v17h17l-12-12 5-5h4l5 5h5v-5l-7-7h-5zM-48 48v23h24v-9a14 14 0 0 1-14-14zM-12 48l-12 12v11h12v-2h5v-5h-5v-4H0ZM24 48H12l12 12H12v11L0 60v11h24ZM24 48l7 7v9l-7 7h21l-7-7v-2l10-10v-4ZM60 48 48 60v11h23V60zm0 7v14l-8-7zM83 48a12 12 0 0 0-12 12 12 12 0 0 0 12 11V60h12a12 12 0 0 0-12-12zm12 12L83 71h12zM107 48a12 12 0 0 0-12 12h5a7 7 0 0 0 7 7V52a7 7 0 0 1 7 8v7h-7v4h12V60a12 12 0 0 0-12-12zm-5 7zm-1 1zm0 0zm-1 2zM124 48a5 5 0 0 0-5 4 5 5 0 0 0 5 5v10h9a5 5 0 0 0 5 4 5 5 0 0 0 5-4 5 5 0 0 0-5-5V52h-9a5 5 0 0 0-5-4z"/><circle cx="100" cy="123.8" r="4.8"/><circle cx="100" cy="138.1" r="4.8"/><path d="M95 124h10v14H95z"/><circle cx="111.9" cy="131" r="7.1"/><path d="m-36 71-12 12v12h24v-9h-5v4h-14v-4l10-10 5-5zM-12 95l-12-12V71h7v10l5 5 5-5 7-7v9zM0 71v8h10L0 88v7h24v-7H14l10-9v-8zM24 83l12-12v24l12-12V71L24 95ZM60 71v5a7 7 0 0 1 7 7h4a12 12 0 0 0-11-12Zm7 12h-7v7a7 7 0 0 0 7-7zm-7 7a7 7 0 0 1-8-7h-4a12 12 0 0 0 12 12zm-8-7h8v-7a7 7 0 0 0-8 7zm-3-5a12 12 0 0 0 0 1 12 12 0 0 1 0-1zM95 71a24 24 0 0 0-24 24 24 24 0 0 0 24-24zM-48 95l12 12V95l12 12v12h-24l12-12h-12zM-12 95a12 12 0 0 0-12 12 12 12 0 0 0 12 12V95z"/><circle cx="-11.9" cy="107.2" r="7.1"/><path d="M12 95h5l7 7v10l-7 7h-5v-7H5l-5-5 5-5h7zM24 102h7l9 10h8V95H33l7 7-9 10 7 7H24ZM57 119v-9l-9-10 4-5 10 10h9v14zM48 143h4v9h5v-9h5v14H52v5h15v-19h4v24H48ZM83 95a12 12 0 0 0-12 12l12 12v-12h12a12 12 0 0 0-12-12z"/><circle cx="107.2" cy="107.2" r="7.1"/><path d="M100 95h-5v5l19 19h5v-5ZM95 71l7 8v9h10l7 7v-7l-5-5 5-4-7-8-5 5-5-5zM48 119a24 24 0 0 0-16 6 7 7 0 0 1 4-1 7 7 0 0 1 7 7 7 7 0 0 1-1 4 24 24 0 0 0 6-16zm-18 8a24 24 0 0 0-6 16 24 24 0 0 0 15-6 7 7 0 0 1-3 1 7 7 0 0 1-7-7 7 7 0 0 1 1-4z"/><circle cx="35.7" cy="131" r="4.8"/><path d="m-38 119 5 6a7 7 0 0 0-3-1 7 7 0 0 0-7 7 7 7 0 0 0 1 3l-6-5v14h15l-6-6a7 7 0 0 0 3 1 7 7 0 0 0 7-7 7 7 0 0 0 0-3l5 5v-14z"/><path d="M-21 119a4 4 0 0 0-3 4 4 4 0 0 0 3 3h7a6 6 0 0 0 0 1 6 6 0 0 0 6 7 6 6 0 0 0 1-1v7a4 4 0 0 0 3 3 4 4 0 0 0 4-3v-21h-7zm2 14a5 5 0 0 0-5 5 5 5 0 0 0 5 5 5 5 0 0 0 5-5 5 5 0 0 0-5-5zM0 119v24h5v-10h5v10h4v-19h5v19h5v-24H10v10H5v-10zM59 119a12 12 0 0 0-11 12 12 12 0 0 0 12 12 12 12 0 0 0 11-12 12 12 0 0 0-11-12 12 12 0 0 0-1 0zm1 5a7 7 0 0 1 6 5h-6a2 2 0 0 0-3 2 2 2 0 0 0 3 2h6a7 7 0 0 1-6 5 7 7 0 0 1-8-7 7 7 0 0 1 8-7zM31 143h5v24h-5z"/><circle cx="41.7" cy="155" r="6"/><circle cx="27.4" cy="155" r="3.6"/><path d="M-48 143h5l19 19v5h-5l-19-19z"/><circle cx="29.8" cy="148.8" r="6" transform="scale(-1 1)"/><circle cx="41.7" cy="160.7" r="6" transform="scale(-1 1)"/><path d="m-24 150 7-7 12 12 5-5v12l-5 5-9-10-10 10zM12 143 0 155v12h24v-12l-12 12z"/><path d="M12 143a12 12 0 0 1 12 12v-12zM71 143v7l3 3a10 10 0 0 0 0 2 10 10 0 0 0 9 9 10 10 0 0 0 2 0l3 3h7v-7l-2-3a10 10 0 0 0 0-2 10 10 0 0 0-10-10 10 10 0 0 0-2 0l-2-2zm12 7a5 5 0 0 1 5 5 5 5 0 0 1-5 4 5 5 0 0 1-4-4 5 5 0 0 1 4-5zM71 119v24h12a12 12 0 0 0 12-12 12 12 0 0 0-12-12zm12 5h7v5h-4v4h4v5h-7a7 7 0 0 1-6-5h4v-4h-4a7 7 0 0 1 6-5zM105 143a10 10 0 0 0-10 9 10 10 0 0 0 7 10l5 5 12-12-5-5a10 10 0 0 0-9-7zm3 6a5 5 0 0 1 2 3 5 5 0 0 1-5 5 5 5 0 0 1-4-1zM119 143v5h10v4h-10v5h10v5h-10v5h24v-5h-10v-14h10v-5z"/></svg>