<svg xmlns="http://www.w3.org/2000/svg" width="90" height="90" viewBox="0 0 23.8 23.8"><path d="m-131-24-12 12 12 12v-7h12v-10h-12zM-107-24a12 12 0 0 0-12 12 7 7 0 0 1 7-7 7 7 0 0 1 7 7 7 7 0 0 1-7 7 7 7 0 0 1-7-7 12 12 0 0 0 12 12 12 12 0 0 0 12-12 12 12 0 0 0-12-12zm-12 12zM-95-24h12l12 12-12 12h-12l12-12ZM-71-24v12h23V0h-12v-24ZM-48-24h24v5h-19v5h10v4h-10v5h19v5h-24ZM-24-24 0 0v-24ZM12-24 0-12h7l5-5 5 5-5 5v7l12-12ZM31-24l-7 7L40 0l8-7ZM24 71a24 24 0 0 0 24 24V83a12 12 0 0 1-12-12Z"/><circle cx="-134.5" cy="8.3" r="8.3"/><path d="m-131 7-5 5 12 12 5-5zM-107 0l-12 12v12h12l12-12zM-95 0h24v7h-17l17 17h-24v-5l5-5-5-4zM-69 0l7 7-9 10 7 7 9-10 7 7V0ZM-36 0a12 12 0 0 0-12 12 12 12 0 0 0 12 12v-5a7 7 0 0 1-7-7 7 7 0 0 1 7-7V0z"/><circle cx="-35.7" cy="11.9" r="4.8"/><path d="M-24 24V2l7 8L-7 0l7 7-10 10 8 7zM0 0v24h7V14l10 10h7v-3l-7-7 7-7-7-7h-5zm7 5h7l3 2-3 3H7ZM31 0l-7 7 5 5-5 5 7 7 5-5 2-2L48 7l-8-7-4 5ZM36 95l12 12H36v12l-12-12zM-135 24a8 8 0 0 0-8 8 8 8 0 0 0 7 8 8 8 0 0 1 0-1 8 8 0 0 1 9-8 8 8 0 0 1 1 0 8 8 0 0 0-9-7zm9 7a8 8 0 0 1 0 1 8 8 0 0 1-9 8 8 8 0 0 1-1 0 8 8 0 0 0 9 8 8 8 0 0 0 8-9 8 8 0 0 0-7-8z"/><path d="m-112 24-7 7 5 5 7-7 7 7-7 7-7-7-5 4 7 8h10l7-8v-9l-7-7zM-71 24v9h-15v15h-9V24ZM-60 24l-11 12v12h4a7 7 0 0 1 7-8 7 7 0 0 1 8 8h4V24h-4zm3 5h5v9a12 12 0 0 0-8-2 12 12 0 0 0-7 2z"/><path d="M-40 29a7 7 0 0 0-8 7 7 7 0 0 0 8 7V29z"/><path d="M-43 33h14v5h-14z"/><path d="m-24 24-7 7v12l7 5zM-7 24v16h-17v8h7V31H0v-7Z"/><circle cx="7.1" cy="31" r="7.1"/><circle cx="7.1" cy="40.5" r="7.1"/><circle cx="16.7" cy="40.5" r="7.1"/><rect width="16.7" height="9.5" x="23.8" y="31" ry="0"/><path d="M38 24h10v24H38zM31 119l-7 7v17h16l-11-12 4-5h5l5 5h5v-5l-8-7h-4zM-143 48v23h24v-9a14 14 0 0 1-14-14zM-107 48l-12 12v11h12v-2h5v-5h-5v-4h12zM-71 48h-12l12 12h-12v11l-12-11v11h24zM-71 48l7 7v9l-7 7h21l-7-7v-2l9-10v-4ZM-36 48l-12 12v11h24V60zm0 7v14l-7-7zM-12 48a12 12 0 0 0-12 12 12 12 0 0 0 12 11V60H0a12 12 0 0 0-12-12zM0 60l-12 11H0zM12 48A12 12 0 0 0 0 60h5a7 7 0 0 0 7 7V52a7 7 0 0 1 7 8v7h-7v4h12V60a12 12 0 0 0-12-12zm-5 7zm-1 1zm0 0zm-1 2zM29 48a5 5 0 0 0-5 4 5 5 0 0 0 5 5v10h9a5 5 0 0 0 5 4 5 5 0 0 0 5-4 5 5 0 0 0-5-5V52H33a5 5 0 0 0-4-4z"/><circle cx="4.8" cy="123.8" r="4.8"/><circle cx="4.8" cy="138.1" r="4.8"/><path d="M0 124h10v14H0z"/><circle cx="16.7" cy="131" r="7.1"/><path d="m-131 71-12 12v12h24v-9h-5v4h-14v-4l10-10 4-5zM-107 95l-12-12V71h7v10l5 5 5-5 7-7v9zM-95 71v8h9l-9 9v7h24v-7h-10l10-9v-8zM-71 83l11-12v24l12-12V71l-23 24zM-36 71v5a7 7 0 0 1 7 7h5a12 12 0 0 0-12-12Zm7 12h-7v7a7 7 0 0 0 7-7zm-7 7a7 7 0 0 1-7-7h-5a12 12 0 0 0 12 12zm-7-7h7v-7a7 7 0 0 0-7 7zm-4-5a12 12 0 0 0 0 1 12 12 0 0 1 0-1zM0 71a24 24 0 0 0-24 24A24 24 0 0 0 0 71ZM-143 95l12 12V95l12 12v12h-24l12-12h-12zM-107 95a12 12 0 0 0-12 12 12 12 0 0 0 12 12V95z"/><circle cx="-107.2" cy="107.2" r="7.1"/><path d="M-83 95h4l8 7v10l-8 7h-4v-7h-7l-5-5 5-5h7zM-71 102h7l9 10h7V95h-14l7 7-9 10 7 7h-14zM-38 119v-9l-10-10 5-5 10 10h9v14zM-48 143h5v9h5v-9h5v14h-10v5h14v-19h5v24h-24zM-12 95a12 12 0 0 0-12 12l12 12v-12H0a12 12 0 0 0-12-12z"/><circle cx="11.9" cy="107.2" r="7.1"/><path d="M5 95H0v5l19 19h5v-5ZM0 71l7 8v9h10l7 7v-7l-5-5 5-4-7-8-5 5-5-5zM-48 119a24 24 0 0 0-15 6 7 7 0 0 1 3-1 7 7 0 0 1 8 7 7 7 0 0 1-1 4 24 24 0 0 0 5-16zm-18 8a24 24 0 0 0-5 16 24 24 0 0 0 15-6 7 7 0 0 1-4 1 7 7 0 0 1-7-7 7 7 0 0 1 1-4z"/><circle cx="-59.5" cy="131" r="4.8"/><path d="m-133 119 5 6a7 7 0 0 0-3-1 7 7 0 0 0-7 7 7 7 0 0 0 1 3l-6-5v14h14l-5-6a7 7 0 0 0 3 1 7 7 0 0 0 7-7 7 7 0 0 0-1-3l6 5v-14z"/><path d="M-117 119a4 4 0 0 0-2 4 4 4 0 0 0 2 3h7a6 6 0 0 0 0 1 6 6 0 0 0 6 7 6 6 0 0 0 2-1v7a4 4 0 0 0 3 3 4 4 0 0 0 4-3v-21h-7zm3 14a5 5 0 0 0-5 5 5 5 0 0 0 5 5 5 5 0 0 0 5-5 5 5 0 0 0-5-5zM-95 119v24h5v-10h4v10h5v-19h5v19h5v-24h-15v10h-4v-10zM-36 119a12 12 0 0 0-12 12 12 12 0 0 0 12 12 12 12 0 0 0 12-12 12 12 0 0 0-12-12zm0 5a7 7 0 0 1 7 5h-7a2 2 0 0 0-2 2 2 2 0 0 0 2 2h7a7 7 0 0 1-7 5 7 7 0 0 1-7-7 7 7 0 0 1 7-7zM-64 143h5v24h-5z"/><circle cx="-53.6" cy="155" r="6"/><circle cx="-67.9" cy="155" r="3.6"/><path d="M-143 143h5l19 19v5h-5l-19-19z"/><circle cx="125" cy="148.8" r="6" transform="scale(-1 1)"/><circle cx="136.9" cy="160.7" r="6" transform="scale(-1 1)"/><path d="m-119 150 7-7 12 12 5-5v12l-5 5-10-10-9 10zM-83 143l-12 12v12h24v-12l-12 12z"/><path d="M-83 143a12 12 0 0 1 12 12v-12ZM-24 143v7l3 3a10 10 0 0 0 0 2 10 10 0 0 0 9 9 10 10 0 0 0 2 0l3 3h7v-7l-3-3a10 10 0 0 0 1-2 10 10 0 0 0-10-10 10 10 0 0 0-2 0l-3-2zm12 7a5 5 0 0 1 5 5 5 5 0 0 1-5 4 5 5 0 0 1-5-4 5 5 0 0 1 5-5zM-24 119v24h12a12 12 0 0 0 12-12 12 12 0 0 0-12-12zm12 5h7v5h-5v4h5v5h-7a7 7 0 0 1-7-5h5v-4h-5a7 7 0 0 1 7-5zM10 143a10 10 0 0 0-10 9 10 10 0 0 0 7 10l5 5 12-12-5-5a10 10 0 0 0-9-7zm3 6a5 5 0 0 1 1 3 5 5 0 0 1-4 5 5 5 0 0 1-4-1zM24 143v5h9v4h-9v5h9v5h-9v5h24v-5H38v-14h10v-5z"/></svg>