<svg xmlns="http://www.w3.org/2000/svg" width="90" height="90" viewBox="0 0 23.8 23.8"><path d="M12-48 0-36l12 12v-7h12v-9H12ZM36-48a12 12 0 0 0-12 12 7 7 0 0 1 7-7 7 7 0 0 1 7 7 7 7 0 0 1-7 7 7 7 0 0 1-7-7 12 12 0 0 0 12 12 12 12 0 0 0 12-12 12 12 0 0 0-12-12zM24-36zM48-48h11l12 12-12 12H48l11-12zM71-48v12h24v12H83v-24zM95-48h24v5h-19v5h9v5h-9v4h19v5H95ZM119-48l24 24v-24zM155-48l-12 12h7l5-4 4 4-4 5v7l12-12zM174-48l-7 8 16 16 7-7zM167 48a24 24 0 0 0 23 24V59a12 12 0 0 1-11-11Z"/><circle cx="8.3" cy="-15.4" r="8.3"/><path d="m12-17-5 5L19 0l5-5ZM36-24 24-12V0h12l12-12ZM48-24h23v7H55L71 0H48v-5l4-4-4-5zM74-24l7 7L71-7l8 7 9-9 7 7v-22ZM107-24a12 12 0 0 0-12 12 12 12 0 0 0 12 12v-5a7 7 0 0 1-7-7 7 7 0 0 1 7-7v-5z"/><circle cx="107.1" cy="-11.8" r="4.8"/><path d="M119 0v-21l7 7 10-10 7 7-10 10 7 7zM143-24V0h7v-9l9 9h8v-2l-8-7 8-8-8-7h-4zm7 5h7l2 2-2 3h-7zM174-24l-7 7 4 5-4 5 7 7 5-5 2-2 9-10-7-7-4 5zM179 72l11 11h-11v12l-12-12zM8 0a8 8 0 0 0-8 8 8 8 0 0 0 7 9 8 8 0 0 1 0-1 8 8 0 0 1 8-9 8 8 0 0 1 2 0 8 8 0 0 0-9-7Zm9 7a8 8 0 0 1 0 1 8 8 0 0 1-9 9 8 8 0 0 1-1 0 8 8 0 0 0 8 7 8 8 0 0 0 9-8 8 8 0 0 0-7-9z"/><path d="m31 0-7 7 5 5 7-7 7 7-7 7-7-7-5 5 7 7h9l8-7V7l-8-7ZM71 0v10H57v14h-9V0ZM83 0 71 12v12h5a7 7 0 0 1 7-7 7 7 0 0 1 7 7h5V0h-5zm3 5h4v9a12 12 0 0 0-7-2 12 12 0 0 0-7 2zM102 5a7 7 0 0 0-7 7 7 7 0 0 0 7 7V5z"/><path d="M100 10h14v4h-14z"/><path d="m119 0-7 7v12l7 5zM136 0v17h-17v7h7V7h17V0Z"/><circle cx="149.9" cy="7.3" r="7.1"/><circle cx="149.9" cy="16.7" r="7.1"/><circle cx="159.5" cy="16.7" r="7.1"/><rect width="16.7" height="9.5" x="166.6" y="7.2" ry="0"/><path d="M181 0h9v24h-9zM174 95l-7 7v17h16l-12-12 5-5h5l5 5h4v-5l-7-7h-4zM0 24v24h24V38A14 14 0 0 1 9 24ZM36 24 24 36v12h12v-3h4v-4h-4v-5h12ZM71 24H59l12 12H59v12L48 36v12h23zM71 24l8 7v10l-8 7h22l-7-7v-3l9-9v-5zM107 24 95 36v12h24V36zm0 7v14l-7-7zM131 24a12 12 0 0 0-12 12 12 12 0 0 0 12 12V36h12a12 12 0 0 0-12-12zm12 12-12 12h12zM155 24a12 12 0 0 0-12 12h5a7 7 0 0 0 7 7V29a7 7 0 0 1 7 7v7h-7v5h12V36a12 12 0 0 0-12-12zm-6 7zm0 1zm-1 0a7 7 0 0 0 0 1 7 7 0 0 1 0-1zm0 2a7 7 0 0 0 0 1 7 7 0 0 1 0-1zM171 24a5 5 0 0 0-4 5 5 5 0 0 0 4 4v10h10a5 5 0 0 0 5 5 5 5 0 0 0 4-5 5 5 0 0 0-4-5v-9h-10a5 5 0 0 0-5-5z"/><circle cx="147.6" cy="100.1" r="4.8"/><circle cx="147.6" cy="114.4" r="4.8"/><path d="M143 100h9v14h-9z"/><circle cx="159.5" cy="107.2" r="7.1"/><path d="M12 48 0 60v12h24V62h-5v5H5v-5l9-10 5-4zM36 72 24 60V48h7v9l5 5 4-5 8-7v10zM48 48v7h9l-9 9v8h23v-8h-9l9-9v-7zM71 60l12-12v24l12-12V48L71 72ZM107 48v4a7 7 0 0 1 7 8h5a12 12 0 0 0-12-12Zm7 12h-7v7a7 7 0 0 0 7-7zm-7 7a7 7 0 0 1-7-7h-5a12 12 0 0 0 12 12zm-7-7h7v-8a7 7 0 0 0-7 8zm-4-5zM143 48a24 24 0 0 0-24 24 24 24 0 0 0 24-24zM0 72l12 11V72l12 11v12H0l12-12H0Z"/><path d="M36 72a12 12 0 0 0-12 11 12 12 0 0 0 12 12V72z"/><circle cx="35.6" cy="83.4" r="7.1"/><path d="M59 72h5l7 7v9l-7 7h-5v-7h-7l-4-5 4-4h7zM71 79h8l9 9h7V72H81l7 7-9 9 7 7H71ZM105 95v-9L95 76l5-4 9 9h10v14zM95 119h5v10h5v-10h4v14h-9v5h14v-19h5v24H95ZM131 72a12 12 0 0 0-12 11l12 12V83h12a12 12 0 0 0-12-11z"/><circle cx="154.7" cy="83.4" r="7.1"/><path d="M148 72h-5v4l19 19h5v-4zM143 48l7 7v9h9l8 8v-8l-5-4 5-5-8-7-4 4-5-4zM95 95a24 24 0 0 0-15 6 7 7 0 0 1 3-1 7 7 0 0 1 7 7 7 7 0 0 1-1 4 24 24 0 0 0 6-16zm-18 9a24 24 0 0 0-6 15 24 24 0 0 0 16-6 7 7 0 0 1-4 1 7 7 0 0 1-7-7 7 7 0 0 1 1-3z"/><circle cx="83.3" cy="107.2" r="4.8"/><path d="m9 95 6 6a7 7 0 0 0-3-1 7 7 0 0 0-7 7 7 7 0 0 0 0 3l-5-5v14h14l-5-5a7 7 0 0 0 3 0 7 7 0 0 0 7-7 7 7 0 0 0-1-3l6 6V95ZM26 95v1a4 4 0 0 0-2 3 4 4 0 0 0 2 3h7a6 6 0 0 0 0 2 6 6 0 0 0 6 6 6 6 0 0 0 1 0v7h1a4 4 0 0 0 3 2 4 4 0 0 0 3-2h1V95h-8zm3 14a5 5 0 0 0-5 5 5 5 0 0 0 5 5 5 5 0 0 0 5-5 5 5 0 0 0-5-5zM48 95v24h4v-9h5v9h5v-19h5v19h4V95H57v10h-5V95zM107 95a12 12 0 0 0-12 12 12 12 0 0 0 12 12 12 12 0 0 0 12-12 12 12 0 0 0-12-12zm0 5a7 7 0 0 1 7 5h-7a2 2 0 0 0-2 2 2 2 0 0 0 2 3h7a7 7 0 0 1-7 4 7 7 0 0 1-7-7 7 7 0 0 1 7-7zM79 119h4v24h-4z"/><circle cx="89.2" cy="131.3" r="6"/><circle cx="74.9" cy="131.3" r="3.6"/><path d="M0 119h5l19 19v5h-5L0 124z"/><circle cx="-17.8" cy="125.1" r="6" transform="scale(-1 1)"/><circle cx="-5.9" cy="137" r="6" transform="scale(-1 1)"/><path d="m24 126 7-7 12 12 5-5v12l-5 5-10-10-9 10zM59 119l-11 12v12h23v-12l-12 12Z"/><path d="M59 119a12 12 0 0 1 12 12v-12zM119 119v7l3 3a10 10 0 0 0-1 2 10 10 0 0 0 10 10 10 10 0 0 0 2-1l3 3h7v-7l-3-3a10 10 0 0 0 0-2 10 10 0 0 0-9-9 10 10 0 0 0-2 0l-3-3zm12 7a5 5 0 0 1 5 5 5 5 0 0 1-5 5 5 5 0 0 1-5-5 5 5 0 0 1 5-5zM119 95v24h12a12 12 0 0 0 12-12 12 12 0 0 0-12-12zm12 5h7v5h-5v5h5v4h-7a7 7 0 0 1-7-4h5v-5h-5a7 7 0 0 1 7-5zM152 119a10 10 0 0 0-9 10 10 10 0 0 0 7 9l5 5 12-12-6-5a10 10 0 0 0-9-7zm4 6a5 5 0 0 1 1 4 5 5 0 0 1-5 4 5 5 0 0 1-3-1zM167 119v5h9v5h-9v4h9v5h-9v5h23v-5h-9v-14h9v-5z"/></svg>