<svg xmlns="http://www.w3.org/2000/svg" width="90" height="90" viewBox="0 0 23.8 23.8"><path d="m-36-71-12 12 12 11v-7h12v-9h-12zM-12-71a12 12 0 0 0-12 11 7 7 0 0 1 7-7 7 7 0 0 1 7 8 7 7 0 0 1-7 7 7 7 0 0 1-7-7 12 12 0 0 0 12 11A12 12 0 0 0 0-59a12 12 0 0 0-12-12zm-12 12zM0-71h12l12 12-12 11H0l12-11ZM24-71v12h24v11H36v-23zM48-71h23v4H52v5h10v5H52v5h19v4H48zM71-71l24 23v-23ZM107-71 95-59h7l5-5 5 5-5 4v7l12-11zM126-71l-7 7 17 16 7-7zM119 24a24 24 0 0 0 24 24V36a12 12 0 0 1-12-12Z"/><circle cx="-39.4" cy="-39.2" r="8.3"/><path d="m-36-40-5 4 12 12 5-5zM-12-48l-12 12v12h12L0-36zM0-48h24v8H7l17 16H0v-5l5-4-5-5zM26-48l7 8-9 9 7 7 9-9 8 7v-22z"/><path d="M59-48a12 12 0 0 0-11 12 12 12 0 0 0 11 12v-4a7 7 0 0 1-7-8 7 7 0 0 1 7-7v-5z"/><circle cx="59.5" cy="-35.6" r="4.8"/><path d="M71-24v-21l8 7 9-10 7 8-9 9 7 7zM95-48v24h7v-9l10 9h7v-2l-7-7 7-7-7-8h-5zm7 5h7l3 3-3 2h-7zM126-48l-7 8 5 4-5 5 7 7 5-5 2-2 10-9-7-8-5 5zM131 48l12 12h-12v12l-12-12zM-39-24a8 8 0 0 0-9 9 8 8 0 0 0 8 8 8 8 0 0 1-1-1 8 8 0 0 1 9-9 8 8 0 0 1 1 0 8 8 0 0 0-8-7zm8 7a8 8 0 0 1 0 2 8 8 0 0 1-8 8 8 8 0 0 1-1 0 8 8 0 0 0 8 7 8 8 0 0 0 8-8 8 8 0 0 0-7-9z"/><path d="m-17-24-7 7 5 5 7-7 7 7-7 7-7-7-5 5 7 7h10l7-7v-10l-7-7zM24-24v10H9V0H0v-24ZM36-24 24-12V0h5a7 7 0 0 1 7-7 7 7 0 0 1 7 7h5v-24h-5zm2 5h5v10a12 12 0 0 0-7-3 12 12 0 0 0-7 3zM55-19a7 7 0 0 0-7 7 7 7 0 0 0 7 7v-14z"/><path d="M52-14h15v5H52z"/><path d="m71-24-7 7v12l7 5zM88-24v17H71v7h8v-17h16v-7z"/><circle cx="102.3" cy="-16.5" r="7.1"/><circle cx="102.3" cy="-7.1" r="7.1"/><circle cx="111.8" cy="-7.1" r="7.1"/><rect width="16.7" height="9.5" x="119" y="-16.6" ry="0"/><path d="M133-24h10V0h-10zM126 72l-7 7v16h17l-12-12 5-4h4l5 4h5v-4l-7-7h-5zM-48 0v24h24V14A14 14 0 0 1-38 0zM-12 0l-12 12v12h12v-2h5v-5h-5v-5H0zM24 0H12l12 12H12v12L0 12v12h24ZM24 0l7 7v10l-7 7h21l-7-7v-3l10-9V0ZM59 0 48 12v12h23V12Zm0 7v15l-7-8zM83 0a12 12 0 0 0-12 12 12 12 0 0 0 12 12V12h12A12 12 0 0 0 83 0zm12 12L83 24h12zM107 0a12 12 0 0 0-12 12h5a7 7 0 0 0 7 7V5a7 7 0 0 1 7 7v7h-7v5h12V12a12 12 0 0 0-12-12zm-5 7zm-1 1zm0 0a7 7 0 0 0 0 1 7 7 0 0 1 0-1zm-1 3zM124 0a5 5 0 0 0-5 5 5 5 0 0 0 5 5v9h9a5 5 0 0 0 5 5 5 5 0 0 0 5-5 5 5 0 0 0-5-5V5h-9a5 5 0 0 0-5-5z"/><circle cx="99.9" cy="76.3" r="4.8"/><circle cx="99.9" cy="90.6" r="4.8"/><path d="M95 76h10v15H95z"/><circle cx="111.8" cy="83.4" r="7.1"/><path d="m-36 24-12 12v12h24V38h-5v5h-14v-5l10-9 5-5zM-12 48l-12-12V24h7v9l5 5 5-5 7-7v10zM0 24v7h9L0 41v7h24v-7H14l10-10v-7zM24 36l12-12v24l12-12V24L24 48Z"/><path d="M59 24v5a7 7 0 0 1 8 7h4a12 12 0 0 0-12-12Zm8 12h-8v7a7 7 0 0 0 8-7zm-8 7a7 7 0 0 1-7-7h-4a12 12 0 0 0 11 12zm-7-7h7v-7a7 7 0 0 0-7 7zm-3-5a12 12 0 0 0-1 0 12 12 0 0 1 1 0zM95 24a24 24 0 0 0-24 24 24 24 0 0 0 24-24ZM-48 48l12 12V48l12 12v12h-24l12-12h-12zM-12 48a12 12 0 0 0-12 12 12 12 0 0 0 12 12V48z"/><circle cx="-12" cy="59.6" r="7.1"/><path d="M12 48h5l7 7v9l-7 8h-5v-8H5l-5-4 5-5h7zM24 55h7l9 9h8V48H33l7 7-9 9 7 8H24ZM57 72V62l-9-10 4-4 10 9h9v15zM48 95h4v10h5V95h5v15H52v4h15V95h4v24H48ZM83 48a12 12 0 0 0-12 12l12 12V60h12a12 12 0 0 0-12-12z"/><circle cx="107.1" cy="59.6" r="7.1"/><path d="M100 48h-5v4l19 20h5v-5zM95 24l7 7v10h10l7 7v-7l-5-5 5-5-7-7-5 5-5-5zM48 72a24 24 0 0 0-16 5 7 7 0 0 1 4-1 7 7 0 0 1 7 7 7 7 0 0 1-1 4 24 24 0 0 0 6-15zm-19 8a24 24 0 0 0-5 15 24 24 0 0 0 15-5 7 7 0 0 1-3 1 7 7 0 0 1-7-8 7 7 0 0 1 0-3z"/><circle cx="35.6" cy="83.4" r="4.8"/><path d="m-38 72 5 5a7 7 0 0 0-3-1 7 7 0 0 0-7 7 7 7 0 0 0 1 3l-6-5v14h15l-6-5a7 7 0 0 0 3 1 7 7 0 0 0 7-8 7 7 0 0 0 0-3l5 6V72ZM-22 72a4 4 0 0 0-2 3 4 4 0 0 0 2 3v1h8a6 6 0 0 0-1 1 6 6 0 0 0 7 6 6 6 0 0 0 1 0v7a4 4 0 0 0 3 2 4 4 0 0 0 4-2V72h-7zm3 14a5 5 0 0 0-5 4 5 5 0 0 0 5 5 5 5 0 0 0 5-5 5 5 0 0 0-5-4zM0 72v23h5v-9h4v9h5V76h5v19h5V72H9v9H5v-9zM59 72a12 12 0 0 0-11 11 12 12 0 0 0 11 12 12 12 0 0 0 12-12 12 12 0 0 0-12-11zm0 4a7 7 0 0 1 7 5h-7a2 2 0 0 0-2 2 2 2 0 0 0 2 3h7a7 7 0 0 1-7 5 7 7 0 0 1-7-8 7 7 0 0 1 7-7zM31 95h5v24h-5z"/><circle cx="41.6" cy="107.5" r="6"/><circle cx="27.3" cy="107.5" r="3.6"/><path d="M-48 95h5l19 19v5h-5l-19-19z"/><circle cx="29.8" cy="101.3" r="6" transform="scale(-1 1)"/><circle cx="41.7" cy="113.2" r="6" transform="scale(-1 1)"/><path d="m-24 102 7-7 12 12 5-5v12l-5 5-9-9-10 9zM12 95 0 107v12h24v-12l-12 12z"/><path d="M12 95a12 12 0 0 1 12 12V95ZM71 95v7l3 3a10 10 0 0 0 0 2 10 10 0 0 0 9 10 10 10 0 0 0 2 0l3 2h7v-7l-2-3a10 10 0 0 0 0-2 10 10 0 0 0-10-9 10 10 0 0 0-2 0l-2-3zm12 8a5 5 0 0 1 5 4 5 5 0 0 1-5 5 5 5 0 0 1-4-5 5 5 0 0 1 4-4zM71 72v23h12a12 12 0 0 0 12-12 12 12 0 0 0-12-11zm12 4h7v5h-4v5h4v5h-7a7 7 0 0 1-6-5h4v-5h-4a7 7 0 0 1 6-5zM105 95a10 10 0 0 0-10 10 10 10 0 0 0 7 9l5 5 12-12-5-5a10 10 0 0 0-9-7zm3 6a5 5 0 0 1 1 4 5 5 0 0 1-4 5 5 5 0 0 1-4-2zM119 95v5h10v5h-10v5h10v4h-10v5h24v-5h-10v-14h10v-5z"/></svg>