<svg xmlns="http://www.w3.org/2000/svg" width="90" height="90" viewBox="0 0 23.8 23.8"><path d="m-60-119-12 12 12 12v-7h12v-10h-12zM-36-119a12 12 0 0 0-12 12 7 7 0 0 1 7-7 7 7 0 0 1 8 7 7 7 0 0 1-8 7 7 7 0 0 1-7-7 12 12 0 0 0 12 12 12 12 0 0 0 12-12 12 12 0 0 0-12-12zm-12 12zM-24-119h12l12 12-12 12h-12l12-12zM0-119v12h24v12H12v-24zM24-119h24v5H29v5h9v4h-9v5h19v5H24zM48-119l23 24v-24zM83-119l-12 12h8l4-5 5 5-5 5v7l12-12zM102-119l-7 7 17 17 7-7zM95-24a24 24 0 0 0 24 24v-12a12 12 0 0 1-12-12Z"/><circle cx="-63.2" cy="-86.8" r="8.3"/><path d="m-60-88-4 5 12 12 4-5zM-36-95l-12 12v12h12l12-12zM-24-95H0v7h-17L0-71h-24v-5l5-5-5-5zM2-95l7 7-9 9 7 8 10-10 7 7v-21zM36-95a12 12 0 0 0-12 12 12 12 0 0 0 12 12v-5a7 7 0 0 1-8-7 7 7 0 0 1 8-7v-5z"/><circle cx="35.6" cy="-83.3" r="4.8"/><path d="M48-71v-22l7 7 9-9 7 7-9 9 7 8zM71-95v24h8v-10l9 10h7v-3l-7-7 7-7-7-7h-5zm8 5h7l2 2-2 2h-7zM102-95l-7 7 5 5-5 4 7 8 5-5 2-3 10-9-7-7-5 5zM107 0l12 12h-12v12L95 12ZM-63-71a8 8 0 0 0-9 8 8 8 0 0 0 8 8 8 8 0 0 1 0-1 8 8 0 0 1 8-8 8 8 0 0 1 1 0 8 8 0 0 0-8-7zm8 7a8 8 0 0 1 0 1 8 8 0 0 1-8 8 8 8 0 0 1-1 0 8 8 0 0 0 8 7 8 8 0 0 0 8-8 8 8 0 0 0-7-8z"/><path d="m-41-71-7 7 5 5 7-8 7 8-7 7-7-7-5 4 7 7h10l7-7v-9l-7-7zM0-71v9h-14v14h-10v-23ZM12-71 0-59v11h5a7 7 0 0 1 7-7 7 7 0 0 1 7 7h5v-23h-5zm2 4h5v10a12 12 0 0 0-7-2 12 12 0 0 0-7 2z"/><path d="M31-67a7 7 0 0 0-7 8 7 7 0 0 0 7 7v-15z"/><path d="M29-62h14v5H29z"/><path d="m48-71-8 7v12l8 4zM64-71v16H48v7h7v-16h16v-7z"/><circle cx="78.5" cy="-64.2" r="7.1"/><circle cx="78.5" cy="-54.7" r="7.1"/><circle cx="88" cy="-54.7" r="7.1"/><rect width="16.7" height="9.5" x="95.2" y="-64.2" ry="0"/><path d="M110-71h9v23h-9zM102 24l-7 7v17h17l-12-12 5-5h4l5 5h5v-5l-7-7h-5zM-72-48v24h24v-9a14 14 0 0 1-14-15zM-36-48l-12 12v12h12v-2h5v-5h-5v-5h12zM0-48h-12L0-36h-12v12l-12-12v12H0zM0-48l7 8v9l-7 7h21l-7-7v-2l10-10v-5zM36-48 24-36v12h24v-12zm0 8v14l-7-7z"/><path d="M59-48a12 12 0 0 0-11 12 12 12 0 0 0 11 12v-12h12a12 12 0 0 0-12-12zm12 12L59-24h12zM83-48a12 12 0 0 0-12 12h5a7 7 0 0 0 7 7v-14a7 7 0 0 1 7 7v7h-7v5h12v-12a12 12 0 0 0-12-12zm-5 8zm-1 0a7 7 0 0 0 0 1 7 7 0 0 1 0-1zm0 1zm-1 2zM100-48a5 5 0 0 0-5 5 5 5 0 0 0 5 5v9h9a5 5 0 0 0 5 5 5 5 0 0 0 5-5 5 5 0 0 0-5-4v-10h-9a5 5 0 0 0-5-5z"/><circle cx="76.1" cy="28.6" r="4.8"/><circle cx="76.1" cy="42.9" r="4.8"/><path d="M71 29h10v14H71z"/><circle cx="88" cy="35.8" r="7.1"/><path d="m-60-24-12 12V0h24v-9h-4v4h-15v-4l10-10 5-5zM-36 0l-12-12v-12h7v10l5 5 5-5 7-7v9zM-24-24v7h10L-24-7v7H0v-7h-10L0-17v-7zM0-12l12-12V0l12-12v-12L0 0ZM36-24v5a7 7 0 0 1 7 7h5a12 12 0 0 0-12-12zm7 12h-7v7a7 7 0 0 0 7-7zm-7 7a7 7 0 0 1-7-7h-5A12 12 0 0 0 36 0Zm-7-7h7v-7a7 7 0 0 0-7 7zm-4-5a12 12 0 0 0 0 1 12 12 0 0 1 0-1zM71-24A24 24 0 0 0 48 0a24 24 0 0 0 23-24ZM-72 0l12 12V0l12 12v12h-24l12-12h-12zM-36 0a12 12 0 0 0-12 12 12 12 0 0 0 12 12V0z"/><circle cx="-35.8" cy="12" r="7.1"/><path d="M-12 0h5l7 7v10l-7 7h-5v-7h-7l-5-5 5-5h7zM0 7h7l10 10h7V0H9l8 7L7 17l7 7H0ZM33 24V14l-9-9 5-5 9 10h10v14zM24 48h5v9h4v-9h5v14h-9v5h14V48h5v24H24Z"/><path d="M59 0a12 12 0 0 0-11 12l11 12V12h12A12 12 0 0 0 60 0a12 12 0 0 0-1 0z"/><circle cx="83.3" cy="12" r="7.1"/><path d="M76 0h-5v5l19 19h5v-5zM71-24l8 7v10h9l7 7v-7l-5-5 5-5-7-7-5 5-4-5zM24 24a24 24 0 0 0-16 6 7 7 0 0 1 4-1 7 7 0 0 1 7 7 7 7 0 0 1-1 3 24 24 0 0 0 6-15zM6 32a24 24 0 0 0-6 16 24 24 0 0 0 15-6 7 7 0 0 1-3 1 7 7 0 0 1-7-7 7 7 0 0 1 1-4z"/><circle cx="11.8" cy="35.8" r="4.8"/><path d="m-62 24 5 5a7 7 0 0 0-3 0 7 7 0 0 0-7 7 7 7 0 0 0 1 3l-6-6v15h15l-6-6a7 7 0 0 0 3 1 7 7 0 0 0 8-7 7 7 0 0 0-1-3l5 5V24Z"/><path d="M-45 24a4 4 0 0 0-3 3 4 4 0 0 0 3 4h7a6 6 0 0 0 0 1 6 6 0 0 0 6 6 6 6 0 0 0 1 0v7a4 4 0 0 0 4 3 4 4 0 0 0 3-3V24h-7zm2 14a5 5 0 0 0-5 5 5 5 0 0 0 5 5 5 5 0 0 0 5-5 5 5 0 0 0-5-5zM-24 24v24h5V38h5v10h4V29h5v19h5V24h-14v9h-5v-9zM36 24a12 12 0 0 0-12 12 12 12 0 0 0 12 12 12 12 0 0 0 12-12 12 12 0 0 0-12-12zm0 5a7 7 0 0 1 6 4h-6a2 2 0 0 0-3 3 2 2 0 0 0 3 2h6a7 7 0 0 1-6 5 7 7 0 0 1-7-7 7 7 0 0 1 7-7zM7 48h5v24H7z"/><circle cx="17.8" cy="59.9" r="6"/><circle cx="3.5" cy="59.9" r="3.6"/><path d="M-72 48h5l19 19v5h-4l-20-20z"/><circle cx="53.7" cy="53.7" r="6" transform="scale(-1 1)"/><circle cx="65.6" cy="65.6" r="6" transform="scale(-1 1)"/><path d="m-48 55 7-7 12 12 5-5v12l-5 5-9-10-10 10zM-12 48l-12 12v12H0V60l-12 12Z"/><path d="M-12 48A12 12 0 0 1 0 60V48ZM48 48v7l2 2a10 10 0 0 0 0 3 10 10 0 0 0 9 9 10 10 0 0 0 3 0l2 3h7v-8l-2-2a10 10 0 0 0 0-2 10 10 0 0 0-10-10 10 10 0 0 0-2 0l-2-2zm11 7a5 5 0 0 1 5 5 5 5 0 0 1-5 4 5 5 0 0 1-4-4 5 5 0 0 1 4-5zM48 24v24h11a12 12 0 0 0 12-12 12 12 0 0 0-12-12zm11 5h8v4h-5v5h5v5h-8a7 7 0 0 1-6-5h4v-5h-4a7 7 0 0 1 6-4zM81 48a10 10 0 0 0-10 9 10 10 0 0 0 7 9l5 6 12-12-5-6a10 10 0 0 0-9-6zm3 6a5 5 0 0 1 2 3 5 5 0 0 1-5 5 5 5 0 0 1-3-1zM95 48v4h10v5H95v5h10v5H95v5h24v-5h-10V52h10v-4Z"/></svg>