<svg xmlns="http://www.w3.org/2000/svg" width="90" height="90" viewBox="0 0 23.8 23.8"><path d="m-107-119-12 12 12 12v-7h12v-10h-12zM-83-119a12 12 0 0 0-12 12 7 7 0 0 1 7-7 7 7 0 0 1 7 7 7 7 0 0 1-7 7 7 7 0 0 1-7-7 12 12 0 0 0 12 12 12 12 0 0 0 11-12 12 12 0 0 0-11-12zm-12 12z"/><path d="M-72-119h12l12 12-12 12h-12l12-12zM-48-119v12h24v12h-12v-24zM-24-119H0v5h-19v5h9v4h-9v5H0v5h-24ZM0-119l24 24v-24zM36-119l-12 12h7l5-5 4 5-4 5v7l12-12zM55-119l-7 7 16 17 7-7zM48-24A24 24 0 0 0 71 0v-12a12 12 0 0 1-11-12z"/><circle cx="-110.8" cy="-86.8" r="8.3"/><path d="m-107-88-5 5 12 12 5-5zM-83-95l-12 12v12h12l11-12zM-72-95h24v7h-16l16 17h-24v-5l5-5-5-5zM-45-95l7 7-10 9 7 8 10-10 7 7v-21zM-12-95a12 12 0 0 0-12 12 12 12 0 0 0 12 12v-5a7 7 0 0 1-7-7 7 7 0 0 1 7-7v-5z"/><circle cx="-12" cy="-83.3" r="4.8"/><path d="M0-71v-22l7 7 10-9 7 7-10 9 7 8zM24-95v24h7v-10l9 10h8v-3l-8-7 8-7-8-7h-4zm7 5h7l2 2-2 2h-7zM55-95l-7 7 4 5-4 4 7 8 4-5 3-3 9-9-7-7-5 5zM59 0l12 12H59v12L48 12ZM-111-71a8 8 0 0 0-8 8 8 8 0 0 0 7 8 8 8 0 0 1 0-1 8 8 0 0 1 8-8 8 8 0 0 1 1 0 8 8 0 0 0-8-7zm8 7a8 8 0 0 1 1 1 8 8 0 0 1-9 8 8 8 0 0 1-1 0 8 8 0 0 0 8 7 8 8 0 0 0 9-8 8 8 0 0 0-8-8z"/><path d="m-88-71-7 7 4 5 8-8 7 8-7 7-8-7-4 4 7 7h9l7-7v-9l-7-7zM-48-71v9h-14v14h-10v-23ZM-36-71l-12 12v11h5a7 7 0 0 1 7-7 7 7 0 0 1 7 7h5v-23h-5zm3 4h4v10a12 12 0 0 0-7-2 12 12 0 0 0-7 2z"/><path d="M-17-67a7 7 0 0 0-7 8 7 7 0 0 0 7 7v-15z"/><path d="M-19-62h14v5h-14z"/><path d="m0-71-7 7v12l7 4zM17-71v16H0v7h7v-16h17v-7z"/><circle cx="30.9" cy="-64.2" r="7.1"/><circle cx="30.9" cy="-54.7" r="7.1"/><circle cx="40.4" cy="-54.7" r="7.1"/><rect width="16.7" height="9.5" x="47.6" y="-64.2" ry="0"/><path d="M62-71h9v23h-9zM55 24l-7 7v17h16L52 36l5-5h5l5 5h4v-5l-7-7h-5zM-119-48v24h24v-9a14 14 0 0 1-15-15zM-83-48l-12 12v12h12v-2h4v-5h-4v-5h11zM-48-48h-12l12 12h-12v12l-12-12v12h24zM-48-48l7 8v9l-7 7h22l-7-7v-2l9-10v-5zM-12-48l-12 12v12H0v-12zm0 8v14l-7-7zM12-48A12 12 0 0 0 0-36a12 12 0 0 0 12 12v-12h12a12 12 0 0 0-12-12zm12 12L12-24h12zM36-48a12 12 0 0 0-12 12h5a7 7 0 0 0 7 7v-14a7 7 0 0 1 7 7v7h-7v5h12v-12a12 12 0 0 0-12-12zm-6 8zm0 0a7 7 0 0 0 0 1 7 7 0 0 1 0-1zm-1 1zm0 2zM52-48a5 5 0 0 0-4 5 5 5 0 0 0 4 5v9h10a5 5 0 0 0 5 5 5 5 0 0 0 4-5 5 5 0 0 0-4-4v-10H57a5 5 0 0 0-5-5z"/><circle cx="28.5" cy="28.6" r="4.8"/><circle cx="28.5" cy="42.9" r="4.8"/><path d="M24 29h9v14h-9z"/><circle cx="40.4" cy="35.8" r="7.1"/><path d="m-107-24-12 12V0h24v-9h-5v4h-14v-4l9-10 5-5zM-83 0l-12-12v-12h7v10l5 5 4-5 7-7v9zM-72-24v7h10L-72-7v7h24v-7h-9l9-10v-7zM-48-12l12-12V0l12-12v-12L-48 0ZM-12-24v5a7 7 0 0 1 7 7h5a12 12 0 0 0-12-12Zm7 12h-7v7a7 7 0 0 0 7-7zm-7 7a7 7 0 0 1-7-7h-5A12 12 0 0 0-12 0zm-7-7h7v-7a7 7 0 0 0-7 7zm-4-5a12 12 0 0 0 0 1 12 12 0 0 1 0-1zM24-24A24 24 0 0 0 0 0a24 24 0 0 0 24-24ZM-119 0l12 12V0l12 12v12h-24l12-12h-12zM-83 0a12 12 0 0 0-12 12 12 12 0 0 0 12 12V0z"/><circle cx="-83.4" cy="12" r="7.1"/><path d="M-60 0h5l7 7v10l-7 7h-5v-7h-7l-5-5 5-5h7zM-48 7h7l10 10h7V0h-14l7 7-10 10 8 7h-15zM-14 24V14l-10-9 5-5 9 10H0v14zM-24 48h5v9h5v-9h4v14h-9v5h14V48h5v24h-24ZM12 0A12 12 0 0 0 0 12l12 12V12h12A12 12 0 0 0 12 0z"/><circle cx="35.6" cy="12" r="7.1"/><path d="M29 0h-5v5l19 19h5v-5zM24-24l7 7v10h9l8 7v-7l-5-5 5-5-8-7-4 5-5-5zM-24 24a24 24 0 0 0-15 6 7 7 0 0 1 3-1 7 7 0 0 1 7 7 7 7 0 0 1-1 3 24 24 0 0 0 6-15zm-18 8a24 24 0 0 0-6 16 24 24 0 0 0 16-6 7 7 0 0 1-4 1 7 7 0 0 1-7-7 7 7 0 0 1 1-4z"/><circle cx="-35.8" cy="35.8" r="4.8"/><path d="m-110 24 6 5a7 7 0 0 0-3 0 7 7 0 0 0-7 7 7 7 0 0 0 0 3l-5-6v15h14l-5-6a7 7 0 0 0 3 1 7 7 0 0 0 7-7 7 7 0 0 0-1-3l6 5V24Z"/><path d="M-93 24a4 4 0 0 0-2 3 4 4 0 0 0 2 4h7a6 6 0 0 0 0 1 6 6 0 0 0 6 6 6 6 0 0 0 1 0v7h1a4 4 0 0 0 3 3 4 4 0 0 0 3-3V24h-7zm3 14a5 5 0 0 0-5 5 5 5 0 0 0 5 5 5 5 0 0 0 4-5 5 5 0 0 0-4-5zM-72 24v24h5V38h5v10h5V29h5v19h4V24h-14v9h-5v-9zM-12 24a12 12 0 0 0-12 12 12 12 0 0 0 12 12A12 12 0 0 0 0 36a12 12 0 0 0-12-12zm0 5a7 7 0 0 1 7 4h-7a2 2 0 0 0-2 3 2 2 0 0 0 2 2h7a7 7 0 0 1-7 5 7 7 0 0 1-7-7 7 7 0 0 1 7-7zM-41 48h5v24h-5z"/><circle cx="-29.8" cy="59.9" r="6"/><circle cx="-44.1" cy="59.9" r="3.6"/><path d="M-119 48h5l19 19v5h-5l-19-20z"/><circle cx="101.3" cy="53.7" r="6" transform="scale(-1 1)"/><circle cx="113.2" cy="65.6" r="6" transform="scale(-1 1)"/><path d="m-95 55 7-7 12 12 4-5v12l-4 5-10-10-9 10zM-60 48l-12 12v12h24V60l-12 12z"/><path d="M-60 48a12 12 0 0 1 12 12V48ZM0 48v7l3 2a10 10 0 0 0-1 3 10 10 0 0 0 10 9 10 10 0 0 0 2 0l3 3h7v-8l-3-2a10 10 0 0 0 0-2 10 10 0 0 0-9-10 10 10 0 0 0-2 0l-3-2zm12 7a5 5 0 0 1 5 5 5 5 0 0 1-5 4 5 5 0 0 1-5-4 5 5 0 0 1 5-5zM0 24v24h12a12 12 0 0 0 12-12 12 12 0 0 0-12-12zm12 5h7v4h-5v5h5v5h-7a7 7 0 0 1-7-5h4v-5H5a7 7 0 0 1 7-4zM33 48a10 10 0 0 0-9 9 10 10 0 0 0 6 9l6 6 12-12-6-6a10 10 0 0 0-9-6zm4 6a5 5 0 0 1 1 3 5 5 0 0 1-5 5 5 5 0 0 1-3-1zM48 48v4h9v5h-9v5h9v5h-9v5h23v-5h-9V52h9v-4Z"/></svg>