<svg xmlns="http://www.w3.org/2000/svg" width="90" height="90" viewBox="0 0 23.8 23.8"><path d="m-155-119-12 12 12 12v-7h12v-10h-12zM-131-119a12 12 0 0 0-12 12 7 7 0 0 1 7-7 7 7 0 0 1 7 7 7 7 0 0 1-7 7 7 7 0 0 1-7-7 12 12 0 0 0 12 12 12 12 0 0 0 12-12 12 12 0 0 0-12-12zm-12 12zM-119-119h12l12 12-12 12h-12l12-12zM-95-119v12h23v12h-11v-24zM-72-119h24v5h-19v5h10v4h-10v5h19v5h-24zM-48-119l24 24v-24zM-12-119l-12 12h7l5-5 5 5-5 5v7l12-12zM7-119l-7 7 17 17 7-7zM0-24A24 24 0 0 0 24 0v-12a12 12 0 0 1-12-12z"/><circle cx="-158.4" cy="-86.8" r="8.3"/><path d="m-155-88-5 5 12 12 5-5zM-131-95l-12 12v12h12l12-12zM-119-95h24v7h-17l17 17h-24v-5l5-5-5-5zM-93-95l7 7-9 9 7 8 9-10 7 7v-21zM-60-95a12 12 0 0 0-12 12 12 12 0 0 0 12 12v-5a7 7 0 0 1-7-7 7 7 0 0 1 7-7v-5z"/><circle cx="-59.6" cy="-83.3" r="4.8"/><path d="M-48-71v-22l7 7 10-9 7 7-9 9 7 8zM-24-95v24h7v-10l10 10h7v-3l-7-7 7-7-7-7h-5zm7 5h7l3 2-3 2h-7zM7-95l-7 7 5 5-5 4 7 8 5-5 2-3 10-9-7-7-5 5zM12 0l12 12H12v12L0 12ZM-158-71a8 8 0 0 0-9 8 8 8 0 0 0 7 8 8 8 0 0 1 0-1 8 8 0 0 1 9-8 8 8 0 0 1 1 0 8 8 0 0 0-8-7zm8 7a8 8 0 0 1 0 1 8 8 0 0 1-8 8 8 8 0 0 1-2 0 8 8 0 0 0 9 7 8 8 0 0 0 8-8 8 8 0 0 0-7-8z"/><path d="m-136-71-7 7 5 5 7-8 7 8-7 7-7-7-5 4 7 7h10l7-7v-9l-7-7zM-95-71v9h-15v14h-9v-23ZM-83-71l-12 12v11h4a7 7 0 0 1 8-7 7 7 0 0 1 7 7h4v-23h-4zm2 4h5v10a12 12 0 0 0-7-2 12 12 0 0 0-8 2z"/><path d="M-64-67a7 7 0 0 0-8 8 7 7 0 0 0 8 7v-15z"/><path d="M-67-62h15v5h-15z"/><path d="m-48-71-7 7v12l7 4zM-31-71v16h-17v7h7v-16h17v-7z"/><circle cx="-16.7" cy="-64.2" r="7.1"/><circle cx="-16.7" cy="-54.7" r="7.1"/><circle cx="-7.2" cy="-54.7" r="7.1"/><rect width="16.7" height="9.5" x="-.1" y="-64.2" ry="0"/><path d="M14-71h10v23H14zM7 24l-7 7v17h17L5 36l4-5h5l5 5h5v-5l-7-7h-5zM-167-48v24h24v-9a14 14 0 0 1-14-15zM-131-48l-12 12v12h12v-2h5v-5h-5v-5h12zM-95-48h-12l12 12h-12v12l-12-12v12h24zM-95-48l7 8v9l-7 7h21l-7-7v-2l9-10v-5zM-60-48l-12 12v12h24v-12zm0 8v14l-7-7zM-36-48a12 12 0 0 0-12 12 12 12 0 0 0 12 12v-12h12a12 12 0 0 0-12-12zm12 12-12 12h12zM-12-48a12 12 0 0 0-12 12h5a7 7 0 0 0 7 7v-14a7 7 0 0 1 7 7v7h-7v5H0v-12a12 12 0 0 0-12-12zm-5 8zm-1 0a7 7 0 0 0 0 1 7 7 0 0 1 0-1zm0 1zm-1 2zM5-48a5 5 0 0 0-5 5 5 5 0 0 0 5 5v9h9a5 5 0 0 0 5 5 5 5 0 0 0 5-5 5 5 0 0 0-5-4v-10H9a5 5 0 0 0-4-5z"/><circle cx="-19.1" cy="28.6" r="4.8"/><circle cx="-19.1" cy="42.9" r="4.8"/><path d="M-24 29h10v14h-10z"/><circle cx="-7.2" cy="35.8" r="7.1"/><path d="m-155-24-12 12V0h24v-9h-5v4h-14v-4l10-10 5-5zM-131 0l-12-12v-12h7v10l5 5 5-5 7-7v9zM-119-24v7h9l-9 10v7h24v-7h-10l10-10v-7zM-95-12l12-12V0l11-12v-12L-95 0ZM-60-24v5a7 7 0 0 1 8 7h4a12 12 0 0 0-12-12zm8 12h-8v7a7 7 0 0 0 8-7zm-8 7a7 7 0 0 1-7-7h-5A12 12 0 0 0-60 0zm-7-7h7v-7a7 7 0 0 0-7 7zm-3-5a12 12 0 0 0-1 1 12 12 0 0 1 1-1zM-24-24A24 24 0 0 0-48 0a24 24 0 0 0 24-24ZM-167 0l12 12V0l12 12v12h-24l12-12h-12zM-131 0a12 12 0 0 0-12 12 12 12 0 0 0 12 12V0z"/><circle cx="-131" cy="12" r="7.1"/><path d="M-107 0h5l7 7v10l-7 7h-5v-7h-7l-5-5 5-5h7zM-95 7h7l9 10h7V0h-14l7 7-9 10 7 7h-14zM-62 24V14l-10-9 5-5 10 10h9v14zM-72 48h5v9h5v-9h5v14h-10v5h15V48h4v24h-24zM-36 0a12 12 0 0 0-12 12l12 12V12h12A12 12 0 0 0-36 0z"/><circle cx="-12" cy="12" r="7.1"/><path d="M-19 0h-5v5l19 19h5v-5zM-24-24l7 7v10h10l7 7v-7l-5-5 5-5-7-7-5 5-5-5zM-72 24a24 24 0 0 0-15 6 7 7 0 0 1 4-1 7 7 0 0 1 7 7 7 7 0 0 1-1 3 24 24 0 0 0 5-15zm-18 8a24 24 0 0 0-5 16 24 24 0 0 0 15-6 7 7 0 0 1-3 1 7 7 0 0 1-8-7 7 7 0 0 1 1-4z"/><circle cx="-83.4" cy="35.8" r="4.8"/><path d="m-157 24 5 5a7 7 0 0 0-3 0 7 7 0 0 0-7 7 7 7 0 0 0 1 3l-6-6v15h15l-6-6a7 7 0 0 0 3 1 7 7 0 0 0 7-7 7 7 0 0 0 0-3l5 5V24Z"/><path d="M-141 24a4 4 0 0 0-2 3 4 4 0 0 0 2 4h8a6 6 0 0 0-1 1 6 6 0 0 0 6 6 6 6 0 0 0 2 0v7a4 4 0 0 0 3 3 4 4 0 0 0 4-3V24h-7zm3 14a5 5 0 0 0-5 5 5 5 0 0 0 5 5 5 5 0 0 0 5-5 5 5 0 0 0-5-5zM-119 24v24h5V38h4v10h5V29h5v19h5V24h-15v9h-4v-9zM-60 24a12 12 0 0 0-12 12 12 12 0 0 0 12 12 12 12 0 0 0 12-12 12 12 0 0 0-12-12zm0 5a7 7 0 0 1 7 4h-7a2 2 0 0 0-2 3 2 2 0 0 0 2 2h7a7 7 0 0 1-7 5 7 7 0 0 1-7-7 7 7 0 0 1 7-7zM-88 48h5v24h-5z"/><circle cx="-77.5" cy="59.9" r="6"/><circle cx="-91.8" cy="59.9" r="3.6"/><path d="M-167 48h5l19 19v5h-5l-19-20z"/><circle cx="148.9" cy="53.7" r="6" transform="scale(-1 1)"/><circle cx="160.8" cy="65.6" r="6" transform="scale(-1 1)"/><path d="m-143 55 7-7 12 12 5-5v12l-5 5-9-10-10 10zM-107 48l-12 12v12h24V60l-12 12z"/><path d="M-107 48a12 12 0 0 1 12 12V48ZM-48 48v7l3 2a10 10 0 0 0 0 3 10 10 0 0 0 9 9 10 10 0 0 0 2 0l3 3h7v-8l-3-2a10 10 0 0 0 1-2 10 10 0 0 0-10-10 10 10 0 0 0-2 0l-3-2zm12 7a5 5 0 0 1 5 5 5 5 0 0 1-5 4 5 5 0 0 1-4-4 5 5 0 0 1 4-5zM-48 24v24h12a12 12 0 0 0 12-12 12 12 0 0 0-12-12zm12 5h7v4h-4v5h4v5h-7a7 7 0 0 1-7-5h5v-5h-5a7 7 0 0 1 7-4zM-14 48a10 10 0 0 0-10 9 10 10 0 0 0 7 9l5 6L0 60l-5-6a10 10 0 0 0-9-6zm3 6a5 5 0 0 1 1 3 5 5 0 0 1-4 5 5 5 0 0 1-4-1zM0 48v4h9v5H0v5h9v5H0v5h24v-5H14V52h10v-4Z"/></svg>