<svg xmlns="http://www.w3.org/2000/svg" width="90" height="90" viewBox="0 0 23.8 23.8"><path d="M12-143 0-131l12 12v-7h12v-10H12ZM36-143a12 12 0 0 0-12 12 7 7 0 0 1 7-7 7 7 0 0 1 7 7 7 7 0 0 1-7 7 7 7 0 0 1-7-7 12 12 0 0 0 12 12 12 12 0 0 0 12-12 12 12 0 0 0-12-12zm-12 12zM48-143h11l12 12-12 12H48l11-12zM71-143v12h24v12H83v-24zM95-143h24v5h-19v5h9v4h-9v5h19v5H95ZM119-143l24 24v-24zM155-143l-12 12h7l5-5 4 5-4 5v7l12-12zM174-143l-7 7 16 17 7-7zM167-48a24 24 0 0 0 23 24v-12a12 12 0 0 1-11-12Z"/><circle cx="8.3" cy="-110.7" r="8.3"/><path d="m12-112-5 5 12 12 5-5zM36-119l-12 12v12h12l12-12zM48-119h23v7H55l16 17H48v-5l4-5-4-4zM74-119l7 7-10 10 8 7 9-10 7 7v-21zM107-119a12 12 0 0 0-12 12 12 12 0 0 0 12 12v-5a7 7 0 0 1-7-7 7 7 0 0 1 7-7v-5z"/><circle cx="107.1" cy="-107.1" r="4.8"/><path d="M119-95v-22l7 8 10-10 7 7-10 10 7 7zM143-119v24h7v-10l9 10h8v-3l-8-7 8-7-8-7h-4zm7 5h7l2 2-2 3h-7zM174-119l-7 7 4 5-4 5 7 7 5-5 2-2 9-10-7-7-4 5zM179-24l11 12h-11V0l-12-12ZM8-95a8 8 0 0 0-8 8 8 8 0 0 0 7 8 8 8 0 0 1 0-1 8 8 0 0 1 8-8 8 8 0 0 1 2 0 8 8 0 0 0-9-7zm9 7a8 8 0 0 1 0 1 8 8 0 0 1-9 8 8 8 0 0 1-1 0 8 8 0 0 0 8 8 8 8 0 0 0 9-9 8 8 0 0 0-7-8z"/><path d="m31-95-7 7 5 5 7-7 7 7-7 7-7-7-5 4 7 8h9l8-8v-9l-8-7zM71-95v9H57v15h-9v-24zM83-95 71-83v12h5a7 7 0 0 1 7-8 7 7 0 0 1 7 8h5v-24h-5zm3 5h4v9a12 12 0 0 0-7-2 12 12 0 0 0-7 2zM102-90a7 7 0 0 0-7 7 7 7 0 0 0 7 7v-14z"/><path d="M100-86h14v5h-14z"/><path d="m119-95-7 7v12l7 5zM136-95v16h-17v8h7v-17h17v-7z"/><circle cx="149.9" cy="-88" r="7.1"/><circle cx="149.9" cy="-78.5" r="7.1"/><circle cx="159.5" cy="-78.5" r="7.1"/><rect width="16.7" height="9.5" x="166.6" y="-88" ry="0"/><path d="M181-95h9v24h-9zM174 0l-7 7v17h16l-12-12 5-5h5l5 5h4V7l-7-7h-4zM0-71v23h24v-9A14 14 0 0 1 9-71ZM36-71 24-59v11h12v-2h4v-5h-4v-4h12zM71-71H59l12 12H59v11L48-59v11h23zM71-71l8 7v9l-8 7h22l-7-7v-2l9-10v-4zM107-71 95-59v11h24v-11zm0 7v14l-7-7zM131-71a12 12 0 0 0-12 12 12 12 0 0 0 12 11v-11h12a12 12 0 0 0-12-12zm12 12-12 11h12zM155-71a12 12 0 0 0-12 12h5a7 7 0 0 0 7 7v-15a7 7 0 0 1 7 8v7h-7v4h12v-11a12 12 0 0 0-12-12zm-6 7zm0 1zm-1 0zm0 2zM171-71a5 5 0 0 0-4 4 5 5 0 0 0 4 5v10h10a5 5 0 0 0 5 4 5 5 0 0 0 4-4 5 5 0 0 0-4-5v-10h-10a5 5 0 0 0-5-4z"/><circle cx="147.6" cy="4.8" r="4.8"/><circle cx="147.6" cy="19.1" r="4.8"/><path d="M143 5h9v14h-9z"/><circle cx="159.5" cy="12" r="7.1"/><path d="M12-48 0-36v12h24v-9h-5v4H5v-4l9-10 5-5zM36-24 24-36v-12h7v10l5 5 4-5 8-7v9zM48-48v8h9l-9 9v7h23v-7h-9l9-9v-8zM71-36l12-12v24l12-12v-12L71-24zM107-48v5a7 7 0 0 1 7 7h5a12 12 0 0 0-12-12zm7 12h-7v7a7 7 0 0 0 7-7zm-7 7a7 7 0 0 1-7-7h-5a12 12 0 0 0 12 12zm-7-7h7v-7a7 7 0 0 0-7 7zm-4-5a12 12 0 0 0 0 1 12 12 0 0 1 0-1zM143-48a24 24 0 0 0-24 24 24 24 0 0 0 24-24zM0-24l12 12v-12l12 12V0H0l12-12H0ZM36-24a12 12 0 0 0-12 12A12 12 0 0 0 36 0v-24z"/><circle cx="35.6" cy="-11.8" r="7.1"/><path d="M59-24h5l7 7v10l-7 7h-5v-7h-7l-4-5 4-5h7zM71-17h8l9 10h7v-17H81l7 7-9 10 7 7H71ZM105 0v-9L95-19l5-5 9 10h10V0ZM95 24h5v9h5v-9h4v14h-9v5h14V24h5v24H95ZM131-24a12 12 0 0 0-12 12l12 12v-12h12a12 12 0 0 0-12-12z"/><circle cx="154.7" cy="-11.8" r="7.1"/><path d="M148-24h-5v5l19 19h5v-5ZM143-48l7 8v9h9l8 7v-7l-5-5 5-4-8-8-4 5-5-5zM95 0a24 24 0 0 0-15 6 7 7 0 0 1 3-1 7 7 0 0 1 7 7 7 7 0 0 1-1 4 24 24 0 0 0 6-16zM77 8a24 24 0 0 0-6 16 24 24 0 0 0 16-6 7 7 0 0 1-4 1 7 7 0 0 1-7-7 7 7 0 0 1 1-4z"/><circle cx="83.3" cy="12" r="4.8"/><path d="m9 0 6 6a7 7 0 0 0-3-1 7 7 0 0 0-7 7 7 7 0 0 0 0 3l-5-5v14h14l-5-6a7 7 0 0 0 3 1 7 7 0 0 0 7-7 7 7 0 0 0-1-3l6 5V0Z"/><path d="M26 0a4 4 0 0 0-2 4 4 4 0 0 0 2 3h7a6 6 0 0 0 0 1 6 6 0 0 0 6 7 6 6 0 0 0 1-1v8h1a4 4 0 0 0 3 2 4 4 0 0 0 3-2h1V0h-8Zm3 14a5 5 0 0 0-5 5 5 5 0 0 0 5 5 5 5 0 0 0 5-5 5 5 0 0 0-5-5zM48 0v24h4V14h5v10h5V5h5v19h4V0H57v10h-5V0ZM107 0a12 12 0 0 0-12 12 12 12 0 0 0 12 12 12 12 0 0 0 12-12 12 12 0 0 0-12-12zm0 5a7 7 0 0 1 7 5h-7a2 2 0 0 0-2 2 2 2 0 0 0 2 2h7a7 7 0 0 1-7 5 7 7 0 0 1-7-7 7 7 0 0 1 7-7zM79 24h4v24h-4z"/><circle cx="89.2" cy="36.1" r="6"/><circle cx="74.9" cy="36.1" r="3.6"/><path d="M0 24h5l19 19v5h-5L0 29z"/><circle cx="-17.8" cy="29.8" r="6" transform="scale(-1 1)"/><circle cx="-5.9" cy="41.7" r="6" transform="scale(-1 1)"/><path d="m24 31 7-7 12 12 5-5v12l-5 5-10-10-9 10zM59 24 48 36v12h23V36L59 48z"/><path d="M59 24a12 12 0 0 1 12 12V24ZM119 24v7l3 3a10 10 0 0 0-1 2 10 10 0 0 0 10 9 10 10 0 0 0 2 0l3 3h7v-7l-3-3a10 10 0 0 0 0-2 10 10 0 0 0-9-10 10 10 0 0 0-2 1l-3-3zm12 7a5 5 0 0 1 5 5 5 5 0 0 1-5 4 5 5 0 0 1-5-4 5 5 0 0 1 5-5zM119 0v24h12a12 12 0 0 0 12-12 12 12 0 0 0-12-12zm12 5h7v5h-5v4h5v5h-7a7 7 0 0 1-7-5h5v-4h-5a7 7 0 0 1 7-5zM152 24a10 10 0 0 0-9 9 10 10 0 0 0 7 10l5 5 12-12-6-5a10 10 0 0 0-9-7zm4 6a5 5 0 0 1 1 3 5 5 0 0 1-5 5 5 5 0 0 1-3-1zM167 24v5h9v4h-9v5h9v5h-9v5h23v-5h-9V29h9v-5z"/></svg>