<svg xmlns="http://www.w3.org/2000/svg" width="90" height="90" viewBox="0 0 23.8 23.8"><path d="m-83.4-142.8-12 12 12 11.8v-7.1h11.9v-9.6h-12zM-59.7-142.8A12 12 0 0 0-71.5-131a7.1 7.1 0 0 1 7.1-7 7.1 7.1 0 0 1 7.2 7.1 7.1 7.1 0 0 1-7.2 7.1 7.1 7.1 0 0 1-7.1-7A12 12 0 0 0-59.6-119a12 12 0 0 0 11.9-11.9 12 12 0 0 0-12-11.9zm-11.8 12zM-47.7-142.8h12l11.8 12-11.9 11.8h-11.9l12-11.9zM-23.9-142.8v12H0v11.8H-12v-23.8zM0-142.8h23.7v4.8h-19v4.7h9.5v4.8H4.7v4.7h19v4.8H0ZM23.7-142.8 47.6-119v-23.8z"/><path d="m59.5-142.8-12 12h7.2l4.8-4.9 4.7 4.8-4.7 4.8v7.1l11.9-11.9zM78.5-142.8l-7.1 7.1L88-119l7.2-7.1zM71.4-47.6A23.8 23.8 0 0 0 95-23.7v-12a11.8 11.8 0 0 1-11.7-11.9z"/><circle cx="-87" cy="-110.7" r="8.3"/><path d="m-83.4-111.8-4.8 4.7 12 12 4.7-4.8z"/><path d="m-59.6-119-12 12v11.8h12l11.9-11.9z"/><path d="M-47.7-119h23.8v7.2h-16.7l16.7 16.6h-23.8v-4.7l4.8-4.8-4.8-4.8zM-21.5-119l7.1 7.2-9.5 9.5 7.2 7.1 9.5-9.5 7.1 7.1V-119z"/><path d="M11.8-119A12 12 0 0 0-.1-107a12 12 0 0 0 12 11.8v-4.7a7.2 7.2 0 0 1-7.3-7.2 7.2 7.2 0 0 1 7.2-7.2v-4.7z"/><circle cx="11.8" cy="-107.1" r="4.8"/><path d="M23.7-95.2v-21.4l7.2 7.1 9.5-9.5 7.2 7.2-9.6 9.5 7.2 7.1zM47.6-119v23.8h7v-9.5l9.6 9.5h7.2v-2.4l-7.2-7.1 7.2-7.1-7.2-7.2h-4.7zm7 4.8h7.2l2.4 2.4-2.4 2.3h-7.1zM78.5-119l-7.1 7.2 4.7 4.7-4.7 4.8 7.1 7.1 4.8-4.7 2.4-2.4 9.5-9.5L88-119l-4.7 4.8zM83.3-23.7l11.9 11.9h-12V0L71.5-12ZM-87-95.2a8.3 8.3 0 0 0-8.3 8.4 8.3 8.3 0 0 0 7.2 8.2 8.3 8.3 0 0 1 0-1.1 8.3 8.3 0 0 1 8.3-8.3 8.3 8.3 0 0 1 1 0 8.3 8.3 0 0 0-8.2-7.2zm8.3 7.2a8.3 8.3 0 0 1 0 1.2 8.3 8.3 0 0 1-8.3 8.3 8.3 8.3 0 0 1-1.1 0 8.3 8.3 0 0 0 8.3 7.1 8.3 8.3 0 0 0 8.3-8.3 8.3 8.3 0 0 0-7.2-8.3z"/><path d="m-64.4-95.2-7.1 7.2 4.8 4.7 7-7.1 7.2 7.1-7.1 7.2-7.1-7.2-4.8 4.8 7.1 7.1h9.6l7.1-7.1V-88l-7.1-7.2zM-23.9-95.2v9.5h-14.3v14.3h-9.5v-23.8zM-12-95.2l-11.9 12v11.8h4.8a7.1 7.1 0 0 1 7.1-7.1 7.1 7.1 0 0 1 7.2 7.1h4.7v-23.8H-4.8zm2.4 4.8h4.8v9.5a12 12 0 0 0-7.2-2.4 12 12 0 0 0-7.1 2.4zM7-90.4a7.1 7.1 0 0 0-7 7.1A7.1 7.1 0 0 0 7-76v-14.3z"/><path d="M4.7-85.7H19v4.8H4.7z"/><path d="M23.7-95.2 16.6-88v11.9l7.1 4.7z"/><path d="M40.4-95.2v16.7H23.7v7.1H31V-88h16.7v-7.2z"/><circle cx="54.7" cy="-88" r="7.1"/><circle cx="54.7" cy="-78.5" r="7.1"/><circle cx="64.2" cy="-78.5" r="7.1"/><rect width="16.7" height="9.5" x="71.4" y="-88" ry="0"/><path d="M85.7-95.2h9.5v23.8h-9.5zM78.5 0l-7.1 7.2V24H88l-12-12L81 7.3h4.8l4.7 4.8h4.8V7.2L88 .1h-4.7zM-95.3-71.4v23.8h23.7V-57a14.3 14.3 0 0 1-14.2-14.3zM-59.6-71.4l-12 12v11.8h12v-2.3h4.8v-4.8h-4.8v-4.8h11.9zM-23.9-71.4h-11.9l12 12h-12v11.8l-11.9-11.9v12h23.8z"/><path d="m-23.9-71.4 7.2 7.2v9.5l-7.2 7.1h21.4l-7.1-7v-2.5l9.5-9.5v-4.8zM11.8-71.4 0-59.4v11.8h23.8v-11.9zm0 7.2V-50l-7.1-7.2z"/><path d="M35.6-71.4a12 12 0 0 0-11.9 12 12 12 0 0 0 12 11.8v-11.9h11.9a12 12 0 0 0-12-11.9zm12 12-12 11.8h12z"/><path d="M59.4-71.4a12 12 0 0 0-11.8 12h4.7a7.1 7.1 0 0 0 7.2 7v-14.2a7.1 7.1 0 0 1 7.1 7.1v7.2h-7.1v4.7h11.9v-11.9a12 12 0 0 0-12-11.9zm-5.2 7.1a7.1 7.1 0 0 0-.1.1zm-.6.8a7.1 7.1 0 0 0-.2.2 7.1 7.1 0 0 1 .2-.2zm-.4.5a7.1 7.1 0 0 0-.1.3 7.1 7.1 0 0 1 .1-.3zm-.8 2.2a7.1 7.1 0 0 0 0 .2 7.1 7.1 0 0 1 0-.2zM76.1-71.4a4.8 4.8 0 0 0-4.7 4.8 4.8 4.8 0 0 0 4.7 4.8v9.5h9.6a4.8 4.8 0 0 0 4.7 4.7 4.8 4.8 0 0 0 4.8-4.7 4.8 4.8 0 0 0-4.8-4.8v-9.5H81a4.8 4.8 0 0 0-4.8-4.8z"/><circle cx="52.3" cy="4.8" r="4.8"/><circle cx="52.3" cy="19.1" r="4.8"/><path d="M47.6 4.8h9.5v14.3h-9.5z"/><circle cx="64.2" cy="12" r="7.1"/><path d="m-83.4-47.6-12 12v11.9h23.9v-9.6h-4.8v4.8h-14.3V-33l9.8-9.8 4.8-4.8zM-59.6-23.7l-12-12v-11.9h7.2v9.6l4.8 4.7 4.8-4.7 7.1-7.2v9.6z"/><path d="M-47.7-47.6v7.2h9.5l-9.5 9.5v7.2h23.8V-31h-9.5l9.5-9.5v-7.2zM-23.9-35.6l12-12v23.9l11.8-12v-11.9l-23.8 23.9ZM11.8-47.6v4.8a7.1 7.1 0 0 1 7.2 7.2h4.7a12 12 0 0 0-11.9-12zm7.2 12h-7.2v7.1a7.1 7.1 0 0 0 7.2-7.1zm-7.2 7.1a7.1 7.1 0 0 1-7.1-7.1H-.1a12 12 0 0 0 12 11.9zm-7.1-7.1h7.1v-7.2a7.1 7.1 0 0 0-7.1 7.2zm-3.7-5a12 12 0 0 0-.1.3 12 12 0 0 1 0-.3zM47.6-47.6a23.8 23.8 0 0 0-23.9 23.9 23.8 23.8 0 0 0 23.9-23.9ZM-95.3-23.7l11.9 11.9v-12l11.9 12V0h-23.8l11.9-12h-12z"/><path d="M-59.7-23.7a12 12 0 0 0-11.8 11.9A12 12 0 0 0-59.6 0v-23.8z"/><circle cx="-59.6" cy="-11.8" r="7.1"/><path d="M-35.8-23.7h4.8l7.1 7.1V-7L-31 .1h-4.8v-7.2h-7.1l-4.8-4.7 4.8-4.8h7.1zM-23.9-16.6h7.2L-7.2-7h7.1v-16.6h-14.3l7.2 7.1-9.5 9.5L-9.6.1h-14.3ZM9.5 0v-9.5L-.1-19l4.8-4.7 9.5 9.5h9.5V0ZM0 23.9h4.7v9.5h4.8V24h4.7v14.3H4.7v4.7H19V24h4.7v23.8H0ZM35.6-23.7a12 12 0 0 0-11.9 11.9L35.7 0v-12h11.9a12 12 0 0 0-12-11.8z"/><circle cx="59.5" cy="-11.8" r="7.1"/><path d="M52.3-23.7h-4.7v4.7l19 19h4.8v-4.7ZM47.6-47.6l7 7.2v9.5h9.6l7.2 7.2V-31l-4.8-4.7 4.8-4.8-7.2-7.2-4.7 4.8-4.8-4.8zM0 0a23.8 23.8 0 0 0-15.6 5.8 7.1 7.1 0 0 1 3.6-1A7.1 7.1 0 0 1-4.8 12a7.1 7.1 0 0 1-1 3.6A23.8 23.8 0 0 0-.1 0zm-18.2 8.4a23.8 23.8 0 0 0-5.7 15.5 23.8 23.8 0 0 0 15.5-5.7 7.1 7.1 0 0 1-3.6 1A7.1 7.1 0 0 1-19 12a7.1 7.1 0 0 1 1-3.6z"/><circle cx="-12" cy="12" r="4.8"/><path d="m-85.8 0 5.5 5.5a7.1 7.1 0 0 0-3.1-.7 7.1 7.1 0 0 0-7.2 7.2 7.1 7.1 0 0 0 .7 3l-5.4-5.4v14.3H-81l-5.5-5.5a7.1 7.1 0 0 0 3 .7 7.1 7.1 0 0 0 7.2-7.1 7.1 7.1 0 0 0-.7-3.1l5.5 5.5V0Z"/><path d="M-69.1 0v.3a3.6 3.6 0 0 0-2.4 3.3A3.6 3.6 0 0 0-69.1 7v.2h7.1a6 6 0 0 0-.1 1.3 6 6 0 0 0 6 6 6 6 0 0 0 1.3-.1v7.1h.2a3.6 3.6 0 0 0 3.3 2.4 3.6 3.6 0 0 0 3.4-2.4h.2V.1h-7.1zm2.4 14.1a4.9 4.9 0 0 0-4.8 4.9 4.9 4.9 0 0 0 4.9 4.9 4.9 4.9 0 0 0 4.9-5 4.9 4.9 0 0 0-5-4.8z"/><path d="M-47.7 0V24h4.8v-9.5h4.7v9.5h4.8v-19h4.8v19h4.7V0h-14.3v9.5h-4.7V.1ZM11.8 0A12 12 0 0 0-.1 12a12 12 0 0 0 12 11.9 12 12 0 0 0 11.8-12A12 12 0 0 0 11.8.2zm0 4.8a7.1 7.1 0 0 1 6.8 4.8h-6.8A2.4 2.4 0 0 0 9.4 12a2.4 2.4 0 0 0 2.4 2.4h6.8a7.1 7.1 0 0 1-6.8 4.7A7.1 7.1 0 0 1 4.7 12a7.1 7.1 0 0 1 7.1-7.2zM-16.7 23.9h4.8v23.8h-4.8z"/><circle cx="-6" cy="36.1" r="6"/><circle cx="-20.3" cy="36.1" r="3.6"/><path d="M-95.3 23.9h4.7l19 19v4.8h-4.7l-19-19z"/><circle cx="77.5" cy="29.8" r="6" transform="scale(-1 1)"/><circle cx="89.4" cy="41.7" r="6" transform="scale(-1 1)"/><path d="m-71.5 31 7.1-7.1 12 11.9 4.7-4.8v12l-4.8 4.7-9.5-9.5-9.5 9.5zM-35.8 23.9l-11.9 11.9v11.9h23.8v-12l-11.9 12zM-35.8 23.9a11.9 11.9 0 0 1 12 11.8V24ZM23.7 23.9V31l2.7 2.7a9.5 9.5 0 0 0-.3 2 9.5 9.5 0 0 0 9.5 9.6 9.5 9.5 0 0 0 2.2-.2l2.6 2.6h7.2v-7.1l-2.7-2.7a9.5 9.5 0 0 0 .3-2.1 9.5 9.5 0 0 0-9.6-9.5 9.5 9.5 0 0 0-2 .2L30.8 24zm12 7.2a4.7 4.7 0 0 1 4.6 4.7 4.7 4.7 0 0 1-4.7 4.7 4.7 4.7 0 0 1-4.6-4.7 4.7 4.7 0 0 1 4.6-4.7z"/><path d="M23.7 0V24h12a12 12 0 0 0 11.9-12A12 12 0 0 0 35.6.2zm12 4.8h7v4.8H38v4.8h4.8V19h-7.2a7.1 7.1 0 0 1-6.7-4.7h4.4V9.6h-4.4a7.1 7.1 0 0 1 6.7-4.8zM57 23.9a9.5 9.5 0 0 0-9.4 9.5 9.5 9.5 0 0 0 6.7 9.1l5.2 5.2 11.9-12-5.2-5a9.5 9.5 0 0 0-9.1-6.8zm3.4 6.1a4.8 4.8 0 0 1 1.4 3.4 4.8 4.8 0 0 1-4.7 4.8 4.8 4.8 0 0 1-3.4-1.4zM71.4 23.9v4.7h9.5v4.8h-9.5v4.8h9.5v4.7h-9.5v4.8h23.8v-4.8h-9.5V28.6h9.5V24z"/></svg>