<svg xmlns="http://www.w3.org/2000/svg" width="90" height="90" viewBox="0 0 23.8 23.8"><path d="M12-167 0-155l12 12v-7h12v-9H12ZM36-167a12 12 0 0 0-12 12 7 7 0 0 1 7-7 7 7 0 0 1 7 7 7 7 0 0 1-7 7 7 7 0 0 1-7-7 12 12 0 0 0 12 12 12 12 0 0 0 12-12 12 12 0 0 0-12-12zm-12 12zM48-167h11l12 12-12 12H48l11-12zM71-167v12h24v12H83v-24zM95-167h24v5h-19v5h9v5h-9v4h19v5H95ZM119-167l24 24v-24zM155-167l-12 12h7l5-4 4 4-4 5v7l12-12zM174-167l-7 8 16 16 7-7zM167-71a24 24 0 0 0 23 23v-12a12 12 0 0 1-11-11Z"/><circle cx="8.3" cy="-134.5" r="8.3"/><path d="m12-136-5 5 12 12 5-5zM36-143l-12 12v12h12l12-12zM48-143h23v7H55l16 17H48v-5l4-5-4-4zM74-143l7 7-10 10 8 7 9-10 7 8v-22zM107-143a12 12 0 0 0-12 12 12 12 0 0 0 12 12v-5a7 7 0 0 1-7-7 7 7 0 0 1 7-7v-5z"/><circle cx="107.1" cy="-130.9" r="4.8"/><path d="M119-119v-21l7 7 10-10 7 7-10 10 7 7zM143-143v24h7v-10l9 10h8v-2l-8-8 8-7-8-7h-4zm7 5h7l2 2-2 3h-7zM174-143l-7 7 4 5-4 5 7 7 5-5 2-2 9-10-7-7-4 5zM179-48l11 12h-11v12l-12-12ZM8-119a8 8 0 0 0-8 8 8 8 0 0 0 7 9 8 8 0 0 1 0-2 8 8 0 0 1 8-8 8 8 0 0 1 2 0 8 8 0 0 0-9-7zm9 7a8 8 0 0 1 0 1 8 8 0 0 1-9 9 8 8 0 0 1-1 0 8 8 0 0 0 8 7 8 8 0 0 0 9-9 8 8 0 0 0-7-8z"/><path d="m31-119-7 7 5 5 7-7 7 7-7 7-7-7-5 5 7 7h9l8-7v-10l-8-7zM71-119v10H57v14h-9v-24zM83-119l-12 12v12h5a7 7 0 0 1 7-7 7 7 0 0 1 7 7h5v-24h-5zm3 5h4v9a12 12 0 0 0-7-2 12 12 0 0 0-7 2zM102-114a7 7 0 0 0-7 7 7 7 0 0 0 7 7v-14z"/><path d="M100-109h14v4h-14z"/><path d="m119-119-7 7v12l7 5zM136-119v17h-17v7h7v-17h17v-7z"/><circle cx="149.9" cy="-111.8" r="7.1"/><circle cx="149.9" cy="-102.3" r="7.1"/><circle cx="159.5" cy="-102.3" r="7.1"/><rect width="16.7" height="9.5" x="166.6" y="-111.8" ry="0"/><path d="M181-119h9v24h-9zM174-24l-7 7V0h16l-12-12 5-5h5l5 5h4v-5l-7-7h-4zM0-95v24h24v-10A14 14 0 0 1 9-95ZM36-95 24-83v12h12v-3h4v-5h-4v-4h12zM71-95H59l12 12H59v12L48-83v12h23zM71-95l8 7v9l-8 8h22l-7-8v-2l9-9v-5zM107-95 95-83v12h24v-12zm0 7v14l-7-7zM131-95a12 12 0 0 0-12 12 12 12 0 0 0 12 12v-12h12a12 12 0 0 0-12-12zm12 12-12 12h12zM155-95a12 12 0 0 0-12 12h5a7 7 0 0 0 7 7v-14a7 7 0 0 1 7 7v7h-7v5h12v-12a12 12 0 0 0-12-12zm-6 7zm0 1zm-1 0zm0 2a7 7 0 0 0 0 1 7 7 0 0 1 0-1zM171-95a5 5 0 0 0-4 5 5 5 0 0 0 4 4v10h10a5 5 0 0 0 5 5 5 5 0 0 0 4-5 5 5 0 0 0-4-5v-9h-10a5 5 0 0 0-5-5z"/><circle cx="147.6" cy="-19" r="4.8"/><circle cx="147.6" cy="-4.7" r="4.8"/><path d="M143-19h9v14h-9z"/><circle cx="159.5" cy="-11.8" r="7.1"/><path d="M12-71 0-59v11h24v-9h-5v5H5v-5l9-10 5-4zM36-48 24-59v-12h7v9l5 5 4-5 8-7v10zM48-71v7h9l-9 9v7h23v-7h-9l9-9v-7zM71-59l12-12v23l12-11v-12L71-48zM107-71v4a7 7 0 0 1 7 8h5a12 12 0 0 0-12-12zm7 12h-7v7a7 7 0 0 0 7-7zm-7 7a7 7 0 0 1-7-7h-5a12 12 0 0 0 12 11zm-7-7h7v-8a7 7 0 0 0-7 8zm-4-5zM143-71a24 24 0 0 0-24 23 24 24 0 0 0 24-23ZM0-48l12 12v-12l12 12v12H0l12-12H0ZM36-48a12 12 0 0 0-12 12 12 12 0 0 0 12 12v-24z"/><circle cx="35.6" cy="-35.6" r="7.1"/><path d="M59-48h5l7 8v9l-7 7h-5v-7h-7l-4-5 4-4h7zM71-40h8l9 9h7v-17H81l7 8-9 9 7 7H71ZM105-24v-9L95-43l5-5 9 10h10v14zM95 0h5v10h5V0h4v14h-9v5h14V0h5v24H95ZM131-48a12 12 0 0 0-12 12l12 12v-12h12a12 12 0 0 0-12-12z"/><circle cx="154.7" cy="-35.6" r="7.1"/><path d="M148-48h-5v5l19 19h5v-5zM143-71l7 7v9h9l8 7v-7l-5-4 5-5-8-7-4 4-5-4zM95-24a24 24 0 0 0-15 6 7 7 0 0 1 3-1 7 7 0 0 1 7 7 7 7 0 0 1-1 4 24 24 0 0 0 6-16zm-18 9a24 24 0 0 0-6 15 24 24 0 0 0 16-6 7 7 0 0 1-4 1 7 7 0 0 1-7-7 7 7 0 0 1 1-3z"/><circle cx="83.3" cy="-11.8" r="4.8"/><path d="m9-24 6 6a7 7 0 0 0-3-1 7 7 0 0 0-7 7 7 7 0 0 0 0 3l-5-5V0h14L9-5a7 7 0 0 0 3 0 7 7 0 0 0 7-7 7 7 0 0 0-1-3l6 6v-15Z"/><path d="M26-24a4 4 0 0 0-2 4 4 4 0 0 0 2 3h7a6 6 0 0 0 0 2 6 6 0 0 0 6 6 6 6 0 0 0 1 0v7h1a4 4 0 0 0 3 2 4 4 0 0 0 3-2h1v-22h-8Zm3 14a5 5 0 0 0-5 5 5 5 0 0 0 5 5 5 5 0 0 0 5-5 5 5 0 0 0-5-5zM48-24V0h4v-9h5v9h5v-19h5V0h4v-24H57v10h-5v-10zM107-24a12 12 0 0 0-12 12 12 12 0 0 0 12 12 12 12 0 0 0 12-12 12 12 0 0 0-12-12zm0 5a7 7 0 0 1 7 5h-7a2 2 0 0 0-2 2 2 2 0 0 0 2 3h7a7 7 0 0 1-7 4 7 7 0 0 1-7-7 7 7 0 0 1 7-7zM79 0h4v24h-4z"/><circle cx="89.2" cy="12.2" r="6"/><circle cx="74.9" cy="12.2" r="3.6"/><path d="M0 0h5l19 19v5h-5L0 5Z"/><circle cx="-17.8" cy="6" r="6" transform="scale(-1 1)"/><circle cx="-5.9" cy="17.9" r="6" transform="scale(-1 1)"/><path d="m24 7 7-7 12 12 5-5v12l-5 5-10-10-9 10zM59 0 48 12v12h23V12L59 24Z"/><path d="M59 0a12 12 0 0 1 12 12V0ZM119 0v7l3 3a10 10 0 0 0-1 2 10 10 0 0 0 10 10 10 10 0 0 0 2-1l3 3h7v-7l-3-3a10 10 0 0 0 0-2 10 10 0 0 0-9-10 10 10 0 0 0-2 1l-3-3zm12 7a5 5 0 0 1 5 5 5 5 0 0 1-5 5 5 5 0 0 1-5-5 5 5 0 0 1 5-5zM119-24V0h12a12 12 0 0 0 12-12 12 12 0 0 0-12-12zm12 5h7v5h-5v5h5v4h-7a7 7 0 0 1-7-4h5v-5h-5a7 7 0 0 1 7-5zM152 0a10 10 0 0 0-9 10 10 10 0 0 0 7 9l5 5 12-12-6-5a10 10 0 0 0-9-7zm4 6a5 5 0 0 1 1 4 5 5 0 0 1-5 4 5 5 0 0 1-3-1zM167 0v5h9v5h-9v4h9v5h-9v5h23v-5h-9V5h9V0Z"/></svg>