<svg viewBox="0 0 700 700" xmlns="http://www.w3.org/2000/svg" fill-rule="evenodd" clip-rule="evenodd" stroke-linecap="round" stroke-linejoin="round" stroke-miterlimit="1.5"><path d="M236.84 78.875c-1.457.01-2.934.163-4.415.46-58.255 11.677-97.594 32.847-136.967 81.772-9.854 12.245-19.494 25.992-24.514 41.31-14.2 43.33 7.796 83.134 41.31 106.216 12.341 8.499 25.888 17.468 39.821 22.938 14.328 5.624 30.9 6.476 45.968 8.28 30.73 3.679 61.28 4.256 92.176 4.037 45.945-.324 91.622-3.253 137.44-6.43 43.152-2.993 87.442-6.458 129.158-19.169 9.934-3.027 19.601-7.49 28.219-13.48 13.347-9.276 26.4-22.824 30.55-39.712 4.036-16.423-2.945-36.063-10.698-49.66-14.11-24.739-34.183-49.166-54.897-68.036-6.987-6.364-13.97-12.693-21.205-18.761-13.42-11.255-29.69-18.101-45.16-25.67-18.57-9.088-37.034-20.44-57.08-25.676-32.148-8.395-67.93-5.449-100.806-5.345-28.811.092-60.024-1.953-87.998 6.624l-.902.302zm8.15 46.28c-1.032.367-2.1.661-3.203.882-46.402 9.301-77.86 25.963-109.221 64.933-6.351 7.891-13.124 16.409-16.36 26.28-7.104 21.681 6.295 40.604 23.065 52.154 9.42 6.486 19.572 13.654 30.208 17.829 10.624 4.17 23.053 3.986 34.227 5.324 28.729 3.44 57.292 3.905 86.176 3.7 44.957-.317 89.648-3.207 134.48-6.317 39.597-2.746 80.294-5.55 118.572-17.214 5.238-1.596 10.373-3.871 14.917-7.03 4.419-3.07 10.107-6.377 11.48-11.966.475-1.933-.751-3.915-1.508-5.884-1.228-3.2-2.829-6.213-4.312-8.812-11.707-20.528-28.408-40.763-45.597-56.42-6.504-5.925-12.998-11.828-19.735-17.478-10.446-8.761-23.446-13.49-35.488-19.383-15.76-7.712-31.166-17.93-48.18-22.372-28.248-7.377-59.733-3.891-88.621-3.8-24.265.078-50.626-2.69-74.187 4.531a23.541 23.541 0 01-6.713 1.044z"/><path d="M386.29 162.35c9.671 3.936 19.104 8.457 28.483 13.093 11.783 5.826 26.08.987 31.904-10.796 5.825-11.782.987-26.078-10.796-31.903-10.412-5.148-20.896-10.141-31.632-14.512-12.175-4.955-26.082.906-31.037 13.08-4.957 12.174.904 26.081 13.078 31.037zM341.302 213.144c5.057 3.012 10.197 5.982 14.97 9.475 10.606 7.763 25.52 5.454 33.283-5.153 7.763-10.607 5.454-25.521-5.153-33.285-5.984-4.378-12.38-8.179-18.719-11.956-11.291-6.729-25.921-3.023-32.649 8.27-6.729 11.29-3.023 25.92 8.268 32.65zM245.896 167.3c1.94 1.526 3.908 3.018 5.83 4.568 10.23 8.252 25.236 6.646 33.489-3.586 8.252-10.23 6.646-25.237-3.586-33.489-2.066-1.667-4.182-3.276-6.266-4.917-10.328-8.131-25.314-6.349-33.446 3.98-8.131 10.327-6.347 25.313 3.98 33.444zM206.657 239.655a542.446 542.446 0 008.308 6.123c10.652 7.702 25.552 5.306 33.254-5.346 7.701-10.651 5.306-25.551-5.346-33.254a514.465 514.465 0 01-7.588-5.59c-10.505-7.902-25.447-5.787-33.348 4.719-7.9 10.505-5.785 25.447 4.72 33.348zM630.003 318.649c-1.61 1.301-4.004 3.085-6.135 4.166-25.883 13.136-55.042 17.913-83.602 18.78-47.439 1.439-95.396 1.692-142.827-.013-40.004-1.437-79.606-7.74-119.461-10.591-33.256-2.379-66.69-.039-99.92-3.18-23.51-2.22-47.022-3.729-70.638-4.018-6.004-.074-13.362.353-20.582-.094l-1.57-.09c7.162-8.909 16.685-15.243 26.106-21.42 10.991-7.208 14.064-21.983 6.857-32.975-7.208-10.993-21.983-14.064-32.976-6.857-16.674 10.933-32.665 23.178-43.763 40.663-12.027 18.949-10.38 46.156 10.323 59.164 14.947 9.39 38.55 9.035 55.02 9.236 22.315.275 44.528 1.713 66.742 3.813 33.59 3.173 67.386.863 101.001 3.268 40.417 2.891 80.583 9.224 121.15 10.682 48.479 1.742 97.496 1.492 145.983.022 35.476-1.078 71.56-7.598 103.71-23.913 20.973-10.642 31.04-25.52 33.173-39.787 2.22-14.851-3.213-32.237-22.686-48.03-7.288-5.912-15.767-10.135-23.791-14.791-10.45-6.062-20.821-11.739-32.034-16.115-12.245-4.778-26.065 1.284-30.844 13.529-4.78 12.245 1.283 26.066 13.527 30.844 8.928 3.484 17.129 8.115 25.448 12.942 5.905 3.426 12.326 6.236 17.691 10.585 1.445 1.172 2.988 2.864 4.098 4.18z"/><path d="M556.952 372.238c-1.063 10.3-1.998 20.422-3.965 29.685-1.793 8.446-3.976 16.232-10.142 21.302-3.918 3.222-9.32 5.057-16.417 6.003-10.294 1.372-20.742 1.481-31.104 1.665-16.248.288-32.502.256-48.752.274-64.992.076-129.95-1.16-194.937-1.192-26.854-.013-53.527-2.667-80.024-7.254-7.286-1.261-16.853-.937-22.652-6.245-8.485-7.767-11.725-21.629-12.969-32.996-.817-7.464-1.281-14.46.861-21.68 3.738-12.601-3.458-25.867-16.06-29.605-12.6-3.738-25.866 3.456-29.605 16.058-3.996 13.473-4.07 26.481-2.545 40.41 2.42 22.11 11.654 47.841 28.158 62.948 12.352 11.307 31.167 15.357 46.688 18.044 29.178 5.051 58.553 7.938 88.125 7.951 65.014.032 129.997 1.268 195.016 1.193 16.512-.019 33.03.011 49.541-.282 12.18-.217 24.45-.462 36.55-2.074 58.066-7.738 66.572-50.486 71.613-99.314 1.35-13.075-8.17-24.786-21.245-26.135-13.075-1.35-24.786 8.17-26.135 21.244z"/><path d="M489.55 513.204c13.898-.722 26.859 6.294 39.45 10.578 14.872 5.06 29.358 7.848 43.314 5.173 4.927-.945 9.91-2.811 14.373-5.158 13.14-6.912 18.024-15.545 20.68-24.488.853-2.868 1.387-5.826 1.795-8.857l.429-2.851 7.71-4.411c7.416-4.244 14.048-9.539 18.782-17.053 8.379-13.302 4.4-29.041-3.169-40.315-12.08-17.997-31.606-23.592-51.001-26.532-12.996-1.971-25.146 6.981-27.117 19.977-1.97 12.995 6.981 25.146 19.978 27.117 2.8.423 5.653.834 8.447 1.43-5.674 3.677-10.507 8.147-14.113 13.838-2.773 4.378-4.476 8.782-5.567 13.195-.505 2.052-1.008 5.135-1.357 7.5-8.247 1.082-16.58-3.145-25.51-6.38-16.87-6.111-34.599-11.785-53.004-10.088-9.736.898-16.643 4.366-22.657 9.054-3.292 2.564-5.664 6.306-10.024 8.848-5.973 3.483-13.425 3.965-20.102 4.902-15.944 2.238-31.047-.96-46.23-5.995-13.145-4.36-28.162-11.741-42.225-12.04-15.31-.324-29.02 3.48-42.78 8.306-13.625 4.778-27.284 11.265-45.258 9.559-10.796-1.025-21.66-3.302-31.19-8.916-18.092-10.658-35.47-24.994-57.075-26.413-23.792-1.563-41.96 5.586-64.767 9.681-3.247.584-6.665 1.272-10.11 1.629-1.9.196-3.855.689-5.597-.088-3.347-1.49-6.134-4.154-8.956-6.51-1.369-1.142-3.492-3.253-5.269-5.073 1.267-.876 2.642-1.759 3.79-2.333 7.965-3.985 17.333-6.528 22.65-6.738 13.134-.522 23.375-11.607 22.854-24.741-.521-13.134-11.606-23.375-24.74-22.855-14.192.563-43.695 9.144-59.413 23.237-11.109 9.96-16.597 22.32-15.493 35.51 1.345 16.045 14.187 30.454 25.102 39.563 6.162 5.143 12.784 10.194 20.093 13.45 13.63 6.072 29.504 4.346 43.509 1.831 18.8-3.377 33.612-10.322 53.226-9.033 6.56.43 11.935 4.16 17.383 7.718 6.24 4.077 12.344 8.498 18.638 12.205 15.604 9.191 33.187 13.617 50.866 15.295 22.2 2.107 40.18-3.058 57.221-9.08 11.301-3.994 21.888-8.845 34.308-8.582 9.555.202 19.306 6.665 28.237 9.628 22.249 7.378 44.483 11.234 67.847 7.955 12.595-1.768 26.205-4.354 37.47-10.922 4.387-2.558 7.944-5.512 11.17-8.553l3.401-3.174z"/><path d="M554.1 519.904c3.3 9.826 4.738 18.18 1.77 25.234-2.922 6.944-9.867 11.675-19.706 16.026-20.072 8.877-43.705 10.08-65.125 13.196-26.47 3.849-53.382 3.636-80.006 5.772-21.417 1.719-42.938.812-64.388.694-18.36-.102-36.621-1.466-54.95-2.295-12.482-.565-25.052-.011-37.506-1.106-27.119-2.383-54.361-6.133-81.218-10.707-10.706-1.824-25.203-3.818-31.882-13.613-5.115-7.5-5.79-17.837-6.364-26.826-.403-6.326-.826-12.974 1.517-18.928 4.811-12.232-1.213-26.069-13.445-30.88s-26.07 1.212-30.88 13.444c-4.896 12.445-5.57 26.182-4.727 39.4 1.098 17.175 4.774 36.296 14.546 50.625 13.808 20.25 41.104 29.964 63.238 33.734 28.121 4.79 56.649 8.705 85.046 11.2 13.124 1.153 26.368.644 39.523 1.24 18.96.858 37.85 2.238 56.84 2.342 22.807.125 45.688.982 68.46-.844 27.64-2.218 55.57-2.12 83.05-6.116 25.572-3.718 53.573-6.173 77.535-16.77 23.426-10.359 37.391-24.584 44.347-41.117 6.908-16.42 7.16-36.005-.524-58.875-4.185-12.46-17.7-19.177-30.16-14.99-12.46 4.185-19.177 17.7-14.991 30.16zM369.398 296.777h263.57v62.517h-263.57z"/><path d="M57.623 428.733h76.517v51.661H57.623zM216.222 454.564h102.273v44.07H216.222zM369.397 454.564h95.754v44.07h-95.754zM522.364 454.564h51.056v44.07h-51.056z"/><path stroke="#000" stroke-width="50" d="M62.63 285.723h59.44v47.174H62.63z" transform="matrix(.93222 0 0 .97262 20.343 18.88)"/></svg>