<svg xmlns="http://www.w3.org/2000/svg" viewBox="-366 367 348 348"><path class="st3" d="M-360.9 372.8H-24v337.7h-336.9V372.8z" stroke-miterlimit="10" stroke-width="2" stroke="#000" fill="none"/><path class="st3" d="M-83.3 407.6c0-8.4 7-15.2 15.6-15.2 4.1 0 8.1 1.6 11 4.4 2.9 2.8 4.6 6.7 4.6 10.7 0 8.4-7 15.2-15.6 15.2s-15.6-6.8-15.6-15.1z" stroke-miterlimit="10" stroke-width="2" stroke="#000" fill="#fff"/><path d="M-346.593 388.593h232v52.83h-232z"/><text class="st4 st5 st6" x="-326.325" y="427.179" font-size="40" font-family="Arial" fill="#fff">[DISPLAY]</text><path d="M-346.593 451.424h53v53h-53zm0 64.5h53v53h-53zm0 65h53v53h-53zm66.1-129.5h53v53h-53zm0 64.5h53v53h-53zm0 65h53v53h-53zm67-129.5h53v53h-53zm0 64.5h53v53h-53zm0 65h53v53h-53zm67.6-129.5h53v53h-53zm0 64.5h53v53h-53zm0 65h53v53h-53z" fill="#fff" stroke="#000" stroke-width="1.25"/><text class="st5 st6" x="-329.722" y="492.299" font-size="40" font-family="Arial">1</text><text class="st5 st6" x="-264.647" y="492.299" font-size="40" font-family="Arial">2</text><text class="st5 st6" x="-198.048" y="492.045" font-size="40" font-family="Arial">3</text><text class="st5 st6" x="-130.389" y="492.055" font-size="40" font-family="Arial">0</text><text class="st5 st6" x="-330.503" y="556.141" font-size="40" font-family="Arial">4</text><text class="st5 st6" x="-265.145" y="556.301" font-size="40" font-family="Arial">5</text><text class="st5 st6" x="-197.95" y="556.555" font-size="40" font-family="Arial">6</text><text class="st5 st6" x="-331.255" y="621.555" font-size="40" font-family="Arial">7</text><text class="st5 st6" x="-265.048" y="621.555" font-size="40" font-family="Arial">8</text><text class="st5 st6" x="-198.067" y="621.555" font-size="40" font-family="Arial">9</text><text class="st5 st6" x="-131.073" y="621.555" font-size="40" font-family="Arial">=</text><text class="st5 st6" x="-126.063" y="552.785" font-size="40" font-family="Arial">-</text><path d="M-346.593 643.924h232v52.83h-232z"/><text class="st4 st5 st6" x="-326.325" y="682.51" font-size="40" font-family="Arial" fill="#fff">[DISPLAY]</text><path fill="#fff" stroke="#000" d="M-74.893 451.076h35.39v240.356h-35.39z"/><path fill="#fff" stroke="#000" d="M-66.661 464.322h19.169v61.932h-19.169zM-66.661 540.254h19.169v61.932h-19.169zM-66.661 616.186h19.169v61.932h-19.169z"/></svg>