<svg xmlns="http://www.w3.org/2000/svg" viewBox="0 0 348 348" fill="none"><path d="M5.078 5.775l.002 337.67h336.912V5.775zm109.996 28.282c.277.01.539.08.776.242.13.089.248.193.369.293l.33-.063c-.185-.14-.191-.151.369-.07-.123.022-.246.047-.37.07.241.184.789.609.936 1.455.567.816.999 1.74 1.366 2.66.2-.007.38-.019.578-.027l.72-.207c2.213-.757 4.47-1.364 6.815-1.42 1.008-.024 2.442-.576 3.014.254.472.687.747 1.518.863 2.381 1.464.078 1.342.06 3.787.2 3.306.188 8.612.538 12.143 1.091.952.15 2.66.606 3.775.897 1.606.827 2.676 1.014 2.078 4.005-.04.205-.126.392-.232.569 1.22-.287 2.447-.535 3.695-.557 3.83-.066 7.415.668 5.033 5.79-.479 1.028-2.026 1.023-3.039 1.534-6.202.453-7.646.582-10.834.65-.571.757-1.665 1.015-2.68 1.132-.225.476-.503.908-.916 1.226-.434.335-1.053.608-1.785.832 1.518.114 3.062.218 4.658.307 1.973-.278 3.949-.537 5.932-.738 1.428-.023 9.773-.597 10.96 1.175.713 1.067.381 2.79-.435 3.971.702 1.042.471 1.353-.228 1.467.07.75-.465 1.473-1.772 2.13-1 .504-2.147.641-3.22.962-2.267.298-4.521.703-6.8.894-1.804.151-3.545.263-5.26.352 1.437-.01 2.856-.02 4.616-.06 1.618-.039 3.234-.146 4.848-.257.71-.048 1.418-.136 2.125-.218.12-.015.358-.194.357-.073a33.002 33.002 0 01-.146 2.723c.382.73.732 1.472.996 2.25 2.55-.03 5.1-.073 7.649-.147 2.208-.063 4.417-.165 6.62-.326 1.107-.08 2.468-1.122 3.305-.394.047.04.08.09.123.133.152-.043.309-.076.46-.122a7.11 7.11 0 00.011.71c.772 1.222.87 2.924 1.424 4.302-.63.173-1.258.318-1.887.45-.282.2-.673.236-1.101.214-3.172.557-6.358.686-9.66.824-2.48.105-4.963.176-7.444.233-.533.302-1.23.493-2.1.488-.263.562-.796 1.058-1.585 1.387-.006.033-.017.066-.024.1l.623.033c.397-.062.794-.119 1.188-.194.317-.06.618-.096.904-.111 1.04-.056 1.861.171 2.451.555.854.045 1.152.064 2.19.119.966-.28 3.628-1.073 4.076-.578.14.154.252.298.38.449.033-.002.149-.004.178-.006l-.17.014c2.276 2.657 2.817 4.646-.42 5.248-1.17.217-2.376.1-3.57.105-1.22.236-2.449.428-3.674.639.527 1.014.168 2.203-1.119 2.877.016.072.038.127.051.207.39.453.554.98.525 1.502 3.026-.116 6.052-.263 9.075-.488 1.763-.132 3.514-.408 5.267-.637.708-.093 1.402-.352 2.115-.33.692.02 1.35.305 2.024.457.19.412.424.811.65 1.213 2.248-.11 4.495-.228 6.742-.348 5.154-.275 5.153 4.926 0 5.215v-.002c-3.03.17-6.061.335-9.093.46-.078.043-.231.137-.266.151-1.776.74-3.702 1.075-5.594 1.424-.532.098-1.386.205-2.177.31-.15.806-.212 1.65-.325 2.471l.38.031c1.078.091 2.527-.542 3.236.276.059.068.101.145.154.217.263-.03.53-.043.79-.078-.05.185-.073.387-.108.582l8.2.882c6.462.64 18.814 2.117 27.887 2.528.961-.333 1.954-.679 2.747-.957.88-.139 1.755-.51 2.642-.416 3.117.332 5.132 2.274 2.03 6.172-.803 1.007-2.54.521-3.829.517a89.335 89.335 0 01-2.795-.072c-1.481.508-2.972.973-4.367 1.234-6.033 1.128-11.225 1.135-17.416 1.113-7.564-.026-15.065-.37-22.605-.699l-.02.008c-1.545.459-3.15.693-4.724 1.04-.966.087-1.932.16-2.899.224.97.505 1.867 1.192 2.828 1.719-.076.159-.138.327-.203.494.169.016.337.03.506.047.11-.039.223-.07.332-.114.646-.252 1.36-1.354 1.879-.894.416.369.724.823.982 1.314.45.042.899.088 1.348.13.662-.023 1.324-.04 1.986-.065 1.603.153 2.698.07 3.3.537 3.685.313 7.373.606 11.064.865 7.037.041 14.074.094 21.111.164 5.705-.117 8.234-.044 13.594-.552.297-.029 1.693-.248 3.1-.426-.156-.687.38-.925 2.337-.223a3.96 3.96 0 01.604.016c1.174.169 2.928-.102 3.424.976.688 1.497-.484 3.26-.725 4.89-6.42 1.54-5.3 1.525-14.72 1.507a375.49 375.49 0 01-21.18-.623c-2.488-.146-4.972-.325-7.457-.498-1.377-.03-1.46-.05-14.432-.11h-.217c-2.788.625-5.615 1.014-8.455 1.31a2.66 2.66 0 01-.744.94c3.238-.085 6.527-.207 15.299-.537 2.642-.1 5.281-.238 7.924-.326.231-.008 4.877-.167 5.904.035.63.124 1.208.44 1.812.66.4 1.202 1.41 2.358 1.198 3.606-.4 2.348-3.47 2.283-4.954 2.447-1.466.162-2.938.281-4.408.416-9.539.877-5.143.54-15.775 1.059-3.753.035-7.505.107-11.258.107-1 0-4.241-.036-6.521-.056-1.705 1.195-3.745 1.744-5.819 2.082a56.75 56.75 0 01-2.73.375c-.083.043-.15.096-.237.136-.231.106-.76.114-1.35.096a9.02 9.02 0 01-.093.853c.945.909 1.918 1.797 2.541 2.934.204.371-.583.624-.937.856-1.862 1.215-4.139 1.946-6.235 2.511-.843.228-5.036 1.136-8.765 1.936-1.41.456-2.812.937-4.229 1.37-3.09.947-6.21 1.789-9.312 2.688-4.072 1.18-3.449 1.16-7.332 1.727-.658.096-1.826.853-1.983.207a9.522 9.522 0 01-.252-2.77c-1.128.047-2.257.085-3.385.153-1.154.07-7.141.721-8.22.068-1.378-.834-1.825-2.653-2.737-3.98.207-.31.382-.648.565-.979a123.18 123.18 0 01-5.986-.502c-1.696-.185-3.37-.525-5.057-.775-1.312-.195-2.665-.194-3.94-.56-1.096-.316-2.063-.976-3.095-1.464-.523-.933-1.418-1.76-1.772-2.742-.517-.072-1.608-.208-1.902-.254-1.14-.178-7.869-1.09-8.852-2.703-.25-.412-.365-.865-.414-1.34-2.564.014-5.12.005-7.656-.025-5.216-.062-10.426-.354-15.639-.531.103-.27.182-.512.26-.752l-.191-.004c-.421.284-1.047.243-1.81-.024-1.42-.022-1.988-.022-3.993-.056-1.632-.028-3.458.574-5.021.312-1.926.667-3.435.824-3.788-.42-.266-.94-.06-2.025.426-2.992-.212-.755-.238-1.528.012-2.201.346-.93 1.33-.85 2.613-.3 1.773-.584 3.933.353 5.865.386 2.188.037 2.797.038 4.286.06-.33-.889-.576-1.785-.506-2.714.05-.654 1.31.043 1.965.074 1.972.092 3.943.198 5.916.29 8.622.409 17.254.824 25.886.722-1.43-.397-2.795-1.018-4.197-1.514.254-.962.286-2.032.523-3.002-1.876 0-3.752 0-5.628.006-.81.003-1.619.008-2.428.01-.743.002-1.895.664-2.229 0l-.007-.02-.325.004c.027-.266.024-.541.03-.814-.675.132-1.316.192-1.745-.191-.674.25-1.147.29-1.17-.147-.033-.66-.025-1.358.06-2.045-2 .012-3.998.023-5.997.037-1.327.01-2.653.022-3.98.036-.248.003-.74.26-.745.013-.024-1.152-.072-2.357.09-3.506l-1.312-.199c-.974-.147-2.658.493-2.918-.457-.856-3.128-.364-4.455.726-4.967.031-.064.05-.117.082-.183.23-.467.765-.34 1.358-.106 1.194-.026 2.611.263 3.832.31 2.364.094 4.729.152 7.094.227 3.054.214 6.109.458 9.166.641l.279.016c-.222-1.173-.07-2.537-.295-3.707l.443-.03c.14-.405.315-.834.57-1.322-1.775-.362-3.517-.888-5.279-1.318-1.028-.228-2.056-.456-3.084-.682-1.039.099-2.209.362-2.658-.434-.014-.025-.023-.046-.037-.072-.925-.125-1.691-.29-1.697-.935-.186-.016-.373-.018-.559-.04-3.511-.412-5.386-.443-2.326-5.783-.489-2.008.547-3.575 2.355-4.763.755-.496 1.725-.56 2.618-.694.313-.047.624-.083.937-.119.136-.427.503-.668 1.051-.879-.493-.078-.985-.165-1.479-.236-1.432-.208-3.243.47-4.32-.48-.665-.007-1.339.002-1.996-.017.338-.91.436-2.008.67-3-.143-.754-.27-1.52-.508-2.213.562.02 1.147.027 1.729.035.018-.013.03-.03.048-.043.886-.601 2.005-.292 3.13.059 1.686-.01 3.36-.034 4.91-.037l3.007-.008c.132-.265.278-.54.465-.863-1.105-2.414-.523-2.268 1.408-2.276.338-.002.675.005 1.012.006 0-.18.026-.345.043-.515-.72-.083-1.438-.176-2.158-.248-1.979-.199-3.965-.29-5.95-.422-1.063-.072-2.346.456-3.193-.192-.155-.118-.278-.228-.424-.343-.023-.002-.045.004-.068.002-.112-.01-.073-.02.03-.034-3.037-2.425-3.88-4.178-.821-5.119.909-.28 1.88-.279 2.82-.418 2.102-.09 4.202-.267 6.305-.271 1.95-.004 5.853.115 9.926.252a3.42 3.42 0 01.578-.266c.096-.032-.217.326-.131.274.296-.18.527-.45.791-.674l.559-.332c.426-.102.85-.204 1.277-.303.023-.034-.01.022.006-.002.146-.034.29-.074.437-.104.039-.007-.055.057-.088.079-.177.119-.367.22-.542.34-.051.08.024-.037-.055.09.518-.24 1.05-.454 1.576-.678.098-.355.038-.211.617-1.125.005.068.005.203.01.304l.06-.015c.122-.451.176-.922.33-1.362-1.824-.3-3.648-.598-5.472-.902-.644.001-1.13.02-1.537.012-.419.082-.983.333-1.018-.014l-.023-.242c-.318-.294-.377-.953-.303-2.182-1.968-.102-3.936-.212-5.9-.32-.633-.308-1.915-.22-1.897-.924.046-1.76.873-3.556 2.047-4.867.612-.684 1.8-.37 2.715-.451.72-.064 1.79-.091 2.955-.104.202-.207.424-.42.666-.639 1.132-1.025 3.029-.395 4.553-.496 2.455-.162 5.468-.233 8.467-.275.155-.11.332-.195.488-.307 1.629-1.172 3.328-2.259 4.732-3.7-.502-.092-1.003-.184-1.506-.27-.374-.037-.729-.082-.986-.174-.777-.131-1.554-.26-2.33-.397-.261-.046-.905.083-.78-.15.415-.77.757-1.408 1.067-1.965.06-.583.144-1.09.238-1.553-.1-.498-.193-.974-.318-1.601-.046-.231.462.093.693.135l.038.005c.094-.234.204-.422.316-.607-1.497.115-2.648.289-3.467.018-.075.014-.132 0-.164-.053-.897-.387-1.373-1.428-1.496-3.93-5.166.01-10.333.072-15.496.016-5.16-.057-5.16-5.269 0-5.213 5.136.055 10.275-.011 15.414-.025 5.138-.015 10.275.024 15.408.287 1.734.088 3.293.199 4.899.302.468-.067.938-.132 1.406-.2 5.055-.402 13.018-1.072 18.166-1.343 2.007-.105 4.019-.09 6.027-.183.861-.04 1.831-.53 2.662-.498zM28.54 130.49c.644.01 1.249.016 1.81.024.114-.077.21-.181.292-.309.16-.539.254-1 .287-1.387a6.957 6.957 0 00-.037-.549c-.3-.067-.603-.124-.903-.193-.02-.07-.05-.138-.072-.207-.682.067-1.758.47-1.68-.098.028-.2.076-.395.131-.587-1.01.239-2.235.734-3.521 1.3 1.356.87 2.65 1.643 3.693 2.006zm191.246-14.406c-.607.018-1.474.113-2.338.223.091.401.42.956.805 1.543.886-.204 1.914-.493 3.56-.938a25.82 25.82 0 00-2.027-.828zM145.166 53.85l-.164.002c-.029.077-.06.153-.088.23.105-.066.207-.14.252-.232zM64.48 68.23a4.581 4.581 0 00-.058.04c.005.08.014.133.031.076.012-.038.017-.077.027-.116zm-2.28 1.473c-.035.026-.075.045-.106.074-.144.136-.434.664-.31.508.151-.192.274-.377.415-.582zM44.02 90.41l.074.014v-.002l-.074-.012zm-1.166 2.881c-.436.082-.87.192-1.233.436-.256.172.664.112.926-.051.1-.062.204-.213.307-.385zm124.75 13.127c-.292.014-.582.036-.874.047.044.092.077.19.118.283 2.074.089 4.219.186 6.267.262-1.464-.159-3.835-.41-5.511-.592zm17.173 22.334c-.052-.002-.338.004-.433.006.062.098.086.13.152.234.363-.18.492-.233.281-.24zM88.801 144.63c-3.121 1.11-.043.512.049.496 0-.16-.026-.33-.05-.496zm67.392 26.94c1.303 0 2.675 1.288 2.817 3.865.344 6.259 2.718 11.4 6.178 16.572 1.451 2.17 2.998 4.294 4.76 6.222.982 1.076 10.985 9.877 11.773 10.575 8.616 7.183 16.938 14.7 24.26 23.228 4.586 5.343 9.426 11.944 13.173 17.973 1.414 2.274 2.608 4.677 3.912 7.015 2.066 4.04 3.682 8.297 4.993 12.637.227.752.97 3.173.818 4.207-.102.7-.47 1.334-.705 2-1.305.16-2.601.502-3.916.477-.783-.015-2.496-2.502-3.012-3.106-.54-.632-1.121-1.226-1.681-1.84-1.01-1.204-2.017-2.408-3.026-3.613-.95-1.067-7.19-8.102-8.027-8.953-1.34-1.363-2.802-2.599-4.205-3.896-1.614-1.493-3.738-3.783-5.838-5.043-2.6-.21-5.07-1.431-7.41-2.475a104.313 104.313 0 01-5.526-2.246c-4.732-2.06-2.648-6.843 2.082-4.78 1.84.803 3.698 1.567 5.578 2.27 2.214 1.001 1.5.731 3.655 1.512.41.149.844.242 1.236.433.06.03-.014.189.053.196.606.066 1.22-.054 1.828.008.186.018.346.15.517.224.512.305 1.055.56 1.536.912 1.771 1.299 4.428 3.86 5.837 5.168 1.513 1.404 3.081 2.752 4.528 4.223.885.9 7.196 8.021 8.154 9.1l.332.396a61.78 61.78 0 00-2.357-5.277c-1.227-2.213-2.348-4.486-3.68-6.637-3.59-5.794-8.272-12.2-12.666-17.332-7.202-8.411-15.411-15.8-23.898-22.877-1.87-1.655-10.796-9.467-12.47-11.324-1.904-2.113-3.59-4.426-5.146-6.809-3.973-6.09-6.466-11.856-6.855-19.14-.138-2.577 1.096-3.866 2.398-3.866zm41.721 78c-.01.042.087.087.227.13-.076-.041-.152-.092-.227-.13z"/><path d="M282.734 40.554c0-8.376 6.966-15.165 15.56-15.165 4.126 0 8.084 1.597 11.001 4.441 2.918 2.844 4.558 6.702 4.558 10.724 0 8.376-6.966 15.165-15.56 15.165-8.593 0-15.559-6.79-15.559-15.165z" stroke-width="2" stroke="#000"/><path d="M27.85 65.437l45.138-.004-19.811 60.476zM91.636 65.493l45.137-.004-19.81 60.475z" stroke="#000"/><path d="M91.636 65.493l45.137-.004-19.81 60.475zM157.76 66.268l45.137-.005-19.811 60.476z" stroke="#000"/><path d="M157.76 66.268l45.137-.005-19.811 60.476zM222.493 66.014l45.137-.004-19.811 60.476z" stroke="#000"/><path d="M222.493 66.014l45.137-.004-19.811 60.476zM27.85 65.437a22.8 22.8 0 015.713-14.1 22.8 22.8 0 0113.358-7.28c6.265-.981 12.917.828 17.821 4.85 4.904 4.021 7.982 10.19 8.246 16.526M91.636 65.493c-.116-5.805 2.113-11.623 6.077-15.865 3.964-4.242 9.619-6.858 15.418-7.134 6.156-.293 12.394 2.069 16.812 6.366 4.418 4.297 6.952 10.467 6.83 16.629M157.76 66.268c-.356-5.55 1.425-11.208 4.893-15.554 3.469-4.346 8.592-7.337 14.082-8.22 6.676-1.075 13.795 1.042 18.8 5.59 5.006 4.547 7.793 11.43 7.362 18.18" stroke="#000"/><path d="M222.493 66.014a22.786 22.786 0 015.421-13.94 22.786 22.786 0 0112.946-7.495c6.376-1.207 13.247.503 18.314 4.559 5.066 4.056 8.239 10.386 8.456 16.872" stroke="#000"/><rect width="217.399" height="103.226" x="63.604" y="195.768" ry="13.555" stroke="#000"/><rect width="204.887" height="90.713" x="69.338" y="202.546" ry="13.555" stroke="#000"/><path d="M140.24 203.588l-.52 89.671M212.707 203.067l1.043 89.67M104.79 172.308L93.84 184.82h21.897z" stroke="#000"/><path d="M104.79 172.308L93.84 184.82h21.897zM172.564 172.438l-10.948 12.512h21.896z" stroke="#000"/><path d="M172.564 172.438l-10.948 12.512h21.896zM240.86 173.48l-10.948 12.512h21.896z" stroke="#000"/><path d="M240.86 173.48l-10.948 12.512h21.896z" stroke="#000"/><path d="M240.86 173.48l-10.948 12.512h21.896zM100.619 326.233l10.948-12.512H89.671z" stroke="#000"/><path d="M100.619 326.233l10.948-12.512H89.671zM175.692 328.06l10.948-12.513h-21.896z" stroke="#000"/><path d="M175.692 328.06l10.948-12.513h-21.896zM242.945 328.06l10.948-12.513h-21.896z" stroke="#000"/><path d="M242.945 328.06l10.948-12.513h-21.896z" stroke="#000"/></svg>