<svg xmlns="http://www.w3.org/2000/svg" fill="none" viewBox="0 0 348 348"><path stroke="#000" stroke-linejoin="round" stroke-width="2" d="M225 68h110v90H225zm-40 115h30v50h-30zm0-55h30v50h-30zm0-55h30v50h-30zm0-55h30v50h-30zM20 18h155v215H20zm205 160h110v90H225zm55 100h55v55h-55zm-65 0h55v55h-55zm-65 0h55v55h-55zm-65 0h55v55H85zm-65 0h55v55H20zM282.7 40.6c0-8.4 7-15.2 15.6-15.2 4.1 0 8 1.6 11 4.4a15 15 0 014.6 10.8c0 8.3-7 15.1-15.6 15.1s-15.6-6.8-15.6-15.2zM5.1 5.8H342v337.6H5z"/><path fill="#000" d="M171.4 247.6l15.6 5.7v2l-15.6 5.7v-2.3l12.6-4.4-12.6-4.5zm-107.8 0v2.2L51 254.3l12.6 4.4v2.3L48 255.3v-2zm83.3-1.3l-3.4 9h6.7zm-33.2-.4v6.8h3c1.2 0 2-.2 2.7-.8.6-.6 1-1.5 1-2.6 0-1-.4-2-1-2.5-.6-.6-1.5-.9-2.6-.9zm-42.5 0v14.2h3c2.5 0 4.3-.6 5.5-1.7 1.1-1.2 1.7-3 1.7-5.4 0-2.5-.6-4.3-1.7-5.4-1.2-1.1-3-1.7-5.5-1.7zm82.2-2h2.7l5 7.5 5-7.5h2.7l-6.5 9.5v8.7H160v-8.7zm-8 0h2.9l7 18.2h-2.6l-1.7-4.7h-8.2l-1.7 4.7h-2.6zm-19.1 0h2.4V260h9v2.1h-11.4zm-15.1 0h5.6c2 0 3.5.4 4.6 1.4 1 .9 1.6 2.2 1.6 4 0 1.8-.6 3.2-1.6 4.1-1 1-2.6 1.4-4.6 1.4h-3.1v7.3h-2.5zm-23.3 0h2.5V262H88zm-19.2 0h5c3.6 0 6.2.7 7.9 2.2 1.6 1.4 2.4 3.7 2.4 6.9 0 3.1-.8 5.4-2.5 6.9-1.6 1.5-4.2 2.2-7.7 2.2h-5zm32.2-.4a15.2 15.2 0 015.3 1v2.4c-.9-.5-1.8-.8-2.6-1-.8-.2-1.6-.4-2.4-.4-1.4 0-2.4.3-3.1.8-.7.5-1.1 1.3-1.1 2.3 0 .8.2 1.4.7 1.8.5.4 1.4.7 2.8 1l1.5.3c1.8.3 3.2 1 4 1.8.9 1 1.3 2 1.3 3.6 0 1.7-.5 3-1.7 4-1.2.9-3 1.4-5.2 1.4a20.6 20.6 0 01-5.8-1.2v-2.5c1 .5 2 1 3 1.2.9.3 1.8.5 2.8.5 1.4 0 2.5-.3 3.2-.9.8-.5 1.2-1.3 1.2-2.3 0-1-.3-1.6-.9-2.1-.5-.6-1.4-1-2.7-1.2l-1.5-.3a8 8 0 01-4-1.7 4.3 4.3 0 01-1.2-3.3c0-1.6.6-2.8 1.7-3.8a7.5 7.5 0 014.7-1.4zM20 237.8V268l195 .2V238zM97.5 53.14c-9.22 0-17.037 2.907-23.451 8.72-6.348 5.745-9.522 12.761-9.522 21.046 0 5.746 1.77 11.759 5.31 18.04-4.008-.936-7.983-1.403-11.925-1.403-9.087 0-16.838 3.039-23.252 9.12-6.414 6.012-9.62 13.63-9.62 22.85 0 9.288 3.106 17.004 9.32 23.151 6.213 6.08 13.73 9.121 22.55 9.121 10.958 0 21.348-4.644 31.17-13.931-1.804 19.51-6.649 35.511-14.533 48.005h48.006c-7.951-12.494-12.794-28.496-14.532-48.005 9.755 9.287 20.144 13.931 31.168 13.931 8.82 0 16.305-3.04 22.452-9.12 6.213-6.148 9.32-13.864 9.32-23.151 0-9.22-3.207-16.839-9.621-22.852-6.348-6.08-14.066-9.119-23.153-9.119-4.008 0-7.983.467-11.925 1.402 3.54-6.28 5.31-12.293 5.31-18.039 0-8.285-3.207-15.3-9.62-21.047-6.348-5.812-14.165-8.718-23.452-8.718zM263.2 97.5V128h3.6V97.5zm44.2 0c-2.466 0-4.267.566-5.4 1.7-1.133 1.133-1.7 2.9-1.7 5.3v1.5h-3.5v3h3.5v19h3.6v-19h9.9v19h3.5v-19.2h6v-2.7h-5.9v-2c0-1.334.233-2.266.7-2.8.466-.533 1.367-.8 2.7-.8h3.5v-3h-3.4c-2.466 0-4.267.566-5.4 1.7-1.133 1.133-1.7 2.9-1.7 5.3v1.6h-9.9v-2c0-1.334.233-2.266.7-2.8.533-.533 1.434-.8 2.7-.8h3.5v-3zm-71.6 1.3l.1 29.1h10.5c3.267 0 5.8-.7 7.6-2.1 1.733-1.4 2.6-3.4 2.6-6 0-2-.533-3.666-1.6-5-1-1.333-2.5-2.2-4.5-2.6 1.6-.267 2.833-.934 3.7-2 .8-1.067 1.2-2.467 1.2-4.2 0-2.333-.8-4.134-2.4-5.4-1.667-1.2-4-1.8-7-1.8zm4 3.2h5.8c1.933 0 3.367.366 4.3 1.1 1 .733 1.5 1.834 1.5 3.3 0 1.467-.5 2.6-1.5 3.4-.866.667-2.3 1-4.3 1h-5.8zm34.1 4v13.3c0 3 .667 5.266 2 6.8 1.267 1.6 3.2 2.4 5.8 2.4 1.466 0 2.8-.3 4-.9 1.133-.667 2.133-1.667 3-3v3.4h3.6v-22h-3.6v12.5c0 2.067-.567 3.733-1.7 5s-2.666 1.9-4.6 1.9c-1.6 0-2.834-.533-3.7-1.6-.8-1.066-1.2-2.634-1.2-4.7V106zm-34.1 8h6.3c2.133 0 3.7.434 4.7 1.3 1.067.867 1.6 2.234 1.6 4.1 0 1.734-.533 3.067-1.6 4-1 .867-2.567 1.3-4.7 1.3h-6.3zm71.1 93.6V238h3.6v-12.4c0-2.134.566-3.8 1.7-5 1.066-1.267 2.6-1.9 4.6-1.9 1.6 0 2.8.534 3.6 1.6.8 1 1.2 2.567 1.2 4.7v13h3.6v-13.3l.1.1c0-3-.666-5.267-2-6.8-1.266-1.6-3.2-2.4-5.8-2.4-1.467 0-2.8.333-4 1-1.133.666-2.133 1.666-3 3v-12zm-79.9 1.2v3.3h10.3v25.8h4v-25.8h10.3v-3.3zm64.3 1v6.2h-2.7v2.8h2.7v11.9c0 2.733.534 4.634 1.6 5.7 1 1 2.9 1.5 5.7 1.5h3.7v-3h-3.7c-1.467 0-2.467-.267-3-.8-.467-.467-.7-1.566-.7-3.3v-12h7.4V216h-7.4v-6.2zm-31 5.7c-1.733 0-3.2.3-4.4.9-1.2.667-2.2 1.667-3 3V216h-3.6v21.9h3.6v-11.5c0-2.466.566-4.367 1.7-5.7 1.066-1.334 2.6-2 4.6-2 .6 0 1.134.067 1.6.2.467.067.9.234 1.3.5v-3.7l-1-.2zm5.3.5v13.3h-.1c0 3 .667 5.266 2 6.8 1.333 1.6 3.267 2.4 5.8 2.4 1.467 0 2.8-.3 4-.9 1.134-.667 2.134-1.667 3-3v3.4h3.6v-22h-3.6v12.5c0 2.067-.567 3.733-1.7 5-1.067 1.267-2.6 1.9-4.6 1.9-1.6 0-2.8-.533-3.6-1.6-.8-1.066-1.2-2.634-1.2-4.7V216zm-91.3 71.8v2h1.6v-2zm47.6.3l-.1 12.7h1.7v-11.2l3.3 8.8h1.7l3.3-8.8v11.2h1.7v-12.7h-2.6l-3.2 8.6-3.3-8.6zm-62.6.2V301h1.7v-11l3.3 8.6h1.7l3.3-8.7v11.2h1.7v-12.8h-2.6l-3.3 8.7-3.2-8.7zm80.9 2.7l-1.6.2c-.558.074-1.1.243-1.6.5v1.4c.47-.268.975-.47 1.5-.6.467-.133 1-.2 1.6-.2.866 0 1.533.2 2 .6.466.467.7 1.033.7 1.7v.2h-2.2c-1.467 0-2.566.266-3.3.8-.666.533-1 1.333-1 2.4 0 .933.266 1.666.8 2.2.6.6 1.367.9 2.3.9.8 0 1.467-.134 2-.4.534-.334 1-.766 1.4-1.3v1.4h1.6v-5.4h-.1c0-1.466-.333-2.6-1-3.4-.666-.667-1.7-1-3.1-1zm6.5.1l3.4 4.6-3.7 5h1.8l2.8-3.7 2.8 4h1.8l-3.6-5 3.6-4.8-2-.1-2.5 3.5-2.6-3.5zm-62.9.2c-.666 0-1.267.133-1.8.4-.467.266-.9.7-1.3 1.3v-1.5h-1.6v9.6h1.6v-5.4c0-.934.234-1.667.7-2.2.534-.533 1.2-.8 2-.8.734 0 1.267.234 1.6.7.4.4.6 1.067.6 2v5.7h1.5v-5.8c0-1.333-.266-2.333-.8-3-.6-.666-1.433-1-2.5-1zm-9.5.2v9.6h1.6v-9.6zm66.9 4.5h1.6v.4c0 1-.3 1.8-.9 2.4-.466.6-1.133.9-2 .9-.666 0-1.166-.133-1.5-.4-.4-.333-.6-.8-.6-1.4 0-.666.266-1.166.8-1.5.466-.266 1.333-.4 2.6-.4zm-180.7 1.7v6c-.4-.667-.9-1.167-1.5-1.5-.533-.267-1.2-.4-2-.4-1.333 0-2.434.5-3.3 1.5-.8 1.067-1.2 2.467-1.2 4.2s.4 3.133 1.2 4.2c.866 1 1.967 1.5 3.3 1.5.8 0 1.467-.133 2-.4.6-.333 1.1-.833 1.5-1.5v1.7h1.8v-15.3zm-12.8.1V313h1.8v-15.2zm246.8.1v15.2h1.8v-15.2zm5.6 0l-.1 15.2h1.9v-15.2zm-275.4.5V313h2v-7h5.8v-1.7h-5.8V300h6.4v-1.6zm260 .1l-5.5 14.6h2l1.4-3.7h6.5l1.4 3.7h2l-5.6-14.6zm28.2 0v14.6h2v-14.6zm-187 .4v12.9h1.6v-4.5l4.7 4.6h2l-5.2-5 5-4.3h-2l-4.5 4v-7.7zm-30.6.1v12.8h1.5v-5.2c0-.934.233-1.666.7-2.2.533-.533 1.2-.8 2-.8.667 0 1.2.234 1.6.7.333.467.5 1.134.5 2v5.5h1.5v-5.4c0-1.333-.266-2.333-.8-3-.6-.666-1.433-1-2.5-1-.6 0-1.167.134-1.7.4-.467.267-.9.667-1.3 1.2v-5zm-6.4.2c-1.866 0-3.366.567-4.5 1.7-1.066 1.2-1.6 2.8-1.6 4.8 0 1.933.534 3.5 1.6 4.7 1.134 1.134 2.634 1.7 4.5 1.7.734 0 1.433-.1 2.1-.3.6-.2 1.2-.5 1.8-.9v-1.8a5.334 5.334 0 01-1.8 1.2 5.348 5.348 0 01-2 .4c-1.4 0-2.5-.433-3.3-1.3-.734-.866-1.1-2.1-1.1-3.7 0-1.667.366-2.933 1.1-3.8.8-.866 1.9-1.3 3.3-1.3.686.004 1.365.14 2 .4a5.33 5.33 0 011.8 1.2v-1.8h.1a8.82 8.82 0 00-2-.9 6.93 6.93 0 00-2-.3zm196.9 1.3l2.7 7.2h-5.4zm-246.1 1.3c-1.534 0-2.767.5-3.7 1.5-.867 1-1.3 2.4-1.3 4.2 0 1.8.433 3.2 1.3 4.2.933 1 2.166 1.5 3.7 1.5 1.6 0 2.834-.5 3.7-1.5.867-1 1.3-2.4 1.3-4.2 0-1.8-.433-3.2-1.3-4.2-.866-1-2.1-1.5-3.7-1.5zm284.2.1c-.733 0-1.4.167-2 .5-.6.334-1.1.834-1.5 1.5v-1.8h-1.8v11h1.8v-6.2c0-1 .266-1.833.8-2.5.6-.6 1.367-.9 2.3-.9.8 0 1.434.233 1.9.7.4.533.6 1.333.6 2.4v6.5h1.9v-6.6h-.1c0-1.533-.333-2.667-1-3.4-.6-.8-1.566-1.2-2.9-1.2zm-213.9.4c-1.333 0-2.434.466-3.3 1.4-.8.866-1.2 2.067-1.2 3.6 0 1.467.434 2.634 1.3 3.5.867.867 2.034 1.3 3.5 1.3l1.8-.2 1.7-.5v-1.5c-.6.334-1.167.566-1.7.7-.534.133-1.1.2-1.7.2-1 0-1.767-.267-2.3-.8-.667-.6-1-1.4-1-2.4h7v-.8c0-1.4-.367-2.5-1.1-3.3-.667-.8-1.667-1.2-3-1.2zm10.6 0c-1.467 0-2.6.433-3.4 1.3-.867.866-1.3 2.066-1.3 3.6 0 1.466.433 2.667 1.3 3.6.866.867 1.967 1.3 3.3 1.3.533 0 1.033-.066 1.5-.2a4.2 4.2 0 001.3-.4v-1.4l-1.3.5a4.1 4.1 0 01-1.3.2c-1 0-1.766-.333-2.3-1-.533-.6-.8-1.467-.8-2.6 0-1.134.267-2 .8-2.6.534-.667 1.3-1 2.3-1 .466 0 .9.067 1.3.2l1.3.5v-1.4c-.4-.2-.833-.333-1.3-.4zm-80.9 1c1 0 1.767.4 2.3 1.2.533.667.8 1.667.8 3s-.267 2.366-.8 3.1c-.533.733-1.3 1.1-2.3 1.1-.934 0-1.7-.4-2.3-1.2-.533-.667-.8-1.667-.8-3s.267-2.366.8-3.1c.6-.733 1.366-1.1 2.3-1.1zm17.7 0c.934 0 1.666.367 2.2 1.1.6.734.9 1.767.9 3.1 0 1.333-.3 2.4-.9 3.2-.534.666-1.266 1-2.2 1-.933 0-1.7-.367-2.3-1.1-.534-.734-.8-1.767-.8-3.1 0-1.333.266-2.4.8-3.2.6-.666 1.367-1 2.3-1zm52.7.3c.733 0 1.334.267 1.8.8.467.467.7 1.134.7 2l-5.5-.1c.133-.8.466-1.466 1-2 .466-.466 1.133-.7 2-.7zm194.6 3.3v1.5h5.3v-1.5zm-66 2.5v2h1.6v-2zm-65 .3v2h1.6v-2zm42.6.2v12.8h1.7v-5.4h1.9c.667 0 1.2.133 1.6.4.4.266.8.834 1.2 1.7l1.7 3.3h1.8l-1.8-3.5c-.333-.734-.666-1.3-1-1.7-.333-.4-.7-.667-1.1-.8.734-.2 1.3-.567 1.7-1.1.333-.534.5-1.2.5-2 0-1.2-.366-2.1-1.1-2.7-.666-.666-1.734-1-3.2-1zm-65 .3V323h1.7v-5.4h1.9c.667 0 1.2.133 1.6.4.4.267.8.833 1.2 1.7l1.7 3.3h1.8l-1.8-3.5c-.333-.733-.666-1.3-1-1.7-.333-.4-.7-.667-1.1-.8v-.1c.734-.133 1.3-.466 1.7-1 .333-.533.5-1.2.5-2 0-1.266-.366-2.167-1.1-2.7-.666-.667-1.734-1-3.2-1zm66.7 1.2h2.1c.866 0 1.533.167 2 .5.4.4.6.966.6 1.7 0 .733-.2 1.3-.6 1.7-.467.4-1.1.6-1.9.6H222zm-65 .2h2.1c.866 0 1.533.2 2 .6.4.4.6.967.6 1.7 0 .734-.2 1.3-.6 1.7-.467.4-1.1.6-1.9.6H157zm78.4 1.3l-1.6.2c-.533.066-1.1.233-1.7.5v1.4c.47-.268.975-.47 1.5-.6l1.6-.2c.866 0 1.533.2 2 .6.466.467.7 1.033.7 1.7v.2h-2.2c-1.4 0-2.5.267-3.3.8-.666.533-1 1.334-1 2.4 0 .934.3 1.666.9 2.2.534.533 1.3.8 2.3.8.8 0 1.466-.133 2-.4.533-.2.967-.634 1.3-1.3v1.5h1.6v-5.5c0-1.467-.366-2.566-1.1-3.3-.666-.666-1.666-1-3-1zm15.2 0c-1.134 0-2 .266-2.6.8-.667.466-1 1.133-1 2 0 .733.233 1.3.7 1.7.4.467 1.066.8 2 1l.5.1c1 .2 1.666.433 2 .7.266.2.4.533.4 1 0 .466-.2.8-.6 1-.4.266-.966.4-1.7.4l-1.7-.2c-.534-.133-1.1-.367-1.7-.7v1.6l1.7.5 1.6.1c1.266 0 2.266-.267 3-.8.666-.467 1-1.134 1-2 0-.8-.233-1.434-.7-1.9-.467-.4-1.267-.734-2.4-1l-.5-.1-1.7-.5a1.36 1.36 0 01-.4-1c0-.467.2-.8.6-1 .4-.267.967-.4 1.7-.4.534 0 1.034.067 1.5.2.467.067.933.234 1.4.5v-1.5a4.3 4.3 0 00-1.4-.4zm10.1 0c-1.4 0-2.533.467-3.4 1.4-.866.934-1.3 2.167-1.3 3.7 0 1.533.467 2.733 1.4 3.6.867.866 2.067 1.3 3.6 1.3l1.8-.1c.59-.13 1.16-.331 1.7-.6v-1.5a5.579 5.579 0 01-1.6.7c-.533.134-1.134.2-1.8.2-1.067 0-1.867-.266-2.4-.8-.667-.6-1-1.433-1-2.5h7.2v-.8c0-1.4-.4-2.534-1.2-3.4-.667-.8-1.667-1.2-3-1.2zm-18 .2v9.6h1.6v-9.6zm-72.3.1l-1.6.1-1.7.5v1.5c.47-.268.975-.47 1.5-.6l1.6-.2c.866 0 1.533.2 2 .6.466.4.7.967.7 1.7v.1h-2.2c-1.4 0-2.5.266-3.3.8-.666.6-1 1.433-1 2.5 0 .933.3 1.667.9 2.2.534.534 1.3.8 2.3.8.8 0 1.466-.133 2-.4.533-.266.967-.7 1.3-1.3v1.5h1.6v-5.5c0-1.467-.366-2.567-1.1-3.3-.666-.667-1.666-1-3-1zm15.2 0c-1.134 0-2 .234-2.6.7-.667.467-1 1.167-1 2.1 0 .733.233 1.3.7 1.7.4.466 1.066.8 2 1l.5.1c1 .2 1.666.433 2 .7.266.2.4.533.4 1 0 .4-.2.733-.6 1-.4.267-.966.4-1.7.4l-1.7-.2-1.7-.7v1.6l1.7.5 1.6.1c1.266 0 2.266-.266 3-.8.666-.466 1-1.166 1-2.1 0-.733-.233-1.333-.7-1.8-.467-.467-1.267-.833-2.4-1.1h-.5c-.867-.2-1.433-.4-1.7-.6-.266-.2-.4-.5-.4-.9 0-.466.2-.833.6-1.1.4-.2.967-.3 1.7-.3l1.5.1 1.4.6v-1.5l-1.4-.5zm10.1 0c-1.4 0-2.533.433-3.4 1.3-.866.933-1.3 2.2-1.3 3.8 0 1.467.467 2.667 1.4 3.6.867.867 2.067 1.3 3.6 1.3l1.8-.2 1.7-.5V321l-1.6.7c-.59.14-1.194.207-1.8.2-1.067 0-1.867-.3-2.4-.9-.667-.533-1-1.334-1-2.4h7.2v-.8c0-1.466-.4-2.6-1.2-3.4-.667-.8-1.667-1.2-3-1.2zm-18 .2v9.6h1.6v-9.6zm83 .8c.8 0 1.433.267 1.9.8.466.533.7 1.233.7 2.1l-5.6-.1c.133-.867.466-1.533 1-2 .466-.533 1.133-.8 2-.8zm-65 .3c.8 0 1.433.267 1.9.8.466.467.7 1.134.7 2h-5.6c.133-.866.466-1.567 1-2.1.466-.467 1.133-.7 2-.7zm40.7 3.4h1.5v.3c0 1-.267 1.833-.8 2.5-.534.6-1.233.9-2.1.9-.6 0-1.1-.167-1.5-.5-.333-.334-.5-.766-.5-1.3 0-.666.233-1.166.7-1.5.466-.266 1.367-.4 2.7-.4zm-65 .3h1.5v.3c0 1-.267 1.8-.8 2.4-.534.667-1.233 1-2.1 1-.6 0-1.1-.166-1.5-.5-.333-.333-.5-.767-.5-1.3 0-.734.233-1.234.7-1.5.466-.267 1.367-.4 2.7-.4z"/></svg>