<svg xmlns="http://www.w3.org/2000/svg" width="256" height="256" viewBox="0 0 67.7333 67.7333"><path d="M 96 40 A 87.999998 87.999998 0 0 0 8 128 A 87.999998 87.999998 0 0 0 96 216 A 87.999998 87.999998 0 0 0 128.10742 209.91992 A 87.999998 87.999998 0 0 1 72 128 A 87.999998 87.999998 0 0 1 127.89258 46.080078 A 87.999998 87.999998 0 0 0 96 40 z M 127.89258 46.080078 A 87.999998 87.999998 0 0 1 184 128 A 87.999998 87.999998 0 0 1 128.10742 209.91992 A 87.999998 87.999998 0 0 0 160 216 A 87.999998 87.999998 0 0 0 248 128 A 87.999998 87.999998 0 0 0 160 40 A 87.999998 87.999998 0 0 0 127.89258 46.080078 z" transform="scale(.26458)" stroke="#000" stroke-width="16" stroke-linejoin="round" stroke-miterlimit="3"/></svg>