<svg xmlns="http://www.w3.org/2000/svg" width="256" height="256" viewBox="0 0 67.7333 67.7333"><g stroke="#000" stroke-width="4.2333" stroke-linecap="round" stroke-linejoin="round"><path d="M 13.156172,237.54355 A 29.633333,29.633333 0 0 0 4.2166666,258.75001 29.633333,29.633333 0 0 0 33.849999,288.38334 29.633333,29.633333 0 0 0 63.483332,258.75001 29.633333,29.633333 0 0 0 54.620307,237.65 a 23.283333,23.283333 0 0 1 2.513025,10.51667 23.283333,23.283333 0 0 1 -23.283333,23.28334 23.283333,23.283333 0 0 1 -23.283333,-23.28334 23.283333,23.283333 0 0 1 2.589506,-10.62312 z" transform="translate(0 -229.2667)"/><path d="m 40.834998,248.16667 a 6.9849997,6.9849997 0 0 1 -6.985,6.985 6.9849997,6.9849997 0 0 1 -6.985,-6.985 6.9849997,6.9849997 0 0 1 6.985,-6.985 6.9849997,6.9849997 0 0 1 6.985,6.985 z" transform="translate(0 -229.2667)"/></g></svg>