<svg xmlns="http://www.w3.org/2000/svg" xml:space="preserve" id="svg8" x="0" y="0" version="1.1" viewBox="0 0 169.6 167"><style>.st0{fill:none;stroke:#000;stroke-width:7;stroke-miterlimit:10}</style><path d="M99.4 52.5h42.2l19.9 19.9v42.1h-41.8L99.4 94.2z" class="st0"/><path d="M141.6 52.5v41.7l19.9 20.3" class="st0"/><path d="M141.6 94.2H99.4" class="st0"/><path d="m99.4 52.5 20.3 19.9v42.1" class="st0"/><path d="M119.7 72.4h41.8" class="st0"/><path d="M11.9 55.5s7 9.2 21 10.5c14.2 1.3 16.7-9.4 30-9.4 11.4 0 26.2 8.2 26.2 8.2" class="st0"/><path d="M11.9 72.7s7 9.2 21 10.5c14.2 1.3 16.7-9.4 30-9.4 11.4 0 26.2 8.2 26.2 8.2" class="st0"/><path d="M11.9 90s7 9.2 21 10.5c14.2 1.3 16.7-9.4 30-9.4 11.4 0 26.2 8.2 26.2 8.2" class="st0"/></svg>