<svg xmlns="http://www.w3.org/2000/svg" xml:space="preserve" viewBox="0 0 169.6 167"><path d="M51.1 50.2c0-6.1-.2-10.9 0-17.1.1-1.1 1.8-2.7 3-2.9 2.6-.5 5.3-.3 8-.3l42.5-.3c15.2 0 15.2 0 15.1 15.4v6c-.9.6-1.1.8-1.4.9-1.8.8-3.6 1.6-5.4 2.3 1.9.7 3.9 2 5.8 2.1 6 .3 12 0 18 .1 7 .1 10.6 3 10.7 9.7.1 19.8 0 39.6-.3 59.4-.1 6.2-3.5 8.9-10.2 9-9.2.2-18.3.1-27.5.1h-74c-10.9 0-13.3-2.4-13.2-13.2.2-18.3.5-36.6.8-54.9.1-6.2 3.6-9.9 9.8-10.1 6.3-.2 12.7.1 19-.2 2-.1 4-1.3 6-2-1.8-1.1-3.6-2.1-5.5-3.2-.4-.2-.8-.4-1.2-.8zm34.3 23.3c-13.3-.7-22.8 9.9-23 22.2-.2 12.8 10.7 21.6 20.9 22.3 13.4 1 24-10.6 24.1-22.2.1-11-8.3-22.8-22-22.3zm-.6-21.3c-5.5 0-11-.1-16.5.1-1.2 0-2.4 1.2-3.5 1.9 1.1.8 2.1 2.2 3.2 2.2 11.5.2 23 .2 34.4 0 1.1 0 2.2-1.4 3.3-2.1-1.2-.7-2.3-1.9-3.5-2-5.7-.2-11.6-.1-17.4-.1zM134 72.9c3.3 0 5.7-2.1 5.7-5.5 0-3.6-2.2-5.6-5.8-5.6-3.8 0-5.6 1.9-5.6 5.6-.1 3.4 2.5 5.5 5.7 5.5z"/><path d="M84.7 113.7c-10.3 0-18.2-7.8-18.2-18 0-9.7 9.2-19.2 18.7-18.6 10.4.6 18.1 8.5 18.1 18.5-.1 10.4-7.9 18.1-18.6 18.1z"/></svg>