<svg width="348" height="348" viewBox="0 0 92.07 92.07" xmlns="http://www.w3.org/2000/svg"><g stroke-linecap="round" stroke-linejoin="round"><path fill="none" stroke="#000" stroke-width="3" d="M10.65 1.68h8.62v89.55h-8.62z"/><path d="M19.26 1.68h23.28c2.49.4 4.56 1.44 6.08 3.35 1.44 1.68 1.73 6.42 1.67 9.88V41.36c-.52 3.94 1.59 8.32-1.02 11.91-3.1 2.55-7.68 2.42-10.14.41-2.32-2.37-1.5-6.9-1.51-10.54 4.12-.03 11.17-1.02 12.64 3.31M37.62 43.14H19.38" fill="none" stroke="#000" stroke-width="3"/><path d="M44.53 55.66h39.64V14.94H52.61" fill="none" stroke="#000" stroke-width="3"/><path d="M12.2 46.43V3.28h5.49v86.3H12.2ZM47.8 42.22c-1.8-.68-2.26-.7-14.9-.67l-12.01.02V3.28h21.93l1.11.37a6.42 6.42 0 0 1 3.8 2.97c.91 1.8 1.06 4.63 1.06 20.9 0 12.44-.05 14.96-.28 14.94l-.7-.24zM51.24 52.91a9.1 9.1 0 0 0 .84-4.88c-.05-.84-.13-8.3-.17-16.6l-.08-15.08.35.1c.2.05 7.13.1 15.4.1h15.07V54.05H50.69zM42.2 53.43a7.6 7.6 0 0 1-1.35-.52 1.96 1.96 0 0 1-1.13-1.19c-.61-1.34-.84-3.74-.59-6.18l.1-.94h2.38c3.52 0 5.35.37 6.37 1.26.8.7 1.01 1.34 1 2.93 0 1.52-.4 2.9-1 3.45-.42.4-1.72 1-2.56 1.2-.8.18-2.43.18-3.22 0z" fill="#fff" stroke="#000" stroke-width="1.7277074"/><circle cx="33.09" cy="24.85" r="4.57" stroke="#00f"/><circle cx="67.86" cy="32.63" r="4.57" stroke="#00f"/></g></svg>