<svg viewBox="0 0 60 60" xmlns="http://www.w3.org/2000/svg"><path fill="#33F" d="M49.34 31.36c-1.7-1.99-5.3-2.6-5.3-2.6L44 20.84a4.1 4.1 0 0 0 3-3.93V4.1A4.1 4.1 0 0 0 42.9 0H17.1A4.1 4.1 0 0 0 13 4.1v12.8a4.1 4.1 0 0 0 3 3.93v7.94s-3.96.94-5.25 2.59C9.36 33.27 11 36 11 36h3v23a1 1 0 1 0 2 0V42h2v15a1 1 0 1 0 2 0V42h20v15a1 1 0 1 0 2 0V42h2v17a1 1 0 1 0 2 0V36h3s1.97-2.76.34-4.64zM15 16.9V4.1c0-1.16.94-2.1 2.1-2.1h25.8c1.16 0 2.1.94 2.1 2.1v12.8a2.1 2.1 0 0 1-2.1 2.1H17.1a2.1 2.1 0 0 1-2.1-2.1ZM16 40v-4h2v4zm4 0v-4h20v4zm24 0h-2v-4h2zm3.43-5.98L12.53 34s-1.01-.99-.25-1.73c4.04-3.92 31.38-3.87 35.34 0 .6.58-.19 1.75-.19 1.75zM18.4 21l23.11-.01.04 7.37c-8.51-1.2-13.81-1.2-23.19 0z"/><path fill="#33F" d="M25 11h10a3 3 0 0 0 0-6H25a3 3 0 0 0 0 6zm0-4h10a1 1 0 0 1 0 2H25a1 1 0 0 1 0-2z"/></svg>