<svg xmlns="http://www.w3.org/2000/svg" viewBox="0 0 72 72"><path fill="none" stroke="#222" stroke-linecap="round" stroke-linejoin="round" d="M46.4 42a20.78 20.78 0 0 1-20.8 20.78A20.78 20.78 0 0 1 4.83 42a20.78 20.78 0 0 1 20.79-20.78A20.78 20.78 0 0 1 46.39 42Z"/><path fill="none" stroke="#222" stroke-linecap="round" stroke-linejoin="round" d="M56.79 24A20.78 20.78 0 0 1 36 44.8 20.78 20.78 0 0 1 15.22 24 20.78 20.78 0 0 1 36 3.22 20.78 20.78 0 0 1 56.8 24Z"/><path fill="none" stroke="#222" stroke-linecap="round" stroke-linejoin="round" d="M67.18 42a20.78 20.78 0 0 1-20.79 20.8A20.78 20.78 0 0 1 25.61 42a20.78 20.78 0 0 1 20.78-20.78A20.78 20.78 0 0 1 67.18 42Z"/><path fill="#222" fill-opacity=".25" stroke="#222" stroke-linecap="round" stroke-linejoin="round" d="M36 18a18 18 0 0 0-18 18 18 18 0 0 0 18 18 18 18 0 0 0 18-18 18 18 0 0 0-18-18Zm0 12a6 6 0 0 1 6 6 6 6 0 0 1-6 6 6 6 0 0 1-6-6 6 6 0 0 1 6-6z"/><path fill="#222" d="M4.52 1.61q0 .17-.1.26-.09.1-.25.1h-.1l-.1-.04q-.08-.09-.1-.21l-.06-.26-.04-.27q-.03-.13-.09-.23T3.52.79q-.1-.07-.26-.07-.1 0-.21.03-.1.02-.21.02H2.7L2.55.75 2.41.73 2.29.68 2.25.67H2.2L2.14.65H2.1l-.19.01L1.8.7l-.1.05-.16.05q-.08.02-.11.05L1.38.9q-.02.04-.02.09v.59l.01.29q0 .09-.02.17l-.01.18q0 .08.03.11l.08.05.08.03q.04.02.04.08l.05.01h.05q.13 0 .26-.04l.25-.07q.08-.02.12-.1.03-.1.04-.22l.02-.24v-.18l.04-.1.08-.08.09-.05q.05-.03.1-.03.06 0 .1.03.09.04.12.1.04.07.05.15v.16l.02.16v.2l-.01.37q-.02.18-.02.37l.02.2q0 .1.04.2l.02.12q0 .07-.02.13l-.01.13v.08l.01.07q0 .05-.03.12l-.07.12q-.04.05-.1.08-.06.04-.1.04-.08 0-.14-.06-.06-.05-.1-.12l-.08-.14-.02-.07.01-.03.04-.02.04-.02q.02-.02.02-.05l-.02-.02-.04-.02-.04-.03q-.02-.02-.02-.05l.01-.04q0-.02.02-.03l.02-.01v-.02l-.02-.08-.07-.1-.09-.08q-.05-.03-.08-.03L2 3.22l-.12.02-.1-.02-.08-.02q-.04 0-.09.04l-.1.08-.08.09-.06.07q-.03.03-.04.09v.1q0 .14.02.27l.01.27v.35q0 .08.02.15.02.08.05.13.03.06.08.08.09.03.19.02h.08q.1 0 .19.02t.13.1q.04.06.06.15l.02.15-.01.1q-.01.07-.04.12-.02.04-.07.08-.03.03-.1.03-.1 0-.24-.03-.12-.02-.25-.02-.1 0-.19.02-.15.05-.3.06l-.32.01H.5q-.1 0-.2-.03-.09-.02-.16-.06-.06-.04-.06-.12l.01-.17.05-.17q.04-.08.1-.13Q.32 5 .43 5h.14q.07 0 .1-.02l.07-.06.04-.06.07-.03q0-.13-.02-.24l-.01-.25.02-.2q.02-.1.07-.2-.04-.05-.06-.15l-.03-.22v-.26q0-.07.02-.13l.02-.13v-.06l-.01-.06v-.06l.03-.03.02-.02v-.04q0-.1-.02-.19-.03-.1-.03-.2l.02-.18q.02-.08.02-.17 0-.18-.02-.35l-.02-.36-.01-.2-.07-.2Q.73.82.65.75.58.69.46.69h-.1L.25.7h-.1L.06.65Q.06.58.03.51T0 .36Q0 .31.04.27L.16.22.32.19h.67l.16-.01.15-.05q.07-.03.1-.1.05 0 .08.03.04.01.07.04l.07.04.08.01.1-.02Q1.85.1 1.9.1q.06 0 .1.02.04.02.09.02l.2-.02.21-.05.21-.05q.1-.02.21-.02.08 0 .14.02.06.02.12.08.16-.07.35-.07h.1l.17.03q.08 0 .15.02l.08.02.04.07.02.1.02.1q.01.05.03.07l.04.02q.03 0 .05.02.03 0 .04.02l.03.04v.19l.04.18.05.17.06.18.05.18.02.17zM.4 5.38q0-.06-.03-.1-.02-.05-.08-.06v.06l.01.1q.03.05.1.06v-.06zm8.51.08q0 .14-.1.22-.08.08-.21.12-.13.04-.27.05l-.24.01q-.13 0-.21-.02l-.15-.05-.1-.05-.1-.02-.14.02q-.06.03-.12.03-.05 0-.08-.02l-.05-.04-.04-.03q-.01-.02-.04-.02l-.04.02-.04.05-.05.05q-.04.02-.11.02l-.16-.02-.16-.01-.16.02q-.08.03-.15.03-.03 0-.05-.02-.01-.02-.03-.02-.07 0-.15.03-.07.03-.14.03h-.08q-.03-.02-.07-.02-.07 0-.13.04-.07.03-.17.03l-.16-.01-.24-.03-.22-.05q-.1-.03-.1-.07 0-.1.03-.2.04-.1.04-.2-.05 0-.06-.06l.03-.02.04-.02q.02 0 .03-.02.02 0 .02-.03v-.02l.3.02h.65q.2-.01.35-.06.16-.05.26-.14.11-.1.11-.27v-.09l-.04-.84q-.02-.42-.02-.85l-.02-.22-.01-.22q0-.13.04-.27.05-.14.16-.23 0-.03-.02-.03l-.04-.02h-.05l-.03-.02q-.03-.01-.03-.05l-.02-.1-.01-.1q0-.04-.02-.07 0-.12.04-.23.02-.1.02-.22 0-.08-.02-.13L6.33.95 6.28.89Q6.26.86 6.26.82q0-.03.02-.05h-.03l-.06.01-.04.04-.03.05q-.02.02-.06.02L6 .87 5.87.9Q5.75.9 5.6.86 5.47.82 5.33.82H5.2l-.14.01-.2-.02q-.1-.02-.19-.1V.66q0-.2.14-.31.14-.1.34-.1.14 0 .27.03t.27.03L5.84.3 6 .26l.18-.03.17-.02q.13 0 .25.06l.24.1v.1l.05.06.04.06.02.06-.01.07-.01.07q0 .09.03.16.04.08.04.17 0 .1-.03.18l-.02.19q0 .11.03.22.03.12.03.23 0 .1-.03.19-.03.08-.03.17l.01.14.05.12.04.13q.02.06.02.13v.08l-.02.12q0 .06-.05.1l.04.17q.03.08.03.16l-.01.09-.02.09L7 3.7q-.02.04-.05.06.05.15.07.3l.02.3.01.13.03.14.02.14v.08l-.01.13q-.03.06-.03.13 0 .05.03.1.02.06.08.06.05 0 .08-.02l.07-.05.1-.04q.05-.03.14-.03.1 0 .19.03t.2.03l.14-.01.15-.03.15-.04.15-.01q.16 0 .26.09.11.09.11.26zM6.67.6 6.63.57 6.58.55q-.02 0-.03.02l-.01.04.01.04.03.01q.03 0 .05-.02L6.67.6zm.23 1.08-.02-.06q-.01-.03-.05-.03h-.05v.18l.05.01q.04 0 .05-.03l.02-.07zm6.38 2.27q0 .06-.02.1l-.04.1-.04.05-.02.03q0 .04.03.08.02.04.02.1l-.01.02-.04.01h-.06l.01.14.02.14q0 .12-.03.15l-.04.04-.05.02L13 5q0 .04-.05.09l-.12.1q-.06.06-.14.1-.07.04-.11.04h-.03v.06l.01.07q0 .05-.03.07l-.07.03-.12.08-.13.1-.14.1q-.06.04-.14.04-.06 0-.12-.03-.05-.03-.12-.03-.06 0-.1.02l-.08.04-.08.03q-.04.02-.09.02-.1 0-.2-.05l-.2-.08-.11-.03-.12-.02-.12-.04-.09-.07q-.08-.1-.19-.17l-.22-.13q-.12-.05-.22-.12-.1-.06-.18-.17l-.14-.17-.14-.2-.1-.22q-.05-.11-.05-.22 0-.08.02-.15l.03-.15.04-.15.01-.15v-.05l-.01-.03-.03-.04q0-.02-.02-.03l-.02-.01.01-.1.04-.15.05-.14q.02-.07.04-.09l.05-.04q.02-.02.02-.06v-.19l.04-.01h.03l.04-.05.07-.13.07-.11.1-.1q.04-.04.12-.08l.12-.08.13-.1.12-.09q.07-.03.14-.03.1 0 .2-.04l.2-.06.32-.04q.16-.02.33-.02.09 0 .22.03.13.02.26.07l.25.1.2.12v.02q0 .05-.03.1l-.02.12v.01l.01.01.13-.01q.06-.02.13-.02 0 .06.05.09l.1.04q.05.02.1.09.04.05.07.13l.07.15.06.12.06.11.04.14.03.14v.12q0 .08-.03.14-.02.05-.06.09l-.06.08q-.03.03-.03.08l.01.05.03.04h.03q.03 0 .03-.03t-.03-.06q-.02-.03-.02-.07v-.02q.01-.02.03-.02.02 0 .04.03l.05.06.03.06.01.01v.06zm-.4.03q0-.06-.04-.07l-.1-.02-.12-.01q-.06 0-.08-.06v-.04l-.02-.2-.05-.23-.07-.24-.06-.2-.05-.15-.02-.05h-.06q-.06 0-.11-.02l-.11-.06-.15-.06q-.09-.03-.23-.03l-.32-.02q-.15-.02-.31-.02-.22 0-.41.1-.2.1-.34.26t-.23.37q-.08.2-.08.4v.21l.03.23q.01.11.05.22.03.1.1.14v.11q0 .02.03.02h.05l.05.01q.02 0 .03.03.05.15.13.22.09.08.18.13l.19.1q.1.06.17.16h.13l.24.01.25.02q.13 0 .23-.07.1-.06.18-.17l.08-.1.08-.1.1-.07.1-.09.06-.04.07-.05.06-.06.02-.06-.01-.07V4.2l.04-.1.06-.08q.04-.03.1-.03l.08.02.08.04v-.06zm6.1-1.9q0 .12-.07.19-.08.07-.2.12l-.22.1q-.11.05-.18.13-.11.14-.16.32t-.08.38l-.04.4q-.01.2-.07.37l-.01.14-.01.14q0 .08-.03.14-.03.06-.1.08l-.05.02q-.03.01-.03.04t.03.04l.04.03.06.04q.02.02.02.06l-.02.15-.05.16-.05.16q-.02.08-.02.18l-.01.08-.04.05-.06.02-.08.04-.08.04q-.04.02-.09.02l-.08-.02-.1-.04-.08-.05-.09-.04-.06-.2-.06-.14-.04-.1-.03-.12-.03-.17V4.6l-.02-.13q0-.06-.04-.12-.07-.1-.1-.2l-.06-.23-.04-.22-.01-.24-.01-.08-.02-.1q-.01-.05-.04-.08-.02-.04-.07-.04-.04 0-.1.04l-.1.08-.15.08q-.08.04-.19.04.04.05.08.06.04.02.1.02l.07.04.04.04.03.07q0 .03.03.07.04.07.04.14 0 .11-.05.22l-.1.2q-.04.06-.06.13l-.02.14v.14l-.05.14q0 .03-.03.08-.03.04-.03.07l.01.04.03.04.02.06.01.05-.02.09-.05.1-.05.1-.03.1q-.03.07-.07.11-.04.04-.1.06-.05.02-.12.02h-.3q-.06-.01-.1-.05-.03-.03-.05-.09l-.04-.16-.05-.2-.02-.18q0-.1.05-.2l-.06-.12q-.02-.07-.06-.1l-.08-.09-.08-.08V4.3q0-.32-.06-.65-.07-.34-.16-.64l-.1-.25q-.05-.12-.07-.25h-.16l-.06.01-.05.05-.06.04q-.03.02-.07.02-.05 0-.11-.04t-.1-.1q-.05-.05-.07-.12-.03-.06-.03-.12 0-.07.04-.14.04-.08.1-.14.07-.06.15-.1.08-.03.15-.03.09 0 .17.03.08.04.17.04l.14-.01.14-.01h.22l.2.01q.06 0 .11.03l.1.06.1.07.09.06q0 .08-.05.13-.03.04-.09.07l-.12.06-.12.08q-.05.04-.09.13-.03.08-.03.22 0 .17.08.3.02.04.02.1v.09l-.02.08q0 .05.03.07.06.07.07.19l.02.22.03.23q.03.1.1.14h.03q.1 0 .15-.07.05-.08.07-.19.02-.1.02-.22l.01-.18q.06-.06.1-.16l.05-.23.03-.24v-.2q0-.12-.03-.2-.02-.08-.06-.13l-.07-.1q-.03-.05-.03-.12 0-.08.1-.14.09-.07.22-.1.12-.04.26-.06l.21-.01h.11q0-.03.08-.03l.14.02.17.03.16.03.11.02q.11 0 .23-.03.12-.03.22-.08.16-.07.32-.1.16-.02.33-.02l.2.02q.13.02.24.06.11.04.18.1.08.06.08.13v.04zm-2.19.12q0-.04-.03-.06l-.06-.02q0 .04-.03.07l-.03.06.01.02.02.01.05-.01.05-.03.02-.04zm.9.42q-.04-.06-.12-.12l-.18-.1q-.08-.06-.16-.08l-.12-.03-.03.02-.05.05-.05.06-.06.03v.39l-.01.37q0 .1.02.19.02.08.08.16l.06.12.06.17.08.15q.04.07.1.07.07 0 .12-.1.05-.08.08-.22.04-.14.06-.32l.04-.33.04-.29q.02-.13.05-.19z" aria-label="Flow"/><path fill="#222" d="m.14 66.72-.04.03q-.01.02-.04.02l-.04-.02L0 66.7v-.03l.03-.01.06.02.05.04zm1.11 2.78v.02-.04.02Zm2.72-1.8v.14l-.02.15q0 .08-.02.15l-.03.13q-.06.13-.15.24-.08.1-.13.24-.01.04-.07.08-.05.05-.12.09L3.3 69l-.1.06q-.22.14-.45.2-.22.08-.48.08h-.02l-.1-.05-.12-.01H1.9l-.14.01-.11.03-.17.06-.15.07q-.07.03-.07.05v.02q0 .02.02.02t.03-.02q.02-.02.05-.02.02 0 .03.02l.01.05.01.05v.03q0 .12-.02.23-.02.1-.02.22v.45l.01.31q.03.1.1.16.05.05.16.08l.29.07-.01.07q0 .05.02.07l.07.04.06.05q.03.03.03.08 0 .06-.04.1-.05.04-.06.07l-.03.05q0 .02-.04.03l-.11.01-.37.01h-.3l-.36.01-.22.04q-.1.02-.21.02-.13 0-.18-.07-.05-.07-.05-.2 0-.1.05-.18.05-.08.13-.12l.16-.09.17-.05.13-.07q.05-.03.05-.08t-.02-.09-.02-.09l.03-.1q.03-.08.03-.19v-.17q-.03 0-.04-.04l-.02-.08v-.15l.01-.29.02-.3v-.18l-.02-.18.01-.04q-.03-.03-.03-.08l.02-.1.01-.1-.01-.16-.04-.15-.03-.15v-.25L.75 68l.03-.1.01-.09-.02-.26q-.03-.13-.03-.26 0-.08.04-.11l.08-.06.08-.05q.04-.02.04-.06 0-.03-.03-.05-.02-.02-.05-.02-.05 0-.1.03-.03.04-.08.04-.03 0-.06-.04l-.05-.09q-.03-.05-.07-.08-.04-.05-.09-.05l-.08.01-.09.02q-.06 0-.07-.03-.02-.03-.02-.07v-.16q-.02-.03-.06-.03H.08q.06-.06.15-.1l.18-.06.2-.03q.11 0 .2-.03h.05l.06-.01.13.01.14.02q.08 0 .12-.04.05-.03.1-.03l.09.04.08.02.26-.02.26-.01q.14 0 .27.04l.26.08q.14.04.26.1.13.04.27.06.05 0 .09.04.05.02.09.06l.08.08.08.06.09.1.06.11.07.11.1.1q.05.03.09.1.03.06.04.13l.02.15v.13zm-.64.24q0-.25-.08-.45-.07-.2-.22-.35-.14-.15-.34-.23-.2-.09-.46-.09h-.28l-.2.02q-.1 0-.19.02-.08.01-.15.04-.06.02-.08.05l-.08.1q-.05.06-.05.11 0 .04.03.09l.05.1.05.1q.03.05.03.1l-.06.02q-.03.02-.03.05 0 .06.04.13t.04.14q0 .06-.03.09l-.05.05-.05.04q-.02.02-.02.05 0 .03.05.11l.11.18.12.17.05.09.18.01h.2l.28-.02.27-.02.18-.03q.05 0 .07-.03l.04-.05.05-.04q.03-.02.1-.02.12 0 .2-.04.08-.04.13-.11.06-.08.07-.17.03-.1.03-.2zm5.34 3.1q0 .07-.03.13l-.04.12-.02.1-.02.06q0 .02-.04.04l-.07.05-.25.13q-.13.06-.27.06-.11 0-.21-.05l-.18-.12-.16-.12q-.06-.05-.11-.05t-.09.02l-.07.06-.09.06q-.04.03-.1.03l-.12.02-.12.04-.12.06-.1.03q-.18.05-.36.06h-.5l-.2-.02q-.1-.01-.18-.05-.07-.04-.07-.11v-.03q-.02.03-.06.05l-.08.02q-.06 0-.15-.08-.09-.09-.17-.2l-.14-.22q-.06-.12-.06-.17 0-.05.02-.08.03-.04.03-.08l-.02-.1v-.1q0-.08.02-.15l.07-.16q.03-.09.08-.16l.08-.15q.03-.07.1-.12l.15-.08.16-.07q.08-.04.14-.1.05.07.15.07.1 0 .19-.03.1-.03.2-.03l.14.02.15.01q.09 0 .13-.02l.1-.08q.07-.05.16-.08l.2-.04.2-.04q.11-.02.2-.06.07-.04.13-.1.05-.07.05-.18 0-.12-.08-.26-.07-.14-.18-.25-.11-.12-.25-.2-.14-.07-.26-.07h-.06l-.21.03q-.12 0-.22.04-.1.02-.17.1-.07.06-.07.2v.15q.02.07.02.15 0 .12-.05.2-.06.07-.15.12-.09.05-.2.07l-.2.01q-.11 0-.2-.03-.08-.03-.14-.14l-.1-.18q-.04-.1-.04-.2t.04-.19l.08-.18.1-.17.06-.2.07-.03.1-.03.12-.03.09-.02.18-.06.18-.08.18-.05.2-.03h.11q.17 0 .35.03.17.03.34.09t.32.16q.15.09.27.21.08.1.14.22.06.13.09.27l.04.28.02.27-.01.32-.01.32q0 .16.02.31l.04.31.04.31.02.3q0 .1.02.12l.04.02q.09 0 .14-.05l.1-.12.09-.12q.05-.05.13-.05h.07q.04 0 .07.02.03.01.05.04.02.02.02.07zm-1.29-.97v-.19l-.04-.11q-.01-.05-.05-.05h-.02l-.02.01-.25.14q-.1.05-.21.08l-.22.05h-.3l-.12.03-.23.04-.24.05-.13.04-.08.04-.03.04-.02.05-.05.05-.08.05-.08.06q-.06.06-.11.16-.05.09-.05.18 0 .1.05.18.06.08.15.14.09.06.2.1.11.05.23.07l.22.04h.4l.26-.05q.13-.03.24-.08.11-.05.18-.13l.04-.05q0-.03.02-.05l.03-.06.06-.06q.09-.07.14-.16.05-.09.07-.19.03-.1.03-.2v-.22zm5.17.47-.02.1-.04.1-.04.09-.03.1q-.02.1-.08.19-.06.08-.14.15l-.16.15q-.1.06-.16.13-.06.06-.12.06h-.08l-.07-.01q-.06 0-.09.02l-.06.04-.07.04q-.04.02-.11.02-.05 0-.1.03l-.1.02q-.06 0-.15-.04-.09-.03-.2-.03h-.37l-.11-.05-.1-.04-.12-.02q-.12 0-.2.06l-.15.13q-.06.08-.13.13-.06.06-.14.06-.08 0-.1-.02l-.04-.06v-.08q0-.04-.04-.07-.06-.06-.08-.11-.02-.06-.02-.15 0-.18.03-.36.04-.18.04-.37l-.02-.12q-.01-.07-.04-.12l-.03-.08-.02-.06.02-.07.05-.07.05-.05q.03-.03.05-.03.04 0 .07.02l.06.04.06.04q.03.02.07.02h.02q.06.09.09.2l.06.2.08.19q.05.09.14.16l.06.04.06.05.07.04.06.01h.08l.09-.01q.06 0 .06.04l-.01.03h.07q.15 0 .3-.04.15-.03.3-.03l.14.01q.08.02.13.06.08-.04.13-.1l.1-.1.11-.09q.07-.04.16-.05.02-.02.02-.05v-.06l.01-.06q0-.03.03-.05.04-.03.06-.07.02-.04.02-.1 0-.1-.05-.19-.06-.1-.16-.17-.09-.08-.2-.13-.12-.07-.25-.1-.12-.05-.23-.07-.12-.03-.2-.03l-.2.02q-.1.02-.18.06 0-.08-.04-.11t-.1-.04l-.1-.03q-.06-.02-.1-.1-.06.09-.16.13-.1.04-.2.04t-.19-.04q-.08-.04-.15-.1-.07-.08-.11-.16-.04-.09-.05-.18 0-.07-.02-.12l-.06-.1-.05-.1q-.02-.05-.02-.12 0-.17.02-.27t.05-.15q.02-.06.06-.08l.07-.04.06-.06q.03-.04.05-.13.01-.06.04-.08.02-.02.08-.02.05-.01.07-.03l.02-.03.01-.04q.01-.03.04-.04.08-.06.16-.07.08-.02.17-.02h.52q.15-.02.32-.02.12 0 .23.02l.18.06.13.06.1.02.12-.02q.06-.03.13-.04l.07.06q.04.02.09.02.03 0 .04-.02.02-.02.02-.06.06.02.1.06.06.04.1.1.04.04.06.1.03.07.03.12 0 .14-.03.29l-.02.28q0 .15.04.28l-.12.08q-.06.03-.1.09l-.08-.06-.08-.08-.09-.06-.08-.02-.04-.03-.01-.04q0-.04.02-.07.02-.03.02-.07l-.03-.05-.08-.1-.09-.07-.06-.05-.08-.02-.09-.04-.08-.04-.06-.01-.1.01-.1.02-.18-.02q-.13-.02-.25-.06-.13-.05-.26-.05-.12 0-.17.05-.06.06-.1.13l-.06.12q-.04.05-.12.05h-.03q.03.13.07.21.03.09.08.16.04.06.12.13l.17.13.04.02.04.05.05.03.03.02q.07 0 .13-.03.06-.04.12-.04.05 0 .1.03.03.02.08.02l.1-.02q.03-.02.08-.02h.04l.05.01q.11.04.23.04h.24q.08 0 .17.03.1.03.17.08l.16.1.12.14.08.1.1.08.07.1q.04.05.05.12l.06.17q.03.1.03.17zm4.22-.2q0 .13-.03.24l-.06.22-.08.22-.05.23q-.04.2-.14.32-.1.13-.26.2-.15.08-.33.12-.18.04-.37.06l-.38.02-.34.03q-.06-.04-.1-.1l-.07-.1-.08-.07q-.04-.02-.11-.02-.03 0-.04-.07l-.03-.14q0-.08-.02-.14-.01-.07-.04-.07-.09 0-.14-.04-.05-.04-.08-.1-.03-.06-.04-.13l-.01-.15-.02-.1-.06-.09-.05-.1q-.02-.04-.02-.1v-.14l.02-.18v-.18l.02-.15.01-.12.04-.08.04-.06q.02-.03.02-.07 0-.04-.02-.07l-.02-.07q0-.04.03-.08l.04-.08q.04-.18.04-.34v-.14q-.1-.07-.2-.1l-.23-.02-.2-.03q-.1-.02-.18-.08l-.1-.12q-.05-.07-.13-.1l-.1-.05q-.03-.03-.03-.1 0-.09.06-.14.05-.05.13-.07.08-.04.16-.05.09-.03.15-.07.06-.04.14-.04h.13q.1 0 .16-.03.07-.04.1-.1.05-.05.06-.12l.01-.16-.01-.25q-.02-.11-.02-.24 0-.14.04-.26.04-.13.15-.23l.05-.05.06-.06.06-.05.07-.02.04.02.04.02q.09.08.1.13.04.04.04.1v.16l.02.24q.03.12.03.2 0 .08-.03.15l-.02.14q0 .06.02.1l.06.1.06.08q.03.04.03.1.04.03.17.05l.3.04.35.02h.28q.1 0 .16.02l.09.04.07.03.08.03q.06 0 .1.03.05.02.05.1 0 .1-.05.15-.04.05-.12.08-.07.03-.15.03h-.61q-.18 0-.34.03-.15.03-.26.11-.11.09-.17.22-.06.14-.06.34t.02.39q.03.2.03.39v.3q.01.11.05.2.05.1.08.25.03.14.08.27t.14.22q.09.09.26.09l.15-.02.2-.04q.1-.04.17-.09.07-.05.07-.13 0-.07-.04-.14t-.04-.14q0-.06.02-.1l.07-.07q.04-.04.09-.06l.09-.05q.07-.09.16-.15.1-.06.22-.06.08 0 .15.03l.13.07.02.14z" aria-label="Past"/><path fill="#222" d="M48.97 67.68q0 .17-.1.26-.09.1-.25.1l-.1-.01-.11-.03q-.07-.09-.1-.21l-.05-.27-.05-.26q-.02-.13-.08-.24-.06-.1-.16-.16-.1-.07-.26-.07l-.21.02q-.1.02-.21.02h-.13l-.16-.01-.14-.03q-.07-.01-.12-.04l-.04-.02h-.34l-.12.04-.1.05-.16.05-.11.04-.05.07v.2l-.02.1v.09l.01.28.01.28q0 .1-.02.18l-.01.18q0 .08.03.1l.08.06.08.03q.04.02.04.08h.1q.13 0 .26-.03l.25-.07q.08-.02.12-.11.03-.1.04-.21l.01-.24q0-.12.02-.18 0-.05.03-.1t.08-.08q.04-.04.09-.06l.1-.02q.06 0 .1.02.08.05.12.11.04.07.05.14v.16q0 .09.02.16v.21l-.01.37q-.02.18-.02.37l.01.2.05.2.02.12q0 .07-.02.13l-.01.13v.07l.01.07q0 .06-.03.13l-.07.11q-.04.05-.1.09-.06.04-.1.04-.08 0-.14-.06-.06-.06-.1-.13l-.08-.13-.02-.08.01-.02.04-.02.04-.03q.02-.01.02-.04 0-.02-.02-.03l-.04-.02-.04-.02q-.02-.02-.02-.06l.01-.04.02-.02.02-.02v-.02l-.02-.07-.07-.1q-.04-.05-.09-.08-.05-.03-.09-.03l-.11.02-.12.02-.1-.02-.08-.02q-.04 0-.09.03l-.1.08-.08.1-.06.06q-.03.03-.04.1v.1l.01.27.02.26v.36l.02.15.05.13q.03.06.08.07.08.03.19.02h.07l.2.02q.09.02.13.1.04.07.06.15l.02.16-.02.1q0 .06-.03.11-.02.05-.07.09-.04.03-.1.03-.1 0-.24-.03-.12-.02-.25-.02-.1 0-.19.02l-.3.06h-.49l-.2-.02q-.09-.02-.16-.06-.06-.05-.06-.12l.01-.18q.01-.09.05-.17.04-.08.1-.13.07-.05.18-.05h.07l.07.01q.07 0 .1-.02l.07-.06.04-.06q.03-.03.07-.04l-.02-.24-.01-.24.02-.21q.02-.1.07-.2-.04-.04-.06-.14l-.03-.22v-.26q0-.07.02-.13l.02-.14v-.05l-.01-.06v-.07q.01-.02.03-.02l.02-.02v-.04l-.02-.2q-.03-.1-.03-.2l.02-.17.02-.18-.02-.35q-.02-.17-.02-.35l-.01-.2q-.02-.11-.06-.21-.04-.1-.12-.17-.07-.06-.19-.06h-.1l-.11.01h-.1l-.09-.05q0-.08-.03-.15-.03-.07-.03-.14 0-.06.04-.09.05-.04.12-.05l.16-.03.18-.01h.2l.16.01h.13l.16-.02q.08-.01.15-.04.07-.04.1-.1l.08.02.07.04.07.04.08.02.1-.02q.05-.03.1-.03.06 0 .1.02.03.02.09.02l.2-.02.21-.05.21-.05q.1-.02.21-.02.08 0 .14.02.06.02.12.07.16-.06.35-.06h.1l.17.02.15.02.08.03.04.06.02.1q0 .06.02.1l.03.08.04.02.05.01.04.03q.02 0 .03.04v.18l.04.18.05.17.06.18.05.18.02.18zm-4.12 3.77q0-.06-.03-.11-.02-.05-.09-.05v.05q0 .07.02.11.03.05.1.06v-.06zm9.2.03q0 .07-.05.15-.04.08-.11.14-.07.07-.15.11-.08.05-.15.05-.12 0-.23-.02-.12-.02-.25-.02l-.13-.01q-.08 0-.1-.04-.1-.02-.14-.07l-.08-.11-.07-.12q-.04-.06-.11-.09l-.4.2-.33.15q-.16.07-.36.1-.18.05-.44.05l-.17-.01q-.05-.01-.07-.04-.03-.02-.05-.07l-.08-.1-.06-.04h-.07q-.04 0-.07-.02-.03-.01-.04-.08l-.05-.1-.08-.13-.1-.11-.08-.08v-.38q0-.4.02-.78.03-.38.03-.77v-.16l-.03-.21q0-.1-.04-.19-.03-.09-.1-.1-.08-.02-.18-.02h-.18q-.09 0-.17-.03-.08-.02-.16-.1l-.08-.1q-.03-.07-.03-.13 0-.1.08-.17t.2-.11l.24-.06.2-.02q.2 0 .4.06t.36.2v.03q0 .12.03.23.02.1.02.22l-.01.12q-.02.05-.02.12 0 .07.02.13l.01.14v.08l-.01.09.02.24q.03.1.03.23l-.02.2-.06.2-.05.21-.02.2q0 .15.06.27.05.13.15.22.1.1.22.15.13.05.27.05.13 0 .2-.03.08-.02.12-.06l.08-.05q.03-.03.06-.03l.06.01h.05q.06 0 .1-.02l.05-.05.06-.06.08-.05q.09-.01.16-.05.06-.03.06-.14v-.03q.01-.02.05-.02l.02.01.03.02.03-.04q0-.03.02-.05.02-.07.07-.13.05-.05.06-.12 0-.08.04-.14.03-.07.03-.15 0-.06-.03-.11-.04-.05-.04-.12 0-.08.03-.16t.03-.16l-.05-.07-.02-.07q0-.07.03-.09.02-.02.02-.05l-.02-.07-.04-.07-.04-.07-.02-.08.01-.07.02-.08q0-.07-.03-.11-.03-.05-.08-.08-.04-.04-.1-.05l-.1-.03-.18-.01q-.07 0-.12-.02-.05-.02-.1-.07-.04-.04-.09-.15-.03-.06-.03-.1 0-.1.09-.15.08-.06.2-.09.1-.03.22-.04h.31l.12.01q.07 0 .13-.02.07-.03.13-.03.1 0 .16.05.06.06.09.14.03.08.04.2l.01.2v.28l-.01.2q0 .18.03.32.03.15.03.27l-.02.08-.03.08-.04.08-.02.08.01.05.03.23q-.02.01-.02.04v.16q.02.06.02.13l-.01.15-.02.14q0 .18.12.28.13.1.3.1.09 0 .18-.04.03.06.08.1l.1.1.07.1q.04.05.04.12zm4.02-1.14q0 .13-.03.24l-.06.22-.07.22q-.04.1-.06.23-.03.2-.14.32-.1.13-.25.2-.15.08-.34.12-.17.04-.37.06l-.37.02-.34.03q-.06-.04-.1-.1l-.08-.1-.07-.07q-.05-.02-.12-.02-.02 0-.04-.07l-.02-.14-.03-.14q-.01-.07-.03-.07-.1 0-.15-.04-.05-.04-.08-.1-.03-.06-.04-.13v-.15q0-.05-.03-.1l-.05-.09-.05-.1q-.02-.04-.02-.1v-.14l.01-.18.01-.18.01-.15q0-.07.02-.12l.04-.08.04-.06q.02-.03.02-.07 0-.04-.03-.07l-.02-.07q0-.04.03-.08l.04-.08q.04-.18.04-.34v-.14q-.1-.07-.2-.1l-.22-.02-.21-.03q-.1-.02-.17-.08l-.11-.12q-.05-.07-.13-.1l-.09-.05q-.03-.03-.03-.1 0-.09.05-.14.06-.05.14-.07.08-.04.16-.05l.14-.07q.06-.04.14-.04h.14q.1 0 .16-.03.07-.04.1-.1.04-.05.05-.12l.02-.16q0-.13-.02-.25l-.01-.24q0-.14.04-.26.03-.13.14-.23l.05-.05.06-.06.07-.05q.03-.02.07-.02.02 0 .03.02l.04.02q.09.08.11.13.03.04.03.1v.16q0 .12.03.24t.03.2q0 .08-.03.15-.03.07-.03.14 0 .06.02.1l.06.1q.04.03.07.08.02.04.02.1.04.03.18.05l.3.04.34.02h.29q.1 0 .15.02l.1.04.06.03.09.03q.06 0 .1.03.05.02.05.1 0 .1-.05.15-.05.05-.12.08-.07.03-.16.03h-.6q-.19 0-.34.03-.15.03-.27.11-.1.09-.17.22-.06.14-.06.34t.03.39l.02.39v.3l.05.2q.06.1.09.25l.07.27q.06.13.14.22.1.09.26.09l.16-.02.2-.04q.1-.04.16-.09.07-.05.07-.13 0-.07-.04-.14t-.04-.14q0-.06.03-.1l.06-.07.1-.06.08-.05q.07-.09.17-.15t.21-.06q.08 0 .15.03l.14.07.01.14zm5.17 1.14q0 .07-.05.15-.04.08-.11.14-.07.07-.15.11-.07.05-.14.05-.13 0-.24-.02-.12-.02-.25-.02l-.13-.01q-.08 0-.1-.04-.1-.02-.14-.07l-.08-.11-.07-.12q-.03-.06-.1-.09-.23.1-.4.2l-.34.15q-.16.07-.35.1-.2.05-.45.05l-.17-.01q-.04-.01-.07-.04-.03-.02-.05-.07l-.08-.1-.06-.04h-.07q-.04 0-.07-.02-.03-.01-.04-.08l-.05-.1-.08-.13q-.04-.06-.1-.11l-.08-.08v-.38q0-.4.02-.78.03-.38.03-.77v-.16l-.02-.21-.05-.19q-.03-.09-.1-.1-.08-.02-.17-.02h-.18q-.1 0-.18-.03-.08-.02-.16-.1l-.08-.1q-.03-.07-.03-.13 0-.1.08-.17t.2-.11l.24-.06.2-.02q.21 0 .4.06.2.06.36.2v.03q0 .12.03.23.03.1.03.22l-.02.12q-.02.05-.02.12 0 .07.02.13l.01.14v.08l-.01.09.02.24q.03.1.03.23l-.02.2-.06.2-.05.21-.02.2q0 .15.06.27.06.13.15.22.1.1.23.15.13.05.27.05.12 0 .2-.03.07-.02.12-.06l.07-.05q.03-.03.06-.03l.06.01h.05q.06 0 .1-.02l.05-.05.06-.06.08-.05q.1-.01.16-.05.06-.03.06-.14v-.03q.02-.02.05-.02l.02.01.04.02.02-.04.02-.05q.02-.07.07-.13.05-.05.06-.12 0-.08.04-.14.03-.07.03-.15 0-.06-.03-.11-.04-.05-.04-.12 0-.08.03-.16t.03-.16l-.05-.07-.02-.07q0-.07.03-.09.02-.02.02-.05l-.02-.07q-.01-.04-.04-.07l-.04-.07-.02-.08.01-.07.02-.08q0-.07-.03-.11-.03-.05-.07-.08-.05-.04-.1-.05l-.12-.03-.16-.01q-.07 0-.13-.02-.05-.02-.1-.07-.04-.04-.09-.15l-.02-.1q0-.1.08-.15.08-.06.2-.09l.22-.04h.31l.12.01q.07 0 .13-.02.07-.03.14-.03.09 0 .15.05.06.06.09.14.03.08.04.2l.02.2q0 .15-.02.28v.2q0 .18.03.32.03.15.03.27l-.02.08-.03.08-.04.08-.02.08q0 .03.02.05l.02.23q-.02.01-.02.04v.16q.02.06.02.13l-.01.15-.02.14q0 .18.12.28.13.1.3.1.09 0 .18-.04.03.06.08.1l.1.1.07.1q.04.05.04.12zm4.64-2.6q0 .08-.03.13l-.07.1-.07.1q-.04.06-.05.13-.03-.02-.07-.02h-.27l-.18.02q-.1 0-.17-.06-.07-.07-.11-.16l-.06-.2-.01-.2q0-.1.03-.22l-.05-.01q-.05 0-.07.03-.02.03-.06.03-.04 0-.07-.02-.02-.03-.06-.03-.06 0-.15.04-.09.03-.17.1-.08.05-.14.12-.06.07-.06.13-.08 0-.16.05-.07.03-.13.08-.06.03-.1.1l-.06.14-.06.15q-.02.08-.06.13l-.12.17q-.05.1-.05.2 0 .14.05.28.04.14.04.28 0 .1-.02.19v.18q0 .11.03.18.04.07.1.1.07.04.16.05l.18.01h.35q.03.02.04.05v.06l-.02.06-.01.06v.04q.06 0 .1-.02.05-.03.07-.09.03 0 .05.02.02.02.02.05l-.01.05-.03.04-.03.04v.11q-.01.03-.05.04l-.07.01q-.06 0-.1-.02l-.08-.04-.06-.04q-.02-.02-.06-.02h-.05l-.06.03q-.03 0-.06.03-.02.01-.02.03 0 .03.02.05l.02.06-.02.04-.04.02h-.06l-.05.01q-.15 0-.3-.03t-.3-.03q-.07 0-.14.03t-.15.03q-.05 0-.07-.02l-.03-.04-.04-.04q-.02-.02-.06-.02l-.15.02-.14.03-.15.03-.14.01h-.1l-.1-.04q-.05-.02-.09-.06-.03-.03-.03-.08l.03-.09.1-.1.08-.08.07-.03h.25q.11 0 .22-.03.1-.03.2-.1.08-.06.14-.15.05-.1.05-.21v-.1l-.02-.1q0-.1.03-.2l.02-.2q0-.14-.03-.29-.03-.14-.03-.28v-.26l.01-.26V69q0-.11-.03-.22-.02-.12-.06-.2-.05-.09-.12-.09l-.18.02q-.08.02-.17.02h-.16l-.17-.05q-.08-.03-.14-.08-.06-.06-.06-.15 0-.1.03-.15.03-.07.07-.1l.1-.04.14-.01h.5l.25-.02h.17q.09.01.17.04.08.02.11.1.04.05.06.12l.07.12q.04.05.13.05.04 0 .07-.02l.06-.05.07-.05.07-.03q.09-.01.16-.06l.14-.08.14-.08q.08-.03.16-.03l.13-.02q.08 0 .15-.03l.14-.05q.08-.03.11-.07.11 0 .25.05.14.04.27.12.14.07.23.16.1.1.12.22 0 .08.04.14l.06.14.07.13q.02.06.02.14zM72 70.9q0 .11-.04.18-.03.08-.08.14-.05.06-.12.1l-.14.12-.1.07-.08.03-.09.04-.1.04-.13.07-.1.06-.12.04-.16.04-.31.04q-.16.03-.32.03l-.06-.02-.08-.02-.1-.03-.12-.01q-.08 0-.13-.03l-.08-.05-.08-.07q-.03-.04-.1-.06-.23-.1-.4-.26-.16-.15-.28-.33-.11-.18-.2-.4-.07-.21-.12-.45-.05-.16-.05-.32 0-.22.1-.4-.04-.11-.04-.21 0-.08.05-.22l.1-.3.16-.27q.08-.12.15-.14l.07-.03q.03-.02.03-.08 0-.05.03-.08l.1-.05.1-.04.09-.03.27-.12.26-.08.27-.05.3-.01q.1 0 .17.02.09.02.16.06l.15.08.15.09q.05 0 .1.04l.12.03.14.13q.09.05.17.12l.14.14q.06.08.06.18v.06l.01-.02.03.04.03.07.02.06v.05q.04.05.1.08.05.04.08.09-.04.04-.04.1 0 .07.02.13.03.07.03.13v.16l-.01.14q0 .06-.05.1l-.1.05-.1.05q-.03.02-.03.06 0 .03-.04.03h-.06q-.17 0-.35-.04-.16-.05-.33-.05-.19 0-.37.03-.17.02-.36.02h-.27l-.27-.01-.13.01-.21.04-.2.05q-.1.03-.14.06v.05q0 .18.1.38.11.2.29.35.17.16.39.27.22.1.44.1l.26.02q.12 0 .25.05.1-.05.19-.12.09-.06.17-.14l.16-.15.16-.15q.01-.02.07-.03l.14-.03.13-.01h.09q.09 0 .17.02l.02.17Zm-.59-1.58-.02-.12-.03-.1-.02-.22q0-.1-.03-.21l-.02.05q-.01.02-.04.02-.05 0-.09-.03-.04-.02-.07-.06l-.27-.12-.24-.1q-.12-.05-.26-.07-.13-.03-.3-.03h-.04l-.02.02.02.04h-.03l-.18.05-.12.04-.1.08-.14.11q-.04.04-.09.06l-.09.03-.08.03q-.04.01-.07.05-.03.1-.08.19t-.05.19q0 .06.05.1.05.05.12.08l.17.05.18.04.17.02h.12l.3-.02q.14-.04.28-.04.16 0 .3.02l.31.01h.12q.08 0 .15-.02l.14-.05q.05-.04.05-.1z" aria-label="Future"/><path fill="#222" d="m27.91 16.4-.01.19-.02.2-.03-.03-.03-.01-.04.01-.02.04q0 .02.02.03h.07l-.01.05-.03.05-.04.05-.04.03-.02.03-.03.05-.04.03q-.01.02-.03.02l-.03-.01-.03-.01q-.02 0-.03.02v.06l-.04.03-.1.04-.12.03-.1.04-.16.05-.17.02-.13-.01-.12-.04-.12-.04-.12-.01h-.07l-.06.03-.02.03q0 .02-.02.02l-.03-.01-.03-.01-.07-.06-.05-.09q-.03-.04-.04-.1v-.32l-.01-.08v-.07q.02-.03.02-.07l-.01-.04-.02-.05q0-.02.02-.03l.01-.03v-.17l.02-.04.02-.01q.04 0 .07.04l.07.1.05.12.02.09v.02h-.03l.02.05.01.04v.04l-.01.05v.04l.02.03.03.04.03.01h.03l.04.01q.04.06.09.1l.1.1.18.03h.3l.1-.05.09-.05.09-.07.07-.05.07-.04.06-.05q.04-.03.06-.07l.04-.05q.02-.02.02-.05v-.02l-.01-.12v-.12l-.03-.1-.06-.04-.06-.04-.08-.06q-.03-.03-.08-.04l-.1-.02h-.1q-.04 0-.08-.04h-.05l-.04.01h-.06l-.06-.02-.06-.02-.06-.01-.06-.01h-.05l-.04-.02-.06-.04q-.1-.06-.21-.1l-.06-.1-.04-.03-.04-.03-.03-.07-.04-.1-.03-.11-.01-.07v-.09l.05-.07.02-.01v-.03q-.02 0-.02-.02v-.02l.04-.08.06-.07.08-.07.07-.06q.03-.01.04-.04.02-.03.05-.04h.11q.02 0 .03-.02l.01-.02.02-.01.05-.01h.58l.08.02.07.01.05-.01.02-.03q0-.02.02-.03l.04-.01.09.02.08.03v.12l.02.06.03.06v.15q0 .04.02.06l.01.02-.01.03q-.02.01-.02.03l.01.1v.23l-.03.06q0 .02-.04.02-.03 0-.05-.02l-.05-.05-.04-.05-.01-.07-.02-.07-.03-.06-.06-.1-.06-.09-.03-.05-.04-.01-.04-.01h-.05L27.1 15l-.07-.03-.07-.02h-.07l-.12.01-.11.05-.12.05-.1.05q-.06.1-.06.22 0 .09.02.14.02.06.06.1l.07.06.1.06q.05.04.1.05l.1.01h.22l.06.03.07.02.07.01h.15l.04.04.05.02q.02.02.05.02l.06.04.05.03.04.04.04.06q.02.04.06.07l.05.06.01.04v.03l.02.03.03.02v.08zm2.12.27v.12l-.04.11-.04.11-.03.11q-.01.1-.07.17-.05.06-.12.1-.08.04-.17.05l-.18.03-.2.02-.16.01-.05-.05-.04-.05-.04-.03q-.02-.02-.06-.02l-.01-.03-.02-.07-.01-.07q0-.04-.02-.04-.04 0-.07-.02-.03-.01-.04-.04l-.02-.07v-.07l-.02-.06-.02-.04-.03-.05v-.38q0-.03.02-.05 0-.03.02-.05l.02-.03v-.07l-.01-.03.01-.04.02-.04.02-.17v-.07q-.05-.04-.1-.05l-.11-.01-.1-.01q-.06-.01-.1-.05l-.05-.06q-.02-.03-.06-.04l-.05-.03-.01-.05q0-.04.02-.07l.07-.04.08-.02q.05-.01.08-.04.02-.02.07-.02h.06l.08-.01q.04-.02.05-.05l.03-.06v-.32l.01-.14q.02-.06.08-.1 0-.02.02-.03l.03-.03.03-.03h.08l.05.07.01.05v.08q0 .07.02.13l.01.1-.01.07q-.02.03-.02.07 0 .03.02.05l.03.05.03.04.01.05q.02.02.09.03l.15.01.17.01h.14q.05 0 .08.02l.05.01.03.02.04.01q.03 0 .05.02.03.01.03.05 0 .05-.03.07-.02.03-.06.04-.03.02-.07.02h-.31l-.17.01q-.07.02-.13.06-.05.04-.09.11-.02.07-.02.17v.2l.02.19v.15q0 .06.03.1l.04.13q.01.07.04.13.02.07.06.11.05.04.14.04h.07l.1-.03q.05-.01.09-.04.03-.03.03-.07l-.02-.06-.02-.08.01-.04.04-.04.04-.03.04-.02q.04-.05.09-.08.05-.03.1-.03l.08.01.07.04v.07zm2.36-.73q0 .04-.02.07l-.04.05-.03.05-.03.06-.03-.01h-.14l-.08.01q-.06 0-.1-.03l-.05-.08-.02-.1-.01-.1.02-.11h-.03l-.04.01q0 .02-.03.02l-.03-.02-.03-.01-.08.02-.08.05-.07.06q-.03.03-.03.07l-.08.02-.07.04-.04.05-.03.07-.03.08-.04.06-.06.09q-.02.04-.02.1l.02.13q.02.07.02.15v.19l.01.08.05.05.08.03h.27l.01.03v.05l-.01.04v.02q.03 0 .05-.02l.03-.04.03.01.01.03v.02l-.02.02-.01.02-.01.02v.03q0 .02-.02.03h-.09l-.03-.03-.03-.02-.04-.01h-.02l-.03.01q-.02 0-.03.02l-.01.01.01.03.01.03v.02l-.03.01h-.05l-.16-.01q-.07-.02-.15-.02l-.07.02-.07.01h-.04l-.01-.03-.02-.02h-.1l-.08.02-.07.01-.07.01h-.05l-.05-.02-.04-.03-.02-.04.02-.04.04-.05q.02-.03.05-.04l.03-.02h.13l.1-.01.1-.05q.04-.03.07-.08.03-.05.03-.1v-.22l.02-.1-.02-.14-.01-.14V16l-.01-.12-.04-.1q-.02-.04-.06-.04l-.08.01-.1.01h-.07l-.09-.02-.07-.05q-.03-.02-.03-.07t.02-.08l.03-.04.06-.03h.31l.13-.01h.09l.08.02q.04.01.05.05l.04.06.03.06q.02.03.06.03l.04-.01.03-.03.03-.02.04-.02q.04 0 .08-.03l.07-.04.07-.04.08-.02h.06l.08-.02.07-.03.06-.03.12.02.14.06.11.09q.05.05.06.1l.02.08.03.06.03.07q.02.03.02.07zm2.54 1.3-.02.08q-.02.04-.06.07l-.07.05-.07.02h-.12l-.12-.02h-.07q-.04 0-.05-.02-.05 0-.07-.04l-.04-.05-.03-.06q-.02-.03-.06-.04l-.2.09-.16.08-.18.05q-.1.02-.23.02h-.08l-.04-.02-.02-.03q0-.03-.04-.06l-.03-.01h-.03l-.04-.01-.02-.04-.02-.06-.05-.06-.04-.06-.04-.03v-.59l.02-.4v-.07l-.01-.1q0-.06-.03-.1-.01-.04-.04-.05h-.1l-.08-.01-.09-.01-.08-.06-.04-.05-.02-.06q0-.05.04-.08l.1-.06.13-.03.1-.01q.1 0 .2.03t.17.1v.01l.02.12.01.11v.06l-.01.06v.07l.01.06v.21q.02.05.02.12l-.01.1-.03.1-.02.1-.02.1q0 .07.03.14.03.06.08.1.05.05.11.08l.14.02h.1l.06-.04.04-.03h.08l.05-.01.03-.03.03-.03q.01-.02.04-.02l.07-.03q.04-.02.04-.07v-.02h.03l.02.01.01-.02v-.03l.04-.06.04-.06q0-.04.02-.07l.01-.07q0-.04-.02-.06l-.01-.06.01-.08.02-.08-.03-.03v-.09q.02 0 .02-.02l-.01-.03-.02-.04-.03-.04v-.07l.01-.04-.02-.06q0-.02-.03-.04l-.05-.02-.06-.02h-.08l-.06-.01-.05-.03-.05-.08-.01-.05q0-.05.04-.08t.1-.04l.11-.02h.28q.03-.02.07-.02.04 0 .07.03.03.02.05.07.02.04.02.1v.34l.01.16.02.13v.04l-.03.04-.02.04v.07l.02.1-.02.03v.08l.02.06-.01.08v.07q0 .1.05.14.06.05.15.05l.1-.02q0 .03.03.05l.05.05.04.05.01.06zm2.09-.28q0 .02-.02.03l-.03.02q-.02 0-.03.02l-.03.04-.02.04q0 .02-.02.03-.03.05-.08.06l-.09.03q-.05.01-.09.04-.03.02-.04.08h-.01q-.05 0-.09.02l-.07.03-.08.04-.08.01h-.05l-.04-.02-.04-.02-.04-.01h-.17l-.06-.01-.04-.03q-.02-.02-.02-.05v-.02l-.02.02h-.02q-.06 0-.1-.02l-.1-.07-.08-.08-.08-.08-.07-.1q-.02-.07-.06-.12-.07-.11-.08-.23l-.02-.24v-.06q0-.03.02-.04l.02-.01.02-.01.02-.02v-.06l-.02-.05v-.04l.03-.03.02-.08.03-.12.04-.1q.02-.05.06-.05h.05l.05.01h.05v-.02q0-.02-.02-.03h-.06l-.01-.03v-.02l.03-.01.03-.02.03-.01.02-.03.02-.03.02-.02.04-.02h.11l.06-.01.05-.01-.02-.02.03-.03.04-.02H36l.13.01q.06.02.13.02h.05l.05-.01q.05 0 .08.02l.07.04.04-.01.02-.02.02.01v.02l.05.02q.03 0 .04.02l.03.03.03.01.04.01.04.02v.05l.07.08.06.06q.03.03.04.07.02.04.02.12 0 .09-.02.15-.01.06-.05.1-.03.05-.1.08-.06.02-.15.01h-.12l-.05-.07-.06-.1-.05-.09-.02-.07v-.05l.01-.06q-.01-.04-.04-.06-.02-.03-.05-.04l-.06-.02h-.17l-.1.03v-.03l-.04-.01-.06.02-.08.05-.08.06-.05.05-.03.06-.05.09-.06.07q-.02.03-.05.03l.02.08.01.1.02.1v.06q0 .05.02.09l.02.08-.01.07-.01.06v.04l.04.02q.03 0 .05.03l.02.05q0 .03.02.04.01.02.05.02h.03l.03.07q0 .04.03.07l.01-.01.01-.02.01-.02h.07l.03.03.02.03h.11l.08-.03.08-.04.08-.03q.08-.02.15-.06.07-.05.1-.12l.06-.07.05-.08h.15v.04l-.03.02-.03.02v.03h.01l.06.01.08.04q.04.01.07.04.03.03.03.05zm-.14.11-.01-.02h-.02l-.03.01v.04h.04q.02-.01.02-.03zm2.26-.4-.02.12-.03.11-.04.11-.02.11q-.02.1-.07.17-.06.06-.13.1-.08.04-.17.05l-.18.03-.2.02-.16.01-.05-.05-.04-.05-.04-.03q-.02-.02-.05-.02-.02 0-.02-.03l-.01-.07-.02-.07q0-.04-.02-.04-.04 0-.07-.02l-.04-.04-.02-.07v-.07l-.01-.06-.03-.04-.03-.05v-.31l.01-.07v-.05l.03-.05.02-.03v-.07l-.01-.03.01-.04.02-.04.02-.17v-.07q-.05-.04-.1-.05l-.11-.01-.1-.01q-.06-.01-.1-.05l-.04-.06q-.03-.03-.07-.04l-.04-.03q-.02-.02-.02-.05 0-.04.03-.07l.06-.04.08-.02q.05-.01.08-.04.03-.02.07-.02h.07l.08-.01.05-.05q.02-.02.02-.06v-.32l.01-.14q.02-.06.08-.1 0-.02.02-.03l.03-.03.03-.03h.08l.05.07q.02.02.02.05v.08l.01.13.02.1q0 .04-.02.07l-.01.07v.05l.04.05.03.04.01.05q.02.02.09.03l.15.01.17.01h.14q.06 0 .08.02l.05.01.03.02.04.01q.04 0 .06.02.02.01.02.05 0 .05-.03.07-.02.03-.06.04-.03.02-.07.02h-.3l-.17.01q-.08.02-.14.06-.05.04-.08.11t-.03.17v.2l.02.19v.15q0 .06.03.1l.04.13q.01.07.04.13.02.07.07.11.04.04.13.04h.08l.1-.03.08-.04q.03-.03.03-.07l-.02-.06-.02-.08.01-.04.04-.04.04-.03.05-.02q.03-.05.08-.08t.1-.03l.08.01.07.04v.07zm2.58.57-.02.08-.06.07-.07.05-.08.02h-.12q-.05-.02-.12-.02h-.07q-.03 0-.05-.02-.04 0-.06-.04-.03-.02-.04-.05l-.04-.06q-.02-.03-.05-.04l-.2.09q-.08.05-.17.08l-.18.05q-.09.02-.22.02h-.08q-.03 0-.04-.02l-.02-.03-.04-.06-.03-.01h-.04l-.03-.01-.03-.04-.02-.06-.04-.06-.05-.06-.04-.03v-.2l.01-.38.02-.4v-.07l-.02-.1q0-.06-.02-.1l-.04-.05h-.1l-.09-.01-.08-.01q-.05-.02-.08-.06l-.04-.05-.02-.06q0-.05.04-.08.04-.04.1-.06l.12-.03.1-.01q.1 0 .2.03t.18.1v.01l.02.12v.45l.01.12q.02.05.02.12l-.02.1-.02.1-.03.1-.01.1q0 .07.03.14.03.06.08.1l.1.08.14.02h.1l.06-.04.04-.03h.09l.04-.01.03-.03.03-.03.04-.02.08-.03q.03-.02.03-.07v-.02h.04l.01.01.02-.02v-.03l.04-.06q.03-.03.03-.06 0-.04.02-.07l.02-.07q0-.04-.02-.06l-.02-.06.01-.08.02-.08-.02-.03-.01-.04v-.05q.02 0 .02-.02v-.03l-.03-.04-.02-.04v-.1l-.01-.06-.04-.04-.05-.02-.05-.02h-.09l-.06-.01-.05-.03-.04-.08-.02-.05q0-.05.04-.08l.1-.04.12-.02h.28l.06-.02q.05 0 .08.03.03.02.04.07l.03.1v.5q.03.07.03.13l-.01.04-.02.04-.02.04v.07l.01.1-.01.03v.08l.01.06v.08l-.01.07q0 .1.06.14.06.05.14.05l.1-.02.03.05.05.05q.03.02.04.05.02.02.02.06zm2.32-1.3-.01.07-.04.05-.04.05-.02.06-.04-.01h-.13l-.09.01q-.05 0-.09-.03l-.05-.08-.03-.1v-.1l.01-.11h-.02l-.04.01q-.01.02-.03.02-.02 0-.03-.02l-.04-.01-.07.02-.08.05-.08.06q-.03.03-.03.07-.04 0-.07.02l-.07.04q-.03.01-.04.05l-.04.07-.03.07-.03.07-.06.09q-.02.04-.02.1l.02.13q.02.07.02.15v.09l-.01.1q0 .05.02.08l.05.05.08.03h.26q.02.01.02.03v.02l-.01.03v.06q.03 0 .05-.02l.03-.04.02.01q.02 0 .02.02l-.01.03-.01.02-.02.02v.05q0 .02-.02.03h-.09l-.04-.03-.03-.02-.03-.01h-.02l-.03.01q-.02 0-.03.02l-.01.01v.03q.02.01.02.03l-.01.02-.03.01h-.05l-.15-.01q-.07-.02-.15-.02-.04 0-.07.02l-.08.01h-.03l-.02-.03-.01-.02h-.11l-.07.02-.07.01-.07.01H42q-.03 0-.05-.02l-.05-.03-.01-.04.01-.04.05-.05.04-.04.04-.02h.12l.1-.01.1-.05q.05-.03.08-.08t.03-.1v-.06l-.01-.05.01-.1.01-.1-.01-.14-.02-.14v-.46l-.04-.1q-.02-.04-.06-.04l-.09.01-.09.01h-.07l-.09-.02-.07-.05q-.03-.02-.03-.07l.01-.08.04-.04.05-.03h.32l.13-.01h.08l.09.02q.03.01.05.05l.03.06.04.06q.02.03.06.03l.03-.01.04-.03.03-.02q.01-.02.04-.02.04 0 .07-.03l.08-.04.07-.04q.03-.02.08-.02h.06l.08-.02.07-.03.05-.03.13.02.13.06q.07.04.12.09.05.05.05.1l.03.08.03.06.03.07.01.07zm2.06 1.02q0 .05-.02.09l-.04.06-.06.06-.07.05-.05.04-.04.02-.04.01-.05.02-.07.04-.05.03-.06.02-.08.02-.16.02q-.07.02-.15.02l-.04-.01-.03-.02-.05-.01h-.06q-.04 0-.07-.02-.02 0-.04-.03l-.04-.03-.05-.03q-.11-.05-.2-.13-.08-.07-.14-.16l-.1-.2-.06-.23-.02-.16q0-.11.05-.2l-.02-.1.02-.12.05-.14.08-.14q.04-.06.07-.07l.04-.02.01-.04.02-.04.05-.02.05-.02.04-.01.14-.06.13-.04.14-.03h.23l.08.04.08.04.07.04q.03 0 .05.02l.06.01.07.07.08.06q.05.03.08.07.03.04.03.09v.03l.02.01v.03l.02.04v.02q.02.03.05.04l.04.05q-.02.01-.02.05l.01.06q.02.03.02.07v.07l-.01.08q0 .03-.02.04l-.05.03-.05.02q-.02.01-.02.04l-.02.01h-.03q-.09 0-.17-.02l-.17-.02-.18.01-.18.01h-.34l-.1.02-.1.03q-.06 0-.08.02v.03q0 .1.06.19.05.1.14.18.09.08.2.13.1.05.22.05h.12q.07.01.13.04l.1-.06.08-.07.08-.08.08-.08.04-.01.06-.01.07-.01h.13l.01.1zm-.3-.8v-.05l-.02-.06v-.1q0-.06-.02-.11l-.01.02-.02.01h-.05l-.04-.04-.13-.06-.12-.05-.13-.04-.15-.01h-.02v.03h-.01l-.1.02-.05.03-.06.04-.06.05-.05.03-.04.01-.05.02-.03.02-.04.1q-.02.04-.02.1l.02.05.06.04.09.02.09.02.08.01h.06l.15-.01.14-.02.15.01h.29l.07-.03q.03-.02.03-.05z" aria-label="Structure"/><path fill="#222" d="m37.47 12.26-.02.05q-.01.03-.04.05l-.05.04-.05.01h-.08l-.03.01-.01.03q0 .02-.02.03l-.05.01h-.09l-.1.01q-.04.02-.1.02l-.12-.01-.18-.05q-.1-.02-.16-.07-.07-.04-.07-.1 0-.04.05-.09l.12-.1q.06-.06.1-.13.06-.07.06-.16l-.02-.1q-.02-.06-.06-.1-.03-.05-.08-.09l-.08-.07h-.18l-.14.02H36q-.04-.02-.05-.06l-.14.06-.14.06-.06.02q-.02 0-.03.02l-.01.03-.02.06-.01.05v.04l-.01.06-.03.03-.03.04-.01.04v.05q0 .05.02.07l.05.04q.04 0 .07.02l.06.02.05.05.04.08.04.08.01.07v.01h-.03l-.21.01-.2.02-.21.02-.2.01h-.11l-.14-.02q-.07 0-.12-.03-.05-.03-.05-.08 0-.06.02-.1l.07-.05.1-.05.1-.03.09-.03.08-.04q.03-.03.05-.09l.03-.12.03-.14.01-.1v-.04l.01-.04v-.04l.01-.02.04-.05.02-.02v-.02l.01-.1.01-.04.03-.03.03-.03.01-.03q0-.04-.02-.07-.02-.03-.02-.07l.01-.03.02-.03.03-.03.01-.03-.01-.06-.01-.06.01-.03.03-.01h.03l.02-.02q-.01-.02-.03-.02-.03 0-.03.04l-.03-.03-.02-.04q0-.03.02-.05l.03-.05.03-.07.01-.08q0-.06-.02-.1l-.01-.11v-.05l.04-.05.03-.05.03-.06.01-.1v-.11l.01-.1q.01-.06.04-.11l.03-.07.03-.05.02-.05.01-.08q.01-.08.04-.15l.04-.14v-.1q0-.04.02-.07.01-.04.04-.06l.1-.05.13-.03h.3q0 .04.03.08l.05.07.06.07q.03.03.04.08l.02.11q0 .05.04.1.02.03.02.07l-.02.12-.01.11.02.11.05.17.05.18.04.13.02.2q0 .1.04.2l.05.21q.03.1.03.21 0 .1.03.2l.04.19.05.19.02.2-.01.08q0 .04-.03.07L37 12q.07.08.14.12.02.02.08.03l.1.02q.06 0 .1.03.05.02.05.07zm-1.1-1.4-.01-.07-.04-.08-.04-.1-.02-.12-.02-.14-.03-.14-.01-.12q0-.07-.03-.13-.02-.07-.06-.1-.04-.05-.13-.05l-.01.03-.03.02-.04.01q-.02 0-.03.02v.02q0 .05-.02.09l-.03.08-.03.1v.35l-.03.08-.02.07-.01.07v.13q0 .06.03.1.01.04.05.06l.1.01h.11l.16-.04.14-.06q.06-.04.06-.1zm1.1 17.79q0 .03-.02.05-.01.03-.04.05l-.05.04-.05.01h-.08l-.03.01-.01.03q0 .02-.02.03-.01.02-.05.02h-.04l-.05-.01-.1.01q-.04.03-.1.03l-.12-.02q-.1-.01-.18-.04-.1-.03-.16-.07-.07-.05-.07-.1t.05-.1l.12-.1q.06-.05.1-.12.06-.07.06-.17l-.02-.1q-.02-.06-.06-.1-.03-.05-.08-.09l-.08-.07h-.04l-.14.01-.14.01H36q-.04-.02-.05-.06l-.14.07-.14.05-.06.02q-.02 0-.03.02l-.01.03-.02.06-.01.05v.04l-.01.06-.03.04-.03.03-.01.05v.05q0 .04.02.06l.05.04q.04 0 .07.02l.06.02q.03.02.05.06l.04.07.04.08.01.07v.01h-.03l-.21.01-.2.02q-.1.02-.21.02l-.2.01h-.11l-.14-.01-.12-.04q-.05-.03-.05-.08 0-.06.02-.1l.07-.05q.04-.03.1-.04l.1-.04.09-.03.08-.04.05-.08.03-.13.03-.14.01-.1v-.03l.01-.04v-.04l.01-.03.04-.05.02-.02v-.02l.01-.1.01-.04.03-.03.03-.03.01-.03q0-.04-.02-.07l-.02-.06.01-.04.02-.03.03-.02.01-.04-.01-.06-.01-.06.01-.02.03-.02h.03l.02-.02q-.01-.02-.03-.02-.03 0-.03.04l-.03-.03-.02-.04q0-.03.02-.05l.03-.05.03-.06v-.2l-.02-.1v-.05l.04-.05.03-.05.03-.06.01-.1v-.11l.01-.1q.01-.06.04-.1l.03-.08.03-.05.02-.05.01-.08q.01-.08.04-.15l.04-.14v-.1q0-.04.02-.07l.04-.06.1-.04q.06-.03.13-.03l.13-.02.16.01q.01.05.04.08l.05.07.06.07.04.08.02.11q0 .06.04.1l.02.08q0 .06-.02.11l-.01.11.02.11.05.17.05.18.04.13.02.2q0 .1.04.2l.05.21q.03.1.03.21 0 .1.03.2l.04.2.05.18.02.2-.01.08q0 .05-.03.08l.12.14.14.12.08.02.1.02.1.03q.05.03.05.07zm-1.1-1.4-.01-.07-.04-.08-.04-.1-.02-.12-.02-.14-.03-.14-.01-.12q0-.07-.03-.13-.02-.06-.06-.1-.04-.05-.13-.05l-.01.04-.03.01-.04.01q-.02 0-.03.02v.02l-.02.1-.03.07-.03.1v.35l-.03.08-.02.07-.01.07v.13q0 .06.03.1.01.04.05.06.03.02.1.02l.11-.01.16-.04q.08-.02.14-.06.06-.04.06-.1z" aria-label="A"/><path fill="#222" d="M37.44 21.12v.05l-.02.06-.03.05q-.01.02-.03.02h-.04l-.03.01-.03.04-.04.04q-.02.02-.06.02h-.04l.02.1v.26l-.03.16-.02.17-.01.16v.19l.02.19v.09l-.03.08q-.02.04-.05.06-.04.03-.09.03-.07 0-.11-.04l-.07-.1-.05-.1q-.02-.05-.06-.05l-.04.02-.06.05-.08.05-.08.03q-.05 0-.07.03l-.03.03-.06.03-.12.01h-.49l-.08-.04-.07-.03q-.03-.03-.09-.04l-.07-.02-.04-.02-.04-.03-.06-.05-.05-.03-.04-.03-.05-.04-.01-.05-.01-.04-.02-.01h-.02l-.03-.02-.04-.1-.04-.1-.03-.1-.08-.08.01-.05q0-.06-.02-.1l-.04-.11-.05-.1-.02-.12v-.07l.01-.07-.01-.1-.02-.1-.03-.09-.01-.1v-.06l.03-.19.01-.19.02-.19.03-.19.04-.18.02-.18.05-.06.07-.06.07-.07.03-.07.04-.08.08-.1.1-.09.08-.04h.07l.03-.02q.02-.01.02-.03l-.01-.04.28-.05q.14-.03.28-.03h.1l.13.02q.07.01.12.04.05.03.05.08h.04l.08.02.08.02h.09l.09-.02.08-.03.07-.06q.05 0 .09.06.04.06.06.13l.03.15v.25l-.04.12.02.06.04.05.04.05.01.06-.02.14-.02.17q0 .09-.04.15-.03.07-.1.07-.06 0-.1-.04l-.05-.08q.04 0 .04-.03l-.02-.02-.04-.02-.04-.03-.03-.03-.04-.07-.03-.09-.02-.1V20q-.02 0-.04-.03l-.06-.07-.05-.07-.04-.05-.11-.1-.11-.09-.05.03h-.08l-.02-.03q-.02 0-.03-.02h-.15l-.11.02q-.06 0-.12-.03l-.12-.02h-.03l.01.05.01.05q0 .03-.03.07l-.07.06-.08.06-.06.06-.05.08-.03.08-.04.08-.07.06.02.1v.29l.02.17-.01.13-.03.14-.03.13-.01.13.01.12.04.1.03.1.01.1v.11q0 .1.04.19l.11.14.13.14q.06.07.08.16h.17l.1.03.08.02.1.01q.1 0 .2-.03l.19-.11q.09-.07.15-.16.07-.09.09-.19.02-.09.06-.17l.03-.04.03-.01h.02v-.03l-.01-.02-.02-.04.01-.02.03-.02.02-.04.01-.05q0-.06-.03-.09l-.08-.06-.1-.04-.1-.05-.07-.07q-.04-.04-.04-.12 0-.05.03-.09.03-.04.08-.06l.1-.04.1-.02.06-.01.08-.03.06-.03.06-.01.08.01q.03.02.07.02l.12.02.15.04.11.07q.05.04.05.11zm0 36v.05l-.02.06-.03.05q-.01.02-.03.02h-.04l-.03.01-.04.04-.03.04-.06.02h-.04l.02.1v.26l-.03.16-.02.17-.02.16q0 .1.02.19l.01.19v.09l-.03.08q-.02.04-.05.06-.04.03-.09.03-.07 0-.11-.04l-.07-.1-.05-.1q-.02-.05-.06-.05l-.04.02-.06.05-.08.05-.08.03q-.05 0-.07.03l-.03.03-.06.03-.12.01h-.49l-.08-.04-.07-.03q-.03-.03-.09-.04l-.07-.02-.04-.02-.04-.03-.06-.05-.05-.03-.05-.03-.04-.04-.02-.05v-.04l-.02-.01h-.02l-.03-.03-.05-.1-.03-.09-.04-.1q-.02-.04-.07-.08l.01-.05q0-.06-.02-.1l-.05-.11-.04-.1-.02-.12v-.07l.01-.08-.01-.1-.02-.08-.03-.1-.01-.1v-.06l.03-.19.01-.19.02-.19.03-.19.04-.18.02-.18.05-.06.07-.06.07-.07.03-.07.04-.08.08-.1.1-.09.08-.04h.07l.03-.02q.02-.01.02-.04l-.01-.03.28-.05q.13-.03.28-.03h.1l.13.02q.07.01.12.04.05.03.05.08h.04l.08.02.08.02h.09l.09-.02.08-.03.06-.06q.06 0 .1.06.04.06.06.13l.02.15.02.12-.02.13q0 .06-.03.12l.02.06.04.05.04.05.01.06q-.02.05-.02.14l-.02.17q0 .09-.04.15-.03.07-.1.07-.06 0-.1-.04l-.05-.08q.04 0 .04-.03l-.02-.02-.04-.02-.04-.03-.03-.03-.04-.07-.03-.09-.02-.1V56q-.02 0-.04-.03l-.06-.07-.05-.07-.04-.05-.11-.1-.11-.09-.05.03h-.08l-.02-.03q-.02 0-.03-.02h-.16l-.1.02q-.06 0-.12-.03l-.12-.02h-.03l.01.05.01.05q0 .03-.03.07l-.07.06-.08.06-.06.06-.05.08-.03.08-.04.08-.07.06.02.1v.29l.02.17q0 .07-.02.13l-.02.14-.03.13-.01.13.01.12.04.1.03.1.01.1v.11q0 .1.04.19l.11.14.13.14q.06.07.08.16h.17l.09.03.1.02.09.01q.1 0 .2-.04t.19-.1q.08-.07.15-.16.06-.09.09-.19.02-.09.06-.17l.03-.04.03-.01h.02v-.03l-.01-.02-.02-.04.01-.02.03-.03.02-.03.01-.05q0-.06-.03-.09l-.08-.06-.1-.04-.1-.05-.08-.07q-.03-.05-.03-.12 0-.05.03-.09.03-.04.08-.06.04-.03.1-.04l.1-.02.06-.01.08-.03.06-.03.06-.01.08.01q.03.02.07.02l.12.02.15.04.11.07q.05.04.05.11z" aria-label="G"/><path fill="#222" d="m37.45 49.58-.02.18-.04.21-.07.24-.07.23-.08.2-.07.16-.05.06-.07.05-.06.06q-.03.03-.03.06h-.06l-.1.03-.08.03-.05.03-.04.08v.02h-.04l-.08.01-.06.02-.08.02-.07.02h-.05l-.11-.01-.11-.02h-.07l-.18.06q-.09.02-.2.02l-.36-.05h-.08l-.09.01h-.1l-.1-.01-.03-.08-.03-.07-.03-.07-.01-.08q0-.07.03-.1.04-.03.09-.04l.1-.02q.07 0 .12-.03.05-.02.09-.07.03-.05.03-.15l-.01-.12-.02-.12-.02-.12-.01-.12V50q.02-.04.02-.09 0-.08-.02-.15v-.35l.01-.19q0-.09-.02-.17l-.01-.18v-.29q0-.06-.02-.11l-.02-.13q0-.06-.02-.11-.01-.06-.05-.1-.03-.03-.12-.05-.03 0-.04-.02-.02 0-.03-.02l-.03-.02-.06-.02q-.12-.01-.12-.13 0-.06.03-.1l.06-.1.08-.06.09-.07q.07-.05.13-.06l.12-.02h.26l.16-.01h.08l.1.02.04.02.05.01.06-.02q.02-.02.05-.02v.02q0 .02.02.02l.02-.02.03-.02.03.02.02.02.02.01h.14l.12-.01q.07 0 .13.02t.1.06q.06.03.11.08l.1.08q.04.04.08.05l.07.04.06.04.06.07q.02.06.06.1l.07.1.07.1.06.11q.06.15.09.32l.06.32.03.13.01.14-.01.07q-.02.03-.02.07l.01.04.02.04.02.04v.06zM37 49.4q0-.1-.03-.2t-.09-.18l.04-.06v-.23l-.01-.04-.04-.03-.03-.03-.03-.03-.01-.05v-.04l-.02-.04-.02-.05-.02-.04-.01-.04v-.06q0-.02-.03-.03l-.05-.03-.07-.01q-.04 0-.08-.03l-.1-.05-.09-.05q-.04-.02-.1-.02l-.14.01-.15.02-.13.01-.12.02q-.06.01-.1.05-.04.03-.04.1l.01.19.01.2-.01.4q-.02.2-.02.42l.01.19.01.2-.02.24-.02.26v.1l.01.12q.01.06.04.1.03.05.09.07l.16.05q.08.03.17.03l.1-.02.1-.04.07-.02.09-.02.08-.03.06-.05.08-.08q.04-.04.1-.05.03 0 .04-.02l.01-.04.02-.05q0-.02.03-.04.04-.03.06-.07.03-.04.04-.1l.01-.09.02-.1.07-.2q.04-.11.04-.22 0-.03-.02-.05l-.01-.05v-.02H37l.01-.03.01-.05zm.45-13.22-.02.18-.04.22-.07.23-.07.23-.08.21-.07.16-.05.05-.07.06-.06.06q-.03.03-.03.05l-.06.02-.1.02-.08.03-.05.03-.04.07v.03h-.04l-.08.01-.06.02-.08.02-.07.01-.05.01q-.06 0-.11-.02l-.11-.02q-.04 0-.07.02l-.18.05-.2.01-.36-.05-.08.02h-.19l-.1-.02-.03-.07-.03-.07-.03-.08-.01-.07q0-.07.03-.1.04-.03.09-.04l.1-.02q.07 0 .12-.03.05-.02.09-.07.03-.05.03-.15l-.01-.12-.02-.12-.02-.12-.01-.12v-.09q.02-.04.02-.09l-.02-.16v-.34l.01-.2-.02-.16-.01-.18v-.3l-.02-.12-.02-.12q0-.07-.02-.12-.01-.05-.05-.09-.03-.03-.12-.05-.03 0-.04-.02l-.03-.02-.03-.03-.06-.01q-.12-.02-.12-.13 0-.06.03-.1.02-.06.06-.1.03-.04.08-.07l.09-.06q.07-.06.13-.07l.12-.01h.26l.16-.01h.08l.1.02.04.02h.05l.06-.01q.02-.03.05-.03v.03q0 .02.02.02l.02-.02.03-.02q.02 0 .03.02l.02.01.02.02h.14l.12-.02q.07 0 .13.03.06.02.1.06.06.03.11.08l.1.08.07.05.08.03.06.05.06.07.06.1.07.1.07.1.06.11q.06.15.09.31l.06.32.02.14.02.14-.01.07q-.02.03-.02.07l.01.04.02.04.02.04v.05zm-.44-.17q0-.1-.03-.2t-.09-.18q.03-.03.04-.07v-.23l-.01-.03-.04-.03-.03-.03-.03-.04-.01-.04v-.04l-.02-.04-.02-.05-.02-.04-.01-.05v-.05q0-.02-.03-.04l-.05-.02-.07-.01q-.04 0-.08-.03l-.1-.05-.09-.05q-.05-.03-.1-.03l-.14.02-.15.02-.13.01-.12.01-.1.05q-.04.04-.04.11l.01.19.01.19-.01.41q-.02.2-.02.41l.01.2.01.19q0 .13-.02.25l-.02.25v.12l.01.11q.01.06.04.1.03.04.09.06l.16.06q.08.03.17.03.05 0 .1-.03l.1-.04.07-.02q.05 0 .09-.02.04 0 .08-.03.04-.02.06-.05l.08-.08q.04-.03.1-.04.03 0 .04-.02l.01-.04q0-.03.02-.05 0-.02.03-.04.04-.03.06-.08l.04-.08.01-.1.02-.1.07-.2q.04-.11.04-.22 0-.03-.02-.05l-.01-.05v-.02l.02-.01.01-.02.01-.05z" aria-label="D"/><path fill="#222" d="M15.41 49.48v.16l-.02.04-.05.03h-.11l-.05.03q0 .02.03.03l.04.01.04.02q.02 0 .02.04 0 .06-.02.1l-.04.06-.05.05-.04.07q-.01.05-.03.07l-.06.03-.05.03-.06.04q-.02.04-.04.04h-.07l-.01.02v.01l-.1.07-.2.07-.21.05-.22.02h-.35l-.35-.01h-.34l-.03.01q-.01.02-.03.02l-.07-.01q-.05 0-.1-.03l-.07-.04q-.03-.03-.03-.07v-.04q.03-.07.07-.11l.09-.07.1-.05q.05-.03.09-.08l.07-.14q.02-.1.02-.24 0-.14-.02-.27l-.01-.27v-.5q.02-.24.02-.49v-.56q0-.08-.03-.16-.02-.08-.07-.14-.04-.05-.13-.06l-.1-.02-.11-.06-.09-.08q-.04-.04-.04-.1 0-.04.03-.07l.06-.05.08-.03h.08l.17.01.16.02.22-.01.21-.03.22-.02.21-.01h.19l.18.01.05.04.09.02.09.02h.07l.1.04q.05.01.08.04l.06.06.05.1.02.02.05.04.06.03.03.02.07.1.06.15.05.16.02.12q0 .1-.03.2l-.05.18-.06.1-.07.1-.06.1-.02.12q0 .08.03.16l.08.15.04.06.05.05.05.06.04.07q.03.08.04.17l.01.18zm-.49-1.6v-.06l-.03-.08-.02-.08-.01-.07-.03-.07-.03-.04-.05-.03-.05-.04-.13-.1-.12-.05-.14-.02h-.28l-.11.01-.01.01-.02.02-.03.01-.07.01q-.08 0-.13.02-.04.02-.07.06-.03.04-.04.1l-.01.11v.18l-.01.18-.03.18-.06.16q.14.04.3.06l.3.02h.2l.2-.03.1-.03.11-.05.1-.07q.06-.04.06-.09 0-.03.02-.05l.04-.05.03-.05.02-.06zm.09 1.75-.02-.14-.03-.14-.01-.1-.03-.06q0-.03-.03-.05l-.08-.07q-.01-.06-.03-.07h-.08l-.04-.08-.09-.05q-.03-.02-.1-.02l-.1-.02-.1-.02-.04.02-.02.02h-.04l-.04-.02-.05-.01-.04-.01q-.12 0-.23.02l-.22.06-.05.12-.03.13-.03.13v.17l.01.03.02.03v.03l-.02.2-.02.2.01.14q.02.06.07.11l.1.02q.04.02.1.02l.07-.02.05-.01.03.01q.02.02.05.02l.03-.02.05-.01h.06l.06-.01h.16l.2-.05.17-.07q.1-.05.14-.1l.06-.07.06-.08.04-.1q.03-.04.03-.08zM49 30.09v.16q0 .02-.02.03-.02.03-.05.03l-.05.01h-.06l-.05.03q0 .02.03.03l.04.01.04.02.01.04-.01.1-.04.05-.05.06-.04.07q-.01.05-.04.07l-.05.03-.05.03-.06.04-.04.03h-.05l-.02.01-.01.02q-.03.04-.1.08l-.2.07-.21.05-.22.02h-.35q-.17-.02-.35-.02h-.35l-.02.02q-.01.02-.03.02l-.08-.01-.08-.03-.08-.04q-.03-.03-.03-.07v-.04q.03-.08.07-.11l.09-.07.1-.05q.05-.03.09-.08.04-.06.07-.15.02-.08.02-.23 0-.14-.02-.27l-.01-.27v-.5q.02-.24.02-.49v-.56q0-.08-.03-.16-.02-.08-.07-.14-.04-.06-.13-.06-.05 0-.1-.03l-.11-.05-.09-.08q-.04-.05-.04-.1 0-.04.03-.07l.06-.05.08-.03.08-.01.17.02.16.01H47l.21-.03.21-.03h.4l.18.01.05.04.09.02.09.02h.07l.1.04q.05.01.08.04l.06.06.04.1.03.02.05.03.05.04.04.02.07.1q.04.07.06.15l.05.16.02.12q0 .1-.03.2l-.05.18-.06.1-.07.1-.06.1-.02.11q0 .09.03.17l.08.14.04.06.05.06.05.06.04.06.04.18.01.18zm-.5-1.6v-.06l-.02-.08-.02-.08-.01-.07-.03-.07-.03-.04-.05-.03-.05-.04-.13-.1-.12-.05-.14-.02h-.39l-.01.02-.02.02-.03.01h-.07q-.08 0-.13.03-.04.02-.07.06-.03.04-.04.1l-.01.11v.18l-.01.18-.03.17q-.02.09-.06.17.14.04.3.06.14.02.3.02h.2l.2-.03.1-.03q.06-.02.11-.06l.1-.07q.05-.03.06-.08 0-.03.02-.05l.04-.05.03-.06q.02-.02.02-.06zm.1 1.74-.02-.13-.03-.14q0-.06-.02-.1l-.02-.06q0-.03-.04-.05l-.07-.07q-.01-.06-.03-.07h-.08l-.04-.08-.09-.05q-.03-.02-.1-.02l-.1-.03-.1-.01q-.03 0-.04.02l-.02.02-.04-.01-.04-.01-.05-.02h-.04q-.12 0-.23.02l-.22.05-.05.12-.03.14-.03.13v.17l.01.03.01.03.01.03-.02.2-.02.2.01.14q.02.06.07.11l.1.02q.04.02.1.02l.06-.02.06-.02q.02 0 .03.02l.04.02h.02l.02-.02.05-.01h.06l.06-.01h.15l.21-.05q.09-.03.17-.08.09-.04.14-.1l.06-.07.06-.08.04-.08.02-.1z" aria-label="B"/><path fill="#222" d="M59.28 49.14v.1q0 .06-.02.1l-.03.09-.02.08-.01.06q0 .03-.04.03h-.02q-.04 0-.06.03l-.04.08-.01.09q0 .04-.02.07v.06l-.01.03-.01.04-.04.04-.08.06-.07.06-.03.05-.01.04-.03.04-.06.02-.11.05-.11.05q-.07.02-.13.06l-.12.06q-.06.03-.13.04l-.14.02-.14-.02-.12-.05q-.06 0-.08-.04l-.05-.08-.03-.06-.03-.02h-.04l-.05-.03q-.12-.08-.21-.19-.1-.11-.18-.23l-.03-.06q0-.04-.02-.07 0-.04-.02-.07 0-.03-.02-.05l-.06-.04h-.05l-.02-.05v-.13l-.02-.13-.03-.13-.02-.14-.01-.15v-.15l.03-.15.03-.15.02-.15v-.29l.02-.14.04-.14q.02-.07.06-.13l.08-.14.08-.13.05-.14q.01-.05.06-.1l.14-.08.17-.06.2-.06.17-.03.13-.01q.13 0 .24.03.12.03.23.08l.11.04.12.02q.06 0 .08-.02l.05-.05.02-.05.03-.04h.09l.07.02.05.03q.03 0 .04.02l.03.03.04.06.03.07.02.03.01.13q.03.05.03.12 0 .07-.03.13l-.01.13v.48l-.02.15-.01.05-.02.05q0 .03-.02.04l-.04.02H59v-.05l-.03-.03-.05-.01h-.05l-.04-.02-.02-.04.01-.03h.03l.04.03h.04l-.07-.09-.05-.1-.05-.09-.07-.08-.05-.08-.04-.09-.05-.09q-.02-.04-.05-.06-.12-.1-.27-.16-.14-.07-.3-.07-.1 0-.2.03-.09.03-.18.09l-.07.03-.06.04-.06.05q-.02.02-.03.07l-.01.1q0 .05-.02.09l-.04.03q-.03.01-.04.04-.02.06-.02.13l-.01.13v.14l-.02.13-.03.1v.3l.01.2.01.22q.01.11.05.22.02.09.06.17.04.07.06.15l.04.1.06.09.1.07q.04.03.09.03l.07-.01.07-.01h.08l.07.01.15-.02q.08-.02.13-.07l.08-.06.1-.02.1-.03q.04-.02.07-.06l.04-.09.05-.12.04-.12q.03-.06.06-.07.02-.01.03-.06v-.35l.02-.1q0-.03.02-.05.02-.03.05-.03.03 0 .05.02l.04.02.05-.01.06-.02q.04 0 .07.03l.06.08.04.08.03.03q.02 0 .03.05v.06zM25.7 29.74l-.01.11-.02.1q0 .05-.03.09l-.02.08v.06q-.01.03-.05.03h-.02q-.04 0-.06.03l-.03.07-.02.1q0 .04-.02.07v.09l-.02.04-.04.04-.08.06q-.04.02-.07.06l-.03.05-.01.04-.03.04-.05.02-.12.05-.11.05q-.07.02-.13.06l-.12.05-.13.05-.14.02-.14-.02-.12-.06q-.05 0-.08-.03l-.05-.09-.03-.05-.03-.02-.04-.01-.05-.02q-.12-.08-.21-.2-.1-.1-.18-.22l-.03-.06q0-.04-.02-.07l-.01-.07-.03-.05q-.03-.04-.06-.04h-.04l-.03-.05V30l-.02-.12q0-.07-.02-.13l-.03-.14v-.3l.02-.15.03-.15.02-.15v-.29l.02-.14.04-.14.06-.14.09-.13.07-.13.05-.15q.01-.05.07-.09l.13-.08.18-.07.19-.05.17-.03.13-.01q.13 0 .24.03.12.03.23.08l.12.04.11.02q.06 0 .08-.02l.05-.05.02-.05q.01-.03.04-.04h-.01.09l.07.02.05.03q.03 0 .05.02l.02.03.04.06.03.07.02.03q0 .07.02.12.02.06.02.13l-.02.13q-.02.06-.02.13v.48l-.02.14-.01.05-.02.06-.02.04-.04.02h-.12v-.05q0-.02-.03-.03l-.04-.02h-.06l-.04-.02q-.02 0-.02-.03l.01-.03h.03l.04.03h.04l-.06-.1-.06-.08-.05-.1q-.03-.05-.07-.08l-.05-.08-.04-.1-.04-.08-.06-.06q-.12-.1-.26-.16-.15-.07-.3-.07-.11 0-.2.03-.1.03-.19.09l-.07.03-.06.04-.05.05q-.03.02-.04.07v.1q0 .04-.03.09l-.04.03q-.03.01-.04.04l-.02.12v.14l-.01.13-.02.14-.03.1v.3l.01.19.01.23.05.22q.02.09.06.16l.06.16.04.1.07.09.08.07.1.02h.07l.07-.01h.16l.14-.01q.08-.02.13-.07l.08-.06.1-.02.1-.03q.04-.02.07-.06l.04-.1.05-.12.05-.11q.02-.06.05-.07.02-.01.03-.07v-.33l.02-.1q0-.03.03-.06.01-.02.05-.02l.04.02.04.02q.03 0 .05-.02l.06-.01q.04 0 .07.03l.06.08.04.07.03.04q.02 0 .03.04v.06z" aria-label="C"/><path fill="#222" d="m19.28 24.7-.02.04q0 .03-.03.07l-.03.07-.03.04h-.07.02q-.06 0-.11-.02t-.08-.07l-.02-.04-.02-.06-.02-.06v-.13l-.01-.15-.02-.16q0-.06.02-.1l.04-.1-.06-.01q-.02-.02-.06-.02l-.2.02q-.08.02-.19.02h-.17l-.16.02q-.07.02-.15.02l.01-.02.02-.02h-.04q-.02 0-.03.02-.02.02-.05.02l-.08.01h-.26l-.1-.04q-.03-.02-.04-.05-.02 0-.03.02l-.02.04-.02.04q-.01.02-.05.02-.07 0-.1.05-.02.04-.02.1v.05l.01.06v.68l.03.12q.02.06.05.07h.09q.1 0 .18-.02l.18-.02.07.01.07.01q.05 0 .07-.04.03-.05.04-.12l.02-.13v-.35q.07 0 .13.02l.12.02h.04l.02.1.02.1q0 .08-.08.1l.04.07v.19l.01.04q.02.01.02.03l-.02.08q-.03.04-.03.1l.01.11.03.13.02.14.01.14v.08l-.02.1-.04.06-.06.06q-.05 0-.09-.03-.03-.02-.05-.06-.03-.03-.04-.08l-.01-.08-.01-.13q0-.06-.03-.1-.02-.04-.1-.06-.06-.02-.2-.02h-.13l-.15.03q-.07.02-.13.06-.06.03-.06.09v.06l.02.06v.39l-.01.14-.02.15q0 .09.04.14l.1.07.14.03h.38l.25-.02h.16l.15.01h.14q.07 0 .14-.03.06-.02.11-.06.05-.04.06-.11 0-.02.02-.03l.02-.02.03-.01v-.08l-.03-.05-.01-.1v-.1q0-.08.02-.13.03-.06.03-.13v-.08q0-.02.02-.03l.05-.03.07-.02h.04q.07 0 .11.04.04.04.06.1.03.07.03.14l.01.12-.01.18-.04.21-.05.21-.06.18-.03.05q0 .02-.03.03l-.03.03q-.02 0-.05.03-.02.03-.08.03l-.12.01h-.16q-.09 0-.14.02l-.1.02q-.03 0-.04-.02l-.04-.01-.03.01q-.01.02-.05.02h-.51l-.4.03q-.13 0-.26.03l-.26.02h-.1q-.07-.01-.12-.04-.05-.02-.09-.06-.03-.04-.03-.1 0-.06.04-.11l.1-.1.12-.08.1-.07v-.16l.01-.07q0-.03.03-.06l.02-.06v-.03l-.02-.03-.04-.13V26l.01-.07.03-.08-.03-.05-.01-.06.04-.37v-.12l-.01-.12-.02-.12v-.05l.03-.06.02-.07.01-.1-.02-.06-.01-.05.01-.07q.02-.03.02-.07l-.02-.1-.04-.09-.05-.1q-.01-.04-.04-.07l-.06-.03q-.04-.02-.12-.02l-.07-.02-.06-.05-.03-.07-.02-.07q0-.05.04-.08l.1-.05.15-.03.16-.02.14-.01.1-.01.1-.01h.51l.22-.01q.1-.02.21-.02l.2.02.19.02.18-.02.18-.02h.07l.1.11q.06.04.1.09l.05.1.03.15v.18q0 .04.02.07.01.04.04.05 0 .03-.04.03l.02.08.02.08.03.07v.07zm-2.26.64H17l-.02.03.16.11.1.08.04.04q.02 0 .03-.04.02-.04 0-.09-.03-.04-.08-.07l-.1-.04-.1-.02zm38.63-.64-.01.04-.03.07-.04.07-.03.04h-.06l-.1-.02q-.05-.02-.08-.07l-.01-.04-.02-.06-.02-.05v-.13q0-.09-.02-.16l-.01-.16.01-.1q.01-.05.05-.1h-.01l-.05-.01q-.02-.02-.06-.02l-.2.02-.2.02h-.16l-.16.02-.15.02h-.01l.02-.02.01-.01-.01-.01h-.02q-.03 0-.04.02-.01.02-.04.02l-.09.01h-.26l-.09-.04q-.04-.02-.04-.05-.03 0-.04.02l-.02.04-.01.04q-.02.02-.06.02-.07 0-.09.05-.02.04-.02.1v.79l.04.12q.01.06.05.07h.09l.18-.02q.08-.02.18-.02l.06.01.07.01q.05 0 .08-.04l.04-.12.01-.13v-.35h.01q.07 0 .12.02l.12.02h.04l.02.1.02.11q0 .07-.07.09l.03.07.01.07v.16q.03.01.03.03 0 .03-.03.08-.02.04-.02.1v.11l.03.13.02.14.01.14v.09l-.02.08q-.01.04-.04.07-.02.04-.06.06-.05 0-.08-.03-.04-.02-.06-.06l-.03-.08-.02-.08-.01-.13q0-.06-.03-.1-.02-.04-.1-.06-.06-.02-.2-.02h-.12l-.16.03q-.07.02-.13.06-.05.03-.05.09v.06l.01.06v.25l.01.14-.02.15-.02.14q0 .09.04.14l.1.07.14.03h.39q.12-.02.25-.02h.15l.16.01h.13q.07 0 .14-.03.07-.02.11-.06.05-.04.07-.11v-.03l.04-.02.02-.01.01-.03-.01-.05q-.02-.02-.02-.05l-.02-.1v-.1q0-.08.03-.13.02-.06.02-.13v-.08q0-.02.02-.03l.06-.03.06-.02h.05q.06 0 .1.04.05.04.07.1l.03.14v.31l-.04.2-.05.21-.06.18-.03.05-.03.03-.04.03q-.02 0-.04.03t-.08.03l-.12.01h-.17q-.08 0-.14.02l-.1.02q-.03 0-.04-.02l-.03-.01-.04.01q-.01.02-.04.02h-.52l-.39.03q-.13 0-.26.03l-.26.02h-.11l-.12-.04q-.05-.02-.08-.06-.04-.04-.04-.1 0-.06.04-.11l.1-.1.12-.08.1-.07v-.15l.02-.08.02-.06q.03-.03.03-.05l-.01-.04-.01-.03-.04-.13-.01-.13V26l.01-.07.03-.08-.02-.05-.02-.06.04-.37v-.07l.01-.05-.02-.12-.02-.12.01-.05.02-.06.03-.07v-.1l-.01-.05-.02-.06q0-.04.02-.07l.01-.06q0-.06-.02-.1l-.04-.1-.05-.1-.03-.07-.07-.03q-.04-.02-.11-.02-.04 0-.07-.02-.04-.02-.06-.05l-.04-.07-.02-.07q0-.05.05-.08l.1-.05.15-.03.15-.02.14-.01.1-.01.1-.01h.31l.2.01q.12 0 .22-.02t.22-.02l.2.02.18.02q.1 0 .18-.02l.18-.02h.08l.1.11.09.09.05.1q.03.05.03.15v.08l.01.1.01.07.04.05q0 .03-.03.03l.01.08.03.08.02.07.01.07zm-2.25.64h-.03q-.02.01-.02.03.1.06.15.11l.1.08.05.04.03-.04q.02-.04-.01-.08-.03-.05-.08-.08l-.1-.04-.1-.02z" aria-label="E"/><path fill="#222" d="M24.52 42.67q0 .1-.07.17-.06.06-.17.06h-.07l-.07-.02q-.04-.06-.06-.14l-.04-.18-.03-.18q-.02-.08-.06-.15-.03-.07-.1-.11-.06-.05-.18-.05l-.14.02-.14.01h-.18l-.1-.03q-.05 0-.08-.03h-.06l-.04-.01h-.15l-.08.03-.08.03q-.03.02-.1.03l-.07.04-.03.04-.01.06v.69l-.02.12q0 .05.03.07.02.03.05.04.03 0 .05.02.03.01.03.05h.07l.17-.02.17-.04q.05-.02.07-.08.03-.06.03-.14l.01-.16.01-.12.02-.06.05-.06.07-.03.06-.02q.04 0 .07.02.06.02.08.07l.03.1v.1l.01.1.01.14-.01.25-.01.24v.14l.03.13.02.08-.01.09-.01.08v.1l-.01.08-.05.08q-.03.04-.07.06l-.07.02q-.05 0-.09-.03l-.07-.09-.05-.09-.01-.05v-.02h.03l.03-.02v-.05l-.03-.01-.03-.02v-.07l.01-.01.02-.01v-.01l-.02-.06-.04-.06-.06-.05-.06-.03-.08.02-.08.01-.06-.01-.06-.01-.06.02-.06.05-.06.06-.04.05q-.02.02-.02.06v.25q.02.08.02.17v.34l.04.09q.02.04.06.05.05.02.12.01h.05l.13.01q.06.02.09.07l.04.1.01.1v.08l-.03.07-.05.05q-.02.02-.06.02l-.16-.01-.17-.02-.13.02-.2.03-.21.01h-.12q-.07 0-.13-.02-.06-.01-.1-.04-.04-.03-.04-.08v-.11q.01-.07.04-.12.02-.05.07-.09.04-.03.11-.03h.09l.08-.01.04-.04.03-.04q.01-.02.04-.02l-.01-.16v-.3l.05-.14q-.03-.02-.04-.1l-.02-.14v-.17l.01-.09q.02-.04.02-.09v-.12l.01-.02h.01v-.04l-.01-.12-.02-.14.01-.11.02-.12-.02-.24v-.23l-.02-.13q0-.08-.04-.15-.02-.06-.07-.1-.05-.05-.13-.05h-.21q-.03 0-.06-.03l-.02-.1q-.02-.04-.02-.09 0-.03.03-.06l.08-.03.1-.02h.46l.1-.01.1-.03q.04-.02.06-.06h.06l.05.04.04.02.05.01.07-.01.07-.02.06.01.06.02.14-.02.14-.03.14-.03.14-.02.1.02q.03 0 .07.05.1-.05.24-.05h.06l.11.02.1.01.06.02.02.04.02.07.01.07q0 .03.02.04l.03.02h.03l.03.02.02.03v.12l.02.12.04.12.04.12.03.12.02.12zm-2.75 2.5-.02-.06q-.01-.04-.06-.04v.04l.01.07q.02.03.07.04v-.04zm28.73-2.5q0 .1-.07.17-.06.06-.17.06h-.07l-.07-.02q-.04-.06-.06-.14l-.04-.18q0-.09-.03-.18l-.05-.15q-.04-.07-.1-.11-.07-.05-.19-.05l-.14.02-.14.01h-.18l-.1-.03q-.05 0-.08-.03h-.06l-.04-.01h-.15l-.08.03-.07.03-.1.03-.08.04-.03.04v.13l-.01.07v.55l-.02.12q0 .05.03.07.02.03.05.04.03 0 .05.02.03.01.03.05h.07l.17-.02.17-.04q.05-.02.07-.08.03-.06.04-.14v-.16l.01-.12.02-.06.05-.06.07-.03.06-.02q.04 0 .07.02.06.02.08.07.03.04.03.1v.1l.01.1.01.14-.01.25-.01.24v.14l.03.13.02.08-.01.09-.01.08v.1l-.01.08-.05.08q-.03.04-.07.06-.03.02-.07.02-.05 0-.09-.03l-.07-.09-.05-.09-.01-.05v-.02h.03l.03-.02.01-.03-.01-.02-.03-.01-.02-.02-.01-.04v-.03l.01-.01.02-.01v-.01l-.02-.06-.04-.06-.06-.05q-.03-.03-.06-.03l-.08.02-.08.01-.06-.01-.06-.01-.06.02-.06.05-.06.06-.04.05q-.02.02-.02.06v.25q.02.08.02.17v.24l.01.1.03.09q.02.04.06.05.05.02.12.01h.05l.13.01q.06.02.1.07l.03.1.01.1v.08l-.03.07-.04.05q-.03.02-.07.02l-.16-.01q-.08-.02-.17-.02l-.13.02-.2.03-.2.01h-.13l-.13-.02q-.06-.01-.1-.04-.04-.03-.04-.08v-.11q.01-.07.04-.12.02-.05.07-.09.04-.03.11-.03h.1l.07-.01.04-.04.03-.04q.01-.02.05-.02l-.02-.16v-.3l.05-.13-.04-.1-.02-.15v-.17l.01-.09q.02-.04.02-.09v-.12l.01-.02h.01v-.16l-.02-.14v-.11l.02-.12-.01-.23-.01-.24-.02-.13q0-.08-.03-.15-.03-.06-.08-.1-.05-.05-.13-.05h-.21l-.06-.02-.02-.1-.02-.1q0-.03.03-.06l.08-.03.1-.02h.46l.1-.01.1-.03q.04-.02.06-.06h.06l.05.04.04.02.06.01.06-.01.07-.02.06.01.06.02.14-.02.14-.03.14-.03.14-.02.1.02q.04 0 .07.05.1-.05.24-.05h.06l.11.02.1.01.06.02q.02.01.02.04l.02.07.01.07.03.04.02.02h.04l.02.02.02.03v.12q0 .06.03.12l.03.12.04.12.04.12v.12zm-2.75 2.5-.02-.06q-.01-.04-.06-.04v.04q0 .04.02.07.01.03.06.04v-.04z" aria-label="F"/></svg>