<svg xmlns="http://www.w3.org/2000/svg" viewBox="0 0 1024.6 1444.2">
<style type="text/css">
	.st0{fill:none;stroke:#F00;stroke-width:12.7507;stroke-miterlimit:15.1181;}
	.st1{fill:#4D4D4D;stroke:#000;stroke-width:1.0849;stroke-linecap:round;}
	.st2{fill:#0C0804;}
	.st3{fill:#FAE901;}
	.st4{fill:#0C0803;}
	.st5{fill:#0D0903;}
	.st6{fill:#0F0;stroke:#000;stroke-width:10;stroke-linecap:round;stroke-linejoin:round;stroke-miterlimit:377.9528;}
</style>
<g transform="translate(-324.26 -685.338)">
	<path class="st0" d="M413.5,691.7h846.2c45.8,0,82.9,37.1,82.9,82.9v1265.7c0,45.8-37.1,82.9-82.9,82.9H413.5
		c-45.8,0-82.9-37.1-82.9-82.9V774.6C330.6,728.8,367.7,691.7,413.5,691.7z"/>
	<g transform="matrix(2.4453 0 0 2.43243 -375.436 446.738)">
		<rect x="343" y="195.9" class="st1" width="305.2" height="398.1"/>
		<path class="st2" d="M396.5,467.8c0.5-0.8,0.9-1.6,1.4-2.3c9.7-16.9,19.3-33.7,29.1-50.6c20.8-36,41.6-72.1,62.4-108.1
			c2.7-4.6,7.3-5.5,10.7-2.6c0.8,0.7,1.5,1.8,2,2.8c16.5,28.7,33,57.5,49.6,86.3c13.8,24,27.7,48,41.6,71.9c1.1,2,2,3.9,1.2,6.3
			c-0.8,2.6-2.9,4.4-5.6,4.6c-0.8,0.1-1.6,0.1-2.5,0.1c-60.2,0-120.3,0-180.5,0.1c-4.2,0-7.7-0.6-9.6-4.8
			C396.5,470.2,396.5,469,396.5,467.8z M577.1,463.1c-27.1-47-54.2-93.8-81.4-141c-27.2,47.1-54.2,94-81.3,141
			C468.6,463.1,522.7,463.1,577.1,463.1z"/>
		<path class="st3" d="M577.1,463.1c-54.4,0-108.5,0-162.7,0c27.1-47,54.1-93.8,81.3-141C522.9,369.2,549.9,416.1,577.1,463.1z
				M485.6,372.1c0.3,4.9,0.7,9.9,1,14.8c0.7,9.7,1.3,19.4,2.1,29.2c0.1,1.2,0.5,2.6,1.2,3.5c2,2.7,5.3,3.7,8.2,2.7
			c2.9-1,4.5-3.4,4.7-7c0.6-8.7,1.2-17.5,1.8-26.2c0.4-6,0.9-12.1,1.1-18.1c0.1-4.1-2.1-7.2-5.7-8.9c-3.8-1.8-7.5-1-10.8,1.4
			C486.4,365.6,485.4,368.7,485.6,372.1z M495.8,429.7c-6,0-10.7,4.5-10.7,10.4c-0.1,5.7,4.7,10.4,10.6,10.5
			c5.7,0.1,10.5-4.8,10.5-10.5C506.2,434.4,501.5,429.7,495.8,429.7z"/>
		<path class="st4" d="M485.6,372.1c-0.2-3.5,0.8-6.5,3.6-8.6c3.3-2.5,7-3.2,10.8-1.4c3.7,1.7,5.9,4.7,5.7,8.9
			c-0.2,6-0.7,12.1-1.1,18.1c-0.6,8.7-1.2,17.5-1.8,26.2c-0.2,3.6-1.8,6-4.7,7c-2.8,1-6.1,0-8.2-2.7c-0.7-1-1.1-2.3-1.2-3.5
			c-0.7-9.7-1.4-19.4-2.1-29.2C486.3,382,485.9,377.1,485.6,372.1z"/>
		<path class="st5" d="M495.8,429.7c5.7,0,10.3,4.6,10.4,10.4c0.1,5.7-4.8,10.5-10.5,10.5c-5.9-0.1-10.7-4.7-10.6-10.5
			C485.2,434.3,489.9,429.7,495.8,429.7z"/>
	</g>
	<circle class="st6" cx="1226.8" cy="801.7" r="67"/>
</g>
</svg>
