<svg xmlns="http://www.w3.org/2000/svg" class="centered-img" viewBox="0 0 1024.6 1444.2">
  <style>
    .st12{fill:#acbfdd;stroke-width:2}.st12,.st14,.st16{stroke:#000;stroke-miterlimit:10}.st14{fill:#d5c29a;stroke-width:2}.st16{fill:#8290a7;stroke-width:1.5}.st18{fill:#0c0804}.st19{fill:#fae901}.st20{fill:#0c0803}.st21{fill:#0d0903}
  </style>
  <path fill="none" stroke="red" stroke-miterlimit="15.1" stroke-width="12.8" d="M89.2 6.4h846.2c45.8-.1 82.9 37 83 82.8V1355c.1 45.8-37 82.9-82.8 83H89.2c-45.8 0-82.9-37.1-82.9-82.9V89.2C6.4 43.4 43.5 6.4 89.2 6.4z"/>
  <rect width="396.8" height="517.5" x="314.2" y="76.8" fill="#4d4d4d" stroke="#000" stroke-linecap="round" stroke-miterlimit="5.2" stroke-width="7.8"/>
  <path stroke="#000" stroke-linecap="round" stroke-linejoin="round" stroke-miterlimit="1" stroke-width="17" d="M512.3 659.3v193.4-193.4h0zm0 193.5 66-83.8-66 83.8zm0 0-66-83.8 66 83.8z"/>
  <g transform="matrix(1.7 0 0 1.7 -579.5 -97)">
    <g transform="translate(-1.9)">
      <rect width="215.9" height="278.7" x="643.9" y="601.6" fill="#333" stroke="#000" stroke-miterlimit="10" stroke-width="3"/>
      <rect width="213.6" height="278.7" x="430.2" y="601.6" fill="#4d4d4d" stroke="#000" stroke-miterlimit="10" stroke-width="3"/>
    </g>
    <g transform="translate(29.8 14.7)">
      <ellipse cx="662.9" cy="634.3" stroke="#000" stroke-miterlimit="10" stroke-width="2" rx="37.5" ry="38.1"/>
      <path fill="#333" stroke="#222" stroke-miterlimit="10" stroke-width="2" d="M662.9 598.1v72.2-72.2zm35.8 36.2h-71.5 71.5zm-61-25.6 50.6 51.1-50.6-51.1zm50.5 0-50.6 51.1 50.6-51.1z"/>
    </g>
    <path fill="#373d46" stroke="#000" stroke-miterlimit="10" stroke-width="3" d="M796.4 610.9h28.5c9.2 0 16.6 7.4 16.6 16.6v46.9c0 9.2-7.4 16.6-16.6 16.6h-28.5c-9.2 0-16.6-7.4-16.6-16.6v-47c0-9 7.4-16.5 16.6-16.5z"/>
    <path fill="#ac2c31" stroke="#000" stroke-miterlimit="10" stroke-width="3" d="M791.4 627.5v43.6-43.6zm38.4 0v43.6-43.6z"/>
    <path fill="#ac2c31" stroke="#000" stroke-miterlimit="10" stroke-width="2" d="M776.7 619.1h67.7a8.5 8.5 0 1 1 0 17h-67.7a8.5 8.5 0 1 1 0-17z"/>
    <rect width="73.3" height="45.5" x="657" y="720.5" fill="#004ada" stroke="#000" stroke-miterlimit="10" stroke-width="2"/>
    <g transform="translate(-.2)">
      <rect width="72.4" height="69.5" x="656.8" y="789.6" fill="#acbfdd" stroke="#000" stroke-miterlimit="10" stroke-width="2"/>
      <path d="M666.8 808.5H679v31.6h-12.2v-31.6z" class="st12"/>
      <path d="M666.8 824.3H679" class="st12"/>
      <path d="M687 808.5h12.2v31.6H687v-31.6z" class="st12"/>
      <path d="M687 824.3h12.2" class="st12"/>
      <path d="M707.1 808.5h12.2v31.6h-12.2v-31.6z" class="st12"/>
      <path d="M707.1 824.3h12.2" class="st12"/>
    </g>
    <path fill="#83a6dd" stroke="#000" stroke-miterlimit="10" stroke-width="2" d="M801 719.8h19.2c7.6 0 13.8 6.2 13.8 13.8v19.2c0 7.6-6.2 13.8-13.8 13.8H801c-7.6 0-13.8-6.2-13.8-13.8v-19.2c0-7.6 6.2-13.8 13.8-13.8z"/>
    <path d="M795.9 725.5h7.4c1.5 0 2.7 1.2 2.7 2.7v7.4c0 1.5-1.2 2.7-2.7 2.7h-7.4c-1.5 0-2.7-1.2-2.7-2.7v-7.4c0-1.5 1.2-2.7 2.7-2.7z" class="st14"/>
    <path d="M818.1 725.5h7.4c1.5 0 2.7 1.2 2.7 2.7v7.4c0 1.5-1.2 2.7-2.7 2.7h-7.4c-1.5 0-2.7-1.2-2.7-2.7v-7.4c0-1.5 1.2-2.7 2.7-2.7z" class="st14"/>
    <path d="M795.9 747.8h7.4c1.5 0 2.7 1.2 2.7 2.7v7.4c0 1.5-1.2 2.7-2.7 2.7h-7.4c-1.5 0-2.7-1.2-2.7-2.7v-7.4c0-1.5 1.2-2.7 2.7-2.7z" class="st14"/>
    <path d="M818.1 747.8h7.4c1.5 0 2.7 1.2 2.7 2.7v7.4c0 1.5-1.2 2.7-2.7 2.7h-7.4c-1.5 0-2.7-1.2-2.7-2.7v-7.4c0-1.5 1.2-2.7 2.7-2.7z" class="st14"/>
    <path fill="#8290a7" stroke="#000" stroke-miterlimit="10" stroke-width="2" d="M789 785.8h43.2c3.1 0 5.6 2.5 5.6 5.6v68.4c0 3.1-2.5 5.6-5.6 5.6H789a5.6 5.6 0 0 1-5.6-5.6v-68.4c0-3.1 2.5-5.6 5.6-5.6z"/>
    <g transform="translate(.2)">
      <rect width="7.1" height="7.1" x="787.5" y="790.6" class="st16"/>
      <rect width="7.1" height="7.1" x="800.4" y="790.6" class="st16"/>
      <rect width="7.1" height="7.1" x="813.3" y="790.6" class="st16"/>
      <rect width="7.1" height="7.1" x="826.3" y="790.6" class="st16"/>
    </g>
    <g transform="rotate(180 473 262.3)">
      <rect width="7.1" height="7.1" x="112.5" y="-335.9" class="st16"/>
      <rect width="7.1" height="7.1" x="125.4" y="-335.9" class="st16"/>
      <rect width="7.1" height="7.1" x="138.4" y="-335.9" class="st16"/>
      <rect width="7.1" height="7.1" x="151.3" y="-335.9" class="st16"/>
    </g>
    <path fill="#8290a7" stroke="#fff" stroke-miterlimit="10" stroke-width="2" d="M791.2 857v-62.8V857zm12.9 0v-62.8V857zm13 0 12.9-62.8-12.9 62.8zm12.9 0-12.9-62.8L830 857z"/>
  </g>
  <path d="m385.3 414.6 1.8-3 37.2-64.4 80-137.7c3.5-5.9 9.4-7 13.8-3.3 1.1.9 1.9 2.2 2.6 3.5l63.5 109.9 53.3 91.7c1.4 2.5 2.5 5 1.6 8-.9 3.3-3.8 5.6-7.2 5.9l-3.2.1-231.2.1c-5.4 0-9.9-.8-12.3-6.1l.1-4.7zm231.5-6L512.5 228.9 408.3 408.6h208.5z" class="st18"/>
  <path d="M616.8 408.6H408.3l104.2-179.7 104.3 179.7zm-117.3-116 1.3 18.9 2.6 37.2a9.06 9.06 0 0 0 12 7.9c3.7-1.3 5.7-4.4 6-9l2.3-33.4c.5-7.7 1.1-15.4 1.4-23.1.2-5.3-2.6-9.1-7.3-11.3-6.5-3-14.1-.2-17.1 6.2-1 2.1-1.4 4.3-1.2 6.6zm13.2 73.5c-7.6 0-13.7 5.8-13.7 13.2 0 7.5 6 13.5 13.5 13.5s13.5-6 13.5-13.5c-.1-7.3-6-13.2-13.3-13.2z" class="st19"/>
  <path d="M499.5 292.6c-.2-4.4 1-8.3 4.6-11 4.2-3.2 8.9-4.1 13.8-1.8 4.7 2.2 7.5 6 7.3 11.3-.2 7.7-.9 15.4-1.4 23.1-.8 11.1-1.6 22.3-2.3 33.4-.3 4.6-2.3 7.7-6 9-3.8 1.2-8-.1-10.4-3.4-.9-1.3-1.5-2.9-1.6-4.5-1-12.4-1.8-24.8-2.6-37.2l-1.4-18.9z" class="st20"/>
  <path d="M512.7 366.1c7.3 0 13.2 5.9 13.3 13.2 0 7.5-6 13.5-13.5 13.5s-13.5-6-13.5-13.5 6-13.3 13.7-13.2z" class="st21"/>
  <path d="m214.6 1251.7 1.6-2.6 32.8-56.8c23.5-40.5 46.9-80.9 70.5-121.3 3-5.2 8.3-6.1 12.1-2.9 1 .8 1.7 2 2.3 3.1l56 96.9 47 80.8c1.3 2.2 2.2 4.4 1.4 7-.8 2.9-3.3 4.9-6.3 5.2l-2.8.1-203.7.1c-4.7 0-8.7-.7-10.8-5.4l-.1-4.2zm203.9-5.3-91.9-158.3-91.8 158.3h183.7z" class="st18"/>
  <path d="M418.5 1246.4H234.8l91.8-158.3 91.9 158.3zm-103.3-102.1 1.2 16.7 2.3 32.7c.1 1.4.6 2.9 1.4 3.9 2.3 3 6 4.1 9.2 3 3.3-1.1 5.1-3.9 5.3-7.9l2.1-29.4c.5-6.8 1-13.6 1.2-20.4.2-4.6-2.3-8-6.5-10-4.3-2-8.5-1.2-12.2 1.6-2.9 2.4-4.5 6.1-4 9.8zm11.6 64.7c-6.7 0-12 5.1-12.1 11.6.9 6.6 6.9 11.2 13.4 10.4 5.4-.7 9.7-5 10.4-10.4 0-6.4-5.3-11.6-11.7-11.6z" class="st19"/>
  <path d="M315.2 1144.3c-.2-3.9.9-7.3 4.1-9.7 3.7-2.8 7.9-3.6 12.2-1.6 4.1 1.9 6.6 5.3 6.5 10-.2 6.8-.8 13.6-1.2 20.4l-2.1 29.4c-.3 4-2 6.8-5.3 7.9-3.4 1.1-7.1-.1-9.2-3-.8-1.2-1.3-2.5-1.4-3.9l-2.3-32.7-1.3-16.8z" class="st20"/>
  <path d="M326.8 1209c6.4 0 11.6 5.2 11.7 11.6s-5.4 11.8-11.8 11.8c-6.6.1-11.9-5.2-12-11.8.1-6.5 5.4-11.7 12.1-11.6z" class="st21"/>
</svg>