<svg xmlns="http://www.w3.org/2000/svg" viewBox="0 0 1024.6 1444.2">
  <style>
    .st3,.st6{stroke:#000}.st3{fill:#333;stroke-width:7.0055;stroke-linecap:round;stroke-miterlimit:15.1181}.st6{fill:#373d46;stroke-width:3}
    .st6,.st7,.st8{stroke-miterlimit:10}.st7,.st8,.st9{stroke:#000}.st7,.st8{fill:#ac2c31;stroke-width:4}.st8{stroke-width:3}
    .st9{fill:#004ada;stroke-width:3.8064;stroke-linecap:round;stroke-linejoin:round;stroke-miterlimit:3.7795}.st10,.st11{fill:#acbfdd}
    .st10,.st11,.st12,.st13,.st14{stroke:#000;stroke-width:2}.st10{stroke-linecap:round;stroke-linejoin:round;stroke-miterlimit:1}
    .st11,.st12,.st13,.st14{stroke-linecap:square;stroke-miterlimit:100}.st12{fill:#83a6dd}.st13{fill:#d5c29a}.st14{fill:#8290a7}
    .st15,.st18,.st19{stroke-linecap:round;stroke-linejoin:round}.st15{fill:#8290a7;stroke:#fff;stroke-width:2;stroke-miterlimit:100}
    .st18{stroke:#000;stroke-width:6.1972;stroke-miterlimit:3.7795}.st19{fill:#333;stroke:#22222e;stroke-width:1.5493;stroke-miterlimit:2.4418}
    .st24{stroke:#000;stroke-width:.5;stroke-miterlimit:10}.st24,.st25{fill:#8290a7}.st26{fill:#fff}.st28{fill:#0000cb}.st29{fill:#00c600}
    .st30{fill:#dfcc08}.st31{fill:#d00000}
  </style>
  <g transform="translate(-600.345 84.321)">
    <path fill="none" stroke="red" stroke-miterlimit="15.118" stroke-width="12.751" d="M689.6-77.9h846.2c45.8 0 82.9 37.1 82.9 82.9v1265.7c0 45.8-37.1 82.9-82.9 82.9H689.6c-45.8 0-82.9-37.1-82.9-82.9V4.9c0-45.7 37.1-82.8 82.9-82.8z"/>
    <path stroke="#777" stroke-linecap="round" stroke-linejoin="round" stroke-miterlimit="1" stroke-width="16" d="M1194.5 883.8h130.1-130.1zm130.1 0-56.4-43.8 56.4 43.8zm0 0-56.4 43.8 56.4-43.8z"/>
    <path fill="#4d4d4d" stroke="red" stroke-miterlimit="15.118" stroke-width="20" d="M611.6 524.4H1625"/>
    <rect width="395.9" height="517.2" x="700.8" y="-41.8" class="st3"/>
    <g transform="matrix(1.706 0 0 1.71 -104.124 -419.474)">
      <ellipse cx="526.2" cy="270.9" stroke="#000" stroke-linecap="round" stroke-linejoin="round" stroke-miterlimit="1" stroke-width=".96" rx="42" ry="42"/>
      <path fill="#333" stroke="#22222e" stroke-linecap="round" stroke-linejoin="round" stroke-miterlimit="1" stroke-width="2" d="M526.2 230.7v80.4-80.4zm40.2 40.2H486h80.4zm-68.6-28.4 56.9 56.9-56.9-56.9zm56.9 0-56.9 56.9 56.9-56.9z"/>
    </g>
    <path d="M623.1 232.3h28.5c9.2 0 16.6 7.4 16.6 16.6v46.9c0 9.2-7.4 16.6-16.6 16.6h-28.5c-9.2 0-16.6-7.4-16.6-16.6v-46.9c0-9.2 7.4-16.6 16.6-16.6z" class="st6" transform="matrix(1.834 0 0 1.837 -158.788 -452.84)"/>
    <path d="M618.2 248.9v43.6-43.6zm38.4 0v43.6-43.6z" class="st7" transform="matrix(1.834 0 0 1.837 -158.788 -452.84)"/>
    <path d="M603.5 240.4h67.7c4.7 0 8.5 3.8 8.5 8.5s-3.8 8.5-8.5 8.5h-67.7c-4.7 0-8.5-3.8-8.5-8.5s3.8-8.5 8.5-8.5z" class="st8" transform="matrix(1.834 0 0 1.837 -158.788 -452.84)"/>
    <rect width="134.4" height="83.5" x="728.1" y="175" class="st9"/>
    <g transform="matrix(1.834 0 0 1.837 -159.163 -446.38)">
      <rect width="72.4" height="69.5" x="483.6" y="407.4" class="st10"/>
      <path d="M493.6 426.4h12.2V458h-12.2v-31.6z" class="st11"/>
      <path d="M493.6 442.2h12.2" class="st10"/>
      <path d="M513.7 426.4h12.2V458h-12.2v-31.6z" class="st11"/>
      <path d="M513.7 442.2h12.2" class="st10"/>
      <path d="M533.8 426.4H546V458h-12.2v-31.6z" class="st11"/>
      <path d="M533.8 442.2H546" class="st10"/>
    </g>
    <path d="M627.7 337.7H647c7.6 0 13.8 6.2 13.8 13.8v19.2c0 7.6-6.2 13.8-13.8 13.8h-19.2c-7.6 0-13.8-6.2-13.8-13.8v-19.2c0-7.6 6.1-13.8 13.7-13.8z" class="st12" transform="matrix(1.834 0 0 1.837 -158.788 -446.38)"/>
    <path d="M622.6 343.4h7.4c1.5 0 2.7 1.2 2.7 2.7v7.4c0 1.5-1.2 2.7-2.7 2.7h-7.4c-1.5 0-2.7-1.2-2.7-2.7v-7.4c0-1.5 1.2-2.7 2.7-2.7z" class="st13" transform="matrix(1.834 0 0 1.837 -158.788 -446.38)"/>
    <path d="M644.8 343.4h7.4c1.5 0 2.7 1.2 2.7 2.7v7.4c0 1.5-1.2 2.7-2.7 2.7h-7.4c-1.5 0-2.7-1.2-2.7-2.7v-7.4c.1-1.5 1.3-2.7 2.7-2.7z" class="st13" transform="matrix(1.834 0 0 1.837 -158.788 -446.38)"/>
    <path d="M622.6 365.7h7.4c1.5 0 2.7 1.2 2.7 2.7v7.4c0 1.5-1.2 2.7-2.7 2.7h-7.4c-1.5 0-2.7-1.2-2.7-2.7v-7.4c0-1.5 1.2-2.7 2.7-2.7z" class="st13" transform="matrix(1.834 0 0 1.837 -158.788 -446.38)"/>
    <path d="M644.8 365.7h7.4c1.5 0 2.7 1.2 2.7 2.7v7.4c0 1.5-1.2 2.7-2.7 2.7h-7.4c-1.5 0-2.7-1.2-2.7-2.7v-7.4c.1-1.5 1.3-2.7 2.7-2.7z" class="st13" transform="matrix(1.834 0 0 1.837 -158.788 -446.38)"/>
    <path d="M615.8 403.6H659c3.1 0 5.6 2.5 5.6 5.6v68.4c0 3.1-2.5 5.6-5.6 5.6h-43.2c-3.1 0-5.6-2.5-5.6-5.6v-68.4c0-3.1 2.5-5.6 5.6-5.6z" class="st14" transform="matrix(1.834 0 0 1.837 -158.788 -446.38)"/>
    <g transform="matrix(1.834 0 0 1.837 -158.421 -446.38)">
      <rect width="7.1" height="7.1" x="614.2" y="408.5" class="st14"/>
      <rect width="7.1" height="7.1" x="627.1" y="408.5" class="st14"/>
      <rect width="7.1" height="7.1" x="640.1" y="408.5" class="st14"/>
      <rect width="7.1" height="7.1" x="653" y="408.5" class="st14"/>
    </g>
    <g transform="matrix(-1.834 0 0 -1.837 1575.79 517.142)">
      <rect width="7.1" height="7.1" x="285.7" y="46.2" class="st14"/>
      <rect width="7.1" height="7.1" x="298.7" y="46.2" class="st14"/>
      <rect width="7.1" height="7.1" x="311.6" y="46.2" class="st14"/>
      <rect width="7.1" height="7.1" x="324.5" y="46.2" class="st14"/>
    </g>
    <path d="M974.2 425.8V310.4v115.4zm23.8 0V310.4v115.4zm23.7 0 23.7-115.3-23.7 115.3zm23.7 0-23.7-115.3 23.7 115.3z" class="st15"/>
    <rect width="395.9" height="517.2" x="1150.9" y="-41.8" class="st3"/>
    <g transform="translate(12.368 -44.975)">
      <ellipse cx="1231.6" cy="88.6" fill="#0000cb" stroke="#000" stroke-linecap="round" stroke-linejoin="round" stroke-miterlimit="3.78" stroke-width="3" rx="68.6" ry="68.7"/>
      <path fill="#333" stroke="#22222e" stroke-linecap="round" stroke-linejoin="round" stroke-miterlimit="3.78" stroke-width="2" d="M1231.6 19.9v137.5V19.9zm68.6 68.7H1163h137.2zM1183.1 40l97 97.2-97-97.2zm97 0-97 97.2 97-97.2z"/>
    </g>
    <path d="M1433.8-26.2h52.2c16.8 0 30.5 13.7 30.5 30.5v86.1c0 16.8-13.7 30.5-30.5 30.5h-52.2c-16.8 0-30.5-13.7-30.5-30.5V4.3c.1-16.8 13.7-30.5 30.5-30.5z" class="st6"/>
    <path d="M798.7 143.4V187v-43.6zm38.4 0V187v-43.6z" class="st7" transform="matrix(1.834 0 0 -1.837 -39.696 353.876)"/>
    <path d="M784 135h67.7c4.7 0 8.5 3.8 8.5 8.5s-3.8 8.5-8.5 8.5H784c-4.7 0-8.5-3.8-8.5-8.5.1-4.7 3.8-8.5 8.5-8.5z" class="st8" transform="matrix(1.834 0 0 -1.837 -39.696 353.876)"/>
    <rect width="134.4" height="83.5" x="1178.2" y="175" class="st9"/>
    <g transform="matrix(1.834 0 0 1.837 -40.072 -446.38)">
      <rect width="72.4" height="69.5" x="664.1" y="407.4" class="st10"/>
      <path d="M674.1 426.4h12.2V458h-12.2v-31.6z" class="st11"/>
      <path d="M674.1 442.2h12.2" class="st10"/>
      <path d="M694.2 426.4h12.2V458h-12.2v-31.6z" class="st11"/>
      <path d="M694.2 442.2h12.2" class="st10"/>
      <path d="M714.4 426.4h12.2V458h-12.2v-31.6z" class="st11"/>
      <path d="M714.4 442.2h12.2" class="st10"/>
    </g>
    <path d="M808.3 337.7h19.2c7.6 0 13.8 6.2 13.8 13.8v19.2c0 7.6-6.2 13.8-13.8 13.8h-19.2c-7.6 0-13.8-6.2-13.8-13.8v-19.2c0-7.6 6.2-13.8 13.8-13.8z" class="st12" transform="matrix(1.834 0 0 1.837 -39.696 -446.38)"/>
    <path d="M803.2 343.4h7.4c1.5 0 2.7 1.2 2.7 2.7v7.4c0 1.5-1.2 2.7-2.7 2.7h-7.4c-1.5 0-2.7-1.2-2.7-2.7v-7.4c0-1.5 1.2-2.7 2.7-2.7z" class="st13" transform="matrix(1.834 0 0 1.837 -39.696 -446.38)"/>
    <path d="M825.4 343.4h7.4c1.5 0 2.7 1.2 2.7 2.7v7.4c0 1.5-1.2 2.7-2.7 2.7h-7.4c-1.5 0-2.7-1.2-2.7-2.7v-7.4c0-1.5 1.2-2.7 2.7-2.7z" class="st13" transform="matrix(1.834 0 0 1.837 -39.696 -446.38)"/>
    <path d="M803.2 365.7h7.4c1.5 0 2.7 1.2 2.7 2.7v7.4c0 1.5-1.2 2.7-2.7 2.7h-7.4c-1.5 0-2.7-1.2-2.7-2.7v-7.4c0-1.5 1.2-2.7 2.7-2.7z" class="st13" transform="matrix(1.834 0 0 1.837 -39.696 -446.38)"/>
    <path d="M825.4 365.7h7.4c1.5 0 2.7 1.2 2.7 2.7v7.4c0 1.5-1.2 2.7-2.7 2.7h-7.4c-1.5 0-2.7-1.2-2.7-2.7v-7.4c0-1.5 1.2-2.7 2.7-2.7z" class="st13" transform="matrix(1.834 0 0 1.837 -39.696 -446.38)"/>
    <path d="M796.3 403.6h43.2c3.1 0 5.6 2.5 5.6 5.6v68.4c0 3.1-2.5 5.6-5.6 5.6h-43.2c-3.1 0-5.6-2.5-5.6-5.6v-68.4c0-3.1 2.5-5.6 5.6-5.6z" class="st14" transform="matrix(1.834 0 0 1.837 -39.696 -446.38)"/>
    <g transform="matrix(1.834 0 0 1.837 -39.33 -446.38)">
      <rect width="7.1" height="7.1" x="794.7" y="408.5" class="st14"/>
      <rect width="7.1" height="7.1" x="807.7" y="408.5" class="st14"/>
      <rect width="7.1" height="7.1" x="820.6" y="408.5" class="st14"/>
      <rect width="7.1" height="7.1" x="833.6" y="408.5" class="st14"/>
    </g>
    <g transform="matrix(-1.834 0 0 -1.837 1694.882 517.142)">
      <rect width="7.1" height="7.1" x="105.2" y="46.2" class="st14"/>
      <rect width="7.1" height="7.1" x="118.1" y="46.2" class="st14"/>
      <rect width="7.1" height="7.1" x="131.1" y="46.2" class="st14"/>
      <rect width="7.1" height="7.1" x="144" y="46.2" class="st14"/>
    </g>
    <path d="M1424.3 425.8V310.4v115.4zm23.8 0V310.4v115.4zm23.7 0 23.7-115.3-23.7 115.3zm23.7 0-23.7-115.3 23.7 115.3z" class="st15"/>
    <g transform="translate(-43.413 7.121)">
      <ellipse cx="726.9" cy="1275.9" class="st18" rx="44.3" ry="44.4"/>
      <path d="M726.9 1231.5v88.8-88.8zm44.4 44.5h-88.7 88.7zm-75.7-31.5 62.7 62.8-62.7-62.8zm62.7 0-62.7 62.8 62.7-62.8z" class="st19"/>
    </g>
    <g transform="translate(-43.413 7.121)">
      <ellipse cx="1257.1" cy="1273.6" class="st18" rx="44.3" ry="44.4"/>
      <path d="M1257.1 1229.2v88.8-88.8zm44.3 44.4h-88.7 88.7zm-75.7-31.4 62.7 62.8-62.7-62.8zm62.7 0-62.7 62.8 62.7-62.8z" class="st19"/>
    </g>
    <g transform="translate(-43.413 7.121)">
      <ellipse cx="833" cy="1276.7" fill="#0000cb" stroke="#000" stroke-linecap="round" stroke-linejoin="round" stroke-miterlimit="3.78" stroke-width="6.197" rx="44.3" ry="44.4"/>
      <path d="M833 1232.3v88.8-88.8zm44.3 44.4h-88.7 88.7zm-75.7-31.4 62.7 62.8-62.7-62.8zm62.7 0-62.7 62.8 62.7-62.8z" class="st19"/>
    </g>
    <g transform="translate(-43.413 7.121)">
      <ellipse cx="939" cy="1275.9" fill="#00c600" stroke="#000" stroke-linecap="round" stroke-linejoin="round" stroke-miterlimit="3.78" stroke-width="6.197" rx="44.3" ry="44.4"/>
      <path d="M939 1231.5v88.8-88.8zm44.3 44.5h-88.7 88.7zm-75.7-31.5 62.7 62.8-62.7-62.8zm62.7 0-62.7 62.8 62.7-62.8z" class="st19"/>
    </g>
    <ellipse cx="1001.6" cy="1282.3" fill="#dfcc08" stroke="#000" stroke-linecap="round" stroke-linejoin="round" stroke-miterlimit="3.78" stroke-width="6.197" rx="44.3" ry="44.4"/>
    <path d="M1001.6 1237.9v88.8-88.8zm44.3 44.4h-88.7 88.7zm-75.6-31.4 62.7 62.8-62.7-62.8zm62.7 0-62.7 62.8 62.7-62.8z" class="st19"/>
    <ellipse cx="1107.6" cy="1281.5" fill="#d00000" stroke="#000" stroke-linecap="round" stroke-linejoin="round" stroke-miterlimit="3.78" stroke-width="6.197" rx="44.3" ry="44.4"/>
    <path d="M1107.6 1237.1v88.8-88.8zm44.4 44.4h-88.7 88.7zm-75.7-31.4 62.7 62.8-62.7-62.8zm62.7 0-62.7 62.8 62.7-62.8z" class="st19"/>
    <path d="M482.8 308.4H526c3.1 0 5.6 2.5 5.6 5.6v68.4c0 3.1-2.5 5.6-5.6 5.6h-43.2c-3.1 0-5.6-2.5-5.6-5.6V314c0-3.1 2.5-5.6 5.6-5.6z" class="st24" transform="matrix(8.194 0 0 8.159 -3184.41 -1972.136)"/>
    <g transform="matrix(8.194 0 0 8.159 -3182.771 -1972.136)">
      <rect width="7.1" height="7.1" x="481.2" y="313.3" class="st24"/>
      <rect width="7.1" height="7.1" x="494.2" y="313.3" class="st24"/>
      <rect width="7.1" height="7.1" x="507.1" y="313.3" class="st24"/>
      <rect width="7.1" height="7.1" x="520" y="313.3" class="st24"/>
    </g>
    <g transform="matrix(-8.194 0 0 -8.159 4567.745 2307.918)">
      <rect width="7.1" height="7.1" x="418.7" y="141.4" class="st24"/>
      <rect width="7.1" height="7.1" x="431.6" y="141.4" class="st24"/>
      <rect width="7.1" height="7.1" x="444.6" y="141.4" class="st24"/>
      <rect width="7.1" height="7.1" x="457.5" y="141.4" class="st24"/>
    </g>
    <path d="M789.6 1125V612.8 1125z" class="st25"/>
    <path d="M784 612.8V1125h11.2V612.8H784z" class="st26"/>
    <path d="M895.6 1125V612.8 1125z" class="st25"/>
    <path d="M890 612.8V1125h11.2V612.8H890z" class="st26"/>
    <path d="m1001.6 1125 106-512.3-106 512.3z" class="st25"/>
    <path d="m1102.2 611.7-106 512.3 11 2.2 106-512.3-11-2.2z" class="st26"/>
    <path d="m1107.7 1125-106-512.3 106 512.3z" class="st25"/>
    <path d="m1007.1 611.7-11 2.2 106 512.3 10.9-2.2-105.9-512.3z" class="st26"/>
    <path d="M584.5 371.2h43.2c3.1 0 5.6 2.5 5.6 5.6v68.4c0 3.1-2.5 5.6-5.6 5.6h-43.2c-3.1 0-5.6-2.5-5.6-5.6v-68.4c.1-3.1 2.6-5.6 5.6-5.6z" class="st24" transform="matrix(4.81 0 0 4.788 -1444.783 -1084.083)"/>
    <g transform="matrix(4.81 0 0 4.788 -1443.821 -1084.083)">
      <rect width="7.1" height="7.1" x="583" y="376.1" class="st24"/>
      <rect width="7.1" height="7.1" x="595.9" y="376.1" class="st24"/>
      <rect width="7.1" height="7.1" x="608.8" y="376.1" class="st24"/>
      <rect width="7.1" height="7.1" x="621.8" y="376.1" class="st24"/>
    </g>
    <g transform="matrix(-4.81 0 0 -4.788 3104.742 1427.765)">
      <rect width="7.1" height="7.1" x="317" y="78.7" class="st24"/>
      <rect width="7.1" height="7.1" x="329.9" y="78.7" class="st24"/>
      <rect width="7.1" height="7.1" x="342.8" y="78.7" class="st24"/>
      <rect width="7.1" height="7.1" x="355.8" y="78.7" class="st24"/>
    </g>
    <path d="M1376.7 1034.2V733.5v300.7z" class="st28"/>
    <path d="M1373.5 733.5v300.6h6.6V733.5h-6.6z" class="st28"/>
    <path d="M1439 1034.2V733.5v300.7z" class="st29"/>
    <path d="M1435.7 733.5v300.6h6.6V733.5h-6.6z" class="st29"/>
    <path d="m1501.2 1034.2 62.2-300.6-62.2 300.6z" class="st30"/>
    <path d="m1560.2 732.9-62.2 300.6 6.4 1.3 62.2-300.6-6.4-1.3z" class="st30"/>
    <path d="m1563.4 1034.2-62.2-300.6 62.2 300.6z" class="st31"/>
    <path d="m1504.4 732.9-6.4 1.3 62.2 300.6 6.4-1.3-62.2-300.6z" class="st31"/>
  </g>
</svg>