<svg xmlns="http://www.w3.org/2000/svg" width="288.288" height="242.16" viewBox="0 0 76.276 64.071"><g stroke="#000" stroke-width="2"><path d="M7.048 4.821A3.024 3.024 0 014.03 7.845 3.024 3.024 0 011 4.836a3.024 3.024 0 013.001-3.038 3.024 3.024 0 013.046 2.994" fill="#fff"/><g transform="translate(-39.387 -34.781) scale(.84212)"><rect ry="0" y="43" x="63.5" height="74.083" width="74.083" fill="#fff"/><path d="M63.5 53.583h31.75v31.75h10.583V43M105.833 85.333h10.584V64.167H127V53.583h10.583M116.417 53.583V43M116.417 85.333V106.5H127V85.333h10.583M127 64.167V74.75M116.417 95.917h-10.584V106.5H95.25v10.583M63.5 106.5h21.167V95.917H95.25V85.333" fill="none"/><path d="M63.5 74.75h10.583v10.583h10.584V74.75H95.25M74.083 85.333v10.584M74.083 64.167V74.75M84.667 64.167V74.75" fill="none"/></g></g></svg>