<svg xmlns="http://www.w3.org/2000/svg" width="288.288" height="242.16" viewBox="0 0 76.276 64.071"><path d="M7.048 4.821A3.024 3.024 0 014.03 7.845 3.024 3.024 0 011 4.836a3.024 3.024 0 013.001-3.038 3.024 3.024 0 013.046 2.994" fill="#fff" stroke="#000" stroke-width="2"/><g transform="matrix(.862 0 0 .862 102.538 -63.286)" stroke-width="2" stroke="#000"><rect ry="0" y="74.75" x="-105.833" height="74.083" width="74.083" fill="#fff"/><path d="M-105.833 85.333h21.166V106.5H-63.5V85.333h-10.583V74.75M-84.667 106.5H-95.25v10.583h10.583v10.584h-21.166M-95.25 95.917V106.5M-95.25 127.667v10.583h21.167v-10.583h21.166v10.583H-63.5v10.583M-74.083 95.917h-10.584M-74.083 106.5v10.583h21.166v10.584M-31.75 85.333h-21.167v10.584h10.584V106.5H-63.5M-52.917 117.083h21.167M-52.917 138.25h10.584v-10.583" fill="none"/></g></svg>