<svg xmlns="http://www.w3.org/2000/svg" width="288.288" height="242.16" viewBox="0 0 76.276 64.071"><path d="M7.048 4.821A3.024 3.024 0 014.03 7.845 3.024 3.024 0 011 4.836a3.024 3.024 0 013.001-3.038 3.024 3.024 0 013.046 2.994" fill="#fff" stroke="#000" stroke-width="2"/><g stroke-width="2" stroke="#000"><g transform="translate(84.33 -88.256) scale(.84212)"><rect width="74.083" height="74.083" x="-84.667" y="106.5" ry="0" fill="#fff"/><path d="M-74.083 106.5v21.167h21.166v10.583h-21.166v21.167h-10.584M-52.917 138.25h10.584V106.5v0M-63.5 117.083v10.584M-52.917 117.083v10.584M-42.333 117.083h21.166v10.584H-31.75v10.583h10.583v10.583h10.584" fill="none"/><path d="M-21.167 148.833H-63.5V138.25M-42.333 148.833v10.584h-10.584V170h-31.75M-42.333 159.417V170h21.166v10.583M-31.75 148.833v10.584h10.583" fill="none"/></g><path d="M21.942 45.992h8.913" fill="none" stroke-width="1.68424"/></g></svg>