<svg xmlns="http://www.w3.org/2000/svg" width="288.288" height="242.16" viewBox="0 0 76.276 64.071"><g stroke="#000" stroke-width="2"><path d="M7.048 4.821A3.024 3.024 0 014.03 7.845 3.024 3.024 0 011 4.836a3.024 3.024 0 013.001-3.038 3.024 3.024 0 013.046 2.994" fill="#fff"/><g transform="matrix(.862 0 0 .862 -42.065 -45.721)"><rect ry="0" y="53.583" x="63.5" height="74.083" width="74.083" fill="#fff"/><path d="M95.25 64.167V74.75H84.667v10.583H95.25v31.75h10.583V106.5h10.584V95.917h-10.584v-31.75zM63.5 64.167h10.583v21.166h10.584" fill="none"/><path d="M95.25 106.5H84.667V95.917H74.083V106.5H63.5M105.833 53.583v10.584M84.667 64.167V53.583M105.833 85.333h10.584V74.75h21.166M105.833 64.167H127M95.25 117.083v10.584M74.083 117.083H95.25M116.417 95.917H127v21.166h10.583M127 85.333v10.584M116.417 117.083h-10.584" fill="none"/></g></g></svg>