<svg xmlns="http://www.w3.org/2000/svg" fill="none" viewBox="0 0 348 348"><path stroke="#000" stroke-width="6" d="M138 346v-69"/><path stroke="#000" stroke-width="6.1" d="M3 3h343v343H3Z"/><g fill="#000"><circle cx="69.2" cy="69.2" r="3.2"/><circle cx="138.3" cy="69.2" r="3.2"/><circle cx="207.5" cy="69.2" r="3.2"/><circle cx="276.7" cy="69.2" r="3.2"/><circle cx="69.2" cy="138.3" r="3.2"/><circle cx="138.3" cy="138.3" r="3.2"/><circle cx="207.5" cy="138.3" r="3.2"/><circle cx="276.7" cy="138.3" r="3.2"/><circle cx="69.2" cy="207.5" r="3.2"/><circle cx="138.3" cy="207.5" r="3.2"/><circle cx="207.5" cy="207.5" r="3.2"/><circle cx="276.7" cy="207.5" r="3.2"/><circle cx="69.2" cy="276.7" r="3.2"/><circle cx="138.3" cy="276.7" r="3.2"/><circle cx="207.5" cy="276.7" r="3.2"/><circle cx="276.7" cy="276.7" r="3.2"/></g><path stroke="#000" stroke-width="6" d="M69 69h138v69m70-69v138m0 70h-70v-70h-69M0 138h138m-69 69v70"/><path fill="red" d="m133 57-6 6 6 6-6 6 6 6 6-6 5 6 6-6-6-6 6-6-6-6-5 6-6-6m0 69-6 6 6 6-6 6 6 6 6-6 5 6 6-6-6-6 6-6-6-6-5 6-6-6m138 0-6 6 6 6-6 6 6 6 6-6 6 6 6-6-6-6 6-6-6-6-6 6-6-6m-70 69-6 6 6 6-6 6 6 6 6-6 6 6 6-6-6-6 6-6-6-6-6 6-6-6"/><path stroke="#000" stroke-width="6" d="m35 58-15-6-6-15 6-15 15-6 15 6 7 15-7 15zm69 0-15-6-7-15 7-15 15-6 15 6 6 15-6 15zm69 0-15-6-7-15 7-15 15-6 15 6 6 15-6 15zm70 0-15-6-7-15 7-15 15-6 15 6 6 15-6 15zm68 0-15-6-7-15 7-15 15-6 15 6 6 15-6 15zM35 126l-15-6-6-15 6-15 15-6 15 6 7 15-7 15zm69 0-15-6-7-15 7-15 15-6 15 6 6 15-6 15zm69 0-15-6-7-15 7-15 15-6 15 6 6 15-6 15zm70 0-15-6-7-15 7-15 15-6 15 6 6 15-6 15zm68 0-15-6-7-15 7-15 15-6 15 6 6 15-6 15zM35 196l-15-6-6-15 6-15 15-6 15 6 7 15-7 15zm69 0-15-6-7-15 7-15 15-6 15 6 6 15-6 15zm69 0-15-6-7-15 7-15 15-6 15 6 6 15-6 15zm70 0-15-6-7-15 7-15 15-6 15 6 6 15-6 15zm68 0-15-6-7-15 7-15 15-6 15 6 6 15-6 15zM35 264l-15-6-6-15 6-15 15-6 15 6 7 15-7 15zm69 0-15-6-7-15 7-15 15-6 15 6 6 15-6 15zm69 0-15-6-7-15 7-15 15-6 15 6 6 15-6 15zm70 0-15-6-7-15 7-15 15-6 15 6 6 15-6 15zm68 0-15-6-7-15 7-15 15-6 15 6 6 15-6 15zM35 332l-15-6-6-15 6-15 15-6 15 6 7 15-7 15zm69 0-15-6-7-15 7-15 15-6 15 6 6 15-6 15zm69 0-15-6-7-15 7-15 15-6 15 6 6 15-6 15zm70 0-15-6-7-15 7-15 15-6 15 6 6 15-6 15zm68 0-15-6-7-15 7-15 15-6 15 6 6 15-6 15z"/></svg>