<svg xmlns="http://www.w3.org/2000/svg" xmlns:xlink="http://www.w3.org/1999/xlink" viewBox="0 0 512 512"><path fill="none" stroke="#000" stroke-miterlimit="10" stroke-width="19" d="M -1468.4601,-870.82954 V 1435.3987 H 837.76807 l -10e-5,-2306.22824 z" paint-order="stroke fill markers" transform="matrix(0.21030009,0,0,0.21030009,322.3173,196.63553)"/><path id="a" fill="none" stroke="#000" stroke-dasharray="none" stroke-miterlimit="10" stroke-width="19" d="m -1237.8373,-774.05222 94.643,39.2024 39.2025,94.6431 -39.2025,94.643 -94.643,39.2024 -94.643,-39.2024 -39.2025,-94.643 39.2025,-94.6431 z" paint-order="stroke fill markers" transform="matrix(0.21030009,0,0,0.21030009,322.3173,196.63553)"/><use xlink:href="#a" transform="translate(96.999997)"/><use xlink:href="#a" transform="translate(193.99999)"/><use xlink:href="#a" transform="translate(290.99999)"/><use xlink:href="#a" transform="translate(387.99999)"/><use xlink:href="#a" transform="translate(-6.1558133e-7,97.000003)"/><use xlink:href="#a" transform="translate(96.999992,96.999998)"/><use xlink:href="#a" transform="translate(193.99999,96.999998)"/><use xlink:href="#a" transform="translate(290.99999,96.999998)"/><use xlink:href="#a" transform="translate(387.99999,96.999998)"/><use xlink:href="#a" transform="translate(-5.6155817e-6,194)"/><use xlink:href="#a" transform="translate(96.999992,194)"/><use xlink:href="#a" transform="translate(193.99999,194)"/><use xlink:href="#a" transform="translate(290.99999,194)"/><use xlink:href="#a" transform="translate(387.99999,194)"/><use xlink:href="#a" transform="translate(-1.5615582e-5,291)"/><use xlink:href="#a" transform="translate(96.999992,290.99999)"/><use xlink:href="#a" transform="translate(193.99999,290.99999)"/><use xlink:href="#a" transform="translate(290.99999,290.99999)"/><use xlink:href="#a" transform="translate(388,291.00001)"/><use xlink:href="#a" transform="translate(-1.5615582e-5,388)"/><use xlink:href="#a" transform="translate(96.999982,388)"/><use xlink:href="#a" transform="translate(193.99999,387.99999)"/><use xlink:href="#a" transform="translate(291,388.00001)"/><use xlink:href="#a" transform="translate(387.99999,388)"/><path fill="none" stroke="#000" stroke-miterlimit="10" stroke-width="4" d="M111 111h194v97M402 111v194M208 305h97v97h97M208 402v97M111 305v97M14 208h194" paint-order="stroke fill markers"/><use xlink:href="#b" transform="translate(97.000004,194.00001)"/><use xlink:href="#b" transform="translate(194,97)"/><use xlink:href="#b" transform="translate(4.0527339e-6,97)"/><path id="b" fill="red" fill-opacity="1" stroke="none" stroke-dasharray="none" stroke-miterlimit="10" stroke-opacity="1" stroke-width="4" d="M 196.18629,87.872575 207.5,99.186285 218.8137,87.872585 230.12741,99.186295 218.81371,110.5 230.12742,121.81371 218.81371,133.12742 207.5,121.81371 196.18629,133.12742 184.87258,121.81371 196.18629,110.5 184.87258,99.186285 Z" paint-order="stroke fill markers"/></svg>