<svg xmlns="http://www.w3.org/2000/svg" xmlns:xlink="http://www.w3.org/1999/xlink" viewBox="0 0 512 512"><path fill="none" stroke="#000" stroke-miterlimit="10" stroke-width="19" d="M -1468.4601,-870.82954 V 1435.3987 H 837.76807 l -10e-5,-2306.22824 z" paint-order="stroke fill markers" transform="matrix(0.21030009,0,0,0.21030009,322.3173,196.63553)"/><path id="a" fill="none" stroke="#000" stroke-dasharray="none" stroke-miterlimit="10" stroke-width="19" d="m -1237.8373,-774.05222 94.643,39.2024 39.2025,94.6431 -39.2025,94.643 -94.643,39.2024 -94.643,-39.2024 -39.2025,-94.643 39.2025,-94.6431 z" paint-order="stroke fill markers" transform="matrix(0.21030009,0,0,0.21030009,322.3173,196.63553)"/><use xlink:href="#a" transform="translate(96.999997)"/><use xlink:href="#a" transform="translate(193.99999)"/><use xlink:href="#a" transform="translate(290.99999)"/><use xlink:href="#a" transform="translate(387.99999)"/><use xlink:href="#a" transform="translate(-6.1558133e-7,97.000003)"/><use xlink:href="#a" transform="translate(96.999992,96.999998)"/><use xlink:href="#a" transform="translate(193.99999,96.999998)"/><use xlink:href="#a" transform="translate(290.99999,96.999998)"/><use xlink:href="#a" transform="translate(387.99999,96.999998)"/><use xlink:href="#a" transform="translate(-5.6155817e-6,194)"/><use xlink:href="#a" transform="translate(96.999992,194)"/><use xlink:href="#a" transform="translate(193.99999,194)"/><use xlink:href="#a" transform="translate(290.99999,194)"/><use xlink:href="#a" transform="translate(387.99999,194)"/><use xlink:href="#a" transform="translate(-1.5615582e-5,291)"/><use xlink:href="#a" transform="translate(96.999992,290.99999)"/><use xlink:href="#a" transform="translate(193.99999,290.99999)"/><use xlink:href="#a" transform="translate(290.99999,290.99999)"/><use xlink:href="#a" transform="translate(388,291.00001)"/><use xlink:href="#a" transform="translate(-1.5615582e-5,388)"/><use xlink:href="#a" transform="translate(96.999982,388)"/><use xlink:href="#a" transform="translate(193.99999,387.99999)"/><use xlink:href="#a" transform="translate(291,388.00001)"/><use xlink:href="#a" transform="translate(387.99999,388)"/><path fill="none" stroke="#000" stroke-miterlimit="10" stroke-width="4" d="M208 14v97M111 111v97h97v97h97M111 402v-97M208 402h97M402 402v-97M499 208h-97M402 111h-97v97" paint-order="stroke fill markers"/><g transform="translate(133.12742,-11.313711)"><use xlink:href="#b" transform="translate(4.0527375e-6,291)"/><use xlink:href="#b" transform="translate(97.000002,194.00001)"/><use xlink:href="#b" transform="translate(-97.000004,194.00001)"/><path id="b" fill="red" fill-opacity="1" stroke="none" stroke-dasharray="none" stroke-miterlimit="10" stroke-opacity="1" stroke-width="4" d="M 160.05887,99.186287 171.37258,110.5 l 11.3137,-11.313703 11.31371,11.313713 -11.3137,11.3137 L 194,133.12742 182.68629,144.44113 171.37258,133.12742 160.05887,144.44113 148.74516,133.12742 160.05887,121.81371 148.74516,110.5 Z" paint-order="stroke fill markers"/></g></svg>