<svg xmlns="http://www.w3.org/2000/svg" fill="none" viewBox="0 0 348 348"><path stroke="#000" stroke-width="6" d="m35 58-15-6-6-16 6-15 15-6 16 6 6 15-6 16zm69 0-15-6-6-16 6-15 15-6 15 6 6 15-6 16zm69 0-15-6-6-16 6-15 15-6 15 6 7 15-7 16zm70 0-15-6-6-16 6-15 15-6 15 6 7 15-7 16zm68 0-15-6-6-16 6-15 15-6 15 6 7 15-7 16zM35 126l-15-6-6-16 6-15 15-6 16 6 6 15-6 16zm69 0-15-6-6-16 6-15 15-6 15 6 6 15-6 16zm69 0-15-6-6-16 6-15 15-6 15 6 7 15-7 16zm70 0-15-6-6-16 6-15 15-6 15 6 7 15-7 16zm68 0-15-6-6-16 6-15 15-6 15 6 7 15-7 16zM35 196l-15-6-6-16 6-15 15-6 16 6 6 15-6 16zm69 0-15-6-6-16 6-15 15-6 15 6 6 15-6 16zm69 0-15-6-6-16 6-15 15-6 15 6 7 15-7 16zm70 0-15-6-6-16 6-15 15-6 15 6 7 15-7 16zm68 0-15-6-6-16 6-15 15-6 15 6 7 15-7 16zM35 264l-15-6-6-16 6-15 15-6 16 6 6 15-6 16zm69 0-15-6-6-16 6-15 15-6 15 6 6 15-6 16zm69 0-15-6-6-16 6-15 15-6 15 6 7 15-7 16zm70 0-15-6-6-16 6-15 15-6 15 6 7 15-7 16zm68 0-15-6-6-16 6-15 15-6 15 6 7 15-7 16zM35 332l-15-6-6-16 6-15 15-6 16 6 6 15-6 16zm69 0-15-6-6-16 6-15 15-6 15 6 6 15-6 16zm69 0-15-6-6-16 6-15 15-6 15 6 7 15-7 16zm70 0-15-6-6-16 6-15 15-6 15 6 7 15-7 16zm68 0-15-6-6-16 6-15 15-6 15 6 7 15-7 16z"/><path stroke="#000" stroke-width="6.1" d="M3 3h343v343H3Z"/><g fill="#000"><circle cx="69.2" cy="69.2" r="3.2"/><circle cx="138.3" cy="69.2" r="3.2"/><circle cx="207.5" cy="69.2" r="3.2"/><circle cx="276.7" cy="69.2" r="3.2"/><circle cx="69.2" cy="138.3" r="3.2"/><circle cx="138.3" cy="138.3" r="3.2"/><circle cx="207.5" cy="138.3" r="3.2"/><circle cx="276.7" cy="138.3" r="3.2"/><circle cx="69.2" cy="207.5" r="3.2"/><circle cx="138.3" cy="207.5" r="3.2"/><circle cx="207.5" cy="207.5" r="3.2"/><circle cx="276.7" cy="207.5" r="3.2"/><circle cx="69.2" cy="276.7" r="3.2"/><circle cx="138.3" cy="276.7" r="3.2"/><circle cx="207.5" cy="276.7" r="3.2"/><circle cx="276.7" cy="276.7" r="3.2"/></g><path stroke="#000" stroke-width="6" d="M138 69h139m0 69V69m0 138h69m-208 70v69M69 207v70m138-70v70m70 0h-70M69 69v69m0 0h138m-69 0v69"/><path fill="red" d="m63 57-6 6 6 6-6 6 6 6 6-6 6 6 6-6-6-6 6-6-6-6-6 6-6-6m208 70-6 5 6 6-6 6 6 6 6-6 6 6 6-6-6-6 6-6-6-5-6 5-6-5m0 138-6 6 6 6-6 6 6 5 6-5 6 5 6-5-6-6 6-6-6-6-6 6-6-6m-69-69-6 6 6 6-6 5 6 6 5-6 6 6 6-6-6-5 6-6-6-6-6 6-5-6"/></svg>