<svg xmlns="http://www.w3.org/2000/svg" fill="none" viewBox="0 0 348 348"><path stroke="#000" stroke-width="6" d="m35 58-15-6-6-16 6-15 15-6 16 6 6 15-6 16zm69 0-15-6-6-16 6-15 15-6 15 6 6 15-6 16zm69 0-15-6-6-16 6-15 15-6 15 6 7 15-7 16zm70 0-15-6-6-16 6-15 15-6 15 6 7 15-7 16zm68 0-15-6-6-16 6-15 15-6 15 6 7 15-7 16zM35 126l-15-6-6-16 6-15 15-6 16 6 6 15-6 16zm69 0-15-6-6-16 6-15 15-6 15 6 6 15-6 16zm69 0-15-6-6-16 6-15 15-6 15 6 7 15-7 16zm70 0-15-6-6-16 6-15 15-6 15 6 7 15-7 16zm68 0-15-6-6-16 6-15 15-6 15 6 7 15-7 16zM35 196l-15-6-6-16 6-15 15-6 16 6 6 15-6 16zm69 0-15-6-6-16 6-15 15-6 15 6 6 15-6 16zm69 0-15-6-6-16 6-15 15-6 15 6 7 15-7 16zm70 0-15-6-6-16 6-15 15-6 15 6 7 15-7 16zm68 0-15-6-6-16 6-15 15-6 15 6 7 15-7 16zM35 264l-15-6-6-16 6-15 15-6 16 6 6 15-6 16zm69 0-15-6-6-16 6-15 15-6 15 6 6 15-6 16zm69 0-15-6-6-16 6-15 15-6 15 6 7 15-7 16zm70 0-15-6-6-16 6-15 15-6 15 6 7 15-7 16zm68 0-15-6-6-16 6-15 15-6 15 6 7 15-7 16zM35 332l-15-6-6-16 6-15 15-6 16 6 6 15-6 16zm69 0-15-6-6-16 6-15 15-6 15 6 6 15-6 16zm69 0-15-6-6-16 6-15 15-6 15 6 7 15-7 16zm70 0-15-6-6-16 6-15 15-6 15 6 7 15-7 16zm68 0-15-6-6-16 6-15 15-6 15 6 7 15-7 16z"/><path stroke="#000" stroke-width="6.1" d="M3 3h343v343H3Z"/><g fill="#000"><circle cx="69.2" cy="69.2" r="3.2"/><circle cx="138.3" cy="69.2" r="3.2"/><circle cx="207.5" cy="69.2" r="3.2"/><circle cx="276.7" cy="69.2" r="3.2"/><circle cx="69.2" cy="138.3" r="3.2"/><circle cx="138.3" cy="138.3" r="3.2"/><circle cx="207.5" cy="138.3" r="3.2"/><circle cx="276.7" cy="138.3" r="3.2"/><circle cx="69.2" cy="207.5" r="3.2"/><circle cx="138.3" cy="207.5" r="3.2"/><circle cx="207.5" cy="207.5" r="3.2"/><circle cx="276.7" cy="207.5" r="3.2"/><circle cx="69.2" cy="276.7" r="3.2"/><circle cx="138.3" cy="276.7" r="3.2"/><circle cx="207.5" cy="276.7" r="3.2"/><circle cx="276.7" cy="276.7" r="3.2"/></g><path stroke="#000" stroke-width="6" d="M138 277v69M69 138v139m0-70h69M69 69h69m0 0v69m0 0h69m0 0v69m0 70h70m0-70v70M207 69h70m0 0v69"/><path fill="red" d="m271 57-6 6 6 6-6 6 6 6 6-6 6 6 5-6-5-6 5-6-5-6-6 6-6-6m0 70-6 5 6 6-6 6 6 6 6-6 6 6 6-6-6-6 6-6-6-5-6 5-6-5m-139 69-6 6 6 5-6 6 6 6 6-6 6 6 6-6-6-6 6-5-6-6-6 6-6-6m0 69-5 6 5 6-5 6 5 6 6-6 6 6 6-6-6-6 6-6-6-6-6 6-6-6"/></svg>